<?xml version="1.0" standalone="no"?>
<!DOCTYPE svg PUBLIC "-//W3C//DTD SVG 20010904//EN"
 "http://www.w3.org/TR/2001/REC-SVG-20010904/DTD/svg10.dtd">
<svg version="1.0" xmlns="http://www.w3.org/2000/svg"
 width="32.000000pt" height="32.000000pt" viewBox="0 0 32.000000 32.000000"
 preserveAspectRatio="xMidYMid meet">
<metadata>
Created by potrace 1.16, written by Peter Selinger 2001-2019
</metadata>
<g transform="translate(0.000000,32.000000) scale(0.100000,-0.100000)"
fill="#000000" stroke="none">
<path fill="#000000" stroke="none" d="M155 299 c-11 -16 -1 -19 13 -3 7 8 8
14 3 14 -5 0 -13 -5 -16 -11z"/>
<path fill="#000000" stroke="none" d="M251 303 c-19 -4 -21 -7 -10 -14 12 -7
9 -17 -13 -59 -14 -28 -21 -46 -13 -40 7 6 22 33 34 60 32 75 36 62 6 -25 -4
-14 -2 -13 10 5 l16 25 -5 -30 -5 -30 15 30 15 30 -5 -45 c-4 -41 -4 -42 6
-14 10 31 -5 116 -20 113 -4 -1 -18 -4 -31 -6z"/>
<path fill="#ffffff" stroke="none" d="M287 258 c-3 -7 -5 -2 -5 12 0 14 2 19
5 13 2 -7 2 -19 0 -25z"/>
<path fill="#000000" stroke="none" d="M46 270 c-31 -23 -35 -30 -20 -30 11 0
25 5 31 11 6 6 19 9 29 7 18 -3 61 29 51 38 -3 3 -12 -2 -20 -11 -9 -8 -23
-15 -33 -15 -13 0 -14 3 -4 15 18 22 10 18 -34 -15z"/>
<path fill="#000000" stroke="none" d="M123 227 c0 -12 1 -16 4 -9 7 19 23 14
17 -5 -5 -14 -4 -15 4 -4 7 9 11 10 17 2 4 -7 1 -20 -7 -29 -11 -15 -11 -15 3
-5 9 7 19 9 24 5 4 -4 6 1 4 11 -2 10 -18 27 -34 37 l-31 19 -1 -22z"/>
<path fill="#000000" stroke="none" d="M78 233 c7 -3 16 -2 19 1 4 3 -2 6 -13
5 -11 0 -14 -3 -6 -6z"/>
<path fill="#000000" stroke="none" d="M20 220 c-18 -12 -2 -12 25 0 13 6 15
9 5 9 -8 0 -22 -4 -30 -9z"/>
<path fill="#000000" stroke="none" d="M65 205 c-16 -8 -23 -14 -14 -15 8 0
24 7 35 15 23 18 18 18 -21 0z"/>
<path fill="#000000" stroke="none" d="M100 157 c0 -9 4 -18 9 -21 5 -4 8 1 7
9 -3 21 -16 31 -16 12z"/>
<path fill="#000000" stroke="none" d="M226 133 c-6 -14 -5 -15 5 -6 7 7 10
15 7 18 -3 3 -9 -2 -12 -12z"/>
<path fill="#000000" stroke="none" d="M92 103 c-15 -28 -15 -30 4 -37 14 -5
15 -4 5 8 -9 11 -9 15 0 18 7 2 10 11 7 18 -3 11 -8 10 -16 -7z"/>
<path fill="#000000" stroke="none" d="M246 93 c-6 -14 -5 -15 5 -6 7 7 10 15
7 18 -3 3 -9 -2 -12 -12z"/>
<path fill="#000000" stroke="none" d="M240 45 c-7 -9 -10 -18 -6 -22 3 -3 6
0 6 8 0 12 2 11 10 -1 7 -12 9 -10 7 8 -2 26 -1 26 -17 7z"/>
<path fill="#000000" stroke="none" d="M90 43 c0 -6 8 -17 18 -24 16 -13 16
-13 2 6 -8 11 -16 22 -17 24 -2 2 -3 0 -3 -6z"/>
<path fill="#000000" stroke="none" d="M270 31 c0 -6 4 -13 10 -16 6 -3 7 1 4
9 -7 18 -14 21 -14 7z"/>
</g>
</svg>
