<?xml version="1.0" standalone="no"?>
<!DOCTYPE svg PUBLIC "-//W3C//DTD SVG 20010904//EN"
 "http://www.w3.org/TR/2001/REC-SVG-20010904/DTD/svg10.dtd">
<svg version="1.0" xmlns="http://www.w3.org/2000/svg"
 width="32.000000pt" height="32.000000pt" viewBox="0 0 32.000000 32.000000"
 preserveAspectRatio="xMidYMid meet">
<metadata>
Created by potrace 1.16, written by Peter Selinger 2001-2019
</metadata>
<g transform="translate(0.000000,32.000000) scale(0.100000,-0.100000)"
fill="#000000" stroke="none">
<path fill="#000000" stroke="none" d="M3 168 c2 -135 4 -151 20 -154 9 -1 17
4 17 12 0 17 -17 18 -23 2 -4 -8 -6 -9 -6 -2 -1 6 6 17 14 24 21 18 19 35 -2
19 -16 -12 -17 -12 -7 1 18 24 23 90 6 90 -7 0 -10 5 -7 11 4 6 13 8 20 5 16
-6 28 21 14 30 -5 3 -16 0 -24 -6 -10 -8 -15 -9 -15 -2 0 14 10 20 43 26 15 3
37 7 50 11 19 5 20 4 5 -5 -10 -6 -18 -16 -18 -21 0 -6 4 -7 10 -4 5 3 23 -1
40 -10 27 -14 30 -14 30 0 0 10 -5 13 -12 9 -6 -4 -8 -3 -5 4 9 14 -3 43 -14
36 -5 -3 -9 1 -9 10 0 16 -15 16 -46 -2 -12 -6 -24 -9 -27 -6 -3 3 -14 1 -25
-5 -17 -9 -19 -8 -15 9 6 22 50 56 72 56 8 -1 17 -9 20 -19 4 -10 11 -17 16
-15 5 2 20 -13 33 -32 26 -39 23 -71 -10 -107 -28 -30 -21 -35 25 -21 32 10
40 9 57 -7 11 -10 20 -24 20 -32 0 -7 6 -13 13 -13 7 0 22 -7 33 -16 18 -14
18 -15 -4 -4 -12 6 -27 8 -32 5 -5 -3 -12 6 -16 21 -5 19 -9 23 -16 12 -6 -9
-8 -8 -6 7 2 16 -3 20 -22 19 -14 0 -35 -3 -46 -7 -16 -6 -25 -2 -37 17 -14
20 -14 25 -2 30 10 3 12 0 8 -12 -6 -15 -5 -15 11 -3 15 13 16 17 4 25 -8 6
-17 18 -20 26 -3 10 -10 5 -23 -19 -16 -32 -16 -36 -1 -46 20 -15 20 -22 1
-22 -8 0 -12 4 -9 9 3 4 -1 11 -9 14 -7 2 -14 11 -14 19 0 8 5 11 10 8 6 -4 8
1 4 11 -4 9 -3 15 2 12 14 -9 20 18 6 31 -9 9 -16 3 -29 -23 -22 -47 -21 -78
2 -70 14 5 14 4 -2 -9 -18 -13 -15 -20 7 -16 4 0 7 -6 7 -14 0 -8 5 -15 11
-15 7 0 9 -9 6 -21 -4 -15 -2 -19 8 -15 8 3 17 1 20 -4 4 -6 23 -10 43 -9 34
0 35 1 13 10 -14 5 -30 8 -37 5 -10 -4 -24 13 -24 28 0 1 21 1 47 0 30 -2 52
-9 59 -19 13 -17 20 -18 45 -4 10 5 23 3 36 -6 20 -14 20 -13 22 145 l2 160
-160 0 -160 0 2 -152z"/>
<path fill="#ffffff" stroke="none" d="M200 56 c0 -6 -4 -5 -9 3 -7 11 -9 11
-14 0 -3 -8 -4 -4 -4 8 1 17 4 19 14 11 7 -6 13 -16 13 -22z"/>
<path fill="#000000" stroke="none" d="M52 282 c-27 -18 -28 -28 -2 -28 11 0
20 4 20 9 0 4 4 6 9 3 7 -5 21 14 21 28 0 8 -29 1 -48 -12z"/>
<path fill="#000000" stroke="none" d="M130 181 c0 -5 7 -14 15 -21 12 -10 15
-10 15 3 0 8 -7 17 -15 21 -8 3 -15 2 -15 -3z"/>
<path fill="#000000" stroke="none" d="M46 51 c-4 -5 -2 -12 3 -15 5 -4 12 -2
15 3 4 5 2 12 -3 15 -5 4 -12 2 -15 -3z"/>
</g>
</svg>
