<?xml version="1.0" standalone="no"?>
<!DOCTYPE svg PUBLIC "-//W3C//DTD SVG 20010904//EN"
 "http://www.w3.org/TR/2001/REC-SVG-20010904/DTD/svg10.dtd">
<svg version="1.0" xmlns="http://www.w3.org/2000/svg"
 width="32.000000pt" height="32.000000pt" viewBox="0 0 32.000000 32.000000"
 preserveAspectRatio="xMidYMid meet">
<metadata>
Created by potrace 1.16, written by Peter Selinger 2001-2019
</metadata>
<g transform="translate(0.000000,32.000000) scale(0.100000,-0.100000)"
fill="#000000" stroke="none">
<path fill="#000000" stroke="none" d="M0 160 l0 -160 160 0 160 0 0 160 0
160 -160 0 -160 0 0 -160z"/>
<path fill="#ffffff" stroke="none" d="M100 295 c0 -8 -62 -37 -67 -31 -4 3 9
12 28 20 39 18 39 17 39 11z"/>
<path fill="#ffffff" stroke="none" d="M130 265 c0 -8 -62 -37 -67 -31 -4 3 9
12 28 20 39 18 39 17 39 11z"/>
<path fill="#ffffff" stroke="none" d="M147 244 c-3 -4 1 -13 9 -22 19 -18 11
-58 -17 -88 -17 -19 -18 -24 -5 -48 12 -24 14 -25 19 -7 7 28 54 38 75 17 18
-18 8 -47 -19 -53 -8 -3 -7 0 4 7 9 6 17 18 17 27 0 14 -2 14 -15 -3 -8 -10
-15 -14 -15 -9 0 6 -4 4 -9 -3 -7 -11 -9 -10 -14 3 -4 9 -3 13 3 10 6 -3 10
-1 10 5 0 7 -6 10 -12 7 -7 -2 -12 -15 -10 -28 2 -19 0 -21 -8 -9 -9 13 -10
13 -10 0 0 -9 -3 -11 -8 -5 -6 10 -14 11 -39 6 -4 0 -2 -6 5 -13 17 -17 15
-24 -7 -25 -14 -1 -17 3 -14 18 3 10 0 19 -6 19 -6 0 -11 9 -11 20 0 11 -6 18
-12 16 -7 -1 -9 -1 -4 2 4 2 2 8 -5 13 -12 7 -11 9 1 9 13 0 13 1 0 10 -13 9
-13 10 0 10 13 0 13 2 0 11 -13 9 -12 10 2 5 20 -6 25 9 6 18 -7 3 0 3 16 1
42 -6 44 -14 12 -41 -27 -24 -27 -26 -8 -30 14 -4 18 -12 14 -27 -3 -16 -2
-19 7 -12 6 6 13 26 15 45 2 19 9 36 16 38 9 3 9 7 -1 14 -11 7 -9 8 5 4 13
-5 17 -2 12 9 -3 8 0 15 7 15 8 0 6 4 -3 10 -12 8 -12 10 -1 10 11 0 11 3 1
15 -9 11 -17 12 -32 4 -11 -6 -22 -8 -25 -6 -3 3 8 12 24 21 30 16 40 20 30
10z"/>
<path fill="#ffffff" stroke="none" d="M40 230 c-20 -13 -33 -13 -25 0 3 6 14
10 23 10 15 0 15 -2 2 -10z"/>
<path fill="#ffffff" stroke="none" d="M40 190 c-20 -13 -33 -13 -25 0 3 6 14
10 23 10 15 0 15 -2 2 -10z"/>
<path fill="#ffffff" stroke="none" d="M87 184 c-3 -3 -12 -4 -19 -1 -8 3 -5
6 6 6 11 1 17 -2 13 -5z"/>
<path fill="#ffffff" stroke="none" d="M25 46 c0 -13 -2 -27 -5 -30 -5 -4 -6
43 -1 52 4 8 7 -1 6 -22z"/>
<path fill="#ffffff" stroke="none" d="M302 34 c4 -3 8 -11 8 -17 0 -8 -3 -9
-8 -1 -14 20 -41 24 -51 6 -8 -14 -10 -14 -11 -2 0 13 -1 13 -10 0 -5 -8 -10
-10 -10 -4 0 27 49 38 82 18z"/>
<path fill="#000000" stroke="none" d="M72 139 c-7 -10 -8 -19 -3 -19 13 0 33
28 23 33 -4 3 -13 -3 -20 -14z"/>
<path fill="#000000" stroke="none" d="M196 85 c4 -8 8 -15 10 -15 2 0 4 7 4
15 0 8 -4 15 -10 15 -5 0 -7 -7 -4 -15z"/>
<path fill="#000000" stroke="none" d="M121 74 c0 -11 3 -14 6 -6 3 7 2 16 -1
19 -3 4 -6 -2 -5 -13z"/>
</g>
</svg>
