<?xml version="1.0" standalone="no"?>
<!DOCTYPE svg PUBLIC "-//W3C//DTD SVG 20010904//EN"
 "http://www.w3.org/TR/2001/REC-SVG-20010904/DTD/svg10.dtd">
<svg version="1.0" xmlns="http://www.w3.org/2000/svg"
 width="32.000000pt" height="32.000000pt" viewBox="0 0 32.000000 32.000000"
 preserveAspectRatio="xMidYMid meet">
<metadata>
Created by potrace 1.16, written by Peter Selinger 2001-2019
</metadata>
<g transform="translate(0.000000,32.000000) scale(0.100000,-0.100000)"
fill="#000000" stroke="none">
<path fill="#000000" stroke="none" d="M0 160 l0 -160 160 0 160 0 0 160 0
160 -160 0 -160 0 0 -160z"/>
<path fill="#ffffff" stroke="none" d="M216 260 c-22 -14 -24 -19 -13 -28 8
-7 18 -8 22 -4 5 4 5 1 1 -6 -7 -11 -11 -11 -24 1 -16 14 -55 20 -48 8 2 -3
-5 -14 -14 -24 -28 -29 -34 -2 -8 37 23 34 61 47 51 16 -4 -10 2 -7 17 7 13
12 28 19 33 16 5 -3 -3 -13 -17 -23z"/>
<path fill="#ffffff" stroke="none" d="M116 243 c-10 -10 -19 5 -10 18 6 11 8
11 12 0 2 -7 1 -15 -2 -18z"/>
<path fill="#ffffff" stroke="none" d="M178 223 c-1 -5 2 -18 6 -31 6 -19 10
-21 23 -10 8 6 22 13 30 14 11 2 12 -1 2 -12 -6 -7 -14 -12 -18 -10 -3 2 -15
-2 -26 -10 -16 -12 -16 -14 -3 -14 9 0 20 -5 24 -12 5 -8 2 -9 -11 -4 -11 4
-25 0 -36 -10 -24 -22 -26 1 -3 27 12 14 13 22 4 38 -6 12 -8 26 -5 31 7 12
16 13 13 3z"/>
<path fill="#ffffff" stroke="none" d="M138 127 c-2 -9 -10 -2 -21 21 l-19 37
22 -21 c12 -12 20 -28 18 -37z"/>
<path fill="#ffffff" stroke="none" d="M110 115 c4 3 6 -5 2 -17 l-5 -22 -9
23 -8 23 -21 -23 -20 -24 17 32 c15 26 20 30 27 18 4 -9 12 -13 17 -10z"/>
<path fill="#ffffff" stroke="none" d="M239 118 c-4 -22 13 -68 22 -62 5 3 9
3 9 0 0 -3 -5 -8 -10 -11 -12 -8 -40 53 -33 72 7 17 15 17 12 1z"/>
<path fill="#ffffff" stroke="none" d="M213 105 c4 -8 2 -17 -3 -20 -6 -4 -10
3 -10 14 0 25 6 27 13 6z"/>
<path fill="#ffffff" stroke="none" d="M156 67 c-1 -19 -6 -34 -12 -34 -6 0
-9 10 -7 21 12 56 20 61 19 13z"/>
<path fill="#ffffff" stroke="none" d="M65 60 c3 -6 -1 -7 -9 -4 -18 7 -21 14
-7 14 6 0 13 -4 16 -10z"/>
</g>
</svg>
