<?xml version="1.0" standalone="no"?>
<!DOCTYPE svg PUBLIC "-//W3C//DTD SVG 20010904//EN"
 "http://www.w3.org/TR/2001/REC-SVG-20010904/DTD/svg10.dtd">
<svg version="1.0" xmlns="http://www.w3.org/2000/svg"
 width="32.000000pt" height="32.000000pt" viewBox="0 0 32.000000 32.000000"
 preserveAspectRatio="xMidYMid meet">
<metadata>
Created by potrace 1.16, written by Peter Selinger 2001-2019
</metadata>
<g transform="translate(0.000000,32.000000) scale(0.100000,-0.100000)"
fill="#000000" stroke="none">
<path fill="#000000" stroke="none" d="M127 254 c-11 -11 -8 -44 3 -44 6 0 13
7 16 15 4 8 11 15 16 15 7 0 6 -5 -1 -13 -6 -8 -8 -17 -4 -20 3 -4 -2 -7 -13
-8 -10 0 -4 -5 15 -11 26 -7 31 -12 20 -19 -12 -7 -12 -9 1 -9 13 0 13 -1 0
-11 -13 -9 -13 -10 0 -6 8 2 15 9 15 14 0 24 13 22 29 -2 10 -15 15 -33 12
-41 -3 -8 -1 -14 4 -14 27 0 -12 83 -39 86 -6 1 -15 2 -20 3 -5 0 -8 16 -7 34
1 25 -3 33 -19 35 -12 2 -24 0 -28 -4z"/>
<path fill="#000000" stroke="none" d="M122 155 c-10 -22 -15 -24 -32 -15 -11
6 -18 15 -15 21 4 5 1 9 -4 9 -21 0 -11 -27 14 -38 22 -10 27 -9 41 14 9 13
15 27 12 29 -3 3 -10 -6 -16 -20z"/>
<path fill="#000000" stroke="none" d="M150 98 c-11 -18 -20 -41 -20 -50 0 -9
-8 -19 -17 -21 -17 -4 -17 -5 0 -6 10 0 20 7 23 16 27 85 44 94 60 33 8 -28 8
-41 0 -44 -6 -2 -3 -5 7 -5 9 -1 17 0 17 2 -8 40 -30 102 -38 105 -6 2 -21
-11 -32 -30z"/>
</g>
</svg>
