<?xml version="1.0" standalone="no"?>
<!DOCTYPE svg PUBLIC "-//W3C//DTD SVG 20010904//EN"
 "http://www.w3.org/TR/2001/REC-SVG-20010904/DTD/svg10.dtd">
<svg version="1.0" xmlns="http://www.w3.org/2000/svg"
 width="32.000000pt" height="32.000000pt" viewBox="0 0 32.000000 32.000000"
 preserveAspectRatio="xMidYMid meet">
<metadata>
Created by potrace 1.16, written by Peter Selinger 2001-2019
</metadata>
<g transform="translate(0.000000,32.000000) scale(0.100000,-0.100000)"
fill="#000000" stroke="none">
<path fill="#000000" stroke="none" d="M0 160 l0 -160 160 0 160 0 0 160 0
160 -160 0 -160 0 0 -160z"/>
<path fill="#ffffff" stroke="none" d="M62 266 c2 -19 0 -32 -4 -30 -4 3 -8
13 -8 22 -1 15 -2 15 -15 -2 -8 -11 -15 -15 -15 -10 0 10 28 54 34 54 2 0 6
-15 8 -34z"/>
<path fill="#ffffff" stroke="none" d="M286 257 c10 -12 12 -16 4 -9 -21 18
-34 15 -19 -5 7 -10 -1 -5 -18 11 -31 27 -31 28 -42 8 -6 -11 -8 -27 -6 -35 7
-15 -20 -43 -29 -29 -2 4 5 29 17 54 20 42 24 44 49 36 14 -5 34 -19 44 -31z"/>
<path fill="#ffffff" stroke="none" d="M118 192 c3 -20 -34 -54 -65 -58 -22
-4 -15 35 12 62 29 29 49 27 53 -4z"/>
<path fill="#ffffff" stroke="none" d="M185 159 c17 -8 15 -8 -7 -4 -39 8 -34
-24 6 -38 10 -4 16 -10 12 -14 -3 -4 -20 3 -36 16 -18 13 -35 19 -43 14 -6 -4
-15 -8 -19 -9 -5 -1 -10 -2 -13 -3 -3 0 -1 -10 5 -22 9 -16 8 -25 -6 -40 -9
-10 -20 -17 -22 -14 -3 3 3 11 12 18 15 11 16 18 7 34 -12 23 -3 35 37 47 12
4 22 12 22 17 0 11 19 11 45 -2z"/>
<path fill="#ffffff" stroke="none" d="M230 149 c0 -5 -4 -9 -8 -9 -5 0 -9 7
-9 15 0 8 4 12 9 9 4 -3 8 -9 8 -15z"/>
<path fill="#ffffff" stroke="none" d="M137 106 c0 -8 -6 -12 -15 -9 -11 5
-11 7 0 14 7 5 13 9 14 9 0 0 1 -6 1 -14z"/>
<path fill="#ffffff" stroke="none" d="M198 39 c-7 -4 -15 -5 -18 -2 -3 3 0 8
6 10 7 2 10 14 8 26 -4 20 -3 20 6 -2 8 -18 7 -26 -2 -32z"/>
<path fill="#ffffff" stroke="none" d="M263 67 c12 -19 13 -24 2 -24 -8 0 -12
4 -9 8 2 4 0 10 -6 14 -9 6 -14 25 -6 25 2 0 11 -10 19 -23z"/>
<path fill="#000000" stroke="none" d="M186 213 c-6 -14 -5 -15 5 -6 7 7 10
15 7 18 -3 3 -9 -2 -12 -12z"/>
<path fill="#000000" stroke="none" d="M92 198 c-6 -6 -12 -19 -12 -27 0 -13
2 -13 16 1 9 9 15 21 13 27 -3 9 -8 8 -17 -1z"/>
<path fill="#000000" stroke="none" d="M55 160 c-3 -5 -1 -10 4 -10 6 0 11 5
11 10 0 6 -2 10 -4 10 -3 0 -8 -4 -11 -10z"/>
</g>
</svg>
