<?xml version="1.0" standalone="no"?>
<!DOCTYPE svg PUBLIC "-//W3C//DTD SVG 20010904//EN"
 "http://www.w3.org/TR/2001/REC-SVG-20010904/DTD/svg10.dtd">
<svg version="1.0" xmlns="http://www.w3.org/2000/svg"
 width="32.000000pt" height="32.000000pt" viewBox="0 0 32.000000 32.000000"
 preserveAspectRatio="xMidYMid meet">
<metadata>
Created by potrace 1.16, written by Peter Selinger 2001-2019
</metadata>
<g transform="translate(0.000000,32.000000) scale(0.100000,-0.100000)"
fill="#000000" stroke="none">
<path fill="#000000" stroke="none" d="M101 215 c-19 -16 -42 -29 -51 -27 -9
1 -25 -7 -35 -18 -24 -27 -10 -55 28 -55 32 -1 43 -10 22 -19 -11 -4 -14 -2
-9 7 5 8 2 8 -9 -2 -22 -18 -13 -31 18 -25 20 3 27 -1 35 -21 12 -32 47 -33
61 -1 12 26 71 49 105 40 27 -7 33 3 40 67 4 39 2 50 -8 46 -7 -2 -26 7 -42
20 -41 34 -108 29 -155 -12z"/>
<path fill="#ffffff" stroke="none" d="M150 205 c-11 -13 -11 -16 0 -13 8 2
14 -2 15 -9 0 -6 3 -14 7 -18 8 -9 5 16 -5 32 -4 6 -3 14 3 18 6 4 8 10 5 14
-2 5 6 8 18 7 13 -1 21 -7 19 -16 -2 -10 0 -11 11 -2 11 9 19 6 37 -13 17 -19
26 -22 31 -13 5 8 8 5 6 -9 -1 -16 -5 -19 -13 -12 -8 6 -17 1 -28 -17 -10 -14
-23 -23 -31 -20 -8 3 -16 0 -19 -7 -3 -9 -5 -9 -5 1 -1 7 14 21 32 32 17 11
26 20 19 20 -6 0 -11 3 -10 8 2 4 0 8 -4 10 -5 1 -8 -1 -9 -5 -3 -20 -21 -43
-30 -38 -9 6 -13 -7 -10 -31 2 -18 -27 -25 -33 -8 -3 8 -23 22 -43 31 -21 9
-33 18 -26 20 7 2 10 10 7 17 -7 18 46 60 59 47 7 -7 6 -16 -3 -26z"/>
<path fill="#ffffff" stroke="none" d="M41 167 c-6 -8 -8 -17 -4 -20 3 -4 -1
-7 -10 -7 -20 0 -22 11 -5 28 16 16 33 15 19 -1z"/>
<path fill="#ffffff" stroke="none" d="M90 136 c19 -14 20 -17 5 -11 -25 9
-35 9 -60 0 -18 -6 -18 -5 -2 5 9 6 15 15 12 20 -9 14 19 6 45 -14z"/>
<path fill="#ffffff" stroke="none" d="M279 122 c7 -13 6 -19 -2 -19 -7 0 -13
9 -13 19 0 10 1 18 3 18 1 0 7 -8 12 -18z"/>
<path fill="#ffffff" stroke="none" d="M146 76 c0 -27 -3 -34 -17 -33 -10 1
-16 4 -14 8 3 3 9 18 14 33 14 34 16 33 17 -8z"/>
</g>
</svg>
