<?xml version="1.0" standalone="no"?>
<!DOCTYPE svg PUBLIC "-//W3C//DTD SVG 20010904//EN"
 "http://www.w3.org/TR/2001/REC-SVG-20010904/DTD/svg10.dtd">
<svg version="1.0" xmlns="http://www.w3.org/2000/svg"
 width="32.000000pt" height="32.000000pt" viewBox="0 0 32.000000 32.000000"
 preserveAspectRatio="xMidYMid meet">
<metadata>
Created by potrace 1.16, written by Peter Selinger 2001-2019
</metadata>
<g transform="translate(0.000000,32.000000) scale(0.100000,-0.100000)"
fill="#000000" stroke="none">
<path fill="#000000" stroke="none" d="M0 160 l0 -160 160 0 160 0 0 160 0
160 -160 0 -160 0 0 -160z"/>
<path fill="#ffffff" stroke="none" d="M130 285 c0 -14 -5 -25 -11 -25 -5 0
-7 5 -4 10 4 6 1 17 -5 25 -10 12 -9 15 4 15 10 0 16 -9 16 -25z"/>
<path fill="#ffffff" stroke="none" d="M130 235 c0 -8 -2 -15 -4 -15 -2 0 -6
7 -10 15 -3 8 -1 15 4 15 6 0 10 -7 10 -15z"/>
<path fill="#ffffff" stroke="none" d="M186 203 c-2 -9 -9 -19 -17 -21 -11 -3
-11 -1 1 7 13 9 12 11 -5 12 l-20 0 20 9 c11 5 21 9 22 9 1 1 0 -7 -1 -16z"/>
<path fill="#ffffff" stroke="none" d="M280 175 c-5 -14 -7 -33 -4 -42 5 -15
4 -16 -5 -3 -9 13 -11 12 -12 -5 0 -11 -3 -15 -5 -9 -2 6 2 26 10 44 12 31 12
36 -3 48 -14 11 -13 12 6 2 19 -9 21 -14 13 -35z"/>
<path fill="#ffffff" stroke="none" d="M95 132 c-3 -3 -11 0 -18 7 -9 10 -8
11 6 5 10 -3 15 -9 12 -12z"/>
<path fill="#ffffff" stroke="none" d="M210 135 c-14 -16 -46 -20 -54 -6 -3 4
5 6 18 4 13 -3 27 0 30 6 4 6 10 11 13 11 3 0 0 -7 -7 -15z"/>
<path fill="#ffffff" stroke="none" d="M130 98 c-20 -22 -28 -44 -11 -34 5 3
14 -1 21 -9 10 -12 10 -18 0 -30 -7 -8 -17 -15 -23 -15 -7 0 -7 4 1 12 9 9 8
16 -4 29 -14 16 -14 20 1 43 10 14 21 26 27 26 5 0 0 -10 -12 -22z"/>
<path fill="#ffffff" stroke="none" d="M220 101 c-5 -11 -15 -23 -22 -27 -7
-5 -8 -2 -3 7 21 37 44 55 25 20z"/>
<path fill="#ffffff" stroke="none" d="M246 21 c-4 -6 -15 -11 -24 -11 -13 0
-13 2 4 15 10 8 15 15 9 14 -5 -1 -18 1 -28 6 -15 6 -16 10 -5 16 16 10 54
-24 44 -40z"/>
</g>
</svg>
