<?xml version="1.0" standalone="no"?>
<!DOCTYPE svg PUBLIC "-//W3C//DTD SVG 20010904//EN"
 "http://www.w3.org/TR/2001/REC-SVG-20010904/DTD/svg10.dtd">
<svg version="1.0" xmlns="http://www.w3.org/2000/svg"
 width="32.000000pt" height="32.000000pt" viewBox="0 0 32.000000 32.000000"
 preserveAspectRatio="xMidYMid meet">
<metadata>
Created by potrace 1.16, written by Peter Selinger 2001-2019
</metadata>
<g transform="translate(0.000000,32.000000) scale(0.100000,-0.100000)"
fill="#000000" stroke="none">
<path fill="#000000" stroke="none" d="M0 160 l0 -160 160 0 160 0 0 160 0
160 -160 0 -160 0 0 -160z"/>
<path fill="#ffffff" stroke="none" d="M168 270 c3 -9 -1 -11 -12 -7 -9 4 -16
2 -16 -2 0 -5 6 -12 13 -14 9 -4 9 -6 0 -6 -16 -1 -26 17 -19 35 7 18 28 14
34 -6z"/>
<path fill="#ffffff" stroke="none" d="M200 230 c-8 -5 -19 -10 -25 -10 -5 0
-3 5 5 10 8 5 20 10 25 10 6 0 3 -5 -5 -10z"/>
<path fill="#ffffff" stroke="none" d="M57 205 c0 -8 -4 -15 -9 -15 -4 0 -8 7
-8 15 0 8 4 15 8 15 5 0 9 -7 9 -15z"/>
<path fill="#ffffff" stroke="none" d="M183 203 c-7 -2 -19 -2 -25 0 -7 3 -2
5 12 5 14 0 19 -2 13 -5z"/>
<path fill="#ffffff" stroke="none" d="M250 169 c0 -11 -4 -19 -10 -19 -5 0
-7 7 -4 15 4 8 0 23 -7 33 -13 15 -12 16 4 3 9 -7 17 -22 17 -32z"/>
<path fill="#ffffff" stroke="none" d="M110 196 c0 -2 -6 -9 -14 -15 -11 -9
-16 -9 -22 0 -4 7 -3 9 4 5 6 -3 13 -2 17 4 6 10 15 14 15 6z"/>
<path fill="#ffffff" stroke="none" d="M181 127 c-10 -9 -11 -8 -5 6 3 10 9
15 12 12 3 -3 0 -11 -7 -18z"/>
<path fill="#ffffff" stroke="none" d="M134 124 c3 -8 2 -12 -4 -9 -6 3 -10
10 -10 16 0 14 7 11 14 -7z"/>
<path fill="#ffffff" stroke="none" d="M248 79 c-3 -40 -14 -37 -14 5 0 19 4
32 8 30 5 -3 7 -19 6 -35z"/>
<path fill="#ffffff" stroke="none" d="M115 101 c3 -5 1 -12 -5 -16 -5 -3 -10
1 -10 9 0 18 6 21 15 7z"/>
<path fill="#ffffff" stroke="none" d="M188 85 c14 -31 15 -35 4 -35 -4 0 -13
14 -19 30 -14 36 -1 40 15 5z"/>
<path fill="#ffffff" stroke="none" d="M120 40 c0 -5 -4 -10 -10 -10 -5 0 -10
5 -10 10 0 6 5 10 10 10 6 0 10 -4 10 -10z"/>
<path fill="#ffffff" stroke="none" d="M190 30 c0 -5 -4 -10 -10 -10 -5 0 -10
5 -10 10 0 6 5 10 10 10 6 0 10 -4 10 -10z"/>
</g>
</svg>
