<?xml version="1.0" standalone="no"?>
<!DOCTYPE svg PUBLIC "-//W3C//DTD SVG 20010904//EN"
 "http://www.w3.org/TR/2001/REC-SVG-20010904/DTD/svg10.dtd">
<svg version="1.0" xmlns="http://www.w3.org/2000/svg"
 width="32.000000pt" height="32.000000pt" viewBox="0 0 32.000000 32.000000"
 preserveAspectRatio="xMidYMid meet">
<metadata>
Created by potrace 1.16, written by Peter Selinger 2001-2019
</metadata>
<g transform="translate(0.000000,32.000000) scale(0.100000,-0.100000)"
fill="#000000" stroke="none">
<path fill="#000000" stroke="none" d="M61 284 c-19 -8 -32 -17 -28 -20 5 -6
67 23 67 31 0 6 0 7 -39 -11z"/>
<path fill="#000000" stroke="none" d="M94 262 c4 -7 1 -12 -6 -12 -9 0 -9 -3
2 -10 13 -9 13 -10 0 -10 -13 0 -13 -1 0 -10 12 -8 12 -10 -5 -10 -17 0 -17
-2 -5 -10 12 -8 12 -10 -5 -11 -11 0 -14 -3 -7 -6 16 -6 16 -23 0 -19 -7 1
-10 1 -5 -1 15 -9 6 -22 -10 -17 -15 5 -16 4 -3 -5 13 -9 13 -11 0 -11 -13 0
-13 -1 0 -10 13 -9 13 -10 0 -10 -12 0 -13 -2 -1 -9 7 -5 9 -11 5 -13 -5 -3
-3 -3 4 -2 6 2 12 -5 12 -16 0 -11 5 -20 11 -20 6 0 9 -9 6 -19 -3 -14 0 -19
13 -18 14 1 16 5 9 18 -11 21 -3 27 32 24 18 -1 26 3 25 13 0 8 5 17 12 19 6
3 12 0 12 -7 0 -6 -5 -8 -12 -4 -6 4 -8 3 -5 -4 9 -14 36 -9 48 9 7 11 9 11 9
-3 0 -9 -8 -22 -17 -28 -11 -7 -12 -10 -4 -7 27 6 37 35 19 53 -21 22 -66 11
-78 -19 -8 -21 -9 -21 -10 -2 l-1 20 -9 -20 -9 -20 -1 20 c-1 19 -2 18 -10 -3
-11 -27 -24 -29 -17 -3 3 14 -2 21 -17 25 -20 5 -20 6 -2 19 11 8 16 19 12 25
-4 6 0 28 9 48 18 43 19 70 3 80 -7 4 -8 3 -4 -4z"/>
<path fill="#ffffff" stroke="none" d="M80 130 c0 -5 -5 -10 -11 -10 -5 0 -7
5 -4 10 3 6 8 10 11 10 2 0 4 -4 4 -10z"/>
<path fill="#ffffff" stroke="none" d="M210 85 c0 -19 -6 -19 -14 0 -3 8 -1
15 4 15 6 0 10 -7 10 -15z"/>
<path fill="#000000" stroke="none" d="M19 68 c-5 -9 -4 -56 1 -52 5 6 8 54 3
54 -2 0 -4 -1 -4 -2z"/>
<path fill="#000000" stroke="none" d="M231 37 c-6 -6 -11 -16 -11 -21 0 -6 5
-4 10 4 9 13 10 13 10 0 1 -12 3 -12 11 2 10 18 37 14 51 -6 5 -8 8 -7 8 1 0
23 -61 38 -79 20z"/>
</g>
</svg>
