<?xml version="1.0" standalone="no"?>
<!DOCTYPE svg PUBLIC "-//W3C//DTD SVG 20010904//EN"
 "http://www.w3.org/TR/2001/REC-SVG-20010904/DTD/svg10.dtd">
<svg version="1.0" xmlns="http://www.w3.org/2000/svg"
 width="32.000000pt" height="32.000000pt" viewBox="0 0 32.000000 32.000000"
 preserveAspectRatio="xMidYMid meet">
<metadata>
Created by potrace 1.16, written by Peter Selinger 2001-2019
</metadata>
<g transform="translate(0.000000,32.000000) scale(0.100000,-0.100000)"
fill="#000000" stroke="none">
<path fill="#000000" stroke="none" d="M134 276 c-7 -18 3 -36 19 -35 9 0 9 2
0 6 -7 2 -13 9 -13 14 0 4 7 6 16 2 11 -4 15 -2 12 7 -6 20 -27 24 -34 6z"/>
<path fill="#000000" stroke="none" d="M180 230 c-8 -5 -10 -10 -5 -10 6 0 17
5 25 10 8 5 11 10 5 10 -5 0 -17 -5 -25 -10z"/>
<path fill="#000000" stroke="none" d="M40 205 c0 -8 4 -15 8 -15 5 0 9 7 9
15 0 8 -4 15 -9 15 -4 0 -8 -7 -8 -15z"/>
<path fill="#000000" stroke="none" d="M158 203 c6 -2 18 -2 25 0 6 3 1 5 -13
5 -14 0 -19 -2 -12 -5z"/>
<path fill="#000000" stroke="none" d="M229 198 c7 -10 11 -25 7 -33 -3 -8 -1
-15 4 -15 17 0 11 37 -7 51 -16 13 -17 12 -4 -3z"/>
<path fill="#000000" stroke="none" d="M95 190 c-4 -6 -11 -7 -17 -4 -7 4 -8
2 -4 -5 6 -9 11 -9 22 0 14 11 18 19 10 19 -3 0 -8 -5 -11 -10z"/>
<path fill="#000000" stroke="none" d="M176 133 c-6 -14 -5 -15 5 -6 7 7 10
15 7 18 -3 3 -9 -2 -12 -12z"/>
<path fill="#000000" stroke="none" d="M120 131 c0 -6 4 -13 10 -16 6 -3 7 1
4 9 -7 18 -14 21 -14 7z"/>
<path fill="#000000" stroke="none" d="M234 84 c0 -19 3 -34 6 -34 9 0 11 58
2 64 -4 2 -8 -11 -8 -30z"/>
<path fill="#000000" stroke="none" d="M100 94 c0 -8 5 -12 10 -9 6 4 8 11 5
16 -9 14 -15 11 -15 -7z"/>
<path fill="#000000" stroke="none" d="M173 80 c6 -16 15 -30 19 -30 11 0 10
4 -4 35 -16 35 -29 31 -15 -5z"/>
<path fill="#000000" stroke="none" d="M100 40 c0 -5 5 -10 10 -10 6 0 10 5
10 10 0 6 -4 10 -10 10 -5 0 -10 -4 -10 -10z"/>
<path fill="#000000" stroke="none" d="M170 30 c0 -5 5 -10 10 -10 6 0 10 5
10 10 0 6 -4 10 -10 10 -5 0 -10 -4 -10 -10z"/>
</g>
</svg>
