<?xml version="1.0" standalone="no"?>
<!DOCTYPE svg PUBLIC "-//W3C//DTD SVG 20010904//EN"
 "http://www.w3.org/TR/2001/REC-SVG-20010904/DTD/svg10.dtd">
<svg version="1.0" xmlns="http://www.w3.org/2000/svg"
 width="32.000000pt" height="32.000000pt" viewBox="0 0 32.000000 32.000000"
 preserveAspectRatio="xMidYMid meet">
<metadata>
Created by potrace 1.16, written by Peter Selinger 2001-2019
</metadata>
<g transform="translate(0.000000,32.000000) scale(0.100000,-0.100000)"
fill="#000000" stroke="none">
<path fill="#000000" stroke="none" d="M0 160 l0 -160 160 0 160 0 0 160 0
160 -160 0 -160 0 0 -160z"/>
<path fill="#ffffff" stroke="none" d="M174 223 c-1 -18 2 -34 7 -34 5 -1 14
-2 20 -3 28 -3 65 -86 38 -86 -6 0 -8 7 -5 16 4 10 -1 25 -10 35 -17 19 -40
27 -29 10 3 -5 1 -12 -5 -16 -6 -4 -5 -14 4 -28 20 -33 28 -97 11 -97 -8 0
-11 7 -8 18 2 10 -1 31 -7 47 l-12 30 -19 -24 c-10 -13 -19 -32 -19 -43 0 -18
1 -18 16 -4 16 17 34 21 34 9 0 -16 -56 -40 -75 -32 -11 4 -15 8 -9 8 6 1 23
24 36 51 21 42 23 52 11 61 -10 9 -18 8 -32 -5 -16 -15 -22 -15 -40 -4 -12 7
-21 18 -21 25 0 19 9 16 30 -9 l17 -22 16 29 c11 22 12 35 5 51 -15 32 -3 56
24 52 19 -2 23 -9 22 -35z"/>
<path fill="#ffffff" stroke="none" d="M258 54 c28 -8 28 -20 0 -27 -20 -6
-37 6 -38 26 0 8 8 9 38 1z"/>
</g>
</svg>
