<?xml version="1.0" standalone="no"?>
<!DOCTYPE svg PUBLIC "-//W3C//DTD SVG 20010904//EN"
 "http://www.w3.org/TR/2001/REC-SVG-20010904/DTD/svg10.dtd">
<svg version="1.0" xmlns="http://www.w3.org/2000/svg"
 width="32.000000pt" height="32.000000pt" viewBox="0 0 32.000000 32.000000"
 preserveAspectRatio="xMidYMid meet">
<metadata>
Created by potrace 1.16, written by Peter Selinger 2001-2019
</metadata>
<g transform="translate(0.000000,32.000000) scale(0.100000,-0.100000)"
fill="#000000" stroke="none">
<path fill="#000000" stroke="none" d="M0 159 l0 -159 53 0 c52 0 97 19 97 42
0 6 -12 1 -27 -13 -16 -13 -22 -17 -15 -9 10 12 9 17 -9 31 -20 15 -23 15 -41
-3 -16 -16 -22 -17 -34 -7 -23 19 -12 51 26 77 19 13 39 30 43 38 13 24 18 92
7 99 -12 8 -13 42 -1 49 5 4 7 -3 4 -13 -3 -10 3 -31 13 -45 l17 -27 24 23
c16 15 23 31 20 45 -2 12 0 20 4 17 12 -7 11 -38 -1 -50 -13 -13 4 -29 40 -38
21 -5 20 -3 -5 9 -16 8 -24 14 -17 15 7 0 35 -11 63 -25 44 -23 49 -29 42 -48
-10 -30 -7 -87 6 -100 8 -8 11 28 11 120 l0 132 -160 -1 -160 0 0 -159z"/>
<path fill="#000000" stroke="none" d="M161 228 c-1 -12 -8 -15 -27 -12 -14 3
-23 1 -20 -5 13 -20 -18 -73 -55 -97 -37 -23 -51 -55 -30 -68 4 -3 6 7 4 22
-3 25 -3 26 6 5 14 -31 19 -29 14 5 -3 23 -2 24 6 7 9 -19 10 -19 10 -1 1 18
51 86 51 68 0 -5 -9 -17 -20 -27 -11 -10 -20 -26 -20 -35 0 -21 46 -54 55 -40
6 10 -1 14 -18 11 -13 -2 12 37 29 47 11 6 13 12 6 16 -6 3 -22 -8 -37 -26
-15 -18 -24 -26 -20 -18 5 8 17 25 28 37 16 18 18 25 7 38 -16 19 -5 49 15 41
17 -6 30 16 22 36 -4 8 -6 7 -6 -4z"/>
<path fill="#000000" stroke="none" d="M175 202 c-9 -9 -5 -32 6 -32 5 0 7 6
3 13 -4 6 -4 9 1 5 4 -4 14 -3 21 3 10 8 12 6 10 -8 -2 -11 4 -30 14 -43 l18
-23 15 30 c15 29 15 31 -6 41 -12 6 -17 11 -11 11 5 1 18 -5 28 -12 16 -12 15
-15 -10 -52 -15 -22 -22 -41 -16 -43 6 -2 9 -9 6 -17 -4 -9 1 -13 13 -11 14 2
18 12 18 42 1 21 4 49 8 61 6 17 3 23 -15 29 -28 9 -95 13 -103 6z"/>
<path fill="#000000" stroke="none" d="M134 178 c1 -7 8 -24 15 -37 10 -19 18
-22 42 -17 34 7 35 3 9 -34 -20 -28 -13 -49 12 -34 7 5 8 3 3 -6 -6 -9 -4 -11
5 -5 9 6 11 4 5 -5 -5 -9 -4 -11 3 -6 7 4 12 5 12 2 0 -3 -9 -10 -20 -16 -16
-9 -18 -8 -14 5 9 22 -13 19 -44 -6 l-27 -22 48 6 c65 7 77 20 47 52 -22 23
-22 26 -7 43 16 17 16 20 -4 40 -11 12 -17 28 -13 35 5 9 4 9 -7 0 -7 -7 -24
-13 -38 -12 -15 0 -20 3 -13 6 6 2 10 9 6 14 -8 13 -23 11 -20 -3z"/>
<path fill="#000000" stroke="none" d="M173 109 c-18 -5 -35 -14 -38 -20 -8
-12 14 -41 26 -34 8 6 53 66 47 64 -2 0 -17 -5 -35 -10z"/>
<path fill="#000000" stroke="none" d="M280 20 l-35 -19 38 -1 c30 0 37 3 37
20 0 11 -1 20 -2 20 -2 -1 -19 -9 -38 -20z"/>
</g>
</svg>
