<?xml version="1.0" standalone="no"?>
<!DOCTYPE svg PUBLIC "-//W3C//DTD SVG 20010904//EN"
 "http://www.w3.org/TR/2001/REC-SVG-20010904/DTD/svg10.dtd">
<svg version="1.0" xmlns="http://www.w3.org/2000/svg"
 width="32.000000pt" height="32.000000pt" viewBox="0 0 32.000000 32.000000"
 preserveAspectRatio="xMidYMid meet">
<metadata>
Created by potrace 1.16, written by Peter Selinger 2001-2019
</metadata>
<g transform="translate(0.000000,32.000000) scale(0.100000,-0.100000)"
fill="#000000" stroke="none">
<path fill="#000000" stroke="none" d="M133 274 c-4 -10 1 -22 10 -29 23 -17
21 -28 -2 -20 -14 4 -25 -1 -37 -21 l-18 -26 -17 21 c-20 24 -29 27 -29 8 0
-7 10 -18 22 -26 19 -12 24 -11 37 5 9 11 23 18 31 18 48 -5 54 -6 43 -11 -7
-2 -13 -11 -13 -19 0 -7 -9 -19 -20 -26 -11 -7 -20 -18 -20 -25 0 -6 -6 -13
-12 -15 -10 -4 -10 -10 -1 -31 9 -20 9 -27 0 -30 -7 -2 -8 -8 -4 -13 13 -14
26 18 20 48 -3 17 -1 28 6 28 6 0 10 3 9 8 -3 7 5 12 21 12 10 0 12 -9 13 -72
1 -21 5 -38 9 -38 13 0 18 42 7 66 -8 18 -8 31 1 50 6 15 14 24 17 21 3 -3 1
-16 -6 -29 -10 -21 -10 -21 3 -5 15 18 32 24 22 7 -4 -6 -1 -17 5 -25 6 -8 9
-23 5 -35 -3 -11 -3 -20 2 -20 11 0 15 48 6 64 -11 17 -12 36 -2 36 16 0 10
31 -12 61 -13 19 -28 28 -42 26 -18 -2 -22 2 -19 26 3 31 -24 39 -35 11z"/>
<path fill="#ffffff" stroke="none" d="M224 206 c18 -29 12 -63 -9 -46 -9 8
-15 8 -20 0 -3 -6 -11 -7 -17 -4 -7 5 -9 1 -5 -9 4 -11 2 -14 -8 -11 -11 5
-12 10 -2 25 6 10 15 19 19 19 5 0 8 11 8 25 0 32 13 32 34 1z"/>
</g>
</svg>
