<?xml version="1.0" standalone="no"?>
<!DOCTYPE svg PUBLIC "-//W3C//DTD SVG 20010904//EN"
 "http://www.w3.org/TR/2001/REC-SVG-20010904/DTD/svg10.dtd">
<svg version="1.0" xmlns="http://www.w3.org/2000/svg"
 width="32.000000pt" height="32.000000pt" viewBox="0 0 32.000000 32.000000"
 preserveAspectRatio="xMidYMid meet">
<metadata>
Created by potrace 1.16, written by Peter Selinger 2001-2019
</metadata>
<g transform="translate(0.000000,32.000000) scale(0.100000,-0.100000)"
fill="#000000" stroke="none">
<path fill="#000000" stroke="none" d="M0 160 l0 -160 160 0 160 0 0 160 0
160 -160 0 -160 0 0 -160z"/>
<path fill="#ffffff" stroke="none" d="M158 241 c-15 -5 -18 3 -11 29 l7 25 6
-25 c3 -14 2 -27 -2 -29z"/>
<path fill="#ffffff" stroke="none" d="M129 251 c33 -46 27 -76 -21 -111 -46
-33 -72 -40 -42 -11 10 10 21 17 23 15 9 -8 51 40 51 59 0 16 -2 17 -15 7 -9
-7 -18 -10 -22 -6 -3 3 -1 6 6 6 7 0 9 5 5 12 -5 7 -3 8 6 3 8 -5 11 -3 8 6
-6 18 -38 25 -38 8 0 -15 -29 -49 -42 -49 -9 0 -11 31 -2 54 3 9 10 14 14 11
4 -3 13 2 20 10 18 21 26 19 49 -14z"/>
<path fill="#ffffff" stroke="none" d="M206 220 c5 -12 8 -12 20 4 8 11 14 15
14 9 0 -5 -8 -18 -19 -27 -17 -16 -19 -16 -24 6 -4 12 -9 20 -12 17 -3 -3 1
-21 8 -39 12 -27 15 -29 19 -13 3 11 12 20 20 20 12 0 14 -7 8 -34 -5 -18 -15
-45 -24 -58 -9 -14 -14 -26 -11 -26 3 -1 10 -2 15 -3 12 -1 30 -26 29 -41 0
-5 -6 1 -13 14 l-13 24 -7 -29 -8 -29 -12 24 c-13 23 -14 23 -24 5 -6 -10 -12
-14 -12 -8 0 6 11 24 25 40 29 34 32 45 8 38 -10 -3 -6 2 10 11 17 10 27 24
27 38 -1 21 -1 21 -15 -3 -8 -14 -14 -19 -15 -12 0 7 -4 11 -9 8 -5 -4 -7 2
-5 11 3 10 -2 27 -9 38 -13 17 -13 22 2 41 13 19 16 20 19 6 2 -10 5 -24 8
-32z"/>
<path fill="#000000" stroke="none" d="M201 54 c0 -11 3 -14 6 -6 3 7 2 16 -1
19 -3 4 -6 -2 -5 -13z"/>
</g>
</svg>
