<?xml version="1.0" standalone="no"?>
<!DOCTYPE svg PUBLIC "-//W3C//DTD SVG 20010904//EN"
 "http://www.w3.org/TR/2001/REC-SVG-20010904/DTD/svg10.dtd">
<svg version="1.0" xmlns="http://www.w3.org/2000/svg"
 width="32.000000pt" height="32.000000pt" viewBox="0 0 32.000000 32.000000"
 preserveAspectRatio="xMidYMid meet">
<metadata>
Created by potrace 1.16, written by Peter Selinger 2001-2019
</metadata>
<g transform="translate(0.000000,32.000000) scale(0.100000,-0.100000)"
fill="#000000" stroke="none">
<path fill="#000000" stroke="none" d="M231 284 c-11 -15 -21 -30 -21 -35 0
-4 -10 -11 -21 -14 -17 -6 -19 -9 -8 -16 10 -6 10 -9 2 -9 -7 0 -12 -10 -10
-21 1 -12 -4 -23 -11 -25 -7 -1 -8 0 -2 3 17 8 11 23 -7 16 -17 -7 -17 -6 -1
11 34 33 -14 82 -55 56 -18 -11 -23 -9 -47 20 -17 21 -32 30 -39 25 -9 -5 -9
-11 -3 -17 7 -7 7 -18 0 -34 -12 -26 4 -80 21 -70 5 3 14 -1 21 -9 7 -8 16
-13 20 -10 5 3 12 1 15 -5 5 -8 11 -8 20 0 8 7 15 7 19 1 4 -5 17 -8 31 -5 19
3 23 1 19 -11 -5 -11 -10 -13 -19 -5 -9 7 -15 7 -19 1 -4 -5 -2 -12 4 -16 5
-3 10 -3 10 2 0 4 5 0 11 -10 6 -10 15 -14 22 -10 7 4 15 8 20 9 4 1 10 2 14
3 3 0 -4 12 -16 25 -15 16 -19 26 -11 31 6 4 8 15 5 26 -4 12 -2 19 7 19 11 0
11 2 0 9 -11 7 -11 9 0 14 17 6 21 -28 7 -55 -15 -27 1 -46 18 -22 8 10 19 19
24 19 6 0 17 18 24 40 11 30 11 41 2 47 -20 13 -30 9 -18 -6 9 -10 9 -24 2
-48 l-10 -33 2 39 c1 24 -3 41 -10 43 -9 3 -11 -4 -7 -25 3 -17 2 -37 -3 -46
-6 -10 -8 0 -7 32 1 26 3 50 3 54 1 9 51 2 62 -9 6 -6 6 -20 -1 -38 -15 -39 4
-58 21 -22 10 22 9 31 -7 54 -10 15 -19 32 -19 38 0 21 -34 15 -54 -11z"/>
<path fill="#ffffff" stroke="none" d="M280 296 c0 -2 -9 -6 -20 -9 -11 -3
-18 -1 -14 4 5 9 34 13 34 5z"/>
<path fill="#ffffff" stroke="none" d="M42 265 c6 -14 14 -25 18 -25 4 0 10
-13 13 -29 5 -24 11 -29 31 -27 14 2 23 0 21 -5 -3 -4 1 -10 7 -13 7 -3 3 -3
-9 0 -15 3 -23 1 -23 -8 0 -7 -10 1 -21 17 -19 27 -20 28 -16 6 4 -17 3 -21
-5 -13 -9 9 -12 23 -18 87 0 6 -5 2 -11 -8 -6 -10 -8 -30 -5 -45 5 -26 5 -26
-6 -4 -8 17 -8 29 1 49 10 21 9 28 -1 34 -10 7 -10 9 0 9 7 0 18 -11 24 -25z"/>
<path fill="#ffffff" stroke="none" d="M146 239 c9 -15 -10 -32 -41 -35 -28
-3 -29 -1 -15 27 12 21 45 26 56 8z"/>
<path fill="#ffffff" stroke="none" d="M300 203 c-11 -17 -11 -17 -6 0 3 10 6
24 7 30 0 9 2 9 5 0 3 -7 0 -20 -6 -30z"/>
<path fill="#ffffff" stroke="none" d="M201 123 c13 -16 12 -17 -3 -4 -10 7
-18 15 -18 17 0 8 8 3 21 -13z"/>
<path fill="#000000" stroke="none" d="M51 214 c0 -11 3 -14 6 -6 3 7 2 16 -1
19 -3 4 -6 -2 -5 -13z"/>
<path fill="#000000" stroke="none" d="M116 231 c-4 -5 -2 -12 3 -15 5 -4 12
-2 15 3 4 5 2 12 -3 15 -5 4 -12 2 -15 -3z"/>
<path fill="#000000" stroke="none" d="M90 40 c0 -5 -8 -10 -17 -11 -10 -1 -2
-5 17 -11 69 -19 87 -20 123 -4 21 8 44 13 51 10 8 -3 17 -1 20 5 10 16 -31
23 -73 11 -29 -7 -47 -8 -60 0 -25 13 -61 13 -61 0z"/>
</g>
</svg>
