<?xml version="1.0" standalone="no"?>
<!DOCTYPE svg PUBLIC "-//W3C//DTD SVG 20010904//EN"
 "http://www.w3.org/TR/2001/REC-SVG-20010904/DTD/svg10.dtd">
<svg version="1.0" xmlns="http://www.w3.org/2000/svg"
 width="32.000000pt" height="32.000000pt" viewBox="0 0 32.000000 32.000000"
 preserveAspectRatio="xMidYMid meet">
<metadata>
Created by potrace 1.16, written by Peter Selinger 2001-2019
</metadata>
<g transform="translate(0.000000,32.000000) scale(0.100000,-0.100000)"
fill="#000000" stroke="none">
<path fill="#000000" stroke="none" d="M0 160 l0 -160 160 0 160 0 0 160 0
160 -160 0 -160 0 0 -160z"/>
<path fill="#ffffff" stroke="none" d="M170 267 c1 -20 2 -20 11 -4 13 21 29
13 29 -15 0 -16 3 -18 14 -9 15 13 32 -1 21 -18 -3 -5 -1 -12 4 -15 10 -6 0
-62 -17 -91 -7 -14 -5 -25 10 -46 21 -27 16 -61 -5 -40 -7 7 -14 5 -23 -7 -12
-16 -13 -16 -19 1 -6 13 -11 15 -20 7 -22 -18 -28 6 -10 40 14 28 14 30 -1 30
-10 0 -25 7 -35 16 -16 14 -20 14 -44 -2 -35 -23 -52 -8 -37 34 8 24 7 32 -4
36 -8 3 -14 15 -14 26 0 54 57 95 90 65 16 -14 18 -14 23 6 7 26 27 16 27 -14z"/>
<path fill="#000000" stroke="none" d="M147 270 c-7 -26 -4 -34 11 -29 4 2 5
15 2 29 l-6 25 -7 -25z"/>
<path fill="#000000" stroke="none" d="M80 273 c-21 -8 -40 -34 -40 -56 0 -26
40 -58 65 -50 17 5 18 4 6 -10 -7 -9 -17 -14 -22 -11 -5 3 -9 0 -9 -5 0 -6 -7
-11 -15 -11 -8 0 -15 -4 -15 -10 0 -17 15 -11 58 20 48 35 54 65 21 111 -21
30 -24 31 -49 22z"/>
<path fill="#ffffff" stroke="none" d="M124 235 c3 -9 -1 -18 -10 -22 -19 -7
-26 0 -18 21 8 20 20 21 28 1z"/>
<path fill="#ffffff" stroke="none" d="M101 188 c3 -1 14 4 24 12 16 13 17 12
14 -5 -6 -27 -62 -27 -68 0 -3 15 0 17 10 8 8 -6 17 -13 20 -15z"/>
<path fill="#000000" stroke="none" d="M179 246 c-15 -19 -15 -23 -1 -45 13
-19 14 -26 2 -44 -12 -20 -12 -21 4 -8 16 13 17 13 14 -5 -1 -10 -10 -22 -18
-27 -10 -5 -7 -6 8 -3 28 5 28 -2 -3 -38 -14 -16 -25 -34 -25 -40 0 -6 6 -2
12 8 10 18 11 18 24 -5 l12 -24 8 29 7 29 13 -24 c7 -13 13 -19 13 -14 1 15
-17 40 -29 41 -5 1 -12 2 -15 3 -3 0 2 12 11 26 20 31 35 93 23 100 -4 3 -5
13 -2 23 4 13 2 13 -10 -3 -16 -21 -21 -17 -29 27 -3 14 -5 13 -19 -6z"/>
<path fill="#ffffff" stroke="none" d="M200 203 c0 -12 3 -13 14 -4 10 8 16 9
21 1 4 -6 1 -9 -6 -8 -7 2 -14 -6 -16 -17 -3 -17 -2 -18 7 -5 9 12 10 11 8 -9
-2 -14 -9 -26 -17 -29 -8 -3 -11 0 -7 6 4 6 0 28 -9 48 -18 43 -18 47 -5 39 6
-3 10 -13 10 -22z"/>
<path fill="#ffffff" stroke="none" d="M207 48 c-3 -8 -6 -5 -6 6 -1 11 2 17
5 13 3 -3 4 -12 1 -19z"/>
</g>
</svg>
