<?xml version="1.0" standalone="no"?>
<!DOCTYPE svg PUBLIC "-//W3C//DTD SVG 20010904//EN"
 "http://www.w3.org/TR/2001/REC-SVG-20010904/DTD/svg10.dtd">
<svg version="1.0" xmlns="http://www.w3.org/2000/svg"
 width="32.000000pt" height="48.000000pt" viewBox="0 0 32.000000 48.000000"
 preserveAspectRatio="xMidYMid meet">
<metadata>
Created by potrace 1.16, written by Peter Selinger 2001-2019
</metadata>
<g transform="translate(0.000000,48.000000) scale(0.100000,-0.100000)"
fill="#000000" stroke="none">
<path fill="#000000" stroke="none" d="M135 463 c-43 -7 -65 -30 -65 -70 0
-25 -4 -33 -18 -33 -26 0 -52 -32 -52 -63 0 -20 5 -27 19 -27 29 0 82 25 74
35 -5 4 -3 6 2 2 19 -10 16 -66 -5 -107 -11 -21 -20 -50 -20 -64 0 -15 -8 -30
-21 -36 -11 -7 -19 -19 -17 -30 2 -10 -6 -28 -17 -41 -11 -13 -13 -18 -5 -11
18 15 34 16 24 0 -4 -7 -3 -8 5 -4 6 4 9 12 6 17 -4 5 2 9 12 9 17 1 17 1 1
11 -24 13 -23 31 2 47 21 13 27 3 9 -15 -17 -17 30 -83 59 -83 12 0 21 3 20 7
-1 5 3 18 10 29 6 12 8 25 4 29 -4 5 -1 5 6 1 16 -10 15 4 -3 28 -25 32 -17
41 10 12 30 -32 31 -42 8 -55 -17 -10 -17 -10 0 -11 10 0 16 -4 12 -9 -3 -5 0
-13 6 -17 8 -4 9 -3 5 4 -10 16 5 14 28 -3 26 -20 72 -19 80 1 15 40 5 68 -45
121 -48 51 -51 57 -45 91 14 77 19 225 8 218 -5 -3 -12 -2 -14 3 -4 13 -46 19
-83 14z"/>
<path fill="#ffffff" stroke="none" d="M189 444 c7 5 10 2 9 -6 -2 -7 3 -12 9
-11 17 4 11 -146 -7 -157 -7 -4 -10 -12 -6 -18 4 -6 -3 -9 -17 -8 -20 2 -24
-2 -22 -22 0 -14 7 -27 15 -30 13 -3 13 -2 0 7 -12 8 -11 10 7 8 17 -1 20 -4
11 -15 -7 -7 -20 -11 -30 -9 -10 3 -16 1 -12 -4 3 -5 -1 -9 -8 -9 -8 0 -5 -5
5 -11 15 -9 24 -6 43 12 13 12 24 18 24 13 0 -6 23 -33 51 -62 40 -41 50 -57
47 -79 -2 -21 -9 -29 -27 -31 -13 -2 -28 1 -33 6 -6 6 0 8 18 4 20 -4 25 -2
19 8 -5 9 -4 11 3 6 7 -4 12 -1 12 9 0 9 -4 14 -9 11 -5 -4 -7 4 -4 16 5 23 5
23 -10 3 -14 -19 -15 -18 -11 10 4 27 4 28 -6 7 -10 -23 -36 -39 -47 -28 -4 3
-1 12 5 18 7 7 12 23 12 37 0 22 -1 23 -17 8 -16 -14 -20 -14 -42 4 -25 20
-46 26 -36 9 3 -5 0 -10 -7 -10 -9 0 -9 -3 2 -10 13 -9 13 -10 0 -10 -13 0
-13 -1 0 -10 12 -8 9 -10 -13 -10 -16 0 -26 -4 -23 -9 3 -5 -1 -11 -9 -15 -20
-7 -19 3 2 26 9 10 11 18 6 18 -16 0 -7 64 16 109 26 51 26 53 -4 89 -17 21
-21 32 -13 34 7 3 20 -5 30 -16 l17 -21 1 23 c0 12 -6 23 -12 24 -7 0 -17 2
-23 3 -5 2 -14 3 -20 4 -5 1 8 8 30 16 53 19 64 6 40 -42 -28 -55 -29 -61 -6
-34 12 13 21 30 21 38 0 8 4 12 8 9 5 -3 8 9 8 27 -1 21 3 31 12 29 8 -1 11 2
7 7 -3 6 -13 7 -22 4 -11 -4 -14 -3 -9 6 9 14 -30 11 -54 -4 -23 -14 -40 -15
-40 -1 0 30 53 50 63 24 3 -9 7 -7 12 5 6 13 10 15 15 7 4 -7 13 -9 19 -6z"/>
<path fill="#ffffff" stroke="none" d="M136 395 c-11 -8 -29 -14 -40 -14 -20
1 -21 1 -1 6 11 3 24 9 30 14 5 5 14 9 20 9 5 0 1 -7 -9 -15z"/>
<path fill="#ffffff" stroke="none" d="M70 341 c0 -11 -28 -35 -46 -37 -17 -3
-18 18 -2 34 14 14 48 16 48 3z"/>
<path fill="#ffffff" stroke="none" d="M66 295 c-11 -8 -29 -14 -40 -14 -20 1
-21 1 -1 6 11 3 24 9 30 14 5 5 14 9 20 9 5 0 1 -7 -9 -15z"/>
<path fill="#000000" stroke="none" d="M140 370 c-9 -6 -10 -10 -3 -10 6 0 15
5 18 10 8 12 4 12 -15 0z"/>
<path fill="#000000" stroke="none" d="M241 115 c0 -12 -6 -26 -13 -33 -9 -9
-9 -12 0 -12 16 0 25 23 19 47 -4 16 -5 15 -6 -2z"/>
<path fill="#000000" stroke="none" d="M65 20 c-3 -5 -1 -10 4 -10 6 0 11 5
11 10 0 6 -2 10 -4 10 -3 0 -8 -4 -11 -10z"/>
<path fill="#000000" stroke="none" d="M160 20 c0 -5 5 -10 11 -10 5 0 7 5 4
10 -3 6 -8 10 -11 10 -2 0 -4 -4 -4 -10z"/>
</g>
</svg>
