<?xml version="1.0" standalone="no"?>
<!DOCTYPE svg PUBLIC "-//W3C//DTD SVG 20010904//EN"
 "http://www.w3.org/TR/2001/REC-SVG-20010904/DTD/svg10.dtd">
<svg version="1.0" xmlns="http://www.w3.org/2000/svg"
 width="32.000000pt" height="32.000000pt" viewBox="0 0 32.000000 32.000000"
 preserveAspectRatio="xMidYMid meet">
<metadata>
Created by potrace 1.16, written by Peter Selinger 2001-2019
</metadata>
<g transform="translate(0.000000,32.000000) scale(0.100000,-0.100000)"
fill="#000000" stroke="none">
<path fill="#000000" stroke="none" d="M0 160 l0 -160 160 0 160 0 0 160 0
160 -160 0 -160 0 0 -160z"/>
<path fill="#ffffff" stroke="none" d="M112 263 c24 -22 23 -32 -7 -43 -26
-10 -85 5 -85 21 0 9 48 38 64 39 5 0 18 -7 28 -17z"/>
<path fill="#ffffff" stroke="none" d="M160 219 c0 -6 -4 -7 -10 -4 -5 3 -10
11 -10 16 0 6 5 7 10 4 6 -3 10 -11 10 -16z"/>
<path fill="#ffffff" stroke="none" d="M175 203 c-5 -14 -3 -15 6 -6 15 15 39
6 39 -16 0 -10 -3 -12 -8 -5 -17 27 -77 -8 -77 -45 0 -13 -9 -29 -20 -35 -11
-6 -22 -13 -25 -16 -8 -9 -60 -8 -54 1 2 5 20 11 39 15 46 8 63 29 46 56 -7
11 -9 18 -4 15 4 -2 19 8 33 24 30 33 34 35 25 12z"/>
<path fill="#ffffff" stroke="none" d="M55 192 c-3 -3 -11 0 -18 7 -9 10 -8
11 6 5 10 -3 15 -9 12 -12z"/>
<path fill="#ffffff" stroke="none" d="M269 134 l25 -22 -47 3 c-32 3 -52 -1
-62 -11 -8 -9 -15 -12 -15 -7 0 16 24 33 47 33 20 0 23 4 18 28 -3 15 -2 21 1
13 4 -8 18 -24 33 -37z"/>
<path fill="#ffffff" stroke="none" d="M264 94 c12 -5 8 -13 -21 -40 -20 -19
-41 -34 -47 -34 -6 0 -5 4 3 9 11 7 10 10 -5 13 -14 4 -10 7 15 14 46 13 51
32 9 37 l-33 4 32 1 c17 1 38 -1 47 -4z"/>
<path fill="#000000" stroke="none" d="M57 254 c-11 -12 3 -24 29 -24 16 0 24
5 22 13 -5 13 -40 22 -51 11z"/>
</g>
</svg>
