<?xml version="1.0" standalone="no"?>
<!DOCTYPE svg PUBLIC "-//W3C//DTD SVG 20010904//EN"
 "http://www.w3.org/TR/2001/REC-SVG-20010904/DTD/svg10.dtd">
<svg version="1.0" xmlns="http://www.w3.org/2000/svg"
 width="32.000000pt" height="32.000000pt" viewBox="0 0 32.000000 32.000000"
 preserveAspectRatio="xMidYMid meet">
<metadata>
Created by potrace 1.16, written by Peter Selinger 2001-2019
</metadata>
<g transform="translate(0.000000,32.000000) scale(0.100000,-0.100000)"
fill="#000000" stroke="none">
<path fill="#000000" stroke="none" d="M116 219 c-15 -12 -25 -27 -22 -35 3
-7 0 -15 -7 -17 -7 -2 5 -11 26 -20 20 -9 40 -23 43 -31 6 -17 35 -10 33 8 -3
24 1 37 10 31 9 -5 27 18 30 38 1 4 4 6 9 5 4 -2 6 -6 4 -10 -1 -5 4 -8 10 -8
7 0 -2 -9 -19 -20 -18 -11 -33 -25 -32 -32 0 -10 2 -10 5 -1 3 7 11 10 19 7 7
-3 20 5 29 18 9 13 22 23 28 23 6 0 13 7 15 15 3 11 2 12 -4 2 -7 -9 -15 -6
-33 13 -18 19 -26 22 -37 13 -11 -9 -13 -8 -11 2 2 9 -6 15 -19 16 -12 1 -20
-2 -18 -7 3 -4 1 -10 -5 -14 -6 -4 -7 -12 -3 -18 10 -16 13 -41 5 -32 -4 4 -7
12 -7 18 -1 7 -7 11 -15 9 -11 -3 -11 0 0 13 23 28 -3 38 -34 14z"/>
<path fill="#000000" stroke="none" d="M22 168 c-17 -17 -15 -28 5 -28 9 0 13
3 10 7 -4 3 -2 12 4 20 14 16 -3 17 -19 1z"/>
<path fill="#000000" stroke="none" d="M45 150 c3 -5 -3 -14 -12 -20 -16 -10
-16 -11 2 -5 25 9 35 9 60 0 15 -6 14 -3 -5 11 -26 20 -54 28 -45 14z"/>
<path fill="#000000" stroke="none" d="M264 122 c0 -10 6 -19 13 -19 8 0 9 6
2 19 -5 10 -11 18 -12 18 -2 0 -3 -8 -3 -18z"/>
<path fill="#000000" stroke="none" d="M51 97 c-8 -10 -7 -14 4 -14 8 0 12 4
9 8 -2 4 2 10 8 12 8 4 9 6 2 6 -6 1 -17 -5 -23 -12z"/>
<path fill="#000000" stroke="none" d="M129 84 c-5 -15 -11 -30 -14 -33 -2 -4
4 -7 14 -8 14 -1 17 6 17 33 -1 41 -3 42 -17 8z"/>
</g>
</svg>
