<?xml version="1.0" standalone="no"?>
<!DOCTYPE svg PUBLIC "-//W3C//DTD SVG 20010904//EN"
 "http://www.w3.org/TR/2001/REC-SVG-20010904/DTD/svg10.dtd">
<svg version="1.0" xmlns="http://www.w3.org/2000/svg"
 width="32.000000pt" height="32.000000pt" viewBox="0 0 32.000000 32.000000"
 preserveAspectRatio="xMidYMid meet">
<metadata>
Created by potrace 1.16, written by Peter Selinger 2001-2019
</metadata>
<g transform="translate(0.000000,32.000000) scale(0.100000,-0.100000)"
fill="#000000" stroke="none">
<path fill="#000000" stroke="none" d="M0 160 l0 -160 160 0 160 0 0 160 0
160 -160 0 -160 0 0 -160z"/>
<path fill="#ffffff" stroke="none" d="M158 303 c-20 -3 -28 -10 -28 -24 0
-10 -7 -19 -15 -19 -9 0 -15 9 -15 25 0 23 3 25 43 24 29 -2 34 -3 15 -6z"/>
<path fill="#ffffff" stroke="none" d="M134 235 c-8 -19 -34 -19 -34 0 0 8 9
15 20 15 13 0 18 -5 14 -15z"/>
<path fill="#ffffff" stroke="none" d="M280 175 c-5 -14 -7 -31 -4 -39 3 -7
-2 -16 -10 -19 -20 -8 -20 1 -1 46 14 35 14 35 -16 47 -16 7 -32 17 -35 22 -3
5 12 0 35 -11 37 -19 40 -23 31 -46z"/>
<path fill="#ffffff" stroke="none" d="M196 198 c-1 -17 -7 -33 -14 -34 -7 -1
-8 0 -2 3 17 8 11 23 -7 17 -15 -5 -16 -4 -3 5 13 9 12 11 -5 11 -18 0 -17 2
5 14 14 8 25 14 26 15 0 1 0 -13 0 -31z"/>
<path fill="#ffffff" stroke="none" d="M135 200 c-3 -5 -1 -10 5 -10 6 0 8 -4
5 -10 -3 -5 -1 -10 6 -10 7 0 9 -3 5 -7 -4 -5 -14 0 -21 10 -12 17 -14 16 -20
-12 -8 -35 -5 -35 -56 -19 -36 10 -55 38 -27 38 6 0 8 -3 5 -7 -4 -4 7 -13 25
-20 35 -15 52 -4 44 30 -2 9 0 15 5 11 5 -3 9 0 9 5 0 6 5 11 11 11 5 0 7 -4
4 -10z"/>
<path fill="#ffffff" stroke="none" d="M223 97 c-15 -16 -15 -19 6 -41 24 -26
21 -46 -7 -46 -13 0 -13 2 4 15 10 8 15 14 9 13 -5 -1 -20 3 -33 10 l-23 13
22 30 c12 17 19 32 17 34 -8 8 -76 -15 -88 -30 -10 -13 -9 -19 5 -35 15 -16
15 -22 5 -35 -7 -8 -17 -15 -22 -15 -6 0 -6 6 1 14 9 11 8 17 -8 28 -19 14
-19 15 13 55 22 28 36 39 43 32 13 -13 45 0 37 15 -3 6 3 0 14 -14 19 -23 19
-26 5 -43z"/>
<path fill="#000000" stroke="none" d="M110 66 c0 -2 8 -10 18 -17 15 -13 16
-12 3 4 -13 16 -21 21 -21 13z"/>
<path fill="#000000" stroke="none" d="M200 66 c0 -2 8 -10 18 -17 15 -13 16
-12 3 4 -13 16 -21 21 -21 13z"/>
</g>
</svg>
