<?xml version="1.0" standalone="no"?>
<!DOCTYPE svg PUBLIC "-//W3C//DTD SVG 20010904//EN"
 "http://www.w3.org/TR/2001/REC-SVG-20010904/DTD/svg10.dtd">
<svg version="1.0" xmlns="http://www.w3.org/2000/svg"
 width="32.000000pt" height="32.000000pt" viewBox="0 0 32.000000 32.000000"
 preserveAspectRatio="xMidYMid meet">
<metadata>
Created by potrace 1.16, written by Peter Selinger 2001-2019
</metadata>
<g transform="translate(0.000000,32.000000) scale(0.100000,-0.100000)"
fill="#000000" stroke="none">
<path fill="#000000" stroke="none" d="M35 233 c-14 -15 -25 -33 -25 -40 0
-13 25 -12 37 2 4 4 3 5 -4 1 -6 -3 -14 -2 -17 2 -6 10 30 46 54 55 12 4 12 6
-2 6 -9 1 -29 -11 -43 -26z"/>
<path fill="#000000" stroke="none" d="M152 215 c2 -19 10 -31 21 -33 16 -3
18 0 12 20 -7 21 -7 22 10 8 17 -14 17 -14 4 8 -8 12 -16 17 -17 12 -3 -7 -9
-7 -19 2 -13 10 -14 8 -11 -17z"/>
<path fill="#000000" stroke="none" d="M85 184 c-9 -15 -12 -23 -6 -20 11 7
35 46 28 46 -3 0 -12 -12 -22 -26z"/>
<path fill="#000000" stroke="none" d="M204 127 c3 -9 1 -29 -4 -43 -7 -18 -7
-30 0 -39 5 -6 8 -14 5 -17 -3 -2 1 -5 8 -5 18 0 16 74 -2 102 -10 15 -11 16
-7 2z"/>
<path fill="#ffffff" stroke="none" d="M210 63 c-11 -17 -11 -17 -6 0 3 10 6
24 7 30 0 9 2 9 5 0 3 -7 0 -20 -6 -30z"/>
<path fill="#000000" stroke="none" d="M66 115 c-9 -26 -7 -32 5 -12 6 10 9
21 6 23 -2 3 -7 -2 -11 -11z"/>
<path fill="#000000" stroke="none" d="M40 40 c-9 -6 -10 -10 -3 -10 6 0 15 5
18 10 8 12 4 12 -15 0z"/>
</g>
</svg>
