<?xml version="1.0" standalone="no"?>
<!DOCTYPE svg PUBLIC "-//W3C//DTD SVG 20010904//EN"
 "http://www.w3.org/TR/2001/REC-SVG-20010904/DTD/svg10.dtd">
<svg version="1.0" xmlns="http://www.w3.org/2000/svg"
 width="32.000000pt" height="32.000000pt" viewBox="0 0 32.000000 32.000000"
 preserveAspectRatio="xMidYMid meet">
<metadata>
Created by potrace 1.16, written by Peter Selinger 2001-2019
</metadata>
<g transform="translate(0.000000,32.000000) scale(0.100000,-0.100000)"
fill="#000000" stroke="none">
<path fill="#000000" stroke="none" d="M51 291 c-25 -19 -53 -69 -45 -82 3 -5
16 -9 30 -9 24 0 24 -1 9 -30 -8 -16 -15 -42 -15 -58 0 -15 -6 -34 -12 -40 -7
-7 -13 -26 -14 -42 -2 -30 -1 -30 55 -30 31 0 62 5 68 11 8 8 20 8 45 0 48
-16 143 -10 143 9 0 8 -15 22 -32 30 -18 8 -33 20 -33 26 0 6 -9 19 -20 29
-17 16 -25 17 -57 7 -46 -14 -53 -9 -25 21 33 35 36 68 10 107 -13 18 -27 33
-33 31 -5 -1 -12 5 -15 15 -9 23 -32 25 -59 5z"/>
<path fill="#ffffff" stroke="none" d="M95 279 c-5 -14 -1 -17 14 -14 14 2 21
-1 21 -11 0 -8 4 -13 9 -10 11 7 23 -22 14 -36 -4 -7 -1 -8 7 -3 21 13 2 -46
-23 -73 -29 -31 -12 -45 35 -30 40 12 68 0 68 -28 0 -8 16 -20 35 -28 19 -8
35 -20 35 -26 0 -7 -6 -8 -19 0 -13 7 -22 7 -26 0 -10 -16 -43 -12 -53 6 -12
22 -98 24 -95 3 2 -8 -6 -15 -16 -16 -12 -1 -18 3 -16 10 3 7 -2 21 -10 31
-11 15 -17 17 -29 7 -8 -6 -12 -20 -9 -30 3 -11 -1 -18 -9 -18 -17 0 -17 42
-1 59 7 6 13 24 13 40 0 15 8 43 17 63 16 34 17 34 37 17 20 -16 20 -16 7 1
-17 21 -58 46 -47 28 5 -7 -2 -11 -18 -11 -28 0 -35 17 -11 26 8 4 12 11 9 16
-8 12 31 45 52 45 9 0 12 -7 9 -18z"/>
<path fill="#ffffff" stroke="none" d="M64 39 c-3 -5 -10 -7 -15 -3 -5 3 -7
10 -3 15 3 5 10 7 15 3 5 -3 7 -10 3 -15z"/>
<path fill="#000000" stroke="none" d="M76 143 c-6 -14 -5 -15 5 -6 7 7 10 15
7 18 -3 3 -9 -2 -12 -12z"/>
</g>
</svg>
