<?xml version="1.0" standalone="no"?>
<!DOCTYPE svg PUBLIC "-//W3C//DTD SVG 20010904//EN"
 "http://www.w3.org/TR/2001/REC-SVG-20010904/DTD/svg10.dtd">
<svg version="1.0" xmlns="http://www.w3.org/2000/svg"
 width="32.000000pt" height="32.000000pt" viewBox="0 0 32.000000 32.000000"
 preserveAspectRatio="xMidYMid meet">
<metadata>
Created by potrace 1.16, written by Peter Selinger 2001-2019
</metadata>
<g transform="translate(0.000000,32.000000) scale(0.100000,-0.100000)"
fill="#000000" stroke="none">
<path fill="#000000" stroke="none" d="M44 274 c-18 -14 -18 -15 4 -4 12 6 22
13 22 15 0 8 -5 6 -26 -11z"/>
<path fill="#000000" stroke="none" d="M74 244 c-18 -14 -18 -15 4 -4 12 6 22
13 22 15 0 8 -5 6 -26 -11z"/>
<path fill="#000000" stroke="none" d="M68 183 c7 -3 16 -2 19 1 4 3 -2 6 -13
5 -11 0 -14 -3 -6 -6z"/>
<path fill="#000000" stroke="none" d="M155 89 c-4 -6 -5 -12 -2 -15 2 -3 7 2
10 11 7 17 1 20 -8 4z"/>
<path fill="#000000" stroke="none" d="M75 80 c-3 -5 1 -20 10 -33 8 -13 13
-26 10 -29 -3 -2 2 -5 9 -5 12 0 12 5 -3 26 -10 14 -16 32 -14 39 5 14 -3 16
-12 2z"/>
<path fill="#000000" stroke="none" d="M225 29 c-3 -4 2 -6 10 -5 21 3 28 13
10 13 -9 0 -18 -4 -20 -8z"/>
</g>
</svg>
