<?xml version="1.0" standalone="no"?>
<!DOCTYPE svg PUBLIC "-//W3C//DTD SVG 20010904//EN"
 "http://www.w3.org/TR/2001/REC-SVG-20010904/DTD/svg10.dtd">
<svg version="1.0" xmlns="http://www.w3.org/2000/svg"
 width="32.000000pt" height="48.000000pt" viewBox="0 0 32.000000 48.000000"
 preserveAspectRatio="xMidYMid meet">
<metadata>
Created by potrace 1.16, written by Peter Selinger 2001-2019
</metadata>
<g transform="translate(0.000000,48.000000) scale(0.100000,-0.100000)"
fill="#000000" stroke="none">
<path fill="#000000" stroke="none" d="M135 463 c-43 -7 -65 -30 -65 -70 0
-25 -4 -33 -18 -33 -26 0 -52 -32 -52 -63 0 -25 3 -26 45 -25 25 0 45 5 45 10
0 5 5 6 10 3 16 -10 12 -42 -10 -85 -11 -22 -20 -50 -20 -64 0 -15 -8 -30 -21
-36 -11 -7 -19 -19 -17 -30 2 -10 -5 -27 -15 -37 -16 -19 -16 -20 0 -20 10 0
24 5 32 11 11 8 13 8 7 -2 -5 -8 0 -12 14 -12 14 0 19 4 15 13 -4 6 0 4 8 -5
14 -18 63 -26 52 -9 -3 5 0 13 6 17 8 4 9 3 5 -4 -5 -8 1 -12 14 -12 14 0 19
4 14 12 -6 11 -4 11 7 0 16 -15 33 -16 23 -1 -3 6 5 4 19 -6 14 -9 38 -15 54
-13 25 3 28 8 31 41 3 35 -2 44 -49 94 -48 51 -51 57 -45 91 14 77 19 225 8
218 -5 -3 -12 -2 -14 3 -4 13 -46 19 -83 14z"/>
<path fill="#ffffff" stroke="none" d="M120 446 c0 -2 -7 -7 -16 -10 -8 -3
-12 -2 -9 4 6 10 25 14 25 6z"/>
<path fill="#ffffff" stroke="none" d="M154 369 c21 18 21 -3 1 -39 -14 -24
-14 -24 -15 -4 0 23 -24 38 -43 28 -7 -3 -3 2 7 10 15 12 22 13 27 4 6 -9 11
-9 23 1z"/>
<path fill="#ffffff" stroke="none" d="M50 346 c0 -2 -7 -7 -16 -10 -8 -3 -12
-2 -9 4 6 10 25 14 25 6z"/>
<path fill="#ffffff" stroke="none" d="M240 64 c0 -2 -7 -4 -15 -4 -8 0 -15 4
-15 10 0 5 7 7 15 4 8 -4 15 -8 15 -10z"/>
</g>
</svg>
