<?xml version="1.0" standalone="no"?>
<!DOCTYPE svg PUBLIC "-//W3C//DTD SVG 20010904//EN"
 "http://www.w3.org/TR/2001/REC-SVG-20010904/DTD/svg10.dtd">
<svg version="1.0" xmlns="http://www.w3.org/2000/svg"
 width="32.000000pt" height="48.000000pt" viewBox="0 0 32.000000 48.000000"
 preserveAspectRatio="xMidYMid meet">
<metadata>
Created by potrace 1.16, written by Peter Selinger 2001-2019
</metadata>
<g transform="translate(0.000000,48.000000) scale(0.100000,-0.100000)"
fill="#000000" stroke="none">
<path fill="#000000" stroke="none" d="M0 403 c0 -73 1 -75 18 -60 10 10 26
17 35 17 13 0 17 9 17 33 0 20 8 41 19 51 23 21 122 27 129 8 2 -6 8 -10 13
-6 5 3 9 0 9 -5 0 -6 9 -11 19 -11 11 0 29 -12 40 -26 l21 -27 0 52 0 51 -160
0 -160 0 0 -77z"/>
<path fill="#000000" stroke="none" d="M104 364 c-10 -8 -14 -13 -7 -10 19 10
43 -5 43 -28 1 -20 1 -20 15 4 20 36 20 57 -1 39 -12 -10 -17 -10 -23 -1 -5 9
-12 8 -27 -4z"/>
<path fill="#000000" stroke="none" d="M230 325 c0 -8 4 -15 9 -15 5 0 14 7
21 15 10 13 9 15 -9 15 -12 0 -21 -6 -21 -15z"/>
<path fill="#000000" stroke="none" d="M90 281 c0 -7 -8 -11 -17 -10 -10 1
-30 1 -45 0 l-28 -1 0 -127 c0 -123 0 -126 19 -109 11 10 17 25 14 36 -3 12 3
22 16 29 15 8 21 21 21 45 0 31 -2 32 -30 28 -28 -4 -30 -2 -30 25 0 35 31 68
59 60 28 -7 49 9 33 25 -9 9 -12 9 -12 -1z"/>
<path fill="#000000" stroke="none" d="M268 246 c-26 -17 -48 -37 -48 -44 0
-8 22 -37 50 -65 l50 -52 0 98 c0 53 -1 97 -2 96 -2 -1 -24 -15 -50 -33z"/>
<path fill="#000000" stroke="none" d="M210 70 c0 -6 7 -10 15 -10 8 0 15 2
15 4 0 2 -7 6 -15 10 -8 3 -15 1 -15 -4z"/>
<path fill="#000000" stroke="none" d="M23 3 c15 -2 39 -2 55 0 15 2 2 4 -28
4 -30 0 -43 -2 -27 -4z"/>
<path fill="#000000" stroke="none" d="M173 3 c15 -2 39 -2 55 0 15 2 2 4 -28
4 -30 0 -43 -2 -27 -4z"/>
</g>
</svg>
