<?xml version="1.0" standalone="no"?>
<!DOCTYPE svg PUBLIC "-//W3C//DTD SVG 20010904//EN"
 "http://www.w3.org/TR/2001/REC-SVG-20010904/DTD/svg10.dtd">
<svg version="1.0" xmlns="http://www.w3.org/2000/svg"
 width="32.000000pt" height="32.000000pt" viewBox="0 0 32.000000 32.000000"
 preserveAspectRatio="xMidYMid meet">
<metadata>
Created by potrace 1.16, written by Peter Selinger 2001-2019
</metadata>
<g transform="translate(0.000000,32.000000) scale(0.100000,-0.100000)"
fill="#000000" stroke="none">
<path fill="#000000" stroke="none" d="M0 160 l0 -160 160 0 160 0 0 160 0
160 -160 0 -160 0 0 -160z"/>
<path fill="#ffffff" stroke="none" d="M95 279 c-6 -19 -4 -21 14 -16 14 3 21
1 19 -5 -2 -6 -11 -12 -19 -14 -7 -1 -21 -5 -30 -8 -10 -5 -16 -2 -16 8 0 8 6
12 14 9 9 -4 11 0 7 11 -5 12 -10 13 -26 5 -11 -6 -22 -8 -25 -5 -3 3 9 12 28
20 43 19 41 20 34 -5z"/>
<path fill="#ffffff" stroke="none" d="M164 177 c-3 -12 -16 -32 -27 -45 -29
-31 -12 -45 35 -30 42 13 65 2 70 -34 2 -12 11 -22 21 -24 32 -4 47 -13 47
-26 0 -8 -3 -9 -8 -3 -10 14 -52 15 -52 1 0 -6 -5 -4 -10 4 -8 12 -10 12 -10
1 0 -8 -3 -11 -6 -8 -4 4 -1 14 7 23 12 15 12 16 -8 10 -19 -6 -21 -4 -17 24
3 18 1 30 -6 30 -6 0 -8 -4 -5 -10 3 -5 1 -18 -5 -27 -11 -16 -11 -16 -6 -1 3
10 0 20 -6 24 -7 4 -8 3 -4 -4 4 -7 3 -12 -3 -12 -6 0 -8 -6 -5 -13 3 -8 -2
-14 -11 -14 -11 0 -14 7 -10 21 5 19 5 19 -5 3 -6 -9 -15 -15 -20 -12 -5 3
-11 1 -14 -4 -4 -5 -2 -12 4 -16 16 -10 12 -21 -9 -22 -14 -1 -17 3 -14 18 3
10 0 19 -6 19 -6 0 -11 9 -11 20 0 11 6 20 13 20 8 0 8 3 -2 9 -8 5 -21 7 -30
4 -9 -3 -1 4 17 16 18 12 30 26 26 32 -4 6 -12 2 -21 -10 -17 -25 -30 -27 -30
-6 0 10 6 14 16 10 11 -4 10 0 -5 16 -10 12 -13 19 -7 15 7 -4 23 -9 34 -11
28 -6 33 -11 23 -27 -11 -18 -13 -78 -3 -78 5 0 9 6 10 13 3 45 7 61 19 65 10
4 9 7 -1 14 -11 8 -10 9 4 4 20 -6 22 5 5 22 -7 7 -8 12 -2 12 5 0 2 5 -6 11
-12 8 -9 9 9 4 21 -6 22 -5 10 8 -10 11 -19 12 -32 5 -10 -5 -21 -7 -24 -5 -3
3 8 12 24 20 27 15 29 14 41 -9 7 -14 10 -35 6 -47z"/>
<path fill="#ffffff" stroke="none" d="M40 230 c-20 -13 -33 -13 -25 0 3 6 14
10 23 10 15 0 15 -2 2 -10z"/>
<path fill="#ffffff" stroke="none" d="M40 190 c-20 -13 -33 -13 -25 0 3 6 14
10 23 10 15 0 15 -2 2 -10z"/>
<path fill="#ffffff" stroke="none" d="M90 186 c0 -11 -19 -15 -25 -6 -3 5 1
10 9 10 9 0 16 -2 16 -4z"/>
<path fill="#ffffff" stroke="none" d="M65 90 c-3 -5 -12 -10 -18 -10 -7 0 -6
4 3 10 19 12 23 12 15 0z"/>
<path fill="#ffffff" stroke="none" d="M31 61 c-10 -6 -10 -13 -3 -28 8 -15 8
-20 -1 -20 -8 0 -12 11 -11 26 2 32 1 31 17 31 9 0 8 -3 -2 -9z"/>
<path fill="#000000" stroke="none" d="M216 75 c-3 -8 -1 -15 4 -15 6 0 10 7
10 15 0 8 -2 15 -4 15 -2 0 -6 -7 -10 -15z"/>
</g>
</svg>
