<?xml version="1.0" standalone="no"?>
<!DOCTYPE svg PUBLIC "-//W3C//DTD SVG 20010904//EN"
 "http://www.w3.org/TR/2001/REC-SVG-20010904/DTD/svg10.dtd">
<svg version="1.0" xmlns="http://www.w3.org/2000/svg"
 width="32.000000pt" height="32.000000pt" viewBox="0 0 32.000000 32.000000"
 preserveAspectRatio="xMidYMid meet">
<metadata>
Created by potrace 1.16, written by Peter Selinger 2001-2019
</metadata>
<g transform="translate(0.000000,32.000000) scale(0.100000,-0.100000)"
fill="#000000" stroke="none">
<path fill="#000000" stroke="none" d="M147 293 c-12 -11 -8 -23 8 -23 8 0 12
-6 9 -14 -9 -25 18 -30 37 -8 9 12 22 22 28 22 14 0 14 17 -1 26 -7 4 -8 3 -4
-4 10 -16 -7 -15 -22 0 -10 10 -17 10 -33 0 -12 -8 -18 -9 -14 -3 7 12 2 15
-8 4z"/>
<path fill="#000000" stroke="none" d="M21 267 c-8 -10 -7 -14 2 -14 8 0 14 6
14 14 0 7 -1 13 -2 13 -2 0 -8 -6 -14 -13z"/>
<path fill="#000000" stroke="none" d="M93 267 c0 -8 6 -14 14 -14 9 0 10 4 2
14 -6 7 -12 13 -14 13 -1 0 -2 -6 -2 -13z"/>
<path fill="#000000" stroke="none" d="M73 184 c-18 -18 -16 -34 3 -34 10 0
14 6 11 14 -3 8 -1 16 6 19 6 2 7 6 2 9 -6 3 -16 0 -22 -8z"/>
<path fill="#000000" stroke="none" d="M281 190 c0 -8 4 -22 9 -30 12 -18 12
-2 0 25 -6 13 -9 15 -9 5z"/>
<path fill="#000000" stroke="none" d="M256 125 c4 -8 10 -12 15 -9 14 8 10
24 -6 24 -9 0 -12 -6 -9 -15z"/>
</g>
</svg>
