<?xml version="1.0" standalone="no"?>
<!DOCTYPE svg PUBLIC "-//W3C//DTD SVG 20010904//EN"
 "http://www.w3.org/TR/2001/REC-SVG-20010904/DTD/svg10.dtd">
<svg version="1.0" xmlns="http://www.w3.org/2000/svg"
 width="32.000000pt" height="32.000000pt" viewBox="0 0 32.000000 32.000000"
 preserveAspectRatio="xMidYMid meet">
<metadata>
Created by potrace 1.16, written by Peter Selinger 2001-2019
</metadata>
<g transform="translate(0.000000,32.000000) scale(0.100000,-0.100000)"
fill="#000000" stroke="none">
<path fill="#000000" stroke="none" d="M114 285 c-4 -8 -11 -12 -17 -8 -5 3
-7 1 -3 -5 8 -13 -25 -25 -48 -16 -9 3 -13 11 -9 18 4 6 -1 5 -10 -3 -9 -7
-17 -16 -17 -19 0 -3 3 -2 6 1 4 3 15 2 25 -4 14 -7 19 -21 19 -54 0 -33 4
-45 15 -45 17 0 20 16 5 25 -18 11 -11 64 9 75 12 6 22 6 26 1 3 -5 -4 -12
-15 -16 -13 -4 -20 -15 -20 -32 0 -30 24 -26 28 5 3 21 4 21 29 -6 l25 -27
-22 30 c-20 28 -21 30 -3 44 15 11 15 13 1 8 -22 -8 -29 2 -17 24 5 11 7 19 4
19 -3 0 -8 -7 -11 -15z"/>
<path fill="#000000" stroke="none" d="M147 293 c-12 -11 -8 -23 8 -23 8 0 12
-6 9 -14 -9 -25 18 -30 37 -8 9 12 23 22 30 22 7 0 9 -3 6 -7 -4 -3 -2 -12 4
-19 7 -9 4 -18 -13 -34 -22 -22 -22 -22 -1 -11 12 6 23 16 26 23 3 7 12 -4 21
-25 17 -40 14 -57 -9 -57 -9 0 -12 -6 -9 -15 5 -13 11 -11 32 10 22 22 24 31
18 71 -6 50 -28 99 -23 55 1 -13 -4 -26 -11 -28 -8 -3 -10 2 -6 14 5 15 4 15
-5 3 -9 -13 -11 -13 -11 1 0 8 -7 24 -16 35 -8 10 -13 13 -9 7 8 -17 -7 -17
-23 -1 -10 10 -17 10 -33 0 -12 -8 -18 -9 -14 -3 7 12 2 15 -8 4z"/>
<path fill="#000000" stroke="none" d="M170 200 c0 -5 5 -10 11 -10 5 0 7 5 4
10 -3 6 -8 10 -11 10 -2 0 -4 -4 -4 -10z"/>
<path fill="#000000" stroke="none" d="M192 155 c0 -16 2 -22 5 -12 2 9 2 23
0 30 -3 6 -5 -1 -5 -18z"/>
<path fill="#000000" stroke="none" d="M162 145 c0 -16 2 -22 5 -12 2 9 2 23
0 30 -3 6 -5 -1 -5 -18z"/>
<path fill="#000000" stroke="none" d="M191 84 c0 -11 3 -14 6 -6 3 7 2 16 -1
19 -3 4 -6 -2 -5 -13z"/>
<path fill="#000000" stroke="none" d="M161 74 c0 -11 3 -14 6 -6 3 7 2 16 -1
19 -3 4 -6 -2 -5 -13z"/>
</g>
</svg>
