<?xml version="1.0" standalone="no"?>
<!DOCTYPE svg PUBLIC "-//W3C//DTD SVG 20010904//EN"
 "http://www.w3.org/TR/2001/REC-SVG-20010904/DTD/svg10.dtd">
<svg version="1.0" xmlns="http://www.w3.org/2000/svg"
 width="32.000000pt" height="32.000000pt" viewBox="0 0 32.000000 32.000000"
 preserveAspectRatio="xMidYMid meet">
<metadata>
Created by potrace 1.16, written by Peter Selinger 2001-2019
</metadata>
<g transform="translate(0.000000,32.000000) scale(0.100000,-0.100000)"
fill="#000000" stroke="none">
<path fill="#000000" stroke="none" d="M115 269 c6 -9 4 -11 -7 -6 -17 6 -53
-25 -42 -36 4 -4 1 -13 -6 -22 -11 -13 -9 -15 11 -15 22 0 22 0 3 -14 -25 -19
-13 -30 39 -31 57 -2 75 9 83 50 3 19 10 38 15 41 17 10 -2 24 -32 24 -17 0
-40 5 -51 11 -16 9 -19 8 -13 -2z"/>
<path fill="#ffffff" stroke="none" d="M100 256 c0 -2 -8 -10 -17 -17 -16 -13
-17 -12 -4 4 13 16 21 21 21 13z"/>
</g>
</svg>
