<?xml version="1.0" standalone="no"?>
<!DOCTYPE svg PUBLIC "-//W3C//DTD SVG 20010904//EN"
 "http://www.w3.org/TR/2001/REC-SVG-20010904/DTD/svg10.dtd">
<svg version="1.0" xmlns="http://www.w3.org/2000/svg"
 width="32.000000pt" height="32.000000pt" viewBox="0 0 32.000000 32.000000"
 preserveAspectRatio="xMidYMid meet">
<metadata>
Created by potrace 1.16, written by Peter Selinger 2001-2019
</metadata>
<g transform="translate(0.000000,32.000000) scale(0.100000,-0.100000)"
fill="#000000" stroke="none">
<path fill="#000000" stroke="none" d="M117 266 c4 -5 0 -7 -9 -3 -16 6 -53
-25 -43 -35 3 -3 -1 -11 -10 -18 -17 -14 -20 -72 -5 -100 5 -10 24 -28 41 -40
29 -21 31 -22 50 -4 19 17 21 17 49 1 37 -22 50 -19 78 17 33 44 30 106 -6
147 -23 26 -37 32 -89 38 -40 5 -60 4 -56 -3z"/>
<path fill="#ffffff" stroke="none" d="M100 256 c0 -2 -8 -10 -17 -17 -16 -13
-17 -12 -4 4 13 16 21 21 21 13z"/>
</g>
</svg>
