<?xml version="1.0" standalone="no"?>
<!DOCTYPE svg PUBLIC "-//W3C//DTD SVG 20010904//EN"
 "http://www.w3.org/TR/2001/REC-SVG-20010904/DTD/svg10.dtd">
<svg version="1.0" xmlns="http://www.w3.org/2000/svg"
 width="32.000000pt" height="32.000000pt" viewBox="0 0 32.000000 32.000000"
 preserveAspectRatio="xMidYMid meet">
<metadata>
Created by potrace 1.16, written by Peter Selinger 2001-2019
</metadata>
<g transform="translate(0.000000,32.000000) scale(0.100000,-0.100000)"
fill="#000000" stroke="none">
<path fill="#000000" stroke="none" d="M66 297 c3 -10 9 -15 12 -12 3 3 0 11
-7 18 -10 9 -11 8 -5 -6z"/>
<path fill="#000000" stroke="none" d="M235 299 c-4 -6 -5 -12 -2 -15 2 -3 7
2 10 11 7 17 1 20 -8 4z"/>
<path fill="#000000" stroke="none" d="M276 295 c-9 -26 -7 -32 5 -12 6 10 9
21 6 23 -2 3 -7 -2 -11 -11z"/>
<path fill="#000000" stroke="none" d="M32 275 c6 -14 15 -25 20 -25 5 0 1 11
-8 25 -9 14 -18 25 -20 25 -2 0 2 -11 8 -25z"/>
<path fill="#000000" stroke="none" d="M171 246 c-10 -12 -8 -13 8 -9 12 3 21
9 21 14 0 14 -16 11 -29 -5z"/>
<path fill="#000000" stroke="none" d="M115 170 c3 -5 8 -10 11 -10 2 0 4 5 4
10 0 6 -5 10 -11 10 -5 0 -7 -4 -4 -10z"/>
<path fill="#000000" stroke="none" d="M176 163 c-6 -14 -5 -15 5 -6 7 7 10
15 7 18 -3 3 -9 -2 -12 -12z"/>
<path fill="#000000" stroke="none" d="M15 40 c-3 -5 -1 -10 4 -10 6 0 11 5
11 10 0 6 -2 10 -4 10 -3 0 -8 -4 -11 -10z"/>
<path fill="#000000" stroke="none" d="M270 30 c0 -5 5 -10 11 -10 5 0 7 5 4
10 -3 6 -8 10 -11 10 -2 0 -4 -4 -4 -10z"/>
</g>
</svg>
