<?xml version="1.0" standalone="no"?>
<!DOCTYPE svg PUBLIC "-//W3C//DTD SVG 20010904//EN"
 "http://www.w3.org/TR/2001/REC-SVG-20010904/DTD/svg10.dtd">
<svg version="1.0" xmlns="http://www.w3.org/2000/svg"
 width="32.000000pt" height="32.000000pt" viewBox="0 0 32.000000 32.000000"
 preserveAspectRatio="xMidYMid meet">
<metadata>
Created by potrace 1.16, written by Peter Selinger 2001-2019
</metadata>
<g transform="translate(0.000000,32.000000) scale(0.100000,-0.100000)"
fill="#000000" stroke="none">
<path fill="#000000" stroke="none" d="M0 160 l0 -160 160 0 160 0 0 160 0
160 -160 0 -160 0 0 -160z"/>
<path fill="#ffffff" stroke="none" d="M85 301 c3 -5 1 -12 -4 -15 -5 -3 -11
1 -15 9 -6 16 9 21 19 6z"/>
<path fill="#ffffff" stroke="none" d="M153 288 c20 16 70 1 53 -15 -4 -4 -15
-2 -25 4 -14 9 -20 7 -29 -8 -16 -25 -32 -24 -25 1 3 12 0 20 -6 20 -7 0 -9 5
-5 11 5 8 10 6 16 -5 6 -11 14 -14 21 -8z"/>
<path fill="#ffffff" stroke="none" d="M242 288 c-7 -7 -12 -8 -12 -2 0 6 3
14 7 17 3 4 9 5 12 2 2 -3 -1 -11 -7 -17z"/>
<path fill="#ffffff" stroke="none" d="M288 286 c-2 -16 -7 -22 -17 -18 -10 4
-12 1 -6 -8 5 -9 4 -11 -3 -6 -9 5 -7 14 5 31 22 30 23 30 21 1z"/>
<path fill="#ffffff" stroke="none" d="M86 240 c3 0 4 7 1 14 -4 10 -1 13 9 9
7 -3 14 -14 14 -24 0 -16 -3 -17 -27 -7 -31 13 -63 44 -63 61 0 6 13 -3 29
-21 17 -17 33 -32 37 -32z"/>
<path fill="#ffffff" stroke="none" d="M230 234 c0 -2 -12 -3 -27 -2 -19 2
-28 -2 -28 -12 0 -8 -9 -16 -20 -17 -11 -2 -14 0 -7 3 6 3 12 13 12 21 0 12
-3 13 -13 4 -8 -6 -17 -8 -20 -4 -4 3 5 14 21 23 24 15 30 16 55 3 15 -7 27
-16 27 -19z"/>
<path fill="#ffffff" stroke="none" d="M35 221 c-3 -6 3 -14 12 -20 15 -9 14
-10 -7 -7 -14 3 -27 5 -29 5 -5 1 20 31 26 31 2 0 2 -4 -2 -9z"/>
<path fill="#ffffff" stroke="none" d="M70 220 c0 -5 -2 -10 -4 -10 -3 0 -8 5
-11 10 -3 6 -1 10 4 10 6 0 11 -4 11 -10z"/>
<path fill="#ffffff" stroke="none" d="M290 227 c0 -2 -10 -12 -22 -23 l-23
-19 19 23 c18 21 26 27 26 19z"/>
<path fill="#ffffff" stroke="none" d="M130 206 c0 -3 -4 -8 -10 -11 -5 -3
-10 -1 -10 4 0 6 5 11 10 11 6 0 10 -2 10 -4z"/>
<path fill="#ffffff" stroke="none" d="M233 185 c-6 -18 -54 -45 -80 -45 -14
0 -13 3 7 18 19 13 58 34 77 41 1 1 0 -6 -4 -14z"/>
<path fill="#ffffff" stroke="none" d="M286 185 c-1 -8 -5 -17 -8 -21 -5 -4
-4 16 1 34 3 9 9 -1 7 -13z"/>
<path fill="#ffffff" stroke="none" d="M104 165 l25 -25 -23 0 c-26 0 -51 24
-41 40 9 14 11 13 39 -15z"/>
<path fill="#ffffff" stroke="none" d="M142 167 c-12 -6 -25 -7 -29 -3 -11 10
18 25 35 18 13 -4 11 -8 -6 -15z"/>
<path fill="#ffffff" stroke="none" d="M27 128 c-3 -8 -6 -5 -6 6 -1 11 2 17
5 13 3 -3 4 -12 1 -19z"/>
<path fill="#ffffff" stroke="none" d="M57 143 c-4 -3 0 -17 9 -31 9 -13 11
-21 5 -18 -10 6 -15 -6 -12 -26 0 -4 -7 -4 -16 -1 -11 4 -13 8 -5 11 10 3 10
7 1 18 -9 11 -9 14 1 14 7 0 10 6 7 14 -5 13 0 26 11 26 3 0 2 -3 -1 -7z"/>
<path fill="#ffffff" stroke="none" d="M265 130 c-3 -5 -11 -10 -16 -10 -6 0
-7 5 -4 10 3 6 11 10 16 10 6 0 7 -4 4 -10z"/>
<path fill="#ffffff" stroke="none" d="M140 116 c0 -11 -19 -15 -25 -6 -3 5 1
10 9 10 9 0 16 -2 16 -4z"/>
<path fill="#ffffff" stroke="none" d="M241 97 c-5 -5 -7 -17 -4 -26 4 -9 3
-13 -2 -9 -4 4 -9 18 -10 32 -2 18 1 23 12 19 9 -4 11 -9 4 -16z"/>
<path fill="#ffffff" stroke="none" d="M210 79 c0 -5 -5 -9 -11 -9 -5 0 -7 4
-4 10 3 6 -1 7 -10 4 -11 -5 -14 -2 -9 10 5 13 9 14 20 5 8 -6 14 -15 14 -20z"/>
<path fill="#ffffff" stroke="none" d="M115 90 c3 -5 1 -10 -4 -10 -6 0 -11 5
-11 10 0 6 2 10 4 10 3 0 8 -4 11 -10z"/>
<path fill="#ffffff" stroke="none" d="M184 59 c-3 -5 -10 -6 -16 -3 -6 4 -14
0 -19 -7 -6 -10 -9 -11 -9 -1 0 6 -9 12 -21 12 -11 0 -18 -4 -14 -9 3 -5 0
-13 -6 -17 -8 -4 -9 -3 -5 5 4 6 0 14 -8 17 -30 12 -7 19 48 16 31 -2 53 -8
50 -13z"/>
<path fill="#ffffff" stroke="none" d="M284 21 c-3 -3 -11 2 -18 11 -7 10 -17
14 -21 10 -5 -4 -5 -1 -1 6 6 11 12 10 27 -4 11 -9 16 -20 13 -23z"/>
<path fill="#ffffff" stroke="none" d="M35 40 c-3 -5 -11 -10 -16 -10 -6 0 -7
5 -4 10 3 6 11 10 16 10 6 0 7 -4 4 -10z"/>
</g>
</svg>
