<?xml version="1.0" standalone="no"?>
<!DOCTYPE svg PUBLIC "-//W3C//DTD SVG 20010904//EN"
 "http://www.w3.org/TR/2001/REC-SVG-20010904/DTD/svg10.dtd">
<svg version="1.0" xmlns="http://www.w3.org/2000/svg"
 width="32.000000pt" height="32.000000pt" viewBox="0 0 32.000000 32.000000"
 preserveAspectRatio="xMidYMid meet">
<metadata>
Created by potrace 1.16, written by Peter Selinger 2001-2019
</metadata>
<g transform="translate(0.000000,32.000000) scale(0.100000,-0.100000)"
fill="#000000" stroke="none">
<path fill="#000000" stroke="none" d="M10 289 c0 -12 5 -19 12 -17 18 6 20
25 3 31 -10 5 -15 0 -15 -14z"/>
<path fill="#000000" stroke="none" d="M154 295 c-8 -19 9 -40 24 -31 13 8 9
39 -6 44 -7 2 -15 -4 -18 -13z"/>
<path fill="#000000" stroke="none" d="M80 285 c-9 -10 -16 -12 -20 -5 -4 6
-16 0 -31 -17 l-24 -27 30 19 30 18 -18 -20 c-14 -16 -17 -30 -12 -57 4 -20
11 -39 16 -41 4 -3 6 -12 3 -19 -3 -8 -1 -17 5 -20 6 -4 8 -13 4 -21 -3 -8 0
-15 6 -15 6 0 8 -6 5 -14 -3 -8 0 -17 5 -21 6 -3 9 -10 6 -15 -3 -5 -1 -11 4
-14 15 -10 24 13 11 29 -7 9 -8 15 0 20 12 8 14 55 1 55 -5 0 -7 -10 -5 -22 3
-17 0 -15 -10 7 -8 17 -12 33 -10 37 3 4 -1 18 -7 30 -14 26 -13 76 1 93 6 7
22 10 36 7 20 -4 25 -1 22 9 -7 20 -33 22 -48 4z"/>
<path fill="#000000" stroke="none" d="M216 285 c-4 -11 1 -15 19 -15 29 0 41
15 19 24 -24 9 -31 7 -38 -9z"/>
<path fill="#000000" stroke="none" d="M110 251 c0 -5 16 -15 35 -22 27 -10
32 -16 23 -26 -8 -10 -14 -10 -24 -2 -11 9 -14 8 -14 -5 0 -9 5 -15 11 -13 6
1 14 -4 17 -12 3 -8 0 -11 -6 -7 -7 4 -10 -3 -9 -21 2 -15 0 -46 -4 -68 l-6
-40 -2 50 c-1 28 -6 68 -11 90 -5 27 -6 12 -3 -50 3 -50 9 -94 13 -99 9 -9 20
20 25 60 1 14 6 28 10 32 5 4 5 -1 2 -11 -4 -10 -2 -28 4 -39 9 -16 8 -19 -2
-13 -8 5 -10 4 -5 -3 4 -7 14 -12 22 -12 11 0 13 6 9 21 -5 14 -3 19 3 15 15
-9 21 15 10 44 -5 14 -7 39 -3 56 4 21 1 34 -7 38 -8 4 -9 8 -3 11 28 15 39
25 33 31 -4 3 -14 -1 -23 -10 -21 -20 -49 -21 -69 -1 -17 17 -26 19 -26 6z"/>
<path fill="#000000" stroke="none" d="M77 236 c-3 -8 -1 -18 4 -22 6 -3 9
-17 6 -30 -2 -14 0 -27 4 -30 11 -7 11 67 0 84 -7 11 -9 11 -14 -2z"/>
<path fill="#000000" stroke="none" d="M270 210 c0 -5 -6 -7 -14 -4 -11 4 -11
-3 1 -48 7 -29 12 -61 9 -70 -2 -10 -3 -18 -1 -18 2 0 10 -3 19 -6 21 -8 21
16 -1 55 -16 28 -16 33 -3 41 12 7 12 10 1 10 -9 0 -11 8 -7 25 4 14 4 25 1
25 -3 0 -5 -4 -5 -10z"/>
<path fill="#ffffff" stroke="none" d="M287 78 c-3 -8 -6 -5 -6 6 -1 11 2 17
5 13 3 -3 4 -12 1 -19z"/>
<path fill="#000000" stroke="none" d="M224 102 c1 -45 5 -77 10 -72 11 11 10
98 -1 129 -7 18 -9 3 -9 -57z"/>
<path fill="#000000" stroke="none" d="M173 13 c9 -2 23 -2 30 0 6 3 -1 5 -18
5 -16 0 -22 -2 -12 -5z"/>
</g>
</svg>
