<?xml version="1.0" standalone="no"?>
<!DOCTYPE svg PUBLIC "-//W3C//DTD SVG 20010904//EN"
 "http://www.w3.org/TR/2001/REC-SVG-20010904/DTD/svg10.dtd">
<svg version="1.0" xmlns="http://www.w3.org/2000/svg"
 width="32.000000pt" height="32.000000pt" viewBox="0 0 32.000000 32.000000"
 preserveAspectRatio="xMidYMid meet">
<metadata>
Created by potrace 1.16, written by Peter Selinger 2001-2019
</metadata>
<g transform="translate(0.000000,32.000000) scale(0.100000,-0.100000)"
fill="#000000" stroke="none">
<path fill="#000000" stroke="none" d="M0 160 l0 -160 160 0 160 0 0 160 0
160 -160 0 -160 0 0 -160z"/>
<path fill="#ffffff" stroke="none" d="M110 296 c0 -2 -7 -7 -16 -10 -8 -3
-12 -2 -9 4 6 10 25 14 25 6z"/>
<path fill="#ffffff" stroke="none" d="M240 296 c0 -2 -7 -9 -15 -16 -13 -11
-14 -10 -9 4 5 14 24 23 24 12z"/>
<path fill="#ffffff" stroke="none" d="M57 223 c-2 -10 3 -31 11 -46 7 -16 11
-31 8 -34 -3 -3 1 -20 8 -37 14 -34 15 -71 1 -83 -4 -5 -5 -3 -1 4 3 6 1 15
-5 18 -5 4 -8 13 -5 21 3 8 1 14 -5 14 -6 0 -9 7 -6 15 4 8 2 17 -4 21 -6 3
-8 12 -5 19 2 7 1 16 -4 21 -5 5 -12 26 -15 47 -6 31 -4 37 10 37 11 0 15 -6
12 -17z"/>
</g>
</svg>
