<?xml version="1.0" standalone="no"?>
<!DOCTYPE svg PUBLIC "-//W3C//DTD SVG 20010904//EN"
 "http://www.w3.org/TR/2001/REC-SVG-20010904/DTD/svg10.dtd">
<svg version="1.0" xmlns="http://www.w3.org/2000/svg"
 width="32.000000pt" height="32.000000pt" viewBox="0 0 32.000000 32.000000"
 preserveAspectRatio="xMidYMid meet">
<metadata>
Created by potrace 1.16, written by Peter Selinger 2001-2019
</metadata>
<g transform="translate(0.000000,32.000000) scale(0.100000,-0.100000)"
fill="#000000" stroke="none">
<path fill="#000000" stroke="none" d="M0 160 l0 -160 160 0 160 0 0 160 0
160 -160 0 -160 0 0 -160z"/>
<path fill="#ffffff" stroke="none" d="M207 146 c-4 -11 -1 -13 11 -8 16 6 16
4 1 -18 -24 -38 -30 -70 -11 -63 10 4 13 2 8 -5 -7 -12 -44 -10 -65 3 -10 5
-12 4 -7 -3 4 -7 2 -12 -3 -12 -6 0 -11 5 -11 10 0 6 -12 8 -27 5 -26 -5 -26
-5 -5 4 12 6 22 18 21 28 0 16 -1 16 -8 -1 -9 -23 -16 -12 -16 23 0 13 8 29
17 35 13 8 22 6 41 -12 l24 -22 11 25 c12 26 28 36 19 11z"/>
</g>
</svg>
