<?xml version="1.0" standalone="no"?>
<!DOCTYPE svg PUBLIC "-//W3C//DTD SVG 20010904//EN"
 "http://www.w3.org/TR/2001/REC-SVG-20010904/DTD/svg10.dtd">
<svg version="1.0" xmlns="http://www.w3.org/2000/svg"
 width="32.000000pt" height="32.000000pt" viewBox="0 0 32.000000 32.000000"
 preserveAspectRatio="xMidYMid meet">
<metadata>
Created by potrace 1.16, written by Peter Selinger 2001-2019
</metadata>
<g transform="translate(0.000000,32.000000) scale(0.100000,-0.100000)"
fill="#000000" stroke="none">
<path fill="#000000" stroke="none" d="M10 253 c0 -25 1 -25 18 -10 10 10 26
17 36 17 15 0 14 -4 -5 -29 -17 -24 -20 -38 -15 -70 3 -23 2 -42 -4 -46 -6 -4
-8 -11 -4 -16 3 -5 0 -8 -8 -7 -8 2 -13 -7 -14 -24 -1 -19 3 -25 14 -20 8 3
21 -3 28 -13 8 -10 14 -14 14 -7 0 8 8 8 31 0 31 -11 104 0 171 24 47 17 64
114 20 106 -24 -4 -27 6 -12 43 10 23 15 27 26 18 11 -9 14 -7 14 10 0 30 -23
51 -56 51 -23 0 -25 -2 -14 -15 11 -13 10 -14 -4 -9 -9 3 -16 10 -16 15 0 5
-49 9 -110 9 l-110 0 0 -27z"/>
<path fill="#ffffff" stroke="none" d="M197 245 c24 -16 33 -42 11 -29 -8 4
-10 3 -5 -2 5 -5 14 -9 20 -9 7 -1 11 -7 9 -14 -1 -7 3 -21 10 -30 8 -10 4 -8
-11 4 l-24 20 7 -28 7 -28 -32 16 c-39 21 -62 5 -28 -19 13 -9 19 -16 13 -16
-5 0 -16 6 -22 12 -10 10 -15 10 -22 -2 -8 -13 -10 -13 -10 1 0 9 -7 16 -15
16 -8 0 -15 -5 -15 -10 0 -6 -8 -2 -18 9 -15 15 -17 27 -11 59 13 71 71 92
136 50z"/>
<path fill="#ffffff" stroke="none" d="M274 215 c-6 -16 -24 -21 -24 -7 0 11
11 22 21 22 5 0 6 -7 3 -15z"/>
<path fill="#ffffff" stroke="none" d="M116 98 c5 -8 2 -9 -9 -5 -10 3 -17 2
-17 -4 0 -6 -4 -7 -10 -4 -5 3 -10 1 -10 -4 0 -6 -6 -11 -12 -11 -14 1 29 40
43 40 4 0 11 -5 15 -12z"/>
<path fill="#ffffff" stroke="none" d="M250 88 c10 -21 10 -21 -3 -6 -8 10
-17 15 -20 11 -4 -3 -7 -1 -7 5 0 20 19 13 30 -10z"/>
<path fill="#ffffff" stroke="none" d="M194 83 c4 -9 -1 -10 -20 -2 -14 5 -30
6 -36 3 -6 -4 -8 -2 -5 3 9 14 56 11 61 -4z"/>
<path fill="#ffffff" stroke="none" d="M185 50 c4 -6 -6 -7 -27 -3 -44 8 -48
13 -10 13 17 0 34 -4 37 -10z"/>
<path fill="#000000" stroke="none" d="M70 189 c0 -5 5 -7 10 -4 6 3 10 8 10
11 0 2 -4 4 -10 4 -5 0 -10 -5 -10 -11z"/>
<path fill="#000000" stroke="none" d="M112 189 c2 -6 8 -10 13 -10 5 0 11 4
13 10 2 6 -4 11 -13 11 -9 0 -15 -5 -13 -11z"/>
<path fill="#000000" stroke="none" d="M311 54 c0 -11 3 -14 6 -6 3 7 2 16 -1
19 -3 4 -6 -2 -5 -13z"/>
</g>
</svg>
