<?xml version="1.0" standalone="no"?>
<!DOCTYPE svg PUBLIC "-//W3C//DTD SVG 20010904//EN"
 "http://www.w3.org/TR/2001/REC-SVG-20010904/DTD/svg10.dtd">
<svg version="1.0" xmlns="http://www.w3.org/2000/svg"
 width="32.000000pt" height="32.000000pt" viewBox="0 0 32.000000 32.000000"
 preserveAspectRatio="xMidYMid meet">
<metadata>
Created by potrace 1.16, written by Peter Selinger 2001-2019
</metadata>
<g transform="translate(0.000000,32.000000) scale(0.100000,-0.100000)"
fill="#000000" stroke="none">
<path fill="#000000" stroke="none" d="M0 310 c0 -5 35 -10 77 -12 73 -3 76
-4 59 -21 -10 -9 -21 -15 -26 -12 -16 10 -20 -13 -5 -25 18 -15 6 -42 -36 -78
-16 -13 -29 -30 -29 -38 0 -22 31 -30 45 -11 12 17 45 24 45 10 0 -3 -7 -15
-17 -25 -13 -14 -14 -23 -5 -42 9 -20 8 -25 -9 -29 -36 -10 -20 -27 26 -27 28
0 45 4 45 12 0 9 3 9 12 0 13 -13 88 -17 88 -4 0 4 -15 6 -33 4 -33 -4 -33 -3
-33 36 1 21 7 46 13 54 7 8 10 18 6 21 -3 4 -1 7 5 7 7 0 10 -19 9 -55 -2 -39
1 -55 9 -55 19 0 28 20 15 33 -17 17 -13 34 9 40 27 7 25 29 -6 66 -14 17 -23
35 -20 40 4 5 2 13 -4 16 -8 5 -8 11 0 20 8 10 8 19 0 35 -18 33 -35 18 -34
-29 1 -23 -1 -39 -4 -36 -3 2 -11 -3 -19 -13 -12 -16 -13 -15 -11 7 2 16 -2
25 -14 27 -10 1 -17 -1 -17 -4 3 -21 -3 -32 -18 -32 -15 0 -16 2 -3 10 8 5 11
10 6 10 -5 0 -4 6 2 13 6 6 11 17 11 22 0 6 7 17 15 27 8 9 12 19 9 22 -4 3
30 6 75 6 48 0 82 4 82 10 0 6 -60 10 -160 10 -95 0 -160 -4 -160 -10z"/>
<path fill="#ffffff" stroke="none" d="M156 172 c-4 -13 -1 -19 9 -19 8 0 15
4 15 9 0 4 7 8 16 8 8 0 13 4 10 8 -3 5 2 9 10 9 18 0 64 -52 64 -73 0 -21
-27 -17 -33 6 -6 23 -32 27 -41 5 -7 -19 -50 -19 -66 0 -7 8 -21 15 -32 15
-10 0 -21 -7 -24 -15 -8 -19 -34 -20 -34 -1 0 24 51 58 77 51 13 -3 23 -1 23
5 0 5 3 10 6 10 3 0 3 -8 0 -18z"/>
<path fill="#ffffff" stroke="none" d="M147 52 c1 -41 0 -42 -30 -41 -24 1
-26 3 -9 6 25 5 26 7 11 34 -12 24 -4 52 14 47 6 -3 13 -23 14 -46z"/>
<path fill="#ffffff" stroke="none" d="M170 50 c0 -5 -4 -10 -10 -10 -5 0 -10
5 -10 10 0 6 5 10 10 10 6 0 10 -4 10 -10z"/>
<path fill="#000000" stroke="none" d="M174 275 c-16 -12 -17 -14 -3 -15 9 0
19 7 23 15 7 19 5 19 -20 0z"/>
</g>
</svg>
