<?xml version="1.0" standalone="no"?>
<!DOCTYPE svg PUBLIC "-//W3C//DTD SVG 20010904//EN"
 "http://www.w3.org/TR/2001/REC-SVG-20010904/DTD/svg10.dtd">
<svg version="1.0" xmlns="http://www.w3.org/2000/svg"
 width="32.000000pt" height="32.000000pt" viewBox="0 0 32.000000 32.000000"
 preserveAspectRatio="xMidYMid meet">
<metadata>
Created by potrace 1.16, written by Peter Selinger 2001-2019
</metadata>
<g transform="translate(0.000000,32.000000) scale(0.100000,-0.100000)"
fill="#000000" stroke="none">
<path fill="#000000" stroke="none" d="M0 310 c0 -11 116 -17 238 -12 146 6
89 22 -78 22 -95 0 -160 -4 -160 -10z"/>
<path fill="#000000" stroke="none" d="M138 280 c-2 -6 -11 -12 -20 -14 -26
-3 -30 -12 -13 -26 18 -15 6 -42 -36 -78 -16 -13 -29 -30 -29 -38 0 -22 31
-30 45 -11 12 17 45 24 45 10 0 -3 -7 -15 -17 -25 -13 -14 -14 -23 -5 -42 9
-20 8 -25 -9 -29 -36 -10 -20 -27 26 -27 28 0 45 4 45 12 0 9 3 9 12 0 13 -13
88 -17 88 -4 0 4 -16 6 -37 4 -31 -4 -35 -2 -29 13 9 26 -2 55 -20 48 -7 -3
-14 0 -14 6 0 6 -5 11 -11 11 -5 0 -8 -4 -4 -9 3 -5 1 -12 -5 -16 -5 -3 -7
-17 -4 -31 6 -22 3 -24 -27 -23 -25 1 -28 3 -11 6 17 3 22 9 17 21 -18 43 -17
53 3 59 18 4 20 9 11 24 -12 23 -47 25 -55 4 -4 -8 -13 -15 -21 -15 -23 0 -11
32 22 55 17 12 31 25 32 30 1 6 5 18 8 28 5 11 2 17 -6 17 -8 0 -3 9 11 20 14
10 22 21 18 25 -3 3 -8 1 -10 -5z"/>
<path fill="#ffffff" stroke="none" d="M170 50 c0 -5 -4 -10 -10 -10 -5 0 -10
5 -10 10 0 6 5 10 10 10 6 0 10 -4 10 -10z"/>
<path fill="#000000" stroke="none" d="M167 277 c3 -5 11 -6 17 -4 21 8 55
-57 36 -68 -4 -3 7 -20 26 -39 35 -35 45 -66 20 -66 -7 0 -16 9 -19 20 -9 34
-44 23 -38 -13 0 -4 -4 -7 -11 -7 -6 0 -8 -3 -5 -6 4 -4 13 -1 22 6 19 16 30
-8 21 -50 -4 -22 -2 -30 9 -30 20 0 29 20 16 33 -17 17 -13 34 9 40 27 7 25
29 -6 66 -14 17 -23 35 -20 40 4 5 2 13 -4 16 -8 5 -8 11 0 20 20 24 -4 50
-43 50 -20 0 -33 -3 -30 -8z"/>
<path fill="#ffffff" stroke="none" d="M230 276 c0 -3 -4 -8 -10 -11 -5 -3
-10 -1 -10 4 0 6 5 11 10 11 6 0 10 -2 10 -4z"/>
<path fill="#ffffff" stroke="none" d="M240 122 c0 -5 -7 -9 -15 -9 -8 0 -12
4 -9 9 3 4 9 8 15 8 5 0 9 -4 9 -8z"/>
<path fill="#000000" stroke="none" d="M140 200 c0 -5 7 -10 15 -10 8 0 15 5
15 10 0 6 -7 10 -15 10 -8 0 -15 -4 -15 -10z"/>
</g>
</svg>
