<?xml version="1.0" standalone="no"?>
<!DOCTYPE svg PUBLIC "-//W3C//DTD SVG 20010904//EN"
 "http://www.w3.org/TR/2001/REC-SVG-20010904/DTD/svg10.dtd">
<svg version="1.0" xmlns="http://www.w3.org/2000/svg"
 width="32.000000pt" height="32.000000pt" viewBox="0 0 32.000000 32.000000"
 preserveAspectRatio="xMidYMid meet">
<metadata>
Created by potrace 1.16, written by Peter Selinger 2001-2019
</metadata>
<g transform="translate(0.000000,32.000000) scale(0.100000,-0.100000)"
fill="#000000" stroke="none">
<path fill="#000000" stroke="none" d="M85 300 c3 -5 -1 -10 -9 -10 -8 0 -18
-5 -22 -12 -5 -7 -3 -8 7 -3 8 5 5 -2 -6 -15 -11 -13 -14 -20 -7 -16 10 6 11
1 7 -21 -3 -15 -2 -21 1 -13 15 31 50 61 67 54 9 -3 14 -10 11 -15 -3 -5 2 -6
10 -3 8 3 19 -3 26 -15 9 -17 8 -22 -5 -27 -8 -3 -22 -4 -29 -1 -10 4 -13 1
-10 -8 6 -13 21 -15 40 -2 6 3 14 3 18 0 4 -4 13 -8 21 -9 9 -1 2 13 -17 37
-17 21 -34 39 -38 39 -3 0 -6 9 -6 20 0 11 5 18 11 16 5 -2 9 -8 8 -14 -2 -6
8 -20 22 -30 13 -11 22 -22 19 -24 -2 -3 4 -11 13 -19 17 -13 17 -13 3 5 -14
18 -13 19 13 14 21 -4 25 -3 16 8 -13 16 21 37 45 28 9 -3 16 -3 16 0 0 4 -10
11 -22 16 -23 9 -23 9 2 10 24 2 24 2 -5 11 -16 5 -37 6 -45 3 -22 -9 -71 -10
-77 -2 -7 13 -43 9 -43 -4 0 -9 -3 -9 -12 0 -15 15 -32 16 -23 2z"/>
<path fill="#ffffff" stroke="none" d="M250 285 c-7 -8 -9 -15 -5 -15 4 0 2
-7 -5 -15 -15 -18 -42 -6 -46 20 -2 13 3 15 21 11 13 -3 27 -2 30 4 3 5 9 10
12 10 3 0 0 -7 -7 -15z"/>
<path fill="#000000" stroke="none" d="M95 230 c-3 -5 3 -10 15 -10 12 0 18 5
15 10 -3 6 -10 10 -15 10 -5 0 -12 -4 -15 -10z"/>
<path fill="#000000" stroke="none" d="M278 217 c7 -7 9 -32 6 -58 -3 -28 -1
-39 5 -30 15 23 11 89 -6 95 -12 5 -13 3 -5 -7z"/>
<path fill="#000000" stroke="none" d="M74 181 c6 -27 -25 -85 -49 -95 -9 -3
-15 -17 -14 -33 l1 -28 8 25 c7 24 7 23 12 -10 l5 -35 3 40 3 40 7 -35 c7 -34
8 -34 7 10 0 27 7 57 17 72 13 19 14 30 6 49 l-11 24 5 -24z"/>
<path fill="#000000" stroke="none" d="M153 163 c-10 -10 -20 -27 -20 -38 -1
-11 -4 -33 -7 -50 -6 -27 -5 -26 8 6 8 20 21 50 30 67 19 37 17 39 -11 15z"/>
<path fill="#000000" stroke="none" d="M262 85 c0 -16 2 -22 5 -12 2 9 2 23 0
30 -3 6 -5 -1 -5 -18z"/>
<path fill="#000000" stroke="none" d="M218 83 c5 -10 7 -25 5 -33 -4 -12 -3
-12 5 -1 11 15 4 51 -10 51 -5 0 -5 -7 0 -17z"/>
<path fill="#000000" stroke="none" d="M283 60 c0 -25 2 -35 4 -22 2 12 2 32
0 45 -2 12 -4 2 -4 -23z"/>
<path fill="#000000" stroke="none" d="M303 65 c0 -22 2 -30 4 -17 2 12 2 30
0 40 -3 9 -5 -1 -4 -23z"/>
<path fill="#000000" stroke="none" d="M108 23 c7 -3 16 -2 19 1 4 3 -2 6 -13
5 -11 0 -14 -3 -6 -6z"/>
</g>
</svg>
