<?xml version="1.0" standalone="no"?>
<!DOCTYPE svg PUBLIC "-//W3C//DTD SVG 20010904//EN"
 "http://www.w3.org/TR/2001/REC-SVG-20010904/DTD/svg10.dtd">
<svg version="1.0" xmlns="http://www.w3.org/2000/svg"
 width="32.000000pt" height="32.000000pt" viewBox="0 0 32.000000 32.000000"
 preserveAspectRatio="xMidYMid meet">
<metadata>
Created by potrace 1.16, written by Peter Selinger 2001-2019
</metadata>
<g transform="translate(0.000000,32.000000) scale(0.100000,-0.100000)"
fill="#000000" stroke="none">
<path fill="#000000" stroke="none" d="M0 160 l0 -160 43 0 44 0 -2 48 c0 26
3 56 9 67 8 18 7 18 -7 6 -9 -7 -24 -11 -32 -7 -27 10 -16 35 25 58 30 18 40
29 40 49 0 32 28 59 61 59 33 0 49 -17 49 -53 0 -16 9 -41 20 -57 43 -60 48
-120 13 -155 -13 -13 -10 -15 21 -15 l36 0 0 160 0 160 -160 0 -160 0 0 -160z"/>
<path fill="#000000" stroke="none" d="M152 261 c-17 -10 -21 -55 -6 -69 9 -8
14 -9 14 -2 0 6 4 9 9 6 4 -3 16 3 26 14 27 30 -8 73 -43 51z"/>
<path fill="#000000" stroke="none" d="M50 135 c0 -8 7 -15 15 -15 8 0 15 7
15 15 0 8 -7 15 -15 15 -8 0 -15 -7 -15 -15z"/>
<path fill="#000000" stroke="none" d="M240 115 c0 -8 7 -15 15 -15 8 0 15 7
15 15 0 8 -7 15 -15 15 -8 0 -15 -7 -15 -15z"/>
</g>
</svg>
