<?xml version="1.0" standalone="no"?>
<!DOCTYPE svg PUBLIC "-//W3C//DTD SVG 20010904//EN"
 "http://www.w3.org/TR/2001/REC-SVG-20010904/DTD/svg10.dtd">
<svg version="1.0" xmlns="http://www.w3.org/2000/svg"
 width="32.000000pt" height="32.000000pt" viewBox="0 0 32.000000 32.000000"
 preserveAspectRatio="xMidYMid meet">
<metadata>
Created by potrace 1.16, written by Peter Selinger 2001-2019
</metadata>
<g transform="translate(0.000000,32.000000) scale(0.100000,-0.100000)"
fill="#000000" stroke="none">
<path fill="#000000" stroke="none" d="M0 150 l0 -150 46 0 c25 0 43 4 40 9
-3 5 1 14 9 21 9 8 13 21 9 32 -3 11 1 27 10 36 9 11 12 23 7 31 -7 11 -13 9
-27 -8 -10 -11 -24 -21 -32 -21 -24 0 -25 31 -2 56 24 25 51 35 32 11 -9 -10
-6 -13 12 -13 l24 0 -20 27 c-19 26 -17 56 3 44 5 -4 9 1 9 9 0 19 38 46 66
46 12 0 27 -7 34 -15 7 -8 23 -15 35 -15 34 0 49 -26 56 -94 5 -53 6 -48 7 42
l2 102 -160 0 -160 0 0 -150z"/>
<path fill="#000000" stroke="none" d="M129 83 c-13 -16 -12 -17 4 -4 9 7 17
15 17 17 0 8 -8 3 -21 -13z"/>
<path fill="#000000" stroke="none" d="M157 73 c-4 -3 -7 -13 -7 -21 0 -12 3
-12 15 -2 8 7 15 16 15 21 0 11 -14 12 -23 2z"/>
<path fill="#000000" stroke="none" d="M292 35 l-22 -35 25 0 c22 0 25 4 25
35 0 19 -1 35 -2 35 -2 0 -13 -16 -26 -35z"/>
</g>
</svg>
