<?xml version="1.0" standalone="no"?>
<!DOCTYPE svg PUBLIC "-//W3C//DTD SVG 20010904//EN"
 "http://www.w3.org/TR/2001/REC-SVG-20010904/DTD/svg10.dtd">
<svg version="1.0" xmlns="http://www.w3.org/2000/svg"
 width="32.000000pt" height="32.000000pt" viewBox="0 0 32.000000 32.000000"
 preserveAspectRatio="xMidYMid meet">
<metadata>
Created by potrace 1.16, written by Peter Selinger 2001-2019
</metadata>
<g transform="translate(0.000000,32.000000) scale(0.100000,-0.100000)"
fill="#000000" stroke="none">
<path fill="#000000" stroke="none" d="M229 293 c-13 -17 -13 -17 6 -3 11 8
22 16 24 17 2 2 0 3 -6 3 -6 0 -17 -8 -24 -17z"/>
<path fill="#000000" stroke="none" d="M254 285 c-10 -8 -15 -15 -10 -15 5 0
1 -10 -10 -22 -10 -13 -15 -20 -10 -16 5 4 16 2 25 -5 14 -10 14 -10 3 5 -11
14 -10 18 8 28 12 6 28 9 36 6 9 -3 12 -1 9 4 -3 6 -14 10 -23 11 -14 0 -13 2
3 9 14 6 16 9 4 9 -8 1 -24 -6 -35 -14z"/>
<path fill="#000000" stroke="none" d="M125 280 c-3 -5 -1 -10 4 -10 6 0 11 5
11 10 0 6 -2 10 -4 10 -3 0 -8 -4 -11 -10z"/>
<path fill="#000000" stroke="none" d="M71 258 c-14 -23 -14 -23 8 -4 22 20
25 26 13 26 -4 0 -13 -10 -21 -22z"/>
<path fill="#000000" stroke="none" d="M171 267 c2 -1 13 -9 24 -17 19 -14 19
-14 6 3 -7 9 -18 17 -24 17 -6 0 -8 -1 -6 -3z"/>
<path fill="#000000" stroke="none" d="M166 235 c24 -39 24 -40 24 -28 0 6 -9
21 -21 34 l-20 24 17 -30z"/>
<path fill="#000000" stroke="none" d="M261 74 c0 -11 3 -14 6 -6 3 7 2 16 -1
19 -3 4 -6 -2 -5 -13z"/>
<path fill="#000000" stroke="none" d="M282 45 c0 -17 2 -22 5 -12 2 9 2 23 0
30 -3 6 -5 -1 -5 -18z"/>
<path fill="#000000" stroke="none" d="M301 44 c0 -11 3 -14 6 -6 3 7 2 16 -1
19 -3 4 -6 -2 -5 -13z"/>
<path fill="#000000" stroke="none" d="M51 34 c0 -11 3 -14 6 -6 3 7 2 16 -1
19 -3 4 -6 -2 -5 -13z"/>
<path fill="#000000" stroke="none" d="M31 24 c0 -11 3 -14 6 -6 3 7 2 16 -1
19 -3 4 -6 -2 -5 -13z"/>
</g>
</svg>
