<?xml version="1.0" standalone="no"?>
<!DOCTYPE svg PUBLIC "-//W3C//DTD SVG 20010904//EN"
 "http://www.w3.org/TR/2001/REC-SVG-20010904/DTD/svg10.dtd">
<svg version="1.0" xmlns="http://www.w3.org/2000/svg"
 width="32.000000pt" height="32.000000pt" viewBox="0 0 32.000000 32.000000"
 preserveAspectRatio="xMidYMid meet">
<metadata>
Created by potrace 1.16, written by Peter Selinger 2001-2019
</metadata>
<g transform="translate(0.000000,32.000000) scale(0.100000,-0.100000)"
fill="#000000" stroke="none">
<path fill="#000000" stroke="none" d="M0 310 c0 -11 116 -17 238 -12 146 6
89 22 -78 22 -95 0 -160 -4 -160 -10z"/>
<path fill="#000000" stroke="none" d="M138 279 c-2 -5 -11 -11 -20 -13 -26
-3 -30 -12 -13 -26 18 -15 6 -42 -36 -78 -16 -13 -29 -30 -29 -38 0 -22 31
-30 45 -11 12 17 45 24 45 10 0 -3 -7 -15 -17 -25 -13 -14 -14 -23 -5 -42 9
-20 8 -25 -9 -29 -36 -10 -20 -27 26 -27 28 0 45 4 45 12 0 9 3 9 12 0 13 -13
88 -17 88 -4 0 4 -15 6 -33 4 -33 -4 -33 -3 -33 36 1 21 7 46 13 54 7 8 10 18
6 21 -3 4 -1 7 5 7 7 0 10 -19 9 -55 -2 -39 1 -55 9 -55 19 0 28 20 15 33 -17
17 -13 34 9 40 27 7 25 29 -6 66 -14 17 -23 35 -20 40 4 5 2 13 -4 16 -8 5 -8
11 0 20 20 24 -4 50 -44 50 -27 0 -32 -2 -24 -13 8 -9 13 -10 18 -2 5 8 10 5
15 -7 16 -37 11 -58 -22 -81 -37 -26 -39 -29 -18 -29 8 0 12 4 9 9 -5 7 11 12
19 6 2 -2 11 3 19 10 13 11 20 8 42 -18 14 -18 26 -38 26 -46 0 -21 -27 -17
-33 6 -6 23 -32 27 -41 5 -3 -8 -16 -15 -29 -15 -14 0 -30 7 -37 15 -7 8 -21
15 -32 15 -10 0 -21 -7 -24 -15 -8 -19 -34 -20 -34 -1 0 23 52 58 77 53 12 -2
20 0 17 4 -3 5 2 9 10 9 9 0 16 5 16 10 0 6 -7 10 -15 10 -8 0 -15 -4 -15 -10
0 -5 -8 -10 -17 -10 -15 0 -14 2 3 16 10 8 13 12 5 8 -9 -5 -12 -3 -7 5 4 6
11 9 15 7 4 -3 8 1 8 9 0 8 -4 12 -8 9 -4 -2 -10 0 -14 6 -3 5 1 10 9 10 9 0
16 7 16 15 0 17 -7 20 -12 4z"/>
<path fill="#ffffff" stroke="none" d="M230 276 c0 -3 -4 -8 -10 -11 -5 -3
-10 -1 -10 4 0 6 5 11 10 11 6 0 10 -2 10 -4z"/>
<path fill="#ffffff" stroke="none" d="M147 52 c1 -41 0 -42 -30 -41 -24 1
-26 3 -9 6 25 5 26 7 11 34 -12 24 -4 52 14 47 6 -3 13 -23 14 -46z"/>
<path fill="#ffffff" stroke="none" d="M170 50 c0 -5 -4 -10 -10 -10 -5 0 -10
5 -10 10 0 6 5 10 10 10 6 0 10 -4 10 -10z"/>
</g>
</svg>
