<?xml version="1.0" standalone="no"?>
<!DOCTYPE svg PUBLIC "-//W3C//DTD SVG 20010904//EN"
 "http://www.w3.org/TR/2001/REC-SVG-20010904/DTD/svg10.dtd">
<svg version="1.0" xmlns="http://www.w3.org/2000/svg"
 width="32.000000pt" height="32.000000pt" viewBox="0 0 32.000000 32.000000"
 preserveAspectRatio="xMidYMid meet">
<metadata>
Created by potrace 1.16, written by Peter Selinger 2001-2019
</metadata>
<g transform="translate(0.000000,32.000000) scale(0.100000,-0.100000)"
fill="#000000" stroke="none">
<path fill="#000000" stroke="none" d="M147 290 c-9 -11 -12 -20 -7 -20 20 0
9 -27 -16 -39 -15 -7 -24 -17 -21 -25 3 -7 0 -19 -6 -25 -8 -8 -8 -14 0 -22 8
-8 16 -2 30 25 18 36 18 36 32 13 13 -20 13 -21 -2 -8 -10 7 -17 9 -17 5 0 -5
8 -14 18 -20 14 -9 22 -9 35 1 9 7 17 16 17 20 0 4 -8 1 -17 -6 -17 -13 -17
-12 -3 5 14 17 15 17 37 -10 16 -21 25 -26 34 -17 7 7 7 13 0 17 -5 4 -8 13
-5 21 3 7 -4 19 -16 25 -14 7 -20 18 -17 29 12 47 -43 69 -76 31z"/>
<path fill="#ffffff" stroke="none" d="M190 225 c-7 -8 -16 -12 -21 -9 -13 8
-1 24 18 24 13 0 13 -3 3 -15z"/>
<path fill="#000000" stroke="none" d="M132 120 c-11 -44 7 -47 27 -4 14 31
14 31 -3 37 -10 4 -17 -6 -24 -33z"/>
<path fill="#000000" stroke="none" d="M197 109 c3 -10 13 -19 22 -22 14 -3
17 1 14 17 -3 13 -12 22 -22 22 -12 0 -17 -6 -14 -17z"/>
<path fill="#000000" stroke="none" d="M116 33 c-6 -14 -5 -15 5 -6 7 7 10 15
7 18 -3 3 -9 -2 -12 -12z"/>
</g>
</svg>
