<?xml version="1.0" standalone="no"?>
<!DOCTYPE svg PUBLIC "-//W3C//DTD SVG 20010904//EN"
 "http://www.w3.org/TR/2001/REC-SVG-20010904/DTD/svg10.dtd">
<svg version="1.0" xmlns="http://www.w3.org/2000/svg"
 width="32.000000pt" height="32.000000pt" viewBox="0 0 32.000000 32.000000"
 preserveAspectRatio="xMidYMid meet">
<metadata>
Created by potrace 1.16, written by Peter Selinger 2001-2019
</metadata>
<g transform="translate(0.000000,32.000000) scale(0.100000,-0.100000)"
fill="#000000" stroke="none">
<path fill="#000000" stroke="none" d="M0 160 l0 -160 160 0 160 0 0 160 0
160 -160 0 -160 0 0 -160z"/>
<path fill="#ffffff" stroke="none" d="M208 283 c5 -10 7 -23 5 -29 -2 -6 12
-27 32 -47 19 -19 35 -39 35 -43 0 -5 -10 -25 -21 -44 -20 -32 -23 -33 -30
-15 -4 12 -5 0 -2 -27 5 -44 4 -48 -20 -59 -19 -8 -37 -9 -59 -2 -36 10 -36 9
-23 108 l6 50 -25 -28 -25 -28 -7 25 c-4 16 -11 23 -20 19 -25 -10 -14 12 19
35 66 47 72 53 60 58 -18 8 17 44 44 44 12 0 26 -8 31 -17z"/>
<path fill="#000000" stroke="none" d="M162 224 c-20 -14 -22 -24 -22 -100 0
-76 2 -84 19 -84 18 0 20 9 23 98 2 53 3 98 2 99 0 2 -10 -4 -22 -13z"/>
<path fill="#000000" stroke="none" d="M200 175 c-10 -12 -10 -19 -2 -27 15
-15 48 14 38 31 -10 15 -21 14 -36 -4z"/>
</g>
</svg>
