<?xml version="1.0" standalone="no"?>
<!DOCTYPE svg PUBLIC "-//W3C//DTD SVG 20010904//EN"
 "http://www.w3.org/TR/2001/REC-SVG-20010904/DTD/svg10.dtd">
<svg version="1.0" xmlns="http://www.w3.org/2000/svg"
 width="32.000000pt" height="32.000000pt" viewBox="0 0 32.000000 32.000000"
 preserveAspectRatio="xMidYMid meet">
<metadata>
Created by potrace 1.16, written by Peter Selinger 2001-2019
</metadata>
<g transform="translate(0.000000,32.000000) scale(0.100000,-0.100000)"
fill="#000000" stroke="none">
<path fill="#000000" stroke="none" d="M217 305 c-14 -7 -28 -10 -30 -7 -2 4
-2 1 -1 -5 2 -7 -1 -23 -6 -35 -8 -21 -9 -22 -11 -3 -1 11 -1 24 0 28 1 5 -3
6 -8 3 -5 -4 -12 0 -15 6 -4 9 -5 8 -5 -2 3 -41 -2 -45 -23 -20 -15 17 -19 19
-15 7 5 -13 3 -17 -5 -14 -7 2 -12 13 -11 23 1 10 0 13 -3 6 -5 -10 -10 -9
-21 5 -13 17 -13 17 -4 -3 12 -25 36 -46 48 -42 4 2 21 -7 37 -19 29 -23 27
-48 -4 -38 -20 6 -36 -10 -20 -20 6 -4 8 -10 5 -15 -9 -14 24 -40 42 -33 12 5
14 3 8 -7 -5 -9 -4 -11 3 -6 23 14 11 -13 -14 -33 -15 -12 -22 -21 -16 -21 6
0 23 14 39 30 24 26 73 44 59 22 -3 -5 1 -9 9 -9 19 0 19 2 -1 21 -11 12 -20
13 -34 6 -13 -7 -21 -5 -31 8 -13 15 -12 16 4 3 15 -12 21 -9 18 12 0 4 3 7 9
7 5 0 10 5 10 10 0 6 -6 10 -14 10 -7 0 -20 8 -27 17 -12 15 -12 16 4 10 10
-4 16 -3 12 2 -3 5 -1 12 3 15 5 3 8 17 7 30 -2 15 3 27 12 30 33 13 47 -25
16 -43 -11 -6 -13 -11 -5 -11 7 0 10 -5 6 -11 -5 -8 -1 -8 14 0 15 8 23 8 28
-1 4 -6 3 -8 -4 -4 -6 3 -13 2 -17 -3 -3 -6 3 -8 15 -6 11 2 24 -4 31 -13 9
-14 9 -13 5 8 -3 14 -6 32 -6 40 0 13 -1 13 -10 0 -7 -11 -10 -7 -11 20 -1 19
-1 42 0 50 0 10 -1 11 -5 3 -4 -9 -11 -10 -23 -3 -12 6 -26 4 -44 -5z"/>
<path fill="#ffffff" stroke="none" d="M157 248 c-3 -8 -6 -5 -6 6 -1 11 2 17
5 13 3 -3 4 -12 1 -19z"/>
<path fill="#ffffff" stroke="none" d="M194 168 c-3 -5 -13 -7 -21 -4 -11 4
-13 2 -9 -9 3 -9 0 -15 -8 -15 -23 0 -25 11 -4 36 16 18 25 21 35 13 7 -6 10
-16 7 -21z"/>
<path fill="#ffffff" stroke="none" d="M140 180 c0 -5 -2 -10 -4 -10 -3 0 -8
5 -11 10 -3 6 -1 10 4 10 6 0 11 -4 11 -10z"/>
<path fill="#000000" stroke="none" d="M260 176 c0 -2 7 -7 16 -10 8 -3 12 -2
9 4 -6 10 -25 14 -25 6z"/>
<path fill="#000000" stroke="none" d="M246 81 c-11 -18 15 -71 35 -71 18 0
19 2 4 30 -9 18 -20 28 -27 24 -8 -5 -9 -2 -5 9 7 18 2 23 -7 8z"/>
<path fill="#ffffff" stroke="none" d="M280 25 c0 -5 -5 -3 -10 5 -5 8 -10 20
-10 25 0 6 5 3 10 -5 5 -8 10 -19 10 -25z"/>
<path fill="#000000" stroke="none" d="M182 35 c-9 -20 -9 -25 1 -25 15 0 37
20 37 34 0 5 -7 1 -16 -10 -15 -18 -15 -18 -9 4 8 29 1 28 -13 -3z"/>
</g>
</svg>
