<?xml version="1.0" standalone="no"?>
<!DOCTYPE svg PUBLIC "-//W3C//DTD SVG 20010904//EN"
 "http://www.w3.org/TR/2001/REC-SVG-20010904/DTD/svg10.dtd">
<svg version="1.0" xmlns="http://www.w3.org/2000/svg"
 width="32.000000pt" height="32.000000pt" viewBox="0 0 32.000000 32.000000"
 preserveAspectRatio="xMidYMid meet">
<metadata>
Created by potrace 1.16, written by Peter Selinger 2001-2019
</metadata>
<g transform="translate(0.000000,32.000000) scale(0.100000,-0.100000)"
fill="#000000" stroke="none">
<path fill="#000000" stroke="none" d="M3 295 c1 -13 9 -31 17 -41 14 -18 14
-18 -2 -5 -17 13 -18 6 -18 -118 l0 -131 160 0 160 0 0 161 0 160 -160 -2
c-160 -2 -160 -2 -157 -24z"/>
<path fill="#ffffff" stroke="none" d="M40 289 c0 -6 -4 -7 -10 -4 -5 3 -10
11 -10 16 0 6 5 7 10 4 6 -3 10 -11 10 -16z"/>
<path fill="#ffffff" stroke="none" d="M63 276 c-3 -18 0 -43 7 -55 13 -26 4
-43 -11 -21 -17 28 -22 61 -10 86 15 34 21 30 14 -10z"/>
<path fill="#ffffff" stroke="none" d="M194 282 c8 -13 -11 -35 -23 -28 -16
10 -14 36 3 36 8 0 17 -4 20 -8z"/>
<path fill="#ffffff" stroke="none" d="M183 217 c4 3 7 1 7 -5 0 -13 -10 -15
-34 -6 -9 3 -13 10 -10 16 4 5 11 5 18 -1 7 -6 16 -8 19 -4z"/>
<path fill="#ffffff" stroke="none" d="M260 170 c0 -4 -7 -14 -17 -21 -15 -13
-16 -11 -9 14 4 16 3 34 -1 41 -4 7 0 3 10 -7 9 -11 17 -23 17 -27z"/>
<path fill="#ffffff" stroke="none" d="M183 157 c-4 -18 -3 -19 6 -7 8 11 11
11 11 2 0 -18 -53 -69 -57 -56 -2 6 2 24 8 40 12 27 15 36 18 50 0 3 5 3 10 0
5 -3 7 -16 4 -29z"/>
<path fill="#ffffff" stroke="none" d="M85 160 c3 -5 1 -10 -4 -10 -6 0 -11 5
-11 10 0 6 2 10 4 10 3 0 8 -4 11 -10z"/>
<path fill="#ffffff" stroke="none" d="M239 50 c0 -23 -1 -23 -9 -5 -5 11 -9
31 -9 45 0 23 1 23 9 5 5 -11 9 -31 9 -45z"/>
<path fill="#ffffff" stroke="none" d="M150 46 c0 -3 -4 -8 -10 -11 -5 -3 -10
-1 -10 4 0 6 5 11 10 11 6 0 10 -2 10 -4z"/>
</g>
</svg>
