<?xml version="1.0" standalone="no"?>
<!DOCTYPE svg PUBLIC "-//W3C//DTD SVG 20010904//EN"
 "http://www.w3.org/TR/2001/REC-SVG-20010904/DTD/svg10.dtd">
<svg version="1.0" xmlns="http://www.w3.org/2000/svg"
 width="32.000000pt" height="32.000000pt" viewBox="0 0 32.000000 32.000000"
 preserveAspectRatio="xMidYMid meet">
<metadata>
Created by potrace 1.16, written by Peter Selinger 2001-2019
</metadata>
<g transform="translate(0.000000,32.000000) scale(0.100000,-0.100000)"
fill="#000000" stroke="none">
<path fill="#000000" stroke="none" d="M20 302 c6 -13 14 -21 18 -18 3 4 -2
14 -12 24 -18 16 -18 16 -6 -6z"/>
<path fill="#000000" stroke="none" d="M49 286 c-12 -25 -7 -58 10 -86 15 -22
24 -5 11 21 -7 12 -10 37 -7 55 7 40 1 44 -14 10z"/>
<path fill="#000000" stroke="none" d="M160 276 c0 -21 21 -31 30 -15 5 7 6
17 4 21 -9 14 -34 9 -34 -6z"/>
<path fill="#000000" stroke="none" d="M0 266 c0 -2 8 -10 18 -17 15 -13 16
-12 3 4 -13 16 -21 21 -21 13z"/>
<path fill="#000000" stroke="none" d="M146 222 c-3 -6 1 -13 10 -16 24 -9 34
-7 34 6 0 6 -3 8 -7 5 -3 -4 -12 -2 -19 4 -7 6 -14 6 -18 1z"/>
<path fill="#000000" stroke="none" d="M233 204 c4 -7 5 -25 1 -41 -7 -25 -6
-27 9 -14 21 17 21 24 0 48 -10 10 -14 14 -10 7z"/>
<path fill="#000000" stroke="none" d="M169 186 c-3 -14 -6 -23 -18 -50 -6
-16 -10 -34 -8 -40 4 -13 57 38 57 56 0 9 -3 9 -11 -2 -9 -12 -10 -11 -6 7 3
13 1 26 -4 29 -5 3 -10 3 -10 0z"/>
<path fill="#000000" stroke="none" d="M70 160 c0 -5 5 -10 11 -10 5 0 7 5 4
10 -3 6 -8 10 -11 10 -2 0 -4 -4 -4 -10z"/>
<path fill="#000000" stroke="none" d="M221 90 c0 -14 4 -34 9 -45 8 -18 9
-18 9 5 0 14 -4 34 -9 45 -8 18 -9 18 -9 -5z"/>
<path fill="#000000" stroke="none" d="M130 39 c0 -5 5 -7 10 -4 6 3 10 8 10
11 0 2 -4 4 -10 4 -5 0 -10 -5 -10 -11z"/>
</g>
</svg>
