<?xml version="1.0" standalone="no"?>
<!DOCTYPE svg PUBLIC "-//W3C//DTD SVG 20010904//EN"
 "http://www.w3.org/TR/2001/REC-SVG-20010904/DTD/svg10.dtd">
<svg version="1.0" xmlns="http://www.w3.org/2000/svg"
 width="32.000000pt" height="32.000000pt" viewBox="0 0 32.000000 32.000000"
 preserveAspectRatio="xMidYMid meet">
<metadata>
Created by potrace 1.16, written by Peter Selinger 2001-2019
</metadata>
<g transform="translate(0.000000,32.000000) scale(0.100000,-0.100000)"
fill="#000000" stroke="none">
<path fill="#000000" stroke="none" d="M0 160 l0 -160 160 0 160 0 0 160 0
160 -160 0 -160 0 0 -160z"/>
<path fill="#ffffff" stroke="none" d="M164 255 c-3 -60 -4 -63 -21 -60 -10 1
-26 -6 -36 -16 -22 -23 -57 -25 -57 -3 0 11 6 13 19 9 24 -7 67 49 62 83 -2
18 1 23 16 20 13 -2 18 -12 17 -33z"/>
<path fill="#ffffff" stroke="none" d="M210 210 c13 -19 19 -37 15 -50 -8 -25
-27 -27 -24 -2 3 23 -11 53 -22 46 -11 -6 -11 -1 -3 20 8 21 9 21 34 -14z"/>
<path fill="#ffffff" stroke="none" d="M178 171 c-4 -11 24 -56 55 -88 32 -34
28 -46 -5 -16 -22 19 -23 8 -4 -29 14 -26 13 -28 -3 -28 -11 0 -22 12 -29 33
-7 17 -10 21 -8 9 5 -25 -2 -26 -46 -7 -13 5 -18 2 -18 -9 0 -9 -7 -16 -15
-16 -13 0 -14 4 -5 20 6 11 8 25 5 30 -8 12 15 90 27 90 4 0 7 3 7 8 -3 16 2
20 21 15 10 -3 18 -8 18 -12z"/>
</g>
</svg>
