<?xml version="1.0" standalone="no"?>
<!DOCTYPE svg PUBLIC "-//W3C//DTD SVG 20010904//EN"
 "http://www.w3.org/TR/2001/REC-SVG-20010904/DTD/svg10.dtd">
<svg version="1.0" xmlns="http://www.w3.org/2000/svg"
 width="32.000000pt" height="32.000000pt" viewBox="0 0 32.000000 32.000000"
 preserveAspectRatio="xMidYMid meet">
<metadata>
Created by potrace 1.16, written by Peter Selinger 2001-2019
</metadata>
<g transform="translate(0.000000,32.000000) scale(0.100000,-0.100000)"
fill="#000000" stroke="none">
<path fill="#000000" stroke="none" d="M3 295 c1 -13 9 -31 17 -41 14 -18 14
-18 -2 -5 -17 13 -18 6 -18 -118 l0 -131 160 0 160 0 0 161 0 160 -160 -2
c-160 -2 -160 -2 -157 -24z"/>
<path fill="#ffffff" stroke="none" d="M40 289 c0 -6 -4 -7 -10 -4 -5 3 -10
11 -10 16 0 6 5 7 10 4 6 -3 10 -11 10 -16z"/>
<path fill="#ffffff" stroke="none" d="M63 276 c-6 -35 12 -80 28 -71 14 10
11 -1 -6 -15 -13 -10 -18 -6 -34 30 -18 39 -18 45 -4 67 20 31 23 29 16 -11z"/>
<path fill="#ffffff" stroke="none" d="M195 270 c0 -22 -29 -18 -33 3 -3 14 1
18 15 15 10 -2 18 -10 18 -18z"/>
<path fill="#ffffff" stroke="none" d="M165 230 c-3 -5 1 -10 9 -10 9 0 16 -5
16 -11 0 -7 -9 -9 -21 -6 -12 3 -22 0 -25 -8 -3 -7 -12 -16 -20 -19 -8 -3 -3
9 12 29 24 32 44 49 29 25z"/>
<path fill="#ffffff" stroke="none" d="M240 210 c13 -19 19 -37 15 -50 -8 -24
-25 -27 -25 -4 0 9 5 12 13 8 6 -4 5 1 -4 12 -15 17 -32 64 -24 64 2 0 13 -13
25 -30z"/>
<path fill="#ffffff" stroke="none" d="M210 138 c0 -5 -4 -6 -10 -3 -6 4 -7
-1 -3 -11 4 -12 3 -15 -5 -10 -17 10 -15 -9 2 -23 15 -13 29 -64 15 -55 -5 3
-9 13 -9 22 0 10 -10 23 -22 31 -22 14 -22 14 -5 -13 21 -31 6 -35 -22 -5 -19
21 -17 45 7 83 4 6 7 14 8 19 1 4 2 10 3 15 2 9 41 -37 41 -50z"/>
<path fill="#ffffff" stroke="none" d="M85 160 c3 -5 1 -10 -4 -10 -6 0 -11 5
-11 10 0 6 2 10 4 10 3 0 8 -4 11 -10z"/>
<path fill="#ffffff" stroke="none" d="M253 85 c36 -36 39 -49 5 -18 -18 16
-19 16 -16 -7 2 -14 7 -31 11 -37 5 -7 4 -13 -1 -13 -11 0 -34 51 -38 86 -1
13 -1 24 1 24 2 0 19 -16 38 -35z"/>
<path fill="#ffffff" stroke="none" d="M150 41 c0 -5 -7 -11 -14 -14 -10 -4
-13 -1 -9 9 6 15 23 19 23 5z"/>
</g>
</svg>
