<?xml version="1.0" standalone="no"?>
<!DOCTYPE svg PUBLIC "-//W3C//DTD SVG 20010904//EN"
 "http://www.w3.org/TR/2001/REC-SVG-20010904/DTD/svg10.dtd">
<svg version="1.0" xmlns="http://www.w3.org/2000/svg"
 width="32.000000pt" height="32.000000pt" viewBox="0 0 32.000000 32.000000"
 preserveAspectRatio="xMidYMid meet">
<metadata>
Created by potrace 1.16, written by Peter Selinger 2001-2019
</metadata>
<g transform="translate(0.000000,32.000000) scale(0.100000,-0.100000)"
fill="#000000" stroke="none">
<path fill="#000000" stroke="none" d="M130 295 c-8 -10 -8 -20 -2 -31 14 -25
-33 -87 -59 -79 -13 4 -19 1 -19 -9 0 -21 38 -21 62 1 22 20 23 9 3 -48 -9
-24 -13 -49 -10 -57 3 -7 0 -22 -5 -33 -8 -15 -7 -19 4 -19 7 0 17 7 20 15 5
13 10 14 27 5 11 -6 27 -9 35 -6 8 3 14 -1 14 -9 0 -9 9 -15 21 -15 18 0 20 2
9 16 -11 13 -10 16 9 21 l22 6 -24 26 c-29 31 -79 122 -72 129 3 3 5 -1 5 -8
0 -7 3 -10 7 -7 11 12 31 -13 26 -33 -7 -26 14 -26 22 0 3 11 -1 30 -11 44 -9
14 -14 32 -11 39 3 8 1 20 -5 28 -8 12 -9 11 -5 -1 3 -9 -1 -24 -8 -33 -11
-16 -13 -16 -19 -2 -3 9 -2 13 4 10 5 -3 8 4 7 15 -1 11 -5 20 -9 20 -4 0 -8
4 -8 10 0 5 8 7 18 3 9 -3 14 -3 11 1 -12 14 -48 14 -59 1z"/>
</g>
</svg>
