<?xml version="1.0" standalone="no"?>
<!DOCTYPE svg PUBLIC "-//W3C//DTD SVG 20010904//EN"
 "http://www.w3.org/TR/2001/REC-SVG-20010904/DTD/svg10.dtd">
<svg version="1.0" xmlns="http://www.w3.org/2000/svg"
 width="32.000000pt" height="32.000000pt" viewBox="0 0 32.000000 32.000000"
 preserveAspectRatio="xMidYMid meet">
<metadata>
Created by potrace 1.16, written by Peter Selinger 2001-2019
</metadata>
<g transform="translate(0.000000,32.000000) scale(0.100000,-0.100000)"
fill="#000000" stroke="none">
<path fill="#000000" stroke="none" d="M44 148 c3 -15 26 -23 26 -8 0 6 -4 9
-9 6 -5 -4 -12 -1 -14 4 -3 6 -4 5 -3 -2z"/>
<path fill="#000000" stroke="none" d="M92 148 c2 -5 8 -9 13 -9 5 0 11 4 13
9 1 5 -4 9 -13 9 -9 0 -14 -4 -13 -9z"/>
<path fill="#000000" stroke="none" d="M153 139 c-13 -5 -23 -15 -23 -23 0
-17 -61 -32 -82 -20 -7 4 -4 -2 7 -13 16 -16 26 -18 50 -11 16 4 31 8 32 8 2
0 3 8 4 18 0 14 2 14 9 -3 9 -20 9 -20 9 1 1 11 6 25 13 32 16 16 7 21 -19 11z"/>
<path fill="#000000" stroke="none" d="M294 126 c-3 -9 -10 -14 -14 -11 -14 9
-23 -36 -10 -49 10 -8 11 -8 5 2 -4 8 2 23 16 38 12 13 20 27 16 30 -4 4 -9
-1 -13 -10z"/>
<path fill="#000000" stroke="none" d="M110 50 l-25 -8 25 -1 c14 0 32 4 40 9
13 9 13 10 0 9 -8 -1 -26 -5 -40 -9z"/>
</g>
</svg>
