<?xml version="1.0" standalone="no"?>
<!DOCTYPE svg PUBLIC "-//W3C//DTD SVG 20010904//EN"
 "http://www.w3.org/TR/2001/REC-SVG-20010904/DTD/svg10.dtd">
<svg version="1.0" xmlns="http://www.w3.org/2000/svg"
 width="32.000000pt" height="32.000000pt" viewBox="0 0 32.000000 32.000000"
 preserveAspectRatio="xMidYMid meet">
<metadata>
Created by potrace 1.16, written by Peter Selinger 2001-2019
</metadata>
<g transform="translate(0.000000,32.000000) scale(0.100000,-0.100000)"
fill="#000000" stroke="none">
<path fill="#000000" stroke="none" d="M179 256 c-10 -20 -13 -38 -8 -51 4
-11 8 -16 8 -11 1 5 8 3 16 -4 8 -6 20 -8 27 -4 10 6 10 5 2 -7 -6 -8 -14 -26
-18 -41 -5 -24 -4 -26 16 -23 12 3 29 11 37 20 20 20 23 72 5 79 -8 3 -14 1
-14 -4 0 -6 -4 -10 -10 -10 -5 0 -7 14 -5 30 2 17 -1 30 -6 30 -6 0 -8 4 -5 9
3 5 -2 11 -12 13 -12 3 -22 -5 -33 -26z"/>
<path fill="#000000" stroke="none" d="M106 270 c-9 -3 -17 -9 -17 -13 1 -4 1
-22 1 -39 l-1 -33 -13 24 c-13 23 -14 23 -23 5 -11 -20 -8 -63 6 -77 4 -4 17
-9 29 -12 25 -4 31 22 10 44 -11 10 -10 11 3 6 10 -4 19 0 23 11 5 13 9 14 21
4 22 -18 20 11 -3 53 -13 25 -22 32 -36 27z"/>
<path fill="#000000" stroke="none" d="M126 164 c-4 -15 -2 -32 3 -37 8 -8 11
-7 11 1 0 7 9 12 20 12 11 0 20 -5 20 -12 0 -8 3 -9 11 -1 5 5 7 22 3 37 -5
21 -9 24 -20 15 -11 -9 -17 -9 -28 0 -11 9 -15 6 -20 -15z"/>
<path fill="#000000" stroke="none" d="M20 121 c0 -46 58 -79 88 -49 20 20 14
38 -12 38 -14 0 -27 4 -30 9 -3 5 -15 11 -26 14 -14 4 -20 0 -20 -12z"/>
<path fill="#000000" stroke="none" d="M245 115 c-22 -11 -41 -20 -43 -21 -1
-1 0 -9 4 -18 9 -25 51 -20 70 9 27 41 15 53 -31 30z"/>
<path fill="#000000" stroke="none" d="M140 115 c-15 -18 -22 -95 -9 -95 5 0
7 12 3 28 -4 21 -3 24 5 12 6 -8 11 -23 11 -32 0 -23 20 -23 20 0 0 9 5 24 11
32 8 12 9 9 5 -12 -4 -16 -2 -28 3 -28 13 0 6 77 -9 95 -16 19 -24 19 -40 0z"/>
<path fill="#ffffff" stroke="none" d="M180 85 c0 -5 -5 -17 -10 -25 -9 -13
-11 -13 -20 0 -15 23 -12 36 10 36 11 0 20 -5 20 -11z"/>
</g>
</svg>
