<?xml version="1.0" standalone="no"?>
<!DOCTYPE svg PUBLIC "-//W3C//DTD SVG 20010904//EN"
 "http://www.w3.org/TR/2001/REC-SVG-20010904/DTD/svg10.dtd">
<svg version="1.0" xmlns="http://www.w3.org/2000/svg"
 width="32.000000pt" height="32.000000pt" viewBox="0 0 32.000000 32.000000"
 preserveAspectRatio="xMidYMid meet">
<metadata>
Created by potrace 1.16, written by Peter Selinger 2001-2019
</metadata>
<g transform="translate(0.000000,32.000000) scale(0.100000,-0.100000)"
fill="#000000" stroke="none">
<path fill="#000000" stroke="none" d="M0 160 l0 -160 160 0 160 0 0 160 0
160 -160 0 -160 0 0 -160z"/>
<path fill="#ffffff" stroke="none" d="M74 214 c3 -8 2 -12 -4 -9 -6 3 -10 10
-10 16 0 14 7 11 14 -7z"/>
<path fill="#ffffff" stroke="none" d="M177 198 c-3 -8 -6 -5 -6 6 -1 11 2 17
5 13 3 -3 4 -12 1 -19z"/>
<path fill="#ffffff" stroke="none" d="M280 198 c0 -6 -6 -5 -15 2 -8 7 -15
14 -15 16 0 2 7 1 15 -2 8 -4 15 -11 15 -16z"/>
<path fill="#ffffff" stroke="none" d="M110 144 c0 -8 -4 -12 -10 -9 -5 3 -10
10 -10 16 0 5 5 9 10 9 6 0 10 -7 10 -16z"/>
<path fill="#ffffff" stroke="none" d="M27 108 c-3 -7 -5 -2 -5 12 0 14 2 19
5 13 2 -7 2 -19 0 -25z"/>
<path fill="#ffffff" stroke="none" d="M287 108 c-3 -7 -5 -2 -5 12 0 14 2 19
5 13 2 -7 2 -19 0 -25z"/>
<path fill="#ffffff" stroke="none" d="M118 92 c2 -7 -3 -12 -12 -12 -9 0 -16
7 -16 16 0 17 22 14 28 -4z"/>
</g>
</svg>
