<?xml version="1.0" standalone="no"?>
<!DOCTYPE svg PUBLIC "-//W3C//DTD SVG 20010904//EN"
 "http://www.w3.org/TR/2001/REC-SVG-20010904/DTD/svg10.dtd">
<svg version="1.0" xmlns="http://www.w3.org/2000/svg"
 width="32.000000pt" height="32.000000pt" viewBox="0 0 32.000000 32.000000"
 preserveAspectRatio="xMidYMid meet">
<metadata>
Created by potrace 1.16, written by Peter Selinger 2001-2019
</metadata>
<g transform="translate(0.000000,32.000000) scale(0.100000,-0.100000)"
fill="#000000" stroke="none">
<path fill="#000000" stroke="none" d="M175 264 c-17 -23 -18 -23 -34 -6 -28
31 -46 21 -51 -28 -4 -37 -7 -41 -13 -23 -5 13 -14 20 -22 17 -22 -9 -11 -75
17 -96 28 -21 20 -23 -18 -3 -20 10 -30 11 -35 3 -17 -27 20 -67 62 -68 40 0
51 42 24 94 -12 23 -12 26 -1 17 11 -9 15 -7 19 10 5 19 8 20 21 9 13 -10 19
-10 31 0 12 10 16 8 25 -15 6 -15 8 -36 4 -47 -10 -34 4 -68 29 -68 26 1 54
20 57 40 5 36 0 39 -37 18 l-38 -20 33 27 c18 14 30 31 27 36 -4 5 -2 9 3 9
15 0 2 38 -14 44 -8 3 -14 1 -14 -4 0 -6 -4 -10 -10 -10 -5 0 -7 13 -5 28 6
55 -29 77 -60 36z"/>
<path fill="#000000" stroke="none" d="M129 179 c-6 -67 -4 -159 3 -159 5 0 6
12 2 28 -4 21 -3 24 5 12 6 -8 11 -23 11 -32 0 -23 20 -23 20 0 0 9 5 24 11
32 8 12 9 9 5 -12 -4 -16 -3 -28 2 -28 5 0 7 33 6 73 -3 106 -2 101 -19 87
-12 -10 -18 -10 -30 0 -12 10 -15 10 -16 -1z"/>
<path fill="#ffffff" stroke="none" d="M180 85 c0 -5 -5 -17 -10 -25 -9 -13
-11 -13 -20 0 -15 23 -12 36 10 36 11 0 20 -5 20 -11z"/>
</g>
</svg>
