<?xml version="1.0" standalone="no"?>
<!DOCTYPE svg PUBLIC "-//W3C//DTD SVG 20010904//EN"
 "http://www.w3.org/TR/2001/REC-SVG-20010904/DTD/svg10.dtd">
<svg version="1.0" xmlns="http://www.w3.org/2000/svg"
 width="32.000000pt" height="32.000000pt" viewBox="0 0 32.000000 32.000000"
 preserveAspectRatio="xMidYMid meet">
<metadata>
Created by potrace 1.16, written by Peter Selinger 2001-2019
</metadata>
<g transform="translate(0.000000,32.000000) scale(0.100000,-0.100000)"
fill="#000000" stroke="none">
<path fill="#000000" stroke="none" d="M96 237 c-13 -13 -26 -42 -30 -67 -5
-25 -10 -40 -13 -33 -2 7 -11 9 -19 6 -10 -3 -11 -9 -5 -17 5 -6 10 -15 11
-21 1 -5 6 -9 12 -7 5 1 7 -2 4 -7 -4 -5 -2 -12 4 -16 5 -3 10 -2 10 3 0 6 10
8 23 4 19 -5 20 -3 10 10 -14 16 -8 28 14 28 7 0 13 -7 13 -15 0 -17 16 -20
25 -4 4 6 14 8 22 5 8 -3 11 -2 8 3 -3 6 -13 10 -23 10 -74 3 -97 15 -68 36
16 12 21 11 40 -12 l22 -25 32 36 c18 20 32 31 32 25 0 -7 3 -9 6 -6 10 10
-17 67 -37 77 -30 17 -69 11 -93 -13z"/>
<path fill="#ffffff" stroke="none" d="M200 206 c0 -2 -8 -10 -17 -17 -16 -13
-17 -12 -4 4 13 16 21 21 21 13z"/>
<path fill="#000000" stroke="none" d="M20 80 c0 -5 11 -17 25 -26 19 -12 31
-14 52 -6 27 10 24 12 -27 17 -13 1 -26 8 -28 14 -5 14 -22 15 -22 1z"/>
<path fill="#000000" stroke="none" d="M250 60 c-9 -6 -10 -10 -3 -10 6 0 15
5 18 10 8 12 4 12 -15 0z"/>
<path fill="#000000" stroke="none" d="M158 37 c20 -6 36 -7 42 -1 6 6 -7 10
-33 10 l-42 1 33 -10z"/>
</g>
</svg>
