<?xml version="1.0" standalone="no"?>
<!DOCTYPE svg PUBLIC "-//W3C//DTD SVG 20010904//EN"
 "http://www.w3.org/TR/2001/REC-SVG-20010904/DTD/svg10.dtd">
<svg version="1.0" xmlns="http://www.w3.org/2000/svg"
 width="32.000000pt" height="32.000000pt" viewBox="0 0 32.000000 32.000000"
 preserveAspectRatio="xMidYMid meet">
<metadata>
Created by potrace 1.16, written by Peter Selinger 2001-2019
</metadata>
<g transform="translate(0.000000,32.000000) scale(0.100000,-0.100000)"
fill="#000000" stroke="none">
<path fill="#000000" stroke="none" d="M216 215 l-47 -45 32 0 c23 0 40 9 65
36 19 19 34 40 34 45 0 23 -42 5 -84 -36z"/>
<path fill="#000000" stroke="none" d="M40 195 c0 -18 11 -19 29 -2 11 10 14
10 18 0 6 -17 23 -17 23 0 0 8 -14 14 -35 15 -26 2 -35 -1 -35 -13z"/>
<path fill="#000000" stroke="none" d="M264 189 c-3 -6 -20 -17 -38 -25 l-31
-13 31 -1 c20 0 39 9 54 25 19 20 20 25 7 25 -9 0 -19 -5 -23 -11z"/>
<path fill="#000000" stroke="none" d="M141 147 c-13 -21 -12 -21 5 -5 10 10
16 20 13 22 -3 3 -11 -5 -18 -17z"/>
<path fill="#000000" stroke="none" d="M161 127 c-13 -21 -12 -21 5 -5 10 10
16 20 13 22 -3 3 -11 -5 -18 -17z"/>
<path fill="#000000" stroke="none" d="M187 116 c-15 -22 -15 -25 -1 -30 28
-11 64 -6 64 7 0 13 -30 47 -42 47 -3 0 -13 -11 -21 -24z"/>
</g>
</svg>
