<?xml version="1.0" standalone="no"?>
<!DOCTYPE svg PUBLIC "-//W3C//DTD SVG 20010904//EN"
 "http://www.w3.org/TR/2001/REC-SVG-20010904/DTD/svg10.dtd">
<svg version="1.0" xmlns="http://www.w3.org/2000/svg"
 width="32.000000pt" height="32.000000pt" viewBox="0 0 32.000000 32.000000"
 preserveAspectRatio="xMidYMid meet">
<metadata>
Created by potrace 1.16, written by Peter Selinger 2001-2019
</metadata>
<g transform="translate(0.000000,32.000000) scale(0.100000,-0.100000)"
fill="#000000" stroke="none">
<path fill="#000000" stroke="none" d="M274 245 c-10 -8 -14 -15 -8 -15 6 0
17 7 24 15 16 19 9 19 -16 0z"/>
<path fill="#000000" stroke="none" d="M224 204 c-18 -14 -18 -15 6 -8 14 3
32 10 40 15 12 7 11 8 -6 9 -11 0 -29 -7 -40 -16z"/>
<path fill="#000000" stroke="none" d="M210 130 c13 -8 13 -10 -1 -10 -9 0
-23 -8 -30 -17 -8 -9 -9 -14 -2 -10 6 4 13 1 16 -5 3 -10 10 -8 26 6 16 15 18
22 10 33 -6 7 -17 13 -23 13 -6 0 -4 -5 4 -10z"/>
</g>
</svg>
