<?xml version="1.0" standalone="no"?>
<!DOCTYPE svg PUBLIC "-//W3C//DTD SVG 20010904//EN"
 "http://www.w3.org/TR/2001/REC-SVG-20010904/DTD/svg10.dtd">
<svg version="1.0" xmlns="http://www.w3.org/2000/svg"
 width="32.000000pt" height="32.000000pt" viewBox="0 0 32.000000 32.000000"
 preserveAspectRatio="xMidYMid meet">
<metadata>
Created by potrace 1.16, written by Peter Selinger 2001-2019
</metadata>
<g transform="translate(0.000000,32.000000) scale(0.100000,-0.100000)"
fill="#000000" stroke="none">
<path fill="#000000" stroke="none" d="M0 160 l0 -160 160 0 160 0 0 160 0
160 -160 0 -160 0 0 -160z"/>
<path fill="#ffffff" stroke="none" d="M130 285 c12 8 81 13 74 6 -2 -2 8 -12
23 -21 26 -16 29 -15 46 4 18 21 18 21 3 -5 -9 -14 -13 -29 -9 -32 3 -4 0 -7
-7 -7 -9 0 -7 -5 6 -15 14 -11 16 -15 4 -15 -11 0 -10 -4 5 -16 19 -15 19 -15
-6 -9 -16 4 -30 2 -33 -4 -4 -6 1 -11 11 -11 17 -1 17 -1 1 -14 -14 -10 -15
-15 -5 -25 9 -10 8 -12 -8 -11 -33 4 -46 0 -40 -10 3 -5 13 -6 21 -3 10 4 25
-4 40 -21 14 -14 21 -26 16 -26 -5 0 -17 9 -27 20 -24 27 -33 25 -28 -4 3 -13
0 -27 -6 -30 -7 -5 -10 1 -8 15 1 12 -3 24 -10 26 -7 3 -10 -3 -7 -15 3 -10
-2 -25 -12 -33 -16 -13 -16 -12 -6 7 8 16 8 24 0 32 -16 16 -28 15 -28 -2 0
-7 -6 -19 -14 -25 -12 -10 -13 -8 -9 11 9 37 23 50 40 37 7 -7 16 -9 20 -6 3
4 -6 16 -21 28 -14 11 -24 24 -22 28 3 4 -7 7 -22 8 -26 2 -27 2 -4 -8 32 -12
27 -53 -7 -57 -13 -2 -28 2 -32 10 -7 11 -9 10 -9 -1 0 -11 -5 -10 -20 4 -21
19 -27 69 -10 80 16 10 12 43 -8 55 -15 9 -14 10 6 5 15 -4 24 -1 28 9 3 9 10
13 15 10 6 -3 16 0 24 6 11 9 12 17 4 34 -10 20 -9 20 5 2 8 -10 20 -15 26
-11z"/>
<path fill="#ffffff" stroke="none" d="M276 123 c-11 -11 -17 4 -9 23 7 18 8
18 11 1 2 -10 1 -21 -2 -24z"/>
<path fill="#ffffff" stroke="none" d="M46 51 c-1 -22 -4 -27 -13 -19 -9 7
-10 16 -2 29 13 26 16 24 15 -10z"/>
<path fill="#ffffff" stroke="none" d="M83 50 c4 -17 3 -19 -9 -9 -8 6 -14 18
-14 26 0 20 16 8 23 -17z"/>
<path fill="#000000" stroke="none" d="M96 224 c-4 -9 -4 -19 -1 -22 2 -3 7 3
11 12 4 9 4 19 1 22 -2 3 -7 -3 -11 -12z"/>
<path fill="#000000" stroke="none" d="M128 213 c7 -3 16 -2 19 1 4 3 -2 6
-13 5 -11 0 -14 -3 -6 -6z"/>
<path fill="#000000" stroke="none" d="M190 190 c0 -5 7 -10 16 -10 8 0 12 5
9 10 -3 6 -10 10 -16 10 -5 0 -9 -4 -9 -10z"/>
<path fill="#000000" stroke="none" d="M50 169 c0 -5 5 -7 10 -4 6 3 10 8 10
11 0 2 -4 4 -10 4 -5 0 -10 -5 -10 -11z"/>
</g>
</svg>
