<?xml version="1.0" standalone="no"?>
<!DOCTYPE svg PUBLIC "-//W3C//DTD SVG 20010904//EN"
 "http://www.w3.org/TR/2001/REC-SVG-20010904/DTD/svg10.dtd">
<svg version="1.0" xmlns="http://www.w3.org/2000/svg"
 width="32.000000pt" height="32.000000pt" viewBox="0 0 32.000000 32.000000"
 preserveAspectRatio="xMidYMid meet">
<metadata>
Created by potrace 1.16, written by Peter Selinger 2001-2019
</metadata>
<g transform="translate(0.000000,32.000000) scale(0.100000,-0.100000)"
fill="#000000" stroke="none">
<path fill="#000000" stroke="none" d="M0 160 l0 -160 160 0 160 0 0 160 0
160 -160 0 -160 0 0 -160z"/>
<path fill="#ffffff" stroke="none" d="M99 301 c9 -6 21 -5 32 2 14 9 21 9 31
-1 8 -8 15 -8 24 -1 33 28 106 -14 75 -43 -9 -9 -12 -9 -7 -1 4 7 -2 17 -14
23 -33 18 -41 2 -14 -27 17 -19 24 -37 23 -58 -1 -16 1 -49 5 -72 5 -30 3 -50
-8 -71 -21 -40 -39 -52 -26 -17 6 15 9 59 8 99 -3 71 -4 73 -20 53 -10 -11
-18 -24 -18 -28 0 -16 -52 -22 -61 -8 -7 11 -9 11 -9 1 0 -7 -4 -11 -8 -8 -12
7 4 -89 18 -111 10 -16 11 -16 5 2 -4 11 -8 36 -11 55 -2 19 -1 27 2 18 7 -23
26 -24 22 -2 -2 10 3 19 9 21 18 6 8 -86 -11 -105 -12 -12 -16 -11 -30 11 -9
13 -20 44 -25 68 -5 25 -9 33 -9 19 -1 -14 2 -43 7 -66 7 -38 6 -41 -13 -40
-43 2 -58 133 -21 182 11 15 15 16 15 4 1 -8 7 3 15 25 13 35 13 42 -1 55 -15
13 -15 13 -9 -9 5 -16 4 -21 -4 -17 -18 12 -12 56 8 56 3 0 12 -4 20 -9z"/>
<path fill="#ffffff" stroke="none" d="M297 87 c-3 -33 -11 -55 -23 -64 -26
-19 -40 -16 -22 5 25 28 30 57 16 98 -7 22 -12 50 -10 64 4 23 5 23 24 -14 15
-30 19 -52 15 -89z"/>
<path fill="#ffffff" stroke="none" d="M196 75 c-9 -29 -20 -56 -24 -59 -9 -5
11 110 24 139 17 38 17 -20 0 -80z"/>
<path fill="#000000" stroke="none" d="M101 204 c0 -11 3 -14 6 -6 3 7 2 16
-1 19 -3 4 -6 -2 -5 -13z"/>
<path fill="#000000" stroke="none" d="M143 193 c-12 -13 -19 -23 -14 -23 10
0 46 39 40 43 -2 2 -14 -7 -26 -20z"/>
<path fill="#000000" stroke="none" d="M56 75 c4 -16 11 -37 15 -45 6 -10 7
-4 3 15 -4 17 -11 37 -15 45 -6 10 -7 4 -3 -15z"/>
</g>
</svg>
