<?xml version="1.0" standalone="no"?>
<!DOCTYPE svg PUBLIC "-//W3C//DTD SVG 20010904//EN"
 "http://www.w3.org/TR/2001/REC-SVG-20010904/DTD/svg10.dtd">
<svg version="1.0" xmlns="http://www.w3.org/2000/svg"
 width="32.000000pt" height="32.000000pt" viewBox="0 0 32.000000 32.000000"
 preserveAspectRatio="xMidYMid meet">
<metadata>
Created by potrace 1.16, written by Peter Selinger 2001-2019
</metadata>
<g transform="translate(0.000000,32.000000) scale(0.100000,-0.100000)"
fill="#000000" stroke="none">
<path fill="#000000" stroke="none" d="M0 160 l0 -160 160 0 160 0 0 160 0
160 -160 0 -160 0 0 -160z"/>
<path fill="#ffffff" stroke="none" d="M150 170 c0 -10 5 -22 10 -25 6 -4 7
-11 4 -17 -4 -7 -2 -8 5 -4 9 6 9 11 1 21 -7 9 -7 15 3 23 27 22 17 -34 -10
-59 -14 -13 -23 -19 -20 -13 4 7 1 17 -7 23 -16 13 -19 64 -3 54 6 -4 8 0 4
11 -4 10 -3 15 3 11 6 -3 10 -15 10 -25z"/>
<path fill="#000000" stroke="none" d="M130 136 c0 -2 8 -10 18 -17 15 -13 16
-12 3 4 -13 16 -21 21 -21 13z"/>
</g>
</svg>
