<?xml version="1.0" standalone="no"?>
<!DOCTYPE svg PUBLIC "-//W3C//DTD SVG 20010904//EN"
 "http://www.w3.org/TR/2001/REC-SVG-20010904/DTD/svg10.dtd">
<svg version="1.0" xmlns="http://www.w3.org/2000/svg"
 width="32.000000pt" height="32.000000pt" viewBox="0 0 32.000000 32.000000"
 preserveAspectRatio="xMidYMid meet">
<metadata>
Created by potrace 1.16, written by Peter Selinger 2001-2019
</metadata>
<g transform="translate(0.000000,32.000000) scale(0.100000,-0.100000)"
fill="#000000" stroke="none">
<path fill="#000000" stroke="none" d="M136 186 c3 -9 2 -16 -3 -16 -15 0 -13
-38 3 -50 7 -7 11 -17 8 -24 -4 -6 6 1 21 16 18 17 26 32 21 43 -3 9 -11 13
-16 10 -8 -5 -8 -11 0 -20 8 -10 8 -15 -1 -21 -7 -4 -9 -3 -5 4 3 6 2 13 -4
17 -5 3 -10 15 -10 25 0 10 -4 22 -10 25 -6 3 -7 -1 -4 -9z"/>
<path fill="#ffffff" stroke="none" d="M151 123 c13 -16 12 -17 -3 -4 -10 7
-18 15 -18 17 0 8 8 3 21 -13z"/>
</g>
</svg>
