<?xml version="1.0" standalone="no"?>
<!DOCTYPE svg PUBLIC "-//W3C//DTD SVG 20010904//EN"
 "http://www.w3.org/TR/2001/REC-SVG-20010904/DTD/svg10.dtd">
<svg version="1.0" xmlns="http://www.w3.org/2000/svg"
 width="32.000000pt" height="32.000000pt" viewBox="0 0 32.000000 32.000000"
 preserveAspectRatio="xMidYMid meet">
<metadata>
Created by potrace 1.16, written by Peter Selinger 2001-2019
</metadata>
<g transform="translate(0.000000,32.000000) scale(0.100000,-0.100000)"
fill="#000000" stroke="none">
<path fill="#000000" stroke="none" d="M156 274 c-5 -14 -9 -15 -15 -5 -10 16
-14 15 -51 -4 -35 -18 -39 -25 -10 -18 16 4 19 2 14 -11 -4 -10 -12 -15 -20
-12 -7 3 -18 -2 -24 -10 -10 -11 -9 -18 1 -31 13 -16 12 -17 -2 -5 -14 10 -18
10 -23 -3 -3 -8 0 -15 7 -15 7 0 21 -12 31 -27 9 -16 15 -20 12 -10 -5 15 -3
16 15 7 11 -6 17 -15 14 -21 -4 -5 1 -9 9 -9 8 0 17 4 20 8 3 5 18 7 35 6 17
-1 35 4 42 12 6 8 20 14 30 14 25 0 33 18 17 37 -14 17 -13 20 4 41 8 9 8 16
-1 25 -10 9 -12 9 -9 -3 2 -8 -3 -14 -9 -12 -14 2 -17 -10 -6 -22 14 -13 15
-58 1 -54 -7 3 -21 -5 -31 -16 -12 -14 -11 -10 3 12 16 24 19 37 12 44 -7 7
-7 19 -2 34 6 14 6 26 0 29 -6 4 -10 -1 -10 -9 0 -8 -8 -14 -19 -13 -14 1 -17
5 -11 12 6 8 5 18 -4 30 -12 17 -13 17 -20 -1z"/>
<path fill="#ffffff" stroke="none" d="M185 191 c3 -5 0 -13 -7 -17 -6 -4 -14
-2 -16 5 -3 9 -8 9 -20 -1 -15 -12 -16 -11 -3 5 15 19 36 22 46 8z"/>
</g>
</svg>
