<?xml version="1.0" standalone="no"?>
<!DOCTYPE svg PUBLIC "-//W3C//DTD SVG 20010904//EN"
 "http://www.w3.org/TR/2001/REC-SVG-20010904/DTD/svg10.dtd">
<svg version="1.0" xmlns="http://www.w3.org/2000/svg"
 width="32.000000pt" height="32.000000pt" viewBox="0 0 32.000000 32.000000"
 preserveAspectRatio="xMidYMid meet">
<metadata>
Created by potrace 1.16, written by Peter Selinger 2001-2019
</metadata>
<g transform="translate(0.000000,32.000000) scale(0.100000,-0.100000)"
fill="#000000" stroke="none">
<path fill="#000000" stroke="none" d="M0 160 l0 -160 160 0 160 0 0 160 0
160 -160 0 -160 0 0 -160z"/>
<path fill="#ffffff" stroke="none" d="M271 294 c24 -12 28 -18 19 -29 -7 -8
-9 -18 -6 -24 3 -5 -1 -12 -10 -15 -9 -4 -14 -13 -10 -21 3 -9 1 -15 -7 -14
-6 1 -21 -2 -32 -5 -18 -6 -20 -15 -18 -73 2 -69 16 -100 33 -73 11 17 13 9 4
-15 -6 -14 -8 -14 -25 1 -18 16 -19 16 -19 -2 0 -16 -2 -17 -10 -4 -8 12 -10
12 -10 1 0 -8 -3 -11 -7 -8 -3 4 2 16 11 26 18 19 15 51 -5 77 -16 20 -56 4
-73 -29 -16 -31 -16 -31 -11 -5 4 19 0 33 -12 45 -22 22 -19 61 3 43 10 -9 9
-3 -3 21 -9 19 -21 37 -26 40 -5 4 -2 11 8 16 11 7 14 13 7 17 -6 3 -13 2 -17
-4 -3 -5 -13 -10 -22 -10 -13 0 -13 3 -3 15 9 11 9 15 1 15 -7 0 -9 5 -6 10
11 17 33 11 90 -25 l55 -36 11 28 c10 28 35 53 51 53 5 0 23 -7 39 -16z"/>
<path fill="#ffffff" stroke="none" d="M77 23 c-3 -10 -5 -5 -5 12 0 17 2 24
5 18 2 -7 2 -21 0 -30z"/>
<path fill="#ffffff" stroke="none" d="M57 32 c0 -10 -7 -19 -14 -19 -16 0
-17 9 -1 25 16 16 17 15 15 -6z"/>
<path fill="#000000" stroke="none" d="M105 230 c-3 -5 -1 -10 4 -10 6 0 11 5
11 10 0 6 -2 10 -4 10 -3 0 -8 -4 -11 -10z"/>
<path fill="#000000" stroke="none" d="M155 191 c-3 -5 -1 -12 5 -16 5 -3 10
1 10 9 0 18 -6 21 -15 7z"/>
</g>
</svg>
