<?xml version="1.0" standalone="no"?>
<!DOCTYPE svg PUBLIC "-//W3C//DTD SVG 20010904//EN"
 "http://www.w3.org/TR/2001/REC-SVG-20010904/DTD/svg10.dtd">
<svg version="1.0" xmlns="http://www.w3.org/2000/svg"
 width="32.000000pt" height="32.000000pt" viewBox="0 0 32.000000 32.000000"
 preserveAspectRatio="xMidYMid meet">
<metadata>
Created by potrace 1.16, written by Peter Selinger 2001-2019
</metadata>
<g transform="translate(0.000000,32.000000) scale(0.100000,-0.100000)"
fill="#000000" stroke="none">
<path fill="#000000" stroke="none" d="M135 229 c-4 -6 -13 -8 -21 -5 -21 8
-29 -15 -11 -29 15 -11 15 -14 -4 -31 -33 -30 -41 -50 -24 -64 12 -10 17 -7
25 15 6 15 13 25 17 21 3 -3 -2 -24 -12 -46 -22 -49 -12 -67 28 -49 20 9 30 9
40 0 11 -9 25 -7 61 9 48 20 54 40 13 40 -21 1 -21 1 -3 15 10 8 24 12 30 8 6
-3 8 -2 3 2 -4 5 3 19 14 31 18 20 20 26 9 39 -12 14 -17 12 -47 -17 l-34 -33
-19 25 c-16 22 -17 25 -3 36 19 13 9 36 -11 28 -8 -3 -17 -1 -21 5 -3 6 -10
11 -15 11 -5 0 -12 -5 -15 -11z"/>
<path fill="#ffffff" stroke="none" d="M275 150 c-24 -26 -32 -18 -9 9 10 11
20 18 23 16 2 -3 -4 -14 -14 -25z"/>
</g>
</svg>
