<?xml version="1.0" standalone="no"?>
<!DOCTYPE svg PUBLIC "-//W3C//DTD SVG 20010904//EN"
 "http://www.w3.org/TR/2001/REC-SVG-20010904/DTD/svg10.dtd">
<svg version="1.0" xmlns="http://www.w3.org/2000/svg"
 width="32.000000pt" height="32.000000pt" viewBox="0 0 32.000000 32.000000"
 preserveAspectRatio="xMidYMid meet">
<metadata>
Created by potrace 1.16, written by Peter Selinger 2001-2019
</metadata>
<g transform="translate(0.000000,32.000000) scale(0.100000,-0.100000)"
fill="#000000" stroke="none">
<path fill="#000000" stroke="none" d="M60 284 c0 -18 23 -43 48 -52 25 -9 28
-7 28 12 -1 15 -11 25 -36 33 -41 15 -40 15 -40 7z"/>
<path fill="#000000" stroke="none" d="M162 270 c-14 -23 1 -36 18 -14 8 9 10
18 4 24 -6 6 -14 2 -22 -10z"/>
<path fill="#000000" stroke="none" d="M222 274 c-12 -8 -26 -24 -32 -34 -9
-18 -8 -18 20 -8 26 9 50 34 50 52 0 10 -15 6 -38 -10z"/>
<path fill="#000000" stroke="none" d="M153 164 c-28 -21 -31 -28 -22 -45 6
-13 18 -19 32 -17 30 4 28 30 -3 39 -22 6 -23 7 -4 8 13 1 24 9 27 21 3 11 4
20 4 20 -1 0 -17 -12 -34 -26z"/>
<path fill="#ffffff" stroke="none" d="M170 120 c0 -5 -4 -10 -10 -10 -5 0
-10 5 -10 10 0 6 5 10 10 10 6 0 10 -4 10 -10z"/>
<path fill="#000000" stroke="none" d="M110 99 c0 -18 40 -59 58 -59 6 0 9 7
6 15 -4 8 -10 13 -14 10 -5 -3 -18 7 -29 22 -14 19 -20 23 -21 12z"/>
<path fill="#000000" stroke="none" d="M195 79 c-4 -6 -5 -12 -2 -15 2 -3 7 2
10 11 7 17 1 20 -8 4z"/>
</g>
</svg>
