<?xml version="1.0" standalone="no"?>
<!DOCTYPE svg PUBLIC "-//W3C//DTD SVG 20010904//EN"
 "http://www.w3.org/TR/2001/REC-SVG-20010904/DTD/svg10.dtd">
<svg version="1.0" xmlns="http://www.w3.org/2000/svg"
 width="32.000000pt" height="32.000000pt" viewBox="0 0 32.000000 32.000000"
 preserveAspectRatio="xMidYMid meet">
<metadata>
Created by potrace 1.16, written by Peter Selinger 2001-2019
</metadata>
<g transform="translate(0.000000,32.000000) scale(0.100000,-0.100000)"
fill="#000000" stroke="none">
<path fill="#000000" stroke="none" d="M60 284 c0 -18 24 -43 50 -52 28 -10
29 -10 20 8 -15 29 -70 63 -70 44z"/>
<path fill="#000000" stroke="none" d="M135 280 c-4 -7 -1 -19 8 -27 19 -19
29 -3 12 20 -9 13 -15 15 -20 7z"/>
<path fill="#000000" stroke="none" d="M215 276 c-20 -7 -30 -18 -31 -32 0
-19 3 -21 28 -12 16 6 33 18 38 28 18 33 15 35 -35 16z"/>
<path fill="#000000" stroke="none" d="M153 190 c-58 -35 -66 -143 -11 -154
57 -13 59 -15 10 -12 -29 2 -55 -1 -58 -5 -3 -5 17 -9 45 -9 57 0 89 9 71 20
-9 6 -9 12 1 28 10 17 9 31 -7 86 l-20 65 -31 -19z"/>
<path fill="#ffffff" stroke="none" d="M193 128 c13 -20 -6 -48 -32 -48 -25 0
-45 38 -30 56 15 19 49 14 62 -8z"/>
<path fill="#000000" stroke="none" d="M134 129 c-3 -6 -2 -15 4 -21 12 -12
55 8 47 23 -8 12 -42 12 -51 -2z"/>
</g>
</svg>
