<?xml version="1.0" standalone="no"?>
<!DOCTYPE svg PUBLIC "-//W3C//DTD SVG 20010904//EN"
 "http://www.w3.org/TR/2001/REC-SVG-20010904/DTD/svg10.dtd">
<svg version="1.0" xmlns="http://www.w3.org/2000/svg"
 width="32.000000pt" height="32.000000pt" viewBox="0 0 32.000000 32.000000"
 preserveAspectRatio="xMidYMid meet">
<metadata>
Created by potrace 1.16, written by Peter Selinger 2001-2019
</metadata>
<g transform="translate(0.000000,32.000000) scale(0.100000,-0.100000)"
fill="#000000" stroke="none">
<path fill="#000000" stroke="none" d="M0 160 l0 -160 160 0 160 0 0 160 0
160 -160 0 -160 0 0 -160z"/>
<path fill="#ffffff" stroke="none" d="M181 247 c-6 -15 -15 -27 -20 -27 -14
0 -32 36 -23 45 7 6 8 11 11 37 1 8 9 4 21 -8 17 -17 19 -25 11 -47z"/>
<path fill="#ffffff" stroke="none" d="M101 275 c19 -8 30 -14 26 -15 -4 0 -3
-9 3 -20 9 -18 8 -18 -20 -8 -26 9 -50 34 -50 52 0 8 4 8 41 -9z"/>
<path fill="#ffffff" stroke="none" d="M260 284 c0 -18 -24 -43 -49 -52 -26
-9 -28 -8 -24 9 7 24 73 63 73 43z"/>
<path fill="#ffffff" stroke="none" d="M210 129 c12 -44 20 -83 18 -85 -2 -2
-22 -8 -44 -14 l-39 -9 45 4 c25 2 54 0 65 -5 13 -5 -21 -9 -95 -9 -78 0 -108
3 -92 9 12 5 22 15 22 21 0 7 9 48 21 91 20 74 23 78 49 78 26 0 29 -4 50 -81z"/>
<path fill="#000000" stroke="none" d="M125 130 c-9 -15 13 -40 35 -40 25 0
46 28 33 41 -8 8 -11 6 -10 -7 2 -14 -5 -19 -23 -19 -18 0 -25 5 -24 18 2 19
-2 22 -11 7z"/>
</g>
</svg>
