<?xml version="1.0" standalone="no"?>
<!DOCTYPE svg PUBLIC "-//W3C//DTD SVG 20010904//EN"
 "http://www.w3.org/TR/2001/REC-SVG-20010904/DTD/svg10.dtd">
<svg version="1.0" xmlns="http://www.w3.org/2000/svg"
 width="32.000000pt" height="32.000000pt" viewBox="0 0 32.000000 32.000000"
 preserveAspectRatio="xMidYMid meet">
<metadata>
Created by potrace 1.16, written by Peter Selinger 2001-2019
</metadata>
<g transform="translate(0.000000,32.000000) scale(0.100000,-0.100000)"
fill="#000000" stroke="none">
<path fill="#000000" stroke="none" d="M152 285 c-17 -21 -19 -31 -11 -46 17
-33 34 -24 43 23 7 42 -8 53 -32 23z"/>
<path fill="#000000" stroke="none" d="M60 284 c0 -18 24 -43 50 -52 28 -10
29 -10 20 8 -6 11 -7 20 -3 20 8 1 -55 30 -63 30 -2 0 -4 -3 -4 -6z"/>
<path fill="#000000" stroke="none" d="M219 275 c-15 -8 -29 -23 -32 -34 -4
-17 -2 -18 24 -9 16 6 34 18 39 28 18 34 11 38 -31 15z"/>
<path fill="#000000" stroke="none" d="M110 129 c-12 -44 -19 -84 -15 -87 9
-9 121 -9 130 0 4 3 -3 43 -15 87 -21 77 -24 81 -50 81 -26 0 -29 -4 -50 -81z"/>
<path fill="#ffffff" stroke="none" d="M190 135 c15 -18 -2 -45 -30 -45 -28 0
-45 27 -30 45 16 19 44 19 60 0z"/>
<path fill="#000000" stroke="none" d="M135 130 c-4 -7 -3 -16 3 -22 14 -14
47 -6 47 12 0 18 -40 26 -50 10z"/>
<path fill="#000000" stroke="none" d="M64 19 c-10 -4 32 -8 95 -8 63 -1 111
2 108 5 -9 10 -181 12 -203 3z"/>
</g>
</svg>
