<?xml version="1.0" standalone="no"?>
<!DOCTYPE svg PUBLIC "-//W3C//DTD SVG 20010904//EN"
 "http://www.w3.org/TR/2001/REC-SVG-20010904/DTD/svg10.dtd">
<svg version="1.0" xmlns="http://www.w3.org/2000/svg"
 width="32.000000pt" height="32.000000pt" viewBox="0 0 32.000000 32.000000"
 preserveAspectRatio="xMidYMid meet">
<metadata>
Created by potrace 1.16, written by Peter Selinger 2001-2019
</metadata>
<g transform="translate(0.000000,32.000000) scale(0.100000,-0.100000)"
fill="#000000" stroke="none">
<path fill="#000000" stroke="none" d="M60 284 c0 -18 24 -43 50 -52 28 -10
29 -10 20 8 -15 29 -70 63 -70 44z"/>
<path fill="#000000" stroke="none" d="M135 280 c-4 -7 -1 -19 8 -27 19 -19
29 -3 12 20 -9 13 -15 15 -20 7z"/>
<path fill="#000000" stroke="none" d="M215 276 c-20 -7 -30 -18 -31 -32 0
-19 3 -21 28 -12 16 6 33 18 38 28 18 33 15 35 -35 16z"/>
<path fill="#000000" stroke="none" d="M150 162 c-33 -29 -30 -49 6 -35 16 6
16 7 -2 14 -18 7 -18 8 2 8 13 1 24 9 27 21 6 25 8 25 -33 -8z"/>
<path fill="#000000" stroke="none" d="M110 99 c0 -18 40 -59 58 -59 6 0 9 7
6 15 -4 8 -10 13 -14 10 -5 -3 -18 7 -29 22 -14 19 -20 23 -21 12z"/>
<path fill="#000000" stroke="none" d="M195 79 c-4 -6 -5 -12 -2 -15 2 -3 7 2
10 11 7 17 1 20 -8 4z"/>
</g>
</svg>
