<?xml version="1.0" standalone="no"?>
<!DOCTYPE svg PUBLIC "-//W3C//DTD SVG 20010904//EN"
 "http://www.w3.org/TR/2001/REC-SVG-20010904/DTD/svg10.dtd">
<svg version="1.0" xmlns="http://www.w3.org/2000/svg"
 width="32.000000pt" height="32.000000pt" viewBox="0 0 32.000000 32.000000"
 preserveAspectRatio="xMidYMid meet">
<metadata>
Created by potrace 1.16, written by Peter Selinger 2001-2019
</metadata>
<g transform="translate(0.000000,32.000000) scale(0.100000,-0.100000)"
fill="#000000" stroke="none">
<path fill="#000000" stroke="none" d="M19 293 c-13 -14 -18 -23 -11 -19 8 5
12 -1 12 -17 0 -14 7 -30 15 -37 13 -11 15 -8 15 22 0 19 -5 39 -12 46 -9 9
-7 12 9 12 12 0 29 -10 37 -22 15 -22 16 -22 16 -2 0 11 5 25 12 32 9 9 3 12
-28 12 -31 0 -46 -6 -65 -27z"/>
<path fill="#000000" stroke="none" d="M232 290 c13 -17 35 -46 51 -64 l27
-34 -25 -19 c-23 -16 -24 -21 -15 -52 9 -32 24 -50 43 -51 4 0 7 44 7 98 0 95
-1 99 -28 125 -17 16 -39 27 -56 27 l-28 0 24 -30z"/>
<path fill="#000000" stroke="none" d="M137 273 c4 -11 8 -13 11 -5 2 7 9 9
14 6 7 -4 8 -2 4 4 -12 19 -36 15 -29 -5z"/>
<path fill="#000000" stroke="none" d="M99 227 c15 -19 41 -23 41 -7 0 6 -4
10 -9 10 -5 0 -18 3 -28 7 -16 6 -16 5 -4 -10z"/>
<path fill="#000000" stroke="none" d="M168 233 c-10 -2 -18 -9 -18 -14 0 -14
26 -11 40 6 13 15 9 16 -22 8z"/>
<path fill="#000000" stroke="none" d="M232 195 c3 -28 13 -32 34 -10 13 12
12 15 -5 25 -28 14 -31 13 -29 -15z"/>
<path fill="#000000" stroke="none" d="M0 144 c0 -39 2 -73 5 -76 3 -3 19 7
34 21 28 25 29 27 11 46 -10 11 -25 34 -33 50 -16 30 -16 30 -17 -41z"/>
<path fill="#000000" stroke="none" d="M203 195 c0 -8 4 -12 9 -9 5 3 6 10 3
15 -9 13 -12 11 -12 -6z"/>
<path fill="#000000" stroke="none" d="M127 138 c14 -16 18 -16 44 -2 16 8 29
16 29 17 0 1 -20 2 -44 2 -41 0 -43 -1 -29 -17z"/>
<path fill="#000000" stroke="none" d="M231 143 c7 -12 15 -20 18 -17 3 2 -3
12 -13 22 -17 16 -18 16 -5 -5z"/>
<path fill="#000000" stroke="none" d="M44 86 c-10 -8 -15 -18 -11 -22 4 -4
15 0 24 9 22 21 12 31 -13 13z"/>
<path fill="#000000" stroke="none" d="M76 74 c-7 -18 0 -34 15 -34 5 0 9 11
9 25 0 28 -15 34 -24 9z"/>
<path fill="#000000" stroke="none" d="M192 65 c6 -14 15 -25 20 -25 12 0 9
12 -6 33 -19 25 -27 21 -14 -8z"/>
<path fill="#000000" stroke="none" d="M65 20 c-3 -5 1 -10 9 -10 8 0 18 5 21
10 3 6 -1 10 -9 10 -8 0 -18 -4 -21 -10z"/>
<path fill="#000000" stroke="none" d="M198 18 c9 -9 15 -9 24 0 9 9 7 12 -12
12 -19 0 -21 -3 -12 -12z"/>
<path fill="#000000" stroke="none" d="M150 10 c-12 -8 -10 -10 8 -10 13 0 20
4 17 10 -7 12 -6 12 -25 0z"/>
</g>
</svg>
