<?xml version="1.0" standalone="no"?>
<!DOCTYPE svg PUBLIC "-//W3C//DTD SVG 20010904//EN"
 "http://www.w3.org/TR/2001/REC-SVG-20010904/DTD/svg10.dtd">
<svg version="1.0" xmlns="http://www.w3.org/2000/svg"
 width="32.000000pt" height="32.000000pt" viewBox="0 0 32.000000 32.000000"
 preserveAspectRatio="xMidYMid meet">
<metadata>
Created by potrace 1.16, written by Peter Selinger 2001-2019
</metadata>
<g transform="translate(0.000000,32.000000) scale(0.100000,-0.100000)"
fill="#000000" stroke="none">
<path fill="#000000" stroke="none" d="M51 256 c-7 -8 -11 -27 -9 -43 2 -23 8
-28 30 -28 14 1 24 -3 22 -7 -7 -12 90 -10 102 2 6 6 19 4 38 -5 37 -19 43
-19 56 4 12 24 -1 66 -25 75 -9 3 -25 1 -36 -4 -13 -8 -38 -6 -84 5 -81 18
-80 18 -94 1z"/>
<path fill="#ffffff" stroke="none" d="M78 219 c-5 -35 -28 -36 -28 -1 0 16 3
32 7 36 11 11 25 -10 21 -35z"/>
<path fill="#000000" stroke="none" d="M195 158 c-5 -15 -10 -17 -21 -7 -11 9
-14 8 -14 -5 0 -10 -4 -14 -10 -11 -17 11 -11 -17 8 -32 9 -8 11 -12 5 -8 -9
4 -13 -1 -13 -15 0 -13 4 -19 12 -14 7 4 8 3 4 -4 -7 -11 14 -18 39 -12 6 1
19 4 29 6 28 5 39 19 41 53 2 25 -1 31 -16 31 -11 0 -19 6 -19 14 0 23 -38 27
-45 4z"/>
<path fill="#000000" stroke="none" d="M108 152 c-10 -2 -18 -10 -18 -18 0 -8
-8 -14 -19 -14 -15 0 -18 -6 -16 -31 2 -34 13 -48 41 -53 10 -2 24 -5 29 -6 6
-1 18 -2 29 -1 16 1 17 3 5 17 -8 9 -18 38 -24 63 -8 36 -14 46 -27 43z"/>
</g>
</svg>
