<?xml version="1.0" standalone="no"?>
<!DOCTYPE svg PUBLIC "-//W3C//DTD SVG 20010904//EN"
 "http://www.w3.org/TR/2001/REC-SVG-20010904/DTD/svg10.dtd">
<svg version="1.0" xmlns="http://www.w3.org/2000/svg"
 width="32.000000pt" height="32.000000pt" viewBox="0 0 32.000000 32.000000"
 preserveAspectRatio="xMidYMid meet">
<metadata>
Created by potrace 1.16, written by Peter Selinger 2001-2019
</metadata>
<g transform="translate(0.000000,32.000000) scale(0.100000,-0.100000)"
fill="#000000" stroke="none">
<path fill="#000000" stroke="none" d="M66 281 c-10 -10 -16 -25 -15 -33 1 -7
-1 -21 -6 -32 -5 -11 -3 -21 5 -26 16 -10 3 -31 -17 -28 -9 2 -18 -2 -20 -9
-6 -17 35 -27 52 -13 8 7 15 9 15 5 0 -4 6 -2 14 4 11 9 15 8 21 -6 6 -17 7
-17 19 -1 7 9 17 13 24 9 9 -5 5 -14 -13 -31 -14 -13 -25 -31 -25 -41 0 -24
38 -49 75 -49 24 0 27 -2 15 -11 -13 -9 -13 -10 0 -6 33 9 15 36 -35 52 -17 6
-15 9 20 28 22 11 46 21 54 21 8 1 18 13 24 29 13 39 -17 87 -71 112 -23 12
-47 26 -54 33 -18 18 -63 14 -82 -7z"/>
<path fill="#ffffff" stroke="none" d="M146 279 c3 -6 26 -19 49 -29 24 -10
49 -29 55 -41 9 -15 9 -19 1 -14 -6 3 -19 -3 -29 -15 -14 -17 -21 -19 -42 -11
-14 5 -19 10 -12 10 6 1 12 8 12 16 0 8 5 15 11 15 6 0 9 -9 6 -20 -3 -11 -1
-18 4 -14 10 6 12 47 3 57 -9 9 -74 -60 -75 -81 -1 -15 -2 -15 -6 0 -6 23 -33
32 -34 10 0 -12 -3 -9 -10 8 -8 19 -6 27 7 37 19 14 38 8 28 -9 -4 -7 -2 -8 5
-4 6 4 9 12 6 17 -4 5 1 9 9 9 21 0 21 36 0 44 -33 13 -49 5 -21 -10 33 -18
34 -21 5 -18 -13 1 -31 3 -40 3 -21 1 -24 21 -6 39 15 15 65 16 74 1z"/>
<path fill="#ffffff" stroke="none" d="M77 213 c-9 -9 -19 -14 -23 -11 -10 10
6 28 24 28 15 0 15 -1 -1 -17z"/>
<path fill="#ffffff" stroke="none" d="M254 165 c3 -8 1 -15 -4 -15 -6 0 -10
7 -10 15 0 8 2 15 4 15 2 0 6 -7 10 -15z"/>
<path fill="#ffffff" stroke="none" d="M50 146 c-7 -7 -13 -7 -20 0 -6 6 -3
10 10 10 13 0 16 -4 10 -10z"/>
<path fill="#ffffff" stroke="none" d="M247 137 c3 -4 -8 -5 -24 -3 -34 5 -68
-18 -82 -54 -9 -23 -10 -24 -10 -3 -2 42 88 88 116 60z"/>
<path fill="#ffffff" stroke="none" d="M200 106 c0 -2 -7 -7 -16 -10 -8 -3
-12 -2 -9 4 6 10 25 14 25 6z"/>
</g>
</svg>
