<?xml version="1.0" standalone="no"?>
<!DOCTYPE svg PUBLIC "-//W3C//DTD SVG 20010904//EN"
 "http://www.w3.org/TR/2001/REC-SVG-20010904/DTD/svg10.dtd">
<svg version="1.0" xmlns="http://www.w3.org/2000/svg"
 width="32.000000pt" height="32.000000pt" viewBox="0 0 32.000000 32.000000"
 preserveAspectRatio="xMidYMid meet">
<metadata>
Created by potrace 1.16, written by Peter Selinger 2001-2019
</metadata>
<g transform="translate(0.000000,32.000000) scale(0.100000,-0.100000)"
fill="#000000" stroke="none">
<path fill="#000000" stroke="none" d="M21 303 c0 -5 14 -19 32 -32 18 -14 29
-21 25 -16 -4 4 -4 13 2 19 10 14 -5 44 -17 33 -4 -5 -1 -12 7 -17 13 -8 12
-10 -3 -10 -10 0 -20 7 -23 15 -6 15 -24 21 -23 8z"/>
<path fill="#000000" stroke="none" d="M160 300 c0 -5 5 -10 10 -10 6 0 10 5
10 10 0 6 -4 10 -10 10 -5 0 -10 -4 -10 -10z"/>
<path fill="#000000" stroke="none" d="M190 289 c0 -20 -1 -20 -24 -6 -26 17
-36 13 -36 -14 0 -10 -9 -21 -20 -24 -11 -3 -20 -13 -20 -20 0 -19 -17 -28
-26 -14 -4 8 -3 9 4 5 7 -4 12 -1 12 9 0 12 -5 15 -16 11 -9 -3 -18 -6 -20 -6
-12 0 -2 -21 15 -29 14 -8 26 -3 56 24 26 24 35 40 31 52 -5 15 -4 15 9 -1 8
-11 15 -17 15 -13 0 4 17 -3 37 -17 20 -14 41 -22 47 -19 6 4 4 8 -4 11 -43
11 -59 25 -50 43 13 23 12 29 0 29 -5 0 -10 -10 -10 -21z"/>
<path fill="#000000" stroke="none" d="M100 289 c0 -5 5 -7 10 -4 6 3 10 8 10
11 0 2 -4 4 -10 4 -5 0 -10 -5 -10 -11z"/>
<path fill="#000000" stroke="none" d="M90 260 c0 -5 5 -10 10 -10 6 0 10 5
10 10 0 6 -4 10 -10 10 -5 0 -10 -4 -10 -10z"/>
<path fill="#000000" stroke="none" d="M220 260 c0 -5 5 -10 10 -10 6 0 10 5
10 10 0 6 -4 10 -10 10 -5 0 -10 -4 -10 -10z"/>
<path fill="#000000" stroke="none" d="M40 250 c0 -5 5 -10 10 -10 6 0 10 5
10 10 0 6 -4 10 -10 10 -5 0 -10 -4 -10 -10z"/>
<path fill="#000000" stroke="none" d="M14 239 c-3 -6 -1 -16 5 -22 8 -8 11
-5 11 11 0 24 -5 28 -16 11z"/>
<path fill="#000000" stroke="none" d="M149 228 c-1 -7 -1 -16 0 -20 2 -12
-14 -9 -27 4 -8 8 -12 9 -12 1 0 -6 6 -13 13 -16 16 -5 -9 -37 -30 -37 -19 0
-8 -16 16 -23 14 -3 18 -1 14 10 -7 18 31 54 51 47 8 -3 19 3 25 15 14 25 14
31 1 31 -5 0 -10 -6 -10 -13 0 -7 -10 -13 -22 -14 -13 0 -17 1 -10 4 14 6 16
23 2 23 -5 0 -11 -6 -11 -12z"/>
<path fill="#000000" stroke="none" d="M210 190 c0 -5 5 -10 10 -10 6 0 10 5
10 10 0 6 -4 10 -10 10 -5 0 -10 -4 -10 -10z"/>
<path fill="#000000" stroke="none" d="M90 180 c0 -5 5 -10 10 -10 6 0 10 5
10 10 0 6 -4 10 -10 10 -5 0 -10 -4 -10 -10z"/>
<path fill="#000000" stroke="none" d="M152 178 c-17 -17 -15 -33 3 -18 13 10
15 9 15 -9 0 -12 4 -20 9 -17 10 6 3 43 -9 51 -4 2 -12 -1 -18 -7z"/>
<path fill="#000000" stroke="none" d="M194 170 c0 -11 5 -21 11 -21 16 -1 17
17 2 30 -12 9 -14 7 -13 -9z"/>
<path fill="#000000" stroke="none" d="M244 169 c-19 -22 -19 -22 4 -10 12 6
22 16 22 21 0 15 -5 12 -26 -11z"/>
<path fill="#000000" stroke="none" d="M60 135 c7 -9 15 -13 17 -11 7 7 -7 26
-19 26 -6 0 -6 -6 2 -15z"/>
</g>
</svg>
