<?xml version="1.0" standalone="no"?>
<!DOCTYPE svg PUBLIC "-//W3C//DTD SVG 20010904//EN"
 "http://www.w3.org/TR/2001/REC-SVG-20010904/DTD/svg10.dtd">
<svg version="1.0" xmlns="http://www.w3.org/2000/svg"
 width="32.000000pt" height="32.000000pt" viewBox="0 0 32.000000 32.000000"
 preserveAspectRatio="xMidYMid meet">
<metadata>
Created by potrace 1.16, written by Peter Selinger 2001-2019
</metadata>
<g transform="translate(0.000000,32.000000) scale(0.100000,-0.100000)"
fill="#000000" stroke="none">
<path fill="#000000" stroke="none" d="M0 160 l0 -160 160 0 160 0 0 160 0
160 -160 0 -160 0 0 -160z"/>
<path fill="#ffffff" stroke="none" d="M44 295 c3 -8 13 -15 23 -15 15 0 16 2
3 10 -8 5 -11 12 -7 17 12 11 27 -19 17 -33 -6 -6 -6 -15 -2 -19 4 -5 -7 2
-25 16 -32 24 -41 39 -24 39 5 0 11 -7 15 -15z"/>
<path fill="#ffffff" stroke="none" d="M180 300 c0 -5 -4 -10 -10 -10 -5 0
-10 5 -10 10 0 6 5 10 10 10 6 0 10 -4 10 -10z"/>
<path fill="#ffffff" stroke="none" d="M210 304 c0 -3 -4 -13 -10 -23 -9 -18
7 -32 50 -43 8 -3 10 -7 4 -11 -6 -3 -27 5 -47 19 -20 14 -37 21 -37 17 0 -4
-7 2 -15 13 -13 16 -14 16 -9 1 4 -12 -5 -28 -31 -52 -30 -27 -42 -32 -56 -24
-17 8 -27 29 -15 29 2 0 11 3 20 6 11 4 16 1 16 -11 0 -10 -5 -13 -12 -9 -7 4
-8 3 -4 -5 9 -14 26 -5 26 14 0 7 9 17 20 20 11 3 20 14 20 24 0 27 10 31 36
14 23 -14 24 -14 24 6 0 11 5 21 10 21 6 0 10 -3 10 -6z"/>
<path fill="#ffffff" stroke="none" d="M120 296 c0 -3 -4 -8 -10 -11 -5 -3
-10 -1 -10 4 0 6 5 11 10 11 6 0 10 -2 10 -4z"/>
<path fill="#ffffff" stroke="none" d="M110 260 c0 -5 -4 -10 -10 -10 -5 0
-10 5 -10 10 0 6 5 10 10 10 6 0 10 -4 10 -10z"/>
<path fill="#ffffff" stroke="none" d="M240 260 c0 -5 -4 -10 -10 -10 -5 0
-10 5 -10 10 0 6 5 10 10 10 6 0 10 -4 10 -10z"/>
<path fill="#ffffff" stroke="none" d="M60 250 c0 -5 -4 -10 -10 -10 -5 0 -10
5 -10 10 0 6 5 10 10 10 6 0 10 -4 10 -10z"/>
<path fill="#ffffff" stroke="none" d="M30 228 c0 -16 -3 -19 -11 -11 -6 6 -8
16 -5 22 11 17 16 13 16 -11z"/>
<path fill="#ffffff" stroke="none" d="M170 231 c0 -5 -6 -11 -12 -14 -7 -3
-3 -4 10 -4 12 1 22 7 22 14 0 7 5 13 10 13 13 0 13 -6 -1 -31 -6 -12 -17 -18
-25 -15 -20 7 -58 -29 -51 -47 4 -11 0 -13 -14 -10 -24 7 -35 23 -16 23 21 0
46 32 30 37 -7 3 -13 10 -13 16 0 8 4 7 12 -1 13 -13 29 -16 27 -4 -3 18 2 32
11 32 6 0 10 -4 10 -9z"/>
<path fill="#ffffff" stroke="none" d="M230 190 c0 -5 -4 -10 -10 -10 -5 0
-10 5 -10 10 0 6 5 10 10 10 6 0 10 -4 10 -10z"/>
<path fill="#ffffff" stroke="none" d="M110 180 c0 -5 -4 -10 -10 -10 -5 0
-10 5 -10 10 0 6 5 10 10 10 6 0 10 -4 10 -10z"/>
<path fill="#ffffff" stroke="none" d="M183 160 c3 -11 1 -23 -4 -26 -5 -3 -9
5 -9 17 0 18 -2 19 -15 9 -18 -15 -20 1 -3 18 14 14 24 8 31 -18z"/>
<path fill="#ffffff" stroke="none" d="M218 158 c-6 -17 -23 -9 -24 12 -1 16
1 18 13 9 7 -7 12 -16 11 -21z"/>
<path fill="#ffffff" stroke="none" d="M270 180 c0 -5 -10 -15 -22 -21 -23
-12 -23 -12 -4 10 21 23 26 26 26 11z"/>
<path fill="#ffffff" stroke="none" d="M75 139 c11 -17 -1 -21 -15 -4 -8 9 -8
15 -2 15 6 0 14 -5 17 -11z"/>
</g>
</svg>
