<?xml version="1.0" standalone="no"?>
<!DOCTYPE svg PUBLIC "-//W3C//DTD SVG 20010904//EN"
 "http://www.w3.org/TR/2001/REC-SVG-20010904/DTD/svg10.dtd">
<svg version="1.0" xmlns="http://www.w3.org/2000/svg"
 width="32.000000pt" height="32.000000pt" viewBox="0 0 32.000000 32.000000"
 preserveAspectRatio="xMidYMid meet">
<metadata>
Created by potrace 1.16, written by Peter Selinger 2001-2019
</metadata>
<g transform="translate(0.000000,32.000000) scale(0.100000,-0.100000)"
fill="#000000" stroke="none">
<path fill="#000000" stroke="none" d="M100 291 c13 -25 14 -25 40 -9 16 10
24 10 40 0 26 -16 27 -16 40 9 11 19 10 20 -10 9 -16 -9 -25 -8 -36 1 -11 9
-17 9 -28 0 -11 -9 -20 -10 -36 -1 -20 11 -21 10 -10 -9z"/>
<path fill="#000000" stroke="none" d="M131 253 c-56 -39 -89 -133 -50 -139
12 -1 15 4 11 19 -3 13 -1 18 6 13 8 -5 10 -2 6 9 -4 9 1 24 10 34 32 35 113
10 103 -31 -3 -11 -1 -15 6 -11 6 4 8 -1 5 -14 -4 -15 -1 -20 11 -19 40 6 4
102 -53 139 -30 20 -25 20 -55 0z"/>
<path fill="#ffffff" stroke="none" d="M184 241 c3 -4 -6 -6 -19 -3 -14 2 -25
6 -25 8 0 8 39 4 44 -5z"/>
<path fill="#ffffff" stroke="none" d="M82 143 c-3 -16 -7 -22 -10 -15 -4 13
4 42 11 42 2 0 2 -12 -1 -27z"/>
<path fill="#ffffff" stroke="none" d="M248 134 c-3 -14 -5 -12 -10 9 -3 19
-2 25 4 19 6 -6 8 -18 6 -28z"/>
<path fill="#000000" stroke="none" d="M136 189 c-4 -9 -6 -20 -4 -25 1 -5 -6
-24 -16 -43 -14 -26 -16 -39 -7 -57 8 -18 7 -22 -3 -18 -7 3 -18 -1 -24 -9 -9
-11 -8 -14 3 -14 8 0 15 4 15 9 0 4 5 7 11 6 6 -2 18 21 27 50 14 49 32 70 32
36 0 -8 4 -12 10 -9 5 3 8 0 5 -7 -7 -20 11 -73 24 -70 6 1 11 -2 11 -6 0 -5
7 -9 15 -9 21 0 -2 27 -24 28 -10 0 -11 2 -3 6 17 7 15 28 -5 66 -9 18 -16 36
-15 41 2 5 0 16 -3 24 -4 11 -8 12 -19 3 -11 -9 -15 -9 -19 1 -3 10 -6 9 -11
-3z"/>
</g>
</svg>
