<?xml version="1.0" standalone="no"?>
<!DOCTYPE svg PUBLIC "-//W3C//DTD SVG 20010904//EN"
 "http://www.w3.org/TR/2001/REC-SVG-20010904/DTD/svg10.dtd">
<svg version="1.0" xmlns="http://www.w3.org/2000/svg"
 width="32.000000pt" height="32.000000pt" viewBox="0 0 32.000000 32.000000"
 preserveAspectRatio="xMidYMid meet">
<metadata>
Created by potrace 1.16, written by Peter Selinger 2001-2019
</metadata>
<g transform="translate(0.000000,32.000000) scale(0.100000,-0.100000)"
fill="#000000" stroke="none">
<path fill="#000000" stroke="none" d="M0 160 l0 -160 160 0 160 0 0 160 0
160 -160 0 -160 0 0 -160z"/>
<path fill="#ffffff" stroke="none" d="M171 283 c13 -16 12 -17 -3 -4 -10 7
-18 15 -18 17 0 8 8 3 21 -13z"/>
<path fill="#ffffff" stroke="none" d="M58 221 c-7 -11 -16 -17 -21 -14 -4 3
0 11 10 19 24 18 25 17 11 -5z"/>
<path fill="#ffffff" stroke="none" d="M154 198 c-4 -5 -9 -7 -12 -4 -3 4 -16
-1 -30 -10 -19 -13 -27 -13 -36 -3 -8 9 -8 10 1 5 7 -4 22 -1 33 7 22 15 52
19 44 5z"/>
</g>
</svg>
