<?xml version="1.0" standalone="no"?>
<!DOCTYPE svg PUBLIC "-//W3C//DTD SVG 20010904//EN"
 "http://www.w3.org/TR/2001/REC-SVG-20010904/DTD/svg10.dtd">
<svg version="1.0" xmlns="http://www.w3.org/2000/svg"
 width="32.000000pt" height="32.000000pt" viewBox="0 0 32.000000 32.000000"
 preserveAspectRatio="xMidYMid meet">
<metadata>
Created by potrace 1.16, written by Peter Selinger 2001-2019
</metadata>
<g transform="translate(0.000000,32.000000) scale(0.100000,-0.100000)"
fill="#000000" stroke="none">
<path fill="#000000" stroke="none" d="M0 294 c0 -26 1 -26 13 -9 9 11 19 15
27 10 8 -5 11 -3 8 6 -3 8 -14 15 -26 17 -18 3 -22 -2 -22 -24z"/>
<path fill="#000000" stroke="none" d="M245 310 c3 -5 15 -10 25 -10 10 0 22
5 25 10 4 6 -7 10 -25 10 -18 0 -29 -4 -25 -10z"/>
<path fill="#000000" stroke="none" d="M1 244 c0 -11 3 -14 6 -6 3 7 2 16 -1
19 -3 4 -6 -2 -5 -13z"/>
<path fill="#000000" stroke="none" d="M313 225 c0 -22 2 -30 4 -17 2 12 2 30
0 40 -3 9 -5 -1 -4 -23z"/>
<path fill="#000000" stroke="none" d="M295 160 c-11 -12 -19 -37 -19 -63 -1
-23 -5 -44 -11 -45 -5 -2 -15 -8 -22 -13 -7 -7 -14 -6 -18 1 -4 7 -11 5 -21
-5 -17 -17 -52 -19 -74 -5 -9 5 -19 5 -27 -2 -22 -18 -53 19 -53 62 0 26 -7
43 -25 60 l-25 23 0 -86 0 -87 160 0 160 0 0 90 c0 50 -2 90 -3 90 -2 0 -12
-9 -22 -20z"/>
</g>
</svg>
