<?xml version="1.0" standalone="no"?>
<!DOCTYPE svg PUBLIC "-//W3C//DTD SVG 20010904//EN"
 "http://www.w3.org/TR/2001/REC-SVG-20010904/DTD/svg10.dtd">
<svg version="1.0" xmlns="http://www.w3.org/2000/svg"
 width="32.000000pt" height="32.000000pt" viewBox="0 0 32.000000 32.000000"
 preserveAspectRatio="xMidYMid meet">
<metadata>
Created by potrace 1.16, written by Peter Selinger 2001-2019
</metadata>
<g transform="translate(0.000000,32.000000) scale(0.100000,-0.100000)"
fill="#000000" stroke="none">
<path fill="#000000" stroke="none" d="M60 293 c0 -10 -6 -12 -20 -8 -11 3
-20 3 -21 -2 0 -4 -2 -31 -5 -58 -4 -44 -1 -54 20 -74 20 -19 27 -21 46 -11
19 10 21 19 18 60 -2 39 0 50 14 53 9 3 18 13 21 23 2 11 3 8 2 -6 -3 -22 19
-80 30 -80 11 0 29 48 29 80 l1 35 -67 2 c-54 1 -68 -2 -68 -14z"/>
<path fill="#ffffff" stroke="none" d="M170 289 c0 8 2 12 5 9 3 -3 2 -13 -1
-22 -5 -14 -9 -15 -15 -4 -5 7 -9 18 -9 23 0 6 5 3 10 -5 8 -12 10 -12 10 -1z"/>
<path fill="#000000" stroke="none" d="M215 296 c-21 -15 -14 -46 11 -46 13 0
14 -3 4 -15 -14 -17 -6 -50 10 -40 5 3 10 18 10 32 0 22 3 24 25 19 20 -5 26
-2 31 19 8 32 1 40 -23 27 -13 -8 -22 -7 -34 4 -13 12 -18 12 -34 0z"/>
<path fill="#000000" stroke="none" d="M112 193 c-2 -38 1 -44 27 -58 18 -9
32 -11 36 -5 3 5 -8 16 -24 25 -22 11 -31 24 -34 47 -3 29 -4 28 -5 -9z"/>
<path fill="#000000" stroke="none" d="M197 195 c-4 -11 -10 -27 -13 -35 -5
-12 -3 -12 11 1 9 9 15 25 13 35 -4 18 -4 18 -11 -1z"/>
<path fill="#000000" stroke="none" d="M230 163 c-26 -29 -30 -73 -6 -73 21 0
50 26 38 34 -7 4 0 17 21 36 l32 29 -30 1 c-20 0 -38 -9 -55 -27z"/>
<path fill="#000000" stroke="none" d="M76 124 c-11 -11 -14 -20 -8 -26 16
-16 47 -5 47 16 0 26 -19 31 -39 10z"/>
</g>
</svg>
