<?xml version="1.0" standalone="no"?>
<!DOCTYPE svg PUBLIC "-//W3C//DTD SVG 20010904//EN"
 "http://www.w3.org/TR/2001/REC-SVG-20010904/DTD/svg10.dtd">
<svg version="1.0" xmlns="http://www.w3.org/2000/svg"
 width="32.000000pt" height="32.000000pt" viewBox="0 0 32.000000 32.000000"
 preserveAspectRatio="xMidYMid meet">
<metadata>
Created by potrace 1.16, written by Peter Selinger 2001-2019
</metadata>
<g transform="translate(0.000000,32.000000) scale(0.100000,-0.100000)"
fill="#000000" stroke="none">
<path fill="#000000" stroke="none" d="M0 160 l0 -160 160 0 160 0 0 160 0
160 -160 0 -160 0 0 -160z"/>
<path fill="#ffffff" stroke="none" d="M214 299 c-5 -9 17 -13 46 -9 8 1 11
-2 7 -6 -4 -4 3 -14 15 -21 l23 -12 -25 -1 c-21 -1 -23 -2 -10 -13 8 -7 17
-21 18 -32 2 -11 1 -17 -4 -13 -11 11 -34 -12 -34 -34 0 -10 -4 -17 -9 -13
-11 6 -31 -55 -31 -95 0 -20 -2 -22 -10 -10 -8 12 -10 11 -10 -7 0 -13 -4 -23
-9 -23 -59 0 -54 98 8 154 25 22 27 49 6 66 -13 10 -19 9 -35 -5 -11 -10 -18
-20 -15 -23 3 -3 0 -11 -6 -19 -6 -7 -8 -13 -3 -13 5 0 -2 -6 -16 -13 -22 -11
-27 -11 -39 6 -7 10 -20 16 -28 13 -11 -5 -13 -1 -8 15 5 15 4 19 -4 15 -14
-9 -14 -5 4 35 8 19 14 28 15 20 0 -11 4 -11 18 2 10 10 21 15 24 12 3 -3 12
3 21 12 16 18 102 29 91 12z"/>
<path fill="#ffffff" stroke="none" d="M280 149 c0 -6 -4 -7 -10 -4 -5 3 -10
11 -10 16 0 6 5 7 10 4 6 -3 10 -11 10 -16z"/>
<path fill="#000000" stroke="none" d="M65 210 c3 -5 11 -10 16 -10 6 0 7 5 4
10 -3 6 -11 10 -16 10 -6 0 -7 -4 -4 -10z"/>
</g>
</svg>
