<?xml version="1.0" standalone="no"?>
<!DOCTYPE svg PUBLIC "-//W3C//DTD SVG 20010904//EN"
 "http://www.w3.org/TR/2001/REC-SVG-20010904/DTD/svg10.dtd">
<svg version="1.0" xmlns="http://www.w3.org/2000/svg"
 width="32.000000pt" height="32.000000pt" viewBox="0 0 32.000000 32.000000"
 preserveAspectRatio="xMidYMid meet">
<metadata>
Created by potrace 1.16, written by Peter Selinger 2001-2019
</metadata>
<g transform="translate(0.000000,32.000000) scale(0.100000,-0.100000)"
fill="#000000" stroke="none">
<path fill="#000000" stroke="none" d="M124 278 c-3 -4 -2 -8 2 -8 4 0 -1 -9
-11 -20 -9 -10 -15 -26 -11 -35 4 -12 0 -14 -18 -9 -30 7 -75 -21 -72 -44 2
-9 8 -17 14 -17 16 0 16 -5 2 -37 -28 -60 21 -79 72 -28 37 37 58 35 28 -2
-20 -26 -20 -27 -2 -37 24 -13 44 2 62 47 9 24 10 35 1 46 -16 20 2 29 39 21
29 -6 90 17 90 35 0 11 -19 24 -40 27 -9 1 -7 -5 8 -17 19 -16 20 -19 5 -18
-10 0 -27 -3 -38 -6 -18 -7 -18 -6 -3 4 20 12 25 35 6 24 -7 -4 -5 2 6 14 10
12 27 24 36 27 17 5 21 27 8 41 -4 3 -32 -6 -64 -20 -61 -28 -68 -30 -60 -18
2 4 1 14 -4 22 -9 15 -48 21 -56 8z"/>
<path fill="#ffffff" stroke="none" d="M167 264 c0 -7 -6 -10 -12 -7 -13 4
-27 -31 -17 -41 10 -10 42 -6 42 5 0 6 -7 9 -15 5 -8 -3 -15 -1 -15 4 0 5 12
9 28 9 41 -1 66 5 77 17 6 7 21 15 35 19 17 5 11 -2 -20 -24 -25 -17 -51 -31
-57 -31 -7 0 -13 -4 -13 -9 0 -4 -11 -20 -25 -35 -14 -15 -25 -24 -25 -20 0 4
-3 5 -6 2 -3 -4 4 -16 16 -28 22 -22 22 -22 2 -43 -11 -12 -18 -28 -16 -35 1
-7 0 -8 -3 -2 -2 5 -10 7 -16 3 -12 -6 21 37 36 48 4 3 -5 11 -19 18 -23 10
-29 10 -36 -2 -4 -8 -19 -18 -33 -21 -14 -4 -23 -10 -20 -15 2 -5 -2 -11 -10
-15 -22 -8 -19 30 5 54 11 11 27 17 37 14 15 -5 16 -4 3 5 -13 10 -13 12 0 21
11 7 11 10 2 10 -7 0 -10 5 -7 10 8 13 -1 13 -26 -1 -11 -5 -17 -15 -13 -21 4
-7 9 -6 15 3 7 11 9 10 9 -3 0 -20 -15 -24 -25 -8 -4 6 -10 8 -14 6 -4 -3 -8
1 -8 9 0 8 4 12 8 10 4 -3 10 2 13 11 4 11 16 14 45 10 38 -4 39 -3 35 24 -3
16 0 31 6 35 6 3 8 10 6 14 -3 3 3 7 13 7 10 0 18 -6 18 -12z"/>
<path fill="#ffffff" stroke="none" d="M230 184 c0 -2 -7 -4 -15 -4 -8 0 -15
4 -15 10 0 5 7 7 15 4 8 -4 15 -8 15 -10z"/>
</g>
</svg>
