<?xml version="1.0" standalone="no"?>
<!DOCTYPE svg PUBLIC "-//W3C//DTD SVG 20010904//EN"
 "http://www.w3.org/TR/2001/REC-SVG-20010904/DTD/svg10.dtd">
<svg version="1.0" xmlns="http://www.w3.org/2000/svg"
 width="32.000000pt" height="32.000000pt" viewBox="0 0 32.000000 32.000000"
 preserveAspectRatio="xMidYMid meet">
<metadata>
Created by potrace 1.16, written by Peter Selinger 2001-2019
</metadata>
<g transform="translate(0.000000,32.000000) scale(0.100000,-0.100000)"
fill="#000000" stroke="none">
<path fill="#000000" stroke="none" d="M124 278 c-3 -4 -2 -8 2 -8 4 0 -1 -9
-11 -20 -9 -10 -15 -26 -11 -35 4 -12 0 -14 -18 -9 -30 7 -75 -21 -71 -44 2
-9 4 -19 4 -21 1 -2 8 2 16 9 8 7 15 9 15 4 0 -5 5 -2 10 6 6 9 10 10 10 3 0
-7 -12 -24 -26 -38 -31 -31 -29 -69 4 -73 14 -2 33 7 53 28 31 30 59 34 59 8
0 -9 -2 -10 -8 -2 -5 8 -13 4 -25 -12 -17 -22 -17 -24 1 -33 24 -13 44 2 62
47 9 24 10 35 1 46 -16 20 2 29 39 21 18 -4 40 0 59 10 35 17 38 27 16 45 -12
10 -16 9 -22 -6 -7 -21 -22 -34 -38 -34 -5 1 -2 5 7 11 10 5 18 15 18 20 0 6
-6 7 -12 3 -7 -4 -5 2 6 14 10 12 27 24 36 27 17 5 21 27 8 41 -4 3 -34 -7
-68 -22 -33 -15 -56 -30 -50 -34 17 -10 1 -40 -17 -33 -11 4 -14 2 -9 -5 4 -7
3 -12 -3 -12 -5 0 -11 6 -14 13 -2 6 -4 -2 -3 -19 1 -17 8 -39 16 -49 14 -17
13 -17 -7 -6 -21 11 -27 23 -24 44 0 4 -4 7 -11 7 -6 0 -4 7 5 18 10 10 15 21
12 24 -3 3 6 3 20 1 16 -4 25 -1 25 7 0 7 -7 10 -15 6 -8 -3 -15 -2 -15 3 0 5
9 11 21 14 16 4 19 9 11 23 -10 18 -49 27 -58 12z"/>
<path fill="#ffffff" stroke="none" d="M80 195 c0 -2 -10 -9 -22 -15 -22 -11
-22 -10 -4 4 21 17 26 19 26 11z"/>
<path fill="#ffffff" stroke="none" d="M103 128 c-9 -10 -22 -18 -30 -18 -9 0
-11 -5 -7 -12 4 -7 4 -10 -1 -6 -4 4 -14 0 -22 -10 -13 -15 -13 -15 -4 4 11
23 31 42 46 43 6 1 9 16 8 34 l-2 32 14 -25 c12 -22 11 -27 -2 -42z"/>
</g>
</svg>
