<?xml version="1.0" standalone="no"?>
<!DOCTYPE svg PUBLIC "-//W3C//DTD SVG 20010904//EN"
 "http://www.w3.org/TR/2001/REC-SVG-20010904/DTD/svg10.dtd">
<svg version="1.0" xmlns="http://www.w3.org/2000/svg"
 width="32.000000pt" height="32.000000pt" viewBox="0 0 32.000000 32.000000"
 preserveAspectRatio="xMidYMid meet">
<metadata>
Created by potrace 1.16, written by Peter Selinger 2001-2019
</metadata>
<g transform="translate(0.000000,32.000000) scale(0.100000,-0.100000)"
fill="#000000" stroke="none">
<path fill="#000000" stroke="none" d="M0 160 l0 -160 160 0 160 0 0 160 0
160 -160 0 -160 0 0 -160z"/>
<path fill="#ffffff" stroke="none" d="M92 285 c3 0 9 -3 13 -7 4 -3 -1 -5
-12 -3 -10 2 -21 4 -25 4 -5 1 -8 6 -8 12 0 6 5 7 13 2 6 -4 15 -8 19 -8z"/>
<path fill="#ffffff" stroke="none" d="M235 281 c-3 -6 -11 -11 -16 -11 -5 0
-4 6 3 14 14 16 24 13 13 -3z"/>
<path fill="#ffffff" stroke="none" d="M200 280 c0 -5 -5 -10 -11 -10 -5 0 -7
5 -4 10 3 6 8 10 11 10 2 0 4 -4 4 -10z"/>
</g>
</svg>
