<?xml version="1.0" standalone="no"?>
<!DOCTYPE svg PUBLIC "-//W3C//DTD SVG 20010904//EN"
 "http://www.w3.org/TR/2001/REC-SVG-20010904/DTD/svg10.dtd">
<svg version="1.0" xmlns="http://www.w3.org/2000/svg"
 width="32.000000pt" height="32.000000pt" viewBox="0 0 32.000000 32.000000"
 preserveAspectRatio="xMidYMid meet">
<metadata>
Created by potrace 1.16, written by Peter Selinger 2001-2019
</metadata>
<g transform="translate(0.000000,32.000000) scale(0.100000,-0.100000)"
fill="#000000" stroke="none">
<path fill="#000000" stroke="none" d="M60 291 c0 -6 3 -11 8 -12 4 0 15 -2
25 -4 11 -2 16 0 12 3 -4 4 -10 7 -13 7 -4 0 -13 4 -19 8 -8 5 -13 4 -13 -2z"/>
<path fill="#000000" stroke="none" d="M222 284 c-7 -8 -8 -14 -3 -14 10 0 25
19 20 25 -2 1 -10 -3 -17 -11z"/>
<path fill="#000000" stroke="none" d="M185 280 c-3 -5 -1 -10 4 -10 6 0 11 5
11 10 0 6 -2 10 -4 10 -3 0 -8 -4 -11 -10z"/>
</g>
</svg>
