<?xml version="1.0" standalone="no"?>
<!DOCTYPE svg PUBLIC "-//W3C//DTD SVG 20010904//EN"
 "http://www.w3.org/TR/2001/REC-SVG-20010904/DTD/svg10.dtd">
<svg version="1.0" xmlns="http://www.w3.org/2000/svg"
 width="32.000000pt" height="32.000000pt" viewBox="0 0 32.000000 32.000000"
 preserveAspectRatio="xMidYMid meet">
<metadata>
Created by potrace 1.16, written by Peter Selinger 2001-2019
</metadata>
<g transform="translate(0.000000,32.000000) scale(0.100000,-0.100000)"
fill="#000000" stroke="none">
<path fill="#000000" stroke="none" d="M130 290 c-11 -11 -20 -24 -20 -30 0
-13 37 -50 50 -50 6 0 19 9 30 20 11 11 20 25 20 30 0 6 -9 19 -20 30 -11 11
-24 20 -30 20 -5 0 -19 -9 -30 -20z"/>
<path fill="#ffffff" stroke="none" d="M176 259 c10 -17 -13 -36 -27 -22 -12
12 -4 33 11 33 5 0 12 -5 16 -11z"/>
<path fill="#000000" stroke="none" d="M75 261 c-8 -14 3 -51 16 -51 5 0 6 12
3 28 -8 34 -10 36 -19 23z"/>
<path fill="#000000" stroke="none" d="M30 226 c0 -17 31 -64 46 -70 26 -10
24 -4 -12 38 -19 22 -34 36 -34 32z"/>
</g>
</svg>
