<?xml version="1.0" standalone="no"?>
<!DOCTYPE svg PUBLIC "-//W3C//DTD SVG 20010904//EN"
 "http://www.w3.org/TR/2001/REC-SVG-20010904/DTD/svg10.dtd">
<svg version="1.0" xmlns="http://www.w3.org/2000/svg"
 width="32.000000pt" height="32.000000pt" viewBox="0 0 32.000000 32.000000"
 preserveAspectRatio="xMidYMid meet">
<metadata>
Created by potrace 1.16, written by Peter Selinger 2001-2019
</metadata>
<g transform="translate(0.000000,32.000000) scale(0.100000,-0.100000)"
fill="#000000" stroke="none">
<path fill="#000000" stroke="none" d="M0 160 l0 -160 160 0 160 0 0 160 0
160 -160 0 -160 0 0 -160z"/>
<path fill="#ffffff" stroke="none" d="M105 266 c-11 -8 -24 -12 -29 -8 -5 3
-1 9 10 13 31 12 39 10 19 -5z"/>
<path fill="#ffffff" stroke="none" d="M90 229 c0 -4 -11 -6 -24 -5 -13 0 -22
4 -20 8 6 9 44 6 44 -3z"/>
<path fill="#ffffff" stroke="none" d="M95 190 c-3 -5 -12 -10 -18 -10 -7 0
-6 4 3 10 19 12 23 12 15 0z"/>
<path fill="#ffffff" stroke="none" d="M208 158 c42 -12 42 -22 0 -14 -31 5
-32 5 -14 -9 11 -8 16 -15 10 -15 -12 1 -51 30 -39 30 5 0 0 7 -11 16 -19 15
-19 16 1 9 11 -4 35 -11 53 -17z"/>
<path fill="#ffffff" stroke="none" d="M141 153 c13 -15 12 -15 -8 -4 -24 12
-29 21 -14 21 5 0 15 -7 22 -17z"/>
</g>
</svg>
