<?xml version="1.0" standalone="no"?>
<!DOCTYPE svg PUBLIC "-//W3C//DTD SVG 20010904//EN"
 "http://www.w3.org/TR/2001/REC-SVG-20010904/DTD/svg10.dtd">
<svg version="1.0" xmlns="http://www.w3.org/2000/svg"
 width="32.000000pt" height="32.000000pt" viewBox="0 0 32.000000 32.000000"
 preserveAspectRatio="xMidYMid meet">
<metadata>
Created by potrace 1.16, written by Peter Selinger 2001-2019
</metadata>
<g transform="translate(0.000000,32.000000) scale(0.100000,-0.100000)"
fill="#000000" stroke="none">
<path fill="#000000" stroke="none" d="M180 285 c-20 -24 -6 -28 15 -5 10 11
13 20 8 20 -6 0 -16 -7 -23 -15z"/>
<path fill="#000000" stroke="none" d="M19 194 c-12 -15 -11 -16 10 -9 21 6
23 5 17 -11 -7 -18 -6 -18 10 -2 17 17 12 38 -10 38 -8 0 -20 -7 -27 -16z"/>
<path fill="#000000" stroke="none" d="M105 190 c-3 -6 -1 -9 7 -8 8 2 12 -5
10 -20 -1 -15 2 -22 10 -20 19 7 16 52 -4 56 -9 2 -19 -2 -23 -8z"/>
<path fill="#000000" stroke="none" d="M15 49 c-4 -5 -4 -13 -1 -16 3 -4 6 0
6 8 0 11 2 11 10 -1 6 -9 10 -10 10 -3 0 17 -17 25 -25 12z"/>
<path fill="#000000" stroke="none" d="M125 29 c-4 -5 -4 -13 -1 -16 3 -4 6 0
6 8 0 11 2 11 10 -1 6 -9 10 -10 10 -3 0 17 -17 25 -25 12z"/>
</g>
</svg>
