<?xml version="1.0" standalone="no"?>
<!DOCTYPE svg PUBLIC "-//W3C//DTD SVG 20010904//EN"
 "http://www.w3.org/TR/2001/REC-SVG-20010904/DTD/svg10.dtd">
<svg version="1.0" xmlns="http://www.w3.org/2000/svg"
 width="32.000000pt" height="32.000000pt" viewBox="0 0 32.000000 32.000000"
 preserveAspectRatio="xMidYMid meet">
<metadata>
Created by potrace 1.16, written by Peter Selinger 2001-2019
</metadata>
<g transform="translate(0.000000,32.000000) scale(0.100000,-0.100000)"
fill="#000000" stroke="none">
<path fill="#000000" stroke="none" d="M204 300 c-21 -8 -40 -28 -33 -35 2 -1
20 8 39 21 35 24 33 30 -6 14z"/>
<path fill="#000000" stroke="none" d="M19 194 c-12 -15 -11 -16 10 -9 21 6
22 5 16 -16 -7 -22 -7 -22 10 -6 19 19 14 47 -8 47 -8 0 -21 -7 -28 -16z"/>
<path fill="#000000" stroke="none" d="M105 190 c-4 -6 -1 -9 7 -8 8 2 12 -5
11 -19 -3 -26 9 -30 27 -8 10 12 10 18 0 30 -14 17 -36 20 -45 5z"/>
<path fill="#000000" stroke="none" d="M64 123 c2 -10 6 -17 10 -16 15 3 16
11 2 22 -12 10 -14 9 -12 -6z"/>
<path fill="#000000" stroke="none" d="M106 121 c-4 -5 -2 -12 3 -15 5 -4 12
-2 15 3 4 5 2 12 -3 15 -5 4 -12 2 -15 -3z"/>
<path fill="#000000" stroke="none" d="M286 112 c-2 -4 -1 -14 5 -22 7 -12 9
-10 9 8 0 23 -5 28 -14 14z"/>
<path fill="#000000" stroke="none" d="M20 55 c-7 -9 -10 -18 -6 -22 3 -3 6 0
6 8 0 11 2 11 10 -1 8 -12 10 -11 10 8 0 26 -3 27 -20 7z"/>
<path fill="#000000" stroke="none" d="M130 35 c-7 -9 -10 -18 -6 -22 3 -3 6
0 6 8 0 11 2 11 10 -1 8 -12 10 -11 10 8 0 26 -3 27 -20 7z"/>
</g>
</svg>
