<?xml version="1.0" standalone="no"?>
<!DOCTYPE svg PUBLIC "-//W3C//DTD SVG 20010904//EN"
 "http://www.w3.org/TR/2001/REC-SVG-20010904/DTD/svg10.dtd">
<svg version="1.0" xmlns="http://www.w3.org/2000/svg"
 width="32.000000pt" height="32.000000pt" viewBox="0 0 32.000000 32.000000"
 preserveAspectRatio="xMidYMid meet">
<metadata>
Created by potrace 1.16, written by Peter Selinger 2001-2019
</metadata>
<g transform="translate(0.000000,32.000000) scale(0.100000,-0.100000)"
fill="#000000" stroke="none">
<path fill="#000000" stroke="none" d="M239 268 c-27 -29 -49 -58 -49 -65 0
-6 -3 -14 -7 -16 -13 -8 -9 61 5 74 13 14 16 39 4 39 -4 0 -14 -6 -21 -12 -10
-11 -11 -9 -5 7 l7 20 -21 -20 c-11 -11 -24 -33 -28 -50 -6 -26 -5 -28 8 -17
13 10 17 10 22 -4 6 -17 0 -34 -13 -34 -15 0 -82 74 -87 97 -7 24 -43 33 -46
11 -6 -53 -1 -145 10 -156 17 -19 16 -38 -2 -23 -12 10 -13 5 -9 -31 9 -70 15
-76 84 -80 54 -3 63 -1 70 17 5 14 8 16 10 5 1 -8 1 -18 0 -22 0 -5 4 -8 9 -8
6 0 10 7 10 15 0 20 19 19 27 0 4 -11 14 -14 34 -11 38 6 49 14 49 36 0 10 4
22 10 25 11 7 9 75 -2 75 -5 0 -8 -8 -8 -17 0 -14 -2 -15 -9 -5 -9 14 -3 62 8
62 3 0 7 32 8 70 0 41 -3 70 -9 70 -5 0 -32 -24 -59 -52z"/>
<path fill="#ffffff" stroke="none" d="M189 83 c0 -15 -1 -15 -9 3 -5 12 -13
25 -19 29 -6 3 -11 13 -11 22 0 11 6 8 20 -10 11 -14 20 -33 19 -44z"/>
<path fill="#ffffff" stroke="none" d="M106 79 c-9 -13 -16 -28 -16 -34 0 -5
5 -3 10 5 9 13 10 13 10 0 1 -9 6 -5 14 10 8 14 12 28 10 32 -2 3 0 9 5 12 17
11 2 -59 -16 -71 -19 -14 -43 -1 -43 24 0 8 -5 11 -12 7 -14 -9 -2 11 21 36
23 24 37 6 17 -21z"/>
<path fill="#ffffff" stroke="none" d="M54 92 c2 -4 -4 -9 -15 -9 -10 -1 -19
2 -19 8 0 11 27 12 34 1z"/>
<path fill="#ffffff" stroke="none" d="M123 75 c-3 -9 -8 -14 -10 -11 -3 3 -2
9 2 15 9 16 15 13 8 -4z"/>
<path fill="#ffffff" stroke="none" d="M227 58 c-3 -8 -6 -5 -6 6 -1 11 2 17
5 13 3 -3 4 -12 1 -19z"/>
<path fill="#ffffff" stroke="none" d="M285 31 c-3 -6 -11 -11 -17 -11 -6 0
-6 6 2 15 14 17 26 13 15 -4z"/>
</g>
</svg>
