<?xml version="1.0" standalone="no"?>
<!DOCTYPE svg PUBLIC "-//W3C//DTD SVG 20010904//EN"
 "http://www.w3.org/TR/2001/REC-SVG-20010904/DTD/svg10.dtd">
<svg version="1.0" xmlns="http://www.w3.org/2000/svg"
 width="32.000000pt" height="32.000000pt" viewBox="0 0 32.000000 32.000000"
 preserveAspectRatio="xMidYMid meet">
<metadata>
Created by potrace 1.16, written by Peter Selinger 2001-2019
</metadata>
<g transform="translate(0.000000,32.000000) scale(0.100000,-0.100000)"
fill="#000000" stroke="none">
<path fill="#000000" stroke="none" d="M0 160 l0 -160 160 0 160 0 0 160 0
160 -160 0 -160 0 0 -160z"/>
<path fill="#ffffff" stroke="none" d="M240 292 c43 -21 74 -73 66 -108 -4
-14 -18 -37 -33 -50 -21 -20 -24 -26 -13 -39 7 -8 9 -15 5 -15 -4 0 -14 9 -24
21 -15 19 -18 19 -46 5 -17 -9 -24 -16 -17 -16 6 0 12 -6 12 -12 0 -7 7 -26
15 -41 10 -19 11 -27 3 -25 -7 3 -16 19 -20 36 -11 41 -31 40 -64 -3 -27 -35
-46 -46 -41 -22 1 6 -6 11 -16 11 -14 -2 -16 3 -11 20 3 11 7 26 8 31 0 6 6
14 11 18 6 5 -1 6 -15 3 -24 -5 -24 -4 -6 9 21 16 52 2 39 -18 -4 -6 -1 -7 8
-1 8 5 16 9 19 9 3 0 14 7 26 14 19 13 20 17 8 40 -7 14 -36 40 -65 56 -29 17
-54 36 -57 43 -6 18 76 52 128 52 25 0 61 -8 80 -18z"/>
<path fill="#ffffff" stroke="none" d="M145 140 c0 -10 -8 -14 -23 -13 -16 2
-21 -1 -16 -10 5 -9 4 -9 -6 0 -11 10 -11 15 0 28 16 19 45 16 45 -5z"/>
<path fill="#ffffff" stroke="none" d="M235 80 c9 -16 12 -30 7 -30 -4 0 -13
14 -19 30 -6 17 -10 30 -7 30 2 0 10 -13 19 -30z"/>
<path fill="#000000" stroke="none" d="M115 140 c3 -5 10 -10 16 -10 5 0 9 5
9 10 0 6 -7 10 -16 10 -8 0 -12 -4 -9 -10z"/>
</g>
</svg>
