<?xml version="1.0" standalone="no"?>
<!DOCTYPE svg PUBLIC "-//W3C//DTD SVG 20010904//EN"
 "http://www.w3.org/TR/2001/REC-SVG-20010904/DTD/svg10.dtd">
<svg version="1.0" xmlns="http://www.w3.org/2000/svg"
 width="32.000000pt" height="32.000000pt" viewBox="0 0 32.000000 32.000000"
 preserveAspectRatio="xMidYMid meet">
<metadata>
Created by potrace 1.16, written by Peter Selinger 2001-2019
</metadata>
<g transform="translate(0.000000,32.000000) scale(0.100000,-0.100000)"
fill="#000000" stroke="none">
<path fill="#000000" stroke="none" d="M205 306 c-66 -16 -71 -20 -80 -58 -11
-48 -11 -63 3 -60 7 1 11 -4 10 -10 -2 -7 3 -12 10 -10 8 1 11 -2 7 -8 -3 -6
-12 -7 -18 -3 -7 4 -18 8 -25 9 -28 5 -43 14 -37 24 3 5 3 10 -2 11 -4 0 -16
2 -26 4 -23 4 -22 2 18 -55 19 -27 35 -55 34 -62 0 -7 -4 -4 -9 7 -7 15 -9 16
-9 4 -1 -9 -13 -24 -27 -33 -14 -10 -24 -22 -22 -28 5 -14 47 -18 54 -6 3 4 9
6 14 3 15 -9 22 15 10 30 -10 12 -9 15 3 15 22 0 30 -16 18 -39 -9 -16 -6 -21
17 -30 17 -7 40 -8 65 -2 22 5 39 5 43 0 3 -5 14 -4 25 2 16 8 18 13 9 24 -9
11 -7 16 9 25 23 12 29 40 8 40 -7 0 -23 -7 -35 -16 -23 -16 -31 -7 -11 13 22
22 3 32 -88 45 -12 1 46 78 60 78 14 0 61 40 63 53 1 7 3 19 5 27 5 20 -32 22
-96 6z"/>
<path fill="#ffffff" stroke="none" d="M266 303 c-15 -4 -16 -7 -5 -14 11 -7
11 -9 -3 -9 -18 0 -23 11 -11 23 3 4 13 6 22 6 12 -1 11 -3 -3 -6z"/>
<path fill="#ffffff" stroke="none" d="M225 290 c3 -5 -1 -10 -10 -10 -9 0
-13 -5 -10 -10 3 -6 -4 -14 -17 -19 l-23 -10 25 -1 25 -1 -23 -10 c-13 -5 -20
-13 -17 -19 10 -16 -12 -12 -29 5 -21 21 -3 61 33 74 35 13 39 13 46 1z"/>
<path fill="#ffffff" stroke="none" d="M256 263 c-15 -4 -16 -7 -5 -15 12 -8
12 -9 0 -6 -25 7 -24 28 1 27 19 -1 20 -2 4 -6z"/>
<path fill="#ffffff" stroke="none" d="M163 119 c-6 -6 -9 -18 -6 -25 3 -8 -1
-14 -11 -14 -9 0 -16 5 -16 11 0 5 -6 7 -12 3 -7 -4 -10 -4 -6 1 7 8 48 32 58
34 2 1 -1 -4 -7 -10z"/>
<path fill="#ffffff" stroke="none" d="M214 105 c11 -8 16 -15 10 -15 -5 0
-18 7 -28 15 -11 8 -16 15 -10 15 5 0 18 -7 28 -15z"/>
<path fill="#ffffff" stroke="none" d="M110 45 c0 -3 -5 -3 -11 1 -6 3 -15 0
-20 -7 -7 -12 -9 -12 -9 0 0 11 -3 11 -15 1 -8 -7 -15 -8 -15 -2 0 5 10 16 22
24 18 12 25 13 35 2 7 -7 13 -15 13 -19z"/>
<path fill="#ffffff" stroke="none" d="M191 63 c13 -16 12 -17 -3 -4 -10 7
-18 15 -18 17 0 8 8 3 21 -13z"/>
<path fill="#000000" stroke="none" d="M19 288 c0 -2 -2 -28 -4 -58 -4 -57 0
-74 16 -64 6 4 6 10 -1 19 -6 7 -8 20 -4 29 7 18 34 22 34 5 0 -5 5 -7 10 -4
6 4 18 1 26 -6 26 -21 13 9 -20 47 -24 28 -53 44 -57 32z"/>
<path fill="#ffffff" stroke="none" d="M34 264 c3 -8 2 -12 -4 -9 -6 3 -10 10
-10 16 0 14 7 11 14 -7z"/>
</g>
</svg>
