<?xml version="1.0" standalone="no"?>
<!DOCTYPE svg PUBLIC "-//W3C//DTD SVG 20010904//EN"
 "http://www.w3.org/TR/2001/REC-SVG-20010904/DTD/svg10.dtd">
<svg version="1.0" xmlns="http://www.w3.org/2000/svg"
 width="32.000000pt" height="32.000000pt" viewBox="0 0 32.000000 32.000000"
 preserveAspectRatio="xMidYMid meet">
<metadata>
Created by potrace 1.16, written by Peter Selinger 2001-2019
</metadata>
<g transform="translate(0.000000,32.000000) scale(0.100000,-0.100000)"
fill="#000000" stroke="none">
<path fill="#000000" stroke="none" d="M90 295 c-19 -22 -8 -25 13 -3 9 10 13
18 8 18 -5 0 -14 -7 -21 -15z"/>
<path fill="#000000" stroke="none" d="M104 275 c-3 -8 -4 -20 -1 -27 3 -7 6
-3 6 9 1 12 9 24 19 26 16 4 16 5 -1 6 -10 0 -20 -6 -23 -14z"/>
<path fill="#000000" stroke="none" d="M125 259 c-11 -16 -1 -19 13 -3 7 8 8
14 3 14 -5 0 -13 -5 -16 -11z"/>
<path fill="#000000" stroke="none" d="M86 223 c-3 -3 -6 -11 -6 -17 0 -6 5
-4 10 4 8 12 10 11 10 -7 0 -12 4 -24 9 -27 4 -3 6 6 3 19 -5 27 -15 38 -26
28z"/>
<path fill="#000000" stroke="none" d="M20 150 c0 -5 4 -10 9 -10 6 0 13 5 16
10 3 6 -1 10 -9 10 -9 0 -16 -4 -16 -10z"/>
<path fill="#000000" stroke="none" d="M112 141 c2 -7 7 -12 11 -12 12 1 9 15
-3 20 -7 2 -11 -2 -8 -8z"/>
<path fill="#000000" stroke="none" d="M10 80 c0 -5 7 -7 15 -4 8 4 15 8 15
10 0 2 -7 4 -15 4 -8 0 -15 -4 -15 -10z"/>
<path fill="#000000" stroke="none" d="M110 80 c-8 -5 -11 -12 -7 -16 4 -4 15
0 24 9 18 18 8 23 -17 7z"/>
</g>
</svg>
