<?xml version="1.0" standalone="no"?>
<!DOCTYPE svg PUBLIC "-//W3C//DTD SVG 20010904//EN"
 "http://www.w3.org/TR/2001/REC-SVG-20010904/DTD/svg10.dtd">
<svg version="1.0" xmlns="http://www.w3.org/2000/svg"
 width="32.000000pt" height="32.000000pt" viewBox="0 0 32.000000 32.000000"
 preserveAspectRatio="xMidYMid meet">
<metadata>
Created by potrace 1.16, written by Peter Selinger 2001-2019
</metadata>
<g transform="translate(0.000000,32.000000) scale(0.100000,-0.100000)"
fill="#000000" stroke="none">
<path fill="#000000" stroke="none" d="M137 293 c-4 -3 -7 -13 -7 -22 0 -14 2
-14 10 -1 8 12 11 13 19 1 6 -9 11 -10 15 -2 14 22 -19 43 -37 24z"/>
<path fill="#000000" stroke="none" d="M58 208 c-27 -9 -38 -40 -19 -52 5 -4
7 4 4 16 -5 23 -5 23 11 3 10 -11 14 -14 10 -6 -4 9 2 21 17 32 26 20 19 23
-23 7z"/>
</g>
</svg>
