<?xml version="1.0" standalone="no"?>
<!DOCTYPE svg PUBLIC "-//W3C//DTD SVG 20010904//EN"
 "http://www.w3.org/TR/2001/REC-SVG-20010904/DTD/svg10.dtd">
<svg version="1.0" xmlns="http://www.w3.org/2000/svg"
 width="32.000000pt" height="32.000000pt" viewBox="0 0 32.000000 32.000000"
 preserveAspectRatio="xMidYMid meet">
<metadata>
Created by potrace 1.16, written by Peter Selinger 2001-2019
</metadata>
<g transform="translate(0.000000,32.000000) scale(0.100000,-0.100000)"
fill="#000000" stroke="none">
<path fill="#000000" stroke="none" d="M0 287 c0 -24 3 -28 10 -17 7 10 10 11
10 2 0 -8 8 -10 24 -6 21 5 24 1 30 -31 8 -42 4 -50 -20 -41 -16 6 -16 7 0 19
16 12 16 14 -8 25 -22 10 -26 9 -26 -4 0 -8 4 -23 9 -32 4 -9 11 -30 15 -47 6
-28 5 -28 -18 10 l-25 40 1 -42 c0 -29 4 -40 13 -37 7 3 16 0 20 -6 5 -8 11
-8 20 0 9 7 16 6 26 -7 12 -16 12 -17 -2 -6 -18 14 -30 8 -23 -12 9 -24 -14
-26 -30 -3 -18 25 -18 26 -20 -54 l-1 -37 156 1 156 0 1 44 c0 37 -3 44 -20
44 -27 0 -54 16 -62 37 -6 14 -4 14 15 -3 11 -10 23 -18 26 -17 11 3 23 29 23
51 0 12 5 31 12 42 14 22 12 25 -22 34 -17 5 -21 4 -11 -2 8 -6 9 -12 3 -16
-6 -3 -14 -2 -17 4 -5 8 -11 8 -20 0 -9 -8 -15 -8 -20 0 -3 5 -4 10 0 10 3 0
1 9 -4 19 -9 15 -7 20 9 24 20 5 29 47 11 47 -5 0 -8 -7 -7 -16 2 -25 -24 -30
-31 -6 -4 18 -13 20 -104 20 l-99 1 0 -32z"/>
<path fill="#ffffff" stroke="none" d="M110 296 c0 -8 -7 -16 -15 -20 -13 -4
-14 -2 -5 14 13 23 20 26 20 6z"/>
<path fill="#ffffff" stroke="none" d="M160 300 c-20 -13 -33 -13 -25 0 3 6
14 10 23 10 15 0 15 -2 2 -10z"/>
<path fill="#ffffff" stroke="none" d="M77 294 c-3 -3 -12 -4 -19 -1 -8 3 -5
6 6 6 11 1 17 -2 13 -5z"/>
<path fill="#ffffff" stroke="none" d="M194 268 c-3 -5 -12 -4 -20 3 -19 16
-18 18 6 12 11 -3 17 -9 14 -15z"/>
<path fill="#ffffff" stroke="none" d="M240 160 c0 -5 -4 -10 -10 -10 -5 0
-10 5 -10 10 0 6 5 10 10 10 6 0 10 -4 10 -10z"/>
<path fill="#ffffff" stroke="none" d="M117 144 c-3 -3 -12 -4 -19 -1 -8 3 -5
6 6 6 11 1 17 -2 13 -5z"/>
<path fill="#ffffff" stroke="none" d="M170 78 c0 -10 -7 -18 -15 -18 -8 0
-15 5 -15 11 0 5 -4 7 -10 4 -6 -3 -7 1 -4 10 4 8 1 22 -5 29 -9 11 -9 15 1
19 16 6 47 -31 48 -55z"/>
<path fill="#ffffff" stroke="none" d="M87 75 c0 -8 -4 -12 -9 -9 -5 3 -6 10
-3 15 9 13 12 11 12 -6z"/>
<path fill="#000000" stroke="none" d="M292 309 c2 -7 10 -15 17 -17 8 -3 12
1 9 9 -2 7 -10 15 -17 17 -8 3 -12 -1 -9 -9z"/>
</g>
</svg>
