<?xml version="1.0" standalone="no"?>
<!DOCTYPE svg PUBLIC "-//W3C//DTD SVG 20010904//EN"
 "http://www.w3.org/TR/2001/REC-SVG-20010904/DTD/svg10.dtd">
<svg version="1.0" xmlns="http://www.w3.org/2000/svg"
 width="32.000000pt" height="32.000000pt" viewBox="0 0 32.000000 32.000000"
 preserveAspectRatio="xMidYMid meet">
<metadata>
Created by potrace 1.16, written by Peter Selinger 2001-2019
</metadata>
<g transform="translate(0.000000,32.000000) scale(0.100000,-0.100000)"
fill="#000000" stroke="none">
<path fill="#000000" stroke="none" d="M270 57 c0 -8 -10 -17 -22 -20 -12 -4
-19 -9 -16 -13 9 -8 63 19 61 31 -2 16 -23 18 -23 2z"/>
<path fill="#000000" stroke="none" d="M48 53 c7 -3 16 -2 19 1 4 3 -2 6 -13
5 -11 0 -14 -3 -6 -6z"/>
<path fill="#000000" stroke="none" d="M110 33 c-59 -7 -53 -18 10 -18 32 0
62 4 66 8 4 4 2 7 -4 7 -5 0 -16 2 -24 3 -7 2 -29 2 -48 0z"/>
</g>
</svg>
