<?xml version="1.0" standalone="no"?>
<!DOCTYPE svg PUBLIC "-//W3C//DTD SVG 20010904//EN"
 "http://www.w3.org/TR/2001/REC-SVG-20010904/DTD/svg10.dtd">
<svg version="1.0" xmlns="http://www.w3.org/2000/svg"
 width="32.000000pt" height="32.000000pt" viewBox="0 0 32.000000 32.000000"
 preserveAspectRatio="xMidYMid meet">
<metadata>
Created by potrace 1.16, written by Peter Selinger 2001-2019
</metadata>
<g transform="translate(0.000000,32.000000) scale(0.100000,-0.100000)"
fill="#000000" stroke="none">
<path fill="#000000" stroke="none" d="M0 160 l0 -160 58 1 c45 0 52 2 34 10
-28 11 -23 22 17 39 29 11 29 13 17 48 -7 20 -21 39 -32 42 -31 8 -84 40 -84
50 0 12 50 50 66 50 8 0 33 17 56 37 24 21 34 28 24 15 -19 -22 -19 -22 7 -22
23 0 25 3 18 23 -8 20 -15 22 -95 25 l-86 3 0 -161z"/>
<path fill="#000000" stroke="none" d="M190 308 c0 -21 17 -41 28 -34 5 3 23
-9 40 -28 35 -40 57 -121 48 -176 -3 -22 -2 -41 4 -45 7 -4 10 46 10 144 l0
151 -65 0 c-45 0 -65 -4 -65 -12z"/>
<path fill="#000000" stroke="none" d="M101 240 c-52 -19 -81 -36 -81 -49 0
-4 17 -15 37 -25 21 -10 44 -21 52 -25 8 -4 19 -21 25 -38 15 -41 44 -68 74
-68 14 0 27 -6 30 -14 3 -8 0 -11 -5 -8 -5 3 -23 2 -39 -3 -29 -8 -29 -8 8 -9
20 -1 39 3 43 9 3 5 11 7 19 4 8 -3 17 12 25 49 12 46 11 61 -3 110 -10 33
-25 62 -38 71 -21 15 -24 14 -53 -12 l-30 -27 24 28 24 27 -29 0 c-16 -1 -53
-9 -83 -20z"/>
<path fill="#ffffff" stroke="none" d="M241 123 c13 -33 1 -58 -27 -58 -10 1
-22 -4 -26 -9 -16 -23 -20 28 -5 60 20 41 44 44 58 7z"/>
<path fill="#000000" stroke="none" d="M192 115 c-17 -38 -15 -42 18 -37 32 5
33 6 24 40 -8 29 -28 28 -42 -3z"/>
</g>
</svg>
