<?xml version="1.0" standalone="no"?>
<!DOCTYPE svg PUBLIC "-//W3C//DTD SVG 20010904//EN"
 "http://www.w3.org/TR/2001/REC-SVG-20010904/DTD/svg10.dtd">
<svg version="1.0" xmlns="http://www.w3.org/2000/svg"
 width="32.000000pt" height="32.000000pt" viewBox="0 0 32.000000 32.000000"
 preserveAspectRatio="xMidYMid meet">
<metadata>
Created by potrace 1.16, written by Peter Selinger 2001-2019
</metadata>
<g transform="translate(0.000000,32.000000) scale(0.100000,-0.100000)"
fill="#000000" stroke="none">
<path fill="#000000" stroke="none" d="M144 289 c-16 -17 -45 -38 -64 -46 -38
-16 -70 -41 -70 -54 0 -9 54 -41 84 -49 11 -3 25 -22 32 -41 12 -36 12 -36
-23 -53 -19 -9 -31 -20 -28 -26 10 -16 70 -22 111 -11 25 7 42 7 48 1 13 -13
86 -13 86 -1 0 6 -5 13 -10 16 -6 4 -7 23 -4 45 4 21 1 62 -6 90 -14 57 -63
122 -85 114 -9 -4 -16 3 -21 20 -8 33 -14 33 -50 -5z"/>
<path fill="#ffffff" stroke="none" d="M212 265 c47 -1 96 -109 85 -190 -4
-26 -2 -46 6 -54 9 -10 5 -12 -23 -10 -19 2 -41 7 -47 12 -7 5 -22 7 -33 4
-10 -3 -24 1 -30 8 -13 16 15 35 50 35 11 0 23 6 26 13 7 21 -14 67 -30 67
-17 0 -46 -49 -46 -75 0 -28 -23 -11 -35 25 -6 18 -18 37 -26 41 -8 4 -31 15
-52 25 -20 10 -36 23 -34 29 2 5 23 20 48 32 24 12 57 35 73 52 l29 31 12 -23
c6 -12 18 -22 27 -22z"/>
<path fill="#ffffff" stroke="none" d="M234 118 c9 -34 8 -35 -24 -40 -33 -5
-35 -1 -18 37 14 31 34 32 42 3z"/>
</g>
</svg>
