<?xml version="1.0" standalone="no"?>
<!DOCTYPE svg PUBLIC "-//W3C//DTD SVG 20010904//EN"
 "http://www.w3.org/TR/2001/REC-SVG-20010904/DTD/svg10.dtd">
<svg version="1.0" xmlns="http://www.w3.org/2000/svg"
 width="32.000000pt" height="32.000000pt" viewBox="0 0 32.000000 32.000000"
 preserveAspectRatio="xMidYMid meet">
<metadata>
Created by potrace 1.16, written by Peter Selinger 2001-2019
</metadata>
<g transform="translate(0.000000,32.000000) scale(0.100000,-0.100000)"
fill="#000000" stroke="none">
<path fill="#000000" stroke="none" d="M118 224 c-62 -19 -83 -48 -67 -94 l12
-33 13 24 13 24 1 -25 c1 -14 4 -19 7 -12 4 10 8 10 19 1 11 -9 14 -6 15 17
l1 29 14 -33 c13 -30 16 -32 30 -17 9 8 20 13 25 10 5 -4 9 -1 9 5 0 6 5 8 10
5 6 -3 10 -2 10 4 0 5 -6 12 -12 14 -9 4 -8 6 2 7 17 1 57 50 40 50 -5 0 -10
6 -10 14 0 29 -57 33 -132 10z"/>
<path fill="#ffffff" stroke="none" d="M190 190 c-9 -16 -9 -25 -1 -33 6 -6
11 -16 11 -21 0 -6 -7 -1 -15 11 -12 17 -13 27 -3 47 6 15 13 24 15 22 3 -2
-1 -14 -7 -26z"/>
<path fill="#000000" stroke="none" d="M240 89 c0 -5 -4 -7 -10 -4 -6 4 -10
-5 -10 -19 0 -15 6 -26 13 -26 8 0 14 12 14 30 0 17 -2 30 -4 30 -1 0 -3 -5
-3 -11z"/>
<path fill="#000000" stroke="none" d="M90 73 c0 -12 5 -25 11 -28 19 -12 22
3 5 27 l-16 22 0 -21z"/>
<path fill="#000000" stroke="none" d="M186 75 c-7 -19 0 -35 15 -35 9 0 7 35
-3 45 -3 3 -8 -1 -12 -10z"/>
<path fill="#000000" stroke="none" d="M55 70 c-4 -6 -2 -17 4 -23 15 -15 25
-2 13 19 -7 12 -11 13 -17 4z"/>
</g>
</svg>
