<?xml version="1.0" standalone="no"?>
<!DOCTYPE svg PUBLIC "-//W3C//DTD SVG 20010904//EN"
 "http://www.w3.org/TR/2001/REC-SVG-20010904/DTD/svg10.dtd">
<svg version="1.0" xmlns="http://www.w3.org/2000/svg"
 width="32.000000pt" height="32.000000pt" viewBox="0 0 32.000000 32.000000"
 preserveAspectRatio="xMidYMid meet">
<metadata>
Created by potrace 1.16, written by Peter Selinger 2001-2019
</metadata>
<g transform="translate(0.000000,32.000000) scale(0.100000,-0.100000)"
fill="#000000" stroke="none">
<path fill="#000000" stroke="none" d="M142 267 c-12 -32 -17 -37 -35 -31 -18
5 -16 0 12 -30 35 -36 31 -45 -12 -25 -18 8 -32 7 -58 -4 -21 -10 -27 -16 -16
-16 10 -1 15 -5 12 -11 -8 -13 -7 -13 62 5 40 11 68 26 93 50 19 19 29 35 22
35 -7 0 -25 -12 -39 -26 -19 -19 -24 -21 -18 -7 4 10 9 27 12 38 4 16 3 17 -5
6 -8 -11 -11 -7 -14 20 l-3 34 -13 -38z"/>
<path fill="#000000" stroke="none" d="M220 175 c-10 -12 -9 -15 6 -15 11 0
25 4 32 9 11 7 10 10 -3 15 -22 8 -21 8 -35 -9z"/>
<path fill="#000000" stroke="none" d="M100 115 c-13 -14 -21 -27 -18 -30 2
-3 17 9 33 25 16 17 24 30 19 30 -6 0 -21 -11 -34 -25z"/>
<path fill="#000000" stroke="none" d="M200 132 c0 -5 7 -15 15 -22 8 -7 15
-8 15 -2 0 5 -7 15 -15 22 -8 7 -15 8 -15 2z"/>
<path fill="#000000" stroke="none" d="M142 94 c-9 -10 -10 -19 -3 -32 9 -16
10 -16 16 0 4 9 5 23 3 31 -3 13 -5 13 -16 1z"/>
</g>
</svg>
