<?xml version="1.0" standalone="no"?>
<!DOCTYPE svg PUBLIC "-//W3C//DTD SVG 20010904//EN"
 "http://www.w3.org/TR/2001/REC-SVG-20010904/DTD/svg10.dtd">
<svg version="1.0" xmlns="http://www.w3.org/2000/svg"
 width="32.000000pt" height="32.000000pt" viewBox="0 0 32.000000 32.000000"
 preserveAspectRatio="xMidYMid meet">
<metadata>
Created by potrace 1.16, written by Peter Selinger 2001-2019
</metadata>
<g transform="translate(0.000000,32.000000) scale(0.100000,-0.100000)"
fill="#000000" stroke="none">
<path fill="#000000" stroke="none" d="M140 310 c-8 -5 -10 -10 -5 -10 6 0 17
5 25 10 8 5 11 10 5 10 -5 0 -17 -5 -25 -10z"/>
<path fill="#000000" stroke="none" d="M77 298 c-9 -7 -17 -19 -19 -27 -4 -20
29 -22 44 -3 12 15 11 16 -4 3 -20 -15 -23 -9 -8 20 12 22 10 24 -13 7z"/>
<path fill="#000000" stroke="none" d="M236 273 c-4 -10 -4 -14 0 -11 4 4 15
3 25 -3 21 -11 25 1 7 19 -16 16 -25 15 -32 -5z"/>
<path fill="#000000" stroke="none" d="M106 231 c-9 -9 -16 -22 -16 -27 0 -5
5 -1 11 9 6 9 14 15 19 12 5 -3 11 -1 14 4 12 18 -11 20 -28 2z"/>
<path fill="#000000" stroke="none" d="M207 220 c10 -11 22 -20 28 -20 5 0 3
5 -5 10 -13 9 -13 10 0 11 10 0 8 3 -5 9 -32 14 -36 11 -18 -10z"/>
<path fill="#000000" stroke="none" d="M61 214 c0 -11 3 -14 6 -6 3 7 2 16 -1
19 -3 4 -6 -2 -5 -13z"/>
<path fill="#000000" stroke="none" d="M295 221 c-3 -5 -2 -12 3 -15 5 -3 9 1
9 9 0 17 -3 19 -12 6z"/>
<path fill="#000000" stroke="none" d="M26 205 c-9 -26 -7 -32 5 -12 6 10 9
21 6 23 -2 3 -7 -2 -11 -11z"/>
<path fill="#000000" stroke="none" d="M2 180 c0 -14 2 -19 5 -12 2 6 2 18 0
25 -3 6 -5 1 -5 -13z"/>
<path fill="#000000" stroke="none" d="M287 157 c4 -25 -37 -102 -54 -102 -6
0 -14 -2 -17 -5 -3 -4 5 -6 19 -6 13 0 22 3 19 7 -2 4 0 10 6 14 5 3 10 1 10
-6 0 -9 3 -10 10 -3 13 13 24 110 12 118 -5 3 -7 -5 -5 -17z"/>
<path fill="#000000" stroke="none" d="M0 143 c0 -6 10 -19 22 -27 20 -14 18
-21 -5 -17 -18 3 19 -38 39 -43 12 -3 30 -8 41 -12 10 -3 1 4 -19 16 -21 11
-38 23 -38 26 0 3 5 2 10 -1 6 -4 3 10 -7 30 -10 20 -19 31 -21 25 -3 -9 -7
-9 -13 1 -6 9 -9 10 -9 2z"/>
<path fill="#000000" stroke="none" d="M97 99 c7 -7 15 -10 18 -7 3 3 -2 9
-12 12 -14 6 -15 5 -6 -5z"/>
<path fill="#000000" stroke="none" d="M184 84 c-18 -14 -18 -14 6 -3 31 14
36 19 24 19 -6 0 -19 -7 -30 -16z"/>
<path fill="#000000" stroke="none" d="M65 30 c3 -5 11 -10 16 -10 6 0 7 5 4
10 -3 6 -11 10 -16 10 -6 0 -7 -4 -4 -10z"/>
<path fill="#000000" stroke="none" d="M145 19 c-38 -18 -39 -19 -10 -17 17 2
36 9 44 16 22 21 8 22 -34 1z"/>
</g>
</svg>
