<?xml version="1.0" standalone="no"?>
<!DOCTYPE svg PUBLIC "-//W3C//DTD SVG 20010904//EN"
 "http://www.w3.org/TR/2001/REC-SVG-20010904/DTD/svg10.dtd">
<svg version="1.0" xmlns="http://www.w3.org/2000/svg"
 width="32.000000pt" height="32.000000pt" viewBox="0 0 32.000000 32.000000"
 preserveAspectRatio="xMidYMid meet">
<metadata>
Created by potrace 1.16, written by Peter Selinger 2001-2019
</metadata>
<g transform="translate(0.000000,32.000000) scale(0.100000,-0.100000)"
fill="#000000" stroke="none">
<path fill="#000000" stroke="none" d="M0 160 l0 -160 160 0 160 0 0 160 0
160 -160 0 -160 0 0 -160z"/>
<path fill="#ffffff" stroke="none" d="M298 278 c18 -18 15 -39 -10 -65 l-21
-22 20 -56 c11 -30 17 -52 13 -50 -5 3 -16 28 -25 56 -14 40 -20 48 -31 39
-15 -13 -10 -53 12 -108 7 -18 9 -30 4 -27 -8 5 -23 46 -34 96 -5 21 -10 25
-29 22 -23 -5 -23 -7 -15 -65 4 -34 14 -68 21 -76 10 -13 9 -14 -3 -10 -9 3
-18 25 -23 59 -14 88 -17 100 -27 94 -6 -3 -10 -17 -10 -30 0 -13 -4 -26 -10
-30 -5 -3 -6 -13 -3 -22 5 -12 2 -12 -15 3 -12 10 -22 25 -22 34 0 13 2 13 11
0 7 -10 9 -11 7 -2 -8 30 -23 8 -22 -31 1 -23 0 -32 -3 -19 -2 12 -9 22 -15
22 -6 0 -8 12 -4 32 3 17 3 28 -1 24 -4 -4 -10 -30 -13 -58 -3 -34 -10 -53
-20 -56 -12 -4 -13 -2 -2 9 6 7 12 28 12 47 0 18 4 41 9 50 4 9 11 34 15 54 5
28 4 37 -6 34 -7 -1 -10 -1 -5 1 18 11 4 23 -21 17 -15 -4 -24 -3 -19 1 4 5
27 10 52 11 41 3 45 1 45 -20 0 -28 33 -41 51 -20 6 8 17 14 25 14 7 0 22 14
34 30 22 31 57 39 78 18z"/>
<path fill="#000000" stroke="none" d="M77 244 c-8 -8 3 -34 14 -34 5 0 9 9 9
20 0 19 -11 26 -23 14z"/>
</g>
</svg>
