<?xml version="1.0" standalone="no"?>
<!DOCTYPE svg PUBLIC "-//W3C//DTD SVG 20010904//EN"
 "http://www.w3.org/TR/2001/REC-SVG-20010904/DTD/svg10.dtd">
<svg version="1.0" xmlns="http://www.w3.org/2000/svg"
 width="32.000000pt" height="32.000000pt" viewBox="0 0 32.000000 32.000000"
 preserveAspectRatio="xMidYMid meet">
<metadata>
Created by potrace 1.16, written by Peter Selinger 2001-2019
</metadata>
<g transform="translate(0.000000,32.000000) scale(0.100000,-0.100000)"
fill="#000000" stroke="none">
<path fill="#000000" stroke="none" d="M0 160 l0 -160 160 0 160 0 0 160 0
160 -160 0 -160 0 0 -160z"/>
<path fill="#ffffff" stroke="none" d="M160 257 c0 -7 -4 -6 -10 3 -8 12 -10
10 -11 -10 -1 -17 -3 -20 -6 -7 -2 9 -10 15 -16 11 -7 -3 -3 1 7 10 20 16 36
13 36 -7z"/>
<path fill="#ffffff" stroke="none" d="M235 225 c30 -29 31 -40 8 -55 -15 -8
-14 -9 8 -4 18 4 30 0 40 -13 13 -17 13 -17 -4 -4 -14 11 -23 12 -44 2 -24
-11 -25 -13 -8 -25 14 -10 16 -19 10 -42 -8 -27 -9 -27 -12 -7 -3 14 -12 23
-22 23 -13 0 -17 -8 -15 -32 1 -26 0 -27 -3 -5 -3 21 -10 27 -28 27 -13 0 -27
-5 -31 -11 -3 -6 -15 -9 -25 -6 -11 3 -19 0 -19 -6 0 -7 -5 -4 -11 6 -6 9 -15
15 -20 11 -6 -3 -10 0 -8 7 4 30 -2 50 -12 43 -6 -3 -3 8 6 26 9 17 14 34 11
38 -10 9 26 42 46 42 12 0 18 -7 17 -22 -1 -17 -2 -19 -6 -5 -6 21 -26 22 -43
2 -10 -12 -10 -15 3 -15 8 0 21 -8 28 -17 13 -17 12 -17 -5 -3 -16 13 -20 12
-32 -5 -17 -23 -19 -44 -2 -27 7 7 20 12 30 12 11 0 23 13 32 34 25 59 71 72
111 31z"/>
<path fill="#000000" stroke="none" d="M70 120 c0 -5 5 -10 11 -10 5 0 7 5 4
10 -3 6 -8 10 -11 10 -2 0 -4 -4 -4 -10z"/>
<path fill="#000000" stroke="none" d="M160 115 c-10 -12 -5 -14 34 -12 25 1
46 6 46 11 0 5 -16 6 -35 3 -21 -3 -33 -2 -30 4 9 14 -1 11 -15 -6z"/>
<path fill="#000000" stroke="none" d="M100 100 c0 -5 5 -10 11 -10 5 0 7 5 4
10 -3 6 -8 10 -11 10 -2 0 -4 -4 -4 -10z"/>
</g>
</svg>
