<?xml version="1.0" standalone="no"?>
<!DOCTYPE svg PUBLIC "-//W3C//DTD SVG 20010904//EN"
 "http://www.w3.org/TR/2001/REC-SVG-20010904/DTD/svg10.dtd">
<svg version="1.0" xmlns="http://www.w3.org/2000/svg"
 width="32.000000pt" height="32.000000pt" viewBox="0 0 32.000000 32.000000"
 preserveAspectRatio="xMidYMid meet">
<metadata>
Created by potrace 1.16, written by Peter Selinger 2001-2019
</metadata>
<g transform="translate(0.000000,32.000000) scale(0.100000,-0.100000)"
fill="#000000" stroke="none">
<path fill="#000000" stroke="none" d="M0 160 l0 -160 160 0 160 0 0 160 0
160 -160 0 -160 0 0 -160z"/>
<path fill="#ffffff" stroke="none" d="M139 233 c0 -11 -3 -13 -6 -5 -2 6 -10
9 -15 6 -7 -4 -8 -2 -4 4 11 18 26 14 25 -5z"/>
<path fill="#ffffff" stroke="none" d="M226 229 c8 -6 14 -21 13 -33 0 -12 -3
-15 -6 -8 -4 10 -9 8 -19 -6 -14 -20 -29 -23 -51 -9 -17 10 -17 -5 0 -22 10
-10 7 -16 -13 -31 -14 -11 -30 -20 -37 -20 -6 0 -13 -6 -16 -12 -3 -7 -5 -2
-4 12 0 14 4 30 9 36 5 7 2 16 -7 24 -12 10 -18 10 -30 0 -13 -11 -14 -10 -9
4 8 20 28 21 44 2 17 -21 37 -9 45 27 4 18 7 34 7 37 -1 11 61 10 74 -1z"/>
<path fill="#ffffff" stroke="none" d="M119 198 c-1 -16 -3 -18 -6 -6 -2 9
-12 19 -21 21 -12 3 -10 5 6 6 17 1 22 -4 21 -21z"/>
<path fill="#ffffff" stroke="none" d="M277 174 c-3 -3 -12 -4 -19 -1 -8 3 -5
6 6 6 11 1 17 -2 13 -5z"/>
<path fill="#ffffff" stroke="none" d="M251 109 c-6 -16 -10 -18 -10 -7 -1 9
-4 18 -8 21 -5 2 -2 2 6 0 9 -2 11 2 7 14 -5 13 -4 15 4 7 7 -7 7 -18 1 -35z"/>
<path fill="#ffffff" stroke="none" d="M41 117 c-10 -9 -11 -8 -5 6 3 10 9 15
12 12 3 -3 0 -11 -7 -18z"/>
<path fill="#ffffff" stroke="none" d="M207 98 c0 -20 -1 -24 -4 -10 -2 12
-10 22 -16 22 -9 0 4 14 18 20 1 0 1 -15 2 -32z"/>
<path fill="#ffffff" stroke="none" d="M140 85 c-7 -8 -17 -15 -22 -15 -6 0
-5 7 2 15 7 8 17 15 22 15 6 0 5 -7 -2 -15z"/>
<path fill="#000000" stroke="none" d="M145 140 c3 -5 8 -10 11 -10 2 0 4 5 4
10 0 6 -5 10 -11 10 -5 0 -7 -4 -4 -10z"/>
</g>
</svg>
