<?xml version="1.0" standalone="no"?>
<!DOCTYPE svg PUBLIC "-//W3C//DTD SVG 20010904//EN"
 "http://www.w3.org/TR/2001/REC-SVG-20010904/DTD/svg10.dtd">
<svg version="1.0" xmlns="http://www.w3.org/2000/svg"
 width="32.000000pt" height="32.000000pt" viewBox="0 0 32.000000 32.000000"
 preserveAspectRatio="xMidYMid meet">
<metadata>
Created by potrace 1.16, written by Peter Selinger 2001-2019
</metadata>
<g transform="translate(0.000000,32.000000) scale(0.100000,-0.100000)"
fill="#000000" stroke="none">
<path fill="#000000" stroke="none" d="M0 160 l0 -160 160 0 160 0 0 160 0
160 -160 0 -160 0 0 -160z"/>
<path fill="#ffffff" stroke="none" d="M156 268 c4 -7 3 -8 -4 -4 -8 4 -12 0
-12 -11 0 -15 -2 -16 -10 -3 -6 9 -5 17 3 22 15 10 15 10 23 -4z"/>
<path fill="#ffffff" stroke="none" d="M236 225 c14 -14 23 -32 20 -40 -2 -7
0 -15 7 -18 6 -2 3 -6 -7 -10 -10 -4 -15 -3 -11 3 9 15 -8 12 -35 -7 -25 -16
-25 -16 -7 3 23 28 21 37 -5 23 -22 -12 -22 -11 -8 7 15 18 14 18 -13 1 -28
-18 -28 -18 -18 2 10 17 9 20 -4 15 -23 -9 -18 13 7 30 31 22 45 20 74 -9z"/>
<path fill="#ffffff" stroke="none" d="M120 223 c0 -10 -4 -14 -8 -8 -4 6 -11
13 -16 18 -5 4 -2 7 7 7 10 0 17 -8 17 -17z"/>
<path fill="#ffffff" stroke="none" d="M95 190 c3 -6 -1 -7 -9 -4 -18 7 -21
14 -7 14 6 0 13 -4 16 -10z"/>
<path fill="#ffffff" stroke="none" d="M126 135 c28 -29 24 -51 -7 -35 -10 6
-19 7 -19 3 0 -4 -5 0 -11 10 -5 9 -7 23 -3 30 5 7 0 6 -12 -3 -18 -14 -18
-14 -5 3 18 23 27 22 57 -8z"/>
<path fill="#ffffff" stroke="none" d="M234 101 c4 -5 -3 -7 -14 -4 -23 6 -26
13 -6 13 8 0 17 -4 20 -9z"/>
<path fill="#ffffff" stroke="none" d="M197 80 c3 -10 2 -11 -4 -4 -4 6 -15
14 -23 17 -11 5 -9 6 4 4 11 -1 21 -9 23 -17z"/>
</g>
</svg>
