<?xml version="1.0" standalone="no"?>
<!DOCTYPE svg PUBLIC "-//W3C//DTD SVG 20010904//EN"
 "http://www.w3.org/TR/2001/REC-SVG-20010904/DTD/svg10.dtd">
<svg version="1.0" xmlns="http://www.w3.org/2000/svg"
 width="32.000000pt" height="32.000000pt" viewBox="0 0 32.000000 32.000000"
 preserveAspectRatio="xMidYMid meet">
<metadata>
Created by potrace 1.16, written by Peter Selinger 2001-2019
</metadata>
<g transform="translate(0.000000,32.000000) scale(0.100000,-0.100000)"
fill="#000000" stroke="none">
<path fill="#000000" stroke="none" d="M0 160 l0 -160 160 0 160 0 0 160 0
160 -160 0 -160 0 0 -160z"/>
<path fill="#ffffff" stroke="none" d="M185 277 c23 -6 36 -20 31 -34 -4 -9
-1 -22 6 -30 19 -23 16 -76 -5 -99 -13 -15 -15 -24 -7 -29 8 -5 8 -10 -1 -21
-6 -7 -9 -20 -6 -29 11 -28 -10 -24 -46 8 -35 31 -36 33 -35 104 1 47 -3 77
-11 87 -12 14 -11 19 5 37 12 13 25 18 39 14 11 -3 25 -7 30 -8z"/>
<path fill="#000000" stroke="none" d="M120 264 c-11 -12 -10 -18 3 -32 16
-15 19 -15 40 6 19 19 20 24 7 32 -21 14 -36 12 -50 -6z"/>
<path fill="#000000" stroke="none" d="M152 217 c-15 -16 -22 -36 -22 -65 0
-23 4 -42 9 -42 5 0 11 -11 15 -23 5 -22 17 -25 56 -18 3 1 -9 14 -27 30 -18
16 -28 32 -24 37 5 5 12 18 15 29 4 14 4 12 2 -6 -1 -14 3 -30 10 -37 20 -19
24 -15 18 18 -5 21 -3 30 6 30 9 0 10 3 1 13 -6 8 -8 17 -4 20 6 7 -15 37 -26
37 -4 0 -17 -10 -29 -23z"/>
</g>
</svg>
