<?xml version="1.0" standalone="no"?>
<!DOCTYPE svg PUBLIC "-//W3C//DTD SVG 20010904//EN"
 "http://www.w3.org/TR/2001/REC-SVG-20010904/DTD/svg10.dtd">
<svg version="1.0" xmlns="http://www.w3.org/2000/svg"
 width="32.000000pt" height="32.000000pt" viewBox="0 0 32.000000 32.000000"
 preserveAspectRatio="xMidYMid meet">
<metadata>
Created by potrace 1.16, written by Peter Selinger 2001-2019
</metadata>
<g transform="translate(0.000000,32.000000) scale(0.100000,-0.100000)"
fill="#000000" stroke="none">
<path fill="#000000" stroke="none" d="M116 271 c-16 -18 -17 -23 -5 -37 8
-10 12 -40 11 -87 -1 -71 0 -73 35 -104 36 -32 57 -36 46 -8 -3 9 0 22 6 29 9
11 9 16 1 21 -8 5 -6 14 7 29 21 23 24 76 5 99 -7 8 -10 21 -6 30 5 14 -8 28
-31 34 -5 1 -19 5 -30 8 -14 4 -27 -1 -39 -14z"/>
<path fill="#ffffff" stroke="none" d="M170 270 c8 -5 12 -12 8 -15 -3 -4 8
-20 24 -36 17 -16 26 -29 19 -29 -7 0 -9 -4 -6 -10 3 -5 1 -10 -5 -10 -6 0 -8
-5 -5 -10 4 -6 10 -8 14 -6 4 3 8 -1 8 -8 0 -8 -6 -12 -14 -9 -9 4 -11 0 -7
-11 4 -11 1 -16 -11 -16 -17 0 -17 -1 -1 -19 13 -14 14 -21 5 -27 -8 -5 -10
-3 -4 6 5 9 4 11 -3 6 -8 -4 -8 -15 -2 -31 9 -23 8 -24 -11 -12 -11 6 -22 23
-26 35 -4 18 -8 20 -14 10 -5 -7 -8 19 -7 64 2 51 -2 81 -11 92 -11 13 -11 19
-1 31 14 17 29 19 50 5z"/>
<path fill="#ffffff" stroke="none" d="M210 249 c0 -6 -4 -7 -10 -4 -5 3 -10
11 -10 16 0 6 5 7 10 4 6 -3 10 -11 10 -16z"/>
</g>
</svg>
