<?xml version="1.0" standalone="no"?>
<!DOCTYPE svg PUBLIC "-//W3C//DTD SVG 20010904//EN"
 "http://www.w3.org/TR/2001/REC-SVG-20010904/DTD/svg10.dtd">
<svg version="1.0" xmlns="http://www.w3.org/2000/svg"
 width="32.000000pt" height="32.000000pt" viewBox="0 0 32.000000 32.000000"
 preserveAspectRatio="xMidYMid meet">
<metadata>
Created by potrace 1.16, written by Peter Selinger 2001-2019
</metadata>
<g transform="translate(0.000000,32.000000) scale(0.100000,-0.100000)"
fill="#000000" stroke="none">
<path fill="#000000" stroke="none" d="M131 233 c-1 -18 4 -23 24 -23 20 0 25
5 24 23 -1 16 -2 18 -6 5 -2 -10 -11 -18 -18 -18 -7 0 -16 8 -18 18 -4 13 -5
11 -6 -5z"/>
<path fill="#000000" stroke="none" d="M124 189 c-3 -5 14 -9 37 -9 23 0 40 2
37 5 -9 9 -68 12 -74 4z"/>
<path fill="#000000" stroke="none" d="M110 158 c0 -9 5 -20 10 -23 13 -8 13
5 0 25 -8 13 -10 13 -10 -2z"/>
<path fill="#000000" stroke="none" d="M175 160 c3 -5 8 -10 11 -10 2 0 4 5 4
10 0 6 -5 10 -11 10 -5 0 -7 -4 -4 -10z"/>
<path fill="#000000" stroke="none" d="M50 145 c0 -18 36 -20 46 -3 4 6 3 8
-4 4 -6 -3 -13 -2 -17 4 -9 15 -25 12 -25 -5z"/>
<path fill="#000000" stroke="none" d="M145 140 c3 -5 8 -10 11 -10 2 0 4 5 4
10 0 6 -5 10 -11 10 -5 0 -7 -4 -4 -10z"/>
<path fill="#000000" stroke="none" d="M192 129 c-7 -11 -23 -24 -35 -29 -19
-8 -19 -9 -3 -9 20 -1 70 45 57 53 -4 3 -13 -4 -19 -15z"/>
<path fill="#000000" stroke="none" d="M105 20 c-3 -5 1 -10 9 -10 9 0 16 5
16 10 0 6 -4 10 -9 10 -6 0 -13 -4 -16 -10z"/>
<path fill="#000000" stroke="none" d="M195 20 c3 -5 13 -10 21 -10 8 0 12 4
9 10 -3 6 -13 10 -21 10 -8 0 -12 -4 -9 -10z"/>
</g>
</svg>
