<?xml version="1.0" standalone="no"?>
<!DOCTYPE svg PUBLIC "-//W3C//DTD SVG 20010904//EN"
 "http://www.w3.org/TR/2001/REC-SVG-20010904/DTD/svg10.dtd">
<svg version="1.0" xmlns="http://www.w3.org/2000/svg"
 width="32.000000pt" height="32.000000pt" viewBox="0 0 32.000000 32.000000"
 preserveAspectRatio="xMidYMid meet">
<metadata>
Created by potrace 1.16, written by Peter Selinger 2001-2019
</metadata>
<g transform="translate(0.000000,32.000000) scale(0.100000,-0.100000)"
fill="#000000" stroke="none">
<path fill="#000000" stroke="none" d="M132 230 c0 -14 2 -19 5 -12 2 6 2 18
0 25 -3 6 -5 1 -5 -13z"/>
<path fill="#000000" stroke="none" d="M170 236 c0 -8 -6 -17 -12 -19 -8 -3
-6 -6 5 -6 11 -1 17 6 17 19 0 11 -2 20 -5 20 -3 0 -5 -6 -5 -14z"/>
<path fill="#000000" stroke="none" d="M54 149 c-4 -7 -3 -9 4 -5 5 3 12 0 15
-6 2 -7 7 -10 11 -7 4 3 0 12 -8 18 -11 9 -16 9 -22 0z"/>
<path fill="#000000" stroke="none" d="M160 100 c-23 -7 -23 -8 -3 -9 12 -1
25 4 28 9 3 6 5 10 3 9 -2 -1 -14 -5 -28 -9z"/>
</g>
</svg>
