<?xml version="1.0" standalone="no"?>
<!DOCTYPE svg PUBLIC "-//W3C//DTD SVG 20010904//EN"
 "http://www.w3.org/TR/2001/REC-SVG-20010904/DTD/svg10.dtd">
<svg version="1.0" xmlns="http://www.w3.org/2000/svg"
 width="32.000000pt" height="32.000000pt" viewBox="0 0 32.000000 32.000000"
 preserveAspectRatio="xMidYMid meet">
<metadata>
Created by potrace 1.16, written by Peter Selinger 2001-2019
</metadata>
<g transform="translate(0.000000,32.000000) scale(0.100000,-0.100000)"
fill="#000000" stroke="none">
<path fill="#000000" stroke="none" d="M95 301 c11 -5 28 -12 38 -15 14 -4 16
-10 8 -24 -8 -16 -20 -18 -68 -15 l-58 3 40 -19 c47 -23 71 -26 82 -8 4 6 19
18 32 25 12 8 21 9 17 4 -3 -5 14 -8 37 -8 23 0 41 -4 40 -9 -2 -6 -6 -10 -10
-10 -5 -1 -26 -5 -48 -10 -51 -11 -57 -12 -77 -13 -11 -1 -15 -8 -12 -16 4
-10 19 -14 45 -13 32 1 39 5 40 22 0 11 3 15 6 8 5 -13 28 -4 65 26 23 18 3
39 -34 35 -21 -3 -32 3 -44 21 -16 24 -43 37 -28 14 4 -7 0 -9 -12 -6 -11 4
-32 9 -49 12 -24 4 -26 3 -10 -4z"/>
<path fill="#000000" stroke="none" d="M38 293 c-10 -2 -18 -12 -18 -20 0 -15
2 -14 18 0 17 15 19 15 36 -1 17 -16 18 -16 5 6 -8 12 -16 21 -19 21 -3 -1
-13 -3 -22 -6z"/>
<path fill="#000000" stroke="none" d="M23 200 c2 -36 10 -38 32 -8 14 21 14
23 -2 30 -30 11 -32 9 -30 -22z"/>
<path fill="#000000" stroke="none" d="M61 186 c-9 -10 -8 -16 4 -26 8 -7 15
-11 16 -9 6 31 6 40 -1 44 -4 3 -13 -1 -19 -9z"/>
<path fill="#000000" stroke="none" d="M228 183 c-4 -7 -4 -18 1 -39 0 -4 8
-1 16 6 12 10 15 10 15 -4 0 -9 7 -16 15 -16 8 0 15 7 15 15 0 8 -5 15 -12 15
-6 0 -19 7 -29 16 -9 8 -19 12 -21 7z"/>
<path fill="#000000" stroke="none" d="M145 163 c-23 -4 -50 -56 -41 -79 9
-23 29 -5 23 21 -3 18 1 25 20 30 13 3 29 3 34 -1 7 -4 10 1 7 11 -3 20 -13
24 -43 18z"/>
<path fill="#000000" stroke="none" d="M37 153 c-13 -12 -7 -33 8 -33 8 0 15
9 15 20 0 20 -11 26 -23 13z"/>
<path fill="#000000" stroke="none" d="M145 120 c-7 -12 5 -60 15 -60 8 0 20
34 20 58 0 14 -26 16 -35 2z"/>
<path fill="#000000" stroke="none" d="M193 114 c-3 -8 -1 -20 6 -27 8 -8 11
-4 11 16 0 30 -7 35 -17 11z"/>
</g>
</svg>
