<?xml version="1.0" standalone="no"?>
<!DOCTYPE svg PUBLIC "-//W3C//DTD SVG 20010904//EN"
 "http://www.w3.org/TR/2001/REC-SVG-20010904/DTD/svg10.dtd">
<svg version="1.0" xmlns="http://www.w3.org/2000/svg"
 width="32.000000pt" height="32.000000pt" viewBox="0 0 32.000000 32.000000"
 preserveAspectRatio="xMidYMid meet">
<metadata>
Created by potrace 1.16, written by Peter Selinger 2001-2019
</metadata>
<g transform="translate(0.000000,32.000000) scale(0.100000,-0.100000)"
fill="#000000" stroke="none">
<path fill="#000000" stroke="none" d="M90 301 c8 -6 23 -11 32 -11 15 0 16
-4 7 -22 -8 -20 -18 -23 -60 -23 l-51 0 -2 -42 c-2 -37 0 -41 16 -32 9 5 22
18 28 28 8 16 5 20 -16 25 -15 4 -24 9 -21 12 2 3 24 -3 47 -12 30 -12 47 -14
59 -7 9 5 39 10 66 10 28 0 41 -1 29 -4 -17 -3 -20 -10 -16 -31 7 -39 21 -55
38 -41 11 9 11 15 -3 35 -13 20 -13 24 -1 24 8 0 22 8 31 18 20 22 3 39 -36
35 -19 -1 -32 5 -43 23 -16 23 -42 36 -28 13 4 -7 0 -9 -12 -6 -11 4 -32 9
-49 12 -23 5 -26 4 -15 -4z"/>
<path fill="#000000" stroke="none" d="M17 280 c4 -15 14 -20 39 -20 32 0 33
1 22 20 -8 12 -24 20 -39 20 -22 0 -26 -4 -22 -20z"/>
<path fill="#000000" stroke="none" d="M67 192 c-15 -17 -16 -21 -3 -31 11 -9
16 -9 22 0 5 8 3 10 -7 5 -8 -4 -5 0 5 8 14 11 17 19 10 26 -7 7 -16 4 -27 -8z"/>
<path fill="#000000" stroke="none" d="M128 201 c-29 -10 -5 -29 35 -28 28 1
37 5 37 18 0 18 -35 23 -72 10z"/>
<path fill="#000000" stroke="none" d="M145 163 c-11 -2 -26 -17 -34 -34 -14
-32 -8 -65 10 -53 8 4 9 3 5 -5 -4 -6 -12 -9 -17 -6 -5 4 -9 -5 -9 -19 0 -13
-6 -27 -12 -29 -7 -3 -1 -6 14 -6 21 -1 26 3 22 14 -4 8 -1 22 6 30 9 11 9 23
2 44 -9 27 -8 30 14 35 14 4 30 4 35 0 7 -4 10 1 7 11 -3 20 -13 24 -43 18z"/>
<path fill="#000000" stroke="none" d="M37 153 c-13 -12 -7 -33 8 -33 8 0 15
9 15 20 0 20 -11 26 -23 13z"/>
<path fill="#000000" stroke="none" d="M257 153 c-13 -12 -7 -23 13 -23 11 0
20 7 20 15 0 15 -21 21 -33 8z"/>
<path fill="#000000" stroke="none" d="M145 120 c-7 -12 5 -60 15 -60 5 0 7
-12 4 -27 -3 -19 -1 -24 5 -14 6 9 11 10 15 2 4 -6 22 -10 39 -10 27 2 28 2 7
6 -38 7 -51 22 -44 52 4 20 3 23 -5 11 -8 -11 -9 -7 -5 18 5 25 3 32 -9 32 -9
0 -18 -4 -22 -10z"/>
<path fill="#000000" stroke="none" d="M193 114 c-3 -8 -1 -20 6 -27 8 -8 11
-4 11 16 0 30 -7 35 -17 11z"/>
<path fill="#000000" stroke="none" d="M55 59 l-30 -19 33 0 c25 0 32 4 32 20
0 11 -1 20 -2 19 -2 0 -16 -9 -33 -20z"/>
</g>
</svg>
