<?xml version="1.0" standalone="no"?>
<!DOCTYPE svg PUBLIC "-//W3C//DTD SVG 20010904//EN"
 "http://www.w3.org/TR/2001/REC-SVG-20010904/DTD/svg10.dtd">
<svg version="1.0" xmlns="http://www.w3.org/2000/svg"
 width="32.000000pt" height="48.000000pt" viewBox="0 0 32.000000 48.000000"
 preserveAspectRatio="xMidYMid meet">
<metadata>
Created by potrace 1.16, written by Peter Selinger 2001-2019
</metadata>
<g transform="translate(0.000000,48.000000) scale(0.100000,-0.100000)"
fill="#000000" stroke="none">
<path fill="#000000" stroke="none" d="M1 458 c1 -17 3 -18 6 -6 3 13 18 18
56 21 l52 3 -57 2 c-54 2 -58 1 -57 -20z"/>
<path fill="#000000" stroke="none" d="M230 474 c38 -8 90 -9 90 -2 0 4 -24 7
-52 7 -29 -1 -46 -3 -38 -5z"/>
<path fill="#000000" stroke="none" d="M116 461 c-4 -5 3 -7 14 -4 23 6 26 13
6 13 -8 0 -17 -4 -20 -9z"/>
<path fill="#000000" stroke="none" d="M1 364 c0 -11 3 -14 6 -6 3 7 2 16 -1
19 -3 4 -6 -2 -5 -13z"/>
<path fill="#000000" stroke="none" d="M240 371 c0 -5 5 -13 10 -16 6 -3 10
-2 10 4 0 5 -4 13 -10 16 -5 3 -10 2 -10 -4z"/>
<path fill="#000000" stroke="none" d="M41 317 c-8 -10 -7 -14 4 -14 8 0 15 6
15 14 0 7 -2 13 -4 13 -2 0 -9 -6 -15 -13z"/>
<path fill="#000000" stroke="none" d="M124 299 c-6 -11 8 -17 34 -15 12 0 21
5 20 10 -3 11 -48 15 -54 5z"/>
<path fill="#000000" stroke="none" d="M3 245 c1 -36 3 -40 26 -41 14 -1 20 1
12 4 -10 3 -5 9 15 18 22 10 23 12 5 8 -14 -4 -27 -1 -33 7 -8 11 -9 10 -4 -3
3 -10 1 -18 -4 -18 -5 0 -11 15 -13 33 -4 27 -4 26 -4 -8z"/>
<path fill="#000000" stroke="none" d="M101 256 c-10 -12 -8 -13 8 -9 12 3 18
9 15 14 -7 12 -10 11 -23 -5z"/>
<path fill="#000000" stroke="none" d="M20 135 l0 -62 50 16 50 16 -29 12
c-16 7 -32 16 -35 21 -9 15 6 52 18 45 6 -3 8 -2 3 2 -4 5 -18 9 -32 10 -24 1
-25 -2 -25 -60z"/>
<path fill="#000000" stroke="none" d="M174 172 c4 -3 14 -7 22 -8 9 -1 13 0
10 4 -4 3 -14 7 -22 8 -9 1 -13 0 -10 -4z"/>
<path fill="#000000" stroke="none" d="M4 85 c0 -50 1 -71 3 -48 2 23 2 64 0
90 -2 26 -3 8 -3 -42z"/>
<path fill="#000000" stroke="none" d="M190 88 c0 -5 -6 -6 -12 -2 -7 4 -10 4
-6 -1 4 -4 3 -13 -2 -20 -7 -8 4 -12 40 -14 40 -2 50 1 50 14 0 9 -6 15 -12
14 -25 -3 -39 1 -34 9 3 5 -1 9 -9 9 -8 0 -15 -4 -15 -9z"/>
<path fill="#000000" stroke="none" d="M95 60 l-40 -8 47 1 c26 0 45 4 42 9
-3 4 -6 7 -7 7 -1 -1 -20 -5 -42 -9z"/>
<path fill="#000000" stroke="none" d="M78 3 c7 -3 16 -2 19 1 4 3 -2 6 -13 5
-11 0 -14 -3 -6 -6z"/>
</g>
</svg>
