<?xml version="1.0" standalone="no"?>
<!DOCTYPE svg PUBLIC "-//W3C//DTD SVG 20010904//EN"
 "http://www.w3.org/TR/2001/REC-SVG-20010904/DTD/svg10.dtd">
<svg version="1.0" xmlns="http://www.w3.org/2000/svg"
 width="32.000000pt" height="32.000000pt" viewBox="0 0 32.000000 32.000000"
 preserveAspectRatio="xMidYMid meet">
<metadata>
Created by potrace 1.16, written by Peter Selinger 2001-2019
</metadata>
<g transform="translate(0.000000,32.000000) scale(0.100000,-0.100000)"
fill="#000000" stroke="none">
<path fill="#000000" stroke="none" d="M0 160 l0 -160 160 0 160 0 0 160 0
160 -160 0 -160 0 0 -160z"/>
<path fill="#ffffff" stroke="none" d="M154 293 c12 -3 16 -1 12 6 -14 23 12
10 28 -13 11 -18 24 -24 43 -23 39 4 56 -13 36 -35 -9 -10 -22 -18 -30 -18
-11 0 -11 -4 -1 -22 7 -13 11 -26 10 -29 -1 -4 8 -5 18 -2 14 4 20 0 20 -11 0
-9 -8 -16 -18 -16 -29 0 -62 29 -62 55 0 36 -46 54 -81 32 -12 -7 -29 -5 -59
7 -23 9 -45 15 -47 12 -3 -3 6 -8 21 -12 21 -5 24 -9 16 -25 -6 -10 -19 -23
-28 -28 -16 -9 -18 -5 -16 32 l2 42 51 0 c42 0 52 3 60 23 9 18 8 22 -7 22 -9
0 -24 5 -32 11 -11 8 -8 9 15 4 17 -3 38 -8 49 -12z"/>
<path fill="#ffffff" stroke="none" d="M78 280 c11 -19 10 -20 -22 -20 -25 0
-35 5 -39 20 -4 16 0 20 22 20 15 0 31 -8 39 -20z"/>
<path fill="#ffffff" stroke="none" d="M100 186 c0 -22 -25 -37 -38 -24 -9 9
-8 16 4 30 18 19 34 16 34 -6z"/>
<path fill="#ffffff" stroke="none" d="M200 188 c0 -13 -5 -18 -14 -15 -8 3
-27 2 -43 -3 -28 -9 -27 -9 7 -7 27 2 35 -2 38 -17 2 -11 0 -16 -7 -12 -5 4
-21 4 -35 0 -22 -5 -23 -8 -14 -35 7 -21 7 -33 -2 -44 -7 -8 -10 -22 -6 -30 4
-11 -1 -15 -22 -14 -15 0 -21 3 -14 6 6 2 12 16 12 29 0 14 4 23 9 19 5 -3 13
0 17 6 4 8 3 9 -5 5 -16 -11 -26 22 -13 47 6 12 10 33 9 47 -2 27 11 37 56 38
21 0 27 -4 27 -20z"/>
<path fill="#ffffff" stroke="none" d="M60 140 c0 -11 -7 -20 -15 -20 -15 0
-21 21 -8 33 12 13 23 7 23 -13z"/>
<path fill="#ffffff" stroke="none" d="M176 98 c-4 -25 -3 -29 5 -18 8 12 9 9
5 -11 -7 -30 6 -45 44 -52 21 -4 20 -4 -7 -6 -17 0 -35 4 -39 10 -4 8 -9 7
-15 -2 -6 -10 -8 -5 -5 14 3 15 1 27 -4 27 -10 0 -22 48 -15 60 4 6 13 10 22
10 12 0 14 -7 9 -32z"/>
<path fill="#ffffff" stroke="none" d="M210 103 c0 -20 -3 -24 -11 -16 -7 7
-9 19 -6 27 10 24 17 19 17 -11z"/>
<path fill="#ffffff" stroke="none" d="M90 60 c0 -16 -7 -20 -32 -20 l-33 0
30 19 c17 11 31 20 33 20 1 1 2 -8 2 -19z"/>
</g>
</svg>
