<?xml version="1.0" standalone="no"?>
<!DOCTYPE svg PUBLIC "-//W3C//DTD SVG 20010904//EN"
 "http://www.w3.org/TR/2001/REC-SVG-20010904/DTD/svg10.dtd">
<svg version="1.0" xmlns="http://www.w3.org/2000/svg"
 width="32.000000pt" height="32.000000pt" viewBox="0 0 32.000000 32.000000"
 preserveAspectRatio="xMidYMid meet">
<metadata>
Created by potrace 1.16, written by Peter Selinger 2001-2019
</metadata>
<g transform="translate(0.000000,32.000000) scale(0.100000,-0.100000)"
fill="#000000" stroke="none">
<path fill="#000000" stroke="none" d="M106 292 c26 -14 30 -20 22 -37 -7 -17
-17 -20 -61 -18 l-52 3 40 -19 c45 -22 71 -26 80 -11 9 14 51 12 62 -2 6 -7
13 -26 17 -41 9 -38 76 -65 76 -31 0 11 -6 15 -20 11 -10 -3 -19 -2 -18 2 1 3
-3 16 -10 29 -10 18 -10 22 1 22 8 0 21 8 30 18 19 21 4 38 -33 36 -27 -2 -50
12 -50 29 0 6 6 3 13 -8 13 -17 14 -17 20 4 4 16 1 21 -13 21 -10 0 -26 3 -34
6 -12 5 -15 2 -10 -10 7 -20 -3 -20 -36 -1 -14 8 -32 14 -40 14 -8 0 -1 -8 16
-17z"/>
<path fill="#000000" stroke="none" d="M18 275 c3 -21 10 -25 37 -25 32 0 33
1 22 25 -8 17 -20 25 -38 25 -23 0 -26 -3 -21 -25z"/>
<path fill="#000000" stroke="none" d="M20 208 c0 -7 -3 -24 -6 -38 l-6 -25
27 29 c21 22 24 31 13 37 -19 12 -28 11 -28 -3z"/>
<path fill="#000000" stroke="none" d="M66 182 c-12 -14 -13 -21 -4 -30 13
-13 38 2 38 24 0 22 -16 25 -34 6z"/>
<path fill="#000000" stroke="none" d="M130 191 c-9 -3 -14 -16 -13 -31 1 -14
-3 -35 -9 -47 -13 -25 -3 -58 13 -47 8 4 9 3 5 -5 -4 -6 -12 -9 -17 -6 -5 4
-9 -3 -9 -14 0 -10 -6 -22 -12 -24 -7 -3 -1 -6 14 -6 21 -1 26 3 22 14 -4 8
-1 21 5 29 8 9 8 22 2 39 -9 22 -7 26 15 31 14 4 30 4 35 0 7 -4 9 1 7 12 -3
15 -11 19 -38 17 -34 -2 -35 -2 -7 7 16 5 35 6 43 3 9 -3 14 2 14 15 0 16 -6
20 -27 20 -16 -1 -35 -4 -43 -7z"/>
<path fill="#000000" stroke="none" d="M37 143 c-13 -12 -7 -33 8 -33 8 0 15
9 15 20 0 20 -11 26 -23 13z"/>
<path fill="#000000" stroke="none" d="M145 110 c-9 -14 5 -58 21 -64 8 -3 11
-13 8 -23 -4 -14 -4 -15 4 -4 7 9 12 10 16 2 4 -6 22 -10 39 -10 29 2 30 2 5
6 -36 6 -54 28 -38 47 6 8 10 25 8 38 -4 21 -5 20 -20 -12 l-17 -35 6 33 c4
25 2 32 -10 32 -9 0 -18 -4 -22 -10z"/>
<path fill="#000000" stroke="none" d="M55 59 l-30 -19 33 0 c25 0 32 4 32 20
0 11 -1 20 -2 19 -2 0 -16 -9 -33 -20z"/>
</g>
</svg>
