<?xml version="1.0" standalone="no"?>
<!DOCTYPE svg PUBLIC "-//W3C//DTD SVG 20010904//EN"
 "http://www.w3.org/TR/2001/REC-SVG-20010904/DTD/svg10.dtd">
<svg version="1.0" xmlns="http://www.w3.org/2000/svg"
 width="32.000000pt" height="32.000000pt" viewBox="0 0 32.000000 32.000000"
 preserveAspectRatio="xMidYMid meet">
<metadata>
Created by potrace 1.16, written by Peter Selinger 2001-2019
</metadata>
<g transform="translate(0.000000,32.000000) scale(0.100000,-0.100000)"
fill="#000000" stroke="none">
<path fill="#000000" stroke="none" d="M0 160 l0 -160 160 0 160 0 0 160 0
160 -160 0 -160 0 0 -160z"/>
<path fill="#ffffff" stroke="none" d="M158 294 c21 -4 24 -3 12 5 -8 6 -10
11 -4 11 7 0 19 -11 28 -25 12 -18 23 -24 44 -21 35 4 58 -17 37 -34 -11 -9
-15 -9 -15 -1 0 6 -9 2 -20 -9 -12 -12 -25 -18 -30 -15 -13 8 -22 -12 -26 -63
-3 -25 -7 -49 -11 -52 -3 -3 -3 7 -1 23 3 16 1 27 -6 27 -7 0 -10 -15 -8 -42
3 -24 1 -40 -3 -36 -4 3 -9 26 -11 51 -4 38 -1 45 18 55 22 11 22 11 -3 6 -16
-3 -30 0 -38 10 -11 14 -11 16 5 18 21 1 25 2 76 12 49 11 39 26 -17 26 -29 0
-45 -5 -49 -15 -3 -8 -13 -15 -21 -15 -9 0 -14 3 -12 8 3 4 -11 7 -32 8 -20 1
-28 -1 -19 -3 14 -4 16 -8 8 -23 -6 -11 -18 -24 -28 -29 -16 -8 -18 -5 -17 28
0 39 1 40 73 44 20 1 40 7 44 12 13 18 8 35 -9 35 -10 0 -25 5 -33 11 -12 8
-9 9 13 5 15 -3 39 -9 55 -12z"/>
<path fill="#ffffff" stroke="none" d="M78 280 c11 -19 10 -20 -22 -20 -25 0
-35 5 -39 20 -4 16 0 20 22 20 15 0 31 -8 39 -20z"/>
<path fill="#ffffff" stroke="none" d="M85 172 c-2 -9 -4 -19 -4 -21 -1 -2 -8
2 -16 9 -12 10 -13 16 -4 26 14 17 28 9 24 -14z"/>
<path fill="#ffffff" stroke="none" d="M255 160 c-3 -5 4 -6 15 -3 14 4 20 0
20 -11 0 -13 -5 -14 -27 -5 -16 6 -30 10 -33 10 -6 -1 -8 21 -2 32 2 4 10 3
18 -4 7 -6 12 -15 9 -19z"/>
<path fill="#ffffff" stroke="none" d="M60 151 c0 -5 -7 -14 -15 -21 -12 -10
-15 -10 -15 2 0 8 3 18 7 21 9 10 23 9 23 -2z"/>
<path fill="#ffffff" stroke="none" d="M121 109 c-6 -32 -10 -39 -15 -27 -5
10 -2 31 5 47 18 40 20 34 10 -20z"/>
<path fill="#ffffff" stroke="none" d="M207 93 c-3 -10 -5 -4 -5 12 0 17 2 24
5 18 2 -7 2 -21 0 -30z"/>
<path fill="#ffffff" stroke="none" d="M80 60 c-24 -15 -36 -11 -14 4 10 8 21
12 24 10 2 -3 -2 -9 -10 -14z"/>
<path fill="#ffffff" stroke="none" d="M178 26 c-7 -8 -15 -12 -17 -11 -5 6
10 25 20 25 5 0 4 -6 -3 -14z"/>
<path fill="#ffffff" stroke="none" d="M123 13 c-7 -2 -21 -2 -30 0 -10 3 -4
5 12 5 17 0 24 -2 18 -5z"/>
<path fill="#ffffff" stroke="none" d="M238 13 c-10 -2 -26 -2 -35 0 -10 3 -2
5 17 5 19 0 27 -2 18 -5z"/>
</g>
</svg>
