<?xml version="1.0" standalone="no"?>
<!DOCTYPE svg PUBLIC "-//W3C//DTD SVG 20010904//EN"
 "http://www.w3.org/TR/2001/REC-SVG-20010904/DTD/svg10.dtd">
<svg version="1.0" xmlns="http://www.w3.org/2000/svg"
 width="32.000000pt" height="32.000000pt" viewBox="0 0 32.000000 32.000000"
 preserveAspectRatio="xMidYMid meet">
<metadata>
Created by potrace 1.16, written by Peter Selinger 2001-2019
</metadata>
<g transform="translate(0.000000,32.000000) scale(0.100000,-0.100000)"
fill="#000000" stroke="none">
<path fill="#000000" stroke="none" d="M90 301 c8 -6 23 -11 32 -11 15 0 16
-4 7 -22 -8 -20 -18 -23 -60 -23 l-51 0 -2 -42 c-2 -37 0 -41 16 -32 9 5 22
18 28 28 8 16 5 20 -16 25 -15 4 -24 9 -21 12 2 3 24 -3 47 -12 30 -12 47 -14
59 -7 9 5 39 10 66 10 34 1 42 -1 26 -6 -21 -6 -22 -8 -10 -21 8 -8 14 -22 14
-30 -2 -24 6 -32 21 -20 11 10 11 16 -3 36 -13 20 -13 24 -1 24 8 0 22 8 31
18 20 22 3 39 -36 35 -19 -1 -32 5 -43 23 -16 23 -42 36 -28 13 4 -7 0 -9 -12
-6 -11 4 -32 9 -49 12 -23 5 -26 4 -15 -4z"/>
<path fill="#000000" stroke="none" d="M17 280 c4 -15 14 -20 39 -20 32 0 33
1 22 20 -8 12 -24 20 -39 20 -22 0 -26 -4 -22 -20z"/>
<path fill="#000000" stroke="none" d="M66 191 c-15 -16 -15 -19 -1 -31 8 -7
15 -11 16 -9 2 9 6 59 4 59 -1 0 -9 -8 -19 -19z"/>
<path fill="#000000" stroke="none" d="M128 201 c-29 -10 -5 -29 35 -28 28 1
37 5 37 18 0 18 -35 23 -72 10z"/>
<path fill="#000000" stroke="none" d="M145 163 c-23 -4 -50 -56 -41 -79 9
-23 29 -5 23 21 -3 18 1 25 20 30 13 3 29 3 34 -1 7 -4 10 1 7 11 -3 20 -13
24 -43 18z"/>
<path fill="#000000" stroke="none" d="M37 153 c-13 -12 -7 -33 8 -33 8 0 15
9 15 20 0 20 -11 26 -23 13z"/>
<path fill="#000000" stroke="none" d="M257 153 c-13 -12 -7 -23 13 -23 11 0
20 7 20 15 0 15 -21 21 -33 8z"/>
<path fill="#000000" stroke="none" d="M145 120 c-7 -12 5 -60 15 -60 8 0 20
34 20 58 0 14 -26 16 -35 2z"/>
<path fill="#000000" stroke="none" d="M193 114 c-3 -8 -1 -20 6 -27 8 -8 11
-4 11 16 0 30 -7 35 -17 11z"/>
<path fill="#000000" stroke="none" d="M55 59 l-30 -19 31 3 c21 1 31 8 31 20
1 9 1 17 0 16 -1 0 -15 -9 -32 -20z"/>
<path fill="#000000" stroke="none" d="M115 60 c-16 -7 -17 -9 -3 -9 9 -1 20
4 23 9 7 11 7 11 -20 0z"/>
<path fill="#000000" stroke="none" d="M163 28 c-2 -19 0 -20 8 -8 8 11 12 12
16 3 2 -7 19 -12 36 -12 30 2 30 2 5 6 -14 2 -32 11 -38 19 -17 20 -25 18 -27
-8z"/>
<path fill="#000000" stroke="none" d="M93 13 c9 -2 23 -2 30 0 6 3 -1 5 -18
5 -16 0 -22 -2 -12 -5z"/>
</g>
</svg>
