<?xml version="1.0" standalone="no"?>
<!DOCTYPE svg PUBLIC "-//W3C//DTD SVG 20010904//EN"
 "http://www.w3.org/TR/2001/REC-SVG-20010904/DTD/svg10.dtd">
<svg version="1.0" xmlns="http://www.w3.org/2000/svg"
 width="32.000000pt" height="32.000000pt" viewBox="0 0 32.000000 32.000000"
 preserveAspectRatio="xMidYMid meet">
<metadata>
Created by potrace 1.16, written by Peter Selinger 2001-2019
</metadata>
<g transform="translate(0.000000,32.000000) scale(0.100000,-0.100000)"
fill="#000000" stroke="none">
<path fill="#000000" stroke="none" d="M0 160 l0 -160 160 0 160 0 0 160 0
160 -160 0 -160 0 0 -160z"/>
<path fill="#ffffff" stroke="none" d="M130 295 c33 -19 43 -19 36 1 -5 12 -2
15 10 10 8 -3 24 -6 34 -6 13 0 17 -5 13 -20 -5 -17 -8 -18 -22 -8 -14 11 -14
11 -3 -4 8 -10 25 -16 40 -15 38 4 54 -13 35 -35 -9 -10 -22 -18 -30 -18 -20
0 4 -41 28 -47 10 -3 19 -12 19 -19 0 -23 -51 -12 -68 15 l-16 24 -18 -53
c-20 -59 -18 -81 2 -28 12 30 14 31 17 10 3 -13 -1 -30 -7 -38 -16 -19 2 -41
38 -47 25 -4 24 -4 -5 -6 -17 0 -35 4 -39 10 -4 8 -9 7 -16 -2 -8 -11 -9 -10
-4 3 4 13 -3 22 -24 33 -16 9 -33 15 -37 15 -13 -2 -16 31 -4 43 7 7 13 3 20
-14 5 -13 10 -17 10 -9 0 8 -6 24 -14 34 -8 11 -15 28 -15 37 0 15 -4 14 -25
-7 -14 -14 -25 -29 -25 -34 0 -6 -7 -10 -15 -10 -8 0 -15 5 -15 11 0 18 41 70
51 64 5 -4 6 1 3 9 -9 22 -14 20 -44 -15 l-26 -32 1 77 0 76 28 0 c16 0 27 -5
27 -13 0 -7 11 -23 24 -34 l24 -21 10 22 c8 18 5 23 -22 38 -17 9 -24 17 -16
17 8 0 26 -6 40 -14z"/>
<path fill="#ffffff" stroke="none" d="M90 60 c0 -16 -7 -20 -32 -20 l-33 0
30 19 c17 11 31 20 33 20 1 1 2 -8 2 -19z"/>
<path fill="#ffffff" stroke="none" d="M125 33 c0 -18 -5 -23 -25 -22 -14 0
-19 3 -12 6 6 2 12 13 12 22 0 10 6 18 13 18 6 0 12 -11 12 -24z"/>
<path fill="#000000" stroke="none" d="M146 209 c6 -11 31 -12 37 -1 3 4 -6 8
-19 8 -13 1 -21 -2 -18 -7z"/>
</g>
</svg>
