<?xml version="1.0" standalone="no"?>
<!DOCTYPE svg PUBLIC "-//W3C//DTD SVG 20010904//EN"
 "http://www.w3.org/TR/2001/REC-SVG-20010904/DTD/svg10.dtd">
<svg version="1.0" xmlns="http://www.w3.org/2000/svg"
 width="32.000000pt" height="32.000000pt" viewBox="0 0 32.000000 32.000000"
 preserveAspectRatio="xMidYMid meet">
<metadata>
Created by potrace 1.16, written by Peter Selinger 2001-2019
</metadata>
<g transform="translate(0.000000,32.000000) scale(0.100000,-0.100000)"
fill="#000000" stroke="none">
<path fill="#000000" stroke="none" d="M40 240 c-13 -9 -13 -10 0 -10 8 0 22
5 30 10 13 9 13 10 0 10 -8 0 -22 -5 -30 -10z"/>
<path fill="#000000" stroke="none" d="M81 230 c-13 -11 -18 -20 -13 -20 6 0
14 5 17 11 4 6 17 14 29 19 12 5 15 9 6 9 -8 0 -26 -9 -39 -19z"/>
<path fill="#000000" stroke="none" d="M220 240 c-13 -9 -13 -11 0 -20 8 -5
20 -10 25 -10 6 0 17 5 25 10 13 9 13 11 0 20 -8 5 -19 10 -25 10 -5 0 -17 -5
-25 -10z"/>
<path fill="#000000" stroke="none" d="M160 205 c15 -18 35 -20 24 -3 -4 6 -3
8 3 5 5 -3 18 -32 28 -64 27 -83 38 -89 15 -8 -20 70 -31 85 -64 85 -15 0 -16
-3 -6 -15z"/>
<path fill="#000000" stroke="none" d="M87 183 c-2 -13 2 -31 9 -40 10 -14 12
-15 11 -3 -1 8 3 15 8 15 6 0 9 -6 9 -12 -1 -7 3 -10 8 -7 5 3 7 17 3 31 -4
18 -3 23 7 17 10 -5 10 -4 1 6 -21 23 -51 19 -56 -7z"/>
<path fill="#000000" stroke="none" d="M249 162 c11 -21 27 -45 36 -52 10 -8
6 3 -9 24 -14 21 -26 45 -26 52 0 8 -5 14 -10 14 -6 0 -2 -17 9 -38z"/>
<path fill="#000000" stroke="none" d="M57 144 c-3 -20 -14 -46 -24 -58 l-18
-21 22 19 c21 17 42 81 31 92 -3 2 -8 -12 -11 -32z"/>
<path fill="#000000" stroke="none" d="M176 125 c3 -37 11 -66 21 -75 14 -13
15 -13 7 0 -5 8 -14 42 -21 75 l-12 60 5 -60z"/>
</g>
</svg>
