<?xml version="1.0" standalone="no"?>
<!DOCTYPE svg PUBLIC "-//W3C//DTD SVG 20010904//EN"
 "http://www.w3.org/TR/2001/REC-SVG-20010904/DTD/svg10.dtd">
<svg version="1.0" xmlns="http://www.w3.org/2000/svg"
 width="32.000000pt" height="32.000000pt" viewBox="0 0 32.000000 32.000000"
 preserveAspectRatio="xMidYMid meet">
<metadata>
Created by potrace 1.16, written by Peter Selinger 2001-2019
</metadata>
<g transform="translate(0.000000,32.000000) scale(0.100000,-0.100000)"
fill="#000000" stroke="none">
<path fill="#000000" stroke="none" d="M96 301 c-13 -14 -16 -28 -11 -55 5
-24 3 -36 -4 -36 -6 0 -11 9 -11 19 0 10 -9 29 -20 42 -20 24 -20 24 -35 5
-19 -26 -19 -61 1 -91 9 -14 13 -25 9 -25 -4 0 -1 -8 6 -17 13 -16 12 -17 -3
-4 -10 7 -15 18 -11 24 3 6 1 7 -5 3 -16 -10 -15 -41 2 -55 8 -7 17 -28 21
-49 4 -20 11 -42 16 -49 6 -7 55 -12 139 -12 123 -2 130 -1 130 18 0 11 -5 23
-10 26 -6 4 -9 30 -8 60 2 29 6 51 11 48 4 -2 7 1 7 6 0 6 -8 11 -18 11 -9 0
-23 9 -29 19 -7 11 -26 22 -43 26 -16 4 -35 16 -41 28 -13 25 -60 77 -69 77
-4 0 -15 -9 -24 -19z"/>
<path fill="#ffffff" stroke="none" d="M131 285 c5 4 9 2 9 -4 0 -5 -6 -11
-12 -14 -17 -5 -38 3 -38 15 0 5 5 6 10 3 6 -3 11 2 11 12 1 17 2 17 6 0 2 -9
9 -15 14 -12z"/>
<path fill="#ffffff" stroke="none" d="M36 224 c-11 -29 -30 0 -21 33 7 27 7
28 17 6 6 -12 8 -30 4 -39z"/>
<path fill="#ffffff" stroke="none" d="M138 242 c-4 -21 -32 -22 -36 -2 -2 10
5 16 18 17 15 1 20 -3 18 -15z"/>
<path fill="#ffffff" stroke="none" d="M62 225 c6 -28 -15 -54 -28 -34 -5 8
-3 9 5 5 8 -5 12 -3 10 5 -2 20 0 49 5 49 2 0 6 -11 8 -25z"/>
<path fill="#ffffff" stroke="none" d="M250 189 c0 -11 -27 -12 -34 0 -3 4 -3
11 0 14 8 8 34 -3 34 -14z"/>
<path fill="#ffffff" stroke="none" d="M156 169 c10 -17 -13 -36 -27 -22 -12
12 -4 33 11 33 5 0 12 -5 16 -11z"/>
<path fill="#ffffff" stroke="none" d="M290 156 c0 -2 -8 -10 -17 -17 -16 -13
-17 -12 -4 4 13 16 21 21 21 13z"/>
</g>
</svg>
