<?xml version="1.0" standalone="no"?>
<!DOCTYPE svg PUBLIC "-//W3C//DTD SVG 20010904//EN"
 "http://www.w3.org/TR/2001/REC-SVG-20010904/DTD/svg10.dtd">
<svg version="1.0" xmlns="http://www.w3.org/2000/svg"
 width="32.000000pt" height="32.000000pt" viewBox="0 0 32.000000 32.000000"
 preserveAspectRatio="xMidYMid meet">
<metadata>
Created by potrace 1.16, written by Peter Selinger 2001-2019
</metadata>
<g transform="translate(0.000000,32.000000) scale(0.100000,-0.100000)"
fill="#000000" stroke="none">
<path fill="#000000" stroke="none" d="M96 301 c-13 -14 -16 -28 -11 -55 5
-24 3 -36 -4 -36 -6 0 -11 9 -11 19 0 10 -9 29 -20 42 -20 24 -20 24 -35 5
-20 -26 -19 -61 1 -92 13 -19 14 -24 4 -22 -20 4 -24 -31 -7 -50 8 -9 18 -33
22 -52 10 -50 19 -57 72 -58 34 -1 44 1 33 8 -10 6 -15 25 -15 53 0 55 28 63
49 13 7 -17 21 -39 30 -49 13 -13 14 -17 4 -17 -8 0 -20 6 -27 12 -9 9 -12 9
-7 1 3 -6 0 -14 -6 -16 -7 -3 24 -6 70 -6 75 -1 82 1 82 18 0 11 -5 23 -10 26
-6 4 -9 30 -8 60 2 29 6 51 11 48 4 -2 7 1 7 6 0 6 -8 11 -18 11 -9 0 -23 9
-29 19 -7 11 -26 22 -43 26 -16 4 -35 16 -41 28 -13 25 -60 77 -69 77 -4 0
-15 -9 -24 -19z"/>
<path fill="#ffffff" stroke="none" d="M131 285 c5 4 9 -1 9 -10 0 -9 5 -13
10 -10 13 8 13 -6 0 -39 -11 -30 -36 -34 -43 -8 -15 54 -17 73 -7 67 5 -3 11
2 11 12 1 17 2 17 6 0 2 -9 9 -15 14 -12z"/>
<path fill="#ffffff" stroke="none" d="M36 224 c-11 -29 -30 0 -21 33 7 27 7
28 17 6 6 -12 8 -30 4 -39z"/>
<path fill="#ffffff" stroke="none" d="M85 200 c15 -5 16 -8 5 -15 -9 -5 -15
-4 -18 4 -3 9 -7 9 -17 1 -10 -8 -15 -8 -21 1 -5 8 -3 9 5 5 8 -5 12 -3 10 5
-1 8 0 23 1 34 2 17 3 17 9 -4 3 -13 15 -27 26 -31z"/>
<path fill="#ffffff" stroke="none" d="M185 200 c-8 -9 -12 -20 -8 -25 5 -4 3
-5 -4 -2 -6 4 -10 15 -8 25 2 9 4 23 4 31 1 11 4 11 16 1 14 -12 14 -15 0 -30z"/>
<path fill="#ffffff" stroke="none" d="M243 199 l21 -12 -24 -9 c-26 -9 -47 3
-36 21 9 14 12 14 39 0z"/>
<path fill="#ffffff" stroke="none" d="M156 169 c10 -17 -13 -36 -27 -22 -12
12 -4 33 11 33 5 0 12 -5 16 -11z"/>
<path fill="#ffffff" stroke="none" d="M46 123 c-7 -7 -36 16 -36 28 0 5 7 6
15 3 9 -4 16 0 16 7 1 8 4 3 6 -9 3 -13 2 -26 -1 -29z"/>
<path fill="#ffffff" stroke="none" d="M281 156 c5 3 9 1 9 -5 0 -5 3 -16 6
-25 7 -19 -6 -21 -30 -3 -12 8 -15 19 -10 32 5 11 9 14 12 7 2 -7 8 -10 13 -6z"/>
<path fill="#ffffff" stroke="none" d="M249 109 c9 -27 8 -28 -8 -19 -27 14
-53 57 -38 63 17 6 34 -10 46 -44z"/>
<path fill="#ffffff" stroke="none" d="M90 129 c-7 -11 -14 -18 -17 -15 -8 8
5 36 17 36 7 0 7 -6 0 -21z"/>
<path fill="#ffffff" stroke="none" d="M211 45 c8 -16 6 -15 -10 4 -12 13 -21
28 -21 35 0 12 14 -5 31 -39z"/>
<path fill="#ffffff" stroke="none" d="M101 27 c-10 -9 -11 -8 -5 6 3 10 9 15
12 12 3 -3 0 -11 -7 -18z"/>
</g>
</svg>
