<?xml version="1.0" standalone="no"?>
<!DOCTYPE svg PUBLIC "-//W3C//DTD SVG 20010904//EN"
 "http://www.w3.org/TR/2001/REC-SVG-20010904/DTD/svg10.dtd">
<svg version="1.0" xmlns="http://www.w3.org/2000/svg"
 width="32.000000pt" height="32.000000pt" viewBox="0 0 32.000000 32.000000"
 preserveAspectRatio="xMidYMid meet">
<metadata>
Created by potrace 1.16, written by Peter Selinger 2001-2019
</metadata>
<g transform="translate(0.000000,32.000000) scale(0.100000,-0.100000)"
fill="#000000" stroke="none">
<path fill="#000000" stroke="none" d="M96 301 c-13 -14 -16 -28 -11 -55 5
-24 3 -36 -4 -36 -6 0 -11 9 -11 19 0 10 -9 29 -20 42 -20 24 -20 24 -35 5
-20 -26 -19 -61 1 -92 13 -19 14 -24 4 -22 -20 4 -24 -30 -7 -50 8 -9 18 -30
22 -47 l7 -30 14 45 c8 25 12 51 9 58 -6 17 23 28 37 14 8 -8 6 -16 -6 -28
-14 -14 -15 -19 -4 -26 10 -7 8 -8 -5 -4 -20 6 -22 -4 -4 -24 9 -11 8 -11 -7
0 -18 14 -19 13 -14 -12 3 -15 2 -25 -3 -23 -4 3 -10 1 -13 -4 -8 -12 14 -27
44 -29 20 -1 22 1 9 8 -15 9 -15 14 1 61 15 45 22 53 44 54 15 0 26 -5 26 -12
0 -7 4 -12 10 -10 5 1 21 -16 34 -38 18 -29 22 -43 14 -52 -8 -10 1 -13 41
-13 57 0 61 7 35 59 -10 21 -13 36 -6 44 12 16 22 58 12 52 -5 -3 -18 8 -29
24 -12 16 -35 32 -51 36 -17 4 -35 16 -41 28 -13 25 -60 77 -69 77 -4 0 -15
-9 -24 -19z"/>
<path fill="#ffffff" stroke="none" d="M131 285 c5 4 9 -1 9 -10 0 -9 5 -13
10 -10 13 8 13 -6 0 -39 -11 -30 -36 -34 -43 -8 -15 54 -17 73 -7 67 5 -3 11
2 11 12 1 17 2 17 6 0 2 -9 9 -15 14 -12z"/>
<path fill="#ffffff" stroke="none" d="M36 224 c-11 -29 -30 0 -21 33 7 27 7
28 17 6 6 -12 8 -30 4 -39z"/>
<path fill="#ffffff" stroke="none" d="M62 225 c6 -28 -15 -54 -28 -34 -5 8
-3 9 5 5 8 -5 12 -3 10 5 -2 20 0 49 5 49 2 0 6 -11 8 -25z"/>
<path fill="#ffffff" stroke="none" d="M193 202 c-4 -14 -3 -14 5 -3 9 12 15
13 39 2 25 -12 26 -14 9 -23 -10 -5 -28 -8 -42 -5 -13 2 -21 1 -19 -3 3 -4 -7
-15 -21 -25 -25 -16 -27 -16 -48 4 -12 12 -30 21 -39 21 -23 0 -22 17 2 29 14
8 22 7 31 -4 20 -24 40 -18 52 15 8 24 13 28 23 20 8 -6 11 -19 8 -28z"/>
<path fill="#ffffff" stroke="none" d="M46 123 c-7 -7 -36 16 -36 28 0 5 7 6
15 3 9 -4 16 0 16 7 1 8 4 3 6 -9 3 -13 2 -26 -1 -29z"/>
<path fill="#ffffff" stroke="none" d="M281 156 c5 3 9 1 9 -5 0 -5 3 -16 6
-25 7 -19 -6 -21 -30 -3 -12 8 -15 19 -10 32 5 11 9 14 12 7 2 -7 8 -10 13 -6z"/>
<path fill="#ffffff" stroke="none" d="M247 123 c8 -21 22 -47 31 -58 16 -18
16 -19 0 -6 -9 7 -23 9 -29 5 -8 -5 -9 -3 -4 6 6 10 4 12 -9 7 -10 -4 -15 -3
-11 3 3 6 3 10 -2 10 -11 0 -43 57 -35 64 17 18 44 3 59 -31z"/>
</g>
</svg>
