<?xml version="1.0" standalone="no"?>
<!DOCTYPE svg PUBLIC "-//W3C//DTD SVG 20010904//EN"
 "http://www.w3.org/TR/2001/REC-SVG-20010904/DTD/svg10.dtd">
<svg version="1.0" xmlns="http://www.w3.org/2000/svg"
 width="32.000000pt" height="32.000000pt" viewBox="0 0 32.000000 32.000000"
 preserveAspectRatio="xMidYMid meet">
<metadata>
Created by potrace 1.16, written by Peter Selinger 2001-2019
</metadata>
<g transform="translate(0.000000,32.000000) scale(0.100000,-0.100000)"
fill="#000000" stroke="none">
<path fill="#000000" stroke="none" d="M0 248 c1 -40 5 -93 10 -118 5 -27 5
-49 -1 -55 -15 -15 -11 -75 5 -75 8 0 17 4 20 9 6 10 80 26 106 23 9 -1 10 1
3 4 -7 3 -15 5 -19 4 -4 -1 -10 4 -15 12 -7 10 -11 9 -22 -5 -15 -22 -68 -20
-75 2 -3 9 0 11 8 6 10 -6 12 -4 7 8 -4 11 4 24 26 41 25 20 29 28 20 37 -10
10 -17 9 -32 -5 -18 -16 -19 -16 -23 9 -5 24 2 32 15 19 10 -10 77 -10 77 -1
0 4 -7 10 -16 14 -9 3 -28 17 -42 30 l-25 23 21 23 c12 13 22 29 22 35 0 8 22
12 68 12 37 0 78 3 92 5 14 3 6 -2 -18 -11 -40 -15 -42 -17 -28 -33 24 -26 20
-37 -23 -72 -22 -17 -39 -39 -38 -49 1 -10 5 -16 10 -13 5 3 20 -6 34 -18 24
-22 25 -22 19 -4 -5 11 -9 29 -10 40 -1 12 -8 19 -16 17 -8 -2 -2 10 15 27 16
18 35 29 42 27 9 -4 8 3 -3 20 -17 25 -17 25 12 19 26 -5 26 -4 -5 8 l-34 13
43 13 c68 20 31 31 -107 31 l-123 0 0 -72z"/>
<path fill="#000000" stroke="none" d="M71 257 c-14 -6 -26 -17 -28 -23 -5
-15 75 -46 83 -32 7 11 -13 27 -36 29 -8 0 3 9 25 19 40 18 40 19 10 19 -16 0
-41 -5 -54 -12z"/>
<path fill="#000000" stroke="none" d="M313 225 c0 -27 2 -38 4 -22 2 15 2 37
0 50 -2 12 -4 0 -4 -28z"/>
<path fill="#000000" stroke="none" d="M245 179 c-4 -6 2 -13 14 -16 11 -3 23
-14 27 -25 4 -14 9 -17 16 -10 8 8 6 19 -6 36 -17 27 -40 34 -51 15z"/>
<path fill="#000000" stroke="none" d="M247 89 c7 -7 15 -10 18 -7 3 3 -2 9
-12 12 -14 6 -15 5 -6 -5z"/>
<path fill="#000000" stroke="none" d="M165 50 c-3 -5 1 -10 9 -10 9 0 16 5
16 10 0 6 -4 10 -9 10 -6 0 -13 -4 -16 -10z"/>
<path fill="#000000" stroke="none" d="M205 50 c-4 -6 6 -10 24 -10 16 0 33 4
36 10 4 6 -6 10 -24 10 -16 0 -33 -4 -36 -10z"/>
<path fill="#000000" stroke="none" d="M298 3 c7 -3 16 -2 19 1 4 3 -2 6 -13
5 -11 0 -14 -3 -6 -6z"/>
</g>
</svg>
