<?xml version="1.0" standalone="no"?>
<!DOCTYPE svg PUBLIC "-//W3C//DTD SVG 20010904//EN"
 "http://www.w3.org/TR/2001/REC-SVG-20010904/DTD/svg10.dtd">
<svg version="1.0" xmlns="http://www.w3.org/2000/svg"
 width="32.000000pt" height="32.000000pt" viewBox="0 0 32.000000 32.000000"
 preserveAspectRatio="xMidYMid meet">
<metadata>
Created by potrace 1.16, written by Peter Selinger 2001-2019
</metadata>
<g transform="translate(0.000000,32.000000) scale(0.100000,-0.100000)"
fill="#000000" stroke="none">
<path fill="#000000" stroke="none" d="M0 160 l0 -160 160 0 160 0 0 160 0
160 -160 0 -160 0 0 -160z"/>
<path fill="#ffffff" stroke="none" d="M102 295 c5 -6 15 -5 29 3 19 12 20 11
14 -7 -5 -16 -2 -21 11 -21 13 0 14 -3 5 -13 -6 -8 -8 -17 -4 -20 6 -7 -18
-11 -43 -8 -6 1 -18 -7 -25 -16 -13 -16 -12 -17 4 -4 21 16 34 9 14 -8 -25
-20 -47 -3 -43 35 3 18 8 39 12 45 5 8 -2 10 -25 7 -33 -5 -30 7 4 14 28 6 39
5 47 -7z"/>
<path fill="#ffffff" stroke="none" d="M304 302 c3 -5 -5 -7 -18 -5 -17 4 -28
-2 -40 -18 -9 -13 -16 -18 -16 -12 0 6 -2 17 -5 25 -4 9 6 14 34 16 22 1 42
-2 45 -6z"/>
<path fill="#ffffff" stroke="none" d="M295 239 c8 -15 15 -36 14 -46 0 -10
-5 -5 -12 14 -7 18 -17 38 -24 44 -10 10 -11 4 -7 -27 4 -29 3 -35 -5 -24 -6
8 -10 29 -9 46 2 38 22 35 43 -7z"/>
<path fill="#ffffff" stroke="none" d="M60 239 c0 -5 -5 -8 -12 -6 -6 1 -17
-9 -25 -23 -7 -15 -13 -19 -13 -10 0 22 30 61 41 55 5 -4 9 -10 9 -16z"/>
<path fill="#ffffff" stroke="none" d="M224 243 c12 5 14 1 9 -23 -4 -22 -1
-31 11 -36 9 -3 16 -12 16 -20 0 -7 9 -18 20 -24 11 -6 20 -18 20 -28 0 -15
-2 -15 -10 -2 -8 13 -10 12 -11 -5 -1 -17 -2 -17 -6 -2 -5 20 -19 22 -26 5 -4
-9 -6 -8 -6 3 -1 8 -12 30 -25 47 -19 26 -25 30 -30 17 -3 -9 -6 -24 -5 -33 0
-14 2 -13 9 3 8 20 9 20 9 -1 1 -12 10 -32 20 -46 11 -13 23 -36 26 -51 4 -14
14 -28 23 -30 10 -3 -4 -4 -30 -3 -25 0 -44 4 -42 8 3 4 12 5 22 2 16 -5 16
-5 0 9 -19 15 -25 32 -8 22 6 -3 10 -1 10 4 0 6 -4 11 -9 11 -5 0 -13 9 -16
20 -6 20 -7 20 -26 -2 -15 -19 -20 -20 -28 -9 -5 8 -7 29 -4 46 3 18 0 42 -7
54 -11 21 -10 22 10 11 19 -10 26 -9 44 11 20 22 20 23 0 6 -25 -21 -30 -21
-38 -1 -4 12 -2 15 9 10 10 -4 15 1 15 15 0 11 5 17 10 14 6 -3 10 0 10 7 0
10 2 10 9 -1 5 -8 16 -11 25 -8z"/>
<path fill="#ffffff" stroke="none" d="M47 183 c-3 -10 -5 -4 -5 12 0 17 2 24
5 18 2 -7 2 -21 0 -30z"/>
<path fill="#ffffff" stroke="none" d="M83 166 c7 -18 -1 -26 -18 -19 -8 2
-11 11 -8 19 7 18 19 18 26 0z"/>
<path fill="#ffffff" stroke="none" d="M130 134 c0 -13 -4 -24 -9 -24 -5 0 -8
-14 -7 -31 1 -16 -2 -33 -7 -36 -6 -3 -7 -1 -3 5 4 7 2 12 -4 12 -8 0 -10 -10
-6 -27 3 -16 3 -22 0 -15 -3 6 -10 12 -15 12 -6 0 -7 -4 -4 -10 4 -6 -7 -10
-27 -10 -18 0 -28 4 -22 8 21 14 84 114 84 134 0 10 5 16 10 13 6 -3 10 -17
10 -31z"/>
<path fill="#ffffff" stroke="none" d="M78 122 c2 -7 -2 -10 -12 -6 -9 3 -23
1 -31 -6 -12 -10 -15 -10 -15 2 0 8 3 18 7 22 11 10 46 3 51 -12z"/>
<path fill="#000000" stroke="none" d="M106 262 c-3 -5 1 -9 9 -9 8 0 15 4 15
9 0 4 -4 8 -9 8 -6 0 -12 -4 -15 -8z"/>
</g>
</svg>
