<?xml version="1.0" standalone="no"?>
<!DOCTYPE svg PUBLIC "-//W3C//DTD SVG 20010904//EN"
 "http://www.w3.org/TR/2001/REC-SVG-20010904/DTD/svg10.dtd">
<svg version="1.0" xmlns="http://www.w3.org/2000/svg"
 width="32.000000pt" height="32.000000pt" viewBox="0 0 32.000000 32.000000"
 preserveAspectRatio="xMidYMid meet">
<metadata>
Created by potrace 1.16, written by Peter Selinger 2001-2019
</metadata>
<g transform="translate(0.000000,32.000000) scale(0.100000,-0.100000)"
fill="#000000" stroke="none">
<path fill="#000000" stroke="none" d="M1 160 l1 -160 61 1 c34 0 56 3 50 6
-9 3 -9 10 3 28 9 13 13 29 9 36 -5 7 -14 1 -26 -17 -10 -15 -16 -31 -14 -34
2 -4 -2 -7 -9 -7 -10 0 -6 12 12 39 31 47 21 64 -27 47 -52 -18 -61 5 -10 25
23 9 39 20 35 23 -3 3 -1 12 6 20 18 22 -36 12 -64 -12 -17 -15 -16 -12 4 10
29 32 65 39 91 17 11 -9 16 -7 25 12 10 23 9 24 -15 23 -14 -1 -30 5 -36 15
-17 26 33 75 76 75 35 0 35 -1 40 -77 2 -29 6 -35 24 -35 12 0 33 -9 46 -20
13 -11 18 -17 12 -13 -6 4 -17 2 -25 -5 -10 -9 -11 -9 -6 0 5 9 2 11 -10 6
-14 -5 -14 -7 5 -18 21 -11 19 -12 -24 -34 -25 -13 -52 -20 -61 -17 -24 9 -28
36 -7 59 36 41 61 124 29 98 -19 -16 -56 -87 -56 -108 0 -12 -3 -13 -15 -3 -8
7 -12 16 -9 21 3 5 -3 6 -12 2 -10 -4 -13 -8 -7 -10 6 -2 9 -13 6 -23 -3 -12
1 -22 10 -26 9 -3 19 -20 23 -37 l6 -31 14 25 c7 13 13 20 14 14 0 -5 -8 -24
-19 -41 l-18 -30 23 0 c12 0 21 3 19 7 -3 3 2 15 10 25 13 18 14 18 8 -3 -4
-17 0 -23 20 -28 13 -4 38 -5 53 -3 23 2 29 8 29 28 0 19 -5 25 -22 24 -12 0
-20 3 -17 8 8 13 31 9 47 -7 14 -13 15 1 16 124 l1 140 -160 0 -160 0 1 -159z"/>
<path fill="#ffffff" stroke="none" d="M291 110 c-13 -11 -29 -20 -37 -20 -18
0 -25 -15 -18 -34 4 -11 13 -15 26 -10 14 4 19 2 16 -7 -8 -25 -28 -20 -48 13
l-20 33 37 13 c21 7 42 17 47 22 6 6 12 10 16 10 3 -1 -6 -10 -19 -20z"/>
<path fill="#000000" stroke="none" d="M120 275 c-24 -25 -25 -41 -5 -49 20
-7 68 11 60 23 -3 6 3 15 12 21 17 11 17 11 -1 6 -16 -6 -17 -4 -6 9 20 25
-37 15 -60 -10z"/>
<path fill="#ffffff" stroke="none" d="M155 240 c-27 -12 -43 -12 -25 0 8 5
22 9 30 9 10 0 8 -3 -5 -9z"/>
<path fill="#000000" stroke="none" d="M203 193 c4 -6 -5 -21 -18 -33 -28 -27
-32 -45 -10 -54 25 -9 64 11 60 31 -1 10 5 26 13 36 15 17 15 17 -12 8 -15 -6
-25 -7 -21 -2 3 5 0 13 -6 17 -7 4 -9 3 -6 -3z"/>
<path fill="#ffffff" stroke="none" d="M215 120 c-27 -12 -43 -12 -25 0 8 5
22 9 30 9 10 0 8 -3 -5 -9z"/>
<path fill="#000000" stroke="none" d="M55 115 c-25 -12 -26 -14 -5 -9 14 4
29 10 35 15 12 12 5 11 -30 -6z"/>
</g>
</svg>
