<?xml version="1.0" standalone="no"?>
<!DOCTYPE svg PUBLIC "-//W3C//DTD SVG 20010904//EN"
 "http://www.w3.org/TR/2001/REC-SVG-20010904/DTD/svg10.dtd">
<svg version="1.0" xmlns="http://www.w3.org/2000/svg"
 width="32.000000pt" height="32.000000pt" viewBox="0 0 32.000000 32.000000"
 preserveAspectRatio="xMidYMid meet">
<metadata>
Created by potrace 1.16, written by Peter Selinger 2001-2019
</metadata>
<g transform="translate(0.000000,32.000000) scale(0.100000,-0.100000)"
fill="#000000" stroke="none">
<path fill="#000000" stroke="none" d="M118 283 c-27 -27 -30 -37 -21 -51 6
-9 20 -17 32 -16 23 1 25 -4 12 -24 -6 -11 -10 -10 -19 0 -18 22 -60 14 -92
-17 -34 -32 -37 -47 -15 -65 11 -9 22 -9 44 -2 23 8 32 7 42 -4 9 -11 6 -22
-14 -53 l-26 -39 62 -7 c101 -10 191 -3 195 16 2 9 -5 24 -14 33 -18 19 -50
17 -47 -2 2 -7 -1 -12 -6 -12 -16 0 -23 40 -10 56 10 13 8 19 -14 40 -29 27
-33 49 -16 88 7 14 8 32 3 43 -4 10 -8 24 -8 32 -2 28 -55 18 -88 -16z"/>
</g>
</svg>
