<?xml version="1.0" standalone="no"?>
<!DOCTYPE svg PUBLIC "-//W3C//DTD SVG 20010904//EN"
 "http://www.w3.org/TR/2001/REC-SVG-20010904/DTD/svg10.dtd">
<svg version="1.0" xmlns="http://www.w3.org/2000/svg"
 width="32.000000pt" height="32.000000pt" viewBox="0 0 32.000000 32.000000"
 preserveAspectRatio="xMidYMid meet">
<metadata>
Created by potrace 1.16, written by Peter Selinger 2001-2019
</metadata>
<g transform="translate(0.000000,32.000000) scale(0.100000,-0.100000)"
fill="#000000" stroke="none">
<path fill="#000000" stroke="none" d="M118 283 c-27 -27 -30 -37 -21 -51 6
-9 19 -17 30 -16 11 0 26 -7 33 -15 12 -13 12 -14 -3 -8 -9 3 -17 2 -17 -3 0
-6 5 -10 12 -10 6 0 8 -3 5 -7 -4 -3 -16 2 -27 12 -30 27 -65 23 -100 -10 -34
-32 -37 -47 -15 -65 11 -9 22 -9 44 -2 23 8 32 7 42 -4 9 -11 6 -22 -14 -52
-29 -45 -40 -41 123 -45 90 -2 105 0 108 14 2 9 -5 24 -14 33 -18 19 -50 17
-47 -2 2 -7 -1 -12 -6 -12 -16 0 -23 40 -10 56 10 13 8 19 -14 40 -29 27 -33
49 -16 88 7 14 8 32 3 43 -4 10 -8 24 -8 32 -2 28 -55 18 -88 -16z"/>
<path fill="#ffffff" stroke="none" d="M120 130 c0 -5 -2 -10 -4 -10 -3 0 -8
5 -11 10 -3 6 -1 10 4 10 6 0 11 -4 11 -10z"/>
<path fill="#ffffff" stroke="none" d="M157 114 c-3 -3 -12 -4 -19 -1 -8 3 -5
6 6 6 11 1 17 -2 13 -5z"/>
<path fill="#ffffff" stroke="none" d="M157 94 c-3 -3 -12 -4 -19 -1 -8 3 -5
6 6 6 11 1 17 -2 13 -5z"/>
<path fill="#ffffff" stroke="none" d="M180 46 c0 -2 -8 -10 -17 -17 -16 -13
-17 -12 -4 4 13 16 21 21 21 13z"/>
<path fill="#ffffff" stroke="none" d="M244 11 c-2 -3 -12 3 -22 13 -16 17
-16 18 5 5 12 -7 20 -15 17 -18z"/>
</g>
</svg>
