<?xml version="1.0" standalone="no"?>
<!DOCTYPE svg PUBLIC "-//W3C//DTD SVG 20010904//EN"
 "http://www.w3.org/TR/2001/REC-SVG-20010904/DTD/svg10.dtd">
<svg version="1.0" xmlns="http://www.w3.org/2000/svg"
 width="32.000000pt" height="32.000000pt" viewBox="0 0 32.000000 32.000000"
 preserveAspectRatio="xMidYMid meet">
<metadata>
Created by potrace 1.16, written by Peter Selinger 2001-2019
</metadata>
<g transform="translate(0.000000,32.000000) scale(0.100000,-0.100000)"
fill="#000000" stroke="none">
<path fill="#000000" stroke="none" d="M28 283 c-26 -27 -30 -37 -22 -51 6 -9
22 -17 35 -17 13 0 30 -4 38 -9 9 -6 12 -5 7 2 -14 23 12 20 34 -3 13 -14 18
-25 12 -25 -6 0 -13 4 -17 9 -16 27 -115 -29 -115 -65 0 -25 28 -37 62 -25 47
17 57 0 26 -47 -30 -45 -41 -41 122 -45 90 -2 105 0 108 14 2 9 -5 24 -14 33
-18 19 -50 17 -47 -2 4 -18 -14 -15 -21 4 -9 23 -9 23 27 37 17 8 38 22 46 31
13 16 11 21 -22 51 -20 19 -39 30 -42 25 -3 -5 -14 -8 -25 -7 -14 1 -16 4 -8
14 6 8 27 12 50 11 29 -2 43 2 51 14 9 14 6 23 -20 50 -29 30 -38 33 -87 32
-30 0 -61 -6 -69 -13 -12 -9 -16 -9 -19 0 -9 26 -58 15 -90 -18z"/>
<path fill="#ffffff" stroke="none" d="M169 171 c-15 -36 -18 -55 -11 -63 7
-9 6 -22 -2 -43 l-13 -30 -7 32 c-4 17 -14 34 -22 37 -8 3 -14 10 -14 17 0 6
7 8 15 5 10 -3 18 1 21 12 3 9 15 37 27 62 28 60 34 35 6 -29z"/>
<path fill="#ffffff" stroke="none" d="M261 110 c-13 -11 -33 -20 -44 -20 -17
0 -15 4 13 19 45 26 61 26 31 1z"/>
<path fill="#ffffff" stroke="none" d="M180 46 c0 -2 -8 -10 -17 -17 -16 -13
-17 -12 -4 4 13 16 21 21 21 13z"/>
<path fill="#ffffff" stroke="none" d="M244 11 c-2 -3 -12 3 -22 13 -16 17
-16 18 5 5 12 -7 20 -15 17 -18z"/>
</g>
</svg>
