<?xml version="1.0" standalone="no"?>
<!DOCTYPE svg PUBLIC "-//W3C//DTD SVG 20010904//EN"
 "http://www.w3.org/TR/2001/REC-SVG-20010904/DTD/svg10.dtd">
<svg version="1.0" xmlns="http://www.w3.org/2000/svg"
 width="32.000000pt" height="32.000000pt" viewBox="0 0 32.000000 32.000000"
 preserveAspectRatio="xMidYMid meet">
<metadata>
Created by potrace 1.16, written by Peter Selinger 2001-2019
</metadata>
<g transform="translate(0.000000,32.000000) scale(0.100000,-0.100000)"
fill="#000000" stroke="none">
<path fill="#000000" stroke="none" d="M0 296 c0 -28 15 -42 26 -25 4 8 3 9
-4 5 -8 -5 -12 0 -12 13 0 12 6 21 13 21 23 0 57 -12 53 -19 -3 -4 4 -7 14 -7
10 0 16 4 14 8 -7 11 4 10 28 -3 15 -8 19 -8 14 0 -4 6 -1 11 6 11 9 0 9 3 -2
10 -8 5 -45 10 -82 10 -65 0 -68 -1 -68 -24z"/>
<path fill="#000000" stroke="none" d="M40 279 c0 -5 5 -7 10 -4 6 3 10 8 10
11 0 2 -4 4 -10 4 -5 0 -10 -5 -10 -11z"/>
<path fill="#000000" stroke="none" d="M302 265 c0 -16 2 -22 5 -12 2 9 2 23
0 30 -3 6 -5 -1 -5 -18z"/>
<path fill="#000000" stroke="none" d="M74 205 c-10 -8 -14 -15 -8 -15 6 0 17
7 24 15 16 19 9 19 -16 0z"/>
<path fill="#000000" stroke="none" d="M304 126 c3 -49 0 -85 -7 -97 -6 -10
-8 -22 -4 -26 24 -23 37 119 16 177 -6 17 -7 -1 -5 -54z"/>
<path fill="#000000" stroke="none" d="M70 177 c-14 -7 -26 -18 -27 -25 -4
-19 12 -14 37 13 26 28 26 28 -10 12z"/>
<path fill="#000000" stroke="none" d="M3 120 c0 -36 2 -50 4 -32 2 17 2 47 0
65 -2 17 -4 3 -4 -33z"/>
<path fill="#000000" stroke="none" d="M138 175 c-3 -4 -3 -15 -1 -26 7 -24
28 -20 28 6 0 18 -16 30 -27 20z"/>
<path fill="#000000" stroke="none" d="M2 30 c0 -14 2 -19 5 -12 2 6 2 18 0
25 -3 6 -5 1 -5 -13z"/>
<path fill="#000000" stroke="none" d="M85 9 c-3 -4 2 -6 10 -5 21 3 28 13 10
13 -9 0 -18 -4 -20 -8z"/>
<path fill="#000000" stroke="none" d="M168 3 c6 -2 18 -2 25 0 6 3 1 5 -13 5
-14 0 -19 -2 -12 -5z"/>
</g>
</svg>
