<?xml version="1.0" standalone="no"?>
<!DOCTYPE svg PUBLIC "-//W3C//DTD SVG 20010904//EN"
 "http://www.w3.org/TR/2001/REC-SVG-20010904/DTD/svg10.dtd">
<svg version="1.0" xmlns="http://www.w3.org/2000/svg"
 width="32.000000pt" height="32.000000pt" viewBox="0 0 32.000000 32.000000"
 preserveAspectRatio="xMidYMid meet">
<metadata>
Created by potrace 1.16, written by Peter Selinger 2001-2019
</metadata>
<g transform="translate(0.000000,32.000000) scale(0.100000,-0.100000)"
fill="#000000" stroke="none">
<path fill="#000000" stroke="none" d="M0 160 l0 -160 160 0 160 0 0 160 0
160 -160 0 -160 0 0 -160z"/>
<path fill="#ffffff" stroke="none" d="M156 291 c12 10 15 10 12 -2 -2 -8 3
-13 10 -11 14 2 16 -14 3 -22 -5 -4 -11 0 -14 6 -3 8 -9 1 -16 -15 -11 -29
-51 -50 -76 -41 -19 8 -20 33 -1 40 8 3 12 12 9 20 -3 8 1 14 10 14 8 0 21 7
28 17 13 15 14 15 17 -1 3 -14 6 -15 18 -5z"/>
<path fill="#ffffff" stroke="none" d="M202 238 c-7 -7 -12 -8 -12 -2 0 6 3
14 7 17 3 4 9 5 12 2 2 -3 -1 -11 -7 -17z"/>
<path fill="#ffffff" stroke="none" d="M230 225 c-7 -9 -15 -13 -17 -11 -7 7
7 26 19 26 6 0 6 -6 -2 -15z"/>
<path fill="#ffffff" stroke="none" d="M186 184 c-3 -9 -1 -12 4 -9 14 9 12
-8 -2 -24 -10 -11 -10 -13 0 -7 14 9 17 -10 2 -19 -6 -4 -8 -10 -5 -15 3 -5
-3 -14 -14 -20 -16 -8 -22 -6 -30 7 -10 17 -12 17 -26 -1 -20 -27 -19 -42 3
-25 15 13 16 12 3 -4 -8 -9 -16 -15 -19 -13 -2 3 -11 -1 -19 -9 -8 -8 -20 -15
-26 -14 -9 0 -8 2 1 6 6 2 12 11 12 18 0 7 11 23 24 36 13 13 22 29 19 36 -6
16 9 17 25 1 9 -9 12 -8 12 5 0 9 -7 17 -15 17 -13 0 -14 4 -4 22 12 22 12 22
20 3 7 -19 8 -19 8 2 1 12 4 29 7 38 7 16 8 16 16 0 5 -9 7 -23 4 -31z"/>
<path fill="#ffffff" stroke="none" d="M91 159 c-2 -8 -3 -22 -3 -32 1 -13 -3
-15 -16 -8 -11 6 -20 4 -29 -7 -11 -16 -12 -15 -13 1 0 11 9 21 21 24 16 4 17
8 7 14 -10 7 -9 9 5 9 11 0 15 5 11 11 -4 7 -1 10 7 7 8 -3 12 -12 10 -19z"/>
<path fill="#ffffff" stroke="none" d="M255 170 c-3 -5 2 -10 11 -10 14 0 15
-3 7 -11 -9 -9 -16 -8 -27 3 -15 15 -12 28 6 28 5 0 6 -4 3 -10z"/>
<path fill="#ffffff" stroke="none" d="M307 124 c3 -8 1 -20 -4 -25 -7 -7 -12
-5 -17 6 -4 11 -2 14 7 9 8 -5 8 -3 -1 7 -11 12 -15 11 -28 -5 -11 -16 -14
-17 -14 -4 0 28 47 38 57 12z"/>
<path fill="#ffffff" stroke="none" d="M255 52 c2 -9 4 -20 4 -24 1 -3 9 -9
19 -11 13 -4 11 -5 -5 -6 -13 0 -23 4 -23 9 0 6 -5 10 -11 10 -5 0 -7 -4 -4
-10 3 -5 2 -10 -4 -10 -6 0 -8 12 -5 28 4 19 1 32 -10 41 -9 7 -13 18 -10 23
7 12 45 -27 49 -50z"/>
<path fill="#ffffff" stroke="none" d="M78 13 c-10 -2 -26 -2 -35 0 -10 3 -2
5 17 5 19 0 27 -2 18 -5z"/>
<path fill="#000000" stroke="none" d="M117 263 c-12 -12 -7 -22 8 -17 8 4 15
10 15 15 0 11 -14 12 -23 2z"/>
</g>
</svg>
