<?xml version="1.0" standalone="no"?>
<!DOCTYPE svg PUBLIC "-//W3C//DTD SVG 20010904//EN"
 "http://www.w3.org/TR/2001/REC-SVG-20010904/DTD/svg10.dtd">
<svg version="1.0" xmlns="http://www.w3.org/2000/svg"
 width="32.000000pt" height="32.000000pt" viewBox="0 0 32.000000 32.000000"
 preserveAspectRatio="xMidYMid meet">
<metadata>
Created by potrace 1.16, written by Peter Selinger 2001-2019
</metadata>
<g transform="translate(0.000000,32.000000) scale(0.100000,-0.100000)"
fill="#000000" stroke="none">
<path fill="#000000" stroke="none" d="M0 160 l0 -160 160 0 160 0 0 160 0
160 -160 0 -160 0 0 -160z"/>
<path fill="#ffffff" stroke="none" d="M89 299 c35 -7 48 -14 45 -24 -8 -20
11 -27 39 -14 38 17 96 3 109 -26 9 -19 6 -30 -12 -59 -12 -20 -25 -34 -29
-32 -4 3 -13 1 -21 -4 -9 -5 -20 -4 -29 3 -12 10 -13 9 -7 -1 7 -11 4 -12 -12
-3 -14 7 -23 8 -27 1 -4 -6 -12 -4 -21 5 -16 16 -39 11 -29 -6 3 -5 -1 -6 -9
-3 -10 4 -16 1 -16 -7 0 -12 -2 -12 -9 0 -5 8 -18 12 -30 8 -37 -9 -23 10 31
43 29 18 47 26 40 18 -35 -43 100 -59 144 -17 36 34 25 58 -29 66 -29 3 -38 0
-56 -23 -11 -15 -21 -22 -21 -17 0 5 5 14 12 21 9 9 8 12 -5 12 -9 0 -26 10
-37 22 -12 13 -38 28 -58 34 -48 15 -27 17 37 3z"/>
<path fill="#ffffff" stroke="none" d="M295 300 c-11 -5 -31 -8 -45 -8 -23 0
-22 1 5 8 42 11 65 11 40 0z"/>
<path fill="#ffffff" stroke="none" d="M217 284 c-3 -3 -12 -4 -19 -1 -8 3 -5
6 6 6 11 1 17 -2 13 -5z"/>
<path fill="#ffffff" stroke="none" d="M55 250 c-27 -12 -43 -12 -25 0 8 5 22
9 30 9 10 0 8 -3 -5 -9z"/>
<path fill="#ffffff" stroke="none" d="M100 246 c0 -2 -8 -10 -17 -17 -16 -13
-17 -12 -4 4 13 16 21 21 21 13z"/>
<path fill="#ffffff" stroke="none" d="M194 41 c-4 -3 -9 0 -11 7 -3 6 -10 9
-15 6 -7 -4 -8 -2 -4 4 4 7 2 12 -3 12 -6 0 -11 5 -11 12 0 6 11 1 25 -12 14
-13 22 -26 19 -29z"/>
<path fill="#ffffff" stroke="none" d="M254 65 c-3 -7 -12 -16 -20 -19 -8 -3
-13 -2 -11 2 2 4 7 15 10 25 4 10 11 16 16 12 6 -3 8 -12 5 -20z"/>
<path fill="#ffffff" stroke="none" d="M81 32 c34 5 40 -9 7 -14 -22 -4 -78
16 -78 28 0 2 10 0 21 -7 12 -6 34 -9 50 -7z"/>
<path fill="#000000" stroke="none" d="M70 159 c0 -5 5 -7 10 -4 6 3 10 8 10
11 0 2 -4 4 -10 4 -5 0 -10 -5 -10 -11z"/>
</g>
</svg>
