<?xml version="1.0" standalone="no"?>
<!DOCTYPE svg PUBLIC "-//W3C//DTD SVG 20010904//EN"
 "http://www.w3.org/TR/2001/REC-SVG-20010904/DTD/svg10.dtd">
<svg version="1.0" xmlns="http://www.w3.org/2000/svg"
 width="32.000000pt" height="32.000000pt" viewBox="0 0 32.000000 32.000000"
 preserveAspectRatio="xMidYMid meet">
<metadata>
Created by potrace 1.16, written by Peter Selinger 2001-2019
</metadata>
<g transform="translate(0.000000,32.000000) scale(0.100000,-0.100000)"
fill="#000000" stroke="none">
<path fill="#000000" stroke="none" d="M35 300 c11 -5 29 -11 40 -15 17 -5 14
-9 -20 -25 -43 -20 -34 -27 12 -9 l28 10 -25 -27 -25 -27 36 21 c27 16 43 20
59 14 20 -7 21 -10 7 -15 -19 -7 -23 -32 -7 -42 6 -4 15 7 21 24 6 17 18 31
27 32 10 0 24 2 33 4 10 2 22 -8 30 -21 10 -20 10 -27 -6 -44 -31 -34 -152
-20 -138 17 3 9 -15 2 -46 -17 -55 -34 -63 -47 -28 -46 16 1 22 -4 20 -19 l-2
-20 15 20 c8 11 22 19 31 17 11 -3 14 1 9 14 -6 17 -5 16 14 -1 11 -10 20 -14
20 -10 0 5 5 4 11 -2 7 -7 21 -8 39 -3 16 5 31 6 34 2 3 -3 6 0 6 6 0 7 3 11
8 10 13 -3 42 14 37 22 -3 4 2 10 10 14 12 4 13 11 5 31 -13 35 -13 35 8 28
14 -5 15 -4 4 8 -14 15 -116 19 -144 5 -14 -6 -18 -4 -18 12 0 16 -10 22 -50
31 -59 13 -83 13 -55 1z"/>
<path fill="#000000" stroke="none" d="M241 299 c-62 -12 -66 -23 -6 -14 49 7
100 25 65 24 -8 -1 -35 -5 -59 -10z"/>
<path fill="#000000" stroke="none" d="M216 207 c3 -10 9 -15 12 -12 3 3 0 11
-7 18 -10 9 -11 8 -5 -6z"/>
<path fill="#000000" stroke="none" d="M136 92 c-8 -13 34 -49 65 -57 21 -5
30 -2 42 15 9 12 13 29 9 38 -4 11 -7 12 -10 4 -2 -7 -8 -10 -13 -7 -5 4 -6
-1 -3 -9 11 -29 -26 -30 -56 -1 -15 14 -30 22 -34 17z"/>
<path fill="#000000" stroke="none" d="M29 30 c15 -13 33 -19 50 -16 14 2 29
5 34 5 4 1 7 9 7 18 0 13 -3 14 -12 5 -15 -15 -52 -15 -81 -1 -20 9 -20 9 2
-11z"/>
</g>
</svg>
