<?xml version="1.0" standalone="no"?>
<!DOCTYPE svg PUBLIC "-//W3C//DTD SVG 20010904//EN"
 "http://www.w3.org/TR/2001/REC-SVG-20010904/DTD/svg10.dtd">
<svg version="1.0" xmlns="http://www.w3.org/2000/svg"
 width="32.000000pt" height="32.000000pt" viewBox="0 0 32.000000 32.000000"
 preserveAspectRatio="xMidYMid meet">
<metadata>
Created by potrace 1.16, written by Peter Selinger 2001-2019
</metadata>
<g transform="translate(0.000000,32.000000) scale(0.100000,-0.100000)"
fill="#000000" stroke="none">
<path fill="#000000" stroke="none" d="M135 293 c-16 -9 -40 -16 -52 -14 -25
3 -73 -39 -73 -64 0 -9 9 -15 25 -15 15 0 38 -12 53 -27 25 -26 26 -28 7 -31
-16 -4 -47 -21 -84 -48 -1 -2 0 -7 4 -13 4 -7 15 -5 33 5 25 15 25 15 8 0 -17
-14 -17 -16 -4 -16 9 0 19 4 22 9 3 5 15 11 26 14 20 5 21 4 5 -19 -8 -13 -12
-24 -7 -24 5 0 15 11 22 25 14 27 34 24 25 -4 -3 -12 0 -18 10 -18 18 0 21 42
4 53 -7 4 10 19 41 37 48 27 53 28 68 13 15 -15 14 -18 -16 -49 -37 -39 -39
-48 -12 -72 21 -19 28 -7 8 13 -9 9 -4 21 26 51 39 40 42 65 11 91 -21 17 -92
3 -116 -23 l-20 -22 10 28 c6 15 8 27 5 27 -4 0 1 11 10 25 9 14 14 30 10 36
-3 6 2 19 12 30 16 18 16 19 -7 19 -13 -1 -37 -8 -54 -17z"/>
<path fill="#ffffff" stroke="none" d="M140 188 c0 -36 -16 -44 -32 -16 -7 13
-13 25 -13 28 -1 3 -4 15 -9 27 -4 13 -4 28 0 35 11 17 54 -41 54 -74z"/>
</g>
</svg>
