<?xml version="1.0" standalone="no"?>
<!DOCTYPE svg PUBLIC "-//W3C//DTD SVG 20010904//EN"
 "http://www.w3.org/TR/2001/REC-SVG-20010904/DTD/svg10.dtd">
<svg version="1.0" xmlns="http://www.w3.org/2000/svg"
 width="32.000000pt" height="32.000000pt" viewBox="0 0 32.000000 32.000000"
 preserveAspectRatio="xMidYMid meet">
<metadata>
Created by potrace 1.16, written by Peter Selinger 2001-2019
</metadata>
<g transform="translate(0.000000,32.000000) scale(0.100000,-0.100000)"
fill="#000000" stroke="none">
<path fill="#000000" stroke="none" d="M160 303 c-8 -3 -24 -13 -35 -22 l-21
-16 23 -34 c24 -35 31 -35 12 1 -9 16 -8 23 2 29 11 7 11 9 -1 9 -8 1 1 9 20
20 33 18 33 25 0 13z"/>
<path fill="#000000" stroke="none" d="M25 244 c-19 -29 -9 -49 21 -41 15 4
13 5 -6 6 -25 2 -25 2 5 16 24 12 25 14 5 8 -22 -5 -23 -4 -11 11 8 9 12 19 9
22 -3 2 -13 -7 -23 -22z"/>
<path fill="#000000" stroke="none" d="M215 191 c-11 -5 -29 -19 -40 -32 l-20
-24 25 22 c40 34 74 39 99 12 11 -13 21 -18 21 -11 0 12 -39 42 -55 41 -5 0
-19 -4 -30 -8z"/>
<path fill="#000000" stroke="none" d="M142 170 c0 -14 2 -19 5 -12 2 6 2 18
0 25 -3 6 -5 1 -5 -13z"/>
<path fill="#000000" stroke="none" d="M53 117 c-18 -10 -33 -24 -33 -29 0 -6
9 -3 20 7 11 10 20 15 20 10 0 -4 7 -2 15 5 9 8 15 9 15 2 0 -6 -10 -18 -22
-26 -12 -9 -18 -16 -13 -16 6 0 20 8 32 18 18 14 20 20 10 33 -11 14 -15 14
-44 -4z"/>
<path fill="#000000" stroke="none" d="M120 133 c0 -5 13 -17 27 -27 l27 -20
-20 27 c-18 26 -34 35 -34 20z"/>
<path fill="#000000" stroke="none" d="M249 103 l-24 -28 28 24 c15 14 27 26
27 28 0 8 -8 1 -31 -24z"/>
</g>
</svg>
