<?xml version="1.0" standalone="no"?>
<!DOCTYPE svg PUBLIC "-//W3C//DTD SVG 20010904//EN"
 "http://www.w3.org/TR/2001/REC-SVG-20010904/DTD/svg10.dtd">
<svg version="1.0" xmlns="http://www.w3.org/2000/svg"
 width="32.000000pt" height="32.000000pt" viewBox="0 0 32.000000 32.000000"
 preserveAspectRatio="xMidYMid meet">
<metadata>
Created by potrace 1.16, written by Peter Selinger 2001-2019
</metadata>
<g transform="translate(0.000000,32.000000) scale(0.100000,-0.100000)"
fill="#000000" stroke="none">
<path fill="#000000" stroke="none" d="M3 188 c0 -73 2 -124 5 -113 2 11 22
38 43 59 21 22 37 42 35 43 -2 2 -16 -1 -31 -7 -21 -8 -31 -8 -39 1 -8 9 -8
10 1 5 16 -9 86 21 78 33 -3 6 -18 3 -37 -9 -35 -21 -60 -16 -31 6 17 13 17
14 -2 8 -19 -5 -19 -5 -1 6 13 9 20 9 25 1 5 -8 13 -7 27 4 22 17 50 19 59 5
3 -5 0 -7 -9 -4 -15 6 -17 -11 -2 -34 4 -7 5 -16 2 -19 -3 -4 -6 0 -6 7 0 8
-12 2 -30 -15 -35 -33 -30 -52 7 -28 24 16 26 16 38 -1 12 -16 14 -16 28 4 8
12 18 17 21 12 3 -6 -1 -12 -9 -16 -8 -3 -12 -12 -9 -20 6 -15 11 -13 62 20 2
1 -4 13 -13 27 -16 24 -15 25 16 41 32 16 32 16 14 -4 -17 -18 -17 -20 0 -26
11 -5 24 1 38 18 12 13 18 19 14 12 -4 -7 -6 -18 -5 -25 2 -7 -2 -13 -9 -14
-15 0 -30 -15 -15 -15 7 0 11 -3 10 -7 -1 -5 6 -21 17 -36 16 -25 17 -35 8
-68 -9 -33 -8 -37 4 -28 11 10 13 43 12 158 l-2 146 -58 3 c-49 2 -59 -1 -59
-14 0 -10 5 -14 15 -10 41 17 46 15 13 -4 -21 -11 -38 -23 -38 -26 0 -3 4 -3
9 0 5 3 14 -1 21 -9 7 -8 16 -13 20 -10 5 3 12 0 16 -7 4 -7 4 -10 -1 -6 -4 4
-20 1 -36 -7 -27 -15 -29 -14 -44 15 -9 16 -19 30 -23 30 -5 0 -17 7 -28 15
-19 15 -19 16 1 13 11 -1 27 2 35 7 13 7 13 6 2 -7 -10 -12 -10 -18 2 -27 12
-10 16 -8 21 10 10 31 -9 39 -101 39 l-81 0 0 -132z"/>
<path fill="#ffffff" stroke="none" d="M105 292 c-1 -9 2 -23 8 -29 7 -9 5
-13 -7 -13 -10 0 -15 4 -11 9 3 5 1 12 -5 16 -6 4 -7 12 -4 18 4 7 -9 -3 -27
-20 -19 -18 -38 -33 -43 -33 -4 0 6 12 23 26 17 14 29 29 27 33 -3 4 6 8 19 9
17 1 22 -3 20 -16z"/>
<path fill="#ffffff" stroke="none" d="M301 286 c-9 -11 -10 -20 -1 -35 6 -12
8 -21 6 -21 -3 0 -10 9 -16 19 -11 21 -4 51 12 51 6 0 6 -6 -1 -14z"/>
<path fill="#000000" stroke="none" d="M180 252 c0 -4 5 -14 10 -22 7 -11 10
-11 10 -2 0 7 5 10 11 6 7 -4 10 -1 7 6 -4 14 -38 24 -38 12z"/>
<path fill="#000000" stroke="none" d="M225 165 c17 -27 17 -30 1 -40 -40 -24
-44 -30 -35 -52 6 -16 17 -23 34 -23 24 0 25 -1 11 -16 -21 -20 -21 -41 -1
-24 8 7 15 8 15 3 0 -5 7 -10 15 -10 8 0 15 1 15 1 0 1 -7 25 -14 54 -8 28
-10 50 -5 46 5 -3 9 -13 9 -23 0 -10 7 -24 15 -31 32 -26 15 38 -21 82 -48 58
-62 69 -39 33z"/>
<path fill="#000000" stroke="none" d="M94 125 c-10 -8 -14 -15 -7 -15 19 0
43 11 43 21 0 13 -14 11 -36 -6z"/>
<path fill="#000000" stroke="none" d="M48 118 c-6 -18 2 -48 13 -48 5 0 7 12
5 26 -6 32 -12 40 -18 22z"/>
<path fill="#000000" stroke="none" d="M106 103 c-31 -16 -34 -38 -7 -55 18
-11 18 -12 -2 -28 -21 -17 -21 -17 8 -16 17 0 35 8 42 16 13 17 7 34 -9 24 -7
-5 -8 -2 -3 5 4 7 17 10 30 7 20 -5 22 -3 18 15 -3 11 -12 23 -19 26 -8 3 -12
8 -9 12 7 12 -21 9 -49 -6z"/>
<path fill="#000000" stroke="none" d="M20 77 c0 -28 40 -64 59 -53 14 9 2 36
-15 36 -7 0 -20 10 -28 22 l-16 22 0 -27z"/>
<path fill="#000000" stroke="none" d="M0 30 c0 -11 5 -20 10 -20 6 0 10 9 10
20 0 11 -4 20 -10 20 -5 0 -10 -9 -10 -20z"/>
<path fill="#000000" stroke="none" d="M178 3 c7 -3 16 -2 19 1 4 3 -2 6 -13
5 -11 0 -14 -3 -6 -6z"/>
</g>
</svg>
