<?xml version="1.0" standalone="no"?>
<!DOCTYPE svg PUBLIC "-//W3C//DTD SVG 20010904//EN"
 "http://www.w3.org/TR/2001/REC-SVG-20010904/DTD/svg10.dtd">
<svg version="1.0" xmlns="http://www.w3.org/2000/svg"
 width="32.000000pt" height="32.000000pt" viewBox="0 0 32.000000 32.000000"
 preserveAspectRatio="xMidYMid meet">
<metadata>
Created by potrace 1.16, written by Peter Selinger 2001-2019
</metadata>
<g transform="translate(0.000000,32.000000) scale(0.100000,-0.100000)"
fill="#000000" stroke="none">
<path fill="#000000" stroke="none" d="M2 278 l1 -43 4 37 c4 34 7 37 32 35
15 -2 33 -7 40 -12 10 -5 12 -4 7 4 -6 8 4 10 36 5 32 -4 39 -3 28 5 -8 6 -45
11 -82 11 l-68 0 2 -42z"/>
<path fill="#000000" stroke="none" d="M180 252 c0 -4 5 -14 10 -22 7 -11 10
-11 10 -2 0 7 5 10 10 7 6 -3 10 -2 10 3 0 5 -9 12 -20 15 -11 3 -20 2 -20 -1z"/>
<path fill="#000000" stroke="none" d="M1 127 c-1 -39 1 -69 4 -65 3 3 7 19 7
35 1 23 8 33 32 43 l31 13 -33 4 c-24 3 -32 9 -28 18 3 8 2 17 -3 19 -4 3 -9
-27 -10 -67z"/>
<path fill="#000000" stroke="none" d="M312 108 c-1 -31 -7 -69 -13 -85 -9
-26 -9 -27 6 -12 12 12 15 31 12 85 -3 68 -3 68 -5 12z"/>
<path fill="#000000" stroke="none" d="M270 136 c0 -2 7 -9 15 -16 12 -10 15
-10 15 4 0 9 -7 16 -15 16 -8 0 -15 -2 -15 -4z"/>
<path fill="#000000" stroke="none" d="M0 30 c0 -11 5 -20 10 -20 6 0 10 9 10
20 0 11 -4 20 -10 20 -5 0 -10 -9 -10 -20z"/>
<path fill="#000000" stroke="none" d="M178 3 c7 -3 16 -2 19 1 4 3 -2 6 -13
5 -11 0 -14 -3 -6 -6z"/>
</g>
</svg>
