<?xml version="1.0" standalone="no"?>
<!DOCTYPE svg PUBLIC "-//W3C//DTD SVG 20010904//EN"
 "http://www.w3.org/TR/2001/REC-SVG-20010904/DTD/svg10.dtd">
<svg version="1.0" xmlns="http://www.w3.org/2000/svg"
 width="32.000000pt" height="32.000000pt" viewBox="0 0 32.000000 32.000000"
 preserveAspectRatio="xMidYMid meet">
<metadata>
Created by potrace 1.16, written by Peter Selinger 2001-2019
</metadata>
<g transform="translate(0.000000,32.000000) scale(0.100000,-0.100000)"
fill="#000000" stroke="none">
<path fill="#000000" stroke="none" d="M0 280 c0 -33 3 -38 17 -33 11 4 12 8
5 11 -18 6 -15 52 3 52 9 0 15 -9 15 -21 0 -18 2 -19 15 -9 8 7 12 17 8 24 -3
6 4 2 18 -9 18 -15 20 -16 10 -2 -11 14 -11 17 0 17 8 0 20 -4 28 -9 8 -5 21
-7 28 -4 29 11 -11 23 -79 23 l-68 0 0 -40z"/>
<path fill="#000000" stroke="none" d="M302 265 c0 -16 2 -22 5 -12 2 9 2 23
0 30 -3 6 -5 -1 -5 -18z"/>
<path fill="#000000" stroke="none" d="M301 197 c0 -9 -7 -26 -13 -37 -10 -16
-9 -25 5 -49 20 -34 21 -54 5 -81 -7 -10 -9 -23 -5 -27 16 -15 27 23 26 87 -1
61 -15 146 -18 107z"/>
<path fill="#000000" stroke="none" d="M2 128 c-1 -40 1 -66 4 -58 3 8 8 22
10 30 4 12 10 9 24 -10 l20 -25 -2 27 c-1 15 -6 24 -10 22 -4 -3 -8 -1 -8 5 0
5 4 13 10 16 19 12 11 35 -12 32 -12 -1 -23 3 -23 10 0 6 -3 14 -6 17 -3 4 -6
-26 -7 -66z"/>
<path fill="#000000" stroke="none" d="M2 28 c2 -18 10 -24 38 -26 l35 -2 -27
15 c-16 9 -28 20 -28 25 0 6 -5 10 -11 10 -6 0 -9 -10 -7 -22z"/>
<path fill="#000000" stroke="none" d="M168 3 c6 -2 18 -2 25 0 6 3 1 5 -13 5
-14 0 -19 -2 -12 -5z"/>
</g>
</svg>
