<?xml version="1.0" standalone="no"?>
<!DOCTYPE svg PUBLIC "-//W3C//DTD SVG 20010904//EN"
 "http://www.w3.org/TR/2001/REC-SVG-20010904/DTD/svg10.dtd">
<svg version="1.0" xmlns="http://www.w3.org/2000/svg"
 width="32.000000pt" height="32.000000pt" viewBox="0 0 32.000000 32.000000"
 preserveAspectRatio="xMidYMid meet">
<metadata>
Created by potrace 1.16, written by Peter Selinger 2001-2019
</metadata>
<g transform="translate(0.000000,32.000000) scale(0.100000,-0.100000)"
fill="#000000" stroke="none">
<path fill="#000000" stroke="none" d="M0 280 c0 -33 3 -38 17 -33 11 4 12 8
5 11 -18 6 -15 52 3 52 9 0 15 -9 15 -21 0 -18 2 -19 15 -9 8 7 13 16 10 20
-3 4 9 7 25 6 17 -1 36 1 43 6 6 4 -21 8 -60 8 l-73 0 0 -40z"/>
<path fill="#000000" stroke="none" d="M3 120 c0 -36 2 -50 4 -32 2 17 2 47 0
65 -2 17 -4 3 -4 -33z"/>
<path fill="#000000" stroke="none" d="M313 90 c0 -41 2 -58 4 -38 2 21 2 55
0 76 -2 20 -4 3 -4 -38z"/>
<path fill="#000000" stroke="none" d="M2 30 c0 -14 2 -19 5 -12 2 6 2 18 0
25 -3 6 -5 1 -5 -13z"/>
</g>
</svg>
