<?xml version="1.0" standalone="no"?>
<!DOCTYPE svg PUBLIC "-//W3C//DTD SVG 20010904//EN"
 "http://www.w3.org/TR/2001/REC-SVG-20010904/DTD/svg10.dtd">
<svg version="1.0" xmlns="http://www.w3.org/2000/svg"
 width="32.000000pt" height="32.000000pt" viewBox="0 0 32.000000 32.000000"
 preserveAspectRatio="xMidYMid meet">
<metadata>
Created by potrace 1.16, written by Peter Selinger 2001-2019
</metadata>
<g transform="translate(0.000000,32.000000) scale(0.100000,-0.100000)"
fill="#000000" stroke="none">
<path fill="#000000" stroke="none" d="M0 219 l0 -100 40 33 c38 32 49 48 32
48 -5 0 -17 6 -27 14 -19 14 -19 15 -1 35 10 11 34 23 52 27 22 4 34 12 35 23
0 10 4 8 10 -8 7 -18 12 -21 23 -12 7 6 31 17 52 25 37 14 34 15 -88 15 l-128
1 0 -101z"/>
<path fill="#000000" stroke="none" d="M308 265 c-4 -4 -4 -13 -1 -21 3 -8 -1
-21 -8 -30 -10 -13 -10 -17 2 -25 10 -6 15 -2 17 16 4 34 -1 69 -10 60z"/>
<path fill="#000000" stroke="none" d="M151 250 c0 -8 4 -24 9 -35 7 -19 8
-19 15 -2 5 12 2 24 -9 35 -13 13 -16 14 -15 2z"/>
<path fill="#000000" stroke="none" d="M126 242 c-3 -5 1 -15 9 -22 16 -14 20
-3 6 19 -5 8 -11 9 -15 3z"/>
<path fill="#000000" stroke="none" d="M217 110 c-6 -24 8 -36 17 -14 4 10 13
13 26 9 15 -5 18 -3 14 9 -9 23 -51 20 -57 -4z"/>
<path fill="#000000" stroke="none" d="M0 34 c0 -33 20 -48 34 -25 4 5 23 12
44 16 29 4 38 11 38 26 0 22 -9 24 -36 7 -15 -10 -27 -10 -50 -1 -30 11 -30
11 -30 -23z"/>
<path fill="#000000" stroke="none" d="M230 61 c0 -5 -8 -12 -17 -14 -10 -3
-3 -5 16 -6 29 -1 32 1 21 14 -14 17 -20 19 -20 6z"/>
<path fill="#000000" stroke="none" d="M298 3 c7 -3 16 -2 19 1 4 3 -2 6 -13
5 -11 0 -14 -3 -6 -6z"/>
</g>
</svg>
