<?xml version="1.0" standalone="no"?>
<!DOCTYPE svg PUBLIC "-//W3C//DTD SVG 20010904//EN"
 "http://www.w3.org/TR/2001/REC-SVG-20010904/DTD/svg10.dtd">
<svg version="1.0" xmlns="http://www.w3.org/2000/svg"
 width="32.000000pt" height="32.000000pt" viewBox="0 0 32.000000 32.000000"
 preserveAspectRatio="xMidYMid meet">
<metadata>
Created by potrace 1.16, written by Peter Selinger 2001-2019
</metadata>
<g transform="translate(0.000000,32.000000) scale(0.100000,-0.100000)"
fill="#000000" stroke="none">
<path fill="#000000" stroke="none" d="M216 304 c-21 -8 -45 -19 -52 -25 -11
-9 -16 -6 -23 12 -6 16 -10 18 -10 8 -1 -11 -13 -19 -35 -23 -18 -4 -42 -16
-52 -27 -18 -20 -18 -21 0 -35 10 -7 24 -15 30 -17 6 -3 -8 -21 -32 -42 -33
-29 -42 -43 -40 -64 4 -32 49 -52 78 -33 27 17 36 15 36 -7 0 -15 -9 -22 -38
-26 -80 -14 -46 -25 74 -25 175 0 166 -5 167 95 1 70 -2 86 -16 93 -14 9 -15
13 -4 26 7 9 11 22 8 31 -4 8 -2 17 3 20 6 4 10 17 10 31 0 21 -5 24 -32 23
-18 0 -51 -7 -72 -15z"/>
<path fill="#ffffff" stroke="none" d="M203 283 c-9 -3 -10 -10 -2 -24 7 -15
7 -19 -3 -17 -7 2 -13 -6 -13 -19 -1 -34 -13 -39 -25 -9 -14 39 -13 51 4 37
12 -10 14 -9 12 6 -3 18 11 33 29 32 6 0 4 -3 -2 -6z"/>
<path fill="#ffffff" stroke="none" d="M90 256 c0 -2 -7 -7 -16 -10 -8 -3 -12
-2 -9 4 6 10 25 14 25 6z"/>
<path fill="#ffffff" stroke="none" d="M150 216 c0 -5 -7 -3 -15 4 -8 7 -12
17 -9 22 7 10 24 -9 24 -26z"/>
<path fill="#ffffff" stroke="none" d="M114 209 c-3 -5 -10 -7 -15 -3 -5 3 -7
10 -3 15 3 5 10 7 15 3 5 -3 7 -10 3 -15z"/>
<path fill="#ffffff" stroke="none" d="M290 165 c19 -22 8 -25 -12 -3 -10 10
-14 18 -9 18 5 0 14 -7 21 -15z"/>
<path fill="#ffffff" stroke="none" d="M51 147 c-6 -8 -8 -16 -6 -19 3 -3 -4
-8 -16 -11 -21 -6 -21 -6 2 19 24 25 39 34 20 11z"/>
<path fill="#ffffff" stroke="none" d="M167 135 c0 -11 -4 -12 -14 -4 -17 15
-17 30 0 23 8 -3 14 -11 14 -19z"/>
<path fill="#ffffff" stroke="none" d="M274 114 c4 -12 1 -14 -14 -9 -13 4
-22 1 -26 -9 -9 -22 -23 -10 -17 14 6 24 48 27 57 4z"/>
<path fill="#ffffff" stroke="none" d="M250 55 c11 -13 8 -15 -21 -14 -19 1
-26 3 -16 6 9 2 17 9 17 14 0 13 6 11 20 -6z"/>
<path fill="#ffffff" stroke="none" d="M187 44 c-3 -3 -12 -4 -19 -1 -8 3 -5
6 6 6 11 1 17 -2 13 -5z"/>
</g>
</svg>
