<?xml version="1.0" standalone="no"?>
<!DOCTYPE svg PUBLIC "-//W3C//DTD SVG 20010904//EN"
 "http://www.w3.org/TR/2001/REC-SVG-20010904/DTD/svg10.dtd">
<svg version="1.0" xmlns="http://www.w3.org/2000/svg"
 width="32.000000pt" height="32.000000pt" viewBox="0 0 32.000000 32.000000"
 preserveAspectRatio="xMidYMid meet">
<metadata>
Created by potrace 1.16, written by Peter Selinger 2001-2019
</metadata>
<g transform="translate(0.000000,32.000000) scale(0.100000,-0.100000)"
fill="#000000" stroke="none">
<path fill="#000000" stroke="none" d="M111 241 c-10 -6 -9 -10 3 -14 8 -3 18
-2 21 3 8 13 -9 20 -24 11z"/>
<path fill="#000000" stroke="none" d="M37 223 c-4 -3 -7 -11 -7 -17 0 -6 5
-5 12 2 6 6 9 14 7 17 -3 3 -9 2 -12 -2z"/>
<path fill="#000000" stroke="none" d="M47 193 c-4 -3 -7 -11 -7 -17 0 -6 5
-5 12 2 6 6 9 14 7 17 -3 3 -9 2 -12 -2z"/>
<path fill="#000000" stroke="none" d="M77 193 c-4 -3 -7 -11 -7 -17 0 -6 5
-5 12 2 6 6 9 14 7 17 -3 3 -9 2 -12 -2z"/>
<path fill="#000000" stroke="none" d="M205 181 c-3 -5 -2 -12 3 -15 5 -3 9 1
9 9 0 17 -3 19 -12 6z"/>
<path fill="#000000" stroke="none" d="M97 163 c-4 -3 -7 -11 -7 -17 0 -6 5
-5 12 2 6 6 9 14 7 17 -3 3 -9 2 -12 -2z"/>
<path fill="#000000" stroke="none" d="M213 137 c-3 -6 -1 -7 5 -3 6 3 17 -3
25 -15 8 -11 18 -16 21 -11 3 6 -1 13 -10 16 -8 3 -13 10 -10 14 3 5 -2 9 -10
9 -8 0 -18 -5 -21 -10z"/>
<path fill="#000000" stroke="none" d="M95 126 c-17 -7 -37 -21 -45 -32 -11
-14 -7 -13 15 4 17 14 31 19 33 13 2 -6 8 -11 13 -11 6 0 7 5 4 10 -3 6 4 14
17 19 13 6 16 10 8 10 -8 0 -29 -6 -45 -13z"/>
<path fill="#000000" stroke="none" d="M180 90 c-12 -7 -10 -9 7 -7 12 0 19 5
17 9 -6 10 -6 10 -24 -2z"/>
<path fill="#000000" stroke="none" d="M15 39 c-4 -6 -5 -12 -2 -15 2 -3 7 2
10 11 7 17 1 20 -8 4z"/>
<path fill="#000000" stroke="none" d="M36 25 c-9 -26 -7 -32 5 -12 6 10 9 21
6 23 -2 3 -7 -2 -11 -11z"/>
<path fill="#000000" stroke="none" d="M87 30 c19 -21 113 -25 153 -6 19 9 24
12 10 8 -32 -9 -129 -8 -155 3 -16 6 -18 5 -8 -5z"/>
<path fill="#000000" stroke="none" d="M281 24 c0 -11 3 -14 6 -6 3 7 2 16 -1
19 -3 4 -6 -2 -5 -13z"/>
</g>
</svg>
