<?xml version="1.0" standalone="no"?>
<!DOCTYPE svg PUBLIC "-//W3C//DTD SVG 20010904//EN"
 "http://www.w3.org/TR/2001/REC-SVG-20010904/DTD/svg10.dtd">
<svg version="1.0" xmlns="http://www.w3.org/2000/svg"
 width="32.000000pt" height="32.000000pt" viewBox="0 0 32.000000 32.000000"
 preserveAspectRatio="xMidYMid meet">
<metadata>
Created by potrace 1.16, written by Peter Selinger 2001-2019
</metadata>
<g transform="translate(0.000000,32.000000) scale(0.100000,-0.100000)"
fill="#000000" stroke="none">
<path fill="#000000" stroke="none" d="M275 295 c-16 -8 -39 -14 -50 -15 -11
0 -27 -13 -37 -29 -9 -16 -34 -39 -55 -50 -21 -11 -33 -20 -27 -21 7 0 11 -8
10 -17 0 -10 6 -18 14 -18 8 0 15 9 15 20 0 11 5 20 12 20 7 0 18 6 25 13 6 6
22 12 34 12 12 0 27 7 34 15 7 8 18 15 24 15 6 0 16 16 22 35 6 19 11 35 10
34 -1 0 -14 -7 -31 -14z"/>
<path fill="#000000" stroke="none" d="M160 275 c5 -6 5 -16 0 -25 -6 -8 -10
-19 -10 -25 1 -14 20 22 25 44 2 10 -3 18 -11 18 -9 0 -10 -4 -4 -12z"/>
<path fill="#000000" stroke="none" d="M47 207 c-4 -11 -4 -24 0 -29 3 -6 1
-8 -4 -5 -6 4 -16 -7 -23 -23 -14 -33 -7 -51 12 -32 15 15 31 16 23 1 -4 -6 2
-5 14 2 22 15 9 31 -17 21 -10 -3 -13 -1 -8 6 4 7 13 12 19 12 7 0 18 14 24
31 12 30 11 31 -7 14 -17 -16 -18 -15 -22 2 -3 17 -4 17 -11 0z"/>
<path fill="#000000" stroke="none" d="M186 183 c-12 -13 -5 -40 14 -58 20
-18 20 -19 -7 -48 -16 -17 -23 -27 -16 -23 6 3 13 2 15 -2 1 -4 17 8 33 27 17
19 23 31 15 26 -12 -7 -13 -6 -4 6 15 20 2 60 -23 70 -11 4 -24 5 -27 2z"/>
<path fill="#000000" stroke="none" d="M260 156 c0 -2 8 -10 18 -17 15 -13 16
-12 3 4 -13 16 -21 21 -21 13z"/>
<path fill="#000000" stroke="none" d="M115 100 c-3 -6 1 -7 9 -4 18 7 21 14
7 14 -6 0 -13 -4 -16 -10z"/>
</g>
</svg>
