<?xml version="1.0" standalone="no"?>
<!DOCTYPE svg PUBLIC "-//W3C//DTD SVG 20010904//EN"
 "http://www.w3.org/TR/2001/REC-SVG-20010904/DTD/svg10.dtd">
<svg version="1.0" xmlns="http://www.w3.org/2000/svg"
 width="32.000000pt" height="32.000000pt" viewBox="0 0 32.000000 32.000000"
 preserveAspectRatio="xMidYMid meet">
<metadata>
Created by potrace 1.16, written by Peter Selinger 2001-2019
</metadata>
<g transform="translate(0.000000,32.000000) scale(0.100000,-0.100000)"
fill="#000000" stroke="none">
<path fill="#000000" stroke="none" d="M0 160 l0 -160 160 0 160 0 0 160 0
160 -160 0 -160 0 0 -160z"/>
<path fill="#ffffff" stroke="none" d="M184 283 c-4 -16 -11 -34 -17 -41 -5
-7 -7 -15 -4 -19 4 -3 14 8 24 26 10 17 26 31 36 31 10 0 32 6 50 14 l33 13
-10 -33 c-6 -19 -16 -34 -22 -34 -6 0 -17 -7 -24 -15 -7 -8 -22 -15 -35 -15
-12 0 -30 -10 -41 -22 -13 -16 -14 -19 -3 -10 31 24 139 -39 139 -81 0 -5 -9
2 -21 17 -24 31 -50 35 -44 7 2 -11 -3 -25 -10 -31 -8 -6 -11 -19 -8 -27 5
-12 3 -14 -6 -8 -8 4 -17 2 -22 -6 -7 -11 -9 -11 -9 -1 0 8 -5 10 -12 6 -7 -4
-1 6 15 23 l27 29 -30 22 c-20 15 -38 20 -54 16 -13 -3 -27 -1 -31 5 -3 6 -11
9 -16 5 -5 -3 -7 -9 -5 -13 3 -4 -4 -13 -16 -20 -11 -7 -17 -8 -13 -2 8 15 -8
14 -23 -1 -24 -24 -25 4 -1 54 15 33 25 45 27 34 4 -16 5 -16 24 1 21 18 21
18 9 -4 -6 -13 -7 -23 -2 -23 16 0 61 60 61 82 0 12 8 27 18 34 23 18 23 18
16 -13z"/>
<path fill="#ffffff" stroke="none" d="M166 111 c-3 -5 -17 -11 -32 -14 -29
-5 -20 9 11 16 11 3 21 5 23 6 2 0 1 -3 -2 -8z"/>
<path fill="#ffffff" stroke="none" d="M195 20 c22 0 52 7 65 16 l25 16 -24
-21 c-15 -14 -37 -21 -62 -21 -41 0 -102 21 -113 38 -3 5 11 1 31 -9 21 -11
56 -19 78 -19z"/>
</g>
</svg>
