<?xml version="1.0" standalone="no"?>
<!DOCTYPE svg PUBLIC "-//W3C//DTD SVG 20010904//EN"
 "http://www.w3.org/TR/2001/REC-SVG-20010904/DTD/svg10.dtd">
<svg version="1.0" xmlns="http://www.w3.org/2000/svg"
 width="32.000000pt" height="32.000000pt" viewBox="0 0 32.000000 32.000000"
 preserveAspectRatio="xMidYMid meet">
<metadata>
Created by potrace 1.16, written by Peter Selinger 2001-2019
</metadata>
<g transform="translate(0.000000,32.000000) scale(0.100000,-0.100000)"
fill="#000000" stroke="none">
<path fill="#000000" stroke="none" d="M22 158 l2 -143 3 137 4 137 137 4 137
3 -142 2 -143 2 2 -142z"/>
<path fill="#000000" stroke="none" d="M90 250 c0 -13 -7 -20 -20 -20 -11 0
-20 -4 -20 -9 0 -4 11 -6 24 -4 16 3 26 13 29 29 2 13 0 24 -4 24 -5 0 -9 -9
-9 -20z"/>
<path fill="#000000" stroke="none" d="M192 174 c-13 -9 -33 -14 -45 -11 -22
6 -22 6 -2 -9 25 -19 82 -10 110 17 19 19 19 19 -11 19 -16 0 -40 -7 -52 -16z"/>
<path fill="#ffffff" stroke="none" d="M245 170 c-3 -5 -11 -10 -16 -10 -6 0
-7 5 -4 10 3 6 11 10 16 10 6 0 7 -4 4 -10z"/>
<path fill="#000000" stroke="none" d="M212 90 c0 -14 2 -19 5 -12 2 6 2 18 0
25 -3 6 -5 1 -5 -13z"/>
<path fill="#000000" stroke="none" d="M164 79 c-11 -19 12 -30 57 -27 30 2
44 8 44 17 0 8 -6 16 -13 19 -7 2 -11 -2 -10 -10 2 -8 -7 -13 -27 -13 -19 0
-29 5 -27 13 3 15 -14 16 -24 1z"/>
</g>
</svg>
