<?xml version="1.0" standalone="no"?>
<!DOCTYPE svg PUBLIC "-//W3C//DTD SVG 20010904//EN"
 "http://www.w3.org/TR/2001/REC-SVG-20010904/DTD/svg10.dtd">
<svg version="1.0" xmlns="http://www.w3.org/2000/svg"
 width="32.000000pt" height="32.000000pt" viewBox="0 0 32.000000 32.000000"
 preserveAspectRatio="xMidYMid meet">
<metadata>
Created by potrace 1.16, written by Peter Selinger 2001-2019
</metadata>
<g transform="translate(0.000000,32.000000) scale(0.100000,-0.100000)"
fill="#000000" stroke="none">
<path fill="#000000" stroke="none" d="M0 160 l0 -160 160 0 160 0 0 160 0
160 -160 0 -160 0 0 -160z"/>
<path fill="#ffffff" stroke="none" d="M168 293 l-138 -4 0 -128 c0 -94 3
-131 13 -134 7 -3 5 -6 -5 -6 -16 -1 -18 12 -18 139 l0 140 143 -2 142 -2
-137 -3z"/>
<path fill="#ffffff" stroke="none" d="M96 191 c-16 -17 -33 -28 -38 -25 -5 4
1 17 13 30 l22 24 -21 23 c-33 35 -13 42 22 8 l30 -31 -28 -29z"/>
<path fill="#ffffff" stroke="none" d="M260 247 c0 -7 -25 -37 -55 -67 -31
-30 -53 -60 -50 -67 7 -19 -6 -16 -32 9 -25 23 -30 40 -10 33 7 -3 37 19 67
50 53 54 80 68 80 42z"/>
<path fill="#ffffff" stroke="none" d="M97 102 c-10 -10 -17 -24 -17 -30 0 -7
-4 -12 -10 -12 -16 0 -12 12 12 37 25 27 39 31 15 5z"/>
</g>
</svg>
