<?xml version="1.0" standalone="no"?>
<!DOCTYPE svg PUBLIC "-//W3C//DTD SVG 20010904//EN"
 "http://www.w3.org/TR/2001/REC-SVG-20010904/DTD/svg10.dtd">
<svg version="1.0" xmlns="http://www.w3.org/2000/svg"
 width="32.000000pt" height="32.000000pt" viewBox="0 0 32.000000 32.000000"
 preserveAspectRatio="xMidYMid meet">
<metadata>
Created by potrace 1.16, written by Peter Selinger 2001-2019
</metadata>
<g transform="translate(0.000000,32.000000) scale(0.100000,-0.100000)"
fill="#000000" stroke="none">
<path fill="#000000" stroke="none" d="M0 160 l0 -160 160 0 160 0 0 160 0
160 -160 0 -160 0 0 -160z"/>
<path fill="#ffffff" stroke="none" d="M168 293 l-138 -4 0 -128 c0 -94 3
-131 13 -134 7 -3 5 -6 -5 -6 -16 -1 -18 12 -18 139 l0 140 143 -2 142 -2
-137 -3z"/>
<path fill="#ffffff" stroke="none" d="M215 210 l50 -50 -53 -53 -52 -52 -52
52 -53 53 50 50 c27 27 52 50 55 50 3 0 28 -23 55 -50z"/>
<path fill="#000000" stroke="none" d="M125 190 l-29 -30 32 -33 32 -32 32 32
32 33 -29 30 c-16 16 -32 30 -35 30 -3 0 -19 -14 -35 -30z"/>
<path fill="#ffffff" stroke="none" d="M176 169 c10 -17 -13 -36 -27 -22 -12
12 -4 33 11 33 5 0 12 -5 16 -11z"/>
</g>
</svg>
