<?xml version="1.0" standalone="no"?>
<!DOCTYPE svg PUBLIC "-//W3C//DTD SVG 20010904//EN"
 "http://www.w3.org/TR/2001/REC-SVG-20010904/DTD/svg10.dtd">
<svg version="1.0" xmlns="http://www.w3.org/2000/svg"
 width="32.000000pt" height="32.000000pt" viewBox="0 0 32.000000 32.000000"
 preserveAspectRatio="xMidYMid meet">
<metadata>
Created by potrace 1.16, written by Peter Selinger 2001-2019
</metadata>
<g transform="translate(0.000000,32.000000) scale(0.100000,-0.100000)"
fill="#000000" stroke="none">
<path fill="#000000" stroke="none" d="M20 160 l0 -140 140 0 140 0 0 140 0
140 -140 0 -140 0 0 -140z"/>
<path fill="#ffffff" stroke="none" d="M290 160 l0 -130 -130 0 -130 0 0 130
0 130 130 0 130 0 0 -130z"/>
<path fill="#000000" stroke="none" d="M97 264 c-4 -4 -7 -18 -7 -30 0 -13
-10 -30 -22 -38 -12 -9 -19 -19 -15 -23 4 -4 14 3 22 14 9 12 28 23 43 25 21
2 27 8 27 28 0 18 -6 26 -20 28 -12 2 -24 0 -28 -4z"/>
<path fill="#000000" stroke="none" d="M159 160 c-13 -10 -20 -19 -15 -20 5 0
2 -7 -5 -16 -11 -14 -10 -20 14 -40 16 -13 36 -24 46 -24 18 0 74 39 57 40 -5
0 -2 7 5 16 11 14 10 20 -14 40 -34 29 -57 30 -88 4z"/>
<path fill="#ffffff" stroke="none" d="M228 148 c21 -21 13 -29 -13 -12 -15
10 -32 13 -46 9 -14 -5 -19 -4 -15 4 9 15 59 14 74 -1z"/>
<path fill="#ffffff" stroke="none" d="M231 95 c14 5 19 4 15 -4 -9 -15 -59
-14 -74 1 -21 21 -13 29 13 12 15 -10 32 -13 46 -9z"/>
</g>
</svg>
