<?xml version="1.0" standalone="no"?>
<!DOCTYPE svg PUBLIC "-//W3C//DTD SVG 20010904//EN"
 "http://www.w3.org/TR/2001/REC-SVG-20010904/DTD/svg10.dtd">
<svg version="1.0" xmlns="http://www.w3.org/2000/svg"
 width="32.000000pt" height="32.000000pt" viewBox="0 0 32.000000 32.000000"
 preserveAspectRatio="xMidYMid meet">
<metadata>
Created by potrace 1.16, written by Peter Selinger 2001-2019
</metadata>
<g transform="translate(0.000000,32.000000) scale(0.100000,-0.100000)"
fill="#000000" stroke="none">
<path fill="#000000" stroke="none" d="M0 160 l0 -160 160 0 160 0 0 160 0
160 -160 0 -160 0 0 -160z"/>
<path fill="#ffffff" stroke="none" d="M168 293 l-137 -4 -4 -137 -3 -137 -2
143 -2 142 143 -2 142 -2 -137 -3z"/>
<path fill="#ffffff" stroke="none" d="M145 240 c0 -20 -6 -26 -27 -28 -15 -2
-34 -13 -43 -25 -8 -11 -18 -18 -22 -14 -4 4 3 14 15 23 12 8 22 25 22 38 0
29 9 38 35 34 14 -2 20 -10 20 -28z"/>
<path fill="#ffffff" stroke="none" d="M225 155 c0 -25 -4 -30 -25 -30 -16 0
-26 6 -28 18 -6 30 6 49 30 45 18 -2 23 -9 23 -33z"/>
<path fill="#ffffff" stroke="none" d="M180 98 c16 -10 24 -10 41 0 23 14 49
2 49 -24 0 -17 -60 -28 -105 -20 -36 7 -44 23 -23 44 15 15 14 15 38 0z"/>
</g>
</svg>
