<?xml version="1.0" standalone="no"?>
<!DOCTYPE svg PUBLIC "-//W3C//DTD SVG 20010904//EN"
 "http://www.w3.org/TR/2001/REC-SVG-20010904/DTD/svg10.dtd">
<svg version="1.0" xmlns="http://www.w3.org/2000/svg"
 width="32.000000pt" height="32.000000pt" viewBox="0 0 32.000000 32.000000"
 preserveAspectRatio="xMidYMid meet">
<metadata>
Created by potrace 1.16, written by Peter Selinger 2001-2019
</metadata>
<g transform="translate(0.000000,32.000000) scale(0.100000,-0.100000)"
fill="#000000" stroke="none">
<path fill="#000000" stroke="none" d="M0 160 l0 -160 160 0 160 0 0 160 0
160 -160 0 -160 0 0 -160z"/>
<path fill="#ffffff" stroke="none" d="M278 289 c-16 -6 -31 -22 -37 -41 -14
-39 -14 -41 2 -32 8 5 8 2 -2 -9 -7 -9 -19 -17 -25 -17 -7 0 -21 -6 -31 -14
-18 -13 -18 -14 8 -9 17 3 27 1 27 -6 0 -7 -5 -9 -12 -5 -7 5 -8 3 -2 -7 10
-16 15 -44 7 -35 -9 8 -34 -15 -28 -25 3 -4 13 -5 23 -2 9 3 5 -4 -10 -15 -27
-23 -68 -30 -68 -11 0 5 -5 7 -10 4 -6 -3 -10 1 -10 9 0 8 -7 19 -16 24 -11 6
-18 27 -21 57 -2 26 -5 52 -6 58 -4 21 47 38 104 34 52 -5 58 -3 68 19 l11 24
-110 0 -109 0 -4 -137 -3 -138 -2 143 -2 142 143 -1 c105 0 135 -3 115 -10z"/>
<path fill="#ffffff" stroke="none" d="M55 136 c0 -15 -4 -21 -9 -16 -5 5 -6
16 -3 24 9 22 12 20 12 -8z"/>
<path fill="#ffffff" stroke="none" d="M270 135 c0 -8 -3 -16 -7 -18 -5 -3 -8
5 -8 18 0 13 3 21 8 18 4 -2 7 -10 7 -18z"/>
<path fill="#ffffff" stroke="none" d="M99 87 c-2 -1 -13 -9 -24 -17 -19 -14
-19 -14 -6 3 7 9 18 17 24 17 6 0 8 -1 6 -3z"/>
<path fill="#000000" stroke="none" d="M93 230 c-13 -5 -23 -11 -23 -12 0 -2
34 -3 75 -3 41 0 75 3 75 6 0 19 -87 25 -127 9z"/>
</g>
</svg>
