<?xml version="1.0" standalone="no"?>
<!DOCTYPE svg PUBLIC "-//W3C//DTD SVG 20010904//EN"
 "http://www.w3.org/TR/2001/REC-SVG-20010904/DTD/svg10.dtd">
<svg version="1.0" xmlns="http://www.w3.org/2000/svg"
 width="32.000000pt" height="32.000000pt" viewBox="0 0 32.000000 32.000000"
 preserveAspectRatio="xMidYMid meet">
<metadata>
Created by potrace 1.16, written by Peter Selinger 2001-2019
</metadata>
<g transform="translate(0.000000,32.000000) scale(0.100000,-0.100000)"
fill="#000000" stroke="none">
<path fill="#000000" stroke="none" d="M22 163 l2 -138 3 132 4 132 132 4 132
3 -137 2 -138 2 2 -137z"/>
<path fill="#000000" stroke="none" d="M100 243 c-51 -19 -42 -48 19 -59 20
-4 40 -12 44 -18 5 -7 7 -3 5 9 -2 11 2 19 9 18 6 -1 13 3 16 10 3 9 -8 13
-39 13 -33 0 -43 -4 -39 -14 3 -8 0 -10 -8 -5 -6 4 -15 8 -19 9 -5 1 -11 2
-15 3 -20 3 21 23 63 30 41 7 44 9 14 9 -19 0 -42 -2 -50 -5z"/>
</g>
</svg>
