<?xml version="1.0" standalone="no"?>
<!DOCTYPE svg PUBLIC "-//W3C//DTD SVG 20010904//EN"
 "http://www.w3.org/TR/2001/REC-SVG-20010904/DTD/svg10.dtd">
<svg version="1.0" xmlns="http://www.w3.org/2000/svg"
 width="32.000000pt" height="32.000000pt" viewBox="0 0 32.000000 32.000000"
 preserveAspectRatio="xMidYMid meet">
<metadata>
Created by potrace 1.16, written by Peter Selinger 2001-2019
</metadata>
<g transform="translate(0.000000,32.000000) scale(0.100000,-0.100000)"
fill="#000000" stroke="none">
<path fill="#000000" stroke="none" d="M22 158 l2 -143 3 137 4 137 137 4 137
3 -142 2 -143 2 2 -142z"/>
<path fill="#000000" stroke="none" d="M163 224 c-17 -17 -24 -33 -21 -49 4
-18 -4 -33 -28 -56 -19 -18 -34 -41 -34 -51 0 -29 33 -21 69 16 23 24 38 32
56 28 29 -5 75 36 75 68 0 27 -43 70 -70 70 -11 0 -32 -12 -47 -26z"/>
<path fill="#ffffff" stroke="none" d="M166 129 c7 -12 -44 -69 -63 -69 -21 0
-15 22 14 52 29 30 38 34 49 17z"/>
</g>
</svg>
