<?xml version="1.0" standalone="no"?>
<!DOCTYPE svg PUBLIC "-//W3C//DTD SVG 20010904//EN"
 "http://www.w3.org/TR/2001/REC-SVG-20010904/DTD/svg10.dtd">
<svg version="1.0" xmlns="http://www.w3.org/2000/svg"
 width="32.000000pt" height="32.000000pt" viewBox="0 0 32.000000 32.000000"
 preserveAspectRatio="xMidYMid meet">
<metadata>
Created by potrace 1.16, written by Peter Selinger 2001-2019
</metadata>
<g transform="translate(0.000000,32.000000) scale(0.100000,-0.100000)"
fill="#000000" stroke="none">
<path fill="#000000" stroke="none" d="M0 160 l0 -160 160 0 160 0 0 160 0
160 -160 0 -160 0 0 -160z"/>
<path fill="#ffffff" stroke="none" d="M163 293 l-132 -4 -4 -132 -3 -132 -2
138 -2 137 138 -2 137 -2 -132 -3z"/>
<path fill="#ffffff" stroke="none" d="M220 215 c17 -21 9 -48 -20 -62 -14 -7
-21 -13 -17 -13 5 0 5 -5 2 -10 -5 -8 -11 -8 -19 -1 -9 8 -19 4 -36 -14 -13
-13 -27 -22 -32 -19 -5 4 2 19 17 34 17 18 23 30 16 35 -6 3 -9 11 -5 16 3 5
10 7 15 4 5 -4 9 0 9 7 0 34 47 50 70 23z"/>
<path fill="#000000" stroke="none" d="M177 214 c-4 -4 -7 -16 -7 -26 0 -14 6
-19 23 -16 14 2 22 10 22 23 0 20 -25 32 -38 19z"/>
</g>
</svg>
