<?xml version="1.0" standalone="no"?>
<!DOCTYPE svg PUBLIC "-//W3C//DTD SVG 20010904//EN"
 "http://www.w3.org/TR/2001/REC-SVG-20010904/DTD/svg10.dtd">
<svg version="1.0" xmlns="http://www.w3.org/2000/svg"
 width="32.000000pt" height="32.000000pt" viewBox="0 0 32.000000 32.000000"
 preserveAspectRatio="xMidYMid meet">
<metadata>
Created by potrace 1.16, written by Peter Selinger 2001-2019
</metadata>
<g transform="translate(0.000000,32.000000) scale(0.100000,-0.100000)"
fill="#000000" stroke="none">
<path fill="#000000" stroke="none" d="M0 160 l0 -160 160 0 160 0 0 160 0
160 -160 0 -160 0 0 -160z"/>
<path fill="#ffffff" stroke="none" d="M168 293 l-137 -4 -4 -137 -3 -137 -2
143 -2 142 143 -2 142 -2 -137 -3z"/>
<path fill="#ffffff" stroke="none" d="M96 191 c-16 -17 -33 -28 -38 -25 -5 4
1 17 13 30 l22 24 -21 23 c-33 35 -13 42 22 8 l30 -31 -28 -29z"/>
<path fill="#ffffff" stroke="none" d="M233 205 c-18 -37 -29 -50 -33 -40 -4
11 -20 0 -64 -44 -33 -33 -64 -57 -69 -54 -5 3 19 34 54 69 49 50 59 64 44 64
-12 1 1 12 35 30 30 16 56 29 57 30 2 0 -9 -25 -24 -55z"/>
</g>
</svg>
