<?xml version="1.0" standalone="no"?>
<!DOCTYPE svg PUBLIC "-//W3C//DTD SVG 20010904//EN"
 "http://www.w3.org/TR/2001/REC-SVG-20010904/DTD/svg10.dtd">
<svg version="1.0" xmlns="http://www.w3.org/2000/svg"
 width="32.000000pt" height="32.000000pt" viewBox="0 0 32.000000 32.000000"
 preserveAspectRatio="xMidYMid meet">
<metadata>
Created by potrace 1.16, written by Peter Selinger 2001-2019
</metadata>
<g transform="translate(0.000000,32.000000) scale(0.100000,-0.100000)"
fill="#000000" stroke="none">
<path fill="#000000" stroke="none" d="M20 160 l0 -140 140 0 140 0 0 140 0
140 -140 0 -140 0 0 -140z"/>
<path fill="#ffffff" stroke="none" d="M290 160 l0 -130 -130 0 -130 0 0 130
0 130 130 0 130 0 0 -130z"/>
<path fill="#000000" stroke="none" d="M57 274 c-4 -4 3 -18 15 -31 l21 -23
-22 -24 c-12 -13 -18 -26 -13 -30 5 -3 22 8 38 25 l28 29 -30 31 c-16 16 -33
26 -37 23z"/>
<path fill="#000000" stroke="none" d="M196 234 c-37 -19 -45 -28 -35 -35 11
-6 1 -22 -44 -67 -32 -32 -54 -61 -50 -65 4 -4 33 18 65 50 46 45 61 55 67 44
7 -10 16 -1 35 37 37 74 37 74 -38 36z"/>
</g>
</svg>
