<?xml version="1.0" standalone="no"?>
<!DOCTYPE svg PUBLIC "-//W3C//DTD SVG 20010904//EN"
 "http://www.w3.org/TR/2001/REC-SVG-20010904/DTD/svg10.dtd">
<svg version="1.0" xmlns="http://www.w3.org/2000/svg"
 width="32.000000pt" height="32.000000pt" viewBox="0 0 32.000000 32.000000"
 preserveAspectRatio="xMidYMid meet">
<metadata>
Created by potrace 1.16, written by Peter Selinger 2001-2019
</metadata>
<g transform="translate(0.000000,32.000000) scale(0.100000,-0.100000)"
fill="#000000" stroke="none">
<path fill="#000000" stroke="none" d="M0 160 l0 -160 160 0 160 0 0 160 0
160 -160 0 -160 0 0 -160z"/>
<path fill="#ffffff" stroke="none" d="M300 160 l0 -140 -140 0 -140 0 0 140
0 140 140 0 140 0 0 -140z"/>
<path fill="#000000" stroke="none" d="M30 160 l0 -130 130 0 130 0 0 130 0
130 -130 0 -130 0 0 -130z"/>
<path fill="#ffffff" stroke="none" d="M96 191 c-16 -17 -33 -28 -38 -25 -5 4
1 17 13 30 l22 24 -21 23 c-33 35 -13 42 22 8 l30 -31 -28 -29z"/>
<path fill="#ffffff" stroke="none" d="M260 255 c0 -3 -12 -29 -26 -57 -19
-38 -28 -47 -35 -37 -6 11 -21 1 -67 -44 -32 -32 -61 -54 -65 -50 -4 4 18 33
50 65 45 45 55 61 44 67 -10 7 -2 16 35 35 50 26 64 30 64 21z"/>
</g>
</svg>
