<?xml version="1.0" standalone="no"?>
<!DOCTYPE svg PUBLIC "-//W3C//DTD SVG 20010904//EN"
 "http://www.w3.org/TR/2001/REC-SVG-20010904/DTD/svg10.dtd">
<svg version="1.0" xmlns="http://www.w3.org/2000/svg"
 width="32.000000pt" height="32.000000pt" viewBox="0 0 32.000000 32.000000"
 preserveAspectRatio="xMidYMid meet">
<metadata>
Created by potrace 1.16, written by Peter Selinger 2001-2019
</metadata>
<g transform="translate(0.000000,32.000000) scale(0.100000,-0.100000)"
fill="#000000" stroke="none">
<path fill="#000000" stroke="none" d="M115 250 c-23 -9 -39 -26 -48 -52 -10
-28 36 -23 48 5 8 17 18 22 50 22 33 0 41 -4 43 -21 2 -16 -5 -25 -27 -34 -17
-7 -31 -16 -31 -20 0 -5 -3 -15 -6 -24 -4 -12 0 -16 15 -16 12 0 21 5 21 10 0
6 16 20 35 31 48 28 55 57 21 86 -28 24 -81 30 -121 13z"/>
<path fill="#000000" stroke="none" d="M140 60 c0 -15 7 -20 25 -20 18 0 25 5
25 20 0 15 -7 20 -25 20 -18 0 -25 -5 -25 -20z"/>
</g>
</svg>
