<?xml version="1.0" standalone="no"?>
<!DOCTYPE svg PUBLIC "-//W3C//DTD SVG 20010904//EN"
 "http://www.w3.org/TR/2001/REC-SVG-20010904/DTD/svg10.dtd">
<svg version="1.0" xmlns="http://www.w3.org/2000/svg"
 width="32.000000pt" height="32.000000pt" viewBox="0 0 32.000000 32.000000"
 preserveAspectRatio="xMidYMid meet">
<metadata>
Created by potrace 1.16, written by Peter Selinger 2001-2019
</metadata>
<g transform="translate(0.000000,32.000000) scale(0.100000,-0.100000)"
fill="#000000" stroke="none">
<path fill="#000000" stroke="none" d="M40 272 c-13 -9 -21 -11 -16 -4 4 7 1
12 -8 12 -14 0 -16 -20 -16 -140 l0 -140 160 0 160 0 0 140 c0 120 -2 140 -16
140 -10 0 -12 -5 -7 -12 4 -7 -5 -5 -20 5 -32 21 -41 22 -33 2 5 -13 2 -14
-16 -4 -16 9 -23 9 -26 1 -3 -9 -9 -9 -23 -2 -13 7 -25 7 -38 0 -14 -7 -20 -7
-23 2 -3 8 -10 8 -26 -1 -18 -10 -21 -9 -16 4 8 19 -5 18 -36 -3z"/>
</g>
</svg>
