<?xml version="1.0" standalone="no"?>
<!DOCTYPE svg PUBLIC "-//W3C//DTD SVG 20010904//EN"
 "http://www.w3.org/TR/2001/REC-SVG-20010904/DTD/svg10.dtd">
<svg version="1.0" xmlns="http://www.w3.org/2000/svg"
 width="32.000000pt" height="32.000000pt" viewBox="0 0 32.000000 32.000000"
 preserveAspectRatio="xMidYMid meet">
<metadata>
Created by potrace 1.16, written by Peter Selinger 2001-2019
</metadata>
<g transform="translate(0.000000,32.000000) scale(0.100000,-0.100000)"
fill="#000000" stroke="none">
<path fill="#000000" stroke="none" d="M7 313 c-12 -11 -8 -31 7 -36 8 -3 22
4 33 15 10 12 12 18 6 14 -7 -4 -13 -2 -13 3 0 12 -23 15 -33 4z"/>
<path fill="#000000" stroke="none" d="M76 301 c-10 -11 -15 -25 -11 -31 3 -6
1 -9 -5 -8 -7 2 -14 -5 -15 -15 -4 -20 -1 -18 55 28 l25 20 -24 -27 -24 -27
27 -11 c34 -13 39 -13 31 0 -4 6 7 10 25 10 18 0 29 -4 25 -10 -8 -13 -3 -13
31 0 l27 11 -24 27 -24 27 25 -20 c56 -46 59 -48 55 -28 -1 10 -8 17 -15 15
-6 -1 -9 2 -5 7 3 6 -4 20 -16 32 -19 19 -26 21 -65 12 -24 -6 -41 -6 -38 -2
11 18 -44 8 -60 -10z"/>
<path fill="#000000" stroke="none" d="M266 311 c-3 -4 2 -15 12 -24 21 -19
48 -7 39 17 -7 17 -42 22 -51 7z"/>
<path fill="#000000" stroke="none" d="M66 231 c-3 -5 1 -11 9 -15 8 -3 15 -1
15 4 0 13 -18 22 -24 11z"/>
</g>
</svg>
