<?xml version="1.0" standalone="no"?>
<!DOCTYPE svg PUBLIC "-//W3C//DTD SVG 20010904//EN"
 "http://www.w3.org/TR/2001/REC-SVG-20010904/DTD/svg10.dtd">
<svg version="1.0" xmlns="http://www.w3.org/2000/svg"
 width="32.000000pt" height="32.000000pt" viewBox="0 0 32.000000 32.000000"
 preserveAspectRatio="xMidYMid meet">
<metadata>
Created by potrace 1.16, written by Peter Selinger 2001-2019
</metadata>
<g transform="translate(0.000000,32.000000) scale(0.100000,-0.100000)"
fill="#000000" stroke="none">
<path fill="#000000" stroke="none" d="M7 314 c-4 -4 -7 -35 -7 -69 0 -48 5
-68 21 -89 11 -14 24 -24 29 -21 5 3 13 -2 18 -11 7 -13 13 -14 30 -5 29 15
37 14 22 -5 -12 -13 -10 -14 13 -3 21 10 33 10 54 0 23 -11 25 -10 13 3 -15
18 -11 20 23 7 20 -8 27 -6 31 5 3 8 10 13 15 10 5 -4 19 6 31 21 17 22 20 38
18 92 l-3 66 -151 3 c-82 1 -153 -1 -157 -4z"/>
<path fill="#000000" stroke="none" d="M7 137 c-3 -8 1 -14 9 -14 16 0 19 13
5 21 -5 3 -11 0 -14 -7z"/>
<path fill="#000000" stroke="none" d="M290 132 c0 -5 7 -9 15 -9 8 0 12 4 9
9 -7 10 -24 10 -24 0z"/>
</g>
</svg>
