<?xml version="1.0" standalone="no"?>
<!DOCTYPE svg PUBLIC "-//W3C//DTD SVG 20010904//EN"
 "http://www.w3.org/TR/2001/REC-SVG-20010904/DTD/svg10.dtd">
<svg version="1.0" xmlns="http://www.w3.org/2000/svg"
 width="32.000000pt" height="32.000000pt" viewBox="0 0 32.000000 32.000000"
 preserveAspectRatio="xMidYMid meet">
<metadata>
Created by potrace 1.16, written by Peter Selinger 2001-2019
</metadata>
<g transform="translate(0.000000,32.000000) scale(0.100000,-0.100000)"
fill="#000000" stroke="none">
<path fill="#000000" stroke="none" d="M0 215 c0 -111 0 -109 47 -108 7 1 10
-3 7 -8 -3 -5 -2 -9 3 -9 13 1 45 50 33 50 -6 0 -8 5 -5 10 10 16 118 13 109
-2 -6 -10 -4 -10 7 -1 19 19 64 16 80 -4 13 -17 13 -17 -6 -3 -19 15 -19 15
-2 -12 10 -16 13 -28 7 -28 -5 0 -10 -9 -10 -20 0 -11 -5 -20 -11 -20 -6 0 -9
-6 -6 -14 6 -16 -16 -28 -36 -20 -8 3 -20 -2 -27 -11 -11 -13 -4 -15 59 -15
l71 0 0 33 c0 19 -3 27 -8 20 -6 -9 -11 -7 -20 7 -10 16 -10 20 2 20 22 0 26
23 26 136 l0 104 -160 0 -160 0 0 -105z"/>
<path fill="#ffffff" stroke="none" d="M30 150 c0 -5 -2 -10 -4 -10 -3 0 -8 5
-11 10 -3 6 -1 10 4 10 6 0 11 -4 11 -10z"/>
<path fill="#000000" stroke="none" d="M137 116 c-10 -25 -9 -38 3 -31 6 4 8
11 5 16 -3 5 1 6 10 2 13 -4 14 -7 3 -14 -7 -4 -13 -14 -14 -21 -3 -34 -5 -39
-14 -33 -6 3 -7 -1 -4 -9 7 -18 -7 -21 -22 -6 -5 5 -31 16 -57 24 l-47 14 0
-29 0 -29 75 1 c41 1 76 4 76 8 1 3 3 16 4 29 1 13 8 29 15 35 10 9 11 9 6 0
-3 -6 -2 -14 3 -17 5 -3 12 2 15 11 6 15 8 15 16 3 7 -12 10 -9 10 12 0 15 -5
30 -12 34 -7 4 -8 3 -4 -4 4 -7 2 -12 -3 -12 -6 0 -11 8 -12 18 0 10 -3 12 -6
5 -6 -16 -30 -17 -35 -1 -3 7 -7 5 -11 -6z"/>
<path fill="#000000" stroke="none" d="M125 60 c3 -5 8 -10 11 -10 2 0 4 5 4
10 0 6 -5 10 -11 10 -5 0 -7 -4 -4 -10z"/>
</g>
</svg>
