<?xml version="1.0" standalone="no"?>
<!DOCTYPE svg PUBLIC "-//W3C//DTD SVG 20010904//EN"
 "http://www.w3.org/TR/2001/REC-SVG-20010904/DTD/svg10.dtd">
<svg version="1.0" xmlns="http://www.w3.org/2000/svg"
 width="32.000000pt" height="32.000000pt" viewBox="0 0 32.000000 32.000000"
 preserveAspectRatio="xMidYMid meet">
<metadata>
Created by potrace 1.16, written by Peter Selinger 2001-2019
</metadata>
<g transform="translate(0.000000,32.000000) scale(0.100000,-0.100000)"
fill="#000000" stroke="none">
<path fill="#000000" stroke="none" d="M2 238 c3 -80 4 -83 25 -80 28 4 29 -5
6 -31 -17 -19 -17 -20 0 -14 15 6 16 4 7 -13 -12 -22 -7 -26 35 -28 16 -1 33
-6 38 -11 13 -13 -31 -25 -46 -13 -20 15 -57 21 -64 10 -3 -7 -1 -8 5 -4 7 4
12 2 12 -3 0 -6 3 -10 8 -10 24 4 34 -3 29 -21 -4 -16 0 -20 20 -20 13 0 22 4
18 9 -3 5 -1 13 5 16 6 4 9 1 8 -7 -2 -9 10 -13 40 -14 23 -1 42 3 42 9 0 6 3
7 7 4 3 -4 17 0 30 8 13 9 23 13 23 11 0 -3 14 -1 30 4 18 5 30 5 30 -1 0 -5
-8 -9 -17 -9 -15 0 -16 -2 -3 -9 19 -13 30 -4 30 24 0 17 -4 23 -14 19 -8 -3
-17 -1 -20 4 -3 5 4 13 17 16 20 7 20 8 4 15 -16 6 -61 5 -124 -1 -7 -1 -14
-7 -17 -14 -5 -14 -22 -13 -48 1 -13 8 -14 13 -5 25 12 15 71 24 62 9 -8 -12
9 -19 24 -9 22 13 2 30 -35 30 -19 0 -34 5 -34 10 0 13 36 13 61 0 13 -7 19
-7 19 0 0 5 11 10 25 10 14 0 25 -5 25 -11 0 -5 -4 -7 -10 -4 -5 3 -10 1 -10
-5 0 -12 5 -11 52 12 27 12 28 16 28 91 l0 77 -160 0 -161 0 3 -82z"/>
<path fill="#ffffff" stroke="none" d="M120 150 c0 -5 -9 -19 -19 -29 -11 -11
-16 -22 -13 -26 4 -3 -1 -3 -10 0 -19 8 -13 35 8 35 20 0 17 18 -3 23 -11 3
-7 5 10 6 15 0 27 -3 27 -9z"/>
<path fill="#ffffff" stroke="none" d="M221 50 c5 0 9 -4 9 -9 0 -14 -48 -19
-60 -7 -8 8 -9 6 -5 -9 6 -18 5 -18 -5 -2 -14 22 -4 42 15 27 10 -8 15 -4 21
17 7 26 8 27 11 6 3 -13 9 -23 14 -23z"/>
<path fill="#ffffff" stroke="none" d="M267 75 c2 -6 -6 -11 -17 -12 -12 -1
-20 4 -20 13 0 17 31 16 37 -1z"/>
<path fill="#000000" stroke="none" d="M8 3 c7 -3 16 -2 19 1 4 3 -2 6 -13 5
-11 0 -14 -3 -6 -6z"/>
</g>
</svg>
