<?xml version="1.0" standalone="no"?>
<!DOCTYPE svg PUBLIC "-//W3C//DTD SVG 20010904//EN"
 "http://www.w3.org/TR/2001/REC-SVG-20010904/DTD/svg10.dtd">
<svg version="1.0" xmlns="http://www.w3.org/2000/svg"
 width="32.000000pt" height="32.000000pt" viewBox="0 0 32.000000 32.000000"
 preserveAspectRatio="xMidYMid meet">
<metadata>
Created by potrace 1.16, written by Peter Selinger 2001-2019
</metadata>
<g transform="translate(0.000000,32.000000) scale(0.100000,-0.100000)"
fill="#000000" stroke="none">
<path fill="#000000" stroke="none" d="M119 235 c-14 -8 -32 -28 -39 -45 -17
-42 5 -91 49 -110 67 -28 139 43 111 110 -12 30 -55 60 -82 60 -7 -1 -25 -7
-39 -15z"/>
<path fill="#ffffff" stroke="none" d="M145 191 c10 -18 -17 -23 -33 -7 -15
15 -15 16 5 16 12 0 24 -4 28 -9z"/>
<path fill="#ffffff" stroke="none" d="M208 184 c-9 -9 -21 -13 -27 -9 -16 10
-3 25 22 25 20 0 20 -1 5 -16z"/>
<path fill="#ffffff" stroke="none" d="M197 123 c-10 -9 -68 -10 -74 -1 -2 5
15 8 38 8 23 0 39 -3 36 -7z"/>
</g>
</svg>
