<?xml version="1.0" standalone="no"?>
<!DOCTYPE svg PUBLIC "-//W3C//DTD SVG 20010904//EN"
 "http://www.w3.org/TR/2001/REC-SVG-20010904/DTD/svg10.dtd">
<svg version="1.0" xmlns="http://www.w3.org/2000/svg"
 width="32.000000pt" height="32.000000pt" viewBox="0 0 32.000000 32.000000"
 preserveAspectRatio="xMidYMid meet">
<metadata>
Created by potrace 1.16, written by Peter Selinger 2001-2019
</metadata>
<g transform="translate(0.000000,32.000000) scale(0.100000,-0.100000)"
fill="#000000" stroke="none">
<path fill="#000000" stroke="none" d="M110 210 c-26 -26 -26 -74 0 -100 43
-43 120 -11 120 50 0 17 -9 39 -20 50 -11 11 -33 20 -50 20 -17 0 -39 -9 -50
-20z"/>
<path fill="#ffffff" stroke="none" d="M150 180 c0 -5 -4 -10 -10 -10 -5 0
-10 5 -10 10 0 6 5 10 10 10 6 0 10 -4 10 -10z"/>
<path fill="#ffffff" stroke="none" d="M190 180 c0 -5 -4 -10 -10 -10 -5 0
-10 5 -10 10 0 6 5 10 10 10 6 0 10 -4 10 -10z"/>
<path fill="#ffffff" stroke="none" d="M160 130 c14 0 32 6 40 13 12 10 12 9
1 -5 -7 -10 -26 -18 -41 -18 -15 0 -34 8 -41 18 -11 14 -11 15 1 5 8 -7 26
-13 40 -13z"/>
</g>
</svg>
