<?xml version="1.0" standalone="no"?>
<!DOCTYPE svg PUBLIC "-//W3C//DTD SVG 20010904//EN"
 "http://www.w3.org/TR/2001/REC-SVG-20010904/DTD/svg10.dtd">
<svg version="1.0" xmlns="http://www.w3.org/2000/svg"
 width="32.000000pt" height="32.000000pt" viewBox="0 0 32.000000 32.000000"
 preserveAspectRatio="xMidYMid meet">
<metadata>
Created by potrace 1.16, written by Peter Selinger 2001-2019
</metadata>
<g transform="translate(0.000000,32.000000) scale(0.100000,-0.100000)"
fill="#000000" stroke="none">
<path fill="#000000" stroke="none" d="M0 181 c0 -102 3 -141 13 -145 10 -5
10 -7 0 -12 -38 -17 2 -24 147 -24 l160 0 0 160 0 160 -160 0 -160 0 0 -139z"/>
<path fill="#ffffff" stroke="none" d="M160 126 c0 -18 -17 -29 -30 -21 -8 5
-7 11 1 21 15 18 29 18 29 0z"/>
<path fill="#ffffff" stroke="none" d="M120 90 c0 -5 -4 -10 -10 -10 -5 0 -10
5 -10 10 0 6 5 10 10 10 6 0 10 -4 10 -10z"/>
<path fill="#ffffff" stroke="none" d="M60 71 c0 -5 -6 -14 -14 -20 -16 -13
-32 2 -21 19 8 12 35 13 35 1z"/>
</g>
</svg>
