<?xml version="1.0" standalone="no"?>
<!DOCTYPE svg PUBLIC "-//W3C//DTD SVG 20010904//EN"
 "http://www.w3.org/TR/2001/REC-SVG-20010904/DTD/svg10.dtd">
<svg version="1.0" xmlns="http://www.w3.org/2000/svg"
 width="32.000000pt" height="32.000000pt" viewBox="0 0 32.000000 32.000000"
 preserveAspectRatio="xMidYMid meet">
<metadata>
Created by potrace 1.16, written by Peter Selinger 2001-2019
</metadata>
<g transform="translate(0.000000,32.000000) scale(0.100000,-0.100000)"
fill="#000000" stroke="none">
<path fill="#000000" stroke="none" d="M0 160 l0 -160 160 0 160 0 0 160 0
160 -160 0 -160 0 0 -160z"/>
<path fill="#ffffff" stroke="none" d="M197 263 l-37 -38 -37 38 -38 37 75 0
75 0 -38 -37z"/>
<path fill="#ffffff" stroke="none" d="M57 123 l-37 -38 0 75 0 75 37 -38 38
-37 -38 -37z"/>
<path fill="#ffffff" stroke="none" d="M300 158 l0 -73 -37 37 -37 38 34 35
c19 19 35 35 37 35 2 0 3 -33 3 -72z"/>
<path fill="#ffffff" stroke="none" d="M200 55 l34 -35 -74 0 -74 0 34 35 c19
19 37 35 40 35 3 0 21 -16 40 -35z"/>
</g>
</svg>
