<?xml version="1.0" standalone="no"?>
<!DOCTYPE svg PUBLIC "-//W3C//DTD SVG 20010904//EN"
 "http://www.w3.org/TR/2001/REC-SVG-20010904/DTD/svg10.dtd">
<svg version="1.0" xmlns="http://www.w3.org/2000/svg"
 width="32.000000pt" height="32.000000pt" viewBox="0 0 32.000000 32.000000"
 preserveAspectRatio="xMidYMid meet">
<metadata>
Created by potrace 1.16, written by Peter Selinger 2001-2019
</metadata>
<g transform="translate(0.000000,32.000000) scale(0.100000,-0.100000)"
fill="#000000" stroke="none">
<path fill="#000000" stroke="none" d="M0 160 l0 -160 160 0 160 0 0 160 0
160 -160 0 -160 0 0 -160z"/>
<path fill="#ffffff" stroke="none" d="M125 209 c3 6 19 11 35 11 16 0 32 -5
35 -11 5 -7 14 -4 26 7 18 16 19 16 19 -4 0 -11 -4 -24 -10 -27 -5 -3 -10 -26
-10 -51 0 -34 -4 -44 -16 -44 -14 0 -15 7 -10 40 5 32 3 40 -9 40 -9 0 -15 -9
-15 -25 0 -14 -4 -25 -10 -25 -5 0 -10 11 -10 25 0 16 -6 25 -15 25 -12 0 -14
-8 -9 -40 5 -33 4 -40 -10 -40 -12 0 -16 10 -16 44 0 25 -4 48 -10 51 -5 3
-10 16 -10 27 0 20 1 20 19 4 12 -11 21 -14 26 -7z"/>
</g>
</svg>
