<?xml version="1.0" standalone="no"?>
<!DOCTYPE svg PUBLIC "-//W3C//DTD SVG 20010904//EN"
 "http://www.w3.org/TR/2001/REC-SVG-20010904/DTD/svg10.dtd">
<svg version="1.0" xmlns="http://www.w3.org/2000/svg"
 width="32.000000pt" height="32.000000pt" viewBox="0 0 32.000000 32.000000"
 preserveAspectRatio="xMidYMid meet">
<metadata>
Created by potrace 1.16, written by Peter Selinger 2001-2019
</metadata>
<g transform="translate(0.000000,32.000000) scale(0.100000,-0.100000)"
fill="#000000" stroke="none">
<path fill="#000000" stroke="none" d="M0 160 l0 -160 160 0 160 0 0 160 0
160 -160 0 -160 0 0 -160z"/>
<path fill="#ffffff" stroke="none" d="M187 248 c13 -12 23 -26 23 -32 0 -6
-5 -5 -12 2 -7 7 -24 12 -38 12 -14 0 -31 -5 -38 -12 -22 -22 -13 5 10 29 26
28 26 28 55 1z"/>
<path fill="#ffffff" stroke="none" d="M125 209 c3 6 19 11 35 11 16 0 32 -5
35 -11 5 -7 14 -4 26 7 18 16 19 16 19 -4 0 -11 -4 -24 -10 -27 -5 -3 -10 -26
-10 -51 0 -34 -4 -44 -16 -44 -14 0 -15 7 -10 40 5 32 3 40 -9 40 -9 0 -15 -9
-15 -25 0 -14 -4 -25 -10 -25 -5 0 -10 11 -10 25 0 16 -6 25 -15 25 -12 0 -14
-8 -9 -40 5 -33 4 -40 -10 -40 -12 0 -16 10 -16 44 0 25 -4 48 -10 51 -5 3
-10 16 -10 27 0 20 1 20 19 4 12 -11 21 -14 26 -7z"/>
<path fill="#ffffff" stroke="none" d="M90 147 l0 -31 -22 21 c-18 18 -19 24
-9 37 18 22 31 11 31 -27z"/>
<path fill="#ffffff" stroke="none" d="M252 138 l-22 -22 0 30 c0 39 10 49 29
29 14 -14 13 -17 -7 -37z"/>
<path fill="#ffffff" stroke="none" d="M184 84 c8 -21 -21 -39 -38 -24 -8 6
-13 17 -10 24 6 15 42 15 48 0z"/>
</g>
</svg>
