<?xml version="1.0" standalone="no"?>
<!DOCTYPE svg PUBLIC "-//W3C//DTD SVG 20010904//EN"
 "http://www.w3.org/TR/2001/REC-SVG-20010904/DTD/svg10.dtd">
<svg version="1.0" xmlns="http://www.w3.org/2000/svg"
 width="32.000000pt" height="32.000000pt" viewBox="0 0 32.000000 32.000000"
 preserveAspectRatio="xMidYMid meet">
<metadata>
Created by potrace 1.16, written by Peter Selinger 2001-2019
</metadata>
<g transform="translate(0.000000,32.000000) scale(0.100000,-0.100000)"
fill="#000000" stroke="none">
<path fill="#000000" stroke="none" d="M146 278 c5 -8 2 -9 -10 -5 -10 4 -15
3 -11 -3 8 -13 62 -13 69 -1 4 5 -4 7 -16 3 -14 -3 -19 -2 -14 6 4 7 1 12 -9
12 -10 0 -13 -5 -9 -12z"/>
<path fill="#000000" stroke="none" d="M131 230 c-1 -14 -13 -43 -26 -65 -25
-41 -33 -89 -16 -100 6 -3 15 4 21 15 6 12 21 20 38 21 19 0 22 2 11 7 -9 4
-15 16 -13 27 12 88 14 108 5 90 -8 -19 -9 -19 -13 5 l-5 25 -2 -25z"/>
<path fill="#ffffff" stroke="none" d="M97 78 c-3 -7 -5 -2 -5 12 0 14 2 19 5
13 2 -7 2 -19 0 -25z"/>
<path fill="#000000" stroke="none" d="M180 214 c0 -11 7 -30 16 -42 8 -12 22
-35 30 -50 7 -15 14 -21 14 -14 0 7 -13 38 -30 69 -17 31 -30 47 -30 37z"/>
<path fill="#000000" stroke="none" d="M200 75 c-8 -9 -8 -15 -2 -15 12 0 26
19 19 26 -2 2 -10 -2 -17 -11z"/>
</g>
</svg>
