<?xml version="1.0" standalone="no"?>
<!DOCTYPE svg PUBLIC "-//W3C//DTD SVG 20010904//EN"
 "http://www.w3.org/TR/2001/REC-SVG-20010904/DTD/svg10.dtd">
<svg version="1.0" xmlns="http://www.w3.org/2000/svg"
 width="32.000000pt" height="32.000000pt" viewBox="0 0 32.000000 32.000000"
 preserveAspectRatio="xMidYMid meet">
<metadata>
Created by potrace 1.16, written by Peter Selinger 2001-2019
</metadata>
<g transform="translate(0.000000,32.000000) scale(0.100000,-0.100000)"
fill="#000000" stroke="none">
<path fill="#000000" stroke="none" d="M0 160 l0 -160 160 0 160 0 0 160 0
160 -160 0 -160 0 0 -160z"/>
<path fill="#ffffff" stroke="none" d="M175 280 c-3 -5 0 -7 9 -4 12 5 14 -1
9 -29 -4 -26 1 -45 21 -79 47 -80 27 -128 -52 -128 -83 0 -103 47 -56 128 19
33 25 53 21 78 -6 34 1 42 36 43 10 1 15 -3 12 -9z"/>
<path fill="#000000" stroke="none" d="M141 230 c0 -23 1 -23 9 -5 7 16 9 14
9 -15 0 -19 -3 -41 -8 -49 -14 -21 -1 -51 23 -52 11 -1 3 -5 -19 -8 -30 -4
-40 -10 -39 -23 1 -10 -2 -15 -7 -12 -5 3 -10 15 -10 27 -1 18 -2 18 -6 4 -8
-31 16 -47 71 -47 28 0 46 4 40 8 -7 5 -7 14 2 31 11 21 13 22 17 5 4 -18 5
-17 6 1 0 11 -10 38 -24 60 -13 22 -25 54 -25 70 0 24 -4 31 -20 31 -15 0 -20
-7 -19 -26z"/>
</g>
</svg>
