<?xml version="1.0" standalone="no"?>
<!DOCTYPE svg PUBLIC "-//W3C//DTD SVG 20010904//EN"
 "http://www.w3.org/TR/2001/REC-SVG-20010904/DTD/svg10.dtd">
<svg version="1.0" xmlns="http://www.w3.org/2000/svg"
 width="32.000000pt" height="32.000000pt" viewBox="0 0 32.000000 32.000000"
 preserveAspectRatio="xMidYMid meet">
<metadata>
Created by potrace 1.16, written by Peter Selinger 2001-2019
</metadata>
<g transform="translate(0.000000,32.000000) scale(0.100000,-0.100000)"
fill="#000000" stroke="none">
<path fill="#000000" stroke="none" d="M143 263 c9 -2 23 -2 30 0 6 3 -1 5
-18 5 -16 0 -22 -2 -12 -5z"/>
<path fill="#000000" stroke="none" d="M131 225 c-1 -11 -13 -38 -26 -60 -14
-22 -24 -53 -24 -70 l1 -30 8 30 8 30 2 -30 c1 -18 4 -23 7 -12 2 9 8 16 11
13 4 -2 16 5 26 15 15 14 16 19 5 19 -12 0 -11 2 1 10 10 6 11 10 3 10 -9 0
-10 7 -3 26 15 40 11 63 -5 27 -8 -18 -17 -33 -20 -33 -3 0 -1 9 5 21 6 11 9
28 7 37 -4 14 -5 13 -6 -3z"/>
<path fill="#000000" stroke="none" d="M206 83 c-6 -14 -5 -15 5 -6 7 7 10 15
7 18 -3 3 -9 -2 -12 -12z"/>
</g>
</svg>
