<?xml version="1.0" standalone="no"?>
<!DOCTYPE svg PUBLIC "-//W3C//DTD SVG 20010904//EN"
 "http://www.w3.org/TR/2001/REC-SVG-20010904/DTD/svg10.dtd">
<svg version="1.0" xmlns="http://www.w3.org/2000/svg"
 width="32.000000pt" height="32.000000pt" viewBox="0 0 32.000000 32.000000"
 preserveAspectRatio="xMidYMid meet">
<metadata>
Created by potrace 1.16, written by Peter Selinger 2001-2019
</metadata>
<g transform="translate(0.000000,32.000000) scale(0.100000,-0.100000)"
fill="#000000" stroke="none">
<path fill="#000000" stroke="none" d="M146 278 c5 -8 2 -9 -10 -5 -10 4 -15
3 -11 -3 8 -13 62 -13 69 -1 4 5 -4 7 -16 3 -14 -3 -19 -2 -14 6 4 7 1 12 -9
12 -10 0 -13 -5 -9 -12z"/>
<path fill="#000000" stroke="none" d="M131 232 c-1 -13 -13 -43 -27 -67 -29
-50 -29 -97 -2 -101 10 -1 21 3 25 8 4 7 1 8 -8 4 -8 -4 -5 0 5 8 14 11 22 13
27 5 5 -8 8 -8 13 0 4 6 3 11 -3 11 -5 0 -9 9 -8 19 1 13 5 17 12 11 7 -6 16
-1 24 12 12 19 14 19 22 5 10 -17 -5 -67 -24 -80 -7 -5 -2 -7 13 -5 21 3 25 8
22 33 -2 23 0 26 8 15 22 -34 9 13 -20 67 -16 31 -30 48 -30 39 0 -10 5 -26
10 -37 8 -15 7 -21 -4 -25 -18 -7 -42 6 -29 15 4 3 6 22 2 41 -4 20 -7 27 -9
15 -2 -17 -3 -17 -10 5 -8 25 -8 25 -9 2z"/>
<path fill="#ffffff" stroke="none" d="M97 78 c-3 -7 -5 -2 -5 12 0 14 2 19 5
13 2 -7 2 -19 0 -25z"/>
</g>
</svg>
