<?xml version="1.0" standalone="no"?>
<!DOCTYPE svg PUBLIC "-//W3C//DTD SVG 20010904//EN"
 "http://www.w3.org/TR/2001/REC-SVG-20010904/DTD/svg10.dtd">
<svg version="1.0" xmlns="http://www.w3.org/2000/svg"
 width="32.000000pt" height="32.000000pt" viewBox="0 0 32.000000 32.000000"
 preserveAspectRatio="xMidYMid meet">
<metadata>
Created by potrace 1.16, written by Peter Selinger 2001-2019
</metadata>
<g transform="translate(0.000000,32.000000) scale(0.100000,-0.100000)"
fill="#000000" stroke="none">
<path fill="#000000" stroke="none" d="M127 268 c6 -10 60 -10 66 0 3 4 -12 7
-33 7 -21 0 -36 -3 -33 -7z"/>
<path fill="#000000" stroke="none" d="M131 230 c-1 -14 -13 -43 -26 -65 -26
-41 -33 -89 -15 -100 6 -3 13 2 17 12 4 10 15 24 24 31 10 7 16 19 12 27 -3 9
-1 21 4 28 5 6 10 26 11 42 2 22 0 26 -7 16 -7 -11 -10 -9 -14 10 l-4 24 -2
-25z"/>
<path fill="#ffffff" stroke="none" d="M97 83 c-3 -10 -5 -4 -5 12 0 17 2 24
5 18 2 -7 2 -21 0 -30z"/>
<path fill="#000000" stroke="none" d="M180 222 c0 -5 14 -36 30 -67 17 -31
30 -52 30 -46 0 6 -13 37 -30 68 -16 31 -30 51 -30 45z"/>
<path fill="#000000" stroke="none" d="M200 75 c-8 -9 -8 -15 -2 -15 12 0 26
19 19 26 -2 2 -10 -2 -17 -11z"/>
</g>
</svg>
