<?xml version="1.0" standalone="no"?>
<!DOCTYPE svg PUBLIC "-//W3C//DTD SVG 20010904//EN"
 "http://www.w3.org/TR/2001/REC-SVG-20010904/DTD/svg10.dtd">
<svg version="1.0" xmlns="http://www.w3.org/2000/svg"
 width="32.000000pt" height="32.000000pt" viewBox="0 0 32.000000 32.000000"
 preserveAspectRatio="xMidYMid meet">
<metadata>
Created by potrace 1.16, written by Peter Selinger 2001-2019
</metadata>
<g transform="translate(0.000000,32.000000) scale(0.100000,-0.100000)"
fill="#000000" stroke="none">
<path fill="#000000" stroke="none" d="M0 160 l0 -160 160 0 160 0 0 160 0
160 -160 0 -160 0 0 -160z"/>
<path fill="#ffffff" stroke="none" d="M175 280 c-3 -5 0 -7 9 -4 12 5 14 -1
9 -29 -4 -26 1 -45 21 -79 47 -80 27 -128 -52 -128 -83 0 -103 47 -56 128 19
33 25 53 21 78 -6 34 1 42 36 43 10 1 15 -3 12 -9z"/>
<path fill="#000000" stroke="none" d="M141 230 c0 -23 1 -23 9 -5 7 17 9 15
9 -12 1 -46 21 -41 21 5 0 31 -4 38 -20 38 -15 0 -20 -7 -19 -26z"/>
<path fill="#000000" stroke="none" d="M155 160 c3 -5 1 -10 -6 -10 -9 0 -9
-3 0 -14 10 -12 7 -18 -14 -32 -15 -10 -24 -23 -21 -31 3 -8 1 -11 -4 -8 -6 3
-11 16 -11 28 -1 18 -2 18 -6 4 -8 -32 16 -47 71 -46 38 0 46 3 31 9 -11 5
-15 9 -8 9 6 1 15 11 18 22 6 17 9 19 16 8 16 -25 10 9 -6 41 -11 21 -23 30
-41 30 -14 0 -22 -4 -19 -10z"/>
</g>
</svg>
