<?xml version="1.0" standalone="no"?>
<!DOCTYPE svg PUBLIC "-//W3C//DTD SVG 20010904//EN"
 "http://www.w3.org/TR/2001/REC-SVG-20010904/DTD/svg10.dtd">
<svg version="1.0" xmlns="http://www.w3.org/2000/svg"
 width="32.000000pt" height="32.000000pt" viewBox="0 0 32.000000 32.000000"
 preserveAspectRatio="xMidYMid meet">
<metadata>
Created by potrace 1.16, written by Peter Selinger 2001-2019
</metadata>
<g transform="translate(0.000000,32.000000) scale(0.100000,-0.100000)"
fill="#000000" stroke="none">
<path fill="#000000" stroke="none" d="M126 173 c-10 -10 -16 -12 -12 -5 4 6
5 12 2 12 -10 0 -36 -58 -35 -77 1 -13 3 -11 9 7 8 25 8 25 9 2 1 -21 3 -22
16 -8 8 8 15 19 15 25 0 6 8 11 18 11 14 0 14 2 3 9 -8 5 -11 16 -8 25 8 20 6
20 -17 -1z"/>
</g>
</svg>
