<?xml version="1.0" standalone="no"?>
<!DOCTYPE svg PUBLIC "-//W3C//DTD SVG 20010904//EN"
 "http://www.w3.org/TR/2001/REC-SVG-20010904/DTD/svg10.dtd">
<svg version="1.0" xmlns="http://www.w3.org/2000/svg"
 width="32.000000pt" height="32.000000pt" viewBox="0 0 32.000000 32.000000"
 preserveAspectRatio="xMidYMid meet">
<metadata>
Created by potrace 1.16, written by Peter Selinger 2001-2019
</metadata>
<g transform="translate(0.000000,32.000000) scale(0.100000,-0.100000)"
fill="#000000" stroke="none">
<path fill="#000000" stroke="none" d="M146 278 c5 -8 2 -9 -10 -5 -10 4 -15
3 -11 -3 8 -13 62 -13 69 -1 4 5 -4 7 -16 3 -14 -3 -19 -2 -14 6 4 7 1 12 -9
12 -10 0 -13 -5 -9 -12z"/>
<path fill="#000000" stroke="none" d="M131 230 c-1 -14 -13 -43 -26 -65 -25
-40 -33 -89 -16 -100 5 -3 12 -1 16 5 4 6 11 7 17 4 6 -4 8 -2 5 3 -4 6 0 13
8 17 8 3 15 1 15 -5 0 -6 5 -7 11 -3 7 4 7 9 2 13 -6 3 -10 14 -10 24 0 11 4
14 10 8 6 -6 16 -2 27 11 16 20 16 20 33 -13 9 -19 17 -28 17 -21 0 7 -13 38
-30 69 -16 31 -30 48 -30 39 0 -10 5 -26 10 -37 8 -15 7 -21 -4 -25 -18 -7
-42 6 -29 15 4 3 6 22 2 41 -4 20 -7 27 -9 15 -2 -17 -3 -17 -10 5 l-8 25 -1
-25z"/>
<path fill="#ffffff" stroke="none" d="M97 78 c-3 -7 -5 -2 -5 12 0 14 2 19 5
13 2 -7 2 -19 0 -25z"/>
<path fill="#000000" stroke="none" d="M203 85 c-9 -20 -8 -25 2 -25 18 0 24
11 16 32 -5 15 -8 13 -18 -7z"/>
</g>
</svg>
