<?xml version="1.0" standalone="no"?>
<!DOCTYPE svg PUBLIC "-//W3C//DTD SVG 20010904//EN"
 "http://www.w3.org/TR/2001/REC-SVG-20010904/DTD/svg10.dtd">
<svg version="1.0" xmlns="http://www.w3.org/2000/svg"
 width="32.000000pt" height="32.000000pt" viewBox="0 0 32.000000 32.000000"
 preserveAspectRatio="xMidYMid meet">
<metadata>
Created by potrace 1.16, written by Peter Selinger 2001-2019
</metadata>
<g transform="translate(0.000000,32.000000) scale(0.100000,-0.100000)"
fill="#000000" stroke="none">
<path fill="#000000" stroke="none" d="M0 160 l0 -160 160 0 160 0 0 160 0
160 -160 0 -160 0 0 -160z"/>
<path fill="#ffffff" stroke="none" d="M143 174 c-3 -9 0 -20 8 -25 11 -7 11
-9 -3 -9 -10 0 -18 -5 -18 -11 0 -6 -7 -17 -15 -25 -13 -14 -15 -13 -16 8 -1
23 -1 23 -9 -2 -6 -18 -8 -20 -9 -7 -1 19 25 77 35 77 3 0 2 -6 -2 -12 -4 -7
2 -5 12 5 23 21 25 21 17 1z"/>
</g>
</svg>
