<?xml version="1.0" standalone="no"?>
<!DOCTYPE svg PUBLIC "-//W3C//DTD SVG 20010904//EN"
 "http://www.w3.org/TR/2001/REC-SVG-20010904/DTD/svg10.dtd">
<svg version="1.0" xmlns="http://www.w3.org/2000/svg"
 width="32.000000pt" height="32.000000pt" viewBox="0 0 32.000000 32.000000"
 preserveAspectRatio="xMidYMid meet">
<metadata>
Created by potrace 1.16, written by Peter Selinger 2001-2019
</metadata>
<g transform="translate(0.000000,32.000000) scale(0.100000,-0.100000)"
fill="#000000" stroke="none">
<path fill="#000000" stroke="none" d="M127 268 c6 -10 60 -10 66 0 3 4 -12 7
-33 7 -21 0 -36 -3 -33 -7z"/>
<path fill="#000000" stroke="none" d="M131 230 c-1 -14 -13 -43 -26 -65 -25
-40 -33 -89 -17 -99 9 -5 56 51 58 69 1 6 2 15 3 22 0 6 9 14 19 16 14 4 14 5
1 6 -12 1 -15 8 -12 29 3 20 2 23 -5 13 -8 -11 -11 -9 -15 10 l-4 24 -2 -25z"/>
<path fill="#ffffff" stroke="none" d="M97 83 c-3 -10 -5 -4 -5 12 0 17 2 24
5 18 2 -7 2 -21 0 -30z"/>
<path fill="#000000" stroke="none" d="M180 212 c0 -11 5 -24 11 -28 6 -3 20
-25 30 -48 10 -22 19 -35 19 -28 0 7 -13 38 -30 69 -19 35 -30 48 -30 35z"/>
<path fill="#000000" stroke="none" d="M200 75 c-8 -9 -8 -15 -2 -15 12 0 26
19 19 26 -2 2 -10 -2 -17 -11z"/>
</g>
</svg>
