<?xml version="1.0" standalone="no"?>
<!DOCTYPE svg PUBLIC "-//W3C//DTD SVG 20010904//EN"
 "http://www.w3.org/TR/2001/REC-SVG-20010904/DTD/svg10.dtd">
<svg version="1.0" xmlns="http://www.w3.org/2000/svg"
 width="32.000000pt" height="32.000000pt" viewBox="0 0 32.000000 32.000000"
 preserveAspectRatio="xMidYMid meet">
<metadata>
Created by potrace 1.16, written by Peter Selinger 2001-2019
</metadata>
<g transform="translate(0.000000,32.000000) scale(0.100000,-0.100000)"
fill="#000000" stroke="none">
<path fill="#000000" stroke="none" d="M0 160 l0 -160 160 0 160 0 0 160 0
160 -160 0 -160 0 0 -160z"/>
<path fill="#ffffff" stroke="none" d="M193 268 c-6 -10 -60 -10 -66 0 -3 4
12 7 33 7 21 0 36 -3 33 -7z"/>
<path fill="#ffffff" stroke="none" d="M151 221 c6 10 9 7 9 -13 0 -17 5 -28
14 -28 9 0 12 9 8 28 -3 18 5 9 27 -30 17 -32 31 -63 30 -70 0 -7 -5 -4 -10 7
-7 16 -8 13 -4 -13 5 -36 -16 -55 -38 -33 -7 7 -7 12 -2 11 22 -5 25 1 14 21
-6 12 -7 19 -1 15 10 -6 24 18 15 27 -9 10 -50 -38 -45 -52 4 -10 1 -13 -11
-8 -9 3 -19 2 -22 -4 -4 -5 -10 -7 -15 -4 -5 3 -11 1 -15 -5 -4 -6 -11 -8 -16
-5 -17 11 -9 60 16 100 13 22 25 51 26 65 l2 25 4 -24 c4 -19 7 -21 14 -10z"/>
<path fill="#000000" stroke="none" d="M92 90 c0 -14 2 -19 5 -12 2 6 2 18 0
25 -3 6 -5 1 -5 -13z"/>
</g>
</svg>
