<?xml version="1.0" standalone="no"?>
<!DOCTYPE svg PUBLIC "-//W3C//DTD SVG 20010904//EN"
 "http://www.w3.org/TR/2001/REC-SVG-20010904/DTD/svg10.dtd">
<svg version="1.0" xmlns="http://www.w3.org/2000/svg"
 width="32.000000pt" height="32.000000pt" viewBox="0 0 32.000000 32.000000"
 preserveAspectRatio="xMidYMid meet">
<metadata>
Created by potrace 1.16, written by Peter Selinger 2001-2019
</metadata>
<g transform="translate(0.000000,32.000000) scale(0.100000,-0.100000)"
fill="#000000" stroke="none">
<path fill="#000000" stroke="none" d="M143 263 c9 -2 23 -2 30 0 6 3 -1 5
-18 5 -16 0 -22 -2 -12 -5z"/>
<path fill="#000000" stroke="none" d="M131 225 c-1 -11 -13 -38 -26 -60 -14
-22 -24 -53 -24 -70 l1 -30 8 30 c7 28 8 28 9 5 1 -20 3 -22 11 -10 5 8 10 11
10 7 0 -5 7 -1 16 7 8 9 12 20 9 26 -3 5 0 10 7 10 10 0 10 2 -1 9 -10 6 -11
13 -2 29 6 11 11 29 11 39 -1 11 -6 6 -15 -14 -8 -18 -17 -33 -20 -33 -3 0 -1
9 5 21 6 11 9 28 7 37 -4 14 -5 13 -6 -3z"/>
</g>
</svg>
