<?xml version="1.0" standalone="no"?>
<!DOCTYPE svg PUBLIC "-//W3C//DTD SVG 20010904//EN"
 "http://www.w3.org/TR/2001/REC-SVG-20010904/DTD/svg10.dtd">
<svg version="1.0" xmlns="http://www.w3.org/2000/svg"
 width="32.000000pt" height="32.000000pt" viewBox="0 0 32.000000 32.000000"
 preserveAspectRatio="xMidYMid meet">
<metadata>
Created by potrace 1.16, written by Peter Selinger 2001-2019
</metadata>
<g transform="translate(0.000000,32.000000) scale(0.100000,-0.100000)"
fill="#000000" stroke="none">
<path fill="#000000" stroke="none" d="M0 160 l0 -160 160 0 160 0 0 160 0
160 -160 0 -160 0 0 -160z"/>
<path fill="#ffffff" stroke="none" d="M193 268 c-6 -10 -60 -10 -66 0 -3 4
12 7 33 7 21 0 36 -3 33 -7z"/>
<path fill="#ffffff" stroke="none" d="M152 221 c7 10 8 1 4 -28 -5 -37 -4
-43 11 -44 16 0 15 -2 -2 -9 -11 -5 -16 -9 -10 -9 5 -1 -6 -16 -25 -35 -19
-19 -38 -32 -42 -29 -16 9 -7 59 17 98 13 22 25 51 26 65 l2 25 4 -24 c4 -19
7 -21 15 -10z"/>
<path fill="#ffffff" stroke="none" d="M240 108 c0 -7 -8 3 -17 22 -10 19 -23
41 -30 48 -7 7 -13 23 -13 34 0 13 11 0 30 -35 17 -31 30 -62 30 -69z"/>
<path fill="#ffffff" stroke="none" d="M220 90 c0 -11 -4 -20 -9 -20 -5 0 -7
9 -4 20 3 11 7 20 9 20 2 0 4 -9 4 -20z"/>
<path fill="#000000" stroke="none" d="M92 90 c0 -14 2 -19 5 -12 2 6 2 18 0
25 -3 6 -5 1 -5 -13z"/>
</g>
</svg>
