<?xml version="1.0" standalone="no"?>
<!DOCTYPE svg PUBLIC "-//W3C//DTD SVG 20010904//EN"
 "http://www.w3.org/TR/2001/REC-SVG-20010904/DTD/svg10.dtd">
<svg version="1.0" xmlns="http://www.w3.org/2000/svg"
 width="32.000000pt" height="32.000000pt" viewBox="0 0 32.000000 32.000000"
 preserveAspectRatio="xMidYMid meet">
<metadata>
Created by potrace 1.16, written by Peter Selinger 2001-2019
</metadata>
<g transform="translate(0.000000,32.000000) scale(0.100000,-0.100000)"
fill="#000000" stroke="none">
<path fill="#000000" stroke="none" d="M210 130 c0 -13 -7 -20 -20 -20 -15 0
-20 -7 -20 -25 0 -18 5 -25 20 -25 13 0 20 -7 20 -20 0 -15 7 -20 26 -20 24 0
25 1 18 48 -4 26 -11 49 -15 50 -5 2 -9 10 -9 18 0 8 -4 14 -10 14 -5 0 -10
-9 -10 -20z"/>
<path fill="#000000" stroke="none" d="M240 139 c0 -6 9 -8 20 -4 11 4 20 2
20 -4 0 -6 -4 -11 -10 -11 -5 0 -10 -5 -10 -11 0 -6 6 -9 14 -6 10 4 16 -3 19
-21 2 -15 4 -6 4 21 0 45 -1 47 -28 47 -16 0 -29 -5 -29 -11z"/>
<path fill="#000000" stroke="none" d="M260 80 c0 -5 5 -10 10 -10 6 0 10 5
10 10 0 6 -4 10 -10 10 -5 0 -10 -4 -10 -10z"/>
</g>
</svg>
