<?xml version="1.0" standalone="no"?>
<!DOCTYPE svg PUBLIC "-//W3C//DTD SVG 20010904//EN"
 "http://www.w3.org/TR/2001/REC-SVG-20010904/DTD/svg10.dtd">
<svg version="1.0" xmlns="http://www.w3.org/2000/svg"
 width="32.000000pt" height="32.000000pt" viewBox="0 0 32.000000 32.000000"
 preserveAspectRatio="xMidYMid meet">
<metadata>
Created by potrace 1.16, written by Peter Selinger 2001-2019
</metadata>
<g transform="translate(0.000000,32.000000) scale(0.100000,-0.100000)"
fill="#000000" stroke="none">
<path fill="#000000" stroke="none" d="M0 160 l0 -160 160 0 160 0 0 160 0
160 -160 0 -160 0 0 -160z"/>
<path fill="#ffffff" stroke="none" d="M272 133 c38 -34 11 -103 -40 -103 -56
0 -81 61 -42 100 24 24 57 26 82 3z"/>
<path fill="#000000" stroke="none" d="M197 122 c-34 -38 -15 -82 35 -82 36 0
35 6 -4 50 l-33 35 35 -32 c44 -40 50 -41 50 -5 0 51 -50 71 -83 34z"/>
</g>
</svg>
