<?xml version="1.0" standalone="no"?>
<!DOCTYPE svg PUBLIC "-//W3C//DTD SVG 20010904//EN"
 "http://www.w3.org/TR/2001/REC-SVG-20010904/DTD/svg10.dtd">
<svg version="1.0" xmlns="http://www.w3.org/2000/svg"
 width="32.000000pt" height="32.000000pt" viewBox="0 0 32.000000 32.000000"
 preserveAspectRatio="xMidYMid meet">
<metadata>
Created by potrace 1.16, written by Peter Selinger 2001-2019
</metadata>
<g transform="translate(0.000000,32.000000) scale(0.100000,-0.100000)"
fill="#000000" stroke="none">
<path fill="#000000" stroke="none" d="M0 160 l0 -160 160 0 160 0 0 160 0
160 -160 0 -160 0 0 -160z"/>
<path fill="#ffffff" stroke="none" d="M262 135 c3 0 9 -3 12 -6 3 -3 -14 -5
-39 -5 -24 0 -42 3 -39 8 3 5 9 6 14 3 5 -3 11 -1 15 5 4 6 12 7 18 3 7 -4 15
-8 19 -8z"/>
<path fill="#ffffff" stroke="none" d="M248 98 c14 -14 16 -78 2 -78 -5 0 -11
19 -12 43 l-1 42 -4 -42 c-4 -39 -7 -43 -31 -43 -25 0 -27 3 -27 45 0 43 1 45
30 45 17 0 36 -5 43 -12z"/>
<path fill="#ffffff" stroke="none" d="M292 65 c-2 -25 -8 -45 -12 -45 -4 0
-10 20 -12 45 -2 35 0 45 12 45 12 0 14 -10 12 -45z"/>
<path fill="#000000" stroke="none" d="M203 65 c0 -22 2 -30 4 -17 2 12 2 30
0 40 -3 9 -5 -1 -4 -23z"/>
</g>
</svg>
