<?xml version="1.0" standalone="no"?>
<!DOCTYPE svg PUBLIC "-//W3C//DTD SVG 20010904//EN"
 "http://www.w3.org/TR/2001/REC-SVG-20010904/DTD/svg10.dtd">
<svg version="1.0" xmlns="http://www.w3.org/2000/svg"
 width="32.000000pt" height="32.000000pt" viewBox="0 0 32.000000 32.000000"
 preserveAspectRatio="xMidYMid meet">
<metadata>
Created by potrace 1.16, written by Peter Selinger 2001-2019
</metadata>
<g transform="translate(0.000000,32.000000) scale(0.100000,-0.100000)"
fill="#000000" stroke="none">
<path fill="#000000" stroke="none" d="M277 143 c-4 -3 -7 -11 -7 -17 0 -6 5
-5 12 2 6 6 9 14 7 17 -3 3 -9 2 -12 -2z"/>
<path fill="#000000" stroke="none" d="M171 136 c8 -8 78 -10 85 -3 4 4 -14 7
-41 7 -27 0 -46 -2 -44 -4z"/>
<path fill="#000000" stroke="none" d="M226 112 c-3 -6 1 -15 8 -21 8 -7 17
-8 20 -3 3 6 -1 15 -8 21 -8 7 -17 8 -20 3z"/>
<path fill="#000000" stroke="none" d="M265 40 c-8 -13 -1 -24 14 -19 6 3 7
10 2 18 -6 10 -10 10 -16 1z"/>
</g>
</svg>
