<?xml version="1.0" standalone="no"?>
<!DOCTYPE svg PUBLIC "-//W3C//DTD SVG 20010904//EN"
 "http://www.w3.org/TR/2001/REC-SVG-20010904/DTD/svg10.dtd">
<svg version="1.0" xmlns="http://www.w3.org/2000/svg"
 width="32.000000pt" height="32.000000pt" viewBox="0 0 32.000000 32.000000"
 preserveAspectRatio="xMidYMid meet">
<metadata>
Created by potrace 1.16, written by Peter Selinger 2001-2019
</metadata>
<g transform="translate(0.000000,32.000000) scale(0.100000,-0.100000)"
fill="#000000" stroke="none">
<path fill="#000000" stroke="none" d="M215 140 l-50 -7 40 -3 40 -3 -35 -7
c-29 -6 -31 -8 -10 -9 23 -2 24 -3 5 -11 -19 -8 -19 -9 3 -9 12 -1 22 -5 22
-11 0 -5 -7 -7 -15 -4 -10 4 -15 0 -15 -12 0 -9 3 -14 7 -11 3 4 12 2 20 -4 9
-9 13 -8 13 0 0 6 5 11 10 11 6 0 10 -9 10 -20 0 -11 6 -20 14 -20 15 0 11 35
-7 58 -7 9 -4 12 12 12 11 0 21 5 21 11 0 6 -7 9 -15 5 -17 -6 -21 9 -5 19 14
9 12 25 -2 23 -7 0 -35 -4 -63 -8z"/>
</g>
</svg>
