<?xml version="1.0" standalone="no"?>
<!DOCTYPE svg PUBLIC "-//W3C//DTD SVG 20010904//EN"
 "http://www.w3.org/TR/2001/REC-SVG-20010904/DTD/svg10.dtd">
<svg version="1.0" xmlns="http://www.w3.org/2000/svg"
 width="32.000000pt" height="32.000000pt" viewBox="0 0 32.000000 32.000000"
 preserveAspectRatio="xMidYMid meet">
<metadata>
Created by potrace 1.16, written by Peter Selinger 2001-2019
</metadata>
<g transform="translate(0.000000,32.000000) scale(0.100000,-0.100000)"
fill="#000000" stroke="none">
<path fill="#000000" stroke="none" d="M0 160 l0 -160 160 0 160 0 0 160 0
160 -160 0 -160 0 0 -160z"/>
<path fill="#ffffff" stroke="none" d="M285 130 c8 -7 12 -17 8 -24 -4 -6 -8
-15 -8 -21 0 -13 -28 -13 -38 0 -5 5 -5 -1 -1 -15 4 -14 13 -29 21 -35 10 -7
2 -10 -28 -12 -26 -1 -37 2 -29 7 7 5 15 19 17 32 2 14 0 18 -5 11 -6 -10 -12
-10 -27 1 -21 15 -28 45 -14 62 12 14 84 11 104 -6z"/>
</g>
</svg>
