<?xml version="1.0" standalone="no"?>
<!DOCTYPE svg PUBLIC "-//W3C//DTD SVG 20010904//EN"
 "http://www.w3.org/TR/2001/REC-SVG-20010904/DTD/svg10.dtd">
<svg version="1.0" xmlns="http://www.w3.org/2000/svg"
 width="32.000000pt" height="32.000000pt" viewBox="0 0 32.000000 32.000000"
 preserveAspectRatio="xMidYMid meet">
<metadata>
Created by potrace 1.16, written by Peter Selinger 2001-2019
</metadata>
<g transform="translate(0.000000,32.000000) scale(0.100000,-0.100000)"
fill="#000000" stroke="none">
<path fill="#000000" stroke="none" d="M181 136 c-14 -17 -7 -47 14 -62 15
-11 21 -11 27 -1 5 7 7 3 5 -11 -2 -13 -10 -27 -17 -32 -8 -5 3 -8 29 -7 30 2
38 5 28 12 -8 6 -17 21 -21 35 -4 14 -4 20 1 15 10 -13 38 -13 38 0 0 6 4 15
8 21 4 7 0 17 -8 24 -20 17 -92 20 -104 6z"/>
</g>
</svg>
