<?xml version="1.0" standalone="no"?>
<!DOCTYPE svg PUBLIC "-//W3C//DTD SVG 20010904//EN"
 "http://www.w3.org/TR/2001/REC-SVG-20010904/DTD/svg10.dtd">
<svg version="1.0" xmlns="http://www.w3.org/2000/svg"
 width="32.000000pt" height="32.000000pt" viewBox="0 0 32.000000 32.000000"
 preserveAspectRatio="xMidYMid meet">
<metadata>
Created by potrace 1.16, written by Peter Selinger 2001-2019
</metadata>
<g transform="translate(0.000000,32.000000) scale(0.100000,-0.100000)"
fill="#000000" stroke="none">
<path fill="#000000" stroke="none" d="M133 284 c-7 -3 -10 -18 -6 -38 4 -25
-2 -45 -21 -78 -47 -81 -27 -128 56 -128 79 0 99 48 52 128 -19 33 -25 53 -21
77 7 40 -18 56 -60 39z"/>
<path fill="#ffffff" stroke="none" d="M180 225 c0 -31 -20 -33 -21 -2 0 21
-1 21 -9 2 -8 -19 -9 -19 -9 3 -1 16 5 22 19 22 15 0 20 -7 20 -25z"/>
<path fill="#ffffff" stroke="none" d="M215 140 c8 -16 15 -35 14 -42 0 -10
-2 -10 -6 0 -3 8 -10 5 -23 -10 -17 -21 -17 -24 -2 -30 10 -4 -6 -7 -34 -7
-55 -1 -79 14 -71 46 4 14 5 14 6 -4 0 -12 6 -25 11 -28 6 -4 10 -3 9 2 -4 21
3 31 27 41 14 7 23 16 19 21 -3 5 0 13 6 17 7 4 9 3 5 -4 -3 -6 -2 -13 3 -16
11 -7 9 13 -2 32 -5 7 -3 12 7 12 9 0 22 -13 31 -30z"/>
</g>
</svg>
