<?xml version="1.0" standalone="no"?>
<!DOCTYPE svg PUBLIC "-//W3C//DTD SVG 20010904//EN"
 "http://www.w3.org/TR/2001/REC-SVG-20010904/DTD/svg10.dtd">
<svg version="1.0" xmlns="http://www.w3.org/2000/svg"
 width="32.000000pt" height="32.000000pt" viewBox="0 0 32.000000 32.000000"
 preserveAspectRatio="xMidYMid meet">
<metadata>
Created by potrace 1.16, written by Peter Selinger 2001-2019
</metadata>
<g transform="translate(0.000000,32.000000) scale(0.100000,-0.100000)"
fill="#000000" stroke="none">
<path fill="#000000" stroke="none" d="M127 268 c6 -10 60 -10 66 0 3 4 -12 7
-33 7 -21 0 -36 -3 -33 -7z"/>
<path fill="#000000" stroke="none" d="M131 230 c-1 -14 -13 -43 -26 -65 -26
-41 -33 -89 -15 -100 6 -3 13 2 17 12 4 10 15 24 24 31 11 7 16 19 12 29 -4 9
1 21 12 29 10 8 14 14 8 14 -6 0 -8 12 -6 28 3 20 2 23 -5 13 -8 -11 -11 -9
-15 10 l-4 24 -2 -25z"/>
<path fill="#ffffff" stroke="none" d="M97 83 c-3 -10 -5 -4 -5 12 0 17 2 24
5 18 2 -7 2 -21 0 -30z"/>
<path fill="#000000" stroke="none" d="M180 222 c0 -5 14 -36 30 -67 17 -31
30 -52 30 -46 0 6 -13 37 -30 68 -16 31 -30 51 -30 45z"/>
</g>
</svg>
