<?xml version="1.0" standalone="no"?>
<!DOCTYPE svg PUBLIC "-//W3C//DTD SVG 20010904//EN"
 "http://www.w3.org/TR/2001/REC-SVG-20010904/DTD/svg10.dtd">
<svg version="1.0" xmlns="http://www.w3.org/2000/svg"
 width="32.000000pt" height="32.000000pt" viewBox="0 0 32.000000 32.000000"
 preserveAspectRatio="xMidYMid meet">
<metadata>
Created by potrace 1.16, written by Peter Selinger 2001-2019
</metadata>
<g transform="translate(0.000000,32.000000) scale(0.100000,-0.100000)"
fill="#000000" stroke="none">
<path fill="#000000" stroke="none" d="M0 160 l0 -160 160 0 160 0 0 160 0
160 -160 0 -160 0 0 -160z"/>
<path fill="#ffffff" stroke="none" d="M164 278 c-5 -8 0 -9 14 -6 12 4 20 2
16 -3 -7 -12 -61 -12 -69 1 -4 6 1 7 11 3 12 -4 15 -3 10 5 -4 7 -1 12 9 12
10 0 13 -5 9 -12z"/>
<path fill="#ffffff" stroke="none" d="M151 225 c6 16 8 14 8 -12 1 -39 21
-45 21 -7 0 22 5 17 30 -29 17 -31 30 -62 30 -69 0 -7 -8 3 -19 22 -13 25 -26
36 -46 38 -17 2 -25 0 -20 -7 3 -6 1 -11 -6 -11 -9 0 -10 -3 -2 -11 8 -8 2
-20 -21 -44 -17 -18 -34 -31 -38 -28 -16 9 -7 59 17 98 13 22 25 51 26 65 l2
25 5 -25 c4 -23 5 -24 13 -5z"/>
<path fill="#ffffff" stroke="none" d="M224 68 c-3 -4 -12 -8 -20 -8 -12 0
-12 4 -2 20 8 13 15 16 19 8 4 -7 5 -16 3 -20z"/>
<path fill="#000000" stroke="none" d="M92 90 c0 -14 2 -19 5 -12 2 6 2 18 0
25 -3 6 -5 1 -5 -13z"/>
</g>
</svg>
