<?xml version="1.0" standalone="no"?>
<!DOCTYPE svg PUBLIC "-//W3C//DTD SVG 20010904//EN"
 "http://www.w3.org/TR/2001/REC-SVG-20010904/DTD/svg10.dtd">
<svg version="1.0" xmlns="http://www.w3.org/2000/svg"
 width="32.000000pt" height="32.000000pt" viewBox="0 0 32.000000 32.000000"
 preserveAspectRatio="xMidYMid meet">
<metadata>
Created by potrace 1.16, written by Peter Selinger 2001-2019
</metadata>
<g transform="translate(0.000000,32.000000) scale(0.100000,-0.100000)"
fill="#000000" stroke="none">
<path fill="#000000" stroke="none" d="M133 284 c-7 -3 -10 -18 -6 -38 4 -25
-2 -45 -21 -78 -47 -81 -27 -128 56 -128 79 0 99 48 52 128 -20 34 -25 53 -21
79 5 28 3 34 -9 29 -9 -3 -12 -1 -9 4 6 10 -20 12 -42 4z"/>
<path fill="#ffffff" stroke="none" d="M180 227 c0 -15 5 -37 10 -48 9 -16 7
-19 -12 -19 -21 0 -23 4 -21 43 2 32 1 37 -6 22 -9 -18 -10 -18 -10 5 -1 19 4
26 19 26 15 0 20 -7 20 -29z"/>
</g>
</svg>
