<?xml version="1.0" standalone="no"?>
<!DOCTYPE svg PUBLIC "-//W3C//DTD SVG 20010904//EN"
 "http://www.w3.org/TR/2001/REC-SVG-20010904/DTD/svg10.dtd">
<svg version="1.0" xmlns="http://www.w3.org/2000/svg"
 width="32.000000pt" height="32.000000pt" viewBox="0 0 32.000000 32.000000"
 preserveAspectRatio="xMidYMid meet">
<metadata>
Created by potrace 1.16, written by Peter Selinger 2001-2019
</metadata>
<g transform="translate(0.000000,32.000000) scale(0.100000,-0.100000)"
fill="#000000" stroke="none">
<path fill="#000000" stroke="none" d="M0 160 l0 -160 160 0 160 0 0 160 0
160 -160 0 -160 0 0 -160z"/>
<path fill="#ffffff" stroke="none" d="M183 284 c11 -4 14 -15 10 -39 -4 -24
2 -44 21 -77 47 -80 27 -128 -52 -128 -83 0 -103 47 -56 128 19 33 25 53 21
78 -7 39 16 54 56 38z"/>
<path fill="#000000" stroke="none" d="M141 228 c0 -22 1 -22 9 -3 7 17 9 14
9 -13 1 -18 -3 -42 -9 -52 -8 -16 -5 -18 30 -22 l39 -3 -20 31 c-10 17 -19 43
-19 58 0 19 -5 26 -20 26 -14 0 -20 -6 -19 -22z"/>
<path fill="#000000" stroke="none" d="M221 104 c0 -11 3 -14 6 -6 3 7 2 16
-1 19 -3 4 -6 -2 -5 -13z"/>
<path fill="#000000" stroke="none" d="M91 90 c-1 -28 22 -40 74 -39 27 1 42
3 32 6 -18 5 -18 6 -1 24 16 18 16 19 -4 19 -12 0 -22 -4 -22 -9 0 -5 -14 -14
-30 -20 -28 -9 -32 -8 -40 12 -5 14 -9 16 -9 7z"/>
</g>
</svg>
