<?xml version="1.0" standalone="no"?>
<!DOCTYPE svg PUBLIC "-//W3C//DTD SVG 20010904//EN"
 "http://www.w3.org/TR/2001/REC-SVG-20010904/DTD/svg10.dtd">
<svg version="1.0" xmlns="http://www.w3.org/2000/svg"
 width="32.000000pt" height="32.000000pt" viewBox="0 0 32.000000 32.000000"
 preserveAspectRatio="xMidYMid meet">
<metadata>
Created by potrace 1.16, written by Peter Selinger 2001-2019
</metadata>
<g transform="translate(0.000000,32.000000) scale(0.100000,-0.100000)"
fill="#000000" stroke="none">
<path fill="#000000" stroke="none" d="M0 160 l0 -160 160 0 160 0 0 160 0
160 -160 0 -160 0 0 -160z"/>
<path fill="#ffffff" stroke="none" d="M193 268 c-6 -10 -60 -10 -66 0 -3 4
12 7 33 7 21 0 36 -3 33 -7z"/>
<path fill="#ffffff" stroke="none" d="M152 221 c6 10 8 3 3 -21 -6 -34 -13
-78 -14 -92 -1 -5 -7 -8 -15 -8 -7 0 -16 -9 -19 -21 -3 -12 -10 -18 -16 -14
-19 11 -12 58 14 100 13 22 25 51 26 65 l2 25 4 -24 c4 -19 7 -21 15 -10z"/>
<path fill="#ffffff" stroke="none" d="M240 108 c0 -7 -7 -1 -14 14 -8 15 -22
38 -30 50 -9 12 -16 31 -16 42 0 10 13 -6 30 -37 17 -31 30 -62 30 -69z"/>
<path fill="#ffffff" stroke="none" d="M215 71 c-3 -6 -11 -11 -17 -11 -6 0
-6 6 2 15 14 17 26 13 15 -4z"/>
<path fill="#000000" stroke="none" d="M92 95 c0 -16 2 -22 5 -12 2 9 2 23 0
30 -3 6 -5 -1 -5 -18z"/>
</g>
</svg>
