<?xml version="1.0" standalone="no"?>
<!DOCTYPE svg PUBLIC "-//W3C//DTD SVG 20010904//EN"
 "http://www.w3.org/TR/2001/REC-SVG-20010904/DTD/svg10.dtd">
<svg version="1.0" xmlns="http://www.w3.org/2000/svg"
 width="32.000000pt" height="32.000000pt" viewBox="0 0 32.000000 32.000000"
 preserveAspectRatio="xMidYMid meet">
<metadata>
Created by potrace 1.16, written by Peter Selinger 2001-2019
</metadata>
<g transform="translate(0.000000,32.000000) scale(0.100000,-0.100000)"
fill="#000000" stroke="none">
<path fill="#000000" stroke="none" d="M107 170 c-15 -26 -26 -61 -26 -76 2
-27 2 -27 9 6 6 28 8 30 9 10 1 -17 4 -21 10 -12 4 7 21 17 37 22 24 7 25 8 7
9 -21 1 -21 2 -7 36 18 45 18 68 -2 33 -8 -16 -17 -28 -20 -28 -2 0 0 9 6 21
24 44 3 25 -23 -21z"/>
</g>
</svg>
