<?xml version="1.0" standalone="no"?>
<!DOCTYPE svg PUBLIC "-//W3C//DTD SVG 20010904//EN"
 "http://www.w3.org/TR/2001/REC-SVG-20010904/DTD/svg10.dtd">
<svg version="1.0" xmlns="http://www.w3.org/2000/svg"
 width="32.000000pt" height="32.000000pt" viewBox="0 0 32.000000 32.000000"
 preserveAspectRatio="xMidYMid meet">
<metadata>
Created by potrace 1.16, written by Peter Selinger 2001-2019
</metadata>
<g transform="translate(0.000000,32.000000) scale(0.100000,-0.100000)"
fill="#000000" stroke="none">
<path fill="#000000" stroke="none" d="M0 160 l0 -160 160 0 160 0 0 160 0
160 -160 0 -160 0 0 -160z"/>
<path fill="#ffffff" stroke="none" d="M193 268 c-6 -10 -60 -10 -66 0 -3 4
12 7 33 7 21 0 36 -3 33 -7z"/>
<path fill="#ffffff" stroke="none" d="M152 221 c10 15 6 -26 -7 -68 -6 -18
-3 -23 11 -23 13 0 9 -5 -13 -16 -17 -9 -33 -25 -36 -36 -3 -11 -10 -17 -16
-13 -19 11 -12 58 14 100 13 22 25 51 26 65 l2 25 4 -24 c4 -19 7 -21 15 -10z"/>
<path fill="#ffffff" stroke="none" d="M236 107 c-2 -7 -5 -5 -5 4 -1 8 -12
30 -26 49 -14 19 -25 43 -25 53 0 11 13 -5 31 -37 16 -32 28 -63 25 -69z"/>
<path fill="#ffffff" stroke="none" d="M220 80 c0 -5 -5 -10 -11 -10 -5 0 -7
5 -4 10 3 6 8 10 11 10 2 0 4 -4 4 -10z"/>
<path fill="#000000" stroke="none" d="M92 95 c0 -16 2 -22 5 -12 2 9 2 23 0
30 -3 6 -5 -1 -5 -18z"/>
</g>
</svg>
