<?xml version="1.0" standalone="no"?>
<!DOCTYPE svg PUBLIC "-//W3C//DTD SVG 20010904//EN"
 "http://www.w3.org/TR/2001/REC-SVG-20010904/DTD/svg10.dtd">
<svg version="1.0" xmlns="http://www.w3.org/2000/svg"
 width="32.000000pt" height="32.000000pt" viewBox="0 0 32.000000 32.000000"
 preserveAspectRatio="xMidYMid meet">
<metadata>
Created by potrace 1.16, written by Peter Selinger 2001-2019
</metadata>
<g transform="translate(0.000000,32.000000) scale(0.100000,-0.100000)"
fill="#000000" stroke="none">
<path fill="#000000" stroke="none" d="M133 284 c-7 -3 -10 -18 -6 -38 4 -25
-2 -45 -21 -78 -47 -81 -27 -128 56 -128 79 0 99 48 52 128 -20 34 -25 53 -21
79 5 28 3 34 -9 29 -9 -3 -12 -1 -9 4 6 10 -20 12 -42 4z"/>
<path fill="#ffffff" stroke="none" d="M180 225 c0 -17 7 -40 15 -51 22 -29
18 -34 -20 -34 -32 0 -35 2 -25 19 5 11 10 35 9 53 0 27 -2 30 -9 13 -8 -18
-9 -18 -9 5 -1 19 4 26 19 26 16 0 20 -7 20 -31z"/>
</g>
</svg>
