<?xml version="1.0" standalone="no"?>
<!DOCTYPE svg PUBLIC "-//W3C//DTD SVG 20010904//EN"
 "http://www.w3.org/TR/2001/REC-SVG-20010904/DTD/svg10.dtd">
<svg version="1.0" xmlns="http://www.w3.org/2000/svg"
 width="32.000000pt" height="32.000000pt" viewBox="0 0 32.000000 32.000000"
 preserveAspectRatio="xMidYMid meet">
<metadata>
Created by potrace 1.16, written by Peter Selinger 2001-2019
</metadata>
<g transform="translate(0.000000,32.000000) scale(0.100000,-0.100000)"
fill="#000000" stroke="none">
<path fill="#000000" stroke="none" d="M0 160 c0 -136 2 -160 15 -160 12 0 15
18 16 98 0 53 4 89 8 79 6 -17 8 -17 26 3 18 20 20 20 32 4 7 -10 13 -12 13
-6 0 15 37 16 42 2 2 -6 17 3 33 21 18 19 23 30 13 26 -11 -4 -22 3 -32 19
-20 30 -33 31 -39 2 l-4 -23 -2 23 c0 12 -5 22 -11 22 -5 0 -8 6 -6 13 1 6 1
9 -1 4 -3 -4 -10 -4 -16 -1 -9 5 -9 4 -1 -5 13 -14 6 -64 -7 -55 -5 3 -6 10
-3 16 4 6 2 8 -3 5 -12 -8 -43 34 -43 58 0 8 -7 15 -15 15 -13 0 -15 -24 -15
-160z"/>
<path fill="#ffffff" stroke="none" d="M80 211 c0 -5 -12 -6 -27 -3 -24 5 -25
6 -8 12 21 8 35 4 35 -9z"/>
<path fill="#ffffff" stroke="none" d="M115 219 c-4 -6 1 -5 13 2 24 15 59 5
44 -14 -10 -12 -67 -15 -78 -4 -8 8 4 27 17 27 6 0 7 -5 4 -11z"/>
<path fill="#000000" stroke="none" d="M290 300 c0 -11 -6 -20 -13 -20 -7 0
-19 -8 -28 -18 -30 -35 -31 -42 -6 -42 16 0 27 8 33 23 5 14 9 -26 11 -110 3
-109 6 -133 18 -133 13 0 15 26 15 160 0 136 -2 160 -15 160 -8 0 -15 -9 -15
-20z"/>
<path fill="#000000" stroke="none" d="M124 298 c-4 -5 -3 -12 0 -15 3 -4 6 0
6 8 0 11 2 12 9 1 7 -11 9 -11 14 0 6 16 -20 21 -29 6z"/>
<path fill="#000000" stroke="none" d="M185 281 c-3 -5 0 -13 6 -17 8 -4 7 -9
-2 -15 -10 -6 -10 -9 -2 -9 16 0 26 17 13 25 -6 4 -8 11 -5 16 4 5 4 9 1 9 -3
0 -7 -4 -11 -9z"/>
<path fill="#000000" stroke="none" d="M223 190 c2 -11 8 -25 15 -32 8 -8 14
-5 22 16 13 36 14 36 -15 36 -19 0 -24 -5 -22 -20z"/>
<path fill="#000000" stroke="none" d="M65 169 c-4 -6 -5 -13 -2 -16 7 -7 27
6 27 18 0 12 -17 12 -25 -2z"/>
<path fill="#000000" stroke="none" d="M165 155 c-14 -13 -25 -32 -25 -41 0
-13 -3 -14 -13 -5 -10 8 -14 7 -14 -4 0 -8 3 -13 5 -10 3 3 12 -4 20 -16 10
-15 17 -17 27 -9 18 15 15 50 -4 50 -10 0 -5 10 14 30 34 36 25 41 -10 5z"/>
<path fill="#ffffff" stroke="none" d="M165 80 c-5 -8 -11 -8 -17 -2 -6 6 -7
16 -3 22 5 8 11 8 17 2 6 -6 7 -16 3 -22z"/>
<path fill="#000000" stroke="none" d="M40 138 c0 -8 7 -15 15 -15 18 0 15 19
-3 25 -7 2 -12 -3 -12 -10z"/>
<path fill="#000000" stroke="none" d="M236 105 c-3 -9 0 -15 8 -15 7 0 13 7
13 15 0 8 -4 15 -8 15 -4 0 -9 -7 -13 -15z"/>
<path fill="#000000" stroke="none" d="M106 22 c-3 -5 1 -9 9 -9 8 0 15 4 15
9 0 10 -17 10 -24 0z"/>
</g>
</svg>
