<?xml version="1.0" standalone="no"?>
<!DOCTYPE svg PUBLIC "-//W3C//DTD SVG 20010904//EN"
 "http://www.w3.org/TR/2001/REC-SVG-20010904/DTD/svg10.dtd">
<svg version="1.0" xmlns="http://www.w3.org/2000/svg"
 width="32.000000pt" height="32.000000pt" viewBox="0 0 32.000000 32.000000"
 preserveAspectRatio="xMidYMid meet">
<metadata>
Created by potrace 1.16, written by Peter Selinger 2001-2019
</metadata>
<g transform="translate(0.000000,32.000000) scale(0.100000,-0.100000)"
fill="#000000" stroke="none">
<path fill="#000000" stroke="none" d="M0 160 c0 -136 2 -160 15 -160 12 0 15
15 15 73 0 65 3 76 25 97 27 26 25 40 -8 41 -22 0 -22 0 1 9 19 8 21 13 12 29
-5 11 -15 23 -20 26 -6 3 -10 15 -10 26 0 10 -7 19 -15 19 -13 0 -15 -24 -15
-160z"/>
<path fill="#000000" stroke="none" d="M290 300 c0 -11 -6 -20 -13 -20 -14 0
-57 -41 -57 -53 0 -4 11 -7 24 -7 15 0 27 8 32 23 5 14 9 -26 11 -110 3 -109
6 -133 18 -133 13 0 15 26 15 160 0 136 -2 160 -15 160 -8 0 -15 -9 -15 -20z"/>
<path fill="#000000" stroke="none" d="M125 302 c-3 -3 -5 -10 -5 -16 0 -6 5
-4 11 4 9 12 10 12 5 -3 -3 -10 -6 -24 -6 -30 -1 -7 -7 2 -15 18 -7 17 -14 24
-14 17 -1 -8 -6 -10 -13 -6 -7 4 -4 -3 7 -16 11 -13 15 -21 10 -17 -6 3 -17 2
-25 -4 -10 -6 -11 -9 -2 -9 6 0 12 -5 12 -11 0 -6 -6 -7 -12 -2 -7 4 -5 -5 5
-21 10 -15 16 -30 13 -34 -3 -3 -6 0 -6 8 0 10 -3 10 -15 0 -8 -7 -15 -16 -15
-21 0 -15 19 -10 38 9 23 21 43 26 52 13 4 -7 18 2 36 21 19 20 23 29 12 25
-22 -8 -24 9 -2 17 12 5 14 10 5 20 -6 7 -7 17 -3 21 4 5 1 5 -6 1 -10 -6 -10
-11 -1 -22 9 -11 8 -14 -4 -14 -19 0 -41 26 -34 43 5 13 -17 20 -28 9z"/>
<path fill="#ffffff" stroke="none" d="M165 215 c0 -5 -13 -10 -30 -11 -35 -1
-47 4 -40 16 7 12 70 7 70 -5z"/>
<path fill="#000000" stroke="none" d="M210 195 c-7 -8 -24 -21 -38 -28 -13
-6 -23 -15 -21 -19 2 -3 -7 -19 -21 -35 -14 -15 -21 -25 -16 -21 5 5 16 -1 24
-13 10 -15 17 -17 27 -9 16 13 26 50 14 50 -5 0 -4 9 3 19 7 11 16 18 20 15 4
-3 5 1 2 9 -8 22 22 28 40 8 14 -15 14 -18 1 -18 -8 0 -11 5 -8 10 3 6 1 7 -5
3 -9 -5 -9 -13 -2 -26 5 -10 7 -26 4 -34 -4 -11 -1 -16 10 -16 18 0 22 25 6
35 -14 9 -13 26 2 22 7 -1 12 12 14 31 1 27 -2 32 -21 32 -12 0 -28 -7 -35
-15z"/>
<path fill="#000000" stroke="none" d="M114 151 c5 -8 3 -16 -5 -22 -7 -4 -10
-11 -7 -15 4 -3 14 0 22 9 14 13 14 16 -1 29 -14 11 -16 11 -9 -1z"/>
<path fill="#000000" stroke="none" d="M40 133 c0 -16 20 -16 42 1 15 11 14
13 -12 13 -18 0 -30 -6 -30 -14z"/>
<path fill="#000000" stroke="none" d="M204 125 c3 -8 1 -15 -5 -15 -6 0 -7
-4 -4 -10 3 -5 11 -10 16 -10 6 0 7 5 4 10 -3 6 -2 10 4 10 6 0 8 7 5 15 -4 8
-11 15 -16 15 -6 0 -8 -7 -4 -15z"/>
<path fill="#000000" stroke="none" d="M110 71 c0 -6 4 -12 8 -15 5 -3 9 1 9
9 0 8 -4 15 -9 15 -4 0 -8 -4 -8 -9z"/>
<path fill="#000000" stroke="none" d="M195 70 c3 -5 8 -10 11 -10 2 0 4 5 4
10 0 6 -5 10 -11 10 -5 0 -7 -4 -4 -10z"/>
<path fill="#000000" stroke="none" d="M220 54 c1 -14 29 -48 35 -42 3 2 -4
15 -15 28 -11 13 -20 19 -20 14z"/>
<path fill="#000000" stroke="none" d="M120 32 c-17 -13 -19 -19 -8 -19 8 0
20 9 27 19 14 23 9 23 -19 0z"/>
</g>
</svg>
