<?xml version="1.0" standalone="no"?>
<!DOCTYPE svg PUBLIC "-//W3C//DTD SVG 20010904//EN"
 "http://www.w3.org/TR/2001/REC-SVG-20010904/DTD/svg10.dtd">
<svg version="1.0" xmlns="http://www.w3.org/2000/svg"
 width="32.000000pt" height="32.000000pt" viewBox="0 0 32.000000 32.000000"
 preserveAspectRatio="xMidYMid meet">
<metadata>
Created by potrace 1.16, written by Peter Selinger 2001-2019
</metadata>
<g transform="translate(0.000000,32.000000) scale(0.100000,-0.100000)"
fill="#000000" stroke="none">
<path fill="#000000" stroke="none" d="M77 313 c46 -2 120 -2 166 0 45 1 8 3
-83 3 -91 0 -128 -2 -83 -3z"/>
<path fill="#000000" stroke="none" d="M145 290 c6 -9 4 -12 -6 -8 -36 14 -58
-42 -30 -76 12 -15 11 -20 -14 -46 -30 -31 -27 -52 5 -33 21 14 38 0 45 -37 3
-17 2 -20 -10 -10 -20 17 -31 -8 -11 -28 10 -11 16 -12 16 -4 0 15 31 15 65 0
15 -7 24 -17 21 -25 -3 -8 2 -13 14 -13 11 0 20 5 20 10 0 6 -4 10 -9 10 -6 0
-18 14 -28 30 -17 29 -43 41 -43 20 0 -5 -4 -10 -9 -10 -5 0 -8 8 -7 18 2 9 8
17 14 17 7 0 19 10 27 23 13 18 20 20 36 11 23 -12 54 -4 44 11 -4 6 -10 8
-14 5 -5 -2 -16 4 -26 15 -10 11 -24 20 -30 20 -20 0 -38 27 -24 36 8 5 9 3 4
-6 -5 -8 -3 -11 6 -8 8 3 14 9 14 14 0 5 4 15 8 22 12 19 -7 14 -36 -8 -16
-13 -28 -17 -32 -10 -4 6 -1 9 7 8 7 -2 12 3 10 10 -1 8 2 11 7 8 5 -3 11 1
15 9 3 8 1 16 -4 16 -20 3 -25 5 -39 13 -10 7 -12 6 -6 -4z"/>
<path fill="#000000" stroke="none" d="M277 203 c5 -12 7 -12 14 -1 7 10 9 10
9 -3 0 -23 -11 -30 -27 -18 -8 7 -13 8 -13 1 0 -16 33 -24 42 -10 12 19 5 41
-14 44 -11 1 -15 -3 -11 -13z"/>
<path fill="#000000" stroke="none" d="M47 174 c5 -14 3 -15 -15 -5 -17 9 -20
8 -18 -6 2 -11 13 -18 30 -20 21 -1 26 2 22 13 -3 9 -6 20 -6 25 0 5 -4 9 -10
9 -5 0 -7 -7 -3 -16z"/>
<path fill="#000000" stroke="none" d="M23 123 c-7 -2 -9 -11 -6 -20 5 -11 3
-14 -6 -8 -10 6 -11 3 -2 -14 7 -12 9 -26 6 -31 -3 -6 0 -19 8 -31 11 -15 16
-17 20 -7 4 10 6 10 6 1 1 -16 30 -17 67 -3 l27 11 -22 23 c-22 23 -22 25 -6
50 16 25 16 25 -10 20 -14 -2 -31 -1 -38 3 -15 9 -29 11 -44 6z"/>
<path fill="#ffffff" stroke="none" d="M120 36 c0 -2 -8 -10 -17 -17 -16 -13
-17 -12 -4 4 13 16 21 21 21 13z"/>
</g>
</svg>
