<?xml version="1.0" standalone="no"?>
<!DOCTYPE svg PUBLIC "-//W3C//DTD SVG 20010904//EN"
 "http://www.w3.org/TR/2001/REC-SVG-20010904/DTD/svg10.dtd">
<svg version="1.0" xmlns="http://www.w3.org/2000/svg"
 width="32.000000pt" height="32.000000pt" viewBox="0 0 32.000000 32.000000"
 preserveAspectRatio="xMidYMid meet">
<metadata>
Created by potrace 1.16, written by Peter Selinger 2001-2019
</metadata>
<g transform="translate(0.000000,32.000000) scale(0.100000,-0.100000)"
fill="#000000" stroke="none">
<path fill="#000000" stroke="none" d="M1 155 c0 -128 3 -155 15 -155 16 0 18
12 4 26 -6 6 -6 21 -1 41 6 21 5 35 -2 43 -9 10 -9 11 0 6 6 -3 13 -3 16 1 2
5 2 2 1 -4 -2 -7 1 -13 6 -13 6 0 10 -5 10 -11 0 -5 -4 -7 -10 -4 -5 3 -10 2
-10 -3 0 -6 7 -12 15 -16 10 -4 15 1 16 17 1 17 2 18 6 4 5 -20 19 -22 26 -4
4 8 6 8 6 0 1 -6 -13 -18 -29 -27 -17 -8 -27 -10 -24 -4 4 6 1 9 -7 6 -25 -8
-16 -33 11 -31 14 1 18 0 8 -3 -10 -3 -18 -10 -18 -15 0 -14 38 -11 43 4 4 10
6 10 6 0 1 -10 31 -13 116 -13 l115 0 0 155 0 155 -160 0 -160 0 1 -155z"/>
<path fill="#ffffff" stroke="none" d="M123 260 c-3 -12 -8 -19 -11 -16 -5 6
5 36 12 36 2 0 2 -9 -1 -20z"/>
<path fill="#ffffff" stroke="none" d="M173 265 c-3 -9 -8 -14 -10 -11 -3 3
-2 9 2 15 9 16 15 13 8 -4z"/>
<path fill="#ffffff" stroke="none" d="M143 213 c-3 -7 -9 -13 -13 -13 -4 0
-10 6 -13 13 -3 7 3 13 13 13 10 0 16 -6 13 -13z"/>
<path fill="#ffffff" stroke="none" d="M308 195 c-3 -3 -9 2 -12 12 -6 14 -5
15 5 6 7 -7 10 -15 7 -18z"/>
<path fill="#ffffff" stroke="none" d="M280 175 c11 -13 10 -14 -4 -9 -9 3
-16 10 -16 15 0 13 6 11 20 -6z"/>
<path fill="#ffffff" stroke="none" d="M25 160 c-3 -4 0 -11 5 -13 6 -3 5 -4
-1 -3 -7 1 -13 10 -15 19 -1 9 2 15 7 11 5 -3 7 -9 4 -14z"/>
<path fill="#ffffff" stroke="none" d="M256 149 c3 -6 -5 -4 -18 5 -14 9 -28
13 -33 9 -4 -5 -5 -2 -1 5 8 13 39 2 52 -19z"/>
<path fill="#ffffff" stroke="none" d="M155 61 c-3 -2 -11 1 -18 7 -8 7 -18 8
-22 4 -5 -4 -5 -1 -1 5 5 10 11 10 26 1 11 -7 17 -14 15 -17z"/>
<path fill="#ffffff" stroke="none" d="M115 39 c-4 -5 -1 -9 4 -9 6 0 11 -4
11 -8 0 -5 -6 -9 -13 -9 -7 0 -13 11 -13 23 0 12 4 20 8 18 5 -3 6 -10 3 -15z"/>
<path fill="#ffffff" stroke="none" d="M250 22 c0 -5 -7 -9 -15 -9 -8 0 -12 4
-9 9 7 10 24 10 24 0z"/>
</g>
</svg>
