<?xml version="1.0" standalone="no"?>
<!DOCTYPE svg PUBLIC "-//W3C//DTD SVG 20010904//EN"
 "http://www.w3.org/TR/2001/REC-SVG-20010904/DTD/svg10.dtd">
<svg version="1.0" xmlns="http://www.w3.org/2000/svg"
 width="32.000000pt" height="32.000000pt" viewBox="0 0 32.000000 32.000000"
 preserveAspectRatio="xMidYMid meet">
<metadata>
Created by potrace 1.16, written by Peter Selinger 2001-2019
</metadata>
<g transform="translate(0.000000,32.000000) scale(0.100000,-0.100000)"
fill="#000000" stroke="none">
<path fill="#000000" stroke="none" d="M1 155 c0 -128 3 -155 15 -155 15 0 19
12 7 24 -10 10 -11 96 -1 97 5 1 14 2 21 3 6 1 18 -2 24 -7 7 -5 19 -7 28 -4
20 8 29 -11 15 -28 -9 -11 -10 -18 -1 -29 9 -10 8 -16 -4 -26 -28 -23 -4 -30
106 -30 l109 0 0 155 0 155 -160 0 -160 0 1 -155z"/>
<path fill="#ffffff" stroke="none" d="M173 284 c4 -1 11 -2 17 -3 5 0 7 -8 4
-16 -4 -8 -10 -12 -15 -9 -5 3 -8 0 -7 -8 2 -7 -3 -12 -10 -10 -8 1 -11 -2 -7
-8 4 -7 16 -3 32 10 29 22 48 27 36 8 -4 -7 -8 -17 -8 -22 0 -5 -6 -11 -14
-14 -9 -3 -11 0 -6 8 5 9 4 11 -4 6 -14 -9 4 -36 24 -36 6 0 20 -9 30 -20 10
-11 21 -17 26 -15 4 3 10 1 14 -5 10 -15 -21 -23 -44 -11 -16 9 -23 7 -36 -11
-8 -13 -20 -23 -27 -23 -6 0 -12 -8 -14 -17 -1 -10 2 -18 7 -18 5 0 9 5 9 10
0 21 26 9 43 -20 10 -16 22 -30 28 -30 5 0 9 -4 9 -10 0 -5 -9 -10 -20 -10
-12 0 -17 5 -14 13 3 8 -6 18 -21 25 -32 15 -65 16 -66 2 -1 -5 -2 -16 -3 -22
0 -7 -10 -14 -21 -17 -19 -3 -19 -2 -3 16 14 15 15 22 6 31 -9 9 -8 16 6 30
11 9 16 12 12 5 -3 -6 -2 -14 3 -18 13 -7 5 33 -9 51 -9 10 -16 11 -31 1 -16
-10 -21 -9 -28 2 -5 7 -19 14 -31 15 -14 1 -24 8 -26 18 -2 15 1 16 18 7 18
-10 20 -9 15 5 -4 9 -3 16 2 16 5 0 12 -12 16 -27 l6 -26 26 26 c23 23 25 28
12 43 -28 34 -6 90 30 76 10 -4 12 -1 6 8 -6 10 -4 11 6 4 8 -5 17 -9 22 -10z"/>
<path fill="#ffffff" stroke="none" d="M307 199 c4 -22 -12 -40 -30 -33 -9 3
-17 11 -17 16 0 7 5 6 13 -1 16 -12 27 -5 27 18 0 13 -2 13 -9 3 -7 -11 -9
-11 -14 1 -4 10 0 14 11 13 9 -2 18 -9 19 -17z"/>
</g>
</svg>
