<?xml version="1.0" standalone="no"?>
<!DOCTYPE svg PUBLIC "-//W3C//DTD SVG 20010904//EN"
 "http://www.w3.org/TR/2001/REC-SVG-20010904/DTD/svg10.dtd">
<svg version="1.0" xmlns="http://www.w3.org/2000/svg"
 width="32.000000pt" height="32.000000pt" viewBox="0 0 32.000000 32.000000"
 preserveAspectRatio="xMidYMid meet">
<metadata>
Created by potrace 1.16, written by Peter Selinger 2001-2019
</metadata>
<g transform="translate(0.000000,32.000000) scale(0.100000,-0.100000)"
fill="#000000" stroke="none">
<path fill="#000000" stroke="none" d="M0 160 c0 -136 2 -160 15 -160 12 0 15
15 15 74 0 51 4 77 14 85 10 8 15 9 18 1 2 -6 11 -8 21 -4 16 6 17 8 2 31 -9
13 -18 34 -20 45 -3 11 -11 28 -20 38 -8 9 -15 24 -15 33 0 9 -7 17 -15 17
-13 0 -15 -24 -15 -160z"/>
<path fill="#000000" stroke="none" d="M290 300 c0 -11 -6 -20 -13 -20 -17 0
-50 -37 -64 -72 -10 -22 -9 -28 5 -34 9 -4 20 -8 25 -8 4 -1 7 -4 7 -8 0 -5 0
-11 0 -14 0 -3 -13 4 -29 15 -16 12 -35 21 -42 21 -7 0 -3 10 11 25 21 23 22
25 5 25 -18 0 -18 0 0 13 13 10 15 16 6 21 -6 4 -8 12 -5 18 4 7 2 8 -4 4 -7
-4 -12 -2 -12 4 0 6 -4 8 -10 5 -5 -3 -10 -2 -10 4 0 7 -28 8 -37 1 -4 -3 -20
-7 -33 -9 -5 0 -6 -8 -3 -18 4 -11 3 -14 -6 -9 -14 9 -11 -16 4 -26 6 -5 5 -8
-3 -8 -10 0 -9 -8 4 -30 13 -21 20 -26 26 -17 6 9 8 9 8 0 0 -18 -45 -44 -64
-37 -11 4 -16 1 -16 -10 0 -19 22 -21 52 -5 24 13 45 -2 32 -23 -13 -21 -15
-46 -3 -53 7 -5 4 -13 -6 -25 -15 -17 -15 -18 -1 -16 29 4 41 23 26 41 -12 14
-12 16 1 14 7 -2 24 2 36 9 19 10 22 10 17 -2 -3 -8 3 -23 15 -32 11 -10 18
-20 16 -24 -2 -3 5 -7 16 -7 21 -2 18 8 -14 44 -10 12 -16 26 -12 32 3 6 -1
14 -9 17 -19 7 -21 30 -4 40 14 9 38 -23 31 -42 -3 -9 1 -14 12 -14 13 0 16 6
11 24 -3 12 -2 26 2 30 11 12 10 66 -2 66 -8 0 -8 3 0 8 6 4 15 16 20 27 6 14
10 -22 12 -112 2 -109 5 -133 17 -133 13 0 15 26 15 160 0 136 -2 160 -15 160
-8 0 -15 -9 -15 -20z"/>
<path fill="#ffffff" stroke="none" d="M120 226 c0 -3 -4 -8 -10 -11 -5 -3
-10 -1 -10 4 0 6 5 11 10 11 6 0 10 -2 10 -4z"/>
<path fill="#ffffff" stroke="none" d="M160 226 c0 -2 -7 -6 -15 -10 -8 -3
-15 -1 -15 4 0 6 7 10 15 10 8 0 15 -2 15 -4z"/>
<path fill="#000000" stroke="none" d="M202 128 c2 -6 10 -14 16 -16 7 -2 10
2 6 12 -7 18 -28 22 -22 4z"/>
<path fill="#000000" stroke="none" d="M95 121 c-6 -11 9 -23 19 -14 9 9 7 23
-3 23 -6 0 -12 -4 -16 -9z"/>
<path fill="#000000" stroke="none" d="M60 99 c0 -5 5 -7 10 -4 6 3 10 8 10
11 0 2 -4 4 -10 4 -5 0 -10 -5 -10 -11z"/>
</g>
</svg>
