<?xml version="1.0" standalone="no"?>
<!DOCTYPE svg PUBLIC "-//W3C//DTD SVG 20010904//EN"
 "http://www.w3.org/TR/2001/REC-SVG-20010904/DTD/svg10.dtd">
<svg version="1.0" xmlns="http://www.w3.org/2000/svg"
 width="32.000000pt" height="32.000000pt" viewBox="0 0 32.000000 32.000000"
 preserveAspectRatio="xMidYMid meet">
<metadata>
Created by potrace 1.16, written by Peter Selinger 2001-2019
</metadata>
<g transform="translate(0.000000,32.000000) scale(0.100000,-0.100000)"
fill="#000000" stroke="none">
<path fill="#000000" stroke="none" d="M1 155 c0 -128 3 -155 15 -155 15 0 19
12 7 24 -12 11 -12 66 -1 66 6 0 5 7 -2 15 -9 10 -9 15 -1 16 6 1 17 2 24 3
18 3 68 -34 61 -45 -3 -6 -1 -16 5 -23 8 -10 7 -17 -4 -26 -30 -25 -13 -30
100 -30 l115 0 0 155 0 155 -160 0 -160 0 1 -155z"/>
<path fill="#ffffff" stroke="none" d="M195 278 c5 4 5 1 1 -6 -4 -7 -12 -10
-17 -7 -5 4 -9 -1 -9 -9 0 -22 -54 -21 -71 1 -8 10 -9 14 -2 10 6 -4 14 -3 18
3 4 6 10 8 15 5 5 -3 11 -1 15 5 4 7 12 7 24 0 10 -5 22 -6 26 -2z"/>
<path fill="#ffffff" stroke="none" d="M230 257 c0 -2 -13 -13 -30 -25 -17
-13 -27 -17 -24 -8 3 7 15 18 27 24 26 13 27 13 27 9z"/>
<path fill="#ffffff" stroke="none" d="M111 226 c6 3 17 0 26 -8 12 -9 15 -9
9 0 -4 6 -3 12 2 12 11 0 23 -36 14 -44 -3 -3 -14 -6 -24 -6 -11 0 -16 -4 -13
-10 8 -14 41 -13 64 2 15 9 26 9 48 -2 15 -7 31 -14 35 -14 3 -1 10 -4 14 -8
11 -12 -25 -21 -39 -11 -6 6 -21 12 -33 15 -18 5 -21 1 -20 -21 1 -16 -4 -26
-13 -26 -8 0 -15 -8 -17 -17 -1 -10 2 -18 7 -18 5 0 9 5 9 10 0 16 27 11 34
-6 8 -21 -1 -31 -15 -17 -7 7 -22 8 -41 2 -33 -9 -50 -4 -47 14 3 20 -12 47
-26 47 -7 0 -15 5 -17 11 -2 6 -14 12 -27 13 -15 1 -25 8 -27 18 -2 15 1 16
18 7 18 -10 20 -9 15 5 -4 9 -3 16 2 16 5 0 12 -11 15 -25 8 -31 16 -31 39 1
17 23 18 27 3 43 -9 10 -16 22 -15 27 0 5 3 3 6 -4 2 -6 9 -9 14 -6z"/>
<path fill="#ffffff" stroke="none" d="M307 199 c4 -22 -12 -40 -30 -33 -9 3
-17 11 -17 16 0 7 5 6 13 -1 16 -12 27 -5 27 18 0 13 -2 13 -9 3 -7 -11 -9
-11 -14 1 -4 10 0 14 11 13 9 -2 18 -9 19 -17z"/>
<path fill="#ffffff" stroke="none" d="M136 23 c-10 -11 -37 -12 -30 -2 3 5
12 9 21 9 9 0 13 -3 9 -7z"/>
<path fill="#ffffff" stroke="none" d="M255 21 c3 -6 -3 -9 -14 -8 -11 0 -17
5 -15 9 7 11 22 10 29 -1z"/>
<path fill="#000000" stroke="none" d="M120 259 c0 -5 9 -9 20 -9 11 0 20 2
20 4 0 2 -9 6 -20 9 -11 3 -20 1 -20 -4z"/>
<path fill="#000000" stroke="none" d="M138 193 c7 -3 16 -2 19 1 4 3 -2 6
-13 5 -11 0 -14 -3 -6 -6z"/>
<path fill="#000000" stroke="none" d="M110 142 c0 -22 2 -27 11 -25 4 2 6 -3
3 -11 -3 -8 0 -17 5 -21 6 -3 8 -11 5 -17 -4 -6 -2 -8 4 -4 14 8 5 57 -14 76
-10 10 -14 11 -14 2z"/>
<path fill="#000000" stroke="none" d="M33 47 c5 -15 31 -16 44 -1 10 10 7 12
-18 12 -16 -1 -28 -6 -26 -11z"/>
<path fill="#000000" stroke="none" d="M40 8 c0 -4 9 -8 20 -8 11 0 20 4 20 8
0 4 -9 8 -20 8 -11 0 -20 -4 -20 -8z"/>
</g>
</svg>
