<?xml version="1.0" standalone="no"?>
<!DOCTYPE svg PUBLIC "-//W3C//DTD SVG 20010904//EN"
 "http://www.w3.org/TR/2001/REC-SVG-20010904/DTD/svg10.dtd">
<svg version="1.0" xmlns="http://www.w3.org/2000/svg"
 width="32.000000pt" height="32.000000pt" viewBox="0 0 32.000000 32.000000"
 preserveAspectRatio="xMidYMid meet">
<metadata>
Created by potrace 1.16, written by Peter Selinger 2001-2019
</metadata>
<g transform="translate(0.000000,32.000000) scale(0.100000,-0.100000)"
fill="#000000" stroke="none">
<path fill="#000000" stroke="none" d="M0 160 c0 -136 2 -160 15 -160 13 0 15
23 15 145 l0 145 130 0 130 0 0 -145 c0 -122 2 -145 15 -145 13 0 15 24 15
160 l0 160 -160 0 -160 0 0 -160z"/>
<path fill="#000000" stroke="none" d="M115 269 c-4 -6 -5 -12 -2 -15 2 -3 7
2 10 11 7 17 1 20 -8 4z"/>
<path fill="#000000" stroke="none" d="M165 269 c-4 -6 -5 -12 -2 -15 2 -3 7
2 10 11 7 17 1 20 -8 4z"/>
<path fill="#000000" stroke="none" d="M115 220 c3 -5 8 -10 11 -10 2 0 4 5 4
10 0 6 -5 10 -11 10 -5 0 -7 -4 -4 -10z"/>
<path fill="#000000" stroke="none" d="M44 138 c-4 -7 -4 -10 1 -6 4 4 15 2
24 -5 14 -11 14 -10 2 6 -16 20 -18 21 -27 5z"/>
<path fill="#000000" stroke="none" d="M165 122 c-22 -7 -25 -19 -11 -40 11
-17 29 -1 31 28 1 11 1 20 1 19 -1 -1 -10 -4 -21 -7z"/>
<path fill="#ffffff" stroke="none" d="M174 89 c-3 -5 -10 -7 -15 -3 -5 3 -7
10 -3 15 3 5 10 7 15 3 5 -3 7 -10 3 -15z"/>
<path fill="#000000" stroke="none" d="M246 103 c-6 -14 -5 -15 5 -6 7 7 10
15 7 18 -3 3 -9 -2 -12 -12z"/>
</g>
</svg>
