<?xml version="1.0" standalone="no"?>
<!DOCTYPE svg PUBLIC "-//W3C//DTD SVG 20010904//EN"
 "http://www.w3.org/TR/2001/REC-SVG-20010904/DTD/svg10.dtd">
<svg version="1.0" xmlns="http://www.w3.org/2000/svg"
 width="32.000000pt" height="32.000000pt" viewBox="0 0 32.000000 32.000000"
 preserveAspectRatio="xMidYMid meet">
<metadata>
Created by potrace 1.16, written by Peter Selinger 2001-2019
</metadata>
<g transform="translate(0.000000,32.000000) scale(0.100000,-0.100000)"
fill="#000000" stroke="none">
<path fill="#000000" stroke="none" d="M0 160 c0 -136 2 -160 15 -160 16 0 18
22 15 203 l-1 87 130 0 131 0 0 -145 c0 -122 2 -145 15 -145 13 0 15 24 15
160 l0 160 -160 0 -160 0 0 -160z"/>
<path fill="#000000" stroke="none" d="M113 265 c-3 -9 -3 -18 -1 -21 3 -3 8
4 11 16 6 23 -1 27 -10 5z"/>
<path fill="#000000" stroke="none" d="M165 269 c-4 -6 -5 -12 -2 -15 2 -3 7
2 10 11 7 17 1 20 -8 4z"/>
<path fill="#000000" stroke="none" d="M137 263 c-10 -9 -9 -23 1 -23 5 0 9 7
9 15 0 17 -1 18 -10 8z"/>
<path fill="#000000" stroke="none" d="M117 214 c6 -17 23 -19 23 -3 0 6 7 8
16 5 8 -3 13 -2 10 3 -10 15 -55 10 -49 -5z"/>
<path fill="#000000" stroke="none" d="M168 159 l-23 -21 24 16 c23 14 27 14
49 0 14 -9 21 -11 18 -5 -17 27 -44 31 -68 10z"/>
<path fill="#000000" stroke="none" d="M99 153 c-13 -16 -12 -17 4 -4 9 7 17
15 17 17 0 8 -8 3 -21 -13z"/>
<path fill="#000000" stroke="none" d="M40 137 c0 -7 9 -13 19 -13 15 0 17 3
9 13 -6 7 -14 13 -19 13 -5 0 -9 -6 -9 -13z"/>
<path fill="#000000" stroke="none" d="M165 122 c-22 -7 -25 -19 -11 -40 11
-17 29 -1 31 28 1 11 1 20 1 19 -1 -1 -10 -4 -21 -7z"/>
<path fill="#ffffff" stroke="none" d="M174 89 c-3 -5 -10 -7 -15 -3 -5 3 -7
10 -3 15 3 5 10 7 15 3 5 -3 7 -10 3 -15z"/>
<path fill="#000000" stroke="none" d="M240 105 c-10 -12 -10 -15 4 -15 9 0
16 7 16 15 0 8 -2 15 -4 15 -2 0 -9 -7 -16 -15z"/>
<path fill="#000000" stroke="none" d="M106 22 c-3 -5 1 -9 9 -9 8 0 15 4 15
9 0 10 -17 10 -24 0z"/>
<path fill="#000000" stroke="none" d="M226 22 c-3 -5 1 -9 9 -9 8 0 15 4 15
9 0 10 -17 10 -24 0z"/>
</g>
</svg>
