<?xml version="1.0" standalone="no"?>
<!DOCTYPE svg PUBLIC "-//W3C//DTD SVG 20010904//EN"
 "http://www.w3.org/TR/2001/REC-SVG-20010904/DTD/svg10.dtd">
<svg version="1.0" xmlns="http://www.w3.org/2000/svg"
 width="32.000000pt" height="32.000000pt" viewBox="0 0 32.000000 32.000000"
 preserveAspectRatio="xMidYMid meet">
<metadata>
Created by potrace 1.16, written by Peter Selinger 2001-2019
</metadata>
<g transform="translate(0.000000,32.000000) scale(0.100000,-0.100000)"
fill="#000000" stroke="none">
<path fill="#000000" stroke="none" d="M0 160 c0 -100 4 -160 10 -160 6 0 10
52 10 135 0 128 1 135 20 135 11 0 29 9 39 19 15 15 22 16 32 8 10 -9 10 -8 0
6 -13 16 -15 16 -32 1 -18 -16 -59 -12 -59 7 0 5 -4 9 -10 9 -6 0 -10 -60 -10
-160z"/>
<path fill="#000000" stroke="none" d="M126 308 c3 -5 13 -8 22 -6 10 1 23 -1
30 -5 6 -5 12 -5 12 -1 0 4 9 -1 20 -11 20 -19 28 -41 10 -30 -5 3 -10 1 -10
-4 0 -22 20 -10 35 20 17 32 38 34 43 4 3 -10 0 -15 -7 -11 -6 4 -11 2 -11 -5
0 -7 -8 -21 -17 -31 -14 -15 -14 -19 -3 -16 10 2 14 -4 13 -17 -11 -93 -10
-135 5 -147 13 -11 14 -10 6 12 -12 37 -7 120 8 120 4 0 3 11 -2 25 -9 25 1
42 19 30 6 -3 10 3 10 12 0 10 1 27 3 37 4 25 -47 34 -71 12 -15 -14 -18 -13
-28 3 -8 13 -23 19 -52 18 -22 0 -37 -5 -35 -9z"/>
<path fill="#000000" stroke="none" d="M108 277 c-27 -10 -35 -44 -11 -44 6 0
9 5 6 10 -4 6 2 8 15 5 15 -4 20 -2 17 11 -2 11 4 17 18 18 12 0 16 -1 10 -4
-7 -3 -13 -9 -13 -14 0 -6 4 -8 9 -4 5 3 12 1 16 -5 3 -5 1 -10 -6 -10 -7 0
-5 -6 5 -13 17 -13 17 -15 -10 -36 -29 -23 -61 -24 -56 -1 3 11 0 11 -13 0 -8
-7 -14 -20 -13 -29 2 -12 -4 -16 -24 -14 -19 1 -28 -3 -28 -13 0 -14 25 -15
47 -1 21 13 53 17 53 6 0 -6 5 -7 10 -4 15 9 12 -6 -5 -25 -14 -15 -13 -19 4
-34 18 -17 19 -16 26 3 3 12 10 19 14 17 4 -3 8 1 8 10 0 9 -7 12 -18 9 -14
-5 -16 -1 -12 14 3 12 9 18 14 15 5 -3 9 0 9 6 0 6 5 8 10 5 6 -3 10 -1 10 6
0 7 10 9 25 7 14 -3 25 -2 25 3 0 4 -10 9 -22 11 -13 2 -22 8 -21 13 1 6 -4
16 -10 24 -7 8 -12 21 -12 30 -1 40 -25 49 -77 28z"/>
<path fill="#000000" stroke="none" d="M120 220 c-8 -5 -11 -13 -6 -17 5 -4
11 -2 13 5 6 15 23 16 23 2 0 -6 -10 -15 -22 -20 -16 -6 -18 -9 -7 -9 21 -1
43 25 34 39 -8 12 -16 13 -35 0z"/>
<path fill="#000000" stroke="none" d="M100 71 c0 -6 5 -13 11 -16 7 -5 5 -13
-5 -24 -14 -15 -14 -18 -1 -18 18 0 28 26 15 42 -5 6 -7 15 -3 18 3 4 1 7 -5
7 -7 0 -12 -4 -12 -9z"/>
<path fill="#000000" stroke="none" d="M180 70 c0 -5 5 -10 10 -10 6 0 10 5
10 10 0 6 -4 10 -10 10 -5 0 -10 -4 -10 -10z"/>
<path fill="#000000" stroke="none" d="M217 40 c5 -18 3 -19 -20 -11 -19 7
-28 6 -37 -4 -7 -8 -7 -15 -1 -19 5 -3 12 0 14 6 4 10 8 9 16 -2 7 -9 11 -10
11 -3 0 7 10 10 26 7 22 -4 24 -2 14 15 -15 28 -29 35 -23 11z"/>
</g>
</svg>
