<?xml version="1.0" standalone="no"?>
<!DOCTYPE svg PUBLIC "-//W3C//DTD SVG 20010904//EN"
 "http://www.w3.org/TR/2001/REC-SVG-20010904/DTD/svg10.dtd">
<svg version="1.0" xmlns="http://www.w3.org/2000/svg"
 width="32.000000pt" height="32.000000pt" viewBox="0 0 32.000000 32.000000"
 preserveAspectRatio="xMidYMid meet">
<metadata>
Created by potrace 1.16, written by Peter Selinger 2001-2019
</metadata>
<g transform="translate(0.000000,32.000000) scale(0.100000,-0.100000)"
fill="#000000" stroke="none">
<path fill="#000000" stroke="none" d="M0 160 l0 -160 160 0 160 0 0 160 0
160 -160 0 -160 0 0 -160z"/>
<path fill="#ffffff" stroke="none" d="M178 303 c13 10 14 9 4 -9 -6 -12 -8
-25 -4 -29 4 -4 -2 -5 -13 -3 -13 2 -20 12 -21 26 -1 16 2 20 9 13 7 -7 15 -7
25 2z"/>
<path fill="#ffffff" stroke="none" d="M129 282 c6 -11 6 -24 0 -33 -7 -11 -9
-8 -10 11 0 23 -1 23 -9 5 l-9 -20 -1 20 c-2 17 -3 16 -10 -5 -7 -21 -8 -22
-9 -4 -1 20 16 44 31 44 4 0 12 -8 17 -18z"/>
<path fill="#ffffff" stroke="none" d="M238 288 c7 -7 12 -21 11 -33 -1 -17
-2 -16 -9 5 -7 21 -8 22 -10 5 l-1 -20 -9 20 c-8 18 -9 18 -9 -5 -1 -19 -3
-22 -10 -11 -6 9 -6 22 0 33 11 21 20 23 37 6z"/>
<path fill="#ffffff" stroke="none" d="M143 215 c-3 -9 -8 -14 -10 -11 -3 3
-2 9 2 15 9 16 15 13 8 -4z"/>
<path fill="#ffffff" stroke="none" d="M210 178 c0 -4 8 -8 18 -8 9 0 32 -9
50 -20 26 -16 32 -26 32 -55 0 -22 -4 -34 -10 -30 -5 3 -10 -1 -10 -10 0 -11
-5 -15 -16 -11 -8 3 -12 2 -9 -4 3 -6 3 -10 -2 -11 -4 0 -17 -3 -28 -6 -11 -3
-52 -6 -91 -6 -94 -1 -124 17 -124 72 0 34 5 42 33 60 24 15 46 20 80 17 48
-3 52 0 49 44 0 11 3 10 14 -4 8 -11 14 -23 14 -28z"/>
<path fill="#000000" stroke="none" d="M194 173 c2 -13 -1 -23 -7 -23 -107 -5
-150 -21 -145 -55 8 -59 238 -58 246 1 3 19 -14 33 -61 48 -9 3 -22 16 -28 28
l-10 23 5 -22z"/>
<path fill="#ffffff" stroke="none" d="M168 131 c6 -1 12 -6 12 -12 0 -7 -9
-9 -21 -6 -17 5 -18 3 -7 -11 11 -13 11 -14 -2 -7 -8 5 -26 9 -40 9 -24 -1
-24 -1 -2 3 15 3 22 10 18 18 -3 8 2 12 12 10 9 -2 23 -4 30 -4z"/>
<path fill="#ffffff" stroke="none" d="M254 111 c2 -3 -9 -6 -25 -6 -16 0 -31
5 -33 11 -4 11 51 7 58 -5z"/>
</g>
</svg>
