<?xml version="1.0" standalone="no"?>
<!DOCTYPE svg PUBLIC "-//W3C//DTD SVG 20010904//EN"
 "http://www.w3.org/TR/2001/REC-SVG-20010904/DTD/svg10.dtd">
<svg version="1.0" xmlns="http://www.w3.org/2000/svg"
 width="32.000000pt" height="32.000000pt" viewBox="0 0 32.000000 32.000000"
 preserveAspectRatio="xMidYMid meet">
<metadata>
Created by potrace 1.16, written by Peter Selinger 2001-2019
</metadata>
<g transform="translate(0.000000,32.000000) scale(0.100000,-0.100000)"
fill="#000000" stroke="none">
<path fill="#000000" stroke="none" d="M143 288 c-2 -24 22 -42 34 -26 17 22
11 43 -12 43 -13 0 -22 -7 -22 -17z"/>
<path fill="#000000" stroke="none" d="M92 288 c-7 -7 -12 -21 -11 -32 0 -21
0 -21 9 -1 6 13 9 15 9 5 1 -13 2 -13 11 0 8 13 10 12 10 -5 0 -14 3 -16 11
-8 8 8 8 17 0 32 -13 24 -22 26 -39 9z"/>
<path fill="#000000" stroke="none" d="M199 279 c-8 -15 -8 -24 0 -32 8 -8 11
-6 11 8 0 17 2 18 10 5 9 -13 10 -13 11 0 0 10 3 8 9 -5 9 -20 9 -20 9 0 1 21
-16 45 -31 45 -4 0 -12 -9 -19 -21z"/>
<path fill="#000000" stroke="none" d="M144 227 c-28 -15 -28 -15 -13 -34 8
-9 10 -14 4 -11 -5 3 -32 -7 -60 -22 -46 -25 -50 -30 -53 -68 -3 -35 1 -43 24
-59 37 -24 184 -26 229 -3 27 14 30 20 30 60 0 44 -1 46 -50 71 -27 14 -54 24
-60 21 -5 -3 -4 1 3 9 17 18 15 24 -11 36 -16 8 -29 8 -43 0z"/>
<path fill="#ffffff" stroke="none" d="M183 195 c-2 -8 -10 -13 -16 -12 -19 3
-27 20 -15 34 14 17 39 -2 31 -22z"/>
<path fill="#ffffff" stroke="none" d="M276 74 c-11 -8 -27 -14 -35 -14 -13 0
-14 2 -2 9 12 8 12 10 0 14 -8 2 -7 3 2 2 9 -1 23 1 30 6 22 13 26 -1 5 -17z"/>
<path fill="#ffffff" stroke="none" d="M136 52 c-6 -5 -84 17 -90 26 -3 5 17
1 44 -7 27 -8 48 -17 46 -19z"/>
<path fill="#ffffff" stroke="none" d="M208 53 c-10 -2 -26 -2 -35 0 -10 3 -2
5 17 5 19 0 27 -2 18 -5z"/>
</g>
</svg>
