<?xml version="1.0" standalone="no"?>
<!DOCTYPE svg PUBLIC "-//W3C//DTD SVG 20010904//EN"
 "http://www.w3.org/TR/2001/REC-SVG-20010904/DTD/svg10.dtd">
<svg version="1.0" xmlns="http://www.w3.org/2000/svg"
 width="32.000000pt" height="32.000000pt" viewBox="0 0 32.000000 32.000000"
 preserveAspectRatio="xMidYMid meet">
<metadata>
Created by potrace 1.16, written by Peter Selinger 2001-2019
</metadata>
<g transform="translate(0.000000,32.000000) scale(0.100000,-0.100000)"
fill="#000000" stroke="none">
<path fill="#000000" stroke="none" d="M0 160 l0 -160 160 0 160 0 0 160 0
160 -160 0 -160 0 0 -160z"/>
<path fill="#ffffff" stroke="none" d="M189 279 c17 -6 31 -15 31 -19 0 -5 3
-17 7 -27 6 -17 5 -17 -13 -2 -23 20 -44 14 -37 -10 9 -37 -24 -30 -50 10 -24
37 -17 55 11 27 17 -17 28 -2 12 17 -15 18 -4 19 39 4z"/>
<path fill="#ffffff" stroke="none" d="M110 230 c0 -5 -7 -10 -15 -10 -8 0
-15 5 -15 10 0 6 7 10 15 10 8 0 15 -4 15 -10z"/>
<path fill="#ffffff" stroke="none" d="M220 215 c7 -9 10 -18 7 -22 -8 -7 -37
15 -37 28 0 14 16 11 30 -6z"/>
<path fill="#ffffff" stroke="none" d="M120 205 c0 -3 -10 -10 -22 -15 -23
-10 -23 -10 2 -7 21 2 26 -3 28 -26 2 -16 -2 -35 -9 -43 -14 -17 -60 -19 -77
-2 -16 16 -15 63 1 76 18 15 77 28 77 17z"/>
<path fill="#ffffff" stroke="none" d="M270 184 c18 -21 2 -64 -27 -75 -17 -6
-28 -3 -43 13 -35 38 -21 80 20 58 16 -9 20 -8 20 5 0 19 14 19 30 -1z"/>
<path fill="#ffffff" stroke="none" d="M267 83 c2 -6 -8 -20 -23 -29 -50 -33
-214 -17 -201 19 3 8 26 11 73 9 38 -2 80 1 94 7 30 12 52 10 57 -6z"/>
</g>
</svg>
