<?xml version="1.0" standalone="no"?>
<!DOCTYPE svg PUBLIC "-//W3C//DTD SVG 20010904//EN"
 "http://www.w3.org/TR/2001/REC-SVG-20010904/DTD/svg10.dtd">
<svg version="1.0" xmlns="http://www.w3.org/2000/svg"
 width="32.000000pt" height="32.000000pt" viewBox="0 0 32.000000 32.000000"
 preserveAspectRatio="xMidYMid meet">
<metadata>
Created by potrace 1.16, written by Peter Selinger 2001-2019
</metadata>
<g transform="translate(0.000000,32.000000) scale(0.100000,-0.100000)"
fill="#000000" stroke="none">
<path fill="#000000" stroke="none" d="M190 260 c0 -5 7 -10 15 -10 8 0 15 5
15 10 0 6 -7 10 -15 10 -8 0 -15 -4 -15 -10z"/>
<path fill="#000000" stroke="none" d="M130 230 c0 -5 7 -10 15 -10 8 0 15 5
15 10 0 6 -7 10 -15 10 -8 0 -15 -4 -15 -10z"/>
<path fill="#000000" stroke="none" d="M192 218 c3 -7 13 -15 24 -17 16 -3 17
-1 5 13 -16 19 -34 21 -29 4z"/>
<path fill="#000000" stroke="none" d="M95 200 c4 -6 11 -8 16 -5 14 9 11 15
-7 15 -8 0 -12 -5 -9 -10z"/>
<path fill="#000000" stroke="none" d="M44 187 c-13 -36 7 -74 40 -74 19 -1
28 7 35 29 13 37 8 48 -19 41 -11 -3 -20 0 -20 6 0 15 -30 14 -36 -2z"/>
<path fill="#000000" stroke="none" d="M190 183 c0 -6 8 -17 18 -24 16 -13 16
-13 2 6 -8 11 -16 22 -17 24 -2 2 -3 0 -3 -6z"/>
<path fill="#000000" stroke="none" d="M89 75 c18 -8 38 -12 44 -8 13 8 -19
21 -53 22 -23 0 -22 -1 9 -14z"/>
<path fill="#000000" stroke="none" d="M180 76 c0 -2 9 -6 20 -9 11 -3 18 -1
14 4 -5 9 -34 13 -34 5z"/>
</g>
</svg>
