<?xml version="1.0" standalone="no"?>
<!DOCTYPE svg PUBLIC "-//W3C//DTD SVG 20010904//EN"
 "http://www.w3.org/TR/2001/REC-SVG-20010904/DTD/svg10.dtd">
<svg version="1.0" xmlns="http://www.w3.org/2000/svg"
 width="32.000000pt" height="32.000000pt" viewBox="0 0 32.000000 32.000000"
 preserveAspectRatio="xMidYMid meet">
<metadata>
Created by potrace 1.16, written by Peter Selinger 2001-2019
</metadata>
<g transform="translate(0.000000,32.000000) scale(0.100000,-0.100000)"
fill="#000000" stroke="none">
<path fill="#000000" stroke="none" d="M0 160 l0 -160 160 0 160 0 0 160 0
160 -160 0 -160 0 0 -160z"/>
<path fill="#ffffff" stroke="none" d="M244 184 c24 -9 19 -29 -15 -69 -35
-40 -72 -46 -89 -15 -9 17 -6 60 7 83 5 8 75 10 97 1z"/>
<path fill="#ffffff" stroke="none" d="M127 164 c6 -17 -42 -74 -63 -74 -27 0
-24 21 8 54 37 39 46 42 55 20z"/>
<path fill="#ffffff" stroke="none" d="M138 63 c-8 -10 -35 -11 -91 -4 -5 1
-6 5 -3 9 3 5 27 8 55 8 37 -1 47 -4 39 -13z"/>
<path fill="#ffffff" stroke="none" d="M262 58 c-11 -11 -80 -18 -99 -11 -26
10 -3 18 52 19 34 1 52 -3 47 -8z"/>
<path fill="#000000" stroke="none" d="M214 118 l-19 -23 23 19 c21 18 27 26
19 26 -2 0 -12 -10 -23 -22z"/>
</g>
</svg>
