<?xml version="1.0" standalone="no"?>
<!DOCTYPE svg PUBLIC "-//W3C//DTD SVG 20010904//EN"
 "http://www.w3.org/TR/2001/REC-SVG-20010904/DTD/svg10.dtd">
<svg version="1.0" xmlns="http://www.w3.org/2000/svg"
 width="32.000000pt" height="32.000000pt" viewBox="0 0 32.000000 32.000000"
 preserveAspectRatio="xMidYMid meet">
<metadata>
Created by potrace 1.16, written by Peter Selinger 2001-2019
</metadata>
<g transform="translate(0.000000,32.000000) scale(0.100000,-0.100000)"
fill="#000000" stroke="none">
<path fill="#000000" stroke="none" d="M175 220 c-11 -5 -15 -9 -10 -9 6 -1 4
-5 -3 -10 -11 -6 -10 -14 6 -39 l19 -32 33 25 c18 13 37 22 41 19 13 -7 11
-14 -2 -11 -6 1 -12 -8 -14 -20 -2 -25 3 -28 25 -13 13 9 13 10 0 10 -12 0
-12 2 -1 9 15 10 4 38 -23 61 -13 10 -16 10 -16 -4 0 -11 5 -14 12 -10 7 4 8
3 4 -4 -4 -6 -13 -9 -21 -6 -8 4 -12 10 -9 15 3 5 0 8 -8 7 -7 -2 -12 3 -10
10 1 6 1 12 0 11 -2 0 -12 -4 -23 -9z"/>
<path fill="#ffffff" stroke="none" d="M212 158 c-9 -9 -15 -9 -24 1 -11 11
-10 12 1 6 9 -5 12 -3 9 6 -3 8 -10 13 -16 12 -6 -2 -9 4 -6 12 5 12 10 11 27
-6 16 -15 18 -22 9 -31z"/>
<path fill="#000000" stroke="none" d="M73 178 c-34 -17 -30 -45 7 -46 16 0
32 4 36 9 3 5 10 7 15 4 9 -6 25 22 18 30 -11 11 -57 13 -76 3z"/>
<path fill="#000000" stroke="none" d="M133 123 c-22 -8 -14 -18 12 -18 14 0
25 3 25 6 0 10 -23 17 -37 12z"/>
<path fill="#000000" stroke="none" d="M195 121 c-2 -5 4 -11 15 -14 11 -3 20
-2 20 3 0 12 -28 21 -35 11z"/>
<path fill="#000000" stroke="none" d="M130 76 c-6 -9 -10 -21 -8 -28 3 -8 9
-4 17 10 15 28 9 39 -9 18z"/>
<path fill="#000000" stroke="none" d="M176 67 c10 -15 23 -27 28 -27 12 0
-18 43 -34 48 -8 3 -6 -5 6 -21z"/>
</g>
</svg>
