<?xml version="1.0" standalone="no"?>
<!DOCTYPE svg PUBLIC "-//W3C//DTD SVG 20010904//EN"
 "http://www.w3.org/TR/2001/REC-SVG-20010904/DTD/svg10.dtd">
<svg version="1.0" xmlns="http://www.w3.org/2000/svg"
 width="32.000000pt" height="32.000000pt" viewBox="0 0 32.000000 32.000000"
 preserveAspectRatio="xMidYMid meet">
<metadata>
Created by potrace 1.16, written by Peter Selinger 2001-2019
</metadata>
<g transform="translate(0.000000,32.000000) scale(0.100000,-0.100000)"
fill="#000000" stroke="none">
<path fill="#000000" stroke="none" d="M146 297 c3 -10 9 -15 12 -12 3 3 0 11
-7 18 -10 9 -11 8 -5 -6z"/>
<path fill="#000000" stroke="none" d="M90 285 c-7 -9 -10 -18 -6 -22 3 -3 6
-1 6 6 0 7 5 9 10 6 6 -3 10 -1 10 5 0 6 5 8 12 4 7 -4 8 -3 4 4 -10 16 -21
15 -36 -3z"/>
<path fill="#000000" stroke="none" d="M204 288 c-4 -7 -3 -8 4 -4 7 4 12 2
12 -4 0 -6 5 -8 10 -5 6 3 10 1 10 -6 0 -7 3 -9 6 -6 8 7 -14 37 -27 37 -4 0
-11 -5 -15 -12z"/>
<path fill="#000000" stroke="none" d="M52 148 c-30 -19 -33 -25 -29 -60 5
-44 3 -41 37 -58 24 -13 24 -12 10 5 -14 17 -14 18 8 6 12 -6 22 -8 22 -4 0 4
7 -2 16 -13 8 -10 13 -13 9 -6 -4 7 0 12 10 12 10 0 13 -5 9 -12 -6 -10 -4
-10 7 -2 8 5 29 10 46 10 49 -1 108 42 108 79 0 22 -8 33 -33 48 -25 15 -36
17 -45 8 -8 -8 -6 -11 9 -11 30 -1 56 -26 52 -52 -9 -63 -237 -63 -246 0 -4
26 21 51 51 52 9 0 17 5 17 10 0 16 -22 11 -58 -12z"/>
</g>
</svg>
