<?xml version="1.0" standalone="no"?>
<!DOCTYPE svg PUBLIC "-//W3C//DTD SVG 20010904//EN"
 "http://www.w3.org/TR/2001/REC-SVG-20010904/DTD/svg10.dtd">
<svg version="1.0" xmlns="http://www.w3.org/2000/svg"
 width="32.000000pt" height="32.000000pt" viewBox="0 0 32.000000 32.000000"
 preserveAspectRatio="xMidYMid meet">
<metadata>
Created by potrace 1.16, written by Peter Selinger 2001-2019
</metadata>
<g transform="translate(0.000000,32.000000) scale(0.100000,-0.100000)"
fill="#000000" stroke="none">
<path fill="#000000" stroke="none" d="M0 160 l0 -160 160 0 160 0 0 160 0
160 -160 0 -160 0 0 -160z"/>
<path fill="#ffffff" stroke="none" d="M187 290 c0 -8 -4 -21 -10 -28 -12 -16
-36 2 -34 26 1 21 44 23 44 2z"/>
<path fill="#ffffff" stroke="none" d="M131 279 c8 -15 8 -24 0 -32 -8 -8 -11
-6 -11 8 0 17 -2 18 -10 5 -9 -13 -10 -13 -11 0 0 10 -3 8 -9 -5 -9 -20 -9
-20 -9 1 -1 20 16 44 31 44 4 0 12 -9 19 -21z"/>
<path fill="#ffffff" stroke="none" d="M238 288 c7 -7 12 -21 11 -33 0 -20 0
-20 -9 0 -6 13 -9 15 -9 5 -1 -13 -2 -13 -11 0 -8 13 -10 12 -10 -5 0 -14 -3
-16 -11 -8 -8 8 -8 17 0 32 13 24 22 26 39 9z"/>
<path fill="#ffffff" stroke="none" d="M153 219 c-14 -14 -6 -39 12 -39 18 0
26 25 12 39 -13 13 2 15 21 2 10 -6 11 -13 4 -27 -6 -11 -13 -27 -16 -36 -7
-24 -15 -22 -51 8 -19 17 -23 24 -11 20 16 -6 17 -4 6 10 -12 13 -11 17 1 25
20 12 35 11 22 -2z"/>
<path fill="#ffffff" stroke="none" d="M236 179 c10 -17 -13 -36 -27 -22 -12
12 -4 33 11 33 5 0 12 -5 16 -11z"/>
<path fill="#ffffff" stroke="none" d="M106 169 c10 -17 -23 -46 -37 -32 -7 7
-9 19 -6 27 7 18 33 21 43 5z"/>
<path fill="#ffffff" stroke="none" d="M145 139 c0 -8 -5 -13 -12 -12 -15 3
-6 -24 14 -49 16 -19 10 -38 -13 -38 -8 0 -14 9 -14 20 0 11 -5 19 -11 17 -6
-1 -16 5 -22 15 -9 13 -6 22 14 42 25 27 44 29 44 5z"/>
<path fill="#ffffff" stroke="none" d="M276 149 c9 -15 -11 -33 -30 -26 -9 4
-13 13 -10 22 7 17 30 20 40 4z"/>
<path fill="#ffffff" stroke="none" d="M70 110 c0 -21 -21 -20 -30 2 -8 18 -8
14 -4 -17 9 -54 12 -58 45 -51 16 3 29 1 29 -4 0 -13 43 -13 57 1 6 6 36 11
68 11 61 1 78 15 57 48 -6 10 -7 23 -2 31 13 19 22 -9 18 -52 -4 -48 -41 -64
-148 -64 -109 0 -140 16 -140 74 0 21 3 41 6 44 8 8 44 -11 44 -23z"/>
<path fill="#ffffff" stroke="none" d="M220 125 c7 -8 8 -15 3 -15 -6 0 -8
-11 -5 -25 3 -20 0 -25 -17 -25 -22 0 -28 14 -11 25 6 3 10 11 10 18 0 6 -6 2
-14 -8 -8 -11 -19 -16 -30 -12 -25 10 -16 40 14 48 37 10 36 10 50 -6z"/>
<path fill="#ffffff" stroke="none" d="M287 94 c3 -8 1 -20 -5 -26 -14 -14
-53 8 -46 27 8 20 43 19 51 -1z"/>
<path fill="#ffffff" stroke="none" d="M86 79 c10 -17 -13 -36 -27 -22 -12 12
-4 33 11 33 5 0 12 -5 16 -11z"/>
</g>
</svg>
