<?xml version="1.0" standalone="no"?>
<!DOCTYPE svg PUBLIC "-//W3C//DTD SVG 20010904//EN"
 "http://www.w3.org/TR/2001/REC-SVG-20010904/DTD/svg10.dtd">
<svg version="1.0" xmlns="http://www.w3.org/2000/svg"
 width="32.000000pt" height="32.000000pt" viewBox="0 0 32.000000 32.000000"
 preserveAspectRatio="xMidYMid meet">
<metadata>
Created by potrace 1.16, written by Peter Selinger 2001-2019
</metadata>
<g transform="translate(0.000000,32.000000) scale(0.100000,-0.100000)"
fill="#000000" stroke="none">
<path fill="#000000" stroke="none" d="M0 160 l0 -160 160 0 160 0 0 160 0
160 -160 0 -160 0 0 -160z"/>
<path fill="#ffffff" stroke="none" d="M233 175 c4 -8 1 -17 -5 -21 -7 -4 -8
-3 -4 4 4 7 1 12 -9 12 -9 0 -13 5 -10 10 9 14 22 12 28 -5z"/>
<path fill="#ffffff" stroke="none" d="M97 148 c-3 -8 -6 -5 -6 6 -1 11 2 17
5 13 3 -3 4 -12 1 -19z"/>
<path fill="#ffffff" stroke="none" d="M264 145 c-6 -16 -24 -21 -24 -7 0 11
11 22 21 22 5 0 6 -7 3 -15z"/>
<path fill="#ffffff" stroke="none" d="M190 110 c0 -4 -7 -13 -16 -20 -12 -11
-15 -11 -12 1 2 8 -3 13 -11 11 -8 -2 -11 3 -8 13 4 9 1 15 -9 15 -8 0 -13 4
-10 9 7 10 66 -16 66 -29z"/>
<path fill="#ffffff" stroke="none" d="M206 131 c-4 -5 -1 -12 4 -14 6 -3 5
-4 -2 -3 -15 3 -23 26 -8 26 6 0 9 -4 6 -9z"/>
<path fill="#ffffff" stroke="none" d="M60 120 c0 -5 -5 -10 -11 -10 -5 0 -7
5 -4 10 3 6 8 10 11 10 2 0 4 -4 4 -10z"/>
<path fill="#ffffff" stroke="none" d="M125 110 c4 -6 1 -9 -7 -8 -7 2 -12 -3
-10 -10 1 -8 -2 -11 -8 -7 -15 9 -12 35 4 35 8 0 18 -5 21 -10z"/>
<path fill="#ffffff" stroke="none" d="M264 95 c-4 -8 -10 -12 -15 -9 -11 6
-2 24 11 24 5 0 7 -7 4 -15z"/>
<path fill="#ffffff" stroke="none" d="M75 80 c3 -5 -1 -10 -10 -10 -9 0 -13
5 -10 10 3 6 8 10 10 10 2 0 7 -4 10 -10z"/>
<path fill="#ffffff" stroke="none" d="M212 75 c0 -5 -5 -11 -11 -13 -6 -2
-11 4 -11 13 0 9 5 15 11 13 6 -2 11 -8 11 -13z"/>
<path fill="#ffffff" stroke="none" d="M160 62 c0 -4 -9 -8 -20 -8 -22 0 -27
12 -7 19 14 5 27 -1 27 -11z"/>
</g>
</svg>
