<?xml version="1.0" standalone="no"?>
<!DOCTYPE svg PUBLIC "-//W3C//DTD SVG 20010904//EN"
 "http://www.w3.org/TR/2001/REC-SVG-20010904/DTD/svg10.dtd">
<svg version="1.0" xmlns="http://www.w3.org/2000/svg"
 width="32.000000pt" height="32.000000pt" viewBox="0 0 32.000000 32.000000"
 preserveAspectRatio="xMidYMid meet">
<metadata>
Created by potrace 1.16, written by Peter Selinger 2001-2019
</metadata>
<g transform="translate(0.000000,32.000000) scale(0.100000,-0.100000)"
fill="#000000" stroke="none">
<path fill="#000000" stroke="none" d="M146 297 c3 -10 9 -15 12 -12 3 3 0 11
-7 18 -10 9 -11 8 -5 -6z"/>
<path fill="#000000" stroke="none" d="M90 285 c-7 -9 -10 -18 -6 -22 3 -3 6
-1 6 6 0 7 5 9 10 6 6 -3 10 -1 10 5 0 6 5 8 12 4 7 -4 8 -3 4 4 -10 16 -21
15 -36 -3z"/>
<path fill="#000000" stroke="none" d="M204 288 c-4 -7 -3 -8 4 -4 7 4 12 2
12 -4 0 -6 5 -8 10 -5 6 3 10 1 10 -6 0 -7 3 -9 6 -6 8 7 -14 37 -27 37 -4 0
-11 -5 -15 -12z"/>
<path fill="#000000" stroke="none" d="M204 179 c-10 -17 13 -36 27 -22 12 12
4 33 -11 33 -5 0 -12 -5 -16 -11z"/>
<path fill="#000000" stroke="none" d="M63 164 c-3 -8 0 -21 6 -27 10 -9 16
-8 26 7 8 10 12 23 9 27 -9 15 -34 10 -41 -7z"/>
<path fill="#ffffff" stroke="none" d="M90 166 c0 -3 -4 -8 -10 -11 -5 -3 -10
-1 -10 4 0 6 5 11 10 11 6 0 10 -2 10 -4z"/>
<path fill="#000000" stroke="none" d="M114 149 c-8 -14 18 -31 30 -19 9 9 0
30 -14 30 -5 0 -12 -5 -16 -11z"/>
<path fill="#000000" stroke="none" d="M247 153 c-4 -3 -7 -12 -7 -20 0 -16
26 -17 36 -1 5 7 3 8 -6 3 -10 -6 -12 -4 -7 8 6 17 -4 23 -16 10z"/>
<path fill="#000000" stroke="none" d="M24 126 c-3 -7 -3 -26 0 -42 2 -16 5
-32 5 -35 1 -3 13 -11 29 -18 l27 -12 -23 18 c-16 13 -23 30 -25 61 -2 45 -5
50 -13 28z"/>
<path fill="#000000" stroke="none" d="M192 129 c2 -7 10 -15 17 -17 8 -3 12
1 9 9 -2 7 -10 15 -17 17 -8 3 -12 -1 -9 -9z"/>
<path fill="#000000" stroke="none" d="M290 123 c0 -10 5 -25 10 -33 8 -12 10
-9 10 12 0 15 -4 30 -10 33 -5 3 -10 -2 -10 -12z"/>
<path fill="#000000" stroke="none" d="M45 119 c-10 -15 3 -25 16 -12 7 7 7
13 1 17 -6 3 -14 1 -17 -5z"/>
<path fill="#000000" stroke="none" d="M89 119 c-12 -7 -11 -11 3 -25 17 -17
38 -12 38 11 0 17 -23 25 -41 14z"/>
<path fill="#000000" stroke="none" d="M147 124 c-12 -12 -8 -36 5 -28 7 5 8
3 3 -5 -5 -9 -2 -12 11 -9 23 4 26 41 4 46 -9 1 -19 0 -23 -4z"/>
<path fill="#000000" stroke="none" d="M240 95 c0 -20 28 -31 43 -16 8 8 8 11
-2 11 -7 0 -9 5 -6 10 3 6 -3 10 -14 10 -12 0 -21 -7 -21 -15z"/>
<path fill="#000000" stroke="none" d="M191 86 c-9 -10 -9 -16 -1 -21 17 -10
37 12 24 25 -8 8 -15 6 -23 -4z"/>
<path fill="#000000" stroke="none" d="M56 82 c-3 -6 1 -13 10 -16 23 -9 28
-2 10 13 -8 7 -17 8 -20 3z"/>
<path fill="#000000" stroke="none" d="M124 69 c-10 -17 13 -36 27 -22 12 12
4 33 -11 33 -5 0 -12 -5 -16 -11z"/>
<path fill="#000000" stroke="none" d="M204 53 c-18 -2 -40 -14 -50 -25 -12
-14 -14 -18 -4 -12 8 4 29 9 45 10 38 2 66 14 59 25 -3 5 -8 8 -12 7 -4 0 -21
-3 -38 -5z"/>
<path fill="#000000" stroke="none" d="M90 39 c0 -5 5 -7 10 -4 6 3 10 8 10
11 0 2 -4 4 -10 4 -5 0 -10 -5 -10 -11z"/>
</g>
</svg>
