<?xml version="1.0" standalone="no"?>
<!DOCTYPE svg PUBLIC "-//W3C//DTD SVG 20010904//EN"
 "http://www.w3.org/TR/2001/REC-SVG-20010904/DTD/svg10.dtd">
<svg version="1.0" xmlns="http://www.w3.org/2000/svg"
 width="32.000000pt" height="32.000000pt" viewBox="0 0 32.000000 32.000000"
 preserveAspectRatio="xMidYMid meet">
<metadata>
Created by potrace 1.16, written by Peter Selinger 2001-2019
</metadata>
<g transform="translate(0.000000,32.000000) scale(0.100000,-0.100000)"
fill="#000000" stroke="none">
<path fill="#000000" stroke="none" d="M123 283 c0 -15 19 -12 24 3 2 6 -3 11
-10 11 -8 0 -14 -6 -14 -14z"/>
<path fill="#000000" stroke="none" d="M190 275 c-20 -21 -21 -25 -6 -25 10 0
14 -5 11 -11 -4 -6 2 -5 14 3 23 14 23 14 12 41 -6 16 -9 16 -31 -8z"/>
<path fill="#000000" stroke="none" d="M54 265 c-10 -24 12 -42 34 -29 24 16
21 38 -6 42 -13 2 -25 -3 -28 -13z"/>
<path fill="#000000" stroke="none" d="M245 230 c-8 -14 3 -30 21 -30 8 0 14
9 14 20 0 21 -24 28 -35 10z"/>
<path fill="#000000" stroke="none" d="M86 201 c-3 -5 1 -11 9 -14 9 -4 12 -1
8 9 -6 16 -10 17 -17 5z"/>
<path fill="#000000" stroke="none" d="M196 201 c-4 -5 -2 -12 3 -15 5 -4 12
-2 15 3 4 5 2 12 -3 15 -5 4 -12 2 -15 -3z"/>
<path fill="#000000" stroke="none" d="M34 176 c-8 -21 3 -36 27 -36 15 0 20
6 17 22 -4 27 -35 37 -44 14z"/>
<path fill="#000000" stroke="none" d="M145 180 c4 -6 1 -18 -7 -27 -11 -15
-11 -16 5 -10 9 3 17 2 17 -3 0 -6 -5 -10 -11 -10 -5 0 -7 -5 -3 -11 4 -8 11
-5 18 8 6 11 17 18 26 15 12 -4 13 -2 3 9 -6 8 -11 18 -10 23 1 5 -8 11 -21
13 -14 2 -21 -1 -17 -7z"/>
<path fill="#000000" stroke="none" d="M235 179 c-10 -15 1 -23 20 -15 9 3 13
10 10 16 -8 13 -22 13 -30 -1z"/>
<path fill="#000000" stroke="none" d="M95 140 c-3 -5 -1 -10 4 -10 6 0 11 5
11 10 0 6 -2 10 -4 10 -3 0 -8 -4 -11 -10z"/>
<path fill="#000000" stroke="none" d="M200 130 c-21 -7 -12 -15 12 -11 4 0 2
-10 -4 -24 -6 -14 -16 -25 -21 -25 -6 0 -8 -2 -5 -5 10 -10 59 18 54 31 -3 8
-1 16 4 19 6 4 10 3 10 -2 0 -4 14 -9 32 -10 29 -2 30 -1 12 11 -27 18 -65 25
-94 16z"/>
<path fill="#000000" stroke="none" d="M30 114 c0 -9 7 -14 17 -12 25 5 28 28
4 28 -12 0 -21 -6 -21 -16z"/>
<path fill="#000000" stroke="none" d="M74 96 c-12 -33 0 -51 35 -51 41 0 62
25 42 49 -17 20 -70 21 -77 2z"/>
<path fill="#000000" stroke="none" d="M255 91 c-3 -6 4 -15 15 -21 22 -12 23
-10 14 14 -7 18 -20 21 -29 7z"/>
</g>
</svg>
