<?xml version="1.0" standalone="no"?>
<!DOCTYPE svg PUBLIC "-//W3C//DTD SVG 20010904//EN"
 "http://www.w3.org/TR/2001/REC-SVG-20010904/DTD/svg10.dtd">
<svg version="1.0" xmlns="http://www.w3.org/2000/svg"
 width="32.000000pt" height="32.000000pt" viewBox="0 0 32.000000 32.000000"
 preserveAspectRatio="xMidYMid meet">
<metadata>
Created by potrace 1.16, written by Peter Selinger 2001-2019
</metadata>
<g transform="translate(0.000000,32.000000) scale(0.100000,-0.100000)"
fill="#000000" stroke="none">
<path fill="#000000" stroke="none" d="M175 310 c-4 -6 -17 -8 -29 -6 -13 2
-29 0 -36 -4 -8 -5 -22 -4 -33 2 -14 7 -23 6 -33 -4 -16 -16 -25 -76 -13 -84
5 -3 6 -11 2 -17 -10 -16 -12 -117 -3 -117 4 0 11 -10 15 -22 4 -13 8 -26 10
-30 1 -5 3 -10 4 -13 0 -3 9 -1 19 4 13 7 22 7 29 0 8 -8 13 -7 18 1 5 8 10 8
20 0 9 -7 16 -6 26 7 8 9 9 14 2 10 -6 -4 -15 -2 -19 5 -4 7 -4 10 0 6 5 -4
18 -3 31 2 17 7 25 5 29 -6 5 -12 9 -13 28 -2 13 7 27 11 32 10 5 -2 16 0 24
3 11 4 12 8 3 19 -9 10 -8 15 3 19 13 5 13 10 1 33 -9 19 -13 48 -10 90 4 58
3 63 -21 79 -14 9 -31 14 -37 12 -7 -2 -22 0 -34 4 -13 5 -25 4 -28 -1z"/>
</g>
</svg>
