<?xml version="1.0" standalone="no"?>
<!DOCTYPE svg PUBLIC "-//W3C//DTD SVG 20010904//EN"
 "http://www.w3.org/TR/2001/REC-SVG-20010904/DTD/svg10.dtd">
<svg version="1.0" xmlns="http://www.w3.org/2000/svg"
 width="32.000000pt" height="32.000000pt" viewBox="0 0 32.000000 32.000000"
 preserveAspectRatio="xMidYMid meet">
<metadata>
Created by potrace 1.16, written by Peter Selinger 2001-2019
</metadata>
<g transform="translate(0.000000,32.000000) scale(0.100000,-0.100000)"
fill="#000000" stroke="none">
<path fill="#000000" stroke="none" d="M0 160 l0 -160 160 0 160 0 0 160 0
160 -160 0 -160 0 0 -160z"/>
<path fill="#ffffff" stroke="none" d="M147 286 c-5 -15 -24 -18 -24 -3 0 8 6
14 14 14 7 0 12 -5 10 -11z"/>
<path fill="#ffffff" stroke="none" d="M215 290 c-4 -6 -1 -19 6 -28 7 -9 9
-14 5 -10 -5 4 -15 0 -23 -10 -12 -16 -13 -16 -7 1 5 14 2 16 -12 10 -15 -5
-14 -1 6 20 26 28 36 34 25 17z"/>
<path fill="#ffffff" stroke="none" d="M99 266 c9 -10 8 -16 -4 -26 -13 -11
-19 -11 -32 2 -16 17 -10 38 11 38 8 0 19 -6 25 -14z"/>
<path fill="#ffffff" stroke="none" d="M280 220 c0 -21 -24 -28 -35 -10 -8 14
3 30 21 30 8 0 14 -9 14 -20z"/>
<path fill="#ffffff" stroke="none" d="M110 190 c0 -5 -8 -7 -18 -5 -15 3 -18
-2 -14 -22 4 -21 1 -24 -19 -21 -37 5 -36 35 3 51 33 14 48 13 48 -3z"/>
<path fill="#ffffff" stroke="none" d="M214 189 c-3 -5 -10 -7 -15 -3 -5 3 -7
10 -3 15 3 5 10 7 15 3 5 -3 7 -10 3 -15z"/>
<path fill="#ffffff" stroke="none" d="M187 163 c10 -21 10 -23 -3 -13 -8 7
-14 8 -14 3 0 -5 -7 -10 -15 -10 -9 0 -14 5 -12 11 3 6 10 10 17 8 10 -2 11 0
2 11 -9 10 -9 14 1 14 7 0 18 -11 24 -24z"/>
<path fill="#ffffff" stroke="none" d="M265 180 c3 -6 -1 -13 -10 -16 -19 -8
-30 0 -20 15 8 14 22 14 30 1z"/>
<path fill="#ffffff" stroke="none" d="M110 140 c0 -5 -5 -10 -11 -10 -5 0 -7
5 -4 10 3 6 8 10 11 10 2 0 4 -4 4 -10z"/>
<path fill="#ffffff" stroke="none" d="M300 114 c12 -12 12 -14 -3 -14 -15 0
-16 -4 -7 -20 8 -16 8 -20 -4 -20 -8 0 -18 5 -22 11 -6 10 -30 7 -69 -8 -16
-6 -16 -5 -1 19 16 24 16 26 -1 33 -17 7 -17 8 2 16 26 11 86 1 105 -17z"/>
<path fill="#ffffff" stroke="none" d="M68 118 c-7 -19 -38 -22 -38 -4 0 10 9
16 21 16 12 0 19 -5 17 -12z"/>
<path fill="#ffffff" stroke="none" d="M160 120 c0 -5 -2 -10 -4 -10 -3 0 -8
5 -11 10 -3 6 -1 10 4 10 6 0 11 -4 11 -10z"/>
<path fill="#ffffff" stroke="none" d="M151 94 c20 -24 -1 -49 -42 -49 -35 0
-47 18 -35 51 7 19 60 18 77 -2z"/>
</g>
</svg>
