<?xml version="1.0" standalone="no"?>
<!DOCTYPE svg PUBLIC "-//W3C//DTD SVG 20010904//EN"
 "http://www.w3.org/TR/2001/REC-SVG-20010904/DTD/svg10.dtd">
<svg version="1.0" xmlns="http://www.w3.org/2000/svg"
 width="32.000000pt" height="32.000000pt" viewBox="0 0 32.000000 32.000000"
 preserveAspectRatio="xMidYMid meet">
<metadata>
Created by potrace 1.16, written by Peter Selinger 2001-2019
</metadata>
<g transform="translate(0.000000,32.000000) scale(0.100000,-0.100000)"
fill="#000000" stroke="none">
<path fill="#000000" stroke="none" d="M0 160 l0 -160 160 0 160 0 0 50 c0 40
-3 48 -15 44 -12 -5 -13 -10 -4 -20 9 -11 8 -15 -3 -19 -8 -3 -19 -5 -24 -3
-5 1 -19 -3 -32 -10 -19 -11 -23 -10 -28 2 -4 11 -12 13 -29 6 -13 -5 -26 -6
-31 -2 -4 4 -4 1 0 -6 4 -7 13 -9 19 -5 7 4 6 -1 -2 -10 -10 -13 -17 -14 -26
-7 -10 8 -15 8 -20 0 -5 -8 -10 -9 -18 -1 -7 7 -16 7 -29 0 -10 -5 -19 -7 -19
-4 -1 3 -3 8 -4 13 -2 4 -6 17 -10 30 -4 12 -11 22 -15 22 -9 0 -7 101 3 117
4 6 3 14 -2 17 -12 8 -3 68 13 84 10 10 19 11 33 4 11 -6 25 -7 33 -2 7 4 23
6 36 4 12 -2 26 0 29 6 4 6 -26 10 -84 10 l-91 0 0 -160z"/>
<path fill="#000000" stroke="none" d="M205 311 c11 -5 25 -6 32 -4 7 3 22 -2
35 -11 20 -15 23 -25 23 -91 0 -46 5 -79 13 -86 10 -10 12 8 12 94 l0 107 -67
-1 c-44 0 -61 -3 -48 -8z"/>
</g>
</svg>
