<?xml version="1.0" standalone="no"?>
<!DOCTYPE svg PUBLIC "-//W3C//DTD SVG 20010904//EN"
 "http://www.w3.org/TR/2001/REC-SVG-20010904/DTD/svg10.dtd">
<svg version="1.0" xmlns="http://www.w3.org/2000/svg"
 width="32.000000pt" height="32.000000pt" viewBox="0 0 32.000000 32.000000"
 preserveAspectRatio="xMidYMid meet">
<metadata>
Created by potrace 1.16, written by Peter Selinger 2001-2019
</metadata>
<g transform="translate(0.000000,32.000000) scale(0.100000,-0.100000)"
fill="#000000" stroke="none">
<path fill="#000000" stroke="none" d="M0 160 l0 -160 160 0 160 0 0 160 0
160 -160 0 -160 0 0 -160z"/>
<path fill="#ffffff" stroke="none" d="M174 295 c-4 -8 -10 -15 -14 -15 -5 0
-15 -2 -23 -5 -8 -4 -14 0 -14 9 0 8 8 13 18 11 10 -2 21 0 24 6 9 14 15 11 9
-6z"/>
<path fill="#ffffff" stroke="none" d="M260 300 c0 -5 -2 -10 -4 -10 -3 0 -8
5 -11 10 -3 6 -1 10 4 10 6 0 11 -4 11 -10z"/>
<path fill="#ffffff" stroke="none" d="M229 273 c10 -20 8 -24 -20 -38 -17 -9
-33 -14 -37 -11 -3 3 0 6 8 6 10 0 10 3 0 15 -10 12 -8 18 11 34 13 11 25 19
25 18 1 -1 6 -12 13 -24z"/>
<path fill="#ffffff" stroke="none" d="M102 247 c-12 -15 3 -59 20 -56 30 4
55 -2 74 -17 10 -8 13 -12 5 -8 -10 5 -13 3 -8 -8 3 -10 -1 -18 -12 -21 -12
-3 -18 -15 -19 -41 -2 -50 -7 -56 -48 -56 -27 0 -37 5 -43 23 -13 34 -2 47 38
47 27 0 38 4 38 15 0 8 -4 15 -9 15 -4 0 -8 7 -8 16 0 8 4 12 10 9 6 -3 7 1 4
9 -8 20 -9 20 -27 1 -13 -12 -17 -12 -32 5 -11 12 -13 20 -7 20 7 0 12 7 12
16 0 8 -5 12 -11 9 -6 -4 -17 1 -25 11 -9 11 -12 13 -8 5 5 -10 3 -12 -5 -7
-15 10 3 34 34 46 23 9 42 -14 27 -33z"/>
<path fill="#ffffff" stroke="none" d="M277 204 c-3 -3 -17 -2 -32 2 l-27 7
29 18 c28 19 28 19 31 -2 2 -11 2 -23 -1 -25z"/>
<path fill="#ffffff" stroke="none" d="M235 194 c6 -1 21 -6 34 -11 l25 -10
-29 -7 c-19 -5 -31 -3 -36 6 -5 7 -13 14 -19 14 -5 1 -16 2 -22 3 -9 1 -9 4 2
10 8 6 19 7 25 3 5 -3 15 -7 20 -8z"/>
<path fill="#ffffff" stroke="none" d="M78 162 c3 -17 -2 -22 -17 -22 -24 0
-48 36 -28 44 23 9 42 1 45 -22z"/>
<path fill="#ffffff" stroke="none" d="M126 132 c1 -7 0 -8 -3 -2 -3 6 -12 6
-26 -2 -20 -10 -21 -10 -8 6 15 18 33 17 37 -2z"/>
<path fill="#ffffff" stroke="none" d="M270 130 c9 0 23 -7 30 -15 10 -12 9
-15 -4 -15 -14 0 -15 -4 -6 -20 13 -23 -7 -28 -29 -7 -9 7 -11 7 -8 1 9 -15
-16 -25 -33 -14 -8 5 -22 4 -31 -1 -14 -7 -16 -5 -12 11 3 11 9 18 13 15 4 -3
10 1 13 9 3 8 -2 17 -11 21 -13 6 -9 10 18 20 19 7 37 8 38 4 2 -5 12 -9 22
-9z"/>
<path fill="#ffffff" stroke="none" d="M68 118 c-2 -6 -13 -17 -25 -25 -19
-13 -20 -12 -18 9 3 30 2 28 26 28 11 0 19 -5 17 -12z"/>
<path fill="#ffffff" stroke="none" d="M57 65 c0 -8 -4 -12 -9 -9 -5 3 -6 10
-3 15 9 13 12 11 12 -6z"/>
</g>
</svg>
