<?xml version="1.0" standalone="no"?>
<!DOCTYPE svg PUBLIC "-//W3C//DTD SVG 20010904//EN"
 "http://www.w3.org/TR/2001/REC-SVG-20010904/DTD/svg10.dtd">
<svg version="1.0" xmlns="http://www.w3.org/2000/svg"
 width="32.000000pt" height="32.000000pt" viewBox="0 0 32.000000 32.000000"
 preserveAspectRatio="xMidYMid meet">
<metadata>
Created by potrace 1.16, written by Peter Selinger 2001-2019
</metadata>
<g transform="translate(0.000000,32.000000) scale(0.100000,-0.100000)"
fill="#000000" stroke="none">
<path fill="#000000" stroke="none" d="M40 312 c0 -5 7 -9 15 -9 8 0 12 4 9 9
-3 4 -9 8 -15 8 -5 0 -9 -4 -9 -8z"/>
<path fill="#000000" stroke="none" d="M80 310 c0 -5 7 -10 16 -10 8 0 12 5 9
10 -3 6 -10 10 -16 10 -5 0 -9 -4 -9 -10z"/>
<path fill="#000000" stroke="none" d="M206 312 c-2 -4 4 -9 15 -9 11 -1 17 2
14 8 -7 11 -22 12 -29 1z"/>
<path fill="#000000" stroke="none" d="M271 311 c-11 -7 -9 -10 8 -16 25 -8
36 -2 26 14 -8 13 -15 14 -34 2z"/>
<path fill="#000000" stroke="none" d="M10 300 c0 -5 5 -10 10 -10 6 0 10 5
10 10 0 6 -4 10 -10 10 -5 0 -10 -4 -10 -10z"/>
<path fill="#000000" stroke="none" d="M129 308 c-7 -24 -5 -38 4 -35 15 5 22
37 8 37 -6 0 -11 -1 -12 -2z"/>
<path fill="#000000" stroke="none" d="M0 276 c0 -2 7 -6 15 -10 8 -3 15 -1
15 4 0 6 -7 10 -15 10 -8 0 -15 -2 -15 -4z"/>
<path fill="#000000" stroke="none" d="M60 265 c-10 -12 -9 -16 5 -21 19 -8
40 9 31 25 -10 15 -21 14 -36 -4z"/>
<path fill="#ffffff" stroke="none" d="M85 260 c-3 -5 -12 -10 -18 -10 -7 0
-6 4 3 10 19 12 23 12 15 0z"/>
<path fill="#000000" stroke="none" d="M290 271 c0 -5 5 -13 10 -16 6 -3 10
-2 10 4 0 5 -4 13 -10 16 -5 3 -10 2 -10 -4z"/>
<path fill="#000000" stroke="none" d="M0 250 c0 -5 5 -10 11 -10 5 0 7 5 4
10 -3 6 -8 10 -11 10 -2 0 -4 -4 -4 -10z"/>
<path fill="#000000" stroke="none" d="M245 230 c-8 -14 3 -30 21 -30 8 0 14
9 14 20 0 21 -24 28 -35 10z"/>
<path fill="#000000" stroke="none" d="M290 230 c0 -5 5 -10 11 -10 5 0 7 5 4
10 -3 6 -8 10 -11 10 -2 0 -4 -4 -4 -10z"/>
<path fill="#000000" stroke="none" d="M8 205 c-3 -16 -1 -25 7 -25 7 0 13 11
13 25 0 32 -14 32 -20 0z"/>
<path fill="#000000" stroke="none" d="M87 203 c-4 -6 -1 -17 6 -26 11 -13 14
-13 32 5 18 17 18 19 1 12 -11 -4 -21 -2 -26 6 -4 7 -10 8 -13 3z"/>
<path fill="#000000" stroke="none" d="M196 201 c-4 -5 -2 -12 3 -15 5 -4 12
-2 15 3 4 5 2 12 -3 15 -5 4 -12 2 -15 -3z"/>
<path fill="#000000" stroke="none" d="M296 195 c-3 -8 -1 -15 4 -15 13 0 22
18 11 24 -5 3 -11 -1 -15 -9z"/>
<path fill="#000000" stroke="none" d="M34 176 c-8 -21 3 -36 27 -36 15 0 20
6 17 22 -4 27 -35 37 -44 14z"/>
<path fill="#000000" stroke="none" d="M235 179 c-10 -15 1 -23 20 -15 9 3 13
10 10 16 -8 13 -22 13 -30 -1z"/>
<path fill="#000000" stroke="none" d="M5 161 c-5 -9 -2 -17 9 -23 20 -11 22
-40 1 -32 -17 7 -20 -13 -5 -36 7 -12 12 -12 22 -2 9 9 8 12 -7 13 -15 0 -11
5 12 15 36 15 44 34 15 34 -11 0 -23 10 -29 22 -7 16 -11 19 -18 9z"/>
<path fill="#000000" stroke="none" d="M290 161 c0 -5 5 -13 10 -16 6 -3 10
-2 10 4 0 5 -4 13 -10 16 -5 3 -10 2 -10 -4z"/>
<path fill="#000000" stroke="none" d="M89 134 c-13 -16 -12 -16 8 -6 14 8 23
8 26 2 3 -6 4 -5 3 2 -4 19 -22 20 -37 2z"/>
<path fill="#000000" stroke="none" d="M145 131 c-3 -5 -1 -12 5 -16 5 -3 10
1 10 9 0 18 -6 21 -15 7z"/>
<path fill="#000000" stroke="none" d="M200 130 c-21 -7 -12 -15 12 -11 4 0 2
-10 -4 -24 -6 -14 -15 -25 -19 -25 -4 0 -6 -9 -4 -20 4 -21 -9 -27 -20 -10 -4
6 -15 2 -27 -10 -24 -22 -38 -26 -38 -9 0 6 -9 8 -21 4 -14 -5 -25 -1 -34 11
-11 15 -15 16 -28 5 -22 -17 -11 -44 13 -31 9 5 19 7 21 5 10 -9 68 -14 73 -6
3 4 23 7 45 6 42 -2 61 16 41 40 -8 10 -6 15 10 20 13 4 19 12 16 21 -3 7 -1
16 4 19 6 4 10 1 10 -5 0 -6 4 -8 10 -5 11 7 38 -5 39 -17 2 -13 16 -9 16 5 0
25 -74 49 -115 37z"/>
<path fill="#000000" stroke="none" d="M82 98 c-17 -17 -15 -45 3 -52 21 -8
65 10 65 27 0 18 -21 37 -40 37 -9 0 -21 -5 -28 -12z"/>
<path fill="#ffffff" stroke="none" d="M104 88 c-5 -8 -2 -9 9 -5 9 3 19 1 23
-5 4 -7 3 -8 -4 -4 -7 4 -12 2 -12 -5 0 -8 -3 -9 -13 0 -8 6 -18 7 -23 3 -4
-4 -2 1 5 11 15 19 26 23 15 5z"/>
<path fill="#000000" stroke="none" d="M255 91 c-3 -6 4 -15 15 -21 22 -12 23
-10 14 14 -7 18 -20 21 -29 7z"/>
<path fill="#000000" stroke="none" d="M250 41 c0 -16 30 -33 46 -27 13 5 14
9 4 21 -13 16 -50 21 -50 6z"/>
<path fill="#000000" stroke="none" d="M225 29 c-10 -15 3 -25 16 -12 7 7 7
13 1 17 -6 3 -14 1 -17 -5z"/>
</g>
</svg>
