<?xml version="1.0" standalone="no"?>
<!DOCTYPE svg PUBLIC "-//W3C//DTD SVG 20010904//EN"
 "http://www.w3.org/TR/2001/REC-SVG-20010904/DTD/svg10.dtd">
<svg version="1.0" xmlns="http://www.w3.org/2000/svg"
 width="32.000000pt" height="32.000000pt" viewBox="0 0 32.000000 32.000000"
 preserveAspectRatio="xMidYMid meet">
<metadata>
Created by potrace 1.16, written by Peter Selinger 2001-2019
</metadata>
<g transform="translate(0.000000,32.000000) scale(0.100000,-0.100000)"
fill="#000000" stroke="none">
<path fill="#000000" stroke="none" d="M1 186 c1 -125 2 -133 20 -129 10 3 24
12 31 21 11 13 10 14 -7 8 -16 -5 -21 -1 -22 16 -2 16 0 19 6 9 5 -8 18 -11
32 -7 13 3 18 3 11 0 -6 -3 -10 -10 -6 -15 12 -20 -6 -45 -34 -44 -21 0 -28
-5 -30 -23 -3 -22 -3 -22 145 -22 147 0 173 5 173 35 0 7 -6 12 -12 13 -7 0
-29 3 -48 6 -19 2 -42 5 -50 6 -8 1 -3 6 11 11 19 7 34 5 54 -5 16 -8 32 -13
37 -10 16 10 8 53 -12 64 -11 6 -19 14 -18 18 1 4 -3 17 -10 30 -10 18 -10 22
0 20 6 -2 12 2 13 9 0 6 3 15 7 19 7 6 5 -9 -3 -41 -1 -5 1 -18 5 -28 17 -38
26 -12 26 78 l0 95 -160 0 -161 0 2 -134z"/>
<path fill="#ffffff" stroke="none" d="M55 273 c-13 -24 -13 -29 0 -36 8 -4
21 -7 27 -5 7 1 22 -3 34 -9 19 -11 21 -10 17 10 -2 13 6 34 20 51 20 25 25
27 30 12 5 -11 3 -15 -5 -10 -7 5 -9 2 -5 -9 4 -10 2 -14 -7 -11 -9 3 -12 -5
-11 -28 1 -18 6 -33 12 -33 6 0 15 -3 19 -8 7 -7 -9 -11 -35 -8 -8 2 -10 -2
-5 -10 4 -8 3 -10 -5 -5 -6 4 -8 12 -5 18 5 7 1 9 -9 5 -10 -3 -17 -2 -17 3 0
5 -18 15 -40 21 -36 11 -39 15 -34 38 10 45 14 52 23 46 6 -3 4 -16 -4 -32z"/>
<path fill="#ffffff" stroke="none" d="M260 300 c0 -5 -9 -14 -20 -20 -22 -12
-27 -1 -8 18 14 14 28 16 28 2z"/>
<path fill="#ffffff" stroke="none" d="M123 272 c-4 -10 -9 -10 -22 0 -9 7
-17 13 -19 14 -2 1 8 1 21 0 15 0 23 -6 20 -14z"/>
<path fill="#ffffff" stroke="none" d="M291 262 c6 -15 5 -21 -4 -19 -16 3
-36 30 -30 40 8 13 25 3 34 -21z"/>
<path fill="#ffffff" stroke="none" d="M251 245 c-1 -6 -15 -10 -31 -10 -17 1
-30 -3 -30 -7 0 -4 -4 -8 -10 -8 -5 0 -7 7 -3 16 3 8 11 13 18 10 6 -2 18 0
26 5 17 10 31 7 30 -6z"/>
<path fill="#ffffff" stroke="none" d="M246 191 c-4 -6 -13 -11 -21 -11 -7 0
-15 -7 -17 -15 -2 -10 -7 -12 -17 -5 -12 7 -10 11 12 21 31 14 36 29 10 29
-15 0 -16 2 -3 10 18 11 46 -12 36 -29z"/>
<path fill="#ffffff" stroke="none" d="M66 192 c-4 -3 -14 2 -24 12 -16 18
-16 18 6 6 13 -6 21 -14 18 -18z"/>
<path fill="#ffffff" stroke="none" d="M33 174 c-4 -11 1 -22 12 -30 10 -8 14
-14 8 -14 -17 0 -36 28 -29 45 3 8 8 15 10 15 3 0 3 -7 -1 -16z"/>
<path fill="#ffffff" stroke="none" d="M105 152 c-3 -3 -11 0 -18 7 -9 10 -8
11 6 5 10 -3 15 -9 12 -12z"/>
<path fill="#ffffff" stroke="none" d="M269 144 c2 -2 2 -6 0 -9 -8 -7 -49 7
-49 17 0 8 38 2 49 -8z"/>
<path fill="#ffffff" stroke="none" d="M120 136 c0 -2 -8 -10 -17 -17 -16 -13
-17 -12 -4 4 13 16 21 21 21 13z"/>
<path fill="#ffffff" stroke="none" d="M162 117 c10 8 18 8 32 -3 11 -8 15
-14 10 -14 -6 0 -15 5 -22 12 -9 9 -12 8 -12 -5 0 -9 -3 -17 -7 -17 -15 1 -43
27 -36 34 4 3 10 1 14 -6 6 -9 11 -9 21 -1z"/>
<path fill="#ffffff" stroke="none" d="M190 55 c0 -1 -11 -5 -25 -7 -20 -4
-23 -2 -14 8 8 10 39 10 39 -1z"/>
<path fill="#ffffff" stroke="none" d="M121 17 c-10 -9 -11 -8 -5 6 3 10 9 15
12 12 3 -3 0 -11 -7 -18z"/>
</g>
</svg>
