<?xml version="1.0" standalone="no"?>
<!DOCTYPE svg PUBLIC "-//W3C//DTD SVG 20010904//EN"
 "http://www.w3.org/TR/2001/REC-SVG-20010904/DTD/svg10.dtd">
<svg version="1.0" xmlns="http://www.w3.org/2000/svg"
 width="32.000000pt" height="32.000000pt" viewBox="0 0 32.000000 32.000000"
 preserveAspectRatio="xMidYMid meet">
<metadata>
Created by potrace 1.16, written by Peter Selinger 2001-2019
</metadata>
<g transform="translate(0.000000,32.000000) scale(0.100000,-0.100000)"
fill="#000000" stroke="none">
<path fill="#000000" stroke="none" d="M20 311 c-17 -5 -21 -9 -13 -14 7 -5
21 -3 31 2 11 6 22 7 26 4 3 -3 6 -1 6 5 0 13 -12 14 -50 3z"/>
<path fill="#000000" stroke="none" d="M80 310 c0 -9 31 -15 54 -11 5 1 5 -4
-1 -11 -16 -20 -22 -66 -9 -71 7 -3 11 5 11 17 0 11 5 22 10 23 6 0 9 -3 8 -8
-2 -5 8 -4 21 1 23 8 24 7 22 -21 -2 -32 -22 -52 -41 -42 -5 4 1 -6 14 -20 17
-19 20 -27 10 -27 -9 -1 -7 -7 8 -19 19 -16 20 -21 9 -37 -14 -20 -16 -25 -16
-46 0 -9 -4 -8 -10 2 -9 13 -11 13 -20 0 -5 -8 -10 -10 -10 -5 0 6 12 23 27
40 18 18 21 26 10 22 -9 -3 -29 0 -43 8 -19 10 -33 11 -46 4 -20 -11 -25 -54
-7 -65 8 -4 8 -9 0 -17 -7 -7 -16 -5 -30 7 -24 21 -54 14 -49 -11 3 -16 17
-18 118 -19 63 0 119 2 125 5 5 3 22 4 37 2 34 -3 36 12 6 33 -15 11 -25 12
-34 5 -9 -7 -20 -7 -35 2 l-23 12 24 9 c16 6 32 5 47 -3 27 -15 55 -5 51 18
-4 23 -25 39 -65 47 -17 4 -34 15 -36 24 -3 11 -5 8 -6 -7 -1 -24 -1 -24 -16
-5 -20 26 -19 31 10 38 22 6 38 28 18 25 -20 -3 -26 2 -13 11 9 6 11 10 3 10
-7 0 -10 7 -7 15 4 8 11 12 18 8 6 -4 4 1 -4 11 -13 16 -12 20 3 31 12 9 14
15 7 20 -6 4 -17 2 -24 -4 -7 -6 -15 -8 -19 -5 -3 3 -8 -4 -12 -15 -7 -24 -25
-28 -25 -6 0 8 5 15 10 15 6 0 10 4 10 10 0 6 -9 6 -25 0 -15 -6 -26 -6 -30 0
-8 13 -35 13 -35 0z"/>
<path fill="#ffffff" stroke="none" d="M206 282 c0 -10 -8 -18 -18 -18 -22 0
-22 1 -2 20 19 20 20 20 20 -2z"/>
<path fill="#ffffff" stroke="none" d="M128 29 c-5 -14 -21 -14 -26 0 -2 6 4
11 13 11 9 0 15 -5 13 -11z"/>
<path fill="#000000" stroke="none" d="M272 313 c-18 -7 -4 -23 19 -23 12 0
19 5 17 12 -5 14 -18 18 -36 11z"/>
<path fill="#000000" stroke="none" d="M3 260 c-1 -11 2 -20 7 -20 6 0 5 -11
0 -26 -13 -33 -13 -34 5 -34 10 0 15 7 13 18 -2 11 3 17 15 16 9 -1 17 2 17 7
0 5 -6 9 -14 9 -7 0 -19 7 -26 15 -15 18 1 20 18 3 7 -7 12 -8 12 -4 0 5 6 3
14 -3 15 -13 49 -4 43 12 -2 6 -11 15 -21 21 -13 9 -20 7 -31 -8 -13 -17 -15
-17 -21 -3 -9 23 -29 21 -31 -3z"/>
<path fill="#000000" stroke="none" d="M237 269 c7 -7 15 -10 18 -7 3 3 -2 9
-12 12 -14 6 -15 5 -6 -5z"/>
<path fill="#000000" stroke="none" d="M290 265 c0 -8 5 -15 10 -15 6 0 10 7
10 15 0 8 -4 15 -10 15 -5 0 -10 -7 -10 -15z"/>
<path fill="#000000" stroke="none" d="M245 221 c2 -14 -2 -32 -8 -39 -8 -10
-7 -16 4 -23 22 -14 28 -11 24 11 -2 11 0 22 6 25 16 11 10 42 -10 48 -16 4
-18 0 -16 -22z"/>
<path fill="#000000" stroke="none" d="M290 230 c0 -5 5 -10 10 -10 6 0 10 5
10 10 0 6 -4 10 -10 10 -5 0 -10 -4 -10 -10z"/>
<path fill="#000000" stroke="none" d="M85 210 c3 -6 1 -10 -5 -10 -6 0 -9 -4
-6 -8 3 -5 -5 -8 -17 -8 -31 1 -31 -38 1 -42 14 -2 22 2 22 11 0 10 7 13 19
10 13 -3 23 2 31 18 11 19 10 21 -4 16 -9 -4 -16 -2 -16 2 0 5 -7 12 -16 15
-8 3 -12 2 -9 -4z"/>
<path fill="#000000" stroke="none" d="M294 194 c2 -10 8 -20 15 -22 8 -3 12
3 9 14 -4 23 -27 31 -24 8z"/>
<path fill="#000000" stroke="none" d="M5 160 c-4 -6 -2 -17 4 -23 15 -15 25
-2 13 19 -7 12 -11 13 -17 4z"/>
<path fill="#000000" stroke="none" d="M113 157 c-23 -12 -39 -37 -24 -37 5 0
14 7 21 15 7 8 17 15 23 15 6 0 2 -7 -9 -16 -15 -12 -16 -15 -2 -10 9 3 18 0
20 -6 3 -7 10 -8 17 -4 9 6 9 11 -1 24 -11 13 -11 14 1 8 9 -6 12 -4 9 5 -6
18 -27 20 -55 6z"/>
<path fill="#000000" stroke="none" d="M283 156 c0 -8 4 -13 8 -10 4 2 10 -2
13 -8 3 -7 5 -4 3 6 -2 23 -24 33 -24 12z"/>
<path fill="#000000" stroke="none" d="M30 114 c0 -9 7 -14 17 -12 25 5 28 28
4 28 -12 0 -21 -6 -21 -16z"/>
<path fill="#000000" stroke="none" d="M4 107 c-8 -21 -3 -29 13 -19 8 5 9 13
3 22 -7 12 -10 12 -16 -3z"/>
<path fill="#000000" stroke="none" d="M35 83 c-30 -7 -43 -23 -18 -23 11 0
26 7 33 15 7 8 11 14 9 14 -2 -1 -13 -3 -24 -6z"/>
<path fill="#000000" stroke="none" d="M60 40 c0 -5 5 -10 11 -10 5 0 7 5 4
10 -3 6 -8 10 -11 10 -2 0 -4 -4 -4 -10z"/>
</g>
</svg>
