<?xml version="1.0" standalone="no"?>
<!DOCTYPE svg PUBLIC "-//W3C//DTD SVG 20010904//EN"
 "http://www.w3.org/TR/2001/REC-SVG-20010904/DTD/svg10.dtd">
<svg version="1.0" xmlns="http://www.w3.org/2000/svg"
 width="32.000000pt" height="32.000000pt" viewBox="0 0 32.000000 32.000000"
 preserveAspectRatio="xMidYMid meet">
<metadata>
Created by potrace 1.16, written by Peter Selinger 2001-2019
</metadata>
<g transform="translate(0.000000,32.000000) scale(0.100000,-0.100000)"
fill="#000000" stroke="none">
<path fill="#000000" stroke="none" d="M0 160 l0 -160 160 0 160 0 0 160 0
160 -160 0 -160 0 0 -160z"/>
<path fill="#ffffff" stroke="none" d="M186 140 c19 0 18 -17 -3 -29 -10 -6
-12 -11 -6 -11 7 0 18 8 24 18 12 19 53 19 65 1 9 -15 13 -49 6 -47 -4 1 -29
-2 -57 -7 -102 -17 -165 -8 -165 25 0 36 60 58 79 29 6 -11 17 -19 24 -19 6 0
4 5 -5 11 -22 12 -23 29 -3 29 9 0 16 10 16 28 l2 27 4 -27 c2 -16 11 -28 19
-28z"/>
</g>
</svg>
