<?xml version="1.0" standalone="no"?>
<!DOCTYPE svg PUBLIC "-//W3C//DTD SVG 20010904//EN"
 "http://www.w3.org/TR/2001/REC-SVG-20010904/DTD/svg10.dtd">
<svg version="1.0" xmlns="http://www.w3.org/2000/svg"
 width="32.000000pt" height="32.000000pt" viewBox="0 0 32.000000 32.000000"
 preserveAspectRatio="xMidYMid meet">
<metadata>
Created by potrace 1.16, written by Peter Selinger 2001-2019
</metadata>
<g transform="translate(0.000000,32.000000) scale(0.100000,-0.100000)"
fill="#000000" stroke="none">
<path fill="#000000" stroke="none" d="M146 297 c3 -10 9 -15 12 -12 3 3 0 11
-7 18 -10 9 -11 8 -5 -6z"/>
<path fill="#000000" stroke="none" d="M90 285 c-7 -9 -10 -18 -6 -22 3 -3 6
-1 6 6 0 7 5 9 10 6 6 -3 10 -1 10 5 0 6 5 8 12 4 7 -4 8 -3 4 4 -10 16 -21
15 -36 -3z"/>
<path fill="#000000" stroke="none" d="M204 288 c-4 -7 -3 -8 4 -4 7 4 12 2
12 -4 0 -6 5 -8 10 -5 6 3 10 1 10 -6 0 -7 3 -9 6 -6 8 7 -14 37 -27 37 -4 0
-11 -5 -15 -12z"/>
<path fill="#000000" stroke="none" d="M161 174 c-1 -18 -9 -23 -46 -28 -24
-4 -47 -11 -50 -17 -4 -5 -11 -9 -18 -9 -18 0 26 29 46 30 18 0 24 20 6 20 -7
0 -27 -10 -46 -21 -32 -20 -34 -25 -30 -61 5 -44 3 -41 37 -58 24 -13 24 -12
10 5 -14 17 -14 18 8 6 12 -6 22 -8 22 -4 0 4 7 -2 16 -13 8 -10 13 -13 9 -7
-4 8 0 13 10 13 10 0 13 -5 9 -12 -6 -10 -4 -10 7 -2 8 5 29 10 46 10 49 -1
108 42 108 79 0 22 -8 33 -33 48 -25 15 -36 17 -45 8 -8 -8 -6 -11 8 -11 11 0
29 -7 39 -15 11 -8 15 -15 9 -15 -7 0 -14 4 -18 9 -3 6 -25 13 -50 16 -34 6
-45 12 -48 29 l-4 21 -2 -21z"/>
</g>
</svg>
