<?xml version="1.0" standalone="no"?>
<!DOCTYPE svg PUBLIC "-//W3C//DTD SVG 20010904//EN"
 "http://www.w3.org/TR/2001/REC-SVG-20010904/DTD/svg10.dtd">
<svg version="1.0" xmlns="http://www.w3.org/2000/svg"
 width="32.000000pt" height="32.000000pt" viewBox="0 0 32.000000 32.000000"
 preserveAspectRatio="xMidYMid meet">
<metadata>
Created by potrace 1.16, written by Peter Selinger 2001-2019
</metadata>
<g transform="translate(0.000000,32.000000) scale(0.100000,-0.100000)"
fill="#000000" stroke="none">
<path fill="#000000" stroke="none" d="M161 168 c0 -18 -7 -28 -16 -28 -20 0
-19 -17 3 -29 9 -6 11 -11 5 -11 -7 0 -18 8 -24 18 -12 19 -53 19 -65 1 -9
-15 -13 -49 -6 -47 4 1 30 -2 57 -7 96 -16 165 -6 165 24 0 37 -60 60 -79 30
-6 -11 -17 -19 -24 -19 -6 0 -4 5 6 11 21 12 22 29 3 29 -8 0 -17 12 -19 28
l-4 27 -2 -27z"/>
</g>
</svg>
