<?xml version="1.0" standalone="no"?>
<!DOCTYPE svg PUBLIC "-//W3C//DTD SVG 20010904//EN"
 "http://www.w3.org/TR/2001/REC-SVG-20010904/DTD/svg10.dtd">
<svg version="1.0" xmlns="http://www.w3.org/2000/svg"
 width="32.000000pt" height="32.000000pt" viewBox="0 0 32.000000 32.000000"
 preserveAspectRatio="xMidYMid meet">
<metadata>
Created by potrace 1.16, written by Peter Selinger 2001-2019
</metadata>
<g transform="translate(0.000000,32.000000) scale(0.100000,-0.100000)"
fill="#000000" stroke="none">
<path fill="#000000" stroke="none" d="M230 275 c7 -8 10 -23 8 -33 -5 -18 15
-45 26 -35 12 13 5 50 -12 66 -23 21 -39 22 -22 2z"/>
<path fill="#000000" stroke="none" d="M15 200 c-7 -11 18 -24 35 -18 6 2 1 9
-9 15 -13 8 -22 9 -26 3z"/>
<path fill="#000000" stroke="none" d="M283 173 c-13 -14 -18 -25 -11 -29 13
-8 41 20 36 37 -2 10 -9 8 -25 -8z"/>
<path fill="#000000" stroke="none" d="M50 160 c-12 -7 -12 -10 -1 -10 8 0 11
-6 7 -17 -6 -15 -5 -16 11 -1 10 8 27 20 38 26 18 10 17 11 -10 12 -16 0 -37
-5 -45 -10z"/>
<path fill="#000000" stroke="none" d="M209 122 c7 -12 9 -27 6 -32 -3 -5 -1
-11 5 -15 22 -14 22 27 0 48 l-22 22 11 -23z"/>
<path fill="#000000" stroke="none" d="M246 122 c-8 -14 21 -35 39 -28 18 6
20 22 3 32 -7 4 -8 3 -4 -4 9 -15 -6 -16 -21 -1 -7 7 -13 7 -17 1z"/>
<path fill="#000000" stroke="none" d="M105 61 c-25 -13 -27 -16 -11 -19 10
-2 25 3 34 12 22 22 12 25 -23 7z"/>
</g>
</svg>
