<?xml version="1.0" standalone="no"?>
<!DOCTYPE svg PUBLIC "-//W3C//DTD SVG 20010904//EN"
 "http://www.w3.org/TR/2001/REC-SVG-20010904/DTD/svg10.dtd">
<svg version="1.0" xmlns="http://www.w3.org/2000/svg"
 width="32.000000pt" height="32.000000pt" viewBox="0 0 32.000000 32.000000"
 preserveAspectRatio="xMidYMid meet">
<metadata>
Created by potrace 1.16, written by Peter Selinger 2001-2019
</metadata>
<g transform="translate(0.000000,32.000000) scale(0.100000,-0.100000)"
fill="#000000" stroke="none">
<path fill="#000000" stroke="none" d="M0 160 l0 -160 160 0 160 0 0 160 0
160 -160 0 -160 0 0 -160z"/>
<path fill="#ffffff" stroke="none" d="M43 83 c-6 -16 -5 -17 13 -3 12 9 11 5
-5 -13 -32 -36 -45 -34 -26 3 17 33 28 41 18 13z"/>
<path fill="#ffffff" stroke="none" d="M99 68 c-11 -21 -11 -22 5 -9 27 23 28
7 1 -19 -21 -20 -25 -21 -25 -6 0 18 17 56 26 56 2 0 -1 -10 -7 -22z"/>
</g>
</svg>
