<?xml version="1.0" standalone="no"?>
<!DOCTYPE svg PUBLIC "-//W3C//DTD SVG 20010904//EN"
 "http://www.w3.org/TR/2001/REC-SVG-20010904/DTD/svg10.dtd">
<svg version="1.0" xmlns="http://www.w3.org/2000/svg"
 width="32.000000pt" height="32.000000pt" viewBox="0 0 32.000000 32.000000"
 preserveAspectRatio="xMidYMid meet">
<metadata>
Created by potrace 1.16, written by Peter Selinger 2001-2019
</metadata>
<g transform="translate(0.000000,32.000000) scale(0.100000,-0.100000)"
fill="#000000" stroke="none">
<path fill="#000000" stroke="none" d="M47 135 c-46 -54 -35 -59 19 -9 21 20
31 31 22 24 -20 -14 -24 0 -6 18 7 7 10 12 7 12 -3 0 -22 -20 -42 -45z"/>
<path fill="#000000" stroke="none" d="M238 168 c18 -18 14 -32 -5 -18 -10 7
0 -4 21 -24 54 -50 65 -45 19 9 -20 25 -39 45 -42 45 -3 0 0 -5 7 -12z"/>
</g>
</svg>
