<?xml version="1.0" standalone="no"?>
<!DOCTYPE svg PUBLIC "-//W3C//DTD SVG 20010904//EN"
 "http://www.w3.org/TR/2001/REC-SVG-20010904/DTD/svg10.dtd">
<svg version="1.0" xmlns="http://www.w3.org/2000/svg"
 width="32.000000pt" height="32.000000pt" viewBox="0 0 32.000000 32.000000"
 preserveAspectRatio="xMidYMid meet">
<metadata>
Created by potrace 1.16, written by Peter Selinger 2001-2019
</metadata>
<g transform="translate(0.000000,32.000000) scale(0.100000,-0.100000)"
fill="#000000" stroke="none">
<path fill="#000000" stroke="none" d="M65 271 c-3 -5 -2 -12 3 -15 5 -3 9 1
9 9 0 17 -3 19 -12 6z"/>
<path fill="#000000" stroke="none" d="M27 237 c-7 -18 8 -33 18 -17 4 6 11 8
16 4 6 -3 3 -12 -8 -20 -10 -7 -14 -14 -9 -14 5 0 3 -6 -3 -14 -8 -10 -8 -16
3 -25 10 -8 16 -9 21 -1 3 5 3 10 -1 10 -3 0 0 8 7 17 8 10 9 14 2 10 -6 -4
-14 -3 -18 3 -3 5 -1 11 4 11 6 1 15 2 20 3 5 0 13 5 18 9 4 5 1 7 -7 5 -8 -2
-14 3 -12 10 1 8 -2 11 -8 7 -5 -3 -10 0 -10 7 0 10 -2 10 -9 -1 -7 -11 -9
-11 -13 0 -3 9 -6 8 -11 -4z"/>
<path fill="#ffffff" stroke="none" d="M57 165 c0 -8 -4 -12 -9 -9 -5 3 -6 10
-3 15 9 13 12 11 12 -6z"/>
</g>
</svg>
