<?xml version="1.0" standalone="no"?>
<!DOCTYPE svg PUBLIC "-//W3C//DTD SVG 20010904//EN"
 "http://www.w3.org/TR/2001/REC-SVG-20010904/DTD/svg10.dtd">
<svg version="1.0" xmlns="http://www.w3.org/2000/svg"
 width="32.000000pt" height="32.000000pt" viewBox="0 0 32.000000 32.000000"
 preserveAspectRatio="xMidYMid meet">
<metadata>
Created by potrace 1.16, written by Peter Selinger 2001-2019
</metadata>
<g transform="translate(0.000000,32.000000) scale(0.100000,-0.100000)"
fill="#000000" stroke="none">
<path fill="#000000" stroke="none" d="M45 159 c-4 -5 -4 -22 -1 -35 5 -17 3
-23 -4 -19 -16 10 -12 -4 8 -30 l18 -23 13 21 c11 17 11 22 -3 32 -8 7 -12 16
-8 20 4 5 1 5 -7 0 -11 -6 -13 -2 -9 19 6 28 3 33 -7 15z"/>
</g>
</svg>
