<?xml version="1.0" standalone="no"?>
<!DOCTYPE svg PUBLIC "-//W3C//DTD SVG 20010904//EN"
 "http://www.w3.org/TR/2001/REC-SVG-20010904/DTD/svg10.dtd">
<svg version="1.0" xmlns="http://www.w3.org/2000/svg"
 width="32.000000pt" height="32.000000pt" viewBox="0 0 32.000000 32.000000"
 preserveAspectRatio="xMidYMid meet">
<metadata>
Created by potrace 1.16, written by Peter Selinger 2001-2019
</metadata>
<g transform="translate(0.000000,32.000000) scale(0.100000,-0.100000)"
fill="#000000" stroke="none">
<path fill="#000000" stroke="none" d="M132 258 c-7 -7 -12 -22 -12 -33 0 -13
-16 -34 -40 -54 -22 -17 -40 -39 -40 -47 0 -25 30 -28 52 -4 16 17 22 19 29 8
5 -7 9 -9 9 -4 0 5 6 4 13 -1 6 -6 24 -9 39 -8 15 1 25 -2 22 -7 -3 -4 -9 -6
-14 -3 -5 3 -11 1 -14 -4 -8 -13 -42 -6 -38 8 4 21 -7 11 -23 -19 -9 -17 -13
-35 -10 -41 4 -5 2 -16 -5 -24 -16 -19 -2 -24 72 -24 60 0 68 3 83 25 19 29
14 54 -11 54 -12 0 -15 6 -10 26 5 18 2 32 -10 46 -34 37 -24 52 12 17 38 -37
43 -55 17 -63 -14 -4 -14 -4 2 -3 32 3 30 39 -5 72 -16 16 -30 38 -30 50 0 28
-19 45 -50 45 -14 0 -31 -5 -38 -12z"/>
<path fill="#ffffff" stroke="none" d="M207 245 c8 -23 -24 -54 -53 -50 -25 2
-29 -3 -16 -20 8 -12 22 -13 38 -2 7 4 17 0 24 -8 10 -13 8 -21 -3 -12 -2 1
-12 -5 -22 -13 -14 -11 -19 -12 -22 -2 -3 6 -11 12 -19 12 -9 0 -12 5 -9 13 4
6 -7 -3 -24 -20 -33 -35 -51 -42 -51 -19 0 8 15 25 33 37 36 26 51 46 53 72 1
9 2 19 3 22 3 13 62 4 68 -10z"/>
<path fill="#ffffff" stroke="none" d="M180 61 c0 -5 -7 -11 -14 -14 -10 -4
-13 -1 -9 9 6 15 23 19 23 5z"/>
<path fill="#000000" stroke="none" d="M146 219 c3 -5 9 -7 14 -4 4 3 11 0 13
-5 3 -6 4 -5 3 1 -1 7 -10 13 -19 15 -9 1 -15 -2 -11 -7z"/>
</g>
</svg>
