<?xml version="1.0" standalone="no"?>
<!DOCTYPE svg PUBLIC "-//W3C//DTD SVG 20010904//EN"
 "http://www.w3.org/TR/2001/REC-SVG-20010904/DTD/svg10.dtd">
<svg version="1.0" xmlns="http://www.w3.org/2000/svg"
 width="32.000000pt" height="32.000000pt" viewBox="0 0 32.000000 32.000000"
 preserveAspectRatio="xMidYMid meet">
<metadata>
Created by potrace 1.16, written by Peter Selinger 2001-2019
</metadata>
<g transform="translate(0.000000,32.000000) scale(0.100000,-0.100000)"
fill="#000000" stroke="none">
<path fill="#000000" stroke="none" d="M0 159 l0 -159 160 0 160 0 -1 141 c0
114 -3 140 -14 135 -7 -2 -19 2 -25 10 -10 12 -8 14 14 14 14 0 26 4 26 9 0 5
-72 9 -160 9 l-160 0 0 -159z"/>
<path fill="#ffffff" stroke="none" d="M163 303 c3 -5 -6 -9 -19 -9 -13 -1
-21 2 -18 7 6 11 31 12 37 2z"/>
<path fill="#ffffff" stroke="none" d="M170 156 c0 -2 -8 -10 -17 -17 -16 -13
-17 -12 -4 4 13 16 21 21 21 13z"/>
<path fill="#ffffff" stroke="none" d="M180 136 c0 -2 -8 -10 -17 -17 -16 -13
-17 -12 -4 4 13 16 21 21 21 13z"/>
<path fill="#ffffff" stroke="none" d="M36 36 c2 -10 0 -16 -3 -12 -4 4 -8 12
-9 19 -2 7 -6 23 -9 37 l-6 25 12 -25 c6 -14 12 -33 15 -44z"/>
</g>
</svg>
