<?xml version="1.0" standalone="no"?>
<!DOCTYPE svg PUBLIC "-//W3C//DTD SVG 20010904//EN"
 "http://www.w3.org/TR/2001/REC-SVG-20010904/DTD/svg10.dtd">
<svg version="1.0" xmlns="http://www.w3.org/2000/svg"
 width="32.000000pt" height="32.000000pt" viewBox="0 0 32.000000 32.000000"
 preserveAspectRatio="xMidYMid meet">
<metadata>
Created by potrace 1.16, written by Peter Selinger 2001-2019
</metadata>
<g transform="translate(0.000000,32.000000) scale(0.100000,-0.100000)"
fill="#000000" stroke="none">
<path fill="#000000" stroke="none" d="M10 290 c0 -14 -3 -56 -6 -95 l-6 -70
32 48 c30 44 31 49 17 65 -18 19 -17 47 1 62 9 7 9 7 2 -2 -6 -8 -5 -17 3 -27
9 -12 9 -13 0 -7 -7 4 -13 2 -13 -4 0 -16 31 -25 39 -11 9 15 41 4 41 -14 0
-8 -8 -12 -20 -10 -11 2 -22 0 -25 -4 -2 -5 9 -11 25 -13 35 -5 55 9 39 29 -8
8 -8 13 -1 13 12 0 11 18 -2 39 -6 9 -5 12 2 7 5 -3 12 -1 14 5 3 10 80 -26
116 -54 9 -7 12 0 12 32 l0 41 -135 -2 -135 -2 0 -26z"/>
<path fill="#000000" stroke="none" d="M157 292 c-2 -4 -2 -13 -1 -19 1 -7 2
-18 3 -24 0 -6 7 -9 15 -6 8 3 17 -1 20 -10 6 -14 8 -14 22 3 9 10 13 14 10 8
-3 -6 9 -19 26 -29 l32 -18 -25 -10 c-13 -6 -28 -11 -34 -13 -47 -14 -68 -22
-57 -23 7 -1 10 -5 7 -11 -3 -5 2 -10 12 -11 16 0 16 -1 -2 -8 -11 -5 -28 -4
-37 1 -14 7 -22 2 -38 -24 -22 -36 -26 -58 -9 -58 5 0 7 5 3 12 -5 7 -3 8 5 4
9 -6 8 -13 -5 -27 -20 -22 -25 -24 -23 -7 1 7 1 21 0 31 -1 15 -3 15 -22 -4
-16 -16 -23 -18 -35 -8 -8 6 -14 17 -14 23 0 6 5 4 10 -4 7 -11 8 -5 4 20 l-5
35 15 -32 c8 -18 18 -33 21 -33 3 0 4 4 1 9 -3 5 3 35 13 67 11 33 20 50 21
39 0 -13 3 -16 8 -8 5 8 13 9 22 3 12 -8 11 -10 -5 -10 -15 0 -16 -3 -7 -12 9
-9 17 -7 35 10 13 12 31 22 40 22 13 0 15 5 7 24 -5 13 -6 27 -3 30 4 3 0 6
-7 6 -8 0 -24 -12 -35 -26 -20 -26 -22 -26 -51 -11 -29 15 -30 15 -51 -16 -23
-33 -42 -102 -43 -149 0 -26 3 -28 43 -27 58 1 92 12 93 29 2 31 5 35 14 20 8
-12 10 -10 11 10 l1 25 8 -25 c7 -21 8 -22 9 -5 1 11 5 16 9 10 15 -21 34 -16
28 7 -4 15 -1 12 8 -7 12 -26 12 -31 -2 -41 -9 -7 -22 -10 -28 -7 -7 3 -21 0
-31 -6 -17 -10 -17 -10 2 -11 11 0 37 3 58 6 31 6 37 11 37 31 0 15 -4 22 -11
17 -7 -4 -10 -1 -7 7 10 27 -10 47 -39 41 -15 -2 -26 -2 -23 1 3 3 19 8 35 11
17 2 30 5 30 6 0 1 11 3 25 6 18 3 21 2 10 -5 -8 -5 -18 -7 -24 -4 -5 4 -7 -1
-3 -11 4 -10 7 -20 7 -22 0 -2 7 -4 15 -4 15 0 19 19 17 70 -1 13 3 27 9 30
16 10 0 38 -34 59 -69 42 -106 60 -110 53z"/>
<path fill="#ffffff" stroke="none" d="M47 88 c-3 -8 -6 -5 -6 6 -1 11 2 17 5
13 3 -3 4 -12 1 -19z"/>
<path fill="#000000" stroke="none" d="M230 189 c0 -5 5 -7 10 -4 6 3 10 8 10
11 0 2 -4 4 -10 4 -5 0 -10 -5 -10 -11z"/>
<path fill="#000000" stroke="none" d="M80 137 c0 -1 -4 -17 -9 -34 -7 -24 -6
-32 2 -30 14 2 36 48 30 60 -4 6 -23 10 -23 4z"/>
</g>
</svg>
