<?xml version="1.0" standalone="no"?>
<!DOCTYPE svg PUBLIC "-//W3C//DTD SVG 20010904//EN"
 "http://www.w3.org/TR/2001/REC-SVG-20010904/DTD/svg10.dtd">
<svg version="1.0" xmlns="http://www.w3.org/2000/svg"
 width="32.000000pt" height="32.000000pt" viewBox="0 0 32.000000 32.000000"
 preserveAspectRatio="xMidYMid meet">
<metadata>
Created by potrace 1.16, written by Peter Selinger 2001-2019
</metadata>
<g transform="translate(0.000000,32.000000) scale(0.100000,-0.100000)"
fill="#000000" stroke="none">
<path fill="#000000" stroke="none" d="M0 159 l0 -159 160 0 160 0 0 45 c0 42
-2 44 -26 42 -21 -2 -28 3 -31 22 -4 28 -10 37 -19 29 -3 -3 1 -31 9 -61 8
-31 12 -58 9 -61 -10 -11 -52 -6 -52 5 0 6 6 9 13 6 10 -4 13 2 9 21 -5 24 -6
25 -13 7 -8 -20 -8 -20 -9 0 -1 13 -3 15 -7 6 -5 -11 -7 -11 -14 0 -6 10 -9 7
-10 -11 0 -23 -1 -23 -9 -5 -6 14 -9 15 -10 5 -1 -11 -4 -9 -11 5 -7 17 -8 15
-6 -10 2 -26 -2 -30 -25 -33 -16 -2 -28 1 -28 6 0 15 26 22 38 10 6 -6 8 -1 5
16 -5 24 -6 25 -18 9 -8 -10 -17 -15 -20 -11 -7 7 0 33 29 100 l16 36 -27 -3
c-35 -4 -55 -32 -51 -72 2 -18 0 -29 -6 -26 -5 4 -7 -1 -3 -10 12 -30 -4 -18
-19 15 -15 34 -15 24 0 -41 3 -13 2 -21 -1 -17 -4 4 -8 13 -10 21 -15 62 -14
73 11 110 14 21 26 42 26 47 0 5 10 13 23 18 16 6 17 9 5 9 -9 1 -20 -3 -23
-9 -3 -5 -13 -10 -22 -10 -14 0 -14 2 1 19 10 11 15 24 12 30 -4 5 -2 12 4 16
5 3 10 11 10 16 0 6 -4 7 -10 4 -5 -3 -10 -2 -10 3 0 5 13 9 30 8 16 -1 30 -5
30 -10 0 -5 7 -3 15 4 8 7 22 10 30 6 8 -3 16 -5 18 -5 1 1 20 -6 42 -15 33
-13 37 -13 21 -1 -26 20 -7 19 22 -1 21 -14 22 -41 1 -29 -21 13 -7 -8 21 -32
20 -16 30 -34 30 -51 0 -22 -2 -24 -11 -12 -8 12 -9 9 -4 -10 3 -14 7 -30 7
-37 1 -7 5 -10 9 -8 12 8 8 135 -4 135 -7 0 -7 4 1 12 16 16 15 31 -2 25 -8
-3 -20 1 -26 9 -10 12 -8 14 14 14 14 0 26 4 26 8 0 4 -72 9 -160 9 l-160 1 0
-159z"/>
<path fill="#ffffff" stroke="none" d="M297 256 c-15 -12 -16 -14 -2 -20 8 -3
15 -10 15 -16 0 -5 -9 -2 -20 8 -19 16 -19 18 -3 29 23 17 33 16 10 -1z"/>
<path fill="#ffffff" stroke="none" d="M110 160 c-8 -5 -19 -10 -25 -10 -5 0
-3 5 5 10 8 5 20 10 25 10 6 0 3 -5 -5 -10z"/>
<path fill="#000000" stroke="none" d="M139 288 c0 -2 -2 -16 -3 -31 -1 -16
-8 -32 -16 -37 -8 -6 -10 -10 -5 -11 6 -1 -3 -5 -20 -9 l-30 -9 30 2 c20 1 33
10 41 25 6 13 15 23 20 23 5 0 18 8 28 17 18 16 19 16 13 -6 -4 -19 -3 -21 9
-11 13 10 12 14 -3 31 -16 18 -18 18 -23 2 -6 -16 -7 -16 -13 -1 -5 14 -25 24
-28 15z"/>
<path fill="#ffffff" stroke="none" d="M161 263 c13 -16 12 -17 -3 -4 -10 7
-18 15 -18 17 0 8 8 3 21 -13z"/>
<path fill="#000000" stroke="none" d="M164 198 l-19 -23 23 19 c21 18 27 26
19 26 -2 0 -12 -10 -23 -22z"/>
<path fill="#000000" stroke="none" d="M230 183 c-24 -12 -24 -13 -3 -13 12 0
25 5 28 11 11 16 2 17 -25 2z"/>
<path fill="#000000" stroke="none" d="M272 124 c1 -17 7 -31 14 -31 14 0 10
35 -6 51 -8 8 -10 2 -8 -20z"/>
<path fill="#000000" stroke="none" d="M210 110 c-9 -6 -10 -10 -3 -10 6 0 15
5 18 10 8 12 4 12 -15 0z"/>
<path fill="#000000" stroke="none" d="M41 94 c0 -11 3 -14 6 -6 3 7 2 16 -1
19 -3 4 -6 -2 -5 -13z"/>
</g>
</svg>
