<?xml version="1.0" standalone="no"?>
<!DOCTYPE svg PUBLIC "-//W3C//DTD SVG 20010904//EN"
 "http://www.w3.org/TR/2001/REC-SVG-20010904/DTD/svg10.dtd">
<svg version="1.0" xmlns="http://www.w3.org/2000/svg"
 width="32.000000pt" height="32.000000pt" viewBox="0 0 32.000000 32.000000"
 preserveAspectRatio="xMidYMid meet">
<metadata>
Created by potrace 1.16, written by Peter Selinger 2001-2019
</metadata>
<g transform="translate(0.000000,32.000000) scale(0.100000,-0.100000)"
fill="#000000" stroke="none">
<path fill="#000000" stroke="none" d="M0 160 l0 -160 160 0 160 0 0 160 0
160 -160 0 -160 0 0 -160z"/>
<path fill="#ffffff" stroke="none" d="M80 280 c-6 -10 -15 -22 -21 -26 -6 -4
-6 3 2 17 7 13 12 28 11 32 -1 5 2 6 8 2 7 -4 7 -12 0 -25z"/>
<path fill="#ffffff" stroke="none" d="M290 185 c0 -6 -61 -38 -77 -41 -6 -1
-9 4 -6 12 3 8 8 12 12 10 3 -2 20 2 36 9 37 17 35 16 35 10z"/>
<path fill="#ffffff" stroke="none" d="M179 157 c-2 -1 -13 -9 -24 -17 -19
-14 -19 -14 -6 3 7 9 18 17 24 17 6 0 8 -1 6 -3z"/>
<path fill="#ffffff" stroke="none" d="M189 137 c-2 -1 -13 -9 -24 -17 -19
-14 -19 -14 -6 3 7 9 18 17 24 17 6 0 8 -1 6 -3z"/>
<path fill="#ffffff" stroke="none" d="M200 116 c0 -2 -7 -7 -16 -10 -8 -3
-12 -2 -9 4 6 10 25 14 25 6z"/>
<path fill="#ffffff" stroke="none" d="M35 36 c2 -10 1 -16 -2 -12 -8 7 -10
16 -18 61 l-5 30 10 -30 c6 -16 13 -38 15 -49z"/>
<path fill="#ffffff" stroke="none" d="M66 78 c5 -7 3 -8 -6 -3 -10 6 -12 4
-6 -11 5 -14 4 -16 -5 -7 -6 6 -8 16 -5 22 9 14 13 14 22 -1z"/>
</g>
</svg>
