<?xml version="1.0" standalone="no"?>
<!DOCTYPE svg PUBLIC "-//W3C//DTD SVG 20010904//EN"
 "http://www.w3.org/TR/2001/REC-SVG-20010904/DTD/svg10.dtd">
<svg version="1.0" xmlns="http://www.w3.org/2000/svg"
 width="32.000000pt" height="32.000000pt" viewBox="0 0 32.000000 32.000000"
 preserveAspectRatio="xMidYMid meet">
<metadata>
Created by potrace 1.16, written by Peter Selinger 2001-2019
</metadata>
<g transform="translate(0.000000,32.000000) scale(0.100000,-0.100000)"
fill="#000000" stroke="none">
<path fill="#000000" stroke="none" d="M0 160 l0 -160 43 1 c37 0 39 1 18 10
-22 9 -23 13 -17 63 6 44 4 55 -9 60 -25 9 -16 59 12 66 23 5 63 50 63 71 0 7
7 21 17 31 15 17 13 18 -55 18 l-72 0 0 -160z"/>
<path fill="#000000" stroke="none" d="M214 298 c9 -12 16 -28 16 -36 0 -7 9
-25 20 -40 17 -24 30 -65 59 -192 6 -23 9 19 10 128 l1 162 -61 0 -60 0 15
-22z"/>
<path fill="#000000" stroke="none" d="M137 292 c-10 -10 -17 -24 -17 -31 0
-22 -51 -80 -66 -74 -22 8 -30 -28 -9 -43 15 -11 17 -22 11 -63 -6 -49 -6 -50
27 -66 25 -12 57 -15 123 -13 88 3 89 3 88 28 -4 52 -42 171 -63 193 -11 13
-18 26 -15 30 11 11 -25 57 -45 57 -10 0 -25 -8 -34 -18z"/>
<path fill="#ffffff" stroke="none" d="M200 279 c7 -11 9 -23 6 -26 -3 -3 5
-19 18 -34 26 -30 46 -105 46 -167 l0 -37 -16 30 c-24 46 -31 49 -42 16 -8
-23 -8 -31 1 -31 7 0 8 -3 1 -10 -6 -6 -18 -8 -27 -4 -13 5 -16 14 -11 45 4
25 3 39 -4 39 -15 0 -27 -22 -24 -43 4 -23 -15 -47 -37 -47 -13 0 -13 2 -2 9
9 6 11 18 7 35 -4 15 -11 24 -17 21 -12 -8 -2 37 19 83 21 47 9 50 -18 5 -18
-30 -21 -48 -17 -88 2 -27 2 -41 -1 -30 l-5 20 -8 -20 c-4 -11 -5 8 -2 43 5
53 4 62 -11 62 -9 0 -16 7 -16 16 0 10 6 14 15 11 15 -7 75 61 75 85 0 38 52
51 70 17z"/>
<path fill="#000000" stroke="none" d="M202 168 c3 -15 2 -25 -2 -23 -4 3 -13
-2 -20 -10 -10 -12 -9 -15 9 -15 25 0 40 45 21 63 -10 10 -11 6 -8 -15z"/>
<path fill="#000000" stroke="none" d="M123 136 c5 -16 27 -19 27 -3 0 7 -7
14 -15 14 -9 0 -14 -5 -12 -11z"/>
</g>
</svg>
