<?xml version="1.0" standalone="no"?>
<!DOCTYPE svg PUBLIC "-//W3C//DTD SVG 20010904//EN"
 "http://www.w3.org/TR/2001/REC-SVG-20010904/DTD/svg10.dtd">
<svg version="1.0" xmlns="http://www.w3.org/2000/svg"
 width="32.000000pt" height="32.000000pt" viewBox="0 0 32.000000 32.000000"
 preserveAspectRatio="xMidYMid meet">
<metadata>
Created by potrace 1.16, written by Peter Selinger 2001-2019
</metadata>
<g transform="translate(0.000000,32.000000) scale(0.100000,-0.100000)"
fill="#000000" stroke="none">
<path fill="#000000" stroke="none" d="M127 302 c-10 -10 -17 -24 -17 -31 0
-21 -40 -66 -63 -71 -28 -7 -37 -57 -12 -66 13 -5 15 -16 9 -60 -6 -52 -5 -54
21 -64 15 -6 30 -8 33 -6 3 3 -7 10 -22 16 -25 9 -26 12 -20 60 6 42 4 53 -11
64 -22 16 -13 51 10 42 9 -3 21 4 30 18 9 13 24 23 33 21 9 -1 12 0 6 2 -28
10 14 83 47 83 20 0 56 -46 45 -57 -3 -4 4 -17 15 -30 22 -23 60 -143 63 -195
0 -16 5 -28 10 -28 18 0 -26 183 -54 222 -11 15 -20 33 -20 40 0 50 -70 76
-103 40z"/>
<path fill="#000000" stroke="none" d="M140 285 c-15 -18 -10 -45 12 -59 14
-8 22 -6 39 10 17 18 19 25 10 43 -13 24 -43 28 -61 6z"/>
<path fill="#000000" stroke="none" d="M170 215 c-19 -7 -36 -19 -38 -27 -4
-20 24 -42 43 -34 22 8 30 36 14 47 -9 6 -10 9 -2 9 20 0 35 -39 28 -71 -4
-18 -3 -29 4 -29 6 0 11 6 12 13 0 6 6 -4 12 -23 9 -29 11 -31 14 -13 6 30
-14 97 -35 120 -15 18 -21 18 -52 8z"/>
<path fill="#000000" stroke="none" d="M80 186 c-6 -8 -18 -12 -26 -9 -8 3
-14 -1 -14 -11 0 -9 7 -16 15 -16 8 0 15 -5 15 -11 0 -7 9 0 20 14 30 38 21
69 -10 33z"/>
<path fill="#000000" stroke="none" d="M130 110 c-21 -21 -27 -50 -10 -50 6 0
15 11 20 25 14 36 40 32 40 -6 0 -27 2 -30 15 -19 12 10 13 16 4 26 -6 8 -8
14 -3 14 11 1 -27 30 -38 30 -4 0 -17 -9 -28 -20z"/>
<path fill="#000000" stroke="none" d="M66 75 c-3 -9 -6 -22 -5 -28 0 -7 5 -1
10 12 5 13 8 26 5 28 -2 2 -6 -3 -10 -12z"/>
</g>
</svg>
