<?xml version="1.0" standalone="no"?>
<!DOCTYPE svg PUBLIC "-//W3C//DTD SVG 20010904//EN"
 "http://www.w3.org/TR/2001/REC-SVG-20010904/DTD/svg10.dtd">
<svg version="1.0" xmlns="http://www.w3.org/2000/svg"
 width="32.000000pt" height="32.000000pt" viewBox="0 0 32.000000 32.000000"
 preserveAspectRatio="xMidYMid meet">
<metadata>
Created by potrace 1.16, written by Peter Selinger 2001-2019
</metadata>
<g transform="translate(0.000000,32.000000) scale(0.100000,-0.100000)"
fill="#000000" stroke="none">
<path fill="#000000" stroke="none" d="M127 302 c-10 -10 -17 -24 -17 -31 0
-21 -40 -66 -63 -71 -28 -7 -37 -57 -12 -66 13 -5 15 -16 9 -60 -6 -52 -5 -54
21 -64 15 -6 30 -8 33 -6 3 3 -7 10 -22 16 -25 9 -26 12 -20 60 6 42 4 53 -11
64 -21 15 -13 51 9 43 7 -3 20 0 27 6 11 10 11 9 0 -5 -7 -9 -19 -14 -27 -11
-8 3 -14 -1 -14 -10 0 -8 9 -17 21 -20 12 -3 18 -3 15 0 -3 4 3 13 15 21 16
11 18 17 8 28 -9 11 -8 18 5 32 9 10 16 25 16 34 0 19 32 48 53 48 18 0 54
-47 43 -57 -3 -4 4 -17 15 -30 22 -23 60 -143 63 -195 0 -16 5 -28 10 -28 18
0 -26 183 -54 222 -11 15 -20 33 -20 40 0 50 -70 76 -103 40z"/>
<path fill="#000000" stroke="none" d="M144 288 c-5 -7 -2 -9 7 -4 8 4 5 0 -6
-9 -15 -12 -17 -19 -9 -33 15 -22 27 -19 36 10 4 16 6 18 7 6 1 -10 5 -18 11
-18 11 0 9 28 -3 48 -10 15 -34 16 -43 0z"/>
<path fill="#000000" stroke="none" d="M135 200 c-4 -6 7 -10 25 -10 21 0 29
-4 24 -12 -5 -7 -3 -8 6 -3 10 6 9 11 -5 22 -22 15 -41 17 -50 3z"/>
<path fill="#000000" stroke="none" d="M217 149 c-8 -28 -3 -34 11 -16 6 7 7
19 3 26 -6 9 -10 6 -14 -10z"/>
</g>
</svg>
