<?xml version="1.0" standalone="no"?>
<!DOCTYPE svg PUBLIC "-//W3C//DTD SVG 20010904//EN"
 "http://www.w3.org/TR/2001/REC-SVG-20010904/DTD/svg10.dtd">
<svg version="1.0" xmlns="http://www.w3.org/2000/svg"
 width="32.000000pt" height="32.000000pt" viewBox="0 0 32.000000 32.000000"
 preserveAspectRatio="xMidYMid meet">
<metadata>
Created by potrace 1.16, written by Peter Selinger 2001-2019
</metadata>
<g transform="translate(0.000000,32.000000) scale(0.100000,-0.100000)"
fill="#000000" stroke="none">
<path fill="#000000" stroke="none" d="M94 297 c-23 -20 -25 -26 -15 -45 12
-23 2 -36 -21 -27 -20 8 -63 -28 -54 -44 5 -7 18 -10 31 -7 17 4 24 1 28 -14
3 -11 1 -20 -4 -20 -21 0 -6 -31 29 -58 39 -31 98 -42 88 -16 -3 8 -1 14 4 14
12 0 50 -50 50 -66 0 -8 4 -14 8 -14 13 0 32 23 32 39 0 11 -4 10 -15 -5 -8
-10 -15 -15 -15 -10 0 5 7 18 16 28 14 14 14 20 4 33 -7 8 -19 15 -26 15 -8 0
-14 5 -14 10 0 14 23 13 38 -2 13 -13 44 6 40 26 -1 6 4 23 11 38 12 24 11 30
-13 61 -25 33 -26 35 -7 30 12 -3 21 -1 21 5 0 16 -29 35 -44 29 -9 -4 -13 -1
-10 6 3 8 -16 13 -65 15 -61 2 -73 -1 -97 -21z"/>
<path fill="#ffffff" stroke="none" d="M120 215 c-7 -8 -22 -14 -34 -14 -20 1
-20 2 -1 6 11 3 24 9 30 14 15 14 19 10 5 -6z"/>
<path fill="#ffffff" stroke="none" d="M50 206 c0 -3 -4 -8 -10 -11 -5 -3 -10
-1 -10 4 0 6 5 11 10 11 6 0 10 -2 10 -4z"/>
<path fill="#ffffff" stroke="none" d="M131 92 c-7 -2 -18 1 -23 6 -8 8 -4 9
13 5 13 -4 18 -8 10 -11z"/>
<path fill="#ffffff" stroke="none" d="M228 71 c3 -8 -1 -12 -9 -9 -7 2 -15
10 -17 17 -3 8 1 12 9 9 7 -2 15 -10 17 -17z"/>
</g>
</svg>
