<?xml version="1.0" standalone="no"?>
<!DOCTYPE svg PUBLIC "-//W3C//DTD SVG 20010904//EN"
 "http://www.w3.org/TR/2001/REC-SVG-20010904/DTD/svg10.dtd">
<svg version="1.0" xmlns="http://www.w3.org/2000/svg"
 width="32.000000pt" height="32.000000pt" viewBox="0 0 32.000000 32.000000"
 preserveAspectRatio="xMidYMid meet">
<metadata>
Created by potrace 1.16, written by Peter Selinger 2001-2019
</metadata>
<g transform="translate(0.000000,32.000000) scale(0.100000,-0.100000)"
fill="#000000" stroke="none">
<path fill="#000000" stroke="none" d="M89 298 c-5 -10 -5 -27 1 -42 14 -38
-6 -79 -36 -72 -28 7 -46 -15 -42 -51 4 -33 37 -43 61 -19 23 24 28 19 11 -11
-17 -34 -18 -79 -1 -90 17 -11 38 -13 32 -3 -3 4 4 10 14 13 14 3 18 1 14 -9
-4 -10 14 -13 86 -12 l91 1 0 34 c0 30 -3 33 -30 33 -16 0 -30 4 -30 9 0 12
29 23 41 15 5 -3 9 21 9 53 0 48 -4 60 -20 71 -12 7 -19 20 -18 30 2 11 -5 18
-19 20 -12 2 -32 14 -45 27 -30 30 -104 32 -119 3z"/>
<path fill="#ffffff" stroke="none" d="M136 301 c11 9 15 9 10 2 -4 -8 -1 -13
8 -13 9 0 16 5 16 11 0 5 5 7 10 4 6 -3 10 -11 10 -16 0 -6 -4 -8 -9 -5 -4 3
-17 -1 -27 -9 -15 -11 -16 -15 -4 -16 8 -1 18 -1 23 0 4 0 7 -4 7 -10 0 -6 -6
-9 -14 -6 -8 3 -20 -1 -26 -8 -15 -18 -28 -11 -40 21 -11 28 -2 63 11 43 6
-10 11 -10 25 2z"/>
<path fill="#ffffff" stroke="none" d="M263 212 c-1 -5 3 -9 10 -8 7 0 13 -2
15 -6 1 -5 -1 -8 -4 -7 -4 0 -10 -5 -15 -12 -6 -10 -12 -9 -28 5 -16 15 -18
22 -9 33 12 15 34 12 31 -5z"/>
<path fill="#ffffff" stroke="none" d="M119 186 c9 -10 8 -16 -4 -26 -17 -14
-17 -14 -20 18 -3 25 7 29 24 8z"/>
<path fill="#ffffff" stroke="none" d="M47 160 c-1 -11 -7 -20 -14 -20 -17 0
-17 27 0 33 6 3 13 6 14 6 1 1 1 -8 0 -19z"/>
<path fill="#ffffff" stroke="none" d="M180 165 c0 -8 -9 -15 -20 -15 -11 0
-20 7 -20 15 0 8 9 15 20 15 11 0 20 -7 20 -15z"/>
<path fill="#ffffff" stroke="none" d="M250 165 c10 -12 10 -15 -4 -15 -9 0
-16 7 -16 15 0 8 2 15 4 15 2 0 9 -7 16 -15z"/>
<path fill="#ffffff" stroke="none" d="M205 160 c3 -5 1 -10 -4 -10 -6 0 -11
5 -11 10 0 6 2 10 4 10 3 0 8 -4 11 -10z"/>
<path fill="#ffffff" stroke="none" d="M279 126 c8 -10 9 -16 1 -21 -13 -8
-30 3 -30 21 0 18 14 18 29 0z"/>
<path fill="#ffffff" stroke="none" d="M55 120 c3 -5 -1 -10 -9 -10 -8 0 -18
5 -21 10 -3 6 1 10 9 10 8 0 18 -4 21 -10z"/>
<path fill="#ffffff" stroke="none" d="M130 104 c0 -3 -5 -15 -12 -27 -11 -21
-10 -21 8 -7 19 14 19 14 0 -8 -11 -12 -24 -22 -31 -22 -17 0 -15 32 3 53 15
16 32 23 32 11z"/>
<path fill="#ffffff" stroke="none" d="M250 58 c0 -14 -21 -19 -34 -9 -11 9
-14 37 -7 61 2 6 40 -43 41 -52z"/>
<path fill="#000000" stroke="none" d="M100 281 c0 -6 4 -13 10 -16 6 -3 7 1
4 9 -7 18 -14 21 -14 7z"/>
<path fill="#000000" stroke="none" d="M115 240 c4 -6 11 -8 16 -5 14 9 11 15
-7 15 -8 0 -12 -5 -9 -10z"/>
</g>
</svg>
