<?xml version="1.0" standalone="no"?>
<!DOCTYPE svg PUBLIC "-//W3C//DTD SVG 20010904//EN"
 "http://www.w3.org/TR/2001/REC-SVG-20010904/DTD/svg10.dtd">
<svg version="1.0" xmlns="http://www.w3.org/2000/svg"
 width="32.000000pt" height="32.000000pt" viewBox="0 0 32.000000 32.000000"
 preserveAspectRatio="xMidYMid meet">
<metadata>
Created by potrace 1.16, written by Peter Selinger 2001-2019
</metadata>
<g transform="translate(0.000000,32.000000) scale(0.100000,-0.100000)"
fill="#000000" stroke="none">
<path fill="#000000" stroke="none" d="M91 301 c-8 -13 -8 -28 -1 -46 14 -36
-14 -93 -36 -74 -12 10 -18 9 -31 -4 -27 -27 -9 -49 37 -44 22 2 40 3 40 2 0
-2 -7 -16 -15 -31 -19 -37 -19 -63 1 -71 8 -3 13 -12 10 -19 -6 -17 42 -19 92
-5 20 6 32 6 32 0 0 -16 54 -9 78 9 21 16 22 22 13 62 -5 24 -6 50 -2 58 15
26 -1 61 -46 103 -36 33 -47 39 -55 28 -8 -11 -9 -11 -5 3 3 9 -2 23 -11 31
-15 13 -20 14 -36 1 -17 -12 -22 -12 -37 2 -16 14 -18 14 -28 -5z"/>
<path fill="#ffffff" stroke="none" d="M167 164 c-3 -3 -12 -4 -19 -1 -8 3 -5
6 6 6 11 1 17 -2 13 -5z"/>
<path fill="#000000" stroke="none" d="M135 310 c-3 -6 1 -7 9 -4 18 7 21 14
7 14 -6 0 -13 -4 -16 -10z"/>
</g>
</svg>
