<?xml version="1.0" standalone="no"?>
<!DOCTYPE svg PUBLIC "-//W3C//DTD SVG 20010904//EN"
 "http://www.w3.org/TR/2001/REC-SVG-20010904/DTD/svg10.dtd">
<svg version="1.0" xmlns="http://www.w3.org/2000/svg"
 width="32.000000pt" height="32.000000pt" viewBox="0 0 32.000000 32.000000"
 preserveAspectRatio="xMidYMid meet">
<metadata>
Created by potrace 1.16, written by Peter Selinger 2001-2019
</metadata>
<g transform="translate(0.000000,32.000000) scale(0.100000,-0.100000)"
fill="#000000" stroke="none">
<path fill="#000000" stroke="none" d="M91 301 c-8 -13 -8 -28 -1 -46 14 -36
-14 -93 -36 -74 -12 10 -18 9 -31 -4 -21 -20 -11 -43 21 -49 14 -3 24 -2 21 1
-2 4 5 7 16 7 10 0 19 -1 19 -2 0 -1 -7 -15 -15 -30 -19 -37 -19 -63 1 -71 8
-3 13 -11 10 -18 -3 -9 10 -12 49 -10 29 1 58 6 64 9 6 4 11 3 11 -2 0 -16 55
-11 78 7 21 15 22 21 13 61 -5 24 -6 50 -2 58 15 26 -1 61 -46 103 -36 33 -47
39 -55 28 -8 -11 -9 -10 -5 3 10 28 -53 63 -68 37 -5 -7 -11 -6 -20 1 -10 9
-16 7 -24 -9z"/>
<path fill="#ffffff" stroke="none" d="M150 300 c-13 -8 -13 -10 0 -10 10 0
11 -3 3 -11 -7 -7 -19 -9 -29 -5 -16 6 -16 8 2 21 10 8 24 14 29 15 6 0 3 -5
-5 -10z"/>
<path fill="#ffffff" stroke="none" d="M127 253 c-9 -2 -14 -9 -11 -15 4 -7 2
-8 -5 -4 -15 10 -4 26 17 25 15 -1 15 -2 -1 -6z"/>
<path fill="#ffffff" stroke="none" d="M217 228 c-13 -20 -27 -24 -27 -8 0 6
5 10 11 10 5 0 8 4 5 8 -3 5 1 9 8 9 11 0 12 -4 3 -19z"/>
<path fill="#ffffff" stroke="none" d="M110 191 c0 -6 -4 -12 -8 -15 -5 -3 -9
1 -9 9 0 8 4 15 9 15 4 0 8 -4 8 -9z"/>
<path fill="#ffffff" stroke="none" d="M265 189 c11 -17 -1 -21 -15 -4 -8 9
-8 15 -2 15 6 0 14 -5 17 -11z"/>
<path fill="#ffffff" stroke="none" d="M34 155 c3 -8 1 -15 -4 -15 -6 0 -10 7
-10 15 0 8 2 15 4 15 2 0 6 -7 10 -15z"/>
<path fill="#ffffff" stroke="none" d="M167 164 c-3 -3 -12 -4 -19 -1 -8 3 -5
6 6 6 11 1 17 -2 13 -5z"/>
<path fill="#ffffff" stroke="none" d="M275 112 c-8 -8 -25 10 -19 20 4 6 9 5
15 -3 4 -7 6 -15 4 -17z"/>
<path fill="#ffffff" stroke="none" d="M300 83 c0 -19 -3 -24 -10 -17 -6 6 -8
18 -4 27 9 24 14 21 14 -10z"/>
<path fill="#ffffff" stroke="none" d="M110 64 c-9 -23 -13 -25 -20 -14 -12
19 -13 33 -1 26 5 -3 12 1 15 10 4 9 9 15 12 12 2 -3 0 -18 -6 -34z"/>
<path fill="#ffffff" stroke="none" d="M234 58 c-9 -14 -24 2 -24 25 1 21 1
21 15 3 8 -10 12 -23 9 -28z"/>
</g>
</svg>
