<?xml version="1.0" standalone="no"?>
<!DOCTYPE svg PUBLIC "-//W3C//DTD SVG 20010904//EN"
 "http://www.w3.org/TR/2001/REC-SVG-20010904/DTD/svg10.dtd">
<svg version="1.0" xmlns="http://www.w3.org/2000/svg"
 width="32.000000pt" height="32.000000pt" viewBox="0 0 32.000000 32.000000"
 preserveAspectRatio="xMidYMid meet">
<metadata>
Created by potrace 1.16, written by Peter Selinger 2001-2019
</metadata>
<g transform="translate(0.000000,32.000000) scale(0.100000,-0.100000)"
fill="#000000" stroke="none">
<path fill="#000000" stroke="none" d="M135 283 c-19 -16 -20 -19 -6 -50 16
-36 45 -44 56 -15 3 9 6 19 5 21 -1 2 6 8 15 13 14 8 13 12 -9 29 -29 23 -35
23 -61 2z"/>
<path fill="#ffffff" stroke="none" d="M176 255 c-9 -9 -16 -13 -16 -8 0 12
22 34 28 28 2 -2 -3 -11 -12 -20z"/>
<path fill="#ffffff" stroke="none" d="M148 245 c-3 -3 -9 2 -12 12 -6 14 -5
15 5 6 7 -7 10 -15 7 -18z"/>
<path fill="#000000" stroke="none" d="M177 194 c-28 -25 -43 -32 -31 -12 4 7
3 8 -4 4 -7 -4 -12 -1 -12 9 0 9 -5 13 -10 10 -6 -4 -8 -10 -5 -15 3 -5 -8
-18 -25 -30 -16 -12 -30 -17 -30 -11 0 6 -7 11 -15 11 -8 0 -15 -7 -15 -15 0
-19 40 -14 76 10 22 14 26 14 49 -1 14 -9 25 -19 25 -21 0 -3 -11 2 -25 11
-24 16 -25 16 -25 -9 0 -15 4 -24 9 -20 6 3 14 -2 19 -11 5 -9 12 -15 15 -15
21 3 27 -1 27 -14 0 -8 6 -15 14 -15 15 0 15 9 2 48 -4 12 -12 20 -17 17 -16
-10 -10 12 10 36 19 23 19 24 40 5 21 -19 29 -42 11 -31 -5 3 -10 0 -10 -8 0
-7 7 -14 15 -14 21 0 19 30 -6 61 -34 44 -52 48 -82 20z"/>
<path fill="#ffffff" stroke="none" d="M218 192 c15 12 16 11 3 -4 -14 -19
-32 -15 -30 5 0 8 2 8 6 -1 4 -10 8 -10 21 0z"/>
<path fill="#000000" stroke="none" d="M118 75 c-3 -14 -2 -25 2 -25 14 0 32
29 25 40 -11 17 -22 11 -27 -15z"/>
<path fill="#000000" stroke="none" d="M99 23 c-9 -10 -8 -13 4 -13 8 0 20 6
26 13 8 10 7 14 -4 14 -9 0 -20 -6 -26 -14z"/>
<path fill="#000000" stroke="none" d="M215 30 c-3 -5 -5 -10 -3 -11 33 -8 38
-7 27 7 -14 17 -16 17 -24 4z"/>
</g>
</svg>
