<?xml version="1.0" standalone="no"?>
<!DOCTYPE svg PUBLIC "-//W3C//DTD SVG 20010904//EN"
 "http://www.w3.org/TR/2001/REC-SVG-20010904/DTD/svg10.dtd">
<svg version="1.0" xmlns="http://www.w3.org/2000/svg"
 width="32.000000pt" height="32.000000pt" viewBox="0 0 32.000000 32.000000"
 preserveAspectRatio="xMidYMid meet">
<metadata>
Created by potrace 1.16, written by Peter Selinger 2001-2019
</metadata>
<g transform="translate(0.000000,32.000000) scale(0.100000,-0.100000)"
fill="#000000" stroke="none">
<path fill="#000000" stroke="none" d="M133 281 c-15 -13 -19 -21 -11 -29 12
-12 4 -42 -23 -76 -16 -20 -26 -25 -45 -20 -18 5 -24 2 -24 -10 0 -21 48 -21
78 0 21 14 22 14 22 -7 0 -27 -20 -100 -33 -117 -7 -9 -2 -12 18 -12 23 0 26
3 22 21 -7 26 25 64 47 56 9 -4 16 -13 16 -22 0 -8 4 -15 9 -15 5 0 7 -9 4
-20 -4 -15 0 -20 16 -20 25 0 25 -6 1 66 -23 71 -25 94 -6 94 19 0 31 -20 28
-42 -2 -11 3 -18 12 -18 33 0 18 51 -26 92 -31 28 -39 41 -30 50 8 8 5 16 -13
29 -28 23 -34 23 -62 0z"/>
<path fill="#ffffff" stroke="none" d="M160 197 c11 -5 9 -6 -4 -4 -11 1 -21
9 -23 17 -3 10 -2 11 4 4 4 -6 15 -14 23 -17z"/>
</g>
</svg>
