<?xml version="1.0" standalone="no"?>
<!DOCTYPE svg PUBLIC "-//W3C//DTD SVG 20010904//EN"
 "http://www.w3.org/TR/2001/REC-SVG-20010904/DTD/svg10.dtd">
<svg version="1.0" xmlns="http://www.w3.org/2000/svg"
 width="32.000000pt" height="32.000000pt" viewBox="0 0 32.000000 32.000000"
 preserveAspectRatio="xMidYMid meet">
<metadata>
Created by potrace 1.16, written by Peter Selinger 2001-2019
</metadata>
<g transform="translate(0.000000,32.000000) scale(0.100000,-0.100000)"
fill="#000000" stroke="none">
<path fill="#000000" stroke="none" d="M123 307 c-65 -9 -73 -12 -73 -31 0
-12 6 -28 12 -34 9 -9 9 -15 3 -20 -24 -16 -55 -66 -55 -88 0 -12 9 -29 20
-37 13 -9 20 -27 22 -55 l3 -42 133 0 c133 0 133 0 130 23 -2 15 -11 23 -30
25 -35 4 -42 26 -12 42 19 11 24 21 24 52 0 21 5 38 10 38 6 0 10 27 9 65 -1
35 -4 64 -8 63 -3 0 -8 1 -11 2 -39 15 -94 -8 -84 -35 4 -8 1 -15 -4 -15 -17
0 -25 21 -13 33 13 13 15 28 4 26 -5 -1 -41 -6 -80 -12z"/>
<path fill="#ffffff" stroke="none" d="M306 275 c1 -9 -3 -14 -9 -12 -7 2 -13
14 -13 26 -1 16 2 19 9 12 6 -6 12 -18 13 -26z"/>
<path fill="#ffffff" stroke="none" d="M250 274 c-15 -17 -17 -17 -23 -1 -3 8
3 14 15 14 16 2 17 -1 8 -13z"/>
</g>
</svg>
