<?xml version="1.0" standalone="no"?>
<!DOCTYPE svg PUBLIC "-//W3C//DTD SVG 20010904//EN"
 "http://www.w3.org/TR/2001/REC-SVG-20010904/DTD/svg10.dtd">
<svg version="1.0" xmlns="http://www.w3.org/2000/svg"
 width="32.000000pt" height="32.000000pt" viewBox="0 0 32.000000 32.000000"
 preserveAspectRatio="xMidYMid meet">
<metadata>
Created by potrace 1.16, written by Peter Selinger 2001-2019
</metadata>
<g transform="translate(0.000000,32.000000) scale(0.100000,-0.100000)"
fill="#000000" stroke="none">
<path fill="#000000" stroke="none" d="M0 159 l0 -160 28 3 c25 3 27 6 23 43
-2 24 -10 45 -22 53 -10 7 -19 24 -19 36 0 22 31 72 55 88 6 5 6 11 -3 20 -6
6 -12 22 -12 34 0 19 8 22 73 31 l72 10 -97 2 -98 1 0 -161z"/>
<path fill="#000000" stroke="none" d="M202 300 c-21 -34 7 -51 46 -27 6 5 12
4 12 -2 0 -5 12 -9 27 -8 22 2 27 8 28 29 2 23 -2 27 -22 26 -12 -1 -23 -6
-23 -11 0 -4 6 -7 13 -5 7 2 12 -1 12 -7 0 -5 -3 -9 -7 -7 -5 1 -8 -3 -8 -9 0
-8 -4 -8 -13 0 -8 6 -24 9 -38 6 l-24 -4 24 19 c21 18 21 20 5 20 -11 0 -25
-9 -32 -20z"/>
<path fill="#000000" stroke="none" d="M290 209 c0 -5 5 -7 10 -4 6 3 10 8 10
11 0 2 -4 4 -10 4 -5 0 -10 -5 -10 -11z"/>
<path fill="#000000" stroke="none" d="M300 142 c0 -31 -5 -41 -24 -52 -31
-16 -24 -37 15 -42 l29 -5 0 69 c0 39 -4 68 -10 68 -5 0 -10 -17 -10 -38z"/>
</g>
</svg>
