<?xml version="1.0" standalone="no"?>
<!DOCTYPE svg PUBLIC "-//W3C//DTD SVG 20010904//EN"
 "http://www.w3.org/TR/2001/REC-SVG-20010904/DTD/svg10.dtd">
<svg version="1.0" xmlns="http://www.w3.org/2000/svg"
 width="32.000000pt" height="32.000000pt" viewBox="0 0 32.000000 32.000000"
 preserveAspectRatio="xMidYMid meet">
<metadata>
Created by potrace 1.16, written by Peter Selinger 2001-2019
</metadata>
<g transform="translate(0.000000,32.000000) scale(0.100000,-0.100000)"
fill="#000000" stroke="none">
<path fill="#000000" stroke="none" d="M0 160 l0 -160 160 0 160 0 0 160 0
160 -160 0 -160 0 0 -160z"/>
<path fill="#ffffff" stroke="none" d="M146 298 c5 -7 2 -8 -7 -3 -12 8 -12 6
0 -8 8 -10 9 -17 3 -17 -6 0 -12 -12 -14 -27 -2 -22 -9 -29 -31 -31 -27 -3
-28 -2 -16 19 11 22 12 22 25 4 12 -16 14 -16 14 -3 0 18 -33 34 -38 19 -5
-16 -29 -13 -36 5 -4 10 -2 13 7 8 9 -5 9 -4 0 6 -8 9 -8 16 -1 24 15 15 85
18 94 4z"/>
<path fill="#ffffff" stroke="none" d="M258 244 c46 -23 59 -51 35 -74 -11 -9
-29 -23 -41 -29 -13 -7 -21 -15 -18 -19 3 -4 -7 -9 -22 -10 -14 -1 -29 -8 -34
-15 -6 -9 -8 -9 -8 1 0 7 10 17 23 22 21 8 21 9 2 9 -12 1 -26 -4 -33 -11 -6
-6 -14 -9 -17 -6 -3 3 9 13 27 21 27 13 29 17 12 17 -26 0 -49 -25 -49 -54 0
-12 -5 -20 -11 -19 -9 2 -9 -4 0 -22 6 -14 16 -25 21 -25 6 0 3 -5 -5 -10 -8
-5 -24 -10 -35 -10 -19 1 -19 1 -2 14 17 14 24 32 8 21 -19 -11 -21 15 -4 54
10 23 25 41 33 41 13 0 13 1 0 10 -12 7 -11 9 5 8 26 -1 106 21 122 34 15 12
-5 38 -24 31 -7 -3 -13 1 -13 7 0 9 -6 8 -18 -4 -18 -15 -20 -15 -36 3 -18 19
-27 50 -19 63 2 4 18 -1 36 -12 18 -11 47 -27 65 -36z"/>
<path fill="#ffffff" stroke="none" d="M97 183 c-9 -8 -48 8 -42 18 4 5 14 5
26 -2 12 -6 18 -13 16 -16z"/>
<path fill="#ffffff" stroke="none" d="M150 185 c0 -9 -6 -12 -16 -8 -13 5
-13 7 -2 14 17 11 18 11 18 -6z"/>
<path fill="#ffffff" stroke="none" d="M195 184 c0 -5 -8 -10 -17 -12 -11 -2
-18 3 -18 11 0 9 8 14 18 13 9 -2 17 -7 17 -12z"/>
<path fill="#ffffff" stroke="none" d="M67 161 c-1 -12 -6 -17 -15 -13 -12 4
-12 1 -3 -16 10 -18 9 -20 -9 -17 -14 3 -20 -2 -20 -15 0 -26 10 -50 21 -50 6
0 5 10 -2 21 -6 13 -7 19 -1 15 6 -3 12 -2 14 3 1 5 10 2 18 -7 13 -14 12 -15
-3 -9 -9 3 -17 2 -17 -3 0 -6 6 -10 13 -10 8 0 7 -4 -3 -10 -13 -9 -13 -10 0
-10 11 -1 11 -3 -3 -11 -19 -11 -29 -7 -34 14 -1 7 -5 24 -9 39 -4 19 1 38 16
63 24 39 40 45 37 16z"/>
<path fill="#ffffff" stroke="none" d="M280 136 c0 -2 -7 -7 -16 -10 -8 -3
-12 -2 -9 4 6 10 25 14 25 6z"/>
<path fill="#ffffff" stroke="none" d="M233 85 c-4 -15 -36 -12 -41 3 -3 9 3
13 19 10 13 -1 23 -7 22 -13z"/>
<path fill="#ffffff" stroke="none" d="M259 48 c11 -29 0 -41 -30 -36 l-24 5
24 10 c21 8 22 11 7 16 -10 4 -14 11 -11 17 10 17 25 11 34 -12z"/>
<path fill="#000000" stroke="none" d="M165 260 c3 -5 8 -10 11 -10 2 0 4 5 4
10 0 6 -5 10 -11 10 -5 0 -7 -4 -4 -10z"/>
</g>
</svg>
