<?xml version="1.0" standalone="no"?>
<!DOCTYPE svg PUBLIC "-//W3C//DTD SVG 20010904//EN"
 "http://www.w3.org/TR/2001/REC-SVG-20010904/DTD/svg10.dtd">
<svg version="1.0" xmlns="http://www.w3.org/2000/svg"
 width="32.000000pt" height="32.000000pt" viewBox="0 0 32.000000 32.000000"
 preserveAspectRatio="xMidYMid meet">
<metadata>
Created by potrace 1.16, written by Peter Selinger 2001-2019
</metadata>
<g transform="translate(0.000000,32.000000) scale(0.100000,-0.100000)"
fill="#000000" stroke="none">
<path fill="#000000" stroke="none" d="M50 238 c3 -73 3 -75 -20 -81 -14 -3
-20 -14 -20 -31 0 -19 5 -26 20 -26 11 0 20 -5 20 -10 0 -6 10 -8 24 -4 22 5
25 2 28 -28 2 -18 -3 -37 -10 -43 -8 -7 9 -11 59 -13 52 -3 74 0 80 10 7 10
11 10 21 0 6 -6 25 -12 41 -12 28 0 29 1 22 42 -9 52 -12 58 -31 58 -9 0 -14
11 -14 33 0 33 -34 79 -49 67 -3 -3 -7 6 -9 20 -8 72 -6 70 -88 70 l-76 0 2
-52z"/>
<path fill="#ffffff" stroke="none" d="M180 265 c-7 -9 -15 -13 -17 -11 -7 7
7 26 19 26 6 0 6 -6 -2 -15z"/>
<path fill="#ffffff" stroke="none" d="M124 246 c-10 -8 -16 -18 -12 -22 4 -4
16 -1 25 7 17 12 17 12 1 -5 -10 -12 -21 -15 -30 -10 -7 5 -22 8 -33 6 -17 -2
-17 -1 3 8 12 5 22 14 22 20 0 5 10 10 22 10 21 0 21 0 2 -14z"/>
<path fill="#ffffff" stroke="none" d="M170 196 c0 -2 -8 -10 -17 -17 -16 -13
-17 -12 -4 4 13 16 21 21 21 13z"/>
<path fill="#ffffff" stroke="none" d="M215 181 c3 -5 1 -12 -5 -16 -5 -3 -10
1 -10 9 0 18 6 21 15 7z"/>
<path fill="#ffffff" stroke="none" d="M167 164 c-3 -4 1 -20 9 -36 16 -31 8
-63 -8 -34 -19 34 -19 76 -1 76 4 0 4 -3 0 -6z"/>
<path fill="#ffffff" stroke="none" d="M100 145 c0 -11 -68 -11 -78 0 -4 5 1
5 11 2 9 -4 17 -2 17 4 0 6 11 9 25 7 14 -2 25 -7 25 -13z"/>
<path fill="#ffffff" stroke="none" d="M254 135 c-4 -8 -10 -13 -15 -10 -4 3
-6 12 -3 20 4 8 10 13 15 10 4 -3 6 -12 3 -20z"/>
<path fill="#ffffff" stroke="none" d="M127 103 c-3 -10 -5 -4 -5 12 0 17 2
24 5 18 2 -7 2 -21 0 -30z"/>
<path fill="#ffffff" stroke="none" d="M230 56 c-13 -13 -35 7 -25 24 5 8 11
8 21 -1 10 -8 12 -15 4 -23z"/>
<path fill="#ffffff" stroke="none" d="M125 71 c3 -5 1 -12 -5 -16 -5 -3 -10
1 -10 9 0 18 6 21 15 7z"/>
<path fill="#ffffff" stroke="none" d="M190 36 c0 -3 -4 -8 -10 -11 -5 -3 -10
-1 -10 4 0 6 5 11 10 11 6 0 10 -2 10 -4z"/>
</g>
</svg>
