<?xml version="1.0" standalone="no"?>
<!DOCTYPE svg PUBLIC "-//W3C//DTD SVG 20010904//EN"
 "http://www.w3.org/TR/2001/REC-SVG-20010904/DTD/svg10.dtd">
<svg version="1.0" xmlns="http://www.w3.org/2000/svg"
 width="32.000000pt" height="32.000000pt" viewBox="0 0 32.000000 32.000000"
 preserveAspectRatio="xMidYMid meet">
<metadata>
Created by potrace 1.16, written by Peter Selinger 2001-2019
</metadata>
<g transform="translate(0.000000,32.000000) scale(0.100000,-0.100000)"
fill="#000000" stroke="none">
<path fill="#000000" stroke="none" d="M0 160 l0 -160 160 0 160 0 0 160 0
160 -60 0 c-50 0 -58 -2 -53 -16 4 -12 14 -14 37 -10 24 4 27 3 14 -5 -10 -5
-18 -15 -18 -21 0 -7 6 -6 15 2 13 11 14 10 9 -5 -5 -11 -4 -16 3 -12 6 4 16
-11 23 -33 11 -34 11 -42 -4 -64 -13 -21 -14 -30 -5 -48 25 -49 29 -58 29 -78
0 -18 -6 -19 -112 -17 l-112 2 -10 33 c-7 26 -5 41 8 69 12 24 20 33 25 25 5
-9 12 -7 26 8 10 11 13 20 7 20 -6 0 -14 -5 -17 -10 -5 -8 -12 -7 -23 2 -10 8
-13 9 -9 1 4 -6 3 -14 -3 -18 -5 -3 -10 -1 -10 4 0 6 -8 11 -18 11 -28 0 -42
20 -42 60 0 63 31 78 121 58 6 -2 14 4 16 12 4 13 3 13 -7 0 -10 -13 -11 -13
-7 0 6 24 37 25 37 1 0 -14 -8 -23 -25 -27 -29 -7 -30 -13 -10 -40 10 -13 14
-14 15 -5 0 10 3 11 13 2 11 -8 18 -6 32 9 10 11 15 20 10 20 -4 0 -14 -8 -22
-17 -13 -16 -14 -16 -9 -1 4 13 0 16 -17 13 -21 -4 -21 -4 -3 10 10 8 23 12
27 9 12 -7 11 13 -1 37 -9 17 -22 19 -100 19 l-90 0 0 -160z"/>
<path fill="#000000" stroke="none" d="M41 267 c-16 -21 -10 -89 9 -95 12 -3
12 -2 2 6 -11 8 -11 10 2 15 29 11 37 43 18 67 -16 20 -19 20 -31 7z"/>
<path fill="#ffffff" stroke="none" d="M68 229 c-5 -35 -28 -36 -28 -1 0 16 3
32 7 36 11 11 25 -10 21 -35z"/>
<path fill="#000000" stroke="none" d="M109 243 c-5 -38 -3 -48 10 -48 21 0
23 18 6 40 -9 12 -15 15 -16 8z"/>
<path fill="#000000" stroke="none" d="M240 230 c0 -5 5 -10 11 -10 5 0 7 5 4
10 -3 6 -8 10 -11 10 -2 0 -4 -4 -4 -10z"/>
<path fill="#000000" stroke="none" d="M217 164 c-4 -4 -2 -13 4 -20 6 -8 9
-20 6 -28 -4 -10 -1 -13 9 -9 17 6 17 11 1 41 -7 12 -16 20 -20 16z"/>
<path fill="#000000" stroke="none" d="M125 111 c-7 -12 12 -24 25 -16 11 7 4
25 -10 25 -5 0 -11 -4 -15 -9z"/>
<path fill="#000000" stroke="none" d="M170 109 c0 -5 5 -7 10 -4 6 3 10 8 10
11 0 2 -4 4 -10 4 -5 0 -10 -5 -10 -11z"/>
<path fill="#000000" stroke="none" d="M263 85 c0 -8 4 -12 9 -9 5 3 6 10 3
15 -9 13 -12 11 -12 -6z"/>
</g>
</svg>
