<?xml version="1.0" standalone="no"?>
<!DOCTYPE svg PUBLIC "-//W3C//DTD SVG 20010904//EN"
 "http://www.w3.org/TR/2001/REC-SVG-20010904/DTD/svg10.dtd">
<svg version="1.0" xmlns="http://www.w3.org/2000/svg"
 width="32.000000pt" height="32.000000pt" viewBox="0 0 32.000000 32.000000"
 preserveAspectRatio="xMidYMid meet">
<metadata>
Created by potrace 1.16, written by Peter Selinger 2001-2019
</metadata>
<g transform="translate(0.000000,32.000000) scale(0.100000,-0.100000)"
fill="#000000" stroke="none">
<path fill="#000000" stroke="none" d="M77 313 c46 -2 120 -2 166 0 45 1 8 3
-83 3 -91 0 -128 -2 -83 -3z"/>
<path fill="#000000" stroke="none" d="M260 275 c0 -8 -5 -15 -11 -15 -5 0 -7
-5 -4 -10 4 -6 10 -8 15 -5 5 3 11 1 15 -5 9 -15 25 -12 25 5 0 8 -4 15 -10
15 -5 0 -10 7 -10 15 0 8 -4 15 -10 15 -5 0 -10 -7 -10 -15z"/>
<path fill="#000000" stroke="none" d="M6 20 c5 -5 25 -12 44 -15 36 -5 29 -1
-25 16 -20 6 -26 6 -19 -1z"/>
<path fill="#000000" stroke="none" d="M275 14 c-40 -14 -40 -14 -5 -9 19 3
39 10 44 15 12 12 12 12 -39 -6z"/>
</g>
</svg>
