<?xml version="1.0" standalone="no"?>
<!DOCTYPE svg PUBLIC "-//W3C//DTD SVG 20010904//EN"
 "http://www.w3.org/TR/2001/REC-SVG-20010904/DTD/svg10.dtd">
<svg version="1.0" xmlns="http://www.w3.org/2000/svg"
 width="32.000000pt" height="32.000000pt" viewBox="0 0 32.000000 32.000000"
 preserveAspectRatio="xMidYMid meet">
<metadata>
Created by potrace 1.16, written by Peter Selinger 2001-2019
</metadata>
<g transform="translate(0.000000,32.000000) scale(0.100000,-0.100000)"
fill="#000000" stroke="none">
<path fill="#000000" stroke="none" d="M53 256 c1 -43 6 -67 15 -71 7 -3 11
-1 8 3 -2 4 5 8 17 9 12 0 16 -1 10 -4 -7 -3 -13 -13 -13 -24 0 -21 -8 -23
-30 -9 -19 12 -40 -6 -40 -36 0 -27 42 -59 64 -51 19 8 26 -44 8 -58 -8 -7 11
-11 64 -13 56 -3 79 0 85 10 7 10 11 10 21 0 6 -6 22 -12 34 -12 20 0 22 5 22
45 0 25 -4 45 -8 45 -5 0 -12 16 -16 36 -5 27 -3 38 11 48 15 11 17 23 12 71
-3 32 -12 62 -19 67 -20 12 -61 5 -65 -12 -4 -13 -3 -13 5 -1 8 11 10 8 9 -12
-1 -16 -6 -22 -11 -16 -18 17 -27 9 -15 -13 10 -19 9 -21 -2 -10 -8 7 -14 25
-14 40 0 27 -1 27 -77 30 l-77 3 2 -65z"/>
<path fill="#ffffff" stroke="none" d="M165 273 c-29 -31 -36 -35 -49 -24 -13
11 -16 11 -16 -1 0 -8 -7 -15 -15 -15 -8 0 -15 6 -15 14 0 7 7 13 15 13 9 0
18 7 21 15 4 8 19 15 34 15 16 0 32 5 35 10 3 6 10 10 15 10 5 0 -6 -17 -25
-37z"/>
<path fill="#ffffff" stroke="none" d="M307 218 c-2 -13 -4 -5 -4 17 -1 22 1
32 4 23 2 -10 2 -28 0 -40z"/>
<path fill="#ffffff" stroke="none" d="M287 235 c7 -20 -27 -60 -37 -44 -8 12
10 59 23 59 4 0 10 -7 14 -15z"/>
<path fill="#ffffff" stroke="none" d="M180 226 c0 -2 -8 -10 -17 -17 -16 -13
-17 -12 -4 4 13 16 21 21 21 13z"/>
<path fill="#ffffff" stroke="none" d="M212 175 c2 -6 -16 -11 -39 -13 -37 -3
-53 5 -39 19 9 8 76 3 78 -6z"/>
<path fill="#ffffff" stroke="none" d="M106 142 c-8 -23 -33 -36 -42 -21 -3 6
3 13 15 16 12 3 21 12 21 21 0 8 3 13 6 9 3 -3 3 -14 0 -25z"/>
<path fill="#ffffff" stroke="none" d="M170 113 c0 -19 -3 -24 -10 -17 -6 6
-8 18 -4 27 9 24 14 21 14 -10z"/>
<path fill="#ffffff" stroke="none" d="M240 56 c-13 -13 -35 7 -25 24 5 8 11
8 21 -1 10 -8 12 -15 4 -23z"/>
<path fill="#ffffff" stroke="none" d="M125 71 c3 -5 1 -12 -5 -16 -5 -3 -10
1 -10 9 0 18 6 21 15 7z"/>
<path fill="#000000" stroke="none" d="M125 269 c-12 -19 5 -23 22 -6 16 16
16 17 1 17 -9 0 -20 -5 -23 -11z"/>
</g>
</svg>
