<?xml version="1.0" standalone="no"?>
<!DOCTYPE svg PUBLIC "-//W3C//DTD SVG 20010904//EN"
 "http://www.w3.org/TR/2001/REC-SVG-20010904/DTD/svg10.dtd">
<svg version="1.0" xmlns="http://www.w3.org/2000/svg"
 width="32.000000pt" height="32.000000pt" viewBox="0 0 32.000000 32.000000"
 preserveAspectRatio="xMidYMid meet">
<metadata>
Created by potrace 1.16, written by Peter Selinger 2001-2019
</metadata>
<g transform="translate(0.000000,32.000000) scale(0.100000,-0.100000)"
fill="#000000" stroke="none">
<path fill="#000000" stroke="none" d="M163 310 c-13 -5 -23 -14 -23 -19 0 -6
-21 -9 -47 -8 -34 1 -47 -2 -45 -11 1 -6 -4 -11 -10 -10 -9 2 -14 -13 -16 -45
-3 -45 -2 -48 27 -53 35 -7 44 -25 29 -59 -7 -17 -8 -35 -2 -57 l10 -33 112
-2 c106 -3 112 -2 112 17 0 20 -4 29 -29 78 -9 18 -8 27 5 48 15 21 15 30 5
62 -7 21 -14 50 -14 65 -2 28 -11 35 -22 17 -9 -15 -42 -12 -49 5 -6 17 -12
18 -43 5z"/>
<path fill="#ffffff" stroke="none" d="M200 272 c0 -7 -4 -11 -10 -7 -5 3 -18
-3 -29 -14 -11 -11 -23 -16 -26 -11 -3 6 5 15 19 22 16 7 26 19 26 32 0 17 2
18 10 6 5 -8 10 -21 10 -28z"/>
<path fill="#ffffff" stroke="none" d="M136 218 c3 -4 -1 -5 -10 -4 -8 1 -18
5 -22 8 -3 4 1 5 10 4 8 -1 18 -5 22 -8z"/>
<path fill="#ffffff" stroke="none" d="M275 91 c3 -5 2 -12 -3 -15 -5 -3 -9 1
-9 9 0 17 3 19 12 6z"/>
<path fill="#000000" stroke="none" d="M290 305 c0 -8 5 -15 10 -15 6 0 10 7
10 15 0 8 -4 15 -10 15 -5 0 -10 -7 -10 -15z"/>
</g>
</svg>
