<?xml version="1.0" standalone="no"?>
<!DOCTYPE svg PUBLIC "-//W3C//DTD SVG 20010904//EN"
 "http://www.w3.org/TR/2001/REC-SVG-20010904/DTD/svg10.dtd">
<svg version="1.0" xmlns="http://www.w3.org/2000/svg"
 width="32.000000pt" height="32.000000pt" viewBox="0 0 32.000000 32.000000"
 preserveAspectRatio="xMidYMid meet">
<metadata>
Created by potrace 1.16, written by Peter Selinger 2001-2019
</metadata>
<g transform="translate(0.000000,32.000000) scale(0.100000,-0.100000)"
fill="#000000" stroke="none">
<path fill="#000000" stroke="none" d="M77 313 c46 -2 120 -2 166 0 45 1 8 3
-83 3 -91 0 -128 -2 -83 -3z"/>
<path fill="#000000" stroke="none" d="M260 275 c0 -8 -5 -15 -11 -15 -5 0 -7
-5 -4 -10 4 -6 10 -8 15 -5 5 3 11 1 15 -5 9 -15 25 -12 25 5 0 8 -4 15 -10
15 -5 0 -10 7 -10 15 0 8 -4 15 -10 15 -5 0 -10 -7 -10 -15z"/>
<path fill="#000000" stroke="none" d="M122 120 c0 -14 2 -19 5 -12 2 6 2 18
0 25 -3 6 -5 1 -5 -13z"/>
<path fill="#000000" stroke="none" d="M55 60 c-3 -5 1 -10 9 -10 9 0 16 5 16
10 0 6 -4 10 -9 10 -6 0 -13 -4 -16 -10z"/>
<path fill="#000000" stroke="none" d="M7 53 c-25 -24 5 -52 56 -53 32 0 18
18 -20 26 -23 4 -31 9 -20 11 9 3 17 9 17 14 0 10 -23 12 -33 2z"/>
<path fill="#000000" stroke="none" d="M284 47 l28 -14 -38 -16 c-39 -16 -23
-23 24 -11 24 7 31 44 8 44 -8 0 -23 2 -33 5 -10 3 -5 -1 11 -8z"/>
<path fill="#000000" stroke="none" d="M170 10 l-35 -7 32 -2 c17 0 35 4 38 9
3 6 5 9 3 9 -2 -1 -19 -5 -38 -9z"/>
</g>
</svg>
