<?xml version="1.0" standalone="no"?>
<!DOCTYPE svg PUBLIC "-//W3C//DTD SVG 20010904//EN"
 "http://www.w3.org/TR/2001/REC-SVG-20010904/DTD/svg10.dtd">
<svg version="1.0" xmlns="http://www.w3.org/2000/svg"
 width="32.000000pt" height="32.000000pt" viewBox="0 0 32.000000 32.000000"
 preserveAspectRatio="xMidYMid meet">
<metadata>
Created by potrace 1.16, written by Peter Selinger 2001-2019
</metadata>
<g transform="translate(0.000000,32.000000) scale(0.100000,-0.100000)"
fill="#000000" stroke="none">
<path fill="#000000" stroke="none" d="M0 160 l0 -160 160 0 160 0 0 160 0
160 -58 0 -59 0 5 -31 4 -30 22 20 c12 12 26 21 32 21 5 0 1 -5 -8 -11 -10 -5
-18 -15 -18 -21 0 -6 7 -5 17 3 12 10 15 10 9 1 -4 -7 1 -23 13 -38 25 -32 26
-52 6 -81 -13 -18 -13 -27 -4 -45 25 -48 29 -58 29 -78 0 -18 -6 -19 -112 -17
l-113 3 -9 32 c-6 22 -5 41 2 57 14 30 6 55 -17 55 -27 0 -41 21 -41 60 0 51
26 73 78 65 30 -4 41 -2 45 10 9 22 37 19 37 -5 0 -25 -20 -27 -20 -2 -1 12
-5 10 -15 -9 -8 -15 -21 -29 -30 -33 -22 -8 -18 -26 5 -21 11 2 22 0 25 -4 2
-5 -4 -8 -15 -7 -31 2 -24 -18 9 -25 39 -8 88 28 77 57 -8 18 -8 18 -17 -3 -4
-13 -11 -23 -15 -23 -3 0 -4 6 -1 14 4 11 0 14 -16 11 -21 -4 -21 -4 -3 10 10
8 23 12 27 9 12 -7 11 13 -1 37 -9 17 -22 19 -100 19 l-90 0 0 -160z"/>
<path fill="#000000" stroke="none" d="M40 266 c-14 -18 -9 -89 8 -92 7 -1 8
0 3 2 -5 3 2 16 16 30 16 16 23 32 20 45 -4 15 -2 18 7 10 8 -7 17 -6 26 1 12
8 12 9 -2 4 -10 -3 -20 -1 -23 4 -9 15 -41 12 -55 -4z"/>
<path fill="#ffffff" stroke="none" d="M68 229 c-5 -35 -28 -36 -28 -1 0 16 3
32 7 36 11 11 25 -10 21 -35z"/>
<path fill="#000000" stroke="none" d="M226 231 c0 -19 6 -26 20 -26 26 0 25
36 -1 45 -18 7 -20 4 -19 -19z"/>
<path fill="#000000" stroke="none" d="M122 158 c-18 -18 -22 -19 -16 -5 3 9
2 17 -4 17 -6 0 -9 -8 -8 -17 4 -24 55 -27 81 -5 19 16 19 16 6 0 -8 -11 -9
-18 -3 -18 6 0 15 7 20 17 9 14 11 14 21 -6 7 -12 9 -25 6 -30 -3 -5 4 -7 15
-4 11 3 21 0 21 -6 1 -6 2 -17 3 -23 1 -7 -3 -17 -9 -21 -6 -5 -4 -7 5 -4 22
6 17 37 -14 86 -21 33 -30 40 -41 31 -9 -8 -15 -8 -20 0 -5 8 -11 7 -23 -2
-12 -10 -14 -10 -8 0 12 20 -8 14 -32 -10z"/>
<path fill="#000000" stroke="none" d="M90 105 c-9 -11 -9 -22 -2 -44 6 -16 8
-31 6 -34 -3 -2 7 -2 21 0 26 5 32 17 15 28 -5 3 -10 11 -10 17 0 7 6 6 15 -2
13 -10 15 -9 15 9 0 11 0 24 0 29 0 4 -6 7 -12 7 -7 0 -12 -5 -11 -12 2 -7 -4
-10 -12 -7 -8 4 -12 10 -9 15 9 14 -2 10 -16 -6z"/>
<path fill="#000000" stroke="none" d="M164 93 c-11 -43 22 -74 61 -59 20 7 7
36 -13 29 -12 -3 -13 -2 -5 4 7 5 10 19 6 31 -5 19 -8 20 -21 10 -12 -10 -14
-10 -8 0 4 6 3 12 -3 12 -6 0 -14 -12 -17 -27z"/>
</g>
</svg>
