<?xml version="1.0" standalone="no"?>
<!DOCTYPE svg PUBLIC "-//W3C//DTD SVG 20010904//EN"
 "http://www.w3.org/TR/2001/REC-SVG-20010904/DTD/svg10.dtd">
<svg version="1.0" xmlns="http://www.w3.org/2000/svg"
 width="32.000000pt" height="32.000000pt" viewBox="0 0 32.000000 32.000000"
 preserveAspectRatio="xMidYMid meet">
<metadata>
Created by potrace 1.16, written by Peter Selinger 2001-2019
</metadata>
<g transform="translate(0.000000,32.000000) scale(0.100000,-0.100000)"
fill="#000000" stroke="none">
<path fill="#000000" stroke="none" d="M0 160 l0 -160 160 0 160 0 -1 163 c-1
133 -3 154 -12 120 -5 -24 -13 -43 -18 -43 -4 0 -2 -13 4 -29 9 -23 7 -34 -6
-55 -14 -21 -15 -30 -6 -48 25 -49 29 -58 29 -78 0 -19 -6 -20 -112 -17 l-112
2 -10 33 c-6 22 -5 40 2 57 15 33 6 52 -29 59 -27 5 -29 9 -29 49 0 59 23 80
79 72 26 -4 41 -2 41 5 0 6 10 15 23 20 15 6 -5 9 -70 9 l-93 1 0 -160z"/>
<path fill="#000000" stroke="none" d="M206 305 c7 -17 40 -20 49 -4 4 6 13 8
21 5 8 -3 14 -1 14 4 0 6 -20 10 -45 10 -35 0 -43 -3 -39 -15z"/>
</g>
</svg>
