<?xml version="1.0" standalone="no"?>
<!DOCTYPE svg PUBLIC "-//W3C//DTD SVG 20010904//EN"
 "http://www.w3.org/TR/2001/REC-SVG-20010904/DTD/svg10.dtd">
<svg version="1.0" xmlns="http://www.w3.org/2000/svg"
 width="32.000000pt" height="32.000000pt" viewBox="0 0 32.000000 32.000000"
 preserveAspectRatio="xMidYMid meet">
<metadata>
Created by potrace 1.16, written by Peter Selinger 2001-2019
</metadata>
<g transform="translate(0.000000,32.000000) scale(0.100000,-0.100000)"
fill="#000000" stroke="none">
<path fill="#000000" stroke="none" d="M0 170 c0 -136 1 -141 23 -151 l22 -10
-22 5 c-13 2 -23 1 -23 -4 0 -4 72 -7 160 -7 88 0 160 3 160 7 0 5 -10 6 -22
4 l-23 -5 23 10 c21 10 22 15 22 151 l0 140 -160 0 -160 0 0 -140z"/>
<path fill="#ffffff" stroke="none" d="M280 275 c0 -8 5 -15 10 -15 6 0 10 -7
10 -15 0 -17 -16 -20 -25 -5 -4 6 -10 8 -15 5 -5 -3 -11 -1 -15 5 -3 5 -1 10
4 10 6 0 11 7 11 15 0 8 5 15 10 15 6 0 10 -7 10 -15z"/>
</g>
</svg>
