<?xml version="1.0" standalone="no"?>
<!DOCTYPE svg PUBLIC "-//W3C//DTD SVG 20010904//EN"
 "http://www.w3.org/TR/2001/REC-SVG-20010904/DTD/svg10.dtd">
<svg version="1.0" xmlns="http://www.w3.org/2000/svg"
 width="32.000000pt" height="32.000000pt" viewBox="0 0 32.000000 32.000000"
 preserveAspectRatio="xMidYMid meet">
<metadata>
Created by potrace 1.16, written by Peter Selinger 2001-2019
</metadata>
<g transform="translate(0.000000,32.000000) scale(0.100000,-0.100000)"
fill="#000000" stroke="none">
<path fill="#000000" stroke="none" d="M134 306 c-3 -8 -4 -23 -2 -32 4 -25
-42 -69 -72 -69 -21 0 -26 -5 -28 -32 -2 -20 1 -33 8 -33 6 0 9 4 6 9 -3 5 12
11 34 13 33 3 39 1 34 -12 -4 -8 -9 -40 -12 -70 -2 -30 -9 -61 -14 -67 -8 -10
11 -13 90 -13 117 0 132 4 132 36 0 27 -15 30 -66 15 -29 -8 -31 -7 -32 20 0
16 4 29 9 29 5 0 9 -7 9 -15 0 -19 19 -19 26 0 6 15 -43 152 -58 161 -4 3 -8
21 -8 40 0 30 -3 34 -25 34 -14 0 -28 -6 -31 -14z"/>
<path fill="#ffffff" stroke="none" d="M167 34 c-3 -3 -12 -4 -19 -1 -8 3 -5
6 6 6 11 1 17 -2 13 -5z"/>
</g>
</svg>
