<?xml version="1.0" standalone="no"?>
<!DOCTYPE svg PUBLIC "-//W3C//DTD SVG 20010904//EN"
 "http://www.w3.org/TR/2001/REC-SVG-20010904/DTD/svg10.dtd">
<svg version="1.0" xmlns="http://www.w3.org/2000/svg"
 width="32.000000pt" height="32.000000pt" viewBox="0 0 32.000000 32.000000"
 preserveAspectRatio="xMidYMid meet">
<metadata>
Created by potrace 1.16, written by Peter Selinger 2001-2019
</metadata>
<g transform="translate(0.000000,32.000000) scale(0.100000,-0.100000)"
fill="#000000" stroke="none">
<path fill="#000000" stroke="none" d="M103 274 c-21 -26 -46 -54 -56 -63 -20
-18 -23 -71 -4 -71 18 0 57 -62 57 -91 0 -14 -5 -30 -12 -37 -9 -9 10 -12 89
-12 118 0 133 4 133 36 0 27 -15 30 -68 15 -17 -5 -32 -7 -32 -3 0 14 15 27
30 27 8 0 17 13 20 30 4 17 13 40 20 52 13 20 9 27 -40 92 -66 87 -83 90 -137
25z"/>
</g>
</svg>
