<?xml version="1.0" standalone="no"?>
<!DOCTYPE svg PUBLIC "-//W3C//DTD SVG 20010904//EN"
 "http://www.w3.org/TR/2001/REC-SVG-20010904/DTD/svg10.dtd">
<svg version="1.0" xmlns="http://www.w3.org/2000/svg"
 width="32.000000pt" height="32.000000pt" viewBox="0 0 32.000000 32.000000"
 preserveAspectRatio="xMidYMid meet">
<metadata>
Created by potrace 1.16, written by Peter Selinger 2001-2019
</metadata>
<g transform="translate(0.000000,32.000000) scale(0.100000,-0.100000)"
fill="#000000" stroke="none">
<path fill="#000000" stroke="none" d="M0 159 l0 -159 24 0 c18 0 25 7 29 28
3 15 1 32 -4 38 -5 6 -4 15 3 22 8 8 4 20 -15 46 -35 45 -34 59 6 90 45 36 60
50 75 72 8 12 7 8 -1 -10 -8 -16 -32 -41 -53 -56 -21 -14 -40 -33 -42 -43 -4
-20 28 -66 46 -67 16 0 15 -15 -3 -34 -9 -9 -11 -17 -5 -21 6 -3 7 -17 4 -31
-5 -20 -2 -24 14 -24 12 0 33 12 48 27 l26 26 16 -25 c15 -25 59 -38 128 -38
l24 0 0 159 0 160 -160 0 -160 -1 0 -159z"/>
<path fill="#ffffff" stroke="none" d="M217 256 c12 -12 35 -31 52 -44 31 -24
40 -55 20 -68 -6 -3 -9 -18 -6 -33 7 -35 -30 -104 -48 -88 -6 6 -10 28 -9 48
2 38 2 39 -48 25 -29 -8 -79 10 -86 31 -2 9 4 8 25 -2 15 -8 35 -15 43 -15 26
0 59 29 62 55 2 18 7 22 17 15 12 -7 13 -13 2 -36 -18 -41 2 -52 28 -15 30 41
24 60 -27 94 -23 16 -49 43 -57 60 -9 18 -10 23 -3 13 7 -11 23 -29 35 -40z"/>
<path fill="#ffffff" stroke="none" d="M167 244 c2 -6 -10 -10 -27 -10 -30 0
-37 6 -23 20 10 10 46 3 50 -10z"/>
<path fill="#ffffff" stroke="none" d="M83 170 c-4 -16 -8 -18 -20 -9 -11 10
-11 14 -1 20 21 14 26 10 21 -11z"/>
<path fill="#000000" stroke="none" d="M127 23 c-14 -13 -6 -23 18 -23 16 0
25 6 25 15 0 15 -31 21 -43 8z"/>
</g>
</svg>
