<?xml version="1.0" standalone="no"?>
<!DOCTYPE svg PUBLIC "-//W3C//DTD SVG 20010904//EN"
 "http://www.w3.org/TR/2001/REC-SVG-20010904/DTD/svg10.dtd">
<svg version="1.0" xmlns="http://www.w3.org/2000/svg"
 width="32.000000pt" height="32.000000pt" viewBox="0 0 32.000000 32.000000"
 preserveAspectRatio="xMidYMid meet">
<metadata>
Created by potrace 1.16, written by Peter Selinger 2001-2019
</metadata>
<g transform="translate(0.000000,32.000000) scale(0.100000,-0.100000)"
fill="#000000" stroke="none">
<path fill="#000000" stroke="none" d="M109 285 c-12 -19 -25 -35 -29 -35 -16
0 -70 -52 -70 -67 0 -8 12 -30 26 -49 21 -27 24 -37 15 -48 -8 -9 -9 -16 -2
-20 6 -4 8 -20 4 -36 -5 -29 -4 -30 30 -30 22 0 37 6 41 15 3 8 15 15 26 15
11 0 20 -7 20 -15 0 -10 11 -15 35 -15 30 0 37 5 60 44 15 26 23 50 19 60 -4
10 -1 29 7 42 16 31 7 49 -45 84 -20 14 -45 40 -56 58 -26 43 -55 42 -81 -3z"/>
<path fill="#ffffff" stroke="none" d="M185 281 c8 -16 34 -42 57 -58 51 -34
57 -53 27 -94 -26 -37 -46 -26 -28 15 11 23 10 29 -2 36 -10 7 -15 3 -17 -15
-3 -26 -36 -55 -62 -55 -8 0 -28 7 -43 15 -21 10 -27 11 -25 2 7 -21 57 -39
86 -31 50 14 50 14 48 -27 -2 -21 1 -39 6 -39 4 0 8 -4 8 -10 0 -5 -12 -10
-28 -10 -19 0 -32 8 -44 27 l-16 26 -26 -26 c-15 -15 -36 -27 -48 -27 -16 0
-19 4 -14 24 3 14 2 28 -4 31 -6 4 -4 12 5 21 18 19 19 34 3 34 -18 1 -50 47
-46 67 2 10 21 29 42 43 21 15 45 39 53 53 18 36 49 35 68 -2z"/>
<path fill="#000000" stroke="none" d="M117 254 c-14 -14 -7 -20 23 -20 17 0
29 4 27 10 -4 13 -40 20 -50 10z"/>
<path fill="#000000" stroke="none" d="M62 181 c-10 -6 -10 -10 1 -20 12 -9
16 -7 20 9 5 21 0 25 -21 11z"/>
</g>
</svg>
