<?xml version="1.0" standalone="no"?>
<!DOCTYPE svg PUBLIC "-//W3C//DTD SVG 20010904//EN"
 "http://www.w3.org/TR/2001/REC-SVG-20010904/DTD/svg10.dtd">
<svg version="1.0" xmlns="http://www.w3.org/2000/svg"
 width="32.000000pt" height="32.000000pt" viewBox="0 0 32.000000 32.000000"
 preserveAspectRatio="xMidYMid meet">
<metadata>
Created by potrace 1.16, written by Peter Selinger 2001-2019
</metadata>
<g transform="translate(0.000000,32.000000) scale(0.100000,-0.100000)"
fill="#000000" stroke="none">
<path fill="#000000" stroke="none" d="M109 285 c-12 -19 -25 -35 -29 -35 -16
0 -70 -52 -70 -67 0 -8 12 -30 26 -49 21 -27 24 -37 15 -48 -8 -9 -9 -16 -2
-20 6 -4 8 -20 4 -36 -5 -29 -4 -30 30 -30 22 0 37 6 41 15 3 8 15 15 26 15
11 0 20 -7 20 -15 0 -10 11 -15 35 -15 30 0 37 5 60 44 15 26 23 50 19 60 -4
10 -1 29 7 42 16 31 7 49 -45 84 -20 14 -45 40 -56 58 -26 43 -55 42 -81 -3z"/>
<path fill="#ffffff" stroke="none" d="M178 294 c5 -9 7 -25 5 -35 -4 -14 -8
-16 -23 -7 -18 12 -50 5 -50 -10 0 -5 10 -8 23 -8 38 3 44 -9 7 -15 l-35 -5
28 -8 c22 -7 33 -4 53 15 13 12 24 17 24 10 0 -7 5 -9 10 -6 18 11 60 -23 60
-48 0 -21 -39 -82 -40 -62 0 6 5 16 12 23 7 7 9 12 5 12 -4 0 -3 9 3 20 9 17
8 20 -8 20 -11 0 -25 7 -32 15 -18 21 -32 19 -25 -5 5 -15 2 -20 -12 -20 -15
0 -14 -3 6 -16 18 -13 20 -18 10 -25 -18 -11 -70 -11 -88 0 -17 11 -5 31 19
31 10 0 21 4 24 8 2 4 -8 8 -22 7 -24 0 -27 4 -29 35 -3 67 50 119 75 74z"/>
<path fill="#ffffff" stroke="none" d="M90 233 c-1 -17 -28 -43 -46 -44 -11 0
-13 -3 -6 -6 6 -2 12 -11 12 -20 0 -22 -24 -10 -28 14 -2 13 7 29 24 42 27 22
44 27 44 14z"/>
<path fill="#ffffff" stroke="none" d="M80 140 c0 -5 -7 -10 -16 -10 -8 0 -12
5 -9 10 3 6 10 10 16 10 5 0 9 -4 9 -10z"/>
<path fill="#ffffff" stroke="none" d="M162 85 c24 2 26 0 16 -19 -15 -28 -23
-35 -14 -12 5 13 2 17 -9 13 -8 -4 -17 -2 -21 4 -4 6 -12 5 -22 -3 -15 -11
-15 -11 -5 3 7 9 9 20 5 25 -4 4 0 4 8 -2 8 -6 27 -10 42 -9z"/>
<path fill="#ffffff" stroke="none" d="M103 34 c-8 -22 -32 -17 -26 5 3 11 11
17 18 14 8 -2 11 -11 8 -19z"/>
<path fill="#ffffff" stroke="none" d="M230 55 c0 -2 -9 -9 -20 -15 -15 -8
-20 -8 -20 3 0 7 9 13 20 14 11 1 20 0 20 -2z"/>
<path fill="#ffffff" stroke="none" d="M237 24 c-3 -3 -12 -4 -19 -1 -8 3 -5
6 6 6 11 1 17 -2 13 -5z"/>
</g>
</svg>
