<?xml version="1.0" standalone="no"?>
<!DOCTYPE svg PUBLIC "-//W3C//DTD SVG 20010904//EN"
 "http://www.w3.org/TR/2001/REC-SVG-20010904/DTD/svg10.dtd">
<svg version="1.0" xmlns="http://www.w3.org/2000/svg"
 width="32.000000pt" height="32.000000pt" viewBox="0 0 32.000000 32.000000"
 preserveAspectRatio="xMidYMid meet">
<metadata>
Created by potrace 1.16, written by Peter Selinger 2001-2019
</metadata>
<g transform="translate(0.000000,32.000000) scale(0.100000,-0.100000)"
fill="#000000" stroke="none">
<path fill="#000000" stroke="none" d="M0 160 l0 -160 160 0 160 0 0 160 0
160 -160 0 -160 0 0 -160z"/>
<path fill="#ffffff" stroke="none" d="M210 215 c-7 -8 -10 -27 -8 -42 4 -27
2 -28 -34 -25 -34 4 -38 7 -37 31 2 23 2 24 6 4 6 -33 53 -33 53 0 0 13 5 28
12 35 17 17 23 15 8 -3z"/>
<path fill="#ffffff" stroke="none" d="M50 170 c0 -5 -5 -10 -11 -10 -5 0 -7
5 -4 10 3 6 8 10 11 10 2 0 4 -4 4 -10z"/>
<path fill="#ffffff" stroke="none" d="M205 120 c-3 -5 -23 -9 -43 -9 l-37 2
40 7 c22 4 41 8 43 9 2 0 0 -3 -3 -9z"/>
<path fill="#ffffff" stroke="none" d="M264 99 c-3 -5 -10 -7 -15 -3 -5 3 -7
10 -3 15 3 5 10 7 15 3 5 -3 7 -10 3 -15z"/>
</g>
</svg>
