<?xml version="1.0" standalone="no"?>
<!DOCTYPE svg PUBLIC "-//W3C//DTD SVG 20010904//EN"
 "http://www.w3.org/TR/2001/REC-SVG-20010904/DTD/svg10.dtd">
<svg version="1.0" xmlns="http://www.w3.org/2000/svg"
 width="32.000000pt" height="32.000000pt" viewBox="0 0 32.000000 32.000000"
 preserveAspectRatio="xMidYMid meet">
<metadata>
Created by potrace 1.16, written by Peter Selinger 2001-2019
</metadata>
<g transform="translate(0.000000,32.000000) scale(0.100000,-0.100000)"
fill="#000000" stroke="none">
<path fill="#000000" stroke="none" d="M0 160 l0 -160 38 0 c44 0 86 32 57 43
-20 8 -19 23 5 47 11 11 20 31 20 45 l0 25 -35 -17 c-33 -16 -35 -16 -54 8
-35 41 -19 69 19 34 16 -14 19 -13 36 12 57 85 46 123 -35 123 l-51 0 0 -160z"/>
<path fill="#000000" stroke="none" d="M125 310 c3 -5 13 -10 21 -10 8 0 14 5
14 10 0 6 -9 10 -21 10 -11 0 -17 -4 -14 -10z"/>
<path fill="#000000" stroke="none" d="M191 297 c28 -24 119 -152 119 -167 0
-12 -60 -56 -71 -52 -5 1 -2 -9 7 -22 8 -14 13 -29 10 -35 -7 -10 16 -21 45
-21 18 0 19 9 19 160 l0 160 -77 0 -78 0 26 -23z"/>
<path fill="#000000" stroke="none" d="M131 226 c-8 -10 -9 -16 -1 -21 6 -4 9
-1 8 6 -2 9 7 13 24 13 15 -1 25 3 22 7 -8 14 -40 11 -53 -5z"/>
<path fill="#000000" stroke="none" d="M220 138 c0 -13 5 -30 10 -38 8 -13 10
-12 10 3 0 9 5 17 10 17 17 0 11 19 -10 30 -17 9 -20 8 -20 -12z"/>
<path fill="#000000" stroke="none" d="M138 25 c3 -21 10 -25 37 -25 30 0 32
2 27 28 -4 19 -7 22 -10 10 -4 -22 -11 -22 -38 -3 -20 13 -21 13 -16 -10z"/>
</g>
</svg>
