<?xml version="1.0" standalone="no"?>
<!DOCTYPE svg PUBLIC "-//W3C//DTD SVG 20010904//EN"
 "http://www.w3.org/TR/2001/REC-SVG-20010904/DTD/svg10.dtd">
<svg version="1.0" xmlns="http://www.w3.org/2000/svg"
 width="32.000000pt" height="32.000000pt" viewBox="0 0 32.000000 32.000000"
 preserveAspectRatio="xMidYMid meet">
<metadata>
Created by potrace 1.16, written by Peter Selinger 2001-2019
</metadata>
<g transform="translate(0.000000,32.000000) scale(0.100000,-0.100000)"
fill="#000000" stroke="none">
<path fill="#000000" stroke="none" d="M10 160 l0 -160 145 0 c144 0 145 0
151 24 3 13 1 43 -4 67 -7 32 -10 37 -11 17 -1 -21 -5 -25 -21 -21 -19 5 -18
6 5 38 22 28 25 42 25 113 l0 82 -145 0 -145 0 0 -160z"/>
<path fill="#ffffff" stroke="none" d="M206 293 c1 -7 2 -18 3 -24 0 -5 6 -7
12 -3 6 3 9 15 6 25 -4 15 0 19 23 19 30 0 40 -18 40 -77 l0 -32 -45 30 c-41
28 -50 39 -46 62 0 4 -4 7 -10 7 -6 0 -8 -7 -5 -16 3 -9 6 -22 6 -30 0 -9 3
-13 8 -10 12 7 87 -48 90 -67 5 -23 -38 -81 -50 -69 -6 6 -6 17 2 31 12 23 5
45 -11 36 -13 -8 -11 -59 2 -72 6 -6 8 -17 3 -24 -11 -18 -13 -49 -2 -49 4 0
8 -4 8 -10 0 -5 -13 -10 -29 -10 -21 0 -32 6 -36 20 -8 26 -41 26 -57 0 -7
-11 -23 -20 -35 -20 -19 0 -21 5 -19 44 2 24 6 49 10 55 4 6 2 11 -4 11 -16 0
-49 41 -50 62 0 9 12 25 26 35 60 41 92 83 63 83 -5 0 -7 -6 -3 -12 5 -8 0 -7
-11 2 -17 14 -18 13 -12 -10 4 -21 -1 -29 -29 -47 l-34 -22 0 49 0 49 93 -2
c65 -1 92 -6 93 -14z"/>
<path fill="#ffffff" stroke="none" d="M54 62 c-4 -50 -8 -57 -23 -47 -6 3
-11 36 -11 73 0 67 0 67 19 43 13 -17 17 -36 15 -69z"/>
<path fill="#000000" stroke="none" d="M62 181 c-10 -6 -10 -10 1 -20 12 -9
16 -7 20 9 5 21 0 25 -21 11z"/>
</g>
</svg>
