<?xml version="1.0" standalone="no"?>
<!DOCTYPE svg PUBLIC "-//W3C//DTD SVG 20010904//EN"
 "http://www.w3.org/TR/2001/REC-SVG-20010904/DTD/svg10.dtd">
<svg version="1.0" xmlns="http://www.w3.org/2000/svg"
 width="32.000000pt" height="32.000000pt" viewBox="0 0 32.000000 32.000000"
 preserveAspectRatio="xMidYMid meet">
<metadata>
Created by potrace 1.16, written by Peter Selinger 2001-2019
</metadata>
<g transform="translate(0.000000,32.000000) scale(0.100000,-0.100000)"
fill="#000000" stroke="none">
<path fill="#000000" stroke="none" d="M0 160 l0 -160 160 0 160 0 0 160 0
160 -160 0 -160 0 0 -160z"/>
<path fill="#ffffff" stroke="none" d="M127 293 c2 -6 -4 -13 -13 -17 -14 -5
-15 -4 -4 9 8 10 9 15 2 15 -11 0 -38 -39 -35 -51 1 -3 -5 -6 -13 -6 -18 0
-18 7 1 34 11 16 12 22 2 26 -6 2 3 4 22 3 19 -1 36 -6 38 -13z"/>
<path fill="#ffffff" stroke="none" d="M221 263 c13 -17 13 -17 -6 -3 -11 8
-22 16 -24 17 -2 2 0 3 6 3 6 0 17 -8 24 -17z"/>
<path fill="#ffffff" stroke="none" d="M123 226 c8 5 7 2 -1 -7 -11 -12 -14
-12 -22 1 -8 12 -10 13 -10 1 0 -8 -2 -12 -5 -9 -3 3 -2 13 1 23 6 16 8 16 16
1 5 -9 15 -13 21 -10z"/>
<path fill="#ffffff" stroke="none" d="M301 214 c9 -11 2 -9 -18 6 -18 13 -33
25 -33 27 0 8 38 -17 51 -33z"/>
<path fill="#ffffff" stroke="none" d="M255 160 c-9 -15 -45 -32 -45 -22 0 5
10 14 23 20 29 14 29 14 22 2z"/>
<path fill="#ffffff" stroke="none" d="M172 150 c-12 -5 -32 -25 -43 -45 -23
-39 -36 -48 -18 -12 18 35 51 67 68 66 10 0 8 -4 -7 -9z"/>
<path fill="#ffffff" stroke="none" d="M190 133 c-8 -3 -22 -11 -30 -17 -13
-10 -13 -9 -1 7 7 9 21 17 30 16 13 0 14 -1 1 -6z"/>
<path fill="#ffffff" stroke="none" d="M210 116 c0 -2 -9 -6 -20 -9 -11 -3
-18 -1 -14 4 5 9 34 13 34 5z"/>
<path fill="#ffffff" stroke="none" d="M35 36 c2 -10 1 -16 -2 -12 -8 7 -10
16 -18 61 l-5 30 10 -30 c6 -16 13 -38 15 -49z"/>
<path fill="#ffffff" stroke="none" d="M67 75 c5 -4 2 -5 -6 0 -11 6 -13 4 -8
-8 9 -23 0 -21 -13 2 -7 15 -7 19 5 17 8 -1 18 -6 22 -11z"/>
<path fill="#ffffff" stroke="none" d="M123 13 c-7 -2 -19 -2 -25 0 -7 3 -2 5
12 5 14 0 19 -2 13 -5z"/>
<path fill="#ffffff" stroke="none" d="M243 13 c-7 -2 -19 -2 -25 0 -7 3 -2 5
12 5 14 0 19 -2 13 -5z"/>
</g>
</svg>
