<?xml version="1.0" standalone="no"?>
<!DOCTYPE svg PUBLIC "-//W3C//DTD SVG 20010904//EN"
 "http://www.w3.org/TR/2001/REC-SVG-20010904/DTD/svg10.dtd">
<svg version="1.0" xmlns="http://www.w3.org/2000/svg"
 width="32.000000pt" height="32.000000pt" viewBox="0 0 32.000000 32.000000"
 preserveAspectRatio="xMidYMid meet">
<metadata>
Created by potrace 1.16, written by Peter Selinger 2001-2019
</metadata>
<g transform="translate(0.000000,32.000000) scale(0.100000,-0.100000)"
fill="#000000" stroke="none">
<path fill="#000000" stroke="none" d="M2 233 l2 -88 3 82 c3 67 7 82 21 86
12 3 11 5 -5 6 -22 1 -23 -2 -21 -86z"/>
<path fill="#000000" stroke="none" d="M203 313 l97 -4 1 -77 c2 -134 5 -171
11 -177 3 -4 7 55 7 129 l2 136 -108 -2 -108 -2 98 -3z"/>
<path fill="#000000" stroke="none" d="M183 289 c10 -6 32 -15 48 -19 25 -7
29 -6 29 11 0 16 -7 19 -47 19 -39 -1 -44 -3 -30 -11z"/>
<path fill="#000000" stroke="none" d="M2 53 l-2 -53 48 2 47 1 -42 4 -42 4
-4 47 -3 47 -2 -52z"/>
<path fill="#000000" stroke="none" d="M145 10 c-18 -8 -17 -9 8 -9 16 -1 26
3 22 9 -3 6 -7 10 -8 9 -1 0 -11 -4 -22 -9z"/>
</g>
</svg>
