<?xml version="1.0" standalone="no"?>
<!DOCTYPE svg PUBLIC "-//W3C//DTD SVG 20010904//EN"
 "http://www.w3.org/TR/2001/REC-SVG-20010904/DTD/svg10.dtd">
<svg version="1.0" xmlns="http://www.w3.org/2000/svg"
 width="32.000000pt" height="32.000000pt" viewBox="0 0 32.000000 32.000000"
 preserveAspectRatio="xMidYMid meet">
<metadata>
Created by potrace 1.16, written by Peter Selinger 2001-2019
</metadata>
<g transform="translate(0.000000,32.000000) scale(0.100000,-0.100000)"
fill="#000000" stroke="none">
<path fill="#000000" stroke="none" d="M28 313 c-15 -4 -18 -18 -20 -86 -2
-81 2 -210 6 -214 2 -2 32 -4 69 -5 84 -4 98 8 67 54 -15 22 -9 18 19 -14 40
-44 43 -46 96 -46 50 1 55 3 55 23 0 12 -3 25 -7 29 -4 3 -9 62 -11 129 -2 67
-4 123 -5 123 -6 4 -255 10 -269 7z"/>
<path fill="#ffffff" stroke="none" d="M93 303 c3 -5 -8 -9 -24 -10 -17 -1
-27 2 -24 7 7 12 42 13 48 3z"/>
<path fill="#ffffff" stroke="none" d="M260 281 c0 -17 -4 -18 -29 -11 -16 4
-38 13 -48 19 -14 8 -9 10 30 11 40 0 47 -3 47 -19z"/>
<path fill="#ffffff" stroke="none" d="M64 271 c3 -5 -2 -15 -12 -22 -15 -12
-16 -12 -5 2 7 9 10 19 6 22 -3 4 -4 7 0 7 3 0 8 -4 11 -9z"/>
<path fill="#ffffff" stroke="none" d="M169 266 c-2 -2 -15 -9 -29 -16 -23
-12 -24 -12 -11 3 7 10 20 17 29 17 8 0 13 -2 11 -4z"/>
<path fill="#ffffff" stroke="none" d="M203 235 c-3 -9 -8 -14 -10 -11 -3 3
-2 9 2 15 9 16 15 13 8 -4z"/>
<path fill="#ffffff" stroke="none" d="M29 120 c11 -24 11 -24 -3 -6 -9 11
-16 24 -16 30 0 12 5 7 19 -24z"/>
<path fill="#ffffff" stroke="none" d="M70 115 c0 -5 -5 -3 -10 5 -5 8 -10 20
-10 25 0 6 5 3 10 -5 5 -8 10 -19 10 -25z"/>
<path fill="#ffffff" stroke="none" d="M113 120 c3 -11 1 -18 -4 -14 -5 3 -9
12 -9 20 0 20 7 17 13 -6z"/>
<path fill="#ffffff" stroke="none" d="M170 115 c14 -19 14 -19 -2 -6 -10 7
-18 18 -18 24 0 6 1 8 3 6 1 -2 9 -13 17 -24z"/>
<path fill="#ffffff" stroke="none" d="M270 65 c0 -12 -19 -12 -23 0 -4 9 -1
12 9 8 7 -3 14 -7 14 -8z"/>
</g>
</svg>
