<?xml version="1.0" standalone="no"?>
<!DOCTYPE svg PUBLIC "-//W3C//DTD SVG 20010904//EN"
 "http://www.w3.org/TR/2001/REC-SVG-20010904/DTD/svg10.dtd">
<svg version="1.0" xmlns="http://www.w3.org/2000/svg"
 width="32.000000pt" height="32.000000pt" viewBox="0 0 32.000000 32.000000"
 preserveAspectRatio="xMidYMid meet">
<metadata>
Created by potrace 1.16, written by Peter Selinger 2001-2019
</metadata>
<g transform="translate(0.000000,32.000000) scale(0.100000,-0.100000)"
fill="#000000" stroke="none">
<path fill="#000000" stroke="none" d="M29 313 c-14 -3 -17 -22 -21 -101 -2
-53 -2 -120 0 -148 l4 -51 55 -6 c30 -3 66 -2 79 3 14 6 26 6 29 0 4 -6 37
-10 76 -10 66 0 69 1 69 23 0 13 -3 27 -7 31 -4 3 -9 62 -11 129 -2 67 -4 123
-5 123 -6 4 -255 10 -268 7z"/>
<path fill="#ffffff" stroke="none" d="M260 281 c0 -17 -4 -18 -29 -11 -16 4
-38 13 -48 19 -14 8 -9 10 30 11 40 0 47 -3 47 -19z"/>
</g>
</svg>
