<?xml version="1.0" standalone="no"?>
<!DOCTYPE svg PUBLIC "-//W3C//DTD SVG 20010904//EN"
 "http://www.w3.org/TR/2001/REC-SVG-20010904/DTD/svg10.dtd">
<svg version="1.0" xmlns="http://www.w3.org/2000/svg"
 width="32.000000pt" height="32.000000pt" viewBox="0 0 32.000000 32.000000"
 preserveAspectRatio="xMidYMid meet">
<metadata>
Created by potrace 1.16, written by Peter Selinger 2001-2019
</metadata>
<g transform="translate(0.000000,32.000000) scale(0.100000,-0.100000)"
fill="#000000" stroke="none">
<path fill="#000000" stroke="none" d="M0 160 l0 -160 160 0 159 0 0 160 1
160 -45 0 c-24 0 -47 -6 -52 -12 -13 -22 -12 -38 3 -38 9 0 12 5 8 12 -4 7 -3
8 4 4 7 -4 12 -3 12 3 0 5 -5 12 -10 14 -6 3 -5 4 2 3 7 -2 14 -9 14 -17 4
-30 17 -59 25 -53 5 3 9 -6 9 -20 0 -15 -8 -30 -21 -36 -11 -7 -18 -14 -15
-17 9 -9 -24 -64 -34 -58 -15 9 -12 29 8 51 31 35 26 98 -9 107 -17 5 -20 11
-17 31 l5 26 -103 0 -104 0 0 -160z"/>
<path fill="#ffffff" stroke="none" d="M130 295 c17 -20 9 -49 -15 -53 -11 -2
-24 -8 -30 -14 -6 -6 -3 -7 10 -2 14 4 12 -1 -10 -20 -16 -14 -22 -23 -13 -20
12 4 20 0 25 -12 4 -11 24 -35 45 -54 21 -20 38 -41 38 -48 0 -6 9 -21 21 -33
11 -11 19 -22 17 -24 -2 -2 -48 -1 -103 2 -92 6 -97 7 -77 21 l22 15 -27 35
c-14 20 -20 31 -12 26 8 -5 16 -9 19 -9 13 -1 44 -24 33 -25 -7 0 -10 -7 -6
-16 5 -14 7 -14 21 0 14 14 13 19 -16 55 -46 58 -50 90 -18 146 28 47 53 57
76 30z"/>
<path fill="#ffffff" stroke="none" d="M205 241 c3 -6 -4 -8 -15 -6 -13 2 -20
-1 -20 -11 0 -8 5 -12 10 -9 6 3 10 -2 10 -12 0 -11 5 -24 10 -29 13 -13 -13
-50 -28 -40 -13 8 -17 98 -5 109 9 10 31 8 38 -2z"/>
<path fill="#ffffff" stroke="none" d="M278 42 c15 -12 20 -20 11 -17 -10 4
-20 2 -24 -4 -3 -6 -14 -11 -23 -11 -13 1 -11 5 8 16 14 8 17 13 8 10 -22 -7
-31 8 -22 37 5 16 8 18 12 7 2 -8 16 -25 30 -38z"/>
<path fill="#ffffff" stroke="none" d="M220 49 c6 -10 9 -19 6 -19 -9 0 -36
31 -36 41 0 14 18 1 30 -22z"/>
<path fill="#000000" stroke="none" d="M85 291 c3 -6 1 -11 -4 -11 -6 0 -11
-10 -11 -21 0 -16 3 -19 13 -12 6 6 20 9 30 8 17 -3 22 12 9 30 -10 14 -46 19
-37 6z"/>
</g>
</svg>
