<?xml version="1.0" standalone="no"?>
<!DOCTYPE svg PUBLIC "-//W3C//DTD SVG 20010904//EN"
 "http://www.w3.org/TR/2001/REC-SVG-20010904/DTD/svg10.dtd">
<svg version="1.0" xmlns="http://www.w3.org/2000/svg"
 width="32.000000pt" height="46.000000pt" viewBox="0 0 32.000000 46.000000"
 preserveAspectRatio="xMidYMid meet">
<metadata>
Created by potrace 1.16, written by Peter Selinger 2001-2019
</metadata>
<g transform="translate(0.000000,46.000000) scale(0.100000,-0.100000)"
fill="#000000" stroke="none">
<path fill="#000000" stroke="none" d="M0 375 c0 -88 7 -103 30 -60 8 14 19
24 26 21 8 -3 11 1 7 10 -6 17 8 19 24 3 8 -8 19 -6 41 5 17 9 33 16 36 16 9
0 33 -55 29 -66 -6 -16 24 -37 43 -30 13 5 14 9 5 20 -9 10 -8 15 4 20 11 4
14 2 9 -7 -5 -8 -2 -8 9 2 15 11 18 10 26 -12 22 -57 31 -39 31 62 l0 101 -45
0 c-43 0 -44 -1 -27 -18 9 -11 20 -17 25 -15 8 5 10 -91 1 -99 -9 -10 -74 15
-74 28 0 8 -13 23 -29 35 -17 12 -27 28 -24 35 3 8 9 11 14 8 5 -3 17 0 26 5
16 9 16 10 -4 11 -35 0 -53 -11 -54 -34 -1 -16 -3 -14 -9 9 l-8 30 -1 -29 c-1
-33 -13 -28 -15 6 -1 28 -43 32 -60 6 -15 -25 16 -57 38 -39 10 8 16 9 21 1 3
-5 0 -10 -7 -10 -10 0 -10 -2 1 -9 8 -5 9 -11 3 -15 -14 -8 -68 38 -75 64 -3
11 -1 18 4 14 5 -3 9 0 9 5 0 6 -7 11 -15 11 -12 0 -15 -16 -15 -85z"/>
<path fill="#ffffff" stroke="none" d="M53 433 c-6 -16 -4 -16 16 2 l23 20
-13 -28 c-11 -24 -14 -26 -27 -13 -8 8 -11 19 -8 25 11 17 16 13 9 -6z"/>
<path fill="#ffffff" stroke="none" d="M130 388 c0 7 5 10 12 6 12 -8 -25 -44
-46 -44 -7 0 -6 3 2 9 7 4 12 12 11 17 -4 21 2 28 11 14 7 -11 10 -11 10 -2z"/>
<path fill="#000000" stroke="none" d="M190 415 c0 -9 5 -15 11 -13 6 2 11 8
11 13 0 5 -5 11 -11 13 -6 2 -11 -4 -11 -13z"/>
<path fill="#000000" stroke="none" d="M109 336 c-2 -3 -18 -6 -34 -9 -22 -2
-34 -12 -45 -36 -9 -17 -18 -30 -20 -27 -3 2 -6 -54 -8 -124 -2 -89 1 -131 9
-135 6 -4 15 -2 19 6 10 15 38 21 45 9 3 -5 -4 -7 -16 -5 -17 3 -20 2 -11 -7
18 -18 68 7 53 26 -7 8 -10 26 -7 42 4 20 2 24 -6 16 -8 -8 -15 -5 -28 10 -17
21 -17 20 -24 -30 -4 -28 -11 -54 -16 -57 -12 -8 -12 2 0 85 6 41 6 68 0 74
-6 6 -10 15 -10 20 0 6 9 -2 19 -18 18 -27 63 -63 47 -38 -3 5 2 16 11 23 11
10 14 10 9 2 -5 -9 -2 -11 8 -7 15 6 11 34 -4 34 -5 0 -15 13 -23 29 -13 26
-13 29 0 24 10 -4 13 0 11 12 -2 10 7 23 22 32 23 14 23 14 6 0 -12 -11 -16
-22 -11 -34 6 -16 9 -15 30 11 22 28 22 31 7 43 -14 11 -14 13 -2 11 9 -2 17
1 18 6 3 10 -41 20 -49 12z"/>
<path fill="#000000" stroke="none" d="M146 264 c-44 -65 -43 -97 2 -69 l27
18 -22 -25 c-18 -19 -20 -27 -10 -38 10 -10 9 -11 -2 -5 -9 5 -12 3 -10 -4 3
-7 8 -12 13 -11 5 1 13 -5 18 -14 6 -11 17 -14 35 -10 18 5 24 3 19 -4 -5 -8
-2 -10 8 -6 9 3 13 10 10 15 -3 5 1 9 9 9 8 0 20 7 27 15 11 13 6 22 -30 55
-24 22 -46 38 -49 35 -4 -2 -6 19 -5 46 1 27 0 49 -1 49 -1 0 -19 -25 -39 -56z"/>
<path fill="#000000" stroke="none" d="M260 282 c0 -5 9 -17 19 -26 20 -18 24
-5 8 22 -9 14 -27 16 -27 4z"/>
<path fill="#000000" stroke="none" d="M209 247 c6 -8 7 -18 3 -22 -4 -5 -2
-5 5 -1 14 8 6 36 -9 36 -7 0 -6 -5 1 -13z"/>
<path fill="#000000" stroke="none" d="M245 242 c3 -3 -1 -12 -7 -21 -10 -13
-10 -14 2 -3 21 18 35 15 19 -5 -13 -15 -12 -15 9 -4 17 9 20 14 10 25 -7 7
-18 13 -25 13 -7 0 -11 -3 -8 -5z"/>
<path fill="#000000" stroke="none" d="M310 100 c0 -29 -5 -50 -11 -50 -6 0
-8 -9 -4 -21 5 -14 3 -19 -3 -15 -6 3 -13 2 -17 -4 -4 -6 4 -9 19 -8 25 2 26
4 26 75 0 40 -2 73 -5 73 -3 0 -5 -22 -5 -50z"/>
<path fill="#000000" stroke="none" d="M104 65 c-9 -21 -2 -26 13 -10 8 9 9
16 3 20 -6 3 -13 -1 -16 -10z"/>
<path fill="#000000" stroke="none" d="M235 49 c-4 -6 -13 -8 -21 -5 -8 3 -14
1 -14 -3 0 -5 -3 -18 -6 -28 -4 -12 -3 -14 3 -6 6 8 14 9 23 3 20 -13 43 -13
35 0 -4 6 -11 8 -16 5 -12 -8 -11 2 1 26 11 20 6 27 -5 8z"/>
<path fill="#000000" stroke="none" d="M120 15 c0 -8 5 -15 10 -15 6 0 10 7
10 15 0 8 -4 15 -10 15 -5 0 -10 -7 -10 -15z"/>
<path fill="#000000" stroke="none" d="M171 14 c0 -11 3 -14 6 -6 3 7 2 16 -1
19 -3 4 -6 -2 -5 -13z"/>
</g>
</svg>
