<?xml version="1.0" standalone="no"?>
<!DOCTYPE svg PUBLIC "-//W3C//DTD SVG 20010904//EN"
 "http://www.w3.org/TR/2001/REC-SVG-20010904/DTD/svg10.dtd">
<svg version="1.0" xmlns="http://www.w3.org/2000/svg"
 width="32.000000pt" height="32.000000pt" viewBox="0 0 32.000000 32.000000"
 preserveAspectRatio="xMidYMid meet">
<metadata>
Created by potrace 1.16, written by Peter Selinger 2001-2019
</metadata>
<g transform="translate(0.000000,32.000000) scale(0.100000,-0.100000)"
fill="#000000" stroke="none">
<path fill="#000000" stroke="none" d="M85 303 c-32 -9 -65 -34 -65 -52 1 -12
7 -9 25 12 l24 27 17 -25 c19 -29 30 -24 38 18 5 28 1 30 -39 20z"/>
<path fill="#000000" stroke="none" d="M140 284 c-14 -36 -12 -41 5 -18 15 18
15 18 8 0 -7 -21 6 -17 40 12 13 12 15 17 5 24 -25 15 -49 8 -58 -18z"/>
<path fill="#000000" stroke="none" d="M218 277 c-7 -7 -20 -21 -28 -32 -11
-16 -11 -17 0 -8 9 8 19 9 32 2 10 -5 18 -6 19 -2 0 4 2 16 4 25 4 23 -8 30
-27 15z"/>
<path fill="#000000" stroke="none" d="M42 238 c-21 -21 -15 -38 11 -29 23 9
30 32 12 38 -6 2 -16 -2 -23 -9z"/>
<path fill="#000000" stroke="none" d="M11 204 c0 -11 3 -14 6 -6 3 7 2 16 -1
19 -3 4 -6 -2 -5 -13z"/>
<path fill="#000000" stroke="none" d="M184 204 c-18 -14 -18 -15 4 -4 12 6
22 13 22 15 0 8 -5 6 -26 -11z"/>
<path fill="#000000" stroke="none" d="M45 189 c-8 -12 0 -22 20 -25 12 -2 12
2 5 17 -12 22 -16 23 -25 8z"/>
<path fill="#000000" stroke="none" d="M107 193 c-11 -10 -8 -35 3 -28 6 4 7
11 4 17 -5 8 -1 9 10 5 10 -4 15 -3 11 3 -7 12 -19 13 -28 3z"/>
<path fill="#000000" stroke="none" d="M16 151 c-4 -5 -2 -12 3 -15 5 -4 12
-2 15 3 4 5 2 12 -3 15 -5 4 -12 2 -15 -3z"/>
<path fill="#000000" stroke="none" d="M224 129 c-3 -6 -2 -15 4 -21 13 -13
32 -2 32 18 0 16 -26 19 -36 3z"/>
<path fill="#000000" stroke="none" d="M10 116 c0 -2 7 -6 15 -10 8 -3 15 -1
15 4 0 6 -7 10 -15 10 -8 0 -15 -2 -15 -4z"/>
<path fill="#000000" stroke="none" d="M193 90 c-13 -5 -23 -15 -23 -22 0 -10
2 -10 9 1 7 10 13 11 30 2 16 -9 21 -9 21 1 0 9 3 9 10 -2 5 -8 10 -10 10 -4
0 11 -20 34 -29 33 -4 0 -16 -4 -28 -9z"/>
<path fill="#000000" stroke="none" d="M15 80 c4 -6 11 -8 16 -5 14 9 11 15
-7 15 -8 0 -12 -5 -9 -10z"/>
<path fill="#000000" stroke="none" d="M81 71 c-14 -26 -14 -31 3 -31 16 0 29
37 16 45 -5 3 -14 -3 -19 -14z"/>
<path fill="#000000" stroke="none" d="M105 30 c-3 -5 -3 -10 2 -10 4 0 1 -5
-7 -10 -13 -8 -13 -10 1 -10 9 0 19 7 22 15 7 17 -9 30 -18 15z"/>
</g>
</svg>
