<?xml version="1.0" standalone="no"?>
<!DOCTYPE svg PUBLIC "-//W3C//DTD SVG 20010904//EN"
 "http://www.w3.org/TR/2001/REC-SVG-20010904/DTD/svg10.dtd">
<svg version="1.0" xmlns="http://www.w3.org/2000/svg"
 width="32.000000pt" height="32.000000pt" viewBox="0 0 32.000000 32.000000"
 preserveAspectRatio="xMidYMid meet">
<metadata>
Created by potrace 1.16, written by Peter Selinger 2001-2019
</metadata>
<g transform="translate(0.000000,32.000000) scale(0.100000,-0.100000)"
fill="#000000" stroke="none">
<path fill="#000000" stroke="none" d="M0 160 l0 -160 44 0 c50 0 68 16 41 36
-17 13 -17 14 0 40 20 31 9 68 -23 78 -11 4 -23 17 -26 29 -5 18 -8 20 -16 7
-8 -13 -10 -12 -10 3 0 11 8 26 18 35 10 10 12 13 4 7 -11 -7 -13 -4 -10 14 4
32 61 61 120 61 52 0 80 -8 73 -20 -3 -5 3 -6 13 -3 25 6 53 -29 55 -70 1 -19
5 -33 10 -30 4 2 7 -6 7 -18 0 -17 -3 -19 -14 -9 -13 10 -13 7 -4 -17 9 -25 7
-35 -17 -71 -18 -27 -33 -41 -42 -37 -8 3 -16 5 -19 5 -2 0 -1 6 2 14 7 18
-12 30 -22 15 -4 -7 -3 -9 4 -5 7 4 10 -3 8 -21 -3 -30 -20 -34 -22 -5 -2 37
-5 42 -20 42 -8 0 -24 -5 -35 -11 -19 -10 -20 -12 -4 -29 9 -10 14 -24 10 -29
-4 -8 26 -11 94 -11 l101 0 0 160 0 160 -160 0 -160 0 0 -160z"/>
<path fill="#ffffff" stroke="none" d="M79 134 c1 -2 0 -7 -3 -12 -8 -13 -66
8 -66 24 0 26 16 23 69 -12z"/>
<path fill="#ffffff" stroke="none" d="M40 109 c0 -5 4 -7 10 -4 12 8 13 -15
1 -34 -5 -8 -16 -11 -25 -8 -21 8 -22 57 -1 57 8 0 15 -5 15 -11z"/>
<path fill="#000000" stroke="none" d="M102 212 c1 -4 -3 -15 -7 -26 -14 -31
7 -51 54 -51 43 0 55 -17 29 -44 -11 -10 -9 -11 5 -5 20 7 53 64 38 64 -5 0
-12 8 -14 18 -4 15 -5 15 -6 1 -1 -17 -29 -34 -40 -24 -3 3 1 16 8 28 8 12 10
19 6 14 -5 -4 -15 -1 -24 6 -19 17 -51 29 -49 19z"/>
<path fill="#ffffff" stroke="none" d="M148 176 c3 -11 0 -16 -7 -12 -6 4 -11
2 -11 -3 0 -6 -7 -11 -15 -11 -15 0 -21 31 -8 44 12 12 38 1 41 -18z"/>
<path fill="#000000" stroke="none" d="M251 198 c5 -10 12 -18 15 -18 3 0 2 5
-2 11 -3 6 0 15 7 20 10 6 8 8 -8 6 -17 -1 -20 -5 -12 -19z"/>
<path fill="#000000" stroke="none" d="M116 122 c-3 -4 4 -9 15 -9 23 -2 25 3
4 10 -8 4 -16 3 -19 -1z"/>
</g>
</svg>
