<?xml version="1.0" standalone="no"?>
<!DOCTYPE svg PUBLIC "-//W3C//DTD SVG 20010904//EN"
 "http://www.w3.org/TR/2001/REC-SVG-20010904/DTD/svg10.dtd">
<svg version="1.0" xmlns="http://www.w3.org/2000/svg"
 width="32.000000pt" height="32.000000pt" viewBox="0 0 32.000000 32.000000"
 preserveAspectRatio="xMidYMid meet">
<metadata>
Created by potrace 1.16, written by Peter Selinger 2001-2019
</metadata>
<g transform="translate(0.000000,32.000000) scale(0.100000,-0.100000)"
fill="#000000" stroke="none">
<path fill="#000000" stroke="none" d="M1 268 c1 -29 4 -41 6 -26 4 25 37 57
73 71 8 3 -6 6 -32 6 l-48 1 1 -52z"/>
<path fill="#000000" stroke="none" d="M225 306 c17 -7 37 -22 46 -32 23 -28
41 -101 33 -137 -9 -45 -63 -120 -80 -113 -8 3 -14 1 -14 -5 0 -6 -10 -9 -22
-7 -16 2 -23 10 -24 26 -2 30 -8 35 -34 27 -20 -6 -20 -8 -5 -25 9 -10 14 -24
10 -29 -4 -8 24 -11 89 -11 l96 0 0 160 0 160 -62 0 c-61 -1 -62 -1 -33 -14z"/>
<path fill="#000000" stroke="none" d="M76 111 c-4 -7 -5 -15 -2 -18 9 -9 19
4 14 18 -4 11 -6 11 -12 0z"/>
<path fill="#000000" stroke="none" d="M0 35 c0 -34 1 -35 39 -35 45 0 61 15
35 34 -11 9 -14 18 -9 27 7 12 6 11 -9 0 -14 -12 -22 -12 -37 -3 -17 11 -19 9
-19 -23z"/>
</g>
</svg>
