<?xml version="1.0" standalone="no"?>
<!DOCTYPE svg PUBLIC "-//W3C//DTD SVG 20010904//EN"
 "http://www.w3.org/TR/2001/REC-SVG-20010904/DTD/svg10.dtd">
<svg version="1.0" xmlns="http://www.w3.org/2000/svg"
 width="32.000000pt" height="32.000000pt" viewBox="0 0 32.000000 32.000000"
 preserveAspectRatio="xMidYMid meet">
<metadata>
Created by potrace 1.16, written by Peter Selinger 2001-2019
</metadata>
<g transform="translate(0.000000,32.000000) scale(0.100000,-0.100000)"
fill="#000000" stroke="none">
<path fill="#000000" stroke="none" d="M207 313 c-15 -14 -6 -45 13 -50 34 -9
39 -73 8 -107 -20 -22 -23 -42 -8 -51 10 -6 43 49 34 58 -3 3 4 10 15 17 13 6
21 21 21 36 0 14 -4 23 -9 20 -9 -6 -25 31 -21 49 1 9 -28 35 -40 35 -4 0 -10
-3 -13 -7z"/>
<path fill="#ffffff" stroke="none" d="M247 286 c-2 -6 -11 -12 -20 -14 -13
-3 -16 11 -8 35 1 1 8 0 16 -4 9 -3 14 -11 12 -17z"/>
<path fill="#000000" stroke="none" d="M54 265 c-32 -56 -28 -88 18 -146 29
-36 30 -41 16 -55 -14 -14 -16 -14 -21 0 -4 9 -1 16 6 16 11 1 -20 24 -33 25
-3 0 -11 4 -19 9 -8 5 -2 -6 12 -26 l27 -35 -22 -15 c-20 -14 -15 -15 77 -21
55 -3 101 -4 103 -2 2 2 -6 13 -17 24 -12 12 -21 27 -21 33 0 7 -17 28 -38 48
-21 19 -41 43 -45 54 -5 12 -13 16 -25 12 -9 -3 -3 6 13 20 22 19 24 24 10 20
-13 -5 -16 -4 -10 2 6 6 19 12 30 14 24 4 32 33 15 53 -23 27 -48 17 -76 -30z"/>
<path fill="#ffffff" stroke="none" d="M122 285 c13 -18 8 -33 -9 -30 -10 1
-24 -2 -30 -8 -10 -7 -13 -4 -13 12 0 11 5 21 11 21 5 0 7 5 4 11 -9 13 27 8
37 -6z"/>
<path fill="#000000" stroke="none" d="M167 243 c-12 -11 -8 -101 5 -109 15
-10 41 27 28 40 -5 5 -10 18 -10 29 0 10 -4 15 -10 12 -5 -3 -10 1 -10 9 0 10
7 13 20 11 11 -2 18 0 15 6 -7 10 -29 12 -38 2z"/>
<path fill="#000000" stroke="none" d="M236 73 c-9 -29 0 -44 22 -37 9 3 6 -2
-8 -10 -19 -11 -21 -15 -8 -16 9 0 20 5 23 11 4 6 14 8 24 4 9 -3 4 5 -11 17
-14 13 -28 30 -30 38 -4 11 -7 9 -12 -7z"/>
<path fill="#000000" stroke="none" d="M190 71 c0 -10 27 -41 36 -41 7 0 -15
38 -26 45 -6 3 -10 2 -10 -4z"/>
</g>
</svg>
