<?xml version="1.0" standalone="no"?>
<!DOCTYPE svg PUBLIC "-//W3C//DTD SVG 20010904//EN"
 "http://www.w3.org/TR/2001/REC-SVG-20010904/DTD/svg10.dtd">
<svg version="1.0" xmlns="http://www.w3.org/2000/svg"
 width="32.000000pt" height="32.000000pt" viewBox="0 0 32.000000 32.000000"
 preserveAspectRatio="xMidYMid meet">
<metadata>
Created by potrace 1.16, written by Peter Selinger 2001-2019
</metadata>
<g transform="translate(0.000000,32.000000) scale(0.100000,-0.100000)"
fill="#000000" stroke="none">
<path fill="#000000" stroke="none" d="M116 299 c-52 -12 -76 -35 -76 -71 0
-37 25 -97 44 -104 37 -14 23 -65 -18 -63 -19 1 -19 2 3 8 34 9 39 31 7 31
-25 0 -66 -31 -66 -49 0 -10 28 -41 36 -41 3 0 23 9 44 20 45 23 55 19 13 -4
l-28 -15 32 -1 c36 0 73 38 73 74 0 27 -34 79 -45 69 -4 -5 -5 -2 0 5 4 9 -1
26 -15 44 l-22 29 32 -16 c18 -9 38 -14 46 -11 10 4 14 -3 15 -22 l1 -27 8 30
c4 17 9 23 10 15 1 -8 6 -2 11 15 5 19 5 33 -2 40 -7 7 -8 5 -4 -7 9 -24 -21
-35 -49 -18 -20 12 -20 12 -6 -6 14 -18 14 -18 -2 -5 -27 21 -23 58 10 75 22
12 23 15 7 15 -11 -1 -38 -5 -59 -10z"/>
<path fill="#ffffff" stroke="none" d="M130 255 c0 -9 -6 -12 -16 -8 -13 5
-13 7 -2 14 17 11 18 11 18 -6z"/>
<path fill="#000000" stroke="none" d="M284 162 c5 -8 -1 -12 -16 -12 -13 0
-30 -5 -38 -10 -13 -9 -12 -13 8 -29 26 -23 14 -36 -24 -27 -16 4 -24 2 -25
-6 0 -7 -2 -21 -4 -31 -3 -17 1 -18 33 -12 45 8 82 30 82 49 0 8 -12 24 -27
35 l-28 20 28 1 c28 0 36 13 15 26 -7 4 -8 3 -4 -4z"/>
</g>
</svg>
