<?xml version="1.0" standalone="no"?>
<!DOCTYPE svg PUBLIC "-//W3C//DTD SVG 20010904//EN"
 "http://www.w3.org/TR/2001/REC-SVG-20010904/DTD/svg10.dtd">
<svg version="1.0" xmlns="http://www.w3.org/2000/svg"
 width="32.000000pt" height="32.000000pt" viewBox="0 0 32.000000 32.000000"
 preserveAspectRatio="xMidYMid meet">
<metadata>
Created by potrace 1.16, written by Peter Selinger 2001-2019
</metadata>
<g transform="translate(0.000000,32.000000) scale(0.100000,-0.100000)"
fill="#000000" stroke="none">
<path fill="#000000" stroke="none" d="M0 160 l0 -160 160 0 160 0 0 160 0
160 -160 0 -160 0 0 -160z"/>
<path fill="#ffffff" stroke="none" d="M170 290 c0 -5 -4 -10 -10 -10 -5 0
-10 5 -10 10 0 6 5 10 10 10 6 0 10 -4 10 -10z"/>
<path fill="#ffffff" stroke="none" d="M80 275 c0 -8 -7 -15 -15 -15 -8 0 -15
7 -15 15 0 8 7 15 15 15 8 0 15 -7 15 -15z"/>
<path fill="#ffffff" stroke="none" d="M270 275 c0 -8 -7 -15 -15 -15 -8 0
-15 7 -15 15 0 8 7 15 15 15 8 0 15 -7 15 -15z"/>
<path fill="#ffffff" stroke="none" d="M165 250 c-24 -6 -26 -8 -7 -9 14 -1
22 -7 22 -20 0 -13 -7 -18 -22 -17 -18 1 -23 -4 -22 -21 1 -16 -4 -23 -17 -23
-13 0 -19 8 -20 23 -1 18 -3 16 -9 -8 l-8 -30 -1 33 c-1 45 36 82 81 81 l33
-1 -30 -8z"/>
<path fill="#ffffff" stroke="none" d="M54 188 c8 -6 8 -10 0 -15 -6 -5 -13
-15 -16 -23 -2 -8 -5 10 -5 40 0 30 2 44 5 30 2 -14 9 -28 16 -32z"/>
<path fill="#ffffff" stroke="none" d="M288 188 c-1 -29 -4 -46 -6 -38 -3 8
-10 19 -16 23 -8 6 -7 10 2 14 6 2 12 16 12 29 0 13 2 24 4 24 3 0 4 -24 4
-52z"/>
<path fill="#ffffff" stroke="none" d="M237 188 c-3 -8 -6 -5 -6 6 -1 11 2 17
5 13 3 -3 4 -12 1 -19z"/>
<path fill="#ffffff" stroke="none" d="M202 155 c3 3 10 -1 17 -8 9 -11 8 -17
-3 -26 -10 -9 -16 -8 -26 4 -7 8 -9 15 -5 15 4 0 1 8 -6 18 -12 15 -12 16 2 5
9 -7 18 -11 21 -8z"/>
<path fill="#ffffff" stroke="none" d="M157 104 c-3 -3 -12 -4 -19 -1 -8 3 -5
6 6 6 11 1 17 -2 13 -5z"/>
<path fill="#ffffff" stroke="none" d="M80 85 c0 -8 -7 -15 -15 -15 -8 0 -15
7 -15 15 0 8 7 15 15 15 8 0 15 -7 15 -15z"/>
<path fill="#ffffff" stroke="none" d="M270 85 c0 -8 -7 -15 -15 -15 -8 0 -15
7 -15 15 0 8 7 15 15 15 8 0 15 -7 15 -15z"/>
<path fill="#ffffff" stroke="none" d="M170 70 c0 -5 -4 -10 -10 -10 -5 0 -10
5 -10 10 0 6 5 10 10 10 6 0 10 -4 10 -10z"/>
<path fill="#ffffff" stroke="none" d="M57 38 c-3 -8 -6 -5 -6 6 -1 11 2 17 5
13 3 -3 4 -12 1 -19z"/>
<path fill="#ffffff" stroke="none" d="M267 38 c-3 -8 -6 -5 -6 6 -1 11 2 17
5 13 3 -3 4 -12 1 -19z"/>
</g>
</svg>
