<?xml version="1.0" standalone="no"?>
<!DOCTYPE svg PUBLIC "-//W3C//DTD SVG 20010904//EN"
 "http://www.w3.org/TR/2001/REC-SVG-20010904/DTD/svg10.dtd">
<svg version="1.0" xmlns="http://www.w3.org/2000/svg"
 width="32.000000pt" height="32.000000pt" viewBox="0 0 32.000000 32.000000"
 preserveAspectRatio="xMidYMid meet">
<metadata>
Created by potrace 1.16, written by Peter Selinger 2001-2019
</metadata>
<g transform="translate(0.000000,32.000000) scale(0.100000,-0.100000)"
fill="#000000" stroke="none">
<path fill="#000000" stroke="none" d="M190 295 c0 -8 7 -15 15 -15 8 0 15 7
15 15 0 8 -7 15 -15 15 -8 0 -15 -7 -15 -15z"/>
<path fill="#000000" stroke="none" d="M100 290 c0 -5 5 -10 10 -10 6 0 10 5
10 10 0 6 -4 10 -10 10 -5 0 -10 -4 -10 -10z"/>
<path fill="#000000" stroke="none" d="M105 235 c-17 -16 -25 -34 -24 -57 l1
-33 8 30 c6 24 8 26 9 8 1 -15 7 -23 20 -23 13 0 18 7 17 23 -1 17 4 22 22 21
15 -1 22 4 22 17 0 13 -8 19 -22 20 -19 1 -17 3 7 9 l30 8 -33 1 c-23 1 -41
-7 -57 -24z"/>
<path fill="#000000" stroke="none" d="M30 225 c0 -8 7 -15 15 -15 8 0 15 7
15 15 0 8 -7 15 -15 15 -8 0 -15 -7 -15 -15z"/>
<path fill="#000000" stroke="none" d="M260 230 c0 -5 5 -10 11 -10 6 0 9 -9
6 -19 -2 -10 -1 -25 3 -32 7 -10 8 31 1 64 -2 11 -21 9 -21 -3z"/>
<path fill="#000000" stroke="none" d="M231 194 c0 -11 3 -14 6 -6 3 7 2 16
-1 19 -3 4 -6 -2 -5 -13z"/>
<path fill="#000000" stroke="none" d="M33 168 c3 -40 12 -56 24 -44 4 4 1 11
-6 16 -8 4 -11 14 -8 22 3 8 1 21 -4 29 -5 9 -7 1 -6 -23z"/>
<path fill="#000000" stroke="none" d="M179 158 c7 -10 10 -18 6 -18 -4 0 -2
-7 5 -15 10 -12 16 -13 26 -4 11 9 12 15 3 26 -7 7 -14 11 -17 8 -3 -3 -12 1
-21 8 -14 11 -14 10 -2 -5z"/>
<path fill="#000000" stroke="none" d="M260 135 c0 -8 7 -15 15 -15 8 0 15 7
15 15 0 8 -7 15 -15 15 -8 0 -15 -7 -15 -15z"/>
<path fill="#000000" stroke="none" d="M138 103 c7 -3 16 -2 19 1 4 3 -2 6
-13 5 -11 0 -14 -3 -6 -6z"/>
<path fill="#000000" stroke="none" d="M100 65 c0 -8 7 -15 15 -15 8 0 15 7
15 15 0 8 -7 15 -15 15 -8 0 -15 -7 -15 -15z"/>
<path fill="#000000" stroke="none" d="M200 70 c0 -5 5 -10 10 -10 6 0 10 5
10 10 0 6 -4 10 -10 10 -5 0 -10 -4 -10 -10z"/>
<path fill="#000000" stroke="none" d="M52 50 c0 -14 2 -19 5 -12 2 6 2 18 0
25 -3 6 -5 1 -5 -13z"/>
<path fill="#000000" stroke="none" d="M262 50 c0 -14 2 -19 5 -12 2 6 2 18 0
25 -3 6 -5 1 -5 -13z"/>
</g>
</svg>
