<?xml version="1.0" standalone="no"?>
<!DOCTYPE svg PUBLIC "-//W3C//DTD SVG 20010904//EN"
 "http://www.w3.org/TR/2001/REC-SVG-20010904/DTD/svg10.dtd">
<svg version="1.0" xmlns="http://www.w3.org/2000/svg"
 width="32.000000pt" height="32.000000pt" viewBox="0 0 32.000000 32.000000"
 preserveAspectRatio="xMidYMid meet">
<metadata>
Created by potrace 1.16, written by Peter Selinger 2001-2019
</metadata>
<g transform="translate(0.000000,32.000000) scale(0.100000,-0.100000)"
fill="#000000" stroke="none">
<path fill="#000000" stroke="none" d="M0 160 l0 -160 160 0 160 0 0 160 0
160 -160 0 -160 0 0 -160z"/>
<path fill="#ffffff" stroke="none" d="M170 290 c0 -5 -4 -10 -10 -10 -5 0
-10 5 -10 10 0 6 5 10 10 10 6 0 10 -4 10 -10z"/>
<path fill="#ffffff" stroke="none" d="M80 275 c0 -8 -7 -15 -15 -15 -8 0 -15
7 -15 15 0 8 7 15 15 15 8 0 15 -7 15 -15z"/>
<path fill="#ffffff" stroke="none" d="M270 275 c0 -8 -7 -15 -15 -15 -8 0
-15 7 -15 15 0 8 7 15 15 15 8 0 15 -7 15 -15z"/>
<path fill="#ffffff" stroke="none" d="M215 235 c33 -32 33 -78 0 -110 -32
-33 -78 -33 -110 0 -50 49 -15 135 55 135 19 0 40 -9 55 -25z"/>
<path fill="#ffffff" stroke="none" d="M56 228 c5 -7 3 -8 -7 -3 -12 8 -12 6
0 -8 11 -14 11 -17 0 -17 -11 0 -11 -2 1 -10 10 -7 12 -12 4 -17 -6 -5 -14
-15 -18 -23 -3 -8 -4 -5 -2 8 2 13 1 36 -4 52 -7 23 -5 30 5 30 8 0 17 -5 21
-12z"/>
<path fill="#ffffff" stroke="none" d="M290 210 c-5 -16 -6 -39 -4 -52 2 -13
1 -16 -2 -8 -4 8 -12 18 -18 23 -8 5 -6 10 4 17 12 8 12 10 1 10 -11 0 -11 3
0 17 12 14 12 16 0 8 -10 -5 -12 -4 -7 3 4 7 13 12 21 12 10 0 12 -7 5 -30z"/>
<path fill="#ffffff" stroke="none" d="M80 85 c0 -8 -7 -15 -15 -15 -8 0 -15
7 -15 15 0 8 7 15 15 15 8 0 15 -7 15 -15z"/>
<path fill="#ffffff" stroke="none" d="M270 85 c0 -8 -7 -15 -15 -15 -8 0 -15
7 -15 15 0 8 7 15 15 15 8 0 15 -7 15 -15z"/>
<path fill="#ffffff" stroke="none" d="M170 70 c0 -5 -4 -10 -10 -10 -5 0 -10
5 -10 10 0 6 5 10 10 10 6 0 10 -4 10 -10z"/>
<path fill="#ffffff" stroke="none" d="M57 38 c-3 -8 -6 -5 -6 6 -1 11 2 17 5
13 3 -3 4 -12 1 -19z"/>
<path fill="#ffffff" stroke="none" d="M77 38 c-3 -8 -6 -5 -6 6 -1 11 2 17 5
13 3 -3 4 -12 1 -19z"/>
<path fill="#ffffff" stroke="none" d="M247 38 c-3 -8 -6 -5 -6 6 -1 11 2 17
5 13 3 -3 4 -12 1 -19z"/>
<path fill="#ffffff" stroke="none" d="M267 38 c-3 -8 -6 -5 -6 6 -1 11 2 17
5 13 3 -3 4 -12 1 -19z"/>
<path fill="#000000" stroke="none" d="M195 228 c-4 -9 -2 -25 4 -35 8 -14 10
-15 11 -3 0 13 1 13 10 0 9 -13 10 -13 10 1 0 8 -6 24 -14 35 -13 17 -15 17
-21 2z"/>
<path fill="#000000" stroke="none" d="M105 141 c-6 -11 25 -31 47 -31 9 0 9
3 -2 10 -13 9 -13 10 0 10 13 0 13 1 0 10 -19 12 -37 13 -45 1z"/>
</g>
</svg>
