<?xml version="1.0" standalone="no"?>
<!DOCTYPE svg PUBLIC "-//W3C//DTD SVG 20010904//EN"
 "http://www.w3.org/TR/2001/REC-SVG-20010904/DTD/svg10.dtd">
<svg version="1.0" xmlns="http://www.w3.org/2000/svg"
 width="32.000000pt" height="32.000000pt" viewBox="0 0 32.000000 32.000000"
 preserveAspectRatio="xMidYMid meet">
<metadata>
Created by potrace 1.16, written by Peter Selinger 2001-2019
</metadata>
<g transform="translate(0.000000,32.000000) scale(0.100000,-0.100000)"
fill="#000000" stroke="none">
<path fill="#000000" stroke="none" d="M100 295 c0 -8 7 -15 15 -15 8 0 15 7
15 15 0 8 -7 15 -15 15 -8 0 -15 -7 -15 -15z"/>
<path fill="#000000" stroke="none" d="M200 290 c0 -5 5 -10 10 -10 6 0 10 5
10 10 0 6 -4 10 -10 10 -5 0 -10 -4 -10 -10z"/>
<path fill="#000000" stroke="none" d="M105 235 c-17 -16 -25 -35 -24 -57 0
-28 2 -30 9 -13 8 19 9 19 9 1 1 -11 4 -16 7 -13 4 3 15 2 25 -4 15 -7 17 -6
13 6 -8 19 22 49 41 41 12 -4 13 -2 6 13 -6 10 -7 21 -4 25 3 3 -2 6 -13 7
-18 0 -18 1 1 9 17 7 15 9 -13 9 -22 1 -41 -7 -57 -24z"/>
<path fill="#000000" stroke="none" d="M200 246 c0 -2 8 -10 18 -17 15 -13 16
-12 3 4 -13 16 -21 21 -21 13z"/>
<path fill="#000000" stroke="none" d="M39 233 c-5 -24 -6 -76 -2 -64 4 10 7
10 13 1 4 -7 8 -1 8 15 -1 19 -3 23 -9 14 -7 -11 -9 -10 -9 4 0 9 5 17 10 17
6 0 10 5 10 10 0 12 -19 14 -21 3z"/>
<path fill="#000000" stroke="none" d="M260 225 c0 -8 7 -15 15 -15 8 0 15 7
15 15 0 8 -7 15 -15 15 -8 0 -15 -7 -15 -15z"/>
<path fill="#000000" stroke="none" d="M228 183 c-2 -16 -8 -28 -15 -28 -15 0
-28 -13 -28 -28 0 -7 -13 -15 -30 -18 l-30 -7 33 -1 c43 -1 82 36 82 79 0 37
-8 39 -12 3z"/>
<path fill="#000000" stroke="none" d="M263 176 c0 -19 2 -24 8 -15 7 11 9 10
9 -3 0 -9 -6 -18 -12 -21 -7 -2 -10 -8 -5 -12 12 -13 20 3 24 43 1 23 -1 32
-6 23 -7 -11 -9 -11 -13 0 -3 8 -5 1 -5 -15z"/>
<path fill="#000000" stroke="none" d="M160 170 c0 -5 5 -10 10 -10 6 0 10 5
10 10 0 6 -4 10 -10 10 -5 0 -10 -4 -10 -10z"/>
<path fill="#000000" stroke="none" d="M178 158 c-10 -10 -14 -18 -9 -18 10 0
36 29 30 34 -2 1 -12 -6 -21 -16z"/>
<path fill="#000000" stroke="none" d="M30 135 c0 -8 7 -15 15 -15 8 0 15 7
15 15 0 8 -7 15 -15 15 -8 0 -15 -7 -15 -15z"/>
<path fill="#000000" stroke="none" d="M90 136 c0 -2 8 -10 18 -17 15 -13 16
-12 3 4 -13 16 -21 21 -21 13z"/>
<path fill="#000000" stroke="none" d="M69 58 c4 -28 6 -29 9 -9 2 13 0 27 -5
32 -6 6 -7 -3 -4 -23z"/>
<path fill="#000000" stroke="none" d="M244 76 c-3 -8 -4 -23 -2 -33 3 -11 6
-6 9 15 6 34 2 42 -7 18z"/>
<path fill="#000000" stroke="none" d="M100 70 c0 -5 5 -10 10 -10 6 0 10 5
10 10 0 6 -4 10 -10 10 -5 0 -10 -4 -10 -10z"/>
<path fill="#000000" stroke="none" d="M184 57 c-10 -22 -9 -23 13 -13 24 12
32 36 11 36 -7 0 -18 -11 -24 -23z"/>
<path fill="#000000" stroke="none" d="M52 50 c0 -14 2 -19 5 -12 2 6 2 18 0
25 -3 6 -5 1 -5 -13z"/>
<path fill="#000000" stroke="none" d="M262 50 c0 -14 2 -19 5 -12 2 6 2 18 0
25 -3 6 -5 1 -5 -13z"/>
</g>
</svg>
