<?xml version="1.0" standalone="no"?>
<!DOCTYPE svg PUBLIC "-//W3C//DTD SVG 20010904//EN"
 "http://www.w3.org/TR/2001/REC-SVG-20010904/DTD/svg10.dtd">
<svg version="1.0" xmlns="http://www.w3.org/2000/svg"
 width="32.000000pt" height="32.000000pt" viewBox="0 0 32.000000 32.000000"
 preserveAspectRatio="xMidYMid meet">
<metadata>
Created by potrace 1.16, written by Peter Selinger 2001-2019
</metadata>
<g transform="translate(0.000000,32.000000) scale(0.100000,-0.100000)"
fill="#000000" stroke="none">
<path fill="#000000" stroke="none" d="M0 160 l0 -160 160 0 160 0 0 160 0
160 -160 0 -160 0 0 -160z"/>
<path fill="#ffffff" stroke="none" d="M292 293 c25 -22 25 -107 1 -123 -17
-11 -17 -11 0 -6 15 5 17 -2 17 -56 0 -93 -8 -98 -150 -98 -152 0 -150 -3
-149 150 0 153 -2 150 147 150 93 0 119 -3 134 -17z"/>
<path fill="#000000" stroke="none" d="M45 245 c-3 -8 -7 -21 -9 -28 -2 -8 2
-14 10 -14 8 0 17 11 20 23 3 13 13 25 22 27 10 3 4 5 -11 6 -17 1 -29 -5 -32
-14z"/>
<path fill="#000000" stroke="none" d="M185 253 c38 -2 73 -9 78 -16 6 -8 7
-8 4 3 -3 12 -21 15 -78 16 l-74 1 70 -4z"/>
<path fill="#000000" stroke="none" d="M151 218 c15 -34 22 -35 43 -4 15 23
14 25 -3 23 -11 -1 -17 -5 -15 -9 8 -13 -11 -9 -25 5 -10 10 -10 7 0 -15z"/>
<path fill="#000000" stroke="none" d="M283 225 c0 -8 4 -12 9 -9 5 3 6 10 3
15 -9 13 -12 11 -12 -6z"/>
<path fill="#000000" stroke="none" d="M213 211 c-3 -12 -9 -21 -14 -21 -5 0
-9 -4 -9 -10 0 -14 24 -2 38 20 8 13 8 21 1 26 -6 3 -13 -3 -16 -15z"/>
<path fill="#000000" stroke="none" d="M87 214 c-4 -4 5 -13 19 -21 33 -16 34
-16 34 3 0 10 -6 14 -14 11 -7 -3 -18 -1 -23 4 -5 5 -12 6 -16 3z"/>
<path fill="#000000" stroke="none" d="M247 206 c-15 -12 -15 -15 -3 -25 8 -7
17 -25 19 -39 4 -24 4 -24 6 6 0 17 -3 32 -9 32 -5 0 -10 5 -10 11 0 5 5 7 10
4 6 -3 10 1 10 9 0 19 0 19 -23 2z"/>
<path fill="#000000" stroke="none" d="M23 175 c0 -8 4 -12 9 -9 4 3 8 -17 8
-44 0 -35 5 -53 18 -63 14 -11 15 -11 5 1 -21 23 -16 43 8 37 16 -4 19 -3 11
5 -6 6 -8 18 -5 27 3 12 1 11 -11 -3 -15 -19 -16 -19 -16 11 0 17 -6 36 -13
42 -10 8 -14 7 -14 -4z"/>
<path fill="#000000" stroke="none" d="M85 180 c3 -5 1 -10 -5 -10 -6 0 -9 -4
-5 -10 3 -5 13 -6 21 -3 14 5 15 3 5 -15 -16 -30 -14 -34 9 -22 16 8 19 17 14
33 -7 22 -22 37 -37 37 -5 0 -5 -4 -2 -10z"/>
<path fill="#000000" stroke="none" d="M170 166 c0 -13 -5 -16 -21 -11 -15 5
-19 4 -15 -4 9 -14 43 -14 52 0 3 6 1 16 -5 22 -8 8 -11 6 -11 -7z"/>
<path fill="#000000" stroke="none" d="M192 150 c-7 -11 -21 -20 -31 -20 -24
0 -36 -16 -20 -26 6 -3 15 0 20 7 7 12 9 12 9 0 0 -7 6 -11 14 -8 10 4 13 1 9
-9 -3 -7 0 -14 6 -14 17 0 13 28 -6 40 -15 10 -14 11 7 6 14 -3 32 0 40 5 13
9 13 10 -2 6 -22 -7 -30 3 -17 20 9 10 8 13 -2 13 -8 0 -20 -9 -27 -20z"/>
<path fill="#000000" stroke="none" d="M220 79 l-35 -19 40 3 c29 1 41 7 43
20 4 21 -3 20 -48 -4z"/>
<path fill="#000000" stroke="none" d="M284 80 c0 -13 4 -16 10 -10 7 7 7 13
0 20 -6 6 -10 3 -10 -10z"/>
<path fill="#000000" stroke="none" d="M90 68 c0 -4 21 -8 48 -7 52 1 48 6
-10 11 -21 2 -38 0 -38 -4z"/>
<path fill="#000000" stroke="none" d="M76 41 c-4 -5 -2 -12 3 -15 5 -4 12 -2
15 3 4 5 2 12 -3 15 -5 4 -12 2 -15 -3z"/>
<path fill="#000000" stroke="none" d="M166 38 c3 -5 10 -6 15 -3 13 9 11 12
-6 12 -8 0 -12 -4 -9 -9z"/>
</g>
</svg>
