<?xml version="1.0" standalone="no"?>
<!DOCTYPE svg PUBLIC "-//W3C//DTD SVG 20010904//EN"
 "http://www.w3.org/TR/2001/REC-SVG-20010904/DTD/svg10.dtd">
<svg version="1.0" xmlns="http://www.w3.org/2000/svg"
 width="32.000000pt" height="32.000000pt" viewBox="0 0 32.000000 32.000000"
 preserveAspectRatio="xMidYMid meet">
<metadata>
Created by potrace 1.16, written by Peter Selinger 2001-2019
</metadata>
<g transform="translate(0.000000,32.000000) scale(0.100000,-0.100000)"
fill="#000000" stroke="none">
<path fill="#000000" stroke="none" d="M27 292 c-23 -26 -23 -239 0 -264 18
-20 53 -24 53 -7 0 6 -9 9 -20 6 -22 -6 -48 17 -30 28 5 3 16 3 23 -1 10 -6
10 -4 0 7 -7 7 -13 35 -13 62 0 26 -4 46 -8 43 -5 -3 -9 1 -9 9 0 8 3 12 6 10
4 -2 22 1 41 5 l35 9 -37 -2 c-35 -3 -37 -2 -31 23 8 36 12 40 33 40 24 0 33
15 17 27 -25 20 -45 21 -60 5z"/>
<path fill="#000000" stroke="none" d="M269 299 c20 -8 21 -11 10 -25 -8 -9
-15 -12 -17 -6 -2 6 -10 8 -19 5 -10 -4 -14 -2 -10 4 7 11 -17 11 -43 0 -8 -3
-26 -8 -40 -10 -14 -2 4 -5 40 -6 47 -1 72 -7 90 -21 22 -17 23 -19 7 -26 -16
-6 -16 -8 -2 -18 12 -9 8 -11 -24 -10 -22 0 -38 -3 -35 -8 3 -5 14 -6 25 -3
10 4 27 1 36 -5 17 -11 17 -11 -1 -6 -16 5 -18 2 -14 -24 3 -20 1 -27 -6 -21
-13 11 -66 9 -66 -1 0 -5 13 -8 30 -8 19 0 33 -7 39 -19 12 -22 -2 -31 -47
-31 -16 0 -32 -8 -40 -20 -7 -11 -20 -20 -29 -20 -13 0 -14 3 -5 12 20 20 14
28 -22 28 -28 0 -33 -3 -33 -23 0 -23 2 -24 90 -26 124 -2 127 0 126 138 0 58
-5 111 -11 118 -6 7 -7 13 -3 13 4 0 2 7 -5 15 -7 8 -20 15 -29 14 -10 0 -8
-4 8 -10z"/>
<path fill="#ffffff" stroke="none" d="M296 65 c-3 -32 -11 -39 -32 -31 -16 6
-15 8 5 22 13 9 20 22 17 31 -3 8 -2 11 3 8 5 -3 8 -17 7 -30z"/>
<path fill="#000000" stroke="none" d="M106 272 c-4 -7 4 -26 18 -43 17 -19
26 -25 26 -15 0 8 -5 18 -11 21 -6 4 -14 16 -18 28 -5 14 -10 17 -15 9z"/>
<path fill="#000000" stroke="none" d="M206 231 c-10 -11 -13 -22 -8 -25 6 -3
12 1 15 9 4 9 17 13 39 11 18 -2 24 -1 13 1 -11 3 -25 9 -31 14 -7 6 -17 2
-28 -10z"/>
<path fill="#000000" stroke="none" d="M135 170 c-4 -7 -3 -16 3 -22 14 -14
47 -6 47 12 0 18 -40 26 -50 10z"/>
<path fill="#ffffff" stroke="none" d="M170 160 c0 -5 -4 -10 -10 -10 -5 0
-10 5 -10 10 0 6 5 10 10 10 6 0 10 -4 10 -10z"/>
<path fill="#000000" stroke="none" d="M80 79 c-10 -24 -10 -32 0 -42 10 -9
11 -9 5 1 -4 8 1 26 14 43 16 21 18 29 8 29 -8 0 -20 -14 -27 -31z"/>
<path fill="#000000" stroke="none" d="M172 72 c1 -26 3 -30 10 -18 5 10 5 23
-1 34 -8 14 -10 10 -9 -16z"/>
</g>
</svg>
