<?xml version="1.0" standalone="no"?>
<!DOCTYPE svg PUBLIC "-//W3C//DTD SVG 20010904//EN"
 "http://www.w3.org/TR/2001/REC-SVG-20010904/DTD/svg10.dtd">
<svg version="1.0" xmlns="http://www.w3.org/2000/svg"
 width="32.000000pt" height="32.000000pt" viewBox="0 0 32.000000 32.000000"
 preserveAspectRatio="xMidYMid meet">
<metadata>
Created by potrace 1.16, written by Peter Selinger 2001-2019
</metadata>
<g transform="translate(0.000000,32.000000) scale(0.100000,-0.100000)"
fill="#000000" stroke="none">
<path fill="#000000" stroke="none" d="M27 292 c-19 -21 -22 -64 -7 -92 7 -13
7 -21 0 -25 -5 -3 -10 -34 -10 -69 0 -67 17 -96 56 -96 15 0 16 2 4 9 -8 6
-17 8 -21 5 -4 -2 -12 3 -18 10 -14 17 2 31 22 20 9 -6 9 -5 1 7 -7 8 -14 38
-15 67 -4 50 -2 53 21 58 43 10 46 14 8 11 -35 -3 -37 -2 -31 23 8 35 10 37
37 42 23 5 37 -8 40 -34 1 -5 5 -8 10 -7 5 0 13 -5 17 -13 7 -10 9 -9 9 3 0 9
-7 22 -15 29 -8 7 -15 19 -15 27 0 8 -4 12 -9 8 -5 -3 -17 2 -25 11 -9 8 -16
12 -16 8 0 -3 -6 -1 -13 5 -11 8 -18 7 -30 -7z"/>
<path fill="#000000" stroke="none" d="M269 299 c20 -8 22 -11 10 -26 -12 -14
-12 -16 1 -8 12 6 13 5 3 -5 -10 -11 -9 -16 5 -26 16 -12 16 -13 -1 -19 -17
-7 -17 -8 0 -20 16 -12 15 -13 -9 -8 -38 7 -45 33 -10 34 17 1 21 3 9 6 -10 2
-17 10 -16 16 3 28 -2 36 -18 30 -10 -4 -14 -2 -9 5 4 7 -1 9 -16 6 -13 -3
-39 -9 -58 -14 -30 -7 -25 -8 32 -9 55 -1 66 -4 62 -16 -4 -8 -11 -12 -18 -8
-14 9 -40 14 -32 6 3 -4 1 -12 -5 -19 -6 -7 -6 -14 -1 -18 6 -3 12 1 16 9 3 8
11 15 17 15 7 0 9 -3 6 -6 -3 -4 -1 -16 5 -27 9 -17 8 -19 -6 -14 -10 4 -15 3
-12 -2 3 -4 22 -7 43 -6 35 1 38 3 37 30 -2 73 -15 105 -42 104 -12 0 -10 -3
7 -10z"/>
<path fill="#000000" stroke="none" d="M66 227 c3 -10 9 -15 12 -12 3 3 0 11
-7 18 -10 9 -11 8 -5 -6z"/>
<path fill="#000000" stroke="none" d="M65 169 c-4 -6 -5 -12 -2 -15 2 -3 7 2
10 11 7 17 1 20 -8 4z"/>
<path fill="#000000" stroke="none" d="M135 170 c-4 -7 -3 -16 3 -22 14 -14
47 -6 47 12 0 18 -40 26 -50 10z"/>
<path fill="#ffffff" stroke="none" d="M170 160 c0 -5 -4 -10 -10 -10 -5 0
-10 5 -10 10 0 6 5 10 10 10 6 0 10 -4 10 -10z"/>
<path fill="#000000" stroke="none" d="M272 140 c3 -20 1 -27 -6 -21 -13 11
-66 9 -66 -1 0 -5 13 -8 30 -8 20 0 33 -7 41 -22 10 -18 9 -20 -5 -15 -10 4
-15 3 -11 -3 4 -6 -8 -10 -29 -10 -25 0 -36 -5 -41 -19 -3 -11 -16 -22 -28
-24 -12 -2 10 -5 49 -6 89 -1 104 11 104 91 0 48 -3 56 -21 61 -18 5 -21 2
-17 -23z"/>
<path fill="#ffffff" stroke="none" d="M297 67 c-5 -37 -17 -50 -33 -36 -12
10 -11 14 6 26 12 9 19 21 16 30 -3 8 -1 11 4 8 6 -4 9 -16 7 -28z"/>
<path fill="#000000" stroke="none" d="M55 121 c-3 -5 -2 -12 3 -15 5 -3 9 1
9 9 0 17 -3 19 -12 6z"/>
<path fill="#000000" stroke="none" d="M80 79 c-10 -24 -10 -32 0 -42 9 -9 11
-9 6 0 -9 16 4 44 18 36 6 -3 8 -3 4 2 -4 4 -3 14 3 22 9 10 8 13 -4 13 -8 0
-20 -14 -27 -31z"/>
<path fill="#000000" stroke="none" d="M130 91 c0 -6 4 -13 10 -16 6 -3 7 1 4
9 -7 18 -14 21 -14 7z"/>
<path fill="#000000" stroke="none" d="M173 72 c0 -18 1 -31 2 -30 12 15 25
49 17 44 -6 -3 -12 0 -15 6 -3 7 -5 -2 -4 -20z"/>
<path fill="#000000" stroke="none" d="M94 35 c0 -14 7 -25 14 -25 7 0 10 4 7
10 -3 5 6 12 20 16 36 9 31 24 -9 24 -30 0 -34 -3 -32 -25z"/>
</g>
</svg>
