<?xml version="1.0" standalone="no"?>
<!DOCTYPE svg PUBLIC "-//W3C//DTD SVG 20010904//EN"
 "http://www.w3.org/TR/2001/REC-SVG-20010904/DTD/svg10.dtd">
<svg version="1.0" xmlns="http://www.w3.org/2000/svg"
 width="32.000000pt" height="32.000000pt" viewBox="0 0 32.000000 32.000000"
 preserveAspectRatio="xMidYMid meet">
<metadata>
Created by potrace 1.16, written by Peter Selinger 2001-2019
</metadata>
<g transform="translate(0.000000,32.000000) scale(0.100000,-0.100000)"
fill="#000000" stroke="none">
<path fill="#000000" stroke="none" d="M0 160 l0 -160 160 0 160 0 0 160 0
160 -160 0 -160 0 0 -160z"/>
<path fill="#ffffff" stroke="none" d="M73 286 c22 -17 22 -26 -2 -26 -22 0
-26 -4 -34 -41 -6 -24 -4 -26 21 -23 l27 4 -25 -10 c-23 -9 -25 -14 -21 -62 1
-29 7 -58 12 -64 6 -7 2 -10 -12 -9 -18 1 -22 9 -24 48 -2 26 0 49 5 52 5 3 7
15 4 28 -21 95 0 140 49 103z"/>
<path fill="#ffffff" stroke="none" d="M130 216 c-8 -8 -15 -3 -7 7 1 2 -4 11
-11 20 -8 9 -11 21 -7 27 4 7 13 1 21 -16 10 -19 11 -31 4 -38z"/>
<path fill="#ffffff" stroke="none" d="M265 260 c5 -8 12 -7 23 2 13 11 15 10
10 -14 -3 -16 -2 -28 2 -28 4 0 6 -10 5 -22 -1 -18 -8 -22 -39 -24 -20 0 -39
3 -42 7 -3 5 2 6 12 2 14 -5 15 -3 6 14 -6 11 -8 24 -4 28 4 4 -4 4 -18 0 -22
-7 -23 -6 -11 9 10 12 17 13 26 6 9 -8 14 -6 18 4 5 12 -7 16 -61 19 l-67 3
67 2 c38 1 70 -3 73 -8z"/>
<path fill="#ffffff" stroke="none" d="M78 215 c-3 -3 -9 2 -12 12 -6 14 -5
15 5 6 7 -7 10 -15 7 -18z"/>
<path fill="#ffffff" stroke="none" d="M73 165 c-3 -9 -8 -14 -10 -11 -3 3 -2
9 2 15 9 16 15 13 8 -4z"/>
<path fill="#ffffff" stroke="none" d="M185 160 c0 -18 -33 -26 -47 -12 -6 6
-7 15 -3 22 10 16 50 8 50 -10z"/>
<path fill="#ffffff" stroke="none" d="M308 113 c1 -42 0 -44 -13 -27 -12 14
-14 15 -9 3 3 -10 -3 -23 -15 -31 -12 -8 -18 -18 -13 -23 4 -4 -3 -3 -15 4
-26 13 -36 14 -29 3 3 -5 -1 -9 -9 -9 -8 0 -15 6 -15 14 0 8 12 13 29 13 48 0
62 9 50 31 -5 10 -16 19 -24 19 -8 0 -15 5 -15 10 0 13 23 13 36 0 7 -7 9 -1
6 19 -3 26 -1 29 16 24 16 -4 20 -14 20 -50z"/>
<path fill="#ffffff" stroke="none" d="M103 90 c3 -11 2 -18 -3 -15 -11 7 -22
-24 -14 -38 5 -9 3 -9 -6 0 -10 10 -10 18 0 42 15 37 16 37 23 11z"/>
<path fill="#ffffff" stroke="none" d="M144 84 c3 -8 2 -12 -4 -9 -6 3 -10 10
-10 16 0 14 7 11 14 -7z"/>
<path fill="#ffffff" stroke="none" d="M190 73 c0 -5 -5 -15 -10 -23 -7 -12
-9 -10 -7 8 1 19 17 33 17 15z"/>
<path fill="#ffffff" stroke="none" d="M160 49 c0 -6 -6 -9 -14 -6 -7 3 -18 1
-23 -4 -6 -6 -14 -4 -23 6 -11 13 -8 15 24 15 20 0 36 -5 36 -11z"/>
<path fill="#ffffff" stroke="none" d="M285 20 c-3 -5 -12 -10 -18 -10 -7 0
-6 4 3 10 19 12 23 12 15 0z"/>
<path fill="#ffffff" stroke="none" d="M203 13 c-7 -2 -19 -2 -25 0 -7 3 -2 5
12 5 14 0 19 -2 13 -5z"/>
<path fill="#000000" stroke="none" d="M260 240 c0 -6 7 -10 15 -10 8 0 15 2
15 4 0 2 -7 6 -15 10 -8 3 -15 1 -15 -4z"/>
<path fill="#000000" stroke="none" d="M246 206 c3 -8 17 -16 32 -19 24 -5 25
-4 9 8 -14 10 -15 14 -5 18 7 3 1 6 -14 6 -20 1 -26 -3 -22 -13z"/>
<path fill="#000000" stroke="none" d="M150 160 c0 -5 5 -10 10 -10 6 0 10 5
10 10 0 6 -4 10 -10 10 -5 0 -10 -4 -10 -10z"/>
</g>
</svg>
