<?xml version="1.0" standalone="no"?>
<!DOCTYPE svg PUBLIC "-//W3C//DTD SVG 20010904//EN"
 "http://www.w3.org/TR/2001/REC-SVG-20010904/DTD/svg10.dtd">
<svg version="1.0" xmlns="http://www.w3.org/2000/svg"
 width="32.000000pt" height="32.000000pt" viewBox="0 0 32.000000 32.000000"
 preserveAspectRatio="xMidYMid meet">
<metadata>
Created by potrace 1.16, written by Peter Selinger 2001-2019
</metadata>
<g transform="translate(0.000000,32.000000) scale(0.100000,-0.100000)"
fill="#000000" stroke="none">
<path fill="#000000" stroke="none" d="M27 292 c-19 -21 -22 -64 -7 -92 7 -13
7 -21 0 -25 -5 -3 -10 -34 -10 -69 0 -67 17 -96 56 -96 15 0 16 2 4 9 -8 6
-17 8 -21 5 -4 -2 -12 3 -18 10 -14 17 2 31 22 20 9 -6 9 -5 1 7 -7 8 -14 38
-15 67 -4 48 -2 53 21 62 l25 10 -27 -4 c-25 -3 -27 -1 -22 23 8 32 13 38 39
43 12 2 27 -6 39 -20 10 -13 20 -21 22 -19 8 7 -22 52 -36 55 -8 2 -18 9 -22
15 -4 7 -8 8 -8 3 0 -5 -6 -3 -13 3 -11 8 -18 7 -30 -7z"/>
<path fill="#000000" stroke="none" d="M269 299 c20 -8 21 -11 10 -25 -8 -9
-15 -12 -17 -6 -2 6 -10 8 -19 5 -11 -4 -14 -2 -9 5 4 7 -1 9 -16 6 -13 -3
-39 -9 -58 -14 -30 -7 -26 -8 30 -9 47 -1 72 -7 90 -21 22 -17 23 -19 7 -26
-16 -6 -16 -8 -2 -18 12 -9 8 -11 -24 -10 -22 0 -38 -2 -36 -6 2 -4 21 -6 42
-5 35 1 38 3 37 30 -2 73 -15 105 -42 104 -12 0 -10 -3 7 -10z"/>
<path fill="#000000" stroke="none" d="M212 237 c-9 -10 -1 -13 36 -13 26 -1
36 1 22 3 -14 3 -30 9 -36 14 -7 6 -15 4 -22 -4z"/>
<path fill="#000000" stroke="none" d="M135 170 c-4 -7 -3 -16 3 -22 14 -14
47 -6 47 12 0 18 -40 26 -50 10z"/>
<path fill="#ffffff" stroke="none" d="M170 160 c0 -5 -4 -10 -10 -10 -5 0
-10 5 -10 10 0 6 5 10 10 10 6 0 10 -4 10 -10z"/>
<path fill="#000000" stroke="none" d="M272 139 c3 -20 1 -26 -6 -19 -13 13
-36 13 -36 0 0 -5 7 -10 15 -10 8 0 19 -9 24 -19 12 -22 -2 -31 -49 -31 -20 0
-31 -6 -35 -19 -3 -11 -16 -22 -28 -24 -12 -2 10 -5 49 -6 89 -1 104 11 104
91 0 48 -3 56 -21 61 -19 5 -21 2 -17 -24z"/>
<path fill="#ffffff" stroke="none" d="M297 67 c-5 -37 -17 -50 -33 -36 -12
10 -11 14 6 26 12 9 19 21 16 30 -3 8 -1 11 4 8 6 -4 9 -16 7 -28z"/>
<path fill="#000000" stroke="none" d="M80 81 c-10 -26 -11 -34 0 -44 10 -9
11 -9 6 0 -4 7 -2 22 4 33 6 12 10 26 8 32 -2 6 -10 -3 -18 -21z"/>
<path fill="#000000" stroke="none" d="M173 58 c-2 -18 0 -20 7 -8 12 18 13
30 2 30 -4 0 -9 -10 -9 -22z"/>
<path fill="#000000" stroke="none" d="M94 35 c1 -27 20 -34 30 -10 3 8 12 15
21 15 8 0 15 5 15 10 0 6 -15 10 -34 10 -30 0 -34 -3 -32 -25z"/>
</g>
</svg>
