<?xml version="1.0" standalone="no"?>
<!DOCTYPE svg PUBLIC "-//W3C//DTD SVG 20010904//EN"
 "http://www.w3.org/TR/2001/REC-SVG-20010904/DTD/svg10.dtd">
<svg version="1.0" xmlns="http://www.w3.org/2000/svg"
 width="32.000000pt" height="32.000000pt" viewBox="0 0 32.000000 32.000000"
 preserveAspectRatio="xMidYMid meet">
<metadata>
Created by potrace 1.16, written by Peter Selinger 2001-2019
</metadata>
<g transform="translate(0.000000,32.000000) scale(0.100000,-0.100000)"
fill="#000000" stroke="none">
<path fill="#000000" stroke="none" d="M23 288 c-9 -13 -9 -61 1 -105 3 -13 1
-25 -4 -28 -5 -3 -7 -26 -5 -52 2 -39 6 -47 24 -48 14 -1 18 2 12 9 -5 6 -11
35 -12 64 -4 50 -2 53 21 58 43 10 46 14 8 11 -35 -3 -37 -2 -31 23 8 36 12
40 34 40 24 0 24 9 2 26 -23 17 -38 17 -50 2z"/>
<path fill="#000000" stroke="none" d="M106 272 c-4 -7 3 -25 18 -43 14 -17
26 -26 26 -21 0 6 3 19 6 29 4 13 3 14 -3 5 -8 -11 -12 -11 -20 0 -6 7 -12 20
-15 28 -3 10 -6 11 -12 2z"/>
<path fill="#000000" stroke="none" d="M189 263 c35 -2 73 -11 85 -19 20 -14
20 -14 -6 -14 -15 0 -30 5 -33 11 -5 7 -13 4 -26 -7 -10 -9 -16 -21 -13 -26 3
-5 11 -2 17 6 9 11 20 13 47 7 19 -5 29 -9 21 -10 -12 -1 -11 -4 2 -13 15 -11
12 -13 -22 -12 -22 0 -38 -2 -36 -6 2 -4 21 -6 41 -6 31 2 38 6 39 24 1 12 -1
22 -5 22 -4 0 -5 12 -2 28 5 24 3 25 -10 14 -11 -9 -18 -10 -23 -2 -3 5 -35 9
-73 8 l-67 -2 64 -3z"/>
<path fill="#000000" stroke="none" d="M130 175 c-15 -18 2 -45 30 -45 28 0
45 27 30 45 -16 19 -44 19 -60 0z"/>
<path fill="#ffffff" stroke="none" d="M185 160 c0 -18 -33 -26 -47 -12 -6 6
-7 15 -3 22 10 16 50 8 50 -10z"/>
<path fill="#000000" stroke="none" d="M150 160 c0 -5 5 -10 10 -10 6 0 10 5
10 10 0 6 -4 10 -10 10 -5 0 -10 -4 -10 -10z"/>
<path fill="#000000" stroke="none" d="M272 140 c3 -20 1 -27 -6 -21 -13 11
-66 9 -66 -1 0 -5 13 -8 30 -8 19 0 33 -7 39 -19 12 -22 -2 -31 -50 -31 -17 0
-29 -5 -29 -13 0 -8 7 -14 15 -14 8 0 12 4 9 9 -7 11 3 10 29 -3 12 -7 19 -8
15 -4 -5 5 1 15 13 23 12 8 18 21 15 31 -5 12 -3 11 9 -3 13 -17 14 -15 13 27
0 36 -4 46 -20 50 -17 5 -19 2 -16 -23z"/>
<path fill="#000000" stroke="none" d="M60 130 c0 -6 7 -10 15 -10 8 0 15 2
15 4 0 2 -7 6 -15 10 -8 3 -15 1 -15 -4z"/>
<path fill="#000000" stroke="none" d="M80 80 c-10 -24 -10 -34 -1 -43 10 -9
11 -8 5 8 -7 19 -7 19 13 2 13 -11 23 -14 27 -8 4 6 13 8 21 4 8 -3 15 0 15 6
0 6 -16 11 -36 11 -24 0 -34 4 -31 13 2 6 9 12 15 12 17 0 16 19 -1 23 -8 2
-20 -11 -27 -28z"/>
<path fill="#000000" stroke="none" d="M145 90 c-3 -5 -1 -10 4 -10 6 0 11 5
11 10 0 6 -2 10 -4 10 -3 0 -8 -4 -11 -10z"/>
<path fill="#000000" stroke="none" d="M172 72 c1 -26 3 -30 10 -18 5 10 5 23
-1 34 -8 14 -10 10 -9 -16z"/>
<path fill="#000000" stroke="none" d="M270 20 c-9 -6 -10 -10 -3 -10 6 0 15
5 18 10 8 12 4 12 -15 0z"/>
<path fill="#000000" stroke="none" d="M178 13 c6 -2 18 -2 25 0 6 3 1 5 -13
5 -14 0 -19 -2 -12 -5z"/>
</g>
</svg>
