<?xml version="1.0" standalone="no"?>
<!DOCTYPE svg PUBLIC "-//W3C//DTD SVG 20010904//EN"
 "http://www.w3.org/TR/2001/REC-SVG-20010904/DTD/svg10.dtd">
<svg version="1.0" xmlns="http://www.w3.org/2000/svg"
 width="32.000000pt" height="32.000000pt" viewBox="0 0 32.000000 32.000000"
 preserveAspectRatio="xMidYMid meet">
<metadata>
Created by potrace 1.16, written by Peter Selinger 2001-2019
</metadata>
<g transform="translate(0.000000,32.000000) scale(0.100000,-0.100000)"
fill="#000000" stroke="none">
<path fill="#000000" stroke="none" d="M26 291 c-12 -13 -15 -29 -12 -56 6
-45 16 -58 36 -44 13 9 12 10 -3 5 -14 -5 -16 -1 -11 22 9 38 13 42 34 42 25
0 31 12 14 28 -8 7 -14 10 -14 6 0 -3 -6 -1 -13 5 -11 8 -18 6 -31 -8z"/>
<path fill="#000000" stroke="none" d="M269 299 c20 -8 21 -11 10 -25 -8 -9
-15 -12 -17 -6 -2 6 -10 8 -19 5 -11 -4 -14 -2 -9 5 4 7 -1 9 -16 6 -13 -3
-39 -9 -58 -14 -31 -7 -27 -8 28 -9 40 -1 72 -7 88 -18 26 -17 26 -17 23 13
-4 36 -17 54 -38 53 -10 0 -8 -4 8 -10z"/>
<path fill="#000000" stroke="none" d="M110 251 c0 -6 4 -13 10 -16 6 -3 7 1
4 9 -7 18 -14 21 -14 7z"/>
<path fill="#000000" stroke="none" d="M218 233 c7 -3 16 -2 19 1 4 3 -2 6
-13 5 -11 0 -14 -3 -6 -6z"/>
<path fill="#000000" stroke="none" d="M280 210 c-13 -9 -13 -10 0 -10 13 0
13 -1 0 -10 -12 -7 -11 -9 5 -8 13 1 21 9 21 20 0 20 -5 22 -26 8z"/>
<path fill="#000000" stroke="none" d="M130 175 c-15 -18 2 -45 30 -45 28 0
45 27 30 45 -16 19 -44 19 -60 0z"/>
<path fill="#ffffff" stroke="none" d="M185 160 c0 -18 -33 -26 -47 -12 -6 6
-7 15 -3 22 10 16 50 8 50 -10z"/>
<path fill="#000000" stroke="none" d="M150 160 c0 -5 5 -10 10 -10 6 0 10 5
10 10 0 6 -4 10 -10 10 -5 0 -10 -4 -10 -10z"/>
<path fill="#000000" stroke="none" d="M22 162 c-17 -11 -13 -112 6 -134 8
-10 25 -18 36 -18 17 0 18 2 6 9 -8 6 -17 8 -21 5 -4 -2 -12 3 -18 10 -14 17
2 31 22 20 9 -6 9 -5 0 7 -6 8 -13 36 -15 61 -2 35 -6 45 -16 40z"/>
<path fill="#000000" stroke="none" d="M272 139 c5 -32 0 -36 -22 -16 -8 6 -6
2 4 -10 10 -12 23 -21 30 -20 14 2 16 -43 3 -61 -7 -9 -13 -9 -23 -1 -12 10
-11 14 3 25 15 11 12 12 -26 7 -31 -4 -46 -2 -53 8 -7 11 -8 9 -4 -6 7 -25 -3
-41 -29 -48 -11 -2 12 -5 51 -6 90 -1 105 11 103 91 -1 47 -5 57 -21 62 -17 4
-19 1 -16 -25z"/>
<path fill="#ffffff" stroke="none" d="M235 30 c-3 -5 -14 -10 -23 -9 -14 0
-13 2 3 9 27 11 27 11 20 0z"/>
<path fill="#000000" stroke="none" d="M76 75 c-9 -26 -7 -32 5 -12 6 10 9 21
6 23 -2 3 -7 -2 -11 -11z"/>
<path fill="#000000" stroke="none" d="M94 35 c0 -14 7 -25 14 -25 7 0 10 4 7
10 -3 5 6 12 20 16 36 9 31 24 -9 24 -30 0 -34 -3 -32 -25z"/>
</g>
</svg>
