<?xml version="1.0" standalone="no"?>
<!DOCTYPE svg PUBLIC "-//W3C//DTD SVG 20010904//EN"
 "http://www.w3.org/TR/2001/REC-SVG-20010904/DTD/svg10.dtd">
<svg version="1.0" xmlns="http://www.w3.org/2000/svg"
 width="32.000000pt" height="32.000000pt" viewBox="0 0 32.000000 32.000000"
 preserveAspectRatio="xMidYMid meet">
<metadata>
Created by potrace 1.16, written by Peter Selinger 2001-2019
</metadata>
<g transform="translate(0.000000,32.000000) scale(0.100000,-0.100000)"
fill="#000000" stroke="none">
<path fill="#000000" stroke="none" d="M27 292 c-14 -15 -17 -41 -17 -134 0
-150 -2 -148 152 -148 150 0 148 -2 148 152 0 150 2 148 -152 148 -99 0 -117
-3 -131 -18z"/>
<path fill="#ffffff" stroke="none" d="M88 238 c-2 -14 -13 -24 -30 -29 -20
-5 -26 -4 -22 7 2 8 6 21 9 29 2 8 14 15 25 15 16 0 21 -5 18 -22z"/>
<path fill="#ffffff" stroke="none" d="M214 249 c-3 -6 -15 -9 -25 -6 -11 3
-19 0 -20 -6 0 -8 -2 -8 -6 1 -2 6 -9 10 -13 7 -5 -3 -11 -1 -15 5 -4 6 11 10
40 10 31 0 44 -4 39 -11z"/>
<path fill="#ffffff" stroke="none" d="M265 249 c11 -17 0 -20 -21 -4 -17 13
-17 14 -2 15 9 0 20 -5 23 -11z"/>
<path fill="#ffffff" stroke="none" d="M181 217 c-6 -8 -8 -17 -4 -20 3 -4 2
-7 -4 -7 -6 0 -14 7 -17 16 -3 8 -2 12 3 9 5 -3 12 -1 16 5 3 5 9 10 12 10 3
0 0 -6 -6 -13z"/>
<path fill="#ffffff" stroke="none" d="M140 199 c0 -17 -28 -40 -35 -29 -3 5
-1 10 5 10 6 0 8 5 5 10 -3 6 -1 10 5 10 6 0 8 5 4 12 -4 7 -3 8 4 4 7 -4 12
-12 12 -17z"/>
<path fill="#ffffff" stroke="none" d="M270 205 c0 -9 -6 -12 -16 -8 -13 5
-13 7 -2 14 17 11 18 11 18 -6z"/>
<path fill="#ffffff" stroke="none" d="M75 170 c-18 -8 -18 -9 5 -10 14 -1 19
-4 12 -7 -6 -2 -10 -9 -6 -14 3 -5 1 -9 -5 -9 -5 0 -11 6 -14 13 -2 6 -7 9
-11 6 -4 -4 0 -14 9 -23 15 -15 15 -16 -2 -17 -16 0 -16 -1 2 -9 l20 -9 -20
-1 c-11 -1 -14 -4 -7 -7 6 -2 10 -9 6 -14 -12 -20 -24 4 -24 50 0 54 4 61 34
60 21 0 21 -1 1 -9z"/>
<path fill="#ffffff" stroke="none" d="M269 148 c0 -27 -2 -29 -8 -13 -5 11
-6 26 -4 33 8 21 13 13 12 -20z"/>
<path fill="#ffffff" stroke="none" d="M185 143 c-2 -10 -4 -20 -4 -23 -1 -3
-12 -7 -27 -8 -14 -1 -23 2 -19 8 3 6 16 10 28 11 13 0 16 3 8 6 -11 5 -11 7
0 14 18 11 18 12 14 -8z"/>
<path fill="#ffffff" stroke="none" d="M125 131 c-3 -6 -11 -11 -16 -11 -5 0
-4 6 3 14 14 16 24 13 13 -3z"/>
<path fill="#ffffff" stroke="none" d="M158 67 c9 -3 -2 -5 -26 -6 -27 -1 -41
3 -37 9 3 6 13 10 21 10 8 0 15 6 15 13 1 6 3 4 6 -5 2 -9 12 -19 21 -21z"/>
<path fill="#ffffff" stroke="none" d="M251 76 c5 3 7 10 4 15 -4 5 -1 9 5 9
6 0 10 -8 8 -17 -2 -12 -14 -19 -37 -21 -22 -2 -31 0 -26 7 3 6 11 9 16 6 5
-4 10 2 10 12 1 17 2 17 6 0 2 -9 9 -15 14 -11z"/>
<path fill="#000000" stroke="none" d="M66 235 c-3 -8 -1 -15 4 -15 6 0 10 7
10 15 0 8 -2 15 -4 15 -2 0 -6 -7 -10 -15z"/>
</g>
</svg>
