<?xml version="1.0" standalone="no"?>
<!DOCTYPE svg PUBLIC "-//W3C//DTD SVG 20010904//EN"
 "http://www.w3.org/TR/2001/REC-SVG-20010904/DTD/svg10.dtd">
<svg version="1.0" xmlns="http://www.w3.org/2000/svg"
 width="32.000000pt" height="32.000000pt" viewBox="0 0 32.000000 32.000000"
 preserveAspectRatio="xMidYMid meet">
<metadata>
Created by potrace 1.16, written by Peter Selinger 2001-2019
</metadata>
<g transform="translate(0.000000,32.000000) scale(0.100000,-0.100000)"
fill="#000000" stroke="none">
<path fill="#000000" stroke="none" d="M0 160 l0 -160 160 0 160 0 0 160 0
160 -160 0 -160 0 0 -160z"/>
<path fill="#ffffff" stroke="none" d="M71 290 c25 -14 25 -30 0 -30 -22 0
-26 -4 -34 -40 -6 -25 -4 -26 31 -23 38 3 35 -1 -8 -11 -23 -5 -25 -8 -21 -58
1 -29 7 -57 11 -63 5 -6 0 -11 -13 -11 -19 -1 -22 4 -24 47 -1 27 2 51 7 54 5
3 7 15 4 28 -21 98 -5 134 47 107z"/>
<path fill="#ffffff" stroke="none" d="M139 235 c6 -3 11 -13 11 -21 0 -10 -9
-4 -26 15 -14 17 -22 36 -18 43 5 8 10 5 15 -9 4 -12 12 -24 18 -28z"/>
<path fill="#ffffff" stroke="none" d="M297 244 c-2 -13 -1 -24 3 -24 4 0 6
-10 5 -22 -1 -18 -8 -22 -39 -24 -20 0 -39 2 -41 6 -2 4 14 6 36 6 34 -1 37 1
22 12 -13 9 -14 12 -2 13 8 1 -2 5 -21 10 -26 6 -38 4 -46 -6 -6 -8 -14 -12
-18 -8 -10 10 25 43 38 36 6 -4 22 -9 36 -11 25 -3 25 -3 4 12 -11 8 -47 17
-80 19 l-59 4 68 0 c37 0 70 3 73 6 13 13 26 -6 21 -29z"/>
<path fill="#ffffff" stroke="none" d="M185 160 c0 -18 -33 -26 -47 -12 -6 6
-7 15 -3 22 10 16 50 8 50 -10z"/>
<path fill="#ffffff" stroke="none" d="M308 113 c1 -42 0 -44 -13 -27 -12 14
-14 15 -9 3 3 -10 -3 -23 -15 -31 -12 -8 -18 -18 -14 -21 3 -4 1 -7 -5 -7 -6
0 -14 4 -17 10 -3 5 -11 10 -16 10 -6 0 -8 -4 -5 -8 3 -5 -1 -9 -9 -9 -8 0
-15 6 -15 14 0 8 12 13 29 13 48 0 62 9 50 31 -6 12 -20 19 -39 19 -17 0 -30
3 -30 8 0 10 53 12 66 1 7 -6 9 1 6 21 -3 25 -1 28 16 23 16 -4 20 -14 20 -50z"/>
<path fill="#ffffff" stroke="none" d="M80 110 c-6 -11 -13 -20 -15 -20 -2 0
-3 9 -2 20 1 11 7 20 14 20 11 0 11 -5 3 -20z"/>
<path fill="#ffffff" stroke="none" d="M107 92 c-24 -27 -21 -32 18 -32 19 0
35 -5 35 -11 0 -6 -7 -9 -15 -6 -8 4 -17 2 -21 -4 -4 -6 -14 -3 -27 8 -20 17
-20 17 -14 0 4 -10 3 -16 -2 -13 -5 3 -11 15 -14 26 -3 11 -1 18 3 15 5 -3 11
4 15 15 3 11 13 20 22 20 14 0 14 -2 0 -18z"/>
<path fill="#ffffff" stroke="none" d="M182 54 c-7 -12 -9 -8 -10 18 -1 26 1
30 9 16 6 -11 6 -24 1 -34z"/>
<path fill="#ffffff" stroke="none" d="M285 20 c-3 -5 -12 -10 -18 -10 -7 0
-6 4 3 10 19 12 23 12 15 0z"/>
<path fill="#ffffff" stroke="none" d="M203 13 c-7 -2 -19 -2 -25 0 -7 3 -2 5
12 5 14 0 19 -2 13 -5z"/>
<path fill="#000000" stroke="none" d="M150 160 c0 -5 5 -10 10 -10 6 0 10 5
10 10 0 6 -4 10 -10 10 -5 0 -10 -4 -10 -10z"/>
</g>
</svg>
