<?xml version="1.0" standalone="no"?>
<!DOCTYPE svg PUBLIC "-//W3C//DTD SVG 20010904//EN"
 "http://www.w3.org/TR/2001/REC-SVG-20010904/DTD/svg10.dtd">
<svg version="1.0" xmlns="http://www.w3.org/2000/svg"
 width="32.000000pt" height="32.000000pt" viewBox="0 0 32.000000 32.000000"
 preserveAspectRatio="xMidYMid meet">
<metadata>
Created by potrace 1.16, written by Peter Selinger 2001-2019
</metadata>
<g transform="translate(0.000000,32.000000) scale(0.100000,-0.100000)"
fill="#000000" stroke="none">
<path fill="#000000" stroke="none" d="M28 293 c-14 -15 -17 -41 -17 -133 -1
-153 -3 -150 149 -150 142 0 150 5 150 98 0 54 -2 61 -17 56 -17 -5 -17 -5 0
6 12 8 17 24 17 59 0 61 -20 81 -82 81 -43 0 -76 -18 -61 -33 3 -4 -1 -7 -10
-7 -10 0 -14 5 -11 15 4 8 2 15 -2 16 -5 0 -29 3 -55 5 -35 4 -49 1 -61 -13z"/>
<path fill="#ffffff" stroke="none" d="M116 234 c13 -14 24 -30 24 -35 0 -6 5
-7 10 -4 11 7 -5 44 -24 58 -6 4 22 6 63 5 49 -2 76 -7 79 -15 2 -7 -3 -13
-12 -13 -9 0 -16 5 -16 10 0 21 -26 9 -44 -20 -12 -22 -14 -30 -4 -28 7 2 16
11 21 22 6 15 10 16 22 6 8 -6 19 -9 25 -5 5 3 10 -1 10 -10 0 -9 -4 -13 -10
-10 -6 3 -10 1 -10 -4 0 -6 5 -11 10 -11 6 0 10 -15 9 -32 0 -18 -3 -27 -6
-21 -3 9 -10 10 -23 3 -10 -5 -26 -7 -35 -4 -10 4 -15 2 -13 -7 4 -18 -52 -22
-59 -4 -4 11 -10 12 -24 4 -22 -11 -23 -7 -8 24 9 19 7 18 -10 -3 -18 -21 -22
-23 -30 -10 -8 12 -10 10 -8 -8 1 -13 6 -21 14 -18 7 3 15 1 18 -4 3 -4 1 -10
-5 -12 -6 -2 -12 -14 -15 -27 -2 -14 -10 -29 -16 -35 -9 -8 -9 -6 0 11 7 14 8
24 1 28 -5 3 -10 29 -10 56 0 28 -4 48 -8 45 -5 -3 -9 1 -9 9 0 10 4 12 12 5
7 -6 16 -5 23 2 9 9 12 9 12 0 0 -7 5 -12 11 -12 5 0 7 5 3 12 -5 7 -2 9 9 5
18 -7 32 19 15 29 -7 4 -8 3 -4 -4 4 -7 1 -12 -9 -12 -10 0 -13 5 -9 12 4 7 3
8 -4 4 -24 -15 -51 -15 -46 0 2 8 6 21 9 29 7 23 45 18 71 -11z"/>
<path fill="#ffffff" stroke="none" d="M295 231 c3 -5 2 -12 -3 -15 -5 -3 -9
1 -9 9 0 17 3 19 12 6z"/>
<path fill="#ffffff" stroke="none" d="M268 95 c14 -14 -11 -35 -41 -35 -30 0
-34 3 -32 23 1 12 3 23 4 23 3 3 65 -6 69 -11z"/>
<path fill="#ffffff" stroke="none" d="M295 66 c1 -13 -5 -23 -12 -23 -8 0 -9
5 -2 19 5 10 7 24 3 31 -4 7 -3 8 2 4 5 -5 9 -19 9 -31z"/>
<path fill="#ffffff" stroke="none" d="M166 75 c14 -13 10 -15 -30 -15 -45 0
-63 14 -28 23 32 9 43 7 58 -8z"/>
<path fill="#ffffff" stroke="none" d="M94 29 c-3 -5 -10 -7 -15 -3 -5 3 -7
10 -3 15 3 5 10 7 15 3 5 -3 7 -10 3 -15z"/>
<path fill="#ffffff" stroke="none" d="M190 44 c0 -8 -19 -13 -24 -6 -3 5 1 9
9 9 8 0 15 -2 15 -3z"/>
<path fill="#000000" stroke="none" d="M220 189 c0 -17 27 -45 35 -37 3 3 -3
16 -14 29 -16 19 -20 20 -21 8z"/>
<path fill="#000000" stroke="none" d="M135 170 c-4 -7 -3 -16 3 -22 14 -14
47 -6 47 12 0 18 -40 26 -50 10z"/>
<path fill="#ffffff" stroke="none" d="M170 160 c0 -5 -4 -10 -10 -10 -5 0
-10 5 -10 10 0 6 5 10 10 10 6 0 10 -4 10 -10z"/>
</g>
</svg>
