<?xml version="1.0" standalone="no"?>
<!DOCTYPE svg PUBLIC "-//W3C//DTD SVG 20010904//EN"
 "http://www.w3.org/TR/2001/REC-SVG-20010904/DTD/svg10.dtd">
<svg version="1.0" xmlns="http://www.w3.org/2000/svg"
 width="32.000000pt" height="32.000000pt" viewBox="0 0 32.000000 32.000000"
 preserveAspectRatio="xMidYMid meet">
<metadata>
Created by potrace 1.16, written by Peter Selinger 2001-2019
</metadata>
<g transform="translate(0.000000,32.000000) scale(0.100000,-0.100000)"
fill="#000000" stroke="none">
<path fill="#000000" stroke="none" d="M0 160 l0 -160 160 0 160 0 0 160 0
160 -160 0 -160 0 0 -160z"/>
<path fill="#ffffff" stroke="none" d="M292 293 c25 -22 25 -107 1 -123 -17
-11 -17 -11 0 -6 15 5 17 -2 17 -56 0 -93 -8 -98 -150 -98 -152 0 -150 -3
-149 150 0 153 -2 150 147 150 93 0 119 -3 134 -17z"/>
<path fill="#000000" stroke="none" d="M45 245 c-3 -8 -7 -21 -9 -29 -4 -10 1
-13 16 -11 11 3 28 0 37 -5 10 -6 12 -10 4 -11 -7 -1 -17 -2 -22 -3 -5 0 -13
-4 -17 -8 -4 -4 -12 -3 -19 2 -8 7 -12 5 -12 -5 0 -8 4 -12 9 -9 4 3 8 -17 8
-44 0 -33 5 -54 16 -62 12 -11 15 -11 12 1 -2 8 -7 17 -13 21 -5 4 1 8 15 9
l25 1 -25 8 c-18 6 -20 8 -7 9 17 1 17 2 2 17 -9 9 -13 19 -9 23 4 3 9 0 11
-6 3 -7 9 -13 14 -13 6 0 7 5 4 10 -3 6 0 10 7 11 7 1 2 5 -12 10 l-25 8 25
-2 c26 -3 27 -7 14 -42 -4 -11 -4 -17 1 -13 4 4 23 1 42 -7 30 -13 35 -13 51
3 9 9 23 17 30 18 31 2 32 5 18 33 -9 16 -13 38 -11 50 2 12 0 19 -6 16 -5 -4
-9 -14 -9 -23 0 -14 -2 -15 -9 -2 -6 8 -7 18 -5 22 3 4 -5 7 -17 5 -12 -1 -24
4 -26 13 -4 13 -3 13 6 0 8 -11 11 -11 11 -2 0 10 5 10 20 2 14 -7 20 -7 20 0
0 5 7 10 15 10 8 0 15 -4 15 -8 0 -5 7 -9 15 -9 9 0 14 5 12 11 -2 6 -36 12
-76 14 -68 3 -72 2 -57 -13 9 -9 16 -24 15 -33 0 -14 -3 -13 -16 6 -16 23 -33
29 -33 11 0 -5 5 -7 10 -4 6 3 10 -1 10 -11 0 -14 -2 -15 -17 -3 -9 8 -18 13
-20 12 -11 -9 -21 0 -16 14 6 15 7 15 13 -2 6 -17 7 -17 12 3 5 18 2 22 -18
22 -14 0 -27 -7 -29 -15z"/>
<path fill="#ffffff" stroke="none" d="M185 160 c0 -18 -33 -26 -47 -12 -6 6
-7 15 -3 22 10 16 50 8 50 -10z"/>
<path fill="#ffffff" stroke="none" d="M230 144 c0 -8 -5 -12 -10 -9 -6 4 -8
11 -5 16 9 14 15 11 15 -7z"/>
<path fill="#000000" stroke="none" d="M150 160 c0 -5 5 -10 10 -10 6 0 10 5
10 10 0 6 -4 10 -10 10 -5 0 -10 -4 -10 -10z"/>
<path fill="#000000" stroke="none" d="M283 225 c0 -8 4 -12 9 -9 5 3 6 10 3
15 -9 13 -12 11 -12 -6z"/>
<path fill="#000000" stroke="none" d="M244 205 c-16 -12 -17 -16 -5 -24 8 -5
16 -20 18 -32 5 -34 13 -36 13 -4 0 15 -8 34 -17 42 -17 14 -17 14 0 9 11 -3
17 0 17 9 0 19 -2 19 -26 0z"/>
<path fill="#000000" stroke="none" d="M197 103 c-4 -3 -7 -11 -7 -17 0 -6 5
-4 10 4 8 13 10 13 10 -2 0 -9 -6 -19 -12 -22 -7 -3 5 -4 27 -3 44 2 62 30 25
40 -15 4 -20 0 -21 -16 0 -22 0 -22 -9 1 -10 24 -13 26 -23 15z"/>
<path fill="#ffffff" stroke="none" d="M260 86 c0 -3 -4 -8 -10 -11 -5 -3 -10
-1 -10 4 0 6 5 11 10 11 6 0 10 -2 10 -4z"/>
<path fill="#000000" stroke="none" d="M131 93 c0 -7 -10 -13 -21 -13 -11 0
-20 -4 -20 -10 0 -5 21 -10 48 -10 32 0 42 3 32 9 -8 6 -17 8 -21 5 -4 -2 -10
4 -12 13 -3 10 -5 12 -6 6z"/>
<path fill="#000000" stroke="none" d="M284 80 c0 -13 4 -16 10 -10 7 7 7 13
0 20 -6 6 -10 3 -10 -10z"/>
<path fill="#000000" stroke="none" d="M76 41 c-4 -5 -2 -12 3 -15 5 -4 12 -2
15 3 4 5 2 12 -3 15 -5 4 -12 2 -15 -3z"/>
<path fill="#000000" stroke="none" d="M166 38 c3 -5 10 -6 15 -3 13 9 11 12
-6 12 -8 0 -12 -4 -9 -9z"/>
</g>
</svg>
