<?xml version="1.0" standalone="no"?>
<!DOCTYPE svg PUBLIC "-//W3C//DTD SVG 20010904//EN"
 "http://www.w3.org/TR/2001/REC-SVG-20010904/DTD/svg10.dtd">
<svg version="1.0" xmlns="http://www.w3.org/2000/svg"
 width="32.000000pt" height="32.000000pt" viewBox="0 0 32.000000 32.000000"
 preserveAspectRatio="xMidYMid meet">
<metadata>
Created by potrace 1.16, written by Peter Selinger 2001-2019
</metadata>
<g transform="translate(0.000000,32.000000) scale(0.100000,-0.100000)"
fill="#000000" stroke="none">
<path fill="#000000" stroke="none" d="M32 292 c-7 -2 -12 -20 -12 -40 0 -36
1 -36 13 -12 7 13 22 27 34 30 l22 5 -22 11 c-13 6 -28 9 -35 6z"/>
<path fill="#000000" stroke="none" d="M285 260 c-3 -5 -1 -10 4 -10 6 0 11 5
11 10 0 6 -2 10 -4 10 -3 0 -8 -4 -11 -10z"/>
<path fill="#000000" stroke="none" d="M110 251 c0 -6 4 -13 10 -16 6 -3 7 1
4 9 -7 18 -14 21 -14 7z"/>
<path fill="#000000" stroke="none" d="M218 233 c7 -3 16 -2 19 1 4 3 -2 6
-13 5 -11 0 -14 -3 -6 -6z"/>
<path fill="#000000" stroke="none" d="M35 190 c-3 -6 1 -7 9 -4 18 7 21 14 7
14 -6 0 -13 -4 -16 -10z"/>
<path fill="#000000" stroke="none" d="M135 170 c-4 -7 -3 -16 3 -22 14 -14
47 -6 47 12 0 18 -40 26 -50 10z"/>
<path fill="#ffffff" stroke="none" d="M170 160 c0 -5 -4 -10 -10 -10 -5 0
-10 5 -10 10 0 6 5 10 10 10 6 0 10 -4 10 -10z"/>
<path fill="#000000" stroke="none" d="M17 153 c-2 -4 -2 -24 0 -43 2 -19 5
-41 5 -48 1 -6 4 -10 7 -7 5 6 2 97 -4 103 -2 2 -5 0 -8 -5z"/>
<path fill="#000000" stroke="none" d="M283 149 c3 -9 1 -22 -3 -29 -7 -11
-12 -11 -27 0 -17 13 -16 13 1 -7 10 -13 22 -20 27 -18 4 3 12 -3 18 -12 8
-14 9 -9 5 22 -3 22 -10 45 -16 50 -8 7 -9 5 -5 -6z"/>
<path fill="#000000" stroke="none" d="M76 75 c-9 -26 -7 -32 5 -12 6 10 9 21
6 23 -2 3 -7 -2 -11 -11z"/>
<path fill="#000000" stroke="none" d="M105 40 c4 -6 11 -8 16 -5 14 9 11 15
-7 15 -8 0 -12 -5 -9 -10z"/>
<path fill="#000000" stroke="none" d="M190 42 c0 -5 7 -9 15 -9 8 0 12 4 9 9
-3 4 -9 8 -15 8 -5 0 -9 -4 -9 -8z"/>
<path fill="#000000" stroke="none" d="M230 46 c0 -2 7 -7 16 -10 8 -3 12 -2
9 4 -6 10 -25 14 -25 6z"/>
<path fill="#000000" stroke="none" d="M270 20 c-9 -6 -10 -10 -3 -10 6 0 15
5 18 10 8 12 4 12 -15 0z"/>
<path fill="#000000" stroke="none" d="M178 13 c6 -2 18 -2 25 0 6 3 1 5 -13
5 -14 0 -19 -2 -12 -5z"/>
</g>
</svg>
