<?xml version="1.0" standalone="no"?>
<!DOCTYPE svg PUBLIC "-//W3C//DTD SVG 20010904//EN"
 "http://www.w3.org/TR/2001/REC-SVG-20010904/DTD/svg10.dtd">
<svg version="1.0" xmlns="http://www.w3.org/2000/svg"
 width="32.000000pt" height="32.000000pt" viewBox="0 0 32.000000 32.000000"
 preserveAspectRatio="xMidYMid meet">
<metadata>
Created by potrace 1.16, written by Peter Selinger 2001-2019
</metadata>
<g transform="translate(0.000000,32.000000) scale(0.100000,-0.100000)"
fill="#000000" stroke="none">
<path fill="#000000" stroke="none" d="M0 160 l0 -160 160 0 160 0 0 160 0
160 -160 0 -160 0 0 -160z"/>
<path fill="#ffffff" stroke="none" d="M144 301 c4 -1 6 -8 2 -16 -3 -10 1
-15 11 -15 9 0 13 3 10 7 -15 15 18 33 61 33 62 0 82 -20 82 -81 0 -35 -5 -51
-17 -59 -17 -11 -17 -11 0 -6 15 5 17 -2 17 -56 0 -93 -8 -98 -150 -98 -152 0
-150 -3 -149 150 0 139 8 154 78 146 26 -2 50 -5 55 -5z"/>
<path fill="#000000" stroke="none" d="M45 245 c-3 -8 -7 -21 -9 -29 -5 -15
22 -15 46 0 6 4 8 3 4 -4 -3 -5 0 -13 6 -15 10 -4 10 -6 0 -6 -7 -1 -10 -5 -7
-11 3 -5 1 -10 -4 -10 -6 0 -11 5 -11 12 0 9 -3 9 -12 0 -7 -7 -16 -8 -23 -2
-8 7 -12 5 -12 -5 0 -8 4 -12 9 -9 4 3 8 -17 8 -45 0 -27 5 -53 10 -56 7 -4 6
-14 -1 -28 -9 -17 -9 -19 0 -11 6 6 14 21 16 35 3 13 9 25 15 27 6 2 8 8 5 12
-3 5 -11 7 -18 4 -8 -3 -13 5 -14 18 -2 18 0 20 8 8 8 -13 12 -11 30 10 20 24
20 24 9 2 -6 -13 -9 -26 -6 -30 3 -3 6 -2 6 1 0 4 16 1 35 -8 33 -13 37 -13
55 5 10 10 21 16 23 13 3 -2 14 0 25 6 15 8 22 8 25 -2 3 -6 6 3 6 21 1 17 -4
32 -10 32 -6 0 -9 -7 -5 -15 8 -22 -12 -18 -24 4 -13 26 -13 40 1 21 8 -11 12
-12 16 -2 2 6 9 10 14 6 5 -3 9 2 9 11 0 9 -5 13 -10 10 -6 -4 -18 -1 -26 6
-13 10 -16 9 -21 -10 -4 -16 -8 -19 -13 -10 -5 7 -3 20 3 31 13 19 37 25 37 8
0 -5 7 -10 16 -10 9 0 14 6 12 13 -3 8 -30 13 -77 15 -68 3 -72 2 -57 -13 9
-9 16 -24 16 -33 0 -11 -9 -6 -28 16 -30 34 -69 42 -77 17z"/>
<path fill="#ffffff" stroke="none" d="M190 175 c15 -18 -2 -45 -30 -45 -28 0
-45 27 -30 45 16 19 44 19 60 0z"/>
<path fill="#000000" stroke="none" d="M170 166 c0 -13 -5 -16 -21 -11 -15 5
-19 4 -15 -4 9 -14 43 -14 52 0 3 6 1 16 -5 22 -8 8 -11 6 -11 -7z"/>
<path fill="#000000" stroke="none" d="M283 225 c0 -8 4 -12 9 -9 5 3 6 10 3
15 -9 13 -12 11 -12 -6z"/>
<path fill="#000000" stroke="none" d="M199 106 c-1 0 -3 -11 -4 -23 -2 -20 2
-23 32 -23 30 0 55 21 41 35 -4 5 -66 14 -69 11z"/>
<path fill="#000000" stroke="none" d="M284 93 c4 -7 2 -21 -3 -31 -7 -14 -6
-19 2 -19 15 0 17 41 3 54 -5 4 -6 3 -2 -4z"/>
<path fill="#000000" stroke="none" d="M108 83 c-35 -9 -17 -23 28 -23 40 0
44 2 30 15 -15 15 -26 17 -58 8z"/>
<path fill="#000000" stroke="none" d="M76 41 c-4 -5 -2 -12 3 -15 5 -4 12 -2
15 3 4 5 2 12 -3 15 -5 4 -12 2 -15 -3z"/>
<path fill="#000000" stroke="none" d="M166 38 c3 -5 10 -6 15 -3 13 9 11 12
-6 12 -8 0 -12 -4 -9 -9z"/>
</g>
</svg>
