<?xml version="1.0" standalone="no"?>
<!DOCTYPE svg PUBLIC "-//W3C//DTD SVG 20010904//EN"
 "http://www.w3.org/TR/2001/REC-SVG-20010904/DTD/svg10.dtd">
<svg version="1.0" xmlns="http://www.w3.org/2000/svg"
 width="32.000000pt" height="32.000000pt" viewBox="0 0 32.000000 32.000000"
 preserveAspectRatio="xMidYMid meet">
<metadata>
Created by potrace 1.16, written by Peter Selinger 2001-2019
</metadata>
<g transform="translate(0.000000,32.000000) scale(0.100000,-0.100000)"
fill="#000000" stroke="none">
<path fill="#000000" stroke="none" d="M0 160 l0 -160 160 0 160 0 0 160 0
160 -160 0 -160 0 0 -160z"/>
<path fill="#ffffff" stroke="none" d="M90 268 c0 -4 -10 -8 -22 -10 -15 -2
-24 -11 -26 -26 -5 -30 -22 -18 -22 17 0 38 16 51 46 37 13 -6 24 -14 24 -18z"/>
<path fill="#ffffff" stroke="none" d="M139 235 c6 -3 11 -13 11 -21 0 -10 -9
-4 -26 15 -14 17 -22 36 -18 43 5 8 10 5 15 -9 4 -12 12 -24 18 -28z"/>
<path fill="#ffffff" stroke="none" d="M265 260 c5 -8 12 -7 23 2 15 12 16 11
3 -5 -9 -11 -17 -14 -25 -8 -7 6 -41 12 -76 14 l-65 3 67 2 c38 1 70 -3 73 -8z"/>
<path fill="#ffffff" stroke="none" d="M273 232 c18 3 23 0 25 -16 0 -11 -2
-16 -6 -10 -12 19 -72 26 -78 9 -4 -8 -10 -12 -16 -9 -5 3 -2 14 8 25 13 14
20 16 30 8 8 -6 24 -9 37 -7z"/>
<path fill="#ffffff" stroke="none" d="M95 195 c-5 -2 -21 -6 -35 -9 -23 -5
-25 -8 -21 -58 1 -29 7 -58 11 -63 6 -7 2 -11 -10 -11 -15 0 -18 9 -18 61 0
70 9 85 52 84 17 0 27 -2 21 -4z"/>
<path fill="#ffffff" stroke="none" d="M295 180 c3 -6 1 -10 -6 -10 -8 0 -8
-4 -2 -12 18 -23 22 -58 7 -58 -7 0 -11 -6 -8 -14 3 -8 -4 -20 -15 -28 -12 -8
-18 -18 -13 -23 4 -4 -3 -3 -15 4 -26 13 -36 14 -29 3 3 -5 -1 -9 -9 -9 -8 0
-15 6 -15 14 0 8 12 13 29 13 48 0 62 9 50 31 -6 12 -20 19 -39 19 -17 0 -30
3 -30 8 0 10 53 12 65 2 6 -5 10 4 10 26 0 31 -3 34 -22 29 -12 -3 -24 -2 -26
2 -3 5 10 9 28 10 19 2 37 -2 40 -7z"/>
<path fill="#ffffff" stroke="none" d="M185 160 c0 -18 -33 -26 -47 -12 -6 6
-7 15 -3 22 10 16 50 8 50 -10z"/>
<path fill="#ffffff" stroke="none" d="M107 92 c-24 -27 -21 -32 18 -32 19 0
35 -5 35 -11 0 -6 -7 -9 -15 -6 -8 4 -17 2 -21 -4 -4 -6 -14 -3 -27 8 -20 17
-20 17 -14 0 4 -10 3 -16 -2 -13 -5 3 -11 15 -14 26 -3 11 -1 18 3 15 5 -3 11
4 15 15 3 11 13 20 22 20 14 0 14 -2 0 -18z"/>
<path fill="#ffffff" stroke="none" d="M182 54 c-7 -12 -9 -8 -10 18 -1 26 1
30 9 16 6 -11 6 -24 1 -34z"/>
<path fill="#ffffff" stroke="none" d="M285 20 c-3 -5 -12 -10 -18 -10 -7 0
-6 4 3 10 19 12 23 12 15 0z"/>
<path fill="#ffffff" stroke="none" d="M203 13 c-7 -2 -19 -2 -25 0 -7 3 -2 5
12 5 14 0 19 -2 13 -5z"/>
<path fill="#000000" stroke="none" d="M150 160 c0 -5 5 -10 10 -10 6 0 10 5
10 10 0 6 -4 10 -10 10 -5 0 -10 -4 -10 -10z"/>
</g>
</svg>
