<?xml version="1.0" standalone="no"?>
<!DOCTYPE svg PUBLIC "-//W3C//DTD SVG 20010904//EN"
 "http://www.w3.org/TR/2001/REC-SVG-20010904/DTD/svg10.dtd">
<svg version="1.0" xmlns="http://www.w3.org/2000/svg"
 width="32.000000pt" height="32.000000pt" viewBox="0 0 32.000000 32.000000"
 preserveAspectRatio="xMidYMid meet">
<metadata>
Created by potrace 1.16, written by Peter Selinger 2001-2019
</metadata>
<g transform="translate(0.000000,32.000000) scale(0.100000,-0.100000)"
fill="#000000" stroke="none">
<path fill="#000000" stroke="none" d="M22 287 c-10 -11 -9 -54 2 -104 3 -13
1 -25 -4 -28 -5 -3 -8 -27 -7 -54 2 -43 5 -48 24 -47 13 0 18 5 13 11 -4 6
-10 34 -11 63 -4 50 -2 53 21 58 43 10 46 14 8 11 -35 -3 -37 -2 -31 23 8 36
12 40 34 40 25 0 25 16 0 30 -26 13 -36 13 -49 -3z"/>
<path fill="#000000" stroke="none" d="M106 272 c-4 -7 4 -26 18 -43 17 -19
26 -25 26 -15 0 8 -5 18 -11 21 -6 4 -14 16 -18 28 -5 14 -10 17 -15 9z"/>
<path fill="#000000" stroke="none" d="M276 273 c-3 -3 -36 -6 -73 -6 l-68 0
59 -4 c33 -2 69 -11 80 -19 21 -15 21 -15 -4 -12 -14 2 -30 7 -36 11 -13 7
-48 -26 -38 -36 4 -4 12 0 18 8 8 10 20 12 46 6 19 -5 29 -9 21 -10 -12 -1
-11 -4 2 -13 15 -11 12 -13 -22 -12 -22 0 -38 -2 -36 -6 2 -4 21 -6 41 -6 31
2 38 6 39 24 1 12 -1 22 -5 22 -4 0 -5 11 -3 24 5 23 -8 42 -21 29z"/>
<path fill="#000000" stroke="none" d="M135 170 c-4 -7 -3 -16 3 -22 14 -14
47 -6 47 12 0 18 -40 26 -50 10z"/>
<path fill="#ffffff" stroke="none" d="M170 160 c0 -5 -4 -10 -10 -10 -5 0
-10 5 -10 10 0 6 5 10 10 10 6 0 10 -4 10 -10z"/>
<path fill="#000000" stroke="none" d="M272 140 c3 -20 1 -27 -6 -21 -13 11
-66 9 -66 -1 0 -5 13 -8 30 -8 19 0 33 -7 39 -19 12 -22 -2 -31 -50 -31 -17 0
-29 -5 -29 -13 0 -8 7 -14 15 -14 8 0 12 4 9 9 -3 4 -1 8 5 8 5 0 13 -5 16
-10 3 -6 11 -10 17 -10 6 0 8 3 5 7 -4 3 2 13 14 21 12 8 18 21 15 31 -5 12
-3 11 9 -3 13 -17 14 -15 13 27 0 36 -4 46 -20 50 -17 5 -19 2 -16 -23z"/>
<path fill="#000000" stroke="none" d="M63 110 c-1 -11 0 -20 2 -20 2 0 9 9
15 20 8 15 8 20 -3 20 -7 0 -13 -9 -14 -20z"/>
<path fill="#000000" stroke="none" d="M85 90 c-4 -11 -10 -18 -15 -15 -4 3
-6 -4 -3 -15 3 -11 9 -23 14 -26 5 -3 6 3 2 13 -6 17 -6 17 14 0 13 -11 23
-14 27 -8 4 6 13 8 21 4 8 -3 15 0 15 6 0 6 -16 11 -35 11 -39 0 -42 5 -18 32
14 16 14 18 0 18 -9 0 -19 -9 -22 -20z"/>
<path fill="#000000" stroke="none" d="M172 72 c1 -26 3 -30 10 -18 5 10 5 23
-1 34 -8 14 -10 10 -9 -16z"/>
<path fill="#000000" stroke="none" d="M270 20 c-9 -6 -10 -10 -3 -10 6 0 15
5 18 10 8 12 4 12 -15 0z"/>
<path fill="#000000" stroke="none" d="M178 13 c6 -2 18 -2 25 0 6 3 1 5 -13
5 -14 0 -19 -2 -12 -5z"/>
</g>
</svg>
