<?xml version="1.0" standalone="no"?>
<!DOCTYPE svg PUBLIC "-//W3C//DTD SVG 20010904//EN"
 "http://www.w3.org/TR/2001/REC-SVG-20010904/DTD/svg10.dtd">
<svg version="1.0" xmlns="http://www.w3.org/2000/svg"
 width="32.000000pt" height="32.000000pt" viewBox="0 0 32.000000 32.000000"
 preserveAspectRatio="xMidYMid meet">
<metadata>
Created by potrace 1.16, written by Peter Selinger 2001-2019
</metadata>
<g transform="translate(0.000000,32.000000) scale(0.100000,-0.100000)"
fill="#000000" stroke="none">
<path fill="#000000" stroke="none" d="M0 160 l0 -160 160 0 160 0 0 160 0
160 -160 0 -160 0 0 -160z"/>
<path fill="#ffffff" stroke="none" d="M70 296 c0 5 4 4 8 -3 4 -6 14 -13 22
-15 14 -3 44 -48 36 -55 -2 -2 -13 7 -24 21 -34 44 -82 29 -82 -25 0 -23 3
-26 28 -23 15 2 20 1 12 -2 -8 -4 -22 -10 -31 -15 -10 -5 -16 -4 -17 4 -8 76
-7 94 6 109 11 14 18 15 29 7 7 -6 13 -8 13 -3z"/>
<path fill="#ffffff" stroke="none" d="M287 298 c6 -7 10 -28 9 -46 0 -17 2
-32 5 -32 3 0 5 -10 4 -22 -1 -18 -8 -22 -39 -24 -23 0 -32 2 -24 7 7 5 20 9
29 9 9 0 16 7 16 15 0 14 -26 20 -71 16 -16 -1 -17 1 -6 14 9 11 16 13 24 5 5
-5 21 -10 33 -10 20 0 22 3 14 18 -7 13 -7 22 1 30 8 8 5 14 -13 21 -15 6 -18
10 -8 10 9 1 21 -5 26 -11z"/>
<path fill="#ffffff" stroke="none" d="M234 278 c-3 -4 -15 -8 -27 -8 -15 0
-18 3 -9 8 17 11 43 11 36 0z"/>
<path fill="#ffffff" stroke="none" d="M190 175 c15 -18 -2 -45 -30 -45 -28 0
-45 27 -30 45 16 19 44 19 60 0z"/>
<path fill="#ffffff" stroke="none" d="M27 53 c-8 -12 7 -26 31 -29 23 -4 27
-14 5 -14 -31 0 -48 28 -50 84 -2 68 11 84 17 21 3 -27 2 -55 -3 -62z"/>
<path fill="#ffffff" stroke="none" d="M309 103 c2 -81 -13 -93 -103 -92 -39
1 -61 4 -49 6 18 3 21 10 18 34 -2 16 1 29 6 29 6 0 8 -8 5 -18 -5 -16 -2 -18
24 -14 20 3 37 -2 49 -12 15 -14 21 -15 27 -4 13 20 15 56 4 63 -6 4 -8 -1 -4
-12 4 -13 1 -12 -12 5 -9 12 -23 22 -30 22 -8 0 -14 5 -14 10 0 14 23 13 38
-2 9 -9 12 -6 12 15 0 16 5 27 14 27 10 0 14 -16 15 -57z"/>
<path fill="#ffffff" stroke="none" d="M91 72 c-15 -28 -16 -28 32 -25 34 3
38 1 20 -7 -13 -5 -23 -14 -23 -20 0 -5 -7 -10 -15 -10 -9 0 -12 6 -8 17 4 11
3 14 -5 9 -18 -11 -25 19 -12 44 6 12 14 19 17 17 2 -3 0 -14 -6 -25z"/>
<path fill="#000000" stroke="none" d="M135 170 c-4 -7 -3 -16 3 -22 14 -14
47 -6 47 12 0 18 -40 26 -50 10z"/>
<path fill="#ffffff" stroke="none" d="M170 160 c0 -5 -4 -10 -10 -10 -5 0
-10 5 -10 10 0 6 5 10 10 10 6 0 10 -4 10 -10z"/>
</g>
</svg>
