<?xml version="1.0" standalone="no"?>
<!DOCTYPE svg PUBLIC "-//W3C//DTD SVG 20010904//EN"
 "http://www.w3.org/TR/2001/REC-SVG-20010904/DTD/svg10.dtd">
<svg version="1.0" xmlns="http://www.w3.org/2000/svg"
 width="32.000000pt" height="32.000000pt" viewBox="0 0 32.000000 32.000000"
 preserveAspectRatio="xMidYMid meet">
<metadata>
Created by potrace 1.16, written by Peter Selinger 2001-2019
</metadata>
<g transform="translate(0.000000,32.000000) scale(0.100000,-0.100000)"
fill="#000000" stroke="none">
<path fill="#000000" stroke="none" d="M26 292 c-23 -26 -22 -239 1 -264 17
-19 59 -26 48 -7 -4 6 -13 8 -20 5 -8 -3 -19 2 -25 9 -10 12 -9 16 1 20 10 4
13 20 11 60 -2 30 -7 53 -11 50 -4 -2 -8 3 -8 11 0 10 4 11 10 5 7 -7 15 -7
22 -1 8 6 9 -8 5 -51 -3 -35 -2 -64 5 -71 7 -8 6 -9 -4 -3 -10 6 -12 4 -7 -4
4 -6 15 -10 24 -9 11 2 16 -3 14 -14 -4 -23 11 -23 45 -1 14 10 32 18 40 19
19 3 5 -16 -21 -26 -15 -6 0 -9 50 -9 91 -1 104 11 104 97 0 54 -2 61 -17 56
-17 -5 -17 -5 0 6 20 13 25 100 5 100 -6 0 -8 3 -5 7 10 9 -13 33 -32 32 -10
0 -8 -4 8 -10 20 -8 21 -11 10 -25 -8 -9 -15 -12 -17 -6 -2 6 -10 8 -19 5 -11
-4 -14 -2 -9 5 4 7 -1 9 -16 5 -58 -14 -98 -15 -98 -2 0 12 -2 12 -9 1 -7 -11
-11 -11 -22 0 -24 24 -46 28 -63 10z"/>
<path fill="#ffffff" stroke="none" d="M279 252 c-12 -19 -39 -26 -39 -10 0
19 -27 6 -43 -22 -16 -26 -49 -43 -46 -22 3 18 -2 32 -17 47 -16 15 -11 16 60
14 42 -1 79 1 83 4 12 13 13 7 2 -11z"/>
<path fill="#ffffff" stroke="none" d="M100 250 c0 -5 -10 -9 -22 -7 -18 1
-23 -3 -21 -19 1 -12 -4 -21 -11 -21 -8 0 -12 6 -10 14 2 7 6 20 9 28 5 16 55
21 55 5z"/>
<path fill="#ffffff" stroke="none" d="M140 195 c0 -6 -5 -16 -12 -23 -14 -14
6 -42 32 -42 25 0 46 28 33 41 -8 8 -11 6 -10 -7 2 -14 -5 -19 -22 -19 -28 0
-40 23 -17 30 9 3 24 8 34 12 9 3 20 5 25 5 4 -1 7 4 7 12 0 8 3 17 8 19 8 6
8 -61 -1 -70 -4 -3 -4 -10 -1 -15 3 -5 13 0 21 12 11 16 12 24 3 35 -9 11 -7
16 9 25 17 9 21 8 21 -5 0 -9 -4 -13 -10 -10 -5 3 -10 1 -10 -4 0 -6 5 -11 10
-11 6 0 10 -15 9 -32 0 -18 -3 -27 -6 -21 -3 9 -10 10 -23 3 -10 -5 -26 -7
-35 -4 -10 4 -15 2 -13 -7 4 -18 -52 -22 -59 -4 -3 10 -10 12 -21 6 -11 -6
-20 -4 -27 6 -16 21 -7 66 11 59 14 -5 17 2 17 39 -1 19 0 19 13 0 8 -10 14
-24 14 -30z"/>
<path fill="#ffffff" stroke="none" d="M295 231 c3 -5 2 -12 -3 -15 -5 -3 -9
1 -9 9 0 17 3 19 12 6z"/>
<path fill="#ffffff" stroke="none" d="M105 210 c3 -5 -1 -10 -10 -10 -9 0
-13 5 -10 10 3 6 8 10 10 10 2 0 7 -4 10 -10z"/>
<path fill="#ffffff" stroke="none" d="M220 89 c0 -5 -7 -9 -15 -9 -15 0 -20
12 -9 23 8 8 24 -1 24 -14z"/>
<path fill="#ffffff" stroke="none" d="M268 81 c-2 -11 -15 -16 -43 -17 l-40
-2 40 8 c22 4 35 8 29 9 -7 0 -14 7 -17 15 -4 10 0 12 14 9 12 -3 19 -12 17
-22z"/>
<path fill="#ffffff" stroke="none" d="M150 90 c12 -8 9 -10 -13 -10 -16 0
-26 4 -22 10 8 12 16 12 35 0z"/>
<path fill="#ffffff" stroke="none" d="M296 65 c-3 -32 -11 -39 -32 -31 -16 6
-15 8 5 22 13 9 20 22 17 31 -3 8 -2 11 3 8 5 -3 8 -17 7 -30z"/>
<path fill="#ffffff" stroke="none" d="M175 65 c6 -2 -11 -4 -37 -4 -27 -1
-48 3 -48 7 0 7 62 5 85 -3z"/>
<path fill="#000000" stroke="none" d="M155 230 c3 -5 12 -10 20 -10 8 0 17 5
20 10 4 6 -5 10 -20 10 -15 0 -24 -4 -20 -10z"/>
<path fill="#000000" stroke="none" d="M150 160 c0 -5 5 -10 10 -10 6 0 10 5
10 10 0 6 -4 10 -10 10 -5 0 -10 -4 -10 -10z"/>
<path fill="#000000" stroke="none" d="M95 149 c-4 -6 -5 -12 -2 -15 2 -3 7 2
10 11 7 17 1 20 -8 4z"/>
</g>
</svg>
