<?xml version="1.0" standalone="no"?>
<!DOCTYPE svg PUBLIC "-//W3C//DTD SVG 20010904//EN"
 "http://www.w3.org/TR/2001/REC-SVG-20010904/DTD/svg10.dtd">
<svg version="1.0" xmlns="http://www.w3.org/2000/svg"
 width="32.000000pt" height="32.000000pt" viewBox="0 0 32.000000 32.000000"
 preserveAspectRatio="xMidYMid meet">
<metadata>
Created by potrace 1.16, written by Peter Selinger 2001-2019
</metadata>
<g transform="translate(0.000000,32.000000) scale(0.100000,-0.100000)"
fill="#000000" stroke="none">
<path fill="#000000" stroke="none" d="M27 292 c-13 -14 -16 -41 -16 -132 -1
-153 -3 -150 149 -150 152 0 149 -3 149 152 0 96 -3 118 -17 131 -18 16 -72
20 -72 6 0 -5 -5 -9 -11 -9 -5 0 -7 5 -4 10 3 6 -1 10 -9 10 -9 0 -13 -6 -10
-14 4 -10 -5 -18 -28 -25 -29 -8 -26 -9 36 -10 57 -1 67 2 62 14 -3 9 0 15 9
15 18 0 20 -16 4 -26 -8 -4 -4 -13 12 -25 22 -16 22 -18 6 -25 -16 -6 -16 -7
-2 -18 13 -9 9 -11 -24 -9 -23 1 -41 -3 -41 -8 0 -6 12 -8 28 -5 15 3 34 1 42
-5 12 -9 12 -10 -4 -5 -16 5 -18 2 -14 -24 3 -20 1 -27 -6 -21 -14 11 -77 10
-70 -1 3 -4 18 -8 34 -8 19 0 33 -7 39 -19 12 -22 -2 -31 -49 -31 -17 0 -30
-7 -35 -17 -6 -17 -7 -17 -19 0 -17 22 -81 24 -73 2 7 -17 -9 -30 -18 -15 -5
8 -11 8 -20 0 -9 -7 -15 -7 -19 -1 -4 5 1 14 10 19 11 6 13 11 5 16 -6 4 -11
30 -11 57 0 29 -4 48 -9 44 -6 -3 -8 2 -6 12 14 60 23 78 44 83 12 3 22 8 22
13 -1 4 -1 14 -1 22 0 21 -43 19 -63 -3z"/>
<path fill="#ffffff" stroke="none" d="M295 64 c1 -17 -4 -24 -19 -24 -18 0
-18 1 -2 19 11 12 15 25 10 33 -4 8 -3 10 2 5 5 -5 9 -20 9 -33z"/>
<path fill="#000000" stroke="none" d="M110 275 c-11 -13 -9 -19 7 -38 11 -12
22 -29 25 -37 3 -9 7 -10 11 -3 4 6 -2 22 -13 36 -23 29 -25 43 -7 50 7 4 8 6
1 6 -6 1 -17 -6 -24 -14z"/>
<path fill="#000000" stroke="none" d="M75 241 c-3 -5 -2 -12 3 -15 5 -3 9 1
9 9 0 17 -3 19 -12 6z"/>
<path fill="#000000" stroke="none" d="M208 232 c-25 -29 -31 -42 -14 -36 8 3
17 12 20 19 3 9 17 13 38 11 18 -2 24 -1 13 1 -11 3 -25 9 -31 14 -7 6 -16 2
-26 -9z"/>
<path fill="#000000" stroke="none" d="M37 194 c-6 -6 45 -54 57 -54 3 0 6 5
6 11 0 5 -4 8 -9 5 -4 -3 -17 4 -27 16 -19 21 -19 21 14 16 17 -2 32 -1 32 4
0 9 -64 11 -73 2z"/>
<path fill="#000000" stroke="none" d="M135 170 c-4 -7 -3 -16 3 -22 14 -14
47 -6 47 12 0 18 -40 26 -50 10z"/>
<path fill="#ffffff" stroke="none" d="M170 160 c0 -5 -4 -10 -10 -10 -5 0
-10 5 -10 10 0 6 5 10 10 10 6 0 10 -4 10 -10z"/>
<path fill="#000000" stroke="none" d="M103 110 c-28 -26 -38 -59 -23 -74 10
-8 11 -8 6 1 -4 7 -2 22 4 33 10 18 14 19 28 8 15 -11 15 -11 5 3 -10 12 -10
18 -1 27 21 21 2 23 -19 2z"/>
<path fill="#000000" stroke="none" d="M157 104 c-3 -4 0 -13 8 -20 8 -8 12
-22 9 -32 -5 -16 -5 -16 6 0 8 13 8 23 0 38 -12 22 -14 23 -23 14z"/>
</g>
</svg>
