<?xml version="1.0" standalone="no"?>
<!DOCTYPE svg PUBLIC "-//W3C//DTD SVG 20010904//EN"
 "http://www.w3.org/TR/2001/REC-SVG-20010904/DTD/svg10.dtd">
<svg version="1.0" xmlns="http://www.w3.org/2000/svg"
 width="32.000000pt" height="32.000000pt" viewBox="0 0 32.000000 32.000000"
 preserveAspectRatio="xMidYMid meet">
<metadata>
Created by potrace 1.16, written by Peter Selinger 2001-2019
</metadata>
<g transform="translate(0.000000,32.000000) scale(0.100000,-0.100000)"
fill="#000000" stroke="none">
<path fill="#000000" stroke="none" d="M0 160 l0 -160 160 0 160 0 0 160 0
160 -160 0 -160 0 0 -160z"/>
<path fill="#ffffff" stroke="none" d="M292 293 c15 -14 18 -32 18 -131 0
-154 2 -152 -148 -152 -154 0 -152 -2 -152 148 0 154 -2 152 148 152 93 0 119
-3 134 -17z"/>
<path fill="#000000" stroke="none" d="M45 245 c-3 -8 -7 -21 -9 -29 -3 -9 2
-12 15 -9 21 6 26 23 7 23 -7 0 -5 5 5 11 9 5 22 7 29 3 7 -4 8 -3 4 4 -10 17
-46 15 -51 -3z"/>
<path fill="#000000" stroke="none" d="M142 246 c7 -8 15 -10 18 -6 3 5 19 10
35 13 21 3 16 4 -18 6 -40 1 -46 -1 -35 -13z"/>
<path fill="#000000" stroke="none" d="M240 253 c8 -3 19 -11 23 -17 6 -7 7
-6 4 4 -2 8 -12 16 -23 17 -13 2 -15 1 -4 -4z"/>
<path fill="#000000" stroke="none" d="M90 226 c0 -2 7 -6 15 -10 8 -3 15 -1
15 4 0 6 -7 10 -15 10 -8 0 -15 -2 -15 -4z"/>
<path fill="#000000" stroke="none" d="M157 203 c3 -7 8 -13 12 -13 4 0 8 6 8
13 0 8 -6 14 -13 14 -7 0 -10 -6 -7 -14z"/>
<path fill="#000000" stroke="none" d="M261 204 c0 -11 3 -14 6 -6 3 7 2 16
-1 19 -3 4 -6 -2 -5 -13z"/>
<path fill="#000000" stroke="none" d="M122 203 c-10 -4 -10 -8 -1 -19 10 -12
9 -13 -6 -8 -15 6 -16 5 -3 -15 11 -18 11 -23 -2 -31 -9 -6 -10 -10 -3 -10 6
0 15 5 19 12 8 12 17 79 12 77 -2 0 -9 -3 -16 -6z"/>
<path fill="#000000" stroke="none" d="M48 174 c-12 -11 -10 -102 2 -109 6 -3
7 1 4 9 -4 11 0 16 12 17 18 0 17 1 -1 9 l-20 9 20 0 c13 1 16 4 8 9 -6 4 -13
20 -15 35 -1 16 -6 25 -10 21z"/>
<path fill="#000000" stroke="none" d="M70 155 c0 -14 2 -25 4 -25 2 0 6 11 8
25 3 14 1 25 -3 25 -5 0 -9 -11 -9 -25z"/>
<path fill="#000000" stroke="none" d="M184 163 c0 -11 -7 -19 -21 -21 -12 -2
-24 -10 -27 -18 -9 -23 36 -13 51 11 15 24 16 45 4 45 -5 0 -8 -8 -7 -17z"/>
<path fill="#000000" stroke="none" d="M259 173 c-1 -5 -1 -11 0 -15 0 -5 -7
-8 -16 -9 -14 0 -15 -2 -3 -6 8 -3 18 -11 22 -17 4 -6 8 4 8 22 0 28 -8 46
-11 25z"/>
<path fill="#000000" stroke="none" d="M150 160 c0 -5 5 -10 10 -10 6 0 10 5
10 10 0 6 -4 10 -10 10 -5 0 -10 -4 -10 -10z"/>
<path fill="#000000" stroke="none" d="M131 88 c0 -9 -11 -19 -23 -21 -13 -2
-4 -5 19 -6 35 -1 41 2 36 15 -4 12 -8 13 -13 3 -6 -8 -9 -6 -13 7 -4 15 -5
16 -6 2z"/>
<path fill="#000000" stroke="none" d="M223 93 c46 -5 49 -20 5 -26 l-33 -5
35 2 c25 1 36 6 38 19 3 14 -4 17 -40 15 l-43 -1 38 -4z"/>
</g>
</svg>
