<?xml version="1.0" standalone="no"?>
<!DOCTYPE svg PUBLIC "-//W3C//DTD SVG 20010904//EN"
 "http://www.w3.org/TR/2001/REC-SVG-20010904/DTD/svg10.dtd">
<svg version="1.0" xmlns="http://www.w3.org/2000/svg"
 width="32.000000pt" height="32.000000pt" viewBox="0 0 32.000000 32.000000"
 preserveAspectRatio="xMidYMid meet">
<metadata>
Created by potrace 1.16, written by Peter Selinger 2001-2019
</metadata>
<g transform="translate(0.000000,32.000000) scale(0.100000,-0.100000)"
fill="#000000" stroke="none">
<path fill="#000000" stroke="none" d="M141 79 c-14 -42 -14 -49 4 -49 11 0
15 11 15 40 0 48 -4 50 -19 9z"/>
<path fill="#000000" stroke="none" d="M180 80 c0 -11 5 -20 10 -20 6 0 10 9
10 20 0 11 -4 20 -10 20 -5 0 -10 -9 -10 -20z"/>
<path fill="#000000" stroke="none" d="M170 16 c0 -9 5 -16 10 -16 6 0 10 4
10 9 0 6 -4 13 -10 16 -5 3 -10 -1 -10 -9z"/>
</g>
</svg>
