<?xml version="1.0" standalone="no"?>
<!DOCTYPE svg PUBLIC "-//W3C//DTD SVG 20010904//EN"
 "http://www.w3.org/TR/2001/REC-SVG-20010904/DTD/svg10.dtd">
<svg version="1.0" xmlns="http://www.w3.org/2000/svg"
 width="32.000000pt" height="32.000000pt" viewBox="0 0 32.000000 32.000000"
 preserveAspectRatio="xMidYMid meet">
<metadata>
Created by potrace 1.16, written by Peter Selinger 2001-2019
</metadata>
<g transform="translate(0.000000,32.000000) scale(0.100000,-0.100000)"
fill="#000000" stroke="none">
<path fill="#000000" stroke="none" d="M0 281 c0 -24 5 -41 14 -44 18 -7 52
30 48 53 -2 11 4 20 15 22 10 3 -3 5 -29 6 l-48 1 0 -38z"/>
<path fill="#000000" stroke="none" d="M188 313 c7 -3 16 -2 19 1 4 3 -2 6
-13 5 -11 0 -14 -3 -6 -6z"/>
<path fill="#000000" stroke="none" d="M217 304 c-28 -15 -34 -48 -9 -50 6 -1
13 -2 15 -4 1 -1 10 -3 20 -5 20 -4 24 34 5 53 -9 9 -8 12 5 12 16 0 24 -12
42 -65 l7 -20 8 20 c5 11 9 32 9 48 1 25 -2 27 -36 27 -21 -1 -51 -8 -66 -16z"/>
<path fill="#000000" stroke="none" d="M91 296 c-16 -20 -10 -69 9 -71 28 -4
60 15 71 41 7 21 7 29 -3 36 -21 13 -65 9 -77 -6z"/>
<path fill="#000000" stroke="none" d="M49 243 c-13 -16 -12 -17 4 -4 16 13
21 21 13 21 -2 0 -10 -8 -17 -17z"/>
<path fill="#000000" stroke="none" d="M184 244 c3 -7 -7 -14 -24 -18 -44 -8
-37 -26 10 -26 44 0 48 6 24 36 -8 10 -13 14 -10 8z"/>
<path fill="#000000" stroke="none" d="M6 204 c-3 -9 -6 -29 -6 -46 0 -26 2
-29 15 -18 12 10 13 16 3 28 -9 11 -9 14 -1 9 7 -5 13 1 16 15 2 13 5 4 6 -19
0 -23 6 -45 12 -49 8 -4 9 0 4 15 -5 16 -2 21 13 21 11 0 25 -7 32 -16 11 -13
10 -16 -8 -21 -12 -3 -22 -9 -22 -14 0 -5 -16 -9 -35 -9 l-35 0 0 -50 0 -50
160 0 160 0 0 51 c0 50 0 50 -30 47 -18 -2 -34 3 -39 10 -5 8 -31 14 -69 15
-34 1 -62 7 -63 12 -1 6 -2 21 -2 34 -2 19 -11 26 -47 37 -57 17 -57 17 -64
-2z"/>
<path fill="#ffffff" stroke="none" d="M267 38 c-3 -7 -5 -2 -5 12 0 14 2 19
5 13 2 -7 2 -19 0 -25z"/>
<path fill="#000000" stroke="none" d="M220 188 c-37 -40 -16 -77 28 -49 12 7
42 56 42 67 0 14 -53 0 -70 -18z"/>
<path fill="#000000" stroke="none" d="M296 178 c-9 -49 -8 -53 8 -56 12 -3
16 5 16 30 0 50 -16 68 -24 26z"/>
</g>
</svg>
