<?xml version="1.0" standalone="no"?>
<!DOCTYPE svg PUBLIC "-//W3C//DTD SVG 20010904//EN"
 "http://www.w3.org/TR/2001/REC-SVG-20010904/DTD/svg10.dtd">
<svg version="1.0" xmlns="http://www.w3.org/2000/svg"
 width="32.000000pt" height="32.000000pt" viewBox="0 0 32.000000 32.000000"
 preserveAspectRatio="xMidYMid meet">
<metadata>
Created by potrace 1.16, written by Peter Selinger 2001-2019
</metadata>
<g transform="translate(0.000000,32.000000) scale(0.100000,-0.100000)"
fill="#000000" stroke="none">
<path fill="#000000" stroke="none" d="M0 161 l0 -158 43 -1 c35 -1 43 2 43
18 0 10 -4 16 -8 14 -4 -3 -8 -1 -8 4 0 6 7 12 15 15 11 5 13 22 10 82 -4 61
-2 75 10 75 19 0 19 19 0 26 -8 4 -12 10 -9 15 3 5 9 7 14 4 4 -3 6 4 3 15 -3
11 -10 20 -15 20 -5 0 -7 4 -4 9 11 17 -19 18 -32 2 -11 -14 -11 -14 -6 2 5
14 0 17 -25 17 l-31 0 0 -159z"/>
<path fill="#000000" stroke="none" d="M133 255 c5 -47 3 -67 -6 -71 -8 -3
-11 -25 -9 -70 2 -40 -1 -70 -8 -79 -19 -23 -2 -35 48 -35 l47 0 1 136 c1 84
6 140 13 147 25 25 11 37 -40 37 l-52 0 6 -65z"/>
<path fill="#000000" stroke="none" d="M240 311 c0 -6 5 -13 10 -16 17 -11 11
-27 -8 -21 -13 5 -18 0 -20 -19 -1 -21 3 -25 23 -25 15 0 25 -6 25 -14 0 -10
-9 -14 -27 -13 l-27 2 -1 -100 0 -100 53 -3 52 -3 0 160 0 161 -40 0 c-22 0
-40 -4 -40 -9z"/>
</g>
</svg>
