<?xml version="1.0" standalone="no"?>
<!DOCTYPE svg PUBLIC "-//W3C//DTD SVG 20010904//EN"
 "http://www.w3.org/TR/2001/REC-SVG-20010904/DTD/svg10.dtd">
<svg version="1.0" xmlns="http://www.w3.org/2000/svg"
 width="32.000000pt" height="32.000000pt" viewBox="0 0 32.000000 32.000000"
 preserveAspectRatio="xMidYMid meet">
<metadata>
Created by potrace 1.16, written by Peter Selinger 2001-2019
</metadata>
<g transform="translate(0.000000,32.000000) scale(0.100000,-0.100000)"
fill="#000000" stroke="none">
<path fill="#000000" stroke="none" d="M170 308 c0 -7 9 -19 21 -26 19 -12 19
-11 10 7 -14 26 -31 36 -31 19z"/>
<path fill="#000000" stroke="none" d="M190 220 c0 -5 7 -10 16 -10 8 0 12 5
9 10 -3 6 -10 10 -16 10 -5 0 -9 -4 -9 -10z"/>
<path fill="#000000" stroke="none" d="M140 22 c6 -13 14 -21 18 -18 3 4 -2
14 -12 24 -18 16 -18 16 -6 -6z"/>
</g>
</svg>
