<?xml version="1.0" standalone="no"?>
<!DOCTYPE svg PUBLIC "-//W3C//DTD SVG 20010904//EN"
 "http://www.w3.org/TR/2001/REC-SVG-20010904/DTD/svg10.dtd">
<svg version="1.0" xmlns="http://www.w3.org/2000/svg"
 width="32.000000pt" height="32.000000pt" viewBox="0 0 32.000000 32.000000"
 preserveAspectRatio="xMidYMid meet">
<metadata>
Created by potrace 1.16, written by Peter Selinger 2001-2019
</metadata>
<g transform="translate(0.000000,32.000000) scale(0.100000,-0.100000)"
fill="#000000" stroke="none">
<path fill="#000000" stroke="none" d="M103 293 c-44 -64 -52 -118 -34 -226 7
-45 7 -46 -10 -31 -16 14 -18 14 -24 -5 -3 -11 -14 -22 -23 -24 -9 -3 56 -5
146 -6 l162 -1 0 163 c0 99 -4 157 -9 148 -5 -8 -7 -24 -5 -35 3 -19 2 -19
-17 4 l-20 25 17 -35 c20 -40 29 -157 13 -176 -7 -8 -7 -14 1 -19 13 -8 13
-52 -1 -61 -6 -3 -15 -2 -21 4 -6 6 -6 12 1 16 6 4 11 12 11 18 0 7 -13 0 -28
-15 -31 -30 -53 -25 -25 5 9 10 13 18 10 18 -3 0 1 16 9 35 16 40 19 121 4
130 -6 4 -8 10 -5 14 2 5 -7 21 -20 37 -14 16 -25 32 -25 37 0 4 -20 7 -44 7
-37 0 -48 -4 -63 -27z"/>
<path fill="#ffffff" stroke="none" d="M164 269 c-3 -5 -10 -7 -15 -3 -5 3 -7
10 -3 15 3 5 10 7 15 3 5 -3 7 -10 3 -15z"/>
<path fill="#ffffff" stroke="none" d="M120 251 c0 -12 -20 -25 -27 -18 -7 7
6 27 18 27 5 0 9 -4 9 -9z"/>
<path fill="#ffffff" stroke="none" d="M203 245 c1 -5 -6 -11 -15 -13 -11 -2
-18 3 -18 13 0 17 30 18 33 0z"/>
<path fill="#ffffff" stroke="none" d="M170 225 c11 -13 7 -15 -30 -15 -37 0
-41 2 -30 15 16 19 44 19 60 0z"/>
<path fill="#ffffff" stroke="none" d="M250 216 c0 -2 -7 -7 -16 -10 -8 -3
-12 -2 -9 4 6 10 25 14 25 6z"/>
<path fill="#ffffff" stroke="none" d="M94 187 c-5 -8 -3 -8 7 1 18 17 49 15
49 -3 0 -10 -10 -15 -27 -15 -35 0 -58 14 -49 29 10 15 28 3 20 -12z"/>
<path fill="#ffffff" stroke="none" d="M218 183 c2 -9 -7 -13 -27 -13 -21 0
-31 5 -31 16 0 19 51 16 58 -3z"/>
<path fill="#ffffff" stroke="none" d="M254 149 c-3 -5 -9 -7 -12 -5 -4 2 -18
-2 -32 -9 l-25 -13 28 -8 c35 -8 18 -24 -26 -24 -23 0 -26 3 -19 16 5 9 7 25
5 35 -4 14 2 18 34 21 44 4 56 1 47 -13z"/>
<path fill="#ffffff" stroke="none" d="M158 128 c-2 -25 -8 -33 -22 -33 -28 0
-32 25 -4 26 l23 1 -24 7 c-38 10 -38 31 -1 31 29 0 31 -2 28 -32z"/>
<path fill="#ffffff" stroke="none" d="M96 135 c8 -21 -6 -41 -17 -24 -12 19
-11 39 1 39 6 0 13 -7 16 -15z"/>
<path fill="#ffffff" stroke="none" d="M142 68 c-9 -9 -15 -9 -24 0 -9 9 -7
12 12 12 19 0 21 -3 12 -12z"/>
<path fill="#ffffff" stroke="none" d="M204 71 c7 -11 -22 -23 -35 -15 -5 3
-7 10 -4 15 8 12 32 12 39 0z"/>
<path fill="#ffffff" stroke="none" d="M105 60 c3 -5 2 -10 -4 -10 -5 0 -13 5
-16 10 -3 6 -2 10 4 10 5 0 13 -4 16 -10z"/>
<path fill="#000000" stroke="none" d="M50 268 c-12 -22 -12 -22 6 -6 10 10
15 20 12 24 -4 3 -12 -5 -18 -18z"/>
</g>
</svg>
