<?xml version="1.0" standalone="no"?>
<!DOCTYPE svg PUBLIC "-//W3C//DTD SVG 20010904//EN"
 "http://www.w3.org/TR/2001/REC-SVG-20010904/DTD/svg10.dtd">
<svg version="1.0" xmlns="http://www.w3.org/2000/svg"
 width="32.000000pt" height="32.000000pt" viewBox="0 0 32.000000 32.000000"
 preserveAspectRatio="xMidYMid meet">
<metadata>
Created by potrace 1.16, written by Peter Selinger 2001-2019
</metadata>
<g transform="translate(0.000000,32.000000) scale(0.100000,-0.100000)"
fill="#000000" stroke="none">
<path fill="#000000" stroke="none" d="M0 160 l0 -160 160 0 160 0 0 160 0
160 -160 0 -160 0 0 -160z"/>
<path fill="#ffffff" stroke="none" d="M260 276 c0 -2 -8 -10 -17 -17 -16 -13
-17 -12 -4 4 13 16 21 21 21 13z"/>
<path fill="#ffffff" stroke="none" d="M289 246 c-20 -17 -49 -25 -55 -14 -4
6 -3 8 2 5 6 -3 16 -2 24 4 14 8 38 13 29 5z"/>
<path fill="#ffffff" stroke="none" d="M120 230 c0 -5 -5 -10 -11 -10 -5 0 -7
5 -4 10 3 6 8 10 11 10 2 0 4 -4 4 -10z"/>
<path fill="#ffffff" stroke="none" d="M66 185 c-5 -18 0 -31 15 -46 15 -15
18 -24 10 -29 -9 -5 -8 -10 4 -20 14 -11 19 -7 16 13 -1 5 3 6 9 2 6 -3 8 -10
5 -15 -3 -4 2 -13 9 -19 12 -10 13 -8 9 8 -3 13 -1 21 7 21 7 0 10 -7 7 -15
-9 -23 13 -29 29 -9 9 11 13 14 10 7 -4 -6 0 -13 6 -16 7 -2 -2 -7 -20 -11
-24 -6 -43 -3 -71 11 -35 17 -40 18 -50 4 -10 -14 -11 -14 -6 3 4 16 1 17 -22
12 l-28 -7 25 20 25 20 -25 -5 c-24 -4 -24 -4 3 9 15 7 25 16 21 19 -7 7 5 68
13 68 3 0 2 -11 -1 -25z"/>
<path fill="#ffffff" stroke="none" d="M160 199 c0 -6 -7 -8 -17 -5 -10 4 -14
3 -9 -1 4 -4 17 -8 29 -8 11 0 22 -5 24 -11 2 -7 -2 -12 -9 -11 -40 1 -49 -3
-43 -23 8 -25 0 -25 -25 0 -17 17 -18 24 -8 45 11 25 58 37 58 14z"/>
<path fill="#ffffff" stroke="none" d="M253 190 c-3 -12 -8 -19 -11 -16 -5 6
5 36 12 36 2 0 2 -9 -1 -20z"/>
<path fill="#ffffff" stroke="none" d="M170 140 c0 -5 -4 -10 -10 -10 -5 0
-10 5 -10 10 0 6 5 10 10 10 6 0 10 -4 10 -10z"/>
<path fill="#ffffff" stroke="none" d="M190 110 c0 -5 -4 -10 -10 -10 -5 0
-10 5 -10 10 0 6 5 10 10 10 6 0 10 -4 10 -10z"/>
</g>
</svg>
