<?xml version="1.0" standalone="no"?>
<!DOCTYPE svg PUBLIC "-//W3C//DTD SVG 20010904//EN"
 "http://www.w3.org/TR/2001/REC-SVG-20010904/DTD/svg10.dtd">
<svg version="1.0" xmlns="http://www.w3.org/2000/svg"
 width="32.000000pt" height="32.000000pt" viewBox="0 0 32.000000 32.000000"
 preserveAspectRatio="xMidYMid meet">
<metadata>
Created by potrace 1.16, written by Peter Selinger 2001-2019
</metadata>
<g transform="translate(0.000000,32.000000) scale(0.100000,-0.100000)"
fill="#000000" stroke="none">
<path fill="#000000" stroke="none" d="M240 265 c-8 -10 -21 -13 -34 -9 -14 4
-11 -1 9 -14 23 -15 35 -17 53 -9 12 6 20 12 18 14 -2 3 -13 0 -24 -6 -26 -14
-36 -2 -15 21 9 10 14 18 11 18 -3 0 -11 -7 -18 -15z"/>
<path fill="#000000" stroke="none" d="M110 252 c-38 -19 -60 -52 -60 -93 0
-17 -8 -30 -22 -38 -23 -11 -23 -11 2 -7 l25 5 -25 -20 -25 -20 28 7 c23 5 26
4 21 -12 -5 -18 -5 -18 9 -1 13 15 16 15 27 2 16 -20 69 -28 100 -16 14 5 19
10 12 10 -7 1 -10 7 -7 14 4 6 0 4 -7 -5 -14 -17 -33 -19 -55 -5 -17 11 4 68
23 60 8 -3 14 0 14 6 0 6 -5 11 -11 11 -5 0 -7 5 -4 10 10 16 23 12 30 -10 6
-17 8 -18 21 -6 8 8 14 21 14 28 0 10 -3 9 -10 -2 -8 -13 -11 -12 -23 4 -8 11
-19 16 -25 12 -8 -5 -10 -2 -6 8 3 9 10 13 15 10 5 -3 9 0 9 6 0 6 -12 16 -26
22 -24 11 -25 13 -8 25 25 19 5 16 -36 -5z"/>
<path fill="#ffffff" stroke="none" d="M150 220 c0 -5 -5 -10 -11 -10 -5 0 -7
5 -4 10 3 6 8 10 11 10 2 0 4 -4 4 -10z"/>
<path fill="#ffffff" stroke="none" d="M90 180 c0 -5 -4 -10 -10 -10 -5 0 -10
5 -10 10 0 6 5 10 10 10 6 0 10 -4 10 -10z"/>
<path fill="#ffffff" stroke="none" d="M118 132 c6 -18 -15 -14 -22 4 -4 10
-1 14 6 12 6 -2 14 -10 16 -16z"/>
<path fill="#ffffff" stroke="none" d="M105 100 c3 -5 2 -10 -4 -10 -5 0 -13
5 -16 10 -3 6 -2 10 4 10 5 0 13 -4 16 -10z"/>
<path fill="#000000" stroke="none" d="M243 195 c-3 -9 -3 -18 -1 -21 3 -3 8
4 11 16 6 23 -1 27 -10 5z"/>
<path fill="#000000" stroke="none" d="M158 109 c-10 -5 -18 -18 -18 -27 1
-16 2 -16 14 1 7 9 18 17 25 17 6 0 11 5 11 10 0 13 -10 12 -32 -1z"/>
</g>
</svg>
