<?xml version="1.0" standalone="no"?>
<!DOCTYPE svg PUBLIC "-//W3C//DTD SVG 20010904//EN"
 "http://www.w3.org/TR/2001/REC-SVG-20010904/DTD/svg10.dtd">
<svg version="1.0" xmlns="http://www.w3.org/2000/svg"
 width="32.000000pt" height="32.000000pt" viewBox="0 0 32.000000 32.000000"
 preserveAspectRatio="xMidYMid meet">
<metadata>
Created by potrace 1.16, written by Peter Selinger 2001-2019
</metadata>
<g transform="translate(0.000000,32.000000) scale(0.100000,-0.100000)"
fill="#000000" stroke="none">
<path fill="#000000" stroke="none" d="M0 160 l0 -160 160 0 160 0 0 160 0
160 -160 0 -160 0 0 -160z"/>
<path fill="#ffffff" stroke="none" d="M143 248 c20 -1 24 -3 15 -9 -20 -13
-72 -11 -92 4 -16 12 -14 13 15 9 19 -2 47 -4 62 -4z"/>
<path fill="#ffffff" stroke="none" d="M239 112 c17 2 28 1 25 -4 -7 -11 -91
-10 -98 1 -9 13 17 20 31 9 7 -6 26 -8 42 -6z"/>
</g>
</svg>
