<?xml version="1.0" standalone="no"?>
<!DOCTYPE svg PUBLIC "-//W3C//DTD SVG 20010904//EN"
 "http://www.w3.org/TR/2001/REC-SVG-20010904/DTD/svg10.dtd">
<svg version="1.0" xmlns="http://www.w3.org/2000/svg"
 width="32.000000pt" height="32.000000pt" viewBox="0 0 32.000000 32.000000"
 preserveAspectRatio="xMidYMid meet">
<metadata>
Created by potrace 1.16, written by Peter Selinger 2001-2019
</metadata>
<g transform="translate(0.000000,32.000000) scale(0.100000,-0.100000)"
fill="#000000" stroke="none">
<path fill="#000000" stroke="none" d="M150 290 c0 -5 5 -10 10 -10 6 0 10 5
10 10 0 6 -4 10 -10 10 -5 0 -10 -4 -10 -10z"/>
<path fill="#000000" stroke="none" d="M56 281 c-4 -5 -2 -12 3 -15 5 -4 12
-2 15 3 4 5 2 12 -3 15 -5 4 -12 2 -15 -3z"/>
<path fill="#000000" stroke="none" d="M246 281 c-4 -5 -2 -12 3 -15 5 -4 12
-2 15 3 4 5 2 12 -3 15 -5 4 -12 2 -15 -3z"/>
<path fill="#000000" stroke="none" d="M111 229 c-17 -17 -31 -36 -31 -42 0
-7 4 -6 10 3 9 13 10 13 10 0 0 -12 2 -12 9 -2 6 11 10 10 15 -4 5 -13 9 -15
18 -6 16 16 19 42 5 42 -7 0 -5 5 3 10 13 9 13 10 0 10 -13 0 -13 1 0 10 9 6
10 10 3 10 -6 0 -25 -14 -42 -31z"/>
<path fill="#000000" stroke="none" d="M30 210 c5 -16 6 -39 4 -52 -2 -13 -1
-16 2 -8 4 8 12 18 18 23 8 5 6 10 -4 17 -12 8 -12 10 -1 10 10 0 11 3 2 13
-6 8 -8 17 -4 20 3 4 -1 7 -10 7 -13 0 -14 -6 -7 -30z"/>
<path fill="#000000" stroke="none" d="M273 233 c4 -3 2 -12 -4 -20 -9 -10 -8
-13 2 -13 11 0 11 -2 -1 -10 -10 -7 -12 -12 -4 -17 6 -5 14 -15 18 -23 3 -8 4
-5 2 8 -2 13 -1 36 4 52 7 24 6 30 -7 30 -9 0 -13 -3 -10 -7z"/>
<path fill="#000000" stroke="none" d="M56 91 c-4 -5 -2 -12 3 -15 5 -4 12 -2
15 3 4 5 2 12 -3 15 -5 4 -12 2 -15 -3z"/>
<path fill="#000000" stroke="none" d="M246 91 c-4 -5 -2 -12 3 -15 5 -4 12
-2 15 3 4 5 2 12 -3 15 -5 4 -12 2 -15 -3z"/>
<path fill="#000000" stroke="none" d="M150 70 c0 -5 5 -10 10 -10 6 0 10 5
10 10 0 6 -4 10 -10 10 -5 0 -10 -4 -10 -10z"/>
<path fill="#000000" stroke="none" d="M51 44 c0 -11 3 -14 6 -6 3 7 2 16 -1
19 -3 4 -6 -2 -5 -13z"/>
<path fill="#000000" stroke="none" d="M71 44 c0 -11 3 -14 6 -6 3 7 2 16 -1
19 -3 4 -6 -2 -5 -13z"/>
<path fill="#000000" stroke="none" d="M241 44 c0 -11 3 -14 6 -6 3 7 2 16 -1
19 -3 4 -6 -2 -5 -13z"/>
<path fill="#000000" stroke="none" d="M261 44 c0 -11 3 -14 6 -6 3 7 2 16 -1
19 -3 4 -6 -2 -5 -13z"/>
</g>
</svg>
