<?xml version="1.0" standalone="no"?>
<!DOCTYPE svg PUBLIC "-//W3C//DTD SVG 20010904//EN"
 "http://www.w3.org/TR/2001/REC-SVG-20010904/DTD/svg10.dtd">
<svg version="1.0" xmlns="http://www.w3.org/2000/svg"
 width="32.000000pt" height="32.000000pt" viewBox="0 0 32.000000 32.000000"
 preserveAspectRatio="xMidYMid meet">
<metadata>
Created by potrace 1.16, written by Peter Selinger 2001-2019
</metadata>
<g transform="translate(0.000000,32.000000) scale(0.100000,-0.100000)"
fill="#000000" stroke="none">
<path fill="#000000" stroke="none" d="M190 295 c0 -8 7 -15 15 -15 8 0 15 7
15 15 0 8 -7 15 -15 15 -8 0 -15 -7 -15 -15z"/>
<path fill="#000000" stroke="none" d="M100 290 c0 -5 5 -10 10 -10 6 0 10 5
10 10 0 6 -4 10 -10 10 -5 0 -10 -4 -10 -10z"/>
<path fill="#000000" stroke="none" d="M105 235 c-50 -49 -15 -135 55 -135 41
0 80 39 80 80 0 41 -39 80 -80 80 -19 0 -40 -9 -55 -25z"/>
<path fill="#ffffff" stroke="none" d="M230 191 c0 -14 -1 -14 -10 -1 -9 13
-10 13 -10 0 -1 -12 -3 -11 -11 3 -6 10 -8 26 -4 35 6 15 8 15 21 -2 8 -11 14
-27 14 -35z"/>
<path fill="#ffffff" stroke="none" d="M150 140 c13 -9 13 -10 0 -10 -13 0
-13 -1 0 -10 11 -7 11 -10 2 -10 -22 0 -53 20 -47 31 8 12 26 11 45 -1z"/>
<path fill="#000000" stroke="none" d="M28 228 c6 -23 29 -23 35 0 4 16 5 16
6 -1 2 -26 -29 -34 -45 -12 -13 17 -14 15 -14 -22 0 -65 7 -75 35 -49 15 14
25 36 27 60 3 36 1 39 -23 40 -20 1 -25 -2 -21 -16z"/>
<path fill="#ffffff" stroke="none" d="M54 169 c-3 -5 -10 -7 -15 -3 -5 3 -7
10 -3 15 3 5 10 7 15 3 5 -3 7 -10 3 -15z"/>
<path fill="#000000" stroke="none" d="M245 239 c-2 -3 -2 -22 2 -42 4 -26 11
-37 22 -37 9 0 22 -5 29 -12 9 -9 12 -2 12 33 0 24 -4 49 -8 55 -8 11 -51 14
-57 3z"/>
<path fill="#ffffff" stroke="none" d="M281 230 c9 13 10 13 6 0 -2 -8 -10
-15 -17 -15 -7 0 -15 7 -17 15 -4 13 -3 13 6 0 10 -13 12 -13 22 0z"/>
<path fill="#ffffff" stroke="none" d="M284 179 c-3 -5 -10 -7 -15 -3 -5 3 -7
10 -3 15 3 5 10 7 15 3 5 -3 7 -10 3 -15z"/>
<path fill="#000000" stroke="none" d="M260 135 c0 -8 7 -15 15 -15 8 0 15 7
15 15 0 8 -7 15 -15 15 -8 0 -15 -7 -15 -15z"/>
<path fill="#000000" stroke="none" d="M40 130 c0 -5 5 -10 10 -10 6 0 10 5
10 10 0 6 -4 10 -10 10 -5 0 -10 -4 -10 -10z"/>
<path fill="#000000" stroke="none" d="M38 103 c7 -3 16 -2 19 1 4 3 -2 6 -13
5 -11 0 -14 -3 -6 -6z"/>
<path fill="#000000" stroke="none" d="M268 103 c7 -3 16 -2 19 1 4 3 -2 6
-13 5 -11 0 -14 -3 -6 -6z"/>
<path fill="#000000" stroke="none" d="M53 90 c-27 -11 -31 -51 -8 -70 19 -16
31 -6 41 34 6 26 5 28 -17 21 -23 -7 -24 -7 -4 9 23 17 20 19 -12 6z"/>
<path fill="#000000" stroke="none" d="M255 84 c20 -16 20 -16 -1 -10 -15 5
-24 2 -28 -9 -3 -8 -1 -15 4 -15 6 0 10 -6 10 -14 0 -22 19 -29 36 -15 23 19
13 60 -16 70 -24 9 -24 9 -5 -7z"/>
<path fill="#000000" stroke="none" d="M100 65 c0 -8 7 -15 15 -15 9 0 12 -6
9 -17 -5 -15 -4 -16 5 -3 9 13 11 13 11 -2 0 -11 8 -18 20 -18 12 0 20 7 20
18 0 13 2 14 9 4 7 -11 9 -10 14 3 4 9 3 13 -3 10 -6 -3 -10 0 -10 7 0 8 -3 9
-8 3 -12 -16 -46 -11 -50 8 -4 21 -32 23 -32 2z"/>
<path fill="#ffffff" stroke="none" d="M170 30 c0 -5 -4 -10 -10 -10 -5 0 -10
5 -10 10 0 6 5 10 10 10 6 0 10 -4 10 -10z"/>
<path fill="#000000" stroke="none" d="M200 70 c0 -5 5 -10 10 -10 6 0 10 5
10 10 0 6 -4 10 -10 10 -5 0 -10 -4 -10 -10z"/>
</g>
</svg>
