<?xml version="1.0" standalone="no"?>
<!DOCTYPE svg PUBLIC "-//W3C//DTD SVG 20010904//EN"
 "http://www.w3.org/TR/2001/REC-SVG-20010904/DTD/svg10.dtd">
<svg version="1.0" xmlns="http://www.w3.org/2000/svg"
 width="32.000000pt" height="32.000000pt" viewBox="0 0 32.000000 32.000000"
 preserveAspectRatio="xMidYMid meet">
<metadata>
Created by potrace 1.16, written by Peter Selinger 2001-2019
</metadata>
<g transform="translate(0.000000,32.000000) scale(0.100000,-0.100000)"
fill="#000000" stroke="none">
<path fill="#000000" stroke="none" d="M0 160 l0 -160 160 0 160 0 0 160 0
160 -160 0 -160 0 0 -160z"/>
<path fill="#ffffff" stroke="none" d="M180 295 c0 -8 -7 -15 -15 -15 -8 0
-15 7 -15 15 0 8 7 15 15 15 8 0 15 -7 15 -15z"/>
<path fill="#ffffff" stroke="none" d="M90 270 c0 -5 -4 -10 -10 -10 -5 0 -10
5 -10 10 0 6 5 10 10 10 6 0 10 -4 10 -10z"/>
<path fill="#ffffff" stroke="none" d="M260 260 c0 -5 -4 -10 -10 -10 -5 0
-10 5 -10 10 0 6 5 10 10 10 6 0 10 -4 10 -10z"/>
<path fill="#ffffff" stroke="none" d="M215 235 c33 -32 33 -78 0 -110 -32
-33 -78 -33 -110 0 -50 49 -15 135 55 135 19 0 40 -9 55 -25z"/>
<path fill="#ffffff" stroke="none" d="M46 238 c5 -7 3 -8 -6 -3 -9 5 -11 4
-6 -4 4 -6 12 -9 17 -5 5 3 6 10 3 16 -4 6 -1 9 7 6 8 -3 14 -13 14 -24 0 -13
-7 -19 -25 -19 -18 0 -25 -5 -25 -20 0 -12 7 -20 18 -21 12 -1 13 -1 2 3 -19
6 -20 33 0 33 20 0 31 -65 15 -86 -18 -21 2 -43 24 -25 12 10 14 6 14 -24 0
-25 -6 -38 -20 -46 -29 -16 -51 7 -45 46 3 17 -1 42 -9 55 -29 53 -8 167 22
118z"/>
<path fill="#ffffff" stroke="none" d="M304 234 c10 -27 6 -88 -8 -114 -8 -13
-12 -38 -9 -55 6 -40 -16 -62 -46 -45 -22 11 -27 45 -11 70 5 8 12 11 17 7 4
-5 1 -13 -7 -18 -13 -9 -13 -10 0 -6 8 2 15 12 15 23 0 10 6 20 13 20 22 2 23
4 17 14 -5 8 -12 7 -23 -2 -14 -12 -15 -9 -9 20 4 18 1 43 -5 58 -10 21 -9 27
3 35 22 14 46 11 53 -7z"/>
<path fill="#ffffff" stroke="none" d="M80 100 c0 -5 -4 -10 -10 -10 -5 0 -10
5 -10 10 0 6 5 10 10 10 6 0 10 -4 10 -10z"/>
<path fill="#ffffff" stroke="none" d="M157 40 c7 0 16 6 19 13 7 20 30 17 31
-5 4 -43 -80 -48 -96 -5 -12 31 0 45 17 19 8 -12 21 -22 29 -22z"/>
<path fill="#ffffff" stroke="none" d="M170 65 c0 -8 -7 -15 -15 -15 -8 0 -15
7 -15 15 0 8 7 15 15 15 8 0 15 -7 15 -15z"/>
<path fill="#000000" stroke="none" d="M197 234 c-3 -5 3 -20 14 -33 12 -15
19 -18 19 -9 0 20 -26 53 -33 42z"/>
<path fill="#000000" stroke="none" d="M105 141 c-3 -6 4 -15 15 -21 31 -17
42 -8 15 13 -14 9 -26 13 -30 8z"/>
<path fill="#000000" stroke="none" d="M36 141 c-4 -5 -2 -12 3 -15 5 -4 12
-2 15 3 4 5 2 12 -3 15 -5 4 -12 2 -15 -3z"/>
<path fill="#000000" stroke="none" d="M266 231 c-4 -5 -2 -12 3 -15 5 -4 12
-2 15 3 4 5 2 12 -3 15 -5 4 -12 2 -15 -3z"/>
<path fill="#000000" stroke="none" d="M273 194 c21 -7 23 -31 2 -37 -11 -4
-10 -4 2 -3 25 2 23 40 -2 43 -16 1 -16 1 -2 -3z"/>
</g>
</svg>
