<?xml version="1.0" standalone="no"?>
<!DOCTYPE svg PUBLIC "-//W3C//DTD SVG 20010904//EN"
 "http://www.w3.org/TR/2001/REC-SVG-20010904/DTD/svg10.dtd">
<svg version="1.0" xmlns="http://www.w3.org/2000/svg"
 width="32.000000pt" height="32.000000pt" viewBox="0 0 32.000000 32.000000"
 preserveAspectRatio="xMidYMid meet">
<metadata>
Created by potrace 1.16, written by Peter Selinger 2001-2019
</metadata>
<g transform="translate(0.000000,32.000000) scale(0.100000,-0.100000)"
fill="#000000" stroke="none">
<path fill="#000000" stroke="none" d="M80 280 c0 -5 5 -10 10 -10 6 0 10 5
10 10 0 6 -4 10 -10 10 -5 0 -10 -4 -10 -10z"/>
<path fill="#000000" stroke="none" d="M156 279 c3 -6 19 -9 35 -7 31 5 39 -6
13 -16 -28 -11 -62 -6 -78 10 -9 8 -16 12 -16 7 0 -32 70 -45 105 -20 25 19
10 37 -31 37 -23 0 -33 -4 -28 -11z"/>
<path fill="#000000" stroke="none" d="M245 280 c3 -5 8 -10 11 -10 2 0 4 5 4
10 0 6 -5 10 -11 10 -5 0 -7 -4 -4 -10z"/>
<path fill="#000000" stroke="none" d="M162 74 c-6 -11 -11 -13 -16 -5 -4 6
-12 11 -18 11 -6 0 -6 -6 2 -15 11 -13 10 -18 -6 -30 -23 -18 -14 -19 20 -3
21 9 29 8 44 -5 31 -29 37 -19 8 12 -16 16 -25 34 -22 40 4 6 5 11 2 11 -3 0
-9 -7 -14 -16z"/>
<path fill="#000000" stroke="none" d="M185 60 c3 -5 12 -7 20 -3 21 7 19 13
-6 13 -11 0 -18 -4 -14 -10z"/>
</g>
</svg>
