<?xml version="1.0" standalone="no"?>
<!DOCTYPE svg PUBLIC "-//W3C//DTD SVG 20010904//EN"
 "http://www.w3.org/TR/2001/REC-SVG-20010904/DTD/svg10.dtd">
<svg version="1.0" xmlns="http://www.w3.org/2000/svg"
 width="32.000000pt" height="32.000000pt" viewBox="0 0 32.000000 32.000000"
 preserveAspectRatio="xMidYMid meet">
<metadata>
Created by potrace 1.16, written by Peter Selinger 2001-2019
</metadata>
<g transform="translate(0.000000,32.000000) scale(0.100000,-0.100000)"
fill="#000000" stroke="none">
<path fill="#000000" stroke="none" d="M250 292 c0 -15 4 -20 16 -15 9 3 12 9
7 12 -4 3 -11 10 -15 15 -5 5 -8 0 -8 -12z"/>
<path fill="#000000" stroke="none" d="M30 266 c0 -2 13 -9 29 -14 22 -8 31
-7 34 1 3 8 -8 13 -29 14 -19 2 -34 1 -34 -1z"/>
<path fill="#000000" stroke="none" d="M140 207 c0 -41 12 -54 30 -32 9 11 17
12 34 4 20 -10 20 -10 2 5 -18 14 -21 14 -38 -1 -17 -15 -18 -15 -18 10 0 18
4 25 13 21 8 -3 20 3 28 13 13 16 12 17 -3 4 -15 -11 -21 -11 -33 -1 -13 11
-15 7 -15 -23z"/>
<path fill="#000000" stroke="none" d="M270 210 c0 -11 4 -20 9 -20 5 0 7 9 4
20 -3 11 -7 20 -9 20 -2 0 -4 -9 -4 -20z"/>
<path fill="#000000" stroke="none" d="M80 211 c-20 -6 -22 -8 -8 -13 9 -4 22
-1 28 8 7 8 11 14 9 13 -2 -1 -15 -4 -29 -8z"/>
<path fill="#000000" stroke="none" d="M272 108 c-6 -35 -16 -64 -20 -66 -5
-1 -18 -10 -28 -18 -18 -14 -18 -15 4 -4 18 9 22 8 22 -6 0 -13 3 -14 15 -4 8
7 25 10 37 7 l23 -6 -23 18 c-22 16 -23 22 -17 79 4 34 5 62 3 62 -3 0 -10
-28 -16 -62z"/>
</g>
</svg>
