<?xml version="1.0" standalone="no"?>
<!DOCTYPE svg PUBLIC "-//W3C//DTD SVG 20010904//EN"
 "http://www.w3.org/TR/2001/REC-SVG-20010904/DTD/svg10.dtd">
<svg version="1.0" xmlns="http://www.w3.org/2000/svg"
 width="32.000000pt" height="32.000000pt" viewBox="0 0 32.000000 32.000000"
 preserveAspectRatio="xMidYMid meet">
<metadata>
Created by potrace 1.16, written by Peter Selinger 2001-2019
</metadata>
<g transform="translate(0.000000,32.000000) scale(0.100000,-0.100000)"
fill="#000000" stroke="none">
<path fill="#000000" stroke="none" d="M0 160 l0 -160 160 0 160 0 0 160 0
160 -160 0 -160 0 0 -160z"/>
<path fill="#ffffff" stroke="none" d="M100 280 c0 -5 -4 -10 -10 -10 -5 0
-10 5 -10 10 0 6 5 10 10 10 6 0 10 -4 10 -10z"/>
<path fill="#ffffff" stroke="none" d="M178 255 c42 10 46 21 7 17 -21 -3 -35
0 -35 7 0 16 80 14 81 -1 0 -10 2 -10 6 0 5 13 23 17 23 4 0 -8 -66 -47 -72
-42 -2 2 -12 -2 -24 -8 -16 -8 -24 -8 -32 0 -8 8 -12 8 -12 1 0 -6 7 -17 16
-24 14 -11 18 -10 30 6 8 10 14 13 14 7 0 -20 28 -13 44 10 13 18 16 19 16 6
0 -10 -10 -26 -22 -38 -24 -22 -54 -28 -42 -7 6 9 3 8 -8 -1 -14 -11 -20 -10
-38 8 -12 12 -19 28 -16 35 3 8 1 17 -4 20 -5 3 -7 12 -4 20 4 11 10 9 26 -7
14 -14 27 -18 46 -13z"/>
<path fill="#ffffff" stroke="none" d="M244 178 c-4 -13 -7 -25 -6 -28 0 -3
-7 -13 -15 -22 -9 -10 -13 -18 -9 -18 4 0 4 -5 1 -10 -5 -8 -11 -8 -19 -1 -16
13 -27 4 -19 -15 3 -8 15 -14 27 -14 19 -1 20 -1 3 -11 -18 -10 -18 -12 -1
-30 20 -22 8 -25 -20 -4 -13 10 -25 11 -43 4 -34 -13 -41 -11 -19 6 16 12 17
17 5 31 -12 15 -12 16 8 10 13 -4 24 -2 29 5 5 8 3 9 -5 4 -10 -6 -11 -3 -1
15 6 12 17 20 23 17 7 -2 21 4 31 14 11 11 14 19 8 19 -6 0 -13 -4 -16 -9 -3
-5 -21 -11 -40 -13 -31 -3 -33 -2 -24 15 5 10 7 21 4 25 -3 3 -6 0 -6 -7 0 -7
-4 -9 -10 -6 -18 11 -11 21 15 21 14 0 25 -6 25 -13 0 -7 8 -13 18 -13 14 0
15 2 2 10 -13 9 -13 10 0 11 8 1 20 1 27 0 6 -1 14 8 18 19 4 12 9 19 12 17 3
-3 2 -16 -3 -29z"/>
<path fill="#ffffff" stroke="none" d="M111 97 c-10 -9 -11 -8 -5 6 3 10 9 15
12 12 3 -3 0 -11 -7 -18z"/>
</g>
</svg>
