<?xml version="1.0" standalone="no"?>
<!DOCTYPE svg PUBLIC "-//W3C//DTD SVG 20010904//EN"
 "http://www.w3.org/TR/2001/REC-SVG-20010904/DTD/svg10.dtd">
<svg version="1.0" xmlns="http://www.w3.org/2000/svg"
 width="32.000000pt" height="32.000000pt" viewBox="0 0 32.000000 32.000000"
 preserveAspectRatio="xMidYMid meet">
<metadata>
Created by potrace 1.16, written by Peter Selinger 2001-2019
</metadata>
<g transform="translate(0.000000,32.000000) scale(0.100000,-0.100000)"
fill="#000000" stroke="none">
<path fill="#000000" stroke="none" d="M0 160 l0 -160 160 0 160 0 0 160 0
160 -160 0 -160 0 0 -160z"/>
<path fill="#ffffff" stroke="none" d="M214 289 c-3 -5 -10 -7 -15 -3 -5 3 -7
10 -3 15 3 5 10 7 15 3 5 -3 7 -10 3 -15z"/>
<path fill="#ffffff" stroke="none" d="M120 290 c0 -5 -4 -10 -10 -10 -5 0
-10 5 -10 10 0 6 5 10 10 10 6 0 10 -4 10 -10z"/>
<path fill="#ffffff" stroke="none" d="M160 250 c-14 -9 -7 -14 13 -11 5 1 1
-9 -7 -21 -18 -25 -21 -42 -7 -33 12 7 33 -29 23 -40 -4 -5 -2 -5 5 -1 7 4 10
14 7 24 -4 10 -3 13 3 6 4 -6 16 -10 26 -8 14 2 15 -1 8 -10 -6 -7 -7 -17 -3
-21 4 -5 1 -5 -5 -1 -7 4 -13 3 -13 -3 0 -7 -9 -7 -25 1 -14 6 -21 14 -16 17
6 4 7 11 3 16 -11 16 -34 17 -43 3 -7 -11 -9 -11 -9 0 0 7 -4 10 -10 7 -5 -3
-10 2 -10 12 0 15 -2 16 -10 3 -5 -8 -10 -10 -10 -5 0 6 5 16 12 23 7 7 8 12
3 12 -16 0 48 38 65 39 13 1 13 0 0 -9z"/>
<path fill="#ffffff" stroke="none" d="M54 219 c-3 -5 -10 -7 -15 -3 -5 3 -7
10 -3 15 3 5 10 7 15 3 5 -3 7 -10 3 -15z"/>
<path fill="#ffffff" stroke="none" d="M280 230 c0 -5 -4 -10 -10 -10 -5 0
-10 5 -10 10 0 6 5 10 10 10 6 0 10 -4 10 -10z"/>
<path fill="#ffffff" stroke="none" d="M300 216 c0 -19 -5 -24 -20 -23 -24 2
-24 2 -2 26 22 25 22 25 22 -3z"/>
<path fill="#ffffff" stroke="none" d="M60 189 c0 -5 -3 -8 -7 -6 -5 1 -8 -2
-8 -8 0 -5 3 -9 8 -7 4 1 7 -2 7 -8 0 -5 -6 -10 -12 -11 -10 0 -10 -2 0 -6 14
-5 16 -23 3 -23 -10 0 -19 22 -27 64 -3 20 -1 23 16 19 11 -3 20 -9 20 -14z"/>
<path fill="#ffffff" stroke="none" d="M295 169 c-7 -11 -35 -12 -35 -1 0 4 9
8 20 9 11 1 18 -2 15 -8z"/>
<path fill="#ffffff" stroke="none" d="M284 129 c-3 -5 -10 -7 -15 -3 -5 3 -7
10 -3 15 3 5 10 7 15 3 5 -3 7 -10 3 -15z"/>
<path fill="#ffffff" stroke="none" d="M78 57 c2 -19 -1 -27 -12 -27 -9 0 -16
9 -16 20 0 11 6 20 13 20 8 0 7 4 -3 11 -13 9 -13 10 0 6 8 -2 16 -16 18 -30z"/>
<path fill="#ffffff" stroke="none" d="M260 80 c-10 -6 -11 -10 -2 -10 6 0 12
-9 12 -20 0 -11 -7 -20 -15 -20 -9 0 -15 9 -15 23 0 26 7 37 24 37 6 0 4 -5
-4 -10z"/>
<path fill="#ffffff" stroke="none" d="M124 59 c-3 -5 -10 -7 -15 -3 -5 3 -7
10 -3 15 3 5 10 7 15 3 5 -3 7 -10 3 -15z"/>
<path fill="#ffffff" stroke="none" d="M220 70 c0 -5 -4 -10 -10 -10 -5 0 -10
5 -10 10 0 6 5 10 10 10 6 0 10 -4 10 -10z"/>
<path fill="#ffffff" stroke="none" d="M144 42 c3 -5 -1 -9 -9 -9 -8 0 -12 4
-9 9 3 4 7 8 9 8 2 0 6 -4 9 -8z"/>
<path fill="#ffffff" stroke="none" d="M205 41 c-9 -8 -36 -10 -30 -2 2 4 11
8 20 8 8 0 13 -3 10 -6z"/>
</g>
</svg>
