<?xml version="1.0" standalone="no"?>
<!DOCTYPE svg PUBLIC "-//W3C//DTD SVG 20010904//EN"
 "http://www.w3.org/TR/2001/REC-SVG-20010904/DTD/svg10.dtd">
<svg version="1.0" xmlns="http://www.w3.org/2000/svg"
 width="32.000000pt" height="32.000000pt" viewBox="0 0 32.000000 32.000000"
 preserveAspectRatio="xMidYMid meet">
<metadata>
Created by potrace 1.16, written by Peter Selinger 2001-2019
</metadata>
<g transform="translate(0.000000,32.000000) scale(0.100000,-0.100000)"
fill="#000000" stroke="none">
<path fill="#000000" stroke="none" d="M0 160 l0 -160 160 0 160 0 0 160 0
160 -160 0 -160 0 0 -160z"/>
<path fill="#ffffff" stroke="none" d="M160 126 c0 -2 -7 -7 -16 -10 -8 -3
-12 -2 -9 4 6 10 25 14 25 6z"/>
<path fill="#ffffff" stroke="none" d="M246 80 c1 -23 -22 -57 -32 -48 -2 3 2
11 10 17 11 9 13 19 5 38 -7 19 -6 24 3 21 7 -3 14 -15 14 -28z"/>
<path fill="#ffffff" stroke="none" d="M215 90 c11 -17 -5 -31 -19 -17 -14 12
-12 27 4 27 5 0 12 -4 15 -10z"/>
<path fill="#ffffff" stroke="none" d="M151 68 c10 17 15 18 26 7 19 -20 17
-22 -33 -30 -51 -7 -71 3 -60 31 6 15 9 15 31 -6 23 -22 24 -22 36 -2z"/>
</g>
</svg>
