<?xml version="1.0" standalone="no"?>
<!DOCTYPE svg PUBLIC "-//W3C//DTD SVG 20010904//EN"
 "http://www.w3.org/TR/2001/REC-SVG-20010904/DTD/svg10.dtd">
<svg version="1.0" xmlns="http://www.w3.org/2000/svg"
 width="32.000000pt" height="32.000000pt" viewBox="0 0 32.000000 32.000000"
 preserveAspectRatio="xMidYMid meet">
<metadata>
Created by potrace 1.16, written by Peter Selinger 2001-2019
</metadata>
<g transform="translate(0.000000,32.000000) scale(0.100000,-0.100000)"
fill="#000000" stroke="none">
<path fill="#000000" stroke="none" d="M0 160 l0 -160 160 0 160 0 0 160 0
160 -160 0 -160 0 0 -160z"/>
<path fill="#ffffff" stroke="none" d="M216 258 c-2 -17 -10 -34 -16 -38 -16
-10 -51 0 -44 12 3 5 11 5 19 -2 9 -7 16 -6 26 7 8 9 9 14 2 10 -6 -4 -18 -4
-27 -1 -22 8 -2 44 25 44 17 0 19 -5 15 -32z"/>
<path fill="#ffffff" stroke="none" d="M136 177 c1 -39 -1 -45 -12 -36 -8 6
-12 15 -9 19 3 5 -4 11 -15 15 -24 8 -25 18 -4 40 26 25 39 12 40 -38z"/>
<path fill="#ffffff" stroke="none" d="M180 201 c0 -5 -7 -11 -14 -14 -10 -4
-13 -1 -9 9 6 15 23 19 23 5z"/>
<path fill="#ffffff" stroke="none" d="M210 189 c0 -6 -4 -7 -10 -4 -5 3 -10
11 -10 16 0 6 5 7 10 4 6 -3 10 -11 10 -16z"/>
<path fill="#ffffff" stroke="none" d="M240 175 c11 -13 10 -14 -4 -9 -9 3
-16 10 -16 15 0 13 6 11 20 -6z"/>
<path fill="#ffffff" stroke="none" d="M200 123 c0 -27 -16 -48 -25 -34 -5 9
-10 9 -20 1 -9 -7 -15 -8 -19 -1 -4 6 -13 8 -21 4 -10 -3 -15 2 -15 16 0 18 3
20 18 12 12 -6 23 -5 37 5 26 19 45 18 45 -3z"/>
<path fill="#ffffff" stroke="none" d="M156 81 c18 15 26 -5 13 -34 -13 -29
-32 -26 -47 8 -12 25 -4 41 12 25 6 -6 14 -6 22 1z"/>
<path fill="#000000" stroke="none" d="M101 206 c-9 -10 -9 -16 -1 -21 17 -10
37 12 24 25 -8 8 -15 6 -23 -4z"/>
<path fill="#ffffff" stroke="none" d="M120 200 c0 -5 -5 -10 -11 -10 -5 0 -7
5 -4 10 3 6 8 10 11 10 2 0 4 -4 4 -10z"/>
</g>
</svg>
