<?xml version="1.0" standalone="no"?>
<!DOCTYPE svg PUBLIC "-//W3C//DTD SVG 20010904//EN"
 "http://www.w3.org/TR/2001/REC-SVG-20010904/DTD/svg10.dtd">
<svg version="1.0" xmlns="http://www.w3.org/2000/svg"
 width="32.000000pt" height="32.000000pt" viewBox="0 0 32.000000 32.000000"
 preserveAspectRatio="xMidYMid meet">
<metadata>
Created by potrace 1.16, written by Peter Selinger 2001-2019
</metadata>
<g transform="translate(0.000000,32.000000) scale(0.100000,-0.100000)"
fill="#000000" stroke="none">
<path fill="#000000" stroke="none" d="M98 265 c5 -30 6 -30 23 -8 10 11 10
14 2 9 -8 -4 -13 -1 -13 8 0 9 -4 16 -9 16 -4 0 -6 -11 -3 -25z"/>
<path fill="#000000" stroke="none" d="M171 271 c-8 -14 -7 -20 4 -25 8 -3 15
-11 15 -18 0 -10 -3 -9 -9 1 -6 9 -15 11 -27 6 -11 -4 -26 -9 -34 -10 -8 -1
-25 -5 -37 -9 l-21 -8 21 -24 c14 -16 21 -39 22 -67 1 -51 27 -97 55 -97 24 0
49 37 57 84 5 30 1 42 -18 63 -20 22 -21 25 -5 19 15 -5 17 -2 13 14 -3 11 -1
23 4 26 14 8 11 26 -3 18 -10 -6 -10 -4 0 7 6 7 12 19 12 26 0 20 -38 15 -49
-6z"/>
<path fill="#ffffff" stroke="none" d="M162 203 c-13 -28 -8 -48 11 -47 9 1
14 -3 11 -8 -3 -5 -12 -7 -20 -4 -8 3 -14 -1 -14 -9 0 -18 -16 -20 -26 -3 -4
7 -3 8 5 4 8 -5 11 2 9 22 -1 17 4 37 11 46 18 21 24 20 13 -1z"/>
<path fill="#000000" stroke="none" d="M230 222 c-17 -8 -20 -43 -5 -54 15
-12 22 -9 22 7 0 8 -4 15 -9 15 -5 0 -4 9 2 20 6 11 9 20 8 19 -2 0 -10 -3
-18 -7z"/>
<path fill="#000000" stroke="none" d="M80 149 c0 -5 5 -7 10 -4 6 3 10 8 10
11 0 2 -4 4 -10 4 -5 0 -10 -5 -10 -11z"/>
</g>
</svg>
