<?xml version="1.0" standalone="no"?>
<!DOCTYPE svg PUBLIC "-//W3C//DTD SVG 20010904//EN"
 "http://www.w3.org/TR/2001/REC-SVG-20010904/DTD/svg10.dtd">
<svg version="1.0" xmlns="http://www.w3.org/2000/svg"
 width="32.000000pt" height="32.000000pt" viewBox="0 0 32.000000 32.000000"
 preserveAspectRatio="xMidYMid meet">
<metadata>
Created by potrace 1.16, written by Peter Selinger 2001-2019
</metadata>
<g transform="translate(0.000000,32.000000) scale(0.100000,-0.100000)"
fill="#000000" stroke="none">
<path fill="#000000" stroke="none" d="M147 262 c-15 -3 -16 -5 -2 -25 22 -32
18 -42 -17 -42 -42 0 -49 -23 -9 -31 17 -4 31 -10 31 -15 0 -5 -15 -3 -34 5
-30 13 -36 12 -65 -6 -26 -17 -31 -26 -31 -59 0 -58 31 -74 140 -74 114 0 144
15 148 72 3 39 0 44 -29 62 -24 15 -37 17 -51 10 -12 -6 -18 -6 -18 1 0 5 7
10 16 10 9 0 14 6 11 13 -2 6 -18 12 -35 12 -35 0 -39 10 -17 42 13 19 13 21
-3 25 -9 2 -25 2 -35 0z"/>
<path fill="#ffffff" stroke="none" d="M200 156 c0 -3 -4 -8 -10 -11 -5 -3
-10 -1 -10 4 0 6 5 11 10 11 6 0 10 -2 10 -4z"/>
<path fill="#ffffff" stroke="none" d="M137 108 c-3 -8 -6 -5 -6 6 -1 11 2 17
5 13 3 -3 4 -12 1 -19z"/>
<path fill="#ffffff" stroke="none" d="M197 108 c-3 -8 -6 -5 -6 6 -1 11 2 17
5 13 3 -3 4 -12 1 -19z"/>
</g>
</svg>
