<?xml version="1.0" standalone="no"?>
<!DOCTYPE svg PUBLIC "-//W3C//DTD SVG 20010904//EN"
 "http://www.w3.org/TR/2001/REC-SVG-20010904/DTD/svg10.dtd">
<svg version="1.0" xmlns="http://www.w3.org/2000/svg"
 width="32.000000pt" height="32.000000pt" viewBox="0 0 32.000000 32.000000"
 preserveAspectRatio="xMidYMid meet">
<metadata>
Created by potrace 1.16, written by Peter Selinger 2001-2019
</metadata>
<g transform="translate(0.000000,32.000000) scale(0.100000,-0.100000)"
fill="#000000" stroke="none">
<path fill="#000000" stroke="none" d="M2 169 l3 -152 43 -1 c23 0 42 2 42 6
0 4 12 3 26 -2 32 -13 34 -13 34 3 0 14 68 15 92 1 7 -4 10 -4 6 0 -4 5 2 17
12 29 26 27 21 83 -6 80 -18 -1 -18 0 1 15 32 26 29 62 -7 99 -28 29 -38 33
-83 33 -45 0 -55 -4 -83 -33 -31 -32 -32 -35 -32 -127 0 -51 -3 -90 -7 -87 -3
4 -13 1 -22 -5 -12 -10 -12 -8 2 8 13 16 17 39 17 100 0 79 0 80 38 117 33 33
44 37 88 37 45 0 54 -4 87 -38 37 -38 37 -38 37 -124 0 -64 4 -89 15 -98 13
-11 15 5 15 139 l0 151 -160 0 -161 0 3 -151z"/>
</g>
</svg>
