<?xml version="1.0" standalone="no"?>
<!DOCTYPE svg PUBLIC "-//W3C//DTD SVG 20010904//EN"
 "http://www.w3.org/TR/2001/REC-SVG-20010904/DTD/svg10.dtd">
<svg version="1.0" xmlns="http://www.w3.org/2000/svg"
 width="32.000000pt" height="32.000000pt" viewBox="0 0 32.000000 32.000000"
 preserveAspectRatio="xMidYMid meet">
<metadata>
Created by potrace 1.16, written by Peter Selinger 2001-2019
</metadata>
<g transform="translate(0.000000,32.000000) scale(0.100000,-0.100000)"
fill="#000000" stroke="none">
<path fill="#000000" stroke="none" d="M0 168 c0 -150 0 -151 20 -133 18 16
20 31 20 130 l0 113 66 7 c36 4 87 4 115 0 43 -6 49 -10 49 -30 0 -13 5 -27
10 -30 6 -3 10 -46 10 -94 0 -67 4 -92 15 -101 13 -11 15 5 15 139 l0 151
-160 0 -160 0 0 -152z"/>
<path fill="#000000" stroke="none" d="M100 265 c-16 -19 -10 -19 26 0 25 13
26 15 8 15 -12 0 -27 -7 -34 -15z"/>
<path fill="#000000" stroke="none" d="M60 225 c-8 -9 -8 -15 -2 -15 12 0 26
19 19 26 -2 2 -10 -2 -17 -11z"/>
<path fill="#000000" stroke="none" d="M52 170 c0 -14 2 -19 5 -12 2 6 2 18 0
25 -3 6 -5 1 -5 -13z"/>
<path fill="#000000" stroke="none" d="M51 64 c0 -11 3 -14 6 -6 3 7 2 16 -1
19 -3 4 -6 -2 -5 -13z"/>
</g>
</svg>
