<?xml version="1.0" standalone="no"?>
<!DOCTYPE svg PUBLIC "-//W3C//DTD SVG 20010904//EN"
 "http://www.w3.org/TR/2001/REC-SVG-20010904/DTD/svg10.dtd">
<svg version="1.0" xmlns="http://www.w3.org/2000/svg"
 width="32.000000pt" height="32.000000pt" viewBox="0 0 32.000000 32.000000"
 preserveAspectRatio="xMidYMid meet">
<metadata>
Created by potrace 1.16, written by Peter Selinger 2001-2019
</metadata>
<g transform="translate(0.000000,32.000000) scale(0.100000,-0.100000)"
fill="#000000" stroke="none">
<path fill="#000000" stroke="none" d="M78 283 l-38 -4 0 -113 c0 -100 -2
-115 -20 -131 -11 -10 -20 -22 -20 -27 0 -4 72 -8 160 -8 88 0 160 4 160 9 0
5 -7 14 -15 21 -11 9 -15 34 -15 101 0 48 -4 91 -10 94 -5 3 -10 17 -10 29 0
19 -7 25 -37 30 -39 6 -89 6 -155 -1z"/>
</g>
</svg>
