<?xml version="1.0" standalone="no"?>
<!DOCTYPE svg PUBLIC "-//W3C//DTD SVG 20010904//EN"
 "http://www.w3.org/TR/2001/REC-SVG-20010904/DTD/svg10.dtd">
<svg version="1.0" xmlns="http://www.w3.org/2000/svg"
 width="32.000000pt" height="32.000000pt" viewBox="0 0 32.000000 32.000000"
 preserveAspectRatio="xMidYMid meet">
<metadata>
Created by potrace 1.16, written by Peter Selinger 2001-2019
</metadata>
<g transform="translate(0.000000,32.000000) scale(0.100000,-0.100000)"
fill="#000000" stroke="none">
<path fill="#000000" stroke="none" d="M0 160 l0 -160 160 0 160 0 0 160 0
160 -160 0 -160 0 0 -160z"/>
<path fill="#ffffff" stroke="none" d="M170 290 c0 -5 -4 -10 -10 -10 -5 0
-10 5 -10 10 0 6 5 10 10 10 6 0 10 -4 10 -10z"/>
<path fill="#ffffff" stroke="none" d="M80 275 c0 -8 -7 -15 -15 -15 -8 0 -15
7 -15 15 0 8 7 15 15 15 8 0 15 -7 15 -15z"/>
<path fill="#ffffff" stroke="none" d="M270 275 c0 -8 -7 -15 -15 -15 -8 0
-15 7 -15 15 0 8 7 15 15 15 8 0 15 -7 15 -15z"/>
<path fill="#ffffff" stroke="none" d="M175 250 c-11 -5 -15 -9 -9 -9 7 -1 14
-13 17 -27 3 -16 0 -24 -7 -21 -14 6 -34 -15 -29 -29 2 -7 -6 -10 -22 -7 -14
3 -25 10 -26 17 0 6 -4 2 -9 -9 -7 -17 -9 -15 -9 13 -1 45 36 82 81 81 28 0
30 -2 13 -9z"/>
<path fill="#ffffff" stroke="none" d="M221 233 c13 -16 12 -17 -3 -4 -10 7
-18 15 -18 17 0 8 8 3 21 -13z"/>
<path fill="#ffffff" stroke="none" d="M56 228 c5 -7 3 -8 -7 -3 -12 8 -12 6
0 -8 11 -14 11 -17 0 -17 -11 0 -11 -2 1 -10 10 -7 12 -12 4 -17 -6 -5 -14
-15 -18 -23 -3 -8 -4 -5 -2 8 2 13 1 36 -4 52 -7 23 -5 30 5 30 8 0 17 -5 21
-12z"/>
<path fill="#ffffff" stroke="none" d="M290 210 c-5 -16 -6 -39 -4 -52 2 -13
1 -16 -2 -8 -4 8 -12 18 -18 23 -8 5 -6 10 4 17 12 8 12 10 1 10 -11 0 -11 3
0 17 12 14 12 16 0 8 -10 -5 -12 -4 -7 3 4 7 13 12 21 12 10 0 12 -7 5 -30z"/>
<path fill="#ffffff" stroke="none" d="M240 180 c0 -43 -39 -80 -82 -79 -24 1
-27 3 -10 6 13 3 19 9 16 15 -5 8 -1 9 12 4 10 -4 15 -4 11 0 -9 9 13 35 24
28 5 -3 6 3 2 12 -4 12 -3 15 5 10 8 -5 12 0 12 13 0 12 2 21 5 21 3 0 5 -14
5 -30z"/>
<path fill="#ffffff" stroke="none" d="M180 170 c0 -5 -4 -10 -10 -10 -5 0
-10 5 -10 10 0 6 5 10 10 10 6 0 10 -4 10 -10z"/>
<path fill="#ffffff" stroke="none" d="M190 155 c-7 -8 -16 -15 -21 -15 -5 0
-1 8 9 18 20 22 31 19 12 -3z"/>
<path fill="#ffffff" stroke="none" d="M111 123 c13 -16 12 -17 -3 -4 -10 7
-18 15 -18 17 0 8 8 3 21 -13z"/>
<path fill="#ffffff" stroke="none" d="M80 85 c0 -8 -7 -15 -15 -15 -8 0 -15
7 -15 15 0 8 7 15 15 15 8 0 15 -7 15 -15z"/>
<path fill="#ffffff" stroke="none" d="M270 85 c0 -8 -7 -15 -15 -15 -8 0 -15
7 -15 15 0 8 7 15 15 15 8 0 15 -7 15 -15z"/>
<path fill="#ffffff" stroke="none" d="M170 70 c0 -5 -4 -10 -10 -10 -5 0 -10
5 -10 10 0 6 5 10 10 10 6 0 10 -4 10 -10z"/>
<path fill="#ffffff" stroke="none" d="M57 38 c-3 -8 -6 -5 -6 6 -1 11 2 17 5
13 3 -3 4 -12 1 -19z"/>
<path fill="#ffffff" stroke="none" d="M77 38 c-3 -8 -6 -5 -6 6 -1 11 2 17 5
13 3 -3 4 -12 1 -19z"/>
<path fill="#ffffff" stroke="none" d="M247 38 c-3 -8 -6 -5 -6 6 -1 11 2 17
5 13 3 -3 4 -12 1 -19z"/>
<path fill="#ffffff" stroke="none" d="M267 38 c-3 -8 -6 -5 -6 6 -1 11 2 17
5 13 3 -3 4 -12 1 -19z"/>
</g>
</svg>
