<?xml version="1.0" standalone="no"?>
<!DOCTYPE svg PUBLIC "-//W3C//DTD SVG 20010904//EN"
 "http://www.w3.org/TR/2001/REC-SVG-20010904/DTD/svg10.dtd">
<svg version="1.0" xmlns="http://www.w3.org/2000/svg"
 width="32.000000pt" height="32.000000pt" viewBox="0 0 32.000000 32.000000"
 preserveAspectRatio="xMidYMid meet">
<metadata>
Created by potrace 1.16, written by Peter Selinger 2001-2019
</metadata>
<g transform="translate(0.000000,32.000000) scale(0.100000,-0.100000)"
fill="#000000" stroke="none">
<path fill="#000000" stroke="none" d="M150 290 c0 -5 5 -10 10 -10 6 0 10 5
10 10 0 6 -4 10 -10 10 -5 0 -10 -4 -10 -10z"/>
<path fill="#000000" stroke="none" d="M50 275 c0 -8 7 -15 15 -15 8 0 15 7
15 15 0 8 -7 15 -15 15 -8 0 -15 -7 -15 -15z"/>
<path fill="#000000" stroke="none" d="M240 275 c0 -8 7 -15 15 -15 8 0 15 7
15 15 0 8 -7 15 -15 15 -8 0 -15 -7 -15 -15z"/>
<path fill="#000000" stroke="none" d="M105 235 c-17 -16 -25 -35 -24 -57 0
-28 2 -30 9 -13 5 11 9 15 9 9 1 -7 12 -14 26 -17 16 -3 24 0 22 7 -5 14 15
35 29 29 7 -3 10 5 7 21 -3 14 -10 26 -17 27 -6 0 -2 4 9 9 17 7 15 9 -13 9
-22 1 -41 -7 -57 -24z"/>
<path fill="#000000" stroke="none" d="M200 246 c0 -2 8 -10 18 -17 15 -13 16
-12 3 4 -13 16 -21 21 -21 13z"/>
<path fill="#000000" stroke="none" d="M30 210 c5 -16 6 -39 4 -52 -2 -13 -1
-16 2 -8 4 8 12 18 18 23 8 5 6 10 -4 17 -12 8 -12 10 -1 10 11 0 11 3 0 17
-12 14 -12 16 0 8 10 -5 12 -4 7 3 -4 7 -13 12 -21 12 -10 0 -12 -7 -5 -30z"/>
<path fill="#000000" stroke="none" d="M264 228 c-5 -7 -3 -8 7 -3 12 8 12 6
0 -8 -11 -14 -11 -17 0 -17 11 0 11 -2 -1 -10 -10 -7 -12 -12 -4 -17 6 -5 14
-15 18 -23 3 -8 4 -5 2 8 -2 13 -1 36 4 52 7 23 5 30 -5 30 -8 0 -17 -5 -21
-12z"/>
<path fill="#000000" stroke="none" d="M230 189 c0 -13 -4 -18 -12 -13 -8 5
-9 2 -5 -10 4 -9 3 -15 -2 -12 -11 7 -33 -19 -24 -28 4 -4 -1 -4 -11 0 -13 5
-17 4 -12 -4 3 -6 -3 -12 -16 -15 -17 -3 -14 -5 10 -6 43 -1 82 36 82 79 0 16
-2 30 -5 30 -3 0 -5 -9 -5 -21z"/>
<path fill="#000000" stroke="none" d="M160 170 c0 -5 5 -10 10 -10 6 0 10 5
10 10 0 6 -4 10 -10 10 -5 0 -10 -4 -10 -10z"/>
<path fill="#000000" stroke="none" d="M178 158 c-10 -10 -14 -18 -9 -18 10 0
36 29 30 34 -2 1 -12 -6 -21 -16z"/>
<path fill="#000000" stroke="none" d="M90 136 c0 -2 8 -10 18 -17 15 -13 16
-12 3 4 -13 16 -21 21 -21 13z"/>
<path fill="#000000" stroke="none" d="M50 85 c0 -8 7 -15 15 -15 8 0 15 7 15
15 0 8 -7 15 -15 15 -8 0 -15 -7 -15 -15z"/>
<path fill="#000000" stroke="none" d="M240 85 c0 -8 7 -15 15 -15 8 0 15 7
15 15 0 8 -7 15 -15 15 -8 0 -15 -7 -15 -15z"/>
<path fill="#000000" stroke="none" d="M150 70 c0 -5 5 -10 10 -10 6 0 10 5
10 10 0 6 -4 10 -10 10 -5 0 -10 -4 -10 -10z"/>
<path fill="#000000" stroke="none" d="M51 44 c0 -11 3 -14 6 -6 3 7 2 16 -1
19 -3 4 -6 -2 -5 -13z"/>
<path fill="#000000" stroke="none" d="M71 44 c0 -11 3 -14 6 -6 3 7 2 16 -1
19 -3 4 -6 -2 -5 -13z"/>
<path fill="#000000" stroke="none" d="M241 44 c0 -11 3 -14 6 -6 3 7 2 16 -1
19 -3 4 -6 -2 -5 -13z"/>
<path fill="#000000" stroke="none" d="M261 44 c0 -11 3 -14 6 -6 3 7 2 16 -1
19 -3 4 -6 -2 -5 -13z"/>
</g>
</svg>
