<?xml version="1.0" standalone="no"?>
<!DOCTYPE svg PUBLIC "-//W3C//DTD SVG 20010904//EN"
 "http://www.w3.org/TR/2001/REC-SVG-20010904/DTD/svg10.dtd">
<svg version="1.0" xmlns="http://www.w3.org/2000/svg"
 width="32.000000pt" height="32.000000pt" viewBox="0 0 32.000000 32.000000"
 preserveAspectRatio="xMidYMid meet">
<metadata>
Created by potrace 1.16, written by Peter Selinger 2001-2019
</metadata>
<g transform="translate(0.000000,32.000000) scale(0.100000,-0.100000)"
fill="#000000" stroke="none">
<path fill="#000000" stroke="none" d="M190 295 c0 -8 7 -15 15 -15 8 0 15 7
15 15 0 8 -7 15 -15 15 -8 0 -15 -7 -15 -15z"/>
<path fill="#000000" stroke="none" d="M100 290 c0 -5 5 -10 10 -10 6 0 10 5
10 10 0 6 -4 10 -10 10 -5 0 -10 -4 -10 -10z"/>
<path fill="#000000" stroke="none" d="M105 235 c-16 -15 -25 -36 -25 -55 0
-29 2 -31 29 -27 17 3 32 0 35 -6 3 -7 4 -3 3 8 -4 28 12 42 42 39 15 -2 19
-1 9 2 -12 4 -15 13 -11 35 4 27 2 29 -27 29 -19 0 -40 -9 -55 -25z"/>
<path fill="#000000" stroke="none" d="M200 246 c0 -2 8 -10 18 -17 15 -13 16
-12 3 4 -13 16 -21 21 -21 13z"/>
<path fill="#000000" stroke="none" d="M28 223 c0 -10 -2 -25 -3 -33 -2 -22
16 -70 26 -70 5 0 9 5 9 10 0 6 -6 10 -12 10 -9 0 -9 3 -3 8 18 12 15 50 -3
55 -15 4 -15 5 1 6 21 1 23 31 2 31 -8 0 -16 -8 -17 -17z"/>
<path fill="#ffffff" stroke="none" d="M47 175 c0 -8 -4 -12 -9 -9 -5 3 -6 10
-3 15 9 13 12 11 12 -6z"/>
<path fill="#000000" stroke="none" d="M260 230 c0 -5 5 -10 10 -10 6 0 10 5
10 10 0 6 -4 10 -10 10 -5 0 -10 -4 -10 -10z"/>
<path fill="#000000" stroke="none" d="M280 221 c-20 -21 -23 -61 -5 -61 8 0
17 5 21 12 5 7 2 9 -8 6 -8 -4 -15 -1 -15 7 0 7 6 11 14 8 9 -3 13 3 13 21 0
30 0 30 -20 7z"/>
<path fill="#000000" stroke="none" d="M230 191 c0 -16 -6 -18 -36 -14 l-36 5
5 -36 c4 -30 1 -36 -17 -39 -13 -3 -9 -5 12 -6 43 -1 82 36 82 79 0 16 -2 30
-5 30 -3 0 -5 -9 -5 -19z"/>
<path fill="#000000" stroke="none" d="M260 135 c0 -8 7 -15 15 -15 8 0 15 7
15 15 0 8 -7 15 -15 15 -8 0 -15 -7 -15 -15z"/>
<path fill="#000000" stroke="none" d="M90 136 c0 -2 8 -10 18 -17 15 -13 16
-12 3 4 -13 16 -21 21 -21 13z"/>
<path fill="#000000" stroke="none" d="M61 91 c-11 -7 -11 -9 0 -14 10 -4 10
-6 2 -6 -19 -1 -16 -41 2 -41 12 0 15 9 13 35 -1 19 -2 35 -3 35 0 0 -6 -4
-14 -9z"/>
<path fill="#000000" stroke="none" d="M242 64 c-2 -25 1 -34 13 -34 8 0 15 9
15 20 0 11 -6 20 -12 20 -10 0 -10 2 0 9 11 7 11 9 0 14 -10 3 -15 -5 -16 -29z"/>
<path fill="#000000" stroke="none" d="M100 65 c0 -8 7 -15 16 -15 8 0 13 -4
10 -8 -3 -5 1 -9 8 -9 10 0 10 6 2 24 -12 26 -36 31 -36 8z"/>
<path fill="#000000" stroke="none" d="M200 70 c0 -5 5 -10 10 -10 6 0 10 5
10 10 0 6 -4 10 -10 10 -5 0 -10 -4 -10 -10z"/>
<path fill="#000000" stroke="none" d="M175 39 c-3 -4 2 -6 10 -5 21 3 28 13
10 13 -9 0 -18 -4 -20 -8z"/>
</g>
</svg>
