<?xml version="1.0" standalone="no"?>
<!DOCTYPE svg PUBLIC "-//W3C//DTD SVG 20010904//EN"
 "http://www.w3.org/TR/2001/REC-SVG-20010904/DTD/svg10.dtd">
<svg version="1.0" xmlns="http://www.w3.org/2000/svg"
 width="32.000000pt" height="32.000000pt" viewBox="0 0 32.000000 32.000000"
 preserveAspectRatio="xMidYMid meet">
<metadata>
Created by potrace 1.16, written by Peter Selinger 2001-2019
</metadata>
<g transform="translate(0.000000,32.000000) scale(0.100000,-0.100000)"
fill="#000000" stroke="none">
<path fill="#000000" stroke="none" d="M92 228 c-29 -29 -13 -37 78 -37 64 0
90 4 90 13 0 32 -62 50 -88 24 -9 -9 -12 -9 -12 0 0 7 -13 12 -28 12 -15 0
-33 -5 -40 -12z"/>
<path fill="#000000" stroke="none" d="M190 120 l-45 -7 42 -1 c23 -1 45 3 48
8 3 6 5 9 3 8 -2 0 -23 -4 -48 -8z"/>
<path fill="#000000" stroke="none" d="M215 61 c-6 -5 -26 -11 -45 -14 l-35
-4 36 -1 c22 -1 42 4 49 13 14 16 10 21 -5 6z"/>
</g>
</svg>
