<?xml version="1.0" standalone="no"?>
<!DOCTYPE svg PUBLIC "-//W3C//DTD SVG 20010904//EN"
 "http://www.w3.org/TR/2001/REC-SVG-20010904/DTD/svg10.dtd">
<svg version="1.0" xmlns="http://www.w3.org/2000/svg"
 width="32.000000pt" height="32.000000pt" viewBox="0 0 32.000000 32.000000"
 preserveAspectRatio="xMidYMid meet">
<metadata>
Created by potrace 1.16, written by Peter Selinger 2001-2019
</metadata>
<g transform="translate(0.000000,32.000000) scale(0.100000,-0.100000)"
fill="#000000" stroke="none">
<path fill="#000000" stroke="none" d="M80 210 c-24 -33 -24 -37 -6 -55 12
-12 32 -98 28 -117 -1 -5 29 -8 68 -8 38 0 69 3 68 7 -4 20 16 106 28 118 18
18 18 22 -6 55 -19 27 -25 29 -90 29 -65 0 -71 -2 -90 -29z"/>
<path fill="#ffffff" stroke="none" d="M240 153 c0 -5 -31 -8 -70 -8 -38 0
-70 3 -70 8 0 4 32 7 70 7 39 0 70 -3 70 -7z"/>
<path fill="#ffffff" stroke="none" d="M230 91 c0 -15 -18 -23 -25 -11 -3 5
-19 10 -35 10 -16 0 -32 -5 -35 -10 -7 -12 -25 -4 -25 11 0 5 27 9 60 9 33 0
60 -4 60 -9z"/>
</g>
</svg>
