<?xml version="1.0" standalone="no"?>
<!DOCTYPE svg PUBLIC "-//W3C//DTD SVG 20010904//EN"
 "http://www.w3.org/TR/2001/REC-SVG-20010904/DTD/svg10.dtd">
<svg version="1.0" xmlns="http://www.w3.org/2000/svg"
 width="32.000000pt" height="32.000000pt" viewBox="0 0 32.000000 32.000000"
 preserveAspectRatio="xMidYMid meet">
<metadata>
Created by potrace 1.16, written by Peter Selinger 2001-2019
</metadata>
<g transform="translate(0.000000,32.000000) scale(0.100000,-0.100000)"
fill="#000000" stroke="none">
<path fill="#000000" stroke="none" d="M150 295 c0 -8 7 -15 15 -15 8 0 15 7
15 15 0 8 -7 15 -15 15 -8 0 -15 -7 -15 -15z"/>
<path fill="#000000" stroke="none" d="M70 270 c0 -5 5 -10 10 -10 6 0 10 5
10 10 0 6 -4 10 -10 10 -5 0 -10 -4 -10 -10z"/>
<path fill="#000000" stroke="none" d="M240 260 c0 -5 5 -10 10 -10 6 0 10 5
10 10 0 6 -4 10 -10 10 -5 0 -10 -4 -10 -10z"/>
<path fill="#000000" stroke="none" d="M105 235 c-26 -25 -37 -94 -13 -79 7 5
9 2 5 -9 -3 -9 1 -21 11 -29 15 -11 15 -11 5 2 -7 10 -8 21 -3 30 7 11 11 12
24 0 14 -11 16 -10 11 2 -4 10 5 27 21 43 26 26 26 29 10 40 -17 13 -16 13 1
18 10 3 3 5 -15 6 -23 1 -41 -7 -57 -24z"/>
<path fill="#000000" stroke="none" d="M23 194 c1 -42 4 -53 15 -49 7 3 17 5
20 6 4 0 -2 4 -13 9 -16 7 -17 9 -3 9 10 1 19 13 23 31 4 16 7 33 8 37 1 4
-10 8 -25 10 -26 2 -26 0 -25 -53z"/>
<path fill="#ffffff" stroke="none" d="M60 234 c0 -8 -19 -13 -24 -6 -3 5 1 9
9 9 8 0 15 -2 15 -3z"/>
<path fill="#ffffff" stroke="none" d="M57 204 c-3 -3 -12 -4 -19 -1 -8 3 -5
6 6 6 11 1 17 -2 13 -5z"/>
<path fill="#000000" stroke="none" d="M217 224 c16 -30 16 -32 -10 -59 -14
-16 -24 -32 -21 -36 2 -4 0 -10 -5 -14 -6 -3 -8 3 -6 15 2 11 0 20 -6 20 -5 0
-9 -9 -9 -19 0 -11 -8 -22 -17 -24 -10 -3 -3 -5 15 -6 68 -2 106 78 62 130
l-20 24 17 -31z"/>
<path fill="#000000" stroke="none" d="M254 244 c-18 -7 4 -84 24 -84 13 0 13
-2 -3 -13 -14 -11 -15 -16 -5 -22 9 -5 11 -4 6 3 -4 7 -1 12 6 12 9 0 14 18
15 55 3 56 -5 65 -43 49z"/>
<path fill="#ffffff" stroke="none" d="M284 219 c-3 -5 -10 -7 -15 -3 -5 3 -7
10 -3 15 3 5 10 7 15 3 5 -3 7 -10 3 -15z"/>
<path fill="#ffffff" stroke="none" d="M287 194 c-3 -3 -12 -4 -19 -1 -8 3 -5
6 6 6 11 1 17 -2 13 -5z"/>
<path fill="#000000" stroke="none" d="M160 174 c-10 -11 -9 -14 4 -14 9 0 19
0 23 -1 4 0 9 4 11 9 5 16 -26 22 -38 6z"/>
<path fill="#000000" stroke="none" d="M36 132 c-3 -5 1 -9 9 -9 8 0 12 4 9 9
-3 4 -7 8 -9 8 -2 0 -6 -4 -9 -8z"/>
<path fill="#000000" stroke="none" d="M52 90 c-15 -25 -16 -67 -1 -76 14 -8
29 14 29 43 0 17 -4 21 -17 17 -17 -5 -17 -5 0 9 18 15 22 27 9 27 -4 0 -13
-9 -20 -20z"/>
<path fill="#000000" stroke="none" d="M230 90 c0 -5 5 -10 10 -10 6 0 10 5
10 10 0 6 -4 10 -10 10 -5 0 -10 -4 -10 -10z"/>
<path fill="#000000" stroke="none" d="M264 82 c4 -7 1 -12 -8 -12 -17 0 -21
-27 -7 -49 5 -7 14 -10 20 -7 15 9 14 63 -1 72 -7 4 -8 3 -4 -4z"/>
<path fill="#000000" stroke="none" d="M136 58 c-5 -22 -6 -22 -19 -4 -11 15
-16 16 -22 6 -5 -8 -4 -11 2 -7 6 4 14 0 17 -9 3 -8 10 -13 15 -10 5 4 11 3
14 -1 2 -5 2 -2 1 5 -2 6 3 12 11 12 8 0 15 7 15 15 0 23 -27 18 -34 -7z"/>
<path fill="#000000" stroke="none" d="M177 46 c-4 -11 -5 -21 -2 -24 3 -3 5
0 5 7 0 7 4 10 9 6 5 -3 13 0 17 6 4 7 3 9 -4 5 -5 -3 -12 -1 -14 6 -3 7 -7 5
-11 -6z"/>
</g>
</svg>
