<?xml version="1.0" standalone="no"?>
<!DOCTYPE svg PUBLIC "-//W3C//DTD SVG 20010904//EN"
 "http://www.w3.org/TR/2001/REC-SVG-20010904/DTD/svg10.dtd">
<svg version="1.0" xmlns="http://www.w3.org/2000/svg"
 width="32.000000pt" height="32.000000pt" viewBox="0 0 32.000000 32.000000"
 preserveAspectRatio="xMidYMid meet">
<metadata>
Created by potrace 1.16, written by Peter Selinger 2001-2019
</metadata>
<g transform="translate(0.000000,32.000000) scale(0.100000,-0.100000)"
fill="#000000" stroke="none">
<path fill="#000000" stroke="none" d="M0 160 l0 -160 160 0 160 0 0 160 0
160 -160 0 -160 0 0 -160z"/>
<path fill="#ffffff" stroke="none" d="M220 295 c0 -8 -7 -15 -15 -15 -8 0
-15 7 -15 15 0 8 7 15 15 15 8 0 15 -7 15 -15z"/>
<path fill="#ffffff" stroke="none" d="M120 290 c0 -5 -4 -10 -10 -10 -5 0
-10 5 -10 10 0 6 5 10 10 10 6 0 10 -4 10 -10z"/>
<path fill="#ffffff" stroke="none" d="M177 253 c-17 -5 -18 -5 -1 -18 16 -11
16 -14 -10 -40 -16 -16 -25 -33 -21 -43 5 -12 3 -13 -11 -2 -13 12 -17 11 -24
0 -5 -9 -4 -20 3 -30 10 -13 10 -13 -5 -2 -10 8 -14 20 -11 29 4 11 2 14 -5 9
-8 -5 -12 3 -12 24 0 43 39 80 82 79 18 -1 25 -3 15 -6z"/>
<path fill="#ffffff" stroke="none" d="M77 235 c5 -4 2 -5 -6 0 -10 6 -12 1
-6 -24 5 -26 4 -32 -8 -29 -9 2 -15 -1 -14 -7 1 -5 5 -9 9 -8 5 2 8 -2 8 -7 0
-5 -2 -10 -4 -10 -2 0 -12 -3 -21 -6 -14 -6 -16 1 -13 47 3 49 5 54 25 53 13
0 26 -4 30 -9z"/>
<path fill="#ffffff" stroke="none" d="M240 178 c0 -41 -40 -78 -82 -77 -18 1
-25 3 -15 6 9 2 17 13 17 24 0 10 4 19 9 19 6 0 8 -9 6 -20 -2 -12 0 -18 6
-15 5 4 7 10 5 14 -3 4 7 20 21 36 26 27 26 29 10 59 l-17 31 20 -24 c11 -13
20 -36 20 -53z"/>
<path fill="#ffffff" stroke="none" d="M300 206 c0 -56 -9 -86 -26 -86 -21 0
-17 30 4 31 13 0 14 2 2 6 -31 12 -43 62 -14 59 9 0 19 6 21 14 4 13 3 13 -7
0 -9 -11 -13 -12 -17 -2 -2 6 -10 9 -15 6 -6 -4 -9 -3 -5 2 3 5 17 10 31 10
24 2 26 -1 26 -40z"/>
<path fill="#ffffff" stroke="none" d="M198 168 c-2 -5 -7 -9 -11 -9 -4 1 -14
1 -23 1 -13 0 -14 3 -4 14 12 16 43 10 38 -6z"/>
<path fill="#ffffff" stroke="none" d="M60 130 c0 -5 -4 -10 -10 -10 -5 0 -10
5 -10 10 0 6 5 10 10 10 6 0 10 -4 10 -10z"/>
<path fill="#ffffff" stroke="none" d="M78 68 c2 -38 -11 -64 -27 -54 -18 11
-13 64 7 75 9 6 17 11 17 11 1 0 2 -15 3 -32z"/>
<path fill="#ffffff" stroke="none" d="M280 50 c0 -33 -18 -49 -31 -29 -5 8
-8 28 -7 46 2 27 5 30 20 22 11 -6 18 -21 18 -39z"/>
<path fill="#ffffff" stroke="none" d="M132 63 c4 -19 38 -24 50 -8 5 6 8 5 8
-3 0 -7 5 -10 12 -6 7 4 8 3 4 -5 -4 -6 -12 -9 -17 -6 -5 4 -9 0 -9 -7 0 -9
-3 -9 -10 2 -9 13 -11 13 -20 0 -7 -11 -10 -11 -10 -2 0 7 -5 10 -12 6 -7 -4
-8 -3 -4 4 4 7 1 12 -8 12 -9 0 -16 7 -16 15 0 21 28 19 32 -2z"/>
<path fill="#ffffff" stroke="none" d="M223 66 c4 -10 1 -13 -9 -9 -15 6 -19
23 -5 23 5 0 11 -7 14 -14z"/>
<path fill="#000000" stroke="none" d="M38 203 c7 -3 16 -2 19 1 4 3 -2 6 -13
5 -11 0 -14 -3 -6 -6z"/>
<path fill="#000000" stroke="none" d="M266 191 c-4 -5 -2 -12 3 -15 5 -4 12
-2 15 3 4 5 2 12 -3 15 -5 4 -12 2 -15 -3z"/>
</g>
</svg>
