<?xml version="1.0" standalone="no"?>
<!DOCTYPE svg PUBLIC "-//W3C//DTD SVG 20010904//EN"
 "http://www.w3.org/TR/2001/REC-SVG-20010904/DTD/svg10.dtd">
<svg version="1.0" xmlns="http://www.w3.org/2000/svg"
 width="32.000000pt" height="32.000000pt" viewBox="0 0 32.000000 32.000000"
 preserveAspectRatio="xMidYMid meet">
<metadata>
Created by potrace 1.16, written by Peter Selinger 2001-2019
</metadata>
<g transform="translate(0.000000,32.000000) scale(0.100000,-0.100000)"
fill="#000000" stroke="none">
<path fill="#000000" stroke="none" d="M190 295 c0 -8 7 -15 15 -15 8 0 15 7
15 15 0 8 -7 15 -15 15 -8 0 -15 -7 -15 -15z"/>
<path fill="#000000" stroke="none" d="M100 290 c0 -5 5 -10 10 -10 6 0 10 5
10 10 0 6 -4 10 -10 10 -5 0 -10 -4 -10 -10z"/>
<path fill="#000000" stroke="none" d="M105 235 c-26 -25 -37 -94 -13 -79 7 5
9 2 5 -9 -3 -9 1 -21 11 -29 15 -11 15 -11 5 2 -7 10 -8 21 -3 30 7 11 11 12
24 0 14 -11 16 -10 11 2 -4 10 5 27 21 43 26 26 26 29 10 40 -17 13 -16 13 1
18 10 3 3 5 -15 6 -23 1 -41 -7 -57 -24z"/>
<path fill="#000000" stroke="none" d="M22 191 c-3 -46 -1 -53 13 -47 9 3 19
6 21 6 2 0 4 5 4 10 0 5 -3 9 -8 7 -4 -1 -8 3 -9 8 -1 6 5 9 14 7 12 -3 13 3
8 29 -6 25 -4 30 6 24 8 -5 11 -4 6 0 -4 5 -17 9 -30 9 -20 1 -22 -4 -25 -53z"/>
<path fill="#ffffff" stroke="none" d="M57 204 c-3 -3 -12 -4 -19 -1 -8 3 -5
6 6 6 11 1 17 -2 13 -5z"/>
<path fill="#000000" stroke="none" d="M217 224 c16 -30 16 -32 -10 -59 -14
-16 -24 -32 -21 -36 2 -4 0 -10 -5 -14 -6 -3 -8 3 -6 15 2 11 0 20 -6 20 -5 0
-9 -9 -9 -19 0 -11 -8 -22 -17 -24 -10 -3 -3 -5 15 -6 68 -2 106 78 62 130
l-20 24 17 -31z"/>
<path fill="#000000" stroke="none" d="M243 236 c-4 -5 -1 -6 5 -2 5 3 13 0
15 -6 4 -10 8 -9 17 2 10 13 11 13 7 0 -2 -8 -12 -14 -21 -14 -29 3 -17 -47
14 -59 12 -4 11 -6 -2 -6 -21 -1 -25 -31 -4 -31 17 0 26 30 26 86 0 39 -2 42
-26 40 -14 0 -28 -5 -31 -10z"/>
<path fill="#ffffff" stroke="none" d="M284 179 c-3 -5 -10 -7 -15 -3 -5 3 -7
10 -3 15 3 5 10 7 15 3 5 -3 7 -10 3 -15z"/>
<path fill="#000000" stroke="none" d="M160 174 c-10 -11 -9 -14 4 -14 9 0 19
0 23 -1 4 0 9 4 11 9 5 16 -26 22 -38 6z"/>
<path fill="#000000" stroke="none" d="M40 130 c0 -5 5 -10 10 -10 6 0 10 5
10 10 0 6 -4 10 -10 10 -5 0 -10 -4 -10 -10z"/>
<path fill="#000000" stroke="none" d="M58 89 c-20 -11 -25 -64 -7 -75 16 -10
29 16 27 54 -1 17 -2 32 -3 32 0 0 -8 -5 -17 -11z"/>
<path fill="#000000" stroke="none" d="M242 67 c-2 -37 11 -63 27 -53 18 11
13 64 -7 75 -15 8 -18 5 -20 -22z"/>
<path fill="#000000" stroke="none" d="M100 65 c0 -8 7 -15 16 -15 9 0 12 -5
8 -12 -4 -7 -3 -8 4 -4 7 4 12 1 12 -6 0 -9 3 -9 10 2 9 13 11 13 20 0 7 -11
10 -11 10 -2 0 7 4 11 9 7 5 -3 13 0 17 6 4 8 3 9 -4 5 -7 -4 -12 -1 -12 6 0
8 -3 9 -8 3 -12 -16 -46 -11 -50 8 -4 21 -32 23 -32 2z"/>
<path fill="#000000" stroke="none" d="M200 71 c0 -5 7 -11 14 -14 10 -4 13
-1 9 9 -6 15 -23 19 -23 5z"/>
</g>
</svg>
