<?xml version="1.0" standalone="no"?>
<!DOCTYPE svg PUBLIC "-//W3C//DTD SVG 20010904//EN"
 "http://www.w3.org/TR/2001/REC-SVG-20010904/DTD/svg10.dtd">
<svg version="1.0" xmlns="http://www.w3.org/2000/svg"
 width="32.000000pt" height="32.000000pt" viewBox="0 0 32.000000 32.000000"
 preserveAspectRatio="xMidYMid meet">
<metadata>
Created by potrace 1.16, written by Peter Selinger 2001-2019
</metadata>
<g transform="translate(0.000000,32.000000) scale(0.100000,-0.100000)"
fill="#000000" stroke="none">
<path fill="#000000" stroke="none" d="M181 282 c-6 -12 -11 -27 -11 -34 0
-40 -26 -95 -62 -129 -21 -22 -38 -45 -35 -52 2 -7 -5 -18 -17 -25 -17 -11
-18 -12 -2 -8 10 4 26 1 34 -6 13 -11 15 -11 8 2 -4 8 0 6 9 -5 12 -14 19 -16
22 -8 3 9 10 10 23 3 34 -18 122 50 90 70 -8 5 -7 9 5 14 11 4 15 15 13 33 -3
25 -7 28 -45 31 -49 4 -50 8 -27 76 17 49 14 73 -5 38z"/>
<path fill="#ffffff" stroke="none" d="M244 144 c4 -11 1 -12 -12 -5 -22 12
-58 7 -55 -7 3 -13 -25 -24 -32 -12 -3 5 -2 18 4 28 7 14 19 17 50 14 22 -2
42 -10 45 -18z"/>
<path fill="#ffffff" stroke="none" d="M181 44 c5 -6 6 -14 2 -17 -14 -15 -19
-5 -20 36 0 23 1 31 4 17 3 -14 9 -30 14 -36z"/>
<path fill="#ffffff" stroke="none" d="M220 96 c0 -3 -4 -8 -10 -11 -5 -3 -10
-1 -10 4 0 6 5 11 10 11 6 0 10 -2 10 -4z"/>
</g>
</svg>
