<?xml version="1.0" standalone="no"?>
<!DOCTYPE svg PUBLIC "-//W3C//DTD SVG 20010904//EN"
 "http://www.w3.org/TR/2001/REC-SVG-20010904/DTD/svg10.dtd">
<svg version="1.0" xmlns="http://www.w3.org/2000/svg"
 width="32.000000pt" height="32.000000pt" viewBox="0 0 32.000000 32.000000"
 preserveAspectRatio="xMidYMid meet">
<metadata>
Created by potrace 1.16, written by Peter Selinger 2001-2019
</metadata>
<g transform="translate(0.000000,32.000000) scale(0.100000,-0.100000)"
fill="#000000" stroke="none">
<path fill="#000000" stroke="none" d="M0 160 l0 -160 160 0 160 0 0 160 0
160 -160 0 -160 0 0 -160z"/>
<path fill="#ffffff" stroke="none" d="M218 273 c25 -4 32 -10 32 -28 0 -13 7
-30 15 -39 12 -12 13 -24 5 -68 l-9 -53 4 52 c2 29 1 54 -3 57 -4 2 -9 -16
-10 -42 -1 -25 -7 -49 -13 -53 -15 -9 -41 0 -33 12 3 5 1 9 -5 9 -5 0 -13 -4
-16 -10 -3 -5 -1 -10 4 -10 6 0 11 -4 11 -10 0 -5 -6 -7 -14 -4 -8 3 -17 1
-21 -5 -6 -11 21 -11 40 1 6 3 19 2 30 -2 18 -7 18 -9 -8 -19 -41 -16 -129
-14 -154 4 -16 11 -23 12 -31 2 -8 -9 -4 -12 15 -14 14 0 28 -5 32 -10 3 -4
42 -9 86 -9 50 -1 73 1 60 6 -15 7 -10 9 23 9 31 1 42 -3 42 -14 0 -13 -22
-15 -140 -15 -124 0 -140 2 -140 17 0 9 7 25 17 35 9 10 12 18 7 18 -15 0 -13
118 3 124 7 3 13 17 13 31 0 19 5 25 23 25 12 0 29 5 37 10 8 6 26 8 40 5 14
-4 40 -9 58 -12z"/>
<path fill="#000000" stroke="none" d="M108 267 c-26 -7 -38 -16 -38 -28 0
-10 -6 -24 -13 -31 -14 -14 -16 -95 -3 -116 4 -7 12 -12 18 -12 6 0 6 6 -2 15
-17 20 -16 81 1 122 16 38 65 55 119 39 19 -5 36 -10 36 -10 1 -1 5 -11 8 -24
6 -19 2 -25 -25 -36 -23 -9 -28 -16 -18 -21 7 -5 14 -4 17 3 8 24 19 2 16 -29
-2 -18 -1 -29 4 -25 4 4 8 22 9 39 1 18 3 39 4 47 6 43 -1 57 -33 63 -18 3
-40 7 -48 10 -8 2 -32 0 -52 -6z"/>
<path fill="#000000" stroke="none" d="M96 218 c-27 -31 -34 -58 -15 -58 6 0
9 7 5 15 -3 9 0 15 8 15 8 0 17 12 21 28 4 15 10 21 12 15 5 -15 23 -18 23 -4
0 22 -30 16 -54 -11z"/>
<path fill="#000000" stroke="none" d="M167 243 c-4 -3 -7 -11 -7 -17 0 -8 3
-8 8 0 4 7 15 8 27 4 18 -7 18 -8 -7 -15 -30 -8 -38 -25 -13 -25 8 0 15 4 15
9 0 5 9 7 20 4 27 -7 25 12 -2 31 -25 18 -32 19 -41 9z"/>
<path fill="#000000" stroke="none" d="M120 200 c0 -5 7 -10 15 -10 8 0 15 5
15 10 0 6 -7 10 -15 10 -8 0 -15 -4 -15 -10z"/>
<path fill="#000000" stroke="none" d="M104 165 c-4 -8 -12 -15 -20 -15 -8 0
-14 -4 -14 -10 0 -5 6 -10 14 -10 8 0 16 -7 20 -15 7 -20 65 -20 72 0 4 8 12
15 20 15 8 0 14 5 14 10 0 6 -6 10 -14 10 -8 0 -16 7 -20 15 -7 20 -65 20 -72
0z"/>
<path fill="#000000" stroke="none" d="M88 97 c22 -24 62 -33 62 -15 0 6 -9 8
-20 5 -14 -4 -25 1 -33 14 -6 10 -16 19 -21 19 -5 0 0 -10 12 -23z"/>
</g>
</svg>
