<?xml version="1.0" standalone="no"?>
<!DOCTYPE svg PUBLIC "-//W3C//DTD SVG 20010904//EN"
 "http://www.w3.org/TR/2001/REC-SVG-20010904/DTD/svg10.dtd">
<svg version="1.0" xmlns="http://www.w3.org/2000/svg"
 width="32.000000pt" height="32.000000pt" viewBox="0 0 32.000000 32.000000"
 preserveAspectRatio="xMidYMid meet">
<metadata>
Created by potrace 1.16, written by Peter Selinger 2001-2019
</metadata>
<g transform="translate(0.000000,32.000000) scale(0.100000,-0.100000)"
fill="#000000" stroke="none">
<path fill="#000000" stroke="none" d="M0 160 l0 -160 160 0 160 0 0 160 0
160 -160 0 -160 0 0 -160z"/>
<path fill="#ffffff" stroke="none" d="M298 240 c-1 -23 -9 -46 -17 -53 -12
-9 -13 -9 -7 1 4 6 2 12 -3 12 -6 0 -12 -8 -12 -17 -1 -15 -2 -14 -7 2 l-5 20
-8 -20 c-6 -15 -8 -16 -8 -4 -1 16 -28 30 -61 32 -8 1 -18 7 -23 14 -4 6 -16
10 -27 8 -11 -2 -20 0 -20 6 0 11 -5 10 94 13 51 2 81 7 84 14 9 28 23 9 20
-28z"/>
<path fill="#ffffff" stroke="none" d="M88 243 c2 -7 -2 -13 -8 -13 -7 0 -9
-9 -5 -22 6 -22 5 -22 -9 -4 -9 10 -13 23 -10 27 3 5 -2 9 -11 9 -9 0 -14 4
-11 9 8 13 49 8 54 -6z"/>
<path fill="#ffffff" stroke="none" d="M42 211 c-5 -3 -12 -15 -15 -26 -4 -16
-5 -15 -6 6 -1 29 7 41 21 32 7 -3 7 -8 0 -12z"/>
<path fill="#ffffff" stroke="none" d="M130 206 c0 -2 -7 -7 -16 -10 -8 -3
-12 -2 -9 4 6 10 25 14 25 6z"/>
<path fill="#ffffff" stroke="none" d="M197 180 c4 -13 3 -13 -6 0 -10 13 -11
13 -11 0 0 -12 -2 -13 -9 -1 -7 11 -9 11 -14 0 -4 -10 -6 -8 -6 4 -1 23 40 20
46 -3z"/>
<path fill="#ffffff" stroke="none" d="M296 127 c4 -4 -54 -7 -130 -7 -75 0
-135 -4 -132 -8 3 -5 19 -8 36 -7 16 1 30 -2 30 -7 0 -5 -8 -8 -17 -7 -10 1
-27 1 -38 0 -17 -1 -18 -3 -5 -11 8 -6 27 -7 43 -4 15 3 27 1 27 -4 0 -5 -6
-10 -12 -9 -37 1 -71 -4 -65 -10 4 -3 63 -7 131 -7 68 -1 128 -4 132 -9 4 -4
2 -7 -4 -7 -22 0 -27 -2 -39 -12 -9 -7 -13 -7 -13 1 0 6 -5 11 -11 11 -5 0 -7
-6 -3 -12 5 -9 2 -9 -9 1 -13 10 -17 10 -17 1 0 -8 -4 -9 -12 -3 -15 12 -98
10 -118 -2 -9 -5 -11 -4 -6 3 9 15 -35 12 -47 -3 -5 -6 -6 -2 -3 8 3 10 6 40
6 66 l0 47 134 -1 c74 0 138 -4 142 -8z"/>
<path fill="#ffffff" stroke="none" d="M134 102 c3 -5 -1 -9 -9 -9 -8 0 -15 4
-15 9 0 10 17 10 24 0z"/>
<path fill="#ffffff" stroke="none" d="M175 100 c3 -5 -1 -10 -9 -10 -9 0 -16
5 -16 10 0 6 4 10 9 10 6 0 13 -4 16 -10z"/>
<path fill="#ffffff" stroke="none" d="M224 101 c4 -5 -1 -8 -9 -7 -21 3 -31
16 -12 16 9 0 18 -4 21 -9z"/>
<path fill="#ffffff" stroke="none" d="M290 101 c0 -5 -12 -8 -26 -8 -18 0
-22 2 -13 8 18 11 39 11 39 0z"/>
<path fill="#ffffff" stroke="none" d="M224 71 c-8 -8 -104 -9 -99 -1 2 4 27
7 54 7 28 -1 48 -3 45 -6z"/>
<path fill="#ffffff" stroke="none" d="M290 64 c0 -2 -7 -4 -15 -4 -8 0 -15 4
-15 10 0 5 7 7 15 4 8 -4 15 -8 15 -10z"/>
<path fill="#000000" stroke="none" d="M266 231 c-3 -5 -19 -7 -36 -6 -16 1
-30 -1 -30 -6 0 -5 16 -9 35 -9 19 0 35 5 35 11 0 5 5 7 12 3 7 -4 8 -3 4 4
-9 14 -13 15 -20 3z"/>
</g>
</svg>
