<?xml version="1.0" standalone="no"?>
<!DOCTYPE svg PUBLIC "-//W3C//DTD SVG 20010904//EN"
 "http://www.w3.org/TR/2001/REC-SVG-20010904/DTD/svg10.dtd">
<svg version="1.0" xmlns="http://www.w3.org/2000/svg"
 width="32.000000pt" height="32.000000pt" viewBox="0 0 32.000000 32.000000"
 preserveAspectRatio="xMidYMid meet">
<metadata>
Created by potrace 1.16, written by Peter Selinger 2001-2019
</metadata>
<g transform="translate(0.000000,32.000000) scale(0.100000,-0.100000)"
fill="#000000" stroke="none">
<path fill="#000000" stroke="none" d="M0 160 l0 -160 160 0 160 0 0 160 0
160 -160 0 -160 0 0 -160z"/>
<path fill="#ffffff" stroke="none" d="M185 301 c3 -5 0 -13 -6 -17 -8 -4 -9
-3 -5 4 12 19 -30 14 -45 -5 -13 -16 -12 -17 4 -4 9 8 21 10 25 6 4 -4 1 -10
-6 -12 -6 -3 -10 -9 -6 -14 3 -5 2 -14 -2 -20 -12 -19 -34 33 -23 53 10 19 54
25 64 9z"/>
<path fill="#ffffff" stroke="none" d="M191 242 c-15 -29 -14 -40 7 -44 9 -2
-12 -4 -48 -4 -36 0 -53 1 -39 3 17 3 29 12 32 25 4 13 11 19 21 15 9 -4 17 1
21 14 4 11 9 18 12 16 2 -3 0 -14 -6 -25z"/>
<path fill="#ffffff" stroke="none" d="M120 240 c0 -5 -5 -10 -11 -10 -5 0 -7
5 -4 10 3 6 8 10 11 10 2 0 4 -4 4 -10z"/>
<path fill="#ffffff" stroke="none" d="M123 213 c-7 -2 -19 -2 -25 0 -7 3 -2
5 12 5 14 0 19 -2 13 -5z"/>
<path fill="#ffffff" stroke="none" d="M217 214 c-3 -3 -12 -4 -19 -1 -8 3 -5
6 6 6 11 1 17 -2 13 -5z"/>
<path fill="#ffffff" stroke="none" d="M110 170 c1 12 3 11 11 -3 6 -10 8 -37
5 -60 -4 -31 -3 -36 3 -17 8 21 9 22 10 5 0 -11 -3 -26 -8 -34 -7 -11 -12 -4
-19 25 -20 80 -23 100 -12 84 9 -13 10 -13 10 0z"/>
<path fill="#ffffff" stroke="none" d="M183 110 l6 -35 -14 40 c-14 37 -15 38
-10 8 6 -46 -5 -93 -22 -93 -11 0 -13 5 -7 18 4 9 7 33 7 52 -1 19 0 46 3 59
5 23 6 23 18 5 8 -10 16 -35 19 -54z"/>
<path fill="#ffffff" stroke="none" d="M201 144 c-5 -16 -10 -21 -10 -12 -1
18 10 51 15 45 2 -1 -1 -16 -5 -33z"/>
<path fill="#ffffff" stroke="none" d="M190 37 c0 -5 -4 -5 -10 -2 -5 3 -10
14 -10 23 0 15 2 15 10 2 5 -8 10 -19 10 -23z"/>
<path fill="#ffffff" stroke="none" d="M160 17 c33 -4 33 -4 -7 -5 -35 -2 -43
1 -43 16 0 11 3 13 8 5 4 -6 23 -13 42 -16z"/>
<path fill="#000000" stroke="none" d="M156 215 c-3 -8 -1 -15 4 -15 6 0 10 7
10 15 0 8 -2 15 -4 15 -2 0 -6 -7 -10 -15z"/>
<path fill="#000000" stroke="none" d="M112 135 c0 -16 2 -22 5 -12 2 9 2 23
0 30 -3 6 -5 -1 -5 -18z"/>
</g>
</svg>
