<?xml version="1.0" standalone="no"?>
<!DOCTYPE svg PUBLIC "-//W3C//DTD SVG 20010904//EN"
 "http://www.w3.org/TR/2001/REC-SVG-20010904/DTD/svg10.dtd">
<svg version="1.0" xmlns="http://www.w3.org/2000/svg"
 width="32.000000pt" height="32.000000pt" viewBox="0 0 32.000000 32.000000"
 preserveAspectRatio="xMidYMid meet">
<metadata>
Created by potrace 1.16, written by Peter Selinger 2001-2019
</metadata>
<g transform="translate(0.000000,32.000000) scale(0.100000,-0.100000)"
fill="#000000" stroke="none">
<path fill="#000000" stroke="none" d="M280 261 c0 -39 -11 -51 -49 -52 -20
-1 -28 -3 -18 -6 9 -2 17 -10 17 -16 0 -8 3 -8 9 1 4 8 11 13 15 13 20 -3 26
1 26 14 0 8 5 15 10 15 6 0 10 11 10 25 0 14 -4 25 -10 25 -5 0 -10 -9 -10
-19z"/>
<path fill="#000000" stroke="none" d="M46 250 c-18 -6 -18 -7 5 -13 32 -9 39
-9 39 2 0 13 -23 19 -44 11z"/>
<path fill="#000000" stroke="none" d="M208 252 c-43 -2 -58 -7 -58 -18 0 -12
10 -13 53 -8 46 6 79 19 66 26 -2 2 -30 2 -61 0z"/>
<path fill="#000000" stroke="none" d="M26 223 c-3 -3 -5 -18 -5 -32 1 -21 2
-22 6 -6 3 11 10 23 15 26 7 4 7 9 0 12 -5 4 -12 4 -16 0z"/>
<path fill="#000000" stroke="none" d="M60 211 c0 -5 5 -13 10 -16 6 -3 10 -2
10 4 0 5 -4 13 -10 16 -5 3 -10 2 -10 -4z"/>
<path fill="#000000" stroke="none" d="M158 193 c6 -2 18 -2 25 0 6 3 1 5 -13
5 -14 0 -19 -2 -12 -5z"/>
<path fill="#000000" stroke="none" d="M40 130 c0 -5 5 -10 11 -10 5 0 7 5 4
10 -3 6 -8 10 -11 10 -2 0 -4 -4 -4 -10z"/>
<path fill="#000000" stroke="none" d="M265 130 c-3 -5 -1 -10 4 -10 6 0 11 5
11 10 0 6 -2 10 -4 10 -3 0 -8 -4 -11 -10z"/>
<path fill="#000000" stroke="none" d="M88 123 c7 -3 16 -2 19 1 4 3 -2 6 -13
5 -11 0 -14 -3 -6 -6z"/>
<path fill="#000000" stroke="none" d="M178 123 c12 -2 32 -2 45 0 12 2 2 4
-23 4 -25 0 -35 -2 -22 -4z"/>
<path fill="#000000" stroke="none" d="M45 100 c-3 -6 1 -7 9 -4 18 7 21 14 7
14 -6 0 -13 -4 -16 -10z"/>
<path fill="#000000" stroke="none" d="M155 100 c3 -5 8 -10 11 -10 2 0 4 5 4
10 0 6 -5 10 -11 10 -5 0 -7 -4 -4 -10z"/>
<path fill="#000000" stroke="none" d="M266 98 c3 -5 10 -6 15 -3 13 9 11 12
-6 12 -8 0 -12 -4 -9 -9z"/>
<path fill="#000000" stroke="none" d="M40 70 c0 -6 7 -10 15 -10 19 0 19 6 0
14 -8 3 -15 1 -15 -4z"/>
<path fill="#000000" stroke="none" d="M95 70 c3 -5 8 -10 11 -10 2 0 4 5 4
10 0 6 -5 10 -11 10 -5 0 -7 -4 -4 -10z"/>
<path fill="#000000" stroke="none" d="M185 70 c3 -5 8 -10 11 -10 2 0 4 5 4
10 0 6 -5 10 -11 10 -5 0 -7 -4 -4 -10z"/>
<path fill="#000000" stroke="none" d="M15 32 c-3 -8 -3 -17 0 -20 3 -3 5 0 5
6 0 9 40 12 142 12 78 0 138 3 135 7 -4 3 -67 7 -142 8 -109 1 -135 -2 -140
-13z"/>
</g>
</svg>
