<?xml version="1.0" standalone="no"?>
<!DOCTYPE svg PUBLIC "-//W3C//DTD SVG 20010904//EN"
 "http://www.w3.org/TR/2001/REC-SVG-20010904/DTD/svg10.dtd">
<svg version="1.0" xmlns="http://www.w3.org/2000/svg"
 width="32.000000pt" height="32.000000pt" viewBox="0 0 32.000000 32.000000"
 preserveAspectRatio="xMidYMid meet">
<metadata>
Created by potrace 1.16, written by Peter Selinger 2001-2019
</metadata>
<g transform="translate(0.000000,32.000000) scale(0.100000,-0.100000)"
fill="#000000" stroke="none">
<path fill="#000000" stroke="none" d="M0 160 l0 -160 160 0 160 0 0 160 0
160 -160 0 -160 0 0 -160z"/>
<path fill="#ffffff" stroke="none" d="M79 274 c2 -2 -3 -4 -12 -4 -9 0 -17
-4 -17 -10 0 -5 -7 -7 -15 -4 -8 4 -15 12 -15 20 0 11 7 13 28 8 15 -4 29 -8
31 -10z"/>
<path fill="#ffffff" stroke="none" d="M147 274 c-3 -3 -12 -4 -19 -1 -8 3 -5
6 6 6 11 1 17 -2 13 -5z"/>
<path fill="#ffffff" stroke="none" d="M125 250 c-3 -5 -11 -10 -16 -10 -6 0
-7 5 -4 10 3 6 11 10 16 10 6 0 7 -4 4 -10z"/>
<path fill="#ffffff" stroke="none" d="M227 244 c2 -6 -8 -16 -21 -24 -21 -11
-27 -10 -40 2 -11 12 -12 18 -3 27 14 14 59 11 64 -5z"/>
<path fill="#ffffff" stroke="none" d="M185 130 c-3 -5 -12 -10 -18 -10 -7 0
-6 4 3 10 19 12 23 12 15 0z"/>
<path fill="#ffffff" stroke="none" d="M184 104 c33 -13 11 -64 -28 -64 -18 0
-18 1 -2 19 11 12 14 21 7 26 -27 16 -8 31 23 19z"/>
<path fill="#ffffff" stroke="none" d="M294 45 c-3 -8 -12 -11 -19 -9 -8 3
-11 12 -9 19 3 8 12 11 19 9 8 -3 11 -12 9 -19z"/>
</g>
</svg>
