<?xml version="1.0" standalone="no"?>
<!DOCTYPE svg PUBLIC "-//W3C//DTD SVG 20010904//EN"
 "http://www.w3.org/TR/2001/REC-SVG-20010904/DTD/svg10.dtd">
<svg version="1.0" xmlns="http://www.w3.org/2000/svg"
 width="32.000000pt" height="32.000000pt" viewBox="0 0 32.000000 32.000000"
 preserveAspectRatio="xMidYMid meet">
<metadata>
Created by potrace 1.16, written by Peter Selinger 2001-2019
</metadata>
<g transform="translate(0.000000,32.000000) scale(0.100000,-0.100000)"
fill="#000000" stroke="none">
<path fill="#000000" stroke="none" d="M0 160 l0 -160 160 0 160 0 0 160 0
160 -160 0 -160 0 0 -160z"/>
<path fill="#ffffff" stroke="none" d="M35 290 c3 -5 1 -10 -4 -10 -6 0 -11 5
-11 10 0 6 2 10 4 10 3 0 8 -4 11 -10z"/>
<path fill="#ffffff" stroke="none" d="M147 284 c-3 -3 -12 -4 -19 -1 -8 3 -5
6 6 6 11 1 17 -2 13 -5z"/>
<path fill="#ffffff" stroke="none" d="M268 263 c30 -26 38 -62 15 -70 -10 -4
-20 -10 -23 -14 -10 -13 -70 -21 -70 -9 0 6 5 8 11 5 6 -4 5 2 -2 13 -11 17
-10 24 2 38 8 9 13 25 11 36 -4 24 29 24 56 1z"/>
<path fill="#ffffff" stroke="none" d="M95 250 c0 -8 4 -21 9 -28 5 -9 3 -19
-6 -28 -22 -22 -80 3 -72 31 4 11 11 26 17 33 14 17 52 11 52 -8z"/>
<path fill="#ffffff" stroke="none" d="M181 141 c19 -24 26 -27 38 -18 12 10
13 9 3 -10 -15 -27 2 -41 18 -16 10 16 10 16 5 -4 -4 -15 1 -26 16 -37 13 -9
19 -19 15 -23 -4 -4 -10 -2 -14 4 -9 14 -27 5 -34 -17 -3 -9 -10 -1 -17 23 -7
20 -18 37 -26 37 -11 0 -37 47 -41 78 -4 21 13 13 37 -17z"/>
<path fill="#ffffff" stroke="none" d="M46 130 c0 -9 -7 -16 -16 -16 -9 0 -16
7 -16 16 0 9 7 16 16 16 9 0 16 -7 16 -16z"/>
<path fill="#ffffff" stroke="none" d="M134 116 c12 5 15 2 10 -10 -8 -22 -17
-20 -40 6 -12 15 -13 18 -3 10 9 -7 24 -10 33 -6z"/>
<path fill="#ffffff" stroke="none" d="M112 48 c-5 -21 -7 -21 -33 -7 -22 11
-15 33 8 24 14 -5 14 -3 2 11 -13 16 -12 16 7 4 13 -8 20 -20 16 -32z"/>
<path fill="#ffffff" stroke="none" d="M54 22 c2 -4 -4 -8 -14 -8 -10 0 -16 4
-14 8 7 10 21 10 28 0z"/>
</g>
</svg>
