<?xml version="1.0" standalone="no"?>
<!DOCTYPE svg PUBLIC "-//W3C//DTD SVG 20010904//EN"
 "http://www.w3.org/TR/2001/REC-SVG-20010904/DTD/svg10.dtd">
<svg version="1.0" xmlns="http://www.w3.org/2000/svg"
 width="32.000000pt" height="32.000000pt" viewBox="0 0 32.000000 32.000000"
 preserveAspectRatio="xMidYMid meet">
<metadata>
Created by potrace 1.16, written by Peter Selinger 2001-2019
</metadata>
<g transform="translate(0.000000,32.000000) scale(0.100000,-0.100000)"
fill="#000000" stroke="none">
<path fill="#000000" stroke="none" d="M70 261 c0 -20 20 -61 29 -61 6 0 15 9
21 19 7 15 6 23 -6 35 -17 18 -44 21 -44 7z"/>
<path fill="#000000" stroke="none" d="M119 183 c-13 -16 -12 -17 4 -4 9 7 17
15 17 17 0 8 -8 3 -21 -13z"/>
<path fill="#000000" stroke="none" d="M145 180 c-4 -6 -21 -20 -39 -31 -20
-12 -25 -19 -14 -19 20 0 76 46 67 55 -4 3 -10 1 -14 -5z"/>
<path fill="#000000" stroke="none" d="M154 149 c-6 -10 16 -41 46 -66 8 -7
11 -13 5 -13 -14 0 17 -20 32 -20 21 0 36 39 22 56 -10 12 -14 12 -20 2 -7
-11 -9 -11 -9 0 0 7 -4 10 -10 7 -5 -3 -10 0 -10 8 0 18 -47 40 -56 26z"/>
<path fill="#000000" stroke="none" d="M130 29 c0 -5 5 -7 10 -4 6 3 10 8 10
11 0 2 -4 4 -10 4 -5 0 -10 -5 -10 -11z"/>
<path fill="#000000" stroke="none" d="M168 33 c7 -3 16 -2 19 1 4 3 -2 6 -13
5 -11 0 -14 -3 -6 -6z"/>
</g>
</svg>
