<?xml version="1.0" standalone="no"?>
<!DOCTYPE svg PUBLIC "-//W3C//DTD SVG 20010904//EN"
 "http://www.w3.org/TR/2001/REC-SVG-20010904/DTD/svg10.dtd">
<svg version="1.0" xmlns="http://www.w3.org/2000/svg"
 width="32.000000pt" height="32.000000pt" viewBox="0 0 32.000000 32.000000"
 preserveAspectRatio="xMidYMid meet">
<metadata>
Created by potrace 1.16, written by Peter Selinger 2001-2019
</metadata>
<g transform="translate(0.000000,32.000000) scale(0.100000,-0.100000)"
fill="#000000" stroke="none">
<path fill="#000000" stroke="none" d="M0 160 l0 -160 160 0 160 0 0 160 0
160 -160 0 -160 0 0 -160z"/>
<path fill="#ffffff" stroke="none" d="M35 290 c3 -5 1 -10 -4 -10 -6 0 -11 5
-11 10 0 6 2 10 4 10 3 0 8 -4 11 -10z"/>
<path fill="#ffffff" stroke="none" d="M147 284 c-3 -3 -12 -4 -19 -1 -8 3 -5
6 6 6 11 1 17 -2 13 -5z"/>
<path fill="#ffffff" stroke="none" d="M95 259 c12 -19 -5 -23 -22 -6 -16 16
-16 17 -1 17 9 0 20 -5 23 -11z"/>
<path fill="#ffffff" stroke="none" d="M278 258 c21 -28 24 -58 5 -65 -10 -4
-21 -11 -25 -17 -4 -6 -15 -6 -33 2 -23 11 -24 14 -13 34 6 13 13 28 14 33 0
6 2 13 2 18 3 12 39 8 50 -5z"/>
<path fill="#ffffff" stroke="none" d="M70 229 c0 -6 7 -9 15 -6 21 9 30 -12
13 -29 -15 -15 -52 -9 -42 7 3 5 -2 6 -10 3 -16 -6 -23 16 -9 29 10 11 33 8
33 -4z"/>
<path fill="#ffffff" stroke="none" d="M198 93 c-16 -19 -22 -16 -38 20 -24
55 -20 63 14 27 24 -25 31 -39 24 -47z"/>
<path fill="#ffffff" stroke="none" d="M46 130 c0 -9 -7 -16 -16 -16 -9 0 -16
7 -16 16 0 9 7 16 16 16 9 0 16 -7 16 -16z"/>
<path fill="#ffffff" stroke="none" d="M134 116 c12 5 15 2 10 -10 -8 -22 -17
-20 -40 6 -12 15 -13 18 -3 10 9 -7 24 -10 33 -6z"/>
<path fill="#ffffff" stroke="none" d="M103 54 c-6 -16 -29 -19 -38 -4 -4 6
-3 10 2 9 4 -1 14 -1 22 0 11 1 11 4 0 19 -13 15 -12 16 3 4 9 -8 14 -20 11
-28z"/>
<path fill="#ffffff" stroke="none" d="M230 75 c-11 -13 -10 -15 1 -11 17 7
56 -21 44 -31 -4 -5 -10 -3 -12 4 -6 17 -33 4 -34 -16 0 -9 -6 -3 -14 14 -11
25 -11 31 4 42 22 17 26 16 11 -2z"/>
<path fill="#ffffff" stroke="none" d="M54 22 c2 -4 -4 -8 -14 -8 -10 0 -16 4
-14 8 7 10 21 10 28 0z"/>
<path fill="#000000" stroke="none" d="M75 200 c-3 -6 1 -7 9 -4 18 7 21 14 7
14 -6 0 -13 -4 -16 -10z"/>
</g>
</svg>
