<?xml version="1.0" standalone="no"?>
<!DOCTYPE svg PUBLIC "-//W3C//DTD SVG 20010904//EN"
 "http://www.w3.org/TR/2001/REC-SVG-20010904/DTD/svg10.dtd">
<svg version="1.0" xmlns="http://www.w3.org/2000/svg"
 width="32.000000pt" height="32.000000pt" viewBox="0 0 32.000000 32.000000"
 preserveAspectRatio="xMidYMid meet">
<metadata>
Created by potrace 1.16, written by Peter Selinger 2001-2019
</metadata>
<g transform="translate(0.000000,32.000000) scale(0.100000,-0.100000)"
fill="#000000" stroke="none">
<path fill="#000000" stroke="none" d="M0 160 l0 -160 160 0 160 0 0 160 0
160 -160 0 -160 0 0 -160z"/>
<path fill="#ffffff" stroke="none" d="M180 275 c9 -29 16 -35 31 -30 12 4 21
1 25 -9 8 -22 34 -20 35 2 1 16 2 16 6 0 2 -10 12 -19 21 -19 15 -1 15 -2 0
-6 -21 -5 -24 -29 -5 -36 9 -4 8 -8 -3 -16 -9 -6 -18 -7 -24 -1 -6 6 -19 10
-30 10 -20 0 -20 0 0 -15 10 -8 13 -15 7 -15 -7 0 -12 -10 -10 -22 2 -26 -23
-32 -31 -8 -5 13 -3 13 14 0 10 -8 4 2 -15 23 -27 28 -38 34 -48 26 -7 -6 -13
-14 -13 -16 0 -3 6 0 13 6 11 9 17 3 27 -29 7 -21 20 -41 29 -44 9 -2 3 -4
-13 -3 -25 2 -31 -3 -38 -30 -8 -33 -9 -33 -68 -33 -48 0 -60 3 -60 16 0 13
10 15 60 12 33 -1 60 -3 60 -2 0 1 -5 15 -11 32 -10 28 -14 31 -42 25 -46 -8
-46 -13 -1 -14 21 -1 31 -3 21 -6 -9 -2 -15 -9 -12 -14 4 -5 -8 -9 -24 -9 -24
0 -31 4 -31 20 0 11 -5 20 -10 20 -6 0 -5 6 2 14 9 10 15 11 20 2 6 -8 11 -7
18 4 15 23 12 28 -25 40 -44 15 -44 25 0 40 31 10 34 15 29 37 -6 24 -5 25 19
19 22 -5 27 -2 37 29 15 44 25 44 40 0z"/>
<path fill="#ffffff" stroke="none" d="M259 77 c-2 -1 -12 -9 -22 -16 -15 -12
-17 -12 -11 3 3 9 13 16 22 16 8 0 13 -1 11 -3z"/>
<path fill="#ffffff" stroke="none" d="M207 34 c-3 -3 -12 -4 -19 -1 -8 3 -5
6 6 6 11 1 17 -2 13 -5z"/>
<path fill="#ffffff" stroke="none" d="M234 25 c-4 -8 -10 -15 -15 -15 -4 0
-6 7 -3 15 4 8 10 15 15 15 4 0 6 -7 3 -15z"/>
<path fill="#ffffff" stroke="none" d="M279 37 c-2 -1 -12 -9 -22 -16 -15 -12
-17 -12 -11 3 3 9 13 16 22 16 8 0 13 -1 11 -3z"/>
<path fill="#000000" stroke="none" d="M209 223 c-13 -16 -12 -17 4 -4 9 7 17
15 17 17 0 8 -8 3 -21 -13z"/>
<path fill="#000000" stroke="none" d="M100 207 c0 -8 7 -17 15 -21 8 -3 15
-2 15 3 0 5 -7 14 -15 21 -12 10 -15 10 -15 -3z"/>
<path fill="#000000" stroke="none" d="M230 210 c0 -7 24 -20 36 -20 13 0 1
19 -16 23 -11 3 -20 2 -20 -3z"/>
<path fill="#000000" stroke="none" d="M105 150 c-3 -5 -2 -10 4 -10 5 0 13 5
16 10 3 6 2 10 -4 10 -5 0 -13 -4 -16 -10z"/>
<path fill="#000000" stroke="none" d="M53 23 c9 -2 23 -2 30 0 6 3 -1 5 -18
5 -16 0 -22 -2 -12 -5z"/>
<path fill="#000000" stroke="none" d="M108 23 c6 -2 18 -2 25 0 6 3 1 5 -13
5 -14 0 -19 -2 -12 -5z"/>
</g>
</svg>
