<?xml version="1.0" standalone="no"?>
<!DOCTYPE svg PUBLIC "-//W3C//DTD SVG 20010904//EN"
 "http://www.w3.org/TR/2001/REC-SVG-20010904/DTD/svg10.dtd">
<svg version="1.0" xmlns="http://www.w3.org/2000/svg"
 width="32.000000pt" height="32.000000pt" viewBox="0 0 32.000000 32.000000"
 preserveAspectRatio="xMidYMid meet">
<metadata>
Created by potrace 1.16, written by Peter Selinger 2001-2019
</metadata>
<g transform="translate(0.000000,32.000000) scale(0.100000,-0.100000)"
fill="#000000" stroke="none">
<path fill="#000000" stroke="none" d="M140 275 c-10 -30 -15 -34 -36 -29 -18
5 -24 2 -24 -10 0 -22 -17 -20 -23 2 -4 15 -5 15 -6 0 0 -9 -9 -19 -19 -21
-16 -4 -16 -5 1 -6 21 -1 23 -19 2 -27 -24 -10 -17 -22 20 -34 31 -10 34 -15
29 -37 -6 -24 -5 -25 19 -19 22 5 27 2 37 -29 6 -19 15 -35 20 -35 5 0 14 16
20 35 10 31 15 34 37 29 24 -6 25 -5 19 19 -5 22 -2 27 29 37 19 6 35 15 35
20 0 5 -16 14 -35 20 -31 10 -34 15 -29 37 6 24 5 25 -19 19 -22 -5 -27 -2
-37 29 -6 19 -15 35 -20 35 -5 0 -14 -16 -20 -35z"/>
<path fill="#ffffff" stroke="none" d="M90 206 c0 -2 -7 -6 -15 -10 -8 -3 -15
-1 -15 4 0 6 7 10 15 10 8 0 15 -2 15 -4z"/>
<path fill="#000000" stroke="none" d="M262 104 c-9 -10 -9 -14 1 -17 7 -3 -6
-6 -29 -6 -29 -1 -41 -5 -41 -16 0 -11 11 -15 39 -15 21 0 38 4 38 9 0 5 6 16
13 23 11 10 11 16 3 24 -8 8 -15 7 -24 -2z"/>
<path fill="#000000" stroke="none" d="M45 63 c-33 -50 -26 -53 115 -53 109 0
130 2 130 15 0 19 -106 22 -113 2 -3 -9 -9 -9 -28 0 -13 7 -33 14 -44 16 -18
4 -18 5 3 6 36 2 26 28 -13 33 -28 3 -38 -1 -50 -19z"/>
</g>
</svg>
