<?xml version="1.0" standalone="no"?>
<!DOCTYPE svg PUBLIC "-//W3C//DTD SVG 20010904//EN"
 "http://www.w3.org/TR/2001/REC-SVG-20010904/DTD/svg10.dtd">
<svg version="1.0" xmlns="http://www.w3.org/2000/svg"
 width="32.000000pt" height="32.000000pt" viewBox="0 0 32.000000 32.000000"
 preserveAspectRatio="xMidYMid meet">
<metadata>
Created by potrace 1.16, written by Peter Selinger 2001-2019
</metadata>
<g transform="translate(0.000000,32.000000) scale(0.100000,-0.100000)"
fill="#000000" stroke="none">
<path fill="#000000" stroke="none" d="M140 275 c-10 -30 -15 -34 -36 -29 -18
5 -24 2 -24 -10 0 -22 -17 -20 -23 2 -4 15 -5 15 -6 0 0 -9 -9 -19 -19 -21
-16 -4 -16 -5 1 -6 21 -1 23 -19 2 -27 -24 -10 -17 -22 20 -34 31 -10 34 -15
29 -37 -6 -24 -5 -25 19 -19 22 5 27 2 36 -26 6 -17 11 -31 11 -32 0 -1 -27 1
-60 2 -50 3 -60 1 -60 -12 0 -13 12 -16 60 -16 59 0 60 0 68 33 7 27 13 32 38
30 16 -1 22 1 13 3 -9 3 -22 23 -29 44 -10 32 -16 38 -27 29 -7 -6 -13 -9 -13
-6 0 2 6 10 13 16 10 8 21 2 48 -26 19 -21 25 -31 15 -23 -17 13 -19 13 -14 0
8 -24 33 -18 31 8 -2 12 3 22 10 22 6 0 3 7 -7 15 -19 15 -19 15 1 15 12 0 24
-4 28 -10 6 -10 35 -2 35 10 0 5 -16 14 -35 20 -27 9 -34 16 -32 33 2 17 -3
22 -20 20 -17 -2 -24 5 -33 32 -15 44 -25 44 -40 0z"/>
<path fill="#ffffff" stroke="none" d="M230 236 c0 -2 -8 -10 -17 -17 -16 -13
-17 -12 -4 4 13 16 21 21 21 13z"/>
<path fill="#ffffff" stroke="none" d="M130 189 c0 -5 -7 -6 -15 -3 -8 4 -15
13 -15 21 0 13 3 13 15 3 8 -7 15 -16 15 -21z"/>
<path fill="#ffffff" stroke="none" d="M90 206 c0 -2 -7 -6 -15 -10 -8 -3 -15
-1 -15 4 0 6 7 10 15 10 8 0 15 -2 15 -4z"/>
<path fill="#ffffff" stroke="none" d="M125 150 c-3 -5 -11 -10 -16 -10 -6 0
-7 5 -4 10 3 6 11 10 16 10 6 0 7 -4 4 -10z"/>
<path fill="#ffffff" stroke="none" d="M83 23 c-7 -2 -21 -2 -30 0 -10 3 -4 5
12 5 17 0 24 -2 18 -5z"/>
<path fill="#ffffff" stroke="none" d="M133 23 c-7 -2 -19 -2 -25 0 -7 3 -2 5
12 5 14 0 19 -2 13 -5z"/>
<path fill="#000000" stroke="none" d="M264 106 c-8 -8 -7 -15 0 -22 8 -8 15
-7 22 0 8 8 7 15 0 22 -8 8 -15 7 -22 0z"/>
<path fill="#000000" stroke="none" d="M50 65 c0 -10 10 -15 31 -15 16 0 28 4
24 9 -3 5 3 12 12 14 10 3 -1 5 -24 6 -32 1 -43 -3 -43 -14z"/>
<path fill="#000000" stroke="none" d="M226 64 c-6 -15 -4 -15 11 -3 10 7 20
15 22 16 2 2 -3 3 -11 3 -9 0 -19 -7 -22 -16z"/>
<path fill="#000000" stroke="none" d="M188 33 c7 -3 16 -2 19 1 4 3 -2 6 -13
5 -11 0 -14 -3 -6 -6z"/>
<path fill="#000000" stroke="none" d="M216 25 c-3 -8 -1 -15 3 -15 5 0 11 7
15 15 3 8 1 15 -3 15 -5 0 -11 -7 -15 -15z"/>
<path fill="#000000" stroke="none" d="M246 24 c-6 -15 -4 -15 11 -3 10 7 20
15 22 16 2 2 -3 3 -11 3 -9 0 -19 -7 -22 -16z"/>
</g>
</svg>
