<?xml version="1.0" standalone="no"?>
<!DOCTYPE svg PUBLIC "-//W3C//DTD SVG 20010904//EN"
 "http://www.w3.org/TR/2001/REC-SVG-20010904/DTD/svg10.dtd">
<svg version="1.0" xmlns="http://www.w3.org/2000/svg"
 width="32.000000pt" height="32.000000pt" viewBox="0 0 32.000000 32.000000"
 preserveAspectRatio="xMidYMid meet">
<metadata>
Created by potrace 1.16, written by Peter Selinger 2001-2019
</metadata>
<g transform="translate(0.000000,32.000000) scale(0.100000,-0.100000)"
fill="#000000" stroke="none">
<path fill="#000000" stroke="none" d="M0 160 l0 -160 160 0 160 0 0 160 0
160 -160 0 -160 0 0 -160z"/>
<path fill="#ffffff" stroke="none" d="M180 275 c10 -31 15 -34 37 -29 24 6
25 5 19 -19 -5 -22 -2 -27 29 -37 19 -6 35 -15 35 -20 0 -5 -16 -14 -35 -20
-31 -10 -34 -15 -29 -37 6 -24 5 -25 -19 -19 -22 5 -27 2 -37 -29 -6 -19 -15
-35 -20 -35 -5 0 -14 16 -20 35 -10 31 -15 34 -37 29 -24 -6 -25 -5 -19 19 5
22 2 27 -29 37 -19 6 -35 15 -35 20 0 5 16 14 35 20 31 10 34 15 29 37 -6 24
-5 25 19 19 22 -5 27 -2 37 29 6 19 15 35 20 35 5 0 14 -16 20 -35z"/>
<path fill="#ffffff" stroke="none" d="M130 64 c0 -8 -10 -15 -22 -15 -21 -1
-21 -2 -3 -6 11 -2 31 -9 44 -16 19 -9 25 -9 28 0 7 20 113 17 113 -2 0 -13
-21 -15 -130 -15 -141 0 -148 3 -115 53 12 18 22 22 50 19 21 -3 35 -10 35
-18z"/>
<path fill="#ffffff" stroke="none" d="M270 65 c0 -11 -11 -15 -38 -15 -28 0
-39 4 -39 15 0 11 11 15 39 15 27 0 38 -4 38 -15z"/>
</g>
</svg>
