<?xml version="1.0" standalone="no"?>
<!DOCTYPE svg PUBLIC "-//W3C//DTD SVG 20010904//EN"
 "http://www.w3.org/TR/2001/REC-SVG-20010904/DTD/svg10.dtd">
<svg version="1.0" xmlns="http://www.w3.org/2000/svg"
 width="32.000000pt" height="32.000000pt" viewBox="0 0 32.000000 32.000000"
 preserveAspectRatio="xMidYMid meet">
<metadata>
Created by potrace 1.16, written by Peter Selinger 2001-2019
</metadata>
<g transform="translate(0.000000,32.000000) scale(0.100000,-0.100000)"
fill="#000000" stroke="none">
<path fill="#000000" stroke="none" d="M0 160 l0 -160 160 0 160 0 0 160 0
160 -160 0 -160 0 0 -160z"/>
<path fill="#ffffff" stroke="none" d="M180 275 c10 -31 15 -34 37 -29 24 6
25 5 19 -19 -5 -22 -2 -27 29 -37 19 -6 35 -15 35 -20 0 -5 -16 -14 -35 -20
-31 -10 -34 -15 -29 -37 6 -24 5 -25 -19 -19 -22 5 -27 2 -37 -29 -6 -19 -15
-35 -20 -35 -5 0 -14 16 -20 35 -10 31 -15 34 -37 29 -24 -6 -25 -5 -19 19 5
22 2 27 -29 37 -37 12 -44 24 -20 34 21 8 19 26 -2 27 -17 1 -17 2 -1 6 10 2
19 12 19 21 1 15 2 15 6 0 6 -22 23 -24 23 -2 0 12 6 15 24 10 21 -5 26 -1 36
29 6 19 15 35 20 35 5 0 14 -16 20 -35z"/>
<path fill="#ffffff" stroke="none" d="M283 81 c-10 -10 -11 -17 -4 -24 6 -6
11 -19 11 -29 0 -16 -11 -18 -130 -18 -117 0 -130 2 -130 18 1 30 28 55 61 56
26 1 33 -4 44 -31 18 -42 32 -42 50 1 11 27 19 33 37 29 15 -3 28 3 37 15 10
15 17 17 26 9 9 -9 9 -15 -2 -26z"/>
<path fill="#000000" stroke="none" d="M60 200 c0 -5 7 -7 15 -4 8 4 15 8 15
10 0 2 -7 4 -15 4 -8 0 -15 -4 -15 -10z"/>
</g>
</svg>
