<?xml version="1.0" standalone="no"?>
<!DOCTYPE svg PUBLIC "-//W3C//DTD SVG 20010904//EN"
 "http://www.w3.org/TR/2001/REC-SVG-20010904/DTD/svg10.dtd">
<svg version="1.0" xmlns="http://www.w3.org/2000/svg"
 width="32.000000pt" height="32.000000pt" viewBox="0 0 32.000000 32.000000"
 preserveAspectRatio="xMidYMid meet">
<metadata>
Created by potrace 1.16, written by Peter Selinger 2001-2019
</metadata>
<g transform="translate(0.000000,32.000000) scale(0.100000,-0.100000)"
fill="#000000" stroke="none">
<path fill="#000000" stroke="none" d="M140 275 c-10 -31 -15 -34 -37 -29 -24
6 -25 5 -19 -19 5 -22 2 -27 -29 -37 -44 -15 -44 -25 0 -40 38 -12 40 -17 24
-40 -8 -11 -12 -12 -15 -3 -4 10 -8 10 -19 0 -9 -9 -10 -14 -1 -19 8 -6 8 -13
-1 -28 -30 -47 -22 -50 117 -50 109 0 130 2 130 15 0 19 -106 22 -113 3 -3
-10 -9 -10 -28 -1 -13 7 -33 14 -44 16 -18 4 -18 5 3 6 36 2 27 31 -10 31 -36
0 -35 4 4 14 24 5 28 2 38 -29 15 -44 25 -44 40 0 10 31 15 34 37 29 24 -6 25
-5 19 19 -5 22 -2 27 29 37 32 11 48 30 25 30 -17 0 -11 28 8 33 15 4 15 5 0
6 -9 0 -19 9 -21 19 -4 15 -5 15 -6 0 0 -9 -9 -19 -18 -21 -17 -4 -17 -5 0 -6
9 0 17 -6 17 -12 0 -6 -7 -8 -16 -5 -9 3 -18 6 -20 6 -2 0 -1 12 2 26 6 25 5
26 -19 20 -22 -5 -27 -2 -37 29 -6 19 -15 35 -20 35 -5 0 -14 -16 -20 -35z"/>
<path fill="#000000" stroke="none" d="M193 65 c0 -11 11 -15 39 -15 27 0 38
4 38 15 0 11 -11 15 -38 15 -28 0 -39 -4 -39 -15z"/>
</g>
</svg>
