<?xml version="1.0" standalone="no"?>
<!DOCTYPE svg PUBLIC "-//W3C//DTD SVG 20010904//EN"
 "http://www.w3.org/TR/2001/REC-SVG-20010904/DTD/svg10.dtd">
<svg version="1.0" xmlns="http://www.w3.org/2000/svg"
 width="32.000000pt" height="32.000000pt" viewBox="0 0 32.000000 32.000000"
 preserveAspectRatio="xMidYMid meet">
<metadata>
Created by potrace 1.16, written by Peter Selinger 2001-2019
</metadata>
<g transform="translate(0.000000,32.000000) scale(0.100000,-0.100000)"
fill="#000000" stroke="none">
<path fill="#000000" stroke="none" d="M142 278 c-12 -34 -16 -37 -40 -32 -27
7 -27 7 7 -30 36 -37 35 -44 0 -25 -28 15 -95 -7 -76 -25 22 -22 46 -25 74
-11 46 24 49 17 7 -19 -21 -19 -36 -37 -33 -40 4 -4 39 30 79 74 40 44 67 80
61 80 -7 0 -24 -12 -38 -26 -19 -19 -24 -21 -18 -7 4 10 9 27 12 38 4 16 3 17
-5 6 -8 -11 -11 -7 -14 20 l-3 34 -13 -37z"/>
<path fill="#000000" stroke="none" d="M198 187 c-16 -6 -28 -14 -28 -17 0 -3
16 -21 35 -40 19 -19 35 -30 35 -24 0 14 -12 28 -40 47 -24 17 -24 17 40 18
63 1 64 1 35 14 -35 16 -41 17 -77 2z"/>
<path fill="#000000" stroke="none" d="M142 122 c-10 -18 -11 -31 -3 -54 14
-38 14 -38 -1 -34 -7 1 -10 1 -5 -1 4 -3 4 -10 1 -16 -4 -7 1 -5 10 4 13 12
16 29 14 70 -3 50 -4 52 -16 31z"/>
<path fill="#000000" stroke="none" d="M50 69 c0 -4 7 -5 17 -2 11 4 14 3 9
-5 -10 -16 5 -15 27 2 16 13 15 14 -17 14 -20 0 -36 -4 -36 -9z"/>
<path fill="#000000" stroke="none" d="M226 64 c-5 -14 -4 -15 9 -4 17 14 19
20 6 20 -5 0 -12 -7 -15 -16z"/>
<path fill="#000000" stroke="none" d="M30 29 c0 -5 5 -7 10 -4 6 3 10 8 10
11 0 2 -4 4 -10 4 -5 0 -10 -5 -10 -11z"/>
<path fill="#000000" stroke="none" d="M73 33 c9 -2 15 -9 12 -14 -4 -5 -2 -9
3 -9 6 0 12 6 15 13 3 8 -4 13 -22 14 -14 0 -18 -1 -8 -4z"/>
<path fill="#000000" stroke="none" d="M220 25 c-7 -9 -8 -15 -2 -15 5 0 12 7
16 15 3 8 4 15 2 15 -2 0 -9 -7 -16 -15z"/>
<path fill="#000000" stroke="none" d="M249 23 c-13 -16 -12 -17 4 -4 9 7 17
15 17 17 0 8 -8 3 -21 -13z"/>
</g>
</svg>
