<?xml version="1.0" standalone="no"?>
<!DOCTYPE svg PUBLIC "-//W3C//DTD SVG 20010904//EN"
 "http://www.w3.org/TR/2001/REC-SVG-20010904/DTD/svg10.dtd">
<svg version="1.0" xmlns="http://www.w3.org/2000/svg"
 width="32.000000pt" height="32.000000pt" viewBox="0 0 32.000000 32.000000"
 preserveAspectRatio="xMidYMid meet">
<metadata>
Created by potrace 1.16, written by Peter Selinger 2001-2019
</metadata>
<g transform="translate(0.000000,32.000000) scale(0.100000,-0.100000)"
fill="#000000" stroke="none">
<path fill="#000000" stroke="none" d="M0 160 l0 -160 160 0 160 0 0 160 0
160 -160 0 -160 0 0 -160z"/>
<path fill="#ffffff" stroke="none" d="M180 275 c10 -31 15 -34 37 -29 24 6
25 5 19 -20 -3 -14 -4 -26 -2 -26 2 0 11 -3 20 -6 9 -3 16 -1 16 5 0 6 -8 12
-17 12 -17 1 -17 2 0 6 9 2 18 12 18 21 1 15 2 15 6 0 2 -10 12 -19 21 -19 15
-1 15 -2 0 -6 -19 -5 -25 -33 -8 -33 23 0 7 -19 -25 -30 -31 -10 -34 -15 -29
-37 6 -24 5 -25 -19 -19 -22 5 -27 2 -37 -29 -6 -19 -15 -35 -20 -35 -5 0 -14
16 -20 35 -10 31 -14 34 -38 29 -39 -10 -40 -14 -4 -14 20 0 32 -5 32 -13 0
-7 6 -22 14 -32 11 -15 17 -17 27 -8 8 6 38 13 67 14 44 3 52 1 52 -13 0 -16
-13 -18 -130 -18 -139 0 -147 3 -117 50 9 15 9 22 1 28 -9 5 -8 10 1 19 11 10
15 10 19 0 3 -9 7 -8 15 3 16 23 14 28 -24 40 -44 15 -44 25 0 40 31 10 34 15
29 37 -6 24 -5 25 19 19 22 -5 27 -2 37 29 6 19 15 35 20 35 5 0 14 -16 20
-35z"/>
<path fill="#ffffff" stroke="none" d="M268 67 c3 -14 -5 -17 -37 -17 -28 0
-41 4 -41 13 0 20 5 22 42 21 22 -1 34 -6 36 -17z"/>
</g>
</svg>
