<?xml version="1.0" standalone="no"?>
<!DOCTYPE svg PUBLIC "-//W3C//DTD SVG 20010904//EN"
 "http://www.w3.org/TR/2001/REC-SVG-20010904/DTD/svg10.dtd">
<svg version="1.0" xmlns="http://www.w3.org/2000/svg"
 width="32.000000pt" height="32.000000pt" viewBox="0 0 32.000000 32.000000"
 preserveAspectRatio="xMidYMid meet">
<metadata>
Created by potrace 1.16, written by Peter Selinger 2001-2019
</metadata>
<g transform="translate(0.000000,32.000000) scale(0.100000,-0.100000)"
fill="#000000" stroke="none">
<path fill="#000000" stroke="none" d="M181 284 c0 -11 3 -14 6 -6 3 7 2 16
-1 19 -3 4 -6 -2 -5 -13z"/>
<path fill="#000000" stroke="none" d="M176 243 c-6 -14 -5 -15 5 -6 7 7 10
15 7 18 -3 3 -9 -2 -12 -12z"/>
<path fill="#000000" stroke="none" d="M163 209 c-33 -10 -42 -22 -23 -34 6
-4 8 -10 5 -15 -3 -5 3 -14 14 -19 26 -14 31 -14 31 4 0 15 21 20 34 8 11 -12
45 -10 50 2 5 15 -3 27 -34 48 -27 19 -31 19 -77 6z"/>
<path fill="#ffffff" stroke="none" d="M230 189 c0 -5 -11 -9 -25 -9 -24 0
-32 10 -19 22 8 8 44 -3 44 -13z"/>
<path fill="#000000" stroke="none" d="M121 101 c-14 -48 -8 -77 11 -65 9 5 9
3 -1 -9 -12 -15 -10 -17 18 -17 17 0 31 5 31 11 0 5 -5 7 -12 3 -7 -4 -8 -3
-4 5 4 6 11 9 16 6 15 -9 54 31 44 46 -4 8 -7 25 -5 39 3 22 1 23 -15 10 -22
-19 -57 -19 -65 0 -4 10 -11 -1 -18 -29z"/>
<path fill="#ffffff" stroke="none" d="M154 64 c9 -24 4 -24 -18 -3 -16 16
-17 19 -4 19 9 0 19 -7 22 -16z"/>
<path fill="#ffffff" stroke="none" d="M195 70 c-3 -5 -10 -10 -16 -10 -5 0
-9 5 -9 10 0 6 7 10 16 10 8 0 12 -4 9 -10z"/>
</g>
</svg>
