<?xml version="1.0" standalone="no"?>
<!DOCTYPE svg PUBLIC "-//W3C//DTD SVG 20010904//EN"
 "http://www.w3.org/TR/2001/REC-SVG-20010904/DTD/svg10.dtd">
<svg version="1.0" xmlns="http://www.w3.org/2000/svg"
 width="32.000000pt" height="32.000000pt" viewBox="0 0 32.000000 32.000000"
 preserveAspectRatio="xMidYMid meet">
<metadata>
Created by potrace 1.16, written by Peter Selinger 2001-2019
</metadata>
<g transform="translate(0.000000,32.000000) scale(0.100000,-0.100000)"
fill="#000000" stroke="none">
<path fill="#000000" stroke="none" d="M214 204 c22 -13 26 -18 15 -25 -10 -6
-7 -9 11 -9 l25 1 -28 24 c-15 14 -33 25 -40 25 -7 -1 1 -8 17 -16z"/>
<path fill="#000000" stroke="none" d="M147 199 c-9 -6 -15 -14 -12 -20 9 -14
19 -11 33 11 13 22 7 25 -21 9z"/>
<path fill="#000000" stroke="none" d="M160 160 c-13 -8 -13 -10 2 -10 9 0 20
5 23 10 8 13 -5 13 -25 0z"/>
<path fill="#000000" stroke="none" d="M131 114 c0 -11 3 -14 6 -6 3 7 2 16
-1 19 -3 4 -6 -2 -5 -13z"/>
<path fill="#000000" stroke="none" d="M190 107 c-8 -7 -22 -21 -30 -31 -15
-19 -14 -19 12 -2 14 9 29 24 32 32 6 17 5 17 -14 1z"/>
<path fill="#000000" stroke="none" d="M140 90 c-9 -6 -10 -10 -3 -10 6 0 15
5 18 10 8 12 4 12 -15 0z"/>
<path fill="#000000" stroke="none" d="M116 55 c4 -8 10 -15 15 -15 5 0 8 -6
7 -12 -2 -7 5 -13 15 -13 9 0 17 5 18 10 0 6 10 16 22 23 22 12 22 12 -3 10
-16 -2 -25 -9 -24 -19 1 -9 -5 -16 -12 -16 -7 0 -11 4 -8 9 6 10 -14 38 -27
38 -5 0 -6 -7 -3 -15z"/>
</g>
</svg>
