<?xml version="1.0" standalone="no"?>
<!DOCTYPE svg PUBLIC "-//W3C//DTD SVG 20010904//EN"
 "http://www.w3.org/TR/2001/REC-SVG-20010904/DTD/svg10.dtd">
<svg version="1.0" xmlns="http://www.w3.org/2000/svg"
 width="32.000000pt" height="32.000000pt" viewBox="0 0 32.000000 32.000000"
 preserveAspectRatio="xMidYMid meet">
<metadata>
Created by potrace 1.16, written by Peter Selinger 2001-2019
</metadata>
<g transform="translate(0.000000,32.000000) scale(0.100000,-0.100000)"
fill="#000000" stroke="none">
<path fill="#000000" stroke="none" d="M155 159 c-4 -6 -5 -12 -2 -15 2 -3 7
2 10 11 7 17 1 20 -8 4z"/>
<path fill="#000000" stroke="none" d="M110 150 c0 -5 5 -10 11 -10 5 0 7 5 4
10 -3 6 -8 10 -11 10 -2 0 -4 -4 -4 -10z"/>
<path fill="#000000" stroke="none" d="M209 135 c-1 -3 -2 -9 -3 -14 -2 -15
-16 -25 -16 -12 0 7 -5 9 -10 6 -6 -4 -7 -11 -4 -17 4 -6 -1 -6 -14 1 -12 6
-27 10 -34 9 -7 -2 -12 4 -10 12 3 12 1 12 -9 3 -8 -8 -18 -9 -29 -3 -14 8
-19 5 -22 -15 -3 -14 -1 -26 3 -26 17 -3 24 -5 63 -22 37 -16 40 -16 71 3 17
11 37 31 43 45 11 25 11 26 -9 20 -15 -5 -19 -4 -15 4 4 6 5 11 2 11 -3 0 -7
-2 -7 -5z"/>
</g>
</svg>
