<?xml version="1.0" standalone="no"?>
<!DOCTYPE svg PUBLIC "-//W3C//DTD SVG 20010904//EN"
 "http://www.w3.org/TR/2001/REC-SVG-20010904/DTD/svg10.dtd">
<svg version="1.0" xmlns="http://www.w3.org/2000/svg"
 width="32.000000pt" height="32.000000pt" viewBox="0 0 32.000000 32.000000"
 preserveAspectRatio="xMidYMid meet">
<metadata>
Created by potrace 1.16, written by Peter Selinger 2001-2019
</metadata>
<g transform="translate(0.000000,32.000000) scale(0.100000,-0.100000)"
fill="#000000" stroke="none">
<path fill="#000000" stroke="none" d="M0 160 l0 -160 160 0 160 0 0 160 0
160 -160 0 -160 0 0 -160z"/>
<path fill="#ffffff" stroke="none" d="M212 163 c17 10 33 15 36 13 3 -3 -3
-8 -12 -12 -9 -3 -13 -10 -10 -15 3 -5 -3 -6 -12 -2 -11 4 -15 3 -11 -4 5 -7
-1 -9 -15 -6 -19 4 -20 3 -8 -6 13 -9 12 -11 -6 -11 -24 0 -85 19 -98 30 -4 5
-5 13 -2 18 4 7 25 4 57 -6 47 -15 53 -15 81 1z"/>
<path fill="#ffffff" stroke="none" d="M176 90 c34 0 53 -4 49 -10 -3 -5 1
-10 10 -10 9 0 13 -4 10 -10 -8 -12 -152 -13 -159 -1 -10 16 6 42 21 37 8 -3
39 -6 69 -6z"/>
</g>
</svg>
