<?xml version="1.0" standalone="no"?>
<!DOCTYPE svg PUBLIC "-//W3C//DTD SVG 20010904//EN"
 "http://www.w3.org/TR/2001/REC-SVG-20010904/DTD/svg10.dtd">
<svg version="1.0" xmlns="http://www.w3.org/2000/svg"
 width="32.000000pt" height="32.000000pt" viewBox="0 0 32.000000 32.000000"
 preserveAspectRatio="xMidYMid meet">
<metadata>
Created by potrace 1.16, written by Peter Selinger 2001-2019
</metadata>
<g transform="translate(0.000000,32.000000) scale(0.100000,-0.100000)"
fill="#000000" stroke="none">
<path fill="#000000" stroke="none" d="M0 160 l0 -160 160 0 160 0 0 160 0
160 -160 0 -160 0 0 -160z"/>
<path fill="#ffffff" stroke="none" d="M176 279 c-1 -17 -9 -34 -15 -39 -9 -5
-8 -9 4 -14 10 -3 23 -3 29 2 6 4 23 9 39 11 25 2 26 1 17 -24 -6 -15 -8 -31
-4 -36 3 -5 -1 -9 -9 -9 -8 0 -19 15 -24 33 l-10 32 -13 -27 c-14 -30 -55 -39
-77 -17 -7 7 -12 4 -16 -10 -3 -12 -1 -19 4 -15 5 3 9 0 9 -5 0 -6 -4 -11 -10
-11 -5 0 -10 -12 -10 -27 0 -22 2 -25 10 -13 8 12 10 9 10 -12 0 -15 -8 -31
-17 -37 -14 -8 -1 -11 52 -11 39 -1 64 -4 56 -7 -10 -4 -10 -7 -1 -13 7 -4
-31 -8 -84 -9 -90 -2 -96 0 -96 18 0 11 5 23 12 27 7 4 8 3 4 -4 -4 -7 -1 -12
7 -12 10 0 13 13 9 55 -2 30 0 55 5 55 4 0 7 19 5 41 -4 40 -3 42 22 37 14 -3
26 -1 26 4 0 6 6 8 14 5 10 -4 12 0 9 14 -8 28 4 49 27 49 16 0 19 -5 16 -31z"/>
<path fill="#ffffff" stroke="none" d="M254 148 c-5 -7 -8 -28 -8 -48 -1 -25
-6 -36 -19 -38 -16 -3 -18 3 -16 45 2 44 5 49 26 51 17 1 22 -2 17 -10z"/>
<path fill="#ffffff" stroke="none" d="M150 128 c0 -7 -4 -19 -9 -26 -7 -11
-10 -10 -15 3 -3 9 -4 21 0 26 8 13 24 11 24 -3z"/>
<path fill="#ffffff" stroke="none" d="M190 125 c-7 -8 -10 -23 -8 -33 3 -10
0 -19 -6 -19 -7 0 -10 13 -8 34 3 21 10 33 19 33 13 0 13 -3 3 -15z"/>
<path fill="#ffffff" stroke="none" d="M290 35 c-15 -18 -24 -20 -14 -3 5 7 2
9 -7 6 -8 -3 -23 -2 -34 3 -15 5 -8 8 24 8 37 1 42 -1 31 -14z"/>
<path fill="#000000" stroke="none" d="M148 33 c6 -2 18 -2 25 0 6 3 1 5 -13
5 -14 0 -19 -2 -12 -5z"/>
</g>
</svg>
