<?xml version="1.0" standalone="no"?>
<!DOCTYPE svg PUBLIC "-//W3C//DTD SVG 20010904//EN"
 "http://www.w3.org/TR/2001/REC-SVG-20010904/DTD/svg10.dtd">
<svg version="1.0" xmlns="http://www.w3.org/2000/svg"
 width="32.000000pt" height="32.000000pt" viewBox="0 0 32.000000 32.000000"
 preserveAspectRatio="xMidYMid meet">
<metadata>
Created by potrace 1.16, written by Peter Selinger 2001-2019
</metadata>
<g transform="translate(0.000000,32.000000) scale(0.100000,-0.100000)"
fill="#000000" stroke="none">
<path fill="#000000" stroke="none" d="M70 300 c-11 -7 -5 -10 23 -10 20 0 37
4 37 8 0 11 -43 13 -60 2z"/>
<path fill="#000000" stroke="none" d="M176 295 c10 -8 24 -15 30 -15 17 0 45
-35 37 -46 -4 -5 -2 -4 6 3 17 14 3 31 -46 57 -40 20 -53 21 -27 1z"/>
<path fill="#000000" stroke="none" d="M144 270 c0 -11 4 -20 8 -20 4 0 8 5 8
12 0 6 3 8 6 5 4 -4 2 -13 -4 -20 -7 -8 -9 -17 -5 -20 3 -4 -1 -7 -10 -7 -15
0 -22 11 -18 33 0 4 -4 7 -10 7 -13 0 -8 -42 6 -52 6 -5 5 -11 -4 -17 -12 -8
-12 -12 -2 -24 8 -10 9 -17 1 -22 -5 -3 -10 2 -10 11 0 22 -16 7 -23 -21 -4
-18 -5 -18 -6 3 0 12 -5 22 -11 22 -11 0 -9 -28 3 -47 5 -7 4 -13 -1 -13 -6 0
-19 15 -31 32 -17 27 -21 29 -21 12 0 -11 5 -25 12 -32 7 -7 8 -12 3 -12 -6 0
-4 -4 4 -9 16 -10 51 -3 51 11 0 6 7 5 15 -2 13 -10 19 -10 35 5 25 22 26 51
3 64 -17 10 -17 10 0 11 9 0 17 6 18 13 0 6 5 -3 10 -20 5 -18 14 -33 20 -33
13 0 33 21 37 40 2 8 7 16 12 18 17 6 -24 65 -56 78 -42 17 -40 18 -40 -6z"/>
<path fill="#000000" stroke="none" d="M49 277 c0 -1 -2 -11 -4 -23 -5 -25 23
-66 31 -46 3 6 10 10 15 7 5 -4 6 1 3 9 -3 8 3 23 14 34 19 19 18 19 -20 20
-21 1 -38 1 -39 -1z"/>
<path fill="#000000" stroke="none" d="M21 234 c0 -20 6 -37 17 -45 15 -12 15
-12 5 1 -6 8 -13 29 -16 45 l-4 30 -2 -31z"/>
<path fill="#000000" stroke="none" d="M254 202 c-15 -40 -12 -77 6 -77 15 0
20 41 10 84 -5 21 -6 21 -16 -7z"/>
<path fill="#000000" stroke="none" d="M73 193 c-20 -7 -15 -23 7 -23 11 0 20
4 20 9 0 13 -12 19 -27 14z"/>
<path fill="#000000" stroke="none" d="M200 115 c-11 -13 -10 -14 4 -9 9 3 16
10 16 15 0 13 -6 11 -20 -6z"/>
<path fill="#000000" stroke="none" d="M167 99 c-7 -25 1 -49 15 -49 6 0 8 6
5 14 -3 8 -2 16 3 18 5 2 3 11 -4 21 -13 16 -14 16 -19 -4z"/>
<path fill="#000000" stroke="none" d="M87 73 c-13 -13 -7 -25 7 -14 11 9 15
9 19 -1 2 -7 8 -9 13 -5 5 4 2 12 -6 17 -18 12 -25 12 -33 3z"/>
<path fill="#000000" stroke="none" d="M146 67 c3 -10 9 -15 12 -12 3 3 0 11
-7 18 -10 9 -11 8 -5 -6z"/>
<path fill="#000000" stroke="none" d="M237 73 c-13 -12 -7 -22 13 -20 11 1
20 7 20 14 0 14 -22 18 -33 6z"/>
<path fill="#000000" stroke="none" d="M59 65 c-1 -5 -1 -14 0 -19 1 -5 -4 -4
-12 2 -16 14 -27 6 -27 -20 0 -16 9 -18 66 -18 41 0 63 4 59 10 -3 6 4 10 17
10 18 0 20 -2 8 -10 -10 -7 7 -10 58 -10 57 0 72 3 72 15 0 12 -19 15 -110 15
-93 0 -110 3 -119 18 -6 9 -11 13 -12 7z"/>
<path fill="#ffffff" stroke="none" d="M243 23 c-7 -2 -19 -2 -25 0 -7 3 -2 5
12 5 14 0 19 -2 13 -5z"/>
</g>
</svg>
