<?xml version="1.0" standalone="no"?>
<!DOCTYPE svg PUBLIC "-//W3C//DTD SVG 20010904//EN"
 "http://www.w3.org/TR/2001/REC-SVG-20010904/DTD/svg10.dtd">
<svg version="1.0" xmlns="http://www.w3.org/2000/svg"
 width="32.000000pt" height="32.000000pt" viewBox="0 0 32.000000 32.000000"
 preserveAspectRatio="xMidYMid meet">
<metadata>
Created by potrace 1.16, written by Peter Selinger 2001-2019
</metadata>
<g transform="translate(0.000000,32.000000) scale(0.100000,-0.100000)"
fill="#000000" stroke="none">
<path fill="#000000" stroke="none" d="M0 160 l0 -160 160 0 160 0 0 160 0
160 -160 0 -160 0 0 -160z"/>
<path fill="#ffffff" stroke="none" d="M102 226 c-3 -62 0 -83 20 -124 16 -34
20 -49 11 -49 -7 0 -11 2 -9 5 3 2 -4 24 -15 49 -23 55 -27 192 -5 193 1 0 0
-33 -2 -74z"/>
<path fill="#ffffff" stroke="none" d="M215 218 c0 -40 3 -89 7 -108 7 -33 6
-33 -7 5 -14 43 -19 115 -9 153 4 12 7 22 8 22 1 0 1 -33 1 -72z"/>
<path fill="#ffffff" stroke="none" d="M244 54 c3 -8 2 -12 -4 -9 -6 3 -10 10
-10 16 0 14 7 11 14 -7z"/>
</g>
</svg>
