<?xml version="1.0" standalone="no"?>
<!DOCTYPE svg PUBLIC "-//W3C//DTD SVG 20010904//EN"
 "http://www.w3.org/TR/2001/REC-SVG-20010904/DTD/svg10.dtd">
<svg version="1.0" xmlns="http://www.w3.org/2000/svg"
 width="32.000000pt" height="32.000000pt" viewBox="0 0 32.000000 32.000000"
 preserveAspectRatio="xMidYMid meet">
<metadata>
Created by potrace 1.16, written by Peter Selinger 2001-2019
</metadata>
<g transform="translate(0.000000,32.000000) scale(0.100000,-0.100000)"
fill="#000000" stroke="none">
<path fill="#000000" stroke="none" d="M251 301 c-8 -5 -19 -7 -25 -5 -8 3
-10 -18 -8 -66 3 -49 -1 -84 -12 -111 -19 -48 -20 -52 -3 -43 7 4 9 3 4 -2 -5
-5 -14 -9 -20 -9 -7 0 -12 -7 -12 -15 0 -8 -4 -18 -10 -22 -15 -11 98 -9 115
2 8 5 11 10 7 10 -5 0 -1 7 7 16 18 17 21 40 7 49 -6 3 -8 14 -6 25 2 10 -3
24 -11 31 -10 8 -15 30 -14 63 0 45 -2 86 -4 86 -1 0 -7 -4 -15 -9z"/>
<path fill="#ffffff" stroke="none" d="M259 253 c-6 -6 -10 -22 -9 -35 3 -35
1 -52 -6 -45 -14 13 -15 100 -2 108 16 10 30 -12 17 -28z"/>
<path fill="#000000" stroke="none" d="M20 274 c-13 -34 -13 -51 3 -58 10 -5
10 -7 0 -12 -21 -9 -16 -72 6 -84 19 -9 20 -6 19 65 0 41 -4 72 -9 69 -5 -3
-6 1 -3 9 3 8 15 19 27 25 21 10 21 11 -6 11 -21 1 -30 -5 -37 -25z"/>
<path fill="#000000" stroke="none" d="M93 288 c4 -11 1 -18 -6 -18 -7 0 -4
-5 6 -11 9 -5 17 -20 17 -32 -1 -21 -1 -22 -12 -2 -15 27 -15 28 -26 21 -5 -3
-6 -28 -2 -55 3 -28 3 -56 -1 -63 -4 -6 -4 -19 1 -29 6 -11 4 -23 -5 -35 -14
-19 -14 -18 -16 1 -1 11 -1 23 -1 26 1 4 -8 5 -18 2 -24 -6 -27 -48 -4 -57 10
-4 13 -2 8 6 -4 7 -3 8 4 4 7 -4 12 -14 12 -22 0 -8 7 -14 16 -14 8 0 13 4 10
9 -3 5 1 22 9 37 18 35 20 58 3 48 -7 -4 -8 -3 -4 5 4 6 11 9 16 6 25 -15 24
156 -1 179 -9 8 -11 7 -6 -6z"/>
<path fill="#000000" stroke="none" d="M160 254 c-17 -9 -20 -14 -9 -14 9 0
22 7 29 15 15 18 13 18 -20 -1z"/>
<path fill="#000000" stroke="none" d="M286 261 c-4 -7 -5 -15 -2 -18 9 -9 19
4 14 18 -4 11 -6 11 -12 0z"/>
<path fill="#000000" stroke="none" d="M155 89 c-16 -10 -25 -19 -19 -19 7 0
22 9 35 20 30 24 23 24 -16 -1z"/>
</g>
</svg>
