<?xml version="1.0" standalone="no"?>
<!DOCTYPE svg PUBLIC "-//W3C//DTD SVG 20010904//EN"
 "http://www.w3.org/TR/2001/REC-SVG-20010904/DTD/svg10.dtd">
<svg version="1.0" xmlns="http://www.w3.org/2000/svg"
 width="32.000000pt" height="32.000000pt" viewBox="0 0 32.000000 32.000000"
 preserveAspectRatio="xMidYMid meet">
<metadata>
Created by potrace 1.16, written by Peter Selinger 2001-2019
</metadata>
<g transform="translate(0.000000,32.000000) scale(0.100000,-0.100000)"
fill="#000000" stroke="none">
<path fill="#000000" stroke="none" d="M0 160 l0 -160 160 0 160 0 0 160 0
160 -160 0 -160 0 0 -160z"/>
<path fill="#ffffff" stroke="none" d="M130 295 c0 -8 -7 -15 -15 -15 -8 0
-15 7 -15 15 0 8 7 15 15 15 8 0 15 -7 15 -15z"/>
<path fill="#ffffff" stroke="none" d="M220 290 c0 -5 -4 -10 -10 -10 -5 0
-10 5 -10 10 0 6 5 10 10 10 6 0 10 -4 10 -10z"/>
<path fill="#ffffff" stroke="none" d="M175 250 c-11 -5 -15 -9 -9 -9 11 -1
16 -70 5 -72 -3 0 -14 -2 -24 -4 -9 -2 -15 1 -11 6 3 5 -6 9 -20 9 -15 0 -26
-7 -29 -17 -3 -10 -5 -3 -6 15 -1 45 36 82 81 81 28 0 30 -2 13 -9z"/>
<path fill="#ffffff" stroke="none" d="M60 230 c0 -5 -6 -10 -12 -10 -9 0 -9
-3 -3 -8 6 -4 12 -18 13 -32 1 -17 -2 -20 -7 -11 -7 11 -9 11 -14 0 -4 -12 -3
40 2 64 2 11 21 9 21 -3z"/>
<path fill="#ffffff" stroke="none" d="M290 225 c0 -8 -7 -15 -15 -15 -8 0
-15 7 -15 15 0 8 7 15 15 15 8 0 15 -7 15 -15z"/>
<path fill="#ffffff" stroke="none" d="M237 188 c-3 -8 -6 -5 -6 6 -1 11 2 17
5 13 3 -3 4 -12 1 -19z"/>
<path fill="#ffffff" stroke="none" d="M286 165 c-3 -38 -12 -53 -23 -40 -5 4
-2 10 5 12 6 3 12 12 12 21 0 13 -2 14 -9 3 -6 -9 -8 -5 -8 13 0 15 5 26 13
26 9 0 12 -11 10 -35z"/>
<path fill="#ffffff" stroke="none" d="M204 164 c4 -10 2 -13 -7 -8 -6 4 -9 4
-5 -1 4 -4 2 -15 -4 -24 -9 -11 -5 -10 9 2 12 11 20 24 19 30 -2 7 -1 9 1 4 3
-4 9 -5 14 -1 15 9 10 -13 -9 -36 -12 -15 -32 -24 -58 -26 -30 -2 -34 -1 -18
6 12 5 26 15 30 22 9 13 10 18 13 38 2 15 8 12 15 -6z"/>
<path fill="#ffffff" stroke="none" d="M60 135 c0 -8 -7 -15 -15 -15 -8 0 -15
7 -15 15 0 8 7 15 15 15 8 0 15 -7 15 -15z"/>
<path fill="#ffffff" stroke="none" d="M77 54 c1 -25 0 -26 -4 -4 -3 14 -10
29 -17 33 -7 6 -6 7 4 4 8 -2 16 -16 17 -33z"/>
<path fill="#ffffff" stroke="none" d="M263 83 c-7 -2 -14 -17 -14 -31 -1 -18
-3 -21 -6 -9 -6 24 3 47 19 46 10 0 10 -2 1 -6z"/>
<path fill="#ffffff" stroke="none" d="M120 70 c0 -5 -4 -10 -10 -10 -5 0 -10
5 -10 10 0 6 5 10 10 10 6 0 10 -4 10 -10z"/>
<path fill="#ffffff" stroke="none" d="M220 68 c0 -7 -11 -18 -23 -24 -22 -10
-23 -9 -13 13 12 24 36 32 36 11z"/>
<path fill="#ffffff" stroke="none" d="M57 38 c-3 -7 -5 -2 -5 12 0 14 2 19 5
13 2 -7 2 -19 0 -25z"/>
<path fill="#ffffff" stroke="none" d="M267 38 c-3 -7 -5 -2 -5 12 0 14 2 19
5 13 2 -7 2 -19 0 -25z"/>
<path fill="#000000" stroke="none" d="M134 198 c-3 -4 2 -8 11 -8 10 0 13 -5
9 -12 -4 -7 -3 -9 1 -5 15 13 14 34 -2 34 -7 0 -16 -4 -19 -9z"/>
</g>
</svg>
