<?xml version="1.0" standalone="no"?>
<!DOCTYPE svg PUBLIC "-//W3C//DTD SVG 20010904//EN"
 "http://www.w3.org/TR/2001/REC-SVG-20010904/DTD/svg10.dtd">
<svg version="1.0" xmlns="http://www.w3.org/2000/svg"
 width="32.000000pt" height="32.000000pt" viewBox="0 0 32.000000 32.000000"
 preserveAspectRatio="xMidYMid meet">
<metadata>
Created by potrace 1.16, written by Peter Selinger 2001-2019
</metadata>
<g transform="translate(0.000000,32.000000) scale(0.100000,-0.100000)"
fill="#000000" stroke="none">
<path fill="#000000" stroke="none" d="M150 290 c0 -5 5 -10 10 -10 6 0 10 5
10 10 0 6 -4 10 -10 10 -5 0 -10 -4 -10 -10z"/>
<path fill="#000000" stroke="none" d="M50 275 c0 -8 7 -15 15 -15 8 0 15 7
15 15 0 8 -7 15 -15 15 -8 0 -15 -7 -15 -15z"/>
<path fill="#000000" stroke="none" d="M240 275 c0 -8 7 -15 15 -15 8 0 15 7
15 15 0 8 -7 15 -15 15 -8 0 -15 -7 -15 -15z"/>
<path fill="#000000" stroke="none" d="M124 242 c-24 -21 -54 -59 -37 -49 6 4
14 1 16 -5 4 -9 6 -8 6 2 1 11 3 12 9 3 5 -9 13 -1 24 22 18 41 11 51 -18 27z"/>
<path fill="#000000" stroke="none" d="M33 190 c0 -30 3 -48 5 -40 3 8 10 18
16 23 8 5 8 9 0 15 -7 4 -14 18 -16 32 -3 14 -5 0 -5 -30z"/>
<path fill="#000000" stroke="none" d="M280 216 c0 -13 -6 -27 -12 -29 -9 -4
-10 -8 -2 -14 6 -4 13 -15 16 -23 2 -8 5 9 6 38 0 28 -1 52 -4 52 -2 0 -4 -11
-4 -24z"/>
<path fill="#000000" stroke="none" d="M199 153 c-13 -16 -12 -17 4 -4 16 13
21 21 13 21 -2 0 -10 -8 -17 -17z"/>
<path fill="#000000" stroke="none" d="M209 123 c-13 -16 -12 -17 4 -4 9 7 17
15 17 17 0 8 -8 3 -21 -13z"/>
<path fill="#000000" stroke="none" d="M50 85 c0 -8 7 -15 15 -15 8 0 15 7 15
15 0 8 -7 15 -15 15 -8 0 -15 -7 -15 -15z"/>
<path fill="#000000" stroke="none" d="M240 85 c0 -8 7 -15 15 -15 8 0 15 7
15 15 0 8 -7 15 -15 15 -8 0 -15 -7 -15 -15z"/>
<path fill="#000000" stroke="none" d="M150 70 c0 -5 5 -10 10 -10 6 0 10 5
10 10 0 6 -4 10 -10 10 -5 0 -10 -4 -10 -10z"/>
<path fill="#000000" stroke="none" d="M51 44 c0 -11 3 -14 6 -6 3 7 2 16 -1
19 -3 4 -6 -2 -5 -13z"/>
<path fill="#000000" stroke="none" d="M71 44 c0 -11 3 -14 6 -6 3 7 2 16 -1
19 -3 4 -6 -2 -5 -13z"/>
<path fill="#000000" stroke="none" d="M241 44 c0 -11 3 -14 6 -6 3 7 2 16 -1
19 -3 4 -6 -2 -5 -13z"/>
<path fill="#000000" stroke="none" d="M261 44 c0 -11 3 -14 6 -6 3 7 2 16 -1
19 -3 4 -6 -2 -5 -13z"/>
</g>
</svg>
