<?xml version="1.0" standalone="no"?>
<!DOCTYPE svg PUBLIC "-//W3C//DTD SVG 20010904//EN"
 "http://www.w3.org/TR/2001/REC-SVG-20010904/DTD/svg10.dtd">
<svg version="1.0" xmlns="http://www.w3.org/2000/svg"
 width="32.000000pt" height="32.000000pt" viewBox="0 0 32.000000 32.000000"
 preserveAspectRatio="xMidYMid meet">
<metadata>
Created by potrace 1.16, written by Peter Selinger 2001-2019
</metadata>
<g transform="translate(0.000000,32.000000) scale(0.100000,-0.100000)"
fill="#000000" stroke="none">
<path fill="#000000" stroke="none" d="M0 160 l0 -160 160 0 160 0 0 160 0
160 -160 0 -160 0 0 -160z"/>
<path fill="#ffffff" stroke="none" d="M130 295 c0 -8 -7 -15 -15 -15 -8 0
-15 7 -15 15 0 8 7 15 15 15 8 0 15 -7 15 -15z"/>
<path fill="#ffffff" stroke="none" d="M220 290 c0 -5 -4 -10 -10 -10 -5 0
-10 5 -10 10 0 6 5 10 10 10 6 0 10 -4 10 -10z"/>
<path fill="#ffffff" stroke="none" d="M215 235 c33 -32 33 -78 0 -110 -32
-33 -78 -33 -110 0 -50 49 -15 135 55 135 19 0 40 -9 55 -25z"/>
<path fill="#ffffff" stroke="none" d="M57 182 c2 -23 -21 -31 -33 -10 -5 7
-2 9 8 6 8 -4 15 -1 15 7 0 7 -6 11 -14 8 -9 -3 -13 3 -13 21 0 25 1 25 18 8
9 -9 18 -27 19 -40z"/>
<path fill="#ffffff" stroke="none" d="M60 230 c0 -5 -4 -10 -10 -10 -5 0 -10
5 -10 10 0 6 5 10 10 10 6 0 10 -4 10 -10z"/>
<path fill="#ffffff" stroke="none" d="M292 223 c0 -10 2 -25 3 -33 2 -22 -16
-70 -26 -70 -5 0 -9 5 -9 10 0 6 6 10 13 10 8 0 8 3 2 8 -18 12 -16 52 3 53
15 1 15 2 0 6 -10 2 -18 11 -18 19 0 20 30 17 32 -3z"/>
<path fill="#ffffff" stroke="none" d="M60 135 c0 -8 -7 -15 -15 -15 -8 0 -15
7 -15 15 0 8 7 15 15 15 8 0 15 -7 15 -15z"/>
<path fill="#ffffff" stroke="none" d="M80 53 c0 -14 -6 -23 -15 -23 -8 0 -15
9 -15 20 0 11 6 20 13 20 7 0 8 3 2 8 -5 4 -11 14 -13 22 -1 10 2 9 13 -4 8
-11 15 -30 15 -43z"/>
<path fill="#ffffff" stroke="none" d="M268 98 c-2 -7 -7 -16 -13 -20 -6 -5
-5 -8 3 -8 6 0 12 -9 12 -20 0 -11 -7 -20 -15 -20 -17 0 -20 32 -5 61 12 22
21 25 18 7z"/>
<path fill="#ffffff" stroke="none" d="M120 70 c0 -5 -4 -10 -10 -10 -5 0 -10
5 -10 10 0 6 5 10 10 10 6 0 10 -4 10 -10z"/>
<path fill="#ffffff" stroke="none" d="M220 65 c0 -8 -7 -15 -16 -15 -8 0 -13
-4 -10 -8 3 -5 -1 -9 -8 -9 -10 0 -10 6 -2 24 12 26 36 31 36 8z"/>
<path fill="#ffffff" stroke="none" d="M146 38 c3 -4 -1 -5 -10 -4 -8 1 -18 5
-22 8 -3 4 1 5 10 4 8 -1 18 -5 22 -8z"/>
<path fill="#000000" stroke="none" d="M189 238 c0 -2 -2 -15 -4 -30 -3 -24 0
-28 21 -28 26 0 30 11 14 41 -9 16 -28 26 -31 17z"/>
<path fill="#000000" stroke="none" d="M109 144 c-7 -9 -5 -16 10 -23 26 -14
52 -15 31 -1 -12 8 -10 10 8 10 15 0 21 -4 16 -12 -4 -7 -3 -8 5 -4 14 9 5 26
-15 26 -8 0 -13 4 -10 8 8 13 -34 9 -45 -4z"/>
<path fill="#000000" stroke="none" d="M273 175 c0 -8 4 -12 9 -9 5 3 6 10 3
15 -9 13 -12 11 -12 -6z"/>
</g>
</svg>
