<?xml version="1.0" standalone="no"?>
<!DOCTYPE svg PUBLIC "-//W3C//DTD SVG 20010904//EN"
 "http://www.w3.org/TR/2001/REC-SVG-20010904/DTD/svg10.dtd">
<svg version="1.0" xmlns="http://www.w3.org/2000/svg"
 width="32.000000pt" height="32.000000pt" viewBox="0 0 32.000000 32.000000"
 preserveAspectRatio="xMidYMid meet">
<metadata>
Created by potrace 1.16, written by Peter Selinger 2001-2019
</metadata>
<g transform="translate(0.000000,32.000000) scale(0.100000,-0.100000)"
fill="#000000" stroke="none">
<path fill="#000000" stroke="none" d="M150 290 c0 -5 5 -10 10 -10 6 0 10 5
10 10 0 6 -4 10 -10 10 -5 0 -10 -4 -10 -10z"/>
<path fill="#000000" stroke="none" d="M50 275 c0 -8 7 -15 15 -15 8 0 15 7
15 15 0 8 -7 15 -15 15 -8 0 -15 -7 -15 -15z"/>
<path fill="#000000" stroke="none" d="M240 275 c0 -8 7 -15 15 -15 8 0 15 7
15 15 0 8 -7 15 -15 15 -8 0 -15 -7 -15 -15z"/>
<path fill="#000000" stroke="none" d="M105 235 c-17 -16 -25 -34 -24 -57 1
-18 3 -25 6 -15 3 10 14 17 29 17 14 0 23 -4 20 -9 -4 -5 2 -8 11 -6 10 2 21
4 24 4 11 2 6 71 -5 72 -6 0 -2 4 9 9 17 7 15 9 -13 9 -22 1 -41 -7 -57 -24z"/>
<path fill="#ffffff" stroke="none" d="M166 194 c-1 -8 -6 -17 -11 -21 -4 -4
-5 -2 -1 5 4 7 1 12 -9 12 -9 0 -14 4 -11 8 8 14 34 10 32 -4z"/>
<path fill="#000000" stroke="none" d="M30 210 c5 -16 6 -39 4 -52 -2 -13 -1
-16 2 -8 4 8 12 18 18 23 8 5 6 10 -4 17 -12 8 -12 10 -1 10 11 0 11 3 0 17
-12 14 -12 16 0 8 10 -5 12 -4 7 3 -4 7 -13 12 -21 12 -10 0 -12 -7 -5 -30z"/>
<path fill="#000000" stroke="none" d="M264 228 c-5 -7 -3 -8 7 -3 12 8 12 6
0 -8 -11 -14 -11 -17 0 -17 11 0 11 -2 -1 -10 -10 -7 -12 -12 -4 -17 6 -5 14
-15 18 -23 3 -8 4 -5 2 8 -2 13 -1 36 4 52 7 23 5 30 -5 30 -8 0 -17 -5 -21
-12z"/>
<path fill="#000000" stroke="none" d="M231 194 c0 -11 3 -14 6 -6 3 7 2 16
-1 19 -3 4 -6 -2 -5 -13z"/>
<path fill="#000000" stroke="none" d="M189 170 c-3 -20 -4 -25 -13 -38 -4 -7
-18 -17 -30 -22 -16 -7 -12 -8 18 -6 26 2 46 11 58 26 19 23 24 45 9 36 -5 -4
-11 -3 -14 1 -2 5 -3 3 -1 -4 1 -6 -7 -19 -19 -30 -14 -12 -18 -13 -9 -2 6 9
8 20 4 24 -4 5 -1 5 5 1 9 -5 11 -2 7 8 -7 18 -13 21 -15 6z"/>
<path fill="#000000" stroke="none" d="M50 85 c0 -8 7 -15 15 -15 8 0 15 7 15
15 0 8 -7 15 -15 15 -8 0 -15 -7 -15 -15z"/>
<path fill="#000000" stroke="none" d="M240 85 c0 -8 7 -15 15 -15 8 0 15 7
15 15 0 8 -7 15 -15 15 -8 0 -15 -7 -15 -15z"/>
<path fill="#000000" stroke="none" d="M150 70 c0 -5 5 -10 10 -10 6 0 10 5
10 10 0 6 -4 10 -10 10 -5 0 -10 -4 -10 -10z"/>
<path fill="#000000" stroke="none" d="M51 44 c0 -11 3 -14 6 -6 3 7 2 16 -1
19 -3 4 -6 -2 -5 -13z"/>
<path fill="#000000" stroke="none" d="M71 44 c0 -11 3 -14 6 -6 3 7 2 16 -1
19 -3 4 -6 -2 -5 -13z"/>
<path fill="#000000" stroke="none" d="M241 44 c0 -11 3 -14 6 -6 3 7 2 16 -1
19 -3 4 -6 -2 -5 -13z"/>
<path fill="#000000" stroke="none" d="M261 44 c0 -11 3 -14 6 -6 3 7 2 16 -1
19 -3 4 -6 -2 -5 -13z"/>
</g>
</svg>
