<?xml version="1.0" standalone="no"?>
<!DOCTYPE svg PUBLIC "-//W3C//DTD SVG 20010904//EN"
 "http://www.w3.org/TR/2001/REC-SVG-20010904/DTD/svg10.dtd">
<svg version="1.0" xmlns="http://www.w3.org/2000/svg"
 width="32.000000pt" height="32.000000pt" viewBox="0 0 32.000000 32.000000"
 preserveAspectRatio="xMidYMid meet">
<metadata>
Created by potrace 1.16, written by Peter Selinger 2001-2019
</metadata>
<g transform="translate(0.000000,32.000000) scale(0.100000,-0.100000)"
fill="#000000" stroke="none">
<path fill="#000000" stroke="none" d="M0 160 l0 -160 160 0 160 0 0 160 0
160 -160 0 -160 0 0 -160z"/>
<path fill="#ffffff" stroke="none" d="M180 295 c0 -8 -7 -15 -15 -15 -8 0
-15 7 -15 15 0 8 7 15 15 15 8 0 15 -7 15 -15z"/>
<path fill="#ffffff" stroke="none" d="M90 270 c0 -5 -4 -10 -10 -10 -5 0 -10
5 -10 10 0 6 5 10 10 10 6 0 10 -4 10 -10z"/>
<path fill="#ffffff" stroke="none" d="M260 260 c0 -5 -4 -10 -10 -10 -5 0
-10 5 -10 10 0 6 5 10 10 10 6 0 10 -4 10 -10z"/>
<path fill="#ffffff" stroke="none" d="M215 235 c33 -32 33 -78 0 -110 -32
-33 -78 -33 -110 0 -50 49 -15 135 55 135 19 0 40 -9 55 -25z"/>
<path fill="#ffffff" stroke="none" d="M73 237 c-1 -4 -4 -21 -8 -37 -4 -18
-13 -30 -23 -31 -14 0 -13 -2 3 -9 11 -5 17 -9 13 -9 -3 -1 -13 -3 -20 -6 -11
-4 -14 7 -15 49 -1 53 -1 55 25 53 15 -2 26 -6 25 -10z"/>
<path fill="#ffffff" stroke="none" d="M297 195 c-1 -37 -6 -55 -15 -55 -7 0
-10 -5 -6 -12 5 -7 3 -8 -6 -3 -10 6 -9 11 5 22 16 11 16 13 3 13 -20 0 -42
77 -24 84 38 16 46 7 43 -49z"/>
<path fill="#ffffff" stroke="none" d="M54 132 c3 -5 -1 -9 -9 -9 -8 0 -12 4
-9 9 3 4 7 8 9 8 2 0 6 -4 9 -8z"/>
<path fill="#ffffff" stroke="none" d="M80 104 c0 -4 -8 -13 -17 -21 -17 -14
-17 -14 0 -9 13 4 17 0 17 -17 0 -29 -15 -51 -29 -43 -15 9 -14 51 1 76 12 19
28 27 28 14z"/>
<path fill="#ffffff" stroke="none" d="M250 90 c0 -5 -4 -10 -10 -10 -5 0 -10
5 -10 10 0 6 5 10 10 10 6 0 10 -4 10 -10z"/>
<path fill="#ffffff" stroke="none" d="M280 50 c0 -33 -18 -49 -31 -29 -14 22
-10 49 7 49 9 0 12 5 8 12 -4 7 -3 8 4 4 7 -4 12 -20 12 -36z"/>
<path fill="#ffffff" stroke="none" d="M170 65 c0 -8 -7 -15 -15 -15 -8 0 -13
-6 -11 -12 1 -7 1 -10 -1 -5 -3 4 -9 5 -14 1 -5 -3 -12 2 -15 10 -3 9 -11 13
-17 9 -6 -4 -7 -1 -2 7 6 10 11 9 22 -6 13 -18 14 -18 19 4 7 25 34 30 34 7z"/>
<path fill="#ffffff" stroke="none" d="M202 46 c7 4 8 2 4 -5 -4 -6 -12 -9
-17 -6 -5 4 -9 1 -9 -6 0 -7 -2 -10 -5 -7 -3 3 -2 13 2 24 4 11 8 13 11 6 2
-7 9 -9 14 -6z"/>
<path fill="#000000" stroke="none" d="M195 228 c-4 -9 -2 -25 4 -35 8 -14 10
-15 11 -3 0 13 1 13 10 0 9 -13 10 -13 10 1 0 8 -6 24 -14 35 -13 17 -15 17
-21 2z"/>
<path fill="#000000" stroke="none" d="M105 141 c-6 -11 25 -31 47 -31 9 0 9
3 -2 10 -13 9 -13 10 0 10 13 0 13 1 0 10 -19 12 -37 13 -45 1z"/>
<path fill="#000000" stroke="none" d="M36 228 c3 -5 10 -6 15 -3 13 9 11 12
-6 12 -8 0 -12 -4 -9 -9z"/>
<path fill="#000000" stroke="none" d="M38 203 c7 -3 16 -2 19 1 4 3 -2 6 -13
5 -11 0 -14 -3 -6 -6z"/>
<path fill="#000000" stroke="none" d="M266 231 c-4 -5 -2 -12 3 -15 5 -4 12
-2 15 3 4 5 2 12 -3 15 -5 4 -12 2 -15 -3z"/>
<path fill="#000000" stroke="none" d="M268 193 c7 -3 16 -2 19 1 4 3 -2 6
-13 5 -11 0 -14 -3 -6 -6z"/>
</g>
</svg>
