<?xml version="1.0" standalone="no"?>
<!DOCTYPE svg PUBLIC "-//W3C//DTD SVG 20010904//EN"
 "http://www.w3.org/TR/2001/REC-SVG-20010904/DTD/svg10.dtd">
<svg version="1.0" xmlns="http://www.w3.org/2000/svg"
 width="32.000000pt" height="32.000000pt" viewBox="0 0 32.000000 32.000000"
 preserveAspectRatio="xMidYMid meet">
<metadata>
Created by potrace 1.16, written by Peter Selinger 2001-2019
</metadata>
<g transform="translate(0.000000,32.000000) scale(0.100000,-0.100000)"
fill="#000000" stroke="none">
<path fill="#000000" stroke="none" d="M117 120 c-13 -13 -15 -19 -5 -22 7 -2
23 5 35 17 18 18 19 21 5 22 -9 0 -25 -7 -35 -17z"/>
<path fill="#000000" stroke="none" d="M185 100 c3 -5 8 -10 11 -10 2 0 4 5 4
10 0 6 -5 10 -11 10 -5 0 -7 -4 -4 -10z"/>
<path fill="#000000" stroke="none" d="M105 70 c-8 -13 9 -20 24 -11 10 6 9
10 -3 14 -8 3 -18 2 -21 -3z"/>
<path fill="#000000" stroke="none" d="M230 71 c0 -5 7 -12 16 -15 14 -5 15
-4 4 9 -14 17 -20 19 -20 6z"/>
</g>
</svg>
