<?xml version="1.0" standalone="no"?>
<!DOCTYPE svg PUBLIC "-//W3C//DTD SVG 20010904//EN"
 "http://www.w3.org/TR/2001/REC-SVG-20010904/DTD/svg10.dtd">
<svg version="1.0" xmlns="http://www.w3.org/2000/svg"
 width="32.000000pt" height="32.000000pt" viewBox="0 0 32.000000 32.000000"
 preserveAspectRatio="xMidYMid meet">
<metadata>
Created by potrace 1.16, written by Peter Selinger 2001-2019
</metadata>
<g transform="translate(0.000000,32.000000) scale(0.100000,-0.100000)"
fill="#000000" stroke="none">
<path fill="#000000" stroke="none" d="M123 236 l-26 -54 -24 27 -23 26 -21
-25 c-14 -17 -19 -32 -14 -50 23 -96 24 -104 4 -118 -34 -24 -23 -42 26 -42
25 0 45 5 45 10 0 6 12 11 28 11 l27 1 -30 8 c-25 6 -27 8 -12 14 9 5 17 15
17 23 0 8 -5 11 -11 7 -8 -4 -8 0 0 15 13 24 19 27 18 8 -1 -33 4 -47 19 -47
12 0 14 9 12 38 -2 23 -8 36 -15 34 -18 -3 -16 3 4 19 11 10 14 10 9 2 -4 -8
-1 -13 9 -13 10 0 13 5 9 12 -5 9 -2 9 9 -1 20 -16 22 -22 5 -19 -8 2 -14 -11
-16 -35 -2 -28 0 -37 12 -37 15 0 20 14 19 47 -1 19 5 16 18 -8 8 -15 8 -19 0
-15 -6 4 -11 1 -11 -8 0 -8 9 -17 20 -21 11 -3 19 -9 19 -13 -4 -25 4 -32 36
-32 27 0 35 4 35 18 0 10 -4 22 -9 27 -4 6 -4 42 2 83 9 64 9 75 -6 89 -16 16
-18 16 -38 -4 -22 -22 -17 -48 7 -39 8 3 14 2 14 -3 0 -5 -9 -11 -20 -14 -10
-3 -19 -2 -18 2 1 3 -12 34 -30 69 -42 81 -62 82 -99 8z"/>
<path fill="#ffffff" stroke="none" d="M151 237 c-17 -17 -13 -22 14 -22 26 0
33 9 15 20 -5 3 -10 14 -10 23 1 11 6 7 16 -12 15 -26 14 -30 -1 -45 -10 -9
-15 -10 -11 -3 5 7 1 12 -9 12 -10 0 -14 -5 -9 -12 4 -7 -1 -6 -10 3 -15 13
-15 20 -4 44 7 15 14 22 16 15 2 -6 -1 -17 -7 -23z"/>
<path fill="#ffffff" stroke="none" d="M140 170 c-7 -4 -11 -10 -11 -14 1 -3
-1 -6 -4 -6 -3 0 -10 0 -17 0 -6 0 -4 7 5 18 10 10 14 23 10 27 -5 5 0 3 10
-4 12 -10 14 -16 7 -21z"/>
<path fill="#ffffff" stroke="none" d="M207 193 c-4 -3 0 -15 10 -25 15 -16
11 -20 -14 -17 -5 1 -7 5 -5 10 1 5 -3 9 -9 9 -8 0 -8 5 1 15 7 8 15 15 18 15
3 0 2 -3 -1 -7z"/>
<path fill="#ffffff" stroke="none" d="M66 165 c-10 -8 -24 -11 -30 -8 -6 4 0
10 14 14 36 10 37 10 16 -6z"/>
<path fill="#ffffff" stroke="none" d="M281 123 c-8 -15 -10 -15 -11 -2 0 17
10 32 18 25 2 -3 -1 -13 -7 -23z"/>
<path fill="#ffffff" stroke="none" d="M257 98 c-3 -7 -5 -2 -5 12 0 14 2 19
5 13 2 -7 2 -19 0 -25z"/>
<path fill="#ffffff" stroke="none" d="M57 98 c-3 -8 -6 -5 -6 6 -1 11 2 17 5
13 3 -3 4 -12 1 -19z"/>
<path fill="#ffffff" stroke="none" d="M271 73 c-12 -20 -14 -14 -5 12 4 9 9
14 11 11 3 -2 0 -13 -6 -23z"/>
<path fill="#ffffff" stroke="none" d="M73 33 c-7 -2 -19 -2 -25 0 -7 3 -2 5
12 5 14 0 19 -2 13 -5z"/>
<path fill="#000000" stroke="none" d="M163 23 c9 -2 25 -2 35 0 9 3 1 5 -18
5 -19 0 -27 -2 -17 -5z"/>
<path fill="#000000" stroke="none" d="M193 3 c9 -2 25 -2 35 0 9 3 1 5 -18 5
-19 0 -27 -2 -17 -5z"/>
</g>
</svg>
