<?xml version="1.0" standalone="no"?>
<!DOCTYPE svg PUBLIC "-//W3C//DTD SVG 20010904//EN"
 "http://www.w3.org/TR/2001/REC-SVG-20010904/DTD/svg10.dtd">
<svg version="1.0" xmlns="http://www.w3.org/2000/svg"
 width="32.000000pt" height="32.000000pt" viewBox="0 0 32.000000 32.000000"
 preserveAspectRatio="xMidYMid meet">
<metadata>
Created by potrace 1.16, written by Peter Selinger 2001-2019
</metadata>
<g transform="translate(0.000000,32.000000) scale(0.100000,-0.100000)"
fill="#000000" stroke="none">
<path fill="#000000" stroke="none" d="M274 92 c5 -9 -3 -11 -28 -8 -20 3 -38
0 -42 -6 -5 -7 -2 -8 7 -3 8 5 5 -1 -5 -13 -11 -12 -16 -23 -13 -23 4 -1 11
-2 16 -3 5 0 13 -4 17 -8 4 -4 12 -4 18 1 6 5 14 10 19 10 4 1 7 4 8 9 1 4 5
15 10 24 6 11 5 19 -3 24 -7 4 -8 3 -4 -4z"/>
</g>
</svg>
