<?xml version="1.0" standalone="no"?>
<!DOCTYPE svg PUBLIC "-//W3C//DTD SVG 20010904//EN"
 "http://www.w3.org/TR/2001/REC-SVG-20010904/DTD/svg10.dtd">
<svg version="1.0" xmlns="http://www.w3.org/2000/svg"
 width="32.000000pt" height="32.000000pt" viewBox="0 0 32.000000 32.000000"
 preserveAspectRatio="xMidYMid meet">
<metadata>
Created by potrace 1.16, written by Peter Selinger 2001-2019
</metadata>
<g transform="translate(0.000000,32.000000) scale(0.100000,-0.100000)"
fill="#000000" stroke="none">
<path fill="#000000" stroke="none" d="M232 259 c-12 -18 -11 -24 1 -36 12
-12 18 -13 36 -1 11 7 21 16 21 21 0 4 -5 5 -12 1 -7 -5 -9 -2 -5 9 4 12 2 14
-10 10 -11 -4 -14 -2 -9 5 4 7 3 12 -1 12 -5 0 -14 -10 -21 -21z"/>
<path fill="#ffffff" stroke="none" d="M258 231 c3 -8 -1 -12 -9 -9 -7 2 -15
10 -17 17 -3 8 1 12 9 9 7 -2 15 -10 17 -17z"/>
<path fill="#000000" stroke="none" d="M174 225 l26 -21 -73 -72 c-40 -40 -79
-72 -87 -72 -10 0 -11 -3 -3 -11 8 -8 34 11 96 73 79 78 84 85 66 96 -11 7
-18 16 -15 20 2 4 -5 8 -16 8 -18 0 -18 -2 6 -21z"/>
<path fill="#000000" stroke="none" d="M225 182 c3 -3 1 -10 -5 -16 -6 -8 -3
-12 8 -12 10 0 18 8 18 16 0 9 -6 17 -13 17 -7 0 -11 -3 -8 -5z"/>
</g>
</svg>
