<?xml version="1.0" standalone="no"?>
<!DOCTYPE svg PUBLIC "-//W3C//DTD SVG 20010904//EN"
 "http://www.w3.org/TR/2001/REC-SVG-20010904/DTD/svg10.dtd">
<svg version="1.0" xmlns="http://www.w3.org/2000/svg"
 width="32.000000pt" height="32.000000pt" viewBox="0 0 32.000000 32.000000"
 preserveAspectRatio="xMidYMid meet">
<metadata>
Created by potrace 1.16, written by Peter Selinger 2001-2019
</metadata>
<g transform="translate(0.000000,32.000000) scale(0.100000,-0.100000)"
fill="#000000" stroke="none">
<path fill="#000000" stroke="none" d="M179 282 c-14 -15 -34 -46 -44 -69 -17
-40 -22 -43 -56 -43 -41 0 -49 -13 -49 -81 0 -20 -7 -42 -15 -49 -8 -7 -15
-19 -15 -28 0 -11 8 -13 37 -8 21 3 64 6 96 6 43 0 57 4 57 14 0 17 5 21 43
30 25 6 27 4 27 -24 0 -27 3 -30 31 -30 30 0 30 1 27 48 l-3 47 -40 0 c-22 0
-50 -4 -62 -8 -21 -8 -23 -5 -23 22 0 19 5 31 13 31 8 0 23 10 35 23 29 30 31
106 4 130 -25 23 -32 21 -63 -11z"/>
<path fill="#ffffff" stroke="none" d="M250 234 c0 -7 -4 -15 -9 -18 -5 -4 -7
4 -3 16 5 19 4 20 -10 7 -9 -7 -15 -17 -15 -20 1 -4 -2 -7 -8 -8 -5 -1 -10 2
-10 7 0 4 -6 16 -13 27 -12 19 -13 18 -9 -8 3 -19 1 -25 -5 -19 -13 13 -6 47
9 47 6 0 14 3 18 7 10 10 55 -21 55 -38z"/>
<path fill="#ffffff" stroke="none" d="M161 173 c-9 -16 -10 -16 -11 -1 0 9
-3 25 -7 35 -7 17 -6 17 11 1 13 -13 15 -22 7 -35z"/>
<path fill="#ffffff" stroke="none" d="M153 127 c8 -6 7 -7 -3 -4 -9 2 -16 17
-16 38 -2 31 -1 31 3 4 3 -16 10 -34 16 -38z"/>
<path fill="#ffffff" stroke="none" d="M213 176 c4 -10 1 -13 -8 -9 -8 3 -12
9 -9 14 7 12 11 11 17 -5z"/>
<path fill="#ffffff" stroke="none" d="M76 81 c-10 -11 -19 -28 -20 -38 -2
-10 -7 -18 -12 -18 -5 0 -15 -4 -21 -8 -25 -16 -12 8 24 45 38 39 60 53 29 19z"/>
</g>
</svg>
