<?xml version="1.0" standalone="no"?>
<!DOCTYPE svg PUBLIC "-//W3C//DTD SVG 20010904//EN"
 "http://www.w3.org/TR/2001/REC-SVG-20010904/DTD/svg10.dtd">
<svg version="1.0" xmlns="http://www.w3.org/2000/svg"
 width="32.000000pt" height="32.000000pt" viewBox="0 0 32.000000 32.000000"
 preserveAspectRatio="xMidYMid meet">
<metadata>
Created by potrace 1.16, written by Peter Selinger 2001-2019
</metadata>
<g transform="translate(0.000000,32.000000) scale(0.100000,-0.100000)"
fill="#000000" stroke="none">
<path fill="#000000" stroke="none" d="M1 173 c1 -148 9 -155 24 -20 5 40 11
57 21 57 8 0 14 5 14 10 0 6 27 10 60 10 57 0 59 1 51 22 -10 27 -31 36 -31
13 0 -20 -22 -15 -28 6 -3 11 -2 11 7 -1 9 -13 11 -12 11 4 0 16 5 17 38 12
26 -5 33 -4 22 3 -12 8 -10 10 10 9 55 -3 110 3 110 12 0 6 -58 10 -155 10
l-155 0 1 -147z"/>
<path fill="#000000" stroke="none" d="M306 273 c-3 -10 -6 -41 -8 -69 -2 -39
-7 -50 -20 -51 -10 -1 -20 2 -23 7 -13 20 -31 -2 -27 -33 3 -31 5 -32 48 -32
l44 0 0 98 c0 95 -3 114 -14 80z"/>
<path fill="#000000" stroke="none" d="M150 210 c0 -5 5 -10 11 -10 5 0 7 5 4
10 -3 6 -8 10 -11 10 -2 0 -4 -4 -4 -10z"/>
<path fill="#000000" stroke="none" d="M285 65 c-5 -2 -22 -6 -37 -9 -19 -4
-28 -13 -28 -25 0 -12 -9 -21 -22 -24 -13 -2 5 -5 40 -6 l62 -1 0 35 c0 19 -1
35 -2 34 -2 0 -7 -2 -13 -4z"/>
</g>
</svg>
