<?xml version="1.0" standalone="no"?>
<!DOCTYPE svg PUBLIC "-//W3C//DTD SVG 20010904//EN"
 "http://www.w3.org/TR/2001/REC-SVG-20010904/DTD/svg10.dtd">
<svg version="1.0" xmlns="http://www.w3.org/2000/svg"
 width="32.000000pt" height="32.000000pt" viewBox="0 0 32.000000 32.000000"
 preserveAspectRatio="xMidYMid meet">
<metadata>
Created by potrace 1.16, written by Peter Selinger 2001-2019
</metadata>
<g transform="translate(0.000000,32.000000) scale(0.100000,-0.100000)"
fill="#000000" stroke="none">
<path fill="#000000" stroke="none" d="M233 280 c-5 -19 -6 -20 -19 -3 -13 17
-14 17 -20 -5 -4 -14 -12 -21 -21 -18 -19 8 -29 -22 -15 -45 10 -16 0 -29 -73
-102 -47 -46 -85 -89 -85 -96 0 -15 40 -9 180 27 l115 30 3 -34 c5 -53 24 -41
20 14 -3 43 -5 47 -30 50 -26 3 -140 -27 -178 -48 -24 -13 -63 -4 -57 13 2 6
9 13 17 15 9 3 11 -1 7 -12 -4 -10 20 10 54 43 51 52 63 59 78 49 23 -14 53
-4 45 16 -3 8 2 16 13 19 15 4 14 5 -4 6 -12 0 -24 -5 -26 -11 -3 -8 -6 -6 -6
5 -1 17 9 21 39 18 13 -2 13 -1 0 8 -13 9 -12 11 4 11 11 0 16 -5 13 -13 -3
-8 -1 -20 4 -28 5 -9 8 3 7 34 0 33 -5 47 -14 47 -8 0 -14 7 -14 15 0 22 -31
18 -37 -5z"/>
<path fill="#ffffff" stroke="none" d="M271 269 c11 -11 19 -21 17 -22 -1 -1
-17 -9 -35 -18 -23 -13 -34 -14 -42 -6 -9 9 -17 8 -31 -1 -18 -11 -20 -10 -19
10 0 13 3 18 5 11 8 -19 34 -3 34 21 0 16 2 18 9 7 5 -8 7 -21 4 -30 -3 -12 0
-11 11 3 9 11 16 26 16 33 0 18 7 16 31 -8z"/>
<path fill="#ffffff" stroke="none" d="M199 181 c-13 -9 -37 -29 -54 -46 -16
-17 -39 -37 -50 -45 -17 -13 -16 -11 4 18 12 17 26 32 32 32 5 0 21 18 35 40
22 33 29 38 42 28 12 -11 11 -14 -9 -27z"/>
<path fill="#ffffff" stroke="none" d="M250 164 c0 -2 -9 -4 -21 -4 -11 0 -18
4 -14 10 5 8 35 3 35 -6z"/>
<path fill="#ffffff" stroke="none" d="M40 30 c-6 -11 -15 -20 -20 -20 -16 0
-11 18 8 29 24 14 24 14 12 -9z"/>
</g>
</svg>
