<?xml version="1.0" standalone="no"?>
<!DOCTYPE svg PUBLIC "-//W3C//DTD SVG 20010904//EN"
 "http://www.w3.org/TR/2001/REC-SVG-20010904/DTD/svg10.dtd">
<svg version="1.0" xmlns="http://www.w3.org/2000/svg"
 width="32.000000pt" height="32.000000pt" viewBox="0 0 32.000000 32.000000"
 preserveAspectRatio="xMidYMid meet">
<metadata>
Created by potrace 1.16, written by Peter Selinger 2001-2019
</metadata>
<g transform="translate(0.000000,32.000000) scale(0.100000,-0.100000)"
fill="#000000" stroke="none">
<path fill="#000000" stroke="none" d="M225 244 c-13 -28 -19 -33 -31 -23 -7
6 -12 14 -10 18 3 4 -3 7 -13 7 -9 0 -17 -8 -17 -17 0 -9 6 -15 12 -12 7 2 15
-1 19 -7 8 -14 -122 -150 -142 -150 -7 0 -13 -4 -13 -9 0 -29 26 -13 95 59 43
44 82 77 87 74 5 -3 7 -11 5 -18 -3 -6 3 -12 12 -12 9 0 17 8 17 17 0 10 -4
16 -7 13 -4 -2 -10 0 -14 5 -3 6 10 17 30 27 19 9 35 21 35 26 0 5 -5 6 -12 2
-7 -5 -9 -2 -5 9 4 12 2 14 -10 10 -11 -4 -14 -2 -9 5 4 7 3 12 -2 12 -5 0
-17 -16 -27 -36z"/>
<path fill="#ffffff" stroke="none" d="M245 240 c-3 -5 -1 -10 6 -10 7 0 10
-3 6 -6 -9 -9 -28 6 -22 17 4 5 8 9 11 9 3 0 2 -4 -1 -10z"/>
</g>
</svg>
