<?xml version="1.0" standalone="no"?>
<!DOCTYPE svg PUBLIC "-//W3C//DTD SVG 20010904//EN"
 "http://www.w3.org/TR/2001/REC-SVG-20010904/DTD/svg10.dtd">
<svg version="1.0" xmlns="http://www.w3.org/2000/svg"
 width="32.000000pt" height="32.000000pt" viewBox="0 0 32.000000 32.000000"
 preserveAspectRatio="xMidYMid meet">
<metadata>
Created by potrace 1.16, written by Peter Selinger 2001-2019
</metadata>
<g transform="translate(0.000000,32.000000) scale(0.100000,-0.100000)"
fill="#000000" stroke="none">
<path fill="#000000" stroke="none" d="M0 160 l0 -160 160 0 160 0 0 160 0
160 -160 0 -160 0 0 -160z"/>
<path fill="#ffffff" stroke="none" d="M268 288 c7 -7 12 -19 11 -27 0 -11 -2
-12 -6 -3 -7 17 -23 15 -23 -3 0 -8 -6 -15 -13 -15 -8 0 -14 7 -14 15 0 8 7
15 15 15 8 0 12 6 8 15 -7 18 5 20 22 3z"/>
<path fill="#ffffff" stroke="none" d="M130 145 c-46 -46 -86 -82 -89 -79 -7
6 162 173 168 168 3 -2 -33 -42 -79 -89z"/>
</g>
</svg>
