<?xml version="1.0" standalone="no"?>
<!DOCTYPE svg PUBLIC "-//W3C//DTD SVG 20010904//EN"
 "http://www.w3.org/TR/2001/REC-SVG-20010904/DTD/svg10.dtd">
<svg version="1.0" xmlns="http://www.w3.org/2000/svg"
 width="32.000000pt" height="32.000000pt" viewBox="0 0 32.000000 32.000000"
 preserveAspectRatio="xMidYMid meet">
<metadata>
Created by potrace 1.16, written by Peter Selinger 2001-2019
</metadata>
<g transform="translate(0.000000,32.000000) scale(0.100000,-0.100000)"
fill="#000000" stroke="none">
<path fill="#000000" stroke="none" d="M0 160 l0 -160 160 0 160 0 0 160 0
160 -160 0 -160 0 0 -160z"/>
<path fill="#ffffff" stroke="none" d="M280 270 c5 0 11 6 13 13 3 7 6 5 6 -5
1 -10 -6 -18 -14 -18 -8 0 -15 -5 -15 -10 0 -6 -11 -15 -25 -20 -14 -5 -25
-17 -26 -27 0 -11 -3 -13 -6 -5 -3 9 -12 5 -29 -13 -13 -14 -24 -23 -24 -19 0
3 -8 -4 -19 -17 -10 -13 -16 -29 -14 -36 3 -8 -3 -13 -16 -13 -12 0 -21 -6
-21 -15 0 -8 -4 -15 -10 -15 -22 0 -6 24 61 89 42 42 66 72 59 76 -6 4 -17 4
-25 1 -9 -3 -12 0 -8 10 6 16 19 18 28 4 6 -9 55 -11 55 -1 0 2 -8 10 -17 17
-15 10 -16 15 -5 26 11 11 12 10 7 -7 -6 -19 -5 -19 12 1 17 21 18 21 21 3 2
-11 7 -19 12 -19z"/>
<path fill="#ffffff" stroke="none" d="M278 218 c-7 -13 -11 -30 -10 -39 2
-10 -6 -19 -20 -22 -22 -6 -22 -5 -4 8 10 7 16 17 13 22 -7 12 11 53 23 53 7
0 6 -8 -2 -22z"/>
<path fill="#ffffff" stroke="none" d="M51 52 c-6 -2 -9 -7 -6 -12 3 -4 -2
-10 -10 -14 -19 -7 -19 -1 2 31 11 17 19 21 22 12 2 -7 -1 -15 -8 -17z"/>
</g>
</svg>
