<?xml version="1.0" standalone="no"?>
<!DOCTYPE svg PUBLIC "-//W3C//DTD SVG 20010904//EN"
 "http://www.w3.org/TR/2001/REC-SVG-20010904/DTD/svg10.dtd">
<svg version="1.0" xmlns="http://www.w3.org/2000/svg"
 width="32.000000pt" height="32.000000pt" viewBox="0 0 32.000000 32.000000"
 preserveAspectRatio="xMidYMid meet">
<metadata>
Created by potrace 1.16, written by Peter Selinger 2001-2019
</metadata>
<g transform="translate(0.000000,32.000000) scale(0.100000,-0.100000)"
fill="#000000" stroke="none">
<path fill="#000000" stroke="none" d="M142 280 c-5 -3 -9 -17 -10 -33 -2 -25
0 -27 26 -20 60 15 67 11 67 -34 0 -22 -3 -39 -7 -37 -3 2 -8 -2 -11 -8 -2 -7
-8 -9 -13 -5 -5 4 -3 11 3 15 6 4 14 22 18 41 7 32 6 34 -16 28 -13 -4 -30 -7
-37 -7 -7 0 -10 -5 -6 -12 5 -7 1 -9 -13 -6 -17 4 -22 0 -26 -21 -5 -24 -9
-27 -41 -23 l-36 4 0 -47 c0 -40 2 -46 14 -36 10 9 16 9 21 1 4 -6 4 -14 1
-17 -3 -4 -6 -1 -6 6 0 7 -4 10 -10 6 -5 -3 -7 -13 -4 -23 5 -14 4 -15 -5 -2
-10 14 -16 7 -11 -15 1 -5 -2 -7 -6 -3 -9 10 -35 -12 -28 -23 8 -13 137 1 149
16 9 11 88 35 114 35 6 0 11 -13 11 -30 0 -24 4 -30 21 -30 18 0 20 5 17 48
-3 43 -5 47 -31 50 -15 2 -50 -4 -78 -13 -57 -19 -75 -12 -40 15 20 14 29 15
43 7 31 -20 59 20 65 92 3 33 3 61 0 61 -21 0 -34 -14 -31 -33 4 -20 4 -20 -4
-3 -5 11 -17 23 -28 28 -17 8 -17 8 3 4 18 -3 33 10 33 30 0 9 -37 3 -49 -8
-11 -10 -12 -10 -7 -1 5 9 -1 12 -19 11 -14 -1 -29 -5 -33 -8z"/>
<path fill="#ffffff" stroke="none" d="M185 190 c3 -5 1 -10 -4 -10 -6 0 -11
5 -11 10 0 6 2 10 4 10 3 0 8 -4 11 -10z"/>
<path fill="#ffffff" stroke="none" d="M157 184 c-3 -3 -12 -4 -19 -1 -8 3 -5
6 6 6 11 1 17 -2 13 -5z"/>
<path fill="#ffffff" stroke="none" d="M244 135 c-4 -8 -11 -15 -16 -15 -6 0
-5 6 2 15 7 8 14 15 16 15 2 0 1 -7 -2 -15z"/>
<path fill="#ffffff" stroke="none" d="M110 116 c10 -13 10 -17 3 -12 -9 5
-13 1 -14 -11 0 -16 -1 -16 -8 2 -7 16 -3 55 3 43 1 -2 8 -12 16 -22z"/>
</g>
</svg>
