<?xml version="1.0" standalone="no"?>
<!DOCTYPE svg PUBLIC "-//W3C//DTD SVG 20010904//EN"
 "http://www.w3.org/TR/2001/REC-SVG-20010904/DTD/svg10.dtd">
<svg version="1.0" xmlns="http://www.w3.org/2000/svg"
 width="32.000000pt" height="32.000000pt" viewBox="0 0 32.000000 32.000000"
 preserveAspectRatio="xMidYMid meet">
<metadata>
Created by potrace 1.16, written by Peter Selinger 2001-2019
</metadata>
<g transform="translate(0.000000,32.000000) scale(0.100000,-0.100000)"
fill="#000000" stroke="none">
<path fill="#000000" stroke="none" d="M0 168 l0 -153 25 30 c19 24 24 42 25
88 l0 57 61 0 61 0 -32 -40 c-18 -22 -40 -45 -50 -50 -10 -6 -29 -25 -41 -42
-15 -21 -17 -28 -7 -20 10 8 21 11 26 8 9 -5 52 29 52 41 0 4 -12 -4 -27 -18
-24 -21 -23 -19 6 18 38 50 51 59 60 45 4 -7 12 -3 20 11 13 21 13 21 -5 7
-18 -14 -19 -14 -1 7 18 20 17 21 -12 43 -17 12 -31 30 -31 39 0 24 25 45 48
39 10 -3 27 1 37 8 26 19 49 17 69 -5 13 -15 15 -30 11 -82 -9 -88 -36 -115
-69 -67 -13 18 -18 19 -31 8 -8 -7 -15 -24 -15 -37 0 -23 3 -24 28 -17 15 5
46 8 70 9 l42 0 0 113 0 112 -160 0 -160 0 0 -152z"/>
<path fill="#000000" stroke="none" d="M238 283 c7 -3 16 -2 19 1 4 3 -2 6
-13 5 -11 0 -14 -3 -6 -6z"/>
<path fill="#000000" stroke="none" d="M207 273 c-2 -1 -2 -16 1 -33 4 -28 17
-35 58 -29 4 0 11 -5 16 -13 8 -10 9 -10 5 2 -2 8 -9 14 -14 13 -5 -1 -8 11
-5 26 3 25 0 29 -27 33 -17 3 -33 3 -34 1z"/>
<path fill="#ffffff" stroke="none" d="M249 234 c-6 -7 -15 -11 -21 -8 -5 3
-4 12 3 20 6 7 15 11 21 8 5 -3 4 -12 -3 -20z"/>
<path fill="#000000" stroke="none" d="M146 261 c-4 -5 3 -7 14 -4 17 4 20 0
20 -24 0 -16 5 -34 12 -41 7 -7 25 -12 41 -12 24 0 28 -4 25 -18 -3 -11 0 -19
7 -19 16 0 7 37 -11 44 -7 2 -19 6 -28 7 -8 1 -19 5 -23 9 -4 4 -8 15 -9 23
-5 30 -14 44 -28 44 -8 0 -17 -4 -20 -9z"/>
<path fill="#000000" stroke="none" d="M281 244 c0 -11 3 -14 6 -6 3 7 2 16
-1 19 -3 4 -6 -2 -5 -13z"/>
<path fill="#000000" stroke="none" d="M208 163 c7 -3 16 -2 19 1 4 3 -2 6
-13 5 -11 0 -14 -3 -6 -6z"/>
<path fill="#000000" stroke="none" d="M136 112 c-3 -6 -1 -14 5 -17 15 -10
25 3 12 16 -7 7 -13 7 -17 1z"/>
<path fill="#000000" stroke="none" d="M275 63 c-74 -17 -95 -25 -95 -38 0
-10 -17 -15 -62 -18 -35 -2 -8 -4 60 -5 l122 -2 0 35 c0 19 -1 34 -2 34 -2 -1
-12 -3 -23 -6z"/>
</g>
</svg>
