<?xml version="1.0" standalone="no"?>
<!DOCTYPE svg PUBLIC "-//W3C//DTD SVG 20010904//EN"
 "http://www.w3.org/TR/2001/REC-SVG-20010904/DTD/svg10.dtd">
<svg version="1.0" xmlns="http://www.w3.org/2000/svg"
 width="32.000000pt" height="32.000000pt" viewBox="0 0 32.000000 32.000000"
 preserveAspectRatio="xMidYMid meet">
<metadata>
Created by potrace 1.16, written by Peter Selinger 2001-2019
</metadata>
<g transform="translate(0.000000,32.000000) scale(0.100000,-0.100000)"
fill="#000000" stroke="none">
<path fill="#000000" stroke="none" d="M0 160 l0 -160 160 0 160 0 0 160 0
160 -160 0 -160 0 0 -160z"/>
<path fill="#ffffff" stroke="none" d="M274 277 c12 -19 9 -23 -27 -32 -31 -8
-34 9 -7 33 11 10 11 12 1 6 -10 -5 -12 -3 -7 5 10 15 26 10 40 -12z"/>
<path fill="#ffffff" stroke="none" d="M130 145 c-46 -46 -86 -82 -89 -79 -7
6 162 173 168 168 3 -2 -33 -42 -79 -89z"/>
</g>
</svg>
