<?xml version="1.0" standalone="no"?>
<!DOCTYPE svg PUBLIC "-//W3C//DTD SVG 20010904//EN"
 "http://www.w3.org/TR/2001/REC-SVG-20010904/DTD/svg10.dtd">
<svg version="1.0" xmlns="http://www.w3.org/2000/svg"
 width="32.000000pt" height="32.000000pt" viewBox="0 0 32.000000 32.000000"
 preserveAspectRatio="xMidYMid meet">
<metadata>
Created by potrace 1.16, written by Peter Selinger 2001-2019
</metadata>
<g transform="translate(0.000000,32.000000) scale(0.100000,-0.100000)"
fill="#000000" stroke="none">
<path fill="#000000" stroke="none" d="M0 160 l0 -160 160 0 160 0 0 160 0
160 -160 0 -160 0 0 -160z"/>
<path fill="#ffffff" stroke="none" d="M268 288 c7 -7 12 -19 11 -27 0 -11 -2
-12 -6 -3 -7 17 -23 15 -23 -3 0 -8 -4 -15 -9 -15 -5 0 -11 7 -15 15 -3 9 0
15 10 15 10 0 14 6 10 15 -7 18 5 20 22 3z"/>
<path fill="#ffffff" stroke="none" d="M120 135 c-41 -41 -76 -72 -79 -69 -6
6 130 144 143 144 5 0 -24 -34 -64 -75z"/>
</g>
</svg>
