<?xml version="1.0" standalone="no"?>
<!DOCTYPE svg PUBLIC "-//W3C//DTD SVG 20010904//EN"
 "http://www.w3.org/TR/2001/REC-SVG-20010904/DTD/svg10.dtd">
<svg version="1.0" xmlns="http://www.w3.org/2000/svg"
 width="32.000000pt" height="32.000000pt" viewBox="0 0 32.000000 32.000000"
 preserveAspectRatio="xMidYMid meet">
<metadata>
Created by potrace 1.16, written by Peter Selinger 2001-2019
</metadata>
<g transform="translate(0.000000,32.000000) scale(0.100000,-0.100000)"
fill="#000000" stroke="none">
<path fill="#000000" stroke="none" d="M0 185 c0 -88 4 -135 11 -135 5 0 7 -6
3 -12 -4 -7 7 0 24 16 18 17 32 32 32 35 0 2 -11 -6 -25 -19 l-25 -23 0 66 c0
53 3 67 15 67 8 0 15 7 15 16 0 14 9 16 58 11 46 -5 54 -3 41 6 -16 12 -24 66
-10 68 3 0 19 3 34 5 22 4 27 2 21 -8 -5 -10 -4 -11 7 0 20 18 53 16 45 -4 -3
-9 -6 -18 -6 -20 0 -3 -6 -2 -12 2 -9 5 -9 2 1 -9 14 -18 26 -23 17 -8 -5 8
15 21 31 21 3 0 3 -28 0 -62 -4 -49 -10 -67 -29 -83 l-23 -20 47 0 48 0 0 113
0 112 -160 0 -160 0 0 -135z"/>
<path fill="#000000" stroke="none" d="M190 150 c0 -5 5 -10 10 -10 6 0 10 5
10 10 0 6 -4 10 -10 10 -5 0 -10 -4 -10 -10z"/>
<path fill="#000000" stroke="none" d="M230 135 c-7 -9 -8 -15 -2 -15 5 0 12
7 16 15 3 8 4 15 2 15 -2 0 -9 -7 -16 -15z"/>
<path fill="#000000" stroke="none" d="M86 123 c-6 -14 -5 -15 5 -6 7 7 10 15
7 18 -3 3 -9 -2 -12 -12z"/>
<path fill="#000000" stroke="none" d="M220 38 c-15 -17 -36 -23 -92 -28 -70
-7 -68 -7 40 -9 l112 -1 0 30 c0 37 -29 41 -60 8z"/>
</g>
</svg>
