<?xml version="1.0" standalone="no"?>
<!DOCTYPE svg PUBLIC "-//W3C//DTD SVG 20010904//EN"
 "http://www.w3.org/TR/2001/REC-SVG-20010904/DTD/svg10.dtd">
<svg version="1.0" xmlns="http://www.w3.org/2000/svg"
 width="32.000000pt" height="32.000000pt" viewBox="0 0 32.000000 32.000000"
 preserveAspectRatio="xMidYMid meet">
<metadata>
Created by potrace 1.16, written by Peter Selinger 2001-2019
</metadata>
<g transform="translate(0.000000,32.000000) scale(0.100000,-0.100000)"
fill="#000000" stroke="none">
<path fill="#000000" stroke="none" d="M0 178 c0 -135 8 -186 24 -159 4 6 11
9 16 6 5 -3 30 15 56 40 27 25 44 45 39 45 -5 0 -27 -17 -50 -37 l-40 -38 40
43 c21 23 48 42 60 42 14 0 16 3 7 8 -19 13 22 46 48 39 12 -3 18 -1 14 5 -3
5 3 16 15 24 12 8 21 25 21 37 0 26 -26 67 -42 67 -6 0 -3 -10 8 -22 13 -16
14 -19 2 -10 -11 9 -18 10 -23 2 -3 -6 -11 -8 -16 -5 -15 10 -28 -38 -15 -55
10 -13 9 -13 -8 0 -18 14 -19 13 -12 -15 5 -22 4 -26 -4 -15 -8 12 -10 11 -10
-8 0 -15 -4 -21 -12 -16 -7 5 -9 2 -6 -8 4 -10 -13 -34 -50 -69 -31 -30 -51
-47 -44 -39 6 7 12 30 12 50 0 67 8 80 49 80 34 0 39 3 56 43 19 44 62 96 81
97 37 1 59 -85 29 -110 -21 -18 -19 -35 3 -19 9 7 6 1 -7 -14 -14 -15 -30 -27
-38 -27 -8 0 -13 -12 -13 -31 0 -27 2 -30 23 -22 12 4 41 8 65 8 l42 0 0 113
0 112 -160 0 -160 0 0 -142z"/>
<path fill="#ffffff" stroke="none" d="M196 203 c3 -31 -8 -16 -21 27 -6 20
-5 23 5 13 7 -7 15 -25 16 -40z"/>
<path fill="#ffffff" stroke="none" d="M228 214 c-13 -13 -15 -13 -15 0 0 8 4
13 9 10 4 -3 8 3 9 13 0 12 2 14 6 5 3 -8 -1 -20 -9 -28z"/>
<path fill="#000000" stroke="none" d="M165 150 c-8 -13 5 -13 25 0 13 8 13
10 -2 10 -9 0 -20 -4 -23 -10z"/>
<path fill="#000000" stroke="none" d="M221 53 c-13 -3 -26 -13 -28 -23 -4
-16 -17 -20 -77 -23 -56 -2 -49 -3 37 -5 l107 -2 0 30 c0 17 -3 29 -7 29 -5
-1 -19 -4 -32 -6z"/>
</g>
</svg>
