<?xml version="1.0" standalone="no"?>
<!DOCTYPE svg PUBLIC "-//W3C//DTD SVG 20010904//EN"
 "http://www.w3.org/TR/2001/REC-SVG-20010904/DTD/svg10.dtd">
<svg version="1.0" xmlns="http://www.w3.org/2000/svg"
 width="32.000000pt" height="32.000000pt" viewBox="0 0 32.000000 32.000000"
 preserveAspectRatio="xMidYMid meet">
<metadata>
Created by potrace 1.16, written by Peter Selinger 2001-2019
</metadata>
<g transform="translate(0.000000,32.000000) scale(0.100000,-0.100000)"
fill="#000000" stroke="none">
<path fill="#000000" stroke="none" d="M118 303 c7 -3 16 -2 19 1 4 3 -2 6
-13 5 -11 0 -14 -3 -6 -6z"/>
<path fill="#000000" stroke="none" d="M103 276 c5 -15 24 -18 24 -3 0 8 -6
14 -14 14 -7 0 -12 -5 -10 -11z"/>
<path fill="#000000" stroke="none" d="M180 247 c0 -8 7 -18 16 -21 11 -4 14
-1 12 11 -4 21 -28 30 -28 10z"/>
<path fill="#000000" stroke="none" d="M108 233 c13 -24 62 -29 62 -7 0 11 -6
15 -19 11 -10 -2 -26 0 -35 5 -15 9 -16 7 -8 -9z"/>
<path fill="#000000" stroke="none" d="M50 191 c0 -6 4 -13 10 -16 6 -3 7 1 4
9 -7 18 -14 21 -14 7z"/>
<path fill="#000000" stroke="none" d="M220 191 c0 -5 5 -13 10 -16 6 -3 10
-2 10 4 0 5 -4 13 -10 16 -5 3 -10 2 -10 -4z"/>
<path fill="#000000" stroke="none" d="M201 115 c-35 -49 -61 -53 -36 -6 14
28 14 29 -16 33 -27 4 -33 0 -49 -32 -21 -41 -21 -72 1 -78 11 -3 11 -1 -1 7
-8 6 -10 11 -5 11 6 0 17 -6 23 -13 19 -18 33 -16 70 11 31 22 35 23 51 8 22
-20 45 -20 61 -2 14 18 10 58 -7 63 -7 3 -10 -3 -6 -15 7 -27 -14 -37 -36 -18
-10 9 -26 16 -36 16 -17 0 -17 1 0 20 10 11 22 17 26 14 5 -3 9 2 9 10 0 27
-15 18 -49 -29z"/>
</g>
</svg>
