<?xml version="1.0" standalone="no"?>
<!DOCTYPE svg PUBLIC "-//W3C//DTD SVG 20010904//EN"
 "http://www.w3.org/TR/2001/REC-SVG-20010904/DTD/svg10.dtd">
<svg version="1.0" xmlns="http://www.w3.org/2000/svg"
 width="32.000000pt" height="32.000000pt" viewBox="0 0 32.000000 32.000000"
 preserveAspectRatio="xMidYMid meet">
<metadata>
Created by potrace 1.16, written by Peter Selinger 2001-2019
</metadata>
<g transform="translate(0.000000,32.000000) scale(0.100000,-0.100000)"
fill="#000000" stroke="none">
<path fill="#000000" stroke="none" d="M0 160 l0 -160 160 0 160 0 0 160 0
160 -160 0 -160 0 0 -160z"/>
<path fill="#ffffff" stroke="none" d="M155 284 c11 -17 23 -24 35 -21 20 5
46 -18 49 -43 0 -8 4 -32 7 -54 5 -30 3 -37 -7 -34 -8 3 -14 17 -14 31 -1 15
-8 34 -16 42 -13 14 -15 11 -18 -27 -1 -23 -6 -45 -10 -48 -4 -3 -13 -15 -20
-27 -13 -26 1 -40 19 -18 16 20 49 19 71 -1 22 -19 43 -9 36 18 -4 12 -1 18 6
15 18 -6 14 -58 -5 -70 -12 -8 -24 -7 -42 3 -24 12 -28 11 -55 -14 -23 -22
-36 -27 -67 -24 -51 4 -55 29 -19 110 15 33 24 62 21 65 -3 4 -6 2 -6 -4 0
-17 -29 -24 -51 -13 -28 15 -24 33 5 26 27 -7 46 11 26 24 -9 5 -9 13 -1 27 5
11 8 23 4 26 -9 10 5 37 21 37 7 0 21 -12 31 -26z"/>
</g>
</svg>
