<?xml version="1.0" standalone="no"?>
<!DOCTYPE svg PUBLIC "-//W3C//DTD SVG 20010904//EN"
 "http://www.w3.org/TR/2001/REC-SVG-20010904/DTD/svg10.dtd">
<svg version="1.0" xmlns="http://www.w3.org/2000/svg"
 width="32.000000pt" height="32.000000pt" viewBox="0 0 32.000000 32.000000"
 preserveAspectRatio="xMidYMid meet">
<metadata>
Created by potrace 1.16, written by Peter Selinger 2001-2019
</metadata>
<g transform="translate(0.000000,32.000000) scale(0.100000,-0.100000)"
fill="#000000" stroke="none">
<path fill="#000000" stroke="none" d="M0 160 l0 -160 160 0 160 0 0 160 0
160 -160 0 -160 0 0 -160z"/>
<path fill="#ffffff" stroke="none" d="M280 241 c0 -37 -2 -40 -32 -43 -28 -2
-34 -8 -36 -30 -2 -20 -9 -28 -23 -28 -10 0 -19 -4 -19 -10 0 -5 -6 -7 -14 -4
-8 3 -33 -18 -63 -51 -41 -47 -51 -54 -61 -43 -9 12 -1 24 44 62 33 29 53 54
50 62 -3 8 -1 14 4 14 6 0 10 9 10 19 0 14 8 21 28 23 22 2 28 8 30 36 3 30 6
32 43 32 39 0 39 0 39 -39z"/>
<path fill="#000000" stroke="none" d="M220 240 c0 -13 7 -20 20 -20 13 0 20
7 20 20 0 13 -7 20 -20 20 -13 0 -20 -7 -20 -20z"/>
<path fill="#000000" stroke="none" d="M160 175 c0 -8 7 -15 15 -15 8 0 15 7
15 15 0 8 -7 15 -15 15 -8 0 -15 -7 -15 -15z"/>
</g>
</svg>
