<?xml version="1.0" standalone="no"?>
<!DOCTYPE svg PUBLIC "-//W3C//DTD SVG 20010904//EN"
 "http://www.w3.org/TR/2001/REC-SVG-20010904/DTD/svg10.dtd">
<svg version="1.0" xmlns="http://www.w3.org/2000/svg"
 width="32.000000pt" height="32.000000pt" viewBox="0 0 32.000000 32.000000"
 preserveAspectRatio="xMidYMid meet">
<metadata>
Created by potrace 1.16, written by Peter Selinger 2001-2019
</metadata>
<g transform="translate(0.000000,32.000000) scale(0.100000,-0.100000)"
fill="#000000" stroke="none">
<path fill="#000000" stroke="none" d="M230 265 c0 -19 4 -35 8 -35 5 0 7 13
4 29 -3 22 0 30 15 34 15 4 14 5 -4 6 -20 1 -23 -4 -23 -34z"/>
<path fill="#000000" stroke="none" d="M290 256 c0 -8 -6 -17 -12 -19 -8 -3
-6 -6 5 -6 11 -1 17 6 17 19 0 11 -2 20 -5 20 -3 0 -5 -6 -5 -14z"/>
<path fill="#000000" stroke="none" d="M190 225 c0 -2 6 -8 13 -14 10 -8 14
-7 14 2 0 8 -6 14 -14 14 -7 0 -13 -1 -13 -2z"/>
<path fill="#000000" stroke="none" d="M164 178 l-19 -23 23 19 c21 18 27 26
19 26 -2 0 -12 -10 -23 -22z"/>
</g>
</svg>
