<?xml version="1.0" standalone="no"?>
<!DOCTYPE svg PUBLIC "-//W3C//DTD SVG 20010904//EN"
 "http://www.w3.org/TR/2001/REC-SVG-20010904/DTD/svg10.dtd">
<svg version="1.0" xmlns="http://www.w3.org/2000/svg"
 width="32.000000pt" height="32.000000pt" viewBox="0 0 32.000000 32.000000"
 preserveAspectRatio="xMidYMid meet">
<metadata>
Created by potrace 1.16, written by Peter Selinger 2001-2019
</metadata>
<g transform="translate(0.000000,32.000000) scale(0.100000,-0.100000)"
fill="#000000" stroke="none">
<path fill="#000000" stroke="none" d="M0 160 l0 -160 160 0 160 0 0 160 0
160 -160 0 -160 0 0 -160z"/>
<path fill="#ffffff" stroke="none" d="M204 259 c14 -11 26 -27 26 -35 0 -25
30 -78 58 -102 l27 -23 -35 -29 c-25 -22 -42 -28 -59 -24 -13 3 -37 0 -53 -7
-23 -9 -36 -9 -71 5 -23 9 -53 25 -66 35 l-25 19 32 36 c17 20 36 54 42 76 18
67 73 89 124 49z"/>
</g>
</svg>
