<?xml version="1.0" standalone="no"?>
<!DOCTYPE svg PUBLIC "-//W3C//DTD SVG 20010904//EN"
 "http://www.w3.org/TR/2001/REC-SVG-20010904/DTD/svg10.dtd">
<svg version="1.0" xmlns="http://www.w3.org/2000/svg"
 width="32.000000pt" height="32.000000pt" viewBox="0 0 32.000000 32.000000"
 preserveAspectRatio="xMidYMid meet">
<metadata>
Created by potrace 1.16, written by Peter Selinger 2001-2019
</metadata>
<g transform="translate(0.000000,32.000000) scale(0.100000,-0.100000)"
fill="#000000" stroke="none">
<path fill="#000000" stroke="none" d="M113 265 c-13 -9 -27 -34 -33 -55 -6
-22 -24 -55 -40 -74 -30 -33 -31 -50 -3 -39 8 3 21 -3 29 -16 8 -11 20 -21 26
-21 6 0 20 -8 30 -17 16 -14 21 -15 27 -4 5 8 28 14 52 14 24 1 49 5 54 10 6
4 19 14 30 21 19 14 19 15 1 35 -10 11 -22 18 -27 16 -4 -3 -11 0 -15 6 -5 8
-3 9 6 4 10 -6 11 -4 5 11 -4 10 -13 35 -20 54 -23 63 -76 87 -122 55z"/>
<path fill="#ffffff" stroke="none" d="M221 197 c3 -4 3 -21 1 -38 -6 -38 -24
-24 -27 20 -2 28 11 38 26 18z"/>
<path fill="#ffffff" stroke="none" d="M188 161 c-1 -15 3 -34 7 -42 5 -8 5
-11 0 -7 -4 4 -13 3 -20 -2 -8 -6 -12 -6 -12 3 -1 6 -4 27 -8 45 -7 28 -5 32
13 32 16 0 20 -6 20 -29z"/>
<path fill="#ffffff" stroke="none" d="M114 172 c2 -4 1 -14 -5 -22 -5 -8 -9
-11 -9 -6 0 5 -7 3 -15 -4 -21 -18 -29 -6 -13 19 13 21 33 27 42 13z"/>
<path fill="#ffffff" stroke="none" d="M123 119 c-6 -6 -15 -4 -24 7 -8 10 -9
15 -2 11 6 -4 15 -2 19 5 6 9 9 9 12 -1 2 -7 0 -17 -5 -22z"/>
<path fill="#ffffff" stroke="none" d="M260 100 c-19 -13 -30 -13 -30 0 0 6
10 10 23 10 18 0 19 -2 7 -10z"/>
</g>
</svg>
