<?xml version="1.0" standalone="no"?>
<!DOCTYPE svg PUBLIC "-//W3C//DTD SVG 20010904//EN"
 "http://www.w3.org/TR/2001/REC-SVG-20010904/DTD/svg10.dtd">
<svg version="1.0" xmlns="http://www.w3.org/2000/svg"
 width="32.000000pt" height="32.000000pt" viewBox="0 0 32.000000 32.000000"
 preserveAspectRatio="xMidYMid meet">
<metadata>
Created by potrace 1.16, written by Peter Selinger 2001-2019
</metadata>
<g transform="translate(0.000000,32.000000) scale(0.100000,-0.100000)"
fill="#000000" stroke="none">
<path fill="#000000" stroke="none" d="M0 160 l0 -160 160 0 160 0 0 160 0
160 -160 0 -160 0 0 -160z"/>
<path fill="#ffffff" stroke="none" d="M231 252 c21 -18 33 -41 39 -70 4 -23
3 -39 -1 -36 -5 3 -9 12 -9 20 0 8 -10 14 -25 14 -17 0 -23 -4 -19 -15 4 -8
-1 -17 -9 -21 -9 -3 -13 -12 -10 -20 3 -8 0 -14 -6 -14 -6 0 -11 4 -11 10 0 5
-7 7 -15 4 -8 -4 -21 -1 -29 5 -7 6 -16 7 -20 3 -4 -4 -7 -2 -6 3 9 44 -38 63
-56 22 -6 -12 -9 -16 -7 -9 2 8 3 25 3 39 0 15 13 38 34 59 45 45 101 47 147
6z"/>
<path fill="#ffffff" stroke="none" d="M137 74 c9 4 21 2 28 -4 9 -8 15 -8 20
0 3 5 16 10 28 10 21 -1 21 -1 2 -12 -19 -11 -19 -11 0 -19 17 -6 15 -8 -9 -8
-16 -1 -34 6 -40 14 -9 12 -18 13 -46 5 -48 -14 -70 -13 -70 4 0 18 29 25 53
13 10 -4 26 -6 34 -3z"/>
<path fill="#000000" stroke="none" d="M176 231 c-3 -4 2 -15 12 -24 16 -14
17 -14 18 9 2 23 -19 34 -30 15z"/>
<path fill="#000000" stroke="none" d="M105 209 c-11 -17 -2 -18 25 -4 24 14
24 14 3 15 -12 0 -25 -5 -28 -11z"/>
</g>
</svg>
