<?xml version="1.0" standalone="no"?>
<!DOCTYPE svg PUBLIC "-//W3C//DTD SVG 20010904//EN"
 "http://www.w3.org/TR/2001/REC-SVG-20010904/DTD/svg10.dtd">
<svg version="1.0" xmlns="http://www.w3.org/2000/svg"
 width="32.000000pt" height="32.000000pt" viewBox="0 0 32.000000 32.000000"
 preserveAspectRatio="xMidYMid meet">
<metadata>
Created by potrace 1.16, written by Peter Selinger 2001-2019
</metadata>
<g transform="translate(0.000000,32.000000) scale(0.100000,-0.100000)"
fill="#000000" stroke="none">
<path fill="#000000" stroke="none" d="M155 261 c-7 -12 12 -24 25 -16 11 7 4
25 -10 25 -5 0 -11 -4 -15 -9z"/>
<path fill="#000000" stroke="none" d="M60 230 c0 -5 5 -10 10 -10 6 0 10 5
10 10 0 6 -4 10 -10 10 -5 0 -10 -4 -10 -10z"/>
<path fill="#000000" stroke="none" d="M270 190 c0 -5 5 -10 10 -10 6 0 10 5
10 10 0 6 -4 10 -10 10 -5 0 -10 -4 -10 -10z"/>
<path fill="#000000" stroke="none" d="M154 125 c-4 -8 -11 -12 -17 -8 -6 3
-7 1 -3 -5 10 -16 14 -15 26 8 6 11 8 20 5 20 -3 0 -8 -7 -11 -15z"/>
<path fill="#000000" stroke="none" d="M257 79 c7 -7 15 -10 18 -7 3 3 -2 9
-12 12 -14 6 -15 5 -6 -5z"/>
<path fill="#000000" stroke="none" d="M209 69 c-10 -6 -7 -9 14 -9 29 0 35 5
14 13 -8 3 -20 1 -28 -4z"/>
<path fill="#000000" stroke="none" d="M125 60 c3 -5 13 -10 21 -10 8 0 12 5
9 10 -3 6 -13 10 -21 10 -8 0 -12 -4 -9 -10z"/>
</g>
</svg>
