<?xml version="1.0" standalone="no"?>
<!DOCTYPE svg PUBLIC "-//W3C//DTD SVG 20010904//EN"
 "http://www.w3.org/TR/2001/REC-SVG-20010904/DTD/svg10.dtd">
<svg version="1.0" xmlns="http://www.w3.org/2000/svg"
 width="32.000000pt" height="32.000000pt" viewBox="0 0 32.000000 32.000000"
 preserveAspectRatio="xMidYMid meet">
<metadata>
Created by potrace 1.16, written by Peter Selinger 2001-2019
</metadata>
<g transform="translate(0.000000,32.000000) scale(0.100000,-0.100000)"
fill="#000000" stroke="none">
<path fill="#000000" stroke="none" d="M135 310 c-4 -6 -10 -8 -15 -5 -10 6
-70 -52 -70 -69 0 -6 5 -17 11 -23 8 -8 5 -16 -8 -29 -43 -43 -10 -136 37
-106 33 20 35 13 5 -18 -16 -16 -25 -33 -22 -37 4 -3 30 -6 58 -5 38 1 58 7
75 23 12 11 28 18 34 14 12 -7 40 11 40 27 0 5 -9 6 -21 3 -17 -6 -20 -3 -17
12 2 10 11 17 21 15 19 -3 21 6 8 27 -6 9 -5 21 2 33 9 14 9 23 0 38 -7 10
-10 26 -7 35 3 8 2 15 -3 15 -16 0 -33 -23 -33 -44 0 -13 -3 -17 -10 -10 -11
11 -1 56 11 48 5 -3 9 0 9 5 0 6 10 11 21 11 17 0 20 -4 16 -22 -4 -14 0 -29
10 -40 15 -17 15 -20 -3 -40 l-18 -23 24 22 c23 21 23 23 7 41 -11 12 -15 26
-11 37 5 12 0 23 -17 36 -23 18 -24 18 -42 -4 -10 -12 -16 -16 -15 -8 2 7 -10
22 -27 31 -36 22 -42 23 -50 10z"/>
<path fill="#ffffff" stroke="none" d="M178 294 c38 -19 40 -23 8 -17 -13 3
-27 0 -30 -6 -4 -6 -20 -11 -35 -11 -33 0 -57 -23 -45 -42 5 -7 9 -19 9 -25 0
-20 10 -19 31 1 16 16 16 19 2 14 -19 -8 -43 16 -33 32 8 13 42 13 50 0 4 -6
13 -2 23 10 11 14 23 19 35 15 19 -8 23 -31 6 -37 -8 -3 -8 -10 2 -26 10 -16
11 -27 3 -40 -13 -20 -63 -47 -72 -38 -3 4 4 9 16 13 12 3 19 9 17 14 -3 4
-12 6 -20 2 -8 -3 -15 0 -15 5 0 12 -49 6 -66 -9 -11 -9 -24 -2 -24 13 0 5 7
8 16 6 18 -3 28 38 12 48 -15 9 -8 31 18 57 14 14 32 23 40 20 8 -3 14 0 14 6
0 14 1 14 38 -5z"/>
<path fill="#ffffff" stroke="none" d="M235 150 c10 -16 -12 -38 -66 -64 l-48
-25 47 48 c51 52 58 56 67 41z"/>
<path fill="#ffffff" stroke="none" d="M170 56 c0 -2 -9 -6 -20 -9 -11 -3 -18
-1 -14 4 5 9 34 13 34 5z"/>
<path fill="#000000" stroke="none" d="M104 278 c-3 -4 6 -8 20 -8 14 0 26 4
26 8 0 4 -9 8 -21 8 -11 0 -23 -4 -25 -8z"/>
</g>
</svg>
