<?xml version="1.0" standalone="no"?>
<!DOCTYPE svg PUBLIC "-//W3C//DTD SVG 20010904//EN"
 "http://www.w3.org/TR/2001/REC-SVG-20010904/DTD/svg10.dtd">
<svg version="1.0" xmlns="http://www.w3.org/2000/svg"
 width="32.000000pt" height="32.000000pt" viewBox="0 0 32.000000 32.000000"
 preserveAspectRatio="xMidYMid meet">
<metadata>
Created by potrace 1.16, written by Peter Selinger 2001-2019
</metadata>
<g transform="translate(0.000000,32.000000) scale(0.100000,-0.100000)"
fill="#000000" stroke="none">
<path fill="#000000" stroke="none" d="M0 160 l0 -160 160 0 160 0 0 160 0
160 -160 0 -160 0 0 -160z"/>
<path fill="#ffffff" stroke="none" d="M208 268 c15 -18 10 -67 -6 -61 -9 4
-10 9 -1 19 6 8 9 21 5 29 -7 18 -45 20 -52 2 -3 -8 -16 -12 -33 -9 -32 4 -48
-12 -32 -32 6 -7 8 -16 4 -19 -10 -11 28 -47 51 -48 18 -1 18 -2 3 -6 -25 -6
-15 -29 12 -26 11 2 21 1 21 0 0 -2 -21 -19 -47 -37 -32 -22 -42 -26 -29 -12
21 24 16 28 -14 10 -16 -10 -23 -9 -40 7 -21 19 -24 59 -5 61 6 1 20 5 33 9
18 6 20 10 11 21 -7 8 -9 17 -6 21 4 3 2 12 -4 20 -16 19 7 43 42 43 15 0 31
5 34 10 9 14 40 12 53 -2z"/>
<path fill="#ffffff" stroke="none" d="M265 243 c-15 -36 -17 -61 -4 -68 9 -6
10 -1 5 19 -4 18 -3 25 4 21 5 -3 10 -15 10 -26 0 -13 4 -18 13 -13 6 4 4 -2
-6 -13 -10 -12 -15 -27 -11 -37 5 -13 2 -17 -12 -14 -11 2 -20 -4 -22 -15 -3
-15 0 -18 17 -12 12 3 21 2 21 -3 0 -16 -28 -34 -40 -27 -6 4 -21 -2 -33 -13
-21 -19 -60 -27 -115 -23 -25 1 -26 23 -1 27 7 1 23 6 34 10 18 7 18 6 6 -9
-19 -23 -1 -21 29 4 14 11 18 17 10 13 -8 -4 5 11 30 34 41 36 44 42 32 61
-18 31 2 101 30 101 6 0 7 -8 3 -17z"/>
<path fill="#000000" stroke="none" d="M41 124 c0 -12 7 -28 17 -35 15 -12 16
-12 6 1 -7 8 -14 24 -17 35 -4 19 -5 19 -6 -1z"/>
<path fill="#000000" stroke="none" d="M60 121 c0 -5 5 -13 10 -16 6 -3 10 -2
10 4 0 5 -4 13 -10 16 -5 3 -10 2 -10 -4z"/>
<path fill="#000000" stroke="none" d="M244 133 c-17 -24 -20 -32 -8 -20 12 9
24 14 29 10 4 -5 5 -2 1 5 -4 7 -2 19 4 27 7 8 10 15 7 15 -2 0 -17 -17 -33
-37z"/>
<path fill="#000000" stroke="none" d="M170 40 c-13 -8 -13 -10 2 -10 9 0 20
5 23 10 8 13 -5 13 -25 0z"/>
</g>
</svg>
