<?xml version="1.0" standalone="no"?>
<!DOCTYPE svg PUBLIC "-//W3C//DTD SVG 20010904//EN"
 "http://www.w3.org/TR/2001/REC-SVG-20010904/DTD/svg10.dtd">
<svg version="1.0" xmlns="http://www.w3.org/2000/svg"
 width="32.000000pt" height="32.000000pt" viewBox="0 0 32.000000 32.000000"
 preserveAspectRatio="xMidYMid meet">
<metadata>
Created by potrace 1.16, written by Peter Selinger 2001-2019
</metadata>
<g transform="translate(0.000000,32.000000) scale(0.100000,-0.100000)"
fill="#000000" stroke="none">
<path fill="#000000" stroke="none" d="M204 282 c11 -12 19 -13 27 -5 7 7 3
12 -16 15 -25 5 -25 4 -11 -10z"/>
<path fill="#000000" stroke="none" d="M62 225 c-2 -19 1 -35 5 -35 8 0 10 57
2 65 -3 2 -6 -11 -7 -30z"/>
<path fill="#000000" stroke="none" d="M187 253 c-3 -5 5 -8 18 -8 13 0 21 3
18 8 -2 4 -10 7 -18 7 -8 0 -16 -3 -18 -7z"/>
<path fill="#000000" stroke="none" d="M96 242 c-2 -4 4 -8 14 -8 10 0 16 4
14 8 -3 4 -9 8 -14 8 -5 0 -11 -4 -14 -8z"/>
<path fill="#000000" stroke="none" d="M100 206 c0 -2 7 -7 16 -10 8 -3 12 -2
9 4 -6 10 -25 14 -25 6z"/>
<path fill="#000000" stroke="none" d="M193 195 c0 -8 4 -12 9 -9 5 3 6 10 3
15 -9 13 -12 11 -12 -6z"/>
<path fill="#000000" stroke="none" d="M179 113 c-12 -16 -12 -17 2 -6 9 7 20
9 24 5 5 -4 5 -1 1 6 -9 16 -11 15 -27 -5z"/>
<path fill="#000000" stroke="none" d="M86 111 c-4 -5 -2 -12 3 -15 5 -4 12
-2 15 3 4 5 2 12 -3 15 -5 4 -12 2 -15 -3z"/>
<path fill="#000000" stroke="none" d="M270 110 c0 -5 5 -10 11 -10 5 0 7 5 4
10 -3 6 -8 10 -11 10 -2 0 -4 -4 -4 -10z"/>
<path fill="#000000" stroke="none" d="M76 65 c-11 -8 -28 -15 -39 -15 -10 0
-15 -5 -12 -10 4 -7 13 -7 26 0 11 6 25 8 32 4 6 -4 9 -4 5 1 -4 4 -3 14 3 22
15 17 9 16 -15 -2z"/>
<path fill="#000000" stroke="none" d="M120 45 c-10 -12 -9 -15 4 -15 10 0 14
-4 11 -10 -4 -6 14 -9 47 -9 52 2 52 2 13 8 -39 6 -39 7 -12 14 15 4 27 12 27
17 0 6 -9 5 -21 -2 -17 -10 -23 -10 -26 0 -6 17 -28 15 -43 -3z"/>
<path fill="#000000" stroke="none" d="M240 45 c7 -8 22 -15 34 -15 18 0 17 2
-8 15 -36 19 -42 19 -26 0z"/>
</g>
</svg>
