<?xml version="1.0" standalone="no"?>
<!DOCTYPE svg PUBLIC "-//W3C//DTD SVG 20010904//EN"
 "http://www.w3.org/TR/2001/REC-SVG-20010904/DTD/svg10.dtd">
<svg version="1.0" xmlns="http://www.w3.org/2000/svg"
 width="32.000000pt" height="32.000000pt" viewBox="0 0 32.000000 32.000000"
 preserveAspectRatio="xMidYMid meet">
<metadata>
Created by potrace 1.16, written by Peter Selinger 2001-2019
</metadata>
<g transform="translate(0.000000,32.000000) scale(0.100000,-0.100000)"
fill="#000000" stroke="none">
<path fill="#000000" stroke="none" d="M180 290 c0 -6 8 -13 18 -17 9 -3 27
-15 39 -26 22 -20 43 -16 43 8 0 8 -10 21 -22 29 -25 18 -78 21 -78 6z"/>
<path fill="#000000" stroke="none" d="M69 275 c-1 -8 -3 -19 -4 -25 -1 -5 -3
-20 -4 -32 -1 -17 -4 -19 -10 -10 -5 8 -7 -3 -6 -30 3 -62 3 -63 23 -45 10 10
21 16 23 15 3 -2 -6 7 -19 20 -13 12 -19 22 -15 22 5 0 14 -5 21 -12 15 -15
16 -3 1 23 -6 12 -7 28 -3 37 4 9 6 20 6 25 -1 4 3 7 8 7 6 0 10 -4 10 -9 0
-6 -4 -13 -10 -16 -17 -10 -11 -28 6 -21 14 5 15 4 5 -8 -9 -11 -10 -20 -1
-35 13 -24 23 -26 39 -7 16 19 9 53 -15 72 -10 8 -14 13 -7 10 6 -4 14 -2 18
4 10 16 25 12 19 -5 -4 -8 -2 -15 2 -16 61 -5 87 -23 78 -53 -6 -19 -5 -19 10
-7 15 12 15 16 1 31 -8 9 -13 19 -10 22 3 3 -2 11 -11 18 -13 12 -19 12 -37 0
-19 -12 -20 -11 -10 2 10 11 10 17 1 26 -17 17 -35 15 -42 -3 -5 -14 -9 -14
-36 0 -27 14 -30 14 -31 0z"/>
<path fill="#000000" stroke="none" d="M277 224 c-4 -4 -7 -14 -7 -23 0 -11 3
-12 11 -4 6 6 10 16 7 23 -2 6 -7 8 -11 4z"/>
<path fill="#000000" stroke="none" d="M187 213 c-10 -22 -1 -48 16 -45 16 3
17 1 6 -20 -7 -13 -12 -27 -10 -33 1 -5 -1 -7 -5 -3 -4 4 -14 2 -23 -5 -14
-10 -14 -10 -3 5 18 23 9 35 -25 33 -22 -1 -28 -6 -27 -23 0 -17 -2 -19 -13
-10 -10 8 -17 8 -24 1 -8 -8 -5 -14 10 -23 29 -15 42 -4 35 28 -4 21 -3 24 5
12 8 -11 11 -12 11 -2 0 7 5 10 10 7 6 -4 9 -14 8 -23 -2 -11 4 -17 18 -17 11
0 28 -6 38 -14 14 -12 16 -12 10 3 -3 9 -10 16 -14 16 -12 0 -6 28 9 43 10 10
11 7 6 -14 -9 -35 7 -44 31 -18 18 20 14 30 -20 42 -5 2 -10 12 -10 23 -3 34
-28 58 -39 37z"/>
<path fill="#000000" stroke="none" d="M160 194 c0 -8 5 -12 10 -9 6 4 8 11 5
16 -9 14 -15 11 -15 -7z"/>
<path fill="#000000" stroke="none" d="M255 160 c4 -6 11 -8 16 -5 14 9 11 15
-7 15 -8 0 -12 -5 -9 -10z"/>
<path fill="#000000" stroke="none" d="M260 105 c-7 -8 -9 -15 -4 -15 5 0 0
-6 -11 -14 -29 -19 -78 -28 -95 -16 -11 8 -7 9 14 4 21 -5 27 -4 22 5 -11 18
-43 13 -65 -10 -11 -12 -18 -15 -18 -7 1 7 -2 14 -8 16 -5 1 -10 -2 -10 -7 0
-5 -4 -13 -9 -18 -5 -4 -6 -3 -2 4 5 10 -2 11 -26 7 -25 -4 -29 -3 -18 5 9 7
10 11 3 11 -6 0 -14 -4 -17 -9 -9 -14 17 -30 49 -29 52 1 66 -2 60 -12 -4 -6
17 -10 55 -10 40 0 59 4 55 10 -4 6 -16 8 -28 5 -21 -6 -21 -6 -3 9 17 14 21
14 36 1 17 -15 50 -21 50 -9 0 4 -8 13 -17 21 -10 8 -13 12 -7 9 6 -3 11 0 12
7 0 7 4 22 7 35 8 25 -6 30 -25 7z"/>
<path fill="#000000" stroke="none" d="M50 74 c0 -14 3 -14 15 -4 8 7 15 14
15 16 0 2 -7 4 -15 4 -8 0 -15 -7 -15 -16z"/>
</g>
</svg>
