<?xml version="1.0" standalone="no"?>
<!DOCTYPE svg PUBLIC "-//W3C//DTD SVG 20010904//EN"
 "http://www.w3.org/TR/2001/REC-SVG-20010904/DTD/svg10.dtd">
<svg version="1.0" xmlns="http://www.w3.org/2000/svg"
 width="32.000000pt" height="32.000000pt" viewBox="0 0 32.000000 32.000000"
 preserveAspectRatio="xMidYMid meet">
<metadata>
Created by potrace 1.16, written by Peter Selinger 2001-2019
</metadata>
<g transform="translate(0.000000,32.000000) scale(0.100000,-0.100000)"
fill="#000000" stroke="none">
<path fill="#000000" stroke="none" d="M135 247 c-14 -11 -15 -16 -5 -22 17
-10 -6 -25 -41 -25 -40 0 -63 -32 -56 -80 3 -22 1 -43 -4 -46 -19 -11 -8 -22
29 -28 87 -16 124 -18 135 -7 6 6 28 8 54 4 23 -3 43 -2 43 3 -1 15 -27 44
-33 37 -6 -6 -11 11 -8 29 0 4 -16 0 -37 -9 -20 -8 -39 -15 -42 -15 -3 0 -4
-4 -2 -9 1 -5 -2 -9 -8 -9 -12 0 -12 2 0 34 7 19 17 26 35 26 16 0 25 6 25 15
0 26 30 16 50 -17 11 -18 20 -26 20 -17 0 8 -6 24 -14 34 -8 11 -12 25 -9 31
2 7 0 15 -6 19 -7 4 -9 -1 -5 -12 5 -15 4 -16 -5 -3 -6 8 -11 23 -11 32 0 21
-37 48 -65 48 -12 0 -29 -6 -40 -13z"/>
<path fill="#ffffff" stroke="none" d="M220 225 c9 -10 9 -15 1 -15 -6 0 -11
-7 -11 -17 0 -15 -2 -15 -19 1 -11 10 -25 15 -30 11 -6 -3 -11 -2 -11 4 0 11
29 30 46 31 6 0 17 -7 24 -15z"/>
<path fill="#ffffff" stroke="none" d="M136 168 c14 -22 15 -70 2 -62 -7 5 -9
2 -5 -8 6 -18 -38 -44 -48 -28 -4 6 1 13 10 16 12 5 13 9 4 20 -13 16 -33 19
-24 4 3 -5 1 -10 -4 -10 -6 0 -11 -7 -11 -15 0 -8 -4 -15 -10 -15 -6 0 -6 9 0
25 6 16 6 25 0 25 -6 0 -10 5 -10 11 0 5 4 8 9 5 5 -3 20 5 32 19 26 27 44 31
55 13z"/>
</g>
</svg>
