<?xml version="1.0" standalone="no"?>
<!DOCTYPE svg PUBLIC "-//W3C//DTD SVG 20010904//EN"
 "http://www.w3.org/TR/2001/REC-SVG-20010904/DTD/svg10.dtd">
<svg version="1.0" xmlns="http://www.w3.org/2000/svg"
 width="32.000000pt" height="32.000000pt" viewBox="0 0 32.000000 32.000000"
 preserveAspectRatio="xMidYMid meet">
<metadata>
Created by potrace 1.16, written by Peter Selinger 2001-2019
</metadata>
<g transform="translate(0.000000,32.000000) scale(0.100000,-0.100000)"
fill="#000000" stroke="none">
<path fill="#000000" stroke="none" d="M0 160 l0 -160 160 0 160 0 0 160 0
160 -160 0 -160 0 0 -160z"/>
<path fill="#ffffff" stroke="none" d="M218 244 c12 -8 22 -23 22 -32 0 -9 5
-24 11 -32 9 -13 10 -12 5 3 -4 11 -2 16 5 12 6 -4 8 -12 6 -19 -3 -6 1 -20 9
-31 8 -10 14 -26 14 -34 0 -9 -9 -1 -20 17 -20 33 -50 43 -50 17 0 -9 -9 -15
-25 -15 -18 0 -28 -7 -35 -26 -12 -32 -12 -34 0 -34 6 0 9 4 8 9 -2 5 -1 9 2
9 3 0 22 7 42 15 21 9 37 13 37 9 -3 -18 2 -35 8 -29 6 7 32 -22 33 -37 0 -5
-20 -6 -43 -3 -26 4 -48 2 -54 -4 -11 -11 -48 -9 -135 7 -37 6 -48 17 -29 28
5 3 7 24 4 46 -7 48 16 80 56 80 35 0 58 15 41 25 -10 6 -9 11 5 22 25 17 55
17 83 -3z"/>
<path fill="#000000" stroke="none" d="M168 229 c-10 -5 -18 -15 -18 -20 0 -6
5 -7 11 -4 5 4 19 -1 30 -11 17 -16 19 -16 19 -1 0 10 5 17 11 17 8 0 8 5 -1
15 -14 17 -28 18 -52 4z"/>
<path fill="#000000" stroke="none" d="M81 155 c-12 -14 -27 -22 -32 -19 -5 3
-9 0 -9 -5 0 -6 4 -11 10 -11 6 0 6 -9 0 -25 -6 -16 -6 -25 0 -25 6 0 10 7 10
15 0 8 5 15 11 15 5 0 7 5 4 10 -9 15 11 12 24 -4 9 -11 8 -15 -4 -20 -9 -3
-14 -10 -10 -16 10 -16 54 10 48 28 -4 10 -2 13 5 8 8 -5 11 2 9 21 -7 58 -28
67 -66 28z"/>
</g>
</svg>
