<?xml version="1.0" standalone="no"?>
<!DOCTYPE svg PUBLIC "-//W3C//DTD SVG 20010904//EN"
 "http://www.w3.org/TR/2001/REC-SVG-20010904/DTD/svg10.dtd">
<svg version="1.0" xmlns="http://www.w3.org/2000/svg"
 width="32.000000pt" height="32.000000pt" viewBox="0 0 32.000000 32.000000"
 preserveAspectRatio="xMidYMid meet">
<metadata>
Created by potrace 1.16, written by Peter Selinger 2001-2019
</metadata>
<g transform="translate(0.000000,32.000000) scale(0.100000,-0.100000)"
fill="#000000" stroke="none">
<path fill="#000000" stroke="none" d="M0 160 l0 -160 160 0 160 0 0 160 0
160 -160 0 -160 0 0 -160z"/>
<path fill="#ffffff" stroke="none" d="M254 203 c23 -15 42 -27 42 -28 1 0 5
-15 9 -33 6 -30 5 -33 -25 -39 -26 -5 -29 -8 -16 -15 23 -13 20 -21 -11 -35
-29 -14 -105 -18 -116 -6 -4 3 -31 7 -61 7 -62 1 -75 9 -58 36 6 11 9 26 6 33
-4 12 41 49 81 66 6 2 21 12 34 22 33 26 68 24 115 -8z"/>
<path fill="#000000" stroke="none" d="M190 195 c-13 -16 -2 -24 33 -22 20 0
22 8 5 25 -16 16 -23 15 -38 -3z"/>
<path fill="#000000" stroke="none" d="M125 143 c-11 -17 -23 -23 -36 -20 -10
3 -17 1 -13 -4 7 -13 45 -31 43 -22 -5 27 1 35 16 23 14 -11 19 -7 16 12 0 4
5 5 12 2 8 -3 14 2 14 10 0 26 -35 26 -52 -1z"/>
</g>
</svg>
