<?xml version="1.0" standalone="no"?>
<!DOCTYPE svg PUBLIC "-//W3C//DTD SVG 20010904//EN"
 "http://www.w3.org/TR/2001/REC-SVG-20010904/DTD/svg10.dtd">
<svg version="1.0" xmlns="http://www.w3.org/2000/svg"
 width="32.000000pt" height="32.000000pt" viewBox="0 0 32.000000 32.000000"
 preserveAspectRatio="xMidYMid meet">
<metadata>
Created by potrace 1.16, written by Peter Selinger 2001-2019
</metadata>
<g transform="translate(0.000000,32.000000) scale(0.100000,-0.100000)"
fill="#000000" stroke="none">
<path fill="#000000" stroke="none" d="M135 247 c-10 -8 -15 -19 -11 -25 4 -7
-4 -14 -21 -17 -37 -8 -55 -18 -63 -36 -4 -8 -12 -24 -19 -37 -6 -13 -8 -28
-4 -35 4 -7 6 -19 5 -28 -2 -12 8 -19 35 -23 89 -16 125 -18 136 -7 6 6 28 8
54 4 39 -5 43 -4 43 16 0 11 5 21 10 21 16 0 12 20 -10 47 -11 14 -20 34 -20
45 0 10 -7 21 -15 24 -8 4 -15 12 -15 20 0 17 -39 44 -65 44 -12 0 -29 -6 -40
-13z"/>
<path fill="#ffffff" stroke="none" d="M210 215 c-5 -6 -6 -16 -2 -21 4 -5 -2
-1 -14 9 -11 9 -23 16 -25 15 -2 -2 2 2 9 9 18 15 46 5 32 -12z"/>
<path fill="#ffffff" stroke="none" d="M138 144 c-2 -8 -7 -14 -13 -14 -5 1
-9 7 -7 14 1 6 -3 4 -10 -4 -17 -20 -35 -22 -35 -4 0 8 6 14 14 14 7 0 12 3
12 8 -3 19 3 22 22 12 11 -6 19 -18 17 -26z"/>
<path fill="#ffffff" stroke="none" d="M255 141 c-4 -3 -12 -6 -18 -6 -7 0
-13 -6 -13 -12 -3 -24 -4 -25 -18 -14 -10 8 -16 9 -21 1 -8 -13 -25 -13 -25 0
0 6 14 13 31 17 17 3 33 12 36 19 2 7 11 10 19 7 8 -3 12 -8 9 -12z"/>
<path fill="#ffffff" stroke="none" d="M294 89 c-8 -14 -24 -10 -24 6 0 9 6
12 15 9 8 -4 12 -10 9 -15z"/>
</g>
</svg>
