<?xml version="1.0" standalone="no"?>
<!DOCTYPE svg PUBLIC "-//W3C//DTD SVG 20010904//EN"
 "http://www.w3.org/TR/2001/REC-SVG-20010904/DTD/svg10.dtd">
<svg version="1.0" xmlns="http://www.w3.org/2000/svg"
 width="32.000000pt" height="32.000000pt" viewBox="0 0 32.000000 32.000000"
 preserveAspectRatio="xMidYMid meet">
<metadata>
Created by potrace 1.16, written by Peter Selinger 2001-2019
</metadata>
<g transform="translate(0.000000,32.000000) scale(0.100000,-0.100000)"
fill="#000000" stroke="none">
<path fill="#000000" stroke="none" d="M0 160 l0 -160 160 0 160 0 0 160 0
160 -160 0 -160 0 0 -160z"/>
<path fill="#ffffff" stroke="none" d="M214 294 c23 -22 20 -27 -7 -9 -22 14
-25 13 -44 -7 -11 -13 -23 -31 -26 -40 -14 -38 -87 -8 -87 35 0 20 1 20 13 3
11 -15 18 -16 34 -8 11 6 25 18 33 26 16 21 64 20 84 0z"/>
<path fill="#ffffff" stroke="none" d="M208 235 c-3 -3 -9 2 -12 12 -6 14 -5
15 5 6 7 -7 10 -15 7 -18z"/>
<path fill="#ffffff" stroke="none" d="M254 215 c-20 -14 -38 -10 -28 6 3 5 9
7 14 4 4 -3 11 3 15 13 5 12 9 13 12 4 3 -7 -3 -19 -13 -27z"/>
<path fill="#ffffff" stroke="none" d="M193 142 c-5 -11 -1 -13 18 -7 13 4 22
6 19 4 -3 -2 -14 -12 -25 -21 -22 -18 -23 -17 -26 44 0 15 -4 14 -22 -6 -12
-13 -34 -27 -48 -30 -25 -5 -24 -3 15 37 l41 42 17 -24 c9 -13 14 -30 11 -39z"/>
<path fill="#ffffff" stroke="none" d="M266 145 c-4 -10 3 -20 20 -27 25 -12
26 -12 4 -20 -14 -5 -20 -14 -16 -23 4 -11 -2 -15 -24 -15 -18 0 -33 -7 -39
-19 -22 -41 -116 -32 -141 13 -8 15 -18 22 -30 19 -10 -3 -21 0 -25 7 -9 15
13 40 38 40 20 0 20 0 1 -22 -10 -12 -14 -19 -8 -15 6 4 19 -2 29 -13 10 -11
22 -17 28 -13 5 3 7 1 4 -4 -4 -6 3 -13 16 -17 39 -10 48 -7 45 17 -3 22 2 24
36 11 16 -6 17 -4 8 13 -13 23 -7 34 15 26 12 -5 12 -7 2 -14 -18 -11 -6 -21
14 -13 12 4 15 15 13 37 -4 31 0 47 11 47 3 0 2 -7 -1 -15z"/>
<path fill="#ffffff" stroke="none" d="M164 119 c-3 -5 -10 -7 -15 -3 -5 3 -7
10 -3 15 3 5 10 7 15 3 5 -3 7 -10 3 -15z"/>
<path fill="#ffffff" stroke="none" d="M144 89 c-3 -5 -10 -7 -15 -3 -5 3 -7
10 -3 15 3 5 10 7 15 3 5 -3 7 -10 3 -15z"/>
<path fill="#000000" stroke="none" d="M98 238 c9 -9 15 -9 24 0 9 9 7 12 -12
12 -19 0 -21 -3 -12 -12z"/>
<path fill="#000000" stroke="none" d="M180 49 c0 -5 5 -7 10 -4 6 3 10 8 10
11 0 2 -4 4 -10 4 -5 0 -10 -5 -10 -11z"/>
</g>
</svg>
