<?xml version="1.0" standalone="no"?>
<!DOCTYPE svg PUBLIC "-//W3C//DTD SVG 20010904//EN"
 "http://www.w3.org/TR/2001/REC-SVG-20010904/DTD/svg10.dtd">
<svg version="1.0" xmlns="http://www.w3.org/2000/svg"
 width="32.000000pt" height="32.000000pt" viewBox="0 0 32.000000 32.000000"
 preserveAspectRatio="xMidYMid meet">
<metadata>
Created by potrace 1.16, written by Peter Selinger 2001-2019
</metadata>
<g transform="translate(0.000000,32.000000) scale(0.100000,-0.100000)"
fill="#000000" stroke="none">
<path fill="#000000" stroke="none" d="M0 160 l0 -160 160 1 160 1 0 159 0
159 -160 0 -160 0 0 -160z"/>
<path fill="#ffffff" stroke="none" d="M170 295 c7 -8 24 -15 38 -15 26 0 26
0 -8 -24 -25 -17 -39 -21 -47 -14 -7 6 -22 8 -32 5 -12 -3 -27 3 -37 14 -15
16 -15 19 -2 19 9 0 21 7 28 15 16 19 44 19 60 0z"/>
<path fill="#ffffff" stroke="none" d="M165 224 c18 -7 17 -9 -10 -21 l-30
-14 30 6 c24 5 28 4 17 -6 -9 -10 -19 -11 -42 -2 -26 10 -30 9 -30 -6 0 -9 4
-21 10 -26 5 -6 -2 -10 -20 -10 -35 0 -36 2 -14 26 8 9 16 23 18 31 5 34 26
41 71 22z"/>
<path fill="#ffffff" stroke="none" d="M253 191 c18 -30 18 -31 -1 -31 -20 0
-45 24 -55 52 -15 42 29 26 56 -21z"/>
<path fill="#ffffff" stroke="none" d="M183 168 c-6 -10 -60 -10 -66 0 -3 4
12 7 33 7 21 0 36 -3 33 -7z"/>
<path fill="#ffffff" stroke="none" d="M27 138 c-3 -8 -6 -5 -6 6 -1 11 2 17
5 13 3 -3 4 -12 1 -19z"/>
<path fill="#ffffff" stroke="none" d="M264 118 c-8 -13 -33 3 -27 17 4 11 8
12 18 2 7 -7 11 -15 9 -19z"/>
<path fill="#ffffff" stroke="none" d="M157 134 c-3 -3 -12 -4 -19 -1 -8 3 -5
6 6 6 11 1 17 -2 13 -5z"/>
<path fill="#ffffff" stroke="none" d="M170 100 c0 -5 -8 -10 -17 -10 -15 0
-16 2 -3 10 19 12 20 12 20 0z"/>
<path fill="#ffffff" stroke="none" d="M95 74 c0 -10 -8 -20 -17 -22 -18 -3
-26 27 -11 42 12 11 28 0 28 -20z"/>
<path fill="#ffffff" stroke="none" d="M208 67 c2 -10 -3 -17 -12 -17 -18 0
-29 16 -21 31 9 14 29 6 33 -14z"/>
<path fill="#000000" stroke="none" d="M96 272 c-3 -5 1 -9 9 -9 8 0 15 4 15
9 0 4 -4 8 -9 8 -6 0 -12 -4 -15 -8z"/>
<path fill="#000000" stroke="none" d="M145 270 c-3 -5 -2 -10 4 -10 5 0 13 5
16 10 3 6 2 10 -4 10 -5 0 -13 -4 -16 -10z"/>
<path fill="#000000" stroke="none" d="M110 210 c0 -12 8 -12 35 0 18 8 17 9
-7 9 -16 1 -28 -3 -28 -9z"/>
</g>
</svg>
