<?xml version="1.0" standalone="no"?>
<!DOCTYPE svg PUBLIC "-//W3C//DTD SVG 20010904//EN"
 "http://www.w3.org/TR/2001/REC-SVG-20010904/DTD/svg10.dtd">
<svg version="1.0" xmlns="http://www.w3.org/2000/svg"
 width="32.000000pt" height="32.000000pt" viewBox="0 0 32.000000 32.000000"
 preserveAspectRatio="xMidYMid meet">
<metadata>
Created by potrace 1.16, written by Peter Selinger 2001-2019
</metadata>
<g transform="translate(0.000000,32.000000) scale(0.100000,-0.100000)"
fill="#000000" stroke="none">
<path fill="#000000" stroke="none" d="M122 298 c-9 -9 -9 -15 0 -27 10 -13
10 -14 -2 -3 -29 25 -41 13 -18 -18 28 -39 62 -39 108 0 31 26 32 29 14 30
-12 0 -27 7 -34 15 -15 18 -51 20 -68 3z"/>
<path fill="#ffffff" stroke="none" d="M185 270 c-3 -5 -12 -10 -18 -10 -7 0
-6 4 3 10 19 12 23 12 15 0z"/>
<path fill="#000000" stroke="none" d="M247 232 c-23 -25 -21 -41 3 -39 10 1
17 3 15 6 -3 2 -1 9 5 15 5 7 5 17 1 24 -6 9 -12 8 -24 -6z"/>
<path fill="#000000" stroke="none" d="M74 232 c-11 -8 -12 -28 -2 -36 5 -3 6
-3 3 1 -3 3 0 12 7 20 12 15 8 25 -8 15z"/>
<path fill="#000000" stroke="none" d="M115 196 c2 -28 29 -43 49 -27 9 7 14
17 11 21 -3 5 1 10 7 13 7 2 -5 6 -28 8 -35 4 -40 2 -39 -15z"/>
<path fill="#ffffff" stroke="none" d="M157 178 c-3 -8 -6 -5 -6 6 -1 11 2 17
5 13 3 -3 4 -12 1 -19z"/>
<path fill="#000000" stroke="none" d="M260 160 c0 -13 5 -20 13 -17 6 2 12
10 12 17 0 7 -6 15 -12 18 -8 2 -13 -5 -13 -18z"/>
<path fill="#000000" stroke="none" d="M16 152 c-10 -16 8 -37 23 -28 6 4 11
13 11 19 0 8 -3 7 -9 -2 -7 -11 -10 -10 -13 5 -3 15 -5 16 -12 6z"/>
<path fill="#000000" stroke="none" d="M80 145 c-18 -21 -3 -32 16 -13 10 9
12 18 6 22 -5 3 -15 -1 -22 -9z"/>
<path fill="#000000" stroke="none" d="M202 147 c-10 -11 -9 -17 3 -27 24 -20
45 4 24 26 -14 13 -17 13 -27 1z"/>
<path fill="#000000" stroke="none" d="M134 127 c-11 -29 0 -92 16 -92 22 0
26 77 6 94 -13 11 -17 11 -22 -2z"/>
<path fill="#ffffff" stroke="none" d="M157 68 c-3 -7 -5 -2 -5 12 0 14 2 19
5 13 2 -7 2 -19 0 -25z"/>
<path fill="#000000" stroke="none" d="M283 133 c-7 -2 -13 -9 -13 -14 0 -6 5
-7 10 -4 6 3 10 0 10 -7 0 -9 3 -9 10 2 18 27 12 35 -17 23z"/>
<path fill="#000000" stroke="none" d="M77 106 c-15 -7 -24 -15 -21 -19 11
-11 36 -8 29 3 -3 5 0 7 8 4 8 -3 18 -1 21 5 10 16 -7 19 -37 7z"/>
<path fill="#000000" stroke="none" d="M193 110 c3 -8 11 -32 18 -53 12 -35
13 -36 31 -21 10 10 18 26 18 36 0 16 -3 17 -22 7 -19 -9 -21 -9 -10 2 15 16
16 33 2 24 -6 -4 -18 -1 -27 7 -14 11 -15 11 -10 -2z"/>
<path fill="#000000" stroke="none" d="M77 73 c-17 -4 -17 -5 -1 -17 15 -12
15 -13 -6 -12 -13 1 -25 -5 -27 -11 -6 -16 33 -18 42 -3 4 6 10 8 14 5 5 -2 6
7 3 20 -2 14 -5 24 -6 24 0 -1 -9 -3 -19 -6z"/>
<path fill="#000000" stroke="none" d="M252 38 c-18 -18 -14 -28 8 -28 11 0
20 6 20 14 0 21 -15 27 -28 14z"/>
</g>
</svg>
