<?xml version="1.0" standalone="no"?>
<!DOCTYPE svg PUBLIC "-//W3C//DTD SVG 20010904//EN"
 "http://www.w3.org/TR/2001/REC-SVG-20010904/DTD/svg10.dtd">
<svg version="1.0" xmlns="http://www.w3.org/2000/svg"
 width="32.000000pt" height="32.000000pt" viewBox="0 0 32.000000 32.000000"
 preserveAspectRatio="xMidYMid meet">
<metadata>
Created by potrace 1.16, written by Peter Selinger 2001-2019
</metadata>
<g transform="translate(0.000000,32.000000) scale(0.100000,-0.100000)"
fill="#000000" stroke="none">
<path fill="#000000" stroke="none" d="M0 160 l0 -160 160 0 160 0 0 160 0
160 -160 0 -160 0 0 -160z"/>
<path fill="#ffffff" stroke="none" d="M165 300 c4 -6 1 -9 -7 -8 -17 4 -17
-24 1 -30 9 -3 11 0 6 8 -5 9 -4 11 3 6 7 -4 12 -1 13 6 0 7 4 4 9 -7 6 -15 2
-24 -14 -37 -11 -10 -27 -18 -33 -18 -7 0 -13 -5 -13 -11 0 -7 12 -9 32 -7
l32 5 -23 -18 c-14 -11 -21 -25 -17 -34 6 -18 -19 -21 -30 -3 -4 7 -3 8 4 4
16 -10 15 0 -4 28 -11 17 -12 26 -4 31 8 5 2 17 -16 36 -21 22 -24 29 -11 29
8 0 19 -4 22 -10 3 -5 12 -10 18 -9 9 0 9 2 0 6 -9 3 -10 10 -3 24 12 21 25
25 35 9z"/>
<path fill="#ffffff" stroke="none" d="M241 271 c-8 -5 -20 -7 -28 -4 -21 8
-15 13 15 13 20 0 23 -3 13 -9z"/>
<path fill="#ffffff" stroke="none" d="M93 215 c-8 -22 -22 -18 -16 5 3 11 9
17 14 15 4 -3 6 -12 2 -20z"/>
<path fill="#ffffff" stroke="none" d="M252 204 c5 -8 3 -14 -7 -18 -9 -3 -13
-2 -10 4 3 6 -1 10 -9 10 -19 0 -20 12 -4 28 10 10 14 10 17 0 2 -7 8 -18 13
-24z"/>
<path fill="#ffffff" stroke="none" d="M84 162 c3 -5 -1 -9 -9 -9 -8 0 -12 4
-9 9 3 4 7 8 9 8 2 0 6 -4 9 -8z"/>
<path fill="#ffffff" stroke="none" d="M266 134 c1 -9 0 -13 -4 -10 -3 4 -7
14 -8 22 -1 9 0 13 4 10 3 -4 7 -14 8 -22z"/>
<path fill="#ffffff" stroke="none" d="M50 140 c0 -5 -5 -10 -11 -10 -5 0 -7
5 -4 10 3 6 8 10 11 10 2 0 4 -4 4 -10z"/>
<path fill="#ffffff" stroke="none" d="M150 113 c0 -8 -5 -13 -12 -11 -18 6
-21 25 -3 25 8 0 15 -7 15 -14z"/>
<path fill="#ffffff" stroke="none" d="M90 63 c0 -19 -13 -9 -16 12 -1 8 2 13
7 9 5 -3 9 -12 9 -21z"/>
<path fill="#ffffff" stroke="none" d="M227 70 c1 -11 -2 -20 -8 -20 -10 0
-12 23 -2 33 9 9 9 10 10 -13z"/>
<path fill="#ffffff" stroke="none" d="M97 24 c-3 -3 -12 -4 -19 -1 -8 3 -5 6
6 6 11 1 17 -2 13 -5z"/>
<path fill="#ffffff" stroke="none" d="M244 22 c2 -4 -4 -8 -14 -8 -10 0 -16
4 -14 8 3 4 9 8 14 8 5 0 11 -4 14 -8z"/>
<path fill="#000000" stroke="none" d="M128 243 c6 -2 18 -2 25 0 6 3 1 5 -13
5 -14 0 -19 -2 -12 -5z"/>
</g>
</svg>
