<?xml version="1.0" standalone="no"?>
<!DOCTYPE svg PUBLIC "-//W3C//DTD SVG 20010904//EN"
 "http://www.w3.org/TR/2001/REC-SVG-20010904/DTD/svg10.dtd">
<svg version="1.0" xmlns="http://www.w3.org/2000/svg"
 width="32.000000pt" height="32.000000pt" viewBox="0 0 32.000000 32.000000"
 preserveAspectRatio="xMidYMid meet">
<metadata>
Created by potrace 1.16, written by Peter Selinger 2001-2019
</metadata>
<g transform="translate(0.000000,32.000000) scale(0.100000,-0.100000)"
fill="#000000" stroke="none">
<path fill="#000000" stroke="none" d="M0 160 l0 -160 160 0 160 0 0 160 0
160 -160 0 -160 0 0 -160z"/>
<path fill="#ffffff" stroke="none" d="M120 241 c0 -6 -4 -13 -10 -16 -5 -3
-10 1 -10 9 0 9 5 16 10 16 6 0 10 -4 10 -9z"/>
<path fill="#ffffff" stroke="none" d="M178 232 c3 -9 -2 -13 -14 -10 -9 1
-19 9 -22 16 -3 9 2 13 14 10 9 -1 19 -9 22 -16z"/>
<path fill="#ffffff" stroke="none" d="M290 36 c0 -15 -3 -17 -12 -8 -9 9 -14
8 -23 -4 -10 -15 -13 -15 -28 1 -9 9 -17 22 -17 28 0 8 3 8 11 0 16 -16 49 5
42 26 -3 11 0 10 11 -3 9 -11 16 -29 16 -40z"/>
<path fill="#ffffff" stroke="none" d="M200 46 c0 -3 -4 -8 -10 -11 -5 -3 -10
-1 -10 4 0 6 5 11 10 11 6 0 10 -2 10 -4z"/>
<path fill="#ffffff" stroke="none" d="M99 20 c9 0 23 6 30 13 11 10 13 9 9
-3 -5 -16 -78 -28 -78 -12 0 14 14 24 18 13 2 -6 11 -11 21 -11z"/>
<path fill="#ffffff" stroke="none" d="M170 30 c0 -5 -2 -10 -4 -10 -3 0 -8 5
-11 10 -3 6 -1 10 4 10 6 0 11 -4 11 -10z"/>
</g>
</svg>
