<?xml version="1.0" standalone="no"?>
<!DOCTYPE svg PUBLIC "-//W3C//DTD SVG 20010904//EN"
 "http://www.w3.org/TR/2001/REC-SVG-20010904/DTD/svg10.dtd">
<svg version="1.0" xmlns="http://www.w3.org/2000/svg"
 width="32.000000pt" height="32.000000pt" viewBox="0 0 32.000000 32.000000"
 preserveAspectRatio="xMidYMid meet">
<metadata>
Created by potrace 1.16, written by Peter Selinger 2001-2019
</metadata>
<g transform="translate(0.000000,32.000000) scale(0.100000,-0.100000)"
fill="#000000" stroke="none">
<path fill="#000000" stroke="none" d="M0 160 l0 -160 160 0 160 0 0 160 0
160 -160 0 -160 0 0 -160z"/>
<path fill="#ffffff" stroke="none" d="M250 252 c0 -4 -12 -15 -27 -24 -16
-10 -22 -18 -14 -18 7 0 29 9 47 21 19 11 34 16 34 10 0 -6 -5 -11 -11 -11 -5
0 -7 -5 -4 -10 4 -6 11 -8 16 -5 5 4 9 1 9 -4 0 -6 -6 -11 -14 -11 -8 0 -24
-8 -37 -19 l-23 -19 27 3 c15 2 27 -1 27 -6 0 -5 -5 -9 -10 -9 -14 0 -57 -40
-44 -40 5 0 0 -6 -10 -12 -15 -9 -22 -7 -32 7 -12 16 -16 16 -30 4 -16 -13
-16 -12 -5 9 13 24 2 57 -26 77 -12 9 -11 13 1 30 14 19 15 19 10 -5 -5 -22
-4 -23 6 -7 6 9 15 15 20 12 5 -3 11 -1 15 5 4 6 11 8 16 5 5 -4 19 1 31 9 26
18 28 19 28 8z"/>
<path fill="#ffffff" stroke="none" d="M90 130 c0 -12 -28 -25 -36 -17 -9 9 6
27 22 27 8 0 14 -5 14 -10z"/>
<path fill="#ffffff" stroke="none" d="M134 75 c-4 -8 -11 -15 -16 -15 -6 0
-5 6 2 15 7 8 14 15 16 15 2 0 1 -7 -2 -15z"/>
</g>
</svg>
