<?xml version="1.0" standalone="no"?>
<!DOCTYPE svg PUBLIC "-//W3C//DTD SVG 20010904//EN"
 "http://www.w3.org/TR/2001/REC-SVG-20010904/DTD/svg10.dtd">
<svg version="1.0" xmlns="http://www.w3.org/2000/svg"
 width="32.000000pt" height="32.000000pt" viewBox="0 0 32.000000 32.000000"
 preserveAspectRatio="xMidYMid meet">
<metadata>
Created by potrace 1.16, written by Peter Selinger 2001-2019
</metadata>
<g transform="translate(0.000000,32.000000) scale(0.100000,-0.100000)"
fill="#000000" stroke="none">
<path fill="#000000" stroke="none" d="M0 160 l0 -160 160 0 160 0 0 50 c0 28
-4 50 -10 50 -5 0 -10 8 -10 18 0 14 2 15 10 2 7 -11 10 5 10 52 0 55 -3 67
-17 71 -17 4 -17 5 0 6 13 1 17 10 17 35 l0 35 -160 0 -160 1 0 -160z"/>
<path fill="#ffffff" stroke="none" d="M302 65 c3 -14 1 -25 -3 -25 -5 0 -9
11 -9 25 0 32 6 32 12 0z"/>
</g>
</svg>
