<?xml version="1.0" standalone="no"?>
<!DOCTYPE svg PUBLIC "-//W3C//DTD SVG 20010904//EN"
 "http://www.w3.org/TR/2001/REC-SVG-20010904/DTD/svg10.dtd">
<svg version="1.0" xmlns="http://www.w3.org/2000/svg"
 width="32.000000pt" height="32.000000pt" viewBox="0 0 32.000000 32.000000"
 preserveAspectRatio="xMidYMid meet">
<metadata>
Created by potrace 1.16, written by Peter Selinger 2001-2019
</metadata>
<g transform="translate(0.000000,32.000000) scale(0.100000,-0.100000)"
fill="#000000" stroke="none">
<path fill="#000000" stroke="none" d="M141 241 c-8 -5 -9 -11 -3 -15 20 -12
-1 -86 -23 -86 -8 0 -17 -5 -21 -11 -3 -6 1 -10 12 -9 32 4 37 1 24 -15 -10
-12 -10 -15 3 -15 9 0 19 5 22 10 3 6 13 10 21 10 8 0 12 -5 9 -10 -3 -6 0
-13 9 -16 16 -6 58 30 48 42 -4 3 0 4 8 2 16 -6 16 -11 4 -43 -7 -18 -6 -19
11 -5 17 13 18 13 10 0 -4 -8 -15 -24 -24 -35 l-16 -20 24 20 c13 11 26 20 30
20 3 0 5 13 4 28 -1 24 1 26 15 15 14 -12 14 -10 2 12 -8 14 -13 28 -13 31 1
4 -18 12 -42 19 -38 11 -43 15 -29 24 12 9 7 11 -27 8 -29 -3 -40 -1 -35 7 4
6 2 11 -5 11 -8 0 -8 4 1 15 14 16 3 20 -19 6z"/>
<path fill="#000000" stroke="none" d="M57 213 c-12 -11 -8 -23 8 -23 8 0 15
7 15 15 0 16 -12 20 -23 8z"/>
</g>
</svg>
