<?xml version="1.0" standalone="no"?>
<!DOCTYPE svg PUBLIC "-//W3C//DTD SVG 20010904//EN"
 "http://www.w3.org/TR/2001/REC-SVG-20010904/DTD/svg10.dtd">
<svg version="1.0" xmlns="http://www.w3.org/2000/svg"
 width="32.000000pt" height="32.000000pt" viewBox="0 0 32.000000 32.000000"
 preserveAspectRatio="xMidYMid meet">
<metadata>
Created by potrace 1.16, written by Peter Selinger 2001-2019
</metadata>
<g transform="translate(0.000000,32.000000) scale(0.100000,-0.100000)"
fill="#000000" stroke="none">
<path fill="#000000" stroke="none" d="M57 213 c-12 -11 -8 -23 8 -23 8 0 15
7 15 15 0 16 -12 20 -23 8z"/>
<path fill="#000000" stroke="none" d="M300 121 c0 -6 4 -13 10 -16 6 -3 7 1
4 9 -7 18 -14 21 -14 7z"/>
<path fill="#000000" stroke="none" d="M285 86 c-5 -6 -19 -23 -30 -36 l-20
-25 21 18 c11 9 24 14 27 11 8 -8 20 21 15 35 -1 5 -7 4 -13 -3z"/>
</g>
</svg>
