<?xml version="1.0" standalone="no"?>
<!DOCTYPE svg PUBLIC "-//W3C//DTD SVG 20010904//EN"
 "http://www.w3.org/TR/2001/REC-SVG-20010904/DTD/svg10.dtd">
<svg version="1.0" xmlns="http://www.w3.org/2000/svg"
 width="32.000000pt" height="32.000000pt" viewBox="0 0 32.000000 32.000000"
 preserveAspectRatio="xMidYMid meet">
<metadata>
Created by potrace 1.16, written by Peter Selinger 2001-2019
</metadata>
<g transform="translate(0.000000,32.000000) scale(0.100000,-0.100000)"
fill="#000000" stroke="none">
<path fill="#000000" stroke="none" d="M265 260 l-20 -9 20 0 c11 0 27 4 35 9
13 9 13 10 0 9 -8 0 -24 -4 -35 -9z"/>
<path fill="#000000" stroke="none" d="M280 229 c0 -5 5 -7 10 -4 6 3 10 8 10
11 0 2 -4 4 -10 4 -5 0 -10 -5 -10 -11z"/>
<path fill="#000000" stroke="none" d="M11 184 c0 -11 3 -14 6 -6 3 7 2 16 -1
19 -3 4 -6 -2 -5 -13z"/>
<path fill="#000000" stroke="none" d="M53 185 c-3 -9 -3 -18 0 -21 9 -9 27 6
27 22 0 19 -19 18 -27 -1z"/>
<path fill="#000000" stroke="none" d="M280 170 c-13 -8 -13 -10 2 -10 9 0 20
5 23 10 8 13 -5 13 -25 0z"/>
<path fill="#000000" stroke="none" d="M280 99 c0 -11 -3 -18 -7 -16 -5 3 -9
-6 -9 -19 -2 -32 20 -26 24 7 2 13 9 30 14 37 8 9 6 12 -6 12 -9 0 -16 -8 -16
-21z"/>
</g>
</svg>
