<?xml version="1.0" standalone="no"?>
<!DOCTYPE svg PUBLIC "-//W3C//DTD SVG 20010904//EN"
 "http://www.w3.org/TR/2001/REC-SVG-20010904/DTD/svg10.dtd">
<svg version="1.0" xmlns="http://www.w3.org/2000/svg"
 width="32.000000pt" height="32.000000pt" viewBox="0 0 32.000000 32.000000"
 preserveAspectRatio="xMidYMid meet">
<metadata>
Created by potrace 1.16, written by Peter Selinger 2001-2019
</metadata>
<g transform="translate(0.000000,32.000000) scale(0.100000,-0.100000)"
fill="#000000" stroke="none">
<path fill="#000000" stroke="none" d="M0 160 l0 -160 160 0 160 0 0 160 0
160 -160 0 -160 0 0 -160z"/>
<path fill="#ffffff" stroke="none" d="M185 252 c5 -12 17 -25 27 -27 9 -3 24
-18 33 -32 15 -22 15 -25 2 -20 -13 5 -14 1 -5 -26 5 -18 12 -41 15 -52 5 -20
5 -20 -10 0 -22 28 -31 12 -13 -22 13 -27 13 -29 -2 -28 -10 0 -23 5 -31 9
-10 7 -12 3 -6 -14 6 -19 5 -21 -14 -11 -11 6 -25 19 -30 29 -10 16 -10 16
-11 -2 0 -15 -3 -16 -15 -6 -12 10 -15 10 -15 -3 0 -9 -3 -18 -7 -20 -5 -3 -9
33 -10 79 -2 66 1 86 12 91 10 3 13 13 9 29 -13 50 50 74 71 26z"/>
</g>
</svg>
