<?xml version="1.0" standalone="no"?>
<!DOCTYPE svg PUBLIC "-//W3C//DTD SVG 20010904//EN"
 "http://www.w3.org/TR/2001/REC-SVG-20010904/DTD/svg10.dtd">
<svg version="1.0" xmlns="http://www.w3.org/2000/svg"
 width="32.000000pt" height="32.000000pt" viewBox="0 0 32.000000 32.000000"
 preserveAspectRatio="xMidYMid meet">
<metadata>
Created by potrace 1.16, written by Peter Selinger 2001-2019
</metadata>
<g transform="translate(0.000000,32.000000) scale(0.100000,-0.100000)"
fill="#000000" stroke="none">
<path fill="#000000" stroke="none" d="M100 234 c0 -8 5 -12 10 -9 6 3 10 10
10 16 0 5 -4 9 -10 9 -5 0 -10 -7 -10 -16z"/>
<path fill="#000000" stroke="none" d="M142 238 c3 -7 13 -15 22 -16 12 -3 17
1 14 10 -3 7 -13 15 -22 16 -12 3 -17 -1 -14 -10z"/>
<path fill="#000000" stroke="none" d="M263 79 c7 -21 -26 -42 -42 -26 -8 8
-11 8 -11 0 0 -6 8 -19 17 -28 15 -16 18 -16 28 -1 9 12 14 13 23 4 19 -19 15
24 -4 48 -11 13 -14 14 -11 3z"/>
<path fill="#000000" stroke="none" d="M180 39 c0 -5 5 -7 10 -4 6 3 10 8 10
11 0 2 -4 4 -10 4 -5 0 -10 -5 -10 -11z"/>
<path fill="#000000" stroke="none" d="M67 34 c-16 -17 -5 -25 30 -22 22 2 38
9 41 18 4 12 2 13 -9 3 -16 -16 -46 -17 -51 -2 -2 5 -7 7 -11 3z"/>
<path fill="#000000" stroke="none" d="M155 30 c3 -5 8 -10 11 -10 2 0 4 5 4
10 0 6 -5 10 -11 10 -5 0 -7 -4 -4 -10z"/>
</g>
</svg>
