<?xml version="1.0" standalone="no"?>
<!DOCTYPE svg PUBLIC "-//W3C//DTD SVG 20010904//EN"
 "http://www.w3.org/TR/2001/REC-SVG-20010904/DTD/svg10.dtd">
<svg version="1.0" xmlns="http://www.w3.org/2000/svg"
 width="32.000000pt" height="32.000000pt" viewBox="0 0 32.000000 32.000000"
 preserveAspectRatio="xMidYMid meet">
<metadata>
Created by potrace 1.16, written by Peter Selinger 2001-2019
</metadata>
<g transform="translate(0.000000,32.000000) scale(0.100000,-0.100000)"
fill="#000000" stroke="none">
<path fill="#000000" stroke="none" d="M224 246 c-10 -8 -17 -17 -14 -19 3 -3
14 1 24 9 11 7 17 16 15 19 -3 3 -14 -2 -25 -9z"/>
<path fill="#000000" stroke="none" d="M255 230 c-24 -16 -26 -20 -11 -20 15
0 16 -3 6 -14 -10 -13 -7 -13 19 -3 27 10 44 29 24 26 -20 -3 -27 2 -13 11 8
5 12 11 9 14 -3 3 -18 -4 -34 -14z"/>
<path fill="#000000" stroke="none" d="M245 159 c7 -11 35 -12 35 -1 0 4 -9 8
-20 9 -11 1 -18 -2 -15 -8z"/>
<path fill="#000000" stroke="none" d="M55 129 c-4 -6 -4 -13 -1 -16 8 -8 36
5 36 17 0 13 -27 13 -35 -1z"/>
</g>
</svg>
