<?xml version="1.0" standalone="no"?>
<!DOCTYPE svg PUBLIC "-//W3C//DTD SVG 20010904//EN"
 "http://www.w3.org/TR/2001/REC-SVG-20010904/DTD/svg10.dtd">
<svg version="1.0" xmlns="http://www.w3.org/2000/svg"
 width="32.000000pt" height="32.000000pt" viewBox="0 0 32.000000 32.000000"
 preserveAspectRatio="xMidYMid meet">
<metadata>
Created by potrace 1.16, written by Peter Selinger 2001-2019
</metadata>
<g transform="translate(0.000000,32.000000) scale(0.100000,-0.100000)"
fill="#000000" stroke="none">
<path fill="#000000" stroke="none" d="M173 303 c9 -2 15 -9 12 -14 -10 -15 1
-10 15 6 11 13 8 15 -16 14 -17 -1 -22 -3 -11 -6z"/>
<path fill="#000000" stroke="none" d="M267 191 c27 -12 38 -47 22 -69 -11
-15 -10 -14 6 1 18 16 19 20 5 45 -9 15 -25 28 -35 29 -18 3 -17 2 2 -6z"/>
<path fill="#000000" stroke="none" d="M65 110 c-3 -5 1 -10 9 -10 8 0 18 5
21 10 3 6 -1 10 -9 10 -8 0 -18 -4 -21 -10z"/>
</g>
</svg>
