<?xml version="1.0" standalone="no"?>
<!DOCTYPE svg PUBLIC "-//W3C//DTD SVG 20010904//EN"
 "http://www.w3.org/TR/2001/REC-SVG-20010904/DTD/svg10.dtd">
<svg version="1.0" xmlns="http://www.w3.org/2000/svg"
 width="32.000000pt" height="32.000000pt" viewBox="0 0 32.000000 32.000000"
 preserveAspectRatio="xMidYMid meet">
<metadata>
Created by potrace 1.16, written by Peter Selinger 2001-2019
</metadata>
<g transform="translate(0.000000,32.000000) scale(0.100000,-0.100000)"
fill="#000000" stroke="none">
<path fill="#000000" stroke="none" d="M77 313 c46 -2 120 -2 166 0 45 1 8 3
-83 3 -91 0 -128 -2 -83 -3z"/>
<path fill="#000000" stroke="none" d="M190 290 c-8 -5 -22 -7 -32 -4 -9 2
-19 0 -23 -6 -3 -6 -10 -8 -15 -5 -5 3 -17 -6 -26 -20 -15 -23 -15 -27 -1 -49
15 -23 15 -25 -9 -41 -18 -12 -23 -22 -19 -36 6 -17 3 -19 -18 -14 -14 4 -28
2 -31 -4 -4 -6 -1 -9 7 -5 23 9 32 -17 12 -33 -17 -12 -17 -13 -2 -13 10 0 20
7 24 15 5 14 52 45 67 45 3 0 3 -13 0 -30 -4 -17 -1 -36 5 -44 10 -11 7 -17
-11 -30 -22 -15 -20 -16 34 -16 31 0 69 5 85 11 l28 10 -32 30 c-18 16 -33 31
-33 35 0 3 -9 17 -20 31 -11 14 -20 31 -20 37 0 7 3 7 8 1 20 -27 40 -35 66
-25 14 5 26 14 26 20 0 7 -7 7 -21 0 -11 -7 -23 -9 -26 -6 -12 12 42 23 59 12
13 -8 21 -7 30 2 11 11 10 12 -3 7 -25 -9 -35 16 -14 32 16 11 17 13 2 13 -9
0 -20 -6 -24 -14 -4 -7 -22 -21 -40 -29 -27 -14 -32 -15 -37 -2 -3 8 -15 15
-28 15 -20 0 -19 2 10 23 38 29 77 76 68 84 -3 4 -6 3 -6 -2 0 -4 -6 -3 -13 3
-8 7 -18 7 -27 2z"/>
<path fill="#ffffff" stroke="none" d="M165 249 c-6 -30 -10 -32 -25 -14 -11
13 -10 14 4 9 9 -4 16 -3 15 2 -2 13 0 24 5 24 3 0 3 -10 1 -21z"/>
<path fill="#ffffff" stroke="none" d="M107 124 c-9 -9 -28 6 -21 18 4 6 10 6
17 -1 6 -6 8 -13 4 -17z"/>
<path fill="#ffffff" stroke="none" d="M196 54 c19 -15 32 -29 30 -31 -3 -3
-27 -7 -53 -9 -37 -2 -44 -1 -30 7 14 8 16 14 7 24 -11 13 -6 35 6 35 3 0 21
-12 40 -26z"/>
</g>
</svg>
