<?xml version="1.0" standalone="no"?>
<!DOCTYPE svg PUBLIC "-//W3C//DTD SVG 20010904//EN"
 "http://www.w3.org/TR/2001/REC-SVG-20010904/DTD/svg10.dtd">
<svg version="1.0" xmlns="http://www.w3.org/2000/svg"
 width="32.000000pt" height="32.000000pt" viewBox="0 0 32.000000 32.000000"
 preserveAspectRatio="xMidYMid meet">
<metadata>
Created by potrace 1.16, written by Peter Selinger 2001-2019
</metadata>
<g transform="translate(0.000000,32.000000) scale(0.100000,-0.100000)"
fill="#000000" stroke="none">
<path fill="#000000" stroke="none" d="M0 160 c0 -152 1 -160 19 -160 28 0 32
11 32 87 1 55 5 72 22 92 21 23 21 24 2 18 -17 -6 -18 -5 -5 5 9 7 16 21 17
31 2 35 3 38 16 31 8 -5 8 -2 -2 9 -11 13 -11 17 -1 17 8 0 11 2 8 5 -3 3 -13
2 -22 -1 -14 -5 -15 -9 -4 -16 9 -6 6 -7 -10 -3 -12 4 -22 2 -22 -4 0 -5 8
-12 17 -14 13 -3 11 -5 -7 -7 l-25 -2 25 -8 c22 -7 23 -8 4 -9 -12 -1 -28 7
-35 16 -12 14 -12 16 0 8 11 -6 13 -3 7 18 -5 21 -3 25 9 21 8 -4 15 -2 15 4
0 5 34 9 80 9 44 -1 80 -5 80 -10 0 -5 7 -7 15 -3 8 3 15 1 15 -4 0 -6 -3 -10
-7 -11 -27 -3 -47 -9 -56 -18 -8 -8 -8 -11 0 -11 7 0 10 -9 8 -20 -4 -22 2
-25 25 -10 12 8 12 10 -5 11 l-20 0 20 9 20 9 -20 1 -20 1 20 8 c11 5 22 6 25
2 9 -11 50 -13 50 -2 0 6 7 8 15 5 11 -5 15 1 15 24 l0 30 -160 1 -160 1 0
-160z"/>
<path fill="#000000" stroke="none" d="M135 291 c11 -5 27 -6 35 -3 13 5 13 3
1 -12 -13 -16 -12 -16 13 -5 25 12 26 14 9 20 -10 4 -31 8 -48 8 -25 0 -27 -2
-10 -8z"/>
<path fill="#000000" stroke="none" d="M145 241 c-3 -6 -2 -11 3 -11 5 0 9 -8
9 -17 0 -36 3 -43 18 -43 8 0 15 -4 15 -8 0 -5 -10 -8 -22 -8 -20 1 -23 -4
-23 -39 -2 -52 11 -73 41 -67 15 3 25 13 29 32 6 28 55 91 55 71 0 -5 -4 -13
-10 -16 -5 -3 -14 -24 -20 -45 -6 -22 -20 -44 -30 -50 -11 -6 -20 -8 -20 -4 0
4 -9 -1 -19 -10 -12 -11 -21 -13 -25 -7 -4 5 -15 8 -26 6 -32 -6 -49 39 -29
76 18 35 33 133 19 124 -5 -3 -7 -14 -5 -25 2 -12 -2 -20 -10 -20 -21 0 -27
-17 -15 -40 8 -16 8 -24 -4 -35 -11 -11 -12 -23 -6 -46 5 -18 7 -35 5 -40 -8
-12 71 -21 159 -17 l80 3 2 68 c2 50 0 66 -9 60 -7 -4 -5 2 3 12 14 17 13 18
-5 12 -17 -6 -18 -5 -5 5 18 16 24 68 7 68 -8 0 -6 4 3 11 12 9 12 10 -3 5
-10 -3 -21 -6 -23 -6 -12 0 -1 -19 14 -23 12 -3 10 -5 -8 -7 l-25 -2 25 -8
c22 -7 23 -8 4 -9 -12 -1 -28 7 -35 16 -10 11 -10 14 -1 9 12 -7 18 15 6 27
-9 9 -35 -4 -28 -14 3 -5 -2 -12 -10 -15 -9 -3 -14 -10 -11 -14 3 -5 -5 -6
-17 -3 -23 5 -23 5 -3 -11 l20 -16 -20 7 c-32 10 -36 14 -27 26 12 16 9 40 -5
44 -6 2 -14 -1 -18 -6z"/>
<path fill="#ffffff" stroke="none" d="M210 105 c0 -8 -5 -15 -11 -15 -5 0 -8
-4 -4 -9 8 -13 -15 -25 -26 -14 -5 5 -2 18 9 31 20 25 32 28 32 7z"/>
<path fill="#000000" stroke="none" d="M108 82 c-20 -24 -17 -47 7 -47 11 0
27 -4 35 -9 12 -8 12 -5 -1 10 -9 10 -15 27 -14 36 4 25 -10 31 -27 10z"/>
<path fill="#ffffff" stroke="none" d="M126 67 c0 -13 -5 -24 -12 -24 -13 0
-13 15 -1 35 11 17 13 15 13 -11z"/>
</g>
</svg>
