<?xml version="1.0" standalone="no"?>
<!DOCTYPE svg PUBLIC "-//W3C//DTD SVG 20010904//EN"
 "http://www.w3.org/TR/2001/REC-SVG-20010904/DTD/svg10.dtd">
<svg version="1.0" xmlns="http://www.w3.org/2000/svg"
 width="32.000000pt" height="32.000000pt" viewBox="0 0 32.000000 32.000000"
 preserveAspectRatio="xMidYMid meet">
<metadata>
Created by potrace 1.16, written by Peter Selinger 2001-2019
</metadata>
<g transform="translate(0.000000,32.000000) scale(0.100000,-0.100000)"
fill="#000000" stroke="none">
<path fill="#000000" stroke="none" d="M0 160 l0 -160 160 0 160 0 0 160 0
160 -160 0 -160 0 0 -160z"/>
<path fill="#ffffff" stroke="none" d="M210 248 c0 -13 -19 -18 -26 -7 -4 8
-3 9 4 5 7 -4 12 -2 12 4 0 7 -6 10 -12 7 -7 -2 -12 -12 -10 -22 2 -9 -1 -14
-7 -11 -5 4 -12 2 -16 -4 -7 -12 -25 -4 -25 11 0 6 6 7 13 3 8 -6 8 -3 -1 9
-8 9 -11 21 -7 27 3 5 -2 10 -12 10 -17 1 -17 1 1 15 16 12 22 11 52 -13 19
-15 34 -30 34 -34z"/>
<path fill="#ffffff" stroke="none" d="M123 257 c3 -8 -1 -14 -9 -14 -15 0
-18 9 -7 20 9 9 10 9 16 -6z"/>
<path fill="#ffffff" stroke="none" d="M60 211 c0 -18 34 -22 47 -5 10 13 15
15 27 5 10 -9 16 -9 21 -1 5 8 11 8 21 -1 10 -8 14 -8 14 0 0 19 29 12 40 -9
12 -23 6 -40 -15 -40 -8 0 -12 -6 -9 -14 7 -18 -15 -31 -29 -17 -8 8 -5 15 11
27 22 15 30 34 14 34 -5 0 -19 -10 -32 -22 -22 -21 -23 -21 -38 -2 -10 13 -16
15 -19 7 -6 -16 -33 -17 -33 -1 0 6 -3 9 -6 5 -8 -7 -34 17 -34 32 0 6 5 11
10 11 6 0 10 -4 10 -9z"/>
<path fill="#ffffff" stroke="none" d="M296 68 c1 -35 0 -47 -2 -28 -12 94
-25 101 -79 43 -19 -21 -35 -33 -35 -26 0 6 19 31 43 55 54 56 70 47 73 -44z"/>
<path fill="#ffffff" stroke="none" d="M100 120 c0 -10 4 -22 10 -25 5 -3 15
-16 22 -28 11 -21 10 -21 -13 -6 -13 9 -26 26 -29 38 -5 22 -5 22 -33 -7 -15
-16 -32 -42 -37 -58 -6 -21 -9 -23 -9 -9 -1 11 8 35 19 53 23 38 25 46 8 36
-9 -5 -9 -3 1 9 7 9 17 15 21 12 5 -3 11 -1 15 5 9 15 25 2 25 -20z"/>
<path fill="#ffffff" stroke="none" d="M160 109 c0 -6 -4 -7 -10 -4 -5 3 -10
11 -10 16 0 6 5 7 10 4 6 -3 10 -11 10 -16z"/>
</g>
</svg>
