<?xml version="1.0" standalone="no"?>
<!DOCTYPE svg PUBLIC "-//W3C//DTD SVG 20010904//EN"
 "http://www.w3.org/TR/2001/REC-SVG-20010904/DTD/svg10.dtd">
<svg version="1.0" xmlns="http://www.w3.org/2000/svg"
 width="32.000000pt" height="32.000000pt" viewBox="0 0 32.000000 32.000000"
 preserveAspectRatio="xMidYMid meet">
<metadata>
Created by potrace 1.16, written by Peter Selinger 2001-2019
</metadata>
<g transform="translate(0.000000,32.000000) scale(0.100000,-0.100000)"
fill="#000000" stroke="none">
<path fill="#000000" stroke="none" d="M130 295 c-9 -11 -9 -15 -1 -15 7 0 9
-5 6 -10 -4 -6 -1 -18 7 -27 9 -12 9 -15 1 -9 -7 4 -13 2 -13 -3 0 -19 -18
-12 -55 20 -39 35 -49 26 -11 -10 18 -17 23 -30 20 -54 -4 -30 -4 -31 10 -13
9 10 17 23 18 28 2 5 10 10 18 11 26 4 40 18 40 38 0 13 4 18 13 13 6 -4 1 5
-12 19 -29 32 -25 31 -41 12z"/>
<path fill="#000000" stroke="none" d="M156 212 c-4 -4 -12 -7 -17 -7 -5 0 -9
-3 -9 -7 0 -5 0 -12 0 -18 0 -5 5 -10 11 -10 8 0 7 6 -2 18 -11 14 -9 13 9 -2
22 -19 23 -19 36 0 11 14 18 16 26 8 7 -7 5 -16 -10 -29 -24 -22 -26 -35 -4
-35 10 0 14 6 10 15 -3 8 -1 15 3 15 13 0 21 27 15 45 -7 17 -34 20 -34 4 0
-8 -4 -9 -13 0 -8 6 -17 7 -21 3z"/>
<path fill="#000000" stroke="none" d="M150 161 c0 -5 5 -13 10 -16 6 -3 10
-2 10 4 0 5 -4 13 -10 16 -5 3 -10 2 -10 -4z"/>
<path fill="#000000" stroke="none" d="M258 148 c-2 -7 7 -24 20 -38 l24 -25
-7 25 c-10 35 -31 56 -37 38z"/>
<path fill="#000000" stroke="none" d="M52 113 c-36 -53 -35 -58 7 -18 46 44
47 45 27 45 -8 0 -23 -12 -34 -27z"/>
<path fill="#000000" stroke="none" d="M210 104 c0 -13 48 -59 55 -52 3 2 -9
17 -25 33 -17 16 -30 24 -30 19z"/>
<path fill="#000000" stroke="none" d="M100 75 c7 -8 17 -15 22 -15 6 0 5 7
-2 15 -7 8 -17 15 -22 15 -6 0 -5 -7 2 -15z"/>
</g>
</svg>
