<?xml version="1.0" standalone="no"?>
<!DOCTYPE svg PUBLIC "-//W3C//DTD SVG 20010904//EN"
 "http://www.w3.org/TR/2001/REC-SVG-20010904/DTD/svg10.dtd">
<svg version="1.0" xmlns="http://www.w3.org/2000/svg"
 width="32.000000pt" height="32.000000pt" viewBox="0 0 32.000000 32.000000"
 preserveAspectRatio="xMidYMid meet">
<metadata>
Created by potrace 1.16, written by Peter Selinger 2001-2019
</metadata>
<g transform="translate(0.000000,32.000000) scale(0.100000,-0.100000)"
fill="#000000" stroke="none">
<path fill="#000000" stroke="none" d="M0 160 l0 -160 160 0 160 0 0 160 0
160 -160 0 -160 0 0 -160z"/>
<path fill="#ffffff" stroke="none" d="M30 306 c0 -3 -4 -8 -10 -11 -5 -3 -10
-1 -10 4 0 6 5 11 10 11 6 0 10 -2 10 -4z"/>
<path fill="#ffffff" stroke="none" d="M210 248 c0 -13 -19 -18 -26 -7 -4 8
-3 9 4 5 7 -4 12 -2 12 4 0 7 -6 10 -12 7 -7 -2 -12 -12 -10 -22 2 -9 -1 -14
-7 -11 -5 4 -12 2 -16 -4 -7 -12 -25 -4 -25 11 0 6 6 7 13 3 8 -6 8 -3 -1 9
-8 9 -11 21 -7 27 3 5 -2 10 -12 10 -17 1 -17 1 1 15 16 12 22 11 52 -13 19
-15 34 -30 34 -34z"/>
<path fill="#ffffff" stroke="none" d="M66 259 c13 -12 34 -27 46 -33 13 -6
23 -17 23 -23 0 -6 3 -14 8 -17 4 -3 5 -3 2 1 -3 3 0 12 6 20 9 10 15 10 25 2
10 -8 14 -8 14 0 0 19 29 12 40 -9 12 -23 6 -40 -16 -40 -8 0 -12 -4 -9 -10 3
-5 2 -17 -3 -26 -7 -13 -15 -8 -46 26 -22 24 -34 46 -29 53 4 7 0 7 -10 -2 -9
-7 -17 -20 -17 -27 0 -8 -5 -14 -10 -14 -6 0 -9 12 -7 28 3 20 -3 35 -26 60
-34 36 -26 44 9 11z"/>
<path fill="#ffffff" stroke="none" d="M123 257 c3 -8 -1 -14 -9 -14 -15 0
-18 9 -7 20 9 9 10 9 16 -6z"/>
<path fill="#ffffff" stroke="none" d="M296 68 c1 -35 0 -47 -2 -28 -9 74 -13
82 -39 78 -23 -5 -23 -4 -7 18 26 35 45 8 48 -68z"/>
<path fill="#ffffff" stroke="none" d="M100 120 c0 -10 4 -22 10 -25 5 -3 15
-16 22 -28 11 -21 10 -21 -13 -6 -13 9 -26 26 -29 38 -5 22 -5 22 -33 -7 -15
-16 -32 -42 -37 -58 -6 -21 -9 -23 -9 -9 -1 11 8 35 19 53 23 38 25 46 8 36
-9 -5 -9 -3 1 9 7 9 17 15 21 12 5 -3 11 -1 15 5 9 15 25 2 25 -20z"/>
<path fill="#ffffff" stroke="none" d="M160 109 c0 -6 -4 -7 -10 -4 -5 3 -10
11 -10 16 0 6 5 7 10 4 6 -3 10 -11 10 -16z"/>
<path fill="#ffffff" stroke="none" d="M270 46 c0 -5 -13 3 -30 19 -16 16 -30
33 -30 39 0 5 14 -3 30 -19 17 -16 30 -33 30 -39z"/>
<path fill="#ffffff" stroke="none" d="M210 76 c0 -2 -7 -9 -15 -16 -12 -10
-15 -10 -15 4 0 9 7 16 15 16 8 0 15 -2 15 -4z"/>
<path fill="#000000" stroke="none" d="M177 176 c-12 -9 -14 -16 -7 -21 12 -7
40 11 40 26 0 13 -12 11 -33 -5z"/>
</g>
</svg>
