<?xml version="1.0" standalone="no"?>
<!DOCTYPE svg PUBLIC "-//W3C//DTD SVG 20010904//EN"
 "http://www.w3.org/TR/2001/REC-SVG-20010904/DTD/svg10.dtd">
<svg version="1.0" xmlns="http://www.w3.org/2000/svg"
 width="32.000000pt" height="32.000000pt" viewBox="0 0 32.000000 32.000000"
 preserveAspectRatio="xMidYMid meet">
<metadata>
Created by potrace 1.16, written by Peter Selinger 2001-2019
</metadata>
<g transform="translate(0.000000,32.000000) scale(0.100000,-0.100000)"
fill="#000000" stroke="none">
<path fill="#000000" stroke="none" d="M130 295 c-8 -10 -9 -15 -2 -15 6 0 9
-6 6 -14 -3 -8 3 -16 15 -19 14 -3 21 0 21 10 0 8 5 11 13 7 6 -4 1 5 -12 19
-29 32 -25 31 -41 12z"/>
<path fill="#000000" stroke="none" d="M114 213 c-8 -8 -14 -19 -14 -25 0 -7
-4 -7 -13 1 -8 6 -17 8 -20 4 -4 -3 -7 2 -7 12 0 16 -2 17 -12 6 -10 -11 -10
-14 -1 -18 7 -2 15 -3 17 -1 3 2 12 -6 20 -17 14 -20 15 -20 25 5 5 14 10 19
10 12 1 -9 12 -12 34 -10 34 3 40 23 7 23 -10 0 -23 5 -27 9 -4 5 -3 6 4 2 6
-3 14 -3 17 2 9 14 -25 10 -40 -5z"/>
<path fill="#000000" stroke="none" d="M200 205 c7 -8 17 -15 22 -15 6 0 5 7
-2 15 -7 8 -17 15 -22 15 -6 0 -5 -7 2 -15z"/>
<path fill="#000000" stroke="none" d="M191 157 c-8 -10 -7 -14 2 -14 8 0 14
6 14 14 0 7 -1 13 -2 13 -2 0 -8 -6 -14 -13z"/>
<path fill="#000000" stroke="none" d="M260 157 c0 -10 33 -68 36 -64 7 6 -13
54 -25 62 -6 3 -11 4 -11 2z"/>
<path fill="#000000" stroke="none" d="M56 115 c-37 -40 -32 -53 6 -16 17 17
29 34 25 37 -3 3 -17 -6 -31 -21z"/>
<path fill="#000000" stroke="none" d="M100 81 c0 -5 5 -13 10 -16 6 -3 10 -2
10 4 0 5 -4 13 -10 16 -5 3 -10 2 -10 -4z"/>
</g>
</svg>
