<?xml version="1.0" standalone="no"?>
<!DOCTYPE svg PUBLIC "-//W3C//DTD SVG 20010904//EN"
 "http://www.w3.org/TR/2001/REC-SVG-20010904/DTD/svg10.dtd">
<svg version="1.0" xmlns="http://www.w3.org/2000/svg"
 width="32.000000pt" height="32.000000pt" viewBox="0 0 32.000000 32.000000"
 preserveAspectRatio="xMidYMid meet">
<metadata>
Created by potrace 1.16, written by Peter Selinger 2001-2019
</metadata>
<g transform="translate(0.000000,32.000000) scale(0.100000,-0.100000)"
fill="#000000" stroke="none">
<path fill="#000000" stroke="none" d="M130 295 c-9 -11 -9 -15 -1 -15 7 0 9
-5 6 -10 -4 -6 -1 -18 7 -27 9 -12 9 -15 1 -9 -13 7 -18 -6 -6 -17 10 -11 33
13 33 35 0 12 4 17 13 12 6 -4 1 5 -12 19 -29 32 -25 31 -41 12z"/>
<path fill="#000000" stroke="none" d="M46 212 c-4 -7 0 -19 8 -28 9 -8 16
-12 16 -8 0 3 7 1 15 -6 12 -10 16 -9 21 4 4 11 10 13 18 8 15 -13 49 -11 58
2 11 17 -12 38 -27 26 -9 -8 -15 -8 -20 0 -10 16 -23 12 -30 -11 -5 -16 -10
-18 -21 -8 -8 6 -14 8 -15 3 0 -5 -4 0 -8 10 -5 14 -10 16 -15 8z"/>
<path fill="#000000" stroke="none" d="M204 202 c15 -18 15 -20 -4 -37 -24
-22 -27 -47 -4 -38 8 3 13 12 10 19 -3 8 -1 14 3 14 13 0 21 27 15 45 -4 8
-13 15 -22 15 -13 0 -13 -2 2 -18z"/>
<path fill="#000000" stroke="none" d="M145 160 c-3 -5 -1 -10 4 -10 6 0 11 5
11 10 0 6 -2 10 -4 10 -3 0 -8 -4 -11 -10z"/>
<path fill="#000000" stroke="none" d="M258 148 c-2 -7 7 -24 20 -38 l24 -25
-7 25 c-10 35 -31 56 -37 38z"/>
<path fill="#000000" stroke="none" d="M52 113 c-36 -53 -35 -58 7 -18 46 44
47 45 27 45 -8 0 -23 -12 -34 -27z"/>
<path fill="#000000" stroke="none" d="M215 100 c-10 -11 -16 -22 -14 -24 2
-2 12 7 22 20 22 29 17 32 -8 4z"/>
<path fill="#000000" stroke="none" d="M100 75 c7 -8 17 -15 22 -15 6 0 5 7
-2 15 -7 8 -17 15 -22 15 -6 0 -5 -7 2 -15z"/>
</g>
</svg>
