<?xml version="1.0" standalone="no"?>
<!DOCTYPE svg PUBLIC "-//W3C//DTD SVG 20010904//EN"
 "http://www.w3.org/TR/2001/REC-SVG-20010904/DTD/svg10.dtd">
<svg version="1.0" xmlns="http://www.w3.org/2000/svg"
 width="32.000000pt" height="32.000000pt" viewBox="0 0 32.000000 32.000000"
 preserveAspectRatio="xMidYMid meet">
<metadata>
Created by potrace 1.16, written by Peter Selinger 2001-2019
</metadata>
<g transform="translate(0.000000,32.000000) scale(0.100000,-0.100000)"
fill="#000000" stroke="none">
<path fill="#000000" stroke="none" d="M123 299 c-9 -9 -8 -18 4 -38 13 -22
13 -23 0 -8 -10 12 -17 15 -22 7 -4 -6 -2 -17 4 -24 15 -18 -9 -49 -32 -40 -9
3 -17 10 -17 15 0 5 -4 9 -10 9 -5 0 -10 -5 -10 -11 0 -15 26 -39 34 -32 3 4
6 1 6 -6 0 -7 8 -11 18 -10 9 1 25 -1 35 -6 14 -6 15 -10 6 -21 -9 -11 -8 -18
1 -29 20 -24 33 -18 27 15 -4 16 -2 32 3 35 5 3 7 0 4 -8 -7 -19 14 -33 29
-18 7 7 6 16 -6 29 -14 15 -14 19 -2 19 8 0 12 -4 9 -8 -9 -15 14 -19 26 -4
10 12 9 20 -4 40 -9 14 -21 23 -26 20 -5 -3 -11 -1 -15 4 -3 6 4 8 15 6 22 -4
21 0 -14 48 -21 29 -44 35 -63 16z"/>
<path fill="#000000" stroke="none" d="M217 109 c-27 -27 -47 -55 -44 -62 2
-7 21 7 45 33 48 52 59 48 72 -26 l9 -49 -3 63 c-4 94 -19 102 -79 41z"/>
<path fill="#000000" stroke="none" d="M45 139 c-5 -6 -9 -21 -9 -33 -1 -11
-6 -20 -11 -19 -6 1 -11 -17 -11 -40 -1 -23 0 -32 3 -20 2 12 18 37 35 55 29
31 31 32 38 12 5 -11 20 -28 34 -37 23 -15 26 -16 26 -2 0 9 -6 18 -14 21 -8
3 -20 20 -27 37 -17 44 -16 43 -46 16 -15 -13 -21 -16 -14 -6 8 9 11 20 8 23
-3 3 -8 0 -12 -7z"/>
</g>
</svg>
