<?xml version="1.0" standalone="no"?>
<!DOCTYPE svg PUBLIC "-//W3C//DTD SVG 20010904//EN"
 "http://www.w3.org/TR/2001/REC-SVG-20010904/DTD/svg10.dtd">
<svg version="1.0" xmlns="http://www.w3.org/2000/svg"
 width="32.000000pt" height="32.000000pt" viewBox="0 0 32.000000 32.000000"
 preserveAspectRatio="xMidYMid meet">
<metadata>
Created by potrace 1.16, written by Peter Selinger 2001-2019
</metadata>
<g transform="translate(0.000000,32.000000) scale(0.100000,-0.100000)"
fill="#000000" stroke="none">
<path fill="#000000" stroke="none" d="M0 160 l0 -160 160 0 160 0 0 160 0
160 -160 0 -160 0 0 -160z"/>
<path fill="#ffffff" stroke="none" d="M186 283 c35 -48 36 -52 14 -48 -11 2
-18 0 -15 -6 4 -5 10 -7 15 -4 5 3 16 -6 25 -19 16 -24 16 -27 -5 -56 -23 -32
-46 -35 -43 -5 1 12 -2 14 -10 6 -7 -7 -6 -15 3 -25 7 -9 9 -24 6 -33 -5 -15
-4 -15 9 1 8 11 15 17 15 13 0 -3 14 7 32 23 32 30 58 27 58 -7 0 -8 5 -11 10
-8 12 7 12 -60 1 -90 -6 -16 -9 -11 -15 25 -10 67 -20 79 -45 56 -12 -11 -21
-24 -21 -29 0 -15 -33 -36 -56 -37 -27 0 -74 36 -74 57 0 23 -47 -22 -65 -62
l-14 -30 2 43 c0 24 5 46 11 49 5 3 6 1 2 -5 -4 -7 -5 -12 -2 -12 3 0 10 10
17 21 8 15 8 19 0 15 -15 -10 -14 9 2 21 26 20 54 12 70 -20 l16 -32 0 27 c1
39 -8 56 -27 51 -10 -2 -28 4 -40 15 -23 20 -29 42 -12 42 6 0 10 -4 10 -9 0
-5 9 -11 20 -14 24 -6 45 24 28 41 -5 5 -7 15 -3 22 5 8 12 6 22 -7 13 -15 13
-14 0 8 -29 50 25 69 59 22z"/>
<path fill="#ffffff" stroke="none" d="M305 149 c11 -17 -1 -21 -15 -4 -8 9
-8 15 -2 15 6 0 14 -5 17 -11z"/>
<path fill="#ffffff" stroke="none" d="M77 58 c-3 -8 -6 -5 -6 6 -1 11 2 17 5
13 3 -3 4 -12 1 -19z"/>
<path fill="#ffffff" stroke="none" d="M105 60 c3 -5 1 -10 -4 -10 -6 0 -11 5
-11 10 0 6 2 10 4 10 3 0 8 -4 11 -10z"/>
<path fill="#000000" stroke="none" d="M186 168 c3 -5 10 -6 15 -3 13 9 11 12
-6 12 -8 0 -12 -4 -9 -9z"/>
</g>
</svg>
