<?xml version="1.0" standalone="no"?>
<!DOCTYPE svg PUBLIC "-//W3C//DTD SVG 20010904//EN"
 "http://www.w3.org/TR/2001/REC-SVG-20010904/DTD/svg10.dtd">
<svg version="1.0" xmlns="http://www.w3.org/2000/svg"
 width="32.000000pt" height="48.000000pt" viewBox="0 0 32.000000 48.000000"
 preserveAspectRatio="xMidYMid meet">
<metadata>
Created by potrace 1.16, written by Peter Selinger 2001-2019
</metadata>
<g transform="translate(0.000000,48.000000) scale(0.100000,-0.100000)"
fill="#000000" stroke="none">
<path fill="#000000" stroke="none" d="M0 240 l0 -240 160 0 160 0 0 240 0
240 -160 0 -160 0 0 -240z"/>
<path fill="#ffffff" stroke="none" d="M167 429 c-4 -16 -3 -18 8 -9 8 7 21 7
38 1 22 -9 24 -7 21 12 -4 21 -4 21 8 -1 9 -19 9 -25 -3 -33 -8 -4 -23 -6 -34
-3 -16 4 -17 3 -5 -5 11 -8 12 -13 3 -22 -14 -14 -36 -2 -29 18 3 8 2 11 -3 8
-14 -8 -23 12 -16 35 8 26 19 26 12 -1z"/>
<path fill="#ffffff" stroke="none" d="M37 397 c0 -8 -6 -14 -14 -14 -9 0 -10
4 -2 14 6 7 12 13 14 13 1 0 2 -6 2 -13z"/>
<path fill="#ffffff" stroke="none" d="M109 397 c8 -10 7 -14 -2 -14 -8 0 -14
6 -14 14 0 7 1 13 2 13 2 0 8 -6 14 -13z"/>
<path fill="#ffffff" stroke="none" d="M201 317 c-10 -9 -11 -8 -5 6 3 10 9
15 12 12 3 -3 0 -11 -7 -18z"/>
<path fill="#ffffff" stroke="none" d="M71 303 c-11 -5 -11 -7 0 -14 12 -7 11
-9 -1 -9 -13 0 -13 -1 0 -11 13 -9 13 -10 0 -6 -23 6 -26 47 -3 46 12 0 14 -2
4 -6z"/>
<path fill="#ffffff" stroke="none" d="M230 301 c0 -5 -7 -12 -16 -15 -14 -5
-15 -4 -4 9 14 17 20 19 20 6z"/>
<path fill="#ffffff" stroke="none" d="M178 275 c-3 -3 -9 2 -12 12 -6 14 -5
15 5 6 7 -7 10 -15 7 -18z"/>
<path fill="#ffffff" stroke="none" d="M281 261 c7 12 9 11 9 -1 0 -13 1 -13
10 0 5 8 10 10 10 4 0 -6 -7 -17 -16 -25 -13 -10 -17 -10 -25 2 -5 8 -8 19 -8
24 0 6 3 4 6 -4 5 -11 7 -11 14 0z"/>
</g>
</svg>
