<?xml version="1.0" standalone="no"?>
<!DOCTYPE svg PUBLIC "-//W3C//DTD SVG 20010904//EN"
 "http://www.w3.org/TR/2001/REC-SVG-20010904/DTD/svg10.dtd">
<svg version="1.0" xmlns="http://www.w3.org/2000/svg"
 width="32.000000pt" height="32.000000pt" viewBox="0 0 32.000000 32.000000"
 preserveAspectRatio="xMidYMid meet">
<metadata>
Created by potrace 1.16, written by Peter Selinger 2001-2019
</metadata>
<g transform="translate(0.000000,32.000000) scale(0.100000,-0.100000)"
fill="#000000" stroke="none">
<path fill="#000000" stroke="none" d="M66 261 c-4 -5 -3 -17 1 -27 5 -13 3
-15 -7 -9 -9 6 -11 4 -5 -4 9 -15 20 -5 30 27 6 22 -8 31 -19 13z"/>
<path fill="#000000" stroke="none" d="M154 258 c-5 -7 -2 -9 9 -5 8 3 21 -1
27 -9 12 -13 7 -18 -13 -15 -5 1 -5 -4 -2 -10 5 -8 12 -6 23 5 13 12 13 18 2
30 -15 19 -36 21 -46 4z"/>
</g>
</svg>
