<?xml version="1.0" standalone="no"?>
<!DOCTYPE svg PUBLIC "-//W3C//DTD SVG 20010904//EN"
 "http://www.w3.org/TR/2001/REC-SVG-20010904/DTD/svg10.dtd">
<svg version="1.0" xmlns="http://www.w3.org/2000/svg"
 width="32.000000pt" height="32.000000pt" viewBox="0 0 32.000000 32.000000"
 preserveAspectRatio="xMidYMid meet">
<metadata>
Created by potrace 1.16, written by Peter Selinger 2001-2019
</metadata>
<g transform="translate(0.000000,32.000000) scale(0.100000,-0.100000)"
fill="#000000" stroke="none">
<path fill="#000000" stroke="none" d="M0 160 l0 -160 160 0 160 0 0 160 0
160 -160 0 -160 0 0 -160z"/>
<path fill="#ffffff" stroke="none" d="M95 260 c3 -5 1 -10 -4 -10 -6 0 -11
-6 -11 -14 0 -20 -17 -29 -26 -15 -5 8 -3 9 6 4 10 -6 12 -4 7 9 -11 29 13 50
28 26z"/>
<path fill="#ffffff" stroke="none" d="M200 254 c11 -12 11 -18 -2 -30 -12
-12 -17 -13 -23 -3 -5 8 -4 10 3 5 7 -4 12 -2 12 4 0 7 -9 14 -20 17 -11 3
-17 9 -14 14 8 14 30 11 44 -7z"/>
<path fill="#ffffff" stroke="none" d="M115 172 c-3 -3 -11 0 -18 7 -9 10 -8
11 6 5 10 -3 15 -9 12 -12z"/>
<path fill="#ffffff" stroke="none" d="M287 151 c0 -11 -5 -18 -9 -15 -4 3 -5
11 -1 19 7 21 12 19 10 -4z"/>
<path fill="#ffffff" stroke="none" d="M40 150 c0 -5 -2 -10 -4 -10 -3 0 -8 5
-11 10 -3 6 -1 10 4 10 6 0 11 -4 11 -10z"/>
</g>
</svg>
