<?xml version="1.0" standalone="no"?>
<!DOCTYPE svg PUBLIC "-//W3C//DTD SVG 20010904//EN"
 "http://www.w3.org/TR/2001/REC-SVG-20010904/DTD/svg10.dtd">
<svg version="1.0" xmlns="http://www.w3.org/2000/svg"
 width="32.000000pt" height="32.000000pt" viewBox="0 0 32.000000 32.000000"
 preserveAspectRatio="xMidYMid meet">
<metadata>
Created by potrace 1.16, written by Peter Selinger 2001-2019
</metadata>
<g transform="translate(0.000000,32.000000) scale(0.100000,-0.100000)"
fill="#000000" stroke="none">
<path fill="#000000" stroke="none" d="M0 160 l0 -160 160 0 160 0 0 160 0
160 -160 0 -160 0 0 -160z"/>
<path fill="#ffffff" stroke="none" d="M242 299 c10 -5 18 -16 18 -24 0 -8 5
-15 10 -15 7 0 7 -7 0 -20 -6 -11 -15 -18 -20 -15 -5 3 -11 -3 -13 -12 -3 -13
-4 -12 -2 2 2 29 -27 78 -49 81 -31 4 -28 11 6 12 17 0 40 -4 50 -9z"/>
<path fill="#ffffff" stroke="none" d="M140 279 c0 8 9 7 29 -4 39 -20 47 -34
28 -52 -11 -12 -16 -12 -22 -2 -5 8 -4 10 3 5 7 -4 12 -2 12 4 0 16 -42 29
-63 18 -10 -5 -14 -14 -11 -20 4 -7 3 -8 -5 -4 -6 4 -9 12 -6 17 4 5 -1 9 -9
9 -9 0 -16 -6 -16 -14 0 -20 -17 -29 -26 -15 -4 8 -3 9 4 5 8 -5 11 1 9 16 -1
17 4 24 21 26 12 2 22 8 22 14 0 6 6 6 15 -2 11 -9 15 -9 15 -1z"/>
<path fill="#ffffff" stroke="none" d="M121 190 c9 13 10 13 6 0 -2 -8 -10
-15 -17 -15 -7 0 -15 7 -17 15 -4 13 -3 13 6 0 10 -13 12 -13 22 0z"/>
<path fill="#ffffff" stroke="none" d="M304 191 c3 -5 -1 -24 -9 -43 -11 -27
-11 -38 -2 -48 9 -9 9 -11 0 -6 -6 3 -13 0 -16 -6 -3 -10 -8 -10 -18 1 -8 8
-9 11 -2 7 6 -3 14 -2 18 4 3 5 2 10 -3 10 -18 0 -21 29 -6 59 16 31 28 38 38
22z"/>
<path fill="#ffffff" stroke="none" d="M50 148 c0 -4 -7 -8 -16 -8 -8 0 -12
-4 -9 -10 3 -5 2 -10 -3 -10 -8 0 -9 36 -2 70 1 7 30 -32 30 -42z"/>
<path fill="#ffffff" stroke="none" d="M240 171 c0 -16 -30 -41 -48 -41 -12 0
-9 7 13 25 34 28 35 28 35 16z"/>
<path fill="#ffffff" stroke="none" d="M90 150 c-8 -5 -19 -10 -25 -10 -5 0
-3 5 5 10 8 5 20 10 25 10 6 0 3 -5 -5 -10z"/>
<path fill="#ffffff" stroke="none" d="M146 136 c0 -14 -5 -24 -10 -23 -6 1
-10 -4 -8 -12 3 -12 1 -12 -13 -1 -14 12 -14 15 6 37 13 12 23 23 24 23 0 0 1
-11 1 -24z"/>
<path fill="#ffffff" stroke="none" d="M217 78 c-3 -8 -6 -5 -6 6 -1 11 2 17
5 13 3 -3 4 -12 1 -19z"/>
<path fill="#000000" stroke="none" d="M237 249 c7 -7 15 -10 18 -7 3 3 -2 9
-12 12 -14 6 -15 5 -6 -5z"/>
</g>
</svg>
