<?xml version="1.0" standalone="no"?>
<!DOCTYPE svg PUBLIC "-//W3C//DTD SVG 20010904//EN"
 "http://www.w3.org/TR/2001/REC-SVG-20010904/DTD/svg10.dtd">
<svg version="1.0" xmlns="http://www.w3.org/2000/svg"
 width="32.000000pt" height="32.000000pt" viewBox="0 0 32.000000 32.000000"
 preserveAspectRatio="xMidYMid meet">
<metadata>
Created by potrace 1.16, written by Peter Selinger 2001-2019
</metadata>
<g transform="translate(0.000000,32.000000) scale(0.100000,-0.100000)"
fill="#000000" stroke="none">
<path fill="#000000" stroke="none" d="M158 279 c-17 -12 -28 -30 -28 -44 0
-21 -41 -75 -57 -75 -3 0 -12 8 -19 18 -12 16 -12 16 -11 -3 1 -12 -5 -21 -17
-23 -15 -3 -18 0 -13 17 3 12 1 21 -4 21 -22 0 -6 -41 24 -64 37 -28 62 -33
73 -14 5 8 12 2 20 -17 7 -17 13 -23 13 -15 0 8 -6 26 -14 40 -12 22 -14 23
-20 8 -8 -21 -33 -23 -57 -4 -20 15 -5 38 18 29 20 -7 74 51 74 80 0 32 41 60
74 51 17 -4 28 -17 35 -42 l11 -37 -5 35 c-6 40 -11 47 -45 54 -17 4 -34 -1
-52 -15z"/>
<path fill="#000000" stroke="none" d="M200 236 c0 -25 4 -36 15 -36 8 0 24
-9 35 -20 11 -11 27 -20 35 -20 16 0 19 -9 9 -34 -9 -23 -31 -20 -45 6 l-11
21 -14 -24 c-7 -13 -13 -28 -13 -34 0 -5 5 0 13 13 11 21 14 22 25 8 19 -23
48 -20 55 7 10 36 7 47 -11 47 -26 1 -61 33 -69 64 -10 40 -24 41 -24 2z"/>
</g>
</svg>
