<?xml version="1.0" standalone="no"?>
<!DOCTYPE svg PUBLIC "-//W3C//DTD SVG 20010904//EN"
 "http://www.w3.org/TR/2001/REC-SVG-20010904/DTD/svg10.dtd">
<svg version="1.0" xmlns="http://www.w3.org/2000/svg"
 width="32.000000pt" height="32.000000pt" viewBox="0 0 32.000000 32.000000"
 preserveAspectRatio="xMidYMid meet">
<metadata>
Created by potrace 1.16, written by Peter Selinger 2001-2019
</metadata>
<g transform="translate(0.000000,32.000000) scale(0.100000,-0.100000)"
fill="#000000" stroke="none">
<path fill="#000000" stroke="none" d="M60 299 c0 -5 -4 -8 -8 -5 -4 2 -14 1
-22 -5 -13 -7 -12 -9 3 -9 12 0 17 -8 17 -27 0 -22 -2 -25 -10 -13 -5 8 -10
10 -10 5 0 -6 5 -16 10 -23 6 -6 7 -10 4 -7 -10 6 -34 -21 -34 -39 0 -11 8
-14 34 -11 30 4 33 2 29 -15 -3 -11 -9 -18 -13 -15 -5 3 -11 -1 -13 -7 -4 -10
-8 -9 -16 2 -6 8 -11 10 -11 4 0 -6 6 -17 14 -23 10 -9 16 -8 26 4 18 21 43
19 58 -6 11 -17 16 -18 28 -8 12 10 13 9 8 -6 -6 -14 -4 -16 6 -10 9 5 11 4 6
-4 -10 -15 21 -26 37 -12 10 8 17 7 27 -2 10 -10 11 -9 5 2 -6 11 -4 13 8 8
16 -6 32 17 28 40 -1 6 4 15 10 19 8 5 10 3 4 -7 -5 -10 -5 -11 3 -4 21 20 24
61 5 76 -16 13 -17 12 -5 -2 10 -13 8 -21 -9 -43 -12 -15 -26 -25 -33 -23 -6
2 -19 0 -28 -4 -20 -11 -66 30 -47 42 8 5 8 8 0 13 -6 4 -9 12 -6 17 4 5 1 9
-5 9 -7 0 -9 -8 -5 -21 5 -14 3 -19 -3 -15 -6 3 -13 2 -17 -4 -3 -5 -16 -10
-28 -9 -22 0 -22 0 1 10 13 5 26 18 29 29 6 22 19 25 57 10 19 -7 25 -6 23 2
-1 7 6 14 16 16 10 2 17 0 16 -5 -1 -4 1 -16 6 -26 4 -10 2 -23 -5 -32 -7 -8
-8 -15 -2 -15 17 0 31 25 22 39 -4 8 -6 20 -3 27 6 17 -35 28 -52 14 -10 -8
-24 -8 -49 -1 -20 5 -36 6 -37 3 -1 -4 -2 -16 -3 -26 0 -11 -7 -21 -15 -24 -9
-3 -11 0 -6 9 5 7 8 30 6 51 -2 35 0 38 26 39 24 0 25 1 8 8 -11 5 -23 7 -27
4 -5 -2 -9 2 -9 9 -1 7 -4 0 -8 -17 -8 -39 -37 -41 -34 -2 1 15 0 27 -3 27 -2
0 -4 -5 -4 -11z"/>
<path fill="#ffffff" stroke="none" d="M100 226 c0 -2 -9 -6 -20 -9 -11 -3
-18 -1 -14 4 5 9 34 13 34 5z"/>
<path fill="#ffffff" stroke="none" d="M146 155 c-3 -22 -13 -28 -33 -21 -15
6 -14 9 7 21 14 7 26 13 27 14 1 1 0 -6 -1 -14z"/>
<path fill="#000000" stroke="none" d="M230 270 c0 -11 4 -20 9 -20 5 0 7 9 4
20 -3 11 -7 20 -9 20 -2 0 -4 -9 -4 -20z"/>
<path fill="#000000" stroke="none" d="M294 102 c4 -7 3 -12 -3 -12 -6 0 -21
-11 -34 -24 -13 -12 -30 -25 -38 -28 -11 -4 -12 -8 -2 -19 11 -11 16 -9 28 7
15 18 15 18 8 0 -4 -14 -3 -17 6 -12 6 4 9 16 6 27 -4 12 -2 18 5 17 18 -5 44
38 29 48 -8 4 -9 3 -5 -4z"/>
<path fill="#000000" stroke="none" d="M64 81 c3 -5 -1 -11 -9 -15 -8 -3 -15
-11 -15 -18 0 -9 3 -9 12 0 18 18 27 14 21 -10 l-6 -23 21 23 c11 13 23 23 27
22 4 -1 10 2 13 6 4 4 2 4 -4 1 -7 -4 -17 0 -24 8 -13 16 -45 21 -36 6z"/>
</g>
</svg>
