<?xml version="1.0" standalone="no"?>
<!DOCTYPE svg PUBLIC "-//W3C//DTD SVG 20010904//EN"
 "http://www.w3.org/TR/2001/REC-SVG-20010904/DTD/svg10.dtd">
<svg version="1.0" xmlns="http://www.w3.org/2000/svg"
 width="32.000000pt" height="32.000000pt" viewBox="0 0 32.000000 32.000000"
 preserveAspectRatio="xMidYMid meet">
<metadata>
Created by potrace 1.16, written by Peter Selinger 2001-2019
</metadata>
<g transform="translate(0.000000,32.000000) scale(0.100000,-0.100000)"
fill="#000000" stroke="none">
<path fill="#000000" stroke="none" d="M115 298 c-3 -9 -20 -22 -36 -28 -16
-7 -29 -16 -29 -21 0 -12 22 -23 47 -25 18 -1 21 2 12 13 -8 9 -15 10 -24 3
-10 -8 -15 -8 -21 1 -4 7 -3 9 3 6 6 -4 16 0 23 8 10 13 15 12 32 -8 11 -12
17 -16 13 -9 -3 6 -1 12 6 12 8 0 7 5 -2 17 -12 15 -12 16 3 10 10 -3 26 1 38
11 21 17 21 18 2 18 -11 0 -19 -4 -16 -7 2 -4 0 -10 -6 -14 -5 -3 -10 -1 -10
5 0 6 -4 9 -9 6 -5 -4 -11 0 -14 6 -3 9 -7 8 -12 -4z"/>
<path fill="#000000" stroke="none" d="M166 198 l-26 -33 -19 23 c-11 12 -27
22 -37 22 -9 0 -14 -3 -11 -7 4 -3 1 -13 -7 -22 -17 -19 -10 -67 11 -75 12 -5
13 0 8 23 -8 37 8 48 23 16 8 -17 17 -23 32 -20 15 3 20 -1 20 -16 0 -13 -4
-18 -12 -13 -7 4 -8 3 -4 -5 4 -6 11 -9 15 -7 11 7 67 -41 59 -49 -11 -11 -60
24 -52 37 4 7 3 8 -4 4 -7 -4 -12 -16 -12 -27 0 -25 -16 -25 -30 0 -16 30 -11
39 6 11 10 -17 13 -18 8 -5 -3 11 -7 25 -7 32 0 7 -4 10 -8 7 -4 -2 -9 4 -12
13 -3 13 -6 9 -11 -12 -3 -16 -11 -42 -15 -57 -8 -25 -7 -28 12 -28 12 0 37 4
55 9 20 6 32 6 32 0 0 -10 51 -10 95 1 l30 7 -32 13 c-18 6 -33 18 -33 25 0 7
-15 23 -34 36 -34 23 -34 24 -19 53 15 29 17 29 27 12 6 -10 21 -31 33 -45 19
-22 23 -23 24 -8 1 9 2 23 3 30 2 10 -68 87 -79 87 -1 0 -14 -15 -29 -32z"/>
<path fill="#ffffff" stroke="none" d="M246 161 c-3 -5 1 -12 10 -15 8 -3 12
-11 8 -17 -5 -9 -11 -7 -20 6 -12 16 -11 35 2 35 3 0 3 -4 0 -9z"/>
<path fill="#000000" stroke="none" d="M13 157 c0 -8 6 -14 14 -14 9 0 10 4 2
14 -6 7 -12 13 -14 13 -1 0 -2 -6 -2 -13z"/>
<path fill="#000000" stroke="none" d="M170 66 c0 -3 9 -10 20 -16 11 -6 20
-8 20 -6 0 3 -9 10 -20 16 -11 6 -20 8 -20 6z"/>
</g>
</svg>
