<?xml version="1.0" standalone="no"?>
<!DOCTYPE svg PUBLIC "-//W3C//DTD SVG 20010904//EN"
 "http://www.w3.org/TR/2001/REC-SVG-20010904/DTD/svg10.dtd">
<svg version="1.0" xmlns="http://www.w3.org/2000/svg"
 width="32.000000pt" height="32.000000pt" viewBox="0 0 32.000000 32.000000"
 preserveAspectRatio="xMidYMid meet">
<metadata>
Created by potrace 1.16, written by Peter Selinger 2001-2019
</metadata>
<g transform="translate(0.000000,32.000000) scale(0.100000,-0.100000)"
fill="#000000" stroke="none">
<path fill="#000000" stroke="none" d="M0 160 l0 -160 160 0 160 0 0 160 0
160 -160 0 -160 0 0 -160z"/>
<path fill="#ffffff" stroke="none" d="M67 283 c-3 -39 26 -37 34 2 4 17 7 24
8 17 0 -7 4 -11 9 -9 4 3 16 1 27 -4 17 -7 17 -8 -7 -8 -21 -1 -28 -6 -28 -21
0 -11 -3 -20 -7 -21 -5 0 -18 -2 -30 -5 -19 -3 -23 1 -23 21 0 17 -6 25 -17
25 -15 0 -16 2 -3 9 8 6 18 7 22 5 4 -3 8 0 8 5 0 6 2 11 4 11 3 0 4 -12 3
-27z"/>
<path fill="#ffffff" stroke="none" d="M160 223 c-9 -2 -20 -13 -25 -25 -6
-12 -17 -24 -25 -26 -10 -3 -10 0 3 10 10 7 19 23 19 34 2 16 7 20 23 15 14
-4 16 -6 5 -8z"/>
<path fill="#ffffff" stroke="none" d="M232 229 c-14 -5 -20 -13 -16 -20 4 -8
3 -9 -5 -5 -16 10 5 36 28 35 10 0 8 -3 -7 -10z"/>
<path fill="#ffffff" stroke="none" d="M70 210 c0 5 5 10 12 10 6 0 2 -10 -10
-23 -12 -13 -20 -26 -18 -28 3 -3 -4 -5 -14 -5 -11 0 -22 6 -24 12 -3 8 3 10
17 7 13 -3 18 -1 12 4 -5 4 -11 14 -13 21 -2 10 2 10 18 2 13 -7 20 -7 20 0z"/>
<path fill="#ffffff" stroke="none" d="M274 181 c3 -5 -2 -15 -12 -22 -15 -12
-16 -12 -5 2 7 9 10 19 6 22 -3 4 -4 7 0 7 3 0 8 -4 11 -9z"/>
<path fill="#ffffff" stroke="none" d="M183 133 c23 -29 37 -29 72 -1 l28 21
-12 -21 c-6 -12 -20 -26 -30 -31 -20 -11 -61 -4 -61 11 0 6 -8 7 -17 4 -10 -4
-14 -4 -11 0 11 10 -12 45 -24 38 -7 -4 -8 -3 -4 4 9 15 37 3 59 -25z"/>
<path fill="#ffffff" stroke="none" d="M300 85 c-7 -8 -18 -15 -24 -15 -6 0
-2 7 8 15 25 19 32 19 16 0z"/>
<path fill="#ffffff" stroke="none" d="M91 73 c13 -17 13 -17 -6 -3 -11 8 -22
16 -24 17 -2 2 0 3 6 3 6 0 17 -8 24 -17z"/>
<path fill="#ffffff" stroke="none" d="M52 48 c-7 -7 -12 -8 -12 -2 0 14 12
26 19 19 2 -3 -1 -11 -7 -17z"/>
<path fill="#ffffff" stroke="none" d="M237 30 c2 -22 -12 -27 -23 -9 -5 9 5
22 21 29 1 0 1 -9 2 -20z"/>
<path fill="#ffffff" stroke="none" d="M270 26 c0 -3 -4 -8 -10 -11 -5 -3 -10
-1 -10 4 0 6 5 11 10 11 6 0 10 -2 10 -4z"/>
</g>
</svg>
