<?xml version="1.0" standalone="no"?>
<!DOCTYPE svg PUBLIC "-//W3C//DTD SVG 20010904//EN"
 "http://www.w3.org/TR/2001/REC-SVG-20010904/DTD/svg10.dtd">
<svg version="1.0" xmlns="http://www.w3.org/2000/svg"
 width="32.000000pt" height="32.000000pt" viewBox="0 0 32.000000 32.000000"
 preserveAspectRatio="xMidYMid meet">
<metadata>
Created by potrace 1.16, written by Peter Selinger 2001-2019
</metadata>
<g transform="translate(0.000000,32.000000) scale(0.100000,-0.100000)"
fill="#000000" stroke="none">
<path fill="#000000" stroke="none" d="M0 160 l0 -160 39 0 c39 0 72 22 51 35
-5 3 -10 21 -10 38 0 45 -13 63 -30 42 -7 -8 -19 -15 -26 -15 -16 0 -19 36 -4
45 6 4 22 25 36 47 22 35 27 38 42 26 9 -7 5 4 -11 24 -32 43 -33 48 -8 41 11
-3 21 2 24 11 8 21 75 22 83 1 4 -9 17 -14 33 -14 24 2 24 2 3 6 -13 3 -26 11
-29 19 -4 11 -27 14 -99 14 l-94 0 0 -160z"/>
<path fill="#ffffff" stroke="none" d="M80 239 c0 -6 -4 -7 -10 -4 -5 3 -10
11 -10 16 0 6 5 7 10 4 6 -3 10 -11 10 -16z"/>
<path fill="#ffffff" stroke="none" d="M54 206 c-6 -16 -24 -23 -24 -8 0 10
22 33 27 28 2 -2 1 -11 -3 -20z"/>
<path fill="#ffffff" stroke="none" d="M70 83 c0 -22 -2 -25 -10 -13 -13 20
-13 40 0 40 6 0 10 -12 10 -27z"/>
<path fill="#ffffff" stroke="none" d="M84 19 c-3 -5 -10 -7 -15 -3 -5 3 -7
10 -3 15 3 5 10 7 15 3 5 -3 7 -10 3 -15z"/>
<path fill="#000000" stroke="none" d="M205 310 c3 -5 12 -7 20 -3 21 7 19 13
-6 13 -11 0 -18 -4 -14 -10z"/>
<path fill="#000000" stroke="none" d="M255 308 c3 -7 -5 -24 -16 -38 -11 -14
-17 -18 -13 -10 7 13 6 13 -10 1 -16 -13 -14 -15 21 -27 21 -8 39 -14 40 -14
1 0 9 -13 18 -30 19 -37 19 -84 0 -100 -8 -7 -15 -9 -15 -4 0 5 -7 -2 -16 -14
-25 -36 -15 -66 24 -70 l32 -3 0 160 0 161 -35 0 c-23 0 -33 -4 -30 -12z"/>
<path fill="#ffffff" stroke="none" d="M305 220 c-5 -8 -11 -8 -17 -2 -6 6 -7
16 -3 22 5 8 11 8 17 2 6 -6 7 -16 3 -22z"/>
<path fill="#000000" stroke="none" d="M245 138 c3 -67 4 -74 15 -58 14 21 12
53 -3 74 -11 15 -12 13 -12 -16z"/>
<path fill="#ffffff" stroke="none" d="M257 108 c-3 -7 -5 -2 -5 12 0 14 2 19
5 13 2 -7 2 -19 0 -25z"/>
<path fill="#000000" stroke="none" d="M148 27 c-5 -25 -3 -27 28 -27 35 0 40
5 25 29 -6 10 -10 10 -16 1 -5 -8 -11 -6 -19 6 -12 16 -14 15 -18 -9z"/>
</g>
</svg>
