<?xml version="1.0" standalone="no"?>
<!DOCTYPE svg PUBLIC "-//W3C//DTD SVG 20010904//EN"
 "http://www.w3.org/TR/2001/REC-SVG-20010904/DTD/svg10.dtd">
<svg version="1.0" xmlns="http://www.w3.org/2000/svg"
 width="32.000000pt" height="32.000000pt" viewBox="0 0 32.000000 32.000000"
 preserveAspectRatio="xMidYMid meet">
<metadata>
Created by potrace 1.16, written by Peter Selinger 2001-2019
</metadata>
<g transform="translate(0.000000,32.000000) scale(0.100000,-0.100000)"
fill="#000000" stroke="none">
<path fill="#000000" stroke="none" d="M144 288 c2 -16 9 -22 22 -20 15 2 16
1 4 -7 -8 -5 -18 -7 -22 -5 -4 3 -8 0 -8 -6 0 -6 8 -14 18 -17 9 -4 20 -11 24
-17 8 -11 48 20 48 38 0 6 -7 0 -16 -12 -21 -31 -33 -20 -28 28 4 37 2 40 -21
40 -20 0 -24 -4 -21 -22z"/>
<path fill="#000000" stroke="none" d="M111 244 c0 -12 -7 -27 -15 -33 -15
-12 -28 -74 -14 -65 4 3 8 11 8 19 0 9 8 12 27 9 15 -3 28 -6 29 -7 1 -1 -3
-27 -11 -57 -7 -33 -17 -54 -24 -52 -7 1 -10 -2 -6 -8 3 -6 12 -7 18 -3 7 3 3
-3 -7 -15 -11 -12 -15 -22 -10 -22 13 1 45 26 39 31 -2 3 0 27 4 54 l9 50 1
-53 c1 -45 4 -53 19 -50 18 4 20 17 7 58 -11 38 10 11 24 -29 8 -26 8 -36 0
-42 -7 -4 -4 -9 10 -14 13 -4 25 -4 28 -1 4 3 1 6 -7 6 -10 0 -10 3 1 18 7 9
9 14 5 10 -10 -8 -43 57 -50 98 -5 27 16 44 55 44 5 0 7 5 4 10 -9 15 -41 12
-55 -5 -7 -8 -17 -12 -24 -8 -6 4 -18 6 -28 5 -9 -2 -19 2 -23 8 -3 5 1 10 9
10 9 0 16 5 16 10 0 6 -6 10 -14 10 -8 0 -17 8 -19 18 -4 13 -5 13 -6 -4z"/>
<path fill="#000000" stroke="none" d="M37 243 c-12 -11 -8 -40 7 -52 12 -10
17 -8 26 9 18 34 -8 68 -33 43z"/>
<path fill="#ffffff" stroke="none" d="M60 230 c0 -5 -5 -10 -11 -10 -5 0 -7
5 -4 10 3 6 8 10 11 10 2 0 4 -4 4 -10z"/>
<path fill="#000000" stroke="none" d="M250 170 c-12 -7 -12 -12 -3 -21 10
-10 14 -9 19 5 8 22 2 27 -16 16z"/>
</g>
</svg>
