<?xml version="1.0" standalone="no"?>
<!DOCTYPE svg PUBLIC "-//W3C//DTD SVG 20010904//EN"
 "http://www.w3.org/TR/2001/REC-SVG-20010904/DTD/svg10.dtd">
<svg version="1.0" xmlns="http://www.w3.org/2000/svg"
 width="32.000000pt" height="48.000000pt" viewBox="0 0 32.000000 48.000000"
 preserveAspectRatio="xMidYMid meet">
<metadata>
Created by potrace 1.16, written by Peter Selinger 2001-2019
</metadata>
<g transform="translate(0.000000,48.000000) scale(0.100000,-0.100000)"
fill="#000000" stroke="none">
<path fill="#000000" stroke="none" d="M0 444 l0 -37 20 26 c14 17 26 24 37
20 12 -5 14 -3 8 7 -5 9 -4 11 4 6 9 -6 9 -11 0 -22 -9 -11 -14 -12 -19 -3 -5
7 -10 8 -14 1 -4 -6 2 -16 11 -22 15 -10 15 -11 1 -6 -9 2 -19 -2 -22 -10 -3
-9 -10 -13 -15 -10 -6 4 -10 -73 -11 -194 l-1 -200 161 0 161 0 -2 240 -1 240
-52 0 c-34 0 -46 -3 -37 -9 8 -5 22 -8 32 -6 10 2 23 -3 30 -12 16 -18 21 -45
8 -37 -5 3 -7 9 -4 14 3 5 1 11 -5 15 -5 3 -10 1 -10 -4 0 -6 -4 -11 -10 -11
-5 0 -9 5 -7 12 2 12 -4 14 -44 17 -11 0 -18 4 -16 9 3 4 -19 8 -49 9 -31 1
-52 -3 -48 -8 3 -5 0 -9 -5 -9 -6 0 -11 5 -11 10 0 6 -20 10 -45 10 l-45 0 0
-36z"/>
<path fill="#ffffff" stroke="none" d="M188 431 c2 -31 -2 -43 -20 -55 -33
-23 -46 -20 -62 17 l-15 32 4 -30 c5 -35 30 -56 53 -48 22 8 76 53 64 53 -5 0
-12 11 -14 25 -4 20 -1 25 16 25 34 0 46 -18 34 -46 -6 -13 -15 -24 -19 -24
-5 0 -6 -6 -3 -14 9 -22 -14 -55 -49 -71 -23 -11 -25 -13 -7 -9 14 4 35 15 47
24 13 10 33 15 47 13 29 -6 34 -27 43 -164 6 -93 5 -97 -16 -109 -45 -23 -50
-10 -54 127 l-3 128 -2 -137 c-2 -152 -5 -158 -72 -158 -66 0 -70 7 -72 148
l-2 127 -3 -118 c-4 -126 -10 -140 -52 -117 -17 9 -21 20 -21 67 0 31 5 84 11
119 9 54 14 63 35 67 14 2 27 0 30 -4 3 -5 11 -9 17 -8 9 0 9 2 0 6 -7 2 -13
16 -13 29 0 14 -6 37 -14 52 -23 45 -6 69 56 80 29 5 53 10 53 11 0 0 1 -17 3
-38z"/>
<path fill="#ffffff" stroke="none" d="M304 388 c11 -31 -5 -58 -36 -58 -26 0
-33 24 -18 61 15 36 41 35 54 -3z"/>
<path fill="#ffffff" stroke="none" d="M70 370 c16 -38 7 -62 -21 -58 -32 5
-45 31 -31 62 15 34 37 33 52 -4z"/>
</g>
</svg>
