<?xml version="1.0" standalone="no"?>
<!DOCTYPE svg PUBLIC "-//W3C//DTD SVG 20010904//EN"
 "http://www.w3.org/TR/2001/REC-SVG-20010904/DTD/svg10.dtd">
<svg version="1.0" xmlns="http://www.w3.org/2000/svg"
 width="32.000000pt" height="48.000000pt" viewBox="0 0 32.000000 48.000000"
 preserveAspectRatio="xMidYMid meet">
<metadata>
Created by potrace 1.16, written by Peter Selinger 2001-2019
</metadata>
<g transform="translate(0.000000,48.000000) scale(0.100000,-0.100000)"
fill="#000000" stroke="none">
<path fill="#000000" stroke="none" d="M0 444 c0 -35 1 -36 18 -17 9 10 16 17
15 14 -2 -2 3 -11 10 -20 11 -14 10 -14 -5 -2 -16 12 -18 11 -18 -3 0 -9 -4
-16 -10 -16 -6 0 -10 -73 -10 -200 l0 -200 160 0 160 0 0 211 c0 156 -3 208
-12 203 -6 -4 -8 -3 -5 3 4 6 0 16 -8 23 -12 10 -15 10 -15 -1 -1 -9 -4 -8
-11 4 -6 9 -15 15 -20 11 -6 -4 -7 -10 0 -17 13 -16 -9 -51 -34 -55 -11 -2
-16 1 -10 5 6 4 15 18 22 30 11 20 10 22 -15 26 l-27 4 28 2 c16 0 26 5 23 9
-10 17 43 6 63 -12 21 -19 21 -19 21 7 0 26 -3 27 -50 27 -27 0 -50 -4 -50
-10 0 -5 -5 -10 -11 -10 -5 0 -7 6 -3 13 5 7 0 6 -11 -3 -10 -8 -16 -10 -12
-4 9 15 -75 15 -85 0 -6 -8 -8 -7 -8 2 0 8 -16 12 -45 12 l-45 0 0 -36z"/>
<path fill="#ffffff" stroke="none" d="M167 445 c0 -8 -6 -15 -13 -15 -7 0
-16 -4 -19 -10 -3 -5 0 -7 7 -5 9 4 14 -4 16 -20 2 -22 -2 -26 -21 -23 -17 2
-23 11 -25 36 -2 19 -9 32 -17 32 -7 0 -12 -6 -11 -12 15 -84 34 -100 85 -75
25 12 31 12 35 1 3 -9 0 -11 -12 -7 -15 6 -15 5 -3 -10 7 -9 16 -15 20 -13 4
3 13 1 20 -4 11 -6 5 -16 -22 -44 -20 -20 -40 -36 -44 -36 -17 0 -53 32 -53
46 0 17 -17 19 -23 2 -3 -7 -3 3 0 23 3 24 -1 46 -12 65 -9 16 -13 20 -9 9 4
-11 7 -31 8 -45 1 -31 -34 -40 -54 -13 -12 15 -12 16 0 6 23 -21 32 -15 15 10
-14 22 -13 25 10 47 24 23 36 58 15 45 -5 -3 -10 -2 -10 3 0 5 14 9 31 10 17
0 34 3 37 6 12 12 49 5 49 -9z"/>
<path fill="#ffffff" stroke="none" d="M285 363 c-17 -25 -8 -31 15 -10 12 10
12 9 1 -5 -16 -22 -50 -23 -57 -3 -4 9 -1 29 6 46 12 28 14 29 31 13 18 -16
18 -19 4 -41z"/>
<path fill="#ffffff" stroke="none" d="M227 348 c-3 -8 -6 -5 -6 6 -1 11 2 17
5 13 3 -3 4 -12 1 -19z"/>
<path fill="#ffffff" stroke="none" d="M247 258 c-3 -7 -5 -2 -5 12 0 14 2 19
5 13 2 -7 2 -19 0 -25z"/>
<path fill="#ffffff" stroke="none" d="M185 201 c-2 -4 -14 -7 -27 -5 -34 4
-35 5 -13 13 22 9 48 3 40 -8z"/>
<path fill="#ffffff" stroke="none" d="M30 190 c0 -5 -2 -10 -4 -10 -3 0 -8 5
-11 10 -3 6 -1 10 4 10 6 0 11 -4 11 -10z"/>
<path fill="#ffffff" stroke="none" d="M310 196 c0 -3 -4 -8 -10 -11 -5 -3
-10 -1 -10 4 0 6 5 11 10 11 6 0 10 -2 10 -4z"/>
<path fill="#ffffff" stroke="none" d="M156 168 c4 -7 4 -10 -1 -6 -4 4 -15 2
-24 -5 -14 -11 -14 -10 -2 6 16 20 18 21 27 5z"/>
<path fill="#ffffff" stroke="none" d="M191 163 c13 -16 12 -17 -3 -4 -10 7
-18 15 -18 17 0 8 8 3 21 -13z"/>
<path fill="#000000" stroke="none" d="M169 313 c-1 -5 -1 -11 0 -15 0 -5 -10
-8 -24 -8 -30 0 -33 -15 -6 -30 25 -13 46 -5 65 25 20 30 20 32 1 32 -8 0 -12
-4 -9 -9 3 -4 -2 -8 -11 -8 -9 0 -13 5 -10 10 3 6 4 10 1 10 -3 0 -7 -3 -7 -7z"/>
</g>
</svg>
