<?xml version="1.0" standalone="no"?>
<!DOCTYPE svg PUBLIC "-//W3C//DTD SVG 20010904//EN"
 "http://www.w3.org/TR/2001/REC-SVG-20010904/DTD/svg10.dtd">
<svg version="1.0" xmlns="http://www.w3.org/2000/svg"
 width="32.000000pt" height="32.000000pt" viewBox="0 0 32.000000 32.000000"
 preserveAspectRatio="xMidYMid meet">
<metadata>
Created by potrace 1.16, written by Peter Selinger 2001-2019
</metadata>
<g transform="translate(0.000000,32.000000) scale(0.100000,-0.100000)"
fill="#000000" stroke="none">
<path fill="#000000" stroke="none" d="M0 160 l0 -160 160 0 160 0 0 160 0
160 -160 0 -160 0 0 -160z"/>
<path fill="#ffffff" stroke="none" d="M123 273 c-7 -2 -19 -2 -25 0 -7 3 -2
5 12 5 14 0 19 -2 13 -5z"/>
<path fill="#ffffff" stroke="none" d="M255 259 c14 -3 20 -13 21 -42 1 -21 8
-45 15 -53 6 -8 9 -17 6 -21 -4 -3 -2 -12 3 -18 7 -9 6 -16 -5 -25 -11 -9 -15
-9 -15 -1 0 7 -4 9 -10 6 -5 -3 -10 -1 -10 4 0 6 4 11 9 11 14 0 8 49 -6 55
-15 5 -17 35 -3 35 6 0 10 5 10 11 0 5 -4 8 -9 4 -5 -3 -20 9 -32 27 -13 18
-17 28 -9 22 8 -7 24 -13 35 -15z"/>
<path fill="#ffffff" stroke="none" d="M180 255 c-14 -17 -46 -20 -55 -6 -3 5
9 12 27 14 18 2 35 5 37 5 2 1 -2 -5 -9 -13z"/>
<path fill="#ffffff" stroke="none" d="M75 251 c7 -12 -12 -24 -25 -16 -11 7
-4 25 10 25 5 0 11 -4 15 -9z"/>
<path fill="#ffffff" stroke="none" d="M153 223 c-7 -2 -19 -2 -25 0 -7 3 -2
5 12 5 14 0 19 -2 13 -5z"/>
<path fill="#ffffff" stroke="none" d="M56 205 c-19 -19 -32 -19 -16 0 7 8 17
15 22 15 5 0 3 -7 -6 -15z"/>
<path fill="#ffffff" stroke="none" d="M114 199 c3 1 6 -1 6 -4 0 -3 -2 -5 -5
-5 -3 0 -9 0 -15 0 -5 0 -10 8 -10 18 0 13 2 14 9 4 4 -8 11 -13 15 -13z"/>
<path fill="#ffffff" stroke="none" d="M209 196 c-11 -11 -59 -14 -65 -4 -5 7
0 9 14 6 13 -4 23 0 27 10 4 12 8 13 17 4 6 -6 10 -14 7 -16z"/>
<path fill="#ffffff" stroke="none" d="M40 172 c0 -13 -12 -22 -22 -16 -10 6
-1 24 13 24 5 0 9 -4 9 -8z"/>
<path fill="#ffffff" stroke="none" d="M40 125 c0 -12 -19 -12 -23 0 -4 9 -1
12 9 8 7 -3 14 -7 14 -8z"/>
<path fill="#ffffff" stroke="none" d="M165 130 c-16 -4 -22 -8 -13 -9 9 0 19
-5 22 -10 9 -14 -42 0 -55 15 -9 12 -4 14 32 13 41 -1 42 -2 14 -9z"/>
<path fill="#ffffff" stroke="none" d="M218 104 c-4 -11 -28 -14 -28 -4 0 8
22 20 28 14 2 -1 2 -6 0 -10z"/>
<path fill="#ffffff" stroke="none" d="M100 82 c0 -13 -12 -22 -22 -16 -10 6
-1 24 13 24 5 0 9 -4 9 -8z"/>
<path fill="#ffffff" stroke="none" d="M120 60 c0 -5 -4 -10 -10 -10 -5 0 -10
5 -10 10 0 6 5 10 10 10 6 0 10 -4 10 -10z"/>
<path fill="#ffffff" stroke="none" d="M94 22 c3 -5 -1 -9 -9 -9 -8 0 -15 4
-15 9 0 4 4 8 9 8 6 0 12 -4 15 -8z"/>
</g>
</svg>
