<?xml version="1.0" standalone="no"?>
<!DOCTYPE svg PUBLIC "-//W3C//DTD SVG 20010904//EN"
 "http://www.w3.org/TR/2001/REC-SVG-20010904/DTD/svg10.dtd">
<svg version="1.0" xmlns="http://www.w3.org/2000/svg"
 width="32.000000pt" height="48.000000pt" viewBox="0 0 32.000000 48.000000"
 preserveAspectRatio="xMidYMid meet">
<metadata>
Created by potrace 1.16, written by Peter Selinger 2001-2019
</metadata>
<g transform="translate(0.000000,48.000000) scale(0.100000,-0.100000)"
fill="#000000" stroke="none">
<path fill="#000000" stroke="none" d="M127 473 c-3 -5 11 -8 31 -8 47 0 55
-29 17 -65 l-25 -23 -1 29 -1 29 -8 -30 c-7 -27 -15 -18 -11 13 1 6 -3 12 -8
12 -14 0 -4 -41 13 -59 14 -13 18 -13 35 3 19 17 21 17 36 2 9 -9 21 -16 27
-16 7 0 2 -11 -11 -24 -18 -19 -21 -30 -16 -62 4 -21 8 -47 9 -57 1 -10 7 -22
14 -26 6 -3 14 -38 18 -76 7 -78 35 -125 61 -104 21 18 15 38 -12 45 -19 5
-25 13 -25 33 0 14 -3 36 -6 48 -5 16 -2 23 9 23 32 0 42 31 44 139 3 123 -3
171 -20 171 -7 0 -29 -11 -50 -25 l-37 -26 -1 23 c-1 13 -1 26 0 31 0 4 -17 7
-38 7 -22 0 -42 -3 -44 -7z"/>
<path fill="#ffffff" stroke="none" d="M276 435 c-18 -27 -15 -30 13 -16 15 8
17 6 15 -12 -1 -12 -3 -33 -4 -47 -2 -19 -3 -21 -7 -7 -4 14 -11 17 -28 13
-15 -4 -31 1 -46 13 l-23 18 44 32 c52 38 57 38 36 6z"/>
<path fill="#ffffff" stroke="none" d="M287 290 c-5 -22 -4 -23 7 -8 11 15 13
10 11 -30 -3 -61 -11 -77 -38 -79 -15 -2 -18 0 -9 6 11 6 10 10 -5 16 -10 5
-21 8 -24 7 -10 -2 -6 78 4 85 6 3 7 1 3 -5 -3 -5 -1 -12 5 -14 9 -3 9 -9 0
-26 -9 -18 -9 -21 3 -16 14 5 14 19 1 86 -6 30 -4 37 12 40 22 4 36 -26 30
-62z"/>
<path fill="#ffffff" stroke="none" d="M221 297 c-8 -8 -11 -7 -11 4 0 20 13
34 18 19 3 -7 -1 -17 -7 -23z"/>
<path fill="#000000" stroke="none" d="M287 213 c-4 -3 -7 -11 -7 -17 0 -6 5
-5 12 2 6 6 9 14 7 17 -3 3 -9 2 -12 -2z"/>
<path fill="#000000" stroke="none" d="M14 405 c-10 -25 5 -36 25 -17 10 9 16
20 14 25 -7 12 -33 8 -39 -8z"/>
<path fill="#000000" stroke="none" d="M87 320 c9 -37 12 -73 5 -66 -3 4 -8
19 -10 34 -4 35 -22 54 -22 24 0 -27 -14 -28 -40 -2 -17 17 -19 18 -17 2 9
-46 35 -88 57 -89 30 -3 34 -8 19 -31 -10 -16 -10 -30 -1 -69 7 -26 14 -55 16
-63 1 -8 -7 -22 -18 -32 -20 -16 -20 -17 -2 -14 11 2 22 8 24 14 2 7 8 10 12
7 5 -3 0 19 -11 50 -21 59 -25 110 -9 100 9 -6 15 25 10 50 -1 5 9 1 22 -10
15 -14 18 -15 10 -3 -7 9 -14 30 -14 47 -1 17 -3 29 -6 26 -3 -3 -12 7 -19 22
-12 25 -12 26 -6 3z"/>
<path fill="#ffffff" stroke="none" d="M66 280 c0 -3 6 -15 13 -27 11 -21 9
-23 -12 -21 -13 1 -24 7 -24 13 0 5 -4 17 -7 26 -5 11 -2 15 11 14 10 0 18 -3
19 -5z"/>
<path fill="#000000" stroke="none" d="M126 283 c-6 -14 -5 -15 5 -6 7 7 10
15 7 18 -3 3 -9 -2 -12 -12z"/>
<path fill="#000000" stroke="none" d="M150 297 c0 -4 5 -16 12 -26 6 -11 8
-26 3 -37 -5 -11 -7 -22 -7 -26 1 -5 -5 -8 -14 -8 -8 0 -12 -4 -9 -10 3 -5 1
-18 -4 -29 -7 -12 -7 -21 -1 -23 6 -2 4 -14 -5 -31 -8 -15 -10 -25 -5 -22 5 3
12 -7 16 -22 11 -53 11 -53 39 -43 34 13 35 13 36 -7 0 -16 1 -16 8 1 9 22 3
64 -10 72 -5 3 -9 17 -9 32 0 15 -9 44 -19 65 -12 23 -15 39 -9 43 5 4 8 17 5
30 -2 13 0 21 5 18 6 -4 8 -19 6 -35 -3 -15 -1 -26 4 -23 14 9 9 61 -7 74 -12
10 -15 10 -15 -1 0 -11 -2 -11 -10 1 -5 8 -10 12 -10 7z"/>
<path fill="#ffffff" stroke="none" d="M161 161 c10 16 29 -28 29 -67 0 -14 4
-23 8 -20 5 3 9 -1 9 -9 0 -21 -26 -27 -43 -10 -9 8 -17 38 -19 67 -1 29 -1
47 2 39 5 -11 7 -11 14 0z"/>
</g>
</svg>
