<?xml version="1.0" standalone="no"?>
<!DOCTYPE svg PUBLIC "-//W3C//DTD SVG 20010904//EN"
 "http://www.w3.org/TR/2001/REC-SVG-20010904/DTD/svg10.dtd">
<svg version="1.0" xmlns="http://www.w3.org/2000/svg"
 width="32.000000pt" height="32.000000pt" viewBox="0 0 32.000000 32.000000"
 preserveAspectRatio="xMidYMid meet">
<metadata>
Created by potrace 1.16, written by Peter Selinger 2001-2019
</metadata>
<g transform="translate(0.000000,32.000000) scale(0.100000,-0.100000)"
fill="#000000" stroke="none">
<path fill="#000000" stroke="none" d="M103 267 c-25 -17 -33 -32 -42 -76 -6
-30 -11 -61 -11 -70 0 -14 2 -14 10 -1 8 12 10 9 10 -12 0 -16 -6 -29 -12 -29
-7 -1 -19 -2 -27 -3 -8 0 -16 -6 -18 -12 -2 -7 15 -14 42 -17 40 -6 58 -2 95
21 2 1 3 18 2 37 -1 18 2 37 9 40 7 5 10 -8 9 -41 -3 -71 -2 -74 19 -74 39 0
51 10 38 31 -6 10 -20 19 -29 19 -12 0 -18 8 -18 22 0 20 3 19 38 -15 35 -34
82 -50 82 -27 0 6 -4 10 -8 10 -5 0 -17 7 -28 15 -18 14 -17 14 9 4 39 -17 46
-3 13 29 l-28 27 12 -25 c17 -34 -2 -14 -28 31 l-22 36 25 -5 c30 -5 31 4 5
38 -11 14 -20 30 -20 35 0 13 -48 35 -74 34 -12 0 -35 -10 -53 -22z"/>
<path fill="#ffffff" stroke="none" d="M205 242 c-3 -3 -11 0 -18 7 -9 10 -8
11 6 5 10 -3 15 -9 12 -12z"/>
<path fill="#ffffff" stroke="none" d="M195 195 c5 -17 13 -33 18 -36 4 -3 1
-12 -8 -19 -12 -10 -15 -10 -15 3 0 18 -46 68 -54 59 -3 -3 -6 2 -6 11 0 11 8
15 27 14 21 -2 30 -10 38 -32z"/>
<path fill="#ffffff" stroke="none" d="M111 162 c1 -21 3 -28 6 -17 3 11 9 24
14 30 15 16 10 -80 -6 -101 -13 -17 -14 -17 -15 -1 0 9 -6 17 -14 17 -17 0
-28 88 -13 107 15 20 27 5 28 -35z"/>
</g>
</svg>
