<?xml version="1.0" standalone="no"?>
<!DOCTYPE svg PUBLIC "-//W3C//DTD SVG 20010904//EN"
 "http://www.w3.org/TR/2001/REC-SVG-20010904/DTD/svg10.dtd">
<svg version="1.0" xmlns="http://www.w3.org/2000/svg"
 width="32.000000pt" height="32.000000pt" viewBox="0 0 32.000000 32.000000"
 preserveAspectRatio="xMidYMid meet">
<metadata>
Created by potrace 1.16, written by Peter Selinger 2001-2019
</metadata>
<g transform="translate(0.000000,32.000000) scale(0.100000,-0.100000)"
fill="#000000" stroke="none">
<path fill="#000000" stroke="none" d="M0 160 l0 -160 160 0 160 0 0 160 0
160 -160 0 -160 0 0 -160z"/>
<path fill="#ffffff" stroke="none" d="M171 289 c5 -8 8 -23 8 -34 0 -16 -3
-14 -11 8 -5 15 -14 27 -19 27 -12 0 -12 -17 1 -25 16 -10 12 -25 -6 -25 -10
0 -14 6 -11 15 4 8 2 17 -3 20 -6 4 -10 1 -10 -6 0 -7 -3 -10 -6 -7 -3 4 -1
15 5 26 12 23 38 23 52 1z"/>
<path fill="#ffffff" stroke="none" d="M210 294 c0 -8 -19 -13 -24 -6 -3 5 1
9 9 9 8 0 15 -2 15 -3z"/>
<path fill="#ffffff" stroke="none" d="M208 239 c-3 -8 -7 -3 -11 10 -4 17 -3
21 5 13 5 -5 8 -16 6 -23z"/>
<path fill="#ffffff" stroke="none" d="M55 250 c3 -6 -1 -7 -9 -4 -18 7 -21
14 -7 14 6 0 13 -4 16 -10z"/>
<path fill="#ffffff" stroke="none" d="M268 186 c-8 -6 -17 -19 -21 -30 -7
-18 -8 -18 -27 -1 -11 10 -26 15 -35 11 -9 -3 -13 -2 -10 4 3 6 17 10 29 10
13 0 29 6 36 14 6 8 19 12 27 9 14 -5 14 -8 1 -17z"/>
</g>
</svg>
