<?xml version="1.0" standalone="no"?>
<!DOCTYPE svg PUBLIC "-//W3C//DTD SVG 20010904//EN"
 "http://www.w3.org/TR/2001/REC-SVG-20010904/DTD/svg10.dtd">
<svg version="1.0" xmlns="http://www.w3.org/2000/svg"
 width="32.000000pt" height="32.000000pt" viewBox="0 0 32.000000 32.000000"
 preserveAspectRatio="xMidYMid meet">
<metadata>
Created by potrace 1.16, written by Peter Selinger 2001-2019
</metadata>
<g transform="translate(0.000000,32.000000) scale(0.100000,-0.100000)"
fill="#000000" stroke="none">
<path fill="#000000" stroke="none" d="M125 300 c-4 -6 -10 -8 -14 -5 -5 2 -5
-10 -2 -27 6 -29 11 -32 44 -34 22 -1 37 2 37 9 0 6 7 2 15 -9 14 -18 14 -17
5 10 -6 16 -8 36 -6 43 3 8 2 11 -3 8 -5 -3 -12 -1 -16 5 -3 5 -17 10 -30 10
-13 0 -27 -5 -30 -10z"/>
<path fill="#ffffff" stroke="none" d="M133 255 c-7 -21 -13 -19 -13 6 0 11 4
18 10 14 5 -3 7 -12 3 -20z"/>
<path fill="#000000" stroke="none" d="M30 240 c0 -17 2 -19 14 -8 14 13 12
28 -5 28 -5 0 -9 -9 -9 -20z"/>
<path fill="#000000" stroke="none" d="M136 212 c-2 -4 -1 -14 3 -21 6 -10 10
-9 14 3 6 16 -8 32 -17 18z"/>
<path fill="#000000" stroke="none" d="M235 194 c-10 -8 -27 -14 -36 -14 -10
0 -21 -5 -25 -11 -5 -8 3 -10 24 -7 22 3 29 1 25 -9 -3 -7 0 -13 6 -13 7 0 15
8 18 18 4 9 13 22 21 28 13 9 13 12 0 16 -7 3 -22 0 -33 -8z"/>
<path fill="#000000" stroke="none" d="M138 148 c5 -5 16 -8 23 -6 8 3 3 7
-10 11 -17 4 -21 3 -13 -5z"/>
<path fill="#000000" stroke="none" d="M180 101 c0 -5 5 -13 10 -16 6 -3 10
-2 10 4 0 5 -4 13 -10 16 -5 3 -10 2 -10 -4z"/>
<path fill="#000000" stroke="none" d="M210 20 c0 -5 5 -10 11 -10 5 0 7 5 4
10 -3 6 -8 10 -11 10 -2 0 -4 -4 -4 -10z"/>
</g>
</svg>
