<?xml version="1.0" standalone="no"?>
<!DOCTYPE svg PUBLIC "-//W3C//DTD SVG 20010904//EN"
 "http://www.w3.org/TR/2001/REC-SVG-20010904/DTD/svg10.dtd">
<svg version="1.0" xmlns="http://www.w3.org/2000/svg"
 width="32.000000pt" height="32.000000pt" viewBox="0 0 32.000000 32.000000"
 preserveAspectRatio="xMidYMid meet">
<metadata>
Created by potrace 1.16, written by Peter Selinger 2001-2019
</metadata>
<g transform="translate(0.000000,32.000000) scale(0.100000,-0.100000)"
fill="#000000" stroke="none">
<path fill="#000000" stroke="none" d="M0 160 l0 -160 160 0 160 0 0 160 0
160 -160 0 -160 0 0 -160z"/>
<path fill="#ffffff" stroke="none" d="M165 299 c4 -6 13 -8 21 -5 12 4 11 0
-1 -25 -16 -29 -15 -31 14 -59 34 -31 37 -46 16 -74 -11 -15 -18 -17 -27 -8
-8 8 -8 15 0 25 9 10 8 18 -3 33 -15 19 -15 19 -8 0 5 -15 3 -17 -8 -11 -11 7
-12 6 -2 -7 7 -8 10 -18 6 -21 -3 -4 -1 -13 5 -20 7 -8 9 -17 5 -20 -3 -4 -2
-7 3 -7 5 0 10 -14 10 -32 1 -18 6 -34 13 -36 17 -6 13 -22 -5 -22 -8 0 -12 5
-9 10 3 6 -1 13 -9 16 -8 3 -18 14 -21 25 -10 31 -40 23 -54 -16 -9 -26 -18
-35 -34 -35 -21 1 -21 1 -4 14 13 10 17 24 15 48 -2 23 3 38 17 51 11 10 15
16 8 13 -7 -4 -9 1 -6 14 6 24 -12 27 -33 5 -9 -8 -22 -15 -30 -15 -8 0 -14 7
-14 15 0 8 5 15 12 15 6 0 22 10 35 22 13 12 36 23 51 24 15 1 30 2 34 3 9 1
-11 59 -23 67 -12 7 -7 -19 5 -27 16 -12 -5 -29 -31 -24 -34 6 -58 28 -26 23
12 -1 22 2 23 7 0 6 -4 10 -9 10 -5 0 -13 4 -18 9 -4 5 -3 6 3 3 7 -4 17 0 24
8 14 17 46 20 55 4z"/>
<path fill="#000000" stroke="none" d="M135 132 c3 -3 0 -11 -6 -19 -6 -7 -10
-13 -8 -14 36 -7 40 -7 30 5 -7 8 -7 16 0 23 6 6 5 10 -6 10 -8 0 -13 -3 -10
-5z"/>
</g>
</svg>
