<?xml version="1.0" standalone="no"?>
<!DOCTYPE svg PUBLIC "-//W3C//DTD SVG 20010904//EN"
 "http://www.w3.org/TR/2001/REC-SVG-20010904/DTD/svg10.dtd">
<svg version="1.0" xmlns="http://www.w3.org/2000/svg"
 width="32.000000pt" height="32.000000pt" viewBox="0 0 32.000000 32.000000"
 preserveAspectRatio="xMidYMid meet">
<metadata>
Created by potrace 1.16, written by Peter Selinger 2001-2019
</metadata>
<g transform="translate(0.000000,32.000000) scale(0.100000,-0.100000)"
fill="#000000" stroke="none">
<path fill="#000000" stroke="none" d="M110 295 c-7 -8 -17 -12 -24 -8 -6 3
-7 2 -3 -3 5 -5 14 -9 20 -9 7 0 12 -9 12 -20 0 -22 26 -28 33 -7 2 6 -1 12
-8 12 -6 0 -8 5 -5 10 3 6 -1 10 -10 10 -9 0 -13 5 -10 11 5 7 13 5 24 -5 23
-21 47 -20 56 2 5 13 3 14 -6 5 -9 -9 -15 -8 -26 3 -19 18 -37 18 -53 -1z"/>
<path fill="#000000" stroke="none" d="M75 250 c3 -5 11 -10 16 -10 6 0 7 5 4
10 -3 6 -11 10 -16 10 -6 0 -7 -4 -4 -10z"/>
<path fill="#000000" stroke="none" d="M152 214 c-17 -12 -26 -13 -36 -5 -10
8 -16 8 -25 -2 -6 -8 -7 -17 -3 -21 4 -4 2 -7 -3 -6 -6 1 -20 -1 -32 -5 -26
-8 -31 -35 -8 -35 8 0 15 6 15 14 0 9 10 13 31 12 16 -1 32 1 35 6 3 4 15 8
27 8 16 0 22 6 23 25 2 30 4 29 -24 9z"/>
<path fill="#000000" stroke="none" d="M186 212 c-4 -6 -1 -20 5 -31 10 -15 9
-22 -4 -36 -15 -15 -21 -13 -19 6 1 3 -11 4 -26 1 -24 -5 -25 -6 -6 -11 14 -4
20 -13 19 -32 -1 -21 2 -25 17 -21 14 3 16 7 7 18 -11 13 -5 18 15 15 10 -2
35 30 36 45 0 20 -36 58 -44 46z"/>
<path fill="#000000" stroke="none" d="M104 112 c4 -7 2 -12 -4 -12 -6 0 -8
-4 -5 -10 3 -5 14 -10 23 -9 11 0 12 2 4 6 -6 2 -10 9 -7 13 3 5 0 12 -6 16
-8 4 -9 3 -5 -4z"/>
</g>
</svg>
