<?xml version="1.0" standalone="no"?>
<!DOCTYPE svg PUBLIC "-//W3C//DTD SVG 20010904//EN"
 "http://www.w3.org/TR/2001/REC-SVG-20010904/DTD/svg10.dtd">
<svg version="1.0" xmlns="http://www.w3.org/2000/svg"
 width="32.000000pt" height="32.000000pt" viewBox="0 0 32.000000 32.000000"
 preserveAspectRatio="xMidYMid meet">
<metadata>
Created by potrace 1.16, written by Peter Selinger 2001-2019
</metadata>
<g transform="translate(0.000000,32.000000) scale(0.100000,-0.100000)"
fill="#000000" stroke="none">
<path fill="#000000" stroke="none" d="M20 160 l0 -160 145 0 145 0 0 160 0
160 -145 0 -145 0 0 -160z"/>
<path fill="#ffffff" stroke="none" d="M134 292 c3 -5 -1 -9 -9 -9 -8 0 -12 4
-9 9 3 4 7 8 9 8 2 0 6 -4 9 -8z"/>
<path fill="#ffffff" stroke="none" d="M125 238 c4 0 12 6 16 14 7 10 9 10 9
0 0 -7 5 -10 12 -6 6 4 8 3 5 -3 -9 -15 -60 -9 -65 7 -3 12 -2 12 6 2 5 -8 13
-14 17 -14z"/>
<path fill="#ffffff" stroke="none" d="M70 135 c0 -2 -9 -3 -19 -2 -11 0 -18
5 -15 9 4 6 34 0 34 -7z"/>
<path fill="#ffffff" stroke="none" d="M243 115 c4 -8 3 -16 -1 -19 -4 -3 -9
4 -9 15 -2 23 3 25 10 4z"/>
</g>
</svg>
