<?xml version="1.0" standalone="no"?>
<!DOCTYPE svg PUBLIC "-//W3C//DTD SVG 20010904//EN"
 "http://www.w3.org/TR/2001/REC-SVG-20010904/DTD/svg10.dtd">
<svg version="1.0" xmlns="http://www.w3.org/2000/svg"
 width="32.000000pt" height="48.000000pt" viewBox="0 0 32.000000 48.000000"
 preserveAspectRatio="xMidYMid meet">
<metadata>
Created by potrace 1.16, written by Peter Selinger 2001-2019
</metadata>
<g transform="translate(0.000000,48.000000) scale(0.100000,-0.100000)"
fill="#000000" stroke="none">
<path fill="#000000" stroke="none" d="M221 472 c-1 -7 -5 -10 -11 -7 -5 3
-10 1 -10 -6 0 -7 -3 -9 -7 -6 -7 8 -33 -38 -34 -62 -1 -9 -4 -5 -9 9 l-8 25
-2 -25 c-1 -23 -2 -23 -10 -5 -6 14 -9 15 -10 5 0 -11 -7 -8 -22 10 -15 17
-19 19 -15 7 5 -13 3 -17 -5 -14 -7 2 -12 13 -11 23 1 10 0 13 -3 6 -5 -10
-10 -9 -21 5 -13 17 -13 17 -4 -3 12 -25 36 -46 48 -42 9 3 63 -36 63 -46 0
-3 -7 -6 -15 -6 -8 0 -15 3 -15 8 0 4 -13 6 -30 6 -43 -2 -44 -3 -31 -17 6 -8
7 -18 3 -22 -4 -5 -1 -5 5 -1 7 4 22 2 34 -4 16 -9 24 -9 33 1 8 9 8 10 -1 5
-12 -7 -79 21 -71 29 2 3 21 0 41 -6 32 -9 42 -7 66 10 20 15 28 28 26 45 -3
27 21 44 39 26 7 -7 7 -16 -2 -30 -11 -17 -10 -20 8 -20 12 0 32 -17 50 -42
27 -36 44 -35 21 1 -6 9 -6 22 -1 31 5 10 4 22 -2 31 -8 12 -9 11 -5 -2 3 -9
1 -22 -4 -30 -7 -12 -9 -12 -9 1 -2 22 -49 118 -50 100 -1 -10 -4 -9 -10 5 -5
11 -9 14 -9 7z"/>
<path fill="#000000" stroke="none" d="M161 444 c0 -11 3 -14 6 -6 3 7 2 16
-1 19 -3 4 -6 -2 -5 -13z"/>
<path fill="#000000" stroke="none" d="M216 329 c-8 -12 -12 -27 -10 -34 3 -7
-3 -11 -15 -10 -23 1 -42 15 -21 15 7 0 10 3 7 7 -4 3 -3 11 1 18 4 6 -1 3
-10 -8 -19 -20 -13 -51 8 -43 8 3 14 -1 14 -9 0 -8 0 -17 0 -20 0 -3 -3 -5 -6
-4 -4 0 -10 -5 -14 -11 -5 -8 -11 -1 -18 19 -12 35 -19 40 -17 13 1 -21 35
-72 35 -54 0 7 5 10 10 7 6 -3 10 -2 10 4 0 6 7 7 17 4 11 -4 14 -3 9 6 -7 10
-4 10 12 0 19 -12 19 -13 1 -32 -11 -12 -25 -17 -36 -13 -16 5 -16 5 1 -9 10
-8 24 -11 30 -7 6 4 13 7 16 7 3 0 19 13 35 29 17 16 22 24 13 17 -15 -11 -18
-11 -18 1 0 8 6 20 13 28 10 12 9 12 -4 2 -14 -11 -19 -7 -37 28 -17 36 -18
43 -5 55 8 8 10 15 4 15 -5 0 -17 -10 -25 -21z"/>
<path fill="#000000" stroke="none" d="M269 273 c-13 -16 -12 -17 4 -4 9 7 17
15 17 17 0 8 -8 3 -21 -13z"/>
<path fill="#000000" stroke="none" d="M181 94 c7 -21 6 -31 -7 -45 -16 -17
-16 -19 0 -25 23 -9 46 14 45 45 -1 25 -2 25 -8 -4 -4 -19 -13 -31 -26 -34
-19 -3 -19 -3 -2 16 14 16 16 26 8 47 -6 14 -13 26 -16 26 -2 0 0 -12 6 -26z"/>
<path fill="#000000" stroke="none" d="M256 84 c-4 -15 -2 -32 3 -37 15 -15
14 -30 -1 -25 -7 3 -16 22 -19 44 l-6 39 -2 -36 c-1 -41 22 -70 41 -51 8 8 8
15 -1 26 -7 8 -9 25 -5 40 3 14 4 26 1 26 -3 0 -8 -12 -11 -26z"/>
</g>
</svg>
