<?xml version="1.0" standalone="no"?>
<!DOCTYPE svg PUBLIC "-//W3C//DTD SVG 20010904//EN"
 "http://www.w3.org/TR/2001/REC-SVG-20010904/DTD/svg10.dtd">
<svg version="1.0" xmlns="http://www.w3.org/2000/svg"
 width="32.000000pt" height="32.000000pt" viewBox="0 0 32.000000 32.000000"
 preserveAspectRatio="xMidYMid meet">
<metadata>
Created by potrace 1.16, written by Peter Selinger 2001-2019
</metadata>
<g transform="translate(0.000000,32.000000) scale(0.100000,-0.100000)"
fill="#000000" stroke="none">
<path fill="#000000" stroke="none" d="M0 160 l0 -160 160 0 160 0 0 160 0
160 -160 0 -160 0 0 -160z"/>
<path fill="#ffffff" stroke="none" d="M257 258 c27 -26 29 -43 6 -57 -10 -6
-14 -11 -10 -11 5 0 1 -7 -8 -16 -23 -23 -14 -39 26 -42 32 -2 33 -1 15 13
-17 13 -17 15 -4 15 21 0 33 -19 20 -32 -5 -5 -23 -10 -41 -10 -38 -1 -40 -11
-6 -26 33 -15 38 -15 29 1 -5 9 -4 9 6 0 26 -24 -1 -26 -48 -4 -46 23 -47 23
-28 2 18 -19 18 -23 5 -37 -13 -12 -21 -13 -45 -3 -18 7 -24 13 -15 16 11 5
11 7 0 14 -11 7 -11 9 -1 9 7 0 15 -7 18 -15 8 -21 26 -19 22 2 -2 11 -15 20
-33 23 -24 4 -35 -1 -57 -26 -16 -18 -28 -34 -28 -38 0 -11 36 -6 49 7 11 10
11 8 2 -10 -13 -26 -38 -29 -66 -9 -17 12 -17 15 13 41 36 32 36 42 0 26 l-23
-12 22 17 c39 28 21 95 -25 94 -13 -1 -10 -6 10 -21 33 -25 35 -35 8 -35 -11
0 -19 5 -17 11 2 5 -3 15 -11 21 -18 13 -8 34 18 34 21 0 60 -44 60 -68 0 -8
3 -13 6 -9 9 9 11 78 2 83 -14 9 12 44 32 44 20 0 42 -30 38 -52 -2 -7 -12
-20 -23 -29 -14 -13 -17 -21 -9 -28 7 -8 23 1 56 31 l45 43 -22 23 c-11 12
-26 22 -33 22 -7 0 -10 5 -7 10 10 16 27 12 52 -12z"/>
<path fill="#ffffff" stroke="none" d="M182 148 c-7 -7 -12 -8 -12 -2 0 14 12
26 19 19 2 -3 -1 -11 -7 -17z"/>
<path fill="#ffffff" stroke="none" d="M46 83 c-7 -7 -26 7 -26 19 0 6 6 6 15
-2 9 -7 13 -15 11 -17z"/>
<path fill="#000000" stroke="none" d="M155 201 c-6 -11 9 -23 19 -14 9 9 7
23 -3 23 -6 0 -12 -4 -16 -9z"/>
<path fill="#000000" stroke="none" d="M196 132 c-3 -5 1 -9 9 -9 8 0 12 4 9
9 -3 4 -7 8 -9 8 -2 0 -6 -4 -9 -8z"/>
</g>
</svg>
