<?xml version="1.0" standalone="no"?>
<!DOCTYPE svg PUBLIC "-//W3C//DTD SVG 20010904//EN"
 "http://www.w3.org/TR/2001/REC-SVG-20010904/DTD/svg10.dtd">
<svg version="1.0" xmlns="http://www.w3.org/2000/svg"
 width="32.000000pt" height="32.000000pt" viewBox="0 0 32.000000 32.000000"
 preserveAspectRatio="xMidYMid meet">
<metadata>
Created by potrace 1.16, written by Peter Selinger 2001-2019
</metadata>
<g transform="translate(0.000000,32.000000) scale(0.100000,-0.100000)"
fill="#000000" stroke="none">
<path fill="#000000" stroke="none" d="M0 160 l0 -160 160 0 160 0 0 160 0
160 -160 0 -160 0 0 -160z"/>
<path fill="#ffffff" stroke="none" d="M250 255 c13 -14 21 -27 18 -30 -3 -3
-13 6 -22 20 -11 16 -23 24 -32 21 -9 -3 -12 -1 -9 4 10 15 20 12 45 -15z"/>
<path fill="#ffffff" stroke="none" d="M156 234 c-5 -12 -1 -14 17 -9 15 5 19
4 12 -3 -17 -17 -49 -18 -50 -2 -2 20 4 30 17 30 5 0 7 -7 4 -16z"/>
<path fill="#ffffff" stroke="none" d="M177 185 c-32 -29 -47 -32 -47 -9 0 10
6 13 19 9 10 -3 24 1 31 10 7 8 15 15 19 15 3 0 -7 -12 -22 -25z"/>
<path fill="#ffffff" stroke="none" d="M99 174 c12 -15 21 -32 21 -38 0 -6 -9
4 -20 22 -13 21 -27 32 -42 32 -22 -1 -22 -2 7 -25 29 -24 29 -25 7 -25 -13 0
-21 4 -18 9 3 5 -1 14 -9 21 -8 7 -12 16 -9 21 10 18 43 9 63 -17z"/>
<path fill="#ffffff" stroke="none" d="M238 170 c-7 -11 -19 -20 -27 -20 -8 0
-4 8 10 20 30 25 32 25 17 0z"/>
<path fill="#ffffff" stroke="none" d="M305 150 c8 -13 -5 -13 -25 0 -13 8
-13 10 2 10 9 0 20 -4 23 -10z"/>
<path fill="#ffffff" stroke="none" d="M185 131 c-3 -5 3 -12 12 -15 15 -4 14
-4 -2 -3 -11 1 -26 -2 -34 -7 -8 -5 -16 -3 -22 5 -6 10 -9 10 -9 2 0 -7 -13
-25 -30 -40 -16 -14 -30 -31 -30 -36 0 -5 13 -7 30 -5 16 3 30 1 30 -4 0 -4
-16 -8 -35 -8 -19 0 -35 5 -35 11 0 19 73 94 91 94 10 0 21 3 25 8 10 10 16 9
9 -2z"/>
<path fill="#ffffff" stroke="none" d="M279 124 c10 -9 -45 -3 -59 6 -11 7 -5
8 20 4 19 -4 37 -8 39 -10z"/>
<path fill="#ffffff" stroke="none" d="M110 116 c0 -2 -8 -10 -17 -17 -16 -13
-17 -12 -4 4 13 16 21 21 21 13z"/>
<path fill="#ffffff" stroke="none" d="M260 84 c0 -2 -9 0 -20 6 -11 6 -20 13
-20 16 0 2 9 0 20 -6 11 -6 20 -13 20 -16z"/>
<path fill="#ffffff" stroke="none" d="M214 84 c9 -23 7 -34 -5 -34 -5 0 -7 5
-4 10 4 6 1 17 -5 25 -7 9 -8 15 -2 15 5 0 13 -7 16 -16z"/>
<path fill="#ffffff" stroke="none" d="M295 80 c-3 -5 -12 -10 -18 -10 -7 0
-6 4 3 10 19 12 23 12 15 0z"/>
<path fill="#ffffff" stroke="none" d="M180 60 c0 -5 -2 -10 -4 -10 -3 0 -8 5
-11 10 -3 6 -1 10 4 10 6 0 11 -4 11 -10z"/>
</g>
</svg>
