<?xml version="1.0" standalone="no"?>
<!DOCTYPE svg PUBLIC "-//W3C//DTD SVG 20010904//EN"
 "http://www.w3.org/TR/2001/REC-SVG-20010904/DTD/svg10.dtd">
<svg version="1.0" xmlns="http://www.w3.org/2000/svg"
 width="32.000000pt" height="32.000000pt" viewBox="0 0 32.000000 32.000000"
 preserveAspectRatio="xMidYMid meet">
<metadata>
Created by potrace 1.16, written by Peter Selinger 2001-2019
</metadata>
<g transform="translate(0.000000,32.000000) scale(0.100000,-0.100000)"
fill="#000000" stroke="none">
<path fill="#000000" stroke="none" d="M11 273 c-1 -7 8 -17 19 -23 16 -9 18
-8 14 5 -3 8 -10 13 -14 10 -5 -3 -11 1 -13 7 -4 10 -6 10 -6 1z"/>
<path fill="#000000" stroke="none" d="M291 272 c-1 -7 -5 -10 -11 -7 -6 3 -7
-1 -4 -10 4 -11 10 -13 16 -7 6 6 8 16 5 24 -4 10 -6 10 -6 0z"/>
<path fill="#000000" stroke="none" d="M145 260 c3 -5 8 -10 11 -10 2 0 4 5 4
10 0 6 -5 10 -11 10 -5 0 -7 -4 -4 -10z"/>
<path fill="#000000" stroke="none" d="M236 217 c3 -10 9 -15 12 -12 3 3 0 11
-7 18 -10 9 -11 8 -5 -6z"/>
<path fill="#000000" stroke="none" d="M174 202 c4 -3 14 -7 22 -8 9 -1 13 0
10 4 -4 3 -14 7 -22 8 -9 1 -13 0 -10 -4z"/>
</g>
</svg>
