<?xml version="1.0" standalone="no"?>
<!DOCTYPE svg PUBLIC "-//W3C//DTD SVG 20010904//EN"
 "http://www.w3.org/TR/2001/REC-SVG-20010904/DTD/svg10.dtd">
<svg version="1.0" xmlns="http://www.w3.org/2000/svg"
 width="32.000000pt" height="32.000000pt" viewBox="0 0 32.000000 32.000000"
 preserveAspectRatio="xMidYMid meet">
<metadata>
Created by potrace 1.16, written by Peter Selinger 2001-2019
</metadata>
<g transform="translate(0.000000,32.000000) scale(0.100000,-0.100000)"
fill="#000000" stroke="none">
<path fill="#000000" stroke="none" d="M114 298 c-19 -23 -19 -23 2 -5 52 43
125 -5 91 -60 -4 -7 -1 -10 10 -8 10 1 24 -2 31 -8 8 -6 12 -6 12 1 0 5 -7 12
-15 16 -8 3 -15 14 -15 24 0 26 -41 62 -72 62 -14 0 -33 -10 -44 -22z"/>
<path fill="#000000" stroke="none" d="M301 234 c-7 -22 -19 -48 -27 -59 -14
-19 -15 -19 -37 6 -12 14 -18 20 -14 13 4 -7 3 -15 -2 -18 -6 -4 -5 -21 4 -47
9 -24 10 -37 4 -33 -8 4 -9 -4 -4 -27 4 -19 11 -35 16 -37 21 -8 7 -23 -18
-20 -22 2 -29 10 -34 33 -5 24 -7 25 -8 7 -1 -16 -5 -21 -13 -15 -23 14 -36
11 -41 -8 -5 -20 -57 -28 -57 -9 0 6 5 10 10 10 6 0 10 17 9 38 -1 20 3 49 9
64 9 21 8 29 -4 39 -11 9 -12 15 -2 28 7 9 0 5 -15 -9 -24 -21 -30 -22 -37
-10 -5 8 -10 22 -10 31 0 9 -8 23 -17 30 -15 11 -16 11 -5 -1 6 -8 12 -21 12
-30 0 -9 6 -25 14 -35 11 -15 17 -17 28 -7 23 19 39 -4 26 -37 -6 -14 -10 -39
-9 -55 1 -15 -4 -34 -10 -42 -28 -34 35 -48 66 -14 18 19 18 19 45 0 47 -33
66 -27 95 33 27 59 34 104 13 90 -24 -14 -38 -11 -50 10 -10 20 -10 21 5 9 9
-8 20 -11 25 -8 14 8 54 96 50 108 -2 6 -10 -7 -17 -28z"/>
<path fill="#000000" stroke="none" d="M72 256 c4 -5 3 -15 -3 -22 -7 -9 -6
-12 8 -10 10 2 29 -4 43 -12 22 -12 23 -12 8 0 -10 8 -16 18 -13 21 3 4 2 5
-2 2 -3 -3 -16 3 -27 12 -12 10 -18 14 -14 9z"/>
</g>
</svg>
