<?xml version="1.0" standalone="no"?>
<!DOCTYPE svg PUBLIC "-//W3C//DTD SVG 20010904//EN"
 "http://www.w3.org/TR/2001/REC-SVG-20010904/DTD/svg10.dtd">
<svg version="1.0" xmlns="http://www.w3.org/2000/svg"
 width="32.000000pt" height="32.000000pt" viewBox="0 0 32.000000 32.000000"
 preserveAspectRatio="xMidYMid meet">
<metadata>
Created by potrace 1.16, written by Peter Selinger 2001-2019
</metadata>
<g transform="translate(0.000000,32.000000) scale(0.100000,-0.100000)"
fill="#000000" stroke="none">
<path fill="#000000" stroke="none" d="M120 250 c-30 -23 -48 -26 -30 -5 9 10
9 15 1 15 -6 0 -11 -6 -11 -12 0 -9 -4 -8 -10 2 -5 8 -10 10 -10 4 0 -21 29
-39 42 -26 16 16 51 15 66 0 10 -10 17 -7 35 12 17 18 17 20 2 8 -17 -14 -24
-14 -43 -4 -12 7 -19 15 -16 19 14 14 -2 6 -26 -13z"/>
</g>
</svg>
