<?xml version="1.0" standalone="no"?>
<!DOCTYPE svg PUBLIC "-//W3C//DTD SVG 20010904//EN"
 "http://www.w3.org/TR/2001/REC-SVG-20010904/DTD/svg10.dtd">
<svg version="1.0" xmlns="http://www.w3.org/2000/svg"
 width="32.000000pt" height="32.000000pt" viewBox="0 0 32.000000 32.000000"
 preserveAspectRatio="xMidYMid meet">
<metadata>
Created by potrace 1.16, written by Peter Selinger 2001-2019
</metadata>
<g transform="translate(0.000000,32.000000) scale(0.100000,-0.100000)"
fill="#000000" stroke="none">
<path fill="#000000" stroke="none" d="M0 160 l0 -160 160 0 160 0 0 160 0
160 -160 0 -160 0 0 -160z"/>
<path fill="#ffffff" stroke="none" d="M134 295 c-4 -8 -11 -15 -16 -15 -6 0
-5 6 2 15 7 8 14 15 16 15 2 0 1 -7 -2 -15z"/>
<path fill="#ffffff" stroke="none" d="M89 244 c-17 -21 -1 -17 34 8 17 12 28
17 24 11 -3 -5 5 -15 18 -21 21 -10 27 -8 40 11 13 18 15 19 15 4 0 -12 4 -16
13 -11 7 4 9 3 4 -2 -5 -5 -12 -9 -15 -10 -4 0 -15 -4 -25 -9 -11 -4 -23 -3
-30 4 -15 15 -50 14 -65 -1 -9 -9 -16 -9 -28 4 -19 18 -11 40 12 31 11 -4 12
-9 3 -19z"/>
<path fill="#ffffff" stroke="none" d="M96 198 c4 -7 3 -8 -5 -4 -7 4 -20 -2
-32 -16 l-20 -23 17 28 c18 29 29 34 40 15z"/>
<path fill="#ffffff" stroke="none" d="M191 197 c-4 -4 -23 -4 -42 1 l-34 10
42 -1 c24 -1 39 -5 34 -10z"/>
<path fill="#ffffff" stroke="none" d="M285 191 c3 -5 2 -12 -3 -15 -5 -3 -9
1 -9 9 0 17 3 19 12 6z"/>
<path fill="#ffffff" stroke="none" d="M135 173 c-2 -10 -4 -19 -4 -21 -1 -2
-6 0 -11 3 -8 5 -7 11 1 21 15 18 18 18 14 -3z"/>
<path fill="#ffffff" stroke="none" d="M30 165 c0 -8 -4 -15 -8 -15 -5 0 -9 7
-9 15 0 8 4 15 9 15 4 0 8 -7 8 -15z"/>
<path fill="#ffffff" stroke="none" d="M175 171 c3 -5 2 -12 -3 -15 -5 -3 -9
1 -9 9 0 17 3 19 12 6z"/>
<path fill="#ffffff" stroke="none" d="M186 138 c-19 -27 -20 -59 -3 -78 10
-12 9 -12 -5 -1 -24 18 -26 53 -4 79 25 28 32 29 12 0z"/>
<path fill="#ffffff" stroke="none" d="M31 113 c-12 -20 -14 -14 -5 12 4 9 9
14 11 11 3 -2 0 -13 -6 -23z"/>
<path fill="#ffffff" stroke="none" d="M259 107 c0 -9 -2 -8 -6 1 -2 6 -10 9
-15 6 -7 -4 -8 -2 -4 5 9 13 26 5 25 -12z"/>
<path fill="#ffffff" stroke="none" d="M194 24 c3 -8 2 -12 -4 -9 -6 3 -10 10
-10 16 0 14 7 11 14 -7z"/>
<path fill="#ffffff" stroke="none" d="M60 26 c0 -2 -7 -7 -16 -10 -8 -3 -12
-2 -9 4 6 10 25 14 25 6z"/>
</g>
</svg>
