<?xml version="1.0" standalone="no"?>
<!DOCTYPE svg PUBLIC "-//W3C//DTD SVG 20010904//EN"
 "http://www.w3.org/TR/2001/REC-SVG-20010904/DTD/svg10.dtd">
<svg version="1.0" xmlns="http://www.w3.org/2000/svg"
 width="32.000000pt" height="32.000000pt" viewBox="0 0 32.000000 32.000000"
 preserveAspectRatio="xMidYMid meet">
<metadata>
Created by potrace 1.16, written by Peter Selinger 2001-2019
</metadata>
<g transform="translate(0.000000,32.000000) scale(0.100000,-0.100000)"
fill="#000000" stroke="none">
<path fill="#000000" stroke="none" d="M140 311 c0 -7 -4 -10 -8 -7 -13 8 -10
-18 3 -31 13 -12 38 3 43 27 2 8 0 12 -4 8 -4 -4 -13 -3 -21 3 -10 9 -13 8
-13 0z"/>
<path fill="#ffffff" stroke="none" d="M160 290 c0 -5 -4 -10 -10 -10 -5 0
-10 5 -10 10 0 6 5 10 10 10 6 0 10 -4 10 -10z"/>
<path fill="#000000" stroke="none" d="M135 240 c4 -6 11 -8 16 -5 14 9 11 15
-7 15 -8 0 -12 -5 -9 -10z"/>
<path fill="#000000" stroke="none" d="M97 196 c-4 -10 -1 -13 8 -9 8 3 12 9
9 14 -7 12 -11 11 -17 -5z"/>
<path fill="#000000" stroke="none" d="M192 201 c-11 -6 -9 -9 5 -13 12 -3 20
0 20 8 0 16 -6 17 -25 5z"/>
<path fill="#000000" stroke="none" d="M131 186 c-9 -11 -7 -13 11 -12 13 1
30 -3 38 -8 8 -6 7 -1 -4 12 -22 26 -29 27 -45 8z"/>
<path fill="#000000" stroke="none" d="M58 166 c-3 -16 -1 -23 8 -19 6 2 11
11 10 18 -4 26 -13 26 -18 1z"/>
<path fill="#000000" stroke="none" d="M239 168 c-7 -23 -5 -38 5 -41 9 -4 11
2 8 19 -4 20 -10 31 -13 22z"/>
<path fill="#000000" stroke="none" d="M133 140 c-3 -11 -9 -17 -14 -14 -5 3
-6 -3 -2 -12 5 -13 3 -15 -8 -9 -8 4 -11 4 -6 0 4 -5 0 -20 -9 -34 -13 -22
-11 -21 11 4 14 17 28 40 31 53 8 28 20 28 28 -1 3 -12 20 -36 38 -52 26 -24
28 -25 10 -4 -12 14 -19 29 -15 34 5 4 2 4 -6 0 -11 -6 -13 -4 -8 9 4 9 3 15
-2 12 -5 -3 -11 3 -14 14 -7 26 -27 26 -34 0z"/>
</g>
</svg>
