<?xml version="1.0" standalone="no"?>
<!DOCTYPE svg PUBLIC "-//W3C//DTD SVG 20010904//EN"
 "http://www.w3.org/TR/2001/REC-SVG-20010904/DTD/svg10.dtd">
<svg version="1.0" xmlns="http://www.w3.org/2000/svg"
 width="32.000000pt" height="32.000000pt" viewBox="0 0 32.000000 32.000000"
 preserveAspectRatio="xMidYMid meet">
<metadata>
Created by potrace 1.16, written by Peter Selinger 2001-2019
</metadata>
<g transform="translate(0.000000,32.000000) scale(0.100000,-0.100000)"
fill="#000000" stroke="none">
<path fill="#000000" stroke="none" d="M0 160 l0 -160 160 0 160 0 -1 108 c0
59 -3 100 -7 92 -9 -20 -46 -18 -67 3 -14 15 -14 17 5 29 11 7 20 17 20 22 0
5 -8 1 -19 -8 -18 -16 -19 -15 -39 23 -15 28 -17 38 -8 35 8 -3 17 -1 21 5 4
7 -9 11 -37 10 -32 0 -38 -2 -23 -8 11 -5 26 -22 34 -37 37 -82 50 -99 70 -98
22 1 29 -20 10 -31 -6 -5 -3 -13 10 -22 29 -20 28 -63 -1 -63 -30 1 -53 19
-63 50 -7 22 -6 23 9 11 9 -8 19 -11 23 -7 3 3 1 6 -6 6 -6 0 -16 12 -22 27
-6 17 -13 23 -20 16 -6 -6 -4 -25 6 -53 9 -24 13 -51 10 -58 -3 -8 0 -21 7
-29 10 -13 8 -14 -12 -11 -17 2 -26 12 -32 34 -10 39 -34 62 -50 46 -13 -13
-2 -46 13 -37 6 4 8 14 4 24 -4 11 -3 13 5 5 6 -6 12 -21 15 -33 4 -20 1 -23
-20 -19 -14 3 -26 0 -29 -8 -3 -8 -15 -14 -28 -14 -17 0 -19 3 -10 12 14 14
16 42 2 33 -15 -9 -12 8 10 59 21 51 14 65 -21 38 -22 -18 -23 -18 -41 0 -26
26 -22 38 11 38 34 0 49 15 58 60 5 27 8 30 13 15 6 -17 7 -17 13 -2 3 9 2 17
-3 17 -14 0 -12 27 3 33 6 3 -21 6 -60 6 l-73 1 0 -160z"/>
<path fill="#ffffff" stroke="none" d="M97 249 c-10 -33 -18 -45 -35 -47 -20
-3 -27 7 -23 32 1 4 -4 15 -11 24 -10 12 -10 14 0 8 6 -4 12 -2 12 3 0 6 11
11 24 11 14 0 28 5 31 11 14 21 14 1 2 -42z"/>
<path fill="#ffffff" stroke="none" d="M98 146 c-10 -7 -14 -17 -10 -21 4 -5
1 -5 -7 0 -12 7 -11 10 4 22 24 17 36 17 13 -1z"/>
<path fill="#000000" stroke="none" d="M245 310 c4 -6 11 -8 16 -5 5 3 6 -1 3
-9 -7 -18 11 -22 21 -6 5 8 11 7 21 -1 11 -9 14 -7 14 10 0 18 -6 21 -41 21
-25 0 -38 -4 -34 -10z"/>
<path fill="#000000" stroke="none" d="M169 262 c14 -27 -11 -51 -34 -32 -13
10 -15 9 -15 -9 0 -18 3 -19 25 -11 20 8 25 6 25 -6 0 -8 5 -12 11 -9 14 9 6
78 -10 83 -10 3 -11 0 -2 -16z"/>
</g>
</svg>
