<?xml version="1.0" standalone="no"?>
<!DOCTYPE svg PUBLIC "-//W3C//DTD SVG 20010904//EN"
 "http://www.w3.org/TR/2001/REC-SVG-20010904/DTD/svg10.dtd">
<svg version="1.0" xmlns="http://www.w3.org/2000/svg"
 width="32.000000pt" height="32.000000pt" viewBox="0 0 32.000000 32.000000"
 preserveAspectRatio="xMidYMid meet">
<metadata>
Created by potrace 1.16, written by Peter Selinger 2001-2019
</metadata>
<g transform="translate(0.000000,32.000000) scale(0.100000,-0.100000)"
fill="#000000" stroke="none">
<path fill="#000000" stroke="none" d="M20 160 l0 -160 26 0 c40 0 56 28 35
59 -9 14 -11 22 -4 18 7 -4 15 4 22 23 14 40 18 38 17 -11 -1 -22 3 -43 7 -46
4 -2 5 -13 2 -24 -6 -17 -1 -19 34 -19 l40 0 -10 32 c-13 48 -12 81 4 72 7 -5
6 0 -3 11 -13 16 -13 18 0 13 8 -2 19 -26 25 -54 14 -67 20 -74 66 -74 l39 0
0 56 c0 46 -3 55 -15 50 -18 -7 -21 24 -4 41 19 19 3 41 -25 38 -29 -4 -31 2
-13 26 7 10 11 36 9 63 l-4 46 -124 0 -124 0 0 -160z"/>
<path fill="#ffffff" stroke="none" d="M175 284 c13 -14 21 -32 18 -40 -8 -20
-16 -17 -9 4 5 15 4 15 -8 -2 -20 -25 -46 -14 -46 20 0 19 -4 25 -14 21 -10
-4 -13 -1 -9 9 8 22 42 17 68 -12z"/>
<path fill="#ffffff" stroke="none" d="M162 225 c41 -5 50 -13 38 -36 -7 -13
-8 -25 -1 -37 8 -13 10 -14 11 -2 0 26 26 -11 39 -59 9 -30 9 -47 2 -54 -11
-11 -31 28 -31 60 0 19 -31 57 -49 61 -11 2 -12 0 -4 -10 10 -12 8 -56 -2 -87
-7 -19 -31 2 -37 33 -4 18 0 22 16 21 12 -1 14 0 4 2 -9 2 -22 12 -30 21 -8
10 -8 13 -1 9 6 -4 15 -2 19 4 4 7 3 9 -4 5 -13 -8 -27 48 -16 66 6 10 4 10
-8 0 -9 -8 -15 -19 -12 -26 8 -22 -21 -49 -44 -42 -29 9 -30 40 -2 33 22 -6
41 18 32 42 -3 11 2 12 24 7 16 -4 41 -9 56 -11z"/>
<path fill="#ffffff" stroke="none" d="M250 226 c0 -8 -5 -18 -10 -21 -18 -11
8 -33 35 -30 15 1 25 -3 25 -11 0 -18 -23 -30 -28 -15 -4 11 -6 11 -13 0 -6
-11 -12 -9 -28 5 -26 23 -26 35 -3 53 16 13 16 13 -2 11 -10 -2 -21 3 -23 10
-3 7 5 12 21 12 16 0 26 -6 26 -14z"/>
<path fill="#ffffff" stroke="none" d="M105 150 c-4 -12 -9 -19 -12 -17 -3 3
-2 15 2 27 4 12 9 19 12 17 3 -3 2 -15 -2 -27z"/>
<path fill="#ffffff" stroke="none" d="M166 47 c8 3 14 0 14 -6 0 -6 -4 -11
-9 -11 -19 0 -41 12 -41 23 0 8 3 8 11 0 6 -6 18 -9 25 -6z"/>
</g>
</svg>
