<?xml version="1.0" standalone="no"?>
<!DOCTYPE svg PUBLIC "-//W3C//DTD SVG 20010904//EN"
 "http://www.w3.org/TR/2001/REC-SVG-20010904/DTD/svg10.dtd">
<svg version="1.0" xmlns="http://www.w3.org/2000/svg"
 width="32.000000pt" height="32.000000pt" viewBox="0 0 32.000000 32.000000"
 preserveAspectRatio="xMidYMid meet">
<metadata>
Created by potrace 1.16, written by Peter Selinger 2001-2019
</metadata>
<g transform="translate(0.000000,32.000000) scale(0.100000,-0.100000)"
fill="#000000" stroke="none">
<path fill="#000000" stroke="none" d="M16 312 c-7 -12 -2 -139 7 -148 4 -4
-1 -13 -11 -20 -16 -12 -16 -14 1 -42 20 -36 22 -61 4 -68 -8 -3 -14 -11 -14
-19 0 -10 6 -11 23 -5 14 6 26 5 29 -1 4 -5 61 -9 136 -8 l129 1 0 109 0 109
-55 0 c-48 0 -55 -2 -55 -20 0 -13 -7 -20 -18 -20 -15 0 -18 10 -19 61 -1 34
-3 63 -5 64 -10 8 -147 14 -152 7z"/>
<path fill="#ffffff" stroke="none" d="M123 161 c14 -17 28 -27 32 -23 5 4 5
1 1 -5 -10 -18 -27 -16 -56 7 -25 19 -25 19 -48 -2 -18 -18 -24 -19 -35 -8 -7
8 -8 11 -1 7 14 -8 27 20 17 35 -3 6 -1 8 5 4 6 -3 13 -2 17 4 12 19 43 10 68
-19z"/>
<path fill="#ffffff" stroke="none" d="M68 120 c-2 -5 2 -9 7 -7 6 1 9 5 8 10
-5 12 14 8 26 -7 9 -11 9 -22 -3 -50 -8 -20 -19 -36 -23 -35 -4 1 -10 0 -13
-1 -33 -12 -38 -7 -33 34 3 22 10 47 16 54 11 15 18 16 15 2z"/>
<path fill="#ffffff" stroke="none" d="M233 123 c-7 -2 -19 -2 -25 0 -7 3 -2
5 12 5 14 0 19 -2 13 -5z"/>
<path fill="#ffffff" stroke="none" d="M280 105 c0 -2 -10 -10 -22 -16 -21
-11 -22 -11 -9 4 13 16 31 23 31 12z"/>
</g>
</svg>
