<?xml version="1.0" standalone="no"?>
<!DOCTYPE svg PUBLIC "-//W3C//DTD SVG 20010904//EN"
 "http://www.w3.org/TR/2001/REC-SVG-20010904/DTD/svg10.dtd">
<svg version="1.0" xmlns="http://www.w3.org/2000/svg"
 width="32.000000pt" height="32.000000pt" viewBox="0 0 32.000000 32.000000"
 preserveAspectRatio="xMidYMid meet">
<metadata>
Created by potrace 1.16, written by Peter Selinger 2001-2019
</metadata>
<g transform="translate(0.000000,32.000000) scale(0.100000,-0.100000)"
fill="#000000" stroke="none">
<path fill="#000000" stroke="none" d="M0 160 l0 -160 31 0 31 0 -9 43 c-4 23
-8 63 -8 90 0 26 -3 47 -7 47 -5 0 -8 -5 -8 -11 0 -5 -4 -7 -10 -4 -17 11 -11
37 10 42 26 7 22 39 -4 36 -15 -1 -17 5 -14 38 2 21 0 39 -4 39 -5 0 -8 -72
-8 -160z"/>
<path fill="#ffffff" stroke="none" d="M30 85 c0 -5 -5 -3 -10 5 -5 8 -10 20
-10 25 0 6 5 3 10 -5 5 -8 10 -19 10 -25z"/>
<path fill="#000000" stroke="none" d="M125 310 c28 -4 43 -8 35 -10 -8 -1
-18 -2 -21 -2 -4 1 -4 -8 -1 -20 3 -12 1 -19 -4 -15 -6 3 -16 2 -24 -4 -13 -7
-13 -9 0 -9 12 -1 11 -3 -3 -11 -9 -6 -15 -14 -12 -18 2 -5 -14 -11 -37 -15
-22 -4 -38 -9 -35 -12 3 -4 29 -1 58 6 58 14 54 16 108 -58 18 -26 21 -26 53
-13 18 7 42 14 53 15 18 2 20 11 23 89 l3 87 -123 -2 c-92 -1 -110 -3 -73 -8z"/>
<path fill="#ffffff" stroke="none" d="M171 240 c5 0 9 -8 9 -17 0 -15 -2 -14
-15 3 -8 10 -14 14 -13 8 3 -13 0 -14 -34 -14 -22 1 -21 2 5 16 16 8 28 24 28
37 2 17 3 16 6 -5 2 -16 9 -28 14 -28z"/>
<path fill="#000000" stroke="none" d="M66 297 c3 -10 9 -15 12 -12 3 3 0 11
-7 18 -10 9 -11 8 -5 -6z"/>
<path fill="#000000" stroke="none" d="M21 268 c2 -2 16 -14 32 -27 15 -14 27
-20 27 -13 0 16 -29 42 -47 42 -9 0 -14 -1 -12 -2z"/>
<path fill="#000000" stroke="none" d="M62 178 c-17 -17 -15 -63 4 -79 14 -12
20 -9 46 21 l29 35 -4 -30 c-3 -17 -10 -29 -16 -27 -18 4 -4 -38 22 -66 33
-35 95 -24 141 27 10 11 22 19 26 16 3 -2 4 9 2 26 -2 16 -8 31 -12 34 -11 7
-97 -33 -103 -48 -3 -6 -6 0 -6 15 -1 26 -50 95 -51 71 0 -9 -8 -8 -27 3 -34
17 -36 17 -51 2z"/>
<path fill="#ffffff" stroke="none" d="M90 115 c-14 -17 -23 -13 -26 12 -4 27
7 36 24 19 13 -12 13 -18 2 -31z"/>
<path fill="#ffffff" stroke="none" d="M175 64 c8 3 15 1 15 -3 0 -17 28 -19
55 -5 23 12 26 12 16 0 -6 -8 -25 -19 -42 -26 -26 -11 -34 -10 -57 7 -14 10
-28 26 -30 34 -5 12 -3 12 11 0 9 -7 24 -11 32 -7z"/>
<path fill="#000000" stroke="none" d="M73 64 c-3 -9 0 -20 8 -25 12 -8 12
-10 -1 -19 -12 -7 -11 -9 5 -8 11 0 28 -3 38 -7 18 -7 17 -5 -2 34 -23 43 -38
51 -48 25z"/>
</g>
</svg>
