<?xml version="1.0" standalone="no"?>
<!DOCTYPE svg PUBLIC "-//W3C//DTD SVG 20010904//EN"
 "http://www.w3.org/TR/2001/REC-SVG-20010904/DTD/svg10.dtd">
<svg version="1.0" xmlns="http://www.w3.org/2000/svg"
 width="32.000000pt" height="32.000000pt" viewBox="0 0 32.000000 32.000000"
 preserveAspectRatio="xMidYMid meet">
<metadata>
Created by potrace 1.16, written by Peter Selinger 2001-2019
</metadata>
<g transform="translate(0.000000,32.000000) scale(0.100000,-0.100000)"
fill="#000000" stroke="none">
<path fill="#000000" stroke="none" d="M17 313 c-4 -3 -7 -21 -7 -39 0 -24 4
-31 17 -30 25 2 28 -30 3 -37 -21 -5 -27 -31 -10 -42 6 -3 10 -1 10 4 0 6 4
11 9 11 4 0 6 -11 3 -25 -2 -14 1 -54 8 -90 11 -56 15 -65 34 -64 15 0 17 2 6
7 -14 7 -19 19 -24 69 -1 13 -6 26 -9 30 -9 9 -9 55 1 70 4 6 25 14 46 18 32
6 37 5 31 -6 -5 -8 -5 -11 0 -7 4 4 21 -10 37 -32 33 -44 45 -47 89 -25 35 19
49 13 49 -20 0 -28 -58 -82 -98 -91 -50 -11 -47 -12 30 -12 l77 -1 0 74 c0 69
-1 73 -22 71 -12 -2 -32 -8 -44 -14 -12 -7 -28 -12 -36 -12 -19 0 -80 87 -67
95 6 4 8 12 4 18 -3 7 2 3 10 -7 14 -17 16 -18 16 -3 0 9 -4 17 -10 17 -5 0
-10 11 -10 24 0 31 -24 50 -55 44 -14 -3 -25 -1 -25 3 0 10 -54 12 -63 2z"/>
<path fill="#ffffff" stroke="none" d="M76 287 c1 -12 1 -13 -3 -2 -5 17 -23
21 -23 5 0 -5 -7 -10 -15 -10 -8 0 -15 7 -15 16 0 23 54 15 56 -9z"/>
<path fill="#ffffff" stroke="none" d="M147 284 c3 -9 1 -25 -6 -35 -8 -15 -8
-19 1 -19 25 0 -8 -18 -54 -29 -55 -13 -83 -14 -50 -1 12 5 22 16 22 24 0 8
-10 22 -22 31 -23 17 -23 17 7 10 17 -4 40 -7 52 -7 l23 0 -23 -20 c-19 -17
-17 -16 11 2 31 21 43 50 21 50 -6 0 -9 -6 -6 -14 4 -10 0 -12 -14 -9 -10 3
-19 12 -19 19 0 20 49 18 57 -2z"/>
<path fill="#000000" stroke="none" d="M66 125 c4 -8 7 -15 9 -15 2 0 5 7 9
15 3 9 0 15 -9 15 -9 0 -12 -6 -9 -15z"/>
<path fill="#000000" stroke="none" d="M10 115 c0 -5 5 -17 10 -25 5 -8 10
-10 10 -5 0 6 -5 17 -10 25 -5 8 -10 11 -10 5z"/>
<path fill="#000000" stroke="none" d="M150 46 c0 -3 9 -10 20 -16 11 -6 20
-8 20 -6 0 3 -9 10 -20 16 -11 6 -20 8 -20 6z"/>
</g>
</svg>
