<?xml version="1.0" standalone="no"?>
<!DOCTYPE svg PUBLIC "-//W3C//DTD SVG 20010904//EN"
 "http://www.w3.org/TR/2001/REC-SVG-20010904/DTD/svg10.dtd">
<svg version="1.0" xmlns="http://www.w3.org/2000/svg"
 width="32.000000pt" height="32.000000pt" viewBox="0 0 32.000000 32.000000"
 preserveAspectRatio="xMidYMid meet">
<metadata>
Created by potrace 1.16, written by Peter Selinger 2001-2019
</metadata>
<g transform="translate(0.000000,32.000000) scale(0.100000,-0.100000)"
fill="#000000" stroke="none">
<path fill="#000000" stroke="none" d="M17 313 c-4 -3 -7 -21 -7 -39 0 -24 4
-31 17 -30 25 2 28 -30 3 -37 -21 -5 -27 -31 -10 -42 6 -3 10 -1 10 4 0 6 4
11 9 11 4 0 6 -11 3 -25 -2 -14 1 -54 8 -90 12 -64 13 -65 44 -64 29 1 29 2 6
8 -14 3 -26 13 -26 21 -1 8 -5 22 -8 30 -5 11 0 16 14 17 14 1 26 -10 40 -37
l20 -40 90 1 89 1 0 73 c0 69 -1 73 -22 71 -12 -2 -32 -8 -44 -14 -12 -7 -28
-12 -36 -12 -19 0 -80 87 -67 95 6 4 8 12 4 18 -3 7 2 3 10 -7 14 -17 16 -18
16 -3 0 9 -4 17 -10 17 -5 0 -10 11 -10 24 0 31 -24 50 -55 44 -14 -3 -25 -1
-25 3 0 10 -54 12 -63 2z"/>
<path fill="#ffffff" stroke="none" d="M76 287 c2 -12 1 -13 -3 -2 -5 17 -19
20 -28 5 -7 -11 -25 -4 -25 10 0 18 55 5 56 -13z"/>
<path fill="#ffffff" stroke="none" d="M147 282 c4 -8 1 -23 -6 -33 -8 -15 -8
-19 1 -19 25 0 -8 -18 -54 -29 -55 -13 -83 -14 -50 -1 12 5 22 16 22 24 0 8
-10 22 -22 31 -23 17 -23 17 7 10 54 -12 95 -7 95 12 0 15 -16 17 -25 3 -7
-11 -25 -4 -25 9 0 15 51 9 57 -7z"/>
<path fill="#ffffff" stroke="none" d="M168 156 c17 -24 29 -46 25 -49 -8 -9
50 9 76 22 47 26 57 -30 14 -71 -58 -53 -107 -62 -140 -26 -28 32 -35 58 -21
77 11 13 8 12 -15 -2 -35 -22 -57 -9 -57 33 0 33 22 54 49 45 10 -3 22 -1 26
5 9 14 8 15 43 -34z"/>
<path fill="#000000" stroke="none" d="M99 239 l-24 -20 28 17 c15 9 27 18 27
20 0 8 -8 4 -31 -17z"/>
<path fill="#000000" stroke="none" d="M66 125 c4 -8 7 -15 9 -15 2 0 5 7 9
15 3 9 0 15 -9 15 -9 0 -12 -6 -9 -15z"/>
<path fill="#000000" stroke="none" d="M161 50 c-11 -6 -8 -11 9 -20 27 -14
32 -10 16 12 -8 10 -17 14 -25 8z"/>
<path fill="#000000" stroke="none" d="M10 115 c0 -5 5 -17 10 -25 5 -8 10
-10 10 -5 0 6 -5 17 -10 25 -5 8 -10 11 -10 5z"/>
</g>
</svg>
