<?xml version="1.0" standalone="no"?>
<!DOCTYPE svg PUBLIC "-//W3C//DTD SVG 20010904//EN"
 "http://www.w3.org/TR/2001/REC-SVG-20010904/DTD/svg10.dtd">
<svg version="1.0" xmlns="http://www.w3.org/2000/svg"
 width="32.000000pt" height="32.000000pt" viewBox="0 0 32.000000 32.000000"
 preserveAspectRatio="xMidYMid meet">
<metadata>
Created by potrace 1.16, written by Peter Selinger 2001-2019
</metadata>
<g transform="translate(0.000000,32.000000) scale(0.100000,-0.100000)"
fill="#000000" stroke="none">
<path fill="#000000" stroke="none" d="M0 286 c0 -23 7 -39 20 -49 11 -8 18
-17 15 -20 -3 -4 0 -3 6 1 5 5 11 18 12 30 0 12 4 19 7 16 5 -6 7 -12 9 -41 0
-9 4 -13 8 -9 15 15 10 35 -15 58 -14 13 -23 18 -19 13 8 -15 -19 -49 -28 -35
-7 11 31 60 46 60 4 0 15 -7 23 -16 9 -8 16 -11 16 -5 0 15 -35 31 -69 31 -29
0 -31 -3 -31 -34z"/>
<path fill="#000000" stroke="none" d="M101 316 c2 -2 40 -6 83 -9 47 -3 73
-1 65 4 -13 8 -157 13 -148 5z"/>
<path fill="#000000" stroke="none" d="M282 306 c7 -7 19 -11 25 -9 22 9 14
23 -12 23 -21 0 -24 -2 -13 -14z"/>
<path fill="#000000" stroke="none" d="M144 286 c-3 -8 0 -25 7 -38 11 -20 10
-21 -3 -11 -8 7 -19 9 -23 5 -5 -4 -5 -1 0 7 5 9 4 12 -2 8 -6 -4 -16 -20 -23
-37 -7 -16 -17 -27 -23 -23 -6 4 -7 1 -2 -6 4 -7 2 -24 -6 -37 -11 -21 -10
-27 9 -47 24 -26 28 -37 11 -37 -5 0 -7 5 -3 12 4 7 3 8 -5 4 -6 -4 -9 -12 -6
-17 10 -16 -12 -10 -36 10 -22 18 -22 19 -6 44 23 36 21 47 -3 18 -11 -13 -20
-19 -20 -13 0 5 7 15 15 22 24 20 19 49 -6 43 -23 -6 -22 -4 -5 -131 2 -12 -1
-25 -5 -28 -13 -7 -11 -34 2 -34 5 0 7 5 3 12 -5 8 -2 9 12 4 10 -5 28 -10 39
-12 l20 -4 -20 9 c-14 7 -15 10 -5 10 13 1 13 2 0 11 -20 13 -39 12 -20 -1 12
-8 12 -10 1 -7 -8 2 -15 12 -17 21 -2 13 2 15 14 8 22 -12 34 -10 51 7 8 7 22
11 31 9 23 -6 20 13 -7 40 -19 19 -20 26 -10 52 7 20 15 27 21 21 6 -6 17 -10
26 -10 9 0 17 -7 17 -15 0 -11 -4 -12 -13 -4 -8 6 -14 6 -18 0 -4 -5 -2 -12 3
-15 5 -4 8 -14 6 -24 -1 -9 6 -31 16 -48 10 -17 16 -33 14 -36 -13 -13 24 -24
63 -20 41 4 42 5 23 19 -24 16 -52 61 -30 47 7 -4 2 7 -10 25 -29 41 -32 72
-9 89 10 7 16 18 13 23 -9 13 9 11 23 -3 14 -14 -2 -48 -24 -48 -12 0 -13 -4
-3 -21 11 -21 11 -20 40 12 15 19 28 39 29 45 0 18 -38 47 -51 38 -9 -5 -11
-1 -7 14 4 12 0 26 -8 33 -11 9 -14 6 -14 -16 0 -33 -12 -26 -14 7 -1 27 -43
39 -52 14z"/>
<path fill="#ffffff" stroke="none" d="M205 12 c-3 -3 -11 0 -18 7 -9 10 -8
11 6 5 10 -3 15 -9 12 -12z"/>
<path fill="#000000" stroke="none" d="M260 262 c-13 -14 -12 -15 2 -9 9 3 19
1 22 -6 3 -9 5 -8 5 1 1 7 6 10 11 7 6 -3 10 -4 10 -1 0 3 -8 9 -17 15 -13 6
-22 4 -33 -7z"/>
<path fill="#000000" stroke="none" d="M225 189 c-11 -17 1 -21 15 -4 8 9 8
15 2 15 -6 0 -14 -5 -17 -11z"/>
<path fill="#000000" stroke="none" d="M283 170 c-29 -36 -29 -49 -1 -24 19
16 20 16 9 1 -8 -9 -12 -19 -10 -20 2 -1 12 -9 22 -16 16 -12 17 -9 17 38 0
28 -3 51 -7 50 -5 0 -18 -13 -30 -29z"/>
<path fill="#000000" stroke="none" d="M51 174 c0 -11 3 -14 6 -6 3 7 2 16 -1
19 -3 4 -6 -2 -5 -13z"/>
<path fill="#000000" stroke="none" d="M106 143 c-6 -14 -5 -15 5 -6 7 7 10
15 7 18 -3 3 -9 -2 -12 -12z"/>
<path fill="#000000" stroke="none" d="M50 101 c0 -11 4 -21 9 -21 18 0 21 18
6 30 -13 10 -15 9 -15 -9z"/>
<path fill="#000000" stroke="none" d="M250 106 c0 -2 8 -10 18 -17 15 -13 16
-12 3 4 -13 16 -21 21 -21 13z"/>
</g>
</svg>
