<?xml version="1.0" standalone="no"?>
<!DOCTYPE svg PUBLIC "-//W3C//DTD SVG 20010904//EN"
 "http://www.w3.org/TR/2001/REC-SVG-20010904/DTD/svg10.dtd">
<svg version="1.0" xmlns="http://www.w3.org/2000/svg"
 width="32.000000pt" height="32.000000pt" viewBox="0 0 32.000000 32.000000"
 preserveAspectRatio="xMidYMid meet">
<metadata>
Created by potrace 1.16, written by Peter Selinger 2001-2019
</metadata>
<g transform="translate(0.000000,32.000000) scale(0.100000,-0.100000)"
fill="#000000" stroke="none">
<path fill="#000000" stroke="none" d="M0 284 l0 -36 26 31 c29 35 36 37 58
15 9 -8 16 -11 16 -5 0 15 -35 31 -69 31 -29 0 -31 -3 -31 -36z"/>
<path fill="#000000" stroke="none" d="M101 316 c2 -2 40 -6 83 -9 47 -3 73
-1 65 4 -13 8 -157 13 -148 5z"/>
<path fill="#000000" stroke="none" d="M282 306 c7 -7 19 -11 25 -9 22 9 14
23 -12 23 -21 0 -24 -2 -13 -14z"/>
<path fill="#000000" stroke="none" d="M145 290 c-4 -6 -2 -23 3 -38 21 -56
22 -61 6 -55 -8 3 -12 13 -9 23 3 10 -2 23 -12 31 -11 9 -14 10 -9 2 4 -8 2
-13 -5 -13 -7 0 -10 -3 -7 -6 7 -6 -24 -42 -32 -38 -3 1 -6 -8 -7 -19 -9 -79
-9 -93 -6 -100 3 -4 9 -5 14 -1 6 4 6 11 -2 20 -10 12 -9 13 5 8 19 -7 22 16
4 35 -9 9 -9 12 -1 7 6 -3 13 -3 16 1 2 5 2 1 0 -7 -3 -11 -1 -12 7 -4 9 9 9
17 1 32 -10 19 -6 32 11 32 5 0 6 -5 3 -10 -4 -6 7 -13 24 -16 21 -5 28 -10
24 -22 -4 -10 -2 -13 6 -8 6 4 10 13 9 19 -1 7 3 22 10 35 8 13 10 32 6 45 -4
12 -8 29 -8 37 -1 18 -41 26 -51 10z"/>
<path fill="#000000" stroke="none" d="M36 258 c-10 -14 -12 -24 -6 -26 6 -2
8 -8 4 -13 -3 -5 -3 -9 0 -9 2 0 11 13 19 30 18 36 5 50 -17 18z"/>
<path fill="#000000" stroke="none" d="M264 259 c-4 -7 -3 -9 4 -5 5 3 13 0
15 -6 4 -9 6 -10 6 -1 1 17 -16 25 -25 12z"/>
<path fill="#000000" stroke="none" d="M210 251 c0 -5 11 -18 25 -29 23 -19
36 -40 16 -28 -5 4 -7 -3 -4 -14 6 -23 16 -25 32 -6 16 19 3 45 -25 52 -13 3
-24 12 -24 20 0 8 -4 14 -10 14 -5 0 -10 -4 -10 -9z"/>
<path fill="#000000" stroke="none" d="M77 243 c-4 -3 -7 -13 -7 -21 0 -18 13
-7 16 13 2 17 1 18 -9 8z"/>
<path fill="#000000" stroke="none" d="M288 175 c-20 -27 -17 -45 12 -63 19
-12 20 -10 20 38 0 56 -7 61 -32 25z"/>
<path fill="#000000" stroke="none" d="M3 155 c0 -22 2 -30 4 -17 2 12 2 30 0
40 -3 9 -5 -1 -4 -23z"/>
<path fill="#000000" stroke="none" d="M214 142 c0 -13 6 -18 19 -14 20 5 18
26 -4 30 -9 1 -15 -5 -15 -16z"/>
<path fill="#000000" stroke="none" d="M144 138 c9 -30 28 -103 28 -108 -1
-10 21 -30 32 -30 6 0 4 5 -4 10 -8 5 -11 10 -6 10 5 0 3 6 -3 14 -9 11 -8 15
4 20 9 3 13 2 10 -4 -3 -6 -1 -10 5 -10 6 0 9 -3 7 -7 -3 -5 5 -8 18 -8 23 0
23 0 5 20 -10 11 -23 33 -29 48 -6 16 -16 25 -21 22 -6 -4 -20 4 -31 17 -14
16 -19 18 -15 6z"/>
<path fill="#000000" stroke="none" d="M100 87 c0 -9 7 -14 15 -13 20 3 20 20
1 24 -9 2 -16 -3 -16 -11z"/>
<path fill="#000000" stroke="none" d="M24 81 c7 -11 46 -35 46 -28 0 3 -12
12 -26 22 -15 9 -23 12 -20 6z"/>
<path fill="#000000" stroke="none" d="M7 33 c-10 -9 -9 -33 1 -33 4 0 8 9 9
20 2 21 0 24 -10 13z"/>
</g>
</svg>
