<?xml version="1.0" standalone="no"?>
<!DOCTYPE svg PUBLIC "-//W3C//DTD SVG 20010904//EN"
 "http://www.w3.org/TR/2001/REC-SVG-20010904/DTD/svg10.dtd">
<svg version="1.0" xmlns="http://www.w3.org/2000/svg"
 width="32.000000pt" height="32.000000pt" viewBox="0 0 32.000000 32.000000"
 preserveAspectRatio="xMidYMid meet">
<metadata>
Created by potrace 1.16, written by Peter Selinger 2001-2019
</metadata>
<g transform="translate(0.000000,32.000000) scale(0.100000,-0.100000)"
fill="#000000" stroke="none">
<path fill="#000000" stroke="none" d="M90 299 c-7 -11 -7 -27 0 -43 14 -38
-6 -79 -36 -72 -28 7 -46 -15 -42 -51 4 -33 37 -43 61 -19 23 24 28 19 11 -11
-17 -34 -18 -77 -1 -90 6 -6 62 -11 124 -11 l111 -2 -3 95 c-3 53 -7 101 -11
107 -4 7 -3 8 4 4 9 -5 12 6 12 38 0 41 -3 46 -22 46 -12 0 -30 8 -41 17 -18
17 -20 17 -31 1 -13 -17 -39 -19 -53 -3 -5 4 -1 5 7 0 9 -5 12 -4 7 1 -5 5
-26 9 -48 10 -29 1 -42 -4 -49 -17z"/>
<path fill="#ffffff" stroke="none" d="M146 278 c-12 -7 -21 -7 -28 0 -6 6 0
10 18 10 23 0 24 -2 10 -10z"/>
<path fill="#ffffff" stroke="none" d="M127 253 c-9 -2 -14 -9 -11 -15 4 -7 2
-8 -5 -4 -15 10 -4 26 17 25 15 -1 15 -2 -1 -6z"/>
<path fill="#ffffff" stroke="none" d="M273 190 c-4 -17 -8 -18 -20 -8 -13 10
-13 13 4 19 10 4 19 8 20 8 0 1 -1 -8 -4 -19z"/>
<path fill="#ffffff" stroke="none" d="M110 191 c0 -6 -4 -12 -8 -15 -5 -3 -9
1 -9 9 0 8 4 15 9 15 4 0 8 -4 8 -9z"/>
<path fill="#ffffff" stroke="none" d="M254 149 c-8 -13 -24 -1 -24 18 0 13 3
13 15 3 8 -7 12 -16 9 -21z"/>
<path fill="#ffffff" stroke="none" d="M34 155 c3 -8 1 -15 -4 -15 -6 0 -10 7
-10 15 0 8 2 15 4 15 2 0 6 -7 10 -15z"/>
<path fill="#ffffff" stroke="none" d="M47 124 c-3 -3 -12 -4 -19 -1 -8 3 -5
6 6 6 11 1 17 -2 13 -5z"/>
<path fill="#ffffff" stroke="none" d="M269 108 c-5 -10 -11 -18 -12 -18 -2 0
-3 8 -3 18 0 10 6 19 13 19 8 0 9 -6 2 -19z"/>
<path fill="#ffffff" stroke="none" d="M184 111 c-8 -8 -34 -10 -38 -2 -3 4 6
7 19 7 14 0 22 -2 19 -5z"/>
<path fill="#ffffff" stroke="none" d="M296 95 c2 -24 -6 -32 -19 -19 -5 6 9
44 16 44 1 0 3 -11 3 -25z"/>
<path fill="#ffffff" stroke="none" d="M110 64 c-9 -23 -13 -25 -20 -14 -12
19 -13 33 -1 26 5 -3 12 1 15 10 4 9 9 15 12 12 2 -3 0 -18 -6 -34z"/>
<path fill="#ffffff" stroke="none" d="M234 58 c-9 -14 -24 2 -24 25 1 21 1
21 15 3 8 -10 12 -23 9 -28z"/>
</g>
</svg>
