<?xml version="1.0" standalone="no"?>
<!DOCTYPE svg PUBLIC "-//W3C//DTD SVG 20010904//EN"
 "http://www.w3.org/TR/2001/REC-SVG-20010904/DTD/svg10.dtd">
<svg version="1.0" xmlns="http://www.w3.org/2000/svg"
 width="32.000000pt" height="32.000000pt" viewBox="0 0 32.000000 32.000000"
 preserveAspectRatio="xMidYMid meet">
<metadata>
Created by potrace 1.16, written by Peter Selinger 2001-2019
</metadata>
<g transform="translate(0.000000,32.000000) scale(0.100000,-0.100000)"
fill="#000000" stroke="none">
<path fill="#000000" stroke="none" d="M49 303 c0 -5 -2 -21 -4 -37 -2 -16 0
-48 4 -73 8 -39 7 -43 -9 -38 -21 7 -44 -19 -36 -40 3 -8 15 -15 26 -15 17 0
20 -6 20 -48 l0 -48 100 -3 c110 -2 131 5 156 54 8 15 13 54 13 90 -1 53 -5
67 -25 86 -13 12 -27 19 -30 16 -4 -4 -13 1 -21 11 -8 9 -11 11 -7 3 4 -9 3
-12 -3 -8 -6 4 -9 19 -7 34 2 16 1 22 -2 16 -4 -10 -11 -10 -27 -2 -16 9 -23
8 -31 -3 -6 -8 -19 -14 -28 -12 -10 1 -21 -2 -24 -7 -3 -6 -11 -5 -20 2 -7 6
-22 8 -31 5 -12 -5 -14 -4 -8 2 6 6 19 12 30 15 15 4 13 5 -7 6 -16 0 -28 -2
-29 -6z"/>
<path fill="#ffffff" stroke="none" d="M183 271 c3 -13 1 -18 -9 -14 -7 2 -10
11 -7 19 7 19 10 18 16 -5z"/>
<path fill="#ffffff" stroke="none" d="M87 258 c-3 -8 -6 -5 -6 6 -1 11 2 17
5 13 3 -3 4 -12 1 -19z"/>
<path fill="#ffffff" stroke="none" d="M112 240 c22 11 22 10 4 -4 -25 -20
-30 -20 -47 2 -13 15 -12 16 3 4 13 -10 22 -11 40 -2z"/>
<path fill="#ffffff" stroke="none" d="M196 156 c-2 -6 -5 -3 -5 7 -1 10 -5
15 -11 12 -5 -3 -10 2 -10 12 0 15 -2 16 -10 3 -5 -8 -10 -10 -10 -4 0 5 5 15
12 22 8 8 15 5 25 -15 7 -15 12 -31 9 -37z"/>
<path fill="#ffffff" stroke="none" d="M236 193 c-8 -8 -36 5 -36 17 0 7 6 7
21 0 11 -7 18 -14 15 -17z"/>
<path fill="#ffffff" stroke="none" d="M104 202 c2 -4 -4 -8 -14 -8 -10 0 -16
4 -14 8 3 4 9 8 14 8 5 0 11 -4 14 -8z"/>
<path fill="#ffffff" stroke="none" d="M290 170 c0 8 3 11 6 7 3 -3 2 -12 -3
-21 -7 -13 -11 -12 -22 7 -13 20 -13 21 2 8 14 -11 17 -11 17 -1z"/>
<path fill="#ffffff" stroke="none" d="M87 65 c0 -8 -7 -15 -15 -15 -12 0 -12
3 -2 15 7 8 13 15 15 15 1 0 2 -7 2 -15z"/>
<path fill="#ffffff" stroke="none" d="M210 70 c0 -5 -5 -10 -11 -10 -5 0 -7
5 -4 10 3 6 8 10 11 10 2 0 4 -4 4 -10z"/>
</g>
</svg>
