<?xml version="1.0" standalone="no"?>
<!DOCTYPE svg PUBLIC "-//W3C//DTD SVG 20010904//EN"
 "http://www.w3.org/TR/2001/REC-SVG-20010904/DTD/svg10.dtd">
<svg version="1.0" xmlns="http://www.w3.org/2000/svg"
 width="32.000000pt" height="32.000000pt" viewBox="0 0 32.000000 32.000000"
 preserveAspectRatio="xMidYMid meet">
<metadata>
Created by potrace 1.16, written by Peter Selinger 2001-2019
</metadata>
<g transform="translate(0.000000,32.000000) scale(0.100000,-0.100000)"
fill="#000000" stroke="none">
<path fill="#000000" stroke="none" d="M0 229 c0 -76 2 -90 14 -80 7 6 20 9
29 6 12 -5 13 1 6 38 -4 24 -6 57 -4 73 2 16 4 32 4 37 1 4 13 6 29 6 20 -1
22 -2 7 -6 -11 -3 -24 -9 -30 -15 -6 -6 -4 -7 8 -2 9 3 24 1 31 -5 9 -7 17 -8
20 -2 3 5 14 8 24 7 9 -2 22 4 28 12 8 11 15 12 31 3 16 -8 23 -8 27 2 3 6 4
0 2 -16 -2 -15 1 -30 7 -34 6 -4 7 -1 3 8 -4 8 -1 6 7 -3 8 -10 17 -15 21 -11
3 3 17 -4 31 -17 l25 -23 0 56 0 57 -160 0 -160 0 0 -91z"/>
<path fill="#000000" stroke="none" d="M81 264 c0 -11 3 -14 6 -6 3 7 2 16 -1
19 -3 4 -6 -2 -5 -13z"/>
<path fill="#000000" stroke="none" d="M0 58 c0 -55 1 -58 25 -58 23 0 25 3
25 51 0 44 -2 50 -17 45 -9 -4 -20 -1 -25 6 -4 8 -8 -11 -8 -44z"/>
<path fill="#000000" stroke="none" d="M303 53 c-3 -10 -15 -26 -27 -35 -21
-17 -21 -18 12 -18 30 0 32 2 32 35 0 38 -7 45 -17 18z"/>
</g>
</svg>
