<?xml version="1.0" standalone="no"?>
<!DOCTYPE svg PUBLIC "-//W3C//DTD SVG 20010904//EN"
 "http://www.w3.org/TR/2001/REC-SVG-20010904/DTD/svg10.dtd">
<svg version="1.0" xmlns="http://www.w3.org/2000/svg"
 width="32.000000pt" height="32.000000pt" viewBox="0 0 32.000000 32.000000"
 preserveAspectRatio="xMidYMid meet">
<metadata>
Created by potrace 1.16, written by Peter Selinger 2001-2019
</metadata>
<g transform="translate(0.000000,32.000000) scale(0.100000,-0.100000)"
fill="#000000" stroke="none">
<path fill="#000000" stroke="none" d="M0 160 l0 -160 160 0 160 0 0 160 0
160 -160 0 -160 0 0 -160z"/>
<path fill="#ffffff" stroke="none" d="M209 289 c-11 -11 -19 -27 -19 -37 0
-15 7 -17 42 -13 39 3 41 2 29 -13 -8 -10 -27 -24 -43 -32 -26 -14 -28 -13
-28 6 0 12 -4 18 -10 15 -5 -3 -10 3 -10 14 0 28 -25 17 -42 -19 l-14 -30 -35
31 -34 30 38 -4 c40 -3 44 4 28 46 -9 24 -9 24 53 24 62 0 63 0 45 -18z"/>
<path fill="#ffffff" stroke="none" d="M80 184 c0 -6 -13 -11 -30 -12 -19 0
-30 4 -30 13 0 10 10 13 30 12 16 -1 30 -7 30 -13z"/>
<path fill="#ffffff" stroke="none" d="M270 177 c14 4 20 0 20 -11 0 -18 -25
-22 -35 -6 -4 6 -11 8 -16 5 -11 -7 -12 8 -2 19 4 4 9 3 11 -2 2 -6 12 -8 22
-5z"/>
<path fill="#ffffff" stroke="none" d="M206 123 c12 -27 11 -32 -3 -37 -9 -4
-24 1 -34 10 -18 16 -29 15 -61 -8 -13 -9 -21 -9 -28 -2 -8 8 -4 19 13 40 19
23 33 29 63 29 33 0 39 -4 50 -32z"/>
</g>
</svg>
