<?xml version="1.0" standalone="no"?>
<!DOCTYPE svg PUBLIC "-//W3C//DTD SVG 20010904//EN"
 "http://www.w3.org/TR/2001/REC-SVG-20010904/DTD/svg10.dtd">
<svg version="1.0" xmlns="http://www.w3.org/2000/svg"
 width="32.000000pt" height="32.000000pt" viewBox="0 0 32.000000 32.000000"
 preserveAspectRatio="xMidYMid meet">
<metadata>
Created by potrace 1.16, written by Peter Selinger 2001-2019
</metadata>
<g transform="translate(0.000000,32.000000) scale(0.100000,-0.100000)"
fill="#000000" stroke="none">
<path fill="#000000" stroke="none" d="M195 265 c-23 -11 -25 -14 -10 -14 11
0 31 6 45 14 32 18 5 18 -35 0z"/>
<path fill="#000000" stroke="none" d="M53 252 c-38 -18 -38 -20 -18 -68 14
-34 35 -39 35 -8 0 8 6 27 14 43 21 39 8 52 -31 33z"/>
<path fill="#000000" stroke="none" d="M149 235 c-1 -3 -3 -9 -4 -15 -1 -5 -3
-16 -4 -22 -1 -7 -9 -2 -17 12 -15 25 -15 25 -9 -10 3 -19 6 -42 7 -50 1 -8 9
-21 19 -28 10 -7 16 -19 13 -27 -4 -8 -2 -15 4 -15 5 0 12 -7 16 -15 9 -24
-19 -18 -54 12 -24 20 -36 24 -48 17 -25 -16 -28 -37 -5 -30 12 4 42 -4 72
-18 49 -22 54 -23 70 -8 9 10 28 25 41 34 19 14 21 16 5 11 -19 -6 -19 -5 2
19 23 24 32 78 14 78 -5 0 -18 -17 -28 -37 -21 -43 -56 -55 -72 -26 -5 11 -7
24 -3 30 9 14 43 20 59 10 7 -4 10 -1 8 10 -1 10 2 24 8 31 7 9 6 17 -4 27
-12 11 -16 11 -29 -3 -13 -14 -12 -15 4 -9 12 5 16 3 14 -5 -7 -21 -33 -14
-36 10 -2 14 -10 22 -23 22 -10 0 -20 -2 -20 -5z"/>
<path fill="#ffffff" stroke="none" d="M170 206 c0 -3 -4 -8 -10 -11 -5 -3
-10 -1 -10 4 0 6 5 11 10 11 6 0 10 -2 10 -4z"/>
<path fill="#ffffff" stroke="none" d="M185 180 c3 -5 -1 -10 -10 -10 -9 0
-13 5 -10 10 3 6 8 10 10 10 2 0 7 -4 10 -10z"/>
<path fill="#ffffff" stroke="none" d="M223 73 c-7 -2 -19 -2 -25 0 -7 3 -2 5
12 5 14 0 19 -2 13 -5z"/>
</g>
</svg>
