<?xml version="1.0" standalone="no"?>
<!DOCTYPE svg PUBLIC "-//W3C//DTD SVG 20010904//EN"
 "http://www.w3.org/TR/2001/REC-SVG-20010904/DTD/svg10.dtd">
<svg version="1.0" xmlns="http://www.w3.org/2000/svg"
 width="32.000000pt" height="32.000000pt" viewBox="0 0 32.000000 32.000000"
 preserveAspectRatio="xMidYMid meet">
<metadata>
Created by potrace 1.16, written by Peter Selinger 2001-2019
</metadata>
<g transform="translate(0.000000,32.000000) scale(0.100000,-0.100000)"
fill="#000000" stroke="none">
<path fill="#000000" stroke="none" d="M0 161 l0 -162 65 2 c35 1 62 6 59 11
-3 4 0 8 5 8 8 0 7 6 -1 19 -9 15 -9 23 0 34 10 11 9 17 0 25 -16 13 -70 4
-61 -11 3 -6 1 -7 -5 -3 -7 4 -12 14 -12 22 0 8 -7 14 -16 14 -26 0 -13 45 14
46 12 1 22 -3 22 -7 0 -10 33 -12 43 -3 3 3 -3 20 -14 38 -13 23 -17 42 -12
69 3 21 9 40 13 42 4 2 4 -13 0 -35 -7 -39 -5 -50 12 -50 5 0 6 10 2 23 -6 21
-6 21 13 5 24 -22 40 -23 40 -4 0 8 -3 15 -6 14 -21 -2 -30 5 -28 22 1 14 6
19 17 15 11 -5 12 -3 3 6 -6 6 -43 14 -82 17 l-71 5 0 -162z"/>
<path fill="#000000" stroke="none" d="M163 298 c2 -13 8 -33 15 -45 7 -13 10
-23 6 -23 -3 0 -1 -6 5 -13 6 -8 8 -17 4 -20 -3 -4 -2 -7 4 -7 6 0 23 12 38
28 16 15 25 21 20 13 -5 -9 -4 -12 3 -7 8 5 8 13 0 31 -8 19 -8 28 2 40 11 14
14 13 25 -2 8 -10 16 -15 20 -12 3 4 -1 14 -10 23 -11 11 -34 16 -75 16 -55 0
-59 -1 -57 -22z"/>
<path fill="#000000" stroke="none" d="M260 281 c0 -5 7 -12 16 -15 9 -3 12
-11 8 -18 -5 -9 -3 -9 9 1 18 14 23 26 8 17 -5 -3 -11 1 -15 9 -6 16 -26 21
-26 6z"/>
<path fill="#000000" stroke="none" d="M286 222 c-3 -6 0 -14 8 -19 11 -6 8
-14 -15 -36 -20 -19 -27 -22 -22 -10 6 17 5 17 -15 0 -15 -14 -19 -24 -13 -40
5 -12 15 -22 22 -22 8 0 15 -10 17 -22 3 -17 10 -23 28 -23 23 0 24 2 24 73 0
71 -18 124 -34 99z"/>
<path fill="#000000" stroke="none" d="M155 201 c-18 -7 -17 -8 7 -14 20 -5
25 -12 21 -27 -5 -20 -7 -20 -24 -4 -18 16 -20 16 -37 1 -10 -10 -26 -17 -34
-17 -9 0 -19 -7 -22 -16 -5 -14 -1 -15 28 -10 25 5 35 3 40 -9 3 -8 13 -15 23
-16 14 0 13 -2 -5 -10 -25 -10 -27 -39 -3 -47 10 -3 12 0 7 14 -7 17 -6 17 13
0 18 -16 21 -17 45 -1 14 9 29 14 33 12 5 -3 10 4 10 16 2 15 0 18 -6 9 -6
-11 -10 -10 -15 3 -4 11 -12 15 -22 11 -14 -5 -15 -4 -5 8 7 8 10 20 6 26 -3
5 6 22 22 36 15 14 23 23 16 20 -6 -4 -15 -2 -18 4 -5 8 -11 8 -20 0 -14 -12
-48 -3 -39 11 6 10 6 10 -21 0z"/>
<path fill="#ffffff" stroke="none" d="M204 61 c3 -5 -1 -11 -9 -14 -9 -4 -12
-1 -8 9 6 16 10 17 17 5z"/>
</g>
</svg>
