<?xml version="1.0" standalone="no"?>
<!DOCTYPE svg PUBLIC "-//W3C//DTD SVG 20010904//EN"
 "http://www.w3.org/TR/2001/REC-SVG-20010904/DTD/svg10.dtd">
<svg version="1.0" xmlns="http://www.w3.org/2000/svg"
 width="32.000000pt" height="32.000000pt" viewBox="0 0 32.000000 32.000000"
 preserveAspectRatio="xMidYMid meet">
<metadata>
Created by potrace 1.16, written by Peter Selinger 2001-2019
</metadata>
<g transform="translate(0.000000,32.000000) scale(0.100000,-0.100000)"
fill="#000000" stroke="none">
<path fill="#000000" stroke="none" d="M140 251 c0 -12 6 -21 16 -21 9 0 14 7
12 17 -5 25 -28 28 -28 4z"/>
<path fill="#000000" stroke="none" d="M133 213 c-17 -6 -16 -25 2 -49 14 -19
15 -18 37 6 13 14 19 20 14 12 -6 -9 -3 -18 9 -30 18 -16 18 -16 5 1 -12 16
-11 21 8 40 16 15 25 18 33 10 8 -8 8 -13 0 -17 -13 -9 -15 -26 -2 -26 17 0
22 34 7 48 -12 13 -18 13 -30 2 -11 -8 -16 -9 -16 -1 0 11 -44 14 -67 4z"/>
<path fill="#000000" stroke="none" d="M82 170 c-20 -17 -30 -40 -17 -40 3 0
17 11 31 24 31 28 19 42 -14 16z"/>
<path fill="#000000" stroke="none" d="M125 132 c-3 -8 -4 -32 -4 -55 1 -39 2
-40 8 -12 l7 30 11 -30 11 -30 2 30 c1 29 1 30 11 6 14 -36 22 -18 15 32 -6
40 -10 45 -31 43 -14 0 -27 -7 -30 -14z"/>
<path fill="#000000" stroke="none" d="M180 30 c-12 -8 -12 -10 2 -15 26 -10
43 -2 26 12 -8 7 -19 8 -28 3z"/>
<path fill="#000000" stroke="none" d="M105 20 c-3 -5 3 -10 14 -10 12 0 21 5
21 10 0 6 -6 10 -14 10 -8 0 -18 -4 -21 -10z"/>
</g>
</svg>
