<?xml version="1.0" standalone="no"?>
<!DOCTYPE svg PUBLIC "-//W3C//DTD SVG 20010904//EN"
 "http://www.w3.org/TR/2001/REC-SVG-20010904/DTD/svg10.dtd">
<svg version="1.0" xmlns="http://www.w3.org/2000/svg"
 width="32.000000pt" height="32.000000pt" viewBox="0 0 32.000000 32.000000"
 preserveAspectRatio="xMidYMid meet">
<metadata>
Created by potrace 1.16, written by Peter Selinger 2001-2019
</metadata>
<g transform="translate(0.000000,32.000000) scale(0.100000,-0.100000)"
fill="#000000" stroke="none">
<path fill="#000000" stroke="none" d="M143 244 c3 -16 0 -28 -9 -31 -20 -8
-17 -30 8 -55 15 -15 17 -20 5 -15 -12 4 -18 0 -21 -16 -13 -63 -15 -87 -6
-87 5 0 10 10 13 22 4 23 4 23 15 -2 l11 -25 0 24 c1 24 1 24 16 5 14 -18 14
-18 15 6 0 14 -5 42 -11 64 -9 33 -8 41 7 55 17 15 17 15 4 -2 -11 -16 -11
-20 5 -35 18 -16 18 -16 5 1 -11 15 -11 20 4 35 16 16 17 16 22 -6 7 -26 19
-29 28 -5 9 22 -20 51 -35 36 -13 -13 -41 9 -52 40 -10 27 -30 21 -24 -9z"/>
<path fill="#ffffff" stroke="none" d="M245 200 c3 -5 2 -10 -4 -10 -5 0 -13
5 -16 10 -3 6 -2 10 4 10 5 0 13 -4 16 -10z"/>
<path fill="#000000" stroke="none" d="M82 170 c-22 -18 -30 -40 -14 -40 14 0
54 47 45 53 -4 3 -18 -3 -31 -13z"/>
<path fill="#000000" stroke="none" d="M180 30 c-12 -8 -12 -10 2 -15 26 -10
43 -2 26 12 -8 7 -19 8 -28 3z"/>
<path fill="#000000" stroke="none" d="M105 20 c-3 -5 3 -10 14 -10 12 0 21 5
21 10 0 6 -6 10 -14 10 -8 0 -18 -4 -21 -10z"/>
</g>
</svg>
