<?xml version="1.0" standalone="no"?>
<!DOCTYPE svg PUBLIC "-//W3C//DTD SVG 20010904//EN"
 "http://www.w3.org/TR/2001/REC-SVG-20010904/DTD/svg10.dtd">
<svg version="1.0" xmlns="http://www.w3.org/2000/svg"
 width="32.000000pt" height="32.000000pt" viewBox="0 0 32.000000 32.000000"
 preserveAspectRatio="xMidYMid meet">
<metadata>
Created by potrace 1.16, written by Peter Selinger 2001-2019
</metadata>
<g transform="translate(0.000000,32.000000) scale(0.100000,-0.100000)"
fill="#000000" stroke="none">
<path fill="#000000" stroke="none" d="M143 250 c-1 -11 2 -18 8 -15 11 7 12
35 1 35 -4 0 -8 -9 -9 -20z"/>
<path fill="#000000" stroke="none" d="M139 203 c-13 -17 -13 -17 6 -3 11 8
22 16 24 17 2 2 0 3 -6 3 -6 0 -17 -8 -24 -17z"/>
<path fill="#000000" stroke="none" d="M83 171 c-13 -11 -23 -24 -23 -30 0
-17 38 10 43 31 3 10 4 18 4 18 -1 -1 -12 -9 -24 -19z"/>
<path fill="#000000" stroke="none" d="M146 121 c-4 -5 -2 -20 3 -33 9 -21 10
-21 10 10 1 32 -3 39 -13 23z"/>
<path fill="#000000" stroke="none" d="M122 100 c0 -14 2 -19 5 -12 2 6 2 18
0 25 -3 6 -5 1 -5 -13z"/>
<path fill="#000000" stroke="none" d="M105 20 c-3 -6 1 -7 9 -4 18 7 21 14 7
14 -6 0 -13 -4 -16 -10z"/>
<path fill="#000000" stroke="none" d="M185 20 c-3 -5 1 -10 10 -10 9 0 13 5
10 10 -3 6 -8 10 -10 10 -2 0 -7 -4 -10 -10z"/>
</g>
</svg>
