<?xml version="1.0" standalone="no"?>
<!DOCTYPE svg PUBLIC "-//W3C//DTD SVG 20010904//EN"
 "http://www.w3.org/TR/2001/REC-SVG-20010904/DTD/svg10.dtd">
<svg version="1.0" xmlns="http://www.w3.org/2000/svg"
 width="32.000000pt" height="32.000000pt" viewBox="0 0 32.000000 32.000000"
 preserveAspectRatio="xMidYMid meet">
<metadata>
Created by potrace 1.16, written by Peter Selinger 2001-2019
</metadata>
<g transform="translate(0.000000,32.000000) scale(0.100000,-0.100000)"
fill="#000000" stroke="none">
<path fill="#000000" stroke="none" d="M0 160 c0 -169 -1 -167 48 -154 14 4
22 14 22 28 0 11 5 28 10 36 8 12 3 16 -23 20 l-32 5 -3 88 -3 87 127 0 127 0
-6 -40 c-4 -30 -2 -40 9 -40 8 0 14 -9 14 -20 0 -11 -6 -20 -14 -20 -8 0 -17
-4 -20 -9 -4 -5 3 -7 13 -4 16 4 21 -2 26 -31 14 -73 25 -33 25 89 l0 125
-160 0 -160 0 0 -160z"/>
<path fill="#000000" stroke="none" d="M115 251 c-4 -7 4 -11 20 -11 19 0 25
-5 23 -17 -2 -12 4 -18 18 -19 18 -1 21 3 15 25 -6 20 -15 27 -38 29 -17 2
-34 -2 -38 -7z"/>
<path fill="#000000" stroke="none" d="M113 207 c0 -21 2 -25 12 -17 8 7 15 7
19 1 3 -5 1 -11 -6 -13 -7 -3 -8 -9 -3 -18 6 -10 10 -8 17 9 9 26 3 41 -17 41
-7 0 -15 6 -18 13 -2 6 -4 0 -4 -16z"/>
<path fill="#000000" stroke="none" d="M215 200 c3 -5 11 -10 16 -10 6 0 7 5
4 10 -3 6 -11 10 -16 10 -6 0 -7 -4 -4 -10z"/>
<path fill="#000000" stroke="none" d="M86 161 c-4 -5 -2 -12 3 -15 5 -4 12
-2 15 3 4 5 2 12 -3 15 -5 4 -12 2 -15 -3z"/>
<path fill="#000000" stroke="none" d="M176 161 c-4 -5 -2 -12 3 -15 5 -4 12
-2 15 3 4 5 2 12 -3 15 -5 4 -12 2 -15 -3z"/>
<path fill="#000000" stroke="none" d="M30 135 c0 -8 4 -15 9 -15 5 0 11 7 15
15 3 9 0 15 -9 15 -8 0 -15 -7 -15 -15z"/>
<path fill="#000000" stroke="none" d="M216 141 c-4 -5 -2 -12 3 -15 5 -4 12
-2 15 3 4 5 2 12 -3 15 -5 4 -12 2 -15 -3z"/>
<path fill="#000000" stroke="none" d="M124 99 c-10 -17 13 -36 27 -22 12 12
4 33 -11 33 -5 0 -12 -5 -16 -11z"/>
<path fill="#ffffff" stroke="none" d="M150 90 c0 -5 -4 -10 -10 -10 -5 0 -10
5 -10 10 0 6 5 10 10 10 6 0 10 -4 10 -10z"/>
<path fill="#000000" stroke="none" d="M229 93 c-10 -11 -10 -14 -1 -9 7 4 12
2 12 -4 0 -6 5 -8 10 -5 12 8 13 35 1 35 -5 0 -15 -8 -22 -17z"/>
<path fill="#000000" stroke="none" d="M267 90 c-3 -13 0 -20 9 -20 8 0 14 9
14 20 0 11 -4 20 -9 20 -5 0 -11 -9 -14 -20z"/>
<path fill="#000000" stroke="none" d="M305 10 c-3 -5 -1 -10 4 -10 6 0 11 5
11 10 0 6 -2 10 -4 10 -3 0 -8 -4 -11 -10z"/>
</g>
</svg>
