<?xml version="1.0" standalone="no"?>
<!DOCTYPE svg PUBLIC "-//W3C//DTD SVG 20010904//EN"
 "http://www.w3.org/TR/2001/REC-SVG-20010904/DTD/svg10.dtd">
<svg version="1.0" xmlns="http://www.w3.org/2000/svg"
 width="32.000000pt" height="32.000000pt" viewBox="0 0 32.000000 32.000000"
 preserveAspectRatio="xMidYMid meet">
<metadata>
Created by potrace 1.16, written by Peter Selinger 2001-2019
</metadata>
<g transform="translate(0.000000,32.000000) scale(0.100000,-0.100000)"
fill="#000000" stroke="none">
<path fill="#000000" stroke="none" d="M137 303 c-4 -3 -7 -15 -7 -26 0 -16
-3 -17 -15 -7 -12 10 -15 10 -15 -4 0 -20 0 -20 -39 0 -18 9 -35 14 -38 11
-11 -11 23 -42 47 -43 43 -3 45 -4 25 -17 -68 -40 -85 -53 -85 -64 0 -13 59
-45 70 -38 12 7 51 -45 43 -58 -3 -6 -1 -7 5 -3 7 4 12 17 13 29 1 17 3 14 10
-10 12 -41 28 -52 24 -16 -4 35 11 64 28 57 27 -10 107 53 107 83 0 18 -76 34
-107 22 -22 -8 -25 -8 -16 2 6 6 26 12 42 13 17 1 31 4 31 8 0 3 3 13 6 22 8
21 -14 21 -38 -1 -18 -16 -18 -16 -12 1 6 17 5 17 -17 6 -22 -12 -23 -12 -10
3 7 10 10 17 5 17 -5 0 -2 5 6 10 11 7 6 10 -21 10 -20 0 -39 -3 -42 -7z"/>
<path fill="#ffffff" stroke="none" d="M189 156 c-3 -3 -11 5 -18 17 -13 21
-12 21 5 5 10 -10 16 -20 13 -22z"/>
</g>
</svg>
