<?xml version="1.0" standalone="no"?>
<!DOCTYPE svg PUBLIC "-//W3C//DTD SVG 20010904//EN"
 "http://www.w3.org/TR/2001/REC-SVG-20010904/DTD/svg10.dtd">
<svg version="1.0" xmlns="http://www.w3.org/2000/svg"
 width="32.000000pt" height="32.000000pt" viewBox="0 0 32.000000 32.000000"
 preserveAspectRatio="xMidYMid meet">
<metadata>
Created by potrace 1.16, written by Peter Selinger 2001-2019
</metadata>
<g transform="translate(0.000000,32.000000) scale(0.100000,-0.100000)"
fill="#000000" stroke="none">
<path fill="#000000" stroke="none" d="M55 289 c-10 -15 5 -49 20 -49 8 0 17
11 21 25 3 14 10 22 15 19 5 -3 4 -14 -2 -25 -6 -12 -8 -23 -6 -26 8 -8 29 37
24 51 -6 15 -64 19 -72 5z"/>
<path fill="#000000" stroke="none" d="M143 273 c2 -23 7 -28 29 -29 15 -1 25
3 22 7 -2 4 -13 6 -24 4 -13 -3 -17 1 -13 11 3 7 10 11 15 8 6 -4 9 -1 6 7 -3
8 -12 15 -21 17 -12 2 -15 -4 -14 -25z"/>
<path fill="#000000" stroke="none" d="M235 290 c-11 -17 5 -50 23 -47 21 3
26 12 19 37 -5 21 -31 27 -42 10z"/>
<path fill="#ffffff" stroke="none" d="M274 264 c3 -7 -2 -11 -12 -10 -9 2
-17 7 -19 13 -5 14 25 12 31 -3z"/>
<path fill="#000000" stroke="none" d="M0 240 c0 -14 7 -20 22 -20 20 0 21 1
3 20 -10 11 -20 20 -22 20 -1 0 -3 -9 -3 -20z"/>
<path fill="#000000" stroke="none" d="M141 211 c-8 -14 -7 -22 4 -31 13 -10
13 -16 3 -29 -12 -14 -11 -14 4 -3 9 8 23 10 29 6 7 -4 9 -3 5 4 -3 5 -1 12 5
14 16 5 -7 58 -25 58 -9 0 -20 -9 -25 -19z"/>
<path fill="#000000" stroke="none" d="M256 217 c3 -10 9 -15 12 -12 3 3 0 11
-7 18 -10 9 -11 8 -5 -6z"/>
<path fill="#000000" stroke="none" d="M0 173 l1 -38 19 35 c25 47 25 30 0
-20 -11 -22 -20 -41 -20 -43 0 -2 13 -2 29 1 28 4 29 6 24 41 -7 55 -11 61
-33 61 -17 0 -20 -6 -20 -37z"/>
<path fill="#000000" stroke="none" d="M217 177 c-3 -9 -2 -17 3 -17 6 0 10
-11 10 -25 0 -14 5 -25 10 -25 12 0 12 6 -4 49 -10 27 -14 31 -19 18z"/>
<path fill="#000000" stroke="none" d="M297 177 c-4 -10 -2 -17 3 -17 6 0 11
-12 11 -27 1 -21 3 -23 6 -8 2 12 0 32 -5 45 -7 19 -10 20 -15 7z"/>
<path fill="#000000" stroke="none" d="M100 160 c-7 -14 -7 -20 0 -20 5 0 10
7 10 16 0 10 5 14 16 10 8 -3 12 -2 9 4 -10 16 -23 12 -35 -10z"/>
<path fill="#000000" stroke="none" d="M60 145 c0 -8 5 -15 10 -15 6 0 10 7
10 15 0 8 -4 15 -10 15 -5 0 -10 -7 -10 -15z"/>
<path fill="#000000" stroke="none" d="M261 138 c-1 -16 4 -28 9 -28 12 0 12
8 0 35 -8 18 -9 17 -9 -7z"/>
<path fill="#000000" stroke="none" d="M200 141 c0 -7 -4 -10 -8 -7 -4 2 -9
-8 -10 -24 -1 -16 2 -31 7 -34 10 -6 26 63 17 72 -3 3 -6 0 -6 -7z"/>
<path fill="#000000" stroke="none" d="M157 127 c-4 -10 -7 -26 -7 -35 1 -15
2 -15 11 1 6 10 9 25 7 35 -3 16 -4 15 -11 -1z"/>
<path fill="#000000" stroke="none" d="M73 65 c0 -33 2 -45 4 -27 2 18 2 45 0
60 -2 15 -4 0 -4 -33z"/>
<path fill="#000000" stroke="none" d="M103 75 c0 -22 2 -30 4 -17 2 12 2 30
0 40 -3 9 -5 -1 -4 -23z"/>
<path fill="#000000" stroke="none" d="M207 43 c-10 -9 -9 -33 1 -33 4 0 8 9
9 20 2 21 0 24 -10 13z"/>
<path fill="#000000" stroke="none" d="M139 23 c-12 -16 -12 -17 2 -6 9 7 19
10 22 6 4 -3 7 -1 7 5 0 17 -16 15 -31 -5z"/>
</g>
</svg>
