<?xml version="1.0" standalone="no"?>
<!DOCTYPE svg PUBLIC "-//W3C//DTD SVG 20010904//EN"
 "http://www.w3.org/TR/2001/REC-SVG-20010904/DTD/svg10.dtd">
<svg version="1.0" xmlns="http://www.w3.org/2000/svg"
 width="32.000000pt" height="32.000000pt" viewBox="0 0 32.000000 32.000000"
 preserveAspectRatio="xMidYMid meet">
<metadata>
Created by potrace 1.16, written by Peter Selinger 2001-2019
</metadata>
<g transform="translate(0.000000,32.000000) scale(0.100000,-0.100000)"
fill="#000000" stroke="none">
<path fill="#000000" stroke="none" d="M56 285 c-3 -8 0 -17 6 -21 6 -4 8 -3
4 4 -3 5 -1 12 6 14 8 3 9 6 1 11 -6 4 -13 0 -17 -8z"/>
<path fill="#000000" stroke="none" d="M140 290 c0 -5 5 -10 11 -10 5 0 7 5 4
10 -3 6 -8 10 -11 10 -2 0 -4 -4 -4 -10z"/>
<path fill="#000000" stroke="none" d="M237 286 c-4 -10 -1 -13 8 -9 8 3 12 9
9 14 -7 12 -11 11 -17 -5z"/>
<path fill="#000000" stroke="none" d="M152 211 c-8 -4 -10 -15 -6 -26 7 -17
8 -16 16 5 10 27 7 32 -10 21z"/>
<path fill="#000000" stroke="none" d="M60 149 c0 -5 5 -7 10 -4 6 3 10 8 10
11 0 2 -4 4 -10 4 -5 0 -10 -5 -10 -11z"/>
</g>
</svg>
