<?xml version="1.0" standalone="no"?>
<!DOCTYPE svg PUBLIC "-//W3C//DTD SVG 20010904//EN"
 "http://www.w3.org/TR/2001/REC-SVG-20010904/DTD/svg10.dtd">
<svg version="1.0" xmlns="http://www.w3.org/2000/svg"
 width="32.000000pt" height="32.000000pt" viewBox="0 0 32.000000 32.000000"
 preserveAspectRatio="xMidYMid meet">
<metadata>
Created by potrace 1.16, written by Peter Selinger 2001-2019
</metadata>
<g transform="translate(0.000000,32.000000) scale(0.100000,-0.100000)"
fill="#000000" stroke="none">
<path fill="#000000" stroke="none" d="M55 289 c-10 -15 5 -49 20 -49 8 0 17
11 21 25 3 14 10 22 15 19 5 -3 4 -14 -2 -25 -6 -12 -8 -23 -6 -26 8 -8 29 37
24 51 -6 15 -64 19 -72 5z"/>
<path fill="#000000" stroke="none" d="M143 274 c0 -24 1 -26 12 -11 6 9 16
13 20 9 4 -4 6 0 3 8 -3 8 -12 16 -20 18 -11 2 -15 -5 -15 -24z"/>
<path fill="#000000" stroke="none" d="M237 294 c-4 -4 -7 -14 -7 -23 0 -13 2
-13 9 -3 10 17 22 14 39 -7 10 -13 11 -12 3 9 -8 25 -31 37 -44 24z"/>
<path fill="#000000" stroke="none" d="M142 213 c-7 -13 -6 -22 3 -30 11 -10
15 -10 19 0 3 9 7 8 16 -3 9 -12 10 -9 8 15 -3 35 -32 46 -46 18z"/>
<path fill="#000000" stroke="none" d="M256 217 c3 -10 9 -15 12 -12 3 3 0 11
-7 18 -10 9 -11 8 -5 -6z"/>
<path fill="#000000" stroke="none" d="M60 145 c0 -8 5 -15 10 -15 6 0 10 7
10 15 0 8 -4 15 -10 15 -5 0 -10 -7 -10 -15z"/>
<path fill="#000000" stroke="none" d="M230 120 c0 -5 5 -10 10 -10 6 0 10 5
10 10 0 6 -4 10 -10 10 -5 0 -10 -4 -10 -10z"/>
<path fill="#000000" stroke="none" d="M260 120 c0 -5 5 -10 10 -10 6 0 10 5
10 10 0 6 -4 10 -10 10 -5 0 -10 -4 -10 -10z"/>
<path fill="#000000" stroke="none" d="M73 65 c0 -33 2 -45 4 -27 2 18 2 45 0
60 -2 15 -4 0 -4 -33z"/>
<path fill="#000000" stroke="none" d="M103 75 c0 -22 2 -30 4 -17 2 12 2 30
0 40 -3 9 -5 -1 -4 -23z"/>
<path fill="#000000" stroke="none" d="M205 40 c-3 -5 -1 -10 4 -10 6 0 11 5
11 10 0 6 -2 10 -4 10 -3 0 -8 -4 -11 -10z"/>
<path fill="#000000" stroke="none" d="M155 30 c3 -5 8 -10 11 -10 2 0 4 5 4
10 0 6 -5 10 -11 10 -5 0 -7 -4 -4 -10z"/>
</g>
</svg>
