<?xml version="1.0" standalone="no"?>
<!DOCTYPE svg PUBLIC "-//W3C//DTD SVG 20010904//EN"
 "http://www.w3.org/TR/2001/REC-SVG-20010904/DTD/svg10.dtd">
<svg version="1.0" xmlns="http://www.w3.org/2000/svg"
 width="32.000000pt" height="32.000000pt" viewBox="0 0 32.000000 32.000000"
 preserveAspectRatio="xMidYMid meet">
<metadata>
Created by potrace 1.16, written by Peter Selinger 2001-2019
</metadata>
<g transform="translate(0.000000,32.000000) scale(0.100000,-0.100000)"
fill="#000000" stroke="none">
<path fill="#000000" stroke="none" d="M0 298 c0 -12 11 -33 24 -47 18 -19 25
-41 28 -83 4 -55 4 -57 -21 -60 -24 -3 -26 -7 -29 -56 l-3 -52 163 1 c90 1
155 3 145 6 -9 2 -15 9 -11 14 3 5 10 7 15 4 5 -4 9 14 8 42 -1 26 -3 40 -6
31 -2 -10 -13 -18 -24 -18 -20 0 -26 15 -9 25 16 10 11 55 -9 83 -27 39 -36
72 -19 72 18 0 38 -20 38 -38 0 -7 7 -20 15 -28 13 -14 15 -12 14 18 0 27 -2
30 -9 13 -7 -17 -9 -15 -9 12 -1 17 3 35 9 38 6 3 10 15 10 26 0 18 -8 19
-160 19 -158 0 -160 0 -160 -22z"/>
<path fill="#ffffff" stroke="none" d="M277 304 c-3 -3 -1 -18 4 -33 9 -25 8
-25 -6 -6 -18 22 -24 23 -36 3 -7 -10 -9 -9 -9 5 0 10 10 22 23 27 27 11 32
12 24 4z"/>
<path fill="#ffffff" stroke="none" d="M127 284 c2 -7 0 -22 -7 -33 -7 -14 -7
-21 0 -21 5 0 10 -5 10 -12 0 -8 -6 -7 -16 4 -13 12 -14 20 -5 36 6 12 7 23 2
26 -5 3 -12 -5 -15 -19 -4 -14 -13 -25 -21 -25 -15 0 -30 34 -20 49 8 14 66
10 72 -5z"/>
<path fill="#ffffff" stroke="none" d="M178 280 c3 -8 1 -12 -3 -8 -4 4 -14 0
-20 -9 -11 -15 -12 -13 -12 11 0 19 4 26 15 24 8 -2 17 -10 20 -18z"/>
<path fill="#ffffff" stroke="none" d="M198 248 c7 -7 12 -18 12 -25 0 -8 9
-23 20 -35 20 -22 27 -74 11 -80 -12 -4 -17 -69 -7 -86 5 -8 0 -12 -13 -12
-13 0 -21 7 -21 17 0 15 -1 15 -18 0 -22 -20 -57 -23 -45 -4 13 21 12 115 -2
127 -20 17 -33 -14 -29 -69 1 -25 1 -35 -2 -21 -11 61 -15 70 -29 70 -8 0 -15
7 -15 15 0 8 6 15 14 15 21 0 66 40 66 59 0 19 18 41 35 41 6 0 16 -5 23 -12z"/>
<path fill="#ffffff" stroke="none" d="M228 248 c7 -7 12 -18 12 -25 0 -8 9
-23 20 -35 20 -22 28 -78 11 -78 -5 0 -12 -10 -16 -22 -4 -15 -8 -19 -12 -10
-3 8 0 19 6 25 13 13 15 59 2 72 -5 6 -18 27 -30 48 -20 36 -17 49 7 25z"/>
<path fill="#ffffff" stroke="none" d="M140 122 c0 -9 -5 -24 -10 -32 -7 -11
-10 -5 -10 23 0 23 4 36 10 32 6 -3 10 -14 10 -23z"/>
<path fill="#ffffff" stroke="none" d="M77 38 c-2 -18 -4 -6 -4 27 0 33 2 48
4 33 2 -15 2 -42 0 -60z"/>
</g>
</svg>
