<?xml version="1.0" standalone="no"?>
<!DOCTYPE svg PUBLIC "-//W3C//DTD SVG 20010904//EN"
 "http://www.w3.org/TR/2001/REC-SVG-20010904/DTD/svg10.dtd">
<svg version="1.0" xmlns="http://www.w3.org/2000/svg"
 width="32.000000pt" height="32.000000pt" viewBox="0 0 32.000000 32.000000"
 preserveAspectRatio="xMidYMid meet">
<metadata>
Created by potrace 1.16, written by Peter Selinger 2001-2019
</metadata>
<g transform="translate(0.000000,32.000000) scale(0.100000,-0.100000)"
fill="#000000" stroke="none">
<path fill="#000000" stroke="none" d="M0 160 l0 -160 160 0 160 0 0 160 0
160 -160 0 -160 0 0 -160z"/>
<path fill="#ffffff" stroke="none" d="M224 289 c-3 -5 -9 -7 -14 -4 -5 3 -12
0 -16 -6 -4 -7 -3 -9 3 -6 6 4 18 1 27 -6 13 -10 4 -12 -54 -11 -43 0 -75 6
-83 13 -10 11 -7 12 11 6 17 -5 27 -2 36 11 9 11 21 15 40 12 14 -3 29 -1 32
4 3 4 10 6 15 2 5 -3 7 -10 3 -15z"/>
<path fill="#ffffff" stroke="none" d="M160 239 c0 -6 7 -8 16 -5 8 3 12 2 9
-4 -3 -6 -12 -10 -20 -10 -8 0 -16 -4 -19 -8 -6 -10 40 -10 50 1 4 4 14 7 23
7 10 -1 5 -7 -12 -16 -15 -8 -31 -13 -35 -10 -5 3 -8 -4 -8 -14 1 -11 -3 -20
-9 -20 -17 -2 -29 26 -20 46 4 11 7 25 6 32 -1 6 3 12 9 12 5 0 10 -5 10 -11z"/>
<path fill="#ffffff" stroke="none" d="M260 118 c0 -16 -3 -19 -11 -11 -6 6
-11 17 -13 26 -1 8 -8 22 -15 31 -7 8 -10 20 -6 26 9 15 45 -43 45 -72z"/>
<path fill="#ffffff" stroke="none" d="M104 158 c-23 -28 -54 -35 -54 -13 0 9
9 15 24 15 13 0 27 7 30 16 4 9 9 14 12 11 4 -3 -2 -16 -12 -29z"/>
<path fill="#ffffff" stroke="none" d="M186 131 c14 -1 36 -50 28 -63 -3 -5
-15 5 -26 22 -16 27 -21 30 -34 19 -9 -7 -21 -25 -26 -39 -15 -36 -22 -7 -8
34 11 33 12 34 66 27z"/>
</g>
</svg>
