<?xml version="1.0" standalone="no"?>
<!DOCTYPE svg PUBLIC "-//W3C//DTD SVG 20010904//EN"
 "http://www.w3.org/TR/2001/REC-SVG-20010904/DTD/svg10.dtd">
<svg version="1.0" xmlns="http://www.w3.org/2000/svg"
 width="32.000000pt" height="32.000000pt" viewBox="0 0 32.000000 32.000000"
 preserveAspectRatio="xMidYMid meet">
<metadata>
Created by potrace 1.16, written by Peter Selinger 2001-2019
</metadata>
<g transform="translate(0.000000,32.000000) scale(0.100000,-0.100000)"
fill="#000000" stroke="none">
<path fill="#000000" stroke="none" d="M85 298 c-28 -16 -35 -28 -34 -63 0
-29 28 -94 29 -66 0 7 6 11 14 8 7 -3 23 1 35 9 20 14 30 6 14 -10 -5 -4 -9
-12 -9 -17 -1 -5 -2 -12 -3 -15 0 -4 -8 -1 -16 6 -13 11 -18 10 -29 -6 -12
-15 -16 -16 -30 -5 -11 10 -16 10 -16 2 0 -7 -4 -9 -10 -6 -6 3 -10 2 -10 -4
0 -5 6 -14 14 -18 7 -4 16 -15 19 -23 4 -12 6 -11 6 3 1 10 6 15 11 12 6 -3
10 -1 10 6 0 7 3 9 7 6 3 -4 12 -2 20 5 21 17 28 1 9 -20 -10 -12 -14 -26 -10
-38 4 -10 4 -16 -1 -12 -9 9 -35 -9 -35 -23 0 -5 12 -9 26 -9 18 0 25 4 21 14
-3 8 1 22 8 33 13 17 14 16 15 -10 0 -24 4 -28 23 -25 17 2 23 11 28 43 5 34
14 23 10 -12 -1 -8 5 -10 13 -7 12 5 13 11 5 25 -5 10 -7 19 -3 19 4 0 0 8 -9
18 -13 15 -14 20 -2 36 13 18 15 18 21 2 5 -14 9 -15 15 -4 7 10 9 8 10 -7 1
-17 2 -16 9 5 5 17 8 -2 9 -59 1 -117 9 -98 12 32 2 59 6 107 10 107 4 0 6 8
4 18 -1 9 2 22 7 29 23 29 -28 46 -52 18 -15 -18 0 -20 20 -2 8 7 7 1 -3 -15
-13 -21 -14 -28 -5 -28 10 0 10 -2 -1 -9 -11 -7 -11 -9 0 -13 10 -3 9 -10 -4
-28 -14 -20 -17 -21 -17 -7 0 10 -4 15 -10 12 -6 -4 -10 5 -10 20 0 59 -82
103 -135 73z"/>
<path fill="#ffffff" stroke="none" d="M146 269 c4 -7 1 -10 -7 -7 -8 3 -26 1
-41 -3 -16 -4 -28 -4 -28 1 0 18 66 25 76 9z"/>
<path fill="#ffffff" stroke="none" d="M137 212 c-10 -10 -24 -19 -32 -19 -21
0 -13 20 9 23 10 1 20 5 24 8 14 15 13 4 -1 -12z"/>
<path fill="#000000" stroke="none" d="M206 43 c-15 -15 -4 -33 19 -33 14 0
25 4 25 10 0 12 -35 31 -44 23z"/>
</g>
</svg>
