<?xml version="1.0" standalone="no"?>
<!DOCTYPE svg PUBLIC "-//W3C//DTD SVG 20010904//EN"
 "http://www.w3.org/TR/2001/REC-SVG-20010904/DTD/svg10.dtd">
<svg version="1.0" xmlns="http://www.w3.org/2000/svg"
 width="32.000000pt" height="32.000000pt" viewBox="0 0 32.000000 32.000000"
 preserveAspectRatio="xMidYMid meet">
<metadata>
Created by potrace 1.16, written by Peter Selinger 2001-2019
</metadata>
<g transform="translate(0.000000,32.000000) scale(0.100000,-0.100000)"
fill="#000000" stroke="none">
<path fill="#000000" stroke="none" d="M0 160 l0 -160 160 0 160 0 0 160 0
160 -160 0 -160 0 0 -160z"/>
<path fill="#ffffff" stroke="none" d="M145 290 c-9 -14 18 -12 34 3 11 10 12
9 5 -3 -5 -8 -9 -19 -10 -25 0 -5 -2 -16 -2 -22 -1 -7 -9 -13 -18 -13 -11 0
-15 6 -11 20 3 10 0 21 -6 23 -10 3 -2 27 9 27 3 0 2 -4 -1 -10z"/>
<path fill="#ffffff" stroke="none" d="M182 208 c-17 -17 -15 -39 2 -32 11 4
13 0 9 -15 -3 -12 5 -39 20 -65 14 -25 22 -47 19 -50 -9 -10 -82 -7 -103 4
-23 13 -24 31 -4 70 9 18 13 40 9 56 l-6 25 -22 -20 c-23 -22 -63 -25 -63 -4
0 8 8 11 22 7 13 -3 27 2 39 15 13 14 31 21 55 21 27 0 32 -3 23 -12z"/>
<path fill="#ffffff" stroke="none" d="M243 174 c10 -13 17 -30 15 -36 -2 -6
-14 5 -26 25 -24 42 -17 49 11 11z"/>
<path fill="#ffffff" stroke="none" d="M140 25 c0 -9 -9 -15 -21 -15 -18 0
-19 2 -9 15 7 8 16 15 21 15 5 0 9 -7 9 -15z"/>
<path fill="#ffffff" stroke="none" d="M225 20 c3 -6 -3 -10 -14 -10 -12 0
-21 5 -21 10 0 13 27 13 35 0z"/>
</g>
</svg>
