<?xml version="1.0" standalone="no"?>
<!DOCTYPE svg PUBLIC "-//W3C//DTD SVG 20010904//EN"
 "http://www.w3.org/TR/2001/REC-SVG-20010904/DTD/svg10.dtd">
<svg version="1.0" xmlns="http://www.w3.org/2000/svg"
 width="32.000000pt" height="48.000000pt" viewBox="0 0 32.000000 48.000000"
 preserveAspectRatio="xMidYMid meet">
<metadata>
Created by potrace 1.16, written by Peter Selinger 2001-2019
</metadata>
<g transform="translate(0.000000,48.000000) scale(0.100000,-0.100000)"
fill="#000000" stroke="none">
<path fill="#000000" stroke="none" d="M0 464 c0 -14 3 -15 18 -3 9 7 19 15
21 16 2 2 -5 3 -17 3 -14 0 -22 -6 -22 -16z"/>
<path fill="#000000" stroke="none" d="M90 466 c18 -17 55 -22 92 -11 77 21
108 -20 124 -159 l11 -101 2 143 1 142 -122 0 c-106 0 -120 -2 -108 -14z"/>
<path fill="#000000" stroke="none" d="M0 403 c0 -14 1 -24 3 -22 1 2 8 11 15
20 10 14 10 18 -3 23 -11 4 -15 -1 -15 -21z"/>
<path fill="#000000" stroke="none" d="M204 384 c3 -9 6 -20 6 -26 0 -6 9 -8
20 -5 10 3 21 1 24 -4 2 -5 4 -5 3 2 -2 6 -7 10 -12 9 -5 -1 -12 8 -17 19 -4
12 -12 21 -19 21 -6 0 -8 -7 -5 -16z"/>
<path fill="#000000" stroke="none" d="M70 369 c0 -9 -9 -24 -20 -34 -16 -15
-22 -15 -35 -5 -13 11 -15 4 -15 -61 0 -69 1 -72 15 -52 13 19 13 26 3 43 -14
23 -7 32 52 71 19 13 21 18 12 35 -9 15 -11 16 -12 3z"/>
<path fill="#000000" stroke="none" d="M130 376 c0 -2 6 -16 14 -30 9 -18 15
-22 19 -13 2 7 -1 21 -8 30 -11 15 -25 23 -25 13z"/>
<path fill="#000000" stroke="none" d="M100 345 c6 -15 8 -38 5 -53 -5 -26 -5
-26 5 -4 10 25 4 68 -11 78 -5 3 -4 -7 1 -21z"/>
<path fill="#000000" stroke="none" d="M65 260 c-16 -18 -16 -20 -2 -20 10 0
17 -6 17 -12 0 -7 5 -5 11 5 6 10 6 23 1 32 -7 14 -11 13 -27 -5z"/>
<path fill="#000000" stroke="none" d="M260 249 c0 -5 5 -7 10 -4 6 3 10 8 10
11 0 2 -4 4 -10 4 -5 0 -10 -5 -10 -11z"/>
<path fill="#000000" stroke="none" d="M190 240 c8 -5 20 -10 25 -10 6 0 3 5
-5 10 -8 5 -19 10 -25 10 -5 0 -3 -5 5 -10z"/>
<path fill="#000000" stroke="none" d="M95 210 c-3 -5 -3 -14 0 -20 3 -5 -1
-10 -9 -10 -23 0 -19 -18 5 -25 23 -8 46 14 27 26 -7 4 -6 8 2 11 9 3 8 7 -3
16 -10 9 -17 10 -22 2z"/>
<path fill="#000000" stroke="none" d="M204 175 c-4 -8 -12 -15 -20 -15 -8 0
-14 -5 -14 -10 0 -15 36 6 44 25 3 8 3 15 0 15 -2 0 -7 -7 -10 -15z"/>
<path fill="#000000" stroke="none" d="M45 170 c-4 -7 -16 -9 -27 -7 -18 5
-19 0 -16 -71 3 -76 3 -77 31 -79 15 -1 27 2 27 7 0 4 -11 7 -25 5 -18 -2 -23
1 -15 10 12 14 43 135 37 142 -3 2 -8 -1 -12 -7z"/>
<path fill="#000000" stroke="none" d="M281 133 c-18 -18 -32 -35 -30 -37 2
-1 19 -13 37 -25 l32 -22 0 60 c0 34 -1 60 -2 60 -2 -1 -18 -17 -37 -36z"/>
<path fill="#000000" stroke="none" d="M244 144 c-18 -14 -18 -15 4 -4 12 6
22 13 22 15 0 8 -5 6 -26 -11z"/>
<path fill="#000000" stroke="none" d="M60 137 c0 -8 6 -18 13 -20 9 -4 8 -6
-2 -6 -20 -1 7 -31 29 -31 28 0 32 13 8 27 l-23 12 25 1 c30 0 16 16 -22 25
-21 6 -28 4 -28 -8z"/>
<path fill="#000000" stroke="none" d="M46 75 c-3 -9 -6 -22 -5 -28 0 -7 5 -1
10 12 5 13 8 26 5 28 -2 2 -6 -3 -10 -12z"/>
<path fill="#000000" stroke="none" d="M170 61 c0 -5 7 -11 15 -15 8 -3 15 -1
15 3 0 5 -7 11 -15 15 -8 3 -15 1 -15 -3z"/>
<path fill="#000000" stroke="none" d="M85 33 c-3 -9 0 -20 7 -25 18 -11 68
-10 68 2 0 5 7 7 15 4 8 -4 15 -1 15 7 0 7 -2 10 -6 7 -3 -3 -25 0 -49 7 -38
12 -44 12 -50 -2z"/>
<path fill="#000000" stroke="none" d="M210 20 c0 -5 5 -10 11 -10 5 0 7 5 4
10 -3 6 -8 10 -11 10 -2 0 -4 -4 -4 -10z"/>
<path fill="#000000" stroke="none" d="M245 20 c3 -5 11 -10 16 -10 6 0 7 5 4
10 -3 6 -11 10 -16 10 -6 0 -7 -4 -4 -10z"/>
<path fill="#000000" stroke="none" d="M305 10 c-3 -5 -1 -10 4 -10 6 0 11 5
11 10 0 6 -2 10 -4 10 -3 0 -8 -4 -11 -10z"/>
</g>
</svg>
