<?xml version="1.0" standalone="no"?>
<!DOCTYPE svg PUBLIC "-//W3C//DTD SVG 20010904//EN"
 "http://www.w3.org/TR/2001/REC-SVG-20010904/DTD/svg10.dtd">
<svg version="1.0" xmlns="http://www.w3.org/2000/svg"
 width="32.000000pt" height="48.000000pt" viewBox="0 0 32.000000 48.000000"
 preserveAspectRatio="xMidYMid meet">
<metadata>
Created by potrace 1.16, written by Peter Selinger 2001-2019
</metadata>
<g transform="translate(0.000000,48.000000) scale(0.100000,-0.100000)"
fill="#000000" stroke="none">
<path fill="#000000" stroke="none" d="M2 427 c-1 -44 1 -47 13 -31 10 14 10
21 2 26 -8 5 -6 8 5 8 29 0 68 22 61 34 -5 7 -2 7 8 -1 18 -14 57 -18 92 -8
75 21 111 -25 121 -155 l7 -89 -35 -36 c-20 -20 -40 -33 -45 -30 -6 3 -12 1
-16 -5 -3 -5 -2 -10 4 -10 5 0 11 -7 13 -16 2 -11 12 -7 41 19 20 19 37 31 37
27 0 -5 -15 -20 -32 -35 -27 -21 -30 -27 -18 -35 8 -5 24 -16 35 -24 17 -13
17 -15 4 -16 -9 0 -22 7 -29 15 -7 8 -21 15 -31 15 -12 0 -19 7 -19 19 0 21
-17 37 -27 27 -4 -4 -1 -12 5 -18 7 -7 12 -20 12 -30 0 -20 27 -37 52 -33 17
3 46 -22 40 -34 -2 -3 1 -7 5 -8 6 -2 10 101 12 237 l2 241 -159 -2 -159 -3
-1 -49z"/>
<path fill="#ffffff" stroke="none" d="M45 461 c3 -5 0 -13 -6 -17 -8 -5 -9
-3 -4 6 6 10 4 12 -9 7 -10 -4 -15 -3 -11 3 8 13 22 13 30 1z"/>
<path fill="#000000" stroke="none" d="M177 443 c-4 -4 -29 -6 -55 -4 -54 2
-95 -22 -105 -60 -4 -16 -3 -19 6 -10 15 15 30 14 21 -1 -4 -7 2 -5 13 5 11 9
25 17 31 17 7 0 20 8 30 18 20 20 40 21 88 3 24 -9 33 -20 38 -43 4 -19 2 -36
-5 -42 -9 -8 -10 -7 -4 3 6 11 0 13 -28 9 -27 -3 -34 -1 -26 8 7 9 4 17 -11
27 l-21 14 23 6 c25 7 18 20 -12 22 -11 1 -20 -4 -20 -12 0 -7 -7 -13 -15 -13
-13 0 -12 -4 5 -22 11 -12 20 -30 20 -39 0 -10 3 -24 6 -33 4 -10 1 -16 -10
-16 -8 0 -20 -9 -26 -20 -6 -11 -8 -20 -4 -20 4 0 -3 -11 -15 -24 -23 -24 -66
-160 -56 -175 2 -5 -4 -11 -14 -14 -17 -4 -17 -2 -5 22 12 22 12 26 -1 29 -7
2 -11 10 -8 18 3 7 10 11 17 7 6 -4 5 0 -2 9 -11 13 -11 17 0 21 7 2 5 3 -5 1
-9 -1 -15 2 -11 7 3 5 14 9 25 9 11 0 19 7 19 17 0 13 -3 14 -12 5 -7 -7 -18
-12 -26 -12 -9 0 -2 10 14 23 16 12 33 21 38 19 5 -2 4 4 -4 12 -14 18 -36 21
-45 6 -3 -6 1 -7 9 -4 9 3 16 1 16 -6 0 -6 -5 -8 -12 -4 -7 4 -8 3 -4 -4 5 -8
2 -10 -8 -6 -19 7 -20 16 -5 31 8 8 7 17 -3 32 -14 24 -8 32 52 72 19 13 21
18 12 35 -9 15 -11 16 -12 3 0 -9 -9 -24 -20 -34 -16 -15 -23 -16 -33 -6 -9
10 -9 11 4 6 10 -4 20 -1 24 5 5 8 -1 11 -16 8 l-24 -3 0 -165 0 -165 40 -2
c22 -1 56 -5 76 -9 27 -4 38 -2 42 9 4 11 -5 18 -34 25 -41 10 -47 6 -26 -18
6 -8 0 -4 -15 9 -36 31 -28 42 19 25 21 -7 46 -13 57 -14 11 0 16 -5 13 -13
-4 -10 8 -13 44 -13 27 0 49 1 49 3 0 1 -15 9 -34 17 -22 9 -36 23 -40 41 -5
19 -11 25 -23 21 -13 -5 -14 -4 -3 9 10 12 10 18 0 30 -10 12 -8 20 9 41 16
21 19 30 10 41 -10 11 -14 11 -29 -2 -9 -8 -23 -15 -31 -15 -8 0 -4 6 9 16 22
15 22 41 0 28 -7 -4 -8 -2 -4 4 4 8 13 8 24 3 9 -5 25 -12 35 -15 23 -7 22
-41 -3 -66 -12 -12 -18 -25 -15 -30 9 -14 42 6 50 29 16 50 13 60 -20 90 -32
28 -33 29 -12 35 34 9 40 7 28 -8 -10 -12 -8 -17 9 -26 20 -11 21 -10 15 12
-5 17 -4 19 4 9 11 -17 6 -73 -10 -103 -14 -26 -6 -33 15 -12 47 46 54 90 23
137 -19 30 -21 38 -8 35 10 -3 11 0 11 42 0 17 -9 39 -20 50 -19 19 -69 27
-83 13z"/>
<path fill="#ffffff" stroke="none" d="M204 322 c3 -5 -1 -9 -9 -9 -8 0 -12 4
-9 9 3 4 7 8 9 8 2 0 6 -4 9 -8z"/>
<path fill="#000000" stroke="none" d="M203 386 c4 -10 7 -22 7 -27 0 -5 7 -9
15 -9 18 0 5 42 -15 48 -9 3 -11 -1 -7 -12z"/>
<path fill="#000000" stroke="none" d="M90 376 c0 -1 5 -16 10 -33 8 -23 7
-41 -5 -77 -17 -50 -13 -78 5 -32 5 15 10 31 10 35 0 5 7 14 15 21 20 17 19
53 -3 73 -17 16 -32 22 -32 13z"/>
<path fill="#000000" stroke="none" d="M56 311 c-38 -25 -41 -49 -9 -64 19 -9
26 -8 34 4 16 25 9 33 -13 13 -12 -10 -18 -14 -15 -7 4 6 -1 17 -10 23 -15 9
-15 10 6 4 17 -4 21 -3 16 6 -6 9 -4 11 5 5 11 -7 29 9 30 28 0 12 -13 8 -44
-12z"/>
</g>
</svg>
