<?xml version="1.0" standalone="no"?>
<!DOCTYPE svg PUBLIC "-//W3C//DTD SVG 20010904//EN"
 "http://www.w3.org/TR/2001/REC-SVG-20010904/DTD/svg10.dtd">
<svg version="1.0" xmlns="http://www.w3.org/2000/svg"
 width="32.000000pt" height="48.000000pt" viewBox="0 0 32.000000 48.000000"
 preserveAspectRatio="xMidYMid meet">
<metadata>
Created by potrace 1.16, written by Peter Selinger 2001-2019
</metadata>
<g transform="translate(0.000000,48.000000) scale(0.100000,-0.100000)"
fill="#000000" stroke="none">
<path fill="#000000" stroke="none" d="M19 460 c-22 -18 -23 -21 -8 -33 15
-11 15 -15 3 -32 -18 -25 -18 -49 1 -65 13 -10 19 -10 35 5 11 10 20 25 20 34
0 14 2 14 10 1 15 -23 13 -25 -30 -54 -43 -28 -49 -46 -25 -66 13 -11 20 -9
42 11 14 14 23 17 20 9 -10 -27 -25 -83 -41 -154 -9 -38 -23 -77 -31 -86 -23
-26 -19 -30 34 -30 49 0 72 12 50 26 -8 4 -9 3 -5 -4 4 -7 2 -12 -3 -12 -13 0
-13 3 -5 23 5 14 11 14 49 2 24 -7 46 -10 49 -7 4 3 6 0 6 -7 0 -8 -7 -11 -15
-7 -8 3 -15 1 -15 -5 0 -6 28 -9 71 -7 57 2 74 7 83 21 9 15 7 22 -13 38 -13
11 -31 24 -39 28 -13 7 -9 15 22 45 29 27 37 41 33 58 -3 13 -9 62 -13 110
-10 128 -46 173 -121 153 -37 -11 -75 -6 -94 11 -22 19 -43 18 -70 -6z"/>
<path fill="#ffffff" stroke="none" d="M228 379 c5 -11 12 -20 17 -19 5 1 10
-3 12 -9 1 -7 -1 -7 -3 -2 -3 5 -14 7 -24 4 -11 -3 -20 -1 -20 5 0 6 -3 17 -6
26 -3 9 -1 16 5 16 7 0 15 -9 19 -21z"/>
<path fill="#ffffff" stroke="none" d="M155 363 c7 -9 10 -23 8 -30 -4 -9 -10
-5 -19 13 -8 14 -14 28 -14 30 0 10 14 2 25 -13z"/>
<path fill="#ffffff" stroke="none" d="M114 312 c-1 -21 -9 -51 -18 -68 -10
-16 -14 -20 -11 -9 22 65 25 84 15 111 -9 24 -9 27 2 16 7 -7 12 -30 12 -50z"/>
<path fill="#ffffff" stroke="none" d="M170 270 c0 -13 -19 -22 -30 -15 -14 9
0 34 16 28 8 -3 14 -9 14 -13z"/>
<path fill="#ffffff" stroke="none" d="M216 253 c-10 -10 -19 5 -10 18 6 11 8
11 12 0 2 -7 1 -15 -2 -18z"/>
<path fill="#ffffff" stroke="none" d="M280 256 c0 -3 -4 -8 -10 -11 -5 -3
-10 -1 -10 4 0 6 5 11 10 11 6 0 10 -2 10 -4z"/>
<path fill="#ffffff" stroke="none" d="M148 232 c2 -7 -3 -12 -12 -12 -10 0
-13 -6 -10 -15 4 -9 0 -15 -7 -15 -10 0 -11 -2 -2 -8 20 -12 -2 -35 -26 -27
-24 7 -28 25 -5 25 8 0 12 4 9 10 -3 5 2 21 11 35 17 26 34 29 42 7z"/>
<path fill="#ffffff" stroke="none" d="M198 222 c-10 -2 -18 -8 -18 -13 0 -5
-5 -9 -12 -9 -6 0 -3 8 7 20 10 11 23 16 29 12 7 -4 5 -8 -6 -10z"/>
<path fill="#ffffff" stroke="none" d="M264 215 c-4 -8 -10 -15 -15 -15 -4 0
-6 7 -3 15 4 8 10 15 15 15 4 0 6 -7 3 -15z"/>
<path fill="#ffffff" stroke="none" d="M240 186 c0 -2 -7 -7 -16 -10 -8 -3
-12 -2 -9 4 6 10 25 14 25 6z"/>
<path fill="#ffffff" stroke="none" d="M270 155 c0 -2 -10 -9 -22 -15 -22 -11
-22 -10 -4 4 21 17 26 19 26 11z"/>
<path fill="#ffffff" stroke="none" d="M125 129 c5 -5 0 -9 -15 -9 l-25 -1 23
-12 c24 -14 20 -27 -8 -27 -22 0 -49 30 -29 31 10 0 11 2 2 6 -7 2 -13 12 -13
20 0 12 7 14 28 8 15 -3 31 -11 37 -16z"/>
<path fill="#ffffff" stroke="none" d="M51 59 c-5 -13 -10 -19 -10 -12 -1 15
10 45 15 40 3 -2 0 -15 -5 -28z"/>
<path fill="#ffffff" stroke="none" d="M200 49 c0 -4 -7 -6 -15 -3 -8 4 -15
10 -15 15 0 4 7 6 15 3 8 -4 15 -10 15 -15z"/>
<path fill="#ffffff" stroke="none" d="M60 19 c0 -4 -11 -6 -25 -6 -13 0 -22
3 -20 8 6 9 45 8 45 -2z"/>
<path fill="#ffffff" stroke="none" d="M225 20 c3 -5 1 -10 -4 -10 -6 0 -11 5
-11 10 0 6 2 10 4 10 3 0 8 -4 11 -10z"/>
<path fill="#ffffff" stroke="none" d="M265 20 c3 -5 2 -10 -4 -10 -5 0 -13 5
-16 10 -3 6 -2 10 4 10 5 0 13 -4 16 -10z"/>
</g>
</svg>
