<?xml version="1.0" standalone="no"?>
<!DOCTYPE svg PUBLIC "-//W3C//DTD SVG 20010904//EN"
 "http://www.w3.org/TR/2001/REC-SVG-20010904/DTD/svg10.dtd">
<svg version="1.0" xmlns="http://www.w3.org/2000/svg"
 width="32.000000pt" height="32.000000pt" viewBox="0 0 32.000000 32.000000"
 preserveAspectRatio="xMidYMid meet">
<metadata>
Created by potrace 1.16, written by Peter Selinger 2001-2019
</metadata>
<g transform="translate(0.000000,32.000000) scale(0.100000,-0.100000)"
fill="#000000" stroke="none">
<path fill="#000000" stroke="none" d="M13 303 c-12 -4 -19 -33 -8 -33 3 0 14
9 25 20 19 19 11 25 -17 13z"/>
<path fill="#000000" stroke="none" d="M98 299 c-10 -5 -18 -14 -18 -19 0 -17
15 -11 28 10 14 23 13 23 -10 9z"/>
<path fill="#000000" stroke="none" d="M148 303 c7 -3 16 -2 19 1 4 3 -2 6
-13 5 -11 0 -14 -3 -6 -6z"/>
<path fill="#000000" stroke="none" d="M136 275 c4 -8 7 -15 9 -15 2 0 5 7 9
15 3 9 0 15 -9 15 -9 0 -12 -6 -9 -15z"/>
<path fill="#000000" stroke="none" d="M36 271 c-3 -5 2 -15 11 -22 12 -10 14
-10 9 -1 -4 7 -2 12 4 12 6 0 8 5 5 10 -8 12 -22 13 -29 1z"/>
<path fill="#000000" stroke="none" d="M3 211 c1 -12 6 -20 12 -18 14 5 13 29
-2 34 -7 3 -11 -4 -10 -16z"/>
<path fill="#000000" stroke="none" d="M260 139 c-22 -18 -22 -19 -3 -10 12 6
25 16 28 21 9 15 3 12 -25 -11z"/>
</g>
</svg>
