<?xml version="1.0" standalone="no"?>
<!DOCTYPE svg PUBLIC "-//W3C//DTD SVG 20010904//EN"
 "http://www.w3.org/TR/2001/REC-SVG-20010904/DTD/svg10.dtd">
<svg version="1.0" xmlns="http://www.w3.org/2000/svg"
 width="32.000000pt" height="48.000000pt" viewBox="0 0 32.000000 48.000000"
 preserveAspectRatio="xMidYMid meet">
<metadata>
Created by potrace 1.16, written by Peter Selinger 2001-2019
</metadata>
<g transform="translate(0.000000,48.000000) scale(0.100000,-0.100000)"
fill="#000000" stroke="none">
<path fill="#000000" stroke="none" d="M109 471 c15 -10 89 -7 99 3 3 3 -21 6
-54 6 -39 0 -54 -3 -45 -9z"/>
<path fill="#000000" stroke="none" d="M99 458 c-1 -2 -3 -16 -4 -33 -2 -16
-4 -32 -5 -35 -1 -3 -2 -9 -1 -13 1 -5 -3 -6 -8 -3 -5 3 -20 -3 -34 -14 l-26
-20 -4 32 c-2 18 -4 -30 -5 -107 -1 -93 2 -135 8 -125 5 8 8 31 5 50 -2 19 -2
27 1 18 6 -21 15 -23 33 -5 10 10 11 9 6 -5 -4 -10 -12 -18 -17 -18 -7 0 -6
-5 1 -14 9 -10 8 -15 -4 -19 -8 -4 -12 -13 -9 -22 5 -12 25 -15 99 -15 88 0
93 -1 88 -20 -4 -17 -14 -20 -57 -21 -28 0 -61 -2 -73 -5 -12 -2 -23 2 -27 11
-9 24 -39 19 -33 -5 6 -22 -18 -29 -26 -7 -3 6 -6 -5 -6 -25 l-1 -38 161 0
160 0 -3 27 c-2 21 -10 29 -35 36 -41 12 -51 45 -17 57 26 10 33 30 11 30 -8
0 -14 7 -14 15 0 8 3 13 6 10 3 -3 11 5 18 17 12 19 13 20 9 3 -3 -11 -1 -27
4 -35 7 -10 10 27 10 113 l0 128 -37 -3 c-25 -2 -37 -8 -35 -16 1 -8 -2 -11
-8 -7 -6 3 -8 11 -5 16 4 5 -1 9 -10 9 -9 0 -13 4 -10 10 11 17 -13 46 -37 45
-36 0 -62 -29 -48 -55 6 -11 8 -20 6 -20 -15 0 -26 41 -16 60 7 14 7 20 0 20
-5 0 -11 -1 -11 -2z"/>
<path fill="#ffffff" stroke="none" d="M200 418 c0 -11 -38 -48 -50 -48 -5 0
-2 9 8 20 9 12 18 25 18 30 1 6 2 16 3 23 1 8 4 7 11 -3 5 -8 10 -18 10 -22z"/>
<path fill="#000000" stroke="none" d="M0 425 c0 -8 3 -15 6 -15 3 0 12 7 20
15 14 13 13 15 -5 15 -12 0 -21 -6 -21 -15z"/>
<path fill="#000000" stroke="none" d="M257 423 c7 -19 53 -17 53 2 0 11 -9
15 -29 13 -19 -1 -27 -7 -24 -15z"/>
<path fill="#000000" stroke="none" d="M296 132 c-2 -4 2 -16 10 -27 13 -18
14 -18 14 8 0 25 -13 36 -24 19z"/>
</g>
</svg>
