<?xml version="1.0" standalone="no"?>
<!DOCTYPE svg PUBLIC "-//W3C//DTD SVG 20010904//EN"
 "http://www.w3.org/TR/2001/REC-SVG-20010904/DTD/svg10.dtd">
<svg version="1.0" xmlns="http://www.w3.org/2000/svg"
 width="32.000000pt" height="48.000000pt" viewBox="0 0 32.000000 48.000000"
 preserveAspectRatio="xMidYMid meet">
<metadata>
Created by potrace 1.16, written by Peter Selinger 2001-2019
</metadata>
<g transform="translate(0.000000,48.000000) scale(0.100000,-0.100000)"
fill="#000000" stroke="none">
<path fill="#000000" stroke="none" d="M113 469 c9 -5 22 -7 27 -4 13 8 46
-11 54 -30 13 -36 -30 -73 -64 -55 -24 13 -32 37 -19 62 9 16 8 19 -3 16 -7
-3 -13 -17 -13 -32 -1 -20 -11 -37 -35 -56 l-35 -29 -6 32 c-4 18 -7 -31 -8
-108 0 -94 3 -135 9 -125 5 8 7 29 4 46 -3 18 -1 35 5 38 5 4 7 14 4 24 -4 9
5 4 19 -13 20 -23 23 -33 15 -46 -6 -10 -16 -15 -22 -11 -5 3 -4 -1 3 -10 10
-13 10 -17 -3 -21 -8 -4 -12 -13 -9 -22 5 -11 21 -15 73 -14 48 1 59 3 41 9
-17 5 -19 8 -7 9 9 1 26 -4 36 -11 23 -14 53 -4 45 16 -3 8 -1 17 4 20 11 7
25 -21 17 -35 -4 -5 3 -5 16 0 27 9 36 28 16 33 -11 2 -10 9 5 33 12 18 17 22
14 10 -3 -11 -1 -27 4 -35 7 -10 10 27 10 113 l0 128 -37 -3 c-31 -2 -37 -7
-35 -22 3 -15 1 -16 -11 -5 -11 10 -12 16 -3 21 7 5 4 8 -7 8 -10 0 -15 5 -12
10 4 6 0 22 -9 35 -14 22 -14 24 2 28 9 3 -10 5 -43 6 -45 0 -56 -2 -42 -10z"/>
<path fill="#ffffff" stroke="none" d="M93 375 c-3 -9 -8 -14 -10 -11 -3 3 -2
9 2 15 9 16 15 13 8 -4z"/>
<path fill="#ffffff" stroke="none" d="M54 324 c3 -8 2 -12 -4 -9 -6 3 -10 10
-10 16 0 14 7 11 14 -7z"/>
<path fill="#ffffff" stroke="none" d="M105 314 c9 -15 12 -23 6 -20 -11 7
-35 46 -28 46 3 0 12 -12 22 -26z"/>
<path fill="#ffffff" stroke="none" d="M230 326 c0 -2 -8 -10 -17 -17 -16 -13
-17 -12 -4 4 13 16 21 21 21 13z"/>
<path fill="#ffffff" stroke="none" d="M254 289 c-10 -11 -28 -25 -39 -31 -11
-6 -4 4 15 20 41 36 51 41 24 11z"/>
<path fill="#ffffff" stroke="none" d="M113 251 c-2 -3 -16 8 -31 24 l-27 28
31 -24 c17 -13 30 -26 27 -28z"/>
<path fill="#ffffff" stroke="none" d="M173 283 c3 -5 -8 -8 -23 -8 -15 0 -26
3 -23 8 2 4 13 7 23 7 10 0 21 -3 23 -7z"/>
<path fill="#ffffff" stroke="none" d="M160 240 c0 -5 -4 -10 -10 -10 -5 0
-10 5 -10 10 0 6 5 10 10 10 6 0 10 -4 10 -10z"/>
<path fill="#ffffff" stroke="none" d="M290 240 c0 -5 -2 -10 -4 -10 -3 0 -8
5 -11 10 -3 6 -1 10 4 10 6 0 11 -4 11 -10z"/>
<path fill="#ffffff" stroke="none" d="M271 198 c-10 -11 -11 -10 -6 5 6 13 2
17 -16 17 -19 0 -21 2 -9 10 22 14 49 -15 31 -32z"/>
<path fill="#ffffff" stroke="none" d="M164 202 c2 -4 -4 -8 -14 -8 -10 0 -16
4 -14 8 3 4 9 8 14 8 5 0 11 -4 14 -8z"/>
<path fill="#ffffff" stroke="none" d="M269 173 c2 -2 0 -3 -6 -3 -6 0 -21 9
-34 21 l-24 20 30 -17 c17 -10 32 -19 34 -21z"/>
<path fill="#ffffff" stroke="none" d="M110 166 c0 -2 -8 -10 -17 -17 -16 -13
-17 -12 -4 4 13 16 21 21 21 13z"/>
<path fill="#000000" stroke="none" d="M124 429 c-10 -17 13 -36 27 -22 12 12
4 33 -11 33 -5 0 -12 -5 -16 -11z"/>
<path fill="#000000" stroke="none" d="M30 205 c0 -16 16 -20 24 -6 3 5 -1 11
-9 15 -9 3 -15 0 -15 -9z"/>
<path fill="#000000" stroke="none" d="M1 38 l-1 -38 160 0 160 0 0 25 c0 18
-7 28 -26 35 -34 13 -184 13 -184 0 0 -5 5 -10 10 -10 6 0 10 -5 10 -12 0 -6
-8 -3 -20 7 -15 13 -29 16 -59 11 -27 -4 -41 -2 -44 7 -3 6 -6 -5 -6 -25z"/>
</g>
</svg>
