<?xml version="1.0" standalone="no"?>
<!DOCTYPE svg PUBLIC "-//W3C//DTD SVG 20010904//EN"
 "http://www.w3.org/TR/2001/REC-SVG-20010904/DTD/svg10.dtd">
<svg version="1.0" xmlns="http://www.w3.org/2000/svg"
 width="32.000000pt" height="48.000000pt" viewBox="0 0 32.000000 48.000000"
 preserveAspectRatio="xMidYMid meet">
<metadata>
Created by potrace 1.16, written by Peter Selinger 2001-2019
</metadata>
<g transform="translate(0.000000,48.000000) scale(0.100000,-0.100000)"
fill="#000000" stroke="none">
<path fill="#000000" stroke="none" d="M108 473 c10 -4 9 -8 -5 -19 -10 -7
-13 -14 -7 -14 6 0 17 7 24 15 16 20 39 19 64 -2 18 -15 19 -16 8 -1 -11 14
-10 17 5 21 10 3 -9 5 -42 5 -33 0 -54 -2 -47 -5z"/>
<path fill="#000000" stroke="none" d="M127 433 c-12 -11 -8 -23 8 -23 8 0 15
7 15 15 0 16 -12 20 -23 8z"/>
<path fill="#000000" stroke="none" d="M12 265 c-1 -93 2 -135 8 -125 5 8 7
29 4 46 -3 18 -1 34 4 38 6 3 8 16 4 28 -3 14 -2 19 7 14 6 -4 9 -12 6 -17 -4
-5 1 -9 10 -9 10 0 13 -5 9 -12 -5 -8 -2 -9 12 -4 10 4 15 4 11 0 -4 -4 -1
-14 6 -22 7 -10 8 -13 1 -9 -7 4 -17 0 -24 -8 -7 -8 -17 -12 -24 -8 -6 3 -3
-3 8 -15 18 -21 36 -21 36 -1 0 6 -5 7 -10 4 -6 -3 -10 -2 -10 4 0 5 9 9 20 8
24 -2 25 -10 5 -27 -8 -7 -13 -16 -10 -20 3 -5 -7 -11 -22 -13 -16 -2 12 -4
62 -5 67 0 94 4 107 16 10 8 18 11 18 6 0 -5 7 4 15 20 11 21 12 31 4 36 -6 4
-10 11 -9 16 1 4 -6 11 -16 14 -13 5 -14 9 -5 14 6 4 20 2 29 -6 15 -11 16
-11 4 3 -10 13 -10 19 2 28 13 11 14 6 11 -31 -4 -32 -2 -39 6 -28 8 12 9 11
5 -5 -3 -11 -1 -27 4 -35 7 -10 10 27 10 112 l0 128 -57 -1 c-69 -2 -87 -12
-72 -41 7 -13 7 -18 1 -14 -6 3 -13 0 -16 -6 -3 -7 -3 -3 0 10 4 17 1 22 -15
22 -11 0 -27 7 -35 15 -14 14 -18 14 -45 -6 -26 -19 -28 -25 -19 -45 6 -13 16
-21 22 -17 6 3 8 2 3 -2 -4 -5 5 -21 20 -37 22 -23 25 -30 13 -41 -7 -6 -10
-7 -7 -1 3 6 -9 26 -28 44 -19 19 -35 42 -35 53 0 10 -4 16 -9 12 -5 -3 -12 9
-14 27 -2 18 -4 -30 -5 -107z"/>
<path fill="#ffffff" stroke="none" d="M93 371 c-8 -30 27 -81 55 -81 57 0
113 82 65 92 -10 3 3 5 30 6 41 1 47 -1 47 -19 0 -18 -1 -19 -25 -3 -24 16
-25 16 -25 -8 0 -31 -57 -83 -92 -84 -34 -1 -83 69 -67 97 13 24 18 24 12 0z"/>
<path fill="#ffffff" stroke="none" d="M149 336 c0 -7 -2 -6 -6 2 -2 6 -8 10
-12 8 -4 -3 -8 1 -8 9 0 11 4 12 14 4 7 -6 13 -17 12 -23z"/>
<path fill="#ffffff" stroke="none" d="M254 289 c-16 -16 -39 -32 -51 -35 -13
-4 -20 -11 -16 -17 3 -6 1 -7 -5 -3 -20 12 -13 24 19 35 17 6 28 15 25 20 -7
11 18 33 27 24 4 -3 10 2 14 13 4 12 8 14 11 5 2 -7 -9 -26 -24 -42z"/>
<path fill="#ffffff" stroke="none" d="M155 230 c-5 -8 -11 -8 -17 -2 -6 6 -7
16 -3 22 5 8 11 8 17 2 6 -6 7 -16 3 -22z"/>
<path fill="#ffffff" stroke="none" d="M260 172 c-15 -5 -62 27 -55 38 3 6 20
0 36 -12 17 -13 25 -24 19 -26z"/>
<path fill="#ffffff" stroke="none" d="M171 193 c13 -16 12 -17 -4 -4 -21 16
-20 17 -41 -33 -9 -22 -19 -36 -23 -32 -4 3 -1 12 5 18 7 7 12 19 12 28 0 16
18 40 31 40 4 0 13 -8 20 -17z"/>
<path fill="#ffffff" stroke="none" d="M220 170 c0 -5 -7 -10 -16 -10 -8 0
-12 5 -9 10 3 6 10 10 16 10 5 0 9 -4 9 -10z"/>
<path fill="#ffffff" stroke="none" d="M236 142 c-8 -9 -19 -13 -22 -9 -10 9
16 38 28 31 6 -4 4 -13 -6 -22z"/>
<path fill="#ffffff" stroke="none" d="M195 140 c4 -6 3 -10 -2 -9 -4 1 -16
-1 -25 -5 -10 -4 -23 -6 -30 -3 -7 3 -3 6 10 6 12 1 22 6 22 11 0 13 17 13 25
0z"/>
<path fill="#000000" stroke="none" d="M30 205 c0 -9 6 -12 15 -9 19 8 19 10
0 18 -9 3 -15 0 -15 -9z"/>
<path fill="#000000" stroke="none" d="M1 38 l-1 -38 160 0 160 0 0 25 c0 18
-7 28 -26 35 -34 13 -184 13 -184 0 0 -5 5 -10 10 -10 6 0 10 -5 10 -12 0 -6
-8 -3 -20 7 -15 13 -29 16 -59 11 -27 -4 -41 -2 -44 7 -3 6 -6 -5 -6 -25z"/>
</g>
</svg>
