<?xml version="1.0" standalone="no"?>
<!DOCTYPE svg PUBLIC "-//W3C//DTD SVG 20010904//EN"
 "http://www.w3.org/TR/2001/REC-SVG-20010904/DTD/svg10.dtd">
<svg version="1.0" xmlns="http://www.w3.org/2000/svg"
 width="32.000000pt" height="32.000000pt" viewBox="0 0 32.000000 32.000000"
 preserveAspectRatio="xMidYMid meet">
<metadata>
Created by potrace 1.16, written by Peter Selinger 2001-2019
</metadata>
<g transform="translate(0.000000,32.000000) scale(0.100000,-0.100000)"
fill="#000000" stroke="none">
<path fill="#000000" stroke="none" d="M2 163 l-2 -163 49 0 c35 0 51 4 55 16
11 30 6 34 -44 34 l-50 0 1 48 c0 26 3 41 6 35 8 -20 23 -15 23 7 0 11 -7 20
-15 20 -11 0 -15 18 -18 83 -1 45 -4 9 -5 -80z"/>
<path fill="#000000" stroke="none" d="M190 295 c0 -25 1 -25 30 -10 41 21 47
19 54 -17 7 -35 -16 -71 -39 -61 -9 3 -13 -2 -12 -16 0 -11 3 -18 6 -16 6 7
31 -32 36 -55 2 -11 0 -22 -4 -25 -12 -7 -28 15 -34 45 -3 16 -5 10 -6 -18 -1
-51 17 -64 48 -33 20 20 20 21 1 63 -23 52 -15 71 12 28 12 -21 18 -46 16 -68
-2 -22 2 -37 10 -40 9 -3 12 27 12 122 l0 126 -65 0 c-63 0 -65 -1 -65 -25z"/>
<path fill="#000000" stroke="none" d="M116 298 c-14 -43 -13 -89 0 -102 15
-16 57 -13 62 4 3 7 9 6 20 -2 14 -12 14 -10 2 12 -7 14 -9 22 -5 18 4 -4 22
0 39 10 30 16 30 17 8 20 -23 3 -23 4 -5 18 14 12 11 12 -14 -1 -18 -8 -33
-21 -33 -27 0 -16 -13 -1 -16 18 -5 32 -14 44 -34 44 -11 0 -22 -6 -24 -12z"/>
<path fill="#ffffff" stroke="none" d="M140 270 c0 -11 -4 -20 -9 -20 -6 0 -9
9 -8 20 1 11 5 20 9 20 4 0 8 -9 8 -20z"/>
<path fill="#ffffff" stroke="none" d="M157 248 c-3 -7 -5 -2 -5 12 0 14 2 19
5 13 2 -7 2 -19 0 -25z"/>
<path fill="#000000" stroke="none" d="M71 275 c5 -26 -16 -78 -33 -82 -10 -3
-18 -9 -18 -14 0 -12 17 -11 25 1 4 6 12 4 21 -5 9 -8 19 -13 24 -10 7 4 7 13
1 44 -1 2 -9 -3 -18 -10 -15 -12 -16 -12 -8 1 4 8 15 23 23 33 14 16 14 19 -2
35 -9 9 -16 13 -15 7z"/>
<path fill="#000000" stroke="none" d="M115 136 c1 -17 3 -39 4 -49 0 -10 6
-15 11 -12 16 10 12 -31 -5 -45 -8 -7 -12 -16 -9 -21 7 -13 34 -11 34 2 0 5
-4 7 -10 4 -6 -3 -7 1 -4 9 3 9 10 13 15 10 5 -3 9 17 9 44 0 36 5 54 20 67
11 10 20 13 20 8 0 -6 -6 -13 -14 -16 -17 -7 -11 -74 9 -97 7 -8 10 -21 8 -27
-3 -7 3 -13 12 -13 13 0 14 3 3 23 -7 12 -11 26 -10 30 1 5 -2 24 -7 43 -6 21
-6 36 0 40 22 13 0 29 -43 29 -45 1 -46 1 -43 -29z"/>
<path fill="#ffffff" stroke="none" d="M140 112 c0 -15 -2 -15 -10 -2 -13 20
-13 33 0 25 6 -3 10 -14 10 -23z"/>
<path fill="#000000" stroke="none" d="M270 15 l-25 -14 38 -1 c26 0 37 4 37
15 0 19 -17 19 -50 0z"/>
</g>
</svg>
