<?xml version="1.0" standalone="no"?>
<!DOCTYPE svg PUBLIC "-//W3C//DTD SVG 20010904//EN"
 "http://www.w3.org/TR/2001/REC-SVG-20010904/DTD/svg10.dtd">
<svg version="1.0" xmlns="http://www.w3.org/2000/svg"
 width="32.000000pt" height="32.000000pt" viewBox="0 0 32.000000 32.000000"
 preserveAspectRatio="xMidYMid meet">
<metadata>
Created by potrace 1.16, written by Peter Selinger 2001-2019
</metadata>
<g transform="translate(0.000000,32.000000) scale(0.100000,-0.100000)"
fill="#000000" stroke="none">
<path fill="#000000" stroke="none" d="M2 163 l-2 -163 49 0 c35 0 51 4 55 16
11 30 6 34 -44 34 l-50 0 1 48 c0 26 3 41 6 34 6 -15 23 -6 23 14 0 8 -7 14
-15 14 -11 0 -15 18 -18 83 -1 45 -4 9 -5 -80z"/>
<path fill="#000000" stroke="none" d="M190 295 c0 -25 1 -25 30 -10 41 21 47
19 54 -17 4 -22 1 -37 -11 -52 -10 -12 -14 -18 -9 -14 16 13 48 -52 44 -90 -2
-22 2 -37 10 -40 9 -3 12 27 12 122 l0 126 -65 0 c-63 0 -65 -1 -65 -25z"/>
<path fill="#000000" stroke="none" d="M56 203 c-6 -14 -5 -15 5 -6 7 7 10 15
7 18 -3 3 -9 -2 -12 -12z"/>
<path fill="#000000" stroke="none" d="M221 122 c-1 -30 4 -44 14 -49 24 -8
30 5 13 24 -9 10 -18 29 -21 43 -3 16 -5 10 -6 -18z"/>
<path fill="#000000" stroke="none" d="M270 15 l-25 -14 38 -1 c26 0 37 4 37
15 0 19 -17 19 -50 0z"/>
</g>
</svg>
