<?xml version="1.0" standalone="no"?>
<!DOCTYPE svg PUBLIC "-//W3C//DTD SVG 20010904//EN"
 "http://www.w3.org/TR/2001/REC-SVG-20010904/DTD/svg10.dtd">
<svg version="1.0" xmlns="http://www.w3.org/2000/svg"
 width="32.000000pt" height="32.000000pt" viewBox="0 0 32.000000 32.000000"
 preserveAspectRatio="xMidYMid meet">
<metadata>
Created by potrace 1.16, written by Peter Selinger 2001-2019
</metadata>
<g transform="translate(0.000000,32.000000) scale(0.100000,-0.100000)"
fill="#000000" stroke="none">
<path fill="#000000" stroke="none" d="M10 241 c0 -77 1 -79 26 -85 18 -5 33
-1 47 11 19 18 20 18 6 -4 -8 -13 -23 -23 -34 -24 -17 -1 -16 -2 5 -9 24 -8
24 -8 -7 -9 -17 -1 -34 5 -36 12 -3 6 -6 -9 -6 -35 l-1 -48 51 0 c50 0 51 -1
45 -25 -4 -15 -2 -25 4 -25 6 0 9 4 5 9 -3 5 -1 13 5 16 6 4 8 14 6 23 -9 28
-15 115 -10 124 3 5 12 4 19 -2 9 -7 16 -6 25 4 10 13 8 15 -9 11 -20 -4 -51
17 -51 35 0 4 -7 11 -16 14 -8 3 -13 2 -10 -3 3 -4 -1 -17 -9 -27 -13 -17 -13
-15 -4 16 6 19 11 41 12 48 0 8 5 7 18 -4 16 -15 18 -14 21 13 4 39 44 45 58
9 11 -31 12 -31 53 -9 30 15 31 15 18 0 -12 -15 -11 -17 5 -17 18 -1 18 -1 0
-15 -19 -14 -18 -15 6 -52 36 -55 40 -81 16 -105 -30 -30 -48 -16 -47 34 1 28
3 34 6 18 6 -31 22 -52 35 -44 5 3 4 12 -4 21 -7 9 -13 21 -14 27 -3 33 -5 37
-12 32 -5 -3 -9 1 -10 9 -1 8 -3 22 -4 30 -1 8 -5 12 -10 9 -5 -4 -7 -13 -4
-21 3 -8 2 -11 -3 -8 -17 10 -21 -12 -6 -25 9 -7 13 -21 10 -31 -8 -25 4 -104
19 -124 10 -14 15 -14 53 2 42 18 57 46 30 56 -9 3 -12 16 -9 37 5 35 -25 102
-42 93 -6 -4 -3 3 7 14 12 14 15 29 11 51 -7 36 -13 38 -54 17 -29 -15 -30
-15 -30 10 0 25 0 25 -90 25 l-90 0 0 -79z"/>
<path fill="#ffffff" stroke="none" d="M83 179 c-14 -15 -27 -19 -42 -14 -27
8 -28 29 -1 22 14 -4 25 1 33 14 7 12 15 15 21 9 7 -7 3 -17 -11 -31z"/>
<path fill="#000000" stroke="none" d="M177 142 c-11 -12 -17 -36 -17 -66 0
-26 -4 -45 -9 -42 -5 3 -12 -1 -15 -10 -3 -8 -2 -12 4 -9 6 3 10 1 10 -4 0 -6
11 -11 24 -11 l23 0 -14 62 c-13 57 -13 63 3 75 10 7 15 15 12 18 -2 3 -12 -3
-21 -13z"/>
<path fill="#000000" stroke="none" d="M250 136 c0 -2 8 -10 18 -17 15 -13 16
-12 3 4 -13 16 -21 21 -21 13z"/>
</g>
</svg>
