<?xml version="1.0" standalone="no"?>
<!DOCTYPE svg PUBLIC "-//W3C//DTD SVG 20010904//EN"
 "http://www.w3.org/TR/2001/REC-SVG-20010904/DTD/svg10.dtd">
<svg version="1.0" xmlns="http://www.w3.org/2000/svg"
 width="32.000000pt" height="32.000000pt" viewBox="0 0 32.000000 32.000000"
 preserveAspectRatio="xMidYMid meet">
<metadata>
Created by potrace 1.16, written by Peter Selinger 2001-2019
</metadata>
<g transform="translate(0.000000,32.000000) scale(0.100000,-0.100000)"
fill="#000000" stroke="none">
<path fill="#000000" stroke="none" d="M75 310 c44 -3 74 -7 67 -8 -20 -3 -32
-45 -17 -62 11 -13 6 -20 -31 -50 -24 -19 -44 -40 -44 -47 0 -21 19 -24 45 -7
26 17 26 17 21 -7 -3 -13 -7 -40 -9 -59 -2 -20 -7 -41 -11 -48 -9 -15 -12 -14
62 -17 60 -2 64 -1 92 32 34 39 36 46 14 64 -12 10 -20 10 -34 1 -15 -9 -19
-8 -23 8 -3 12 4 22 20 31 38 20 48 47 27 70 -9 10 -22 19 -28 18 -34 -4 -39
1 -21 21 15 16 16 23 6 33 -6 6 -16 13 -22 13 -36 5 -23 9 51 14 66 5 49 6
-80 6 -124 0 -145 -1 -85 -6z"/>
<path fill="#ffffff" stroke="none" d="M171 276 c-6 -7 -9 -21 -5 -30 4 -11 1
-16 -11 -16 -10 0 -15 5 -12 14 3 7 0 19 -6 26 -9 10 -9 11 0 6 6 -3 14 -2 18
4 3 5 11 10 17 10 7 0 7 -5 -1 -14z"/>
<path fill="#ffffff" stroke="none" d="M180 206 c0 -8 -5 -18 -10 -21 -6 -4
-8 -10 -6 -14 8 -12 -28 -9 -36 2 -10 17 11 47 32 47 11 0 20 -6 20 -14z"/>
<path fill="#ffffff" stroke="none" d="M110 182 c0 -11 -35 -52 -44 -52 -14 0
-5 23 17 41 26 21 27 22 27 11z"/>
<path fill="#ffffff" stroke="none" d="M173 133 c2 -5 7 -21 11 -38 l6 -30
-15 25 -14 25 -1 -30 -2 -30 -13 35 -13 35 -3 -40 c-2 -39 -2 -39 -6 -7 -3 19
-2 40 1 48 6 15 42 19 49 7z"/>
<path fill="#ffffff" stroke="none" d="M211 12 c-7 -2 -19 -1 -29 3 -14 5 -14
7 -2 15 9 5 20 4 28 -3 10 -8 11 -12 3 -15z"/>
<path fill="#ffffff" stroke="none" d="M140 20 c0 -5 -9 -10 -21 -10 -11 0
-17 5 -14 10 3 6 13 10 21 10 8 0 14 -4 14 -10z"/>
</g>
</svg>
