<?xml version="1.0" standalone="no"?>
<!DOCTYPE svg PUBLIC "-//W3C//DTD SVG 20010904//EN"
 "http://www.w3.org/TR/2001/REC-SVG-20010904/DTD/svg10.dtd">
<svg version="1.0" xmlns="http://www.w3.org/2000/svg"
 width="32.000000pt" height="32.000000pt" viewBox="0 0 32.000000 32.000000"
 preserveAspectRatio="xMidYMid meet">
<metadata>
Created by potrace 1.16, written by Peter Selinger 2001-2019
</metadata>
<g transform="translate(0.000000,32.000000) scale(0.100000,-0.100000)"
fill="#000000" stroke="none">
<path fill="#000000" stroke="none" d="M0 160 l0 -160 160 0 160 0 0 160 0
160 -160 0 -160 0 0 -160z"/>
<path fill="#ffffff" stroke="none" d="M196 283 c3 -12 12 -24 20 -27 19 -7
19 -74 0 -72 -8 0 -16 -2 -17 -7 -3 -13 22 -131 32 -149 7 -14 5 -18 -11 -18
-11 0 -29 6 -40 12 -16 10 -24 10 -40 0 -27 -16 -66 -16 -52 0 5 7 13 29 17
48 4 19 11 40 15 45 12 15 16 58 6 73 -6 10 -11 9 -21 -5 -18 -24 -50 -6 -50
28 0 19 8 27 35 35 21 7 37 20 42 35 11 32 56 34 64 2z"/>
<path fill="#ffffff" stroke="none" d="M264 266 c-8 -11 -14 -39 -13 -61 1
-33 2 -36 8 -15 5 18 9 21 15 12 10 -17 -2 -65 -14 -57 -6 3 -10 -6 -10 -21 0
-15 -2 -25 -5 -22 -3 3 -7 47 -9 97 -3 89 -2 90 20 89 20 -2 21 -4 8 -22z"/>
<path fill="#ffffff" stroke="none" d="M122 150 c-2 -17 -8 -33 -13 -36 -5 -3
-9 -14 -9 -25 0 -10 -7 -19 -15 -19 -18 0 -19 4 -1 43 8 18 16 40 20 50 9 29
23 19 18 -13z"/>
<path fill="#ffffff" stroke="none" d="M224 135 c4 -25 11 -45 17 -45 5 0 9
-7 9 -15 0 -36 -19 -10 -33 45 -8 33 -11 60 -7 60 4 0 11 -20 14 -45z"/>
<path fill="#000000" stroke="none" d="M70 217 c0 -19 16 -31 24 -18 3 5 -1
14 -9 21 -12 10 -15 10 -15 -3z"/>
</g>
</svg>
