<?xml version="1.0" standalone="no"?>
<!DOCTYPE svg PUBLIC "-//W3C//DTD SVG 20010904//EN"
 "http://www.w3.org/TR/2001/REC-SVG-20010904/DTD/svg10.dtd">
<svg version="1.0" xmlns="http://www.w3.org/2000/svg"
 width="32.000000pt" height="32.000000pt" viewBox="0 0 32.000000 32.000000"
 preserveAspectRatio="xMidYMid meet">
<metadata>
Created by potrace 1.16, written by Peter Selinger 2001-2019
</metadata>
<g transform="translate(0.000000,32.000000) scale(0.100000,-0.100000)"
fill="#000000" stroke="none">
<path fill="#000000" stroke="none" d="M0 160 l0 -160 160 0 160 0 0 160 0
160 -160 0 -160 0 0 -160z"/>
<path fill="#ffffff" stroke="none" d="M197 283 c6 -25 33 -32 33 -8 0 10 9
14 24 13 22 -2 23 -4 10 -22 -18 -27 -18 -46 2 -61 12 -8 15 -20 10 -39 -4
-15 -11 -24 -16 -21 -6 4 -7 -3 0 -19 6 -16 6 -27 0 -31 -6 -4 -10 -19 -10
-36 0 -16 -4 -29 -10 -29 -5 0 -10 14 -10 30 0 17 4 30 9 30 6 0 6 12 2 28 -5
15 -7 35 -6 44 3 18 -24 34 -35 21 -8 -8 8 -78 15 -71 3 2 1 19 -4 36 -5 18
-6 32 -2 32 13 0 21 -58 15 -101 -4 -25 -2 -44 6 -54 10 -13 9 -15 -9 -15 -12
0 -30 6 -41 12 -16 10 -24 10 -40 0 -11 -6 -31 -12 -45 -12 -22 0 -25 4 -25
36 0 20 8 52 17 71 16 35 16 36 -10 55 -36 26 -35 56 3 72 17 7 27 16 23 20
-4 4 0 4 9 1 11 -4 17 1 21 17 8 32 55 32 64 1z"/>
<path fill="#000000" stroke="none" d="M232 220 c0 -19 2 -27 5 -17 2 9 2 25
0 35 -3 9 -5 1 -5 -18z"/>
<path fill="#000000" stroke="none" d="M110 191 c0 -6 4 -11 9 -11 4 0 6 -11
3 -25 -2 -14 -2 -25 1 -25 12 0 13 51 1 61 -10 8 -14 8 -14 0z"/>
<path fill="#000000" stroke="none" d="M251 184 c0 -11 3 -14 6 -6 3 7 2 16
-1 19 -3 4 -6 -2 -5 -13z"/>
<path fill="#000000" stroke="none" d="M105 108 c-14 -42 -23 -90 -16 -82 9
10 31 94 25 94 -3 0 -6 -6 -9 -12z"/>
</g>
</svg>
