<?xml version="1.0" standalone="no"?>
<!DOCTYPE svg PUBLIC "-//W3C//DTD SVG 20010904//EN"
 "http://www.w3.org/TR/2001/REC-SVG-20010904/DTD/svg10.dtd">
<svg version="1.0" xmlns="http://www.w3.org/2000/svg"
 width="32.000000pt" height="32.000000pt" viewBox="0 0 32.000000 32.000000"
 preserveAspectRatio="xMidYMid meet">
<metadata>
Created by potrace 1.16, written by Peter Selinger 2001-2019
</metadata>
<g transform="translate(0.000000,32.000000) scale(0.100000,-0.100000)"
fill="#000000" stroke="none">
<path fill="#000000" stroke="none" d="M0 160 l0 -160 160 0 160 0 0 160 0
160 -160 0 -160 0 0 -160z"/>
<path fill="#ffffff" stroke="none" d="M195 280 c0 -8 -8 -21 -19 -29 -17 -12
-21 -12 -32 3 -7 10 -11 23 -8 30 7 18 59 14 59 -4z"/>
<path fill="#ffffff" stroke="none" d="M118 228 c2 -11 -3 -16 -15 -14 -10 2
-20 11 -21 20 -3 13 2 17 14 14 11 -2 20 -11 22 -20z"/>
<path fill="#ffffff" stroke="none" d="M230 234 c0 -8 -4 -12 -10 -9 -5 3 -10
1 -10 -4 0 -6 -11 -11 -25 -11 -14 0 -25 5 -25 11 0 5 5 7 10 4 6 -3 10 -1 10
5 0 6 4 9 8 6 4 -2 14 -1 22 5 20 12 20 12 20 -7z"/>
<path fill="#ffffff" stroke="none" d="M280 182 c0 -15 -2 -15 -10 -2 -13 20
-13 33 0 25 6 -3 10 -14 10 -23z"/>
<path fill="#ffffff" stroke="none" d="M190 180 c0 -5 -9 -10 -19 -10 -11 0
-23 5 -26 10 -4 6 5 10 19 10 14 0 26 -4 26 -10z"/>
<path fill="#ffffff" stroke="none" d="M256 151 c-11 -17 -25 -13 -21 7 2 9 4
19 4 22 1 2 6 -1 12 -7 6 -6 8 -16 5 -22z"/>
<path fill="#ffffff" stroke="none" d="M204 132 c2 -4 1 -14 -4 -22 -7 -12
-12 -12 -22 -2 -16 16 -26 15 -30 -3 -2 -9 -8 -11 -16 -6 -23 14 -2 41 33 41
19 0 36 -4 39 -8z"/>
<path fill="#ffffff" stroke="none" d="M247 108 c-3 -8 -6 -5 -6 6 -1 11 2 17
5 13 3 -3 4 -12 1 -19z"/>
<path fill="#ffffff" stroke="none" d="M143 73 c8 -7 -11 -33 -24 -33 -5 0 -9
9 -9 20 0 19 20 27 33 13z"/>
<path fill="#ffffff" stroke="none" d="M216 42 c-4 -3 -12 0 -19 7 -9 9 -9 14
3 21 11 7 16 5 18 -6 2 -9 1 -18 -2 -22z"/>
<path fill="#ffffff" stroke="none" d="M120 22 c0 -5 -7 -9 -15 -9 -8 0 -15 4
-15 9 0 4 7 8 15 8 8 0 15 -4 15 -8z"/>
<path fill="#ffffff" stroke="none" d="M230 21 c0 -10 -26 -9 -36 2 -4 4 2 7
14 7 12 0 22 -4 22 -9z"/>
</g>
</svg>
