<?xml version="1.0" standalone="no"?>
<!DOCTYPE svg PUBLIC "-//W3C//DTD SVG 20010904//EN"
 "http://www.w3.org/TR/2001/REC-SVG-20010904/DTD/svg10.dtd">
<svg version="1.0" xmlns="http://www.w3.org/2000/svg"
 width="32.000000pt" height="32.000000pt" viewBox="0 0 32.000000 32.000000"
 preserveAspectRatio="xMidYMid meet">
<metadata>
Created by potrace 1.16, written by Peter Selinger 2001-2019
</metadata>
<g transform="translate(0.000000,32.000000) scale(0.100000,-0.100000)"
fill="#000000" stroke="none">
<path fill="#000000" stroke="none" d="M163 303 c-33 -6 -47 -28 -33 -52 9
-18 8 -21 -9 -21 -15 0 -18 -5 -14 -22 3 -17 2 -19 -5 -9 -7 9 -12 10 -16 2
-4 -6 -2 -11 5 -11 7 0 4 -6 -7 -14 -10 -8 -20 -10 -22 -5 -6 15 -22 10 -22
-7 0 -13 6 -15 28 -9 15 3 31 13 35 21 5 8 13 12 18 8 6 -3 22 -3 35 0 23 6
24 9 12 24 -12 15 -11 16 5 3 18 -14 18 -16 1 -28 -10 -7 -13 -13 -7 -13 5 0
18 9 28 20 14 16 15 23 6 34 -7 8 -20 12 -29 9 -13 -5 -14 -3 -6 6 9 10 18 9
40 -5 25 -16 27 -16 16 -2 -8 10 -11 22 -8 27 7 10 -14 52 -24 50 -3 -1 -15
-4 -27 -6z"/>
<path fill="#ffffff" stroke="none" d="M127 198 c-3 -8 -6 -5 -6 6 -1 11 2 17
5 13 3 -3 4 -12 1 -19z"/>
<path fill="#000000" stroke="none" d="M213 188 c2 -7 -2 -20 -10 -30 -8 -9
-10 -18 -5 -22 12 -7 45 41 37 54 -9 15 -27 12 -22 -2z"/>
<path fill="#000000" stroke="none" d="M130 155 c-16 -20 5 -49 32 -42 10 3
21 0 25 -5 4 -7 1 -8 -7 -3 -10 6 -12 4 -6 -11 5 -10 12 -34 18 -51 6 -23 15
-33 29 -33 17 0 18 3 7 20 -7 11 -16 20 -21 20 -4 0 -5 4 -2 10 3 6 1 10 -5
10 -8 0 -8 6 0 20 7 12 7 20 1 20 -5 0 -16 12 -23 27 -16 33 -31 38 -48 18z"/>
<path fill="#000000" stroke="none" d="M113 113 c-9 -3 -10 -10 -3 -24 7 -13
7 -19 0 -19 -5 0 -10 -9 -10 -19 0 -11 -6 -22 -12 -24 -7 -3 -3 -6 10 -6 20
-1 27 9 23 33 -1 4 2 13 7 20 12 15 0 44 -15 39z"/>
</g>
</svg>
