<?xml version="1.0" standalone="no"?>
<!DOCTYPE svg PUBLIC "-//W3C//DTD SVG 20010904//EN"
 "http://www.w3.org/TR/2001/REC-SVG-20010904/DTD/svg10.dtd">
<svg version="1.0" xmlns="http://www.w3.org/2000/svg"
 width="32.000000pt" height="32.000000pt" viewBox="0 0 32.000000 32.000000"
 preserveAspectRatio="xMidYMid meet">
<metadata>
Created by potrace 1.16, written by Peter Selinger 2001-2019
</metadata>
<g transform="translate(0.000000,32.000000) scale(0.100000,-0.100000)"
fill="#000000" stroke="none">
<path fill="#000000" stroke="none" d="M0 160 l0 -160 160 0 160 0 0 160 0
160 -160 0 -160 0 0 -160z"/>
<path fill="#ffffff" stroke="none" d="M147 288 c0 -7 4 -21 8 -32 6 -13 4
-17 -5 -14 -14 4 -22 36 -14 50 7 11 11 10 11 -4z"/>
<path fill="#ffffff" stroke="none" d="M203 285 c4 -8 3 -16 -1 -19 -4 -3 -9
4 -9 15 -2 23 3 25 10 4z"/>
<path fill="#ffffff" stroke="none" d="M157 216 c0 -8 -6 -12 -14 -9 -7 3 -10
9 -7 14 8 14 21 11 21 -5z"/>
<path fill="#ffffff" stroke="none" d="M236 171 c-11 -17 -25 -13 -21 7 2 9 4
19 4 22 1 2 6 -1 12 -7 6 -6 8 -16 5 -22z"/>
<path fill="#ffffff" stroke="none" d="M90 170 c0 -5 -5 -10 -11 -10 -5 0 -7
5 -4 10 3 6 8 10 11 10 2 0 4 -4 4 -10z"/>
<path fill="#ffffff" stroke="none" d="M156 145 c-2 -14 -16 -22 -16 -10 0 3
0 10 0 15 0 6 4 10 9 10 5 0 8 -7 7 -15z"/>
</g>
</svg>
