<?xml version="1.0" standalone="no"?>
<!DOCTYPE svg PUBLIC "-//W3C//DTD SVG 20010904//EN"
 "http://www.w3.org/TR/2001/REC-SVG-20010904/DTD/svg10.dtd">
<svg version="1.0" xmlns="http://www.w3.org/2000/svg"
 width="32.000000pt" height="32.000000pt" viewBox="0 0 32.000000 32.000000"
 preserveAspectRatio="xMidYMid meet">
<metadata>
Created by potrace 1.16, written by Peter Selinger 2001-2019
</metadata>
<g transform="translate(0.000000,32.000000) scale(0.100000,-0.100000)"
fill="#000000" stroke="none">
<path fill="#000000" stroke="none" d="M154 300 c-30 -12 -37 -26 -24 -50 9
-17 8 -20 -10 -20 -12 0 -19 -4 -16 -9 3 -5 -1 -12 -9 -15 -8 -3 -14 -11 -13
-18 2 -8 -6 -12 -20 -11 -14 2 -22 -3 -22 -12 0 -21 36 -19 59 4 19 19 19 19
24 0 3 -10 1 -21 -4 -24 -4 -3 -6 -12 -2 -20 3 -8 0 -15 -6 -15 -6 0 -8 -7 -5
-15 3 -8 -1 -28 -9 -45 -15 -29 -15 -30 9 -30 20 0 24 5 24 28 0 16 6 37 14
47 13 19 15 18 29 -15 9 -19 18 -43 21 -53 3 -9 14 -17 25 -17 19 0 19 1 0 37
-11 21 -17 43 -14 50 2 7 0 13 -5 13 -6 0 -10 7 -10 16 0 8 4 13 9 10 5 -3 16
6 26 20 16 25 16 27 -11 55 -15 15 -32 26 -37 22 -6 -3 -7 -1 -3 5 5 9 15 7
34 -5 25 -16 26 -16 14 -1 -8 10 -11 22 -8 27 8 12 -15 51 -29 50 -5 0 -20 -4
-31 -9z"/>
<path fill="#ffffff" stroke="none" d="M213 183 c8 -7 -11 -33 -23 -33 -5 0
-6 9 -3 20 5 20 15 25 26 13z"/>
</g>
</svg>
