<?xml version="1.0" standalone="no"?>
<!DOCTYPE svg PUBLIC "-//W3C//DTD SVG 20010904//EN"
 "http://www.w3.org/TR/2001/REC-SVG-20010904/DTD/svg10.dtd">
<svg version="1.0" xmlns="http://www.w3.org/2000/svg"
 width="32.000000pt" height="32.000000pt" viewBox="0 0 32.000000 32.000000"
 preserveAspectRatio="xMidYMid meet">
<metadata>
Created by potrace 1.16, written by Peter Selinger 2001-2019
</metadata>
<g transform="translate(0.000000,32.000000) scale(0.100000,-0.100000)"
fill="#000000" stroke="none">
<path fill="#000000" stroke="none" d="M0 160 l0 -160 160 0 160 0 0 160 c0
156 0 160 -21 160 -17 0 -19 -3 -10 -14 15 -18 5 -43 -22 -50 l-22 -6 23 -20
c17 -14 23 -28 20 -52 -4 -42 -21 -39 -28 4 -3 22 -13 36 -27 43 -27 12 -30
25 -5 26 14 0 13 2 -4 9 -29 12 -39 40 -14 40 10 0 22 -4 25 -10 3 -5 16 -10
28 -10 20 1 21 2 5 14 -10 7 -15 16 -11 19 3 4 -53 7 -125 7 l-132 0 0 -160z"/>
<path fill="#ffffff" stroke="none" d="M105 290 c5 -8 11 -7 21 1 40 33 92
-28 64 -75 -10 -17 -10 -19 1 -8 19 18 29 15 29 -9 0 -12 11 -30 25 -41 16
-12 24 -27 21 -41 -4 -27 -21 -25 -21 3 0 10 -5 23 -9 27 -5 4 -6 3 -2 -4 3
-6 2 -14 -3 -18 -14 -8 -9 -44 7 -50 8 -3 20 2 26 10 7 10 18 13 28 10 14 -6
15 -11 4 -43 -7 -20 -20 -38 -28 -40 -15 -3 -60 57 -57 75 3 20 -2 34 -11 28
-13 -8 -8 -39 9 -59 11 -13 11 -17 -4 -22 -13 -5 -14 -9 -3 -16 9 -7 8 -8 -7
-6 -14 3 -19 10 -17 27 1 13 -6 33 -15 44 -16 18 -16 20 -1 14 9 -3 19 0 21 7
7 18 -41 40 -58 26 -13 -11 -25 -4 -25 16 0 6 13 14 30 16 22 3 31 0 36 -14 6
-22 13 -22 38 -3 18 13 15 20 -6 16 -5 0 -8 6 -8 15 0 12 -5 14 -17 8 -10 -4
-37 -8 -61 -9 -31 0 -41 -4 -37 -13 8 -21 16 -69 9 -54 -5 10 -9 10 -20 1 -12
-10 -13 -8 -7 7 7 19 6 19 -22 0 l-30 -19 20 23 c18 21 18 23 2 17 -12 -4 -16
-3 -11 4 3 6 17 9 30 6 21 -4 22 -1 18 31 -4 35 -4 35 16 17 11 -10 20 -13 20
-7 0 7 5 12 11 12 5 0 7 -4 4 -10 -7 -11 23 -2 43 13 22 17 12 28 -12 12 -17
-11 -26 -13 -31 -5 -5 8 -10 8 -20 0 -9 -8 -15 -8 -20 0 -3 6 -11 8 -16 5 -15
-10 -10 39 7 63 17 24 29 28 39 12z"/>
<path fill="#ffffff" stroke="none" d="M42 195 c3 -23 0 -35 -8 -35 -18 0 -25
29 -14 51 15 26 17 24 22 -16z"/>
<path fill="#ffffff" stroke="none" d="M148 115 c-2 -6 -9 -9 -15 -9 -7 1 -10
-2 -8 -7 3 -4 -4 -13 -15 -19 -17 -9 -19 -14 -10 -25 12 -15 6 -35 -11 -35 -6
0 -7 5 -4 10 3 6 -1 13 -9 16 -26 10 -18 29 22 56 37 26 56 31 50 13z"/>
<path fill="#ffffff" stroke="none" d="M158 78 c20 -20 14 -26 -20 -23 -18 2
-35 3 -37 4 -6 1 32 30 40 31 3 0 10 -5 17 -12z"/>
<path fill="#000000" stroke="none" d="M60 239 c0 -5 5 -7 10 -4 6 3 10 8 10
11 0 2 -4 4 -10 4 -5 0 -10 -5 -10 -11z"/>
</g>
</svg>
