<?xml version="1.0" standalone="no"?>
<!DOCTYPE svg PUBLIC "-//W3C//DTD SVG 20010904//EN"
 "http://www.w3.org/TR/2001/REC-SVG-20010904/DTD/svg10.dtd">
<svg version="1.0" xmlns="http://www.w3.org/2000/svg"
 width="32.000000pt" height="32.000000pt" viewBox="0 0 32.000000 32.000000"
 preserveAspectRatio="xMidYMid meet">
<metadata>
Created by potrace 1.16, written by Peter Selinger 2001-2019
</metadata>
<g transform="translate(0.000000,32.000000) scale(0.100000,-0.100000)"
fill="#000000" stroke="none">
<path fill="#000000" stroke="none" d="M51 274 c-22 -28 -28 -50 -11 -39 6 3
10 12 10 19 0 8 10 21 23 29 12 9 17 16 10 16 -6 1 -21 -11 -32 -25z"/>
<path fill="#000000" stroke="none" d="M246 283 c12 -10 24 -27 28 -37 3 -10
9 -16 13 -12 9 8 -29 59 -48 64 -8 2 -5 -5 7 -15z"/>
<path fill="#000000" stroke="none" d="M140 275 c-6 -8 -10 -19 -8 -24 1 -6 8
1 15 14 13 28 11 31 -7 10z"/>
<path fill="#000000" stroke="none" d="M21 204 c0 -11 3 -14 6 -6 3 7 2 16 -1
19 -3 4 -6 -2 -5 -13z"/>
<path fill="#000000" stroke="none" d="M291 204 c0 -11 3 -14 6 -6 3 7 2 16
-1 19 -3 4 -6 -2 -5 -13z"/>
<path fill="#000000" stroke="none" d="M233 185 c0 -7 6 -11 14 -8 7 3 13 6
13 8 0 2 -6 5 -13 8 -8 3 -14 -1 -14 -8z"/>
<path fill="#000000" stroke="none" d="M145 180 c3 -5 8 -10 11 -10 2 0 4 5 4
10 0 6 -5 10 -11 10 -5 0 -7 -4 -4 -10z"/>
<path fill="#000000" stroke="none" d="M32 155 c0 -16 2 -22 5 -12 2 9 2 23 0
30 -3 6 -5 -1 -5 -18z"/>
<path fill="#000000" stroke="none" d="M50 175 c0 -5 5 -17 10 -25 5 -8 10
-10 10 -5 0 6 -5 17 -10 25 -5 8 -10 11 -10 5z"/>
<path fill="#000000" stroke="none" d="M282 155 c0 -16 2 -22 5 -12 2 9 2 23
0 30 -3 6 -5 -1 -5 -18z"/>
<path fill="#000000" stroke="none" d="M11 155 c-1 -34 19 -92 37 -106 15 -13
16 -12 3 4 -8 10 -20 41 -27 70 -7 29 -13 43 -13 32z"/>
<path fill="#000000" stroke="none" d="M190 166 c0 -2 7 -7 16 -10 8 -3 12 -2
9 4 -6 10 -25 14 -25 6z"/>
<path fill="#000000" stroke="none" d="M297 130 c-5 -25 -15 -56 -24 -70 -15
-23 -15 -24 0 -11 19 15 40 83 35 109 -2 9 -7 -3 -11 -28z"/>
<path fill="#000000" stroke="none" d="M151 110 c0 -8 4 -22 9 -30 12 -18 12
-2 0 25 -6 13 -9 15 -9 5z"/>
</g>
</svg>
