<?xml version="1.0" standalone="no"?>
<!DOCTYPE svg PUBLIC "-//W3C//DTD SVG 20010904//EN"
 "http://www.w3.org/TR/2001/REC-SVG-20010904/DTD/svg10.dtd">
<svg version="1.0" xmlns="http://www.w3.org/2000/svg"
 width="32.000000pt" height="32.000000pt" viewBox="0 0 32.000000 32.000000"
 preserveAspectRatio="xMidYMid meet">
<metadata>
Created by potrace 1.16, written by Peter Selinger 2001-2019
</metadata>
<g transform="translate(0.000000,32.000000) scale(0.100000,-0.100000)"
fill="#000000" stroke="none">
<path fill="#000000" stroke="none" d="M110 282 c0 -15 -4 -32 -10 -38 -18
-18 -24 -103 -10 -130 11 -19 11 -27 2 -36 -7 -7 -12 -27 -12 -45 l0 -33 59 0
c80 0 183 43 179 74 -3 18 -10 21 -51 22 -26 0 -50 4 -54 7 -3 4 0 7 9 7 31 0
48 34 48 98 0 35 -4 62 -10 62 -5 0 -10 -7 -10 -16 0 -14 -3 -14 -15 -4 -8 7
-15 21 -15 31 0 11 -4 19 -10 19 -5 0 -10 -6 -10 -12 0 -8 -15 -14 -35 -15
-29 -3 -35 0 -35 17 0 11 -4 20 -10 20 -5 0 -10 -13 -10 -28z"/>
<path fill="#ffffff" stroke="none" d="M215 240 c4 -6 1 -18 -6 -26 -11 -14
-13 -14 -21 0 -13 24 -38 19 -39 -6 l0 -23 -11 23 c-6 12 -16 22 -22 22 -6 0
-4 5 4 10 20 13 87 13 95 0z"/>
<path fill="#ffffff" stroke="none" d="M225 170 c-5 -8 -11 -8 -17 -2 -6 6 -7
16 -3 22 5 8 11 8 17 2 6 -6 7 -16 3 -22z"/>
<path fill="#ffffff" stroke="none" d="M185 180 c3 -6 -1 -13 -10 -16 -9 -4
-14 -13 -11 -21 3 -8 1 -11 -4 -8 -8 5 -8 28 -1 53 2 6 21 1 26 -8z"/>
<path fill="#ffffff" stroke="none" d="M141 165 c-1 -5 -5 -11 -11 -11 -5 -1
-13 -2 -16 -3 -4 0 0 -9 7 -18 13 -16 12 -17 -3 -5 -13 11 -15 22 -9 50 2 8
32 -4 32 -13z"/>
<path fill="#ffffff" stroke="none" d="M140 97 c0 -2 -10 -12 -22 -23 l-23
-19 19 23 c18 21 26 27 26 19z"/>
<path fill="#ffffff" stroke="none" d="M180 65 c-7 -8 -9 -15 -5 -15 4 0 2 -7
-5 -15 -16 -19 -70 -20 -70 -1 0 10 10 13 35 10 19 -1 34 0 33 4 -2 12 14 43
20 38 3 -3 -1 -12 -8 -21z"/>
</g>
</svg>
