<?xml version="1.0" standalone="no"?>
<!DOCTYPE svg PUBLIC "-//W3C//DTD SVG 20010904//EN"
 "http://www.w3.org/TR/2001/REC-SVG-20010904/DTD/svg10.dtd">
<svg version="1.0" xmlns="http://www.w3.org/2000/svg"
 width="32.000000pt" height="32.000000pt" viewBox="0 0 32.000000 32.000000"
 preserveAspectRatio="xMidYMid meet">
<metadata>
Created by potrace 1.16, written by Peter Selinger 2001-2019
</metadata>
<g transform="translate(0.000000,32.000000) scale(0.100000,-0.100000)"
fill="#000000" stroke="none">
<path fill="#000000" stroke="none" d="M220 311 c0 -11 26 -22 34 -14 3 4 6
11 6 17 0 6 -5 4 -10 -4 -6 -10 -10 -11 -10 -2 0 6 -4 12 -10 12 -5 0 -10 -4
-10 -9z"/>
<path fill="#000000" stroke="none" d="M192 306 c4 -5 3 -17 -3 -27 -6 -13 -6
-19 1 -19 5 0 10 -4 10 -9 0 -5 -19 -7 -42 -5 -24 2 -34 1 -23 -2 45 -12 50
-17 18 -23 -28 -5 -30 -8 -19 -24 13 -16 15 -16 39 3 14 11 33 20 42 20 14 0
15 3 5 15 -9 11 -10 18 -1 28 8 11 6 18 -12 33 -12 10 -19 15 -15 10z"/>
<path fill="#ffffff" stroke="none" d="M215 280 c3 -5 1 -10 -4 -10 -6 0 -11
5 -11 10 0 6 2 10 4 10 3 0 8 -4 11 -10z"/>
<path fill="#000000" stroke="none" d="M4 279 c0 -14 4 -15 18 -8 10 5 18 11
18 13 0 2 -8 6 -18 8 -12 4 -18 -1 -18 -13z"/>
<path fill="#000000" stroke="none" d="M25 250 c3 -5 11 -10 16 -10 6 0 7 5 4
10 -3 6 -11 10 -16 10 -6 0 -7 -4 -4 -10z"/>
<path fill="#000000" stroke="none" d="M182 190 c-8 -13 -8 -20 -2 -20 6 0 13
7 17 15 9 24 -1 27 -15 5z"/>
<path fill="#000000" stroke="none" d="M297 164 c-20 -27 -17 -68 6 -77 10 -4
13 9 15 49 0 30 0 54 -1 54 -1 0 -10 -12 -20 -26z"/>
<path fill="#ffffff" stroke="none" d="M310 120 c0 -5 -5 -10 -11 -10 -5 0 -7
5 -4 10 3 6 8 10 11 10 2 0 4 -4 4 -10z"/>
<path fill="#000000" stroke="none" d="M10 161 c0 -6 4 -13 10 -16 6 -3 7 1 4
9 -7 18 -14 21 -14 7z"/>
<path fill="#000000" stroke="none" d="M83 155 c0 -8 7 -15 15 -15 12 0 12 3
2 15 -7 8 -13 15 -15 15 -1 0 -2 -7 -2 -15z"/>
<path fill="#000000" stroke="none" d="M98 133 c-20 -5 -23 -18 -8 -28 12 -7
40 12 40 26 0 9 -4 10 -32 2z"/>
<path fill="#000000" stroke="none" d="M40 119 c0 -5 5 -7 10 -4 6 3 10 8 10
11 0 2 -4 4 -10 4 -5 0 -10 -5 -10 -11z"/>
<path fill="#000000" stroke="none" d="M20 90 c0 -5 7 -10 16 -10 8 0 12 5 9
10 -3 6 -10 10 -16 10 -5 0 -9 -4 -9 -10z"/>
<path fill="#000000" stroke="none" d="M170 80 c-12 -8 -12 -10 5 -9 11 0 29
4 40 9 18 8 18 9 -5 9 -14 0 -32 -4 -40 -9z"/>
<path fill="#000000" stroke="none" d="M35 50 c-3 -5 -1 -10 4 -10 6 0 11 5
11 10 0 6 -2 10 -4 10 -3 0 -8 -4 -11 -10z"/>
<path fill="#000000" stroke="none" d="M305 40 c-3 -5 -11 -8 -18 -6 -7 1 -9
1 -4 -1 4 -3 7 -9 7 -14 0 -6 -4 -7 -10 -4 -5 3 -17 2 -27 -3 -12 -7 -6 -10
25 -10 38 -1 42 2 42 24 0 25 -5 30 -15 14z"/>
<path fill="#000000" stroke="none" d="M86 33 c-11 -11 -7 -20 9 -20 8 0 15 4
15 8 0 11 -16 20 -24 12z"/>
<path fill="#000000" stroke="none" d="M220 30 c0 -5 5 -10 10 -10 6 0 10 5
10 10 0 6 -4 10 -10 10 -5 0 -10 -4 -10 -10z"/>
<path fill="#000000" stroke="none" d="M133 3 c9 -2 25 -2 35 0 9 3 1 5 -18 5
-19 0 -27 -2 -17 -5z"/>
</g>
</svg>
