<?xml version="1.0" standalone="no"?>
<!DOCTYPE svg PUBLIC "-//W3C//DTD SVG 20010904//EN"
 "http://www.w3.org/TR/2001/REC-SVG-20010904/DTD/svg10.dtd">
<svg version="1.0" xmlns="http://www.w3.org/2000/svg"
 width="32.000000pt" height="32.000000pt" viewBox="0 0 32.000000 32.000000"
 preserveAspectRatio="xMidYMid meet">
<metadata>
Created by potrace 1.16, written by Peter Selinger 2001-2019
</metadata>
<g transform="translate(0.000000,32.000000) scale(0.100000,-0.100000)"
fill="#000000" stroke="none">
<path fill="#000000" stroke="none" d="M220 311 c0 -11 26 -22 34 -14 3 4 6
11 6 17 0 6 -5 4 -10 -4 -6 -10 -10 -11 -10 -2 0 6 -4 12 -10 12 -5 0 -10 -4
-10 -9z"/>
<path fill="#000000" stroke="none" d="M193 289 c-2 -23 3 -25 10 -4 4 8 3 16
-1 19 -4 3 -9 -4 -9 -15z"/>
<path fill="#000000" stroke="none" d="M6 274 c-6 -15 -4 -15 11 -3 10 7 20
15 22 16 2 2 -3 3 -11 3 -9 0 -19 -7 -22 -16z"/>
<path fill="#000000" stroke="none" d="M25 250 c3 -5 11 -10 16 -10 6 0 7 5 4
10 -3 6 -11 10 -16 10 -6 0 -7 -4 -4 -10z"/>
<path fill="#000000" stroke="none" d="M153 211 c-15 -4 -20 -10 -15 -18 7
-10 12 -10 28 1 23 17 17 25 -13 17z"/>
<path fill="#000000" stroke="none" d="M298 165 c-23 -31 -25 -63 -3 -45 17
14 21 0 4 -17 -7 -7 -6 -12 3 -16 11 -4 14 8 16 49 0 30 0 54 -1 54 -1 0 -10
-11 -19 -25z"/>
<path fill="#000000" stroke="none" d="M83 155 c0 -8 7 -15 15 -15 12 0 12 3
2 15 -7 8 -13 15 -15 15 -1 0 -2 -7 -2 -15z"/>
<path fill="#000000" stroke="none" d="M98 133 c-20 -5 -23 -18 -8 -28 12 -7
40 12 40 26 0 9 -4 10 -32 2z"/>
<path fill="#000000" stroke="none" d="M40 119 c0 -5 5 -7 10 -4 6 3 10 8 10
11 0 2 -4 4 -10 4 -5 0 -10 -5 -10 -11z"/>
<path fill="#000000" stroke="none" d="M20 90 c0 -5 7 -10 16 -10 8 0 12 5 9
10 -3 6 -10 10 -16 10 -5 0 -9 -4 -9 -10z"/>
<path fill="#000000" stroke="none" d="M170 80 c-12 -8 -12 -10 5 -9 11 0 29
4 40 9 18 8 18 9 -5 9 -14 0 -32 -4 -40 -9z"/>
<path fill="#000000" stroke="none" d="M305 40 c-3 -5 -11 -8 -18 -6 -7 1 -9
1 -4 -1 4 -3 7 -9 7 -14 0 -6 -4 -7 -10 -4 -5 3 -17 2 -27 -3 -12 -7 -6 -10
25 -10 38 -1 42 2 42 24 0 25 -5 30 -15 14z"/>
<path fill="#000000" stroke="none" d="M86 33 c-11 -11 -7 -20 9 -20 8 0 15 4
15 8 0 11 -16 20 -24 12z"/>
<path fill="#000000" stroke="none" d="M220 30 c0 -5 5 -10 10 -10 6 0 10 5
10 10 0 6 -4 10 -10 10 -5 0 -10 -4 -10 -10z"/>
<path fill="#000000" stroke="none" d="M128 3 c6 -2 18 -2 25 0 6 3 1 5 -13 5
-14 0 -19 -2 -12 -5z"/>
</g>
</svg>
