<?xml version="1.0" standalone="no"?>
<!DOCTYPE svg PUBLIC "-//W3C//DTD SVG 20010904//EN"
 "http://www.w3.org/TR/2001/REC-SVG-20010904/DTD/svg10.dtd">
<svg version="1.0" xmlns="http://www.w3.org/2000/svg"
 width="32.000000pt" height="32.000000pt" viewBox="0 0 32.000000 32.000000"
 preserveAspectRatio="xMidYMid meet">
<metadata>
Created by potrace 1.16, written by Peter Selinger 2001-2019
</metadata>
<g transform="translate(0.000000,32.000000) scale(0.100000,-0.100000)"
fill="#000000" stroke="none">
<path fill="#000000" stroke="none" d="M5 290 c0 -28 1 -28 22 -14 16 10 23
11 23 3 0 -7 3 -10 6 -7 9 10 -20 48 -36 48 -11 0 -16 -9 -15 -30z"/>
<path fill="#ffffff" stroke="none" d="M37 294 c-3 -3 -12 -4 -19 -1 -8 3 -5
6 6 6 11 1 17 -2 13 -5z"/>
<path fill="#000000" stroke="none" d="M187 310 c7 -10 8 -21 3 -30 -5 -9 -5
-19 2 -27 9 -11 6 -12 -16 -3 -16 6 -34 7 -43 2 -12 -7 -7 -11 18 -17 l34 -9
-32 -3 c-28 -4 -31 -6 -21 -22 7 -12 18 -16 31 -13 14 3 18 1 13 -6 -4 -7 -1
-12 9 -12 21 0 31 30 14 42 -11 8 -11 9 2 5 17 -5 42 19 47 44 1 9 -3 7 -13
-5 -8 -11 -18 -16 -22 -13 -3 4 6 20 20 35 32 34 34 42 7 42 -11 0 -20 -4 -20
-10 0 -5 5 -10 11 -10 5 0 7 -5 4 -11 -5 -7 -17 -2 -33 13 -15 13 -21 16 -15
8z"/>
<path fill="#000000" stroke="none" d="M125 290 c-17 -6 -15 -8 13 -12 17 -2
32 -1 32 3 0 12 -24 17 -45 9z"/>
<path fill="#000000" stroke="none" d="M25 250 c3 -5 11 -10 16 -10 6 0 7 5 4
10 -3 6 -11 10 -16 10 -6 0 -7 -4 -4 -10z"/>
<path fill="#000000" stroke="none" d="M88 243 c7 -3 16 -2 19 1 4 3 -2 6 -13
5 -11 0 -14 -3 -6 -6z"/>
<path fill="#000000" stroke="none" d="M90 209 c0 -5 5 -7 10 -4 6 3 10 8 10
11 0 2 -4 4 -10 4 -5 0 -10 -5 -10 -11z"/>
<path fill="#000000" stroke="none" d="M297 164 c-20 -27 -17 -68 6 -77 10 -4
13 9 15 49 0 30 0 54 -1 54 -1 0 -10 -12 -20 -26z"/>
<path fill="#ffffff" stroke="none" d="M310 120 c0 -5 -5 -10 -11 -10 -5 0 -7
5 -4 10 3 6 8 10 11 10 2 0 4 -4 4 -10z"/>
<path fill="#000000" stroke="none" d="M10 161 c0 -6 4 -13 10 -16 6 -3 7 1 4
9 -7 18 -14 21 -14 7z"/>
<path fill="#000000" stroke="none" d="M82 142 c-3 -40 12 -59 32 -43 9 8 16
23 16 34 0 11 -3 17 -7 14 -3 -4 -14 0 -23 8 -14 13 -16 12 -18 -13z"/>
<path fill="#000000" stroke="none" d="M40 128 c0 -12 3 -18 7 -14 11 10 12
36 2 36 -5 0 -9 -10 -9 -22z"/>
<path fill="#000000" stroke="none" d="M20 90 c0 -5 7 -10 16 -10 8 0 12 5 9
10 -3 6 -10 10 -16 10 -5 0 -9 -4 -9 -10z"/>
<path fill="#000000" stroke="none" d="M165 80 c-7 -12 19 -12 55 0 22 7 21 8
-12 9 -20 1 -40 -3 -43 -9z"/>
<path fill="#000000" stroke="none" d="M35 50 c-3 -5 -1 -10 4 -10 6 0 11 5
11 10 0 6 -2 10 -4 10 -3 0 -8 -4 -11 -10z"/>
<path fill="#000000" stroke="none" d="M270 40 c0 -5 5 -10 11 -10 5 0 7 5 4
10 -3 6 -8 10 -11 10 -2 0 -4 -4 -4 -10z"/>
<path fill="#000000" stroke="none" d="M297 30 c-8 -11 -16 -17 -20 -14 -3 3
-13 1 -23 -4 -13 -7 -8 -10 24 -10 38 -1 42 2 42 24 0 29 -5 30 -23 4z"/>
<path fill="#000000" stroke="none" d="M86 33 c-11 -11 -7 -20 9 -20 8 0 15 4
15 8 0 11 -16 20 -24 12z"/>
<path fill="#000000" stroke="none" d="M220 30 c0 -5 5 -10 10 -10 6 0 10 5
10 10 0 6 -4 10 -10 10 -5 0 -10 -4 -10 -10z"/>
<path fill="#000000" stroke="none" d="M133 3 c9 -2 25 -2 35 0 9 3 1 5 -18 5
-19 0 -27 -2 -17 -5z"/>
</g>
</svg>
