<?xml version="1.0" standalone="no"?>
<!DOCTYPE svg PUBLIC "-//W3C//DTD SVG 20010904//EN"
 "http://www.w3.org/TR/2001/REC-SVG-20010904/DTD/svg10.dtd">
<svg version="1.0" xmlns="http://www.w3.org/2000/svg"
 width="32.000000pt" height="32.000000pt" viewBox="0 0 32.000000 32.000000"
 preserveAspectRatio="xMidYMid meet">
<metadata>
Created by potrace 1.16, written by Peter Selinger 2001-2019
</metadata>
<g transform="translate(0.000000,32.000000) scale(0.100000,-0.100000)"
fill="#000000" stroke="none">
<path fill="#000000" stroke="none" d="M0 201 c0 -95 3 -120 15 -124 20 -8 29
11 14 30 -8 8 -14 34 -15 57 -2 37 -1 38 6 13 5 -16 7 -34 4 -40 -2 -7 4 -17
15 -24 16 -10 22 -8 42 14 13 15 18 23 10 18 -11 -6 -13 -4 -8 8 7 19 -8 33
-18 17 -4 -6 -2 -17 5 -25 7 -8 7 -15 1 -19 -11 -7 -24 10 -28 38 -2 11 -10
27 -18 36 -9 10 -14 33 -12 63 2 46 10 60 20 35 4 -10 6 -10 6 0 1 14 61 17
61 2 0 -5 -9 -10 -19 -10 -27 0 -34 -15 -16 -30 14 -11 14 -15 -1 -31 -8 -9
-14 -26 -11 -36 4 -14 5 -13 6 5 1 19 4 21 21 12 17 -9 19 -8 13 7 -5 14 0 12
23 -7 16 -13 9 -3 -16 23 -44 46 -45 61 -3 32 14 -10 24 -12 28 -5 4 6 1 9 -6
8 -6 -2 -14 3 -17 11 -3 9 0 11 8 6 9 -6 9 -3 1 14 -10 17 -21 21 -61 21 l-50
0 0 -119z"/>
<path fill="#000000" stroke="none" d="M197 313 c24 -2 62 -2 85 0 24 2 5 4
-42 4 -47 0 -66 -2 -43 -4z"/>
<path fill="#000000" stroke="none" d="M180 280 c0 -5 12 -20 26 -33 19 -18
23 -27 14 -32 -9 -6 -6 -13 11 -27 13 -10 17 -16 8 -12 -21 7 -35 -14 -19 -29
21 -22 35 15 32 81 l-4 62 -34 0 c-19 0 -34 -4 -34 -10z"/>
<path fill="#000000" stroke="none" d="M161 226 c-8 -10 -9 -16 -2 -21 14 -8
53 13 46 26 -9 13 -31 11 -44 -5z"/>
<path fill="#000000" stroke="none" d="M186 191 c-4 -5 -2 -12 3 -15 5 -4 12
-2 15 3 4 5 2 12 -3 15 -5 4 -12 2 -15 -3z"/>
<path fill="#000000" stroke="none" d="M146 172 c-3 -6 1 -15 8 -21 8 -7 17
-8 20 -3 3 6 -1 15 -8 21 -8 7 -17 8 -20 3z"/>
<path fill="#000000" stroke="none" d="M117 125 c-4 -8 -2 -17 3 -20 6 -4 10
3 10 14 0 25 -6 27 -13 6z"/>
<path fill="#000000" stroke="none" d="M190 139 c0 -3 15 -18 32 -35 24 -21
28 -23 13 -5 -18 22 -18 24 -2 18 11 -4 16 -3 12 4 -4 6 -13 8 -20 5 -7 -2
-18 1 -24 7 -6 6 -11 9 -11 6z"/>
<path fill="#000000" stroke="none" d="M76 91 c-2 -3 7 -16 20 -28 13 -12 24
-18 24 -13 0 5 13 5 30 0 52 -15 41 5 -16 27 -30 12 -56 18 -58 14z"/>
<path fill="#000000" stroke="none" d="M48 25 c-5 -25 -4 -25 58 -25 36 0 64
4 64 10 0 6 -22 9 -56 6 -51 -3 -55 -2 -51 15 3 11 2 19 -3 19 -4 0 -10 -11
-12 -25z"/>
<path fill="#000000" stroke="none" d="M260 10 c0 -5 5 -10 10 -10 6 0 10 5
10 10 0 6 -4 10 -10 10 -5 0 -10 -4 -10 -10z"/>
<path fill="#000000" stroke="none" d="M228 3 c7 -3 16 -2 19 1 4 3 -2 6 -13
5 -11 0 -14 -3 -6 -6z"/>
</g>
</svg>
