<?xml version="1.0" standalone="no"?>
<!DOCTYPE svg PUBLIC "-//W3C//DTD SVG 20010904//EN"
 "http://www.w3.org/TR/2001/REC-SVG-20010904/DTD/svg10.dtd">
<svg version="1.0" xmlns="http://www.w3.org/2000/svg"
 width="32.000000pt" height="32.000000pt" viewBox="0 0 32.000000 32.000000"
 preserveAspectRatio="xMidYMid meet">
<metadata>
Created by potrace 1.16, written by Peter Selinger 2001-2019
</metadata>
<g transform="translate(0.000000,32.000000) scale(0.100000,-0.100000)"
fill="#000000" stroke="none">
<path fill="#000000" stroke="none" d="M75 313 c-16 -3 -33 -10 -37 -16 -6 -9
-8 -9 -8 1 0 6 -3 12 -8 12 -14 0 -8 -186 6 -203 16 -19 8 -38 -13 -30 -12 4
-15 -4 -15 -37 0 -37 2 -41 23 -38 14 2 23 11 25 26 2 12 7 22 12 22 4 0 6 -8
3 -19 -4 -17 0 -18 51 -15 31 2 56 0 56 -4 0 -12 83 -9 93 3 6 6 10 6 14 -2 2
-7 13 -13 24 -13 18 0 19 9 19 155 l0 155 -72 0 c-40 1 -89 2 -108 4 -19 2
-48 1 -65 -1z"/>
<path fill="#ffffff" stroke="none" d="M114 294 c4 -9 2 -13 -5 -8 -7 4 -10 1
-7 -7 3 -8 11 -13 17 -11 7 1 10 -2 6 -8 -4 -7 -14 -5 -28 5 -42 29 -41 14 3
-32 25 -26 32 -36 16 -23 -23 19 -28 21 -23 7 6 -15 4 -16 -13 -7 -17 9 -20 7
-21 -12 -1 -18 -2 -19 -6 -5 -3 10 3 27 11 36 15 16 15 20 1 31 -18 15 -11 30
16 30 10 0 19 5 19 10 0 15 7 12 14 -6z"/>
<path fill="#ffffff" stroke="none" d="M252 228 c3 -66 -11 -103 -32 -81 -16
15 -2 36 19 29 9 -4 5 2 -8 12 -17 14 -20 21 -11 27 9 5 5 14 -14 32 -35 32
-33 43 8 43 l34 0 4 -62z"/>
<path fill="#ffffff" stroke="none" d="M205 231 c7 -13 -32 -34 -46 -26 -7 5
-6 11 2 21 13 16 35 18 44 5z"/>
<path fill="#ffffff" stroke="none" d="M43 165 c4 -29 17 -46 28 -39 6 4 6 11
-1 19 -7 8 -9 19 -5 25 10 16 25 2 18 -17 -5 -12 -3 -14 8 -8 8 5 3 -3 -10
-18 -32 -35 -56 -20 -58 36 -2 40 13 42 20 2z"/>
<path fill="#ffffff" stroke="none" d="M204 179 c-3 -5 -10 -7 -15 -3 -5 3 -7
10 -3 15 3 5 10 7 15 3 5 -3 7 -10 3 -15z"/>
<path fill="#ffffff" stroke="none" d="M174 148 c-3 -5 -12 -4 -20 3 -7 6 -11
15 -8 21 3 5 12 4 20 -3 7 -6 11 -15 8 -21z"/>
<path fill="#ffffff" stroke="none" d="M130 119 c0 -11 -4 -18 -10 -14 -5 3
-7 12 -3 20 7 21 13 19 13 -6z"/>
<path fill="#ffffff" stroke="none" d="M225 126 c7 3 16 1 20 -5 4 -7 -1 -8
-12 -4 -16 6 -16 4 2 -18 15 -18 11 -16 -13 5 -17 17 -32 32 -32 35 0 3 5 0
11 -6 6 -6 17 -9 24 -7z"/>
<path fill="#ffffff" stroke="none" d="M184 48 c-2 -3 -18 -3 -34 2 -17 5 -30
5 -30 0 0 -5 -11 1 -24 13 -37 32 -22 38 38 14 30 -12 52 -25 50 -29z"/>
</g>
</svg>
