<?xml version="1.0" standalone="no"?>
<!DOCTYPE svg PUBLIC "-//W3C//DTD SVG 20010904//EN"
 "http://www.w3.org/TR/2001/REC-SVG-20010904/DTD/svg10.dtd">
<svg version="1.0" xmlns="http://www.w3.org/2000/svg"
 width="32.000000pt" height="32.000000pt" viewBox="0 0 32.000000 32.000000"
 preserveAspectRatio="xMidYMid meet">
<metadata>
Created by potrace 1.16, written by Peter Selinger 2001-2019
</metadata>
<g transform="translate(0.000000,32.000000) scale(0.100000,-0.100000)"
fill="#000000" stroke="none">
<path fill="#000000" stroke="none" d="M0 188 c0 -128 7 -163 15 -77 3 23 9
47 15 53 5 5 10 18 10 28 0 23 27 35 43 19 19 -19 47 16 40 50 -3 17 0 35 7
44 11 13 3 15 -59 15 l-71 0 0 -132z"/>
<path fill="#000000" stroke="none" d="M219 306 c7 -8 20 -12 30 -9 24 6 38
-15 15 -24 -16 -6 -16 -7 1 -13 24 -9 28 -40 7 -64 -16 -18 -16 -18 6 -12 13
5 22 3 22 -3 0 -6 5 -11 10 -11 6 0 10 32 10 75 l0 75 -56 0 c-47 0 -55 -2
-45 -14z"/>
<path fill="#000000" stroke="none" d="M210 149 c0 -15 3 -41 6 -58 6 -30 7
-31 26 -14 18 16 20 16 45 -10 26 -26 26 -27 8 -47 -18 -20 -18 -20 3 -20 21
0 22 5 22 77 0 74 -1 76 -19 59 -21 -19 -63 -9 -80 21 -9 16 -10 15 -11 -8z"/>
<path fill="#000000" stroke="none" d="M25 119 c-11 -17 1 -21 15 -4 8 9 8 15
2 15 -6 0 -14 -5 -17 -11z"/>
<path fill="#000000" stroke="none" d="M57 113 c-14 -13 -7 -21 17 -19 18 1
22 4 14 14 -12 13 -21 15 -31 5z"/>
<path fill="#000000" stroke="none" d="M26 81 c-3 -5 1 -14 8 -20 18 -15 28 0
10 16 -7 7 -15 9 -18 4z"/>
<path fill="#000000" stroke="none" d="M104 79 c-3 -5 -3 -13 0 -18 9 -14 41
-6 41 9 0 15 -32 23 -41 9z"/>
<path fill="#000000" stroke="none" d="M247 73 c-3 -5 1 -14 9 -20 14 -14 30
0 19 17 -7 12 -22 13 -28 3z"/>
<path fill="#000000" stroke="none" d="M0 21 c0 -20 4 -22 42 -19 24 2 43 9
46 17 4 11 -3 13 -30 8 -21 -3 -40 -1 -47 6 -8 8 -11 5 -11 -12z"/>
</g>
</svg>
