<?xml version="1.0" standalone="no"?>
<!DOCTYPE svg PUBLIC "-//W3C//DTD SVG 20010904//EN"
 "http://www.w3.org/TR/2001/REC-SVG-20010904/DTD/svg10.dtd">
<svg version="1.0" xmlns="http://www.w3.org/2000/svg"
 width="32.000000pt" height="31.000000pt" viewBox="0 0 32.000000 31.000000"
 preserveAspectRatio="xMidYMid meet">
<metadata>
Created by potrace 1.16, written by Peter Selinger 2001-2019
</metadata>
<g transform="translate(0.000000,31.000000) scale(0.100000,-0.100000)"
fill="#000000" stroke="none">
<path fill="#000000" stroke="none" d="M165 299 c-14 -22 -57 -30 -75 -14 -9
8 -22 15 -28 15 -15 0 -16 -32 -2 -46 7 -7 -1 -24 -25 -51 -36 -42 -42 -73
-29 -141 5 -26 10 -30 35 -28 31 2 36 -3 18 -21 -9 -9 -7 -11 7 -9 14 2 18 10
16 28 -1 14 5 31 13 38 20 16 32 5 16 -14 -9 -11 -9 -16 0 -22 8 -5 9 -3 4 6
-5 8 -4 11 3 7 5 -4 8 -16 5 -28 -5 -18 -2 -20 40 -18 40 2 47 6 61 35 15 34
8 51 -16 39 -7 -4 -5 0 5 8 9 8 17 18 17 22 0 5 10 19 21 32 18 18 20 25 10
37 -14 16 -6 40 10 31 5 -4 16 -19 24 -35 13 -25 13 -33 -1 -72 -8 -24 -13
-51 -10 -61 2 -9 0 -15 -5 -11 -5 3 -9 12 -9 20 0 23 -26 16 -38 -11 -7 -14
-12 -27 -12 -29 0 -2 22 -3 49 -3 l49 -1 -4 92 c-2 50 -4 101 -5 114 -1 23
-13 29 -25 11 -11 -18 -25 13 -18 43 6 32 -11 45 -34 25 -20 -17 -42 -12 -42
9 0 16 -16 19 -25 3z"/>
<path fill="#ffffff" stroke="none" d="M115 259 c8 14 95 15 95 1 0 -5 7 -10
15 -10 8 0 15 5 15 11 0 5 -4 7 -10 4 -15 -9 -12 1 4 14 11 9 13 7 12 -11 -1
-13 2 -29 7 -35 6 -9 5 -19 -4 -29 -7 -9 -18 -26 -24 -37 -6 -12 -21 -27 -34
-33 -14 -7 -18 -13 -10 -16 18 -6 2 -28 -21 -28 -25 0 -35 17 -19 36 10 12 9
13 -5 8 -20 -8 -42 9 -49 37 -5 19 -4 20 12 5 22 -20 38 -20 57 -1 9 8 27 15
40 15 21 0 23 2 12 14 -11 12 -18 11 -45 -10 -19 -15 -34 -20 -38 -14 -4 6
-11 7 -17 4 -7 -5 -9 -1 -5 9 3 9 1 19 -5 23 -7 4 -8 3 -4 -4 4 -7 2 -12 -3
-12 -6 0 -11 7 -11 16 0 9 -5 12 -12 8 -7 -5 -8 -3 -2 7 12 19 12 31 0 49 -6
8 1 5 16 -8 16 -15 28 -20 33 -13z"/>
<path fill="#ffffff" stroke="none" d="M70 202 c0 -4 -5 -13 -11 -19 -8 -8 -8
-17 1 -32 9 -17 8 -29 -2 -51 -7 -16 -16 -26 -20 -24 -4 3 -8 -2 -8 -12 0 -13
3 -14 13 -5 8 6 16 8 20 5 3 -3 3 5 1 18 -5 21 -4 21 6 5 9 -14 9 -22 1 -30
-6 -6 -11 -7 -11 -3 0 5 -6 3 -14 -3 -19 -16 -25 -4 -33 59 -5 44 -3 54 17 75
24 25 40 32 40 17z"/>
<path fill="#ffffff" stroke="none" d="M119 100 c0 -8 -4 -5 -9 8 -11 25 -18
29 -16 8 0 -8 -3 -14 -8 -13 -5 1 -10 11 -11 22 -1 11 -5 29 -10 40 -4 12 5 6
23 -15 17 -19 31 -42 31 -50z"/>
<path fill="#ffffff" stroke="none" d="M227 137 c0 -8 -6 -14 -14 -14 -9 0
-10 4 -2 14 6 7 12 13 14 13 1 0 2 -6 2 -13z"/>
<path fill="#ffffff" stroke="none" d="M197 62 c16 -12 20 -21 14 -31 -14 -22
-44 -5 -38 22 6 21 5 21 -8 3 -15 -19 -35 -14 -35 10 0 19 40 17 67 -4z"/>
</g>
</svg>
