<?xml version="1.0" standalone="no"?>
<!DOCTYPE svg PUBLIC "-//W3C//DTD SVG 20010904//EN"
 "http://www.w3.org/TR/2001/REC-SVG-20010904/DTD/svg10.dtd">
<svg version="1.0" xmlns="http://www.w3.org/2000/svg"
 width="32.000000pt" height="32.000000pt" viewBox="0 0 32.000000 32.000000"
 preserveAspectRatio="xMidYMid meet">
<metadata>
Created by potrace 1.16, written by Peter Selinger 2001-2019
</metadata>
<g transform="translate(0.000000,32.000000) scale(0.100000,-0.100000)"
fill="#000000" stroke="none">
<path fill="#000000" stroke="none" d="M162 313 c-7 -3 -17 -16 -22 -29 -8
-20 -14 -23 -40 -18 -31 7 -65 -11 -54 -28 4 -5 26 -18 50 -28 24 -11 44 -22
44 -25 0 -4 -16 -27 -35 -52 -19 -25 -35 -52 -35 -60 0 -8 -9 -22 -21 -32 -20
-16 -20 -18 -4 -31 14 -11 25 -12 61 -2 31 8 51 9 64 2 30 -16 85 -12 103 8
34 37 7 89 -41 80 -10 -2 -22 7 -30 21 -15 30 -8 39 19 23 16 -10 24 -10 35
-1 21 17 18 27 -20 65 -29 29 -31 33 -14 36 10 2 18 7 18 12 -1 5 6 13 15 19
15 8 15 10 -1 28 -16 18 -62 24 -92 12z"/>
<path fill="#ffffff" stroke="none" d="M169 89 c1 -8 -50 -31 -56 -25 -3 3 5
19 18 37 20 29 23 30 30 13 4 -10 8 -22 8 -25z"/>
</g>
</svg>
