<?xml version="1.0" standalone="no"?>
<!DOCTYPE svg PUBLIC "-//W3C//DTD SVG 20010904//EN"
 "http://www.w3.org/TR/2001/REC-SVG-20010904/DTD/svg10.dtd">
<svg version="1.0" xmlns="http://www.w3.org/2000/svg"
 width="32.000000pt" height="31.000000pt" viewBox="0 0 32.000000 31.000000"
 preserveAspectRatio="xMidYMid meet">
<metadata>
Created by potrace 1.16, written by Peter Selinger 2001-2019
</metadata>
<g transform="translate(0.000000,31.000000) scale(0.100000,-0.100000)"
fill="#000000" stroke="none">
<path fill="#000000" stroke="none" d="M0 239 c0 -65 1 -70 17 -58 9 8 18 12
21 9 3 -3 6 4 8 14 1 10 11 26 20 35 17 15 17 15 3 -3 -7 -11 -9 -17 -2 -13 6
4 14 1 16 -5 4 -10 6 -10 6 -1 1 7 8 10 16 7 13 -5 13 -9 3 -23 -10 -13 -9
-13 8 2 11 9 24 14 27 10 4 -3 7 -1 7 5 0 7 -11 12 -24 12 -14 0 -27 4 -30 9
-8 13 47 0 65 -16 14 -12 18 -11 32 11 9 13 13 26 10 30 -9 9 -81 7 -87 -2 -3
-5 -18 -8 -33 -8 -21 2 -29 8 -31 24 -4 26 14 29 38 7 14 -13 22 -13 46 -4 16
7 33 11 37 10 5 -1 6 3 2 9 -3 5 -44 10 -91 10 l-84 0 0 -71z"/>
<path fill="#000000" stroke="none" d="M190 296 c0 -12 20 -26 36 -25 4 0 10
-5 15 -13 6 -9 8 -6 6 9 -1 18 -4 20 -17 11 -11 -9 -11 -7 2 6 21 24 41 11 34
-22 -7 -30 7 -61 18 -43 12 18 29 12 23 -8 -2 -10 -1 -25 4 -32 5 -9 9 14 9
59 l0 72 -65 0 c-49 0 -65 -3 -65 -14z"/>
<path fill="#000000" stroke="none" d="M204 235 c-4 -9 -2 -21 4 -27 15 -15
44 -1 40 19 -4 23 -36 29 -44 8z"/>
<path fill="#000000" stroke="none" d="M166 171 c-14 -16 -23 -18 -49 -10 -29
8 -30 7 -15 -7 24 -25 82 -27 103 -4 18 20 13 40 -9 40 -7 0 -21 -9 -30 -19z"/>
<path fill="#000000" stroke="none" d="M73 139 c1 -20 7 -36 14 -36 14 0 12
23 -4 52 -10 18 -12 16 -10 -16z"/>
<path fill="#000000" stroke="none" d="M17 154 c-10 -10 -9 -52 2 -58 13 -8
33 20 29 40 -3 19 -20 28 -31 18z"/>
<path fill="#000000" stroke="none" d="M245 120 c-17 -18 -17 -20 -1 -26 20
-8 52 19 42 35 -10 16 -21 14 -41 -9z"/>
<path fill="#000000" stroke="none" d="M43 63 c0 -9 4 -10 13 -2 9 7 15 6 21
-6 9 -15 11 -15 24 1 12 16 12 17 -3 11 -10 -3 -18 -2 -18 3 0 5 -8 8 -18 7
-10 0 -19 -7 -19 -14z"/>
<path fill="#000000" stroke="none" d="M311 64 c0 -11 3 -14 6 -6 3 7 2 16 -1
19 -3 4 -6 -2 -5 -13z"/>
<path fill="#000000" stroke="none" d="M1 37 c-1 -37 0 -38 32 -35 42 2 50 34
9 32 -19 -1 -29 5 -34 20 -4 15 -6 11 -7 -17z"/>
<path fill="#000000" stroke="none" d="M175 51 c-7 -12 12 -24 25 -16 11 7 4
25 -10 25 -5 0 -11 -4 -15 -9z"/>
<path fill="#000000" stroke="none" d="M225 39 c-4 -6 -5 -12 -2 -15 2 -3 7 2
10 11 7 17 1 20 -8 4z"/>
</g>
</svg>
