<?xml version="1.0" standalone="no"?>
<!DOCTYPE svg PUBLIC "-//W3C//DTD SVG 20010904//EN"
 "http://www.w3.org/TR/2001/REC-SVG-20010904/DTD/svg10.dtd">
<svg version="1.0" xmlns="http://www.w3.org/2000/svg"
 width="32.000000pt" height="31.000000pt" viewBox="0 0 32.000000 31.000000"
 preserveAspectRatio="xMidYMid meet">
<metadata>
Created by potrace 1.16, written by Peter Selinger 2001-2019
</metadata>
<g transform="translate(0.000000,31.000000) scale(0.100000,-0.100000)"
fill="#000000" stroke="none">
<path fill="#000000" stroke="none" d="M165 299 c-14 -22 -57 -30 -75 -14 -9
8 -22 15 -28 15 -15 0 -16 -32 -2 -46 7 -7 -1 -24 -25 -51 -36 -43 -42 -73
-29 -143 6 -28 10 -31 35 -28 31 5 36 -1 17 -20 -9 -9 18 -12 124 -12 l136 0
-4 92 c-2 51 -4 103 -4 116 0 23 -14 29 -26 11 -11 -18 -25 13 -18 43 6 32
-11 45 -34 25 -20 -17 -42 -12 -42 9 0 16 -16 19 -25 3z"/>
<path fill="#ffffff" stroke="none" d="M180 255 c-13 -16 -60 -21 -60 -7 0 15
13 22 43 22 25 0 28 -2 17 -15z"/>
<path fill="#ffffff" stroke="none" d="M235 241 c7 -12 -12 -24 -25 -16 -11 7
-4 25 10 25 5 0 11 -4 15 -9z"/>
<path fill="#ffffff" stroke="none" d="M200 177 c0 -2 -10 -12 -22 -23 l-23
-19 19 23 c18 21 26 27 26 19z"/>
<path fill="#ffffff" stroke="none" d="M100 109 c0 -6 -4 -7 -10 -4 -5 3 -10
11 -10 16 0 6 5 7 10 4 6 -3 10 -11 10 -16z"/>
<path fill="#ffffff" stroke="none" d="M80 70 c0 -5 -2 -10 -4 -10 -3 0 -8 5
-11 10 -3 6 -1 10 4 10 6 0 11 -4 11 -10z"/>
</g>
</svg>
