<?xml version="1.0" standalone="no"?>
<!DOCTYPE svg PUBLIC "-//W3C//DTD SVG 20010904//EN"
 "http://www.w3.org/TR/2001/REC-SVG-20010904/DTD/svg10.dtd">
<svg version="1.0" xmlns="http://www.w3.org/2000/svg"
 width="32.000000pt" height="32.000000pt" viewBox="0 0 32.000000 32.000000"
 preserveAspectRatio="xMidYMid meet">
<metadata>
Created by potrace 1.16, written by Peter Selinger 2001-2019
</metadata>
<g transform="translate(0.000000,32.000000) scale(0.100000,-0.100000)"
fill="#000000" stroke="none">
<path fill="#000000" stroke="none" d="M0 160 l0 -160 26 0 c22 0 24 2 14 14
-9 12 -7 17 9 28 12 7 21 20 21 29 0 9 16 37 35 62 19 25 35 48 35 52 0 3 -20
14 -44 25 -24 10 -46 23 -50 28 -11 17 23 35 54 28 26 -5 32 -2 40 18 5 13 15
26 22 29 7 3 -26 6 -74 6 l-88 1 0 -160z"/>
<path fill="#000000" stroke="none" d="M254 301 c16 -18 16 -20 1 -28 -9 -6
-15 -14 -13 -19 1 -5 -6 -10 -18 -12 -19 -3 -19 -5 12 -36 38 -38 41 -48 20
-65 -11 -9 -19 -9 -35 1 -27 16 -34 7 -19 -23 8 -14 20 -23 30 -21 48 9 75
-43 41 -80 -15 -17 -14 -18 15 -18 l32 0 0 160 0 160 -42 0 c-40 0 -41 -1 -24
-19z"/>
<path fill="#000000" stroke="none" d="M131 101 c-27 -38 -24 -46 13 -30 28
13 28 14 17 43 -7 17 -10 16 -30 -13z"/>
<path fill="#000000" stroke="none" d="M115 10 c-15 -7 -9 -9 25 -9 33 -1 41
2 30 9 -18 12 -28 12 -55 0z"/>
</g>
</svg>
