<?xml version="1.0" standalone="no"?>
<!DOCTYPE svg PUBLIC "-//W3C//DTD SVG 20010904//EN"
 "http://www.w3.org/TR/2001/REC-SVG-20010904/DTD/svg10.dtd">
<svg version="1.0" xmlns="http://www.w3.org/2000/svg"
 width="32.000000pt" height="32.000000pt" viewBox="0 0 32.000000 32.000000"
 preserveAspectRatio="xMidYMid meet">
<metadata>
Created by potrace 1.16, written by Peter Selinger 2001-2019
</metadata>
<g transform="translate(0.000000,32.000000) scale(0.100000,-0.100000)"
fill="#000000" stroke="none">
<path fill="#000000" stroke="none" d="M162 313 c-7 -3 -17 -16 -22 -28 -8
-20 -14 -23 -43 -18 -23 3 -37 0 -46 -10 -10 -13 -8 -18 13 -32 14 -10 37 -18
51 -19 34 -2 32 -19 -10 -73 -19 -25 -35 -52 -35 -60 0 -8 -9 -22 -21 -32 -20
-16 -20 -18 -4 -31 14 -11 25 -12 61 -2 31 8 51 9 64 2 30 -16 85 -12 103 8
23 25 21 59 -4 72 -35 19 -53 9 -55 -33 -2 -27 1 -36 9 -31 9 5 9 4 0 -6 -19
-20 -44 5 -34 33 5 12 6 28 3 36 -3 8 0 11 7 7 6 -4 11 0 11 9 0 9 -4 14 -8
11 -4 -2 -9 4 -9 15 -2 21 17 25 35 7 8 -8 15 -8 27 2 22 18 19 28 -19 66 -29
29 -31 33 -14 36 10 2 18 7 18 12 -1 5 6 13 15 19 15 8 15 10 -1 28 -16 18
-62 24 -92 12z"/>
<path fill="#ffffff" stroke="none" d="M199 254 c-15 -18 -33 -18 -49 1 -10
12 -8 16 11 24 31 11 55 -5 38 -25z"/>
<path fill="#ffffff" stroke="none" d="M136 244 c36 -17 57 -38 27 -27 -16 6
-17 5 -3 -13 14 -18 14 -18 -2 -5 -10 7 -15 18 -11 25 4 6 0 6 -9 -2 -13 -10
-17 -10 -22 3 -3 8 -13 15 -21 15 -10 0 -13 -5 -9 -12 5 -9 2 -9 -9 1 -40 32
1 43 59 15z"/>
<path fill="#ffffff" stroke="none" d="M238 160 c7 0 12 -4 12 -10 0 -13 -17
-13 -25 0 -7 11 -61 7 -73 -5 -4 -5 -2 -6 3 -3 6 4 10 -8 11 -27 0 -26 -5 -36
-24 -45 -34 -15 -38 -6 -14 27 11 16 20 37 19 48 -1 11 8 24 23 31 20 11 27
11 41 -1 8 -8 21 -15 27 -15z"/>
<path fill="#ffffff" stroke="none" d="M103 87 c-11 -17 -11 -30 0 -44 12 -17
-31 -39 -47 -23 -8 8 -7 10 5 5 9 -3 16 0 17 7 0 7 3 22 6 33 2 11 5 26 5 33
1 7 6 10 11 7 6 -4 7 -12 3 -18z"/>
</g>
</svg>
