<?xml version="1.0" standalone="no"?>
<!DOCTYPE svg PUBLIC "-//W3C//DTD SVG 20010904//EN"
 "http://www.w3.org/TR/2001/REC-SVG-20010904/DTD/svg10.dtd">
<svg version="1.0" xmlns="http://www.w3.org/2000/svg"
 width="32.000000pt" height="32.000000pt" viewBox="0 0 32.000000 32.000000"
 preserveAspectRatio="xMidYMid meet">
<metadata>
Created by potrace 1.16, written by Peter Selinger 2001-2019
</metadata>
<g transform="translate(0.000000,32.000000) scale(0.100000,-0.100000)"
fill="#000000" stroke="none">
<path fill="#000000" stroke="none" d="M162 313 c-7 -3 -17 -16 -22 -28 -8
-20 -14 -23 -43 -18 -23 3 -37 0 -46 -10 -10 -13 -8 -18 13 -32 14 -10 37 -18
51 -19 34 -2 32 -19 -10 -73 -19 -25 -35 -52 -35 -60 0 -8 -9 -22 -21 -32 -20
-16 -20 -18 -4 -31 14 -11 25 -12 61 -2 31 8 51 9 64 2 52 -28 120 0 120 49 0
29 -44 50 -70 33 -16 -10 -18 -9 -14 3 4 9 1 22 -6 30 -18 21 -3 32 21 17 16
-10 24 -10 35 -1 21 17 18 27 -20 65 -29 29 -31 33 -14 36 10 2 18 7 18 12 -1
5 6 13 15 19 15 8 15 10 -1 28 -16 18 -62 24 -92 12z"/>
<path fill="#ffffff" stroke="none" d="M192 248 c-14 -14 -42 -3 -42 16 0 8 8
16 18 18 21 5 38 -20 24 -34z"/>
<path fill="#ffffff" stroke="none" d="M157 232 c27 -17 30 -24 6 -15 -16 6
-17 5 -3 -13 14 -18 14 -18 -6 -1 -11 9 -23 14 -26 11 -4 -3 -9 3 -12 14 -5
14 -13 19 -29 15 -18 -4 -19 -3 -7 6 17 12 43 6 77 -17z"/>
<path fill="#ffffff" stroke="none" d="M243 157 c4 3 7 1 7 -5 0 -17 -15 -15
-30 3 -9 11 -16 12 -26 4 -7 -6 -18 -8 -23 -5 -5 4 -13 1 -17 -5 -4 -7 -3 -10
2 -7 5 4 9 -9 10 -27 0 -26 -5 -36 -24 -45 -34 -15 -38 -6 -14 27 11 16 20 37
19 48 -1 11 8 24 23 31 21 11 27 11 46 -7 11 -10 24 -16 27 -12z"/>
<path fill="#ffffff" stroke="none" d="M212 56 c-14 -22 -11 -38 6 -31 13 5
14 4 5 -6 -17 -17 -48 8 -33 26 5 6 8 14 5 17 -3 2 2 5 10 5 8 0 11 -5 7 -11z"/>
<path fill="#ffffff" stroke="none" d="M94 23 c-10 -7 -23 -13 -28 -13 -6 0
-4 5 4 10 8 5 11 10 7 10 -5 0 -6 4 -2 10 3 5 13 6 22 3 14 -6 14 -8 -3 -20z"/>
</g>
</svg>
