<?xml version="1.0" standalone="no"?>
<!DOCTYPE svg PUBLIC "-//W3C//DTD SVG 20010904//EN"
 "http://www.w3.org/TR/2001/REC-SVG-20010904/DTD/svg10.dtd">
<svg version="1.0" xmlns="http://www.w3.org/2000/svg"
 width="32.000000pt" height="32.000000pt" viewBox="0 0 32.000000 32.000000"
 preserveAspectRatio="xMidYMid meet">
<metadata>
Created by potrace 1.16, written by Peter Selinger 2001-2019
</metadata>
<g transform="translate(0.000000,32.000000) scale(0.100000,-0.100000)"
fill="#000000" stroke="none">
<path fill="#000000" stroke="none" d="M0 160 l0 -160 160 0 160 0 0 160 0
160 -160 0 -160 0 0 -160z"/>
<path fill="#ffffff" stroke="none" d="M168 290 c5 -13 3 -13 -14 -1 -10 7 -7
2 8 -12 15 -14 30 -37 33 -50 9 -36 61 -91 79 -84 8 3 17 -1 20 -9 11 -29 6
-72 -9 -78 -8 -3 -15 -12 -15 -21 0 -23 -245 -22 -254 1 -9 25 -7 46 7 63 7 9
19 33 26 55 10 30 11 40 1 46 -17 10 -3 70 18 77 10 4 21 13 25 20 11 18 69
13 75 -7z"/>
<path fill="#000000" stroke="none" d="M237 134 c3 -8 11 -14 18 -14 23 0 27
-19 11 -42 -23 -32 -19 -47 4 -19 28 33 25 57 -9 74 -25 12 -29 12 -24 1z"/>
<path fill="#000000" stroke="none" d="M184 107 c9 -15 14 -33 10 -39 -4 -7
-3 -8 4 -4 16 10 15 17 -9 46 l-21 25 16 -28z"/>
</g>
</svg>
