<?xml version="1.0" standalone="no"?>
<!DOCTYPE svg PUBLIC "-//W3C//DTD SVG 20010904//EN"
 "http://www.w3.org/TR/2001/REC-SVG-20010904/DTD/svg10.dtd">
<svg version="1.0" xmlns="http://www.w3.org/2000/svg"
 width="32.000000pt" height="32.000000pt" viewBox="0 0 32.000000 32.000000"
 preserveAspectRatio="xMidYMid meet">
<metadata>
Created by potrace 1.16, written by Peter Selinger 2001-2019
</metadata>
<g transform="translate(0.000000,32.000000) scale(0.100000,-0.100000)"
fill="#000000" stroke="none">
<path fill="#000000" stroke="none" d="M93 297 c-4 -7 -15 -16 -25 -20 -21 -7
-35 -67 -18 -77 10 -6 9 -16 -1 -46 -7 -22 -19 -46 -26 -55 -14 -17 -16 -38
-7 -63 9 -23 254 -24 254 -1 0 9 7 18 15 21 9 4 15 19 15 38 0 41 -11 55 -34
46 -19 -6 -19 -7 2 -12 28 -8 29 -38 2 -69 -23 -28 -27 -13 -4 19 17 24 11 42
-13 42 -9 0 -13 6 -9 15 3 8 -5 26 -18 40 -13 14 -27 38 -31 53 -4 15 -12 30
-18 34 -7 4 -12 15 -12 25 0 23 -59 31 -72 10z"/>
<path fill="#ffffff" stroke="none" d="M204 70 c-6 -6 -10 -3 -10 10 0 13 4
16 10 10 7 -7 7 -13 0 -20z"/>
</g>
</svg>
