<?xml version="1.0" standalone="no"?>
<!DOCTYPE svg PUBLIC "-//W3C//DTD SVG 20010904//EN"
 "http://www.w3.org/TR/2001/REC-SVG-20010904/DTD/svg10.dtd">
<svg version="1.0" xmlns="http://www.w3.org/2000/svg"
 width="32.000000pt" height="32.000000pt" viewBox="0 0 32.000000 32.000000"
 preserveAspectRatio="xMidYMid meet">
<metadata>
Created by potrace 1.16, written by Peter Selinger 2001-2019
</metadata>
<g transform="translate(0.000000,32.000000) scale(0.100000,-0.100000)"
fill="#000000" stroke="none">
<path fill="#000000" stroke="none" d="M130 280 c0 -5 7 -10 15 -10 8 0 15 5
15 10 0 6 -7 10 -15 10 -8 0 -15 -4 -15 -10z"/>
<path fill="#000000" stroke="none" d="M168 233 c7 -3 16 -2 19 1 4 3 -2 6
-13 5 -11 0 -14 -3 -6 -6z"/>
<path fill="#000000" stroke="none" d="M125 181 c-3 -6 1 -14 9 -17 9 -3 16
-10 16 -16 0 -5 -4 -6 -10 -3 -5 3 -10 2 -10 -2 0 -5 9 -14 21 -21 12 -8 18
-9 14 -2 -5 7 2 9 22 4 26 -7 27 -6 14 10 -8 9 -20 15 -28 12 -8 -3 -12 -2 -9
3 3 4 -3 16 -13 25 -13 12 -21 14 -26 7z"/>
</g>
</svg>
