<?xml version="1.0" standalone="no"?>
<!DOCTYPE svg PUBLIC "-//W3C//DTD SVG 20010904//EN"
 "http://www.w3.org/TR/2001/REC-SVG-20010904/DTD/svg10.dtd">
<svg version="1.0" xmlns="http://www.w3.org/2000/svg"
 width="32.000000pt" height="48.000000pt" viewBox="0 0 32.000000 48.000000"
 preserveAspectRatio="xMidYMid meet">
<metadata>
Created by potrace 1.16, written by Peter Selinger 2001-2019
</metadata>
<g transform="translate(0.000000,48.000000) scale(0.100000,-0.100000)"
fill="#000000" stroke="none">
<path fill="#000000" stroke="none" d="M106 449 c-56 -44 -69 -120 -40 -232
15 -58 15 -62 -3 -77 -10 -9 -27 -26 -38 -40 l-20 -23 32 18 c39 23 47 17 33
-21 -11 -28 -11 -28 9 -9 12 10 21 29 21 42 0 12 5 23 10 23 6 0 10 -5 10 -11
0 -8 5 -7 16 2 13 10 17 10 25 -2 5 -8 9 -18 9 -24 0 -5 -4 -4 -9 4 -7 11 -11
10 -20 -5 -8 -14 -11 -15 -11 -4 0 9 -7 4 -15 -12 -8 -15 -24 -29 -35 -33 -22
-7 -27 -25 -7 -25 7 0 21 6 32 13 21 14 92 16 138 2 39 -10 54 6 33 37 -18 28
-19 35 -17 165 1 56 -3 119 -8 141 -21 76 -93 112 -145 71z"/>
<path fill="#ffffff" stroke="none" d="M155 407 c1 -25 -2 -44 -6 -42 -3 3
-14 -4 -24 -15 -17 -18 -45 -27 -45 -15 0 3 11 16 24 28 26 24 49 96 26 82 -9
-5 -11 -4 -6 4 15 24 31 3 31 -42z"/>
<path fill="#ffffff" stroke="none" d="M182 323 c21 -19 23 -44 6 -61 -17 -17
-36 -15 -65 8 -14 11 -22 20 -18 20 4 0 2 7 -5 16 -8 8 -9 14 -4 13 19 -3 35
1 30 9 -9 15 39 11 56 -5z"/>
<path fill="#ffffff" stroke="none" d="M225 103 c11 -26 13 -53 4 -53 -12 0
-39 30 -39 44 0 29 24 34 35 9z"/>
<path fill="#000000" stroke="none" d="M135 310 c-8 -13 4 -32 16 -25 12 8 12
35 0 35 -6 0 -13 -4 -16 -10z"/>
<path fill="#000000" stroke="none" d="M283 95 c0 -8 4 -15 9 -15 4 0 8 4 8 9
0 6 -4 12 -8 15 -5 3 -9 -1 -9 -9z"/>
</g>
</svg>
