<?xml version="1.0" standalone="no"?>
<!DOCTYPE svg PUBLIC "-//W3C//DTD SVG 20010904//EN"
 "http://www.w3.org/TR/2001/REC-SVG-20010904/DTD/svg10.dtd">
<svg version="1.0" xmlns="http://www.w3.org/2000/svg"
 width="32.000000pt" height="48.000000pt" viewBox="0 0 32.000000 48.000000"
 preserveAspectRatio="xMidYMid meet">
<metadata>
Created by potrace 1.16, written by Peter Selinger 2001-2019
</metadata>
<g transform="translate(0.000000,48.000000) scale(0.100000,-0.100000)"
fill="#000000" stroke="none">
<path fill="#000000" stroke="none" d="M168 448 c11 -14 22 -79 12 -73 -3 2
-11 -5 -18 -15 -10 -16 -9 -18 3 -14 8 4 15 1 15 -6 0 -6 4 -9 8 -6 4 2 9 -11
10 -29 2 -24 -4 -41 -19 -56 -20 -20 -21 -20 -42 -2 -13 12 -18 13 -12 3 8
-13 6 -13 -8 -1 -9 7 -15 17 -12 20 2 4 -2 8 -10 8 -8 0 -12 -4 -9 -9 3 -4 1
-8 -5 -8 -5 0 -15 8 -21 18 -22 34 1 -31 35 -100 25 -51 35 -64 44 -55 9 9 14
8 21 -3 5 -8 10 -19 10 -25 0 -5 -4 -4 -9 4 -7 11 -11 10 -20 -5 -8 -14 -11
-15 -11 -4 0 9 -7 4 -15 -12 -8 -15 -24 -29 -35 -33 -22 -7 -27 -25 -7 -25 7
0 21 6 32 13 21 14 92 16 138 2 39 -11 53 6 32 38 -9 14 -15 31 -14 39 2 7 -2
29 -8 49 -7 25 -8 53 -2 85 15 74 2 140 -33 180 -17 19 -37 34 -45 34 -11 0
-13 -4 -5 -12z"/>
<path fill="#ffffff" stroke="none" d="M225 103 c11 -26 13 -53 4 -53 -12 0
-39 30 -39 44 0 29 24 34 35 9z"/>
<path fill="#000000" stroke="none" d="M84 424 c-20 -30 -33 -120 -15 -110 6
4 11 12 11 17 0 6 11 20 24 32 14 12 27 36 31 52 5 26 2 31 -15 32 -12 1 -27
-9 -36 -23z"/>
<path fill="#000000" stroke="none" d="M52 124 c-12 -8 -22 -20 -22 -26 0 -6
9 -3 19 6 24 22 35 7 21 -30 -11 -28 -11 -28 10 -9 13 12 20 28 18 44 -4 31
-17 35 -46 15z"/>
<path fill="#000000" stroke="none" d="M283 95 c0 -8 4 -15 9 -15 4 0 8 4 8 9
0 6 -4 12 -8 15 -5 3 -9 -1 -9 -9z"/>
</g>
</svg>
