<?xml version="1.0" standalone="no"?>
<!DOCTYPE svg PUBLIC "-//W3C//DTD SVG 20010904//EN"
 "http://www.w3.org/TR/2001/REC-SVG-20010904/DTD/svg10.dtd">
<svg version="1.0" xmlns="http://www.w3.org/2000/svg"
 width="32.000000pt" height="48.000000pt" viewBox="0 0 32.000000 48.000000"
 preserveAspectRatio="xMidYMid meet">
<metadata>
Created by potrace 1.16, written by Peter Selinger 2001-2019
</metadata>
<g transform="translate(0.000000,48.000000) scale(0.100000,-0.100000)"
fill="#000000" stroke="none">
<path fill="#000000" stroke="none" d="M0 240 l0 -240 160 0 160 0 0 240 0
240 -160 0 -160 0 0 -240z"/>
<path fill="#ffffff" stroke="none" d="M218 426 c35 -40 48 -106 33 -180 -6
-32 -5 -60 2 -85 6 -20 10 -42 8 -49 -1 -8 5 -25 14 -39 21 -32 7 -49 -32 -38
-46 14 -117 12 -138 -2 -11 -7 -25 -13 -32 -13 -20 0 -15 18 7 25 11 4 27 18
35 33 8 16 15 21 15 12 0 -11 3 -10 11 4 9 15 13 16 20 5 5 -8 9 -9 9 -4 0 6
-5 17 -10 25 -7 11 -12 12 -21 3 -9 -9 -19 4 -44 55 -34 69 -57 134 -35 100 6
-10 16 -18 21 -18 6 0 8 4 5 8 -3 5 1 9 9 9 8 0 12 -4 10 -8 -3 -3 3 -13 12
-20 14 -12 16 -12 8 1 -6 10 -1 9 12 -3 21 -18 22 -18 42 2 15 15 21 32 19 56
-1 18 -6 31 -10 29 -4 -3 -8 0 -8 6 0 7 -7 10 -15 6 -12 -4 -13 -2 -3 14 7 10
15 17 18 15 10 -6 -1 59 -12 73 -8 8 -6 12 5 12 8 0 28 -15 45 -34z"/>
<path fill="#ffffff" stroke="none" d="M135 415 c-4 -16 -17 -40 -31 -52 -13
-12 -24 -26 -24 -32 0 -5 -5 -13 -11 -17 -18 -10 -5 80 15 110 9 14 24 24 36
23 17 -1 20 -6 15 -32z"/>
<path fill="#ffffff" stroke="none" d="M98 109 c2 -16 -5 -32 -18 -44 -21 -19
-21 -19 -10 9 14 37 3 52 -21 30 -10 -9 -19 -12 -19 -6 0 14 41 43 55 39 5 -2
11 -15 13 -28z"/>
<path fill="#ffffff" stroke="none" d="M300 89 c0 -5 -4 -9 -8 -9 -5 0 -9 7
-9 15 0 8 4 12 9 9 4 -3 8 -9 8 -15z"/>
<path fill="#000000" stroke="none" d="M197 113 c-12 -11 -8 -31 9 -47 20 -21
31 -20 29 2 -5 40 -22 61 -38 45z"/>
</g>
</svg>
