<?xml version="1.0" standalone="no"?>
<!DOCTYPE svg PUBLIC "-//W3C//DTD SVG 20010904//EN"
 "http://www.w3.org/TR/2001/REC-SVG-20010904/DTD/svg10.dtd">
<svg version="1.0" xmlns="http://www.w3.org/2000/svg"
 width="32.000000pt" height="32.000000pt" viewBox="0 0 32.000000 32.000000"
 preserveAspectRatio="xMidYMid meet">
<metadata>
Created by potrace 1.16, written by Peter Selinger 2001-2019
</metadata>
<g transform="translate(0.000000,32.000000) scale(0.100000,-0.100000)"
fill="#000000" stroke="none">
<path fill="#000000" stroke="none" d="M2 248 c2 -70 2 -71 5 -15 l4 57 34 0
c19 0 35 5 35 11 0 5 4 8 9 4 5 -3 12 -2 15 3 3 5 -19 10 -49 11 l-55 2 2 -73z"/>
<path fill="#000000" stroke="none" d="M180 305 c0 -11 13 -15 54 -15 l54 0 8
-57 c10 -67 10 -74 1 -130 -6 -35 -4 -43 8 -43 13 0 15 21 15 130 l0 130 -70
0 c-56 0 -70 -3 -70 -15z"/>
<path fill="#000000" stroke="none" d="M75 250 c-3 -6 1 -7 9 -4 18 7 21 14 7
14 -6 0 -13 -4 -16 -10z"/>
<path fill="#000000" stroke="none" d="M3 60 c0 -36 2 -50 4 -32 2 17 2 47 0
65 -2 17 -4 3 -4 -33z"/>
</g>
</svg>
