<?xml version="1.0" standalone="no"?>
<!DOCTYPE svg PUBLIC "-//W3C//DTD SVG 20010904//EN"
 "http://www.w3.org/TR/2001/REC-SVG-20010904/DTD/svg10.dtd">
<svg version="1.0" xmlns="http://www.w3.org/2000/svg"
 width="32.000000pt" height="32.000000pt" viewBox="0 0 32.000000 32.000000"
 preserveAspectRatio="xMidYMid meet">
<metadata>
Created by potrace 1.16, written by Peter Selinger 2001-2019
</metadata>
<g transform="translate(0.000000,32.000000) scale(0.100000,-0.100000)"
fill="#000000" stroke="none">
<path fill="#000000" stroke="none" d="M84 305 c-4 -9 -19 -15 -39 -15 l-32 0
-5 -69 c-3 -38 -3 -103 0 -145 l5 -76 137 0 c76 0 145 3 154 6 21 8 21 54 1
54 -12 0 -14 8 -8 43 9 56 9 63 -1 130 l-8 57 -54 0 c-41 0 -54 4 -54 15 0 19
-60 21 -79 3 -11 -10 -13 -10 -7 0 4 6 5 12 1 12 -3 0 -8 -7 -11 -15z"/>
<path fill="#ffffff" stroke="none" d="M100 256 c0 -2 -7 -7 -16 -10 -8 -3
-12 -2 -9 4 6 10 25 14 25 6z"/>
<path fill="#ffffff" stroke="none" d="M170 190 c0 -5 -4 -10 -10 -10 -5 0
-10 5 -10 10 0 6 5 10 10 10 6 0 10 -4 10 -10z"/>
</g>
</svg>
