<?xml version="1.0" standalone="no"?>
<!DOCTYPE svg PUBLIC "-//W3C//DTD SVG 20010904//EN"
 "http://www.w3.org/TR/2001/REC-SVG-20010904/DTD/svg10.dtd">
<svg version="1.0" xmlns="http://www.w3.org/2000/svg"
 width="32.000000pt" height="32.000000pt" viewBox="0 0 32.000000 32.000000"
 preserveAspectRatio="xMidYMid meet">
<metadata>
Created by potrace 1.16, written by Peter Selinger 2001-2019
</metadata>
<g transform="translate(0.000000,32.000000) scale(0.100000,-0.100000)"
fill="#000000" stroke="none">
<path fill="#000000" stroke="none" d="M0 160 l0 -160 160 0 160 0 0 160 0
160 -65 0 -65 0 21 -21 c15 -15 18 -23 9 -29 -7 -4 1 -10 21 -14 19 -4 38 -1
46 6 12 10 14 9 12 -7 -2 -11 0 -26 5 -33 7 -12 4 -12 -15 -2 l-24 11 22 -18
c39 -33 11 -117 -37 -107 -15 4 -20 2 -13 -3 11 -8 43 -74 43 -88 0 -3 -11 -5
-23 -5 -16 0 -28 9 -35 25 -9 20 -17 24 -49 21 -26 -3 -40 -10 -47 -25 -5 -13
-18 -21 -33 -21 -12 0 -23 2 -23 5 0 2 12 30 26 61 32 70 27 94 -15 65 -31
-22 -61 -28 -61 -12 0 6 11 22 25 37 18 20 22 30 15 40 -8 8 -8 14 0 19 8 5 8
11 -1 21 -23 28 -1 24 30 -5 19 -18 30 -35 25 -42 -4 -8 -3 -9 5 -5 12 8 8 19
-17 49 -14 15 -13 17 4 17 15 0 16 2 5 9 -11 7 -9 13 8 30 l21 21 -70 0 -70 0
0 -160z"/>
<path fill="#000000" stroke="none" d="M205 221 c-3 -5 -2 -12 3 -15 5 -3 9 1
9 9 0 17 -3 19 -12 6z"/>
</g>
</svg>
