<?xml version="1.0" standalone="no"?>
<!DOCTYPE svg PUBLIC "-//W3C//DTD SVG 20010904//EN"
 "http://www.w3.org/TR/2001/REC-SVG-20010904/DTD/svg10.dtd">
<svg version="1.0" xmlns="http://www.w3.org/2000/svg"
 width="31.000000pt" height="32.000000pt" viewBox="0 0 31.000000 32.000000"
 preserveAspectRatio="xMidYMid meet">
<metadata>
Created by potrace 1.16, written by Peter Selinger 2001-2019
</metadata>
<g transform="translate(0.000000,32.000000) scale(0.100000,-0.100000)"
fill="#000000" stroke="none">
<path fill="#000000" stroke="none" d="M113 313 c47 -4 47 -4 49 -41 1 -20 1
-49 0 -64 -2 -22 2 -28 18 -28 13 0 20 7 20 20 0 18 7 20 55 20 l55 0 0 50 0
50 -122 -2 c-68 -1 -102 -3 -75 -5z"/>
<path fill="#000000" stroke="none" d="M127 271 c-4 -17 -3 -21 5 -13 5 5 8
16 6 23 -3 8 -7 3 -11 -10z"/>
<path fill="#000000" stroke="none" d="M2 220 c0 -14 2 -19 5 -12 2 6 2 18 0
25 -3 6 -5 1 -5 -13z"/>
<path fill="#000000" stroke="none" d="M35 200 c-13 -6 -15 -9 -5 -9 8 0 22 4
30 9 18 12 2 12 -25 0z"/>
<path fill="#000000" stroke="none" d="M22 89 c0 -70 3 -89 14 -89 17 0 17 -2
4 79 -11 64 -4 91 23 87 30 -4 37 -20 39 -84 l2 -67 3 64 c5 73 -11 100 -57
99 l-28 -1 0 -88z"/>
<path fill="#000000" stroke="none" d="M0 146 c0 -31 6 -34 13 -6 3 11 1 23
-4 26 -5 3 -9 -6 -9 -20z"/>
<path fill="#000000" stroke="none" d="M270 126 c-8 -8 -28 -22 -45 -30 l-30
-16 26 0 c31 0 74 31 68 49 -3 8 -8 8 -19 -3z"/>
<path fill="#000000" stroke="none" d="M198 123 c6 -2 18 -2 25 0 6 3 1 5 -13
5 -14 0 -19 -2 -12 -5z"/>
<path fill="#000000" stroke="none" d="M156 103 c-6 -14 -5 -15 5 -6 7 7 10
15 7 18 -3 3 -9 -2 -12 -12z"/>
<path fill="#000000" stroke="none" d="M3 50 c0 -30 2 -43 4 -28 2 16 2 40 0
55 -2 16 -4 3 -4 -27z"/>
<path fill="#000000" stroke="none" d="M250 48 c-19 -16 -26 -26 -15 -20 18 9
64 53 54 52 -2 -1 -20 -15 -39 -32z"/>
</g>
</svg>
