<?xml version="1.0" standalone="no"?>
<!DOCTYPE svg PUBLIC "-//W3C//DTD SVG 20010904//EN"
 "http://www.w3.org/TR/2001/REC-SVG-20010904/DTD/svg10.dtd">
<svg version="1.0" xmlns="http://www.w3.org/2000/svg"
 width="31.000000pt" height="32.000000pt" viewBox="0 0 31.000000 32.000000"
 preserveAspectRatio="xMidYMid meet">
<metadata>
Created by potrace 1.16, written by Peter Selinger 2001-2019
</metadata>
<g transform="translate(0.000000,32.000000) scale(0.100000,-0.100000)"
fill="#000000" stroke="none">
<path fill="#000000" stroke="none" d="M115 311 c34 -4 44 -8 33 -13 -10 -4
-18 -14 -18 -23 0 -8 -3 -14 -7 -14 -5 1 -15 1 -23 0 -13 -1 -13 -3 -1 -10 20
-13 39 -3 44 22 3 18 5 17 6 -5 0 -16 6 -28 11 -28 6 0 10 -8 10 -17 0 -14 -2
-15 -9 -5 -6 10 -10 10 -20 -2 -9 -10 -9 -16 -1 -21 6 -4 9 -13 7 -19 -3 -7
-1 -19 4 -27 5 -9 3 -22 -6 -35 -12 -18 -12 -24 -1 -33 10 -8 17 -7 26 4 11
13 10 22 -4 53 l-16 37 25 -30 c23 -28 26 -29 57 -16 18 7 42 14 53 15 18 2
20 11 23 89 l3 87 -123 -2 c-82 -1 -106 -3 -73 -7z"/>
<path fill="#000000" stroke="none" d="M56 297 c3 -10 9 -15 12 -12 3 3 0 11
-7 18 -10 9 -11 8 -5 -6z"/>
<path fill="#000000" stroke="none" d="M2 220 c0 -14 2 -19 5 -12 2 6 2 18 0
25 -3 6 -5 1 -5 -13z"/>
<path fill="#000000" stroke="none" d="M35 200 c-13 -6 -15 -9 -5 -9 8 0 22 4
30 9 18 12 2 12 -25 0z"/>
<path fill="#000000" stroke="none" d="M22 89 c0 -71 3 -89 14 -89 12 0 13 10
7 53 -13 96 -12 102 22 102 30 0 30 0 36 -70 3 -38 6 -60 7 -47 1 14 6 20 13
16 8 -5 8 -1 0 14 -6 11 -11 36 -11 55 0 42 -15 56 -57 55 l-31 -1 0 -88z"/>
<path fill="#000000" stroke="none" d="M0 146 c0 -31 6 -34 13 -6 3 11 1 23
-4 26 -5 3 -9 -6 -9 -20z"/>
<path fill="#000000" stroke="none" d="M236 117 c-22 -12 -40 -29 -41 -37 -3
-21 33 -23 65 -4 17 10 12 3 -12 -20 -21 -20 -33 -36 -27 -36 22 0 81 69 77
91 -4 31 -17 32 -62 6z"/>
<path fill="#000000" stroke="none" d="M46 121 c-3 -5 0 -14 8 -20 10 -8 16
-8 25 3 8 10 9 16 1 21 -6 4 -9 3 -8 -2 2 -4 -1 -9 -7 -10 -5 -2 -9 2 -7 7 3
12 -5 13 -12 1z"/>
<path fill="#000000" stroke="none" d="M3 50 c0 -30 2 -43 4 -28 2 16 2 40 0
55 -2 16 -4 3 -4 -27z"/>
<path fill="#000000" stroke="none" d="M144 26 c11 -9 29 -16 40 -15 17 1 16
2 -6 9 -14 4 -32 11 -40 15 -7 3 -4 -1 6 -9z"/>
</g>
</svg>
