<?xml version="1.0" standalone="no"?>
<!DOCTYPE svg PUBLIC "-//W3C//DTD SVG 20010904//EN"
 "http://www.w3.org/TR/2001/REC-SVG-20010904/DTD/svg10.dtd">
<svg version="1.0" xmlns="http://www.w3.org/2000/svg"
 width="31.000000pt" height="32.000000pt" viewBox="0 0 31.000000 32.000000"
 preserveAspectRatio="xMidYMid meet">
<metadata>
Created by potrace 1.16, written by Peter Selinger 2001-2019
</metadata>
<g transform="translate(0.000000,32.000000) scale(0.100000,-0.100000)"
fill="#000000" stroke="none">
<path fill="#000000" stroke="none" d="M6 312 c-8 -13 -2 -140 7 -148 4 -4 7
-2 7 4 0 7 3 12 8 12 4 0 8 -22 8 -50 1 -27 -2 -47 -6 -45 -5 3 -7 16 -5 30 2
20 0 23 -12 14 -16 -14 -8 -47 18 -72 11 -10 19 -27 19 -38 0 -18 7 -19 130
-18 l130 1 0 109 0 109 -55 0 c-48 0 -55 -2 -55 -20 0 -13 -7 -20 -18 -20 -15
0 -18 10 -19 61 -1 34 -3 63 -5 64 -10 8 -147 14 -152 7z"/>
<path fill="#ffffff" stroke="none" d="M122 123 c-9 -7 -12 -13 -6 -13 5 0 2
-4 -6 -9 -23 -15 -30 -3 -14 27 7 15 14 34 14 42 0 9 6 4 14 -10 11 -21 11
-27 -2 -37z"/>
<path fill="#ffffff" stroke="none" d="M223 123 c-7 -2 -19 -2 -25 0 -7 3 -2
5 12 5 14 0 19 -2 13 -5z"/>
<path fill="#ffffff" stroke="none" d="M270 105 c0 -2 -10 -10 -22 -16 -21
-11 -22 -11 -9 4 13 16 31 23 31 12z"/>
</g>
</svg>
