<?xml version="1.0" standalone="no"?>
<!DOCTYPE svg PUBLIC "-//W3C//DTD SVG 20010904//EN"
 "http://www.w3.org/TR/2001/REC-SVG-20010904/DTD/svg10.dtd">
<svg version="1.0" xmlns="http://www.w3.org/2000/svg"
 width="32.000000pt" height="32.000000pt" viewBox="0 0 32.000000 32.000000"
 preserveAspectRatio="xMidYMid meet">
<metadata>
Created by potrace 1.16, written by Peter Selinger 2001-2019
</metadata>
<g transform="translate(0.000000,32.000000) scale(0.100000,-0.100000)"
fill="#000000" stroke="none">
<path fill="#000000" stroke="none" d="M146 292 c-2 -4 0 -14 6 -22 8 -12 9
-12 5 2 -3 9 -1 19 6 22 9 3 9 5 0 5 -6 1 -14 -3 -17 -7z"/>
<path fill="#000000" stroke="none" d="M175 279 c-4 -6 -5 -12 -2 -15 2 -3 7
2 10 11 7 17 1 20 -8 4z"/>
<path fill="#000000" stroke="none" d="M140 235 c0 -8 5 -15 10 -15 6 0 10 7
10 15 0 8 -4 15 -10 15 -5 0 -10 -7 -10 -15z"/>
<path fill="#000000" stroke="none" d="M264 194 c-18 -14 -18 -15 4 -4 12 6
22 13 22 15 0 8 -5 6 -26 -11z"/>
<path fill="#000000" stroke="none" d="M277 143 c3 -22 0 -51 -6 -64 -12 -23
-11 -23 3 -5 18 22 21 73 7 95 -6 10 -8 1 -4 -26z"/>
<path fill="#000000" stroke="none" d="M90 110 c-41 -21 -72 -39 -67 -40 10 0
147 69 147 75 0 7 3 8 -80 -35z"/>
</g>
</svg>
