<?xml version="1.0" standalone="no"?>
<!DOCTYPE svg PUBLIC "-//W3C//DTD SVG 20010904//EN"
 "http://www.w3.org/TR/2001/REC-SVG-20010904/DTD/svg10.dtd">
<svg version="1.0" xmlns="http://www.w3.org/2000/svg"
 width="32.000000pt" height="32.000000pt" viewBox="0 0 32.000000 32.000000"
 preserveAspectRatio="xMidYMid meet">
<metadata>
Created by potrace 1.16, written by Peter Selinger 2001-2019
</metadata>
<g transform="translate(0.000000,32.000000) scale(0.100000,-0.100000)"
fill="#000000" stroke="none">
<path fill="#000000" stroke="none" d="M19 278 c-1 -18 -3 -64 -4 -103 -2 -44
0 -62 5 -49 5 12 24 30 43 41 39 24 61 71 24 52 -12 -7 -31 -19 -42 -28 -12
-9 -9 -5 5 9 15 14 35 30 46 36 16 9 17 14 7 37 -13 28 -11 30 24 21 13 -4 20
-11 16 -19 -3 -10 2 -13 21 -9 18 3 26 0 26 -9 0 -19 -48 -16 -60 3 -8 13 -10
12 -10 -2 0 -9 4 -20 10 -23 11 -7 1 -67 -13 -76 -5 -4 -11 -19 -12 -33 -2
-15 -9 -34 -16 -42 -9 -11 -9 -18 -1 -26 13 -13 35 0 28 18 -3 7 0 16 7 20 7
4 9 3 4 -1 -4 -5 0 -19 9 -33 10 -15 11 -21 3 -17 -8 5 -10 4 -5 -4 6 -9 11
-9 23 0 12 10 16 10 24 -2 7 -12 9 -11 9 3 0 9 15 28 33 42 20 16 26 26 16 26
-8 0 -21 -6 -29 -12 -8 -7 -5 -2 6 12 22 27 26 57 6 53 -7 -2 -9 4 -5 14 4 11
3 14 -5 9 -7 -4 -12 -1 -12 9 0 8 -7 18 -15 21 -14 6 -14 8 -1 18 9 6 14 23
12 39 -3 32 -16 49 -16 21 0 -15 -2 -16 -9 -5 -6 10 -33 16 -80 18 l-71 4 -1
-33z"/>
<path fill="#ffffff" stroke="none" d="M170 120 c0 -5 -5 -10 -11 -10 -5 0 -7
5 -4 10 3 6 8 10 11 10 2 0 4 -4 4 -10z"/>
<path fill="#000000" stroke="none" d="M214 288 c3 -13 5 -25 6 -28 2 -3 2 -9
1 -13 -1 -5 3 -6 9 -2 8 5 7 12 -2 23 -12 15 -11 16 5 3 9 -7 17 -18 17 -24 0
-5 12 -25 26 -44 14 -19 23 -37 20 -40 -3 -3 -8 2 -12 11 -10 25 -21 10 -16
-23 4 -31 27 -48 38 -29 4 6 3 8 -4 4 -17 -10 -23 10 -7 24 11 9 15 32 15 80
0 75 -4 80 -66 80 -30 0 -33 -3 -30 -22z"/>
<path fill="#000000" stroke="none" d="M236 211 c-4 -5 -2 -12 3 -15 5 -4 12
-2 15 3 4 5 2 12 -3 15 -5 4 -12 2 -15 -3z"/>
<path fill="#000000" stroke="none" d="M71 160 c-8 -4 -11 -13 -7 -18 10 -17
-5 -62 -24 -72 -15 -8 -17 -6 -14 13 4 21 4 21 -5 2 -5 -11 -10 -33 -10 -48
-1 -28 0 -29 39 -24 22 2 43 0 46 -5 3 -5 12 -4 21 4 13 11 13 13 -4 19 -10 3
-22 3 -28 -1 -11 -9 -13 34 -2 60 21 56 16 88 -12 70z"/>
<path fill="#000000" stroke="none" d="M47 129 c4 -13 8 -18 11 -10 2 7 -1 18
-6 23 -8 8 -9 4 -5 -13z"/>
<path fill="#000000" stroke="none" d="M256 85 c-9 -26 -7 -32 5 -12 6 10 9
21 6 23 -2 3 -7 -2 -11 -11z"/>
<path fill="#000000" stroke="none" d="M272 62 c-6 -18 -7 -30 -2 -27 6 4 10
14 10 23 0 15 2 15 10 2 7 -11 10 -11 10 -2 0 7 5 10 12 6 7 -4 8 -3 4 5 -4 6
-11 9 -16 6 -4 -3 -10 0 -12 7 -3 7 -10 -2 -16 -20z"/>
<path fill="#000000" stroke="none" d="M215 67 c-19 -60 -19 -62 -2 -63 21 -1
36 17 32 38 -6 31 -23 45 -30 25z"/>
<path fill="#000000" stroke="none" d="M290 20 c-13 -8 -12 -10 3 -10 9 0 17
5 17 10 0 12 -1 12 -20 0z"/>
<path fill="#000000" stroke="none" d="M158 13 c7 -3 16 -2 19 1 4 3 -2 6 -13
5 -11 0 -14 -3 -6 -6z"/>
</g>
</svg>
