<?xml version="1.0" standalone="no"?>
<!DOCTYPE svg PUBLIC "-//W3C//DTD SVG 20010904//EN"
 "http://www.w3.org/TR/2001/REC-SVG-20010904/DTD/svg10.dtd">
<svg version="1.0" xmlns="http://www.w3.org/2000/svg"
 width="32.000000pt" height="32.000000pt" viewBox="0 0 32.000000 32.000000"
 preserveAspectRatio="xMidYMid meet">
<metadata>
Created by potrace 1.16, written by Peter Selinger 2001-2019
</metadata>
<g transform="translate(0.000000,32.000000) scale(0.100000,-0.100000)"
fill="#000000" stroke="none">
<path fill="#000000" stroke="none" d="M147 194 c-13 -13 -7 -27 6 -15 10 8
17 7 26 -2 11 -10 13 -9 9 3 -5 16 -30 25 -41 14z"/>
<path fill="#000000" stroke="none" d="M130 145 c-7 -9 -5 -16 7 -26 9 -8 14
-9 10 -2 -10 17 11 27 28 13 14 -12 31 2 21 19 -8 13 -54 10 -66 -4z"/>
<path fill="#000000" stroke="none" d="M50 125 c0 -5 5 -17 10 -25 5 -8 10
-10 10 -5 0 6 -5 17 -10 25 -5 8 -10 11 -10 5z"/>
<path fill="#000000" stroke="none" d="M100 100 c0 -3 11 -13 25 -20 14 -7 25
-20 25 -27 0 -8 5 -11 10 -8 19 12 9 30 -25 46 -19 9 -35 13 -35 9z"/>
<path fill="#000000" stroke="none" d="M203 93 c-15 -10 -23 -25 -22 -42 1
-20 2 -22 6 -6 3 11 14 30 26 43 24 26 21 27 -10 5z"/>
<path fill="#000000" stroke="none" d="M276 72 c-3 -5 1 -9 9 -9 8 0 12 4 9 9
-3 4 -7 8 -9 8 -2 0 -6 -4 -9 -8z"/>
</g>
</svg>
