<?xml version="1.0" standalone="no"?>
<!DOCTYPE svg PUBLIC "-//W3C//DTD SVG 20010904//EN"
 "http://www.w3.org/TR/2001/REC-SVG-20010904/DTD/svg10.dtd">
<svg version="1.0" xmlns="http://www.w3.org/2000/svg"
 width="32.000000pt" height="32.000000pt" viewBox="0 0 32.000000 32.000000"
 preserveAspectRatio="xMidYMid meet">
<metadata>
Created by potrace 1.16, written by Peter Selinger 2001-2019
</metadata>
<g transform="translate(0.000000,32.000000) scale(0.100000,-0.100000)"
fill="#000000" stroke="none">
<path fill="#000000" stroke="none" d="M20 286 c0 -13 -3 -45 -6 -72 l-7 -49
29 26 c16 15 39 32 52 38 43 23 14 81 -41 81 -22 0 -27 -5 -27 -24z"/>
<path fill="#000000" stroke="none" d="M100 295 c7 -8 15 -13 19 -10 4 2 5
-10 3 -27 -3 -19 1 -34 9 -39 9 -6 3 -7 -19 -4 -28 5 -39 0 -66 -27 -31 -31
-33 -37 -34 -106 0 -68 1 -72 23 -72 27 0 49 24 41 45 -3 9 -2 23 3 33 20 41
29 82 18 82 -20 0 -40 -17 -33 -28 10 -17 -4 -61 -23 -71 -13 -8 -16 -4 -16
23 0 35 27 70 67 85 33 12 41 4 23 -23 -8 -11 -15 -30 -15 -43 0 -12 -4 -24
-9 -27 -10 -7 -8 -57 3 -75 14 -22 37 8 29 38 -6 23 -5 25 10 12 19 -15 23
-26 5 -15 -7 4 -8 3 -4 -5 6 -9 11 -9 23 0 11 10 16 10 22 0 6 -9 10 -6 15 11
5 14 9 18 13 10 3 -7 3 -18 0 -25 -7 -19 -3 -31 10 -33 21 -3 28 18 28 81 0
33 5 61 10 62 10 2 10 -12 0 -67 -4 -22 -3 -22 10 5 16 35 20 10 5 -30 -7 -17
-7 -24 0 -20 6 3 10 14 10 23 0 15 2 15 10 2 7 -11 10 -11 10 -2 0 7 5 10 12
6 7 -5 8 -3 3 6 -5 7 -7 61 -7 119 2 116 0 121 -60 121 -43 0 -47 -9 -18 -35
11 -10 20 -23 20 -28 0 -6 12 -25 26 -44 14 -19 24 -36 22 -38 -2 -2 -12 9
-23 25 -19 29 -61 50 -52 27 2 -7 -2 -18 -9 -25 -17 -16 -19 0 -3 29 5 11 15
17 22 13 7 -4 -1 7 -16 24 -16 16 -28 33 -27 37 1 4 -1 9 -4 12 -3 4 -6 1 -6
-6 0 -8 -5 -9 -19 -1 -11 5 -32 10 -47 10 -22 0 -25 -2 -14 -15z"/>
<path fill="#ffffff" stroke="none" d="M187 254 c2 -6 -8 -10 -24 -9 -14 0
-28 6 -30 11 -2 6 8 10 24 9 14 0 28 -6 30 -11z"/>
<path fill="#ffffff" stroke="none" d="M297 78 c-3 -7 -5 -2 -5 12 0 14 2 19
5 13 2 -7 2 -19 0 -25z"/>
<path fill="#000000" stroke="none" d="M215 270 c10 -11 20 -20 23 -20 3 0 -3
9 -13 20 -10 11 -20 20 -23 20 -3 0 3 -9 13 -20z"/>
<path fill="#000000" stroke="none" d="M50 124 c0 -16 -2 -17 -10 -4 -11 18
-12 3 -1 -25 7 -17 9 -16 15 9 4 16 5 31 1 34 -3 3 -5 -3 -5 -14z"/>
<path fill="#000000" stroke="none" d="M290 20 c-13 -8 -12 -10 3 -10 9 0 17
5 17 10 0 12 -1 12 -20 0z"/>
<path fill="#000000" stroke="none" d="M158 13 c7 -3 16 -2 19 1 4 3 -2 6 -13
5 -11 0 -14 -3 -6 -6z"/>
</g>
</svg>
