<?xml version="1.0" standalone="no"?>
<!DOCTYPE svg PUBLIC "-//W3C//DTD SVG 20010904//EN"
 "http://www.w3.org/TR/2001/REC-SVG-20010904/DTD/svg10.dtd">
<svg version="1.0" xmlns="http://www.w3.org/2000/svg"
 width="32.000000pt" height="32.000000pt" viewBox="0 0 32.000000 32.000000"
 preserveAspectRatio="xMidYMid meet">
<metadata>
Created by potrace 1.16, written by Peter Selinger 2001-2019
</metadata>
<g transform="translate(0.000000,32.000000) scale(0.100000,-0.100000)"
fill="#000000" stroke="none">
<path fill="#000000" stroke="none" d="M0 160 l0 -160 160 0 160 0 0 160 0
160 -160 0 -160 0 0 -160z"/>
<path fill="#ffffff" stroke="none" d="M197 297 c6 -4 10 -15 9 -25 -2 -9 10
-32 25 -50 16 -18 29 -40 29 -50 0 -9 3 -28 7 -41 4 -17 3 -22 -5 -17 -7 4
-12 16 -12 26 0 10 -12 32 -26 49 -14 17 -22 36 -18 42 4 8 3 9 -4 5 -7 -4
-12 -2 -12 4 0 6 -5 8 -12 3 -26 -16 -38 -11 -38 16 0 42 24 58 57 38z"/>
<path fill="#ffffff" stroke="none" d="M120 215 c-7 -8 -9 -15 -5 -15 4 0 2
-6 -4 -13 -6 -8 -7 -18 -3 -22 4 -5 2 -5 -4 -2 -7 4 -14 -2 -17 -13 -3 -11
-10 -20 -16 -20 -19 0 -12 21 15 42 14 11 23 23 20 26 -6 5 12 32 21 32 3 0 0
-7 -7 -15z"/>
<path fill="#ffffff" stroke="none" d="M192 206 c13 -6 17 -17 14 -39 -3 -28
-7 -32 -32 -32 -26 0 -29 3 -30 35 -1 52 4 55 48 36z"/>
<path fill="#ffffff" stroke="none" d="M240 138 c0 -10 -5 -18 -11 -18 -6 0
-9 -6 -6 -13 6 -16 -22 -19 -40 -5 -7 5 -14 5 -17 -1 -7 -10 -36 -4 -36 8 0
12 70 10 71 -2 0 -7 7 1 14 18 7 16 11 36 8 45 -4 13 -4 13 6 0 6 -8 11 -23
11 -32z"/>
<path fill="#ffffff" stroke="none" d="M159 63 c7 -13 4 -22 -11 -35 -24 -20
-38 -23 -38 -8 0 6 10 14 22 19 14 5 17 10 10 15 -7 4 -12 11 -12 17 0 15 18
10 29 -8z"/>
<path fill="#ffffff" stroke="none" d="M225 70 c3 -5 -1 -10 -9 -10 -9 0 -16
5 -16 10 0 6 4 10 9 10 6 0 13 -4 16 -10z"/>
<path fill="#ffffff" stroke="none" d="M235 32 c0 -20 -18 -18 -21 1 -1 10 3
16 9 14 7 -2 12 -9 12 -15z"/>
<path fill="#000000" stroke="none" d="M183 293 c4 -3 1 -13 -6 -22 -11 -14
-10 -14 5 -2 16 12 16 31 1 31 -4 0 -3 -3 0 -7z"/>
</g>
</svg>
