<?xml version="1.0" standalone="no"?>
<!DOCTYPE svg PUBLIC "-//W3C//DTD SVG 20010904//EN"
 "http://www.w3.org/TR/2001/REC-SVG-20010904/DTD/svg10.dtd">
<svg version="1.0" xmlns="http://www.w3.org/2000/svg"
 width="32.000000pt" height="48.000000pt" viewBox="0 0 32.000000 48.000000"
 preserveAspectRatio="xMidYMid meet">
<metadata>
Created by potrace 1.16, written by Peter Selinger 2001-2019
</metadata>
<g transform="translate(0.000000,48.000000) scale(0.100000,-0.100000)"
fill="#000000" stroke="none">
<path fill="#000000" stroke="none" d="M1 458 c1 -17 2 -19 6 -5 5 19 14 22
29 8 5 -5 24 -3 44 4 l35 13 -57 1 c-54 1 -58 -1 -57 -21z"/>
<path fill="#000000" stroke="none" d="M145 472 c-36 -7 -38 -20 -2 -17 24 2
34 0 31 -8 -2 -7 0 -19 6 -27 7 -12 12 -12 22 -2 10 10 10 16 0 32 -11 19 -11
19 7 8 11 -6 17 -18 14 -27 -4 -13 -3 -13 5 -3 7 11 15 6 37 -20 15 -18 24
-26 20 -18 -5 8 -17 25 -28 38 -11 12 -16 22 -11 22 15 0 40 -22 52 -45 9 -18
10 -17 9 5 0 14 2 35 7 48 7 21 5 22 -46 21 -49 -1 -50 -2 -22 -10 17 -5 38
-16 45 -26 12 -14 10 -14 -14 2 -15 10 -30 15 -34 12 -3 -4 -15 -1 -27 5 -24
13 -42 16 -71 10z"/>
<path fill="#000000" stroke="none" d="M23 408 c1 -29 -2 -58 -5 -64 -4 -5 -3
-16 2 -24 10 -17 40 -22 40 -7 0 6 9 20 19 31 20 21 20 21 -11 21 -19 0 -33 6
-35 15 -4 13 -3 13 6 0 9 -13 12 -13 23 -1 7 8 8 11 2 8 -7 -4 -17 0 -24 8 -7
8 -11 15 -9 16 32 6 39 5 39 -4 0 -8 3 -7 9 1 7 11 9 10 15 -3 4 -12 10 -14
23 -7 12 7 24 5 40 -5 26 -17 28 -14 12 21 -10 22 -17 25 -55 21 -24 -2 -48
-6 -53 -9 -5 -4 -16 3 -24 15 -14 19 -15 17 -14 -33z"/>
<path fill="#ffffff" stroke="none" d="M130 420 c0 -14 -28 -19 -33 -6 -3 6 4
13 14 13 10 1 19 -2 19 -7z"/>
<path fill="#ffffff" stroke="none" d="M54 341 c3 -5 0 -14 -8 -20 -10 -9 -15
-8 -19 3 -9 22 15 37 27 17z"/>
<path fill="#000000" stroke="none" d="M65 450 c-13 -6 -15 -9 -5 -9 8 0 22 4
30 9 18 12 2 12 -25 0z"/>
<path fill="#000000" stroke="none" d="M1 364 c0 -11 3 -14 6 -6 3 7 2 16 -1
19 -3 4 -6 -2 -5 -13z"/>
<path fill="#000000" stroke="none" d="M240 371 c0 -5 5 -13 10 -16 6 -3 10
-2 10 4 0 5 -4 13 -10 16 -5 3 -10 2 -10 -4z"/>
<path fill="#000000" stroke="none" d="M247 313 c-3 -5 -2 -15 2 -22 7 -10 10
-10 16 -1 4 6 3 16 -3 22 -5 5 -12 6 -15 1z"/>
<path fill="#000000" stroke="none" d="M124 299 c-6 -11 8 -17 34 -15 12 0 21
5 20 10 -3 11 -48 15 -54 5z"/>
<path fill="#000000" stroke="none" d="M46 281 c-3 -5 1 -12 10 -15 27 -11 37
-7 24 9 -14 17 -26 19 -34 6z"/>
<path fill="#000000" stroke="none" d="M265 270 c-10 -17 12 -37 25 -24 8 8 6
15 -4 23 -10 9 -16 9 -21 1z"/>
<path fill="#000000" stroke="none" d="M101 256 c-10 -12 -8 -13 8 -9 12 3 18
9 15 14 -7 12 -10 11 -23 -5z"/>
<path fill="#000000" stroke="none" d="M24 238 c6 -20 -10 -25 -17 -5 -3 6 -5
3 -4 -8 1 -14 8 -20 26 -21 14 -1 20 1 12 4 -10 3 -5 9 15 18 22 10 23 12 5 8
-14 -4 -27 -1 -33 7 -8 11 -9 10 -4 -3z"/>
<path fill="#000000" stroke="none" d="M227 234 c-4 -4 -7 -11 -7 -15 0 -10
24 -5 28 6 4 12 -12 18 -21 9z"/>
<path fill="#000000" stroke="none" d="M22 110 c1 -47 3 -78 5 -69 2 9 14 21
26 28 21 11 21 11 -3 6 -22 -4 -21 -3 5 10 17 8 39 15 50 15 15 1 13 5 -12 16
-17 7 -34 17 -37 22 -9 15 6 52 18 45 6 -3 8 -2 3 2 -4 5 -18 9 -32 10 -25 1
-25 1 -23 -85z"/>
<path fill="#000000" stroke="none" d="M81 178 c-26 -42 6 -59 40 -20 23 26
23 26 2 8 -24 -20 -29 -16 -14 13 14 24 -12 24 -28 -1z"/>
<path fill="#000000" stroke="none" d="M254 175 c-9 -24 22 -53 38 -37 9 9 10
17 2 29 -15 24 -33 27 -40 8z"/>
<path fill="#000000" stroke="none" d="M174 172 c4 -3 14 -7 22 -8 9 -1 13 0
10 4 -4 3 -14 7 -22 8 -9 1 -13 0 -10 -4z"/>
<path fill="#000000" stroke="none" d="M4 85 c0 -50 1 -71 3 -48 2 23 2 64 0
90 -2 26 -3 8 -3 -42z"/>
<path fill="#000000" stroke="none" d="M215 109 c-4 -6 -4 -13 -1 -16 3 -4 6
-1 6 6 0 7 5 9 12 5 7 -4 8 -3 4 4 -9 15 -13 15 -21 1z"/>
<path fill="#000000" stroke="none" d="M148 82 c4 -10 7 -12 10 -4 2 7 9 9 15
5 7 -3 8 -2 4 2 -14 16 -36 14 -29 -3z"/>
<path fill="#000000" stroke="none" d="M178 76 c-16 -22 -16 -23 33 -25 40 -2
49 1 49 15 0 10 -5 14 -14 11 -7 -3 -22 0 -32 8 -16 11 -21 10 -36 -9z"/>
<path fill="#000000" stroke="none" d="M130 71 c0 -6 -17 -12 -37 -14 -33 -4
-31 -4 8 -4 35 1 46 4 42 14 -6 15 -13 17 -13 4z"/>
<path fill="#000000" stroke="none" d="M78 3 c7 -3 16 -2 19 1 4 3 -2 6 -13 5
-11 0 -14 -3 -6 -6z"/>
</g>
</svg>
