<?xml version="1.0" standalone="no"?>
<!DOCTYPE svg PUBLIC "-//W3C//DTD SVG 20010904//EN"
 "http://www.w3.org/TR/2001/REC-SVG-20010904/DTD/svg10.dtd">
<svg version="1.0" xmlns="http://www.w3.org/2000/svg"
 width="32.000000pt" height="48.000000pt" viewBox="0 0 32.000000 48.000000"
 preserveAspectRatio="xMidYMid meet">
<metadata>
Created by potrace 1.16, written by Peter Selinger 2001-2019
</metadata>
<g transform="translate(0.000000,48.000000) scale(0.100000,-0.100000)"
fill="#000000" stroke="none">
<path fill="#000000" stroke="none" d="M78 466 c-26 -9 -40 -10 -47 -3 -19 19
-25 -2 -28 -90 -2 -66 1 -93 13 -111 13 -20 14 -26 3 -32 -16 -11 -20 -38 -5
-37 6 0 20 -1 31 -2 l20 -2 -20 -9 c-15 -7 -16 -9 -4 -9 11 -1 15 -8 12 -24
-3 -14 2 -29 11 -36 14 -12 12 -15 -16 -30 -25 -12 -34 -24 -36 -46 -3 -28 0
-31 30 -33 27 -1 30 0 16 9 -22 13 -23 35 -2 43 26 10 64 7 64 -5 0 -8 4 -9
13 0 8 6 17 7 21 3 13 -12 30 -8 44 10 7 10 19 18 25 18 8 0 8 -3 -1 -9 -11
-7 -10 -10 3 -15 19 -7 29 -2 68 33 28 27 38 81 15 81 -9 0 -8 4 2 10 12 8 12
10 -5 11 -15 0 -16 2 -5 7 16 7 25 32 12 32 -10 0 -9 82 2 98 4 7 5 16 2 19
-3 4 -6 0 -6 -7 0 -9 -5 -8 -19 4 -11 10 -17 24 -15 31 3 7 1 16 -5 20 -13 7
-15 25 -3 25 5 0 14 -12 21 -27 9 -19 15 -23 23 -15 16 16 -3 56 -36 77 -33
22 -150 28 -198 11z"/>
<path fill="#ffffff" stroke="none" d="M179 460 c-7 -5 -4 -12 10 -22 11 -8
18 -18 15 -21 -4 -4 -15 5 -26 18 -11 14 -25 25 -33 25 -7 0 3 -17 21 -37 36
-39 38 -50 11 -67 -19 -12 -54 4 -50 22 1 5 -6 8 -17 5 -11 -3 -18 -8 -15 -12
2 -4 -9 -5 -26 -3 -16 2 -29 8 -29 12 0 5 8 7 18 5 22 -3 52 12 52 28 0 7 -3
8 -8 2 -10 -14 -32 -17 -32 -4 0 8 -6 7 -17 -2 -9 -8 -14 -9 -10 -3 3 6 0 11
-7 11 -24 0 -2 -51 25 -58 l24 -7 -27 -1 c-24 -1 -53 -21 -29 -21 5 0 8 -11 7
-24 -3 -21 0 -23 24 -16 37 11 59 -3 41 -24 -19 -23 -68 -20 -81 3 -13 25 -13
64 0 77 7 7 7 19 1 35 -10 27 -3 88 8 70 5 -7 21 -6 51 4 46 14 120 17 99 5z"/>
<path fill="#ffffff" stroke="none" d="M293 429 c9 -11 17 -29 17 -38 -1 -10
-6 -6 -16 11 -8 15 -23 32 -33 38 -17 8 -19 6 -17 -14 2 -16 -1 -23 -9 -19 -7
2 -16 0 -20 -6 -3 -7 2 -11 14 -11 11 0 25 -9 31 -19 13 -25 13 -29 -2 -34 -7
-2 -5 -3 5 -2 9 2 17 -1 17 -7 0 -5 3 -7 8 -5 4 3 8 -15 9 -39 1 -24 -2 -44
-6 -44 -4 0 -21 -12 -36 -26 -27 -25 -29 -25 -36 -8 -5 13 0 25 16 39 20 18
21 23 11 48 -12 26 -30 29 -20 2 3 -7 -5 -20 -18 -29 -12 -9 -18 -16 -12 -16
5 0 15 5 21 11 6 6 17 9 24 7 7 -2 -4 -12 -23 -21 -36 -17 -73 -14 -62 5 4 7
-5 8 -26 3 -23 -5 -30 -4 -26 4 4 6 11 9 15 6 5 -2 6 7 3 20 -2 14 -8 22 -13
19 -5 -3 -9 -2 -9 3 1 12 30 49 30 37 0 -5 11 -9 25 -9 14 0 25 4 25 9 0 6 6
1 14 -9 13 -18 14 -18 9 9 -4 22 -3 27 7 21 9 -6 9 -3 0 15 -9 16 -9 25 -1 33
13 13 15 41 3 33 -5 -3 -9 1 -9 8 0 20 68 1 90 -25z"/>
<path fill="#ffffff" stroke="none" d="M110 341 c0 -5 -7 -14 -16 -22 -13 -10
-17 -10 -25 2 -7 11 -9 10 -9 -5 0 -21 -13 -14 -16 9 -1 8 5 12 17 10 10 -2
21 0 24 6 8 11 25 12 25 0z"/>
<path fill="#ffffff" stroke="none" d="M80 230 c0 -5 -6 -10 -12 -11 -10 0
-10 -2 0 -6 6 -2 12 -10 12 -18 0 -10 -8 -9 -36 4 l-36 16 29 12 c35 15 43 16
43 3z"/>
<path fill="#ffffff" stroke="none" d="M116 198 c5 -7 3 -8 -6 -3 -9 5 -11 4
-6 -4 6 -9 11 -9 21 -1 8 6 31 10 52 8 43 -3 50 -18 32 -64 -7 -16 -11 -33
-10 -39 1 -5 -3 -5 -10 2 -6 7 -15 28 -18 49 l-6 36 -20 -23 c-11 -12 -15 -19
-8 -15 17 10 35 -29 27 -60 -5 -19 -4 -25 5 -20 6 4 8 13 5 19 -4 8 -2 7 7 -1
12 -11 12 -14 -1 -22 -8 -5 -19 -5 -26 0 -6 6 -14 7 -17 4 -3 -4 -5 6 -4 21 2
23 -4 30 -30 39 -45 16 -47 21 -22 55 26 35 25 35 35 19z"/>
<path fill="#ffffff" stroke="none" d="M289 182 c17 -31 17 -74 1 -80 -12 -4
-13 -3 -2 10 10 13 9 15 -13 11 -21 -5 -23 -8 -14 -25 8 -16 8 -23 -2 -29 -17
-11 -29 -11 -28 -2 1 5 1 17 0 28 -1 17 -3 18 -12 5 -9 -12 -10 -12 -5 3 3 10
6 25 6 33 0 9 4 13 9 10 5 -4 7 3 4 15 -10 36 38 54 56 21z"/>
<path fill="#ffffff" stroke="none" d="M126 81 c-4 -6 -20 -11 -35 -11 -38 0
-66 -22 -57 -46 5 -14 4 -16 -4 -8 -23 23 -6 49 43 65 26 8 46 18 44 21 -2 3
0 2 6 -2 5 -5 6 -13 3 -19z"/>
<path fill="#000000" stroke="none" d="M240 90 c0 -5 5 -10 11 -10 5 0 7 5 4
10 -3 6 -8 10 -11 10 -2 0 -4 -4 -4 -10z"/>
<path fill="#000000" stroke="none" d="M95 21 c-19 -8 -19 -8 2 -15 36 -11
223 -4 223 9 0 13 -195 18 -225 6z"/>
</g>
</svg>
