<?xml version="1.0" standalone="no"?>
<!DOCTYPE svg PUBLIC "-//W3C//DTD SVG 20010904//EN"
 "http://www.w3.org/TR/2001/REC-SVG-20010904/DTD/svg10.dtd">
<svg version="1.0" xmlns="http://www.w3.org/2000/svg"
 width="32.000000pt" height="48.000000pt" viewBox="0 0 32.000000 48.000000"
 preserveAspectRatio="xMidYMid meet">
<metadata>
Created by potrace 1.16, written by Peter Selinger 2001-2019
</metadata>
<g transform="translate(0.000000,48.000000) scale(0.100000,-0.100000)"
fill="#000000" stroke="none">
<path fill="#000000" stroke="none" d="M80 466 c-24 -9 -39 -10 -48 -3 -7 5
-16 7 -20 3 -6 -7 -8 -154 -3 -383 l1 -81 155 0 155 1 -1 231 c-1 127 -3 223
-6 214 -4 -16 -7 -16 -32 3 -35 25 -149 34 -201 15z"/>
<path fill="#ffffff" stroke="none" d="M212 444 c-5 -29 -21 -41 -32 -24 -6 8
-8 20 -6 27 3 8 -7 10 -30 8 -18 -2 -31 1 -28 6 3 5 26 7 52 6 40 -3 47 -6 44
-23z"/>
<path fill="#ffffff" stroke="none" d="M37 413 c-4 -3 -1 -13 6 -21 10 -13 9
-14 -2 -8 -9 6 -12 5 -9 -5 3 -8 18 -14 36 -14 31 0 31 0 11 -21 -10 -11 -19
-25 -19 -30 0 -6 -7 -11 -15 -11 -10 0 -12 4 -5 12 5 7 6 16 2 20 -4 5 -1 5 7
0 10 -6 12 -4 7 4 -5 7 -13 10 -20 8 -7 -3 -13 7 -14 25 -2 29 4 48 15 48 4 0
3 -3 0 -7z"/>
<path fill="#ffffff" stroke="none" d="M124 261 c3 -5 -3 -11 -15 -14 -16 -4
-18 -3 -8 9 13 16 16 17 23 5z"/>
<path fill="#ffffff" stroke="none" d="M59 172 c-11 -29 -5 -39 32 -55 l29
-12 -50 -16 -50 -16 0 61 c0 58 1 61 24 61 21 0 22 -3 15 -23z"/>
<path fill="#ffffff" stroke="none" d="M214 88 c-5 -8 9 -12 34 -9 6 1 12 -5
12 -14 0 -13 -10 -16 -50 -14 -36 2 -47 6 -40 14 5 7 6 16 2 20 -4 5 -1 5 6 1
6 -4 12 -3 12 2 0 5 7 9 15 9 8 0 12 -4 9 -9z"/>
<path fill="#ffffff" stroke="none" d="M144 62 c3 -5 -16 -9 -42 -9 l-47 -1
40 8 c22 4 41 8 42 9 1 0 4 -3 7 -7z"/>
</g>
</svg>
