<?xml version="1.0" standalone="no"?>
<!DOCTYPE svg PUBLIC "-//W3C//DTD SVG 20010904//EN"
 "http://www.w3.org/TR/2001/REC-SVG-20010904/DTD/svg10.dtd">
<svg version="1.0" xmlns="http://www.w3.org/2000/svg"
 width="32.000000pt" height="32.000000pt" viewBox="0 0 32.000000 32.000000"
 preserveAspectRatio="xMidYMid meet">
<metadata>
Created by potrace 1.16, written by Peter Selinger 2001-2019
</metadata>
<g transform="translate(0.000000,32.000000) scale(0.100000,-0.100000)"
fill="#000000" stroke="none">
<path fill="#000000" stroke="none" d="M0 265 c0 -30 4 -55 8 -55 12 0 42 34
42 47 0 22 87 54 137 51 46 -3 48 -4 46 -30 -1 -20 3 -28 14 -28 13 0 13 -3 3
-15 -14 -16 -11 -18 37 -19 l33 -1 0 53 0 52 -160 0 -160 0 0 -55z"/>
<path fill="#000000" stroke="none" d="M40 224 c-25 -29 -30 -43 -28 -72 2
-19 8 -37 15 -39 7 -3 10 3 6 15 -6 25 13 38 32 22 18 -15 19 -6 4 22 -9 16
-7 26 11 52 13 17 17 25 9 19 -18 -18 -34 -16 -19 2 26 31 1 13 -30 -21z"/>
<path fill="#000000" stroke="none" d="M110 213 c-24 -30 -22 -48 6 -48 14 0
18 6 16 24 -1 13 3 30 9 37 8 9 8 14 1 14 -6 0 -20 -12 -32 -27z"/>
<path fill="#ffffff" stroke="none" d="M130 178 c0 -4 -7 -8 -15 -8 -8 0 -15
4 -15 8 0 5 7 9 15 9 8 0 15 -4 15 -9z"/>
<path fill="#000000" stroke="none" d="M187 223 c-11 -10 13 -32 29 -26 11 4
12 9 3 19 -13 15 -22 18 -32 7z"/>
<path fill="#000000" stroke="none" d="M286 198 c-13 -40 -15 -67 -6 -73 5 -3
10 -11 10 -18 0 -6 -7 -1 -16 11 -8 12 -12 28 -8 35 4 7 3 8 -2 4 -22 -21 -13
-141 11 -151 8 -3 14 -2 13 2 -4 14 14 72 20 68 4 -2 5 18 4 45 -3 29 -8 47
-14 43 -6 -4 -5 2 1 14 7 14 8 23 1 27 -6 3 -12 0 -14 -7z"/>
<path fill="#000000" stroke="none" d="M247 189 c7 -7 15 -10 18 -7 3 3 -2 9
-12 12 -14 6 -15 5 -6 -5z"/>
<path fill="#000000" stroke="none" d="M176 155 c-11 -8 -15 -15 -9 -15 6 0
16 7 23 15 16 19 11 19 -14 0z"/>
<path fill="#000000" stroke="none" d="M225 111 c-3 -5 -1 -12 5 -16 5 -3 10
1 10 9 0 18 -6 21 -15 7z"/>
<path fill="#000000" stroke="none" d="M0 51 c0 -47 2 -51 24 -51 13 0 27 6
29 13 4 9 6 9 6 0 1 -7 5 -13 10 -13 5 0 7 9 4 20 -3 11 -9 18 -13 15 -15 -9
-21 14 -10 35 9 16 8 18 -5 14 -8 -4 -22 -1 -30 6 -13 11 -15 5 -15 -39z"/>
<path fill="#000000" stroke="none" d="M85 87 c-12 -10 -14 -16 -7 -21 7 -4
12 -3 12 2 0 5 10 14 23 20 14 7 17 11 6 11 -8 1 -23 -5 -34 -12z"/>
<path fill="#000000" stroke="none" d="M192 71 c2 -7 7 -12 11 -12 12 1 9 15
-3 20 -7 2 -11 -2 -8 -8z"/>
<path fill="#000000" stroke="none" d="M107 26 c-4 -10 -1 -13 8 -9 8 3 12 9
9 14 -7 12 -11 11 -17 -5z"/>
</g>
</svg>
