<?xml version="1.0" standalone="no"?>
<!DOCTYPE svg PUBLIC "-//W3C//DTD SVG 20010904//EN"
 "http://www.w3.org/TR/2001/REC-SVG-20010904/DTD/svg10.dtd">
<svg version="1.0" xmlns="http://www.w3.org/2000/svg"
 width="32.000000pt" height="32.000000pt" viewBox="0 0 32.000000 32.000000"
 preserveAspectRatio="xMidYMid meet">
<metadata>
Created by potrace 1.16, written by Peter Selinger 2001-2019
</metadata>
<g transform="translate(0.000000,32.000000) scale(0.100000,-0.100000)"
fill="#000000" stroke="none">
<path fill="#000000" stroke="none" d="M93 289 c-24 -12 -43 -27 -43 -34 0 -8
-11 -22 -25 -33 -21 -16 -25 -28 -25 -70 0 -55 14 -75 51 -68 13 3 28 5 32 5
5 1 6 5 2 10 -3 5 0 13 6 17 8 4 9 3 5 -4 -4 -7 -1 -12 9 -12 10 0 13 5 9 13
-5 7 -1 6 10 -3 11 -8 14 -16 7 -18 -6 -2 -9 -8 -6 -12 3 -5 0 -12 -6 -16 -8
-4 -9 -3 -5 4 4 7 2 12 -4 12 -6 0 -13 -7 -17 -15 -5 -14 -8 -14 -24 1 -24 22
-24 3 -1 -36 14 -23 21 -27 30 -18 16 16 15 31 0 22 -10 -5 -10 -4 -1 6 10 11
15 11 28 0 16 -13 15 -15 -1 -27 -16 -11 -3 -13 88 -12 l107 2 -2 106 -2 106
-25 -2 c-41 -3 -54 5 -40 22 10 12 10 15 -3 15 -11 0 -15 8 -14 28 2 26 0 27
-48 30 -35 2 -62 -4 -92 -19z"/>
<path fill="#ffffff" stroke="none" d="M135 285 c-16 -7 -23 -14 -15 -14 9 -1
0 -16 -24 -40 -32 -33 -36 -42 -27 -59 16 -29 14 -37 -6 -21 -15 13 -16 11
-10 -11 6 -24 6 -24 -10 -5 -15 20 -15 20 -10 -3 4 -15 1 -22 -6 -19 -7 2 -13
20 -15 39 -2 29 3 44 30 74 36 41 85 74 108 74 8 -1 2 -7 -15 -15z"/>
<path fill="#ffffff" stroke="none" d="M195 291 c3 -5 2 -12 -3 -15 -5 -3 -9
1 -9 9 0 17 3 19 12 6z"/>
<path fill="#ffffff" stroke="none" d="M146 223 c-8 -19 -5 -29 6 -26 4 2 5
-4 2 -12 -7 -17 -39 -29 -54 -20 -17 11 -11 35 16 62 27 27 41 25 30 -4z"/>
<path fill="#ffffff" stroke="none" d="M227 217 c4 -8 16 -16 26 -20 9 -3 17
-12 17 -18 0 -7 -8 -6 -24 4 -13 9 -27 12 -32 7 -12 -11 -48 15 -39 29 9 15
42 14 52 -2z"/>
<path fill="#ffffff" stroke="none" d="M308 154 c3 -50 -14 -130 -30 -140 -16
-10 -22 5 -24 59 -3 68 -6 79 -24 95 -13 11 -11 11 8 2 27 -13 42 -6 42 21 0
12 5 19 13 17 7 -3 13 -26 15 -54z"/>
<path fill="#ffffff" stroke="none" d="M201 157 c-6 -8 -7 -18 -3 -22 4 -5 -1
-5 -11 -2 -10 4 -21 7 -25 7 -9 0 32 29 42 30 5 0 3 -6 -3 -13z"/>
<path fill="#ffffff" stroke="none" d="M155 130 c7 -12 -2 -12 -30 0 -19 8
-19 9 2 9 12 1 25 -3 28 -9z"/>
<path fill="#ffffff" stroke="none" d="M240 104 c0 -8 -5 -12 -10 -9 -6 4 -8
11 -5 16 9 14 15 11 15 -7z"/>
<path fill="#ffffff" stroke="none" d="M216 79 c3 -6 1 -16 -5 -22 -9 -9 -14
-8 -21 3 -5 8 -10 18 -10 23 0 11 28 8 36 -4z"/>
<path fill="#ffffff" stroke="none" d="M205 20 c-3 -5 -12 -10 -18 -10 -7 0
-6 4 3 10 19 12 23 12 15 0z"/>
<path fill="#000000" stroke="none" d="M85 260 c-3 -5 -2 -10 4 -10 5 0 13 5
16 10 3 6 2 10 -4 10 -5 0 -13 -4 -16 -10z"/>
<path fill="#000000" stroke="none" d="M106 178 c3 -5 10 -6 15 -3 13 9 11 12
-6 12 -8 0 -12 -4 -9 -9z"/>
</g>
</svg>
