<?xml version="1.0" standalone="no"?>
<!DOCTYPE svg PUBLIC "-//W3C//DTD SVG 20010904//EN"
 "http://www.w3.org/TR/2001/REC-SVG-20010904/DTD/svg10.dtd">
<svg version="1.0" xmlns="http://www.w3.org/2000/svg"
 width="32.000000pt" height="32.000000pt" viewBox="0 0 32.000000 32.000000"
 preserveAspectRatio="xMidYMid meet">
<metadata>
Created by potrace 1.16, written by Peter Selinger 2001-2019
</metadata>
<g transform="translate(0.000000,32.000000) scale(0.100000,-0.100000)"
fill="#000000" stroke="none">
<path fill="#000000" stroke="none" d="M93 289 c-24 -12 -43 -27 -43 -34 0 -8
-11 -22 -25 -33 -46 -37 -29 -157 20 -138 13 4 14 2 5 -14 -11 -21 -5 -44 10
-35 4 3 10 -4 13 -15 5 -19 13 -21 126 -19 l120 2 -2 106 -2 106 -25 -2 c-41
-3 -54 5 -40 22 10 12 10 15 -3 15 -11 0 -15 8 -14 28 2 26 0 27 -48 30 -35 2
-62 -4 -92 -19z"/>
<path fill="#ffffff" stroke="none" d="M141 226 c-6 -7 -10 -24 -9 -37 2 -18
-2 -24 -16 -24 -11 0 -21 5 -23 11 -4 13 34 64 49 64 7 0 7 -5 -1 -14z"/>
<path fill="#ffffff" stroke="none" d="M219 216 c9 -10 8 -15 -3 -19 -16 -6
-40 16 -29 26 10 11 19 8 32 -7z"/>
<path fill="#ffffff" stroke="none" d="M53 202 c-2 -10 3 -24 11 -31 9 -8 16
-18 16 -24 0 -7 -4 -7 -12 1 -22 22 -41 14 -35 -13 3 -16 0 -24 -7 -22 -20 6
-18 52 4 80 25 32 30 34 23 9z"/>
<path fill="#ffffff" stroke="none" d="M307 158 c4 -52 -5 -110 -16 -103 -5 3
-12 -2 -15 -11 -4 -9 -2 -13 5 -8 7 4 10 1 7 -6 -9 -27 -27 -20 -33 12 -9 58
-1 113 17 110 9 -1 20 3 24 9 4 8 3 9 -4 5 -13 -8 -17 25 -5 37 11 11 16 -1
20 -45z"/>
<path fill="#ffffff" stroke="none" d="M265 182 c-3 -3 -11 0 -18 7 -9 10 -8
11 6 5 10 -3 15 -9 12 -12z"/>
<path fill="#ffffff" stroke="none" d="M190 155 c-7 -8 -17 -15 -23 -15 -6 0
-2 7 9 15 25 19 30 19 14 0z"/>
<path fill="#ffffff" stroke="none" d="M240 104 c0 -8 -5 -12 -10 -9 -6 4 -8
11 -5 16 9 14 15 11 15 -7z"/>
<path fill="#ffffff" stroke="none" d="M113 88 c-13 -6 -23 -15 -23 -20 0 -5
-5 -6 -12 -2 -14 9 18 34 41 33 11 0 8 -4 -6 -11z"/>
<path fill="#ffffff" stroke="none" d="M211 67 c-1 -12 -15 -9 -19 4 -3 6 1
10 8 8 6 -3 11 -8 11 -12z"/>
<path fill="#ffffff" stroke="none" d="M124 31 c3 -5 -1 -11 -9 -14 -9 -4 -12
-1 -8 9 6 16 10 17 17 5z"/>
<path fill="#000000" stroke="none" d="M100 178 c0 -4 7 -8 15 -8 8 0 15 4 15
8 0 5 -7 9 -15 9 -8 0 -15 -4 -15 -9z"/>
<path fill="#000000" stroke="none" d="M260 144 c0 -5 7 -18 15 -28 8 -11 15
-16 15 -10 0 5 -7 18 -15 28 -8 11 -15 16 -15 10z"/>
</g>
</svg>
