<?xml version="1.0" standalone="no"?>
<!DOCTYPE svg PUBLIC "-//W3C//DTD SVG 20010904//EN"
 "http://www.w3.org/TR/2001/REC-SVG-20010904/DTD/svg10.dtd">
<svg version="1.0" xmlns="http://www.w3.org/2000/svg"
 width="32.000000pt" height="32.000000pt" viewBox="0 0 32.000000 32.000000"
 preserveAspectRatio="xMidYMid meet">
<metadata>
Created by potrace 1.16, written by Peter Selinger 2001-2019
</metadata>
<g transform="translate(0.000000,32.000000) scale(0.100000,-0.100000)"
fill="#000000" stroke="none">
<path fill="#000000" stroke="none" d="M0 265 c0 -30 4 -55 8 -55 12 0 42 34
42 47 0 22 87 54 137 51 46 -3 48 -4 46 -30 -1 -20 3 -28 14 -28 13 0 13 -3 3
-15 -14 -16 -11 -18 37 -19 l33 -1 0 53 0 52 -160 0 -160 0 0 -55z"/>
<path fill="#000000" stroke="none" d="M225 111 c-3 -5 -1 -12 5 -16 5 -3 10
1 10 9 0 18 -6 21 -15 7z"/>
<path fill="#000000" stroke="none" d="M256 95 c-3 -8 -1 -15 4 -15 13 0 22
18 11 24 -5 3 -11 -1 -15 -9z"/>
<path fill="#000000" stroke="none" d="M0 51 c0 -47 2 -51 24 -51 13 0 27 6
29 13 4 9 6 9 6 0 1 -7 5 -13 10 -13 5 0 7 9 4 20 -3 11 -9 18 -13 15 -15 -9
-21 14 -10 35 9 16 8 18 -5 14 -8 -4 -22 -1 -30 6 -13 11 -15 5 -15 -39z"/>
</g>
</svg>
