<?xml version="1.0" standalone="no"?>
<!DOCTYPE svg PUBLIC "-//W3C//DTD SVG 20010904//EN"
 "http://www.w3.org/TR/2001/REC-SVG-20010904/DTD/svg10.dtd">
<svg version="1.0" xmlns="http://www.w3.org/2000/svg"
 width="32.000000pt" height="32.000000pt" viewBox="0 0 32.000000 32.000000"
 preserveAspectRatio="xMidYMid meet">
<metadata>
Created by potrace 1.16, written by Peter Selinger 2001-2019
</metadata>
<g transform="translate(0.000000,32.000000) scale(0.100000,-0.100000)"
fill="#000000" stroke="none">
<path fill="#000000" stroke="none" d="M130 275 c-10 -12 -10 -15 4 -15 9 0
16 7 16 15 0 8 -2 15 -4 15 -2 0 -9 -7 -16 -15z"/>
<path fill="#000000" stroke="none" d="M50 258 c0 -18 65 -58 92 -57 23 0 23
0 -2 10 -13 6 -27 13 -30 17 -3 4 -17 15 -32 25 -20 13 -28 14 -28 5z"/>
</g>
</svg>
