<?xml version="1.0" standalone="no"?>
<!DOCTYPE svg PUBLIC "-//W3C//DTD SVG 20010904//EN"
 "http://www.w3.org/TR/2001/REC-SVG-20010904/DTD/svg10.dtd">
<svg version="1.0" xmlns="http://www.w3.org/2000/svg"
 width="32.000000pt" height="32.000000pt" viewBox="0 0 32.000000 32.000000"
 preserveAspectRatio="xMidYMid meet">
<metadata>
Created by potrace 1.16, written by Peter Selinger 2001-2019
</metadata>
<g transform="translate(0.000000,32.000000) scale(0.100000,-0.100000)"
fill="#000000" stroke="none">
<path fill="#000000" stroke="none" d="M4 306 c-3 -8 -4 -23 -1 -33 4 -16 6
-15 12 5 4 12 14 22 21 22 8 0 14 5 14 10 0 16 -40 12 -46 -4z"/>
<path fill="#000000" stroke="none" d="M90 312 c0 -5 7 -16 16 -23 14 -12 16
-11 13 5 -4 20 -29 35 -29 18z"/>
<path fill="#000000" stroke="none" d="M256 312 c-5 -8 46 -62 58 -62 3 0 6
16 6 35 0 32 -2 35 -29 35 -17 0 -32 -4 -35 -8z"/>
<path fill="#000000" stroke="none" d="M138 283 c7 -3 16 -2 19 1 4 3 -2 6
-13 5 -11 0 -14 -3 -6 -6z"/>
<path fill="#000000" stroke="none" d="M20 210 c0 -5 5 -10 11 -10 5 0 7 5 4
10 -3 6 -8 10 -11 10 -2 0 -4 -4 -4 -10z"/>
<path fill="#000000" stroke="none" d="M4 142 c0 -10 6 -19 13 -19 8 0 9 6 2
19 -5 10 -11 18 -12 18 -2 0 -3 -8 -3 -18z"/>
<path fill="#000000" stroke="none" d="M94 120 c0 -13 4 -16 10 -10 7 7 7 13
0 20 -6 6 -10 3 -10 -10z"/>
<path fill="#000000" stroke="none" d="M306 105 c-9 -26 -7 -32 5 -12 6 10 9
21 6 23 -2 3 -7 -2 -11 -11z"/>
<path fill="#000000" stroke="none" d="M53 86 c-13 -6 -25 -17 -28 -24 -3 -8
0 -10 7 -6 6 4 9 3 5 -2 -3 -5 1 -20 10 -34 10 -17 12 -19 8 -5 -11 35 -10 39
13 50 12 5 22 13 22 17 0 13 -15 14 -37 4z"/>
<path fill="#000000" stroke="none" d="M1 55 c-1 -29 14 -55 31 -55 13 0 9 17
-6 32 -8 8 -16 23 -19 34 -3 13 -5 9 -6 -11z"/>
</g>
</svg>
