<?xml version="1.0" standalone="no"?>
<!DOCTYPE svg PUBLIC "-//W3C//DTD SVG 20010904//EN"
 "http://www.w3.org/TR/2001/REC-SVG-20010904/DTD/svg10.dtd">
<svg version="1.0" xmlns="http://www.w3.org/2000/svg"
 width="32.000000pt" height="32.000000pt" viewBox="0 0 32.000000 32.000000"
 preserveAspectRatio="xMidYMid meet">
<metadata>
Created by potrace 1.16, written by Peter Selinger 2001-2019
</metadata>
<g transform="translate(0.000000,32.000000) scale(0.100000,-0.100000)"
fill="#000000" stroke="none">
<path fill="#000000" stroke="none" d="M142 308 c-7 -7 -12 -17 -12 -24 0 -6
-7 -17 -15 -24 -16 -13 -21 -55 -5 -45 5 3 7 12 4 19 -3 8 0 17 6 21 6 4 15
18 20 31 5 13 18 24 28 24 24 0 59 -26 49 -36 -4 -5 -12 -2 -17 6 -6 8 -10 11
-10 6 0 -6 9 -20 21 -32 12 -12 22 -33 23 -46 1 -19 6 -23 24 -20 12 2 29 -1
37 -8 19 -16 19 -74 0 -90 -19 -16 -34 -5 -17 12 17 17 15 43 -3 58 -13 11
-35 4 -131 -44 -123 -60 -124 -60 -124 -48 0 4 40 28 90 52 49 24 88 46 86 48
-2 2 -18 -4 -35 -12 -39 -21 -40 -20 -33 7 5 22 5 22 -16 4 -16 -15 -24 -16
-41 -7 -12 6 -21 16 -21 22 0 6 -3 8 -7 5 -11 -12 30 -48 49 -44 36 10 17 -13
-32 -38 -27 -14 -50 -29 -50 -35 0 -18 20 -20 49 -5 17 8 32 15 34 15 12 0 16
-34 6 -47 -20 -24 4 -38 39 -24 22 9 35 9 55 0 22 -10 33 -8 71 10 56 26 59
41 7 41 -37 0 -39 2 -44 37 -7 42 10 70 37 60 18 -7 22 -42 6 -52 -15 -9 -12
-35 3 -35 23 0 47 35 47 67 0 32 -26 63 -54 63 -17 0 -41 44 -37 68 6 37 -60
67 -87 40z"/>
<path fill="#ffffff" stroke="none" d="M218 70 c-1 -14 1 -31 6 -38 11 -18 2
-25 -22 -18 -15 5 -20 16 -20 41 0 18 -3 39 -8 46 -11 18 -34 -18 -34 -53 0
-17 -7 -31 -15 -35 -21 -8 -30 3 -17 20 6 7 9 23 6 34 -5 18 2 26 43 46 l48
25 8 -21 c4 -12 7 -33 5 -47z"/>
<path fill="#ffffff" stroke="none" d="M166 48 c-16 -11 -19 -2 -11 29 l8 28
7 -25 c3 -14 2 -28 -4 -32z"/>
</g>
</svg>
