<?xml version="1.0" standalone="no"?>
<!DOCTYPE svg PUBLIC "-//W3C//DTD SVG 20010904//EN"
 "http://www.w3.org/TR/2001/REC-SVG-20010904/DTD/svg10.dtd">
<svg version="1.0" xmlns="http://www.w3.org/2000/svg"
 width="32.000000pt" height="32.000000pt" viewBox="0 0 32.000000 32.000000"
 preserveAspectRatio="xMidYMid meet">
<metadata>
Created by potrace 1.16, written by Peter Selinger 2001-2019
</metadata>
<g transform="translate(0.000000,32.000000) scale(0.100000,-0.100000)"
fill="#000000" stroke="none">
<path fill="#000000" stroke="none" d="M83 283 c-7 -16 -15 -41 -19 -57 -6
-25 -4 -28 10 -23 10 4 15 3 11 -3 -11 -18 12 -10 30 10 10 11 22 20 27 20 5
0 -4 -12 -21 -26 -17 -14 -35 -23 -40 -19 -6 3 -15 -5 -22 -17 -7 -13 -18 -27
-25 -31 -8 -4 -14 -15 -14 -24 0 -13 3 -13 15 -3 8 7 22 9 31 6 11 -4 15 -2
11 8 -3 8 3 22 14 32 47 43 2 -58 -55 -123 l-19 -23 39 0 c31 0 41 5 49 22 6
13 17 22 24 20 7 -2 23 5 34 15 11 10 17 13 14 7 -4 -7 0 -17 9 -24 8 -7 13
-19 10 -27 -4 -10 6 -13 42 -13 26 0 42 4 35 8 -13 8 -73 118 -73 135 0 5 9 2
20 -8 11 -10 20 -25 20 -34 0 -13 2 -13 9 -3 6 11 11 10 25 -3 14 -15 17 -15
22 -1 4 10 -7 31 -30 56 -20 22 -36 43 -36 48 1 4 9 -3 20 -16 12 -14 21 -18
25 -12 4 6 13 9 21 6 17 -7 19 23 3 58 -9 19 -9 29 0 40 17 20 -2 30 -42 22
-27 -5 -32 -10 -32 -33 0 -16 4 -33 8 -40 4 -6 -11 -2 -34 10 -40 22 -53 43
-23 41 8 -1 14 2 14 7 0 17 -32 22 -53 9 -15 -9 -22 -10 -25 -1 -6 18 -16 13
-29 -16z"/>
<path fill="#000000" stroke="none" d="M22 288 c-8 -8 -8 -15 -1 -24 7 -9 7
-19 0 -33 -14 -25 -14 -44 0 -36 6 4 13 -3 16 -15 9 -34 21 -5 18 43 -2 27 3
48 13 60 14 16 13 17 -9 17 -14 0 -30 -5 -37 -12z"/>
<path fill="#000000" stroke="none" d="M24 66 c-10 -8 -17 -17 -14 -19 3 -3
16 3 30 13 29 22 14 27 -16 6z"/>
</g>
</svg>
