<?xml version="1.0" standalone="no"?>
<!DOCTYPE svg PUBLIC "-//W3C//DTD SVG 20010904//EN"
 "http://www.w3.org/TR/2001/REC-SVG-20010904/DTD/svg10.dtd">
<svg version="1.0" xmlns="http://www.w3.org/2000/svg"
 width="32.000000pt" height="32.000000pt" viewBox="0 0 32.000000 32.000000"
 preserveAspectRatio="xMidYMid meet">
<metadata>
Created by potrace 1.16, written by Peter Selinger 2001-2019
</metadata>
<g transform="translate(0.000000,32.000000) scale(0.100000,-0.100000)"
fill="#000000" stroke="none">
<path fill="#000000" stroke="none" d="M165 301 c-20 -12 -31 -27 -33 -46 -4
-34 -36 -60 -72 -60 -19 0 -26 -6 -28 -23 -4 -29 26 -65 50 -59 10 3 18 4 18
2 0 -7 -43 -79 -59 -100 l-15 -20 21 20 c31 29 87 145 76 156 -6 6 -15 3 -24
-7 -12 -16 -12 -17 1 -9 8 4 12 4 7 0 -11 -13 -49 -17 -42 -5 3 5 -1 10 -9 10
-9 0 -16 7 -16 15 0 17 16 20 25 4 5 -7 16 -3 31 12 14 13 31 20 42 17 17 -5
18 -3 9 23 -12 31 1 57 22 45 14 -9 14 -46 0 -46 -5 0 -7 -4 -4 -10 3 -5 14
-10 25 -10 21 0 80 -63 80 -87 0 -13 -2 -14 -17 -2 -17 13 -17 12 -4 -4 14
-17 16 -17 27 -3 11 15 12 15 18 0 11 -27 7 -52 -10 -58 -24 -9 -42 -6 -19 4
11 5 14 9 7 9 -24 2 -41 28 -36 54 2 14 -1 29 -7 33 -8 5 -9 3 -4 -7 5 -8 4
-11 -1 -6 -5 5 -9 12 -9 16 0 4 -8 15 -17 24 -16 16 -17 16 -27 0 -7 -13 -5
-23 6 -35 9 -10 11 -18 5 -18 -6 0 -13 6 -15 13 -3 6 -6 -12 -6 -42 -1 -42 -6
-60 -23 -78 l-21 -23 51 0 c60 0 66 12 32 67 -13 22 -16 34 -9 39 14 8 27 -10
41 -63 11 -39 15 -43 45 -43 l32 0 0 53 c-1 53 -20 96 -57 131 -16 13 -18 26
-14 61 5 45 -8 76 -32 74 -6 0 -24 -8 -41 -18z"/>
<path fill="#ffffff" stroke="none" d="M191 43 c13 -16 12 -17 -3 -4 -10 7
-18 15 -18 17 0 8 8 3 21 -13z"/>
<path fill="#000000" stroke="none" d="M95 50 c-3 -6 -3 -15 1 -22 4 -7 3 -8
-4 -4 -7 4 -12 1 -12 -8 0 -9 7 -16 15 -16 10 0 15 10 15 30 0 31 -4 37 -15
20z"/>
</g>
</svg>
