<?xml version="1.0" standalone="no"?>
<!DOCTYPE svg PUBLIC "-//W3C//DTD SVG 20010904//EN"
 "http://www.w3.org/TR/2001/REC-SVG-20010904/DTD/svg10.dtd">
<svg version="1.0" xmlns="http://www.w3.org/2000/svg"
 width="32.000000pt" height="32.000000pt" viewBox="0 0 32.000000 32.000000"
 preserveAspectRatio="xMidYMid meet">
<metadata>
Created by potrace 1.16, written by Peter Selinger 2001-2019
</metadata>
<g transform="translate(0.000000,32.000000) scale(0.100000,-0.100000)"
fill="#000000" stroke="none">
<path fill="#000000" stroke="none" d="M123 298 c-8 -9 -13 -24 -10 -33 4 -8
-4 -26 -18 -41 -14 -15 -25 -32 -25 -39 0 -7 -9 -15 -20 -18 -21 -5 -27 -31
-10 -42 5 -3 24 2 41 11 31 15 32 15 24 -2 -5 -11 -10 -36 -11 -56 0 -21 -6
-44 -13 -51 -6 -8 -8 -17 -4 -20 12 -13 61 -7 74 9 11 14 13 14 21 0 13 -23
41 -19 68 9 16 17 30 23 43 19 12 -4 17 -2 13 4 -3 6 -2 13 3 16 5 3 7 15 4
25 -3 10 0 22 6 25 6 4 11 28 11 54 0 34 -3 43 -11 35 -9 -9 -21 -7 -47 7 -19
11 -40 16 -45 13 -6 -3 -7 -1 -3 5 4 7 1 12 -9 12 -14 0 -14 2 0 24 11 16 13
26 5 31 -6 3 -8 11 -4 16 10 17 -66 6 -83 -13z"/>
<path fill="#ffffff" stroke="none" d="M220 145 c0 -18 6 -36 13 -38 9 -4 8
-8 -3 -16 -12 -8 -16 -6 -22 12 -10 36 -9 89 2 82 6 -3 10 -21 10 -40z"/>
<path fill="#ffffff" stroke="none" d="M253 150 c-3 -12 -8 -19 -11 -16 -5 6
5 36 12 36 2 0 2 -9 -1 -20z"/>
<path fill="#ffffff" stroke="none" d="M145 32 c-3 -3 -11 0 -18 7 -9 10 -8
11 6 5 10 -3 15 -9 12 -12z"/>
<path fill="#000000" stroke="none" d="M270 245 c-10 -12 -10 -19 -2 -27 7 -7
12 -8 12 -2 0 5 4 3 9 -4 7 -11 9 -11 13 0 3 8 0 22 -7 31 -11 15 -14 16 -25
2z"/>
</g>
</svg>
