<?xml version="1.0" standalone="no"?>
<!DOCTYPE svg PUBLIC "-//W3C//DTD SVG 20010904//EN"
 "http://www.w3.org/TR/2001/REC-SVG-20010904/DTD/svg10.dtd">
<svg version="1.0" xmlns="http://www.w3.org/2000/svg"
 width="32.000000pt" height="32.000000pt" viewBox="0 0 32.000000 32.000000"
 preserveAspectRatio="xMidYMid meet">
<metadata>
Created by potrace 1.16, written by Peter Selinger 2001-2019
</metadata>
<g transform="translate(0.000000,32.000000) scale(0.100000,-0.100000)"
fill="#000000" stroke="none">
<path fill="#000000" stroke="none" d="M0 159 l0 -159 42 0 c23 0 38 3 35 7
-4 3 0 14 9 24 12 14 20 15 44 6 22 -8 27 -14 18 -24 -8 -10 -6 -13 10 -13 15
0 20 5 16 15 -4 11 1 15 17 16 20 1 -29 13 -88 21 -16 2 -17 42 -3 69 8 14 7
25 -3 39 -8 11 -17 17 -20 13 -4 -3 -7 1 -7 9 0 8 11 27 24 41 14 16 22 34 19
45 -2 11 3 24 14 33 17 13 17 13 4 -4 -12 -15 -12 -20 -1 -30 9 -9 11 -9 6 0
-9 16 12 27 28 14 7 -6 21 -8 30 -5 14 5 14 9 4 23 -12 14 -11 14 4 2 14 -10
15 -18 7 -32 -5 -10 -12 -19 -15 -19 -3 0 -2 5 2 12 4 7 3 8 -5 4 -14 -9 -5
-26 15 -26 8 0 17 -6 20 -13 2 -7 13 -13 24 -14 11 -1 17 3 14 11 -3 7 1 18 8
24 11 8 17 6 26 -9 12 -18 11 -19 -7 -10 -17 9 -20 8 -18 -9 1 -13 6 -19 15
-15 8 3 10 0 6 -8 -5 -8 -2 -7 9 2 12 9 17 29 17 66 l0 52 -160 1 -160 0 0
-159z"/>
<path fill="#ffffff" stroke="none" d="M82 156 c16 -12 16 -14 -9 -25 -30 -14
-49 -2 -40 23 8 19 26 20 49 2z"/>
<path fill="#000000" stroke="none" d="M101 214 c0 -11 3 -14 6 -6 3 7 2 16
-1 19 -3 4 -6 -2 -5 -13z"/>
<path fill="#000000" stroke="none" d="M127 218 c2 -5 15 -8 28 -8 13 0 26 3
28 8 3 4 -10 7 -28 7 -18 0 -31 -3 -28 -7z"/>
<path fill="#000000" stroke="none" d="M205 213 c-9 -20 -7 -69 3 -107 5 -20
10 -23 22 -16 13 9 13 11 0 19 -8 6 -12 13 -8 16 3 4 21 -8 38 -27 30 -31 32
-32 29 -9 -2 13 1 26 6 28 20 6 9 -50 -11 -58 -10 -4 -30 -19 -43 -33 l-24
-26 52 0 53 0 -5 88 c-2 55 -8 87 -15 88 -7 1 -15 3 -19 4 -5 1 -11 2 -15 1
-5 0 -8 4 -8 9 0 6 -5 10 -11 10 -5 0 -7 -5 -3 -11 3 -6 1 -15 -7 -19 -18 -12
-41 20 -27 38 6 7 9 15 6 18 -3 3 -9 -3 -13 -13z"/>
<path fill="#ffffff" stroke="none" d="M290 145 c0 -19 -20 -29 -32 -17 -8 8
-7 16 2 26 14 17 30 12 30 -9z"/>
<path fill="#000000" stroke="none" d="M151 193 c-1 -7 -9 -13 -18 -14 -11 0
-13 -3 -5 -6 6 -2 12 -12 13 -21 0 -11 2 -12 6 -4 2 6 12 12 21 12 11 0 13 3
6 8 -6 4 -14 14 -17 22 -3 9 -6 10 -6 3z"/>
</g>
</svg>
