<?xml version="1.0" standalone="no"?>
<!DOCTYPE svg PUBLIC "-//W3C//DTD SVG 20010904//EN"
 "http://www.w3.org/TR/2001/REC-SVG-20010904/DTD/svg10.dtd">
<svg version="1.0" xmlns="http://www.w3.org/2000/svg"
 width="32.000000pt" height="32.000000pt" viewBox="0 0 32.000000 32.000000"
 preserveAspectRatio="xMidYMid meet">
<metadata>
Created by potrace 1.16, written by Peter Selinger 2001-2019
</metadata>
<g transform="translate(0.000000,32.000000) scale(0.100000,-0.100000)"
fill="#000000" stroke="none">
<path fill="#000000" stroke="none" d="M124 299 c-9 -10 -14 -25 -11 -34 4 -8
-4 -26 -18 -41 -14 -15 -25 -34 -25 -42 0 -8 3 -12 7 -9 3 4 12 -2 20 -13 10
-14 11 -25 3 -39 -17 -33 -12 -67 10 -68 13 -1 18 2 14 9 -4 7 -2 8 5 4 6 -4
9 -12 6 -17 -4 -5 13 -10 37 -10 24 -1 33 -4 20 -6 -13 -3 -21 -10 -19 -16 8
-24 40 -18 73 14 34 33 48 63 18 38 -14 -11 -18 -11 -29 4 -6 9 -15 14 -18 11
-3 -3 -8 16 -12 43 -7 54 -23 101 -24 71 -1 -10 -7 -18 -13 -18 -9 0 -8 -4 2
-10 13 -8 13 -10 -2 -10 -9 0 -18 -6 -21 -12 -3 -10 -8 -10 -18 1 -12 12 -12
13 1 6 12 -7 13 -6 3 7 -7 8 -10 18 -6 21 3 4 1 7 -6 7 -7 0 -9 5 -5 11 4 8 0
7 -15 -1 -20 -10 -21 -10 -10 8 9 15 23 18 75 17 34 0 60 3 58 7 -3 4 -10 8
-17 8 -6 0 -21 12 -33 28 -19 23 -25 25 -36 13 -7 -8 -8 -11 -1 -7 6 3 14 2
18 -4 3 -5 -1 -10 -9 -10 -20 0 -30 18 -17 33 14 18 57 19 71 2 7 -8 8 -15 3
-15 -5 0 -10 -7 -10 -16 0 -15 2 -14 13 1 9 12 10 22 4 30 -5 7 -8 14 -5 17 3
2 -11 5 -30 5 -21 0 -41 -8 -51 -18z"/>
<path fill="#ffffff" stroke="none" d="M175 140 c3 -5 1 -10 -4 -10 -6 0 -11
5 -11 10 0 6 2 10 4 10 3 0 8 -4 11 -10z"/>
<path fill="#ffffff" stroke="none" d="M158 105 c-3 -3 -9 2 -12 12 -6 14 -5
15 5 6 7 -7 10 -15 7 -18z"/>
<path fill="#ffffff" stroke="none" d="M144 94 c3 -8 2 -12 -4 -9 -6 3 -10 10
-10 16 0 14 7 11 14 -7z"/>
<path fill="#000000" stroke="none" d="M204 207 c3 -23 17 -36 31 -31 17 7 12
20 -15 34 -13 7 -18 6 -16 -3z"/>
<path fill="#000000" stroke="none" d="M33 154 c-9 -25 10 -37 40 -23 25 11
25 13 9 25 -23 18 -41 17 -49 -2z"/>
<path fill="#000000" stroke="none" d="M273 158 c4 -13 2 -15 -10 -11 -10 4
-14 2 -11 -7 2 -8 10 -16 16 -18 17 -5 27 27 12 41 -10 10 -12 8 -7 -5z"/>
<path fill="#000000" stroke="none" d="M86 31 c-9 -10 -13 -21 -9 -24 11 -12
60 -8 71 6 9 10 4 16 -18 24 -24 9 -32 8 -44 -6z"/>
</g>
</svg>
