<?xml version="1.0" standalone="no"?>
<!DOCTYPE svg PUBLIC "-//W3C//DTD SVG 20010904//EN"
 "http://www.w3.org/TR/2001/REC-SVG-20010904/DTD/svg10.dtd">
<svg version="1.0" xmlns="http://www.w3.org/2000/svg"
 width="32.000000pt" height="32.000000pt" viewBox="0 0 32.000000 32.000000"
 preserveAspectRatio="xMidYMid meet">
<metadata>
Created by potrace 1.16, written by Peter Selinger 2001-2019
</metadata>
<g transform="translate(0.000000,32.000000) scale(0.100000,-0.100000)"
fill="#000000" stroke="none">
<path fill="#000000" stroke="none" d="M253 255 c0 -8 4 -12 9 -9 5 3 6 10 3
15 -9 13 -12 11 -12 -6z"/>
<path fill="#000000" stroke="none" d="M37 100 c13 -14 20 -17 30 -8 7 6 13
13 13 15 0 3 -6 0 -14 -6 -10 -9 -15 -8 -20 4 -3 8 -10 15 -16 15 -5 0 -2 -9
7 -20z"/>
<path fill="#000000" stroke="none" d="M220 99 c0 -4 18 -6 39 -6 21 1 37 5
35 9 -6 10 -74 7 -74 -3z"/>
</g>
</svg>
