<?xml version="1.0" standalone="no"?>
<!DOCTYPE svg PUBLIC "-//W3C//DTD SVG 20010904//EN"
 "http://www.w3.org/TR/2001/REC-SVG-20010904/DTD/svg10.dtd">
<svg version="1.0" xmlns="http://www.w3.org/2000/svg"
 width="32.000000pt" height="32.000000pt" viewBox="0 0 32.000000 32.000000"
 preserveAspectRatio="xMidYMid meet">
<metadata>
Created by potrace 1.16, written by Peter Selinger 2001-2019
</metadata>
<g transform="translate(0.000000,32.000000) scale(0.100000,-0.100000)"
fill="#000000" stroke="none">
<path fill="#000000" stroke="none" d="M42 297 c-9 -10 -5 -23 15 -52 14 -21
21 -35 15 -31 -6 3 -18 3 -27 0 -14 -6 -13 -9 6 -30 29 -31 43 -30 36 2 -3 17
2 33 14 45 10 10 16 25 13 32 -6 17 30 29 63 21 13 -4 23 -2 23 3 0 5 -20 9
-45 9 -25 0 -45 -4 -45 -9 0 -4 -4 -6 -9 -2 -5 3 -12 1 -16 -5 -12 -19 -38
-11 -32 10 6 23 4 25 -11 7z"/>
<path fill="#ffffff" stroke="none" d="M80 184 c0 -8 -5 -12 -10 -9 -6 4 -8
11 -5 16 9 14 15 11 15 -7z"/>
<path fill="#000000" stroke="none" d="M206 265 c-3 -10 -4 -20 -1 -23 3 -3 5
0 5 7 0 7 9 3 21 -10 11 -13 18 -18 14 -11 -4 7 0 12 9 12 19 0 21 16 4 26 -7
4 -8 3 -4 -4 4 -7 1 -12 -8 -12 -8 0 -19 7 -24 16 -8 15 -10 14 -16 -1z"/>
<path fill="#000000" stroke="none" d="M138 263 c7 -3 16 -2 19 1 4 3 -2 6
-13 5 -11 0 -14 -3 -6 -6z"/>
<path fill="#000000" stroke="none" d="M100 225 c0 -4 6 -18 13 -33 16 -33 16
-57 0 -57 -6 0 -15 -4 -20 -9 -5 -5 -3 -6 5 -2 10 6 12 0 6 -29 -5 -27 -4 -36
5 -31 6 4 11 13 11 20 0 7 13 12 30 12 22 0 30 -4 30 -18 0 -10 5 -18 11 -18
10 0 9 20 -4 85 -4 20 11 65 22 65 14 -1 42 -30 37 -38 -3 -5 3 -17 14 -27 18
-16 20 -16 20 -2 0 10 -4 17 -9 17 -5 0 -11 9 -14 19 -2 10 -16 27 -31 36 -20
14 -32 15 -56 7 -18 -7 -32 -7 -35 -1 -7 10 -35 13 -35 4z"/>
<path fill="#000000" stroke="none" d="M213 160 c-1 -11 2 -20 8 -20 5 0 9 -5
9 -11 0 -5 -4 -8 -9 -5 -5 4 -7 -3 -4 -15 5 -18 11 -20 40 -14 18 3 33 2 32
-2 -1 -4 -1 -15 0 -23 1 -13 2 -13 11 0 12 20 -6 40 -37 40 -19 0 -23 4 -19
18 4 11 -1 25 -12 35 -17 15 -18 15 -19 -3z"/>
<path fill="#000000" stroke="none" d="M66 115 c-5 -14 -9 -15 -22 -5 -11 10
-17 10 -25 2 -5 -7 -6 -10 -2 -7 7 6 39 -36 36 -47 -2 -4 5 -4 15 -1 15 6 15
5 3 -10 -12 -15 -11 -17 2 -17 19 0 31 16 18 24 -5 3 -7 15 -4 25 3 11 1 27
-5 36 -8 16 -9 16 -16 0z"/>
<path fill="#ffffff" stroke="none" d="M80 80 c0 -5 -5 -10 -11 -10 -5 0 -7 5
-4 10 3 6 8 10 11 10 2 0 4 -4 4 -10z"/>
<path fill="#000000" stroke="none" d="M90 20 c-9 -6 -10 -10 -3 -10 6 0 15 5
18 10 8 12 4 12 -15 0z"/>
</g>
</svg>
