<?xml version="1.0" standalone="no"?>
<!DOCTYPE svg PUBLIC "-//W3C//DTD SVG 20010904//EN"
 "http://www.w3.org/TR/2001/REC-SVG-20010904/DTD/svg10.dtd">
<svg version="1.0" xmlns="http://www.w3.org/2000/svg"
 width="32.000000pt" height="32.000000pt" viewBox="0 0 32.000000 32.000000"
 preserveAspectRatio="xMidYMid meet">
<metadata>
Created by potrace 1.16, written by Peter Selinger 2001-2019
</metadata>
<g transform="translate(0.000000,32.000000) scale(0.100000,-0.100000)"
fill="#000000" stroke="none">
<path fill="#000000" stroke="none" d="M120 295 c0 -6 6 -17 13 -24 9 -11 9
-12 0 -7 -10 6 -11 1 -3 -18 7 -21 6 -26 -5 -26 -26 0 -16 -16 12 -18 14 -1
23 1 20 4 -4 4 0 12 8 18 8 6 17 27 20 46 5 35 5 35 -30 36 -19 0 -35 -5 -35
-11z"/>
<path fill="#000000" stroke="none" d="M192 223 c-6 -2 -10 -8 -7 -13 6 -10
-42 -23 -55 -15 -6 4 -10 0 -10 -7 -1 -8 -6 -6 -15 6 -8 11 -15 15 -15 10 0
-20 68 -71 82 -63 10 7 10 9 -2 9 -10 0 -7 5 8 16 12 8 19 20 16 26 -5 7 -1 9
9 5 8 -3 20 0 27 7 8 10 7 15 -6 20 -8 3 -16 6 -17 5 -1 0 -8 -3 -15 -6z"/>
<path fill="#ffffff" stroke="none" d="M185 180 c-3 -5 -14 -10 -23 -10 -15 0
-15 2 -2 10 20 13 33 13 25 0z"/>
<path fill="#000000" stroke="none" d="M255 182 c-19 -43 -8 -79 19 -69 25 10
20 47 -6 47 -18 0 -20 2 -8 10 19 12 41 -7 39 -34 -2 -34 0 -48 9 -43 12 8 6
62 -9 83 -18 25 -35 27 -44 6z"/>
<path fill="#ffffff" stroke="none" d="M280 134 c0 -8 -19 -13 -24 -6 -3 5 1
9 9 9 8 0 15 -2 15 -3z"/>
<path fill="#000000" stroke="none" d="M58 162 c-10 -2 -18 -10 -18 -18 0 -16
9 -18 29 -5 18 12 10 28 -11 23z"/>
<path fill="#000000" stroke="none" d="M125 140 c3 -5 8 -10 11 -10 2 0 4 5 4
10 0 6 -5 10 -11 10 -5 0 -7 -4 -4 -10z"/>
<path fill="#000000" stroke="none" d="M102 70 c4 -25 1 -38 -11 -47 -14 -11
-12 -12 12 -13 24 0 27 4 27 34 0 19 -7 39 -16 47 -15 13 -17 11 -12 -21z"/>
<path fill="#000000" stroke="none" d="M165 77 c-16 -10 -23 -17 -14 -14 17 6
43 -28 34 -43 -4 -6 3 -10 15 -10 17 0 19 4 14 28 -15 60 -16 61 -49 39z"/>
</g>
</svg>
