<?xml version="1.0" standalone="no"?>
<!DOCTYPE svg PUBLIC "-//W3C//DTD SVG 20010904//EN"
 "http://www.w3.org/TR/2001/REC-SVG-20010904/DTD/svg10.dtd">
<svg version="1.0" xmlns="http://www.w3.org/2000/svg"
 width="32.000000pt" height="32.000000pt" viewBox="0 0 32.000000 32.000000"
 preserveAspectRatio="xMidYMid meet">
<metadata>
Created by potrace 1.16, written by Peter Selinger 2001-2019
</metadata>
<g transform="translate(0.000000,32.000000) scale(0.100000,-0.100000)"
fill="#000000" stroke="none">
<path fill="#000000" stroke="none" d="M0 160 l0 -160 40 0 c27 0 39 4 37 12
-1 8 6 12 18 11 11 -1 14 0 7 3 -6 3 -9 10 -6 16 3 5 -4 12 -15 15 -18 5 -20
11 -15 38 5 28 3 32 -18 31 -16 -1 -23 5 -23 19 0 15 7 20 27 20 16 1 34 7 40
15 11 12 10 12 -4 1 -15 -11 -18 -11 -18 2 0 9 5 19 10 22 6 4 8 10 5 15 -3 5
3 15 14 22 15 9 17 16 10 30 -15 27 -5 34 45 33 53 -1 61 -6 46 -34 -8 -17 -8
-21 3 -21 16 0 87 -87 87 -106 0 -25 -23 -27 -41 -3 l-19 24 12 -35 c6 -19 17
-39 25 -43 20 -12 16 -25 -19 -57 l-33 -29 53 -1 52 0 0 160 0 160 -160 0
-160 0 0 -160z"/>
<path fill="#000000" stroke="none" d="M120 200 c0 -5 5 -10 11 -10 5 0 7 5 4
10 -3 6 -8 10 -11 10 -2 0 -4 -4 -4 -10z"/>
<path fill="#000000" stroke="none" d="M165 200 c-3 -5 1 -10 9 -10 9 0 16 5
16 10 0 6 -4 10 -9 10 -6 0 -13 -4 -16 -10z"/>
<path fill="#000000" stroke="none" d="M255 170 c10 -11 20 -20 23 -20 3 0 -3
9 -13 20 -10 11 -20 20 -23 20 -3 0 3 -9 13 -20z"/>
<path fill="#000000" stroke="none" d="M140 145 c0 -8 5 -15 10 -15 6 0 10 7
10 15 0 8 -4 15 -10 15 -5 0 -10 -7 -10 -15z"/>
<path fill="#000000" stroke="none" d="M180 71 c0 -6 4 -13 10 -16 6 -3 7 1 4
9 -7 18 -14 21 -14 7z"/>
<path fill="#000000" stroke="none" d="M150 15 c-10 -13 -9 -15 8 -15 15 0 20
5 16 15 -8 19 -9 19 -24 0z"/>
</g>
</svg>
