<?xml version="1.0" standalone="no"?>
<!DOCTYPE svg PUBLIC "-//W3C//DTD SVG 20010904//EN"
 "http://www.w3.org/TR/2001/REC-SVG-20010904/DTD/svg10.dtd">
<svg version="1.0" xmlns="http://www.w3.org/2000/svg"
 width="32.000000pt" height="32.000000pt" viewBox="0 0 32.000000 32.000000"
 preserveAspectRatio="xMidYMid meet">
<metadata>
Created by potrace 1.16, written by Peter Selinger 2001-2019
</metadata>
<g transform="translate(0.000000,32.000000) scale(0.100000,-0.100000)"
fill="#000000" stroke="none">
<path fill="#000000" stroke="none" d="M0 160 l0 -160 160 0 160 0 0 160 0
160 -160 0 -160 0 0 -160z"/>
<path fill="#ffffff" stroke="none" d="M210 97 c0 -13 -7 -32 -16 -43 -15 -18
-15 -18 -5 3 6 12 11 31 11 42 0 12 2 21 5 21 3 0 5 -10 5 -23z"/>
<path fill="#ffffff" stroke="none" d="M284 49 c4 -8 0 -5 -8 5 -9 11 -16 31
-15 45 1 24 2 24 8 -5 4 -17 11 -37 15 -45z"/>
<path fill="#ffffff" stroke="none" d="M230 45 c0 -8 -7 -15 -15 -15 -13 0
-14 3 -3 15 16 18 18 18 18 0z"/>
<path fill="#ffffff" stroke="none" d="M265 29 c-10 -15 -25 -10 -19 6 4 8 10
12 15 9 5 -3 7 -10 4 -15z"/>
</g>
</svg>
