<?xml version="1.0" standalone="no"?>
<!DOCTYPE svg PUBLIC "-//W3C//DTD SVG 20010904//EN"
 "http://www.w3.org/TR/2001/REC-SVG-20010904/DTD/svg10.dtd">
<svg version="1.0" xmlns="http://www.w3.org/2000/svg"
 width="32.000000pt" height="32.000000pt" viewBox="0 0 32.000000 32.000000"
 preserveAspectRatio="xMidYMid meet">
<metadata>
Created by potrace 1.16, written by Peter Selinger 2001-2019
</metadata>
<g transform="translate(0.000000,32.000000) scale(0.100000,-0.100000)"
fill="#000000" stroke="none">
<path fill="#000000" stroke="none" d="M180 106 c0 -36 40 -96 65 -96 25 0 65
60 65 96 l0 34 -65 0 -65 0 0 -34z"/>
<path fill="#ffffff" stroke="none" d="M300 100 c0 -16 -4 -30 -8 -30 -14 0
-43 36 -35 43 3 4 -8 7 -25 7 -26 0 -31 -4 -35 -27 -4 -26 -4 -26 -6 5 l-1 32
55 0 c54 0 55 0 55 -30z"/>
<path fill="#ffffff" stroke="none" d="M269 34 c-16 -19 -34 -18 -50 4 -11 14
-11 15 1 5 20 -19 30 -16 30 8 0 18 2 19 15 9 12 -10 13 -16 4 -26z"/>
</g>
</svg>
