<?xml version="1.0" standalone="no"?>
<!DOCTYPE svg PUBLIC "-//W3C//DTD SVG 20010904//EN"
 "http://www.w3.org/TR/2001/REC-SVG-20010904/DTD/svg10.dtd">
<svg version="1.0" xmlns="http://www.w3.org/2000/svg"
 width="32.000000pt" height="32.000000pt" viewBox="0 0 32.000000 32.000000"
 preserveAspectRatio="xMidYMid meet">
<metadata>
Created by potrace 1.16, written by Peter Selinger 2001-2019
</metadata>
<g transform="translate(0.000000,32.000000) scale(0.100000,-0.100000)"
fill="#000000" stroke="none">
<path fill="#000000" stroke="none" d="M97 296 c-31 -25 -43 -81 -17 -81 15 0
30 -13 30 -27 0 -4 -6 -5 -14 -2 -8 3 -17 0 -21 -6 -5 -8 -11 -8 -21 1 -11 9
-19 8 -34 -6 -25 -23 -27 -67 -3 -63 11 2 19 -6 23 -22 4 -16 13 -24 24 -23
13 1 15 -2 7 -10 -37 -37 18 -57 144 -54 l100 2 3 33 c3 27 -1 35 -17 39 -14
3 -23 17 -27 39 -3 19 -14 38 -23 43 -14 8 -13 11 9 19 19 7 27 6 33 -4 18
-31 27 -10 27 64 l0 79 -39 1 c-22 1 -43 -3 -46 -8 -4 -6 -12 -7 -18 -3 -29
18 -92 12 -120 -11z"/>
<path fill="#ffffff" stroke="none" d="M234 241 c-6 -6 -24 19 -24 34 1 6 7 1
15 -9 8 -11 12 -22 9 -25z"/>
<path fill="#ffffff" stroke="none" d="M104 96 c-10 -8 -21 -12 -24 -10 -5 6
21 24 34 24 6 0 1 -6 -10 -14z"/>
<path fill="#ffffff" stroke="none" d="M190 61 c0 -5 -7 -12 -16 -15 -24 -9
-28 -7 -14 9 14 17 30 20 30 6z"/>
</g>
</svg>
