<?xml version="1.0" standalone="no"?>
<!DOCTYPE svg PUBLIC "-//W3C//DTD SVG 20010904//EN"
 "http://www.w3.org/TR/2001/REC-SVG-20010904/DTD/svg10.dtd">
<svg version="1.0" xmlns="http://www.w3.org/2000/svg"
 width="32.000000pt" height="32.000000pt" viewBox="0 0 32.000000 32.000000"
 preserveAspectRatio="xMidYMid meet">
<metadata>
Created by potrace 1.16, written by Peter Selinger 2001-2019
</metadata>
<g transform="translate(0.000000,32.000000) scale(0.100000,-0.100000)"
fill="#000000" stroke="none">
<path fill="#000000" stroke="none" d="M0 160 l0 -160 160 0 160 0 0 160 0
160 -160 0 -160 0 0 -160z"/>
<path fill="#ffffff" stroke="none" d="M217 284 c44 -20 58 -33 74 -67 23 -53
25 -113 3 -121 -22 -8 -36 2 -29 23 3 9 -1 26 -9 36 -14 19 -15 19 -33 2 -11
-9 -29 -17 -41 -17 -12 0 -22 -5 -22 -11 0 -7 12 -9 33 -5 29 5 35 3 45 -20 7
-14 10 -30 6 -35 -3 -6 0 -16 6 -24 10 -13 8 -15 -18 -15 -17 0 -32 4 -34 9
-1 5 -19 11 -38 13 -30 3 -35 0 -38 -19 -3 -19 -10 -23 -39 -23 -29 0 -33 3
-24 14 6 7 8 26 5 44 -5 25 -1 33 24 52 l31 23 -22 18 c-20 17 -23 17 -34 2
-7 -9 -13 -28 -13 -41 0 -35 -34 -25 -38 11 -6 48 27 115 72 147 51 36 65 37
133 4z"/>
</g>
</svg>
