<?xml version="1.0" standalone="no"?>
<!DOCTYPE svg PUBLIC "-//W3C//DTD SVG 20010904//EN"
 "http://www.w3.org/TR/2001/REC-SVG-20010904/DTD/svg10.dtd">
<svg version="1.0" xmlns="http://www.w3.org/2000/svg"
 width="32.000000pt" height="32.000000pt" viewBox="0 0 32.000000 32.000000"
 preserveAspectRatio="xMidYMid meet">
<metadata>
Created by potrace 1.16, written by Peter Selinger 2001-2019
</metadata>
<g transform="translate(0.000000,32.000000) scale(0.100000,-0.100000)"
fill="#000000" stroke="none">
<path fill="#000000" stroke="none" d="M186 311 c-3 -4 -18 -6 -32 -3 -32 6
-54 -18 -47 -51 4 -18 3 -19 -6 -7 -5 8 -7 26 -4 40 6 25 6 25 -16 6 -19 -17
-26 -15 -22 7 1 5 -3 6 -9 2 -5 -3 -10 -15 -10 -26 0 -13 -4 -18 -12 -13 -7 5
-9 1 -6 -13 3 -11 1 -28 -5 -38 -7 -14 -6 -21 7 -31 11 -8 13 -14 7 -19 -6 -3
-11 -15 -11 -26 0 -32 45 -21 47 11 4 68 3 67 13 43 5 -13 14 -23 19 -23 5 0
12 -8 15 -17 4 -10 4 -14 0 -11 -3 4 -17 -6 -31 -23 -19 -22 -23 -36 -19 -55
4 -15 2 -32 -5 -40 -9 -12 -6 -14 20 -14 23 0 34 6 40 22 6 18 16 22 59 22 66
1 79 14 58 55 -10 19 -14 41 -10 57 5 19 4 25 -4 20 -8 -5 -10 -2 -6 8 3 9 8
16 10 16 7 0 39 -76 39 -94 0 -11 5 -21 10 -22 25 -9 35 16 40 98 4 69 2 88
-10 98 -13 11 -14 10 -9 -5 5 -13 4 -16 -5 -11 -7 5 -10 18 -7 30 5 19 3 19
-14 -4 -16 -21 -20 -22 -20 -7 0 10 -4 15 -10 12 -5 -3 -18 -1 -29 5 -11 5
-22 6 -25 1z"/>
<path fill="#ffffff" stroke="none" d="M150 216 c0 -3 -4 -8 -10 -11 -5 -3
-10 -1 -10 4 0 6 5 11 10 11 6 0 10 -2 10 -4z"/>
<path fill="#000000" stroke="none" d="M223 33 c9 -2 23 -2 30 0 6 3 -1 5 -18
5 -16 0 -22 -2 -12 -5z"/>
</g>
</svg>
