<?xml version="1.0" standalone="no"?>
<!DOCTYPE svg PUBLIC "-//W3C//DTD SVG 20010904//EN"
 "http://www.w3.org/TR/2001/REC-SVG-20010904/DTD/svg10.dtd">
<svg version="1.0" xmlns="http://www.w3.org/2000/svg"
 width="32.000000pt" height="32.000000pt" viewBox="0 0 32.000000 32.000000"
 preserveAspectRatio="xMidYMid meet">
<metadata>
Created by potrace 1.16, written by Peter Selinger 2001-2019
</metadata>
<g transform="translate(0.000000,32.000000) scale(0.100000,-0.100000)"
fill="#000000" stroke="none">
<path fill="#000000" stroke="none" d="M0 160 l0 -160 160 0 160 0 -1 117 c-1
65 -4 110 -6 100 -3 -9 -9 -15 -13 -12 -5 3 -5 17 1 32 8 22 8 24 -5 14 -12
-10 -16 -8 -21 8 -4 13 -13 18 -25 16 -10 -2 -24 3 -30 11 -7 7 -16 11 -21 8
-5 -3 -9 2 -9 10 0 13 -16 16 -95 16 l-95 0 0 -160z"/>
<path fill="#ffffff" stroke="none" d="M57 303 c-4 -3 -1 -13 6 -21 8 -11 8
-14 0 -9 -7 4 -14 -1 -18 -13 -6 -20 -25 -19 -25 1 0 6 4 7 10 4 6 -3 10 2 10
13 0 18 8 32 18 32 3 0 2 -3 -1 -7z"/>
<path fill="#ffffff" stroke="none" d="M93 295 c-3 -9 -8 -14 -10 -11 -3 3 -2
9 2 15 9 16 15 13 8 -4z"/>
<path fill="#ffffff" stroke="none" d="M27 211 c0 -11 -5 -18 -9 -15 -4 3 -5
11 -1 19 7 21 12 19 10 -4z"/>
<path fill="#ffffff" stroke="none" d="M165 132 c-26 -4 -28 -5 -10 -12 19 -8
19 -9 -1 -9 -12 -1 -27 6 -34 14 -11 13 -7 15 31 14 35 -2 38 -3 14 -7z"/>
<path fill="#000000" stroke="none" d="M213 309 c9 -5 22 -7 27 -4 6 3 10 -2
10 -12 1 -17 2 -17 15 1 13 17 15 17 15 4 0 -9 5 -20 12 -24 8 -5 9 -2 4 11
-5 15 -4 16 9 5 13 -10 15 -9 15 7 0 18 -7 21 -62 21 -48 1 -59 -1 -45 -9z"/>
</g>
</svg>
