<?xml version="1.0" standalone="no"?>
<!DOCTYPE svg PUBLIC "-//W3C//DTD SVG 20010904//EN"
 "http://www.w3.org/TR/2001/REC-SVG-20010904/DTD/svg10.dtd">
<svg version="1.0" xmlns="http://www.w3.org/2000/svg"
 width="32.000000pt" height="32.000000pt" viewBox="0 0 32.000000 32.000000"
 preserveAspectRatio="xMidYMid meet">
<metadata>
Created by potrace 1.16, written by Peter Selinger 2001-2019
</metadata>
<g transform="translate(0.000000,32.000000) scale(0.100000,-0.100000)"
fill="#000000" stroke="none">
<path fill="#000000" stroke="none" d="M186 313 c-3 -4 0 -13 8 -22 23 -25 25
-71 4 -71 -7 0 -25 -6 -40 -14 -26 -14 -29 -13 -58 21 -29 32 -30 37 -16 52
23 25 20 37 -4 16 -18 -16 -25 -14 -21 8 1 5 -3 6 -9 2 -5 -3 -10 -15 -10 -26
0 -11 -4 -17 -10 -14 -6 3 -9 -4 -9 -17 1 -13 -1 -30 -5 -39 -4 -10 -3 -20 3
-24 6 -3 11 -2 11 4 0 6 7 8 16 4 12 -4 15 -2 12 8 -3 8 -10 13 -16 12 -5 -1
-8 6 -5 16 5 18 6 18 25 3 11 -10 23 -25 27 -35 5 -14 19 -20 54 -22 26 -1 47
0 47 4 0 7 54 41 65 41 4 0 1 -7 -6 -16 -11 -14 -11 -18 2 -28 9 -6 14 -17 12
-23 -3 -7 1 -13 7 -13 9 0 9 -4 0 -15 -16 -20 -1 -38 24 -29 11 4 15 13 11 25
-4 10 -3 24 2 31 15 24 13 125 -3 139 -12 10 -13 9 -8 -6 5 -13 4 -16 -5 -11
-7 5 -10 18 -7 30 5 19 3 19 -14 -4 -16 -21 -20 -22 -20 -7 0 10 -4 15 -10 12
-5 -3 -18 -1 -28 4 -11 6 -22 7 -26 4z"/>
<path fill="#ffffff" stroke="none" d="M294 194 c3 -8 2 -12 -4 -9 -6 3 -10
10 -10 16 0 14 7 11 14 -7z"/>
<path fill="#000000" stroke="none" d="M119 295 c-10 -10 -14 -27 -11 -45 4
-25 9 -30 33 -30 18 0 32 7 39 19 13 26 13 34 -2 25 -10 -6 -10 -5 -1 7 26 32
-28 53 -58 24z"/>
<path fill="#ffffff" stroke="none" d="M153 233 c-7 -2 -19 -2 -25 0 -7 3 -2
5 12 5 14 0 19 -2 13 -5z"/>
<path fill="#000000" stroke="none" d="M20 146 c0 -8 5 -18 10 -21 13 -8 40
12 40 29 0 6 -5 4 -10 -4 -6 -10 -10 -11 -10 -2 0 6 -7 12 -15 12 -8 0 -15 -6
-15 -14z"/>
<path fill="#000000" stroke="none" d="M148 153 c6 -2 18 -2 25 0 6 3 1 5 -13
5 -14 0 -19 -2 -12 -5z"/>
<path fill="#000000" stroke="none" d="M203 149 c-6 -6 -31 -10 -57 -8 -38 3
-46 1 -46 -13 0 -9 -6 -19 -12 -21 -7 -3 -3 -6 9 -6 12 -1 27 -9 33 -18 10
-16 11 -16 7 4 -4 16 0 21 14 20 11 -1 19 -5 19 -10 0 -4 5 -5 10 -2 6 3 10 2
10 -3 0 -5 10 -8 23 -7 12 1 21 4 20 6 0 2 -5 19 -10 37 -6 25 -11 30 -20 21z"/>
<path fill="#000000" stroke="none" d="M73 84 c-17 -7 -4 -34 16 -34 14 -1 14
-2 -1 -11 -22 -13 -23 -26 -2 -26 18 0 38 43 30 64 -5 13 -21 16 -43 7z"/>
</g>
</svg>
