<?xml version="1.0" standalone="no"?>
<!DOCTYPE svg PUBLIC "-//W3C//DTD SVG 20010904//EN"
 "http://www.w3.org/TR/2001/REC-SVG-20010904/DTD/svg10.dtd">
<svg version="1.0" xmlns="http://www.w3.org/2000/svg"
 width="32.000000pt" height="32.000000pt" viewBox="0 0 32.000000 32.000000"
 preserveAspectRatio="xMidYMid meet">
<metadata>
Created by potrace 1.16, written by Peter Selinger 2001-2019
</metadata>
<g transform="translate(0.000000,32.000000) scale(0.100000,-0.100000)"
fill="#000000" stroke="none">
<path fill="#000000" stroke="none" d="M139 303 c-1 -4 -1 -11 0 -15 0 -5 -3
-8 -8 -8 -5 0 -7 -9 -4 -20 6 -23 35 -26 52 -6 9 11 6 13 -16 9 -26 -3 -27 -3
-5 6 12 6 22 13 22 15 0 9 -40 27 -41 19z"/>
<path fill="#000000" stroke="none" d="M217 270 c8 -10 9 -21 3 -30 -15 -24
-12 -27 25 -26 19 1 35 4 35 8 0 19 -14 38 -29 38 -9 0 -23 6 -31 13 -12 10
-12 9 -3 -3z"/>
<path fill="#000000" stroke="none" d="M55 250 c-3 -5 4 -14 15 -20 11 -6 20
-17 20 -24 0 -15 27 -29 33 -18 6 11 -61 73 -68 62z"/>
<path fill="#000000" stroke="none" d="M128 223 c6 -2 18 -2 25 0 6 3 1 5 -13
5 -14 0 -19 -2 -12 -5z"/>
<path fill="#000000" stroke="none" d="M166 205 c-17 -7 -24 -15 -18 -19 14
-8 62 3 62 14 0 16 -15 17 -44 5z"/>
<path fill="#000000" stroke="none" d="M252 194 c1 -9 9 -19 16 -22 9 -3 13 2
10 14 -1 9 -9 19 -16 22 -9 3 -13 -2 -10 -14z"/>
<path fill="#000000" stroke="none" d="M287 169 c-12 -7 -16 -17 -12 -30 4
-11 2 -19 -4 -19 -6 0 -11 -5 -11 -11 0 -5 5 -7 10 -4 6 3 10 1 10 -6 0 -8 4
-8 15 1 11 9 12 17 6 23 -7 7 -7 17 0 29 13 25 9 29 -14 17z"/>
<path fill="#000000" stroke="none" d="M27 154 c-7 -8 3 -34 13 -34 9 0 8 26
-1 35 -3 3 -8 2 -12 -1z"/>
<path fill="#000000" stroke="none" d="M203 113 c-7 -3 -13 -8 -13 -13 0 -10
24 -7 28 4 5 11 -1 14 -15 9z"/>
<path fill="#000000" stroke="none" d="M75 81 c-3 -5 -1 -12 5 -16 5 -3 10 -3
10 2 0 4 4 1 10 -7 5 -8 12 -11 16 -7 8 7 -14 37 -27 37 -4 0 -10 -4 -14 -9z"/>
<path fill="#000000" stroke="none" d="M70 22 c0 -5 7 -9 15 -9 8 0 12 4 9 9
-3 4 -9 8 -15 8 -5 0 -9 -4 -9 -8z"/>
</g>
</svg>
