<?xml version="1.0" standalone="no"?>
<!DOCTYPE svg PUBLIC "-//W3C//DTD SVG 20010904//EN"
 "http://www.w3.org/TR/2001/REC-SVG-20010904/DTD/svg10.dtd">
<svg version="1.0" xmlns="http://www.w3.org/2000/svg"
 width="32.000000pt" height="32.000000pt" viewBox="0 0 32.000000 32.000000"
 preserveAspectRatio="xMidYMid meet">
<metadata>
Created by potrace 1.16, written by Peter Selinger 2001-2019
</metadata>
<g transform="translate(0.000000,32.000000) scale(0.100000,-0.100000)"
fill="#000000" stroke="none">
<path fill="#000000" stroke="none" d="M98 298 c-10 -26 4 -38 42 -38 28 0 40
5 43 18 3 11 5 9 6 -8 1 -24 -1 -25 -45 -22 -26 3 -48 10 -51 18 -9 24 -43 -4
-64 -53 -24 -56 -25 -121 -3 -130 34 -13 73 39 42 58 -15 10 -18 29 -5 46 6 9
13 7 27 -7 18 -18 18 -22 5 -54 -8 -19 -19 -38 -25 -41 -6 -4 -8 -16 -5 -26 4
-11 1 -26 -5 -34 -10 -13 -7 -15 19 -15 25 0 34 6 41 26 8 20 15 24 30 19 12
-4 39 -4 61 0 37 7 39 8 25 24 -12 13 -15 31 -11 65 3 28 1 45 -5 41 -6 -3 -7
1 -4 9 8 22 10 21 28 -16 14 -28 14 -33 1 -48 -21 -24 -19 -39 9 -52 41 -18
56 -5 56 49 -1 76 -28 125 -89 156 -53 28 -116 36 -123 15z"/>
<path fill="#ffffff" stroke="none" d="M155 210 c-3 -5 -10 -10 -16 -10 -5 0
-9 5 -9 10 0 6 7 10 16 10 8 0 12 -4 9 -10z"/>
<path fill="#000000" stroke="none" d="M223 33 c9 -2 23 -2 30 0 6 3 -1 5 -18
5 -16 0 -22 -2 -12 -5z"/>
</g>
</svg>
