<?xml version="1.0" standalone="no"?>
<!DOCTYPE svg PUBLIC "-//W3C//DTD SVG 20010904//EN"
 "http://www.w3.org/TR/2001/REC-SVG-20010904/DTD/svg10.dtd">
<svg version="1.0" xmlns="http://www.w3.org/2000/svg"
 width="32.000000pt" height="32.000000pt" viewBox="0 0 32.000000 32.000000"
 preserveAspectRatio="xMidYMid meet">
<metadata>
Created by potrace 1.16, written by Peter Selinger 2001-2019
</metadata>
<g transform="translate(0.000000,32.000000) scale(0.100000,-0.100000)"
fill="#000000" stroke="none">
<path fill="#000000" stroke="none" d="M100 285 c0 -22 4 -25 40 -25 36 0 40
3 40 25 0 23 -4 25 -40 25 -36 0 -40 -2 -40 -25z"/>
<path fill="#000000" stroke="none" d="M193 264 c-1 -21 3 -32 10 -27 5 3 7 1
4 -4 -13 -21 -64 -35 -84 -24 -15 9 -12 10 20 11 26 0 37 4 37 15 0 19 -76 21
-83 3 -3 -7 -6 0 -6 15 -1 25 -3 27 -21 17 -12 -6 -25 -23 -30 -38 -6 -15 -15
-35 -20 -44 -17 -29 -12 -98 6 -105 36 -14 73 41 40 59 -20 11 -21 35 -2 54
13 12 15 11 21 -7 6 -17 12 -19 38 -14 l32 6 -27 -18 c-25 -16 -42 -43 -18
-28 6 4 9 -5 8 -19 -2 -20 -8 -26 -25 -26 -19 0 -23 -6 -23 -28 0 -15 -5 -33
-10 -38 -8 -8 -1 -11 21 -10 33 1 35 5 41 68 2 19 8 28 20 28 10 0 18 4 18 8
0 5 7 9 15 9 8 0 15 -8 15 -17 0 -9 7 -17 15 -17 8 0 15 7 15 14 0 8 -4 11
-10 8 -6 -3 -10 4 -10 17 0 17 3 19 9 9 6 -9 9 -1 8 24 -1 23 3 40 11 42 7 3
12 -4 12 -16 0 -12 5 -21 10 -21 15 0 12 -26 -5 -40 -8 -7 -15 -19 -15 -27 0
-12 3 -13 14 -4 11 9 14 8 12 -6 -1 -13 6 -18 24 -18 23 0 25 4 28 50 3 60
-32 141 -60 139 -10 -1 -18 2 -18 7 0 4 -8 13 -18 18 -16 8 -18 5 -19 -25z"/>
<path fill="#ffffff" stroke="none" d="M205 170 c-3 -5 -14 -10 -23 -9 -14 0
-13 2 3 9 27 11 27 11 20 0z"/>
</g>
</svg>
