<?xml version="1.0" standalone="no"?>
<!DOCTYPE svg PUBLIC "-//W3C//DTD SVG 20010904//EN"
 "http://www.w3.org/TR/2001/REC-SVG-20010904/DTD/svg10.dtd">
<svg version="1.0" xmlns="http://www.w3.org/2000/svg"
 width="32.000000pt" height="32.000000pt" viewBox="0 0 32.000000 32.000000"
 preserveAspectRatio="xMidYMid meet">
<metadata>
Created by potrace 1.16, written by Peter Selinger 2001-2019
</metadata>
<g transform="translate(0.000000,32.000000) scale(0.100000,-0.100000)"
fill="#000000" stroke="none">
<path fill="#000000" stroke="none" d="M0 183 c1 -130 2 -136 15 -104 9 20 20
31 28 28 10 -4 11 8 3 59 -9 60 -8 66 14 89 13 14 29 25 36 25 6 0 14 7 18 15
8 22 26 18 26 -7 0 -20 1 -21 20 -3 14 13 23 15 32 7 9 -7 19 -6 32 4 27 19
37 18 69 -11 l27 -26 0 31 0 30 -160 0 -160 0 0 -137z"/>
<path fill="#000000" stroke="none" d="M116 285 c-3 -8 -12 -15 -19 -15 -8 0
-20 -7 -27 -15 -10 -12 -10 -18 0 -30 7 -9 19 -14 27 -11 9 4 11 1 7 -6 -4 -6
1 -17 11 -25 12 -8 14 -13 6 -13 -8 0 -11 -8 -8 -20 3 -13 0 -20 -9 -20 -8 0
-14 6 -14 13 0 6 -9 25 -20 42 -16 25 -19 26 -17 8 0 -12 4 -20 8 -17 7 4 19
-20 19 -39 0 -7 -5 -6 -11 3 -9 12 -9 11 -4 -5 4 -11 8 -25 8 -32 0 -7 4 -10
9 -7 5 3 5 11 1 17 -5 9 -3 9 8 1 8 -6 23 -11 34 -12 24 0 145 49 145 60 0 4
-7 5 -16 1 -14 -5 -15 -3 -5 15 7 12 16 22 21 22 15 0 32 39 25 60 -9 29 -40
43 -65 30 -11 -6 -20 -16 -20 -22 0 -7 5 -6 15 2 16 13 35 6 35 -14 0 -8 -6
-19 -14 -25 -21 -18 -69 14 -61 40 8 25 -10 24 -28 -1 -15 -22 -57 -36 -57
-19 0 8 14 13 31 11 4 -1 5 8 2 18 -6 24 -9 25 -17 5z"/>
<path fill="#000000" stroke="none" d="M190 265 c0 -8 31 -34 41 -35 4 0 9 9
12 20 5 21 -7 28 -18 10 -5 -8 -11 -7 -21 1 -8 6 -14 8 -14 4z"/>
<path fill="#000000" stroke="none" d="M305 208 c4 -13 3 -18 -2 -11 -6 8 -13
8 -26 -2 -10 -7 -14 -16 -9 -19 15 -9 9 -66 -8 -76 -8 -5 -12 -10 -10 -12 23
-14 52 -28 60 -28 6 0 10 34 10 85 0 54 -4 85 -11 85 -6 0 -8 -9 -4 -22z"/>
<path fill="#000000" stroke="none" d="M30 96 c0 -2 8 -10 18 -17 15 -13 16
-12 3 4 -13 16 -21 21 -21 13z"/>
<path fill="#000000" stroke="none" d="M175 91 c-3 -6 4 -15 15 -21 22 -12 23
-10 14 14 -7 18 -20 21 -29 7z"/>
<path fill="#000000" stroke="none" d="M106 63 c-10 -11 -7 -28 10 -49 15 -18
15 -18 5 3 -13 27 -14 36 -2 28 5 -3 12 -1 15 4 7 10 -19 23 -28 14z"/>
<path fill="#000000" stroke="none" d="M239 53 c-12 -15 -12 -16 4 -10 10 4
23 7 28 7 6 0 7 5 4 10 -9 15 -21 12 -36 -7z"/>
</g>
</svg>
