<?xml version="1.0" standalone="no"?>
<!DOCTYPE svg PUBLIC "-//W3C//DTD SVG 20010904//EN"
 "http://www.w3.org/TR/2001/REC-SVG-20010904/DTD/svg10.dtd">
<svg version="1.0" xmlns="http://www.w3.org/2000/svg"
 width="32.000000pt" height="32.000000pt" viewBox="0 0 32.000000 32.000000"
 preserveAspectRatio="xMidYMid meet">
<metadata>
Created by potrace 1.16, written by Peter Selinger 2001-2019
</metadata>
<g transform="translate(0.000000,32.000000) scale(0.100000,-0.100000)"
fill="#000000" stroke="none">
<path fill="#000000" stroke="none" d="M84 282 c-32 -21 -45 -38 -59 -78 -9
-27 -15 -61 -13 -74 4 -31 38 -41 38 -11 0 11 4 31 10 45 l9 26 23 -23 c20
-19 34 -62 18 -52 -3 2 -12 0 -20 -6 -12 -7 -10 -9 7 -9 12 0 24 -3 26 -8 3
-4 -9 -7 -26 -7 -28 0 -32 -3 -29 -23 2 -13 -2 -30 -8 -38 -10 -12 -7 -14 21
-14 31 0 35 4 47 41 7 23 11 44 8 46 -8 9 32 41 55 45 13 2 28 13 34 25 11 22
11 22 28 -7 9 -15 14 -35 11 -43 -7 -18 9 -29 30 -21 21 8 21 56 0 115 -15 41
-23 49 -74 73 -71 32 -84 32 -136 -2z"/>
<path fill="#ffffff" stroke="none" d="M107 248 c-3 -8 -6 -5 -6 6 -1 11 2 17
5 13 3 -3 4 -12 1 -19z"/>
<path fill="#000000" stroke="none" d="M190 122 c-14 -2 -29 -8 -35 -14 -7 -8
-6 -9 3 -4 6 4 12 2 12 -4 0 -6 5 -8 10 -5 6 3 10 2 10 -3 0 -5 10 -8 23 -7
13 2 21 8 19 16 -5 21 -14 25 -42 21z"/>
<path fill="#000000" stroke="none" d="M210 58 c0 -5 -4 -6 -10 -3 -6 3 -7 -1
-4 -9 4 -10 18 -16 35 -16 26 0 28 2 18 18 -12 19 -39 26 -39 10z"/>
</g>
</svg>
