<?xml version="1.0" standalone="no"?>
<!DOCTYPE svg PUBLIC "-//W3C//DTD SVG 20010904//EN"
 "http://www.w3.org/TR/2001/REC-SVG-20010904/DTD/svg10.dtd">
<svg version="1.0" xmlns="http://www.w3.org/2000/svg"
 width="32.000000pt" height="32.000000pt" viewBox="0 0 32.000000 32.000000"
 preserveAspectRatio="xMidYMid meet">
<metadata>
Created by potrace 1.16, written by Peter Selinger 2001-2019
</metadata>
<g transform="translate(0.000000,32.000000) scale(0.100000,-0.100000)"
fill="#000000" stroke="none">
<path fill="#000000" stroke="none" d="M110 295 c-10 -12 -10 -23 -2 -48 l11
-32 -5 32 c-5 27 -3 31 14 26 14 -3 21 2 25 16 6 26 -24 29 -43 6z"/>
<path fill="#000000" stroke="none" d="M77 260 c4 -16 2 -19 -12 -13 -11 4
-16 3 -12 -4 3 -5 -4 -16 -17 -22 -16 -9 -23 -21 -22 -42 1 -16 5 -28 11 -26
5 1 8 13 6 26 -1 13 1 21 6 18 4 -3 22 1 38 8 17 7 25 14 19 14 -6 1 -9 12 -7
25 3 13 0 26 -5 30 -6 4 -8 -2 -5 -14z"/>
<path fill="#000000" stroke="none" d="M171 268 c-1 -10 -5 -18 -11 -18 -5 0
-10 -8 -10 -17 0 -14 3 -13 16 5 8 12 13 28 11 35 -3 7 -6 5 -6 -5z"/>
<path fill="#000000" stroke="none" d="M210 260 c-6 -11 -8 -25 -5 -30 3 -6 1
-10 -4 -10 -6 0 -11 -4 -11 -10 0 -18 18 -10 25 10 9 29 23 16 17 -16 -2 -14
0 -29 5 -33 16 -10 25 -49 13 -56 -16 -10 -23 0 -25 32 -3 50 -5 54 -15 48 -6
-4 -17 -1 -25 5 -8 6 -19 8 -26 4 -7 -4 -24 -7 -38 -8 -20 -1 -28 -8 -36 -36
-6 -19 -16 -45 -23 -58 -19 -33 -8 -52 28 -52 22 0 30 5 30 18 0 11 3 13 8 6
4 -6 26 -15 49 -19 31 -5 40 -10 36 -21 -4 -10 0 -12 11 -8 9 3 13 11 9 18 -4
6 6 3 22 -8 17 -10 24 -13 18 -5 -19 20 -16 32 7 26 11 -3 18 -1 14 4 -3 5
-12 9 -20 9 -21 0 -17 18 5 25 14 4 19 15 19 40 0 18 3 39 8 46 4 7 3 10 -3 6
-6 -4 -14 5 -17 19 -9 36 -36 74 -52 74 -7 0 -18 -9 -24 -20z"/>
<path fill="#ffffff" stroke="none" d="M245 61 c-3 -3 -10 1 -14 8 -5 7 -13
11 -19 7 -6 -3 -14 -2 -17 4 -4 6 -1 9 7 8 7 -2 12 4 10 12 -1 9 6 5 18 -9 11
-13 18 -26 15 -30z"/>
<path fill="#000000" stroke="none" d="M24 242 c3 -5 0 -13 -6 -15 -9 -4 -10
-6 -1 -6 17 -1 25 16 12 25 -7 4 -9 3 -5 -4z"/>
<path fill="#000000" stroke="none" d="M306 145 c-3 -8 -1 -15 4 -15 6 0 10 7
10 15 0 8 -2 15 -4 15 -2 0 -6 -7 -10 -15z"/>
</g>
</svg>
