<?xml version="1.0" standalone="no"?>
<!DOCTYPE svg PUBLIC "-//W3C//DTD SVG 20010904//EN"
 "http://www.w3.org/TR/2001/REC-SVG-20010904/DTD/svg10.dtd">
<svg version="1.0" xmlns="http://www.w3.org/2000/svg"
 width="32.000000pt" height="32.000000pt" viewBox="0 0 32.000000 32.000000"
 preserveAspectRatio="xMidYMid meet">
<metadata>
Created by potrace 1.16, written by Peter Selinger 2001-2019
</metadata>
<g transform="translate(0.000000,32.000000) scale(0.100000,-0.100000)"
fill="#000000" stroke="none">
<path fill="#000000" stroke="none" d="M49 201 c-16 -16 -29 -39 -29 -50 0
-18 6 -15 36 19 33 37 38 39 53 25 9 -8 29 -25 44 -36 27 -21 27 -22 9 -35
-11 -7 -22 -22 -25 -33 -5 -19 -3 -19 44 5 27 13 49 28 49 33 0 17 -60 73 -73
68 -7 -3 -19 4 -25 14 -17 27 -49 23 -83 -10z"/>
<path fill="#000000" stroke="none" d="M48 154 c-4 -3 -4 -11 -2 -18 7 -17 49
-13 49 5 0 14 -36 25 -47 13z"/>
<path fill="#000000" stroke="none" d="M183 88 c-13 -6 -23 -15 -23 -20 0 -5
11 -1 25 8 37 24 35 30 -2 12z"/>
</g>
</svg>
