<?xml version="1.0" standalone="no"?>
<!DOCTYPE svg PUBLIC "-//W3C//DTD SVG 20010904//EN"
 "http://www.w3.org/TR/2001/REC-SVG-20010904/DTD/svg10.dtd">
<svg version="1.0" xmlns="http://www.w3.org/2000/svg"
 width="32.000000pt" height="32.000000pt" viewBox="0 0 32.000000 32.000000"
 preserveAspectRatio="xMidYMid meet">
<metadata>
Created by potrace 1.16, written by Peter Selinger 2001-2019
</metadata>
<g transform="translate(0.000000,32.000000) scale(0.100000,-0.100000)"
fill="#000000" stroke="none">
<path fill="#000000" stroke="none" d="M0 160 l0 -160 160 0 160 0 0 160 0
160 -160 0 -160 0 0 -160z"/>
<path fill="#ffffff" stroke="none" d="M144 291 c17 -11 34 -17 39 -14 6 3 7
1 3 -5 -3 -6 -2 -13 4 -17 5 -3 10 -14 10 -24 0 -11 12 -24 30 -31 47 -19 80
-49 80 -72 0 -29 -63 -88 -94 -88 -14 0 -26 3 -26 6 0 4 19 23 43 44 l42 38
-28 7 c-35 9 -60 -10 -54 -42 2 -13 0 -23 -5 -23 -5 0 -13 -12 -19 -26 l-10
-27 -33 38 c-23 25 -36 33 -41 25 -5 -8 -10 -9 -18 -1 -7 7 -6 15 2 25 10 11
8 17 -11 30 -12 9 -18 16 -13 16 6 0 2 5 -8 11 -14 8 -15 14 -6 30 8 15 7 24
-2 35 -10 12 -9 13 5 8 18 -7 20 0 6 26 -8 15 -6 17 11 13 14 -4 25 1 35 16
18 26 22 26 58 2z"/>
<path fill="#ffffff" stroke="none" d="M48 116 c-7 -8 -15 -12 -17 -11 -5 6
10 25 20 25 5 0 4 -6 -3 -14z"/>
<path fill="#000000" stroke="none" d="M173 145 c0 -7 6 -11 14 -8 7 3 13 6
13 8 0 2 -6 5 -13 8 -8 3 -14 -1 -14 -8z"/>
</g>
</svg>
