<?xml version="1.0" standalone="no"?>
<!DOCTYPE svg PUBLIC "-//W3C//DTD SVG 20010904//EN"
 "http://www.w3.org/TR/2001/REC-SVG-20010904/DTD/svg10.dtd">
<svg version="1.0" xmlns="http://www.w3.org/2000/svg"
 width="32.000000pt" height="32.000000pt" viewBox="0 0 32.000000 32.000000"
 preserveAspectRatio="xMidYMid meet">
<metadata>
Created by potrace 1.16, written by Peter Selinger 2001-2019
</metadata>
<g transform="translate(0.000000,32.000000) scale(0.100000,-0.100000)"
fill="#000000" stroke="none">
<path fill="#000000" stroke="none" d="M129 161 c-16 -16 -29 -39 -29 -50 0
-17 7 -13 39 22 l39 42 26 -28 c14 -15 35 -27 46 -27 33 0 21 -32 -18 -52 -45
-22 -52 -31 -15 -17 39 13 67 44 60 64 -4 8 -1 15 6 15 8 0 6 4 -3 10 -8 5
-22 9 -30 9 -10 0 -8 -3 5 -9 16 -7 17 -9 3 -9 -24 -1 -49 10 -43 19 5 9 -33
40 -48 40 -5 0 -22 -13 -38 -29z"/>
<path fill="#000000" stroke="none" d="M160 35 c-7 -9 -11 -17 -9 -20 3 -2 10
5 17 15 14 24 10 26 -8 5z"/>
</g>
</svg>
