<?xml version="1.0" standalone="no"?>
<!DOCTYPE svg PUBLIC "-//W3C//DTD SVG 20010904//EN"
 "http://www.w3.org/TR/2001/REC-SVG-20010904/DTD/svg10.dtd">
<svg version="1.0" xmlns="http://www.w3.org/2000/svg"
 width="32.000000pt" height="32.000000pt" viewBox="0 0 32.000000 32.000000"
 preserveAspectRatio="xMidYMid meet">
<metadata>
Created by potrace 1.16, written by Peter Selinger 2001-2019
</metadata>
<g transform="translate(0.000000,32.000000) scale(0.100000,-0.100000)"
fill="#000000" stroke="none">
<path fill="#000000" stroke="none" d="M0 160 l0 -160 70 0 c54 0 70 3 70 14
0 21 30 48 47 42 9 -4 11 -2 7 6 -5 7 0 9 14 6 12 -4 20 -2 17 2 -7 12 30 31
40 22 5 -4 5 -1 1 6 -4 6 -22 20 -39 29 -18 9 -37 23 -43 30 -8 12 -17 7 -47
-26 -31 -34 -37 -38 -37 -20 0 27 52 79 79 79 12 0 26 -8 32 -19 7 -10 20 -16
30 -14 22 6 59 -30 59 -57 0 -15 -14 -28 -52 -45 -29 -14 -60 -25 -68 -25 -12
0 -13 -2 -1 -9 11 -7 11 -9 0 -14 -8 -3 21 -6 64 -6 l77 -1 0 160 0 160 -160
0 -160 0 0 -160z"/>
<path fill="#ffffff" stroke="none" d="M270 45 c-14 -8 -29 -14 -35 -14 -5 0
1 6 15 14 14 8 30 14 35 14 6 0 -1 -6 -15 -14z"/>
</g>
</svg>
