<?xml version="1.0" standalone="no"?>
<!DOCTYPE svg PUBLIC "-//W3C//DTD SVG 20010904//EN"
 "http://www.w3.org/TR/2001/REC-SVG-20010904/DTD/svg10.dtd">
<svg version="1.0" xmlns="http://www.w3.org/2000/svg"
 width="32.000000pt" height="32.000000pt" viewBox="0 0 32.000000 32.000000"
 preserveAspectRatio="xMidYMid meet">
<metadata>
Created by potrace 1.16, written by Peter Selinger 2001-2019
</metadata>
<g transform="translate(0.000000,32.000000) scale(0.100000,-0.100000)"
fill="#000000" stroke="none">
<path fill="#000000" stroke="none" d="M0 160 l0 -160 160 0 160 0 0 160 0
160 -160 0 -160 0 0 -160z"/>
<path fill="#ffffff" stroke="none" d="M271 201 c16 -16 29 -39 29 -50 0 -17
-7 -13 -39 21 l-39 42 -32 -32 c-17 -18 -38 -32 -45 -32 -28 0 -25 -20 7 -40
18 -11 29 -20 24 -20 -14 0 -76 43 -76 53 0 5 4 6 9 2 5 -3 12 -1 16 5 3 5 1
10 -5 10 -7 0 -5 6 4 15 17 17 36 20 36 5 0 -5 7 -7 15 -4 8 4 13 10 10 14 -5
9 33 40 48 40 5 0 22 -13 38 -29z"/>
<path fill="#ffffff" stroke="none" d="M237 145 c0 -8 -4 -12 -9 -9 -5 3 -6
10 -3 15 9 13 12 11 12 -6z"/>
<path fill="#ffffff" stroke="none" d="M265 151 c3 -5 2 -12 -3 -15 -5 -3 -9
1 -9 9 0 17 3 19 12 6z"/>
<path fill="#000000" stroke="none" d="M138 163 c7 -3 16 -2 19 1 4 3 -2 6
-13 5 -11 0 -14 -3 -6 -6z"/>
</g>
</svg>
