<?xml version="1.0" standalone="no"?>
<!DOCTYPE svg PUBLIC "-//W3C//DTD SVG 20010904//EN"
 "http://www.w3.org/TR/2001/REC-SVG-20010904/DTD/svg10.dtd">
<svg version="1.0" xmlns="http://www.w3.org/2000/svg"
 width="32.000000pt" height="32.000000pt" viewBox="0 0 32.000000 32.000000"
 preserveAspectRatio="xMidYMid meet">
<metadata>
Created by potrace 1.16, written by Peter Selinger 2001-2019
</metadata>
<g transform="translate(0.000000,32.000000) scale(0.100000,-0.100000)"
fill="#000000" stroke="none">
<path fill="#000000" stroke="none" d="M1 160 l0 -160 160 0 159 0 0 160 0
160 -159 0 -160 0 0 -160z"/>
<path fill="#ffffff" stroke="none" d="M132 211 c6 -10 18 -17 25 -14 13 5 73
-51 73 -68 0 -5 -22 -20 -49 -33 -47 -24 -49 -24 -44 -5 3 11 14 26 25 33 18
13 18 14 -9 35 -15 11 -35 28 -44 36 -15 14 -20 12 -53 -25 -30 -34 -36 -37
-36 -19 0 27 52 79 79 79 12 0 26 -9 33 -19z"/>
<path fill="#ffffff" stroke="none" d="M95 141 c0 -18 -42 -22 -49 -5 -6 17 4
25 29 22 11 -2 20 -9 20 -17z"/>
<path fill="#ffffff" stroke="none" d="M210 96 c0 -2 -11 -11 -25 -20 -14 -9
-25 -13 -25 -8 0 5 10 14 23 20 27 13 27 13 27 8z"/>
</g>
</svg>
