<?xml version="1.0" standalone="no"?>
<!DOCTYPE svg PUBLIC "-//W3C//DTD SVG 20010904//EN"
 "http://www.w3.org/TR/2001/REC-SVG-20010904/DTD/svg10.dtd">
<svg version="1.0" xmlns="http://www.w3.org/2000/svg"
 width="32.000000pt" height="32.000000pt" viewBox="0 0 32.000000 32.000000"
 preserveAspectRatio="xMidYMid meet">
<metadata>
Created by potrace 1.16, written by Peter Selinger 2001-2019
</metadata>
<g transform="translate(0.000000,32.000000) scale(0.100000,-0.100000)"
fill="#000000" stroke="none">
<path fill="#000000" stroke="none" d="M0 160 l0 -160 160 0 160 0 0 160 0
160 -160 0 -160 0 0 -160z"/>
<path fill="#ffffff" stroke="none" d="M163 204 c7 1 9 1 5 -1 -5 -3 -8 -12
-8 -21 0 -30 -39 -82 -61 -82 -24 0 -79 51 -79 75 0 10 10 4 31 -20 34 -38 53
-44 63 -19 3 8 10 13 15 10 10 -7 21 17 20 42 0 14 -2 13 -9 -3 -10 -24 -13
-5 -3 21 4 10 8 13 10 7 3 -7 10 -11 16 -9z"/>
<path fill="#ffffff" stroke="none" d="M237 175 c0 -8 -4 -12 -9 -9 -5 3 -6
10 -3 15 9 13 12 11 12 -6z"/>
<path fill="#ffffff" stroke="none" d="M282 175 c19 0 14 -11 -6 -11 -12 0
-23 6 -23 13 0 6 5 9 11 5 6 -4 14 -7 18 -7z"/>
</g>
</svg>
