<?xml version="1.0" standalone="no"?>
<!DOCTYPE svg PUBLIC "-//W3C//DTD SVG 20010904//EN"
 "http://www.w3.org/TR/2001/REC-SVG-20010904/DTD/svg10.dtd">
<svg version="1.0" xmlns="http://www.w3.org/2000/svg"
 width="32.000000pt" height="32.000000pt" viewBox="0 0 32.000000 32.000000"
 preserveAspectRatio="xMidYMid meet">
<metadata>
Created by potrace 1.16, written by Peter Selinger 2001-2019
</metadata>
<g transform="translate(0.000000,32.000000) scale(0.100000,-0.100000)"
fill="#000000" stroke="none">
<path fill="#000000" stroke="none" d="M0 160 l0 -160 160 0 161 0 -3 158 -3
157 -157 3 -158 3 0 -161z"/>
<path fill="#ffffff" stroke="none" d="M300 298 c-8 -7 -20 -20 -28 -28 -11
-13 -12 -12 -3 7 9 18 23 29 41 32 2 1 -2 -5 -10 -11z"/>
<path fill="#ffffff" stroke="none" d="M92 227 c-36 -37 -39 -52 -14 -66 9 -6
13 -11 7 -11 -19 -1 20 -20 40 -19 l20 0 -20 10 c-16 8 -15 8 8 4 21 -4 27 -2
21 6 -5 8 -3 9 6 4 10 -6 10 -10 -2 -19 -8 -6 -13 -17 -10 -24 6 -18 -24 -49
-61 -61 -37 -14 -30 -5 15 17 36 19 51 52 22 52 -27 0 -84 43 -84 63 0 21 52
77 71 77 7 0 -1 -15 -19 -33z"/>
<path fill="#ffffff" stroke="none" d="M246 228 c4 -7 3 -8 -4 -4 -7 4 -23 -5
-38 -21 -21 -22 -24 -24 -15 -6 6 12 19 27 29 32 21 13 20 13 28 -1z"/>
<path fill="#ffffff" stroke="none" d="M91 87 c-10 -9 -11 -8 -5 6 3 10 9 15
12 12 3 -3 0 -11 -7 -18z"/>
<path fill="#ffffff" stroke="none" d="M38 30 c-7 -10 -14 -17 -17 -15 -4 4
18 35 25 35 2 0 -1 -9 -8 -20z"/>
</g>
</svg>
