<?xml version="1.0" standalone="no"?>
<!DOCTYPE svg PUBLIC "-//W3C//DTD SVG 20010904//EN"
 "http://www.w3.org/TR/2001/REC-SVG-20010904/DTD/svg10.dtd">
<svg version="1.0" xmlns="http://www.w3.org/2000/svg"
 width="32.000000pt" height="32.000000pt" viewBox="0 0 32.000000 32.000000"
 preserveAspectRatio="xMidYMid meet">
<metadata>
Created by potrace 1.16, written by Peter Selinger 2001-2019
</metadata>
<g transform="translate(0.000000,32.000000) scale(0.100000,-0.100000)"
fill="#000000" stroke="none">
<path fill="#000000" stroke="none" d="M50 191 c-17 -16 -30 -39 -30 -50 0
-18 6 -14 37 20 34 38 38 39 50 23 7 -10 13 -26 13 -36 0 -10 9 -27 21 -39 16
-16 23 -18 35 -8 16 13 19 40 4 37 -6 -2 -20 15 -33 37 -29 51 -57 56 -97 16z"/>
<path fill="#000000" stroke="none" d="M270 166 c-47 -13 -61 -38 -22 -41 12
-1 22 2 22 6 0 5 7 5 17 2 12 -5 14 -3 8 7 -6 9 -4 12 6 8 10 -4 15 1 16 13 1
10 1 19 0 18 -1 -1 -22 -6 -47 -13z"/>
</g>
</svg>
