<?xml version="1.0" standalone="no"?>
<!DOCTYPE svg PUBLIC "-//W3C//DTD SVG 20010904//EN"
 "http://www.w3.org/TR/2001/REC-SVG-20010904/DTD/svg10.dtd">
<svg version="1.0" xmlns="http://www.w3.org/2000/svg"
 width="32.000000pt" height="32.000000pt" viewBox="0 0 32.000000 32.000000"
 preserveAspectRatio="xMidYMid meet">
<metadata>
Created by potrace 1.16, written by Peter Selinger 2001-2019
</metadata>
<g transform="translate(0.000000,32.000000) scale(0.100000,-0.100000)"
fill="#000000" stroke="none">
<path fill="#000000" stroke="none" d="M114 257 c-3 -9 -10 -15 -14 -12 -5 3
-6 -4 -3 -15 3 -11 0 -27 -8 -36 -10 -12 -10 -15 1 -12 17 4 20 -19 7 -46 -6
-13 -5 -21 4 -27 10 -6 11 -9 1 -9 -6 0 -11 -3 -10 -7 2 -5 -1 -9 -7 -9 -5 -1
-9 2 -7 8 1 5 -2 7 -7 3 -6 -3 -18 6 -27 20 -18 27 -34 25 -34 -5 0 -31 51
-80 92 -89 30 -7 35 -6 31 6 -5 12 0 12 22 -3 27 -18 28 -18 46 5 13 15 26 22
39 18 16 -4 18 -2 10 13 -14 26 -12 33 6 26 14 -5 15 -4 5 8 -9 11 -10 20 -2
35 9 16 8 22 -6 30 -10 6 -14 11 -8 11 5 0 -1 7 -13 16 -18 12 -20 19 -12 29
16 19 3 40 -15 25 -10 -8 -17 -6 -27 9 -10 14 -18 17 -28 11 -9 -6 -17 -5 -22
3 -5 8 -9 6 -14 -6z"/>
<path fill="#ffffff" stroke="none" d="M210 163 c0 -2 -9 1 -19 7 -11 5 -23
10 -28 10 -4 -1 9 -10 30 -21 l38 -20 -18 -29 c-15 -26 -54 -51 -60 -39 -2 2
-10 -6 -18 -18 -9 -13 -25 -23 -36 -23 -27 0 -79 53 -79 79 0 18 6 15 36 -19
33 -37 38 -39 53 -25 9 8 28 25 44 36 32 24 35 45 7 54 -16 5 -17 9 -8 25 11
16 14 17 35 3 13 -8 23 -17 23 -20z"/>
<path fill="#000000" stroke="none" d="M242 204 c-7 -8 -8 -14 -3 -14 10 0 25
19 20 25 -2 1 -10 -3 -17 -11z"/>
</g>
</svg>
