<?xml version="1.0" standalone="no"?>
<!DOCTYPE svg PUBLIC "-//W3C//DTD SVG 20010904//EN"
 "http://www.w3.org/TR/2001/REC-SVG-20010904/DTD/svg10.dtd">
<svg version="1.0" xmlns="http://www.w3.org/2000/svg"
 width="32.000000pt" height="32.000000pt" viewBox="0 0 32.000000 32.000000"
 preserveAspectRatio="xMidYMid meet">
<metadata>
Created by potrace 1.16, written by Peter Selinger 2001-2019
</metadata>
<g transform="translate(0.000000,32.000000) scale(0.100000,-0.100000)"
fill="#000000" stroke="none">
<path fill="#000000" stroke="none" d="M40 206 c-10 -13 -8 -21 13 -45 18 -22
27 -27 36 -18 8 8 11 8 11 -1 0 -7 6 -12 14 -12 11 0 13 9 9 38 -6 40 -18 60
-30 48 -4 -4 -1 -17 6 -29 11 -18 8 -17 -16 6 -26 24 -31 26 -43 13z"/>
<path fill="#ffffff" stroke="none" d="M86 162 c-6 -5 -36 23 -36 34 0 4 9 -1
20 -11 11 -10 18 -20 16 -23z"/>
</g>
</svg>
