<?xml version="1.0" standalone="no"?>
<!DOCTYPE svg PUBLIC "-//W3C//DTD SVG 20010904//EN"
 "http://www.w3.org/TR/2001/REC-SVG-20010904/DTD/svg10.dtd">
<svg version="1.0" xmlns="http://www.w3.org/2000/svg"
 width="32.000000pt" height="32.000000pt" viewBox="0 0 32.000000 32.000000"
 preserveAspectRatio="xMidYMid meet">
<metadata>
Created by potrace 1.16, written by Peter Selinger 2001-2019
</metadata>
<g transform="translate(0.000000,32.000000) scale(0.100000,-0.100000)"
fill="#000000" stroke="none">
<path fill="#000000" stroke="none" d="M0 290 c0 -36 9 -38 38 -7 29 31 28 37
-8 37 -27 0 -30 -3 -30 -30z"/>
<path fill="#000000" stroke="none" d="M70 311 c0 -5 13 -20 28 -33 l28 -23
-29 -24 c-21 -17 -27 -31 -24 -48 3 -14 -1 -23 -8 -23 -8 0 -11 8 -8 20 5 20
-30 70 -49 70 -4 0 -8 -56 -8 -125 l0 -125 160 0 160 0 0 160 0 160 -125 0
c-70 0 -125 -4 -125 -9z"/>
</g>
</svg>
