<?xml version="1.0" standalone="no"?>
<!DOCTYPE svg PUBLIC "-//W3C//DTD SVG 20010904//EN"
 "http://www.w3.org/TR/2001/REC-SVG-20010904/DTD/svg10.dtd">
<svg version="1.0" xmlns="http://www.w3.org/2000/svg"
 width="32.000000pt" height="32.000000pt" viewBox="0 0 32.000000 32.000000"
 preserveAspectRatio="xMidYMid meet">
<metadata>
Created by potrace 1.16, written by Peter Selinger 2001-2019
</metadata>
<g transform="translate(0.000000,32.000000) scale(0.100000,-0.100000)"
fill="#000000" stroke="none">
<path fill="#000000" stroke="none" d="M0 248 c0 -61 2 -69 16 -64 9 4 36 11
60 17 72 18 153 -7 139 -43 -6 -15 -10 -15 -40 -2 -43 18 -59 18 -123 -1 l-52
-16 0 -69 0 -70 160 0 160 0 0 160 0 160 -160 -1 -160 0 0 -71z"/>
<path fill="#ffffff" stroke="none" d="M204 289 c10 -15 21 -20 35 -16 17 4
19 2 11 -13 -14 -26 -12 -33 6 -26 14 5 15 4 5 -8 -9 -11 -10 -20 -1 -36 9
-16 8 -21 -5 -26 -8 -3 -12 -10 -9 -15 3 -5 -1 -9 -8 -9 -8 0 -6 -5 5 -11 9
-5 17 -15 17 -20 0 -6 -7 -3 -16 5 -19 19 -40 11 -24 -9 16 -19 3 -40 -15 -25
-11 9 -17 7 -26 -9 -10 -15 -17 -17 -31 -10 -13 7 -18 6 -18 -3 -1 -8 -5 -7
-14 4 -7 10 -16 15 -19 12 -3 -3 -3 3 0 15 3 12 0 28 -8 37 -10 12 -10 15 2
12 8 -2 13 2 12 7 -1 6 7 12 18 12 19 2 20 1 5 -22 -17 -26 -22 -60 -7 -50 5
3 12 1 16 -5 11 -17 32 -11 38 12 6 21 7 21 27 3 25 -22 27 -9 3 18 -10 11
-12 17 -5 13 8 -5 15 2 21 17 6 14 16 27 23 29 10 4 9 10 -5 26 -15 16 -16 24
-8 41 9 17 9 20 -3 15 -8 -3 -24 5 -36 18 -16 17 -24 19 -27 10 -3 -7 -16 -18
-30 -23 -21 -8 -23 -12 -13 -24 10 -12 9 -15 -8 -15 -18 0 -22 13 -12 40 1 3
2 9 1 13 -1 5 2 6 7 3 4 -3 21 4 38 15 36 24 40 24 58 -2z"/>
</g>
</svg>
