<?xml version="1.0" standalone="no"?>
<!DOCTYPE svg PUBLIC "-//W3C//DTD SVG 20010904//EN"
 "http://www.w3.org/TR/2001/REC-SVG-20010904/DTD/svg10.dtd">
<svg version="1.0" xmlns="http://www.w3.org/2000/svg"
 width="32.000000pt" height="32.000000pt" viewBox="0 0 32.000000 32.000000"
 preserveAspectRatio="xMidYMid meet">
<metadata>
Created by potrace 1.16, written by Peter Selinger 2001-2019
</metadata>
<g transform="translate(0.000000,32.000000) scale(0.100000,-0.100000)"
fill="#000000" stroke="none">
<path fill="#000000" stroke="none" d="M184 186 c1 -8 5 -18 8 -22 4 -3 5 1 4
10 -1 8 -5 18 -8 22 -4 3 -5 -1 -4 -10z"/>
<path fill="#000000" stroke="none" d="M55 180 c-4 -6 -10 -8 -15 -5 -5 3 -11
2 -14 -3 -2 -4 6 -8 18 -8 12 0 23 6 23 13 0 16 -4 16 -12 3z"/>
<path fill="#000000" stroke="none" d="M83 175 c0 -8 4 -12 9 -9 5 3 6 10 3
15 -9 13 -12 11 -12 -6z"/>
<path fill="#000000" stroke="none" d="M153 175 c0 -8 4 -12 9 -9 5 3 6 10 3
15 -9 13 -12 11 -12 -6z"/>
</g>
</svg>
