<?xml version="1.0" standalone="no"?>
<!DOCTYPE svg PUBLIC "-//W3C//DTD SVG 20010904//EN"
 "http://www.w3.org/TR/2001/REC-SVG-20010904/DTD/svg10.dtd">
<svg version="1.0" xmlns="http://www.w3.org/2000/svg"
 width="32.000000pt" height="32.000000pt" viewBox="0 0 32.000000 32.000000"
 preserveAspectRatio="xMidYMid meet">
<metadata>
Created by potrace 1.16, written by Peter Selinger 2001-2019
</metadata>
<g transform="translate(0.000000,32.000000) scale(0.100000,-0.100000)"
fill="#000000" stroke="none">
<path fill="#000000" stroke="none" d="M0 306 c0 -8 4 -17 9 -20 5 -4 21 -38
36 -76 37 -97 86 -121 171 -85 26 11 34 19 30 31 -3 8 -6 17 -6 19 0 2 -16 -3
-35 -11 -73 -30 -99 -16 -135 76 -12 30 -26 61 -32 67 -14 17 -38 16 -38 -1z"/>
<path fill="#000000" stroke="none" d="M54 298 c7 -13 22 -44 31 -71 14 -38
20 -45 31 -36 8 6 14 22 14 35 0 13 5 24 10 24 6 0 10 9 10 19 0 28 17 35 25
11 4 -11 10 -18 15 -15 5 3 12 -6 16 -20 6 -24 8 -25 24 -10 15 13 18 14 23 2
3 -8 1 -19 -5 -25 -6 -6 -2 -15 13 -26 14 -10 18 -16 9 -16 -10 0 -8 -4 5 -13
12 -9 15 -19 10 -28 -13 -20 -14 -51 -2 -74 10 -19 9 -19 -18 -1 -15 10 -24
13 -21 7 4 -6 2 -11 -4 -11 -6 0 -14 -10 -19 -22 l-8 -21 -22 22 c-13 13 -25
20 -28 17 -3 -3 -12 2 -20 10 -12 12 -13 17 -2 30 7 8 8 14 3 12 -5 -2 -25 7
-45 18 -30 18 -42 35 -64 93 -15 39 -29 71 -31 71 -2 0 -4 -63 -4 -140 l0
-140 160 0 160 0 0 160 0 160 -140 0 -140 0 14 -22z"/>
<path fill="#ffffff" stroke="none" d="M285 200 c-3 -5 -12 -10 -18 -10 -7 0
-6 4 3 10 19 12 23 12 15 0z"/>
<path fill="#000000" stroke="none" d="M120 173 c0 -7 6 -13 13 -13 8 0 14 6
14 13 0 8 -6 14 -14 14 -7 0 -13 -6 -13 -14z"/>
</g>
</svg>
