<?xml version="1.0" standalone="no"?>
<!DOCTYPE svg PUBLIC "-//W3C//DTD SVG 20010904//EN"
 "http://www.w3.org/TR/2001/REC-SVG-20010904/DTD/svg10.dtd">
<svg version="1.0" xmlns="http://www.w3.org/2000/svg"
 width="32.000000pt" height="32.000000pt" viewBox="0 0 32.000000 32.000000"
 preserveAspectRatio="xMidYMid meet">
<metadata>
Created by potrace 1.16, written by Peter Selinger 2001-2019
</metadata>
<g transform="translate(0.000000,32.000000) scale(0.100000,-0.100000)"
fill="#000000" stroke="none">
<path fill="#000000" stroke="none" d="M4 295 c-1 -14 2 -22 7 -19 11 6 12 44
2 44 -5 0 -9 -11 -9 -25z"/>
<path fill="#000000" stroke="none" d="M60 304 c0 -9 -9 -18 -20 -21 -24 -6
-27 -26 -4 -21 9 2 22 12 28 23 6 11 16 23 21 27 6 4 2 8 -7 8 -10 0 -18 -7
-18 -16z"/>
<path fill="#000000" stroke="none" d="M120 309 c0 -5 5 -7 10 -4 6 3 10 8 10
11 0 2 -4 4 -10 4 -5 0 -10 -5 -10 -11z"/>
<path fill="#000000" stroke="none" d="M144 295 c-16 -14 -24 -25 -19 -25 14
1 59 39 53 45 -3 3 -18 -6 -34 -20z"/>
<path fill="#000000" stroke="none" d="M210 309 c0 -5 -3 -8 -7 -6 -10 6 -34
-19 -26 -26 7 -8 53 22 53 34 0 5 -4 9 -10 9 -5 0 -10 -5 -10 -11z"/>
<path fill="#000000" stroke="none" d="M96 295 c-3 -8 -1 -15 4 -15 6 0 10 7
10 15 0 8 -2 15 -4 15 -2 0 -6 -7 -10 -15z"/>
<path fill="#000000" stroke="none" d="M235 289 c-4 -6 -5 -12 -2 -15 2 -3 7
2 10 11 7 17 1 20 -8 4z"/>
<path fill="#000000" stroke="none" d="M60 255 c-10 -12 -9 -16 3 -21 9 -3 21
-3 27 1 25 15 70 14 79 -3 9 -15 10 -14 8 5 -1 17 -9 22 -40 25 -26 2 -41 -1
-44 -9 -3 -7 -9 -13 -14 -13 -4 0 -6 7 -3 15 8 19 0 19 -16 0z"/>
<path fill="#000000" stroke="none" d="M140 221 c-12 -24 -13 -34 -1 -27 9 6
22 46 15 46 -2 0 -8 -9 -14 -19z"/>
<path fill="#000000" stroke="none" d="M208 233 c6 -2 10 -9 7 -14 -4 -5 1 -6
10 -2 13 5 14 7 3 14 -7 5 -17 8 -23 8 -5 0 -4 -3 3 -6z"/>
<path fill="#000000" stroke="none" d="M111 218 c0 -10 -8 -18 -16 -18 -8 0
-15 -7 -15 -16 0 -8 -4 -13 -8 -10 -4 2 -9 -9 -10 -25 -2 -22 2 -29 15 -28 11
0 13 3 6 6 -10 3 -9 11 2 33 8 15 20 30 26 32 6 2 9 13 6 23 -4 17 -5 17 -6 3z"/>
<path fill="#000000" stroke="none" d="M255 220 c-3 -5 -1 -10 4 -10 6 0 11 5
11 10 0 6 -2 10 -4 10 -3 0 -8 -4 -11 -10z"/>
<path fill="#000000" stroke="none" d="M50 210 c13 -8 12 -10 -3 -10 -10 0
-25 -7 -33 -15 -19 -19 -15 -19 24 1 35 17 42 34 15 34 -15 0 -16 -2 -3 -10z"/>
<path fill="#000000" stroke="none" d="M161 194 c0 -11 3 -14 6 -6 3 7 2 16
-1 19 -3 4 -6 -2 -5 -13z"/>
<path fill="#000000" stroke="none" d="M187 193 c-10 -9 -9 -23 2 -23 5 0 11
7 15 15 5 15 -5 20 -17 8z"/>
<path fill="#000000" stroke="none" d="M117 162 c-10 -10 -17 -25 -17 -33 1
-8 8 -1 16 14 8 15 19 25 24 22 6 -4 10 -1 10 4 0 17 -15 13 -33 -7z"/>
<path fill="#000000" stroke="none" d="M17 145 c-3 -7 0 -12 8 -11 22 3 27 13
11 19 -8 3 -17 0 -19 -8z"/>
<path fill="#000000" stroke="none" d="M139 139 l-24 -20 30 17 c39 24 40 24
28 24 -6 0 -21 -9 -34 -21z"/>
<path fill="#000000" stroke="none" d="M13 113 c-7 -2 -13 -9 -13 -15 0 -6 6
-6 15 2 13 11 14 8 10 -21 -4 -27 -3 -30 4 -14 12 25 14 55 4 54 -5 0 -14 -3
-20 -6z"/>
<path fill="#000000" stroke="none" d="M155 110 c-3 -5 -1 -10 4 -10 6 0 11 5
11 10 0 6 -2 10 -4 10 -3 0 -8 -4 -11 -10z"/>
<path fill="#000000" stroke="none" d="M108 103 c7 -3 16 -2 19 1 4 3 -2 6
-13 5 -11 0 -14 -3 -6 -6z"/>
<path fill="#000000" stroke="none" d="M50 91 c0 -5 5 -13 10 -16 6 -3 10 -2
10 4 0 5 -4 13 -10 16 -5 3 -10 2 -10 -4z"/>
<path fill="#000000" stroke="none" d="M130 75 c-11 -13 -10 -14 4 -9 9 3 16
10 16 15 0 13 -6 11 -20 -6z"/>
</g>
</svg>
