<?xml version="1.0" standalone="no"?>
<!DOCTYPE svg PUBLIC "-//W3C//DTD SVG 20010904//EN"
 "http://www.w3.org/TR/2001/REC-SVG-20010904/DTD/svg10.dtd">
<svg version="1.0" xmlns="http://www.w3.org/2000/svg"
 width="32.000000pt" height="32.000000pt" viewBox="0 0 32.000000 32.000000"
 preserveAspectRatio="xMidYMid meet">
<metadata>
Created by potrace 1.16, written by Peter Selinger 2001-2019
</metadata>
<g transform="translate(0.000000,32.000000) scale(0.100000,-0.100000)"
fill="#000000" stroke="none">
<path fill="#000000" stroke="none" d="M20 301 c0 -11 -4 -22 -8 -25 -12 -7
-14 -96 -2 -96 5 0 10 5 10 10 0 6 10 10 23 10 18 0 19 2 7 10 -13 8 -12 10 3
10 28 0 19 -18 -18 -36 -28 -13 -35 -22 -35 -46 0 -25 3 -28 20 -23 22 7 26
-14 9 -50 -7 -16 -8 -13 -4 14 4 26 2 31 -8 23 -7 -6 -13 -31 -15 -56 l-2 -46
160 0 160 0 0 161 0 160 -42 -3 c-26 -2 -51 -11 -66 -25 -26 -24 -51 -22 -29
1 6 8 15 12 20 9 4 -2 7 1 7 6 0 18 -19 12 -48 -14 -15 -14 -31 -25 -37 -25
-5 0 3 11 19 25 20 17 24 25 13 25 -9 0 -19 -5 -23 -11 -5 -8 -9 -8 -14 1 -11
17 -43 4 -55 -22 -6 -13 -18 -24 -27 -26 -25 -5 -23 14 2 21 11 3 20 12 20 21
0 9 -8 16 -20 16 -13 0 -20 -7 -20 -19z"/>
<path fill="#ffffff" stroke="none" d="M110 295 c0 -8 -4 -15 -10 -15 -5 0 -7
7 -4 15 4 8 8 15 10 15 2 0 4 -7 4 -15z"/>
<path fill="#ffffff" stroke="none" d="M243 285 c-3 -9 -8 -14 -10 -11 -3 3
-2 9 2 15 9 16 15 13 8 -4z"/>
<path fill="#ffffff" stroke="none" d="M76 255 c-3 -8 -1 -15 3 -15 5 0 11 6
14 13 3 8 18 11 44 9 31 -3 39 -8 40 -25 2 -19 1 -20 -8 -5 -9 17 -54 18 -79
3 -6 -4 -18 -4 -27 -1 -12 5 -13 9 -3 21 16 19 24 19 16 0z"/>
<path fill="#ffffff" stroke="none" d="M153 220 c-5 -19 -23 -39 -23 -25 0 9
20 45 24 45 2 0 2 -9 -1 -20z"/>
<path fill="#ffffff" stroke="none" d="M228 231 c11 -7 10 -9 -3 -14 -9 -4
-14 -3 -10 2 3 5 -1 12 -7 14 -7 3 -8 6 -3 6 6 0 16 -3 23 -8z"/>
<path fill="#ffffff" stroke="none" d="M111 192 c-6 -2 -18 -17 -26 -32 -11
-22 -12 -30 -2 -33 7 -3 5 -6 -6 -6 -13 -1 -17 6 -15 28 1 16 6 27 10 25 4 -3
8 2 8 10 0 9 7 16 15 16 8 0 16 8 16 18 1 14 2 14 6 -3 3 -10 0 -21 -6 -23z"/>
<path fill="#ffffff" stroke="none" d="M270 220 c0 -5 -5 -10 -11 -10 -5 0 -7
5 -4 10 3 6 8 10 11 10 2 0 4 -4 4 -10z"/>
<path fill="#ffffff" stroke="none" d="M167 188 c-3 -8 -6 -5 -6 6 -1 11 2 17
5 13 3 -3 4 -12 1 -19z"/>
<path fill="#ffffff" stroke="none" d="M204 185 c-6 -16 -24 -21 -24 -7 0 11
11 22 21 22 5 0 6 -7 3 -15z"/>
<path fill="#ffffff" stroke="none" d="M150 169 c0 -5 -4 -8 -10 -4 -5 3 -16
-7 -24 -22 -8 -15 -15 -22 -16 -14 0 16 28 51 42 51 4 0 8 -5 8 -11z"/>
<path fill="#ffffff" stroke="none" d="M45 142 c-12 -12 -33 -10 -28 3 2 8 11
11 19 8 8 -3 12 -8 9 -11z"/>
<path fill="#ffffff" stroke="none" d="M179 157 c-2 -2 -17 -11 -34 -21 l-30
-17 24 20 c13 12 28 21 34 21 6 0 8 -1 6 -3z"/>
<path fill="#ffffff" stroke="none" d="M170 110 c0 -5 -5 -10 -11 -10 -5 0 -7
5 -4 10 3 6 8 10 11 10 2 0 4 -4 4 -10z"/>
<path fill="#ffffff" stroke="none" d="M127 104 c-3 -3 -12 -4 -19 -1 -8 3 -5
6 6 6 11 1 17 -2 13 -5z"/>
<path fill="#ffffff" stroke="none" d="M70 79 c0 -6 -4 -7 -10 -4 -5 3 -10 11
-10 16 0 6 5 7 10 4 6 -3 10 -11 10 -16z"/>
<path fill="#ffffff" stroke="none" d="M150 81 c0 -5 -7 -12 -16 -15 -14 -5
-15 -4 -4 9 14 17 20 19 20 6z"/>
</g>
</svg>
