<?xml version="1.0" standalone="no"?>
<!DOCTYPE svg PUBLIC "-//W3C//DTD SVG 20010904//EN"
 "http://www.w3.org/TR/2001/REC-SVG-20010904/DTD/svg10.dtd">
<svg version="1.0" xmlns="http://www.w3.org/2000/svg"
 width="32.000000pt" height="32.000000pt" viewBox="0 0 32.000000 32.000000"
 preserveAspectRatio="xMidYMid meet">
<metadata>
Created by potrace 1.16, written by Peter Selinger 2001-2019
</metadata>
<g transform="translate(0.000000,32.000000) scale(0.100000,-0.100000)"
fill="#000000" stroke="none">
<path fill="#000000" stroke="none" d="M0 303 c0 -10 4 -14 8 -8 4 6 11 13 16
18 5 4 2 7 -7 7 -10 0 -17 -8 -17 -17z"/>
<path fill="#000000" stroke="none" d="M73 298 c-2 -18 0 -20 7 -8 12 18 13
30 2 30 -4 0 -9 -10 -9 -22z"/>
<path fill="#000000" stroke="none" d="M195 310 c-3 -5 -2 -10 4 -10 5 0 13 5
16 10 3 6 2 10 -4 10 -5 0 -13 -4 -16 -10z"/>
<path fill="#000000" stroke="none" d="M248 313 c6 -2 9 -10 6 -15 -4 -7 -2
-8 5 -4 13 9 5 26 -12 25 -9 0 -8 -2 1 -6z"/>
<path fill="#000000" stroke="none" d="M94 286 c-8 -21 -32 -27 -46 -12 -11
11 -16 11 -26 -1 -10 -11 -9 -13 7 -13 11 0 22 -9 26 -20 8 -24 24 -27 21 -3
-3 17 21 46 45 56 10 4 9 6 -4 6 -10 1 -20 -5 -23 -13z"/>
<path fill="#000000" stroke="none" d="M123 265 c0 -8 4 -15 9 -15 4 0 8 7 8
15 0 8 -4 15 -8 15 -5 0 -9 -7 -9 -15z"/>
<path fill="#000000" stroke="none" d="M187 257 c-10 -10 -23 -15 -28 -11 -8
4 -7 0 0 -14 7 -14 8 -23 1 -27 -5 -3 -10 -14 -9 -23 0 -14 2 -13 9 3 4 12 15
27 24 34 9 7 14 17 11 21 -3 5 -1 11 5 15 5 3 10 1 10 -4 0 -7 7 -7 20 1 26
17 25 23 -2 23 -13 0 -31 -8 -41 -18z"/>
<path fill="#000000" stroke="none" d="M310 272 c0 -7 -9 -12 -19 -12 -11 0
-22 -4 -25 -9 -3 -4 6 -6 19 -3 26 5 41 19 31 29 -3 4 -6 1 -6 -5z"/>
<path fill="#000000" stroke="none" d="M237 237 c-3 -8 3 -14 16 -15 12 0 17
2 12 6 -6 4 -13 11 -16 15 -4 4 -9 2 -12 -6z"/>
<path fill="#000000" stroke="none" d="M300 221 c0 -6 4 -13 10 -16 6 -3 7 1
4 9 -7 18 -14 21 -14 7z"/>
<path fill="#000000" stroke="none" d="M36 203 c-6 -14 -5 -15 5 -6 7 7 10 15
7 18 -3 3 -9 -2 -12 -12z"/>
<path fill="#000000" stroke="none" d="M107 214 c-10 -11 5 -34 22 -34 14 1
14 2 -2 11 -9 6 -15 14 -12 20 7 10 2 12 -8 3z"/>
<path fill="#000000" stroke="none" d="M202 186 c-1 -16 6 -27 23 -34 23 -10
25 -9 25 11 0 18 -2 19 -10 7 -8 -13 -10 -13 -10 1 0 9 -6 21 -13 27 -10 8
-13 5 -15 -12z"/>
<path fill="#000000" stroke="none" d="M67 189 c-19 -11 -23 -29 -6 -29 5 0 7
5 3 12 -5 8 -2 9 9 5 9 -3 19 -2 22 3 8 14 -9 19 -28 9z"/>
<path fill="#000000" stroke="none" d="M259 191 c8 -5 12 -18 8 -30 -7 -29 1
-26 13 5 6 15 14 22 22 18 7 -4 8 -3 4 4 -4 7 -19 12 -34 12 -20 0 -23 -3 -13
-9z"/>
<path fill="#000000" stroke="none" d="M305 150 c4 -6 -8 -15 -25 -21 -17 -6
-29 -13 -27 -15 9 -9 67 19 67 32 0 8 -5 14 -11 14 -5 0 -7 -5 -4 -10z"/>
<path fill="#000000" stroke="none" d="M6 142 c5 -4 12 -11 15 -15 3 -5 9 -2
12 5 3 9 -3 14 -15 15 -11 1 -16 -1 -12 -5z"/>
<path fill="#000000" stroke="none" d="M85 130 c-7 -11 22 -26 32 -16 4 3 -1
6 -11 6 -9 0 -14 5 -11 10 3 6 4 10 1 10 -3 0 -8 -5 -11 -10z"/>
<path fill="#000000" stroke="none" d="M137 113 c3 -7 6 -13 8 -13 2 0 5 6 8
13 3 8 -1 14 -8 14 -7 0 -11 -6 -8 -14z"/>
<path fill="#000000" stroke="none" d="M17 103 c-12 -12 -7 -19 15 -20 13 -1
18 1 13 5 -6 4 -13 11 -16 15 -3 4 -9 4 -12 0z"/>
<path fill="#000000" stroke="none" d="M171 94 c0 -11 3 -14 6 -6 3 7 2 16 -1
19 -3 4 -6 -2 -5 -13z"/>
<path fill="#000000" stroke="none" d="M205 100 c4 -6 11 -8 16 -5 14 9 11 15
-7 15 -8 0 -12 -5 -9 -10z"/>
<path fill="#000000" stroke="none" d="M109 88 c0 -7 -2 -21 -4 -31 -2 -11 -1
-16 3 -13 8 9 14 56 7 56 -3 0 -5 -6 -6 -12z"/>
<path fill="#000000" stroke="none" d="M255 90 c-3 -5 -1 -10 4 -10 6 0 11 5
11 10 0 6 -2 10 -4 10 -3 0 -8 -4 -11 -10z"/>
<path fill="#000000" stroke="none" d="M60 80 c0 -5 5 -10 11 -10 5 0 7 5 4
10 -3 6 -8 10 -11 10 -2 0 -4 -4 -4 -10z"/>
<path fill="#000000" stroke="none" d="M130 84 c0 -20 24 -34 40 -22 12 8 12
9 -2 4 -10 -3 -22 2 -27 12 -6 9 -11 12 -11 6z"/>
<path fill="#000000" stroke="none" d="M243 55 c-3 -9 -3 -18 -1 -21 3 -3 8 4
11 16 6 23 -1 27 -10 5z"/>
<path fill="#000000" stroke="none" d="M270 61 c0 -6 4 -12 10 -16 5 -3 7 -13
4 -23 -3 -9 1 -6 9 8 11 18 12 27 4 32 -16 10 -27 10 -27 -1z"/>
<path fill="#000000" stroke="none" d="M158 37 c-10 -6 -8 -7 4 -4 9 3 18 1
21 -6 2 -7 6 -5 9 4 7 18 -14 21 -34 6z"/>
<path fill="#000000" stroke="none" d="M70 26 c0 -8 4 -17 9 -20 5 -4 7 3 4
14 -6 23 -13 26 -13 6z"/>
<path fill="#000000" stroke="none" d="M210 31 c0 -6 5 -11 11 -11 5 0 8 -4 5
-9 -4 -5 2 -8 11 -6 10 2 21 4 26 4 4 1 7 8 7 17 0 14 -3 14 -15 4 -12 -10
-18 -10 -30 0 -10 9 -15 9 -15 1z"/>
<path fill="#000000" stroke="none" d="M105 21 c-3 -5 -2 -12 3 -15 5 -3 9 1
9 9 0 17 -3 19 -12 6z"/>
</g>
</svg>
