<?xml version="1.0" standalone="no"?>
<!DOCTYPE svg PUBLIC "-//W3C//DTD SVG 20010904//EN"
 "http://www.w3.org/TR/2001/REC-SVG-20010904/DTD/svg10.dtd">
<svg version="1.0" xmlns="http://www.w3.org/2000/svg"
 width="32.000000pt" height="32.000000pt" viewBox="0 0 32.000000 32.000000"
 preserveAspectRatio="xMidYMid meet">
<metadata>
Created by potrace 1.16, written by Peter Selinger 2001-2019
</metadata>
<g transform="translate(0.000000,32.000000) scale(0.100000,-0.100000)"
fill="#000000" stroke="none">
<path fill="#000000" stroke="none" d="M0 284 c0 -25 3 -33 12 -28 10 6 10 4
0 -8 -15 -19 -15 -195 1 -205 5 -3 7 -1 4 4 -4 6 0 13 8 17 8 3 17 1 20 -5 4
-5 11 -7 16 -3 5 3 7 9 4 14 -3 4 2 11 10 14 9 3 18 -1 21 -9 7 -17 44 -21 44
-5 0 7 6 7 19 0 14 -7 21 -6 24 3 3 9 7 9 19 -1 20 -16 48 -5 48 19 0 12 7 19
20 19 11 0 20 -7 20 -15 0 -8 -6 -15 -14 -15 -7 0 -20 -8 -27 -17 -13 -15 -11
-16 20 -10 18 4 37 7 42 7 5 0 9 48 9 106 0 67 -4 103 -10 99 -6 -3 -10 -2
-10 4 0 5 5 11 12 13 6 2 9 11 6 19 -5 13 -30 16 -134 17 -92 1 -130 -2 -136
-11 -6 -9 -8 -9 -8 1 0 6 -9 12 -20 12 -16 0 -20 -7 -20 -36z"/>
<path fill="#ffffff" stroke="none" d="M170 200 c-8 -5 -19 -10 -25 -10 -5 0
-3 5 5 10 8 5 20 10 25 10 6 0 3 -5 -5 -10z"/>
<path fill="#ffffff" stroke="none" d="M40 196 c0 -2 -7 -7 -16 -10 -8 -3 -12
-2 -9 4 6 10 25 14 25 6z"/>
<path fill="#ffffff" stroke="none" d="M110 124 c0 -2 -7 -4 -15 -4 -8 0 -15
4 -15 10 0 5 7 7 15 4 8 -4 15 -8 15 -10z"/>
<path fill="#ffffff" stroke="none" d="M220 121 c0 -5 3 -17 7 -26 5 -15 3
-16 -14 -7 -11 6 -22 9 -25 7 -2 -2 -4 5 -5 15 -1 14 5 20 18 20 10 0 19 -4
19 -9z"/>
<path fill="#ffffff" stroke="none" d="M134 105 c-4 -8 -13 -15 -20 -15 -12 0
-12 3 -2 15 17 19 29 19 22 0z"/>
</g>
</svg>
