<?xml version="1.0" standalone="no"?>
<!DOCTYPE svg PUBLIC "-//W3C//DTD SVG 20010904//EN"
 "http://www.w3.org/TR/2001/REC-SVG-20010904/DTD/svg10.dtd">
<svg version="1.0" xmlns="http://www.w3.org/2000/svg"
 width="32.000000pt" height="32.000000pt" viewBox="0 0 32.000000 32.000000"
 preserveAspectRatio="xMidYMid meet">
<metadata>
Created by potrace 1.16, written by Peter Selinger 2001-2019
</metadata>
<g transform="translate(0.000000,32.000000) scale(0.100000,-0.100000)"
fill="#000000" stroke="none">
<path fill="#000000" stroke="none" d="M285 270 c-3 -5 -2 -10 4 -10 5 0 13 5
16 10 3 6 2 10 -4 10 -5 0 -13 -4 -16 -10z"/>
<path fill="#000000" stroke="none" d="M206 245 c-3 -8 -1 -15 5 -15 6 0 7 -5
3 -12 -4 -6 -3 -8 4 -5 5 4 8 16 5 27 -6 24 -9 25 -17 5z"/>
<path fill="#000000" stroke="none" d="M250 250 c0 -5 5 -10 10 -10 6 0 10 5
10 10 0 6 -4 10 -10 10 -5 0 -10 -4 -10 -10z"/>
<path fill="#000000" stroke="none" d="M300 245 c-11 -13 -10 -14 4 -9 9 3 16
10 16 15 0 13 -6 11 -20 -6z"/>
<path fill="#000000" stroke="none" d="M140 221 c-12 -24 -13 -34 -1 -27 9 6
22 46 15 46 -2 0 -8 -9 -14 -19z"/>
<path fill="#000000" stroke="none" d="M241 205 c-13 -14 -19 -25 -14 -25 5 0
20 11 33 25 13 14 19 25 14 25 -5 0 -20 -12 -33 -25z"/>
<path fill="#000000" stroke="none" d="M290 210 c0 -5 5 -10 10 -10 6 0 10 5
10 10 0 6 -4 10 -10 10 -5 0 -10 -4 -10 -10z"/>
<path fill="#000000" stroke="none" d="M105 200 c-3 -5 -1 -10 4 -10 6 0 11 5
11 10 0 6 -2 10 -4 10 -3 0 -8 -4 -11 -10z"/>
<path fill="#000000" stroke="none" d="M161 194 c0 -11 3 -14 6 -6 3 7 2 16
-1 19 -3 4 -6 -2 -5 -13z"/>
<path fill="#000000" stroke="none" d="M155 158 l-39 -40 37 22 c21 12 42 31
48 41 16 30 -3 21 -46 -23z"/>
<path fill="#000000" stroke="none" d="M305 180 c4 -6 1 -17 -5 -25 -8 -10 -9
-15 -2 -15 7 0 9 -7 5 -17 -4 -10 -2 -14 4 -10 14 9 15 77 1 77 -5 0 -6 -5 -3
-10z"/>
<path fill="#000000" stroke="none" d="M241 163 c-7 -8 -11 -16 -8 -19 2 -2
10 2 17 11 17 20 9 27 -9 8z"/>
<path fill="#000000" stroke="none" d="M107 153 c-4 -3 -7 -13 -7 -22 1 -13 3
-13 11 2 11 19 8 33 -4 20z"/>
<path fill="#000000" stroke="none" d="M252 125 c-14 -31 -15 -45 -3 -45 14 0
41 29 41 43 0 7 -5 4 -11 -5 -5 -10 -14 -18 -20 -18 -5 0 -2 11 7 25 9 14 12
25 7 25 -5 0 -15 -11 -21 -25z"/>
<path fill="#000000" stroke="none" d="M132 80 c-32 -39 -38 -54 -10 -26 20
19 58 30 58 16 0 -17 17 -3 22 18 3 11 0 19 -7 19 -7 0 -11 -6 -8 -14 3 -9 0
-11 -10 -7 -9 3 -13 12 -10 20 8 22 0 16 -35 -26z"/>
<path fill="#000000" stroke="none" d="M56 91 c-4 -7 -5 -15 -2 -18 9 -9 19 4
14 18 -4 11 -6 11 -12 0z"/>
<path fill="#000000" stroke="none" d="M210 60 c-6 -11 -8 -20 -6 -20 3 0 10
9 16 20 6 11 8 20 6 20 -3 0 -10 -9 -16 -20z"/>
<path fill="#000000" stroke="none" d="M280 60 c-6 -11 -7 -20 -3 -20 4 0 -1
-7 -11 -15 -26 -19 -17 -19 22 1 18 8 32 21 32 27 0 8 -4 7 -12 -1 -20 -20
-32 -13 -13 8 10 11 13 20 7 20 -6 0 -16 -9 -22 -20z"/>
<path fill="#000000" stroke="none" d="M236 61 c-3 -5 1 -12 10 -15 8 -3 13
-2 9 3 -3 5 1 12 7 14 8 4 7 6 -4 6 -9 1 -19 -3 -22 -8z"/>
<path fill="#000000" stroke="none" d="M47 54 c7 -3 9 -12 6 -20 -3 -8 0 -14
6 -14 6 0 11 9 11 20 0 13 -6 20 -17 19 -10 0 -13 -3 -6 -5z"/>
<path fill="#000000" stroke="none" d="M230 31 c0 -5 -7 -8 -16 -7 -9 0 -19
-4 -21 -10 -2 -6 7 -10 19 -9 13 1 24 9 26 18 2 9 1 17 -2 17 -3 0 -6 -4 -6
-9z"/>
<path fill="#000000" stroke="none" d="M95 20 c-4 -6 6 -10 22 -10 22 0 25 2
13 10 -19 12 -27 12 -35 0z"/>
<path fill="#000000" stroke="none" d="M48 3 c7 -3 16 -2 19 1 4 3 -2 6 -13 5
-11 0 -14 -3 -6 -6z"/>
</g>
</svg>
