<?xml version="1.0" standalone="no"?>
<!DOCTYPE svg PUBLIC "-//W3C//DTD SVG 20010904//EN"
 "http://www.w3.org/TR/2001/REC-SVG-20010904/DTD/svg10.dtd">
<svg version="1.0" xmlns="http://www.w3.org/2000/svg"
 width="32.000000pt" height="32.000000pt" viewBox="0 0 32.000000 32.000000"
 preserveAspectRatio="xMidYMid meet">
<metadata>
Created by potrace 1.16, written by Peter Selinger 2001-2019
</metadata>
<g transform="translate(0.000000,32.000000) scale(0.100000,-0.100000)"
fill="#000000" stroke="none">
<path fill="#000000" stroke="none" d="M110 65 c0 -13 -4 -27 -10 -30 -14 -9
-12 -25 3 -25 8 0 19 11 25 25 16 34 15 42 -3 49 -11 4 -15 -1 -15 -19z"/>
<path fill="#000000" stroke="none" d="M191 81 c-12 -8 -12 -14 -1 -40 7 -17
19 -31 26 -31 16 0 18 12 5 25 -5 6 -11 20 -13 32 -2 17 -7 20 -17 14z"/>
</g>
</svg>
