<?xml version="1.0" standalone="no"?>
<!DOCTYPE svg PUBLIC "-//W3C//DTD SVG 20010904//EN"
 "http://www.w3.org/TR/2001/REC-SVG-20010904/DTD/svg10.dtd">
<svg version="1.0" xmlns="http://www.w3.org/2000/svg"
 width="32.000000pt" height="32.000000pt" viewBox="0 0 32.000000 32.000000"
 preserveAspectRatio="xMidYMid meet">
<metadata>
Created by potrace 1.16, written by Peter Selinger 2001-2019
</metadata>
<g transform="translate(0.000000,32.000000) scale(0.100000,-0.100000)"
fill="#000000" stroke="none">
<path fill="#000000" stroke="none" d="M83 48 c4 -54 29 -63 51 -19 20 38 20
41 -3 41 -11 0 -23 5 -26 10 -14 23 -24 7 -22 -32z"/>
<path fill="#ffffff" stroke="none" d="M97 58 c-3 -8 -6 -5 -6 6 -1 11 2 17 5
13 3 -3 4 -12 1 -19z"/>
<path fill="#ffffff" stroke="none" d="M137 54 c-3 -3 -12 -4 -19 -1 -8 3 -5
6 6 6 11 1 17 -2 13 -5z"/>
<path fill="#ffffff" stroke="none" d="M127 34 c-3 -3 -12 -4 -19 -1 -8 3 -5
6 6 6 11 1 17 -2 13 -5z"/>
<path fill="#ffffff" stroke="none" d="M117 14 c-3 -3 -12 -4 -19 -1 -8 3 -5
6 6 6 11 1 17 -2 13 -5z"/>
<path fill="#000000" stroke="none" d="M215 80 c-3 -5 -15 -10 -26 -10 -23 0
-23 -3 -3 -41 22 -44 47 -35 51 19 2 39 -8 55 -22 32z"/>
<path fill="#ffffff" stroke="none" d="M227 58 c-3 -8 -6 -5 -6 6 -1 11 2 17
5 13 3 -3 4 -12 1 -19z"/>
<path fill="#ffffff" stroke="none" d="M207 54 c-3 -3 -12 -4 -19 -1 -8 3 -5
6 6 6 11 1 17 -2 13 -5z"/>
<path fill="#ffffff" stroke="none" d="M217 34 c-3 -3 -12 -4 -19 -1 -8 3 -5
6 6 6 11 1 17 -2 13 -5z"/>
<path fill="#ffffff" stroke="none" d="M227 14 c-3 -3 -12 -4 -19 -1 -8 3 -5
6 6 6 11 1 17 -2 13 -5z"/>
</g>
</svg>
