<?xml version="1.0" standalone="no"?>
<!DOCTYPE svg PUBLIC "-//W3C//DTD SVG 20010904//EN"
 "http://www.w3.org/TR/2001/REC-SVG-20010904/DTD/svg10.dtd">
<svg version="1.0" xmlns="http://www.w3.org/2000/svg"
 width="32.000000pt" height="32.000000pt" viewBox="0 0 32.000000 32.000000"
 preserveAspectRatio="xMidYMid meet">
<metadata>
Created by potrace 1.16, written by Peter Selinger 2001-2019
</metadata>
<g transform="translate(0.000000,32.000000) scale(0.100000,-0.100000)"
fill="#000000" stroke="none">
<path fill="#000000" stroke="none" d="M109 83 c-1 -5 0 -16 1 -26 1 -10 -4
-25 -10 -33 -10 -11 -9 -14 3 -14 17 0 42 54 32 69 -7 13 -24 15 -26 4z"/>
<path fill="#000000" stroke="none" d="M185 80 c-10 -16 15 -70 32 -70 12 0
13 3 3 14 -6 8 -10 25 -8 37 3 24 -16 37 -27 19z"/>
</g>
</svg>
