<?xml version="1.0" standalone="no"?>
<!DOCTYPE svg PUBLIC "-//W3C//DTD SVG 20010904//EN"
 "http://www.w3.org/TR/2001/REC-SVG-20010904/DTD/svg10.dtd">
<svg version="1.0" xmlns="http://www.w3.org/2000/svg"
 width="32.000000pt" height="32.000000pt" viewBox="0 0 32.000000 32.000000"
 preserveAspectRatio="xMidYMid meet">
<metadata>
Created by potrace 1.16, written by Peter Selinger 2001-2019
</metadata>
<g transform="translate(0.000000,32.000000) scale(0.100000,-0.100000)"
fill="#000000" stroke="none">
<path fill="#000000" stroke="none" d="M142 223 c-18 -12 -25 -13 -37 -3 -13
10 -15 9 -15 -12 0 -13 -4 -28 -8 -33 -5 -6 -3 -21 4 -35 8 -14 14 -20 14 -13
0 34 64 56 100 33 20 -13 7 -23 -41 -29 -53 -8 -54 -25 -1 -29 38 -3 43 0 52
23 6 15 8 30 5 35 -3 5 -1 11 5 15 5 3 10 14 10 25 0 13 -5 17 -20 13 -12 -3
-22 1 -26 11 -7 19 -13 19 -42 -1z"/>
</g>
</svg>
