<?xml version="1.0" standalone="no"?>
<!DOCTYPE svg PUBLIC "-//W3C//DTD SVG 20010904//EN"
 "http://www.w3.org/TR/2001/REC-SVG-20010904/DTD/svg10.dtd">
<svg version="1.0" xmlns="http://www.w3.org/2000/svg"
 width="32.000000pt" height="32.000000pt" viewBox="0 0 32.000000 32.000000"
 preserveAspectRatio="xMidYMid meet">
<metadata>
Created by potrace 1.16, written by Peter Selinger 2001-2019
</metadata>
<g transform="translate(0.000000,32.000000) scale(0.100000,-0.100000)"
fill="#000000" stroke="none">
<path fill="#000000" stroke="none" d="M0 160 l0 -160 160 0 160 0 0 160 0
160 -160 0 -160 0 0 -160z"/>
<path fill="#ffffff" stroke="none" d="M203 227 c8 4 7 1 -1 -9 -10 -13 -10
-17 0 -21 7 -2 -3 -11 -22 -19 -19 -8 -36 -11 -38 -6 -6 13 -42 -11 -43 -30
-1 -10 -4 -7 -8 8 -8 25 16 73 32 63 4 -2 7 3 7 12 0 9 4 14 9 11 4 -3 17 4
27 15 l19 21 3 -26 c2 -17 8 -24 15 -19z"/>
<path fill="#ffffff" stroke="none" d="M155 119 c-27 -7 -26 -8 12 -6 23 1 39
-1 37 -5 -7 -11 -84 -10 -84 0 0 15 13 22 39 21 25 -1 25 -2 -4 -10z"/>
</g>
</svg>
