<?xml version="1.0" standalone="no"?>
<!DOCTYPE svg PUBLIC "-//W3C//DTD SVG 20010904//EN"
 "http://www.w3.org/TR/2001/REC-SVG-20010904/DTD/svg10.dtd">
<svg version="1.0" xmlns="http://www.w3.org/2000/svg"
 width="32.000000pt" height="32.000000pt" viewBox="0 0 32.000000 32.000000"
 preserveAspectRatio="xMidYMid meet">
<metadata>
Created by potrace 1.16, written by Peter Selinger 2001-2019
</metadata>
<g transform="translate(0.000000,32.000000) scale(0.100000,-0.100000)"
fill="#000000" stroke="none">
<path fill="#000000" stroke="none" d="M166 251 c-10 -11 -23 -18 -27 -15 -5
3 -9 -2 -9 -11 0 -9 -3 -14 -7 -12 -17 10 -39 -38 -32 -68 5 -23 7 -25 8 -8 1
25 37 51 43 32 3 -8 10 -8 25 2 18 11 24 10 40 -1 10 -8 15 -10 11 -6 -4 5 -2
16 5 24 9 13 9 14 0 8 -9 -5 -13 0 -13 14 0 12 -4 19 -9 15 -5 -3 -11 7 -13
21 l-3 26 -19 -21z"/>
<path fill="#000000" stroke="none" d="M216 135 c-3 -8 -1 -15 4 -15 6 0 10 7
10 15 0 8 -2 15 -4 15 -2 0 -6 -7 -10 -15z"/>
<path fill="#000000" stroke="none" d="M127 128 c2 -5 -1 -8 -8 -8 -9 0 -10
-3 -2 -11 16 -16 86 -7 88 11 2 12 -8 15 -40 15 -24 0 -41 -3 -38 -7z"/>
<path fill="#ffffff" stroke="none" d="M157 114 c-3 -3 -12 -4 -19 -1 -8 3 -5
6 6 6 11 1 17 -2 13 -5z"/>
</g>
</svg>
