<?xml version="1.0" standalone="no"?>
<!DOCTYPE svg PUBLIC "-//W3C//DTD SVG 20010904//EN"
 "http://www.w3.org/TR/2001/REC-SVG-20010904/DTD/svg10.dtd">
<svg version="1.0" xmlns="http://www.w3.org/2000/svg"
 width="32.000000pt" height="32.000000pt" viewBox="0 0 32.000000 32.000000"
 preserveAspectRatio="xMidYMid meet">
<metadata>
Created by potrace 1.16, written by Peter Selinger 2001-2019
</metadata>
<g transform="translate(0.000000,32.000000) scale(0.100000,-0.100000)"
fill="#000000" stroke="none">
<path fill="#000000" stroke="none" d="M161 239 c-16 -25 -21 -29 -21 -15 0
11 -3 17 -6 13 -3 -3 -3 -20 1 -38 7 -31 8 -32 22 -13 7 10 18 19 23 19 5 0
15 6 22 14 11 12 10 12 -2 5 -31 -17 -40 -13 -23 12 9 14 13 27 10 30 -3 4
-15 -9 -26 -27z"/>
<path fill="#000000" stroke="none" d="M113 185 c0 -8 4 -12 9 -9 5 3 6 10 3
15 -9 13 -12 11 -12 -6z"/>
</g>
</svg>
