<?xml version="1.0" standalone="no"?>
<!DOCTYPE svg PUBLIC "-//W3C//DTD SVG 20010904//EN"
 "http://www.w3.org/TR/2001/REC-SVG-20010904/DTD/svg10.dtd">
<svg version="1.0" xmlns="http://www.w3.org/2000/svg"
 width="32.000000pt" height="32.000000pt" viewBox="0 0 32.000000 32.000000"
 preserveAspectRatio="xMidYMid meet">
<metadata>
Created by potrace 1.16, written by Peter Selinger 2001-2019
</metadata>
<g transform="translate(0.000000,32.000000) scale(0.100000,-0.100000)"
fill="#000000" stroke="none">
<path fill="#000000" stroke="none" d="M143 294 c-8 -22 18 -37 36 -20 7 8 10
19 7 25 -10 16 -36 13 -43 -5z"/>
<path fill="#000000" stroke="none" d="M81 238 l-19 -43 20 -8 c29 -10 42 5
45 53 4 55 -20 53 -46 -2z"/>
<path fill="#000000" stroke="none" d="M174 249 c-9 -15 12 -33 30 -26 9 4 16
13 16 22 0 17 -35 21 -46 4z"/>
<path fill="#000000" stroke="none" d="M244 225 c-9 -23 10 -40 25 -22 9 11 8
17 -4 27 -12 10 -16 9 -21 -5z"/>
<path fill="#000000" stroke="none" d="M140 220 c0 -5 5 -10 10 -10 6 0 10 5
10 10 0 6 -4 10 -10 10 -5 0 -10 -4 -10 -10z"/>
<path fill="#000000" stroke="none" d="M113 164 c-26 -29 -31 -53 -8 -34 12
10 18 10 30 0 8 -7 24 -10 35 -7 11 3 18 1 14 -4 -8 -13 -38 -11 -53 4 -11 10
-13 9 -9 -3 6 -21 73 -21 73 0 0 8 -9 15 -20 15 -12 0 -21 8 -23 20 -6 33 -16
35 -39 9z"/>
<path fill="#000000" stroke="none" d="M205 180 c3 -5 8 -10 11 -10 2 0 4 5 4
10 0 6 -5 10 -11 10 -5 0 -7 -4 -4 -10z"/>
<path fill="#000000" stroke="none" d="M153 83 c9 -2 23 -2 30 0 6 3 -1 5 -18
5 -16 0 -22 -2 -12 -5z"/>
</g>
</svg>
