<?xml version="1.0" standalone="no"?>
<!DOCTYPE svg PUBLIC "-//W3C//DTD SVG 20010904//EN"
 "http://www.w3.org/TR/2001/REC-SVG-20010904/DTD/svg10.dtd">
<svg version="1.0" xmlns="http://www.w3.org/2000/svg"
 width="32.000000pt" height="32.000000pt" viewBox="0 0 32.000000 32.000000"
 preserveAspectRatio="xMidYMid meet">
<metadata>
Created by potrace 1.16, written by Peter Selinger 2001-2019
</metadata>
<g transform="translate(0.000000,32.000000) scale(0.100000,-0.100000)"
fill="#000000" stroke="none">
<path fill="#000000" stroke="none" d="M0 160 l0 -160 160 0 160 0 0 160 0
160 -160 0 -160 0 0 -160z"/>
<path fill="#ffffff" stroke="none" d="M188 293 c5 -17 -26 -29 -40 -15 -6 6
-7 15 -3 22 9 14 37 9 43 -7z"/>
<path fill="#ffffff" stroke="none" d="M130 260 c0 -11 -4 -20 -9 -20 -4 0 -6
-12 -3 -26 4 -22 2 -25 -18 -22 -30 4 -35 21 -15 42 9 9 13 16 9 16 -3 0 -1 7
6 15 17 21 30 19 30 -5z"/>
<path fill="#ffffff" stroke="none" d="M215 240 c0 -8 -8 -16 -17 -18 -13 -2
-18 3 -18 18 0 15 5 20 18 18 9 -2 17 -10 17 -18z"/>
<path fill="#ffffff" stroke="none" d="M274 209 c-3 -5 -11 -9 -19 -9 -11 0
-12 7 -6 39 1 2 8 -2 16 -9 8 -7 12 -16 9 -21z"/>
<path fill="#ffffff" stroke="none" d="M160 226 c0 -3 -4 -8 -10 -11 -5 -3
-10 -1 -10 4 0 6 5 11 10 11 6 0 10 -2 10 -4z"/>
<path fill="#ffffff" stroke="none" d="M150 149 c0 -17 17 -25 43 -20 5 1 7
-4 5 -11 -6 -18 -70 -17 -76 2 -4 13 -3 13 11 2 9 -8 24 -12 34 -9 14 4 13 5
-5 6 -12 0 -25 8 -28 16 -5 12 -10 13 -20 4 -20 -16 -18 5 2 25 19 19 34 12
34 -15z"/>
</g>
</svg>
