<?xml version="1.0" standalone="no"?>
<!DOCTYPE svg PUBLIC "-//W3C//DTD SVG 20010904//EN"
 "http://www.w3.org/TR/2001/REC-SVG-20010904/DTD/svg10.dtd">
<svg version="1.0" xmlns="http://www.w3.org/2000/svg"
 width="32.000000pt" height="32.000000pt" viewBox="0 0 32.000000 32.000000"
 preserveAspectRatio="xMidYMid meet">
<metadata>
Created by potrace 1.16, written by Peter Selinger 2001-2019
</metadata>
<g transform="translate(0.000000,32.000000) scale(0.100000,-0.100000)"
fill="#000000" stroke="none">
<path fill="#000000" stroke="none" d="M142 223 c-18 -12 -25 -13 -37 -3 -13
11 -15 8 -15 -13 0 -14 -4 -29 -10 -32 -11 -7 6 -42 30 -62 23 -19 84 -16 103
5 10 11 17 35 17 59 0 36 -2 40 -20 36 -12 -3 -22 1 -26 11 -7 19 -13 19 -42
-1z"/>
<path fill="#ffffff" stroke="none" d="M195 150 c0 -18 -52 -27 -67 -12 -17
17 2 33 35 30 20 -2 32 -8 32 -18z"/>
<path fill="#000000" stroke="none" d="M155 80 c3 -5 8 -10 11 -10 2 0 4 5 4
10 0 6 -5 10 -11 10 -5 0 -7 -4 -4 -10z"/>
</g>
</svg>
