<?xml version="1.0" standalone="no"?>
<!DOCTYPE svg PUBLIC "-//W3C//DTD SVG 20010904//EN"
 "http://www.w3.org/TR/2001/REC-SVG-20010904/DTD/svg10.dtd">
<svg version="1.0" xmlns="http://www.w3.org/2000/svg"
 width="32.000000pt" height="32.000000pt" viewBox="0 0 32.000000 32.000000"
 preserveAspectRatio="xMidYMid meet">
<metadata>
Created by potrace 1.16, written by Peter Selinger 2001-2019
</metadata>
<g transform="translate(0.000000,32.000000) scale(0.100000,-0.100000)"
fill="#000000" stroke="none">
<path fill="#000000" stroke="none" d="M22 158 l2 -143 3 137 4 137 137 4 137
3 -142 2 -143 2 2 -142z"/>
<path fill="#000000" stroke="none" d="M63 234 c-3 -8 4 -25 17 -39 13 -14 19
-29 15 -36 -5 -8 -4 -10 4 -5 7 4 10 13 8 19 -2 7 3 21 12 32 15 18 15 19 -1
6 -24 -18 -52 -6 -45 19 6 24 -1 27 -10 4z"/>
<path fill="#000000" stroke="none" d="M143 122 c-8 -22 -17 -31 -24 -26 -7 4
-9 3 -5 -4 3 -5 0 -12 -6 -15 -7 -3 6 -4 29 -3 23 1 48 8 55 16 11 12 11 12
-4 1 -20 -15 -24 -9 -30 39 -3 24 -4 23 -15 -8z"/>
<path fill="#000000" stroke="none" d="M190 135 c-8 -9 -8 -15 -2 -15 12 0 26
19 19 26 -2 2 -10 -2 -17 -11z"/>
<path fill="#000000" stroke="none" d="M245 110 c-11 -5 -17 -9 -13 -9 3 -1
13 -3 21 -6 8 -4 14 0 14 10 0 8 -1 15 -1 14 -1 0 -10 -4 -21 -9z"/>
</g>
</svg>
