<?xml version="1.0" standalone="no"?>
<!DOCTYPE svg PUBLIC "-//W3C//DTD SVG 20010904//EN"
 "http://www.w3.org/TR/2001/REC-SVG-20010904/DTD/svg10.dtd">
<svg version="1.0" xmlns="http://www.w3.org/2000/svg"
 width="32.000000pt" height="32.000000pt" viewBox="0 0 32.000000 32.000000"
 preserveAspectRatio="xMidYMid meet">
<metadata>
Created by potrace 1.16, written by Peter Selinger 2001-2019
</metadata>
<g transform="translate(0.000000,32.000000) scale(0.100000,-0.100000)"
fill="#000000" stroke="none">
<path fill="#000000" stroke="none" d="M0 160 l0 -160 160 0 160 0 0 160 0
160 -160 0 -160 0 0 -160z"/>
<path fill="#ffffff" stroke="none" d="M296 230 c0 -63 -7 -71 -42 -45 -10 8
-29 15 -41 15 -14 0 -23 6 -23 15 0 19 -34 20 -49 1 -10 -11 -26 -14 -48 -7
-11 3 -18 -1 -18 -10 0 -6 -10 -18 -22 -27 l-23 -14 0 66 0 66 133 0 134 0 -1
-60z"/>
<path fill="#ffffff" stroke="none" d="M297 92 l-1 -68 -125 1 c-70 1 -129 3
-133 3 -11 3 -10 122 1 122 5 0 14 -7 21 -15 7 -8 20 -15 30 -15 10 0 20 -6
23 -14 7 -17 21 -16 64 7 21 11 34 13 38 6 5 -7 12 -6 22 3 8 7 25 18 37 24
11 7 21 12 22 13 1 1 1 -30 1 -67z"/>
</g>
</svg>
