<?xml version="1.0" standalone="no"?>
<!DOCTYPE svg PUBLIC "-//W3C//DTD SVG 20010904//EN"
 "http://www.w3.org/TR/2001/REC-SVG-20010904/DTD/svg10.dtd">
<svg version="1.0" xmlns="http://www.w3.org/2000/svg"
 width="32.000000pt" height="32.000000pt" viewBox="0 0 32.000000 32.000000"
 preserveAspectRatio="xMidYMid meet">
<metadata>
Created by potrace 1.16, written by Peter Selinger 2001-2019
</metadata>
<g transform="translate(0.000000,32.000000) scale(0.100000,-0.100000)"
fill="#000000" stroke="none">
<path fill="#000000" stroke="none" d="M0 160 l0 -160 160 0 160 0 0 160 0
160 -160 0 -160 0 0 -160z"/>
<path fill="#ffffff" stroke="none" d="M168 293 l-138 -4 0 -128 c0 -94 3
-131 13 -134 7 -3 5 -6 -5 -6 -16 -1 -18 12 -18 139 l0 140 143 -2 142 -2
-137 -3z"/>
<path fill="#ffffff" stroke="none" d="M260 227 c0 -18 -7 -42 -16 -53 -15
-18 -15 -18 -10 5 5 25 -8 51 -25 51 -5 0 -9 -5 -9 -11 0 -5 5 -7 12 -3 6 4 8
3 4 -4 -3 -5 -1 -12 5 -14 5 -2 -5 -14 -23 -27 l-33 -24 23 25 c14 15 19 28
13 32 -11 7 -41 -31 -41 -51 0 -7 -4 -13 -10 -13 -12 0 6 49 27 72 15 17 15
18 0 18 -10 0 -17 4 -17 9 0 11 24 18 68 20 30 1 32 -1 32 -32z"/>
</g>
</svg>
