<?xml version="1.0" standalone="no"?>
<!DOCTYPE svg PUBLIC "-//W3C//DTD SVG 20010904//EN"
 "http://www.w3.org/TR/2001/REC-SVG-20010904/DTD/svg10.dtd">
<svg version="1.0" xmlns="http://www.w3.org/2000/svg"
 width="32.000000pt" height="32.000000pt" viewBox="0 0 32.000000 32.000000"
 preserveAspectRatio="xMidYMid meet">
<metadata>
Created by potrace 1.16, written by Peter Selinger 2001-2019
</metadata>
<g transform="translate(0.000000,32.000000) scale(0.100000,-0.100000)"
fill="#000000" stroke="none">
<path fill="#000000" stroke="none" d="M0 160 l0 -160 160 0 160 0 0 160 0
160 -160 0 -160 0 0 -160z"/>
<path fill="#ffffff" stroke="none" d="M296 275 c1 -14 -2 -22 -7 -19 -5 3 -9
0 -9 -6 0 -7 -7 -10 -15 -6 -9 3 -21 -5 -32 -22 -10 -15 -23 -31 -31 -35 -8
-5 -10 -17 -6 -29 5 -16 3 -20 -9 -15 -19 7 -90 -41 -81 -55 5 -7 2 -9 -8 -5
-11 4 -21 -5 -34 -29 -36 -66 -44 -45 -44 106 l0 140 138 0 137 0 1 -25z"/>
<path fill="#000000" stroke="none" d="M30 180 c0 -71 4 -110 11 -110 5 0 8 4
5 9 -3 5 1 11 9 15 9 3 12 12 8 22 -5 13 -3 16 10 11 9 -3 20 -1 24 6 5 7 20
18 36 24 16 8 27 20 27 32 0 11 9 23 20 26 11 3 23 17 26 31 3 13 10 21 15 18
5 -3 16 2 25 10 14 15 5 16 -100 16 l-116 0 0 -110z"/>
</g>
</svg>
