<?xml version="1.0" standalone="no"?>
<!DOCTYPE svg PUBLIC "-//W3C//DTD SVG 20010904//EN"
 "http://www.w3.org/TR/2001/REC-SVG-20010904/DTD/svg10.dtd">
<svg version="1.0" xmlns="http://www.w3.org/2000/svg"
 width="32.000000pt" height="32.000000pt" viewBox="0 0 32.000000 32.000000"
 preserveAspectRatio="xMidYMid meet">
<metadata>
Created by potrace 1.16, written by Peter Selinger 2001-2019
</metadata>
<g transform="translate(0.000000,32.000000) scale(0.100000,-0.100000)"
fill="#000000" stroke="none">
<path fill="#000000" stroke="none" d="M0 285 c0 -24 5 -35 15 -35 10 0 15 11
15 35 0 24 -5 35 -15 35 -10 0 -15 -11 -15 -35z"/>
<path fill="#000000" stroke="none" d="M50 285 c0 -32 2 -35 30 -35 28 0 30 3
30 35 0 32 -2 35 -30 35 -28 0 -30 -3 -30 -35z"/>
<path fill="#000000" stroke="none" d="M130 285 c0 -32 2 -35 30 -35 28 0 30
3 30 35 0 32 -2 35 -30 35 -28 0 -30 -3 -30 -35z"/>
<path fill="#000000" stroke="none" d="M210 285 c0 -32 2 -35 30 -35 28 0 30
3 30 35 0 32 -2 35 -30 35 -28 0 -30 -3 -30 -35z"/>
<path fill="#000000" stroke="none" d="M290 285 c0 -24 5 -35 15 -35 10 0 15
11 15 35 0 24 -5 35 -15 35 -10 0 -15 -11 -15 -35z"/>
<path fill="#000000" stroke="none" d="M0 160 c0 -56 3 -70 15 -70 12 0 15 14
15 70 0 56 -3 70 -15 70 -12 0 -15 -14 -15 -70z"/>
<path fill="#000000" stroke="none" d="M50 160 l0 -70 30 0 30 0 0 70 0 70
-30 0 -30 0 0 -70z"/>
<path fill="#000000" stroke="none" d="M130 160 l0 -70 30 0 30 0 0 70 0 70
-30 0 -30 0 0 -70z"/>
<path fill="#000000" stroke="none" d="M210 160 l0 -70 30 0 30 0 0 70 0 70
-30 0 -30 0 0 -70z"/>
<path fill="#000000" stroke="none" d="M290 160 c0 -56 3 -70 15 -70 12 0 15
14 15 70 0 56 -3 70 -15 70 -12 0 -15 -14 -15 -70z"/>
<path fill="#000000" stroke="none" d="M0 35 c0 -24 5 -35 15 -35 10 0 15 11
15 35 0 24 -5 35 -15 35 -10 0 -15 -11 -15 -35z"/>
<path fill="#000000" stroke="none" d="M50 35 c0 -32 2 -35 30 -35 28 0 30 3
30 35 0 32 -2 35 -30 35 -28 0 -30 -3 -30 -35z"/>
<path fill="#000000" stroke="none" d="M130 35 c0 -32 2 -35 30 -35 28 0 30 3
30 35 0 32 -2 35 -30 35 -28 0 -30 -3 -30 -35z"/>
<path fill="#000000" stroke="none" d="M210 35 c0 -32 2 -35 30 -35 28 0 30 3
30 35 0 32 -2 35 -30 35 -28 0 -30 -3 -30 -35z"/>
<path fill="#000000" stroke="none" d="M290 35 c0 -24 5 -35 15 -35 10 0 15
11 15 35 0 24 -5 35 -15 35 -10 0 -15 -11 -15 -35z"/>
</g>
</svg>
