<?xml version="1.0" standalone="no"?>
<!DOCTYPE svg PUBLIC "-//W3C//DTD SVG 20010904//EN"
 "http://www.w3.org/TR/2001/REC-SVG-20010904/DTD/svg10.dtd">
<svg version="1.0" xmlns="http://www.w3.org/2000/svg"
 width="32.000000pt" height="32.000000pt" viewBox="0 0 32.000000 32.000000"
 preserveAspectRatio="xMidYMid meet">
<metadata>
Created by potrace 1.16, written by Peter Selinger 2001-2019
</metadata>
<g transform="translate(0.000000,32.000000) scale(0.100000,-0.100000)"
fill="#000000" stroke="none">
<path fill="#000000" stroke="none" d="M0 160 l0 -160 160 0 160 0 0 160 0
160 -160 0 -160 0 0 -160z"/>
<path fill="#ffffff" stroke="none" d="M238 228 c-4 -26 0 -36 19 -51 22 -18
23 -21 9 -36 -20 -22 -20 -29 1 -33 26 -5 -30 -53 -64 -54 -15 -1 -43 -5 -60
-9 -26 -6 -33 -4 -33 8 0 8 -7 18 -16 21 -9 4 -14 9 -10 13 3 3 -3 13 -15 21
-15 10 -18 17 -10 25 6 6 11 21 11 34 0 14 6 23 15 23 9 0 15 9 15 24 0 30 37
42 61 20 16 -14 18 -14 29 5 6 12 20 21 31 21 18 0 21 -5 17 -32z"/>
<path fill="#000000" stroke="none" d="M153 189 c-1 -11 -8 -27 -14 -36 -14
-16 -18 -63 -6 -63 4 0 11 0 15 0 5 0 8 10 8 22 -1 17 7 24 38 33 l39 11 -33
27 c-38 32 -45 33 -47 6z"/>
<path fill="#ffffff" stroke="none" d="M190 171 c0 -5 -7 -11 -15 -15 -15 -5
-20 5 -8 17 9 10 23 9 23 -2z"/>
</g>
</svg>
