<?xml version="1.0" standalone="no"?>
<!DOCTYPE svg PUBLIC "-//W3C//DTD SVG 20010904//EN"
 "http://www.w3.org/TR/2001/REC-SVG-20010904/DTD/svg10.dtd">
<svg version="1.0" xmlns="http://www.w3.org/2000/svg"
 width="32.000000pt" height="32.000000pt" viewBox="0 0 32.000000 32.000000"
 preserveAspectRatio="xMidYMid meet">
<metadata>
Created by potrace 1.16, written by Peter Selinger 2001-2019
</metadata>
<g transform="translate(0.000000,32.000000) scale(0.100000,-0.100000)"
fill="#000000" stroke="none">
<path fill="#000000" stroke="none" d="M0 160 l0 -160 160 0 160 0 0 160 0
160 -160 0 -160 0 0 -160z"/>
<path fill="#ffffff" stroke="none" d="M260 206 c0 -24 5 -46 11 -48 8 -3 3
-17 -12 -40 -20 -31 -30 -37 -74 -42 -67 -8 -145 -8 -145 1 0 4 10 37 22 73
l21 67 61 15 c34 9 73 16 89 17 26 1 27 -1 27 -43z"/>
<path fill="#000000" stroke="none" d="M173 228 c-24 -5 -43 -13 -43 -18 0 -5
-7 -7 -15 -4 -11 4 -20 -5 -31 -31 -8 -20 -13 -39 -10 -42 8 -8 27 7 21 17 -3
4 13 23 35 40 33 26 41 29 46 16 3 -9 12 -16 20 -16 8 0 11 6 8 15 -4 8 -1 15
5 15 19 0 12 -39 -9 -50 -11 -6 -19 -16 -17 -22 1 -6 -4 -13 -12 -16 -9 -3
-11 0 -6 9 5 8 0 6 -12 -4 -30 -26 -35 -8 -5 20 21 19 23 22 6 14 -12 -6 -24
-8 -27 -5 -3 3 -10 -3 -16 -14 -6 -11 -7 -22 -4 -26 6 -6 -12 -10 -34 -7 -7 1
-13 -5 -13 -14 0 -19 28 -19 101 1 55 16 59 18 73 62 27 77 24 80 -61 60z"/>
</g>
</svg>
