<?xml version="1.0" standalone="no"?>
<!DOCTYPE svg PUBLIC "-//W3C//DTD SVG 20010904//EN"
 "http://www.w3.org/TR/2001/REC-SVG-20010904/DTD/svg10.dtd">
<svg version="1.0" xmlns="http://www.w3.org/2000/svg"
 width="32.000000pt" height="32.000000pt" viewBox="0 0 32.000000 32.000000"
 preserveAspectRatio="xMidYMid meet">
<metadata>
Created by potrace 1.16, written by Peter Selinger 2001-2019
</metadata>
<g transform="translate(0.000000,32.000000) scale(0.100000,-0.100000)"
fill="#000000" stroke="none">
<path fill="#000000" stroke="none" d="M46 214 c-4 -9 -1 -24 6 -32 11 -13 11
-14 0 -8 -11 7 -12 4 -3 -13 7 -11 14 -21 16 -21 2 0 9 10 16 21 9 17 8 20 -3
13 -11 -6 -11 -5 1 9 11 14 11 20 1 32 -16 19 -26 19 -34 -1z"/>
</g>
</svg>
