<?xml version="1.0" standalone="no"?>
<!DOCTYPE svg PUBLIC "-//W3C//DTD SVG 20010904//EN"
 "http://www.w3.org/TR/2001/REC-SVG-20010904/DTD/svg10.dtd">
<svg version="1.0" xmlns="http://www.w3.org/2000/svg"
 width="32.000000pt" height="32.000000pt" viewBox="0 0 32.000000 32.000000"
 preserveAspectRatio="xMidYMid meet">
<metadata>
Created by potrace 1.16, written by Peter Selinger 2001-2019
</metadata>
<g transform="translate(0.000000,32.000000) scale(0.100000,-0.100000)"
fill="#000000" stroke="none">
<path fill="#000000" stroke="none" d="M298 257 c-3 -19 -2 -25 4 -19 6 6 8
18 6 28 -3 14 -5 12 -10 -9z"/>
<path fill="#000000" stroke="none" d="M288 188 c5 -31 4 -31 -31 -25 -20 3
-39 2 -41 -2 -3 -4 15 -8 40 -10 43 -2 44 -1 44 28 0 16 -4 32 -8 35 -5 3 -6
-9 -4 -26z"/>
</g>
</svg>
