<?xml version="1.0" standalone="no"?>
<!DOCTYPE svg PUBLIC "-//W3C//DTD SVG 20010904//EN"
 "http://www.w3.org/TR/2001/REC-SVG-20010904/DTD/svg10.dtd">
<svg version="1.0" xmlns="http://www.w3.org/2000/svg"
 width="32.000000pt" height="32.000000pt" viewBox="0 0 32.000000 32.000000"
 preserveAspectRatio="xMidYMid meet">
<metadata>
Created by potrace 1.16, written by Peter Selinger 2001-2019
</metadata>
<g transform="translate(0.000000,32.000000) scale(0.100000,-0.100000)"
fill="#000000" stroke="none">
<path fill="#000000" stroke="none" d="M168 293 c-22 -25 -38 -59 -38 -79 0
-15 3 -15 23 4 13 12 30 22 39 22 26 0 10 -37 -31 -67 -36 -28 -52 -55 -29
-51 7 2 25 19 41 39 30 41 67 57 67 31 0 -9 -10 -27 -22 -40 l-23 -25 35 7
c43 8 80 42 80 73 0 21 -3 22 -20 13 -14 -8 -20 -8 -20 0 0 6 -4 9 -9 6 -5 -3
-8 2 -7 12 0 10 -6 17 -15 16 -13 -1 -16 6 -15 27 2 24 -2 29 -19 29 -12 0
-29 -8 -37 -17z"/>
<path fill="#000000" stroke="none" d="M101 104 c0 -11 3 -14 6 -6 3 7 2 16
-1 19 -3 4 -6 -2 -5 -13z"/>
<path fill="#000000" stroke="none" d="M80 89 c0 -5 -4 -8 -8 -5 -4 2 -8 -5
-9 -17 0 -12 1 -16 4 -9 3 6 8 10 12 8 4 -3 8 4 8 15 1 10 0 19 -3 19 -2 0 -4
-5 -4 -11z"/>
<path fill="#000000" stroke="none" d="M41 44 c0 -11 3 -14 6 -6 3 7 2 16 -1
19 -3 4 -6 -2 -5 -13z"/>
<path fill="#000000" stroke="none" d="M17 33 c-4 -3 -7 -11 -7 -17 0 -6 5 -5
12 2 6 6 9 14 7 17 -3 3 -9 2 -12 -2z"/>
</g>
</svg>
