<?xml version="1.0" standalone="no"?>
<!DOCTYPE svg PUBLIC "-//W3C//DTD SVG 20010904//EN"
 "http://www.w3.org/TR/2001/REC-SVG-20010904/DTD/svg10.dtd">
<svg version="1.0" xmlns="http://www.w3.org/2000/svg"
 width="32.000000pt" height="32.000000pt" viewBox="0 0 32.000000 32.000000"
 preserveAspectRatio="xMidYMid meet">
<metadata>
Created by potrace 1.16, written by Peter Selinger 2001-2019
</metadata>
<g transform="translate(0.000000,32.000000) scale(0.100000,-0.100000)"
fill="#000000" stroke="none">
<path fill="#000000" stroke="none" d="M0 160 l0 -160 160 0 160 0 0 160 0
160 -160 0 -160 0 0 -160z"/>
<path fill="#ffffff" stroke="none" d="M202 293 c-21 -15 -21 -16 -5 -29 14
-11 14 -14 3 -12 -9 2 -14 -3 -12 -11 2 -11 0 -12 -11 -2 -12 9 -21 4 -47 -26
l-33 -38 6 34 c4 19 19 49 33 68 19 26 32 33 57 32 l32 0 -23 -16z"/>
<path fill="#ffffff" stroke="none" d="M281 273 c8 -9 9 -14 3 -10 -7 4 -19
-4 -28 -18 -9 -14 -20 -24 -24 -22 -4 1 -9 -2 -12 -8 -3 -5 -22 -25 -42 -43
-21 -19 -35 -38 -32 -43 3 -5 1 -9 -4 -9 -6 0 -13 8 -16 17 -4 10 -4 15 -1 11
8 -8 75 65 75 81 0 6 7 11 15 11 8 0 22 11 32 25 22 29 18 28 34 8z"/>
<path fill="#ffffff" stroke="none" d="M310 191 c0 -36 -48 -78 -101 -87 l-34
-6 25 18 c46 33 54 44 41 57 -6 6 -11 17 -11 24 0 16 26 17 36 1 4 -6 3 -8 -4
-4 -6 3 -13 2 -16 -3 -14 -23 16 -20 37 3 12 14 23 26 25 26 1 0 2 -13 2 -29z"/>
<path fill="#ffffff" stroke="none" d="M117 108 c-3 -8 -6 -5 -6 6 -1 11 2 17
5 13 3 -3 4 -12 1 -19z"/>
<path fill="#ffffff" stroke="none" d="M97 91 c0 -11 -4 -18 -8 -15 -4 2 -10
-2 -12 -8 -3 -7 -6 -3 -6 10 -1 13 3 20 9 17 6 -3 10 -1 10 4 0 6 2 11 4 11 3
0 4 -9 3 -19z"/>
<path fill="#ffffff" stroke="none" d="M35 42 c-3 -3 1 -12 8 -21 10 -14 10
-14 -4 -4 -9 7 -19 10 -22 6 -4 -3 -7 0 -7 9 0 8 7 15 15 15 8 0 13 -3 10 -5z"/>
</g>
</svg>
