<?xml version="1.0" standalone="no"?>
<!DOCTYPE svg PUBLIC "-//W3C//DTD SVG 20010904//EN"
 "http://www.w3.org/TR/2001/REC-SVG-20010904/DTD/svg10.dtd">
<svg version="1.0" xmlns="http://www.w3.org/2000/svg"
 width="32.000000pt" height="32.000000pt" viewBox="0 0 32.000000 32.000000"
 preserveAspectRatio="xMidYMid meet">
<metadata>
Created by potrace 1.16, written by Peter Selinger 2001-2019
</metadata>
<g transform="translate(0.000000,32.000000) scale(0.100000,-0.100000)"
fill="#000000" stroke="none">
<path fill="#000000" stroke="none" d="M161 282 c-11 -16 -22 -41 -26 -58 -5
-27 -4 -26 15 9 11 21 35 47 53 57 l32 20 -27 0 c-18 0 -33 -9 -47 -28z"/>
<path fill="#000000" stroke="none" d="M226 231 l-20 -26 25 20 c13 11 25 21
27 21 2 1 0 4 -5 7 -4 3 -17 -7 -27 -22z"/>
<path fill="#000000" stroke="none" d="M288 201 c-9 -16 -34 -39 -55 -50 -43
-23 -29 -28 20 -8 40 17 59 40 55 66 -3 19 -5 18 -20 -8z"/>
<path fill="#000000" stroke="none" d="M120 146 c0 -2 8 -10 18 -17 15 -13 16
-12 3 4 -13 16 -21 21 -21 13z"/>
<path fill="#000000" stroke="none" d="M60 86 c0 -2 8 -10 18 -17 15 -13 16
-12 3 4 -13 16 -21 21 -21 13z"/>
<path fill="#000000" stroke="none" d="M15 29 c-4 -6 -5 -12 -2 -15 2 -3 7 2
10 11 7 17 1 20 -8 4z"/>
</g>
</svg>
