<?xml version="1.0" standalone="no"?>
<!DOCTYPE svg PUBLIC "-//W3C//DTD SVG 20010904//EN"
 "http://www.w3.org/TR/2001/REC-SVG-20010904/DTD/svg10.dtd">
<svg version="1.0" xmlns="http://www.w3.org/2000/svg"
 width="32.000000pt" height="32.000000pt" viewBox="0 0 32.000000 32.000000"
 preserveAspectRatio="xMidYMid meet">
<metadata>
Created by potrace 1.16, written by Peter Selinger 2001-2019
</metadata>
<g transform="translate(0.000000,32.000000) scale(0.100000,-0.100000)"
fill="#000000" stroke="none">
<path fill="#000000" stroke="none" d="M0 160 l0 -160 160 0 160 0 0 126 0
126 -27 -34 c-72 -85 -143 -139 -143 -108 0 5 7 7 15 4 10 -4 15 0 15 11 0 9
29 47 65 84 36 37 65 75 65 84 0 33 -37 16 -95 -45 -33 -34 -51 -56 -40 -48
11 8 5 -2 -14 -22 -31 -33 -61 -41 -61 -16 0 7 5 6 13 -1 11 -8 18 -6 33 10
18 20 18 20 -9 14 -15 -4 -27 -5 -27 -2 0 10 62 67 72 67 6 0 8 3 5 6 -4 4 10
20 30 35 l36 29 -127 0 -126 0 0 -160z"/>
<path fill="#ffffff" stroke="none" d="M255 250 c-26 -27 -53 -47 -58 -43 -12
7 73 93 92 93 9 0 -5 -20 -34 -50z"/>
<path fill="#000000" stroke="none" d="M235 248 l-40 -43 43 40 c39 36 47 45
39 45 -2 0 -21 -19 -42 -42z"/>
</g>
</svg>
