<?xml version="1.0" standalone="no"?>
<!DOCTYPE svg PUBLIC "-//W3C//DTD SVG 20010904//EN"
 "http://www.w3.org/TR/2001/REC-SVG-20010904/DTD/svg10.dtd">
<svg version="1.0" xmlns="http://www.w3.org/2000/svg"
 width="32.000000pt" height="32.000000pt" viewBox="0 0 32.000000 32.000000"
 preserveAspectRatio="xMidYMid meet">
<metadata>
Created by potrace 1.16, written by Peter Selinger 2001-2019
</metadata>
<g transform="translate(0.000000,32.000000) scale(0.100000,-0.100000)"
fill="#000000" stroke="none">
<path fill="#000000" stroke="none" d="M147 273 c4 -9 9 -10 17 -3 8 6 17 6
24 0 9 -7 9 -7 2 2 -14 17 -49 18 -43 1z"/>
<path fill="#000000" stroke="none" d="M173 200 c-42 -43 -81 -76 -87 -73 -6
4 -5 -1 3 -10 14 -18 26 -24 17 -8 -3 5 20 33 52 63 70 67 108 108 99 108 -4
0 -42 -36 -84 -80z"/>
<path fill="#000000" stroke="none" d="M290 242 c-8 -9 -14 -21 -12 -26 4 -13
-40 -57 -54 -52 -6 2 -18 -4 -27 -15 -16 -18 -16 -19 1 -19 29 0 80 37 97 70
20 39 17 66 -5 42z"/>
<path fill="#000000" stroke="none" d="M71 94 c0 -11 3 -14 6 -6 3 7 2 16 -1
19 -3 4 -6 -2 -5 -13z"/>
<path fill="#000000" stroke="none" d="M51 74 c0 -11 3 -14 6 -6 3 7 2 16 -1
19 -3 4 -6 -2 -5 -13z"/>
<path fill="#000000" stroke="none" d="M30 56 c0 -9 -4 -14 -10 -11 -5 3 -10
1 -10 -4 0 -6 5 -11 10 -11 13 0 25 28 16 37 -3 4 -6 -1 -6 -11z"/>
</g>
</svg>
