<?xml version="1.0" standalone="no"?>
<!DOCTYPE svg PUBLIC "-//W3C//DTD SVG 20010904//EN"
 "http://www.w3.org/TR/2001/REC-SVG-20010904/DTD/svg10.dtd">
<svg version="1.0" xmlns="http://www.w3.org/2000/svg"
 width="32.000000pt" height="32.000000pt" viewBox="0 0 32.000000 32.000000"
 preserveAspectRatio="xMidYMid meet">
<metadata>
Created by potrace 1.16, written by Peter Selinger 2001-2019
</metadata>
<g transform="translate(0.000000,32.000000) scale(0.100000,-0.100000)"
fill="#000000" stroke="none">
<path fill="#000000" stroke="none" d="M134 254 c0 -13 5 -24 10 -24 5 0 6 -3
3 -7 -4 -3 -2 -12 3 -18 8 -9 2 -20 -20 -39 -18 -14 -36 -26 -41 -26 -4 0 -15
-12 -23 -27 -8 -16 -24 -38 -36 -51 -33 -35 -18 -36 26 -3 46 35 56 45 90 88
14 18 31 30 39 27 17 -7 15 -44 -3 -44 -7 0 -11 -4 -7 -9 3 -5 -3 -12 -12 -14
-10 -3 -2 -5 17 -6 74 -2 135 67 128 147 l-3 37 -15 -32 c-15 -33 -35 -48 -51
-37 -12 7 -11 34 1 34 6 0 10 5 10 10 0 7 -8 7 -22 -1 -17 -9 -23 -9 -26 0 -2
6 -8 9 -13 5 -5 -3 -9 -2 -9 3 0 4 -11 9 -24 9 -19 1 -23 -3 -22 -22z"/>
</g>
</svg>
