<?xml version="1.0" standalone="no"?>
<!DOCTYPE svg PUBLIC "-//W3C//DTD SVG 20010904//EN"
 "http://www.w3.org/TR/2001/REC-SVG-20010904/DTD/svg10.dtd">
<svg version="1.0" xmlns="http://www.w3.org/2000/svg"
 width="32.000000pt" height="32.000000pt" viewBox="0 0 32.000000 32.000000"
 preserveAspectRatio="xMidYMid meet">
<metadata>
Created by potrace 1.16, written by Peter Selinger 2001-2019
</metadata>
<g transform="translate(0.000000,32.000000) scale(0.100000,-0.100000)"
fill="#000000" stroke="none">
<path fill="#000000" stroke="none" d="M0 160 l0 -160 160 0 160 0 0 160 0
160 -160 0 -160 0 0 -160z"/>
<path fill="#ffffff" stroke="none" d="M188 277 c7 -8 6 -18 -4 -31 -8 -11
-14 -15 -14 -10 0 6 -9 20 -20 32 l-21 22 24 0 c14 0 29 -6 35 -13z"/>
<path fill="#ffffff" stroke="none" d="M254 267 c-2 -7 -34 -39 -69 -72 -35
-32 -62 -62 -59 -67 10 -15 -3 -8 -17 9 -7 10 -10 15 -6 12 4 -3 38 25 75 63
68 67 86 81 76 55z"/>
<path fill="#ffffff" stroke="none" d="M293 198 c-21 -36 -74 -71 -99 -66 -14
3 -13 6 5 29 11 15 19 28 17 30 -1 2 6 12 16 22 10 9 18 14 18 11 0 -3 12 4
28 16 23 19 27 20 30 6 2 -9 -5 -31 -15 -48z"/>
<path fill="#ffffff" stroke="none" d="M46 59 c10 -17 -13 -36 -27 -22 -12 12
-4 33 11 33 5 0 12 -5 16 -11z"/>
<path fill="#000000" stroke="none" d="M166 271 c-4 -5 -2 -12 3 -15 5 -4 12
-2 15 3 4 5 2 12 -3 15 -5 4 -12 2 -15 -3z"/>
</g>
</svg>
