<?xml version="1.0" standalone="no"?>
<!DOCTYPE svg PUBLIC "-//W3C//DTD SVG 20010904//EN"
 "http://www.w3.org/TR/2001/REC-SVG-20010904/DTD/svg10.dtd">
<svg version="1.0" xmlns="http://www.w3.org/2000/svg"
 width="32.000000pt" height="32.000000pt" viewBox="0 0 32.000000 32.000000"
 preserveAspectRatio="xMidYMid meet">
<metadata>
Created by potrace 1.16, written by Peter Selinger 2001-2019
</metadata>
<g transform="translate(0.000000,32.000000) scale(0.100000,-0.100000)"
fill="#000000" stroke="none">
<path fill="#000000" stroke="none" d="M0 160 l0 -160 160 0 160 0 0 160 0
160 -160 0 -160 0 0 -160z"/>
<path fill="#ffffff" stroke="none" d="M295 200 c-16 -32 -69 -70 -95 -70 -12
1 -12 3 2 14 10 7 15 16 12 19 -3 3 3 3 15 0 13 -3 21 -1 21 6 0 7 -5 9 -12 4
-7 -4 -2 7 12 24 14 17 28 29 31 27 4 -2 10 4 14 14 5 10 9 13 12 5 2 -6 -3
-26 -12 -43z"/>
<path fill="#ffffff" stroke="none" d="M44 62 c3 -5 -1 -9 -9 -9 -8 0 -12 4
-9 9 3 4 7 8 9 8 2 0 6 -4 9 -8z"/>
<path fill="#000000" stroke="none" d="M259 193 c-13 -16 -12 -17 4 -4 16 13
21 21 13 21 -2 0 -10 -8 -17 -17z"/>
</g>
</svg>
