<?xml version="1.0" standalone="no"?>
<!DOCTYPE svg PUBLIC "-//W3C//DTD SVG 20010904//EN"
 "http://www.w3.org/TR/2001/REC-SVG-20010904/DTD/svg10.dtd">
<svg version="1.0" xmlns="http://www.w3.org/2000/svg"
 width="32.000000pt" height="32.000000pt" viewBox="0 0 32.000000 32.000000"
 preserveAspectRatio="xMidYMid meet">
<metadata>
Created by potrace 1.16, written by Peter Selinger 2001-2019
</metadata>
<g transform="translate(0.000000,32.000000) scale(0.100000,-0.100000)"
fill="#000000" stroke="none">
<path fill="#000000" stroke="none" d="M0 160 l0 -160 160 0 160 0 0 160 0
160 -160 0 -160 0 0 -160z"/>
<path fill="#ffffff" stroke="none" d="M130 306 c0 -14 -14 -36 -23 -36 -16 0
-47 -31 -47 -47 0 -26 30 -25 61 1 72 61 179 4 179 -95 0 -37 -24 -69 -53 -69
-10 0 -32 11 -49 25 -36 30 -64 32 -78 5 -6 -11 -16 -17 -25 -14 -10 4 -15 0
-15 -11 0 -9 -4 -14 -9 -11 -5 3 -12 -5 -15 -19 -7 -27 -36 -35 -36 -9 0 10 5
14 16 10 8 -3 13 -2 10 3 -3 4 13 27 35 49 48 51 82 55 129 15 25 -20 36 -24
49 -16 37 23 19 103 -30 128 -40 21 -63 19 -97 -10 -48 -41 -92 -30 -92 22 0
16 64 83 80 83 6 0 10 -2 10 -4z"/>
</g>
</svg>
