<?xml version="1.0" standalone="no"?>
<!DOCTYPE svg PUBLIC "-//W3C//DTD SVG 20010904//EN"
 "http://www.w3.org/TR/2001/REC-SVG-20010904/DTD/svg10.dtd">
<svg version="1.0" xmlns="http://www.w3.org/2000/svg"
 width="32.000000pt" height="32.000000pt" viewBox="0 0 32.000000 32.000000"
 preserveAspectRatio="xMidYMid meet">
<metadata>
Created by potrace 1.16, written by Peter Selinger 2001-2019
</metadata>
<g transform="translate(0.000000,32.000000) scale(0.100000,-0.100000)"
fill="#000000" stroke="none">
<path fill="#000000" stroke="none" d="M0 160 l0 -160 160 0 160 0 0 160 0
160 -160 0 -160 0 0 -160z"/>
<path fill="#ffffff" stroke="none" d="M117 283 c-9 -9 -19 -14 -23 -11 -10
10 6 28 24 28 15 0 15 -1 -1 -17z"/>
<path fill="#ffffff" stroke="none" d="M68 246 c-8 -6 -15 -14 -16 -19 0 -4
-3 -13 -6 -20 -3 -6 -3 1 -1 16 5 35 27 66 34 46 2 -7 -3 -17 -11 -23z"/>
<path fill="#ffffff" stroke="none" d="M229 241 c9 -6 10 -11 2 -15 -6 -4 -11
-3 -11 2 0 4 -17 7 -37 6 -55 -3 -55 -3 -47 -16 4 -7 3 -8 -4 -4 -7 4 -12 2
-12 -3 0 -6 -6 -11 -12 -11 -7 0 0 12 15 25 29 25 79 33 106 16z"/>
<path fill="#ffffff" stroke="none" d="M260 220 c0 -5 -5 -10 -11 -10 -5 0 -7
5 -4 10 3 6 8 10 11 10 2 0 4 -4 4 -10z"/>
<path fill="#ffffff" stroke="none" d="M67 188 c-3 -8 -6 -5 -6 6 -1 11 2 17
5 13 3 -3 4 -12 1 -19z"/>
<path fill="#ffffff" stroke="none" d="M105 182 c-3 -3 -11 0 -18 7 -9 10 -8
11 6 5 10 -3 15 -9 12 -12z"/>
<path fill="#ffffff" stroke="none" d="M140 119 c0 -5 -4 -8 -9 -5 -5 3 -12
-6 -15 -20 -6 -21 -9 -24 -21 -14 -12 10 -11 15 8 31 25 21 37 24 37 8z"/>
<path fill="#ffffff" stroke="none" d="M297 115 c0 -8 -4 -15 -9 -15 -5 0 -6
-5 -2 -12 4 -7 3 -8 -4 -4 -7 4 -12 1 -12 -8 0 -10 -6 -13 -15 -9 -13 5 -13 8
5 20 11 8 20 21 20 29 0 8 4 14 8 14 5 0 9 -7 9 -15z"/>
<path fill="#ffffff" stroke="none" d="M215 100 c10 -11 13 -20 7 -20 -7 0
-12 5 -12 11 0 5 -5 7 -12 3 -7 -5 -8 -3 -3 6 6 10 4 12 -9 7 -10 -4 -15 -3
-11 3 9 15 20 12 40 -10z"/>
<path fill="#ffffff" stroke="none" d="M45 29 c11 -17 -1 -21 -15 -4 -8 9 -8
15 -2 15 6 0 14 -5 17 -11z"/>
</g>
</svg>
