<?xml version="1.0" standalone="no"?>
<!DOCTYPE svg PUBLIC "-//W3C//DTD SVG 20010904//EN"
 "http://www.w3.org/TR/2001/REC-SVG-20010904/DTD/svg10.dtd">
<svg version="1.0" xmlns="http://www.w3.org/2000/svg"
 width="32.000000pt" height="32.000000pt" viewBox="0 0 32.000000 32.000000"
 preserveAspectRatio="xMidYMid meet">
<metadata>
Created by potrace 1.16, written by Peter Selinger 2001-2019
</metadata>
<g transform="translate(0.000000,32.000000) scale(0.100000,-0.100000)"
fill="#000000" stroke="none">
<path fill="#000000" stroke="none" d="M95 289 c-12 -19 5 -23 22 -6 16 16 16
17 1 17 -9 0 -20 -5 -23 -11z"/>
<path fill="#000000" stroke="none" d="M62 267 c-7 -8 -15 -28 -17 -44 -2 -15
-2 -22 1 -16 3 7 6 16 6 20 1 5 8 13 16 19 8 6 13 16 11 23 -4 10 -8 10 -17
-2z"/>
<path fill="#000000" stroke="none" d="M123 225 c-15 -13 -22 -25 -15 -25 6 0
12 5 12 11 0 5 5 7 12 3 7 -4 8 -3 4 4 -8 13 -8 13 47 16 20 1 37 -2 37 -6 0
-5 5 -6 11 -2 17 10 -10 24 -48 24 -20 0 -42 -9 -60 -25z"/>
<path fill="#000000" stroke="none" d="M245 220 c-3 -5 -1 -10 4 -10 6 0 11 5
11 10 0 6 -2 10 -4 10 -3 0 -8 -4 -11 -10z"/>
<path fill="#000000" stroke="none" d="M61 194 c0 -11 3 -14 6 -6 3 7 2 16 -1
19 -3 4 -6 -2 -5 -13z"/>
<path fill="#000000" stroke="none" d="M87 189 c7 -7 15 -10 18 -7 3 3 -2 9
-12 12 -14 6 -15 5 -6 -5z"/>
<path fill="#000000" stroke="none" d="M103 111 c-19 -16 -20 -21 -8 -31 12
-10 15 -7 21 14 3 14 10 23 15 20 5 -3 9 0 9 5 0 16 -12 13 -37 -8z"/>
<path fill="#000000" stroke="none" d="M280 116 c0 -8 -9 -21 -20 -29 -18 -12
-18 -15 -5 -20 9 -4 15 -1 15 9 0 9 5 12 12 8 7 -4 8 -3 4 4 -4 7 -3 12 2 12
5 0 9 7 9 15 0 8 -4 15 -9 15 -4 0 -8 -6 -8 -14z"/>
<path fill="#000000" stroke="none" d="M175 110 c-4 -6 1 -7 11 -3 13 5 15 3
9 -7 -5 -9 -4 -11 3 -6 7 4 12 2 12 -3 0 -6 5 -11 12 -11 6 0 3 9 -7 20 -20
22 -31 25 -40 10z"/>
<path fill="#000000" stroke="none" d="M30 25 c7 -9 15 -13 17 -11 7 7 -7 26
-19 26 -6 0 -6 -6 2 -15z"/>
</g>
</svg>
