<?xml version="1.0" standalone="no"?>
<!DOCTYPE svg PUBLIC "-//W3C//DTD SVG 20010904//EN"
 "http://www.w3.org/TR/2001/REC-SVG-20010904/DTD/svg10.dtd">
<svg version="1.0" xmlns="http://www.w3.org/2000/svg"
 width="32.000000pt" height="32.000000pt" viewBox="0 0 32.000000 32.000000"
 preserveAspectRatio="xMidYMid meet">
<metadata>
Created by potrace 1.16, written by Peter Selinger 2001-2019
</metadata>
<g transform="translate(0.000000,32.000000) scale(0.100000,-0.100000)"
fill="#000000" stroke="none">
<path fill="#000000" stroke="none" d="M175 200 c-18 -19 -35 -28 -45 -25 -8
4 -2 -8 14 -24 33 -34 38 -37 30 -18 -2 7 9 26 26 42 16 16 30 35 30 42 0 22
-25 14 -55 -17z"/>
<path fill="#ffffff" stroke="none" d="M189 174 c-12 -13 -26 -21 -31 -18 -5
4 0 17 13 30 12 13 26 21 31 18 5 -4 0 -17 -13 -30z"/>
<path fill="#000000" stroke="none" d="M174 178 l-19 -23 23 19 c21 18 27 26
19 26 -2 0 -12 -10 -23 -22z"/>
<path fill="#000000" stroke="none" d="M80 106 c0 -2 8 -10 18 -17 15 -13 16
-12 3 4 -13 16 -21 21 -21 13z"/>
</g>
</svg>
