<?xml version="1.0" standalone="no"?>
<!DOCTYPE svg PUBLIC "-//W3C//DTD SVG 20010904//EN"
 "http://www.w3.org/TR/2001/REC-SVG-20010904/DTD/svg10.dtd">
<svg version="1.0" xmlns="http://www.w3.org/2000/svg"
 width="32.000000pt" height="32.000000pt" viewBox="0 0 32.000000 32.000000"
 preserveAspectRatio="xMidYMid meet">
<metadata>
Created by potrace 1.16, written by Peter Selinger 2001-2019
</metadata>
<g transform="translate(0.000000,32.000000) scale(0.100000,-0.100000)"
fill="#000000" stroke="none">
<path fill="#000000" stroke="none" d="M204 205 c-15 -14 -31 -25 -35 -25 -5
0 -9 -7 -9 -15 0 -8 -9 -19 -20 -25 -11 -6 -18 -15 -15 -19 5 -10 -24 -26 -40
-22 -5 1 -4 -4 3 -11 11 -11 17 -8 37 14 12 15 26 24 31 20 4 -4 4 -2 0 5 -4
7 13 31 40 57 48 48 55 64 8 21z"/>
</g>
</svg>
