<?xml version="1.0" standalone="no"?>
<!DOCTYPE svg PUBLIC "-//W3C//DTD SVG 20010904//EN"
 "http://www.w3.org/TR/2001/REC-SVG-20010904/DTD/svg10.dtd">
<svg version="1.0" xmlns="http://www.w3.org/2000/svg"
 width="32.000000pt" height="32.000000pt" viewBox="0 0 32.000000 32.000000"
 preserveAspectRatio="xMidYMid meet">
<metadata>
Created by potrace 1.16, written by Peter Selinger 2001-2019
</metadata>
<g transform="translate(0.000000,32.000000) scale(0.100000,-0.100000)"
fill="#000000" stroke="none">
<path fill="#000000" stroke="none" d="M200 254 c-39 -37 -69 -74 -68 -82 2
-8 -4 -17 -12 -19 -12 -4 -12 -3 -1 5 9 7 10 12 2 16 -6 4 -11 2 -11 -4 0 -6
-5 -8 -11 -4 -8 4 -8 0 0 -15 7 -11 9 -21 5 -21 -3 0 -1 -7 6 -15 7 -8 17 -12
23 -8 6 4 7 1 3 -6 -6 -9 -12 -8 -26 4 -15 14 -18 14 -30 0 -13 -16 -13 -17
23 -19 26 -2 67 21 67 38 0 6 -5 4 -11 -4 -9 -13 -10 -13 -6 0 2 8 11 14 19
12 8 -1 45 29 82 68 50 51 67 75 64 92 -2 15 -11 24 -26 26 -17 3 -41 -14 -92
-64z"/>
<path fill="#ffffff" stroke="none" d="M300 285 c0 -8 -25 -43 -57 -78 -31
-34 -58 -64 -60 -66 -1 -2 -3 -1 -3 2 0 4 25 34 55 67 53 58 66 80 45 80 -6 0
-37 -25 -70 -55 -33 -30 -63 -55 -67 -55 -3 0 -4 2 -2 3 2 2 32 29 66 60 63
57 93 70 93 42z"/>
<path fill="#000000" stroke="none" d="M80 134 c0 -8 5 -12 10 -9 6 4 8 11 5
16 -9 14 -15 11 -15 -7z"/>
<path fill="#000000" stroke="none" d="M56 125 c4 -8 8 -15 10 -15 2 0 4 7 4
15 0 8 -4 15 -10 15 -5 0 -7 -7 -4 -15z"/>
<path fill="#000000" stroke="none" d="M49 63 c-13 -16 -12 -17 4 -4 16 13 21
21 13 21 -2 0 -10 -8 -17 -17z"/>
<path fill="#000000" stroke="none" d="M110 66 c0 -2 7 -6 15 -10 8 -3 15 -1
15 4 0 6 -7 10 -15 10 -8 0 -15 -2 -15 -4z"/>
</g>
</svg>
