<?xml version="1.0" standalone="no"?>
<!DOCTYPE svg PUBLIC "-//W3C//DTD SVG 20010904//EN"
 "http://www.w3.org/TR/2001/REC-SVG-20010904/DTD/svg10.dtd">
<svg version="1.0" xmlns="http://www.w3.org/2000/svg"
 width="32.000000pt" height="32.000000pt" viewBox="0 0 32.000000 32.000000"
 preserveAspectRatio="xMidYMid meet">
<metadata>
Created by potrace 1.16, written by Peter Selinger 2001-2019
</metadata>
<g transform="translate(0.000000,32.000000) scale(0.100000,-0.100000)"
fill="#000000" stroke="none">
<path fill="#000000" stroke="none" d="M0 160 l0 -160 160 0 160 0 0 160 0
160 -160 0 -160 0 0 -160z"/>
<path fill="#ffffff" stroke="none" d="M244 290 c-27 -11 -38 -27 -24 -35 5
-3 27 7 47 22 l38 28 -28 -38 c-15 -20 -25 -42 -22 -47 8 -14 24 -3 35 24 7
17 9 17 9 4 1 -10 -9 -28 -20 -39 -20 -20 -22 -20 -31 -5 -8 14 -13 15 -24 5
-19 -15 -30 -4 -15 15 10 11 9 16 -5 24 -15 9 -15 11 5 31 11 11 29 21 39 20
13 0 13 -2 -4 -9z"/>
<path fill="#ffffff" stroke="none" d="M195 189 c11 -17 -1 -21 -15 -4 -8 9
-8 15 -2 15 6 0 14 -5 17 -11z"/>
<path fill="#ffffff" stroke="none" d="M34 32 c3 -5 -1 -9 -9 -9 -8 0 -15 4
-15 9 0 4 4 8 9 8 6 0 12 -4 15 -8z"/>
</g>
</svg>
