<?xml version="1.0" standalone="no"?>
<!DOCTYPE svg PUBLIC "-//W3C//DTD SVG 20010904//EN"
 "http://www.w3.org/TR/2001/REC-SVG-20010904/DTD/svg10.dtd">
<svg version="1.0" xmlns="http://www.w3.org/2000/svg"
 width="32.000000pt" height="32.000000pt" viewBox="0 0 32.000000 32.000000"
 preserveAspectRatio="xMidYMid meet">
<metadata>
Created by potrace 1.16, written by Peter Selinger 2001-2019
</metadata>
<g transform="translate(0.000000,32.000000) scale(0.100000,-0.100000)"
fill="#000000" stroke="none">
<path fill="#000000" stroke="none" d="M0 160 l0 -160 160 0 160 0 -1 108 c0
59 -6 125 -13 147 -10 34 -17 41 -51 51 -22 7 -88 13 -147 13 l-108 1 0 -160z"/>
<path fill="#ffffff" stroke="none" d="M248 299 c12 0 10 -3 -5 -9 -13 -5 -23
-17 -23 -25 0 -9 5 -13 10 -10 6 4 7 11 4 17 -4 7 -2 8 5 4 6 -4 19 -2 27 5
19 16 31 4 15 -15 -7 -8 -9 -21 -5 -27 4 -7 3 -9 -4 -5 -6 3 -13 2 -17 -4 -3
-5 1 -10 10 -10 9 0 20 10 23 22 5 22 6 21 13 -6 11 -41 -4 -65 -41 -64 -31 1
-48 14 -35 26 3 3 11 0 16 -8 9 -13 10 -13 7 -1 -9 32 -31 18 -129 -79 -56
-55 -103 -99 -106 -97 -2 2 42 50 97 106 95 96 111 121 82 127 -7 1 -8 0 -2
-3 14 -7 12 -25 -2 -21 -7 3 -14 18 -15 34 -3 31 22 58 45 49 8 -3 21 -5 30
-6z"/>
<path fill="#000000" stroke="none" d="M190 285 c-19 -22 -8 -25 13 -3 9 10
13 18 8 18 -5 0 -14 -7 -21 -15z"/>
<path fill="#000000" stroke="none" d="M278 198 c-10 -10 -14 -18 -9 -18 10 0
36 29 30 34 -2 1 -12 -6 -21 -16z"/>
<path fill="#000000" stroke="none" d="M289 311 c7 -5 17 -15 22 -22 6 -10 9
-8 9 9 0 16 -6 22 -22 22 -17 0 -19 -3 -9 -9z"/>
</g>
</svg>
