<?xml version="1.0" standalone="no"?>
<!DOCTYPE svg PUBLIC "-//W3C//DTD SVG 20010904//EN"
 "http://www.w3.org/TR/2001/REC-SVG-20010904/DTD/svg10.dtd">
<svg version="1.0" xmlns="http://www.w3.org/2000/svg"
 width="32.000000pt" height="32.000000pt" viewBox="0 0 32.000000 32.000000"
 preserveAspectRatio="xMidYMid meet">
<metadata>
Created by potrace 1.16, written by Peter Selinger 2001-2019
</metadata>
<g transform="translate(0.000000,32.000000) scale(0.100000,-0.100000)"
fill="#000000" stroke="none">
<path fill="#000000" stroke="none" d="M260 288 c0 -4 4 -8 9 -8 6 0 12 4 15
8 3 5 -1 9 -9 9 -8 0 -15 -4 -15 -9z"/>
<path fill="#000000" stroke="none" d="M195 220 c-21 -21 -43 -36 -49 -33 -6
4 -5 -1 3 -10 7 -9 16 -17 19 -17 3 0 2 3 -2 7 -3 4 13 26 36 50 23 24 40 43
37 43 -3 0 -22 -18 -44 -40z"/>
<path fill="#000000" stroke="none" d="M216 143 c-3 -8 -11 -11 -17 -7 -8 4
-9 3 -5 -5 4 -6 2 -18 -4 -26 -9 -11 -9 -15 -1 -15 6 0 11 5 11 12 0 6 3 9 6
5 8 -7 28 12 36 34 4 9 1 16 -8 16 -7 0 -16 -7 -18 -14z"/>
<path fill="#000000" stroke="none" d="M260 129 c0 -5 5 -7 10 -4 6 3 10 8 10
11 0 2 -4 4 -10 4 -5 0 -10 -5 -10 -11z"/>
<path fill="#000000" stroke="none" d="M70 116 c0 -2 8 -10 18 -17 15 -13 16
-12 3 4 -13 16 -21 21 -21 13z"/>
<path fill="#000000" stroke="none" d="M270 100 c0 -5 5 -10 11 -10 5 0 7 5 4
10 -3 6 -8 10 -11 10 -2 0 -4 -4 -4 -10z"/>
<path fill="#000000" stroke="none" d="M210 79 c-14 -10 -20 -19 -13 -19 6 0
15 5 18 10 4 6 10 8 15 5 5 -3 11 -1 14 4 12 19 -10 19 -34 0z"/>
<path fill="#000000" stroke="none" d="M260 70 c0 -5 5 -10 11 -10 5 0 7 5 4
10 -3 6 -8 10 -11 10 -2 0 -4 -4 -4 -10z"/>
<path fill="#000000" stroke="none" d="M225 40 c3 -5 8 -10 11 -10 2 0 4 5 4
10 0 6 -5 10 -11 10 -5 0 -7 -4 -4 -10z"/>
</g>
</svg>
