<?xml version="1.0" standalone="no"?>
<!DOCTYPE svg PUBLIC "-//W3C//DTD SVG 20010904//EN"
 "http://www.w3.org/TR/2001/REC-SVG-20010904/DTD/svg10.dtd">
<svg version="1.0" xmlns="http://www.w3.org/2000/svg"
 width="32.000000pt" height="32.000000pt" viewBox="0 0 32.000000 32.000000"
 preserveAspectRatio="xMidYMid meet">
<metadata>
Created by potrace 1.16, written by Peter Selinger 2001-2019
</metadata>
<g transform="translate(0.000000,32.000000) scale(0.100000,-0.100000)"
fill="#000000" stroke="none">
<path fill="#000000" stroke="none" d="M188 226 c-47 -51 -74 -72 -94 -74 -36
-3 -44 -11 -16 -19 12 -3 22 -8 22 -12 0 -9 -51 -57 -65 -62 -6 -2 -3 -12 7
-21 11 -11 18 -13 18 -6 0 13 49 68 61 68 4 0 9 -10 12 -22 8 -28 16 -20 19
16 2 20 23 47 76 97 40 38 67 69 60 69 -8 0 -40 -27 -73 -60 -32 -32 -63 -56
-68 -53 -5 3 19 34 53 68 34 35 61 67 59 72 -2 6 -34 -22 -71 -61z"/>
</g>
</svg>
