<?xml version="1.0" standalone="no"?>
<!DOCTYPE svg PUBLIC "-//W3C//DTD SVG 20010904//EN"
 "http://www.w3.org/TR/2001/REC-SVG-20010904/DTD/svg10.dtd">
<svg version="1.0" xmlns="http://www.w3.org/2000/svg"
 width="32.000000pt" height="32.000000pt" viewBox="0 0 32.000000 32.000000"
 preserveAspectRatio="xMidYMid meet">
<metadata>
Created by potrace 1.16, written by Peter Selinger 2001-2019
</metadata>
<g transform="translate(0.000000,32.000000) scale(0.100000,-0.100000)"
fill="#000000" stroke="none">
<path fill="#000000" stroke="none" d="M0 160 l0 -160 160 0 160 0 0 160 0
160 -160 0 -160 0 0 -160z"/>
<path fill="#ffffff" stroke="none" d="M229 244 c-42 -43 -29 -58 14 -16 18
18 39 32 45 32 7 0 -6 -18 -29 -40 -23 -22 -45 -40 -48 -40 -4 0 -12 -14 -18
-30 -6 -17 -21 -34 -33 -38 -19 -7 -20 -9 -6 -21 9 -7 25 -11 37 -8 16 4 18 3
8 -9 -16 -20 -39 -17 -65 7 l-22 21 -28 -36 c-29 -36 -54 -47 -54 -23 0 6 16
25 36 41 l36 28 -21 22 c-24 26 -27 49 -7 65 12 10 13 8 9 -8 -3 -12 1 -28 8
-37 12 -14 14 -13 21 6 4 12 21 27 38 33 16 6 30 14 30 18 0 12 75 85 79 76 2
-5 -12 -24 -30 -43z"/>
<path fill="#000000" stroke="none" d="M142 168 c-16 -16 -15 -38 1 -38 17 0
37 20 37 37 0 16 -22 17 -38 1z"/>
</g>
</svg>
