<?xml version="1.0" standalone="no"?>
<!DOCTYPE svg PUBLIC "-//W3C//DTD SVG 20010904//EN"
 "http://www.w3.org/TR/2001/REC-SVG-20010904/DTD/svg10.dtd">
<svg version="1.0" xmlns="http://www.w3.org/2000/svg"
 width="32.000000pt" height="32.000000pt" viewBox="0 0 32.000000 32.000000"
 preserveAspectRatio="xMidYMid meet">
<metadata>
Created by potrace 1.16, written by Peter Selinger 2001-2019
</metadata>
<g transform="translate(0.000000,32.000000) scale(0.100000,-0.100000)"
fill="#000000" stroke="none">
<path fill="#000000" stroke="none" d="M199 291 c17 -31 3 -46 -21 -24 -21 18
-21 18 -9 -5 17 -32 4 -48 -21 -25 -21 18 -21 18 -8 -7 17 -34 15 -33 42 -20
22 11 22 10 4 -4 -15 -12 -17 -19 -8 -28 9 -9 20 -3 47 26 19 21 35 41 35 46
0 4 -16 20 -36 35 -32 25 -35 25 -25 6z"/>
<path fill="#000000" stroke="none" d="M278 286 c-19 -14 -23 -26 -10 -26 4 0
13 9 20 20 14 23 13 24 -10 6z"/>
<path fill="#000000" stroke="none" d="M277 223 c-3 -5 6 -16 20 -27 l25 -19
-17 27 c-19 28 -21 30 -28 19z"/>
<path fill="#000000" stroke="none" d="M246 192 c-2 -4 4 -14 15 -20 19 -12
19 -11 9 8 -12 22 -16 24 -24 12z"/>
<path fill="#000000" stroke="none" d="M125 130 c-21 -21 -43 -36 -48 -33 -6
3 -7 1 -3 -5 10 -16 6 -18 56 33 24 25 42 45 39 45 -3 0 -22 -18 -44 -40z"/>
<path fill="#000000" stroke="none" d="M216 162 c-2 -4 4 -14 15 -20 19 -12
19 -11 9 8 -12 22 -16 24 -24 12z"/>
</g>
</svg>
