<?xml version="1.0" standalone="no"?>
<!DOCTYPE svg PUBLIC "-//W3C//DTD SVG 20010904//EN"
 "http://www.w3.org/TR/2001/REC-SVG-20010904/DTD/svg10.dtd">
<svg version="1.0" xmlns="http://www.w3.org/2000/svg"
 width="32.000000pt" height="32.000000pt" viewBox="0 0 32.000000 32.000000"
 preserveAspectRatio="xMidYMid meet">
<metadata>
Created by potrace 1.16, written by Peter Selinger 2001-2019
</metadata>
<g transform="translate(0.000000,32.000000) scale(0.100000,-0.100000)"
fill="#000000" stroke="none">
<path fill="#000000" stroke="none" d="M48 313 c29 -2 74 -2 100 0 26 2 2 3
-53 3 -55 0 -76 -1 -47 -3z"/>
<path fill="#000000" stroke="none" d="M268 313 c12 -2 30 -2 40 0 9 3 -1 5
-23 4 -22 0 -30 -2 -17 -4z"/>
<path fill="#000000" stroke="none" d="M200 285 c0 -19 -5 -25 -22 -25 -19 0
-16 -7 27 -51 42 -42 50 -47 53 -30 2 13 13 21 30 23 l27 4 -28 12 c-25 11
-27 14 -16 34 16 31 24 38 15 13 -5 -15 -4 -17 5 -8 22 22 0 34 -32 18 -28
-15 -30 -15 -39 10 -12 32 -20 32 -20 0z"/>
<path fill="#ffffff" stroke="none" d="M254 239 c-3 -5 -10 -7 -15 -3 -5 3 -7
10 -3 15 3 5 10 7 15 3 5 -3 7 -10 3 -15z"/>
<path fill="#ffffff" stroke="none" d="M237 202 c-11 -5 -37 18 -37 34 0 9 8
5 23 -9 12 -12 18 -24 14 -25z"/>
<path fill="#000000" stroke="none" d="M140 231 c-35 -8 -35 -28 1 -26 16 1
32 5 36 9 12 12 -11 23 -37 17z"/>
<path fill="#000000" stroke="none" d="M133 185 c0 -8 4 -12 9 -9 5 3 6 10 3
15 -9 13 -12 11 -12 -6z"/>
<path fill="#000000" stroke="none" d="M162 183 c5 -26 38 -29 38 -4 0 15 -6
21 -21 21 -14 0 -19 -5 -17 -17z"/>
<path fill="#000000" stroke="none" d="M308 150 c2 -22 6 -40 8 -40 2 0 4 18
4 40 0 22 -3 40 -8 40 -4 0 -6 -18 -4 -40z"/>
<path fill="#000000" stroke="none" d="M205 160 c-4 -12 -11 -17 -18 -14 -7 4
-9 4 -5 0 3 -4 9 -6 12 -4 3 2 12 -6 20 -17 15 -19 15 -19 16 8 0 15 0 30 1
34 2 18 -20 12 -26 -7z"/>
<path fill="#000000" stroke="none" d="M132 144 c-12 -8 -27 -25 -33 -37 -12
-21 -11 -21 11 -6 21 14 58 59 48 59 -2 0 -14 -7 -26 -16z"/>
<path fill="#000000" stroke="none" d="M32 50 c-12 -6 -22 -18 -22 -30 0 -34
33 -21 42 18 4 12 5 22 5 21 -1 0 -12 -4 -25 -9z"/>
</g>
</svg>
