<?xml version="1.0" standalone="no"?>
<!DOCTYPE svg PUBLIC "-//W3C//DTD SVG 20010904//EN"
 "http://www.w3.org/TR/2001/REC-SVG-20010904/DTD/svg10.dtd">
<svg version="1.0" xmlns="http://www.w3.org/2000/svg"
 width="32.000000pt" height="32.000000pt" viewBox="0 0 32.000000 32.000000"
 preserveAspectRatio="xMidYMid meet">
<metadata>
Created by potrace 1.16, written by Peter Selinger 2001-2019
</metadata>
<g transform="translate(0.000000,32.000000) scale(0.100000,-0.100000)"
fill="#000000" stroke="none">
<path fill="#000000" stroke="none" d="M190 302 c0 -4 5 -13 12 -20 17 -17 0
-28 -22 -14 -16 10 -18 9 -17 -8 1 -10 5 -16 9 -14 4 3 8 0 8 -5 0 -15 -23
-14 -39 2 -15 13 -13 8 9 -36 14 -28 13 -29 -58 -98 -40 -38 -70 -74 -66 -80
9 -15 17 -9 63 44 22 27 41 45 41 40 0 -4 5 0 11 10 6 9 15 14 21 11 7 -4 8
-2 4 5 -12 19 20 23 53 6 31 -16 41 -9 19 13 -21 21 0 25 29 7 l28 -18 -19 27
c-22 35 -14 44 19 22 25 -17 26 -17 16 1 -5 10 -16 27 -24 38 -13 17 -13 22 2
45 l16 25 -25 -16 c-23 -15 -27 -15 -57 2 -18 10 -33 15 -33 11z"/>
</g>
</svg>
