<?xml version="1.0" standalone="no"?>
<!DOCTYPE svg PUBLIC "-//W3C//DTD SVG 20010904//EN"
 "http://www.w3.org/TR/2001/REC-SVG-20010904/DTD/svg10.dtd">
<svg version="1.0" xmlns="http://www.w3.org/2000/svg"
 width="32.000000pt" height="32.000000pt" viewBox="0 0 32.000000 32.000000"
 preserveAspectRatio="xMidYMid meet">
<metadata>
Created by potrace 1.16, written by Peter Selinger 2001-2019
</metadata>
<g transform="translate(0.000000,32.000000) scale(0.100000,-0.100000)"
fill="#000000" stroke="none">
<path fill="#000000" stroke="none" d="M0 160 l0 -160 160 0 160 0 0 89 c0 83
-2 90 -24 105 -27 17 -45 6 -21 -14 25 -20 17 -34 -9 -16 -27 17 -45 6 -21
-14 29 -24 14 -31 -20 -10 -34 21 -73 21 -60 0 4 -6 1 -9 -7 -8 -7 2 -12 -3
-11 -9 2 -7 -3 -13 -11 -13 -8 0 -34 -23 -57 -50 -38 -45 -44 -49 -57 -36 -13
12 -13 18 -3 30 8 9 16 14 20 11 4 -2 33 22 64 54 60 61 63 74 29 114 -16 18
-6 23 18 8 23 -15 33 -1 14 20 -18 20 -9 25 16 10 23 -16 33 -1 13 22 -17 20
-17 20 2 13 11 -5 28 -11 38 -13 9 -3 17 -9 17 -14 0 -5 11 -2 25 7 14 9 25
12 25 6 0 -6 -4 -14 -10 -17 -15 -10 -12 -31 10 -56 l19 -24 1 63 0 62 -160 0
-160 0 0 -160z"/>
</g>
</svg>
