<?xml version="1.0" standalone="no"?>
<!DOCTYPE svg PUBLIC "-//W3C//DTD SVG 20010904//EN"
 "http://www.w3.org/TR/2001/REC-SVG-20010904/DTD/svg10.dtd">
<svg version="1.0" xmlns="http://www.w3.org/2000/svg"
 width="32.000000pt" height="32.000000pt" viewBox="0 0 32.000000 32.000000"
 preserveAspectRatio="xMidYMid meet">
<metadata>
Created by potrace 1.16, written by Peter Selinger 2001-2019
</metadata>
<g transform="translate(0.000000,32.000000) scale(0.100000,-0.100000)"
fill="#000000" stroke="none">
<path fill="#000000" stroke="none" d="M0 160 l0 -160 160 0 160 0 0 160 0
160 -160 0 -160 0 0 -160z"/>
<path fill="#ffffff" stroke="none" d="M158 298 c-2 -7 7 -14 20 -16 15 -2 22
2 22 12 0 12 11 16 42 16 41 0 42 0 20 -16 -24 -16 -30 -36 -9 -32 6 2 11 -3
9 -9 -4 -21 16 -15 32 9 16 22 16 21 16 -20 0 -31 -4 -42 -16 -42 -10 0 -14
-7 -12 -22 2 -13 9 -22 17 -20 21 4 8 -29 -20 -51 -15 -10 -48 -22 -75 -25
l-48 -5 37 43 c40 47 43 55 25 66 -6 4 -23 -6 -39 -23 -18 -21 -30 -28 -37
-21 -7 7 0 19 21 37 17 16 27 33 23 39 -11 18 -19 15 -64 -24 l-42 -36 0 31
c0 36 16 80 37 103 18 21 44 24 41 6z"/>
<path fill="#ffffff" stroke="none" d="M101 93 c13 -16 12 -17 -3 -4 -10 7
-18 15 -18 17 0 8 8 3 21 -13z"/>
<path fill="#ffffff" stroke="none" d="M50 36 c0 -20 -19 -31 -32 -18 -6 6 -7
15 -4 21 10 16 36 13 36 -3z"/>
</g>
</svg>
