<?xml version="1.0" standalone="no"?>
<!DOCTYPE svg PUBLIC "-//W3C//DTD SVG 20010904//EN"
 "http://www.w3.org/TR/2001/REC-SVG-20010904/DTD/svg10.dtd">
<svg version="1.0" xmlns="http://www.w3.org/2000/svg"
 width="32.000000pt" height="32.000000pt" viewBox="0 0 32.000000 32.000000"
 preserveAspectRatio="xMidYMid meet">
<metadata>
Created by potrace 1.16, written by Peter Selinger 2001-2019
</metadata>
<g transform="translate(0.000000,32.000000) scale(0.100000,-0.100000)"
fill="#000000" stroke="none">
<path fill="#000000" stroke="none" d="M2 163 l3 -158 158 -3 157 -3 0 161 0
160 -160 0 -161 0 3 -157z"/>
<path fill="#ffffff" stroke="none" d="M154 299 c-3 -6 0 -15 7 -20 11 -7 9
-9 -6 -9 -17 0 -17 -2 -5 -10 12 -8 12 -10 -5 -11 -20 0 -20 -1 -1 -8 19 -7
19 -8 -3 -14 -13 -3 -20 -10 -17 -15 3 -5 -6 -20 -19 -32 l-25 -23 0 31 c0 37
15 80 37 104 18 20 48 25 37 7z"/>
<path fill="#ffffff" stroke="none" d="M259 291 c-23 -19 -23 -20 -6 -38 18
-17 19 -17 38 6 l19 23 0 -38 c0 -35 -5 -41 -37 -57 -26 -13 -38 -15 -43 -7
-5 8 -10 9 -14 2 -3 -6 -14 -9 -23 -8 -22 3 -28 80 -7 97 8 6 14 18 14 25 0
10 13 14 41 14 l41 0 -23 -19z"/>
<path fill="#ffffff" stroke="none" d="M163 150 c-6 -23 -19 -26 -26 -6 -4 9
1 17 11 19 9 3 18 5 19 6 0 0 -1 -8 -4 -19z"/>
<path fill="#ffffff" stroke="none" d="M300 155 c8 5 11 1 8 -10 -5 -29 -52
-57 -104 -62 l-49 -6 24 26 c13 15 28 24 33 21 5 -3 12 4 15 17 6 22 7 22 14
3 7 -19 8 -19 8 1 1 17 3 17 11 5 8 -12 10 -12 10 5 0 15 2 17 9 6 5 -7 14
-10 21 -6z"/>
<path fill="#ffffff" stroke="none" d="M127 118 c-3 -8 -6 -5 -6 6 -1 11 2 17
5 13 3 -3 4 -12 1 -19z"/>
<path fill="#ffffff" stroke="none" d="M110 99 c0 -11 -4 -18 -9 -15 -5 4 -12
0 -14 -6 -3 -7 -6 -3 -6 10 -1 13 3 20 9 17 6 -3 10 -1 10 4 0 6 2 11 5 11 3
0 5 -9 5 -21z"/>
<path fill="#ffffff" stroke="none" d="M70 60 c0 -12 -12 -26 -31 -35 l-30
-16 16 31 c9 17 20 28 25 25 6 -4 10 -1 10 4 0 6 2 11 5 11 3 0 5 -9 5 -20z"/>
</g>
</svg>
