<?xml version="1.0" standalone="no"?>
<!DOCTYPE svg PUBLIC "-//W3C//DTD SVG 20010904//EN"
 "http://www.w3.org/TR/2001/REC-SVG-20010904/DTD/svg10.dtd">
<svg version="1.0" xmlns="http://www.w3.org/2000/svg"
 width="32.000000pt" height="32.000000pt" viewBox="0 0 32.000000 32.000000"
 preserveAspectRatio="xMidYMid meet">
<metadata>
Created by potrace 1.16, written by Peter Selinger 2001-2019
</metadata>
<g transform="translate(0.000000,32.000000) scale(0.100000,-0.100000)"
fill="#000000" stroke="none">
<path fill="#000000" stroke="none" d="M0 160 l0 -160 160 0 160 0 0 160 0
160 -160 0 -160 0 0 -160z"/>
<path fill="#ffffff" stroke="none" d="M158 298 c-2 -7 7 -14 20 -16 15 -2 22
2 22 12 0 12 10 16 41 16 l41 0 -23 -18 c-14 -12 -20 -25 -16 -35 9 -24 33
-21 51 5 16 22 16 21 16 -20 0 -31 -4 -42 -16 -42 -10 0 -14 -7 -12 -22 2 -13
9 -22 17 -20 21 4 8 -29 -20 -51 -15 -10 -48 -22 -75 -25 l-48 -5 37 43 c69
81 38 98 -37 20 -27 -27 -52 -50 -57 -50 -5 0 -9 -5 -9 -10 0 -11 -60 -69 -72
-70 -20 0 -1 23 82 106 49 49 90 95 90 102 0 22 -25 13 -68 -24 l-42 -36 0 31
c0 36 16 80 37 103 18 21 44 24 41 6z"/>
</g>
</svg>
