<?xml version="1.0" standalone="no"?>
<!DOCTYPE svg PUBLIC "-//W3C//DTD SVG 20010904//EN"
 "http://www.w3.org/TR/2001/REC-SVG-20010904/DTD/svg10.dtd">
<svg version="1.0" xmlns="http://www.w3.org/2000/svg"
 width="32.000000pt" height="32.000000pt" viewBox="0 0 32.000000 32.000000"
 preserveAspectRatio="xMidYMid meet">
<metadata>
Created by potrace 1.16, written by Peter Selinger 2001-2019
</metadata>
<g transform="translate(0.000000,32.000000) scale(0.100000,-0.100000)"
fill="#000000" stroke="none">
<path fill="#000000" stroke="none" d="M258 294 c-5 -4 -8 -19 -8 -34 0 -15
-10 -40 -22 -56 -13 -15 -16 -24 -9 -19 10 5 12 4 7 -4 -4 -6 -13 -11 -19 -10
-25 3 -35 -2 -41 -18 -6 -16 -6 -16 12 0 10 9 22 14 25 11 7 -7 -38 -54 -50
-54 -4 0 -16 8 -27 17 -20 18 -21 18 -5 -2 9 -11 19 -28 22 -38 5 -14 16 -7
61 42 31 33 58 71 61 84 8 31 2 91 -7 81z"/>
<path fill="#000000" stroke="none" d="M149 173 c-13 -16 -12 -17 4 -4 9 7 17
15 17 17 0 8 -8 3 -21 -13z"/>
<path fill="#000000" stroke="none" d="M89 108 c-3 -14 -6 -60 -2 -51 2 7 10
10 18 7 19 -8 29 14 15 31 -11 13 -29 20 -31 13z"/>
<path fill="#000000" stroke="none" d="M61 44 c0 -11 3 -14 6 -6 3 7 2 16 -1
19 -3 4 -6 -2 -5 -13z"/>
<path fill="#000000" stroke="none" d="M35 29 c-4 -6 -5 -12 -2 -15 2 -3 7 2
10 11 7 17 1 20 -8 4z"/>
</g>
</svg>
