<?xml version="1.0" standalone="no"?>
<!DOCTYPE svg PUBLIC "-//W3C//DTD SVG 20010904//EN"
 "http://www.w3.org/TR/2001/REC-SVG-20010904/DTD/svg10.dtd">
<svg version="1.0" xmlns="http://www.w3.org/2000/svg"
 width="32.000000pt" height="32.000000pt" viewBox="0 0 32.000000 32.000000"
 preserveAspectRatio="xMidYMid meet">
<metadata>
Created by potrace 1.16, written by Peter Selinger 2001-2019
</metadata>
<g transform="translate(0.000000,32.000000) scale(0.100000,-0.100000)"
fill="#000000" stroke="none">
<path fill="#000000" stroke="none" d="M235 270 c-3 -5 -1 -10 4 -10 6 0 11 5
11 10 0 6 -2 10 -4 10 -3 0 -8 -4 -11 -10z"/>
<path fill="#000000" stroke="none" d="M165 190 c-26 -27 -53 -46 -59 -43 -6
4 -5 -1 3 -10 7 -9 16 -17 19 -17 3 0 2 3 -2 7 -3 4 17 31 46 60 29 29 50 53
47 53 -2 0 -27 -22 -54 -50z"/>
<path fill="#000000" stroke="none" d="M233 182 c-3 -12 -8 -22 -12 -22 -4 0
-7 -9 -7 -20 0 -11 3 -20 7 -20 4 0 9 -10 12 -22 10 -35 20 -13 20 42 0 55
-10 77 -20 42z"/>
<path fill="#000000" stroke="none" d="M20 66 c0 -2 8 -10 18 -17 15 -13 16
-12 3 4 -13 16 -21 21 -21 13z"/>
</g>
</svg>
