<?xml version="1.0" standalone="no"?>
<!DOCTYPE svg PUBLIC "-//W3C//DTD SVG 20010904//EN"
 "http://www.w3.org/TR/2001/REC-SVG-20010904/DTD/svg10.dtd">
<svg version="1.0" xmlns="http://www.w3.org/2000/svg"
 width="32.000000pt" height="32.000000pt" viewBox="0 0 32.000000 32.000000"
 preserveAspectRatio="xMidYMid meet">
<metadata>
Created by potrace 1.16, written by Peter Selinger 2001-2019
</metadata>
<g transform="translate(0.000000,32.000000) scale(0.100000,-0.100000)"
fill="#000000" stroke="none">
<path fill="#000000" stroke="none" d="M0 160 l0 -160 160 0 160 0 0 160 0
160 -160 0 -160 0 0 -160z"/>
<path fill="#ffffff" stroke="none" d="M197 222 c-32 -32 -55 -61 -52 -64 3
-3 -1 -11 -10 -18 -9 -7 -19 -10 -22 -6 -6 6 125 146 136 146 3 0 -20 -26 -52
-58z"/>
<path fill="#ffffff" stroke="none" d="M291 256 c17 -36 -7 -78 -51 -91 -19
-6 -46 -16 -60 -23 l-25 -13 25 20 c14 11 40 22 58 26 23 4 36 14 42 31 13 34
13 40 -6 58 -8 9 -11 16 -4 16 6 0 15 -11 21 -24z"/>
<path fill="#ffffff" stroke="none" d="M185 110 c3 -6 -1 -7 -9 -4 -18 7 -21
14 -7 14 6 0 13 -4 16 -10z"/>
<path fill="#ffffff" stroke="none" d="M63 65 c-7 -19 -33 -20 -33 -1 0 15 20
26 32 19 4 -2 5 -10 1 -18z"/>
<path fill="#ffffff" stroke="none" d="M210 65 c0 -14 -5 -25 -11 -25 -5 0 -7
-4 -4 -10 9 -14 -19 -12 -33 2 -16 16 -15 45 1 51 31 13 47 7 47 -18z"/>
<path fill="#000000" stroke="none" d="M167 73 c-15 -14 -6 -25 10 -12 11 10
14 10 9 2 -4 -7 -2 -13 3 -13 6 0 11 7 11 15 0 15 -21 21 -33 8z"/>
</g>
</svg>
