<?xml version="1.0" standalone="no"?>
<!DOCTYPE svg PUBLIC "-//W3C//DTD SVG 20010904//EN"
 "http://www.w3.org/TR/2001/REC-SVG-20010904/DTD/svg10.dtd">
<svg version="1.0" xmlns="http://www.w3.org/2000/svg"
 width="32.000000pt" height="32.000000pt" viewBox="0 0 32.000000 32.000000"
 preserveAspectRatio="xMidYMid meet">
<metadata>
Created by potrace 1.16, written by Peter Selinger 2001-2019
</metadata>
<g transform="translate(0.000000,32.000000) scale(0.100000,-0.100000)"
fill="#000000" stroke="none">
<path fill="#000000" stroke="none" d="M174 210 c-58 -56 -69 -72 -58 -81 10
-8 14 -8 14 -1 0 16 120 142 135 142 19 0 27 -33 16 -63 -7 -18 -20 -28 -43
-32 -18 -4 -44 -15 -58 -26 l-25 -20 25 13 c14 7 41 17 60 23 44 13 68 55 51
91 -6 13 -19 24 -28 24 -10 0 -50 -32 -89 -70z"/>
<path fill="#000000" stroke="none" d="M80 110 c-8 -11 -22 -23 -32 -26 -22
-7 -24 -34 -3 -34 8 0 15 3 15 8 0 4 11 20 25 36 27 31 29 36 17 36 -4 0 -14
-9 -22 -20z"/>
<path fill="#000000" stroke="none" d="M170 110 c9 -6 10 -10 3 -10 -21 0 -35
-37 -23 -60 22 -41 91 -10 74 34 -6 15 -47 46 -61 46 -4 0 -1 -5 7 -10z"/>
</g>
</svg>
