<?xml version="1.0" standalone="no"?>
<!DOCTYPE svg PUBLIC "-//W3C//DTD SVG 20010904//EN"
 "http://www.w3.org/TR/2001/REC-SVG-20010904/DTD/svg10.dtd">
<svg version="1.0" xmlns="http://www.w3.org/2000/svg"
 width="32.000000pt" height="32.000000pt" viewBox="0 0 32.000000 32.000000"
 preserveAspectRatio="xMidYMid meet">
<metadata>
Created by potrace 1.16, written by Peter Selinger 2001-2019
</metadata>
<g transform="translate(0.000000,32.000000) scale(0.100000,-0.100000)"
fill="#000000" stroke="none">
<path fill="#000000" stroke="none" d="M0 160 l0 -160 160 0 160 0 0 160 0
160 -160 0 -160 0 0 -160z"/>
<path fill="#ffffff" stroke="none" d="M264 268 c-3 -4 -9 -8 -15 -8 -5 0 -9
4 -9 8 0 5 7 9 15 9 8 0 12 -4 9 -9z"/>
<path fill="#ffffff" stroke="none" d="M220 237 c0 -1 -31 -33 -69 -71 -48
-48 -71 -64 -76 -55 -5 7 -4 10 2 6 5 -3 38 23 73 58 60 61 70 69 70 62z"/>
<path fill="#ffffff" stroke="none" d="M248 140 c0 -33 -4 -57 -9 -54 -16 10
-10 114 6 114 2 0 3 -27 3 -60z"/>
</g>
</svg>
