<?xml version="1.0" standalone="no"?>
<!DOCTYPE svg PUBLIC "-//W3C//DTD SVG 20010904//EN"
 "http://www.w3.org/TR/2001/REC-SVG-20010904/DTD/svg10.dtd">
<svg version="1.0" xmlns="http://www.w3.org/2000/svg"
 width="32.000000pt" height="32.000000pt" viewBox="0 0 32.000000 32.000000"
 preserveAspectRatio="xMidYMid meet">
<metadata>
Created by potrace 1.16, written by Peter Selinger 2001-2019
</metadata>
<g transform="translate(0.000000,32.000000) scale(0.100000,-0.100000)"
fill="#000000" stroke="none">
<path fill="#000000" stroke="none" d="M0 160 l0 -160 160 0 160 0 0 160 0
160 -160 0 -160 0 0 -160z"/>
<path fill="#ffffff" stroke="none" d="M275 270 c3 -5 0 -22 -8 -37 -8 -16
-13 -54 -12 -86 1 -62 -5 -76 -25 -52 -21 25 -17 57 12 111 31 56 35 72 14 55
-14 -12 -32 0 -19 13 10 9 31 7 38 -4z"/>
<path fill="#ffffff" stroke="none" d="M219 233 c-46 -61 -98 -110 -107 -101
-7 7 10 29 50 64 62 55 81 67 57 37z"/>
<path fill="#ffffff" stroke="none" d="M97 108 c-3 -8 -6 -5 -6 6 -1 11 2 17
5 13 3 -3 4 -12 1 -19z"/>
<path fill="#ffffff" stroke="none" d="M77 88 c-3 -8 -6 -5 -6 6 -1 11 2 17 5
13 3 -3 4 -12 1 -19z"/>
<path fill="#ffffff" stroke="none" d="M52 55 c-8 -15 -10 -15 -22 0 -11 13
-10 15 4 9 11 -4 16 -1 17 12 0 11 3 14 5 7 3 -7 1 -19 -4 -28z"/>
</g>
</svg>
