<?xml version="1.0" standalone="no"?>
<!DOCTYPE svg PUBLIC "-//W3C//DTD SVG 20010904//EN"
 "http://www.w3.org/TR/2001/REC-SVG-20010904/DTD/svg10.dtd">
<svg version="1.0" xmlns="http://www.w3.org/2000/svg"
 width="32.000000pt" height="32.000000pt" viewBox="0 0 32.000000 32.000000"
 preserveAspectRatio="xMidYMid meet">
<metadata>
Created by potrace 1.16, written by Peter Selinger 2001-2019
</metadata>
<g transform="translate(0.000000,32.000000) scale(0.100000,-0.100000)"
fill="#000000" stroke="none">
<path fill="#000000" stroke="none" d="M199 272 c-36 -23 -74 -70 -92 -113
-15 -36 -68 -97 -77 -89 -3 3 -6 -5 -8 -16 -3 -18 2 -22 21 -20 14 0 23 6 20
11 -6 16 43 58 58 50 8 -5 10 -4 5 3 -4 7 3 17 18 24 14 6 26 15 26 20 0 5 -5
6 -12 2 -7 -4 -8 -3 -4 5 4 6 16 9 26 6 10 -3 22 0 26 6 5 8 3 9 -5 4 -9 -5
-9 -2 0 14 8 11 16 17 19 13 8 -10 32 -14 26 -4 -3 5 4 19 15 30 11 12 16 22
12 22 -4 0 -1 5 7 10 13 9 12 12 -4 25 -25 19 -44 18 -77 -3z"/>
<path fill="#000000" stroke="none" d="M84 68 l-19 -23 23 19 c21 18 27 26 19
26 -2 0 -12 -10 -23 -22z"/>
</g>
</svg>
