<?xml version="1.0" standalone="no"?>
<!DOCTYPE svg PUBLIC "-//W3C//DTD SVG 20010904//EN"
 "http://www.w3.org/TR/2001/REC-SVG-20010904/DTD/svg10.dtd">
<svg version="1.0" xmlns="http://www.w3.org/2000/svg"
 width="32.000000pt" height="32.000000pt" viewBox="0 0 32.000000 32.000000"
 preserveAspectRatio="xMidYMid meet">
<metadata>
Created by potrace 1.16, written by Peter Selinger 2001-2019
</metadata>
<g transform="translate(0.000000,32.000000) scale(0.100000,-0.100000)"
fill="#000000" stroke="none">
<path fill="#000000" stroke="none" d="M182 283 c5 -18 2 -23 -14 -23 -13 0
-18 -5 -15 -14 8 -19 -3 -28 -19 -15 -10 8 -13 3 -12 -23 1 -42 15 -60 42 -53
12 3 15 2 9 -1 -21 -9 -15 -23 7 -17 12 3 29 -2 42 -13 20 -19 21 -19 14 4 -7
21 0 27 30 23 7 -1 9 9 6 25 -3 18 -1 25 9 22 8 -1 15 2 17 7 1 6 -3 10 -9 10
-7 0 -16 11 -21 24 -7 21 -6 22 7 11 21 -18 19 3 -3 23 -11 10 -26 14 -40 10
-12 -3 -30 1 -39 8 -15 12 -16 12 -11 -8z"/>
<path fill="#ffffff" stroke="none" d="M223 163 c-6 -15 -19 -17 -27 -4 -7 11
0 18 18 18 8 0 12 -6 9 -14z"/>
<path fill="#000000" stroke="none" d="M104 156 c-11 -29 44 -74 60 -48 3 5
-8 22 -24 37 -26 25 -30 26 -36 11z"/>
<path fill="#000000" stroke="none" d="M55 90 c-32 -33 -36 -42 -25 -55 7 -8
17 -15 22 -15 6 0 5 7 -2 15 -7 8 -8 15 -2 15 14 0 64 68 54 74 -5 3 -26 -12
-47 -34z"/>
<path fill="#000000" stroke="none" d="M100 85 c-11 -13 -10 -14 4 -9 9 3 16
10 16 15 0 13 -6 11 -20 -6z"/>
</g>
</svg>
