<?xml version="1.0" standalone="no"?>
<!DOCTYPE svg PUBLIC "-//W3C//DTD SVG 20010904//EN"
 "http://www.w3.org/TR/2001/REC-SVG-20010904/DTD/svg10.dtd">
<svg version="1.0" xmlns="http://www.w3.org/2000/svg"
 width="32.000000pt" height="32.000000pt" viewBox="0 0 32.000000 32.000000"
 preserveAspectRatio="xMidYMid meet">
<metadata>
Created by potrace 1.16, written by Peter Selinger 2001-2019
</metadata>
<g transform="translate(0.000000,32.000000) scale(0.100000,-0.100000)"
fill="#000000" stroke="none">
<path fill="#000000" stroke="none" d="M0 160 l0 -160 160 0 160 0 0 160 0
160 -160 0 -160 0 0 -160z"/>
<path fill="#ffffff" stroke="none" d="M255 270 c4 0 3 4 0 10 -3 5 0 7 9 4
14 -5 12 -34 -3 -34 -20 1 -43 31 -36 47 6 16 8 16 16 -4 4 -13 11 -23 14 -23z"/>
<path fill="#ffffff" stroke="none" d="M210 269 c0 -5 -7 -6 -15 -3 -8 4 -15
13 -15 21 0 13 3 13 15 3 8 -7 15 -16 15 -21z"/>
<path fill="#ffffff" stroke="none" d="M176 243 c13 -17 14 -17 8 2 -6 16 -4
18 6 8 9 -8 19 -9 32 -2 12 6 18 6 18 -1 0 -5 7 -10 16 -10 8 0 12 -4 9 -10
-3 -5 -1 -11 4 -11 6 -1 16 -3 21 -4 6 -1 13 -3 16 -4 3 0 2 -5 -1 -11 -3 -6
-23 1 -47 16 -22 14 -37 21 -34 16 3 -5 -1 -15 -9 -22 -13 -11 -15 -10 -9 6 5
18 5 18 -10 0 -10 -12 -12 -23 -6 -31 5 -6 5 -17 1 -24 -6 -9 -10 -6 -16 11
-8 23 -8 23 -12 1 -2 -12 -12 -27 -21 -35 -15 -12 -16 -11 -4 4 8 9 11 22 8
27 -4 5 4 17 16 25 17 12 18 16 7 21 -8 3 -15 14 -16 25 -2 25 6 25 23 3z"/>
<path fill="#ffffff" stroke="none" d="M138 196 c-13 -13 -15 -11 -16 16 -1
28 1 30 15 15 14 -14 14 -17 1 -31z"/>
<path fill="#ffffff" stroke="none" d="M270 165 c7 -8 8 -15 2 -15 -5 0 -15 7
-22 15 -7 8 -8 15 -2 15 5 0 15 -7 22 -15z"/>
<path fill="#ffffff" stroke="none" d="M240 118 c0 -6 -7 -5 -15 2 -8 7 -15
17 -15 22 0 6 7 5 15 -2 8 -7 15 -17 15 -22z"/>
<path fill="#ffffff" stroke="none" d="M117 126 c-3 -7 0 -19 6 -25 6 -6 9
-11 6 -11 -3 0 -14 10 -25 22 -10 12 -13 18 -6 14 6 -4 12 -2 12 3 0 6 3 11 6
11 3 0 4 -6 1 -14z"/>
<path fill="#ffffff" stroke="none" d="M55 51 l20 -24 -22 14 c-13 8 -23 20
-23 28 0 8 1 12 3 10 1 -2 11 -15 22 -28z"/>
</g>
</svg>
