<?xml version="1.0" standalone="no"?>
<!DOCTYPE svg PUBLIC "-//W3C//DTD SVG 20010904//EN"
 "http://www.w3.org/TR/2001/REC-SVG-20010904/DTD/svg10.dtd">
<svg version="1.0" xmlns="http://www.w3.org/2000/svg"
 width="32.000000pt" height="32.000000pt" viewBox="0 0 32.000000 32.000000"
 preserveAspectRatio="xMidYMid meet">
<metadata>
Created by potrace 1.16, written by Peter Selinger 2001-2019
</metadata>
<g transform="translate(0.000000,32.000000) scale(0.100000,-0.100000)"
fill="#000000" stroke="none">
<path fill="#000000" stroke="none" d="M169 250 c-65 -69 -97 -139 -81 -173 7
-15 11 -17 11 -7 1 9 10 16 21 17 57 5 190 120 190 166 0 13 -8 31 -18 40 -34
31 -63 21 -123 -43z"/>
<path fill="#000000" stroke="none" d="M60 85 c0 -11 5 -27 10 -35 8 -12 10
-12 10 5 0 11 -5 27 -10 35 -8 12 -10 12 -10 -5z"/>
<path fill="#000000" stroke="none" d="M41 68 c-1 -12 -6 -15 -17 -11 -12 4
-15 0 -12 -18 4 -28 35 -38 44 -14 4 9 2 26 -4 38 -8 17 -11 18 -11 5z"/>
</g>
</svg>
