<?xml version="1.0" standalone="no"?>
<!DOCTYPE svg PUBLIC "-//W3C//DTD SVG 20010904//EN"
 "http://www.w3.org/TR/2001/REC-SVG-20010904/DTD/svg10.dtd">
<svg version="1.0" xmlns="http://www.w3.org/2000/svg"
 width="32.000000pt" height="32.000000pt" viewBox="0 0 32.000000 32.000000"
 preserveAspectRatio="xMidYMid meet">
<metadata>
Created by potrace 1.16, written by Peter Selinger 2001-2019
</metadata>
<g transform="translate(0.000000,32.000000) scale(0.100000,-0.100000)"
fill="#000000" stroke="none">
<path fill="#000000" stroke="none" d="M0 160 l0 -160 160 0 160 0 0 160 0
160 -160 0 -160 0 0 -160z"/>
<path fill="#ffffff" stroke="none" d="M269 281 c18 -10 22 -19 19 -41 -2 -16
-2 -28 1 -27 3 1 7 -2 9 -8 1 -5 -4 -10 -10 -10 -7 0 -13 -11 -12 -23 0 -14
-4 -21 -11 -18 -18 6 -34 -14 -27 -33 5 -14 3 -14 -11 -2 -14 11 -23 10 -59
-8 -39 -19 -43 -19 -60 -5 -16 15 -16 19 -1 48 9 17 16 43 15 59 -1 22 2 26
12 18 16 -13 27 -4 19 15 -3 9 2 14 15 14 16 0 19 5 14 23 -5 20 -4 21 12 7
16 -12 19 -12 28 4 6 10 13 14 17 9 3 -6 17 -16 30 -22z"/>
<path fill="#ffffff" stroke="none" d="M103 96 c7 -18 -23 -45 -43 -38 -13 4
-13 3 -1 -11 11 -14 11 -18 -4 -23 -9 -4 -21 -2 -27 4 -12 12 -6 48 9 45 6 -1
19 7 28 17 21 24 31 25 38 6z"/>
<path fill="#000000" stroke="none" d="M85 80 c-4 -6 -11 -7 -17 -4 -7 4 -8 2
-4 -5 6 -9 11 -9 22 0 14 11 18 19 10 19 -3 0 -8 -5 -11 -10z"/>
</g>
</svg>
