<?xml version="1.0" standalone="no"?>
<!DOCTYPE svg PUBLIC "-//W3C//DTD SVG 20010904//EN"
 "http://www.w3.org/TR/2001/REC-SVG-20010904/DTD/svg10.dtd">
<svg version="1.0" xmlns="http://www.w3.org/2000/svg"
 width="32.000000pt" height="32.000000pt" viewBox="0 0 32.000000 32.000000"
 preserveAspectRatio="xMidYMid meet">
<metadata>
Created by potrace 1.16, written by Peter Selinger 2001-2019
</metadata>
<g transform="translate(0.000000,32.000000) scale(0.100000,-0.100000)"
fill="#000000" stroke="none">
<path fill="#000000" stroke="none" d="M278 280 c-17 -39 -42 -65 -56 -56 -9
5 -31 -14 -47 -42 -6 -11 -3 -12 14 -3 19 11 21 9 21 -16 l0 -27 30 29 c33 31
64 103 58 131 -3 15 -8 11 -20 -16z"/>
<path fill="#000000" stroke="none" d="M131 136 c0 -12 3 -15 6 -8 2 6 8 10
12 8 4 -3 8 1 8 8 0 7 -6 13 -14 13 -7 0 -13 -10 -12 -21z"/>
<path fill="#000000" stroke="none" d="M111 114 c0 -11 3 -14 6 -6 3 7 2 16
-1 19 -3 4 -6 -2 -5 -13z"/>
<path fill="#000000" stroke="none" d="M91 94 c0 -11 3 -14 6 -6 3 7 2 16 -1
19 -3 4 -6 -2 -5 -13z"/>
<path fill="#000000" stroke="none" d="M71 74 c0 -11 3 -14 6 -6 3 7 2 16 -1
19 -3 4 -6 -2 -5 -13z"/>
<path fill="#000000" stroke="none" d="M50 59 c0 -5 -5 -7 -12 -3 -6 4 -8 3
-4 -4 3 -6 -2 -15 -11 -21 -10 -5 -14 -13 -10 -18 5 -4 13 0 18 10 6 9 14 15
20 12 5 -4 9 3 9 14 0 12 -2 21 -5 21 -3 0 -5 -5 -5 -11z"/>
</g>
</svg>
