<?xml version="1.0" standalone="no"?>
<!DOCTYPE svg PUBLIC "-//W3C//DTD SVG 20010904//EN"
 "http://www.w3.org/TR/2001/REC-SVG-20010904/DTD/svg10.dtd">
<svg version="1.0" xmlns="http://www.w3.org/2000/svg"
 width="32.000000pt" height="32.000000pt" viewBox="0 0 32.000000 32.000000"
 preserveAspectRatio="xMidYMid meet">
<metadata>
Created by potrace 1.16, written by Peter Selinger 2001-2019
</metadata>
<g transform="translate(0.000000,32.000000) scale(0.100000,-0.100000)"
fill="#000000" stroke="none">
<path fill="#000000" stroke="none" d="M0 160 l0 -160 160 0 160 0 0 160 0
160 -160 0 -160 0 0 -160z"/>
<path fill="#ffffff" stroke="none" d="M300 288 c-1 -39 -36 -104 -69 -127
l-32 -23 7 27 c6 26 6 26 -17 13 -35 -20 -49 -35 -41 -43 4 -5 1 -5 -5 -1 -8
5 -13 1 -14 -11 0 -11 -3 -13 -6 -5 -3 7 16 35 41 62 25 27 46 55 46 62 0 9 3
9 10 -2 5 -8 7 -24 3 -35 -6 -20 -5 -20 15 -1 30 26 49 86 31 97 -10 6 -8 9 9
9 16 0 22 -6 22 -22z"/>
<path fill="#ffffff" stroke="none" d="M106 105 c-1 -8 -5 -17 -8 -21 -5 -4
-4 16 1 34 3 9 9 -1 7 -13z"/>
<path fill="#ffffff" stroke="none" d="M78 73 c-2 -9 -11 -17 -21 -19 -9 -1
-15 2 -11 7 3 5 10 7 15 4 5 -4 9 1 9 9 0 9 3 16 6 16 3 0 4 -7 2 -17z"/>
<path fill="#ffffff" stroke="none" d="M33 23 c-9 -23 -20 -14 -15 13 3 17 7
22 12 13 5 -7 6 -18 3 -26z"/>
</g>
</svg>
