<?xml version="1.0" standalone="no"?>
<!DOCTYPE svg PUBLIC "-//W3C//DTD SVG 20010904//EN"
 "http://www.w3.org/TR/2001/REC-SVG-20010904/DTD/svg10.dtd">
<svg version="1.0" xmlns="http://www.w3.org/2000/svg"
 width="32.000000pt" height="32.000000pt" viewBox="0 0 32.000000 32.000000"
 preserveAspectRatio="xMidYMid meet">
<metadata>
Created by potrace 1.16, written by Peter Selinger 2001-2019
</metadata>
<g transform="translate(0.000000,32.000000) scale(0.100000,-0.100000)"
fill="#000000" stroke="none">
<path fill="#000000" stroke="none" d="M273 299 c9 -5 17 -17 17 -25 0 -8 -4
-12 -10 -9 -5 3 -10 0 -10 -8 0 -8 -9 -26 -21 -41 -11 -14 -17 -26 -13 -26 4
0 -2 -9 -14 -20 -32 -30 -27 -35 9 -9 33 23 68 89 69 127 0 16 -6 22 -22 22
-21 -1 -21 -2 -5 -11z"/>
<path fill="#000000" stroke="none" d="M210 237 c0 -8 -9 -22 -20 -32 -22 -20
-28 -44 -6 -26 7 6 22 8 31 4 14 -5 16 -3 9 8 -4 8 -7 24 -5 37 1 12 0 22 -3
22 -3 0 -6 -6 -6 -13z"/>
<path fill="#000000" stroke="none" d="M18 35 c-4 -20 -2 -23 8 -14 7 6 10 17
7 25 -7 20 -10 18 -15 -11z"/>
</g>
</svg>
