<?xml version="1.0" standalone="no"?>
<!DOCTYPE svg PUBLIC "-//W3C//DTD SVG 20010904//EN"
 "http://www.w3.org/TR/2001/REC-SVG-20010904/DTD/svg10.dtd">
<svg version="1.0" xmlns="http://www.w3.org/2000/svg"
 width="32.000000pt" height="32.000000pt" viewBox="0 0 32.000000 32.000000"
 preserveAspectRatio="xMidYMid meet">
<metadata>
Created by potrace 1.16, written by Peter Selinger 2001-2019
</metadata>
<g transform="translate(0.000000,32.000000) scale(0.100000,-0.100000)"
fill="#000000" stroke="none">
<path fill="#000000" stroke="none" d="M263 296 c-13 -6 -23 -16 -23 -22 0
-22 -89 -94 -115 -94 -15 0 -25 -6 -25 -15 0 -7 -6 -18 -14 -22 -10 -6 -6 -14
18 -33 16 -14 27 -19 22 -12 -9 14 31 65 44 57 4 -3 7 5 6 18 -1 13 4 21 12
19 6 -1 11 2 10 7 -3 11 80 101 93 101 18 0 8 -19 -33 -61 -24 -24 -31 -33
-17 -21 14 12 29 22 35 22 9 0 34 46 34 62 0 11 -20 8 -47 -6z"/>
<path fill="#ffffff" stroke="none" d="M142 148 c-20 -21 -35 -29 -41 -23 -12
13 8 41 34 48 39 9 39 7 7 -25z"/>
<path fill="#000000" stroke="none" d="M41 157 c-8 -10 -7 -14 2 -14 8 0 14 6
14 14 0 7 -1 13 -2 13 -2 0 -8 -6 -14 -13z"/>
<path fill="#000000" stroke="none" d="M170 129 c0 -7 -8 -18 -17 -25 -16 -12
-16 -12 5 -7 13 3 22 13 22 24 0 11 -2 19 -5 19 -3 0 -5 -5 -5 -11z"/>
<path fill="#000000" stroke="none" d="M16 32 c-3 -5 1 -9 9 -9 8 0 12 4 9 9
-3 4 -7 8 -9 8 -2 0 -6 -4 -9 -8z"/>
</g>
</svg>
