<?xml version="1.0" standalone="no"?>
<!DOCTYPE svg PUBLIC "-//W3C//DTD SVG 20010904//EN"
 "http://www.w3.org/TR/2001/REC-SVG-20010904/DTD/svg10.dtd">
<svg version="1.0" xmlns="http://www.w3.org/2000/svg"
 width="32.000000pt" height="32.000000pt" viewBox="0 0 32.000000 32.000000"
 preserveAspectRatio="xMidYMid meet">
<metadata>
Created by potrace 1.16, written by Peter Selinger 2001-2019
</metadata>
<g transform="translate(0.000000,32.000000) scale(0.100000,-0.100000)"
fill="#000000" stroke="none">
<path fill="#000000" stroke="none" d="M0 160 l0 -160 160 0 160 0 0 160 0
160 -160 0 -160 0 0 -160z"/>
<path fill="#ffffff" stroke="none" d="M310 298 c0 -6 -41 -53 -91 -105 -81
-83 -89 -96 -74 -106 15 -12 15 -13 -4 -13 -11 0 -18 2 -15 5 6 6 -37 51 -45
46 -4 -2 -7 5 -7 15 0 14 4 16 12 9 9 -7 38 14 103 75 84 80 121 103 121 74z"/>
<path fill="#ffffff" stroke="none" d="M38 28 c-5 -15 -23 -11 -26 6 -2 11 2
14 13 10 9 -4 14 -11 13 -16z"/>
<path fill="#000000" stroke="none" d="M195 211 c-59 -57 -87 -91 -80 -97 6
-6 41 24 98 83 49 50 84 93 80 96 -5 3 -49 -34 -98 -82z"/>
<path fill="#ffffff" stroke="none" d="M200 197 c0 -2 -19 -21 -42 -42 l-43
-40 40 43 c36 39 45 47 45 39z"/>
</g>
</svg>
