<?xml version="1.0" standalone="no"?>
<!DOCTYPE svg PUBLIC "-//W3C//DTD SVG 20010904//EN"
 "http://www.w3.org/TR/2001/REC-SVG-20010904/DTD/svg10.dtd">
<svg version="1.0" xmlns="http://www.w3.org/2000/svg"
 width="32.000000pt" height="32.000000pt" viewBox="0 0 32.000000 32.000000"
 preserveAspectRatio="xMidYMid meet">
<metadata>
Created by potrace 1.16, written by Peter Selinger 2001-2019
</metadata>
<g transform="translate(0.000000,32.000000) scale(0.100000,-0.100000)"
fill="#000000" stroke="none">
<path fill="#000000" stroke="none" d="M189 224 c-65 -61 -94 -82 -103 -75 -8
7 -12 5 -12 -9 0 -10 3 -17 7 -15 8 5 51 -40 45 -46 -3 -3 4 -5 15 -5 18 0 18
2 5 12 -14 9 -3 24 74 101 86 85 109 123 75 123 -9 0 -57 -39 -106 -86z"/>
<path fill="#ffffff" stroke="none" d="M244 229 c-20 -21 -41 -36 -47 -32 -5
3 8 23 29 44 20 21 41 36 47 32 5 -3 -8 -23 -29 -44z"/>
<path fill="#ffffff" stroke="none" d="M158 141 c-24 -29 -35 -35 -44 -27 -9
8 -3 19 25 42 48 42 59 33 19 -15z"/>
<path fill="#000000" stroke="none" d="M239 243 l-24 -28 28 24 c25 23 32 31
24 31 -2 0 -14 -12 -28 -27z"/>
<path fill="#000000" stroke="none" d="M144 148 l-29 -33 33 29 c17 17 32 31
32 33 0 8 -8 1 -36 -29z"/>
<path fill="#000000" stroke="none" d="M12 34 c3 -17 21 -21 26 -6 1 5 -4 12
-13 16 -11 4 -15 1 -13 -10z"/>
</g>
</svg>
