<?xml version="1.0" standalone="no"?>
<!DOCTYPE svg PUBLIC "-//W3C//DTD SVG 20010904//EN"
 "http://www.w3.org/TR/2001/REC-SVG-20010904/DTD/svg10.dtd">
<svg version="1.0" xmlns="http://www.w3.org/2000/svg"
 width="32.000000pt" height="32.000000pt" viewBox="0 0 32.000000 32.000000"
 preserveAspectRatio="xMidYMid meet">
<metadata>
Created by potrace 1.16, written by Peter Selinger 2001-2019
</metadata>
<g transform="translate(0.000000,32.000000) scale(0.100000,-0.100000)"
fill="#000000" stroke="none">
<path fill="#000000" stroke="none" d="M274 286 c-10 -8 -16 -17 -13 -20 3 -3
14 3 24 14 21 23 17 26 -11 6z"/>
<path fill="#000000" stroke="none" d="M210 276 c0 -2 8 -10 18 -17 15 -13 16
-12 3 4 -13 16 -21 21 -21 13z"/>
<path fill="#000000" stroke="none" d="M215 220 c-10 -11 -23 -17 -29 -13 -6
4 -5 -1 3 -10 7 -9 16 -17 19 -17 3 0 2 3 -1 7 -4 3 3 17 15 30 12 13 19 23
16 23 -3 0 -13 -9 -23 -20z"/>
<path fill="#000000" stroke="none" d="M278 220 c5 -13 3 -13 -11 -1 -15 12
-17 12 -11 -4 4 -10 1 -21 -7 -26 -12 -7 -11 -9 2 -9 14 0 59 39 59 51 0 3 -8
5 -19 5 -13 0 -17 -5 -13 -16z"/>
</g>
</svg>
