<?xml version="1.0" standalone="no"?>
<!DOCTYPE svg PUBLIC "-//W3C//DTD SVG 20010904//EN"
 "http://www.w3.org/TR/2001/REC-SVG-20010904/DTD/svg10.dtd">
<svg version="1.0" xmlns="http://www.w3.org/2000/svg"
 width="32.000000pt" height="32.000000pt" viewBox="0 0 32.000000 32.000000"
 preserveAspectRatio="xMidYMid meet">
<metadata>
Created by potrace 1.16, written by Peter Selinger 2001-2019
</metadata>
<g transform="translate(0.000000,32.000000) scale(0.100000,-0.100000)"
fill="#000000" stroke="none">
<path fill="#000000" stroke="none" d="M270 285 c-7 -9 -10 -18 -7 -22 8 -7
37 15 37 28 0 14 -16 11 -30 -6z"/>
<path fill="#000000" stroke="none" d="M158 253 c6 -2 18 -2 25 0 6 3 1 5 -13
5 -14 0 -19 -2 -12 -5z"/>
<path fill="#000000" stroke="none" d="M189 206 c-35 -38 -30 -47 8 -12 27 25
59 38 35 14 -7 -7 -12 -28 -12 -47 l0 -36 20 32 c10 17 30 38 44 45 26 13 26
14 -20 24 -44 10 -47 10 -75 -20z"/>
<path fill="#000000" stroke="none" d="M17 33 c-4 -3 -7 -11 -7 -17 0 -6 5 -5
12 2 6 6 9 14 7 17 -3 3 -9 2 -12 -2z"/>
</g>
</svg>
