<?xml version="1.0" standalone="no"?>
<!DOCTYPE svg PUBLIC "-//W3C//DTD SVG 20010904//EN"
 "http://www.w3.org/TR/2001/REC-SVG-20010904/DTD/svg10.dtd">
<svg version="1.0" xmlns="http://www.w3.org/2000/svg"
 width="32.000000pt" height="32.000000pt" viewBox="0 0 32.000000 32.000000"
 preserveAspectRatio="xMidYMid meet">
<metadata>
Created by potrace 1.16, written by Peter Selinger 2001-2019
</metadata>
<g transform="translate(0.000000,32.000000) scale(0.100000,-0.100000)"
fill="#000000" stroke="none">
<path fill="#000000" stroke="none" d="M0 160 l0 -160 160 0 160 0 0 160 0
160 -160 0 -160 0 0 -160z"/>
<path fill="#ffffff" stroke="none" d="M300 293 c0 -4 -12 -19 -27 -35 l-27
-28 33 -6 32 -7 -31 -18 c-17 -11 -36 -31 -43 -46 l-12 -27 -5 38 -5 38 -35
-33 c-19 -19 -38 -33 -42 -31 -5 1 -8 -5 -8 -14 0 -8 -5 -12 -10 -9 -5 3 -10
-1 -10 -10 0 -9 -4 -13 -10 -10 -5 3 -10 -1 -10 -10 0 -9 -4 -13 -10 -10 -5 3
-10 2 -10 -4 0 -15 -49 -65 -56 -58 -4 4 37 50 90 104 l97 98 -26 23 -26 22
23 0 c13 0 29 -5 35 -11 8 -8 20 -2 44 20 34 30 49 38 49 24z"/>
</g>
</svg>
