<?xml version="1.0" standalone="no"?>
<!DOCTYPE svg PUBLIC "-//W3C//DTD SVG 20010904//EN"
 "http://www.w3.org/TR/2001/REC-SVG-20010904/DTD/svg10.dtd">
<svg version="1.0" xmlns="http://www.w3.org/2000/svg"
 width="32.000000pt" height="32.000000pt" viewBox="0 0 32.000000 32.000000"
 preserveAspectRatio="xMidYMid meet">
<metadata>
Created by potrace 1.16, written by Peter Selinger 2001-2019
</metadata>
<g transform="translate(0.000000,32.000000) scale(0.100000,-0.100000)"
fill="#000000" stroke="none">
<path fill="#000000" stroke="none" d="M159 263 l-24 -28 28 24 c25 23 32 31
24 31 -2 0 -14 -12 -28 -27z"/>
<path fill="#000000" stroke="none" d="M240 240 c0 -5 5 -10 11 -10 5 0 7 5 4
10 -3 6 -8 10 -11 10 -2 0 -4 -4 -4 -10z"/>
<path fill="#000000" stroke="none" d="M204 219 c-10 -17 13 -36 27 -22 12 12
4 33 -11 33 -5 0 -12 -5 -16 -11z"/>
<path fill="#000000" stroke="none" d="M122 129 c2 -7 10 -15 17 -17 8 -3 12
1 9 9 -2 7 -10 15 -17 17 -8 3 -12 -1 -9 -9z"/>
<path fill="#000000" stroke="none" d="M40 52 c0 -12 19 -26 26 -19 2 2 -2 10
-11 17 -9 8 -15 8 -15 2z"/>
</g>
</svg>
