<?xml version="1.0" standalone="no"?>
<!DOCTYPE svg PUBLIC "-//W3C//DTD SVG 20010904//EN"
 "http://www.w3.org/TR/2001/REC-SVG-20010904/DTD/svg10.dtd">
<svg version="1.0" xmlns="http://www.w3.org/2000/svg"
 width="32.000000pt" height="32.000000pt" viewBox="0 0 32.000000 32.000000"
 preserveAspectRatio="xMidYMid meet">
<metadata>
Created by potrace 1.16, written by Peter Selinger 2001-2019
</metadata>
<g transform="translate(0.000000,32.000000) scale(0.100000,-0.100000)"
fill="#000000" stroke="none">
<path fill="#000000" stroke="none" d="M241 282 c3 -21 -2 -32 -13 -26 -6 4
-8 3 -4 -4 3 -6 2 -13 -4 -17 -7 -4 -3 -17 10 -35 17 -24 18 -29 5 -34 -8 -3
-15 -1 -15 5 0 6 -5 7 -11 4 -6 -4 -8 -10 -5 -13 3 -3 -1 -14 -11 -24 -19 -21
-16 -21 55 -5 l52 12 -39 39 c-22 22 -38 43 -35 48 3 4 10 5 16 2 7 -4 8 -2 4
4 -6 11 5 16 26 13 13 -2 -3 27 -18 33 -7 3 -13 2 -13 -2z"/>
<path fill="#000000" stroke="none" d="M170 238 c0 -12 3 -17 8 -12 4 5 11 12
15 15 5 3 2 9 -7 12 -12 5 -16 0 -16 -15z"/>
<path fill="#000000" stroke="none" d="M145 160 c-10 -11 -23 -17 -29 -13 -6
4 -5 -1 3 -10 7 -9 16 -17 19 -17 3 0 2 3 -1 7 -4 3 3 17 15 30 12 13 19 23
16 23 -3 0 -13 -9 -23 -20z"/>
<path fill="#000000" stroke="none" d="M55 80 c6 -9 -7 -14 -27 -11 -4 0 -5
-6 -2 -13 6 -15 35 -31 33 -18 -4 22 2 32 14 26 8 -5 8 -2 -2 9 -15 18 -26 23
-16 7z"/>
</g>
</svg>
