<?xml version="1.0" standalone="no"?>
<!DOCTYPE svg PUBLIC "-//W3C//DTD SVG 20010904//EN"
 "http://www.w3.org/TR/2001/REC-SVG-20010904/DTD/svg10.dtd">
<svg version="1.0" xmlns="http://www.w3.org/2000/svg"
 width="32.000000pt" height="32.000000pt" viewBox="0 0 32.000000 32.000000"
 preserveAspectRatio="xMidYMid meet">
<metadata>
Created by potrace 1.16, written by Peter Selinger 2001-2019
</metadata>
<g transform="translate(0.000000,32.000000) scale(0.100000,-0.100000)"
fill="#000000" stroke="none">
<path fill="#000000" stroke="none" d="M0 160 l0 -160 160 0 160 0 0 160 0
160 -160 0 -160 0 0 -160z"/>
<path fill="#ffffff" stroke="none" d="M268 278 c15 -15 15 -28 1 -28 -6 0
-17 -7 -26 -16 -14 -14 -12 -19 21 -53 l37 -38 -38 -7 c-21 -3 -49 -9 -63 -13
-23 -6 -24 -5 -11 11 11 13 12 19 2 29 -10 9 -18 6 -37 -16 -13 -16 -28 -26
-33 -22 -5 3 -12 -3 -14 -12 -4 -17 -5 -17 -6 -1 0 10 15 32 34 49 27 25 35
40 35 66 0 31 2 33 20 23 16 -8 24 -8 35 4 8 8 15 19 15 25 0 14 13 14 28 -1z"/>
<path fill="#ffffff" stroke="none" d="M85 81 c-3 -12 -11 -21 -16 -21 -5 0
-9 -7 -9 -15 0 -18 -12 -19 -28 -3 -16 16 -15 28 3 28 8 0 15 5 15 11 0 6 7 9
15 5 10 -3 15 1 15 11 0 9 3 14 6 10 3 -3 3 -15 -1 -26z"/>
<path fill="#000000" stroke="none" d="M225 170 c-3 -6 1 -7 9 -4 18 7 21 14
7 14 -6 0 -13 -4 -16 -10z"/>
</g>
</svg>
