<?xml version="1.0" standalone="no"?>
<!DOCTYPE svg PUBLIC "-//W3C//DTD SVG 20010904//EN"
 "http://www.w3.org/TR/2001/REC-SVG-20010904/DTD/svg10.dtd">
<svg version="1.0" xmlns="http://www.w3.org/2000/svg"
 width="32.000000pt" height="32.000000pt" viewBox="0 0 32.000000 32.000000"
 preserveAspectRatio="xMidYMid meet">
<metadata>
Created by potrace 1.16, written by Peter Selinger 2001-2019
</metadata>
<g transform="translate(0.000000,32.000000) scale(0.100000,-0.100000)"
fill="#000000" stroke="none">
<path fill="#000000" stroke="none" d="M234 284 c-9 -35 15 -59 50 -50 14 3
26 11 26 17 0 6 -6 6 -19 -1 -28 -14 -55 13 -41 41 7 13 7 19 1 19 -6 0 -14
-12 -17 -26z"/>
<path fill="#000000" stroke="none" d="M23 83 c-7 -2 -13 -9 -13 -14 0 -6 8
-6 19 1 28 14 55 -13 41 -41 -7 -13 -7 -19 -1 -19 6 0 13 11 17 25 10 41 -22
65 -63 48z"/>
</g>
</svg>
