<?xml version="1.0" standalone="no"?>
<!DOCTYPE svg PUBLIC "-//W3C//DTD SVG 20010904//EN"
 "http://www.w3.org/TR/2001/REC-SVG-20010904/DTD/svg10.dtd">
<svg version="1.0" xmlns="http://www.w3.org/2000/svg"
 width="32.000000pt" height="32.000000pt" viewBox="0 0 32.000000 32.000000"
 preserveAspectRatio="xMidYMid meet">
<metadata>
Created by potrace 1.16, written by Peter Selinger 2001-2019
</metadata>
<g transform="translate(0.000000,32.000000) scale(0.100000,-0.100000)"
fill="#000000" stroke="none">
<path fill="#000000" stroke="none" d="M0 160 l0 -160 160 0 160 0 0 160 0
160 -160 0 -160 0 0 -160z"/>
<path fill="#ffffff" stroke="none" d="M310 304 c0 -3 -23 -31 -51 -62 -27
-32 -60 -74 -71 -94 -12 -20 -25 -35 -30 -32 -4 3 -13 2 -20 -2 -8 -5 -6 -10
8 -15 17 -7 17 -8 1 -8 -17 -1 -17 -2 0 -27 l17 -27 -24 14 c-42 22 -58 20
-84 -14 -20 -26 -28 -29 -38 -19 -10 10 -7 18 19 38 34 26 36 42 14 84 l-14
24 27 -17 c25 -17 26 -17 27 0 0 16 1 16 8 -1 5 -14 10 -16 15 -8 4 7 5 16 2
20 -3 5 12 18 32 30 20 11 62 43 92 71 52 47 70 59 70 45z"/>
</g>
</svg>
