<?xml version="1.0" standalone="no"?>
<!DOCTYPE svg PUBLIC "-//W3C//DTD SVG 20010904//EN"
 "http://www.w3.org/TR/2001/REC-SVG-20010904/DTD/svg10.dtd">
<svg version="1.0" xmlns="http://www.w3.org/2000/svg"
 width="32.000000pt" height="32.000000pt" viewBox="0 0 32.000000 32.000000"
 preserveAspectRatio="xMidYMid meet">
<metadata>
Created by potrace 1.16, written by Peter Selinger 2001-2019
</metadata>
<g transform="translate(0.000000,32.000000) scale(0.100000,-0.100000)"
fill="#000000" stroke="none">
<path fill="#000000" stroke="none" d="M232 248 c-37 -33 -71 -65 -76 -69 -4
-4 -5 -13 -1 -19 5 -8 29 9 72 51 108 107 112 135 5 37z"/>
<path fill="#ffffff" stroke="none" d="M280 277 c0 -1 -28 -29 -62 -62 l-63
-60 60 63 c55 58 65 67 65 59z"/>
<path fill="#000000" stroke="none" d="M116 122 c-3 -5 1 -9 9 -9 8 0 12 4 9
9 -3 4 -7 8 -9 8 -2 0 -6 -4 -9 -8z"/>
</g>
</svg>
