<?xml version="1.0" standalone="no"?>
<!DOCTYPE svg PUBLIC "-//W3C//DTD SVG 20010904//EN"
 "http://www.w3.org/TR/2001/REC-SVG-20010904/DTD/svg10.dtd">
<svg version="1.0" xmlns="http://www.w3.org/2000/svg"
 width="32.000000pt" height="32.000000pt" viewBox="0 0 32.000000 32.000000"
 preserveAspectRatio="xMidYMid meet">
<metadata>
Created by potrace 1.16, written by Peter Selinger 2001-2019
</metadata>
<g transform="translate(0.000000,32.000000) scale(0.100000,-0.100000)"
fill="#000000" stroke="none">
<path fill="#000000" stroke="none" d="M291 301 c-8 -5 -29 -7 -47 -4 -51 8
-79 -29 -77 -103 0 -7 -35 -46 -78 -89 -74 -72 -91 -95 -71 -95 9 0 97 84 134
128 13 15 32 28 43 29 82 6 109 27 102 78 -3 17 0 38 5 48 10 19 9 20 -11 8z"/>
</g>
</svg>
