<?xml version="1.0" standalone="no"?>
<!DOCTYPE svg PUBLIC "-//W3C//DTD SVG 20010904//EN"
 "http://www.w3.org/TR/2001/REC-SVG-20010904/DTD/svg10.dtd">
<svg version="1.0" xmlns="http://www.w3.org/2000/svg"
 width="32.000000pt" height="32.000000pt" viewBox="0 0 32.000000 32.000000"
 preserveAspectRatio="xMidYMid meet">
<metadata>
Created by potrace 1.16, written by Peter Selinger 2001-2019
</metadata>
<g transform="translate(0.000000,32.000000) scale(0.100000,-0.100000)"
fill="#000000" stroke="none">
<path fill="#000000" stroke="none" d="M0 160 l0 -160 160 0 160 0 0 160 0
160 -160 0 -160 0 0 -160z"/>
<path fill="#ffffff" stroke="none" d="M266 250 c1 -26 -35 -58 -58 -52 -16 4
-19 2 -13 -8 5 -8 4 -11 -3 -6 -6 4 -9 12 -7 19 24 67 25 68 53 65 15 -2 27
-9 28 -18z"/>
<path fill="#ffffff" stroke="none" d="M152 147 c-18 -18 -29 -37 -25 -42 5
-5 0 -3 -10 5 -18 13 -18 14 0 21 10 4 27 16 37 28 11 11 22 21 25 21 2 0 -10
-15 -27 -33z"/>
<path fill="#ffffff" stroke="none" d="M61 53 c13 -16 12 -17 -3 -4 -17 13
-22 21 -14 21 2 0 10 -8 17 -17z"/>
<path fill="#000000" stroke="none" d="M236 225 c-11 -8 -17 -17 -14 -20 2 -3
13 4 23 15 21 23 18 25 -9 5z"/>
</g>
</svg>
