<?xml version="1.0" standalone="no"?>
<!DOCTYPE svg PUBLIC "-//W3C//DTD SVG 20010904//EN"
 "http://www.w3.org/TR/2001/REC-SVG-20010904/DTD/svg10.dtd">
<svg version="1.0" xmlns="http://www.w3.org/2000/svg"
 width="32.000000pt" height="32.000000pt" viewBox="0 0 32.000000 32.000000"
 preserveAspectRatio="xMidYMid meet">
<metadata>
Created by potrace 1.16, written by Peter Selinger 2001-2019
</metadata>
<g transform="translate(0.000000,32.000000) scale(0.100000,-0.100000)"
fill="#000000" stroke="none">
<path fill="#000000" stroke="none" d="M0 160 l0 -160 160 0 160 0 0 160 0
160 -160 0 -160 0 0 -160z"/>
<path fill="#ffffff" stroke="none" d="M269 298 c11 -10 12 -10 7 -1 -5 9 -2
11 8 7 8 -3 17 -12 20 -20 4 -10 2 -13 -7 -8 -7 5 -6 0 3 -10 13 -17 12 -21
-14 -43 -16 -13 -35 -22 -43 -19 -20 8 -103 -71 -96 -91 5 -12 2 -15 -9 -11
-10 4 -31 -11 -62 -43 -25 -27 -51 -49 -56 -49 -21 0 -8 21 39 66 32 31 47 52
43 62 -4 11 -1 14 10 10 21 -9 89 62 92 96 3 25 31 66 46 66 3 0 12 -6 19 -12z"/>
</g>
</svg>
