<?xml version="1.0" standalone="no"?>
<!DOCTYPE svg PUBLIC "-//W3C//DTD SVG 20010904//EN"
 "http://www.w3.org/TR/2001/REC-SVG-20010904/DTD/svg10.dtd">
<svg version="1.0" xmlns="http://www.w3.org/2000/svg"
 width="32.000000pt" height="32.000000pt" viewBox="0 0 32.000000 32.000000"
 preserveAspectRatio="xMidYMid meet">
<metadata>
Created by potrace 1.16, written by Peter Selinger 2001-2019
</metadata>
<g transform="translate(0.000000,32.000000) scale(0.100000,-0.100000)"
fill="#000000" stroke="none">
<path fill="#000000" stroke="none" d="M225 280 c-16 -16 -26 -32 -23 -35 2
-3 15 6 28 20 35 37 48 30 14 -7 l-29 -33 38 34 c20 19 37 37 37 40 0 2 -3 1
-7 -2 -3 -4 -11 -2 -18 3 -8 7 -20 0 -40 -20z"/>
<path fill="#000000" stroke="none" d="M266 232 l-30 -37 37 34 c38 36 42 42
30 40 -5 0 -21 -17 -37 -37z"/>
<path fill="#000000" stroke="none" d="M110 115 c13 -14 26 -25 28 -25 3 0 -5
11 -18 25 -13 14 -26 25 -28 25 -3 0 5 -11 18 -25z"/>
<path fill="#000000" stroke="none" d="M50 76 c0 -2 8 -10 18 -17 15 -13 16
-12 3 4 -13 16 -21 21 -21 13z"/>
</g>
</svg>
