<?xml version="1.0" standalone="no"?>
<!DOCTYPE svg PUBLIC "-//W3C//DTD SVG 20010904//EN"
 "http://www.w3.org/TR/2001/REC-SVG-20010904/DTD/svg10.dtd">
<svg version="1.0" xmlns="http://www.w3.org/2000/svg"
 width="32.000000pt" height="32.000000pt" viewBox="0 0 32.000000 32.000000"
 preserveAspectRatio="xMidYMid meet">
<metadata>
Created by potrace 1.16, written by Peter Selinger 2001-2019
</metadata>
<g transform="translate(0.000000,32.000000) scale(0.100000,-0.100000)"
fill="#000000" stroke="none">
<path fill="#000000" stroke="none" d="M0 160 l0 -160 160 0 160 0 0 160 0
160 -160 0 -160 0 0 -160z"/>
<path fill="#ffffff" stroke="none" d="M268 238 c3 -23 -3 -29 -40 -46 -24
-10 -57 -34 -74 -53 -16 -20 -36 -33 -42 -31 -7 2 -12 -4 -12 -13 0 -9 -4 -14
-9 -11 -5 3 -12 -6 -15 -20 -5 -20 -10 -23 -20 -15 -11 9 0 25 56 79 38 37 70
74 72 82 6 38 28 61 54 58 21 -2 28 -9 30 -30z"/>
</g>
</svg>
