<?xml version="1.0" standalone="no"?>
<!DOCTYPE svg PUBLIC "-//W3C//DTD SVG 20010904//EN"
 "http://www.w3.org/TR/2001/REC-SVG-20010904/DTD/svg10.dtd">
<svg version="1.0" xmlns="http://www.w3.org/2000/svg"
 width="32.000000pt" height="32.000000pt" viewBox="0 0 32.000000 32.000000"
 preserveAspectRatio="xMidYMid meet">
<metadata>
Created by potrace 1.16, written by Peter Selinger 2001-2019
</metadata>
<g transform="translate(0.000000,32.000000) scale(0.100000,-0.100000)"
fill="#000000" stroke="none">
<path fill="#000000" stroke="none" d="M211 246 c-26 -27 -14 -51 14 -30 16
12 17 16 6 23 -9 6 -10 11 -2 15 6 4 11 2 11 -3 0 -6 5 -11 10 -11 6 0 10 6
10 13 0 21 -27 16 -49 -7z"/>
<path fill="#ffffff" stroke="none" d="M220 230 c0 -5 -5 -10 -11 -10 -5 0 -7
5 -4 10 3 6 8 10 11 10 2 0 4 -4 4 -10z"/>
<path fill="#000000" stroke="none" d="M135 140 c-10 -11 -23 -17 -29 -13 -6
4 -5 -1 3 -10 7 -9 16 -17 19 -17 3 0 2 3 -1 7 -4 3 3 17 15 30 12 13 19 23
16 23 -3 0 -13 -9 -23 -20z"/>
<path fill="#000000" stroke="none" d="M40 66 c0 -2 8 -10 18 -17 15 -13 16
-12 3 4 -13 16 -21 21 -21 13z"/>
</g>
</svg>
