<?xml version="1.0" standalone="no"?>
<!DOCTYPE svg PUBLIC "-//W3C//DTD SVG 20010904//EN"
 "http://www.w3.org/TR/2001/REC-SVG-20010904/DTD/svg10.dtd">
<svg version="1.0" xmlns="http://www.w3.org/2000/svg"
 width="32.000000pt" height="32.000000pt" viewBox="0 0 32.000000 32.000000"
 preserveAspectRatio="xMidYMid meet">
<metadata>
Created by potrace 1.16, written by Peter Selinger 2001-2019
</metadata>
<g transform="translate(0.000000,32.000000) scale(0.100000,-0.100000)"
fill="#000000" stroke="none">
<path fill="#000000" stroke="none" d="M0 160 l0 -160 160 0 160 0 0 160 0
160 -160 0 -160 0 0 -160z"/>
<path fill="#ffffff" stroke="none" d="M299 280 c-6 -16 -15 -28 -21 -27 -6 1
-13 -4 -15 -10 -3 -8 3 -13 14 -13 17 -1 17 -1 -1 -15 -18 -13 -14 -41 5 -30
5 4 9 -3 9 -14 0 -15 -6 -21 -21 -21 -11 0 -18 4 -14 9 9 15 -14 24 -29 11
-11 -8 -15 -8 -19 2 -3 8 -33 -15 -80 -62 -41 -41 -73 -78 -70 -82 2 -5 -5 -8
-16 -8 -14 0 -21 6 -21 20 0 11 4 19 9 17 11 -3 106 92 106 107 0 6 5 11 12
11 7 0 18 6 25 13 11 11 10 15 -5 23 -9 6 -15 15 -12 20 4 5 11 6 17 3 6 -4 8
-1 6 7 -3 8 -11 13 -17 11 -6 -1 -11 7 -11 18 0 13 7 20 20 20 11 0 19 -5 18
-11 -2 -6 3 -14 10 -16 6 -3 12 2 12 11 0 10 6 13 15 10 8 -4 12 -11 9 -16 -4
-6 -1 -9 5 -7 7 3 11 9 9 14 -2 6 37 30 59 35 1 0 -3 -13 -8 -30z"/>
</g>
</svg>
