<?xml version="1.0" standalone="no"?>
<!DOCTYPE svg PUBLIC "-//W3C//DTD SVG 20010904//EN"
 "http://www.w3.org/TR/2001/REC-SVG-20010904/DTD/svg10.dtd">
<svg version="1.0" xmlns="http://www.w3.org/2000/svg"
 width="32.000000pt" height="32.000000pt" viewBox="0 0 32.000000 32.000000"
 preserveAspectRatio="xMidYMid meet">
<metadata>
Created by potrace 1.16, written by Peter Selinger 2001-2019
</metadata>
<g transform="translate(0.000000,32.000000) scale(0.100000,-0.100000)"
fill="#000000" stroke="none">
<path fill="#000000" stroke="none" d="M0 160 l0 -160 160 0 160 0 0 160 0
160 -160 0 -160 0 0 -160z"/>
<path fill="#ffffff" stroke="none" d="M299 282 c-11 -31 -52 -43 -47 -14 2
13 34 37 55 42 1 0 -2 -13 -8 -28z"/>
<path fill="#ffffff" stroke="none" d="M188 283 c0 -5 4 -19 10 -33 11 -25 11
-25 11 7 1 25 5 31 16 26 9 -3 13 -8 11 -11 -3 -3 -1 -11 5 -19 6 -7 8 -14 3
-14 -5 -1 5 -5 21 -9 29 -7 29 -8 7 -15 -18 -6 -20 -10 -11 -21 6 -8 15 -11
20 -8 5 3 9 -4 9 -15 0 -15 -6 -21 -21 -21 -11 0 -18 3 -15 8 2 4 -2 15 -9 25
-12 16 -13 16 -19 -5 -7 -21 -8 -21 -15 -5 -6 17 -11 14 -44 -22 -20 -23 -41
-41 -45 -41 -12 0 -58 -50 -46 -50 5 0 1 -5 -9 -11 -9 -6 -15 -14 -12 -20 4
-5 -3 -9 -14 -9 -14 0 -21 6 -21 20 0 11 4 19 9 17 10 -2 106 91 106 104 0 5
3 8 6 7 4 -2 17 6 29 17 l21 19 -23 10 c-20 8 -21 10 -5 13 10 3 16 10 14 16
-3 7 -10 11 -16 10 -6 -2 -11 6 -11 17 0 13 7 20 20 20 11 0 19 -3 18 -7z"/>
</g>
</svg>
