<?xml version="1.0" standalone="no"?>
<!DOCTYPE svg PUBLIC "-//W3C//DTD SVG 20010904//EN"
 "http://www.w3.org/TR/2001/REC-SVG-20010904/DTD/svg10.dtd">
<svg version="1.0" xmlns="http://www.w3.org/2000/svg"
 width="32.000000pt" height="32.000000pt" viewBox="0 0 32.000000 32.000000"
 preserveAspectRatio="xMidYMid meet">
<metadata>
Created by potrace 1.16, written by Peter Selinger 2001-2019
</metadata>
<g transform="translate(0.000000,32.000000) scale(0.100000,-0.100000)"
fill="#000000" stroke="none">
<path fill="#000000" stroke="none" d="M0 160 l0 -160 160 0 160 0 0 160 0
160 -160 0 -160 0 0 -160z"/>
<path fill="#ffffff" stroke="none" d="M268 278 c11 4 14 1 9 -11 -3 -9 -1
-19 4 -23 7 -4 7 -10 1 -16 -6 -6 -8 -17 -4 -26 4 -11 1 -14 -10 -9 -9 3 -19
3 -23 -1 -3 -3 -16 -7 -28 -7 -13 0 -22 -6 -22 -15 0 -8 -5 -15 -12 -15 -6 0
-40 -28 -74 -62 -66 -67 -79 -74 -76 -44 0 11 4 18 7 16 9 -5 29 22 22 31 -4
4 -2 4 4 1 10 -6 79 59 79 74 0 11 15 24 28 24 7 0 12 10 12 22 0 12 4 25 7
28 4 4 4 14 1 23 -5 11 -2 14 10 9 9 -3 19 -1 23 4 4 7 10 7 16 1 6 -6 17 -8
26 -4z"/>
</g>
</svg>
