<?xml version="1.0" standalone="no"?>
<!DOCTYPE svg PUBLIC "-//W3C//DTD SVG 20010904//EN"
 "http://www.w3.org/TR/2001/REC-SVG-20010904/DTD/svg10.dtd">
<svg version="1.0" xmlns="http://www.w3.org/2000/svg"
 width="32.000000pt" height="32.000000pt" viewBox="0 0 32.000000 32.000000"
 preserveAspectRatio="xMidYMid meet">
<metadata>
Created by potrace 1.16, written by Peter Selinger 2001-2019
</metadata>
<g transform="translate(0.000000,32.000000) scale(0.100000,-0.100000)"
fill="#000000" stroke="none">
<path fill="#000000" stroke="none" d="M0 160 l0 -160 160 0 160 0 0 160 0
160 -160 0 -160 0 0 -160z"/>
<path fill="#ffffff" stroke="none" d="M271 282 c8 2 13 -4 11 -14 -1 -9 2
-19 8 -23 8 -5 8 -11 0 -20 -6 -7 -9 -19 -8 -26 2 -8 -4 -13 -14 -11 -9 1 -19
-2 -23 -8 -5 -8 -11 -7 -22 1 -12 11 -27 0 -88 -63 -41 -41 -72 -77 -70 -80 2
-2 -5 -4 -15 -5 -11 -1 -20 2 -20 6 0 5 37 45 82 89 68 67 79 83 69 95 -8 11
-9 17 -1 22 6 4 9 14 8 23 -2 11 3 16 14 14 9 -1 19 2 23 8 5 8 11 8 20 0 7
-6 19 -9 26 -8z"/>
</g>
</svg>
