<?xml version="1.0" standalone="no"?>
<!DOCTYPE svg PUBLIC "-//W3C//DTD SVG 20010904//EN"
 "http://www.w3.org/TR/2001/REC-SVG-20010904/DTD/svg10.dtd">
<svg version="1.0" xmlns="http://www.w3.org/2000/svg"
 width="32.000000pt" height="32.000000pt" viewBox="0 0 32.000000 32.000000"
 preserveAspectRatio="xMidYMid meet">
<metadata>
Created by potrace 1.16, written by Peter Selinger 2001-2019
</metadata>
<g transform="translate(0.000000,32.000000) scale(0.100000,-0.100000)"
fill="#000000" stroke="none">
<path fill="#000000" stroke="none" d="M0 160 l0 -160 160 0 160 0 0 160 0
160 -160 0 -160 0 0 -160z"/>
<path fill="#ffffff" stroke="none" d="M310 300 c0 -5 -14 -25 -30 -43 -30
-34 -30 -35 -8 -40 28 -8 20 -16 -16 -19 -19 -2 -56 -28 -114 -81 -48 -44 -91
-86 -95 -94 -7 -11 -12 -12 -23 -2 -13 11 -3 24 63 91 58 59 71 76 51 69 -15
-6 -30 -6 -33 -2 -7 13 21 33 57 40 25 5 32 12 35 36 5 39 12 45 20 17 5 -22
6 -22 40 8 34 31 53 38 53 20z"/>
</g>
</svg>
