<?xml version="1.0" standalone="no"?>
<!DOCTYPE svg PUBLIC "-//W3C//DTD SVG 20010904//EN"
 "http://www.w3.org/TR/2001/REC-SVG-20010904/DTD/svg10.dtd">
<svg version="1.0" xmlns="http://www.w3.org/2000/svg"
 width="32.000000pt" height="32.000000pt" viewBox="0 0 32.000000 32.000000"
 preserveAspectRatio="xMidYMid meet">
<metadata>
Created by potrace 1.16, written by Peter Selinger 2001-2019
</metadata>
<g transform="translate(0.000000,32.000000) scale(0.100000,-0.100000)"
fill="#000000" stroke="none">
<path fill="#000000" stroke="none" d="M0 160 l0 -160 160 0 160 0 0 160 0
160 -160 0 -160 0 0 -160z"/>
<path fill="#ffffff" stroke="none" d="M310 300 c0 -5 -14 -25 -30 -43 l-30
-35 22 -7 c23 -8 23 -8 -2 -12 -14 -3 -29 -8 -35 -13 -5 -4 -18 -6 -28 -5 -10
2 -21 -3 -24 -11 -3 -8 -9 -11 -15 -8 -5 3 -4 11 3 20 16 20 -19 19 -51 -2
l-25 -16 24 21 c26 24 60 27 81 9 8 -7 7 -4 -3 8 -10 12 -13 24 -8 30 5 5 11
20 14 34 4 25 4 25 12 2 l7 -22 35 30 c34 31 53 38 53 20z"/>
<path fill="#ffffff" stroke="none" d="M160 156 c0 -2 -8 -10 -17 -17 -16 -13
-17 -12 -4 4 13 16 21 21 21 13z"/>
<path fill="#ffffff" stroke="none" d="M44 35 c-16 -25 -34 -33 -34 -16 0 7
37 38 48 40 1 1 -5 -10 -14 -24z"/>
<path fill="#000000" stroke="none" d="M215 220 c-3 -5 -1 -10 4 -10 6 0 11 5
11 10 0 6 -2 10 -4 10 -3 0 -8 -4 -11 -10z"/>
</g>
</svg>
