<?xml version="1.0" standalone="no"?>
<!DOCTYPE svg PUBLIC "-//W3C//DTD SVG 20010904//EN"
 "http://www.w3.org/TR/2001/REC-SVG-20010904/DTD/svg10.dtd">
<svg version="1.0" xmlns="http://www.w3.org/2000/svg"
 width="32.000000pt" height="32.000000pt" viewBox="0 0 32.000000 32.000000"
 preserveAspectRatio="xMidYMid meet">
<metadata>
Created by potrace 1.16, written by Peter Selinger 2001-2019
</metadata>
<g transform="translate(0.000000,32.000000) scale(0.100000,-0.100000)"
fill="#000000" stroke="none">
<path fill="#000000" stroke="none" d="M0 160 l0 -160 160 0 160 0 0 160 0
160 -160 0 -160 0 0 -160z"/>
<path fill="#ffffff" stroke="none" d="M310 300 c0 -5 -13 -24 -29 -42 l-29
-33 26 -12 c26 -11 26 -11 4 -12 -20 -1 -21 -3 -11 -23 12 -22 12 -22 -15 -5
-14 10 -26 14 -26 10 0 -3 -11 4 -25 17 -13 12 -23 25 -22 29 0 3 -5 16 -12
29 -12 22 -11 23 8 12 18 -9 21 -8 22 12 1 22 1 22 12 -4 l12 -26 33 29 c33
30 52 37 52 19z"/>
<path fill="#ffffff" stroke="none" d="M204 191 c19 -21 15 -51 -9 -71 -13
-11 -13 -9 -1 15 8 15 12 33 9 41 -5 13 -30 -9 -76 -65 -10 -12 -22 -19 -27
-16 -14 8 -2 30 23 44 12 7 30 23 40 37 21 28 8 32 -38 9 l-30 -15 24 20 c29
25 63 26 85 1z"/>
<path fill="#ffffff" stroke="none" d="M59 54 c-18 -19 -21 -27 -10 -33 9 -6
5 -8 -12 -8 -19 0 -24 5 -24 24 0 19 2 22 9 12 7 -11 13 -8 30 13 12 15 24 25
27 23 2 -3 -6 -17 -20 -31z"/>
</g>
</svg>
