<?xml version="1.0" standalone="no"?>
<!DOCTYPE svg PUBLIC "-//W3C//DTD SVG 20010904//EN"
 "http://www.w3.org/TR/2001/REC-SVG-20010904/DTD/svg10.dtd">
<svg version="1.0" xmlns="http://www.w3.org/2000/svg"
 width="32.000000pt" height="32.000000pt" viewBox="0 0 32.000000 32.000000"
 preserveAspectRatio="xMidYMid meet">
<metadata>
Created by potrace 1.16, written by Peter Selinger 2001-2019
</metadata>
<g transform="translate(0.000000,32.000000) scale(0.100000,-0.100000)"
fill="#000000" stroke="none">
<path fill="#000000" stroke="none" d="M0 160 l0 -160 160 0 160 0 0 160 0
160 -160 0 -160 0 0 -160z"/>
<path fill="#ffffff" stroke="none" d="M310 303 c-1 -5 -10 -19 -21 -32 -14
-17 -23 -21 -30 -14 -8 8 -6 17 8 31 18 20 43 29 43 15z"/>
<path fill="#ffffff" stroke="none" d="M250 242 c0 -14 -36 -43 -43 -35 -4 3
0 15 10 25 17 19 33 24 33 10z"/>
<path fill="#ffffff" stroke="none" d="M101 87 c-11 -12 -24 -18 -27 -14 -10
10 27 48 38 41 6 -4 1 -16 -11 -27z"/>
<path fill="#ffffff" stroke="none" d="M65 60 c6 -10 -31 -49 -47 -50 -14 0
-9 19 10 39 20 23 28 25 37 11z"/>
</g>
</svg>
