<?xml version="1.0" standalone="no"?>
<!DOCTYPE svg PUBLIC "-//W3C//DTD SVG 20010904//EN"
 "http://www.w3.org/TR/2001/REC-SVG-20010904/DTD/svg10.dtd">
<svg version="1.0" xmlns="http://www.w3.org/2000/svg"
 width="32.000000pt" height="32.000000pt" viewBox="0 0 32.000000 32.000000"
 preserveAspectRatio="xMidYMid meet">
<metadata>
Created by potrace 1.16, written by Peter Selinger 2001-2019
</metadata>
<g transform="translate(0.000000,32.000000) scale(0.100000,-0.100000)"
fill="#000000" stroke="none">
<path fill="#000000" stroke="none" d="M268 289 c-10 -10 -18 -21 -18 -23 0
-6 -190 -196 -196 -196 -8 0 -44 -40 -44 -50 0 -16 18 -12 40 10 11 11 20 21
20 23 0 2 44 47 97 100 53 53 98 97 100 97 8 0 43 41 43 50 0 16 -23 10 -42
-11z"/>
</g>
</svg>
