<?xml version="1.0" standalone="no"?>
<!DOCTYPE svg PUBLIC "-//W3C//DTD SVG 20010904//EN"
 "http://www.w3.org/TR/2001/REC-SVG-20010904/DTD/svg10.dtd">
<svg version="1.0" xmlns="http://www.w3.org/2000/svg"
 width="32.000000pt" height="32.000000pt" viewBox="0 0 32.000000 32.000000"
 preserveAspectRatio="xMidYMid meet">
<metadata>
Created by potrace 1.16, written by Peter Selinger 2001-2019
</metadata>
<g transform="translate(0.000000,32.000000) scale(0.100000,-0.100000)"
fill="#000000" stroke="none">
<path fill="#000000" stroke="none" d="M0 160 l0 -160 160 0 160 0 0 160 0
160 -160 0 -160 0 0 -160z"/>
<path fill="#ffffff" stroke="none" d="M200 195 c-57 -58 -63 -67 -52 -85 9
-16 9 -18 -2 -14 -7 3 -19 -3 -27 -12 -13 -16 -12 -17 5 -10 19 7 19 6 1 -14
-20 -22 -42 -25 -65 -10 -11 8 -8 10 15 8 17 -2 30 2 30 9 0 6 3 15 8 19 17
17 5 25 -13 9 -16 -14 -17 -20 -8 -27 7 -4 9 -8 3 -8 -30 0 -34 17 -10 40 20
19 22 26 13 44 -10 19 -10 20 6 7 16 -13 24 -8 84 52 36 36 68 64 71 61 3 -2
-24 -34 -59 -69z"/>
</g>
</svg>
