<?xml version="1.0" standalone="no"?>
<!DOCTYPE svg PUBLIC "-//W3C//DTD SVG 20010904//EN"
 "http://www.w3.org/TR/2001/REC-SVG-20010904/DTD/svg10.dtd">
<svg version="1.0" xmlns="http://www.w3.org/2000/svg"
 width="32.000000pt" height="32.000000pt" viewBox="0 0 32.000000 32.000000"
 preserveAspectRatio="xMidYMid meet">
<metadata>
Created by potrace 1.16, written by Peter Selinger 2001-2019
</metadata>
<g transform="translate(0.000000,32.000000) scale(0.100000,-0.100000)"
fill="#000000" stroke="none">
<path fill="#000000" stroke="none" d="M0 160 l0 -160 160 0 160 0 0 160 0
160 -160 0 -160 0 0 -160z"/>
<path fill="#ffffff" stroke="none" d="M198 192 c-55 -56 -64 -70 -55 -84 17
-25 -17 -58 -60 -58 -41 0 -41 8 -4 44 19 18 27 34 24 47 -3 11 0 19 6 19 7 0
9 -4 6 -10 -18 -29 18 -3 75 55 35 35 66 62 69 59 3 -2 -25 -35 -61 -72z"/>
<path fill="#ffffff" stroke="none" d="M93 141 c3 -14 1 -18 -9 -14 -15 6 -18
16 -7 26 9 10 10 9 16 -12z"/>
<path fill="#000000" stroke="none" d="M90 85 c-23 -24 -23 -25 -3 -25 22 0
57 33 46 43 -11 11 -18 8 -43 -18z"/>
</g>
</svg>
