<?xml version="1.0" standalone="no"?>
<!DOCTYPE svg PUBLIC "-//W3C//DTD SVG 20010904//EN"
 "http://www.w3.org/TR/2001/REC-SVG-20010904/DTD/svg10.dtd">
<svg version="1.0" xmlns="http://www.w3.org/2000/svg"
 width="32.000000pt" height="32.000000pt" viewBox="0 0 32.000000 32.000000"
 preserveAspectRatio="xMidYMid meet">
<metadata>
Created by potrace 1.16, written by Peter Selinger 2001-2019
</metadata>
<g transform="translate(0.000000,32.000000) scale(0.100000,-0.100000)"
fill="#000000" stroke="none">
<path fill="#000000" stroke="none" d="M188 203 c-60 -60 -68 -65 -84 -52 -16
13 -16 12 -6 -7 9 -18 7 -25 -14 -45 -21 -19 -22 -24 -9 -32 8 -4 20 -5 27 -1
7 4 8 3 4 -4 -4 -7 -18 -10 -34 -6 -21 4 -24 3 -12 -5 23 -16 45 -13 65 9 18
20 18 21 -1 14 -17 -7 -18 -6 -5 10 8 9 20 15 27 12 11 -4 11 -2 2 14 -11 18
-5 27 52 85 35 35 62 67 59 69 -3 3 -35 -25 -71 -61z"/>
<path fill="#ffffff" stroke="none" d="M120 101 c0 -13 -29 -35 -37 -28 -7 8
15 37 28 37 5 0 9 -4 9 -9z"/>
</g>
</svg>
