<?xml version="1.0" standalone="no"?>
<!DOCTYPE svg PUBLIC "-//W3C//DTD SVG 20010904//EN"
 "http://www.w3.org/TR/2001/REC-SVG-20010904/DTD/svg10.dtd">
<svg version="1.0" xmlns="http://www.w3.org/2000/svg"
 width="32.000000pt" height="32.000000pt" viewBox="0 0 32.000000 32.000000"
 preserveAspectRatio="xMidYMid meet">
<metadata>
Created by potrace 1.16, written by Peter Selinger 2001-2019
</metadata>
<g transform="translate(0.000000,32.000000) scale(0.100000,-0.100000)"
fill="#000000" stroke="none">
<path fill="#000000" stroke="none" d="M190 203 l-65 -66 68 58 c56 49 78 75
64 75 -1 0 -32 -30 -67 -67z"/>
<path fill="#000000" stroke="none" d="M120 125 c19 -19 36 -35 39 -35 3 0
-10 16 -29 35 -19 19 -36 35 -39 35 -3 0 10 -16 29 -35z"/>
<path fill="#000000" stroke="none" d="M125 69 c-4 -6 -14 -8 -22 -5 -9 4 -11
2 -7 -6 5 -8 -2 -9 -22 -4 -21 5 -25 4 -14 -4 23 -15 45 -12 65 10 10 11 15
20 12 20 -3 0 -9 -5 -12 -11z"/>
</g>
</svg>
