<?xml version="1.0" standalone="no"?>
<!DOCTYPE svg PUBLIC "-//W3C//DTD SVG 20010904//EN"
 "http://www.w3.org/TR/2001/REC-SVG-20010904/DTD/svg10.dtd">
<svg version="1.0" xmlns="http://www.w3.org/2000/svg"
 width="32.000000pt" height="32.000000pt" viewBox="0 0 32.000000 32.000000"
 preserveAspectRatio="xMidYMid meet">
<metadata>
Created by potrace 1.16, written by Peter Selinger 2001-2019
</metadata>
<g transform="translate(0.000000,32.000000) scale(0.100000,-0.100000)"
fill="#000000" stroke="none">
<path fill="#000000" stroke="none" d="M190 205 c-57 -58 -93 -84 -75 -55 3 6
1 10 -4 10 -6 0 -11 -8 -11 -17 0 -15 -2 -16 -10 -3 -5 8 -10 10 -10 4 0 -5 5
-15 10 -20 7 -7 2 -18 -15 -34 -33 -31 -32 -40 8 -40 43 0 77 33 60 58 -9 14
0 28 55 84 36 37 64 70 61 72 -3 3 -34 -24 -69 -59z"/>
<path fill="#ffffff" stroke="none" d="M124 78 c-17 -18 -54 -25 -54 -10 0 5
9 17 20 27 11 10 17 23 13 29 -4 6 3 2 15 -8 21 -18 21 -20 6 -38z"/>
</g>
</svg>
