<?xml version="1.0" standalone="no"?>
<!DOCTYPE svg PUBLIC "-//W3C//DTD SVG 20010904//EN"
 "http://www.w3.org/TR/2001/REC-SVG-20010904/DTD/svg10.dtd">
<svg version="1.0" xmlns="http://www.w3.org/2000/svg"
 width="32.000000pt" height="32.000000pt" viewBox="0 0 32.000000 32.000000"
 preserveAspectRatio="xMidYMid meet">
<metadata>
Created by potrace 1.16, written by Peter Selinger 2001-2019
</metadata>
<g transform="translate(0.000000,32.000000) scale(0.100000,-0.100000)"
fill="#000000" stroke="none">
<path fill="#000000" stroke="none" d="M220 292 c0 -26 -11 -34 -27 -21 -10 9
-13 5 -13 -20 0 -19 -4 -30 -10 -26 -5 3 -10 -3 -10 -15 0 -12 -4 -18 -10 -15
-5 3 -10 -3 -10 -15 0 -12 -4 -18 -10 -15 -5 3 -10 -1 -10 -10 0 -9 -4 -13
-10 -10 -5 3 -10 -1 -10 -10 0 -9 -5 -13 -10 -10 -5 3 -10 1 -10 -6 0 -10 -3
-10 -12 -1 -15 15 -38 16 -38 2 0 -5 6 -9 13 -7 7 1 11 -7 9 -23 -7 -61 -6
-73 6 -78 9 -3 11 3 7 21 -7 28 10 46 28 28 14 -14 37 -14 37 0 0 5 -4 8 -9 4
-5 -3 -13 0 -16 6 -4 6 25 43 64 84 61 62 71 78 71 108 0 20 -4 39 -10 42 -5
3 -10 -2 -10 -13z"/>
</g>
</svg>
