<?xml version="1.0" standalone="no"?>
<!DOCTYPE svg PUBLIC "-//W3C//DTD SVG 20010904//EN"
 "http://www.w3.org/TR/2001/REC-SVG-20010904/DTD/svg10.dtd">
<svg version="1.0" xmlns="http://www.w3.org/2000/svg"
 width="32.000000pt" height="32.000000pt" viewBox="0 0 32.000000 32.000000"
 preserveAspectRatio="xMidYMid meet">
<metadata>
Created by potrace 1.16, written by Peter Selinger 2001-2019
</metadata>
<g transform="translate(0.000000,32.000000) scale(0.100000,-0.100000)"
fill="#000000" stroke="none">
<path fill="#000000" stroke="none" d="M229 283 c-15 -15 -29 -39 -32 -53 -4
-14 -27 -47 -51 -75 -42 -46 -47 -49 -59 -32 -15 18 -33 24 -22 7 3 -5 1 -10
-4 -10 -6 0 -11 -4 -11 -10 0 -5 6 -9 13 -7 7 1 11 -6 9 -18 -8 -47 -6 -68 6
-73 9 -3 11 3 7 21 -8 31 13 47 30 24 13 -18 30 -24 20 -7 -3 6 -1 10 4 10 6
0 11 5 11 11 0 5 -4 7 -10 4 -6 -3 -10 -1 -10 6 0 6 27 40 60 75 39 43 61 75
66 98 9 52 2 60 -27 29z"/>
</g>
</svg>
