<?xml version="1.0" standalone="no"?>
<!DOCTYPE svg PUBLIC "-//W3C//DTD SVG 20010904//EN"
 "http://www.w3.org/TR/2001/REC-SVG-20010904/DTD/svg10.dtd">
<svg version="1.0" xmlns="http://www.w3.org/2000/svg"
 width="32.000000pt" height="32.000000pt" viewBox="0 0 32.000000 32.000000"
 preserveAspectRatio="xMidYMid meet">
<metadata>
Created by potrace 1.16, written by Peter Selinger 2001-2019
</metadata>
<g transform="translate(0.000000,32.000000) scale(0.100000,-0.100000)"
fill="#000000" stroke="none">
<path fill="#000000" stroke="none" d="M0 160 l0 -160 160 0 160 0 0 160 0
160 -160 0 -160 0 0 -160z"/>
<path fill="#ffffff" stroke="none" d="M256 268 c-4 -24 -26 -53 -73 -98 -65
-64 -66 -64 -25 -14 23 29 42 57 42 63 0 15 52 93 58 87 2 -3 2 -20 -2 -38z"/>
<path fill="#ffffff" stroke="none" d="M120 96 c0 -1 -10 -2 -21 -3 -12 -1
-19 1 -15 4 3 3 0 13 -7 21 -9 11 -4 11 16 -2 15 -10 27 -19 27 -20z"/>
</g>
</svg>
