<?xml version="1.0" standalone="no"?>
<!DOCTYPE svg PUBLIC "-//W3C//DTD SVG 20010904//EN"
 "http://www.w3.org/TR/2001/REC-SVG-20010904/DTD/svg10.dtd">
<svg version="1.0" xmlns="http://www.w3.org/2000/svg"
 width="32.000000pt" height="32.000000pt" viewBox="0 0 32.000000 32.000000"
 preserveAspectRatio="xMidYMid meet">
<metadata>
Created by potrace 1.16, written by Peter Selinger 2001-2019
</metadata>
<g transform="translate(0.000000,32.000000) scale(0.100000,-0.100000)"
fill="#000000" stroke="none">
<path fill="#000000" stroke="none" d="M0 160 l0 -160 160 0 160 0 0 160 0
160 -160 0 -160 0 0 -160z"/>
<path fill="#ffffff" stroke="none" d="M173 286 c18 -7 43 -26 57 -42 l25 -29
-32 29 c-18 16 -54 35 -80 42 -26 7 -38 13 -25 13 12 1 37 -5 55 -13z"/>
<path fill="#ffffff" stroke="none" d="M272 217 c-12 -13 -19 -27 -15 -30 3
-4 4 -7 1 -7 -3 0 -12 8 -19 17 -8 9 -9 14 -3 10 6 -4 19 2 29 13 10 11 20 20
23 20 3 0 -4 -10 -16 -23z"/>
</g>
</svg>
