<?xml version="1.0" standalone="no"?>
<!DOCTYPE svg PUBLIC "-//W3C//DTD SVG 20010904//EN"
 "http://www.w3.org/TR/2001/REC-SVG-20010904/DTD/svg10.dtd">
<svg version="1.0" xmlns="http://www.w3.org/2000/svg"
 width="32.000000pt" height="32.000000pt" viewBox="0 0 32.000000 32.000000"
 preserveAspectRatio="xMidYMid meet">
<metadata>
Created by potrace 1.16, written by Peter Selinger 2001-2019
</metadata>
<g transform="translate(0.000000,32.000000) scale(0.100000,-0.100000)"
fill="#000000" stroke="none">
<path fill="#000000" stroke="none" d="M0 160 l0 -160 160 0 160 0 0 160 0
160 -160 0 -160 0 0 -160z"/>
<path fill="#ffffff" stroke="none" d="M210 294 c22 -9 45 -25 51 -35 5 -11
17 -19 25 -19 9 0 14 -4 12 -9 -7 -18 -229 -223 -235 -217 -4 3 35 48 85 100
51 51 92 98 92 103 0 15 -42 50 -73 62 -16 6 -47 11 -70 11 -31 0 -38 3 -27
10 23 15 95 12 140 -6z"/>
</g>
</svg>
