<?xml version="1.0" standalone="no"?>
<!DOCTYPE svg PUBLIC "-//W3C//DTD SVG 20010904//EN"
 "http://www.w3.org/TR/2001/REC-SVG-20010904/DTD/svg10.dtd">
<svg version="1.0" xmlns="http://www.w3.org/2000/svg"
 width="32.000000pt" height="32.000000pt" viewBox="0 0 32.000000 32.000000"
 preserveAspectRatio="xMidYMid meet">
<metadata>
Created by potrace 1.16, written by Peter Selinger 2001-2019
</metadata>
<g transform="translate(0.000000,32.000000) scale(0.100000,-0.100000)"
fill="#000000" stroke="none">
<path fill="#000000" stroke="none" d="M0 160 l0 -160 160 0 160 0 0 160 0
160 -160 0 -160 0 0 -160z"/>
<path fill="#ffffff" stroke="none" d="M258 252 c-1 -5 -21 -37 -43 -71 -29
-45 -45 -60 -58 -57 -9 2 -15 0 -11 -5 8 -13 -10 -11 -24 3 -14 14 -16 32 -3
24 5 -4 7 2 5 11 -3 13 13 30 58 60 63 41 83 51 76 35z"/>
<path fill="#ffffff" stroke="none" d="M85 68 c6 -4 2 -8 -7 -8 -10 0 -18 7
-18 17 0 9 3 12 8 7 4 -5 12 -12 17 -16z"/>
<path fill="#000000" stroke="none" d="M195 198 l-40 -43 43 40 c39 36 47 45
39 45 -2 0 -21 -19 -42 -42z"/>
</g>
</svg>
