<?xml version="1.0" standalone="no"?>
<!DOCTYPE svg PUBLIC "-//W3C//DTD SVG 20010904//EN"
 "http://www.w3.org/TR/2001/REC-SVG-20010904/DTD/svg10.dtd">
<svg version="1.0" xmlns="http://www.w3.org/2000/svg"
 width="32.000000pt" height="32.000000pt" viewBox="0 0 32.000000 32.000000"
 preserveAspectRatio="xMidYMid meet">
<metadata>
Created by potrace 1.16, written by Peter Selinger 2001-2019
</metadata>
<g transform="translate(0.000000,32.000000) scale(0.100000,-0.100000)"
fill="#000000" stroke="none">
<path fill="#000000" stroke="none" d="M0 160 l0 -160 160 0 160 0 0 160 0
160 -160 0 -160 0 0 -160z"/>
<path fill="#ffffff" stroke="none" d="M220 192 c-61 -88 -57 -85 -91 -62 -16
12 -29 26 -29 32 0 6 6 6 15 -2 8 -7 15 -9 15 -6 0 4 7 0 16 -8 14 -15 18 -13
40 20 14 20 23 38 21 41 -3 2 -22 -8 -42 -22 -21 -14 -41 -22 -44 -19 -3 4 -1
9 6 11 6 2 35 21 65 42 29 21 56 36 60 34 4 -2 -11 -29 -32 -61z"/>
<path fill="#ffffff" stroke="none" d="M170 160 c0 -5 -4 -10 -10 -10 -5 0
-10 5 -10 10 0 6 5 10 10 10 6 0 10 -4 10 -10z"/>
<path fill="#ffffff" stroke="none" d="M81 73 c13 -16 12 -17 -3 -4 -10 7 -18
15 -18 17 0 8 8 3 21 -13z"/>
<path fill="#000000" stroke="none" d="M224 228 l-19 -23 23 19 c21 18 27 26
19 26 -2 0 -12 -10 -23 -22z"/>
</g>
</svg>
