<?xml version="1.0" standalone="no"?>
<!DOCTYPE svg PUBLIC "-//W3C//DTD SVG 20010904//EN"
 "http://www.w3.org/TR/2001/REC-SVG-20010904/DTD/svg10.dtd">
<svg version="1.0" xmlns="http://www.w3.org/2000/svg"
 width="32.000000pt" height="32.000000pt" viewBox="0 0 32.000000 32.000000"
 preserveAspectRatio="xMidYMid meet">
<metadata>
Created by potrace 1.16, written by Peter Selinger 2001-2019
</metadata>
<g transform="translate(0.000000,32.000000) scale(0.100000,-0.100000)"
fill="#000000" stroke="none">
<path fill="#000000" stroke="none" d="M40 160 l0 -120 26 0 c17 0 23 4 18 13
-6 9 -4 10 7 0 8 -9 44 -13 101 -13 l88 0 0 120 0 120 -120 0 -120 0 0 -120z"/>
<path fill="#ffffff" stroke="none" d="M270 264 c0 -5 -42 -66 -77 -113 -2 -2
-5 -2 -8 1 -3 2 9 23 26 46 17 23 29 42 26 42 -2 0 -21 -14 -42 -30 -21 -17
-41 -28 -44 -24 -3 3 1 9 9 14 8 5 33 22 55 39 39 30 55 37 55 25z"/>
<path fill="#ffffff" stroke="none" d="M111 167 c-10 -9 -11 -8 -5 6 3 10 9
15 12 12 3 -3 0 -11 -7 -18z"/>
<path fill="#ffffff" stroke="none" d="M137 158 c-3 -7 -5 -2 -5 12 0 14 2 19
5 13 2 -7 2 -19 0 -25z"/>
<path fill="#ffffff" stroke="none" d="M135 130 c3 -5 1 -10 -4 -10 -6 0 -11
5 -11 10 0 6 2 10 4 10 3 0 8 -4 11 -10z"/>
<path fill="#ffffff" stroke="none" d="M183 133 c-7 -2 -19 -2 -25 0 -7 3 -2
5 12 5 14 0 19 -2 13 -5z"/>
<path fill="#ffffff" stroke="none" d="M190 116 c0 -2 -7 -7 -16 -10 -8 -3
-12 -2 -9 4 6 10 25 14 25 6z"/>
</g>
</svg>
