<?xml version="1.0" standalone="no"?>
<!DOCTYPE svg PUBLIC "-//W3C//DTD SVG 20010904//EN"
 "http://www.w3.org/TR/2001/REC-SVG-20010904/DTD/svg10.dtd">
<svg version="1.0" xmlns="http://www.w3.org/2000/svg"
 width="32.000000pt" height="32.000000pt" viewBox="0 0 32.000000 32.000000"
 preserveAspectRatio="xMidYMid meet">
<metadata>
Created by potrace 1.16, written by Peter Selinger 2001-2019
</metadata>
<g transform="translate(0.000000,32.000000) scale(0.100000,-0.100000)"
fill="#000000" stroke="none">
<path fill="#000000" stroke="none" d="M0 160 l0 -160 160 0 160 0 0 160 0
160 -160 0 -160 0 0 -160z"/>
<path fill="#ffffff" stroke="none" d="M280 250 c-17 -33 -33 -60 -35 -60 -3
0 1 13 10 30 22 42 19 47 -12 19 -25 -22 -26 -22 -9 -1 21 24 9 30 -25 12 -10
-6 -19 -8 -19 -6 0 5 107 64 118 66 1 0 -11 -27 -28 -60z"/>
<path fill="#000000" stroke="none" d="M266 277 c-16 -12 -16 -14 -3 -14 9 0
18 6 21 14 7 16 4 16 -18 0z"/>
</g>
</svg>
