<?xml version="1.0" standalone="no"?>
<!DOCTYPE svg PUBLIC "-//W3C//DTD SVG 20010904//EN"
 "http://www.w3.org/TR/2001/REC-SVG-20010904/DTD/svg10.dtd">
<svg version="1.0" xmlns="http://www.w3.org/2000/svg"
 width="32.000000pt" height="32.000000pt" viewBox="0 0 32.000000 32.000000"
 preserveAspectRatio="xMidYMid meet">
<metadata>
Created by potrace 1.16, written by Peter Selinger 2001-2019
</metadata>
<g transform="translate(0.000000,32.000000) scale(0.100000,-0.100000)"
fill="#000000" stroke="none">
<path fill="#000000" stroke="none" d="M0 160 l0 -160 160 0 160 0 0 160 0
160 -160 0 -160 0 0 -160z"/>
<path fill="#ffffff" stroke="none" d="M305 270 c0 -32 -3 -35 -31 -38 -25 -2
-54 -26 -139 -113 -101 -102 -125 -121 -125 -101 0 5 51 59 113 120 88 88 118
112 140 112 21 0 27 5 27 21 0 19 -4 21 -30 16 -16 -4 -30 -3 -30 2 0 15 15
22 45 19 27 -3 30 -6 30 -38z"/>
</g>
</svg>
