<?xml version="1.0" standalone="no"?>
<!DOCTYPE svg PUBLIC "-//W3C//DTD SVG 20010904//EN"
 "http://www.w3.org/TR/2001/REC-SVG-20010904/DTD/svg10.dtd">
<svg version="1.0" xmlns="http://www.w3.org/2000/svg"
 width="32.000000pt" height="32.000000pt" viewBox="0 0 32.000000 32.000000"
 preserveAspectRatio="xMidYMid meet">
<metadata>
Created by potrace 1.16, written by Peter Selinger 2001-2019
</metadata>
<g transform="translate(0.000000,32.000000) scale(0.100000,-0.100000)"
fill="#000000" stroke="none">
<path fill="#000000" stroke="none" d="M212 294 c-23 -16 -29 -48 -12 -59 6
-4 8 -11 4 -16 -4 -6 -14 -3 -26 8 -19 17 -19 17 -7 -10 12 -27 11 -30 -37
-75 -28 -26 -59 -58 -70 -72 l-19 -25 25 19 c14 11 46 42 72 70 45 48 48 49
75 37 27 -12 27 -12 10 7 -11 12 -14 22 -8 26 5 4 12 2 16 -4 11 -17 43 -11
59 12 19 27 11 39 -8 12 -12 -15 -17 -16 -27 -7 -10 10 -8 18 11 38 31 33 18
46 -15 15 -20 -19 -28 -21 -38 -11 -9 10 -8 15 7 27 27 19 15 27 -12 8z"/>
<path fill="#000000" stroke="none" d="M13 35 c0 -17 5 -22 23 -23 19 0 22 4
14 18 -15 29 -37 32 -37 5z"/>
</g>
</svg>
