<?xml version="1.0" standalone="no"?>
<!DOCTYPE svg PUBLIC "-//W3C//DTD SVG 20010904//EN"
 "http://www.w3.org/TR/2001/REC-SVG-20010904/DTD/svg10.dtd">
<svg version="1.0" xmlns="http://www.w3.org/2000/svg"
 width="32.000000pt" height="32.000000pt" viewBox="0 0 32.000000 32.000000"
 preserveAspectRatio="xMidYMid meet">
<metadata>
Created by potrace 1.16, written by Peter Selinger 2001-2019
</metadata>
<g transform="translate(0.000000,32.000000) scale(0.100000,-0.100000)"
fill="#000000" stroke="none">
<path fill="#000000" stroke="none" d="M215 296 c-13 -10 -17 -21 -12 -43 8
-39 -1 -48 -27 -26 -21 18 -21 18 -5 -2 9 -11 14 -27 11 -35 -2 -8 -1 -12 3
-7 5 4 20 0 34 -9 l26 -15 -22 19 c-15 13 -18 23 -12 33 5 8 9 10 9 5 0 -12
49 33 62 58 12 22 -3 15 -39 -17 -21 -19 -23 -19 -29 -2 -5 12 -1 23 11 31 10
8 16 16 14 19 -3 3 -14 -1 -24 -9z"/>
<path fill="#000000" stroke="none" d="M286 224 c-4 -10 -14 -14 -26 -11 -11
3 -20 1 -20 -4 0 -18 49 -9 60 11 6 11 7 20 1 20 -5 0 -12 -7 -15 -16z"/>
<path fill="#000000" stroke="none" d="M14 33 c-2 -18 1 -21 10 -14 9 7 17 7
25 -2 10 -9 10 -7 0 10 -19 32 -34 34 -35 6z"/>
</g>
</svg>
