<?xml version="1.0" standalone="no"?>
<!DOCTYPE svg PUBLIC "-//W3C//DTD SVG 20010904//EN"
 "http://www.w3.org/TR/2001/REC-SVG-20010904/DTD/svg10.dtd">
<svg version="1.0" xmlns="http://www.w3.org/2000/svg"
 width="32.000000pt" height="32.000000pt" viewBox="0 0 32.000000 32.000000"
 preserveAspectRatio="xMidYMid meet">
<metadata>
Created by potrace 1.16, written by Peter Selinger 2001-2019
</metadata>
<g transform="translate(0.000000,32.000000) scale(0.100000,-0.100000)"
fill="#000000" stroke="none">
<path fill="#000000" stroke="none" d="M227 293 c-2 -5 -7 -21 -11 -38 -5 -18
-45 -68 -109 -132 -55 -57 -97 -106 -93 -110 3 -4 51 37 105 91 65 65 110 102
136 111 22 7 41 19 43 26 4 11 2 12 -9 2 -7 -7 -20 -13 -28 -13 -10 0 -8 7 9
25 31 32 17 46 -15 15 -18 -17 -25 -19 -25 -9 0 8 5 20 12 27 9 9 9 12 1 12
-7 0 -14 -3 -16 -7z"/>
</g>
</svg>
