<?xml version="1.0" standalone="no"?>
<!DOCTYPE svg PUBLIC "-//W3C//DTD SVG 20010904//EN"
 "http://www.w3.org/TR/2001/REC-SVG-20010904/DTD/svg10.dtd">
<svg version="1.0" xmlns="http://www.w3.org/2000/svg"
 width="32.000000pt" height="32.000000pt" viewBox="0 0 32.000000 32.000000"
 preserveAspectRatio="xMidYMid meet">
<metadata>
Created by potrace 1.16, written by Peter Selinger 2001-2019
</metadata>
<g transform="translate(0.000000,32.000000) scale(0.100000,-0.100000)"
fill="#000000" stroke="none">
<path fill="#000000" stroke="none" d="M216 279 c-22 -17 -24 -24 -15 -35 10
-12 6 -22 -18 -52 -17 -20 -33 -36 -36 -35 -9 3 -64 -51 -60 -58 2 -4 -16 -23
-38 -44 -22 -20 -38 -39 -36 -42 3 -2 22 14 42 36 21 22 40 40 44 38 7 -4 61
51 60 61 -1 4 15 20 35 36 28 23 38 26 49 18 11 -9 17 -8 29 6 27 31 33 48 10
28 -30 -26 -37 -15 -11 18 27 35 18 44 -17 17 -32 -25 -45 -19 -19 9 24 26 15
26 -19 -1z"/>
</g>
</svg>
