<?xml version="1.0" standalone="no"?>
<!DOCTYPE svg PUBLIC "-//W3C//DTD SVG 20010904//EN"
 "http://www.w3.org/TR/2001/REC-SVG-20010904/DTD/svg10.dtd">
<svg version="1.0" xmlns="http://www.w3.org/2000/svg"
 width="32.000000pt" height="32.000000pt" viewBox="0 0 32.000000 32.000000"
 preserveAspectRatio="xMidYMid meet">
<metadata>
Created by potrace 1.16, written by Peter Selinger 2001-2019
</metadata>
<g transform="translate(0.000000,32.000000) scale(0.100000,-0.100000)"
fill="#000000" stroke="none">
<path fill="#000000" stroke="none" d="M0 160 l0 -160 160 0 160 0 0 160 0
160 -160 0 -160 0 0 -160z"/>
<path fill="#ffffff" stroke="none" d="M310 302 c0 -14 -106 -113 -113 -105
-4 4 16 31 45 60 50 50 68 63 68 45z"/>
<path fill="#ffffff" stroke="none" d="M180 245 c-24 -25 -46 -45 -49 -45 -3
0 15 20 39 45 24 25 46 45 49 45 3 0 -15 -20 -39 -45z"/>
<path fill="#ffffff" stroke="none" d="M290 217 c0 -1 -24 -25 -52 -52 l-53
-50 50 53 c46 48 55 57 55 49z"/>
<path fill="#000000" stroke="none" d="M229 233 l-34 -38 38 34 c34 33 42 41
34 41 -2 0 -19 -17 -38 -37z"/>
</g>
</svg>
