<?xml version="1.0" standalone="no"?>
<!DOCTYPE svg PUBLIC "-//W3C//DTD SVG 20010904//EN"
 "http://www.w3.org/TR/2001/REC-SVG-20010904/DTD/svg10.dtd">
<svg version="1.0" xmlns="http://www.w3.org/2000/svg"
 width="32.000000pt" height="32.000000pt" viewBox="0 0 32.000000 32.000000"
 preserveAspectRatio="xMidYMid meet">
<metadata>
Created by potrace 1.16, written by Peter Selinger 2001-2019
</metadata>
<g transform="translate(0.000000,32.000000) scale(0.100000,-0.100000)"
fill="#000000" stroke="none">
<path fill="#000000" stroke="none" d="M0 160 l0 -160 160 0 160 0 0 160 0
160 -160 0 -160 0 0 -160z"/>
<path fill="#ffffff" stroke="none" d="M310 297 c0 -7 -38 -50 -84 -96 -47
-47 -82 -89 -79 -94 3 -5 37 22 75 59 39 38 69 64 67 57 -5 -13 -128 -143
-136 -143 -3 0 -11 7 -17 16 -10 14 -14 13 -34 -4 -12 -10 -19 -22 -15 -26 3
-3 0 -6 -8 -6 -17 0 -50 -36 -42 -44 4 -3 1 -6 -5 -6 -28 0 -18 23 30 69 43
41 49 51 35 57 -9 3 -17 10 -17 14 0 10 128 134 143 139 7 2 -19 -28 -57 -67
-37 -38 -64 -72 -59 -75 5 -3 47 32 94 79 80 80 109 99 109 71z"/>
</g>
</svg>
