<?xml version="1.0" standalone="no"?>
<!DOCTYPE svg PUBLIC "-//W3C//DTD SVG 20010904//EN"
 "http://www.w3.org/TR/2001/REC-SVG-20010904/DTD/svg10.dtd">
<svg version="1.0" xmlns="http://www.w3.org/2000/svg"
 width="32.000000pt" height="32.000000pt" viewBox="0 0 32.000000 32.000000"
 preserveAspectRatio="xMidYMid meet">
<metadata>
Created by potrace 1.16, written by Peter Selinger 2001-2019
</metadata>
<g transform="translate(0.000000,32.000000) scale(0.100000,-0.100000)"
fill="#000000" stroke="none">
<path fill="#000000" stroke="none" d="M0 160 l0 -160 160 0 160 0 0 116 c0
103 -2 115 -15 104 -8 -7 -21 -24 -28 -39 -13 -28 -52 -40 -71 -21 -8 9 -4 10
16 5 23 -6 30 -2 51 32 23 37 30 61 15 56 -13 -5 -9 9 8 28 9 10 11 20 6 23
-5 3 -15 -1 -22 -9 -13 -16 -32 -21 -27 -7 5 15 -19 8 -56 -15 -29 -18 -38
-30 -34 -44 3 -10 1 -19 -4 -19 -5 0 -9 11 -9 25 0 18 11 32 40 50 22 14 40
27 40 30 0 3 -52 5 -115 5 l-115 0 0 -160z"/>
<path fill="#ffffff" stroke="none" d="M244 285 c-7 -17 -74 -58 -74 -44 0 5
10 13 23 18 13 5 29 16 36 25 17 20 22 20 15 1z"/>
<path fill="#ffffff" stroke="none" d="M269 261 c-39 -45 -58 -56 -73 -41 -7
7 -5 10 5 10 7 0 32 16 54 35 52 45 55 44 14 -4z"/>
<path fill="#ffffff" stroke="none" d="M282 227 c-12 -13 -22 -29 -22 -35 0
-7 -10 -11 -22 -11 -17 1 -19 2 -5 6 9 2 17 9 17 14 0 10 37 49 47 49 3 0 -3
-10 -15 -23z"/>
<path fill="#ffffff" stroke="none" d="M145 140 c-21 -22 -42 -40 -47 -40 -7
0 73 79 82 80 2 0 -14 -18 -35 -40z"/>
<path fill="#ffffff" stroke="none" d="M23 25 c-3 -9 -8 -14 -10 -11 -3 3 -2
9 2 15 9 16 15 13 8 -4z"/>
</g>
</svg>
