<?xml version="1.0" standalone="no"?>
<!DOCTYPE svg PUBLIC "-//W3C//DTD SVG 20010904//EN"
 "http://www.w3.org/TR/2001/REC-SVG-20010904/DTD/svg10.dtd">
<svg version="1.0" xmlns="http://www.w3.org/2000/svg"
 width="32.000000pt" height="32.000000pt" viewBox="0 0 32.000000 32.000000"
 preserveAspectRatio="xMidYMid meet">
<metadata>
Created by potrace 1.16, written by Peter Selinger 2001-2019
</metadata>
<g transform="translate(0.000000,32.000000) scale(0.100000,-0.100000)"
fill="#000000" stroke="none">
<path fill="#000000" stroke="none" d="M193 288 c-31 -21 -43 -36 -43 -54 0
-13 4 -24 9 -24 5 0 7 9 4 19 -4 15 6 26 39 47 43 27 55 30 51 13 -2 -5 2 -9
9 -9 6 0 -2 -13 -18 -29 -16 -16 -35 -26 -44 -23 -12 4 -13 2 -3 -9 11 -11 19
-7 48 21 19 19 35 29 35 22 0 -7 4 -11 9 -9 15 4 9 -16 -16 -56 -21 -34 -28
-38 -51 -32 -20 5 -24 4 -16 -5 18 -18 57 -8 70 17 6 13 18 31 26 40 9 11 15
34 14 58 -1 40 -1 40 -41 41 -29 1 -52 -7 -82 -28z"/>
<path fill="#ffffff" stroke="none" d="M299 284 c-6 -7 -15 -11 -21 -8 -5 3
-4 12 3 20 6 7 15 11 21 8 5 -3 4 -12 -3 -20z"/>
<path fill="#000000" stroke="none" d="M175 249 c-11 -16 -1 -19 13 -3 7 8 8
14 3 14 -5 0 -13 -5 -16 -11z"/>
<path fill="#000000" stroke="none" d="M250 202 c0 -6 -8 -13 -17 -15 -16 -4
-16 -5 -1 -6 18 -1 34 16 24 26 -3 4 -6 1 -6 -5z"/>
</g>
</svg>
