<?xml version="1.0" standalone="no"?>
<!DOCTYPE svg PUBLIC "-//W3C//DTD SVG 20010904//EN"
 "http://www.w3.org/TR/2001/REC-SVG-20010904/DTD/svg10.dtd">
<svg version="1.0" xmlns="http://www.w3.org/2000/svg"
 width="32.000000pt" height="32.000000pt" viewBox="0 0 32.000000 32.000000"
 preserveAspectRatio="xMidYMid meet">
<metadata>
Created by potrace 1.16, written by Peter Selinger 2001-2019
</metadata>
<g transform="translate(0.000000,32.000000) scale(0.100000,-0.100000)"
fill="#000000" stroke="none">
<path fill="#000000" stroke="none" d="M0 160 l0 -160 160 0 160 0 0 116 c0
103 -2 115 -15 104 -8 -7 -21 -24 -28 -39 -15 -32 -57 -40 -78 -15 -13 16 -12
16 8 6 33 -18 41 -15 66 26 24 36 30 60 15 55 -13 -5 -9 9 8 28 9 10 11 20 6
23 -5 3 -15 -1 -22 -9 -13 -16 -32 -21 -27 -7 5 15 -19 8 -56 -15 -29 -18 -38
-30 -34 -44 3 -10 1 -19 -4 -19 -5 0 -9 11 -9 25 0 18 11 32 40 50 22 14 40
27 40 30 0 3 -52 5 -115 5 l-115 0 0 -160z"/>
<path fill="#ffffff" stroke="none" d="M240 279 c-6 -11 -21 -24 -32 -28 -12
-4 -17 -10 -11 -14 6 -4 32 10 59 30 l48 37 -37 -48 c-20 -27 -34 -53 -30 -59
4 -6 10 -1 14 11 4 11 17 26 28 31 17 10 17 6 -6 -29 -28 -43 -49 -51 -56 -22
-3 13 -27 -7 -101 -82 -53 -54 -100 -96 -103 -92 -3 3 31 40 75 82 45 42 79
81 76 85 -3 5 -18 6 -33 3 -16 -3 -31 -2 -34 2 -3 5 16 10 41 11 43 2 88 23
49 23 -29 0 -19 25 21 52 20 14 38 26 40 27 1 1 -2 -8 -8 -20z"/>
</g>
</svg>
