<?xml version="1.0" standalone="no"?>
<!DOCTYPE svg PUBLIC "-//W3C//DTD SVG 20010904//EN"
 "http://www.w3.org/TR/2001/REC-SVG-20010904/DTD/svg10.dtd">
<svg version="1.0" xmlns="http://www.w3.org/2000/svg"
 width="32.000000pt" height="32.000000pt" viewBox="0 0 32.000000 32.000000"
 preserveAspectRatio="xMidYMid meet">
<metadata>
Created by potrace 1.16, written by Peter Selinger 2001-2019
</metadata>
<g transform="translate(0.000000,32.000000) scale(0.100000,-0.100000)"
fill="#000000" stroke="none">
<path fill="#000000" stroke="none" d="M0 160 l0 -160 160 0 160 0 0 160 0
160 -160 0 -160 0 0 -160z"/>
<path fill="#ffffff" stroke="none" d="M195 270 c4 -6 1 -9 -7 -8 -7 2 -12 -2
-11 -8 1 -6 -5 -11 -13 -11 -11 0 -11 4 3 19 19 21 20 21 28 8z"/>
<path fill="#ffffff" stroke="none" d="M225 240 c-3 -4 -29 -28 -58 -52 -53
-43 -49 -33 12 34 18 21 38 35 43 32 4 -3 6 -9 3 -14z"/>
<path fill="#ffffff" stroke="none" d="M290 210 c23 0 22 -4 -27 -50 -28 -28
-61 -50 -72 -50 -19 0 -18 3 10 45 16 24 34 47 40 50 5 4 6 12 3 18 -5 8 -3 8
7 0 7 -7 24 -13 39 -13z"/>
<path fill="#ffffff" stroke="none" d="M111 133 c13 -16 12 -17 -3 -4 -10 7
-18 15 -18 17 0 8 8 3 21 -13z"/>
<path fill="#ffffff" stroke="none" d="M31 53 c13 -16 12 -17 -3 -4 -17 13
-22 21 -14 21 2 0 10 -8 17 -17z"/>
</g>
</svg>
