<?xml version="1.0" standalone="no"?>
<!DOCTYPE svg PUBLIC "-//W3C//DTD SVG 20010904//EN"
 "http://www.w3.org/TR/2001/REC-SVG-20010904/DTD/svg10.dtd">
<svg version="1.0" xmlns="http://www.w3.org/2000/svg"
 width="32.000000pt" height="32.000000pt" viewBox="0 0 32.000000 32.000000"
 preserveAspectRatio="xMidYMid meet">
<metadata>
Created by potrace 1.16, written by Peter Selinger 2001-2019
</metadata>
<g transform="translate(0.000000,32.000000) scale(0.100000,-0.100000)"
fill="#000000" stroke="none">
<path fill="#000000" stroke="none" d="M0 159 c0 -152 1 -159 20 -159 11 0 20
5 20 10 0 6 18 30 40 54 38 41 39 44 19 49 -31 8 -15 25 39 40 60 18 90 55 74
92 -14 30 -40 32 -76 4 -26 -20 -46 -19 -46 5 0 14 41 56 54 56 5 0 -3 -9 -18
-21 -14 -11 -26 -27 -26 -35 0 -19 7 -18 37 6 14 11 34 20 44 20 19 0 49 -35
49 -59 0 -7 -38 -53 -85 -100 -77 -79 -99 -111 -77 -111 4 0 23 16 42 35 18
19 36 33 38 30 7 -7 62 24 62 35 0 16 -12 12 -39 -12 -14 -13 0 5 32 39 67 72
72 99 28 144 -16 16 -26 29 -21 29 16 0 60 -62 60 -85 0 -12 -9 -33 -19 -46
-20 -24 -19 -24 6 -45 16 -12 23 -26 19 -33 -4 -6 -47 -31 -94 -56 l-87 -44
113 0 112 -1 0 159 0 159 -160 0 -160 1 0 -160z"/>
</g>
</svg>
