<?xml version="1.0" standalone="no"?>
<!DOCTYPE svg PUBLIC "-//W3C//DTD SVG 20010904//EN"
 "http://www.w3.org/TR/2001/REC-SVG-20010904/DTD/svg10.dtd">
<svg version="1.0" xmlns="http://www.w3.org/2000/svg"
 width="32.000000pt" height="32.000000pt" viewBox="0 0 32.000000 32.000000"
 preserveAspectRatio="xMidYMid meet">
<metadata>
Created by potrace 1.16, written by Peter Selinger 2001-2019
</metadata>
<g transform="translate(0.000000,32.000000) scale(0.100000,-0.100000)"
fill="#000000" stroke="none">
<path fill="#000000" stroke="none" d="M121 294 c-49 -41 -35 -84 15 -45 36
28 62 26 76 -4 16 -37 -14 -74 -74 -92 -56 -16 -68 -30 -36 -42 20 -8 30 -2
71 37 55 54 65 82 43 113 -18 26 -62 34 -70 13 -3 -9 -10 -12 -16 -9 -5 3 -10
-1 -10 -9 0 -9 -4 -16 -10 -16 -19 0 -10 29 16 49 37 29 70 26 105 -8 27 -28
41 -81 20 -81 -5 0 -11 -10 -14 -22 l-6 -23 20 24 c28 35 24 68 -15 107 -41
41 -73 43 -115 8z"/>
<path fill="#000000" stroke="none" d="M200 145 c-5 -14 -15 -24 -21 -23 -6 2
-15 -8 -20 -22 l-10 -24 24 22 c25 24 37 28 37 12 0 -17 -56 -40 -68 -28 -8 8
-14 4 -22 -16 -5 -15 -15 -24 -21 -21 -6 4 -13 -2 -16 -14 -3 -12 -9 -21 -14
-21 -17 0 -9 24 19 55 15 17 10 14 -10 -7 -45 -44 -48 -58 -10 -58 30 1 204
88 209 106 2 6 -12 23 -32 38 l-35 27 -10 -26z"/>
</g>
</svg>
