<?xml version="1.0" standalone="no"?>
<!DOCTYPE svg PUBLIC "-//W3C//DTD SVG 20010904//EN"
 "http://www.w3.org/TR/2001/REC-SVG-20010904/DTD/svg10.dtd">
<svg version="1.0" xmlns="http://www.w3.org/2000/svg"
 width="32.000000pt" height="32.000000pt" viewBox="0 0 32.000000 32.000000"
 preserveAspectRatio="xMidYMid meet">
<metadata>
Created by potrace 1.16, written by Peter Selinger 2001-2019
</metadata>
<g transform="translate(0.000000,32.000000) scale(0.100000,-0.100000)"
fill="#000000" stroke="none">
<path fill="#000000" stroke="none" d="M170 295 c-9 -11 -16 -13 -24 -5 -18
18 -26 11 -14 -15 6 -14 15 -25 20 -25 4 0 8 -12 8 -26 l0 -26 -26 32 c-15 17
-29 29 -31 26 -3 -3 -15 -1 -28 4 -13 5 -26 6 -30 2 -4 -4 -12 -7 -18 -7 -7 0
-13 -11 -15 -25 -3 -24 -3 -24 11 -6 16 22 41 17 56 -13 10 -17 8 -19 -12 -16
-30 6 -44 -5 -52 -40 l-6 -30 16 28 c14 24 21 28 43 22 34 -9 33 -7 37 -52 1
-21 1 -30 -2 -21 -5 19 -33 25 -33 8 0 -15 23 -63 38 -82 23 -27 98 -23 147 7
22 14 33 25 25 26 -8 0 -3 6 11 12 22 10 25 16 18 35 -9 25 -38 40 -48 25 -3
-5 -14 -12 -23 -16 -23 -8 -24 15 -2 48 19 29 31 31 56 8 21 -19 24 -6 4 20
-29 38 -81 9 -96 -55 l-8 -33 -1 33 c-1 43 21 85 60 113 31 22 32 22 47 3 8
-10 12 -13 10 -5 -2 8 -11 18 -19 21 -8 4 -28 15 -46 24 -39 20 -57 20 -73 1z"/>
<path fill="#ffffff" stroke="none" d="M235 286 c18 -13 18 -14 -2 -20 -11 -3
-26 -18 -33 -31 l-14 -26 -11 28 c-22 51 16 82 60 49z"/>
<path fill="#ffffff" stroke="none" d="M123 213 c6 -16 15 -31 20 -34 4 -3 3
-16 -2 -30 -5 -13 -10 -17 -10 -9 -1 8 -10 32 -21 53 -23 42 -24 47 -10 47 6
0 16 -12 23 -27z"/>
<path fill="#ffffff" stroke="none" d="M294 111 c3 -4 3 -11 0 -14 -8 -8 -34
3 -34 14 0 11 27 12 34 0z"/>
<path fill="#000000" stroke="none" d="M43 128 c-15 -19 -34 -80 -23 -73 6 4
10 12 10 19 0 7 9 21 20 31 21 19 26 35 11 35 -5 0 -13 -6 -18 -12z"/>
</g>
</svg>
