<?xml version="1.0" standalone="no"?>
<!DOCTYPE svg PUBLIC "-//W3C//DTD SVG 20010904//EN"
 "http://www.w3.org/TR/2001/REC-SVG-20010904/DTD/svg10.dtd">
<svg version="1.0" xmlns="http://www.w3.org/2000/svg"
 width="32.000000pt" height="32.000000pt" viewBox="0 0 32.000000 32.000000"
 preserveAspectRatio="xMidYMid meet">
<metadata>
Created by potrace 1.16, written by Peter Selinger 2001-2019
</metadata>
<g transform="translate(0.000000,32.000000) scale(0.100000,-0.100000)"
fill="#000000" stroke="none">
<path fill="#000000" stroke="none" d="M0 160 l0 -160 160 0 160 0 0 160 0
160 -160 0 -160 0 0 -160z"/>
<path fill="#ffffff" stroke="none" d="M108 288 c3 -13 -3 -18 -22 -18 -20 0
-26 5 -26 21 0 15 5 20 22 17 13 -2 24 -11 26 -20z"/>
<path fill="#ffffff" stroke="none" d="M50 224 c0 -8 -9 -14 -20 -14 -19 0
-27 19 -14 33 10 9 34 -4 34 -19z"/>
<path fill="#ffffff" stroke="none" d="M260 230 c0 -13 -7 -20 -19 -20 -22 0
-35 15 -26 30 12 19 45 11 45 -10z"/>
<path fill="#ffffff" stroke="none" d="M180 195 c0 -8 -6 -15 -14 -15 -17 0
-28 14 -19 24 12 12 33 6 33 -9z"/>
<path fill="#ffffff" stroke="none" d="M277 164 c8 -21 -13 -42 -28 -27 -13
13 -5 43 11 43 6 0 13 -7 17 -16z"/>
</g>
</svg>
