<?xml version="1.0" standalone="no"?>
<!DOCTYPE svg PUBLIC "-//W3C//DTD SVG 20010904//EN"
 "http://www.w3.org/TR/2001/REC-SVG-20010904/DTD/svg10.dtd">
<svg version="1.0" xmlns="http://www.w3.org/2000/svg"
 width="32.000000pt" height="32.000000pt" viewBox="0 0 32.000000 32.000000"
 preserveAspectRatio="xMidYMid meet">
<metadata>
Created by potrace 1.16, written by Peter Selinger 2001-2019
</metadata>
<g transform="translate(0.000000,32.000000) scale(0.100000,-0.100000)"
fill="#000000" stroke="none">
<path fill="#000000" stroke="none" d="M1 160 l-1 -160 160 0 160 0 0 160 0
160 -159 0 -160 0 0 -160z"/>
<path fill="#ffffff" stroke="none" d="M26 275 c1 -8 -2 -13 -7 -9 -5 3 -9 12
-9 21 0 19 13 9 16 -12z"/>
<path fill="#ffffff" stroke="none" d="M90 70 c-8 -5 -23 -10 -33 -10 -10 0
-15 -4 -12 -10 3 -6 -4 -10 -17 -10 -18 0 -20 2 -8 10 13 9 13 10 0 11 -8 1 3
5 25 9 59 11 61 11 45 0z"/>
<path fill="#ffffff" stroke="none" d="M298 68 c-8 -24 -58 -41 -84 -29 -13 6
-24 15 -24 21 0 7 7 7 21 0 26 -14 62 -4 39 10 -11 7 -6 10 18 10 23 0 32 -4
30 -12z"/>
<path fill="#ffffff" stroke="none" d="M196 12 c-3 -2 -21 1 -41 8 -21 7 -55
10 -79 6 -29 -4 -37 -3 -26 4 8 5 27 10 41 10 14 0 34 6 44 14 16 12 21 10 42
-12 13 -14 21 -27 19 -30z"/>
</g>
</svg>
