<?xml version="1.0" standalone="no"?>
<!DOCTYPE svg PUBLIC "-//W3C//DTD SVG 20010904//EN"
 "http://www.w3.org/TR/2001/REC-SVG-20010904/DTD/svg10.dtd">
<svg version="1.0" xmlns="http://www.w3.org/2000/svg"
 width="32.000000pt" height="32.000000pt" viewBox="0 0 32.000000 32.000000"
 preserveAspectRatio="xMidYMid meet">
<metadata>
Created by potrace 1.16, written by Peter Selinger 2001-2019
</metadata>
<g transform="translate(0.000000,32.000000) scale(0.100000,-0.100000)"
fill="#000000" stroke="none">
<path fill="#000000" stroke="none" d="M0 159 l0 -159 160 0 160 0 0 160 0
161 -160 -2 -160 -1 0 -159z"/>
<path fill="#ffffff" stroke="none" d="M40 294 c-11 -12 -10 -18 3 -32 16 -15
17 -14 17 11 0 47 44 49 52 2 2 -15 -3 -21 -20 -23 -23 -4 -23 -4 10 -34 18
-17 28 -28 21 -24 -9 5 -9 -3 -1 -31 13 -51 24 -60 32 -28 4 15 5 30 1 33 -3
3 -5 -3 -6 -14 0 -16 -1 -16 -9 4 -14 33 6 71 33 64 20 -5 20 -5 2 26 -15 25
-16 33 -6 46 19 23 42 20 81 -9 19 -14 39 -25 45 -25 7 0 12 -7 12 -15 0 -8
-3 -15 -7 -15 -4 0 -12 -18 -19 -41 -11 -38 -11 -42 8 -56 25 -17 27 -36 4
-54 -15 -13 -15 -12 -5 7 6 12 8 24 5 28 -15 15 -35 4 -48 -26 -26 -63 -105
-99 -136 -62 -11 14 -13 14 -21 0 -5 -9 -20 -16 -34 -16 -31 0 -45 33 -31 75
20 62 48 69 68 17 17 -45 31 -4 14 44 -13 40 -41 55 -38 20 1 -13 -2 -15 -10
-7 -7 7 -5 16 8 31 14 16 16 23 7 32 -9 9 -12 8 -12 -5 0 -10 -8 -17 -19 -17
-16 0 -19 7 -19 47 0 51 3 63 20 63 6 0 6 -6 -2 -16z"/>
<path fill="#000000" stroke="none" d="M183 292 c-8 -5 -5 -18 11 -45 24 -39
36 -39 36 0 0 12 6 23 13 23 7 0 4 7 -7 15 -22 17 -35 18 -53 7z"/>
<path fill="#000000" stroke="none" d="M192 173 c-19 -48 -25 -83 -14 -83 16
0 23 16 28 65 4 52 1 56 -14 18z"/>
<path fill="#000000" stroke="none" d="M42 104 c-16 -33 -16 -31 16 -36 25 -4
28 -1 24 19 -7 38 -27 47 -40 17z"/>
<path fill="#000000" stroke="none" d="M215 120 c-3 -5 -3 -15 1 -21 6 -11 23
6 24 24 0 10 -18 9 -25 -3z"/>
</g>
</svg>
