<?xml version="1.0" standalone="no"?>
<!DOCTYPE svg PUBLIC "-//W3C//DTD SVG 20010904//EN"
 "http://www.w3.org/TR/2001/REC-SVG-20010904/DTD/svg10.dtd">
<svg version="1.0" xmlns="http://www.w3.org/2000/svg"
 width="32.000000pt" height="32.000000pt" viewBox="0 0 32.000000 32.000000"
 preserveAspectRatio="xMidYMid meet">
<metadata>
Created by potrace 1.16, written by Peter Selinger 2001-2019
</metadata>
<g transform="translate(0.000000,32.000000) scale(0.100000,-0.100000)"
fill="#000000" stroke="none">
<path fill="#000000" stroke="none" d="M0 160 l0 -160 160 0 160 0 0 40 c0 41
-11 49 -40 30 -13 -9 -13 -10 0 -10 8 0 -3 -11 -25 -25 -75 -46 -163 -28 -168
34 -1 14 -8 21 -22 22 -11 0 -14 3 -7 6 6 2 12 10 12 16 0 6 -12 0 -27 -14
-14 -13 -23 -18 -19 -11 4 7 2 12 -6 12 -9 0 -9 3 2 10 12 8 12 10 1 10 -10 0
-12 8 -7 32 8 40 14 46 27 28 9 -13 10 -13 8 0 -1 8 -1 24 0 35 1 15 3 17 10
6 5 -7 11 -9 14 -5 3 5 -1 15 -9 22 -11 10 -17 9 -34 -8 l-20 -20 0 20 c0 47
86 44 127 -4 l26 -31 -6 27 c-4 15 -3 29 3 33 5 3 12 -6 16 -21 l7 -26 16 26
c9 14 25 29 35 32 19 6 19 7 1 20 -25 19 -35 18 -36 -3 0 -11 -3 -13 -6 -6 -4
10 -7 10 -18 0 -35 -31 -45 -37 -46 -30 -1 4 -2 15 -3 23 0 8 -7 14 -13 12
-16 -3 -17 14 -2 23 5 4 18 0 28 -9 13 -12 20 -13 29 -4 18 18 43 18 76 1 17
-9 37 -19 45 -23 8 -3 16 -13 18 -21 3 -8 0 -7 -7 4 -13 21 -30 22 -30 2 0 -8
-3 -14 -7 -14 -23 4 -33 -3 -33 -22 0 -11 -4 -18 -9 -14 -15 8 -31 -29 -30
-67 l1 -33 10 35 c5 19 17 43 25 53 21 23 60 22 73 -2 15 -28 13 -33 -10 -21
-11 6 -20 7 -20 3 0 -4 -4 -2 -9 6 -7 11 -13 7 -25 -17 -23 -44 -21 -57 7 -40
32 20 50 17 64 -12 11 -22 13 -9 13 93 l0 117 -160 0 -160 0 0 -160z"/>
<path fill="#ffffff" stroke="none" d="M254 145 c-4 -8 -11 -15 -16 -15 -6 0
-5 6 2 15 7 8 14 15 16 15 2 0 1 -7 -2 -15z"/>
<path fill="#ffffff" stroke="none" d="M25 60 c-3 -5 1 -10 10 -10 22 0 15
-34 -8 -38 -15 -3 -17 2 -13 25 5 35 5 33 12 33 3 0 2 -4 -1 -10z"/>
<path fill="#000000" stroke="none" d="M90 226 c0 -16 28 -42 36 -33 8 7 -14
47 -26 47 -6 0 -10 -6 -10 -14z"/>
<path fill="#000000" stroke="none" d="M60 172 c0 -5 -9 -12 -20 -15 -11 -3
-20 -11 -20 -17 0 -8 9 -10 23 -7 26 7 53 -10 60 -38 3 -13 5 -9 6 13 1 22 -4
32 -14 32 -8 0 -15 6 -15 14 0 8 -4 18 -10 21 -5 3 -10 2 -10 -3z"/>
<path fill="#000000" stroke="none" d="M260 111 c0 -11 26 -22 34 -14 3 3 3
10 0 14 -7 12 -34 11 -34 0z"/>
</g>
</svg>
