<?xml version="1.0" standalone="no"?>
<!DOCTYPE svg PUBLIC "-//W3C//DTD SVG 20010904//EN"
 "http://www.w3.org/TR/2001/REC-SVG-20010904/DTD/svg10.dtd">
<svg version="1.0" xmlns="http://www.w3.org/2000/svg"
 width="32.000000pt" height="32.000000pt" viewBox="0 0 32.000000 32.000000"
 preserveAspectRatio="xMidYMid meet">
<metadata>
Created by potrace 1.16, written by Peter Selinger 2001-2019
</metadata>
<g transform="translate(0.000000,32.000000) scale(0.100000,-0.100000)"
fill="#000000" stroke="none">
<path fill="#000000" stroke="none" d="M0 160 l0 -160 160 0 160 0 0 160 0
160 -160 0 -160 0 0 -160z"/>
<path fill="#ffffff" stroke="none" d="M108 259 c-17 -10 -28 -2 -21 17 4 11
8 12 20 3 11 -10 11 -14 1 -20z"/>
<path fill="#ffffff" stroke="none" d="M307 245 c0 -8 -4 -15 -8 -15 -4 0 -9
7 -13 15 -3 9 0 15 8 15 7 0 13 -7 13 -15z"/>
<path fill="#ffffff" stroke="none" d="M274 221 c4 -5 -3 -7 -14 -4 -23 6 -26
13 -6 13 8 0 17 -4 20 -9z"/>
<path fill="#ffffff" stroke="none" d="M262 200 c35 0 18 -25 -17 -26 -26 0
-35 4 -35 16 0 23 12 32 24 20 5 -5 18 -10 28 -10z"/>
<path fill="#ffffff" stroke="none" d="M180 190 c0 -5 -8 -10 -17 -10 -15 0
-16 2 -3 10 19 12 20 12 20 0z"/>
<path fill="#ffffff" stroke="none" d="M250 150 c0 -5 -7 -10 -16 -10 -8 0
-12 5 -9 10 3 6 10 10 16 10 5 0 9 -4 9 -10z"/>
</g>
</svg>
