<?xml version="1.0" standalone="no"?>
<!DOCTYPE svg PUBLIC "-//W3C//DTD SVG 20010904//EN"
 "http://www.w3.org/TR/2001/REC-SVG-20010904/DTD/svg10.dtd">
<svg version="1.0" xmlns="http://www.w3.org/2000/svg"
 width="32.000000pt" height="32.000000pt" viewBox="0 0 32.000000 32.000000"
 preserveAspectRatio="xMidYMid meet">
<metadata>
Created by potrace 1.16, written by Peter Selinger 2001-2019
</metadata>
<g transform="translate(0.000000,32.000000) scale(0.100000,-0.100000)"
fill="#000000" stroke="none">
<path fill="#000000" stroke="none" d="M38 309 c-21 -12 -24 -49 -6 -67 9 -9
9 -12 -2 -12 -11 0 -11 -3 -2 -12 8 -8 15 -8 26 1 17 14 26 2 51 -74 12 -35
14 -54 6 -76 -14 -41 5 -47 24 -7 l15 33 -3 -32 c-3 -26 -1 -30 10 -22 7 7 13
26 13 43 1 17 7 48 14 68 8 21 10 35 5 32 -5 -3 -9 4 -9 14 0 11 -7 22 -15 26
-11 4 -15 -1 -15 -17 0 -13 4 -27 9 -32 5 -6 3 -23 -4 -40 l-13 -30 -11 28
c-16 41 -12 68 4 32 8 -16 14 -24 15 -17 0 21 -20 53 -30 47 -6 -3 -15 5 -21
19 -7 14 -20 28 -30 31 -30 10 -43 33 -29 50 17 20 30 19 25 -3 -4 -21 26 -44
44 -33 8 5 4 16 -15 34 -30 30 -32 31 -56 16z"/>
<path fill="#000000" stroke="none" d="M170 295 c-11 -13 -9 -22 6 -53 10 -20
22 -39 25 -42 17 -15 17 -45 0 -81 -11 -21 -15 -41 -11 -44 10 -6 15 1 24 38
4 18 13 27 27 27 13 0 18 4 13 12 -4 6 -3 8 4 4 6 -3 14 3 18 16 4 13 2 24 -5
26 -12 4 11 32 27 32 5 0 9 7 9 15 0 8 -7 15 -14 15 -8 0 -12 -4 -9 -9 3 -4
-5 -6 -18 -4 -29 6 -42 -12 -24 -35 12 -15 11 -16 -4 -3 -10 7 -18 10 -18 5 0
-5 -11 9 -24 31 -18 29 -21 42 -13 47 20 13 36 9 57 -12 11 -11 20 -16 20 -11
0 14 -41 41 -61 41 -9 0 -22 -7 -29 -15z"/>
<path fill="#000000" stroke="none" d="M43 128 c-16 -20 -32 -76 -25 -83 4 -4
7 -11 7 -16 0 -13 17 -8 48 15 22 16 27 26 22 46 -12 45 -34 61 -52 38z"/>
<path fill="#ffffff" stroke="none" d="M82 87 c4 -20 1 -23 -24 -19 -32 5 -32
3 -16 36 13 30 33 21 40 -17z"/>
<path fill="#000000" stroke="none" d="M246 125 c-9 -9 -16 -20 -16 -24 0 -5
-12 -20 -27 -35 -14 -14 -23 -29 -20 -32 11 -12 48 18 62 51 13 32 33 44 48
29 3 -4 1 -16 -5 -28 -10 -20 -10 -20 8 -3 15 13 16 21 8 35 -15 23 -38 26
-58 7z"/>
</g>
</svg>
