<?xml version="1.0" standalone="no"?>
<!DOCTYPE svg PUBLIC "-//W3C//DTD SVG 20010904//EN"
 "http://www.w3.org/TR/2001/REC-SVG-20010904/DTD/svg10.dtd">
<svg version="1.0" xmlns="http://www.w3.org/2000/svg"
 width="32.000000pt" height="32.000000pt" viewBox="0 0 32.000000 32.000000"
 preserveAspectRatio="xMidYMid meet">
<metadata>
Created by potrace 1.16, written by Peter Selinger 2001-2019
</metadata>
<g transform="translate(0.000000,32.000000) scale(0.100000,-0.100000)"
fill="#000000" stroke="none">
<path fill="#000000" stroke="none" d="M0 273 l0 -46 23 21 c13 12 27 19 31
15 4 -4 4 1 0 12 -6 15 -4 17 10 12 9 -4 15 -3 11 2 -3 6 3 14 12 20 14 8 6
10 -34 11 l-53 0 0 -47z"/>
<path fill="#000000" stroke="none" d="M182 315 c3 -3 15 -8 28 -10 12 -2 42
-16 66 -30 l44 -26 0 36 0 35 -72 0 c-39 0 -69 -2 -66 -5z"/>
<path fill="#000000" stroke="none" d="M207 293 c-3 -4 1 -17 9 -28 14 -19 15
-19 11 2 -4 26 -13 38 -20 26z"/>
<path fill="#000000" stroke="none" d="M95 240 c-3 -5 -2 -10 4 -10 5 0 13 5
16 10 3 6 2 10 -4 10 -5 0 -13 -4 -16 -10z"/>
<path fill="#000000" stroke="none" d="M216 225 c4 -8 10 -15 15 -15 5 0 8
-11 7 -24 -1 -14 -6 -24 -11 -23 -5 1 -12 -4 -15 -12 -3 -11 1 -12 19 -7 13 4
29 8 36 10 22 4 26 15 9 22 -9 3 -16 10 -16 16 0 5 5 6 12 2 7 -4 8 -3 4 5 -4
6 -12 8 -18 5 -8 -5 -9 -1 -4 12 4 10 4 15 0 12 -4 -4 -15 -3 -25 3 -15 7 -17
6 -13 -6z"/>
<path fill="#000000" stroke="none" d="M299 233 c-1 -4 -2 -24 -3 -43 -1 -31
-6 -37 -49 -58 -54 -25 -176 -35 -163 -13 3 5 -2 15 -12 22 -15 13 -16 12 -3
-3 19 -26 -4 -23 -30 3 -11 11 -18 26 -16 33 3 6 -1 20 -9 31 -12 16 -14 5
-14 -93 l0 -112 48 1 c41 0 44 2 22 10 l-24 10 29 19 c17 11 30 28 30 37 0 14
10 18 47 20 41 2 47 0 50 -19 2 -12 18 -33 37 -45 20 -13 27 -23 18 -23 -9 0
-18 4 -21 9 -7 10 -44 3 -52 -10 -3 -5 27 -9 65 -9 l71 0 0 114 c0 66 -4 117
-10 121 -5 3 -11 3 -11 -2z"/>
<path fill="#000000" stroke="none" d="M30 220 c-8 -5 -12 -12 -9 -15 4 -3 12
1 19 10 14 17 11 19 -10 5z"/>
<path fill="#000000" stroke="none" d="M119 9 c-10 -6 -7 -9 14 -9 29 0 35 5
14 13 -8 3 -20 1 -28 -4z"/>
</g>
</svg>
