<?xml version="1.0" standalone="no"?>
<!DOCTYPE svg PUBLIC "-//W3C//DTD SVG 20010904//EN"
 "http://www.w3.org/TR/2001/REC-SVG-20010904/DTD/svg10.dtd">
<svg version="1.0" xmlns="http://www.w3.org/2000/svg"
 width="32.000000pt" height="32.000000pt" viewBox="0 0 32.000000 32.000000"
 preserveAspectRatio="xMidYMid meet">
<metadata>
Created by potrace 1.16, written by Peter Selinger 2001-2019
</metadata>
<g transform="translate(0.000000,32.000000) scale(0.100000,-0.100000)"
fill="#000000" stroke="none">
<path fill="#000000" stroke="none" d="M0 271 l0 -46 41 43 c23 23 45 42 49
42 4 0 -10 -18 -32 -40 -21 -23 -38 -49 -38 -58 0 -15 -2 -15 -10 -2 -7 10
-10 -21 -10 -97 l0 -112 81 1 c45 0 75 4 68 8 -7 5 -19 6 -27 2 -10 -3 -13 -1
-8 6 9 14 -13 16 -34 3 -23 -16 -33 0 -10 16 12 8 24 13 26 10 7 -7 44 25 44
38 0 5 -5 3 -10 -5 -5 -8 -10 -11 -10 -6 0 5 -7 2 -17 -5 -15 -13 -15 -12 -5
7 6 12 8 24 5 28 -4 3 14 0 40 -8 25 -7 49 -11 52 -8 3 4 3 -1 0 -10 -4 -9 -2
-19 4 -23 6 -3 11 -13 11 -21 0 -10 -5 -12 -12 -7 -20 12 -37 12 -45 1 -3 -6
-1 -8 4 -5 6 4 13 0 17 -8 4 -11 23 -15 76 -15 l70 0 0 114 c0 76 -4 117 -12
122 -6 4 -8 3 -4 -4 3 -6 1 -14 -5 -18 -8 -4 -9 -3 -5 4 4 7 2 12 -5 12 -7 0
-10 3 -6 6 3 3 -3 15 -13 27 -16 17 -23 18 -42 9 -13 -6 -17 -11 -10 -11 7 -1
10 -5 7 -11 -3 -5 -2 -10 4 -10 6 0 8 -6 5 -14 -3 -9 3 -17 15 -21 12 -3 21
-11 21 -16 0 -5 5 -8 11 -6 6 1 14 -4 16 -11 3 -7 -1 -11 -9 -10 -7 2 -12 -4
-10 -12 2 -8 0 -12 -3 -8 -4 4 -25 -2 -46 -12 -49 -25 -95 -25 -137 0 -19 12
-30 15 -26 8 6 -10 3 -9 -9 1 -9 7 -14 17 -11 22 3 5 0 8 -8 7 -17 -4 -11 33
8 48 8 7 23 10 33 7 11 -3 30 9 53 35 48 53 56 57 79 36 12 -11 19 -13 19 -5
0 8 16 3 45 -13 l45 -27 0 35 0 34 -160 -1 -160 0 0 -46z"/>
<path fill="#ffffff" stroke="none" d="M111 260 c-30 -26 -45 -26 -31 0 6 11
21 20 33 20 l22 -1 -24 -19z"/>
</g>
</svg>
