<?xml version="1.0" standalone="no"?>
<!DOCTYPE svg PUBLIC "-//W3C//DTD SVG 20010904//EN"
 "http://www.w3.org/TR/2001/REC-SVG-20010904/DTD/svg10.dtd">
<svg version="1.0" xmlns="http://www.w3.org/2000/svg"
 width="32.000000pt" height="32.000000pt" viewBox="0 0 32.000000 32.000000"
 preserveAspectRatio="xMidYMid meet">
<metadata>
Created by potrace 1.16, written by Peter Selinger 2001-2019
</metadata>
<g transform="translate(0.000000,32.000000) scale(0.100000,-0.100000)"
fill="#000000" stroke="none">
<path fill="#000000" stroke="none" d="M0 160 l0 -160 160 0 160 0 0 160 0
160 -160 0 -160 0 0 -160z"/>
<path fill="#ffffff" stroke="none" d="M208 288 c5 -58 11 -83 19 -81 5 1 9
-9 9 -22 0 -13 -4 -23 -9 -22 -5 1 -12 -4 -14 -10 -6 -16 11 -17 38 -3 10 6
19 8 19 5 0 -12 -88 -43 -116 -40 -42 3 -74 15 -74 27 0 5 -6 8 -14 5 -19 -7
-33 12 -32 43 1 21 7 26 33 28 29 3 93 53 93 74 0 13 47 9 48 -4z"/>
<path fill="#ffffff" stroke="none" d="M198 50 c9 -14 8 -19 -3 -24 -8 -3 -17
-1 -21 5 -4 6 -11 6 -20 -2 -7 -6 -21 -9 -29 -5 -15 5 -14 9 1 35 15 25 21 28
39 19 11 -5 26 -18 33 -28z"/>
</g>
</svg>
