<?xml version="1.0" standalone="no"?>
<!DOCTYPE svg PUBLIC "-//W3C//DTD SVG 20010904//EN"
 "http://www.w3.org/TR/2001/REC-SVG-20010904/DTD/svg10.dtd">
<svg version="1.0" xmlns="http://www.w3.org/2000/svg"
 width="32.000000pt" height="32.000000pt" viewBox="0 0 32.000000 32.000000"
 preserveAspectRatio="xMidYMid meet">
<metadata>
Created by potrace 1.16, written by Peter Selinger 2001-2019
</metadata>
<g transform="translate(0.000000,32.000000) scale(0.100000,-0.100000)"
fill="#000000" stroke="none">
<path fill="#000000" stroke="none" d="M0 271 l0 -46 41 43 c23 23 45 42 49
42 5 0 -9 -17 -31 -38 -21 -22 -39 -47 -39 -58 0 -16 -2 -17 -10 -4 -7 10 -10
-21 -10 -97 l0 -112 80 1 c67 0 80 3 80 17 1 14 2 14 11 -2 8 -14 24 -17 79
-17 l70 0 0 113 0 113 -45 34 c-25 19 -45 36 -45 38 0 2 20 -8 45 -22 l45 -27
0 35 0 34 -160 0 -160 -1 0 -46z"/>
<path fill="#ffffff" stroke="none" d="M206 287 c9 -53 15 -71 23 -76 12 -8
10 -50 -2 -48 -5 1 -12 -4 -14 -10 -6 -16 11 -17 38 -3 10 6 19 8 19 5 0 -12
-88 -43 -116 -40 -42 3 -74 15 -74 27 0 5 -7 8 -15 5 -28 -11 -46 50 -20 69 9
7 24 10 34 7 11 -3 30 9 53 35 46 51 69 60 74 29z"/>
<path fill="#ffffff" stroke="none" d="M114 265 c-4 -8 -10 -12 -15 -9 -11 6
-2 24 11 24 5 0 7 -7 4 -15z"/>
<path fill="#ffffff" stroke="none" d="M125 90 c-3 -5 -12 -10 -18 -10 -7 0
-6 4 3 10 19 12 23 12 15 0z"/>
<path fill="#ffffff" stroke="none" d="M192 66 c10 -12 18 -27 18 -35 0 -11
-3 -11 -17 0 -15 12 -16 12 -8 -1 6 -12 5 -12 -5 -3 -9 9 -17 9 -31 0 -29 -18
-48 6 -26 31 9 10 17 24 17 30 0 16 32 3 52 -22z"/>
<path fill="#ffffff" stroke="none" d="M87 37 c0 -8 -6 -14 -14 -14 -9 0 -10
4 -2 14 6 7 12 13 14 13 1 0 2 -6 2 -13z"/>
</g>
</svg>
