<?xml version="1.0" standalone="no"?>
<!DOCTYPE svg PUBLIC "-//W3C//DTD SVG 20010904//EN"
 "http://www.w3.org/TR/2001/REC-SVG-20010904/DTD/svg10.dtd">
<svg version="1.0" xmlns="http://www.w3.org/2000/svg"
 width="32.000000pt" height="32.000000pt" viewBox="0 0 32.000000 32.000000"
 preserveAspectRatio="xMidYMid meet">
<metadata>
Created by potrace 1.16, written by Peter Selinger 2001-2019
</metadata>
<g transform="translate(0.000000,32.000000) scale(0.100000,-0.100000)"
fill="#000000" stroke="none">
<path fill="#000000" stroke="none" d="M1 160 l-1 -160 160 0 160 0 0 160 0
159 -159 0 -160 0 0 -159z"/>
<path fill="#ffffff" stroke="none" d="M201 292 c-10 -3 -10 -6 -1 -12 6 -4
13 -22 14 -41 2 -19 8 -33 13 -32 5 1 9 -9 9 -22 0 -13 -4 -23 -9 -22 -5 1
-12 -4 -14 -10 -6 -16 11 -17 38 -3 10 6 19 8 19 5 0 -12 -88 -43 -116 -40
-42 3 -74 15 -74 27 0 5 -6 8 -14 5 -19 -7 -33 12 -32 43 1 21 7 26 33 28 22
2 43 15 66 41 37 41 56 52 72 43 5 -3 3 -8 -4 -10z"/>
<path fill="#ffffff" stroke="none" d="M114 267 c7 4 3 0 -7 -9 -27 -25 -40
-22 -26 4 8 15 14 18 17 10 2 -7 9 -10 16 -5z"/>
<path fill="#ffffff" stroke="none" d="M30 240 c0 -5 -5 -10 -11 -10 -5 0 -7
5 -4 10 3 6 8 10 11 10 2 0 4 -4 4 -10z"/>
<path fill="#ffffff" stroke="none" d="M195 57 c18 -36 18 -34 0 -34 -8 0 -12
4 -10 8 6 8 -11 6 -38 -6 -28 -12 -44 10 -24 33 9 10 17 23 17 29 0 22 40 0
55 -30z"/>
</g>
</svg>
