<?xml version="1.0" standalone="no"?>
<!DOCTYPE svg PUBLIC "-//W3C//DTD SVG 20010904//EN"
 "http://www.w3.org/TR/2001/REC-SVG-20010904/DTD/svg10.dtd">
<svg version="1.0" xmlns="http://www.w3.org/2000/svg"
 width="32.000000pt" height="32.000000pt" viewBox="0 0 32.000000 32.000000"
 preserveAspectRatio="xMidYMid meet">
<metadata>
Created by potrace 1.16, written by Peter Selinger 2001-2019
</metadata>
<g transform="translate(0.000000,32.000000) scale(0.100000,-0.100000)"
fill="#000000" stroke="none">
<path fill="#000000" stroke="none" d="M81 304 c-14 -10 -37 -31 -52 -48 -22
-26 -25 -34 -16 -51 6 -11 11 -29 12 -39 2 -19 30 -46 48 -46 5 0 3 8 -4 18
-13 15 -12 16 3 3 10 -7 15 -17 12 -22 -14 -23 109 -12 163 14 41 19 48 27 45
49 -1 14 4 31 13 38 23 19 19 27 -29 55 -74 44 -157 56 -195 29z"/>
<path fill="#ffffff" stroke="none" d="M226 274 c1 -9 0 -13 -4 -10 -3 4 -7
14 -8 22 -1 9 0 13 4 10 3 -4 7 -14 8 -22z"/>
<path fill="#ffffff" stroke="none" d="M50 226 c0 -2 -8 -10 -17 -17 -16 -13
-17 -12 -4 4 13 16 21 21 21 13z"/>
<path fill="#ffffff" stroke="none" d="M246 215 c4 -8 10 -12 15 -9 5 3 6 -1
3 -9 -3 -8 2 -17 11 -21 9 -3 14 -10 10 -15 -3 -6 -12 -8 -19 -5 -8 3 -17 1
-21 -5 -3 -6 -14 -11 -23 -11 -16 1 -16 2 1 14 18 14 25 72 7 61 -5 -3 -10 -1
-10 4 0 16 20 13 26 -4z"/>
<path fill="#000000" stroke="none" d="M104 89 c-3 -5 -3 -13 0 -18 3 -5 -9
-18 -26 -29 l-32 -21 27 -10 c18 -7 35 -8 45 -2 11 6 24 6 35 -1 13 -7 22 -6
32 2 10 8 28 10 52 5 l38 -7 -35 24 c-19 13 -36 33 -38 45 -3 18 -10 21 -48
21 -24 0 -46 -4 -50 -9z"/>
</g>
</svg>
