<?xml version="1.0" standalone="no"?>
<!DOCTYPE svg PUBLIC "-//W3C//DTD SVG 20010904//EN"
 "http://www.w3.org/TR/2001/REC-SVG-20010904/DTD/svg10.dtd">
<svg version="1.0" xmlns="http://www.w3.org/2000/svg"
 width="32.000000pt" height="32.000000pt" viewBox="0 0 32.000000 32.000000"
 preserveAspectRatio="xMidYMid meet">
<metadata>
Created by potrace 1.16, written by Peter Selinger 2001-2019
</metadata>
<g transform="translate(0.000000,32.000000) scale(0.100000,-0.100000)"
fill="#000000" stroke="none">
<path fill="#000000" stroke="none" d="M0 160 l0 -160 160 0 160 0 0 160 0
160 -160 0 -160 0 0 -160z"/>
<path fill="#ffffff" stroke="none" d="M284 239 c-9 -10 -24 -19 -32 -19 -11
0 -7 9 13 30 31 33 49 22 19 -11z"/>
<path fill="#ffffff" stroke="none" d="M95 230 c16 -17 16 -20 3 -15 -9 4 -19
13 -22 21 -7 19 -2 18 19 -6z"/>
<path fill="#ffffff" stroke="none" d="M285 200 c-3 -5 -14 -10 -23 -10 -15 0
-15 2 -2 10 20 13 33 13 25 0z"/>
<path fill="#ffffff" stroke="none" d="M95 190 c3 -5 2 -10 -4 -10 -5 0 -13 5
-16 10 -3 6 -2 10 4 10 5 0 13 -4 16 -10z"/>
<path fill="#ffffff" stroke="none" d="M150 160 c-12 -17 -25 -29 -28 -26 -2
3 1 12 8 21 7 8 9 15 4 15 -4 0 1 6 12 14 28 21 29 12 4 -24z"/>
<path fill="#ffffff" stroke="none" d="M51 118 c-11 -18 -21 -27 -21 -20 0 16
31 64 38 58 2 -3 -5 -20 -17 -38z"/>
<path fill="#ffffff" stroke="none" d="M224 101 c-5 -6 -33 31 -33 44 -1 6 8
-1 19 -15 10 -14 17 -27 14 -29z"/>
<path fill="#ffffff" stroke="none" d="M130 106 c0 -2 -8 -10 -17 -17 -16 -13
-17 -12 -4 4 13 16 21 21 21 13z"/>
<path fill="#ffffff" stroke="none" d="M277 48 c-3 -7 -5 -2 -5 12 0 14 2 19
5 13 2 -7 2 -19 0 -25z"/>
<path fill="#ffffff" stroke="none" d="M197 18 c-3 -8 -6 -5 -6 6 -1 11 2 17
5 13 3 -3 4 -12 1 -19z"/>
</g>
</svg>
