<?xml version="1.0" standalone="no"?>
<!DOCTYPE svg PUBLIC "-//W3C//DTD SVG 20010904//EN"
 "http://www.w3.org/TR/2001/REC-SVG-20010904/DTD/svg10.dtd">
<svg version="1.0" xmlns="http://www.w3.org/2000/svg"
 width="32.000000pt" height="32.000000pt" viewBox="0 0 32.000000 32.000000"
 preserveAspectRatio="xMidYMid meet">
<metadata>
Created by potrace 1.16, written by Peter Selinger 2001-2019
</metadata>
<g transform="translate(0.000000,32.000000) scale(0.100000,-0.100000)"
fill="#000000" stroke="none">
<path fill="#000000" stroke="none" d="M0 160 l0 -160 160 0 160 0 0 160 0
160 -160 0 -160 0 0 -160z"/>
<path fill="#ffffff" stroke="none" d="M64 248 c-18 -29 -32 10 -17 48 6 15 8
13 14 -11 5 -15 6 -32 3 -37z"/>
<path fill="#ffffff" stroke="none" d="M274 298 c-4 -7 -18 -27 -30 -45 -26
-34 -31 -58 -11 -48 6 4 -1 -5 -18 -19 -16 -14 -39 -26 -49 -26 -19 0 -19 0 0
21 10 12 17 23 14 26 -4 4 89 103 98 103 2 0 0 -6 -4 -12z"/>
<path fill="#ffffff" stroke="none" d="M130 249 c0 8 2 12 5 9 3 -3 2 -20 -1
-38 l-7 -32 -22 37 c-13 21 -20 45 -17 57 4 19 7 17 23 -13 10 -19 18 -28 19
-20z"/>
<path fill="#ffffff" stroke="none" d="M184 251 c3 -4 -3 -16 -14 -26 -19 -17
-20 -17 -20 2 0 29 22 45 34 24z"/>
<path fill="#ffffff" stroke="none" d="M56 204 c15 -19 16 -19 9 0 -6 19 -5
19 15 1 11 -10 20 -21 20 -25 0 -17 -34 -19 -51 -4 -10 9 -22 14 -26 11 -5 -3
-10 5 -11 18 -2 28 21 28 44 -1z"/>
<path fill="#ffffff" stroke="none" d="M283 196 c-12 -16 -20 -20 -25 -13 -4
7 2 17 15 24 30 17 30 16 10 -11z"/>
<path fill="#ffffff" stroke="none" d="M65 122 c-6 -7 -35 18 -35 31 0 5 9 2
20 -8 11 -10 18 -20 15 -23z"/>
<path fill="#ffffff" stroke="none" d="M120 114 c0 -8 -5 -12 -10 -9 -6 4 -8
11 -5 16 9 14 15 11 15 -7z"/>
<path fill="#ffffff" stroke="none" d="M142 98 c-9 -9 -12 -7 -12 12 0 19 3
21 12 12 9 -9 9 -15 0 -24z"/>
<path fill="#ffffff" stroke="none" d="M211 98 c11 -21 11 -22 -4 -9 -10 7
-17 17 -17 22 0 15 9 10 21 -13z"/>
<path fill="#ffffff" stroke="none" d="M60 89 c-7 -11 -14 -18 -17 -15 -3 3 0
12 7 21 18 21 23 19 10 -6z"/>
<path fill="#ffffff" stroke="none" d="M107 85 c9 -25 -4 -29 -17 -6 -7 15 -7
21 0 21 6 0 13 -7 17 -15z"/>
<path fill="#ffffff" stroke="none" d="M180 65 c-7 -8 -20 -15 -29 -15 -13 1
-13 3 3 15 26 19 42 19 26 0z"/>
<path fill="#ffffff" stroke="none" d="M240 55 c-14 -7 -27 -11 -30 -9 -6 7
22 24 40 23 9 0 5 -6 -10 -14z"/>
<path fill="#ffffff" stroke="none" d="M200 40 c0 -5 -5 -10 -11 -10 -5 0 -7
5 -4 10 3 6 8 10 11 10 2 0 4 -4 4 -10z"/>
</g>
</svg>
