<?xml version="1.0" standalone="no"?>
<!DOCTYPE svg PUBLIC "-//W3C//DTD SVG 20010904//EN"
 "http://www.w3.org/TR/2001/REC-SVG-20010904/DTD/svg10.dtd">
<svg version="1.0" xmlns="http://www.w3.org/2000/svg"
 width="32.000000pt" height="32.000000pt" viewBox="0 0 32.000000 32.000000"
 preserveAspectRatio="xMidYMid meet">
<metadata>
Created by potrace 1.16, written by Peter Selinger 2001-2019
</metadata>
<g transform="translate(0.000000,32.000000) scale(0.100000,-0.100000)"
fill="#000000" stroke="none">
<path fill="#000000" stroke="none" d="M146 295 c-10 -8 -22 -12 -26 -10 -19
12 -18 -29 1 -55 13 -17 20 -37 16 -49 -3 -12 -1 -24 4 -27 15 -9 22 25 11 51
-10 22 -8 24 36 36 35 9 41 14 25 16 -12 3 -31 -1 -42 -6 -22 -12 -58 -15 -47
-4 3 4 12 8 19 9 27 5 101 43 84 43 -10 1 -32 -6 -50 -15 l-32 -17 19 22 c22
24 11 28 -18 6z"/>
<path fill="#000000" stroke="none" d="M75 270 c-10 -11 -16 -22 -14 -24 2 -2
12 7 22 20 22 29 17 32 -8 4z"/>
<path fill="#000000" stroke="none" d="M21 254 c0 -11 3 -14 6 -6 3 7 2 16 -1
19 -3 4 -6 -2 -5 -13z"/>
<path fill="#000000" stroke="none" d="M10 215 c0 -16 7 -20 35 -21 36 -1 36
12 0 18 -11 1 -23 8 -27 13 -4 6 -8 1 -8 -10z"/>
<path fill="#000000" stroke="none" d="M168 213 c7 -3 16 -2 19 1 4 3 -2 6
-13 5 -11 0 -14 -3 -6 -6z"/>
<path fill="#000000" stroke="none" d="M203 194 c-14 -14 -22 -28 -18 -32 4
-4 10 -2 12 5 2 7 12 9 21 6 9 -3 14 -2 9 2 -4 5 0 17 10 27 26 28 -4 22 -34
-8z"/>
<path fill="#000000" stroke="none" d="M96 194 c-3 -8 -2 -24 4 -34 7 -13 6
-19 -6 -24 -23 -9 -27 -7 -20 9 3 8 3 15 1 15 -7 0 -67 -91 -63 -95 2 -2 23
12 47 31 24 18 48 34 53 34 6 0 7 8 3 18 -4 9 -7 27 -6 40 1 26 -4 29 -13 6z"/>
<path fill="#ffffff" stroke="none" d="M70 126 c0 -2 -8 -10 -17 -17 -16 -13
-17 -12 -4 4 13 16 21 21 21 13z"/>
<path fill="#000000" stroke="none" d="M265 200 c-8 -13 5 -13 25 0 13 8 13
10 -2 10 -9 0 -20 -4 -23 -10z"/>
<path fill="#000000" stroke="none" d="M275 162 c3 -19 -7 -44 -19 -43 -24 3
-27 -1 -10 -15 10 -8 14 -13 7 -10 -6 4 -15 1 -19 -5 -4 -8 -3 -9 4 -5 16 9
15 -7 0 -22 -6 -6 -9 -14 -6 -17 2 -3 17 18 32 46 16 28 25 53 22 56 -3 4 -1
12 5 20 9 10 8 13 -4 13 -10 0 -15 -7 -12 -18z"/>
<path fill="#000000" stroke="none" d="M294 117 c-1 -30 1 -36 6 -22 11 26 12
65 3 65 -5 0 -9 -19 -9 -43z"/>
<path fill="#000000" stroke="none" d="M170 130 c8 -5 24 -10 35 -10 17 0 17
2 5 10 -8 5 -24 10 -35 10 -17 0 -17 -2 -5 -10z"/>
<path fill="#000000" stroke="none" d="M130 122 c0 -20 30 -86 36 -79 3 3 1
14 -5 25 -16 29 -14 39 3 16 8 -10 17 -16 20 -13 3 3 -8 18 -24 34 -17 16 -30
23 -30 17z"/>
<path fill="#000000" stroke="none" d="M107 113 c-4 -3 -7 -11 -7 -17 0 -6 5
-5 12 2 6 6 9 14 7 17 -3 3 -9 2 -12 -2z"/>
<path fill="#000000" stroke="none" d="M60 75 c-13 -14 -19 -25 -14 -25 11 0
47 40 41 46 -2 2 -14 -7 -27 -21z"/>
<path fill="#000000" stroke="none" d="M90 65 c0 -5 5 -17 10 -25 5 -8 10 -10
10 -5 0 6 -5 17 -10 25 -5 8 -10 11 -10 5z"/>
</g>
</svg>
