<?xml version="1.0" standalone="no"?>
<!DOCTYPE svg PUBLIC "-//W3C//DTD SVG 20010904//EN"
 "http://www.w3.org/TR/2001/REC-SVG-20010904/DTD/svg10.dtd">
<svg version="1.0" xmlns="http://www.w3.org/2000/svg"
 width="32.000000pt" height="32.000000pt" viewBox="0 0 32.000000 32.000000"
 preserveAspectRatio="xMidYMid meet">
<metadata>
Created by potrace 1.16, written by Peter Selinger 2001-2019
</metadata>
<g transform="translate(0.000000,32.000000) scale(0.100000,-0.100000)"
fill="#000000" stroke="none">
<path fill="#000000" stroke="none" d="M0 160 l0 -160 160 0 160 0 0 160 0
160 -160 0 -160 0 0 -160z"/>
<path fill="#ffffff" stroke="none" d="M121 267 c-8 -8 -11 -7 -11 4 0 20 13
34 18 19 3 -7 -1 -17 -7 -23z"/>
<path fill="#ffffff" stroke="none" d="M71 234 c24 -23 58 -26 44 -4 -3 4 4 6
14 3 12 -3 17 -11 14 -19 -8 -20 14 -17 26 4 10 16 11 15 12 -3 1 -11 1 -26 0
-32 -1 -7 14 -21 34 -30 23 -11 31 -19 23 -24 -9 -6 -5 -16 17 -39 30 -31 28
-38 -6 -20 -16 9 -19 7 -19 -11 0 -21 -1 -21 -18 -6 -10 10 -21 15 -24 12 -3
-3 -8 12 -12 35 -6 41 -22 50 -45 28 -10 -11 -11 -10 -6 3 5 12 -2 20 -24 27
-30 10 -31 10 -32 -16 -1 -15 -5 -38 -9 -52 -5 -17 -7 -6 -6 37 l1 63 30 -4
c17 -2 22 -1 13 1 -10 2 -18 9 -18 14 0 14 -20 32 -50 46 -21 10 -22 12 -6 12
11 1 32 -11 47 -25z"/>
<path fill="#ffffff" stroke="none" d="M249 185 c0 -11 -3 -14 -6 -8 -3 10
-10 10 -25 2 -11 -6 -23 -8 -26 -4 -3 3 4 8 16 12 14 3 22 13 22 27 0 17 2 18
10 6 5 -8 9 -24 9 -35z"/>
<path fill="#ffffff" stroke="none" d="M280 95 c0 -5 -5 -3 -10 5 -5 8 -10 20
-10 25 0 6 5 3 10 -5 5 -8 10 -19 10 -25z"/>
<path fill="#ffffff" stroke="none" d="M60 46 c0 -2 -7 -9 -15 -16 -13 -11
-14 -10 -9 4 5 14 24 23 24 12z"/>
<path fill="#000000" stroke="none" d="M140 170 c0 -5 5 -10 11 -10 5 0 7 5 4
10 -3 6 -8 10 -11 10 -2 0 -4 -4 -4 -10z"/>
<path fill="#000000" stroke="none" d="M190 111 c0 -5 7 -15 17 -22 15 -13 15
-12 4 9 -12 23 -21 28 -21 13z"/>
</g>
</svg>
