<?xml version="1.0" standalone="no"?>
<!DOCTYPE svg PUBLIC "-//W3C//DTD SVG 20010904//EN"
 "http://www.w3.org/TR/2001/REC-SVG-20010904/DTD/svg10.dtd">
<svg version="1.0" xmlns="http://www.w3.org/2000/svg"
 width="32.000000pt" height="32.000000pt" viewBox="0 0 32.000000 32.000000"
 preserveAspectRatio="xMidYMid meet">
<metadata>
Created by potrace 1.16, written by Peter Selinger 2001-2019
</metadata>
<g transform="translate(0.000000,32.000000) scale(0.100000,-0.100000)"
fill="#000000" stroke="none">
<path fill="#000000" stroke="none" d="M178 293 c-24 -33 -54 -43 -74 -28 -11
8 -27 15 -38 15 -17 0 -18 -5 -12 -47 5 -39 3 -50 -15 -69 -24 -26 -19 -54 10
-54 14 0 18 -5 14 -20 -3 -11 -2 -28 2 -37 5 -10 7 -21 7 -25 -1 -4 42 -7 96
-6 53 0 87 4 74 7 -23 6 -22 6 7 18 17 6 31 7 31 2 0 -5 5 -9 10 -9 22 0 9 38
-15 44 -29 7 -34 26 -7 27 14 0 14 2 -3 9 -17 7 -17 9 -2 9 17 1 26 41 9 41
-5 0 -7 14 -4 30 4 25 1 30 -17 30 -15 0 -21 6 -21 21 0 25 -17 59 -30 59 -5
0 -15 -8 -22 -17z"/>
<path fill="#ffffff" stroke="none" d="M209 253 c5 -29 11 -37 24 -35 20 3 20
2 7 -32 -5 -14 -6 -25 -2 -25 18 3 32 -2 32 -12 0 -5 -10 -9 -22 -7 -19 2 -23
-1 -21 -20 2 -17 -2 -22 -14 -20 -13 2 -19 -6 -23 -32 l-6 -35 -20 33 c-19 33
-32 36 -76 17 -14 -5 -17 -2 -15 22 2 22 -3 29 -21 31 l-24 4 20 21 c24 26 29
44 18 75 -11 32 -3 37 28 17 20 -14 29 -15 40 -6 11 9 16 9 21 0 5 -7 13 1 22
21 16 39 24 34 32 -17z"/>
<path fill="#ffffff" stroke="none" d="M63 123 c-7 -2 -19 -2 -25 0 -7 3 -2 5
12 5 14 0 19 -2 13 -5z"/>
<path fill="#ffffff" stroke="none" d="M111 75 c-18 -8 -36 -15 -40 -15 -13 1
45 29 59 29 8 0 0 -6 -19 -14z"/>
<path fill="#000000" stroke="none" d="M187 140 c-3 -11 -2 -20 3 -20 12 0 21
28 11 35 -5 2 -11 -4 -14 -15z"/>
</g>
</svg>
