<?xml version="1.0" standalone="no"?>
<!DOCTYPE svg PUBLIC "-//W3C//DTD SVG 20010904//EN"
 "http://www.w3.org/TR/2001/REC-SVG-20010904/DTD/svg10.dtd">
<svg version="1.0" xmlns="http://www.w3.org/2000/svg"
 width="32.000000pt" height="32.000000pt" viewBox="0 0 32.000000 32.000000"
 preserveAspectRatio="xMidYMid meet">
<metadata>
Created by potrace 1.16, written by Peter Selinger 2001-2019
</metadata>
<g transform="translate(0.000000,32.000000) scale(0.100000,-0.100000)"
fill="#000000" stroke="none">
<path fill="#000000" stroke="none" d="M160 265 c-32 -33 -58 -41 -53 -17 4
17 -45 7 -67 -13 -14 -12 -17 -22 -10 -30 5 -6 7 -15 3 -18 -3 -4 -2 -7 3 -7
6 0 15 5 22 12 6 6 15 8 19 4 4 -4 1 -11 -7 -16 -14 -9 -7 -14 13 -11 5 1 6
-3 2 -9 -3 -5 -1 -10 6 -10 10 0 10 -3 1 -12 -7 -7 -12 -23 -12 -36 0 -21 2
-22 15 -12 8 7 15 19 15 26 0 8 5 14 11 14 5 0 8 -4 5 -8 -3 -5 1 -9 9 -9 9 0
15 10 15 21 0 14 -3 17 -8 9 -4 -7 -13 -9 -21 -4 -10 6 -9 10 5 15 12 5 26 -2
43 -20 14 -15 19 -23 11 -18 -13 7 -13 5 -2 -8 7 -9 21 -16 30 -16 9 0 25 -3
35 -7 13 -5 16 -3 11 8 -6 18 -44 30 -44 14 0 -6 -2 -8 -5 -5 -3 3 -3 12 1 21
4 12 11 14 31 6 13 -5 34 -9 45 -9 16 0 18 3 9 14 -7 8 -24 17 -39 21 -25 7
-25 8 -7 15 17 7 15 9 -12 9 -17 1 -35 6 -39 13 -4 6 -3 8 3 5 6 -4 19 0 29 8
18 14 18 14 -4 15 -15 0 -21 4 -16 12 5 8 0 9 -14 6 l-22 -6 20 28 c37 53 19
56 -30 5z"/>
<path fill="#ffffff" stroke="none" d="M145 210 c-3 -5 -11 -10 -16 -10 -6 0
-7 5 -4 10 3 6 11 10 16 10 6 0 7 -4 4 -10z"/>
<path fill="#ffffff" stroke="none" d="M193 172 c18 -20 13 -32 -11 -32 -8 0
-12 6 -9 14 3 7 0 19 -6 25 -7 7 -7 11 -1 11 6 0 18 -8 27 -18z"/>
<path fill="#000000" stroke="none" d="M54 145 c-4 -9 -2 -21 3 -26 7 -7 12
-3 16 10 6 25 -11 39 -19 16z"/>
<path fill="#000000" stroke="none" d="M150 88 c0 -9 5 -20 10 -23 13 -8 13 5
0 25 -8 13 -10 13 -10 -2z"/>
</g>
</svg>
