<?xml version="1.0" standalone="no"?>
<!DOCTYPE svg PUBLIC "-//W3C//DTD SVG 20010904//EN"
 "http://www.w3.org/TR/2001/REC-SVG-20010904/DTD/svg10.dtd">
<svg version="1.0" xmlns="http://www.w3.org/2000/svg"
 width="32.000000pt" height="32.000000pt" viewBox="0 0 32.000000 32.000000"
 preserveAspectRatio="xMidYMid meet">
<metadata>
Created by potrace 1.16, written by Peter Selinger 2001-2019
</metadata>
<g transform="translate(0.000000,32.000000) scale(0.100000,-0.100000)"
fill="#000000" stroke="none">
<path fill="#000000" stroke="none" d="M1 248 l1 -73 13 60 c18 78 18 85 0 85
-12 0 -15 -14 -14 -72z"/>
<path fill="#000000" stroke="none" d="M80 305 c7 -9 29 -15 51 -15 22 0 39
-4 39 -10 0 -19 55 -11 68 11 7 11 19 18 26 16 7 -3 19 -1 27 4 9 5 -31 9
-105 9 -104 0 -117 -2 -106 -15z"/>
<path fill="#000000" stroke="none" d="M35 261 c-3 -5 -1 -12 5 -16 5 -3 10 1
10 9 0 18 -6 21 -15 7z"/>
<path fill="#000000" stroke="none" d="M40 222 c0 -7 5 -22 10 -33 8 -14 7
-19 -2 -20 -7 0 -4 -4 7 -8 11 -5 25 -4 32 1 9 7 15 5 19 -6 9 -23 29 -20 48
9 13 19 13 23 2 19 -8 -3 -17 -12 -20 -20 -10 -26 -26 -4 -20 24 l7 27 -20
-25 -21 -24 -21 34 c-11 19 -21 29 -21 22z"/>
<path fill="#000000" stroke="none" d="M306 215 c-3 -8 -1 -15 4 -15 6 0 10 7
10 15 0 8 -2 15 -4 15 -2 0 -6 -7 -10 -15z"/>
<path fill="#000000" stroke="none" d="M229 208 c-4 -15 -6 -38 -3 -38 2 0 8
9 14 20 7 14 7 20 0 20 -5 0 -10 -1 -11 -2z"/>
<path fill="#000000" stroke="none" d="M304 149 c-3 -6 -20 -19 -38 -30 -21
-13 -25 -19 -13 -19 9 0 17 -4 17 -9 0 -4 11 -6 25 -3 21 4 25 10 25 38 0 35
-4 42 -16 23z"/>
<path fill="#000000" stroke="none" d="M0 76 c0 -71 1 -76 21 -76 16 0 19 4
13 17 -4 10 -7 39 -6 64 2 31 -3 50 -13 59 -13 11 -15 3 -15 -64z"/>
<path fill="#000000" stroke="none" d="M96 105 c4 -8 11 -15 16 -15 6 0 5 6
-2 15 -7 8 -14 15 -16 15 -2 0 -1 -7 2 -15z"/>
<path fill="#000000" stroke="none" d="M50 80 c-8 -5 -12 -12 -9 -15 4 -3 12
1 19 10 14 17 11 19 -10 5z"/>
<path fill="#000000" stroke="none" d="M304 52 c-6 -4 -14 -17 -18 -29 -6 -19
-4 -23 13 -23 17 0 21 6 21 30 0 33 0 33 -16 22z"/>
<path fill="#000000" stroke="none" d="M140 10 c-11 -7 -5 -10 23 -10 23 0 36
4 32 10 -8 13 -35 13 -55 0z"/>
</g>
</svg>
