<?xml version="1.0" standalone="no"?>
<!DOCTYPE svg PUBLIC "-//W3C//DTD SVG 20010904//EN"
 "http://www.w3.org/TR/2001/REC-SVG-20010904/DTD/svg10.dtd">
<svg version="1.0" xmlns="http://www.w3.org/2000/svg"
 width="32.000000pt" height="32.000000pt" viewBox="0 0 32.000000 32.000000"
 preserveAspectRatio="xMidYMid meet">
<metadata>
Created by potrace 1.16, written by Peter Selinger 2001-2019
</metadata>
<g transform="translate(0.000000,32.000000) scale(0.100000,-0.100000)"
fill="#000000" stroke="none">
<path fill="#000000" stroke="none" d="M0 160 l0 -160 160 0 160 0 0 160 0
160 -160 0 -160 0 0 -160z"/>
<path fill="#ffffff" stroke="none" d="M210 294 c0 -3 -9 -19 -20 -34 l-20
-28 22 6 c14 3 19 2 14 -6 -5 -8 1 -12 16 -12 22 -1 22 -1 4 -15 -10 -8 -23
-12 -29 -8 -6 3 -7 1 -3 -5 4 -7 22 -12 39 -13 27 0 29 -2 12 -9 -18 -7 -18
-8 7 -15 15 -4 32 -13 39 -21 9 -11 7 -14 -9 -14 -11 0 -32 4 -45 9 -20 8 -27
6 -31 -6 -4 -9 -4 -18 -1 -21 3 -3 5 -1 5 5 0 16 38 4 44 -14 5 -11 2 -13 -11
-8 -10 4 -26 7 -35 7 -9 0 -23 7 -30 16 -11 13 -11 15 2 8 8 -5 3 3 -11 18
-17 18 -31 25 -43 20 -14 -5 -15 -9 -5 -15 8 -5 17 -3 21 4 5 8 8 5 8 -9 0
-11 -6 -21 -15 -21 -8 0 -12 4 -9 9 3 4 0 8 -5 8 -6 0 -11 -6 -11 -14 0 -7 -7
-19 -15 -26 -13 -10 -15 -9 -15 12 0 13 5 29 12 36 9 9 9 12 -1 12 -7 0 -9 5
-6 10 4 6 3 10 -2 9 -20 -3 -27 2 -13 11 8 5 11 12 7 16 -4 4 -13 2 -19 -4 -7
-7 -16 -12 -22 -12 -5 0 -6 3 -3 7 4 3 2 12 -3 18 -7 8 -4 18 10 30 22 20 71
30 67 13 -5 -24 21 -16 53 17 32 33 50 43 50 29z"/>
<path fill="#ffffff" stroke="none" d="M73 129 c-4 -13 -9 -17 -16 -10 -12 12
-1 45 12 37 5 -3 7 -15 4 -27z"/>
<path fill="#ffffff" stroke="none" d="M170 67 c0 -5 -4 -5 -10 -2 -5 3 -10
14 -10 23 0 15 2 15 10 2 5 -8 10 -19 10 -23z"/>
<path fill="#000000" stroke="none" d="M125 210 c-3 -5 -2 -10 4 -10 5 0 13 5
16 10 3 6 2 10 -4 10 -5 0 -13 -4 -16 -10z"/>
<path fill="#000000" stroke="none" d="M167 179 c6 -6 9 -18 6 -25 -5 -14 18
-20 30 -7 8 8 -22 43 -37 43 -6 0 -6 -4 1 -11z"/>
</g>
</svg>
