<?xml version="1.0" standalone="no"?>
<!DOCTYPE svg PUBLIC "-//W3C//DTD SVG 20010904//EN"
 "http://www.w3.org/TR/2001/REC-SVG-20010904/DTD/svg10.dtd">
<svg version="1.0" xmlns="http://www.w3.org/2000/svg"
 width="32.000000pt" height="32.000000pt" viewBox="0 0 32.000000 32.000000"
 preserveAspectRatio="xMidYMid meet">
<metadata>
Created by potrace 1.16, written by Peter Selinger 2001-2019
</metadata>
<g transform="translate(0.000000,32.000000) scale(0.100000,-0.100000)"
fill="#000000" stroke="none">
<path fill="#000000" stroke="none" d="M0 160 l0 -160 160 0 160 0 0 160 0
160 -160 0 -160 0 0 -160z"/>
<path fill="#ffffff" stroke="none" d="M125 270 c-20 -23 -29 -21 -19 4 3 9
13 16 22 16 13 0 12 -3 -3 -20z"/>
<path fill="#ffffff" stroke="none" d="M170 255 c-7 -8 -18 -15 -24 -15 -6 0
-2 7 8 15 25 19 32 19 16 0z"/>
<path fill="#ffffff" stroke="none" d="M80 256 c0 -2 -8 -10 -17 -17 -16 -13
-17 -12 -4 4 13 16 21 21 21 13z"/>
<path fill="#ffffff" stroke="none" d="M260 230 c-8 -6 -24 -16 -35 -22 -20
-11 -20 -11 -1 11 11 11 26 21 35 21 14 0 14 -2 1 -10z"/>
<path fill="#ffffff" stroke="none" d="M80 205 c0 -8 -44 -45 -54 -45 -5 0 1
11 14 25 21 23 40 32 40 20z"/>
<path fill="#ffffff" stroke="none" d="M187 193 c-9 -9 -20 -13 -24 -9 -4 4
-1 11 7 16 25 16 35 11 17 -7z"/>
<path fill="#ffffff" stroke="none" d="M240 186 c0 -2 -7 -7 -16 -10 -8 -3
-12 -2 -9 4 6 10 25 14 25 6z"/>
<path fill="#ffffff" stroke="none" d="M140 155 c10 -12 10 -15 -3 -15 -8 0
-17 7 -21 15 -3 8 -2 15 3 15 5 0 14 -7 21 -15z"/>
<path fill="#ffffff" stroke="none" d="M190 146 c0 -2 -8 -10 -17 -17 -16 -13
-17 -12 -4 4 13 16 21 21 21 13z"/>
<path fill="#ffffff" stroke="none" d="M100 89 c-7 -11 -14 -18 -17 -15 -3 3
0 12 7 21 18 21 23 19 10 -6z"/>
<path fill="#ffffff" stroke="none" d="M250 55 c-7 -8 -17 -15 -22 -15 -6 0
-5 7 2 15 7 8 17 15 22 15 6 0 5 -7 -2 -15z"/>
</g>
</svg>
