<?xml version="1.0" standalone="no"?>
<!DOCTYPE svg PUBLIC "-//W3C//DTD SVG 20010904//EN"
 "http://www.w3.org/TR/2001/REC-SVG-20010904/DTD/svg10.dtd">
<svg version="1.0" xmlns="http://www.w3.org/2000/svg"
 width="32.000000pt" height="32.000000pt" viewBox="0 0 32.000000 32.000000"
 preserveAspectRatio="xMidYMid meet">
<metadata>
Created by potrace 1.16, written by Peter Selinger 2001-2019
</metadata>
<g transform="translate(0.000000,32.000000) scale(0.100000,-0.100000)"
fill="#000000" stroke="none">
<path fill="#000000" stroke="none" d="M41 302 c-7 -12 -16 -20 -20 -18 -5 3
-8 -13 -8 -35 0 -49 9 -56 45 -31 15 11 33 17 40 15 14 -5 14 3 3 32 -5 11 -4
25 1 33 8 8 6 12 -5 12 -9 0 -19 -5 -23 -12 -5 -8 -10 -6 -14 7 -6 19 -8 18
-19 -3z"/>
<path fill="#000000" stroke="none" d="M142 292 c-7 -12 -17 -20 -21 -18 -5 3
-8 -13 -8 -35 0 -29 5 -43 18 -50 14 -7 19 -6 19 3 0 7 9 19 20 25 15 10 21
10 27 -2 5 -8 13 -11 21 -6 10 6 11 13 1 34 -7 15 -16 27 -21 27 -5 0 -6 5 -3
10 7 11 36 -5 33 -18 -1 -4 1 -17 5 -29 9 -23 57 -60 57 -43 0 6 4 9 9 6 4 -3
8 12 8 34 0 21 -3 38 -8 37 -4 -1 -15 7 -24 18 -13 16 -15 17 -13 3 4 -22 -6
-22 -38 -1 -20 13 -30 14 -44 5 -15 -9 -19 -8 -22 6 -3 14 -6 13 -16 -6z"/>
<path fill="#000000" stroke="none" d="M161 192 c-7 -12 -15 -21 -19 -18 -4 2
-8 -13 -8 -35 -1 -21 2 -36 7 -33 5 3 9 0 9 -6 0 -6 11 -4 28 6 l27 16 -25
-21 c-14 -11 -36 -21 -49 -21 -24 0 -24 0 -5 -22 16 -18 17 -20 2 -15 -9 3
-22 -1 -30 -10 -11 -14 -10 -15 11 -8 18 5 22 4 15 -6 -6 -12 -5 -12 9 0 9 7
17 10 17 6 0 -5 9 3 21 16 17 19 22 21 29 9 6 -8 8 -20 6 -26 -6 -16 68 -13
83 4 7 6 9 12 5 12 -3 0 -1 7 6 15 17 21 1 19 -23 -2 -19 -17 -20 -17 -14 0 5
12 1 17 -12 17 -10 0 -18 6 -18 13 0 9 9 12 26 10 l26 -4 -28 16 c-27 16 -28
17 -10 30 17 13 17 14 1 15 -12 0 -18 8 -18 25 0 27 -6 30 -30 15 -11 -7 -17
-5 -21 8 -5 14 -7 14 -18 -6z"/>
<path fill="#000000" stroke="none" d="M51 172 c-7 -12 -16 -20 -20 -18 -5 3
-8 -13 -8 -35 0 -48 9 -55 42 -33 14 9 28 14 32 11 8 -9 34 43 27 54 -3 5 -11
6 -17 2 -7 -4 -6 0 2 10 12 15 11 17 -2 17 -9 0 -19 -5 -23 -12 -5 -8 -10 -6
-14 7 -6 19 -8 18 -19 -3z"/>
</g>
</svg>
