<?xml version="1.0" standalone="no"?>
<!DOCTYPE svg PUBLIC "-//W3C//DTD SVG 20010904//EN"
 "http://www.w3.org/TR/2001/REC-SVG-20010904/DTD/svg10.dtd">
<svg version="1.0" xmlns="http://www.w3.org/2000/svg"
 width="32.000000pt" height="32.000000pt" viewBox="0 0 32.000000 32.000000"
 preserveAspectRatio="xMidYMid meet">
<metadata>
Created by potrace 1.16, written by Peter Selinger 2001-2019
</metadata>
<g transform="translate(0.000000,32.000000) scale(0.100000,-0.100000)"
fill="#000000" stroke="none">
<path fill="#000000" stroke="none" d="M0 160 c0 -155 1 -160 21 -160 11 0 27
6 35 14 7 8 32 17 54 21 22 4 40 12 40 18 0 26 -13 56 -21 51 -5 -2 -19 2 -33
11 -26 17 -38 9 -32 -22 3 -15 -1 -19 -16 -18 -30 2 -37 24 -31 92 4 42 9 60
18 57 14 -6 8 53 -6 62 -27 16 4 24 114 27 l122 3 -132 2 -133 2 0 -160z"/>
<path fill="#ffffff" stroke="none" d="M106 72 c-22 -5 -30 3 -21 18 5 8 11 7
22 -2 15 -12 14 -13 -1 -16z"/>
<path fill="#000000" stroke="none" d="M279 253 c-1 -38 0 -79 1 -92 1 -14 -2
-21 -9 -17 -14 9 -14 4 -1 -29 7 -19 7 -24 -2 -19 -8 5 -9 2 -4 -12 5 -10 11
-27 13 -36 3 -10 14 -18 24 -18 18 0 19 10 19 145 0 138 -1 145 -20 145 -18 0
-20 -7 -21 -67z"/>
<path fill="#000000" stroke="none" d="M245 270 c-10 -11 -13 -20 -7 -20 6 0
16 9 22 20 6 11 9 20 7 20 -2 0 -12 -9 -22 -20z"/>
<path fill="#000000" stroke="none" d="M191 254 c0 -11 3 -14 6 -6 3 7 2 16
-1 19 -3 4 -6 -2 -5 -13z"/>
<path fill="#000000" stroke="none" d="M125 240 c4 -6 11 -8 16 -5 14 9 11 15
-7 15 -8 0 -12 -5 -9 -10z"/>
<path fill="#000000" stroke="none" d="M175 220 c-3 -5 -1 -10 4 -10 6 0 11 5
11 10 0 6 -2 10 -4 10 -3 0 -8 -4 -11 -10z"/>
<path fill="#000000" stroke="none" d="M75 180 c-3 -5 -2 -10 4 -10 5 0 13 5
16 10 3 6 2 10 -4 10 -5 0 -13 -4 -16 -10z"/>
<path fill="#000000" stroke="none" d="M137 183 c-4 -3 -7 -11 -7 -17 0 -6 5
-5 12 2 6 6 9 14 7 17 -3 3 -9 2 -12 -2z"/>
<path fill="#000000" stroke="none" d="M49 175 c-1 -3 -2 -8 -3 -12 -1 -5 -5
-14 -10 -21 -7 -12 -4 -12 15 -1 15 7 19 14 11 17 -6 2 -10 8 -6 13 3 5 3 9 0
9 -3 0 -7 -2 -7 -5z"/>
<path fill="#000000" stroke="none" d="M150 142 c0 -12 19 -26 26 -19 2 2 -2
10 -11 17 -9 8 -15 8 -15 2z"/>
<path fill="#000000" stroke="none" d="M193 102 c-8 -5 -9 -13 -3 -22 7 -11
10 -12 10 -2 0 7 5 10 10 7 6 -3 10 -2 10 4 0 14 -14 21 -27 13z"/>
</g>
</svg>
