<?xml version="1.0" standalone="no"?>
<!DOCTYPE svg PUBLIC "-//W3C//DTD SVG 20010904//EN"
 "http://www.w3.org/TR/2001/REC-SVG-20010904/DTD/svg10.dtd">
<svg version="1.0" xmlns="http://www.w3.org/2000/svg"
 width="32.000000pt" height="32.000000pt" viewBox="0 0 32.000000 32.000000"
 preserveAspectRatio="xMidYMid meet">
<metadata>
Created by potrace 1.16, written by Peter Selinger 2001-2019
</metadata>
<g transform="translate(0.000000,32.000000) scale(0.100000,-0.100000)"
fill="#000000" stroke="none">
<path fill="#000000" stroke="none" d="M0 160 l0 -160 160 0 160 0 0 160 0
160 -160 0 -160 0 0 -160z"/>
<path fill="#ffffff" stroke="none" d="M171 301 c-8 -5 -11 -16 -8 -25 4 -9 2
-16 -3 -16 -6 0 -10 -5 -10 -10 0 -6 12 -8 28 -4 15 3 22 2 17 -3 -15 -11 -13
-32 4 -42 8 -5 15 -24 17 -43 1 -18 0 -27 -3 -20 -4 10 -9 9 -19 -5 -13 -16
-14 -14 -10 19 2 28 0 35 -11 31 -11 -4 -13 -15 -8 -40 4 -23 3 -33 -4 -28 -7
4 -8 -1 -2 -16 9 -25 31 -38 31 -19 0 6 5 8 10 5 6 -3 10 1 10 10 0 9 4 14 10
10 5 -3 15 13 21 35 7 24 15 36 20 29 4 -8 10 -6 18 7 15 27 13 9 -3 -31 -8
-19 -12 -35 -9 -35 3 0 0 -6 -6 -14 -9 -11 -9 -15 1 -19 8 -3 2 -9 -14 -17
-15 -7 -25 -16 -23 -20 5 -8 -29 -19 -79 -26 -30 -4 -58 16 -54 38 2 7 -3 12
-9 11 -16 -4 -16 2 -3 28 8 13 7 19 0 19 -7 0 -5 9 4 22 25 35 19 39 -21 16
-30 -17 -35 -19 -24 -5 11 14 11 17 0 17 -10 1 -9 4 3 14 10 7 14 17 10 22 -4
4 1 2 11 -5 14 -11 17 -11 17 1 0 8 -5 19 -12 26 -9 9 -4 13 20 18 27 6 30 8
17 18 -14 10 -14 13 3 31 10 11 32 21 48 23 20 1 25 -1 15 -7z"/>
</g>
</svg>
