<?xml version="1.0" standalone="no"?>
<!DOCTYPE svg PUBLIC "-//W3C//DTD SVG 20010904//EN"
 "http://www.w3.org/TR/2001/REC-SVG-20010904/DTD/svg10.dtd">
<svg version="1.0" xmlns="http://www.w3.org/2000/svg"
 width="32.000000pt" height="32.000000pt" viewBox="0 0 32.000000 32.000000"
 preserveAspectRatio="xMidYMid meet">
<metadata>
Created by potrace 1.16, written by Peter Selinger 2001-2019
</metadata>
<g transform="translate(0.000000,32.000000) scale(0.100000,-0.100000)"
fill="#000000" stroke="none">
<path fill="#000000" stroke="none" d="M0 160 l0 -160 160 0 160 0 0 160 0
160 -160 0 -160 0 0 -160z"/>
<path fill="#ffffff" stroke="none" d="M146 262 c-7 -7 -20 -10 -29 -6 -13 5
-14 9 -5 24 7 10 16 16 20 14 4 -3 8 1 9 8 0 7 4 4 9 -7 5 -13 3 -25 -4 -33z"/>
<path fill="#ffffff" stroke="none" d="M174 254 c-19 -15 -19 -15 2 -11 12 3
28 1 35 -4 11 -7 10 -9 -3 -9 -21 0 -23 -11 -5 -29 10 -11 9 -13 -4 -8 -9 3
-21 1 -27 -5 -8 -8 -15 -8 -26 1 -8 7 -19 10 -23 8 -5 -3 -9 3 -9 13 0 17 2
17 16 5 9 -8 21 -11 29 -6 18 12 5 31 -17 25 -12 -4 -10 1 7 15 13 12 28 21
34 21 6 0 2 -7 -9 -16z"/>
<path fill="#ffffff" stroke="none" d="M119 247 c-2 -1 -11 -8 -20 -15 -14
-10 -18 -10 -23 3 -4 11 1 15 21 15 14 0 24 -1 22 -3z"/>
<path fill="#ffffff" stroke="none" d="M66 215 c16 -12 16 -14 3 -15 -9 0 -22
7 -29 15 -16 19 0 19 26 0z"/>
<path fill="#ffffff" stroke="none" d="M208 164 c-11 -11 -23 -14 -35 -9 -16
7 -15 9 7 15 40 12 45 11 28 -6z"/>
<path fill="#ffffff" stroke="none" d="M255 170 c-3 -5 -12 -10 -18 -10 -7 0
-6 4 3 10 19 12 23 12 15 0z"/>
<path fill="#ffffff" stroke="none" d="M129 118 c-7 -13 -14 -18 -16 -11 -3 7
1 22 8 35 7 13 14 18 16 11 3 -7 -1 -22 -8 -35z"/>
<path fill="#ffffff" stroke="none" d="M300 140 c-8 -5 -24 -10 -35 -10 -17 0
-17 -2 -5 -10 8 -5 11 -10 5 -10 -5 0 -17 5 -25 10 -12 7 -10 11 10 19 14 5
34 10 45 10 17 1 17 -1 5 -9z"/>
<path fill="#ffffff" stroke="none" d="M170 131 c0 -5 -7 -12 -16 -15 -14 -5
-15 -4 -4 9 14 17 20 19 20 6z"/>
<path fill="#ffffff" stroke="none" d="M220 103 c-1 -24 -2 -26 -11 -10 -5 9
-7 22 -4 27 10 17 15 11 15 -17z"/>
<path fill="#ffffff" stroke="none" d="M237 78 c-3 -8 -6 -5 -6 6 -1 11 2 17
5 13 3 -3 4 -12 1 -19z"/>
<path fill="#ffffff" stroke="none" d="M118 54 c-4 -3 -12 5 -18 18 -12 22
-12 22 6 6 10 -10 15 -20 12 -24z"/>
</g>
</svg>
