<?xml version="1.0" standalone="no"?>
<!DOCTYPE svg PUBLIC "-//W3C//DTD SVG 20010904//EN"
 "http://www.w3.org/TR/2001/REC-SVG-20010904/DTD/svg10.dtd">
<svg version="1.0" xmlns="http://www.w3.org/2000/svg"
 width="32.000000pt" height="32.000000pt" viewBox="0 0 32.000000 32.000000"
 preserveAspectRatio="xMidYMid meet">
<metadata>
Created by potrace 1.16, written by Peter Selinger 2001-2019
</metadata>
<g transform="translate(0.000000,32.000000) scale(0.100000,-0.100000)"
fill="#000000" stroke="none">
<path fill="#000000" stroke="none" d="M178 293 c-24 -33 -54 -43 -74 -28 -11
8 -27 15 -38 15 -17 0 -18 -5 -12 -47 5 -39 3 -50 -15 -69 -24 -26 -19 -54 10
-54 14 0 18 -5 14 -20 -3 -11 -2 -28 2 -37 5 -10 7 -21 7 -25 -1 -5 42 -8 96
-7 53 1 87 4 74 8 -23 6 -23 6 7 18 17 6 31 7 31 2 0 -5 5 -9 10 -9 22 0 9 38
-15 44 -27 7 -34 26 -10 26 10 0 15 10 15 30 0 17 -4 30 -8 30 -5 0 -7 14 -4
30 4 25 1 30 -17 30 -15 0 -21 6 -21 21 0 25 -17 59 -30 59 -5 0 -15 -8 -22
-17z"/>
<path fill="#ffffff" stroke="none" d="M189 213 c-17 -32 -31 -29 -23 5 15 67
16 69 26 42 6 -16 5 -32 -3 -47z"/>
<path fill="#ffffff" stroke="none" d="M88 239 c7 -11 19 -18 27 -15 18 6 27
-18 12 -34 -9 -10 -8 -12 5 -7 36 13 28 -16 -17 -61 -40 -39 -46 -43 -40 -22
4 14 19 35 34 47 31 27 25 28 -29 7 -48 -19 -63 -13 -26 11 14 10 23 21 20 26
-3 5 2 6 10 3 17 -7 22 11 6 21 -14 9 -32 45 -23 45 5 0 14 -9 21 -21z"/>
<path fill="#ffffff" stroke="none" d="M227 193 c-9 -9 -20 -13 -24 -9 -4 4
-1 11 7 16 25 16 35 11 17 -7z"/>
<path fill="#ffffff" stroke="none" d="M230 160 c0 -5 -5 -10 -11 -10 -5 0 -7
5 -4 10 3 6 8 10 11 10 2 0 4 -4 4 -10z"/>
<path fill="#ffffff" stroke="none" d="M170 125 c-7 -8 -19 -15 -27 -15 -13 0
-13 3 -3 15 7 8 19 15 27 15 13 0 13 -3 3 -15z"/>
<path fill="#ffffff" stroke="none" d="M63 123 c-7 -2 -19 -2 -25 0 -7 3 -2 5
12 5 14 0 19 -2 13 -5z"/>
<path fill="#ffffff" stroke="none" d="M180 90 c0 -5 -5 -10 -11 -10 -5 0 -7
5 -4 10 3 6 8 10 11 10 2 0 4 -4 4 -10z"/>
<path fill="#ffffff" stroke="none" d="M95 70 c-3 -5 -12 -10 -18 -10 -7 0 -6
4 3 10 19 12 23 12 15 0z"/>
</g>
</svg>
