<?xml version="1.0" standalone="no"?>
<!DOCTYPE svg PUBLIC "-//W3C//DTD SVG 20010904//EN"
 "http://www.w3.org/TR/2001/REC-SVG-20010904/DTD/svg10.dtd">
<svg version="1.0" xmlns="http://www.w3.org/2000/svg"
 width="32.000000pt" height="32.000000pt" viewBox="0 0 32.000000 32.000000"
 preserveAspectRatio="xMidYMid meet">
<metadata>
Created by potrace 1.16, written by Peter Selinger 2001-2019
</metadata>
<g transform="translate(0.000000,32.000000) scale(0.100000,-0.100000)"
fill="#000000" stroke="none">
<path fill="#000000" stroke="none" d="M47 300 c-3 -12 -10 -19 -15 -16 -11 6
-10 -69 0 -79 9 -9 59 25 53 35 -3 5 5 16 17 24 12 9 16 16 9 16 -11 0 -11 3
-1 15 10 12 10 15 -3 15 -9 0 -19 -5 -22 -11 -5 -6 -11 -4 -19 7 -12 16 -13
15 -19 -6z"/>
<path fill="#000000" stroke="none" d="M161 292 c-7 -12 -16 -20 -21 -17 -9 6
-8 -71 2 -80 9 -9 59 25 53 35 -10 17 13 19 26 3 10 -11 10 -14 2 -9 -9 5 -11
2 -7 -8 5 -12 34 -12 34 0 0 13 -25 54 -33 54 -5 0 -4 7 3 15 10 12 10 15 -3
15 -9 0 -19 -5 -23 -12 -5 -8 -10 -6 -14 7 -6 19 -8 18 -19 -3z"/>
<path fill="#000000" stroke="none" d="M182 192 c-7 -12 -16 -21 -20 -18 -4 2
-7 -13 -7 -34 0 -31 2 -36 13 -28 10 8 11 7 6 -8 -6 -16 -5 -17 7 -6 7 6 17
12 23 12 5 0 1 -7 -10 -15 -16 -12 -17 -14 -2 -15 11 0 15 -6 11 -19 -3 -10 1
-22 8 -26 8 -5 10 -4 5 3 -4 8 -2 10 8 6 8 -3 12 -12 9 -20 -3 -8 -1 -14 5
-14 11 0 11 18 -1 37 -5 9 -3 11 6 7 8 -3 18 -1 22 5 3 6 -2 11 -13 11 -10 0
-19 6 -19 13 0 9 9 12 26 9 22 -3 20 0 -14 21 -34 22 -37 27 -22 33 10 3 16
12 13 20 -3 7 0 15 7 17 7 2 9 7 5 11 -3 4 -15 3 -26 -3 -17 -9 -21 -8 -24 7
-3 15 -6 14 -16 -6z"/>
<path fill="#000000" stroke="none" d="M62 172 c-7 -12 -17 -20 -22 -17 -9 6
-8 -71 2 -80 3 -4 18 1 32 10 14 9 30 14 36 10 6 -4 10 -3 9 2 -4 15 13 43 22
37 16 -9 10 23 -7 37 -12 10 -20 10 -34 1 -15 -9 -19 -8 -22 6 -3 14 -6 13
-16 -6z"/>
<path fill="#ffffff" stroke="none" d="M110 120 c0 -5 -5 -10 -11 -10 -5 0 -7
5 -4 10 3 6 8 10 11 10 2 0 4 -4 4 -10z"/>
<path fill="#000000" stroke="none" d="M235 140 c-3 -5 1 -10 9 -10 8 0 18 5
21 10 3 6 -1 10 -9 10 -8 0 -18 -4 -21 -10z"/>
<path fill="#000000" stroke="none" d="M137 82 c-28 -3 -28 -4 -10 -24 16 -19
16 -21 1 -15 -9 3 -22 -1 -30 -10 -11 -14 -10 -15 11 -8 18 5 22 4 17 -6 -4
-8 0 -5 8 6 9 11 14 26 11 34 -4 11 -1 11 13 -2 17 -15 20 -16 25 -3 8 20 -12
32 -46 28z"/>
<path fill="#000000" stroke="none" d="M276 48 c-18 -25 -11 -44 9 -25 7 6 11
14 9 16 -2 2 1 10 7 18 8 9 8 13 1 13 -6 0 -18 -10 -26 -22z"/>
</g>
</svg>
