<?xml version="1.0" standalone="no"?>
<!DOCTYPE svg PUBLIC "-//W3C//DTD SVG 20010904//EN"
 "http://www.w3.org/TR/2001/REC-SVG-20010904/DTD/svg10.dtd">
<svg version="1.0" xmlns="http://www.w3.org/2000/svg"
 width="32.000000pt" height="32.000000pt" viewBox="0 0 32.000000 32.000000"
 preserveAspectRatio="xMidYMid meet">
<metadata>
Created by potrace 1.16, written by Peter Selinger 2001-2019
</metadata>
<g transform="translate(0.000000,32.000000) scale(0.100000,-0.100000)"
fill="#000000" stroke="none">
<path fill="#000000" stroke="none" d="M288 285 c-11 -14 -37 -27 -68 -35 -49
-12 -100 -43 -100 -60 0 -5 7 -7 15 -4 24 10 18 -33 -7 -50 -12 -9 -38 -16
-58 -17 -33 0 -33 -1 -11 -10 l25 -10 -37 -30 c-38 -31 -48 -59 -22 -59 8 0
15 6 15 13 0 19 33 47 54 47 12 0 16 -5 12 -15 -9 -25 11 -17 38 16 14 17 28
43 31 57 8 39 28 75 44 80 10 3 12 0 8 -12 -16 -42 54 9 73 53 17 43 10 66
-12 36z"/>
</g>
</svg>
