<?xml version="1.0" standalone="no"?>
<!DOCTYPE svg PUBLIC "-//W3C//DTD SVG 20010904//EN"
 "http://www.w3.org/TR/2001/REC-SVG-20010904/DTD/svg10.dtd">
<svg version="1.0" xmlns="http://www.w3.org/2000/svg"
 width="32.000000pt" height="32.000000pt" viewBox="0 0 32.000000 32.000000"
 preserveAspectRatio="xMidYMid meet">
<metadata>
Created by potrace 1.16, written by Peter Selinger 2001-2019
</metadata>
<g transform="translate(0.000000,32.000000) scale(0.100000,-0.100000)"
fill="#000000" stroke="none">
<path fill="#000000" stroke="none" d="M0 160 l0 -160 160 0 160 0 0 160 0
160 -160 0 -160 0 0 -160z"/>
<path fill="#ffffff" stroke="none" d="M230 299 c0 -5 7 -6 15 -3 8 4 15 1 15
-5 0 -6 7 -8 17 -4 12 5 15 2 10 -10 -4 -10 -2 -17 4 -17 6 0 9 -7 5 -15 -3
-8 -2 -15 3 -15 5 0 9 -11 9 -25 0 -21 -5 -25 -28 -25 -20 0 -29 6 -34 22 -5
20 -16 12 -112 -85 -58 -59 -110 -107 -115 -107 -22 0 -2 25 98 124 97 96 105
107 85 112 -16 5 -22 14 -22 34 0 23 4 28 25 28 14 0 25 -4 25 -9z"/>
</g>
</svg>
