<?xml version="1.0" standalone="no"?>
<!DOCTYPE svg PUBLIC "-//W3C//DTD SVG 20010904//EN"
 "http://www.w3.org/TR/2001/REC-SVG-20010904/DTD/svg10.dtd">
<svg version="1.0" xmlns="http://www.w3.org/2000/svg"
 width="32.000000pt" height="32.000000pt" viewBox="0 0 32.000000 32.000000"
 preserveAspectRatio="xMidYMid meet">
<metadata>
Created by potrace 1.16, written by Peter Selinger 2001-2019
</metadata>
<g transform="translate(0.000000,32.000000) scale(0.100000,-0.100000)"
fill="#000000" stroke="none">
<path fill="#000000" stroke="none" d="M270 305 c-8 -9 -22 -12 -41 -8 -18 3
-38 0 -53 -10 -22 -15 -25 -15 -41 3 -34 38 -43 22 -19 -34 7 -17 4 -18 -24
-13 -36 7 -39 2 -15 -25 14 -16 15 -21 3 -28 -11 -7 -11 -11 -1 -24 11 -13 11
-16 -3 -16 -18 0 -21 -11 -6 -26 6 -6 -3 -16 -26 -29 -22 -11 -33 -24 -29 -33
3 -7 0 -23 -6 -34 -6 -11 -9 -22 -6 -24 3 -3 33 2 69 10 64 15 105 15 126 2 7
-4 12 -2 12 4 0 7 7 9 15 6 8 -3 23 -9 32 -13 12 -5 15 -2 11 8 -4 10 2 15 20
17 33 3 40 11 22 22 -8 6 -11 10 -6 10 17 0 -29 29 -46 30 -10 0 -18 5 -18 11
0 13 42 1 52 -15 5 -7 8 -4 8 7 0 10 -8 17 -20 17 -17 0 -19 3 -8 19 8 13 16
17 24 11 14 -13 24 -2 24 27 0 16 -6 23 -18 23 -30 0 -33 11 -9 31 19 16 20
20 7 29 -18 12 -32 8 -38 -9 -3 -9 2 -11 18 -6 15 5 20 4 16 -4 -4 -6 -18 -11
-32 -11 -13 0 -24 -4 -24 -10 0 -5 -11 2 -25 16 -15 14 -32 23 -40 20 -17 -6
-20 9 -5 19 18 11 62 16 56 6 -10 -16 22 -6 45 15 19 16 22 17 16 2 -3 -10 -2
-20 3 -23 6 -4 10 5 10 19 0 29 -11 33 -30 11z"/>
<path fill="#ffffff" stroke="none" d="M150 248 c0 -5 -4 -8 -8 -8 -9 0 -32
44 -32 58 1 9 39 -41 40 -50z"/>
<path fill="#ffffff" stroke="none" d="M205 232 c-3 -3 -11 0 -18 7 -9 10 -8
11 6 5 10 -3 15 -9 12 -12z"/>
<path fill="#ffffff" stroke="none" d="M135 224 c17 1 43 -5 59 -13 22 -10 33
-11 47 -3 13 9 20 8 29 -3 7 -8 19 -15 26 -15 8 0 14 -4 14 -10 0 -5 -6 -7
-14 -4 -8 3 -17 -2 -20 -13 -4 -10 -18 -26 -32 -37 -21 -15 -28 -16 -34 -5 -5
7 -7 16 -4 20 2 4 0 10 -6 14 -5 3 -10 0 -11 -7 -1 -7 -2 -22 -3 -33 -1 -11
-3 -31 -4 -45 -2 -22 -4 -23 -13 -8 -5 9 -7 29 -5 43 6 33 2 32 -25 -7 -16
-22 -17 -28 -6 -19 11 9 17 10 17 2 0 -6 -3 -11 -7 -12 -49 -5 -113 -33 -113
-49 0 -6 -5 -10 -10 -10 -7 0 -7 7 0 20 6 11 8 25 5 30 -3 5 -1 11 5 15 5 3
10 1 10 -5 0 -6 5 -8 10 -5 6 4 8 10 5 15 -3 5 -1 11 5 15 5 3 10 1 10 -4 0
-6 4 -11 10 -11 5 0 7 7 4 15 -4 8 -1 15 5 15 6 0 11 -5 11 -11 0 -8 5 -7 15
1 18 15 10 26 -20 33 -11 2 -4 3 15 1 28 -2 31 -1 17 7 -9 6 -15 14 -12 20 3
5 0 6 -8 3 -8 -3 -18 -1 -22 5 -3 6 1 11 9 11 21 0 16 19 -9 43 l-20 18 20 -9
c11 -5 34 -9 50 -8z"/>
<path fill="#ffffff" stroke="none" d="M253 77 c30 -24 19 -27 -18 -6 -19 12
-35 25 -35 30 0 10 21 0 53 -24z"/>
</g>
</svg>
