<?xml version="1.0" standalone="no"?>
<!DOCTYPE svg PUBLIC "-//W3C//DTD SVG 20010904//EN"
 "http://www.w3.org/TR/2001/REC-SVG-20010904/DTD/svg10.dtd">
<svg version="1.0" xmlns="http://www.w3.org/2000/svg"
 width="32.000000pt" height="32.000000pt" viewBox="0 0 32.000000 32.000000"
 preserveAspectRatio="xMidYMid meet">
<metadata>
Created by potrace 1.16, written by Peter Selinger 2001-2019
</metadata>
<g transform="translate(0.000000,32.000000) scale(0.100000,-0.100000)"
fill="#000000" stroke="none">
<path fill="#000000" stroke="none" d="M156 273 c-20 -25 -36 -52 -36 -59 0
-6 -7 -14 -15 -18 -20 -7 -19 -33 1 -44 13 -7 9 -14 -23 -43 -43 -39 -83 -87
-83 -100 0 -5 72 -9 160 -9 l160 0 0 46 0 46 -55 -4 c-47 -4 -55 -2 -53 11 2
9 12 16 23 16 23 0 85 35 85 48 0 4 -9 3 -21 -3 -30 -17 -34 -6 -4 14 25 16
35 46 15 46 -5 0 -10 13 -10 29 0 36 -22 55 -55 47 -18 -5 -25 -2 -25 9 0 28
-27 15 -64 -32z"/>
<path fill="#ffffff" stroke="none" d="M204 302 c-6 -4 -14 -17 -18 -29 -4
-12 -15 -24 -24 -26 -14 -4 -13 -6 6 -12 18 -6 20 -10 10 -16 -10 -7 -9 -9 4
-9 10 0 22 14 29 34 13 37 46 53 66 33 20 -20 4 -53 -33 -66 -20 -7 -34 -19
-34 -29 0 -15 2 -15 10 -2 7 11 10 12 10 2 0 -16 -28 -46 -46 -48 -7 -1 -10 4
-7 13 5 12 7 12 14 1 7 -10 9 -9 9 5 0 9 -7 17 -15 17 -8 0 -15 7 -15 15 0 8
-8 15 -17 15 -14 0 -15 -2 -5 -9 11 -7 11 -9 -1 -14 -10 -4 -14 0 -13 11 2 9
8 18 14 20 7 2 12 8 12 13 0 6 -4 8 -9 5 -13 -8 -7 24 6 32 5 4 15 17 22 30 6
12 17 22 24 22 8 0 9 -2 1 -8z"/>
<path fill="#ffffff" stroke="none" d="M310 200 c0 -6 -11 -15 -25 -22 -15 -7
-23 -18 -22 -31 1 -11 -3 -22 -10 -24 -7 -2 -10 3 -8 14 2 10 4 24 4 30 1 7
12 15 26 19 14 3 25 10 25 15 0 5 2 9 5 9 3 0 5 -5 5 -10z"/>
<path fill="#ffffff" stroke="none" d="M150 145 c-6 -8 -9 -18 -7 -22 9 -14
-19 -42 -39 -39 -11 2 -23 -5 -29 -17 -5 -11 -14 -18 -19 -16 -5 2 -12 -6 -17
-19 -5 -12 -14 -22 -20 -22 -8 0 -6 7 3 22 9 13 19 22 23 20 4 -2 13 7 20 20
6 13 17 22 23 21 7 -2 12 2 12 9 0 7 12 23 27 35 30 26 41 30 23 8z"/>
<path fill="#ffffff" stroke="none" d="M200 88 c0 -19 -16 -5 -17 14 -2 18 0
20 7 8 5 -8 10 -18 10 -22z"/>
<path fill="#ffffff" stroke="none" d="M170 95 c0 -8 -7 -15 -16 -15 -14 0
-14 3 -4 15 7 8 14 15 16 15 2 0 4 -7 4 -15z"/>
<path fill="#000000" stroke="none" d="M245 250 c10 -11 20 -18 23 -16 5 6
-23 36 -34 36 -4 0 1 -9 11 -20z"/>
<path fill="#000000" stroke="none" d="M116 104 c-5 -14 -4 -15 9 -4 17 14 19
20 6 20 -5 0 -12 -7 -15 -16z"/>
</g>
</svg>
