<?xml version="1.0" standalone="no"?>
<!DOCTYPE svg PUBLIC "-//W3C//DTD SVG 20010904//EN"
 "http://www.w3.org/TR/2001/REC-SVG-20010904/DTD/svg10.dtd">
<svg version="1.0" xmlns="http://www.w3.org/2000/svg"
 width="32.000000pt" height="32.000000pt" viewBox="0 0 32.000000 32.000000"
 preserveAspectRatio="xMidYMid meet">
<metadata>
Created by potrace 1.16, written by Peter Selinger 2001-2019
</metadata>
<g transform="translate(0.000000,32.000000) scale(0.100000,-0.100000)"
fill="#000000" stroke="none">
<path fill="#000000" stroke="none" d="M0 160 l0 -160 160 0 160 0 0 160 0
160 -160 0 -160 0 0 -160z"/>
<path fill="#ffffff" stroke="none" d="M294 294 c9 -8 16 -22 16 -29 0 -15
-27 -45 -40 -45 -5 0 -12 -9 -15 -20 -4 -11 -32 -33 -63 -49 -56 -29 -148
-111 -141 -126 2 -5 -5 -9 -17 -11 -14 -2 -20 2 -19 14 0 9 5 18 10 20 6 2 40
32 77 68 36 35 71 64 77 64 6 0 20 9 31 20 14 14 18 27 14 50 -11 51 35 80 70
44z"/>
<path fill="#000000" stroke="none" d="M260 270 c0 -5 5 -10 10 -10 6 0 10 5
10 10 0 6 -4 10 -10 10 -5 0 -10 -4 -10 -10z"/>
</g>
</svg>
