<?xml version="1.0" standalone="no"?>
<!DOCTYPE svg PUBLIC "-//W3C//DTD SVG 20010904//EN"
 "http://www.w3.org/TR/2001/REC-SVG-20010904/DTD/svg10.dtd">
<svg version="1.0" xmlns="http://www.w3.org/2000/svg"
 width="32.000000pt" height="32.000000pt" viewBox="0 0 32.000000 32.000000"
 preserveAspectRatio="xMidYMid meet">
<metadata>
Created by potrace 1.16, written by Peter Selinger 2001-2019
</metadata>
<g transform="translate(0.000000,32.000000) scale(0.100000,-0.100000)"
fill="#000000" stroke="none">
<path fill="#000000" stroke="none" d="M194 293 c-18 -57 -24 -65 -40 -52 -8
7 -14 8 -13 3 4 -25 -3 -44 -16 -44 -8 0 -15 -4 -15 -9 0 -5 -16 -8 -37 -7
-47 1 -52 -22 -12 -60 l29 -27 -23 -11 c-46 -24 -25 -80 33 -84 17 -1 44 5 60
13 17 9 34 14 38 11 5 -3 20 6 35 20 36 33 47 30 47 -11 0 -24 5 -35 15 -35
11 0 15 13 15 54 l0 54 -56 4 c-36 2 -59 -1 -66 -9 -17 -20 -27 -15 -24 12 2
14 7 24 12 23 5 -1 8 -9 6 -18 -3 -11 1 -10 11 4 13 18 12 66 -3 66 -17 0 -40
-39 -40 -69 0 -34 -20 -80 -43 -99 -11 -9 -19 -7 -36 12 -28 29 -20 46 19 46
31 0 45 13 35 30 -5 8 -11 8 -20 0 -9 -7 -15 -7 -23 3 -9 10 4 29 53 80 36 37
65 76 65 87 0 27 21 25 48 -3 30 -31 28 -43 -9 -51 -29 -6 -30 -7 -27 -55 3
-53 14 -56 20 -6 2 21 10 31 28 37 19 6 16 6 -10 3 -36 -6 -32 10 5 17 28 5
31 36 4 64 -26 28 -57 31 -65 7z"/>
<path fill="#ffffff" stroke="none" d="M99 171 c2 0 -4 -10 -14 -21 -19 -21
-37 -15 -41 13 -1 11 32 16 55 8z"/>
<path fill="#ffffff" stroke="none" d="M193 159 c4 -15 2 -18 -7 -10 -7 6 -17
7 -22 3 -4 -4 -2 1 5 11 17 21 18 21 24 -4z"/>
<path fill="#ffffff" stroke="none" d="M120 100 c0 -5 -5 -10 -11 -10 -5 0 -7
5 -4 10 3 6 8 10 11 10 2 0 4 -4 4 -10z"/>
<path fill="#000000" stroke="none" d="M60 160 c-8 -5 -10 -10 -5 -10 6 0 17
5 25 10 8 5 11 10 5 10 -5 0 -17 -5 -25 -10z"/>
</g>
</svg>
