<?xml version="1.0" standalone="no"?>
<!DOCTYPE svg PUBLIC "-//W3C//DTD SVG 20010904//EN"
 "http://www.w3.org/TR/2001/REC-SVG-20010904/DTD/svg10.dtd">
<svg version="1.0" xmlns="http://www.w3.org/2000/svg"
 width="32.000000pt" height="32.000000pt" viewBox="0 0 32.000000 32.000000"
 preserveAspectRatio="xMidYMid meet">
<metadata>
Created by potrace 1.16, written by Peter Selinger 2001-2019
</metadata>
<g transform="translate(0.000000,32.000000) scale(0.100000,-0.100000)"
fill="#000000" stroke="none">
<path fill="#000000" stroke="none" d="M0 160 l0 -160 160 0 160 0 0 160 0
160 -160 0 -160 0 0 -160z"/>
<path fill="#ffffff" stroke="none" d="M218 285 c-6 -14 -13 -24 -14 -22 -6 6
9 47 17 47 5 0 3 -11 -3 -25z"/>
<path fill="#ffffff" stroke="none" d="M260 292 c0 -5 -9 -17 -21 -28 -21 -19
-21 -19 -8 9 12 26 29 37 29 19z"/>
<path fill="#ffffff" stroke="none" d="M290 281 c0 -5 -12 -16 -26 -26 l-25
-16 16 25 c17 26 35 34 35 17z"/>
<path fill="#ffffff" stroke="none" d="M300 252 c0 -5 -12 -14 -27 -21 -28
-13 -28 -13 -9 8 20 22 36 27 36 13z"/>
<path fill="#ffffff" stroke="none" d="M310 220 c0 -5 -6 -10 -12 -11 -10 0
-10 -2 0 -6 24 -9 12 -23 -20 -23 -25 0 -29 3 -18 10 13 9 13 10 0 10 -9 1 -5
6 10 15 30 17 40 18 40 5z"/>
<path fill="#ffffff" stroke="none" d="M201 193 c13 -16 12 -17 -3 -4 -10 7
-18 15 -18 17 0 8 8 3 21 -13z"/>
<path fill="#ffffff" stroke="none" d="M157 145 c-21 -32 -38 -40 -43 -19 -2
7 40 42 63 53 1 1 -8 -15 -20 -34z"/>
<path fill="#ffffff" stroke="none" d="M88 71 c3 -8 -1 -12 -9 -9 -7 2 -15 10
-17 17 -3 8 1 12 9 9 7 -2 15 -10 17 -17z"/>
<path fill="#ffffff" stroke="none" d="M38 22 c2 -7 -3 -12 -12 -12 -9 0 -16
7 -16 16 0 17 22 14 28 -4z"/>
</g>
</svg>
