<?xml version="1.0" standalone="no"?>
<!DOCTYPE svg PUBLIC "-//W3C//DTD SVG 20010904//EN"
 "http://www.w3.org/TR/2001/REC-SVG-20010904/DTD/svg10.dtd">
<svg version="1.0" xmlns="http://www.w3.org/2000/svg"
 width="32.000000pt" height="32.000000pt" viewBox="0 0 32.000000 32.000000"
 preserveAspectRatio="xMidYMid meet">
<metadata>
Created by potrace 1.16, written by Peter Selinger 2001-2019
</metadata>
<g transform="translate(0.000000,32.000000) scale(0.100000,-0.100000)"
fill="#000000" stroke="none">
<path fill="#000000" stroke="none" d="M0 160 l0 -160 160 0 160 0 0 160 0
160 -160 0 -160 0 0 -160z"/>
<path fill="#ffffff" stroke="none" d="M298 298 c7 -7 12 -28 12 -47 0 -27 -8
-42 -41 -72 -23 -21 -38 -43 -34 -48 3 -6 1 -11 -5 -11 -6 0 -15 12 -20 26
-14 36 -34 25 -41 -22 -5 -33 -6 -35 -8 -9 -1 29 -1 29 -71 -40 -103 -102 -98
-70 6 37 49 51 95 99 102 106 10 11 16 12 27 2 13 -10 19 -9 36 6 23 21 22 57
-3 62 -10 2 -18 -2 -18 -8 0 -6 5 -8 10 -5 6 3 10 1 10 -4 0 -14 -27 -14 -35
-1 -18 29 47 54 73 28z"/>
<path fill="#000000" stroke="none" d="M210 189 c0 -5 5 -7 10 -4 6 3 10 8 10
11 0 2 -4 4 -10 4 -5 0 -10 -5 -10 -11z"/>
</g>
</svg>
