<?xml version="1.0" standalone="no"?>
<!DOCTYPE svg PUBLIC "-//W3C//DTD SVG 20010904//EN"
 "http://www.w3.org/TR/2001/REC-SVG-20010904/DTD/svg10.dtd">
<svg version="1.0" xmlns="http://www.w3.org/2000/svg"
 width="32.000000pt" height="32.000000pt" viewBox="0 0 32.000000 32.000000"
 preserveAspectRatio="xMidYMid meet">
<metadata>
Created by potrace 1.16, written by Peter Selinger 2001-2019
</metadata>
<g transform="translate(0.000000,32.000000) scale(0.100000,-0.100000)"
fill="#000000" stroke="none">
<path fill="#000000" stroke="none" d="M289 253 c-1 -5 0 -18 1 -31 1 -13 -6
-34 -14 -47 -18 -28 -72 -59 -86 -50 -6 3 -18 1 -27 -4 -15 -8 -11 -10 21 -11
31 0 45 7 77 39 31 31 39 46 39 75 0 20 -2 36 -5 36 -3 0 -5 -3 -6 -7z"/>
</g>
</svg>
