<?xml version="1.0" standalone="no"?>
<!DOCTYPE svg PUBLIC "-//W3C//DTD SVG 20010904//EN"
 "http://www.w3.org/TR/2001/REC-SVG-20010904/DTD/svg10.dtd">
<svg version="1.0" xmlns="http://www.w3.org/2000/svg"
 width="32.000000pt" height="32.000000pt" viewBox="0 0 32.000000 32.000000"
 preserveAspectRatio="xMidYMid meet">
<metadata>
Created by potrace 1.16, written by Peter Selinger 2001-2019
</metadata>
<g transform="translate(0.000000,32.000000) scale(0.100000,-0.100000)"
fill="#000000" stroke="none">
<path fill="#000000" stroke="none" d="M208 308 c-9 -7 -8 -8 6 -4 16 6 17 4
6 -10 -12 -13 -11 -17 0 -24 17 -10 30 -4 30 15 0 7 6 15 13 18 6 2 0 6 -15 9
-15 3 -33 1 -40 -4z"/>
<path fill="#000000" stroke="none" d="M301 257 c-1 -23 -21 -43 -47 -50 -18
-4 -18 -5 2 -6 32 -2 57 22 51 50 -3 15 -5 17 -6 6z"/>
</g>
</svg>
