<?xml version="1.0" standalone="no"?>
<!DOCTYPE svg PUBLIC "-//W3C//DTD SVG 20010904//EN"
 "http://www.w3.org/TR/2001/REC-SVG-20010904/DTD/svg10.dtd">
<svg version="1.0" xmlns="http://www.w3.org/2000/svg"
 width="32.000000pt" height="32.000000pt" viewBox="0 0 32.000000 32.000000"
 preserveAspectRatio="xMidYMid meet">
<metadata>
Created by potrace 1.16, written by Peter Selinger 2001-2019
</metadata>
<g transform="translate(0.000000,32.000000) scale(0.100000,-0.100000)"
fill="#000000" stroke="none">
<path fill="#000000" stroke="none" d="M0 160 l0 -160 160 0 160 0 0 160 0
160 -160 0 -160 0 0 -160z"/>
<path fill="#ffffff" stroke="none" d="M190 252 c19 -14 37 -30 38 -34 2 -5
16 1 32 12 15 11 33 20 39 20 16 0 13 -26 -4 -40 -8 -7 -15 -20 -15 -29 0 -14
-2 -14 -10 -1 -8 13 -10 12 -10 -3 0 -10 -4 -15 -10 -12 -5 3 -10 -2 -10 -11
0 -14 -3 -15 -12 -6 -8 8 -17 8 -30 1 -10 -5 -23 -7 -28 -4 -6 4 -9 1 -8 -7 2
-7 -5 -12 -15 -11 -10 0 -16 -1 -14 -3 3 -3 -22 -30 -54 -61 -78 -74 -89 -59
-13 18 64 65 108 94 127 83 7 -4 9 -4 5 1 -4 4 0 14 10 21 16 11 16 13 -2 33
-32 35 -69 48 -134 46 -33 -1 -59 2 -56 6 2 4 35 7 72 7 56 0 72 -4 102 -26z"/>
</g>
</svg>
