<?xml version="1.0" standalone="no"?>
<!DOCTYPE svg PUBLIC "-//W3C//DTD SVG 20010904//EN"
 "http://www.w3.org/TR/2001/REC-SVG-20010904/DTD/svg10.dtd">
<svg version="1.0" xmlns="http://www.w3.org/2000/svg"
 width="32.000000pt" height="32.000000pt" viewBox="0 0 32.000000 32.000000"
 preserveAspectRatio="xMidYMid meet">
<metadata>
Created by potrace 1.16, written by Peter Selinger 2001-2019
</metadata>
<g transform="translate(0.000000,32.000000) scale(0.100000,-0.100000)"
fill="#000000" stroke="none">
<path fill="#000000" stroke="none" d="M195 300 c-3 -5 -19 -10 -36 -10 -22 0
-29 -5 -29 -19 0 -11 4 -22 9 -25 13 -9 1 -46 -15 -46 -8 0 -14 -4 -14 -9 0
-5 -11 -8 -25 -7 -14 0 -25 2 -25 3 0 19 18 33 44 33 l31 1 -27 15 c-25 13
-31 13 -58 -1 -27 -14 -42 -29 -22 -23 4 2 7 -1 7 -7 0 -5 -3 -9 -7 -7 -13 4
-9 -16 11 -53 10 -19 21 -32 25 -28 3 3 6 -1 6 -11 0 -9 -4 -15 -9 -12 -5 4
-12 -8 -16 -25 -13 -60 49 -88 116 -54 16 9 33 14 37 11 5 -3 20 6 35 20 36
33 47 30 47 -11 0 -24 5 -35 15 -35 12 0 15 13 15 55 l0 55 -52 1 c-29 1 -45
3 -35 6 15 4 18 13 15 47 -3 39 -1 42 20 38 19 -4 22 0 22 30 0 51 -64 102
-85 68z"/>
<path fill="#ffffff" stroke="none" d="M239 276 c21 -22 21 -24 4 -20 -11 3
-26 -3 -37 -15 -11 -12 -24 -21 -29 -21 -6 0 -3 8 6 18 10 10 17 24 17 30 0 7
5 12 11 12 5 0 7 5 4 10 -11 18 1 11 24 -14z"/>
<path fill="#ffffff" stroke="none" d="M111 150 c-21 -29 -21 -57 0 -45 5 4 9
2 9 -4 0 -5 -9 -9 -20 -8 -10 1 -17 3 -14 6 2 2 -6 15 -18 28 -22 23 -34 58
-17 47 5 -3 7 -8 5 -12 -2 -4 2 -13 9 -19 11 -10 18 -7 37 16 30 37 38 30 9
-9z"/>
<path fill="#ffffff" stroke="none" d="M207 168 c-3 -8 -6 -5 -6 6 -1 11 2 17
5 13 3 -3 4 -12 1 -19z"/>
<path fill="#ffffff" stroke="none" d="M190 105 c-15 -18 -33 -20 -27 -2 2 6
10 11 16 10 6 -2 11 2 11 9 0 6 3 8 6 5 4 -4 1 -13 -6 -22z"/>
<path fill="#ffffff" stroke="none" d="M76 49 c19 -22 19 -22 -3 -8 -13 8 -23
17 -23 21 0 12 6 9 26 -13z"/>
</g>
</svg>
