<?xml version="1.0" standalone="no"?>
<!DOCTYPE svg PUBLIC "-//W3C//DTD SVG 20010904//EN"
 "http://www.w3.org/TR/2001/REC-SVG-20010904/DTD/svg10.dtd">
<svg version="1.0" xmlns="http://www.w3.org/2000/svg"
 width="32.000000pt" height="32.000000pt" viewBox="0 0 32.000000 32.000000"
 preserveAspectRatio="xMidYMid meet">
<metadata>
Created by potrace 1.16, written by Peter Selinger 2001-2019
</metadata>
<g transform="translate(0.000000,32.000000) scale(0.100000,-0.100000)"
fill="#000000" stroke="none">
<path fill="#000000" stroke="none" d="M210 313 c-64 -6 -90 -33 -90 -95 0
-26 -4 -48 -10 -48 -5 0 -10 -11 -10 -24 0 -21 -49 -76 -78 -87 -5 -2 -13 -14
-16 -27 -11 -33 14 -38 106 -18 59 13 83 15 88 6 7 -12 49 -6 88 12 22 11 31
48 12 48 -6 0 -15 10 -19 23 -11 27 17 67 31 45 4 -7 8 16 8 55 0 52 -3 67
-15 67 -9 0 -12 6 -8 17 5 13 2 15 -11 10 -14 -5 -17 -3 -12 8 3 9 0 14 -7 13
-7 -1 -32 -3 -57 -5z"/>
<path fill="#ffffff" stroke="none" d="M255 291 c-3 -6 -13 -11 -21 -11 -8 0
-12 -4 -9 -10 4 -6 17 -4 36 6 l30 15 -15 -30 c-9 -16 -12 -32 -7 -35 5 -3 11
3 14 14 10 38 22 20 19 -27 -2 -28 -12 -56 -22 -68 -10 -11 -20 -29 -23 -40
-4 -18 -5 -18 -6 3 -1 25 -11 28 -30 10 -8 -8 -11 -8 -8 -2 4 7 -3 14 -16 18
-21 6 -20 7 9 20 38 17 50 34 35 49 -8 8 -22 1 -51 -28 -22 -21 -40 -44 -40
-50 0 -5 5 -3 10 5 6 9 10 10 10 3 0 -21 -21 -25 -41 -7 -23 21 -25 36 -2 27
12 -5 14 -3 8 7 -5 8 -4 11 2 7 5 -3 25 9 43 28 27 28 31 37 21 48 -10 10 -16
7 -32 -12 -10 -13 -19 -30 -19 -38 0 -8 -4 -11 -10 -8 -17 11 -12 80 8 98 9 8
37 17 62 19 52 3 54 3 45 -11z"/>
<path fill="#ffffff" stroke="none" d="M200 232 c0 -5 -9 -17 -20 -27 -11 -10
-20 -13 -20 -7 0 7 5 12 10 12 6 0 9 3 9 8 -3 14 1 22 11 22 6 0 10 -4 10 -8z"/>
<path fill="#ffffff" stroke="none" d="M237 188 c-2 -7 -10 -12 -16 -10 -6 1
-11 -2 -11 -8 0 -5 -5 -10 -12 -10 -6 0 -3 9 7 20 20 22 39 27 32 8z"/>
<path fill="#ffffff" stroke="none" d="M125 110 c-3 -5 2 -16 12 -25 16 -16
15 -17 -3 -13 -10 2 -18 10 -16 16 1 7 -3 12 -9 12 -6 0 -8 -9 -4 -20 6 -20
-2 -25 -33 -21 -8 1 -16 -7 -19 -18 -5 -18 -31 -36 -40 -28 -7 8 9 37 21 37 6
1 27 18 46 39 19 21 38 37 43 34 4 -2 5 -8 2 -13z"/>
<path fill="#000000" stroke="none" d="M226 241 c-4 -5 -2 -12 3 -15 5 -4 12
-2 15 3 4 5 2 12 -3 15 -5 4 -12 2 -15 -3z"/>
<path fill="#000000" stroke="none" d="M80 69 c0 -5 5 -7 10 -4 6 3 10 8 10
11 0 2 -4 4 -10 4 -5 0 -10 -5 -10 -11z"/>
</g>
</svg>
