<?xml version="1.0" standalone="no"?>
<!DOCTYPE svg PUBLIC "-//W3C//DTD SVG 20010904//EN"
 "http://www.w3.org/TR/2001/REC-SVG-20010904/DTD/svg10.dtd">
<svg version="1.0" xmlns="http://www.w3.org/2000/svg"
 width="32.000000pt" height="32.000000pt" viewBox="0 0 32.000000 32.000000"
 preserveAspectRatio="xMidYMid meet">
<metadata>
Created by potrace 1.16, written by Peter Selinger 2001-2019
</metadata>
<g transform="translate(0.000000,32.000000) scale(0.100000,-0.100000)"
fill="#000000" stroke="none">
<path fill="#000000" stroke="none" d="M0 160 l0 -160 160 0 160 0 0 160 0
160 -160 0 -160 0 0 -160z"/>
<path fill="#ffffff" stroke="none" d="M215 169 c-67 -69 -76 -81 -64 -95 12
-15 15 -14 31 6 23 28 25 4 2 -28 -19 -27 -44 -30 -37 -3 4 14 -2 19 -26 23
-24 4 -36 -2 -58 -24 -16 -17 -21 -28 -13 -28 7 0 10 -3 7 -6 -8 -8 -37 14
-37 27 0 5 3 8 8 7 4 -1 19 6 34 15 22 15 25 23 19 45 -5 16 -14 26 -24 26
-24 -2 -21 22 5 40 32 23 56 21 28 -2 -20 -16 -20 -19 -6 -31 13 -11 24 -5 78
46 l63 58 -50 -55 c-27 -30 -58 -58 -68 -62 -22 -9 -19 -43 4 -43 22 0 161
161 157 182 -1 10 2 25 7 33 8 12 11 7 13 -19 3 -30 -5 -41 -73 -112z"/>
</g>
</svg>
