<?xml version="1.0" standalone="no"?>
<!DOCTYPE svg PUBLIC "-//W3C//DTD SVG 20010904//EN"
 "http://www.w3.org/TR/2001/REC-SVG-20010904/DTD/svg10.dtd">
<svg version="1.0" xmlns="http://www.w3.org/2000/svg"
 width="32.000000pt" height="32.000000pt" viewBox="0 0 32.000000 32.000000"
 preserveAspectRatio="xMidYMid meet">
<metadata>
Created by potrace 1.16, written by Peter Selinger 2001-2019
</metadata>
<g transform="translate(0.000000,32.000000) scale(0.100000,-0.100000)"
fill="#000000" stroke="none">
<path fill="#000000" stroke="none" d="M162 302 c1 -10 -7 -31 -20 -46 -12
-16 -22 -35 -22 -42 0 -10 -14 -14 -45 -14 l-45 0 0 -72 c-1 -48 -6 -80 -15
-92 -8 -11 -15 -23 -15 -28 0 -4 72 -8 160 -8 l160 0 0 46 0 46 -55 -4 c-47
-4 -55 -2 -53 11 2 9 12 16 23 16 11 0 35 9 53 20 26 15 32 26 32 52 0 18 -4
33 -10 33 -5 0 -10 15 -10 34 0 36 -12 46 -56 46 -13 0 -24 5 -24 10 0 6 -14
10 -31 10 -24 0 -30 -4 -27 -18z"/>
</g>
</svg>
