<?xml version="1.0" standalone="no"?>
<!DOCTYPE svg PUBLIC "-//W3C//DTD SVG 20010904//EN"
 "http://www.w3.org/TR/2001/REC-SVG-20010904/DTD/svg10.dtd">
<svg version="1.0" xmlns="http://www.w3.org/2000/svg"
 width="32.000000pt" height="32.000000pt" viewBox="0 0 32.000000 32.000000"
 preserveAspectRatio="xMidYMid meet">
<metadata>
Created by potrace 1.16, written by Peter Selinger 2001-2019
</metadata>
<g transform="translate(0.000000,32.000000) scale(0.100000,-0.100000)"
fill="#000000" stroke="none">
<path fill="#000000" stroke="none" d="M233 240 c-45 -44 -97 -86 -115 -95
-18 -8 -25 -13 -16 -11 12 4 15 1 11 -11 -5 -12 -2 -15 10 -10 12 4 15 1 11
-11 -2 -9 3 -2 11 16 9 18 52 71 97 117 44 47 79 85 77 85 -2 0 -41 -36 -86
-80z"/>
<path fill="#000000" stroke="none" d="M73 91 c-1 -10 6 -17 17 -17 10 0 16 6
13 12 -7 20 -29 23 -30 5z"/>
</g>
</svg>
