<?xml version="1.0" standalone="no"?>
<!DOCTYPE svg PUBLIC "-//W3C//DTD SVG 20010904//EN"
 "http://www.w3.org/TR/2001/REC-SVG-20010904/DTD/svg10.dtd">
<svg version="1.0" xmlns="http://www.w3.org/2000/svg"
 width="32.000000pt" height="32.000000pt" viewBox="0 0 32.000000 32.000000"
 preserveAspectRatio="xMidYMid meet">
<metadata>
Created by potrace 1.16, written by Peter Selinger 2001-2019
</metadata>
<g transform="translate(0.000000,32.000000) scale(0.100000,-0.100000)"
fill="#000000" stroke="none">
<path fill="#000000" stroke="none" d="M215 244 c-41 -36 -75 -70 -75 -75 0
-6 4 -8 9 -4 5 3 13 0 17 -6 4 -7 3 -9 -3 -6 -13 8 -27 -4 -93 -78 l-54 -60
54 50 c30 28 58 56 63 63 4 6 16 12 27 12 18 0 116 104 139 148 20 38 -5 25
-84 -44z"/>
</g>
</svg>
