<?xml version="1.0" standalone="no"?>
<!DOCTYPE svg PUBLIC "-//W3C//DTD SVG 20010904//EN"
 "http://www.w3.org/TR/2001/REC-SVG-20010904/DTD/svg10.dtd">
<svg version="1.0" xmlns="http://www.w3.org/2000/svg"
 width="32.000000pt" height="32.000000pt" viewBox="0 0 32.000000 32.000000"
 preserveAspectRatio="xMidYMid meet">
<metadata>
Created by potrace 1.16, written by Peter Selinger 2001-2019
</metadata>
<g transform="translate(0.000000,32.000000) scale(0.100000,-0.100000)"
fill="#000000" stroke="none">
<path fill="#000000" stroke="none" d="M276 295 c-16 -12 -22 -12 -28 -2 -5 8
-8 7 -8 -6 0 -15 -3 -16 -21 -7 -20 11 -20 11 -4 -14 12 -18 14 -26 5 -26 -9
0 -9 -4 1 -16 9 -11 15 -12 17 -5 3 9 11 7 29 -4 24 -16 24 -16 13 4 -9 18 -8
21 7 21 15 0 15 2 -3 15 -10 8 -14 15 -9 15 6 0 16 9 23 20 14 23 5 25 -22 5z"/>
<path fill="#000000" stroke="none" d="M133 179 c13 -18 14 -26 4 -38 -11 -14
-10 -14 6 -2 15 12 20 11 39 -5 l22 -19 -16 26 c-13 20 -14 29 -5 38 9 9 8 11
-5 6 -9 -4 -26 -1 -39 5 -21 12 -21 11 -6 -11z"/>
<path fill="#000000" stroke="none" d="M40 101 c9 -18 8 -21 -7 -22 -11 0 -13
-2 -5 -6 10 -4 10 -10 -3 -30 -21 -32 -15 -38 13 -13 20 19 22 19 31 2 10 -16
10 -16 11 1 0 15 3 16 21 7 20 -11 20 -11 4 14 -12 18 -14 26 -5 26 9 0 9 4
-1 16 -9 11 -15 12 -17 5 -3 -9 -11 -7 -29 4 -24 16 -24 16 -13 -4z"/>
</g>
</svg>
