<?xml version="1.0" standalone="no"?>
<!DOCTYPE svg PUBLIC "-//W3C//DTD SVG 20010904//EN"
 "http://www.w3.org/TR/2001/REC-SVG-20010904/DTD/svg10.dtd">
<svg version="1.0" xmlns="http://www.w3.org/2000/svg"
 width="32.000000pt" height="32.000000pt" viewBox="0 0 32.000000 32.000000"
 preserveAspectRatio="xMidYMid meet">
<metadata>
Created by potrace 1.16, written by Peter Selinger 2001-2019
</metadata>
<g transform="translate(0.000000,32.000000) scale(0.100000,-0.100000)"
fill="#000000" stroke="none">
<path fill="#000000" stroke="none" d="M129 283 c-34 -29 -59 -78 -59 -115 1
-20 3 -18 15 10 16 37 35 42 35 10 0 -21 1 -21 13 -3 11 14 16 15 22 5 6 -9
-16 -35 -68 -85 -61 -55 -74 -74 -65 -83 9 -9 28 4 83 65 50 52 76 74 85 68
10 -6 9 -11 -5 -22 -18 -12 -18 -13 3 -13 32 0 27 -19 -10 -35 -28 -12 -30
-14 -10 -15 37 0 86 25 115 59 31 37 33 53 12 71 -13 10 -15 9 -15 -9 0 -26
-16 -27 -30 -2 -14 27 -13 41 5 41 8 0 15 5 15 10 0 6 9 10 20 10 14 0 20 7
20 23 0 17 -2 19 -10 7 -7 -12 -12 -12 -22 -2 -10 10 -10 15 2 22 12 8 10 10
-7 10 -16 0 -23 -6 -23 -20 0 -11 -4 -20 -10 -20 -5 0 -10 -7 -10 -15 0 -18
-11 -19 -44 -4 -29 13 -25 29 6 29 17 0 18 2 8 15 -18 21 -34 19 -71 -12z"/>
<path fill="#ffffff" stroke="none" d="M191 215 c-1 -15 -24 -12 -29 3 -3 9 2
13 12 10 10 -1 17 -7 17 -13z"/>
<path fill="#ffffff" stroke="none" d="M230 174 c0 -16 -16 -19 -25 -4 -8 13
4 32 16 25 5 -4 9 -13 9 -21z"/>
</g>
</svg>
