<?xml version="1.0" standalone="no"?>
<!DOCTYPE svg PUBLIC "-//W3C//DTD SVG 20010904//EN"
 "http://www.w3.org/TR/2001/REC-SVG-20010904/DTD/svg10.dtd">
<svg version="1.0" xmlns="http://www.w3.org/2000/svg"
 width="32.000000pt" height="32.000000pt" viewBox="0 0 32.000000 32.000000"
 preserveAspectRatio="xMidYMid meet">
<metadata>
Created by potrace 1.16, written by Peter Selinger 2001-2019
</metadata>
<g transform="translate(0.000000,32.000000) scale(0.100000,-0.100000)"
fill="#000000" stroke="none">
<path fill="#000000" stroke="none" d="M225 305 c-16 -7 -41 -26 -54 -41 -21
-25 -22 -28 -8 -39 9 -7 13 -16 9 -20 -4 -4 0 -6 8 -3 8 3 16 12 18 21 2 12
-2 14 -19 10 l-23 -6 23 31 c12 18 30 32 40 32 9 0 22 5 29 12 8 8 12 8 12 1
0 -6 -11 -18 -25 -27 -14 -9 -25 -22 -25 -29 0 -8 3 -8 8 -2 4 6 20 16 35 23
15 6 30 19 33 27 9 23 23 18 17 -6 -3 -12 -21 -30 -39 -41 -19 -11 -34 -22
-34 -25 0 -8 45 9 63 25 11 10 17 11 17 3 0 -19 -68 -84 -79 -76 -6 3 -11 1
-11 -4 0 -22 26 -10 60 26 29 30 35 45 35 80 1 46 -15 58 -34 26 -10 -17 -10
-17 -11 0 0 20 -4 20 -45 2z"/>
<path fill="#000000" stroke="none" d="M225 200 c-4 -7 -21 -10 -37 -8 -21 4
-32 0 -39 -15 -7 -11 -18 -17 -29 -14 -12 3 -16 0 -13 -12 2 -10 -18 -37 -52
-71 -55 -54 -68 -80 -40 -80 25 0 84 33 78 43 -3 6 -1 7 5 3 6 -4 28 2 49 12
21 11 57 22 80 25 23 3 52 12 65 21 l22 16 -21 0 c-12 0 -25 -4 -28 -10 -3 -5
-11 -10 -17 -10 -12 0 29 34 52 43 9 3 5 6 -10 6 -15 1 -30 -3 -35 -8 -6 -5
-21 -12 -35 -16 -19 -5 -21 -4 -10 4 13 9 12 11 -4 11 -17 0 -17 2 -3 23 8 12
20 22 26 22 11 0 16 13 8 21 -3 3 -8 0 -12 -6z"/>
<path fill="#ffffff" stroke="none" d="M190 166 c0 -2 -9 -6 -20 -9 -11 -3
-18 -1 -14 4 5 9 34 13 34 5z"/>
<path fill="#ffffff" stroke="none" d="M140 130 c0 -5 -2 -10 -4 -10 -3 0 -8
5 -11 10 -3 6 -1 10 4 10 6 0 11 -4 11 -10z"/>
<path fill="#ffffff" stroke="none" d="M124 104 c9 -24 7 -31 -10 -38 -14 -5
-15 -4 -4 9 10 12 10 18 0 30 -7 9 -8 15 -2 15 5 0 13 -7 16 -16z"/>
</g>
</svg>
