<?xml version="1.0" standalone="no"?>
<!DOCTYPE svg PUBLIC "-//W3C//DTD SVG 20010904//EN"
 "http://www.w3.org/TR/2001/REC-SVG-20010904/DTD/svg10.dtd">
<svg version="1.0" xmlns="http://www.w3.org/2000/svg"
 width="32.000000pt" height="32.000000pt" viewBox="0 0 32.000000 32.000000"
 preserveAspectRatio="xMidYMid meet">
<metadata>
Created by potrace 1.16, written by Peter Selinger 2001-2019
</metadata>
<g transform="translate(0.000000,32.000000) scale(0.100000,-0.100000)"
fill="#000000" stroke="none">
<path fill="#000000" stroke="none" d="M10 155 l0 -145 155 0 155 0 0 145 0
145 -155 0 -155 0 0 -145z"/>
<path fill="#ffffff" stroke="none" d="M191 248 c3 -20 2 -35 -3 -32 -4 3 -8
18 -8 35 0 26 -3 29 -30 29 -29 0 -45 -12 -90 -66 -17 -21 -17 -24 1 -35 10
-6 8 -14 -11 -33 -17 -19 -19 -26 -9 -26 8 0 19 3 25 7 5 5 1 0 -9 -9 -14 -14
-16 -21 -7 -38 6 -11 18 -20 28 -20 16 1 16 1 0 11 -10 5 -18 15 -18 22 0 7 4
6 10 -3 9 -13 11 -13 21 0 9 12 10 12 5 -4 -5 -13 -2 -17 9 -13 8 4 17 2 20
-4 4 -5 3 -9 -2 -8 -18 3 -36 -1 -29 -8 4 -4 29 -9 56 -11 43 -3 50 -1 66 23
24 37 7 68 -56 100 -41 21 -51 30 -48 47 2 12 9 23 16 24 7 1 8 0 2 -3 -24
-11 -8 -41 31 -58 41 -19 79 -57 79 -81 0 -7 -11 -25 -24 -41 -19 -22 -32 -28
-63 -27 -55 2 -102 29 -119 70 -19 45 -2 102 48 156 30 33 42 39 69 36 30 -3
34 -7 40 -40z"/>
<path fill="#ffffff" stroke="none" d="M235 202 c-3 -3 -11 0 -18 7 -9 10 -8
11 6 5 10 -3 15 -9 12 -12z"/>
</g>
</svg>
