<?xml version="1.0" standalone="no"?>
<!DOCTYPE svg PUBLIC "-//W3C//DTD SVG 20010904//EN"
 "http://www.w3.org/TR/2001/REC-SVG-20010904/DTD/svg10.dtd">
<svg version="1.0" xmlns="http://www.w3.org/2000/svg"
 width="32.000000pt" height="32.000000pt" viewBox="0 0 32.000000 32.000000"
 preserveAspectRatio="xMidYMid meet">
<metadata>
Created by potrace 1.16, written by Peter Selinger 2001-2019
</metadata>
<g transform="translate(0.000000,32.000000) scale(0.100000,-0.100000)"
fill="#000000" stroke="none">
<path fill="#000000" stroke="none" d="M272 294 c-12 -8 -19 -20 -16 -26 4 -6
3 -8 -3 -5 -11 7 -113 -79 -113 -96 0 -7 15 4 33 23 17 20 40 42 50 49 16 13
17 12 8 -10 -5 -13 -15 -23 -21 -21 -7 2 -10 -3 -7 -12 4 -9 -4 -23 -20 -36
-14 -11 -21 -20 -15 -20 6 0 35 28 65 63 79 90 97 132 39 91z"/>
</g>
</svg>
