<?xml version="1.0" standalone="no"?>
<!DOCTYPE svg PUBLIC "-//W3C//DTD SVG 20010904//EN"
 "http://www.w3.org/TR/2001/REC-SVG-20010904/DTD/svg10.dtd">
<svg version="1.0" xmlns="http://www.w3.org/2000/svg"
 width="32.000000pt" height="32.000000pt" viewBox="0 0 32.000000 32.000000"
 preserveAspectRatio="xMidYMid meet">
<metadata>
Created by potrace 1.16, written by Peter Selinger 2001-2019
</metadata>
<g transform="translate(0.000000,32.000000) scale(0.100000,-0.100000)"
fill="#000000" stroke="none">
<path fill="#000000" stroke="none" d="M115 313 c-35 -7 -59 -96 -39 -147 8
-20 34 -21 34 -1 0 8 9 19 21 25 46 25 28 -4 -50 -80 -69 -67 -81 -83 -71 -95
16 -19 51 -19 97 0 27 11 45 13 70 6 22 -6 44 -6 60 0 13 5 35 9 49 9 13 0 24
6 25 13 8 96 6 127 -10 127 -14 1 -14 2 2 14 26 20 23 85 -7 114 -30 28 -92
30 -112 5 -13 -17 -13 -17 -14 0 0 17 -12 19 -55 10z"/>
<path fill="#ffffff" stroke="none" d="M157 295 c-10 -24 15 -30 34 -7 12 16
28 22 55 22 35 0 36 -1 19 -14 -11 -8 -25 -12 -31 -9 -7 2 -18 -5 -26 -16 -13
-18 -17 -19 -40 -7 -26 14 -58 5 -58 -16 0 -7 5 -7 14 1 10 8 16 9 21 1 3 -6
10 -8 15 -5 5 3 11 1 15 -5 3 -5 1 -10 -6 -10 -10 0 -10 -3 -2 -11 8 -8 17 -5
32 10 12 12 19 26 16 30 -8 13 23 7 37 -7 14 -14 20 -44 7 -36 -5 3 -20 -6
-33 -20 -13 -14 -28 -26 -33 -26 -5 0 -23 -13 -39 -30 -16 -16 -35 -30 -43
-30 -8 0 2 16 22 37 21 20 37 42 37 50 0 22 -37 15 -58 -12 -11 -13 -22 -21
-26 -18 -11 11 -6 97 7 114 21 28 73 40 64 14z"/>
<path fill="#ffffff" stroke="none" d="M290 273 c0 -10 -4 -14 -8 -8 -4 6 -11
13 -16 18 -5 4 -2 7 7 7 10 0 17 -8 17 -17z"/>
<path fill="#ffffff" stroke="none" d="M289 191 c-24 -19 -18 -44 8 -34 13 5
15 2 9 -22 -10 -40 -33 -54 -87 -55 -57 0 -65 7 -34 32 14 11 25 28 25 39 0
11 5 17 10 14 6 -3 10 -1 10 5 0 6 5 8 10 5 6 -4 8 -10 5 -15 -3 -5 -1 -12 5
-15 8 -5 7 -11 -1 -21 -8 -9 -8 -14 -1 -14 21 0 30 32 16 58 -12 23 -11 27 7
40 11 7 19 19 18 25 -1 7 2 21 7 32 8 17 10 14 12 -18 3 -29 -2 -42 -19 -56z"/>
<path fill="#ffffff" stroke="none" d="M200 151 c0 -12 -20 -25 -27 -18 -7 7
6 27 18 27 5 0 9 -4 9 -9z"/>
<path fill="#ffffff" stroke="none" d="M98 59 c-7 -4 -15 -6 -19 -3 -4 2 -10
0 -14 -6 -4 -6 -10 -8 -15 -5 -5 3 -2 14 7 24 13 16 20 17 34 8 13 -8 15 -13
7 -18z"/>
</g>
</svg>
