<?xml version="1.0" standalone="no"?>
<!DOCTYPE svg PUBLIC "-//W3C//DTD SVG 20010904//EN"
 "http://www.w3.org/TR/2001/REC-SVG-20010904/DTD/svg10.dtd">
<svg version="1.0" xmlns="http://www.w3.org/2000/svg"
 width="32.000000pt" height="32.000000pt" viewBox="0 0 32.000000 32.000000"
 preserveAspectRatio="xMidYMid meet">
<metadata>
Created by potrace 1.16, written by Peter Selinger 2001-2019
</metadata>
<g transform="translate(0.000000,32.000000) scale(0.100000,-0.100000)"
fill="#000000" stroke="none">
<path fill="#000000" stroke="none" d="M0 160 l0 -160 160 0 161 0 -1 159 -2
159 -159 2 -159 1 0 -161z"/>
<path fill="#ffffff" stroke="none" d="M300 290 c-6 -4 -11 -11 -9 -16 1 -5
-8 -14 -21 -21 -30 -15 -42 -35 -27 -46 7 -5 3 -6 -10 -2 -15 4 -25 0 -32 -12
-5 -10 -13 -14 -18 -10 -4 5 0 13 10 18 12 7 16 18 13 32 -3 12 -3 17 0 10 8
-18 34 -4 45 23 4 13 15 24 24 24 8 0 15 5 15 11 0 5 5 7 11 3 8 -5 8 -9 -1
-14z"/>
<path fill="#ffffff" stroke="none" d="M200 266 c0 -1 -13 -15 -29 -30 -26
-25 -29 -26 -33 -8 -4 16 -1 18 15 14 16 -4 19 -1 15 15 -4 16 -2 19 13 16 11
-3 19 -6 19 -7z"/>
<path fill="#ffffff" stroke="none" d="M127 194 c-9 -9 -28 6 -21 18 4 6 10 6
17 -1 6 -6 8 -13 4 -17z"/>
<path fill="#ffffff" stroke="none" d="M273 181 c3 -14 1 -18 -9 -14 -15 6
-18 16 -7 26 9 10 10 9 16 -12z"/>
<path fill="#ffffff" stroke="none" d="M174 155 c3 -9 0 -12 -9 -9 -7 3 -16
12 -19 19 -3 9 0 12 9 9 7 -3 16 -12 19 -19z"/>
<path fill="#ffffff" stroke="none" d="M243 146 c4 -10 1 -13 -9 -9 -15 6 -19
23 -5 23 5 0 11 -7 14 -14z"/>
<path fill="#ffffff" stroke="none" d="M94 75 c3 -9 0 -12 -9 -9 -7 3 -16 12
-19 19 -3 9 0 12 9 9 7 -3 16 -12 19 -19z"/>
<path fill="#ffffff" stroke="none" d="M35 29 c11 -17 -1 -21 -15 -4 -8 9 -8
15 -2 15 6 0 14 -5 17 -11z"/>
</g>
</svg>
