<?xml version="1.0" standalone="no"?>
<!DOCTYPE svg PUBLIC "-//W3C//DTD SVG 20010904//EN"
 "http://www.w3.org/TR/2001/REC-SVG-20010904/DTD/svg10.dtd">
<svg version="1.0" xmlns="http://www.w3.org/2000/svg"
 width="32.000000pt" height="32.000000pt" viewBox="0 0 32.000000 32.000000"
 preserveAspectRatio="xMidYMid meet">
<metadata>
Created by potrace 1.16, written by Peter Selinger 2001-2019
</metadata>
<g transform="translate(0.000000,32.000000) scale(0.100000,-0.100000)"
fill="#000000" stroke="none">
<path fill="#000000" stroke="none" d="M263 293 c-8 -26 -204 -223 -230 -234
-23 -9 -32 -39 -12 -39 5 0 7 5 4 10 -10 16 23 24 40 10 17 -14 105 -17 125
-5 8 5 18 1 25 -8 18 -24 20 -21 20 21 0 36 1 37 38 37 41 0 44 2 20 20 -9 7
-13 17 -8 25 12 20 9 108 -5 125 -14 17 -6 50 10 40 5 -3 10 -1 10 4 0 18 -30
12 -37 -6z"/>
<path fill="#ffffff" stroke="none" d="M270 219 c0 -17 -8 -44 -17 -62 -9 -18
-17 -41 -17 -52 -1 -13 -8 -20 -21 -21 -11 0 -34 -8 -52 -17 -33 -17 -84 -23
-97 -10 -9 9 185 204 196 197 4 -3 8 -19 8 -35z"/>
<path fill="#ffffff" stroke="none" d="M272 138 c-7 -7 -12 -8 -12 -2 0 14 12
26 19 19 2 -3 -1 -11 -7 -17z"/>
<path fill="#ffffff" stroke="none" d="M185 50 c-3 -5 -11 -10 -16 -10 -6 0
-7 5 -4 10 3 6 11 10 16 10 6 0 7 -4 4 -10z"/>
</g>
</svg>
