<?xml version="1.0" standalone="no"?>
<!DOCTYPE svg PUBLIC "-//W3C//DTD SVG 20010904//EN"
 "http://www.w3.org/TR/2001/REC-SVG-20010904/DTD/svg10.dtd">
<svg version="1.0" xmlns="http://www.w3.org/2000/svg"
 width="32.000000pt" height="32.000000pt" viewBox="0 0 32.000000 32.000000"
 preserveAspectRatio="xMidYMid meet">
<metadata>
Created by potrace 1.16, written by Peter Selinger 2001-2019
</metadata>
<g transform="translate(0.000000,32.000000) scale(0.100000,-0.100000)"
fill="#000000" stroke="none">
<path fill="#000000" stroke="none" d="M0 160 l0 -160 160 0 160 0 0 160 0
160 -160 0 -160 0 0 -160z"/>
<path fill="#ffffff" stroke="none" d="M69 136 c10 -12 8 -17 -8 -26 -14 -7
-21 -7 -21 0 0 5 7 10 16 10 14 0 14 3 4 15 -7 8 -10 15 -7 15 2 0 10 -6 16
-14z"/>
<path fill="#ffffff" stroke="none" d="M80 70 c0 -5 -2 -10 -4 -10 -3 0 -8 5
-11 10 -3 6 -1 10 4 10 6 0 11 -4 11 -10z"/>
<path fill="#ffffff" stroke="none" d="M141 63 c13 -16 12 -17 -3 -4 -16 12
-18 11 -18 -3 0 -9 -5 -16 -10 -16 -7 0 -7 6 0 20 13 24 14 24 31 3z"/>
</g>
</svg>
