<?xml version="1.0" standalone="no"?>
<!DOCTYPE svg PUBLIC "-//W3C//DTD SVG 20010904//EN"
 "http://www.w3.org/TR/2001/REC-SVG-20010904/DTD/svg10.dtd">
<svg version="1.0" xmlns="http://www.w3.org/2000/svg"
 width="32.000000pt" height="32.000000pt" viewBox="0 0 32.000000 32.000000"
 preserveAspectRatio="xMidYMid meet">
<metadata>
Created by potrace 1.16, written by Peter Selinger 2001-2019
</metadata>
<g transform="translate(0.000000,32.000000) scale(0.100000,-0.100000)"
fill="#000000" stroke="none">
<path fill="#000000" stroke="none" d="M0 159 c0 -144 2 -161 14 -143 15 19
15 19 30 -1 10 -12 14 -14 11 -5 -3 9 7 28 25 45 l30 29 23 -22 c21 -20 25
-20 43 -7 18 14 18 14 -3 9 -16 -4 -27 2 -44 25 l-23 31 -29 -35 c-16 -19 -38
-40 -50 -46 -13 -7 -8 1 12 20 34 30 34 31 15 52 -17 19 -17 23 -3 47 19 35
40 34 52 -3 13 -39 26 -55 46 -55 14 0 14 2 1 11 -12 8 -9 10 12 6 20 -3 26 0
23 13 -4 21 1 28 52 74 l42 37 10 -33 c9 -31 9 -30 10 22 1 39 4 51 11 40 6
-9 10 -10 10 -3 0 6 -7 19 -16 27 -12 13 -40 16 -144 16 -71 0 -135 3 -144 6
-14 5 -16 -12 -16 -157z"/>
<path fill="#ffffff" stroke="none" d="M229 241 c-33 -32 -62 -69 -64 -81 -5
-27 -13 -36 -22 -26 -4 4 -2 11 6 15 10 7 9 10 -3 14 -12 5 -16 0 -16 -16 0
-17 -2 -19 -10 -7 -10 16 6 43 23 37 6 -2 37 25 70 60 34 35 64 63 68 63 4 0
-20 -26 -52 -59z"/>
<path fill="#000000" stroke="none" d="M313 200 c0 -25 2 -35 4 -22 2 12 2 32
0 45 -2 12 -4 2 -4 -23z"/>
<path fill="#000000" stroke="none" d="M243 198 c-19 -21 -37 -68 -27 -68 19
0 64 34 64 48 0 36 -15 43 -37 20z"/>
<path fill="#000000" stroke="none" d="M65 170 c-13 -21 -13 -49 0 -60 20 -17
40 23 25 50 -12 23 -16 24 -25 10z"/>
<path fill="#ffffff" stroke="none" d="M90 137 c0 -5 -4 -5 -10 -2 -5 3 -10
14 -10 23 0 15 2 15 10 2 5 -8 10 -19 10 -23z"/>
<path fill="#000000" stroke="none" d="M255 87 c-33 -18 -64 -42 -70 -54 -11
-26 -25 -29 -43 -11 -9 9 -12 8 -12 -5 0 -15 12 -17 95 -17 l95 0 0 60 c0 33
-1 60 -2 60 -2 0 -30 -15 -63 -33z"/>
<path fill="#000000" stroke="none" d="M95 58 c-4 -10 -4 -26 0 -35 8 -17 8
-17 12 0 3 9 3 25 0 35 -4 16 -4 16 -12 0z"/>
</g>
</svg>
