<?xml version="1.0" standalone="no"?>
<!DOCTYPE svg PUBLIC "-//W3C//DTD SVG 20010904//EN"
 "http://www.w3.org/TR/2001/REC-SVG-20010904/DTD/svg10.dtd">
<svg version="1.0" xmlns="http://www.w3.org/2000/svg"
 width="30.000000pt" height="30.000000pt" viewBox="0 0 30.000000 30.000000"
 preserveAspectRatio="xMidYMid meet">
<metadata>
Created by potrace 1.16, written by Peter Selinger 2001-2019
</metadata>
<g transform="translate(0.000000,30.000000) scale(0.100000,-0.100000)"
fill="#000000" stroke="none">
<path fill="#000000" stroke="none" d="M0 150 l0 -150 150 0 150 0 0 120 c0
89 -4 129 -15 150 l-16 30 -134 0 -135 0 0 -150z"/>
<path fill="#ffffff" stroke="none" d="M214 262 c-6 -4 -14 -21 -20 -38 -8
-26 -12 -29 -34 -23 -24 7 -24 7 -2 8 12 1 22 7 22 14 0 18 31 60 38 52 4 -3
2 -9 -4 -13z"/>
<path fill="#ffffff" stroke="none" d="M280 251 c0 -9 -5 -23 -11 -31 -9 -12
-10 -10 -6 8 4 17 1 22 -10 20 -18 -3 -29 -20 -39 -63 l-8 -30 -4 27 c-2 15 4
43 13 61 13 28 20 33 40 29 15 -2 25 -11 25 -21z"/>
<path fill="#ffffff" stroke="none" d="M275 210 c12 10 15 9 15 -4 0 -12 -8
-16 -30 -14 -20 1 -30 8 -30 18 0 27 14 32 22 9 7 -17 11 -19 23 -9z"/>
<path fill="#ffffff" stroke="none" d="M190 166 c7 -14 10 -36 6 -50 -5 -21
-13 -26 -36 -26 -19 0 -33 7 -40 20 -6 11 -19 24 -30 30 -15 8 -21 6 -30 -11
-10 -17 -7 -24 15 -45 14 -13 23 -29 20 -34 -10 -16 -28 -12 -21 5 3 10 -1 15
-13 15 -10 0 -24 12 -32 26 -13 24 -12 28 14 50 38 32 57 30 89 -8 21 -27 29
-31 39 -20 11 10 10 12 -3 12 -21 0 -42 26 -34 45 8 23 41 18 56 -9z"/>
<path fill="#ffffff" stroke="none" d="M225 138 c-4 -18 -11 -37 -17 -43 -9
-9 -5 22 8 63 8 26 15 10 9 -20z"/>
<path fill="#ffffff" stroke="none" d="M90 125 c11 -13 10 -14 -4 -9 -9 3 -16
10 -16 15 0 13 6 11 20 -6z"/>
<path fill="#ffffff" stroke="none" d="M178 73 c-10 -2 -26 -2 -35 0 -10 3 -2
5 17 5 19 0 27 -2 18 -5z"/>
<path fill="#ffffff" stroke="none" d="M128 30 c3 -7 0 -10 -7 -6 -6 4 -11 2
-11 -5 0 -10 -3 -10 -11 -2 -13 13 -2 36 14 30 6 -2 13 -9 15 -17z"/>
<path fill="#000000" stroke="none" d="M150 166 c0 -2 7 -9 15 -16 13 -11 14
-10 9 4 -5 14 -24 23 -24 12z"/>
</g>
</svg>
