<?xml version="1.0" standalone="no"?>
<!DOCTYPE svg PUBLIC "-//W3C//DTD SVG 20010904//EN"
 "http://www.w3.org/TR/2001/REC-SVG-20010904/DTD/svg10.dtd">
<svg version="1.0" xmlns="http://www.w3.org/2000/svg"
 width="32.000000pt" height="32.000000pt" viewBox="0 0 32.000000 32.000000"
 preserveAspectRatio="xMidYMid meet">
<metadata>
Created by potrace 1.16, written by Peter Selinger 2001-2019
</metadata>
<g transform="translate(0.000000,32.000000) scale(0.100000,-0.100000)"
fill="#000000" stroke="none">
<path fill="#000000" stroke="none" d="M248 298 c-21 -6 -38 -14 -38 -19 0 -5
-9 -9 -21 -9 -15 0 -19 -5 -15 -15 3 -9 0 -15 -8 -15 -22 0 -41 -29 -28 -42
14 -14 -39 -84 -75 -101 -12 -5 -23 -16 -23 -22 0 -7 -7 -18 -15 -25 -22 -18
-18 -40 6 -40 11 0 64 11 118 25 53 13 106 22 116 19 13 -3 24 2 32 15 12 20
10 20 -52 19 -36 0 -65 -5 -65 -9 0 -10 -80 -33 -87 -25 -3 3 15 26 40 53 43
45 48 47 68 34 20 -12 25 -11 41 9 10 12 18 31 18 41 0 10 6 19 14 19 8 0 18
19 25 44 16 65 18 63 -51 44z"/>
<path fill="#ffffff" stroke="none" d="M295 278 c-4 -13 -9 -31 -11 -40 -3
-10 -12 -18 -20 -18 -8 0 -12 5 -9 10 3 6 1 10 -4 10 -6 0 -11 -4 -11 -10 0
-15 -17 -12 -24 5 -9 25 4 44 38 54 46 14 48 13 41 -11z"/>
<path fill="#ffffff" stroke="none" d="M232 200 c23 -9 23 -9 -3 -9 -27 -1
-40 15 -38 47 0 12 3 10 9 -6 5 -12 20 -27 32 -32z"/>
<path fill="#ffffff" stroke="none" d="M180 209 c13 -23 6 -54 -10 -44 -5 3
-10 1 -10 -6 0 -7 -3 -9 -7 -6 -3 4 2 16 12 27 15 17 16 20 3 15 -18 -7 -33 9
-23 25 10 16 23 12 35 -11z"/>
<path fill="#ffffff" stroke="none" d="M140 137 c0 -2 -14 -16 -32 -33 l-31
-29 22 33 c18 26 41 42 41 29z"/>
<path fill="#ffffff" stroke="none" d="M62 65 c-2 -14 -8 -25 -13 -25 -12 0
-11 7 1 31 14 26 18 24 12 -6z"/>
<path fill="#000000" stroke="none" d="M155 210 c-3 -5 -1 -10 4 -10 6 0 11 5
11 10 0 6 -2 10 -4 10 -3 0 -8 -4 -11 -10z"/>
</g>
</svg>
