<?xml version="1.0" standalone="no"?>
<!DOCTYPE svg PUBLIC "-//W3C//DTD SVG 20010904//EN"
 "http://www.w3.org/TR/2001/REC-SVG-20010904/DTD/svg10.dtd">
<svg version="1.0" xmlns="http://www.w3.org/2000/svg"
 width="32.000000pt" height="32.000000pt" viewBox="0 0 32.000000 32.000000"
 preserveAspectRatio="xMidYMid meet">
<metadata>
Created by potrace 1.16, written by Peter Selinger 2001-2019
</metadata>
<g transform="translate(0.000000,32.000000) scale(0.100000,-0.100000)"
fill="#000000" stroke="none">
<path fill="#000000" stroke="none" d="M0 160 l0 -160 160 0 160 0 0 60 c0 64
-1 65 -28 51 -9 -5 -30 -14 -47 -21 -16 -7 -37 -16 -45 -21 -57 -34 -83 -43
-87 -31 -6 17 -28 15 -43 -3 -15 -18 -46 -20 -56 -3 -4 6 3 20 17 31 14 11 23
27 21 38 -2 11 3 22 11 25 8 3 12 14 10 27 -4 18 2 25 32 37 22 9 41 25 47 40
6 14 12 20 15 13 3 -9 10 -10 24 -3 29 16 23 33 -9 25 -21 -4 -33 -1 -43 11
-9 12 -10 15 -1 10 7 -4 23 1 38 13 l27 21 -102 0 -101 0 0 -160z"/>
<path fill="#000000" stroke="none" d="M273 309 c14 -8 16 -14 6 -25 -9 -11
-7 -14 15 -14 21 0 26 5 26 25 0 22 -4 25 -32 25 -28 -1 -30 -2 -15 -11z"/>
<path fill="#000000" stroke="none" d="M230 285 c12 -15 30 -12 30 6 0 5 -10
9 -21 9 -18 0 -19 -2 -9 -15z"/>
<path fill="#000000" stroke="none" d="M199 204 c-34 -34 -55 -62 -47 -60 9 1
23 8 32 15 8 7 19 10 25 7 5 -4 11 4 13 16 2 13 9 22 16 21 6 -2 12 2 12 7 0
6 7 10 15 10 8 0 15 6 15 14 0 8 6 16 12 18 7 3 3 7 -9 10 -16 4 -35 -9 -84
-58z"/>
<path fill="#ffffff" stroke="none" d="M270 257 c0 -1 -26 -27 -57 -57 l-58
-55 55 58 c50 53 60 62 60 54z"/>
<path fill="#000000" stroke="none" d="M303 243 c-7 -2 -13 -11 -13 -19 0 -8
-4 -14 -10 -14 -11 0 -50 -31 -50 -40 0 -4 14 -5 30 -2 18 3 30 0 30 -7 0 -6
7 -11 15 -11 11 0 15 12 15 50 0 28 -1 50 -2 49 -2 0 -9 -3 -15 -6z"/>
</g>
</svg>
