<?xml version="1.0" standalone="no"?>
<!DOCTYPE svg PUBLIC "-//W3C//DTD SVG 20010904//EN"
 "http://www.w3.org/TR/2001/REC-SVG-20010904/DTD/svg10.dtd">
<svg version="1.0" xmlns="http://www.w3.org/2000/svg"
 width="32.000000pt" height="32.000000pt" viewBox="0 0 32.000000 32.000000"
 preserveAspectRatio="xMidYMid meet">
<metadata>
Created by potrace 1.16, written by Peter Selinger 2001-2019
</metadata>
<g transform="translate(0.000000,32.000000) scale(0.100000,-0.100000)"
fill="#000000" stroke="none">
<path fill="#000000" stroke="none" d="M227 133 c-4 -3 -7 -17 -7 -30 0 -20
-5 -23 -38 -23 -39 0 -92 -19 -92 -32 0 -11 10 -10 84 4 l63 12 -1 38 c0 21
-1 38 -2 38 0 0 -4 -3 -7 -7z"/>
<path fill="#000000" stroke="none" d="M185 33 c-11 -3 -29 -12 -40 -19 -17
-13 -14 -14 38 -14 50 0 57 2 57 20 0 20 -13 23 -55 13z"/>
</g>
</svg>
