<?xml version="1.0" standalone="no"?>
<!DOCTYPE svg PUBLIC "-//W3C//DTD SVG 20010904//EN"
 "http://www.w3.org/TR/2001/REC-SVG-20010904/DTD/svg10.dtd">
<svg version="1.0" xmlns="http://www.w3.org/2000/svg"
 width="32.000000pt" height="32.000000pt" viewBox="0 0 32.000000 32.000000"
 preserveAspectRatio="xMidYMid meet">
<metadata>
Created by potrace 1.16, written by Peter Selinger 2001-2019
</metadata>
<g transform="translate(0.000000,32.000000) scale(0.100000,-0.100000)"
fill="#000000" stroke="none">
<path fill="#000000" stroke="none" d="M0 165 c0 -184 6 -195 70 -122 48 54
203 151 231 144 17 -5 19 1 19 64 l0 69 -160 0 -160 0 0 -155z"/>
<path fill="#ffffff" stroke="none" d="M268 267 c3 -15 -233 -257 -250 -257
-20 0 1 26 102 126 104 102 125 133 86 126 -22 -4 -21 24 2 37 20 12 55 -7 60
-32z"/>
<path fill="#000000" stroke="none" d="M195 89 c-66 -38 -124 -74 -129 -79 -7
-7 36 -10 122 -10 l132 0 0 80 c0 44 -1 80 -2 79 -2 0 -57 -32 -123 -70z"/>
</g>
</svg>
