<?xml version="1.0" standalone="no"?>
<!DOCTYPE svg PUBLIC "-//W3C//DTD SVG 20010904//EN"
 "http://www.w3.org/TR/2001/REC-SVG-20010904/DTD/svg10.dtd">
<svg version="1.0" xmlns="http://www.w3.org/2000/svg"
 width="32.000000pt" height="32.000000pt" viewBox="0 0 32.000000 32.000000"
 preserveAspectRatio="xMidYMid meet">
<metadata>
Created by potrace 1.16, written by Peter Selinger 2001-2019
</metadata>
<g transform="translate(0.000000,32.000000) scale(0.100000,-0.100000)"
fill="#000000" stroke="none">
<path fill="#000000" stroke="none" d="M0 160 l0 -160 160 0 160 0 0 160 0
160 -160 0 -160 0 0 -160z"/>
<path fill="#ffffff" stroke="none" d="M264 224 c-9 -22 -16 -45 -15 -53 5
-28 -8 -42 -27 -32 -15 8 -28 4 -60 -19 -24 -18 -46 -28 -56 -24 -9 3 -24 0
-34 -7 -15 -13 -16 -12 -3 4 7 9 19 17 25 17 7 0 27 15 45 34 18 19 38 33 45
32 6 -2 8 -1 5 1 -4 2 -2 17 4 32 7 19 16 27 26 24 10 -3 12 -2 5 4 -6 4 -13
18 -16 30 -5 20 -3 21 20 12 17 -7 29 -6 36 1 8 8 5 9 -9 4 l-20 -7 20 16 c19
15 20 14 23 -8 2 -12 -5 -40 -14 -61z"/>
<path fill="#ffffff" stroke="none" d="M168 255 c5 -25 -13 -38 -42 -31 -16 4
-24 11 -21 21 3 8 7 22 10 30 6 20 49 4 53 -20z"/>
<path fill="#ffffff" stroke="none" d="M78 253 c-4 -22 -22 -20 -26 1 -2 10 3
16 13 16 10 0 15 -7 13 -17z"/>
<path fill="#ffffff" stroke="none" d="M191 228 c-12 -35 -91 -122 -91 -100 0
7 6 12 13 13 6 0 3 4 -8 9 -11 5 -14 9 -7 9 7 1 17 12 22 26 6 16 17 25 30 25
14 0 24 10 32 31 6 16 12 28 15 25 3 -2 0 -20 -6 -38z"/>
<path fill="#ffffff" stroke="none" d="M98 208 c-6 -18 -28 -21 -28 -4 0 9 7
16 16 16 9 0 14 -5 12 -12z"/>
<path fill="#ffffff" stroke="none" d="M191 109 c-45 -27 -61 -23 -21 6 18 13
37 22 42 19 5 -4 -4 -15 -21 -25z"/>
</g>
</svg>
