<?xml version="1.0" standalone="no"?>
<!DOCTYPE svg PUBLIC "-//W3C//DTD SVG 20010904//EN"
 "http://www.w3.org/TR/2001/REC-SVG-20010904/DTD/svg10.dtd">
<svg version="1.0" xmlns="http://www.w3.org/2000/svg"
 width="32.000000pt" height="32.000000pt" viewBox="0 0 32.000000 32.000000"
 preserveAspectRatio="xMidYMid meet">
<metadata>
Created by potrace 1.16, written by Peter Selinger 2001-2019
</metadata>
<g transform="translate(0.000000,32.000000) scale(0.100000,-0.100000)"
fill="#000000" stroke="none">
<path fill="#000000" stroke="none" d="M213 306 c-8 -15 -14 -16 -32 -6 -29
15 -35 9 -20 -24 11 -23 10 -28 -6 -40 -18 -13 -18 -14 1 -24 18 -10 18 -12
-10 -41 -35 -36 -46 -39 -46 -11 0 17 -7 20 -40 20 l-40 0 0 -55 c0 -36 -4
-55 -12 -55 -9 0 -9 -3 0 -12 7 -7 12 -21 11 -32 -1 -18 -2 -18 -10 4 l-8 25
2 -25 c2 -24 5 -25 85 -28 77 -3 82 -2 82 18 0 13 10 24 25 30 29 11 43 36 28
51 -7 7 -24 5 -50 -4 -51 -17 -54 -1 -6 45 31 30 34 31 47 13 13 -18 13 -18
24 0 9 17 13 18 37 7 34 -15 40 -11 25 18 -10 18 -8 24 6 34 16 12 16 14 -1
24 -17 9 -18 13 -7 37 16 34 12 39 -22 24 -23 -11 -28 -10 -40 6 -13 17 -14
18 -23 1z"/>
<path fill="#ffffff" stroke="none" d="M233 290 c3 -11 1 -18 -4 -14 -5 3 -9
12 -9 20 0 20 7 17 13 -6z"/>
<path fill="#ffffff" stroke="none" d="M203 263 c4 -7 17 -13 27 -13 10 0 23
6 27 13 4 6 17 19 28 27 11 8 8 1 -7 -16 -30 -32 -36 -58 -15 -71 6 -4 19 -17
27 -28 8 -11 1 -8 -16 8 -17 15 -38 27 -47 27 -9 0 -17 8 -17 17 0 9 -12 30
-27 47 -16 17 -19 24 -8 16 11 -8 24 -21 28 -27z"/>
<path fill="#ffffff" stroke="none" d="M185 230 c-3 -5 -14 -10 -23 -9 -14 0
-13 2 3 9 27 11 27 11 20 0z"/>
<path fill="#ffffff" stroke="none" d="M301 222 c-7 -2 -18 1 -23 6 -8 8 -4 9
13 5 13 -4 18 -8 10 -11z"/>
<path fill="#ffffff" stroke="none" d="M233 170 c-3 -12 -8 -19 -11 -16 -5 6
5 36 12 36 2 0 2 -9 -1 -20z"/>
<path fill="#ffffff" stroke="none" d="M169 163 c-16 -20 -50 -53 -56 -53 -9
0 0 13 28 40 35 33 49 39 28 13z"/>
<path fill="#ffffff" stroke="none" d="M90 110 c0 -39 -6 -39 -12 0 -3 17 -1
30 4 30 4 0 8 -13 8 -30z"/>
</g>
</svg>
