<?xml version="1.0" standalone="no"?>
<!DOCTYPE svg PUBLIC "-//W3C//DTD SVG 20010904//EN"
 "http://www.w3.org/TR/2001/REC-SVG-20010904/DTD/svg10.dtd">
<svg version="1.0" xmlns="http://www.w3.org/2000/svg"
 width="32.000000pt" height="32.000000pt" viewBox="0 0 32.000000 32.000000"
 preserveAspectRatio="xMidYMid meet">
<metadata>
Created by potrace 1.16, written by Peter Selinger 2001-2019
</metadata>
<g transform="translate(0.000000,32.000000) scale(0.100000,-0.100000)"
fill="#000000" stroke="none">
<path fill="#000000" stroke="none" d="M207 282 c-10 -10 -17 -23 -17 -28 0
-6 -14 -23 -32 -40 -17 -16 -27 -22 -23 -14 6 12 5 13 -5 3 -11 -10 -17 -9
-32 4 -17 16 -17 17 -1 37 16 18 16 19 1 7 -9 -7 -22 -10 -28 -6 -5 3 -10 2
-10 -2 0 -15 66 -74 73 -67 4 4 7 2 7 -4 0 -8 25 -12 79 -12 76 0 79 1 74 21
-5 18 -7 19 -15 5 -7 -12 -24 -16 -71 -16 l-61 0 38 39 c23 23 36 46 33 54 -3
8 0 20 6 26 6 6 9 11 6 11 -3 0 -13 -8 -22 -18z"/>
<path fill="#ffffff" stroke="none" d="M184 221 l-28 -26 22 26 c12 14 22 32
23 40 0 11 2 11 6 0 3 -7 -7 -25 -23 -40z"/>
<path fill="#000000" stroke="none" d="M90 136 c0 -2 7 -7 16 -10 8 -3 12 -2
9 4 -6 10 -25 14 -25 6z"/>
<path fill="#000000" stroke="none" d="M30 68 c0 -24 16 -48 33 -48 5 0 4 6
-2 14 -7 8 -11 22 -9 32 2 9 -3 19 -9 21 -8 3 -13 -4 -13 -19z"/>
</g>
</svg>
