<?xml version="1.0" standalone="no"?>
<!DOCTYPE svg PUBLIC "-//W3C//DTD SVG 20010904//EN"
 "http://www.w3.org/TR/2001/REC-SVG-20010904/DTD/svg10.dtd">
<svg version="1.0" xmlns="http://www.w3.org/2000/svg"
 width="32.000000pt" height="32.000000pt" viewBox="0 0 32.000000 32.000000"
 preserveAspectRatio="xMidYMid meet">
<metadata>
Created by potrace 1.16, written by Peter Selinger 2001-2019
</metadata>
<g transform="translate(0.000000,32.000000) scale(0.100000,-0.100000)"
fill="#000000" stroke="none">
<path fill="#000000" stroke="none" d="M142 280 c2 -21 0 -36 -3 -34 -4 2 -9
-3 -13 -11 -3 -8 -2 -15 3 -15 19 0 18 -50 -1 -67 -18 -16 -19 -16 -25 5 -4
18 -13 22 -44 22 l-39 0 0 -55 c0 -32 -4 -55 -11 -55 -6 0 -9 -14 -7 -32 l3
-33 83 -3 c77 -3 82 -2 82 18 0 13 10 24 25 30 26 10 29 14 39 63 7 28 40 38
49 15 4 -10 6 -10 6 -1 1 7 8 10 16 7 13 -5 15 8 15 88 l0 95 -91 0 -91 1 4
-38z"/>
<path fill="#ffffff" stroke="none" d="M185 280 c10 -11 16 -20 13 -20 -3 0
-13 9 -23 20 -10 11 -16 20 -13 20 3 0 13 -9 23 -20z"/>
<path fill="#ffffff" stroke="none" d="M300 297 c0 -2 -10 -12 -22 -23 l-23
-19 19 23 c18 21 26 27 26 19z"/>
<path fill="#ffffff" stroke="none" d="M240 230 c0 -5 -4 -10 -10 -10 -5 0
-10 5 -10 10 0 6 5 10 10 10 6 0 10 -4 10 -10z"/>
<path fill="#ffffff" stroke="none" d="M285 180 c10 -11 16 -20 13 -20 -3 0
-13 9 -23 20 -10 11 -16 20 -13 20 3 0 13 -9 23 -20z"/>
<path fill="#ffffff" stroke="none" d="M160 157 c0 -2 -10 -12 -22 -23 l-23
-19 19 23 c18 21 26 27 26 19z"/>
<path fill="#ffffff" stroke="none" d="M204 140 c28 0 11 -31 -22 -40 -50 -13
-58 -3 -25 32 15 16 29 24 31 18 2 -5 9 -10 16 -10z"/>
<path fill="#ffffff" stroke="none" d="M87 88 c-3 -8 -6 -5 -6 6 -1 11 2 17 5
13 3 -3 4 -12 1 -19z"/>
<path fill="#ffffff" stroke="none" d="M17 18 c-3 -8 -6 -5 -6 6 -1 11 2 17 5
13 3 -3 4 -12 1 -19z"/>
<path fill="#000000" stroke="none" d="M280 80 c0 -5 5 -10 10 -10 6 0 10 5
10 10 0 6 -4 10 -10 10 -5 0 -10 -4 -10 -10z"/>
</g>
</svg>
