<?xml version="1.0" standalone="no"?>
<!DOCTYPE svg PUBLIC "-//W3C//DTD SVG 20010904//EN"
 "http://www.w3.org/TR/2001/REC-SVG-20010904/DTD/svg10.dtd">
<svg version="1.0" xmlns="http://www.w3.org/2000/svg"
 width="32.000000pt" height="32.000000pt" viewBox="0 0 32.000000 32.000000"
 preserveAspectRatio="xMidYMid meet">
<metadata>
Created by potrace 1.16, written by Peter Selinger 2001-2019
</metadata>
<g transform="translate(0.000000,32.000000) scale(0.100000,-0.100000)"
fill="#000000" stroke="none">
<path fill="#000000" stroke="none" d="M248 298 c-21 -6 -38 -14 -38 -19 0 -5
-9 -9 -21 -9 -15 0 -19 -5 -15 -15 3 -9 0 -15 -8 -15 -22 0 -41 -29 -28 -42
14 -14 -39 -84 -75 -101 -12 -5 -23 -16 -23 -22 0 -7 -7 -18 -15 -25 -22 -18
-18 -40 6 -40 11 0 64 11 118 25 53 13 106 22 116 19 13 -3 24 2 32 15 12 20
10 20 -52 19 -36 0 -65 -5 -65 -9 0 -8 -63 -27 -90 -27 -8 0 -23 -3 -32 -7
-37 -15 -16 17 57 86 49 47 74 78 70 88 -2 9 -1 22 4 29 6 10 10 7 15 -12 4
-15 17 -31 29 -36 22 -9 22 -9 -3 -9 -17 -1 -44 -20 -83 -59 -31 -32 -57 -61
-57 -64 0 -4 20 14 45 40 41 44 46 46 66 33 20 -12 25 -11 41 9 10 12 18 31
18 41 0 10 6 19 14 19 8 0 18 19 25 44 16 65 18 63 -51 44z"/>
<path fill="#ffffff" stroke="none" d="M295 278 c-4 -13 -9 -31 -11 -40 -3
-10 -12 -18 -20 -18 -8 0 -12 5 -9 10 3 6 1 10 -4 10 -6 0 -11 -4 -11 -10 0
-15 -17 -12 -24 5 -9 25 4 44 38 54 46 14 48 13 41 -11z"/>
<path fill="#ffffff" stroke="none" d="M176 219 c10 -17 -13 -36 -27 -22 -12
12 -4 33 11 33 5 0 12 -5 16 -11z"/>
<path fill="#ffffff" stroke="none" d="M236 169 c10 -17 -13 -36 -27 -22 -12
12 -4 33 11 33 5 0 12 -5 16 -11z"/>
<path fill="#ffffff" stroke="none" d="M40 30 c0 -5 -4 -10 -10 -10 -5 0 -10
5 -10 10 0 6 5 10 10 10 6 0 10 -4 10 -10z"/>
<path fill="#000000" stroke="none" d="M155 210 c-3 -5 -1 -10 4 -10 6 0 11 5
11 10 0 6 -2 10 -4 10 -3 0 -8 -4 -11 -10z"/>
<path fill="#000000" stroke="none" d="M215 160 c-3 -5 -1 -10 4 -10 6 0 11 5
11 10 0 6 -2 10 -4 10 -3 0 -8 -4 -11 -10z"/>
<path fill="#000000" stroke="none" d="M60 70 c0 -5 5 -10 11 -10 5 0 7 5 4
10 -3 6 -8 10 -11 10 -2 0 -4 -4 -4 -10z"/>
</g>
</svg>
