<?xml version="1.0" standalone="no"?>
<!DOCTYPE svg PUBLIC "-//W3C//DTD SVG 20010904//EN"
 "http://www.w3.org/TR/2001/REC-SVG-20010904/DTD/svg10.dtd">
<svg version="1.0" xmlns="http://www.w3.org/2000/svg"
 width="32.000000pt" height="32.000000pt" viewBox="0 0 32.000000 32.000000"
 preserveAspectRatio="xMidYMid meet">
<metadata>
Created by potrace 1.16, written by Peter Selinger 2001-2019
</metadata>
<g transform="translate(0.000000,32.000000) scale(0.100000,-0.100000)"
fill="#000000" stroke="none">
<path fill="#000000" stroke="none" d="M1 201 l1 -119 28 32 c36 40 48 81 26
89 -8 3 -18 2 -21 -4 -8 -12 -25 -2 -25 14 0 36 151 61 228 38 21 -6 32 -6 32
0 0 6 7 4 15 -5 28 -28 15 -35 -27 -16 -73 33 -224 20 -236 -20 -4 -12 -2 -12
14 1 21 18 106 36 103 22 -1 -4 0 -10 1 -13 1 -3 3 -13 5 -22 4 -20 -20 -25
-31 -6 -4 6 -3 8 4 4 6 -3 13 -2 16 3 4 5 2 12 -3 15 -5 4 -13 1 -18 -6 -14
-23 -11 -38 7 -38 10 0 21 -6 23 -12 4 -10 6 -10 6 0 1 8 24 13 74 14 l72 2
-68 5 c-37 3 -67 9 -67 14 0 4 0 14 0 23 0 8 4 13 9 10 5 -4 11 0 14 6 3 9 11
7 27 -7 14 -12 20 -14 15 -5 -6 10 -2 9 12 -3 12 -10 29 -17 39 -15 12 2 20
-6 26 -22 7 -25 8 -24 4 3 -2 15 1 27 5 27 5 0 9 25 9 55 l0 55 -160 0 -161 0
2 -119z"/>
<path fill="#000000" stroke="none" d="M75 168 c-4 -14 -17 -36 -31 -49 -26
-25 -22 -49 5 -25 15 14 18 14 18 1 0 -8 -4 -12 -9 -9 -4 3 -5 -2 -2 -11 8
-21 17 -12 18 19 1 13 8 31 15 40 10 12 11 22 4 39 -11 22 -11 22 -18 -5z"/>
<path fill="#000000" stroke="none" d="M300 91 l0 -58 -82 -5 c-46 -3 -84 -2
-86 2 -5 12 -50 -1 -56 -16 -4 -12 17 -14 119 -14 l125 0 0 75 c0 43 -4 75
-10 75 -6 0 -10 -26 -10 -59z"/>
<path fill="#000000" stroke="none" d="M98 101 c-7 -9 -8 -13 -4 -9 5 4 15 0
23 -10 8 -9 12 -11 8 -4 -4 7 -2 19 4 26 8 9 7 13 -4 13 -9 0 -21 -7 -27 -16z"/>
<path fill="#000000" stroke="none" d="M19 76 c-1 -1 -2 -17 -3 -37 -2 -23 2
-36 10 -36 7 0 13 3 12 6 0 3 1 8 2 11 9 21 5 57 -7 57 -7 0 -13 -1 -14 -1z"/>
</g>
</svg>
