<?xml version="1.0" standalone="no"?>
<!DOCTYPE svg PUBLIC "-//W3C//DTD SVG 20010904//EN"
 "http://www.w3.org/TR/2001/REC-SVG-20010904/DTD/svg10.dtd">
<svg version="1.0" xmlns="http://www.w3.org/2000/svg"
 width="32.000000pt" height="32.000000pt" viewBox="0 0 32.000000 32.000000"
 preserveAspectRatio="xMidYMid meet">
<metadata>
Created by potrace 1.16, written by Peter Selinger 2001-2019
</metadata>
<g transform="translate(0.000000,32.000000) scale(0.100000,-0.100000)"
fill="#000000" stroke="none">
<path fill="#000000" stroke="none" d="M0 160 l0 -160 160 0 160 0 0 160 0
160 -160 0 -160 0 0 -160z"/>
<path fill="#ffffff" stroke="none" d="M299 288 c-16 -31 -119 -148 -130 -148
-4 0 -5 8 -2 17 5 12 2 15 -10 10 -29 -11 -19 9 23 47 23 20 45 34 51 31 5 -4
8 -1 7 7 -2 7 3 12 10 10 8 -1 11 2 8 7 -6 9 30 41 47 41 4 0 2 -10 -4 -22z"/>
<path fill="#ffffff" stroke="none" d="M150 147 c0 -2 -10 -12 -22 -23 l-23
-19 19 23 c18 21 26 27 26 19z"/>
<path fill="#000000" stroke="none" d="M217 223 c-4 -3 -7 -11 -7 -17 0 -6 5
-5 12 2 6 6 9 14 7 17 -3 3 -9 2 -12 -2z"/>
<path fill="#000000" stroke="none" d="M190 195 c0 -17 -2 -17 -10 -5 -8 13
-10 13 -10 -2 0 -23 15 -31 28 -15 7 8 7 18 2 27 -8 12 -10 11 -10 -5z"/>
</g>
</svg>
