<?xml version="1.0" standalone="no"?>
<!DOCTYPE svg PUBLIC "-//W3C//DTD SVG 20010904//EN"
 "http://www.w3.org/TR/2001/REC-SVG-20010904/DTD/svg10.dtd">
<svg version="1.0" xmlns="http://www.w3.org/2000/svg"
 width="32.000000pt" height="32.000000pt" viewBox="0 0 32.000000 32.000000"
 preserveAspectRatio="xMidYMid meet">
<metadata>
Created by potrace 1.16, written by Peter Selinger 2001-2019
</metadata>
<g transform="translate(0.000000,32.000000) scale(0.100000,-0.100000)"
fill="#000000" stroke="none">
<path fill="#000000" stroke="none" d="M117 282 c-14 -23 -17 -24 -17 -7 0 15
-3 16 -12 7 -8 -8 -9 -15 -2 -22 22 -22 164 -11 164 13 0 26 -17 35 -66 35
-44 1 -52 -3 -67 -26z"/>
<path fill="#000000" stroke="none" d="M265 264 c5 -19 2 -21 -22 -17 -22 4
-19 0 17 -19 28 -14 46 -30 47 -43 1 -16 1 -16 -3 -2 -6 20 -44 41 -92 52 -25
5 -38 3 -53 -11 -25 -23 -56 -29 -38 -8 6 7 15 12 19 9 5 -3 11 -2 14 3 13 21
-98 6 -121 -16 -13 -13 -15 -14 -11 -2 2 8 19 20 38 26 24 8 28 13 17 17 -9 3
-19 2 -22 -3 -4 -6 -15 -10 -25 -10 -24 0 -29 -29 -29 -146 l1 -90 99 -3 c84
-2 99 0 99 13 0 12 11 16 50 16 l50 0 0 60 c0 33 4 60 10 60 6 0 10 10 10 23
0 36 -11 67 -25 67 -6 0 -17 10 -24 23 -10 20 -11 21 -6 1z"/>
<path fill="#ffffff" stroke="none" d="M93 167 c3 -8 -1 -14 -8 -14 -7 0 -11
6 -8 14 3 7 6 13 8 13 2 0 5 -6 8 -13z"/>
<path fill="#ffffff" stroke="none" d="M80 137 c0 -2 -12 -14 -27 -28 l-28
-24 24 28 c23 25 31 32 31 24z"/>
<path fill="#ffffff" stroke="none" d="M123 95 c-3 -9 -8 -14 -10 -11 -3 3 -2
9 2 15 9 16 15 13 8 -4z"/>
<path fill="#ffffff" stroke="none" d="M35 70 c3 -5 -1 -10 -10 -10 -9 0 -13
5 -10 10 3 6 8 10 10 10 2 0 7 -4 10 -10z"/>
<path fill="#ffffff" stroke="none" d="M37 44 c-3 -3 -12 -4 -19 -1 -8 3 -5 6
6 6 11 1 17 -2 13 -5z"/>
<path fill="#ffffff" stroke="none" d="M40 26 c0 -11 -19 -15 -25 -6 -3 5 1
10 9 10 9 0 16 -2 16 -4z"/>
</g>
</svg>
