<?xml version="1.0" standalone="no"?>
<!DOCTYPE svg PUBLIC "-//W3C//DTD SVG 20010904//EN"
 "http://www.w3.org/TR/2001/REC-SVG-20010904/DTD/svg10.dtd">
<svg version="1.0" xmlns="http://www.w3.org/2000/svg"
 width="32.000000pt" height="32.000000pt" viewBox="0 0 32.000000 32.000000"
 preserveAspectRatio="xMidYMid meet">
<metadata>
Created by potrace 1.16, written by Peter Selinger 2001-2019
</metadata>
<g transform="translate(0.000000,32.000000) scale(0.100000,-0.100000)"
fill="#000000" stroke="none">
<path fill="#000000" stroke="none" d="M208 299 c-20 -11 -25 -39 -7 -39 5 0
8 3 6 8 -3 4 1 12 8 19 10 10 14 9 19 -3 4 -10 2 -13 -7 -8 -8 6 -8 3 1 -9 8
-9 10 -22 6 -29 -6 -10 -5 -11 8 -1 8 7 19 9 24 5 4 -4 2 2 -6 12 -12 16 -12
18 -1 12 22 -14 8 15 -15 30 -13 9 -24 10 -36 3z"/>
<path fill="#000000" stroke="none" d="M189 202 c-34 -37 -57 -73 -26 -40 14
15 27 25 29 22 3 -2 13 4 22 15 10 10 13 22 8 25 -5 3 -20 -7 -33 -22z"/>
<path fill="#000000" stroke="none" d="M106 121 c-10 -11 -13 -22 -8 -25 5 -3
17 3 26 13 10 11 13 22 8 25 -5 3 -17 -3 -26 -13z"/>
<path fill="#000000" stroke="none" d="M46 54 c-21 -19 -35 -38 -32 -41 3 -4
7 -4 8 -2 2 2 19 21 37 42 44 47 37 48 -13 1z"/>
</g>
</svg>
