<?xml version="1.0" standalone="no"?>
<!DOCTYPE svg PUBLIC "-//W3C//DTD SVG 20010904//EN"
 "http://www.w3.org/TR/2001/REC-SVG-20010904/DTD/svg10.dtd">
<svg version="1.0" xmlns="http://www.w3.org/2000/svg"
 width="32.000000pt" height="32.000000pt" viewBox="0 0 32.000000 32.000000"
 preserveAspectRatio="xMidYMid meet">
<metadata>
Created by potrace 1.16, written by Peter Selinger 2001-2019
</metadata>
<g transform="translate(0.000000,32.000000) scale(0.100000,-0.100000)"
fill="#000000" stroke="none">
<path fill="#000000" stroke="none" d="M210 225 c-24 -25 -40 -45 -35 -45 6
-1 -3 -12 -20 -25 -16 -13 -26 -27 -22 -31 9 -10 115 93 123 119 10 32 -1 28
-46 -18z"/>
<path fill="#000000" stroke="none" d="M140 170 c-8 -5 -25 -10 -38 -10 -13 0
-21 -4 -17 -9 6 -11 63 3 79 19 13 13 -4 13 -24 0z"/>
</g>
</svg>
