<?xml version="1.0" standalone="no"?>
<!DOCTYPE svg PUBLIC "-//W3C//DTD SVG 20010904//EN"
 "http://www.w3.org/TR/2001/REC-SVG-20010904/DTD/svg10.dtd">
<svg version="1.0" xmlns="http://www.w3.org/2000/svg"
 width="32.000000pt" height="32.000000pt" viewBox="0 0 32.000000 32.000000"
 preserveAspectRatio="xMidYMid meet">
<metadata>
Created by potrace 1.16, written by Peter Selinger 2001-2019
</metadata>
<g transform="translate(0.000000,32.000000) scale(0.100000,-0.100000)"
fill="#000000" stroke="none">
<path fill="#000000" stroke="none" d="M147 302 c-10 -10 -17 -28 -17 -40 0
-34 -20 -69 -46 -81 -34 -15 -33 -68 1 -105 26 -28 32 -46 15 -46 -5 0 -10 10
-10 23 -1 21 -1 21 -12 3 -9 -15 -7 -22 8 -33 17 -12 24 -3 94 134 60 118 79
147 94 145 11 -2 15 1 11 7 -9 16 -45 13 -51 -4 -4 -8 -10 -15 -16 -15 -5 0
-6 5 -2 12 4 6 3 8 -4 4 -6 -3 -13 -2 -17 4 -10 15 -30 12 -48 -8z"/>
<path fill="#ffffff" stroke="none" d="M204 281 c16 -18 15 -24 -38 -127 -30
-60 -55 -100 -55 -90 -1 10 -9 25 -18 32 -13 10 -15 16 -7 21 7 5 17 27 24 50
7 23 19 44 26 47 18 7 18 -2 -1 -21 -21 -20 -12 -28 15 -13 18 10 21 17 15 47
-4 22 -2 40 7 51 10 12 10 14 1 8 -7 -4 -13 -2 -13 3 0 17 25 13 44 -8z"/>
<path fill="#000000" stroke="none" d="M110 135 c0 -8 5 -15 10 -15 6 0 10 7
10 15 0 8 -4 15 -10 15 -5 0 -10 -7 -10 -15z"/>
</g>
</svg>
