<?xml version="1.0" standalone="no"?>
<!DOCTYPE svg PUBLIC "-//W3C//DTD SVG 20010904//EN"
 "http://www.w3.org/TR/2001/REC-SVG-20010904/DTD/svg10.dtd">
<svg version="1.0" xmlns="http://www.w3.org/2000/svg"
 width="32.000000pt" height="32.000000pt" viewBox="0 0 32.000000 32.000000"
 preserveAspectRatio="xMidYMid meet">
<metadata>
Created by potrace 1.16, written by Peter Selinger 2001-2019
</metadata>
<g transform="translate(0.000000,32.000000) scale(0.100000,-0.100000)"
fill="#000000" stroke="none">
<path fill="#000000" stroke="none" d="M32 307 c-6 -6 -12 -68 -15 -137 -2
-69 -8 -135 -12 -148 l-8 -24 84 7 c165 12 169 13 169 44 0 16 7 34 15 41 19
16 19 50 0 50 -28 0 -15 28 15 35 l31 7 -3 66 -3 67 -131 2 c-95 2 -134 -1
-142 -10z"/>
<path fill="#ffffff" stroke="none" d="M135 250 c15 -6 6 -9 -32 -9 -29 -1
-53 4 -53 9 0 12 57 12 85 0z"/>
<path fill="#ffffff" stroke="none" d="M269 189 c-16 -10 -23 -4 -14 10 3 6
11 8 17 5 6 -4 5 -9 -3 -15z"/>
</g>
</svg>
