<?xml version="1.0" standalone="no"?>
<!DOCTYPE svg PUBLIC "-//W3C//DTD SVG 20010904//EN"
 "http://www.w3.org/TR/2001/REC-SVG-20010904/DTD/svg10.dtd">
<svg version="1.0" xmlns="http://www.w3.org/2000/svg"
 width="32.000000pt" height="32.000000pt" viewBox="0 0 32.000000 32.000000"
 preserveAspectRatio="xMidYMid meet">
<metadata>
Created by potrace 1.16, written by Peter Selinger 2001-2019
</metadata>
<g transform="translate(0.000000,32.000000) scale(0.100000,-0.100000)"
fill="#000000" stroke="none">
<path fill="#000000" stroke="none" d="M0 160 l0 -160 160 0 160 0 0 160 0
160 -160 0 -160 0 0 -160z"/>
<path fill="#ffffff" stroke="none" d="M260 254 c0 -9 -26 -43 -59 -77 -36
-38 -56 -68 -53 -77 5 -13 3 -13 -11 -1 -15 12 -20 10 -42 -13 -13 -14 -29
-26 -35 -26 -6 0 -8 -5 -5 -10 3 -6 1 -10 -5 -10 -16 0 -26 33 -11 38 7 2 24
14 39 27 23 20 24 25 13 39 -12 14 -11 16 8 16 32 0 71 23 116 69 44 46 45 47
45 25z"/>
</g>
</svg>
