<?xml version="1.0" standalone="no"?>
<!DOCTYPE svg PUBLIC "-//W3C//DTD SVG 20010904//EN"
 "http://www.w3.org/TR/2001/REC-SVG-20010904/DTD/svg10.dtd">
<svg version="1.0" xmlns="http://www.w3.org/2000/svg"
 width="32.000000pt" height="32.000000pt" viewBox="0 0 32.000000 32.000000"
 preserveAspectRatio="xMidYMid meet">
<metadata>
Created by potrace 1.16, written by Peter Selinger 2001-2019
</metadata>
<g transform="translate(0.000000,32.000000) scale(0.100000,-0.100000)"
fill="#000000" stroke="none">
<path fill="#000000" stroke="none" d="M115 313 c-35 -7 -59 -96 -39 -147 8
-20 34 -21 34 -1 0 8 9 19 21 25 46 25 28 -4 -50 -80 -69 -67 -81 -83 -71 -95
16 -19 51 -19 97 0 27 11 45 13 70 6 22 -6 44 -6 60 0 13 5 35 9 49 9 13 0 24
6 25 13 8 96 6 127 -10 127 -14 1 -14 2 2 14 26 20 23 85 -7 114 -30 28 -92
30 -112 5 -13 -17 -13 -17 -14 0 0 17 -12 19 -55 10z"/>
<path fill="#ffffff" stroke="none" d="M160 295 c0 -8 6 -15 14 -15 8 0 16 7
20 15 3 10 19 15 48 15 38 0 40 -1 23 -14 -11 -8 -25 -12 -32 -9 -7 3 -13 0
-13 -7 0 -6 5 -8 10 -5 6 3 10 1 10 -5 0 -6 5 -8 10 -5 6 3 10 -1 10 -9 0 -9
5 -16 11 -16 5 0 7 -4 4 -10 -3 -5 -1 -10 5 -10 7 0 10 6 7 13 -3 7 1 21 9 32
13 17 14 15 14 -23 0 -29 -5 -45 -15 -48 -20 -8 -19 -34 1 -34 21 0 11 -48
-14 -67 -20 -15 -108 -17 -117 -3 -3 5 -2 10 4 10 6 0 18 11 27 26 13 19 14
28 5 37 -8 8 -22 1 -54 -31 -56 -55 -70 -41 -15 15 32 32 39 46 31 54 -9 9
-18 8 -37 -5 -15 -9 -26 -21 -26 -27 0 -6 -4 -7 -10 -4 -14 9 -12 97 3 116 22
29 67 38 67 14z"/>
<path fill="#ffffff" stroke="none" d="M290 273 c0 -10 -4 -14 -8 -8 -4 6 -11
13 -16 18 -5 4 -2 7 7 7 10 0 17 -8 17 -17z"/>
<path fill="#ffffff" stroke="none" d="M200 151 c0 -12 -20 -25 -27 -18 -7 7
6 27 18 27 5 0 9 -4 9 -9z"/>
<path fill="#ffffff" stroke="none" d="M96 75 c9 -9 11 -16 5 -16 -6 -1 -16
-2 -22 -3 -6 0 -16 -9 -23 -18 -9 -12 -16 -14 -24 -6 -7 7 -3 17 16 34 32 28
30 28 48 9z"/>
<path fill="#000000" stroke="none" d="M175 240 c2 -29 9 -32 24 -7 8 12 10
19 6 15 -5 -4 -13 -3 -20 2 -8 7 -11 4 -10 -10z"/>
<path fill="#000000" stroke="none" d="M226 195 c-11 -8 -18 -15 -15 -16 34
-6 48 -4 39 6 -5 7 -7 15 -3 18 11 12 -1 7 -21 -8z"/>
</g>
</svg>
