<?xml version="1.0" standalone="no"?>
<!DOCTYPE svg PUBLIC "-//W3C//DTD SVG 20010904//EN"
 "http://www.w3.org/TR/2001/REC-SVG-20010904/DTD/svg10.dtd">
<svg version="1.0" xmlns="http://www.w3.org/2000/svg"
 width="32.000000pt" height="32.000000pt" viewBox="0 0 32.000000 32.000000"
 preserveAspectRatio="xMidYMid meet">
<metadata>
Created by potrace 1.16, written by Peter Selinger 2001-2019
</metadata>
<g transform="translate(0.000000,32.000000) scale(0.100000,-0.100000)"
fill="#000000" stroke="none">
<path fill="#000000" stroke="none" d="M0 159 c0 -89 3 -160 6 -157 3 4 6 13
8 21 1 8 15 26 30 41 28 25 28 27 12 45 -19 21 -15 51 10 72 24 20 40 -4 26
-38 l-12 -28 17 23 c11 16 17 46 18 98 l1 74 -42 0 c-23 0 -49 3 -58 6 -14 5
-16 -12 -16 -157z"/>
<path fill="#000000" stroke="none" d="M130 291 c0 -10 7 -21 15 -25 9 -3 15
-18 15 -40 0 -30 -3 -34 -22 -29 -22 4 -22 4 -5 -10 16 -14 21 -12 52 20 19
19 35 38 37 42 2 3 18 18 36 34 l34 27 -81 0 c-73 0 -81 -2 -81 -19z"/>
<path fill="#000000" stroke="none" d="M313 200 c0 -25 2 -35 4 -22 2 12 2 32
0 45 -2 12 -4 2 -4 -23z"/>
<path fill="#000000" stroke="none" d="M268 194 c-5 -4 -8 -16 -8 -28 0 -14 3
-17 11 -9 6 6 9 19 7 28 -1 9 -6 13 -10 9z"/>
<path fill="#000000" stroke="none" d="M255 87 c-33 -18 -65 -43 -72 -57 l-12
-25 70 -3 c39 -2 73 -1 76 1 2 3 3 30 1 60 l-3 56 -60 -32z"/>
<path fill="#000000" stroke="none" d="M130 15 c0 -8 7 -15 16 -15 14 0 14 3
4 15 -7 8 -14 15 -16 15 -2 0 -4 -7 -4 -15z"/>
</g>
</svg>
