<?xml version="1.0" standalone="no"?>
<!DOCTYPE svg PUBLIC "-//W3C//DTD SVG 20010904//EN"
 "http://www.w3.org/TR/2001/REC-SVG-20010904/DTD/svg10.dtd">
<svg version="1.0" xmlns="http://www.w3.org/2000/svg"
 width="32.000000pt" height="32.000000pt" viewBox="0 0 32.000000 32.000000"
 preserveAspectRatio="xMidYMid meet">
<metadata>
Created by potrace 1.16, written by Peter Selinger 2001-2019
</metadata>
<g transform="translate(0.000000,32.000000) scale(0.100000,-0.100000)"
fill="#000000" stroke="none">
<path fill="#000000" stroke="none" d="M151 313 l135 -4 -65 -67 c-36 -37 -70
-66 -74 -64 -14 7 -36 -19 -31 -36 2 -9 -3 -2 -11 16 -18 38 -33 37 -55 -1
-13 -23 -13 -28 4 -46 19 -21 19 -21 -10 -47 -35 -33 -42 -64 -14 -64 24 0 25
4 4 24 -8 9 -11 16 -5 16 5 0 21 11 34 24 14 14 28 22 31 19 12 -13 5 9 -11
34 -10 15 -12 24 -5 20 15 -10 15 -3 1 26 -10 21 -10 21 5 3 9 -11 13 -28 10
-39 -5 -14 -2 -18 13 -15 11 2 19 13 21 31 2 15 7 25 12 22 5 -3 7 -12 3 -21
-4 -11 0 -14 19 -10 15 2 25 -1 25 -8 0 -8 -9 -11 -24 -8 -24 4 -56 -14 -48
-28 2 -4 -7 -13 -20 -20 -14 -7 -25 -17 -25 -22 0 -4 -7 -8 -15 -8 -12 0 -13
-4 -6 -18 13 -25 81 -30 81 -5 0 13 3 14 12 5 18 -18 32 -15 43 11 6 12 37 36
69 54 l60 31 1 101 1 101 -150 -2 -151 -2 136 -3z"/>
<path fill="#ffffff" stroke="none" d="M301 243 c-4 -53 -5 -56 -13 -28 -5 17
-10 36 -10 43 -1 6 -4 9 -7 6 -9 -9 -8 -73 1 -68 4 3 8 -4 8 -15 0 -17 -43
-51 -63 -51 -11 0 7 51 24 66 15 14 17 20 7 32 -10 12 -6 20 20 43 18 16 33
29 35 29 1 0 0 -26 -2 -57z"/>
<path fill="#ffffff" stroke="none" d="M243 224 c9 -9 -30 -47 -42 -40 -5 4
-13 1 -17 -5 -4 -8 -3 -9 4 -5 8 5 10 2 6 -8 -7 -18 -20 -21 -29 -6 -4 6 8 24
25 40 33 31 42 35 53 24z"/>
<path fill="#ffffff" stroke="none" d="M61 147 c-10 -9 -11 -8 -5 6 3 10 9 15
12 12 3 -3 0 -11 -7 -18z"/>
<path fill="#ffffff" stroke="none" d="M190 65 c0 -2 -10 -9 -22 -15 -22 -11
-22 -10 -4 4 21 17 26 19 26 11z"/>
<path fill="#ffffff" stroke="none" d="M110 33 c0 -20 -3 -24 -11 -16 -7 7 -9
19 -6 27 10 24 17 19 17 -11z"/>
</g>
</svg>
