<?xml version="1.0" standalone="no"?>
<!DOCTYPE svg PUBLIC "-//W3C//DTD SVG 20010904//EN"
 "http://www.w3.org/TR/2001/REC-SVG-20010904/DTD/svg10.dtd">
<svg version="1.0" xmlns="http://www.w3.org/2000/svg"
 width="32.000000pt" height="32.000000pt" viewBox="0 0 32.000000 32.000000"
 preserveAspectRatio="xMidYMid meet">
<metadata>
Created by potrace 1.16, written by Peter Selinger 2001-2019
</metadata>
<g transform="translate(0.000000,32.000000) scale(0.100000,-0.100000)"
fill="#000000" stroke="none">
<path fill="#000000" stroke="none" d="M220 245 c-24 -25 -42 -45 -39 -45 3 0
25 20 49 45 24 25 42 45 39 45 -3 0 -25 -20 -49 -45z"/>
<path fill="#000000" stroke="none" d="M229 213 l-24 -28 28 24 c25 23 32 31
24 31 -2 0 -14 -12 -28 -27z"/>
<path fill="#000000" stroke="none" d="M82 185 c0 -16 2 -22 5 -12 2 9 2 23 0
30 -3 6 -5 -1 -5 -18z"/>
<path fill="#000000" stroke="none" d="M144 184 c-18 -14 -18 -15 4 -4 12 6
22 13 22 15 0 8 -5 6 -26 -11z"/>
<path fill="#000000" stroke="none" d="M75 120 c-4 -6 -4 -14 -1 -17 3 -4 6
-1 6 5 0 7 8 5 18 -5 12 -12 14 -21 8 -25 -8 -5 -7 -8 1 -8 22 0 21 15 -2 38
-15 15 -26 19 -30 12z"/>
<path fill="#000000" stroke="none" d="M173 83 c9 -2 23 -2 30 0 6 3 -1 5 -18
5 -16 0 -22 -2 -12 -5z"/>
<path fill="#000000" stroke="none" d="M25 30 c10 -11 20 -20 23 -20 3 0 -3 9
-13 20 -10 11 -20 20 -23 20 -3 0 3 -9 13 -20z"/>
</g>
</svg>
