<?xml version="1.0" standalone="no"?>
<!DOCTYPE svg PUBLIC "-//W3C//DTD SVG 20010904//EN"
 "http://www.w3.org/TR/2001/REC-SVG-20010904/DTD/svg10.dtd">
<svg version="1.0" xmlns="http://www.w3.org/2000/svg"
 width="32.000000pt" height="32.000000pt" viewBox="0 0 32.000000 32.000000"
 preserveAspectRatio="xMidYMid meet">
<metadata>
Created by potrace 1.16, written by Peter Selinger 2001-2019
</metadata>
<g transform="translate(0.000000,32.000000) scale(0.100000,-0.100000)"
fill="#000000" stroke="none">
<path fill="#000000" stroke="none" d="M0 220 l0 -101 29 22 c17 12 36 19 46
15 23 -8 83 25 130 73 21 23 44 41 50 41 12 0 45 32 45 43 0 4 -67 7 -150 7
l-150 0 0 -100z"/>
<path fill="#000000" stroke="none" d="M287 282 c-10 -10 -17 -23 -17 -28 0
-6 -18 -28 -41 -49 -48 -47 -81 -107 -73 -130 4 -10 -3 -29 -15 -46 l-22 -29
101 0 100 0 0 150 c0 83 -4 150 -8 150 -5 0 -16 -8 -25 -18z"/>
<path fill="#000000" stroke="none" d="M0 67 l0 -38 31 21 c37 27 35 55 -4 55
-25 1 -27 -2 -27 -38z"/>
<path fill="#000000" stroke="none" d="M50 31 l-21 -31 38 0 c36 0 39 2 38 27
0 39 -28 41 -55 4z"/>
</g>
</svg>
