<?xml version="1.0" standalone="no"?>
<!DOCTYPE svg PUBLIC "-//W3C//DTD SVG 20010904//EN"
 "http://www.w3.org/TR/2001/REC-SVG-20010904/DTD/svg10.dtd">
<svg version="1.0" xmlns="http://www.w3.org/2000/svg"
 width="32.000000pt" height="32.000000pt" viewBox="0 0 32.000000 32.000000"
 preserveAspectRatio="xMidYMid meet">
<metadata>
Created by potrace 1.16, written by Peter Selinger 2001-2019
</metadata>
<g transform="translate(0.000000,32.000000) scale(0.100000,-0.100000)"
fill="#000000" stroke="none">
<path fill="#000000" stroke="none" d="M215 244 c-41 -36 -75 -69 -75 -73 0
-4 21 12 46 36 47 46 64 51 44 14 -6 -12 -16 -18 -22 -15 -7 5 -9 2 -5 -9 4
-11 -3 -23 -20 -37 -14 -11 -21 -20 -15 -20 12 0 114 114 131 148 20 38 -5 25
-84 -44z"/>
</g>
</svg>
