<?xml version="1.0" standalone="no"?>
<!DOCTYPE svg PUBLIC "-//W3C//DTD SVG 20010904//EN"
 "http://www.w3.org/TR/2001/REC-SVG-20010904/DTD/svg10.dtd">
<svg version="1.0" xmlns="http://www.w3.org/2000/svg"
 width="32.000000pt" height="32.000000pt" viewBox="0 0 32.000000 32.000000"
 preserveAspectRatio="xMidYMid meet">
<metadata>
Created by potrace 1.16, written by Peter Selinger 2001-2019
</metadata>
<g transform="translate(0.000000,32.000000) scale(0.100000,-0.100000)"
fill="#000000" stroke="none">
<path fill="#000000" stroke="none" d="M0 160 l0 -160 160 0 160 0 0 160 0
160 -160 0 -160 0 0 -160z"/>
<path fill="#ffffff" stroke="none" d="M298 241 c-3 -27 -14 -60 -25 -74 -18
-24 -20 -24 -31 -6 -10 15 -8 20 8 29 12 6 25 30 32 55 7 25 14 45 16 45 3 0
2 -22 0 -49z"/>
<path fill="#ffffff" stroke="none" d="M160 206 c0 -2 -7 -7 -16 -10 -8 -3
-12 -2 -9 4 6 10 25 14 25 6z"/>
<path fill="#ffffff" stroke="none" d="M124 158 c-3 -4 -21 -15 -39 -22 -27
-12 -37 -24 -50 -63 l-15 -48 3 51 c4 55 39 118 50 90 5 -12 18 -14 45 -7 1 1
-2 11 -8 24 -11 21 -10 21 4 3 9 -10 13 -23 10 -28z"/>
</g>
</svg>
