<?xml version="1.0" standalone="no"?>
<!DOCTYPE svg PUBLIC "-//W3C//DTD SVG 20010904//EN"
 "http://www.w3.org/TR/2001/REC-SVG-20010904/DTD/svg10.dtd">
<svg version="1.0" xmlns="http://www.w3.org/2000/svg"
 width="32.000000pt" height="32.000000pt" viewBox="0 0 32.000000 32.000000"
 preserveAspectRatio="xMidYMid meet">
<metadata>
Created by potrace 1.16, written by Peter Selinger 2001-2019
</metadata>
<g transform="translate(0.000000,32.000000) scale(0.100000,-0.100000)"
fill="#000000" stroke="none">
<path fill="#000000" stroke="none" d="M0 176 c0 -99 4 -147 12 -152 6 -4 8
-3 5 3 -3 5 23 38 58 73 36 36 65 72 65 82 0 10 4 18 10 18 5 0 7 -6 4 -14 -3
-8 -1 -17 4 -20 5 -3 8 12 7 33 l-2 38 54 13 c29 7 59 20 66 28 13 17 14 17
-55 -12 -21 -9 -38 -13 -38 -9 0 8 112 55 117 50 5 -5 -42 -117 -49 -117 -4 0
-5 8 -2 18 5 14 4 15 -5 2 -6 -8 -11 -23 -11 -33 0 -14 -5 -16 -25 -11 -20 5
-24 3 -19 -10 4 -11 1 -16 -13 -16 -10 0 -39 -21 -63 -46 -44 -45 -44 -46 -12
-30 17 9 32 21 32 27 0 6 7 9 14 6 10 -4 13 -1 9 9 -6 17 -3 17 33 4 23 -9 25
-9 15 4 -13 16 -7 19 63 32 l40 7 -25 -31 c-13 -17 -30 -29 -36 -27 -7 3 -13
0 -13 -4 0 -5 -17 -12 -37 -16 -21 -4 -67 -22 -103 -40 l-65 -34 143 -1 142 0
-1 160 -1 160 -159 0 -159 0 0 -144z"/>
<path fill="#ffffff" stroke="none" d="M136 244 c-6 -19 -12 -28 -14 -20 -3
13 14 56 22 56 2 0 -2 -16 -8 -36z"/>
<path fill="#ffffff" stroke="none" d="M291 177 l-23 -22 17 28 c10 15 20 25
23 22 3 -3 -5 -16 -17 -28z"/>
<path fill="#ffffff" stroke="none" d="M114 174 c3 -8 2 -12 -4 -9 -6 3 -10
10 -10 16 0 14 7 11 14 -7z"/>
<path fill="#000000" stroke="none" d="M190 230 c-23 -7 -23 -8 -3 -9 12 -1
25 4 28 9 3 6 5 10 3 9 -2 -1 -14 -5 -28 -9z"/>
</g>
</svg>
