<?xml version="1.0" standalone="no"?>
<!DOCTYPE svg PUBLIC "-//W3C//DTD SVG 20010904//EN"
 "http://www.w3.org/TR/2001/REC-SVG-20010904/DTD/svg10.dtd">
<svg version="1.0" xmlns="http://www.w3.org/2000/svg"
 width="32.000000pt" height="32.000000pt" viewBox="0 0 32.000000 32.000000"
 preserveAspectRatio="xMidYMid meet">
<metadata>
Created by potrace 1.16, written by Peter Selinger 2001-2019
</metadata>
<g transform="translate(0.000000,32.000000) scale(0.100000,-0.100000)"
fill="#000000" stroke="none">
<path fill="#000000" stroke="none" d="M0 176 c0 -99 4 -147 12 -152 6 -4 8
-3 5 3 -8 13 57 76 68 66 4 -5 5 -3 2 3 -4 7 0 17 8 24 8 7 15 20 15 29 0 14
-2 14 -11 1 -8 -11 -12 -12 -16 -2 -2 6 -10 9 -15 6 -7 -4 -8 -2 -4 5 4 6 12
9 17 6 5 -4 12 1 16 11 6 15 7 15 20 -2 13 -18 15 -17 37 11 21 26 22 31 8 41
-13 9 -12 14 9 38 13 15 38 34 54 41 27 12 17 13 -97 14 l-128 1 0 -144z"/>
<path fill="#000000" stroke="none" d="M272 298 c2 -16 -5 -26 -24 -36 -16 -7
-28 -19 -28 -27 0 -8 -10 -21 -22 -29 -18 -13 -19 -16 -6 -16 9 0 20 5 23 10
3 6 13 10 22 10 11 0 14 -6 10 -22 -5 -21 -5 -22 6 -4 7 10 22 28 35 39 12 11
22 25 22 31 0 5 -6 2 -12 -7 -7 -9 -26 -19 -43 -23 -27 -7 -29 -6 -16 9 7 10
20 17 27 17 7 0 20 12 28 28 12 22 15 23 16 8 0 -11 3 -17 6 -13 4 3 4 14 0
23 -5 14 -9 14 -23 3 -15 -12 -16 -12 -10 4 3 9 2 17 -4 17 -6 0 -9 -10 -7
-22z"/>
<path fill="#000000" stroke="none" d="M227 293 c-15 -2 -32 -14 -39 -26 -6
-12 -16 -25 -22 -29 -8 -6 -7 -8 1 -8 6 0 15 5 19 11 4 8 9 7 16 -2 7 -11 8
-9 6 5 -2 13 6 24 20 31 19 10 43 28 31 24 -2 -1 -16 -4 -32 -6z"/>
<path fill="#000000" stroke="none" d="M279 195 c-36 -38 -65 -47 -55 -17 4
11 -1 9 -15 -8 -20 -23 -20 -25 -2 -31 11 -5 13 -8 4 -8 -8 -1 -12 -4 -8 -7 3
-3 20 1 38 10 18 9 42 16 53 15 15 0 17 -2 6 -6 -23 -9 -64 -43 -52 -43 6 0
14 5 17 10 3 6 16 10 28 10 l21 0 -22 -16 c-12 -8 -43 -19 -70 -23 -26 -4 -78
-24 -117 -44 l-70 -36 143 -1 142 0 0 115 c0 63 -2 115 -4 115 -2 0 -19 -16
-37 -35z"/>
</g>
</svg>
