<?xml version="1.0" standalone="no"?>
<!DOCTYPE svg PUBLIC "-//W3C//DTD SVG 20010904//EN"
 "http://www.w3.org/TR/2001/REC-SVG-20010904/DTD/svg10.dtd">
<svg version="1.0" xmlns="http://www.w3.org/2000/svg"
 width="32.000000pt" height="32.000000pt" viewBox="0 0 32.000000 32.000000"
 preserveAspectRatio="xMidYMid meet">
<metadata>
Created by potrace 1.16, written by Peter Selinger 2001-2019
</metadata>
<g transform="translate(0.000000,32.000000) scale(0.100000,-0.100000)"
fill="#000000" stroke="none">
<path fill="#000000" stroke="none" d="M0 160 l0 -160 160 0 160 0 0 160 0
160 -160 0 -160 0 0 -160z"/>
<path fill="#ffffff" stroke="none" d="M290 296 c0 -3 -18 -23 -40 -45 -47
-48 -53 -41 -9 12 26 32 49 47 49 33z"/>
<path fill="#ffffff" stroke="none" d="M189 193 c-6 -10 -28 -31 -48 -48 -33
-27 -32 -25 9 21 45 50 62 62 39 27z"/>
<path fill="#ffffff" stroke="none" d="M213 143 c-7 -2 -13 -9 -13 -14 0 -6 4
-7 10 -4 6 3 7 -1 4 -9 -8 -21 -24 -10 -24 15 0 12 7 19 18 18 10 0 12 -3 5
-6z"/>
<path fill="#ffffff" stroke="none" d="M173 83 c-7 -2 -13 -9 -13 -14 0 -6 5
-7 12 -3 7 4 8 3 4 -4 -11 -19 -26 -14 -26 8 0 13 6 20 18 19 10 0 12 -3 5 -6z"/>
</g>
</svg>
