<?xml version="1.0" standalone="no"?>
<!DOCTYPE svg PUBLIC "-//W3C//DTD SVG 20010904//EN"
 "http://www.w3.org/TR/2001/REC-SVG-20010904/DTD/svg10.dtd">
<svg version="1.0" xmlns="http://www.w3.org/2000/svg"
 width="32.000000pt" height="32.000000pt" viewBox="0 0 32.000000 32.000000"
 preserveAspectRatio="xMidYMid meet">
<metadata>
Created by potrace 1.16, written by Peter Selinger 2001-2019
</metadata>
<g transform="translate(0.000000,32.000000) scale(0.100000,-0.100000)"
fill="#000000" stroke="none">
<path fill="#000000" stroke="none" d="M179 204 c-48 -47 -92 -83 -98 -79 -6
3 -11 2 -11 -3 0 -5 9 -12 20 -15 11 -3 20 -12 20 -21 0 -9 4 -16 9 -16 5 0 8
6 7 14 0 7 32 48 72 90 40 42 69 76 65 76 -5 0 0 5 10 11 9 5 17 14 17 19 0
24 -29 4 -111 -76z"/>
<path fill="#000000" stroke="none" d="M58 65 c-20 -19 -34 -36 -30 -38 4 -2
22 14 41 35 41 47 38 48 -11 3z"/>
</g>
</svg>
