<?xml version="1.0" standalone="no"?>
<!DOCTYPE svg PUBLIC "-//W3C//DTD SVG 20010904//EN"
 "http://www.w3.org/TR/2001/REC-SVG-20010904/DTD/svg10.dtd">
<svg version="1.0" xmlns="http://www.w3.org/2000/svg"
 width="32.000000pt" height="32.000000pt" viewBox="0 0 32.000000 32.000000"
 preserveAspectRatio="xMidYMid meet">
<metadata>
Created by potrace 1.16, written by Peter Selinger 2001-2019
</metadata>
<g transform="translate(0.000000,32.000000) scale(0.100000,-0.100000)"
fill="#000000" stroke="none">
<path fill="#000000" stroke="none" d="M0 169 l0 -152 20 26 c15 19 20 40 20
91 l0 66 35 0 c28 0 35 4 35 20 0 14 7 20 24 20 13 0 39 14 57 31 26 24 39 29
68 27 l36 -3 3 -54 c3 -55 -14 -91 -45 -91 -7 0 -13 -6 -13 -14 0 -8 -9 -18
-20 -21 -11 -3 -20 -10 -20 -15 0 -5 -18 -15 -40 -21 -22 -7 -40 -16 -40 -22
0 -5 -6 -7 -14 -4 -8 3 -22 -1 -33 -9 -17 -14 -16 -15 7 -9 14 4 60 17 102 31
42 13 91 24 108 24 l30 0 0 115 0 115 -160 0 -160 0 0 -151z"/>
<path fill="#000000" stroke="none" d="M175 25 l-100 -23 113 -1 112 -1 0 25
c0 30 3 30 -125 0z"/>
</g>
</svg>
