<?xml version="1.0" standalone="no"?>
<!DOCTYPE svg PUBLIC "-//W3C//DTD SVG 20010904//EN"
 "http://www.w3.org/TR/2001/REC-SVG-20010904/DTD/svg10.dtd">
<svg version="1.0" xmlns="http://www.w3.org/2000/svg"
 width="32.000000pt" height="32.000000pt" viewBox="0 0 32.000000 32.000000"
 preserveAspectRatio="xMidYMid meet">
<metadata>
Created by potrace 1.16, written by Peter Selinger 2001-2019
</metadata>
<g transform="translate(0.000000,32.000000) scale(0.100000,-0.100000)"
fill="#000000" stroke="none">
<path fill="#000000" stroke="none" d="M231 253 c-24 -27 -82 -88 -129 -138
l-87 -90 78 75 79 75 -6 -35 c-4 -26 -4 -30 3 -15 5 11 10 31 10 45 1 20 3 22
11 10 8 -13 10 -13 10 1 0 9 16 31 35 50 20 19 40 42 46 52 19 33 -8 17 -50
-30z"/>
<path fill="#000000" stroke="none" d="M190 131 c0 -26 16 -35 24 -15 10 25 7
34 -9 34 -8 0 -15 -9 -15 -19z"/>
<path fill="#000000" stroke="none" d="M150 69 c0 -24 23 -21 28 4 2 10 -3 17
-12 17 -10 0 -16 -9 -16 -21z"/>
</g>
</svg>
