<?xml version="1.0" standalone="no"?>
<!DOCTYPE svg PUBLIC "-//W3C//DTD SVG 20010904//EN"
 "http://www.w3.org/TR/2001/REC-SVG-20010904/DTD/svg10.dtd">
<svg version="1.0" xmlns="http://www.w3.org/2000/svg"
 width="32.000000pt" height="32.000000pt" viewBox="0 0 32.000000 32.000000"
 preserveAspectRatio="xMidYMid meet">
<metadata>
Created by potrace 1.16, written by Peter Selinger 2001-2019
</metadata>
<g transform="translate(0.000000,32.000000) scale(0.100000,-0.100000)"
fill="#000000" stroke="none">
<path fill="#000000" stroke="none" d="M0 160 l0 -160 160 0 161 0 -3 158 -3
157 -157 3 -158 3 0 -161z"/>
<path fill="#ffffff" stroke="none" d="M241 230 c-39 -44 -78 -94 -86 -111
-10 -18 -22 -29 -30 -25 -9 3 -12 -3 -10 -22 2 -24 2 -25 -11 -8 -12 17 -15
16 -50 -18 -35 -34 -44 -41 -44 -33 0 2 16 21 36 41 34 35 35 38 18 50 -17 13
-16 13 8 11 18 -2 25 1 22 10 -3 7 13 24 38 39 24 14 72 53 108 85 36 33 67
60 68 61 2 0 -28 -36 -67 -80z"/>
<path fill="#ffffff" stroke="none" d="M72 153 c-6 -2 -10 -9 -6 -14 8 -14
-20 -10 -42 6 -18 13 -16 14 21 14 22 0 34 -3 27 -6z"/>
<path fill="#ffffff" stroke="none" d="M160 43 c-1 -36 -2 -37 -15 -19 -17 22
-20 50 -5 41 6 -3 10 -1 10 4 0 6 2 11 5 11 3 0 5 -17 5 -37z"/>
</g>
</svg>
