<?xml version="1.0" standalone="no"?>
<!DOCTYPE svg PUBLIC "-//W3C//DTD SVG 20010904//EN"
 "http://www.w3.org/TR/2001/REC-SVG-20010904/DTD/svg10.dtd">
<svg version="1.0" xmlns="http://www.w3.org/2000/svg"
 width="32.000000pt" height="32.000000pt" viewBox="0 0 32.000000 32.000000"
 preserveAspectRatio="xMidYMid meet">
<metadata>
Created by potrace 1.16, written by Peter Selinger 2001-2019
</metadata>
<g transform="translate(0.000000,32.000000) scale(0.100000,-0.100000)"
fill="#000000" stroke="none">
<path fill="#000000" stroke="none" d="M115 313 c-35 -7 -59 -96 -39 -147 8
-20 34 -21 34 -1 0 8 9 19 21 25 46 25 28 -4 -50 -80 -69 -67 -81 -83 -71 -95
16 -19 51 -19 97 0 27 11 45 13 70 6 22 -6 44 -6 60 0 13 5 35 9 49 9 13 0 24
6 25 13 8 96 6 127 -10 127 -14 1 -14 2 2 14 26 20 23 85 -7 114 -30 28 -92
30 -112 5 -13 -17 -13 -17 -14 0 0 17 -12 19 -55 10z"/>
<path fill="#ffffff" stroke="none" d="M160 295 c0 -8 6 -15 14 -15 8 0 16 7
20 15 3 10 19 15 48 15 41 0 42 0 20 -16 -26 -18 -30 -36 -5 -27 12 5 15 2 10
-10 -9 -25 9 -21 27 5 16 22 16 21 16 -20 0 -29 -5 -45 -15 -48 -20 -8 -19
-34 1 -34 21 0 11 -48 -14 -67 -20 -15 -108 -17 -117 -3 -3 5 -2 10 4 10 6 0
18 11 27 26 13 19 14 28 6 36 -9 9 -26 -3 -68 -45 -32 -32 -49 -54 -38 -51 10
4 16 4 12 0 -3 -4 -14 -9 -23 -10 -10 -1 -26 -13 -36 -27 -13 -18 -21 -21 -29
-13 -9 9 9 32 71 93 63 61 81 83 72 92 -9 9 -18 8 -37 -5 -15 -9 -26 -21 -26
-27 0 -6 -4 -7 -10 -4 -14 9 -12 97 3 116 22 29 67 38 67 14z"/>
<path fill="#ffffff" stroke="none" d="M290 273 c0 -10 -4 -14 -8 -8 -4 6 -11
13 -16 18 -5 4 -2 7 7 7 10 0 17 -8 17 -17z"/>
<path fill="#ffffff" stroke="none" d="M200 151 c0 -12 -20 -25 -27 -18 -7 7
6 27 18 27 5 0 9 -4 9 -9z"/>
</g>
</svg>
