<?xml version="1.0" standalone="no"?>
<!DOCTYPE svg PUBLIC "-//W3C//DTD SVG 20010904//EN"
 "http://www.w3.org/TR/2001/REC-SVG-20010904/DTD/svg10.dtd">
<svg version="1.0" xmlns="http://www.w3.org/2000/svg"
 width="32.000000pt" height="32.000000pt" viewBox="0 0 32.000000 32.000000"
 preserveAspectRatio="xMidYMid meet">
<metadata>
Created by potrace 1.16, written by Peter Selinger 2001-2019
</metadata>
<g transform="translate(0.000000,32.000000) scale(0.100000,-0.100000)"
fill="#000000" stroke="none">
<path fill="#000000" stroke="none" d="M0 160 l0 -160 160 0 160 0 0 160 0
160 -160 0 -160 0 0 -160z"/>
<path fill="#ffffff" stroke="none" d="M305 293 c-5 -10 -8 -26 -9 -35 0 -10
-4 -18 -9 -18 -5 0 -5 -9 -2 -20 7 -23 2 -25 -25 -10 -16 8 -26 5 -51 -18 -28
-25 -30 -31 -20 -50 13 -24 3 -29 -18 -9 -19 19 -75 -46 -61 -73 15 -27 13
-32 -10 -25 -11 3 -20 3 -20 -2 0 -5 -8 -9 -17 -9 -10 -1 -27 -5 -37 -9 -17
-7 -18 -6 -11 11 4 10 8 27 9 37 0 9 4 17 9 17 5 0 5 9 2 20 -7 23 -2 25 25
10 27 -14 92 42 73 61 -20 21 -15 31 9 18 19 -10 25 -8 50 20 23 25 26 35 18
51 -15 27 -13 32 10 25 12 -4 20 -2 20 5 0 6 4 8 10 5 5 -3 18 -1 27 4 27 15
36 13 28 -6z"/>
</g>
</svg>
