<?xml version="1.0" standalone="no"?>
<!DOCTYPE svg PUBLIC "-//W3C//DTD SVG 20010904//EN"
 "http://www.w3.org/TR/2001/REC-SVG-20010904/DTD/svg10.dtd">
<svg version="1.0" xmlns="http://www.w3.org/2000/svg"
 width="32.000000pt" height="32.000000pt" viewBox="0 0 32.000000 32.000000"
 preserveAspectRatio="xMidYMid meet">
<metadata>
Created by potrace 1.16, written by Peter Selinger 2001-2019
</metadata>
<g transform="translate(0.000000,32.000000) scale(0.100000,-0.100000)"
fill="#000000" stroke="none">
<path fill="#000000" stroke="none" d="M207 246 c-16 -30 -44 -72 -62 -93 -33
-38 -33 -38 -54 -19 l-21 19 6 -32 c6 -26 2 -37 -21 -61 -16 -17 -26 -33 -22
-36 4 -4 16 3 27 16 16 18 20 20 20 7 0 -10 -5 -17 -12 -17 -9 0 -9 -3 -1 -11
15 -15 63 14 63 36 0 9 6 12 18 8 15 -6 15 -4 -2 16 l-20 22 51 47 c52 48 67
79 61 126 -3 24 -6 21 -31 -28z"/>
<path fill="#ffffff" stroke="none" d="M97 48 c-3 -8 -6 -5 -6 6 -1 11 2 17 5
13 3 -3 4 -12 1 -19z"/>
</g>
</svg>
