<?xml version="1.0" standalone="no"?>
<!DOCTYPE svg PUBLIC "-//W3C//DTD SVG 20010904//EN"
 "http://www.w3.org/TR/2001/REC-SVG-20010904/DTD/svg10.dtd">
<svg version="1.0" xmlns="http://www.w3.org/2000/svg"
 width="32.000000pt" height="32.000000pt" viewBox="0 0 32.000000 32.000000"
 preserveAspectRatio="xMidYMid meet">
<metadata>
Created by potrace 1.16, written by Peter Selinger 2001-2019
</metadata>
<g transform="translate(0.000000,32.000000) scale(0.100000,-0.100000)"
fill="#000000" stroke="none">
<path fill="#000000" stroke="none" d="M191 271 c-18 -17 -44 -31 -57 -31 -17
0 -24 -6 -24 -20 0 -16 -7 -20 -35 -20 l-35 0 0 -66 c0 -51 -5 -72 -20 -91
-40 -51 -12 -54 154 -18 64 14 118 25 121 25 3 0 5 -11 5 -25 0 -14 5 -25 10
-25 6 0 10 20 10 45 0 43 -1 45 -30 45 -17 0 -66 -11 -108 -24 -42 -14 -88
-27 -102 -31 -23 -6 -24 -5 -7 9 11 8 25 12 33 9 8 -3 14 -1 14 4 0 6 18 15
40 22 22 6 40 16 40 21 0 5 9 12 20 15 11 3 20 13 20 21 0 8 6 14 13 14 31 0
48 36 45 91 l-3 54 -36 3 c-29 2 -42 -3 -68 -27z"/>
<path fill="#ffffff" stroke="none" d="M272 273 c10 -9 18 -20 18 -25 0 -13
-37 9 -44 27 -7 20 3 19 26 -2z"/>
<path fill="#ffffff" stroke="none" d="M237 218 c-16 -9 -27 0 -21 17 5 11 9
12 19 2 9 -8 10 -14 2 -19z"/>
</g>
</svg>
