<?xml version="1.0" standalone="no"?>
<!DOCTYPE svg PUBLIC "-//W3C//DTD SVG 20010904//EN"
 "http://www.w3.org/TR/2001/REC-SVG-20010904/DTD/svg10.dtd">
<svg version="1.0" xmlns="http://www.w3.org/2000/svg"
 width="32.000000pt" height="32.000000pt" viewBox="0 0 32.000000 32.000000"
 preserveAspectRatio="xMidYMid meet">
<metadata>
Created by potrace 1.16, written by Peter Selinger 2001-2019
</metadata>
<g transform="translate(0.000000,32.000000) scale(0.100000,-0.100000)"
fill="#000000" stroke="none">
<path fill="#000000" stroke="none" d="M0 159 c0 -89 3 -160 6 -157 3 4 6 13
8 21 1 8 15 26 30 41 29 26 29 26 10 47 -17 19 -17 23 -3 47 28 50 57 24 34
-30 -9 -21 20 -37 37 -20 8 8 5 9 -11 5 -24 -6 -26 -1 -9 30 6 12 12 55 13 95
l1 72 -42 0 c-23 0 -49 3 -58 6 -14 5 -16 -12 -16 -157z"/>
<path fill="#000000" stroke="none" d="M130 291 c0 -10 7 -21 15 -25 9 -3 15
-18 15 -40 0 -30 -3 -34 -22 -29 -22 4 -22 4 -4 -11 17 -14 20 -13 38 9 11 14
24 25 30 25 7 0 1 -11 -11 -24 -12 -13 -18 -26 -13 -30 5 -3 22 8 37 24 26 27
26 35 3 31 -10 -1 -10 11 0 24 4 6 22 23 40 38 l34 27 -81 0 c-73 0 -81 -2
-81 -19z"/>
<path fill="#ffffff" stroke="none" d="M230 217 c0 -2 -12 -14 -27 -28 l-28
-24 24 28 c23 25 31 32 31 24z"/>
<path fill="#000000" stroke="none" d="M313 200 c0 -25 2 -35 4 -22 2 12 2 32
0 45 -2 12 -4 2 -4 -23z"/>
<path fill="#000000" stroke="none" d="M268 194 c-5 -4 -8 -16 -8 -28 0 -14 3
-17 11 -9 6 6 9 19 7 28 -1 9 -6 13 -10 9z"/>
<path fill="#000000" stroke="none" d="M255 87 c-33 -18 -65 -43 -72 -57 l-12
-25 70 -3 c39 -2 73 -1 76 1 2 3 3 30 1 60 l-3 56 -60 -32z"/>
<path fill="#000000" stroke="none" d="M81 74 c0 -11 3 -14 6 -6 3 7 2 16 -1
19 -3 4 -6 -2 -5 -13z"/>
<path fill="#000000" stroke="none" d="M61 54 c0 -11 3 -14 6 -6 3 7 2 16 -1
19 -3 4 -6 -2 -5 -13z"/>
<path fill="#000000" stroke="none" d="M95 31 c-3 -5 -1 -12 5 -16 5 -3 10 1
10 9 0 18 -6 21 -15 7z"/>
<path fill="#000000" stroke="none" d="M130 15 c0 -8 7 -15 16 -15 14 0 14 3
4 15 -7 8 -14 15 -16 15 -2 0 -4 -7 -4 -15z"/>
</g>
</svg>
