<?xml version="1.0" standalone="no"?>
<!DOCTYPE svg PUBLIC "-//W3C//DTD SVG 20010904//EN"
 "http://www.w3.org/TR/2001/REC-SVG-20010904/DTD/svg10.dtd">
<svg version="1.0" xmlns="http://www.w3.org/2000/svg"
 width="32.000000pt" height="32.000000pt" viewBox="0 0 32.000000 32.000000"
 preserveAspectRatio="xMidYMid meet">
<metadata>
Created by potrace 1.16, written by Peter Selinger 2001-2019
</metadata>
<g transform="translate(0.000000,32.000000) scale(0.100000,-0.100000)"
fill="#000000" stroke="none">
<path fill="#000000" stroke="none" d="M0 160 l0 -160 160 0 160 0 0 160 0
160 -160 0 -160 0 0 -160z"/>
<path fill="#ffffff" stroke="none" d="M280 238 c-12 -24 -51 -73 -87 -109
-37 -38 -62 -72 -59 -78 13 -21 -5 -11 -29 17 -30 33 -32 46 -5 30 18 -11 26
-6 81 47 33 33 72 83 86 110 15 28 28 45 30 38 2 -6 -6 -31 -17 -55z"/>
<path fill="#ffffff" stroke="none" d="M70 52 c0 -5 -11 -14 -25 -20 -39 -18
-44 -14 -10 7 36 23 35 23 35 13z"/>
</g>
</svg>
