<?xml version="1.0" standalone="no"?>
<!DOCTYPE svg PUBLIC "-//W3C//DTD SVG 20010904//EN"
 "http://www.w3.org/TR/2001/REC-SVG-20010904/DTD/svg10.dtd">
<svg version="1.0" xmlns="http://www.w3.org/2000/svg"
 width="32.000000pt" height="32.000000pt" viewBox="0 0 32.000000 32.000000"
 preserveAspectRatio="xMidYMid meet">
<metadata>
Created by potrace 1.16, written by Peter Selinger 2001-2019
</metadata>
<g transform="translate(0.000000,32.000000) scale(0.100000,-0.100000)"
fill="#000000" stroke="none">
<path fill="#000000" stroke="none" d="M175 298 c-14 -11 -30 -16 -37 -12 -9
5 -8 2 1 -10 10 -12 22 -15 43 -11 33 8 38 -9 8 -25 -18 -10 -19 -13 -5 -26
16 -17 20 -28 6 -20 -5 3 -7 -10 -5 -30 2 -20 1 -34 -3 -31 -3 4 -14 2 -23 -3
-22 -12 -22 9 -1 34 7 9 10 16 6 16 -4 0 -2 6 4 14 8 9 8 16 2 20 -6 4 -7 14
-4 23 4 11 3 14 -5 9 -7 -4 -12 -14 -12 -22 0 -8 -12 -19 -26 -24 -14 -6 -23
-14 -19 -19 3 -5 0 -13 -6 -17 -8 -4 -9 -3 -5 4 4 7 1 12 -10 12 -12 0 -15 -6
-12 -24 3 -16 0 -27 -9 -30 -8 -3 -13 -14 -11 -25 2 -11 -7 -27 -21 -38 -14
-11 -21 -25 -17 -31 10 -17 41 -15 56 3 15 18 37 20 43 3 4 -12 30 -3 87 31 8
5 26 13 40 19 57 22 80 36 80 49 0 7 -7 13 -15 13 -8 0 -15 5 -15 11 0 7 -12
10 -30 7 -16 -3 -30 -2 -30 2 0 9 39 40 50 40 6 0 10 6 10 14 0 8 7 16 15 20
24 9 17 26 -11 26 -22 0 -24 3 -15 14 27 33 -65 45 -104 14z"/>
<path fill="#ffffff" stroke="none" d="M269 301 c2 -1 -4 -10 -13 -20 -10 -11
-15 -25 -10 -32 5 -8 3 -10 -6 -4 -9 6 -11 4 -5 -5 5 -8 4 -11 -2 -7 -5 3 -10
0 -10 -8 0 -19 -1 -20 28 12 13 14 18 23 10 18 -9 -5 -12 -4 -8 2 4 6 18 8 31
6 l25 -5 -24 -22 c-13 -11 -32 -28 -43 -37 -11 -9 -22 -23 -24 -30 -2 -7 -9
-9 -17 -5 -9 6 -9 11 0 22 6 8 8 14 5 14 -4 0 -4 6 1 13 8 13 11 23 15 52 2
16 -3 20 -25 19 -25 0 -27 2 -13 12 13 9 59 12 85 5z"/>
<path fill="#000000" stroke="none" d="M159 153 c-13 -16 -12 -17 4 -4 9 7 17
15 17 17 0 8 -8 3 -21 -13z"/>
</g>
</svg>
