<?xml version="1.0" standalone="no"?>
<!DOCTYPE svg PUBLIC "-//W3C//DTD SVG 20010904//EN"
 "http://www.w3.org/TR/2001/REC-SVG-20010904/DTD/svg10.dtd">
<svg version="1.0" xmlns="http://www.w3.org/2000/svg"
 width="32.000000pt" height="32.000000pt" viewBox="0 0 32.000000 32.000000"
 preserveAspectRatio="xMidYMid meet">
<metadata>
Created by potrace 1.16, written by Peter Selinger 2001-2019
</metadata>
<g transform="translate(0.000000,32.000000) scale(0.100000,-0.100000)"
fill="#000000" stroke="none">
<path fill="#000000" stroke="none" d="M96 279 c-14 -11 -26 -28 -25 -37 0
-13 3 -11 9 5 16 40 62 54 95 29 17 -12 18 -17 7 -42 -11 -27 -11 -27 3 -10
21 27 19 42 -7 60 -30 21 -50 20 -82 -5z"/>
<path fill="#000000" stroke="none" d="M282 251 c-12 -38 -37 -69 -48 -58 -3
3 -20 -9 -37 -26 -17 -18 -34 -31 -38 -30 -4 1 -15 -7 -25 -18 -22 -25 -9 -54
26 -54 28 0 50 29 34 45 -8 8 -10 4 -10 -12 1 -18 -4 -23 -24 -23 -36 0 -39
32 -3 47 15 6 33 12 38 12 6 1 10 6 10 13 0 6 3 15 8 19 4 4 7 1 7 -6 0 -7 3
-10 7 -7 3 4 12 2 19 -4 19 -16 46 32 52 92 6 59 -1 63 -16 10z"/>
<path fill="#000000" stroke="none" d="M128 207 c-14 -6 -29 -19 -32 -30 -4
-17 -8 -18 -20 -8 -22 18 -48 -28 -53 -92 l-4 -52 18 45 c14 33 29 51 56 65
20 11 37 24 37 29 0 5 7 18 17 28 21 23 15 27 -19 15z"/>
</g>
</svg>
