<?xml version="1.0" standalone="no"?>
<!DOCTYPE svg PUBLIC "-//W3C//DTD SVG 20010904//EN"
 "http://www.w3.org/TR/2001/REC-SVG-20010904/DTD/svg10.dtd">
<svg version="1.0" xmlns="http://www.w3.org/2000/svg"
 width="32.000000pt" height="32.000000pt" viewBox="0 0 32.000000 32.000000"
 preserveAspectRatio="xMidYMid meet">
<metadata>
Created by potrace 1.16, written by Peter Selinger 2001-2019
</metadata>
<g transform="translate(0.000000,32.000000) scale(0.100000,-0.100000)"
fill="#000000" stroke="none">
<path fill="#000000" stroke="none" d="M245 255 c-38 -36 -89 -77 -112 -91
-22 -13 -44 -32 -47 -40 -3 -8 -10 -12 -16 -9 -7 4 -7 13 0 26 9 16 7 19 -13
19 -14 0 -30 -7 -38 -16 -11 -13 -11 -15 2 -12 8 1 24 -7 36 -19 l23 -23 -36
-35 c-20 -20 -34 -39 -31 -42 3 -3 22 11 41 31 l36 36 23 -23 c12 -12 20 -28
19 -36 -3 -13 -1 -13 12 -2 9 8 16 24 16 38 0 20 -3 22 -19 13 -24 -12 -39 4
-16 17 8 5 27 27 42 50 16 23 57 74 92 113 34 38 61 70 60 70 -2 0 -35 -30
-74 -65z"/>
</g>
</svg>
