<?xml version="1.0" standalone="no"?>
<!DOCTYPE svg PUBLIC "-//W3C//DTD SVG 20010904//EN"
 "http://www.w3.org/TR/2001/REC-SVG-20010904/DTD/svg10.dtd">
<svg version="1.0" xmlns="http://www.w3.org/2000/svg"
 width="32.000000pt" height="32.000000pt" viewBox="0 0 32.000000 32.000000"
 preserveAspectRatio="xMidYMid meet">
<metadata>
Created by potrace 1.16, written by Peter Selinger 2001-2019
</metadata>
<g transform="translate(0.000000,32.000000) scale(0.100000,-0.100000)"
fill="#000000" stroke="none">
<path fill="#000000" stroke="none" d="M0 160 l0 -160 160 0 160 0 0 160 0
160 -160 0 -160 0 0 -160z"/>
<path fill="#ffffff" stroke="none" d="M116 278 c7 -5 14 -17 17 -27 4 -18 2
-18 -26 -6 -17 7 -33 19 -36 27 -2 7 -9 17 -15 21 -6 4 3 5 19 1 17 -4 35 -11
41 -16z"/>
<path fill="#ffffff" stroke="none" d="M71 235 c41 9 52 -1 32 -33 -9 -15 -18
-28 -19 -30 -4 -7 -54 22 -54 32 0 6 -3 22 -6 36 -5 22 -4 23 6 7 9 -14 19
-17 41 -12z"/>
</g>
</svg>
