<?xml version="1.0" standalone="no"?>
<!DOCTYPE svg PUBLIC "-//W3C//DTD SVG 20010904//EN"
 "http://www.w3.org/TR/2001/REC-SVG-20010904/DTD/svg10.dtd">
<svg version="1.0" xmlns="http://www.w3.org/2000/svg"
 width="32.000000pt" height="32.000000pt" viewBox="0 0 32.000000 32.000000"
 preserveAspectRatio="xMidYMid meet">
<metadata>
Created by potrace 1.16, written by Peter Selinger 2001-2019
</metadata>
<g transform="translate(0.000000,32.000000) scale(0.100000,-0.100000)"
fill="#000000" stroke="none">
<path fill="#000000" stroke="none" d="M0 160 l0 -160 160 0 160 0 0 160 0
160 -160 0 -160 0 0 -160z"/>
<path fill="#ffffff" stroke="none" d="M221 202 c5 -12 6 -22 2 -22 -3 0 0 -7
7 -15 7 -9 8 -15 2 -15 -9 0 -33 52 -29 62 1 2 -3 -3 -10 -10 -6 -8 -13 -9
-17 -3 -3 5 -1 12 4 14 6 3 5 4 -2 3 -16 -3 -18 -28 -3 -38 6 -5 4 -8 -5 -8
-13 0 -13 -1 0 -10 12 -8 12 -10 -3 -16 -10 -4 -23 -2 -30 5 -8 8 -7 11 4 11
12 0 12 2 -1 10 -10 6 -11 10 -2 10 6 0 12 5 12 12 0 6 -3 8 -7 5 -3 -4 -12
-2 -20 5 -8 6 -13 7 -12 2 5 -16 -12 -54 -23 -54 -7 0 -7 4 0 13 6 6 11 17 11
22 4 36 12 42 63 41 43 -1 52 -5 59 -24z"/>
<path fill="#ffffff" stroke="none" d="M150 120 c0 -5 -4 -10 -10 -10 -5 0
-10 5 -10 10 0 6 5 10 10 10 6 0 10 -4 10 -10z"/>
<path fill="#ffffff" stroke="none" d="M190 126 c0 -11 -19 -15 -25 -6 -3 5 1
10 9 10 9 0 16 -2 16 -4z"/>
<path fill="#ffffff" stroke="none" d="M140 90 c0 -5 -4 -10 -10 -10 -5 0 -10
5 -10 10 0 6 5 10 10 10 6 0 10 -4 10 -10z"/>
<path fill="#ffffff" stroke="none" d="M190 90 c0 -5 -2 -10 -4 -10 -3 0 -8 5
-11 10 -3 6 -1 10 4 10 6 0 11 -4 11 -10z"/>
</g>
</svg>
