<?xml version="1.0" standalone="no"?>
<!DOCTYPE svg PUBLIC "-//W3C//DTD SVG 20010904//EN"
 "http://www.w3.org/TR/2001/REC-SVG-20010904/DTD/svg10.dtd">
<svg version="1.0" xmlns="http://www.w3.org/2000/svg"
 width="32.000000pt" height="32.000000pt" viewBox="0 0 32.000000 32.000000"
 preserveAspectRatio="xMidYMid meet">
<metadata>
Created by potrace 1.16, written by Peter Selinger 2001-2019
</metadata>
<g transform="translate(0.000000,32.000000) scale(0.100000,-0.100000)"
fill="#000000" stroke="none">
<path fill="#000000" stroke="none" d="M104 207 c-5 -12 -7 -25 -6 -29 1 -5
-2 -8 -8 -8 -5 0 -10 -4 -10 -10 0 -5 4 -10 9 -10 10 0 27 39 22 54 -1 5 4 4
12 -2 8 -7 17 -9 20 -5 4 3 7 1 7 -5 0 -7 -6 -12 -12 -12 -9 0 -8 -4 2 -10 13
-8 13 -10 1 -10 -11 0 -12 -3 -4 -11 7 -7 20 -9 30 -5 15 6 15 8 3 16 -13 9
-13 10 0 10 12 0 12 2 1 9 -9 6 -10 11 -2 15 6 4 11 4 11 0 0 -4 6 -1 13 7 6
8 11 13 10 11 -1 -2 3 -17 9 -33 9 -28 28 -40 28 -19 0 6 -5 10 -11 10 -5 0
-8 3 -6 8 3 4 1 16 -3 26 -5 16 -18 20 -58 23 -45 2 -52 -1 -58 -20z"/>
<path fill="#000000" stroke="none" d="M130 120 c0 -5 5 -10 10 -10 6 0 10 5
10 10 0 6 -4 10 -10 10 -5 0 -10 -4 -10 -10z"/>
<path fill="#000000" stroke="none" d="M165 120 c4 -6 11 -8 16 -5 14 9 11 15
-7 15 -8 0 -12 -5 -9 -10z"/>
<path fill="#000000" stroke="none" d="M120 90 c0 -5 5 -10 10 -10 6 0 10 5
10 10 0 6 -4 10 -10 10 -5 0 -10 -4 -10 -10z"/>
<path fill="#000000" stroke="none" d="M175 90 c3 -5 8 -10 11 -10 2 0 4 5 4
10 0 6 -5 10 -11 10 -5 0 -7 -4 -4 -10z"/>
</g>
</svg>
