<?xml version="1.0" standalone="no"?>
<!DOCTYPE svg PUBLIC "-//W3C//DTD SVG 20010904//EN"
 "http://www.w3.org/TR/2001/REC-SVG-20010904/DTD/svg10.dtd">
<svg version="1.0" xmlns="http://www.w3.org/2000/svg"
 width="32.000000pt" height="32.000000pt" viewBox="0 0 32.000000 32.000000"
 preserveAspectRatio="xMidYMid meet">
<metadata>
Created by potrace 1.16, written by Peter Selinger 2001-2019
</metadata>
<g transform="translate(0.000000,32.000000) scale(0.100000,-0.100000)"
fill="#000000" stroke="none">
<path fill="#000000" stroke="none" d="M0 160 l0 -160 160 0 160 0 0 160 0
160 -160 0 -160 0 0 -160z"/>
<path fill="#ffffff" stroke="none" d="M124 233 c-15 -3 -24 -14 -28 -35 -8
-41 -15 -33 -9 10 5 27 9 32 32 31 21 -1 22 -2 5 -6z"/>
<path fill="#ffffff" stroke="none" d="M233 208 c6 -43 -1 -51 -9 -10 -4 21
-13 32 -28 35 -17 4 -16 5 5 6 23 1 27 -4 32 -31z"/>
<path fill="#ffffff" stroke="none" d="M116 94 c-8 -27 -13 -36 -10 -20 15 84
16 92 4 74 -6 -10 -16 -18 -21 -18 -6 0 -3 7 5 16 9 8 16 21 17 27 0 7 5 2 11
-9 7 -16 6 -35 -6 -70z"/>
<path fill="#ffffff" stroke="none" d="M234 138 c8 -5 7 -8 -1 -8 -7 0 -17 8
-23 18 -12 18 -11 9 4 -74 3 -16 -1 -9 -9 16 -9 25 -13 56 -9 70 5 24 6 24 16
5 6 -11 16 -23 22 -27z"/>
<path fill="#ffffff" stroke="none" d="M183 33 c-13 -2 -33 -2 -45 0 -13 2 -3
4 22 4 25 0 35 -2 23 -4z"/>
</g>
</svg>
