<?xml version="1.0" standalone="no"?>
<!DOCTYPE svg PUBLIC "-//W3C//DTD SVG 20010904//EN"
 "http://www.w3.org/TR/2001/REC-SVG-20010904/DTD/svg10.dtd">
<svg version="1.0" xmlns="http://www.w3.org/2000/svg"
 width="32.000000pt" height="32.000000pt" viewBox="0 0 32.000000 32.000000"
 preserveAspectRatio="xMidYMid meet">
<metadata>
Created by potrace 1.16, written by Peter Selinger 2001-2019
</metadata>
<g transform="translate(0.000000,32.000000) scale(0.100000,-0.100000)"
fill="#000000" stroke="none">
<path fill="#000000" stroke="none" d="M117 224 c-10 -10 -9 -46 1 -40 4 2 14
1 22 -4 11 -7 10 -14 -3 -43 -10 -19 -17 -43 -17 -53 0 -16 1 -16 15 2 13 17
14 17 15 2 0 -21 11 -23 27 -7 14 14 6 70 -11 81 -7 5 -3 13 11 23 24 17 21
45 -4 45 -8 0 -11 -4 -8 -10 13 -21 -7 -30 -23 -10 -10 12 -21 18 -25 14z"/>
<path fill="#ffffff" stroke="none" d="M170 136 c0 -8 -4 -18 -10 -21 -5 -3
-10 3 -10 14 0 12 5 21 10 21 6 0 10 -6 10 -14z"/>
</g>
</svg>
