<?xml version="1.0" standalone="no"?>
<!DOCTYPE svg PUBLIC "-//W3C//DTD SVG 20010904//EN"
 "http://www.w3.org/TR/2001/REC-SVG-20010904/DTD/svg10.dtd">
<svg version="1.0" xmlns="http://www.w3.org/2000/svg"
 width="32.000000pt" height="32.000000pt" viewBox="0 0 32.000000 32.000000"
 preserveAspectRatio="xMidYMid meet">
<metadata>
Created by potrace 1.16, written by Peter Selinger 2001-2019
</metadata>
<g transform="translate(0.000000,32.000000) scale(0.100000,-0.100000)"
fill="#000000" stroke="none">
<path fill="#000000" stroke="none" d="M109 218 c0 -2 -2 -14 -5 -28 -3 -18
-2 -21 5 -10 5 8 7 18 5 22 -3 4 2 5 10 2 9 -3 16 -1 16 5 0 9 -28 17 -31 9z"/>
<path fill="#000000" stroke="none" d="M188 213 c-3 -4 3 -16 14 -25 17 -17
18 -17 15 4 -4 22 -22 35 -29 21z"/>
<path fill="#000000" stroke="none" d="M141 197 c-7 -10 -12 -17 -10 -18 31
-6 40 -6 46 3 3 6 1 8 -5 4 -6 -3 -12 1 -14 10 -3 16 -4 16 -17 1z"/>
<path fill="#000000" stroke="none" d="M145 110 c-3 -5 1 -10 10 -10 9 0 13 5
10 10 -3 6 -8 10 -10 10 -2 0 -7 -4 -10 -10z"/>
</g>
</svg>
