<?xml version="1.0" standalone="no"?>
<!DOCTYPE svg PUBLIC "-//W3C//DTD SVG 20010904//EN"
 "http://www.w3.org/TR/2001/REC-SVG-20010904/DTD/svg10.dtd">
<svg version="1.0" xmlns="http://www.w3.org/2000/svg"
 width="32.000000pt" height="32.000000pt" viewBox="0 0 32.000000 32.000000"
 preserveAspectRatio="xMidYMid meet">
<metadata>
Created by potrace 1.16, written by Peter Selinger 2001-2019
</metadata>
<g transform="translate(0.000000,32.000000) scale(0.100000,-0.100000)"
fill="#000000" stroke="none">
<path fill="#000000" stroke="none" d="M0 160 l0 -160 160 0 160 0 0 160 0
160 -160 0 -160 0 0 -160z"/>
<path fill="#ffffff" stroke="none" d="M157 223 c-4 -3 0 -15 10 -25 18 -20
15 -27 -14 -32 -12 -3 -20 1 -20 9 0 8 3 12 7 10 4 -2 7 2 7 10 0 11 -5 12
-19 4 -11 -6 -17 -17 -14 -24 3 -9 0 -12 -10 -8 -7 3 -14 8 -14 12 0 14 26 39
45 44 11 3 22 5 24 6 2 0 1 -2 -2 -6z"/>
<path fill="#ffffff" stroke="none" d="M218 196 c2 -10 -1 -23 -8 -30 -8 -8
-10 -7 -5 6 5 12 1 20 -9 24 -22 8 -20 26 1 22 10 -2 19 -12 21 -22z"/>
<path fill="#ffffff" stroke="none" d="M163 129 c3 -12 10 -19 15 -15 5 3 9 0
9 -7 0 -7 -12 -12 -26 -12 -15 0 -25 -5 -24 -12 2 -7 -4 -10 -13 -6 -15 5 -15
7 0 15 9 5 13 14 10 20 -4 7 -2 8 4 4 7 -4 12 -2 12 3 0 6 -5 11 -11 11 -5 0
-7 5 -4 10 10 16 22 11 28 -11z"/>
<path fill="#ffffff" stroke="none" d="M185 72 c-3 -3 -11 0 -18 7 -9 10 -8
11 6 5 10 -3 15 -9 12 -12z"/>
</g>
</svg>
