<?xml version="1.0" standalone="no"?>
<!DOCTYPE svg PUBLIC "-//W3C//DTD SVG 20010904//EN"
 "http://www.w3.org/TR/2001/REC-SVG-20010904/DTD/svg10.dtd">
<svg version="1.0" xmlns="http://www.w3.org/2000/svg"
 width="32.000000pt" height="32.000000pt" viewBox="0 0 32.000000 32.000000"
 preserveAspectRatio="xMidYMid meet">
<metadata>
Created by potrace 1.16, written by Peter Selinger 2001-2019
</metadata>
<g transform="translate(0.000000,32.000000) scale(0.100000,-0.100000)"
fill="#000000" stroke="none">
<path fill="#000000" stroke="none" d="M0 160 l0 -160 160 0 160 0 0 160 0
160 -160 0 -160 0 0 -160z"/>
<path fill="#ffffff" stroke="none" d="M154 219 c-2 -4 3 -9 11 -13 15 -5 21
-35 8 -37 -5 0 -16 -2 -26 -4 -14 -3 -18 1 -14 15 3 12 0 17 -9 13 -7 -2 -10
-11 -7 -19 4 -10 0 -12 -11 -8 -20 8 -20 14 -2 40 12 17 61 30 50 13z"/>
<path fill="#ffffff" stroke="none" d="M230 180 c0 -4 -7 -10 -14 -13 -10 -4
-13 -1 -10 8 3 7 -4 19 -17 25 -17 10 -19 14 -8 21 10 6 20 2 32 -12 9 -12 17
-25 17 -29z"/>
<path fill="#ffffff" stroke="none" d="M167 127 c-8 -6 -5 -7 9 -4 17 3 21 0
19 -21 -1 -30 -22 -41 -31 -18 -6 15 -8 15 -18 1 -8 -11 -15 -12 -26 -4 -12 9
-12 10 4 5 16 -5 17 -4 7 8 -10 11 -8 17 6 25 10 6 13 11 6 11 -7 0 -10 7 -7
15 5 11 10 12 24 2 14 -8 16 -14 7 -20z"/>
<path fill="#000000" stroke="none" d="M177 103 c-10 -9 -9 -23 1 -23 5 0 9 7
9 15 0 17 -1 18 -10 8z"/>
</g>
</svg>
