<?xml version="1.0" standalone="no"?>
<!DOCTYPE svg PUBLIC "-//W3C//DTD SVG 20010904//EN"
 "http://www.w3.org/TR/2001/REC-SVG-20010904/DTD/svg10.dtd">
<svg version="1.0" xmlns="http://www.w3.org/2000/svg"
 width="32.000000pt" height="32.000000pt" viewBox="0 0 32.000000 32.000000"
 preserveAspectRatio="xMidYMid meet">
<metadata>
Created by potrace 1.16, written by Peter Selinger 2001-2019
</metadata>
<g transform="translate(0.000000,32.000000) scale(0.100000,-0.100000)"
fill="#000000" stroke="none">
<path fill="#000000" stroke="none" d="M0 160 l0 -160 160 0 160 0 0 160 0
160 -160 0 -160 0 0 -160z"/>
<path fill="#ffffff" stroke="none" d="M206 198 c3 -11 3 -22 0 -25 -3 -4 -6
-1 -6 5 0 7 -4 12 -10 12 -17 0 -11 -26 15 -71 14 -24 25 -48 25 -52 0 -18
-21 6 -35 39 -20 47 -47 45 -70 -6 -10 -22 -21 -40 -26 -40 -11 0 -5 26 10 44
7 9 10 16 7 16 -4 0 0 10 8 22 18 26 21 58 5 58 -5 0 -8 -4 -4 -9 3 -5 1 -12
-4 -15 -5 -4 -12 -2 -15 3 -11 17 20 37 57 38 28 0 38 -4 43 -19z"/>
</g>
</svg>
