<?xml version="1.0" standalone="no"?>
<!DOCTYPE svg PUBLIC "-//W3C//DTD SVG 20010904//EN"
 "http://www.w3.org/TR/2001/REC-SVG-20010904/DTD/svg10.dtd">
<svg version="1.0" xmlns="http://www.w3.org/2000/svg"
 width="32.000000pt" height="32.000000pt" viewBox="0 0 32.000000 32.000000"
 preserveAspectRatio="xMidYMid meet">
<metadata>
Created by potrace 1.16, written by Peter Selinger 2001-2019
</metadata>
<g transform="translate(0.000000,32.000000) scale(0.100000,-0.100000)"
fill="#000000" stroke="none">
<path fill="#000000" stroke="none" d="M97 233 c-2 -5 -3 -16 -2 -25 2 -10 0
-18 -4 -18 -5 0 -8 -12 -7 -27 1 -16 6 -27 12 -26 7 1 15 -10 19 -25 6 -25 7
-25 17 -8 9 15 7 22 -7 32 -10 7 -22 11 -26 8 -17 -10 -9 9 9 22 24 19 34 17
28 -4 -4 -12 1 -26 14 -37 15 -14 20 -15 21 -4 0 8 5 3 10 -11 9 -23 11 -23
20 -7 7 12 6 26 -5 47 -8 17 -10 32 -5 36 5 3 9 -2 9 -10 0 -9 7 -16 15 -16 8
0 15 -5 15 -11 0 -5 -5 -7 -12 -3 -7 4 -8 3 -4 -5 4 -6 12 -9 17 -6 10 7 8 55
-3 55 -4 0 -5 9 -3 20 4 22 -26 43 -32 23 -3 -7 -16 -8 -41 -2 -46 11 -50 11
-55 2z"/>
</g>
</svg>
