<?xml version="1.0" standalone="no"?>
<!DOCTYPE svg PUBLIC "-//W3C//DTD SVG 20010904//EN"
 "http://www.w3.org/TR/2001/REC-SVG-20010904/DTD/svg10.dtd">
<svg version="1.0" xmlns="http://www.w3.org/2000/svg"
 width="32.000000pt" height="32.000000pt" viewBox="0 0 32.000000 32.000000"
 preserveAspectRatio="xMidYMid meet">
<metadata>
Created by potrace 1.16, written by Peter Selinger 2001-2019
</metadata>
<g transform="translate(0.000000,32.000000) scale(0.100000,-0.100000)"
fill="#000000" stroke="none">
<path fill="#000000" stroke="none" d="M95 231 c-3 -5 -1 -12 5 -16 6 -4 8
-11 4 -16 -3 -6 0 -10 7 -8 31 4 41 -1 35 -18 -6 -13 -1 -12 17 5 16 15 30 20
42 16 12 -5 16 -4 11 4 -3 6 -2 13 4 17 13 8 3 25 -16 25 -8 0 -14 -7 -14 -15
0 -8 -5 -15 -11 -15 -5 0 -8 4 -5 8 2 4 -4 8 -14 8 -10 0 -16 -4 -14 -8 3 -4
0 -8 -5 -8 -6 0 -11 7 -11 15 0 16 -25 21 -35 6z"/>
<path fill="#000000" stroke="none" d="M145 140 c3 -5 8 -10 11 -10 2 0 4 5 4
10 0 6 -5 10 -11 10 -5 0 -7 -4 -4 -10z"/>
</g>
</svg>
