<?xml version="1.0" standalone="no"?>
<!DOCTYPE svg PUBLIC "-//W3C//DTD SVG 20010904//EN"
 "http://www.w3.org/TR/2001/REC-SVG-20010904/DTD/svg10.dtd">
<svg version="1.0" xmlns="http://www.w3.org/2000/svg"
 width="32.000000pt" height="32.000000pt" viewBox="0 0 32.000000 32.000000"
 preserveAspectRatio="xMidYMid meet">
<metadata>
Created by potrace 1.16, written by Peter Selinger 2001-2019
</metadata>
<g transform="translate(0.000000,32.000000) scale(0.100000,-0.100000)"
fill="#000000" stroke="none">
<path fill="#000000" stroke="none" d="M0 160 l0 -160 160 0 160 0 0 160 0
160 -160 0 -160 0 0 -160z"/>
<path fill="#ffffff" stroke="none" d="M179 237 c15 10 22 9 31 -2 7 -8 10
-21 7 -29 -3 -7 0 -19 6 -25 8 -8 8 -11 -1 -11 -11 0 -16 13 -13 33 2 15 -15
6 -27 -14 -10 -15 -10 -19 -1 -14 7 5 10 3 7 -6 -3 -8 1 -20 9 -27 7 -7 13
-21 12 -30 0 -16 -1 -16 -12 0 -10 15 -12 15 -24 0 -12 -16 -14 -16 -26 0 -12
15 -14 15 -24 0 -11 -16 -12 -16 -12 0 -1 9 5 23 13 31 8 8 13 23 11 33 -2 10
-4 22 -4 27 -1 4 -6 7 -12 7 -5 0 -8 -4 -5 -8 7 -12 -12 -38 -21 -28 -4 5 -3
11 4 13 7 2 9 11 6 19 -3 8 0 21 7 29 9 11 16 12 31 2 15 -9 23 -9 38 0z"/>
</g>
</svg>
