<?xml version="1.0" standalone="no"?>
<!DOCTYPE svg PUBLIC "-//W3C//DTD SVG 20010904//EN"
 "http://www.w3.org/TR/2001/REC-SVG-20010904/DTD/svg10.dtd">
<svg version="1.0" xmlns="http://www.w3.org/2000/svg"
 width="32.000000pt" height="32.000000pt" viewBox="0 0 32.000000 32.000000"
 preserveAspectRatio="xMidYMid meet">
<metadata>
Created by potrace 1.16, written by Peter Selinger 2001-2019
</metadata>
<g transform="translate(0.000000,32.000000) scale(0.100000,-0.100000)"
fill="#000000" stroke="none">
<path fill="#000000" stroke="none" d="M101 226 c-9 -11 -9 -16 1 -22 7 -4 10
-4 6 1 -4 4 0 14 10 21 9 7 12 14 6 14 -6 0 -17 -6 -23 -14z"/>
<path fill="#000000" stroke="none" d="M202 226 c10 -7 14 -17 10 -21 -4 -5
-1 -5 6 -1 10 6 10 11 1 22 -6 8 -17 14 -23 14 -6 0 -3 -7 6 -14z"/>
<path fill="#000000" stroke="none" d="M125 199 c-8 -11 23 -31 42 -27 10 2
19 10 21 19 2 11 -5 16 -28 16 -17 0 -33 -4 -35 -8z"/>
<path fill="#000000" stroke="none" d="M146 149 c3 -5 -1 -9 -8 -9 -8 0 -7 -5
4 -17 14 -14 20 -14 33 -3 11 9 13 16 6 23 -14 14 -43 18 -35 6z"/>
<path fill="#ffffff" stroke="none" d="M175 129 c-4 -5 -12 -9 -18 -8 -9 0 -8
2 1 6 6 2 9 10 6 15 -4 7 -2 8 5 4 6 -4 9 -12 6 -17z"/>
<path fill="#000000" stroke="none" d="M200 133 c0 -4 5 -15 10 -23 8 -13 10
-13 10 2 0 9 -4 20 -10 23 -5 3 -10 3 -10 -2z"/>
<path fill="#000000" stroke="none" d="M95 121 c-3 -5 -1 -12 4 -15 5 -3 11 1
15 9 6 16 -9 21 -19 6z"/>
<path fill="#000000" stroke="none" d="M150 91 c0 -6 4 -12 8 -15 5 -3 9 1 9
9 0 8 -4 15 -9 15 -4 0 -8 -4 -8 -9z"/>
</g>
</svg>
