<?xml version="1.0" standalone="no"?>
<!DOCTYPE svg PUBLIC "-//W3C//DTD SVG 20010904//EN"
 "http://www.w3.org/TR/2001/REC-SVG-20010904/DTD/svg10.dtd">
<svg version="1.0" xmlns="http://www.w3.org/2000/svg"
 width="32.000000pt" height="32.000000pt" viewBox="0 0 32.000000 32.000000"
 preserveAspectRatio="xMidYMid meet">
<metadata>
Created by potrace 1.16, written by Peter Selinger 2001-2019
</metadata>
<g transform="translate(0.000000,32.000000) scale(0.100000,-0.100000)"
fill="#000000" stroke="none">
<path fill="#000000" stroke="none" d="M109 235 c-1 -3 -2 -13 -3 -22 -1 -10
-5 -23 -9 -30 -4 -6 -3 -15 3 -18 6 -4 9 -1 8 6 -2 6 3 14 11 17 11 4 13 -3 7
-29 -3 -19 -11 -35 -16 -37 -6 -2 -10 -8 -10 -14 0 -6 8 -4 18 5 23 21 32 13
32 -25 0 -15 5 -28 10 -28 6 0 10 13 10 28 0 40 11 47 32 20 14 -18 18 -20 18
-6 0 9 -5 18 -10 20 -14 4 -18 57 -5 56 6 0 9 -4 7 -10 -1 -5 2 -7 8 -3 6 3 7
12 3 18 -4 7 -8 21 -8 32 0 12 -8 21 -20 24 l-20 3 20 -23 c11 -13 13 -19 5
-13 -17 12 -59 12 -81 -1 -8 -5 -6 1 5 13 17 19 17 22 3 22 -10 0 -18 -2 -18
-5z"/>
</g>
</svg>
