<?xml version="1.0" standalone="no"?>
<!DOCTYPE svg PUBLIC "-//W3C//DTD SVG 20010904//EN"
 "http://www.w3.org/TR/2001/REC-SVG-20010904/DTD/svg10.dtd">
<svg version="1.0" xmlns="http://www.w3.org/2000/svg"
 width="32.000000pt" height="32.000000pt" viewBox="0 0 32.000000 32.000000"
 preserveAspectRatio="xMidYMid meet">
<metadata>
Created by potrace 1.16, written by Peter Selinger 2001-2019
</metadata>
<g transform="translate(0.000000,32.000000) scale(0.100000,-0.100000)"
fill="#000000" stroke="none">
<path fill="#000000" stroke="none" d="M0 160 l0 -160 160 0 160 0 0 160 0
160 -160 0 -160 0 0 -160z"/>
<path fill="#ffffff" stroke="none" d="M146 223 c13 -17 15 -17 29 1 9 11 20
16 31 12 9 -4 14 -9 11 -13 -4 -3 -2 -14 4 -25 12 -22 1 -47 -12 -27 -17 28
-23 -4 -6 -32 22 -40 22 -56 -1 -36 -22 20 -32 13 -32 -20 0 -13 -4 -23 -10
-23 -5 0 -10 11 -10 24 0 32 -14 40 -34 20 -21 -20 -21 3 -1 30 8 11 15 29 15
40 -1 20 -1 20 -14 3 -18 -23 -31 -5 -16 23 6 11 8 20 5 20 -4 0 -3 5 0 10 9
15 26 12 41 -7z"/>
</g>
</svg>
