<?xml version="1.0" standalone="no"?>
<!DOCTYPE svg PUBLIC "-//W3C//DTD SVG 20010904//EN"
 "http://www.w3.org/TR/2001/REC-SVG-20010904/DTD/svg10.dtd">
<svg version="1.0" xmlns="http://www.w3.org/2000/svg"
 width="32.000000pt" height="32.000000pt" viewBox="0 0 32.000000 32.000000"
 preserveAspectRatio="xMidYMid meet">
<metadata>
Created by potrace 1.16, written by Peter Selinger 2001-2019
</metadata>
<g transform="translate(0.000000,32.000000) scale(0.100000,-0.100000)"
fill="#000000" stroke="none">
<path fill="#000000" stroke="none" d="M101 226 c-9 -11 -9 -16 0 -22 7 -4 9
-3 5 4 -3 6 2 15 11 21 10 6 13 11 7 11 -6 0 -17 -6 -23 -14z"/>
<path fill="#000000" stroke="none" d="M200 236 c0 -2 8 -10 18 -17 15 -13 16
-12 3 4 -13 16 -21 21 -21 13z"/>
<path fill="#000000" stroke="none" d="M131 196 c2 -9 7 -17 12 -17 4 1 16 1
27 1 21 0 29 16 8 17 -7 0 -21 4 -32 8 -14 6 -17 4 -15 -9z"/>
<path fill="#000000" stroke="none" d="M142 125 c15 -16 20 -17 30 -6 11 11
10 13 0 7 -7 -4 -21 -2 -30 5 -15 12 -15 11 0 -6z"/>
</g>
</svg>
