<?xml version="1.0" standalone="no"?>
<!DOCTYPE svg PUBLIC "-//W3C//DTD SVG 20010904//EN"
 "http://www.w3.org/TR/2001/REC-SVG-20010904/DTD/svg10.dtd">
<svg version="1.0" xmlns="http://www.w3.org/2000/svg"
 width="32.000000pt" height="32.000000pt" viewBox="0 0 32.000000 32.000000"
 preserveAspectRatio="xMidYMid meet">
<metadata>
Created by potrace 1.16, written by Peter Selinger 2001-2019
</metadata>
<g transform="translate(0.000000,32.000000) scale(0.100000,-0.100000)"
fill="#000000" stroke="none">
<path fill="#000000" stroke="none" d="M190 226 c0 -4 7 -14 15 -22 8 -9 15
-11 15 -6 0 5 -7 15 -15 22 -8 7 -15 9 -15 6z"/>
<path fill="#000000" stroke="none" d="M157 206 c-22 -17 -22 -21 5 -23 16 -2
19 0 9 6 -11 7 -11 9 0 13 8 3 12 8 9 11 -3 3 -13 0 -23 -7z"/>
<path fill="#000000" stroke="none" d="M92 185 c-17 -37 -14 -45 4 -12 9 16
14 31 11 33 -2 2 -9 -7 -15 -21z"/>
<path fill="#000000" stroke="none" d="M132 133 c-21 -55 -32 -96 -25 -89 9 9
43 109 39 114 -2 1 -8 -10 -14 -25z"/>
<path fill="#000000" stroke="none" d="M145 100 c-4 -17 -5 -34 -2 -36 2 -3 7
10 11 27 8 42 0 50 -9 9z"/>
<path fill="#000000" stroke="none" d="M171 105 c1 -19 18 -51 18 -35 0 8 -4
22 -9 30 -5 8 -9 11 -9 5z"/>
</g>
</svg>
