<?xml version="1.0" standalone="no"?>
<!DOCTYPE svg PUBLIC "-//W3C//DTD SVG 20010904//EN"
 "http://www.w3.org/TR/2001/REC-SVG-20010904/DTD/svg10.dtd">
<svg version="1.0" xmlns="http://www.w3.org/2000/svg"
 width="32.000000pt" height="32.000000pt" viewBox="0 0 32.000000 32.000000"
 preserveAspectRatio="xMidYMid meet">
<metadata>
Created by potrace 1.16, written by Peter Selinger 2001-2019
</metadata>
<g transform="translate(0.000000,32.000000) scale(0.100000,-0.100000)"
fill="#000000" stroke="none">
<path fill="#000000" stroke="none" d="M83 247 c-13 -21 -11 -36 5 -49 15 -11
15 -11 6 2 -17 25 -11 45 14 42 27 -4 29 4 2 11 -11 3 -23 0 -27 -6z"/>
<path fill="#000000" stroke="none" d="M205 249 c-18 -8 -17 -8 5 -6 27 2 34
-17 16 -43 -9 -13 -9 -13 6 -2 30 24 8 66 -27 51z"/>
<path fill="#000000" stroke="none" d="M121 159 c0 -14 -4 -29 -8 -33 -4 -3
-8 -16 -10 -28 -4 -23 7 -20 11 4 2 7 6 21 10 30 4 9 6 25 3 35 -3 12 -5 10
-6 -8z"/>
<path fill="#000000" stroke="none" d="M191 158 c0 -15 4 -30 9 -33 6 -4 8
-10 6 -14 -3 -4 0 -13 5 -21 7 -12 8 -11 6 5 -2 11 -7 27 -10 35 -3 8 -8 24
-10 35 -4 15 -5 13 -6 -7z"/>
<path fill="#000000" stroke="none" d="M148 73 c7 -3 16 -2 19 1 4 3 -2 6 -13
5 -11 0 -14 -3 -6 -6z"/>
</g>
</svg>
