<?xml version="1.0" standalone="no"?>
<!DOCTYPE svg PUBLIC "-//W3C//DTD SVG 20010904//EN"
 "http://www.w3.org/TR/2001/REC-SVG-20010904/DTD/svg10.dtd">
<svg version="1.0" xmlns="http://www.w3.org/2000/svg"
 width="32.000000pt" height="32.000000pt" viewBox="0 0 32.000000 32.000000"
 preserveAspectRatio="xMidYMid meet">
<metadata>
Created by potrace 1.16, written by Peter Selinger 2001-2019
</metadata>
<g transform="translate(0.000000,32.000000) scale(0.100000,-0.100000)"
fill="#000000" stroke="none">
<path fill="#000000" stroke="none" d="M83 247 c-12 -15 -10 -26 5 -55 7 -12
17 -20 23 -17 5 4 9 -5 9 -19 0 -14 -4 -27 -9 -30 -4 -3 -8 -16 -7 -28 1 -21
6 -23 56 -23 50 0 55 2 56 23 1 12 -3 25 -7 28 -5 3 -9 16 -9 30 0 14 4 23 9
19 6 -3 16 5 23 17 32 58 -3 84 -54 40 -16 -13 -20 -13 -35 0 -27 22 -50 28
-60 15z"/>
<path fill="#ffffff" stroke="none" d="M133 205 c-3 -9 -8 -14 -10 -11 -3 3
-2 9 2 15 9 16 15 13 8 -4z"/>
<path fill="#ffffff" stroke="none" d="M196 191 c-4 -6 -13 -11 -19 -11 -8 0
-7 3 2 9 8 5 10 14 6 22 -6 11 -5 11 5 2 7 -6 9 -16 6 -22z"/>
</g>
</svg>
