<?xml version="1.0" standalone="no"?>
<!DOCTYPE svg PUBLIC "-//W3C//DTD SVG 20010904//EN"
 "http://www.w3.org/TR/2001/REC-SVG-20010904/DTD/svg10.dtd">
<svg version="1.0" xmlns="http://www.w3.org/2000/svg"
 width="32.000000pt" height="32.000000pt" viewBox="0 0 32.000000 32.000000"
 preserveAspectRatio="xMidYMid meet">
<metadata>
Created by potrace 1.16, written by Peter Selinger 2001-2019
</metadata>
<g transform="translate(0.000000,32.000000) scale(0.100000,-0.100000)"
fill="#000000" stroke="none">
<path fill="#000000" stroke="none" d="M100 198 c-11 -18 -20 -42 -20 -52 0
-16 5 -13 25 14 17 23 25 28 25 17 0 -24 15 -21 27 6 9 19 8 26 -8 35 -26 16
-27 16 -49 -20z"/>
<path fill="#000000" stroke="none" d="M194 213 c2 -24 29 -83 38 -83 15 0 8
33 -13 66 -24 39 -27 41 -25 17z"/>
<path fill="#000000" stroke="none" d="M166 125 c-3 -8 -12 -15 -20 -15 -19 0
-31 -39 -17 -53 6 -6 11 -7 11 -2 0 6 5 3 10 -5 7 -12 11 -10 19 10 l10 25 0
-23 c1 -13 5 -20 11 -17 14 9 12 57 -4 78 -12 15 -14 16 -20 2z"/>
</g>
</svg>
