<?xml version="1.0" standalone="no"?>
<!DOCTYPE svg PUBLIC "-//W3C//DTD SVG 20010904//EN"
 "http://www.w3.org/TR/2001/REC-SVG-20010904/DTD/svg10.dtd">
<svg version="1.0" xmlns="http://www.w3.org/2000/svg"
 width="32.000000pt" height="32.000000pt" viewBox="0 0 32.000000 32.000000"
 preserveAspectRatio="xMidYMid meet">
<metadata>
Created by potrace 1.16, written by Peter Selinger 2001-2019
</metadata>
<g transform="translate(0.000000,32.000000) scale(0.100000,-0.100000)"
fill="#000000" stroke="none">
<path fill="#000000" stroke="none" d="M0 160 l0 -160 160 0 160 0 0 160 0
160 -160 0 -160 0 0 -160z"/>
<path fill="#ffffff" stroke="none" d="M149 218 c16 -9 17 -16 8 -35 -12 -27
-27 -30 -27 -6 0 11 -8 6 -25 -17 -20 -27 -25 -30 -25 -14 0 19 35 84 45 84 3
0 14 -5 24 -12z"/>
<path fill="#ffffff" stroke="none" d="M219 196 c21 -33 28 -66 13 -66 -9 0
-36 59 -38 83 -2 24 1 22 25 -17z"/>
<path fill="#ffffff" stroke="none" d="M200 78 c0 -15 -4 -30 -10 -33 -6 -3
-10 4 -11 17 l0 23 -10 -25 c-8 -20 -12 -22 -19 -10 -5 8 -10 11 -10 5 0 -5
-5 -4 -11 2 -14 14 -2 53 17 53 8 0 17 7 20 15 6 14 8 13 20 -2 7 -10 14 -30
14 -45z"/>
</g>
</svg>
