<?xml version="1.0" standalone="no"?>
<!DOCTYPE svg PUBLIC "-//W3C//DTD SVG 20010904//EN"
 "http://www.w3.org/TR/2001/REC-SVG-20010904/DTD/svg10.dtd">
<svg version="1.0" xmlns="http://www.w3.org/2000/svg"
 width="32.000000pt" height="32.000000pt" viewBox="0 0 32.000000 32.000000"
 preserveAspectRatio="xMidYMid meet">
<metadata>
Created by potrace 1.16, written by Peter Selinger 2001-2019
</metadata>
<g transform="translate(0.000000,32.000000) scale(0.100000,-0.100000)"
fill="#000000" stroke="none">
<path fill="#000000" stroke="none" d="M100 198 c-21 -34 -26 -68 -12 -68 5 0
15 12 22 28 11 22 14 24 17 10 7 -27 18 -22 36 17 22 46 22 45 -13 45 -23 0
-35 -7 -50 -32z"/>
<path fill="#000000" stroke="none" d="M181 198 c-12 -33 -6 -52 9 -28 7 11
11 8 21 -13 14 -31 29 -36 29 -9 0 16 -35 82 -44 82 -2 0 -9 -14 -15 -32z"/>
<path fill="#000000" stroke="none" d="M160 135 c0 -8 -8 -15 -19 -15 -14 0
-21 -10 -26 -36 -3 -20 -3 -39 0 -42 8 -9 82 -8 91 0 11 12 -17 108 -32 108
-8 0 -14 -7 -14 -15z"/>
</g>
</svg>
