<?xml version="1.0" standalone="no"?>
<!DOCTYPE svg PUBLIC "-//W3C//DTD SVG 20010904//EN"
 "http://www.w3.org/TR/2001/REC-SVG-20010904/DTD/svg10.dtd">
<svg version="1.0" xmlns="http://www.w3.org/2000/svg"
 width="32.000000pt" height="32.000000pt" viewBox="0 0 32.000000 32.000000"
 preserveAspectRatio="xMidYMid meet">
<metadata>
Created by potrace 1.16, written by Peter Selinger 2001-2019
</metadata>
<g transform="translate(0.000000,32.000000) scale(0.100000,-0.100000)"
fill="#000000" stroke="none">
<path fill="#000000" stroke="none" d="M146 223 c12 -12 16 -12 28 0 12 12 10
14 -14 14 -24 0 -26 -2 -14 -14z"/>
<path fill="#000000" stroke="none" d="M105 211 c-6 -11 13 -26 22 -17 4 3 1
6 -6 6 -7 0 -9 5 -6 10 3 6 4 10 1 10 -3 0 -7 -4 -11 -9z"/>
<path fill="#000000" stroke="none" d="M196 205 c-3 -8 -1 -15 4 -15 13 0 22
18 11 24 -5 3 -11 -1 -15 -9z"/>
<path fill="#000000" stroke="none" d="M149 193 c-1 -4 -1 -11 0 -15 0 -5 -3
-8 -8 -8 -6 0 -8 -9 -6 -20 2 -11 0 -20 -4 -20 -4 0 -8 -7 -8 -15 0 -13 3 -13
18 1 16 15 17 14 12 -5 -3 -12 -15 -28 -26 -36 -12 -8 -17 -15 -13 -15 5 0 18
7 28 17 17 15 19 15 36 0 10 -10 23 -17 28 -17 4 0 -2 7 -14 16 -26 18 -29 44
-4 44 10 1 5 6 -13 14 l-30 13 24 7 c16 6 20 11 11 16 -6 4 -11 11 -10 16 1 5
-3 10 -9 12 -6 2 -12 0 -12 -5z"/>
</g>
</svg>
