<?xml version="1.0" standalone="no"?>
<!DOCTYPE svg PUBLIC "-//W3C//DTD SVG 20010904//EN"
 "http://www.w3.org/TR/2001/REC-SVG-20010904/DTD/svg10.dtd">
<svg version="1.0" xmlns="http://www.w3.org/2000/svg"
 width="32.000000pt" height="32.000000pt" viewBox="0 0 32.000000 32.000000"
 preserveAspectRatio="xMidYMid meet">
<metadata>
Created by potrace 1.16, written by Peter Selinger 2001-2019
</metadata>
<g transform="translate(0.000000,32.000000) scale(0.100000,-0.100000)"
fill="#000000" stroke="none">
<path fill="#000000" stroke="none" d="M117 221 c-20 -22 -37 -57 -37 -73 1
-7 9 -2 21 11 11 13 18 29 16 36 -3 6 5 11 18 11 13 0 21 -4 19 -8 -3 -5 -10
-6 -15 -3 -15 10 -10 -22 6 -35 12 -10 18 -10 30 0 18 15 20 44 3 34 -7 -4 -9
-3 -5 1 10 12 39 16 32 5 -7 -11 15 -60 27 -60 13 0 9 27 -7 43 -8 8 -12 17
-9 19 2 3 -3 11 -12 19 -24 19 -70 20 -87 0z"/>
</g>
</svg>
