<?xml version="1.0" standalone="no"?>
<!DOCTYPE svg PUBLIC "-//W3C//DTD SVG 20010904//EN"
 "http://www.w3.org/TR/2001/REC-SVG-20010904/DTD/svg10.dtd">
<svg version="1.0" xmlns="http://www.w3.org/2000/svg"
 width="32.000000pt" height="32.000000pt" viewBox="0 0 32.000000 32.000000"
 preserveAspectRatio="xMidYMid meet">
<metadata>
Created by potrace 1.16, written by Peter Selinger 2001-2019
</metadata>
<g transform="translate(0.000000,32.000000) scale(0.100000,-0.100000)"
fill="#000000" stroke="none">
<path fill="#000000" stroke="none" d="M101 203 c-13 -29 -14 -43 -2 -43 5 0
13 10 17 22 6 19 7 19 16 5 5 -10 7 -20 4 -25 -2 -4 9 -7 24 -7 15 0 26 3 24
7 -3 5 -1 15 4 25 9 14 10 14 16 -5 4 -12 12 -22 17 -22 12 0 11 14 -2 43 -10
21 -18 25 -59 25 -41 0 -49 -4 -59 -25z"/>
</g>
</svg>
