<?xml version="1.0" standalone="no"?>
<!DOCTYPE svg PUBLIC "-//W3C//DTD SVG 20010904//EN"
 "http://www.w3.org/TR/2001/REC-SVG-20010904/DTD/svg10.dtd">
<svg version="1.0" xmlns="http://www.w3.org/2000/svg"
 width="32.000000pt" height="32.000000pt" viewBox="0 0 32.000000 32.000000"
 preserveAspectRatio="xMidYMid meet">
<metadata>
Created by potrace 1.16, written by Peter Selinger 2001-2019
</metadata>
<g transform="translate(0.000000,32.000000) scale(0.100000,-0.100000)"
fill="#000000" stroke="none">
<path fill="#000000" stroke="none" d="M101 203 c-14 -30 -14 -43 -1 -43 5 0
13 15 18 33 l8 32 7 -27 c5 -19 14 -28 27 -28 13 0 22 9 27 28 l7 27 8 -32 c5
-18 13 -33 18 -33 13 0 13 13 -1 43 -10 21 -18 25 -59 25 -41 0 -49 -4 -59
-25z"/>
</g>
</svg>
