<?xml version="1.0" standalone="no"?>
<!DOCTYPE svg PUBLIC "-//W3C//DTD SVG 20010904//EN"
 "http://www.w3.org/TR/2001/REC-SVG-20010904/DTD/svg10.dtd">
<svg version="1.0" xmlns="http://www.w3.org/2000/svg"
 width="32.000000pt" height="32.000000pt" viewBox="0 0 32.000000 32.000000"
 preserveAspectRatio="xMidYMid meet">
<metadata>
Created by potrace 1.16, written by Peter Selinger 2001-2019
</metadata>
<g transform="translate(0.000000,32.000000) scale(0.100000,-0.100000)"
fill="#000000" stroke="none">
<path fill="#000000" stroke="none" d="M109 232 c-1 -4 -1 -11 0 -15 1 -4 -5
-10 -13 -13 -8 -3 -12 -13 -9 -25 8 -28 19 -23 30 14 l10 32 8 -27 c4 -17 14
-28 25 -28 11 0 21 11 25 28 l8 27 10 -32 c11 -37 22 -42 30 -14 3 12 -1 22
-9 25 -8 3 -14 9 -13 13 3 19 -3 22 -26 13 -16 -6 -34 -6 -50 0 -14 5 -26 6
-26 2z"/>
</g>
</svg>
