<?xml version="1.0" standalone="no"?>
<!DOCTYPE svg PUBLIC "-//W3C//DTD SVG 20010904//EN"
 "http://www.w3.org/TR/2001/REC-SVG-20010904/DTD/svg10.dtd">
<svg version="1.0" xmlns="http://www.w3.org/2000/svg"
 width="32.000000pt" height="32.000000pt" viewBox="0 0 32.000000 32.000000"
 preserveAspectRatio="xMidYMid meet">
<metadata>
Created by potrace 1.16, written by Peter Selinger 2001-2019
</metadata>
<g transform="translate(0.000000,32.000000) scale(0.100000,-0.100000)"
fill="#000000" stroke="none">
<path fill="#000000" stroke="none" d="M0 160 l0 -160 160 0 160 0 0 160 0
160 -160 0 -160 0 0 -160z"/>
<path fill="#ffffff" stroke="none" d="M171 226 c15 9 10 -23 -5 -35 -12 -10
-17 -8 -26 8 -6 12 -18 21 -26 21 -8 0 -13 4 -9 10 4 6 15 6 31 0 14 -6 30 -8
35 -4z"/>
<path fill="#ffffff" stroke="none" d="M215 230 c3 -5 -1 -10 -10 -10 -9 0
-13 5 -10 10 3 6 8 10 10 10 2 0 7 -4 10 -10z"/>
<path fill="#ffffff" stroke="none" d="M107 183 c-3 -3 -11 -2 -17 2 -9 6 -9
10 1 16 14 8 27 -7 16 -18z"/>
<path fill="#ffffff" stroke="none" d="M228 197 c13 5 14 3 5 -7 -13 -14 -33
-5 -32 13 0 9 2 9 5 0 3 -7 13 -9 22 -6z"/>
</g>
</svg>
