<?xml version="1.0" standalone="no"?>
<!DOCTYPE svg PUBLIC "-//W3C//DTD SVG 20010904//EN"
 "http://www.w3.org/TR/2001/REC-SVG-20010904/DTD/svg10.dtd">
<svg version="1.0" xmlns="http://www.w3.org/2000/svg"
 width="32.000000pt" height="32.000000pt" viewBox="0 0 32.000000 32.000000"
 preserveAspectRatio="xMidYMid meet">
<metadata>
Created by potrace 1.16, written by Peter Selinger 2001-2019
</metadata>
<g transform="translate(0.000000,32.000000) scale(0.100000,-0.100000)"
fill="#000000" stroke="none">
<path fill="#000000" stroke="none" d="M110 230 c-7 -5 -15 -14 -16 -22 -1 -7
-5 -21 -9 -30 -11 -28 3 -21 19 10 l15 27 1 -27 c0 -26 3 -28 40 -28 37 0 40
2 40 28 l1 27 15 -27 c16 -31 30 -38 19 -10 -4 9 -8 22 -9 29 -1 7 -5 16 -9
20 -11 10 -91 13 -107 3z"/>
<path fill="#000000" stroke="none" d="M115 114 c-4 -26 -2 -39 7 -45 24 -15
28 -10 28 36 0 57 -24 63 -35 9z"/>
<path fill="#000000" stroke="none" d="M160 105 c0 -45 10 -54 38 -36 21 13 5
81 -19 81 -16 0 -19 -8 -19 -45z"/>
</g>
</svg>
