<?xml version="1.0" standalone="no"?>
<!DOCTYPE svg PUBLIC "-//W3C//DTD SVG 20010904//EN"
 "http://www.w3.org/TR/2001/REC-SVG-20010904/DTD/svg10.dtd">
<svg version="1.0" xmlns="http://www.w3.org/2000/svg"
 width="32.000000pt" height="32.000000pt" viewBox="0 0 32.000000 32.000000"
 preserveAspectRatio="xMidYMid meet">
<metadata>
Created by potrace 1.16, written by Peter Selinger 2001-2019
</metadata>
<g transform="translate(0.000000,32.000000) scale(0.100000,-0.100000)"
fill="#000000" stroke="none">
<path fill="#000000" stroke="none" d="M0 160 l0 -160 160 0 160 0 0 160 0
160 -160 0 -160 0 0 -160z"/>
<path fill="#ffffff" stroke="none" d="M213 223 c-3 -7 1 -13 8 -13 7 0 9 -3
6 -6 -3 -4 -2 -15 3 -25 7 -12 6 -20 -1 -24 -6 -4 -13 3 -17 16 -6 21 -7 20
-12 -11 -5 -32 -8 -35 -40 -35 -32 0 -35 3 -40 35 -5 31 -6 32 -12 11 -4 -13
-11 -20 -17 -16 -7 4 -8 12 -1 24 5 10 6 21 3 25 -3 3 -1 6 6 6 7 0 11 6 8 13
-3 9 11 12 53 12 42 0 56 -3 53 -12z"/>
</g>
</svg>
