<?xml version="1.0" standalone="no"?>
<!DOCTYPE svg PUBLIC "-//W3C//DTD SVG 20010904//EN"
 "http://www.w3.org/TR/2001/REC-SVG-20010904/DTD/svg10.dtd">
<svg version="1.0" xmlns="http://www.w3.org/2000/svg"
 width="32.000000pt" height="32.000000pt" viewBox="0 0 32.000000 32.000000"
 preserveAspectRatio="xMidYMid meet">
<metadata>
Created by potrace 1.16, written by Peter Selinger 2001-2019
</metadata>
<g transform="translate(0.000000,32.000000) scale(0.100000,-0.100000)"
fill="#000000" stroke="none">
<path fill="#000000" stroke="none" d="M121 226 c-8 -10 -9 -15 -1 -18 6 -2
13 -12 15 -23 6 -32 6 -32 16 0 11 37 -10 66 -30 41z"/>
<path fill="#000000" stroke="none" d="M170 215 c-6 -16 -8 -36 -4 -44 5 -13
8 -12 15 7 5 13 13 21 18 18 13 -8 7 22 -7 36 -8 8 -14 4 -22 -17z"/>
<path fill="#000000" stroke="none" d="M147 116 c4 -17 3 -18 -6 -6 -9 13 -11
13 -11 -2 0 -13 8 -18 30 -18 29 0 38 13 22 36 -13 20 -40 12 -35 -10z"/>
<path fill="#ffffff" stroke="none" d="M167 108 c-3 -8 -6 -5 -6 6 -1 11 2 17
5 13 3 -3 4 -12 1 -19z"/>
</g>
</svg>
