<?xml version="1.0" standalone="no"?>
<!DOCTYPE svg PUBLIC "-//W3C//DTD SVG 20010904//EN"
 "http://www.w3.org/TR/2001/REC-SVG-20010904/DTD/svg10.dtd">
<svg version="1.0" xmlns="http://www.w3.org/2000/svg"
 width="24.000000pt" height="30.000000pt" viewBox="0 0 24.000000 30.000000"
 preserveAspectRatio="xMidYMid meet">
<metadata>
Created by potrace 1.16, written by Peter Selinger 2001-2019
</metadata>
<g transform="translate(0.000000,30.000000) scale(0.100000,-0.100000)"
fill="#000000" stroke="none">
<path fill="#000000" stroke="none" d="M83 223 c-7 -2 -13 -9 -13 -14 0 -14
-33 -49 -47 -49 -19 0 -24 -17 -8 -30 13 -11 14 -10 9 4 -3 9 -1 17 5 17 6 1
16 3 21 4 6 1 16 3 23 4 8 1 7 4 -3 11 -12 8 -11 10 7 10 12 0 25 -5 29 -12 5
-7 3 -8 -7 -3 -12 7 -12 6 -1 -7 10 -13 10 -19 -3 -31 -20 -21 -19 -27 5 -22
12 2 23 -2 26 -9 3 -8 14 -16 26 -19 19 -5 19 -5 1 15 -10 12 -12 18 -5 14 6
-4 12 -2 12 3 0 6 -5 11 -10 11 -6 0 -9 14 -8 30 2 23 7 30 23 30 16 0 17 -2
5 -10 -10 -7 -11 -10 -2 -11 6 -1 17 -3 22 -4 6 -1 15 -3 21 -4 6 0 8 -8 5
-17 -5 -14 -4 -15 9 -4 16 13 11 30 -8 30 -14 0 -47 35 -47 49 0 5 -7 12 -16
15 -8 3 -13 2 -10 -3 8 -12 -20 -22 -39 -15 -8 4 -12 10 -9 15 6 10 5 10 -13
2z"/>
<path fill="#000000" stroke="none" d="M81 86 c-10 -12 -8 -13 8 -9 12 3 18 9
15 14 -7 12 -10 11 -23 -5z"/>
<path fill="#000000" stroke="none" d="M66 35 c-9 -14 -12 -25 -7 -25 5 0 16
11 25 25 9 14 12 25 7 25 -5 0 -16 -11 -25 -25z"/>
<path fill="#000000" stroke="none" d="M156 35 c9 -14 20 -25 25 -25 5 0 2 11
-7 25 -9 14 -20 25 -25 25 -5 0 -2 -11 7 -25z"/>
</g>
</svg>
