<?xml version="1.0" standalone="no"?>
<!DOCTYPE svg PUBLIC "-//W3C//DTD SVG 20010904//EN"
 "http://www.w3.org/TR/2001/REC-SVG-20010904/DTD/svg10.dtd">
<svg version="1.0" xmlns="http://www.w3.org/2000/svg"
 width="24.000000pt" height="30.000000pt" viewBox="0 0 24.000000 30.000000"
 preserveAspectRatio="xMidYMid meet">
<metadata>
Created by potrace 1.16, written by Peter Selinger 2001-2019
</metadata>
<g transform="translate(0.000000,30.000000) scale(0.100000,-0.100000)"
fill="#000000" stroke="none">
<path fill="#000000" stroke="none" d="M0 150 l0 -150 120 0 120 0 0 150 0
150 -120 0 -120 0 0 -150z"/>
<path fill="#ffffff" stroke="none" d="M88 208 c-4 -15 22 -18 41 -4 12 9 13
8 7 -3 -6 -9 -5 -12 5 -9 8 3 13 12 11 19 -2 8 0 10 4 6 10 -10 14 -37 6 -36
-20 3 -32 -2 -27 -10 11 -19 -13 -20 -30 -1 -10 11 -21 17 -25 15 -7 -4 -7 13
-1 33 3 8 11 0 9 -10z"/>
<path fill="#ffffff" stroke="none" d="M144 108 c-7 -10 -24 -10 -24 0 0 5 7
9 15 9 8 0 12 -4 9 -9z"/>
<path fill="#ffffff" stroke="none" d="M168 35 c12 -14 18 -25 13 -25 -5 0
-16 11 -25 25 -21 32 -16 32 12 0z"/>
<path fill="#ffffff" stroke="none" d="M75 21 c-3 -6 -11 -11 -16 -11 -5 0 -4
6 3 14 14 16 24 13 13 -3z"/>
<path fill="#000000" stroke="none" d="M100 185 c0 -2 6 -8 13 -14 10 -8 14
-7 14 2 0 8 -6 14 -14 14 -7 0 -13 -1 -13 -2z"/>
</g>
</svg>
