<?xml version="1.0" standalone="no"?>
<!DOCTYPE svg PUBLIC "-//W3C//DTD SVG 20010904//EN"
 "http://www.w3.org/TR/2001/REC-SVG-20010904/DTD/svg10.dtd">
<svg version="1.0" xmlns="http://www.w3.org/2000/svg"
 width="32.000000pt" height="32.000000pt" viewBox="0 0 32.000000 32.000000"
 preserveAspectRatio="xMidYMid meet">
<metadata>
Created by potrace 1.16, written by Peter Selinger 2001-2019
</metadata>
<g transform="translate(0.000000,32.000000) scale(0.100000,-0.100000)"
fill="#000000" stroke="none">
<path fill="#000000" stroke="none" d="M123 176 c1 -35 4 -51 8 -39 7 17 8 17
8 -2 1 -17 3 -17 11 -5 9 13 10 13 11 0 0 -10 3 -8 9 5 l9 20 1 -20 c2 -11 6
2 11 30 5 30 4 54 -1 59 -7 7 -10 6 -10 -1 0 -13 -42 -12 -52 1 -4 6 -6 -16
-5 -48z"/>
</g>
</svg>
