<?xml version="1.0" standalone="no"?>
<!DOCTYPE svg PUBLIC "-//W3C//DTD SVG 20010904//EN"
 "http://www.w3.org/TR/2001/REC-SVG-20010904/DTD/svg10.dtd">
<svg version="1.0" xmlns="http://www.w3.org/2000/svg"
 width="32.000000pt" height="32.000000pt" viewBox="0 0 32.000000 32.000000"
 preserveAspectRatio="xMidYMid meet">
<metadata>
Created by potrace 1.16, written by Peter Selinger 2001-2019
</metadata>
<g transform="translate(0.000000,32.000000) scale(0.100000,-0.100000)"
fill="#000000" stroke="none">
<path fill="#000000" stroke="none" d="M0 160 l0 -160 160 0 160 0 0 160 0
160 -160 0 -160 0 0 -160z"/>
<path fill="#ffffff" stroke="none" d="M171 216 c1 5 0 14 -1 19 -1 5 2 6 6 2
11 -11 13 -107 2 -113 -5 -3 -6 -9 -3 -14 3 -4 -2 -13 -10 -20 -8 -7 -15 -10
-15 -6 0 15 -2 22 -10 31 -4 6 -7 36 -6 67 1 54 2 56 18 41 10 -9 19 -12 19
-7z"/>
<path fill="#000000" stroke="none" d="M169 205 c-1 -3 -2 -11 -3 -17 -1 -7
-8 -11 -16 -10 -8 2 -11 0 -7 -4 17 -17 33 -11 33 12 0 22 -4 32 -7 19z"/>
<path fill="#000000" stroke="none" d="M145 131 c2 -9 4 -18 5 -21 1 -3 1 -9
0 -15 -1 -5 2 -6 7 -2 4 5 8 12 8 15 0 4 4 13 8 20 5 6 7 12 5 13 -29 7 -36 5
-33 -10z"/>
</g>
</svg>
