<?xml version="1.0" standalone="no"?>
<!DOCTYPE svg PUBLIC "-//W3C//DTD SVG 20010904//EN"
 "http://www.w3.org/TR/2001/REC-SVG-20010904/DTD/svg10.dtd">
<svg version="1.0" xmlns="http://www.w3.org/2000/svg"
 width="32.000000pt" height="32.000000pt" viewBox="0 0 32.000000 32.000000"
 preserveAspectRatio="xMidYMid meet">
<metadata>
Created by potrace 1.16, written by Peter Selinger 2001-2019
</metadata>
<g transform="translate(0.000000,32.000000) scale(0.100000,-0.100000)"
fill="#000000" stroke="none">
<path fill="#000000" stroke="none" d="M0 160 l0 -160 160 0 160 0 0 160 0
160 -160 0 -160 0 0 -160z"/>
<path fill="#ffffff" stroke="none" d="M185 208 c7 -7 5 -14 -6 -21 -14 -9
-14 -12 3 -29 10 -10 18 -23 18 -30 0 -6 -3 -8 -7 -5 -3 4 -14 0 -23 -8 -16
-14 -18 -14 -24 0 -3 9 -10 13 -16 10 -14 -9 -12 7 4 31 12 17 12 22 0 39 -9
12 -14 14 -14 5 0 -7 -3 -11 -6 -7 -4 3 -4 13 0 22 6 17 51 12 71 -7z"/>
<path fill="#ffffff" stroke="none" d="M215 220 c3 -5 3 -15 -1 -21 -6 -11
-23 6 -24 24 0 10 18 9 25 -3z"/>
<path fill="#ffffff" stroke="none" d="M110 170 c0 -5 -2 -10 -4 -10 -3 0 -8
5 -11 10 -3 6 -1 10 4 10 6 0 11 -4 11 -10z"/>
<path fill="#ffffff" stroke="none" d="M140 85 c0 -8 -4 -17 -10 -20 -6 -4
-10 5 -10 20 0 15 4 24 10 20 6 -3 10 -12 10 -20z"/>
<path fill="#ffffff" stroke="none" d="M200 83 c0 -20 -3 -24 -11 -16 -7 7 -9
19 -6 27 10 24 17 19 17 -11z"/>
</g>
</svg>
