<?xml version="1.0" standalone="no"?>
<!DOCTYPE svg PUBLIC "-//W3C//DTD SVG 20010904//EN"
 "http://www.w3.org/TR/2001/REC-SVG-20010904/DTD/svg10.dtd">
<svg version="1.0" xmlns="http://www.w3.org/2000/svg"
 width="32.000000pt" height="32.000000pt" viewBox="0 0 32.000000 32.000000"
 preserveAspectRatio="xMidYMid meet">
<metadata>
Created by potrace 1.16, written by Peter Selinger 2001-2019
</metadata>
<g transform="translate(0.000000,32.000000) scale(0.100000,-0.100000)"
fill="#000000" stroke="none">
<path fill="#000000" stroke="none" d="M0 160 l0 -160 160 0 160 0 0 160 0
160 -160 0 -160 0 0 -160z"/>
<path fill="#ffffff" stroke="none" d="M178 229 c13 7 23 6 30 -1 17 -17 15
-38 -4 -45 -9 -3 -13 -12 -9 -22 13 -31 15 -123 2 -118 -6 2 -14 14 -17 28 -3
13 -12 24 -20 24 -8 0 -17 -11 -20 -24 -3 -14 -11 -26 -17 -28 -13 -5 -11 87
2 118 4 10 0 19 -9 22 -19 7 -21 28 -4 45 7 7 17 8 30 1 12 -6 24 -6 36 0z"/>
<path fill="#ffffff" stroke="none" d="M115 171 c3 -5 1 -12 -4 -15 -5 -3 -11
1 -15 9 -6 16 9 21 19 6z"/>
<path fill="#ffffff" stroke="none" d="M230 170 c0 -5 -7 -10 -16 -10 -8 0
-12 5 -9 10 3 6 10 10 16 10 5 0 9 -4 9 -10z"/>
</g>
</svg>
