<?xml version="1.0" standalone="no"?>
<!DOCTYPE svg PUBLIC "-//W3C//DTD SVG 20010904//EN"
 "http://www.w3.org/TR/2001/REC-SVG-20010904/DTD/svg10.dtd">
<svg version="1.0" xmlns="http://www.w3.org/2000/svg"
 width="32.000000pt" height="32.000000pt" viewBox="0 0 32.000000 32.000000"
 preserveAspectRatio="xMidYMid meet">
<metadata>
Created by potrace 1.16, written by Peter Selinger 2001-2019
</metadata>
<g transform="translate(0.000000,32.000000) scale(0.100000,-0.100000)"
fill="#000000" stroke="none">
<path fill="#000000" stroke="none" d="M124 218 c3 -7 7 -26 10 -41 4 -15 10
-26 15 -23 7 4 7 28 2 69 -1 4 -8 7 -16 7 -8 0 -13 -6 -11 -12z"/>
<path fill="#000000" stroke="none" d="M169 228 c-1 -2 -2 -20 -3 -40 -3 -44
11 -51 20 -10 3 15 7 33 10 40 3 9 -23 19 -27 10z"/>
</g>
</svg>
