<?xml version="1.0" standalone="no"?>
<!DOCTYPE svg PUBLIC "-//W3C//DTD SVG 20010904//EN"
 "http://www.w3.org/TR/2001/REC-SVG-20010904/DTD/svg10.dtd">
<svg version="1.0" xmlns="http://www.w3.org/2000/svg"
 width="32.000000pt" height="32.000000pt" viewBox="0 0 32.000000 32.000000"
 preserveAspectRatio="xMidYMid meet">
<metadata>
Created by potrace 1.16, written by Peter Selinger 2001-2019
</metadata>
<g transform="translate(0.000000,32.000000) scale(0.100000,-0.100000)"
fill="#000000" stroke="none">
<path fill="#000000" stroke="none" d="M115 220 c-19 -20 -18 -21 3 -27 13 -3
22 -13 22 -24 0 -11 7 -19 18 -19 14 0 15 2 2 10 -13 9 -13 10 0 10 13 0 13 1
0 10 -13 9 -13 10 0 10 9 0 11 3 5 8 -5 4 -10 13 -10 21 0 23 -20 23 -40 1z"/>
<path fill="#ffffff" stroke="none" d="M149 227 c-2 -1 -13 -9 -24 -17 -19
-14 -19 -14 -6 3 7 9 18 17 24 17 6 0 8 -1 6 -3z"/>
<path fill="#000000" stroke="none" d="M187 223 c-4 -3 -7 -12 -7 -20 0 -15
26 -18 35 -3 4 6 1 9 -7 8 -7 -2 -12 3 -10 10 2 13 -1 15 -11 5z"/>
</g>
</svg>
