<?xml version="1.0" standalone="no"?>
<!DOCTYPE svg PUBLIC "-//W3C//DTD SVG 20010904//EN"
 "http://www.w3.org/TR/2001/REC-SVG-20010904/DTD/svg10.dtd">
<svg version="1.0" xmlns="http://www.w3.org/2000/svg"
 width="32.000000pt" height="32.000000pt" viewBox="0 0 32.000000 32.000000"
 preserveAspectRatio="xMidYMid meet">
<metadata>
Created by potrace 1.16, written by Peter Selinger 2001-2019
</metadata>
<g transform="translate(0.000000,32.000000) scale(0.100000,-0.100000)"
fill="#000000" stroke="none">
<path fill="#000000" stroke="none" d="M0 160 l0 -160 160 0 160 0 0 160 0
160 -160 0 -160 0 0 -160z"/>
<path fill="#ffffff" stroke="none" d="M173 235 c22 11 28 11 38 -1 6 -7 9
-20 6 -28 -3 -7 0 -19 6 -25 8 -8 8 -11 -1 -11 -11 0 -16 13 -13 33 2 12 -8 8
-31 -15 -18 -18 -18 -20 -3 -15 16 7 16 5 4 -10 -8 -10 -9 -14 -2 -10 14 9 37
-27 30 -46 -3 -8 -7 -5 -12 6 -7 17 -8 17 -21 0 -13 -17 -15 -17 -27 -1 -12
15 -14 15 -24 0 -10 -14 -12 -15 -12 -2 -1 9 5 24 12 35 7 11 12 26 11 33 -1
6 -2 17 -3 22 0 6 -5 10 -11 10 -5 0 -9 -3 -9 -7 3 -20 -2 -33 -13 -33 -9 0
-9 3 -1 11 6 6 9 18 6 25 -3 8 1 21 8 30 12 14 14 14 24 0 10 -13 15 -13 38
-1z"/>
</g>
</svg>
