<?xml version="1.0" standalone="no"?>
<!DOCTYPE svg PUBLIC "-//W3C//DTD SVG 20010904//EN"
 "http://www.w3.org/TR/2001/REC-SVG-20010904/DTD/svg10.dtd">
<svg version="1.0" xmlns="http://www.w3.org/2000/svg"
 width="32.000000pt" height="32.000000pt" viewBox="0 0 32.000000 32.000000"
 preserveAspectRatio="xMidYMid meet">
<metadata>
Created by potrace 1.16, written by Peter Selinger 2001-2019
</metadata>
<g transform="translate(0.000000,32.000000) scale(0.100000,-0.100000)"
fill="#000000" stroke="none">
<path fill="#000000" stroke="none" d="M106 233 c-11 -11 -6 -23 9 -23 8 0 15
4 15 9 0 13 -16 22 -24 14z"/>
<path fill="#000000" stroke="none" d="M194 226 c-8 -22 -2 -27 16 -16 12 7
12 12 3 21 -10 10 -14 9 -19 -5z"/>
<path fill="#000000" stroke="none" d="M137 209 c-6 -21 14 -36 33 -24 15 10
12 23 -9 34 -15 9 -20 7 -24 -10z"/>
<path fill="#000000" stroke="none" d="M116 112 c-4 -7 -2 -12 6 -13 7 0 4 -4
-7 -9 -15 -6 -16 -9 -4 -9 9 -1 24 9 35 21 13 16 14 19 2 10 -13 -10 -17 -10
-20 0 -3 9 -6 9 -12 0z"/>
<path fill="#000000" stroke="none" d="M182 93 c6 -7 18 -12 27 -12 12 1 11 2
-3 6 -15 4 -16 7 -5 14 10 6 8 8 -8 6 -17 -1 -19 -4 -11 -14z"/>
</g>
</svg>
