<?xml version="1.0" standalone="no"?>
<!DOCTYPE svg PUBLIC "-//W3C//DTD SVG 20010904//EN"
 "http://www.w3.org/TR/2001/REC-SVG-20010904/DTD/svg10.dtd">
<svg version="1.0" xmlns="http://www.w3.org/2000/svg"
 width="32.000000pt" height="32.000000pt" viewBox="0 0 32.000000 32.000000"
 preserveAspectRatio="xMidYMid meet">
<metadata>
Created by potrace 1.16, written by Peter Selinger 2001-2019
</metadata>
<g transform="translate(0.000000,32.000000) scale(0.100000,-0.100000)"
fill="#000000" stroke="none">
<path fill="#000000" stroke="none" d="M0 160 l0 -160 160 0 160 0 0 160 0
160 -160 0 -160 0 0 -160z"/>
<path fill="#ffffff" stroke="none" d="M219 198 c18 -31 7 -50 -13 -23 -13 18
-14 18 -20 -3 -4 -12 -2 -30 3 -41 14 -25 14 -34 1 -26 -5 3 -10 2 -10 -3 0
-14 -37 -21 -48 -10 -5 5 -7 30 -5 56 4 42 3 45 -10 30 -29 -36 -38 -9 -11 30
13 19 24 22 57 20 33 -2 44 -9 56 -30z"/>
</g>
</svg>
