<?xml version="1.0" standalone="no"?>
<!DOCTYPE svg PUBLIC "-//W3C//DTD SVG 20010904//EN"
 "http://www.w3.org/TR/2001/REC-SVG-20010904/DTD/svg10.dtd">
<svg version="1.0" xmlns="http://www.w3.org/2000/svg"
 width="32.000000pt" height="32.000000pt" viewBox="0 0 32.000000 32.000000"
 preserveAspectRatio="xMidYMid meet">
<metadata>
Created by potrace 1.16, written by Peter Selinger 2001-2019
</metadata>
<g transform="translate(0.000000,32.000000) scale(0.100000,-0.100000)"
fill="#000000" stroke="none">
<path fill="#000000" stroke="none" d="M105 230 c-8 -13 -1 -24 14 -19 6 3 7
10 2 18 -6 10 -10 10 -16 1z"/>
<path fill="#000000" stroke="none" d="M196 225 c-3 -9 0 -15 9 -15 16 0 20
16 6 24 -5 3 -11 -1 -15 -9z"/>
<path fill="#000000" stroke="none" d="M137 209 c-6 -21 7 -34 23 -24 15 9 12
32 -4 38 -8 3 -16 -2 -19 -14z"/>
<path fill="#000000" stroke="none" d="M116 112 c-4 -7 -2 -12 6 -12 9 0 9 -3
-2 -10 -8 -5 -10 -10 -4 -10 6 0 19 10 30 22 13 16 14 19 2 10 -13 -10 -17
-10 -20 0 -3 9 -6 9 -12 0z"/>
<path fill="#000000" stroke="none" d="M185 101 c-3 -5 0 -13 6 -17 7 -4 9 -3
5 4 -3 5 0 13 6 15 9 4 10 6 1 6 -6 1 -14 -3 -18 -8z"/>
</g>
</svg>
