<?xml version="1.0" standalone="no"?>
<!DOCTYPE svg PUBLIC "-//W3C//DTD SVG 20010904//EN"
 "http://www.w3.org/TR/2001/REC-SVG-20010904/DTD/svg10.dtd">
<svg version="1.0" xmlns="http://www.w3.org/2000/svg"
 width="32.000000pt" height="32.000000pt" viewBox="0 0 32.000000 32.000000"
 preserveAspectRatio="xMidYMid meet">
<metadata>
Created by potrace 1.16, written by Peter Selinger 2001-2019
</metadata>
<g transform="translate(0.000000,32.000000) scale(0.100000,-0.100000)"
fill="#000000" stroke="none">
<path fill="#000000" stroke="none" d="M0 160 l0 -160 160 0 160 0 0 160 0
160 -160 0 -160 0 0 -160z"/>
<path fill="#ffffff" stroke="none" d="M224 208 c15 -19 21 -38 18 -54 -5 -28
-17 -31 -32 -6 -8 13 -10 7 -8 -30 2 -27 1 -48 -1 -48 -2 0 -13 7 -23 17 -17
15 -19 15 -36 0 -10 -10 -21 -17 -23 -17 -2 0 -3 21 -1 47 2 38 0 44 -8 31
-15 -25 -27 -22 -32 6 -3 16 3 35 18 54 19 24 31 29 64 29 33 0 45 -5 64 -29z"/>
</g>
</svg>
