<?xml version="1.0" standalone="no"?>
<!DOCTYPE svg PUBLIC "-//W3C//DTD SVG 20010904//EN"
 "http://www.w3.org/TR/2001/REC-SVG-20010904/DTD/svg10.dtd">
<svg version="1.0" xmlns="http://www.w3.org/2000/svg"
 width="32.000000pt" height="32.000000pt" viewBox="0 0 32.000000 32.000000"
 preserveAspectRatio="xMidYMid meet">
<metadata>
Created by potrace 1.16, written by Peter Selinger 2001-2019
</metadata>
<g transform="translate(0.000000,32.000000) scale(0.100000,-0.100000)"
fill="#000000" stroke="none">
<path fill="#000000" stroke="none" d="M118 223 c-23 -26 -36 -56 -31 -70 7
-20 23 -15 23 6 0 11 5 23 12 27 11 7 7 -48 -8 -117 -5 -22 -2 -27 20 -33 14
-3 38 -3 52 0 22 6 25 11 20 33 -15 69 -19 124 -8 117 7 -4 12 -16 12 -27 0
-21 16 -26 23 -6 5 15 -16 59 -37 76 -14 12 -16 7 -18 -40 -1 -46 -2 -48 -5
-15 -4 33 -21 66 -36 66 -2 0 -11 -8 -19 -17z"/>
<path fill="#ffffff" stroke="none" d="M170 85 c0 -25 -3 -45 -7 -45 -5 0 -8
20 -8 45 0 25 3 45 8 45 4 0 7 -20 7 -45z"/>
</g>
</svg>
