<?xml version="1.0" standalone="no"?>
<!DOCTYPE svg PUBLIC "-//W3C//DTD SVG 20010904//EN"
 "http://www.w3.org/TR/2001/REC-SVG-20010904/DTD/svg10.dtd">
<svg version="1.0" xmlns="http://www.w3.org/2000/svg"
 width="32.000000pt" height="32.000000pt" viewBox="0 0 32.000000 32.000000"
 preserveAspectRatio="xMidYMid meet">
<metadata>
Created by potrace 1.16, written by Peter Selinger 2001-2019
</metadata>
<g transform="translate(0.000000,32.000000) scale(0.100000,-0.100000)"
fill="#000000" stroke="none">
<path fill="#000000" stroke="none" d="M0 160 l0 -160 160 0 160 0 0 160 0
160 -160 0 -160 0 0 -160z"/>
<path fill="#ffffff" stroke="none" d="M126 213 c-5 -15 -3 -14 10 2 12 14 15
15 11 4 -7 -22 21 -62 36 -52 8 5 8 2 0 -9 -7 -8 -10 -18 -6 -22 4 -4 7 -21 8
-39 0 -23 4 -31 15 -29 10 1 9 -2 -4 -13 -25 -19 -47 -19 -72 1 -18 14 -18 14
6 3 25 -12 25 -12 7 9 -17 18 -17 23 -3 50 12 23 12 32 3 42 -9 10 -9 11 1 6
14 -8 16 3 3 22 -9 16 -20 15 -40 -1 -12 -10 -13 -9 -6 3 22 39 42 54 31 23z"/>
<path fill="#ffffff" stroke="none" d="M190 220 c0 13 2 13 9 0 6 -8 7 -18 4
-23 -6 -10 -33 11 -33 27 0 6 5 4 10 -4 9 -13 10 -13 10 0z"/>
<path fill="#ffffff" stroke="none" d="M98 145 c-3 -3 -9 2 -12 12 -6 14 -5
15 5 6 7 -7 10 -15 7 -18z"/>
<path fill="#ffffff" stroke="none" d="M233 155 c-3 -9 -8 -14 -10 -11 -3 3
-2 9 2 15 9 16 15 13 8 -4z"/>
<path fill="#000000" stroke="none" d="M141 114 c-6 -15 -10 -29 -7 -31 2 -2
7 5 11 18 6 16 9 18 16 8 11 -18 21 -6 13 15 -9 23 -19 20 -33 -10z"/>
<path fill="#000000" stroke="none" d="M150 92 c0 -7 7 -20 15 -28 19 -20 20
-4 0 22 -9 12 -14 14 -15 6z"/>
</g>
</svg>
