<?xml version="1.0" standalone="no"?>
<!DOCTYPE svg PUBLIC "-//W3C//DTD SVG 20010904//EN"
 "http://www.w3.org/TR/2001/REC-SVG-20010904/DTD/svg10.dtd">
<svg version="1.0" xmlns="http://www.w3.org/2000/svg"
 width="32.000000pt" height="32.000000pt" viewBox="0 0 32.000000 32.000000"
 preserveAspectRatio="xMidYMid meet">
<metadata>
Created by potrace 1.16, written by Peter Selinger 2001-2019
</metadata>
<g transform="translate(0.000000,32.000000) scale(0.100000,-0.100000)"
fill="#000000" stroke="none">
<path fill="#000000" stroke="none" d="M126 216 c-21 -18 -48 -67 -41 -74 4
-4 14 2 24 14 9 11 23 18 30 16 8 -3 11 0 8 5 -12 19 47 0 64 -21 10 -12 20
-18 24 -15 6 7 -32 78 -43 80 -42 5 -55 4 -66 -5z"/>
<path fill="#000000" stroke="none" d="M145 157 c-6 -7 -9 -20 -7 -29 2 -10
-1 -18 -7 -18 -6 0 -11 -17 -10 -37 l1 -38 13 30 c12 26 14 27 15 8 0 -26 20
-42 20 -16 0 14 2 15 9 4 14 -22 21 3 11 39 -5 19 -8 36 -5 38 4 4 -20 32 -27
32 -2 -1 -8 -6 -13 -13z"/>
</g>
</svg>
