<?xml version="1.0" standalone="no"?>
<!DOCTYPE svg PUBLIC "-//W3C//DTD SVG 20010904//EN"
 "http://www.w3.org/TR/2001/REC-SVG-20010904/DTD/svg10.dtd">
<svg version="1.0" xmlns="http://www.w3.org/2000/svg"
 width="32.000000pt" height="32.000000pt" viewBox="0 0 32.000000 32.000000"
 preserveAspectRatio="xMidYMid meet">
<metadata>
Created by potrace 1.16, written by Peter Selinger 2001-2019
</metadata>
<g transform="translate(0.000000,32.000000) scale(0.100000,-0.100000)"
fill="#000000" stroke="none">
<path fill="#000000" stroke="none" d="M0 160 l0 -160 160 0 160 0 0 160 0
160 -160 0 -160 0 0 -160z"/>
<path fill="#ffffff" stroke="none" d="M192 221 c11 -2 49 -73 43 -80 -4 -3
-15 4 -25 17 -26 32 -31 14 -15 -47 16 -62 10 -95 -12 -65 -12 16 -13 16 -13
1 0 -19 -20 -24 -21 -4 0 9 -2 9 -6 0 -2 -7 -8 -13 -13 -13 -16 0 -18 30 -5
81 16 61 11 79 -15 47 -25 -31 -36 -17 -14 19 30 48 38 51 96 44z"/>
</g>
</svg>
