<?xml version="1.0" standalone="no"?>
<!DOCTYPE svg PUBLIC "-//W3C//DTD SVG 20010904//EN"
 "http://www.w3.org/TR/2001/REC-SVG-20010904/DTD/svg10.dtd">
<svg version="1.0" xmlns="http://www.w3.org/2000/svg"
 width="32.000000pt" height="32.000000pt" viewBox="0 0 32.000000 32.000000"
 preserveAspectRatio="xMidYMid meet">
<metadata>
Created by potrace 1.16, written by Peter Selinger 2001-2019
</metadata>
<g transform="translate(0.000000,32.000000) scale(0.100000,-0.100000)"
fill="#000000" stroke="none">
<path fill="#000000" stroke="none" d="M148 145 c4 -81 4 -85 -17 -85 -11 0
-21 -4 -21 -8 0 -4 11 -8 25 -8 29 0 32 7 38 114 4 63 2 72 -13 72 -14 0 -16
-10 -12 -85z"/>
<path fill="#000000" stroke="none" d="M93 187 c-6 -13 -8 -29 -4 -36 5 -8 12
-2 20 15 7 16 8 31 3 36 -5 5 -13 -2 -19 -15z"/>
<path fill="#000000" stroke="none" d="M207 203 c-3 -5 -3 -21 1 -35 5 -20 10
-23 18 -14 9 9 8 18 -1 36 -7 12 -15 18 -18 13z"/>
<path fill="#000000" stroke="none" d="M170 50 c0 -5 7 -10 15 -10 8 0 15 5
15 10 0 6 -7 10 -15 10 -8 0 -15 -4 -15 -10z"/>
</g>
</svg>
