<?xml version="1.0" standalone="no"?>
<!DOCTYPE svg PUBLIC "-//W3C//DTD SVG 20010904//EN"
 "http://www.w3.org/TR/2001/REC-SVG-20010904/DTD/svg10.dtd">
<svg version="1.0" xmlns="http://www.w3.org/2000/svg"
 width="32.000000pt" height="32.000000pt" viewBox="0 0 32.000000 32.000000"
 preserveAspectRatio="xMidYMid meet">
<metadata>
Created by potrace 1.16, written by Peter Selinger 2001-2019
</metadata>
<g transform="translate(0.000000,32.000000) scale(0.100000,-0.100000)"
fill="#000000" stroke="none">
<path fill="#000000" stroke="none" d="M108 208 c-19 -19 -26 -108 -9 -108 13
0 21 26 21 70 0 41 14 61 24 34 3 -8 2 -13 -2 -10 -4 2 -8 -21 -9 -52 -2 -56
-1 -57 16 -36 16 20 19 20 29 5 10 -13 11 -9 7 24 -3 22 -1 47 5 55 7 11 10 6
10 -22 0 -42 8 -68 21 -68 15 0 10 84 -6 107 -19 27 -81 27 -107 1z"/>
<path fill="#ffffff" stroke="none" d="M180 196 c0 -2 -8 -10 -17 -17 -16 -13
-17 -12 -4 4 13 16 21 21 21 13z"/>
<path fill="#000000" stroke="none" d="M132 74 c-12 -15 -20 -29 -17 -33 8 -7
82 -7 90 1 5 5 -37 58 -46 58 -2 0 -14 -12 -27 -26z"/>
</g>
</svg>
