<?xml version="1.0" standalone="no"?>
<!DOCTYPE svg PUBLIC "-//W3C//DTD SVG 20010904//EN"
 "http://www.w3.org/TR/2001/REC-SVG-20010904/DTD/svg10.dtd">
<svg version="1.0" xmlns="http://www.w3.org/2000/svg"
 width="32.000000pt" height="32.000000pt" viewBox="0 0 32.000000 32.000000"
 preserveAspectRatio="xMidYMid meet">
<metadata>
Created by potrace 1.16, written by Peter Selinger 2001-2019
</metadata>
<g transform="translate(0.000000,32.000000) scale(0.100000,-0.100000)"
fill="#000000" stroke="none">
<path fill="#000000" stroke="none" d="M137 224 c-3 -3 1 -17 10 -30 18 -28
26 -25 30 14 3 21 1 24 -7 12 -8 -12 -12 -12 -18 -2 -5 7 -11 9 -15 6z"/>
<path fill="#000000" stroke="none" d="M90 135 c0 -22 2 -24 14 -13 8 7 10 15
5 16 -5 2 -7 8 -3 13 3 5 0 9 -5 9 -6 0 -11 -11 -11 -25z"/>
<path fill="#000000" stroke="none" d="M214 151 c4 -5 2 -11 -3 -13 -5 -1 -3
-9 5 -16 12 -11 14 -9 14 13 0 14 -5 25 -11 25 -5 0 -8 -4 -5 -9z"/>
<path fill="#000000" stroke="none" d="M145 80 c-4 -12 -4 -24 -1 -27 3 -4 6
-1 6 6 0 9 5 9 20 1 25 -14 26 2 1 24 -18 17 -20 16 -26 -4z"/>
</g>
</svg>
