<?xml version="1.0" standalone="no"?>
<!DOCTYPE svg PUBLIC "-//W3C//DTD SVG 20010904//EN"
 "http://www.w3.org/TR/2001/REC-SVG-20010904/DTD/svg10.dtd">
<svg version="1.0" xmlns="http://www.w3.org/2000/svg"
 width="32.000000pt" height="32.000000pt" viewBox="0 0 32.000000 32.000000"
 preserveAspectRatio="xMidYMid meet">
<metadata>
Created by potrace 1.16, written by Peter Selinger 2001-2019
</metadata>
<g transform="translate(0.000000,32.000000) scale(0.100000,-0.100000)"
fill="#000000" stroke="none">
<path fill="#000000" stroke="none" d="M133 227 c-6 -10 15 -35 41 -48 21 -10
21 -10 1 6 -20 16 -21 21 -5 40 6 7 1 11 -11 11 -11 0 -23 -4 -26 -9z"/>
<path fill="#ffffff" stroke="none" d="M154 214 c3 -8 2 -12 -4 -9 -6 3 -10
10 -10 16 0 14 7 11 14 -7z"/>
<path fill="#000000" stroke="none" d="M86 157 c3 -10 9 -15 12 -12 3 3 0 11
-7 18 -10 9 -11 8 -5 -6z"/>
<path fill="#000000" stroke="none" d="M225 159 c-4 -6 -5 -12 -2 -15 2 -3 7
2 10 11 7 17 1 20 -8 4z"/>
<path fill="#000000" stroke="none" d="M136 134 c-3 -9 1 -25 10 -37 16 -22
16 -22 11 6 -3 18 0 27 9 27 8 0 14 5 14 10 0 16 -37 11 -44 -6z"/>
<path fill="#000000" stroke="none" d="M133 43 c15 -2 39 -2 55 0 15 2 2 4
-28 4 -30 0 -43 -2 -27 -4z"/>
</g>
</svg>
