<?xml version="1.0" standalone="no"?>
<!DOCTYPE svg PUBLIC "-//W3C//DTD SVG 20010904//EN"
 "http://www.w3.org/TR/2001/REC-SVG-20010904/DTD/svg10.dtd">
<svg version="1.0" xmlns="http://www.w3.org/2000/svg"
 width="32.000000pt" height="32.000000pt" viewBox="0 0 32.000000 32.000000"
 preserveAspectRatio="xMidYMid meet">
<metadata>
Created by potrace 1.16, written by Peter Selinger 2001-2019
</metadata>
<g transform="translate(0.000000,32.000000) scale(0.100000,-0.100000)"
fill="#000000" stroke="none">
<path fill="#000000" stroke="none" d="M0 160 l0 -160 160 0 160 0 0 160 0
160 -160 0 -160 0 0 -160z"/>
<path fill="#ffffff" stroke="none" d="M216 181 c5 -25 4 -32 -4 -27 -7 4 -12
17 -13 29 l0 22 -9 -21 c-5 -12 -5 -38 1 -60 13 -57 11 -62 -10 -31 l-18 28
-23 -28 -22 -28 8 40 c5 22 7 54 7 70 -2 28 -1 29 12 11 14 -18 15 -17 32 12
20 35 30 31 39 -17z"/>
<path fill="#ffffff" stroke="none" d="M124 198 c-3 -13 -10 -30 -15 -38 -7
-13 -9 -13 -14 2 -7 19 10 58 26 58 6 0 8 -9 3 -22z"/>
</g>
</svg>
