<?xml version="1.0" standalone="no"?>
<!DOCTYPE svg PUBLIC "-//W3C//DTD SVG 20010904//EN"
 "http://www.w3.org/TR/2001/REC-SVG-20010904/DTD/svg10.dtd">
<svg version="1.0" xmlns="http://www.w3.org/2000/svg"
 width="32.000000pt" height="32.000000pt" viewBox="0 0 32.000000 32.000000"
 preserveAspectRatio="xMidYMid meet">
<metadata>
Created by potrace 1.16, written by Peter Selinger 2001-2019
</metadata>
<g transform="translate(0.000000,32.000000) scale(0.100000,-0.100000)"
fill="#000000" stroke="none">
<path fill="#000000" stroke="none" d="M100 200 c-6 -11 -8 -20 -6 -20 3 0 10
9 16 20 6 11 8 20 6 20 -3 0 -10 -9 -16 -20z"/>
<path fill="#000000" stroke="none" d="M206 207 c3 -10 9 -15 12 -12 3 3 0 11
-7 18 -10 9 -11 8 -5 -6z"/>
<path fill="#000000" stroke="none" d="M86 157 c3 -10 9 -15 12 -12 3 3 0 11
-7 18 -10 9 -11 8 -5 -6z"/>
<path fill="#000000" stroke="none" d="M225 159 c-4 -6 -5 -12 -2 -15 2 -3 7
2 10 11 7 17 1 20 -8 4z"/>
<path fill="#000000" stroke="none" d="M139 115 c4 -25 6 -27 9 -7 4 24 18 30
24 10 3 -7 7 -4 10 7 4 16 0 20 -21 20 -24 0 -26 -3 -22 -30z"/>
<path fill="#000000" stroke="none" d="M121 94 c0 -11 3 -14 6 -6 3 7 2 16 -1
19 -3 4 -6 -2 -5 -13z"/>
<path fill="#000000" stroke="none" d="M133 37 c16 -5 38 -5 54 0 22 8 18 9
-27 9 -45 0 -49 -1 -27 -9z"/>
</g>
</svg>
