<?xml version="1.0" standalone="no"?>
<!DOCTYPE svg PUBLIC "-//W3C//DTD SVG 20010904//EN"
 "http://www.w3.org/TR/2001/REC-SVG-20010904/DTD/svg10.dtd">
<svg version="1.0" xmlns="http://www.w3.org/2000/svg"
 width="32.000000pt" height="32.000000pt" viewBox="0 0 32.000000 32.000000"
 preserveAspectRatio="xMidYMid meet">
<metadata>
Created by potrace 1.16, written by Peter Selinger 2001-2019
</metadata>
<g transform="translate(0.000000,32.000000) scale(0.100000,-0.100000)"
fill="#000000" stroke="none">
<path fill="#000000" stroke="none" d="M150 211 c0 -11 -6 -22 -12 -24 -10 -4
-9 -8 2 -16 23 -17 27 -14 28 24 1 19 -3 35 -8 35 -6 0 -10 -9 -10 -19z"/>
<path fill="#000000" stroke="none" d="M96 194 c-3 -9 -6 -23 -6 -32 0 -13 5
-11 19 8 19 23 19 40 1 40 -4 0 -11 -7 -14 -16z"/>
<path fill="#000000" stroke="none" d="M196 202 c-2 -4 4 -19 15 -32 14 -19
19 -21 19 -8 0 36 -21 61 -34 40z"/>
<path fill="#000000" stroke="none" d="M172 135 c-6 -11 -12 -15 -12 -9 0 18
-29 12 -35 -8 -3 -10 -8 -27 -11 -38 -4 -14 -1 -20 10 -20 9 0 16 6 16 13 0 8
4 7 10 -3 9 -13 11 -13 20 0 6 10 10 11 10 3 0 -7 5 -13 10 -13 12 0 12 46 1
75 -8 19 -8 19 -19 0z"/>
</g>
</svg>
