<?xml version="1.0" standalone="no"?>
<!DOCTYPE svg PUBLIC "-//W3C//DTD SVG 20010904//EN"
 "http://www.w3.org/TR/2001/REC-SVG-20010904/DTD/svg10.dtd">
<svg version="1.0" xmlns="http://www.w3.org/2000/svg"
 width="32.000000pt" height="32.000000pt" viewBox="0 0 32.000000 32.000000"
 preserveAspectRatio="xMidYMid meet">
<metadata>
Created by potrace 1.16, written by Peter Selinger 2001-2019
</metadata>
<g transform="translate(0.000000,32.000000) scale(0.100000,-0.100000)"
fill="#000000" stroke="none">
<path fill="#000000" stroke="none" d="M132 223 c-18 -7 -42 -57 -42 -89 0
-23 2 -25 15 -14 9 7 13 20 10 27 -3 8 -2 26 1 39 6 23 7 23 19 7 14 -19 13
-29 -9 -92 -9 -24 -16 -45 -16 -46 0 -2 23 -3 50 -3 28 0 50 1 50 3 0 1 -7 22
-16 46 -21 59 -23 71 -12 92 11 22 -1 45 -13 26 -6 -10 -11 -11 -16 -3 -5 6
-14 9 -21 7z"/>
<path fill="#ffffff" stroke="none" d="M150 86 c0 -2 -8 -10 -17 -17 -16 -13
-17 -12 -4 4 13 16 21 21 21 13z"/>
<path fill="#ffffff" stroke="none" d="M191 73 c13 -16 12 -17 -3 -4 -10 7
-18 15 -18 17 0 8 8 3 21 -13z"/>
<path fill="#000000" stroke="none" d="M196 202 c-3 -6 -1 -14 5 -17 6 -4 8
-17 5 -30 -4 -14 0 -28 9 -35 13 -11 15 -8 15 16 -1 35 -24 81 -34 66z"/>
</g>
</svg>
