<?xml version="1.0" standalone="no"?>
<!DOCTYPE svg PUBLIC "-//W3C//DTD SVG 20010904//EN"
 "http://www.w3.org/TR/2001/REC-SVG-20010904/DTD/svg10.dtd">
<svg version="1.0" xmlns="http://www.w3.org/2000/svg"
 width="32.000000pt" height="32.000000pt" viewBox="0 0 32.000000 32.000000"
 preserveAspectRatio="xMidYMid meet">
<metadata>
Created by potrace 1.16, written by Peter Selinger 2001-2019
</metadata>
<g transform="translate(0.000000,32.000000) scale(0.100000,-0.100000)"
fill="#000000" stroke="none">
<path fill="#000000" stroke="none" d="M117 221 c-26 -30 -33 -51 -29 -86 5
-42 19 -46 28 -7 3 15 8 32 10 37 5 13 -2 -49 -12 -92 -6 -29 -4 -33 20 -39
14 -3 38 -3 52 0 24 6 26 10 20 39 -10 43 -17 105 -12 92 2 -5 7 -22 10 -37 9
-39 23 -35 28 8 6 51 -26 98 -69 100 -19 1 -38 -5 -46 -15z"/>
</g>
</svg>
