<?xml version="1.0" standalone="no"?>
<!DOCTYPE svg PUBLIC "-//W3C//DTD SVG 20010904//EN"
 "http://www.w3.org/TR/2001/REC-SVG-20010904/DTD/svg10.dtd">
<svg version="1.0" xmlns="http://www.w3.org/2000/svg"
 width="32.000000pt" height="32.000000pt" viewBox="0 0 32.000000 32.000000"
 preserveAspectRatio="xMidYMid meet">
<metadata>
Created by potrace 1.16, written by Peter Selinger 2001-2019
</metadata>
<g transform="translate(0.000000,32.000000) scale(0.100000,-0.100000)"
fill="#000000" stroke="none">
<path fill="#000000" stroke="none" d="M96 214 c-8 -21 -8 -24 5 -24 7 0 18 8
25 18 12 14 13 15 8 1 -3 -10 0 -21 8 -25 23 -14 44 -11 45 8 1 11 -3 16 -9
12 -7 -5 -8 -2 -3 6 6 10 11 10 20 -3 21 -29 46 -19 27 9 -11 19 -119 16 -126
-2z"/>
<path fill="#000000" stroke="none" d="M134 148 c-5 -7 -2 -9 7 -4 8 4 4 -1
-8 -10 -26 -19 -31 -39 -8 -30 9 3 18 -1 21 -9 8 -20 24 -19 24 1 0 11 6 14
21 9 16 -5 20 -3 17 6 -3 8 -12 14 -20 13 -8 -1 -15 5 -15 12 0 7 5 10 10 7 6
-3 7 -1 3 5 -4 7 -16 12 -26 12 -10 0 -22 -5 -26 -12z"/>
</g>
</svg>
