<?xml version="1.0" standalone="no"?>
<!DOCTYPE svg PUBLIC "-//W3C//DTD SVG 20010904//EN"
 "http://www.w3.org/TR/2001/REC-SVG-20010904/DTD/svg10.dtd">
<svg version="1.0" xmlns="http://www.w3.org/2000/svg"
 width="32.000000pt" height="32.000000pt" viewBox="0 0 32.000000 32.000000"
 preserveAspectRatio="xMidYMid meet">
<metadata>
Created by potrace 1.16, written by Peter Selinger 2001-2019
</metadata>
<g transform="translate(0.000000,32.000000) scale(0.100000,-0.100000)"
fill="#000000" stroke="none">
<path fill="#000000" stroke="none" d="M109 214 c-7 -9 -6 -15 7 -22 12 -7 15
-19 12 -51 l-4 -41 38 0 c21 0 38 5 38 11 0 5 -3 8 -8 5 -4 -2 -7 12 -7 32 1
25 6 37 16 37 8 0 13 -6 11 -13 -1 -8 2 -11 8 -7 8 5 7 11 -1 21 -6 8 -8 14
-4 14 4 0 2 6 -4 13 -14 17 -88 18 -102 1z"/>
<path fill="#ffffff" stroke="none" d="M200 214 c0 -8 -19 -13 -24 -6 -3 5 1
9 9 9 8 0 15 -2 15 -3z"/>
<path fill="#000000" stroke="none" d="M90 181 c0 -6 5 -13 10 -16 6 -3 10 1
10 9 0 9 -4 16 -10 16 -5 0 -10 -4 -10 -9z"/>
</g>
</svg>
