<?xml version="1.0" standalone="no"?>
<!DOCTYPE svg PUBLIC "-//W3C//DTD SVG 20010904//EN"
 "http://www.w3.org/TR/2001/REC-SVG-20010904/DTD/svg10.dtd">
<svg version="1.0" xmlns="http://www.w3.org/2000/svg"
 width="32.000000pt" height="32.000000pt" viewBox="0 0 32.000000 32.000000"
 preserveAspectRatio="xMidYMid meet">
<metadata>
Created by potrace 1.16, written by Peter Selinger 2001-2019
</metadata>
<g transform="translate(0.000000,32.000000) scale(0.100000,-0.100000)"
fill="#000000" stroke="none">
<path fill="#000000" stroke="none" d="M0 160 l0 -160 160 0 160 0 0 160 0
160 -160 0 -160 0 0 -160z"/>
<path fill="#ffffff" stroke="none" d="M220 226 c0 -2 3 -11 6 -20 5 -12 0
-16 -18 -16 -22 0 -24 -4 -20 -30 2 -17 8 -33 13 -36 16 -9 10 -24 -10 -24
-11 0 -22 -6 -25 -12 -5 -10 -7 -10 -12 0 -3 6 -14 12 -25 12 -20 0 -26 15
-10 24 5 3 11 19 13 36 4 26 1 30 -19 30 -25 0 -26 1 -17 24 5 12 21 16 65 16
32 0 59 -2 59 -4z"/>
</g>
</svg>
