<?xml version="1.0" standalone="no"?>
<!DOCTYPE svg PUBLIC "-//W3C//DTD SVG 20010904//EN"
 "http://www.w3.org/TR/2001/REC-SVG-20010904/DTD/svg10.dtd">
<svg version="1.0" xmlns="http://www.w3.org/2000/svg"
 width="32.000000pt" height="32.000000pt" viewBox="0 0 32.000000 32.000000"
 preserveAspectRatio="xMidYMid meet">
<metadata>
Created by potrace 1.16, written by Peter Selinger 2001-2019
</metadata>
<g transform="translate(0.000000,32.000000) scale(0.100000,-0.100000)"
fill="#000000" stroke="none">
<path fill="#000000" stroke="none" d="M96 214 c-8 -20 15 -29 26 -10 5 9 14
14 20 10 7 -4 6 -9 -1 -14 -9 -5 -8 -10 2 -18 10 -9 18 -8 33 4 16 13 16 15 2
10 -12 -3 -15 -1 -11 10 7 19 20 18 31 -2 11 -19 34 -10 26 10 -7 19 -121 19
-128 0z"/>
<path fill="#000000" stroke="none" d="M145 129 c4 -6 1 -9 -6 -7 -8 1 -14 -2
-14 -7 0 -6 5 -9 12 -7 7 2 13 -4 13 -13 0 -8 5 -15 11 -15 7 0 9 10 7 25 -3
13 0 26 6 29 6 2 1 5 -12 5 -14 1 -21 -3 -17 -10z"/>
<path fill="#000000" stroke="none" d="M186 121 c-4 -5 -2 -12 3 -15 5 -4 12
-2 15 3 4 5 2 12 -3 15 -5 4 -12 2 -15 -3z"/>
</g>
</svg>
