<?xml version="1.0" standalone="no"?>
<!DOCTYPE svg PUBLIC "-//W3C//DTD SVG 20010904//EN"
 "http://www.w3.org/TR/2001/REC-SVG-20010904/DTD/svg10.dtd">
<svg version="1.0" xmlns="http://www.w3.org/2000/svg"
 width="32.000000pt" height="32.000000pt" viewBox="0 0 32.000000 32.000000"
 preserveAspectRatio="xMidYMid meet">
<metadata>
Created by potrace 1.16, written by Peter Selinger 2001-2019
</metadata>
<g transform="translate(0.000000,32.000000) scale(0.100000,-0.100000)"
fill="#000000" stroke="none">
<path fill="#000000" stroke="none" d="M109 213 c-11 -15 -11 -16 1 -5 21 18
28 15 22 -13 -2 -14 0 -25 4 -25 5 0 10 14 10 30 2 34 -16 40 -37 13z"/>
<path fill="#000000" stroke="none" d="M169 218 c-4 -12 -5 -57 0 -53 6 6 10
55 4 55 -1 0 -3 -1 -4 -2z"/>
<path fill="#000000" stroke="none" d="M190 211 c0 -5 5 -13 10 -16 6 -3 10
-2 10 4 0 5 -4 13 -10 16 -5 3 -10 2 -10 -4z"/>
</g>
</svg>
