<?xml version="1.0" standalone="no"?>
<!DOCTYPE svg PUBLIC "-//W3C//DTD SVG 20010904//EN"
 "http://www.w3.org/TR/2001/REC-SVG-20010904/DTD/svg10.dtd">
<svg version="1.0" xmlns="http://www.w3.org/2000/svg"
 width="32.000000pt" height="32.000000pt" viewBox="0 0 32.000000 32.000000"
 preserveAspectRatio="xMidYMid meet">
<metadata>
Created by potrace 1.16, written by Peter Selinger 2001-2019
</metadata>
<g transform="translate(0.000000,32.000000) scale(0.100000,-0.100000)"
fill="#000000" stroke="none">
<path fill="#000000" stroke="none" d="M0 160 l0 -160 160 0 160 0 0 160 0
160 -160 0 -160 0 0 -160z"/>
<path fill="#ffffff" stroke="none" d="M212 210 c10 -12 18 -28 18 -36 0 -21
-18 -26 -28 -8 -17 31 -21 -2 -7 -51 22 -73 22 -75 -35 -75 -57 0 -57 2 -35
75 14 49 10 82 -7 51 -5 -9 -13 -14 -19 -11 -16 10 -10 35 14 59 29 29 74 27
99 -4z"/>
</g>
</svg>
