<?xml version="1.0" standalone="no"?>
<!DOCTYPE svg PUBLIC "-//W3C//DTD SVG 20010904//EN"
 "http://www.w3.org/TR/2001/REC-SVG-20010904/DTD/svg10.dtd">
<svg version="1.0" xmlns="http://www.w3.org/2000/svg"
 width="32.000000pt" height="32.000000pt" viewBox="0 0 32.000000 32.000000"
 preserveAspectRatio="xMidYMid meet">
<metadata>
Created by potrace 1.16, written by Peter Selinger 2001-2019
</metadata>
<g transform="translate(0.000000,32.000000) scale(0.100000,-0.100000)"
fill="#000000" stroke="none">
<path fill="#000000" stroke="none" d="M110 236 c-7 -9 -10 -22 -7 -30 3 -7 0
-19 -6 -25 -8 -8 -8 -11 1 -11 11 0 16 13 13 33 -2 15 19 6 28 -12 8 -14 6
-24 -9 -41 -11 -13 -20 -30 -19 -39 0 -14 1 -14 12 1 10 15 12 15 24 0 12 -16
14 -16 27 1 10 13 15 15 19 5 2 -7 7 -10 11 -7 10 10 -5 40 -17 32 -6 -4 -8 2
-5 15 4 16 2 19 -11 15 -12 -4 -11 -2 3 9 23 18 15 48 -12 48 -10 0 -23 5 -28
10 -8 8 -15 6 -24 -4z"/>
<path fill="#000000" stroke="none" d="M187 243 c-4 -3 1 -15 10 -26 10 -10
17 -21 16 -23 -7 -10 -2 -24 8 -24 6 0 7 5 2 13 -4 6 -6 19 -5 28 3 18 -21 43
-31 32z"/>
</g>
</svg>
