<?xml version="1.0" standalone="no"?>
<!DOCTYPE svg PUBLIC "-//W3C//DTD SVG 20010904//EN"
 "http://www.w3.org/TR/2001/REC-SVG-20010904/DTD/svg10.dtd">
<svg version="1.0" xmlns="http://www.w3.org/2000/svg"
 width="32.000000pt" height="32.000000pt" viewBox="0 0 32.000000 32.000000"
 preserveAspectRatio="xMidYMid meet">
<metadata>
Created by potrace 1.16, written by Peter Selinger 2001-2019
</metadata>
<g transform="translate(0.000000,32.000000) scale(0.100000,-0.100000)"
fill="#000000" stroke="none">
<path fill="#000000" stroke="none" d="M0 160 l0 -160 160 0 160 0 0 160 0
160 -160 0 -160 0 0 -160z"/>
<path fill="#ffffff" stroke="none" d="M162 230 c27 0 35 -30 12 -48 -14 -11
-15 -13 -3 -9 13 4 15 1 11 -15 -3 -13 -1 -19 5 -15 12 8 27 -22 17 -32 -4 -3
-9 0 -11 7 -4 10 -9 8 -19 -5 -13 -17 -15 -17 -27 -1 -12 15 -14 15 -24 0 -11
-15 -12 -15 -12 -1 -1 9 8 26 19 39 15 17 17 27 9 41 -9 18 -30 27 -28 12 3
-20 -2 -33 -13 -33 -9 0 -9 3 -1 11 6 6 9 18 6 25 -8 20 17 48 31 34 5 -5 18
-10 28 -10z"/>
<path fill="#ffffff" stroke="none" d="M218 211 c-1 -9 1 -22 5 -28 5 -8 4
-13 -2 -13 -10 0 -15 14 -8 24 1 2 -6 13 -16 23 -9 11 -14 23 -10 26 10 11 34
-14 31 -32z"/>
</g>
</svg>
