<?xml version="1.0" standalone="no"?>
<!DOCTYPE svg PUBLIC "-//W3C//DTD SVG 20010904//EN"
 "http://www.w3.org/TR/2001/REC-SVG-20010904/DTD/svg10.dtd">
<svg version="1.0" xmlns="http://www.w3.org/2000/svg"
 width="32.000000pt" height="32.000000pt" viewBox="0 0 32.000000 32.000000"
 preserveAspectRatio="xMidYMid meet">
<metadata>
Created by potrace 1.16, written by Peter Selinger 2001-2019
</metadata>
<g transform="translate(0.000000,32.000000) scale(0.100000,-0.100000)"
fill="#000000" stroke="none">
<path fill="#000000" stroke="none" d="M0 158 l0 -158 94 0 c52 0 97 3 99 8 3
4 -20 7 -51 7 -32 0 -57 5 -57 10 0 6 4 9 10 8 6 -2 10 17 10 42 0 25 -1 45
-3 45 -2 0 -10 -16 -18 -36 -19 -45 -37 -34 -53 32 -13 52 -9 64 24 64 21 0
34 15 41 49 4 19 -25 61 -42 61 -7 0 -15 4 -18 8 -3 4 12 7 33 6 21 -1 44 2
52 6 7 5 -16 8 -54 8 l-67 -1 0 -159z"/>
<path fill="#000000" stroke="none" d="M207 296 c23 -20 25 -26 15 -39 -10
-12 -9 -16 4 -21 22 -9 24 -8 24 9 0 8 5 15 10 15 6 0 10 9 10 20 0 23 4 24
31 10 16 -9 19 -7 19 10 0 18 -6 20 -71 20 l-70 0 28 -24z"/>
<path fill="#000000" stroke="none" d="M162 258 c-8 -8 -9 -15 -1 -25 15 -17
25 -17 32 1 8 21 -16 39 -31 24z"/>
<path fill="#000000" stroke="none" d="M266 233 c-6 -14 -5 -15 5 -6 7 7 10
15 7 18 -3 3 -9 -2 -12 -12z"/>
<path fill="#000000" stroke="none" d="M300 169 c17 -30 6 -53 -19 -39 -32 17
-36 12 -11 -15 19 -20 21 -27 10 -40 -7 -8 -17 -12 -23 -8 -5 3 -7 1 -4 -4 4
-6 20 -13 37 -15 l30 -5 0 74 c0 59 -3 73 -15 73 -13 0 -14 -4 -5 -21z"/>
<path fill="#000000" stroke="none" d="M31 154 c0 -11 3 -14 6 -6 3 7 2 16 -1
19 -3 4 -6 -2 -5 -13z"/>
<path fill="#000000" stroke="none" d="M295 10 c-19 -8 -19 -9 3 -9 12 -1 22
4 22 9 0 6 -1 10 -2 9 -2 0 -12 -4 -23 -9z"/>
</g>
</svg>
