<?xml version="1.0" standalone="no"?>
<!DOCTYPE svg PUBLIC "-//W3C//DTD SVG 20010904//EN"
 "http://www.w3.org/TR/2001/REC-SVG-20010904/DTD/svg10.dtd">
<svg version="1.0" xmlns="http://www.w3.org/2000/svg"
 width="32.000000pt" height="32.000000pt" viewBox="0 0 32.000000 32.000000"
 preserveAspectRatio="xMidYMid meet">
<metadata>
Created by potrace 1.16, written by Peter Selinger 2001-2019
</metadata>
<g transform="translate(0.000000,32.000000) scale(0.100000,-0.100000)"
fill="#000000" stroke="none">
<path fill="#000000" stroke="none" d="M35 310 c-4 -7 1 -13 14 -17 25 -6 54
-49 45 -65 -4 -6 -3 -8 3 -5 6 4 17 -1 24 -11 13 -15 12 -16 -3 -4 -14 12 -19
11 -30 -7 -7 -12 -23 -21 -35 -21 -31 0 -35 -12 -22 -64 16 -66 34 -77 53 -32
18 44 28 47 20 6 -4 -20 -1 -39 11 -56 14 -21 23 -25 50 -22 19 2 31 0 29 -4
-8 -12 105 -3 117 9 16 16 2 33 -26 33 -13 0 -27 5 -31 12 -4 6 -3 8 3 5 6 -4
16 0 23 8 11 13 9 20 -10 40 -25 27 -21 32 11 15 27 -15 33 7 15 52 -14 32
-14 37 0 42 19 7 13 31 -7 32 -8 0 -32 -14 -54 -30 -28 -21 -34 -24 -21 -8 13
15 15 22 6 22 -10 0 -10 3 1 16 12 14 9 20 -15 41 -23 19 -36 23 -60 18 -42
-8 -57 -8 -82 0 -13 4 -25 2 -29 -5z"/>
<path fill="#ffffff" stroke="none" d="M80 300 c18 -12 2 -12 -25 0 -13 6 -15
9 -5 9 8 0 22 -4 30 -9z"/>
<path fill="#ffffff" stroke="none" d="M216 279 c3 -6 -5 -3 -20 6 -14 10 -26
19 -26 22 0 7 39 -17 46 -28z"/>
<path fill="#ffffff" stroke="none" d="M194 258 c8 -14 6 -22 -11 -40 -26 -25
-32 -22 -42 24 -7 32 -6 34 17 33 14 0 30 -8 36 -17z"/>
<path fill="#ffffff" stroke="none" d="M300 239 c0 -9 -31 -21 -37 -15 -3 3
-3 9 1 14 6 10 36 12 36 1z"/>
<path fill="#ffffff" stroke="none" d="M264 174 c3 -8 2 -12 -4 -9 -6 3 -10
10 -10 16 0 14 7 11 14 -7z"/>
<path fill="#ffffff" stroke="none" d="M170 166 c-7 -7 -13 -7 -20 0 -6 6 -3
10 10 10 13 0 16 -4 10 -10z"/>
<path fill="#ffffff" stroke="none" d="M70 154 c0 -13 -3 -14 -14 -5 -11 9
-15 9 -19 -1 -4 -8 -6 -7 -6 5 -1 11 6 17 19 17 12 0 20 -7 20 -16z"/>
<path fill="#ffffff" stroke="none" d="M280 95 c0 -15 -21 -12 -30 5 -11 20
-10 21 9 10 12 -6 21 -13 21 -15z"/>
<path fill="#ffffff" stroke="none" d="M199 45 c0 -5 -4 -3 -9 5 -5 8 -9 22
-9 30 0 16 17 -16 18 -35z"/>
<path fill="#ffffff" stroke="none" d="M165 60 c-3 -5 -12 -10 -18 -10 -7 0
-6 4 3 10 19 12 23 12 15 0z"/>
<path fill="#000000" stroke="none" d="M75 30 c-8 -13 15 -24 27 -12 6 6 4 11
-6 15 -8 3 -18 2 -21 -3z"/>
</g>
</svg>
