<?xml version="1.0" standalone="no"?>
<!DOCTYPE svg PUBLIC "-//W3C//DTD SVG 20010904//EN"
 "http://www.w3.org/TR/2001/REC-SVG-20010904/DTD/svg10.dtd">
<svg version="1.0" xmlns="http://www.w3.org/2000/svg"
 width="32.000000pt" height="32.000000pt" viewBox="0 0 32.000000 32.000000"
 preserveAspectRatio="xMidYMid meet">
<metadata>
Created by potrace 1.16, written by Peter Selinger 2001-2019
</metadata>
<g transform="translate(0.000000,32.000000) scale(0.100000,-0.100000)"
fill="#000000" stroke="none">
<path fill="#000000" stroke="none" d="M115 300 c3 -5 2 -10 -4 -10 -5 0 -13
-9 -16 -20 -4 -11 -10 -18 -15 -15 -5 3 -15 -2 -24 -10 -12 -13 -13 -19 -4
-29 9 -9 16 -10 24 -2 9 8 8 13 -5 18 -11 5 -8 7 12 7 16 1 26 5 22 11 -3 6
-1 10 5 10 6 0 8 5 5 10 -3 6 -1 10 4 10 6 0 11 7 11 15 0 8 -5 15 -11 15 -5
0 -7 -4 -4 -10z"/>
<path fill="#000000" stroke="none" d="M190 303 c0 -2 7 -11 15 -19 12 -12 15
-12 15 -2 0 10 3 10 9 -2 6 -8 7 -18 5 -22 -3 -4 5 -8 18 -9 22 0 22 -1 3 -9
-16 -7 -13 -9 15 -9 19 1 29 3 23 6 -7 2 -13 14 -14 26 0 12 -3 16 -6 10 -2
-7 -9 -13 -14 -13 -4 0 -5 7 -2 17 4 11 3 14 -5 9 -7 -4 -12 -3 -12 2 0 5 -11
12 -25 14 -14 3 -25 3 -25 1z"/>
<path fill="#000000" stroke="none" d="M144 275 c-7 -18 3 -35 21 -35 21 0 28
19 15 35 -16 19 -29 19 -36 0z"/>
<path fill="#ffffff" stroke="none" d="M180 264 c0 -8 -19 -13 -24 -6 -3 5 1
9 9 9 8 0 15 -2 15 -3z"/>
<path fill="#000000" stroke="none" d="M186 235 c-14 -11 -16 -15 -5 -15 12 0
12 -2 -1 -10 -8 -5 -10 -10 -5 -10 16 0 30 14 33 33 3 20 2 21 -22 2z"/>
<path fill="#000000" stroke="none" d="M120 224 c0 -8 5 -12 10 -9 6 3 10 10
10 16 0 5 -4 9 -10 9 -5 0 -10 -7 -10 -16z"/>
<path fill="#000000" stroke="none" d="M223 213 c4 -17 0 -23 -11 -24 -13 0
-11 -3 5 -9 15 -6 23 -21 28 -50 4 -23 9 -39 12 -36 7 6 -16 106 -29 126 -7
11 -8 10 -5 -7z"/>
<path fill="#000000" stroke="none" d="M266 205 c4 -8 8 -15 10 -15 2 0 4 7 4
15 0 8 -4 15 -10 15 -5 0 -7 -7 -4 -15z"/>
<path fill="#000000" stroke="none" d="M105 190 c4 -6 11 -8 16 -5 14 9 11 15
-7 15 -8 0 -12 -5 -9 -10z"/>
<path fill="#000000" stroke="none" d="M145 160 c-9 -14 24 -25 37 -12 8 8 4
9 -13 6 -19 -5 -21 -4 -9 5 9 7 10 11 3 11 -6 0 -15 -5 -18 -10z"/>
<path fill="#000000" stroke="none" d="M50 145 c0 -8 2 -15 4 -15 2 0 6 7 10
15 3 8 1 15 -4 15 -6 0 -10 -7 -10 -15z"/>
<path fill="#000000" stroke="none" d="M62 63 c-6 -20 -7 -32 -2 -27 10 10 25
64 18 64 -3 0 -10 -16 -16 -37z"/>
</g>
</svg>
