<?xml version="1.0" standalone="no"?>
<!DOCTYPE svg PUBLIC "-//W3C//DTD SVG 20010904//EN"
 "http://www.w3.org/TR/2001/REC-SVG-20010904/DTD/svg10.dtd">
<svg version="1.0" xmlns="http://www.w3.org/2000/svg"
 width="32.000000pt" height="32.000000pt" viewBox="0 0 32.000000 32.000000"
 preserveAspectRatio="xMidYMid meet">
<metadata>
Created by potrace 1.16, written by Peter Selinger 2001-2019
</metadata>
<g transform="translate(0.000000,32.000000) scale(0.100000,-0.100000)"
fill="#000000" stroke="none">
<path fill="#000000" stroke="none" d="M115 300 c3 -5 2 -10 -4 -10 -5 0 -13
-9 -16 -20 -4 -11 -10 -18 -15 -15 -5 3 -15 -2 -24 -10 -12 -13 -13 -19 -4
-29 9 -9 16 -10 24 -2 9 8 8 13 -5 18 -11 5 -8 7 12 7 16 1 26 5 22 11 -3 6
-1 10 5 10 6 0 8 5 5 10 -3 6 -1 10 4 10 6 0 11 7 11 15 0 8 -5 15 -11 15 -5
0 -7 -4 -4 -10z"/>
<path fill="#000000" stroke="none" d="M190 303 c0 -2 7 -11 15 -19 12 -12 15
-12 15 -2 0 10 3 10 9 -2 6 -8 7 -18 5 -22 -3 -4 5 -8 18 -9 22 0 22 -1 3 -9
-16 -7 -13 -9 15 -9 19 1 29 3 23 6 -7 2 -13 14 -14 26 0 12 -3 16 -6 10 -2
-7 -9 -13 -14 -13 -4 0 -5 7 -2 17 4 11 3 14 -5 9 -7 -4 -12 -3 -12 2 0 5 -11
12 -25 14 -14 3 -25 3 -25 1z"/>
<path fill="#000000" stroke="none" d="M144 275 c-4 -9 -2 -21 4 -27 15 -15
44 -1 40 19 -4 23 -36 29 -44 8z"/>
<path fill="#000000" stroke="none" d="M111 226 c-14 -14 -21 -26 -17 -26 5 0
3 -6 -3 -14 -8 -10 -9 -16 -1 -21 6 -4 9 -1 8 6 -2 10 11 13 44 12 26 0 46 2
43 6 -2 4 2 8 10 8 8 0 12 -4 9 -9 -3 -4 2 -8 10 -8 15 0 24 -23 44 -120 14
-64 14 -16 1 56 -7 32 -12 64 -12 71 0 6 -11 24 -24 40 l-23 28 -18 -21 c-17
-20 -18 -20 -32 -2 -15 19 -16 19 -39 -6z"/>
<path fill="#000000" stroke="none" d="M266 205 c4 -8 8 -15 10 -15 2 0 4 7 4
15 0 8 -4 15 -10 15 -5 0 -7 -7 -4 -15z"/>
<path fill="#000000" stroke="none" d="M135 160 c-3 -5 -1 -10 4 -10 13 0 10
-22 -4 -33 -5 -4 4 -5 20 -1 40 9 54 23 18 18 l-28 -4 28 11 c15 6 25 15 21
20 -7 12 -51 12 -59 -1z"/>
<path fill="#ffffff" stroke="none" d="M177 154 c-3 -3 -12 -4 -19 -1 -8 3 -5
6 6 6 11 1 17 -2 13 -5z"/>
<path fill="#000000" stroke="none" d="M50 145 c0 -8 5 -15 10 -15 13 0 13
-41 0 -74 -5 -15 -6 -26 -1 -26 12 0 21 45 19 93 -1 23 -6 37 -15 37 -7 0 -13
-7 -13 -15z"/>
<path fill="#000000" stroke="none" d="M216 141 c-4 -7 -5 -15 -2 -18 9 -9 19
4 14 18 -4 11 -6 11 -12 0z"/>
<path fill="#000000" stroke="none" d="M130 76 c0 -22 3 -27 11 -19 8 8 8 16
0 30 -9 16 -10 14 -11 -11z"/>
<path fill="#000000" stroke="none" d="M194 85 c-9 -22 1 -29 15 -11 8 10 9
16 1 21 -5 3 -13 -1 -16 -10z"/>
<path fill="#000000" stroke="none" d="M206 35 c4 -8 11 -15 16 -15 6 0 5 6
-2 15 -16 19 -21 19 -14 0z"/>
<path fill="#000000" stroke="none" d="M120 30 c-13 -8 -12 -10 3 -10 9 0 17
5 17 10 0 12 -1 12 -20 0z"/>
</g>
</svg>
