<?xml version="1.0" standalone="no"?>
<!DOCTYPE svg PUBLIC "-//W3C//DTD SVG 20010904//EN"
 "http://www.w3.org/TR/2001/REC-SVG-20010904/DTD/svg10.dtd">
<svg version="1.0" xmlns="http://www.w3.org/2000/svg"
 width="32.000000pt" height="32.000000pt" viewBox="0 0 32.000000 32.000000"
 preserveAspectRatio="xMidYMid meet">
<metadata>
Created by potrace 1.16, written by Peter Selinger 2001-2019
</metadata>
<g transform="translate(0.000000,32.000000) scale(0.100000,-0.100000)"
fill="#000000" stroke="none">
<path fill="#000000" stroke="none" d="M0 160 l0 -160 160 0 160 0 0 159 0
160 -160 0 -160 1 0 -160z"/>
<path fill="#ffffff" stroke="none" d="M130 295 c0 -8 -5 -15 -11 -15 -5 0 -7
-4 -4 -10 3 -5 1 -10 -5 -10 -6 0 -8 -4 -5 -10 4 -6 -6 -10 -22 -11 -20 0 -23
-2 -12 -7 13 -5 14 -10 5 -18 -8 -8 -15 -7 -24 2 -9 10 -8 16 4 29 9 8 19 13
24 10 5 -3 11 4 15 15 3 11 11 20 16 20 6 0 7 5 4 10 -3 6 -1 10 4 10 6 0 11
-7 11 -15z"/>
<path fill="#ffffff" stroke="none" d="M240 288 c0 -5 5 -6 12 -2 8 5 9 2 5
-9 -3 -10 -2 -17 2 -17 5 0 12 6 14 13 3 6 6 2 6 -10 1 -12 7 -24 14 -26 6 -3
-4 -5 -23 -6 -28 0 -31 2 -15 9 19 8 19 9 -3 9 -13 1 -21 5 -18 9 2 4 1 14 -5
22 -6 12 -9 12 -9 2 0 -10 -3 -10 -15 2 -21 20 -19 24 10 18 14 -2 25 -9 25
-14z"/>
<path fill="#ffffff" stroke="none" d="M212 243 c29 -40 38 -62 48 -131 7 -45
10 -85 7 -88 -10 -10 -167 -13 -167 -3 0 5 -11 9 -25 9 -22 0 -24 2 -15 26 13
33 13 74 0 74 -17 0 -11 25 10 38 11 7 20 18 20 26 0 7 10 21 21 32 12 10 25
29 30 42 13 33 31 27 71 -25z"/>
<path fill="#ffffff" stroke="none" d="M280 205 c0 -8 -2 -15 -4 -15 -2 0 -6
7 -10 15 -3 8 -1 15 4 15 6 0 10 -7 10 -15z"/>
</g>
</svg>
