<?xml version="1.0" standalone="no"?>
<!DOCTYPE svg PUBLIC "-//W3C//DTD SVG 20010904//EN"
 "http://www.w3.org/TR/2001/REC-SVG-20010904/DTD/svg10.dtd">
<svg version="1.0" xmlns="http://www.w3.org/2000/svg"
 width="32.000000pt" height="32.000000pt" viewBox="0 0 32.000000 32.000000"
 preserveAspectRatio="xMidYMid meet">
<metadata>
Created by potrace 1.16, written by Peter Selinger 2001-2019
</metadata>
<g transform="translate(0.000000,32.000000) scale(0.100000,-0.100000)"
fill="#000000" stroke="none">
<path fill="#000000" stroke="none" d="M0 160 l0 -160 160 0 160 0 0 160 0
160 -160 0 -160 0 0 -160z"/>
<path fill="#ffffff" stroke="none" d="M172 285 c3 -16 1 -25 -7 -25 -8 0 -10
9 -7 25 2 14 6 25 7 25 1 0 5 -11 7 -25z"/>
<path fill="#ffffff" stroke="none" d="M140 268 c0 -16 -30 -7 -39 11 -10 17
-9 18 14 7 14 -6 25 -14 25 -18z"/>
<path fill="#ffffff" stroke="none" d="M230 280 c-6 -11 -17 -20 -25 -20 -30
0 -13 19 33 39 1 0 -2 -8 -8 -19z"/>
<path fill="#ffffff" stroke="none" d="M225 240 c7 -11 -14 -44 -23 -36 -2 3
-14 1 -24 -5 -15 -8 -23 -8 -32 2 -8 9 -8 10 1 5 15 -8 45 3 37 15 -7 13 4 29
21 29 8 0 17 -5 20 -10z"/>
<path fill="#ffffff" stroke="none" d="M130 221 c-14 -27 -27 -34 -36 -20 -4
8 -3 9 4 5 6 -3 16 3 22 14 6 11 13 20 16 20 2 0 0 -9 -6 -19z"/>
<path fill="#ffffff" stroke="none" d="M250 175 c0 -5 -5 -3 -10 5 -5 8 -10
20 -10 25 0 6 5 3 10 -5 5 -8 10 -19 10 -25z"/>
<path fill="#ffffff" stroke="none" d="M189 151 c11 -7 10 -10 -6 -15 -27 -9
-60 3 -41 15 17 11 29 11 47 0z"/>
<path fill="#ffffff" stroke="none" d="M257 138 c-3 -8 -6 -5 -6 6 -1 11 2 17
5 13 3 -3 4 -12 1 -19z"/>
<path fill="#ffffff" stroke="none" d="M267 88 c-3 -8 -6 -5 -6 6 -1 11 2 17
5 13 3 -3 4 -12 1 -19z"/>
</g>
</svg>
