<?xml version="1.0" standalone="no"?>
<!DOCTYPE svg PUBLIC "-//W3C//DTD SVG 20010904//EN"
 "http://www.w3.org/TR/2001/REC-SVG-20010904/DTD/svg10.dtd">
<svg version="1.0" xmlns="http://www.w3.org/2000/svg"
 width="32.000000pt" height="32.000000pt" viewBox="0 0 32.000000 32.000000"
 preserveAspectRatio="xMidYMid meet">
<metadata>
Created by potrace 1.16, written by Peter Selinger 2001-2019
</metadata>
<g transform="translate(0.000000,32.000000) scale(0.100000,-0.100000)"
fill="#000000" stroke="none">
<path fill="#000000" stroke="none" d="M147 292 c-15 -14 -21 -15 -38 -4 -18
12 -19 11 -10 -6 15 -28 117 -28 132 0 9 17 8 18 -10 6 -16 -10 -23 -9 -39 5
-17 16 -19 16 -35 -1z"/>
<path fill="#000000" stroke="none" d="M140 250 c0 -5 5 -10 11 -10 5 0 7 5 4
10 -3 6 -8 10 -11 10 -2 0 -4 -4 -4 -10z"/>
<path fill="#000000" stroke="none" d="M175 250 c-3 -4 3 -18 13 -30 16 -20
19 -20 31 -6 7 8 10 19 7 24 -8 13 -45 22 -51 12z"/>
<path fill="#000000" stroke="none" d="M89 205 c-12 -25 -26 -45 -31 -45 -4 0
-8 -7 -8 -15 0 -8 5 -15 11 -15 8 0 9 -16 5 -52 -4 -29 -4 -50 -1 -46 3 3 10
34 15 69 5 35 14 65 20 67 7 3 7 9 -2 20 -8 10 -9 13 -1 9 13 -8 45 31 37 45
-11 17 -23 7 -45 -37z"/>
<path fill="#000000" stroke="none" d="M136 215 c-3 -8 -3 -22 0 -30 3 -8 1
-28 -4 -44 -10 -27 -8 -31 16 -39 20 -6 35 -4 59 10 l31 19 12 -55 c6 -31 14
-56 17 -56 9 0 -5 121 -18 158 -13 39 -34 37 -35 -4 -2 -47 -4 -54 -12 -54 -5
0 -7 18 -6 40 1 31 -3 44 -19 55 -27 19 -33 19 -41 0z"/>
<path fill="#000000" stroke="none" d="M124 55 c1 -50 3 -53 22 -27 16 20 19
66 4 57 -5 -3 -10 -1 -10 4 0 6 -4 11 -8 11 -5 0 -8 -20 -8 -45z"/>
<path fill="#000000" stroke="none" d="M193 70 c4 -18 7 -36 7 -41 0 -5 6 -9
13 -9 19 0 7 72 -12 78 -11 4 -13 -3 -8 -28z"/>
</g>
</svg>
