<?xml version="1.0" standalone="no"?>
<!DOCTYPE svg PUBLIC "-//W3C//DTD SVG 20010904//EN"
 "http://www.w3.org/TR/2001/REC-SVG-20010904/DTD/svg10.dtd">
<svg version="1.0" xmlns="http://www.w3.org/2000/svg"
 width="32.000000pt" height="32.000000pt" viewBox="0 0 32.000000 32.000000"
 preserveAspectRatio="xMidYMid meet">
<metadata>
Created by potrace 1.16, written by Peter Selinger 2001-2019
</metadata>
<g transform="translate(0.000000,32.000000) scale(0.100000,-0.100000)"
fill="#000000" stroke="none">
<path fill="#000000" stroke="none" d="M147 292 c-15 -14 -21 -15 -38 -4 -19
12 -19 11 -9 -8 13 -25 28 -26 47 -2 14 16 14 16 9 0 -3 -12 0 -18 9 -18 9 0
12 6 9 18 -5 16 -5 16 9 0 19 -24 34 -23 47 2 10 19 10 20 -9 8 -16 -10 -23
-9 -39 5 -17 16 -19 16 -35 -1z"/>
<path fill="#000000" stroke="none" d="M104 239 c-3 -6 -3 -13 0 -16 3 -4 6
-1 6 5 0 7 5 12 10 12 7 0 7 -7 0 -20 -6 -11 -15 -18 -20 -15 -6 3 -15 -5 -22
-19 -6 -14 -15 -26 -20 -26 -4 0 -8 -4 -8 -8 0 -4 9 -8 19 -8 11 0 17 4 15 8
-7 11 6 51 13 44 4 -3 12 -1 19 5 9 8 16 5 24 -12 10 -17 14 -19 21 -8 7 12 9
11 9 -1 0 -13 1 -13 10 0 14 22 12 33 -5 26 -19 -7 -45 3 -45 16 0 6 7 5 15
-2 9 -7 18 -10 22 -7 3 4 -2 9 -11 13 -9 3 -14 9 -12 13 3 4 -4 7 -14 8 -11 1
-22 -3 -26 -8z"/>
<path fill="#000000" stroke="none" d="M184 239 c-4 -7 9 -27 30 -46 28 -27
36 -43 37 -71 1 -20 5 -50 10 -67 6 -22 7 -14 4 30 -6 80 -23 128 -43 120 -12
-4 -13 -3 -3 9 7 8 10 20 6 26 -8 13 -32 13 -41 -1z"/>
<path fill="#000000" stroke="none" d="M143 153 c-7 -2 -13 -9 -13 -14 0 -6 4
-8 9 -5 5 4 11 1 13 -5 3 -9 10 -9 27 1 19 10 21 14 10 21 -15 9 -27 10 -46 2z"/>
<path fill="#000000" stroke="none" d="M217 143 c-10 -9 -9 -23 2 -23 5 0 11
7 15 15 5 15 -5 20 -17 8z"/>
<path fill="#000000" stroke="none" d="M72 110 c0 -14 2 -19 5 -12 2 6 2 18 0
25 -3 6 -5 1 -5 -13z"/>
<path fill="#000000" stroke="none" d="M190 95 c0 -5 5 -17 10 -25 5 -8 10
-10 10 -5 0 6 -5 17 -10 25 -5 8 -10 11 -10 5z"/>
<path fill="#000000" stroke="none" d="M61 54 c0 -11 3 -14 6 -6 3 7 2 16 -1
19 -3 4 -6 -2 -5 -13z"/>
<path fill="#000000" stroke="none" d="M130 29 c0 -5 5 -7 10 -4 6 3 10 8 10
11 0 2 -4 4 -10 4 -5 0 -10 -5 -10 -11z"/>
<path fill="#000000" stroke="none" d="M205 30 c3 -5 8 -10 11 -10 2 0 4 5 4
10 0 6 -5 10 -11 10 -5 0 -7 -4 -4 -10z"/>
</g>
</svg>
