<?xml version="1.0" standalone="no"?>
<!DOCTYPE svg PUBLIC "-//W3C//DTD SVG 20010904//EN"
 "http://www.w3.org/TR/2001/REC-SVG-20010904/DTD/svg10.dtd">
<svg version="1.0" xmlns="http://www.w3.org/2000/svg"
 width="32.000000pt" height="32.000000pt" viewBox="0 0 32.000000 32.000000"
 preserveAspectRatio="xMidYMid meet">
<metadata>
Created by potrace 1.16, written by Peter Selinger 2001-2019
</metadata>
<g transform="translate(0.000000,32.000000) scale(0.100000,-0.100000)"
fill="#000000" stroke="none">
<path fill="#000000" stroke="none" d="M31 155 l-1 -155 130 0 130 0 0 155 0
155 -130 0 -129 0 0 -155z"/>
<path fill="#ffffff" stroke="none" d="M188 266 c2 -15 15 -38 29 -50 22 -19
25 -28 19 -59 -9 -47 -26 -48 -23 -2 1 18 -2 33 -8 32 -21 -4 -6 -130 18 -153
11 -12 8 -21 -7 -21 -8 0 -14 3 -14 6 3 11 -44 81 -54 81 -6 0 -8 -12 -4 -30
4 -22 2 -29 -6 -24 -7 5 -9 1 -6 -12 4 -14 0 -20 -13 -20 -10 0 -16 3 -13 7 2
4 1 9 -3 12 -5 2 -3 3 2 2 6 -2 10 29 11 76 0 73 -6 94 -21 69 -10 -17 -55
-12 -55 6 0 10 6 14 14 11 17 -7 61 25 77 55 8 15 8 19 0 14 -12 -8 -15 16 -4
28 4 4 19 6 33 4 19 -2 26 -9 28 -32z"/>
<path fill="#ffffff" stroke="none" d="M109 244 c9 -8 -23 -34 -41 -34 -14 0
-18 5 -14 16 3 9 6 20 6 25 0 9 37 3 49 -7z"/>
<path fill="#ffffff" stroke="none" d="M101 136 c-6 -7 -9 -22 -6 -34 5 -27
-9 -36 -25 -17 -7 8 -10 15 -6 15 4 0 0 13 -8 28 -13 26 -13 28 6 29 12 1 26
7 32 13 15 15 22 -16 7 -34z"/>
<path fill="#ffffff" stroke="none" d="M207 158 c-3 -8 -6 -5 -6 6 -1 11 2 17
5 13 3 -3 4 -12 1 -19z"/>
<path fill="#ffffff" stroke="none" d="M278 97 c3 -16 1 -17 -16 -6 -16 10
-24 10 -35 1 -12 -10 -16 -10 -20 2 -4 9 1 17 11 19 32 9 57 2 60 -16z"/>
<path fill="#ffffff" stroke="none" d="M170 55 c0 -5 -5 -3 -10 5 -5 8 -10 20
-10 25 0 6 5 3 10 -5 5 -8 10 -19 10 -25z"/>
<path fill="#ffffff" stroke="none" d="M110 60 c0 -5 -5 -10 -11 -10 -5 0 -7
5 -4 10 3 6 8 10 11 10 2 0 4 -4 4 -10z"/>
<path fill="#ffffff" stroke="none" d="M177 14 c-3 -3 -12 -4 -19 -1 -8 3 -5
6 6 6 11 1 17 -2 13 -5z"/>
<path fill="#000000" stroke="none" d="M166 277 c3 -10 9 -15 12 -12 3 3 0 11
-7 18 -10 9 -11 8 -5 -6z"/>
<path fill="#000000" stroke="none" d="M150 230 c-9 -6 -10 -10 -3 -10 6 0 15
5 18 10 8 12 4 12 -15 0z"/>
</g>
</svg>
