<?xml version="1.0" standalone="no"?>
<!DOCTYPE svg PUBLIC "-//W3C//DTD SVG 20010904//EN"
 "http://www.w3.org/TR/2001/REC-SVG-20010904/DTD/svg10.dtd">
<svg version="1.0" xmlns="http://www.w3.org/2000/svg"
 width="32.000000pt" height="32.000000pt" viewBox="0 0 32.000000 32.000000"
 preserveAspectRatio="xMidYMid meet">
<metadata>
Created by potrace 1.16, written by Peter Selinger 2001-2019
</metadata>
<g transform="translate(0.000000,32.000000) scale(0.100000,-0.100000)"
fill="#000000" stroke="none">
<path fill="#000000" stroke="none" d="M30 155 l0 -155 130 0 130 0 0 155 0
155 -130 0 -130 0 0 -155z"/>
<path fill="#ffffff" stroke="none" d="M150 260 c-6 -11 -13 -20 -15 -20 -2 0
-3 9 -2 20 1 11 7 20 14 20 11 0 11 -5 3 -20z"/>
<path fill="#ffffff" stroke="none" d="M135 173 c0 -34 -5 -58 -12 -60 -9 -3
-11 24 -3 35 7 7 5 29 -2 45 -5 9 -6 22 -3 27 14 23 21 7 20 -47z"/>
<path fill="#ffffff" stroke="none" d="M203 223 c4 -3 2 -11 -3 -18 -5 -6 -11
-22 -14 -36 -2 -14 -9 -23 -17 -21 -8 2 -10 0 -6 -5 5 -4 14 -8 20 -8 5 0 12
-6 15 -12 5 -16 -24 -17 -34 -2 -25 41 9 132 39 102z"/>
<path fill="#ffffff" stroke="none" d="M86 195 c-24 -18 -33 -19 -42 -3 -5 7
-2 9 8 6 8 -4 21 -2 29 3 22 14 26 10 5 -6z"/>
<path fill="#ffffff" stroke="none" d="M240 175 c0 -5 -5 -3 -10 5 -5 8 -10
20 -10 25 0 6 5 3 10 -5 5 -8 10 -19 10 -25z"/>
<path fill="#ffffff" stroke="none" d="M230 140 c0 -5 -2 -10 -4 -10 -3 0 -8
5 -11 10 -3 6 -1 10 4 10 6 0 11 -4 11 -10z"/>
<path fill="#000000" stroke="none" d="M165 171 c-3 -5 -2 -12 3 -15 5 -3 9 1
9 9 0 17 -3 19 -12 6z"/>
</g>
</svg>
