<?xml version="1.0" standalone="no"?>
<!DOCTYPE svg PUBLIC "-//W3C//DTD SVG 20010904//EN"
 "http://www.w3.org/TR/2001/REC-SVG-20010904/DTD/svg10.dtd">
<svg version="1.0" xmlns="http://www.w3.org/2000/svg"
 width="32.000000pt" height="32.000000pt" viewBox="0 0 32.000000 32.000000"
 preserveAspectRatio="xMidYMid meet">
<metadata>
Created by potrace 1.16, written by Peter Selinger 2001-2019
</metadata>
<g transform="translate(0.000000,32.000000) scale(0.100000,-0.100000)"
fill="#000000" stroke="none">
<path fill="#000000" stroke="none" d="M117 302 c-10 -10 -17 -32 -17 -49 0
-17 -8 -38 -20 -48 -11 -10 -20 -26 -20 -35 0 -10 -7 -20 -15 -24 -17 -6 -20
-32 -5 -41 6 -4 22 1 35 9 28 18 32 11 10 -18 -8 -11 -15 -30 -15 -42 0 -13
-5 -26 -10 -29 -21 -13 -9 -25 24 -25 31 0 34 3 40 39 8 50 27 67 49 43 9 -10
20 -33 23 -50 6 -27 11 -32 35 -32 29 0 38 13 19 25 -12 8 -13 55 -1 55 17 0
21 50 7 82 -7 18 -25 44 -40 57 -14 14 -26 34 -26 46 0 22 -28 55 -47 55 -5 0
-17 -8 -26 -18z"/>
<path fill="#ffffff" stroke="none" d="M168 298 c7 -7 12 -27 12 -44 0 -25 -5
-34 -22 -40 -13 -5 -26 -7 -30 -6 -5 1 -8 -8 -7 -20 0 -13 3 -17 6 -9 5 11 7
11 14 0 7 -11 9 -11 9 2 0 9 10 23 23 31 22 15 22 15 22 -39 0 -47 -3 -55 -22
-59 -37 -10 -58 -1 -55 23 2 12 -2 24 -8 28 -5 3 -10 -1 -10 -9 0 -8 -10 -22
-22 -30 -26 -18 -38 -20 -38 -6 0 16 37 49 46 42 5 -4 3 0 -4 9 -10 13 -8 19
8 34 12 11 20 31 20 50 0 31 15 55 35 55 6 0 16 -5 23 -12z"/>
<path fill="#ffffff" stroke="none" d="M243 167 c11 -22 16 -45 12 -57 -9 -30
-31 -18 -27 14 2 16 -3 29 -13 32 -18 7 -21 58 -2 52 6 -2 20 -21 30 -41z"/>
<path fill="#ffffff" stroke="none" d="M220 134 c0 -8 -4 -12 -10 -9 -5 3 -10
10 -10 16 0 5 5 9 10 9 6 0 10 -7 10 -16z"/>
<path fill="#ffffff" stroke="none" d="M123 104 c13 -5 13 -9 1 -32 -8 -15
-14 -35 -14 -44 0 -13 -8 -18 -27 -17 -16 0 -22 3 -15 6 6 2 12 16 12 29 0 23
16 64 25 64 2 0 10 -3 18 -6z"/>
<path fill="#ffffff" stroke="none" d="M223 75 c5 -17 13 -38 18 -48 7 -13 5
-17 -10 -17 -13 0 -21 9 -26 29 -3 16 -13 35 -21 41 -17 15 -8 32 14 28 9 -2
21 -17 25 -33z"/>
<path fill="#000000" stroke="none" d="M118 236 c-4 -18 -1 -23 11 -21 9 1 17
12 19 23 5 31 -24 28 -30 -2z"/>
</g>
</svg>
