<?xml version="1.0" standalone="no"?>
<!DOCTYPE svg PUBLIC "-//W3C//DTD SVG 20010904//EN"
 "http://www.w3.org/TR/2001/REC-SVG-20010904/DTD/svg10.dtd">
<svg version="1.0" xmlns="http://www.w3.org/2000/svg"
 width="32.000000pt" height="32.000000pt" viewBox="0 0 32.000000 32.000000"
 preserveAspectRatio="xMidYMid meet">
<metadata>
Created by potrace 1.16, written by Peter Selinger 2001-2019
</metadata>
<g transform="translate(0.000000,32.000000) scale(0.100000,-0.100000)"
fill="#000000" stroke="none">
<path fill="#000000" stroke="none" d="M134 283 c-13 -14 -24 -31 -24 -38 0
-13 49 -40 64 -36 5 1 4 -4 -3 -13 -8 -10 -9 -16 -1 -21 9 -6 14 1 11 18 0 4
3 7 7 7 5 0 17 7 28 16 19 15 19 15 -2 5 -26 -12 -45 -10 -75 11 -20 13 -22
18 -11 31 8 9 21 13 30 10 15 -4 15 -3 2 6 -12 9 -9 11 15 11 24 0 27 -2 15
-11 -10 -7 -11 -9 -2 -7 20 5 16 21 -8 30 -16 6 -27 2 -46 -19z"/>
<path fill="#000000" stroke="none" d="M150 251 c0 -6 5 -13 10 -16 6 -3 10 1
10 9 0 9 -4 16 -10 16 -5 0 -10 -4 -10 -9z"/>
<path fill="#000000" stroke="none" d="M180 244 c0 -8 5 -12 10 -9 6 3 10 10
10 16 0 5 -4 9 -10 9 -5 0 -10 -7 -10 -16z"/>
<path fill="#000000" stroke="none" d="M131 194 c12 -15 11 -16 -8 -10 -22 7
-63 -22 -63 -44 0 -17 22 -11 27 8 2 10 13 18 24 19 19 2 22 -4 22 -39 0 -10
3 -18 7 -18 4 0 5 -11 2 -25 -2 -14 1 -31 7 -39 10 -12 9 -13 -7 -9 -11 2 -23
0 -27 -7 -11 -17 0 -22 27 -11 32 12 42 36 23 55 -21 21 -19 26 13 26 21 0 27
-5 28 -22 3 -44 11 -63 27 -66 21 -4 22 14 2 22 -8 3 -12 12 -9 20 8 20 -17
76 -34 76 -7 0 -10 4 -7 10 3 5 0 7 -8 4 -7 -2 -14 1 -14 8 -1 35 -16 57 -37
58 -5 0 -2 -7 5 -16z"/>
<path fill="#ffffff" stroke="none" d="M180 125 c24 -13 24 -14 4 -15 -12 0
-27 7 -34 15 -16 19 -3 19 30 0z"/>
<path fill="#000000" stroke="none" d="M230 165 c-11 -13 -10 -14 4 -9 9 3 16
10 16 15 0 13 -6 11 -20 -6z"/>
<path fill="#000000" stroke="none" d="M91 97 c-1 -16 -6 -37 -11 -48 -7 -12
-7 -19 -1 -19 12 0 25 63 18 82 -3 7 -6 0 -6 -15z"/>
<path fill="#000000" stroke="none" d="M265 65 c4 -11 8 -25 8 -32 0 -7 4 -10
9 -7 4 3 3 15 -3 27 -16 30 -24 37 -14 12z"/>
</g>
</svg>
