<?xml version="1.0" standalone="no"?>
<!DOCTYPE svg PUBLIC "-//W3C//DTD SVG 20010904//EN"
 "http://www.w3.org/TR/2001/REC-SVG-20010904/DTD/svg10.dtd">
<svg version="1.0" xmlns="http://www.w3.org/2000/svg"
 width="32.000000pt" height="32.000000pt" viewBox="0 0 32.000000 32.000000"
 preserveAspectRatio="xMidYMid meet">
<metadata>
Created by potrace 1.16, written by Peter Selinger 2001-2019
</metadata>
<g transform="translate(0.000000,32.000000) scale(0.100000,-0.100000)"
fill="#000000" stroke="none">
<path fill="#000000" stroke="none" d="M0 160 l0 -160 33 0 c44 0 53 12 49 59
-4 36 -7 40 -35 43 -27 2 -33 8 -35 31 -3 22 1 30 17 34 14 3 23 17 27 39 3
19 10 34 15 34 5 0 9 8 9 18 0 10 7 27 15 38 15 19 15 19 9 -1 -6 -16 -5 -18
7 -7 19 18 46 15 69 -8 20 -20 28 -56 10 -45 -6 4 -9 1 -8 -6 2 -6 -2 -13 -9
-16 -12 -4 -12 21 0 33 12 12 8 32 -8 38 -13 5 -15 -2 -12 -38 4 -38 1 -48
-21 -67 l-25 -22 24 -18 c27 -21 45 -24 54 -9 3 6 -4 14 -17 19 -13 6 -17 10
-9 10 7 1 11 7 8 15 -4 9 5 21 20 31 21 14 24 22 20 52 -5 29 -4 33 8 23 8 -7
12 -16 9 -22 -3 -5 0 -15 6 -23 7 -8 9 -15 5 -15 -5 0 0 -9 10 -20 10 -11 22
-17 27 -14 5 3 2 15 -8 25 -16 18 -16 19 2 19 17 0 16 3 -6 20 -21 16 -23 21
-11 32 12 11 13 10 7 -7 -6 -15 -4 -17 5 -8 17 17 0 36 -27 29 -16 -4 -23 -2
-22 5 2 9 -29 13 -104 16 l-108 3 0 -160z"/>
<path fill="#ffffff" stroke="none" d="M205 300 c-3 -5 -12 -7 -20 -3 -21 7
-19 13 6 13 11 0 18 -4 14 -10z"/>
<path fill="#000000" stroke="none" d="M259 309 c16 -6 22 -15 18 -29 -3 -10
1 -24 9 -31 14 -12 20 -99 7 -99 -5 0 -8 -22 -8 -49 0 -39 4 -51 18 -55 16 -4
17 7 17 135 l0 139 -42 -1 c-38 0 -40 -1 -19 -10z"/>
<path fill="#000000" stroke="none" d="M121 281 c-9 -6 -11 -15 -6 -27 4 -11
9 -25 11 -32 3 -18 -28 -11 -33 8 -4 13 -3 13 7 0 10 -13 11 -12 6 3 -3 10 -6
26 -7 35 -1 17 -16 -21 -18 -46 -1 -12 39 -34 48 -26 4 4 13 94 9 94 -2 0 -9
-4 -17 -9z"/>
<path fill="#000000" stroke="none" d="M200 195 c-17 -20 3 -45 30 -38 25 7
25 15 1 37 -16 15 -19 15 -31 1z"/>
<path fill="#000000" stroke="none" d="M60 191 c0 -17 30 -25 43 -12 8 8 8 11
0 11 -6 0 -18 3 -27 6 -9 3 -16 1 -16 -5z"/>
<path fill="#000000" stroke="none" d="M38 163 c-10 -2 -18 -11 -18 -19 0 -19
17 -18 29 4 6 9 11 11 11 5 0 -7 0 -16 1 -20 0 -5 -10 -11 -23 -15 -22 -6 -22
-6 4 -7 15 -1 29 3 32 7 6 11 -4 52 -13 51 -3 -1 -14 -3 -23 -6z"/>
<path fill="#000000" stroke="none" d="M80 152 c0 -12 45 -42 62 -42 8 1 5 7
-7 16 -33 25 -55 36 -55 26z"/>
<path fill="#000000" stroke="none" d="M230 139 c0 -19 13 -39 26 -39 8 0 14
-5 14 -12 0 -6 2 -9 5 -6 10 10 -16 65 -30 65 -8 0 -15 -4 -15 -8z"/>
<path fill="#000000" stroke="none" d="M90 110 c0 -22 47 -33 80 -20 30 12 44
37 14 26 -38 -14 -62 -17 -68 -7 -9 14 -26 14 -26 1z"/>
<path fill="#000000" stroke="none" d="M222 64 c-5 -19 -6 -32 -1 -28 5 3 9
12 9 20 0 8 7 14 15 14 9 0 12 -6 8 -17 -4 -14 -3 -15 6 -7 13 12 6 40 -13 47
-8 3 -17 -8 -24 -29z"/>
<path fill="#000000" stroke="none" d="M90 72 c0 -18 18 -42 32 -42 17 0 7 40
-12 50 -17 9 -20 8 -20 -8z"/>
<path fill="#000000" stroke="none" d="M171 81 c-18 -12 3 -53 24 -45 16 7 18
14 9 38 -7 18 -13 19 -33 7z"/>
<path fill="#000000" stroke="none" d="M145 39 c-4 -6 -5 -12 -2 -15 2 -3 7 2
10 11 7 17 1 20 -8 4z"/>
<path fill="#000000" stroke="none" d="M90 14 c-10 -11 -9 -14 8 -14 25 0 37
16 18 23 -8 3 -20 -1 -26 -9z"/>
<path fill="#000000" stroke="none" d="M187 24 c-11 -11 3 -24 25 -24 17 0 18
2 8 15 -13 16 -23 19 -33 9z"/>
</g>
</svg>
