<?xml version="1.0" standalone="no"?>
<!DOCTYPE svg PUBLIC "-//W3C//DTD SVG 20010904//EN"
 "http://www.w3.org/TR/2001/REC-SVG-20010904/DTD/svg10.dtd">
<svg version="1.0" xmlns="http://www.w3.org/2000/svg"
 width="32.000000pt" height="32.000000pt" viewBox="0 0 32.000000 32.000000"
 preserveAspectRatio="xMidYMid meet">
<metadata>
Created by potrace 1.16, written by Peter Selinger 2001-2019
</metadata>
<g transform="translate(0.000000,32.000000) scale(0.100000,-0.100000)"
fill="#000000" stroke="none">
<path fill="#000000" stroke="none" d="M0 160 l0 -160 160 0 160 0 0 160 0
160 -160 0 -160 0 0 -160z"/>
<path fill="#ffffff" stroke="none" d="M184 294 c29 -11 16 -24 -19 -19 -21 2
-33 0 -30 -5 4 -6 1 -10 -4 -10 -6 0 -11 5 -11 10 0 9 13 17 47 29 1 1 8 -2
17 -5z"/>
<path fill="#ffffff" stroke="none" d="M225 281 c3 -5 2 -12 -3 -15 -5 -3 -9
1 -9 9 0 17 3 19 12 6z"/>
<path fill="#ffffff" stroke="none" d="M170 251 c0 -5 -6 -11 -12 -14 -10 -3
-10 -8 1 -21 12 -15 16 -15 31 -1 9 8 21 15 26 15 18 -1 41 -45 47 -90 l6 -45
-15 40 c-18 50 -47 80 -65 69 -20 -12 -40 -14 -33 -2 3 5 -4 12 -15 15 -21 5
-21 6 -4 24 20 20 33 24 33 10z"/>
<path fill="#ffffff" stroke="none" d="M200 256 c0 -3 -4 -8 -10 -11 -5 -3
-10 -1 -10 4 0 6 5 11 10 11 6 0 10 -2 10 -4z"/>
<path fill="#ffffff" stroke="none" d="M107 175 c0 -8 -4 -12 -9 -9 -5 3 -6
10 -3 15 9 13 12 11 12 -6z"/>
<path fill="#ffffff" stroke="none" d="M205 161 c7 -12 -28 -23 -49 -15 -9 3
-13 10 -10 15 7 12 51 12 59 0z"/>
<path fill="#ffffff" stroke="none" d="M88 148 c-6 -18 -28 -21 -28 -4 0 9 7
16 16 16 9 0 14 -5 12 -12z"/>
<path fill="#ffffff" stroke="none" d="M236 123 c-10 -10 -19 5 -10 18 6 11 8
11 12 0 2 -7 1 -15 -2 -18z"/>
<path fill="#ffffff" stroke="none" d="M95 93 c-3 -16 -10 -32 -15 -37 -5 -5
-4 7 2 27 13 43 23 50 13 10z"/>
<path fill="#ffffff" stroke="none" d="M166 95 c16 -13 16 -14 1 -9 -13 5 -16
2 -11 -9 3 -8 0 -18 -7 -22 -8 -6 -10 -1 -7 18 3 15 0 28 -6 31 -7 3 -7 5 0 5
5 1 19 -6 30 -14z"/>
<path fill="#ffffff" stroke="none" d="M230 86 c0 -2 -7 -9 -15 -16 -12 -10
-15 -10 -15 4 0 9 7 16 15 16 8 0 15 -2 15 -4z"/>
<path fill="#ffffff" stroke="none" d="M230 35 c7 -9 8 -15 2 -15 -5 0 -12 7
-16 15 -3 8 -4 15 -2 15 2 0 9 -7 16 -15z"/>
<path fill="#ffffff" stroke="none" d="M150 30 c0 -5 -8 -10 -17 -10 -15 0
-16 2 -3 10 19 12 20 12 20 0z"/>
</g>
</svg>
