<?xml version="1.0" standalone="no"?>
<!DOCTYPE svg PUBLIC "-//W3C//DTD SVG 20010904//EN"
 "http://www.w3.org/TR/2001/REC-SVG-20010904/DTD/svg10.dtd">
<svg version="1.0" xmlns="http://www.w3.org/2000/svg"
 width="32.000000pt" height="32.000000pt" viewBox="0 0 32.000000 32.000000"
 preserveAspectRatio="xMidYMid meet">
<metadata>
Created by potrace 1.16, written by Peter Selinger 2001-2019
</metadata>
<g transform="translate(0.000000,32.000000) scale(0.100000,-0.100000)"
fill="#000000" stroke="none">
<path fill="#000000" stroke="none" d="M0 160 l0 -160 160 0 160 0 0 160 0
160 -160 0 -160 0 0 -160z"/>
<path fill="#ffffff" stroke="none" d="M179 286 c11 -14 6 -15 -27 -7 -4 1 8
21 12 21 2 0 9 -6 15 -14z"/>
<path fill="#ffffff" stroke="none" d="M137 275 c0 -8 -4 -12 -9 -9 -5 3 -6
10 -3 15 9 13 12 11 12 -6z"/>
<path fill="#ffffff" stroke="none" d="M160 215 c12 -14 15 -14 31 1 10 9 24
14 31 11 9 -4 8 -6 -3 -6 -9 -1 -22 -8 -29 -16 -11 -13 -15 -14 -29 -2 -9 8
-23 17 -31 20 -13 5 -12 6 1 6 9 1 22 -6 29 -14z"/>
<path fill="#ffffff" stroke="none" d="M260 180 c0 -20 -16 -17 -27 6 -10 21
-9 23 8 13 10 -5 19 -14 19 -19z"/>
<path fill="#ffffff" stroke="none" d="M170 160 c-12 -8 -12 -10 -1 -10 8 0
12 -3 8 -6 -9 -9 -28 6 -22 17 4 5 12 9 18 9 7 0 6 -4 -3 -10z"/>
<path fill="#ffffff" stroke="none" d="M74 145 c-4 -8 -8 -15 -10 -15 -2 0 -4
7 -4 15 0 8 4 15 10 15 5 0 7 -7 4 -15z"/>
<path fill="#ffffff" stroke="none" d="M94 86 c-3 -15 -8 -25 -11 -23 -2 3 -1
17 3 31 3 15 8 25 11 23 2 -3 1 -17 -3 -31z"/>
</g>
</svg>
