<?xml version="1.0" standalone="no"?>
<!DOCTYPE svg PUBLIC "-//W3C//DTD SVG 20010904//EN"
 "http://www.w3.org/TR/2001/REC-SVG-20010904/DTD/svg10.dtd">
<svg version="1.0" xmlns="http://www.w3.org/2000/svg"
 width="32.000000pt" height="32.000000pt" viewBox="0 0 32.000000 32.000000"
 preserveAspectRatio="xMidYMid meet">
<metadata>
Created by potrace 1.16, written by Peter Selinger 2001-2019
</metadata>
<g transform="translate(0.000000,32.000000) scale(0.100000,-0.100000)"
fill="#000000" stroke="none">
<path fill="#000000" stroke="none" d="M0 160 l0 -160 33 0 c18 0 39 6 46 13
10 8 12 8 7 0 -4 -8 1 -11 15 -10 l21 1 -21 14 c-14 10 -21 25 -21 48 0 30 -3
33 -32 36 -28 3 -34 8 -36 31 -3 22 1 30 17 34 14 3 23 17 27 39 7 39 14 42
32 14 13 -21 37 -26 47 -10 4 6 -1 7 -11 3 -11 -4 -22 1 -30 12 -18 25 -18 47
2 71 15 18 15 18 5 -3 -6 -12 -11 -28 -10 -35 0 -7 5 0 11 15 8 24 15 28 41
25 22 -2 36 -11 47 -31 15 -28 14 -29 -30 -68 l-45 -40 25 -18 c13 -11 29 -17
34 -14 5 3 -3 12 -18 20 -29 15 -35 26 -9 16 10 -4 14 -2 10 4 -3 5 7 23 23
38 36 34 37 44 8 80 l-22 28 27 -5 c15 -3 25 -3 22 0 -3 3 -53 7 -110 9 l-105
3 0 -160z"/>
<path fill="#000000" stroke="none" d="M259 309 c16 -6 22 -15 18 -29 -3 -10
1 -24 9 -31 14 -12 20 -99 7 -99 -5 0 -8 -22 -8 -49 0 -39 4 -51 18 -55 16 -4
17 7 17 135 l0 139 -42 -1 c-38 0 -40 -1 -19 -10z"/>
<path fill="#000000" stroke="none" d="M230 290 c-8 -5 -12 -12 -9 -15 4 -3
12 1 19 10 14 17 11 19 -10 5z"/>
<path fill="#000000" stroke="none" d="M120 274 c-11 -12 -11 -18 1 -30 13
-12 15 -10 17 16 3 34 0 36 -18 14z"/>
<path fill="#000000" stroke="none" d="M152 262 c2 -28 4 -30 17 -17 14 13 13
17 -2 32 -17 17 -18 16 -15 -15z"/>
<path fill="#000000" stroke="none" d="M242 244 c10 -10 20 -15 24 -12 3 4 -5
12 -18 18 -22 12 -22 12 -6 -6z"/>
<path fill="#000000" stroke="none" d="M60 189 c0 -5 9 -9 20 -9 11 0 20 2 20
4 0 2 -9 6 -20 9 -11 3 -20 1 -20 -4z"/>
<path fill="#000000" stroke="none" d="M215 190 c-10 -17 12 -37 25 -24 8 8 6
15 -4 23 -10 9 -16 9 -21 1z"/>
<path fill="#000000" stroke="none" d="M38 163 c-10 -2 -18 -11 -18 -19 0 -19
19 -18 26 1 4 8 11 12 17 8 6 -3 7 -1 3 5 -4 7 -8 11 -9 11 -1 -1 -10 -3 -19
-6z"/>
<path fill="#000000" stroke="none" d="M100 130 c26 -21 56 -27 45 -10 -3 6
-13 10 -21 10 -8 0 -14 5 -14 10 0 6 -8 10 -17 10 -15 0 -13 -4 7 -20z"/>
<path fill="#000000" stroke="none" d="M233 107 c-1 -22 4 -34 13 -34 10 0 11
4 3 13 -7 8 -7 14 1 19 14 9 13 35 -3 35 -8 0 -13 -13 -14 -33z"/>
<path fill="#000000" stroke="none" d="M28 113 c7 -3 16 -2 19 1 4 3 -2 6 -13
5 -11 0 -14 -3 -6 -6z"/>
<path fill="#000000" stroke="none" d="M99 119 c-10 -43 -7 -65 11 -77 17 -10
20 -10 20 3 0 8 -4 15 -9 15 -5 0 -11 6 -14 14 -4 10 3 13 25 12 17 0 33 4 35
11 3 7 -3 9 -16 6 -12 -3 -28 0 -36 7 -8 7 -15 11 -16 9z"/>
<path fill="#000000" stroke="none" d="M175 71 c-8 -15 3 -31 21 -31 9 0 14 7
12 17 -4 20 -24 28 -33 14z"/>
<path fill="#000000" stroke="none" d="M200 10 c0 -5 5 -10 11 -10 5 0 7 5 4
10 -3 6 -8 10 -11 10 -2 0 -4 -4 -4 -10z"/>
</g>
</svg>
