<?xml version="1.0" standalone="no"?>
<!DOCTYPE svg PUBLIC "-//W3C//DTD SVG 20010904//EN"
 "http://www.w3.org/TR/2001/REC-SVG-20010904/DTD/svg10.dtd">
<svg version="1.0" xmlns="http://www.w3.org/2000/svg"
 width="32.000000pt" height="32.000000pt" viewBox="0 0 32.000000 32.000000"
 preserveAspectRatio="xMidYMid meet">
<metadata>
Created by potrace 1.16, written by Peter Selinger 2001-2019
</metadata>
<g transform="translate(0.000000,32.000000) scale(0.100000,-0.100000)"
fill="#000000" stroke="none">
<path fill="#000000" stroke="none" d="M95 298 c-8 -12 -15 -30 -15 -40 0 -10
-4 -18 -9 -18 -5 0 -12 -15 -15 -34 -4 -22 -13 -36 -27 -39 -16 -4 -20 -12
-17 -34 2 -23 8 -29 35 -31 28 -3 31 -7 35 -43 2 -22 -1 -45 -7 -51 -5 -7 -1
-5 10 3 20 17 50 15 39 -2 -3 -5 11 -9 31 -9 20 0 34 4 30 9 -10 18 16 23 34
7 10 -9 35 -16 57 -16 33 0 40 3 41 21 1 12 -5 23 -15 26 -13 3 -17 15 -17 54
0 27 3 49 8 49 13 0 7 87 -7 99 -8 7 -12 20 -9 30 7 26 -9 33 -92 37 -67 3
-75 2 -90 -18z"/>
<path fill="#ffffff" stroke="none" d="M180 300 c9 -6 20 -5 29 3 12 9 13 9 7
-1 -6 -10 -2 -11 17 -7 28 7 46 -11 28 -28 -9 -9 -11 -7 -5 8 6 17 5 18 -7 7
-12 -11 -10 -16 11 -32 22 -17 23 -20 6 -20 -18 0 -18 -1 -2 -19 10 -10 13
-22 8 -25 -5 -3 -17 3 -27 14 -10 11 -15 20 -10 20 4 0 2 7 -5 15 -6 8 -9 18
-6 23 3 6 -1 15 -9 22 -12 10 -13 6 -8 -23 4 -30 1 -38 -20 -52 -15 -10 -24
-22 -20 -31 3 -8 -1 -14 -8 -15 -8 0 -4 -4 9 -10 13 -5 20 -13 17 -19 -9 -15
-27 -12 -54 9 l-24 18 25 22 c22 19 25 29 21 67 -3 36 -1 43 12 38 16 -6 20
-26 8 -38 -12 -12 -12 -37 0 -33 7 3 11 10 9 16 -1 7 2 10 8 6 18 -11 10 25
-10 45 -39 39 -88 15 -76 -37 5 -22 4 -25 -4 -13 -10 13 -11 13 -7 0 5 -20 36
-26 33 -6 -1 9 -5 19 -9 22 -12 12 -8 32 8 38 13 5 15 -2 11 -40 -2 -25 -5
-47 -7 -48 -2 -2 -14 0 -27 5 -20 8 -23 13 -17 41 4 18 11 41 17 51 9 18 53
23 78 7z"/>
<path fill="#ffffff" stroke="none" d="M250 170 c0 -15 -40 -18 -51 -4 -9 11
-8 18 1 29 12 14 15 14 31 -1 11 -10 19 -20 19 -24z"/>
<path fill="#ffffff" stroke="none" d="M103 190 c8 0 8 -3 0 -11 -13 -13 -43
-5 -43 12 0 6 7 8 16 5 9 -3 21 -6 27 -6z"/>
<path fill="#ffffff" stroke="none" d="M73 148 c8 -29 1 -38 -31 -37 -26 1
-26 1 -4 7 13 4 23 10 23 15 -1 4 -1 13 -1 20 0 6 -5 4 -11 -5 -12 -22 -29
-23 -29 -4 0 12 12 19 41 25 4 0 9 -9 12 -21z"/>
<path fill="#ffffff" stroke="none" d="M135 126 c12 -9 15 -15 7 -16 -17 0
-62 30 -62 42 0 10 22 -1 55 -26z"/>
<path fill="#ffffff" stroke="none" d="M270 117 c5 -17 8 -33 5 -35 -3 -3 -5
0 -5 6 0 7 -6 12 -14 12 -13 0 -26 20 -26 39 0 21 31 4 40 -22z"/>
<path fill="#ffffff" stroke="none" d="M116 109 c6 -10 30 -7 68 7 30 11 16
-14 -14 -26 -33 -13 -80 -2 -80 20 0 13 17 13 26 -1z"/>
<path fill="#ffffff" stroke="none" d="M265 73 c3 -9 0 -21 -6 -27 -9 -8 -10
-7 -6 7 4 11 1 17 -7 17 -8 0 -16 -8 -18 -18 -7 -24 -47 -22 -60 2 -8 13 -7
21 3 27 22 14 27 11 37 -18 l9 -28 7 32 c8 33 29 36 41 6z"/>
<path fill="#ffffff" stroke="none" d="M130 50 c0 -11 -4 -20 -8 -20 -14 0
-32 24 -32 42 0 16 3 17 20 8 11 -6 20 -20 20 -30z"/>
<path fill="#ffffff" stroke="none" d="M153 35 c-3 -9 -8 -14 -10 -11 -3 3 -2
9 2 15 9 16 15 13 8 -4z"/>
</g>
</svg>
