<?xml version="1.0" standalone="no"?>
<!DOCTYPE svg PUBLIC "-//W3C//DTD SVG 20010904//EN"
 "http://www.w3.org/TR/2001/REC-SVG-20010904/DTD/svg10.dtd">
<svg version="1.0" xmlns="http://www.w3.org/2000/svg"
 width="32.000000pt" height="32.000000pt" viewBox="0 0 32.000000 32.000000"
 preserveAspectRatio="xMidYMid meet">
<metadata>
Created by potrace 1.16, written by Peter Selinger 2001-2019
</metadata>
<g transform="translate(0.000000,32.000000) scale(0.100000,-0.100000)"
fill="#000000" stroke="none">
<path fill="#000000" stroke="none" d="M2 158 l2 -163 3 158 4 157 42 0 c27 0
37 -3 28 -9 -9 -6 -12 -23 -10 -55 2 -25 1 -46 -2 -46 -4 0 -10 -7 -13 -16 -5
-12 -1 -14 15 -9 11 4 26 1 34 -5 8 -7 15 -11 16 -9 7 37 7 41 -3 31 -8 -8
-15 -7 -24 6 -16 20 -18 36 -4 27 14 -9 12 18 -2 35 -11 12 -10 12 5 1 14 -11
17 -11 17 1 0 8 9 23 20 33 19 17 21 17 40 0 13 -11 18 -27 16 -46 -2 -16 0
-26 4 -24 4 3 11 -2 14 -11 3 -8 2 -13 -2 -10 -10 6 -82 -41 -82 -52 0 -13 42
-34 50 -25 4 4 11 19 14 33 6 21 5 22 -4 8 -6 -10 -15 -18 -21 -18 -5 0 -2 9
8 19 18 20 32 21 65 7 9 -4 21 -5 27 -2 6 4 8 -6 6 -25 -3 -18 0 -39 5 -48 7
-12 9 -8 10 18 0 19 3 32 6 28 17 -17 34 26 34 87 0 65 0 66 -27 67 l-28 1 30
8 c18 5 -36 8 -132 9 l-163 1 2 -162z"/>
<path fill="#ffffff" stroke="none" d="M290 230 c0 -24 -18 -38 -46 -32 -26 5
-30 22 -14 52 9 17 14 18 35 8 14 -6 25 -19 25 -28z"/>
<path fill="#000000" stroke="none" d="M237 240 c-3 -11 -1 -20 4 -20 5 0 9 9
9 20 0 11 -2 20 -4 20 -2 0 -6 -9 -9 -20z"/>
<path fill="#000000" stroke="none" d="M260 243 c0 -4 5 -15 10 -23 8 -13 10
-13 10 2 0 9 -4 20 -10 23 -5 3 -10 3 -10 -2z"/>
<path fill="#000000" stroke="none" d="M130 285 c-7 -9 -10 -19 -6 -22 4 -4
11 -1 15 6 7 11 9 11 13 0 3 -9 7 -10 11 -2 4 6 1 16 -7 22 -10 9 -16 8 -26
-4z"/>
<path fill="#000000" stroke="none" d="M125 240 c3 -5 8 -10 11 -10 2 0 4 5 4
10 0 6 -5 10 -11 10 -5 0 -7 -4 -4 -10z"/>
<path fill="#000000" stroke="none" d="M150 239 c0 -5 5 -7 10 -4 6 3 10 8 10
11 0 2 -4 4 -10 4 -5 0 -10 -5 -10 -11z"/>
<path fill="#000000" stroke="none" d="M20 144 c0 -17 22 -14 28 4 2 7 -3 12
-12 12 -9 0 -16 -7 -16 -16z"/>
<path fill="#000000" stroke="none" d="M100 130 c26 -21 56 -27 45 -10 -3 6
-13 10 -21 10 -8 0 -14 5 -14 10 0 6 -8 10 -17 10 -15 0 -13 -4 7 -20z"/>
<path fill="#000000" stroke="none" d="M60 109 c0 -8 5 -21 10 -29 8 -12 9
-10 7 7 -4 26 -17 43 -17 22z"/>
<path fill="#000000" stroke="none" d="M99 119 c-10 -43 -7 -65 11 -77 17 -10
20 -10 20 3 0 8 -4 15 -9 15 -5 0 -11 6 -14 14 -4 10 3 13 25 12 17 0 33 4 35
11 3 7 -3 9 -16 6 -12 -3 -28 0 -36 7 -8 7 -15 11 -16 9z"/>
<path fill="#000000" stroke="none" d="M220 109 c0 -13 42 -100 46 -96 8 8 -6
51 -26 77 -11 14 -20 22 -20 19z"/>
<path fill="#000000" stroke="none" d="M175 71 c-8 -15 3 -31 21 -31 9 0 14 7
12 17 -4 20 -24 28 -33 14z"/>
<path fill="#000000" stroke="none" d="M226 40 c7 -28 12 -35 18 -29 2 2 -2
15 -10 29 l-15 25 7 -25z"/>
<path fill="#000000" stroke="none" d="M85 11 c-3 -6 3 -9 14 -8 11 0 17 5 15
9 -7 11 -22 10 -29 -1z"/>
<path fill="#000000" stroke="none" d="M200 10 c0 -5 5 -10 11 -10 5 0 7 5 4
10 -3 6 -8 10 -11 10 -2 0 -4 -4 -4 -10z"/>
</g>
</svg>
