<?xml version="1.0" standalone="no"?>
<!DOCTYPE svg PUBLIC "-//W3C//DTD SVG 20010904//EN"
 "http://www.w3.org/TR/2001/REC-SVG-20010904/DTD/svg10.dtd">
<svg version="1.0" xmlns="http://www.w3.org/2000/svg"
 width="32.000000pt" height="32.000000pt" viewBox="0 0 32.000000 32.000000"
 preserveAspectRatio="xMidYMid meet">
<metadata>
Created by potrace 1.16, written by Peter Selinger 2001-2019
</metadata>
<g transform="translate(0.000000,32.000000) scale(0.100000,-0.100000)"
fill="#000000" stroke="none">
<path fill="#000000" stroke="none" d="M127 266 l-25 -44 32 11 c21 8 26 12
14 15 -14 3 -15 7 -6 28 9 18 16 23 32 18 12 -4 24 -11 27 -16 4 -7 9 -7 13 0
4 8 -41 32 -60 32 -1 0 -13 -20 -27 -44z"/>
<path fill="#000000" stroke="none" d="M192 232 c-19 -20 -31 -23 -72 -20 -26
1 -46 0 -43 -4 2 -5 15 -8 29 -8 13 0 24 -4 24 -10 0 -16 15 -12 40 10 13 11
26 20 30 20 8 0 23 31 18 34 -2 1 -13 -9 -26 -22z"/>
<path fill="#000000" stroke="none" d="M212 191 c-9 -5 -5 -14 13 -31 l25 -24
-3 22 c-4 29 -19 43 -35 33z"/>
<path fill="#000000" stroke="none" d="M90 175 c-9 -11 -10 -19 -3 -26 8 -8
13 -7 18 2 5 8 4 10 -3 5 -16 -9 -15 7 0 22 7 7 9 12 6 12 -3 0 -11 -7 -18
-15z"/>
<path fill="#000000" stroke="none" d="M199 156 c29 -31 35 -33 22 -7 -6 10
-18 22 -28 25 -13 5 -11 1 6 -18z"/>
<path fill="#000000" stroke="none" d="M120 160 c0 -5 7 -6 17 -3 11 4 14 3 9
-5 -10 -17 -1 -15 14 3 11 13 8 15 -14 15 -14 0 -26 -4 -26 -10z"/>
<path fill="#000000" stroke="none" d="M90 120 c-21 -21 -26 -40 -10 -40 5 0
16 14 25 30 18 35 13 38 -15 10z"/>
<path fill="#000000" stroke="none" d="M121 111 c-8 -5 -10 -14 -6 -21 5 -9 4
-11 -3 -6 -7 4 -12 1 -12 -8 0 -9 6 -16 14 -16 8 0 16 -5 18 -11 2 -6 4 7 5
30 1 23 1 41 0 41 -1 0 -8 -4 -16 -9z"/>
<path fill="#000000" stroke="none" d="M161 103 c-1 -35 17 -73 32 -67 11 4
12 13 3 44 -5 22 -13 35 -17 29 -4 -8 -8 -7 -12 2 -3 8 -6 5 -6 -8z"/>
<path fill="#000000" stroke="none" d="M217 100 c3 -11 12 -20 20 -20 10 0 13
6 9 16 -3 9 -6 18 -6 20 0 2 -6 4 -14 4 -9 0 -12 -7 -9 -20z"/>
<path fill="#000000" stroke="none" d="M80 31 c0 -6 4 -13 10 -16 6 -3 7 1 4
9 -7 18 -14 21 -14 7z"/>
<path fill="#000000" stroke="none" d="M236 23 c-6 -14 -5 -15 5 -6 7 7 10 15
7 18 -3 3 -9 -2 -12 -12z"/>
</g>
</svg>
