<?xml version="1.0" standalone="no"?>
<!DOCTYPE svg PUBLIC "-//W3C//DTD SVG 20010904//EN"
 "http://www.w3.org/TR/2001/REC-SVG-20010904/DTD/svg10.dtd">
<svg version="1.0" xmlns="http://www.w3.org/2000/svg"
 width="32.000000pt" height="32.000000pt" viewBox="0 0 32.000000 32.000000"
 preserveAspectRatio="xMidYMid meet">
<metadata>
Created by potrace 1.16, written by Peter Selinger 2001-2019
</metadata>
<g transform="translate(0.000000,32.000000) scale(0.100000,-0.100000)"
fill="#000000" stroke="none">
<path fill="#000000" stroke="none" d="M0 160 l0 -160 160 0 160 0 0 160 0
160 -160 0 -160 0 0 -160z"/>
<path fill="#ffffff" stroke="none" d="M189 299 c17 -6 31 -15 31 -20 0 -12
-17 -12 -22 0 -1 4 -12 11 -24 15 -16 5 -23 0 -32 -18 -9 -21 -8 -25 6 -28 12
-3 7 -7 -14 -15 l-32 -11 25 44 c14 24 26 44 27 44 2 0 17 -5 35 -11z"/>
<path fill="#ffffff" stroke="none" d="M214 236 c-3 -9 -9 -16 -14 -16 -4 0
-17 -9 -30 -20 -25 -22 -40 -26 -40 -10 0 6 -11 10 -24 10 -14 0 -27 3 -29 8
-3 4 17 5 43 4 41 -3 53 0 72 20 26 27 31 28 22 4z"/>
<path fill="#ffffff" stroke="none" d="M270 233 c-1 -5 -7 -19 -15 -33 -12
-21 -14 -23 -20 -8 -4 9 -1 24 7 32 14 16 28 21 28 9z"/>
<path fill="#ffffff" stroke="none" d="M98 173 c-8 -10 -18 -28 -21 -41 -4
-19 -2 -22 11 -18 14 5 14 3 -2 -8 -10 -9 -15 -20 -10 -27 5 -8 3 -10 -5 -5
-7 5 -10 14 -7 22 3 8 1 14 -4 14 -6 0 -10 4 -10 9 0 11 49 71 57 71 4 0 -1
-8 -9 -17z"/>
<path fill="#ffffff" stroke="none" d="M231 173 c13 -16 12 -17 -3 -4 -10 7
-18 15 -18 17 0 8 8 3 21 -13z"/>
<path fill="#ffffff" stroke="none" d="M160 155 c-15 -18 -24 -20 -14 -3 5 8
2 9 -9 5 -10 -3 -17 -2 -17 3 0 6 12 10 26 10 22 0 25 -2 14 -15z"/>
<path fill="#ffffff" stroke="none" d="M211 153 c13 -16 12 -17 -3 -4 -10 7
-18 15 -18 17 0 8 8 3 21 -13z"/>
<path fill="#ffffff" stroke="none" d="M174 75 c5 -22 4 -26 -4 -15 -5 8 -10
24 -10 34 0 26 6 18 14 -19z"/>
<path fill="#ffffff" stroke="none" d="M145 30 c-3 -5 -12 -10 -18 -10 -7 0
-6 4 3 10 19 12 23 12 15 0z"/>
<path fill="#ffffff" stroke="none" d="M241 17 c-10 -9 -11 -8 -5 6 3 10 9 15
12 12 3 -3 0 -11 -7 -18z"/>
</g>
</svg>
