<?xml version="1.0" standalone="no"?>
<!DOCTYPE svg PUBLIC "-//W3C//DTD SVG 20010904//EN"
 "http://www.w3.org/TR/2001/REC-SVG-20010904/DTD/svg10.dtd">
<svg version="1.0" xmlns="http://www.w3.org/2000/svg"
 width="32.000000pt" height="32.000000pt" viewBox="0 0 32.000000 32.000000"
 preserveAspectRatio="xMidYMid meet">
<metadata>
Created by potrace 1.16, written by Peter Selinger 2001-2019
</metadata>
<g transform="translate(0.000000,32.000000) scale(0.100000,-0.100000)"
fill="#000000" stroke="none">
<path fill="#000000" stroke="none" d="M134 278 c-23 -45 -45 -69 -57 -61 -6
3 -7 1 -3 -5 4 -7 18 -12 32 -12 13 0 24 -4 24 -10 0 -15 15 -12 41 10 46 38
49 41 49 50 0 5 -11 -2 -25 -15 -13 -14 -34 -25 -47 -25 -19 1 -18 3 11 16 33
14 33 15 16 34 -17 19 -17 20 0 26 10 4 20 1 25 -7 5 -7 13 -10 17 -5 10 10
-25 36 -49 36 -10 0 -25 -14 -34 -32z"/>
<path fill="#000000" stroke="none" d="M252 225 c-7 -14 -9 -32 -6 -38 5 -9 4
-9 -5 -1 -9 9 -24 8 -58 -2 -25 -8 -49 -11 -54 -8 -11 6 -12 -17 -1 -31 13
-18 31 -15 43 6 l11 21 14 -21 c18 -25 36 -28 27 -3 -6 15 -5 16 12 2 17 -14
18 -13 12 2 -3 10 -2 20 3 23 18 11 28 40 21 58 -6 17 -8 16 -19 -8z"/>
<path fill="#000000" stroke="none" d="M85 180 c-3 -5 -22 -10 -41 -10 -43 0
-37 -17 6 -18 17 0 38 -6 46 -13 16 -13 30 -6 19 10 -3 6 -12 8 -18 5 -8 -5
-8 -3 1 7 6 7 12 17 12 21 0 11 -18 10 -25 -2z"/>
<path fill="#000000" stroke="none" d="M110 100 c-13 -25 -4 -60 15 -60 8 0
17 16 21 38 l8 37 8 -42 c9 -44 14 -48 42 -37 21 8 20 20 -5 55 -25 36 -72 40
-89 9z"/>
<path fill="#000000" stroke="none" d="M84 28 c4 -18 36 -23 50 -8 8 10 5 11
-16 6 -14 -3 -29 -1 -31 4 -3 6 -4 5 -3 -2z"/>
<path fill="#000000" stroke="none" d="M240 31 c0 -8 -7 -10 -21 -6 -15 5 -19
4 -15 -4 4 -6 13 -11 21 -11 16 0 30 18 21 27 -3 4 -6 1 -6 -6z"/>
</g>
</svg>
