<?xml version="1.0" standalone="no"?>
<!DOCTYPE svg PUBLIC "-//W3C//DTD SVG 20010904//EN"
 "http://www.w3.org/TR/2001/REC-SVG-20010904/DTD/svg10.dtd">
<svg version="1.0" xmlns="http://www.w3.org/2000/svg"
 width="32.000000pt" height="32.000000pt" viewBox="0 0 32.000000 32.000000"
 preserveAspectRatio="xMidYMid meet">
<metadata>
Created by potrace 1.16, written by Peter Selinger 2001-2019
</metadata>
<g transform="translate(0.000000,32.000000) scale(0.100000,-0.100000)"
fill="#000000" stroke="none">
<path fill="#000000" stroke="none" d="M0 160 l0 -161 105 2 c107 1 141 12 41
12 -49 1 -53 2 -43 18 6 10 15 15 21 12 5 -3 6 -1 2 6 -4 6 -12 8 -18 5 -11
-7 -7 39 8 93 6 21 5 21 -37 7 -27 -10 -45 -12 -52 -5 -16 16 0 41 26 41 23 0
72 41 62 52 -4 3 1 22 9 42 l15 36 -70 0 -69 0 0 -160z"/>
<path fill="#000000" stroke="none" d="M183 302 c9 -10 23 -33 31 -52 l14 -35
-29 -1 c-31 -1 -47 -10 -36 -20 3 -3 11 -3 18 2 7 4 28 8 46 9 18 0 41 9 51
19 16 17 15 17 -12 0 l-29 -19 18 29 19 28 18 -22 c17 -21 17 -23 -8 -56 -30
-39 -31 -40 -56 -17 -30 27 -32 7 -6 -54 23 -53 28 -59 62 -64 l36 -6 0 139 0
138 -77 0 c-72 0 -75 -1 -60 -18z"/>
<path fill="#000000" stroke="none" d="M97 203 c-4 -3 -7 -11 -7 -17 0 -6 5
-5 12 2 6 6 9 14 7 17 -3 3 -9 2 -12 -2z"/>
<path fill="#000000" stroke="none" d="M125 200 c3 -5 10 -10 16 -10 5 0 9 5
9 10 0 6 -7 10 -16 10 -8 0 -12 -4 -9 -10z"/>
<path fill="#000000" stroke="none" d="M31 164 c0 -11 3 -14 6 -6 3 7 2 16 -1
19 -3 4 -6 -2 -5 -13z"/>
<path fill="#000000" stroke="none" d="M188 33 c7 -3 16 -2 19 1 4 3 -2 6 -13
5 -11 0 -14 -3 -6 -6z"/>
<path fill="#000000" stroke="none" d="M295 10 c-19 -8 -19 -9 3 -9 12 -1 22
4 22 9 0 6 -1 10 -2 9 -2 0 -12 -4 -23 -9z"/>
</g>
</svg>
