<?xml version="1.0" standalone="no"?>
<!DOCTYPE svg PUBLIC "-//W3C//DTD SVG 20010904//EN"
 "http://www.w3.org/TR/2001/REC-SVG-20010904/DTD/svg10.dtd">
<svg version="1.0" xmlns="http://www.w3.org/2000/svg"
 width="32.000000pt" height="32.000000pt" viewBox="0 0 32.000000 32.000000"
 preserveAspectRatio="xMidYMid meet">
<metadata>
Created by potrace 1.16, written by Peter Selinger 2001-2019
</metadata>
<g transform="translate(0.000000,32.000000) scale(0.100000,-0.100000)"
fill="#000000" stroke="none">
<path fill="#000000" stroke="none" d="M0 160 l0 -160 94 0 c52 0 97 3 99 8 3
4 -20 5 -50 4 -44 -3 -54 -1 -47 9 4 7 9 32 9 54 1 22 5 52 9 67 l8 26 -43
-14 c-27 -10 -45 -12 -52 -5 -16 16 0 41 26 41 23 0 72 41 62 52 -4 3 1 22 9
42 l15 36 -70 0 -69 0 0 -160z"/>
<path fill="#000000" stroke="none" d="M193 286 c12 -18 25 -29 28 -23 4 5 15
7 24 3 11 -4 24 1 36 15 10 11 23 18 28 14 6 -3 11 1 11 9 0 13 -14 16 -75 16
l-74 0 22 -34z"/>
<path fill="#000000" stroke="none" d="M295 186 c-22 -33 -44 -40 -67 -20 -30
28 -32 8 -6 -53 23 -53 28 -59 62 -64 l36 -6 0 44 c0 23 -5 43 -10 43 -7 0 -7
6 -1 18 9 16 12 62 4 62 -1 0 -10 -11 -18 -24z"/>
<path fill="#000000" stroke="none" d="M295 10 c-19 -8 -19 -9 3 -9 12 -1 22
4 22 9 0 6 -1 10 -2 9 -2 0 -12 -4 -23 -9z"/>
</g>
</svg>
