<?xml version="1.0" standalone="no"?>
<!DOCTYPE svg PUBLIC "-//W3C//DTD SVG 20010904//EN"
 "http://www.w3.org/TR/2001/REC-SVG-20010904/DTD/svg10.dtd">
<svg version="1.0" xmlns="http://www.w3.org/2000/svg"
 width="32.000000pt" height="32.000000pt" viewBox="0 0 32.000000 32.000000"
 preserveAspectRatio="xMidYMid meet">
<metadata>
Created by potrace 1.16, written by Peter Selinger 2001-2019
</metadata>
<g transform="translate(0.000000,32.000000) scale(0.100000,-0.100000)"
fill="#000000" stroke="none">
<path fill="#000000" stroke="none" d="M129 276 c-18 -31 -23 -34 -58 -29
l-38 5 -6 -59 c-11 -106 35 -209 63 -140 6 16 9 17 9 5 1 -9 -6 -23 -14 -32
-8 -8 -15 -17 -15 -20 0 -3 56 -6 125 -6 l125 0 0 25 c0 15 -6 25 -15 25 -10
0 -12 6 -8 18 6 15 5 15 -10 4 -9 -8 -21 -11 -27 -7 -18 11 -10 25 15 25 31 0
45 31 45 94 0 52 -18 73 -49 56 -12 -6 -21 -15 -21 -20 0 -6 -4 -10 -10 -10
-5 0 -7 7 -4 15 8 20 -44 85 -68 85 -11 0 -27 -14 -39 -34z"/>
<path fill="#ffffff" stroke="none" d="M80 190 c0 -5 -4 -10 -10 -10 -5 0 -10
5 -10 10 0 6 5 10 10 10 6 0 10 -4 10 -10z"/>
</g>
</svg>
