<?xml version="1.0" standalone="no"?>
<!DOCTYPE svg PUBLIC "-//W3C//DTD SVG 20010904//EN"
 "http://www.w3.org/TR/2001/REC-SVG-20010904/DTD/svg10.dtd">
<svg version="1.0" xmlns="http://www.w3.org/2000/svg"
 width="32.000000pt" height="32.000000pt" viewBox="0 0 32.000000 32.000000"
 preserveAspectRatio="xMidYMid meet">
<metadata>
Created by potrace 1.16, written by Peter Selinger 2001-2019
</metadata>
<g transform="translate(0.000000,32.000000) scale(0.100000,-0.100000)"
fill="#000000" stroke="none">
<path fill="#000000" stroke="none" d="M104 279 c-4 -22 -13 -46 -20 -54 -9
-9 -12 -24 -8 -44 5 -24 3 -31 -10 -31 -23 0 -20 -31 3 -37 27 -7 38 -59 17
-82 -23 -25 -20 -31 14 -31 18 0 33 6 36 15 5 12 10 13 20 4 8 -6 14 -8 14 -3
0 4 5 3 12 -4 15 -15 58 -16 58 -1 0 5 -3 8 -7 6 -5 -3 -9 13 -11 34 -2 29 1
39 12 39 32 0 42 79 13 97 -6 4 -8 0 -4 -10 4 -11 2 -14 -9 -10 -13 5 -13 8 1
23 20 22 19 30 -4 30 -20 0 -24 8 -36 68 -6 30 -10 32 -46 32 -38 0 -39 -1
-45 -41z"/>
<path fill="#ffffff" stroke="none" d="M164 304 c9 -3 16 -10 16 -15 0 -4 -7
-5 -17 -2 -11 4 -14 3 -9 -5 4 -8 0 -12 -11 -12 -12 0 -19 8 -20 20 -2 20 12
25 41 14z"/>
<path fill="#ffffff" stroke="none" d="M244 100 c-6 -5 -24 21 -24 34 0 6 6 1
14 -10 8 -10 12 -21 10 -24z"/>
<path fill="#ffffff" stroke="none" d="M134 103 c-26 -19 -36 -16 -24 7 6 12
16 17 27 13 14 -6 14 -8 -3 -20z"/>
<path fill="#ffffff" stroke="none" d="M161 61 c7 11 9 11 9 -3 0 -10 -6 -18
-12 -19 -7 0 -21 -2 -30 -4 -10 -2 -18 2 -18 9 0 20 12 27 27 14 11 -9 17 -9
24 3z"/>
</g>
</svg>
