<?xml version="1.0" standalone="no"?>
<!DOCTYPE svg PUBLIC "-//W3C//DTD SVG 20010904//EN"
 "http://www.w3.org/TR/2001/REC-SVG-20010904/DTD/svg10.dtd">
<svg version="1.0" xmlns="http://www.w3.org/2000/svg"
 width="32.000000pt" height="32.000000pt" viewBox="0 0 32.000000 32.000000"
 preserveAspectRatio="xMidYMid meet">
<metadata>
Created by potrace 1.16, written by Peter Selinger 2001-2019
</metadata>
<g transform="translate(0.000000,32.000000) scale(0.100000,-0.100000)"
fill="#000000" stroke="none">
<path fill="#000000" stroke="none" d="M0 160 l0 -160 33 0 c22 1 37 8 50 26
23 31 15 80 -14 87 -23 6 -26 37 -3 37 13 0 15 7 10 35 -4 21 -3 35 3 35 10 0
15 13 26 68 l7 32 -56 0 -56 0 0 -160z"/>
<path fill="#000000" stroke="none" d="M195 288 c12 -60 16 -68 37 -68 14 0
18 -5 15 -15 -4 -8 -2 -17 2 -20 14 -8 20 -58 10 -77 -5 -10 -16 -18 -24 -18
-18 0 -19 -30 -3 -65 9 -20 18 -25 50 -25 l38 0 0 160 0 160 -66 0 -66 0 7
-32z"/>
<path fill="#000000" stroke="none" d="M112 268 c-11 -42 -9 -58 9 -58 5 0 7
11 3 25 -5 21 -3 25 16 25 19 0 21 -4 16 -26 -6 -23 -5 -25 16 -19 13 4 24 8
25 9 1 1 -3 21 -9 44 -9 37 -14 42 -38 42 -24 0 -29 -5 -38 -42z"/>
<path fill="#000000" stroke="none" d="M85 192 c3 -9 9 -30 11 -47 12 -68 14
-74 29 -69 8 4 15 1 15 -6 0 -7 9 -1 21 14 11 15 18 33 15 41 -3 9 3 19 14 25
11 6 20 17 20 25 0 8 8 19 18 24 14 9 11 10 -16 11 -18 0 -41 -5 -51 -12 -11
-6 -26 -8 -37 -3 -36 15 -46 14 -39 -3z"/>
<path fill="#000000" stroke="none" d="M228 185 c-4 -8 -4 -51 1 -77 2 -14 19
-8 25 7 7 18 -17 84 -26 70z"/>
<path fill="#000000" stroke="none" d="M73 143 c-18 -7 -16 -23 2 -23 8 0 15
7 15 15 0 8 -1 15 -2 14 -2 0 -9 -3 -15 -6z"/>
<path fill="#000000" stroke="none" d="M183 98 c-3 -37 9 -68 26 -68 3 0 4 25
3 55 -4 65 -26 75 -29 13z"/>
<path fill="#000000" stroke="none" d="M110 51 c-8 -16 -8 -21 2 -22 7 -1 2
-5 -12 -9 -20 -6 -21 -8 -6 -9 11 -1 28 7 38 16 14 12 21 14 26 6 5 -8 13 -9
22 -3 10 7 11 10 3 10 -7 0 -13 8 -13 18 0 14 -2 14 -9 3 -8 -12 -12 -12 -25
-2 -12 10 -17 9 -26 -8z"/>
<path fill="#000000" stroke="none" d="M137 16 c-5 -12 0 -16 21 -15 15 1 38
5 52 10 21 7 19 8 -12 5 -20 -2 -41 1 -46 6 -6 6 -12 4 -15 -6z"/>
</g>
</svg>
