<?xml version="1.0" standalone="no"?>
<!DOCTYPE svg PUBLIC "-//W3C//DTD SVG 20010904//EN"
 "http://www.w3.org/TR/2001/REC-SVG-20010904/DTD/svg10.dtd">
<svg version="1.0" xmlns="http://www.w3.org/2000/svg"
 width="32.000000pt" height="32.000000pt" viewBox="0 0 32.000000 32.000000"
 preserveAspectRatio="xMidYMid meet">
<metadata>
Created by potrace 1.16, written by Peter Selinger 2001-2019
</metadata>
<g transform="translate(0.000000,32.000000) scale(0.100000,-0.100000)"
fill="#000000" stroke="none">
<path fill="#000000" stroke="none" d="M0 160 l0 -160 33 0 c22 1 37 8 50 26
23 31 15 80 -14 87 -24 6 -25 37 -1 37 14 0 15 -2 2 -10 -8 -5 -11 -12 -7 -17
15 -14 25 20 15 53 -7 27 -6 38 6 50 9 8 16 23 16 32 0 9 3 27 6 40 6 21 4 22
-50 22 l-56 0 0 -160z"/>
<path fill="#000000" stroke="none" d="M195 288 c12 -60 16 -68 37 -68 14 0
18 -5 15 -15 -4 -8 -2 -17 2 -20 14 -8 20 -58 10 -77 -5 -10 -17 -18 -26 -18
-12 0 -14 -7 -10 -34 4 -22 1 -36 -6 -39 -7 -2 -4 -3 6 -2 9 2 17 -1 17 -6 0
-5 18 -9 40 -9 l40 0 0 160 0 160 -66 0 -66 0 7 -32z"/>
<path fill="#000000" stroke="none" d="M120 295 c0 -8 0 -18 0 -22 0 -7 16 -8
50 -4 6 1 10 10 10 21 0 16 -7 20 -30 20 -20 0 -30 -5 -30 -15z"/>
<path fill="#000000" stroke="none" d="M81 205 c1 -19 18 -51 18 -35 0 8 -4
22 -9 30 -5 8 -9 11 -9 5z"/>
<path fill="#000000" stroke="none" d="M196 189 c-12 -18 -43 -19 -32 -1 2 4
-9 7 -24 7 -15 0 -26 -3 -23 -7 2 -5 13 -8 23 -8 16 0 20 -14 10 -40 -1 -3 -2
-8 -1 -12 0 -4 -6 -5 -13 -2 -18 7 -38 -27 -26 -46 4 -7 6 -19 3 -26 -8 -21 7
-37 22 -24 8 7 19 9 25 5 6 -4 10 3 10 17 0 18 -2 20 -10 8 -8 -13 -11 -13
-27 2 -12 13 -14 21 -6 29 8 8 13 7 18 -2 5 -8 4 -10 -3 -5 -8 5 -10 2 -6 -9
4 -9 7 -15 8 -13 1 2 8 12 16 22 10 13 10 17 3 12 -16 -9 -16 5 -1 39 6 14 18
24 27 23 10 -2 16 4 16 16 0 10 9 23 20 27 16 6 17 8 3 8 -9 1 -24 -8 -32 -20z"/>
<path fill="#000000" stroke="none" d="M226 182 c-3 -6 -1 -14 5 -17 14 -9 20
-2 10 14 -6 8 -11 9 -15 3z"/>
<path fill="#000000" stroke="none" d="M227 122 c1 -8 3 -16 3 -18 0 -2 4 -4
8 -4 5 0 9 7 9 15 0 8 -4 12 -8 9 -4 -2 -9 -1 -12 3 -2 5 -2 2 0 -5z"/>
<path fill="#000000" stroke="none" d="M189 99 c0 -2 -2 -12 -4 -21 -2 -10 1
-18 6 -18 6 0 8 -4 4 -9 -3 -5 -1 -12 3 -15 11 -6 10 49 -1 60 -4 4 -7 5 -8 3z"/>
<path fill="#000000" stroke="none" d="M136 15 c-4 -11 2 -15 26 -15 17 0 28
3 24 8 -4 4 -11 7 -14 7 -4 0 -12 4 -18 8 -7 4 -14 0 -18 -8z"/>
<path fill="#000000" stroke="none" d="M88 13 c7 -3 16 -2 19 1 4 3 -2 6 -13
5 -11 0 -14 -3 -6 -6z"/>
</g>
</svg>
