<?xml version="1.0" standalone="no"?>
<!DOCTYPE svg PUBLIC "-//W3C//DTD SVG 20010904//EN"
 "http://www.w3.org/TR/2001/REC-SVG-20010904/DTD/svg10.dtd">
<svg version="1.0" xmlns="http://www.w3.org/2000/svg"
 width="32.000000pt" height="32.000000pt" viewBox="0 0 32.000000 32.000000"
 preserveAspectRatio="xMidYMid meet">
<metadata>
Created by potrace 1.16, written by Peter Selinger 2001-2019
</metadata>
<g transform="translate(0.000000,32.000000) scale(0.100000,-0.100000)"
fill="#000000" stroke="none">
<path fill="#000000" stroke="none" d="M122 298 c-10 -14 -26 -56 -27 -73 0
-6 -11 -25 -24 -43 -24 -34 -22 -62 4 -62 20 0 20 -54 -1 -75 -31 -31 -2 -43
97 -40 96 2 127 14 94 39 -15 10 -19 28 -21 85 -2 53 -8 78 -23 100 -12 16
-21 33 -21 38 0 15 -35 43 -52 43 -9 0 -20 -6 -26 -12z"/>
<path fill="#ffffff" stroke="none" d="M178 276 c3 -12 0 -16 -8 -11 -8 5 -11
3 -8 -6 2 -7 15 -16 29 -20 20 -5 21 -7 7 -13 -47 -17 -51 -17 -39 -2 9 11 7
18 -13 34 -19 14 -22 22 -13 31 16 16 41 9 45 -13z"/>
<path fill="#ffffff" stroke="none" d="M129 226 c10 -12 8 -13 -8 -9 -12 3
-18 9 -15 14 7 12 10 11 23 -5z"/>
<path fill="#ffffff" stroke="none" d="M227 205 c8 -22 -4 -30 -22 -15 -18 15
-19 9 -4 -24 7 -16 17 -23 28 -20 9 3 3 -2 -12 -11 -39 -22 -101 -17 -105 10
-2 11 -11 26 -20 33 -9 6 -11 12 -5 12 6 0 16 -7 23 -15 7 -8 17 -15 23 -15 7
0 7 4 -1 12 -18 18 -15 27 7 21 11 -3 30 2 43 11 28 20 37 20 45 1z"/>
<path fill="#ffffff" stroke="none" d="M90 145 c-7 -8 -16 -15 -21 -15 -5 0
-9 7 -9 15 0 9 9 15 21 15 18 0 19 -2 9 -15z"/>
<path fill="#ffffff" stroke="none" d="M236 38 c5 -8 1 -5 -8 5 -10 11 -17 33
-17 51 1 31 1 31 8 -6 4 -20 12 -43 17 -50z"/>
<path fill="#ffffff" stroke="none" d="M151 81 c6 10 9 5 10 -16 1 -29 1 -30
9 -5 l8 25 1 -24 c1 -18 5 -22 18 -17 10 4 14 4 10 0 -4 -4 1 -13 11 -20 16
-12 15 -13 -6 -14 -13 0 -20 4 -17 10 4 6 -10 10 -34 10 -22 0 -43 5 -47 12
-4 7 -3 8 4 4 8 -5 12 2 13 21 0 15 3 22 6 14 5 -11 7 -11 14 0z"/>
<path fill="#ffffff" stroke="none" d="M125 20 c3 -5 -3 -10 -15 -10 -12 0
-18 5 -15 10 3 6 10 10 15 10 5 0 12 -4 15 -10z"/>
</g>
</svg>
