<?xml version="1.0" standalone="no"?>
<!DOCTYPE svg PUBLIC "-//W3C//DTD SVG 20010904//EN"
 "http://www.w3.org/TR/2001/REC-SVG-20010904/DTD/svg10.dtd">
<svg version="1.0" xmlns="http://www.w3.org/2000/svg"
 width="32.000000pt" height="32.000000pt" viewBox="0 0 32.000000 32.000000"
 preserveAspectRatio="xMidYMid meet">
<metadata>
Created by potrace 1.16, written by Peter Selinger 2001-2019
</metadata>
<g transform="translate(0.000000,32.000000) scale(0.100000,-0.100000)"
fill="#000000" stroke="none">
<path fill="#000000" stroke="none" d="M122 298 c-10 -14 -26 -56 -27 -73 0
-6 -11 -25 -24 -43 -24 -34 -22 -62 4 -62 20 0 20 -54 -1 -75 -31 -31 -2 -43
97 -40 96 2 127 14 94 39 -15 10 -19 28 -21 85 -2 53 -8 78 -23 100 -12 16
-21 33 -21 38 0 15 -35 43 -52 43 -9 0 -20 -6 -26 -12z"/>
<path fill="#ffffff" stroke="none" d="M173 189 c-22 -22 -54 -20 -52 3 0 10
2 10 6 1 6 -17 28 -16 43 2 7 8 15 15 18 15 4 0 -3 -10 -15 -21z"/>
<path fill="#ffffff" stroke="none" d="M215 158 c-11 -7 -38 -15 -60 -19 l-40
-8 45 3 c25 1 54 6 65 10 11 4 7 0 -8 -9 -35 -20 -99 -17 -102 5 -2 12 5 15
30 12 18 -2 42 1 52 7 10 6 23 10 28 10 6 0 1 -5 -10 -11z"/>
<path fill="#ffffff" stroke="none" d="M90 145 c-7 -8 -16 -15 -21 -15 -5 0
-9 7 -9 15 0 9 9 15 21 15 18 0 19 -2 9 -15z"/>
<path fill="#ffffff" stroke="none" d="M204 41 c-2 -2 4 -10 14 -17 16 -12 15
-13 -6 -14 -13 0 -20 4 -17 10 4 6 -10 10 -35 10 -25 0 -39 -4 -35 -10 3 -6
-4 -10 -17 -10 -21 1 -22 2 -6 14 10 7 16 15 14 17 -3 2 17 4 44 4 27 0 47 -2
44 -4z"/>
</g>
</svg>
