<?xml version="1.0" standalone="no"?>
<!DOCTYPE svg PUBLIC "-//W3C//DTD SVG 20010904//EN"
 "http://www.w3.org/TR/2001/REC-SVG-20010904/DTD/svg10.dtd">
<svg version="1.0" xmlns="http://www.w3.org/2000/svg"
 width="32.000000pt" height="32.000000pt" viewBox="0 0 32.000000 32.000000"
 preserveAspectRatio="xMidYMid meet">
<metadata>
Created by potrace 1.16, written by Peter Selinger 2001-2019
</metadata>
<g transform="translate(0.000000,32.000000) scale(0.100000,-0.100000)"
fill="#000000" stroke="none">
<path fill="#000000" stroke="none" d="M0 160 l0 -160 41 0 c35 0 40 2 29 15
-10 11 -9 18 4 30 21 21 21 75 1 75 -26 0 -28 28 -4 61 13 18 24 40 24 48 2
30 30 76 48 79 19 4 57 -24 57 -41 0 -5 9 -22 21 -38 15 -22 21 -47 23 -100 2
-53 7 -75 19 -84 23 -16 21 -24 -6 -35 -18 -7 -15 -9 21 -9 l42 -1 0 160 0
160 -160 0 -160 0 0 -160z"/>
<path fill="#000000" stroke="none" d="M115 264 c-8 -20 -14 -38 -13 -39 19
-15 47 -22 59 -14 22 14 33 11 19 -6 -15 -18 -42 -19 -58 -3 -8 8 -15 8 -27
-2 -13 -11 -13 -14 -1 -24 8 -6 16 -20 18 -31 4 -25 56 -32 99 -15 25 11 27
16 22 44 -3 17 -13 42 -22 56 -9 14 -21 34 -27 45 -6 11 -21 21 -32 23 -16 3
-25 -5 -37 -34z"/>
<path fill="#ffffff" stroke="none" d="M160 229 c0 -4 -4 -10 -9 -13 -14 -9
-34 22 -26 41 6 17 7 17 21 -1 8 -11 14 -23 14 -27z"/>
<path fill="#000000" stroke="none" d="M73 163 c-14 -5 -18 -33 -5 -33 4 0 14
5 22 10 17 11 2 30 -17 23z"/>
<path fill="#000000" stroke="none" d="M217 124 c-11 -11 -9 -72 3 -79 15 -9
12 -25 -4 -19 -8 3 -17 1 -21 -5 -9 -15 -58 -14 -73 1 -9 9 -15 9 -23 1 -18
-18 56 -25 117 -12 49 11 53 14 39 29 -8 9 -18 33 -22 54 -5 21 -12 34 -16 30z"/>
<path fill="#000000" stroke="none" d="M102 95 c-1 -17 -9 -42 -18 -55 l-17
-25 22 21 c17 16 21 29 18 55 -4 33 -4 33 -5 4z"/>
<path fill="#000000" stroke="none" d="M124 74 c-13 -41 -6 -47 48 -42 29 3
33 6 30 28 -9 61 -61 70 -78 14z"/>
</g>
</svg>
