<?xml version="1.0" standalone="no"?>
<!DOCTYPE svg PUBLIC "-//W3C//DTD SVG 20010904//EN"
 "http://www.w3.org/TR/2001/REC-SVG-20010904/DTD/svg10.dtd">
<svg version="1.0" xmlns="http://www.w3.org/2000/svg"
 width="32.000000pt" height="32.000000pt" viewBox="0 0 32.000000 32.000000"
 preserveAspectRatio="xMidYMid meet">
<metadata>
Created by potrace 1.16, written by Peter Selinger 2001-2019
</metadata>
<g transform="translate(0.000000,32.000000) scale(0.100000,-0.100000)"
fill="#000000" stroke="none">
<path fill="#000000" stroke="none" d="M0 160 l0 -160 160 0 160 0 0 160 0
160 -160 0 -160 0 0 -160z"/>
<path fill="#ffffff" stroke="none" d="M181 268 c11 -20 10 -22 -3 -10 -13 10
-16 10 -14 0 0 -7 -3 -15 -9 -18 -5 -3 -11 7 -12 23 -2 34 21 37 38 5z"/>
<path fill="#ffffff" stroke="none" d="M105 192 c-15 -16 -16 -15 -4 12 7 15
15 23 17 16 3 -7 -3 -19 -13 -28z"/>
<path fill="#ffffff" stroke="none" d="M220 212 c0 -21 -37 -59 -47 -49 -3 4
2 17 13 29 15 17 15 20 2 9 -10 -7 -23 -11 -30 -8 -9 4 -8 6 3 6 9 1 22 8 29
16 17 20 30 19 30 -3z"/>
<path fill="#ffffff" stroke="none" d="M125 152 c-3 -3 -11 0 -18 7 -9 10 -8
11 6 5 10 -3 15 -9 12 -12z"/>
<path fill="#ffffff" stroke="none" d="M70 150 c0 -5 -4 -10 -10 -10 -5 0 -10
5 -10 10 0 6 5 10 10 10 6 0 10 -4 10 -10z"/>
<path fill="#ffffff" stroke="none" d="M160 140 c0 -5 -4 -10 -10 -10 -5 0
-10 5 -10 10 0 6 5 10 10 10 6 0 10 -4 10 -10z"/>
<path fill="#ffffff" stroke="none" d="M135 100 c9 -14 -4 -52 -16 -45 -12 8
-12 55 0 55 6 0 13 -5 16 -10z"/>
<path fill="#ffffff" stroke="none" d="M216 65 c6 -25 7 -45 2 -45 -8 0 -11
15 -5 25 1 2 -7 10 -17 18 -12 9 -17 20 -13 31 11 28 22 18 33 -29z"/>
<path fill="#ffffff" stroke="none" d="M115 20 c-3 -5 -11 -10 -16 -10 -6 0
-7 5 -4 10 3 6 11 10 16 10 6 0 7 -4 4 -10z"/>
</g>
</svg>
