<?xml version="1.0" standalone="no"?>
<!DOCTYPE svg PUBLIC "-//W3C//DTD SVG 20010904//EN"
 "http://www.w3.org/TR/2001/REC-SVG-20010904/DTD/svg10.dtd">
<svg version="1.0" xmlns="http://www.w3.org/2000/svg"
 width="32.000000pt" height="32.000000pt" viewBox="0 0 32.000000 32.000000"
 preserveAspectRatio="xMidYMid meet">
<metadata>
Created by potrace 1.16, written by Peter Selinger 2001-2019
</metadata>
<g transform="translate(0.000000,32.000000) scale(0.100000,-0.100000)"
fill="#000000" stroke="none">
<path fill="#000000" stroke="none" d="M147 293 c-4 -3 -7 -19 -7 -35 0 -16
-5 -28 -13 -28 -7 0 -21 -16 -30 -35 -9 -19 -23 -35 -32 -35 -8 0 -15 -7 -15
-15 0 -19 14 -19 32 -2 7 8 20 11 28 8 31 -12 70 -55 70 -77 0 -13 5 -26 11
-29 6 -4 8 -13 5 -21 -4 -9 2 -14 15 -14 14 0 19 5 16 14 -3 8 -9 31 -13 51
-4 25 -11 35 -20 31 -7 -3 -16 -1 -19 4 -4 6 -1 10 4 10 6 0 11 5 11 11 0 5
-4 8 -8 5 -5 -3 -9 1 -9 9 0 8 3 12 7 10 4 -2 17 6 30 20 24 26 21 61 -5 51
-12 -4 -15 1 -13 22 3 42 -23 68 -45 45z"/>
<path fill="#ffffff" stroke="none" d="M161 176 c2 -5 -6 -11 -18 -12 -18 -3
-23 1 -23 19 0 13 3 27 7 30 6 6 25 -15 34 -37z"/>
<path fill="#000000" stroke="none" d="M130 186 c0 -2 7 -7 16 -10 8 -3 12 -2
9 4 -6 10 -25 14 -25 6z"/>
<path fill="#000000" stroke="none" d="M112 72 c3 -26 0 -41 -11 -49 -14 -11
-12 -12 12 -13 25 0 27 3 27 41 0 24 4 38 10 34 5 -3 7 0 5 7 -3 8 -15 14 -26
15 -19 2 -21 -3 -17 -35z"/>
</g>
</svg>
