<?xml version="1.0" standalone="no"?>
<!DOCTYPE svg PUBLIC "-//W3C//DTD SVG 20010904//EN"
 "http://www.w3.org/TR/2001/REC-SVG-20010904/DTD/svg10.dtd">
<svg version="1.0" xmlns="http://www.w3.org/2000/svg"
 width="32.000000pt" height="32.000000pt" viewBox="0 0 32.000000 32.000000"
 preserveAspectRatio="xMidYMid meet">
<metadata>
Created by potrace 1.16, written by Peter Selinger 2001-2019
</metadata>
<g transform="translate(0.000000,32.000000) scale(0.100000,-0.100000)"
fill="#000000" stroke="none">
<path fill="#000000" stroke="none" d="M147 293 c-4 -3 -7 -12 -7 -19 0 -18
-60 -104 -76 -111 -8 -3 -14 -11 -14 -19 0 -17 5 -17 31 -3 11 5 29 7 39 4 18
-6 19 -8 4 -22 -11 -11 -14 -28 -12 -52 3 -25 0 -40 -11 -48 -14 -11 -12 -12
12 -13 24 0 27 3 27 35 0 26 4 35 17 35 9 0 13 3 10 7 -4 3 2 12 13 20 11 8
20 21 20 30 0 13 -3 13 -17 2 -10 -7 -3 3 15 22 37 41 39 50 12 74 -11 10 -18
20 -15 23 2 3 0 13 -6 23 -10 19 -30 25 -42 12z"/>
<path fill="#ffffff" stroke="none" d="M133 180 c-3 -12 -8 -19 -11 -16 -5 6
5 36 12 36 2 0 2 -9 -1 -20z"/>
<path fill="#ffffff" stroke="none" d="M157 114 c-3 -3 -12 -4 -19 -1 -8 3 -5
6 6 6 11 1 17 -2 13 -5z"/>
<path fill="#000000" stroke="none" d="M187 103 c-11 -10 -8 -51 4 -58 6 -4 8
-13 5 -21 -4 -9 2 -14 15 -14 14 0 19 5 16 14 -3 8 -9 31 -13 50 -6 35 -14 43
-27 29z"/>
</g>
</svg>
