<?xml version="1.0" standalone="no"?>
<!DOCTYPE svg PUBLIC "-//W3C//DTD SVG 20010904//EN"
 "http://www.w3.org/TR/2001/REC-SVG-20010904/DTD/svg10.dtd">
<svg version="1.0" xmlns="http://www.w3.org/2000/svg"
 width="32.000000pt" height="32.000000pt" viewBox="0 0 32.000000 32.000000"
 preserveAspectRatio="xMidYMid meet">
<metadata>
Created by potrace 1.16, written by Peter Selinger 2001-2019
</metadata>
<g transform="translate(0.000000,32.000000) scale(0.100000,-0.100000)"
fill="#000000" stroke="none">
<path fill="#000000" stroke="none" d="M146 265 c4 -8 8 -15 10 -15 2 0 4 7 4
15 0 8 -4 15 -10 15 -5 0 -7 -7 -4 -15z"/>
<path fill="#000000" stroke="none" d="M190 215 c-7 -9 -9 -19 -5 -23 4 -4 12
0 18 10 10 15 14 14 46 -9 l36 -26 -33 32 c-37 35 -44 37 -62 16z"/>
<path fill="#000000" stroke="none" d="M86 173 c-6 -14 -5 -15 5 -6 7 7 10 15
7 18 -3 3 -9 -2 -12 -12z"/>
<path fill="#000000" stroke="none" d="M270 150 c0 -5 5 -10 10 -10 6 0 10 5
10 10 0 6 -4 10 -10 10 -5 0 -10 -4 -10 -10z"/>
<path fill="#000000" stroke="none" d="M118 104 c-5 -4 -8 -16 -8 -28 0 -14 3
-17 11 -9 6 6 9 19 7 28 -1 9 -6 13 -10 9z"/>
<path fill="#000000" stroke="none" d="M190 86 c0 -14 5 -26 10 -26 6 0 10 9
10 19 0 11 -4 23 -10 26 -6 4 -10 -5 -10 -19z"/>
<path fill="#000000" stroke="none" d="M100 20 c-9 -6 -10 -10 -3 -10 6 0 15
5 18 10 8 12 4 12 -15 0z"/>
</g>
</svg>
