<?xml version="1.0" standalone="no"?>
<!DOCTYPE svg PUBLIC "-//W3C//DTD SVG 20010904//EN"
 "http://www.w3.org/TR/2001/REC-SVG-20010904/DTD/svg10.dtd">
<svg version="1.0" xmlns="http://www.w3.org/2000/svg"
 width="32.000000pt" height="32.000000pt" viewBox="0 0 32.000000 32.000000"
 preserveAspectRatio="xMidYMid meet">
<metadata>
Created by potrace 1.16, written by Peter Selinger 2001-2019
</metadata>
<g transform="translate(0.000000,32.000000) scale(0.100000,-0.100000)"
fill="#000000" stroke="none">
<path fill="#000000" stroke="none" d="M0 160 l0 -160 160 0 160 0 0 160 0
160 -160 0 -160 0 0 -160z"/>
<path fill="#ffffff" stroke="none" d="M160 293 c14 8 22 8 32 -1 11 -9 17 -9
26 0 7 7 12 8 12 2 0 -19 -23 -33 -40 -24 -9 5 -22 5 -30 0 -15 -10 -40 5 -40
23 0 8 4 7 11 0 9 -9 16 -9 29 0z"/>
<path fill="#ffffff" stroke="none" d="M171 248 c0 -10 2 -10 6 0 2 6 9 12 15
12 6 0 8 -7 5 -14 -4 -9 -1 -13 7 -10 23 9 49 -35 62 -104 23 -116 16 -128
-61 -115 -25 4 -32 9 -28 22 3 9 -2 6 -11 -6 -17 -23 -56 -32 -56 -13 0 6 -9
10 -20 10 -17 0 -18 3 -10 26 15 38 12 74 -5 74 -22 0 -18 23 5 38 11 7 20 18
20 26 0 18 37 49 49 41 7 -3 8 0 5 9 -3 9 -1 16 5 16 6 0 11 -6 12 -12z"/>
<path fill="#000000" stroke="none" d="M130 186 c0 -8 4 -17 9 -20 5 -4 7 3 4
14 -6 23 -13 26 -13 6z"/>
<path fill="#000000" stroke="none" d="M209 170 c-3 -20 -10 -25 -31 -25 -14
1 -24 -3 -22 -7 17 -27 69 6 62 39 -4 14 -6 12 -9 -7z"/>
<path fill="#000000" stroke="none" d="M124 135 c-7 -17 3 -35 19 -35 9 0 9 2
1 8 -6 4 -10 15 -8 25 3 21 -4 23 -12 2z"/>
<path fill="#000000" stroke="none" d="M166 92 c-2 -4 0 -14 6 -22 8 -12 9
-12 5 2 -3 9 -1 19 6 22 9 3 9 5 0 5 -6 1 -14 -3 -17 -7z"/>
</g>
</svg>
