<?xml version="1.0" standalone="no"?>
<!DOCTYPE svg PUBLIC "-//W3C//DTD SVG 20010904//EN"
 "http://www.w3.org/TR/2001/REC-SVG-20010904/DTD/svg10.dtd">
<svg version="1.0" xmlns="http://www.w3.org/2000/svg"
 width="32.000000pt" height="32.000000pt" viewBox="0 0 32.000000 32.000000"
 preserveAspectRatio="xMidYMid meet">
<metadata>
Created by potrace 1.16, written by Peter Selinger 2001-2019
</metadata>
<g transform="translate(0.000000,32.000000) scale(0.100000,-0.100000)"
fill="#000000" stroke="none">
<path fill="#000000" stroke="none" d="M158 293 c6 -2 18 -2 25 0 6 3 1 5 -13
5 -14 0 -19 -2 -12 -5z"/>
<path fill="#000000" stroke="none" d="M143 224 c19 -23 48 -22 68 2 9 12 6
11 -17 -1 -25 -13 -30 -13 -49 3 -20 17 -20 17 -2 -4z"/>
<path fill="#000000" stroke="none" d="M147 189 c7 -7 15 -10 18 -7 3 3 -2 9
-12 12 -14 6 -15 5 -6 -5z"/>
<path fill="#000000" stroke="none" d="M206 191 c-4 -6 -1 -11 6 -11 8 -1 6
-6 -6 -15 -11 -8 -15 -15 -9 -15 19 0 37 30 26 41 -8 8 -13 7 -17 0z"/>
<path fill="#000000" stroke="none" d="M150 160 c-10 -6 -11 -10 -2 -10 14 0
12 -21 -3 -33 -5 -4 4 -5 20 -1 38 9 44 14 17 14 -22 0 -26 18 -7 32 15 12 -7
10 -25 -2z"/>
<path fill="#000000" stroke="none" d="M60 143 c0 -10 4 -14 8 -8 4 6 11 13
16 18 5 4 2 7 -7 7 -10 0 -17 -8 -17 -17z"/>
<path fill="#000000" stroke="none" d="M271 115 c-1 -5 3 -17 9 -25 6 -9 5
-17 -3 -22 -8 -5 -9 -8 -1 -8 6 0 18 8 25 18 7 9 9 13 4 9 -5 -4 -15 3 -22 15
-7 13 -12 19 -12 13z"/>
<path fill="#000000" stroke="none" d="M142 75 c0 -16 2 -22 5 -12 2 9 2 23 0
30 -3 6 -5 -1 -5 -18z"/>
<path fill="#000000" stroke="none" d="M82 58 c-10 -30 -10 -31 3 -14 13 17
21 46 12 46 -1 0 -8 -15 -15 -32z"/>
<path fill="#000000" stroke="none" d="M200 79 c0 -5 5 -7 10 -4 6 3 10 8 10
11 0 2 -4 4 -10 4 -5 0 -10 -5 -10 -11z"/>
<path fill="#000000" stroke="none" d="M216 35 c4 -8 11 -15 16 -15 6 0 5 6
-2 15 -16 19 -21 19 -14 0z"/>
<path fill="#000000" stroke="none" d="M130 30 c-13 -8 -12 -10 3 -10 9 0 17
5 17 10 0 12 -1 12 -20 0z"/>
</g>
</svg>
