<?xml version="1.0" standalone="no"?>
<!DOCTYPE svg PUBLIC "-//W3C//DTD SVG 20010904//EN"
 "http://www.w3.org/TR/2001/REC-SVG-20010904/DTD/svg10.dtd">
<svg version="1.0" xmlns="http://www.w3.org/2000/svg"
 width="32.000000pt" height="32.000000pt" viewBox="0 0 32.000000 32.000000"
 preserveAspectRatio="xMidYMid meet">
<metadata>
Created by potrace 1.16, written by Peter Selinger 2001-2019
</metadata>
<g transform="translate(0.000000,32.000000) scale(0.100000,-0.100000)"
fill="#000000" stroke="none">
<path fill="#000000" stroke="none" d="M110 301 c0 -5 5 -13 10 -16 6 -3 10
-2 10 4 0 5 -4 13 -10 16 -5 3 -10 2 -10 -4z"/>
<path fill="#000000" stroke="none" d="M156 291 c-4 -7 -5 -15 -2 -18 9 -9 19
4 14 18 -4 11 -6 11 -12 0z"/>
<path fill="#000000" stroke="none" d="M157 196 c-4 -10 0 -14 12 -13 11 1 17
7 14 14 -7 17 -20 17 -26 -1z"/>
<path fill="#000000" stroke="none" d="M60 143 c0 -10 4 -14 8 -8 4 6 11 13
16 18 5 4 2 7 -7 7 -10 0 -17 -8 -17 -17z"/>
<path fill="#000000" stroke="none" d="M227 143 c-4 -3 -7 -11 -7 -17 0 -6 5
-5 12 2 6 6 9 14 7 17 -3 3 -9 2 -12 -2z"/>
<path fill="#000000" stroke="none" d="M130 30 c-13 -8 -12 -10 3 -10 9 0 17
5 17 10 0 12 -1 12 -20 0z"/>
</g>
</svg>
