<?xml version="1.0" standalone="no"?>
<!DOCTYPE svg PUBLIC "-//W3C//DTD SVG 20010904//EN"
 "http://www.w3.org/TR/2001/REC-SVG-20010904/DTD/svg10.dtd">
<svg version="1.0" xmlns="http://www.w3.org/2000/svg"
 width="32.000000pt" height="32.000000pt" viewBox="0 0 32.000000 32.000000"
 preserveAspectRatio="xMidYMid meet">
<metadata>
Created by potrace 1.16, written by Peter Selinger 2001-2019
</metadata>
<g transform="translate(0.000000,32.000000) scale(0.100000,-0.100000)"
fill="#000000" stroke="none">
<path fill="#000000" stroke="none" d="M0 160 l0 -160 160 0 160 0 0 160 0
160 -160 0 -160 0 0 -160z"/>
<path fill="#ffffff" stroke="none" d="M157 291 c14 12 43 5 43 -10 0 -16 -73
-7 -78 9 -4 12 -2 13 9 3 9 -9 16 -10 26 -2z"/>
<path fill="#ffffff" stroke="none" d="M222 278 c-7 -7 -12 -8 -12 -2 0 6 3
14 7 17 3 4 9 5 12 2 2 -3 -1 -11 -7 -17z"/>
<path fill="#ffffff" stroke="none" d="M170 250 c0 -5 -4 -10 -10 -10 -5 0
-10 5 -10 10 0 6 5 10 10 10 6 0 10 -4 10 -10z"/>
<path fill="#ffffff" stroke="none" d="M200 250 c0 -5 -4 -10 -10 -10 -5 0
-10 5 -10 10 0 6 5 10 10 10 6 0 10 -4 10 -10z"/>
<path fill="#ffffff" stroke="none" d="M154 231 c3 -5 -6 -12 -19 -15 -14 -4
-23 -11 -20 -16 3 -5 1 -11 -5 -15 -6 -4 -7 -11 -4 -17 4 -6 2 -8 -3 -5 -6 4
-13 -2 -16 -13 -3 -11 -10 -20 -16 -20 -19 0 -12 21 15 42 14 11 23 23 20 26
-7 6 23 42 35 42 4 0 10 -4 13 -9z"/>
<path fill="#ffffff" stroke="none" d="M235 220 c10 -11 24 -50 31 -88 19 -99
15 -130 -5 -39 -13 55 -26 86 -44 105 -15 16 -24 31 -20 35 10 11 19 8 38 -13z"/>
<path fill="#ffffff" stroke="none" d="M197 202 c16 -10 12 -50 -6 -57 -7 -3
-22 -3 -33 1 -16 5 -17 8 -6 22 10 12 10 14 1 8 -14 -8 -19 15 -6 27 9 9 35 9
50 -1z"/>
<path fill="#ffffff" stroke="none" d="M240 137 c0 -14 -5 -17 -21 -12 -15 5
-19 4 -15 -4 11 -17 -20 -24 -51 -13 -22 8 -24 11 -8 11 17 1 18 3 5 11 -11 8
-8 9 12 4 34 -8 69 11 62 34 -5 14 -4 15 5 2 6 -8 11 -23 11 -33z"/>
<path fill="#ffffff" stroke="none" d="M95 64 c-3 -19 -10 -34 -15 -34 -6 0
-6 10 0 26 6 14 11 37 11 52 1 19 3 21 6 9 3 -11 2 -34 -2 -53z"/>
<path fill="#ffffff" stroke="none" d="M161 46 c-6 -7 -8 -16 -4 -19 3 -4 1
-7 -5 -7 -5 0 -18 -3 -28 -7 -12 -4 -15 -2 -12 8 3 8 11 14 19 14 10 0 13 10
11 35 -3 35 -3 35 13 12 12 -17 14 -26 6 -36z"/>
<path fill="#ffffff" stroke="none" d="M225 69 c-4 -11 -1 -26 5 -34 7 -8 10
-15 6 -15 -3 0 -9 0 -13 0 -5 0 -8 3 -8 8 -1 4 -4 17 -9 29 -8 25 0 47 15 37
5 -3 7 -15 4 -25z"/>
<path fill="#000000" stroke="none" d="M168 113 c6 -2 18 -2 25 0 6 3 1 5 -13
5 -14 0 -19 -2 -12 -5z"/>
</g>
</svg>
