<?xml version="1.0" standalone="no"?>
<!DOCTYPE svg PUBLIC "-//W3C//DTD SVG 20010904//EN"
 "http://www.w3.org/TR/2001/REC-SVG-20010904/DTD/svg10.dtd">
<svg version="1.0" xmlns="http://www.w3.org/2000/svg"
 width="32.000000pt" height="32.000000pt" viewBox="0 0 32.000000 32.000000"
 preserveAspectRatio="xMidYMid meet">
<metadata>
Created by potrace 1.16, written by Peter Selinger 2001-2019
</metadata>
<g transform="translate(0.000000,32.000000) scale(0.100000,-0.100000)"
fill="#000000" stroke="none">
<path fill="#000000" stroke="none" d="M0 160 l0 -160 160 0 160 0 0 160 0
160 -160 0 -160 0 0 -160z"/>
<path fill="#ffffff" stroke="none" d="M160 293 c14 8 22 8 32 -1 11 -9 17 -9
26 0 7 7 12 8 12 2 0 -19 -23 -33 -40 -24 -9 5 -22 5 -30 0 -15 -10 -40 5 -40
23 0 8 4 7 11 0 9 -9 16 -9 29 0z"/>
<path fill="#ffffff" stroke="none" d="M168 235 c-4 -17 -1 -25 9 -25 8 0 12
4 9 9 -12 19 28 21 47 2 19 -18 46 -124 47 -181 0 -23 -1 -22 -20 10 -11 19
-23 43 -26 53 -7 18 -13 20 -54 18 -20 -1 -19 1 10 12 25 9 34 18 32 31 -2 11
1 15 7 11 17 -10 13 0 -7 18 -18 16 -18 15 -14 -12 4 -31 -16 -46 -49 -36 -13
4 -17 14 -14 39 2 29 0 33 -17 28 -14 -3 -16 -7 -7 -13 10 -6 10 -11 0 -23 -7
-9 -17 -14 -21 -11 -4 3 -10 -4 -13 -15 -3 -11 -10 -20 -16 -20 -19 0 -12 21
14 42 14 11 23 23 20 27 -7 12 32 44 44 36 7 -3 8 0 5 9 -4 9 -1 16 6 16 8 0
11 -9 8 -25z"/>
<path fill="#ffffff" stroke="none" d="M200 250 c0 -5 -4 -10 -10 -10 -5 0
-10 5 -10 10 0 6 5 10 10 10 6 0 10 -4 10 -10z"/>
<path fill="#ffffff" stroke="none" d="M146 140 c8 0 13 -6 12 -12 -2 -8 7
-13 22 -13 30 0 54 -29 47 -56 -3 -12 0 -22 9 -26 20 -7 18 -25 -3 -21 -16 3
-24 22 -27 66 -1 17 -7 22 -28 22 -33 0 -34 -4 -8 -32 11 -12 19 -29 19 -37
-1 -12 -3 -11 -6 2 -4 16 -6 16 -16 4 -7 -8 -22 -18 -34 -21 -17 -5 -23 -1
-31 21 -7 17 -11 21 -11 11 -1 -10 -5 -18 -11 -18 -6 0 -6 9 0 26 6 14 11 37
11 52 1 28 4 21 13 -38 5 -29 10 -35 30 -35 18 0 22 3 14 12 -6 7 -8 24 -6 38
3 14 1 25 -4 25 -5 0 -7 4 -3 9 3 5 1 12 -5 16 -5 3 -10 12 -9 18 0 9 2 9 6 0
2 -7 11 -13 19 -13z"/>
<path fill="#ffffff" stroke="none" d="M117 83 c-3 -10 -5 -2 -5 17 0 19 2 27
5 18 2 -10 2 -26 0 -35z"/>
</g>
</svg>
