<?xml version="1.0" standalone="no"?>
<!DOCTYPE svg PUBLIC "-//W3C//DTD SVG 20010904//EN"
 "http://www.w3.org/TR/2001/REC-SVG-20010904/DTD/svg10.dtd">
<svg version="1.0" xmlns="http://www.w3.org/2000/svg"
 width="32.000000pt" height="32.000000pt" viewBox="0 0 32.000000 32.000000"
 preserveAspectRatio="xMidYMid meet">
<metadata>
Created by potrace 1.16, written by Peter Selinger 2001-2019
</metadata>
<g transform="translate(0.000000,32.000000) scale(0.100000,-0.100000)"
fill="#000000" stroke="none">
<path fill="#000000" stroke="none" d="M262 175 l-22 -12 20 -23 c11 -13 20
-30 19 -39 0 -10 -3 -8 -9 7 -5 12 -15 22 -22 22 -9 0 -10 -2 -2 -8 7 -4 13
-16 15 -27 5 -24 19 -24 34 -1 7 11 6 22 -2 35 -9 14 -9 21 0 30 17 17 -5 30
-31 16z"/>
<path fill="#ffffff" stroke="none" d="M290 176 c0 -2 -8 -10 -17 -17 -16 -13
-17 -12 -4 4 13 16 21 21 21 13z"/>
<path fill="#000000" stroke="none" d="M24 168 c-3 -5 0 -15 6 -23 8 -10 9
-19 3 -27 -15 -19 -22 -57 -13 -63 5 -3 17 7 28 22 17 23 22 25 35 15 22 -19
29 1 10 28 -14 20 -17 21 -25 6 -5 -9 -14 -16 -20 -16 -9 0 -9 3 0 12 16 16
15 28 -3 28 -8 0 -15 4 -15 10 0 6 9 6 25 0 14 -5 25 -6 25 -1 0 12 -49 20
-56 9z"/>
</g>
</svg>
