<?xml version="1.0" standalone="no"?>
<!DOCTYPE svg PUBLIC "-//W3C//DTD SVG 20010904//EN"
 "http://www.w3.org/TR/2001/REC-SVG-20010904/DTD/svg10.dtd">
<svg version="1.0" xmlns="http://www.w3.org/2000/svg"
 width="32.000000pt" height="32.000000pt" viewBox="0 0 32.000000 32.000000"
 preserveAspectRatio="xMidYMid meet">
<metadata>
Created by potrace 1.16, written by Peter Selinger 2001-2019
</metadata>
<g transform="translate(0.000000,32.000000) scale(0.100000,-0.100000)"
fill="#000000" stroke="none">
<path fill="#000000" stroke="none" d="M0 160 l0 -160 160 0 160 0 0 160 0
160 -160 0 -160 0 0 -160z"/>
<path fill="#ffffff" stroke="none" d="M293 159 c-9 -9 -9 -16 0 -30 8 -13 9
-24 2 -35 -15 -23 -29 -23 -34 1 -2 11 -8 24 -15 28 -7 6 -6 7 4 5 8 -3 17
-15 21 -29 6 -22 7 -22 14 -5 5 11 3 26 -3 37 -7 11 -8 20 -2 24 6 3 10 11 10
18 0 8 -3 8 -12 -1 -7 -7 -19 -12 -27 -12 -10 0 -6 6 9 14 28 14 51 3 33 -15z"/>
<path fill="#ffffff" stroke="none" d="M80 163 c0 -3 -11 -3 -25 -1 -28 6 -33
-6 -9 -20 14 -8 14 -10 0 -21 -9 -8 -16 -23 -16 -34 0 -21 0 -21 16 1 10 14
22 21 31 18 11 -5 14 -1 9 11 -5 16 -4 16 9 -1 18 -23 9 -42 -12 -24 -13 10
-18 8 -35 -15 -11 -15 -23 -25 -28 -22 -9 6 -2 44 13 63 6 8 5 17 -3 27 -6 8
-9 18 -6 23 5 9 56 4 56 -5z"/>
</g>
</svg>
