<?xml version="1.0" standalone="no"?>
<!DOCTYPE svg PUBLIC "-//W3C//DTD SVG 20010904//EN"
 "http://www.w3.org/TR/2001/REC-SVG-20010904/DTD/svg10.dtd">
<svg version="1.0" xmlns="http://www.w3.org/2000/svg"
 width="32.000000pt" height="32.000000pt" viewBox="0 0 32.000000 32.000000"
 preserveAspectRatio="xMidYMid meet">
<metadata>
Created by potrace 1.16, written by Peter Selinger 2001-2019
</metadata>
<g transform="translate(0.000000,32.000000) scale(0.100000,-0.100000)"
fill="#000000" stroke="none">
<path fill="#000000" stroke="none" d="M230 275 c0 -14 -10 -34 -22 -45 -13
-12 -31 -29 -42 -38 -26 -25 -50 -62 -43 -69 7 -7 44 17 69 43 9 11 26 29 38
42 11 12 31 22 45 22 18 0 25 5 25 19 0 15 -5 18 -22 13 -18 -4 -20 -2 -16 16
5 17 2 22 -13 22 -14 0 -19 -7 -19 -25z"/>
<path fill="#000000" stroke="none" d="M136 248 c-4 -18 -8 -20 -18 -10 -18
18 -53 -15 -36 -35 9 -11 7 -15 -10 -20 -13 -3 -22 -13 -22 -24 0 -24 19 -25
27 -1 8 24 75 92 90 92 7 0 13 5 13 10 0 20 -38 10 -44 -12z"/>
<path fill="#000000" stroke="none" d="M199 114 c-22 -25 -22 -26 -3 -16 12 6
24 18 28 27 8 21 3 19 -25 -11z"/>
<path fill="#000000" stroke="none" d="M75 111 c-7 -12 12 -24 25 -16 11 7 4
25 -10 25 -5 0 -11 -4 -15 -9z"/>
<path fill="#000000" stroke="none" d="M46 69 c-21 -17 -24 -24 -15 -35 13
-16 32 -5 50 27 14 27 -5 31 -35 8z"/>
</g>
</svg>
