<?xml version="1.0" standalone="no"?>
<!DOCTYPE svg PUBLIC "-//W3C//DTD SVG 20010904//EN"
 "http://www.w3.org/TR/2001/REC-SVG-20010904/DTD/svg10.dtd">
<svg version="1.0" xmlns="http://www.w3.org/2000/svg"
 width="32.000000pt" height="32.000000pt" viewBox="0 0 32.000000 32.000000"
 preserveAspectRatio="xMidYMid meet">
<metadata>
Created by potrace 1.16, written by Peter Selinger 2001-2019
</metadata>
<g transform="translate(0.000000,32.000000) scale(0.100000,-0.100000)"
fill="#000000" stroke="none">
<path fill="#000000" stroke="none" d="M224 249 c-27 -28 -57 -54 -67 -58 -16
-6 -15 -9 10 -31 15 -14 22 -18 15 -9 -9 13 -5 22 26 52 21 21 42 34 46 30 4
-5 6 -1 4 7 -1 8 2 14 9 13 20 -4 35 23 20 35 -10 9 -25 0 -63 -39z"/>
<path fill="#000000" stroke="none" d="M136 248 c-4 -18 -8 -20 -18 -10 -18
18 -53 -15 -36 -35 9 -11 7 -15 -10 -20 -28 -7 -28 -39 0 -46 16 -5 19 -9 10
-19 -10 -13 -12 -18 -12 -39 0 -5 -4 -8 -9 -5 -4 3 -16 -3 -25 -13 -15 -17
-15 -19 1 -32 10 -7 15 -9 11 -5 -10 11 11 38 23 30 5 -3 9 -2 8 3 -4 25 1 35
14 24 10 -8 17 -7 26 2 9 9 13 7 17 -11 8 -28 40 -29 47 0 5 17 9 19 20 10 20
-17 53 18 35 36 -10 10 -8 14 10 18 21 6 33 44 13 44 -5 0 -16 3 -24 6 -12 4
-14 0 -10 -16 7 -25 -40 -80 -68 -80 -21 0 -59 46 -59 71 0 27 36 59 66 59 20
0 25 4 20 16 -3 9 -6 20 -6 25 0 20 -38 8 -44 -13z"/>
<path fill="#000000" stroke="none" d="M145 150 c10 -11 20 -20 22 -20 2 0 -1
9 -7 20 -6 11 -16 20 -22 20 -6 0 -3 -9 7 -20z"/>
<path fill="#000000" stroke="none" d="M120 129 c0 -5 5 -7 10 -4 6 3 10 8 10
11 0 2 -4 4 -10 4 -5 0 -10 -5 -10 -11z"/>
</g>
</svg>
