<?xml version="1.0" standalone="no"?>
<!DOCTYPE svg PUBLIC "-//W3C//DTD SVG 20010904//EN"
 "http://www.w3.org/TR/2001/REC-SVG-20010904/DTD/svg10.dtd">
<svg version="1.0" xmlns="http://www.w3.org/2000/svg"
 width="32.000000pt" height="32.000000pt" viewBox="0 0 32.000000 32.000000"
 preserveAspectRatio="xMidYMid meet">
<metadata>
Created by potrace 1.16, written by Peter Selinger 2001-2019
</metadata>
<g transform="translate(0.000000,32.000000) scale(0.100000,-0.100000)"
fill="#000000" stroke="none">
<path fill="#000000" stroke="none" d="M0 160 l0 -160 160 0 160 0 0 160 0
160 -160 0 -160 0 0 -160z"/>
<path fill="#ffffff" stroke="none" d="M269 250 c-15 -12 -18 -19 -10 -24 6
-4 9 -12 5 -17 -4 -6 -10 -6 -19 1 -9 7 -16 6 -24 -4 -8 -10 -9 -16 -1 -21 6
-3 8 -11 4 -16 -3 -5 -10 -6 -16 -3 -6 4 -16 0 -22 -8 -13 -18 -56 -42 -63
-35 -6 7 16 50 31 59 6 4 12 13 12 20 1 7 2 17 3 22 0 5 7 3 15 -3 10 -8 16
-8 25 3 8 10 9 16 1 21 -6 3 -8 11 -4 16 4 6 11 6 19 -1 10 -9 16 -6 25 10 9
18 14 19 26 9 14 -11 13 -15 -7 -29z"/>
<path fill="#ffffff" stroke="none" d="M183 249 c4 -13 10 -18 18 -13 8 5 10
3 4 -5 -5 -9 -11 -9 -17 -3 -15 15 -77 -25 -84 -53 -11 -45 31 -84 75 -70 26
8 62 70 49 83 -6 6 -6 12 3 17 8 6 10 4 5 -4 -5 -8 0 -14 13 -18 28 -7 27 -39
-1 -47 -18 -4 -20 -8 -10 -18 18 -18 -15 -53 -35 -36 -11 9 -15 7 -20 -10 -7
-29 -39 -28 -47 0 -4 18 -8 20 -18 10 -18 -18 -53 15 -36 35 9 11 7 15 -10 20
-28 7 -28 39 0 46 17 5 19 9 10 20 -17 20 18 53 36 35 10 -10 14 -8 18 10 8
28 40 29 47 1z"/>
<path fill="#ffffff" stroke="none" d="M81 61 c-18 -32 -37 -43 -50 -27 -9 11
-6 18 15 35 30 23 49 19 35 -8z"/>
</g>
</svg>
