<?xml version="1.0" standalone="no"?>
<!DOCTYPE svg PUBLIC "-//W3C//DTD SVG 20010904//EN"
 "http://www.w3.org/TR/2001/REC-SVG-20010904/DTD/svg10.dtd">
<svg version="1.0" xmlns="http://www.w3.org/2000/svg"
 width="32.000000pt" height="32.000000pt" viewBox="0 0 32.000000 32.000000"
 preserveAspectRatio="xMidYMid meet">
<metadata>
Created by potrace 1.16, written by Peter Selinger 2001-2019
</metadata>
<g transform="translate(0.000000,32.000000) scale(0.100000,-0.100000)"
fill="#000000" stroke="none">
<path fill="#000000" stroke="none" d="M0 160 l0 -160 160 0 160 0 0 160 0
160 -160 0 -160 0 0 -160z"/>
<path fill="#ffffff" stroke="none" d="M290 251 c0 -37 -2 -40 -32 -43 -28 -2
-34 -8 -36 -30 -2 -20 -9 -28 -23 -28 -10 0 -19 -5 -19 -11 0 -5 -5 -7 -10 -4
-6 4 -18 1 -26 -6 -19 -16 -31 -4 -15 15 7 8 10 20 6 26 -3 5 -1 10 4 10 6 0
11 9 11 19 0 14 8 21 28 23 22 2 28 8 30 36 3 30 6 32 43 32 39 0 39 0 39 -39z"/>
<path fill="#ffffff" stroke="none" d="M183 250 c4 -16 0 -20 -18 -20 -26 0
-75 -45 -75 -69 0 -20 50 -71 70 -71 23 0 70 52 70 77 0 16 4 21 15 17 19 -8
19 -28 0 -44 -8 -7 -12 -16 -9 -21 7 -12 -23 -42 -35 -35 -5 3 -14 -1 -21 -9
-16 -20 -36 -19 -44 2 -5 12 -9 14 -18 5 -18 -18 -52 16 -36 35 9 11 7 15 -10
20 -28 7 -28 39 0 46 17 5 19 9 10 20 -17 20 18 53 36 35 10 -10 14 -8 18 10
8 27 40 29 47 2z"/>
<path fill="#ffffff" stroke="none" d="M85 79 c4 -5 -1 -19 -11 -30 -13 -15
-20 -16 -31 -8 -11 10 -11 15 3 30 19 22 30 24 39 8z"/>
<path fill="#000000" stroke="none" d="M230 250 c0 -13 7 -20 20 -20 13 0 20
7 20 20 0 13 -7 20 -20 20 -13 0 -20 -7 -20 -20z"/>
<path fill="#000000" stroke="none" d="M170 185 c0 -8 7 -15 15 -15 8 0 15 7
15 15 0 8 -7 15 -15 15 -8 0 -15 -7 -15 -15z"/>
</g>
</svg>
