<?xml version="1.0" standalone="no"?>
<!DOCTYPE svg PUBLIC "-//W3C//DTD SVG 20010904//EN"
 "http://www.w3.org/TR/2001/REC-SVG-20010904/DTD/svg10.dtd">
<svg version="1.0" xmlns="http://www.w3.org/2000/svg"
 width="32.000000pt" height="32.000000pt" viewBox="0 0 32.000000 32.000000"
 preserveAspectRatio="xMidYMid meet">
<metadata>
Created by potrace 1.16, written by Peter Selinger 2001-2019
</metadata>
<g transform="translate(0.000000,32.000000) scale(0.100000,-0.100000)"
fill="#000000" stroke="none">
<path fill="#000000" stroke="none" d="M0 160 l0 -160 160 0 160 0 0 160 0
160 -160 0 -160 0 0 -160z"/>
<path fill="#ffffff" stroke="none" d="M280 275 c-7 -8 -17 -12 -24 -8 -6 4
-5 -1 3 -10 12 -15 9 -21 -11 -18 -4 0 -11 -14 -16 -32 -7 -27 -13 -32 -38
-32 -24 0 -29 4 -29 25 0 19 9 29 36 42 19 9 41 23 48 32 8 9 20 16 28 16 13
0 13 -3 3 -15z"/>
<path fill="#ffffff" stroke="none" d="M153 250 c-10 -11 -18 -20 -19 -20 -1
0 0 9 3 20 3 11 12 20 19 20 11 0 10 -5 -3 -20z"/>
<path fill="#ffffff" stroke="none" d="M115 241 c7 -13 -24 -43 -36 -35 -6 4
-3 14 7 25 20 22 21 22 29 10z"/>
<path fill="#ffffff" stroke="none" d="M74 165 c-20 -30 -24 -31 -24 -6 0 11
8 22 18 24 9 3 18 5 20 6 1 0 -5 -10 -14 -24z"/>
<path fill="#ffffff" stroke="none" d="M165 160 c10 -11 16 -20 13 -20 -3 0
-13 9 -23 20 -10 11 -16 20 -13 20 3 0 13 -9 23 -20z"/>
<path fill="#ffffff" stroke="none" d="M150 146 c0 -2 -7 -9 -15 -16 -13 -11
-14 -10 -9 4 5 14 24 23 24 12z"/>
<path fill="#ffffff" stroke="none" d="M230 137 c0 -2 -12 -14 -27 -28 l-28
-24 24 28 c23 25 31 32 31 24z"/>
<path fill="#ffffff" stroke="none" d="M95 110 c-3 -5 -11 -10 -16 -10 -6 0
-7 5 -4 10 3 6 11 10 16 10 6 0 7 -4 4 -10z"/>
<path fill="#ffffff" stroke="none" d="M81 73 c7 -10 9 -15 5 -11 -13 11 -37
-12 -29 -26 4 -6 -1 -5 -10 3 -16 13 -16 15 -1 32 21 23 19 23 35 2z"/>
<path fill="#000000" stroke="none" d="M180 215 c-10 -11 -10 -19 -2 -27 15
-15 44 -2 40 19 -4 23 -22 27 -38 8z"/>
</g>
</svg>
