<?xml version="1.0" standalone="no"?>
<!DOCTYPE svg PUBLIC "-//W3C//DTD SVG 20010904//EN"
 "http://www.w3.org/TR/2001/REC-SVG-20010904/DTD/svg10.dtd">
<svg version="1.0" xmlns="http://www.w3.org/2000/svg"
 width="32.000000pt" height="32.000000pt" viewBox="0 0 32.000000 32.000000"
 preserveAspectRatio="xMidYMid meet">
<metadata>
Created by potrace 1.16, written by Peter Selinger 2001-2019
</metadata>
<g transform="translate(0.000000,32.000000) scale(0.100000,-0.100000)"
fill="#000000" stroke="none">
<path fill="#000000" stroke="none" d="M0 160 l0 -160 160 0 160 0 0 160 0
160 -160 0 -160 0 0 -160z"/>
<path fill="#ffffff" stroke="none" d="M290 254 c0 -34 -29 -73 -55 -74 -5 0
-24 -14 -42 -32 -49 -48 -41 -12 9 39 23 24 48 43 55 43 7 0 13 9 13 20 0 13
-7 20 -20 20 -11 0 -20 -5 -20 -12 0 -18 -81 -98 -99 -98 -10 0 -4 11 17 33
18 18 32 36 32 41 0 4 8 18 18 31 13 18 27 24 55 25 36 0 37 -1 37 -36z"/>
<path fill="#ffffff" stroke="none" d="M176 254 c-3 -9 -6 -19 -6 -24 0 -4
-11 -11 -25 -14 -51 -13 -58 -86 -10 -108 33 -15 72 3 81 37 3 14 10 25 14 25
5 0 15 3 24 6 11 4 16 0 16 -14 0 -12 -9 -22 -22 -26 -18 -4 -20 -8 -10 -18
18 -18 -15 -53 -35 -36 -11 9 -15 7 -20 -10 -7 -29 -39 -28 -47 0 -4 18 -8 20
-18 10 -18 -18 -53 15 -36 35 9 11 7 15 -10 20 -28 7 -28 39 0 46 17 5 19 9
10 20 -17 20 18 53 36 35 10 -10 14 -8 18 10 4 13 14 22 26 22 14 0 18 -5 14
-16z"/>
<path fill="#ffffff" stroke="none" d="M230 226 c0 -2 -8 -10 -17 -17 -16 -13
-17 -12 -4 4 13 16 21 21 21 13z"/>
<path fill="#ffffff" stroke="none" d="M150 141 c0 -12 -20 -25 -27 -18 -7 7
6 27 18 27 5 0 9 -4 9 -9z"/>
<path fill="#ffffff" stroke="none" d="M85 79 c4 -5 -1 -19 -11 -30 -13 -15
-20 -16 -31 -8 -11 10 -11 15 3 30 19 22 30 24 39 8z"/>
</g>
</svg>
