<?xml version="1.0" standalone="no"?>
<!DOCTYPE svg PUBLIC "-//W3C//DTD SVG 20010904//EN"
 "http://www.w3.org/TR/2001/REC-SVG-20010904/DTD/svg10.dtd">
<svg version="1.0" xmlns="http://www.w3.org/2000/svg"
 width="32.000000pt" height="32.000000pt" viewBox="0 0 32.000000 32.000000"
 preserveAspectRatio="xMidYMid meet">
<metadata>
Created by potrace 1.16, written by Peter Selinger 2001-2019
</metadata>
<g transform="translate(0.000000,32.000000) scale(0.100000,-0.100000)"
fill="#000000" stroke="none">
<path fill="#000000" stroke="none" d="M0 160 l0 -160 160 0 160 0 0 160 0
160 -160 0 -160 0 0 -160z"/>
<path fill="#ffffff" stroke="none" d="M287 250 l2 -39 -37 2 c-34 2 -37 -1
-40 -25 -3 -23 -8 -28 -29 -28 -23 0 -24 -2 -12 -17 7 -10 1 -7 -14 7 -16 13
-23 26 -18 28 6 2 11 12 11 23 0 14 7 19 30 19 28 0 30 3 30 35 0 34 1 35 38
35 36 0 37 -1 39 -40z"/>
<path fill="#ffffff" stroke="none" d="M180 260 c0 -5 -6 -10 -13 -10 -15 0
-82 -68 -90 -92 -8 -24 -27 -23 -27 1 0 11 9 21 22 24 17 5 19 9 10 20 -17 20
18 53 36 35 10 -10 14 -8 18 10 6 22 44 32 44 12z"/>
<path fill="#ffffff" stroke="none" d="M140 136 c0 -3 -4 -8 -10 -11 -5 -3
-10 -1 -10 4 0 6 5 11 10 11 6 0 10 -2 10 -4z"/>
<path fill="#ffffff" stroke="none" d="M224 125 c-4 -9 -16 -21 -28 -27 -19
-10 -19 -9 3 16 28 30 33 32 25 11z"/>
<path fill="#ffffff" stroke="none" d="M105 111 c7 -12 -12 -24 -25 -16 -11 7
-4 25 10 25 5 0 11 -4 15 -9z"/>
<path fill="#ffffff" stroke="none" d="M81 73 c7 -10 9 -15 5 -11 -13 11 -37
-12 -29 -26 4 -6 -1 -5 -10 3 -16 13 -16 15 -1 32 21 23 19 23 35 2z"/>
<path fill="#000000" stroke="none" d="M220 255 c0 -20 5 -25 25 -25 20 0 25
5 25 25 0 20 -5 25 -25 25 -20 0 -25 -5 -25 -25z"/>
<path fill="#000000" stroke="none" d="M160 190 c0 -13 7 -20 20 -20 13 0 20
7 20 20 0 13 -7 20 -20 20 -13 0 -20 -7 -20 -20z"/>
</g>
</svg>
