<?xml version="1.0" standalone="no"?>
<!DOCTYPE svg PUBLIC "-//W3C//DTD SVG 20010904//EN"
 "http://www.w3.org/TR/2001/REC-SVG-20010904/DTD/svg10.dtd">
<svg version="1.0" xmlns="http://www.w3.org/2000/svg"
 width="32.000000pt" height="32.000000pt" viewBox="0 0 32.000000 32.000000"
 preserveAspectRatio="xMidYMid meet">
<metadata>
Created by potrace 1.16, written by Peter Selinger 2001-2019
</metadata>
<g transform="translate(0.000000,32.000000) scale(0.100000,-0.100000)"
fill="#000000" stroke="none">
<path fill="#000000" stroke="none" d="M0 160 l0 -160 160 0 160 0 0 160 0
160 -160 0 -160 0 0 -160z"/>
<path fill="#ffffff" stroke="none" d="M290 276 c0 -7 -7 -19 -16 -27 -9 -7
-23 -29 -32 -48 -10 -20 -26 -37 -37 -40 -11 -2 -22 -6 -25 -10 -9 -11 -52
-32 -57 -28 -4 5 17 48 28 57 4 3 8 14 10 25 3 11 20 27 40 37 19 9 41 23 48
32 16 20 41 21 41 2z"/>
<path fill="#ffffff" stroke="none" d="M180 255 c0 -9 -16 -25 -35 -36 -39
-23 -52 -56 -36 -87 24 -46 79 -39 110 13 22 38 51 47 51 16 0 -11 -9 -21 -22
-25 -18 -4 -20 -8 -10 -18 18 -18 -15 -53 -35 -36 -11 9 -15 7 -20 -10 -7 -29
-39 -28 -47 0 -4 18 -8 20 -18 10 -18 -18 -53 15 -36 35 9 11 7 15 -10 20 -28
7 -28 39 0 46 17 5 19 9 10 20 -17 20 18 53 36 35 10 -10 14 -8 18 10 7 25 44
31 44 7z"/>
<path fill="#ffffff" stroke="none" d="M85 79 c4 -5 -1 -19 -11 -30 -13 -15
-20 -16 -31 -8 -11 10 -11 15 3 30 19 22 30 24 39 8z"/>
<path fill="#000000" stroke="none" d="M184 209 c-10 -17 13 -36 27 -22 12 12
4 33 -11 33 -5 0 -12 -5 -16 -11z"/>
</g>
</svg>
