<?xml version="1.0" standalone="no"?>
<!DOCTYPE svg PUBLIC "-//W3C//DTD SVG 20010904//EN"
 "http://www.w3.org/TR/2001/REC-SVG-20010904/DTD/svg10.dtd">
<svg version="1.0" xmlns="http://www.w3.org/2000/svg"
 width="32.000000pt" height="32.000000pt" viewBox="0 0 32.000000 32.000000"
 preserveAspectRatio="xMidYMid meet">
<metadata>
Created by potrace 1.16, written by Peter Selinger 2001-2019
</metadata>
<g transform="translate(0.000000,32.000000) scale(0.100000,-0.100000)"
fill="#000000" stroke="none">
<path fill="#000000" stroke="none" d="M22 158 l2 -143 3 137 4 137 137 4 137
3 -142 2 -143 2 2 -142z"/>
<path fill="#000000" stroke="none" d="M74 212 c-6 -4 -14 -16 -18 -26 -7 -19
-6 -19 13 -2 18 16 21 17 27 3 10 -27 60 -41 93 -27 16 6 32 19 35 27 6 14 9
14 26 -2 18 -16 18 -16 13 3 -6 23 -29 36 -38 22 -8 -13 -118 -13 -131 0 -5 5
-14 6 -20 2z"/>
<path fill="#000000" stroke="none" d="M133 125 c-19 -21 -16 -27 7 -13 16 10
24 10 40 0 23 -14 26 -7 6 14 -18 18 -37 17 -53 -1z"/>
<path fill="#000000" stroke="none" d="M57 103 c-27 -27 32 -63 103 -63 55 0
113 25 108 46 -4 24 -26 29 -24 7 1 -13 -7 -19 -33 -21 -25 -3 -31 0 -25 10 6
10 4 10 -9 -1 -14 -11 -20 -11 -34 0 -13 11 -15 11 -9 1 6 -10 0 -13 -25 -10
-25 2 -34 8 -33 21 2 17 -7 22 -19 10z"/>
</g>
</svg>
