<?xml version="1.0" standalone="no"?>
<!DOCTYPE svg PUBLIC "-//W3C//DTD SVG 20010904//EN"
 "http://www.w3.org/TR/2001/REC-SVG-20010904/DTD/svg10.dtd">
<svg version="1.0" xmlns="http://www.w3.org/2000/svg"
 width="32.000000pt" height="32.000000pt" viewBox="0 0 32.000000 32.000000"
 preserveAspectRatio="xMidYMid meet">
<metadata>
Created by potrace 1.16, written by Peter Selinger 2001-2019
</metadata>
<g transform="translate(0.000000,32.000000) scale(0.100000,-0.100000)"
fill="#000000" stroke="none">
<path fill="#000000" stroke="none" d="M0 160 l0 -160 160 0 160 0 0 160 0
160 -160 0 -160 0 0 -160z"/>
<path fill="#ffffff" stroke="none" d="M168 293 l-137 -4 -4 -137 -3 -137 -2
143 -2 142 143 -2 142 -2 -137 -3z"/>
<path fill="#ffffff" stroke="none" d="M161 200 c32 0 60 4 64 10 9 14 32 1
38 -22 5 -19 5 -19 -13 -3 -17 16 -20 16 -26 2 -10 -27 -60 -41 -93 -27 -16 6
-32 19 -35 27 -6 14 -9 13 -27 -3 -19 -17 -20 -17 -13 2 10 25 26 36 38 24 6
-6 36 -10 67 -10z"/>
<path fill="#ffffff" stroke="none" d="M186 126 c20 -21 17 -28 -6 -14 -16 10
-24 10 -40 0 -23 -14 -26 -8 -7 13 16 18 35 19 53 1z"/>
<path fill="#ffffff" stroke="none" d="M76 93 c-1 -13 8 -19 33 -21 25 -3 31
0 25 10 -6 10 -4 10 9 -1 14 -11 20 -11 34 0 13 11 15 11 9 1 -6 -10 0 -13 25
-10 26 2 34 8 33 21 -2 22 20 17 24 -7 5 -21 -53 -46 -108 -46 -71 0 -130 36
-103 63 12 12 21 7 19 -10z"/>
</g>
</svg>
