<?xml version="1.0" standalone="no"?>
<!DOCTYPE svg PUBLIC "-//W3C//DTD SVG 20010904//EN"
 "http://www.w3.org/TR/2001/REC-SVG-20010904/DTD/svg10.dtd">
<svg version="1.0" xmlns="http://www.w3.org/2000/svg"
 width="32.000000pt" height="32.000000pt" viewBox="0 0 32.000000 32.000000"
 preserveAspectRatio="xMidYMid meet">
<metadata>
Created by potrace 1.16, written by Peter Selinger 2001-2019
</metadata>
<g transform="translate(0.000000,32.000000) scale(0.100000,-0.100000)"
fill="#000000" stroke="none">
<path fill="#000000" stroke="none" d="M0 160 l0 -160 160 0 160 0 0 160 0
160 -160 0 -160 0 0 -160z"/>
<path fill="#ffffff" stroke="none" d="M168 293 l-137 -4 -4 -137 -3 -137 -2
143 -2 142 143 -2 142 -2 -137 -3z"/>
<path fill="#ffffff" stroke="none" d="M178 213 c13 -41 9 -53 -18 -53 -10 0
-21 4 -24 8 -6 11 15 82 24 82 4 0 12 -16 18 -37z"/>
<path fill="#ffffff" stroke="none" d="M84 169 c40 -23 41 -25 24 -43 -17 -16
-51 -29 -43 -16 3 6 -1 20 -9 32 -15 21 -21 48 -12 48 3 0 21 -9 40 -21z"/>
<path fill="#ffffff" stroke="none" d="M280 176 c0 -8 -7 -21 -15 -30 -8 -8
-15 -19 -15 -25 0 -16 -19 -13 -37 4 -17 18 -16 20 24 46 35 22 43 23 43 5z"/>
<path fill="#ffffff" stroke="none" d="M131 103 c13 -16 12 -17 -3 -4 -10 7
-18 15 -18 17 0 8 8 3 21 -13z"/>
<path fill="#ffffff" stroke="none" d="M210 116 c0 -2 -8 -10 -17 -17 -16 -13
-17 -12 -4 4 13 16 21 21 21 13z"/>
</g>
</svg>
