<?xml version="1.0" standalone="no"?>
<!DOCTYPE svg PUBLIC "-//W3C//DTD SVG 20010904//EN"
 "http://www.w3.org/TR/2001/REC-SVG-20010904/DTD/svg10.dtd">
<svg version="1.0" xmlns="http://www.w3.org/2000/svg"
 width="32.000000pt" height="32.000000pt" viewBox="0 0 32.000000 32.000000"
 preserveAspectRatio="xMidYMid meet">
<metadata>
Created by potrace 1.16, written by Peter Selinger 2001-2019
</metadata>
<g transform="translate(0.000000,32.000000) scale(0.100000,-0.100000)"
fill="#000000" stroke="none">
<path fill="#000000" stroke="none" d="M22 158 l2 -143 3 137 4 137 137 4 137
3 -142 2 -143 2 2 -142z"/>
<path fill="#000000" stroke="none" d="M142 213 c-13 -41 -9 -53 18 -53 10 0
21 4 24 8 6 11 -15 82 -24 82 -4 0 -12 -16 -18 -37z"/>
<path fill="#000000" stroke="none" d="M40 185 c0 -13 35 -75 43 -75 9 0 37
25 37 33 0 5 -68 47 -76 47 -2 0 -4 -2 -4 -5z"/>
<path fill="#000000" stroke="none" d="M237 171 c-40 -26 -41 -28 -24 -46 22
-21 30 -19 45 13 30 60 27 64 -21 33z"/>
</g>
</svg>
