<?xml version="1.0" standalone="no"?>
<!DOCTYPE svg PUBLIC "-//W3C//DTD SVG 20010904//EN"
 "http://www.w3.org/TR/2001/REC-SVG-20010904/DTD/svg10.dtd">
<svg version="1.0" xmlns="http://www.w3.org/2000/svg"
 width="32.000000pt" height="32.000000pt" viewBox="0 0 32.000000 32.000000"
 preserveAspectRatio="xMidYMid meet">
<metadata>
Created by potrace 1.16, written by Peter Selinger 2001-2019
</metadata>
<g transform="translate(0.000000,32.000000) scale(0.100000,-0.100000)"
fill="#000000" stroke="none">
<path fill="#000000" stroke="none" d="M20 160 l0 -140 140 0 140 0 0 140 0
140 -140 0 -140 0 0 -140z"/>
<path fill="#ffffff" stroke="none" d="M290 160 l0 -130 -130 0 -130 0 0 130
0 130 130 0 130 0 0 -130z"/>
<path fill="#000000" stroke="none" d="M99 257 c7 -9 17 -15 21 -12 5 3 1 -9
-7 -27 -15 -29 -17 -30 -24 -11 -4 11 -15 23 -25 27 -10 4 -15 4 -11 0 4 -4 2
-13 -5 -21 -8 -10 -8 -12 3 -8 8 3 18 -4 24 -17 6 -13 17 -22 26 -20 26 4 48
-31 51 -80 4 -61 16 -52 15 11 -2 45 0 48 17 39 12 -7 16 -7 12 0 -3 6 -3 18
0 27 5 13 8 14 15 3 7 -10 12 -9 26 6 17 19 17 19 -1 5 -18 -13 -19 -12 -13 4
4 10 2 17 -5 17 -9 0 -9 3 0 12 8 8 15 8 26 -1 12 -10 17 -8 26 8 8 17 8 19
-4 15 -8 -3 -17 0 -21 6 -5 8 -11 8 -21 -1 -11 -9 -17 -9 -28 0 -8 7 -30 13
-48 15 -19 2 -41 7 -49 11 -12 8 -12 6 0 -8z"/>
<path fill="#ffffff" stroke="none" d="M180 214 c11 -12 10 -18 -3 -32 -16
-15 -18 -15 -34 0 -13 14 -14 20 -3 32 7 9 16 16 20 16 4 0 13 -7 20 -16z"/>
<path fill="#000000" stroke="none" d="M130 101 c0 -10 -7 -22 -16 -25 -8 -3
-13 -10 -10 -15 4 -5 0 -12 -6 -14 -7 -3 -1 -6 15 -6 25 -1 27 2 27 39 0 22
-2 40 -5 40 -3 0 -5 -9 -5 -19z"/>
<path fill="#000000" stroke="none" d="M181 83 c-1 -41 1 -43 27 -43 21 0 24
2 12 10 -8 5 -10 10 -5 10 6 0 3 6 -6 13 -9 7 -19 21 -22 32 -2 11 -5 1 -6
-22z"/>
</g>
</svg>
