<?xml version="1.0" standalone="no"?>
<!DOCTYPE svg PUBLIC "-//W3C//DTD SVG 20010904//EN"
 "http://www.w3.org/TR/2001/REC-SVG-20010904/DTD/svg10.dtd">
<svg version="1.0" xmlns="http://www.w3.org/2000/svg"
 width="32.000000pt" height="32.000000pt" viewBox="0 0 32.000000 32.000000"
 preserveAspectRatio="xMidYMid meet">
<metadata>
Created by potrace 1.16, written by Peter Selinger 2001-2019
</metadata>
<g transform="translate(0.000000,32.000000) scale(0.100000,-0.100000)"
fill="#000000" stroke="none">
<path fill="#000000" stroke="none" d="M22 158 l2 -143 3 137 4 137 137 4 137
3 -142 2 -143 2 2 -142z"/>
<path fill="#000000" stroke="none" d="M126 255 c14 -7 -16 -76 -31 -71 -5 2
-9 8 -8 14 1 5 -5 16 -15 24 -15 12 -16 11 -3 -4 7 -10 10 -18 6 -18 -4 0 -2
-7 5 -15 7 -9 19 -14 26 -11 16 6 52 -35 49 -56 -2 -10 0 -20 5 -23 4 -2 6 9
5 26 -2 24 1 29 13 24 9 -3 13 -3 9 1 -10 10 13 35 26 27 7 -4 8 0 4 12 -10
24 11 49 28 35 10 -8 15 -8 21 1 4 7 3 9 -4 5 -6 -3 -14 -2 -17 4 -5 8 -11 8
-20 0 -10 -9 -20 -8 -37 3 -13 8 -34 18 -48 21 -14 3 -20 3 -14 1z"/>
<path fill="#ffffff" stroke="none" d="M185 200 c0 -18 -6 -26 -23 -28 -24 -4
-38 18 -28 44 3 9 15 14 28 12 17 -2 23 -10 23 -28z"/>
<path fill="#000000" stroke="none" d="M130 96 c0 -13 -6 -27 -12 -29 -8 -3
-6 -6 5 -6 12 -1 17 7 17 29 0 17 -2 30 -5 30 -3 0 -5 -11 -5 -24z"/>
<path fill="#000000" stroke="none" d="M181 93 c-1 -25 3 -33 17 -33 11 0 13
3 6 8 -7 4 -14 18 -17 32 -4 21 -4 20 -6 -7z"/>
</g>
</svg>
