<?xml version="1.0" standalone="no"?>
<!DOCTYPE svg PUBLIC "-//W3C//DTD SVG 20010904//EN"
 "http://www.w3.org/TR/2001/REC-SVG-20010904/DTD/svg10.dtd">
<svg version="1.0" xmlns="http://www.w3.org/2000/svg"
 width="32.000000pt" height="32.000000pt" viewBox="0 0 32.000000 32.000000"
 preserveAspectRatio="xMidYMid meet">
<metadata>
Created by potrace 1.16, written by Peter Selinger 2001-2019
</metadata>
<g transform="translate(0.000000,32.000000) scale(0.100000,-0.100000)"
fill="#000000" stroke="none">
<path fill="#000000" stroke="none" d="M0 160 l0 -160 160 0 160 0 0 160 0
160 -160 0 -160 0 0 -160z"/>
<path fill="#ffffff" stroke="none" d="M168 293 l-137 -4 -4 -137 -3 -137 -2
143 -2 142 143 -2 142 -2 -137 -3z"/>
<path fill="#ffffff" stroke="none" d="M188 233 c17 -11 27 -12 37 -3 9 8 15
8 20 0 3 -6 11 -7 17 -4 7 4 8 2 4 -5 -6 -9 -11 -9 -21 -1 -17 14 -38 -11 -28
-35 4 -12 3 -16 -4 -12 -13 8 -36 -17 -26 -27 4 -4 0 -4 -9 -1 -12 5 -15 0
-13 -24 1 -17 -1 -28 -5 -26 -5 3 -7 13 -5 23 3 21 -33 62 -49 56 -7 -3 -19 2
-26 11 -7 8 -9 15 -5 15 4 0 1 8 -6 18 -13 15 -12 16 3 4 10 -8 16 -19 15 -24
-1 -6 3 -12 8 -14 15 -5 45 64 31 71 -6 2 0 2 14 -1 14 -3 35 -13 48 -21z"/>
<path fill="#ffffff" stroke="none" d="M130 62 c-9 -3 -9 -7 1 -13 10 -6 8 -9
-10 -9 -22 0 -23 1 -7 25 9 13 17 32 17 42 1 10 4 5 6 -12 3 -17 0 -31 -7 -33z"/>
<path fill="#ffffff" stroke="none" d="M207 63 c14 -22 14 -23 -8 -23 -19 0
-21 2 -9 10 10 6 11 10 3 10 -8 0 -13 13 -12 33 1 20 3 25 6 12 3 -10 12 -29
20 -42z"/>
<path fill="#000000" stroke="none" d="M134 216 c-10 -26 4 -48 28 -44 17 2
23 10 23 28 0 18 -6 26 -23 28 -13 2 -25 -3 -28 -12z"/>
</g>
</svg>
