<?xml version="1.0" standalone="no"?>
<!DOCTYPE svg PUBLIC "-//W3C//DTD SVG 20010904//EN"
 "http://www.w3.org/TR/2001/REC-SVG-20010904/DTD/svg10.dtd">
<svg version="1.0" xmlns="http://www.w3.org/2000/svg"
 width="32.000000pt" height="32.000000pt" viewBox="0 0 32.000000 32.000000"
 preserveAspectRatio="xMidYMid meet">
<metadata>
Created by potrace 1.16, written by Peter Selinger 2001-2019
</metadata>
<g transform="translate(0.000000,32.000000) scale(0.100000,-0.100000)"
fill="#000000" stroke="none">
<path fill="#000000" stroke="none" d="M22 148 l2 -143 3 137 4 137 137 4 137
3 -142 2 -143 2 2 -142z"/>
<path fill="#000000" stroke="none" d="M59 228 c-11 -50 -4 -75 27 -102 22
-18 32 -22 28 -12 -4 11 -2 16 7 14 8 -2 13 3 11 11 -2 9 3 11 13 7 11 -4 14
-2 9 6 -5 8 -2 9 9 5 12 -5 17 -1 17 13 0 28 -44 54 -76 46 -17 -5 -23 -3 -19
4 3 5 -1 10 -9 10 -9 0 -16 -1 -17 -2z"/>
<path fill="#ffffff" stroke="none" d="M130 190 c0 -5 -7 -10 -16 -10 -8 0
-12 5 -9 10 3 6 10 10 16 10 5 0 9 -4 9 -10z"/>
<path fill="#ffffff" stroke="none" d="M168 182 c2 -7 -3 -12 -12 -12 -9 0
-16 7 -16 16 0 17 22 14 28 -4z"/>
<path fill="#ffffff" stroke="none" d="M122 152 c4 -12 -1 -18 -13 -19 -21 -2
-33 12 -24 27 10 16 32 11 37 -8z"/>
<path fill="#000000" stroke="none" d="M194 119 c-10 -17 13 -36 27 -22 12 12
4 33 -11 33 -5 0 -12 -5 -16 -11z"/>
<path fill="#000000" stroke="none" d="M251 76 c-8 -10 -9 -16 -1 -21 5 -3 10
-5 11 -3 4 18 7 38 4 38 -1 0 -8 -6 -14 -14z"/>
<path fill="#000000" stroke="none" d="M66 65 c-2 -7 1 -16 9 -19 7 -2 16 1
19 9 2 7 -1 16 -9 19 -7 2 -16 -1 -19 -9z"/>
</g>
</svg>
