<?xml version="1.0" standalone="no"?>
<!DOCTYPE svg PUBLIC "-//W3C//DTD SVG 20010904//EN"
 "http://www.w3.org/TR/2001/REC-SVG-20010904/DTD/svg10.dtd">
<svg version="1.0" xmlns="http://www.w3.org/2000/svg"
 width="32.000000pt" height="32.000000pt" viewBox="0 0 32.000000 32.000000"
 preserveAspectRatio="xMidYMid meet">
<metadata>
Created by potrace 1.16, written by Peter Selinger 2001-2019
</metadata>
<g transform="translate(0.000000,32.000000) scale(0.100000,-0.100000)"
fill="#000000" stroke="none">
<path fill="#000000" stroke="none" d="M0 160 l0 -160 160 0 160 0 0 160 0
160 -160 0 -160 0 0 -160z"/>
<path fill="#ffffff" stroke="none" d="M163 293 l-132 -4 -4 -132 -3 -132 -2
138 -2 137 138 -2 137 -2 -132 -3z"/>
<path fill="#ffffff" stroke="none" d="M186 248 c5 -7 3 -8 -6 -3 -10 6 -12 2
-7 -15 4 -16 3 -20 -5 -12 -6 6 -8 18 -5 26 8 19 13 20 23 4z"/>
<path fill="#ffffff" stroke="none" d="M111 199 c13 -6 45 -15 73 -20 l51 -8
-53 3 c-58 3 -105 30 -109 62 -2 15 -1 15 6 -3 6 -12 20 -27 32 -34z"/>
<path fill="#ffffff" stroke="none" d="M76 173 c-8 -8 -36 5 -36 17 0 7 6 7
21 0 11 -7 18 -14 15 -17z"/>
<path fill="#ffffff" stroke="none" d="M160 120 c-9 -17 -9 -29 -1 -47 16 -36
13 -42 -5 -10 -13 24 -13 34 -3 58 6 16 14 28 16 25 3 -2 -1 -14 -7 -26z"/>
</g>
</svg>
