<?xml version="1.0" standalone="no"?>
<!DOCTYPE svg PUBLIC "-//W3C//DTD SVG 20010904//EN"
 "http://www.w3.org/TR/2001/REC-SVG-20010904/DTD/svg10.dtd">
<svg version="1.0" xmlns="http://www.w3.org/2000/svg"
 width="32.000000pt" height="32.000000pt" viewBox="0 0 32.000000 32.000000"
 preserveAspectRatio="xMidYMid meet">
<metadata>
Created by potrace 1.16, written by Peter Selinger 2001-2019
</metadata>
<g transform="translate(0.000000,32.000000) scale(0.100000,-0.100000)"
fill="#000000" stroke="none">
<path fill="#000000" stroke="none" d="M123 270 c1 -30 8 -61 15 -68 18 -20
15 -29 -10 -28 -20 1 -23 -5 -26 -37 -3 -32 0 -39 17 -44 12 -3 21 -10 21 -15
0 -5 -6 -6 -12 -3 -7 4 -6 1 2 -7 9 -7 14 -21 12 -30 -2 -13 3 -18 18 -18 15
0 20 5 18 17 -2 10 3 24 12 31 8 8 9 11 3 7 -7 -3 -13 -2 -13 3 0 5 9 12 21
15 17 5 20 12 17 44 -3 32 -6 38 -25 37 -26 -1 -29 8 -10 28 6 7 13 38 14 68
1 43 0 48 -6 25 -13 -51 -23 -75 -31 -75 -8 0 -18 24 -31 75 -6 23 -7 18 -6
-25z"/>
<path fill="#ffffff" stroke="none" d="M182 115 c6 -6 -14 -55 -22 -55 -8 0
-28 49 -22 55 3 3 13 5 22 5 9 0 19 -2 22 -5z"/>
<path fill="#ffffff" stroke="none" d="M170 40 c0 -5 -4 -10 -10 -10 -5 0 -10
5 -10 10 0 6 5 10 10 10 6 0 10 -4 10 -10z"/>
<path fill="#000000" stroke="none" d="M22 230 c3 -69 3 -70 31 -70 25 0 27
-2 17 -20 -6 -11 -8 -20 -6 -20 11 0 46 81 46 107 0 23 -2 25 -12 11 -7 -9
-25 -18 -40 -22 -27 -6 -28 -5 -28 33 0 40 0 40 43 44 l42 4 -48 1 -48 2 3
-70z"/>
<path fill="#000000" stroke="none" d="M148 293 c6 -2 18 -2 25 0 6 3 1 5 -13
5 -14 0 -19 -2 -12 -5z"/>
<path fill="#000000" stroke="none" d="M248 293 c42 -4 42 -4 42 -44 0 -38 -1
-39 -27 -33 -16 4 -34 13 -40 22 -11 14 -13 12 -13 -11 0 -26 35 -107 46 -107
2 0 0 9 -6 20 -10 18 -8 20 17 20 28 0 28 1 31 70 l3 70 -48 -2 -48 -1 43 -4z"/>
<path fill="#000000" stroke="none" d="M11 112 c-7 -20 -11 -53 -9 -72 3 -30
7 -35 32 -37 22 -2 26 1 18 9 -17 17 -15 33 3 18 8 -6 22 -10 32 -7 14 4 13 5
-4 6 -13 0 -23 5 -23 10 0 5 -9 11 -20 14 -19 5 -19 7 -5 41 18 44 19 56 2 56
-8 0 -19 -17 -26 -38z"/>
<path fill="#000000" stroke="none" d="M270 140 c0 -6 7 -27 15 -46 14 -34 14
-36 -5 -41 -11 -3 -20 -9 -20 -14 0 -5 -10 -10 -22 -10 -18 -1 -19 -2 -5 -6
10 -3 24 1 32 7 18 15 20 -1 3 -18 -8 -8 -4 -11 18 -9 25 2 29 7 32 37 4 43
-17 110 -35 110 -7 0 -13 -5 -13 -10z"/>
<path fill="#000000" stroke="none" d="M91 73 c-1 -7 8 -27 19 -45 l20 -33 0
33 c0 21 -5 32 -14 32 -8 0 -17 6 -19 13 -4 9 -6 9 -6 0z"/>
<path fill="#000000" stroke="none" d="M221 73 c-1 -7 -8 -13 -16 -13 -10 0
-15 -10 -15 -32 l0 -33 21 34 c11 18 18 38 15 45 -3 7 -5 7 -5 -1z"/>
</g>
</svg>
