<?xml version="1.0" standalone="no"?>
<!DOCTYPE svg PUBLIC "-//W3C//DTD SVG 20010904//EN"
 "http://www.w3.org/TR/2001/REC-SVG-20010904/DTD/svg10.dtd">
<svg version="1.0" xmlns="http://www.w3.org/2000/svg"
 width="32.000000pt" height="32.000000pt" viewBox="0 0 32.000000 32.000000"
 preserveAspectRatio="xMidYMid meet">
<metadata>
Created by potrace 1.16, written by Peter Selinger 2001-2019
</metadata>
<g transform="translate(0.000000,32.000000) scale(0.100000,-0.100000)"
fill="#000000" stroke="none">
<path fill="#000000" stroke="none" d="M0 160 l0 -160 160 0 160 0 0 160 0
160 -160 0 -160 0 0 -160z"/>
<path fill="#ffffff" stroke="none" d="M168 293 l-137 -4 -4 -137 -3 -137 -2
143 -2 142 143 -2 142 -2 -137 -3z"/>
<path fill="#ffffff" stroke="none" d="M110 225 c35 -36 61 -54 72 -52 12 4
15 0 10 -12 -5 -14 -2 -13 23 3 22 14 26 15 17 4 -8 -10 -10 -26 -6 -45 l8
-28 7 25 7 25 1 -27 c1 -16 6 -28 11 -28 6 0 2 -8 -7 -18 -10 -10 -19 -14 -21
-10 -2 4 -16 8 -30 9 l-27 1 25 7 25 7 -28 8 c-19 4 -35 2 -45 -6 -11 -9 -10
-5 4 17 16 25 17 28 3 23 -12 -5 -16 -2 -12 10 2 11 -16 37 -52 72 -52 52 -65
70 -47 70 4 0 32 -25 62 -55z"/>
<path fill="#ffffff" stroke="none" d="M151 236 c8 5 9 3 5 -5 -5 -7 0 -21 11
-33 l18 -22 -27 20 c-14 10 -32 28 -39 39 -11 18 -11 19 4 7 9 -8 22 -10 28
-6z"/>
<path fill="#ffffff" stroke="none" d="M124 162 l20 -27 -22 18 c-12 11 -26
16 -33 11 -8 -4 -10 -3 -5 5 4 6 2 19 -6 28 -12 15 -11 15 7 4 11 -7 29 -25
39 -39z"/>
</g>
</svg>
