<?xml version="1.0" standalone="no"?>
<!DOCTYPE svg PUBLIC "-//W3C//DTD SVG 20010904//EN"
 "http://www.w3.org/TR/2001/REC-SVG-20010904/DTD/svg10.dtd">
<svg version="1.0" xmlns="http://www.w3.org/2000/svg"
 width="32.000000pt" height="32.000000pt" viewBox="0 0 32.000000 32.000000"
 preserveAspectRatio="xMidYMid meet">
<metadata>
Created by potrace 1.16, written by Peter Selinger 2001-2019
</metadata>
<g transform="translate(0.000000,32.000000) scale(0.100000,-0.100000)"
fill="#000000" stroke="none">
<path fill="#000000" stroke="none" d="M0 160 l0 -160 160 0 160 0 0 160 0
160 -160 0 -160 0 0 -160z"/>
<path fill="#ffffff" stroke="none" d="M163 293 l-132 -4 -4 -132 -3 -132 -2
138 -2 137 138 -2 137 -2 -132 -3z"/>
<path fill="#ffffff" stroke="none" d="M122 209 c30 -10 46 -10 75 0 21 7 45
14 53 17 8 3 -1 -4 -20 -15 -19 -11 -51 -20 -70 -20 -19 0 -51 9 -70 20 -19
11 -28 18 -20 15 8 -3 32 -10 52 -17z"/>
<path fill="#ffffff" stroke="none" d="M180 176 c0 -11 -19 -15 -25 -6 -3 5 1
10 9 10 9 0 16 -2 16 -4z"/>
<path fill="#ffffff" stroke="none" d="M255 122 c-2 -2 -16 5 -31 14 l-27 19
18 -29 19 -29 -22 12 c-25 13 -27 23 -11 54 12 21 12 21 35 -8 13 -16 21 -31
19 -33z"/>
<path fill="#ffffff" stroke="none" d="M124 162 c9 -14 -5 -50 -21 -56 -13 -5
-12 -1 2 21 l18 28 -26 -18 c-37 -24 -44 -21 -17 8 25 26 35 30 44 17z"/>
<path fill="#ffffff" stroke="none" d="M176 106 c-3 -14 -10 -26 -16 -26 -15
0 -22 40 -9 56 17 21 33 2 25 -30z"/>
<path fill="#ffffff" stroke="none" d="M160 70 c21 0 51 5 67 11 23 8 26 8 15
-3 -18 -18 -146 -18 -164 0 -11 11 -8 11 15 3 16 -6 46 -11 67 -11z"/>
</g>
</svg>
