<?xml version="1.0" standalone="no"?>
<!DOCTYPE svg PUBLIC "-//W3C//DTD SVG 20010904//EN"
 "http://www.w3.org/TR/2001/REC-SVG-20010904/DTD/svg10.dtd">
<svg version="1.0" xmlns="http://www.w3.org/2000/svg"
 width="32.000000pt" height="32.000000pt" viewBox="0 0 32.000000 32.000000"
 preserveAspectRatio="xMidYMid meet">
<metadata>
Created by potrace 1.16, written by Peter Selinger 2001-2019
</metadata>
<g transform="translate(0.000000,32.000000) scale(0.100000,-0.100000)"
fill="#000000" stroke="none">
<path fill="#000000" stroke="none" d="M0 160 l0 -160 160 0 160 0 0 160 0
160 -160 0 -160 0 0 -160z"/>
<path fill="#ffffff" stroke="none" d="M163 293 l-132 -4 -4 -132 -3 -132 -2
138 -2 137 138 -2 137 -2 -132 -3z"/>
<path fill="#ffffff" stroke="none" d="M178 193 c-10 -2 -26 -2 -35 0 -10 3
-2 5 17 5 19 0 27 -2 18 -5z"/>
<path fill="#ffffff" stroke="none" d="M126 158 c4 -7 3 -10 -1 -5 -5 4 -17
-1 -28 -10 -19 -17 -20 -17 -8 5 13 25 26 28 37 10z"/>
<path fill="#ffffff" stroke="none" d="M230 150 c6 -11 9 -20 7 -20 -2 0 -12
9 -22 20 -10 11 -13 20 -7 20 6 0 16 -9 22 -20z"/>
<path fill="#ffffff" stroke="none" d="M180 128 c0 -7 -5 -20 -10 -28 -9 -13
-11 -13 -20 0 -7 11 -5 19 7 28 9 6 18 12 20 12 2 0 3 -6 3 -12z"/>
<path fill="#ffffff" stroke="none" d="M210 125 c11 -13 10 -14 -4 -9 -9 3
-16 10 -16 15 0 13 6 11 20 -6z"/>
<path fill="#ffffff" stroke="none" d="M183 63 c-13 -2 -33 -2 -45 0 -13 2 -3
4 22 4 25 0 35 -2 23 -4z"/>
</g>
</svg>
