<?xml version="1.0" standalone="no"?>
<!DOCTYPE svg PUBLIC "-//W3C//DTD SVG 20010904//EN"
 "http://www.w3.org/TR/2001/REC-SVG-20010904/DTD/svg10.dtd">
<svg version="1.0" xmlns="http://www.w3.org/2000/svg"
 width="32.000000pt" height="32.000000pt" viewBox="0 0 32.000000 32.000000"
 preserveAspectRatio="xMidYMid meet">
<metadata>
Created by potrace 1.16, written by Peter Selinger 2001-2019
</metadata>
<g transform="translate(0.000000,32.000000) scale(0.100000,-0.100000)"
fill="#000000" stroke="none">
<path fill="#000000" stroke="none" d="M0 160 l0 -160 160 0 160 0 0 160 0
160 -160 0 -160 0 0 -160z"/>
<path fill="#ffffff" stroke="none" d="M168 293 l-137 -4 -4 -137 -3 -137 -2
143 -2 142 143 -2 142 -2 -137 -3z"/>
<path fill="#ffffff" stroke="none" d="M165 260 c3 -5 -1 -10 -10 -10 -9 0
-13 5 -10 10 3 6 8 10 10 10 2 0 7 -4 10 -10z"/>
<path fill="#ffffff" stroke="none" d="M237 246 c0 -8 -8 -11 -19 -8 -10 2
-15 8 -12 13 8 14 31 11 31 -5z"/>
<path fill="#ffffff" stroke="none" d="M151 197 c-8 -8 -11 -7 -11 4 0 20 13
34 18 19 3 -7 -1 -17 -7 -23z"/>
<path fill="#ffffff" stroke="none" d="M261 176 c8 4 3 -4 -11 -19 -14 -15
-29 -27 -33 -27 -5 0 -2 7 7 15 8 9 13 23 10 33 -5 13 -4 14 4 3 6 -8 15 -10
23 -5z"/>
<path fill="#ffffff" stroke="none" d="M55 171 c-3 -5 5 -17 17 -25 12 -9 18
-16 12 -16 -15 0 -45 35 -37 43 9 10 15 8 8 -2z"/>
<path fill="#ffffff" stroke="none" d="M175 120 c-4 -7 -13 -7 -44 -1 -2 1 2
8 9 16 10 12 16 13 26 4 8 -6 12 -15 9 -19z"/>
<path fill="#ffffff" stroke="none" d="M253 87 c4 3 7 1 7 -5 0 -6 -5 -14 -11
-17 -13 -9 -51 24 -43 37 3 5 14 2 23 -6 10 -9 21 -13 24 -9z"/>
<path fill="#ffffff" stroke="none" d="M130 49 c0 -5 -9 -9 -19 -9 -14 0 -18
5 -14 20 4 16 8 18 19 9 8 -6 14 -15 14 -20z"/>
</g>
</svg>
