<?xml version="1.0" standalone="no"?>
<!DOCTYPE svg PUBLIC "-//W3C//DTD SVG 20010904//EN"
 "http://www.w3.org/TR/2001/REC-SVG-20010904/DTD/svg10.dtd">
<svg version="1.0" xmlns="http://www.w3.org/2000/svg"
 width="32.000000pt" height="32.000000pt" viewBox="0 0 32.000000 32.000000"
 preserveAspectRatio="xMidYMid meet">
<metadata>
Created by potrace 1.16, written by Peter Selinger 2001-2019
</metadata>
<g transform="translate(0.000000,32.000000) scale(0.100000,-0.100000)"
fill="#000000" stroke="none">
<path fill="#000000" stroke="none" d="M0 160 l0 -160 160 0 160 0 0 160 0
160 -160 0 -160 0 0 -160z"/>
<path fill="#ffffff" stroke="none" d="M141 295 c-1 -15 -24 -12 -29 3 -3 9 2
13 12 10 10 -1 17 -7 17 -13z"/>
<path fill="#ffffff" stroke="none" d="M109 190 l22 -31 -24 7 c-18 4 -28 1
-36 -13 -10 -17 -10 -16 -11 5 0 12 5 22 11 22 5 0 7 5 4 10 -3 6 -1 10 5 10
6 0 8 5 5 10 -14 22 3 8 24 -20z"/>
<path fill="#ffffff" stroke="none" d="M240 203 c-8 -3 -26 -15 -40 -27 l-25
-21 24 28 c14 15 32 27 40 26 14 0 14 -1 1 -6z"/>
</g>
</svg>
