<?xml version="1.0" standalone="no"?>
<!DOCTYPE svg PUBLIC "-//W3C//DTD SVG 20010904//EN"
 "http://www.w3.org/TR/2001/REC-SVG-20010904/DTD/svg10.dtd">
<svg version="1.0" xmlns="http://www.w3.org/2000/svg"
 width="32.000000pt" height="32.000000pt" viewBox="0 0 32.000000 32.000000"
 preserveAspectRatio="xMidYMid meet">
<metadata>
Created by potrace 1.16, written by Peter Selinger 2001-2019
</metadata>
<g transform="translate(0.000000,32.000000) scale(0.100000,-0.100000)"
fill="#000000" stroke="none">
<path fill="#000000" stroke="none" d="M109 296 c16 -19 44 -21 39 -3 -3 6
-15 14 -28 15 -21 3 -22 2 -11 -12z"/>
<path fill="#000000" stroke="none" d="M78 264 c-4 -3 -3 -18 2 -32 5 -19 3
-31 -6 -40 -17 -16 -18 -64 -2 -80 7 -7 12 -24 13 -39 0 -19 6 -29 19 -31 19
-4 19 -3 3 21 -14 22 -15 26 -1 31 21 8 26 8 20 -2 -2 -4 4 -8 15 -8 25 0 24
13 -2 21 -37 12 -14 14 30 3 29 -7 38 -13 29 -19 -9 -6 -6 -8 9 -6 21 1 21 2
5 20 -9 10 -38 35 -65 54 -33 25 -50 45 -55 67 -3 17 -5 34 -4 39 2 8 -2 9
-10 1z"/>
<path fill="#000000" stroke="none" d="M30 235 c-14 -17 -27 -135 -14 -135 5
0 10 17 10 38 2 41 21 118 23 89 1 -10 5 -16 11 -12 10 6 2 35 -10 35 -4 0
-13 -7 -20 -15z"/>
<path fill="#000000" stroke="none" d="M176 241 c-6 -10 24 -25 32 -16 3 3 -1
5 -9 5 -11 0 -11 2 1 10 13 8 13 10 -2 10 -9 0 -19 -4 -22 -9z"/>
<path fill="#000000" stroke="none" d="M240 243 c0 -4 11 -17 25 -29 13 -11
29 -32 34 -45 7 -17 10 -19 10 -7 2 31 -32 88 -51 88 -10 0 -18 -3 -18 -7z"/>
<path fill="#000000" stroke="none" d="M201 189 l-23 -30 22 -24 c18 -19 26
-22 37 -13 8 6 12 17 9 25 -3 7 -1 13 4 13 9 0 6 32 -5 50 -10 15 -18 11 -44
-21z"/>
<path fill="#000000" stroke="none" d="M153 190 c-9 -14 -9 -21 0 -29 9 -7 16
-5 24 9 9 14 9 21 0 29 -9 7 -16 5 -24 -9z"/>
<path fill="#000000" stroke="none" d="M270 138 c0 -25 6 -53 14 -63 12 -17
14 -15 18 23 2 29 0 42 -9 42 -7 0 -10 6 -7 14 3 8 1 17 -5 21 -7 4 -11 -9
-11 -37z"/>
<path fill="#000000" stroke="none" d="M190 54 c0 -8 3 -14 8 -14 9 0 39 19
32 21 -3 0 -13 2 -22 4 -10 2 -18 -3 -18 -11z"/>
</g>
</svg>
