<?xml version="1.0" standalone="no"?>
<!DOCTYPE svg PUBLIC "-//W3C//DTD SVG 20010904//EN"
 "http://www.w3.org/TR/2001/REC-SVG-20010904/DTD/svg10.dtd">
<svg version="1.0" xmlns="http://www.w3.org/2000/svg"
 width="32.000000pt" height="32.000000pt" viewBox="0 0 32.000000 32.000000"
 preserveAspectRatio="xMidYMid meet">
<metadata>
Created by potrace 1.16, written by Peter Selinger 2001-2019
</metadata>
<g transform="translate(0.000000,32.000000) scale(0.100000,-0.100000)"
fill="#000000" stroke="none">
<path fill="#000000" stroke="none" d="M3 160 l1 -160 32 0 c18 0 36 5 40 12
5 7 2 9 -7 4 -8 -4 -6 -1 4 7 13 11 15 17 7 22 -7 4 -10 18 -7 31 6 34 -9 39
-29 9 -17 -26 -35 -25 -33 3 1 14 2 14 6 -1 5 -18 6 -18 19 2 9 12 13 34 9 59
-3 24 1 46 9 58 12 16 13 13 9 -29 -4 -32 -1 -52 8 -63 8 -9 12 -27 11 -40 -4
-31 20 -41 56 -24 18 8 22 14 13 18 -7 2 -17 -2 -22 -9 -7 -11 -9 -10 -9 4 0
26 60 24 67 -3 7 -25 36 -22 41 4 2 10 -9 32 -25 49 -19 22 -21 26 -5 12 l24
-20 19 24 c22 27 24 60 6 85 -12 17 -14 16 -31 -9 l-18 -27 -15 22 -16 22 -22
-28 -22 -28 -18 27 c-11 17 -15 36 -11 52 4 14 3 25 -1 24 -23 -2 -68 -39 -74
-60 -7 -22 -7 -23 -8 -2 -1 12 10 30 23 40 13 11 25 28 28 38 2 11 11 20 21
21 12 1 13 1 2 -3 -8 -2 -15 -10 -15 -16 0 -8 17 -12 47 -11 36 1 48 6 54 21
6 17 1 19 -81 21 l-88 2 1 -160z"/>
<path fill="#ffffff" stroke="none" d="M159 287 c0 -9 -2 -8 -6 1 -2 6 -10 9
-15 6 -7 -4 -8 -2 -4 5 9 13 26 5 25 -12z"/>
<path fill="#000000" stroke="none" d="M252 298 c7 -13 11 -26 10 -30 -1 -5 2
-8 8 -8 11 0 44 -59 37 -66 -2 -3 -10 9 -17 26 -8 18 -20 30 -31 30 -23 0 -24
-13 -4 -30 10 -8 15 -31 15 -69 0 -35 6 -65 15 -77 14 -19 14 -19 15 0 0 11 3
17 6 13 4 -3 4 -14 0 -23 -5 -12 -10 -13 -19 -6 -9 8 -16 4 -26 -19 -7 -16
-17 -26 -23 -23 -7 4 -8 2 -4 -4 4 -7 24 -12 44 -12 l38 0 1 160 1 160 -39 0
c-38 0 -39 -1 -27 -22z"/>
<path fill="#000000" stroke="none" d="M177 246 c-3 -8 1 -17 9 -20 24 -9 31
-7 14 4 -10 6 -11 10 -2 10 6 0 12 5 12 10 0 15 -27 12 -33 -4z"/>
<path fill="#000000" stroke="none" d="M242 118 c-17 -17 -15 -25 6 -30 15 -4
18 -1 14 18 -5 28 -4 28 -20 12z"/>
</g>
</svg>
