<?xml version="1.0" standalone="no"?>
<!DOCTYPE svg PUBLIC "-//W3C//DTD SVG 20010904//EN"
 "http://www.w3.org/TR/2001/REC-SVG-20010904/DTD/svg10.dtd">
<svg version="1.0" xmlns="http://www.w3.org/2000/svg"
 width="32.000000pt" height="32.000000pt" viewBox="0 0 32.000000 32.000000"
 preserveAspectRatio="xMidYMid meet">
<metadata>
Created by potrace 1.16, written by Peter Selinger 2001-2019
</metadata>
<g transform="translate(0.000000,32.000000) scale(0.100000,-0.100000)"
fill="#000000" stroke="none">
<path fill="#000000" stroke="none" d="M20 288 c-11 -18 -20 -37 -20 -42 0
-12 1 -10 28 37 26 45 19 50 -8 5z"/>
<path fill="#000000" stroke="none" d="M79 303 c6 -13 17 -23 24 -24 7 0 -3
-7 -20 -15 -37 -16 -38 -17 -21 -44 10 -16 9 -23 -10 -43 -23 -25 -28 -42 -13
-51 5 -3 8 2 7 12 0 9 4 16 11 15 7 -2 10 3 7 11 -7 17 12 31 21 16 8 -12 -13
-42 -25 -35 -3 2 -7 -14 -8 -35 -2 -38 -1 -39 18 -28 11 7 20 16 20 20 0 5 8
8 18 8 15 -1 15 -2 -2 -15 -18 -14 -15 -20 7 -16 5 1 6 -3 2 -9 -5 -8 -11 -7
-22 2 -12 10 -17 9 -28 -5 -12 -17 -26 -23 -23 -9 0 4 -6 23 -14 42 -9 19 -18
42 -22 50 -3 8 -4 4 -1 -10 4 -14 11 -51 18 -82 l12 -58 122 0 123 0 0 30 c0
19 5 30 14 30 8 0 14 10 13 23 0 12 3 36 6 52 5 21 3 18 -8 -10 -19 -48 -35
-67 -35 -41 0 16 -2 17 -17 5 -10 -7 -8 -2 5 12 25 28 28 54 10 96 -6 15 -10
33 -9 40 1 6 -24 24 -54 39 -42 20 -59 24 -68 15 -16 -16 -23 -14 -48 12 l-21
22 11 -22z"/>
<path fill="#ffffff" stroke="none" d="M178 266 c3 -11 0 -16 -7 -12 -7 5 -9
1 -5 -8 3 -9 1 -16 -5 -16 -6 0 -11 8 -12 18 0 14 -2 14 -9 -3 -8 -18 -9 -18
-9 6 -1 14 2 29 6 33 12 12 38 1 41 -18z"/>
<path fill="#ffffff" stroke="none" d="M120 251 c0 -15 -29 -33 -45 -27 -20 7
-19 23 3 29 29 8 42 7 42 -2z"/>
<path fill="#ffffff" stroke="none" d="M249 244 c3 -2 0 -9 -6 -15 -15 -15
-53 -2 -53 18 0 12 6 14 27 8 16 -4 30 -9 32 -11z"/>
<path fill="#ffffff" stroke="none" d="M127 214 c-3 -3 -12 -4 -19 -1 -8 3 -5
6 6 6 11 1 17 -2 13 -5z"/>
<path fill="#ffffff" stroke="none" d="M207 214 c-3 -3 -12 -4 -19 -1 -8 3 -5
6 6 6 11 1 17 -2 13 -5z"/>
<path fill="#ffffff" stroke="none" d="M106 183 c-7 -7 -26 7 -26 19 0 6 6 6
15 -2 9 -7 13 -15 11 -17z"/>
<path fill="#ffffff" stroke="none" d="M264 151 c-9 -10 -35 11 -30 24 3 8 0
15 -7 15 -8 0 -7 4 3 10 11 7 17 2 26 -18 6 -15 10 -29 8 -31z"/>
<path fill="#ffffff" stroke="none" d="M193 185 c-4 -14 -65 -13 -70 1 -2 7
11 10 34 9 21 0 37 -5 36 -10z"/>
<path fill="#ffffff" stroke="none" d="M109 153 c-12 -15 -12 -16 4 -10 28 10
19 -7 -13 -25 -17 -9 -30 -13 -30 -9 0 10 39 61 47 61 3 0 -1 -8 -8 -17z"/>
<path fill="#ffffff" stroke="none" d="M230 152 c-1 -16 -19 -34 -29 -28 -7 5
-7 12 1 26 11 17 28 18 28 2z"/>
<path fill="#ffffff" stroke="none" d="M172 108 c5 -30 -15 -40 -26 -12 -10
26 -7 41 8 41 8 0 16 -13 18 -29z"/>
<path fill="#ffffff" stroke="none" d="M270 135 c0 -2 -6 -8 -13 -14 -10 -8
-14 -7 -14 2 0 8 6 14 14 14 7 0 13 -1 13 -2z"/>
<path fill="#ffffff" stroke="none" d="M224 69 c-3 -5 -10 -7 -15 -3 -5 3 -7
10 -3 15 3 5 10 7 15 3 5 -3 7 -10 3 -15z"/>
<path fill="#ffffff" stroke="none" d="M88 23 c-10 -2 -26 -2 -35 0 -10 3 -2
5 17 5 19 0 27 -2 18 -5z"/>
<path fill="#000000" stroke="none" d="M215 305 c-16 -8 -27 -14 -23 -15 3 0
13 -3 21 -6 10 -3 20 3 27 15 6 12 9 21 8 20 -2 0 -16 -7 -33 -14z"/>
<path fill="#000000" stroke="none" d="M293 281 c12 -22 23 -38 25 -36 5 5
-26 63 -37 69 -5 4 0 -12 12 -33z"/>
</g>
</svg>
