<?xml version="1.0" standalone="no"?>
<!DOCTYPE svg PUBLIC "-//W3C//DTD SVG 20010904//EN"
 "http://www.w3.org/TR/2001/REC-SVG-20010904/DTD/svg10.dtd">
<svg version="1.0" xmlns="http://www.w3.org/2000/svg"
 width="32.000000pt" height="32.000000pt" viewBox="0 0 32.000000 32.000000"
 preserveAspectRatio="xMidYMid meet">
<metadata>
Created by potrace 1.16, written by Peter Selinger 2001-2019
</metadata>
<g transform="translate(0.000000,32.000000) scale(0.100000,-0.100000)"
fill="#000000" stroke="none">
<path fill="#000000" stroke="none" d="M20 288 c-11 -18 -20 -37 -20 -42 0
-12 1 -10 28 37 26 45 19 50 -8 5z"/>
<path fill="#000000" stroke="none" d="M79 303 c6 -13 16 -23 22 -23 6 0 8 -4
5 -9 -3 -5 0 -11 8 -14 8 -3 16 2 19 14 7 24 37 25 44 0 3 -13 11 -17 24 -14
10 3 16 9 13 14 -3 5 -1 9 5 9 6 0 15 9 21 20 9 16 8 18 -5 14 -8 -3 -13 -10
-10 -14 9 -15 -33 -21 -54 -8 -16 10 -23 10 -33 0 -17 -17 -24 -15 -49 11
l-21 22 11 -22z"/>
<path fill="#000000" stroke="none" d="M293 281 c12 -22 23 -38 25 -36 5 5
-26 63 -37 69 -5 4 0 -12 12 -33z"/>
<path fill="#000000" stroke="none" d="M141 247 c0 -10 -5 -15 -11 -12 -6 3
-7 -1 -4 -9 4 -11 0 -16 -11 -16 -9 0 -13 -5 -10 -11 5 -7 13 -5 26 7 10 9 24
14 32 11 7 -3 14 1 14 8 0 7 -6 11 -13 8 -7 -2 -14 4 -17 14 -4 17 -5 17 -6 0z"/>
<path fill="#000000" stroke="none" d="M244 251 c4 -6 2 -19 -6 -28 -10 -13
-10 -15 0 -9 8 5 16 -2 23 -24 6 -17 13 -29 15 -27 3 2 -1 17 -7 33 -7 16 -11
34 -10 41 1 6 -4 15 -10 19 -8 4 -9 3 -5 -5z"/>
<path fill="#000000" stroke="none" d="M60 224 c8 -10 15 -20 16 -22 1 -2 4 1
7 5 3 5 -4 15 -16 23 -21 12 -21 12 -7 -6z"/>
<path fill="#000000" stroke="none" d="M190 206 c0 -2 7 -6 15 -10 8 -3 15 -1
15 4 0 6 -7 10 -15 10 -8 0 -15 -2 -15 -4z"/>
<path fill="#000000" stroke="none" d="M95 160 c-22 -25 -5 -33 22 -10 17 14
19 19 9 23 -8 3 -22 -3 -31 -13z"/>
<path fill="#ffffff" stroke="none" d="M120 166 c0 -2 -8 -10 -17 -17 -16 -13
-17 -12 -4 4 13 16 21 21 21 13z"/>
<path fill="#000000" stroke="none" d="M190 170 c-14 -5 -18 -8 -9 -9 9 -1 22
-8 29 -16 9 -11 16 -13 24 -5 17 17 -14 38 -44 30z"/>
<path fill="#ffffff" stroke="none" d="M230 149 c0 -6 -4 -7 -10 -4 -5 3 -10
11 -10 16 0 6 5 7 10 4 6 -3 10 -11 10 -16z"/>
<path fill="#000000" stroke="none" d="M1 155 c0 -5 5 -28 12 -50 11 -38 26
-49 43 -32 4 4 14 1 23 -7 19 -16 64 -28 55 -15 -3 5 -13 9 -23 9 -31 0 -43
21 -23 44 16 20 16 20 -2 6 -18 -14 -19 -13 -13 2 4 12 2 15 -8 11 -9 -3 -18
4 -24 18 -7 17 -10 19 -10 7 -1 -9 4 -20 9 -23 5 -3 10 -18 10 -33 0 -34 -15
-19 -34 33 -8 22 -15 36 -15 30z"/>
<path fill="#000000" stroke="none" d="M310 151 c0 -6 -7 -28 -16 -49 -14 -33
-17 -35 -24 -17 -4 11 -4 24 1 30 5 5 9 16 8 25 0 9 -4 6 -9 -8 -6 -14 -17
-22 -27 -20 -18 3 -19 0 -6 -65 3 -16 1 -27 -6 -27 -6 0 -11 5 -11 10 0 6 0
12 0 15 0 13 -37 40 -55 40 -15 0 -20 -7 -20 -25 0 -21 -6 -26 -42 -34 -74
-15 -47 -26 67 -26 67 0 110 4 110 10 0 6 -7 10 -15 10 -8 0 -15 9 -15 21 0
11 -4 28 -9 38 -7 13 -6 18 5 18 7 0 12 -3 9 -5 -9 -9 17 -32 37 -32 14 0 18
5 14 15 -3 8 0 28 6 45 5 17 8 34 4 37 -3 4 -6 1 -6 -6z"/>
<path fill="#ffffff" stroke="none" d="M200 50 c9 -18 8 -20 -15 -20 -18 0
-25 5 -25 20 0 11 7 20 15 20 8 0 19 -9 25 -20z"/>
<path fill="#000000" stroke="none" d="M125 131 c-3 -5 -1 -12 5 -16 5 -3 10
1 10 9 0 18 -6 21 -15 7z"/>
<path fill="#000000" stroke="none" d="M170 124 c0 -8 5 -12 10 -9 6 4 8 11 5
16 -9 14 -15 11 -15 -7z"/>
</g>
</svg>
