<?xml version="1.0" standalone="no"?>
<!DOCTYPE svg PUBLIC "-//W3C//DTD SVG 20010904//EN"
 "http://www.w3.org/TR/2001/REC-SVG-20010904/DTD/svg10.dtd">
<svg version="1.0" xmlns="http://www.w3.org/2000/svg"
 width="32.000000pt" height="32.000000pt" viewBox="0 0 32.000000 32.000000"
 preserveAspectRatio="xMidYMid meet">
<metadata>
Created by potrace 1.16, written by Peter Selinger 2001-2019
</metadata>
<g transform="translate(0.000000,32.000000) scale(0.100000,-0.100000)"
fill="#000000" stroke="none">
<path fill="#000000" stroke="none" d="M20 288 c-11 -18 -20 -37 -20 -42 0
-12 1 -10 28 37 26 45 19 50 -8 5z"/>
<path fill="#000000" stroke="none" d="M70 311 c0 -5 5 -13 10 -16 6 -3 10 -2
10 4 0 5 -4 13 -10 16 -5 3 -10 2 -10 -4z"/>
<path fill="#000000" stroke="none" d="M215 304 c-16 -7 -24 -13 -16 -14 8 0
11 -3 8 -7 -4 -3 -18 0 -32 7 -19 10 -28 10 -38 1 -8 -6 -23 -8 -32 -4 -14 5
-16 3 -10 -8 7 -12 6 -11 -9 1 -17 13 -21 12 -42 -13 -13 -16 -24 -36 -23 -45
0 -12 3 -9 10 7 9 23 10 24 24 5 20 -26 19 -38 -5 -59 -21 -19 -26 -40 -11
-49 5 -3 8 2 7 12 0 9 4 16 11 15 7 -2 10 3 7 11 -7 17 12 31 21 16 8 -12 -13
-42 -25 -35 -3 2 -7 -14 -8 -35 -2 -38 -1 -39 18 -28 11 7 20 16 20 20 0 5 8
8 18 8 15 -1 15 -2 -2 -15 -18 -14 -15 -20 7 -16 5 1 6 -3 2 -9 -5 -8 -11 -7
-22 2 -12 10 -17 9 -28 -5 -12 -17 -26 -23 -23 -9 0 4 -6 23 -14 42 -9 19 -18
42 -22 50 -3 8 -4 4 -1 -10 4 -14 11 -51 18 -82 l12 -58 122 0 123 0 0 30 c0
19 5 30 14 30 8 0 14 10 13 23 0 12 3 36 6 52 5 21 3 18 -8 -10 -20 -51 -31
-61 -38 -36 -3 12 -1 24 4 27 12 7 11 47 -2 81 -7 15 -12 39 -13 52 l-2 23 23
-27 c13 -14 23 -22 23 -16 0 5 -11 22 -24 38 -21 25 -26 26 -42 13 -18 -14
-18 -13 0 8 24 28 19 33 -19 16z"/>
<path fill="#ffffff" stroke="none" d="M178 266 c3 -11 0 -16 -7 -12 -7 5 -9
1 -5 -8 3 -9 1 -16 -5 -16 -6 0 -11 8 -12 18 0 14 -2 14 -9 -3 -8 -18 -9 -18
-9 6 -1 14 2 29 6 33 12 12 38 1 41 -18z"/>
<path fill="#ffffff" stroke="none" d="M64 259 c-4 -8 3 -9 26 -4 35 8 39 -9
6 -29 -13 -9 -20 -7 -31 8 -13 17 -12 36 1 36 3 0 2 -5 -2 -11z"/>
<path fill="#ffffff" stroke="none" d="M249 244 c3 -2 0 -9 -6 -15 -15 -15
-53 -2 -53 18 0 12 6 14 27 8 16 -4 30 -9 32 -11z"/>
<path fill="#ffffff" stroke="none" d="M127 214 c-3 -3 -12 -4 -19 -1 -8 3 -5
6 6 6 11 1 17 -2 13 -5z"/>
<path fill="#ffffff" stroke="none" d="M207 214 c-3 -3 -12 -4 -19 -1 -8 3 -5
6 6 6 11 1 17 -2 13 -5z"/>
<path fill="#ffffff" stroke="none" d="M106 183 c-7 -7 -26 7 -26 19 0 6 6 6
15 -2 9 -7 13 -15 11 -17z"/>
<path fill="#ffffff" stroke="none" d="M264 151 c-9 -10 -35 11 -30 24 3 8 0
15 -7 15 -8 0 -7 4 3 10 11 7 17 2 26 -18 6 -15 10 -29 8 -31z"/>
<path fill="#ffffff" stroke="none" d="M193 185 c-4 -14 -65 -13 -70 1 -2 7
11 10 34 9 21 0 37 -5 36 -10z"/>
<path fill="#ffffff" stroke="none" d="M130 140 c0 -3 -14 -13 -30 -22 -32
-18 -35 -17 -21 11 8 15 51 25 51 11z"/>
<path fill="#ffffff" stroke="none" d="M223 133 c-6 -15 -19 -17 -27 -4 -7 11
0 18 18 18 8 0 12 -6 9 -14z"/>
<path fill="#ffffff" stroke="none" d="M172 108 c5 -30 -15 -40 -26 -12 -10
26 -7 41 8 41 8 0 16 -13 18 -29z"/>
<path fill="#ffffff" stroke="none" d="M270 135 c0 -2 -6 -8 -13 -14 -10 -8
-14 -7 -14 2 0 8 6 14 14 14 7 0 13 -1 13 -2z"/>
<path fill="#ffffff" stroke="none" d="M224 69 c-3 -5 -10 -7 -15 -3 -5 3 -7
10 -3 15 3 5 10 7 15 3 5 -3 7 -10 3 -15z"/>
<path fill="#000000" stroke="none" d="M293 281 c12 -22 23 -38 25 -36 5 5
-26 63 -37 69 -5 4 0 -12 12 -33z"/>
</g>
</svg>
