<?xml version="1.0" standalone="no"?>
<!DOCTYPE svg PUBLIC "-//W3C//DTD SVG 20010904//EN"
 "http://www.w3.org/TR/2001/REC-SVG-20010904/DTD/svg10.dtd">
<svg version="1.0" xmlns="http://www.w3.org/2000/svg"
 width="32.000000pt" height="32.000000pt" viewBox="0 0 32.000000 32.000000"
 preserveAspectRatio="xMidYMid meet">
<metadata>
Created by potrace 1.16, written by Peter Selinger 2001-2019
</metadata>
<g transform="translate(0.000000,32.000000) scale(0.100000,-0.100000)"
fill="#000000" stroke="none">
<path fill="#000000" stroke="none" d="M2 160 c-1 -140 1 -160 15 -160 16 0
15 33 -2 110 -4 18 -1 15 11 -10 9 -19 16 -38 16 -42 -3 -15 16 -8 22 8 3 8 2
12 -4 9 -6 -3 -11 1 -11 9 -2 20 -4 26 -14 49 -5 13 -1 25 15 42 20 22 21 25
7 45 l-15 21 -10 -28 -10 -28 -1 31 c-1 19 8 42 24 60 27 32 32 48 13 42 -7
-3 -19 -17 -26 -32 -8 -15 -16 -25 -19 -22 -3 3 2 17 11 31 16 24 15 25 -2 25
-17 0 -18 -12 -20 -160z"/>
<path fill="#000000" stroke="none" d="M86 306 c8 -21 34 -28 51 -14 11 9 19
9 34 0 10 -7 19 -9 19 -4 0 4 12 13 28 19 23 9 15 11 -55 12 -67 1 -81 -2 -77
-13z"/>
<path fill="#000000" stroke="none" d="M250 312 c0 -5 9 -17 20 -27 16 -14 20
-15 20 -4 0 16 -19 39 -32 39 -4 0 -8 -4 -8 -8z"/>
<path fill="#000000" stroke="none" d="M297 293 c10 -14 13 -28 8 -30 -6 -2
-9 -24 -8 -51 2 -43 2 -44 -6 -14 -5 19 -14 39 -21 45 -8 9 -9 7 -4 -7 6 -15
4 -17 -6 -11 -9 5 -11 4 -6 -4 4 -6 11 -9 15 -7 10 7 12 -85 2 -98 -5 -6 -5
-20 -1 -31 7 -18 10 -16 23 15 l15 35 -1 -38 c-1 -23 -6 -37 -14 -37 -8 0 -13
-12 -13 -30 0 -23 5 -30 19 -30 19 0 20 8 19 160 -2 148 -3 160 -20 160 -18 0
-18 -1 -1 -27z"/>
<path fill="#000000" stroke="none" d="M76 124 c-4 -9 -4 -19 -1 -22 2 -3 7 3
11 12 4 9 4 19 1 22 -2 3 -7 -3 -11 -12z"/>
</g>
</svg>
