<?xml version="1.0" standalone="no"?>
<!DOCTYPE svg PUBLIC "-//W3C//DTD SVG 20010904//EN"
 "http://www.w3.org/TR/2001/REC-SVG-20010904/DTD/svg10.dtd">
<svg version="1.0" xmlns="http://www.w3.org/2000/svg"
 width="32.000000pt" height="32.000000pt" viewBox="0 0 32.000000 32.000000"
 preserveAspectRatio="xMidYMid meet">
<metadata>
Created by potrace 1.16, written by Peter Selinger 2001-2019
</metadata>
<g transform="translate(0.000000,32.000000) scale(0.100000,-0.100000)"
fill="#000000" stroke="none">
<path fill="#000000" stroke="none" d="M0 160 l0 -160 160 0 160 0 0 160 0
160 -160 0 -160 0 0 -160z"/>
<path fill="#ffffff" stroke="none" d="M206 275 c0 -17 12 -48 27 -70 15 -22
27 -45 27 -52 0 -21 -25 -15 -36 10 -6 12 -9 16 -7 8 2 -9 -2 -11 -14 -5 -23
10 -63 10 -87 -1 -16 -7 -18 -5 -13 10 7 16 6 17 -17 1 -31 -19 -46 -20 -46
-3 0 7 18 23 40 36 31 17 40 28 40 50 0 36 18 53 55 49 26 -3 30 -7 31 -33z"/>
<path fill="#ffffff" stroke="none" d="M70 268 c7 -18 15 -35 17 -38 2 -3 -10
-14 -27 -23 -16 -10 -30 -25 -30 -33 0 -20 27 -29 44 -15 22 19 29 -4 11 -39
-12 -23 -13 -35 -5 -50 6 -11 7 -20 2 -20 -15 0 -46 40 -47 61 -1 12 -6 24
-11 27 -7 6 -11 106 -6 150 4 25 38 12 52 -20z"/>
<path fill="#ffffff" stroke="none" d="M307 233 c-1 -38 -6 -71 -10 -74 -5 -3
-9 -20 -9 -37 -1 -18 -5 -32 -10 -32 -4 0 -8 -6 -8 -14 0 -16 -28 -42 -36 -33
-3 3 -1 15 6 26 8 15 8 27 0 41 -9 16 -8 20 5 20 26 0 28 27 5 64 -20 33 -20
36 -4 61 16 24 41 44 56 45 4 0 6 -30 5 -67z"/>
<path fill="#ffffff" stroke="none" d="M191 160 c10 -6 26 -24 34 -40 14 -27
14 -33 0 -60 -21 -40 -57 -57 -90 -42 -13 6 -31 25 -40 42 -14 27 -14 33 0 60
24 46 58 60 96 40z"/>
</g>
</svg>
