<?xml version="1.0" standalone="no"?>
<!DOCTYPE svg PUBLIC "-//W3C//DTD SVG 20010904//EN"
 "http://www.w3.org/TR/2001/REC-SVG-20010904/DTD/svg10.dtd">
<svg version="1.0" xmlns="http://www.w3.org/2000/svg"
 width="32.000000pt" height="32.000000pt" viewBox="0 0 32.000000 32.000000"
 preserveAspectRatio="xMidYMid meet">
<metadata>
Created by potrace 1.16, written by Peter Selinger 2001-2019
</metadata>
<g transform="translate(0.000000,32.000000) scale(0.100000,-0.100000)"
fill="#000000" stroke="none">
<path fill="#000000" stroke="none" d="M136 302 c-12 -21 -12 -58 0 -70 9 -8
14 -9 14 -2 0 6 4 9 9 6 13 -8 36 24 36 51 1 19 -4 23 -26 23 -16 0 -30 -4
-33 -8z"/>
<path fill="#000000" stroke="none" d="M18 288 c-7 -54 -1 -145 10 -157 7 -7
11 -19 8 -26 -5 -15 41 -62 51 -52 3 4 12 -2 20 -13 8 -11 20 -20 26 -19 9 0
9 2 0 6 -7 2 -13 11 -13 19 0 9 5 12 12 8 7 -5 8 -3 3 7 -8 12 -6 12 9 0 13
-11 19 -12 29 -2 9 10 8 11 -8 5 l-20 -7 20 20 c18 18 21 18 27 4 10 -24 9 0
-1 37 -12 39 3 43 23 5 9 -16 16 -21 16 -13 0 12 3 11 11 -2 7 -12 6 -24 -1
-39 -7 -11 -9 -23 -6 -26 8 -9 36 17 36 33 0 8 4 14 8 14 5 0 9 14 10 32 0 17
4 34 9 37 9 6 15 141 7 141 -15 0 -43 -22 -58 -45 -16 -25 -16 -28 3 -59 26
-42 26 -55 0 -65 -16 -5 -28 -1 -46 17 -18 18 -31 23 -52 19 -16 -3 -33 -1
-40 6 -8 8 -11 8 -11 -1 0 -7 4 -12 10 -12 5 0 0 -15 -11 -34 -11 -19 -17 -42
-13 -52 5 -17 5 -17 -6 -2 -8 13 -7 25 5 48 18 35 11 58 -11 39 -17 -14 -44
-5 -44 15 0 8 14 23 30 33 17 9 29 20 27 23 -2 3 -10 20 -17 38 -14 32 -48 45
-52 20z"/>
<path fill="#ffffff" stroke="none" d="M174 144 c4 -9 4 -19 1 -22 -3 -3 -5 0
-5 7 0 14 -31 11 -42 -4 -4 -5 -8 -22 -8 -37 0 -30 -14 -37 -24 -12 -9 22 22
77 40 70 8 -3 14 -1 14 4 0 16 17 11 24 -6z"/>
<path fill="#000000" stroke="none" d="M181 218 c-14 -23 -14 -23 8 -4 22 20
25 26 13 26 -4 0 -13 -10 -21 -22z"/>
<path fill="#000000" stroke="none" d="M110 226 c0 -2 7 -9 15 -16 13 -11 14
-10 9 4 -5 14 -24 23 -24 12z"/>
<path fill="#000000" stroke="none" d="M40 175 c0 -8 7 -15 15 -15 8 0 15 7
15 15 0 8 -7 15 -15 15 -8 0 -15 -7 -15 -15z"/>
<path fill="#000000" stroke="none" d="M230 155 c0 -8 7 -15 15 -15 8 0 15 7
15 15 0 8 -7 15 -15 15 -8 0 -15 -7 -15 -15z"/>
<path fill="#000000" stroke="none" d="M150 29 c0 -5 5 -7 10 -4 6 3 10 8 10
11 0 2 -4 4 -10 4 -5 0 -10 -5 -10 -11z"/>
</g>
</svg>
