<?xml version="1.0" standalone="no"?>
<!DOCTYPE svg PUBLIC "-//W3C//DTD SVG 20010904//EN"
 "http://www.w3.org/TR/2001/REC-SVG-20010904/DTD/svg10.dtd">
<svg version="1.0" xmlns="http://www.w3.org/2000/svg"
 width="32.000000pt" height="32.000000pt" viewBox="0 0 32.000000 32.000000"
 preserveAspectRatio="xMidYMid meet">
<metadata>
Created by potrace 1.16, written by Peter Selinger 2001-2019
</metadata>
<g transform="translate(0.000000,32.000000) scale(0.100000,-0.100000)"
fill="#000000" stroke="none">
<path fill="#000000" stroke="none" d="M0 160 l0 -160 160 0 160 0 0 160 0
160 -160 0 -160 0 0 -160z"/>
<path fill="#ffffff" stroke="none" d="M228 290 c68 -42 91 -124 52 -188 -57
-94 -183 -94 -240 0 -71 117 71 259 188 188z"/>
<path fill="#000000" stroke="none" d="M97 284 c-16 -8 -25 -20 -21 -26 4 -7
3 -8 -4 -4 -6 4 -18 -6 -27 -23 -18 -36 -19 -40 -2 -37 19 3 84 73 84 90 0 9
-1 16 -1 16 -1 -1 -14 -8 -29 -16z"/>
<path fill="#000000" stroke="none" d="M193 284 c0 -17 65 -87 85 -90 16 -3
15 1 -3 37 -9 17 -21 27 -27 23 -7 -4 -8 -3 -4 4 4 6 -5 17 -22 26 -25 13 -29
13 -29 0z"/>
<path fill="#000000" stroke="none" d="M99 231 c-20 -20 -29 -39 -29 -61 0
-43 47 -90 90 -90 43 0 90 47 90 90 0 43 -47 90 -90 90 -22 0 -41 -9 -61 -29z"/>
<path fill="#ffffff" stroke="none" d="M180 204 c0 -7 -10 -14 -22 -16 -32 -4
-30 -33 2 -33 17 0 25 6 25 17 0 10 6 23 13 30 10 10 14 10 22 -1 10 -17 -10
-61 -40 -91 -19 -19 -20 -19 -35 3 -8 12 -18 21 -21 19 -13 -7 -31 45 -23 65
10 28 29 39 29 17 0 -16 1 -16 14 1 8 11 12 24 9 30 -2 5 3 1 11 -9 9 -11 16
-25 16 -32z"/>
<path fill="#ffffff" stroke="none" d="M204 219 c-3 -5 -10 -7 -15 -3 -5 3 -7
10 -3 15 3 5 10 7 15 3 5 -3 7 -10 3 -15z"/>
<path fill="#000000" stroke="none" d="M30 142 c0 -19 43 -73 68 -86 25 -13
29 -13 29 0 0 17 -65 87 -84 90 -7 1 -13 -1 -13 -4z"/>
<path fill="#000000" stroke="none" d="M250 130 c-5 -10 -6 -21 -2 -25 4 -3 3
-5 -3 -3 -16 5 -52 -25 -52 -44 0 -15 3 -15 29 -2 25 13 68 67 68 85 0 13 -32
4 -40 -11z"/>
</g>
</svg>
