<?xml version="1.0" standalone="no"?>
<!DOCTYPE svg PUBLIC "-//W3C//DTD SVG 20010904//EN"
 "http://www.w3.org/TR/2001/REC-SVG-20010904/DTD/svg10.dtd">
<svg version="1.0" xmlns="http://www.w3.org/2000/svg"
 width="32.000000pt" height="32.000000pt" viewBox="0 0 32.000000 32.000000"
 preserveAspectRatio="xMidYMid meet">
<metadata>
Created by potrace 1.16, written by Peter Selinger 2001-2019
</metadata>
<g transform="translate(0.000000,32.000000) scale(0.100000,-0.100000)"
fill="#000000" stroke="none">
<path fill="#000000" stroke="none" d="M135 290 c-3 -6 1 -13 9 -16 21 -8 49
3 41 16 -8 13 -42 13 -50 0z"/>
<path fill="#000000" stroke="none" d="M59 263 c-13 -15 -17 -22 -8 -15 9 6
19 10 22 7 4 -3 5 -2 2 2 -3 3 0 12 6 20 21 25 3 13 -22 -14z"/>
<path fill="#000000" stroke="none" d="M239 277 c6 -8 7 -18 3 -23 -4 -5 -3
-6 2 -2 5 4 16 2 25 -4 9 -7 5 0 -8 15 -25 27 -43 39 -22 14z"/>
<path fill="#000000" stroke="none" d="M89 233 c-13 -16 -12 -17 4 -4 9 7 17
15 17 17 0 8 -8 3 -21 -13z"/>
<path fill="#000000" stroke="none" d="M153 245 c3 -6 -1 -19 -9 -30 -13 -17
-14 -17 -14 -1 0 22 -19 11 -29 -17 -8 -20 10 -72 23 -65 3 2 13 -7 21 -19 15
-22 16 -22 35 -3 30 30 50 74 40 91 -11 16 -26 4 -32 -26 -3 -21 -29 -31 -55
-21 -12 5 -13 9 -3 21 7 8 21 15 31 15 23 0 24 19 3 46 -8 10 -13 14 -11 9z"/>
<path fill="#000000" stroke="none" d="M210 246 c0 -2 8 -10 18 -17 15 -13 16
-12 3 4 -13 16 -21 21 -21 13z"/>
<path fill="#000000" stroke="none" d="M186 231 c-4 -5 -2 -12 3 -15 5 -4 12
-2 15 3 4 5 2 12 -3 15 -5 4 -12 2 -15 -3z"/>
<path fill="#000000" stroke="none" d="M35 180 c-4 -6 -3 -16 3 -22 6 -6 12
-6 17 2 4 6 3 16 -3 22 -6 6 -12 6 -17 -2z"/>
<path fill="#000000" stroke="none" d="M265 180 c-4 -6 -3 -16 3 -22 6 -6 12
-6 17 2 4 6 3 16 -3 22 -6 6 -12 6 -17 -2z"/>
<path fill="#000000" stroke="none" d="M80 116 c0 -2 8 -10 18 -17 15 -13 16
-12 3 4 -13 16 -21 21 -21 13z"/>
<path fill="#000000" stroke="none" d="M219 103 c-12 -16 -12 -17 2 -6 9 7 20
9 24 5 5 -4 5 -1 1 6 -9 16 -11 15 -27 -5z"/>
<path fill="#000000" stroke="none" d="M60 75 c13 -14 26 -25 28 -25 3 0 -5
11 -18 25 -13 14 -26 25 -28 25 -3 0 5 -11 18 -25z"/>
<path fill="#000000" stroke="none" d="M249 73 l-24 -28 28 24 c15 14 27 26
27 28 0 8 -8 1 -31 -24z"/>
<path fill="#000000" stroke="none" d="M135 60 c-8 -13 20 -24 41 -16 20 8 9
26 -16 26 -10 0 -22 -5 -25 -10z"/>
</g>
</svg>
