<?xml version="1.0" standalone="no"?>
<!DOCTYPE svg PUBLIC "-//W3C//DTD SVG 20010904//EN"
 "http://www.w3.org/TR/2001/REC-SVG-20010904/DTD/svg10.dtd">
<svg version="1.0" xmlns="http://www.w3.org/2000/svg"
 width="32.000000pt" height="32.000000pt" viewBox="0 0 32.000000 32.000000"
 preserveAspectRatio="xMidYMid meet">
<metadata>
Created by potrace 1.16, written by Peter Selinger 2001-2019
</metadata>
<g transform="translate(0.000000,32.000000) scale(0.100000,-0.100000)"
fill="#000000" stroke="none">
<path fill="#000000" stroke="none" d="M123 287 c-11 -12 -19 -27 -16 -34 2
-6 -1 -14 -6 -18 -6 -3 -8 0 -5 8 3 8 1 18 -5 22 -6 3 -11 5 -11 3 0 -2 -4
-18 -9 -36 l-10 -32 31 22 c27 18 31 19 25 4 -9 -23 10 -11 25 17 10 19 9 20
-4 9 -13 -10 -17 -10 -21 2 -3 8 4 21 16 29 12 8 19 18 16 21 -3 3 -15 -4 -26
-17z"/>
<path fill="#000000" stroke="none" d="M180 290 c0 -27 25 -44 47 -31 10 6 14
11 8 11 -5 0 -4 4 3 8 8 6 1 12 -23 19 -31 10 -35 9 -35 -7z"/>
<path fill="#000000" stroke="none" d="M199 197 c6 -8 7 -17 3 -21 -4 -4 -2
-6 5 -4 6 2 10 0 10 -3 -3 -11 25 -39 34 -34 4 3 17 -3 29 -15 16 -16 20 -17
20 -5 0 9 -11 20 -24 25 -13 5 -33 22 -46 39 -12 17 -26 31 -32 31 -7 0 -7 -4
1 -13z"/>
<path fill="#000000" stroke="none" d="M128 184 c-5 -4 -8 -21 -8 -38 1 -26 2
-28 11 -13 11 19 8 63 -3 51z"/>
<path fill="#000000" stroke="none" d="M60 151 c0 -5 -9 -11 -20 -14 -11 -3
-20 -11 -20 -17 0 -9 3 -10 14 -1 7 6 22 9 32 5 16 -5 16 -4 4 5 -10 7 -11 11
-2 11 6 0 12 5 12 10 0 6 -4 10 -10 10 -5 0 -10 -4 -10 -9z"/>
<path fill="#000000" stroke="none" d="M71 72 c-23 -32 -27 -47 -11 -37 6 3 7
-1 4 -9 -11 -29 4 -17 26 20 27 47 12 68 -19 26z"/>
<path fill="#000000" stroke="none" d="M186 81 c-8 -12 21 -34 33 -26 7 3 8 0
5 -9 -4 -11 0 -16 10 -16 15 0 15 3 1 30 -15 29 -38 39 -49 21z"/>
<path fill="#000000" stroke="none" d="M248 13 c6 -2 18 -2 25 0 6 3 1 5 -13
5 -14 0 -19 -2 -12 -5z"/>
</g>
</svg>
