<?xml version="1.0" standalone="no"?>
<!DOCTYPE svg PUBLIC "-//W3C//DTD SVG 20010904//EN"
 "http://www.w3.org/TR/2001/REC-SVG-20010904/DTD/svg10.dtd">
<svg version="1.0" xmlns="http://www.w3.org/2000/svg"
 width="32.000000pt" height="48.000000pt" viewBox="0 0 32.000000 48.000000"
 preserveAspectRatio="xMidYMid meet">
<metadata>
Created by potrace 1.16, written by Peter Selinger 2001-2019
</metadata>
<g transform="translate(0.000000,48.000000) scale(0.100000,-0.100000)"
fill="#000000" stroke="none">
<path fill="#000000" stroke="none" d="M26 458 c-3 -13 -8 -73 -10 -135 -6
-114 1 -152 31 -185 21 -24 34 -13 23 18 -10 24 -9 24 19 9 16 -8 32 -23 36
-32 20 -60 95 -98 95 -49 0 14 -5 28 -11 32 -8 5 -6 10 5 16 9 5 16 21 17 36
0 15 3 21 6 14 9 -23 23 -1 24 41 l1 42 11 -33 c7 -23 7 -43 -1 -67 -12 -42
-5 -49 26 -25 20 17 22 26 22 128 0 92 -3 111 -16 116 -15 6 -15 8 -1 24 9 10
15 27 15 38 -2 18 -6 20 -40 14 -41 -8 -68 -25 -68 -45 0 -7 -7 -18 -15 -25
-13 -10 -15 -9 -15 8 0 12 -4 23 -9 26 -4 3 -6 -5 -4 -17 6 -31 -21 -54 -42
-37 -8 7 -15 20 -15 30 0 21 25 44 39 36 5 -4 12 -2 16 4 6 9 2 11 -25 14 -6
1 -19 -12 -30 -29 -17 -25 -20 -27 -20 -10 0 17 -2 17 -10 5 -6 -10 -8 -3 -3
23 5 35 4 37 -21 37 -19 0 -27 -6 -30 -22z"/>
<path fill="#ffffff" stroke="none" d="M285 440 c-11 -5 -14 -9 -6 -9 8 -1 4
-9 -12 -21 -29 -23 -42 -26 -31 -7 5 8 2 7 -9 -2 -16 -12 -17 -12 -11 5 10 27
34 44 63 43 24 0 24 -1 6 -9z"/>
<path fill="#ffffff" stroke="none" d="M296 373 c17 -23 18 -46 2 -37 -10 6
-10 4 0 -7 6 -7 12 -23 12 -36 0 -23 -1 -22 -34 9 -30 29 -32 34 -18 46 9 6
11 12 5 12 -7 0 -15 -4 -18 -10 -3 -5 -13 -10 -22 -10 -13 0 -13 3 -3 15 11
13 8 14 -21 10 -31 -5 -32 -5 -10 5 14 6 30 9 38 6 7 -3 15 -1 18 4 10 16 37
12 51 -7z"/>
<path fill="#ffffff" stroke="none" d="M63 343 c7 -10 3 -13 -16 -13 -23 0
-24 2 -14 25 7 13 14 19 16 12 2 -7 8 -18 14 -24z"/>
<path fill="#ffffff" stroke="none" d="M105 370 c3 -6 -1 -7 -9 -4 -10 4 -16
1 -16 -7 0 -7 -3 -10 -6 -6 -7 7 4 27 16 27 5 0 12 -4 15 -10z"/>
<path fill="#ffffff" stroke="none" d="M193 344 c13 -13 -5 -25 -20 -13 -12
11 -14 10 -11 -6 2 -15 -4 -19 -29 -21 -25 -1 -33 2 -33 16 0 9 3 20 7 23 8 9
78 9 86 1z"/>
<path fill="#ffffff" stroke="none" d="M213 287 c-3 -5 -10 -4 -15 1 -6 6 -7
16 -3 22 6 9 9 9 16 -1 4 -7 5 -17 2 -22z"/>
<path fill="#ffffff" stroke="none" d="M282 283 c17 -17 28 -37 28 -54 0 -42
-17 -44 -23 -2 -4 20 -16 46 -28 59 -31 33 -12 30 23 -3z"/>
<path fill="#ffffff" stroke="none" d="M47 221 c-13 -19 -15 -20 -21 -6 -3 9
-6 29 -6 43 l0 26 21 -21 c20 -19 20 -23 6 -42z"/>
<path fill="#ffffff" stroke="none" d="M95 254 c-23 -17 -32 -10 -15 11 7 8
17 12 23 8 6 -4 3 -11 -8 -19z"/>
<path fill="#ffffff" stroke="none" d="M209 230 c0 -10 -3 -8 -9 5 -12 27 -12
43 0 25 5 -8 9 -22 9 -30z"/>
<path fill="#ffffff" stroke="none" d="M140 256 c0 -3 -4 -8 -10 -11 -5 -3
-10 -1 -10 4 0 6 5 11 10 11 6 0 10 -2 10 -4z"/>
<path fill="#ffffff" stroke="none" d="M243 240 c6 -24 -8 -36 -17 -14 -8 22
-7 34 3 34 5 0 11 -9 14 -20z"/>
<path fill="#ffffff" stroke="none" d="M108 228 c-3 -7 -15 -14 -29 -16 -23
-2 -23 -2 -5 13 24 18 39 20 34 3z"/>
<path fill="#ffffff" stroke="none" d="M180 221 c0 -26 -27 -48 -42 -33 -9 9
-7 17 7 32 23 25 35 26 35 1z"/>
<path fill="#ffffff" stroke="none" d="M87 194 c-3 -3 -12 -4 -19 -1 -8 3 -5
6 6 6 11 1 17 -2 13 -5z"/>
<path fill="#ffffff" stroke="none" d="M155 167 c13 -10 15 -16 6 -21 -12 -8
-41 10 -41 25 0 13 13 11 35 -4z"/>
<path fill="#000000" stroke="none" d="M36 233 c-6 -14 -5 -15 5 -6 7 7 10 15
7 18 -3 3 -9 -2 -12 -12z"/>
<path fill="#000000" stroke="none" d="M124 416 c-8 -22 3 -49 19 -43 16 5 16
49 0 54 -7 3 -16 -2 -19 -11z"/>
<path fill="#000000" stroke="none" d="M11 134 c0 -11 3 -14 6 -6 3 7 2 16 -1
19 -3 4 -6 -2 -5 -13z"/>
<path fill="#000000" stroke="none" d="M95 35 c-5 -2 -22 -6 -37 -9 -16 -4
-28 -11 -28 -16 0 -6 55 -10 140 -10 112 0 140 3 140 14 0 8 -15 16 -37 20
-39 6 -160 7 -178 1z"/>
</g>
</svg>
