<?xml version="1.0" standalone="no"?>
<!DOCTYPE svg PUBLIC "-//W3C//DTD SVG 20010904//EN"
 "http://www.w3.org/TR/2001/REC-SVG-20010904/DTD/svg10.dtd">
<svg version="1.0" xmlns="http://www.w3.org/2000/svg"
 width="32.000000pt" height="48.000000pt" viewBox="0 0 32.000000 48.000000"
 preserveAspectRatio="xMidYMid meet">
<metadata>
Created by potrace 1.16, written by Peter Selinger 2001-2019
</metadata>
<g transform="translate(0.000000,48.000000) scale(0.100000,-0.100000)"
fill="#000000" stroke="none">
<path fill="#000000" stroke="none" d="M278 459 c-40 -6 -68 -24 -68 -44 0 -7
-7 -18 -15 -25 -13 -10 -15 -9 -15 8 0 12 -4 23 -9 26 -4 3 -6 -5 -4 -17 3
-14 -2 -29 -11 -36 -23 -19 -49 4 -43 38 5 24 4 25 -9 6 -11 -15 -14 -15 -14
-3 0 22 -37 51 -56 44 -12 -5 -14 -9 -5 -20 6 -7 9 -15 6 -18 -3 -3 1 -11 10
-18 14 -12 14 -15 0 -30 -20 -22 -39 -120 -31 -163 7 -39 43 -90 56 -82 5 3 5
16 0 31 -10 24 -9 24 19 9 16 -8 32 -23 36 -32 20 -60 95 -98 95 -49 0 14 -5
28 -11 32 -8 5 -6 10 5 16 9 5 16 21 17 36 0 15 3 21 6 14 9 -23 23 -1 24 41
l1 42 11 -33 c7 -23 7 -43 -1 -67 -12 -42 -5 -49 26 -25 20 17 22 26 22 128 0
92 -3 111 -16 116 -15 6 -15 8 0 25 10 11 16 28 14 38 -2 16 -9 18 -40 12z"/>
<path fill="#ffffff" stroke="none" d="M70 435 c18 -22 -4 -46 -22 -26 -11 12
-9 13 7 7 16 -5 15 -2 -5 14 -19 15 -21 20 -9 20 9 0 22 -7 29 -15z"/>
<path fill="#ffffff" stroke="none" d="M261 437 c-14 -6 -26 -19 -28 -27 -3
-10 -1 -9 7 3 6 9 19 17 28 17 12 0 10 -4 -8 -17 -33 -23 -50 -25 -43 -5 8 22
33 42 52 42 10 0 7 -5 -8 -13z"/>
<path fill="#ffffff" stroke="none" d="M292 368 c12 -18 16 -59 9 -75 -1 -1
-12 8 -25 20 -28 25 -18 49 11 26 17 -13 17 -13 4 4 -10 12 -23 17 -38 14 -23
-4 -23 -3 -7 14 22 24 29 24 46 -3z"/>
<path fill="#ffffff" stroke="none" d="M105 370 c3 -6 -1 -7 -9 -4 -18 7 -21
14 -7 14 6 0 13 -4 16 -10z"/>
<path fill="#ffffff" stroke="none" d="M220 370 c-8 -5 -24 -9 -35 -9 l-20 0
20 9 c11 5 27 9 35 9 13 1 13 0 0 -9z"/>
<path fill="#ffffff" stroke="none" d="M65 344 c-23 -17 -32 -10 -15 11 7 8
17 12 23 8 6 -4 3 -11 -8 -19z"/>
<path fill="#ffffff" stroke="none" d="M193 344 c13 -13 -5 -25 -20 -13 -12
11 -14 10 -11 -6 2 -15 -4 -19 -29 -21 -25 -1 -33 2 -33 16 0 9 3 20 7 23 8 9
78 9 86 1z"/>
<path fill="#ffffff" stroke="none" d="M213 287 c-3 -5 -10 -4 -15 1 -6 6 -7
16 -3 22 6 9 9 9 16 -1 4 -7 5 -17 2 -22z"/>
<path fill="#ffffff" stroke="none" d="M95 254 c-23 -17 -32 -10 -15 11 7 8
17 12 23 8 6 -4 3 -11 -8 -19z"/>
<path fill="#ffffff" stroke="none" d="M308 224 c-3 -27 -10 -23 -15 8 -2 12
-9 29 -16 37 -7 10 -3 9 10 -3 13 -11 22 -28 21 -42z"/>
<path fill="#ffffff" stroke="none" d="M50 255 c0 -1 -7 -8 -15 -15 -13 -10
-15 -9 -15 8 0 15 5 20 15 16 8 -4 15 -7 15 -9z"/>
<path fill="#ffffff" stroke="none" d="M209 230 c0 -10 -3 -8 -9 5 -12 27 -12
43 0 25 5 -8 9 -22 9 -30z"/>
<path fill="#ffffff" stroke="none" d="M140 256 c0 -3 -4 -8 -10 -11 -5 -3
-10 -1 -10 4 0 6 5 11 10 11 6 0 10 -2 10 -4z"/>
<path fill="#ffffff" stroke="none" d="M243 240 c6 -24 -8 -36 -17 -14 -8 22
-7 34 3 34 5 0 11 -9 14 -20z"/>
<path fill="#ffffff" stroke="none" d="M108 228 c-3 -7 -15 -14 -29 -16 -23
-2 -23 -2 -5 13 24 18 39 20 34 3z"/>
<path fill="#ffffff" stroke="none" d="M180 221 c0 -26 -27 -48 -42 -33 -9 9
-7 17 7 32 23 25 35 26 35 1z"/>
<path fill="#ffffff" stroke="none" d="M87 194 c-3 -3 -12 -4 -19 -1 -8 3 -5
6 6 6 11 1 17 -2 13 -5z"/>
<path fill="#ffffff" stroke="none" d="M155 167 c13 -10 15 -16 6 -21 -12 -8
-41 10 -41 25 0 13 13 11 35 -4z"/>
<path fill="#000000" stroke="none" d="M115 450 c-20 -9 -12 -12 25 -12 58 0
65 5 20 15 -14 3 -34 1 -45 -3z"/>
<path fill="#000000" stroke="none" d="M124 416 c-8 -22 3 -49 19 -43 16 5 16
49 0 54 -7 3 -16 -2 -19 -11z"/>
<path fill="#000000" stroke="none" d="M11 134 c0 -11 3 -14 6 -6 3 7 2 16 -1
19 -3 4 -6 -2 -5 -13z"/>
<path fill="#000000" stroke="none" d="M95 35 c-5 -2 -22 -6 -37 -9 -16 -4
-28 -11 -28 -16 0 -6 55 -10 140 -10 112 0 140 3 140 14 0 8 -15 16 -37 20
-39 6 -160 7 -178 1z"/>
</g>
</svg>
