<?xml version="1.0" standalone="no"?>
<!DOCTYPE svg PUBLIC "-//W3C//DTD SVG 20010904//EN"
 "http://www.w3.org/TR/2001/REC-SVG-20010904/DTD/svg10.dtd">
<svg version="1.0" xmlns="http://www.w3.org/2000/svg"
 width="32.000000pt" height="32.000000pt" viewBox="0 0 32.000000 32.000000"
 preserveAspectRatio="xMidYMid meet">
<metadata>
Created by potrace 1.16, written by Peter Selinger 2001-2019
</metadata>
<g transform="translate(0.000000,32.000000) scale(0.100000,-0.100000)"
fill="#000000" stroke="none">
<path fill="#000000" stroke="none" d="M0 160 l0 -160 160 0 160 0 0 160 0
160 -160 0 -160 0 0 -160z"/>
<path fill="#ffffff" stroke="none" d="M164 204 c3 -9 4 -20 0 -25 -3 -5 0 -9
6 -9 7 0 6 -5 -2 -14 -9 -10 -20 -11 -37 -5 -19 8 -22 7 -17 -6 3 -9 2 -13 -4
-10 -16 10 -11 44 10 65 24 24 36 25 44 4z"/>
<path fill="#ffffff" stroke="none" d="M208 193 c2 -7 -4 -13 -13 -13 -9 0
-14 4 -11 9 4 5 0 12 -6 15 -7 3 -4 5 6 3 11 -1 21 -8 24 -14z"/>
<path fill="#ffffff" stroke="none" d="M208 122 c-9 -23 -16 -27 -39 -24 -16
2 -26 8 -24 13 3 4 12 6 20 3 7 -3 22 4 32 15 23 27 23 27 11 -7z"/>
</g>
</svg>
