<?xml version="1.0" standalone="no"?>
<!DOCTYPE svg PUBLIC "-//W3C//DTD SVG 20010904//EN"
 "http://www.w3.org/TR/2001/REC-SVG-20010904/DTD/svg10.dtd">
<svg version="1.0" xmlns="http://www.w3.org/2000/svg"
 width="32.000000pt" height="32.000000pt" viewBox="0 0 32.000000 32.000000"
 preserveAspectRatio="xMidYMid meet">
<metadata>
Created by potrace 1.16, written by Peter Selinger 2001-2019
</metadata>
<g transform="translate(0.000000,32.000000) scale(0.100000,-0.100000)"
fill="#000000" stroke="none">
<path fill="#000000" stroke="none" d="M22 158 l2 -143 3 137 4 137 137 4 137
3 -142 2 -143 2 2 -142z"/>
<path fill="#000000" stroke="none" d="M103 235 l-28 -25 28 -25 c36 -32 78
-32 114 0 l28 25 -28 25 c-36 32 -78 32 -114 0z"/>
<path fill="#ffffff" stroke="none" d="M190 235 c26 -32 -13 -81 -47 -59 -23
14 -28 41 -13 59 16 19 44 19 60 0z"/>
<path fill="#000000" stroke="none" d="M144 219 c-10 -17 13 -36 27 -22 12 12
4 33 -11 33 -5 0 -12 -5 -16 -11z"/>
<path fill="#000000" stroke="none" d="M60 154 c1 -18 13 -43 31 -64 22 -24
29 -29 25 -15 -3 11 -8 32 -11 47 -4 14 -15 34 -26 44 -18 16 -19 16 -19 -12z"/>
<path fill="#000000" stroke="none" d="M238 164 c-14 -17 -41 -94 -35 -100 2
-2 15 13 31 32 17 22 26 44 24 60 -3 25 -4 26 -20 8z"/>
<path fill="#000000" stroke="none" d="M142 127 c-10 -12 5 -87 18 -87 3 0 10
17 17 37 11 36 4 63 -17 63 -4 0 -12 -6 -18 -13z"/>
</g>
</svg>
