<?xml version="1.0" standalone="no"?>
<!DOCTYPE svg PUBLIC "-//W3C//DTD SVG 20010904//EN"
 "http://www.w3.org/TR/2001/REC-SVG-20010904/DTD/svg10.dtd">
<svg version="1.0" xmlns="http://www.w3.org/2000/svg"
 width="32.000000pt" height="32.000000pt" viewBox="0 0 32.000000 32.000000"
 preserveAspectRatio="xMidYMid meet">
<metadata>
Created by potrace 1.16, written by Peter Selinger 2001-2019
</metadata>
<g transform="translate(0.000000,32.000000) scale(0.100000,-0.100000)"
fill="#000000" stroke="none">
<path fill="#000000" stroke="none" d="M22 163 l2 -138 3 132 4 132 132 4 132
3 -137 2 -138 2 2 -137z"/>
<path fill="#000000" stroke="none" d="M225 250 c-32 -16 -34 -18 -11 -13 28
6 29 5 22 -23 -4 -16 -5 -27 -3 -24 5 5 37 81 34 79 -1 0 -20 -9 -42 -19z"/>
<path fill="#000000" stroke="none" d="M195 209 c-16 -10 -45 -22 -62 -25 -41
-8 -33 -25 10 -21 22 1 41 12 61 35 32 37 32 37 -9 11z"/>
<path fill="#000000" stroke="none" d="M118 120 c-3 -17 -1 -30 4 -30 4 0 8
14 8 30 0 17 -2 30 -4 30 -2 0 -6 -13 -8 -30z"/>
<path fill="#000000" stroke="none" d="M80 123 c0 -10 4 -14 8 -8 4 6 11 13
16 18 5 4 2 7 -7 7 -10 0 -17 -8 -17 -17z"/>
<path fill="#000000" stroke="none" d="M52 70 c-17 -28 -15 -36 6 -17 10 10
22 14 26 10 4 -4 4 0 0 10 -8 22 -16 22 -32 -3z"/>
</g>
</svg>
