<?xml version="1.0" standalone="no"?>
<!DOCTYPE svg PUBLIC "-//W3C//DTD SVG 20010904//EN"
 "http://www.w3.org/TR/2001/REC-SVG-20010904/DTD/svg10.dtd">
<svg version="1.0" xmlns="http://www.w3.org/2000/svg"
 width="32.000000pt" height="32.000000pt" viewBox="0 0 32.000000 32.000000"
 preserveAspectRatio="xMidYMid meet">
<metadata>
Created by potrace 1.16, written by Peter Selinger 2001-2019
</metadata>
<g transform="translate(0.000000,32.000000) scale(0.100000,-0.100000)"
fill="#000000" stroke="none">
<path fill="#000000" stroke="none" d="M20 160 l0 -140 140 0 140 0 0 140 0
140 -140 0 -140 0 0 -140z"/>
<path fill="#ffffff" stroke="none" d="M290 160 l0 -130 -130 0 -130 0 0 130
0 130 130 0 130 0 0 -130z"/>
<path fill="#000000" stroke="none" d="M207 254 c-26 -13 -70 -30 -99 -38 -36
-9 -46 -15 -33 -19 9 -4 35 -2 57 4 58 15 59 3 2 -14 -37 -11 -45 -17 -31 -22
23 -10 22 -25 -3 -25 -13 0 -20 -7 -20 -20 0 -12 -9 -30 -20 -42 -35 -38 -20
-53 18 -18 12 11 30 20 42 20 13 0 20 7 20 20 0 25 15 26 25 3 5 -14 11 -6 22
31 17 58 29 56 13 -3 -7 -25 -7 -48 -2 -57 7 -13 11 -7 15 22 4 22 20 68 37
102 16 35 30 68 30 73 0 15 -22 10 -73 -17z"/>
<path fill="#ffffff" stroke="none" d="M164 155 c-7 -16 -24 -21 -24 -6 0 8 7
13 27 20 1 1 0 -6 -3 -14z"/>
<path fill="#ffffff" stroke="none" d="M120 110 c0 -5 -4 -10 -10 -10 -5 0
-10 5 -10 10 0 6 5 10 10 10 6 0 10 -4 10 -10z"/>
</g>
</svg>
