<?xml version="1.0" standalone="no"?>
<!DOCTYPE svg PUBLIC "-//W3C//DTD SVG 20010904//EN"
 "http://www.w3.org/TR/2001/REC-SVG-20010904/DTD/svg10.dtd">
<svg version="1.0" xmlns="http://www.w3.org/2000/svg"
 width="32.000000pt" height="32.000000pt" viewBox="0 0 32.000000 32.000000"
 preserveAspectRatio="xMidYMid meet">
<metadata>
Created by potrace 1.16, written by Peter Selinger 2001-2019
</metadata>
<g transform="translate(0.000000,32.000000) scale(0.100000,-0.100000)"
fill="#000000" stroke="none">
<path fill="#000000" stroke="none" d="M0 160 l0 -160 160 0 160 0 0 160 0
160 -160 0 -160 0 0 -160z"/>
<path fill="#ffffff" stroke="none" d="M168 293 l-137 -4 0 -131 c0 -72 -3
-133 -6 -136 -3 -3 -5 58 -5 136 l0 142 143 -2 142 -2 -137 -3z"/>
<path fill="#ffffff" stroke="none" d="M215 270 c-9 -14 8 -12 25 3 8 6 1 -3
-15 -21 -17 -19 -47 -43 -69 -54 l-39 -20 40 -41 c22 -23 48 -55 58 -71 14
-24 5 -19 -46 25 -36 30 -76 61 -89 70 l-25 16 80 41 c44 23 76 41 72 42 -9 0
0 20 9 20 3 0 2 -4 -1 -10z"/>
</g>
</svg>
