<?xml version="1.0" standalone="no"?>
<!DOCTYPE svg PUBLIC "-//W3C//DTD SVG 20010904//EN"
 "http://www.w3.org/TR/2001/REC-SVG-20010904/DTD/svg10.dtd">
<svg version="1.0" xmlns="http://www.w3.org/2000/svg"
 width="32.000000pt" height="32.000000pt" viewBox="0 0 32.000000 32.000000"
 preserveAspectRatio="xMidYMid meet">
<metadata>
Created by potrace 1.16, written by Peter Selinger 2001-2019
</metadata>
<g transform="translate(0.000000,32.000000) scale(0.100000,-0.100000)"
fill="#000000" stroke="none">
<path fill="#000000" stroke="none" d="M163 293 l-132 -4 -3 -134 -3 -135 138
0 137 0 0 140 c0 77 -1 139 -2 138 -2 -1 -62 -4 -135 -5z"/>
<path fill="#ffffff" stroke="none" d="M256 249 c10 -17 -13 -36 -27 -22 -12
12 -4 33 11 33 5 0 12 -5 16 -11z"/>
<path fill="#ffffff" stroke="none" d="M140 220 c12 -11 27 -17 31 -14 5 3 9
1 9 -5 0 -5 2 -15 5 -23 2 -7 -2 -22 -11 -33 -14 -19 -16 -19 -25 -2 -6 9 -17
17 -26 17 -14 0 -14 2 2 20 16 18 16 20 1 35 -30 30 -19 34 14 5z"/>
<path fill="#ffffff" stroke="none" d="M210 129 c0 -6 -4 -7 -10 -4 -5 3 -10
11 -10 16 0 6 5 7 10 4 6 -3 10 -11 10 -16z"/>
<path fill="#000000" stroke="none" d="M150 170 c0 -5 5 -10 10 -10 6 0 10 5
10 10 0 6 -4 10 -10 10 -5 0 -10 -4 -10 -10z"/>
</g>
</svg>
