<?xml version="1.0" standalone="no"?>
<!DOCTYPE svg PUBLIC "-//W3C//DTD SVG 20010904//EN"
 "http://www.w3.org/TR/2001/REC-SVG-20010904/DTD/svg10.dtd">
<svg version="1.0" xmlns="http://www.w3.org/2000/svg"
 width="32.000000pt" height="32.000000pt" viewBox="0 0 32.000000 32.000000"
 preserveAspectRatio="xMidYMid meet">
<metadata>
Created by potrace 1.16, written by Peter Selinger 2001-2019
</metadata>
<g transform="translate(0.000000,32.000000) scale(0.100000,-0.100000)"
fill="#000000" stroke="none">
<path fill="#000000" stroke="none" d="M30 160 l0 -130 130 0 130 0 0 130 0
130 -130 0 -130 0 0 -130z"/>
<path fill="#ffffff" stroke="none" d="M280 240 c0 -31 -5 -42 -22 -51 -22
-12 -22 -11 -5 8 20 23 23 39 5 23 -7 -5 -25 -19 -40 -30 l-27 -21 22 -37 22
-37 -27 18 c-34 21 -38 21 -38 0 -1 -17 -1 -17 -10 -1 -8 13 -14 14 -35 5 -14
-7 -25 -20 -25 -29 0 -10 -10 -23 -22 -29 -19 -9 -21 -9 -10 2 6 7 12 21 12
31 0 10 7 30 16 43 13 20 14 25 3 25 -11 0 -11 2 -1 8 12 8 11 59 -3 81 -4 8
4 7 24 -3 17 -9 32 -15 34 -14 2 2 11 -3 20 -11 14 -11 18 -10 28 13 7 14 17
26 22 26 6 0 7 3 4 7 -4 3 -17 -2 -28 -13 -22 -19 -22 -19 -10 4 9 17 20 22
51 22 40 0 40 0 40 -40z"/>
<path fill="#000000" stroke="none" d="M116 197 c3 -10 9 -15 12 -12 3 3 0 11
-7 18 -10 9 -11 8 -5 -6z"/>
</g>
</svg>
