<?xml version="1.0" standalone="no"?>
<!DOCTYPE svg PUBLIC "-//W3C//DTD SVG 20010904//EN"
 "http://www.w3.org/TR/2001/REC-SVG-20010904/DTD/svg10.dtd">
<svg version="1.0" xmlns="http://www.w3.org/2000/svg"
 width="32.000000pt" height="32.000000pt" viewBox="0 0 32.000000 32.000000"
 preserveAspectRatio="xMidYMid meet">
<metadata>
Created by potrace 1.16, written by Peter Selinger 2001-2019
</metadata>
<g transform="translate(0.000000,32.000000) scale(0.100000,-0.100000)"
fill="#000000" stroke="none">
<path fill="#000000" stroke="none" d="M22 163 l2 -138 3 132 4 132 132 4 132
3 -137 2 -138 2 2 -137z"/>
<path fill="#000000" stroke="none" d="M76 232 c-11 -10 -6 -22 9 -22 22 0 18
-23 -5 -38 -19 -12 -19 -14 -4 -37 9 -14 19 -23 22 -21 2 3 17 -3 32 -14 16
-11 39 -20 52 -19 l23 0 -22 9 c-30 12 -29 18 9 52 23 20 27 28 15 28 -9 0
-17 6 -17 13 0 6 -9 23 -20 37 -16 20 -20 22 -20 8 0 -19 -15 -24 -24 -9 -7
11 -43 21 -50 13z"/>
<path fill="#ffffff" stroke="none" d="M90 150 c0 -5 -2 -10 -4 -10 -3 0 -8 5
-11 10 -3 6 -1 10 4 10 6 0 11 -4 11 -10z"/>
</g>
</svg>
