<?xml version="1.0" standalone="no"?>
<!DOCTYPE svg PUBLIC "-//W3C//DTD SVG 20010904//EN"
 "http://www.w3.org/TR/2001/REC-SVG-20010904/DTD/svg10.dtd">
<svg version="1.0" xmlns="http://www.w3.org/2000/svg"
 width="32.000000pt" height="32.000000pt" viewBox="0 0 32.000000 32.000000"
 preserveAspectRatio="xMidYMid meet">
<metadata>
Created by potrace 1.16, written by Peter Selinger 2001-2019
</metadata>
<g transform="translate(0.000000,32.000000) scale(0.100000,-0.100000)"
fill="#000000" stroke="none">
<path fill="#000000" stroke="none" d="M161 204 c6 -7 15 -11 20 -8 21 13 7
-14 -20 -37 -21 -19 -38 -25 -61 -22 -28 3 -30 1 -20 -17 22 -41 170 -19 170
25 0 15 -64 68 -87 71 -11 2 -12 -1 -2 -12z"/>
<path fill="#ffffff" stroke="none" d="M225 157 c6 -5 3 -7 -7 -3 -10 3 -20 1
-23 -4 -4 -6 -12 -10 -18 -9 -9 0 -8 2 1 6 6 2 9 10 6 15 -4 7 -2 8 4 4 7 -4
12 -2 12 5 0 7 3 8 8 3 4 -5 12 -13 17 -17z"/>
</g>
</svg>
