<?xml version="1.0" standalone="no"?>
<!DOCTYPE svg PUBLIC "-//W3C//DTD SVG 20010904//EN"
 "http://www.w3.org/TR/2001/REC-SVG-20010904/DTD/svg10.dtd">
<svg version="1.0" xmlns="http://www.w3.org/2000/svg"
 width="32.000000pt" height="32.000000pt" viewBox="0 0 32.000000 32.000000"
 preserveAspectRatio="xMidYMid meet">
<metadata>
Created by potrace 1.16, written by Peter Selinger 2001-2019
</metadata>
<g transform="translate(0.000000,32.000000) scale(0.100000,-0.100000)"
fill="#000000" stroke="none">
<path fill="#000000" stroke="none" d="M0 160 l0 -160 160 0 160 0 0 160 0
160 -160 0 -160 0 0 -160z"/>
<path fill="#ffffff" stroke="none" d="M215 189 c19 -17 35 -37 35 -44 0 -26
-43 -45 -102 -45 -46 0 -59 4 -68 19 -14 27 -13 31 5 24 9 -3 25 3 37 13 14
12 18 14 13 4 -5 -9 0 -7 14 5 21 18 21 20 5 32 -25 18 -32 17 -61 -14 -21
-23 -24 -24 -14 -6 27 52 85 57 136 12z"/>
</g>
</svg>
