<?xml version="1.0" standalone="no"?>
<!DOCTYPE svg PUBLIC "-//W3C//DTD SVG 20010904//EN"
 "http://www.w3.org/TR/2001/REC-SVG-20010904/DTD/svg10.dtd">
<svg version="1.0" xmlns="http://www.w3.org/2000/svg"
 width="32.000000pt" height="32.000000pt" viewBox="0 0 32.000000 32.000000"
 preserveAspectRatio="xMidYMid meet">
<metadata>
Created by potrace 1.16, written by Peter Selinger 2001-2019
</metadata>
<g transform="translate(0.000000,32.000000) scale(0.100000,-0.100000)"
fill="#000000" stroke="none">
<path fill="#000000" stroke="none" d="M0 160 l0 -160 160 0 160 0 0 160 0
160 -160 0 -160 0 0 -160z"/>
<path fill="#ffffff" stroke="none" d="M241 259 c15 -30 -4 -95 -31 -104 -11
-4 -20 -11 -20 -16 0 -10 -36 -49 -47 -50 -5 0 -7 -6 -5 -14 1 -7 -2 -16 -8
-20 -6 -3 -7 0 -4 9 8 21 -6 20 -22 -1 -12 -16 -12 -16 -7 5 5 22 -5 29 -22
15 -6 -5 -7 -4 -2 2 12 16 8 27 -9 21 -15 -6 -15 -4 -3 11 12 15 12 16 -6 10
-18 -6 -18 -5 -3 5 15 11 15 13 0 26 -9 7 -11 11 -4 7 22 -11 34 6 15 22 -10
8 -12 12 -6 8 24 -12 38 7 17 23 -18 14 -18 14 3 8 27 -9 39 9 16 23 -10 6
-13 11 -8 11 6 0 16 -5 22 -11 7 -7 20 -4 44 10 44 27 75 27 90 0z"/>
<path fill="#ffffff" stroke="none" d="M250 140 c8 -5 11 -10 5 -10 -5 0 -17
5 -25 10 -8 5 -10 10 -5 10 6 0 17 -5 25 -10z"/>
<path fill="#ffffff" stroke="none" d="M230 110 c8 -5 11 -10 5 -10 -5 0 -17
5 -25 10 -8 5 -10 10 -5 10 6 0 17 -5 25 -10z"/>
<path fill="#ffffff" stroke="none" d="M220 90 c8 -5 11 -10 5 -10 -5 0 -17 5
-25 10 -8 5 -10 10 -5 10 6 0 17 -5 25 -10z"/>
<path fill="#ffffff" stroke="none" d="M210 64 c0 -2 -9 0 -20 6 -11 6 -20 13
-20 16 0 2 9 0 20 -6 11 -6 20 -13 20 -16z"/>
<path fill="#ffffff" stroke="none" d="M175 51 c-6 -5 -25 10 -25 20 0 5 6 4
14 -3 8 -7 12 -15 11 -17z"/>
</g>
</svg>
