<?xml version="1.0" standalone="no"?>
<!DOCTYPE svg PUBLIC "-//W3C//DTD SVG 20010904//EN"
 "http://www.w3.org/TR/2001/REC-SVG-20010904/DTD/svg10.dtd">
<svg version="1.0" xmlns="http://www.w3.org/2000/svg"
 width="32.000000pt" height="32.000000pt" viewBox="0 0 32.000000 32.000000"
 preserveAspectRatio="xMidYMid meet">
<metadata>
Created by potrace 1.16, written by Peter Selinger 2001-2019
</metadata>
<g transform="translate(0.000000,32.000000) scale(0.100000,-0.100000)"
fill="#000000" stroke="none">
<path fill="#000000" stroke="none" d="M20 160 l0 -140 140 0 140 0 0 140 0
140 -140 0 -140 0 0 -140z"/>
<path fill="#ffffff" stroke="none" d="M290 160 l0 -130 -130 0 -130 0 0 130
0 130 130 0 130 0 0 -130z"/>
<path fill="#000000" stroke="none" d="M70 248 c0 -9 7 -21 15 -28 22 -18 18
-30 -11 -30 -14 0 -23 -4 -19 -10 3 -5 19 -10 34 -10 15 0 36 -9 46 -20 18
-19 17 -20 -1 -20 -17 0 -19 -6 -16 -36 3 -20 7 -32 11 -27 3 6 16 9 29 8 12
-1 22 3 23 9 0 6 4 2 9 -9 8 -19 9 -19 9 2 1 12 -4 25 -11 29 -8 5 -6 10 8 15
17 7 17 8 -5 8 -18 1 -21 4 -13 14 6 6 11 17 12 22 1 6 8 9 17 7 12 -3 14 2 8
25 -3 15 -3 25 1 21 10 -11 34 11 34 30 0 13 -4 12 -22 -4 -30 -25 -110 -25
-138 1 -17 15 -20 16 -20 3z"/>
<path fill="#000000" stroke="none" d="M238 178 c9 -9 15 -9 24 0 9 9 7 12
-12 12 -19 0 -21 -3 -12 -12z"/>
</g>
</svg>
