<?xml version="1.0" standalone="no"?>
<!DOCTYPE svg PUBLIC "-//W3C//DTD SVG 20010904//EN"
 "http://www.w3.org/TR/2001/REC-SVG-20010904/DTD/svg10.dtd">
<svg version="1.0" xmlns="http://www.w3.org/2000/svg"
 width="32.000000pt" height="32.000000pt" viewBox="0 0 32.000000 32.000000"
 preserveAspectRatio="xMidYMid meet">
<metadata>
Created by potrace 1.16, written by Peter Selinger 2001-2019
</metadata>
<g transform="translate(0.000000,32.000000) scale(0.100000,-0.100000)"
fill="#000000" stroke="none">
<path fill="#000000" stroke="none" d="M22 163 l2 -138 3 132 4 132 132 4 132
3 -137 2 -138 2 2 -137z"/>
<path fill="#000000" stroke="none" d="M73 204 c-21 -21 -24 -32 -19 -62 10
-62 61 -112 74 -73 3 10 0 12 -12 8 -9 -4 -14 -3 -11 2 3 5 1 13 -5 16 -8 5
-7 11 1 21 6 8 9 22 6 33 -3 13 0 18 12 16 11 -1 15 -10 13 -26 -3 -23 -2 -23
13 -5 8 11 15 24 15 30 0 5 3 6 7 3 9 -9 43 22 43 40 0 18 -19 17 -26 -2 -12
-31 -60 -16 -55 18 2 16 -32 5 -56 -19z"/>
<path fill="#000000" stroke="none" d="M159 98 c-8 -26 -3 -38 19 -47 21 -10
28 -9 39 3 7 9 8 11 1 6 -17 -14 -28 -12 -28 5 0 8 -7 15 -16 15 -8 0 -12 5
-9 10 3 6 4 10 1 10 -3 0 -6 -1 -7 -2z"/>
</g>
</svg>
