<?xml version="1.0" standalone="no"?>
<!DOCTYPE svg PUBLIC "-//W3C//DTD SVG 20010904//EN"
 "http://www.w3.org/TR/2001/REC-SVG-20010904/DTD/svg10.dtd">
<svg version="1.0" xmlns="http://www.w3.org/2000/svg"
 width="32.000000pt" height="32.000000pt" viewBox="0 0 32.000000 32.000000"
 preserveAspectRatio="xMidYMid meet">
<metadata>
Created by potrace 1.16, written by Peter Selinger 2001-2019
</metadata>
<g transform="translate(0.000000,32.000000) scale(0.100000,-0.100000)"
fill="#000000" stroke="none">
<path fill="#000000" stroke="none" d="M0 160 l0 -160 160 0 160 0 0 160 0
160 -160 0 -160 0 0 -160z"/>
<path fill="#ffffff" stroke="none" d="M61 281 c-7 -5 -17 -15 -22 -22 -6 -10
-9 -8 -9 9 0 16 6 22 23 22 16 0 18 -3 8 -9z"/>
<path fill="#ffffff" stroke="none" d="M110 258 c-25 -42 -25 -79 -1 -109 26
-33 37 -17 15 20 -18 31 -18 31 8 57 19 20 32 25 50 21 31 -8 78 -44 78 -60 0
-6 -7 -1 -16 11 -12 17 -24 22 -57 21 l-42 -1 32 -9 c63 -18 88 -106 44 -153
-17 -18 -19 -25 -9 -29 7 -3 4 -5 -8 -4 -21 1 -20 1 3 35 32 47 30 95 -3 121
-15 11 -30 18 -35 15 -5 -3 -18 0 -29 6 -18 10 -19 9 -9 -14 6 -13 22 -29 35
-35 23 -10 24 -9 14 10 -7 11 -9 23 -6 26 3 3 12 -9 20 -28 30 -71 -41 -120
-96 -66 -13 12 -19 19 -14 14 19 -14 83 -7 97 10 13 15 12 15 -9 2 -19 -12
-26 -12 -49 1 -15 9 -34 32 -42 53 -12 34 -12 41 4 77 10 22 24 40 31 40 10 0
8 -9 -6 -32z"/>
<path fill="#ffffff" stroke="none" d="M300 280 c0 -5 -2 -10 -4 -10 -3 0 -8
5 -11 10 -3 6 -1 10 4 10 6 0 11 -4 11 -10z"/>
<path fill="#ffffff" stroke="none" d="M297 228 c-3 -8 -6 -5 -6 6 -1 11 2 17
5 13 3 -3 4 -12 1 -19z"/>
<path fill="#ffffff" stroke="none" d="M297 78 c-3 -8 -6 -5 -6 6 -1 11 2 17
5 13 3 -3 4 -12 1 -19z"/>
<path fill="#ffffff" stroke="none" d="M90 31 c23 -9 22 -10 -10 -7 -19 2 -38
4 -42 5 -5 0 -8 11 -8 23 0 20 1 20 18 5 9 -9 29 -20 42 -26z"/>
<path fill="#ffffff" stroke="none" d="M297 40 c-1 -11 -5 -20 -9 -20 -10 0
-10 4 -2 24 8 22 13 20 11 -4z"/>
<path fill="#ffffff" stroke="none" d="M257 24 c-3 -3 -12 -4 -19 -1 -8 3 -5
6 6 6 11 1 17 -2 13 -5z"/>
</g>
</svg>
