<?xml version="1.0" standalone="no"?>
<!DOCTYPE svg PUBLIC "-//W3C//DTD SVG 20010904//EN"
 "http://www.w3.org/TR/2001/REC-SVG-20010904/DTD/svg10.dtd">
<svg version="1.0" xmlns="http://www.w3.org/2000/svg"
 width="32.000000pt" height="32.000000pt" viewBox="0 0 32.000000 32.000000"
 preserveAspectRatio="xMidYMid meet">
<metadata>
Created by potrace 1.16, written by Peter Selinger 2001-2019
</metadata>
<g transform="translate(0.000000,32.000000) scale(0.100000,-0.100000)"
fill="#000000" stroke="none">
<path fill="#000000" stroke="none" d="M0 160 l0 -160 160 0 160 0 0 160 0
160 -160 0 -160 0 0 -160z"/>
<path fill="#ffffff" stroke="none" d="M300 160 l0 -140 -137 0 -138 0 3 55
c3 34 8 53 14 49 6 -4 6 2 -1 14 -6 11 -11 50 -11 86 l0 66 78 -1 c52 0 70 -3
56 -9 -25 -10 -74 -66 -74 -85 0 -7 8 -21 17 -32 10 -10 15 -14 11 -9 -14 17
-9 59 9 78 22 24 73 23 109 -3 21 -15 20 -13 -5 10 -19 16 -39 27 -44 24 -6
-4 -7 -1 -2 6 4 7 16 11 26 8 11 -3 17 -1 14 3 -3 5 12 11 32 13 21 2 39 4 41
5 1 1 2 -61 2 -138z"/>
<path fill="#000000" stroke="none" d="M207 202 c45 -35 55 -104 22 -146 -15
-19 -17 -26 -6 -26 7 0 22 16 33 35 15 29 17 40 7 65 -13 34 3 31 17 -4 8 -20
9 -20 9 4 0 14 -6 36 -14 50 -12 21 -14 22 -15 6 0 -17 -3 -16 -25 8 -13 14
-30 26 -37 26 -7 0 -3 -8 9 -18z"/>
<path fill="#000000" stroke="none" d="M196 165 c21 -33 10 -83 -21 -95 -29
-11 -39 -27 -17 -27 23 0 40 14 58 50 13 23 13 35 4 57 -7 16 -18 31 -26 34
-11 4 -11 0 2 -19z"/>
<path fill="#000000" stroke="none" d="M97 119 c11 -12 27 -19 35 -17 9 2 1
10 -20 20 l-36 17 21 -20z"/>
<path fill="#000000" stroke="none" d="M115 50 c3 -5 8 -10 11 -10 2 0 4 5 4
10 0 6 -5 10 -11 10 -5 0 -7 -4 -4 -10z"/>
</g>
</svg>
