<?xml version="1.0" standalone="no"?>
<!DOCTYPE svg PUBLIC "-//W3C//DTD SVG 20010904//EN"
 "http://www.w3.org/TR/2001/REC-SVG-20010904/DTD/svg10.dtd">
<svg version="1.0" xmlns="http://www.w3.org/2000/svg"
 width="32.000000pt" height="32.000000pt" viewBox="0 0 32.000000 32.000000"
 preserveAspectRatio="xMidYMid meet">
<metadata>
Created by potrace 1.16, written by Peter Selinger 2001-2019
</metadata>
<g transform="translate(0.000000,32.000000) scale(0.100000,-0.100000)"
fill="#000000" stroke="none">
<path fill="#000000" stroke="none" d="M0 160 l0 -160 160 0 160 0 0 160 0
160 -160 0 -160 0 0 -160z"/>
<path fill="#ffffff" stroke="none" d="M168 293 l-138 -4 0 -128 c0 -94 3
-131 13 -134 7 -3 5 -6 -5 -6 -16 -1 -18 12 -18 139 l0 140 143 -2 142 -2
-137 -3z"/>
<path fill="#ffffff" stroke="none" d="M240 230 c12 -8 13 -13 3 -29 -8 -13
-9 -22 -3 -26 6 -3 10 -1 10 6 0 10 3 10 12 1 16 -16 -9 -47 -27 -32 -19 16
-25 -1 -15 -43 6 -29 5 -37 -6 -37 -8 0 -14 10 -14 24 0 31 -14 40 -30 21 -12
-15 -40 -17 -93 -8 -31 5 -27 16 14 37 28 14 27 29 -3 36 -21 5 -21 7 -4 13
10 4 16 13 13 22 -5 10 5 15 36 18 80 7 92 7 107 -3z"/>
<path fill="#ffffff" stroke="none" d="M190 95 c0 -22 -4 -25 -36 -25 l-37 0
34 24 c19 13 35 25 37 25 1 1 2 -10 2 -24z"/>
<path fill="#000000" stroke="none" d="M156 211 c-15 -16 -15 -20 -1 -31 18
-15 2 -52 -19 -44 -7 3 -19 -3 -27 -13 -13 -16 -12 -17 3 -5 9 8 21 11 27 8 5
-4 19 7 30 23 25 34 26 45 6 38 -21 -9 -28 8 -9 23 11 10 18 10 26 2 16 -16
25 -15 32 4 5 14 4 15 -8 5 -10 -8 -16 -9 -21 -1 -9 15 -20 12 -39 -9z"/>
</g>
</svg>
