<?xml version="1.0" standalone="no"?>
<!DOCTYPE svg PUBLIC "-//W3C//DTD SVG 20010904//EN"
 "http://www.w3.org/TR/2001/REC-SVG-20010904/DTD/svg10.dtd">
<svg version="1.0" xmlns="http://www.w3.org/2000/svg"
 width="32.000000pt" height="32.000000pt" viewBox="0 0 32.000000 32.000000"
 preserveAspectRatio="xMidYMid meet">
<metadata>
Created by potrace 1.16, written by Peter Selinger 2001-2019
</metadata>
<g transform="translate(0.000000,32.000000) scale(0.100000,-0.100000)"
fill="#000000" stroke="none">
<path fill="#000000" stroke="none" d="M0 160 l0 -160 160 0 160 0 0 160 0
160 -160 0 -160 0 0 -160z"/>
<path fill="#ffffff" stroke="none" d="M163 293 l-132 -4 -4 -132 -3 -132 -2
138 -2 137 138 -2 137 -2 -132 -3z"/>
<path fill="#ffffff" stroke="none" d="M220 225 c-7 -8 -14 -15 -15 -15 -2 0
-5 7 -9 15 -4 10 1 15 16 15 17 0 18 -2 8 -15z"/>
<path fill="#ffffff" stroke="none" d="M157 213 c-15 -15 -15 -19 -2 -33 12
-14 13 -19 2 -35 -13 -16 -14 -16 -20 -1 -4 9 -2 16 4 16 6 0 7 5 4 10 -3 6
-16 10 -27 10 -20 0 -20 1 -5 18 10 10 14 22 10 25 -3 4 7 7 22 7 28 0 28 -1
12 -17z"/>
<path fill="#ffffff" stroke="none" d="M111 127 c-6 -8 -8 -16 -5 -20 3 -3 -4
-3 -15 0 -17 4 -19 8 -10 19 6 8 18 14 26 14 12 0 13 -3 4 -13z"/>
<path fill="#ffffff" stroke="none" d="M190 95 c0 -19 -5 -25 -21 -25 -19 0
-19 1 -5 16 9 8 16 20 16 25 0 5 2 9 5 9 3 0 5 -11 5 -25z"/>
</g>
</svg>
