<?xml version="1.0" standalone="no"?>
<!DOCTYPE svg PUBLIC "-//W3C//DTD SVG 20010904//EN"
 "http://www.w3.org/TR/2001/REC-SVG-20010904/DTD/svg10.dtd">
<svg version="1.0" xmlns="http://www.w3.org/2000/svg"
 width="32.000000pt" height="32.000000pt" viewBox="0 0 32.000000 32.000000"
 preserveAspectRatio="xMidYMid meet">
<metadata>
Created by potrace 1.16, written by Peter Selinger 2001-2019
</metadata>
<g transform="translate(0.000000,32.000000) scale(0.100000,-0.100000)"
fill="#000000" stroke="none">
<path fill="#000000" stroke="none" d="M20 160 l0 -140 140 0 140 0 0 140 0
140 -140 0 -140 0 0 -140z"/>
<path fill="#ffffff" stroke="none" d="M290 160 l0 -130 -130 0 -130 0 0 40
c0 43 6 46 75 31 27 -6 28 -8 11 -17 -15 -9 -10 -12 32 -18 71 -9 81 -3 71 42
-9 41 -3 58 16 42 18 -15 43 16 27 32 -9 9 -12 9 -12 -1 0 -7 -4 -9 -10 -6 -6
4 -5 13 3 25 9 16 9 23 -4 35 -13 13 -24 14 -60 6 -24 -6 -60 -11 -79 -11 -24
0 -31 -3 -21 -9 17 -11 6 -31 -17 -32 -9 -1 -4 -4 12 -8 17 -3 30 -10 29 -16
0 -9 -50 -43 -65 -44 -5 -1 -8 37 -8 84 l0 85 130 0 130 0 0 -130z"/>
</g>
</svg>
