<?xml version="1.0" standalone="no"?>
<!DOCTYPE svg PUBLIC "-//W3C//DTD SVG 20010904//EN"
 "http://www.w3.org/TR/2001/REC-SVG-20010904/DTD/svg10.dtd">
<svg version="1.0" xmlns="http://www.w3.org/2000/svg"
 width="32.000000pt" height="32.000000pt" viewBox="0 0 32.000000 32.000000"
 preserveAspectRatio="xMidYMid meet">
<metadata>
Created by potrace 1.16, written by Peter Selinger 2001-2019
</metadata>
<g transform="translate(0.000000,32.000000) scale(0.100000,-0.100000)"
fill="#000000" stroke="none">
<path fill="#000000" stroke="none" d="M0 160 l0 -160 160 0 160 0 0 160 0
160 -160 0 -160 0 0 -160z"/>
<path fill="#ffffff" stroke="none" d="M300 155 l0 -135 -135 0 -135 0 0 135
0 135 135 0 135 0 0 -135z"/>
<path fill="#000000" stroke="none" d="M127 228 c-3 -22 -12 -47 -21 -57 -23
-26 -20 -34 23 -54 73 -33 138 -13 68 21 -15 7 -27 17 -27 21 0 19 23 71 31
71 24 0 5 17 -30 26 l-39 11 -5 -39z"/>
<path fill="#000000" stroke="none" d="M90 73 c45 -21 95 -21 140 0 33 16 33
17 5 10 -38 -9 -112 -9 -150 0 -28 7 -28 6 5 -10z"/>
</g>
</svg>
