<?xml version="1.0" standalone="no"?>
<!DOCTYPE svg PUBLIC "-//W3C//DTD SVG 20010904//EN"
 "http://www.w3.org/TR/2001/REC-SVG-20010904/DTD/svg10.dtd">
<svg version="1.0" xmlns="http://www.w3.org/2000/svg"
 width="32.000000pt" height="32.000000pt" viewBox="0 0 32.000000 32.000000"
 preserveAspectRatio="xMidYMid meet">
<metadata>
Created by potrace 1.16, written by Peter Selinger 2001-2019
</metadata>
<g transform="translate(0.000000,32.000000) scale(0.100000,-0.100000)"
fill="#000000" stroke="none">
<path fill="#000000" stroke="none" d="M30 160 c0 -72 3 -131 8 -132 4 0 64
-2 133 -3 l125 -1 0 133 0 133 -133 0 -133 0 0 -130z"/>
<path fill="#ffffff" stroke="none" d="M186 254 c13 -3 24 -7 24 -8 0 -1 -9
-20 -20 -41 l-20 -40 30 -25 c39 -32 38 -40 -4 -40 -28 0 -52 8 -105 37 -2 1
6 22 18 46 11 24 21 54 21 66 0 17 4 22 16 17 9 -3 27 -9 40 -12z"/>
<path fill="#ffffff" stroke="none" d="M100 100 c-11 -7 -9 -11 13 -19 16 -6
36 -11 46 -11 27 0 81 21 81 31 0 4 7 6 15 3 27 -11 16 -23 -40 -40 -52 -17
-58 -17 -110 0 -68 21 -73 43 -10 45 16 1 17 -1 5 -9z"/>
<path fill="#ffffff" stroke="none" d="M90 55 c19 -7 28 -14 20 -14 -8 0 -28
6 -45 14 -39 17 -21 18 25 0z"/>
<path fill="#ffffff" stroke="none" d="M255 55 c-16 -8 -37 -14 -45 -14 -8 0
1 7 20 14 46 18 64 17 25 0z"/>
</g>
</svg>
