<?xml version="1.0" standalone="no"?>
<!DOCTYPE svg PUBLIC "-//W3C//DTD SVG 20010904//EN"
 "http://www.w3.org/TR/2001/REC-SVG-20010904/DTD/svg10.dtd">
<svg version="1.0" xmlns="http://www.w3.org/2000/svg"
 width="32.000000pt" height="32.000000pt" viewBox="0 0 32.000000 32.000000"
 preserveAspectRatio="xMidYMid meet">
<metadata>
Created by potrace 1.16, written by Peter Selinger 2001-2019
</metadata>
<g transform="translate(0.000000,32.000000) scale(0.100000,-0.100000)"
fill="#000000" stroke="none">
<path fill="#000000" stroke="none" d="M22 158 l2 -143 3 137 4 137 137 4 137
3 -142 2 -143 2 2 -142z"/>
<path fill="#000000" stroke="none" d="M100 258 c0 -7 20 -34 45 -59 39 -40
43 -48 30 -59 -12 -10 -13 -16 -4 -27 19 -23 -5 -41 -32 -25 -17 11 -20 11
-14 0 6 -10 5 -11 -6 -1 -10 10 -10 16 -1 25 7 7 12 17 12 22 0 6 -7 0 -16
-12 -19 -28 -11 -56 22 -70 40 -19 62 -14 100 21 34 32 35 32 17 57 -10 14
-16 36 -14 49 2 20 0 23 -11 14 -10 -9 -23 -1 -58 33 -45 44 -70 55 -70 32z"/>
<path fill="#ffffff" stroke="none" d="M254 101 c-2 -2 -11 2 -20 10 -9 8 -29
13 -43 12 l-26 -2 25 8 c17 5 32 2 47 -8 11 -9 19 -18 17 -20z"/>
</g>
</svg>
