<?xml version="1.0" standalone="no"?>
<!DOCTYPE svg PUBLIC "-//W3C//DTD SVG 20010904//EN"
 "http://www.w3.org/TR/2001/REC-SVG-20010904/DTD/svg10.dtd">
<svg version="1.0" xmlns="http://www.w3.org/2000/svg"
 width="32.000000pt" height="32.000000pt" viewBox="0 0 32.000000 32.000000"
 preserveAspectRatio="xMidYMid meet">
<metadata>
Created by potrace 1.16, written by Peter Selinger 2001-2019
</metadata>
<g transform="translate(0.000000,32.000000) scale(0.100000,-0.100000)"
fill="#000000" stroke="none">
<path fill="#000000" stroke="none" d="M22 158 l2 -143 3 137 4 137 137 4 137
3 -142 2 -143 2 2 -142z"/>
<path fill="#000000" stroke="none" d="M40 236 c0 -49 37 -106 70 -106 11 0
17 -7 16 -17 0 -10 6 -18 14 -18 8 0 14 6 12 14 -3 12 0 12 12 1 24 -19 20
-27 -21 -50 -37 -20 -38 -21 -8 -16 17 2 41 8 54 12 19 6 22 4 16 -7 -8 -12
-6 -12 8 0 9 7 17 25 17 40 0 21 -2 23 -11 11 -8 -11 -9 -7 -6 18 2 18 -1 36
-6 39 -6 3 -7 2 -4 -3 3 -6 2 -16 -4 -24 -5 -9 -9 -10 -9 -3 0 6 -3 18 -6 26
-9 24 26 14 48 -13 14 -17 19 -36 16 -62 -4 -41 16 -54 27 -18 8 26 -2 60 -28
88 -23 24 -17 28 16 10 20 -10 21 -10 8 5 -7 10 -20 17 -27 17 -8 0 -14 5 -14
10 0 13 6 13 33 -1 22 -10 22 -10 0 10 -29 24 -29 41 -1 33 15 -3 19 -2 14 7
-5 7 -20 10 -36 7 -38 -5 -52 -15 -44 -28 4 -7 2 -8 -4 -4 -20 12 -14 25 21
46 19 12 25 20 16 20 -9 0 -22 -6 -28 -14 -6 -7 -22 -11 -36 -8 -22 4 -25 1
-25 -22 0 -15 -4 -25 -9 -21 -6 3 -6 18 -1 36 7 22 6 29 -3 26 -7 -2 -12 -15
-12 -28 0 -14 -6 -24 -15 -24 -10 0 -14 9 -13 28 1 22 -2 27 -23 27 -22 0 -24
-4 -24 -44z"/>
<path fill="#ffffff" stroke="none" d="M230 230 c0 -5 -5 -10 -11 -10 -5 0 -7
5 -4 10 3 6 8 10 11 10 2 0 4 -4 4 -10z"/>
<path fill="#ffffff" stroke="none" d="M139 164 c3 -18 3 -18 -20 1 -12 11
-19 14 -15 7 7 -11 4 -11 -12 -1 -28 17 -18 29 16 20 15 -4 29 -16 31 -27z"/>
<path fill="#000000" stroke="none" d="M40 83 c0 -7 6 -13 14 -13 7 0 28 -3
46 -6 27 -6 31 -4 29 11 -3 13 -14 18 -47 19 -27 1 -42 -3 -42 -11z"/>
</g>
</svg>
