<?xml version="1.0" standalone="no"?>
<!DOCTYPE svg PUBLIC "-//W3C//DTD SVG 20010904//EN"
 "http://www.w3.org/TR/2001/REC-SVG-20010904/DTD/svg10.dtd">
<svg version="1.0" xmlns="http://www.w3.org/2000/svg"
 width="32.000000pt" height="32.000000pt" viewBox="0 0 32.000000 32.000000"
 preserveAspectRatio="xMidYMid meet">
<metadata>
Created by potrace 1.16, written by Peter Selinger 2001-2019
</metadata>
<g transform="translate(0.000000,32.000000) scale(0.100000,-0.100000)"
fill="#000000" stroke="none">
<path fill="#000000" stroke="none" d="M0 160 l0 -160 160 0 160 0 0 160 0
160 -160 0 -160 0 0 -160z"/>
<path fill="#ffffff" stroke="none" d="M168 293 l-137 -4 -4 -137 -3 -137 -2
143 -2 142 143 -2 142 -2 -137 -3z"/>
<path fill="#ffffff" stroke="none" d="M84 268 c-3 -5 -9 -6 -13 -3 -5 2 -8
-3 -8 -13 0 -53 -18 -60 -21 -7 -2 31 0 35 22 33 13 -1 22 -6 20 -10z"/>
<path fill="#ffffff" stroke="none" d="M126 248 c-1 -17 4 -33 11 -35 7 -3 10
3 6 15 -6 23 14 39 30 23 7 -7 7 -18 -1 -36 -11 -23 -10 -24 8 -15 11 6 29 14
39 20 14 6 21 6 24 -3 2 -7 -11 -16 -32 -22 -21 -6 -36 -17 -35 -25 2 -31 17
-70 27 -70 6 0 7 -3 4 -7 -4 -3 0 -11 9 -18 14 -10 14 -12 -1 -25 -9 -7 -15
-9 -14 -4 4 22 -3 24 -31 9 -16 -8 -35 -15 -42 -14 -9 0 -8 2 2 6 8 3 25 14
37 23 20 16 21 19 8 36 -15 19 -15 19 -30 0 -8 -11 -15 -26 -15 -33 0 -7 -9
-13 -20 -13 -11 0 -20 5 -20 11 0 6 -8 8 -19 4 -11 -3 -22 -1 -26 4 -4 7 5 9
25 7 22 -2 35 2 48 18 9 12 26 26 37 31 18 7 18 9 3 12 -10 3 -18 9 -18 14 0
6 5 7 12 3 6 -4 0 8 -13 27 -21 28 -28 55 -20 84 4 15 7 1 7 -27z"/>
<path fill="#ffffff" stroke="none" d="M230 270 c-8 -5 -19 -10 -25 -10 -5 0
-3 5 5 10 8 5 20 10 25 10 6 0 3 -5 -5 -10z"/>
<path fill="#ffffff" stroke="none" d="M103 212 c16 -17 16 -19 -3 -18 -26 1
-27 -17 -1 -30 32 -16 34 -21 9 -20 -30 2 -45 12 -59 39 -7 12 -8 19 -4 15 9
-8 35 14 28 25 -9 15 14 6 30 -11z"/>
<path fill="#ffffff" stroke="none" d="M274 105 c5 -14 -8 -65 -18 -65 -2 0
-4 18 -4 40 -1 40 11 53 22 25z"/>
<path fill="#000000" stroke="none" d="M109 83 c-13 -16 -12 -17 4 -4 9 7 17
15 17 17 0 8 -8 3 -21 -13z"/>
<path fill="#000000" stroke="none" d="M60 176 c0 -2 8 -10 18 -17 15 -13 16
-12 3 4 -13 16 -21 21 -21 13z"/>
</g>
</svg>
