<?xml version="1.0" standalone="no"?>
<!DOCTYPE svg PUBLIC "-//W3C//DTD SVG 20010904//EN"
 "http://www.w3.org/TR/2001/REC-SVG-20010904/DTD/svg10.dtd">
<svg version="1.0" xmlns="http://www.w3.org/2000/svg"
 width="32.000000pt" height="32.000000pt" viewBox="0 0 32.000000 32.000000"
 preserveAspectRatio="xMidYMid meet">
<metadata>
Created by potrace 1.16, written by Peter Selinger 2001-2019
</metadata>
<g transform="translate(0.000000,32.000000) scale(0.100000,-0.100000)"
fill="#000000" stroke="none">
<path fill="#000000" stroke="none" d="M22 158 l2 -143 3 137 4 137 137 4 137
3 -142 2 -143 2 2 -142z"/>
<path fill="#000000" stroke="none" d="M42 245 c3 -53 21 -46 21 7 0 10 3 15
8 13 4 -3 10 -2 13 3 2 4 -7 9 -20 10 -22 2 -24 -2 -22 -33z"/>
<path fill="#000000" stroke="none" d="M119 275 c-8 -29 -1 -56 20 -84 13 -19
19 -31 13 -27 -7 4 -12 3 -12 -3 0 -5 8 -11 18 -14 15 -3 15 -5 -3 -12 -11 -5
-28 -19 -37 -31 -13 -16 -26 -20 -48 -18 -20 2 -29 0 -25 -7 4 -5 15 -7 26 -4
11 4 19 2 19 -4 0 -6 9 -11 20 -11 11 0 20 6 20 13 0 7 7 22 15 33 15 19 15
19 30 0 13 -17 12 -20 -8 -36 -12 -9 -29 -20 -37 -23 -10 -4 -11 -6 -2 -6 7
-1 26 6 42 14 28 15 35 13 31 -9 -1 -5 5 -3 14 4 15 13 15 15 1 25 -9 7 -13
15 -9 18 3 4 2 7 -4 7 -10 0 -25 39 -27 70 -1 8 14 19 35 25 21 6 34 15 32 22
-3 9 -10 9 -24 3 -10 -6 -28 -14 -39 -20 -18 -9 -19 -8 -8 15 8 18 8 29 1 36
-16 16 -36 0 -30 -23 4 -12 1 -18 -6 -15 -7 2 -12 18 -11 35 0 28 -3 42 -7 27z"/>
<path fill="#ffffff" stroke="none" d="M130 96 c0 -2 -8 -10 -17 -17 -16 -13
-17 -12 -4 4 13 16 21 21 21 13z"/>
<path fill="#000000" stroke="none" d="M210 270 c-8 -5 -10 -10 -5 -10 6 0 17
5 25 10 8 5 11 10 5 10 -5 0 -17 -5 -25 -10z"/>
<path fill="#000000" stroke="none" d="M73 223 c7 -11 -19 -33 -28 -25 -4 4
-3 -3 4 -15 14 -27 29 -37 59 -39 25 -1 23 4 -9 20 -26 13 -25 31 1 30 19 -1
19 1 3 18 -16 17 -39 26 -30 11z"/>
<path fill="#ffffff" stroke="none" d="M81 163 c13 -16 12 -17 -3 -4 -10 7
-18 15 -18 17 0 8 8 3 21 -13z"/>
<path fill="#000000" stroke="none" d="M252 80 c0 -22 2 -40 4 -40 10 0 23 51
18 65 -11 28 -23 15 -22 -25z"/>
</g>
</svg>
