<?xml version="1.0" standalone="no"?>
<!DOCTYPE svg PUBLIC "-//W3C//DTD SVG 20010904//EN"
 "http://www.w3.org/TR/2001/REC-SVG-20010904/DTD/svg10.dtd">
<svg version="1.0" xmlns="http://www.w3.org/2000/svg"
 width="32.000000pt" height="32.000000pt" viewBox="0 0 32.000000 32.000000"
 preserveAspectRatio="xMidYMid meet">
<metadata>
Created by potrace 1.16, written by Peter Selinger 2001-2019
</metadata>
<g transform="translate(0.000000,32.000000) scale(0.100000,-0.100000)"
fill="#000000" stroke="none">
<path fill="#000000" stroke="none" d="M147 232 c-22 -21 -27 -23 -27 -9 0 9
-4 17 -10 17 -5 0 -10 -16 -10 -36 0 -29 -3 -34 -13 -25 -27 22 -27 -3 0 -31
21 -22 23 -28 10 -28 -9 0 -17 -4 -17 -10 0 -5 16 -10 36 -10 29 0 34 -3 25
-13 -22 -27 3 -27 31 0 22 21 28 23 28 10 0 -9 5 -17 10 -17 6 0 10 16 10 36
0 29 3 34 13 25 27 -22 27 3 0 31 -21 22 -23 28 -10 28 9 0 17 5 17 10 0 6
-16 10 -36 10 -30 0 -34 2 -25 14 22 27 -5 25 -32 -2z"/>
<path fill="#ffffff" stroke="none" d="M190 185 c26 -32 -13 -81 -47 -59 -23
14 -28 41 -13 59 16 19 44 19 60 0z"/>
<path fill="#000000" stroke="none" d="M144 169 c-10 -17 13 -36 27 -22 12 12
4 33 -11 33 -5 0 -12 -5 -16 -11z"/>
</g>
</svg>
