<?xml version="1.0" standalone="no"?>
<!DOCTYPE svg PUBLIC "-//W3C//DTD SVG 20010904//EN"
 "http://www.w3.org/TR/2001/REC-SVG-20010904/DTD/svg10.dtd">
<svg version="1.0" xmlns="http://www.w3.org/2000/svg"
 width="32.000000pt" height="32.000000pt" viewBox="0 0 32.000000 32.000000"
 preserveAspectRatio="xMidYMid meet">
<metadata>
Created by potrace 1.16, written by Peter Selinger 2001-2019
</metadata>
<g transform="translate(0.000000,32.000000) scale(0.100000,-0.100000)"
fill="#000000" stroke="none">
<path fill="#000000" stroke="none" d="M0 160 l0 -160 160 0 160 0 0 160 0
160 -160 0 -160 0 0 -160z"/>
<path fill="#ffffff" stroke="none" d="M268 263 c-31 -65 -44 -83 -61 -83 -10
0 -21 -9 -24 -20 -3 -11 -10 -20 -16 -20 -6 0 -33 -21 -59 -47 -26 -26 -51
-44 -55 -40 -4 4 14 29 40 55 26 26 47 53 47 59 0 6 9 13 20 16 11 3 20 13 20
24 0 10 16 27 38 39 40 23 56 29 50 17z"/>
<path fill="#000000" stroke="none" d="M209 213 c-13 -16 -12 -17 4 -4 9 7 17
15 17 17 0 8 -8 3 -21 -13z"/>
</g>
</svg>
