<?xml version="1.0" standalone="no"?>
<!DOCTYPE svg PUBLIC "-//W3C//DTD SVG 20010904//EN"
 "http://www.w3.org/TR/2001/REC-SVG-20010904/DTD/svg10.dtd">
<svg version="1.0" xmlns="http://www.w3.org/2000/svg"
 width="32.000000pt" height="32.000000pt" viewBox="0 0 32.000000 32.000000"
 preserveAspectRatio="xMidYMid meet">
<metadata>
Created by potrace 1.16, written by Peter Selinger 2001-2019
</metadata>
<g transform="translate(0.000000,32.000000) scale(0.100000,-0.100000)"
fill="#000000" stroke="none">
<path fill="#000000" stroke="none" d="M0 160 l0 -160 160 0 160 0 0 160 0
160 -160 0 -160 0 0 -160z"/>
<path fill="#ffffff" stroke="none" d="M176 223 l22 -26 17 26 c18 28 47 45
39 22 -3 -8 -17 -21 -31 -30 l-26 -17 26 -22 c19 -16 26 -34 30 -73 4 -29 4
-53 2 -53 -2 0 -26 23 -52 51 l-48 51 -35 -41 c-20 -23 -39 -38 -43 -34 -4 4
11 23 34 43 l41 35 -51 48 c-28 26 -51 50 -51 52 0 2 24 2 53 -2 39 -4 57 -11
73 -30z"/>
<path fill="#000000" stroke="none" d="M155 161 c44 -45 81 -81 83 -81 12 0
-13 68 -30 83 -17 14 -23 15 -37 5 -14 -11 -14 -11 -3 3 17 23 -12 55 -58 64
-35 7 -34 6 45 -74z"/>
</g>
</svg>
