<?xml version="1.0" standalone="no"?>
<!DOCTYPE svg PUBLIC "-//W3C//DTD SVG 20010904//EN"
 "http://www.w3.org/TR/2001/REC-SVG-20010904/DTD/svg10.dtd">
<svg version="1.0" xmlns="http://www.w3.org/2000/svg"
 width="32.000000pt" height="32.000000pt" viewBox="0 0 32.000000 32.000000"
 preserveAspectRatio="xMidYMid meet">
<metadata>
Created by potrace 1.16, written by Peter Selinger 2001-2019
</metadata>
<g transform="translate(0.000000,32.000000) scale(0.100000,-0.100000)"
fill="#000000" stroke="none">
<path fill="#000000" stroke="none" d="M0 160 l0 -160 160 0 160 0 0 160 0
160 -160 0 -160 0 0 -160z"/>
<path fill="#ffffff" stroke="none" d="M247 234 c3 -8 1 -20 -6 -27 -6 -6 -11
-29 -11 -51 l0 -40 -30 29 -30 29 0 -39 0 -39 -35 34 c-30 29 -35 31 -35 14 0
-11 5 -25 11 -31 15 -15 4 -43 -16 -43 -20 0 -31 28 -16 43 6 6 11 29 11 51
l0 40 30 -29 30 -29 0 39 0 39 35 -34 c30 -29 35 -31 35 -14 0 11 -5 25 -11
31 -15 15 -4 43 16 43 9 0 18 -7 22 -16z"/>
</g>
</svg>
