<?xml version="1.0" standalone="no"?>
<!DOCTYPE svg PUBLIC "-//W3C//DTD SVG 20010904//EN"
 "http://www.w3.org/TR/2001/REC-SVG-20010904/DTD/svg10.dtd">
<svg version="1.0" xmlns="http://www.w3.org/2000/svg"
 width="32.000000pt" height="32.000000pt" viewBox="0 0 32.000000 32.000000"
 preserveAspectRatio="xMidYMid meet">
<metadata>
Created by potrace 1.16, written by Peter Selinger 2001-2019
</metadata>
<g transform="translate(0.000000,32.000000) scale(0.100000,-0.100000)"
fill="#000000" stroke="none">
<path fill="#000000" stroke="none" d="M0 160 l0 -160 160 0 160 0 0 160 0
160 -160 0 -160 0 0 -160z"/>
<path fill="#ffffff" stroke="none" d="M177 253 c-3 -10 -5 -4 -5 12 0 17 2
24 5 18 2 -7 2 -21 0 -30z"/>
<path fill="#ffffff" stroke="none" d="M127 248 c-3 -8 -6 -5 -6 6 -1 11 2 17
5 13 3 -3 4 -12 1 -19z"/>
<path fill="#ffffff" stroke="none" d="M227 240 l2 -25 -8 25 c-5 14 -9 19
-10 13 -1 -19 -18 -16 -18 2 0 26 32 12 34 -15z"/>
<path fill="#ffffff" stroke="none" d="M110 240 c0 -15 -7 -20 -26 -20 -27 0
-29 21 -3 28 11 3 11 2 -1 -7 -13 -9 -13 -11 3 -11 9 0 17 7 17 15 0 8 2 15 5
15 3 0 5 -9 5 -20z"/>
<path fill="#ffffff" stroke="none" d="M256 231 c-3 -5 1 -11 9 -15 21 -8 19
-26 -2 -26 -15 0 -16 2 -3 10 13 8 12 10 -2 10 -10 0 -18 7 -18 15 0 8 5 15
11 15 5 0 8 -4 5 -9z"/>
<path fill="#ffffff" stroke="none" d="M83 203 c-7 -2 -21 -2 -30 0 -10 3 -4
5 12 5 17 0 24 -2 18 -5z"/>
<path fill="#ffffff" stroke="none" d="M60 180 c-13 -9 -13 -11 0 -20 17 -11
1 -14 -24 -4 -12 5 -13 9 -3 20 7 7 19 13 27 13 13 1 13 0 0 -9z"/>
<path fill="#ffffff" stroke="none" d="M300 169 c0 -5 -4 -7 -10 -4 -5 3 -10
0 -10 -9 0 -8 6 -17 13 -19 6 -3 3 -6 -8 -6 -15 -1 -20 5 -20 24 0 17 6 25 18
25 9 0 17 -5 17 -11z"/>
<path fill="#ffffff" stroke="none" d="M54 125 c-4 -8 -8 -15 -10 -15 -2 0 -4
7 -4 15 0 8 4 15 10 15 5 0 7 -7 4 -15z"/>
<path fill="#ffffff" stroke="none" d="M280 105 c0 -8 -8 -15 -17 -14 -11 0
-13 3 -5 6 6 2 10 9 6 14 -3 5 0 9 5 9 6 0 11 -7 11 -15z"/>
<path fill="#ffffff" stroke="none" d="M77 94 c-3 -3 -12 -4 -19 -1 -8 3 -5 6
6 6 11 1 17 -2 13 -5z"/>
<path fill="#ffffff" stroke="none" d="M80 63 c0 -10 -4 -14 -8 -8 -4 6 -11
13 -16 18 -5 4 -2 7 7 7 10 0 17 -8 17 -17z"/>
<path fill="#ffffff" stroke="none" d="M97 48 c-3 -7 -5 -2 -5 12 0 14 2 19 5
13 2 -7 2 -19 0 -25z"/>
<path fill="#ffffff" stroke="none" d="M263 73 c-7 -2 -19 -2 -25 0 -7 3 -2 5
12 5 14 0 19 -2 13 -5z"/>
<path fill="#ffffff" stroke="none" d="M154 42 c21 4 26 1 26 -16 0 -15 -3
-17 -9 -8 -4 7 -12 12 -17 11 -26 -5 -44 3 -44 19 0 13 2 14 9 3 5 -8 19 -12
35 -9z"/>
<path fill="#ffffff" stroke="none" d="M243 53 c-7 -2 -19 -2 -25 0 -7 3 -2 5
12 5 14 0 19 -2 13 -5z"/>
<path fill="#ffffff" stroke="none" d="M220 34 c0 -2 -7 -4 -15 -4 -8 0 -15 4
-15 10 0 5 7 7 15 4 8 -4 15 -8 15 -10z"/>
</g>
</svg>
