<?xml version="1.0" standalone="no"?>
<!DOCTYPE svg PUBLIC "-//W3C//DTD SVG 20010904//EN"
 "http://www.w3.org/TR/2001/REC-SVG-20010904/DTD/svg10.dtd">
<svg version="1.0" xmlns="http://www.w3.org/2000/svg"
 width="32.000000pt" height="32.000000pt" viewBox="0 0 32.000000 32.000000"
 preserveAspectRatio="xMidYMid meet">
<metadata>
Created by potrace 1.16, written by Peter Selinger 2001-2019
</metadata>
<g transform="translate(0.000000,32.000000) scale(0.100000,-0.100000)"
fill="#000000" stroke="none">
<path fill="#000000" stroke="none" d="M172 265 c0 -16 2 -22 5 -12 2 9 2 23
0 30 -3 6 -5 -1 -5 -18z"/>
<path fill="#000000" stroke="none" d="M121 254 c0 -11 3 -14 6 -6 3 7 2 16
-1 19 -3 4 -6 -2 -5 -13z"/>
<path fill="#000000" stroke="none" d="M193 255 c0 -18 17 -21 18 -2 1 6 5 1
10 -13 l8 -25 -2 25 c-2 27 -34 41 -34 15z"/>
<path fill="#000000" stroke="none" d="M100 245 c0 -8 -8 -15 -17 -15 -16 0
-16 2 -3 11 12 9 12 10 1 7 -26 -7 -24 -28 3 -28 19 0 26 5 26 20 0 11 -2 20
-5 20 -3 0 -5 -7 -5 -15z"/>
<path fill="#000000" stroke="none" d="M240 225 c0 -8 8 -15 18 -15 14 0 15
-2 2 -10 -13 -8 -12 -10 3 -10 21 0 23 18 2 26 -8 4 -12 10 -9 15 3 5 0 9 -5
9 -6 0 -11 -7 -11 -15z"/>
<path fill="#000000" stroke="none" d="M53 203 c9 -2 23 -2 30 0 6 3 -1 5 -18
5 -16 0 -22 -2 -12 -5z"/>
<path fill="#000000" stroke="none" d="M33 176 c-10 -11 -9 -15 3 -20 25 -10
41 -7 24 4 -13 9 -13 11 0 20 13 9 13 10 0 9 -8 0 -20 -6 -27 -13z"/>
<path fill="#000000" stroke="none" d="M265 155 c0 -19 5 -25 20 -24 11 0 14
3 8 6 -7 2 -13 11 -13 19 0 9 5 12 10 9 6 -3 10 -1 10 4 0 6 -8 11 -17 11 -12
0 -18 -8 -18 -25z"/>
<path fill="#000000" stroke="none" d="M40 125 c0 -8 2 -15 4 -15 2 0 6 7 10
15 3 8 1 15 -4 15 -6 0 -10 -7 -10 -15z"/>
<path fill="#000000" stroke="none" d="M264 111 c4 -5 0 -12 -6 -14 -8 -3 -6
-6 5 -6 9 -1 17 6 17 14 0 8 -5 15 -11 15 -5 0 -8 -4 -5 -9z"/>
<path fill="#000000" stroke="none" d="M58 93 c7 -3 16 -2 19 1 4 3 -2 6 -13
5 -11 0 -14 -3 -6 -6z"/>
<path fill="#000000" stroke="none" d="M56 73 c5 -5 12 -12 16 -18 4 -6 8 -2
8 8 0 9 -7 17 -17 17 -9 0 -12 -3 -7 -7z"/>
<path fill="#000000" stroke="none" d="M92 60 c0 -14 2 -19 5 -12 2 6 2 18 0
25 -3 6 -5 1 -5 -13z"/>
<path fill="#000000" stroke="none" d="M238 73 c6 -2 18 -2 25 0 6 3 1 5 -13
5 -14 0 -19 -2 -12 -5z"/>
<path fill="#000000" stroke="none" d="M110 48 c0 -16 18 -24 44 -19 5 1 13
-4 17 -11 6 -9 9 -7 9 8 0 17 -5 20 -26 16 -16 -3 -30 1 -35 9 -7 11 -9 10 -9
-3z"/>
<path fill="#000000" stroke="none" d="M218 53 c6 -2 18 -2 25 0 6 3 1 5 -13
5 -14 0 -19 -2 -12 -5z"/>
<path fill="#000000" stroke="none" d="M190 40 c0 -6 7 -10 15 -10 8 0 15 2
15 4 0 2 -7 6 -15 10 -8 3 -15 1 -15 -4z"/>
</g>
</svg>
