<?xml version="1.0" standalone="no"?>
<!DOCTYPE svg PUBLIC "-//W3C//DTD SVG 20010904//EN"
 "http://www.w3.org/TR/2001/REC-SVG-20010904/DTD/svg10.dtd">
<svg version="1.0" xmlns="http://www.w3.org/2000/svg"
 width="32.000000pt" height="32.000000pt" viewBox="0 0 32.000000 32.000000"
 preserveAspectRatio="xMidYMid meet">
<metadata>
Created by potrace 1.16, written by Peter Selinger 2001-2019
</metadata>
<g transform="translate(0.000000,32.000000) scale(0.100000,-0.100000)"
fill="#000000" stroke="none">
<path fill="#000000" stroke="none" d="M71 285 c-32 -37 -37 -50 -22 -59 5 -3
12 -21 15 -39 3 -18 17 -49 31 -67 14 -19 25 -41 25 -50 0 -9 10 -26 23 -38
l23 -22 34 41 c31 40 32 42 20 80 -13 38 -12 41 15 69 l29 30 -24 25 c-12 13
-39 30 -59 36 -20 6 -40 15 -45 20 -18 16 -33 10 -65 -26z"/>
<path fill="#ffffff" stroke="none" d="M144 297 c14 -8 23 -17 20 -20 -3 -3 3
-3 14 -1 12 4 30 -4 48 -19 l29 -25 -29 -31 c-28 -29 -29 -32 -16 -70 12 -37
11 -41 -16 -75 -27 -33 -29 -34 -47 -18 -10 9 -14 18 -8 20 6 2 -5 24 -24 49
-19 25 -37 61 -41 79 -3 19 -10 37 -15 40 -14 9 -11 21 17 53 29 35 32 36 68
18z"/>
<path fill="#000000" stroke="none" d="M195 230 c-3 -5 -1 -10 4 -10 6 0 11 5
11 10 0 6 -2 10 -4 10 -3 0 -8 -4 -11 -10z"/>
<path fill="#000000" stroke="none" d="M220 230 c0 -5 5 -10 11 -10 5 0 7 5 4
10 -3 6 -8 10 -11 10 -2 0 -4 -4 -4 -10z"/>
<path fill="#000000" stroke="none" d="M102 208 c6 -18 28 -21 28 -4 0 9 -7
16 -16 16 -9 0 -14 -5 -12 -12z"/>
<path fill="#000000" stroke="none" d="M140 204 c0 -17 22 -14 28 4 2 7 -3 12
-12 12 -9 0 -16 -7 -16 -16z"/>
<path fill="#000000" stroke="none" d="M165 70 c-3 -5 -1 -10 4 -10 6 0 11 5
11 10 0 6 -2 10 -4 10 -3 0 -8 -4 -11 -10z"/>
</g>
</svg>
