<?xml version="1.0" standalone="no"?>
<!DOCTYPE svg PUBLIC "-//W3C//DTD SVG 20010904//EN"
 "http://www.w3.org/TR/2001/REC-SVG-20010904/DTD/svg10.dtd">
<svg version="1.0" xmlns="http://www.w3.org/2000/svg"
 width="32.000000pt" height="32.000000pt" viewBox="0 0 32.000000 32.000000"
 preserveAspectRatio="xMidYMid meet">
<metadata>
Created by potrace 1.16, written by Peter Selinger 2001-2019
</metadata>
<g transform="translate(0.000000,32.000000) scale(0.100000,-0.100000)"
fill="#000000" stroke="none">
<path fill="#000000" stroke="none" d="M0 160 l0 -160 160 0 160 0 0 160 0
160 -160 0 -160 0 0 -160z"/>
<path fill="#ffffff" stroke="none" d="M118 285 c7 -14 18 -28 26 -31 8 -3 12
-12 9 -20 -4 -11 -8 -10 -22 4 -9 10 -12 12 -7 5 5 -8 6 -16 3 -19 -10 -11
-42 -11 -55 -1 -10 8 -14 5 -19 -12 -5 -20 -6 -20 -18 -4 -12 16 -12 14 -8
-11 4 -20 2 -27 -6 -22 -17 11 -13 37 9 74 12 20 25 30 32 26 6 -4 8 -3 4 4
-3 6 2 15 11 21 26 15 28 14 41 -14z"/>
<path fill="#000000" stroke="none" d="M81 272 c-7 -14 -6 -19 4 -19 7 0 11 7
7 15 -4 11 -1 13 8 7 9 -5 11 -4 6 3 -10 16 -14 15 -25 -6z"/>
<path fill="#000000" stroke="none" d="M39 243 c-13 -16 -12 -17 4 -4 16 13
21 21 13 21 -2 0 -10 -8 -17 -17z"/>
</g>
</svg>
