<?xml version="1.0" standalone="no"?>
<!DOCTYPE svg PUBLIC "-//W3C//DTD SVG 20010904//EN"
 "http://www.w3.org/TR/2001/REC-SVG-20010904/DTD/svg10.dtd">
<svg version="1.0" xmlns="http://www.w3.org/2000/svg"
 width="32.000000pt" height="32.000000pt" viewBox="0 0 32.000000 32.000000"
 preserveAspectRatio="xMidYMid meet">
<metadata>
Created by potrace 1.16, written by Peter Selinger 2001-2019
</metadata>
<g transform="translate(0.000000,32.000000) scale(0.100000,-0.100000)"
fill="#000000" stroke="none">
<path fill="#000000" stroke="none" d="M0 160 l0 -160 160 0 160 0 0 160 0
160 -160 0 -160 0 0 -160z"/>
<path fill="#ffffff" stroke="none" d="M105 289 c-4 -13 -1 -27 10 -39 9 -10
15 -29 13 -42 -3 -21 -8 -23 -53 -23 -45 0 -50 2 -53 23 -2 13 4 32 13 42 11
12 14 26 10 39 -6 19 -2 21 30 21 32 0 36 -2 30 -21z"/>
<path fill="#000000" stroke="none" d="M62 260 c-11 -18 -9 -20 14 -20 24 0
25 2 13 18 -7 9 -14 18 -14 19 0 1 -6 -7 -13 -17z"/>
</g>
</svg>
