<?xml version="1.0" standalone="no"?>
<!DOCTYPE svg PUBLIC "-//W3C//DTD SVG 20010904//EN"
 "http://www.w3.org/TR/2001/REC-SVG-20010904/DTD/svg10.dtd">
<svg version="1.0" xmlns="http://www.w3.org/2000/svg"
 width="32.000000pt" height="32.000000pt" viewBox="0 0 32.000000 32.000000"
 preserveAspectRatio="xMidYMid meet">
<metadata>
Created by potrace 1.16, written by Peter Selinger 2001-2019
</metadata>
<g transform="translate(0.000000,32.000000) scale(0.100000,-0.100000)"
fill="#000000" stroke="none">
<path fill="#000000" stroke="none" d="M200 139 c0 -5 5 -7 10 -4 6 3 10 8 10
11 0 2 -4 4 -10 4 -5 0 -10 -5 -10 -11z"/>
<path fill="#000000" stroke="none" d="M278 138 c9 -9 15 -9 24 0 9 9 7 12
-12 12 -19 0 -21 -3 -12 -12z"/>
<path fill="#000000" stroke="none" d="M170 65 c0 -19 5 -35 10 -35 6 0 10 16
10 35 0 19 -4 35 -10 35 -5 0 -10 -16 -10 -35z"/>
<path fill="#000000" stroke="none" d="M193 18 c-2 -5 22 -8 53 -8 32 0 54 3
51 6 -9 9 -98 10 -104 2z"/>
</g>
</svg>
