<?xml version="1.0" standalone="no"?>
<!DOCTYPE svg PUBLIC "-//W3C//DTD SVG 20010904//EN"
 "http://www.w3.org/TR/2001/REC-SVG-20010904/DTD/svg10.dtd">
<svg version="1.0" xmlns="http://www.w3.org/2000/svg"
 width="32.000000pt" height="32.000000pt" viewBox="0 0 32.000000 32.000000"
 preserveAspectRatio="xMidYMid meet">
<metadata>
Created by potrace 1.16, written by Peter Selinger 2001-2019
</metadata>
<g transform="translate(0.000000,32.000000) scale(0.100000,-0.100000)"
fill="#000000" stroke="none">
<path fill="#000000" stroke="none" d="M195 98 c-4 -24 -9 -49 -11 -56 -3 -18
9 -15 34 8 22 20 31 47 13 35 -5 -3 -12 -1 -16 4 -3 6 3 8 15 6 13 -2 24 4 32
18 9 18 9 20 -3 11 -19 -14 -38 -12 -48 4 -5 9 -11 -1 -16 -30z"/>
<path fill="#000000" stroke="none" d="M281 84 c4 -20 -2 -26 -15 -15 -9 8
-16 8 -20 2 -4 -5 -2 -13 4 -16 8 -5 8 -11 0 -20 -7 -8 -7 -15 -1 -19 5 -4 13
-2 16 4 5 8 11 8 20 0 8 -7 15 -7 19 -1 4 5 2 13 -4 16 -8 5 -8 11 0 20 7 9 6
16 -5 25 -9 8 -15 9 -14 4z"/>
</g>
</svg>
