<?xml version="1.0" standalone="no"?>
<!DOCTYPE svg PUBLIC "-//W3C//DTD SVG 20010904//EN"
 "http://www.w3.org/TR/2001/REC-SVG-20010904/DTD/svg10.dtd">
<svg version="1.0" xmlns="http://www.w3.org/2000/svg"
 width="15.000000pt" height="15.000000pt" viewBox="0 0 15.000000 15.000000"
 preserveAspectRatio="xMidYMid meet">
<metadata>
Created by potrace 1.16, written by Peter Selinger 2001-2019
</metadata>
<g transform="translate(0.000000,15.000000) scale(0.100000,-0.100000)"
fill="#000000" stroke="none">
<path fill="#000000" stroke="none" d="M0 75 l0 -75 75 0 75 0 0 75 0 75 -75
0 -75 0 0 -75z"/>
<path fill="#ffffff" stroke="none" d="M40 136 c0 -2 -7 -6 -15 -10 -8 -3 -15
-1 -15 4 0 6 7 10 15 10 8 0 15 -2 15 -4z"/>
<path fill="#ffffff" stroke="none" d="M82 108 c-17 -17 -15 -26 9 -30 20 -3
19 -4 -8 -28 -15 -14 -22 -18 -15 -10 18 21 15 30 -10 30 l-21 0 23 25 c13 14
26 25 29 25 3 0 0 -5 -7 -12z"/>
</g>
</svg>
