<?xml version="1.0" standalone="no"?>
<!DOCTYPE svg PUBLIC "-//W3C//DTD SVG 20010904//EN"
 "http://www.w3.org/TR/2001/REC-SVG-20010904/DTD/svg10.dtd">
<svg version="1.0" xmlns="http://www.w3.org/2000/svg"
 width="32.000000pt" height="32.000000pt" viewBox="0 0 32.000000 32.000000"
 preserveAspectRatio="xMidYMid meet">
<metadata>
Created by potrace 1.16, written by Peter Selinger 2001-2019
</metadata>
<g transform="translate(0.000000,32.000000) scale(0.100000,-0.100000)"
fill="#000000" stroke="none">
<path fill="#000000" stroke="none" d="M255 110 c-22 -23 -32 -27 -42 -19 -19
16 -16 32 5 24 13 -5 14 -3 5 6 -6 6 -16 8 -22 5 -15 -10 -14 -36 3 -42 8 -3
12 -13 9 -25 -6 -20 20 -28 32 -9 4 7 13 7 26 0 23 -13 26 -35 3 -26 -8 3 -12
2 -9 -4 9 -15 35 -12 41 5 8 21 -15 47 -35 40 -10 -4 -8 2 7 18 22 23 30 57
14 57 -5 0 -21 -13 -37 -30z"/>
<path fill="#ffffff" stroke="none" d="M260 87 c0 -2 -10 -12 -22 -23 l-23
-19 19 23 c18 21 26 27 26 19z"/>
</g>
</svg>
