<?xml version="1.0" standalone="no"?>
<!DOCTYPE svg PUBLIC "-//W3C//DTD SVG 20010904//EN"
 "http://www.w3.org/TR/2001/REC-SVG-20010904/DTD/svg10.dtd">
<svg version="1.0" xmlns="http://www.w3.org/2000/svg"
 width="32.000000pt" height="32.000000pt" viewBox="0 0 32.000000 32.000000"
 preserveAspectRatio="xMidYMid meet">
<metadata>
Created by potrace 1.16, written by Peter Selinger 2001-2019
</metadata>
<g transform="translate(0.000000,32.000000) scale(0.100000,-0.100000)"
fill="#000000" stroke="none">
<path fill="#000000" stroke="none" d="M0 160 l0 -160 160 0 160 0 0 160 0
160 -160 0 -160 0 0 -160z"/>
<path fill="#ffffff" stroke="none" d="M300 124 c0 -19 -76 -105 -84 -97 -3 3
-14 0 -23 -8 -16 -13 -17 -12 -4 4 8 9 11 20 9 23 -6 6 82 93 95 94 4 0 7 -7
7 -16z"/>
<path fill="#ffffff" stroke="none" d="M225 120 c3 -6 -1 -7 -9 -4 -19 7 -21
-7 -4 -24 9 -9 9 -12 1 -12 -16 0 -26 18 -19 35 6 17 22 20 31 5z"/>
<path fill="#ffffff" stroke="none" d="M300 55 c7 -8 10 -22 6 -30 -6 -17 -32
-20 -41 -5 -3 6 1 7 9 4 9 -3 16 -1 16 5 0 7 -7 14 -15 17 -8 4 -12 10 -9 15
8 13 20 11 34 -6z"/>
</g>
</svg>
