<?xml version="1.0" standalone="no"?>
<!DOCTYPE svg PUBLIC "-//W3C//DTD SVG 20010904//EN"
 "http://www.w3.org/TR/2001/REC-SVG-20010904/DTD/svg10.dtd">
<svg version="1.0" xmlns="http://www.w3.org/2000/svg"
 width="32.000000pt" height="32.000000pt" viewBox="0 0 32.000000 32.000000"
 preserveAspectRatio="xMidYMid meet">
<metadata>
Created by potrace 1.16, written by Peter Selinger 2001-2019
</metadata>
<g transform="translate(0.000000,32.000000) scale(0.100000,-0.100000)"
fill="#000000" stroke="none">
<path fill="#000000" stroke="none" d="M0 160 l0 -160 160 0 160 0 0 160 0
160 -160 0 -160 0 0 -160z"/>
<path fill="#ffffff" stroke="none" d="M300 100 c0 -4 -21 -20 -46 -34 -47
-26 -98 -34 -108 -17 -4 5 3 7 15 4 12 -4 32 3 49 16 16 11 33 21 38 21 5 0
15 7 22 15 12 15 30 12 30 -5z"/>
<path fill="#ffffff" stroke="none" d="M115 90 c3 -5 -4 -6 -15 -3 -11 3 -22
9 -25 13 -3 5 4 6 15 3 11 -3 22 -9 25 -13z"/>
</g>
</svg>
