<?xml version="1.0" standalone="no"?>
<!DOCTYPE svg PUBLIC "-//W3C//DTD SVG 20010904//EN"
 "http://www.w3.org/TR/2001/REC-SVG-20010904/DTD/svg10.dtd">
<svg version="1.0" xmlns="http://www.w3.org/2000/svg"
 width="32.000000pt" height="32.000000pt" viewBox="0 0 32.000000 32.000000"
 preserveAspectRatio="xMidYMid meet">
<metadata>
Created by potrace 1.16, written by Peter Selinger 2001-2019
</metadata>
<g transform="translate(0.000000,32.000000) scale(0.100000,-0.100000)"
fill="#000000" stroke="none">
<path fill="#000000" stroke="none" d="M160 156 c7 -7 13 -7 20 0 6 6 3 10
-10 10 -13 0 -16 -4 -10 -10z"/>
<path fill="#000000" stroke="none" d="M121 146 c-8 -9 -10 -16 -5 -17 5 0 21
-3 37 -5 28 -5 76 19 59 30 -6 3 -12 -1 -16 -9 -7 -20 -43 -19 -54 1 -8 14
-10 14 -21 0z"/>
<path fill="#000000" stroke="none" d="M219 103 c-13 -16 -12 -17 4 -4 9 7 17
15 17 17 0 8 -8 3 -21 -13z"/>
<path fill="#000000" stroke="none" d="M131 81 c-8 -5 -9 -11 -3 -15 5 -3 12
1 16 9 6 17 6 18 -13 6z"/>
<path fill="#000000" stroke="none" d="M197 75 c3 -8 9 -12 14 -9 12 7 11 11
-5 17 -10 4 -13 1 -9 -8z"/>
</g>
</svg>
