<?xml version="1.0" standalone="no"?>
<!DOCTYPE svg PUBLIC "-//W3C//DTD SVG 20010904//EN"
 "http://www.w3.org/TR/2001/REC-SVG-20010904/DTD/svg10.dtd">
<svg version="1.0" xmlns="http://www.w3.org/2000/svg"
 width="32.000000pt" height="32.000000pt" viewBox="0 0 32.000000 32.000000"
 preserveAspectRatio="xMidYMid meet">
<metadata>
Created by potrace 1.16, written by Peter Selinger 2001-2019
</metadata>
<g transform="translate(0.000000,32.000000) scale(0.100000,-0.100000)"
fill="#000000" stroke="none">
<path fill="#000000" stroke="none" d="M0 160 l0 -160 160 0 160 0 0 160 0
160 -160 0 -160 0 0 -160z"/>
<path fill="#ffffff" stroke="none" d="M160 271 c-22 -7 -21 -8 17 -14 23 -4
45 -12 49 -18 4 -8 -1 -9 -16 -4 -15 5 -20 4 -16 -4 4 -6 0 -11 -9 -11 -9 0
-13 5 -10 10 3 6 4 10 1 10 -2 0 -11 2 -19 5 -8 4 -14 0 -14 -10 0 -8 5 -15
10 -15 5 0 7 -9 4 -20 -4 -15 1 -22 20 -26 17 -5 21 -10 14 -17 -14 -14 -14
-27 0 -27 5 0 8 4 5 9 -4 5 -1 11 5 13 7 2 9 13 5 25 -4 14 -12 20 -22 16 -7
-3 -14 0 -14 5 0 12 39 7 53 -7 5 -5 3 -20 -6 -38 -9 -16 -15 -38 -14 -48 2
-17 -4 -20 -45 -20 -26 1 -53 7 -60 14 -11 11 -9 12 11 6 16 -5 21 -4 17 4 -4
6 0 11 9 11 9 0 13 -5 10 -10 -3 -5 -4 -10 -1 -10 2 0 11 -2 19 -5 8 -4 14 0
14 10 0 8 -5 15 -10 15 -5 0 -7 9 -4 20 4 15 -1 22 -20 26 -17 5 -21 10 -14
17 14 14 14 27 0 27 -5 0 -8 -4 -5 -9 4 -5 1 -11 -5 -13 -7 -2 -9 -13 -5 -25
4 -14 12 -20 22 -16 7 3 14 0 14 -5 0 -12 -39 -7 -53 7 -5 5 0 25 12 49 26 50
26 58 4 41 -10 -7 -7 -1 6 14 14 15 34 27 45 26 18 -1 17 -2 -4 -8z"/>
<path fill="#ffffff" stroke="none" d="M75 150 c-9 -16 -18 -30 -21 -30 -2 0
2 14 11 30 9 17 18 30 21 30 2 0 -2 -13 -11 -30z"/>
<path fill="#ffffff" stroke="none" d="M243 165 c-3 -9 -8 -14 -10 -11 -3 3
-2 9 2 15 9 16 15 13 8 -4z"/>
</g>
</svg>
