<?xml version="1.0" standalone="no"?>
<!DOCTYPE svg PUBLIC "-//W3C//DTD SVG 20010904//EN"
 "http://www.w3.org/TR/2001/REC-SVG-20010904/DTD/svg10.dtd">
<svg version="1.0" xmlns="http://www.w3.org/2000/svg"
 width="32.000000pt" height="32.000000pt" viewBox="0 0 32.000000 32.000000"
 preserveAspectRatio="xMidYMid meet">
<metadata>
Created by potrace 1.16, written by Peter Selinger 2001-2019
</metadata>
<g transform="translate(0.000000,32.000000) scale(0.100000,-0.100000)"
fill="#000000" stroke="none">
<path fill="#000000" stroke="none" d="M0 160 l0 -160 160 0 160 0 0 160 0
160 -160 0 -160 0 0 -160z"/>
<path fill="#ffffff" stroke="none" d="M235 266 c42 -13 43 -17 31 -81 -3 -11
-5 -24 -5 -28 -1 -5 -6 -5 -13 -1 -7 4 -8 3 -4 -4 4 -6 -7 -39 -24 -72 -30
-60 -32 -61 -63 -54 -67 14 -111 30 -114 40 -2 7 23 4 68 -8 56 -16 74 -17 83
-7 8 9 8 10 -1 5 -17 -9 -144 24 -150 39 -2 7 16 54 42 105 51 102 41 98 150
66z"/>
<path fill="#000000" stroke="none" d="M197 254 c31 -13 53 -34 36 -34 -5 0
-9 -13 -8 -30 0 -37 16 -22 21 20 3 27 0 33 -31 46 -19 8 -38 14 -42 13 -4 0
6 -7 24 -15z"/>
<path fill="#000000" stroke="none" d="M105 208 c-11 -23 -12 -28 -2 -16 10
13 16 15 25 6 9 -9 12 -9 12 0 0 7 -5 12 -11 12 -6 0 -9 7 -5 15 10 28 -3 15
-19 -17z"/>
<path fill="#000000" stroke="none" d="M150 230 c-13 -8 -13 -10 2 -10 9 0 20
5 23 10 8 13 -5 13 -25 0z"/>
<path fill="#000000" stroke="none" d="M156 191 c-4 -6 4 -13 19 -17 21 -5 23
-9 14 -20 -7 -8 -9 -17 -5 -21 3 -3 6 -1 6 6 0 7 7 11 14 8 12 -5 13 -1 6 16
-4 12 -14 21 -21 19 -7 -2 -15 2 -19 9 -5 8 -9 8 -14 0z"/>
<path fill="#000000" stroke="none" d="M118 158 c9 -9 15 -9 24 0 9 9 7 12
-12 12 -19 0 -21 -3 -12 -12z"/>
<path fill="#000000" stroke="none" d="M74 135 c-4 -8 -3 -22 0 -32 6 -15 8
-14 20 3 14 19 11 44 -5 44 -5 0 -12 -7 -15 -15z"/>
<path fill="#000000" stroke="none" d="M131 127 c2 -1 11 -8 21 -15 12 -10 18
-10 24 -1 4 8 3 9 -4 5 -7 -4 -12 -2 -12 3 0 6 -7 11 -17 11 -9 0 -14 -1 -12
-3z"/>
<path fill="#000000" stroke="none" d="M195 109 c-4 -6 -5 -12 -2 -15 2 -3 7
2 10 11 7 17 1 20 -8 4z"/>
<path fill="#000000" stroke="none" d="M115 80 c27 -12 43 -12 25 0 -8 5 -22
9 -30 9 -10 0 -8 -3 5 -9z"/>
</g>
</svg>
