<?xml version="1.0" standalone="no"?>
<!DOCTYPE svg PUBLIC "-//W3C//DTD SVG 20010904//EN"
 "http://www.w3.org/TR/2001/REC-SVG-20010904/DTD/svg10.dtd">
<svg version="1.0" xmlns="http://www.w3.org/2000/svg"
 width="32.000000pt" height="32.000000pt" viewBox="0 0 32.000000 32.000000"
 preserveAspectRatio="xMidYMid meet">
<metadata>
Created by potrace 1.16, written by Peter Selinger 2001-2019
</metadata>
<g transform="translate(0.000000,32.000000) scale(0.100000,-0.100000)"
fill="#000000" stroke="none">
<path fill="#000000" stroke="none" d="M205 280 c-8 -9 -15 -24 -15 -32 0 -9
-7 -18 -15 -22 -8 -3 -15 -16 -15 -28 0 -15 -27 -49 -77 -100 -93 -94 -85
-103 47 -53 52 20 101 34 109 33 9 -2 22 3 28 12 11 13 13 12 19 -8 7 -23 7
-23 21 4 11 23 11 30 1 40 -14 14 -71 7 -62 -7 3 -5 0 -9 -7 -9 -6 0 -17 -6
-23 -14 -10 -13 -140 -66 -161 -66 -5 0 24 34 65 75 42 42 81 73 88 70 8 -3
19 8 27 28 11 26 15 29 20 15 4 -10 5 -24 2 -32 -8 -19 18 -42 29 -25 11 19
10 100 -1 116 -16 21 -62 23 -80 3z"/>
<path fill="#ffffff" stroke="none" d="M245 280 c18 15 50 -17 35 -35 -8 -10
-7 -14 2 -18 9 -4 8 -6 -2 -6 -9 -1 -21 4 -28 11 -9 9 -14 4 -23 -21 -7 -20
-14 -28 -19 -22 -7 12 -167 -144 -163 -158 1 -4 -5 -8 -13 -8 -8 0 19 35 60
76 52 52 76 84 77 101 0 14 3 19 6 13 7 -19 24 -16 21 4 -2 10 4 18 12 19 31
2 33 4 17 22 -10 10 -14 22 -10 26 4 4 9 2 11 -4 3 -8 8 -8 17 0z"/>
<path fill="#ffffff" stroke="none" d="M284 169 c-3 -5 -10 -7 -15 -3 -5 3 -7
10 -3 15 3 5 10 7 15 3 5 -3 7 -10 3 -15z"/>
</g>
</svg>
