<?xml version="1.0" standalone="no"?>
<!DOCTYPE svg PUBLIC "-//W3C//DTD SVG 20010904//EN"
 "http://www.w3.org/TR/2001/REC-SVG-20010904/DTD/svg10.dtd">
<svg version="1.0" xmlns="http://www.w3.org/2000/svg"
 width="8.000000pt" height="16.000000pt" viewBox="0 0 8.000000 16.000000"
 preserveAspectRatio="xMidYMid meet">
<metadata>
Created by potrace 1.16, written by Peter Selinger 2001-2019
</metadata>
<g transform="translate(0.000000,16.000000) scale(0.100000,-0.100000)"
fill="#000000" stroke="none">
<path fill="#000000" stroke="none" d="M0 146 c0 -9 8 -12 24 -9 13 3 27 0 31
-6 7 -13 -15 -71 -27 -71 -12 0 -10 18 4 40 16 25 4 37 -17 17 -9 -10 -15 -34
-15 -66 l0 -51 40 0 40 0 0 80 0 80 -40 0 c-27 0 -40 -4 -40 -14z"/>
<path fill="#ffffff" stroke="none" d="M40 40 c0 -5 -4 -10 -10 -10 -5 0 -10
5 -10 10 0 6 5 10 10 10 6 0 10 -4 10 -10z"/>
</g>
</svg>
