<?xml version="1.0" standalone="no"?>
<!DOCTYPE svg PUBLIC "-//W3C//DTD SVG 20010904//EN"
 "http://www.w3.org/TR/2001/REC-SVG-20010904/DTD/svg10.dtd">
<svg version="1.0" xmlns="http://www.w3.org/2000/svg"
 width="32.000000pt" height="32.000000pt" viewBox="0 0 32.000000 32.000000"
 preserveAspectRatio="xMidYMid meet">
<metadata>
Created by potrace 1.16, written by Peter Selinger 2001-2019
</metadata>
<g transform="translate(0.000000,32.000000) scale(0.100000,-0.100000)"
fill="#000000" stroke="none">
<path fill="#000000" stroke="none" d="M0 160 l0 -160 150 0 c99 0 150 4 150
11 0 5 4 7 10 4 7 -4 10 48 10 149 l0 156 -160 0 -160 0 0 -160z"/>
<path fill="#ffffff" stroke="none" d="M138 200 c-7 -10 -14 -17 -17 -15 -2 3
-10 0 -18 -6 -19 -16 -16 1 4 23 23 26 47 25 31 -2z"/>
<path fill="#ffffff" stroke="none" d="M228 135 c9 -3 22 -16 28 -30 11 -22
10 -24 -7 -15 -23 13 -49 50 -48 70 1 12 2 11 6 -2 2 -9 12 -20 21 -23z"/>
<path fill="#ffffff" stroke="none" d="M160 115 c-13 -16 -45 -20 -54 -7 -2 4
8 8 22 7 20 0 27 5 25 19 -1 13 2 15 10 7 7 -7 6 -15 -3 -26z"/>
<path fill="#ffffff" stroke="none" d="M287 18 c-3 -8 -6 -5 -6 6 -1 11 2 17
5 13 3 -3 4 -12 1 -19z"/>
</g>
</svg>
