<?xml version="1.0" standalone="no"?>
<!DOCTYPE svg PUBLIC "-//W3C//DTD SVG 20010904//EN"
 "http://www.w3.org/TR/2001/REC-SVG-20010904/DTD/svg10.dtd">
<svg version="1.0" xmlns="http://www.w3.org/2000/svg"
 width="32.000000pt" height="32.000000pt" viewBox="0 0 32.000000 32.000000"
 preserveAspectRatio="xMidYMid meet">
<metadata>
Created by potrace 1.16, written by Peter Selinger 2001-2019
</metadata>
<g transform="translate(0.000000,32.000000) scale(0.100000,-0.100000)"
fill="#000000" stroke="none">
<path fill="#000000" stroke="none" d="M210 241 c0 -7 9 -24 20 -38 18 -23 20
-24 20 -6 0 11 -9 28 -20 38 -13 12 -20 14 -20 6z"/>
<path fill="#000000" stroke="none" d="M110 213 c-14 -28 -14 -62 -1 -75 4 -5
8 9 9 30 2 20 5 45 8 55 8 26 -1 20 -16 -10z"/>
<path fill="#000000" stroke="none" d="M172 178 c-7 -7 -12 -19 -12 -28 0 -19
33 -53 43 -44 3 4 -4 15 -16 25 -19 15 -20 21 -9 38 14 24 12 27 -6 9z"/>
<path fill="#000000" stroke="none" d="M158 35 c-6 -30 -3 -43 8 -33 3 4 4 19
2 35 l-3 28 -7 -30z"/>
</g>
</svg>
