<?xml version="1.0" standalone="no"?>
<!DOCTYPE svg PUBLIC "-//W3C//DTD SVG 20010904//EN"
 "http://www.w3.org/TR/2001/REC-SVG-20010904/DTD/svg10.dtd">
<svg version="1.0" xmlns="http://www.w3.org/2000/svg"
 width="32.000000pt" height="32.000000pt" viewBox="0 0 32.000000 32.000000"
 preserveAspectRatio="xMidYMid meet">
<metadata>
Created by potrace 1.16, written by Peter Selinger 2001-2019
</metadata>
<g transform="translate(0.000000,32.000000) scale(0.100000,-0.100000)"
fill="#000000" stroke="none">
<path fill="#000000" stroke="none" d="M6 307 c3 -10 9 -15 12 -12 3 3 0 11
-7 18 -10 9 -11 8 -5 -6z"/>
<path fill="#000000" stroke="none" d="M67 215 c3 -10 15 -27 26 -38 18 -18
19 -18 15 4 -2 12 -13 28 -26 37 -21 14 -22 13 -15 -3z"/>
<path fill="#000000" stroke="none" d="M160 205 c-10 -13 -11 -18 -1 -28 10
-9 11 -8 6 5 -5 13 0 21 16 27 16 6 18 10 8 10 -9 1 -22 -6 -29 -14z"/>
<path fill="#000000" stroke="none" d="M211 142 c-1 -7 -5 -11 -9 -8 -4 2 -13
-4 -20 -15 -14 -22 -4 -25 22 -6 11 8 16 20 13 28 -4 10 -6 11 -6 1z"/>
</g>
</svg>
