<?xml version="1.0" standalone="no"?>
<!DOCTYPE svg PUBLIC "-//W3C//DTD SVG 20010904//EN"
 "http://www.w3.org/TR/2001/REC-SVG-20010904/DTD/svg10.dtd">
<svg version="1.0" xmlns="http://www.w3.org/2000/svg"
 width="32.000000pt" height="32.000000pt" viewBox="0 0 32.000000 32.000000"
 preserveAspectRatio="xMidYMid meet">
<metadata>
Created by potrace 1.16, written by Peter Selinger 2001-2019
</metadata>
<g transform="translate(0.000000,32.000000) scale(0.100000,-0.100000)"
fill="#000000" stroke="none">
<path fill="#000000" stroke="none" d="M135 229 c3 -4 -6 -14 -20 -23 -17 -11
-25 -25 -24 -44 1 -21 2 -22 6 -7 3 11 10 26 15 33 11 13 32 17 24 4 -3 -5 8
-8 23 -8 23 0 27 4 27 26 0 22 -4 26 -27 26 -15 0 -26 -3 -24 -7z"/>
<path fill="#000000" stroke="none" d="M200 201 c0 -6 4 -13 10 -16 6 -3 7 1
4 9 -7 18 -14 21 -14 7z"/>
<path fill="#000000" stroke="none" d="M117 128 c2 -5 22 -8 43 -8 21 0 41 3
43 8 3 4 -17 7 -43 7 -26 0 -46 -3 -43 -7z"/>
</g>
</svg>
