<?xml version="1.0" standalone="no"?>
<!DOCTYPE svg PUBLIC "-//W3C//DTD SVG 20010904//EN"
 "http://www.w3.org/TR/2001/REC-SVG-20010904/DTD/svg10.dtd">
<svg version="1.0" xmlns="http://www.w3.org/2000/svg"
 width="32.000000pt" height="32.000000pt" viewBox="0 0 32.000000 32.000000"
 preserveAspectRatio="xMidYMid meet">
<metadata>
Created by potrace 1.16, written by Peter Selinger 2001-2019
</metadata>
<g transform="translate(0.000000,32.000000) scale(0.100000,-0.100000)"
fill="#000000" stroke="none">
<path fill="#000000" stroke="none" d="M0 160 l0 -160 160 0 160 0 0 160 0
160 -160 0 -160 0 0 -160z"/>
<path fill="#ffffff" stroke="none" d="M285 115 c28 -27 31 -43 12 -69 -12
-16 -13 -14 -9 17 3 28 -1 38 -23 56 -15 11 -22 21 -16 21 7 0 23 -11 36 -25z"/>
<path fill="#ffffff" stroke="none" d="M202 86 c-3 -27 1 -37 23 -55 15 -11
22 -21 16 -21 -15 0 -61 45 -61 60 0 11 18 50 23 50 2 0 1 -15 -1 -34z"/>
<path fill="#ffffff" stroke="none" d="M278 79 c2 -19 1 -21 -7 -9 -7 10 -11
11 -11 3 0 -7 -7 -13 -16 -13 -9 0 -12 -5 -8 -11 4 -7 1 -10 -7 -7 -8 3 -15
15 -17 29 -2 19 -1 21 7 9 7 -10 11 -11 11 -2 0 6 7 12 16 12 9 0 12 5 8 11
-4 7 -1 10 7 7 8 -3 15 -15 17 -29z"/>
</g>
</svg>
