<?xml version="1.0" standalone="no"?>
<!DOCTYPE svg PUBLIC "-//W3C//DTD SVG 20010904//EN"
 "http://www.w3.org/TR/2001/REC-SVG-20010904/DTD/svg10.dtd">
<svg version="1.0" xmlns="http://www.w3.org/2000/svg"
 width="32.000000pt" height="32.000000pt" viewBox="0 0 32.000000 32.000000"
 preserveAspectRatio="xMidYMid meet">
<metadata>
Created by potrace 1.16, written by Peter Selinger 2001-2019
</metadata>
<g transform="translate(0.000000,32.000000) scale(0.100000,-0.100000)"
fill="#000000" stroke="none">
<path fill="#000000" stroke="none" d="M0 160 l0 -160 160 0 160 0 0 160 0
160 -160 0 -160 0 0 -160z"/>
<path fill="#ffffff" stroke="none" d="M242 108 c2 -20 8 -32 16 -31 6 2 12
-4 12 -12 0 -8 -7 -15 -16 -15 -8 0 -13 4 -9 9 3 5 1 12 -5 16 -5 3 -10 17
-10 31 0 17 -5 24 -20 24 -11 0 -20 -7 -20 -15 0 -8 5 -15 11 -15 5 0 7 5 4
10 -3 6 -1 10 4 10 6 0 11 -7 11 -15 0 -8 -9 -15 -20 -15 -15 0 -20 7 -20 25
0 21 5 25 29 25 26 0 30 -4 33 -32z"/>
</g>
</svg>
