<?xml version="1.0" standalone="no"?>
<!DOCTYPE svg PUBLIC "-//W3C//DTD SVG 20010904//EN"
 "http://www.w3.org/TR/2001/REC-SVG-20010904/DTD/svg10.dtd">
<svg version="1.0" xmlns="http://www.w3.org/2000/svg"
 width="32.000000pt" height="32.000000pt" viewBox="0 0 32.000000 32.000000"
 preserveAspectRatio="xMidYMid meet">
<metadata>
Created by potrace 1.16, written by Peter Selinger 2001-2019
</metadata>
<g transform="translate(0.000000,32.000000) scale(0.100000,-0.100000)"
fill="#000000" stroke="none">
<path fill="#000000" stroke="none" d="M270 130 c0 -5 -9 -10 -21 -10 -11 0
-32 -9 -46 -20 -14 -11 -21 -20 -16 -20 6 0 17 7 24 16 10 12 24 15 58 10 44
-6 44 -6 26 14 -20 23 -25 24 -25 10z"/>
<path fill="#000000" stroke="none" d="M231 86 c-9 -10 -8 -16 3 -25 10 -9 16
-8 25 3 9 10 8 16 -3 25 -10 9 -16 8 -25 -3z"/>
<path fill="#000000" stroke="none" d="M203 50 c14 -11 34 -20 45 -20 11 0 22
-5 24 -11 2 -6 12 -1 22 10 l19 21 -44 -6 c-34 -5 -48 -2 -58 10 -7 9 -18 16
-24 16 -5 0 2 -9 16 -20z"/>
</g>
</svg>
