<?xml version="1.0" standalone="no"?>
<!DOCTYPE svg PUBLIC "-//W3C//DTD SVG 20010904//EN"
 "http://www.w3.org/TR/2001/REC-SVG-20010904/DTD/svg10.dtd">
<svg version="1.0" xmlns="http://www.w3.org/2000/svg"
 width="32.000000pt" height="32.000000pt" viewBox="0 0 32.000000 32.000000"
 preserveAspectRatio="xMidYMid meet">
<metadata>
Created by potrace 1.16, written by Peter Selinger 2001-2019
</metadata>
<g transform="translate(0.000000,32.000000) scale(0.100000,-0.100000)"
fill="#000000" stroke="none">
<path fill="#000000" stroke="none" d="M0 160 l0 -160 113 0 c64 0 118 5 127
11 13 9 12 10 -2 5 -27 -8 -68 48 -68 95 l0 39 75 0 75 0 0 85 0 85 -160 0
-160 0 0 -160z"/>
<path fill="#000000" stroke="none" d="M180 130 c0 -5 7 -7 15 -4 8 4 15 8 15
10 0 2 -7 4 -15 4 -8 0 -15 -4 -15 -10z"/>
<path fill="#000000" stroke="none" d="M228 77 c-16 -43 -16 -43 9 -45 30 -2
37 16 20 56 l-13 31 -16 -42z"/>
<path fill="#000000" stroke="none" d="M287 34 l-29 -34 31 0 c29 0 31 3 31
35 0 19 -1 35 -2 34 -2 0 -16 -16 -31 -35z"/>
</g>
</svg>
