<?xml version="1.0" standalone="no"?>
<!DOCTYPE svg PUBLIC "-//W3C//DTD SVG 20010904//EN"
 "http://www.w3.org/TR/2001/REC-SVG-20010904/DTD/svg10.dtd">
<svg version="1.0" xmlns="http://www.w3.org/2000/svg"
 width="32.000000pt" height="32.000000pt" viewBox="0 0 32.000000 32.000000"
 preserveAspectRatio="xMidYMid meet">
<metadata>
Created by potrace 1.16, written by Peter Selinger 2001-2019
</metadata>
<g transform="translate(0.000000,32.000000) scale(0.100000,-0.100000)"
fill="#000000" stroke="none">
<path fill="#000000" stroke="none" d="M241 120 c-13 -11 -17 -20 -10 -20 10
0 10 -3 1 -12 -14 -14 -23 -7 -25 21 -1 21 -8 26 -20 15 -3 -4 0 -16 8 -28 8
-11 16 -32 16 -46 1 -17 3 -19 6 -7 2 9 9 17 13 17 6 0 6 -11 0 -25 -9 -24 -8
-25 35 -25 45 0 45 0 31 23 -8 12 -14 34 -12 50 2 15 -1 27 -6 27 -6 0 -8 7
-4 15 7 20 -4 18 -33 -5z"/>
</g>
</svg>
