<?xml version="1.0" standalone="no"?>
<!DOCTYPE svg PUBLIC "-//W3C//DTD SVG 20010904//EN"
 "http://www.w3.org/TR/2001/REC-SVG-20010904/DTD/svg10.dtd">
<svg version="1.0" xmlns="http://www.w3.org/2000/svg"
 width="32.000000pt" height="32.000000pt" viewBox="0 0 32.000000 32.000000"
 preserveAspectRatio="xMidYMid meet">
<metadata>
Created by potrace 1.16, written by Peter Selinger 2001-2019
</metadata>
<g transform="translate(0.000000,32.000000) scale(0.100000,-0.100000)"
fill="#000000" stroke="none">
<path fill="#000000" stroke="none" d="M141 216 c-1 -13 -6 -16 -18 -12 -17 7
-33 -9 -33 -33 0 -11 4 -11 18 2 10 10 31 17 45 17 22 0 27 4 26 23 -1 16 -2
18 -6 5 -2 -10 -8 -18 -13 -18 -5 0 -11 8 -13 18 -4 15 -5 15 -6 -2z"/>
</g>
</svg>
