<?xml version="1.0" standalone="no"?>
<!DOCTYPE svg PUBLIC "-//W3C//DTD SVG 20010904//EN"
 "http://www.w3.org/TR/2001/REC-SVG-20010904/DTD/svg10.dtd">
<svg version="1.0" xmlns="http://www.w3.org/2000/svg"
 width="32.000000pt" height="32.000000pt" viewBox="0 0 32.000000 32.000000"
 preserveAspectRatio="xMidYMid meet">
<metadata>
Created by potrace 1.16, written by Peter Selinger 2001-2019
</metadata>
<g transform="translate(0.000000,32.000000) scale(0.100000,-0.100000)"
fill="#000000" stroke="none">
<path fill="#000000" stroke="none" d="M0 160 l0 -160 160 0 160 0 0 160 0
160 -160 0 -160 0 0 -160z"/>
<path fill="#ffffff" stroke="none" d="M131 251 c-10 -6 -10 -10 -1 -16 9 -6
9 -9 0 -15 -9 -6 -6 -14 11 -31 15 -15 24 -19 27 -10 3 9 7 9 18 0 16 -13 19
1 4 19 -5 7 -2 5 7 -3 16 -14 16 -17 2 -30 -14 -14 -19 -14 -47 2 -30 17 -32
17 -46 -2 -15 -20 -15 -20 -16 2 0 12 5 25 11 28 6 4 8 14 5 22 -7 17 10 43
28 43 6 0 5 -4 -3 -9z"/>
<path fill="#ffffff" stroke="none" d="M162 205 c0 -5 -5 -11 -11 -13 -6 -2
-11 4 -11 13 0 9 5 15 11 13 6 -2 11 -8 11 -13z"/>
<path fill="#ffffff" stroke="none" d="M195 130 c-3 -5 -21 -9 -38 -9 l-32 2
35 7 c19 4 36 8 38 9 2 0 0 -3 -3 -9z"/>
</g>
</svg>
