<?xml version="1.0" standalone="no"?>
<!DOCTYPE svg PUBLIC "-//W3C//DTD SVG 20010904//EN"
 "http://www.w3.org/TR/2001/REC-SVG-20010904/DTD/svg10.dtd">
<svg version="1.0" xmlns="http://www.w3.org/2000/svg"
 width="32.000000pt" height="32.000000pt" viewBox="0 0 32.000000 32.000000"
 preserveAspectRatio="xMidYMid meet">
<metadata>
Created by potrace 1.16, written by Peter Selinger 2001-2019
</metadata>
<g transform="translate(0.000000,32.000000) scale(0.100000,-0.100000)"
fill="#000000" stroke="none">
<path fill="#000000" stroke="none" d="M111 246 c-6 -7 -9 -20 -5 -29 3 -8 1
-18 -5 -22 -18 -11 -12 -54 8 -65 25 -13 77 -13 102 0 35 19 23 55 -30 94 -55
41 -55 41 -70 22z"/>
<path fill="#ffffff" stroke="none" d="M158 164 c18 -12 26 -13 37 -4 18 15
20 -1 3 -18 -27 -27 -102 -2 -83 28 8 14 17 13 43 -6z"/>
</g>
</svg>
