<?xml version="1.0" standalone="no"?>
<!DOCTYPE svg PUBLIC "-//W3C//DTD SVG 20010904//EN"
 "http://www.w3.org/TR/2001/REC-SVG-20010904/DTD/svg10.dtd">
<svg version="1.0" xmlns="http://www.w3.org/2000/svg"
 width="32.000000pt" height="32.000000pt" viewBox="0 0 32.000000 32.000000"
 preserveAspectRatio="xMidYMid meet">
<metadata>
Created by potrace 1.16, written by Peter Selinger 2001-2019
</metadata>
<g transform="translate(0.000000,32.000000) scale(0.100000,-0.100000)"
fill="#000000" stroke="none">
<path fill="#000000" stroke="none" d="M0 160 l0 -160 160 0 160 0 0 160 0
160 -160 0 -160 0 0 -160z"/>
<path fill="#ffffff" stroke="none" d="M181 224 c53 -39 65 -75 30 -94 -25
-13 -77 -13 -102 0 -20 11 -26 54 -8 65 6 4 8 14 5 22 -6 14 9 43 21 43 3 0
27 -16 54 -36z"/>
<path fill="#000000" stroke="none" d="M115 170 c-19 -30 56 -55 83 -28 17 17
15 33 -3 18 -11 -9 -19 -8 -37 4 -26 19 -35 20 -43 6z"/>
</g>
</svg>
