<?xml version="1.0" standalone="no"?>
<!DOCTYPE svg PUBLIC "-//W3C//DTD SVG 20010904//EN"
 "http://www.w3.org/TR/2001/REC-SVG-20010904/DTD/svg10.dtd">
<svg version="1.0" xmlns="http://www.w3.org/2000/svg"
 width="32.000000pt" height="32.000000pt" viewBox="0 0 32.000000 32.000000"
 preserveAspectRatio="xMidYMid meet">
<metadata>
Created by potrace 1.16, written by Peter Selinger 2001-2019
</metadata>
<g transform="translate(0.000000,32.000000) scale(0.100000,-0.100000)"
fill="#000000" stroke="none">
<path fill="#000000" stroke="none" d="M0 160 l0 -160 160 0 160 0 0 160 0
160 -160 0 -160 0 0 -160z"/>
<path fill="#ffffff" stroke="none" d="M160 200 c5 0 10 8 12 18 3 14 5 13 10
-5 5 -21 3 -23 -27 -23 -19 0 -37 -4 -40 -10 -8 -13 -25 -13 -25 1 0 5 5 7 12
3 8 -5 9 -2 5 9 -3 9 -2 19 3 22 6 4 10 1 10 -4 0 -19 20 -12 21 7 1 16 2 16
6 0 2 -10 8 -18 13 -18z"/>
</g>
</svg>
