<?xml version="1.0" standalone="no"?>
<!DOCTYPE svg PUBLIC "-//W3C//DTD SVG 20010904//EN"
 "http://www.w3.org/TR/2001/REC-SVG-20010904/DTD/svg10.dtd">
<svg version="1.0" xmlns="http://www.w3.org/2000/svg"
 width="32.000000pt" height="32.000000pt" viewBox="0 0 32.000000 32.000000"
 preserveAspectRatio="xMidYMid meet">
<metadata>
Created by potrace 1.16, written by Peter Selinger 2001-2019
</metadata>
<g transform="translate(0.000000,32.000000) scale(0.100000,-0.100000)"
fill="#000000" stroke="none">
<path fill="#000000" stroke="none" d="M0 160 l0 -160 160 0 160 0 0 160 0
160 -160 0 -160 0 0 -160z"/>
<path fill="#ffffff" stroke="none" d="M131 261 c-11 -7 -8 -12 13 -26 14 -9
24 -20 22 -24 -3 -4 4 -12 15 -19 20 -13 26 -4 9 16 -5 7 -2 5 7 -3 16 -14 16
-16 1 -31 -14 -14 -18 -15 -39 0 -26 16 -39 12 -57 -19 -10 -18 -11 -17 -12
12 0 17 5 35 11 38 6 4 8 14 5 22 -7 17 10 43 28 43 6 0 5 -4 -3 -9z"/>
<path fill="#ffffff" stroke="none" d="M208 138 c-5 -15 -63 -23 -86 -12 -12
6 -4 10 28 14 25 4 49 8 53 8 5 1 7 -4 5 -10z"/>
</g>
</svg>
