<?xml version="1.0" standalone="no"?>
<!DOCTYPE svg PUBLIC "-//W3C//DTD SVG 20010904//EN"
 "http://www.w3.org/TR/2001/REC-SVG-20010904/DTD/svg10.dtd">
<svg version="1.0" xmlns="http://www.w3.org/2000/svg"
 width="32.000000pt" height="32.000000pt" viewBox="0 0 32.000000 32.000000"
 preserveAspectRatio="xMidYMid meet">
<metadata>
Created by potrace 1.16, written by Peter Selinger 2001-2019
</metadata>
<g transform="translate(0.000000,32.000000) scale(0.100000,-0.100000)"
fill="#000000" stroke="none">
<path fill="#000000" stroke="none" d="M0 160 l0 -160 160 0 160 0 0 160 0
160 -160 0 -160 0 0 -160z"/>
<path fill="#ffffff" stroke="none" d="M210 200 c21 -21 26 -40 11 -40 -5 0
-11 7 -15 15 -10 26 -71 19 -95 -11 l-21 -27 0 26 c0 51 81 76 120 37z"/>
<path fill="#ffffff" stroke="none" d="M160 130 c14 0 32 6 39 13 11 10 13 9
9 -3 -6 -21 -90 -21 -96 0 -4 12 -2 13 9 3 7 -7 25 -13 39 -13z"/>
</g>
</svg>
