<?xml version="1.0" standalone="no"?>
<!DOCTYPE svg PUBLIC "-//W3C//DTD SVG 20010904//EN"
 "http://www.w3.org/TR/2001/REC-SVG-20010904/DTD/svg10.dtd">
<svg version="1.0" xmlns="http://www.w3.org/2000/svg"
 width="32.000000pt" height="32.000000pt" viewBox="0 0 32.000000 32.000000"
 preserveAspectRatio="xMidYMid meet">
<metadata>
Created by potrace 1.16, written by Peter Selinger 2001-2019
</metadata>
<g transform="translate(0.000000,32.000000) scale(0.100000,-0.100000)"
fill="#000000" stroke="none">
<path fill="#000000" stroke="none" d="M112 204 c-27 -19 -29 -60 -3 -74 25
-13 77 -13 102 0 44 24 7 90 -51 90 -14 0 -36 -7 -48 -16z"/>
<path fill="#ffffff" stroke="none" d="M200 175 c10 -12 10 -18 0 -30 -14 -17
-66 -20 -75 -5 -4 6 -11 7 -17 4 -11 -7 -4 9 15 34 13 17 62 15 77 -3z"/>
</g>
</svg>
