<?xml version="1.0" standalone="no"?>
<!DOCTYPE svg PUBLIC "-//W3C//DTD SVG 20010904//EN"
 "http://www.w3.org/TR/2001/REC-SVG-20010904/DTD/svg10.dtd">
<svg version="1.0" xmlns="http://www.w3.org/2000/svg"
 width="32.000000pt" height="32.000000pt" viewBox="0 0 32.000000 32.000000"
 preserveAspectRatio="xMidYMid meet">
<metadata>
Created by potrace 1.16, written by Peter Selinger 2001-2019
</metadata>
<g transform="translate(0.000000,32.000000) scale(0.100000,-0.100000)"
fill="#000000" stroke="none">
<path fill="#000000" stroke="none" d="M112 204 c-12 -8 -22 -22 -22 -30 0
-18 8 -18 26 1 9 8 33 15 56 15 35 0 39 2 28 15 -16 19 -60 19 -88 -1z"/>
<path fill="#000000" stroke="none" d="M165 130 l-30 -8 27 -1 c15 0 30 4 33
9 3 6 5 9 3 9 -2 -1 -16 -5 -33 -9z"/>
</g>
</svg>
