<?xml version="1.0" standalone="no"?>
<!DOCTYPE svg PUBLIC "-//W3C//DTD SVG 20010904//EN"
 "http://www.w3.org/TR/2001/REC-SVG-20010904/DTD/svg10.dtd">
<svg version="1.0" xmlns="http://www.w3.org/2000/svg"
 width="32.000000pt" height="32.000000pt" viewBox="0 0 32.000000 32.000000"
 preserveAspectRatio="xMidYMid meet">
<metadata>
Created by potrace 1.16, written by Peter Selinger 2001-2019
</metadata>
<g transform="translate(0.000000,32.000000) scale(0.100000,-0.100000)"
fill="#000000" stroke="none">
<path fill="#000000" stroke="none" d="M112 214 c-29 -20 -31 -79 -3 -94 25
-13 77 -13 102 0 25 14 26 71 1 93 -23 21 -71 22 -100 1z"/>
<path fill="#ffffff" stroke="none" d="M185 210 c3 -6 -1 -13 -9 -16 -21 -8
-49 3 -41 16 8 13 42 13 50 0z"/>
<path fill="#ffffff" stroke="none" d="M195 160 c0 -18 -52 -27 -67 -12 -17
17 2 33 35 30 20 -2 32 -8 32 -18z"/>
</g>
</svg>
