<?xml version="1.0" standalone="no"?>
<!DOCTYPE svg PUBLIC "-//W3C//DTD SVG 20010904//EN"
 "http://www.w3.org/TR/2001/REC-SVG-20010904/DTD/svg10.dtd">
<svg version="1.0" xmlns="http://www.w3.org/2000/svg"
 width="32.000000pt" height="32.000000pt" viewBox="0 0 32.000000 32.000000"
 preserveAspectRatio="xMidYMid meet">
<metadata>
Created by potrace 1.16, written by Peter Selinger 2001-2019
</metadata>
<g transform="translate(0.000000,32.000000) scale(0.100000,-0.100000)"
fill="#000000" stroke="none">
<path fill="#000000" stroke="none" d="M130 221 c0 -7 -5 -9 -10 -6 -6 4 -9 1
-8 -7 2 -7 -2 -12 -8 -11 -6 1 -11 -4 -11 -12 0 -8 5 -13 11 -12 13 2 38 48
31 55 -3 3 -5 0 -5 -7z"/>
<path fill="#000000" stroke="none" d="M190 196 c0 -23 16 -27 17 -5 1 10 -2
19 -8 19 -5 0 -9 -6 -9 -14z"/>
</g>
</svg>
