<?xml version="1.0" standalone="no"?>
<!DOCTYPE svg PUBLIC "-//W3C//DTD SVG 20010904//EN"
 "http://www.w3.org/TR/2001/REC-SVG-20010904/DTD/svg10.dtd">
<svg version="1.0" xmlns="http://www.w3.org/2000/svg"
 width="32.000000pt" height="32.000000pt" viewBox="0 0 32.000000 32.000000"
 preserveAspectRatio="xMidYMid meet">
<metadata>
Created by potrace 1.16, written by Peter Selinger 2001-2019
</metadata>
<g transform="translate(0.000000,32.000000) scale(0.100000,-0.100000)"
fill="#000000" stroke="none">
<path fill="#000000" stroke="none" d="M0 160 l0 -160 160 0 160 0 0 160 0
160 -160 0 -160 0 0 -160z"/>
<path fill="#ffffff" stroke="none" d="M175 239 c4 -6 13 -8 21 -5 32 12 46
-87 15 -104 -25 -13 -77 -13 -102 0 -31 17 -17 116 15 104 8 -3 17 -1 21 5 3
6 10 11 15 11 5 0 12 -5 15 -11z"/>
<path fill="#000000" stroke="none" d="M122 178 c-17 -17 4 -38 38 -38 34 0
55 21 38 38 -7 7 -24 12 -38 12 -14 0 -31 -5 -38 -12z"/>
</g>
</svg>
