<?xml version="1.0" standalone="no"?>
<!DOCTYPE svg PUBLIC "-//W3C//DTD SVG 20010904//EN"
 "http://www.w3.org/TR/2001/REC-SVG-20010904/DTD/svg10.dtd">
<svg version="1.0" xmlns="http://www.w3.org/2000/svg"
 width="32.000000pt" height="32.000000pt" viewBox="0 0 32.000000 32.000000"
 preserveAspectRatio="xMidYMid meet">
<metadata>
Created by potrace 1.16, written by Peter Selinger 2001-2019
</metadata>
<g transform="translate(0.000000,32.000000) scale(0.100000,-0.100000)"
fill="#000000" stroke="none">
<path fill="#000000" stroke="none" d="M145 239 c-4 -6 -13 -8 -21 -5 -31 12
-45 -78 -16 -100 26 -20 86 -17 105 4 18 19 22 53 10 66 -5 4 -8 13 -8 19 0 7
-8 11 -17 9 -9 -1 -19 2 -23 8 -8 13 -22 13 -30 -1z"/>
<path fill="#ffffff" stroke="none" d="M198 178 c8 -8 9 -15 1 -25 -13 -15
-65 -17 -74 -3 -4 6 -12 7 -18 3 -7 -3 -3 3 7 15 21 24 65 29 84 10z"/>
</g>
</svg>
