<?xml version="1.0" standalone="no"?>
<!DOCTYPE svg PUBLIC "-//W3C//DTD SVG 20010904//EN"
 "http://www.w3.org/TR/2001/REC-SVG-20010904/DTD/svg10.dtd">
<svg version="1.0" xmlns="http://www.w3.org/2000/svg"
 width="32.000000pt" height="32.000000pt" viewBox="0 0 32.000000 32.000000"
 preserveAspectRatio="xMidYMid meet">
<metadata>
Created by potrace 1.16, written by Peter Selinger 2001-2019
</metadata>
<g transform="translate(0.000000,32.000000) scale(0.100000,-0.100000)"
fill="#000000" stroke="none">
<path fill="#000000" stroke="none" d="M0 160 l0 -160 160 0 160 0 0 160 0
160 -160 0 -160 0 0 -160z"/>
<path fill="#ffffff" stroke="none" d="M168 303 c-97 -4 -98 -4 -98 -28 0 -20
-5 -25 -25 -25 -24 0 -24 -1 -28 -97 l-3 -98 -2 103 -2 102 25 0 c20 0 25 5
25 25 l0 25 103 -2 102 -2 -97 -3z"/>
<path fill="#ffffff" stroke="none" d="M176 249 c10 -17 -13 -36 -27 -22 -12
12 -4 33 11 33 5 0 12 -5 16 -11z"/>
<path fill="#ffffff" stroke="none" d="M303 253 c-7 -2 -21 -2 -30 0 -10 3 -4
5 12 5 17 0 24 -2 18 -5z"/>
<path fill="#ffffff" stroke="none" d="M126 175 c-8 -18 -19 -25 -38 -25 -16
0 -28 5 -28 10 0 6 9 10 19 10 25 0 36 17 22 34 -16 19 0 28 20 11 14 -13 15
-20 5 -40z"/>
<path fill="#ffffff" stroke="none" d="M220 205 c-15 -18 -4 -35 21 -35 10 0
19 -4 19 -10 0 -5 -12 -10 -27 -10 -37 0 -58 40 -35 64 18 18 38 10 22 -9z"/>
<path fill="#ffffff" stroke="none" d="M179 127 c15 10 22 9 35 -6 18 -20 10
-37 -10 -20 -19 16 -34 2 -34 -32 0 -16 -4 -29 -10 -29 -5 0 -10 13 -10 29 0
34 -15 48 -34 32 -20 -17 -28 0 -10 20 13 15 20 16 35 6 15 -9 23 -9 38 0z"/>
<path fill="#ffffff" stroke="none" d="M67 23 c-3 -10 -5 -5 -5 12 0 17 2 24
5 18 2 -7 2 -21 0 -30z"/>
</g>
</svg>
