<?xml version="1.0" standalone="no"?>
<!DOCTYPE svg PUBLIC "-//W3C//DTD SVG 20010904//EN"
 "http://www.w3.org/TR/2001/REC-SVG-20010904/DTD/svg10.dtd">
<svg version="1.0" xmlns="http://www.w3.org/2000/svg"
 width="32.000000pt" height="32.000000pt" viewBox="0 0 32.000000 32.000000"
 preserveAspectRatio="xMidYMid meet">
<metadata>
Created by potrace 1.16, written by Peter Selinger 2001-2019
</metadata>
<g transform="translate(0.000000,32.000000) scale(0.100000,-0.100000)"
fill="#000000" stroke="none">
<path fill="#000000" stroke="none" d="M0 160 l0 -160 160 0 160 0 0 160 0
160 -160 0 -160 0 0 -160z"/>
<path fill="#ffffff" stroke="none" d="M250 275 c0 -20 5 -25 25 -25 25 0 25
-1 25 -90 0 -89 0 -90 -25 -90 -20 0 -25 -5 -25 -25 0 -25 -1 -25 -90 -25 -89
0 -90 0 -90 25 0 20 -5 25 -25 25 -25 0 -25 1 -25 90 0 89 0 90 25 90 20 0 25
5 25 25 0 25 1 25 90 25 89 0 90 0 90 -25z"/>
<path fill="#000000" stroke="none" d="M140 240 c0 -13 7 -20 20 -20 13 0 20
7 20 20 0 13 -7 20 -20 20 -13 0 -20 -7 -20 -20z"/>
<path fill="#000000" stroke="none" d="M96 221 c-4 -5 -2 -12 3 -16 16 -9 1
-35 -20 -35 -10 0 -19 -4 -19 -10 0 -5 13 -10 28 -10 39 0 59 40 32 65 -11 10
-20 12 -24 6z"/>
<path fill="#000000" stroke="none" d="M198 213 c-25 -24 -4 -63 34 -63 15 0
28 5 28 10 0 6 -9 10 -19 10 -22 0 -34 23 -19 38 6 6 6 12 1 15 -5 4 -17 -1
-25 -10z"/>
<path fill="#000000" stroke="none" d="M106 121 c-11 -12 -13 -21 -7 -25 5 -4
12 -2 16 3 11 19 35 -1 35 -30 0 -16 5 -29 10 -29 6 0 10 13 10 29 0 29 24 49
35 30 4 -5 11 -7 16 -3 6 4 4 13 -7 25 -13 14 -21 16 -35 8 -13 -6 -25 -6 -38
0 -14 8 -22 6 -35 -8z"/>
</g>
</svg>
