<?xml version="1.0" standalone="no"?>
<!DOCTYPE svg PUBLIC "-//W3C//DTD SVG 20010904//EN"
 "http://www.w3.org/TR/2001/REC-SVG-20010904/DTD/svg10.dtd">
<svg version="1.0" xmlns="http://www.w3.org/2000/svg"
 width="32.000000pt" height="32.000000pt" viewBox="0 0 32.000000 32.000000"
 preserveAspectRatio="xMidYMid meet">
<metadata>
Created by potrace 1.16, written by Peter Selinger 2001-2019
</metadata>
<g transform="translate(0.000000,32.000000) scale(0.100000,-0.100000)"
fill="#000000" stroke="none">
<path fill="#000000" stroke="none" d="M60 285 c0 -20 -5 -25 -25 -25 l-25 0
2 -102 2 -103 3 98 c4 96 4 97 28 97 20 0 25 5 25 25 0 24 1 24 98 28 l97 3
-102 2 -103 2 0 -25z"/>
<path fill="#000000" stroke="none" d="M166 252 c-3 -6 -1 -14 5 -17 15 -10
25 3 12 16 -7 7 -13 7 -17 1z"/>
<path fill="#000000" stroke="none" d="M273 253 c9 -2 23 -2 30 0 6 3 -1 5
-18 5 -16 0 -22 -2 -12 -5z"/>
<path fill="#000000" stroke="none" d="M115 210 c-26 -28 -28 -32 -13 -46 14
-14 16 -14 21 8 4 14 14 24 26 25 27 2 35 -12 16 -27 -8 -7 -15 -21 -15 -32 0
-15 -4 -18 -22 -12 -13 4 -26 12 -30 18 -4 6 -8 7 -8 2 0 -5 8 -18 17 -28 11
-12 16 -32 14 -54 -2 -31 0 -34 23 -34 23 0 26 4 25 33 0 27 -2 29 -9 12 -8
-19 -9 -19 -9 2 -1 12 13 35 29 51 38 38 38 62 0 90 -16 12 -31 22 -33 22 -2
0 -16 -14 -32 -30z"/>
<path fill="#000000" stroke="none" d="M62 35 c0 -17 2 -22 5 -12 2 9 2 23 0
30 -3 6 -5 -1 -5 -18z"/>
</g>
</svg>
