<?xml version="1.0" standalone="no"?>
<!DOCTYPE svg PUBLIC "-//W3C//DTD SVG 20010904//EN"
 "http://www.w3.org/TR/2001/REC-SVG-20010904/DTD/svg10.dtd">
<svg version="1.0" xmlns="http://www.w3.org/2000/svg"
 width="32.000000pt" height="32.000000pt" viewBox="0 0 32.000000 32.000000"
 preserveAspectRatio="xMidYMid meet">
<metadata>
Created by potrace 1.16, written by Peter Selinger 2001-2019
</metadata>
<g transform="translate(0.000000,32.000000) scale(0.100000,-0.100000)"
fill="#000000" stroke="none">
<path fill="#000000" stroke="none" d="M60 285 c0 -20 -5 -25 -25 -25 l-25 0
2 -102 c1 -57 3 -79 5 -50 l4 52 35 -27 c19 -16 34 -37 34 -48 0 -32 20 -45
70 -45 50 0 70 13 70 45 0 12 16 33 38 50 26 21 37 38 38 58 0 23 -4 27 -26
27 -15 0 -35 9 -45 20 -26 29 -124 29 -150 0 -21 -24 -65 -27 -65 -5 0 9 9 15
25 15 20 0 25 5 25 25 0 24 1 24 98 28 l97 3 -102 2 -103 2 0 -25z"/>
<path fill="#000000" stroke="none" d="M273 253 c9 -2 23 -2 30 0 6 3 -1 5
-18 5 -16 0 -22 -2 -12 -5z"/>
<path fill="#000000" stroke="none" d="M58 40 c2 -17 7 -30 11 -30 4 0 6 13 3
30 -2 16 -7 30 -11 30 -4 0 -6 -13 -3 -30z"/>
</g>
</svg>
