<?xml version="1.0" standalone="no"?>
<!DOCTYPE svg PUBLIC "-//W3C//DTD SVG 20010904//EN"
 "http://www.w3.org/TR/2001/REC-SVG-20010904/DTD/svg10.dtd">
<svg version="1.0" xmlns="http://www.w3.org/2000/svg"
 width="32.000000pt" height="32.000000pt" viewBox="0 0 32.000000 32.000000"
 preserveAspectRatio="xMidYMid meet">
<metadata>
Created by potrace 1.16, written by Peter Selinger 2001-2019
</metadata>
<g transform="translate(0.000000,32.000000) scale(0.100000,-0.100000)"
fill="#000000" stroke="none">
<path fill="#000000" stroke="none" d="M0 160 l0 -160 160 0 160 0 0 160 0
160 -160 0 -160 0 0 -160z"/>
<path fill="#ffffff" stroke="none" d="M168 303 c-97 -4 -98 -4 -98 -28 0 -20
-5 -25 -25 -25 -24 0 -24 -1 -28 -97 l-3 -98 -2 103 -2 102 25 0 c20 0 25 5
25 25 l0 25 103 -2 102 -2 -97 -3z"/>
<path fill="#ffffff" stroke="none" d="M303 253 c-7 -2 -21 -2 -30 0 -10 3 -4
5 12 5 17 0 24 -2 18 -5z"/>
<path fill="#ffffff" stroke="none" d="M212 220 c8 -12 24 -20 40 -20 37 0 35
-13 -8 -48 -28 -24 -45 -29 -84 -29 -39 0 -56 5 -84 29 -43 35 -45 48 -8 48
16 0 32 8 40 20 17 28 87 28 104 0z"/>
<path fill="#ffffff" stroke="none" d="M169 99 c6 9 11 10 15 2 4 -6 12 -9 17
-6 5 3 6 -1 3 -9 -12 -32 -76 -32 -88 0 -3 8 -2 12 3 9 5 -3 13 0 17 6 4 8 9
7 15 -2 8 -12 10 -12 18 0z"/>
<path fill="#ffffff" stroke="none" d="M67 23 c-3 -10 -5 -5 -5 12 0 17 2 24
5 18 2 -7 2 -21 0 -30z"/>
<path fill="#000000" stroke="none" d="M65 170 c10 -11 19 -20 19 -20 1 0 2 9
3 20 1 14 -4 20 -19 20 -20 0 -21 -1 -3 -20z"/>
<path fill="#000000" stroke="none" d="M233 170 c1 -18 2 -18 19 -3 23 20 23
23 -1 23 -13 0 -19 -6 -18 -20z"/>
<path fill="#000000" stroke="none" d="M114 163 c10 -11 37 -12 30 -2 -3 5
-12 9 -21 9 -9 0 -13 -3 -9 -7z"/>
<path fill="#000000" stroke="none" d="M176 161 c-4 -5 1 -8 9 -7 21 3 31 16
12 16 -9 0 -18 -4 -21 -9z"/>
</g>
</svg>
