<?xml version="1.0" standalone="no"?>
<!DOCTYPE svg PUBLIC "-//W3C//DTD SVG 20010904//EN"
 "http://www.w3.org/TR/2001/REC-SVG-20010904/DTD/svg10.dtd">
<svg version="1.0" xmlns="http://www.w3.org/2000/svg"
 width="32.000000pt" height="32.000000pt" viewBox="0 0 32.000000 32.000000"
 preserveAspectRatio="xMidYMid meet">
<metadata>
Created by potrace 1.16, written by Peter Selinger 2001-2019
</metadata>
<g transform="translate(0.000000,32.000000) scale(0.100000,-0.100000)"
fill="#000000" stroke="none">
<path fill="#000000" stroke="none" d="M60 285 c0 -20 -5 -25 -25 -25 l-25 0
2 -102 2 -103 3 98 c4 96 4 97 28 97 20 0 25 5 25 25 0 24 1 24 98 28 l97 3
-102 2 -103 2 0 -25z"/>
<path fill="#000000" stroke="none" d="M100 263 c-21 -24 -22 -25 -2 -9 12 11
22 14 22 8 0 -7 15 -12 33 -12 18 0 38 -5 45 -12 9 -9 12 -8 12 5 0 13 -9 17
-39 17 -28 0 -40 5 -43 16 -2 12 -9 9 -28 -13z"/>
<path fill="#000000" stroke="none" d="M273 253 c9 -2 23 -2 30 0 6 3 -1 5
-18 5 -16 0 -22 -2 -12 -5z"/>
<path fill="#000000" stroke="none" d="M104 178 c-10 -12 -14 -18 -7 -14 9 5
11 -2 8 -24 -4 -34 8 -44 55 -44 47 0 59 10 55 44 -3 22 -1 29 8 24 7 -4 3 2
-7 14 -26 30 -86 30 -112 0z"/>
<path fill="#ffffff" stroke="none" d="M148 132 c3 -9 -2 -13 -14 -10 -9 1
-19 9 -22 16 -3 9 2 13 14 10 9 -1 19 -9 22 -16z"/>
<path fill="#ffffff" stroke="none" d="M210 140 c0 -12 -28 -25 -36 -17 -9 9
6 27 22 27 8 0 14 -5 14 -10z"/>
<path fill="#000000" stroke="none" d="M141 71 c-1 -8 -7 -11 -17 -7 -14 5
-15 4 -4 -9 17 -20 64 -19 81 2 12 14 12 15 0 9 -8 -5 -17 -3 -22 5 -7 11 -9
10 -9 -3 0 -10 -4 -18 -9 -18 -5 0 -12 8 -14 18 -3 9 -5 11 -6 3z"/>
<path fill="#000000" stroke="none" d="M62 35 c0 -17 2 -22 5 -12 2 9 2 23 0
30 -3 6 -5 -1 -5 -18z"/>
</g>
</svg>
