<?xml version="1.0" standalone="no"?>
<!DOCTYPE svg PUBLIC "-//W3C//DTD SVG 20010904//EN"
 "http://www.w3.org/TR/2001/REC-SVG-20010904/DTD/svg10.dtd">
<svg version="1.0" xmlns="http://www.w3.org/2000/svg"
 width="32.000000pt" height="32.000000pt" viewBox="0 0 32.000000 32.000000"
 preserveAspectRatio="xMidYMid meet">
<metadata>
Created by potrace 1.16, written by Peter Selinger 2001-2019
</metadata>
<g transform="translate(0.000000,32.000000) scale(0.100000,-0.100000)"
fill="#000000" stroke="none">
<path fill="#000000" stroke="none" d="M60 285 c0 -20 -5 -25 -25 -25 l-25 0
2 -102 2 -103 3 98 c4 96 4 97 28 97 20 0 25 5 25 25 0 24 1 24 98 28 l97 3
-102 2 -103 2 0 -25z"/>
<path fill="#000000" stroke="none" d="M273 253 c9 -2 23 -2 30 0 6 3 -1 5
-18 5 -16 0 -22 -2 -12 -5z"/>
<path fill="#000000" stroke="none" d="M108 220 c-8 -12 -24 -20 -40 -20 -37
0 -35 -13 8 -48 50 -42 118 -42 168 0 43 35 45 48 8 48 -16 0 -32 8 -40 20
-17 28 -87 28 -104 0z"/>
<path fill="#ffffff" stroke="none" d="M87 170 c-1 -11 -2 -20 -3 -20 0 0 -9
9 -19 20 -18 19 -17 20 3 20 15 0 20 -6 19 -20z"/>
<path fill="#ffffff" stroke="none" d="M270 187 c0 -2 -8 -11 -18 -20 -17 -15
-18 -15 -19 3 -1 14 5 20 18 20 10 0 19 -2 19 -3z"/>
<path fill="#ffffff" stroke="none" d="M144 161 c4 -5 -1 -8 -9 -7 -21 3 -31
16 -12 16 9 0 18 -4 21 -9z"/>
<path fill="#ffffff" stroke="none" d="M206 163 c-10 -11 -37 -12 -30 -2 3 5
12 9 21 9 9 0 13 -3 9 -7z"/>
<path fill="#000000" stroke="none" d="M136 101 c-4 -6 -12 -9 -17 -6 -5 3 -6
-1 -3 -9 12 -32 76 -32 88 0 3 8 2 12 -3 9 -5 -3 -13 0 -17 6 -4 8 -9 7 -15
-2 -8 -12 -10 -12 -18 0 -6 9 -11 10 -15 2z"/>
<path fill="#000000" stroke="none" d="M62 35 c0 -17 2 -22 5 -12 2 9 2 23 0
30 -3 6 -5 -1 -5 -18z"/>
</g>
</svg>
