<?xml version="1.0" standalone="no"?>
<!DOCTYPE svg PUBLIC "-//W3C//DTD SVG 20010904//EN"
 "http://www.w3.org/TR/2001/REC-SVG-20010904/DTD/svg10.dtd">
<svg version="1.0" xmlns="http://www.w3.org/2000/svg"
 width="32.000000pt" height="32.000000pt" viewBox="0 0 32.000000 32.000000"
 preserveAspectRatio="xMidYMid meet">
<metadata>
Created by potrace 1.16, written by Peter Selinger 2001-2019
</metadata>
<g transform="translate(0.000000,32.000000) scale(0.100000,-0.100000)"
fill="#000000" stroke="none">
<path fill="#000000" stroke="none" d="M118 312 c-54 -3 -58 -5 -58 -27 0 -20
-5 -25 -25 -25 l-25 0 0 -100 0 -100 25 0 c20 0 25 -5 25 -25 l0 -25 100 0
100 0 0 25 c0 20 5 25 25 25 l25 0 0 100 0 100 -25 0 c-20 0 -25 5 -25 24 0
21 -5 24 -42 27 -24 2 -69 3 -100 1z"/>
<path fill="#ffffff" stroke="none" d="M250 275 c0 -31 -28 -45 -45 -22 -7 9
-15 14 -18 10 -4 -3 -7 0 -7 8 0 12 -2 12 -9 0 -8 -12 -12 -12 -24 -2 -11 8
-17 9 -22 1 -3 -6 -10 -8 -15 -5 -5 3 -11 1 -15 -5 -11 -18 -25 -10 -25 15 0
25 1 25 90 25 90 0 90 0 90 -25z"/>
<path fill="#ffffff" stroke="none" d="M53 244 c3 -4 2 -15 -4 -25 -5 -11 -6
-19 -1 -19 11 0 10 -40 -1 -57 -5 -9 -2 -13 9 -13 12 0 15 -6 11 -21 -4 -15
-2 -19 9 -15 8 3 14 -1 14 -10 0 -10 6 -14 15 -10 8 3 15 0 16 -7 0 -9 2 -9 6
0 3 10 10 9 28 -3 20 -13 23 -13 29 1 3 9 14 15 23 13 12 -2 17 3 15 15 -2 10
3 17 13 17 9 0 13 5 10 10 -3 6 1 13 10 16 13 6 14 8 3 15 -11 7 -11 11 0 17
10 7 10 11 -2 21 -24 20 -8 61 25 61 17 0 19 -8 19 -90 0 -89 0 -90 -25 -90
-20 0 -25 -5 -25 -25 0 -25 -1 -25 -90 -25 -89 0 -90 0 -90 25 0 20 -5 25 -25
25 -25 0 -25 1 -25 90 0 68 3 90 13 90 8 0 17 -3 20 -6z"/>
<path fill="#ffffff" stroke="none" d="M205 205 c14 -13 25 -33 25 -45 0 -25
-42 -70 -65 -70 -61 0 -98 79 -43 93 11 3 17 10 14 16 -6 9 19 30 37 31 4 0
19 -11 32 -25z"/>
</g>
</svg>
