<?xml version="1.0" standalone="no"?>
<!DOCTYPE svg PUBLIC "-//W3C//DTD SVG 20010904//EN"
 "http://www.w3.org/TR/2001/REC-SVG-20010904/DTD/svg10.dtd">
<svg version="1.0" xmlns="http://www.w3.org/2000/svg"
 width="32.000000pt" height="32.000000pt" viewBox="0 0 32.000000 32.000000"
 preserveAspectRatio="xMidYMid meet">
<metadata>
Created by potrace 1.16, written by Peter Selinger 2001-2019
</metadata>
<g transform="translate(0.000000,32.000000) scale(0.100000,-0.100000)"
fill="#000000" stroke="none">
<path fill="#000000" stroke="none" d="M0 160 l0 -160 160 0 160 0 0 160 0
160 -72 -2 c-67 -1 -69 -2 -28 -8 36 -6 25 -7 -52 -8 -97 -2 -98 -2 -98 -27 0
-20 -5 -25 -25 -25 -24 0 -24 -1 -28 -97 l-3 -98 -2 103 -2 102 25 0 c20 0 25
5 25 25 0 22 4 24 58 28 44 2 37 4 -30 5 l-88 2 0 -160z"/>
<path fill="#ffffff" stroke="none" d="M181 263 c13 -16 12 -17 -3 -4 -27 20
-46 7 -59 -41 -21 -78 5 -175 43 -165 15 4 18 3 11 -4 -38 -38 -86 36 -80 122
5 90 52 138 88 92z"/>
<path fill="#ffffff" stroke="none" d="M303 253 c-7 -2 -21 -2 -30 0 -10 3 -4
5 12 5 17 0 24 -2 18 -5z"/>
<path fill="#ffffff" stroke="none" d="M230 227 c0 -7 -5 -18 -11 -24 -8 -8
-8 -13 0 -17 6 -4 11 -2 11 5 0 10 3 10 12 1 16 -16 -9 -47 -27 -32 -16 14
-30 -4 -18 -22 13 -21 10 -58 -5 -58 -10 0 -12 7 -8 25 7 27 -3 32 -22 13 -9
-9 -12 -6 -12 13 0 14 6 31 12 37 10 10 10 15 -1 21 -19 12 -4 33 19 26 11 -3
20 0 24 10 7 18 26 20 26 2z"/>
<path fill="#ffffff" stroke="none" d="M72 40 c3 -17 1 -30 -3 -30 -4 0 -9 13
-11 30 -3 17 -1 30 3 30 4 0 9 -14 11 -30z"/>
</g>
</svg>
