<?xml version="1.0" standalone="no"?>
<!DOCTYPE svg PUBLIC "-//W3C//DTD SVG 20010904//EN"
 "http://www.w3.org/TR/2001/REC-SVG-20010904/DTD/svg10.dtd">
<svg version="1.0" xmlns="http://www.w3.org/2000/svg"
 width="32.000000pt" height="32.000000pt" viewBox="0 0 32.000000 32.000000"
 preserveAspectRatio="xMidYMid meet">
<metadata>
Created by potrace 1.16, written by Peter Selinger 2001-2019
</metadata>
<g transform="translate(0.000000,32.000000) scale(0.100000,-0.100000)"
fill="#000000" stroke="none">
<path fill="#000000" stroke="none" d="M60 285 c0 -20 -5 -25 -25 -25 l-25 0
2 -102 2 -103 3 98 c4 95 4 98 26 95 12 -2 21 -9 20 -16 -2 -6 3 -12 10 -12 8
0 7 -4 -3 -10 -11 -7 -11 -10 -2 -10 8 0 10 -5 6 -12 -14 -23 -11 -51 8 -70
10 -10 16 -24 12 -30 -4 -6 -3 -8 4 -4 6 3 21 2 34 -3 28 -10 75 6 98 35 15
19 20 67 8 79 -4 4 -4 14 -1 23 4 10 3 14 -2 10 -4 -4 -19 2 -33 12 -17 14
-29 17 -37 10 -6 -5 -15 -7 -19 -3 -12 13 -45 10 -51 -4 -8 -23 -25 -4 -25 27
l0 29 98 4 97 3 -102 2 -103 2 0 -25z"/>
<path fill="#ffffff" stroke="none" d="M205 205 c30 -29 32 -68 5 -95 -32 -32
-87 -22 -110 21 -14 25 -4 60 16 52 8 -3 14 1 14 9 0 18 20 38 37 38 8 0 25
-11 38 -25z"/>
<path fill="#000000" stroke="none" d="M273 253 c9 -2 23 -2 30 0 6 3 -1 5
-18 5 -16 0 -22 -2 -12 -5z"/>
<path fill="#000000" stroke="none" d="M62 35 c0 -17 2 -22 5 -12 2 9 2 23 0
30 -3 6 -5 -1 -5 -18z"/>
</g>
</svg>
