<?xml version="1.0" standalone="no"?>
<!DOCTYPE svg PUBLIC "-//W3C//DTD SVG 20010904//EN"
 "http://www.w3.org/TR/2001/REC-SVG-20010904/DTD/svg10.dtd">
<svg version="1.0" xmlns="http://www.w3.org/2000/svg"
 width="32.000000pt" height="32.000000pt" viewBox="0 0 32.000000 32.000000"
 preserveAspectRatio="xMidYMid meet">
<metadata>
Created by potrace 1.16, written by Peter Selinger 2001-2019
</metadata>
<g transform="translate(0.000000,32.000000) scale(0.100000,-0.100000)"
fill="#000000" stroke="none">
<path fill="#000000" stroke="none" d="M0 160 l0 -160 160 0 160 0 0 160 0
160 -72 -2 c-67 -1 -69 -2 -28 -8 36 -6 25 -7 -52 -8 -97 -2 -98 -2 -98 -27 0
-20 -5 -25 -25 -25 -24 0 -24 -1 -28 -97 l-3 -98 -2 103 -2 102 25 0 c20 0 25
5 25 25 0 22 4 24 58 28 44 2 37 4 -30 5 l-88 2 0 -160z"/>
<path fill="#ffffff" stroke="none" d="M218 216 c37 -35 45 -58 28 -84 -4 -6
-14 -12 -22 -12 -10 0 -12 5 -8 12 15 25 10 48 -15 70 -32 29 -53 29 -84 0
-23 -22 -28 -46 -13 -70 4 -7 2 -12 -8 -12 -17 0 -30 17 -31 40 -1 23 73 97
96 95 10 -1 37 -18 57 -39z"/>
<path fill="#ffffff" stroke="none" d="M303 253 c-7 -2 -21 -2 -30 0 -10 3 -4
5 12 5 17 0 24 -2 18 -5z"/>
<path fill="#ffffff" stroke="none" d="M178 126 c-4 -19 1 -26 28 -36 20 -8
30 -18 27 -27 -6 -16 -18 -17 -35 -1 -17 17 -59 17 -76 0 -17 -16 -29 -15 -35
1 -3 9 7 19 27 27 27 10 32 17 28 36 -3 20 0 24 18 24 18 0 21 -4 18 -24z"/>
<path fill="#ffffff" stroke="none" d="M72 40 c3 -17 1 -30 -3 -30 -4 0 -9 13
-11 30 -3 17 -1 30 3 30 4 0 9 -14 11 -30z"/>
<path fill="#ffffff" stroke="none" d="M141 37 c-10 -9 -11 -8 -5 6 3 10 9 15
12 12 3 -3 0 -11 -7 -18z"/>
<path fill="#ffffff" stroke="none" d="M184 44 c3 -8 2 -12 -4 -9 -6 3 -10 10
-10 16 0 14 7 11 14 -7z"/>
</g>
</svg>
