<?xml version="1.0" standalone="no"?>
<!DOCTYPE svg PUBLIC "-//W3C//DTD SVG 20010904//EN"
 "http://www.w3.org/TR/2001/REC-SVG-20010904/DTD/svg10.dtd">
<svg version="1.0" xmlns="http://www.w3.org/2000/svg"
 width="32.000000pt" height="32.000000pt" viewBox="0 0 32.000000 32.000000"
 preserveAspectRatio="xMidYMid meet">
<metadata>
Created by potrace 1.16, written by Peter Selinger 2001-2019
</metadata>
<g transform="translate(0.000000,32.000000) scale(0.100000,-0.100000)"
fill="#000000" stroke="none">
<path fill="#000000" stroke="none" d="M70 275 c0 -20 -5 -25 -25 -25 -25 0
-25 -1 -25 -90 0 -89 0 -90 25 -90 20 0 25 -5 25 -25 0 -25 1 -25 90 -25 89 0
90 0 90 25 0 20 5 25 25 25 25 0 25 1 25 90 0 89 0 90 -25 90 -20 0 -25 5 -25
25 0 25 -1 25 -90 25 -89 0 -90 0 -90 -25z"/>
<path fill="#ffffff" stroke="none" d="M248 245 c14 -5 21 -13 18 -22 -3 -8
-1 -11 4 -8 6 3 10 2 10 -4 0 -5 -5 -13 -10 -16 -6 -4 -8 -14 -5 -24 3 -10 -4
-26 -15 -39 -11 -11 -16 -24 -10 -27 5 -3 7 -12 3 -21 -3 -8 -8 -12 -11 -10
-3 3 -11 -2 -19 -12 -8 -9 -12 -11 -8 -4 3 6 1 12 -4 12 -6 0 -11 -7 -11 -16
0 -13 -3 -14 -13 -5 -8 6 -17 7 -22 3 -4 -4 -5 0 -3 8 3 8 11 14 17 12 6 -1
11 2 11 8 0 5 -6 10 -13 10 -18 0 -36 -20 -31 -35 3 -6 -2 -12 -10 -12 -8 0
-12 6 -8 15 3 10 1 13 -6 8 -7 -4 -15 0 -19 9 -3 10 0 21 8 26 9 6 10 9 2 9
-6 0 -15 -5 -18 -10 -7 -12 -25 -4 -25 11 0 6 5 7 10 4 6 -3 10 -2 10 4 0 5
-5 13 -10 16 -6 4 -7 11 -4 17 5 7 1 9 -9 5 -19 -7 -23 13 -6 30 8 8 8 13 0
17 -6 4 -11 12 -11 18 0 6 3 9 6 5 3 -3 15 2 26 12 15 15 33 18 86 16 37 -1
77 -6 90 -10z"/>
</g>
</svg>
