<?xml version="1.0" standalone="no"?>
<!DOCTYPE svg PUBLIC "-//W3C//DTD SVG 20010904//EN"
 "http://www.w3.org/TR/2001/REC-SVG-20010904/DTD/svg10.dtd">
<svg version="1.0" xmlns="http://www.w3.org/2000/svg"
 width="32.000000pt" height="32.000000pt" viewBox="0 0 32.000000 32.000000"
 preserveAspectRatio="xMidYMid meet">
<metadata>
Created by potrace 1.16, written by Peter Selinger 2001-2019
</metadata>
<g transform="translate(0.000000,32.000000) scale(0.100000,-0.100000)"
fill="#000000" stroke="none">
<path fill="#000000" stroke="none" d="M60 285 c0 -20 -5 -25 -25 -25 l-25 0
2 -102 2 -103 3 98 c4 96 4 97 28 97 20 0 25 5 25 25 0 24 2 24 93 28 l92 3
-97 2 -98 2 0 -25z"/>
<path fill="#000000" stroke="none" d="M45 200 c3 -5 12 -7 20 -3 21 7 19 13
-6 13 -11 0 -18 -4 -14 -10z"/>
<path fill="#000000" stroke="none" d="M129 183 c-12 -16 -12 -17 1 -7 8 6 22
14 30 17 13 5 12 6 -1 6 -9 1 -23 -7 -30 -16z"/>
<path fill="#000000" stroke="none" d="M145 130 c-3 -5 -2 -10 4 -10 5 0 13 5
16 10 3 6 2 10 -4 10 -5 0 -13 -4 -16 -10z"/>
<path fill="#000000" stroke="none" d="M76 85 c-3 -8 -1 -15 4 -15 6 0 10 7
10 15 0 8 -2 15 -4 15 -2 0 -6 -7 -10 -15z"/>
</g>
</svg>
