<?xml version="1.0" standalone="no"?>
<!DOCTYPE svg PUBLIC "-//W3C//DTD SVG 20010904//EN"
 "http://www.w3.org/TR/2001/REC-SVG-20010904/DTD/svg10.dtd">
<svg version="1.0" xmlns="http://www.w3.org/2000/svg"
 width="32.000000pt" height="32.000000pt" viewBox="0 0 32.000000 32.000000"
 preserveAspectRatio="xMidYMid meet">
<metadata>
Created by potrace 1.16, written by Peter Selinger 2001-2019
</metadata>
<g transform="translate(0.000000,32.000000) scale(0.100000,-0.100000)"
fill="#000000" stroke="none">
<path fill="#000000" stroke="none" d="M60 285 c0 -20 -5 -25 -25 -25 l-25 0
2 -102 2 -103 3 98 c4 96 4 97 28 97 20 0 25 5 25 25 0 24 1 24 98 28 l97 3
-102 2 -103 2 0 -25z"/>
<path fill="#000000" stroke="none" d="M273 253 c9 -2 23 -2 30 0 6 3 -1 5
-18 5 -16 0 -22 -2 -12 -5z"/>
<path fill="#000000" stroke="none" d="M145 220 c-34 -23 -65 -25 -85 -7 -12
10 -12 9 0 -6 10 -14 23 -18 45 -14 47 7 56 -1 30 -29 -24 -26 -44 -30 -78
-13 -22 10 -22 10 -2 -6 14 -11 29 -14 50 -10 17 4 44 7 62 8 17 1 29 5 27 9
-2 4 0 9 6 13 15 10 12 23 -7 28 -14 4 -12 5 5 6 13 1 22 7 22 17 0 9 5 12 12
8 7 -4 8 -3 4 4 -11 18 -58 14 -91 -8z"/>
<path fill="#000000" stroke="none" d="M245 208 c-25 -68 -54 -162 -51 -165 2
-2 17 37 34 86 17 50 29 91 26 91 -3 0 -7 -6 -9 -12z"/>
<path fill="#000000" stroke="none" d="M62 35 c0 -17 2 -22 5 -12 2 9 2 23 0
30 -3 6 -5 -1 -5 -18z"/>
</g>
</svg>
