<?xml version="1.0" standalone="no"?>
<!DOCTYPE svg PUBLIC "-//W3C//DTD SVG 20010904//EN"
 "http://www.w3.org/TR/2001/REC-SVG-20010904/DTD/svg10.dtd">
<svg version="1.0" xmlns="http://www.w3.org/2000/svg"
 width="32.000000pt" height="32.000000pt" viewBox="0 0 32.000000 32.000000"
 preserveAspectRatio="xMidYMid meet">
<metadata>
Created by potrace 1.16, written by Peter Selinger 2001-2019
</metadata>
<g transform="translate(0.000000,32.000000) scale(0.100000,-0.100000)"
fill="#000000" stroke="none">
<path fill="#000000" stroke="none" d="M250 122 c0 -7 -4 -11 -9 -8 -4 3 -17
-4 -27 -15 -17 -19 -17 -20 0 -13 15 6 17 3 11 -14 -8 -26 3 -29 21 -5 13 17
13 17 14 1 0 -10 5 -18 12 -18 6 0 8 3 5 7 -4 3 -2 12 4 19 7 8 7 14 -1 19 -6
4 -7 12 -1 23 7 14 5 18 -10 18 -10 0 -19 -6 -19 -14z"/>
</g>
</svg>
