<?xml version="1.0" standalone="no"?>
<!DOCTYPE svg PUBLIC "-//W3C//DTD SVG 20010904//EN"
 "http://www.w3.org/TR/2001/REC-SVG-20010904/DTD/svg10.dtd">
<svg version="1.0" xmlns="http://www.w3.org/2000/svg"
 width="32.000000pt" height="32.000000pt" viewBox="0 0 32.000000 32.000000"
 preserveAspectRatio="xMidYMid meet">
<metadata>
Created by potrace 1.16, written by Peter Selinger 2001-2019
</metadata>
<g transform="translate(0.000000,32.000000) scale(0.100000,-0.100000)"
fill="#000000" stroke="none">
<path fill="#000000" stroke="none" d="M188 121 c-10 -10 -18 -24 -17 -32 0
-8 4 -6 9 6 8 18 9 18 10 -5 0 -19 3 -21 9 -10 15 26 23 60 14 59 -4 0 -16 -8
-25 -18z"/>
<path fill="#000000" stroke="none" d="M237 113 c3 -20 2 -24 -5 -14 -8 11
-11 9 -17 -9 -4 -13 -16 -33 -26 -44 -11 -11 -19 -25 -19 -30 0 -6 5 -3 11 7
6 9 15 15 20 12 5 -4 7 -10 5 -14 -3 -4 1 -8 9 -8 8 0 12 4 9 8 -2 4 0 10 5
13 5 4 12 -2 14 -11 4 -14 5 -13 6 5 1 17 7 22 27 22 14 0 23 -4 19 -10 -3 -5
-1 -10 4 -10 17 0 13 18 -6 29 -17 10 -16 10 2 11 15 0 17 2 6 9 -11 7 -11 10
0 15 8 3 4 4 -9 2 -19 -4 -21 -2 -11 10 7 9 8 14 1 14 -6 0 -16 -8 -22 -17
-10 -15 -11 -14 -7 10 3 17 0 27 -8 27 -8 0 -11 -10 -8 -27z"/>
<path fill="#000000" stroke="none" d="M271 24 c0 -11 3 -14 6 -6 3 7 2 16 -1
19 -3 4 -6 -2 -5 -13z"/>
</g>
</svg>
