<?xml version="1.0" standalone="no"?>
<!DOCTYPE svg PUBLIC "-//W3C//DTD SVG 20010904//EN"
 "http://www.w3.org/TR/2001/REC-SVG-20010904/DTD/svg10.dtd">
<svg version="1.0" xmlns="http://www.w3.org/2000/svg"
 width="32.000000pt" height="32.000000pt" viewBox="0 0 32.000000 32.000000"
 preserveAspectRatio="xMidYMid meet">
<metadata>
Created by potrace 1.16, written by Peter Selinger 2001-2019
</metadata>
<g transform="translate(0.000000,32.000000) scale(0.100000,-0.100000)"
fill="#000000" stroke="none">
<path fill="#000000" stroke="none" d="M0 160 l0 -160 103 0 c101 0 104 1 115
25 16 34 15 35 -8 35 -29 0 -25 11 20 55 40 40 60 43 41 7 -15 -28 -14 -32 9
-32 11 0 20 -4 20 -8 0 -15 -66 -72 -75 -65 -4 5 -5 2 -1 -4 4 -8 27 -13 52
-13 l44 0 0 160 0 160 -160 0 -160 0 0 -160z"/>
<path fill="#000000" stroke="none" d="M230 105 l-34 -35 27 0 c25 0 27 -2 17
-21 -18 -32 -6 -32 25 1 l29 30 -27 0 c-27 0 -27 0 -12 30 9 17 14 30 12 30
-2 0 -18 -16 -37 -35z"/>
</g>
</svg>
