<?xml version="1.0" standalone="no"?>
<!DOCTYPE svg PUBLIC "-//W3C//DTD SVG 20010904//EN"
 "http://www.w3.org/TR/2001/REC-SVG-20010904/DTD/svg10.dtd">
<svg version="1.0" xmlns="http://www.w3.org/2000/svg"
 width="32.000000pt" height="32.000000pt" viewBox="0 0 32.000000 32.000000"
 preserveAspectRatio="xMidYMid meet">
<metadata>
Created by potrace 1.16, written by Peter Selinger 2001-2019
</metadata>
<g transform="translate(0.000000,32.000000) scale(0.100000,-0.100000)"
fill="#000000" stroke="none">
<path fill="#000000" stroke="none" d="M0 160 l0 -160 160 0 160 0 0 160 0
160 -160 0 -160 0 0 -160z"/>
<path fill="#ffffff" stroke="none" d="M214 118 c-3 -13 -10 -30 -15 -38 -6
-11 -9 -9 -9 10 -1 23 -2 23 -10 5 -5 -12 -9 -14 -9 -6 -1 15 28 49 42 50 5 1
5 -9 1 -21z"/>
<path fill="#ffffff" stroke="none" d="M257 134 c-3 -3 -12 -4 -19 -1 -8 3 -5
6 6 6 11 1 17 -2 13 -5z"/>
<path fill="#ffffff" stroke="none" d="M273 107 c13 12 17 13 12 3 -16 -26
-14 -40 6 -50 20 -11 26 -30 8 -30 -5 0 -7 5 -4 10 8 13 -31 13 -56 -1 -11 -5
-17 -14 -15 -18 3 -4 -1 -8 -9 -8 -15 0 -13 37 4 77 11 24 11 24 8 -6 -3 -29
-1 -31 15 -20 10 6 14 12 8 14 -5 2 -9 13 -9 25 1 18 2 19 6 4 5 -18 5 -18 26
0z"/>
<path fill="#ffffff" stroke="none" d="M307 74 c-3 -3 -12 -4 -19 -1 -8 3 -5
6 6 6 11 1 17 -2 13 -5z"/>
<path fill="#ffffff" stroke="none" d="M183 25 c-3 -9 -8 -14 -10 -11 -3 3 -2
9 2 15 9 16 15 13 8 -4z"/>
<path fill="#ffffff" stroke="none" d="M277 18 c-3 -8 -6 -5 -6 6 -1 11 2 17
5 13 3 -3 4 -12 1 -19z"/>
</g>
</svg>
