<?xml version="1.0" standalone="no"?>
<!DOCTYPE svg PUBLIC "-//W3C//DTD SVG 20010904//EN"
 "http://www.w3.org/TR/2001/REC-SVG-20010904/DTD/svg10.dtd">
<svg version="1.0" xmlns="http://www.w3.org/2000/svg"
 width="32.000000pt" height="32.000000pt" viewBox="0 0 32.000000 32.000000"
 preserveAspectRatio="xMidYMid meet">
<metadata>
Created by potrace 1.16, written by Peter Selinger 2001-2019
</metadata>
<g transform="translate(0.000000,32.000000) scale(0.100000,-0.100000)"
fill="#000000" stroke="none">
<path fill="#000000" stroke="none" d="M0 160 l0 -160 160 0 160 0 0 160 0
160 -160 0 -160 0 0 -160z"/>
<path fill="#ffffff" stroke="none" d="M168 303 c-97 -4 -98 -4 -98 -28 0 -20
-5 -25 -25 -25 -24 0 -24 -1 -28 -97 l-3 -98 -2 103 -2 102 25 0 c20 0 25 5
25 25 l0 25 103 -2 102 -2 -97 -3z"/>
<path fill="#ffffff" stroke="none" d="M191 252 c11 -15 26 -27 32 -27 7 0 13
-8 15 -18 5 -26 -6 -67 -19 -67 -6 0 -8 8 -4 19 7 23 -21 49 -36 34 -8 -8 -6
-11 7 -10 11 1 19 -4 19 -13 0 -8 -6 -14 -13 -12 -14 2 -16 -14 -2 -23 16 -10
12 -28 -5 -21 -10 4 -15 -1 -15 -14 0 -11 -4 -20 -10 -20 -5 0 -10 9 -10 20 0
13 -5 18 -15 14 -17 -7 -21 11 -5 21 14 9 12 25 -2 23 -7 -2 -13 4 -13 12 0 9
8 14 19 13 13 -1 15 2 7 10 -15 15 -43 -11 -36 -34 8 -23 -10 -26 -19 -3 -11
28 -7 43 21 82 33 46 56 50 84 14z"/>
<path fill="#ffffff" stroke="none" d="M303 253 c-7 -2 -21 -2 -30 0 -10 3 -4
5 12 5 17 0 24 -2 18 -5z"/>
<path fill="#ffffff" stroke="none" d="M140 86 c0 -28 -13 -46 -33 -46 -19 0
-19 1 -4 18 10 10 17 24 17 30 0 7 5 12 10 12 6 0 10 -6 10 -14z"/>
<path fill="#ffffff" stroke="none" d="M200 88 c0 -6 7 -20 17 -30 15 -17 15
-18 -4 -18 -20 0 -33 18 -33 46 0 8 5 14 10 14 6 0 10 -5 10 -12z"/>
<path fill="#ffffff" stroke="none" d="M67 18 c-3 -7 -5 -2 -5 12 0 14 2 19 5
13 2 -7 2 -19 0 -25z"/>
</g>
</svg>
