<?xml version="1.0" standalone="no"?>
<!DOCTYPE svg PUBLIC "-//W3C//DTD SVG 20010904//EN"
 "http://www.w3.org/TR/2001/REC-SVG-20010904/DTD/svg10.dtd">
<svg version="1.0" xmlns="http://www.w3.org/2000/svg"
 width="32.000000pt" height="32.000000pt" viewBox="0 0 32.000000 32.000000"
 preserveAspectRatio="xMidYMid meet">
<metadata>
Created by potrace 1.16, written by Peter Selinger 2001-2019
</metadata>
<g transform="translate(0.000000,32.000000) scale(0.100000,-0.100000)"
fill="#000000" stroke="none">
<path fill="#000000" stroke="none" d="M0 160 l0 -160 160 0 160 0 0 160 0
160 -160 0 -160 0 0 -160z"/>
<path fill="#ffffff" stroke="none" d="M168 303 c-97 -4 -98 -4 -98 -28 0 -20
-5 -25 -25 -25 -24 0 -24 -1 -28 -97 l-3 -98 -2 103 -2 102 25 0 c20 0 25 5
25 25 l0 25 103 -2 102 -2 -97 -3z"/>
<path fill="#ffffff" stroke="none" d="M190 243 c12 -16 27 -28 33 -28 12 0
17 -39 9 -63 -3 -10 -9 -8 -25 5 -14 13 -21 15 -24 6 -3 -7 -13 -13 -23 -13
-10 0 -20 6 -23 13 -3 8 -10 7 -26 -7 -12 -11 -21 -14 -22 -8 -5 49 -4 50 44
103 23 25 32 24 57 -8z"/>
<path fill="#ffffff" stroke="none" d="M303 253 c-7 -2 -21 -2 -30 0 -10 3 -4
5 12 5 17 0 24 -2 18 -5z"/>
<path fill="#ffffff" stroke="none" d="M191 123 c13 -16 12 -17 -3 -4 -16 12
-18 11 -18 -3 0 -9 -4 -16 -10 -16 -5 0 -10 7 -10 16 0 14 -2 15 -17 3 -16
-13 -17 -12 -4 4 7 9 21 17 31 17 10 0 24 -8 31 -17z"/>
<path fill="#ffffff" stroke="none" d="M134 66 c-4 -17 -13 -26 -25 -26 -19 0
-19 1 2 30 26 34 33 33 23 -4z"/>
<path fill="#ffffff" stroke="none" d="M213 42 c-19 -5 -20 -3 -28 33 l-7 30
25 -30 c20 -24 22 -31 10 -33z"/>
<path fill="#ffffff" stroke="none" d="M67 18 c-3 -7 -5 -2 -5 12 0 14 2 19 5
13 2 -7 2 -19 0 -25z"/>
<path fill="#000000" stroke="none" d="M111 187 c-6 -6 -11 -15 -11 -20 0 -5
7 -1 16 8 12 12 19 13 30 4 11 -9 17 -9 28 0 11 9 18 8 30 -4 9 -9 16 -12 16
-7 0 27 -86 42 -109 19z"/>
</g>
</svg>
