<?xml version="1.0" standalone="no"?>
<!DOCTYPE svg PUBLIC "-//W3C//DTD SVG 20010904//EN"
 "http://www.w3.org/TR/2001/REC-SVG-20010904/DTD/svg10.dtd">
<svg version="1.0" xmlns="http://www.w3.org/2000/svg"
 width="32.000000pt" height="32.000000pt" viewBox="0 0 32.000000 32.000000"
 preserveAspectRatio="xMidYMid meet">
<metadata>
Created by potrace 1.16, written by Peter Selinger 2001-2019
</metadata>
<g transform="translate(0.000000,32.000000) scale(0.100000,-0.100000)"
fill="#000000" stroke="none">
<path fill="#000000" stroke="none" d="M118 312 c-54 -3 -58 -5 -58 -27 0 -20
-5 -25 -25 -25 l-25 0 0 -100 0 -100 25 0 c20 0 25 -5 25 -25 l0 -25 100 0
100 0 0 25 c0 20 5 25 25 25 l25 0 0 100 0 100 -25 0 c-20 0 -25 5 -25 24 0
21 -5 24 -42 27 -24 2 -69 3 -100 1z"/>
<path fill="#ffffff" stroke="none" d="M250 275 c0 -20 5 -25 25 -25 25 0 25
-1 25 -90 0 -89 0 -90 -25 -90 -20 0 -25 -5 -25 -25 0 -25 -1 -25 -90 -25 -89
0 -90 0 -90 25 0 20 -5 25 -25 25 -25 0 -25 1 -25 90 0 89 0 90 25 90 20 0 25
5 25 25 0 25 1 25 90 25 89 0 90 0 90 -25z"/>
<path fill="#000000" stroke="none" d="M105 260 c-8 -13 15 -24 27 -12 6 6 4
11 -6 15 -8 3 -18 2 -21 -3z"/>
<path fill="#000000" stroke="none" d="M161 244 c-13 -13 -20 -24 -14 -24 6 0
16 7 23 15 17 21 50 19 50 -2 0 -9 -12 -30 -27 -45 -27 -29 -41 -68 -23 -68 6
0 10 5 10 11 0 5 5 7 10 4 6 -3 10 -20 10 -36 0 -17 6 -32 15 -36 25 -9 30 5
16 40 -23 55 -25 77 -8 77 8 0 17 -7 21 -15 6 -16 36 -21 36 -6 0 5 -11 16
-25 25 -20 13 -24 22 -19 41 5 20 1 27 -21 35 -14 5 -27 10 -28 9 -1 -1 -13
-12 -26 -25z"/>
<path fill="#000000" stroke="none" d="M140 196 c-35 -34 -48 -42 -58 -33 -11
9 -13 6 -11 -15 2 -14 -2 -33 -10 -42 -18 -21 -6 -33 15 -15 9 8 28 12 42 10
21 -2 24 0 15 11 -9 10 -1 23 33 58 44 45 55 70 31 70 -7 0 -32 -20 -57 -44z"/>
<path fill="#000000" stroke="none" d="M252 221 c4 -13 18 -16 19 -4 0 4 -5 9
-11 12 -7 2 -11 -2 -8 -8z"/>
</g>
</svg>
