<?xml version="1.0" standalone="no"?>
<!DOCTYPE svg PUBLIC "-//W3C//DTD SVG 20010904//EN"
 "http://www.w3.org/TR/2001/REC-SVG-20010904/DTD/svg10.dtd">
<svg version="1.0" xmlns="http://www.w3.org/2000/svg"
 width="32.000000pt" height="32.000000pt" viewBox="0 0 32.000000 32.000000"
 preserveAspectRatio="xMidYMid meet">
<metadata>
Created by potrace 1.16, written by Peter Selinger 2001-2019
</metadata>
<g transform="translate(0.000000,32.000000) scale(0.100000,-0.100000)"
fill="#000000" stroke="none">
<path fill="#000000" stroke="none" d="M70 275 c0 -20 -5 -25 -25 -25 -25 0
-25 0 -25 -95 0 -95 0 -95 25 -95 20 0 25 -5 25 -25 0 -25 0 -25 95 -25 95 0
95 0 95 25 0 20 5 25 25 25 25 0 25 0 25 95 0 95 0 95 -25 95 -20 0 -25 5 -25
25 0 25 0 25 -95 25 -95 0 -95 0 -95 -25z"/>
<path fill="#ffffff" stroke="none" d="M185 260 c4 -6 -6 -10 -22 -9 -25 0
-26 1 -8 9 11 5 21 9 22 9 1 1 5 -3 8 -9z"/>
<path fill="#ffffff" stroke="none" d="M210 180 l0 -60 -52 -2 -53 -1 55 -7
55 -7 -55 1 -55 1 -3 54 c-4 76 -1 81 58 81 l50 0 0 -60z"/>
<path fill="#ffffff" stroke="none" d="M87 214 c-3 -3 -12 -4 -19 -1 -8 3 -5
6 6 6 11 1 17 -2 13 -5z"/>
<path fill="#ffffff" stroke="none" d="M234 171 c1 -17 -1 -31 -6 -31 -4 0 -8
17 -8 37 0 43 11 38 14 -6z"/>
<path fill="#ffffff" stroke="none" d="M89 156 c-2 -25 -5 -43 -8 -41 -3 2 -5
18 -4 37 2 47 2 48 8 48 3 0 5 -20 4 -44z"/>
<path fill="#ffffff" stroke="none" d="M200 72 c0 -12 -3 -12 -15 -2 -8 7 -21
10 -30 7 -8 -4 -17 -2 -20 4 -4 6 7 9 29 7 23 -1 36 -7 36 -16z"/>
<path fill="#000000" stroke="none" d="M122 211 c4 -13 18 -16 19 -4 0 4 -5 9
-11 12 -7 2 -11 -2 -8 -8z"/>
<path fill="#000000" stroke="none" d="M175 211 c-6 -11 9 -23 19 -14 9 9 7
23 -3 23 -6 0 -12 -4 -16 -9z"/>
<path fill="#000000" stroke="none" d="M150 165 c0 -6 7 -12 15 -12 8 0 15 6
15 12 0 6 -7 12 -15 12 -8 0 -15 -6 -15 -12z"/>
<path fill="#000000" stroke="none" d="M125 160 c-3 -5 -1 -10 4 -10 6 0 11 5
11 10 0 6 -2 10 -4 10 -3 0 -8 -4 -11 -10z"/>
</g>
</svg>
