<?xml version="1.0" standalone="no"?>
<!DOCTYPE svg PUBLIC "-//W3C//DTD SVG 20010904//EN"
 "http://www.w3.org/TR/2001/REC-SVG-20010904/DTD/svg10.dtd">
<svg version="1.0" xmlns="http://www.w3.org/2000/svg"
 width="32.000000pt" height="32.000000pt" viewBox="0 0 32.000000 32.000000"
 preserveAspectRatio="xMidYMid meet">
<metadata>
Created by potrace 1.16, written by Peter Selinger 2001-2019
</metadata>
<g transform="translate(0.000000,32.000000) scale(0.100000,-0.100000)"
fill="#000000" stroke="none">
<path fill="#000000" stroke="none" d="M70 275 c0 -20 -5 -25 -25 -25 -25 0
-25 0 -25 -95 0 -95 0 -95 25 -95 20 0 25 -5 25 -25 0 -25 0 -25 95 -25 95 0
95 0 95 25 0 20 5 25 25 25 25 0 25 0 25 95 0 95 0 95 -25 95 -20 0 -25 5 -25
25 0 25 0 25 -95 25 -95 0 -95 0 -95 -25z"/>
<path fill="#ffffff" stroke="none" d="M173 273 c-7 -2 -19 -2 -25 0 -7 3 -2
5 12 5 14 0 19 -2 13 -5z"/>
<path fill="#ffffff" stroke="none" d="M170 245 c0 -8 -4 -15 -10 -15 -5 0
-10 7 -10 15 0 8 5 15 10 15 6 0 10 -7 10 -15z"/>
<path fill="#ffffff" stroke="none" d="M220 214 c0 -7 -8 -11 -17 -10 -14 1
-19 -8 -21 -37 -3 -29 -7 -37 -18 -33 -8 3 -12 2 -9 -3 11 -19 -28 -30 -56
-16 -15 8 -30 11 -34 7 -5 -4 -5 -1 -1 5 6 10 13 10 34 -1 38 -19 48 -11 44
34 -4 37 11 57 20 28 3 -7 7 -5 11 5 6 16 2 17 -33 14 -25 -2 -40 0 -40 7 0 7
23 11 60 11 38 0 60 -4 60 -11z"/>
<path fill="#ffffff" stroke="none" d="M248 133 c-9 -9 -27 -17 -40 -19 -13
-1 -26 -3 -30 -3 -3 -1 -4 -11 0 -23 3 -14 2 -19 -6 -14 -8 4 -12 0 -12 -11 0
-15 -2 -16 -10 -3 -15 23 -12 43 6 36 8 -3 12 -2 9 3 -7 12 9 22 41 26 14 1
30 7 37 14 6 6 13 11 16 11 3 0 -2 -7 -11 -17z"/>
<path fill="#ffffff" stroke="none" d="M70 80 c8 -5 11 -10 5 -10 -5 0 -17 5
-25 10 -8 5 -10 10 -5 10 6 0 17 -5 25 -10z"/>
<path fill="#ffffff" stroke="none" d="M270 80 c-8 -5 -19 -10 -25 -10 -5 0
-3 5 5 10 8 5 20 10 25 10 6 0 3 -5 -5 -10z"/>
</g>
</svg>
