<?xml version="1.0" standalone="no"?>
<!DOCTYPE svg PUBLIC "-//W3C//DTD SVG 20010904//EN"
 "http://www.w3.org/TR/2001/REC-SVG-20010904/DTD/svg10.dtd">
<svg version="1.0" xmlns="http://www.w3.org/2000/svg"
 width="32.000000pt" height="32.000000pt" viewBox="0 0 32.000000 32.000000"
 preserveAspectRatio="xMidYMid meet">
<metadata>
Created by potrace 1.16, written by Peter Selinger 2001-2019
</metadata>
<g transform="translate(0.000000,32.000000) scale(0.100000,-0.100000)"
fill="#000000" stroke="none">
<path fill="#000000" stroke="none" d="M0 160 l0 -160 160 0 160 0 0 160 0
160 -160 0 -160 0 0 -160z"/>
<path fill="#ffffff" stroke="none" d="M168 303 c-94 -4 -98 -5 -98 -26 0 -16
-9 -27 -27 -35 -19 -8 -21 -11 -7 -8 13 2 21 -2 21 -11 0 -8 -6 -12 -16 -8
-13 5 -14 4 -3 -6 13 -14 17 -33 4 -25 -4 2 -9 -5 -9 -17 -2 -18 1 -17 17 8
l20 30 0 -28 c0 -16 -4 -26 -10 -22 -9 6 -15 -16 -11 -39 5 -22 -10 -53 -24
-53 -12 0 -15 17 -15 99 0 98 0 98 25 98 20 0 25 5 25 25 l0 25 103 -2 102 -2
-97 -3z"/>
<path fill="#ffffff" stroke="none" d="M209 264 c31 -26 40 -57 21 -69 -6 -4
-8 -9 -6 -13 2 -4 -2 -15 -9 -25 -13 -18 -14 -17 -20 2 -3 12 -11 19 -16 16
-5 -4 -9 1 -9 9 0 9 -4 16 -10 16 -5 0 -10 -7 -10 -16 0 -8 -4 -13 -9 -9 -5 3
-13 -4 -16 -16 -6 -19 -7 -20 -20 -2 -7 10 -11 21 -9 25 2 4 0 9 -6 13 -30 19
26 95 70 95 10 0 32 -12 49 -26z"/>
<path fill="#ffffff" stroke="none" d="M303 249 c-8 -8 -16 -8 -30 0 -16 9
-14 10 12 11 21 0 26 -3 18 -11z"/>
<path fill="#ffffff" stroke="none" d="M305 142 c0 -74 -1 -79 -18 -70 -10 5
-17 19 -17 31 4 40 0 58 -10 52 -6 -4 -10 6 -10 22 l0 28 20 -30 c16 -25 19
-26 17 -8 0 12 -5 19 -9 17 -13 -8 -9 11 5 25 10 10 9 11 -4 6 -10 -4 -16 0
-16 9 0 10 6 12 21 7 18 -7 20 -17 21 -89z"/>
<path fill="#ffffff" stroke="none" d="M93 79 c12 -10 16 -18 10 -19 -7 0 -13
-5 -13 -11 0 -5 5 -7 12 -3 7 4 8 3 4 -4 -4 -7 -14 -12 -22 -12 -8 0 -12 -4
-9 -10 3 -5 2 -10 -3 -10 -5 0 -12 13 -14 30 -3 16 -2 30 2 30 3 0 5 17 4 38
-2 20 0 26 3 13 2 -13 15 -32 26 -42z"/>
<path fill="#ffffff" stroke="none" d="M255 81 c-7 -50 -24 -66 -41 -39 -4 7
-3 8 4 4 7 -4 12 -2 12 3 0 6 -6 11 -12 11 -7 1 -3 9 10 19 12 11 22 29 22 42
0 12 3 20 6 16 3 -3 3 -29 -1 -56z"/>
<path fill="#ffffff" stroke="none" d="M170 116 c-7 -7 -13 -7 -20 0 -6 6 -3
10 10 10 13 0 16 -4 10 -10z"/>
<path fill="#000000" stroke="none" d="M90 226 c0 -8 7 -17 16 -20 30 -11 37
-6 19 14 -21 23 -35 26 -35 6z"/>
<path fill="#000000" stroke="none" d="M195 220 c-18 -20 -11 -25 19 -14 17 6
23 34 8 34 -5 0 -17 -9 -27 -20z"/>
</g>
</svg>
