<?xml version="1.0" standalone="no"?>
<!DOCTYPE svg PUBLIC "-//W3C//DTD SVG 20010904//EN"
 "http://www.w3.org/TR/2001/REC-SVG-20010904/DTD/svg10.dtd">
<svg version="1.0" xmlns="http://www.w3.org/2000/svg"
 width="32.000000pt" height="32.000000pt" viewBox="0 0 32.000000 32.000000"
 preserveAspectRatio="xMidYMid meet">
<metadata>
Created by potrace 1.16, written by Peter Selinger 2001-2019
</metadata>
<g transform="translate(0.000000,32.000000) scale(0.100000,-0.100000)"
fill="#000000" stroke="none">
<path fill="#000000" stroke="none" d="M0 160 l0 -160 160 0 160 0 0 160 0
160 -160 0 -160 0 0 -160z"/>
<path fill="#ffffff" stroke="none" d="M168 303 c-97 -4 -98 -4 -98 -28 0 -20
-5 -25 -25 -25 -24 0 -24 -1 -28 -97 l-3 -98 -2 103 -2 102 25 0 c20 0 25 5
25 25 l0 25 103 -2 102 -2 -97 -3z"/>
<path fill="#ffffff" stroke="none" d="M170 231 c0 -22 -4 -43 -10 -46 -6 -4
-10 12 -10 39 0 25 5 46 10 46 6 0 10 -18 10 -39z"/>
<path fill="#ffffff" stroke="none" d="M199 208 c-2 -29 0 -59 5 -67 6 -10 5
-12 -2 -7 -13 8 -17 -6 -5 -18 4 -3 17 6 29 21 12 16 25 25 28 22 7 -7 -27
-74 -49 -99 -22 -25 -70 -22 -92 4 -18 21 -18 21 3 4 30 -26 41 -22 16 5 -34
36 -20 87 24 87 22 0 24 4 24 50 0 29 4 50 11 50 7 0 10 -19 8 -52z"/>
<path fill="#ffffff" stroke="none" d="M303 253 c-7 -2 -21 -2 -30 0 -10 3 -4
5 12 5 17 0 24 -2 18 -5z"/>
<path fill="#ffffff" stroke="none" d="M140 216 c0 -19 -4 -38 -10 -41 -6 -4
-10 10 -10 34 0 23 5 41 10 41 6 0 10 -15 10 -34z"/>
<path fill="#ffffff" stroke="none" d="M110 186 c0 -14 -4 -28 -10 -31 -6 -4
-10 7 -10 24 0 17 5 31 10 31 6 0 10 -11 10 -24z"/>
<path fill="#ffffff" stroke="none" d="M67 23 c-3 -10 -5 -5 -5 12 0 17 2 24
5 18 2 -7 2 -21 0 -30z"/>
<path fill="#000000" stroke="none" d="M130 115 c-15 -18 2 -45 30 -45 28 0
45 27 30 45 -16 19 -44 19 -60 0z"/>
<path fill="#ffffff" stroke="none" d="M170 100 c0 -5 -4 -10 -10 -10 -5 0
-10 5 -10 10 0 6 5 10 10 10 6 0 10 -4 10 -10z"/>
</g>
</svg>
