<?xml version="1.0" standalone="no"?>
<!DOCTYPE svg PUBLIC "-//W3C//DTD SVG 20010904//EN"
 "http://www.w3.org/TR/2001/REC-SVG-20010904/DTD/svg10.dtd">
<svg version="1.0" xmlns="http://www.w3.org/2000/svg"
 width="32.000000pt" height="32.000000pt" viewBox="0 0 32.000000 32.000000"
 preserveAspectRatio="xMidYMid meet">
<metadata>
Created by potrace 1.16, written by Peter Selinger 2001-2019
</metadata>
<g transform="translate(0.000000,32.000000) scale(0.100000,-0.100000)"
fill="#000000" stroke="none">
<path fill="#000000" stroke="none" d="M118 312 c-54 -3 -58 -5 -58 -27 0 -20
-5 -25 -25 -25 l-25 0 0 -100 0 -100 25 0 c20 0 25 -5 25 -25 l0 -25 100 0
100 0 0 25 c0 20 5 25 25 25 l25 0 0 100 0 100 -25 0 c-20 0 -25 5 -25 24 0
21 -5 24 -42 27 -24 2 -69 3 -100 1z"/>
<path fill="#ffffff" stroke="none" d="M250 275 c0 -20 5 -25 25 -25 25 0 25
-1 25 -90 0 -89 0 -90 -25 -90 -20 0 -25 -5 -25 -25 0 -25 -1 -25 -90 -25 -89
0 -90 0 -90 25 0 20 -5 25 -25 25 -25 0 -25 1 -25 90 0 89 0 90 25 90 20 0 25
5 25 25 0 25 1 25 90 25 89 0 90 0 90 -25z"/>
<path fill="#000000" stroke="none" d="M131 256 c-27 -29 -51 -104 -51 -163 0
-38 3 -43 23 -43 16 0 19 2 8 9 -33 21 10 176 49 176 39 0 82 -155 49 -176
-11 -7 -8 -9 9 -9 19 0 22 5 22 43 0 59 -24 134 -51 163 -12 13 -25 24 -29 24
-4 0 -17 -11 -29 -24z"/>
<path fill="#000000" stroke="none" d="M136 198 c-22 -31 -20 -71 4 -99 l20
-24 20 24 c11 13 20 35 20 50 0 28 -24 71 -40 71 -5 0 -16 -10 -24 -22z"/>
<path fill="#ffffff" stroke="none" d="M176 159 c10 -17 -13 -36 -27 -22 -12
12 -4 33 11 33 5 0 12 -5 16 -11z"/>
</g>
</svg>
