<?xml version="1.0" standalone="no"?>
<!DOCTYPE svg PUBLIC "-//W3C//DTD SVG 20010904//EN"
 "http://www.w3.org/TR/2001/REC-SVG-20010904/DTD/svg10.dtd">
<svg version="1.0" xmlns="http://www.w3.org/2000/svg"
 width="32.000000pt" height="32.000000pt" viewBox="0 0 32.000000 32.000000"
 preserveAspectRatio="xMidYMid meet">
<metadata>
Created by potrace 1.16, written by Peter Selinger 2001-2019
</metadata>
<g transform="translate(0.000000,32.000000) scale(0.100000,-0.100000)"
fill="#000000" stroke="none">
<path fill="#000000" stroke="none" d="M0 160 l0 -160 160 0 160 0 0 160 0
160 -160 0 -160 0 0 -160z"/>
<path fill="#ffffff" stroke="none" d="M168 303 c-97 -4 -98 -4 -98 -28 0 -20
-5 -25 -25 -25 -24 0 -24 -1 -28 -97 l-3 -98 -2 103 -2 102 25 0 c20 0 25 5
25 25 l0 25 103 -2 102 -2 -97 -3z"/>
<path fill="#ffffff" stroke="none" d="M190 270 c12 7 20 7 16 2 -3 -6 0 -13
6 -15 8 -3 4 -6 -7 -7 -17 -2 -16 -3 5 -9 14 -4 27 -17 31 -31 6 -21 7 -22 9
-5 1 11 4 15 7 7 2 -6 9 -9 15 -6 5 4 4 -4 -2 -17 -10 -18 -10 -24 -1 -27 7
-2 -2 -15 -20 -28 -27 -20 -30 -24 -13 -25 16 -1 17 -2 2 -6 -10 -2 -18 -9
-18 -14 0 -6 -10 -4 -22 2 -28 15 -31 15 -39 -8 -7 -16 -8 -16 -8 4 -1 16 -6
20 -20 16 -31 -8 -64 -49 -58 -73 3 -11 1 -20 -3 -20 -22 0 -14 57 12 88 29
34 35 52 17 52 -5 0 -7 5 -4 10 3 6 -4 10 -17 11 l-23 1 24 7 c23 6 23 7 7 24
-15 15 -15 17 -2 17 9 0 16 8 17 18 0 16 1 16 7 0 6 -15 10 -13 27 12 11 17
22 25 26 18 4 -7 13 -6 29 2z"/>
<path fill="#ffffff" stroke="none" d="M303 253 c-7 -2 -21 -2 -30 0 -10 3 -4
5 12 5 17 0 24 -2 18 -5z"/>
</g>
</svg>
