<?xml version="1.0" standalone="no"?>
<!DOCTYPE svg PUBLIC "-//W3C//DTD SVG 20010904//EN"
 "http://www.w3.org/TR/2001/REC-SVG-20010904/DTD/svg10.dtd">
<svg version="1.0" xmlns="http://www.w3.org/2000/svg"
 width="32.000000pt" height="32.000000pt" viewBox="0 0 32.000000 32.000000"
 preserveAspectRatio="xMidYMid meet">
<metadata>
Created by potrace 1.16, written by Peter Selinger 2001-2019
</metadata>
<g transform="translate(0.000000,32.000000) scale(0.100000,-0.100000)"
fill="#000000" stroke="none">
<path fill="#000000" stroke="none" d="M0 160 l0 -160 160 0 160 0 0 160 0
160 -160 0 -160 0 0 -160z"/>
<path fill="#ffffff" stroke="none" d="M168 303 c-97 -4 -98 -4 -98 -28 0 -20
-5 -25 -25 -25 -24 0 -24 -1 -28 -97 l-3 -98 -2 103 -2 102 25 0 c20 0 25 5
25 25 l0 25 103 -2 102 -2 -97 -3z"/>
<path fill="#ffffff" stroke="none" d="M303 253 c-7 -2 -21 -2 -30 0 -10 3 -4
5 12 5 17 0 24 -2 18 -5z"/>
<path fill="#ffffff" stroke="none" d="M120 130 c12 -43 0 -30 -16 16 -7 20
-8 32 -3 27 5 -5 14 -24 19 -43z"/>
<path fill="#ffffff" stroke="none" d="M154 168 c5 -10 7 -10 12 0 11 23 22
12 15 -15 -4 -16 -14 -28 -21 -28 -7 0 -17 12 -21 28 -7 27 4 38 15 15z"/>
<path fill="#ffffff" stroke="none" d="M216 145 c-7 -19 -15 -38 -19 -41 -7
-8 8 50 18 66 12 20 13 10 1 -25z"/>
<path fill="#ffffff" stroke="none" d="M90 134 c0 -8 -4 -14 -8 -14 -4 0 -8 9
-8 19 0 11 4 17 8 15 4 -3 8 -12 8 -20z"/>
<path fill="#ffffff" stroke="none" d="M246 140 c0 -11 -4 -20 -8 -20 -10 0
-11 24 -1 33 9 9 9 10 9 -13z"/>
<path fill="#ffffff" stroke="none" d="M67 23 c-3 -10 -5 -5 -5 12 0 17 2 24
5 18 2 -7 2 -21 0 -30z"/>
</g>
</svg>
