<?xml version="1.0" standalone="no"?>
<!DOCTYPE svg PUBLIC "-//W3C//DTD SVG 20010904//EN"
 "http://www.w3.org/TR/2001/REC-SVG-20010904/DTD/svg10.dtd">
<svg version="1.0" xmlns="http://www.w3.org/2000/svg"
 width="32.000000pt" height="32.000000pt" viewBox="0 0 32.000000 32.000000"
 preserveAspectRatio="xMidYMid meet">
<metadata>
Created by potrace 1.16, written by Peter Selinger 2001-2019
</metadata>
<g transform="translate(0.000000,32.000000) scale(0.100000,-0.100000)"
fill="#000000" stroke="none">
<path fill="#000000" stroke="none" d="M0 160 l0 -160 160 0 160 0 0 160 0
160 -160 0 -160 0 0 -160z"/>
<path fill="#ffffff" stroke="none" d="M168 303 c-97 -4 -98 -4 -98 -28 0 -20
-5 -25 -25 -25 -24 0 -24 -1 -28 -97 l-3 -98 -2 103 -2 102 25 0 c20 0 25 5
25 25 l0 25 103 -2 102 -2 -97 -3z"/>
<path fill="#ffffff" stroke="none" d="M140 234 c-18 -21 -24 -10 -8 15 7 12
14 17 16 11 2 -6 -2 -17 -8 -26z"/>
<path fill="#ffffff" stroke="none" d="M200 226 c0 -5 -7 -3 -15 4 -8 7 -15
20 -15 28 0 13 3 12 15 -4 8 -10 15 -23 15 -28z"/>
<path fill="#ffffff" stroke="none" d="M303 253 c-7 -2 -21 -2 -30 0 -10 3 -4
5 12 5 17 0 24 -2 18 -5z"/>
<path fill="#ffffff" stroke="none" d="M69 228 c14 -8 16 -14 7 -23 -8 -10
-14 -9 -23 4 -23 30 -16 39 16 19z"/>
<path fill="#ffffff" stroke="none" d="M280 235 c0 -3 -5 -14 -12 -24 -8 -14
-14 -16 -23 -7 -10 8 -9 14 4 23 17 13 31 17 31 8z"/>
<path fill="#ffffff" stroke="none" d="M150 184 c0 -20 -7 -17 -20 6 -9 16 -8
18 5 14 8 -4 15 -12 15 -20z"/>
<path fill="#ffffff" stroke="none" d="M189 188 c-9 -16 -14 -19 -17 -9 -2 7
2 17 9 22 20 13 21 11 8 -13z"/>
<path fill="#ffffff" stroke="none" d="M96 160 c0 -21 -11 -26 -21 -10 -7 11
2 30 13 30 4 0 8 -9 8 -20z"/>
<path fill="#ffffff" stroke="none" d="M245 160 c0 -7 -5 -15 -10 -17 -6 -2
-11 6 -11 17 0 11 5 19 11 17 5 -2 10 -10 10 -17z"/>
<path fill="#ffffff" stroke="none" d="M150 136 c0 -8 -7 -16 -15 -20 -13 -4
-14 -2 -5 14 13 23 20 26 20 6z"/>
<path fill="#ffffff" stroke="none" d="M190 130 c9 -16 8 -18 -5 -14 -8 4 -15
12 -15 20 0 20 7 17 20 -6z"/>
<path fill="#ffffff" stroke="none" d="M68 92 c-25 -18 -33 -10 -17 16 9 15
15 17 24 8 10 -8 8 -14 -7 -24z"/>
<path fill="#ffffff" stroke="none" d="M277 84 c-3 -3 -14 0 -25 7 -15 9 -17
15 -8 24 8 10 14 8 24 -7 8 -11 12 -22 9 -24z"/>
<path fill="#ffffff" stroke="none" d="M150 62 c0 -13 -3 -12 -15 4 -19 25
-19 40 0 24 8 -7 15 -20 15 -28z"/>
<path fill="#ffffff" stroke="none" d="M186 68 c-11 -15 -16 -18 -16 -7 0 16
21 42 28 34 2 -2 -3 -14 -12 -27z"/>
<path fill="#ffffff" stroke="none" d="M67 23 c-3 -10 -5 -5 -5 12 0 17 2 24
5 18 2 -7 2 -21 0 -30z"/>
</g>
</svg>
