<?xml version="1.0" standalone="no"?>
<!DOCTYPE svg PUBLIC "-//W3C//DTD SVG 20010904//EN"
 "http://www.w3.org/TR/2001/REC-SVG-20010904/DTD/svg10.dtd">
<svg version="1.0" xmlns="http://www.w3.org/2000/svg"
 width="32.000000pt" height="32.000000pt" viewBox="0 0 32.000000 32.000000"
 preserveAspectRatio="xMidYMid meet">
<metadata>
Created by potrace 1.16, written by Peter Selinger 2001-2019
</metadata>
<g transform="translate(0.000000,32.000000) scale(0.100000,-0.100000)"
fill="#000000" stroke="none">
<path fill="#000000" stroke="none" d="M60 285 c0 -20 -5 -25 -25 -25 l-25 0
2 -102 2 -103 3 98 c4 96 4 97 28 97 20 0 25 5 25 25 0 24 1 24 98 28 l97 3
-102 2 -103 2 0 -25z"/>
<path fill="#000000" stroke="none" d="M273 253 c9 -2 23 -2 30 0 6 3 -1 5
-18 5 -16 0 -22 -2 -12 -5z"/>
<path fill="#000000" stroke="none" d="M115 241 c-3 -5 -2 -12 3 -15 5 -3 9 1
9 9 0 17 -3 19 -12 6z"/>
<path fill="#000000" stroke="none" d="M193 235 c0 -8 4 -12 9 -9 5 3 6 10 3
15 -9 13 -12 11 -12 -6z"/>
<path fill="#000000" stroke="none" d="M87 220 c10 -11 6 -18 -22 -37 -27 -18
-35 -30 -34 -51 1 -22 2 -23 6 -5 2 12 11 27 19 33 11 10 14 9 14 -8 0 -12 3
-23 8 -25 4 -3 7 9 7 26 0 24 4 32 17 31 14 -1 15 2 8 17 -6 10 -16 21 -23 25
-9 5 -9 4 0 -6z"/>
<path fill="#000000" stroke="none" d="M223 218 c-21 -28 -22 -36 -5 -34 13 1
17 -7 17 -31 0 -17 3 -29 7 -26 5 2 8 13 8 25 0 17 3 18 14 8 8 -6 17 -21 19
-33 4 -18 5 -17 6 5 1 21 -7 33 -34 51 -26 18 -32 26 -23 35 7 7 9 12 6 12 -3
0 -10 -6 -15 -12z"/>
<path fill="#000000" stroke="none" d="M146 198 c3 -4 -1 -8 -8 -8 -8 0 -6 -5
5 -11 11 -7 23 -7 35 0 10 6 12 11 4 11 -7 0 -11 4 -8 8 2 4 -4 8 -14 8 -10 0
-16 -4 -14 -8z"/>
<path fill="#000000" stroke="none" d="M124 158 c-5 -7 -9 -21 -9 -30 -1 -14
1 -15 12 -7 10 9 13 7 13 -6 0 -10 3 -16 6 -12 4 3 3 14 -1 24 -5 10 -7 24 -6
31 2 15 -6 16 -15 0z"/>
<path fill="#000000" stroke="none" d="M181 160 c1 -8 -1 -23 -6 -33 -4 -10
-5 -21 -1 -24 3 -4 6 2 6 12 0 13 3 15 13 6 11 -8 13 -6 12 9 -1 11 -7 26 -14
33 -10 9 -12 9 -10 -3z"/>
<path fill="#000000" stroke="none" d="M62 35 c0 -17 2 -22 5 -12 2 9 2 23 0
30 -3 6 -5 -1 -5 -18z"/>
</g>
</svg>
