<?xml version="1.0" standalone="no"?>
<!DOCTYPE svg PUBLIC "-//W3C//DTD SVG 20010904//EN"
 "http://www.w3.org/TR/2001/REC-SVG-20010904/DTD/svg10.dtd">
<svg version="1.0" xmlns="http://www.w3.org/2000/svg"
 width="32.000000pt" height="32.000000pt" viewBox="0 0 32.000000 32.000000"
 preserveAspectRatio="xMidYMid meet">
<metadata>
Created by potrace 1.16, written by Peter Selinger 2001-2019
</metadata>
<g transform="translate(0.000000,32.000000) scale(0.100000,-0.100000)"
fill="#000000" stroke="none">
<path fill="#000000" stroke="none" d="M0 160 l0 -160 160 0 160 0 0 160 0
160 -160 0 -160 0 0 -160z"/>
<path fill="#ffffff" stroke="none" d="M260 285 c0 -20 5 -25 25 -25 l25 0 0
-100 0 -100 -25 0 c-20 0 -25 -5 -25 -25 l0 -25 -100 0 -100 0 0 25 c0 20 -5
25 -25 25 l-25 0 0 100 0 100 25 0 c20 0 25 5 25 25 l0 25 100 0 100 0 0 -25z"/>
<path fill="#000000" stroke="none" d="M70 275 c0 -20 -5 -25 -25 -25 -25 0
-25 -1 -25 -90 0 -89 0 -90 25 -90 20 0 25 -5 25 -25 0 -25 1 -25 90 -25 89 0
90 0 90 25 0 20 5 25 25 25 25 0 25 1 25 90 0 89 0 90 -25 90 -20 0 -25 5 -25
25 0 25 -1 25 -90 25 -89 0 -90 0 -90 -25z"/>
<path fill="#ffffff" stroke="none" d="M115 220 c-3 -27 0 -52 5 -55 6 -4 10
6 10 22 0 15 5 35 10 43 7 11 10 5 10 -22 0 -21 5 -38 10 -38 6 0 10 17 10 38
0 27 3 33 10 22 5 -8 10 -28 10 -43 0 -16 4 -26 10 -22 5 3 8 28 5 56 -2 31 0
47 6 43 5 -3 9 -13 8 -22 -1 -10 -1 -24 0 -32 1 -13 2 -13 11 0 8 12 10 10 10
-11 0 -14 -6 -31 -13 -39 -6 -8 -2 -6 11 5 l23 19 -9 -25 c-5 -13 -6 -34 -1
-46 7 -18 5 -21 -8 -16 -12 5 -14 3 -8 -7 6 -10 4 -10 -11 -2 -13 7 -24 6 -41
-5 -21 -14 -25 -14 -46 0 -17 11 -28 12 -41 5 -15 -8 -17 -8 -11 2 6 10 4 12
-8 7 -13 -5 -14 -2 -8 16 5 12 4 33 -1 47 l-9 24 23 -19 c13 -11 17 -13 11 -5
-7 8 -13 25 -13 39 0 21 2 23 10 11 9 -13 10 -13 11 0 1 8 1 19 0 24 -1 5 0
15 3 22 11 27 15 13 11 -36z"/>
<path fill="#000000" stroke="none" d="M131 130 c0 -8 6 -24 14 -34 15 -20 15
-20 30 0 8 10 14 26 14 34 0 9 -5 6 -11 -7 -6 -13 -14 -23 -18 -23 -4 0 -12
10 -18 23 -6 13 -11 16 -11 7z"/>
<path fill="#000000" stroke="none" d="M90 109 c0 -5 5 -7 10 -4 6 3 10 8 10
11 0 2 -4 4 -10 4 -5 0 -10 -5 -10 -11z"/>
<path fill="#000000" stroke="none" d="M215 110 c3 -5 8 -10 11 -10 2 0 4 5 4
10 0 6 -5 10 -11 10 -5 0 -7 -4 -4 -10z"/>
</g>
</svg>
