<?xml version="1.0" standalone="no"?>
<!DOCTYPE svg PUBLIC "-//W3C//DTD SVG 20010904//EN"
 "http://www.w3.org/TR/2001/REC-SVG-20010904/DTD/svg10.dtd">
<svg version="1.0" xmlns="http://www.w3.org/2000/svg"
 width="32.000000pt" height="32.000000pt" viewBox="0 0 32.000000 32.000000"
 preserveAspectRatio="xMidYMid meet">
<metadata>
Created by potrace 1.16, written by Peter Selinger 2001-2019
</metadata>
<g transform="translate(0.000000,32.000000) scale(0.100000,-0.100000)"
fill="#000000" stroke="none">
<path fill="#000000" stroke="none" d="M60 285 c0 -20 -5 -25 -25 -25 l-25 0
0 -100 0 -100 25 0 c20 0 25 -5 25 -25 l0 -25 100 0 100 0 0 25 c0 20 5 25 25
25 l25 0 0 100 0 100 -25 0 c-20 0 -25 5 -25 25 l0 25 -100 0 -100 0 0 -25z"/>
<path fill="#ffffff" stroke="none" d="M250 275 c0 -20 5 -25 25 -25 25 0 25
-1 25 -90 0 -89 0 -90 -25 -90 -20 0 -25 -5 -25 -25 0 -25 -1 -25 -90 -25 -89
0 -90 0 -90 25 0 20 -5 25 -25 25 -25 0 -25 1 -25 90 0 89 0 90 25 90 20 0 25
5 25 25 0 25 1 25 90 25 89 0 90 0 90 -25z"/>
<path fill="#000000" stroke="none" d="M170 239 c0 -11 -7 -19 -16 -19 -10 0
-14 -6 -10 -15 3 -9 -1 -15 -11 -15 -12 0 -13 -3 -4 -14 8 -10 4 -23 -19 -55
l-30 -41 41 30 c32 23 45 27 55 19 11 -9 14 -8 14 4 0 10 6 14 15 11 9 -4 15
0 15 10 0 9 8 16 19 16 18 0 18 2 5 30 -8 16 -28 36 -44 44 -28 13 -30 13 -30
-5z"/>
</g>
</svg>
