<?xml version="1.0" standalone="no"?>
<!DOCTYPE svg PUBLIC "-//W3C//DTD SVG 20010904//EN"
 "http://www.w3.org/TR/2001/REC-SVG-20010904/DTD/svg10.dtd">
<svg version="1.0" xmlns="http://www.w3.org/2000/svg"
 width="32.000000pt" height="32.000000pt" viewBox="0 0 32.000000 32.000000"
 preserveAspectRatio="xMidYMid meet">
<metadata>
Created by potrace 1.16, written by Peter Selinger 2001-2019
</metadata>
<g transform="translate(0.000000,32.000000) scale(0.100000,-0.100000)"
fill="#000000" stroke="none">
<path fill="#000000" stroke="none" d="M60 285 c0 -20 -5 -25 -25 -25 l-25 0
2 -102 2 -103 3 98 c4 96 4 97 28 97 20 0 25 5 25 25 0 24 1 24 98 28 l97 3
-102 2 -103 2 0 -25z"/>
<path fill="#000000" stroke="none" d="M273 253 c9 -2 23 -2 30 0 6 3 -1 5
-18 5 -16 0 -22 -2 -12 -5z"/>
<path fill="#000000" stroke="none" d="M40 236 c0 -2 8 -10 18 -17 15 -13 16
-12 3 4 -13 16 -21 21 -21 13z"/>
<path fill="#000000" stroke="none" d="M259 223 c-13 -16 -12 -17 4 -4 9 7 17
15 17 17 0 8 -8 3 -21 -13z"/>
<path fill="#000000" stroke="none" d="M74 169 c-3 -6 -2 -15 3 -20 5 -5 9 -1
9 11 0 23 -2 24 -12 9z"/>
<path fill="#000000" stroke="none" d="M234 160 c0 -13 4 -16 10 -10 7 7 7 13
0 20 -6 6 -10 3 -10 -10z"/>
<path fill="#000000" stroke="none" d="M49 93 c-13 -16 -12 -17 4 -4 16 13 21
21 13 21 -2 0 -10 -8 -17 -17z"/>
<path fill="#000000" stroke="none" d="M250 106 c0 -2 8 -10 18 -17 15 -13 16
-12 3 4 -13 16 -21 21 -21 13z"/>
<path fill="#000000" stroke="none" d="M62 35 c0 -17 2 -22 5 -12 2 9 2 23 0
30 -3 6 -5 -1 -5 -18z"/>
</g>
</svg>
