<?xml version="1.0" standalone="no"?>
<!DOCTYPE svg PUBLIC "-//W3C//DTD SVG 20010904//EN"
 "http://www.w3.org/TR/2001/REC-SVG-20010904/DTD/svg10.dtd">
<svg version="1.0" xmlns="http://www.w3.org/2000/svg"
 width="32.000000pt" height="32.000000pt" viewBox="0 0 32.000000 32.000000"
 preserveAspectRatio="xMidYMid meet">
<metadata>
Created by potrace 1.16, written by Peter Selinger 2001-2019
</metadata>
<g transform="translate(0.000000,32.000000) scale(0.100000,-0.100000)"
fill="#000000" stroke="none">
<path fill="#000000" stroke="none" d="M60 285 c0 -20 -5 -25 -25 -25 l-25 0
2 -102 2 -103 3 98 c4 96 4 97 28 97 20 0 25 5 25 25 0 24 1 24 98 28 l97 3
-102 2 -103 2 0 -25z"/>
<path fill="#000000" stroke="none" d="M150 250 c0 -5 5 -10 10 -10 6 0 10 5
10 10 0 6 -4 10 -10 10 -5 0 -10 -4 -10 -10z"/>
<path fill="#000000" stroke="none" d="M273 253 c9 -2 23 -2 30 0 6 3 -1 5
-18 5 -16 0 -22 -2 -12 -5z"/>
<path fill="#000000" stroke="none" d="M101 204 c-28 -36 -26 -66 5 -103 35
-42 73 -42 108 0 33 39 33 70 0 106 l-25 28 21 -31 c15 -22 20 -39 15 -54 -7
-23 -7 -23 -32 6 -19 23 -21 24 -9 4 22 -33 20 -57 -4 -70 -14 -8 -26 -8 -40
0 -24 13 -26 37 -4 70 12 20 10 19 -9 -4 -25 -29 -25 -29 -32 -6 -5 15 -1 31
14 51 27 36 20 38 -8 3z"/>
<path fill="#000000" stroke="none" d="M144 219 c-10 -17 13 -36 27 -22 12 12
4 33 -11 33 -5 0 -12 -5 -16 -11z"/>
<path fill="#000000" stroke="none" d="M51 148 c-2 -27 16 -65 34 -72 17 -6
13 5 -10 34 -7 8 -15 24 -18 35 -3 15 -5 16 -6 3z"/>
<path fill="#000000" stroke="none" d="M140 144 c-11 -12 -10 -18 3 -32 16
-15 18 -15 34 0 13 14 14 20 3 32 -16 20 -24 20 -40 0z"/>
<path fill="#000000" stroke="none" d="M260 142 c0 -11 -4 -24 -10 -27 -5 -3
-15 -15 -21 -26 -9 -19 -9 -19 9 -10 20 11 40 67 28 78 -3 4 -6 -3 -6 -15z"/>
<path fill="#000000" stroke="none" d="M58 40 c2 -17 7 -30 11 -30 4 0 6 13 3
30 -2 16 -7 30 -11 30 -4 0 -6 -13 -3 -30z"/>
</g>
</svg>
