<?xml version="1.0" standalone="no"?>
<!DOCTYPE svg PUBLIC "-//W3C//DTD SVG 20010904//EN"
 "http://www.w3.org/TR/2001/REC-SVG-20010904/DTD/svg10.dtd">
<svg version="1.0" xmlns="http://www.w3.org/2000/svg"
 width="32.000000pt" height="32.000000pt" viewBox="0 0 32.000000 32.000000"
 preserveAspectRatio="xMidYMid meet">
<metadata>
Created by potrace 1.16, written by Peter Selinger 2001-2019
</metadata>
<g transform="translate(0.000000,32.000000) scale(0.100000,-0.100000)"
fill="#000000" stroke="none">
<path fill="#000000" stroke="none" d="M60 285 c0 -20 -5 -25 -25 -25 l-25 0
2 -102 2 -103 3 98 c4 96 4 97 28 97 20 0 25 5 25 25 0 24 1 24 98 28 l97 3
-102 2 -103 2 0 -25z"/>
<path fill="#000000" stroke="none" d="M172 266 c-28 -9 -33 -15 -29 -34 4
-21 2 -23 -22 -18 l-26 6 23 -19 c13 -12 18 -22 12 -26 -6 -3 -8 -10 -6 -14 3
-4 -4 -22 -14 -39 l-19 -31 31 19 c17 10 35 17 39 14 4 -2 11 0 14 6 4 6 14 1
26 -12 l19 -23 -6 26 c-5 24 -3 26 18 22 19 -4 25 2 34 32 11 34 11 35 -7 19
-18 -16 -19 -16 -19 14 0 29 -3 32 -32 32 -30 0 -31 0 -13 20 10 11 16 19 14
19 -2 -1 -19 -7 -37 -13z"/>
<path fill="#000000" stroke="none" d="M273 253 c9 -2 23 -2 30 0 6 3 -1 5
-18 5 -16 0 -22 -2 -12 -5z"/>
<path fill="#000000" stroke="none" d="M58 40 c2 -17 7 -30 11 -30 4 0 6 13 3
30 -2 16 -7 30 -11 30 -4 0 -6 -13 -3 -30z"/>
</g>
</svg>
