<?xml version="1.0" standalone="no"?>
<!DOCTYPE svg PUBLIC "-//W3C//DTD SVG 20010904//EN"
 "http://www.w3.org/TR/2001/REC-SVG-20010904/DTD/svg10.dtd">
<svg version="1.0" xmlns="http://www.w3.org/2000/svg"
 width="32.000000pt" height="32.000000pt" viewBox="0 0 32.000000 32.000000"
 preserveAspectRatio="xMidYMid meet">
<metadata>
Created by potrace 1.16, written by Peter Selinger 2001-2019
</metadata>
<g transform="translate(0.000000,32.000000) scale(0.100000,-0.100000)"
fill="#000000" stroke="none">
<path fill="#000000" stroke="none" d="M60 285 c0 -20 -5 -25 -25 -25 l-25 0
2 -102 2 -103 3 98 c4 96 4 97 28 97 20 0 25 5 25 25 0 24 1 24 98 28 l97 3
-102 2 -103 2 0 -25z"/>
<path fill="#000000" stroke="none" d="M165 253 c-31 -8 -40 -20 -25 -38 11
-13 9 -15 -11 -15 -22 -1 -23 -2 -7 -14 10 -7 14 -16 10 -20 -4 -4 -7 -11 -7
-14 -1 -4 -7 -17 -14 -30 -12 -23 -12 -23 11 -11 13 7 26 13 30 14 3 0 10 3
14 7 4 4 13 0 20 -10 12 -16 13 -15 14 7 0 19 3 21 15 11 19 -16 31 -7 38 27
4 24 4 25 -8 10 -19 -26 -24 -21 -18 20 l6 36 -36 -6 c-41 -6 -46 -1 -19 19 9
7 15 13 12 13 -3 -1 -14 -3 -25 -6z"/>
<path fill="#000000" stroke="none" d="M273 253 c9 -2 23 -2 30 0 6 3 -1 5
-18 5 -16 0 -22 -2 -12 -5z"/>
<path fill="#000000" stroke="none" d="M62 35 c0 -17 2 -22 5 -12 2 9 2 23 0
30 -3 6 -5 -1 -5 -18z"/>
</g>
</svg>
