<?xml version="1.0" standalone="no"?>
<!DOCTYPE svg PUBLIC "-//W3C//DTD SVG 20010904//EN"
 "http://www.w3.org/TR/2001/REC-SVG-20010904/DTD/svg10.dtd">
<svg version="1.0" xmlns="http://www.w3.org/2000/svg"
 width="32.000000pt" height="32.000000pt" viewBox="0 0 32.000000 32.000000"
 preserveAspectRatio="xMidYMid meet">
<metadata>
Created by potrace 1.16, written by Peter Selinger 2001-2019
</metadata>
<g transform="translate(0.000000,32.000000) scale(0.100000,-0.100000)"
fill="#000000" stroke="none">
<path fill="#000000" stroke="none" d="M134 281 c4 -5 0 -13 -7 -18 -17 -10
-41 -53 -30 -53 4 0 16 14 26 31 16 30 20 31 65 25 30 -3 38 -2 22 3 -55 17
-82 22 -76 12z"/>
<path fill="#000000" stroke="none" d="M245 250 c-3 -5 -1 -11 4 -14 5 -3 7
-16 3 -28 -3 -13 -1 -19 5 -15 17 11 22 55 7 61 -7 3 -16 1 -19 -4z"/>
<path fill="#000000" stroke="none" d="M77 188 c-3 -7 -12 -30 -21 -50 -14
-34 -14 -38 -1 -38 8 0 15 9 15 20 0 12 7 34 15 50 9 17 11 30 6 30 -5 0 -11
-6 -14 -12z"/>
<path fill="#000000" stroke="none" d="M225 148 l-16 -33 21 24 c11 13 20 27
20 32 0 18 -10 8 -25 -23z"/>
<path fill="#000000" stroke="none" d="M187 77 l-17 -32 20 24 c17 20 26 41
18 41 -2 0 -11 -15 -21 -33z"/>
<path fill="#000000" stroke="none" d="M115 70 c27 -12 43 -12 25 0 -8 5 -22
9 -30 9 -10 0 -8 -3 5 -9z"/>
</g>
</svg>
