<?xml version="1.0" standalone="no"?>
<!DOCTYPE svg PUBLIC "-//W3C//DTD SVG 20010904//EN"
 "http://www.w3.org/TR/2001/REC-SVG-20010904/DTD/svg10.dtd">
<svg version="1.0" xmlns="http://www.w3.org/2000/svg"
 width="32.000000pt" height="32.000000pt" viewBox="0 0 32.000000 32.000000"
 preserveAspectRatio="xMidYMid meet">
<metadata>
Created by potrace 1.16, written by Peter Selinger 2001-2019
</metadata>
<g transform="translate(0.000000,32.000000) scale(0.100000,-0.100000)"
fill="#000000" stroke="none">
<path fill="#000000" stroke="none" d="M0 160 l0 -160 160 0 160 0 0 160 0
160 -160 0 -160 0 0 -160z"/>
<path fill="#ffffff" stroke="none" d="M168 303 c-97 -4 -98 -4 -98 -28 0 -20
-5 -25 -25 -25 -24 0 -24 -1 -28 -97 l-3 -98 -2 103 -2 102 25 0 c20 0 25 5
25 25 l0 25 103 -2 102 -2 -97 -3z"/>
<path fill="#ffffff" stroke="none" d="M228 232 c2 -12 12 -27 23 -33 16 -8
19 -17 14 -42 -4 -18 -16 -47 -27 -64 -19 -31 -23 -33 -78 -33 -55 0 -59 2
-79 34 -33 53 -37 92 -12 105 12 7 21 20 21 30 0 28 10 32 75 29 54 -3 60 -5
63 -26z"/>
<path fill="#ffffff" stroke="none" d="M303 253 c-7 -2 -21 -2 -30 0 -10 3 -4
5 12 5 17 0 24 -2 18 -5z"/>
<path fill="#ffffff" stroke="none" d="M67 23 c-3 -10 -5 -5 -5 12 0 17 2 24
5 18 2 -7 2 -21 0 -30z"/>
<path fill="#000000" stroke="none" d="M104 237 c-3 -8 -4 -47 -2 -88 l3 -74
55 0 55 0 0 85 0 85 -53 3 c-38 2 -54 -1 -58 -11z"/>
<path fill="#ffffff" stroke="none" d="M133 220 c-10 -11 -18 -20 -19 -20 -1
0 0 9 3 20 3 11 12 20 19 20 11 0 10 -5 -3 -20z"/>
<path fill="#ffffff" stroke="none" d="M203 220 c3 -11 4 -20 3 -20 -1 0 -9 9
-19 20 -13 15 -14 20 -3 20 7 0 16 -9 19 -20z"/>
<path fill="#ffffff" stroke="none" d="M185 160 c0 -26 -5 -36 -19 -38 -10 -2
-23 1 -29 7 -7 7 -3 8 11 4 18 -4 21 -1 20 26 -1 27 -4 30 -21 25 -13 -4 -17
-2 -12 6 4 6 17 10 28 8 18 -2 22 -10 22 -38z"/>
<path fill="#ffffff" stroke="none" d="M133 100 c13 -15 14 -20 3 -20 -7 0
-16 9 -19 20 -3 11 -4 20 -3 20 1 0 9 -9 19 -20z"/>
<path fill="#ffffff" stroke="none" d="M203 100 c-3 -11 -12 -20 -19 -20 -11
0 -10 5 3 20 10 11 18 20 19 20 1 0 0 -9 -3 -20z"/>
<path fill="#000000" stroke="none" d="M61 178 c0 -7 7 -29 14 -48 l13 -35 1
48 c1 35 -3 47 -14 47 -8 0 -15 -6 -14 -12z"/>
<path fill="#000000" stroke="none" d="M231 143 c0 -49 8 -42 23 20 5 20 3 27
-9 27 -11 0 -15 -11 -14 -47z"/>
</g>
</svg>
