<?xml version="1.0" standalone="no"?>
<!DOCTYPE svg PUBLIC "-//W3C//DTD SVG 20010904//EN"
 "http://www.w3.org/TR/2001/REC-SVG-20010904/DTD/svg10.dtd">
<svg version="1.0" xmlns="http://www.w3.org/2000/svg"
 width="32.000000pt" height="32.000000pt" viewBox="0 0 32.000000 32.000000"
 preserveAspectRatio="xMidYMid meet">
<metadata>
Created by potrace 1.16, written by Peter Selinger 2001-2019
</metadata>
<g transform="translate(0.000000,32.000000) scale(0.100000,-0.100000)"
fill="#000000" stroke="none">
<path fill="#000000" stroke="none" d="M70 275 c0 -20 -5 -25 -25 -25 -25 0
-25 0 -25 -94 l0 -95 24 5 c21 3 25 0 28 -23 l3 -28 93 -1 c89 -1 92 0 92 22
0 16 7 24 23 26 21 3 22 8 23 96 1 90 0 92 -23 92 -22 0 -27 9 -24 38 1 9 -23
12 -94 12 -95 0 -95 0 -95 -25z"/>
<path fill="#ffffff" stroke="none" d="M225 160 l0 -95 -65 0 -65 0 -3 84 c-2
46 0 91 2 98 4 10 22 13 68 11 l63 -3 0 -95z"/>
<path fill="#000000" stroke="none" d="M104 237 c-3 -8 -4 -47 -2 -88 l3 -74
55 0 55 0 0 85 0 85 -53 3 c-38 2 -54 -1 -58 -11z"/>
<path fill="#ffffff" stroke="none" d="M186 139 c13 -14 14 -23 7 -30 -13 -13
-34 -3 -32 14 2 7 -3 24 -11 39 -7 15 -9 34 -5 45 6 15 9 12 15 -15 4 -18 16
-42 26 -53z"/>
<path fill="#ffffff" stroke="none" d="M141 148 c11 -21 11 -22 -4 -9 -10 7
-17 17 -17 22 0 15 9 10 21 -13z"/>
<path fill="#ffffff" stroke="none" d="M145 112 c-3 -3 -11 0 -18 7 -9 10 -8
11 6 5 10 -3 15 -9 12 -12z"/>
</g>
</svg>
