<?xml version="1.0" standalone="no"?>
<!DOCTYPE svg PUBLIC "-//W3C//DTD SVG 20010904//EN"
 "http://www.w3.org/TR/2001/REC-SVG-20010904/DTD/svg10.dtd">
<svg version="1.0" xmlns="http://www.w3.org/2000/svg"
 width="32.000000pt" height="32.000000pt" viewBox="0 0 32.000000 32.000000"
 preserveAspectRatio="xMidYMid meet">
<metadata>
Created by potrace 1.16, written by Peter Selinger 2001-2019
</metadata>
<g transform="translate(0.000000,32.000000) scale(0.100000,-0.100000)"
fill="#000000" stroke="none">
<path fill="#000000" stroke="none" d="M60 285 c0 -20 -5 -25 -25 -25 l-25 0
0 -100 0 -100 25 0 c20 0 25 -5 25 -25 l0 -25 100 0 100 0 0 25 c0 20 5 25 25
25 l25 0 0 100 0 100 -25 0 c-20 0 -25 5 -25 25 l0 25 -100 0 -100 0 0 -25z"/>
<path fill="#ffffff" stroke="none" d="M250 275 c0 -20 5 -25 25 -25 25 0 25
-1 25 -90 0 -89 0 -90 -25 -90 -20 0 -25 -5 -25 -25 0 -25 -1 -25 -90 -25 -89
0 -90 0 -90 25 0 20 -5 25 -25 25 -25 0 -25 1 -25 90 0 89 0 90 25 90 20 0 25
5 25 25 0 25 1 25 90 25 89 0 90 0 90 -25z"/>
<path fill="#000000" stroke="none" d="M90 215 c0 -33 4 -45 15 -45 9 0 15 9
15 25 0 16 6 25 15 25 8 0 15 9 15 20 0 16 -7 20 -30 20 -29 0 -30 -2 -30 -45z"/>
<path fill="#000000" stroke="none" d="M170 240 c0 -11 7 -20 15 -20 9 0 15
-9 15 -25 0 -16 6 -25 15 -25 11 0 15 12 15 45 0 43 -1 45 -30 45 -23 0 -30
-4 -30 -20z"/>
<path fill="#000000" stroke="none" d="M130 175 c0 -18 5 -25 20 -25 11 0 20
-7 20 -15 0 -8 5 -15 10 -15 6 0 10 18 10 40 0 22 -4 40 -10 40 -5 0 -10 -9
-10 -20 0 -11 -4 -20 -10 -20 -5 0 -10 9 -10 20 0 11 -4 20 -10 20 -5 0 -10
-11 -10 -25z"/>
<path fill="#000000" stroke="none" d="M90 105 c0 -43 1 -45 30 -45 23 0 30 4
30 20 0 11 -7 20 -15 20 -9 0 -15 9 -15 25 0 16 -6 25 -15 25 -11 0 -15 -12
-15 -45z"/>
<path fill="#000000" stroke="none" d="M200 125 c0 -16 -6 -25 -15 -25 -8 0
-15 -9 -15 -20 0 -16 7 -20 30 -20 29 0 30 2 30 45 0 33 -4 45 -15 45 -9 0
-15 -9 -15 -25z"/>
</g>
</svg>
