<?xml version="1.0" standalone="no"?>
<!DOCTYPE svg PUBLIC "-//W3C//DTD SVG 20010904//EN"
 "http://www.w3.org/TR/2001/REC-SVG-20010904/DTD/svg10.dtd">
<svg version="1.0" xmlns="http://www.w3.org/2000/svg"
 width="32.000000pt" height="32.000000pt" viewBox="0 0 32.000000 32.000000"
 preserveAspectRatio="xMidYMid meet">
<metadata>
Created by potrace 1.16, written by Peter Selinger 2001-2019
</metadata>
<g transform="translate(0.000000,32.000000) scale(0.100000,-0.100000)"
fill="#000000" stroke="none">
<path fill="#000000" stroke="none" d="M163 302 c-91 -3 -93 -3 -93 -27 0 -20
-5 -25 -25 -25 -25 0 -25 0 -25 -95 0 -88 1 -95 20 -95 15 0 20 -7 20 -25 l0
-25 100 0 100 0 0 25 c0 20 5 25 25 25 l25 0 0 100 c0 99 0 100 -24 100 -18 0
-26 6 -28 23 -3 21 -6 22 -95 19z"/>
<path fill="#ffffff" stroke="none" d="M225 160 l0 -95 -65 0 -65 0 -3 84 c-2
46 0 91 2 98 4 10 22 13 68 11 l63 -3 0 -95z"/>
<path fill="#000000" stroke="none" d="M100 160 l0 -90 60 0 60 0 0 90 0 90
-60 0 -60 0 0 -90z"/>
<path fill="#ffffff" stroke="none" d="M153 200 c-3 -12 -8 -19 -11 -16 -5 6
5 36 12 36 2 0 2 -9 -1 -20z"/>
<path fill="#ffffff" stroke="none" d="M191 107 c-10 -9 -11 -8 -5 6 3 10 9
15 12 12 3 -3 0 -11 -7 -18z"/>
</g>
</svg>
