<?xml version="1.0" standalone="no"?>
<!DOCTYPE svg PUBLIC "-//W3C//DTD SVG 20010904//EN"
 "http://www.w3.org/TR/2001/REC-SVG-20010904/DTD/svg10.dtd">
<svg version="1.0" xmlns="http://www.w3.org/2000/svg"
 width="32.000000pt" height="32.000000pt" viewBox="0 0 32.000000 32.000000"
 preserveAspectRatio="xMidYMid meet">
<metadata>
Created by potrace 1.16, written by Peter Selinger 2001-2019
</metadata>
<g transform="translate(0.000000,32.000000) scale(0.100000,-0.100000)"
fill="#000000" stroke="none">
<path fill="#000000" stroke="none" d="M70 275 c0 -20 -5 -25 -25 -25 -25 0
-25 0 -25 -95 0 -95 0 -95 25 -95 20 0 25 -5 25 -25 0 -25 0 -25 95 -25 95 0
95 0 95 25 0 20 5 25 25 25 25 0 25 0 25 95 0 95 0 95 -25 95 -20 0 -25 5 -25
25 0 25 0 25 -95 25 -95 0 -95 0 -95 -25z"/>
<path fill="#ffffff" stroke="none" d="M225 160 l0 -95 -65 0 -65 0 -3 84 c-2
46 0 91 2 98 4 10 22 13 68 11 l63 -3 0 -95z"/>
<path fill="#000000" stroke="none" d="M104 237 c-3 -8 -4 -47 -2 -88 l3 -74
55 0 55 0 0 85 0 85 -53 3 c-38 2 -54 -1 -58 -11z"/>
<path fill="#ffffff" stroke="none" d="M183 142 c15 -16 18 -25 10 -33 -13
-13 -36 -2 -30 14 2 7 -2 24 -11 38 -10 18 -12 33 -7 45 8 16 9 14 13 -11 2
-16 13 -40 25 -53z"/>
<path fill="#ffffff" stroke="none" d="M140 145 c14 -19 14 -19 -2 -6 -10 7
-18 18 -18 24 0 6 1 8 3 6 1 -2 9 -13 17 -24z"/>
<path fill="#ffffff" stroke="none" d="M145 112 c-3 -3 -11 0 -18 7 -9 10 -8
11 6 5 10 -3 15 -9 12 -12z"/>
</g>
</svg>
