<?xml version="1.0" standalone="no"?>
<!DOCTYPE svg PUBLIC "-//W3C//DTD SVG 20010904//EN"
 "http://www.w3.org/TR/2001/REC-SVG-20010904/DTD/svg10.dtd">
<svg version="1.0" xmlns="http://www.w3.org/2000/svg"
 width="32.000000pt" height="32.000000pt" viewBox="0 0 32.000000 32.000000"
 preserveAspectRatio="xMidYMid meet">
<metadata>
Created by potrace 1.16, written by Peter Selinger 2001-2019
</metadata>
<g transform="translate(0.000000,32.000000) scale(0.100000,-0.100000)"
fill="#000000" stroke="none">
<path fill="#000000" stroke="none" d="M70 275 c0 -20 -5 -25 -25 -25 -25 0
-25 0 -25 -95 0 -95 0 -95 25 -95 20 0 25 -5 25 -25 0 -25 0 -25 95 -25 95 0
95 0 95 25 0 20 5 25 25 25 25 0 25 0 25 95 0 95 0 95 -25 95 -20 0 -25 5 -25
25 0 25 0 25 -95 25 -95 0 -95 0 -95 -25z"/>
<path fill="#ffffff" stroke="none" d="M225 160 l0 -95 -65 0 -65 0 -3 84 c-2
46 0 91 2 98 4 10 22 13 68 11 l63 -3 0 -95z"/>
<path fill="#000000" stroke="none" d="M104 237 c-3 -8 -4 -47 -2 -88 l3 -74
55 0 55 0 0 85 0 85 -53 3 c-38 2 -54 -1 -58 -11z"/>
<path fill="#ffffff" stroke="none" d="M170 201 c-14 -27 -13 -31 10 -31 28 0
25 -12 -11 -46 -26 -23 -29 -25 -20 -7 15 30 14 33 -9 33 -27 0 -25 8 7 42 31
33 38 35 23 9z"/>
</g>
</svg>
