<?xml version="1.0" standalone="no"?>
<!DOCTYPE svg PUBLIC "-//W3C//DTD SVG 20010904//EN"
 "http://www.w3.org/TR/2001/REC-SVG-20010904/DTD/svg10.dtd">
<svg version="1.0" xmlns="http://www.w3.org/2000/svg"
 width="32.000000pt" height="32.000000pt" viewBox="0 0 32.000000 32.000000"
 preserveAspectRatio="xMidYMid meet">
<metadata>
Created by potrace 1.16, written by Peter Selinger 2001-2019
</metadata>
<g transform="translate(0.000000,32.000000) scale(0.100000,-0.100000)"
fill="#000000" stroke="none">
<path fill="#000000" stroke="none" d="M0 160 l0 -160 160 0 160 0 0 160 0
160 -160 0 -160 0 0 -160z"/>
<path fill="#ffffff" stroke="none" d="M168 303 c-97 -4 -98 -4 -98 -28 0 -20
-5 -25 -25 -25 -24 0 -24 -1 -28 -97 l-3 -98 -2 103 -2 102 25 0 c20 0 25 5
25 25 l0 25 103 -2 102 -2 -97 -3z"/>
<path fill="#ffffff" stroke="none" d="M303 253 c-7 -2 -21 -2 -30 0 -10 3 -4
5 12 5 17 0 24 -2 18 -5z"/>
<path fill="#ffffff" stroke="none" d="M280 222 c0 -10 -13 -31 -30 -47 -16
-16 -30 -35 -30 -42 0 -7 -7 -13 -16 -13 -13 0 -14 -3 -5 -13 14 -18 4 -27
-30 -27 -15 0 -31 -4 -34 -10 -3 -5 -19 -10 -35 -10 -22 0 -30 -5 -33 -22 -3
-16 -4 -15 -2 4 1 15 -3 29 -9 31 -7 3 -4 12 7 24 9 11 14 23 10 27 -4 3 -7
15 -8 25 -1 15 7 20 36 25 42 7 78 44 56 58 -6 4 18 8 56 8 58 0 67 -2 67 -18z"/>
<path fill="#000000" stroke="none" d="M200 186 c-35 -34 -48 -42 -58 -33 -11
9 -13 6 -11 -15 2 -14 -2 -33 -10 -42 -18 -21 -6 -33 15 -15 9 8 28 12 42 10
21 -2 24 0 15 11 -9 10 -1 23 33 58 44 45 55 70 31 70 -7 0 -32 -20 -57 -44z"/>
</g>
</svg>
