<?xml version="1.0" standalone="no"?>
<!DOCTYPE svg PUBLIC "-//W3C//DTD SVG 20010904//EN"
 "http://www.w3.org/TR/2001/REC-SVG-20010904/DTD/svg10.dtd">
<svg version="1.0" xmlns="http://www.w3.org/2000/svg"
 width="32.000000pt" height="32.000000pt" viewBox="0 0 32.000000 32.000000"
 preserveAspectRatio="xMidYMid meet">
<metadata>
Created by potrace 1.16, written by Peter Selinger 2001-2019
</metadata>
<g transform="translate(0.000000,32.000000) scale(0.100000,-0.100000)"
fill="#000000" stroke="none">
<path fill="#000000" stroke="none" d="M0 160 l0 -160 160 0 160 0 0 160 0
160 -160 0 -160 0 0 -160z"/>
<path fill="#ffffff" stroke="none" d="M260 285 c0 -20 5 -25 25 -25 l25 0 0
-105 0 -105 -25 0 c-18 0 -25 -5 -25 -20 0 -19 -7 -20 -100 -20 -92 0 -100 2
-100 19 0 13 -8 21 -23 23 -21 3 -22 8 -25 99 -1 52 2 106 7 120 7 17 10 19
10 7 1 -29 31 -22 31 7 l0 25 100 0 100 0 0 -25z"/>
</g>
</svg>
