<?xml version="1.0" standalone="no"?>
<!DOCTYPE svg PUBLIC "-//W3C//DTD SVG 20010904//EN"
 "http://www.w3.org/TR/2001/REC-SVG-20010904/DTD/svg10.dtd">
<svg version="1.0" xmlns="http://www.w3.org/2000/svg"
 width="32.000000pt" height="32.000000pt" viewBox="0 0 32.000000 32.000000"
 preserveAspectRatio="xMidYMid meet">
<metadata>
Created by potrace 1.16, written by Peter Selinger 2001-2019
</metadata>
<g transform="translate(0.000000,32.000000) scale(0.100000,-0.100000)"
fill="#000000" stroke="none">
<path fill="#000000" stroke="none" d="M0 160 l0 -160 160 0 160 0 0 160 0
160 -160 0 -160 0 0 -160z"/>
<path fill="#ffffff" stroke="none" d="M260 285 c0 -20 5 -25 25 -25 l25 0 0
-100 0 -100 -25 0 c-20 0 -25 -5 -25 -25 l0 -25 -100 0 -100 0 0 25 c0 20 -5
25 -25 25 l-25 0 0 100 0 100 25 0 c20 0 25 5 25 25 l0 25 100 0 100 0 0 -25z"/>
<path fill="#000000" stroke="none" d="M70 275 c0 -20 -5 -25 -25 -25 -25 0
-25 -1 -25 -90 0 -89 0 -90 25 -90 20 0 25 -5 25 -25 0 -25 1 -25 90 -25 89 0
90 0 90 25 0 20 5 25 25 25 25 0 25 1 25 90 0 89 0 90 -25 90 -20 0 -25 5 -25
25 0 25 -1 25 -90 25 -89 0 -90 0 -90 -25z"/>
<path fill="#ffffff" stroke="none" d="M140 235 c-7 -9 -8 -15 0 -20 17 -10
11 -36 -12 -55 -21 -17 -25 -17 -40 -3 -20 18 -13 40 7 23 20 -17 31 8 12 28
-15 14 -14 18 11 47 23 26 27 28 30 12 2 -10 -2 -24 -8 -32z"/>
<path fill="#ffffff" stroke="none" d="M213 208 c-18 -20 -8 -45 12 -28 20 17
27 -5 7 -23 -15 -14 -19 -14 -39 3 -25 20 -30 45 -12 56 8 4 8 9 0 17 -6 6
-11 21 -11 34 0 22 1 22 29 -9 27 -30 28 -35 14 -50z"/>
<path fill="#ffffff" stroke="none" d="M64 199 c-3 -5 -10 -7 -15 -3 -5 3 -7
10 -3 15 3 5 10 7 15 3 5 -3 7 -10 3 -15z"/>
<path fill="#ffffff" stroke="none" d="M274 199 c-3 -5 -10 -7 -15 -3 -5 3 -7
10 -3 15 3 5 10 7 15 3 5 -3 7 -10 3 -15z"/>
<path fill="#ffffff" stroke="none" d="M69 134 c-9 -11 -15 -12 -25 -3 -11 9
-12 15 -3 25 9 11 15 12 25 3 11 -9 12 -15 3 -25z"/>
<path fill="#ffffff" stroke="none" d="M279 134 c-9 -11 -15 -12 -25 -3 -11 9
-12 15 -3 25 9 11 15 12 25 3 11 -9 12 -15 3 -25z"/>
<path fill="#ffffff" stroke="none" d="M180 115 c0 -27 26 -35 47 -14 7 7 12
6 16 -5 4 -10 -4 -18 -29 -26 -24 -8 -34 -17 -30 -26 4 -10 -3 -14 -24 -14
-21 0 -28 4 -24 14 4 9 -6 18 -30 26 -25 8 -33 16 -29 26 4 11 9 12 16 5 21
-21 47 -13 47 14 0 18 5 25 20 25 15 0 20 -7 20 -25z"/>
</g>
</svg>
