<?xml version="1.0" standalone="no"?>
<!DOCTYPE svg PUBLIC "-//W3C//DTD SVG 20010904//EN"
 "http://www.w3.org/TR/2001/REC-SVG-20010904/DTD/svg10.dtd">
<svg version="1.0" xmlns="http://www.w3.org/2000/svg"
 width="32.000000pt" height="32.000000pt" viewBox="0 0 32.000000 32.000000"
 preserveAspectRatio="xMidYMid meet">
<metadata>
Created by potrace 1.16, written by Peter Selinger 2001-2019
</metadata>
<g transform="translate(0.000000,32.000000) scale(0.100000,-0.100000)"
fill="#000000" stroke="none">
<path fill="#000000" stroke="none" d="M60 285 c0 -20 -5 -25 -25 -25 l-25 0
2 -102 2 -103 3 98 c4 96 4 97 28 97 20 0 25 5 25 25 0 24 1 24 98 28 l97 3
-102 2 -103 2 0 -25z"/>
<path fill="#000000" stroke="none" d="M273 253 c9 -2 23 -2 30 0 6 3 -1 5
-18 5 -16 0 -22 -2 -12 -5z"/>
<path fill="#000000" stroke="none" d="M56 229 c-23 -18 -26 -27 -26 -85 0
-56 2 -64 19 -64 14 0 21 10 26 36 6 35 44 84 64 84 5 0 23 -12 40 -26 30 -25
31 -25 31 -4 0 12 -13 35 -29 51 -36 36 -86 39 -125 8z"/>
<path fill="#000000" stroke="none" d="M250 185 c-9 -10 -9 -15 -1 -15 21 0
11 -20 -19 -35 -36 -19 -60 -19 -60 -1 0 8 -7 17 -16 20 -10 4 -13 2 -7 -7 12
-18 10 -31 -7 -45 -13 -11 -11 -11 8 -2 23 11 25 9 23 -25 -1 -16 2 -14 15 8
15 27 16 28 30 10 14 -17 14 -17 12 2 -2 12 2 19 10 18 6 -2 12 1 12 6 0 5 10
7 23 4 20 -4 20 -3 4 7 -18 11 -18 12 0 33 17 20 17 20 -1 14 -14 -6 -17 -3
-12 8 7 19 2 19 -14 0z"/>
<path fill="#000000" stroke="none" d="M58 40 c2 -17 7 -30 11 -30 4 0 6 13 3
30 -2 16 -7 30 -11 30 -4 0 -6 -13 -3 -30z"/>
</g>
</svg>
