<?xml version="1.0" standalone="no"?>
<!DOCTYPE svg PUBLIC "-//W3C//DTD SVG 20010904//EN"
 "http://www.w3.org/TR/2001/REC-SVG-20010904/DTD/svg10.dtd">
<svg version="1.0" xmlns="http://www.w3.org/2000/svg"
 width="32.000000pt" height="32.000000pt" viewBox="0 0 32.000000 32.000000"
 preserveAspectRatio="xMidYMid meet">
<metadata>
Created by potrace 1.16, written by Peter Selinger 2001-2019
</metadata>
<g transform="translate(0.000000,32.000000) scale(0.100000,-0.100000)"
fill="#000000" stroke="none">
<path fill="#000000" stroke="none" d="M60 285 c0 -20 -5 -25 -25 -25 l-25 0
0 -100 0 -100 25 0 c20 0 25 -5 25 -25 l0 -25 100 0 100 0 0 25 c0 20 5 25 25
25 l25 0 0 100 0 100 -25 0 c-20 0 -25 5 -25 25 l0 25 -100 0 -100 0 0 -25z"/>
<path fill="#ffffff" stroke="none" d="M250 275 c0 -20 5 -25 25 -25 25 0 25
-1 25 -90 0 -89 0 -90 -25 -90 -20 0 -25 -5 -25 -25 0 -25 -1 -25 -90 -25 -89
0 -90 0 -90 25 0 20 -5 25 -25 25 -25 0 -25 1 -25 90 0 89 0 90 25 90 20 0 25
5 25 25 0 25 1 25 90 25 89 0 90 0 90 -25z"/>
<path fill="#000000" stroke="none" d="M145 241 c-3 -5 -1 -12 5 -16 5 -3 10
1 10 9 0 18 -6 21 -15 7z"/>
<path fill="#000000" stroke="none" d="M170 234 c0 -8 5 -12 10 -9 6 4 8 11 5
16 -9 14 -15 11 -15 -7z"/>
<path fill="#000000" stroke="none" d="M112 221 c4 -13 18 -16 19 -4 0 4 -5 9
-11 12 -7 2 -11 -2 -8 -8z"/>
<path fill="#000000" stroke="none" d="M195 221 c-6 -11 9 -23 19 -14 9 9 7
23 -3 23 -6 0 -12 -4 -16 -9z"/>
<path fill="#000000" stroke="none" d="M140 195 c-6 -8 -9 -19 -5 -25 8 -13
52 -13 60 0 8 13 -13 40 -30 40 -7 0 -18 -7 -25 -15z"/>
<path fill="#000000" stroke="none" d="M204 141 c6 -9 -43 -21 -109 -25 -61
-4 -65 -5 -65 -17 0 -6 7 -8 16 -5 9 3 29 -2 44 -11 24 -14 34 -15 55 -5 28
13 71 0 60 -19 -4 -5 0 -9 8 -9 22 0 28 12 15 28 -11 13 -7 14 25 10 29 -3 37
-1 37 12 0 13 -8 15 -37 12 -32 -4 -36 -3 -25 10 6 8 9 18 5 21 -10 10 -35 8
-29 -2z"/>
</g>
</svg>
