<?xml version="1.0" standalone="no"?>
<!DOCTYPE svg PUBLIC "-//W3C//DTD SVG 20010904//EN"
 "http://www.w3.org/TR/2001/REC-SVG-20010904/DTD/svg10.dtd">
<svg version="1.0" xmlns="http://www.w3.org/2000/svg"
 width="32.000000pt" height="32.000000pt" viewBox="0 0 32.000000 32.000000"
 preserveAspectRatio="xMidYMid meet">
<metadata>
Created by potrace 1.16, written by Peter Selinger 2001-2019
</metadata>
<g transform="translate(0.000000,32.000000) scale(0.100000,-0.100000)"
fill="#000000" stroke="none">
<path fill="#000000" stroke="none" d="M60 285 c0 -20 -5 -25 -25 -25 l-25 0
2 -102 2 -103 3 98 c4 96 4 97 28 97 20 0 25 5 25 25 0 24 1 24 98 28 l97 3
-102 2 -103 2 0 -25z"/>
<path fill="#000000" stroke="none" d="M273 253 c9 -2 23 -2 30 0 6 3 -1 5
-18 5 -16 0 -22 -2 -12 -5z"/>
<path fill="#000000" stroke="none" d="M209 141 c17 -11 -1 -23 -22 -15 -8 3
-30 -2 -47 -11 -23 -12 -35 -14 -43 -6 -16 16 -43 13 -58 -6 -13 -15 -12 -15
9 -4 18 10 29 10 52 -1 16 -7 27 -15 24 -19 -2 -4 9 -2 25 4 17 6 28 15 25 19
-13 21 16 5 30 -17 11 -17 13 -25 5 -25 -7 0 -10 -2 -7 -5 3 -3 12 -3 21 1 13
5 14 9 4 25 -9 15 -9 23 0 38 10 16 9 20 -3 25 -23 9 -31 7 -15 -3z"/>
<path fill="#000000" stroke="none" d="M281 104 c0 -11 3 -14 6 -6 3 7 2 16
-1 19 -3 4 -6 -2 -5 -13z"/>
<path fill="#000000" stroke="none" d="M62 35 c0 -17 2 -22 5 -12 2 9 2 23 0
30 -3 6 -5 -1 -5 -18z"/>
</g>
</svg>
