<?xml version="1.0" standalone="no"?>
<!DOCTYPE svg PUBLIC "-//W3C//DTD SVG 20010904//EN"
 "http://www.w3.org/TR/2001/REC-SVG-20010904/DTD/svg10.dtd">
<svg version="1.0" xmlns="http://www.w3.org/2000/svg"
 width="32.000000pt" height="32.000000pt" viewBox="0 0 32.000000 32.000000"
 preserveAspectRatio="xMidYMid meet">
<metadata>
Created by potrace 1.16, written by Peter Selinger 2001-2019
</metadata>
<g transform="translate(0.000000,32.000000) scale(0.100000,-0.100000)"
fill="#000000" stroke="none">
<path fill="#000000" stroke="none" d="M118 312 c-54 -3 -58 -5 -58 -27 0 -20
-5 -25 -25 -25 l-25 0 2 -102 2 -103 3 98 c4 96 4 97 28 97 20 0 25 5 25 25 0
24 1 24 98 27 66 2 83 5 52 8 -25 3 -71 4 -102 2z"/>
<path fill="#000000" stroke="none" d="M273 253 c9 -2 23 -2 30 0 6 3 -1 5
-18 5 -16 0 -22 -2 -12 -5z"/>
<path fill="#000000" stroke="none" d="M260 220 c0 -5 5 -10 10 -10 6 0 10 5
10 10 0 6 -4 10 -10 10 -5 0 -10 -4 -10 -10z"/>
<path fill="#000000" stroke="none" d="M145 200 c-4 -6 -12 -7 -18 -4 -7 4 -9
4 -5 -1 4 -4 3 -14 -3 -22 -8 -9 -8 -17 0 -26 6 -8 9 -17 6 -20 -3 -4 -2 -5 2
-2 3 3 12 0 20 -6 9 -8 17 -8 26 0 8 6 16 10 18 8 2 -1 3 0 2 2 -2 2 2 10 8
18 8 9 8 17 0 26 -6 8 -7 18 -3 22 4 5 2 5 -5 1 -6 -3 -14 -2 -18 4 -3 5 -10
10 -15 10 -5 0 -12 -5 -15 -10z"/>
<path fill="#ffffff" stroke="none" d="M176 169 c10 -17 -13 -36 -27 -22 -12
12 -4 33 11 33 5 0 12 -5 16 -11z"/>
<path fill="#000000" stroke="none" d="M224 189 c-10 -17 13 -36 27 -22 12 12
4 33 -11 33 -5 0 -12 -5 -16 -11z"/>
<path fill="#000000" stroke="none" d="M64 149 c-10 -17 13 -36 27 -22 12 12
4 33 -11 33 -5 0 -12 -5 -16 -11z"/>
<path fill="#000000" stroke="none" d="M40 100 c0 -5 5 -10 10 -10 6 0 10 5
10 10 0 6 -4 10 -10 10 -5 0 -10 -4 -10 -10z"/>
<path fill="#000000" stroke="none" d="M58 40 c2 -17 7 -30 11 -30 4 0 6 13 3
30 -2 16 -7 30 -11 30 -4 0 -6 -13 -3 -30z"/>
</g>
</svg>
