<?xml version="1.0" standalone="no"?>
<!DOCTYPE svg PUBLIC "-//W3C//DTD SVG 20010904//EN"
 "http://www.w3.org/TR/2001/REC-SVG-20010904/DTD/svg10.dtd">
<svg version="1.0" xmlns="http://www.w3.org/2000/svg"
 width="32.000000pt" height="32.000000pt" viewBox="0 0 32.000000 32.000000"
 preserveAspectRatio="xMidYMid meet">
<metadata>
Created by potrace 1.16, written by Peter Selinger 2001-2019
</metadata>
<g transform="translate(0.000000,32.000000) scale(0.100000,-0.100000)"
fill="#000000" stroke="none">
<path fill="#000000" stroke="none" d="M60 285 c0 -20 -5 -25 -25 -25 l-25 0
0 -100 0 -100 25 0 c20 0 25 -5 25 -25 l0 -25 100 0 100 0 0 25 c0 20 5 25 25
25 l25 0 0 100 0 100 -25 0 c-20 0 -25 5 -25 25 l0 25 -100 0 -100 0 0 -25z"/>
<path fill="#ffffff" stroke="none" d="M250 275 c0 -20 5 -25 25 -25 25 0 25
-1 25 -90 0 -89 0 -90 -25 -90 -20 0 -25 -5 -25 -25 0 -25 -1 -25 -90 -25 -89
0 -90 0 -90 25 0 20 -5 25 -25 25 -25 0 -25 1 -25 90 0 89 0 90 25 90 20 0 25
5 25 25 0 25 1 25 90 25 89 0 90 0 90 -25z"/>
<path fill="#000000" stroke="none" d="M115 256 c-16 -13 -25 -28 -21 -34 8
-14 27 -16 23 -3 -1 5 3 11 8 13 6 1 11 -6 13 -17 2 -13 -8 -27 -27 -40 -20
-13 -27 -23 -21 -29 6 -6 10 -19 10 -30 0 -19 1 -19 13 3 15 29 31 29 35 1 2
-11 8 -18 13 -15 5 4 9 0 10 -7 0 -7 4 -5 8 5 4 10 10 18 14 18 4 -1 14 4 21
11 12 11 12 16 -1 31 -15 15 -15 17 0 17 10 0 17 6 17 14 0 9 -7 13 -19 11
-23 -4 -48 20 -31 30 5 3 10 1 10 -5 0 -6 7 -4 16 5 14 13 19 14 26 3 6 -9 8
-5 6 12 -3 22 -8 25 -49 27 -34 1 -52 -4 -74 -21z"/>
<path fill="#ffffff" stroke="none" d="M175 260 c3 -5 2 -10 -4 -10 -5 0 -13
5 -16 10 -3 6 -2 10 4 10 5 0 13 -4 16 -10z"/>
<path fill="#000000" stroke="none" d="M53 113 c-4 -11 1 -22 15 -31 12 -8 22
-21 22 -29 0 -13 3 -13 24 1 23 14 26 14 40 0 9 -8 16 -12 16 -7 0 4 5 1 10
-7 8 -13 10 -13 10 2 0 9 17 25 37 35 20 10 39 25 41 33 3 9 -1 8 -11 -4 -29
-39 -198 -30 -183 9 3 8 1 15 -5 15 -5 0 -13 -8 -16 -17z"/>
</g>
</svg>
