<?xml version="1.0" standalone="no"?>
<!DOCTYPE svg PUBLIC "-//W3C//DTD SVG 20010904//EN"
 "http://www.w3.org/TR/2001/REC-SVG-20010904/DTD/svg10.dtd">
<svg version="1.0" xmlns="http://www.w3.org/2000/svg"
 width="32.000000pt" height="32.000000pt" viewBox="0 0 32.000000 32.000000"
 preserveAspectRatio="xMidYMid meet">
<metadata>
Created by potrace 1.16, written by Peter Selinger 2001-2019
</metadata>
<g transform="translate(0.000000,32.000000) scale(0.100000,-0.100000)"
fill="#000000" stroke="none">
<path fill="#000000" stroke="none" d="M0 160 l0 -160 160 0 160 0 0 160 0
160 -72 -2 c-67 -1 -69 -2 -28 -8 36 -6 25 -7 -52 -8 -97 -2 -98 -2 -98 -27 0
-20 -5 -25 -25 -25 -24 0 -24 -1 -28 -97 l-3 -98 -2 103 -2 102 25 0 c20 0 25
5 25 25 0 22 4 24 58 28 44 2 37 4 -30 5 l-88 2 0 -160z"/>
<path fill="#ffffff" stroke="none" d="M303 253 c-7 -2 -21 -2 -30 0 -10 3 -4
5 12 5 17 0 24 -2 18 -5z"/>
<path fill="#ffffff" stroke="none" d="M240 197 c0 -44 -18 -82 -54 -116 l-26
-24 -26 24 c-36 34 -54 72 -54 116 l0 38 80 0 80 0 0 -38z"/>
<path fill="#ffffff" stroke="none" d="M66 169 c10 -17 -13 -36 -27 -22 -12
12 -4 33 11 33 5 0 12 -5 16 -11z"/>
<path fill="#ffffff" stroke="none" d="M286 169 c10 -17 -13 -36 -27 -22 -12
12 -4 33 11 33 5 0 12 -5 16 -11z"/>
<path fill="#ffffff" stroke="none" d="M72 40 c3 -17 1 -30 -3 -30 -4 0 -9 13
-11 30 -3 17 -1 30 3 30 4 0 9 -14 11 -30z"/>
<path fill="#000000" stroke="none" d="M160 173 c0 -11 8 -28 19 -37 30 -27
35 7 5 35 -23 22 -24 22 -24 2z"/>
<path fill="#000000" stroke="none" d="M45 160 c-3 -5 -1 -10 4 -10 6 0 11 5
11 10 0 6 -2 10 -4 10 -3 0 -8 -4 -11 -10z"/>
<path fill="#000000" stroke="none" d="M265 160 c-3 -5 -1 -10 4 -10 6 0 11 5
11 10 0 6 -2 10 -4 10 -3 0 -8 -4 -11 -10z"/>
</g>
</svg>
