<?xml version="1.0" standalone="no"?>
<!DOCTYPE svg PUBLIC "-//W3C//DTD SVG 20010904//EN"
 "http://www.w3.org/TR/2001/REC-SVG-20010904/DTD/svg10.dtd">
<svg version="1.0" xmlns="http://www.w3.org/2000/svg"
 width="32.000000pt" height="32.000000pt" viewBox="0 0 32.000000 32.000000"
 preserveAspectRatio="xMidYMid meet">
<metadata>
Created by potrace 1.16, written by Peter Selinger 2001-2019
</metadata>
<g transform="translate(0.000000,32.000000) scale(0.100000,-0.100000)"
fill="#000000" stroke="none">
<path fill="#000000" stroke="none" d="M0 160 l0 -160 160 0 160 0 0 160 0
160 -72 -2 c-48 -1 -59 -3 -30 -5 37 -4 42 -7 42 -29 0 -19 5 -24 25 -24 l25
0 0 -100 0 -100 -25 0 c-20 0 -25 -5 -25 -25 l0 -25 -100 0 -100 0 0 25 c0 20
-5 25 -25 25 l-25 0 0 100 0 100 25 0 c20 0 25 5 25 25 0 22 4 24 58 28 44 2
37 4 -30 5 l-88 2 0 -160z"/>
<path fill="#000000" stroke="none" d="M70 275 c0 -20 -5 -25 -25 -25 -25 0
-25 -1 -25 -90 0 -89 0 -90 25 -90 20 0 25 -5 25 -25 0 -25 1 -25 90 -25 89 0
90 0 90 25 0 20 5 25 25 25 25 0 25 1 25 90 0 89 0 90 -25 90 -20 0 -25 5 -25
25 0 25 -1 25 -90 25 -89 0 -90 0 -90 -25z"/>
<path fill="#ffffff" stroke="none" d="M200 265 c16 -10 4 -22 -31 -29 -39 -7
-65 9 -48 31 12 13 55 13 79 -2z"/>
<path fill="#ffffff" stroke="none" d="M122 204 c4 -35 31 -53 56 -38 9 6 18
23 20 38 3 24 7 26 48 26 24 0 44 -3 44 -7 0 -12 -33 -43 -45 -43 -19 0 -40
-31 -37 -52 2 -10 -2 -18 -7 -18 -14 0 -14 -37 -1 -45 20 -12 -1 -25 -40 -25
-39 0 -60 13 -40 25 13 8 13 45 -1 45 -5 0 -9 8 -7 18 3 20 -18 52 -35 52 -13
0 -47 30 -47 42 0 4 20 8 44 8 41 0 45 -2 48 -26z"/>
<path fill="#ffffff" stroke="none" d="M177 204 c8 -21 -13 -42 -28 -27 -13
13 -5 43 11 43 6 0 13 -7 17 -16z"/>
</g>
</svg>
