<?xml version="1.0" standalone="no"?>
<!DOCTYPE svg PUBLIC "-//W3C//DTD SVG 20010904//EN"
 "http://www.w3.org/TR/2001/REC-SVG-20010904/DTD/svg10.dtd">
<svg version="1.0" xmlns="http://www.w3.org/2000/svg"
 width="32.000000pt" height="32.000000pt" viewBox="0 0 32.000000 32.000000"
 preserveAspectRatio="xMidYMid meet">
<metadata>
Created by potrace 1.16, written by Peter Selinger 2001-2019
</metadata>
<g transform="translate(0.000000,32.000000) scale(0.100000,-0.100000)"
fill="#000000" stroke="none">
<path fill="#000000" stroke="none" d="M125 261 c-3 -5 0 -13 6 -17 7 -4 9 -3
5 4 -3 6 2 13 11 15 16 4 16 5 1 6 -9 0 -19 -3 -23 -8z"/>
<path fill="#000000" stroke="none" d="M80 226 c0 -2 9 -6 20 -9 11 -3 20 -1
20 4 0 5 -9 9 -20 9 -11 0 -20 -2 -20 -4z"/>
<path fill="#000000" stroke="none" d="M201 208 c1 -16 3 -18 6 -6 2 9 16 19
31 21 24 4 24 4 -5 6 -28 1 -33 -2 -32 -21z"/>
<path fill="#000000" stroke="none" d="M131 123 c0 -11 3 -13 6 -5 2 6 9 10
14 6 5 -3 9 0 9 5 0 6 -7 11 -15 11 -8 0 -15 -8 -14 -17z"/>
</g>
</svg>
