<?xml version="1.0" standalone="no"?>
<!DOCTYPE svg PUBLIC "-//W3C//DTD SVG 20010904//EN"
 "http://www.w3.org/TR/2001/REC-SVG-20010904/DTD/svg10.dtd">
<svg version="1.0" xmlns="http://www.w3.org/2000/svg"
 width="32.000000pt" height="32.000000pt" viewBox="0 0 32.000000 32.000000"
 preserveAspectRatio="xMidYMid meet">
<metadata>
Created by potrace 1.16, written by Peter Selinger 2001-2019
</metadata>
<g transform="translate(0.000000,32.000000) scale(0.100000,-0.100000)"
fill="#000000" stroke="none">
<path fill="#000000" stroke="none" d="M60 285 c0 -20 -5 -25 -25 -25 l-25 0
2 -102 2 -103 3 98 c4 96 4 97 28 97 20 0 25 5 25 25 0 24 1 24 98 28 l97 3
-102 2 -103 2 0 -25z"/>
<path fill="#000000" stroke="none" d="M125 260 c-3 -5 0 -13 9 -16 21 -8 61
-1 61 11 0 14 -62 19 -70 5z"/>
<path fill="#ffffff" stroke="none" d="M178 253 c-10 -2 -26 -2 -35 0 -10 3
-2 5 17 5 19 0 27 -2 18 -5z"/>
<path fill="#000000" stroke="none" d="M273 253 c9 -2 23 -2 30 0 6 3 -1 5
-18 5 -16 0 -22 -2 -12 -5z"/>
<path fill="#000000" stroke="none" d="M55 220 c17 -4 23 -9 15 -10 -8 -1 -4
-5 10 -9 15 -4 25 -14 25 -25 0 -12 9 -20 24 -23 23 -3 24 -2 8 15 -9 10 -17
28 -17 40 0 20 -5 22 -47 21 -43 -1 -45 -2 -18 -9z"/>
<path fill="#000000" stroke="none" d="M200 208 c0 -12 -8 -30 -17 -40 -16
-17 -15 -18 8 -15 15 3 24 11 24 23 0 11 10 21 25 25 14 4 18 8 10 9 -8 1 -1
6 15 10 27 7 25 8 -17 9 -43 1 -48 -1 -48 -21z"/>
<path fill="#000000" stroke="none" d="M147 214 c-13 -13 -7 -24 14 -24 11 0
19 5 17 12 -5 14 -22 21 -31 12z"/>
<path fill="#000000" stroke="none" d="M130 123 c0 -10 4 -25 9 -32 6 -9 6
-23 -1 -35 -6 -12 3 -7 21 12 41 44 41 72 1 72 -22 0 -30 -5 -30 -17z"/>
<path fill="#ffffff" stroke="none" d="M180 118 c0 -7 -5 -20 -10 -28 -8 -13
-10 -12 -10 3 0 12 -4 16 -12 11 -9 -5 -9 -2 1 9 16 20 31 22 31 5z"/>
<path fill="#000000" stroke="none" d="M62 35 c0 -17 2 -22 5 -12 2 9 2 23 0
30 -3 6 -5 -1 -5 -18z"/>
</g>
</svg>
