<?xml version="1.0" standalone="no"?>
<!DOCTYPE svg PUBLIC "-//W3C//DTD SVG 20010904//EN"
 "http://www.w3.org/TR/2001/REC-SVG-20010904/DTD/svg10.dtd">
<svg version="1.0" xmlns="http://www.w3.org/2000/svg"
 width="32.000000pt" height="32.000000pt" viewBox="0 0 32.000000 32.000000"
 preserveAspectRatio="xMidYMid meet">
<metadata>
Created by potrace 1.16, written by Peter Selinger 2001-2019
</metadata>
<g transform="translate(0.000000,32.000000) scale(0.100000,-0.100000)"
fill="#000000" stroke="none">
<path fill="#000000" stroke="none" d="M0 160 l0 -160 160 0 160 0 0 160 0
160 -72 -2 c-67 -1 -69 -2 -28 -8 36 -6 25 -7 -52 -8 -97 -2 -98 -2 -98 -27 0
-20 -5 -25 -25 -25 -24 0 -24 -1 -28 -97 l-3 -98 -2 103 -2 102 25 0 c20 0 25
5 25 25 0 22 4 24 58 28 44 2 37 4 -30 5 l-88 2 0 -160z"/>
<path fill="#ffffff" stroke="none" d="M198 258 c-3 -7 -21 -14 -41 -16 -28
-2 -37 1 -37 12 0 12 11 16 41 16 28 0 39 -4 37 -12z"/>
<path fill="#ffffff" stroke="none" d="M303 253 c-7 -2 -21 -2 -30 0 -10 3 -4
5 12 5 17 0 24 -2 18 -5z"/>
<path fill="#ffffff" stroke="none" d="M122 204 c4 -35 31 -53 56 -38 9 6 18
23 20 38 3 24 7 26 48 26 24 0 44 -3 44 -7 0 -12 -33 -43 -45 -43 -18 0 -48
-37 -40 -49 3 -6 -1 -18 -10 -27 -15 -15 -15 -18 1 -35 9 -11 12 -19 7 -19 -6
0 -13 7 -17 15 -3 8 -11 12 -19 10 -16 -7 -60 42 -51 56 7 11 -23 49 -39 49
-13 0 -47 30 -47 42 0 4 20 8 44 8 41 0 45 -2 48 -26z"/>
<path fill="#ffffff" stroke="none" d="M177 204 c8 -21 -13 -42 -28 -27 -13
13 -5 43 11 43 6 0 13 -7 17 -16z"/>
<path fill="#ffffff" stroke="none" d="M180 44 c0 -2 -19 -1 -64 5 -5 0 -3 8
4 16 10 12 15 12 36 -2 13 -8 24 -17 24 -19z"/>
<path fill="#ffffff" stroke="none" d="M72 40 c3 -17 1 -30 -3 -30 -4 0 -9 13
-11 30 -3 17 -1 30 3 30 4 0 9 -14 11 -30z"/>
<path fill="#000000" stroke="none" d="M148 253 c6 -2 18 -2 25 0 6 3 1 5 -13
5 -14 0 -19 -2 -12 -5z"/>
</g>
</svg>
