<?xml version="1.0" standalone="no"?>
<!DOCTYPE svg PUBLIC "-//W3C//DTD SVG 20010904//EN"
 "http://www.w3.org/TR/2001/REC-SVG-20010904/DTD/svg10.dtd">
<svg version="1.0" xmlns="http://www.w3.org/2000/svg"
 width="32.000000pt" height="32.000000pt" viewBox="0 0 32.000000 32.000000"
 preserveAspectRatio="xMidYMid meet">
<metadata>
Created by potrace 1.16, written by Peter Selinger 2001-2019
</metadata>
<g transform="translate(0.000000,32.000000) scale(0.100000,-0.100000)"
fill="#000000" stroke="none">
<path fill="#000000" stroke="none" d="M118 312 c-54 -3 -58 -5 -58 -27 0 -20
-5 -25 -25 -25 l-25 0 2 -102 c1 -57 3 -85 5 -64 3 22 12 46 21 53 16 11 16
12 0 13 -14 0 -18 8 -18 36 0 28 4 35 17 32 10 -2 23 -14 30 -28 11 -22 13
-22 19 -6 4 10 1 24 -8 32 -9 9 -13 27 -10 44 l4 29 97 3 c66 2 82 5 51 8 -25
3 -71 4 -102 2z"/>
<path fill="#000000" stroke="none" d="M114 276 c-8 -8 -7 -15 0 -22 8 -8 15
-7 22 0 8 8 7 15 0 22 -8 8 -15 7 -22 0z"/>
<path fill="#000000" stroke="none" d="M184 276 c-8 -8 -7 -15 0 -22 8 -8 15
-7 22 0 8 8 7 15 0 22 -8 8 -15 7 -22 0z"/>
<path fill="#000000" stroke="none" d="M247 234 c-11 -15 -16 -32 -12 -42 6
-15 8 -14 16 6 5 12 19 27 31 32 13 5 19 9 13 10 -5 0 -3 5 5 10 12 8 10 10
-10 10 -15 -1 -32 -11 -43 -26z"/>
<path fill="#000000" stroke="none" d="M40 182 c0 -14 59 -66 67 -59 3 4 -6
21 -22 37 -28 30 -45 38 -45 22z"/>
<path fill="#000000" stroke="none" d="M235 160 c-16 -16 -25 -33 -22 -37 8
-7 67 45 67 59 0 16 -17 8 -45 -22z"/>
<path fill="#000000" stroke="none" d="M106 161 c-3 -3 7 -11 20 -18 19 -9 24
-8 24 3 0 8 5 14 10 14 6 0 10 -6 10 -14 0 -11 5 -12 24 -3 35 17 24 24 -34
24 -28 0 -52 -3 -54 -6z"/>
<path fill="#000000" stroke="none" d="M285 161 c-19 -8 -19 -8 1 -19 17 -9
20 -7 20 9 0 10 0 19 -1 18 0 0 -9 -4 -20 -8z"/>
<path fill="#000000" stroke="none" d="M108 119 c-12 -13 -14 -20 -6 -25 8 -5
6 -11 -5 -19 -13 -9 -9 -13 26 -23 34 -10 50 -9 80 2 30 10 35 15 22 20 -12 4
-14 10 -8 19 7 8 4 18 -8 29 -10 10 -20 14 -23 9 -6 -8 -35 -8 -51 0 -6 3 -18
-2 -27 -12z"/>
<path fill="#000000" stroke="none" d="M64 116 c-7 -18 8 -41 23 -35 5 2 3 15
-3 29 -12 22 -14 22 -20 6z"/>
<path fill="#000000" stroke="none" d="M233 104 c-9 -19 -8 -24 3 -24 18 0 30
28 18 40 -5 5 -14 -1 -21 -16z"/>
<path fill="#000000" stroke="none" d="M35 111 c-3 -5 -1 -12 5 -16 5 -3 10 1
10 9 0 18 -6 21 -15 7z"/>
<path fill="#000000" stroke="none" d="M270 104 c0 -8 5 -12 10 -9 6 4 8 11 5
16 -9 14 -15 11 -15 -7z"/>
<path fill="#000000" stroke="none" d="M58 40 c2 -17 7 -30 11 -30 4 0 6 13 3
30 -2 16 -7 30 -11 30 -4 0 -6 -13 -3 -30z"/>
</g>
</svg>
