<?xml version="1.0" standalone="no"?>
<!DOCTYPE svg PUBLIC "-//W3C//DTD SVG 20010904//EN"
 "http://www.w3.org/TR/2001/REC-SVG-20010904/DTD/svg10.dtd">
<svg version="1.0" xmlns="http://www.w3.org/2000/svg"
 width="32.000000pt" height="32.000000pt" viewBox="0 0 32.000000 32.000000"
 preserveAspectRatio="xMidYMid meet">
<metadata>
Created by potrace 1.16, written by Peter Selinger 2001-2019
</metadata>
<g transform="translate(0.000000,32.000000) scale(0.100000,-0.100000)"
fill="#000000" stroke="none">
<path fill="#000000" stroke="none" d="M60 285 c0 -20 -5 -25 -25 -25 l-25 0
2 -102 2 -103 3 98 c4 96 4 97 28 97 20 0 25 5 25 25 0 24 2 24 93 28 l92 3
-97 2 -98 2 0 -25z"/>
<path fill="#000000" stroke="none" d="M187 260 c-16 -19 -16 -20 1 -20 11 0
18 8 18 20 0 11 -1 20 -1 20 0 0 -8 -9 -18 -20z"/>
<path fill="#000000" stroke="none" d="M225 241 c-3 -5 -2 -12 3 -15 5 -3 9 1
9 9 0 17 -3 19 -12 6z"/>
<path fill="#000000" stroke="none" d="M136 228 c3 -5 10 -6 15 -3 13 9 11 12
-6 12 -8 0 -12 -4 -9 -9z"/>
<path fill="#000000" stroke="none" d="M118 190 c9 -10 18 -13 20 -9 6 14 -2
23 -20 24 -17 2 -17 1 0 -15z"/>
<path fill="#000000" stroke="none" d="M240 192 c0 -11 8 -18 20 -18 11 0 20
1 20 1 0 0 -9 8 -20 18 -19 16 -20 16 -20 -1z"/>
<path fill="#000000" stroke="none" d="M223 157 c0 -8 6 -14 14 -14 9 0 10 4
2 14 -6 7 -12 13 -14 13 -1 0 -2 -6 -2 -13z"/>
<path fill="#000000" stroke="none" d="M136 151 c-4 -5 -2 -12 3 -15 5 -4 12
-2 15 3 4 5 2 12 -3 15 -5 4 -12 2 -15 -3z"/>
<path fill="#000000" stroke="none" d="M174 120 c0 -11 1 -20 1 -20 0 0 8 9
18 20 16 19 16 20 -1 20 -11 0 -18 -8 -18 -20z"/>
</g>
</svg>
