<?xml version="1.0" standalone="no"?>
<!DOCTYPE svg PUBLIC "-//W3C//DTD SVG 20010904//EN"
 "http://www.w3.org/TR/2001/REC-SVG-20010904/DTD/svg10.dtd">
<svg version="1.0" xmlns="http://www.w3.org/2000/svg"
 width="32.000000pt" height="32.000000pt" viewBox="0 0 32.000000 32.000000"
 preserveAspectRatio="xMidYMid meet">
<metadata>
Created by potrace 1.16, written by Peter Selinger 2001-2019
</metadata>
<g transform="translate(0.000000,32.000000) scale(0.100000,-0.100000)"
fill="#000000" stroke="none">
<path fill="#000000" stroke="none" d="M60 285 c0 -20 -5 -25 -25 -25 l-25 0
2 -102 2 -103 3 98 c4 96 4 97 28 97 20 0 25 5 25 25 0 24 1 24 98 28 l97 3
-102 2 -103 2 0 -25z"/>
<path fill="#000000" stroke="none" d="M130 245 c-10 -27 -20 -31 -37 -14 -8
8 -14 6 -22 -9 -10 -18 -7 -23 16 -34 35 -16 39 -42 15 -90 -21 -40 -19 -48
11 -48 12 0 23 11 30 30 6 17 14 30 17 30 3 0 11 -13 17 -30 7 -19 18 -30 30
-30 29 0 35 11 18 30 -9 10 -18 33 -22 53 -5 32 -2 37 25 51 23 12 29 21 25
36 -6 22 -23 26 -40 9 -7 -7 -15 -2 -27 15 -21 33 -44 33 -56 1z"/>
<path fill="#ffffff" stroke="none" d="M175 241 c3 -5 1 -12 -5 -16 -6 -4 -8
-10 -5 -15 3 -4 -1 -13 -9 -19 -10 -9 -16 -7 -26 4 -11 13 -11 16 0 13 8 -2
15 4 16 12 2 26 4 30 13 30 6 0 12 -4 16 -9z"/>
<path fill="#ffffff" stroke="none" d="M95 209 c-10 -15 -25 -10 -19 6 4 8 10
12 15 9 5 -3 7 -10 4 -15z"/>
<path fill="#ffffff" stroke="none" d="M161 145 c-11 -14 -23 -39 -26 -55 -5
-21 -13 -30 -26 -30 -19 0 -19 1 3 33 27 38 60 77 65 77 3 0 -5 -11 -16 -25z"/>
<path fill="#ffffff" stroke="none" d="M217 78 c15 -17 15 -18 -3 -18 -21 0
-48 55 -37 73 3 6 10 0 15 -14 5 -13 16 -32 25 -41z"/>
<path fill="#000000" stroke="none" d="M273 253 c9 -2 23 -2 30 0 6 3 -1 5
-18 5 -16 0 -22 -2 -12 -5z"/>
<path fill="#000000" stroke="none" d="M62 35 c0 -17 2 -22 5 -12 2 9 2 23 0
30 -3 6 -5 -1 -5 -18z"/>
</g>
</svg>
