<?xml version="1.0" standalone="no"?>
<!DOCTYPE svg PUBLIC "-//W3C//DTD SVG 20010904//EN"
 "http://www.w3.org/TR/2001/REC-SVG-20010904/DTD/svg10.dtd">
<svg version="1.0" xmlns="http://www.w3.org/2000/svg"
 width="32.000000pt" height="32.000000pt" viewBox="0 0 32.000000 32.000000"
 preserveAspectRatio="xMidYMid meet">
<metadata>
Created by potrace 1.16, written by Peter Selinger 2001-2019
</metadata>
<g transform="translate(0.000000,32.000000) scale(0.100000,-0.100000)"
fill="#000000" stroke="none">
<path fill="#000000" stroke="none" d="M23 308 c7 -22 17 -64 11 -50 -3 6 -11
9 -16 6 -6 -4 -8 -3 -5 2 3 6 2 16 -4 24 -5 10 -9 -41 -9 -138 l0 -153 160 2
160 1 0 159 0 159 -151 0 c-117 0 -150 -3 -146 -12z"/>
<path fill="#ffffff" stroke="none" d="M154 204 c9 -8 16 -23 15 -32 0 -11 -2
-12 -6 -4 -2 6 -9 10 -14 6 -5 -3 -8 -1 -7 5 2 5 -6 17 -17 25 -17 13 -18 15
-3 16 9 0 24 -7 32 -16z"/>
<path fill="#ffffff" stroke="none" d="M204 98 c-3 -4 3 -8 14 -8 10 0 27 -9
37 -20 18 -20 18 -20 -21 -4 -50 20 -72 40 -45 40 11 0 17 -4 15 -8z"/>
</g>
</svg>
