<?xml version="1.0" standalone="no"?>
<!DOCTYPE svg PUBLIC "-//W3C//DTD SVG 20010904//EN"
 "http://www.w3.org/TR/2001/REC-SVG-20010904/DTD/svg10.dtd">
<svg version="1.0" xmlns="http://www.w3.org/2000/svg"
 width="32.000000pt" height="32.000000pt" viewBox="0 0 32.000000 32.000000"
 preserveAspectRatio="xMidYMid meet">
<metadata>
Created by potrace 1.16, written by Peter Selinger 2001-2019
</metadata>
<g transform="translate(0.000000,32.000000) scale(0.100000,-0.100000)"
fill="#000000" stroke="none">
<path fill="#000000" stroke="none" d="M220 222 c-50 -16 -63 -62 -30 -105 26
-32 26 -34 -10 -67 -30 -28 -39 -50 -20 -50 6 0 10 4 10 8 0 5 18 23 40 41
l41 32 10 -31 c11 -30 45 -57 57 -45 4 4 0 12 -9 18 -9 7 -24 27 -33 46 -15
29 -16 35 -4 48 31 30 -13 118 -52 105z"/>
<path fill="#ffffff" stroke="none" d="M248 188 c16 -16 15 -40 -2 -63 -14
-19 -15 -19 -35 -1 -12 11 -21 27 -21 36 0 18 19 40 35 40 6 0 16 -5 23 -12z"/>
</g>
</svg>
