<?xml version="1.0" standalone="no"?>
<!DOCTYPE svg PUBLIC "-//W3C//DTD SVG 20010904//EN"
 "http://www.w3.org/TR/2001/REC-SVG-20010904/DTD/svg10.dtd">
<svg version="1.0" xmlns="http://www.w3.org/2000/svg"
 width="32.000000pt" height="32.000000pt" viewBox="0 0 32.000000 32.000000"
 preserveAspectRatio="xMidYMid meet">
<metadata>
Created by potrace 1.16, written by Peter Selinger 2001-2019
</metadata>
<g transform="translate(0.000000,32.000000) scale(0.100000,-0.100000)"
fill="#000000" stroke="none">
<path fill="#000000" stroke="none" d="M0 245 c0 -41 3 -75 6 -75 3 0 14 5 25
10 13 8 19 7 19 0 0 -6 -11 -15 -25 -20 -24 -9 -25 -14 -25 -85 l0 -75 160 0
160 0 0 71 c0 56 -4 75 -17 86 -14 10 -14 13 -3 11 12 -2 16 12 18 75 l3 77
-161 0 -160 0 0 -75z"/>
<path fill="#ffffff" stroke="none" d="M179 144 c-15 -18 -57 -23 -70 -8 -8 9
-6 11 9 7 11 -2 22 -1 25 4 3 5 15 9 26 9 14 0 17 -4 10 -12z"/>
</g>
</svg>
