<?xml version="1.0" standalone="no"?>
<!DOCTYPE svg PUBLIC "-//W3C//DTD SVG 20010904//EN"
 "http://www.w3.org/TR/2001/REC-SVG-20010904/DTD/svg10.dtd">
<svg version="1.0" xmlns="http://www.w3.org/2000/svg"
 width="32.000000pt" height="32.000000pt" viewBox="0 0 32.000000 32.000000"
 preserveAspectRatio="xMidYMid meet">
<metadata>
Created by potrace 1.16, written by Peter Selinger 2001-2019
</metadata>
<g transform="translate(0.000000,32.000000) scale(0.100000,-0.100000)"
fill="#000000" stroke="none">
<path fill="#000000" stroke="none" d="M144 303 c-4 -10 -6 -24 -5 -30 1 -7
-2 -13 -8 -13 -18 0 -70 -51 -65 -64 6 -15 -42 -39 -58 -30 -6 4 -9 1 -6 -7 5
-17 48 -25 48 -10 0 20 20 11 32 -13 6 -14 27 -32 47 -40 35 -14 37 -13 63 11
21 20 25 30 17 44 -14 27 -49 43 -86 40 -18 -1 -33 2 -33 7 0 14 26 33 33 25
4 -3 7 -1 7 5 0 18 19 15 47 -7 31 -25 74 -11 66 20 -7 27 -44 52 -57 39 -18
-18 -27 -11 -20 15 7 28 -10 34 -22 8z"/>
<path fill="#ffffff" stroke="none" d="M220 239 c0 -11 -27 -12 -34 0 -3 4 -3
11 0 14 8 8 34 -3 34 -14z"/>
<path fill="#ffffff" stroke="none" d="M175 156 c16 -12 17 -16 6 -30 -16 -19
-41 -21 -41 -4 0 6 -3 8 -7 5 -9 -9 -33 12 -33 29 0 18 50 18 75 0z"/>
</g>
</svg>
