<?xml version="1.0" standalone="no"?>
<!DOCTYPE svg PUBLIC "-//W3C//DTD SVG 20010904//EN"
 "http://www.w3.org/TR/2001/REC-SVG-20010904/DTD/svg10.dtd">
<svg version="1.0" xmlns="http://www.w3.org/2000/svg"
 width="32.000000pt" height="32.000000pt" viewBox="0 0 32.000000 32.000000"
 preserveAspectRatio="xMidYMid meet">
<metadata>
Created by potrace 1.16, written by Peter Selinger 2001-2019
</metadata>
<g transform="translate(0.000000,32.000000) scale(0.100000,-0.100000)"
fill="#000000" stroke="none">
<path fill="#000000" stroke="none" d="M150 314 c0 -3 4 -14 10 -24 7 -13 6
-21 -5 -30 -25 -21 -19 -59 10 -66 28 -7 55 10 55 34 0 15 1 15 16 0 12 -12
14 -21 6 -34 -7 -12 -6 -23 1 -36 9 -14 8 -21 -5 -34 -15 -16 -18 -15 -44 5
-42 33 -96 23 -113 -22 -19 -47 58 -87 103 -54 15 11 25 10 60 -7 22 -11 46
-27 53 -36 16 -21 27 -6 13 20 -6 11 -24 23 -41 27 -39 8 -44 18 -21 47 30 39
20 156 -14 156 -8 0 -28 14 -44 30 -28 29 -40 36 -40 24z"/>
<path fill="#ffffff" stroke="none" d="M200 236 c0 -21 -20 -30 -33 -17 -9 9
-8 14 3 21 21 14 30 12 30 -4z"/>
<path fill="#ffffff" stroke="none" d="M181 111 c20 -18 20 -18 -3 -33 -31
-19 -58 -17 -72 5 -9 15 -7 21 8 33 26 19 43 18 67 -5z"/>
</g>
</svg>
