<?xml version="1.0" standalone="no"?>
<!DOCTYPE svg PUBLIC "-//W3C//DTD SVG 20010904//EN"
 "http://www.w3.org/TR/2001/REC-SVG-20010904/DTD/svg10.dtd">
<svg version="1.0" xmlns="http://www.w3.org/2000/svg"
 width="32.000000pt" height="32.000000pt" viewBox="0 0 32.000000 32.000000"
 preserveAspectRatio="xMidYMid meet">
<metadata>
Created by potrace 1.16, written by Peter Selinger 2001-2019
</metadata>
<g transform="translate(0.000000,32.000000) scale(0.100000,-0.100000)"
fill="#000000" stroke="none">
<path fill="#000000" stroke="none" d="M0 170 c0 -163 7 -178 45 -96 18 37 19
47 8 62 -33 45 7 121 54 103 45 -17 55 -71 22 -113 -20 -26 -21 -29 -5 -44 13
-13 20 -14 34 -5 13 7 24 8 36 1 13 -8 22 -6 34 6 15 15 15 16 0 16 -24 0 -41
27 -34 55 7 29 45 35 66 11 9 -12 17 -13 36 -4 22 10 24 17 24 85 l0 73 -160
0 -160 0 0 -150z"/>
<path fill="#000000" stroke="none" d="M72 208 c-13 -16 -11 -34 7 -66 l13
-24 20 22 c17 18 19 28 12 49 -11 29 -35 38 -52 19z"/>
<path fill="#000000" stroke="none" d="M215 150 c-8 -14 3 -30 21 -30 16 0 16
2 8 24 -7 18 -20 21 -29 6z"/>
<path fill="#000000" stroke="none" d="M283 124 c-13 -14 -23 -32 -23 -39 0
-33 -117 -43 -156 -13 -27 22 -44 17 -44 -13 0 -10 -9 -28 -20 -39 l-20 -20
150 0 150 0 0 75 c0 41 -3 75 -7 75 -5 0 -18 -12 -30 -26z"/>
</g>
</svg>
