<?xml version="1.0" standalone="no"?>
<!DOCTYPE svg PUBLIC "-//W3C//DTD SVG 20010904//EN"
 "http://www.w3.org/TR/2001/REC-SVG-20010904/DTD/svg10.dtd">
<svg version="1.0" xmlns="http://www.w3.org/2000/svg"
 width="32.000000pt" height="32.000000pt" viewBox="0 0 32.000000 32.000000"
 preserveAspectRatio="xMidYMid meet">
<metadata>
Created by potrace 1.16, written by Peter Selinger 2001-2019
</metadata>
<g transform="translate(0.000000,32.000000) scale(0.100000,-0.100000)"
fill="#000000" stroke="none">
<path fill="#000000" stroke="none" d="M145 311 c-3 -5 0 -13 6 -17 14 -8 4
-62 -15 -83 -12 -14 -12 -24 0 -70 9 -33 11 -58 5 -64 -10 -10 8 -77 21 -77 5
0 7 15 4 33 -3 18 -1 39 4 47 5 8 4 22 -2 34 -19 35 -18 74 1 118 14 32 16 49
8 66 -11 23 -22 28 -32 13z"/>
</g>
</svg>
