<?xml version="1.0" standalone="no"?>
<!DOCTYPE svg PUBLIC "-//W3C//DTD SVG 20010904//EN"
 "http://www.w3.org/TR/2001/REC-SVG-20010904/DTD/svg10.dtd">
<svg version="1.0" xmlns="http://www.w3.org/2000/svg"
 width="32.000000pt" height="32.000000pt" viewBox="0 0 32.000000 32.000000"
 preserveAspectRatio="xMidYMid meet">
<metadata>
Created by potrace 1.16, written by Peter Selinger 2001-2019
</metadata>
<g transform="translate(0.000000,32.000000) scale(0.100000,-0.100000)"
fill="#000000" stroke="none">
<path fill="#000000" stroke="none" d="M0 160 l0 -160 153 0 c136 1 150 2 133
15 -11 8 -25 15 -31 15 -6 0 -20 10 -32 23 -24 28 -17 56 21 80 28 19 30 25
17 46 -7 11 -13 11 -32 0 -49 -27 -119 4 -98 43 16 29 68 49 93 34 12 -6 24
-15 27 -19 8 -11 32 20 24 33 -3 5 -2 10 3 10 5 0 12 9 15 20 5 19 0 20 -144
20 l-149 0 0 -160z"/>
<path fill="#000000" stroke="none" d="M293 252 c-15 -34 -19 -52 -11 -65 14
-27 3 -60 -24 -72 -13 -5 -24 -18 -26 -27 -3 -16 28 -44 58 -50 8 -2 18 -7 22
-13 4 -5 8 54 8 133 0 78 -1 142 -2 142 -2 0 -13 -22 -25 -48z"/>
<path fill="#000000" stroke="none" d="M165 227 c-24 -18 -11 -37 24 -37 35 0
56 21 39 38 -16 16 -40 15 -63 -1z"/>
</g>
</svg>
