<?xml version="1.0" standalone="no"?>
<!DOCTYPE svg PUBLIC "-//W3C//DTD SVG 20010904//EN"
 "http://www.w3.org/TR/2001/REC-SVG-20010904/DTD/svg10.dtd">
<svg version="1.0" xmlns="http://www.w3.org/2000/svg"
 width="32.000000pt" height="32.000000pt" viewBox="0 0 32.000000 32.000000"
 preserveAspectRatio="xMidYMid meet">
<metadata>
Created by potrace 1.16, written by Peter Selinger 2001-2019
</metadata>
<g transform="translate(0.000000,32.000000) scale(0.100000,-0.100000)"
fill="#000000" stroke="none">
<path fill="#000000" stroke="none" d="M30 160 l0 -130 130 0 130 0 0 130 0
130 -130 0 -130 0 0 -130z"/>
<path fill="#ffffff" stroke="none" d="M261 233 c20 -23 20 -25 2 -10 -18 16
-25 17 -45 6 -23 -12 -40 -30 -58 -61 -9 -14 -7 -16 7 -11 14 5 13 1 -6 -25
-12 -18 -24 -32 -26 -32 -3 0 -11 12 -18 27 -14 26 -13 29 38 80 28 29 59 53
67 53 8 0 25 -12 39 -27z"/>
<path fill="#ffffff" stroke="none" d="M110 105 c16 -19 -2 -65 -25 -65 -23 0
-41 46 -25 65 7 8 18 15 25 15 7 0 18 -7 25 -15z"/>
<path fill="#000000" stroke="none" d="M67 93 c-4 -3 -7 -11 -7 -17 0 -6 5 -5
12 2 6 6 9 14 7 17 -3 3 -9 2 -12 -2z"/>
<path fill="#000000" stroke="none" d="M90 91 c0 -5 5 -13 10 -16 6 -3 10 -2
10 4 0 5 -4 13 -10 16 -5 3 -10 2 -10 -4z"/>
<path fill="#000000" stroke="none" d="M78 53 c7 -3 16 -2 19 1 4 3 -2 6 -13
5 -11 0 -14 -3 -6 -6z"/>
</g>
</svg>
