<?xml version="1.0" standalone="no"?>
<!DOCTYPE svg PUBLIC "-//W3C//DTD SVG 20010904//EN"
 "http://www.w3.org/TR/2001/REC-SVG-20010904/DTD/svg10.dtd">
<svg version="1.0" xmlns="http://www.w3.org/2000/svg"
 width="32.000000pt" height="32.000000pt" viewBox="0 0 32.000000 32.000000"
 preserveAspectRatio="xMidYMid meet">
<metadata>
Created by potrace 1.16, written by Peter Selinger 2001-2019
</metadata>
<g transform="translate(0.000000,32.000000) scale(0.100000,-0.100000)"
fill="#000000" stroke="none">
<path fill="#000000" stroke="none" d="M0 160 l0 -160 160 0 160 0 0 160 0
160 -160 0 -160 0 0 -160z"/>
<path fill="#ffffff" stroke="none" d="M168 293 l-138 -4 0 -128 c0 -94 3
-131 13 -134 7 -3 5 -6 -5 -6 -16 -1 -18 12 -18 139 l0 140 143 -2 142 -2
-137 -3z"/>
<path fill="#ffffff" stroke="none" d="M246 235 c4 -8 1 -22 -6 -30 -11 -13
-10 -14 3 -10 23 10 31 -14 11 -36 -13 -14 -20 -16 -31 -8 -9 8 -13 8 -13 1 0
-6 4 -13 9 -17 5 -3 8 -18 7 -33 -4 -35 -41 -39 -40 -4 1 20 -1 21 -17 6 -11
-10 -19 -12 -23 -5 -5 7 -13 7 -26 -1 -14 -9 -25 -9 -45 0 -23 11 -25 15 -14
28 7 8 18 13 25 10 7 -3 20 7 29 21 15 22 15 25 2 20 -9 -3 -20 0 -26 7 -15
18 24 55 41 38 8 -8 17 -8 30 -1 10 5 22 8 27 5 5 -3 14 1 21 9 16 19 29 19
36 0z"/>
<path fill="#000000" stroke="none" d="M100 205 c-7 -8 -9 -16 -4 -16 5 -1 14
-2 19 -4 6 -1 14 -3 18 -3 5 -1 -1 -15 -13 -32 -12 -16 -27 -27 -34 -24 -8 3
-17 1 -20 -5 -8 -12 38 -26 52 -17 6 3 19 22 31 42 12 19 17 32 11 29 -6 -3
-14 5 -20 19 -11 30 -22 33 -40 11z"/>
</g>
</svg>
