<?xml version="1.0" standalone="no"?>
<!DOCTYPE svg PUBLIC "-//W3C//DTD SVG 20010904//EN"
 "http://www.w3.org/TR/2001/REC-SVG-20010904/DTD/svg10.dtd">
<svg version="1.0" xmlns="http://www.w3.org/2000/svg"
 width="32.000000pt" height="32.000000pt" viewBox="0 0 32.000000 32.000000"
 preserveAspectRatio="xMidYMid meet">
<metadata>
Created by potrace 1.16, written by Peter Selinger 2001-2019
</metadata>
<g transform="translate(0.000000,32.000000) scale(0.100000,-0.100000)"
fill="#000000" stroke="none">
<path fill="#000000" stroke="none" d="M22 158 l2 -143 3 137 4 137 137 4 137
3 -142 2 -143 2 2 -142z"/>
<path fill="#000000" stroke="none" d="M79 241 c-33 -32 -39 -45 -39 -79 0
-54 39 -104 64 -83 9 7 16 18 16 24 0 6 -7 2 -15 -9 -15 -19 -15 -19 -30 0
-21 28 -19 33 20 40 36 7 57 27 37 34 -7 2 -9 8 -6 14 4 6 -1 8 -13 4 -26 -8
-55 3 -46 18 4 6 8 14 9 19 1 4 2 10 3 14 0 3 11 -2 24 -13 l22 -19 -18 21
c-16 19 -16 22 -3 27 11 5 18 -2 23 -21 l7 -27 6 30 c3 17 11 30 20 30 9 0 17
-13 20 -30 6 -28 7 -29 14 -7 4 12 14 22 22 22 16 0 56 -59 51 -75 -2 -5 -23
-12 -48 -15 l-44 -5 34 -32 c21 -19 31 -36 26 -45 -3 -7 5 0 19 15 41 45 36
99 -13 148 -33 33 -45 39 -81 39 -36 0 -48 -6 -81 -39z"/>
<path fill="#ffffff" stroke="none" d="M109 164 c7 -6 -2 -11 -31 -18 -24 -5
-28 -3 -28 14 0 17 4 19 28 14 15 -4 29 -8 31 -10z"/>
<path fill="#000000" stroke="none" d="M141 93 c-7 -19 -20 -33 -29 -33 -15 0
-15 -2 -2 -10 18 -12 80 -13 98 -1 10 6 9 10 -7 14 -12 3 -21 1 -21 -4 0 -5
-4 -9 -9 -9 -6 0 -11 17 -13 38 l-4 37 -13 -32z"/>
</g>
</svg>
