<?xml version="1.0" standalone="no"?>
<!DOCTYPE svg PUBLIC "-//W3C//DTD SVG 20010904//EN"
 "http://www.w3.org/TR/2001/REC-SVG-20010904/DTD/svg10.dtd">
<svg version="1.0" xmlns="http://www.w3.org/2000/svg"
 width="32.000000pt" height="32.000000pt" viewBox="0 0 32.000000 32.000000"
 preserveAspectRatio="xMidYMid meet">
<metadata>
Created by potrace 1.16, written by Peter Selinger 2001-2019
</metadata>
<g transform="translate(0.000000,32.000000) scale(0.100000,-0.100000)"
fill="#000000" stroke="none">
<path fill="#000000" stroke="none" d="M0 160 l0 -160 160 0 160 0 0 160 0
160 -160 0 -160 0 0 -160z"/>
<path fill="#ffffff" stroke="none" d="M168 293 l-137 -4 -4 -137 -3 -137 -2
143 -2 142 143 -2 142 -2 -137 -3z"/>
<path fill="#ffffff" stroke="none" d="M220 254 c0 -14 -4 -23 -9 -19 -6 3
-15 -3 -21 -14 -7 -14 -7 -22 0 -26 15 -9 43 3 35 15 -3 5 3 10 14 10 12 0 21
-3 21 -7 0 -12 -16 -35 -24 -34 -32 5 -37 -23 -6 -39 15 -8 20 -8 20 2 1 8 7
5 15 -6 21 -28 19 -36 -11 -36 -14 0 -23 4 -19 9 3 6 -3 15 -14 21 -14 7 -22
7 -26 0 -9 -15 3 -43 15 -35 5 3 10 -3 10 -14 0 -12 -3 -21 -7 -21 -12 0 -35
16 -34 24 5 32 -23 37 -39 6 -8 -15 -8 -20 2 -20 8 -1 5 -7 -6 -15 -28 -21
-36 -19 -36 11 0 14 4 23 9 19 6 -3 15 3 21 14 7 14 7 22 0 26 -15 9 -43 -3
-35 -15 3 -5 -3 -10 -14 -10 -12 0 -21 3 -21 8 0 11 16 34 24 33 32 -5 37 23
6 39 -15 8 -20 8 -20 -2 -1 -8 -7 -5 -15 6 -21 28 -19 36 11 36 14 0 23 -4 19
-9 -3 -6 3 -15 14 -21 14 -7 22 -7 26 0 9 15 -3 43 -15 35 -5 -3 -10 3 -10 14
0 12 3 21 8 21 11 0 34 -16 33 -24 -5 -32 23 -37 39 -6 8 15 8 20 -2 20 -8 1
-5 7 6 15 28 21 36 19 36 -11z"/>
<path fill="#000000" stroke="none" d="M134 176 c-10 -26 4 -48 28 -44 17 2
23 10 23 28 0 18 -6 26 -23 28 -13 2 -25 -3 -28 -12z"/>
</g>
</svg>
