<?xml version="1.0" standalone="no"?>
<!DOCTYPE svg PUBLIC "-//W3C//DTD SVG 20010904//EN"
 "http://www.w3.org/TR/2001/REC-SVG-20010904/DTD/svg10.dtd">
<svg version="1.0" xmlns="http://www.w3.org/2000/svg"
 width="32.000000pt" height="32.000000pt" viewBox="0 0 32.000000 32.000000"
 preserveAspectRatio="xMidYMid meet">
<metadata>
Created by potrace 1.16, written by Peter Selinger 2001-2019
</metadata>
<g transform="translate(0.000000,32.000000) scale(0.100000,-0.100000)"
fill="#000000" stroke="none">
<path fill="#000000" stroke="none" d="M0 160 l0 -160 160 0 160 0 0 160 0
160 -160 0 -160 0 0 -160z"/>
<path fill="#ffffff" stroke="none" d="M163 293 l-132 -4 -4 -132 -3 -132 -2
138 -2 137 138 -2 137 -2 -132 -3z"/>
<path fill="#ffffff" stroke="none" d="M200 235 c0 -2 -7 -8 -15 -15 -12 -10
-15 -10 -15 2 0 8 7 15 15 15 8 0 15 -1 15 -2z"/>
<path fill="#ffffff" stroke="none" d="M100 185 c10 -12 10 -15 -2 -15 -8 0
-15 7 -15 15 0 8 1 15 2 15 2 0 8 -7 15 -15z"/>
<path fill="#ffffff" stroke="none" d="M134 187 c-3 -10 4 -14 26 -14 22 0 29
4 26 14 -3 8 -1 11 4 8 15 -9 12 -35 -4 -35 -8 0 -17 -6 -20 -12 -5 -10 -7
-10 -12 0 -3 6 -12 12 -20 12 -14 0 -19 21 -7 33 10 11 13 8 7 -6z"/>
<path fill="#ffffff" stroke="none" d="M237 135 c0 -11 -4 -12 -14 -4 -7 6
-13 13 -13 15 0 2 6 4 13 4 8 0 14 -7 14 -15z"/>
<path fill="#ffffff" stroke="none" d="M150 92 c0 -5 -7 -9 -15 -9 -8 0 -12 4
-9 9 7 10 24 10 24 0z"/>
</g>
</svg>
