<?xml version="1.0" standalone="no"?>
<!DOCTYPE svg PUBLIC "-//W3C//DTD SVG 20010904//EN"
 "http://www.w3.org/TR/2001/REC-SVG-20010904/DTD/svg10.dtd">
<svg version="1.0" xmlns="http://www.w3.org/2000/svg"
 width="32.000000pt" height="32.000000pt" viewBox="0 0 32.000000 32.000000"
 preserveAspectRatio="xMidYMid meet">
<metadata>
Created by potrace 1.16, written by Peter Selinger 2001-2019
</metadata>
<g transform="translate(0.000000,32.000000) scale(0.100000,-0.100000)"
fill="#000000" stroke="none">
<path fill="#000000" stroke="none" d="M0 160 l0 -160 160 0 160 0 0 160 0
160 -160 0 -160 0 0 -160z"/>
<path fill="#ffffff" stroke="none" d="M300 160 l0 -140 -137 0 -138 0 3 77
c4 84 12 104 36 84 10 -8 30 -10 59 -6 57 9 112 -16 104 -46 -4 -13 2 -25 18
-35 28 -18 45 -11 45 17 0 11 -5 17 -10 14 -6 -4 -8 -11 -5 -16 4 -5 2 -9 -2
-9 -12 0 -33 22 -33 34 0 5 3 6 7 3 7 -8 43 21 43 34 0 5 -6 6 -14 3 -26 -10
-110 35 -133 71 l-21 34 41 6 c23 3 62 7 87 8 25 2 46 4 48 5 1 1 2 -61 2
-138z"/>
<path fill="#ffffff" stroke="none" d="M123 226 c3 3 5 -2 4 -13 0 -11 -9 -20
-19 -20 -10 -1 -16 2 -14 6 3 5 -6 18 -19 31 -13 13 -22 27 -19 32 4 5 18 -2
33 -16 15 -15 30 -23 34 -20z"/>
<path fill="#000000" stroke="none" d="M116 51 c-4 -5 -2 -12 3 -15 5 -4 12
-2 15 3 4 5 2 12 -3 15 -5 4 -12 2 -15 -3z"/>
</g>
</svg>
