<?xml version="1.0" standalone="no"?>
<!DOCTYPE svg PUBLIC "-//W3C//DTD SVG 20010904//EN"
 "http://www.w3.org/TR/2001/REC-SVG-20010904/DTD/svg10.dtd">
<svg version="1.0" xmlns="http://www.w3.org/2000/svg"
 width="32.000000pt" height="32.000000pt" viewBox="0 0 32.000000 32.000000"
 preserveAspectRatio="xMidYMid meet">
<metadata>
Created by potrace 1.16, written by Peter Selinger 2001-2019
</metadata>
<g transform="translate(0.000000,32.000000) scale(0.100000,-0.100000)"
fill="#000000" stroke="none">
<path fill="#000000" stroke="none" d="M0 160 l0 -160 160 0 160 0 0 160 0
160 -160 0 -160 0 0 -160z"/>
<path fill="#ffffff" stroke="none" d="M300 160 l0 -140 -140 0 -140 0 0 140
0 140 140 0 140 0 0 -140z"/>
<path fill="#000000" stroke="none" d="M31 242 c3 -53 3 -53 93 -53 48 0 121
-28 128 -49 2 -7 12 -2 23 11 18 20 18 22 2 16 -27 -10 -87 19 -135 66 -41 41
-42 42 -20 49 14 4 1 6 -35 7 l-58 1 2 -48z"/>
<path fill="#ffffff" stroke="none" d="M90 245 c12 -13 26 -22 31 -19 4 2 7
-4 6 -14 0 -10 -9 -19 -19 -19 -10 -1 -16 2 -14 6 3 5 -6 19 -19 31 -14 13
-25 27 -25 32 0 15 16 8 40 -17z"/>
<path fill="#000000" stroke="none" d="M280 130 c-8 -26 -7 -41 2 -32 6 6 8
16 5 24 -3 7 -6 11 -7 8z"/>
<path fill="#000000" stroke="none" d="M236 111 c-4 -5 -2 -12 3 -15 5 -4 12
-2 15 3 4 5 2 12 -3 15 -5 4 -12 2 -15 -3z"/>
</g>
</svg>
