<?xml version="1.0" standalone="no"?>
<!DOCTYPE svg PUBLIC "-//W3C//DTD SVG 20010904//EN"
 "http://www.w3.org/TR/2001/REC-SVG-20010904/DTD/svg10.dtd">
<svg version="1.0" xmlns="http://www.w3.org/2000/svg"
 width="32.000000pt" height="32.000000pt" viewBox="0 0 32.000000 32.000000"
 preserveAspectRatio="xMidYMid meet">
<metadata>
Created by potrace 1.16, written by Peter Selinger 2001-2019
</metadata>
<g transform="translate(0.000000,32.000000) scale(0.100000,-0.100000)"
fill="#000000" stroke="none">
<path fill="#000000" stroke="none" d="M22 158 l2 -143 3 137 4 137 137 4 137
3 -142 2 -143 2 2 -142z"/>
<path fill="#000000" stroke="none" d="M187 262 c-10 -10 -17 -28 -17 -40 0
-11 -8 -23 -17 -25 -11 -3 -7 -5 10 -6 15 -1 27 -7 27 -15 0 -9 9 -12 28 -8
57 10 81 61 44 95 -24 22 -55 21 -75 -1z"/>
<path fill="#ffffff" stroke="none" d="M220 250 c0 -13 -7 -20 -20 -20 -23 0
-26 10 -8 28 18 18 28 15 28 -8z"/>
<path fill="#ffffff" stroke="none" d="M258 258 c18 -18 15 -28 -8 -28 -13 0
-20 7 -20 20 0 23 10 26 28 8z"/>
<path fill="#ffffff" stroke="none" d="M220 200 c0 -11 -2 -20 -3 -20 -2 0
-12 9 -22 20 -18 19 -17 20 3 20 15 0 22 -6 22 -20z"/>
<path fill="#ffffff" stroke="none" d="M270 212 c0 -4 -5 -13 -12 -20 -18 -18
-28 -15 -28 8 0 13 7 20 20 20 11 0 20 -4 20 -8z"/>
<path fill="#000000" stroke="none" d="M148 166 c-10 -7 -15 -15 -12 -18 2 -3
-9 -17 -25 -31 -16 -13 -27 -27 -24 -30 3 -3 16 7 30 24 14 16 29 27 33 24 8
-5 30 24 30 39 0 10 -14 6 -32 -8z"/>
<path fill="#000000" stroke="none" d="M65 70 c3 -5 8 -10 11 -10 2 0 4 5 4
10 0 6 -5 10 -11 10 -5 0 -7 -4 -4 -10z"/>
</g>
</svg>
