<?xml version="1.0" standalone="no"?>
<!DOCTYPE svg PUBLIC "-//W3C//DTD SVG 20010904//EN"
 "http://www.w3.org/TR/2001/REC-SVG-20010904/DTD/svg10.dtd">
<svg version="1.0" xmlns="http://www.w3.org/2000/svg"
 width="32.000000pt" height="32.000000pt" viewBox="0 0 32.000000 32.000000"
 preserveAspectRatio="xMidYMid meet">
<metadata>
Created by potrace 1.16, written by Peter Selinger 2001-2019
</metadata>
<g transform="translate(0.000000,32.000000) scale(0.100000,-0.100000)"
fill="#000000" stroke="none">
<path fill="#000000" stroke="none" d="M22 158 l2 -143 3 137 4 137 137 4 137
3 -142 2 -143 2 2 -142z"/>
<path fill="#000000" stroke="none" d="M218 254 c4 -25 3 -26 -22 -22 -22 4
-26 2 -26 -18 0 -13 5 -24 10 -24 6 0 10 -6 10 -14 0 -9 8 -12 23 -9 19 4 23
10 19 30 -4 23 -2 25 22 21 16 -3 26 -1 26 7 0 8 -10 10 -26 7 -25 -4 -26 -3
-22 22 3 16 1 26 -7 26 -8 0 -10 -10 -7 -26z"/>
<path fill="#ffffff" stroke="none" d="M220 200 c0 -24 -6 -25 -26 -6 -19 20
-18 26 6 26 13 0 20 -7 20 -20z"/>
<path fill="#000000" stroke="none" d="M148 166 c-13 -9 -14 -16 -6 -24 8 -8
15 -7 24 6 24 32 14 42 -18 18z"/>
</g>
</svg>
