<?xml version="1.0" standalone="no"?>
<!DOCTYPE svg PUBLIC "-//W3C//DTD SVG 20010904//EN"
 "http://www.w3.org/TR/2001/REC-SVG-20010904/DTD/svg10.dtd">
<svg version="1.0" xmlns="http://www.w3.org/2000/svg"
 width="32.000000pt" height="32.000000pt" viewBox="0 0 32.000000 32.000000"
 preserveAspectRatio="xMidYMid meet">
<metadata>
Created by potrace 1.16, written by Peter Selinger 2001-2019
</metadata>
<g transform="translate(0.000000,32.000000) scale(0.100000,-0.100000)"
fill="#000000" stroke="none">
<path fill="#000000" stroke="none" d="M18 258 c-2 -24 -2 -87 0 -140 l3 -98
140 0 139 0 0 140 0 140 -139 0 -140 0 -3 -42z"/>
<path fill="#ffffff" stroke="none" d="M290 160 l0 -130 -130 0 -130 0 0 130
0 130 130 0 130 0 0 -130z"/>
<path fill="#000000" stroke="none" d="M182 268 c-7 -7 -12 -22 -12 -35 0 -13
-4 -23 -8 -23 -5 0 -17 -7 -28 -16 -18 -15 -18 -15 11 -10 28 6 29 5 11 -9
-11 -8 -24 -15 -29 -15 -4 0 -6 -4 -3 -8 8 -13 -32 -52 -52 -52 -15 0 -15 -2
-2 -10 12 -8 11 -10 -7 -10 -22 0 -22 -1 -5 -18 12 -13 18 -14 20 -5 2 7 8 11
13 8 5 -4 9 2 9 12 0 18 37 49 53 45 4 -1 7 2 7 6 0 5 7 17 15 28 14 18 14 17
5 -8 -12 -35 3 -37 18 -3 8 16 20 25 35 25 13 0 28 5 35 12 16 16 16 70 0 86
-16 16 -70 16 -86 0z"/>
<path fill="#ffffff" stroke="none" d="M220 245 c0 -8 -7 -15 -15 -15 -16 0
-20 12 -8 23 11 12 23 8 23 -8z"/>
<path fill="#ffffff" stroke="none" d="M258 242 c2 -7 -3 -12 -12 -12 -9 0
-16 7 -16 16 0 17 22 14 28 -4z"/>
<path fill="#ffffff" stroke="none" d="M220 204 c0 -14 -3 -14 -15 -4 -8 7
-15 14 -15 16 0 2 7 4 15 4 8 0 15 -7 15 -16z"/>
<path fill="#ffffff" stroke="none" d="M258 208 c-6 -18 -28 -21 -28 -4 0 9 7
16 16 16 9 0 14 -5 12 -12z"/>
</g>
</svg>
