<?xml version="1.0" standalone="no"?>
<!DOCTYPE svg PUBLIC "-//W3C//DTD SVG 20010904//EN"
 "http://www.w3.org/TR/2001/REC-SVG-20010904/DTD/svg10.dtd">
<svg version="1.0" xmlns="http://www.w3.org/2000/svg"
 width="32.000000pt" height="32.000000pt" viewBox="0 0 32.000000 32.000000"
 preserveAspectRatio="xMidYMid meet">
<metadata>
Created by potrace 1.16, written by Peter Selinger 2001-2019
</metadata>
<g transform="translate(0.000000,32.000000) scale(0.100000,-0.100000)"
fill="#000000" stroke="none">
<path fill="#000000" stroke="none" d="M86 125 c-7 -18 0 -35 14 -35 5 0 7 10
5 21 -6 29 -11 33 -19 14z"/>
<path fill="#000000" stroke="none" d="M127 106 c-3 -8 -2 -18 3 -21 13 -8 20
9 11 24 -6 10 -10 9 -14 -3z"/>
<path fill="#000000" stroke="none" d="M75 80 c3 -4 14 -10 25 -13 11 -3 18
-2 15 3 -3 4 -14 10 -25 13 -11 3 -18 2 -15 -3z"/>
</g>
</svg>
