<?xml version="1.0" standalone="no"?>
<!DOCTYPE svg PUBLIC "-//W3C//DTD SVG 20010904//EN"
 "http://www.w3.org/TR/2001/REC-SVG-20010904/DTD/svg10.dtd">
<svg version="1.0" xmlns="http://www.w3.org/2000/svg"
 width="32.000000pt" height="32.000000pt" viewBox="0 0 32.000000 32.000000"
 preserveAspectRatio="xMidYMid meet">
<metadata>
Created by potrace 1.16, written by Peter Selinger 2001-2019
</metadata>
<g transform="translate(0.000000,32.000000) scale(0.100000,-0.100000)"
fill="#000000" stroke="none">
<path fill="#000000" stroke="none" d="M0 281 c0 -35 3 -39 29 -44 17 -4 38
-19 51 -37 22 -31 22 -31 2 -19 -12 7 -19 15 -17 18 8 7 -29 30 -47 31 -16 0
-18 -12 -18 -115 l0 -115 160 0 160 0 0 160 0 160 -160 0 -160 0 0 -39z"/>
</g>
</svg>
