<?xml version="1.0" standalone="no"?>
<!DOCTYPE svg PUBLIC "-//W3C//DTD SVG 20010904//EN"
 "http://www.w3.org/TR/2001/REC-SVG-20010904/DTD/svg10.dtd">
<svg version="1.0" xmlns="http://www.w3.org/2000/svg"
 width="32.000000pt" height="32.000000pt" viewBox="0 0 32.000000 32.000000"
 preserveAspectRatio="xMidYMid meet">
<metadata>
Created by potrace 1.16, written by Peter Selinger 2001-2019
</metadata>
<g transform="translate(0.000000,32.000000) scale(0.100000,-0.100000)"
fill="#000000" stroke="none">
<path fill="#000000" stroke="none" d="M0 285 c0 -35 0 -35 44 -35 l45 0 -15
-27 c-7 -16 -14 -34 -14 -41 0 -7 -13 -25 -30 -39 -34 -28 -39 -66 -13 -95 15
-17 15 -18 0 -18 -10 0 -17 -7 -17 -15 0 -13 24 -15 160 -15 136 0 160 2 160
15 0 12 -19 15 -112 15 -77 0 -108 3 -98 10 8 5 26 10 39 10 28 0 139 37 159
52 16 14 15 57 -2 64 -23 9 -25 39 -5 65 10 13 19 39 19 57 l0 32 -160 0 -160
0 0 -35z"/>
<path fill="#ffffff" stroke="none" d="M300 249 c-7 -12 -30 -41 -52 -65 -45
-49 -74 -59 -62 -21 11 36 31 60 76 93 45 33 57 30 38 -7z"/>
<path fill="#ffffff" stroke="none" d="M200 240 c-16 -5 -19 -8 -8 -9 16 -1
16 -4 -3 -41 -28 -53 -9 -81 31 -45 22 20 75 6 75 -21 0 -15 -9 -20 -50 -24
-27 -4 -73 -18 -102 -33 -83 -43 -133 -34 -133 24 0 18 10 35 28 49 15 12 32
38 37 58 10 35 13 37 60 43 76 9 95 9 65 -1z"/>
</g>
</svg>
