<?xml version="1.0" standalone="no"?>
<!DOCTYPE svg PUBLIC "-//W3C//DTD SVG 20010904//EN"
 "http://www.w3.org/TR/2001/REC-SVG-20010904/DTD/svg10.dtd">
<svg version="1.0" xmlns="http://www.w3.org/2000/svg"
 width="32.000000pt" height="32.000000pt" viewBox="0 0 32.000000 32.000000"
 preserveAspectRatio="xMidYMid meet">
<metadata>
Created by potrace 1.16, written by Peter Selinger 2001-2019
</metadata>
<g transform="translate(0.000000,32.000000) scale(0.100000,-0.100000)"
fill="#000000" stroke="none">
<path fill="#000000" stroke="none" d="M82 247 c-6 -6 -14 -25 -18 -42 -4 -16
-20 -40 -36 -53 -54 -46 -24 -120 44 -109 108 19 210 48 236 69 17 14 15 57
-3 64 -8 4 -15 12 -15 20 0 8 -10 14 -24 14 -15 0 -26 7 -28 18 -8 29 -135 45
-156 19z"/>
<path fill="#ffffff" stroke="none" d="M155 240 c3 -5 -1 -10 -9 -10 -9 0 -16
-4 -16 -10 0 -13 6 -13 41 6 36 18 59 12 59 -15 0 -14 -5 -19 -16 -14 -10 4
-17 -1 -21 -15 -5 -22 -29 -36 -45 -26 -5 3 -12 -3 -15 -15 -3 -12 -11 -21
-19 -21 -14 0 -41 40 -27 40 4 0 3 4 -4 8 -6 4 -9 19 -6 34 3 15 9 26 13 23 4
-3 10 2 14 10 6 17 42 20 51 5z"/>
<path fill="#ffffff" stroke="none" d="M46 141 c-16 -17 -16 -18 1 -18 10 0
35 -3 56 -7 32 -7 46 -4 87 18 54 29 98 34 107 11 8 -21 -6 -33 -17 -15 -7 11
-27 5 -110 -35 -85 -40 -106 -47 -128 -39 -37 13 -43 65 -10 88 30 21 35 20
14 -3z"/>
</g>
</svg>
