<?xml version="1.0" standalone="no"?>
<!DOCTYPE svg PUBLIC "-//W3C//DTD SVG 20010904//EN"
 "http://www.w3.org/TR/2001/REC-SVG-20010904/DTD/svg10.dtd">
<svg version="1.0" xmlns="http://www.w3.org/2000/svg"
 width="32.000000pt" height="32.000000pt" viewBox="0 0 32.000000 32.000000"
 preserveAspectRatio="xMidYMid meet">
<metadata>
Created by potrace 1.16, written by Peter Selinger 2001-2019
</metadata>
<g transform="translate(0.000000,32.000000) scale(0.100000,-0.100000)"
fill="#000000" stroke="none">
<path fill="#000000" stroke="none" d="M82 247 c-6 -6 -14 -25 -18 -42 -4 -16
-20 -40 -36 -53 -54 -46 -24 -120 44 -109 108 19 210 48 236 69 17 14 15 57
-3 64 -8 4 -15 12 -15 20 0 8 -10 14 -24 14 -15 0 -26 7 -28 18 -8 29 -135 45
-156 19z"/>
<path fill="#ffffff" stroke="none" d="M183 244 c40 -6 46 -10 49 -35 4 -25 0
-30 -31 -41 -20 -7 -43 -13 -51 -13 -8 0 -16 -8 -18 -18 -5 -23 19 -22 69 4
50 25 94 22 94 -6 0 -17 -7 -20 -40 -21 -25 0 -64 -12 -102 -32 -91 -47 -143
-41 -143 17 0 25 25 61 43 61 5 0 7 -8 5 -17 -4 -13 2 -18 18 -19 20 -2 22 1
14 16 -5 9 -6 20 -3 24 3 3 1 6 -5 6 -15 0 -15 20 -2 54 10 28 24 31 103 20z"/>
<path fill="#000000" stroke="none" d="M240 130 c-8 -5 -10 -10 -5 -10 6 0 17
5 25 10 8 5 11 10 5 10 -5 0 -17 -5 -25 -10z"/>
</g>
</svg>
