<?xml version="1.0" standalone="no"?>
<!DOCTYPE svg PUBLIC "-//W3C//DTD SVG 20010904//EN"
 "http://www.w3.org/TR/2001/REC-SVG-20010904/DTD/svg10.dtd">
<svg version="1.0" xmlns="http://www.w3.org/2000/svg"
 width="32.000000pt" height="32.000000pt" viewBox="0 0 32.000000 32.000000"
 preserveAspectRatio="xMidYMid meet">
<metadata>
Created by potrace 1.16, written by Peter Selinger 2001-2019
</metadata>
<g transform="translate(0.000000,32.000000) scale(0.100000,-0.100000)"
fill="#000000" stroke="none">
<path fill="#000000" stroke="none" d="M0 184 l0 -66 29 24 c17 13 30 30 31
38 0 8 7 27 14 43 l15 27 -45 0 -44 0 0 -66z"/>
<path fill="#000000" stroke="none" d="M188 243 c6 -2 18 -2 25 0 6 3 1 5 -13
5 -14 0 -19 -2 -12 -5z"/>
<path fill="#000000" stroke="none" d="M261 243 c-1 -17 16 -25 25 -12 4 7 3
9 -4 5 -5 -3 -13 0 -15 6 -4 9 -6 10 -6 1z"/>
<path fill="#000000" stroke="none" d="M298 228 c-16 -27 -13 -54 8 -62 11 -4
14 4 14 39 0 25 -2 45 -4 45 -2 0 -10 -10 -18 -22z"/>
<path fill="#000000" stroke="none" d="M115 232 c-13 -9 -35 -49 -35 -62 0 -5
8 -10 18 -10 26 0 34 -11 21 -27 -10 -11 -15 -11 -28 -1 -14 12 -14 11 -2 -5
13 -17 15 -17 36 3 12 11 26 20 32 20 6 0 20 18 31 40 l19 40 -31 -18 c-17 -9
-34 -21 -38 -27 -5 -7 -8 -7 -9 0 -5 29 -4 41 6 47 6 5 6 8 0 8 -5 0 -14 -4
-20 -8z"/>
<path fill="#000000" stroke="none" d="M241 227 c-1 -10 -5 -15 -11 -12 -5 3
-10 -2 -10 -11 0 -13 3 -15 11 -7 6 6 19 9 28 6 10 -3 12 -2 5 4 -6 4 -14 15
-17 23 -4 12 -6 11 -6 -3z"/>
<path fill="#000000" stroke="none" d="M205 125 c-40 -22 -60 -26 -104 -23
-47 2 -56 0 -59 -15 -6 -30 89 -17 171 24 58 29 69 32 78 19 9 -13 10 -13 6 0
-6 24 -39 23 -92 -5z"/>
<path fill="#000000" stroke="none" d="M22 123 c-5 -10 -12 -35 -16 -55 -6
-32 -4 -38 10 -38 14 0 14 3 4 16 -12 13 -11 14 11 4 20 -9 33 -8 60 3 l34 15
-40 -5 c-52 -6 -74 14 -57 52 13 28 8 34 -6 8z"/>
<path fill="#000000" stroke="none" d="M305 101 c-15 -14 -128 -51 -156 -51
-13 0 -31 -5 -39 -10 -10 -7 21 -10 98 -10 l112 0 0 40 c0 43 -1 45 -15 31z"/>
</g>
</svg>
