<?xml version="1.0" standalone="no"?>
<!DOCTYPE svg PUBLIC "-//W3C//DTD SVG 20010904//EN"
 "http://www.w3.org/TR/2001/REC-SVG-20010904/DTD/svg10.dtd">
<svg version="1.0" xmlns="http://www.w3.org/2000/svg"
 width="32.000000pt" height="32.000000pt" viewBox="0 0 32.000000 32.000000"
 preserveAspectRatio="xMidYMid meet">
<metadata>
Created by potrace 1.16, written by Peter Selinger 2001-2019
</metadata>
<g transform="translate(0.000000,32.000000) scale(0.100000,-0.100000)"
fill="#000000" stroke="none">
<path fill="#000000" stroke="none" d="M153 252 c-2 -10 -15 -19 -30 -20 -15
-1 -29 -4 -31 -7 -7 -6 19 -36 27 -31 3 2 15 0 25 -4 19 -6 19 -7 -2 -12 -15
-4 -20 -2 -15 5 4 7 -1 6 -10 -2 -16 -13 -16 -15 -1 -32 10 -11 23 -19 31 -19
8 0 11 -5 7 -12 -6 -10 -4 -10 7 0 15 14 53 16 44 2 -3 -5 7 -2 24 8 16 9 28
18 26 20 -2 2 -11 0 -20 -6 -9 -5 -28 -7 -41 -4 -20 4 -22 7 -13 19 8 9 8 13
2 11 -6 -2 -12 2 -13 7 -1 6 -6 15 -10 21 -11 13 -1 56 11 48 5 -3 6 2 3 10
-8 21 -15 20 -21 -2z"/>
<path fill="#ffffff" stroke="none" d="M163 151 c3 -14 0 -17 -14 -14 -22 6
-26 33 -5 33 7 0 16 -8 19 -19z"/>
<path fill="#000000" stroke="none" d="M215 220 c3 -5 8 -10 11 -10 2 0 4 5 4
10 0 6 -5 10 -11 10 -5 0 -7 -4 -4 -10z"/>
<path fill="#000000" stroke="none" d="M74 133 c19 -23 32 -31 22 -14 -4 5 -3
11 1 14 5 2 3 3 -3 1 -6 -1 -18 3 -25 9 -7 7 -5 2 5 -10z"/>
<path fill="#000000" stroke="none" d="M116 97 c3 -10 9 -15 12 -12 3 3 0 11
-7 18 -10 9 -11 8 -5 -6z"/>
<path fill="#000000" stroke="none" d="M165 99 c-4 -6 -5 -12 -2 -15 2 -3 7 2
10 11 7 17 1 20 -8 4z"/>
<path fill="#000000" stroke="none" d="M116 45 c-3 -8 -1 -15 4 -15 6 0 10 7
10 15 0 8 -2 15 -4 15 -2 0 -6 -7 -10 -15z"/>
<path fill="#000000" stroke="none" d="M160 45 c0 -8 4 -15 10 -15 5 0 7 7 4
15 -4 8 -8 15 -10 15 -2 0 -4 -7 -4 -15z"/>
</g>
</svg>
