<?xml version="1.0" standalone="no"?>
<!DOCTYPE svg PUBLIC "-//W3C//DTD SVG 20010904//EN"
 "http://www.w3.org/TR/2001/REC-SVG-20010904/DTD/svg10.dtd">
<svg version="1.0" xmlns="http://www.w3.org/2000/svg"
 width="32.000000pt" height="32.000000pt" viewBox="0 0 32.000000 32.000000"
 preserveAspectRatio="xMidYMid meet">
<metadata>
Created by potrace 1.16, written by Peter Selinger 2001-2019
</metadata>
<g transform="translate(0.000000,32.000000) scale(0.100000,-0.100000)"
fill="#000000" stroke="none">
<path fill="#000000" stroke="none" d="M0 160 l0 -160 160 0 160 0 0 160 0
160 -160 0 -160 0 0 -160z"/>
<path fill="#ffffff" stroke="none" d="M195 199 c10 -15 -2 -24 -17 -11 -7 6
-31 12 -53 15 -36 3 -35 4 12 5 28 1 55 -3 58 -9z"/>
<path fill="#ffffff" stroke="none" d="M175 180 c3 -6 4 -18 1 -28 -5 -14 -18
-17 -70 -18 -66 -1 -72 6 -43 44 11 14 103 16 112 2z"/>
<path fill="#ffffff" stroke="none" d="M121 105 c34 6 39 4 39 -13 0 -29 -34
-62 -64 -62 -15 0 -28 6 -30 13 -2 6 -8 27 -14 44 -10 31 -9 32 10 22 11 -6
37 -8 59 -4z"/>
<path fill="#000000" stroke="none" d="M77 166 c-7 -6 -10 -10 -8 -9 2 2 10
-2 18 -8 9 -9 17 -8 28 1 8 6 20 8 26 4 8 -5 9 -3 4 6 -6 10 -4 12 11 6 10 -4
15 -4 11 1 -12 12 -76 11 -90 -1z"/>
<path fill="#ffffff" stroke="none" d="M110 166 c0 -3 -4 -8 -10 -11 -5 -3
-10 -1 -10 4 0 6 5 11 10 11 6 0 10 -2 10 -4z"/>
</g>
</svg>
