<?xml version="1.0" standalone="no"?>
<!DOCTYPE svg PUBLIC "-//W3C//DTD SVG 20010904//EN"
 "http://www.w3.org/TR/2001/REC-SVG-20010904/DTD/svg10.dtd">
<svg version="1.0" xmlns="http://www.w3.org/2000/svg"
 width="32.000000pt" height="32.000000pt" viewBox="0 0 32.000000 32.000000"
 preserveAspectRatio="xMidYMid meet">
<metadata>
Created by potrace 1.16, written by Peter Selinger 2001-2019
</metadata>
<g transform="translate(0.000000,32.000000) scale(0.100000,-0.100000)"
fill="#000000" stroke="none">
<path fill="#000000" stroke="none" d="M110 250 c0 -5 5 -10 11 -10 5 0 7 5 4
10 -3 6 -8 10 -11 10 -2 0 -4 -4 -4 -10z"/>
<path fill="#000000" stroke="none" d="M60 226 c0 -2 7 -9 15 -16 9 -7 15 -8
15 -2 0 5 -7 12 -15 16 -8 3 -15 4 -15 2z"/>
<path fill="#000000" stroke="none" d="M219 213 c-13 -16 -12 -17 4 -4 9 7 17
15 17 17 0 8 -8 3 -21 -13z"/>
<path fill="#000000" stroke="none" d="M105 199 c-4 -6 -4 -13 -1 -16 8 -8 36
5 36 17 0 13 -27 13 -35 -1z"/>
<path fill="#000000" stroke="none" d="M235 160 c4 -6 11 -8 16 -5 14 9 11 15
-7 15 -8 0 -12 -5 -9 -10z"/>
<path fill="#000000" stroke="none" d="M74 135 c-4 -8 -14 -15 -23 -16 -12 0
-13 -2 -2 -6 8 -3 19 1 26 10 7 10 31 17 66 20 l54 3 -58 2 c-43 2 -59 -2 -63
-13z"/>
<path fill="#000000" stroke="none" d="M99 113 c-11 -15 -11 -16 1 -5 17 14
56 16 65 2 3 -5 11 -10 18 -10 6 0 2 7 -9 15 -26 20 -59 19 -75 -2z"/>
<path fill="#000000" stroke="none" d="M240 109 c0 -5 5 -7 10 -4 6 3 10 8 10
11 0 2 -4 4 -10 4 -5 0 -10 -5 -10 -11z"/>
</g>
</svg>
