<?xml version="1.0" standalone="no"?>
<!DOCTYPE svg PUBLIC "-//W3C//DTD SVG 20010904//EN"
 "http://www.w3.org/TR/2001/REC-SVG-20010904/DTD/svg10.dtd">
<svg version="1.0" xmlns="http://www.w3.org/2000/svg"
 width="32.000000pt" height="32.000000pt" viewBox="0 0 32.000000 32.000000"
 preserveAspectRatio="xMidYMid meet">
<metadata>
Created by potrace 1.16, written by Peter Selinger 2001-2019
</metadata>
<g transform="translate(0.000000,32.000000) scale(0.100000,-0.100000)"
fill="#000000" stroke="none">
<path fill="#000000" stroke="none" d="M0 160 l0 -160 160 0 160 0 0 160 0
160 -160 0 -160 0 0 -160z"/>
<path fill="#ffffff" stroke="none" d="M191 244 c19 -10 37 -31 50 -60 17 -41
17 -48 4 -73 -8 -16 -28 -34 -45 -41 -17 -7 -29 -15 -26 -17 2 -2 19 3 36 12
23 12 31 13 28 4 -5 -16 -64 -37 -106 -38 -45 -1 -71 14 -65 38 3 10 0 22 -6
25 -32 20 3 126 51 153 30 16 43 16 79 -3z"/>
<path fill="#000000" stroke="none" d="M103 135 c0 -27 2 -38 4 -22 2 15 2 37
0 50 -2 12 -4 0 -4 -28z"/>
<path fill="#000000" stroke="none" d="M123 135 c0 -27 2 -38 4 -22 2 15 2 37
0 50 -2 12 -4 0 -4 -28z"/>
<path fill="#000000" stroke="none" d="M83 135 c0 -22 2 -30 4 -17 2 12 2 30
0 40 -3 9 -5 -1 -4 -23z"/>
<path fill="#000000" stroke="none" d="M143 135 c0 -22 2 -30 4 -17 2 12 2 30
0 40 -3 9 -5 -1 -4 -23z"/>
<path fill="#000000" stroke="none" d="M163 135 c0 -22 2 -30 4 -17 2 12 2 30
0 40 -3 9 -5 -1 -4 -23z"/>
<path fill="#000000" stroke="none" d="M62 135 c0 -16 2 -22 5 -12 2 9 2 23 0
30 -3 6 -5 -1 -5 -18z"/>
<path fill="#000000" stroke="none" d="M182 135 c0 -16 2 -22 5 -12 2 9 2 23
0 30 -3 6 -5 -1 -5 -18z"/>
<path fill="#000000" stroke="none" d="M195 104 c-22 -13 -37 -24 -33 -24 14
0 78 34 78 42 0 10 3 11 -45 -18z"/>
</g>
</svg>
