<?xml version="1.0" standalone="no"?>
<!DOCTYPE svg PUBLIC "-//W3C//DTD SVG 20010904//EN"
 "http://www.w3.org/TR/2001/REC-SVG-20010904/DTD/svg10.dtd">
<svg version="1.0" xmlns="http://www.w3.org/2000/svg"
 width="32.000000pt" height="32.000000pt" viewBox="0 0 32.000000 32.000000"
 preserveAspectRatio="xMidYMid meet">
<metadata>
Created by potrace 1.16, written by Peter Selinger 2001-2019
</metadata>
<g transform="translate(0.000000,32.000000) scale(0.100000,-0.100000)"
fill="#000000" stroke="none">
<path fill="#000000" stroke="none" d="M0 160 l0 -160 160 0 160 0 0 160 0
160 -160 0 -160 0 0 -160z"/>
<path fill="#ffffff" stroke="none" d="M284 269 c34 -40 33 -60 -5 -127 -19
-34 -29 -64 -26 -79 3 -15 0 -22 -7 -20 -19 6 -18 56 2 85 44 62 39 117 -11
128 -20 4 -33 2 -35 -5 -2 -6 -8 -8 -14 -5 -14 9 0 -37 18 -57 19 -21 18 -54
-2 -84 -11 -17 -14 -36 -10 -56 5 -27 4 -30 -9 -19 -13 10 -19 10 -34 -4 -12
-11 -31 -16 -53 -14 -29 3 -33 7 -36 33 -2 17 -7 42 -13 56 -14 36 11 96 43
103 80 16 80 16 68 31 -13 15 0 49 22 58 38 15 77 6 102 -24z"/>
<path fill="#000000" stroke="none" d="M69 116 c11 -5 36 -4 58 1 37 10 36 10
-20 9 -41 -1 -52 -3 -38 -10z"/>
</g>
</svg>
