<?xml version="1.0" standalone="no"?>
<!DOCTYPE svg PUBLIC "-//W3C//DTD SVG 20010904//EN"
 "http://www.w3.org/TR/2001/REC-SVG-20010904/DTD/svg10.dtd">
<svg version="1.0" xmlns="http://www.w3.org/2000/svg"
 width="32.000000pt" height="32.000000pt" viewBox="0 0 32.000000 32.000000"
 preserveAspectRatio="xMidYMid meet">
<metadata>
Created by potrace 1.16, written by Peter Selinger 2001-2019
</metadata>
<g transform="translate(0.000000,32.000000) scale(0.100000,-0.100000)"
fill="#000000" stroke="none">
<path fill="#000000" stroke="none" d="M107 239 c-4 -16 -11 -19 -27 -14 -19
6 -20 4 -12 -12 12 -23 5 -43 -15 -43 -14 0 -14 -2 0 -18 22 -24 21 -32 0 -32
-17 -1 -17 -1 0 -14 9 -7 17 -22 17 -33 0 -31 21 -43 75 -43 49 0 85 19 85 45
0 5 7 17 17 27 15 17 15 18 0 18 -21 0 -21 9 0 32 14 16 14 18 0 18 -20 0 -27
20 -15 43 8 16 7 18 -12 12 -16 -5 -23 -2 -27 14 -4 17 -8 18 -24 8 -15 -9
-23 -9 -38 0 -16 10 -20 9 -24 -8z"/>
<path fill="#ffffff" stroke="none" d="M202 203 c10 -9 18 -29 18 -47 -1 -28
-2 -29 -14 -13 -8 10 -27 17 -47 18 -32 0 -33 1 -11 12 16 7 22 17 19 29 -6
22 11 23 35 1z"/>
<path fill="#ffffff" stroke="none" d="M110 165 c0 -1 -9 -5 -19 -8 -13 -3
-18 -1 -14 9 4 10 33 10 33 -1z"/>
<path fill="#ffffff" stroke="none" d="M212 116 c17 -23 17 -25 0 -46 -18 -23
-49 -20 -49 5 0 8 3 13 5 10 6 -6 32 15 32 26 0 5 -6 6 -14 3 -8 -3 -17 -1
-21 5 -8 14 -52 14 -60 1 -7 -12 -25 -4 -25 11 0 5 26 9 58 9 48 -1 60 -4 74
-24z"/>
<path fill="#ffffff" stroke="none" d="M87 78 c-3 -8 -6 -5 -6 6 -1 11 2 17 5
13 3 -3 4 -12 1 -19z"/>
</g>
</svg>
