<?xml version="1.0" standalone="no"?>
<!DOCTYPE svg PUBLIC "-//W3C//DTD SVG 20010904//EN"
 "http://www.w3.org/TR/2001/REC-SVG-20010904/DTD/svg10.dtd">
<svg version="1.0" xmlns="http://www.w3.org/2000/svg"
 width="32.000000pt" height="32.000000pt" viewBox="0 0 32.000000 32.000000"
 preserveAspectRatio="xMidYMid meet">
<metadata>
Created by potrace 1.16, written by Peter Selinger 2001-2019
</metadata>
<g transform="translate(0.000000,32.000000) scale(0.100000,-0.100000)"
fill="#000000" stroke="none">
<path fill="#000000" stroke="none" d="M0 160 l0 -160 160 0 160 0 0 160 0
160 -160 0 -160 0 0 -160z"/>
<path fill="#ffffff" stroke="none" d="M174 254 c3 -8 2 -13 -3 -10 -12 8 -22
-35 -11 -48 4 -6 9 -15 10 -21 1 -5 7 -9 13 -7 6 2 6 -2 -2 -11 -9 -12 -7 -15
13 -19 13 -3 32 -1 41 4 9 6 18 8 20 6 2 -2 -10 -11 -26 -20 -17 -10 -27 -13
-24 -8 9 14 -29 12 -44 -2 -11 -10 -13 -10 -7 0 4 7 1 12 -7 12 -8 0 -21 8
-31 19 -15 17 -15 19 1 32 9 8 14 9 10 2 -5 -7 0 -9 15 -5 21 5 21 6 2 12 -10
4 -22 6 -25 4 -8 -5 -34 25 -27 31 2 3 16 6 31 7 15 1 28 10 30 20 6 22 13 23
21 2z"/>
<path fill="#ffffff" stroke="none" d="M230 220 c0 -5 -2 -10 -4 -10 -3 0 -8
5 -11 10 -3 6 -1 10 4 10 6 0 11 -4 11 -10z"/>
<path fill="#ffffff" stroke="none" d="M94 134 c6 2 8 1 3 -1 -4 -3 -5 -9 -1
-14 10 -17 -3 -9 -22 14 -10 12 -12 17 -5 10 7 -6 19 -10 25 -9z"/>
<path fill="#ffffff" stroke="none" d="M128 85 c-3 -3 -9 2 -12 12 -6 14 -5
15 5 6 7 -7 10 -15 7 -18z"/>
<path fill="#ffffff" stroke="none" d="M173 95 c-3 -9 -8 -14 -10 -11 -3 3 -2
9 2 15 9 16 15 13 8 -4z"/>
<path fill="#ffffff" stroke="none" d="M130 45 c0 -8 -4 -15 -10 -15 -5 0 -7
7 -4 15 4 8 8 15 10 15 2 0 4 -7 4 -15z"/>
<path fill="#ffffff" stroke="none" d="M174 45 c3 -8 1 -15 -4 -15 -6 0 -10 7
-10 15 0 8 2 15 4 15 2 0 6 -7 10 -15z"/>
<path fill="#000000" stroke="none" d="M130 156 c0 -7 8 -16 19 -19 14 -3 17
0 14 14 -6 22 -33 26 -33 5z"/>
</g>
</svg>
