<?xml version="1.0" standalone="no"?>
<!DOCTYPE svg PUBLIC "-//W3C//DTD SVG 20010904//EN"
 "http://www.w3.org/TR/2001/REC-SVG-20010904/DTD/svg10.dtd">
<svg version="1.0" xmlns="http://www.w3.org/2000/svg"
 width="32.000000pt" height="32.000000pt" viewBox="0 0 32.000000 32.000000"
 preserveAspectRatio="xMidYMid meet">
<metadata>
Created by potrace 1.16, written by Peter Selinger 2001-2019
</metadata>
<g transform="translate(0.000000,32.000000) scale(0.100000,-0.100000)"
fill="#000000" stroke="none">
<path fill="#000000" stroke="none" d="M73 178 c-23 -11 -40 -44 -29 -55 3 -4
6 2 7 13 1 15 3 13 9 -6 8 -25 8 -25 10 5 l2 30 8 -30 8 -30 2 35 3 35 7 -40
7 -40 3 40 3 40 7 -35 7 -35 3 30 2 30 8 -30 8 -30 1 29 c1 17 -6 34 -16 42
-21 16 -31 16 -60 2z"/>
<path fill="#000000" stroke="none" d="M161 143 c0 -11 3 -13 6 -5 2 6 10 9
15 6 7 -4 8 -2 4 4 -11 18 -26 14 -25 -5z"/>
<path fill="#000000" stroke="none" d="M230 140 c0 -5 5 -10 11 -10 5 0 7 5 4
10 -3 6 -8 10 -11 10 -2 0 -4 -4 -4 -10z"/>
</g>
</svg>
