<?xml version="1.0" standalone="no"?>
<!DOCTYPE svg PUBLIC "-//W3C//DTD SVG 20010904//EN"
 "http://www.w3.org/TR/2001/REC-SVG-20010904/DTD/svg10.dtd">
<svg version="1.0" xmlns="http://www.w3.org/2000/svg"
 width="32.000000pt" height="32.000000pt" viewBox="0 0 32.000000 32.000000"
 preserveAspectRatio="xMidYMid meet">
<metadata>
Created by potrace 1.16, written by Peter Selinger 2001-2019
</metadata>
<g transform="translate(0.000000,32.000000) scale(0.100000,-0.100000)"
fill="#000000" stroke="none">
<path fill="#000000" stroke="none" d="M0 160 l0 -160 160 0 160 0 0 160 0
160 -160 0 -160 0 0 -160z"/>
<path fill="#ffffff" stroke="none" d="M180 250 c-6 -11 -8 -25 -5 -30 3 -6 0
-10 -8 -10 -18 0 -15 53 4 76 13 15 14 15 17 1 2 -9 -2 -25 -8 -37z"/>
<path fill="#ffffff" stroke="none" d="M203 170 c19 -16 40 -30 46 -30 6 0 11
-5 11 -12 0 -6 -3 -8 -7 -5 -3 4 -13 1 -21 -6 -13 -10 -14 -9 -8 1 10 16 -46
72 -72 72 -23 0 -63 -39 -41 -41 8 -1 21 -1 29 0 9 1 27 -11 40 -26 l25 -28
-26 23 c-31 27 -36 27 -63 5 -20 -17 -20 -17 -7 0 18 23 -5 24 -31 0 -17 -15
-18 -15 -18 0 0 10 5 17 11 17 6 0 22 14 36 30 13 17 33 30 44 30 10 0 34 -13
52 -30z"/>
</g>
</svg>
