<?xml version="1.0" standalone="no"?>
<!DOCTYPE svg PUBLIC "-//W3C//DTD SVG 20010904//EN"
 "http://www.w3.org/TR/2001/REC-SVG-20010904/DTD/svg10.dtd">
<svg version="1.0" xmlns="http://www.w3.org/2000/svg"
 width="32.000000pt" height="32.000000pt" viewBox="0 0 32.000000 32.000000"
 preserveAspectRatio="xMidYMid meet">
<metadata>
Created by potrace 1.16, written by Peter Selinger 2001-2019
</metadata>
<g transform="translate(0.000000,32.000000) scale(0.100000,-0.100000)"
fill="#000000" stroke="none">
<path fill="#000000" stroke="none" d="M0 160 l0 -160 160 0 160 0 0 160 0
160 -160 0 -160 0 0 -160z"/>
<path fill="#ffffff" stroke="none" d="M60 255 c-10 -12 -10 -19 -2 -27 7 -7
12 -21 12 -32 -1 -21 -1 -21 -15 -2 -18 24 -19 48 -3 64 17 17 23 15 8 -3z"/>
<path fill="#ffffff" stroke="none" d="M290 231 c0 -10 -6 -26 -14 -36 -13
-18 -15 -18 -38 10 l-25 28 -22 -22 c-24 -24 -22 -51 4 -51 23 0 19 -47 -5
-53 -14 -3 -20 -14 -20 -31 0 -14 4 -26 8 -26 16 0 40 34 50 70 6 19 11 27 11
17 2 -43 -42 -107 -73 -107 -3 0 -6 20 -6 45 0 38 3 45 20 45 11 0 20 7 20 15
0 8 -9 15 -20 15 -11 0 -20 7 -20 15 0 8 -7 15 -15 15 -8 0 -15 -7 -15 -15 0
-8 -7 -15 -15 -15 -8 0 -15 -7 -15 -15 0 -8 7 -15 15 -15 11 0 15 -12 15 -45
0 -47 -12 -58 -30 -26 -15 30 -11 39 5 11 l14 -25 1 38 c0 25 -4 37 -14 37 -9
0 -17 17 -21 52 -7 47 -5 54 16 71 29 23 99 19 130 -9 18 -16 21 -16 36 -1 14
14 14 18 2 34 -13 16 -12 17 4 4 9 -7 17 -21 17 -30z"/>
</g>
</svg>
