<?xml version="1.0" standalone="no"?>
<!DOCTYPE svg PUBLIC "-//W3C//DTD SVG 20010904//EN"
 "http://www.w3.org/TR/2001/REC-SVG-20010904/DTD/svg10.dtd">
<svg version="1.0" xmlns="http://www.w3.org/2000/svg"
 width="32.000000pt" height="32.000000pt" viewBox="0 0 32.000000 32.000000"
 preserveAspectRatio="xMidYMid meet">
<metadata>
Created by potrace 1.16, written by Peter Selinger 2001-2019
</metadata>
<g transform="translate(0.000000,32.000000) scale(0.100000,-0.100000)"
fill="#000000" stroke="none">
<path fill="#000000" stroke="none" d="M0 160 l0 -160 160 0 160 0 0 160 0
160 -160 0 -160 0 0 -160z"/>
<path fill="#ffffff" stroke="none" d="M167 238 c-7 -4 -8 -8 -3 -8 5 0 2 -8
-5 -17 -12 -15 -12 -16 1 -8 11 5 12 5 5 -3 -5 -6 -25 -13 -42 -17 -30 -5 -33
-3 -33 20 0 18 5 25 18 25 11 0 27 9 37 20 14 15 20 17 26 8 4 -7 3 -16 -4
-20z"/>
<path fill="#ffffff" stroke="none" d="M230 220 c0 -5 -4 -10 -10 -10 -5 0
-10 5 -10 10 0 6 5 10 10 10 6 0 10 -4 10 -10z"/>
<path fill="#ffffff" stroke="none" d="M193 147 c-4 -7 7 -8 31 -4 l37 6 -36
-25 c-20 -13 -41 -24 -46 -24 -6 0 -9 -14 -6 -35 3 -19 1 -35 -4 -35 -5 0 -9
16 -9 35 0 29 5 37 28 46 17 7 22 13 14 16 -8 3 -25 -1 -38 -8 -19 -10 -27
-10 -36 -1 -7 7 -19 12 -27 11 -12 0 -10 -4 7 -16 26 -18 32 -83 8 -83 -8 0
-18 4 -21 10 -3 5 0 7 7 5 9 -4 14 3 16 20 1 17 -8 34 -29 53 l-31 28 26 -1
c15 -1 32 -7 38 -13 18 -18 33 -15 54 10 12 14 13 18 3 10 -9 -6 -20 -8 -24
-4 -5 4 -5 1 -1 -5 4 -8 1 -13 -9 -13 -10 0 -13 5 -9 12 4 6 3 8 -4 4 -6 -3
-13 -2 -17 4 -4 6 -10 8 -15 5 -5 -3 -12 0 -16 6 -4 7 -3 9 4 5 6 -3 14 -2 17
4 5 8 12 7 23 -2 10 -8 13 -9 9 -1 -11 18 25 22 45 5 10 -8 15 -19 11 -25z"/>
<path fill="#ffffff" stroke="none" d="M230 55 c0 -2 -10 -9 -22 -15 -22 -11
-22 -10 -4 4 21 17 26 19 26 11z"/>
<path fill="#000000" stroke="none" d="M156 172 c-3 -5 1 -9 9 -9 8 0 12 4 9
9 -3 4 -7 8 -9 8 -2 0 -6 -4 -9 -8z"/>
</g>
</svg>
