<?xml version="1.0" standalone="no"?>
<!DOCTYPE svg PUBLIC "-//W3C//DTD SVG 20010904//EN"
 "http://www.w3.org/TR/2001/REC-SVG-20010904/DTD/svg10.dtd">
<svg version="1.0" xmlns="http://www.w3.org/2000/svg"
 width="32.000000pt" height="32.000000pt" viewBox="0 0 32.000000 32.000000"
 preserveAspectRatio="xMidYMid meet">
<metadata>
Created by potrace 1.16, written by Peter Selinger 2001-2019
</metadata>
<g transform="translate(0.000000,32.000000) scale(0.100000,-0.100000)"
fill="#000000" stroke="none">
<path fill="#000000" stroke="none" d="M126 239 c-25 -20 -26 -22 -11 -45 14
-22 14 -24 -5 -34 -24 -13 -26 -38 -5 -46 18 -7 20 -55 3 -73 -11 -11 -10 -13
2 -9 21 7 26 76 6 84 -9 3 -16 12 -16 20 0 10 14 14 48 15 26 1 37 4 25 6 -27
5 -30 28 -7 41 17 10 16 53 -2 59 -6 2 -23 -6 -38 -18z"/>
<path fill="#000000" stroke="none" d="M54 231 c4 -6 2 -11 -4 -11 -6 0 -9 -4
-6 -9 4 -5 0 -12 -6 -14 -10 -4 -10 -6 0 -6 7 -1 10 -5 7 -11 -3 -5 -1 -10 5
-10 6 0 9 -4 5 -9 -3 -5 -1 -12 5 -16 10 -6 14 7 10 34 -1 9 4 12 14 8 26 -10
18 19 -10 38 -15 9 -23 12 -20 6z"/>
<path fill="#000000" stroke="none" d="M238 219 c-25 -18 -42 -69 -19 -54 5 3
17 -2 25 -11 15 -14 20 -11 17 9 0 4 4 7 10 7 5 0 8 4 5 9 -4 5 0 12 6 14 10
4 10 6 0 6 -7 1 -10 6 -7 11 3 6 1 10 -5 10 -6 0 -8 5 -5 10 9 14 4 12 -27
-11z"/>
<path fill="#ffffff" stroke="none" d="M250 180 c0 -5 -5 -10 -11 -10 -5 0 -7
5 -4 10 3 6 8 10 11 10 2 0 4 -4 4 -10z"/>
<path fill="#000000" stroke="none" d="M164 106 c-9 -24 0 -69 16 -74 13 -5
13 -3 1 11 -7 10 -11 30 -9 47 5 32 1 39 -8 16z"/>
</g>
</svg>
