<?xml version="1.0" standalone="no"?>
<!DOCTYPE svg PUBLIC "-//W3C//DTD SVG 20010904//EN"
 "http://www.w3.org/TR/2001/REC-SVG-20010904/DTD/svg10.dtd">
<svg version="1.0" xmlns="http://www.w3.org/2000/svg"
 width="32.000000pt" height="32.000000pt" viewBox="0 0 32.000000 32.000000"
 preserveAspectRatio="xMidYMid meet">
<metadata>
Created by potrace 1.16, written by Peter Selinger 2001-2019
</metadata>
<g transform="translate(0.000000,32.000000) scale(0.100000,-0.100000)"
fill="#000000" stroke="none">
<path fill="#000000" stroke="none" d="M109 245 c-2 -24 -4 -29 -12 -42 -20
-31 30 -46 54 -17 11 14 11 18 -4 29 -16 11 -14 13 13 18 16 4 30 11 30 17 0
6 -8 5 -20 -2 -16 -10 -24 -10 -40 0 -17 10 -20 10 -21 -3z"/>
<path fill="#000000" stroke="none" d="M66 215 c7 -17 20 -20 28 -6 3 5 -1 12
-10 15 -22 9 -24 8 -18 -9z"/>
<path fill="#000000" stroke="none" d="M193 216 c7 -6 17 -16 22 -21 6 -6 9
-9 8 -6 -1 2 2 11 7 21 7 14 4 17 -20 17 -22 0 -26 -3 -17 -11z"/>
<path fill="#000000" stroke="none" d="M53 152 c21 -23 21 -32 1 -32 -8 0 -12
-5 -9 -10 5 -8 11 -8 20 0 9 7 16 6 26 -6 8 -10 13 -19 12 -21 -2 -1 -3 -4 -2
-5 6 -21 5 -37 -2 -32 -5 3 -7 9 -5 13 3 4 -1 8 -9 8 -8 0 -15 -3 -15 -7 0
-33 115 -43 143 -12 10 10 17 23 17 28 0 5 -7 0 -16 -11 -17 -23 -91 -30 -91
-9 0 7 9 11 19 9 11 -2 18 2 18 11 0 9 -5 12 -12 8 -7 -4 -8 -3 -4 4 4 7 1 12
-9 12 -9 0 -14 -4 -11 -8 3 -5 -1 -9 -9 -9 -11 0 -12 4 -4 14 14 16 41 17 55
3 7 -7 16 -4 29 10 28 31 7 44 -71 41 -45 -2 -64 1 -59 8 3 6 -1 11 -11 11
-16 0 -16 -1 -1 -18z"/>
<path fill="#ffffff" stroke="none" d="M200 131 c0 -16 -21 -24 -33 -12 -14
14 -54 14 -62 1 -7 -12 -25 -4 -25 11 0 5 27 9 60 9 33 0 60 -4 60 -9z"/>
<path fill="#000000" stroke="none" d="M220 161 c0 -18 18 -21 30 -6 10 13 9
15 -9 15 -11 0 -21 -4 -21 -9z"/>
<path fill="#000000" stroke="none" d="M228 108 c9 -9 15 -9 24 0 9 9 7 12
-12 12 -19 0 -21 -3 -12 -12z"/>
</g>
</svg>
