<?xml version="1.0" standalone="no"?>
<!DOCTYPE svg PUBLIC "-//W3C//DTD SVG 20010904//EN"
 "http://www.w3.org/TR/2001/REC-SVG-20010904/DTD/svg10.dtd">
<svg version="1.0" xmlns="http://www.w3.org/2000/svg"
 width="32.000000pt" height="32.000000pt" viewBox="0 0 32.000000 32.000000"
 preserveAspectRatio="xMidYMid meet">
<metadata>
Created by potrace 1.16, written by Peter Selinger 2001-2019
</metadata>
<g transform="translate(0.000000,32.000000) scale(0.100000,-0.100000)"
fill="#000000" stroke="none">
<path fill="#000000" stroke="none" d="M42 298 c-7 -7 -12 -31 -12 -55 0 -30
-5 -45 -15 -49 -17 -7 -20 -40 -5 -49 6 -3 10 -15 10 -26 0 -10 5 -19 11 -19
8 0 7 -5 -2 -16 -11 -14 -10 -20 14 -39 17 -15 22 -25 14 -28 -7 -3 45 -6 116
-6 l127 -1 0 91 c0 50 5 99 11 110 12 23 3 99 -12 99 -5 0 -9 -8 -9 -18 0 -10
-5 -23 -11 -29 -8 -8 -8 -13 0 -18 6 -3 10 -3 9 2 -2 4 0 9 5 11 8 2 8 -6 -4
-33 -4 -11 -8 -14 -8 -7 -1 7 -6 10 -13 6 -7 -4 -8 -3 -4 4 9 15 -29 52 -54
52 -27 0 -70 -22 -94 -49 -19 -21 -42 -29 -31 -11 3 6 -2 10 -12 11 -14 0 -12
3 7 11 14 6 28 10 33 10 12 -3 8 33 -5 46 -7 7 -21 12 -33 12 -12 0 -26 -5
-33 -12z"/>
<path fill="#ffffff" stroke="none" d="M95 275 c0 -22 -31 -33 -47 -17 -17 17
-1 44 24 40 15 -2 23 -10 23 -23z"/>
<path fill="#ffffff" stroke="none" d="M180 215 c0 -8 -8 -22 -17 -31 -27 -24
-95 -65 -99 -61 -8 8 8 37 17 31 5 -3 9 1 9 8 1 13 66 68 82 68 4 0 8 -7 8
-15z"/>
<path fill="#ffffff" stroke="none" d="M34 149 c-3 -5 -10 -7 -15 -3 -5 3 -7
10 -3 15 3 5 10 7 15 3 5 -3 7 -10 3 -15z"/>
<path fill="#ffffff" stroke="none" d="M53 125 c4 -8 2 -17 -3 -20 -6 -4 -10
3 -10 14 0 25 6 27 13 6z"/>
<path fill="#ffffff" stroke="none" d="M233 83 c23 -9 43 -17 43 -17 1 -1 4
-11 8 -22 6 -19 3 -21 -21 -19 -15 1 -54 10 -86 19 -33 9 -73 16 -90 14 -31
-4 -30 -4 18 -20 28 -9 43 -17 34 -17 -24 -1 -82 20 -98 35 -13 12 -12 16 5
35 17 19 26 21 82 15 35 -4 82 -14 105 -23z"/>
</g>
</svg>
