<?xml version="1.0" standalone="no"?>
<!DOCTYPE svg PUBLIC "-//W3C//DTD SVG 20010904//EN"
 "http://www.w3.org/TR/2001/REC-SVG-20010904/DTD/svg10.dtd">
<svg version="1.0" xmlns="http://www.w3.org/2000/svg"
 width="32.000000pt" height="32.000000pt" viewBox="0 0 32.000000 32.000000"
 preserveAspectRatio="xMidYMid meet">
<metadata>
Created by potrace 1.16, written by Peter Selinger 2001-2019
</metadata>
<g transform="translate(0.000000,32.000000) scale(0.100000,-0.100000)"
fill="#000000" stroke="none">
<path fill="#000000" stroke="none" d="M42 298 c-15 -20 -20 -109 -5 -104 7 3
15 1 18 -4 11 -18 47 -10 77 15 31 26 48 32 48 16 0 -24 -16 -43 -49 -61 -20
-10 -54 -34 -76 -54 l-40 -36 27 -24 c17 -15 23 -26 15 -29 -7 -2 45 -5 115
-6 l127 -2 0 92 c0 82 -3 96 -26 130 -14 22 -37 42 -50 45 -29 8 -74 -10 -104
-42 -22 -24 -46 -34 -34 -14 3 6 -2 10 -12 11 -14 0 -12 3 7 11 14 6 28 10 33
10 12 -3 8 33 -5 46 -16 16 -53 15 -66 0z"/>
<path fill="#ffffff" stroke="none" d="M95 275 c0 -22 -31 -33 -47 -17 -17 17
-1 44 24 40 15 -2 23 -10 23 -23z"/>
<path fill="#ffffff" stroke="none" d="M238 254 c37 -26 47 -55 47 -144 l0
-86 -86 -2 c-87 -3 -147 11 -164 38 -8 13 22 50 42 50 7 0 13 4 13 10 0 5 17
18 38 29 50 26 77 64 57 81 -15 13 -42 3 -65 -24 -24 -30 -80 -14 -80 23 0 11
5 9 16 -7 18 -26 37 -28 55 -5 19 22 70 53 89 53 9 0 26 -7 38 -16z"/>
<path fill="#000000" stroke="none" d="M241 96 c-10 -12 -8 -16 9 -21 28 -9
31 -4 15 18 -11 15 -14 15 -24 3z"/>
<path fill="#000000" stroke="none" d="M95 45 c17 -8 48 -14 70 -14 l40 0 -45
15 c-25 7 -56 13 -70 13 -24 -1 -24 -1 5 -14z"/>
<path fill="#000000" stroke="none" d="M75 160 c3 -5 8 -10 11 -10 2 0 4 5 4
10 0 6 -5 10 -11 10 -5 0 -7 -4 -4 -10z"/>
</g>
</svg>
