<?xml version="1.0" standalone="no"?>
<!DOCTYPE svg PUBLIC "-//W3C//DTD SVG 20010904//EN"
 "http://www.w3.org/TR/2001/REC-SVG-20010904/DTD/svg10.dtd">
<svg version="1.0" xmlns="http://www.w3.org/2000/svg"
 width="32.000000pt" height="32.000000pt" viewBox="0 0 32.000000 32.000000"
 preserveAspectRatio="xMidYMid meet">
<metadata>
Created by potrace 1.16, written by Peter Selinger 2001-2019
</metadata>
<g transform="translate(0.000000,32.000000) scale(0.100000,-0.100000)"
fill="#000000" stroke="none">
<path fill="#000000" stroke="none" d="M42 298 c-7 -7 -12 -31 -12 -55 0 -30
-5 -45 -15 -49 -17 -7 -20 -40 -5 -49 6 -3 10 -15 10 -26 0 -27 20 -24 21 4 1
18 2 18 6 4 3 -10 -3 -27 -11 -36 -15 -17 -15 -21 1 -50 l18 -31 123 0 122 0
0 91 c0 50 5 99 11 110 12 23 3 99 -12 99 -5 0 -9 -8 -9 -18 0 -10 -5 -23 -11
-29 -8 -8 -8 -13 0 -17 6 -4 11 -15 11 -24 0 -11 -8 -6 -21 16 -35 54 -97 52
-150 -4 -27 -29 -39 -31 -32 -4 3 11 12 20 19 20 17 0 18 32 2 48 -7 7 -21 12
-33 12 -12 0 -26 -5 -33 -12z"/>
<path fill="#ffffff" stroke="none" d="M85 290 c4 -6 1 -17 -5 -26 -10 -11
-16 -12 -26 -3 -11 9 -11 15 -3 25 14 17 25 18 34 4z"/>
<path fill="#ffffff" stroke="none" d="M180 215 c0 -8 -8 -22 -17 -31 -30 -26
-91 -63 -96 -57 -9 8 4 33 14 27 5 -3 9 1 9 8 1 13 66 68 82 68 4 0 8 -7 8
-15z"/>
<path fill="#ffffff" stroke="none" d="M156 99 c60 -10 111 -38 97 -53 -11
-11 -25 -7 -17 6 5 8 2 9 -10 5 -10 -4 -40 0 -67 9 -30 10 -64 14 -85 11 -36
-6 -36 -6 -19 13 21 23 20 23 101 9z"/>
</g>
</svg>
