<?xml version="1.0" standalone="no"?>
<!DOCTYPE svg PUBLIC "-//W3C//DTD SVG 20010904//EN"
 "http://www.w3.org/TR/2001/REC-SVG-20010904/DTD/svg10.dtd">
<svg version="1.0" xmlns="http://www.w3.org/2000/svg"
 width="32.000000pt" height="32.000000pt" viewBox="0 0 32.000000 32.000000"
 preserveAspectRatio="xMidYMid meet">
<metadata>
Created by potrace 1.16, written by Peter Selinger 2001-2019
</metadata>
<g transform="translate(0.000000,32.000000) scale(0.100000,-0.100000)"
fill="#000000" stroke="none">
<path fill="#000000" stroke="none" d="M103 313 l-63 -4 0 -154 0 -155 130 0
130 0 0 154 c0 141 -2 155 -17 155 -10 0 -40 2 -68 4 -27 2 -78 2 -112 0z"/>
<path fill="#ffffff" stroke="none" d="M227 304 c13 -4 20 -10 17 -15 -7 -12
-71 -12 -78 0 -12 19 18 26 61 15z"/>
<path fill="#ffffff" stroke="none" d="M114 258 c-4 -13 -15 -45 -25 -73 l-18
-50 0 73 c-1 71 -1 72 25 72 22 0 24 -3 18 -22z"/>
<path fill="#ffffff" stroke="none" d="M240 242 c0 -5 -9 -17 -20 -27 -11 -10
-20 -25 -21 -34 0 -14 -26 42 -28 62 -1 4 15 7 34 7 19 0 35 -4 35 -8z"/>
<path fill="#ffffff" stroke="none" d="M248 215 c-16 -13 -28 -30 -29 -37 0
-10 -2 -10 -6 0 -6 15 47 76 56 66 3 -3 -6 -16 -21 -29z"/>
<path fill="#ffffff" stroke="none" d="M250 100 c0 -11 -4 -20 -10 -20 -5 0
-10 9 -10 20 0 11 5 20 10 20 6 0 10 -9 10 -20z"/>
<path fill="#ffffff" stroke="none" d="M114 79 c-3 -5 -10 -7 -15 -3 -5 3 -7
10 -3 15 3 5 10 7 15 3 5 -3 7 -10 3 -15z"/>
<path fill="#ffffff" stroke="none" d="M165 40 c-3 -5 -12 -10 -18 -10 -7 0
-6 4 3 10 19 12 23 12 15 0z"/>
</g>
</svg>
