<?xml version="1.0" standalone="no"?>
<!DOCTYPE svg PUBLIC "-//W3C//DTD SVG 20010904//EN"
 "http://www.w3.org/TR/2001/REC-SVG-20010904/DTD/svg10.dtd">
<svg version="1.0" xmlns="http://www.w3.org/2000/svg"
 width="32.000000pt" height="32.000000pt" viewBox="0 0 32.000000 32.000000"
 preserveAspectRatio="xMidYMid meet">
<metadata>
Created by potrace 1.16, written by Peter Selinger 2001-2019
</metadata>
<g transform="translate(0.000000,32.000000) scale(0.100000,-0.100000)"
fill="#000000" stroke="none">
<path fill="#000000" stroke="none" d="M73 288 c-46 -33 -63 -68 -63 -130 0
-93 55 -148 150 -148 95 0 150 55 150 150 0 95 -55 150 -150 150 -41 0 -63 -6
-87 -22z"/>
<path fill="#ffffff" stroke="none" d="M200 245 c6 -7 13 -21 14 -28 1 -8 8
-23 16 -32 18 -21 14 -74 -7 -97 -22 -25 -104 -25 -126 0 -21 23 -25 75 -7 97
8 9 15 24 16 32 6 40 68 59 94 28z"/>
<path fill="#000000" stroke="none" d="M137 234 c-4 -4 -7 -15 -7 -24 0 -10
-7 -23 -15 -30 -18 -15 -20 -61 -3 -78 16 -16 80 -16 96 0 17 17 15 63 -2 78
-8 6 -16 21 -18 33 -3 22 -36 35 -51 21z"/>
<path fill="#ffffff" stroke="none" d="M160 170 c0 -5 -5 -10 -11 -10 -5 0 -7
5 -4 10 3 6 8 10 11 10 2 0 4 -4 4 -10z"/>
<path fill="#ffffff" stroke="none" d="M205 170 c3 -5 1 -10 -4 -10 -6 0 -11
5 -11 10 0 6 2 10 4 10 3 0 8 -4 11 -10z"/>
<path fill="#ffffff" stroke="none" d="M205 110 c-3 -5 -12 -10 -18 -10 -7 0
-6 4 3 10 19 12 23 12 15 0z"/>
</g>
</svg>
