<?xml version="1.0" standalone="no"?>
<!DOCTYPE svg PUBLIC "-//W3C//DTD SVG 20010904//EN"
 "http://www.w3.org/TR/2001/REC-SVG-20010904/DTD/svg10.dtd">
<svg version="1.0" xmlns="http://www.w3.org/2000/svg"
 width="32.000000pt" height="32.000000pt" viewBox="0 0 32.000000 32.000000"
 preserveAspectRatio="xMidYMid meet">
<metadata>
Created by potrace 1.16, written by Peter Selinger 2001-2019
</metadata>
<g transform="translate(0.000000,32.000000) scale(0.100000,-0.100000)"
fill="#000000" stroke="none">
<path fill="#000000" stroke="none" d="M0 160 l0 -160 160 0 160 0 0 160 0
160 -160 0 -160 0 0 -160z"/>
<path fill="#ffffff" stroke="none" d="M241 288 c19 -8 27 -18 24 -28 -4 -8
-3 -11 1 -7 10 10 44 -43 44 -69 0 -11 -6 -26 -12 -33 -11 -11 -10 -12 1 -6
11 6 13 4 8 -9 -4 -10 -7 -24 -7 -32 0 -9 -5 -12 -11 -8 -7 4 -9 -2 -7 -17 2
-18 -2 -24 -15 -23 -10 1 -16 -1 -13 -4 13 -13 -54 -41 -91 -37 -21 1 -46 3
-56 4 -10 1 -15 5 -12 11 4 6 -5 10 -20 10 -20 0 -26 4 -21 16 3 8 2 13 -2 10
-5 -3 -16 7 -25 23 -17 29 -21 111 -5 111 5 0 7 4 3 9 -10 17 17 62 34 56 8
-3 12 -3 8 1 -4 4 5 16 20 26 32 20 103 19 154 -4z"/>
<path fill="#000000" stroke="none" d="M113 260 c1 -8 -4 -14 -10 -12 -7 1
-13 -4 -13 -12 0 -8 -9 -21 -20 -29 -16 -11 -20 -24 -19 -56 3 -35 8 -44 36
-61 18 -11 33 -24 33 -30 0 -17 77 -12 84 6 3 8 10 12 16 9 5 -3 10 1 10 10 0
8 9 23 20 32 22 20 26 62 8 82 -9 10 -9 12 -1 7 6 -3 15 -2 18 4 4 6 3 10 -2
9 -15 -4 -43 13 -37 22 3 5 -2 6 -11 3 -9 -4 -21 0 -28 9 -7 8 -29 17 -49 19
-30 3 -37 1 -35 -12z"/>
<path fill="#ffffff" stroke="none" d="M160 200 c10 0 21 6 23 13 3 6 6 2 6
-10 1 -15 -6 -23 -21 -25 -35 -5 -35 -36 -1 -41 27 -4 27 -4 -4 -6 -23 -1 -33
-6 -33 -17 0 -13 8 -15 39 -12 22 2 37 0 35 -4 -8 -13 -79 -9 -92 4 -17 17
-15 63 3 78 8 7 16 22 16 34 1 17 2 17 6 4 2 -10 13 -18 23 -18z"/>
<path fill="#ffffff" stroke="none" d="M240 204 c0 -2 -7 -4 -15 -4 -8 0 -15
4 -15 10 0 5 7 7 15 4 8 -4 15 -8 15 -10z"/>
<path fill="#ffffff" stroke="none" d="M80 174 c0 -8 -5 -12 -10 -9 -6 4 -8
11 -5 16 9 14 15 11 15 -7z"/>
<path fill="#ffffff" stroke="none" d="M217 133 c-3 -10 -5 -4 -5 12 0 17 2
24 5 18 2 -7 2 -21 0 -30z"/>
<path fill="#ffffff" stroke="none" d="M187 154 c-3 -3 -12 -4 -19 -1 -8 3 -5
6 6 6 11 1 17 -2 13 -5z"/>
<path fill="#000000" stroke="none" d="M111 124 c0 -11 3 -14 6 -6 3 7 2 16
-1 19 -3 4 -6 -2 -5 -13z"/>
</g>
</svg>
