<?xml version="1.0" standalone="no"?>
<!DOCTYPE svg PUBLIC "-//W3C//DTD SVG 20010904//EN"
 "http://www.w3.org/TR/2001/REC-SVG-20010904/DTD/svg10.dtd">
<svg version="1.0" xmlns="http://www.w3.org/2000/svg"
 width="32.000000pt" height="32.000000pt" viewBox="0 0 32.000000 32.000000"
 preserveAspectRatio="xMidYMid meet">
<metadata>
Created by potrace 1.16, written by Peter Selinger 2001-2019
</metadata>
<g transform="translate(0.000000,32.000000) scale(0.100000,-0.100000)"
fill="#000000" stroke="none">
<path fill="#000000" stroke="none" d="M0 160 l0 -160 160 0 160 0 0 160 0
160 -160 0 -160 0 0 -160z"/>
<path fill="#ffffff" stroke="none" d="M150 301 c0 -21 -27 -31 -46 -16 -10 8
-14 15 -7 15 6 0 15 -5 18 -10 4 -6 11 -8 16 -4 5 3 7 10 4 15 -4 5 -1 9 4 9
6 0 11 -4 11 -9z"/>
<path fill="#ffffff" stroke="none" d="M198 280 c12 -12 22 -16 22 -10 0 6 5
8 12 4 9 -6 9 -9 0 -12 -7 -2 -10 -8 -6 -13 10 -17 -5 -9 -38 21 -18 17 -28
30 -22 30 6 0 20 -9 32 -20z"/>
<path fill="#ffffff" stroke="none" d="M113 260 c5 -4 3 -11 -4 -15 -8 -5 -10
-4 -5 3 5 8 0 12 -13 12 -11 0 -23 5 -27 11 -7 12 34 3 49 -11z"/>
<path fill="#ffffff" stroke="none" d="M257 258 c-3 -8 -6 -5 -6 6 -1 11 2 17
5 13 3 -3 4 -12 1 -19z"/>
<path fill="#ffffff" stroke="none" d="M72 229 c5 -3 0 -13 -9 -22 -17 -15
-18 -14 -16 16 2 41 3 45 10 27 3 -8 10 -18 15 -21z"/>
<path fill="#ffffff" stroke="none" d="M284 244 c3 -8 2 -12 -4 -9 -6 3 -10
-1 -10 -10 0 -12 5 -15 16 -11 14 5 15 4 4 -9 -11 -14 -7 -19 13 -16 4 0 7 -4
7 -9 0 -14 -7 -13 -35 6 -21 13 -22 19 -13 45 11 33 14 35 22 13z"/>
<path fill="#ffffff" stroke="none" d="M161 200 c25 0 24 -16 -1 -23 -30 -8
-25 -35 8 -40 25 -4 25 -4 -5 -6 -41 -1 -45 -28 -5 -34 25 -4 25 -4 -3 -3 -23
1 -31 6 -33 24 -2 12 -8 20 -13 17 -5 -4 -9 3 -9 15 0 12 4 19 9 15 12 -7 30
24 25 43 -1 7 0 8 3 2 2 -5 13 -10 24 -10z"/>
<path fill="#ffffff" stroke="none" d="M235 202 c-3 -3 -11 0 -18 7 -9 10 -8
11 6 5 10 -3 15 -9 12 -12z"/>
<path fill="#ffffff" stroke="none" d="M77 168 c-3 -8 -6 -5 -6 6 -1 11 2 17
5 13 3 -3 4 -12 1 -19z"/>
<path fill="#ffffff" stroke="none" d="M40 174 c0 -8 -19 -13 -24 -6 -3 5 1 9
9 9 8 0 15 -2 15 -3z"/>
<path fill="#ffffff" stroke="none" d="M187 154 c-3 -3 -12 -4 -19 -1 -8 3 -5
6 6 6 11 1 17 -2 13 -5z"/>
<path fill="#ffffff" stroke="none" d="M304 152 c3 -5 -1 -9 -9 -9 -8 0 -12 4
-9 9 3 4 7 8 9 8 2 0 6 -4 9 -8z"/>
<path fill="#ffffff" stroke="none" d="M58 89 c-12 -36 -21 -38 -12 -3 5 20 4
25 -5 19 -8 -5 -11 -1 -9 11 2 12 -2 18 -10 16 -8 -1 -11 2 -7 8 4 6 15 4 30
-6 21 -13 22 -19 13 -45z"/>
<path fill="#ffffff" stroke="none" d="M272 118 c-8 -8 -8 -17 -1 -32 9 -19 9
-20 -4 -3 -8 9 -17 17 -21 17 -3 0 -6 -8 -7 -17 0 -12 -2 -13 -6 -5 -5 14 24
50 42 51 5 1 4 -4 -3 -11z"/>
<path fill="#ffffff" stroke="none" d="M215 70 c-3 -5 1 -10 9 -10 20 0 29
-17 15 -26 -8 -4 -9 -3 -5 4 5 8 -1 12 -15 12 -19 0 -20 -2 -8 -17 11 -15 11
-16 0 -6 -10 9 -18 9 -32 0 -14 -9 -21 -9 -30 0 -9 9 -7 11 9 6 14 -3 25 3 37
21 16 24 34 39 20 16z"/>
<path fill="#ffffff" stroke="none" d="M124 55 c3 -8 1 -15 -4 -15 -6 0 -10 4
-10 10 0 5 -8 7 -17 4 -15 -5 -16 -4 -3 5 20 14 27 14 34 -4z"/>
</g>
</svg>
