<?xml version="1.0" standalone="no"?>
<!DOCTYPE svg PUBLIC "-//W3C//DTD SVG 20010904//EN"
 "http://www.w3.org/TR/2001/REC-SVG-20010904/DTD/svg10.dtd">
<svg version="1.0" xmlns="http://www.w3.org/2000/svg"
 width="32.000000pt" height="32.000000pt" viewBox="0 0 32.000000 32.000000"
 preserveAspectRatio="xMidYMid meet">
<metadata>
Created by potrace 1.16, written by Peter Selinger 2001-2019
</metadata>
<g transform="translate(0.000000,32.000000) scale(0.100000,-0.100000)"
fill="#000000" stroke="none">
<path fill="#000000" stroke="none" d="M88 291 c-16 -10 -25 -20 -22 -23 3 -3
-2 -5 -12 -4 -21 1 -42 -52 -43 -109 -1 -38 29 -102 41 -89 3 3 5 -2 5 -12 -2
-20 51 -42 106 -43 58 -1 121 39 135 88 17 55 15 102 -6 134 -10 15 -21 25
-24 21 -3 -3 -5 2 -4 12 3 38 -127 57 -176 25z"/>
<path fill="#ffffff" stroke="none" d="M200 260 c0 -6 15 -19 33 -30 28 -17
33 -26 36 -61 1 -32 -3 -45 -19 -56 -11 -8 -20 -21 -20 -29 0 -8 -6 -13 -12
-12 -7 2 -12 -3 -11 -10 4 -18 -72 -16 -87 3 -7 9 -20 13 -29 10 -8 -3 -12 -3
-9 1 4 3 -3 15 -15 26 -12 11 -15 16 -7 12 12 -6 13 -4 3 7 -19 19 -16 62 5
81 9 8 26 27 37 41 15 20 29 26 58 27 20 0 37 -5 37 -10z"/>
<path fill="#000000" stroke="none" d="M137 234 c-4 -4 -7 -15 -7 -24 0 -10
-7 -23 -15 -30 -18 -15 -20 -61 -3 -78 16 -16 80 -16 96 0 17 17 15 63 -2 78
-8 6 -16 21 -18 33 -3 22 -36 35 -51 21z"/>
<path fill="#ffffff" stroke="none" d="M160 170 c0 -5 -5 -10 -11 -10 -5 0 -7
5 -4 10 3 6 8 10 11 10 2 0 4 -4 4 -10z"/>
<path fill="#ffffff" stroke="none" d="M205 170 c3 -5 1 -10 -4 -10 -6 0 -11
5 -11 10 0 6 2 10 4 10 3 0 8 -4 11 -10z"/>
<path fill="#ffffff" stroke="none" d="M205 110 c-3 -5 -12 -10 -18 -10 -7 0
-6 4 3 10 19 12 23 12 15 0z"/>
<path fill="#000000" stroke="none" d="M223 199 c11 -7 23 -7 28 -2 5 5 -3 9
-19 11 -24 1 -25 0 -9 -9z"/>
<path fill="#000000" stroke="none" d="M240 144 c0 -8 5 -12 10 -9 6 4 8 11 5
16 -9 14 -15 11 -15 -7z"/>
</g>
</svg>
