<?xml version="1.0" standalone="no"?>
<!DOCTYPE svg PUBLIC "-//W3C//DTD SVG 20010904//EN"
 "http://www.w3.org/TR/2001/REC-SVG-20010904/DTD/svg10.dtd">
<svg version="1.0" xmlns="http://www.w3.org/2000/svg"
 width="32.000000pt" height="32.000000pt" viewBox="0 0 32.000000 32.000000"
 preserveAspectRatio="xMidYMid meet">
<metadata>
Created by potrace 1.16, written by Peter Selinger 2001-2019
</metadata>
<g transform="translate(0.000000,32.000000) scale(0.100000,-0.100000)"
fill="#000000" stroke="none">
<path fill="#000000" stroke="none" d="M0 160 l0 -160 160 0 160 0 0 160 0
160 -160 0 -160 0 0 -160z"/>
<path fill="#ffffff" stroke="none" d="M244 291 c46 -31 66 -69 66 -131 0 -95
-55 -150 -150 -150 -95 0 -150 55 -150 148 0 62 17 97 63 130 41 29 129 31
171 3z"/>
<path fill="#000000" stroke="none" d="M120 245 c-6 -7 -13 -21 -14 -28 -1 -8
-8 -23 -16 -32 -18 -22 -14 -74 7 -97 22 -25 104 -25 126 0 21 23 25 76 7 97
-8 9 -15 24 -16 32 -6 40 -68 59 -94 28z"/>
<path fill="#ffffff" stroke="none" d="M178 228 c20 -20 14 -46 -10 -50 -35
-5 -35 -36 -1 -41 27 -4 27 -4 -4 -6 -23 -1 -33 -6 -33 -17 0 -13 8 -15 39
-12 22 2 37 0 35 -4 -8 -13 -79 -9 -92 4 -17 17 -15 63 3 78 8 7 15 21 15 30
0 16 11 26 31 29 3 1 10 -4 17 -11z"/>
<path fill="#ffffff" stroke="none" d="M217 133 c-3 -10 -5 -4 -5 12 0 17 2
24 5 18 2 -7 2 -21 0 -30z"/>
<path fill="#ffffff" stroke="none" d="M187 154 c-3 -3 -12 -4 -19 -1 -8 3 -5
6 6 6 11 1 17 -2 13 -5z"/>
<path fill="#000000" stroke="none" d="M140 208 c0 -4 9 -8 20 -8 11 0 20 4
20 8 0 4 -9 8 -20 8 -11 0 -20 -4 -20 -8z"/>
<path fill="#000000" stroke="none" d="M111 124 c0 -11 3 -14 6 -6 3 7 2 16
-1 19 -3 4 -6 -2 -5 -13z"/>
</g>
</svg>
