<?xml version="1.0" standalone="no"?>
<!DOCTYPE svg PUBLIC "-//W3C//DTD SVG 20010904//EN"
 "http://www.w3.org/TR/2001/REC-SVG-20010904/DTD/svg10.dtd">
<svg version="1.0" xmlns="http://www.w3.org/2000/svg"
 width="32.000000pt" height="32.000000pt" viewBox="0 0 32.000000 32.000000"
 preserveAspectRatio="xMidYMid meet">
<metadata>
Created by potrace 1.16, written by Peter Selinger 2001-2019
</metadata>
<g transform="translate(0.000000,32.000000) scale(0.100000,-0.100000)"
fill="#000000" stroke="none">
<path fill="#000000" stroke="none" d="M77 285 c-45 -31 -61 -57 -44 -74 9
-10 9 -15 -3 -24 -8 -7 -16 -23 -18 -37 -3 -34 39 -105 63 -106 11 -1 28 -2
38 -3 10 -1 15 -5 12 -11 -3 -6 1 -7 9 -4 20 8 21 24 1 24 -8 0 -15 5 -15 10
0 14 -61 50 -73 43 -6 -3 -7 -1 -3 6 4 6 11 9 16 6 5 -3 12 0 16 7 4 7 4 10
-1 6 -4 -4 -15 -3 -22 4 -11 9 -17 9 -24 -3 -5 -8 -9 -9 -9 -3 0 5 6 16 12 23
11 11 10 13 -2 7 -9 -5 -9 -2 2 7 10 8 15 16 13 19 -3 3 6 13 20 22 14 9 25
23 25 31 0 7 5 17 12 21 7 5 8 3 3 -6 -5 -9 -4 -11 4 -6 9 6 9 11 1 21 -8 10
-2 13 31 11 23 0 46 -8 52 -16 13 -17 67 -45 80 -41 5 1 6 -3 2 -9 -3 -6 -12
-7 -18 -4 -7 4 -4 -2 6 -12 15 -16 19 -17 27 -4 6 9 10 10 10 3 0 -7 -7 -16
-15 -20 -12 -7 -12 -10 4 -20 18 -11 19 -9 17 25 -5 66 -54 120 -98 106 -15
-4 -18 -3 -13 6 5 9 4 11 -3 6 -7 -4 -12 -4 -12 1 0 20 -67 12 -103 -12z"/>
<path fill="#ffffff" stroke="none" d="M80 244 c0 -8 -4 -14 -8 -14 -4 0 -8 9
-8 19 0 11 4 17 8 15 4 -3 8 -12 8 -20z"/>
<path fill="#ffffff" stroke="none" d="M264 248 c-3 -4 -12 -8 -20 -8 -8 0
-14 4 -14 8 0 4 9 8 19 8 11 0 17 -4 15 -8z"/>
<path fill="#ffffff" stroke="none" d="M90 71 c0 -6 -5 -13 -12 -17 -7 -5 -8
-3 -3 6 6 10 4 12 -9 7 -10 -4 -15 -3 -11 3 8 13 35 13 35 1z"/>
<path fill="#000000" stroke="none" d="M131 214 c0 -12 -8 -27 -16 -34 -18
-15 -20 -61 -3 -78 13 -13 84 -17 92 -4 2 4 -13 6 -35 4 -31 -3 -39 -1 -39 12
0 11 10 16 33 17 31 2 31 2 4 6 -34 5 -34 36 1 41 15 2 22 10 21 25 0 12 -3
16 -6 10 -7 -19 -41 -16 -46 5 -4 13 -5 13 -6 -4z"/>
<path fill="#ffffff" stroke="none" d="M117 118 c-3 -8 -6 -5 -6 6 -1 11 2 17
5 13 3 -3 4 -12 1 -19z"/>
<path fill="#000000" stroke="none" d="M217 209 c7 -7 15 -10 18 -7 3 3 -2 9
-12 12 -14 6 -15 5 -6 -5z"/>
<path fill="#000000" stroke="none" d="M65 181 c-3 -5 -1 -12 5 -16 5 -3 10 1
10 9 0 18 -6 21 -15 7z"/>
<path fill="#000000" stroke="none" d="M212 145 c0 -16 2 -22 5 -12 2 9 2 23
0 30 -3 6 -5 -1 -5 -18z"/>
<path fill="#000000" stroke="none" d="M168 153 c7 -3 16 -2 19 1 4 3 -2 6
-13 5 -11 0 -14 -3 -6 -6z"/>
<path fill="#000000" stroke="none" d="M275 141 c3 -5 -4 -12 -15 -16 -13 -4
-23 -18 -27 -36 -3 -16 -10 -29 -15 -29 -5 0 -6 6 -2 13 5 9 3 9 -7 -1 -12
-11 -12 -14 1 -23 12 -8 10 -9 -7 -4 -16 4 -23 2 -23 -7 0 -10 -2 -10 -8 -1
-6 9 -11 8 -18 -5 -18 -28 40 -26 87 4 35 22 40 29 38 57 -2 21 1 31 8 30 7
-2 10 4 7 12 -4 8 -10 15 -16 15 -5 0 -7 -4 -3 -9z"/>
<path fill="#ffffff" stroke="none" d="M256 71 c0 -11 -4 -17 -8 -15 -4 3 -8
12 -8 20 0 8 4 14 8 14 4 0 8 -9 8 -19z"/>
</g>
</svg>
