<?xml version="1.0" standalone="no"?>
<!DOCTYPE svg PUBLIC "-//W3C//DTD SVG 20010904//EN"
 "http://www.w3.org/TR/2001/REC-SVG-20010904/DTD/svg10.dtd">
<svg version="1.0" xmlns="http://www.w3.org/2000/svg"
 width="32.000000pt" height="32.000000pt" viewBox="0 0 32.000000 32.000000"
 preserveAspectRatio="xMidYMid meet">
<metadata>
Created by potrace 1.16, written by Peter Selinger 2001-2019
</metadata>
<g transform="translate(0.000000,32.000000) scale(0.100000,-0.100000)"
fill="#000000" stroke="none">
<path fill="#000000" stroke="none" d="M0 160 l0 -160 160 0 160 0 0 160 0
160 -160 0 -160 0 0 -160z"/>
<path fill="#ffffff" stroke="none" d="M223 291 c23 -9 32 -25 29 -52 -1 -4 8
-4 20 -1 14 3 19 1 15 -6 -4 -5 -2 -12 4 -14 13 -4 15 -83 3 -113 -10 -26 -64
-77 -65 -62 0 7 -4 2 -9 -9 -7 -18 -17 -22 -57 -21 -52 1 -57 3 -113 59 -32
33 -37 43 -35 80 3 76 21 103 65 99 11 -1 12 0 3 7 -10 6 -9 12 3 28 18 22 87
24 137 5z"/>
<path fill="#000000" stroke="none" d="M112 234 c-2 -29 -20 -57 -31 -50 -4 3
-5 -12 -3 -32 2 -28 1 -33 -7 -22 -6 8 -11 10 -11 4 0 -22 56 -62 96 -68 35
-5 44 -2 64 19 27 28 31 85 9 111 -7 9 -18 26 -24 38 -8 15 -21 22 -51 24 -37
3 -40 1 -42 -24z"/>
<path fill="#ffffff" stroke="none" d="M160 200 c10 0 21 6 23 13 3 6 6 2 6
-10 1 -15 -6 -23 -21 -25 -35 -5 -35 -36 -1 -41 27 -4 27 -4 -4 -6 -23 -1 -33
-6 -33 -17 0 -13 8 -15 39 -12 22 2 37 0 35 -4 -8 -13 -79 -9 -92 4 -17 17
-15 63 3 78 8 7 16 22 16 34 1 17 2 17 6 4 2 -10 13 -18 23 -18z"/>
<path fill="#ffffff" stroke="none" d="M217 133 c-3 -10 -5 -4 -5 12 0 17 2
24 5 18 2 -7 2 -21 0 -30z"/>
<path fill="#ffffff" stroke="none" d="M187 154 c-3 -3 -12 -4 -19 -1 -8 3 -5
6 6 6 11 1 17 -2 13 -5z"/>
<path fill="#000000" stroke="none" d="M111 124 c0 -11 3 -14 6 -6 3 7 2 16
-1 19 -3 4 -6 -2 -5 -13z"/>
</g>
</svg>
