<?xml version="1.0" standalone="no"?>
<!DOCTYPE svg PUBLIC "-//W3C//DTD SVG 20010904//EN"
 "http://www.w3.org/TR/2001/REC-SVG-20010904/DTD/svg10.dtd">
<svg version="1.0" xmlns="http://www.w3.org/2000/svg"
 width="32.000000pt" height="32.000000pt" viewBox="0 0 32.000000 32.000000"
 preserveAspectRatio="xMidYMid meet">
<metadata>
Created by potrace 1.16, written by Peter Selinger 2001-2019
</metadata>
<g transform="translate(0.000000,32.000000) scale(0.100000,-0.100000)"
fill="#000000" stroke="none">
<path fill="#000000" stroke="none" d="M100 286 c-5 -11 -9 -16 -9 -9 -1 15
-55 -36 -65 -62 -12 -30 -10 -109 3 -113 6 -2 8 -9 4 -14 -4 -7 1 -9 15 -6 12
3 21 3 20 -1 -5 -43 25 -62 102 -65 33 -1 50 4 63 18 14 15 15 21 5 28 -10 7
-9 8 2 7 44 -4 62 23 65 99 2 37 -3 47 -35 80 -56 56 -61 58 -113 59 -40 1
-50 -3 -57 -21z"/>
<path fill="#ffffff" stroke="none" d="M199 263 c-2 -15 13 -53 22 -53 9 0 25
-67 20 -89 -1 -8 -10 -25 -19 -37 -15 -19 -23 -22 -62 -17 -56 7 -76 26 -83
80 -4 33 -2 42 13 46 9 2 20 18 23 35 5 27 11 31 44 35 21 2 39 4 41 5 1 1 2
-1 1 -5z"/>
<path fill="#ffffff" stroke="none" d="M258 185 c-3 -3 -9 2 -12 12 -6 14 -5
15 5 6 7 -7 10 -15 7 -18z"/>
<path fill="#000000" stroke="none" d="M131 214 c0 -12 -8 -27 -16 -34 -18
-15 -20 -61 -3 -78 13 -13 84 -17 92 -4 2 4 -13 6 -35 4 -33 -4 -39 -1 -39 16
0 14 6 19 23 17 12 -1 14 0 5 2 -10 2 -18 11 -18 20 0 10 -6 13 -16 9 -8 -3
-12 -2 -9 4 3 6 22 10 41 10 29 0 34 3 33 23 0 12 -3 16 -6 10 -7 -19 -41 -16
-46 5 -4 13 -5 13 -6 -4z"/>
<path fill="#ffffff" stroke="none" d="M117 118 c-3 -8 -6 -5 -6 6 -1 11 2 17
5 13 3 -3 4 -12 1 -19z"/>
<path fill="#000000" stroke="none" d="M212 145 c0 -16 2 -22 5 -12 2 9 2 23
0 30 -3 6 -5 -1 -5 -18z"/>
</g>
</svg>
