<?xml version="1.0" standalone="no"?>
<!DOCTYPE svg PUBLIC "-//W3C//DTD SVG 20010904//EN"
 "http://www.w3.org/TR/2001/REC-SVG-20010904/DTD/svg10.dtd">
<svg version="1.0" xmlns="http://www.w3.org/2000/svg"
 width="32.000000pt" height="32.000000pt" viewBox="0 0 32.000000 32.000000"
 preserveAspectRatio="xMidYMid meet">
<metadata>
Created by potrace 1.16, written by Peter Selinger 2001-2019
</metadata>
<g transform="translate(0.000000,32.000000) scale(0.100000,-0.100000)"
fill="#000000" stroke="none">
<path fill="#000000" stroke="none" d="M0 160 l0 -160 160 0 160 0 0 160 0
160 -160 0 -160 0 0 -160z"/>
<path fill="#ffffff" stroke="none" d="M230 296 c23 -9 34 -19 34 -30 -1 -10
1 -15 4 -12 3 4 14 -6 24 -21 21 -32 23 -79 6 -134 -14 -49 -77 -89 -135 -88
-55 1 -108 23 -106 43 0 10 -2 15 -5 12 -12 -13 -42 51 -41 89 1 57 22 110 43
109 10 -1 15 1 12 4 -3 3 6 13 22 23 32 21 93 23 142 5z"/>
<path fill="#000000" stroke="none" d="M105 243 c-11 -14 -28 -33 -37 -41 -21
-19 -24 -62 -5 -81 10 -11 9 -13 -3 -7 -8 4 -5 -1 7 -12 12 -11 19 -23 15 -26
-3 -4 1 -4 9 -1 9 3 22 -1 29 -10 15 -19 91 -21 87 -3 -1 7 4 12 11 10 6 -1
12 4 12 12 0 8 9 21 20 29 16 11 20 24 19 56 -3 35 -8 44 -36 61 -18 11 -33
24 -33 30 0 5 -17 10 -37 10 -29 -1 -43 -7 -58 -27z"/>
<path fill="#ffffff" stroke="none" d="M174 234 c9 -3 16 -14 16 -24 0 -10 7
-23 15 -30 18 -15 20 -61 3 -78 -16 -16 -80 -16 -96 0 -17 17 -15 63 3 78 8 7
15 21 15 30 0 10 6 21 13 23 6 3 13 6 14 6 1 1 8 -2 17 -5z"/>
<path fill="#ffffff" stroke="none" d="M251 197 c-5 -5 -17 -5 -28 2 -16 9
-15 10 9 9 16 -2 24 -6 19 -11z"/>
<path fill="#ffffff" stroke="none" d="M255 151 c3 -5 1 -12 -5 -16 -5 -3 -10
1 -10 9 0 18 6 21 15 7z"/>
<path fill="#000000" stroke="none" d="M148 203 c6 -2 18 -2 25 0 6 3 1 5 -13
5 -14 0 -19 -2 -12 -5z"/>
<path fill="#000000" stroke="none" d="M146 172 c-3 -6 10 -12 29 -14 22 -2
34 0 32 6 -5 14 -53 20 -61 8z"/>
<path fill="#000000" stroke="none" d="M148 143 c6 -2 18 -2 25 0 6 3 1 5 -13
5 -14 0 -19 -2 -12 -5z"/>
<path fill="#000000" stroke="none" d="M195 120 c-4 -7 -20 -10 -36 -8 -16 3
-29 1 -29 -4 0 -12 68 -10 75 3 4 6 5 13 2 15 -3 3 -8 0 -12 -6z"/>
</g>
</svg>
