<?xml version="1.0" standalone="no"?>
<!DOCTYPE svg PUBLIC "-//W3C//DTD SVG 20010904//EN"
 "http://www.w3.org/TR/2001/REC-SVG-20010904/DTD/svg10.dtd">
<svg version="1.0" xmlns="http://www.w3.org/2000/svg"
 width="32.000000pt" height="32.000000pt" viewBox="0 0 32.000000 32.000000"
 preserveAspectRatio="xMidYMid meet">
<metadata>
Created by potrace 1.16, written by Peter Selinger 2001-2019
</metadata>
<g transform="translate(0.000000,32.000000) scale(0.100000,-0.100000)"
fill="#000000" stroke="none">
<path fill="#000000" stroke="none" d="M0 160 l0 -160 160 0 160 0 0 160 0
160 -160 0 -160 0 0 -160z"/>
<path fill="#ffffff" stroke="none" d="M138 299 c22 11 72 11 72 0 0 -5 -6 -9
-12 -9 -9 0 -8 -4 2 -10 12 -8 12 -10 1 -10 -11 0 -11 -3 -1 -15 11 -13 9 -14
-14 -1 -38 19 -63 10 -76 -30 -6 -18 -17 -33 -23 -31 -17 3 -9 -83 9 -104 20
-22 18 -43 -3 -34 -13 4 -15 3 -7 -5 12 -12 47 -3 38 11 -3 5 6 9 20 9 14 0
26 -5 26 -12 0 -6 3 -8 7 -5 3 4 13 1 21 -6 10 -8 13 -8 9 -1 -10 17 26 57 53
59 13 1 26 8 28 16 3 11 1 11 -7 -1 -8 -12 -11 -12 -11 -1 0 11 -3 11 -17 0
-15 -12 -16 -12 -10 4 3 9 2 28 -3 42 -6 15 -6 26 0 30 6 4 10 -1 10 -9 0 -9
4 -16 9 -16 5 0 7 9 4 20 -3 13 -14 20 -28 20 -19 0 -24 5 -23 28 1 35 26 38
39 5 5 -13 17 -23 28 -23 17 0 20 -8 23 -47 4 -62 -15 -103 -48 -103 -17 0
-25 -7 -30 -24 -5 -21 -13 -25 -52 -28 -39 -3 -60 2 -91 19 -2 1 -4 13 -5 25
-1 18 -7 23 -26 21 -14 -1 -19 1 -12 4 10 4 10 7 -2 17 -18 14 -24 84 -9 111
10 17 14 18 25 7 11 -11 10 -13 -1 -10 -8 2 -16 -5 -17 -15 -1 -10 0 -12 3 -3
2 8 11 12 19 9 19 -7 18 12 -2 31 -8 9 -11 16 -5 16 5 0 13 -4 16 -10 7 -12
26 -14 23 -2 -4 14 24 77 29 65 3 -9 10 -10 21 -4z"/>
<path fill="#ffffff" stroke="none" d="M81 267 c-10 -9 -11 -8 -5 6 3 10 9 15
12 12 3 -3 0 -11 -7 -18z"/>
<path fill="#ffffff" stroke="none" d="M230 280 c0 -5 -2 -10 -4 -10 -3 0 -8
5 -11 10 -3 6 -1 10 4 10 6 0 11 -4 11 -10z"/>
<path fill="#ffffff" stroke="none" d="M160 200 c10 0 21 6 23 13 3 6 6 2 6
-10 1 -18 -5 -22 -36 -25 -36 -3 -38 -5 -39 -38 -1 -26 -1 -28 3 -7 2 15 8 27
13 27 5 0 7 -14 3 -31 l-6 -31 41 3 c22 3 38 1 36 -3 -8 -13 -79 -9 -92 4 -17
17 -15 63 3 78 8 7 16 22 16 34 1 17 2 17 6 4 2 -10 13 -18 23 -18z"/>
<path fill="#ffffff" stroke="none" d="M217 133 c-3 -10 -5 -4 -5 12 0 17 2
24 5 18 2 -7 2 -21 0 -30z"/>
<path fill="#ffffff" stroke="none" d="M243 45 c-3 -9 -8 -14 -10 -11 -3 3 -2
9 2 15 9 16 15 13 8 -4z"/>
<path fill="#000000" stroke="none" d="M165 280 c3 -5 8 -10 11 -10 2 0 4 5 4
10 0 6 -5 10 -11 10 -5 0 -7 -4 -4 -10z"/>
<path fill="#000000" stroke="none" d="M56 142 c-2 -4 -1 -14 5 -22 7 -12 9
-10 9 8 0 23 -5 28 -14 14z"/>
<path fill="#000000" stroke="none" d="M86 77 c3 -10 9 -15 12 -12 3 3 0 11
-7 18 -10 9 -11 8 -5 -6z"/>
<path fill="#000000" stroke="none" d="M118 33 c7 -3 16 -2 19 1 4 3 -2 6 -13
5 -11 0 -14 -3 -6 -6z"/>
</g>
</svg>
