<?xml version="1.0" standalone="no"?>
<!DOCTYPE svg PUBLIC "-//W3C//DTD SVG 20010904//EN"
 "http://www.w3.org/TR/2001/REC-SVG-20010904/DTD/svg10.dtd">
<svg version="1.0" xmlns="http://www.w3.org/2000/svg"
 width="32.000000pt" height="32.000000pt" viewBox="0 0 32.000000 32.000000"
 preserveAspectRatio="xMidYMid meet">
<metadata>
Created by potrace 1.16, written by Peter Selinger 2001-2019
</metadata>
<g transform="translate(0.000000,32.000000) scale(0.100000,-0.100000)"
fill="#000000" stroke="none">
<path fill="#000000" stroke="none" d="M68 178 c8 -8 9 -15 1 -25 -9 -10 -6
-13 13 -13 14 0 27 3 31 6 3 3 35 7 71 8 35 1 68 5 72 9 9 9 -5 10 -77 7 -32
-1 -60 3 -63 9 -4 6 -19 11 -34 11 -20 0 -23 -3 -14 -12z"/>
</g>
</svg>
