<?xml version="1.0" standalone="no"?>
<!DOCTYPE svg PUBLIC "-//W3C//DTD SVG 20010904//EN"
 "http://www.w3.org/TR/2001/REC-SVG-20010904/DTD/svg10.dtd">
<svg version="1.0" xmlns="http://www.w3.org/2000/svg"
 width="32.000000pt" height="32.000000pt" viewBox="0 0 32.000000 32.000000"
 preserveAspectRatio="xMidYMid meet">
<metadata>
Created by potrace 1.16, written by Peter Selinger 2001-2019
</metadata>
<g transform="translate(0.000000,32.000000) scale(0.100000,-0.100000)"
fill="#000000" stroke="none">
<path fill="#000000" stroke="none" d="M204 179 c-3 -6 -31 -10 -63 -9 -72 3
-86 2 -77 -7 4 -4 37 -8 72 -9 36 -1 68 -5 71 -8 4 -3 17 -6 31 -6 19 0 22 3
13 13 -8 10 -7 17 1 25 9 9 6 12 -14 12 -15 0 -30 -5 -34 -11z"/>
</g>
</svg>
