<?xml version="1.0" standalone="no"?>
<!DOCTYPE svg PUBLIC "-//W3C//DTD SVG 20010904//EN"
 "http://www.w3.org/TR/2001/REC-SVG-20010904/DTD/svg10.dtd">
<svg version="1.0" xmlns="http://www.w3.org/2000/svg"
 width="32.000000pt" height="32.000000pt" viewBox="0 0 32.000000 32.000000"
 preserveAspectRatio="xMidYMid meet">
<metadata>
Created by potrace 1.16, written by Peter Selinger 2001-2019
</metadata>
<g transform="translate(0.000000,32.000000) scale(0.100000,-0.100000)"
fill="#000000" stroke="none">
<path fill="#000000" stroke="none" d="M0 160 l0 -160 160 0 160 0 0 160 0
160 -160 0 -160 0 0 -160z"/>
<path fill="#ffffff" stroke="none" d="M173 225 c37 -26 49 -42 23 -32 -27 10
-23 -18 6 -46 27 -27 40 -66 18 -52 -6 4 -17 1 -25 -5 -12 -10 -15 -9 -15 2 0
16 -46 42 -70 40 -29 -3 -43 16 -48 67 l-5 51 39 0 c26 0 53 -9 77 -25z"/>
<path fill="#000000" stroke="none" d="M100 215 c11 -13 10 -15 -6 -9 -15 4
-13 1 6 -15 34 -30 60 -43 60 -33 0 5 -9 17 -20 27 -12 10 -18 25 -16 32 4 8
-2 13 -16 13 -17 0 -18 -2 -8 -15z"/>
</g>
</svg>
