<?xml version="1.0" standalone="no"?>
<!DOCTYPE svg PUBLIC "-//W3C//DTD SVG 20010904//EN"
 "http://www.w3.org/TR/2001/REC-SVG-20010904/DTD/svg10.dtd">
<svg version="1.0" xmlns="http://www.w3.org/2000/svg"
 width="32.000000pt" height="32.000000pt" viewBox="0 0 32.000000 32.000000"
 preserveAspectRatio="xMidYMid meet">
<metadata>
Created by potrace 1.16, written by Peter Selinger 2001-2019
</metadata>
<g transform="translate(0.000000,32.000000) scale(0.100000,-0.100000)"
fill="#000000" stroke="none">
<path fill="#000000" stroke="none" d="M56 273 c-9 -10 34 -72 83 -120 30 -29
13 -30 -23 -2 -32 25 -33 18 -4 -22 32 -42 79 -69 123 -69 l38 0 -5 52 c-5 48
-10 56 -54 94 -53 47 -73 50 -31 6 35 -37 34 -45 -3 -24 -16 9 -30 23 -30 30
0 6 -6 12 -14 12 -7 0 -19 7 -26 16 -18 20 -46 35 -54 27z"/>
<path fill="#ffffff" stroke="none" d="M210 124 c0 -8 -4 -12 -10 -9 -5 3 -10
10 -10 16 0 5 5 9 10 9 6 0 10 -7 10 -16z"/>
<path fill="#ffffff" stroke="none" d="M235 111 c3 -5 2 -12 -3 -15 -5 -3 -9
1 -9 9 0 17 3 19 12 6z"/>
</g>
</svg>
