<?xml version="1.0" standalone="no"?>
<!DOCTYPE svg PUBLIC "-//W3C//DTD SVG 20010904//EN"
 "http://www.w3.org/TR/2001/REC-SVG-20010904/DTD/svg10.dtd">
<svg version="1.0" xmlns="http://www.w3.org/2000/svg"
 width="32.000000pt" height="32.000000pt" viewBox="0 0 32.000000 32.000000"
 preserveAspectRatio="xMidYMid meet">
<metadata>
Created by potrace 1.16, written by Peter Selinger 2001-2019
</metadata>
<g transform="translate(0.000000,32.000000) scale(0.100000,-0.100000)"
fill="#000000" stroke="none">
<path fill="#000000" stroke="none" d="M0 160 l0 -160 160 0 160 0 0 160 0
160 -160 0 -160 0 0 -160z"/>
<path fill="#ffffff" stroke="none" d="M250 279 c0 -5 0 -12 0 -16 1 -8 -31
-14 -42 -7 -14 9 11 44 27 38 8 -4 15 -10 15 -15z"/>
<path fill="#ffffff" stroke="none" d="M190 205 c12 -19 23 -35 25 -35 2 0 10
-3 19 -6 12 -4 16 0 16 15 0 12 5 21 11 21 6 0 9 -12 7 -27 -6 -53 -68 -34
-105 32 -11 19 -12 19 -32 1 -33 -30 -27 -52 17 -59 43 -7 82 -32 82 -52 0
-38 -65 -60 -90 -30 -17 21 -6 29 18 14 16 -10 23 -10 36 0 23 19 12 29 -50
47 -48 14 -54 19 -54 42 0 30 35 72 61 72 10 0 27 -16 39 -35z"/>
<path fill="#ffffff" stroke="none" d="M80 89 c0 -5 0 -12 0 -16 1 -8 -31 -14
-42 -7 -14 9 11 44 27 38 8 -4 15 -10 15 -15z"/>
</g>
</svg>
