<?xml version="1.0" standalone="no"?>
<!DOCTYPE svg PUBLIC "-//W3C//DTD SVG 20010904//EN"
 "http://www.w3.org/TR/2001/REC-SVG-20010904/DTD/svg10.dtd">
<svg version="1.0" xmlns="http://www.w3.org/2000/svg"
 width="32.000000pt" height="32.000000pt" viewBox="0 0 32.000000 32.000000"
 preserveAspectRatio="xMidYMid meet">
<metadata>
Created by potrace 1.16, written by Peter Selinger 2001-2019
</metadata>
<g transform="translate(0.000000,32.000000) scale(0.100000,-0.100000)"
fill="#000000" stroke="none">
<path fill="#000000" stroke="none" d="M113 273 c-7 -15 -13 -32 -13 -38 0 -5
-10 -15 -22 -20 -15 -7 -23 -19 -24 -36 -1 -14 -4 -31 -8 -37 -5 -8 9 -16 38
-24 31 -8 46 -17 46 -29 0 -27 25 -42 40 -24 7 8 19 15 27 15 8 0 11 4 8 10
-3 5 0 7 8 4 8 -3 17 2 20 10 4 9 14 16 24 16 14 1 12 5 -10 21 -21 16 -25 24
-17 34 8 9 8 15 0 20 -7 4 -7 12 0 26 9 15 7 21 -6 26 -9 3 -24 2 -33 -4 -19
-12 -41 -6 -41 11 0 7 -6 20 -12 29 -12 15 -14 14 -25 -10z"/>
</g>
</svg>
