<?xml version="1.0" standalone="no"?>
<!DOCTYPE svg PUBLIC "-//W3C//DTD SVG 20010904//EN"
 "http://www.w3.org/TR/2001/REC-SVG-20010904/DTD/svg10.dtd">
<svg version="1.0" xmlns="http://www.w3.org/2000/svg"
 width="32.000000pt" height="32.000000pt" viewBox="0 0 32.000000 32.000000"
 preserveAspectRatio="xMidYMid meet">
<metadata>
Created by potrace 1.16, written by Peter Selinger 2001-2019
</metadata>
<g transform="translate(0.000000,32.000000) scale(0.100000,-0.100000)"
fill="#000000" stroke="none">
<path fill="#000000" stroke="none" d="M0 160 l0 -160 160 0 160 0 0 160 0
160 -160 0 -160 0 0 -160z"/>
<path fill="#ffffff" stroke="none" d="M263 220 c12 0 17 -5 14 -14 -3 -8 -3
-17 1 -20 11 -11 12 -46 2 -46 -6 0 -18 -16 -27 -35 -13 -27 -21 -34 -36 -29
-13 4 -20 0 -24 -15 -4 -17 -8 -19 -20 -9 -18 15 -61 20 -68 7 -9 -14 -25 -11
-25 6 0 7 7 18 16 23 12 7 14 14 7 28 -15 32 -9 47 33 90 50 51 63 56 88 32
11 -10 28 -18 39 -18z"/>
<path fill="#ffffff" stroke="none" d="M120 230 c0 -11 -6 -20 -13 -20 -19 0
-27 10 -20 26 8 21 33 17 33 -6z"/>
<path fill="#000000" stroke="none" d="M240 185 c0 -8 7 -15 16 -15 14 0 14 3
4 15 -7 8 -14 15 -16 15 -2 0 -4 -7 -4 -15z"/>
</g>
</svg>
