<?xml version="1.0" standalone="no"?>
<!DOCTYPE svg PUBLIC "-//W3C//DTD SVG 20010904//EN"
 "http://www.w3.org/TR/2001/REC-SVG-20010904/DTD/svg10.dtd">
<svg version="1.0" xmlns="http://www.w3.org/2000/svg"
 width="32.000000pt" height="32.000000pt" viewBox="0 0 32.000000 32.000000"
 preserveAspectRatio="xMidYMid meet">
<metadata>
Created by potrace 1.16, written by Peter Selinger 2001-2019
</metadata>
<g transform="translate(0.000000,32.000000) scale(0.100000,-0.100000)"
fill="#000000" stroke="none">
<path fill="#000000" stroke="none" d="M206 265 c-15 -8 -34 -15 -41 -15 -7 0
-15 -9 -18 -20 -7 -26 -27 -26 -22 0 5 26 -24 39 -39 18 -6 -8 -18 -13 -26
-11 -8 2 -3 -5 12 -17 33 -25 36 -40 9 -40 -11 0 -23 -4 -26 -10 -3 -5 3 -10
14 -10 12 0 21 -5 21 -11 0 -5 -4 -7 -10 -4 -5 3 -11 -4 -12 -17 0 -13 -2 -30
-2 -38 -1 -8 5 -23 13 -32 12 -13 18 -15 29 -6 8 7 16 8 20 2 11 -14 67 -11
65 3 -3 14 38 18 51 6 12 -13 37 -12 42 2 3 7 6 35 8 61 1 27 6 57 10 66 6 13
2 19 -21 23 -52 12 -54 13 -47 40 7 29 7 29 -30 10z"/>
<path fill="#ffffff" stroke="none" d="M276 89 c1 -23 -2 -27 -12 -18 -9 8
-11 17 -4 29 5 9 7 20 5 24 -3 3 -2 3 2 0 4 -3 8 -19 9 -35z"/>
<path fill="#000000" stroke="none" d="M10 156 c0 -2 7 -7 16 -10 8 -3 12 -2
9 4 -6 10 -25 14 -25 6z"/>
<path fill="#000000" stroke="none" d="M36 75 c-3 -8 -1 -15 3 -15 5 0 11 7
15 15 3 8 1 15 -3 15 -5 0 -11 -7 -15 -15z"/>
</g>
</svg>
