<?xml version="1.0" standalone="no"?>
<!DOCTYPE svg PUBLIC "-//W3C//DTD SVG 20010904//EN"
 "http://www.w3.org/TR/2001/REC-SVG-20010904/DTD/svg10.dtd">
<svg version="1.0" xmlns="http://www.w3.org/2000/svg"
 width="32.000000pt" height="32.000000pt" viewBox="0 0 32.000000 32.000000"
 preserveAspectRatio="xMidYMid meet">
<metadata>
Created by potrace 1.16, written by Peter Selinger 2001-2019
</metadata>
<g transform="translate(0.000000,32.000000) scale(0.100000,-0.100000)"
fill="#000000" stroke="none">
<path fill="#000000" stroke="none" d="M68 178 c7 -7 8 -16 2 -23 -7 -9 -2
-11 18 -9 15 1 27 3 27 4 0 0 30 2 67 3 36 1 70 6 74 10 9 9 -5 10 -77 7 -32
-1 -60 3 -63 9 -4 6 -19 11 -34 11 -20 0 -23 -3 -14 -12z"/>
</g>
</svg>
