<?xml version="1.0" standalone="no"?>
<!DOCTYPE svg PUBLIC "-//W3C//DTD SVG 20010904//EN"
 "http://www.w3.org/TR/2001/REC-SVG-20010904/DTD/svg10.dtd">
<svg version="1.0" xmlns="http://www.w3.org/2000/svg"
 width="32.000000pt" height="32.000000pt" viewBox="0 0 32.000000 32.000000"
 preserveAspectRatio="xMidYMid meet">
<metadata>
Created by potrace 1.16, written by Peter Selinger 2001-2019
</metadata>
<g transform="translate(0.000000,32.000000) scale(0.100000,-0.100000)"
fill="#000000" stroke="none">
<path fill="#000000" stroke="none" d="M206 205 c-8 -22 6 -38 27 -33 14 3 14
6 -2 27 -16 21 -19 22 -25 6z"/>
<path fill="#000000" stroke="none" d="M155 163 c-16 -9 -33 -20 -36 -26 -4
-5 -9 -5 -13 2 -4 6 -12 9 -17 6 -14 -9 -11 -25 6 -25 20 0 105 42 105 52 0
12 -11 9 -45 -9z"/>
</g>
</svg>
