<?xml version="1.0" standalone="no"?>
<!DOCTYPE svg PUBLIC "-//W3C//DTD SVG 20010904//EN"
 "http://www.w3.org/TR/2001/REC-SVG-20010904/DTD/svg10.dtd">
<svg version="1.0" xmlns="http://www.w3.org/2000/svg"
 width="32.000000pt" height="32.000000pt" viewBox="0 0 32.000000 32.000000"
 preserveAspectRatio="xMidYMid meet">
<metadata>
Created by potrace 1.16, written by Peter Selinger 2001-2019
</metadata>
<g transform="translate(0.000000,32.000000) scale(0.100000,-0.100000)"
fill="#000000" stroke="none">
<path fill="#000000" stroke="none" d="M179 188 c13 -18 7 -24 -21 -19 -5 0
-8 -4 -8 -10 0 -6 7 -9 15 -6 11 5 12 1 4 -20 -5 -14 -7 -28 -4 -31 3 -3 5 0
5 7 0 7 5 9 10 6 6 -4 7 -12 3 -18 -4 -7 0 -6 10 2 17 14 25 57 8 47 -5 -4 -7
2 -4 12 2 11 -3 25 -14 33 -16 13 -17 13 -4 -3z"/>
</g>
</svg>
