<?xml version="1.0" standalone="no"?>
<!DOCTYPE svg PUBLIC "-//W3C//DTD SVG 20010904//EN"
 "http://www.w3.org/TR/2001/REC-SVG-20010904/DTD/svg10.dtd">
<svg version="1.0" xmlns="http://www.w3.org/2000/svg"
 width="32.000000pt" height="32.000000pt" viewBox="0 0 32.000000 32.000000"
 preserveAspectRatio="xMidYMid meet">
<metadata>
Created by potrace 1.16, written by Peter Selinger 2001-2019
</metadata>
<g transform="translate(0.000000,32.000000) scale(0.100000,-0.100000)"
fill="#000000" stroke="none">
<path fill="#000000" stroke="none" d="M117 204 c-20 -27 -42 -33 -33 -9 3 8
1 15 -4 15 -6 0 -10 -9 -10 -19 0 -12 10 -21 27 -26 27 -6 27 -7 9 -21 -19
-13 -19 -14 -1 -14 10 0 27 -7 37 -17 15 -13 22 -14 40 -4 13 6 15 9 6 7 -10
-3 -18 -2 -18 2 1 11 26 42 31 37 3 -2 5 5 5 16 0 11 -5 18 -12 15 -7 -3 -10
2 -7 13 4 14 -1 18 -19 17 -13 -1 -25 1 -28 5 -3 4 -13 -4 -23 -17z"/>
<path fill="#ffffff" stroke="none" d="M130 196 c0 -2 -8 -10 -17 -17 -16 -13
-17 -12 -4 4 13 16 21 21 21 13z"/>
</g>
</svg>
