<?xml version="1.0" standalone="no"?>
<!DOCTYPE svg PUBLIC "-//W3C//DTD SVG 20010904//EN"
 "http://www.w3.org/TR/2001/REC-SVG-20010904/DTD/svg10.dtd">
<svg version="1.0" xmlns="http://www.w3.org/2000/svg"
 width="32.000000pt" height="32.000000pt" viewBox="0 0 32.000000 32.000000"
 preserveAspectRatio="xMidYMid meet">
<metadata>
Created by potrace 1.16, written by Peter Selinger 2001-2019
</metadata>
<g transform="translate(0.000000,32.000000) scale(0.100000,-0.100000)"
fill="#000000" stroke="none">
<path fill="#000000" stroke="none" d="M154 193 c3 -8 -2 -13 -14 -13 -11 0
-20 -4 -20 -10 0 -5 5 -10 10 -10 6 0 10 -5 10 -11 0 -5 -5 -7 -10 -4 -6 4 -8
-3 -6 -17 3 -13 5 -29 5 -35 1 -7 7 -13 15 -13 8 0 22 -8 32 -17 17 -17 17
-17 12 2 -4 15 0 21 13 22 16 2 79 56 79 68 0 3 -11 5 -25 5 -19 0 -25 5 -25
23 0 20 -5 23 -40 23 -30 0 -39 -3 -36 -13z"/>
</g>
</svg>
