<?xml version="1.0" standalone="no"?>
<!DOCTYPE svg PUBLIC "-//W3C//DTD SVG 20010904//EN"
 "http://www.w3.org/TR/2001/REC-SVG-20010904/DTD/svg10.dtd">
<svg version="1.0" xmlns="http://www.w3.org/2000/svg"
 width="32.000000pt" height="32.000000pt" viewBox="0 0 32.000000 32.000000"
 preserveAspectRatio="xMidYMid meet">
<metadata>
Created by potrace 1.16, written by Peter Selinger 2001-2019
</metadata>
<g transform="translate(0.000000,32.000000) scale(0.100000,-0.100000)"
fill="#000000" stroke="none">
<path fill="#000000" stroke="none" d="M0 160 l0 -160 160 0 160 0 0 160 0
160 -160 0 -160 0 0 -160z"/>
<path fill="#ffffff" stroke="none" d="M110 236 c0 -3 -4 -8 -10 -11 -5 -3
-10 -1 -10 4 0 6 5 11 10 11 6 0 10 -2 10 -4z"/>
<path fill="#ffffff" stroke="none" d="M193 220 c-5 -21 11 -28 22 -10 12 19
24 10 22 -17 -2 -22 3 -29 21 -31 21 -3 32 -22 13 -22 -5 0 -17 -13 -28 -29
-17 -28 -21 -31 -43 -31 -5 0 -10 -6 -10 -14 0 -12 -4 -12 -30 1 -36 17 -53
46 -45 73 4 12 2 20 -5 20 -6 0 3 12 21 28 18 15 37 26 41 25 4 -2 8 4 8 12 0
8 4 15 9 15 5 0 7 -9 4 -20z"/>
<path fill="#ffffff" stroke="none" d="M110 76 c0 -3 -4 -8 -10 -11 -5 -3 -10
-1 -10 4 0 6 5 11 10 11 6 0 10 -2 10 -4z"/>
</g>
</svg>
