<?xml version="1.0" standalone="no"?>
<!DOCTYPE svg PUBLIC "-//W3C//DTD SVG 20010904//EN"
 "http://www.w3.org/TR/2001/REC-SVG-20010904/DTD/svg10.dtd">
<svg version="1.0" xmlns="http://www.w3.org/2000/svg"
 width="32.000000pt" height="32.000000pt" viewBox="0 0 32.000000 32.000000"
 preserveAspectRatio="xMidYMid meet">
<metadata>
Created by potrace 1.16, written by Peter Selinger 2001-2019
</metadata>
<g transform="translate(0.000000,32.000000) scale(0.100000,-0.100000)"
fill="#000000" stroke="none">
<path fill="#000000" stroke="none" d="M0 160 l0 -160 160 0 160 0 0 160 0
160 -160 0 -160 0 0 -160z"/>
<path fill="#ffffff" stroke="none" d="M193 188 c4 -10 8 -9 16 2 6 8 11 10
11 5 0 -6 -6 -17 -12 -23 -17 -17 4 -30 40 -25 26 3 27 3 4 -7 -13 -5 -29 -7
-34 -3 -7 4 -9 -2 -5 -16 3 -14 -1 -24 -13 -31 -15 -8 -19 -5 -24 15 -4 14
-12 25 -19 25 -7 0 -13 9 -13 20 0 11 6 20 13 20 7 0 13 7 13 15 0 18 16 20
23 3z"/>
</g>
</svg>
