<?xml version="1.0" standalone="no"?>
<!DOCTYPE svg PUBLIC "-//W3C//DTD SVG 20010904//EN"
 "http://www.w3.org/TR/2001/REC-SVG-20010904/DTD/svg10.dtd">
<svg version="1.0" xmlns="http://www.w3.org/2000/svg"
 width="32.000000pt" height="32.000000pt" viewBox="0 0 32.000000 32.000000"
 preserveAspectRatio="xMidYMid meet">
<metadata>
Created by potrace 1.16, written by Peter Selinger 2001-2019
</metadata>
<g transform="translate(0.000000,32.000000) scale(0.100000,-0.100000)"
fill="#000000" stroke="none">
<path fill="#000000" stroke="none" d="M0 160 l0 -160 160 0 160 0 0 160 0
160 -160 0 -160 0 0 -160z"/>
<path fill="#ffffff" stroke="none" d="M99 278 c-9 -16 -14 -19 -17 -9 -2 7 2
17 9 22 20 13 21 11 8 -13z"/>
<path fill="#ffffff" stroke="none" d="M230 290 c0 -5 -2 -10 -4 -10 -3 0 -8
5 -11 10 -3 6 -1 10 4 10 6 0 11 -4 11 -10z"/>
<path fill="#ffffff" stroke="none" d="M150 212 c0 -5 7 -9 15 -9 8 0 15 5 15
10 0 5 6 4 13 -2 8 -6 17 -8 20 -5 9 9 20 -43 12 -56 -3 -5 -11 -8 -16 -5 -5
4 -9 -3 -9 -14 0 -22 -22 -41 -27 -24 -2 6 -19 9 -40 6 -29 -4 -35 -2 -30 10
4 11 1 14 -9 10 -11 -4 -12 0 -5 18 5 13 15 23 21 21 8 -2 11 4 7 17 -4 18 4
28 26 30 4 1 7 -3 7 -7z"/>
<path fill="#ffffff" stroke="none" d="M295 190 c3 -6 -1 -7 -9 -4 -18 7 -21
14 -7 14 6 0 13 -4 16 -10z"/>
<path fill="#ffffff" stroke="none" d="M50 124 c0 -2 -7 -4 -15 -4 -8 0 -15 4
-15 10 0 5 7 7 15 4 8 -4 15 -8 15 -10z"/>
<path fill="#ffffff" stroke="none" d="M50 86 c0 -3 -4 -8 -10 -11 -5 -3 -10
-1 -10 4 0 6 5 11 10 11 6 0 10 -2 10 -4z"/>
<path fill="#ffffff" stroke="none" d="M235 60 c-3 -5 -11 -10 -16 -10 -6 0
-7 5 -4 10 3 6 11 10 16 10 6 0 7 -4 4 -10z"/>
</g>
</svg>
