<?xml version="1.0" standalone="no"?>
<!DOCTYPE svg PUBLIC "-//W3C//DTD SVG 20010904//EN"
 "http://www.w3.org/TR/2001/REC-SVG-20010904/DTD/svg10.dtd">
<svg version="1.0" xmlns="http://www.w3.org/2000/svg"
 width="32.000000pt" height="32.000000pt" viewBox="0 0 32.000000 32.000000"
 preserveAspectRatio="xMidYMid meet">
<metadata>
Created by potrace 1.16, written by Peter Selinger 2001-2019
</metadata>
<g transform="translate(0.000000,32.000000) scale(0.100000,-0.100000)"
fill="#000000" stroke="none">
<path fill="#000000" stroke="none" d="M0 160 l0 -160 160 0 160 0 0 160 0
160 -160 0 -160 0 0 -160z"/>
<path fill="#ffffff" stroke="none" d="M115 291 c3 -5 1 -12 -5 -16 -6 -4 -8
-11 -5 -16 4 -5 -1 -9 -9 -9 -9 0 -16 8 -16 18 0 29 22 43 35 23z"/>
<path fill="#ffffff" stroke="none" d="M237 285 c0 -11 -4 -12 -14 -4 -7 6
-13 13 -13 15 0 2 6 4 13 4 8 0 14 -7 14 -15z"/>
<path fill="#ffffff" stroke="none" d="M60 266 c0 -3 -4 -8 -10 -11 -5 -3 -10
-1 -10 4 0 6 5 11 10 11 6 0 10 -2 10 -4z"/>
<path fill="#ffffff" stroke="none" d="M40 215 c0 -8 -2 -15 -4 -15 -2 0 -6 7
-10 15 -3 8 -1 15 4 15 6 0 10 -7 10 -15z"/>
<path fill="#ffffff" stroke="none" d="M170 221 c0 -4 12 -7 26 -5 21 2 25 -1
21 -16 -3 -13 0 -17 9 -13 10 4 12 0 8 -11 -4 -11 0 -16 12 -17 15 0 13 -3 -7
-12 -15 -7 -26 -16 -26 -22 1 -16 -52 -42 -61 -30 -4 6 -17 10 -30 9 -18 -1
-23 3 -19 17 3 12 0 16 -9 12 -10 -4 -12 0 -8 11 4 11 0 16 -12 17 -14 0 -10
5 11 14 17 8 26 14 20 15 -5 0 1 10 14 20 24 21 51 26 51 11z"/>
<path fill="#ffffff" stroke="none" d="M310 221 c0 -6 -5 -13 -11 -17 -8 -4
-7 -9 2 -15 8 -5 10 -9 4 -9 -5 0 -17 5 -25 10 -10 6 -11 10 -2 10 6 0 11 3
11 8 -3 14 1 22 11 22 6 0 10 -4 10 -9z"/>
<path fill="#ffffff" stroke="none" d="M60 118 c0 -11 -43 7 -48 20 -2 7 5 7
22 -1 14 -7 26 -15 26 -19z"/>
<path fill="#ffffff" stroke="none" d="M53 69 c-23 -8 -27 -4 -19 17 5 14 9
14 22 3 14 -12 14 -14 -3 -20z"/>
<path fill="#ffffff" stroke="none" d="M238 57 c2 -10 -3 -17 -12 -17 -9 0
-14 8 -13 20 2 24 21 21 25 -3z"/>
<path fill="#ffffff" stroke="none" d="M190 20 c0 -5 -5 -10 -11 -10 -5 0 -7
5 -4 10 3 6 8 10 11 10 2 0 4 -4 4 -10z"/>
</g>
</svg>
