<?xml version="1.0" standalone="no"?>
<!DOCTYPE svg PUBLIC "-//W3C//DTD SVG 20010904//EN"
 "http://www.w3.org/TR/2001/REC-SVG-20010904/DTD/svg10.dtd">
<svg version="1.0" xmlns="http://www.w3.org/2000/svg"
 width="32.000000pt" height="32.000000pt" viewBox="0 0 32.000000 32.000000"
 preserveAspectRatio="xMidYMid meet">
<metadata>
Created by potrace 1.16, written by Peter Selinger 2001-2019
</metadata>
<g transform="translate(0.000000,32.000000) scale(0.100000,-0.100000)"
fill="#000000" stroke="none">
<path fill="#000000" stroke="none" d="M200 255 c-3 -25 -3 -26 6 -49 5 -14 4
-17 -4 -12 -8 5 -12 -2 -12 -21 0 -15 -4 -34 -9 -41 -9 -15 -45 -12 -78 6 -28
15 -36 15 -30 0 2 -7 9 -13 15 -13 6 0 21 -16 34 -35 18 -27 31 -35 53 -35 28
0 31 4 39 47 6 29 5 70 -1 110 -6 34 -11 54 -13 43z"/>
</g>
</svg>
