<?xml version="1.0" standalone="no"?>
<!DOCTYPE svg PUBLIC "-//W3C//DTD SVG 20010904//EN"
 "http://www.w3.org/TR/2001/REC-SVG-20010904/DTD/svg10.dtd">
<svg version="1.0" xmlns="http://www.w3.org/2000/svg"
 width="32.000000pt" height="32.000000pt" viewBox="0 0 32.000000 32.000000"
 preserveAspectRatio="xMidYMid meet">
<metadata>
Created by potrace 1.16, written by Peter Selinger 2001-2019
</metadata>
<g transform="translate(0.000000,32.000000) scale(0.100000,-0.100000)"
fill="#000000" stroke="none">
<path fill="#000000" stroke="none" d="M192 268 c-5 -7 -12 -39 -14 -70 -3
-32 -8 -61 -11 -65 -4 -3 -22 2 -41 12 -36 19 -66 15 -66 -9 0 -23 95 -116
118 -116 40 0 64 114 46 223 -7 39 -15 45 -32 25z"/>
<path fill="#ffffff" stroke="none" d="M219 163 c2 -123 -32 -145 -106 -68
-24 25 -43 48 -43 50 0 11 34 4 61 -12 38 -23 51 -10 56 59 9 109 30 90 32
-29z"/>
</g>
</svg>
