<?xml version="1.0" standalone="no"?>
<!DOCTYPE svg PUBLIC "-//W3C//DTD SVG 20010904//EN"
 "http://www.w3.org/TR/2001/REC-SVG-20010904/DTD/svg10.dtd">
<svg version="1.0" xmlns="http://www.w3.org/2000/svg"
 width="32.000000pt" height="32.000000pt" viewBox="0 0 32.000000 32.000000"
 preserveAspectRatio="xMidYMid meet">
<metadata>
Created by potrace 1.16, written by Peter Selinger 2001-2019
</metadata>
<g transform="translate(0.000000,32.000000) scale(0.100000,-0.100000)"
fill="#000000" stroke="none">
<path fill="#000000" stroke="none" d="M0 229 c0 -66 3 -89 12 -88 26 4 68
-14 68 -29 0 -21 6 -13 14 20 6 25 4 26 -32 25 -20 -1 -36 1 -34 6 1 4 2 13 2
20 0 8 11 19 25 25 21 10 25 9 25 -3 0 -8 -9 -15 -21 -15 -11 0 -17 -5 -14
-10 4 -7 17 -4 35 7 26 15 28 19 15 33 -8 9 -15 21 -15 26 0 5 5 2 10 -6 9
-13 10 -13 11 0 1 8 1 18 0 23 -3 19 28 4 32 -15 4 -22 4 -22 6 -2 1 21 41 43
41 23 0 -5 -6 -9 -12 -9 -8 -1 -6 -6 5 -14 9 -7 17 -18 17 -25 0 -15 27 -14
33 2 3 6 6 2 6 -9 1 -24 21 -44 48 -49 10 -1 17 -8 16 -14 -2 -6 2 -11 8 -11
5 0 7 -5 4 -11 -5 -6 -12 -4 -22 8 -8 10 -12 12 -8 6 3 -7 1 -13 -4 -13 -6 0
-11 7 -11 16 0 14 -2 14 -16 3 -10 -8 -12 -15 -5 -17 13 -4 15 -32 3 -32 -4 0
-13 5 -18 10 -8 8 -15 6 -24 -6 -12 -14 -12 -17 3 -25 30 -17 18 -28 -24 -24
-47 4 -48 5 -52 31 -1 10 -7 19 -12 19 -6 0 -9 -3 -8 -7 5 -14 -26 -9 -34 5
-11 18 -43 29 -43 15 0 -7 -4 -7 -14 1 -12 10 -14 2 -15 -54 l0 -65 159 0 160
0 0 160 0 159 -160 0 -160 0 0 -90z"/>
<path fill="#ffffff" stroke="none" d="M262 241 c-17 -10 -62 -2 -62 11 0 6 9
8 20 5 11 -3 23 -1 26 5 4 6 10 6 18 -2 8 -8 7 -13 -2 -19z"/>
<path fill="#ffffff" stroke="none" d="M257 86 c30 -5 25 -17 -6 -14 -19 2
-37 9 -39 17 -3 10 0 12 14 7 11 -5 24 -9 31 -10z"/>
<path fill="#ffffff" stroke="none" d="M87 54 c-3 -3 -12 -4 -19 -1 -8 3 -5 6
6 6 11 1 17 -2 13 -5z"/>
<path fill="#ffffff" stroke="none" d="M45 20 c3 -5 1 -10 -4 -10 -6 0 -11 5
-11 10 0 6 2 10 4 10 3 0 8 -4 11 -10z"/>
<path fill="#000000" stroke="none" d="M100 180 c0 -5 5 -10 11 -10 5 0 7 5 4
10 -3 6 -8 10 -11 10 -2 0 -4 -4 -4 -10z"/>
</g>
</svg>
