<?xml version="1.0" standalone="no"?>
<!DOCTYPE svg PUBLIC "-//W3C//DTD SVG 20010904//EN"
 "http://www.w3.org/TR/2001/REC-SVG-20010904/DTD/svg10.dtd">
<svg version="1.0" xmlns="http://www.w3.org/2000/svg"
 width="32.000000pt" height="32.000000pt" viewBox="0 0 32.000000 32.000000"
 preserveAspectRatio="xMidYMid meet">
<metadata>
Created by potrace 1.16, written by Peter Selinger 2001-2019
</metadata>
<g transform="translate(0.000000,32.000000) scale(0.100000,-0.100000)"
fill="#000000" stroke="none">
<path fill="#000000" stroke="none" d="M132 245 c-10 -12 -10 -15 0 -15 8 -1
5 -7 -7 -16 -11 -8 -26 -12 -34 -9 -12 5 -12 3 0 -11 11 -13 11 -17 -4 -25
-14 -8 -14 -13 -5 -29 9 -15 16 -16 31 -8 14 7 17 7 13 -1 -4 -6 -4 -11 1 -12
14 -1 38 -7 53 -13 16 -7 46 43 32 53 -10 8 -9 27 2 38 5 4 7 3 3 -2 -3 -7 4
-11 18 -11 21 0 26 9 7 12 -20 2 -42 18 -42 29 0 8 -5 17 -12 21 -7 5 -9 2 -4
-7 4 -8 1 -6 -7 4 -17 21 -28 21 -45 2z"/>
<path fill="#ffffff" stroke="none" d="M150 205 c0 -2 -9 -9 -20 -15 -12 -6
-20 -7 -20 -1 0 5 8 12 18 14 9 3 18 5 20 6 1 0 2 -1 2 -4z"/>
</g>
</svg>
