<?xml version="1.0" standalone="no"?>
<!DOCTYPE svg PUBLIC "-//W3C//DTD SVG 20010904//EN"
 "http://www.w3.org/TR/2001/REC-SVG-20010904/DTD/svg10.dtd">
<svg version="1.0" xmlns="http://www.w3.org/2000/svg"
 width="32.000000pt" height="32.000000pt" viewBox="0 0 32.000000 32.000000"
 preserveAspectRatio="xMidYMid meet">
<metadata>
Created by potrace 1.16, written by Peter Selinger 2001-2019
</metadata>
<g transform="translate(0.000000,32.000000) scale(0.100000,-0.100000)"
fill="#000000" stroke="none">
<path fill="#000000" stroke="none" d="M40 264 c0 -8 5 -12 10 -9 6 4 8 11 5
16 -9 14 -15 11 -15 -7z"/>
<path fill="#000000" stroke="none" d="M133 248 c-4 -7 -8 -17 -8 -23 0 -5
-10 -11 -22 -13 -34 -5 -39 -47 -8 -83 14 -17 25 -35 25 -40 0 -6 4 -8 10 -4
5 3 7 12 3 20 -4 11 -1 13 11 9 9 -3 13 -11 9 -18 -4 -7 -1 -7 9 1 8 7 18 10
21 6 4 -3 13 0 22 7 12 10 13 16 3 28 -11 13 -11 14 1 7 11 -6 13 -3 9 13 -4
12 -2 25 3 28 5 3 9 1 9 -5 0 -14 27 -3 34 14 3 9 0 12 -10 8 -24 -9 -48 5
-35 21 13 15 5 27 -14 20 -7 -3 -16 -1 -20 5 -9 15 -42 14 -52 -1z"/>
<path fill="#000000" stroke="none" d="M20 160 c-13 -8 -12 -10 3 -10 9 0 17
5 17 10 0 12 -1 12 -20 0z"/>
<path fill="#000000" stroke="none" d="M140 49 c0 -5 5 -7 10 -4 6 3 10 8 10
11 0 2 -4 4 -10 4 -5 0 -10 -5 -10 -11z"/>
</g>
</svg>
