<?xml version="1.0" standalone="no"?>
<!DOCTYPE svg PUBLIC "-//W3C//DTD SVG 20010904//EN"
 "http://www.w3.org/TR/2001/REC-SVG-20010904/DTD/svg10.dtd">
<svg version="1.0" xmlns="http://www.w3.org/2000/svg"
 width="32.000000pt" height="32.000000pt" viewBox="0 0 32.000000 32.000000"
 preserveAspectRatio="xMidYMid meet">
<metadata>
Created by potrace 1.16, written by Peter Selinger 2001-2019
</metadata>
<g transform="translate(0.000000,32.000000) scale(0.100000,-0.100000)"
fill="#000000" stroke="none">
<path fill="#000000" stroke="none" d="M0 270 c0 -33 4 -50 13 -51 6 0 20 -2
29 -4 27 -5 30 10 7 39 -22 28 -17 55 6 36 7 -6 29 -8 49 -6 44 5 47 -8 6 -23
-32 -11 -39 -21 -16 -21 22 0 56 33 61 58 4 21 1 22 -76 22 l-79 0 0 -50z"/>
<path fill="#000000" stroke="none" d="M176 305 c-6 -16 2 -18 73 -15 29 1 41
-2 36 -9 -3 -6 -10 -9 -14 -6 -5 2 -6 -6 -4 -19 4 -18 10 -22 26 -18 14 3 18
1 13 -6 -4 -7 -16 -12 -27 -12 -10 0 -19 -5 -19 -11 0 -5 -5 -7 -12 -3 -6 4
-8 3 -5 -4 4 -5 19 -9 35 -7 15 1 30 -2 34 -9 4 -6 8 22 8 62 l0 72 -69 0
c-52 0 -70 -4 -75 -15z"/>
<path fill="#000000" stroke="none" d="M13 193 c-15 -5 -18 -43 -3 -43 12 0
32 38 23 43 -5 2 -14 2 -20 0z"/>
<path fill="#000000" stroke="none" d="M310 159 c0 -5 -10 -9 -22 -7 -15 2
-23 -2 -23 -11 0 -8 12 -16 26 -18 23 -3 27 0 27 22 0 14 -2 25 -4 25 -2 0 -4
-5 -4 -11z"/>
<path fill="#000000" stroke="none" d="M20 140 c0 -13 18 -22 24 -11 3 5 -1
11 -9 15 -8 3 -15 1 -15 -4z"/>
<path fill="#000000" stroke="none" d="M1 73 l-1 -73 160 0 160 0 0 54 c0 49
-2 54 -20 49 -11 -3 -20 -9 -20 -14 0 -5 -7 -9 -17 -9 -15 0 -15 -1 0 -18 25
-27 21 -30 -22 -19 -31 8 -43 8 -56 -3 -18 -15 -57 -22 -71 -12 -18 13 -36 60
-28 74 4 7 -2 5 -13 -5 -18 -16 -21 -16 -27 -2 -3 9 -10 13 -16 10 -6 -3 -14
4 -19 17 -6 17 -9 3 -10 -49z"/>
</g>
</svg>
