<?xml version="1.0" standalone="no"?>
<!DOCTYPE svg PUBLIC "-//W3C//DTD SVG 20010904//EN"
 "http://www.w3.org/TR/2001/REC-SVG-20010904/DTD/svg10.dtd">
<svg version="1.0" xmlns="http://www.w3.org/2000/svg"
 width="32.000000pt" height="32.000000pt" viewBox="0 0 32.000000 32.000000"
 preserveAspectRatio="xMidYMid meet">
<metadata>
Created by potrace 1.16, written by Peter Selinger 2001-2019
</metadata>
<g transform="translate(0.000000,32.000000) scale(0.100000,-0.100000)"
fill="#000000" stroke="none">
<path fill="#000000" stroke="none" d="M0 296 c0 -13 6 -26 13 -29 9 -3 9 -11
0 -35 -12 -34 -9 -40 11 -19 13 13 13 29 1 58 -3 10 1 23 10 33 15 15 14 16
-9 16 -21 0 -26 -5 -26 -24z"/>
<path fill="#000000" stroke="none" d="M93 304 c0 -9 5 -10 19 -3 10 5 18 12
18 14 0 2 -8 3 -18 2 -10 0 -19 -7 -19 -13z"/>
<path fill="#000000" stroke="none" d="M160 306 c0 -8 -6 -16 -12 -19 -10 -3
-10 -7 0 -19 16 -20 -5 -39 -36 -31 -13 3 -22 1 -22 -6 0 -7 5 -9 13 -5 6 4 4
-2 -6 -14 -11 -11 -25 -18 -32 -16 -17 7 -27 -23 -15 -45 6 -12 5 -22 -1 -28
-8 -8 -7 -13 1 -18 6 -4 18 1 25 11 14 18 14 18 16 -6 3 -51 4 -55 18 -52 8 2
11 -3 8 -11 -8 -20 43 -20 65 0 10 9 25 13 34 9 10 -4 24 2 38 17 25 27 27 53
3 49 -9 -2 -17 1 -17 6 0 19 30 34 54 28 23 -6 25 -4 23 33 -1 22 -5 37 -9 35
-4 -3 -5 -11 -2 -18 3 -7 -1 -18 -9 -24 -18 -15 -64 5 -71 32 -2 10 -9 15 -15
12 -5 -4 -12 -2 -16 4 -7 11 39 25 54 15 6 -3 11 2 11 13 0 27 -9 32 -36 22
-17 -7 -27 -5 -39 6 -8 9 -13 20 -10 25 4 5 1 9 -4 9 -6 0 -11 -6 -11 -14z"/>
<path fill="#ffffff" stroke="none" d="M250 106 c0 -3 -4 -8 -10 -11 -5 -3
-10 -1 -10 4 0 6 5 11 10 11 6 0 10 -2 10 -4z"/>
<path fill="#ffffff" stroke="none" d="M215 80 c3 -6 -1 -7 -9 -4 -18 7 -21
14 -7 14 6 0 13 -4 16 -10z"/>
<path fill="#000000" stroke="none" d="M197 314 c-15 -16 6 -21 45 -12 38 8
45 7 60 -13 l18 -21 0 26 c0 25 -2 26 -58 26 -32 0 -62 -3 -65 -6z"/>
<path fill="#000000" stroke="none" d="M40 277 c0 -4 4 -6 9 -3 5 3 11 -3 14
-14 5 -18 7 -19 34 -5 15 8 26 18 23 22 -7 10 -80 11 -80 0z"/>
<path fill="#000000" stroke="none" d="M73 215 c0 -8 4 -12 9 -9 5 3 6 10 3
15 -9 13 -12 11 -12 -6z"/>
<path fill="#000000" stroke="none" d="M3 127 c0 -8 6 -14 14 -14 9 0 10 4 2
14 -6 7 -12 13 -14 13 -1 0 -2 -6 -2 -13z"/>
<path fill="#000000" stroke="none" d="M288 76 c-23 -10 -25 -13 -11 -22 14
-9 14 -11 -2 -28 -16 -16 -19 -16 -27 -2 -10 19 -34 21 -44 4 -4 -7 -3 -8 5
-4 6 4 14 0 17 -8 4 -11 19 -16 50 -16 l44 0 0 45 c0 25 -1 45 -2 44 -2 0 -15
-6 -30 -13z"/>
<path fill="#000000" stroke="none" d="M0 43 l0 -43 55 0 55 0 -11 26 c-16 43
-20 46 -40 28 -18 -16 -20 -15 -38 7 l-20 24 -1 -42z"/>
<path fill="#000000" stroke="none" d="M141 14 c12 -15 54 -20 45 -5 -3 5 -17
11 -31 13 -20 4 -23 3 -14 -8z"/>
</g>
</svg>
