<?xml version="1.0" standalone="no"?>
<!DOCTYPE svg PUBLIC "-//W3C//DTD SVG 20010904//EN"
 "http://www.w3.org/TR/2001/REC-SVG-20010904/DTD/svg10.dtd">
<svg version="1.0" xmlns="http://www.w3.org/2000/svg"
 width="32.000000pt" height="32.000000pt" viewBox="0 0 32.000000 32.000000"
 preserveAspectRatio="xMidYMid meet">
<metadata>
Created by potrace 1.16, written by Peter Selinger 2001-2019
</metadata>
<g transform="translate(0.000000,32.000000) scale(0.100000,-0.100000)"
fill="#000000" stroke="none">
<path fill="#000000" stroke="none" d="M146 271 c-4 -5 -2 -12 3 -15 5 -4 12
-2 15 3 4 5 2 12 -3 15 -5 4 -12 2 -15 -3z"/>
<path fill="#000000" stroke="none" d="M60 260 c0 -5 5 -10 11 -10 5 0 7 5 4
10 -3 6 -8 10 -11 10 -2 0 -4 -4 -4 -10z"/>
<path fill="#000000" stroke="none" d="M95 260 c3 -5 8 -10 11 -10 2 0 4 5 4
10 0 6 -5 10 -11 10 -5 0 -7 -4 -4 -10z"/>
<path fill="#000000" stroke="none" d="M201 233 c-8 -15 -13 -16 -30 -6 -16
10 -20 9 -25 -3 -4 -10 -13 -13 -26 -9 -12 4 -20 2 -20 -5 0 -6 -11 -16 -25
-22 -40 -18 -27 -42 25 -48 34 -4 45 -9 44 -22 -1 -9 5 -19 12 -22 8 -3 14 -1
14 5 0 5 11 7 25 3 29 -7 35 12 6 21 -24 7 -36 35 -15 35 8 0 13 4 9 9 -3 5 4
13 16 16 15 5 18 10 10 18 -7 7 -7 14 0 23 6 8 7 14 0 18 -5 4 -14 -2 -20 -11z"/>
<path fill="#000000" stroke="none" d="M5 160 c-3 -5 -1 -10 4 -10 6 0 11 5
11 10 0 6 -2 10 -4 10 -3 0 -8 -4 -11 -10z"/>
<path fill="#000000" stroke="none" d="M234 82 c-9 -5 -8 -10 1 -19 11 -10 13
-9 12 7 -1 11 -1 20 -2 20 0 0 -5 -4 -11 -8z"/>
</g>
</svg>
