<?xml version="1.0" standalone="no"?>
<!DOCTYPE svg PUBLIC "-//W3C//DTD SVG 20010904//EN"
 "http://www.w3.org/TR/2001/REC-SVG-20010904/DTD/svg10.dtd">
<svg version="1.0" xmlns="http://www.w3.org/2000/svg"
 width="32.000000pt" height="32.000000pt" viewBox="0 0 32.000000 32.000000"
 preserveAspectRatio="xMidYMid meet">
<metadata>
Created by potrace 1.16, written by Peter Selinger 2001-2019
</metadata>
<g transform="translate(0.000000,32.000000) scale(0.100000,-0.100000)"
fill="#000000" stroke="none">
<path fill="#000000" stroke="none" d="M184 206 c-10 -26 4 -48 28 -44 17 2
23 10 23 28 0 18 -6 26 -23 28 -13 2 -25 -3 -28 -12z"/>
<path fill="#000000" stroke="none" d="M134 175 c-9 -23 3 -45 25 -45 27 0 34
15 19 40 -15 24 -36 26 -44 5z"/>
<path fill="#000000" stroke="none" d="M90 160 c0 -5 5 -10 10 -10 6 0 10 5
10 10 0 6 -4 10 -10 10 -5 0 -10 -4 -10 -10z"/>
</g>
</svg>
