<?xml version="1.0" standalone="no"?>
<!DOCTYPE svg PUBLIC "-//W3C//DTD SVG 20010904//EN"
 "http://www.w3.org/TR/2001/REC-SVG-20010904/DTD/svg10.dtd">
<svg version="1.0" xmlns="http://www.w3.org/2000/svg"
 width="32.000000pt" height="32.000000pt" viewBox="0 0 32.000000 32.000000"
 preserveAspectRatio="xMidYMid meet">
<metadata>
Created by potrace 1.16, written by Peter Selinger 2001-2019
</metadata>
<g transform="translate(0.000000,32.000000) scale(0.100000,-0.100000)"
fill="#000000" stroke="none">
<path fill="#000000" stroke="none" d="M0 280 c0 -31 3 -38 15 -34 11 5 13 2
9 -10 -3 -9 -9 -14 -13 -11 -4 2 -8 -48 -9 -111 l-2 -114 55 0 c35 0 54 4 50
10 -3 6 -13 10 -21 10 -10 0 -12 5 -8 13 6 9 5 9 -8 0 -18 -15 -29 -7 -21 15
5 11 2 14 -8 10 -9 -4 -14 2 -15 18 -2 25 0 25 51 -9 l30 -21 -24 27 c-14 15
-21 27 -16 27 5 0 4 5 -3 12 -18 18 -14 32 5 17 15 -12 16 -12 10 4 -4 10 -7
23 -7 29 0 6 -6 6 -15 -2 -8 -7 -15 -19 -15 -28 0 -24 -11 -7 -14 22 -2 15 0
29 5 32 4 2 5 12 2 21 -4 10 -2 14 4 10 6 -4 13 0 17 8 3 8 1 15 -4 15 -15 0
9 44 31 58 18 12 19 11 10 -7 -9 -16 -8 -20 6 -20 10 0 32 -2 48 -6 l30 -5
-29 14 c-34 15 -19 31 20 22 14 -4 23 -3 20 2 -7 12 57 7 83 -7 25 -14 49 -53
29 -49 -9 2 -12 -6 -9 -22 l3 -25 -22 20 -23 20 12 -22 c16 -31 14 -38 -6 -22
-17 13 -17 13 0 -13 9 -15 18 -40 18 -55 2 -24 2 -25 6 -5 2 12 9 20 14 17 5
-4 9 2 10 12 1 13 3 10 9 -7 4 -16 8 13 8 78 2 97 1 102 -19 102 -19 0 -20 -2
-8 -17 13 -17 13 -17 -13 0 -32 20 -186 24 -220 6 -15 -8 -19 -8 -14 0 5 7 -2
11 -18 11 -24 0 -26 -4 -26 -40z"/>
<path fill="#000000" stroke="none" d="M220 276 c0 -2 9 -6 20 -9 11 -3 18 -1
14 4 -5 9 -34 13 -34 5z"/>
<path fill="#000000" stroke="none" d="M270 260 c0 -5 5 -10 11 -10 5 0 7 5 4
10 -3 6 -8 10 -11 10 -2 0 -4 -4 -4 -10z"/>
<path fill="#000000" stroke="none" d="M115 230 c-3 -6 1 -7 9 -4 18 7 21 14
7 14 -6 0 -13 -4 -16 -10z"/>
<path fill="#000000" stroke="none" d="M110 130 c0 -5 5 -10 11 -10 5 0 7 5 4
10 -3 6 -8 10 -11 10 -2 0 -4 -4 -4 -10z"/>
<path fill="#000000" stroke="none" d="M309 105 c-1 -3 -3 -9 -4 -15 -1 -5 -4
-13 -5 -17 -1 -5 -2 -11 -2 -14 2 -11 -32 -36 -58 -44 -24 -7 -24 -7 -7 12 25
29 21 36 -8 11 -13 -12 -39 -23 -57 -25 -29 -3 -31 -2 -14 10 15 11 16 16 6
22 -9 6 -11 4 -5 -5 6 -10 3 -12 -12 -8 -15 4 -20 1 -19 -11 2 -13 19 -16 99
-19 l97 -3 0 56 c0 30 -2 55 -5 55 -3 0 -6 -2 -6 -5z"/>
<path fill="#000000" stroke="none" d="M190 80 c-9 -6 -10 -10 -3 -10 6 0 15
5 18 10 8 12 4 12 -15 0z"/>
</g>
</svg>
