<?xml version="1.0" standalone="no"?>
<!DOCTYPE svg PUBLIC "-//W3C//DTD SVG 20010904//EN"
 "http://www.w3.org/TR/2001/REC-SVG-20010904/DTD/svg10.dtd">
<svg version="1.0" xmlns="http://www.w3.org/2000/svg"
 width="32.000000pt" height="32.000000pt" viewBox="0 0 32.000000 32.000000"
 preserveAspectRatio="xMidYMid meet">
<metadata>
Created by potrace 1.16, written by Peter Selinger 2001-2019
</metadata>
<g transform="translate(0.000000,32.000000) scale(0.100000,-0.100000)"
fill="#000000" stroke="none">
<path fill="#000000" stroke="none" d="M159 271 c-24 -14 -33 -25 -32 -40 2
-12 -3 -21 -10 -22 -6 0 -3 -4 8 -9 11 -5 14 -9 7 -9 -7 -1 -23 4 -35 10 -12
7 -19 8 -15 4 4 -5 -6 -18 -22 -30 -16 -12 -27 -25 -23 -28 3 -4 12 -2 18 3 9
7 16 6 24 -4 13 -15 5 -46 -12 -46 -6 0 -1 -7 11 -16 12 -8 27 -12 32 -9 6 3
10 2 10 -3 0 -6 -6 -12 -14 -15 -20 -8 -13 -40 8 -43 15 -2 15 0 4 14 -10 12
-10 14 0 8 6 -4 12 -3 12 2 0 6 9 8 20 5 23 -6 28 15 5 23 -17 7 -20 30 -5 39
6 4 7 -1 4 -12 -5 -16 -4 -16 8 -3 14 16 52 24 42 9 -3 -5 4 -9 15 -9 28 0 22
49 -9 65 -20 10 -20 13 -5 19 9 3 21 3 26 0 6 -3 16 0 24 6 8 6 19 9 26 5 8
-6 8 -2 0 14 -12 22 -31 29 -31 11 0 -5 -7 -10 -15 -10 -21 0 -19 28 3 33 16
4 16 5 0 6 -10 0 -18 7 -18 15 0 29 -25 36 -61 17z"/>
<path fill="#000000" stroke="none" d="M20 100 c0 -5 5 -10 11 -10 5 0 7 5 4
10 -3 6 -8 10 -11 10 -2 0 -4 -4 -4 -10z"/>
<path fill="#000000" stroke="none" d="M256 55 c-3 -8 -1 -15 4 -15 6 0 10 7
10 15 0 8 -2 15 -4 15 -2 0 -6 -7 -10 -15z"/>
<path fill="#000000" stroke="none" d="M175 30 c-3 -5 -1 -10 4 -10 6 0 11 5
11 10 0 6 -2 10 -4 10 -3 0 -8 -4 -11 -10z"/>
</g>
</svg>
