<?xml version="1.0" standalone="no"?>
<!DOCTYPE svg PUBLIC "-//W3C//DTD SVG 20010904//EN"
 "http://www.w3.org/TR/2001/REC-SVG-20010904/DTD/svg10.dtd">
<svg version="1.0" xmlns="http://www.w3.org/2000/svg"
 width="32.000000pt" height="32.000000pt" viewBox="0 0 32.000000 32.000000"
 preserveAspectRatio="xMidYMid meet">
<metadata>
Created by potrace 1.16, written by Peter Selinger 2001-2019
</metadata>
<g transform="translate(0.000000,32.000000) scale(0.100000,-0.100000)"
fill="#000000" stroke="none">
<path fill="#000000" stroke="none" d="M143 257 c-13 -5 -23 -16 -23 -23 0 -7
-9 -16 -20 -19 -11 -3 -21 -12 -22 -18 -4 -35 -2 -43 14 -58 13 -11 14 -19 6
-27 -8 -8 -4 -9 13 -6 19 5 21 4 9 -5 -11 -9 -4 -10 30 -5 58 8 83 29 69 56
-15 27 7 53 30 36 14 -10 14 -10 3 2 -7 8 -17 16 -22 16 -6 1 -13 2 -16 3 -4
0 -1 8 6 16 7 9 10 18 6 22 -3 3 -6 1 -6 -6 0 -7 -5 -9 -10 -6 -6 4 -7 12 -4
18 4 7 4 9 -1 5 -4 -4 -15 -4 -24 1 -9 5 -26 4 -38 -2z"/>
</g>
</svg>
