<?xml version="1.0" standalone="no"?>
<!DOCTYPE svg PUBLIC "-//W3C//DTD SVG 20010904//EN"
 "http://www.w3.org/TR/2001/REC-SVG-20010904/DTD/svg10.dtd">
<svg version="1.0" xmlns="http://www.w3.org/2000/svg"
 width="32.000000pt" height="32.000000pt" viewBox="0 0 32.000000 32.000000"
 preserveAspectRatio="xMidYMid meet">
<metadata>
Created by potrace 1.16, written by Peter Selinger 2001-2019
</metadata>
<g transform="translate(0.000000,32.000000) scale(0.100000,-0.100000)"
fill="#000000" stroke="none">
<path fill="#000000" stroke="none" d="M149 221 c-9 -9 -19 -24 -22 -35 -5
-11 -13 -16 -22 -12 -8 3 -15 1 -15 -4 0 -6 9 -10 19 -10 11 0 29 -12 40 -28
16 -21 20 -23 21 -9 0 10 8 17 19 17 25 0 45 26 36 47 -5 12 -9 14 -12 6 -3
-7 -9 -13 -14 -13 -6 0 -7 5 -4 10 3 6 2 10 -3 10 -5 0 -13 8 -18 19 -8 17
-10 17 -25 2z"/>
<path fill="#000000" stroke="none" d="M110 136 c0 -8 5 -18 10 -21 6 -3 10 1
10 9 0 8 -4 18 -10 21 -5 3 -10 -1 -10 -9z"/>
</g>
</svg>
