<?xml version="1.0" standalone="no"?>
<!DOCTYPE svg PUBLIC "-//W3C//DTD SVG 20010904//EN"
 "http://www.w3.org/TR/2001/REC-SVG-20010904/DTD/svg10.dtd">
<svg version="1.0" xmlns="http://www.w3.org/2000/svg"
 width="32.000000pt" height="32.000000pt" viewBox="0 0 32.000000 32.000000"
 preserveAspectRatio="xMidYMid meet">
<metadata>
Created by potrace 1.16, written by Peter Selinger 2001-2019
</metadata>
<g transform="translate(0.000000,32.000000) scale(0.100000,-0.100000)"
fill="#000000" stroke="none">
<path fill="#000000" stroke="none" d="M0 245 l0 -76 28 3 c15 2 32 12 37 23
6 10 19 22 30 25 11 3 20 12 20 20 0 9 9 15 23 14 25 -1 28 6 10 24 -9 9 -9
12 1 12 7 0 9 5 6 10 -11 17 5 11 39 -15 18 -14 36 -25 40 -25 13 0 65 -43 61
-50 -2 -4 2 -7 10 -7 12 0 15 14 15 58 l0 58 -160 0 -160 1 0 -75z"/>
<path fill="#ffffff" stroke="none" d="M296 265 c-2 -7 1 -18 7 -25 9 -10 9
-11 -3 -8 -8 3 -14 15 -13 27 2 15 -1 20 -9 15 -7 -4 -8 -3 -4 5 9 15 29 3 22
-14z"/>
<path fill="#ffffff" stroke="none" d="M88 262 c2 -7 -2 -11 -10 -10 -7 2 -12
-2 -11 -8 1 -6 -4 -11 -12 -11 -8 0 -12 4 -9 8 2 4 -1 9 -8 11 -6 2 -9 9 -5
15 9 14 49 11 55 -5z"/>
<path fill="#000000" stroke="none" d="M275 180 c-4 -6 -12 -7 -18 -3 -9 5 -9
3 0 -8 6 -8 10 -24 8 -34 -2 -11 -4 -23 -4 -26 -1 -3 -8 -6 -16 -6 -8 0 -12 4
-10 8 3 4 -4 5 -15 2 -11 -3 -26 -18 -34 -34 -10 -19 -11 -27 -3 -22 7 3 5 -2
-4 -13 -29 -34 -13 -44 67 -44 l74 0 0 91 c0 57 -4 88 -10 84 -5 -3 -10 -1
-10 4 0 14 -17 14 -25 1z"/>
<path fill="#ffffff" stroke="none" d="M300 159 c0 -5 -4 -9 -10 -9 -5 0 -10
7 -10 16 0 8 5 12 10 9 6 -3 10 -10 10 -16z"/>
<path fill="#000000" stroke="none" d="M234 154 c4 -24 22 -36 23 -15 1 11 -4
22 -12 24 -7 3 -12 0 -11 -9z"/>
<path fill="#000000" stroke="none" d="M0 140 c0 -13 18 -22 24 -11 3 5 -1 11
-9 15 -8 3 -15 1 -15 -4z"/>
<path fill="#000000" stroke="none" d="M43 134 c-7 -20 11 -38 32 -30 13 4 14
10 5 26 -13 24 -28 26 -37 4z"/>
<path fill="#000000" stroke="none" d="M0 55 l0 -55 44 0 c35 0 45 4 49 20 3
14 -1 24 -15 31 -17 9 -18 13 -7 20 15 9 10 11 -31 13 -14 1 -24 6 -22 14 1 6
-3 12 -8 12 -5 0 -10 -25 -10 -55z"/>
</g>
</svg>
