<?xml version="1.0" standalone="no"?>
<!DOCTYPE svg PUBLIC "-//W3C//DTD SVG 20010904//EN"
 "http://www.w3.org/TR/2001/REC-SVG-20010904/DTD/svg10.dtd">
<svg version="1.0" xmlns="http://www.w3.org/2000/svg"
 width="32.000000pt" height="32.000000pt" viewBox="0 0 32.000000 32.000000"
 preserveAspectRatio="xMidYMid meet">
<metadata>
Created by potrace 1.16, written by Peter Selinger 2001-2019
</metadata>
<g transform="translate(0.000000,32.000000) scale(0.100000,-0.100000)"
fill="#000000" stroke="none">
<path fill="#000000" stroke="none" d="M35 304 c-9 -9 -14 -23 -11 -30 3 -8 0
-11 -10 -7 -23 9 -20 -175 4 -202 44 -50 78 -65 146 -64 49 1 66 5 66 15 0 8
5 14 10 14 6 0 10 -4 10 -10 0 -21 28 3 48 41 23 43 30 133 12 144 -6 4 -7 12
-3 18 22 35 -4 93 -38 84 -10 -3 -22 -1 -25 4 -3 5 -47 9 -99 9 -73 0 -97 -4
-110 -16z"/>
</g>
</svg>
