<?xml version="1.0" standalone="no"?>
<!DOCTYPE svg PUBLIC "-//W3C//DTD SVG 20010904//EN"
 "http://www.w3.org/TR/2001/REC-SVG-20010904/DTD/svg10.dtd">
<svg version="1.0" xmlns="http://www.w3.org/2000/svg"
 width="32.000000pt" height="32.000000pt" viewBox="0 0 32.000000 32.000000"
 preserveAspectRatio="xMidYMid meet">
<metadata>
Created by potrace 1.16, written by Peter Selinger 2001-2019
</metadata>
<g transform="translate(0.000000,32.000000) scale(0.100000,-0.100000)"
fill="#000000" stroke="none">
<path fill="#000000" stroke="none" d="M144 256 c-12 -12 -29 -34 -39 -49 -10
-15 -20 -25 -23 -22 -3 3 -15 -1 -26 -8 -12 -8 -29 -13 -38 -11 -14 2 -15 -1
-5 -17 12 -20 34 -20 29 0 -3 16 8 14 32 -7 20 -16 20 -16 6 2 -14 18 -14 18
7 6 17 -11 19 -18 12 -32 -6 -10 -15 -15 -21 -12 -7 5 -8 2 -4 -5 6 -9 12 -9
25 3 30 27 33 4 4 -28 -15 -17 -21 -25 -14 -19 10 9 18 9 27 2 7 -6 19 -7 26
-3 9 6 8 10 -7 14 -19 5 -19 6 4 30 13 14 21 19 17 13 -4 -7 -3 -13 3 -13 6 0
8 -8 5 -17 -3 -10 2 -6 10 8 8 14 27 34 42 44 21 13 24 19 13 26 -12 7 -11 9
1 10 8 1 19 1 23 0 4 -1 0 10 -9 24 -9 14 -20 22 -25 19 -5 -3 -9 0 -9 6 0 6
-6 8 -12 4 -7 -4 -5 2 5 13 16 19 16 20 -5 18 -13 -1 -25 3 -28 10 -3 8 -12 5
-26 -9z"/>
<path fill="#ffffff" stroke="none" d="M235 182 c-3 -3 -11 0 -18 7 -9 10 -8
11 6 5 10 -3 15 -9 12 -12z"/>
<path fill="#000000" stroke="none" d="M60 244 c0 -8 6 -11 15 -8 8 4 15 9 15
13 0 4 -7 8 -15 8 -8 0 -15 -6 -15 -13z"/>
<path fill="#000000" stroke="none" d="M278 148 c-9 -5 -6 -7 9 -5 12 2 25 6
28 8 8 9 -23 6 -37 -3z"/>
<path fill="#000000" stroke="none" d="M231 121 c-1 -8 -7 -11 -17 -7 -14 5
-15 4 -4 -9 15 -18 36 -5 27 17 -4 11 -6 11 -6 -1z"/>
</g>
</svg>
