<?xml version="1.0" standalone="no"?>
<!DOCTYPE svg PUBLIC "-//W3C//DTD SVG 20010904//EN"
 "http://www.w3.org/TR/2001/REC-SVG-20010904/DTD/svg10.dtd">
<svg version="1.0" xmlns="http://www.w3.org/2000/svg"
 width="32.000000pt" height="32.000000pt" viewBox="0 0 32.000000 32.000000"
 preserveAspectRatio="xMidYMid meet">
<metadata>
Created by potrace 1.16, written by Peter Selinger 2001-2019
</metadata>
<g transform="translate(0.000000,32.000000) scale(0.100000,-0.100000)"
fill="#000000" stroke="none">
<path fill="#000000" stroke="none" d="M1 163 l-1 -163 160 0 160 0 0 160 0
160 -49 0 c-44 0 -49 -2 -46 -20 2 -11 6 -24 10 -29 10 -18 -16 -23 -28 -6
-12 15 -13 14 -14 -4 -1 -12 7 -26 18 -31 11 -6 17 -15 14 -20 -7 -11 30 -32
39 -23 11 11 7 23 -8 23 -7 0 -19 6 -25 14 -10 12 -7 18 13 31 14 10 26 24 26
32 0 8 6 13 12 11 16 -6 23 -48 9 -48 -15 0 -14 -27 2 -33 8 -3 3 -13 -15 -30
-35 -33 -35 -45 2 -85 34 -37 37 -47 15 -56 -9 -3 -15 0 -15 9 0 8 -4 15 -10
15 -13 0 -13 -23 1 -37 8 -8 7 -13 -2 -19 -7 -4 -14 -3 -17 4 -2 7 -9 12 -17
12 -7 0 -18 6 -24 14 -10 11 -7 17 10 30 13 8 24 23 25 31 2 11 -1 13 -9 6 -9
-7 -13 2 -15 32 -1 23 -4 42 -6 44 -5 5 -56 -22 -56 -29 0 -5 7 -8 16 -8 22 0
39 -21 39 -47 0 -21 -13 -33 -16 -15 -1 4 -19 24 -40 44 -22 21 -39 42 -39 47
0 5 -7 11 -15 15 -11 4 -15 -1 -15 -19 0 -20 5 -25 26 -25 22 0 25 -4 21 -21
-4 -15 -2 -19 8 -15 16 6 39 -19 30 -34 -3 -5 -2 -10 3 -10 5 0 9 -7 9 -15 0
-18 -13 -20 -23 -4 -3 6 -19 9 -35 5 -16 -3 -29 -1 -29 4 0 6 5 10 10 10 6 0
10 8 10 17 0 15 -2 14 -19 -3 -10 -10 -16 -23 -14 -27 3 -5 -6 -7 -19 -5 -14
1 -33 -3 -42 -11 -14 -12 -16 -11 -16 7 0 11 7 25 15 32 10 9 15 9 15 1 0 -6
8 -11 18 -10 10 0 12 3 4 6 -6 2 -10 9 -6 14 3 5 2 9 -3 9 -4 0 -8 23 -7 50 0
36 -4 53 -15 59 -21 12 0 57 34 73 35 16 32 38 -5 38 -27 0 -30 -2 -20 -19 7
-14 7 -22 -1 -26 -12 -8 -11 -8 -26 25 -9 20 -12 -8 -12 -137z"/>
<path fill="#ffffff" stroke="none" d="M217 14 c-3 -4 -14 -3 -24 0 -15 6 -15
8 -3 16 16 10 39 -4 27 -16z"/>
<path fill="#000000" stroke="none" d="M132 295 c-11 -12 -10 -15 2 -15 8 0
18 5 21 10 3 6 12 10 18 10 7 0 6 -4 -3 -11 -10 -7 -11 -9 -2 -7 21 6 19 23
-3 25 -11 2 -26 -4 -33 -12z"/>
<path fill="#000000" stroke="none" d="M90 255 c0 -8 5 -15 10 -15 6 0 10 7
10 15 0 8 -4 15 -10 15 -5 0 -10 -7 -10 -15z"/>
<path fill="#000000" stroke="none" d="M51 219 c5 -11 14 -17 20 -14 15 10 10
22 -11 28 -17 4 -18 2 -9 -14z"/>
<path fill="#000000" stroke="none" d="M150 220 c0 -5 -7 -7 -15 -4 -22 9 -18
-13 4 -25 14 -8 22 -6 35 8 21 23 20 31 -4 31 -11 0 -20 -4 -20 -10z"/>
</g>
</svg>
