<?xml version="1.0" standalone="no"?>
<!DOCTYPE svg PUBLIC "-//W3C//DTD SVG 20010904//EN"
 "http://www.w3.org/TR/2001/REC-SVG-20010904/DTD/svg10.dtd">
<svg version="1.0" xmlns="http://www.w3.org/2000/svg"
 width="32.000000pt" height="32.000000pt" viewBox="0 0 32.000000 32.000000"
 preserveAspectRatio="xMidYMid meet">
<metadata>
Created by potrace 1.16, written by Peter Selinger 2001-2019
</metadata>
<g transform="translate(0.000000,32.000000) scale(0.100000,-0.100000)"
fill="#000000" stroke="none">
<path fill="#000000" stroke="none" d="M145 218 c-11 -11 -15 -18 -8 -16 6 2
11 -1 12 -7 1 -5 -3 -10 -8 -10 -22 0 -22 -16 0 -36 13 -11 17 -17 9 -13 -13
7 -13 5 -1 -9 17 -21 32 -22 25 -2 -4 10 0 15 15 15 22 0 46 34 36 50 -3 6
-15 10 -26 10 -13 0 -18 4 -13 12 4 6 3 8 -4 4 -6 -3 -12 0 -14 7 -2 11 -8 9
-23 -5z"/>
<path fill="#ffffff" stroke="none" d="M210 180 c0 -5 -9 -6 -20 -3 -11 3 -20
9 -20 13 0 5 9 6 20 3 11 -3 20 -9 20 -13z"/>
<path fill="#000000" stroke="none" d="M90 170 c0 -5 5 -10 11 -10 5 0 7 5 4
10 -3 6 -8 10 -11 10 -2 0 -4 -4 -4 -10z"/>
<path fill="#000000" stroke="none" d="M110 136 c0 -8 5 -18 10 -21 6 -3 10 1
10 9 0 8 -4 18 -10 21 -5 3 -10 -1 -10 -9z"/>
</g>
</svg>
