<?xml version="1.0" standalone="no"?>
<!DOCTYPE svg PUBLIC "-//W3C//DTD SVG 20010904//EN"
 "http://www.w3.org/TR/2001/REC-SVG-20010904/DTD/svg10.dtd">
<svg version="1.0" xmlns="http://www.w3.org/2000/svg"
 width="32.000000pt" height="32.000000pt" viewBox="0 0 32.000000 32.000000"
 preserveAspectRatio="xMidYMid meet">
<metadata>
Created by potrace 1.16, written by Peter Selinger 2001-2019
</metadata>
<g transform="translate(0.000000,32.000000) scale(0.100000,-0.100000)"
fill="#000000" stroke="none">
<path fill="#000000" stroke="none" d="M158 273 c-9 -3 -19 -14 -21 -26 l-4
-22 -2 23 c0 12 -8 22 -16 22 -8 0 -14 -3 -14 -7 1 -5 1 -15 0 -23 -1 -13 -2
-13 -11 0 -5 8 -10 11 -10 6 0 -5 7 -17 15 -26 13 -14 11 -18 -15 -33 -18 -11
-31 -14 -35 -7 -3 5 3 10 14 10 12 0 21 7 21 15 0 12 -4 13 -25 3 -14 -6 -25
-17 -25 -25 0 -7 -1 -16 -2 -20 -2 -5 14 -7 34 -6 36 1 38 0 32 -25 -8 -32
-14 -41 -14 -21 0 17 -53 40 -69 29 -9 -5 -8 -10 4 -20 8 -7 15 -8 15 -2 0 5
9 8 20 5 11 -3 18 -9 15 -13 -3 -4 2 -11 11 -14 21 -8 35 -8 32 2 -2 4 1 9 6
12 5 3 11 -5 13 -18 3 -25 33 -62 33 -42 0 8 10 9 30 5 33 -7 41 8 13 24 -15
8 -15 11 -3 25 9 12 16 14 24 6 5 -5 14 -10 18 -10 12 0 10 28 -3 32 -7 2 -5
9 5 17 14 11 16 11 16 -3 0 -9 5 -16 11 -16 5 0 7 6 4 13 -4 6 0 4 8 -6 10
-12 17 -14 22 -8 3 6 1 11 -6 11 -9 0 -9 4 1 15 10 12 8 14 -8 10 -27 -5 -62
21 -63 48 0 12 -3 16 -6 10 -6 -18 -33 -16 -33 1 0 8 -8 17 -17 20 -15 6 -15
8 -3 16 18 11 11 18 -12 13z"/>
<path fill="#ffffff" stroke="none" d="M115 180 c3 -5 1 -10 -4 -10 -6 0 -11
5 -11 10 0 6 2 10 4 10 3 0 8 -4 11 -10z"/>
<path fill="#000000" stroke="none" d="M246 262 c-3 -6 -15 -8 -26 -5 -11 3
-20 1 -20 -5 0 -13 45 -21 62 -11 9 6 10 11 2 19 -8 8 -14 8 -18 2z"/>
<path fill="#000000" stroke="none" d="M212 89 c2 -8 20 -15 39 -17 31 -3 36
9 6 14 -7 1 -20 5 -31 10 -14 5 -17 3 -14 -7z"/>
<path fill="#000000" stroke="none" d="M60 56 c0 -2 7 -6 15 -10 8 -3 15 -1
15 4 0 6 -7 10 -15 10 -8 0 -15 -2 -15 -4z"/>
<path fill="#000000" stroke="none" d="M30 20 c0 -5 5 -10 11 -10 5 0 7 5 4
10 -3 6 -8 10 -11 10 -2 0 -4 -4 -4 -10z"/>
</g>
</svg>
