<?xml version="1.0" standalone="no"?>
<!DOCTYPE svg PUBLIC "-//W3C//DTD SVG 20010904//EN"
 "http://www.w3.org/TR/2001/REC-SVG-20010904/DTD/svg10.dtd">
<svg version="1.0" xmlns="http://www.w3.org/2000/svg"
 width="32.000000pt" height="32.000000pt" viewBox="0 0 32.000000 32.000000"
 preserveAspectRatio="xMidYMid meet">
<metadata>
Created by potrace 1.16, written by Peter Selinger 2001-2019
</metadata>
<g transform="translate(0.000000,32.000000) scale(0.100000,-0.100000)"
fill="#000000" stroke="none">
<path fill="#000000" stroke="none" d="M41 301 c-8 -5 -11 -16 -8 -25 10 -25
27 -19 27 9 0 28 0 28 -19 16z"/>
<path fill="#000000" stroke="none" d="M144 299 c-3 -5 0 -9 5 -9 20 0 26 -3
38 -19 11 -14 12 -14 9 1 -4 29 -39 48 -52 27z"/>
<path fill="#000000" stroke="none" d="M230 285 c-7 -8 -11 -15 -9 -16 44 -10
75 5 48 22 -19 12 -25 11 -39 -6z"/>
<path fill="#000000" stroke="none" d="M115 223 c-16 -20 -31 -30 -33 -24 -5
15 -22 14 -22 -2 0 -7 -9 -18 -21 -25 -11 -7 -18 -19 -16 -26 3 -8 1 -18 -4
-23 -7 -7 -5 -16 6 -27 18 -18 42 -12 27 7 -5 7 -12 19 -15 28 -5 14 -1 16 21
9 25 -6 29 -16 22 -45 -1 -5 -2 -18 -1 -27 1 -21 21 -24 21 -4 0 13 20 26 40
26 4 0 11 -7 14 -16 3 -8 2 -12 -4 -9 -5 3 -17 2 -25 -3 -13 -7 -12 -10 9 -21
14 -8 22 -19 19 -27 -9 -25 23 -15 37 11 12 22 11 27 -6 39 -18 14 -18 15 8
21 15 4 32 4 39 -1 8 -5 10 0 7 19 -4 22 0 28 24 36 18 6 27 15 22 22 -4 8 0
9 15 4 11 -3 21 -2 21 3 0 5 -18 15 -40 22 -22 7 -40 19 -40 27 0 8 -12 13
-30 13 -18 0 -33 6 -36 15 -9 23 -26 17 -59 -22z"/>
<path fill="#000000" stroke="none" d="M275 110 c-3 -5 -1 -10 4 -10 6 0 11 5
11 10 0 6 -2 10 -4 10 -3 0 -8 -4 -11 -10z"/>
<path fill="#000000" stroke="none" d="M272 86 c2 -1 10 -7 19 -14 14 -10 18
-10 22 1 4 10 -2 15 -19 15 -14 0 -24 -1 -22 -2z"/>
<path fill="#000000" stroke="none" d="M235 57 c-22 -13 -33 -42 -13 -34 7 2
12 10 11 16 -2 6 7 10 18 8 12 -1 24 4 26 11 6 15 -16 15 -42 -1z"/>
</g>
</svg>
