<?xml version="1.0" standalone="no"?>
<!DOCTYPE svg PUBLIC "-//W3C//DTD SVG 20010904//EN"
 "http://www.w3.org/TR/2001/REC-SVG-20010904/DTD/svg10.dtd">
<svg version="1.0" xmlns="http://www.w3.org/2000/svg"
 width="32.000000pt" height="32.000000pt" viewBox="0 0 32.000000 32.000000"
 preserveAspectRatio="xMidYMid meet">
<metadata>
Created by potrace 1.16, written by Peter Selinger 2001-2019
</metadata>
<g transform="translate(0.000000,32.000000) scale(0.100000,-0.100000)"
fill="#000000" stroke="none">
<path fill="#000000" stroke="none" d="M132 245 c-10 -12 -10 -15 0 -15 8 -1
5 -7 -7 -16 -11 -8 -26 -12 -34 -9 -11 5 -12 3 -1 -10 11 -13 10 -18 -6 -30
-17 -13 -17 -14 -1 -9 12 5 16 2 12 -9 -6 -13 4 -19 60 -33 6 -1 17 -5 26 -9
11 -4 19 0 23 12 3 10 9 24 12 31 3 6 1 12 -6 12 -6 0 -8 -4 -5 -10 3 -5 2
-10 -3 -10 -6 0 -13 7 -16 16 -8 22 -8 26 4 19 13 -8 42 14 34 26 -3 5 -11 9
-17 9 -8 0 -8 -3 2 -9 9 -6 10 -11 2 -15 -11 -7 -15 4 -12 36 1 9 -3 20 -10
24 -8 4 -9 3 -5 -4 5 -8 2 -10 -8 -6 -9 3 -16 1 -16 -6 0 -6 -5 -8 -11 -5 -6
5 -4 12 8 21 14 10 15 13 3 13 -8 0 -21 -6 -28 -14z"/>
<path fill="#ffffff" stroke="none" d="M150 205 c0 -2 -9 -9 -20 -15 -12 -6
-20 -7 -20 -1 0 5 8 12 18 14 9 3 18 5 20 6 1 0 2 -1 2 -4z"/>
<path fill="#ffffff" stroke="none" d="M150 175 c-7 -8 -10 -21 -7 -28 3 -8
-1 -14 -8 -14 -8 0 -11 7 -7 16 6 19 22 41 29 41 3 0 0 -7 -7 -15z"/>
<path fill="#ffffff" stroke="none" d="M180 135 c11 -13 10 -14 -4 -9 -9 3
-16 10 -16 15 0 13 6 11 20 -6z"/>
</g>
</svg>
