<?xml version="1.0" standalone="no"?>
<!DOCTYPE svg PUBLIC "-//W3C//DTD SVG 20010904//EN"
 "http://www.w3.org/TR/2001/REC-SVG-20010904/DTD/svg10.dtd">
<svg version="1.0" xmlns="http://www.w3.org/2000/svg"
 width="32.000000pt" height="32.000000pt" viewBox="0 0 32.000000 32.000000"
 preserveAspectRatio="xMidYMid meet">
<metadata>
Created by potrace 1.16, written by Peter Selinger 2001-2019
</metadata>
<g transform="translate(0.000000,32.000000) scale(0.100000,-0.100000)"
fill="#000000" stroke="none">
<path fill="#000000" stroke="none" d="M82 251 c-18 -11 -11 -51 11 -65 22
-14 51 3 55 34 4 23 -12 40 -38 40 -8 0 -21 -4 -28 -9z"/>
<path fill="#000000" stroke="none" d="M164 239 c-8 -14 21 -43 35 -35 19 12
13 46 -8 46 -11 0 -23 -5 -27 -11z"/>
<path fill="#000000" stroke="none" d="M133 174 c-8 -20 21 -49 41 -41 21 8
21 43 0 51 -25 9 -34 7 -41 -10z"/>
<path fill="#000000" stroke="none" d="M200 165 c0 -8 7 -15 15 -15 8 0 15 7
15 15 0 8 -7 15 -15 15 -8 0 -15 -7 -15 -15z"/>
<path fill="#000000" stroke="none" d="M80 145 c0 -8 7 -15 15 -15 8 0 15 7
15 15 0 8 -7 15 -15 15 -8 0 -15 -7 -15 -15z"/>
<path fill="#000000" stroke="none" d="M176 122 c-13 -13 -4 -41 15 -47 20 -7
59 22 59 44 0 10 -65 13 -74 3z"/>
</g>
</svg>
