<?xml version="1.0" standalone="no"?>
<!DOCTYPE svg PUBLIC "-//W3C//DTD SVG 20010904//EN"
 "http://www.w3.org/TR/2001/REC-SVG-20010904/DTD/svg10.dtd">
<svg version="1.0" xmlns="http://www.w3.org/2000/svg"
 width="32.000000pt" height="32.000000pt" viewBox="0 0 32.000000 32.000000"
 preserveAspectRatio="xMidYMid meet">
<metadata>
Created by potrace 1.16, written by Peter Selinger 2001-2019
</metadata>
<g transform="translate(0.000000,32.000000) scale(0.100000,-0.100000)"
fill="#000000" stroke="none">
<path fill="#000000" stroke="none" d="M10 312 c0 -4 6 -14 13 -21 10 -11 9
-12 -2 -6 -9 5 -7 -2 5 -17 10 -15 21 -26 24 -25 3 1 14 -4 26 -10 17 -10 23
-8 39 13 17 23 19 23 32 6 8 -9 12 -12 9 -7 -8 19 11 40 26 28 18 -14 95 -16
103 -3 4 6 -1 17 -11 25 -16 12 -22 11 -42 -1 -21 -14 -25 -14 -35 0 -7 9 -25
19 -40 22 -25 4 -27 3 -18 -15 13 -23 14 -32 4 -29 -5 1 -21 -6 -36 -16 -22
-15 -31 -16 -40 -7 -9 10 -8 15 7 26 10 8 23 12 27 9 5 -3 6 2 3 10 -7 19 -24
21 -24 4 0 -7 -5 -5 -11 5 -10 17 -59 25 -59 9z"/>
<path fill="#000000" stroke="none" d="M190 231 c0 -5 -8 -7 -19 -4 -24 6 -37
-13 -21 -32 15 -18 36 -9 45 18 6 20 8 20 12 4 3 -10 11 -16 18 -13 9 3 12 -3
11 -19 -3 -23 7 -26 34 -10 9 5 8 0 -4 -13 -14 -17 -23 -19 -37 -11 -11 5 -19
15 -19 21 0 6 -3 8 -6 5 -4 -4 -1 -14 7 -23 14 -18 14 -21 -3 -41 -11 -14 -28
-8 -28 8 0 6 4 8 8 5 5 -3 9 2 9 10 0 13 -2 13 -15 0 -12 -12 -13 -18 -3 -30
9 -10 9 -16 1 -21 -6 -4 -14 -4 -17 -1 -3 3 -15 -1 -26 -9 -19 -13 -22 -12
-32 8 -6 13 -20 22 -34 22 -15 0 -25 7 -27 18 -1 9 2 15 7 11 9 -5 12 4 12 39
0 14 2 15 14 5 12 -10 18 -9 29 7 13 17 18 35 11 35 -1 0 -17 -4 -35 -9 -18
-6 -30 -6 -27 -2 2 5 -7 9 -20 9 -14 0 -28 -5 -32 -11 -3 -6 -1 -7 6 -3 6 4
18 3 26 -4 11 -9 9 -15 -10 -36 -30 -33 -21 -78 16 -80 53 -2 55 -3 39 -14
-13 -9 -13 -11 0 -19 8 -5 18 -7 22 -4 10 5 38 -15 38 -27 0 -5 -8 -11 -17
-13 -10 -3 1 -5 24 -6 23 0 43 3 45 7 4 12 68 24 68 13 0 -5 6 -11 14 -14 10
-4 12 0 8 15 -3 14 3 26 19 39 l24 18 -28 25 -28 24 26 21 c29 22 26 37 -11
51 -14 6 -21 15 -18 23 3 10 -6 14 -36 15 -22 1 -40 -2 -40 -7z"/>
<path fill="#ffffff" stroke="none" d="M245 132 c6 -4 16 -20 24 -37 7 -16 10
-27 6 -23 -3 3 -18 0 -33 -8 -20 -10 -29 -11 -41 -1 -12 10 -10 13 14 17 34 6
41 22 20 44 -16 16 -9 22 10 8z"/>
<path fill="#ffffff" stroke="none" d="M225 100 c-3 -5 -11 -10 -16 -10 -6 0
-7 5 -4 10 3 6 11 10 16 10 6 0 7 -4 4 -10z"/>
<path fill="#ffffff" stroke="none" d="M180 35 c0 -15 -21 -12 -30 5 -11 20
-10 21 9 10 12 -6 21 -13 21 -15z"/>
<path fill="#000000" stroke="none" d="M127 179 c7 -7 15 -10 18 -7 3 3 -2 9
-12 12 -14 6 -15 5 -6 -5z"/>
<path fill="#000000" stroke="none" d="M155 161 c-3 -5 -2 -12 3 -15 5 -3 9 1
9 9 0 17 -3 19 -12 6z"/>
<path fill="#000000" stroke="none" d="M93 152 c-13 -2 -23 -7 -23 -11 0 -13
44 -47 58 -45 6 1 17 2 22 3 6 0 10 6 10 12 0 8 -6 7 -16 -2 -15 -12 -16 -11
-10 7 8 26 -10 41 -41 36z"/>
</g>
</svg>
