<?xml version="1.0" standalone="no"?>
<!DOCTYPE svg PUBLIC "-//W3C//DTD SVG 20010904//EN"
 "http://www.w3.org/TR/2001/REC-SVG-20010904/DTD/svg10.dtd">
<svg version="1.0" xmlns="http://www.w3.org/2000/svg"
 width="32.000000pt" height="32.000000pt" viewBox="0 0 32.000000 32.000000"
 preserveAspectRatio="xMidYMid meet">
<metadata>
Created by potrace 1.16, written by Peter Selinger 2001-2019
</metadata>
<g transform="translate(0.000000,32.000000) scale(0.100000,-0.100000)"
fill="#000000" stroke="none">
<path fill="#000000" stroke="none" d="M0 245 c0 -68 9 -91 25 -65 3 5 12 7
20 3 14 -5 19 6 16 33 0 5 11 10 27 10 17 -1 26 4 24 12 -1 7 9 17 23 22 14 5
25 13 25 18 0 5 10 8 23 7 13 -2 21 -8 19 -16 -2 -8 0 -11 4 -6 4 4 16 -1 27
-10 12 -10 17 -12 12 -4 -4 7 6 3 23 -9 29 -22 31 -25 16 -41 -10 -11 -12 -19
-5 -24 11 -6 15 1 12 19 -1 5 5 4 13 -4 14 -11 16 -5 16 59 l0 71 -86 0 c-47
0 -83 -4 -80 -9 3 -5 -2 -15 -12 -22 -15 -12 -16 -12 -5 2 19 24 7 29 -69 29
l-68 0 0 -75z"/>
<path fill="#ffffff" stroke="none" d="M109 264 c2 -2 -13 -11 -34 -20 -41
-17 -57 -8 -48 26 4 15 10 17 41 8 21 -6 39 -12 41 -14z"/>
<path fill="#000000" stroke="none" d="M39 147 c-10 -8 -14 -19 -10 -30 7 -18
8 -18 30 0 19 15 21 21 9 30 -10 8 -17 8 -29 0z"/>
<path fill="#000000" stroke="none" d="M286 141 c-3 -5 3 -11 14 -14 13 -3 20
0 20 9 0 15 -26 19 -34 5z"/>
<path fill="#000000" stroke="none" d="M47 98 c-15 -11 -27 -15 -27 -9 0 6 -4
11 -10 11 -5 0 -10 -22 -10 -50 l0 -50 57 0 c52 0 55 1 37 15 -14 11 -15 14
-3 9 10 -3 20 0 24 6 3 6 3 10 -2 9 -4 -1 -16 1 -26 6 -17 7 -17 8 0 27 17 18
16 19 -10 9 -18 -7 -28 -7 -33 1 -4 6 -3 8 3 5 6 -4 16 0 23 8 20 24 8 25 -23
3z"/>
<path fill="#000000" stroke="none" d="M199 91 c-24 -21 -29 -30 -19 -36 9 -6
11 -4 5 5 -6 9 -4 11 4 6 12 -8 7 -20 -10 -22 -5 -1 -11 -2 -14 -3 -3 0 -1 -9
4 -20 9 -15 23 -19 81 -20 l70 -1 0 56 c0 49 -2 55 -15 44 -12 -10 -15 -10
-15 0 0 8 -3 11 -6 7 -3 -3 -16 -2 -29 3 -18 7 -30 3 -56 -19z"/>
<path fill="#ffffff" stroke="none" d="M277 45 c0 -8 -4 -12 -9 -9 -5 3 -6 10
-3 15 9 13 12 11 12 -6z"/>
<path fill="#000000" stroke="none" d="M102 64 c-7 -8 -8 -14 -3 -14 10 0 25
19 20 25 -2 1 -10 -3 -17 -11z"/>
<path fill="#000000" stroke="none" d="M129 14 c-12 -14 -11 -16 5 -13 11 2
21 10 24 17 5 17 -13 15 -29 -4z"/>
</g>
</svg>
