<?xml version="1.0" standalone="no"?>
<!DOCTYPE svg PUBLIC "-//W3C//DTD SVG 20010904//EN"
 "http://www.w3.org/TR/2001/REC-SVG-20010904/DTD/svg10.dtd">
<svg version="1.0" xmlns="http://www.w3.org/2000/svg"
 width="32.000000pt" height="32.000000pt" viewBox="0 0 32.000000 32.000000"
 preserveAspectRatio="xMidYMid meet">
<metadata>
Created by potrace 1.16, written by Peter Selinger 2001-2019
</metadata>
<g transform="translate(0.000000,32.000000) scale(0.100000,-0.100000)"
fill="#000000" stroke="none">
<path fill="#000000" stroke="none" d="M60 255 c-7 -9 -8 -15 -2 -15 5 0 12 7
16 15 3 8 4 15 2 15 -2 0 -9 -7 -16 -15z"/>
<path fill="#000000" stroke="none" d="M95 230 c-16 -16 -25 -30 -19 -29 8 0
60 59 52 59 -3 0 -17 -13 -33 -30z"/>
<path fill="#000000" stroke="none" d="M225 222 c-3 -9 -3 -13 1 -9 4 4 13 2
21 -4 10 -9 13 -8 13 4 0 21 -27 29 -35 9z"/>
<path fill="#000000" stroke="none" d="M138 208 c-16 -5 -28 -13 -28 -18 0 -5
-8 -7 -17 -5 -23 3 -35 -4 -27 -16 3 -5 11 -6 17 -2 24 15 48 12 72 -9 28 -24
33 -48 9 -48 -8 0 -13 4 -10 9 3 5 0 14 -8 20 -10 8 -17 6 -30 -8 -16 -18 -16
-20 13 -34 19 -9 33 -12 37 -6 3 6 12 5 22 -3 14 -10 15 -10 5 1 -12 14 -7 41
9 41 5 0 6 -4 3 -10 -3 -5 -2 -10 3 -10 17 0 22 30 10 53 -6 12 -9 23 -7 24 2
1 0 5 -4 10 -5 4 -8 3 -7 -2 5 -22 -1 -27 -17 -14 -9 8 -14 9 -10 3 3 -6 0
-11 -8 -11 -18 0 -15 20 4 28 26 10 -3 17 -31 7z"/>
<path fill="#000000" stroke="none" d="M73 135 c0 -8 4 -12 9 -9 5 3 6 10 3
15 -9 13 -12 11 -12 -6z"/>
<path fill="#000000" stroke="none" d="M219 91 c-1 -3 -1 -9 0 -13 1 -7 -23
-12 -42 -9 -5 1 -6 -3 -3 -8 8 -13 41 -3 60 18 14 15 14 18 1 18 -8 0 -16 -3
-16 -6z"/>
</g>
</svg>
