<?xml version="1.0" standalone="no"?>
<!DOCTYPE svg PUBLIC "-//W3C//DTD SVG 20010904//EN"
 "http://www.w3.org/TR/2001/REC-SVG-20010904/DTD/svg10.dtd">
<svg version="1.0" xmlns="http://www.w3.org/2000/svg"
 width="32.000000pt" height="32.000000pt" viewBox="0 0 32.000000 32.000000"
 preserveAspectRatio="xMidYMid meet">
<metadata>
Created by potrace 1.16, written by Peter Selinger 2001-2019
</metadata>
<g transform="translate(0.000000,32.000000) scale(0.100000,-0.100000)"
fill="#000000" stroke="none">
<path fill="#000000" stroke="none" d="M132 186 c3 -15 0 -27 -8 -30 -8 -3
-14 -12 -14 -21 0 -17 16 -20 25 -5 9 15 25 12 19 -4 -6 -17 14 -32 26 -20 5
5 11 21 15 35 5 20 1 28 -17 37 -22 11 -21 11 6 5 22 -4 28 -2 24 8 -3 8 -21
15 -43 17 -35 3 -37 2 -33 -22z"/>
</g>
</svg>
