<?xml version="1.0" standalone="no"?>
<!DOCTYPE svg PUBLIC "-//W3C//DTD SVG 20010904//EN"
 "http://www.w3.org/TR/2001/REC-SVG-20010904/DTD/svg10.dtd">
<svg version="1.0" xmlns="http://www.w3.org/2000/svg"
 width="32.000000pt" height="32.000000pt" viewBox="0 0 32.000000 32.000000"
 preserveAspectRatio="xMidYMid meet">
<metadata>
Created by potrace 1.16, written by Peter Selinger 2001-2019
</metadata>
<g transform="translate(0.000000,32.000000) scale(0.100000,-0.100000)"
fill="#000000" stroke="none">
<path fill="#000000" stroke="none" d="M185 310 c-3 -5 -3 -10 2 -10 4 0 -1
-6 -12 -14 -24 -16 -129 -13 -150 4 -12 10 -15 9 -15 -8 0 -24 26 -49 32 -30
3 8 7 6 11 -5 3 -9 3 -17 -1 -17 -4 0 -7 -23 -6 -51 0 -34 -4 -53 -13 -56 -21
-8 -15 -40 13 -62 15 -12 22 -21 17 -21 -6 0 -17 7 -24 16 -12 14 -14 13 -21
-12 -8 -32 -3 -43 14 -26 14 14 58 16 58 3 0 -5 30 -9 68 -8 52 2 67 5 67 17
0 19 35 26 45 10 14 -22 30 0 30 42 0 31 -6 46 -25 64 -32 30 -31 42 5 82 17
18 30 35 30 37 0 2 -11 15 -24 29 -24 27 -88 37 -101 16z"/>
<path fill="#ffffff" stroke="none" d="M240 303 c-8 -3 -22 -11 -30 -17 -13
-10 -13 -9 -1 7 7 9 21 17 30 16 13 0 14 -1 1 -6z"/>
<path fill="#ffffff" stroke="none" d="M267 268 c-3 -8 -6 -5 -6 6 -1 11 2 17
5 13 3 -3 4 -12 1 -19z"/>
<path fill="#ffffff" stroke="none" d="M105 259 c11 -16 1 -19 -13 -3 -7 8 -8
14 -3 14 5 0 13 -5 16 -11z"/>
<path fill="#ffffff" stroke="none" d="M240 238 c0 -12 -6 -9 -26 13 -19 22
-19 22 4 8 12 -8 22 -17 22 -21z"/>
<path fill="#ffffff" stroke="none" d="M192 248 c5 -15 -22 -48 -39 -48 -6 0
-15 5 -19 12 -5 7 -2 9 9 5 18 -7 42 17 32 33 -3 5 -2 10 4 10 5 0 11 -5 13
-12z"/>
<path fill="#ffffff" stroke="none" d="M223 178 c-6 -41 -14 -46 -33 -23 -10
13 -9 18 7 33 11 9 18 24 15 32 -3 10 -1 12 5 5 6 -5 8 -27 6 -47z"/>
<path fill="#ffffff" stroke="none" d="M120 161 c0 -10 -7 -21 -15 -25 -11 -4
-15 1 -15 19 0 16 6 25 15 25 8 0 15 -9 15 -19z"/>
<path fill="#ffffff" stroke="none" d="M178 128 c18 -18 15 -28 -8 -28 -11 0
-20 4 -20 10 0 5 -7 7 -15 4 -15 -6 -21 7 -8 19 10 11 38 8 51 -5z"/>
<path fill="#ffffff" stroke="none" d="M260 123 c-8 -3 -22 -11 -30 -17 -13
-10 -13 -9 -1 7 7 9 21 17 30 16 13 0 14 -1 1 -6z"/>
<path fill="#ffffff" stroke="none" d="M80 106 c0 -2 -9 -6 -20 -9 -11 -3 -18
-1 -14 4 5 9 34 13 34 5z"/>
<path fill="#ffffff" stroke="none" d="M287 88 c-3 -8 -6 -5 -6 6 -1 11 2 17
5 13 3 -3 4 -12 1 -19z"/>
<path fill="#ffffff" stroke="none" d="M97 68 c-3 -8 -6 -5 -6 6 -1 11 2 17 5
13 3 -3 4 -12 1 -19z"/>
<path fill="#ffffff" stroke="none" d="M204 60 c-6 -6 -10 -2 -11 12 -2 16 1
18 10 9 7 -7 8 -14 1 -21z"/>
<path fill="#ffffff" stroke="none" d="M254 61 c-2 -3 -12 3 -22 13 -16 17
-16 18 5 5 12 -7 20 -15 17 -18z"/>
<path fill="#ffffff" stroke="none" d="M155 40 c3 -6 12 -10 18 -10 7 0 6 4
-3 11 -10 7 -11 9 -2 7 8 -2 13 -8 13 -13 0 -17 -30 -17 -47 -1 -13 14 -14 16
0 16 8 0 18 -4 21 -10z"/>
</g>
</svg>
