<?xml version="1.0" standalone="no"?>
<!DOCTYPE svg PUBLIC "-//W3C//DTD SVG 20010904//EN"
 "http://www.w3.org/TR/2001/REC-SVG-20010904/DTD/svg10.dtd">
<svg version="1.0" xmlns="http://www.w3.org/2000/svg"
 width="32.000000pt" height="32.000000pt" viewBox="0 0 32.000000 32.000000"
 preserveAspectRatio="xMidYMid meet">
<metadata>
Created by potrace 1.16, written by Peter Selinger 2001-2019
</metadata>
<g transform="translate(0.000000,32.000000) scale(0.100000,-0.100000)"
fill="#000000" stroke="none">
<path fill="#000000" stroke="none" d="M50 253 c0 -16 4 -23 8 -17 4 5 18 18
32 27 l24 17 -32 0 c-28 0 -32 -3 -32 -27z"/>
<path fill="#000000" stroke="none" d="M170 276 c0 -3 17 -10 38 -16 20 -7 43
-19 50 -28 10 -14 12 -11 12 16 0 32 0 32 -50 32 -27 0 -50 -2 -50 -4z"/>
<path fill="#000000" stroke="none" d="M56 183 c-3 -3 -6 -24 -6 -45 l0 -38
68 0 c56 1 64 3 47 12 -11 7 -26 18 -33 25 -7 7 -22 13 -33 13 -10 0 -19 6
-19 14 0 17 -14 28 -24 19z"/>
<path fill="#000000" stroke="none" d="M260 147 c0 -7 -12 -20 -27 -29 l-28
-17 33 -1 c29 0 32 3 32 30 0 17 -2 30 -5 30 -3 0 -5 -6 -5 -13z"/>
</g>
</svg>
