<?xml version="1.0" standalone="no"?>
<!DOCTYPE svg PUBLIC "-//W3C//DTD SVG 20010904//EN"
 "http://www.w3.org/TR/2001/REC-SVG-20010904/DTD/svg10.dtd">
<svg version="1.0" xmlns="http://www.w3.org/2000/svg"
 width="32.000000pt" height="32.000000pt" viewBox="0 0 32.000000 32.000000"
 preserveAspectRatio="xMidYMid meet">
<metadata>
Created by potrace 1.16, written by Peter Selinger 2001-2019
</metadata>
<g transform="translate(0.000000,32.000000) scale(0.100000,-0.100000)"
fill="#000000" stroke="none">
<path fill="#000000" stroke="none" d="M0 229 c0 -70 3 -88 12 -83 10 6 9 3 0
-9 -12 -14 -11 -16 6 -14 14 1 18 6 14 21 -4 14 -2 17 8 11 8 -5 11 -4 6 3 -4
6 -13 9 -20 6 -20 -8 -13 33 12 61 25 29 18 33 -11 8 -19 -17 -19 -17 -12 7 9
31 35 61 46 55 4 -3 10 -1 14 5 4 6 10 8 15 5 5 -3 11 -1 14 4 4 6 -17 10 -49
10 l-55 0 0 -90z"/>
<path fill="#000000" stroke="none" d="M140 310 c17 -6 20 -8 7 -9 -11 -1 -15
-5 -11 -13 5 -8 2 -9 -9 -5 -9 3 -19 2 -22 -3 -4 -6 7 -10 24 -10 16 0 33 -4
36 -10 3 -5 11 -10 16 -10 6 0 7 5 4 10 -3 6 -1 10 5 10 7 0 10 -6 7 -14 -5
-12 40 -66 56 -66 3 0 11 9 17 21 9 16 8 26 -6 47 -26 38 -27 54 -3 42 24 -13
42 -47 35 -66 -4 -10 -2 -12 6 -8 8 5 9 2 3 -12 -4 -10 -8 -30 -7 -44 2 -46
-8 -58 -24 -25 l-14 30 5 -30 c4 -16 6 -38 6 -48 0 -14 4 -15 20 -6 18 9 19 8
7 -10 -7 -11 -14 -18 -16 -16 -3 2 -12 -3 -20 -12 -10 -10 -17 -12 -20 -5 -2
6 -10 8 -18 5 -7 -3 -11 -9 -8 -15 3 -5 -2 -8 -12 -6 -12 2 -18 -2 -16 -11 3
-12 0 -12 -12 -2 -8 7 -19 10 -24 8 -4 -3 -14 -2 -22 4 -13 7 -12 9 1 9 9 0
22 7 29 15 10 12 10 15 -3 15 -17 0 -47 26 -47 40 0 5 7 6 17 3 11 -4 14 -3 9
6 -5 7 -14 10 -22 7 -7 -3 -16 -1 -19 4 -3 4 -13 7 -23 6 -24 -4 -27 -44 -4
-69 32 -37 34 -45 8 -43 -16 1 -22 6 -18 15 4 10 1 13 -10 8 -22 -8 -30 3 -15
21 9 13 9 14 -1 8 -7 -4 -12 -2 -12 8 0 8 6 16 13 19 6 3 2 4 -10 4 -21 -1
-23 -6 -23 -54 l0 -53 114 2 c63 1 113 5 111 9 -3 4 2 10 11 13 12 4 15 2 10
-9 -4 -12 3 -15 34 -15 36 0 40 2 40 26 0 16 -4 23 -11 18 -8 -5 -8 -1 0 14
17 33 12 191 -7 221 -16 25 -16 25 1 12 15 -12 17 -11 17 8 0 20 -5 21 -102
19 -65 0 -94 -4 -78 -8z"/>
<path fill="#ffffff" stroke="none" d="M135 60 c3 -5 1 -10 -4 -10 -6 0 -11 5
-11 10 0 6 2 10 4 10 3 0 8 -4 11 -10z"/>
<path fill="#000000" stroke="none" d="M75 199 c-4 -6 -5 -12 -2 -15 2 -3 7 2
10 11 7 17 1 20 -8 4z"/>
<path fill="#000000" stroke="none" d="M226 123 c-6 -14 -5 -15 5 -6 7 7 10
15 7 18 -3 3 -9 -2 -12 -12z"/>
</g>
</svg>
