<?xml version="1.0" standalone="no"?>
<!DOCTYPE svg PUBLIC "-//W3C//DTD SVG 20010904//EN"
 "http://www.w3.org/TR/2001/REC-SVG-20010904/DTD/svg10.dtd">
<svg version="1.0" xmlns="http://www.w3.org/2000/svg"
 width="32.000000pt" height="32.000000pt" viewBox="0 0 32.000000 32.000000"
 preserveAspectRatio="xMidYMid meet">
<metadata>
Created by potrace 1.16, written by Peter Selinger 2001-2019
</metadata>
<g transform="translate(0.000000,32.000000) scale(0.100000,-0.100000)"
fill="#000000" stroke="none">
<path fill="#000000" stroke="none" d="M153 233 c4 -3 2 -12 -4 -20 -9 -9 -8
-13 0 -13 6 0 11 -5 11 -11 0 -6 -9 -9 -19 -6 -10 2 -25 1 -32 -4 -12 -7 -11
-9 1 -9 9 -1 5 -6 -10 -15 -25 -14 -25 -14 11 -11 31 3 36 1 32 -14 -3 -10 0
-21 6 -24 6 -4 11 0 11 8 0 9 5 16 11 16 6 0 9 7 5 15 -3 8 -1 15 5 15 6 0 7
5 4 10 -3 6 -1 10 4 10 6 0 11 5 11 10 0 6 -7 10 -15 10 -8 0 -14 3 -14 8 3
19 -2 32 -13 32 -6 0 -8 -3 -5 -7z"/>
</g>
</svg>
