<?xml version="1.0" standalone="no"?>
<!DOCTYPE svg PUBLIC "-//W3C//DTD SVG 20010904//EN"
 "http://www.w3.org/TR/2001/REC-SVG-20010904/DTD/svg10.dtd">
<svg version="1.0" xmlns="http://www.w3.org/2000/svg"
 width="32.000000pt" height="32.000000pt" viewBox="0 0 32.000000 32.000000"
 preserveAspectRatio="xMidYMid meet">
<metadata>
Created by potrace 1.16, written by Peter Selinger 2001-2019
</metadata>
<g transform="translate(0.000000,32.000000) scale(0.100000,-0.100000)"
fill="#000000" stroke="none">
<path fill="#000000" stroke="none" d="M40 284 c0 -8 5 -12 10 -9 6 4 8 11 5
16 -9 14 -15 11 -15 -7z"/>
<path fill="#000000" stroke="none" d="M64 269 c-3 -6 -1 -16 5 -22 8 -8 11
-5 11 11 0 24 -5 28 -16 11z"/>
<path fill="#000000" stroke="none" d="M90 233 c0 -5 5 -14 12 -21 9 -9 7 -11
-10 -7 -15 2 -19 0 -15 -11 3 -7 -2 -17 -11 -20 -9 -3 -16 -11 -16 -17 0 -6 3
-7 7 -4 10 11 33 -13 33 -35 0 -10 4 -17 8 -14 4 2 13 -4 20 -14 7 -12 8 -21
2 -25 -6 -4 -7 -11 -4 -17 4 -6 1 -14 -6 -18 -22 -13 15 -19 41 -6 21 10 24
19 24 64 -1 49 6 64 20 42 11 -17 45 -12 38 6 -6 16 27 54 47 54 6 0 9 4 5 9
-8 15 -46 9 -41 -6 4 -10 1 -10 -13 -1 -11 7 -16 19 -13 30 5 22 -16 25 -24 3
-6 -14 -8 -13 -21 2 -8 10 -11 12 -7 4 5 -11 2 -13 -12 -8 -10 3 -29 9 -41 13
-13 3 -23 2 -23 -3z"/>
<path fill="#ffffff" stroke="none" d="M220 180 c0 -5 -5 -10 -11 -10 -5 0 -7
5 -4 10 3 6 8 10 11 10 2 0 4 -4 4 -10z"/>
</g>
</svg>
