<?xml version="1.0" standalone="no"?>
<!DOCTYPE svg PUBLIC "-//W3C//DTD SVG 20010904//EN"
 "http://www.w3.org/TR/2001/REC-SVG-20010904/DTD/svg10.dtd">
<svg version="1.0" xmlns="http://www.w3.org/2000/svg"
 width="32.000000pt" height="32.000000pt" viewBox="0 0 32.000000 32.000000"
 preserveAspectRatio="xMidYMid meet">
<metadata>
Created by potrace 1.16, written by Peter Selinger 2001-2019
</metadata>
<g transform="translate(0.000000,32.000000) scale(0.100000,-0.100000)"
fill="#000000" stroke="none">
<path fill="#000000" stroke="none" d="M100 306 c7 -9 16 -13 21 -10 5 3 9 0
9 -5 0 -6 -7 -11 -15 -11 -8 0 -15 4 -15 9 0 18 -52 -17 -74 -51 -27 -40 -37
-138 -14 -138 8 0 20 -16 27 -35 11 -32 21 -40 44 -36 4 1 24 -6 44 -14 35
-15 78 -12 68 5 -3 4 3 14 13 21 16 13 16 13 2 -5 -14 -18 -13 -19 14 -12 44
11 71 36 84 78 14 45 16 95 3 102 -5 3 -7 14 -4 24 2 11 -9 31 -31 53 -33 35
-37 36 -112 38 -68 2 -76 0 -64 -13z"/>
<path fill="#ffffff" stroke="none" d="M210 291 c0 -5 -7 -11 -14 -14 -10 -4
-13 -1 -9 9 6 15 23 19 23 5z"/>
<path fill="#ffffff" stroke="none" d="M44 188 c-4 -6 -10 -5 -15 3 -14 22
-10 33 6 19 8 -7 12 -17 9 -22z"/>
</g>
</svg>
