<?xml version="1.0" standalone="no"?>
<!DOCTYPE svg PUBLIC "-//W3C//DTD SVG 20010904//EN"
 "http://www.w3.org/TR/2001/REC-SVG-20010904/DTD/svg10.dtd">
<svg version="1.0" xmlns="http://www.w3.org/2000/svg"
 width="32.000000pt" height="32.000000pt" viewBox="0 0 32.000000 32.000000"
 preserveAspectRatio="xMidYMid meet">
<metadata>
Created by potrace 1.16, written by Peter Selinger 2001-2019
</metadata>
<g transform="translate(0.000000,32.000000) scale(0.100000,-0.100000)"
fill="#000000" stroke="none">
<path fill="#000000" stroke="none" d="M153 212 c10 -14 -2 -42 -18 -42 -7 0
-16 -8 -19 -17 -4 -10 -4 -14 0 -10 4 4 14 1 23 -6 14 -11 14 -10 2 6 -12 15
-11 17 2 17 9 0 18 -8 20 -17 3 -13 5 -11 6 6 1 19 4 21 15 12 12 -10 13 -9 9
8 -3 12 -11 17 -19 14 -10 -3 -12 0 -8 10 3 8 0 18 -7 23 -7 4 -10 3 -6 -4z"/>
</g>
</svg>
