<?xml version="1.0" standalone="no"?>
<!DOCTYPE svg PUBLIC "-//W3C//DTD SVG 20010904//EN"
 "http://www.w3.org/TR/2001/REC-SVG-20010904/DTD/svg10.dtd">
<svg version="1.0" xmlns="http://www.w3.org/2000/svg"
 width="32.000000pt" height="32.000000pt" viewBox="0 0 32.000000 32.000000"
 preserveAspectRatio="xMidYMid meet">
<metadata>
Created by potrace 1.16, written by Peter Selinger 2001-2019
</metadata>
<g transform="translate(0.000000,32.000000) scale(0.100000,-0.100000)"
fill="#000000" stroke="none">
<path fill="#000000" stroke="none" d="M0 240 c0 -78 5 -91 27 -69 7 7 13 7
17 0 6 -10 -27 -34 -36 -26 -2 2 -5 -29 -6 -70 l-3 -74 161 0 161 0 -2 72 c-2
65 -9 86 -31 87 -13 0 -9 -28 7 -43 8 -8 11 -17 8 -20 -3 -3 -12 1 -21 9 -12
13 -16 13 -23 2 -7 -10 -9 -10 -9 0 0 18 -70 4 -88 -17 -12 -15 -13 -15 -9 0
3 9 0 22 -6 28 -19 19 -27 12 -17 -15 12 -31 12 -34 1 -34 -5 0 -12 11 -15 25
-4 14 -11 23 -17 20 -7 -5 -6 -11 1 -20 16 -19 -2 -26 -25 -9 -10 8 -13 14 -7
14 7 0 12 7 12 15 0 8 8 15 18 16 11 1 8 4 -8 9 l-25 7 25 12 25 11 -27 -5
c-16 -3 -28 -1 -28 5 0 5 6 10 13 10 9 0 9 2 -1 9 -21 13 25 22 57 10 21 -7
23 -7 11 3 -19 16 -14 48 6 48 8 0 17 6 20 13 7 18 34 18 34 0 0 -8 -4 -11
-10 -8 -12 8 -13 -5 -1 -23 6 -10 10 -9 14 7 7 27 44 28 52 1 3 -11 11 -20 16
-20 5 0 9 -7 9 -15 0 -23 -27 -18 -35 8 -4 12 -7 25 -6 30 1 4 -4 7 -9 7 -10
0 -11 -3 -14 -37 -1 -10 -5 -24 -10 -32 -6 -10 -5 -12 2 -7 7 4 16 -3 21 -17
11 -30 27 -41 36 -27 3 5 0 10 -7 10 -7 1 -2 10 11 21 13 11 30 18 38 15 10
-4 13 11 13 69 l0 75 -160 0 -160 0 0 -80z"/>
<path fill="#ffffff" stroke="none" d="M56 272 c-3 -5 9 -7 27 -5 24 2 27 1
13 -5 -11 -5 -23 -17 -27 -28 -7 -17 -8 -17 -8 -1 -1 20 -17 23 -24 5 -3 -7
-6 -1 -6 15 -1 18 4 27 15 27 8 0 13 -4 10 -8z"/>
<path fill="#ffffff" stroke="none" d="M260 168 c0 -5 -9 -4 -20 2 -11 6 -18
15 -14 21 6 11 34 -7 34 -23z"/>
<path fill="#ffffff" stroke="none" d="M27 98 c-3 -8 -6 -5 -6 6 -1 11 2 17 5
13 3 -3 4 -12 1 -19z"/>
<path fill="#ffffff" stroke="none" d="M187 68 c-3 -8 -6 -5 -6 6 -1 11 2 17
5 13 3 -3 4 -12 1 -19z"/>
<path fill="#ffffff" stroke="none" d="M168 52 c2 -7 -6 -12 -17 -12 -13 0
-21 -7 -22 -17 -1 -12 -4 -10 -9 7 -5 17 -8 19 -9 8 -1 -10 -5 -18 -10 -18 -5
0 -7 9 -4 21 3 11 11 18 19 15 7 -3 16 -1 20 5 7 12 26 7 32 -9z"/>
<path fill="#000000" stroke="none" d="M200 149 c0 -5 -4 -8 -9 -5 -5 3 -11
-1 -14 -9 -5 -11 -1 -12 17 -5 13 5 27 6 31 2 3 -3 3 1 -1 11 -7 19 -24 23
-24 6z"/>
</g>
</svg>
