<?xml version="1.0" standalone="no"?>
<!DOCTYPE svg PUBLIC "-//W3C//DTD SVG 20010904//EN"
 "http://www.w3.org/TR/2001/REC-SVG-20010904/DTD/svg10.dtd">
<svg version="1.0" xmlns="http://www.w3.org/2000/svg"
 width="32.000000pt" height="32.000000pt" viewBox="0 0 32.000000 32.000000"
 preserveAspectRatio="xMidYMid meet">
<metadata>
Created by potrace 1.16, written by Peter Selinger 2001-2019
</metadata>
<g transform="translate(0.000000,32.000000) scale(0.100000,-0.100000)"
fill="#000000" stroke="none">
<path fill="#000000" stroke="none" d="M210 182 c0 -5 -13 -7 -29 -4 -16 2
-32 -1 -35 -7 -4 -6 -2 -11 4 -11 6 0 9 -4 5 -9 -3 -5 -1 -12 5 -16 5 -3 10
-2 10 3 0 6 14 15 31 21 17 6 28 15 24 21 -7 12 -15 13 -15 2z"/>
</g>
</svg>
