<?xml version="1.0" standalone="no"?>
<!DOCTYPE svg PUBLIC "-//W3C//DTD SVG 20010904//EN"
 "http://www.w3.org/TR/2001/REC-SVG-20010904/DTD/svg10.dtd">
<svg version="1.0" xmlns="http://www.w3.org/2000/svg"
 width="32.000000pt" height="32.000000pt" viewBox="0 0 32.000000 32.000000"
 preserveAspectRatio="xMidYMid meet">
<metadata>
Created by potrace 1.16, written by Peter Selinger 2001-2019
</metadata>
<g transform="translate(0.000000,32.000000) scale(0.100000,-0.100000)"
fill="#000000" stroke="none">
<path fill="#000000" stroke="none" d="M0 160 l0 -160 160 0 160 0 0 79 c0 54
-4 81 -12 84 -10 4 -10 6 0 6 8 1 12 23 12 76 l0 75 -160 0 -160 0 0 -160z"/>
<path fill="#ffffff" stroke="none" d="M180 220 c25 -25 26 -37 3 -19 -16 12
-16 11 0 -7 15 -16 19 -17 27 -4 8 12 10 12 16 -3 8 -21 -2 -33 -30 -39 -11
-1 -21 -9 -24 -17 -3 -9 0 -11 9 -6 11 6 11 5 2 -5 -15 -16 -33 -4 -33 21 0
11 -4 18 -8 15 -12 -7 -56 34 -46 43 4 3 9 1 11 -5 2 -6 15 -9 29 -6 23 4 23
5 7 18 -14 11 -14 14 -3 12 8 -2 14 3 13 10 -4 17 4 15 27 -8z"/>
<path fill="#ffffff" stroke="none" d="M130 124 c0 -8 -4 -12 -10 -9 -5 3 -10
10 -10 16 0 5 5 9 10 9 6 0 10 -7 10 -16z"/>
</g>
</svg>
