<?xml version="1.0" standalone="no"?>
<!DOCTYPE svg PUBLIC "-//W3C//DTD SVG 20010904//EN"
 "http://www.w3.org/TR/2001/REC-SVG-20010904/DTD/svg10.dtd">
<svg version="1.0" xmlns="http://www.w3.org/2000/svg"
 width="32.000000pt" height="32.000000pt" viewBox="0 0 32.000000 32.000000"
 preserveAspectRatio="xMidYMid meet">
<metadata>
Created by potrace 1.16, written by Peter Selinger 2001-2019
</metadata>
<g transform="translate(0.000000,32.000000) scale(0.100000,-0.100000)"
fill="#000000" stroke="none">
<path fill="#000000" stroke="none" d="M35 272 c-19 -19 16 -30 43 -13 10 6 7
10 -12 13 -14 3 -28 3 -31 0z"/>
<path fill="#000000" stroke="none" d="M150 257 c-14 -7 -25 -19 -25 -27 0 -8
-10 -17 -23 -20 -13 -3 -23 -9 -22 -14 1 -5 -3 -12 -9 -16 -13 -7 -4 -40 10
-40 5 0 9 -10 9 -22 0 -17 3 -19 9 -9 7 11 10 9 16 -8 3 -12 10 -19 15 -16 5
3 7 12 3 20 -4 11 -1 13 10 9 9 -3 14 -13 11 -22 -5 -15 -4 -15 9 0 8 10 17
15 20 12 3 -3 18 1 34 10 15 8 23 15 16 16 -7 0 -10 7 -6 16 3 9 0 20 -8 26
-10 7 -8 8 9 3 29 -8 61 20 42 38 -10 9 -14 9 -17 0 -7 -18 -33 -16 -33 2 0 8
8 15 18 16 12 0 11 3 -6 10 -13 5 -28 7 -32 4 -5 -3 -12 1 -17 9 -7 13 -13 13
-33 3z"/>
<path fill="#000000" stroke="none" d="M15 160 c-3 -5 1 -10 9 -10 8 0 18 5
21 10 3 6 -1 10 -9 10 -8 0 -18 -4 -21 -10z"/>
<path fill="#000000" stroke="none" d="M135 60 c-3 -6 1 -13 10 -16 19 -8 30
0 20 15 -8 14 -22 14 -30 1z"/>
</g>
</svg>
