<?xml version="1.0" standalone="no"?>
<!DOCTYPE svg PUBLIC "-//W3C//DTD SVG 20010904//EN"
 "http://www.w3.org/TR/2001/REC-SVG-20010904/DTD/svg10.dtd">
<svg version="1.0" xmlns="http://www.w3.org/2000/svg"
 width="32.000000pt" height="32.000000pt" viewBox="0 0 32.000000 32.000000"
 preserveAspectRatio="xMidYMid meet">
<metadata>
Created by potrace 1.16, written by Peter Selinger 2001-2019
</metadata>
<g transform="translate(0.000000,32.000000) scale(0.100000,-0.100000)"
fill="#000000" stroke="none">
<path fill="#000000" stroke="none" d="M0 160 l0 -160 160 0 160 0 0 160 0
160 -160 0 -160 0 0 -160z"/>
<path fill="#ffffff" stroke="none" d="M169 284 c-8 -10 -7 -17 4 -28 21 -21
16 -57 -9 -67 -18 -6 -21 -4 -17 12 3 11 10 22 15 25 10 6 -9 34 -23 34 -5 0
-16 -14 -24 -31 -9 -16 -22 -28 -28 -26 -18 6 -14 32 4 31 13 -1 16 7 15 30
-1 29 1 31 37 33 31 1 36 -1 26 -13z"/>
<path fill="#ffffff" stroke="none" d="M245 290 c-3 -5 -10 -10 -16 -10 -5 0
-9 5 -9 10 0 6 7 10 16 10 8 0 12 -4 9 -10z"/>
<path fill="#ffffff" stroke="none" d="M269 249 c-24 -21 -48 -37 -54 -35 -17
5 -11 31 7 30 9 -1 29 11 44 27 15 16 31 26 37 22 5 -3 -10 -23 -34 -44z"/>
<path fill="#ffffff" stroke="none" d="M57 184 c3 -7 9 -11 14 -8 5 3 9 -2 9
-10 0 -25 -25 -19 -40 9 -7 14 -17 25 -22 25 -4 0 -8 5 -8 10 0 15 40 -7 47
-26z"/>
<path fill="#ffffff" stroke="none" d="M283 203 c-3 -10 -10 -24 -16 -30 -6
-9 -4 -15 7 -19 9 -3 16 -12 16 -19 0 -7 6 -15 13 -18 6 -2 9 -8 5 -11 -10
-12 -64 47 -65 72 -2 20 11 32 44 41 1 1 0 -7 -4 -16z"/>
<path fill="#ffffff" stroke="none" d="M226 178 c4 -6 2 -14 -5 -16 -9 -3 -9
-7 0 -18 6 -8 15 -11 20 -8 5 3 9 1 9 -5 0 -20 -20 -21 -39 -2 -16 16 -19 33
-12 59 2 7 21 0 27 -10z"/>
<path fill="#ffffff" stroke="none" d="M55 130 c0 -7 -10 -17 -23 -21 -13 -5
-21 -5 -19 -1 2 4 7 15 10 25 8 20 32 18 32 -3z"/>
<path fill="#ffffff" stroke="none" d="M95 99 c8 -12 -66 -79 -79 -71 -5 3 2
15 16 26 14 12 28 29 31 39 7 19 22 22 32 6z"/>
<path fill="#ffffff" stroke="none" d="M190 100 c0 -5 -4 -10 -10 -10 -5 0
-10 5 -10 10 0 6 5 10 10 10 6 0 10 -4 10 -10z"/>
<path fill="#ffffff" stroke="none" d="M245 79 c0 -8 -8 -14 -17 -14 -9 0 -27
-10 -40 -22 -15 -14 -34 -21 -52 -20 -37 3 -44 20 -12 35 21 9 23 9 18 -10 -5
-20 -4 -20 26 2 18 13 32 28 32 32 0 5 5 6 10 3 6 -3 10 -1 10 5 0 7 6 10 13
8 6 -3 12 -11 12 -19z"/>
<path fill="#ffffff" stroke="none" d="M300 80 c0 -5 -4 -10 -10 -10 -5 0 -10
5 -10 10 0 6 5 10 10 10 6 0 10 -4 10 -10z"/>
</g>
</svg>
