<?xml version="1.0" standalone="no"?>
<!DOCTYPE svg PUBLIC "-//W3C//DTD SVG 20010904//EN"
 "http://www.w3.org/TR/2001/REC-SVG-20010904/DTD/svg10.dtd">
<svg version="1.0" xmlns="http://www.w3.org/2000/svg"
 width="32.000000pt" height="32.000000pt" viewBox="0 0 32.000000 32.000000"
 preserveAspectRatio="xMidYMid meet">
<metadata>
Created by potrace 1.16, written by Peter Selinger 2001-2019
</metadata>
<g transform="translate(0.000000,32.000000) scale(0.100000,-0.100000)"
fill="#000000" stroke="none">
<path fill="#000000" stroke="none" d="M115 260 c-12 -4 -26 -15 -33 -23 -11
-13 -9 -15 17 -11 35 6 47 -8 24 -27 -12 -10 -14 -10 -9 -1 5 8 1 12 -10 12
-10 0 -14 -3 -11 -7 4 -3 -3 -18 -15 -32 -14 -16 -16 -20 -5 -11 16 12 20 12
27 0 5 -8 6 -18 3 -24 -4 -5 -1 -6 8 0 22 13 56 12 56 -3 0 -7 -7 -13 -14 -13
-8 0 -12 4 -9 8 3 5 -1 9 -9 9 -13 0 -13 -3 0 -17 8 -9 12 -20 8 -25 -5 -4 16
4 44 19 29 14 56 27 60 28 10 3 5 30 -7 42 -5 5 -7 0 -6 -10 5 -29 -3 -35 -24
-17 -18 15 -18 19 -4 34 14 15 13 18 -15 32 -16 8 -33 11 -38 7 -4 -4 -19 -1
-33 6 -22 12 -23 14 -5 15 11 1 24 1 28 0 5 -1 6 3 2 9 -3 5 -7 10 -8 9 -1 0
-11 -4 -22 -9z"/>
<path fill="#ffffff" stroke="none" d="M169 203 c-3 -21 2 -26 12 -13 9 13 10
13 6 -1 -3 -9 -1 -21 5 -27 6 -6 5 -12 -4 -17 -7 -5 -10 -5 -6 0 5 5 -2 13
-14 19 -27 14 -37 46 -14 46 9 0 15 -3 15 -7z"/>
<path fill="#000000" stroke="none" d="M208 86 c-19 -23 -23 -33 -13 -33 8 0
13 3 10 5 -3 3 7 18 22 34 15 15 23 28 17 27 -5 0 -21 -15 -36 -33z"/>
<path fill="#000000" stroke="none" d="M235 71 c-10 -17 12 -21 25 -6 10 12
10 15 -3 15 -9 0 -18 -4 -22 -9z"/>
<path fill="#000000" stroke="none" d="M60 56 c0 -2 7 -7 16 -10 8 -3 12 -2 9
4 -6 10 -25 14 -25 6z"/>
</g>
</svg>
