<?xml version="1.0" standalone="no"?>
<!DOCTYPE svg PUBLIC "-//W3C//DTD SVG 20010904//EN"
 "http://www.w3.org/TR/2001/REC-SVG-20010904/DTD/svg10.dtd">
<svg version="1.0" xmlns="http://www.w3.org/2000/svg"
 width="32.000000pt" height="32.000000pt" viewBox="0 0 32.000000 32.000000"
 preserveAspectRatio="xMidYMid meet">
<metadata>
Created by potrace 1.16, written by Peter Selinger 2001-2019
</metadata>
<g transform="translate(0.000000,32.000000) scale(0.100000,-0.100000)"
fill="#000000" stroke="none">
<path fill="#000000" stroke="none" d="M0 160 l0 -160 160 0 160 0 0 41 c0 29
-3 38 -12 33 -8 -5 -7 0 2 11 9 11 10 16 3 11 -7 -4 -13 -2 -13 3 0 6 5 11 10
11 6 0 10 42 10 105 l0 105 -105 0 c-63 0 -105 -4 -105 -10 0 -5 -5 -10 -11
-10 -5 0 -7 6 -3 13 5 7 0 6 -11 -3 -11 -9 -16 -10 -11 -2 5 9 -4 12 -33 12
l-41 0 0 -160z"/>
<path fill="#ffffff" stroke="none" d="M253 265 c4 3 5 2 2 -2 -3 -3 5 -18 17
-32 18 -20 19 -22 3 -10 -11 9 -26 14 -34 11 -8 -3 -12 1 -9 9 3 8 -2 23 -11
34 -16 20 -16 20 5 2 11 -9 24 -15 27 -12z"/>
<path fill="#ffffff" stroke="none" d="M114 239 c-15 -16 -26 -29 -23 -30 2 0
12 -2 21 -4 9 -2 22 3 29 11 9 12 15 12 27 2 13 -11 14 -11 7 2 -6 11 -3 10
11 -2 16 -14 23 -15 34 -5 7 6 11 8 8 2 -3 -5 -2 -19 2 -30 6 -15 1 -28 -19
-48 -14 -16 -21 -28 -16 -27 21 5 25 -1 15 -20 -6 -11 -16 -20 -23 -20 -7 0
-6 4 3 10 8 5 11 10 6 10 -5 0 -19 -8 -30 -18 -16 -13 -18 -13 -8 -1 10 13 9
19 -6 33 -18 15 -20 15 -36 -3 -17 -18 -17 -20 1 -30 17 -10 17 -10 -3 -11
-11 0 -29 9 -38 19 -17 19 -17 19 5 14 14 -4 20 -2 16 4 -6 9 30 51 39 46 2
-2 4 0 4 5 0 4 -12 7 -27 7 -16 -1 -27 -6 -26 -12 3 -17 -24 -36 -32 -23 -4 6
-3 10 2 9 22 -4 24 3 8 27 -16 25 -16 27 4 48 29 31 14 42 -18 14 -14 -13 -19
-15 -12 -5 7 9 10 17 6 17 -5 0 0 9 10 20 13 14 22 17 30 10 9 -7 16 -6 25 5
7 8 17 12 22 9 5 -3 -3 -19 -18 -35z"/>
<path fill="#ffffff" stroke="none" d="M271 133 c10 -11 10 -14 2 -9 -8 4 -13
2 -13 -7 0 -8 -9 -22 -19 -31 -19 -17 -19 -17 -14 14 3 24 1 30 -8 25 -8 -5
-10 -4 -5 4 6 9 11 9 22 0 13 -10 18 -6 15 14 -2 12 6 8 20 -10z"/>
<path fill="#ffffff" stroke="none" d="M215 51 c3 -5 2 -12 -3 -15 -5 -3 -9 1
-9 9 0 17 3 19 12 6z"/>
<path fill="#000000" stroke="none" d="M110 255 c-10 -12 -16 -13 -26 -4 -8 6
-14 9 -14 6 0 -2 6 -10 13 -16 11 -8 18 -6 32 9 10 11 16 20 13 20 -3 0 -11
-7 -18 -15z"/>
<path fill="#000000" stroke="none" d="M153 185 c0 -11 4 -12 13 -4 9 8 11 5
7 -9 -7 -26 11 -36 28 -15 8 10 9 14 2 10 -6 -4 -14 -3 -18 3 -3 5 0 10 7 10
9 0 9 3 -2 10 -22 14 -37 12 -37 -5z"/>
</g>
</svg>
