<?xml version="1.0" standalone="no"?>
<!DOCTYPE svg PUBLIC "-//W3C//DTD SVG 20010904//EN"
 "http://www.w3.org/TR/2001/REC-SVG-20010904/DTD/svg10.dtd">
<svg version="1.0" xmlns="http://www.w3.org/2000/svg"
 width="32.000000pt" height="32.000000pt" viewBox="0 0 32.000000 32.000000"
 preserveAspectRatio="xMidYMid meet">
<metadata>
Created by potrace 1.16, written by Peter Selinger 2001-2019
</metadata>
<g transform="translate(0.000000,32.000000) scale(0.100000,-0.100000)"
fill="#000000" stroke="none">
<path fill="#000000" stroke="none" d="M100 305 c7 -8 16 -12 21 -9 5 3 9 0 9
-5 0 -6 -7 -11 -15 -11 -8 0 -15 4 -15 9 0 18 -52 -17 -74 -51 -27 -40 -37
-138 -14 -138 8 0 20 -16 27 -35 11 -32 21 -40 44 -36 4 1 24 -6 44 -14 35
-15 78 -12 68 5 -3 4 3 14 13 21 16 13 16 13 2 -5 -14 -18 -13 -19 14 -12 45
11 72 37 85 81 10 34 10 81 1 105 -1 3 -2 12 -1 21 1 8 -14 31 -32 50 -33 34
-37 35 -112 37 -68 2 -76 0 -65 -13z"/>
<path fill="#ffffff" stroke="none" d="M200 280 c-7 -4 -9 -13 -6 -19 4 -6 11
-9 16 -6 5 3 11 1 14 -4 4 -5 1 -13 -5 -17 -8 -5 -9 -3 -4 7 6 11 5 12 -5 2
-8 -7 -15 -20 -16 -29 -2 -13 1 -13 18 3 24 22 21 21 42 4 11 -10 13 -17 6
-26 -7 -9 -6 -16 5 -25 8 -7 15 -9 15 -5 0 4 7 2 15 -5 14 -12 14 -15 -1 -31
-13 -14 -20 -16 -30 -8 -11 9 -15 7 -20 -6 -5 -11 -14 -15 -30 -11 -12 3 -26
1 -29 -4 -5 -8 -11 -8 -19 -1 -10 8 -18 5 -32 -11 -10 -12 -13 -18 -6 -14 7 4
12 1 12 -8 0 -18 -4 -19 -38 -10 -22 6 -22 8 -6 25 21 24 7 25 -26 2 -14 -9
-5 4 20 30 24 25 48 43 52 41 5 -3 6 -9 3 -14 -3 -5 -1 -11 4 -14 5 -4 12 -2
15 3 4 5 2 12 -4 16 -18 11 1 26 23 19 19 -6 20 -5 8 10 -10 11 -17 13 -26 6
-13 -11 -41 11 -29 23 4 4 -3 4 -15 2 l-22 -4 21 30 c12 16 26 29 31 29 6 0 7
5 4 10 -3 6 -1 10 4 10 6 0 11 -6 12 -12 0 -7 5 -3 11 9 6 12 15 20 20 16 6
-3 5 -9 -2 -13z"/>
<path fill="#ffffff" stroke="none" d="M80 245 c-15 -18 -31 -20 -28 -2 3 12
29 28 37 21 2 -2 -2 -10 -9 -19z"/>
<path fill="#ffffff" stroke="none" d="M45 181 c1 -11 -2 -18 -6 -15 -4 2 -10
0 -13 -5 -4 -5 -2 -12 3 -15 10 -7 24 10 28 33 3 20 25 32 39 21 6 -6 13 -8
16 -5 3 3 13 -5 24 -17 10 -12 14 -19 8 -15 -6 3 -21 -4 -34 -18 -20 -21 -24
-22 -37 -9 -16 16 -37 9 -26 -9 3 -7 -3 -4 -14 6 -20 17 -28 52 -10 40 6 -4 7
5 3 23 -6 23 -5 27 5 17 7 -7 13 -22 14 -32z"/>
<path fill="#ffffff" stroke="none" d="M184 58 c-3 -5 -14 -2 -25 8 -10 9 -16
21 -13 26 3 5 14 2 25 -8 10 -9 16 -21 13 -26z"/>
<path fill="#000000" stroke="none" d="M242 208 c2 -7 -5 -13 -14 -13 -9 0
-20 -4 -25 -8 -4 -5 -3 -8 2 -7 23 5 33 -1 30 -17 -1 -10 -7 -17 -13 -16 -11
3 -10 -22 2 -34 4 -4 6 -1 4 7 -3 16 21 21 38 8 7 -5 16 -2 23 6 9 11 9 16 0
22 -7 4 -9 3 -5 -4 3 -6 2 -13 -4 -17 -5 -3 -10 0 -10 8 0 8 -7 20 -15 27 -11
9 -12 16 -5 25 8 9 8 15 0 20 -6 4 -9 1 -8 -7z"/>
<path fill="#000000" stroke="none" d="M97 176 c-9 -7 -17 -17 -17 -21 0 -4 6
-3 13 3 6 6 15 11 20 11 4 1 7 4 8 7 2 12 -7 12 -24 0z"/>
</g>
</svg>
