<?xml version="1.0" standalone="no"?>
<!DOCTYPE svg PUBLIC "-//W3C//DTD SVG 20010904//EN"
 "http://www.w3.org/TR/2001/REC-SVG-20010904/DTD/svg10.dtd">
<svg version="1.0" xmlns="http://www.w3.org/2000/svg"
 width="32.000000pt" height="32.000000pt" viewBox="0 0 32.000000 32.000000"
 preserveAspectRatio="xMidYMid meet">
<metadata>
Created by potrace 1.16, written by Peter Selinger 2001-2019
</metadata>
<g transform="translate(0.000000,32.000000) scale(0.100000,-0.100000)"
fill="#000000" stroke="none">
<path fill="#000000" stroke="none" d="M0 160 l0 -160 160 0 160 0 0 160 0
160 -160 0 -160 0 0 -160z"/>
<path fill="#ffffff" stroke="none" d="M69 296 c9 -11 9 -15 -1 -19 -7 -2 -10
-7 -7 -11 3 -4 17 -3 30 2 20 7 31 2 64 -30 39 -37 39 -38 11 -28 -16 6 -34
18 -41 26 -10 14 -12 14 -24 1 -10 -13 -9 -19 8 -36 20 -20 22 -52 4 -58 -16
-6 -28 18 -14 27 9 5 7 11 -5 21 -12 9 -15 10 -10 2 4 -7 4 -19 -1 -25 -4 -7
-8 -19 -8 -27 0 -7 -10 -17 -21 -22 -19 -6 -21 -5 -16 14 2 12 10 29 17 37 25
32 24 49 -4 73 -22 18 -26 28 -20 45 10 25 22 28 38 8z"/>
<path fill="#ffffff" stroke="none" d="M300 280 c0 -5 -4 -10 -10 -10 -5 0
-10 5 -10 10 0 6 5 10 10 10 6 0 10 -4 10 -10z"/>
<path fill="#ffffff" stroke="none" d="M204 255 c-7 -16 -24 -21 -24 -6 0 8 7
13 27 20 1 1 0 -6 -3 -14z"/>
<path fill="#ffffff" stroke="none" d="M256 239 c10 -17 -13 -36 -27 -22 -12
12 -4 33 11 33 5 0 12 -5 16 -11z"/>
<path fill="#ffffff" stroke="none" d="M303 200 c-3 -11 -9 -17 -14 -14 -5 3
-9 -1 -9 -9 0 -17 -38 -53 -47 -44 -3 4 1 15 10 25 10 10 17 24 17 31 0 6 10
16 23 21 12 5 23 9 24 9 0 1 -1 -8 -4 -19z"/>
<path fill="#ffffff" stroke="none" d="M50 191 c0 -5 -7 -11 -14 -14 -10 -4
-13 -1 -9 9 6 15 23 19 23 5z"/>
<path fill="#ffffff" stroke="none" d="M173 130 c-4 -14 3 -30 18 -46 50 -53
21 -65 -37 -15 -27 23 -27 24 -8 39 16 12 16 14 2 9 -26 -9 -22 12 5 23 12 5
23 9 24 9 0 1 -1 -8 -4 -19z"/>
<path fill="#ffffff" stroke="none" d="M297 130 c1 -11 -2 -20 -8 -20 -10 0
-12 23 -2 33 9 9 9 10 10 -13z"/>
<path fill="#ffffff" stroke="none" d="M116 109 c10 -17 -13 -36 -27 -22 -12
12 -4 33 11 33 5 0 12 -5 16 -11z"/>
<path fill="#ffffff" stroke="none" d="M262 88 c40 -45 37 -70 -4 -32 -18 16
-37 32 -42 36 -8 6 0 28 11 28 4 0 19 -14 35 -32z"/>
<path fill="#ffffff" stroke="none" d="M90 40 c0 -5 -4 -10 -10 -10 -5 0 -10
5 -10 10 0 6 5 10 10 10 6 0 10 -4 10 -10z"/>
</g>
</svg>
