<?xml version="1.0" standalone="no"?>
<!DOCTYPE svg PUBLIC "-//W3C//DTD SVG 20010904//EN"
 "http://www.w3.org/TR/2001/REC-SVG-20010904/DTD/svg10.dtd">
<svg version="1.0" xmlns="http://www.w3.org/2000/svg"
 width="32.000000pt" height="32.000000pt" viewBox="0 0 32.000000 32.000000"
 preserveAspectRatio="xMidYMid meet">
<metadata>
Created by potrace 1.16, written by Peter Selinger 2001-2019
</metadata>
<g transform="translate(0.000000,32.000000) scale(0.100000,-0.100000)"
fill="#000000" stroke="none">
<path fill="#000000" stroke="none" d="M170 219 c0 -5 -5 -7 -12 -3 -6 4 -8 3
-4 -4 3 -6 2 -13 -3 -16 -5 -4 -8 -14 -6 -24 2 -9 4 -19 4 -22 1 -3 5 2 11 10
6 9 5 17 -3 23 -7 5 -3 7 12 3 17 -3 21 -2 13 6 -6 6 -8 17 -5 24 3 8 2 14 -1
14 -3 0 -6 -5 -6 -11z"/>
<path fill="#000000" stroke="none" d="M127 118 c19 -21 31 -25 14 -5 -6 8 -9
16 -6 19 3 2 -2 5 -10 5 -13 0 -13 -3 2 -19z"/>
</g>
</svg>
