<?xml version="1.0" standalone="no"?>
<!DOCTYPE svg PUBLIC "-//W3C//DTD SVG 20010904//EN"
 "http://www.w3.org/TR/2001/REC-SVG-20010904/DTD/svg10.dtd">
<svg version="1.0" xmlns="http://www.w3.org/2000/svg"
 width="32.000000pt" height="32.000000pt" viewBox="0 0 32.000000 32.000000"
 preserveAspectRatio="xMidYMid meet">
<metadata>
Created by potrace 1.16, written by Peter Selinger 2001-2019
</metadata>
<g transform="translate(0.000000,32.000000) scale(0.100000,-0.100000)"
fill="#000000" stroke="none">
<path fill="#000000" stroke="none" d="M0 160 l0 -160 160 0 160 0 0 160 0
160 -160 0 -160 0 0 -160z"/>
<path fill="#ffffff" stroke="none" d="M195 237 c19 -4 19 -5 -2 -6 -18 -1
-21 -6 -19 -43 2 -31 7 -42 20 -44 35 -5 51 -15 38 -23 -21 -13 -82 0 -82 18
0 9 -3 12 -8 6 -4 -5 -14 -9 -22 -9 -8 1 -22 2 -31 3 -20 1 -31 25 -23 46 8
19 30 19 38 0 3 -8 14 -15 25 -15 25 0 35 37 13 50 -14 8 -13 10 8 11 20 1 21
2 6 6 -15 4 -16 7 -5 13 7 5 16 5 19 1 3 -5 14 -11 25 -14z"/>
</g>
</svg>
