<?xml version="1.0" standalone="no"?>
<!DOCTYPE svg PUBLIC "-//W3C//DTD SVG 20010904//EN"
 "http://www.w3.org/TR/2001/REC-SVG-20010904/DTD/svg10.dtd">
<svg version="1.0" xmlns="http://www.w3.org/2000/svg"
 width="32.000000pt" height="32.000000pt" viewBox="0 0 32.000000 32.000000"
 preserveAspectRatio="xMidYMid meet">
<metadata>
Created by potrace 1.16, written by Peter Selinger 2001-2019
</metadata>
<g transform="translate(0.000000,32.000000) scale(0.100000,-0.100000)"
fill="#000000" stroke="none">
<path fill="#000000" stroke="none" d="M26 291 c-4 -7 -5 -15 -2 -18 9 -9 19
4 14 18 -4 11 -6 11 -12 0z"/>
<path fill="#000000" stroke="none" d="M61 281 c-10 -7 -10 -10 -1 -16 6 -4
16 -3 22 3 13 13 -4 23 -21 13z"/>
<path fill="#000000" stroke="none" d="M134 245 c-14 -14 -31 -25 -38 -25 -21
0 -40 -27 -25 -36 9 -5 7 -10 -7 -15 -15 -6 -15 -8 -3 -8 9 -1 22 6 29 14 17
21 32 8 20 -16 -6 -11 -15 -17 -21 -14 -5 4 -9 2 -9 -4 0 -5 -3 -17 -6 -25 -5
-12 -2 -15 10 -10 9 3 13 11 9 17 -3 5 -1 7 5 3 6 -3 13 -2 17 4 4 6 11 8 16
5 5 -4 9 -1 9 6 0 7 3 9 6 6 4 -4 1 -13 -6 -22 -18 -22 6 -19 28 3 10 10 24
16 30 14 7 -2 12 1 12 7 0 6 5 11 10 11 15 0 12 -26 -5 -40 -11 -9 -15 -9 -15
-1 0 14 -44 -14 -46 -29 -1 -6 -2 -18 -4 -27 -1 -12 -3 -14 -7 -5 -4 10 -8 10
-19 1 -17 -14 -9 -29 17 -29 12 0 19 7 19 19 0 37 12 51 41 51 23 0 32 6 39
26 12 32 -3 56 -28 47 -15 -6 -15 -4 1 14 17 20 17 21 -3 26 -11 3 -20 1 -20
-4 0 -5 -4 -9 -10 -9 -5 0 -10 7 -10 15 0 8 -8 15 -17 16 -14 0 -14 2 3 9 28
11 40 30 19 30 -9 0 -27 -11 -41 -25z"/>
<path fill="#ffffff" stroke="none" d="M153 207 c-2 -4 -3 -11 -3 -17 0 -5 -5
-10 -11 -10 -5 0 -7 5 -4 10 3 6 1 10 -4 10 -6 0 -11 4 -11 9 0 5 8 8 18 7 9
-2 16 -6 15 -9z"/>
<path fill="#000000" stroke="none" d="M220 248 c0 -5 -8 -8 -17 -6 -10 1 -20
-1 -23 -6 -8 -14 43 -15 63 -1 17 12 17 13 -3 18 -11 3 -20 1 -20 -5z"/>
<path fill="#000000" stroke="none" d="M260 210 c0 -6 7 -10 15 -10 8 0 15 2
15 4 0 2 -7 6 -15 10 -8 3 -15 1 -15 -4z"/>
<path fill="#000000" stroke="none" d="M235 190 c-8 -13 15 -24 27 -12 6 6 4
11 -6 15 -8 3 -18 2 -21 -3z"/>
<path fill="#000000" stroke="none" d="M0 160 c0 -5 7 -10 16 -10 8 0 12 5 9
10 -3 6 -10 10 -16 10 -5 0 -9 -4 -9 -10z"/>
<path fill="#000000" stroke="none" d="M105 108 c-10 -15 -11 -24 -5 -26 15
-5 20 1 25 27 5 27 0 27 -20 -1z"/>
</g>
</svg>
