<?xml version="1.0" standalone="no"?>
<!DOCTYPE svg PUBLIC "-//W3C//DTD SVG 20010904//EN"
 "http://www.w3.org/TR/2001/REC-SVG-20010904/DTD/svg10.dtd">
<svg version="1.0" xmlns="http://www.w3.org/2000/svg"
 width="32.000000pt" height="32.000000pt" viewBox="0 0 32.000000 32.000000"
 preserveAspectRatio="xMidYMid meet">
<metadata>
Created by potrace 1.16, written by Peter Selinger 2001-2019
</metadata>
<g transform="translate(0.000000,32.000000) scale(0.100000,-0.100000)"
fill="#000000" stroke="none">
<path fill="#000000" stroke="none" d="M161 193 c-1 -6 -10 -14 -20 -18 -11
-3 -22 -12 -25 -21 -4 -11 -2 -12 14 -4 25 13 28 13 33 -7 4 -17 5 -17 6 0 0
9 8 17 16 17 9 0 12 6 9 15 -4 8 -10 13 -14 10 -5 -3 -11 1 -13 7 -4 9 -6 9
-6 1z"/>
</g>
</svg>
