<?xml version="1.0" standalone="no"?>
<!DOCTYPE svg PUBLIC "-//W3C//DTD SVG 20010904//EN"
 "http://www.w3.org/TR/2001/REC-SVG-20010904/DTD/svg10.dtd">
<svg version="1.0" xmlns="http://www.w3.org/2000/svg"
 width="32.000000pt" height="32.000000pt" viewBox="0 0 32.000000 32.000000"
 preserveAspectRatio="xMidYMid meet">
<metadata>
Created by potrace 1.16, written by Peter Selinger 2001-2019
</metadata>
<g transform="translate(0.000000,32.000000) scale(0.100000,-0.100000)"
fill="#000000" stroke="none">
<path fill="#000000" stroke="none" d="M1 203 c0 -63 3 -112 8 -109 4 3 8 -1
8 -9 0 -8 -4 -12 -9 -9 -4 3 -8 -13 -8 -35 l0 -41 69 0 c59 0 69 2 67 18 -1
12 5 16 24 14 13 -1 29 -8 35 -14 7 -8 6 -9 -2 -4 -7 4 -13 2 -13 -3 0 -6 22
-11 50 -11 35 0 50 4 49 12 -1 7 -1 19 0 27 1 19 16 4 16 -16 0 -9 6 -18 12
-20 9 -3 13 7 13 30 0 20 -6 38 -13 41 -9 5 -9 7 1 12 8 4 12 38 12 120 l0
114 -160 -1 -159 -2 0 -114z"/>
<path fill="#ffffff" stroke="none" d="M310 306 c0 -3 -4 -8 -10 -11 -5 -3
-10 -1 -10 4 0 6 5 11 10 11 6 0 10 -2 10 -4z"/>
<path fill="#ffffff" stroke="none" d="M97 240 c-1 -10 -5 -16 -9 -14 -4 3 -8
-5 -8 -17 0 -18 2 -19 15 -9 13 10 15 9 15 -8 0 -35 -20 -35 -35 0 -8 19 -14
25 -15 16 0 -10 -4 -18 -10 -18 -6 0 -6 8 -1 23 5 12 12 30 15 39 7 23 35 12
33 -12z"/>
<path fill="#ffffff" stroke="none" d="M262 242 c-6 -2 -10 -7 -8 -11 3 -4 -4
-8 -15 -8 -12 -1 -19 5 -19 16 0 26 10 32 34 19 13 -7 16 -13 8 -16z"/>
<path fill="#ffffff" stroke="none" d="M133 233 c-5 -13 -3 -15 13 -9 14 5 16
4 8 -4 -6 -6 -18 -8 -28 -4 -13 5 -14 9 -5 20 15 19 20 18 12 -3z"/>
<path fill="#ffffff" stroke="none" d="M196 213 c-10 -10 -19 5 -10 18 6 11 8
11 12 0 2 -7 1 -15 -2 -18z"/>
<path fill="#ffffff" stroke="none" d="M271 179 c12 -12 15 -19 8 -17 -8 3
-21 1 -31 -3 -17 -9 -33 14 -22 32 8 14 22 11 45 -12z"/>
<path fill="#ffffff" stroke="none" d="M83 146 c4 4 7 2 7 -5 0 -7 5 -9 13 -5
9 5 9 4 0 -6 -11 -11 -17 -10 -38 10 -13 12 -22 27 -18 33 3 5 11 0 17 -12 7
-12 15 -18 19 -15z"/>
<path fill="#ffffff" stroke="none" d="M225 131 c-3 -5 3 -16 13 -23 18 -12
28 -53 10 -42 -4 3 -8 -1 -8 -8 0 -8 -5 -7 -17 4 -13 14 -14 20 -3 32 10 13
10 16 -5 16 -14 0 -15 3 -5 15 14 16 25 20 15 6z"/>
<path fill="#ffffff" stroke="none" d="M145 109 c-4 -5 -1 -9 4 -9 6 0 11 -4
11 -10 0 -5 -7 -10 -15 -10 -9 0 -15 10 -15 26 0 14 4 23 10 19 6 -4 8 -11 5
-16z"/>
<path fill="#ffffff" stroke="none" d="M97 81 c-1 -23 -37 -25 -37 -2 0 10 3
20 6 24 11 11 33 -4 31 -22z"/>
</g>
</svg>
