<?xml version="1.0" standalone="no"?>
<!DOCTYPE svg PUBLIC "-//W3C//DTD SVG 20010904//EN"
 "http://www.w3.org/TR/2001/REC-SVG-20010904/DTD/svg10.dtd">
<svg version="1.0" xmlns="http://www.w3.org/2000/svg"
 width="32.000000pt" height="32.000000pt" viewBox="0 0 32.000000 32.000000"
 preserveAspectRatio="xMidYMid meet">
<metadata>
Created by potrace 1.16, written by Peter Selinger 2001-2019
</metadata>
<g transform="translate(0.000000,32.000000) scale(0.100000,-0.100000)"
fill="#000000" stroke="none">
<path fill="#000000" stroke="none" d="M0 160 l0 -160 160 0 160 0 0 160 0
160 -160 0 -160 0 0 -160z"/>
<path fill="#ffffff" stroke="none" d="M110 236 c0 -2 -8 -10 -17 -17 -16 -13
-17 -12 -4 4 13 16 21 21 21 13z"/>
<path fill="#ffffff" stroke="none" d="M260 220 c0 -5 -4 -10 -9 -10 -6 0 -13
5 -16 10 -3 6 1 10 9 10 9 0 16 -4 16 -10z"/>
<path fill="#ffffff" stroke="none" d="M175 210 c4 -6 3 -9 -2 -8 -4 2 -9 0
-10 -4 -2 -5 -1 -7 1 -5 2 1 13 -6 23 -16 11 -9 23 -14 27 -10 4 5 0 -7 -11
-24 l-18 -33 -8 25 c-5 14 -13 25 -18 25 -5 0 -8 3 -8 8 3 18 -3 21 -27 11
-24 -9 -26 -8 -13 7 11 13 31 25 56 33 1 1 5 -4 8 -9z"/>
<path fill="#ffffff" stroke="none" d="M155 122 c-3 -3 0 -11 6 -18 13 -16
-13 -13 -33 4 -8 6 -19 8 -23 4 -5 -4 -5 -1 -1 6 5 7 15 11 23 8 11 -5 13 -2
9 10 -5 14 -4 15 9 4 9 -7 13 -15 10 -18z"/>
<path fill="#ffffff" stroke="none" d="M220 130 c-6 -11 -12 -20 -14 -20 -2 0
-2 9 1 20 3 11 9 20 15 20 5 0 4 -9 -2 -20z"/>
</g>
</svg>
