<?xml version="1.0" standalone="no"?>
<!DOCTYPE svg PUBLIC "-//W3C//DTD SVG 20010904//EN"
 "http://www.w3.org/TR/2001/REC-SVG-20010904/DTD/svg10.dtd">
<svg version="1.0" xmlns="http://www.w3.org/2000/svg"
 width="32.000000pt" height="32.000000pt" viewBox="0 0 32.000000 32.000000"
 preserveAspectRatio="xMidYMid meet">
<metadata>
Created by potrace 1.16, written by Peter Selinger 2001-2019
</metadata>
<g transform="translate(0.000000,32.000000) scale(0.100000,-0.100000)"
fill="#000000" stroke="none">
<path fill="#000000" stroke="none" d="M176 246 c3 -9 12 -16 20 -16 8 0 16 0
19 0 3 0 5 3 4 8 -1 4 -6 6 -11 4 -6 -1 -16 3 -24 9 -12 10 -13 9 -8 -5z"/>
<path fill="#000000" stroke="none" d="M140 220 c-13 -9 -13 -11 0 -20 13 -9
12 -12 -4 -25 -11 -8 -14 -15 -8 -15 7 0 12 -7 12 -16 0 -11 -6 -15 -20 -11
-29 7 -25 -2 6 -13 15 -6 22 -14 18 -22 -5 -7 -3 -8 7 -2 8 5 20 9 28 9 20 0
26 25 7 25 -10 0 -16 9 -16 21 0 13 5 19 13 16 15 -6 41 29 32 43 -3 5 -12 7
-19 4 -8 -3 -17 -1 -21 5 -8 13 -16 14 -35 1z"/>
<path fill="#000000" stroke="none" d="M130 49 c0 -5 5 -7 10 -4 6 3 10 8 10
11 0 2 -4 4 -10 4 -5 0 -10 -5 -10 -11z"/>
</g>
</svg>
