<?xml version="1.0" standalone="no"?>
<!DOCTYPE svg PUBLIC "-//W3C//DTD SVG 20010904//EN"
 "http://www.w3.org/TR/2001/REC-SVG-20010904/DTD/svg10.dtd">
<svg version="1.0" xmlns="http://www.w3.org/2000/svg"
 width="32.000000pt" height="32.000000pt" viewBox="0 0 32.000000 32.000000"
 preserveAspectRatio="xMidYMid meet">
<metadata>
Created by potrace 1.16, written by Peter Selinger 2001-2019
</metadata>
<g transform="translate(0.000000,32.000000) scale(0.100000,-0.100000)"
fill="#000000" stroke="none">
<path fill="#000000" stroke="none" d="M120 241 c0 -6 -9 -13 -20 -16 -16 -5
-20 -15 -19 -43 3 -95 32 -115 83 -58 17 20 41 36 52 36 12 0 29 9 40 21 19
21 18 21 -5 40 -27 22 -37 24 -47 7 -5 -8 -2 -9 10 -5 9 4 14 3 11 -2 -7 -13
-75 -35 -82 -27 -4 3 1 6 10 6 28 0 18 46 -10 48 -13 1 -23 -2 -23 -7z"/>
</g>
</svg>
