<?xml version="1.0" standalone="no"?>
<!DOCTYPE svg PUBLIC "-//W3C//DTD SVG 20010904//EN"
 "http://www.w3.org/TR/2001/REC-SVG-20010904/DTD/svg10.dtd">
<svg version="1.0" xmlns="http://www.w3.org/2000/svg"
 width="32.000000pt" height="32.000000pt" viewBox="0 0 32.000000 32.000000"
 preserveAspectRatio="xMidYMid meet">
<metadata>
Created by potrace 1.16, written by Peter Selinger 2001-2019
</metadata>
<g transform="translate(0.000000,32.000000) scale(0.100000,-0.100000)"
fill="#000000" stroke="none">
<path fill="#000000" stroke="none" d="M179 207 c6 -8 9 -16 6 -19 -3 -2 2 -5
10 -5 13 0 13 3 -2 19 -19 21 -31 25 -14 5z"/>
<path fill="#000000" stroke="none" d="M157 156 c-3 -8 -1 -17 6 -20 7 -4 -1
-4 -18 -1 -25 4 -27 3 -12 -5 9 -6 15 -15 13 -19 -3 -4 1 -8 9 -8 8 0 14 3 13
6 0 3 1 8 2 11 1 3 3 13 5 22 4 22 -11 33 -18 14z"/>
</g>
</svg>
