<?xml version="1.0" standalone="no"?>
<!DOCTYPE svg PUBLIC "-//W3C//DTD SVG 20010904//EN"
 "http://www.w3.org/TR/2001/REC-SVG-20010904/DTD/svg10.dtd">
<svg version="1.0" xmlns="http://www.w3.org/2000/svg"
 width="32.000000pt" height="32.000000pt" viewBox="0 0 32.000000 32.000000"
 preserveAspectRatio="xMidYMid meet">
<metadata>
Created by potrace 1.16, written by Peter Selinger 2001-2019
</metadata>
<g transform="translate(0.000000,32.000000) scale(0.100000,-0.100000)"
fill="#000000" stroke="none">
<path fill="#000000" stroke="none" d="M14 296 c1 -11 8 -22 14 -24 7 -2 12
-9 12 -16 0 -7 6 -13 14 -13 8 0 12 6 9 13 -5 14 31 37 41 26 4 -3 4 1 0 11
-3 9 -10 17 -16 17 -5 0 -6 -4 -3 -10 3 -5 2 -10 -3 -10 -6 0 -12 7 -16 15 -3
9 -16 14 -30 13 -19 -2 -24 -7 -22 -22z"/>
<path fill="#ffffff" stroke="none" d="M66 281 c-3 -5 -15 -7 -26 -4 -28 7
-25 13 6 13 14 0 23 -4 20 -9z"/>
<path fill="#000000" stroke="none" d="M130 316 c0 -2 16 -13 35 -25 27 -16
35 -17 35 -6 0 7 -5 17 -10 20 -13 8 -60 17 -60 11z"/>
<path fill="#000000" stroke="none" d="M255 291 c4 -12 2 -21 -4 -21 -6 0 -11
7 -11 16 0 13 -3 14 -15 4 -19 -16 -10 -30 21 -30 17 0 24 5 24 19 0 11 -5 23
-11 27 -8 4 -9 0 -4 -15z"/>
<path fill="#000000" stroke="none" d="M100 250 c-8 -5 -12 -12 -9 -15 4 -3
12 1 19 10 14 17 11 19 -10 5z"/>
<path fill="#000000" stroke="none" d="M210 223 c0 -9 6 -13 15 -9 11 4 14 -2
11 -27 -3 -26 -2 -29 8 -15 8 11 17 14 27 8 11 -8 10 -12 -10 -26 -12 -9 -19
-19 -15 -23 28 -20 42 -47 33 -61 -9 -12 -10 -11 -4 5 6 19 5 19 -12 2 -16
-15 -16 -19 -3 -27 13 -8 13 -10 -2 -10 -9 0 -18 5 -20 10 -2 6 -12 12 -23 14
-11 2 -28 8 -39 12 -14 5 -17 3 -14 -7 2 -7 16 -13 30 -14 30 0 50 -14 25 -16
-30 -2 -35 -4 -43 -11 -4 -4 -13 -3 -21 3 -10 9 -13 8 -13 -4 0 -9 -8 -18 -17
-20 -10 -3 1 -5 24 -6 23 0 43 3 45 7 4 12 68 24 68 13 0 -5 6 -11 14 -14 10
-4 12 0 8 15 -3 14 3 26 19 39 l24 18 -28 25 -28 24 27 21 c22 17 24 23 14 36
-7 9 -21 13 -31 10 -14 -5 -17 -1 -14 18 4 21 1 24 -25 25 -21 0 -30 -4 -30
-15z"/>
<path fill="#000000" stroke="none" d="M5 210 c-3 -6 1 -7 9 -4 18 7 21 14 7
14 -6 0 -13 -4 -16 -10z"/>
<path fill="#000000" stroke="none" d="M40 205 c0 -8 8 -15 18 -15 10 0 23 -5
29 -11 8 -8 13 -8 17 0 4 6 2 11 -4 11 -6 0 -8 4 -5 10 3 5 0 7 -8 4 -8 -3
-18 -1 -22 5 -9 16 -25 13 -25 -4z"/>
<path fill="#000000" stroke="none" d="M150 206 c0 -8 5 -18 10 -21 6 -3 10
-1 10 5 0 6 5 8 11 4 7 -4 10 -1 7 7 -7 20 -38 24 -38 5z"/>
<path fill="#000000" stroke="none" d="M127 179 c7 -7 15 -10 18 -7 3 3 -2 9
-12 12 -14 6 -15 5 -6 -5z"/>
<path fill="#000000" stroke="none" d="M24 168 c-5 -7 -1 -9 9 -5 10 3 17 2
17 -3 0 -9 -14 -14 -32 -11 -13 2 -9 -57 4 -65 6 -4 13 -3 15 3 2 6 12 9 22 6
10 -3 22 0 25 6 4 7 -6 9 -31 6 -38 -5 -38 -5 -15 13 30 23 36 57 11 59 -10 1
-22 -3 -25 -9z"/>
<path fill="#000000" stroke="none" d="M155 161 c-3 -5 -2 -12 3 -15 5 -3 9 1
9 9 0 17 -3 19 -12 6z"/>
<path fill="#000000" stroke="none" d="M93 152 c-31 -5 -29 -20 4 -33 18 -7
30 -6 37 1 15 15 -13 37 -41 32z"/>
<path fill="#000000" stroke="none" d="M180 135 c-7 -9 -10 -18 -6 -22 3 -3 6
-1 6 6 0 7 4 10 8 7 5 -3 9 1 9 9 0 19 -2 19 -17 0z"/>
<path fill="#000000" stroke="none" d="M199 103 c-13 -16 -12 -17 4 -4 9 7 17
15 17 17 0 8 -8 3 -21 -13z"/>
<path fill="#000000" stroke="none" d="M230 108 c0 -9 -6 -19 -12 -21 -8 -3
-7 -6 4 -6 22 -1 33 18 19 32 -8 8 -11 7 -11 -5z"/>
<path fill="#000000" stroke="none" d="M80 70 c-10 -6 -7 -10 13 -16 34 -8 42
-2 18 13 -10 6 -24 8 -31 3z"/>
</g>
</svg>
