<?xml version="1.0" standalone="no"?>
<!DOCTYPE svg PUBLIC "-//W3C//DTD SVG 20010904//EN"
 "http://www.w3.org/TR/2001/REC-SVG-20010904/DTD/svg10.dtd">
<svg version="1.0" xmlns="http://www.w3.org/2000/svg"
 width="32.000000pt" height="32.000000pt" viewBox="0 0 32.000000 32.000000"
 preserveAspectRatio="xMidYMid meet">
<metadata>
Created by potrace 1.16, written by Peter Selinger 2001-2019
</metadata>
<g transform="translate(0.000000,32.000000) scale(0.100000,-0.100000)"
fill="#000000" stroke="none">
<path fill="#000000" stroke="none" d="M36 304 c-12 -12 -13 -20 -6 -35 6 -11
8 -25 4 -31 -4 -7 -3 -8 4 -4 7 4 12 2 12 -4 0 -6 -8 -10 -17 -8 -10 2 -17 11
-15 20 1 9 -2 19 -8 23 -6 4 -10 -26 -10 -89 0 -104 4 -112 57 -107 24 2 33
-2 33 -12 0 -22 40 -65 46 -49 3 6 19 12 35 12 17 0 28 -4 25 -8 -2 -4 4 -9
15 -9 12 -1 19 3 16 10 -2 7 -9 12 -14 12 -6 0 -15 3 -19 8 -12 12 35 8 56 -5
17 -11 22 -10 30 1 6 10 3 19 -7 27 -14 10 -13 13 13 25 27 13 29 18 29 69 0
54 -1 55 -28 53 -17 -1 -25 2 -21 8 3 6 12 8 20 5 9 -4 18 4 25 21 8 21 6 30
-12 49 -22 23 -31 24 -91 7 -12 -3 -18 1 -18 11 0 19 -36 22 -43 4 -4 -10 -6
-10 -6 0 -1 9 -8 8 -26 -4 -14 -9 -28 -14 -32 -10 -3 3 -1 6 6 6 7 0 9 5 6 10
-9 15 -42 12 -59 -6z"/>
<path fill="#ffffff" stroke="none" d="M300 140 c0 -5 -7 -7 -15 -4 -8 4 -15
8 -15 10 0 2 7 4 15 4 8 0 15 -4 15 -10z"/>
</g>
</svg>
