<?xml version="1.0" standalone="no"?>
<!DOCTYPE svg PUBLIC "-//W3C//DTD SVG 20010904//EN"
 "http://www.w3.org/TR/2001/REC-SVG-20010904/DTD/svg10.dtd">
<svg version="1.0" xmlns="http://www.w3.org/2000/svg"
 width="32.000000pt" height="32.000000pt" viewBox="0 0 32.000000 32.000000"
 preserveAspectRatio="xMidYMid meet">
<metadata>
Created by potrace 1.16, written by Peter Selinger 2001-2019
</metadata>
<g transform="translate(0.000000,32.000000) scale(0.100000,-0.100000)"
fill="#000000" stroke="none">
<path fill="#000000" stroke="none" d="M0 160 l0 -160 160 0 160 0 0 160 0
160 -160 0 -160 0 0 -160z"/>
<path fill="#ffffff" stroke="none" d="M208 242 c5 2 10 0 11 -4 1 -5 -1 -8
-4 -8 -3 0 -11 0 -19 0 -8 0 -17 7 -20 16 -5 14 -4 15 8 5 8 -6 18 -10 24 -9z"/>
<path fill="#ffffff" stroke="none" d="M175 219 c4 -6 13 -8 21 -5 7 3 16 1
19 -4 9 -14 -17 -49 -32 -43 -8 3 -13 -3 -13 -16 0 -12 6 -21 16 -21 19 0 13
-25 -7 -25 -8 0 -20 -4 -28 -9 -10 -6 -12 -5 -7 2 4 8 -3 16 -18 22 -31 11
-35 20 -6 13 14 -4 20 0 20 11 0 9 -5 16 -12 16 -6 0 -3 7 8 15 16 13 17 16 4
25 -13 9 -13 11 0 20 19 13 27 12 35 -1z"/>
<path fill="#ffffff" stroke="none" d="M150 56 c0 -3 -4 -8 -10 -11 -5 -3 -10
-1 -10 4 0 6 5 11 10 11 6 0 10 -2 10 -4z"/>
</g>
</svg>
