<?xml version="1.0" standalone="no"?>
<!DOCTYPE svg PUBLIC "-//W3C//DTD SVG 20010904//EN"
 "http://www.w3.org/TR/2001/REC-SVG-20010904/DTD/svg10.dtd">
<svg version="1.0" xmlns="http://www.w3.org/2000/svg"
 width="32.000000pt" height="32.000000pt" viewBox="0 0 32.000000 32.000000"
 preserveAspectRatio="xMidYMid meet">
<metadata>
Created by potrace 1.16, written by Peter Selinger 2001-2019
</metadata>
<g transform="translate(0.000000,32.000000) scale(0.100000,-0.100000)"
fill="#000000" stroke="none">
<path fill="#000000" stroke="none" d="M89 223 c-13 -16 -12 -17 4 -4 9 7 17
15 17 17 0 8 -8 3 -21 -13z"/>
<path fill="#000000" stroke="none" d="M144 210 c-11 -4 -26 -15 -33 -24 -13
-15 -11 -16 11 -7 30 11 38 7 31 -19 -3 -11 -10 -17 -17 -13 -6 3 -3 -3 7 -14
9 -11 14 -23 10 -27 -5 -4 7 0 24 11 l33 18 -25 8 c-25 9 -31 18 -18 30 3 4
12 2 20 -4 7 -6 13 -8 13 -4 0 4 6 2 14 -4 11 -10 14 -9 12 2 -5 37 -46 60
-82 47z"/>
<path fill="#ffffff" stroke="none" d="M200 185 c0 -4 -23 -2 -48 4 -2 1 0 6
3 11 6 10 45 -4 45 -15z"/>
<path fill="#000000" stroke="none" d="M105 120 c-3 -6 1 -7 9 -4 18 7 21 14
7 14 -6 0 -13 -4 -16 -10z"/>
<path fill="#000000" stroke="none" d="M188 113 c-10 -2 -18 -9 -18 -14 0 -6
8 -5 20 1 11 6 20 13 20 15 0 3 -1 4 -2 4 -2 -1 -11 -3 -20 -6z"/>
<path fill="#000000" stroke="none" d="M90 76 c0 -9 5 -16 10 -16 6 0 10 4 10
9 0 6 -4 13 -10 16 -5 3 -10 -1 -10 -9z"/>
</g>
</svg>
