<?xml version="1.0" standalone="no"?>
<!DOCTYPE svg PUBLIC "-//W3C//DTD SVG 20010904//EN"
 "http://www.w3.org/TR/2001/REC-SVG-20010904/DTD/svg10.dtd">
<svg version="1.0" xmlns="http://www.w3.org/2000/svg"
 width="32.000000pt" height="32.000000pt" viewBox="0 0 32.000000 32.000000"
 preserveAspectRatio="xMidYMid meet">
<metadata>
Created by potrace 1.16, written by Peter Selinger 2001-2019
</metadata>
<g transform="translate(0.000000,32.000000) scale(0.100000,-0.100000)"
fill="#000000" stroke="none">
<path fill="#000000" stroke="none" d="M75 309 c-3 -4 2 -6 10 -5 21 3 28 13
10 13 -9 0 -18 -4 -20 -8z"/>
<path fill="#000000" stroke="none" d="M146 283 c-4 -5 -12 -8 -16 -8 -5 0
-16 -9 -25 -20 -11 -15 -13 -15 -9 -3 3 10 1 16 -8 14 -22 -3 -35 -15 -41 -37
-5 -20 -5 -20 13 -4 18 16 23 4 8 -20 -3 -5 -4 -27 -2 -48 2 -27 0 -36 -9 -30
-8 5 -8 2 1 -9 9 -12 10 -18 2 -23 -8 -5 -8 -11 1 -21 13 -16 33 -8 22 9 -13
22 -11 35 6 32 10 -1 15 -10 13 -23 -2 -11 2 -23 8 -27 6 -4 9 -1 8 6 -2 6 3
14 10 16 6 3 12 0 12 -7 0 -8 6 -8 20 0 14 7 26 8 38 1 14 -9 13 -10 -10 -11
-16 0 -28 -4 -28 -9 0 -5 16 -9 35 -9 24 0 33 4 28 12 -4 6 2 4 12 -4 10 -8
16 -10 12 -3 -4 7 1 14 12 18 16 5 32 30 36 55 0 3 4 12 10 20 8 13 7 13 -8 1
-9 -7 -14 -18 -10 -24 3 -6 1 -7 -6 -3 -6 4 -9 11 -6 15 4 8 -33 48 -41 44
-12 -8 -15 -1 -5 10 6 8 9 17 6 20 -3 4 -2 4 3 1 4 -3 7 -10 7 -16 0 -6 8 -12
17 -14 16 -2 16 0 3 25 -14 28 -45 59 -45 46 0 -4 -8 -1 -17 6 -15 11 -16 11
-6 0 6 -7 9 -20 6 -29 -5 -11 -3 -13 6 -7 7 4 5 -4 -4 -19 -10 -15 -20 -24
-23 -21 -3 2 -10 0 -17 -5 -8 -7 -12 -5 -12 5 0 8 3 12 6 10 4 -2 15 3 26 11
10 8 13 14 6 14 -7 0 -10 4 -6 9 3 5 0 13 -6 17 -7 4 -9 3 -5 -4 4 -7 -5 -10
-28 -9 -26 2 -32 5 -24 15 6 6 16 12 23 12 6 0 12 7 12 15 0 17 -1 18 -11 8z"/>
<path fill="#ffffff" stroke="none" d="M145 220 c-3 -5 -12 -10 -18 -10 -7 0
-6 4 3 10 19 12 23 12 15 0z"/>
<path fill="#ffffff" stroke="none" d="M93 195 c-3 -9 -8 -14 -10 -11 -3 3 -2
9 2 15 9 16 15 13 8 -4z"/>
<path fill="#ffffff" stroke="none" d="M123 155 c-20 -27 -33 -32 -33 -12 0
10 18 23 48 36 2 0 -5 -10 -15 -24z"/>
<path fill="#ffffff" stroke="none" d="M257 127 c2 -30 0 -32 -29 -34 -25 -1
-28 1 -15 9 9 5 17 15 17 21 0 10 19 37 25 37 0 0 1 -15 2 -33z"/>
<path fill="#ffffff" stroke="none" d="M175 141 c3 -5 2 -12 -3 -15 -5 -3 -9
1 -9 9 0 17 3 19 12 6z"/>
<path fill="#000000" stroke="none" d="M259 253 c24 -36 38 -44 22 -14 -6 10
-7 22 -3 27 4 5 3 6 -2 2 -5 -4 -16 -2 -25 5 -8 6 -5 -3 8 -20z"/>
<path fill="#000000" stroke="none" d="M19 233 c-13 -16 -12 -17 4 -4 16 13
21 21 13 21 -2 0 -10 -8 -17 -17z"/>
<path fill="#000000" stroke="none" d="M29 155 c-1 -11 -3 -30 -4 -42 -4 -35
12 -27 19 9 3 17 2 36 -4 42 -7 7 -10 4 -11 -9z"/>
<path fill="#000000" stroke="none" d="M30 67 c8 -8 30 -19 49 -26 29 -9 32
-9 21 4 -7 9 -15 13 -18 11 -2 -3 -19 2 -36 10 -26 13 -28 14 -16 1z"/>
<path fill="#000000" stroke="none" d="M270 70 c-8 -26 -7 -41 2 -32 6 6 8 16
5 24 -3 7 -6 11 -7 8z"/>
<path fill="#000000" stroke="none" d="M225 30 c4 -6 11 -8 16 -5 14 9 11 15
-7 15 -8 0 -12 -5 -9 -10z"/>
<path fill="#000000" stroke="none" d="M188 13 c6 -2 18 -2 25 0 6 3 1 5 -13
5 -14 0 -19 -2 -12 -5z"/>
</g>
</svg>
