<?xml version="1.0" standalone="no"?>
<!DOCTYPE svg PUBLIC "-//W3C//DTD SVG 20010904//EN"
 "http://www.w3.org/TR/2001/REC-SVG-20010904/DTD/svg10.dtd">
<svg version="1.0" xmlns="http://www.w3.org/2000/svg"
 width="32.000000pt" height="32.000000pt" viewBox="0 0 32.000000 32.000000"
 preserveAspectRatio="xMidYMid meet">
<metadata>
Created by potrace 1.16, written by Peter Selinger 2001-2019
</metadata>
<g transform="translate(0.000000,32.000000) scale(0.100000,-0.100000)"
fill="#000000" stroke="none">
<path fill="#000000" stroke="none" d="M0 160 l0 -160 160 0 160 0 0 160 0
160 -160 0 -160 0 0 -160z"/>
<path fill="#ffffff" stroke="none" d="M104 229 c-3 -5 0 -8 8 -7 7 2 12 -3
10 -10 -1 -8 2 -11 7 -8 13 8 62 -34 55 -46 -4 -6 -2 -8 3 -5 16 10 34 -18 27
-39 -4 -13 -3 -15 3 -6 10 14 35 -8 69 -62 l18 -29 -32 17 c-18 9 -30 21 -27
27 4 5 1 8 -7 7 -7 -2 -12 3 -10 10 1 8 -2 11 -7 7 -6 -3 -28 11 -51 31 -31
28 -39 42 -35 58 4 14 3 17 -3 8 -9 -13 -30 5 -71 66 l-23 32 36 -21 c20 -11
33 -25 30 -30z"/>
<path fill="#000000" stroke="none" d="M165 130 c4 -6 11 -8 16 -5 14 9 11 15
-7 15 -8 0 -12 -5 -9 -10z"/>
</g>
</svg>
