<?xml version="1.0" standalone="no"?>
<!DOCTYPE svg PUBLIC "-//W3C//DTD SVG 20010904//EN"
 "http://www.w3.org/TR/2001/REC-SVG-20010904/DTD/svg10.dtd">
<svg version="1.0" xmlns="http://www.w3.org/2000/svg"
 width="32.000000pt" height="32.000000pt" viewBox="0 0 32.000000 32.000000"
 preserveAspectRatio="xMidYMid meet">
<metadata>
Created by potrace 1.16, written by Peter Selinger 2001-2019
</metadata>
<g transform="translate(0.000000,32.000000) scale(0.100000,-0.100000)"
fill="#000000" stroke="none">
<path fill="#000000" stroke="none" d="M0 160 l0 -160 160 0 160 0 0 160 0
160 -76 0 c-74 0 -76 -1 -70 -22 12 -41 19 -184 12 -231 -10 -63 -32 -63 -42
0 -7 47 0 190 12 231 6 22 5 22 -75 22 l-81 0 0 -160z"/>
<path fill="#000000" stroke="none" d="M157 226 c-10 -69 -9 -124 3 -131 15
-9 25 24 11 38 -6 6 -11 16 -11 21 0 6 5 4 10 -4 5 -8 10 -10 10 -5 0 6 -4 17
-10 25 -5 8 -6 17 -2 20 4 3 5 23 2 45 l-5 40 -8 -49z"/>
<path fill="#000000" stroke="none" d="M155 70 c3 -5 10 -10 16 -10 5 0 9 5 9
10 0 6 -7 10 -16 10 -8 0 -12 -4 -9 -10z"/>
</g>
</svg>
