<?xml version="1.0" standalone="no"?>
<!DOCTYPE svg PUBLIC "-//W3C//DTD SVG 20010904//EN"
 "http://www.w3.org/TR/2001/REC-SVG-20010904/DTD/svg10.dtd">
<svg version="1.0" xmlns="http://www.w3.org/2000/svg"
 width="32.000000pt" height="32.000000pt" viewBox="0 0 32.000000 32.000000"
 preserveAspectRatio="xMidYMid meet">
<metadata>
Created by potrace 1.16, written by Peter Selinger 2001-2019
</metadata>
<g transform="translate(0.000000,32.000000) scale(0.100000,-0.100000)"
fill="#000000" stroke="none">
<path fill="#000000" stroke="none" d="M267 284 c-15 -8 -25 -19 -22 -25 4 -5
1 -8 -7 -7 -7 2 -12 -3 -10 -10 1 -8 -2 -11 -9 -7 -12 8 -103 -84 -150 -151
l-30 -44 36 21 c19 12 32 25 29 30 -3 5 0 8 8 7 7 -2 12 3 10 10 -1 8 2 11 7
8 13 -8 62 34 55 46 -4 6 -2 8 3 5 16 -10 34 18 27 39 -4 13 -3 15 3 6 10 -13
35 8 68 61 20 31 20 31 -18 11z"/>
<path fill="#ffffff" stroke="none" d="M182 181 c-5 -3 -11 -15 -13 -26 -3
-11 -13 -21 -23 -23 -12 -3 -17 1 -13 10 2 7 10 12 17 10 7 -2 10 3 7 11 -6
17 12 39 26 30 6 -3 5 -8 -1 -12z"/>
</g>
</svg>
