<?xml version="1.0" standalone="no"?>
<!DOCTYPE svg PUBLIC "-//W3C//DTD SVG 20010904//EN"
 "http://www.w3.org/TR/2001/REC-SVG-20010904/DTD/svg10.dtd">
<svg version="1.0" xmlns="http://www.w3.org/2000/svg"
 width="32.000000pt" height="32.000000pt" viewBox="0 0 32.000000 32.000000"
 preserveAspectRatio="xMidYMid meet">
<metadata>
Created by potrace 1.16, written by Peter Selinger 2001-2019
</metadata>
<g transform="translate(0.000000,32.000000) scale(0.100000,-0.100000)"
fill="#000000" stroke="none">
<path fill="#000000" stroke="none" d="M77 299 c-4 -16 -10 -19 -28 -14 -19 6
-21 4 -16 -14 3 -14 -1 -24 -13 -31 -14 -8 -17 -18 -14 -47 3 -21 6 -63 7 -93
2 -43 6 -55 19 -54 10 1 14 -5 11 -17 -4 -14 3 -19 41 -24 31 -5 51 -3 61 5 8
7 15 8 15 3 0 -5 9 -9 20 -10 11 -1 20 2 20 6 0 10 42 8 58 -3 8 -5 18 -4 24
2 6 6 6 12 -1 16 -6 4 -11 12 -11 19 0 8 3 8 12 -1 7 -7 16 -12 20 -12 12 0 9
38 -4 46 -8 5 -6 11 6 20 15 11 17 24 12 89 -6 84 -25 120 -58 109 -12 -3 -18
0 -18 10 0 19 -21 21 -39 4 -11 -10 -14 -10 -18 0 -3 6 -11 12 -19 12 -9 0
-13 -3 -11 -7 3 -5 -8 -8 -23 -8 -15 0 -26 3 -23 8 2 4 -2 7 -10 7 -8 0 -17
-9 -20 -21z"/>
<path fill="#ffffff" stroke="none" d="M260 64 c0 -8 -19 -13 -24 -6 -3 5 1 9
9 9 8 0 15 -2 15 -3z"/>
</g>
</svg>
