<?xml version="1.0" standalone="no"?>
<!DOCTYPE svg PUBLIC "-//W3C//DTD SVG 20010904//EN"
 "http://www.w3.org/TR/2001/REC-SVG-20010904/DTD/svg10.dtd">
<svg version="1.0" xmlns="http://www.w3.org/2000/svg"
 width="32.000000pt" height="32.000000pt" viewBox="0 0 32.000000 32.000000"
 preserveAspectRatio="xMidYMid meet">
<metadata>
Created by potrace 1.16, written by Peter Selinger 2001-2019
</metadata>
<g transform="translate(0.000000,32.000000) scale(0.100000,-0.100000)"
fill="#000000" stroke="none">
<path fill="#000000" stroke="none" d="M5 310 c3 -5 8 -10 11 -10 2 0 4 5 4
10 0 6 -5 10 -11 10 -5 0 -7 -4 -4 -10z"/>
<path fill="#000000" stroke="none" d="M71 308 c-1 -9 -7 -19 -13 -21 -10 -4
-10 -6 0 -6 6 -1 12 -8 12 -16 0 -18 -46 -21 -53 -2 -3 7 -6 5 -6 -5 -1 -10 4
-18 9 -18 6 0 10 -7 10 -15 0 -8 -4 -15 -10 -15 -5 0 -10 -8 -9 -17 0 -11 3
-13 6 -5 6 16 30 16 36 0 3 -8 6 -6 6 5 1 9 -3 17 -9 17 -5 0 -10 7 -10 15 0
10 11 15 35 15 24 0 35 -5 35 -15 0 -8 -4 -15 -10 -15 -5 0 -10 -8 -9 -17 0
-11 3 -13 6 -5 2 6 11 12 18 12 7 0 16 -6 18 -12 3 -8 6 -6 6 5 1 9 -3 17 -9
17 -5 0 -10 7 -10 15 0 8 5 15 10 15 6 0 10 8 9 18 0 10 -3 12 -6 5 -7 -19
-53 -16 -53 2 0 8 6 15 13 15 8 0 9 3 1 8 -6 4 -14 14 -17 22 -4 12 -6 12 -6
-2z"/>
<path fill="#000000" stroke="none" d="M100 310 c-10 -6 -11 -10 -2 -10 6 0
12 -6 12 -14 0 -8 -6 -17 -12 -19 -8 -3 -6 -6 5 -6 9 -1 17 4 17 9 0 6 7 10
15 10 18 0 21 -46 3 -53 -10 -4 -10 -6 0 -6 17 -1 16 -51 -2 -51 -8 0 -17 6
-19 13 -4 10 -6 10 -6 0 -1 -7 -8 -13 -16 -13 -18 0 -21 46 -2 53 6 3 -1 5
-18 5 -16 0 -24 -2 -17 -5 17 -7 15 -53 -2 -53 -8 0 -17 6 -19 13 -4 10 -6 10
-6 0 -1 -7 -8 -13 -17 -13 -11 0 -14 -6 -8 -22 3 -13 11 -24 15 -26 14 -6 10
-24 -8 -37 -11 -8 -13 -14 -5 -19 7 -4 12 -2 12 3 0 6 11 11 25 11 26 0 35
-24 13 -33 -10 -4 -10 -6 0 -6 6 -1 12 -8 12 -16 0 -18 -46 -21 -52 -3 -3 7
-7 6 -11 -5 -6 -16 7 -17 153 -17 l160 0 -1 163 c0 89 -3 155 -6 147 -3 -8
-11 -18 -17 -22 -8 -5 -7 -8 2 -8 6 0 12 -7 12 -15 0 -18 -46 -21 -53 -2 -3 6
-5 -1 -5 -18 0 -16 2 -24 5 -17 2 6 9 12 14 12 4 0 6 -7 3 -15 -12 -30 -34
-16 -34 20 0 24 5 35 15 35 8 0 15 -4 15 -10 0 -5 8 -10 18 -9 10 0 12 3 5 6
-7 2 -13 11 -13 18 0 7 6 15 13 18 6 2 9 7 6 11 -4 4 -14 0 -22 -9 -18 -17
-37 -20 -37 -5 0 6 -8 10 -17 9 -11 0 -13 -3 -5 -6 17 -7 15 -53 -2 -53 -8 0
-17 6 -19 13 -4 10 -6 10 -6 0 -1 -16 -31 -17 -31 -2 0 5 5 7 10 4 6 -3 10 -1
10 4 0 15 27 14 33 -1 3 -8 6 -6 6 5 1 9 -3 17 -8 17 -5 0 -12 8 -14 18 -4 15
-5 15 -6 1 -1 -18 -31 -35 -31 -19 0 6 5 10 11 10 5 0 7 5 3 12 -5 8 -11 6
-19 -5 -15 -21 -32 -22 -37 -2 -2 10 -7 12 -18 5z"/>
<path fill="#ffffff" stroke="none" d="M191 228 c0 -10 2 -10 6 0 2 6 11 12
19 12 17 0 19 -46 2 -53 -8 -3 -6 -6 5 -6 9 -1 17 4 17 9 0 6 7 10 16 10 14 0
14 -2 0 -15 -8 -8 -24 -15 -35 -15 -12 0 -21 6 -21 15 0 8 5 15 10 15 6 0 10
8 9 18 0 10 -3 12 -6 5 -2 -7 -11 -13 -18 -13 -7 0 -16 6 -18 13 -3 7 -6 5 -6
-5 -1 -10 4 -18 9 -18 15 0 12 -30 -2 -31 -10 0 -10 -2 0 -6 14 -6 16 -33 2
-33 -5 0 -10 -8 -9 -17 0 -11 3 -13 6 -5 6 16 30 16 36 0 3 -8 6 -6 6 5 1 9
-3 17 -9 17 -5 0 -10 7 -10 15 0 18 50 21 51 3 0 -10 2 -10 6 0 7 18 53 15 53
-3 0 -8 -6 -15 -12 -16 -10 0 -10 -2 0 -6 6 -2 12 -11 12 -19 0 -17 -46 -19
-53 -1 -3 6 -6 -1 -6 -18 -1 -23 2 -26 9 -15 8 13 10 12 10 -2 0 -10 -7 -18
-15 -18 -10 0 -15 11 -15 35 0 24 5 35 15 35 8 0 15 -4 15 -10 0 -5 8 -10 18
-9 10 0 12 3 5 6 -7 2 -13 11 -13 18 0 7 6 16 13 18 7 3 5 6 -5 6 -10 1 -18
-3 -18 -9 0 -5 -7 -10 -15 -10 -8 0 -15 5 -15 10 0 6 -8 10 -17 9 -11 0 -13
-3 -5 -6 18 -7 15 -53 -3 -53 -8 0 -15 6 -16 13 0 10 -2 10 -6 0 -9 -23 -33
-14 -33 12 0 14 5 25 11 25 8 0 7 5 -2 16 -10 13 -10 17 2 25 10 6 10 9 2 9
-7 0 -13 11 -13 25 0 25 29 37 31 13z"/>
<path fill="#ffffff" stroke="none" d="M310 225 c0 -8 -6 -15 -12 -16 -10 0
-10 -2 0 -6 24 -9 13 -33 -15 -32 l-28 1 25 8 c14 4 19 8 13 9 -16 1 -17 31
-2 31 5 0 7 5 4 10 -3 6 -1 10 4 10 6 0 11 -7 11 -15z"/>
<path fill="#ffffff" stroke="none" d="M31 148 c0 -10 2 -10 6 0 2 6 11 12 19
12 17 0 19 -46 2 -53 -7 -3 1 -5 17 -5 17 0 24 2 18 5 -19 7 -16 53 2 53 8 0
15 -6 16 -12 0 -10 2 -10 6 0 2 6 11 12 19 12 18 0 19 -50 2 -51 -10 0 -10 -2
0 -6 18 -7 15 -53 -3 -53 -8 0 -15 5 -15 10 0 6 -8 10 -17 9 -11 0 -13 -3 -5
-6 6 -2 12 -11 12 -18 0 -7 -6 -16 -12 -18 -8 -3 -6 -6 5 -6 9 -1 17 4 17 9 0
6 7 10 15 10 8 0 15 -4 15 -10 0 -5 8 -10 18 -9 10 0 12 3 5 6 -16 6 -17 39
-2 49 6 3 15 1 19 -6 5 -9 9 -9 14 -1 12 19 26 12 26 -13 0 -13 -6 -27 -12
-29 -8 -3 -6 -6 5 -6 9 -1 17 4 17 9 0 6 7 10 15 10 8 0 15 -4 15 -10 0 -5 8
-10 18 -9 10 0 12 3 5 6 -16 6 -17 33 -2 33 5 0 7 5 4 10 -3 5 -1 10 4 10 15
0 14 -30 -1 -31 -10 0 -10 -2 0 -6 6 -2 12 -11 12 -19 0 -18 -50 -19 -51 -1 0
10 -2 10 -6 0 -7 -19 -53 -16 -53 2 0 8 5 15 10 15 6 0 10 8 9 18 0 10 -3 12
-6 5 -6 -17 -30 -17 -36 0 -3 7 -6 5 -6 -5 -1 -10 4 -18 9 -18 6 0 10 -7 10
-15 0 -18 -50 -21 -51 -2 0 9 -2 9 -6 0 -7 -19 -53 -16 -53 2 0 8 6 15 13 16
10 0 10 2 0 6 -7 2 -13 11 -13 19 0 17 46 19 53 2 3 -8 6 -6 6 5 1 9 -3 17 -9
17 -5 0 -10 7 -10 15 0 8 5 15 10 15 6 0 10 8 9 18 0 10 -3 12 -6 5 -2 -7 -11
-13 -18 -13 -7 0 -16 6 -18 13 -3 7 -6 5 -6 -5 -1 -10 4 -18 9 -18 6 0 10 -7
10 -15 0 -10 -11 -15 -35 -15 -24 0 -35 5 -35 15 0 8 5 15 10 15 6 0 10 8 9
18 0 10 -3 12 -6 5 -7 -18 -30 -16 -37 2 -3 8 -1 15 4 15 6 0 10 -6 11 -12z"/>
<path fill="#000000" stroke="none" d="M30 301 c0 -5 -8 -12 -17 -14 -17 -4
-17 -5 0 -6 9 0 17 -5 17 -11 0 -5 8 -10 18 -9 10 0 12 3 5 6 -7 2 -13 11 -13
18 0 7 6 16 13 18 7 3 5 6 -5 6 -10 1 -18 -3 -18 -8z"/>
<path fill="#000000" stroke="none" d="M30 61 c0 -5 -8 -12 -17 -14 -17 -4
-17 -5 0 -6 9 0 17 -5 17 -11 0 -5 8 -10 18 -9 10 0 12 3 5 6 -17 6 -17 30 0
36 7 3 5 6 -5 6 -10 1 -18 -3 -18 -8z"/>
</g>
</svg>
