<?xml version="1.0" standalone="no"?>
<!DOCTYPE svg PUBLIC "-//W3C//DTD SVG 20010904//EN"
 "http://www.w3.org/TR/2001/REC-SVG-20010904/DTD/svg10.dtd">
<svg version="1.0" xmlns="http://www.w3.org/2000/svg"
 width="32.000000pt" height="32.000000pt" viewBox="0 0 32.000000 32.000000"
 preserveAspectRatio="xMidYMid meet">
<metadata>
Created by potrace 1.16, written by Peter Selinger 2001-2019
</metadata>
<g transform="translate(0.000000,32.000000) scale(0.100000,-0.100000)"
fill="#000000" stroke="none">
<path fill="#000000" stroke="none" d="M13 306 c19 -15 23 -36 6 -36 -5 0 -8
-4 -5 -9 4 -5 0 -12 -6 -14 -7 -3 -2 -6 12 -7 23 -1 23 -2 5 -10 -11 -5 -14
-9 -7 -9 15 -1 16 -31 1 -31 -5 0 -7 5 -4 10 3 6 2 10 -2 10 -5 0 -9 -16 -10
-35 -1 -24 3 -35 13 -35 20 0 17 -28 -4 -33 -13 -4 -11 -5 6 -6 12 0 22 4 22
9 0 6 7 10 16 10 14 0 14 -2 0 -15 -8 -8 -24 -15 -35 -15 -17 0 -21 -6 -21
-35 0 -27 4 -35 18 -35 10 0 24 6 31 13 11 9 14 9 18 0 3 -7 12 -13 21 -12 11
0 12 2 5 6 -19 7 -16 53 2 53 8 0 15 -8 15 -17 0 -15 -2 -16 -10 -3 -8 13 -10
12 -10 -2 0 -10 5 -18 10 -18 6 0 10 -7 10 -15 0 -18 -31 -20 -48 -3 -9 9 -12
9 -12 1 0 -7 -12 -14 -27 -16 -16 -2 45 -5 135 -6 l162 -1 0 159 0 160 -59 0
c-39 -1 -64 -6 -72 -15 -14 -17 -29 -18 -29 -3 0 5 5 7 10 4 6 -3 10 -2 10 3
0 5 -29 9 -65 8 -36 0 -65 -5 -65 -9 0 -5 4 -5 10 -2 6 3 10 1 10 -4 0 -6 -7
-11 -15 -11 -8 0 -15 4 -15 9 0 5 -10 11 -22 14 -21 5 -21 5 -5 -7z"/>
<path fill="#ffffff" stroke="none" d="M103 293 c-7 -3 -13 -12 -13 -21 0 -15
2 -15 10 -2 8 13 10 12 10 -2 0 -10 -7 -18 -15 -18 -18 0 -21 46 -2 53 6 2 14
2 17 -1 3 -2 -1 -7 -7 -9z"/>
<path fill="#ffffff" stroke="none" d="M150 289 c0 -4 -7 -6 -15 -3 -8 4 -15
10 -15 15 0 4 7 6 15 3 8 -4 15 -10 15 -15z"/>
<path fill="#ffffff" stroke="none" d="M220 290 c-10 -7 -11 -10 -2 -10 6 0
12 -7 12 -15 0 -9 -9 -15 -24 -15 -13 0 -26 7 -30 15 -3 8 -1 15 4 15 6 0 10
-4 10 -10 0 -5 7 -10 16 -10 14 0 14 3 3 16 -10 13 -10 17 1 24 8 5 17 7 19 4
3 -3 -1 -9 -9 -14z"/>
<path fill="#ffffff" stroke="none" d="M310 298 c0 -4 -7 -8 -15 -8 -8 0 -15
4 -15 8 0 5 7 9 15 9 8 0 15 -4 15 -9z"/>
<path fill="#ffffff" stroke="none" d="M70 269 c0 -5 -4 -7 -10 -4 -5 3 -10 1
-10 -4 0 -6 -5 -11 -11 -11 -8 0 -8 5 1 15 14 17 30 20 30 4z"/>
<path fill="#ffffff" stroke="none" d="M261 273 c-11 -5 -11 -7 0 -14 11 -7
10 -9 -3 -9 -10 0 -18 7 -18 15 0 8 8 15 18 14 12 0 13 -2 3 -6z"/>
<path fill="#ffffff" stroke="none" d="M310 269 c0 -5 -4 -8 -9 -5 -5 4 -12 0
-14 -6 -3 -8 -6 -6 -6 5 -1 9 6 17 14 17 8 0 15 -5 15 -11z"/>
<path fill="#ffffff" stroke="none" d="M190 224 c0 -8 -5 -14 -12 -14 -6 0 -8
3 -5 7 4 3 2 12 -5 20 -8 11 -7 12 6 7 9 -3 16 -12 16 -20z"/>
<path fill="#ffffff" stroke="none" d="M110 228 c0 -10 3 -9 9 1 5 7 14 10 20
7 15 -10 14 -46 -1 -47 -10 0 -10 -2 0 -6 6 -2 12 -11 12 -20 0 -13 -2 -13
-15 1 -17 17 -20 36 -5 36 6 0 10 8 9 18 0 10 -3 12 -6 5 -2 -7 -11 -13 -18
-13 -7 0 -16 6 -18 13 -3 7 -6 6 -6 -5 -1 -9 4 -20 9 -23 18 -11 10 -25 -15
-25 -14 0 -25 6 -26 13 0 10 -2 10 -6 0 -2 -7 -9 -13 -14 -13 -4 0 -6 7 -3 15
7 17 34 21 34 5 0 -5 8 -10 17 -10 13 0 14 3 5 12 -17 17 -15 48 3 48 8 0 15
-6 15 -12z"/>
<path fill="#ffffff" stroke="none" d="M224 233 c-5 -5 -12 -12 -16 -18 -4 -6
-8 -2 -8 8 0 9 7 17 17 17 9 0 12 -3 7 -7z"/>
<path fill="#ffffff" stroke="none" d="M270 229 c0 -6 -7 -17 -15 -25 -13 -14
-15 -14 -15 0 0 9 5 16 11 16 5 0 7 5 4 10 -3 6 -1 10 4 10 6 0 11 -5 11 -11z"/>
<path fill="#ffffff" stroke="none" d="M70 220 c0 -5 -8 -10 -17 -10 -15 0
-16 2 -3 10 19 12 20 12 20 0z"/>
<path fill="#ffffff" stroke="none" d="M230 195 c0 -25 -29 -37 -31 -12 0 10
-2 10 -6 0 -7 -19 -33 -15 -33 5 0 14 2 15 10 2 6 -10 10 -11 10 -2 0 6 6 12
14 12 8 0 17 -6 19 -12 3 -7 6 -3 6 10 1 30 11 28 11 -3z"/>
<path fill="#ffffff" stroke="none" d="M310 195 c0 -28 -12 -32 -30 -10 -8 9
-8 15 -2 15 6 0 13 -6 15 -12 4 -8 6 -7 6 4 1 9 -5 19 -11 21 -8 3 -6 6 5 6
12 1 17 -7 17 -24z"/>
<path fill="#ffffff" stroke="none" d="M45 150 c5 -8 12 -7 23 2 15 12 16 11
3 -5 -8 -11 -18 -14 -25 -8 -6 4 -18 11 -26 14 -12 4 -12 6 2 6 9 1 20 -4 23
-9z"/>
<path fill="#ffffff" stroke="none" d="M103 133 c-7 -3 -13 -12 -12 -21 0 -11
2 -12 6 -4 2 6 11 12 20 12 13 0 13 -2 -1 -15 -22 -22 -36 -18 -36 10 0 14 5
25 11 25 5 0 7 6 3 13 -4 7 -2 7 7 -2 11 -10 11 -15 2 -18z"/>
<path fill="#ffffff" stroke="none" d="M201 151 c7 11 9 10 9 -3 0 -10 -7 -18
-15 -18 -8 0 -15 8 -14 18 0 12 2 13 6 3 5 -11 7 -11 14 0z"/>
<path fill="#ffffff" stroke="none" d="M266 149 c4 -8 9 -8 17 0 6 6 15 11 19
11 12 0 9 -35 -4 -48 -9 -9 -9 -12 0 -12 7 0 12 -11 12 -25 0 -16 -6 -25 -15
-25 -8 0 -15 5 -15 11 0 5 5 7 10 4 6 -3 10 1 10 9 0 9 -4 16 -10 16 -5 0 -10
7 -10 15 0 8 5 15 10 15 6 0 10 8 9 18 0 10 -3 12 -6 5 -2 -7 -11 -13 -18 -13
-7 0 -16 6 -18 13 -3 7 -6 5 -6 -5 -1 -10 4 -18 9 -18 6 0 10 -7 10 -15 0 -9
-9 -15 -22 -14 -22 0 -22 1 -3 9 11 5 14 9 8 9 -7 1 -13 12 -13 26 0 26 14 33
26 14z"/>
<path fill="#ffffff" stroke="none" d="M150 129 c0 -4 -7 -6 -15 -3 -8 4 -15
10 -15 15 0 4 7 6 15 3 8 -4 15 -10 15 -15z"/>
<path fill="#ffffff" stroke="none" d="M181 120 c5 0 9 -4 9 -10 0 -5 -7 -7
-15 -4 -8 4 -14 16 -14 28 1 16 2 17 6 4 2 -10 9 -18 14 -18z"/>
<path fill="#ffffff" stroke="none" d="M219 109 c-7 -4 -16 -5 -19 -2 -3 3 1
8 8 10 6 3 13 12 13 21 1 14 2 13 6 -2 3 -10 -1 -22 -8 -27z"/>
<path fill="#ffffff" stroke="none" d="M70 75 c0 -16 -6 -25 -15 -25 -8 0 -15
4 -15 9 0 5 -8 12 -17 14 -14 4 -13 5 4 6 12 0 24 -5 26 -11 3 -7 6 -3 6 10 1
30 11 28 11 -3z"/>
<path fill="#ffffff" stroke="none" d="M127 58 c-3 -8 -6 -5 -6 6 -1 11 2 17
5 13 3 -3 4 -12 1 -19z"/>
<path fill="#ffffff" stroke="none" d="M138 29 c-10 -7 -10 -9 3 -9 8 0 21 6
28 13 11 10 14 10 18 0 3 -7 12 -13 20 -13 12 0 13 3 3 15 -10 11 -9 18 4 30
9 9 16 13 16 8 0 -5 -5 -14 -12 -21 -9 -9 -9 -12 0 -12 7 0 12 -7 12 -15 0
-18 -50 -21 -51 -2 0 10 -2 10 -6 0 -7 -19 -53 -16 -53 2 0 8 5 15 10 15 6 0
11 10 11 23 2 21 2 21 6 -2 3 -13 -1 -27 -9 -32z"/>
<path fill="#ffffff" stroke="none" d="M194 65 c-4 -8 -10 -15 -15 -15 -4 0
-6 7 -3 15 4 8 10 15 15 15 4 0 6 -7 3 -15z"/>
<path fill="#ffffff" stroke="none" d="M257 73 c-4 -3 -2 -13 5 -20 9 -11 9
-17 -3 -24 -12 -7 -11 -9 3 -9 9 0 19 6 21 13 3 7 6 5 6 -5 1 -13 -7 -18 -24
-18 -16 0 -25 6 -25 15 0 8 6 15 13 15 9 0 8 3 -2 9 -12 8 -8 31 6 31 4 0 3
-3 0 -7z"/>
<path fill="#ffffff" stroke="none" d="M30 45 c0 -8 -4 -15 -8 -15 -5 0 -9 7
-9 15 0 8 4 15 9 15 4 0 8 -7 8 -15z"/>
</g>
</svg>
