<?xml version="1.0" standalone="no"?>
<!DOCTYPE svg PUBLIC "-//W3C//DTD SVG 20010904//EN"
 "http://www.w3.org/TR/2001/REC-SVG-20010904/DTD/svg10.dtd">
<svg version="1.0" xmlns="http://www.w3.org/2000/svg"
 width="32.000000pt" height="32.000000pt" viewBox="0 0 32.000000 32.000000"
 preserveAspectRatio="xMidYMid meet">
<metadata>
Created by potrace 1.16, written by Peter Selinger 2001-2019
</metadata>
<g transform="translate(0.000000,32.000000) scale(0.100000,-0.100000)"
fill="#000000" stroke="none">
<path fill="#000000" stroke="none" d="M76 301 c-4 -5 -2 -12 3 -15 5 -4 12
-2 15 3 4 5 2 12 -3 15 -5 4 -12 2 -15 -3z"/>
<path fill="#000000" stroke="none" d="M157 206 c-15 -22 -15 -24 0 -22 9 2
17 12 18 24 2 28 1 27 -18 -2z"/>
<path fill="#000000" stroke="none" d="M87 187 c-3 -7 3 -13 14 -13 13 0 15 3
7 13 -6 7 -12 13 -13 13 -2 0 -5 -6 -8 -13z"/>
<path fill="#000000" stroke="none" d="M200 144 c0 -1 6 -7 14 -13 10 -9 15
-8 19 2 3 8 -3 13 -14 13 -11 0 -19 -1 -19 -2z"/>
<path fill="#000000" stroke="none" d="M149 136 c-2 -2 -5 -46 -3 -46 1 0 9
11 17 23 13 20 13 24 1 24 -8 0 -14 -1 -15 -1z"/>
<path fill="#000000" stroke="none" d="M226 31 c-4 -5 -2 -12 3 -15 5 -4 12
-2 15 3 4 5 2 12 -3 15 -5 4 -12 2 -15 -3z"/>
</g>
</svg>
