<?xml version="1.0" standalone="no"?>
<!DOCTYPE svg PUBLIC "-//W3C//DTD SVG 20010904//EN"
 "http://www.w3.org/TR/2001/REC-SVG-20010904/DTD/svg10.dtd">
<svg version="1.0" xmlns="http://www.w3.org/2000/svg"
 width="32.000000pt" height="32.000000pt" viewBox="0 0 32.000000 32.000000"
 preserveAspectRatio="xMidYMid meet">
<metadata>
Created by potrace 1.16, written by Peter Selinger 2001-2019
</metadata>
<g transform="translate(0.000000,32.000000) scale(0.100000,-0.100000)"
fill="#000000" stroke="none">
<path fill="#000000" stroke="none" d="M1 160 l0 -160 115 0 c69 0 114 4 114
10 0 6 -5 10 -10 10 -7 0 -6 5 2 13 9 10 16 11 24 3 7 -6 8 -12 3 -14 -23 -9
-5 -22 31 -22 l40 0 -1 160 0 160 -115 0 c-69 0 -114 -4 -114 -10 0 -5 5 -10
10 -10 7 0 6 -5 -2 -13 -9 -10 -16 -11 -24 -3 -7 6 -8 13 -3 14 23 9 5 22 -31
22 l-40 0 1 -160z"/>
<path fill="#ffffff" stroke="none" d="M246 238 c4 -6 -3 -4 -16 5 -19 13 -27
14 -39 4 -14 -11 -14 -10 -2 5 14 18 41 11 57 -14z"/>
<path fill="#ffffff" stroke="none" d="M133 241 c-4 -17 -1 -19 27 -15 21 4
30 2 25 -5 -6 -10 13 -15 42 -12 6 1 15 -4 19 -10 5 -9 2 -10 -9 -6 -9 3 -19
2 -22 -3 -3 -5 -18 -8 -33 -6 -16 2 -36 -5 -49 -17 -20 -18 -23 -18 -29 -4 -3
9 -9 15 -13 13 -4 -3 -8 7 -9 22 l-2 27 23 -29 c26 -32 46 -21 27 15 -6 11 -9
27 -6 35 8 21 15 17 9 -5z"/>
<path fill="#ffffff" stroke="none" d="M294 169 c-3 -5 -10 -7 -15 -3 -5 3 -7
10 -3 15 3 5 10 7 15 3 5 -3 7 -10 3 -15z"/>
<path fill="#ffffff" stroke="none" d="M231 145 c3 2 6 -8 7 -23 l2 -27 -23
29 c-27 34 -44 22 -25 -19 8 -19 9 -28 0 -37 -8 -8 -9 -5 -5 10 4 18 1 20 -27
16 -21 -4 -30 -2 -25 5 6 10 -13 15 -42 12 -6 -1 -15 4 -19 10 -5 8 -2 10 7 7
8 -3 23 0 33 8 13 9 24 10 36 4 13 -7 22 -4 36 11 16 18 20 19 30 5 6 -9 13
-14 15 -11z"/>
<path fill="#ffffff" stroke="none" d="M44 139 c-3 -5 -10 -7 -15 -3 -5 3 -7
10 -3 15 3 5 10 7 15 3 5 -3 7 -10 3 -15z"/>
<path fill="#ffffff" stroke="none" d="M129 73 c14 11 14 10 2 -5 -14 -18 -41
-11 -57 14 -4 6 3 4 16 -5 19 -13 27 -14 39 -4z"/>
</g>
</svg>
