<?xml version="1.0" standalone="no"?>
<!DOCTYPE svg PUBLIC "-//W3C//DTD SVG 20010904//EN"
 "http://www.w3.org/TR/2001/REC-SVG-20010904/DTD/svg10.dtd">
<svg version="1.0" xmlns="http://www.w3.org/2000/svg"
 width="32.000000pt" height="32.000000pt" viewBox="0 0 32.000000 32.000000"
 preserveAspectRatio="xMidYMid meet">
<metadata>
Created by potrace 1.16, written by Peter Selinger 2001-2019
</metadata>
<g transform="translate(0.000000,32.000000) scale(0.100000,-0.100000)"
fill="#000000" stroke="none">
<path fill="#000000" stroke="none" d="M0 160 l0 -160 160 0 160 0 0 160 0
160 -160 0 -160 0 0 -160z"/>
<path fill="#ffffff" stroke="none" d="M67 274 c-3 -3 -12 -4 -19 -1 -8 3 -5
6 6 6 11 1 17 -2 13 -5z"/>
<path fill="#ffffff" stroke="none" d="M165 273 c-16 -3 -33 -10 -37 -16 -5
-8 -8 -6 -8 6 0 13 8 17 38 16 34 -2 34 -2 7 -6z"/>
<path fill="#ffffff" stroke="none" d="M87 254 c-3 -3 -12 -4 -19 -1 -8 3 -5
6 6 6 11 1 17 -2 13 -5z"/>
<path fill="#ffffff" stroke="none" d="M150 245 c0 -11 -11 -15 -40 -15 -22 0
-40 -4 -40 -10 0 -5 -7 -10 -15 -10 -8 0 -15 8 -15 18 0 14 2 15 10 2 6 -10
10 -11 10 -2 0 7 15 12 40 12 22 0 40 5 40 10 0 6 2 10 5 10 3 0 5 -7 5 -15z"/>
<path fill="#ffffff" stroke="none" d="M210 251 c0 -5 -10 -7 -22 -5 -13 2
-17 2 -10 -2 19 -9 16 -45 -4 -37 -13 5 -13 7 -2 14 10 7 10 9 1 9 -7 0 -13 7
-13 15 0 9 9 15 25 15 14 0 25 -4 25 -9z"/>
<path fill="#ffffff" stroke="none" d="M255 230 c3 -5 1 -10 -4 -10 -6 0 -11
5 -11 10 0 6 2 10 4 10 3 0 8 -4 11 -10z"/>
<path fill="#ffffff" stroke="none" d="M240 210 c16 0 31 6 33 13 3 7 6 5 6
-5 1 -14 -7 -18 -39 -18 -32 0 -40 4 -39 18 0 10 3 12 6 5 2 -7 17 -13 33 -13z"/>
<path fill="#ffffff" stroke="none" d="M140 205 c0 -8 -5 -15 -11 -15 -5 0 -7
5 -4 10 3 6 -3 10 -14 10 -12 0 -21 -4 -21 -10 0 -5 -12 -9 -27 -9 -24 2 -25
2 -5 6 12 2 22 9 22 14 0 5 14 9 30 9 20 0 30 -5 30 -15z"/>
<path fill="#ffffff" stroke="none" d="M245 182 c-26 -4 -28 -5 -10 -12 19 -8
19 -9 -2 -9 -23 -1 -30 9 -16 22 3 4 18 6 32 6 24 -2 24 -2 -4 -7z"/>
<path fill="#ffffff" stroke="none" d="M120 176 c0 -2 -11 -6 -25 -8 -14 -3
-25 -1 -25 3 0 5 11 9 25 9 14 0 25 -2 25 -4z"/>
<path fill="#ffffff" stroke="none" d="M117 140 c-2 -11 -6 -23 -10 -26 -4 -4
-7 -12 -7 -18 0 -6 7 0 16 12 19 27 34 29 29 2 -3 -14 2 -20 16 -20 14 0 19
-7 19 -29 0 -23 -4 -28 -22 -26 -33 4 -34 4 -18 15 10 6 11 10 3 10 -7 0 -13
10 -14 23 0 21 -1 21 -9 2 -5 -11 -9 -15 -10 -10 -1 6 -5 0 -10 -12 -5 -13
-15 -23 -22 -23 -9 0 -9 3 2 10 13 8 12 10 -3 10 -12 0 -16 4 -11 13 5 8 2 8
-9 -2 -15 -12 -17 -11 -17 3 0 9 7 16 17 16 9 0 13 3 10 6 -9 10 25 64 40 64
7 0 12 -9 10 -20z"/>
<path fill="#ffffff" stroke="none" d="M233 143 c-23 -9 -14 -32 15 -36 25 -4
25 -4 -5 -6 -29 -1 -33 2 -33 24 0 17 5 25 18 24 10 0 12 -3 5 -6z"/>
<path fill="#ffffff" stroke="none" d="M255 131 c-3 -6 -11 -11 -16 -11 -5 0
-4 6 3 14 14 16 24 13 13 -3z"/>
<path fill="#ffffff" stroke="none" d="M197 110 c4 -16 14 -20 45 -20 47 0 49
-24 2 -27 l-29 -2 30 9 c29 7 28 8 -12 9 -35 1 -43 4 -43 20 0 11 -6 22 -12
24 -10 4 -10 6 0 6 8 1 16 -8 19 -19z"/>
<path fill="#ffffff" stroke="none" d="M30 105 c0 -8 -4 -15 -10 -15 -5 0 -7
7 -4 15 4 8 8 15 10 15 2 0 4 -7 4 -15z"/>
<path fill="#ffffff" stroke="none" d="M30 76 c0 -3 -4 -8 -10 -11 -5 -3 -10
-1 -10 4 0 6 5 11 10 11 6 0 10 -2 10 -4z"/>
<path fill="#ffffff" stroke="none" d="M205 50 c3 -5 1 -10 -4 -10 -6 0 -11 5
-11 10 0 6 2 10 4 10 3 0 8 -4 11 -10z"/>
<path fill="#000000" stroke="none" d="M81 84 c0 -11 3 -14 6 -6 3 7 2 16 -1
19 -3 4 -6 -2 -5 -13z"/>
<path fill="#000000" stroke="none" d="M152 66 c7 -8 15 -12 17 -11 5 6 -10
25 -20 25 -5 0 -4 -6 3 -14z"/>
</g>
</svg>
