<?xml version="1.0" standalone="no"?>
<!DOCTYPE svg PUBLIC "-//W3C//DTD SVG 20010904//EN"
 "http://www.w3.org/TR/2001/REC-SVG-20010904/DTD/svg10.dtd">
<svg version="1.0" xmlns="http://www.w3.org/2000/svg"
 width="32.000000pt" height="32.000000pt" viewBox="0 0 32.000000 32.000000"
 preserveAspectRatio="xMidYMid meet">
<metadata>
Created by potrace 1.16, written by Peter Selinger 2001-2019
</metadata>
<g transform="translate(0.000000,32.000000) scale(0.100000,-0.100000)"
fill="#000000" stroke="none">
<path fill="#000000" stroke="none" d="M88 273 c7 -3 16 -2 19 1 4 3 -2 6 -13
5 -11 0 -14 -3 -6 -6z"/>
<path fill="#000000" stroke="none" d="M207 273 c-14 -14 -6 -23 21 -22 27 2
27 2 2 7 -23 4 -24 5 -5 13 14 5 16 8 4 8 -9 1 -19 -2 -22 -6z"/>
<path fill="#000000" stroke="none" d="M61 254 c0 -11 3 -14 6 -6 3 7 2 16 -1
19 -3 4 -6 -2 -5 -13z"/>
<path fill="#000000" stroke="none" d="M108 253 c6 -2 12 -11 12 -19 0 -8 7
-14 15 -14 8 0 15 5 15 11 0 5 -4 7 -10 4 -5 -3 -10 1 -10 9 0 9 -8 16 -17 15
-11 0 -13 -3 -5 -6z"/>
<path fill="#000000" stroke="none" d="M181 248 c-1 -13 7 -18 24 -18 14 0 25
-4 25 -10 0 -5 4 -10 10 -10 5 0 7 7 4 15 -4 8 -17 15 -29 15 -13 0 -26 6 -28
13 -3 7 -6 5 -6 -5z"/>
<path fill="#000000" stroke="none" d="M77 220 c-3 -11 -1 -20 4 -20 5 0 9 9
9 20 0 11 -2 20 -4 20 -2 0 -6 -9 -9 -20z"/>
<path fill="#000000" stroke="none" d="M160 231 c0 -6 4 -13 10 -16 6 -3 7 1
4 9 -7 18 -14 21 -14 7z"/>
<path fill="#000000" stroke="none" d="M210 199 c0 -5 9 -9 20 -9 11 0 20 2
20 4 0 2 -9 6 -20 9 -11 3 -20 1 -20 -4z"/>
<path fill="#000000" stroke="none" d="M30 182 c0 -4 16 -6 35 -4 19 2 35 6
35 8 0 2 -16 4 -35 4 -19 0 -35 -4 -35 -8z"/>
<path fill="#000000" stroke="none" d="M256 175 c-3 -8 -1 -15 4 -15 6 0 10 7
10 15 0 8 -2 15 -4 15 -2 0 -6 -7 -10 -15z"/>
<path fill="#000000" stroke="none" d="M30 151 c0 -5 7 -11 15 -15 8 -3 15 -1
15 3 0 5 -7 11 -15 15 -8 3 -15 1 -15 -3z"/>
<path fill="#000000" stroke="none" d="M74 138 c4 -20 26 -21 26 -1 0 14 -2
15 -9 4 -6 -9 -10 -10 -14 -2 -4 8 -5 8 -3 -1z"/>
<path fill="#000000" stroke="none" d="M191 134 c0 -11 3 -14 6 -6 3 7 2 16
-1 19 -3 4 -6 -2 -5 -13z"/>
<path fill="#000000" stroke="none" d="M232 125 c0 -16 2 -22 5 -12 2 9 2 23
0 30 -3 6 -5 -1 -5 -18z"/>
<path fill="#000000" stroke="none" d="M213 95 c0 -27 2 -38 4 -22 2 15 2 37
0 50 -2 12 -4 0 -4 -28z"/>
<path fill="#000000" stroke="none" d="M151 113 c-1 -16 5 -23 17 -23 10 0 13
3 6 8 -6 4 -14 14 -17 22 -4 10 -6 8 -6 -7z"/>
<path fill="#000000" stroke="none" d="M78 103 c7 -3 16 -2 19 1 4 3 -2 6 -13
5 -11 0 -14 -3 -6 -6z"/>
<path fill="#000000" stroke="none" d="M70 79 c0 -6 9 -13 20 -16 11 -3 17
-10 13 -16 -3 -6 -1 -7 5 -3 19 12 14 26 -10 27 -22 0 -22 1 -3 9 19 8 19 9
-2 9 -13 1 -23 -4 -23 -10z"/>
<path fill="#000000" stroke="none" d="M131 74 c0 -11 3 -14 6 -6 3 7 2 16 -1
19 -3 4 -6 -2 -5 -13z"/>
<path fill="#000000" stroke="none" d="M192 70 c0 -14 2 -19 5 -12 2 6 2 18 0
25 -3 6 -5 1 -5 -13z"/>
<path fill="#000000" stroke="none" d="M231 74 c0 -11 3 -14 6 -6 3 7 2 16 -1
19 -3 4 -6 -2 -5 -13z"/>
</g>
</svg>
