<?xml version="1.0" standalone="no"?>
<!DOCTYPE svg PUBLIC "-//W3C//DTD SVG 20010904//EN"
 "http://www.w3.org/TR/2001/REC-SVG-20010904/DTD/svg10.dtd">
<svg version="1.0" xmlns="http://www.w3.org/2000/svg"
 width="32.000000pt" height="32.000000pt" viewBox="0 0 32.000000 32.000000"
 preserveAspectRatio="xMidYMid meet">
<metadata>
Created by potrace 1.16, written by Peter Selinger 2001-2019
</metadata>
<g transform="translate(0.000000,32.000000) scale(0.100000,-0.100000)"
fill="#000000" stroke="none">
<path fill="#000000" stroke="none" d="M0 160 l0 -160 160 0 160 0 0 160 0
160 -70 0 c-56 0 -68 -3 -64 -14 3 -8 14 -13 25 -11 11 2 17 0 14 -4 -3 -5 2
-11 9 -14 8 -3 17 -1 20 6 2 7 5 5 5 -5 1 -9 6 -20 13 -24 7 -5 8 -2 3 7 -6
11 -5 11 4 3 7 -6 14 -31 16 -55 2 -24 1 -34 -2 -21 -2 13 -19 38 -38 56 -57
57 -133 57 -191 -1 -19 -18 -34 -43 -34 -55 0 -12 -3 -18 -6 -15 -10 9 17 98
27 91 5 -3 9 0 9 6 0 6 4 9 9 6 5 -3 11 4 15 17 3 13 9 18 13 12 12 -16 30
-16 43 0 11 13 2 15 -64 15 l-76 0 0 -160z"/>
<path fill="#ffffff" stroke="none" d="M156 130 c14 0 24 6 24 14 0 21 17 29
36 18 14 -8 14 -11 -7 -26 -27 -18 -62 -21 -90 -5 -17 9 -18 13 -7 26 12 15
13 14 16 -5 2 -16 10 -22 28 -22z"/>
<path fill="#ffffff" stroke="none" d="M160 166 c0 -3 -4 -8 -10 -11 -5 -3
-10 -1 -10 4 0 6 5 11 10 11 6 0 10 -2 10 -4z"/>
</g>
</svg>
