<?xml version="1.0" standalone="no"?>
<!DOCTYPE svg PUBLIC "-//W3C//DTD SVG 20010904//EN"
 "http://www.w3.org/TR/2001/REC-SVG-20010904/DTD/svg10.dtd">
<svg version="1.0" xmlns="http://www.w3.org/2000/svg"
 width="32.000000pt" height="32.000000pt" viewBox="0 0 32.000000 32.000000"
 preserveAspectRatio="xMidYMid meet">
<metadata>
Created by potrace 1.16, written by Peter Selinger 2001-2019
</metadata>
<g transform="translate(0.000000,32.000000) scale(0.100000,-0.100000)"
fill="#000000" stroke="none">
<path fill="#000000" stroke="none" d="M0 160 l0 -160 160 0 160 0 0 160 0
160 -160 0 -160 0 0 -160z"/>
<path fill="#ffffff" stroke="none" d="M243 246 c-10 -14 -27 -27 -38 -30 -14
-3 -10 4 15 25 42 35 46 36 23 5z"/>
<path fill="#ffffff" stroke="none" d="M102 241 c14 8 16 7 12 -6 -4 -9 -9
-13 -12 -11 -3 3 -10 2 -16 -3 -8 -6 -15 -1 -23 16 -11 24 -11 24 5 10 12 -11
22 -13 34 -6z"/>
<path fill="#ffffff" stroke="none" d="M125 100 c-3 -5 -20 -19 -37 -32 l-32
-22 19 26 c11 15 27 29 35 31 8 3 16 5 18 6 2 0 1 -3 -3 -9z"/>
<path fill="#ffffff" stroke="none" d="M260 75 c14 -19 14 -19 -2 -6 -10 7
-18 18 -18 24 0 6 1 8 3 6 1 -2 9 -13 17 -24z"/>
<path fill="#ffffff" stroke="none" d="M220 86 c0 -3 -4 -8 -10 -11 -5 -3 -10
-1 -10 4 0 6 5 11 10 11 6 0 10 -2 10 -4z"/>
</g>
</svg>
