<?xml version="1.0" standalone="no"?>
<!DOCTYPE svg PUBLIC "-//W3C//DTD SVG 20010904//EN"
 "http://www.w3.org/TR/2001/REC-SVG-20010904/DTD/svg10.dtd">
<svg version="1.0" xmlns="http://www.w3.org/2000/svg"
 width="32.000000pt" height="32.000000pt" viewBox="0 0 32.000000 32.000000"
 preserveAspectRatio="xMidYMid meet">
<metadata>
Created by potrace 1.16, written by Peter Selinger 2001-2019
</metadata>
<g transform="translate(0.000000,32.000000) scale(0.100000,-0.100000)"
fill="#000000" stroke="none">
<path fill="#000000" stroke="none" d="M188 313 c6 -2 18 -2 25 0 6 3 1 5 -13
5 -14 0 -19 -2 -12 -5z"/>
<path fill="#000000" stroke="none" d="M130 291 c-9 -17 -14 -20 -25 -11 -10
8 -15 8 -20 0 -5 -8 -11 -8 -19 -1 -7 6 -16 8 -19 4 -11 -10 -8 -43 3 -43 16
0 0 -28 -20 -33 -14 -3 -16 -11 -12 -33 5 -22 7 -24 10 -9 2 18 42 49 66 52 4
1 17 15 27 32 14 23 23 28 41 24 17 -3 19 -2 9 5 -7 5 -17 15 -21 22 -6 9 -11
7 -20 -9z"/>
<path fill="#000000" stroke="none" d="M193 252 c-15 -16 -34 -27 -41 -24 -18
6 -15 22 6 22 14 0 15 2 2 9 -20 13 -27 7 -35 -35 -6 -32 -8 -34 -19 -18 -12
15 -14 12 -21 -32 -5 -27 -8 -52 -7 -56 1 -3 -5 -9 -13 -12 -8 -3 -15 0 -15 7
-1 7 -7 1 -15 -13 -17 -32 -13 -36 17 -16 41 27 100 48 96 35 -2 -7 -14 -14
-27 -16 -27 -4 -77 -29 -86 -43 -3 -6 1 -13 10 -16 11 -4 28 5 51 27 40 39 46
28 7 -14 l-28 -30 32 23 c18 13 34 29 37 36 3 8 12 11 21 8 20 -8 19 -24 -1
-24 -10 0 -12 -5 -7 -12 4 -7 8 -19 9 -26 4 -24 12 -24 25 0 12 22 11 22 -7 8
-17 -13 -18 -13 -8 0 6 8 15 33 19 55 l7 40 14 -25 c7 -14 14 -23 14 -20 1 6
10 88 12 107 2 16 28 26 28 10 1 -7 7 -1 15 13 17 32 13 36 -17 16 -41 -27
-100 -48 -96 -35 2 7 15 14 28 16 30 4 83 35 84 48 2 24 -36 14 -60 -15 -15
-17 -29 -28 -32 -25 -3 3 5 16 18 30 32 34 18 32 -17 -3z"/>
<path fill="#ffffff" stroke="none" d="M164 194 c4 -14 4 -35 2 -47 -4 -13 0
-9 9 8 l14 30 1 -42 c0 -30 -4 -43 -14 -43 -16 0 -29 43 -22 73 4 13 0 9 -9
-8 l-14 -30 -1 43 c0 48 23 60 34 16z"/>
<path fill="#ffffff" stroke="none" d="M236 188 c-16 -53 -17 -54 -27 -30 -5
13 -7 28 -3 33 8 14 34 11 30 -3z"/>
<path fill="#ffffff" stroke="none" d="M114 129 c-9 -15 -34 -10 -29 6 16 51
17 51 26 27 5 -13 7 -28 3 -33z"/>
<path fill="#000000" stroke="none" d="M54 176 c-3 -8 -4 -23 -2 -33 3 -11 6
-6 9 15 6 34 2 42 -7 18z"/>
<path fill="#000000" stroke="none" d="M261 173 c0 -12 -4 -30 -7 -40 -5 -17
-5 -17 6 0 6 10 9 28 7 40 -4 22 -4 22 -6 0z"/>
<path fill="#000000" stroke="none" d="M291 150 c-1 -26 -53 -66 -78 -61 -18
3 -16 -34 1 -48 10 -9 16 -9 21 -1 5 8 11 8 19 1 7 -6 16 -8 19 -4 11 11 8 41
-5 45 -7 3 -3 12 11 25 15 14 21 29 18 45 -4 23 -4 23 -6 -2z"/>
<path fill="#000000" stroke="none" d="M113 3 c9 -2 23 -2 30 0 6 3 -1 5 -18
5 -16 0 -22 -2 -12 -5z"/>
</g>
</svg>
