<?xml version="1.0" standalone="no"?>
<!DOCTYPE svg PUBLIC "-//W3C//DTD SVG 20010904//EN"
 "http://www.w3.org/TR/2001/REC-SVG-20010904/DTD/svg10.dtd">
<svg version="1.0" xmlns="http://www.w3.org/2000/svg"
 width="32.000000pt" height="32.000000pt" viewBox="0 0 32.000000 32.000000"
 preserveAspectRatio="xMidYMid meet">
<metadata>
Created by potrace 1.16, written by Peter Selinger 2001-2019
</metadata>
<g transform="translate(0.000000,32.000000) scale(0.100000,-0.100000)"
fill="#000000" stroke="none">
<path fill="#000000" stroke="none" d="M0 160 l0 -160 160 0 160 0 0 160 0
160 -160 0 -160 0 0 -160z"/>
<path fill="#ffffff" stroke="none" d="M154 204 c5 -13 9 -14 20 -4 11 8 20 9
35 0 23 -12 28 -44 9 -56 -7 -5 -8 -3 -3 6 5 9 4 11 -3 6 -7 -4 -12 -16 -12
-26 0 -26 -21 -36 -32 -16 -7 13 -13 14 -23 6 -10 -8 -19 -8 -34 0 -23 12 -28
44 -9 56 7 5 8 3 3 -6 -5 -9 -4 -11 3 -6 7 4 12 15 12 25 0 32 24 42 34 15z"/>
</g>
</svg>
