<?xml version="1.0" standalone="no"?>
<!DOCTYPE svg PUBLIC "-//W3C//DTD SVG 20010904//EN"
 "http://www.w3.org/TR/2001/REC-SVG-20010904/DTD/svg10.dtd">
<svg version="1.0" xmlns="http://www.w3.org/2000/svg"
 width="32.000000pt" height="32.000000pt" viewBox="0 0 32.000000 32.000000"
 preserveAspectRatio="xMidYMid meet">
<metadata>
Created by potrace 1.16, written by Peter Selinger 2001-2019
</metadata>
<g transform="translate(0.000000,32.000000) scale(0.100000,-0.100000)"
fill="#000000" stroke="none">
<path fill="#000000" stroke="none" d="M121 264 c0 -11 3 -14 6 -6 3 7 2 16
-1 19 -3 4 -6 -2 -5 -13z"/>
<path fill="#000000" stroke="none" d="M35 259 c-11 -17 1 -21 15 -4 8 9 8 15
2 15 -6 0 -14 -5 -17 -11z"/>
<path fill="#000000" stroke="none" d="M140 250 c0 -19 -10 -24 -39 -21 -7 2
-10 -2 -6 -8 3 -6 1 -11 -4 -11 -6 0 -11 -7 -11 -15 0 -9 -11 -20 -25 -25 -34
-13 -32 -17 5 -12 18 2 30 0 30 -7 0 -17 -48 -25 -65 -11 -11 9 -15 9 -15 1 0
-15 42 -31 55 -21 6 4 18 10 27 13 13 4 15 2 11 -11 -3 -9 -11 -24 -17 -32
-10 -13 -9 -13 7 -1 9 7 17 10 17 7 0 -4 9 -2 19 4 16 8 21 5 32 -23 11 -29
13 -30 16 -9 4 21 13 26 42 23 7 -2 10 2 6 8 -3 6 -1 11 4 11 6 0 11 7 11 15
0 9 11 20 25 25 34 13 32 17 -5 12 -38 -5 -40 15 -3 24 20 6 31 2 45 -16 12
-15 18 -18 18 -7 0 29 -29 42 -70 31 -33 -9 -37 -9 -33 5 4 9 11 23 17 31 10
13 9 13 -6 1 -10 -7 -18 -10 -18 -7 0 4 -9 2 -19 -4 -16 -8 -21 -5 -30 20 -12
35 -21 39 -21 10z"/>
<path fill="#000000" stroke="none" d="M265 60 c-3 -5 -1 -10 4 -10 6 0 11 5
11 10 0 6 -2 10 -4 10 -3 0 -8 -4 -11 -10z"/>
<path fill="#000000" stroke="none" d="M175 20 c-3 -5 -1 -10 4 -10 6 0 11 5
11 10 0 6 -2 10 -4 10 -3 0 -8 -4 -11 -10z"/>
</g>
</svg>
