<?xml version="1.0" standalone="no"?>
<!DOCTYPE svg PUBLIC "-//W3C//DTD SVG 20010904//EN"
 "http://www.w3.org/TR/2001/REC-SVG-20010904/DTD/svg10.dtd">
<svg version="1.0" xmlns="http://www.w3.org/2000/svg"
 width="32.000000pt" height="32.000000pt" viewBox="0 0 32.000000 32.000000"
 preserveAspectRatio="xMidYMid meet">
<metadata>
Created by potrace 1.16, written by Peter Selinger 2001-2019
</metadata>
<g transform="translate(0.000000,32.000000) scale(0.100000,-0.100000)"
fill="#000000" stroke="none">
<path fill="#000000" stroke="none" d="M160 226 c0 -2 7 -7 16 -10 8 -3 12 -2
9 4 -6 10 -25 14 -25 6z"/>
<path fill="#000000" stroke="none" d="M125 200 c-3 -5 -1 -10 4 -10 6 0 11 5
11 10 0 6 -2 10 -4 10 -3 0 -8 -4 -11 -10z"/>
<path fill="#000000" stroke="none" d="M142 189 c-10 -15 -16 -18 -26 -10 -7
6 -16 8 -19 4 -12 -11 -7 -23 9 -23 10 0 14 -6 11 -14 -7 -17 8 -31 43 -40 15
-4 20 -4 13 1 -9 6 -7 12 8 22 17 10 20 10 13 -1 -6 -10 -4 -10 10 1 12 10 14
17 6 25 -5 5 -10 19 -11 31 0 11 -3 14 -6 7 -4 -11 -8 -10 -22 2 -15 14 -18
13 -29 -5z"/>
<path fill="#ffffff" stroke="none" d="M145 122 c-3 -3 -11 0 -18 7 -9 10 -8
11 6 5 10 -3 15 -9 12 -12z"/>
</g>
</svg>
