<?xml version="1.0" standalone="no"?>
<!DOCTYPE svg PUBLIC "-//W3C//DTD SVG 20010904//EN"
 "http://www.w3.org/TR/2001/REC-SVG-20010904/DTD/svg10.dtd">
<svg version="1.0" xmlns="http://www.w3.org/2000/svg"
 width="32.000000pt" height="32.000000pt" viewBox="0 0 32.000000 32.000000"
 preserveAspectRatio="xMidYMid meet">
<metadata>
Created by potrace 1.16, written by Peter Selinger 2001-2019
</metadata>
<g transform="translate(0.000000,32.000000) scale(0.100000,-0.100000)"
fill="#000000" stroke="none">
<path fill="#000000" stroke="none" d="M143 198 c6 -17 -17 -33 -34 -22 -5 3
-9 -2 -9 -11 0 -9 5 -13 10 -10 6 3 10 3 10 -2 0 -4 8 -17 18 -28 9 -11 16
-18 14 -16 -3 7 30 41 40 41 5 0 6 -6 2 -12 -4 -7 -3 -9 1 -5 14 12 14 36 0
31 -7 -3 -23 7 -35 23 -13 15 -20 20 -17 11z"/>
</g>
</svg>
