<?xml version="1.0" standalone="no"?>
<!DOCTYPE svg PUBLIC "-//W3C//DTD SVG 20010904//EN"
 "http://www.w3.org/TR/2001/REC-SVG-20010904/DTD/svg10.dtd">
<svg version="1.0" xmlns="http://www.w3.org/2000/svg"
 width="32.000000pt" height="32.000000pt" viewBox="0 0 32.000000 32.000000"
 preserveAspectRatio="xMidYMid meet">
<metadata>
Created by potrace 1.16, written by Peter Selinger 2001-2019
</metadata>
<g transform="translate(0.000000,32.000000) scale(0.100000,-0.100000)"
fill="#000000" stroke="none">
<path fill="#000000" stroke="none" d="M122 221 c-9 -17 -25 -32 -34 -35 -30
-7 -22 -49 12 -64 17 -8 30 -20 30 -28 0 -23 50 -17 71 9 10 12 18 28 19 35 0
6 5 12 10 12 22 0 8 40 -20 57 -16 9 -30 23 -30 30 0 25 -41 13 -58 -16z"/>
</g>
</svg>
