<?xml version="1.0" standalone="no"?>
<!DOCTYPE svg PUBLIC "-//W3C//DTD SVG 20010904//EN"
 "http://www.w3.org/TR/2001/REC-SVG-20010904/DTD/svg10.dtd">
<svg version="1.0" xmlns="http://www.w3.org/2000/svg"
 width="32.000000pt" height="32.000000pt" viewBox="0 0 32.000000 32.000000"
 preserveAspectRatio="xMidYMid meet">
<metadata>
Created by potrace 1.16, written by Peter Selinger 2001-2019
</metadata>
<g transform="translate(0.000000,32.000000) scale(0.100000,-0.100000)"
fill="#000000" stroke="none">
<path fill="#000000" stroke="none" d="M152 245 c4 -4 0 -13 -9 -20 -11 -8
-12 -14 -5 -19 6 -3 16 2 22 13 7 15 7 22 -2 27 -7 4 -10 4 -6 -1z"/>
<path fill="#000000" stroke="none" d="M180 199 c0 -7 -11 -10 -29 -7 -17 2
-28 1 -25 -3 3 -5 -4 -17 -14 -27 -19 -19 -19 -19 1 -31 15 -10 18 -10 11 1
-6 10 -5 10 7 2 8 -6 25 -10 39 -7 19 3 22 1 12 -9 -6 -6 -12 -16 -12 -21 0
-5 8 1 19 14 10 13 16 29 14 36 -3 7 2 13 11 13 9 0 16 4 16 9 0 15 -18 23
-25 11 -4 -6 -11 -7 -17 -4 -7 4 -6 9 2 14 9 5 9 9 1 14 -6 4 -11 2 -11 -5z"/>
<path fill="#000000" stroke="none" d="M86 172 c-3 -5 1 -9 9 -9 8 0 15 4 15
9 0 4 -4 8 -9 8 -6 0 -12 -4 -15 -8z"/>
</g>
</svg>
