<?xml version="1.0" standalone="no"?>
<!DOCTYPE svg PUBLIC "-//W3C//DTD SVG 20010904//EN"
 "http://www.w3.org/TR/2001/REC-SVG-20010904/DTD/svg10.dtd">
<svg version="1.0" xmlns="http://www.w3.org/2000/svg"
 width="32.000000pt" height="32.000000pt" viewBox="0 0 32.000000 32.000000"
 preserveAspectRatio="xMidYMid meet">
<metadata>
Created by potrace 1.16, written by Peter Selinger 2001-2019
</metadata>
<g transform="translate(0.000000,32.000000) scale(0.100000,-0.100000)"
fill="#000000" stroke="none">
<path fill="#000000" stroke="none" d="M50 255 c0 -8 6 -32 14 -52 7 -21 19
-57 25 -80 16 -57 36 -69 28 -17 -3 21 -8 50 -11 64 -3 14 2 2 11 -25 16 -49
18 -51 54 -52 45 -2 58 11 56 59 -1 34 -3 37 -37 43 -19 3 -42 11 -50 16 -12
9 -11 10 5 4 10 -3 39 -9 64 -12 56 -8 48 11 -12 28 -23 6 -59 18 -80 25 -48
18 -67 18 -67 -1z"/>
<path fill="#ffffff" stroke="none" d="M180 150 c0 -5 -4 -10 -10 -10 -5 0
-10 5 -10 10 0 6 5 10 10 10 6 0 10 -4 10 -10z"/>
<path fill="#000000" stroke="none" d="M219 94 c-11 -14 -9 -19 11 -35 46 -35
64 -20 34 26 -19 29 -27 31 -45 9z"/>
</g>
</svg>
