<?xml version="1.0" standalone="no"?>
<!DOCTYPE svg PUBLIC "-//W3C//DTD SVG 20010904//EN"
 "http://www.w3.org/TR/2001/REC-SVG-20010904/DTD/svg10.dtd">
<svg version="1.0" xmlns="http://www.w3.org/2000/svg"
 width="32.000000pt" height="32.000000pt" viewBox="0 0 32.000000 32.000000"
 preserveAspectRatio="xMidYMid meet">
<metadata>
Created by potrace 1.16, written by Peter Selinger 2001-2019
</metadata>
<g transform="translate(0.000000,32.000000) scale(0.100000,-0.100000)"
fill="#000000" stroke="none">
<path fill="#000000" stroke="none" d="M0 160 l0 -160 160 0 160 0 0 160 0
160 -160 0 -160 0 0 -160z"/>
<path fill="#ffffff" stroke="none" d="M117 256 c21 -7 57 -19 81 -26 23 -7
42 -17 42 -21 0 -7 -57 -3 -95 7 -16 4 -17 3 -5 -5 8 -5 31 -13 50 -16 34 -6
36 -9 37 -43 2 -48 -11 -61 -56 -59 -36 1 -38 3 -54 52 -11 34 -14 39 -10 15
11 -62 11 -80 4 -80 -4 0 -14 19 -21 43 -7 23 -19 59 -26 80 -26 70 -17 79 53
53z"/>
<path fill="#ffffff" stroke="none" d="M264 85 c30 -46 12 -61 -34 -26 -20 16
-22 21 -11 35 18 22 26 20 45 -9z"/>
<path fill="#000000" stroke="none" d="M160 150 c0 -5 5 -10 10 -10 6 0 10 5
10 10 0 6 -4 10 -10 10 -5 0 -10 -4 -10 -10z"/>
</g>
</svg>
