<?xml version="1.0" standalone="no"?>
<!DOCTYPE svg PUBLIC "-//W3C//DTD SVG 20010904//EN"
 "http://www.w3.org/TR/2001/REC-SVG-20010904/DTD/svg10.dtd">
<svg version="1.0" xmlns="http://www.w3.org/2000/svg"
 width="32.000000pt" height="32.000000pt" viewBox="0 0 32.000000 32.000000"
 preserveAspectRatio="xMidYMid meet">
<metadata>
Created by potrace 1.16, written by Peter Selinger 2001-2019
</metadata>
<g transform="translate(0.000000,32.000000) scale(0.100000,-0.100000)"
fill="#000000" stroke="none">
<path fill="#000000" stroke="none" d="M238 256 c-10 -7 -18 -18 -18 -24 0 -6
-12 -12 -27 -14 -18 -2 -27 -8 -25 -17 2 -11 0 -12 -11 -3 -12 10 -15 7 -20
-15 -3 -16 -13 -37 -21 -48 -15 -19 -16 -16 -12 40 l5 60 -15 -34 c-8 -19 -13
-40 -10 -47 2 -6 -4 -25 -14 -42 -17 -28 -18 -33 -4 -46 13 -14 18 -13 46 4
17 10 36 16 42 14 7 -3 28 2 47 10 l34 15 -58 -5 c-70 -6 -70 10 -1 27 36 9
42 14 33 25 -8 10 -8 14 0 14 6 0 11 10 11 23 0 13 9 26 22 32 13 6 24 18 26
28 4 20 -6 21 -30 3z"/>
<path fill="#ffffff" stroke="none" d="M180 170 c0 -5 -4 -10 -10 -10 -5 0
-10 5 -10 10 0 6 5 10 10 10 6 0 10 -4 10 -10z"/>
</g>
</svg>
