<?xml version="1.0" standalone="no"?>
<!DOCTYPE svg PUBLIC "-//W3C//DTD SVG 20010904//EN"
 "http://www.w3.org/TR/2001/REC-SVG-20010904/DTD/svg10.dtd">
<svg version="1.0" xmlns="http://www.w3.org/2000/svg"
 width="32.000000pt" height="32.000000pt" viewBox="0 0 32.000000 32.000000"
 preserveAspectRatio="xMidYMid meet">
<metadata>
Created by potrace 1.16, written by Peter Selinger 2001-2019
</metadata>
<g transform="translate(0.000000,32.000000) scale(0.100000,-0.100000)"
fill="#000000" stroke="none">
<path fill="#000000" stroke="none" d="M0 160 l0 -160 160 0 160 0 0 160 0
160 -160 0 -160 0 0 -160z"/>
<path fill="#ffffff" stroke="none" d="M255 240 c-10 -11 -20 -18 -23 -15 -3
3 3 14 13 25 10 11 20 18 23 15 3 -3 -3 -14 -13 -25z"/>
<path fill="#ffffff" stroke="none" d="M220 195 c0 -14 -3 -24 -7 -24 -20 3
-24 -2 -13 -16 10 -12 9 -15 -4 -15 -9 0 -35 -10 -58 -21 l-42 -21 28 33 c16
19 34 34 40 35 26 2 28 5 17 17 -11 14 -5 27 13 27 6 0 5 -4 -3 -9 -8 -5 -9
-11 -3 -15 6 -3 13 3 17 14 9 27 15 25 15 -5z"/>
<path fill="#ffffff" stroke="none" d="M95 119 l-7 -30 39 6 c37 6 37 5 -11
-14 -28 -11 -51 -19 -53 -18 -4 4 29 87 34 87 3 0 2 -14 -2 -31z"/>
</g>
</svg>
