<?xml version="1.0" standalone="no"?>
<!DOCTYPE svg PUBLIC "-//W3C//DTD SVG 20010904//EN"
 "http://www.w3.org/TR/2001/REC-SVG-20010904/DTD/svg10.dtd">
<svg version="1.0" xmlns="http://www.w3.org/2000/svg"
 width="32.000000pt" height="32.000000pt" viewBox="0 0 32.000000 32.000000"
 preserveAspectRatio="xMidYMid meet">
<metadata>
Created by potrace 1.16, written by Peter Selinger 2001-2019
</metadata>
<g transform="translate(0.000000,32.000000) scale(0.100000,-0.100000)"
fill="#000000" stroke="none">
<path fill="#000000" stroke="none" d="M0 160 l0 -160 160 0 160 0 0 160 0
160 -160 0 -160 0 0 -160z"/>
<path fill="#ffffff" stroke="none" d="M252 190 c23 -8 41 -19 41 -25 0 -5
-18 -17 -41 -25 -23 -9 -57 -31 -77 -50 -24 -23 -35 -29 -35 -18 0 17 47 68
63 68 6 0 7 3 4 6 -4 4 -23 -6 -43 -21 -29 -22 -38 -25 -45 -14 -5 8 -9 10 -9
5 0 -5 -10 0 -22 11 -13 12 -34 23 -48 25 -14 1 -25 8 -25 13 0 6 11 12 25 13
14 2 35 13 48 25 12 11 22 16 22 11 0 -5 4 -3 9 5 7 11 16 8 45 -14 20 -15 39
-25 43 -21 3 3 2 6 -4 6 -16 0 -63 51 -63 68 0 11 11 5 35 -18 20 -19 54 -41
77 -50z"/>
<path fill="#000000" stroke="none" d="M103 165 c0 -8 4 -12 9 -9 5 3 6 10 3
15 -9 13 -12 11 -12 -6z"/>
</g>
</svg>
