<?xml version="1.0" standalone="no"?>
<!DOCTYPE svg PUBLIC "-//W3C//DTD SVG 20010904//EN"
 "http://www.w3.org/TR/2001/REC-SVG-20010904/DTD/svg10.dtd">
<svg version="1.0" xmlns="http://www.w3.org/2000/svg"
 width="32.000000pt" height="32.000000pt" viewBox="0 0 32.000000 32.000000"
 preserveAspectRatio="xMidYMid meet">
<metadata>
Created by potrace 1.16, written by Peter Selinger 2001-2019
</metadata>
<g transform="translate(0.000000,32.000000) scale(0.100000,-0.100000)"
fill="#000000" stroke="none">
<path fill="#000000" stroke="none" d="M0 160 l0 -160 160 0 160 0 0 160 0
160 -160 0 -160 0 0 -160z"/>
<path fill="#ffffff" stroke="none" d="M90 260 c24 -18 24 -20 7 -37 -17 -17
-19 -17 -37 7 -37 48 -18 67 30 30z"/>
<path fill="#ffffff" stroke="none" d="M230 202 c6 -20 18 -60 27 -89 9 -29
14 -56 10 -60 -4 -4 -31 1 -60 10 -29 9 -69 21 -89 27 -57 17 -61 34 -7 27 25
-3 54 -9 64 -12 16 -6 17 -5 5 4 -8 5 -31 13 -50 16 -33 6 -36 9 -37 45 -2 46
10 59 58 57 33 -1 36 -4 52 -51 9 -28 14 -40 11 -26 -14 70 -17 103 -6 96 6
-3 16 -23 22 -44z"/>
<path fill="#000000" stroke="none" d="M140 170 c0 -5 5 -10 10 -10 6 0 10 5
10 10 0 6 -4 10 -10 10 -5 0 -10 -4 -10 -10z"/>
</g>
</svg>
