<?xml version="1.0" standalone="no"?>
<!DOCTYPE svg PUBLIC "-//W3C//DTD SVG 20010904//EN"
 "http://www.w3.org/TR/2001/REC-SVG-20010904/DTD/svg10.dtd">
<svg version="1.0" xmlns="http://www.w3.org/2000/svg"
 width="32.000000pt" height="32.000000pt" viewBox="0 0 32.000000 32.000000"
 preserveAspectRatio="xMidYMid meet">
<metadata>
Created by potrace 1.16, written by Peter Selinger 2001-2019
</metadata>
<g transform="translate(0.000000,32.000000) scale(0.100000,-0.100000)"
fill="#000000" stroke="none">
<path fill="#000000" stroke="none" d="M118 200 c17 -20 15 -28 -10 -33 l-23
-4 23 -2 c25 -1 28 -10 10 -31 -10 -11 -9 -11 6 0 16 13 20 13 24 1 4 -11 6
-11 12 0 7 10 12 10 27 -1 15 -12 16 -12 6 0 -18 20 -16 28 10 33 l22 4 -22 2
c-26 1 -29 10 -10 31 10 12 9 12 -6 0 -15 -11 -20 -11 -27 -1 -6 11 -8 11 -12
0 -4 -12 -8 -12 -24 1 -15 11 -16 11 -6 0z"/>
</g>
</svg>
