<?xml version="1.0" standalone="no"?>
<!DOCTYPE svg PUBLIC "-//W3C//DTD SVG 20010904//EN"
 "http://www.w3.org/TR/2001/REC-SVG-20010904/DTD/svg10.dtd">
<svg version="1.0" xmlns="http://www.w3.org/2000/svg"
 width="32.000000pt" height="32.000000pt" viewBox="0 0 32.000000 32.000000"
 preserveAspectRatio="xMidYMid meet">
<metadata>
Created by potrace 1.16, written by Peter Selinger 2001-2019
</metadata>
<g transform="translate(0.000000,32.000000) scale(0.100000,-0.100000)"
fill="#000000" stroke="none">
<path fill="#000000" stroke="none" d="M0 160 l0 -160 160 0 160 0 0 160 0
160 -160 0 -160 0 0 -160z"/>
<path fill="#ffffff" stroke="none" d="M169 190 c4 0 13 6 21 13 11 9 11 8 0
-7 -13 -16 -13 -20 -1 -24 11 -4 11 -6 0 -12 -10 -7 -10 -12 1 -27 12 -15 12
-16 0 -5 -21 18 -30 15 -31 -10 l-2 -23 -4 23 c-5 25 -13 27 -33 10 -11 -10
-11 -9 0 6 13 16 13 20 1 24 -11 4 -11 6 0 12 10 7 10 12 -1 27 -12 15 -12 16
0 6 21 -19 30 -16 31 10 l2 22 4 -22 c2 -13 8 -23 12 -23z"/>
</g>
</svg>
