<?xml version="1.0" standalone="no"?>
<!DOCTYPE svg PUBLIC "-//W3C//DTD SVG 20010904//EN"
 "http://www.w3.org/TR/2001/REC-SVG-20010904/DTD/svg10.dtd">
<svg version="1.0" xmlns="http://www.w3.org/2000/svg"
 width="32.000000pt" height="32.000000pt" viewBox="0 0 32.000000 32.000000"
 preserveAspectRatio="xMidYMid meet">
<metadata>
Created by potrace 1.16, written by Peter Selinger 2001-2019
</metadata>
<g transform="translate(0.000000,32.000000) scale(0.100000,-0.100000)"
fill="#000000" stroke="none">
<path fill="#000000" stroke="none" d="M111 259 c-1 -39 -26 -61 -34 -31 -4
14 -5 14 -6 -2 0 -10 -9 -25 -18 -32 -13 -9 -18 -26 -18 -58 0 -29 -5 -48 -14
-51 -18 -7 1 -30 43 -52 29 -15 73 -11 161 14 18 5 19 4 5 -12 -14 -17 -14
-18 10 -5 31 16 69 60 70 80 0 8 -9 29 -19 46 -12 20 -16 36 -10 43 6 8 5 8
-3 1 -20 -16 -28 -12 -29 18 -2 23 -2 24 -6 5 -3 -15 -12 -23 -24 -23 -15 0
-20 -6 -17 -22 2 -13 9 -22 15 -21 7 2 10 -6 8 -16 -2 -10 5 -31 15 -46 18
-27 18 -27 25 -5 4 12 9 19 12 17 2 -3 0 -14 -6 -25 -13 -25 -60 -33 -131 -24
-51 7 -55 9 -55 34 0 14 -3 30 -8 34 -4 4 -7 12 -7 18 0 5 6 2 13 -8 12 -17
14 -16 25 8 9 21 9 24 -3 19 -9 -3 -15 1 -15 11 0 9 6 16 14 16 18 0 23 26 15
70 l-6 35 -2 -36z"/>
<path fill="#ffffff" stroke="none" d="M73 183 c-7 -2 -13 -12 -13 -20 0 -9
-3 -14 -6 -10 -10 10 4 37 18 36 10 0 10 -2 1 -6z"/>
<path fill="#ffffff" stroke="none" d="M65 52 c-3 -3 -11 0 -18 7 -9 10 -8 11
6 5 10 -3 15 -9 12 -12z"/>
<path fill="#000000" stroke="none" d="M200 262 c0 -37 -6 -42 -39 -32 -27 7
-27 7 -29 -39 0 -25 1 -40 4 -33 9 19 38 14 53 -10 13 -20 12 -22 -1 -10 -25
21 -68 11 -84 -20 -23 -44 -19 -48 56 -48 78 0 82 5 50 58 -26 42 -27 91 -2
87 9 -1 12 0 7 2 -6 2 -9 19 -7 38 2 19 1 35 -2 35 -3 0 -6 -13 -6 -28z"/>
<path fill="#ffffff" stroke="none" d="M220 88 c0 -5 -21 -7 -47 -6 -44 1 -45
2 -10 5 26 3 37 9 37 21 0 15 2 15 10 2 5 -8 10 -18 10 -22z"/>
<path fill="#ffffff" stroke="none" d="M116 83 c-10 -10 -19 5 -10 18 6 11 8
11 12 0 2 -7 1 -15 -2 -18z"/>
</g>
</svg>
