<?xml version="1.0" standalone="no"?>
<!DOCTYPE svg PUBLIC "-//W3C//DTD SVG 20010904//EN"
 "http://www.w3.org/TR/2001/REC-SVG-20010904/DTD/svg10.dtd">
<svg version="1.0" xmlns="http://www.w3.org/2000/svg"
 width="32.000000pt" height="32.000000pt" viewBox="0 0 32.000000 32.000000"
 preserveAspectRatio="xMidYMid meet">
<metadata>
Created by potrace 1.16, written by Peter Selinger 2001-2019
</metadata>
<g transform="translate(0.000000,32.000000) scale(0.100000,-0.100000)"
fill="#000000" stroke="none">
<path fill="#000000" stroke="none" d="M111 264 c-1 -38 -27 -65 -34 -37 -4
17 -5 17 -6 1 0 -10 -8 -18 -17 -18 -8 0 -13 -4 -9 -9 3 -5 1 -12 -5 -16 -5
-3 -10 -15 -10 -26 0 -10 -4 -19 -10 -19 -20 0 -11 -66 13 -88 29 -28 76 -45
91 -33 14 12 96 25 96 15 0 -4 -8 -13 -17 -21 -10 -8 2 -4 26 8 53 25 80 55
81 87 0 29 -17 63 -42 80 -10 7 -18 23 -19 35 0 12 -3 16 -6 10 -11 -29 -33
-13 -33 24 0 20 -3 34 -6 31 -3 -4 -5 -33 -5 -66 0 -42 6 -69 22 -96 32 -55
22 -66 -61 -66 -83 0 -93 11 -61 65 25 44 25 42 4 48 -17 4 -17 5 0 6 9 0 17
9 17 19 0 10 5 23 12 30 9 9 9 12 1 12 -7 0 -14 12 -16 28 -4 26 -4 26 -6 -4z"/>
<path fill="#000000" stroke="none" d="M137 224 c-4 -4 -7 -20 -7 -35 0 -16
-9 -43 -20 -61 -32 -53 -28 -58 50 -58 78 0 82 5 51 57 -11 17 -21 46 -23 65
-2 24 -8 34 -23 36 -12 2 -24 0 -28 -4z"/>
<path fill="#000000" stroke="none" d="M267 214 c-8 -8 1 -24 13 -24 4 0 10 7
14 15 5 15 -14 21 -27 9z"/>
</g>
</svg>
