<?xml version="1.0" standalone="no"?>
<!DOCTYPE svg PUBLIC "-//W3C//DTD SVG 20010904//EN"
 "http://www.w3.org/TR/2001/REC-SVG-20010904/DTD/svg10.dtd">
<svg version="1.0" xmlns="http://www.w3.org/2000/svg"
 width="32.000000pt" height="32.000000pt" viewBox="0 0 32.000000 32.000000"
 preserveAspectRatio="xMidYMid meet">
<metadata>
Created by potrace 1.16, written by Peter Selinger 2001-2019
</metadata>
<g transform="translate(0.000000,32.000000) scale(0.100000,-0.100000)"
fill="#000000" stroke="none">
<path fill="#000000" stroke="none" d="M0 160 l0 -160 160 0 160 0 0 160 0
160 -160 0 -160 0 0 -160z"/>
<path fill="#ffffff" stroke="none" d="M117 243 c-3 -10 -5 -2 -5 17 0 19 2
27 5 18 2 -10 2 -26 0 -35z"/>
<path fill="#ffffff" stroke="none" d="M207 243 c-3 -10 -5 -2 -5 17 0 19 2
27 5 18 2 -10 2 -26 0 -35z"/>
<path fill="#ffffff" stroke="none" d="M101 210 c13 7 19 7 19 0 0 -5 -7 -10
-16 -10 -13 0 -15 -8 -11 -40 2 -22 1 -37 -3 -35 -5 3 -10 -1 -13 -7 -3 -7 -2
6 0 30 6 43 -2 52 -27 30 -8 -7 -7 -4 3 8 9 11 18 29 18 40 1 15 3 15 6 -3 4
-19 8 -21 24 -13z"/>
<path fill="#ffffff" stroke="none" d="M247 210 c-4 -16 -3 -30 2 -30 18 0 23
-54 7 -66 -9 -6 -12 -15 -8 -19 4 -5 2 -5 -4 -2 -7 4 -14 0 -18 -8 -8 -22
-122 -21 -134 1 -6 10 -12 12 -16 6 -10 -17 16 -30 79 -40 l60 -9 -77 1 c-42
1 -69 4 -60 8 14 5 13 7 -5 7 -20 1 -23 6 -22 44 0 31 2 37 8 22 5 -11 14 -20
22 -20 21 -1 53 55 52 90 -1 17 1 22 4 13 5 -21 38 -24 47 -5 4 6 4 2 2 -10
-2 -11 5 -34 15 -50 10 -15 19 -26 20 -23 0 3 2 15 5 27 2 15 0 21 -9 17 -8
-2 -13 4 -14 16 -1 14 3 20 15 18 11 -2 18 5 20 20 2 12 6 22 9 22 3 0 3 -13
0 -30z"/>
<path fill="#ffffff" stroke="none" d="M292 88 c-2 -10 -9 -18 -14 -18 -6 0
-7 7 -4 16 3 9 6 28 7 42 l1 27 7 -25 c4 -14 5 -33 3 -42z"/>
<path fill="#000000" stroke="none" d="M137 157 c-4 -10 2 -13 18 -9 12 2 26
-1 29 -7 5 -7 -3 -11 -21 -12 -18 -1 -22 -3 -10 -6 10 -3 25 -2 33 1 12 5 12
9 2 26 -15 23 -43 27 -51 7z"/>
<path fill="#000000" stroke="none" d="M231 129 c-7 -12 -10 -23 -8 -26 3 -3
11 5 17 17 15 28 8 35 -9 9z"/>
<path fill="#000000" stroke="none" d="M163 113 c-53 -7 -43 -33 12 -33 25 0
45 2 45 4 0 12 -13 36 -19 34 -3 0 -21 -3 -38 -5z"/>
<path fill="#000000" stroke="none" d="M106 101 c-4 -7 -5 -15 -2 -18 9 -9 19
4 14 18 -4 11 -6 11 -12 0z"/>
</g>
</svg>
