<?xml version="1.0" standalone="no"?>
<!DOCTYPE svg PUBLIC "-//W3C//DTD SVG 20010904//EN"
 "http://www.w3.org/TR/2001/REC-SVG-20010904/DTD/svg10.dtd">
<svg version="1.0" xmlns="http://www.w3.org/2000/svg"
 width="32.000000pt" height="32.000000pt" viewBox="0 0 32.000000 32.000000"
 preserveAspectRatio="xMidYMid meet">
<metadata>
Created by potrace 1.16, written by Peter Selinger 2001-2019
</metadata>
<g transform="translate(0.000000,32.000000) scale(0.100000,-0.100000)"
fill="#000000" stroke="none">
<path fill="#000000" stroke="none" d="M0 160 l0 -160 160 0 160 0 0 160 0
160 -160 0 -160 0 0 -160z"/>
<path fill="#ffffff" stroke="none" d="M122 208 c-3 -10 -11 -18 -18 -18 -8 0
-14 -7 -14 -15 0 -9 6 -12 16 -8 13 5 12 -2 -6 -37 -12 -23 -19 -48 -17 -54 6
-14 111 -28 144 -20 23 6 24 17 5 50 -6 12 -9 24 -6 26 2 3 -2 11 -11 18 -22
18 -19 50 4 50 12 0 21 8 24 23 4 19 4 18 6 -5 0 -16 6 -28 11 -28 13 0 50
-60 50 -81 0 -20 -37 -63 -69 -79 -15 -8 -21 -8 -17 -1 9 14 -27 14 -78 0 -46
-13 -73 -7 -111 22 -22 18 -25 24 -14 33 8 6 15 27 15 46 2 61 8 81 21 76 8
-3 13 3 14 17 1 16 3 17 6 5 8 -30 33 -8 34 31 l2 36 6 -35 c4 -19 5 -43 3
-52z"/>
<path fill="#ffffff" stroke="none" d="M223 217 c8 -5 5 -7 -7 -5 -11 2 -19 6
-18 11 1 4 3 22 4 40 l1 32 4 -35 c3 -19 10 -38 16 -43z"/>
<path fill="#ffffff" stroke="none" d="M188 191 c2 -18 12 -47 23 -64 31 -52
27 -57 -51 -57 -78 0 -82 5 -50 57 10 18 20 50 21 71 3 37 4 39 28 32 20 -5
27 -14 29 -39z"/>
<path fill="#ffffff" stroke="none" d="M290 200 c0 -5 -4 -10 -10 -10 -5 0
-10 5 -10 10 0 6 5 10 10 10 6 0 10 -4 10 -10z"/>
<path fill="#ffffff" stroke="none" d="M17 108 c-3 -8 -6 -5 -6 6 -1 11 2 17
5 13 3 -3 4 -12 1 -19z"/>
<path fill="#000000" stroke="none" d="M55 179 c-11 -16 -1 -19 13 -3 7 8 8
14 3 14 -5 0 -13 -5 -16 -11z"/>
<path fill="#000000" stroke="none" d="M266 95 c-9 -26 -7 -32 5 -12 6 10 9
21 6 23 -2 3 -7 -2 -11 -11z"/>
</g>
</svg>
