<?xml version="1.0" standalone="no"?>
<!DOCTYPE svg PUBLIC "-//W3C//DTD SVG 20010904//EN"
 "http://www.w3.org/TR/2001/REC-SVG-20010904/DTD/svg10.dtd">
<svg version="1.0" xmlns="http://www.w3.org/2000/svg"
 width="32.000000pt" height="32.000000pt" viewBox="0 0 32.000000 32.000000"
 preserveAspectRatio="xMidYMid meet">
<metadata>
Created by potrace 1.16, written by Peter Selinger 2001-2019
</metadata>
<g transform="translate(0.000000,32.000000) scale(0.100000,-0.100000)"
fill="#000000" stroke="none">
<path fill="#000000" stroke="none" d="M112 260 c0 -19 2 -27 5 -17 2 9 2 25
0 35 -3 9 -5 1 -5 -18z"/>
<path fill="#000000" stroke="none" d="M202 260 c0 -19 2 -27 5 -17 2 9 2 25
0 35 -3 9 -5 1 -5 -18z"/>
<path fill="#000000" stroke="none" d="M69 218 c-4 -16 -2 -28 2 -28 15 0 10
-58 -6 -74 -24 -23 -19 -53 10 -58 21 -5 23 -3 13 9 -7 8 -13 22 -14 32 -2 11
2 9 13 -7 13 -19 24 -22 75 -22 43 0 60 4 64 15 4 8 11 12 17 8 6 -3 7 -1 3 5
-4 8 0 12 11 12 17 1 17 1 1 11 -10 5 -18 17 -18 25 0 8 5 12 10 9 6 -3 10 1
10 9 0 9 -4 16 -10 16 -5 0 -7 15 -5 33 4 27 3 28 -3 7 -5 -15 -15 -24 -25
-24 -21 2 -22 -12 -2 -20 9 -3 13 -14 11 -28 -3 -13 -5 -25 -5 -28 -1 -3 -10
8 -20 23 -10 16 -17 39 -15 50 2 12 2 16 -2 10 -9 -19 -42 -16 -47 5 -3 9 -5
4 -4 -13 0 -32 -35 -100 -46 -88 -10 9 -8 25 2 19 4 -3 6 13 4 36 -4 35 -3 40
11 35 10 -4 16 -1 16 9 0 11 -4 12 -19 4 -16 -8 -20 -6 -23 13 -3 20 -4 20 -9
-5z"/>
<path fill="#ffffff" stroke="none" d="M198 131 c12 -21 22 -41 22 -45 0 -3
-20 -6 -45 -6 -33 0 -45 4 -45 15 0 10 11 15 33 16 l32 1 -30 8 c-16 4 -24 8
-17 9 7 0 10 6 7 11 -4 6 -11 8 -16 5 -5 -3 -6 1 -3 9 11 28 40 17 62 -23z"/>
<path fill="#ffffff" stroke="none" d="M232 108 c-7 -7 -12 -8 -12 -2 0 14 12
26 19 19 2 -3 -1 -11 -7 -17z"/>
<path fill="#ffffff" stroke="none" d="M116 83 c-10 -10 -19 5 -10 18 6 11 8
11 12 0 2 -7 1 -15 -2 -18z"/>
<path fill="#000000" stroke="none" d="M282 125 c0 -16 2 -22 5 -12 2 9 2 23
0 30 -3 6 -5 -1 -5 -18z"/>
<path fill="#000000" stroke="none" d="M125 50 c19 -8 73 -14 64 -6 -2 2 -22
6 -44 9 -28 5 -34 4 -20 -3z"/>
</g>
</svg>
