<?xml version="1.0" standalone="no"?>
<!DOCTYPE svg PUBLIC "-//W3C//DTD SVG 20010904//EN"
 "http://www.w3.org/TR/2001/REC-SVG-20010904/DTD/svg10.dtd">
<svg version="1.0" xmlns="http://www.w3.org/2000/svg"
 width="32.000000pt" height="32.000000pt" viewBox="0 0 32.000000 32.000000"
 preserveAspectRatio="xMidYMid meet">
<metadata>
Created by potrace 1.16, written by Peter Selinger 2001-2019
</metadata>
<g transform="translate(0.000000,32.000000) scale(0.100000,-0.100000)"
fill="#000000" stroke="none">
<path fill="#000000" stroke="none" d="M1 203 c1 -65 4 -106 6 -90 2 15 9 27
14 27 5 0 9 8 9 18 0 10 6 24 13 31 10 11 10 13 0 7 -8 -4 -13 -1 -13 8 0 9 9
16 20 16 11 0 20 5 20 11 0 5 5 7 10 4 6 -4 7 -12 3 -18 -4 -7 0 -6 10 2 9 7
18 28 18 45 2 30 2 30 6 4 3 -22 10 -28 28 -28 13 0 30 -3 38 -6 12 -4 17 3
20 28 l4 33 1 -37 c2 -38 24 -53 35 -25 3 6 6 2 6 -9 1 -12 9 -28 19 -35 15
-13 16 -12 4 3 -11 14 -10 18 7 27 28 16 32 14 22 -11 -4 -13 -6 -32 -4 -43
19 -81 8 -106 -55 -139 -18 -9 -32 -19 -32 -21 0 -3 25 -5 55 -5 l55 0 0 160
0 160 -160 0 -160 0 1 -117z"/>
<path fill="#000000" stroke="none" d="M98 173 c7 -3 16 -2 19 1 4 3 -2 6 -13
5 -11 0 -14 -3 -6 -6z"/>
<path fill="#000000" stroke="none" d="M0 42 l0 -42 93 0 c86 1 127 12 127 34
0 10 -82 -3 -96 -15 -16 -13 -63 6 -96 39 l-28 26 0 -42z"/>
</g>
</svg>
