<?xml version="1.0" standalone="no"?>
<!DOCTYPE svg PUBLIC "-//W3C//DTD SVG 20010904//EN"
 "http://www.w3.org/TR/2001/REC-SVG-20010904/DTD/svg10.dtd">
<svg version="1.0" xmlns="http://www.w3.org/2000/svg"
 width="32.000000pt" height="32.000000pt" viewBox="0 0 32.000000 32.000000"
 preserveAspectRatio="xMidYMid meet">
<metadata>
Created by potrace 1.16, written by Peter Selinger 2001-2019
</metadata>
<g transform="translate(0.000000,32.000000) scale(0.100000,-0.100000)"
fill="#000000" stroke="none">
<path fill="#000000" stroke="none" d="M110 261 c0 -34 -18 -51 -31 -30 -6 10
-9 8 -9 -8 0 -12 -9 -27 -20 -33 -12 -7 -17 -16 -13 -27 4 -10 2 -14 -4 -10
-6 4 -8 -4 -5 -21 5 -20 7 -22 10 -9 4 18 4 18 17 0 13 -17 14 -17 28 2 8 11
14 27 12 36 -2 10 2 20 9 22 12 5 22 107 11 107 -3 0 -5 -13 -5 -29z"/>
<path fill="#ffffff" stroke="none" d="M76 174 c-3 -9 -6 -21 -6 -27 0 -7 -5
-4 -11 6 -11 18 -5 37 13 37 5 0 7 -7 4 -16z"/>
<path fill="#000000" stroke="none" d="M200 255 c0 -19 4 -35 8 -35 4 0 6 16
4 35 -2 19 -6 35 -8 35 -2 0 -4 -16 -4 -35z"/>
<path fill="#000000" stroke="none" d="M238 218 c-2 -16 -9 -22 -20 -20 -11 2
-18 -3 -18 -13 0 -8 8 -15 18 -16 14 0 14 -2 -3 -8 -23 -10 -35 3 -28 30 4 13
-2 21 -18 28 -31 11 -42 4 -36 -25 4 -25 -25 -79 -37 -67 -4 4 -4 -1 0 -10 3
-10 3 -17 -2 -16 -5 1 -19 1 -31 0 -17 -1 -20 -6 -15 -23 3 -14 1 -19 -6 -14
-8 5 -10 2 -6 -8 3 -9 12 -16 20 -16 8 0 14 -4 14 -9 0 -4 10 -7 23 -5 12 2
46 6 75 10 28 4 52 10 52 13 0 4 -30 8 -66 9 -43 2 -63 -1 -59 -8 8 -13 -5
-13 -25 0 -13 8 -13 10 2 10 12 0 15 6 11 22 -5 22 -5 22 9 5 11 -15 25 -18
73 -15 58 3 60 4 60 30 1 15 -2 25 -6 22 -4 -2 -9 3 -13 11 -6 18 10 20 20 3
5 -8 10 -6 15 8 6 16 8 16 8 2 1 -9 -3 -20 -9 -23 -5 -3 -10 -11 -10 -16 0 -6
4 -7 10 -4 6 3 7 -1 4 -9 -10 -26 4 -18 20 12 15 26 15 26 16 4 0 -22 -28 -61
-39 -54 -3 2 -7 -1 -9 -6 -3 -10 40 -8 57 3 14 8 14 75 1 95 -6 10 -10 11 -10
3 0 -7 -5 -13 -11 -13 -7 0 -10 12 -7 29 3 19 0 27 -8 24 -8 -3 -10 4 -7 21 3
14 3 26 0 26 -3 0 -7 -10 -9 -22z"/>
<path fill="#ffffff" stroke="none" d="M177 204 c-3 -3 -12 -4 -19 -1 -8 3 -5
6 6 6 11 1 17 -2 13 -5z"/>
<path fill="#ffffff" stroke="none" d="M188 150 c10 -17 10 -21 -2 -26 -8 -3
-23 -4 -33 -1 -12 3 -8 5 10 6 18 1 26 5 21 12 -3 6 -17 9 -29 7 -16 -4 -22
-1 -18 9 8 20 36 16 51 -7z"/>
<path fill="#ffffff" stroke="none" d="M214 104 c9 -24 9 -24 -39 -24 -55 0
-65 26 -12 33 17 2 35 5 38 5 4 1 10 -5 13 -14z"/>
<path fill="#ffffff" stroke="none" d="M116 83 c-10 -10 -19 5 -10 18 6 11 8
11 12 0 2 -7 1 -15 -2 -18z"/>
<path fill="#000000" stroke="none" d="M200 18 c0 -4 4 -8 9 -8 6 0 12 4 15 8
3 5 -1 9 -9 9 -8 0 -15 -4 -15 -9z"/>
</g>
</svg>
