<?xml version="1.0" standalone="no"?>
<!DOCTYPE svg PUBLIC "-//W3C//DTD SVG 20010904//EN"
 "http://www.w3.org/TR/2001/REC-SVG-20010904/DTD/svg10.dtd">
<svg version="1.0" xmlns="http://www.w3.org/2000/svg"
 width="32.000000pt" height="32.000000pt" viewBox="0 0 32.000000 32.000000"
 preserveAspectRatio="xMidYMid meet">
<metadata>
Created by potrace 1.16, written by Peter Selinger 2001-2019
</metadata>
<g transform="translate(0.000000,32.000000) scale(0.100000,-0.100000)"
fill="#000000" stroke="none">
<path fill="#000000" stroke="none" d="M0 160 l0 -160 78 1 c70 1 73 2 38 10
-22 5 -55 21 -73 35 -29 22 -33 31 -33 70 0 24 5 44 11 44 5 0 8 4 4 10 -3 5
6 17 20 26 14 9 25 24 26 33 0 9 3 11 5 4 10 -23 34 -1 34 30 0 17 3 28 6 25
3 -4 5 -33 5 -66 0 -42 -6 -69 -22 -96 -33 -56 -22 -67 62 -64 64 3 73 5 80
26 6 15 5 21 -1 17 -6 -3 -11 -1 -11 4 -1 6 -2 16 -3 21 0 6 -7 14 -14 19 -13
8 -20 127 -8 139 3 3 6 -8 6 -24 0 -17 7 -39 16 -50 8 -10 13 -14 10 -9 -2 6
-1 17 5 25 7 12 9 10 9 -8 0 -13 4 -21 9 -18 11 7 37 -22 50 -54 7 -19 10 -2
10 73 l1 97 -160 0 -160 0 0 -160z"/>
<path fill="#ffffff" stroke="none" d="M187 185 c1 -22 0 -34 -3 -27 -3 6 -15
12 -27 11 -21 0 -21 -1 3 -11 14 -6 29 -12 33 -12 10 -1 36 -46 37 -63 0 -9
-20 -13 -70 -13 -42 0 -70 4 -70 10 0 19 31 71 39 66 4 -3 5 8 3 24 -6 43 4
62 30 58 19 -2 23 -10 25 -43z"/>
<path fill="#000000" stroke="none" d="M107 103 c-10 -9 -9 -23 1 -23 5 0 9 7
9 15 0 17 -1 18 -10 8z"/>
<path fill="#000000" stroke="none" d="M205 90 c-3 -5 -1 -10 4 -10 6 0 11 5
11 10 0 6 -2 10 -4 10 -3 0 -8 -4 -11 -10z"/>
<path fill="#000000" stroke="none" d="M305 80 c-9 -28 -58 -60 -101 -66 -65
-8 -50 -14 34 -14 l82 0 0 50 c0 53 -5 63 -15 30z"/>
<path fill="#000000" stroke="none" d="M158 23 c7 -3 16 -2 19 1 4 3 -2 6 -13
5 -11 0 -14 -3 -6 -6z"/>
</g>
</svg>
