<?xml version="1.0" standalone="no"?>
<!DOCTYPE svg PUBLIC "-//W3C//DTD SVG 20010904//EN"
 "http://www.w3.org/TR/2001/REC-SVG-20010904/DTD/svg10.dtd">
<svg version="1.0" xmlns="http://www.w3.org/2000/svg"
 width="32.000000pt" height="32.000000pt" viewBox="0 0 32.000000 32.000000"
 preserveAspectRatio="xMidYMid meet">
<metadata>
Created by potrace 1.16, written by Peter Selinger 2001-2019
</metadata>
<g transform="translate(0.000000,32.000000) scale(0.100000,-0.100000)"
fill="#000000" stroke="none">
<path fill="#000000" stroke="none" d="M0 160 l0 -159 160 0 159 0 0 159 1
160 -160 0 -160 0 0 -160z"/>
<path fill="#ffffff" stroke="none" d="M117 243 c-3 -10 -5 -2 -5 17 0 19 2
27 5 18 2 -10 2 -26 0 -35z"/>
<path fill="#ffffff" stroke="none" d="M212 256 c2 -19 0 -32 -4 -30 -8 5 -12
64 -4 64 2 0 6 -15 8 -34z"/>
<path fill="#ffffff" stroke="none" d="M106 201 c8 7 14 7 14 1 0 -5 -6 -12
-14 -15 -8 -3 -13 -17 -11 -36 1 -17 -1 -28 -6 -25 -10 6 -12 -10 -2 -19 9
-10 52 64 46 80 -8 19 5 45 18 37 8 -4 7 -9 -2 -16 -10 -7 -6 -8 14 -5 24 4
28 1 24 -13 -3 -10 4 -31 14 -47 10 -15 19 -26 20 -23 9 54 9 60 -6 60 -8 0
-15 4 -15 9 0 5 8 8 17 7 10 0 20 9 25 24 6 21 7 20 3 -7 -3 -22 0 -33 8 -33
8 0 8 -3 -2 -9 -9 -6 -12 -18 -7 -37 9 -33 9 -34 -1 -33 -3 0 -10 -6 -15 -15
-13 -24 -123 -23 -137 2 -8 14 -11 14 -12 2 -1 -8 -1 -18 0 -22 0 -5 -5 -8
-11 -8 -9 0 -8 -4 2 -10 8 -5 11 -10 5 -10 -5 0 -17 5 -25 10 -9 6 -11 10 -3
10 7 0 10 7 6 17 -4 10 -2 14 4 10 6 -4 13 0 17 8 3 8 1 15 -5 15 -6 0 -7 6
-2 13 10 16 14 79 4 73 -5 -3 -6 7 -3 22 l5 27 10 -28 c7 -22 12 -26 23 -16z"/>
<path fill="#ffffff" stroke="none" d="M300 120 c0 -11 -4 -20 -9 -20 -5 0
-11 9 -14 20 -3 13 0 20 9 20 8 0 14 -9 14 -20z"/>
<path fill="#ffffff" stroke="none" d="M265 61 c-3 -6 -13 -11 -21 -11 -8 0
-12 5 -9 10 4 6 11 8 16 5 5 -4 9 -1 9 6 0 7 3 10 6 6 3 -3 3 -10 -1 -16z"/>
<path fill="#ffffff" stroke="none" d="M123 53 c-7 -2 -19 -2 -25 0 -7 3 -2 5
12 5 14 0 19 -2 13 -5z"/>
<path fill="#ffffff" stroke="none" d="M203 43 c-7 -2 -19 -2 -25 0 -7 3 -2 5
12 5 14 0 19 -2 13 -5z"/>
<path fill="#ffffff" stroke="none" d="M230 24 c0 -8 -19 -13 -24 -6 -3 5 1 9
9 9 8 0 15 -2 15 -3z"/>
<path fill="#000000" stroke="none" d="M136 154 c-3 -8 -2 -12 3 -9 5 3 12 1
16 -5 3 -5 0 -11 -7 -11 -7 -1 1 -5 17 -9 l30 -8 -32 -1 c-22 -1 -33 -6 -33
-16 0 -11 12 -15 45 -15 25 0 45 3 45 6 0 4 -10 24 -22 45 -22 40 -51 51 -62
23z"/>
<path fill="#000000" stroke="none" d="M227 123 c-11 -11 -8 -20 7 -20 8 0 12
6 9 14 -6 15 -7 15 -16 6z"/>
<path fill="#000000" stroke="none" d="M106 101 c-4 -7 -5 -15 -2 -18 9 -9 19
4 14 18 -4 11 -6 11 -12 0z"/>
</g>
</svg>
