<?xml version="1.0" standalone="no"?>
<!DOCTYPE svg PUBLIC "-//W3C//DTD SVG 20010904//EN"
 "http://www.w3.org/TR/2001/REC-SVG-20010904/DTD/svg10.dtd">
<svg version="1.0" xmlns="http://www.w3.org/2000/svg"
 width="32.000000pt" height="32.000000pt" viewBox="0 0 32.000000 32.000000"
 preserveAspectRatio="xMidYMid meet">
<metadata>
Created by potrace 1.16, written by Peter Selinger 2001-2019
</metadata>
<g transform="translate(0.000000,32.000000) scale(0.100000,-0.100000)"
fill="#000000" stroke="none">
<path fill="#000000" stroke="none" d="M111 264 c-1 -36 -30 -70 -32 -38 0 14
-2 15 -6 4 -3 -8 -14 -23 -25 -34 -10 -11 -18 -28 -18 -38 0 -10 -4 -18 -10
-18 -16 0 -12 -53 6 -79 21 -29 81 -56 97 -43 19 15 97 26 97 13 0 -6 -5 -11
-12 -11 -6 0 -9 -3 -6 -6 9 -8 69 25 90 50 30 36 19 94 -24 124 -10 7 -18 23
-19 35 0 12 -3 16 -6 10 -11 -29 -33 -13 -33 24 0 20 -3 34 -6 31 -3 -4 -5
-33 -5 -66 0 -42 6 -69 22 -96 32 -55 22 -66 -60 -66 -38 0 -73 5 -76 10 -7
12 16 80 27 80 15 0 8 19 -9 23 -15 4 -16 5 -2 6 20 1 27 33 18 81 l-6 35 -2
-31z"/>
<path fill="#000000" stroke="none" d="M137 224 c-4 -4 -7 -23 -6 -43 0 -20 3
-30 6 -23 8 20 37 14 52 -10 13 -20 12 -22 -1 -10 -25 21 -68 11 -84 -20 -23
-44 -19 -48 56 -48 78 0 82 5 51 57 -11 17 -21 46 -23 65 -2 24 -8 34 -23 36
-12 2 -24 0 -28 -4z"/>
<path fill="#ffffff" stroke="none" d="M220 88 c0 -5 -21 -7 -47 -6 -44 1 -45
2 -10 5 26 3 37 9 37 21 0 15 2 15 10 2 5 -8 10 -18 10 -22z"/>
<path fill="#ffffff" stroke="none" d="M116 83 c-10 -10 -19 5 -10 18 6 11 8
11 12 0 2 -7 1 -15 -2 -18z"/>
<path fill="#000000" stroke="none" d="M265 200 c4 -6 11 -8 16 -5 14 9 11 15
-7 15 -8 0 -12 -5 -9 -10z"/>
</g>
</svg>
