<?xml version="1.0" standalone="no"?>
<!DOCTYPE svg PUBLIC "-//W3C//DTD SVG 20010904//EN"
 "http://www.w3.org/TR/2001/REC-SVG-20010904/DTD/svg10.dtd">
<svg version="1.0" xmlns="http://www.w3.org/2000/svg"
 width="32.000000pt" height="32.000000pt" viewBox="0 0 32.000000 32.000000"
 preserveAspectRatio="xMidYMid meet">
<metadata>
Created by potrace 1.16, written by Peter Selinger 2001-2019
</metadata>
<g transform="translate(0.000000,32.000000) scale(0.100000,-0.100000)"
fill="#000000" stroke="none">
<path fill="#000000" stroke="none" d="M114 258 c1 -28 -2 -38 -16 -41 -10 -3
-19 2 -21 12 -3 11 -5 10 -6 -5 0 -12 -8 -24 -16 -28 -8 -3 -15 -13 -15 -23 1
-17 1 -17 11 0 15 26 29 20 29 -12 0 -17 4 -32 9 -36 6 -3 8 10 5 30 -3 26 0
35 10 35 8 0 17 8 19 18 3 9 6 -1 7 -23 1 -22 4 -34 7 -27 2 6 13 12 23 12 10
0 21 -6 23 -12 3 -7 6 4 6 25 1 37 -1 39 -44 41 -15 1 -22 11 -27 36 l-7 35 3
-37z"/>
<path fill="#ffffff" stroke="none" d="M173 193 c-7 -2 -19 -2 -25 0 -7 3 -2
5 12 5 14 0 19 -2 13 -5z"/>
<path fill="#000000" stroke="none" d="M202 260 c0 -19 2 -27 5 -17 2 9 2 25
0 35 -3 9 -5 1 -5 -18z"/>
<path fill="#000000" stroke="none" d="M238 218 c-2 -16 -9 -22 -20 -20 -12 2
-18 -4 -18 -18 0 -11 7 -20 15 -20 8 0 14 -6 12 -12 -1 -7 3 -12 8 -11 6 1 11
-6 11 -16 0 -10 -6 -18 -14 -18 -7 0 -10 7 -8 14 3 8 1 11 -5 8 -5 -4 -7 -15
-4 -26 6 -17 1 -19 -42 -17 -42 1 -43 2 -12 5 28 3 38 10 43 26 3 12 0 26 -6
32 -8 7 -9 6 -3 -5 7 -12 6 -13 -7 -2 -25 20 -68 11 -84 -20 -23 -44 -19 -48
56 -48 53 0 70 3 70 14 0 8 8 13 17 12 10 0 20 9 24 24 l7 25 1 -26 c1 -28
-16 -54 -39 -61 -10 -3 -8 -6 7 -10 15 -4 27 2 43 24 25 34 20 57 -18 96 -17
17 -26 36 -24 50 2 12 1 22 -2 22 -2 0 -6 -10 -8 -22z"/>
<path fill="#ffffff" stroke="none" d="M116 83 c-10 -10 -19 5 -10 18 6 11 8
11 12 0 2 -7 1 -15 -2 -18z"/>
<path fill="#000000" stroke="none" d="M46 134 c-3 -8 -6 -24 -6 -34 0 -10 -5
-20 -12 -22 -17 -6 -2 -24 33 -42 19 -10 38 -12 48 -7 9 4 34 9 56 10 59 3 54
9 -15 17 -50 5 -63 11 -70 28 -4 11 -6 26 -3 32 2 6 -3 16 -10 23 -12 9 -16 8
-21 -5z"/>
<path fill="#ffffff" stroke="none" d="M65 52 c-3 -3 -11 0 -18 7 -9 10 -8 11
6 5 10 -3 15 -9 12 -12z"/>
</g>
</svg>
