<?xml version="1.0" standalone="no"?>
<!DOCTYPE svg PUBLIC "-//W3C//DTD SVG 20010904//EN"
 "http://www.w3.org/TR/2001/REC-SVG-20010904/DTD/svg10.dtd">
<svg version="1.0" xmlns="http://www.w3.org/2000/svg"
 width="32.000000pt" height="32.000000pt" viewBox="0 0 32.000000 32.000000"
 preserveAspectRatio="xMidYMid meet">
<metadata>
Created by potrace 1.16, written by Peter Selinger 2001-2019
</metadata>
<g transform="translate(0.000000,32.000000) scale(0.100000,-0.100000)"
fill="#000000" stroke="none">
<path fill="#000000" stroke="none" d="M192 289 c2 -7 10 -15 17 -17 8 -3 12
1 9 9 -2 7 -10 15 -17 17 -8 3 -12 -1 -9 -9z"/>
<path fill="#000000" stroke="none" d="M50 280 c0 -5 5 -10 11 -10 5 0 7 5 4
10 -3 6 -8 10 -11 10 -2 0 -4 -4 -4 -10z"/>
<path fill="#000000" stroke="none" d="M83 261 c-12 -11 -23 -17 -26 -14 -3 2
-14 0 -24 -7 -16 -10 -16 -10 3 -5 18 5 22 1 22 -22 0 -15 5 -29 11 -31 7 -2
1 -14 -15 -29 -22 -20 -24 -27 -13 -34 8 -5 22 -6 33 -3 13 4 16 3 11 -7 -6
-9 -2 -11 13 -7 16 5 19 2 14 -11 -5 -14 -4 -14 14 -1 18 14 18 14 2 -6 -10
-11 -18 -27 -18 -35 0 -12 2 -11 10 1 6 10 10 11 10 3 0 -23 27 -14 39 13 13
30 6 47 -10 24 -9 -12 -10 -11 -6 6 3 17 1 20 -14 17 -26 -7 -38 26 -15 43 10
7 15 17 11 23 -3 6 0 11 7 11 17 0 41 37 28 45 -5 3 -11 1 -15 -5 -8 -13 -25
-13 -25 1 0 5 5 7 10 4 6 -3 13 1 16 9 5 14 8 14 21 1 8 -8 11 -19 8 -25 -8
-12 46 -34 54 -22 3 5 16 14 28 21 28 14 27 49 -2 46 -11 -1 -26 -3 -32 -4 -7
0 -13 -13 -14 -28 -1 -27 -1 -27 -8 -4 -3 13 -16 30 -29 39 -19 13 -22 13 -28
-2 -4 -9 -17 -16 -33 -15 -14 0 -20 3 -13 6 13 5 17 23 4 23 -5 0 -18 -9 -29
-19z"/>
<path fill="#ffffff" stroke="none" d="M120 194 c0 -16 -26 -19 -35 -4 -3 6
-4 14 0 20 8 13 35 1 35 -16z"/>
<path fill="#ffffff" stroke="none" d="M86 138 c4 -7 4 -10 -1 -6 -4 4 -15 2
-24 -5 -14 -11 -14 -10 -2 6 16 20 18 21 27 5z"/>
<path fill="#000000" stroke="none" d="M257 189 c-10 -6 -26 -8 -35 -5 -10 4
-7 -2 7 -12 29 -23 20 -42 -20 -42 -16 0 -29 -4 -29 -9 0 -15 57 -6 78 12 11
10 20 29 20 42 0 14 -1 25 -2 25 0 0 -9 -5 -19 -11z"/>
<path fill="#000000" stroke="none" d="M210 150 c0 -5 5 -10 10 -10 6 0 10 5
10 10 0 6 -4 10 -10 10 -5 0 -10 -4 -10 -10z"/>
<path fill="#000000" stroke="none" d="M235 100 c-3 -6 -11 -8 -17 -4 -6 4 -8
-3 -6 -17 2 -14 11 -25 22 -27 15 -3 18 0 13 18 -4 16 -2 20 10 16 9 -4 13 -1
11 6 -6 16 -25 21 -33 8z"/>
<path fill="#000000" stroke="none" d="M280 100 c0 -5 5 -10 10 -10 6 0 10 5
10 10 0 6 -4 10 -10 10 -5 0 -10 -4 -10 -10z"/>
<path fill="#000000" stroke="none" d="M12 70 c7 -11 17 -20 22 -20 5 0 1 9
-9 20 -10 11 -20 20 -22 20 -2 0 2 -9 9 -20z"/>
<path fill="#000000" stroke="none" d="M228 23 c7 -3 16 -2 19 1 4 3 -2 6 -13
5 -11 0 -14 -3 -6 -6z"/>
</g>
</svg>
