<?xml version="1.0" standalone="no"?>
<!DOCTYPE svg PUBLIC "-//W3C//DTD SVG 20010904//EN"
 "http://www.w3.org/TR/2001/REC-SVG-20010904/DTD/svg10.dtd">
<svg version="1.0" xmlns="http://www.w3.org/2000/svg"
 width="32.000000pt" height="32.000000pt" viewBox="0 0 32.000000 32.000000"
 preserveAspectRatio="xMidYMid meet">
<metadata>
Created by potrace 1.16, written by Peter Selinger 2001-2019
</metadata>
<g transform="translate(0.000000,32.000000) scale(0.100000,-0.100000)"
fill="#000000" stroke="none">
<path fill="#000000" stroke="none" d="M0 160 l0 -160 160 0 160 0 0 160 0
160 -160 0 -160 0 0 -160z"/>
<path fill="#ffffff" stroke="none" d="M106 249 c52 -13 61 -40 9 -29 -5 1 1
-10 15 -25 21 -22 22 -28 10 -35 -10 -7 -11 -10 -2 -10 6 0 12 -5 12 -11 0 -8
-5 -8 -15 1 -8 7 -13 16 -10 20 2 4 -5 16 -16 26 -11 10 -20 14 -19 9 11 -52
-16 -43 -29 9 -16 65 -20 61 45 45z"/>
<path fill="#ffffff" stroke="none" d="M164 158 c-5 -8 -2 -9 9 -5 10 4 16 2
14 -6 -1 -7 4 -11 11 -10 6 2 11 -3 10 -10 -2 -6 3 -11 9 -10 7 2 12 -3 10
-10 -1 -6 4 -11 11 -9 6 1 11 -4 10 -10 -2 -7 3 -12 10 -10 6 1 11 -4 10 -10
-2 -7 3 -12 10 -10 8 1 11 -2 7 -8 -12 -20 -33 -9 -84 45 -44 46 -57 75 -35
75 3 0 2 -5 -2 -12z"/>
</g>
</svg>
