<?xml version="1.0" standalone="no"?>
<!DOCTYPE svg PUBLIC "-//W3C//DTD SVG 20010904//EN"
 "http://www.w3.org/TR/2001/REC-SVG-20010904/DTD/svg10.dtd">
<svg version="1.0" xmlns="http://www.w3.org/2000/svg"
 width="32.000000pt" height="32.000000pt" viewBox="0 0 32.000000 32.000000"
 preserveAspectRatio="xMidYMid meet">
<metadata>
Created by potrace 1.16, written by Peter Selinger 2001-2019
</metadata>
<g transform="translate(0.000000,32.000000) scale(0.100000,-0.100000)"
fill="#000000" stroke="none">
<path fill="#000000" stroke="none" d="M187 222 c-69 -69 -85 -94 -44 -67 30
19 41 8 22 -22 -27 -41 -1 -25 63 40 58 59 62 65 53 90 -6 15 -14 27 -19 27
-4 0 -38 -30 -75 -68z"/>
<path fill="#ffffff" stroke="none" d="M200 206 c0 -2 -8 -10 -17 -17 -16 -13
-17 -12 -4 4 13 16 21 21 21 13z"/>
<path fill="#ffffff" stroke="none" d="M220 186 c0 -2 -8 -10 -17 -17 -16 -13
-17 -12 -4 4 13 16 21 21 21 13z"/>
<path fill="#000000" stroke="none" d="M130 134 c-17 -15 -30 -23 -29 -18 3
18 -1 34 -10 34 -9 0 -35 -89 -28 -97 8 -7 97 19 97 28 0 9 -16 13 -35 9 -5
-1 -1 9 11 22 46 50 43 62 -6 22z"/>
</g>
</svg>
