<?xml version="1.0" standalone="no"?>
<!DOCTYPE svg PUBLIC "-//W3C//DTD SVG 20010904//EN"
 "http://www.w3.org/TR/2001/REC-SVG-20010904/DTD/svg10.dtd">
<svg version="1.0" xmlns="http://www.w3.org/2000/svg"
 width="32.000000pt" height="32.000000pt" viewBox="0 0 32.000000 32.000000"
 preserveAspectRatio="xMidYMid meet">
<metadata>
Created by potrace 1.16, written by Peter Selinger 2001-2019
</metadata>
<g transform="translate(0.000000,32.000000) scale(0.100000,-0.100000)"
fill="#000000" stroke="none">
<path fill="#000000" stroke="none" d="M198 258 c-48 -13 -50 -38 -3 -28 6 1
-1 -10 -14 -24 -32 -34 -19 -47 15 -15 14 13 25 20 24 14 -11 -52 16 -43 29 9
16 65 18 63 -51 44z"/>
<path fill="#000000" stroke="none" d="M99 153 c-55 -53 -68 -71 -63 -87 13
-43 24 -40 90 24 64 63 112 126 68 89 -46 -39 -68 -29 -33 15 36 46 9 28 -62
-41z"/>
<path fill="#ffffff" stroke="none" d="M130 156 c0 -2 -8 -10 -17 -17 -16 -13
-17 -12 -4 4 13 16 21 21 21 13z"/>
<path fill="#ffffff" stroke="none" d="M150 136 c0 -2 -8 -10 -17 -17 -16 -13
-17 -12 -4 4 13 16 21 21 21 13z"/>
</g>
</svg>
