<?xml version="1.0" standalone="no"?>
<!DOCTYPE svg PUBLIC "-//W3C//DTD SVG 20010904//EN"
 "http://www.w3.org/TR/2001/REC-SVG-20010904/DTD/svg10.dtd">
<svg version="1.0" xmlns="http://www.w3.org/2000/svg"
 width="32.000000pt" height="32.000000pt" viewBox="0 0 32.000000 32.000000"
 preserveAspectRatio="xMidYMid meet">
<metadata>
Created by potrace 1.16, written by Peter Selinger 2001-2019
</metadata>
<g transform="translate(0.000000,32.000000) scale(0.100000,-0.100000)"
fill="#000000" stroke="none">
<path fill="#000000" stroke="none" d="M50 254 c0 -21 24 -94 31 -94 9 0 13
16 9 35 -1 5 8 1 19 -9 11 -10 18 -22 16 -26 -3 -4 2 -13 10 -20 10 -9 15 -9
15 -1 0 6 -6 11 -12 11 -9 0 -8 3 2 10 12 7 11 13 -10 35 -14 15 -20 26 -15
25 52 -11 43 16 -9 29 -51 13 -56 13 -56 5z"/>
<path fill="#000000" stroke="none" d="M155 160 c-7 -12 92 -120 111 -120 7 0
16 5 19 10 4 6 1 9 -7 8 -7 -2 -12 3 -10 10 1 6 -4 11 -10 10 -7 -2 -12 3 -10
10 1 6 -4 11 -10 10 -7 -2 -12 3 -11 9 2 7 -3 12 -10 10 -6 -1 -11 4 -9 10 1
7 -4 12 -10 10 -7 -1 -12 3 -11 10 2 8 -4 10 -14 6 -11 -4 -14 -3 -9 5 4 7 5
12 2 12 -3 0 -8 -4 -11 -10z"/>
</g>
</svg>
