<?xml version="1.0" standalone="no"?>
<!DOCTYPE svg PUBLIC "-//W3C//DTD SVG 20010904//EN"
 "http://www.w3.org/TR/2001/REC-SVG-20010904/DTD/svg10.dtd">
<svg version="1.0" xmlns="http://www.w3.org/2000/svg"
 width="32.000000pt" height="32.000000pt" viewBox="0 0 32.000000 32.000000"
 preserveAspectRatio="xMidYMid meet">
<metadata>
Created by potrace 1.16, written by Peter Selinger 2001-2019
</metadata>
<g transform="translate(0.000000,32.000000) scale(0.100000,-0.100000)"
fill="#000000" stroke="none">
<path fill="#000000" stroke="none" d="M90 225 c30 -30 59 -55 64 -55 6 0 -14
25 -44 55 -30 30 -59 55 -64 55 -6 0 14 -25 44 -55z"/>
<path fill="#000000" stroke="none" d="M228 133 c-2 -23 -9 -29 -33 -31 -29
-4 -28 -5 19 -23 28 -10 51 -17 53 -15 7 6 -19 96 -28 96 -4 0 -9 -12 -11 -27z"/>
</g>
</svg>
