<?xml version="1.0" standalone="no"?>
<!DOCTYPE svg PUBLIC "-//W3C//DTD SVG 20010904//EN"
 "http://www.w3.org/TR/2001/REC-SVG-20010904/DTD/svg10.dtd">
<svg version="1.0" xmlns="http://www.w3.org/2000/svg"
 width="32.000000pt" height="32.000000pt" viewBox="0 0 32.000000 32.000000"
 preserveAspectRatio="xMidYMid meet">
<metadata>
Created by potrace 1.16, written by Peter Selinger 2001-2019
</metadata>
<g transform="translate(0.000000,32.000000) scale(0.100000,-0.100000)"
fill="#000000" stroke="none">
<path fill="#000000" stroke="none" d="M0 160 l0 -160 160 0 160 0 0 160 0
160 -160 0 -160 0 0 -160z"/>
<path fill="#ffffff" stroke="none" d="M260 268 c0 -2 -9 -25 -19 -53 -18 -48
-19 -49 -23 -20 -2 24 -8 31 -30 33 -39 5 -35 18 10 30 38 10 62 14 62 10z"/>
<path fill="#ffffff" stroke="none" d="M100 95 c-30 -30 -56 -52 -59 -50 -3 3
19 30 49 60 30 30 56 52 59 50 3 -3 -19 -30 -49 -60z"/>
</g>
</svg>
