<?xml version="1.0" standalone="no"?>
<!DOCTYPE svg PUBLIC "-//W3C//DTD SVG 20010904//EN"
 "http://www.w3.org/TR/2001/REC-SVG-20010904/DTD/svg10.dtd">
<svg version="1.0" xmlns="http://www.w3.org/2000/svg"
 width="32.000000pt" height="32.000000pt" viewBox="0 0 32.000000 32.000000"
 preserveAspectRatio="xMidYMid meet">
<metadata>
Created by potrace 1.16, written by Peter Selinger 2001-2019
</metadata>
<g transform="translate(0.000000,32.000000) scale(0.100000,-0.100000)"
fill="#000000" stroke="none">
<path fill="#000000" stroke="none" d="M207 203 c3 -10 10 -23 14 -29 5 -6 6
-14 2 -18 -4 -3 -8 -13 -9 -20 -2 -12 32 2 74 30 3 1 -62 44 -81 52 -4 2 -4
-5 0 -15z"/>
<path fill="#000000" stroke="none" d="M48 163 c17 -2 47 -2 65 0 17 2 3 4
-33 4 -36 0 -50 -2 -32 -4z"/>
</g>
</svg>
