<?xml version="1.0" standalone="no"?>
<!DOCTYPE svg PUBLIC "-//W3C//DTD SVG 20010904//EN"
 "http://www.w3.org/TR/2001/REC-SVG-20010904/DTD/svg10.dtd">
<svg version="1.0" xmlns="http://www.w3.org/2000/svg"
 width="32.000000pt" height="32.000000pt" viewBox="0 0 32.000000 32.000000"
 preserveAspectRatio="xMidYMid meet">
<metadata>
Created by potrace 1.16, written by Peter Selinger 2001-2019
</metadata>
<g transform="translate(0.000000,32.000000) scale(0.100000,-0.100000)"
fill="#000000" stroke="none">
<path fill="#000000" stroke="none" d="M0 160 l0 -160 160 0 160 0 0 160 0
160 -160 0 -160 0 0 -160z"/>
<path fill="#ffffff" stroke="none" d="M281 263 c9 -25 5 -31 -53 -90 -34 -35
-66 -63 -71 -63 -5 0 -4 7 3 15 21 25 5 17 -21 -11 -13 -14 -19 -25 -14 -24
19 4 35 0 35 -9 0 -9 -89 -35 -97 -28 -7 8 19 97 28 97 8 0 13 -15 10 -32 -2
-13 5 -9 30 19 13 15 16 21 7 14 -10 -7 -18 -9 -18 -3 0 11 131 142 143 142 4
0 12 -12 18 -27z"/>
</g>
</svg>
