<?xml version="1.0" standalone="no"?>
<!DOCTYPE svg PUBLIC "-//W3C//DTD SVG 20010904//EN"
 "http://www.w3.org/TR/2001/REC-SVG-20010904/DTD/svg10.dtd">
<svg version="1.0" xmlns="http://www.w3.org/2000/svg"
 width="32.000000pt" height="32.000000pt" viewBox="0 0 32.000000 32.000000"
 preserveAspectRatio="xMidYMid meet">
<metadata>
Created by potrace 1.16, written by Peter Selinger 2001-2019
</metadata>
<g transform="translate(0.000000,32.000000) scale(0.100000,-0.100000)"
fill="#000000" stroke="none">
<path fill="#000000" stroke="none" d="M198 258 c-45 -12 -49 -25 -10 -30 22
-2 28 -9 30 -33 4 -29 5 -28 23 20 10 28 19 51 19 53 0 4 -24 0 -62 -10z"/>
<path fill="#000000" stroke="none" d="M90 105 c-30 -30 -52 -57 -49 -60 3 -2
29 20 59 50 30 30 52 57 49 60 -3 2 -29 -20 -59 -50z"/>
</g>
</svg>
