<?xml version="1.0" standalone="no"?>
<!DOCTYPE svg PUBLIC "-//W3C//DTD SVG 20010904//EN"
 "http://www.w3.org/TR/2001/REC-SVG-20010904/DTD/svg10.dtd">
<svg version="1.0" xmlns="http://www.w3.org/2000/svg"
 width="32.000000pt" height="32.000000pt" viewBox="0 0 32.000000 32.000000"
 preserveAspectRatio="xMidYMid meet">
<metadata>
Created by potrace 1.16, written by Peter Selinger 2001-2019
</metadata>
<g transform="translate(0.000000,32.000000) scale(0.100000,-0.100000)"
fill="#000000" stroke="none">
<path fill="#000000" stroke="none" d="M15 300 c-10 -11 -15 -26 -11 -36 6
-16 8 -15 22 4 8 12 13 26 9 31 -3 6 4 9 15 8 21 -1 29 -17 8 -17 -8 0 -6 -6
4 -16 21 -22 56 -11 38 11 -10 12 -10 15 1 16 20 1 -22 17 -47 18 -11 1 -29
-8 -39 -19z"/>
<path fill="#ffffff" stroke="none" d="M95 280 c3 -5 -1 -10 -9 -10 -9 0 -16
5 -16 10 0 6 4 10 9 10 6 0 13 -4 16 -10z"/>
<path fill="#000000" stroke="none" d="M189 310 c-1 -5 -2 -15 -3 -22 -2 -19
-26 -21 -27 -1 0 15 -2 14 -9 -4 -5 -13 -16 -23 -24 -23 -7 0 -17 -7 -20 -16
-3 -8 -2 -12 4 -9 6 3 10 0 10 -8 0 -8 -7 -17 -15 -21 -9 -3 -14 -18 -13 -41
1 -29 5 -35 24 -35 27 0 36 12 28 35 -5 13 -8 14 -15 3 -6 -9 -9 -9 -9 -1 0 6
5 15 10 18 6 4 8 11 4 16 -3 5 0 16 6 24 10 11 10 15 1 15 -7 0 -9 5 -6 11 4
6 13 8 21 5 8 -3 26 7 40 22 15 15 23 21 20 15 -10 -18 -3 -16 24 7 l23 20
-36 0 c-21 0 -38 -4 -38 -10z"/>
<path fill="#000000" stroke="none" d="M288 313 c27 -5 28 -19 2 -33 -21 -11
-28 -40 -10 -40 6 0 9 5 8 11 -2 6 3 14 10 16 8 3 10 -1 5 -14 -3 -10 -3 -15
2 -11 4 4 9 23 12 43 3 33 2 35 -24 34 -24 -2 -25 -2 -5 -6z"/>
<path fill="#000000" stroke="none" d="M37 263 c-12 -11 -7 -21 13 -26 11 -3
20 -2 20 3 0 12 -26 31 -33 23z"/>
<path fill="#000000" stroke="none" d="M201 241 c-7 -5 -12 -11 -12 -15 2 -17
0 -17 -16 -5 -10 8 -8 3 4 -11 13 -15 19 -30 14 -38 -5 -9 -11 -5 -21 13 -9
18 -16 22 -21 13 -4 -6 -3 -20 2 -30 6 -10 7 -23 4 -28 -3 -6 -2 -10 4 -10 5
0 11 6 14 13 3 7 9 2 15 -13 l11 -25 2 25 c1 14 2 31 2 38 -1 6 4 12 11 12 7
0 6 3 -2 8 -14 10 -6 42 11 42 6 0 7 -3 4 -7 -10 -10 14 -34 27 -26 6 3 -2 -7
-19 -22 l-30 -29 25 -6 c20 -5 26 -2 32 18 4 13 12 30 18 37 7 8 10 20 7 27
-4 8 -6 7 -6 -4 -1 -10 -6 -18 -12 -18 -6 0 -9 6 -6 14 3 8 -1 20 -9 26 -11
10 -14 10 -14 0 0 -9 -4 -9 -13 -2 -7 6 -19 7 -26 3z"/>
<path fill="#ffffff" stroke="none" d="M250 214 c0 -8 -5 -12 -10 -9 -6 4 -8
11 -5 16 9 14 15 11 15 -7z"/>
<path fill="#000000" stroke="none" d="M13 233 c-14 -5 -18 -44 -6 -42 22 4
33 -3 34 -18 0 -17 1 -17 8 0 4 10 11 18 16 17 5 -1 11 4 13 12 3 10 1 10 -5
1 -10 -14 -39 0 -29 15 7 12 -13 21 -31 15z"/>
<path fill="#000000" stroke="none" d="M290 185 c-7 -8 -8 -15 -3 -15 5 0 9
-9 9 -19 0 -11 -3 -18 -7 -15 -4 2 -12 -3 -19 -10 -6 -8 -20 -13 -30 -11 -11
2 -23 -1 -26 -7 -4 -7 -2 -8 4 -4 7 4 12 3 12 -3 0 -16 -14 -18 -37 -6 -13 6
-20 16 -15 21 4 4 0 3 -9 -4 -9 -6 -19 -8 -24 -4 -4 4 -2 -3 5 -14 10 -15 24
-22 46 -22 39 0 53 -7 50 -27 -3 -19 -16 -32 -16 -16 0 7 -5 9 -10 6 -6 -4 -7
-12 -3 -18 4 -7 -5 -4 -19 5 -26 17 -27 17 -25 -2 1 -16 8 -20 34 -18 18 1 35
8 37 15 3 7 10 13 15 13 6 0 8 -6 5 -14 -4 -11 1 -14 23 -12 20 2 29 9 31 24
3 19 0 21 -27 16 -21 -4 -31 -3 -31 5 0 7 5 9 11 6 16 -11 44 26 47 63 1 17
-2 32 -7 32 -4 0 -6 11 -3 25 5 29 0 32 -18 10z"/>
<path fill="#ffffff" stroke="none" d="M283 95 c9 2 15 -1 11 -6 -3 -5 -10 -7
-15 -4 -5 4 -9 1 -9 -6 0 -8 -4 -8 -15 1 -18 15 -21 37 -2 23 6 -6 20 -9 30
-8z"/>
<path fill="#000000" stroke="none" d="M4 166 c-3 -8 2 -29 12 -45 19 -31 36
-41 31 -18 -1 7 6 11 18 9 16 -2 17 -1 5 7 -8 5 -18 7 -22 5 -4 -3 -8 -1 -8 5
0 5 6 12 12 15 7 3 3 3 -9 0 -18 -4 -20 -1 -16 16 6 23 -15 28 -23 6z"/>
<path fill="#000000" stroke="none" d="M100 110 c-16 -10 -14 -12 14 -27 12
-7 15 -13 7 -17 -6 -4 -11 -3 -11 3 0 6 -6 8 -13 5 -18 -7 -19 -44 -1 -44 8 0
13 -4 10 -9 -7 -11 -60 -5 -64 8 -7 21 -42 12 -42 -10 0 -18 5 -20 48 -18 54
3 73 14 65 36 -4 10 -2 14 4 10 6 -4 13 3 17 16 3 12 1 24 -4 25 -6 2 -8 8 -5
12 8 13 -9 20 -25 10z"/>
<path fill="#000000" stroke="none" d="M50 56 c0 -8 5 -18 10 -21 6 -3 10 1
10 9 0 8 -4 18 -10 21 -5 3 -10 -1 -10 -9z"/>
<path fill="#000000" stroke="none" d="M195 40 c-3 -5 -1 -10 4 -10 6 0 11 5
11 10 0 6 -2 10 -4 10 -3 0 -8 -4 -11 -10z"/>
</g>
</svg>
