<?xml version="1.0" standalone="no"?>
<!DOCTYPE svg PUBLIC "-//W3C//DTD SVG 20010904//EN"
 "http://www.w3.org/TR/2001/REC-SVG-20010904/DTD/svg10.dtd">
<svg version="1.0" xmlns="http://www.w3.org/2000/svg"
 width="32.000000pt" height="32.000000pt" viewBox="0 0 32.000000 32.000000"
 preserveAspectRatio="xMidYMid meet">
<metadata>
Created by potrace 1.16, written by Peter Selinger 2001-2019
</metadata>
<g transform="translate(0.000000,32.000000) scale(0.100000,-0.100000)"
fill="#000000" stroke="none">
<path fill="#000000" stroke="none" d="M21 311 c-17 -11 -23 -101 -7 -101 6 0
20 -8 31 -17 l20 -16 -20 8 c-11 4 -26 9 -33 12 -10 4 -12 -6 -10 -44 3 -45 5
-49 28 -48 17 0 25 -6 27 -20 3 -19 3 -19 -5 -1 -11 25 -25 5 -16 -21 6 -16 5
-16 -9 2 -9 11 -17 15 -17 9 0 -6 9 -21 20 -34 25 -29 25 -30 -5 -24 -14 2
-25 0 -25 -5 0 -4 29 -9 64 -10 49 -1 65 2 70 14 3 8 15 15 26 15 14 0 19 4
14 12 -4 7 -3 8 4 4 11 -6 16 6 13 26 0 5 4 8 9 8 6 0 10 -6 8 -14 -2 -8 6
-22 17 -31 19 -15 19 -15 -6 -9 -19 4 -26 1 -26 -11 0 -13 11 -16 64 -13 51 2
63 6 63 19 0 17 -26 34 -47 30 -7 -1 -13 3 -13 9 0 5 3 9 8 8 4 -1 17 4 30 12
17 12 22 24 22 58 0 40 -2 43 -22 36 -21 -6 -22 -5 -8 11 8 10 14 26 12 37 -2
10 2 18 7 18 6 0 11 7 11 15 0 8 -7 15 -15 15 -8 0 -15 -4 -15 -10 0 -5 -5
-10 -10 -10 -7 0 -7 6 -1 18 6 12 5 23 -4 35 -15 21 -51 22 -58 3 -7 -17 -47
-18 -44 -1 1 6 -22 10 -58 11 -33 1 -54 -1 -47 -3 6 -3 9 -9 6 -15 -4 -5 -13
-3 -23 6 -10 9 -22 12 -30 7z"/>
<path fill="#ffffff" stroke="none" d="M55 290 c10 -11 13 -20 7 -20 -6 0 -16
9 -22 20 -6 11 -9 20 -7 20 2 0 12 -9 22 -20z"/>
<path fill="#ffffff" stroke="none" d="M154 295 c-5 -12 -10 -13 -20 -4 -19
15 -18 19 6 19 13 0 18 -5 14 -15z"/>
<path fill="#ffffff" stroke="none" d="M250 289 c0 -5 5 -7 11 -3 8 4 8 0 0
-15 -7 -11 -9 -21 -5 -21 3 0 1 -6 -6 -14 -6 -8 -18 -12 -26 -9 -10 4 -12 0
-8 -11 3 -9 9 -14 13 -12 10 6 30 -20 23 -30 -4 -5 -16 -16 -27 -24 -12 -8
-15 -9 -9 -1 17 18 6 51 -14 44 -14 -4 -14 -3 -3 5 7 5 11 14 7 20 -3 5 5 17
19 26 21 14 24 20 15 36 -7 14 -7 20 0 20 5 0 10 -5 10 -11z"/>
<path fill="#ffffff" stroke="none" d="M177 259 c14 0 13 -2 -5 -10 -19 -7
-28 -4 -50 17 l-27 26 32 -16 c18 -9 40 -16 50 -17z"/>
<path fill="#ffffff" stroke="none" d="M215 269 c11 -17 -1 -21 -15 -4 -8 9
-8 15 -2 15 6 0 14 -5 17 -11z"/>
<path fill="#ffffff" stroke="none" d="M100 250 c-20 -13 -33 -13 -25 0 3 6
14 10 23 10 15 0 15 -2 2 -10z"/>
<path fill="#ffffff" stroke="none" d="M115 200 c8 0 15 6 15 13 0 7 3 8 8 2
4 -5 14 -10 22 -10 8 0 15 -7 15 -15 0 -8 4 -18 9 -21 4 -4 3 -15 -2 -25 -7
-13 -7 -25 0 -38 9 -16 8 -17 -12 -6 -15 8 -20 8 -16 1 4 -6 2 -11 -3 -11 -6
0 -11 5 -11 11 0 6 -7 8 -17 5 -10 -4 -14 -4 -10 0 4 4 -2 13 -13 21 -19 14
-30 60 -11 48 5 -3 12 -1 16 4 3 6 -4 15 -15 21 -11 6 -18 16 -14 22 4 7 10 5
16 -6 5 -9 16 -16 23 -16z"/>
<path fill="#ffffff" stroke="none" d="M180 220 c0 -5 -7 -7 -15 -4 -8 4 -15
8 -15 10 0 2 7 4 15 4 8 0 15 -4 15 -10z"/>
<path fill="#ffffff" stroke="none" d="M60 148 c0 -18 -2 -20 -9 -8 -6 8 -7
18 -5 22 9 14 14 9 14 -14z"/>
<path fill="#ffffff" stroke="none" d="M280 125 c-8 -10 -9 -15 -1 -15 6 0 11
-8 11 -17 0 -15 -2 -16 -10 -3 -5 8 -10 11 -10 7 0 -4 -8 -3 -18 2 -13 7 -22
7 -29 0 -7 -7 -12 -5 -16 5 -4 10 1 20 13 26 16 9 20 8 20 -5 0 -22 17 -19 30
6 7 11 14 18 17 15 3 -3 0 -12 -7 -21z"/>
<path fill="#ffffff" stroke="none" d="M84 115 c3 -8 1 -15 -4 -15 -6 0 -10 7
-10 15 0 8 2 15 4 15 2 0 6 -7 10 -15z"/>
<path fill="#ffffff" stroke="none" d="M74 39 c-3 -5 -10 -7 -15 -3 -5 3 -7
10 -3 15 3 5 10 7 15 3 5 -3 7 -10 3 -15z"/>
<path fill="#ffffff" stroke="none" d="M116 24 c-9 -8 -16 -13 -16 -11 0 3 -3
13 -6 21 -5 12 -2 15 10 10 10 -4 16 -1 17 7 0 10 2 11 6 2 2 -7 -3 -20 -11
-29z"/>
<path fill="#ffffff" stroke="none" d="M304 32 c3 -5 -1 -9 -9 -9 -8 0 -12 4
-9 9 3 4 7 8 9 8 2 0 6 -4 9 -8z"/>
<path fill="#000000" stroke="none" d="M111 173 c-22 -27 -19 -48 5 -39 7 3
16 1 19 -4 4 -6 12 -10 18 -10 8 0 7 3 -2 9 -11 7 -9 10 8 16 13 4 20 9 18 12
-3 2 -14 0 -24 -5 -12 -7 -25 -7 -34 -1 -10 6 -10 9 -1 9 6 0 11 6 10 13 -2 6
5 11 15 9 21 -4 23 4 2 11 -8 4 -23 -5 -34 -20z"/>
</g>
</svg>
