<?xml version="1.0" standalone="no"?>
<!DOCTYPE svg PUBLIC "-//W3C//DTD SVG 20010904//EN"
 "http://www.w3.org/TR/2001/REC-SVG-20010904/DTD/svg10.dtd">
<svg version="1.0" xmlns="http://www.w3.org/2000/svg"
 width="32.000000pt" height="32.000000pt" viewBox="0 0 32.000000 32.000000"
 preserveAspectRatio="xMidYMid meet">
<metadata>
Created by potrace 1.16, written by Peter Selinger 2001-2019
</metadata>
<g transform="translate(0.000000,32.000000) scale(0.100000,-0.100000)"
fill="#000000" stroke="none">
<path fill="#000000" stroke="none" d="M5 311 c-3 -6 -5 -58 -4 -116 1 -79 5
-110 16 -121 12 -11 18 -12 29 -3 10 8 14 8 14 0 0 -11 -9 -14 -42 -14 -13 0
-18 -8 -18 -27 l0 -28 159 -1 159 0 1 159 1 160 -85 0 c-61 0 -85 -3 -85 -12
0 -9 -3 -10 -8 -2 -9 14 -128 18 -137 5z"/>
<path fill="#ffffff" stroke="none" d="M46 263 c-10 -10 -19 5 -10 18 6 11 8
11 12 0 2 -7 1 -15 -2 -18z"/>
<path fill="#ffffff" stroke="none" d="M242 275 c0 -5 -5 -10 -12 -11 -7 -2
-6 -1 1 3 8 4 7 8 -2 15 -11 8 -11 9 -1 6 8 -2 14 -8 14 -13z"/>
<path fill="#ffffff" stroke="none" d="M270 245 c-7 -8 -17 -15 -23 -15 -6 0
-2 7 9 15 25 19 30 19 14 0z"/>
<path fill="#ffffff" stroke="none" d="M177 224 c-3 -3 -12 -4 -19 -1 -8 3 -5
6 6 6 11 1 17 -2 13 -5z"/>
<path fill="#ffffff" stroke="none" d="M30 199 c0 -6 -4 -7 -10 -4 -5 3 -10
11 -10 16 0 6 5 7 10 4 6 -3 10 -11 10 -16z"/>
<path fill="#ffffff" stroke="none" d="M181 210 c17 10 20 9 14 -2 -21 -35
-27 -39 -41 -21 -13 17 -14 17 -8 -2 5 -16 4 -17 -5 -5 -6 8 -11 21 -11 29 0
11 3 11 14 2 11 -10 20 -10 37 -1z"/>
<path fill="#ffffff" stroke="none" d="M79 125 c0 -5 -4 -3 -9 5 -5 8 -9 22
-9 30 0 16 17 -16 18 -35z"/>
<path fill="#ffffff" stroke="none" d="M240 155 c0 -12 -19 -12 -23 0 -4 9 -1
12 9 8 7 -3 14 -7 14 -8z"/>
<path fill="#ffffff" stroke="none" d="M143 102 c3 -24 1 -40 -4 -36 -5 3 -9
24 -9 46 0 51 5 47 13 -10z"/>
<path fill="#ffffff" stroke="none" d="M286 128 c5 -7 2 -9 -9 -5 -9 3 -18 -1
-21 -10 -4 -9 -9 -13 -13 -10 -7 7 15 37 28 37 4 0 11 -5 15 -12z"/>
<path fill="#ffffff" stroke="none" d="M117 92 c-1 -9 -6 -23 -10 -29 -5 -8
-4 -13 2 -13 6 0 11 -5 11 -10 0 -6 -11 -3 -24 7 -15 11 -20 21 -13 25 6 4 15
4 21 1 5 -3 6 -1 2 6 -4 6 -12 9 -17 6 -5 -4 -9 0 -9 7 0 8 9 14 20 15 13 1
19 -4 17 -15z"/>
<path fill="#ffffff" stroke="none" d="M35 90 c3 -5 2 -10 -4 -10 -5 0 -13 5
-16 10 -3 6 -2 10 4 10 5 0 13 -4 16 -10z"/>
<path fill="#ffffff" stroke="none" d="M280 50 c0 -5 -4 -10 -10 -10 -5 0 -10
5 -10 10 0 6 5 10 10 10 6 0 10 -4 10 -10z"/>
</g>
</svg>
