<?xml version="1.0" standalone="no"?>
<!DOCTYPE svg PUBLIC "-//W3C//DTD SVG 20010904//EN"
 "http://www.w3.org/TR/2001/REC-SVG-20010904/DTD/svg10.dtd">
<svg version="1.0" xmlns="http://www.w3.org/2000/svg"
 width="32.000000pt" height="32.000000pt" viewBox="0 0 32.000000 32.000000"
 preserveAspectRatio="xMidYMid meet">
<metadata>
Created by potrace 1.16, written by Peter Selinger 2001-2019
</metadata>
<g transform="translate(0.000000,32.000000) scale(0.100000,-0.100000)"
fill="#000000" stroke="none">
<path fill="#000000" stroke="none" d="M0 160 l0 -160 160 0 160 0 0 160 0
160 -160 0 -160 0 0 -160z"/>
<path fill="#ffffff" stroke="none" d="M210 258 c0 -4 8 -8 17 -8 9 0 14 -3
11 -6 -4 -3 -44 -2 -90 3 l-83 8 60 5 c33 3 66 5 73 6 6 0 12 -3 12 -8z"/>
<path fill="#ffffff" stroke="none" d="M160 158 c0 -4 8 -8 17 -8 9 0 14 -3
11 -6 -4 -3 -44 -2 -90 3 l-83 8 60 5 c33 3 66 5 73 6 6 0 12 -3 12 -8z"/>
<path fill="#ffffff" stroke="none" d="M210 58 c0 -4 8 -8 17 -8 9 0 14 -3 11
-6 -4 -3 -44 -2 -90 3 l-83 8 60 5 c33 3 66 5 73 6 6 0 12 -3 12 -8z"/>
</g>
</svg>
