<?xml version="1.0" standalone="no"?>
<!DOCTYPE svg PUBLIC "-//W3C//DTD SVG 20010904//EN"
 "http://www.w3.org/TR/2001/REC-SVG-20010904/DTD/svg10.dtd">
<svg version="1.0" xmlns="http://www.w3.org/2000/svg"
 width="32.000000pt" height="32.000000pt" viewBox="0 0 32.000000 32.000000"
 preserveAspectRatio="xMidYMid meet">
<metadata>
Created by potrace 1.16, written by Peter Selinger 2001-2019
</metadata>
<g transform="translate(0.000000,32.000000) scale(0.100000,-0.100000)"
fill="#000000" stroke="none">
<path fill="#000000" stroke="none" d="M68 205 c-3 -14 -1 -25 3 -25 5 0 9 11
9 25 0 14 -2 25 -4 25 -2 0 -6 -11 -8 -25z"/>
<path fill="#000000" stroke="none" d="M268 205 c-3 -14 -1 -25 3 -25 5 0 9
11 9 25 0 14 -2 25 -4 25 -2 0 -6 -11 -8 -25z"/>
<path fill="#000000" stroke="none" d="M168 155 c-3 -14 -1 -25 3 -25 5 0 9
11 9 25 0 14 -2 25 -4 25 -2 0 -6 -11 -8 -25z"/>
<path fill="#000000" stroke="none" d="M61 123 c1 -53 6 -49 11 10 2 20 0 37
-4 37 -4 0 -8 -21 -7 -47z"/>
<path fill="#000000" stroke="none" d="M261 123 c1 -53 6 -49 11 10 2 20 0 37
-4 37 -4 0 -8 -21 -7 -47z"/>
<path fill="#000000" stroke="none" d="M161 73 c1 -53 6 -49 11 10 2 20 0 37
-4 37 -4 0 -8 -21 -7 -47z"/>
</g>
</svg>
