<?xml version="1.0" standalone="no"?>
<!DOCTYPE svg PUBLIC "-//W3C//DTD SVG 20010904//EN"
 "http://www.w3.org/TR/2001/REC-SVG-20010904/DTD/svg10.dtd">
<svg version="1.0" xmlns="http://www.w3.org/2000/svg"
 width="32.000000pt" height="32.000000pt" viewBox="0 0 32.000000 32.000000"
 preserveAspectRatio="xMidYMid meet">
<metadata>
Created by potrace 1.16, written by Peter Selinger 2001-2019
</metadata>
<g transform="translate(0.000000,32.000000) scale(0.100000,-0.100000)"
fill="#000000" stroke="none">
<path fill="#000000" stroke="none" d="M99 213 c-67 -70 -80 -90 -51 -74 11 6
35 30 53 53 19 24 39 49 46 56 13 13 16 22 10 22 -2 0 -28 -26 -58 -57z"/>
<path fill="#000000" stroke="none" d="M99 113 c-67 -70 -80 -90 -51 -74 11 6
35 30 53 53 19 24 39 49 46 56 13 13 16 22 10 22 -2 0 -28 -26 -58 -57z"/>
<path fill="#000000" stroke="none" d="M199 113 c-67 -70 -80 -90 -51 -74 11
6 35 30 53 53 19 24 39 49 46 56 13 13 16 22 10 22 -2 0 -28 -26 -58 -57z"/>
</g>
</svg>
