<?xml version="1.0" standalone="no"?>
<!DOCTYPE svg PUBLIC "-//W3C//DTD SVG 20010904//EN"
 "http://www.w3.org/TR/2001/REC-SVG-20010904/DTD/svg10.dtd">
<svg version="1.0" xmlns="http://www.w3.org/2000/svg"
 width="32.000000pt" height="32.000000pt" viewBox="0 0 32.000000 32.000000"
 preserveAspectRatio="xMidYMid meet">
<metadata>
Created by potrace 1.16, written by Peter Selinger 2001-2019
</metadata>
<g transform="translate(0.000000,32.000000) scale(0.100000,-0.100000)"
fill="#000000" stroke="none">
<path fill="#000000" stroke="none" d="M58 283 c-54 -4 -58 -6 -58 -28 l0 -25
136 0 135 0 -3 28 c-3 27 -4 27 -78 28 -41 0 -101 -1 -132 -3z"/>
<path fill="#000000" stroke="none" d="M120 183 c-68 -5 -90 -12 -90 -27 0
-22 24 -26 161 -26 l130 0 -3 28 c-3 27 -4 27 -78 28 -41 1 -95 -1 -120 -3z"/>
<path fill="#000000" stroke="none" d="M58 83 c-54 -4 -58 -6 -58 -28 l0 -25
136 0 135 0 -3 28 c-3 27 -4 27 -78 28 -41 0 -101 -1 -132 -3z"/>
</g>
</svg>
