<?xml version="1.0" standalone="no"?>
<!DOCTYPE svg PUBLIC "-//W3C//DTD SVG 20010904//EN"
 "http://www.w3.org/TR/2001/REC-SVG-20010904/DTD/svg10.dtd">
<svg version="1.0" xmlns="http://www.w3.org/2000/svg"
 width="32.000000pt" height="32.000000pt" viewBox="0 0 32.000000 32.000000"
 preserveAspectRatio="xMidYMid meet">
<metadata>
Created by potrace 1.16, written by Peter Selinger 2001-2019
</metadata>
<g transform="translate(0.000000,32.000000) scale(0.100000,-0.100000)"
fill="#000000" stroke="none">
<path fill="#000000" stroke="none" d="M0 160 l0 -160 160 0 160 0 0 160 0
160 -160 0 -160 0 0 -160z"/>
<path fill="#ffffff" stroke="none" d="M79 178 c-2 -94 -8 -122 -20 -92 -12
31 -10 118 4 147 6 15 13 27 15 27 2 0 2 -37 1 -82z"/>
<path fill="#ffffff" stroke="none" d="M279 178 c-2 -94 -8 -122 -20 -92 -12
31 -10 118 4 147 6 15 13 27 15 27 2 0 2 -37 1 -82z"/>
<path fill="#ffffff" stroke="none" d="M179 128 c-2 -94 -8 -122 -20 -92 -12
31 -10 118 4 147 6 15 13 27 15 27 2 0 2 -37 1 -82z"/>
</g>
</svg>
