<?xml version="1.0" standalone="no"?>
<!DOCTYPE svg PUBLIC "-//W3C//DTD SVG 20010904//EN"
 "http://www.w3.org/TR/2001/REC-SVG-20010904/DTD/svg10.dtd">
<svg version="1.0" xmlns="http://www.w3.org/2000/svg"
 width="32.000000pt" height="32.000000pt" viewBox="0 0 32.000000 32.000000"
 preserveAspectRatio="xMidYMid meet">
<metadata>
Created by potrace 1.16, written by Peter Selinger 2001-2019
</metadata>
<g transform="translate(0.000000,32.000000) scale(0.100000,-0.100000)"
fill="#000000" stroke="none">
<path fill="#000000" stroke="none" d="M0 160 l0 -160 160 0 160 0 0 160 0
160 -160 0 -160 0 0 -160z"/>
<path fill="#ffffff" stroke="none" d="M220 255 c8 -9 11 -30 7 -55 -3 -22 -1
-43 4 -46 15 -9 10 -66 -8 -86 -21 -23 -95 -25 -117 -2 -17 17 -22 79 -7 88 5
3 7 24 4 46 -4 25 -1 46 7 55 17 20 93 20 110 0z"/>
<path fill="#000000" stroke="none" d="M140 215 c0 -12 28 -35 44 -35 3 0 6
11 6 25 0 20 -5 25 -25 25 -15 0 -25 -6 -25 -15z"/>
<path fill="#000000" stroke="none" d="M134 135 c-10 -25 4 -45 31 -45 30 0
43 24 25 45 -16 19 -49 19 -56 0z"/>
</g>
</svg>
