<?xml version="1.0" standalone="no"?>
<!DOCTYPE svg PUBLIC "-//W3C//DTD SVG 20010904//EN"
 "http://www.w3.org/TR/2001/REC-SVG-20010904/DTD/svg10.dtd">
<svg version="1.0" xmlns="http://www.w3.org/2000/svg"
 width="32.000000pt" height="32.000000pt" viewBox="0 0 32.000000 32.000000"
 preserveAspectRatio="xMidYMid meet">
<metadata>
Created by potrace 1.16, written by Peter Selinger 2001-2019
</metadata>
<g transform="translate(0.000000,32.000000) scale(0.100000,-0.100000)"
fill="#000000" stroke="none">
<path fill="#000000" stroke="none" d="M120 306 c-9 -12 -18 -13 -38 -5 -41
16 -68 -4 -69 -49 0 -20 -3 -63 -6 -95 -3 -31 -1 -60 4 -63 6 -3 7 -13 4 -23
-10 -32 34 -59 90 -57 28 1 56 -3 63 -8 8 -6 17 -5 24 2 8 8 15 8 24 1 24 -19
59 -6 62 23 2 18 8 25 17 22 8 -4 13 2 12 18 0 13 3 31 8 41 5 13 4 16 -9 11
-22 -8 -20 12 2 25 10 6 12 11 4 11 -7 0 -10 5 -7 10 4 6 2 17 -4 24 -9 10 -8
15 4 20 8 3 15 11 15 17 0 8 -4 8 -15 -1 -19 -16 -34 -5 -17 12 7 7 12 22 12
35 0 33 -42 48 -98 35 -24 -5 -45 -6 -48 -1 -8 13 -20 11 -34 -5z"/>
<path fill="#ffffff" stroke="none" d="M150 300 c0 -5 -4 -10 -10 -10 -5 0
-10 5 -10 10 0 6 5 10 10 10 6 0 10 -4 10 -10z"/>
<path fill="#ffffff" stroke="none" d="M254 273 c-4 -12 -2 -23 4 -23 15 0 22
-54 9 -62 -9 -6 -8 -10 1 -17 8 -4 12 -17 11 -27 -2 -11 0 -25 4 -32 5 -7 2
-18 -7 -27 -19 -20 -30 -19 -22 2 6 15 5 15 -13 -1 -11 -10 -24 -15 -30 -11
-6 3 -9 0 -5 -8 3 -8 -2 -22 -12 -31 -15 -16 -17 -16 -30 1 -12 16 -15 16 -24
3 -7 -10 -12 -11 -17 -4 -5 6 -16 13 -26 17 -13 5 -17 2 -15 -11 2 -10 -3 -17
-12 -17 -10 0 -14 8 -12 25 1 14 -3 35 -9 47 -9 17 -9 26 1 38 10 12 10 15 0
15 -7 0 -10 8 -7 20 3 13 0 20 -9 20 -8 0 -14 7 -14 16 0 12 6 15 21 11 19 -5
21 -2 16 23 -8 39 10 51 70 44 30 -3 54 -1 57 5 4 6 22 10 41 9 31 -1 34 -4
29 -25z"/>
<path fill="#ffffff" stroke="none" d="M282 268 c-9 -9 -12 -7 -12 12 0 19 3
21 12 12 9 -9 9 -15 0 -24z"/>
<path fill="#ffffff" stroke="none" d="M50 60 c0 -5 -4 -10 -10 -10 -5 0 -10
5 -10 10 0 6 5 10 10 10 6 0 10 -4 10 -10z"/>
<path fill="#ffffff" stroke="none" d="M265 50 c7 -11 -11 -40 -25 -40 -6 0
-7 37 -1 48 3 6 21 1 26 -8z"/>
<path fill="#000000" stroke="none" d="M121 254 c0 -11 3 -14 6 -6 3 7 2 16
-1 19 -3 4 -6 -2 -5 -13z"/>
</g>
</svg>
