<?xml version="1.0" standalone="no"?>
<!DOCTYPE svg PUBLIC "-//W3C//DTD SVG 20010904//EN"
 "http://www.w3.org/TR/2001/REC-SVG-20010904/DTD/svg10.dtd">
<svg version="1.0" xmlns="http://www.w3.org/2000/svg"
 width="32.000000pt" height="32.000000pt" viewBox="0 0 32.000000 32.000000"
 preserveAspectRatio="xMidYMid meet">
<metadata>
Created by potrace 1.16, written by Peter Selinger 2001-2019
</metadata>
<g transform="translate(0.000000,32.000000) scale(0.100000,-0.100000)"
fill="#000000" stroke="none">
<path fill="#000000" stroke="none" d="M0 263 c0 -41 3 -54 10 -43 5 8 7 24 4
34 -5 14 -2 18 9 13 11 -4 16 3 19 24 4 25 1 29 -19 29 -21 0 -23 -4 -23 -57z"/>
<path fill="#000000" stroke="none" d="M105 310 c4 -6 11 -8 16 -5 14 9 11 15
-7 15 -8 0 -12 -5 -9 -10z"/>
<path fill="#000000" stroke="none" d="M154 312 c2 -4 28 -7 58 -5 42 1 58 -3
76 -19 13 -13 20 -29 17 -39 -3 -10 -1 -20 5 -24 6 -4 10 12 10 44 l0 51 -86
0 c-47 0 -83 -4 -80 -8z"/>
<path fill="#000000" stroke="none" d="M60 295 c-9 -11 -10 -19 -2 -27 14 -14
31 -2 29 22 -2 24 -10 25 -27 5z"/>
<path fill="#000000" stroke="none" d="M126 284 c-10 -9 -15 -23 -12 -31 4 -8
1 -11 -5 -8 -6 4 -19 -1 -30 -11 -18 -16 -19 -16 -13 -1 8 21 -3 22 -22 2 -9
-9 -12 -20 -7 -27 4 -7 6 -21 4 -32 -1 -10 3 -23 11 -27 9 -7 10 -11 1 -17
-13 -8 -6 -62 9 -62 6 0 8 -11 4 -23 -5 -21 -2 -24 26 -25 18 0 38 4 44 9 7 6
34 8 60 5 57 -7 75 5 67 44 -5 25 -3 28 16 23 15 -4 21 -1 21 11 0 9 -6 16
-14 16 -9 0 -12 7 -9 20 3 12 0 20 -7 20 -10 0 -10 3 0 15 10 12 10 21 1 38
-6 12 -10 33 -9 47 2 17 -2 25 -12 25 -9 0 -14 -7 -12 -17 2 -13 -2 -16 -15
-11 -10 4 -21 11 -25 17 -6 7 -11 6 -18 -4 -9 -13 -12 -13 -24 3 -13 17 -15
17 -30 1z"/>
<path fill="#ffffff" stroke="none" d="M197 58 c-3 -8 -6 -5 -6 6 -1 11 2 17
5 13 3 -3 4 -12 1 -19z"/>
<path fill="#000000" stroke="none" d="M270 260 c0 -5 5 -10 10 -10 6 0 10 5
10 10 0 6 -4 10 -10 10 -5 0 -10 -4 -10 -10z"/>
<path fill="#000000" stroke="none" d="M5 189 c-4 -6 -5 -13 -2 -16 7 -7 27 6
27 18 0 12 -17 12 -25 -2z"/>
<path fill="#000000" stroke="none" d="M312 170 c0 -14 2 -19 5 -12 2 6 2 18
0 25 -3 6 -5 1 -5 -13z"/>
<path fill="#000000" stroke="none" d="M0 130 c0 -22 4 -28 15 -24 12 5 13 10
4 20 -6 7 -8 18 -4 24 3 5 1 10 -4 10 -6 0 -11 -13 -11 -30z"/>
<path fill="#000000" stroke="none" d="M305 100 c-4 -16 -4 -38 -1 -48 9 -27
-31 -46 -67 -33 -18 7 -28 7 -33 0 -4 -8 -9 -7 -15 2 -6 9 -12 10 -16 4 -5 -5
-19 -12 -33 -13 -48 -7 -30 -10 75 -11 l105 -1 0 65 c0 71 -5 82 -15 35z"/>
<path fill="#000000" stroke="none" d="M12 88 c-7 -7 -12 -29 -12 -50 0 -36 1
-38 33 -37 29 0 30 1 10 9 -24 10 -32 53 -13 65 12 7 13 25 2 25 -4 0 -13 -5
-20 -12z"/>
<path fill="#000000" stroke="none" d="M34 49 c-3 -6 -1 -16 5 -22 8 -8 11 -5
11 11 0 24 -5 28 -16 11z"/>
</g>
</svg>
