<?xml version="1.0" standalone="no"?>
<!DOCTYPE svg PUBLIC "-//W3C//DTD SVG 20010904//EN"
 "http://www.w3.org/TR/2001/REC-SVG-20010904/DTD/svg10.dtd">
<svg version="1.0" xmlns="http://www.w3.org/2000/svg"
 width="32.000000pt" height="32.000000pt" viewBox="0 0 32.000000 32.000000"
 preserveAspectRatio="xMidYMid meet">
<metadata>
Created by potrace 1.16, written by Peter Selinger 2001-2019
</metadata>
<g transform="translate(0.000000,32.000000) scale(0.100000,-0.100000)"
fill="#000000" stroke="none">
<path fill="#000000" stroke="none" d="M94 309 c-3 -6 -13 -7 -23 -4 -32 10
-59 -34 -57 -90 1 -27 -2 -56 -7 -62 -6 -8 -5 -18 2 -26 7 -10 7 -17 0 -24 -6
-6 -9 -21 -7 -34 2 -18 10 -25 30 -27 18 -2 25 -8 22 -17 -4 -8 3 -13 18 -13
13 -1 38 -4 56 -8 20 -4 32 -2 32 5 0 6 6 8 14 5 8 -3 17 0 21 6 5 8 11 5 20
-7 11 -14 16 -16 26 -5 7 6 23 12 36 12 33 0 48 42 35 97 -6 28 -6 45 2 53 7
7 5 15 -6 26 -13 13 -14 23 -7 42 16 41 -4 68 -49 69 -20 0 -63 3 -95 6 -31 3
-60 1 -63 -4z"/>
<path fill="#ffffff" stroke="none" d="M180 220 c0 -5 -4 -10 -10 -10 -5 0
-10 5 -10 10 0 6 5 10 10 10 6 0 10 -4 10 -10z"/>
<path fill="#ffffff" stroke="none" d="M200 176 c0 -8 -5 -18 -11 -22 -14 -8
-33 11 -25 25 10 16 36 13 36 -3z"/>
<path fill="#ffffff" stroke="none" d="M230 150 c0 -5 -4 -10 -10 -10 -5 0
-10 5 -10 10 0 6 5 10 10 10 6 0 10 -4 10 -10z"/>
<path fill="#ffffff" stroke="none" d="M150 129 c0 -14 -17 -10 -23 5 -4 10
-1 13 9 9 7 -3 14 -9 14 -14z"/>
</g>
</svg>
