<?xml version="1.0" standalone="no"?>
<!DOCTYPE svg PUBLIC "-//W3C//DTD SVG 20010904//EN"
 "http://www.w3.org/TR/2001/REC-SVG-20010904/DTD/svg10.dtd">
<svg version="1.0" xmlns="http://www.w3.org/2000/svg"
 width="32.000000pt" height="32.000000pt" viewBox="0 0 32.000000 32.000000"
 preserveAspectRatio="xMidYMid meet">
<metadata>
Created by potrace 1.16, written by Peter Selinger 2001-2019
</metadata>
<g transform="translate(0.000000,32.000000) scale(0.100000,-0.100000)"
fill="#000000" stroke="none">
<path fill="#000000" stroke="none" d="M94 309 c-3 -6 -13 -7 -23 -4 -32 10
-59 -34 -57 -90 1 -27 -2 -56 -7 -62 -6 -8 -5 -18 2 -26 7 -10 7 -17 0 -24 -6
-6 -9 -21 -7 -34 2 -18 10 -25 30 -27 18 -2 25 -8 22 -17 -4 -8 2 -13 18 -12
13 0 31 -3 41 -8 13 -5 16 -4 11 9 -8 22 12 20 25 -1 6 -11 11 -13 11 -5 0 7
5 10 10 7 6 -4 17 -2 24 4 10 9 15 8 20 -4 3 -8 11 -15 17 -15 8 0 8 4 -1 15
-16 19 -5 34 12 17 7 -7 22 -12 35 -12 33 0 48 42 35 97 -6 28 -6 45 2 53 7 7
5 15 -6 26 -13 13 -14 23 -7 42 16 41 -4 68 -49 69 -20 0 -63 3 -95 6 -31 3
-60 1 -63 -4z"/>
<path fill="#ffffff" stroke="none" d="M217 279 c-5 -19 -2 -21 23 -16 39 8
51 -10 44 -67 -3 -26 -1 -53 5 -60 5 -6 9 -26 9 -44 -1 -28 -4 -31 -25 -26
-12 4 -23 2 -23 -4 0 -15 -54 -22 -62 -9 -6 9 -10 8 -17 -1 -4 -8 -17 -12 -27
-11 -11 2 -25 0 -32 -4 -7 -5 -18 -2 -27 7 -20 19 -19 30 2 22 15 -6 15 -5 -1
13 -10 11 -15 24 -11 30 3 6 0 9 -8 5 -8 -3 -22 2 -31 12 -16 15 -16 17 1 30
16 12 16 15 3 24 -10 7 -11 12 -4 18 6 4 13 15 17 25 5 13 2 17 -11 15 -10 -2
-17 3 -17 12 0 10 8 14 25 12 14 -1 35 3 47 9 17 9 26 9 38 -1 12 -10 15 -10
15 0 0 7 8 10 20 7 13 -3 20 0 20 9 0 8 7 14 16 14 12 0 15 -6 11 -21z"/>
<path fill="#ffffff" stroke="none" d="M70 280 c0 -5 -4 -10 -10 -10 -5 0 -10
5 -10 10 0 6 5 10 10 10 6 0 10 -4 10 -10z"/>
<path fill="#ffffff" stroke="none" d="M310 180 c0 -5 -4 -10 -10 -10 -5 0
-10 5 -10 10 0 6 5 10 10 10 6 0 10 -4 10 -10z"/>
<path fill="#ffffff" stroke="none" d="M56 78 c11 -18 -13 -33 -31 -18 -8 7
-15 15 -15 19 0 11 39 11 46 -1z"/>
<path fill="#ffffff" stroke="none" d="M292 38 c-9 -9 -15 -9 -24 0 -9 9 -7
12 12 12 19 0 21 -3 12 -12z"/>
<path fill="#000000" stroke="none" d="M248 193 c7 -3 16 -2 19 1 4 3 -2 6
-13 5 -11 0 -14 -3 -6 -6z"/>
</g>
</svg>
