<?xml version="1.0" standalone="no"?>
<!DOCTYPE svg PUBLIC "-//W3C//DTD SVG 20010904//EN"
 "http://www.w3.org/TR/2001/REC-SVG-20010904/DTD/svg10.dtd">
<svg version="1.0" xmlns="http://www.w3.org/2000/svg"
 width="32.000000pt" height="32.000000pt" viewBox="0 0 32.000000 32.000000"
 preserveAspectRatio="xMidYMid meet">
<metadata>
Created by potrace 1.16, written by Peter Selinger 2001-2019
</metadata>
<g transform="translate(0.000000,32.000000) scale(0.100000,-0.100000)"
fill="#000000" stroke="none">
<path fill="#000000" stroke="none" d="M47 313 c-4 -3 -7 -17 -7 -29 0 -16 -5
-22 -14 -18 -9 4 -14 -2 -14 -18 -1 -13 -4 -38 -8 -55 -4 -21 -2 -33 5 -33 6
0 8 -6 5 -14 -3 -8 0 -17 6 -21 8 -5 5 -11 -7 -20 -14 -11 -16 -16 -6 -26 7
-7 13 -23 13 -36 0 -33 42 -48 97 -35 28 6 45 6 53 -2 7 -7 15 -5 26 6 13 13
23 14 42 7 41 -16 68 4 69 49 0 20 3 63 6 95 3 31 1 60 -4 63 -6 3 -7 13 -4
23 10 32 -34 59 -90 57 -27 -1 -56 2 -62 7 -8 6 -18 5 -27 -2 -10 -8 -16 -9
-21 -1 -7 11 -48 14 -58 3z"/>
<path fill="#ffffff" stroke="none" d="M140 260 c0 -5 -2 -10 -4 -10 -3 0 -8
5 -11 10 -3 6 -1 10 4 10 6 0 11 -4 11 -10z"/>
<path fill="#ffffff" stroke="none" d="M240 234 c0 -12 -14 -34 -22 -34 -9 0
-38 25 -38 33 0 2 14 4 30 4 17 0 30 -1 30 -3z"/>
<path fill="#ffffff" stroke="none" d="M153 183 c-2 -16 2 -20 17 -16 13 3 20
0 20 -8 0 -9 3 -10 11 -2 14 14 59 4 59 -14 0 -12 -7 -14 -30 -9 -26 5 -30 3
-28 -12 2 -11 -3 -16 -13 -14 -10 1 -19 -6 -22 -19 -7 -25 -31 -20 -33 7 -1
10 -2 25 -3 32 -1 6 -8 12 -17 12 -8 0 -12 5 -9 10 4 6 11 8 16 5 13 -8 11 9
-2 22 -15 15 -2 35 19 31 10 -2 16 -12 15 -25z"/>
<path fill="#ffffff" stroke="none" d="M70 170 c0 -5 -4 -10 -10 -10 -5 0 -10
5 -10 10 0 6 5 10 10 10 6 0 10 -4 10 -10z"/>
<path fill="#ffffff" stroke="none" d="M83 84 c-4 -10 -9 -12 -15 -6 -12 12
-1 35 12 27 5 -3 6 -13 3 -21z"/>
<path fill="#ffffff" stroke="none" d="M250 65 c0 -8 -7 -15 -15 -15 -8 0 -15
7 -15 15 0 8 7 15 15 15 8 0 15 -7 15 -15z"/>
</g>
</svg>
