<?xml version="1.0" standalone="no"?>
<!DOCTYPE svg PUBLIC "-//W3C//DTD SVG 20010904//EN"
 "http://www.w3.org/TR/2001/REC-SVG-20010904/DTD/svg10.dtd">
<svg version="1.0" xmlns="http://www.w3.org/2000/svg"
 width="32.000000pt" height="32.000000pt" viewBox="0 0 32.000000 32.000000"
 preserveAspectRatio="xMidYMid meet">
<metadata>
Created by potrace 1.16, written by Peter Selinger 2001-2019
</metadata>
<g transform="translate(0.000000,32.000000) scale(0.100000,-0.100000)"
fill="#000000" stroke="none">
<path fill="#000000" stroke="none" d="M0 160 l0 -160 70 0 c69 0 70 1 59 21
-6 12 -8 37 -4 58 3 20 6 51 5 69 0 17 -1 51 -1 75 -1 23 2 54 6 70 l7 27 -71
0 -71 0 0 -160z"/>
<path fill="#000000" stroke="none" d="M195 160 l0 -160 63 0 62 0 0 160 0
160 -63 0 -62 0 0 -160z"/>
<path fill="#000000" stroke="none" d="M149 264 c-5 -15 -6 -36 -2 -48 4 -11
6 -25 4 -31 -1 -5 3 -5 10 2 11 11 14 41 8 86 -3 24 -8 21 -20 -9z"/>
<path fill="#000000" stroke="none" d="M149 104 c-5 -15 -6 -36 -2 -48 4 -11
6 -25 4 -31 -1 -5 3 -5 10 2 11 11 14 41 8 86 -3 24 -8 21 -20 -9z"/>
</g>
</svg>
