<?xml version="1.0" standalone="no"?>
<!DOCTYPE svg PUBLIC "-//W3C//DTD SVG 20010904//EN"
 "http://www.w3.org/TR/2001/REC-SVG-20010904/DTD/svg10.dtd">
<svg version="1.0" xmlns="http://www.w3.org/2000/svg"
 width="32.000000pt" height="32.000000pt" viewBox="0 0 32.000000 32.000000"
 preserveAspectRatio="xMidYMid meet">
<metadata>
Created by potrace 1.16, written by Peter Selinger 2001-2019
</metadata>
<g transform="translate(0.000000,32.000000) scale(0.100000,-0.100000)"
fill="#000000" stroke="none">
<path fill="#000000" stroke="none" d="M0 257 l0 -62 160 0 160 0 0 63 0 62
-160 0 -160 0 0 -63z"/>
<path fill="#000000" stroke="none" d="M60 180 c-8 -5 -26 -10 -40 -10 -21 0
-17 -4 19 -21 25 -11 52 -17 60 -13 47 19 86 22 113 8 24 -13 34 -13 68 -1
l40 13 -35 17 c-33 16 -40 16 -84 1 -45 -14 -52 -14 -79 0 -36 19 -42 19 -62
6z"/>
<path fill="#000000" stroke="none" d="M0 71 l0 -71 160 0 160 0 0 70 c0 69
-1 70 -21 59 -12 -6 -37 -8 -58 -4 -20 3 -51 6 -68 5 -18 0 -52 -1 -75 -1 -24
-1 -55 2 -70 6 l-28 7 0 -71z"/>
</g>
</svg>
