<?xml version="1.0" standalone="no"?>
<!DOCTYPE svg PUBLIC "-//W3C//DTD SVG 20010904//EN"
 "http://www.w3.org/TR/2001/REC-SVG-20010904/DTD/svg10.dtd">
<svg version="1.0" xmlns="http://www.w3.org/2000/svg"
 width="32.000000pt" height="32.000000pt" viewBox="0 0 32.000000 32.000000"
 preserveAspectRatio="xMidYMid meet">
<metadata>
Created by potrace 1.16, written by Peter Selinger 2001-2019
</metadata>
<g transform="translate(0.000000,32.000000) scale(0.100000,-0.100000)"
fill="#000000" stroke="none">
<path fill="#000000" stroke="none" d="M0 161 l2 -159 159 -2 159 -1 0 143 -1
143 -20 -38 c-12 -22 -24 -35 -31 -31 -7 4 -8 3 -4 -4 4 -7 -9 -19 -31 -31
-44 -22 -74 -53 -97 -99 -10 -19 -21 -30 -28 -26 -7 4 -8 3 -4 -4 4 -6 -6 -18
-23 -27 -34 -17 -65 -20 -56 -5 4 6 11 7 17 4 7 -4 8 -2 4 4 -4 7 7 18 28 29
20 9 39 25 42 36 9 29 75 98 87 90 6 -3 7 -1 3 5 -4 7 7 18 28 29 20 9 36 20
36 23 0 4 11 23 24 43 l24 35 -35 -24 c-20 -13 -39 -24 -43 -24 -4 0 -13 -13
-20 -30 -14 -34 -97 -114 -127 -124 -12 -4 -26 -20 -33 -36 -11 -27 -50 -71
-50 -56 0 24 46 90 73 104 41 22 97 78 119 119 9 17 34 41 55 52 l38 20 -148
1 -148 0 1 -159z"/>
</g>
</svg>
