<?xml version="1.0" standalone="no"?>
<!DOCTYPE svg PUBLIC "-//W3C//DTD SVG 20010904//EN"
 "http://www.w3.org/TR/2001/REC-SVG-20010904/DTD/svg10.dtd">
<svg version="1.0" xmlns="http://www.w3.org/2000/svg"
 width="32.000000pt" height="32.000000pt" viewBox="0 0 32.000000 32.000000"
 preserveAspectRatio="xMidYMid meet">
<metadata>
Created by potrace 1.16, written by Peter Selinger 2001-2019
</metadata>
<g transform="translate(0.000000,32.000000) scale(0.100000,-0.100000)"
fill="#000000" stroke="none">
<path fill="#000000" stroke="none" d="M0 168 c0 -103 4 -148 10 -138 5 8 10
36 10 63 l0 47 44 0 c29 0 52 7 67 20 l24 19 -75 3 -75 2 85 5 85 6 3 53 3 52
42 0 c23 0 49 5 57 10 10 7 -34 10 -132 10 l-148 0 0 -152z"/>
<path fill="#000000" stroke="none" d="M254 270 c-12 -4 -24 -17 -26 -28 -5
-17 -2 -19 15 -13 11 4 24 17 28 29 5 12 7 22 6 21 -1 0 -12 -4 -23 -9z"/>
<path fill="#000000" stroke="none" d="M306 264 c-3 -9 -6 -33 -6 -54 l0 -39
-52 -3 -53 -3 -3 -82 -3 -83 66 0 65 0 0 140 c0 77 -2 140 -4 140 -2 0 -7 -7
-10 -16z"/>
<path fill="#000000" stroke="none" d="M156 118 c-9 -12 -16 -41 -16 -65 l0
-42 -62 -4 c-58 -3 -57 -3 20 -5 l82 -2 0 70 c0 39 -2 70 -4 70 -3 0 -12 -10
-20 -22z"/>
<path fill="#000000" stroke="none" d="M94 110 c-12 -4 -24 -17 -26 -28 -5
-17 -2 -19 15 -13 11 4 24 17 28 29 5 12 7 22 6 21 -1 0 -12 -4 -23 -9z"/>
</g>
</svg>
