<?xml version="1.0" standalone="no"?>
<!DOCTYPE svg PUBLIC "-//W3C//DTD SVG 20010904//EN"
 "http://www.w3.org/TR/2001/REC-SVG-20010904/DTD/svg10.dtd">
<svg version="1.0" xmlns="http://www.w3.org/2000/svg"
 width="32.000000pt" height="32.000000pt" viewBox="0 0 32.000000 32.000000"
 preserveAspectRatio="xMidYMid meet">
<metadata>
Created by potrace 1.16, written by Peter Selinger 2001-2019
</metadata>
<g transform="translate(0.000000,32.000000) scale(0.100000,-0.100000)"
fill="#000000" stroke="none">
<path fill="#000000" stroke="none" d="M120 232 c-16 -17 -20 -27 -12 -30 8
-2 7 -9 -6 -20 -10 -10 -12 -13 -5 -8 18 12 16 1 -3 -18 -8 -9 -11 -16 -6 -16
5 0 13 -12 16 -26 5 -20 12 -25 26 -21 13 3 20 0 20 -8 0 -8 8 -11 21 -8 12 3
18 11 15 19 -3 8 -2 13 2 13 22 -4 30 4 28 26 -2 13 1 22 5 19 20 -12 7 35
-13 50 -13 9 -17 14 -11 11 8 -4 11 -1 7 9 -7 19 -24 21 -24 4 0 -6 -3 -8 -6
-5 -4 4 -2 12 4 20 22 26 -32 16 -58 -11z"/>
</g>
</svg>
