<?xml version="1.0" standalone="no"?>
<!DOCTYPE svg PUBLIC "-//W3C//DTD SVG 20010904//EN"
 "http://www.w3.org/TR/2001/REC-SVG-20010904/DTD/svg10.dtd">
<svg version="1.0" xmlns="http://www.w3.org/2000/svg"
 width="32.000000pt" height="32.000000pt" viewBox="0 0 32.000000 32.000000"
 preserveAspectRatio="xMidYMid meet">
<metadata>
Created by potrace 1.16, written by Peter Selinger 2001-2019
</metadata>
<g transform="translate(0.000000,32.000000) scale(0.100000,-0.100000)"
fill="#000000" stroke="none">
<path fill="#000000" stroke="none" d="M110 220 c0 -6 -10 -21 -23 -33 -12
-12 -18 -19 -13 -14 16 11 24 8 29 -10 3 -13 5 -11 6 6 1 19 5 22 24 19 17 -3
23 0 24 14 1 10 -2 16 -7 13 -5 -3 -11 -1 -15 5 -8 13 -25 13 -25 0z"/>
<path fill="#000000" stroke="none" d="M200 220 c0 -6 7 -10 15 -10 8 0 15 2
15 4 0 2 -7 6 -15 10 -8 3 -15 1 -15 -4z"/>
<path fill="#000000" stroke="none" d="M180 175 c-7 -9 -18 -14 -25 -11 -6 2
-12 -2 -12 -10 0 -17 9 -18 25 -2 9 9 12 9 12 -1 0 -7 5 -9 11 -5 9 5 10 -1 5
-22 -6 -28 -6 -28 9 -9 9 11 20 20 25 20 4 0 12 3 16 8 4 4 1 7 -6 7 -7 0 -20
9 -30 20 -16 18 -19 18 -30 5z"/>
<path fill="#000000" stroke="none" d="M266 163 c-6 -14 -5 -15 5 -6 7 7 10
15 7 18 -3 3 -9 -2 -12 -12z"/>
<path fill="#000000" stroke="none" d="M110 135 c-11 -13 -10 -14 4 -9 9 3 16
10 16 15 0 13 -6 11 -20 -6z"/>
<path fill="#000000" stroke="none" d="M73 118 c2 -12 11 -22 20 -24 15 -2 15
0 0 22 -19 30 -24 30 -20 2z"/>
<path fill="#000000" stroke="none" d="M130 100 c-13 -8 -12 -10 3 -10 9 0 17
5 17 10 0 12 -1 12 -20 0z"/>
<path fill="#000000" stroke="none" d="M155 50 c-3 -5 -1 -10 4 -10 6 0 11 5
11 10 0 6 -2 10 -4 10 -3 0 -8 -4 -11 -10z"/>
</g>
</svg>
