<?xml version="1.0" standalone="no"?>
<!DOCTYPE svg PUBLIC "-//W3C//DTD SVG 20010904//EN"
 "http://www.w3.org/TR/2001/REC-SVG-20010904/DTD/svg10.dtd">
<svg version="1.0" xmlns="http://www.w3.org/2000/svg"
 width="32.000000pt" height="32.000000pt" viewBox="0 0 32.000000 32.000000"
 preserveAspectRatio="xMidYMid meet">
<metadata>
Created by potrace 1.16, written by Peter Selinger 2001-2019
</metadata>
<g transform="translate(0.000000,32.000000) scale(0.100000,-0.100000)"
fill="#000000" stroke="none">
<path fill="#000000" stroke="none" d="M162 228 c-7 -7 -12 -17 -12 -23 0 -6
-16 -26 -35 -45 -19 -18 -33 -35 -31 -37 1 -2 17 2 34 8 22 7 32 17 32 31 0
17 2 18 15 8 14 -12 12 -17 -16 -46 -18 -19 -30 -36 -27 -39 3 -3 19 10 36 30
17 19 38 35 45 35 8 0 21 7 28 16 12 15 11 16 -7 10 -25 -8 -60 26 -48 45 5 9
10 6 15 -9 9 -23 51 -32 46 -10 -6 33 -53 48 -75 26z"/>
<path fill="#000000" stroke="none" d="M90 95 c7 -9 15 -13 17 -11 7 7 -7 26
-19 26 -6 0 -6 -6 2 -15z"/>
</g>
</svg>
