<?xml version="1.0" standalone="no"?>
<!DOCTYPE svg PUBLIC "-//W3C//DTD SVG 20010904//EN"
 "http://www.w3.org/TR/2001/REC-SVG-20010904/DTD/svg10.dtd">
<svg version="1.0" xmlns="http://www.w3.org/2000/svg"
 width="32.000000pt" height="32.000000pt" viewBox="0 0 32.000000 32.000000"
 preserveAspectRatio="xMidYMid meet">
<metadata>
Created by potrace 1.16, written by Peter Selinger 2001-2019
</metadata>
<g transform="translate(0.000000,32.000000) scale(0.100000,-0.100000)"
fill="#000000" stroke="none">
<path fill="#000000" stroke="none" d="M164 209 c-16 -17 -40 -36 -53 -42 -14
-7 -27 -19 -29 -27 -5 -13 -3 -13 12 -1 15 12 20 11 46 -14 28 -27 30 -27 30
-8 0 11 -7 26 -15 33 -15 13 -11 35 6 25 5 -4 9 -1 9 6 0 7 7 21 17 31 28 32
8 29 -23 -3z"/>
<path fill="#000000" stroke="none" d="M210 232 c0 -12 19 -26 26 -19 2 2 -2
10 -11 17 -9 8 -15 8 -15 2z"/>
<path fill="#000000" stroke="none" d="M200 175 c-13 -14 -21 -27 -18 -30 2
-3 17 9 33 25 16 17 24 30 19 30 -6 0 -21 -11 -34 -25z"/>
</g>
</svg>
