<?xml version="1.0" standalone="no"?>
<!DOCTYPE svg PUBLIC "-//W3C//DTD SVG 20010904//EN"
 "http://www.w3.org/TR/2001/REC-SVG-20010904/DTD/svg10.dtd">
<svg version="1.0" xmlns="http://www.w3.org/2000/svg"
 width="32.000000pt" height="32.000000pt" viewBox="0 0 32.000000 32.000000"
 preserveAspectRatio="xMidYMid meet">
<metadata>
Created by potrace 1.16, written by Peter Selinger 2001-2019
</metadata>
<g transform="translate(0.000000,32.000000) scale(0.100000,-0.100000)"
fill="#000000" stroke="none">
<path fill="#000000" stroke="none" d="M0 160 l0 -160 160 0 160 0 0 160 0
160 -160 0 -160 0 0 -160z"/>
<path fill="#ffffff" stroke="none" d="M189 303 c-12 -3 -15 -14 -11 -57 3
-36 -1 -62 -12 -84 -9 -17 -17 -55 -17 -84 -1 -29 -3 -44 -6 -33 -5 23 -30 45
-51 45 -10 0 -12 -8 -7 -33 5 -24 4 -28 -4 -17 -6 8 -11 22 -11 31 0 16 -19
29 -41 29 -5 0 -9 -14 -9 -32 0 -17 -2 -29 -5 -27 -2 3 -2 43 2 88 4 60 12 91
27 114 26 40 80 67 126 66 19 -1 28 -3 19 -6z"/>
<path fill="#000000" stroke="none" d="M117 265 c-27 -57 -23 -75 18 -75 34 0
35 1 35 39 0 78 -25 94 -53 36z"/>
<path fill="#000000" stroke="none" d="M67 259 l-31 -32 24 -19 25 -20 6 28
c3 16 11 39 18 52 18 33 -4 28 -42 -9z"/>
<path fill="#000000" stroke="none" d="M30 161 c0 -35 4 -51 16 -55 29 -11 34
-6 34 37 0 37 -4 46 -25 55 -25 11 -25 11 -25 -37z"/>
<path fill="#000000" stroke="none" d="M90 145 c0 -34 4 -44 24 -53 22 -10 24
-8 28 21 3 18 8 39 12 48 6 13 0 18 -28 21 l-36 4 0 -41z"/>
</g>
</svg>
