<?xml version="1.0" standalone="no"?>
<!DOCTYPE svg PUBLIC "-//W3C//DTD SVG 20010904//EN"
 "http://www.w3.org/TR/2001/REC-SVG-20010904/DTD/svg10.dtd">
<svg version="1.0" xmlns="http://www.w3.org/2000/svg"
 width="32.000000pt" height="32.000000pt" viewBox="0 0 32.000000 32.000000"
 preserveAspectRatio="xMidYMid meet">
<metadata>
Created by potrace 1.16, written by Peter Selinger 2001-2019
</metadata>
<g transform="translate(0.000000,32.000000) scale(0.100000,-0.100000)"
fill="#000000" stroke="none">
<path fill="#000000" stroke="none" d="M110 299 c-32 -13 -59 -38 -75 -69 -16
-32 -30 -210 -17 -210 6 0 8 17 5 40 -4 30 -2 40 8 40 27 0 41 -18 42 -54 1
-20 5 -36 10 -36 6 0 7 17 3 40 -7 43 0 48 36 29 16 -8 19 -17 14 -40 -3 -16
-1 -29 4 -29 6 0 10 13 10 30 0 27 3 30 29 30 16 0 42 5 57 10 26 10 27 10 21
-25 -3 -19 -2 -35 4 -35 5 0 9 15 9 34 0 22 6 36 16 40 14 5 16 1 11 -29 -4
-22 -2 -35 5 -35 15 0 4 169 -13 205 -8 15 -26 37 -40 48 -31 23 -103 31 -139
16z"/>
<path fill="#ffffff" stroke="none" d="M164 284 c3 -9 6 -33 6 -55 0 -38 -1
-39 -35 -39 -41 0 -45 18 -18 75 18 37 37 45 47 19z"/>
<path fill="#ffffff" stroke="none" d="M221 265 c10 -17 19 -43 21 -60 3 -26
0 -30 -25 -33 -31 -4 -34 1 -40 76 -3 44 -2 52 11 50 9 -2 24 -17 33 -33z"/>
<path fill="#ffffff" stroke="none" d="M109 268 c-7 -13 -15 -36 -18 -52 l-6
-28 -25 20 -24 19 31 32 c38 37 60 42 42 9z"/>
<path fill="#ffffff" stroke="none" d="M279 235 c9 -18 10 -30 3 -37 -13 -13
-32 -2 -32 18 0 8 -7 29 -16 47 l-17 31 24 -15 c13 -9 30 -28 38 -44z"/>
<path fill="#ffffff" stroke="none" d="M80 143 c0 -43 -5 -48 -34 -37 -12 4
-16 20 -16 55 0 48 0 48 25 37 21 -9 25 -18 25 -55z"/>
<path fill="#ffffff" stroke="none" d="M154 161 c-4 -9 -9 -30 -12 -48 -4 -29
-6 -31 -28 -21 -20 9 -24 19 -24 53 l0 41 36 -4 c28 -3 34 -8 28 -21z"/>
<path fill="#ffffff" stroke="none" d="M300 138 c0 -17 -7 -31 -19 -37 -17
-10 -19 -6 -23 30 -3 29 1 43 12 49 18 10 30 -5 30 -42z"/>
<path fill="#ffffff" stroke="none" d="M222 160 c25 0 28 -3 28 -34 0 -36 -15
-46 -72 -46 -23 0 -28 4 -28 25 0 36 21 78 34 65 5 -5 23 -10 38 -10z"/>
</g>
</svg>
