<?xml version="1.0" standalone="no"?>
<!DOCTYPE svg PUBLIC "-//W3C//DTD SVG 20010904//EN"
 "http://www.w3.org/TR/2001/REC-SVG-20010904/DTD/svg10.dtd">
<svg version="1.0" xmlns="http://www.w3.org/2000/svg"
 width="32.000000pt" height="32.000000pt" viewBox="0 0 32.000000 32.000000"
 preserveAspectRatio="xMidYMid meet">
<metadata>
Created by potrace 1.16, written by Peter Selinger 2001-2019
</metadata>
<g transform="translate(0.000000,32.000000) scale(0.100000,-0.100000)"
fill="#000000" stroke="none">
<path fill="#000000" stroke="none" d="M0 160 l0 -160 160 0 160 0 0 163 c-1
145 -2 159 -14 131 -8 -18 -19 -35 -25 -38 -6 -4 -11 -15 -11 -25 0 -10 -9
-26 -20 -36 -14 -12 -17 -22 -10 -30 13 -15 -56 -83 -96 -93 -16 -5 -33 -18
-39 -30 -5 -12 -16 -24 -24 -27 -12 -5 -12 -3 0 12 13 17 13 17 -13 0 -28 -17
-58 -14 -58 7 0 14 65 142 82 163 6 7 13 11 16 9 2 -3 18 9 35 26 18 17 33 26
35 19 2 -7 17 -1 36 16 18 16 41 33 52 40 15 9 -9 12 -123 12 l-143 1 0 -160z"/>
</g>
</svg>
