<?xml version="1.0" standalone="no"?>
<!DOCTYPE svg PUBLIC "-//W3C//DTD SVG 20010904//EN"
 "http://www.w3.org/TR/2001/REC-SVG-20010904/DTD/svg10.dtd">
<svg version="1.0" xmlns="http://www.w3.org/2000/svg"
 width="32.000000pt" height="32.000000pt" viewBox="0 0 32.000000 32.000000"
 preserveAspectRatio="xMidYMid meet">
<metadata>
Created by potrace 1.16, written by Peter Selinger 2001-2019
</metadata>
<g transform="translate(0.000000,32.000000) scale(0.100000,-0.100000)"
fill="#000000" stroke="none">
<path fill="#000000" stroke="none" d="M26 306 c18 -8 35 -19 38 -25 4 -6 15
-11 25 -11 10 0 26 -9 36 -20 12 -14 22 -17 30 -10 15 13 83 -56 93 -96 5 -16
18 -33 30 -39 12 -5 24 -16 27 -24 5 -12 3 -12 -12 0 -17 13 -17 13 0 -13 17
-28 14 -58 -7 -58 -14 0 -142 65 -163 82 -7 6 -11 13 -9 16 3 2 -9 18 -26 35
-17 18 -26 33 -19 35 7 2 1 17 -16 36 -16 18 -33 41 -40 52 -9 15 -12 -9 -12
-123 l-1 -143 160 0 160 0 0 160 0 160 -162 0 c-146 -1 -160 -2 -132 -14z"/>
</g>
</svg>
