<?xml version="1.0" standalone="no"?>
<!DOCTYPE svg PUBLIC "-//W3C//DTD SVG 20010904//EN"
 "http://www.w3.org/TR/2001/REC-SVG-20010904/DTD/svg10.dtd">
<svg version="1.0" xmlns="http://www.w3.org/2000/svg"
 width="32.000000pt" height="32.000000pt" viewBox="0 0 32.000000 32.000000"
 preserveAspectRatio="xMidYMid meet">
<metadata>
Created by potrace 1.16, written by Peter Selinger 2001-2019
</metadata>
<g transform="translate(0.000000,32.000000) scale(0.100000,-0.100000)"
fill="#000000" stroke="none">
<path fill="#000000" stroke="none" d="M0 160 l0 -160 160 0 160 0 0 160 0
160 -160 0 -160 0 0 -160z"/>
<path fill="#ffffff" stroke="none" d="M204 284 c4 -9 4 -19 1 -22 -3 -3 -5 0
-5 7 0 7 -5 9 -11 5 -7 -4 -6 -11 5 -22 12 -12 18 -13 30 -3 9 8 13 17 10 22
-9 16 3 10 17 -8 8 -9 9 -14 3 -10 -7 4 -17 0 -24 -8 -10 -12 -10 -19 1 -32
13 -16 12 -17 -4 -4 -9 8 -19 12 -20 10 -10 -16 -87 -97 -87 -92 0 4 -16 -8
-35 -27 -19 -18 -31 -38 -28 -44 4 -6 -1 -5 -10 3 -17 14 -24 26 -9 17 5 -3
24 10 42 29 19 19 31 35 27 35 -5 0 76 77 92 87 2 1 -2 9 -9 18 -7 8 -17 12
-23 8 -6 -4 -7 -1 -2 7 6 10 4 11 -11 6 -10 -5 -27 -11 -36 -13 -10 -3 -18
-10 -18 -15 0 -5 -9 -27 -19 -49 -11 -21 -15 -37 -10 -33 5 3 9 -2 9 -10 0 -9
-4 -16 -10 -16 -5 0 -9 -5 -7 -12 1 -7 -8 -13 -20 -14 -12 -1 -20 3 -17 8 3 4
9 6 14 3 4 -3 8 1 7 8 -1 41 4 58 16 51 9 -6 9 -5 0 8 -7 8 -10 18 -6 21 3 4
1 7 -5 7 -7 0 -12 5 -12 11 0 7 9 9 21 6 15 -4 18 -2 10 7 -6 7 -7 22 -4 35 4
18 10 21 27 16 29 -9 68 -7 80 5 14 14 23 12 30 -6z"/>
<path fill="#ffffff" stroke="none" d="M280 231 c0 -11 -26 -22 -34 -14 -12
12 -5 23 14 23 11 0 20 -4 20 -9z"/>
<path fill="#ffffff" stroke="none" d="M289 197 c8 -11 5 -19 -13 -36 -20 -19
-24 -20 -36 -6 -11 13 -10 19 5 35 21 24 29 25 44 7z"/>
<path fill="#ffffff" stroke="none" d="M272 111 c-8 -4 -12 -17 -10 -27 3 -16
-3 -19 -35 -17 -32 2 -39 -2 -47 -22 -11 -28 -36 -25 -45 6 -4 10 -10 19 -15
19 -4 0 -11 8 -15 18 -5 14 -4 15 6 5 18 -18 76 -16 86 1 13 23 66 47 78 35 7
-7 6 -12 -3 -18z"/>
<path fill="#000000" stroke="none" d="M139 163 c-13 -16 -12 -17 4 -4 9 7 17
15 17 17 0 8 -8 3 -21 -13z"/>
</g>
</svg>
