<?xml version="1.0" standalone="no"?>
<!DOCTYPE svg PUBLIC "-//W3C//DTD SVG 20010904//EN"
 "http://www.w3.org/TR/2001/REC-SVG-20010904/DTD/svg10.dtd">
<svg version="1.0" xmlns="http://www.w3.org/2000/svg"
 width="32.000000pt" height="32.000000pt" viewBox="0 0 32.000000 32.000000"
 preserveAspectRatio="xMidYMid meet">
<metadata>
Created by potrace 1.16, written by Peter Selinger 2001-2019
</metadata>
<g transform="translate(0.000000,32.000000) scale(0.100000,-0.100000)"
fill="#000000" stroke="none">
<path fill="#000000" stroke="none" d="M0 160 l0 -160 160 0 160 0 0 160 0
160 -160 0 -160 0 0 -160z"/>
<path fill="#ffffff" stroke="none" d="M100 260 c0 -11 -6 -20 -13 -20 -19 0
-27 10 -20 26 8 21 33 17 33 -6z"/>
<path fill="#ffffff" stroke="none" d="M178 263 c-12 -15 -22 -18 -13 -3 7 11
-23 9 -41 -2 -6 -4 -11 -2 -11 5 0 8 15 13 38 13 31 0 36 -2 27 -13z"/>
<path fill="#ffffff" stroke="none" d="M251 263 c8 -9 9 -14 3 -10 -6 3 -21
-6 -34 -21 -51 -59 -100 -111 -100 -105 0 4 -16 -8 -35 -27 -19 -18 -32 -37
-29 -42 9 -15 -3 -8 -17 9 -8 9 -9 14 -3 10 6 -3 26 9 44 28 19 19 30 35 26
35 -4 0 24 28 63 61 39 34 68 65 65 70 -9 16 3 10 17 -8z"/>
<path fill="#ffffff" stroke="none" d="M258 233 c-4 -14 23 -54 33 -48 18 12
9 -2 -18 -26 -15 -13 -22 -17 -15 -7 15 18 0 34 -20 22 -7 -4 -5 2 5 13 12 14
15 23 8 28 -14 8 -14 25 -1 25 6 0 9 -3 8 -7z"/>
<path fill="#ffffff" stroke="none" d="M86 204 c-3 -9 -6 -21 -6 -27 0 -8 -4
-7 -12 1 -19 19 -17 38 4 39 14 1 18 -3 14 -13z"/>
<path fill="#ffffff" stroke="none" d="M275 120 c6 -9 -14 -14 -40 -11 -5 1 1
-9 15 -21 15 -12 18 -19 8 -15 -9 3 -19 1 -21 -6 -3 -9 -8 -9 -19 1 -13 10
-19 10 -32 -3 -9 -9 -16 -21 -16 -26 0 -5 -7 -9 -16 -9 -8 0 -13 4 -9 9 3 5 1
12 -5 16 -18 11 -11 27 10 22 14 -4 31 4 53 24 32 29 61 37 72 19z"/>
<path fill="#000000" stroke="none" d="M139 163 c-13 -16 -12 -17 4 -4 9 7 17
15 17 17 0 8 -8 3 -21 -13z"/>
</g>
</svg>
