<?xml version="1.0" standalone="no"?>
<!DOCTYPE svg PUBLIC "-//W3C//DTD SVG 20010904//EN"
 "http://www.w3.org/TR/2001/REC-SVG-20010904/DTD/svg10.dtd">
<svg version="1.0" xmlns="http://www.w3.org/2000/svg"
 width="32.000000pt" height="32.000000pt" viewBox="0 0 32.000000 32.000000"
 preserveAspectRatio="xMidYMid meet">
<metadata>
Created by potrace 1.16, written by Peter Selinger 2001-2019
</metadata>
<g transform="translate(0.000000,32.000000) scale(0.100000,-0.100000)"
fill="#000000" stroke="none">
<path fill="#000000" stroke="none" d="M0 160 l0 -160 160 0 160 0 0 160 0
160 -160 0 -160 0 0 -160z"/>
<path fill="#ffffff" stroke="none" d="M209 201 c8 -5 16 -17 17 -25 2 -13
-10 -16 -66 -16 -56 0 -68 3 -66 16 3 22 26 34 66 34 19 0 41 -4 49 -9z"/>
<path fill="#ffffff" stroke="none" d="M166 138 c-33 -6 -52 -6 -60 2 -7 7 8
10 50 9 l59 -1 -49 -10z"/>
<path fill="#ffffff" stroke="none" d="M230 83 l-45 -48 43 40 c23 21 42 34
42 28 0 -12 -68 -67 -87 -69 -24 -4 -13 28 21 62 19 19 42 34 52 34 14 0 7
-11 -26 -47z"/>
<path fill="#000000" stroke="none" d="M113 192 c-6 -4 15 -7 47 -7 32 0 53 3
47 7 -7 4 -28 8 -47 8 -19 0 -40 -4 -47 -8z"/>
</g>
</svg>
