<?xml version="1.0" standalone="no"?>
<!DOCTYPE svg PUBLIC "-//W3C//DTD SVG 20010904//EN"
 "http://www.w3.org/TR/2001/REC-SVG-20010904/DTD/svg10.dtd">
<svg version="1.0" xmlns="http://www.w3.org/2000/svg"
 width="32.000000pt" height="32.000000pt" viewBox="0 0 32.000000 32.000000"
 preserveAspectRatio="xMidYMid meet">
<metadata>
Created by potrace 1.16, written by Peter Selinger 2001-2019
</metadata>
<g transform="translate(0.000000,32.000000) scale(0.100000,-0.100000)"
fill="#000000" stroke="none">
<path fill="#000000" stroke="none" d="M0 160 l0 -160 160 0 160 0 0 160 0
160 -160 0 -160 0 0 -160z"/>
<path fill="#ffffff" stroke="none" d="M207 179 l2 -24 -8 25 -9 25 -1 -25
c-1 -20 -3 -22 -11 -10 -15 23 -12 38 8 36 10 -2 18 -13 19 -27z"/>
<path fill="#ffffff" stroke="none" d="M185 141 c3 -5 1 -12 -5 -16 -5 -3 -10
1 -10 9 0 18 6 21 15 7z"/>
<path fill="#ffffff" stroke="none" d="M70 129 c0 -5 4 -8 9 -5 10 7 47 -32
38 -40 -3 -3 -10 4 -17 15 -6 12 -15 19 -19 16 -5 -2 -14 2 -21 10 -9 10 -9
15 -1 15 6 0 11 -5 11 -11z"/>
</g>
</svg>
