<?xml version="1.0" standalone="no"?>
<!DOCTYPE svg PUBLIC "-//W3C//DTD SVG 20010904//EN"
 "http://www.w3.org/TR/2001/REC-SVG-20010904/DTD/svg10.dtd">
<svg version="1.0" xmlns="http://www.w3.org/2000/svg"
 width="32.000000pt" height="32.000000pt" viewBox="0 0 32.000000 32.000000"
 preserveAspectRatio="xMidYMid meet">
<metadata>
Created by potrace 1.16, written by Peter Selinger 2001-2019
</metadata>
<g transform="translate(0.000000,32.000000) scale(0.100000,-0.100000)"
fill="#000000" stroke="none">
<path fill="#000000" stroke="none" d="M170 274 c0 -21 63 -84 84 -84 27 0 18
34 -17 68 -35 34 -67 42 -67 16z"/>
<path fill="#000000" stroke="none" d="M118 203 c6 -2 18 -2 25 0 6 3 1 5 -13
5 -14 0 -19 -2 -12 -5z"/>
<path fill="#000000" stroke="none" d="M102 177 c-14 -17 -9 -46 9 -58 18 -11
80 -11 98 0 18 12 23 41 9 58 -14 17 -102 17 -116 0z"/>
<path fill="#ffffff" stroke="none" d="M207 128 c-15 -10 -79 -10 -94 0 -6 4
15 7 47 7 32 0 53 -3 47 -7z"/>
</g>
</svg>
