<?xml version="1.0" standalone="no"?>
<!DOCTYPE svg PUBLIC "-//W3C//DTD SVG 20010904//EN"
 "http://www.w3.org/TR/2001/REC-SVG-20010904/DTD/svg10.dtd">
<svg version="1.0" xmlns="http://www.w3.org/2000/svg"
 width="32.000000pt" height="32.000000pt" viewBox="0 0 32.000000 32.000000"
 preserveAspectRatio="xMidYMid meet">
<metadata>
Created by potrace 1.16, written by Peter Selinger 2001-2019
</metadata>
<g transform="translate(0.000000,32.000000) scale(0.100000,-0.100000)"
fill="#000000" stroke="none">
<path fill="#000000" stroke="none" d="M188 253 c-38 -6 -35 -20 3 -17 24 2
29 -1 24 -13 -5 -14 -3 -14 11 -2 16 13 17 11 11 -25 -4 -24 -3 -36 3 -30 5 5
12 28 16 52 7 46 7 46 -68 35z"/>
<path fill="#000000" stroke="none" d="M169 201 c-13 -11 -21 -22 -18 -25 3
-3 16 5 29 19 28 30 22 33 -11 6z"/>
<path fill="#000000" stroke="none" d="M194 178 l-19 -23 23 19 c21 18 27 26
19 26 -2 0 -12 -10 -23 -22z"/>
</g>
</svg>
