<?xml version="1.0" standalone="no"?>
<!DOCTYPE svg PUBLIC "-//W3C//DTD SVG 20010904//EN"
 "http://www.w3.org/TR/2001/REC-SVG-20010904/DTD/svg10.dtd">
<svg version="1.0" xmlns="http://www.w3.org/2000/svg"
 width="32.000000pt" height="32.000000pt" viewBox="0 0 32.000000 32.000000"
 preserveAspectRatio="xMidYMid meet">
<metadata>
Created by potrace 1.16, written by Peter Selinger 2001-2019
</metadata>
<g transform="translate(0.000000,32.000000) scale(0.100000,-0.100000)"
fill="#000000" stroke="none">
<path fill="#000000" stroke="none" d="M0 160 l0 -160 160 0 160 0 0 160 0
160 -160 0 -160 0 0 -160z"/>
<path fill="#ffffff" stroke="none" d="M217 227 c3 -4 -5 -11 -18 -16 l-24 -9
29 -7 c26 -7 39 -9 84 -14 6 0 12 -7 12 -15 0 -9 -17 -16 -51 -21 -37 -5 -49
-11 -45 -21 8 -20 -9 -26 -70 -25 -49 0 -58 4 -81 32 -35 41 -36 53 -10 76
l22 18 -19 -25 c-11 -14 -5 -10 13 8 32 32 36 34 93 29 32 -2 61 -7 65 -10z"/>
</g>
</svg>
