<?xml version="1.0" standalone="no"?>
<!DOCTYPE svg PUBLIC "-//W3C//DTD SVG 20010904//EN"
 "http://www.w3.org/TR/2001/REC-SVG-20010904/DTD/svg10.dtd">
<svg version="1.0" xmlns="http://www.w3.org/2000/svg"
 width="32.000000pt" height="32.000000pt" viewBox="0 0 32.000000 32.000000"
 preserveAspectRatio="xMidYMid meet">
<metadata>
Created by potrace 1.16, written by Peter Selinger 2001-2019
</metadata>
<g transform="translate(0.000000,32.000000) scale(0.100000,-0.100000)"
fill="#000000" stroke="none">
<path fill="#000000" stroke="none" d="M0 160 l0 -160 160 0 160 0 0 160 0
160 -160 0 -160 0 0 -160z"/>
<path fill="#ffffff" stroke="none" d="M218 142 c20 -30 11 -28 -19 4 -13 15
-18 25 -10 22 8 -2 21 -14 29 -26z"/>
<path fill="#ffffff" stroke="none" d="M260 148 c0 -7 3 -31 7 -52 l6 -39 -44
7 c-24 4 -48 11 -53 16 -6 6 6 7 30 3 36 -6 38 -5 25 11 -12 14 -12 16 2 11
12 -5 15 0 13 24 -1 17 1 31 6 31 4 0 8 -6 8 -12z"/>
<path fill="#ffffff" stroke="none" d="M195 120 c10 -11 16 -20 13 -20 -3 0
-13 9 -23 20 -10 11 -16 20 -13 20 3 0 13 -9 23 -20z"/>
</g>
</svg>
