<?xml version="1.0" standalone="no"?>
<!DOCTYPE svg PUBLIC "-//W3C//DTD SVG 20010904//EN"
 "http://www.w3.org/TR/2001/REC-SVG-20010904/DTD/svg10.dtd">
<svg version="1.0" xmlns="http://www.w3.org/2000/svg"
 width="32.000000pt" height="32.000000pt" viewBox="0 0 32.000000 32.000000"
 preserveAspectRatio="xMidYMid meet">
<metadata>
Created by potrace 1.16, written by Peter Selinger 2001-2019
</metadata>
<g transform="translate(0.000000,32.000000) scale(0.100000,-0.100000)"
fill="#000000" stroke="none">
<path fill="#000000" stroke="none" d="M0 160 l0 -160 160 0 160 0 0 160 0
160 -160 0 -160 0 0 -160z"/>
<path fill="#ffffff" stroke="none" d="M180 226 c0 -11 -19 -15 -25 -6 -3 5 1
10 9 10 9 0 16 -2 16 -4z"/>
<path fill="#ffffff" stroke="none" d="M147 138 c-6 -22 11 -68 25 -68 4 0 15
18 24 40 20 49 31 52 26 6 -4 -35 -48 -88 -77 -92 -8 -1 -13 1 -10 5 2 5 -9
21 -25 36 -32 31 -39 55 -15 55 8 0 15 -6 15 -14 0 -16 28 -42 36 -33 3 3 -4
15 -15 26 -24 24 -25 29 -10 68 9 25 11 26 21 10 5 -10 8 -28 5 -39z"/>
<path fill="#ffffff" stroke="none" d="M180 139 c0 -31 -4 -48 -10 -44 -13 8
-13 95 0 95 6 0 10 -23 10 -51z"/>
</g>
</svg>
