<?xml version="1.0" standalone="no"?>
<!DOCTYPE svg PUBLIC "-//W3C//DTD SVG 20010904//EN"
 "http://www.w3.org/TR/2001/REC-SVG-20010904/DTD/svg10.dtd">
<svg version="1.0" xmlns="http://www.w3.org/2000/svg"
 width="32.000000pt" height="32.000000pt" viewBox="0 0 32.000000 32.000000"
 preserveAspectRatio="xMidYMid meet">
<metadata>
Created by potrace 1.16, written by Peter Selinger 2001-2019
</metadata>
<g transform="translate(0.000000,32.000000) scale(0.100000,-0.100000)"
fill="#000000" stroke="none">
<path fill="#000000" stroke="none" d="M0 160 l0 -160 160 0 160 0 0 160 0
160 -160 0 -160 0 0 -160z"/>
<path fill="#ffffff" stroke="none" d="M246 288 c46 -32 64 -68 64 -130 0 -93
-55 -148 -150 -148 -62 0 -100 20 -131 66 -26 39 -26 129 0 168 31 46 70 66
130 66 40 0 63 -6 87 -22z"/>
<path fill="#000000" stroke="none" d="M120 245 c-6 -7 -13 -21 -14 -28 -1 -8
-8 -23 -16 -32 -18 -21 -14 -74 7 -97 22 -25 104 -25 126 0 21 23 25 75 7 97
-8 9 -15 24 -16 32 -6 40 -68 59 -94 28z"/>
<path fill="#ffffff" stroke="none" d="M188 238 c7 -7 12 -20 12 -29 0 -9 7
-22 15 -29 20 -17 19 -59 -2 -82 -20 -23 -80 -24 -105 -1 -22 20 -24 66 -3 83
8 7 15 20 15 29 0 21 19 41 40 41 9 0 21 -5 28 -12z"/>
</g>
</svg>
