<?xml version="1.0" standalone="no"?>
<!DOCTYPE svg PUBLIC "-//W3C//DTD SVG 20010904//EN"
 "http://www.w3.org/TR/2001/REC-SVG-20010904/DTD/svg10.dtd">
<svg version="1.0" xmlns="http://www.w3.org/2000/svg"
 width="32.000000pt" height="32.000000pt" viewBox="0 0 32.000000 32.000000"
 preserveAspectRatio="xMidYMid meet">
<metadata>
Created by potrace 1.16, written by Peter Selinger 2001-2019
</metadata>
<g transform="translate(0.000000,32.000000) scale(0.100000,-0.100000)"
fill="#000000" stroke="none">
<path fill="#000000" stroke="none" d="M145 294 c-16 -8 -33 -21 -37 -27 -4
-7 -8 -7 -8 -2 0 22 -43 10 -62 -18 -22 -30 -34 -112 -15 -100 6 4 8 0 4 -11
-4 -9 -3 -15 2 -12 15 9 31 -18 21 -34 -15 -24 -12 -28 31 -56 41 -26 42 -26
85 -9 24 9 44 20 44 25 0 4 14 6 30 4 28 -3 33 1 53 43 17 35 19 47 9 51 -10
3 -10 7 0 20 11 13 11 14 -1 7 -11 -6 -13 -4 -8 8 4 10 2 16 -6 14 -7 -1 -13
9 -13 23 -1 14 -2 30 -3 37 -1 14 -62 53 -82 53 -8 0 -27 -7 -44 -16z"/>
<path fill="#ffffff" stroke="none" d="M209 264 c-7 -8 -6 -14 2 -20 8 -5 10
-2 5 7 -4 8 -1 5 6 -5 7 -10 23 -28 35 -39 12 -11 20 -24 17 -29 -3 -4 0 -8 6
-8 6 0 9 -4 5 -9 -3 -5 -1 -12 5 -16 5 -3 10 -12 10 -18 0 -8 -4 -7 -9 2 -7
12 -13 12 -24 3 -7 -7 -18 -8 -22 -4 -5 4 -5 1 -1 -6 4 -7 11 -10 16 -7 5 3
12 0 16 -6 4 -7 3 -9 -3 -6 -6 4 -19 0 -29 -8 -18 -14 -18 -14 4 -15 12 0 22
-4 22 -8 0 -10 -30 -9 -48 2 -7 4 -15 1 -18 -8 -3 -9 -12 -16 -20 -16 -8 0
-14 -6 -14 -12 0 -10 -2 -10 -9 0 -7 11 -9 11 -14 -2 -4 -9 -12 -16 -19 -15
-10 0 -10 2 0 6 22 9 13 25 -10 18 -18 -5 -20 -4 -8 4 13 9 13 12 1 23 -10 10
-12 10 -7 1 4 -7 3 -13 -2 -13 -5 0 -12 13 -15 29 -4 18 -14 32 -27 36 -11 4
-18 11 -15 16 4 5 0 9 -7 9 -11 0 -10 2 0 9 11 7 11 9 -2 14 -9 4 -16 12 -16
19 0 9 3 8 10 -2 8 -13 12 -12 27 4 10 10 13 16 6 12 -6 -3 -15 -1 -19 6 -4 7
-4 10 1 6 4 -4 21 2 36 13 16 11 29 17 29 12 0 -4 7 2 14 13 11 15 26 21 55
21 32 0 39 -3 30 -13z"/>
<path fill="#ffffff" stroke="none" d="M256 250 c0 -11 -4 -20 -8 -20 -10 0
-11 24 -1 33 9 9 9 10 9 -13z"/>
<path fill="#ffffff" stroke="none" d="M90 248 c0 -4 -9 -8 -20 -8 -11 0 -20
4 -20 8 0 4 9 8 20 8 11 0 20 -4 20 -8z"/>
<path fill="#ffffff" stroke="none" d="M80 75 c0 -14 -4 -25 -8 -25 -7 0 -8
31 -3 48 4 11 11 -3 11 -23z"/>
<path fill="#000000" stroke="none" d="M131 214 c0 -12 -8 -27 -16 -34 -18
-15 -20 -61 -3 -78 13 -13 84 -17 92 -4 2 4 -13 6 -35 4 -31 -3 -39 -1 -39 12
0 11 10 16 33 17 31 2 31 2 4 6 -34 5 -34 36 1 41 15 2 22 10 21 25 0 12 -3
16 -6 10 -7 -19 -41 -16 -46 5 -4 13 -5 13 -6 -4z"/>
<path fill="#ffffff" stroke="none" d="M117 118 c-3 -8 -6 -5 -6 6 -1 11 2 17
5 13 3 -3 4 -12 1 -19z"/>
<path fill="#000000" stroke="none" d="M90 210 c-9 -6 -10 -10 -3 -10 6 0 15
5 18 10 8 12 4 12 -15 0z"/>
<path fill="#000000" stroke="none" d="M241 174 c0 -11 3 -14 6 -6 3 7 2 16
-1 19 -3 4 -6 -2 -5 -13z"/>
<path fill="#000000" stroke="none" d="M212 145 c0 -16 2 -22 5 -12 2 9 2 23
0 30 -3 6 -5 -1 -5 -18z"/>
<path fill="#000000" stroke="none" d="M168 153 c7 -3 16 -2 19 1 4 3 -2 6
-13 5 -11 0 -14 -3 -6 -6z"/>
</g>
</svg>
