<?xml version="1.0" standalone="no"?>
<!DOCTYPE svg PUBLIC "-//W3C//DTD SVG 20010904//EN"
 "http://www.w3.org/TR/2001/REC-SVG-20010904/DTD/svg10.dtd">
<svg version="1.0" xmlns="http://www.w3.org/2000/svg"
 width="32.000000pt" height="32.000000pt" viewBox="0 0 32.000000 32.000000"
 preserveAspectRatio="xMidYMid meet">
<metadata>
Created by potrace 1.16, written by Peter Selinger 2001-2019
</metadata>
<g transform="translate(0.000000,32.000000) scale(0.100000,-0.100000)"
fill="#000000" stroke="none">
<path fill="#000000" stroke="none" d="M96 294 c-3 -8 -10 -13 -14 -10 -5 3
-17 0 -26 -7 -14 -10 -13 -12 12 -12 20 0 32 7 40 23 5 12 7 22 2 22 -4 0 -11
-7 -14 -16z"/>
<path fill="#000000" stroke="none" d="M78 243 c6 -2 18 -2 25 0 6 3 1 5 -13
5 -14 0 -19 -2 -12 -5z"/>
<path fill="#000000" stroke="none" d="M205 240 c3 -5 11 -10 16 -10 6 0 7 5
4 10 -3 6 -11 10 -16 10 -6 0 -7 -4 -4 -10z"/>
<path fill="#000000" stroke="none" d="M240 219 c0 -16 4 -28 9 -25 8 5 3 56
-5 56 -2 0 -4 -14 -4 -31z"/>
<path fill="#000000" stroke="none" d="M263 235 c0 -11 4 -12 14 -4 7 6 13 13
13 15 0 2 -6 4 -13 4 -8 0 -14 -7 -14 -15z"/>
<path fill="#000000" stroke="none" d="M290 221 c0 -5 5 -13 10 -16 6 -3 10
-2 10 4 0 5 -4 13 -10 16 -5 3 -10 2 -10 -4z"/>
<path fill="#000000" stroke="none" d="M133 203 c1 -17 7 -23 24 -23 13 0 23
5 23 10 0 6 -9 10 -19 10 -11 0 -21 6 -24 13 -3 6 -4 2 -4 -10z"/>
<path fill="#000000" stroke="none" d="M30 163 c0 -10 4 -14 8 -8 4 6 11 13
16 18 5 4 2 7 -7 7 -10 0 -17 -8 -17 -17z"/>
<path fill="#000000" stroke="none" d="M280 165 c-7 -9 -8 -15 -2 -15 5 0 12
7 16 15 3 8 4 15 2 15 -2 0 -9 -7 -16 -15z"/>
<path fill="#000000" stroke="none" d="M102 150 c0 -14 2 -19 5 -12 2 6 2 18
0 25 -3 6 -5 1 -5 -13z"/>
<path fill="#000000" stroke="none" d="M122 128 c3 -29 7 -33 33 -34 l30 -1
-29 4 c-25 4 -28 7 -22 34 3 17 1 29 -5 29 -6 0 -9 -15 -7 -32z"/>
<path fill="#000000" stroke="none" d="M241 124 c0 -11 3 -14 6 -6 3 7 2 16
-1 19 -3 4 -6 -2 -5 -13z"/>
<path fill="#000000" stroke="none" d="M68 118 c-4 -10 -5 -24 -2 -32 3 -8 0
-17 -7 -22 -7 -4 -10 -3 -6 3 4 6 -5 21 -18 33 -14 13 -25 18 -25 11 0 -6 7
-14 15 -17 8 -4 15 -15 15 -25 0 -24 6 -24 37 1 14 11 21 20 15 20 -6 0 -12
10 -14 23 -3 19 -4 20 -10 5z"/>
<path fill="#000000" stroke="none" d="M218 73 c6 -2 18 -2 25 0 6 3 1 5 -13
5 -14 0 -19 -2 -12 -5z"/>
<path fill="#000000" stroke="none" d="M227 48 c2 -5 13 -8 24 -8 10 0 19 3
19 8 0 4 -11 7 -24 7 -13 0 -22 -3 -19 -7z"/>
<path fill="#000000" stroke="none" d="M210 20 c0 -5 7 -7 15 -4 8 4 15 8 15
10 0 2 -7 4 -15 4 -8 0 -15 -4 -15 -10z"/>
</g>
</svg>
