<?xml version="1.0" standalone="no"?>
<!DOCTYPE svg PUBLIC "-//W3C//DTD SVG 20010904//EN"
 "http://www.w3.org/TR/2001/REC-SVG-20010904/DTD/svg10.dtd">
<svg version="1.0" xmlns="http://www.w3.org/2000/svg"
 width="32.000000pt" height="32.000000pt" viewBox="0 0 32.000000 32.000000"
 preserveAspectRatio="xMidYMid meet">
<metadata>
Created by potrace 1.16, written by Peter Selinger 2001-2019
</metadata>
<g transform="translate(0.000000,32.000000) scale(0.100000,-0.100000)"
fill="#000000" stroke="none">
<path fill="#000000" stroke="none" d="M120 298 c0 -3 6 -9 13 -12 6 -4 2 -4
-11 -2 -12 2 -20 0 -16 -5 3 -5 0 -9 -5 -9 -6 0 -11 6 -11 13 0 8 -3 8 -9 -2
-5 -8 -7 -20 -4 -28 5 -12 8 -11 23 2 19 17 34 20 25 5 -10 -15 28 1 43 18 11
14 12 14 12 -2 0 -16 2 -17 16 -5 14 11 16 10 12 -11 -2 -21 1 -25 22 -23 l25
2 -22 -11 c-27 -13 -29 -21 -6 -39 14 -12 16 -12 8 0 -5 9 -4 12 3 7 6 -4 9
-21 7 -39 -3 -18 -3 -26 1 -19 3 6 15 11 27 11 17 -1 18 -2 5 -6 -10 -2 -18
-8 -18 -12 0 -5 -16 -26 -36 -47 -20 -22 -34 -33 -30 -27 5 9 -1 13 -19 13
-15 0 -24 -4 -20 -10 11 -18 -18 -10 -41 11 -14 13 -24 17 -29 10 -3 -6 -1
-11 6 -11 10 0 10 -3 1 -12 -7 -7 -12 -17 -12 -23 0 -5 5 -3 10 5 8 13 10 12
10 -4 0 -13 5 -16 16 -12 9 4 22 2 29 -4 15 -13 56 -9 73 7 15 15 16 27 0 17
-7 -4 -8 -3 -4 5 4 6 12 9 17 6 5 -4 13 5 19 19 5 14 14 26 20 26 6 0 8 6 4
13 -6 9 -5 9 7 0 14 -11 16 -7 17 28 1 22 5 46 9 52 4 6 0 8 -9 5 -11 -5 -14
0 -10 18 4 20 1 23 -13 17 -14 -5 -16 -3 -10 7 5 8 4 11 -3 6 -12 -7 -42 20
-42 39 0 9 -17 14 -50 17 -28 1 -50 0 -50 -4z"/>
<path fill="#ffffff" stroke="none" d="M273 203 c-4 -10 -9 -11 -19 -2 -19 15
-18 18 5 16 11 -1 17 -6 14 -14z"/>
<path fill="#ffffff" stroke="none" d="M180 40 c0 -5 -5 -10 -11 -10 -5 0 -7
5 -4 10 3 6 8 10 11 10 2 0 4 -4 4 -10z"/>
<path fill="#000000" stroke="none" d="M230 281 c0 -6 4 -13 10 -16 6 -3 7 1
4 9 -7 18 -14 21 -14 7z"/>
<path fill="#000000" stroke="none" d="M38 233 c10 -4 10 -7 -2 -17 -8 -6 -16
-31 -18 -56 -2 -37 1 -45 16 -48 15 -3 16 -6 5 -13 -11 -7 -10 -9 4 -9 12 0
16 -4 11 -12 -5 -9 -2 -8 10 1 9 8 16 26 15 40 -4 53 1 91 12 89 6 -2 14 3 16
10 3 6 -1 12 -9 13 -7 0 -26 2 -43 4 -16 1 -24 1 -17 -2z"/>
<path fill="#ffffff" stroke="none" d="M61 167 c-13 -13 -15 1 -4 30 7 17 8
17 11 -1 2 -10 -1 -23 -7 -29z"/>
<path fill="#000000" stroke="none" d="M131 214 c0 -12 -8 -27 -16 -34 -18
-15 -20 -61 -3 -78 13 -13 84 -17 92 -4 2 4 -13 6 -35 4 -33 -4 -39 -1 -39 16
0 14 6 19 23 17 12 -1 14 0 5 2 -10 2 -18 11 -18 20 0 10 -6 13 -16 9 -8 -3
-12 -2 -9 4 3 6 22 10 41 10 29 0 34 3 33 23 0 12 -3 16 -6 10 -7 -19 -41 -16
-46 5 -4 13 -5 13 -6 -4z"/>
<path fill="#ffffff" stroke="none" d="M117 118 c-3 -8 -6 -5 -6 6 -1 11 2 17
5 13 3 -3 4 -12 1 -19z"/>
<path fill="#000000" stroke="none" d="M212 145 c0 -16 2 -22 5 -12 2 9 2 23
0 30 -3 6 -5 -1 -5 -18z"/>
</g>
</svg>
