<?xml version="1.0" standalone="no"?>
<!DOCTYPE svg PUBLIC "-//W3C//DTD SVG 20010904//EN"
 "http://www.w3.org/TR/2001/REC-SVG-20010904/DTD/svg10.dtd">
<svg version="1.0" xmlns="http://www.w3.org/2000/svg"
 width="32.000000pt" height="32.000000pt" viewBox="0 0 32.000000 32.000000"
 preserveAspectRatio="xMidYMid meet">
<metadata>
Created by potrace 1.16, written by Peter Selinger 2001-2019
</metadata>
<g transform="translate(0.000000,32.000000) scale(0.100000,-0.100000)"
fill="#000000" stroke="none">
<path fill="#000000" stroke="none" d="M90 296 c-23 -9 -34 -19 -33 -30 0 -10
-2 -15 -5 -12 -12 13 -42 -51 -41 -89 1 -57 22 -110 43 -108 10 0 15 -2 12 -5
-12 -11 56 -42 92 -41 54 1 107 23 105 43 0 10 2 15 5 12 11 -12 42 49 42 83
0 67 -20 109 -66 136 -47 28 -98 31 -154 11z"/>
<path fill="#ffffff" stroke="none" d="M208 258 c-2 -7 3 -12 10 -11 6 2 12
-3 12 -11 0 -8 9 -21 20 -29 16 -11 20 -24 19 -56 -3 -35 -8 -44 -36 -61 -18
-11 -33 -24 -33 -30 0 -5 -17 -10 -37 -10 -29 1 -43 7 -58 27 -11 14 -28 33
-37 41 -21 19 -24 62 -5 81 10 11 9 13 -3 7 -8 -4 -5 1 7 12 12 11 20 22 17
25 -3 3 3 3 14 1 12 -4 22 0 25 10 8 20 88 23 85 4z"/>
<path fill="#000000" stroke="none" d="M137 234 c-4 -4 -7 -15 -7 -24 0 -10
-7 -23 -15 -30 -18 -15 -20 -61 -3 -78 16 -16 80 -16 96 0 17 17 15 63 -2 78
-8 6 -16 21 -18 33 -3 22 -36 35 -51 21z"/>
<path fill="#000000" stroke="none" d="M90 210 c-13 -8 -12 -10 3 -10 9 0 17
5 17 10 0 12 -1 12 -20 0z"/>
<path fill="#000000" stroke="none" d="M240 174 c0 -8 5 -12 10 -9 6 4 8 11 5
16 -9 14 -15 11 -15 -7z"/>
</g>
</svg>
