<?xml version="1.0" standalone="no"?>
<!DOCTYPE svg PUBLIC "-//W3C//DTD SVG 20010904//EN"
 "http://www.w3.org/TR/2001/REC-SVG-20010904/DTD/svg10.dtd">
<svg version="1.0" xmlns="http://www.w3.org/2000/svg"
 width="32.000000pt" height="32.000000pt" viewBox="0 0 32.000000 32.000000"
 preserveAspectRatio="xMidYMid meet">
<metadata>
Created by potrace 1.16, written by Peter Selinger 2001-2019
</metadata>
<g transform="translate(0.000000,32.000000) scale(0.100000,-0.100000)"
fill="#000000" stroke="none">
<path fill="#000000" stroke="none" d="M0 160 l0 -160 160 0 160 0 0 160 0
160 -160 0 -160 0 0 -160z"/>
<path fill="#ffffff" stroke="none" d="M148 298 c10 -10 15 -10 23 2 9 13 10
12 5 -2 -6 -21 14 -24 32 -6 7 7 12 9 12 6 0 -4 -7 -14 -16 -22 -14 -15 -13
-17 8 -25 19 -7 24 -5 30 13 6 20 12 7 9 -19 0 -6 8 -16 19 -23 11 -7 20 -8
20 -3 0 5 -5 11 -12 13 -13 5 -21 38 -9 38 4 0 16 -15 26 -34 15 -28 17 -39 7
-60 -6 -13 -8 -26 -4 -29 4 -2 2 -2 -5 -1 -7 2 -15 -1 -18 -7 -4 -5 -10 -7
-15 -4 -4 3 -10 -9 -12 -25 -4 -24 -1 -30 14 -30 30 0 20 -27 -18 -50 -30 -19
-39 -21 -61 -11 -20 9 -28 9 -33 0 -5 -7 -10 -8 -14 -1 -3 6 0 13 6 15 8 4 7
6 -4 6 -9 1 -20 -3 -23 -9 -3 -5 -14 -10 -23 -9 -12 0 -11 3 6 9 12 5 22 16
22 23 0 8 7 14 15 14 8 0 12 -4 9 -9 -3 -4 -1 -8 5 -8 5 0 13 4 16 10 3 5 12
10 18 10 7 0 4 -7 -6 -15 -18 -13 -18 -14 3 -25 17 -9 25 -9 34 1 8 9 8 10 -4
4 -13 -8 -13 -7 -1 8 8 10 11 20 8 23 -3 4 0 13 8 21 8 8 15 23 15 34 0 11 6
22 14 25 8 3 14 11 12 17 -1 7 -1 8 2 4 2 -4 10 -3 18 4 13 10 12 14 -2 30
-17 19 -40 27 -29 10 3 -5 0 -13 -6 -17 -6 -3 -15 0 -20 7 -5 8 -3 17 4 21 9
6 8 8 -2 8 -8 0 -33 16 -57 35 -45 37 -59 42 -70 23 -5 -7 -3 -8 7 -3 12 7 12
6 0 -9 -13 -15 -13 -19 0 -27 12 -7 11 -9 -2 -9 -11 0 -19 -12 -23 -35 -4 -22
-13 -35 -22 -35 -8 0 -12 -5 -9 -10 4 -6 1 -9 -5 -8 -7 2 -17 -5 -23 -14 -9
-13 -8 -20 2 -30 11 -11 12 -10 6 2 -8 13 -7 13 8 1 14 -11 17 -11 18 0 1 8 1
18 0 22 -1 5 3 6 9 2 5 -3 10 -13 10 -22 0 -9 8 -22 18 -30 16 -14 16 -14 0
-9 -13 4 -18 0 -19 -17 0 -12 -3 -17 -5 -10 -3 7 -11 10 -17 7 -14 -5 -47 45
-47 70 0 9 7 28 16 41 9 13 13 29 9 35 -3 5 -1 10 4 10 6 0 11 -5 11 -11 0 -5
4 -7 10 -4 13 8 13 45 -1 45 -5 0 -7 -5 -4 -10 3 -5 1 -10 -4 -10 -6 0 -11 5
-11 11 0 5 -5 7 -12 3 -7 -4 -8 -3 -4 4 4 7 20 12 37 12 16 0 29 5 29 11 0 7
-10 9 -27 4 -31 -7 -27 -1 14 26 34 21 55 23 71 7z"/>
<path fill="#ffffff" stroke="none" d="M160 200 c10 0 21 6 23 13 3 6 6 2 6
-10 1 -18 -5 -22 -36 -25 -36 -3 -38 -5 -39 -38 -1 -26 -1 -28 3 -7 2 15 8 27
13 27 5 0 7 -14 3 -31 l-6 -31 41 3 c22 3 38 1 36 -3 -8 -13 -79 -9 -92 4 -17
17 -15 63 3 78 8 7 16 22 16 34 1 17 2 17 6 4 2 -10 13 -18 23 -18z"/>
<path fill="#ffffff" stroke="none" d="M217 133 c-3 -10 -5 -4 -5 12 0 17 2
24 5 18 2 -7 2 -21 0 -30z"/>
<path fill="#ffffff" stroke="none" d="M294 104 c3 -8 2 -12 -4 -9 -6 3 -10
10 -10 16 0 14 7 11 14 -7z"/>
<path fill="#000000" stroke="none" d="M55 80 c3 -5 8 -10 11 -10 2 0 4 5 4
10 0 6 -5 10 -11 10 -5 0 -7 -4 -4 -10z"/>
<path fill="#000000" stroke="none" d="M230 61 c0 -10 26 -9 36 2 4 4 -2 7
-14 7 -12 0 -22 -4 -22 -9z"/>
</g>
</svg>
