<?xml version="1.0" standalone="no"?>
<!DOCTYPE svg PUBLIC "-//W3C//DTD SVG 20010904//EN"
 "http://www.w3.org/TR/2001/REC-SVG-20010904/DTD/svg10.dtd">
<svg version="1.0" xmlns="http://www.w3.org/2000/svg"
 width="32.000000pt" height="32.000000pt" viewBox="0 0 32.000000 32.000000"
 preserveAspectRatio="xMidYMid meet">
<metadata>
Created by potrace 1.16, written by Peter Selinger 2001-2019
</metadata>
<g transform="translate(0.000000,32.000000) scale(0.100000,-0.100000)"
fill="#000000" stroke="none">
<path fill="#000000" stroke="none" d="M0 160 l0 -160 160 0 160 0 0 160 0
160 -160 0 -160 0 0 -160z"/>
<path fill="#ffffff" stroke="none" d="M220 285 c0 -19 30 -46 42 -39 7 5 8 2
3 -6 -6 -10 -4 -12 10 -7 14 6 17 3 13 -17 -4 -18 -1 -23 10 -18 9 3 13 1 9
-5 -4 -6 -8 -30 -9 -52 -1 -35 -3 -39 -17 -28 -12 9 -13 9 -7 0 4 -7 2 -13 -4
-13 -6 0 -15 -12 -20 -26 -6 -14 -14 -23 -19 -19 -5 3 -13 0 -17 -6 -4 -8 -3
-9 4 -5 16 10 15 -2 0 -17 -17 -16 -58 -20 -73 -7 -7 6 -20 8 -29 4 -11 -4
-16 -1 -16 12 0 16 -2 17 -10 4 -5 -8 -10 -10 -10 -5 0 6 5 16 12 23 9 9 9 12
-1 12 -7 0 -9 5 -6 11 5 7 15 3 29 -10 23 -21 52 -29 41 -11 -4 6 5 10 20 10
18 0 24 -4 19 -13 -4 -6 10 5 30 27 20 21 36 42 36 47 0 4 8 10 18 12 13 4 12
5 -5 6 -12 0 -24 -5 -27 -11 -4 -7 -4 1 -1 19 2 18 -1 35 -7 39 -7 5 -8 2 -3
-7 8 -12 6 -12 -8 0 -23 18 -21 26 6 39 l22 11 -25 -2 c-21 -2 -24 2 -22 23 4
21 2 22 -12 11 -14 -12 -16 -11 -16 5 0 16 -1 16 -12 2 -15 -17 -53 -33 -43
-18 9 15 -6 12 -25 -5 -15 -13 -18 -14 -23 -2 -3 8 -1 20 4 28 6 10 9 10 9 2
0 -7 5 -13 11 -13 5 0 8 4 5 9 -4 5 4 7 16 5 13 -2 17 -2 11 2 -27 12 -11 19
37 16 33 -3 50 -8 50 -17z"/>
<path fill="#ffffff" stroke="none" d="M244 274 c3 -8 2 -12 -4 -9 -6 3 -10
10 -10 16 0 14 7 11 14 -7z"/>
<path fill="#ffffff" stroke="none" d="M98 231 c8 -1 12 -7 9 -13 -2 -7 -10
-12 -16 -10 -11 2 -16 -36 -12 -89 1 -14 -6 -32 -15 -40 -12 -9 -15 -10 -10
-1 5 8 1 12 -11 12 -14 0 -15 2 -4 9 11 7 10 10 -5 13 -15 3 -18 11 -16 48 2
25 10 50 18 56 12 10 12 13 2 17 -7 3 1 3 17 2 17 -2 36 -4 43 -4z"/>
<path fill="#ffffff" stroke="none" d="M160 200 c10 0 21 6 23 13 3 6 6 2 6
-10 1 -20 -4 -23 -33 -23 -19 0 -38 -4 -41 -10 -3 -6 1 -7 9 -4 10 4 16 1 16
-9 0 -9 8 -18 18 -20 9 -2 7 -3 -5 -2 -17 2 -23 -3 -23 -17 0 -17 6 -20 39
-16 22 2 37 0 35 -4 -8 -13 -79 -9 -92 4 -17 17 -15 63 3 78 8 7 16 22 16 34
1 17 2 17 6 4 2 -10 13 -18 23 -18z"/>
<path fill="#ffffff" stroke="none" d="M217 133 c-3 -10 -5 -4 -5 12 0 17 2
24 5 18 2 -7 2 -21 0 -30z"/>
<path fill="#000000" stroke="none" d="M240 216 c0 -2 6 -9 14 -15 10 -9 15
-8 19 2 3 8 -3 13 -14 14 -10 1 -19 0 -19 -1z"/>
<path fill="#000000" stroke="none" d="M165 40 c-3 -5 -1 -10 4 -10 6 0 11 5
11 10 0 6 -2 10 -4 10 -3 0 -8 -4 -11 -10z"/>
<path fill="#000000" stroke="none" d="M57 197 c-11 -29 -9 -43 4 -30 6 6 9
19 7 29 -3 18 -4 18 -11 1z"/>
<path fill="#000000" stroke="none" d="M111 124 c0 -11 3 -14 6 -6 3 7 2 16
-1 19 -3 4 -6 -2 -5 -13z"/>
</g>
</svg>
