<?xml version="1.0" standalone="no"?>
<!DOCTYPE svg PUBLIC "-//W3C//DTD SVG 20010904//EN"
 "http://www.w3.org/TR/2001/REC-SVG-20010904/DTD/svg10.dtd">
<svg version="1.0" xmlns="http://www.w3.org/2000/svg"
 width="32.000000pt" height="32.000000pt" viewBox="0 0 32.000000 32.000000"
 preserveAspectRatio="xMidYMid meet">
<metadata>
Created by potrace 1.16, written by Peter Selinger 2001-2019
</metadata>
<g transform="translate(0.000000,32.000000) scale(0.100000,-0.100000)"
fill="#000000" stroke="none">
<path fill="#000000" stroke="none" d="M0 160 l0 -160 160 0 160 0 0 160 0
160 -160 0 -160 0 0 -160z"/>
<path fill="#ffffff" stroke="none" d="M145 300 c-4 -6 5 -5 19 2 21 9 32 8
60 -7 19 -11 33 -22 30 -27 -3 -4 3 -5 12 -1 14 5 16 1 12 -30 -2 -21 0 -37 4
-37 4 0 8 8 8 17 0 22 6 14 14 -20 5 -22 4 -27 -6 -21 -10 5 -11 4 0 -7 6 -7
12 -22 12 -33 0 -26 -34 -79 -44 -69 -4 4 -5 1 -1 -7 13 -36 -127 -62 -175
-33 -16 9 -27 20 -24 25 3 4 -1 5 -9 2 -8 -3 -18 6 -26 23 -9 19 -9 29 -2 31
6 2 11 8 11 13 0 4 -6 6 -14 3 -10 -4 -14 5 -14 37 -1 43 25 102 40 93 4 -3 5
2 2 10 -5 13 2 16 32 17 30 0 34 2 19 8 -21 9 -18 10 38 20 5 0 5 -4 2 -9z"/>
<path fill="#000000" stroke="none" d="M120 260 c0 -14 -61 -50 -73 -43 -6 3
-7 1 -3 -5 3 -5 21 -8 39 -5 17 3 29 1 24 -3 -4 -4 -17 -8 -30 -9 -32 -2 -37
-61 -8 -82 12 -8 21 -20 21 -28 0 -8 5 -17 12 -21 7 -5 8 -3 3 6 -5 9 -4 11 4
6 9 -6 9 -11 1 -21 -16 -19 69 -8 92 12 9 8 22 12 29 7 7 -4 10 -3 6 3 -7 11
20 28 36 24 5 -1 6 3 2 9 -3 6 -12 7 -18 4 -8 -5 -8 -3 1 7 18 20 14 62 -8 82
-11 9 -20 23 -20 31 0 8 -5 18 -12 22 -7 5 -9 2 -4 -7 4 -8 1 -6 -7 4 -15 18
-87 24 -87 7z"/>
<path fill="#ffffff" stroke="none" d="M178 228 c19 -19 15 -48 -7 -48 -35 0
-34 -20 1 -21 l33 -2 -35 -7 -35 -7 32 -2 c21 -1 36 5 42 17 9 15 10 14 11 -8
0 -24 -3 -25 -45 -22 -37 3 -45 1 -45 -13 0 -14 7 -16 39 -13 22 2 37 0 35 -4
-8 -13 -79 -9 -92 4 -17 17 -15 63 3 78 8 7 15 21 15 30 0 16 11 26 31 29 3 1
10 -4 17 -11z"/>
<path fill="#ffffff" stroke="none" d="M80 144 c0 -8 -5 -12 -10 -9 -6 4 -8
11 -5 16 9 14 15 11 15 -7z"/>
<path fill="#000000" stroke="none" d="M140 208 c0 -4 9 -8 20 -8 11 0 20 4
20 8 0 4 -9 8 -20 8 -11 0 -20 -4 -20 -8z"/>
</g>
</svg>
