<?xml version="1.0" standalone="no"?>
<!DOCTYPE svg PUBLIC "-//W3C//DTD SVG 20010904//EN"
 "http://www.w3.org/TR/2001/REC-SVG-20010904/DTD/svg10.dtd">
<svg version="1.0" xmlns="http://www.w3.org/2000/svg"
 width="32.000000pt" height="32.000000pt" viewBox="0 0 32.000000 32.000000"
 preserveAspectRatio="xMidYMid meet">
<metadata>
Created by potrace 1.16, written by Peter Selinger 2001-2019
</metadata>
<g transform="translate(0.000000,32.000000) scale(0.100000,-0.100000)"
fill="#000000" stroke="none">
<path fill="#000000" stroke="none" d="M110 302 c-23 -4 -24 -5 -5 -13 15 -6
11 -8 -19 -8 -30 -1 -37 -4 -32 -17 3 -8 2 -13 -2 -10 -15 9 -41 -50 -40 -93
0 -32 4 -41 14 -37 8 3 14 1 14 -3 0 -5 -5 -11 -11 -13 -7 -2 -7 -12 2 -31 8
-17 18 -26 26 -23 8 3 12 2 9 -2 -3 -5 8 -16 24 -25 48 -29 188 -3 175 33 -4
8 -3 11 1 7 10 -10 44 43 44 69 0 11 -6 26 -12 33 -11 11 -10 12 0 7 10 -6 11
-1 6 21 -8 34 -14 42 -14 20 0 -9 -4 -17 -8 -17 -4 0 -6 16 -4 37 4 31 2 35
-12 30 -9 -4 -15 -3 -12 1 3 5 -11 16 -30 27 -28 15 -39 16 -60 7 -14 -7 -23
-8 -19 -2 3 5 3 9 -2 9 -4 -1 -19 -4 -33 -7z"/>
<path fill="#ffffff" stroke="none" d="M207 253 c8 -10 11 -12 7 -4 -5 9 -3
12 4 7 7 -4 12 -14 12 -22 0 -8 9 -22 20 -31 22 -20 26 -62 8 -82 -9 -10 -9
-12 -1 -7 6 3 15 2 18 -4 4 -6 3 -10 -2 -9 -16 4 -43 -13 -36 -24 4 -6 1 -7
-6 -3 -7 5 -20 1 -29 -7 -23 -20 -108 -31 -92 -12 8 10 8 15 -1 21 -8 5 -9 3
-4 -6 5 -9 4 -11 -3 -6 -7 4 -12 13 -12 21 0 8 -9 20 -21 28 -29 21 -24 80 8
82 13 1 26 5 30 9 5 4 -7 6 -24 3 -18 -3 -36 0 -39 5 -4 6 -3 8 3 5 12 -7 73
29 73 43 0 17 72 11 87 -7z"/>
<path fill="#000000" stroke="none" d="M143 233 c-7 -2 -13 -13 -13 -23 0 -9
-7 -23 -15 -30 -18 -15 -20 -61 -3 -78 13 -13 84 -17 92 -4 2 4 -13 6 -35 4
-32 -3 -39 -1 -39 13 0 14 8 16 45 13 42 -3 45 -2 45 22 -1 22 -2 23 -11 8 -6
-12 -21 -18 -42 -17 l-32 2 35 7 35 7 -33 2 c-35 1 -36 21 -1 21 22 0 26 29 7
48 -13 13 -16 13 -35 5z"/>
<path fill="#ffffff" stroke="none" d="M180 208 c0 -4 -9 -8 -20 -8 -11 0 -20
4 -20 8 0 4 9 8 20 8 11 0 20 -4 20 -8z"/>
<path fill="#000000" stroke="none" d="M65 151 c-3 -5 -1 -12 5 -16 5 -3 10 1
10 9 0 18 -6 21 -15 7z"/>
</g>
</svg>
