<?xml version="1.0" standalone="no"?>
<!DOCTYPE svg PUBLIC "-//W3C//DTD SVG 20010904//EN"
 "http://www.w3.org/TR/2001/REC-SVG-20010904/DTD/svg10.dtd">
<svg version="1.0" xmlns="http://www.w3.org/2000/svg"
 width="32.000000pt" height="32.000000pt" viewBox="0 0 32.000000 32.000000"
 preserveAspectRatio="xMidYMid meet">
<metadata>
Created by potrace 1.16, written by Peter Selinger 2001-2019
</metadata>
<g transform="translate(0.000000,32.000000) scale(0.100000,-0.100000)"
fill="#000000" stroke="none">
<path fill="#000000" stroke="none" d="M0 160 l0 -160 160 0 160 0 0 160 0
160 -160 0 -160 0 0 -160z"/>
<path fill="#ffffff" stroke="none" d="M248 276 c45 -41 62 -77 62 -126 0 -76
-72 -140 -159 -140 -41 0 -51 4 -83 38 -48 50 -57 71 -56 125 0 39 6 51 37 80
50 48 69 57 121 55 36 0 52 -7 78 -32z"/>
<path fill="#000000" stroke="none" d="M124 248 c-71 -113 -58 -178 36 -178
32 0 52 6 62 18 17 18 29 102 15 99 -8 -2 -14 6 -36 51 -10 21 -66 28 -77 10z"/>
<path fill="#ffffff" stroke="none" d="M188 238 c7 -7 12 -20 12 -29 0 -9 7
-22 15 -29 20 -17 19 -59 -2 -82 -20 -23 -80 -24 -105 -1 -22 20 -24 66 -3 83
8 7 15 20 15 29 0 21 19 41 40 41 9 0 21 -5 28 -12z"/>
</g>
</svg>
