<?xml version="1.0" standalone="no"?>
<!DOCTYPE svg PUBLIC "-//W3C//DTD SVG 20010904//EN"
 "http://www.w3.org/TR/2001/REC-SVG-20010904/DTD/svg10.dtd">
<svg version="1.0" xmlns="http://www.w3.org/2000/svg"
 width="32.000000pt" height="32.000000pt" viewBox="0 0 32.000000 32.000000"
 preserveAspectRatio="xMidYMid meet">
<metadata>
Created by potrace 1.16, written by Peter Selinger 2001-2019
</metadata>
<g transform="translate(0.000000,32.000000) scale(0.100000,-0.100000)"
fill="#000000" stroke="none">
<path fill="#000000" stroke="none" d="M145 290 c-4 -6 1 -7 11 -3 12 4 25 -3
42 -23 13 -16 21 -23 18 -16 -4 7 -1 12 8 12 20 0 29 17 15 26 -8 4 -9 3 -5
-4 5 -8 -1 -12 -15 -12 -19 0 -20 2 -8 18 13 15 12 16 -3 4 -11 -9 -18 -10
-23 -2 -8 13 -32 13 -40 0z"/>
<path fill="#000000" stroke="none" d="M110 270 c0 -5 -8 -7 -17 -4 -15 5 -16
4 -3 -5 20 -14 27 -14 34 4 3 8 1 15 -4 15 -6 0 -10 -4 -10 -10z"/>
<path fill="#000000" stroke="none" d="M46 234 c5 -20 4 -25 -5 -19 -8 5 -11
1 -9 -11 2 -12 -2 -18 -10 -16 -8 1 -11 -2 -7 -8 4 -6 15 -4 30 6 21 13 22 19
13 45 -12 36 -21 38 -12 3z"/>
<path fill="#000000" stroke="none" d="M231 240 c0 -9 8 -23 19 -33 23 -19 41
-24 22 -5 -8 8 -8 17 -1 32 9 19 9 20 -4 4 -8 -10 -17 -18 -20 -18 -3 0 -8 8
-10 18 -4 13 -5 13 -6 2z"/>
<path fill="#000000" stroke="none" d="M131 214 c0 -12 -8 -27 -16 -34 -18
-15 -20 -61 -3 -78 13 -13 84 -17 92 -4 2 4 -13 6 -35 4 -33 -4 -39 -1 -39 16
0 14 6 19 23 17 12 -1 14 0 5 2 -10 2 -18 11 -18 20 0 10 -6 13 -16 9 -8 -3
-12 -2 -9 4 3 6 22 10 41 10 29 0 34 3 33 23 0 12 -3 16 -6 10 -7 -19 -41 -16
-46 5 -4 13 -5 13 -6 -4z"/>
<path fill="#ffffff" stroke="none" d="M117 118 c-3 -8 -6 -5 -6 6 -1 11 2 17
5 13 3 -3 4 -12 1 -19z"/>
<path fill="#000000" stroke="none" d="M286 168 c3 -5 10 -6 15 -3 13 9 11 12
-6 12 -8 0 -12 -4 -9 -9z"/>
<path fill="#000000" stroke="none" d="M212 145 c0 -16 2 -22 5 -12 2 9 2 23
0 30 -3 6 -5 -1 -5 -18z"/>
<path fill="#000000" stroke="none" d="M16 152 c-3 -5 1 -9 9 -9 8 0 12 4 9 9
-3 4 -7 8 -9 8 -2 0 -6 -4 -9 -8z"/>
<path fill="#000000" stroke="none" d="M71 144 c0 -11 3 -14 6 -6 3 7 2 16 -1
19 -3 4 -6 -2 -5 -13z"/>
<path fill="#000000" stroke="none" d="M273 132 c-19 -15 -20 -20 -9 -47 10
-25 13 -26 19 -12 4 11 3 16 -3 12 -6 -3 -10 1 -10 10 0 12 5 15 16 11 14 -5
15 -4 4 9 -11 14 -7 19 13 16 4 0 7 4 7 9 0 14 -12 12 -37 -8z"/>
<path fill="#000000" stroke="none" d="M46 99 c1 -30 14 -55 14 -26 0 8 5 17
11 19 6 2 3 10 -8 20 -17 16 -18 15 -17 -13z"/>
<path fill="#000000" stroke="none" d="M104 72 c5 -8 0 -12 -13 -12 -11 0 -23
-5 -27 -11 -4 -8 1 -9 17 -4 33 10 43 21 28 30 -8 5 -10 4 -5 -3z"/>
<path fill="#000000" stroke="none" d="M188 50 c-18 -17 -28 -30 -22 -30 6 0
20 9 31 20 14 13 23 15 25 8 3 -9 6 -9 12 0 4 7 2 12 -4 12 -6 0 -8 5 -5 10
11 18 -3 10 -37 -20z"/>
<path fill="#000000" stroke="none" d="M251 54 c0 -11 3 -14 6 -6 3 7 2 16 -1
19 -3 4 -6 -2 -5 -13z"/>
<path fill="#000000" stroke="none" d="M104 35 c-10 -8 -14 -15 -7 -15 6 0 15
5 18 10 4 6 11 8 16 4 5 -3 7 -10 4 -15 -4 -5 -1 -9 4 -9 15 0 14 15 -2 29
-10 8 -19 7 -33 -4z"/>
</g>
</svg>
