<?xml version="1.0" standalone="no"?>
<!DOCTYPE svg PUBLIC "-//W3C//DTD SVG 20010904//EN"
 "http://www.w3.org/TR/2001/REC-SVG-20010904/DTD/svg10.dtd">
<svg version="1.0" xmlns="http://www.w3.org/2000/svg"
 width="32.000000pt" height="32.000000pt" viewBox="0 0 32.000000 32.000000"
 preserveAspectRatio="xMidYMid meet">
<metadata>
Created by potrace 1.16, written by Peter Selinger 2001-2019
</metadata>
<g transform="translate(0.000000,32.000000) scale(0.100000,-0.100000)"
fill="#000000" stroke="none">
<path fill="#000000" stroke="none" d="M0 160 l0 -160 160 0 160 0 0 160 0
160 -160 0 -160 0 0 -160z"/>
<path fill="#ffffff" stroke="none" d="M139 203 c-8 -9 -8 -13 -1 -13 6 0 15
7 20 15 7 13 11 11 22 -10 9 -16 20 -24 29 -21 9 3 6 -2 -7 -11 -20 -14 -21
-18 -8 -32 14 -15 12 -17 -21 -19 -20 -2 -40 -5 -46 -9 -5 -3 -3 5 4 18 18 32
20 59 3 52 -7 -2 -10 -11 -7 -19 3 -9 -1 -14 -13 -14 -11 0 -15 4 -9 8 6 4 10
14 10 22 0 8 -4 18 -10 22 -6 4 -2 8 8 8 10 0 16 4 13 8 -3 5 1 9 9 9 11 0 12
-4 4 -14z"/>
<path fill="#000000" stroke="none" d="M162 175 c4 -4 3 -16 -2 -25 -7 -13 -5
-20 7 -24 9 -4 18 -4 21 -1 3 3 0 5 -7 5 -8 0 -10 7 -6 19 3 11 0 23 -7 27 -7
4 -10 4 -6 -1z"/>
</g>
</svg>
