<?xml version="1.0" standalone="no"?>
<!DOCTYPE svg PUBLIC "-//W3C//DTD SVG 20010904//EN"
 "http://www.w3.org/TR/2001/REC-SVG-20010904/DTD/svg10.dtd">
<svg version="1.0" xmlns="http://www.w3.org/2000/svg"
 width="32.000000pt" height="32.000000pt" viewBox="0 0 32.000000 32.000000"
 preserveAspectRatio="xMidYMid meet">
<metadata>
Created by potrace 1.16, written by Peter Selinger 2001-2019
</metadata>
<g transform="translate(0.000000,32.000000) scale(0.100000,-0.100000)"
fill="#000000" stroke="none">
<path fill="#000000" stroke="none" d="M151 193 c3 -20 -2 -25 -15 -14 -10 9
-15 8 -19 -3 -4 -10 -1 -13 7 -10 8 3 17 0 21 -5 3 -6 11 -9 16 -5 5 3 7 10 4
15 -3 5 1 6 9 3 23 -9 20 3 -4 16 -11 6 -20 7 -19 3z"/>
<path fill="#000000" stroke="none" d="M155 130 c-11 -5 -17 -9 -13 -9 3 -1
13 -3 21 -6 8 -4 14 0 14 10 0 8 -1 15 -1 14 -1 0 -10 -4 -21 -9z"/>
</g>
</svg>
