<?xml version="1.0" standalone="no"?>
<!DOCTYPE svg PUBLIC "-//W3C//DTD SVG 20010904//EN"
 "http://www.w3.org/TR/2001/REC-SVG-20010904/DTD/svg10.dtd">
<svg version="1.0" xmlns="http://www.w3.org/2000/svg"
 width="32.000000pt" height="32.000000pt" viewBox="0 0 32.000000 32.000000"
 preserveAspectRatio="xMidYMid meet">
<metadata>
Created by potrace 1.16, written by Peter Selinger 2001-2019
</metadata>
<g transform="translate(0.000000,32.000000) scale(0.100000,-0.100000)"
fill="#000000" stroke="none">
<path fill="#000000" stroke="none" d="M130 197 c0 -5 6 -7 14 -4 7 3 19 0 25
-6 8 -8 14 -8 24 2 10 10 8 11 -7 5 -13 -5 -17 -4 -12 4 5 8 -1 11 -18 10 -15
-1 -26 -6 -26 -11z"/>
<path fill="#000000" stroke="none" d="M120 171 c24 -15 38 -17 39 -7 1 6 -11
11 -26 13 -21 2 -24 1 -13 -6z"/>
<path fill="#000000" stroke="none" d="M184 162 c3 -6 -3 -17 -14 -25 -11 -7
-17 -17 -13 -20 3 -4 13 2 21 14 8 11 20 18 28 15 22 -8 17 2 -7 15 -13 7 -19
7 -15 1z"/>
<path fill="#000000" stroke="none" d="M114 140 c0 -10 6 -16 13 -13 7 3 13 9
13 13 0 4 -6 10 -13 13 -7 3 -13 -3 -13 -13z"/>
</g>
</svg>
