<?xml version="1.0" standalone="no"?>
<!DOCTYPE svg PUBLIC "-//W3C//DTD SVG 20010904//EN"
 "http://www.w3.org/TR/2001/REC-SVG-20010904/DTD/svg10.dtd">
<svg version="1.0" xmlns="http://www.w3.org/2000/svg"
 width="32.000000pt" height="32.000000pt" viewBox="0 0 32.000000 32.000000"
 preserveAspectRatio="xMidYMid meet">
<metadata>
Created by potrace 1.16, written by Peter Selinger 2001-2019
</metadata>
<g transform="translate(0.000000,32.000000) scale(0.100000,-0.100000)"
fill="#000000" stroke="none">
<path fill="#000000" stroke="none" d="M125 186 c2 -14 -1 -28 -6 -32 -5 -3
-9 -12 -9 -20 0 -10 7 -13 24 -8 13 3 27 1 30 -5 12 -20 33 -12 32 12 -1 12 4
32 12 44 12 20 12 22 -5 21 -10 -1 -32 2 -49 6 -29 7 -31 5 -29 -18z"/>
</g>
</svg>
