<?xml version="1.0" standalone="no"?>
<!DOCTYPE svg PUBLIC "-//W3C//DTD SVG 20010904//EN"
 "http://www.w3.org/TR/2001/REC-SVG-20010904/DTD/svg10.dtd">
<svg version="1.0" xmlns="http://www.w3.org/2000/svg"
 width="32.000000pt" height="32.000000pt" viewBox="0 0 32.000000 32.000000"
 preserveAspectRatio="xMidYMid meet">
<metadata>
Created by potrace 1.16, written by Peter Selinger 2001-2019
</metadata>
<g transform="translate(0.000000,32.000000) scale(0.100000,-0.100000)"
fill="#000000" stroke="none">
<path fill="#000000" stroke="none" d="M0 279 c0 -38 2 -40 23 -32 12 4 37 7
55 6 39 -3 111 -3 155 -1 17 1 44 -2 60 -6 26 -8 27 -7 27 33 l0 41 -160 0
-160 0 0 -41z"/>
<path fill="#000000" stroke="none" d="M68 203 c7 -3 16 -2 19 1 4 3 -2 6 -13
5 -11 0 -14 -3 -6 -6z"/>
<path fill="#000000" stroke="none" d="M228 203 c7 -3 16 -2 19 1 4 3 -2 6
-13 5 -11 0 -14 -3 -6 -6z"/>
<path fill="#000000" stroke="none" d="M24 188 c-3 -4 3 -6 13 -3 10 3 5 -1
-10 -8 l-28 -13 35 -19 c32 -18 37 -18 85 -2 47 15 53 15 79 0 25 -14 34 -15
75 -2 26 7 47 17 47 22 0 4 -4 5 -10 2 -5 -3 -20 1 -32 9 -12 9 -18 16 -12 16
5 0 16 -6 24 -12 12 -11 12 -10 3 2 -12 16 -95 21 -110 6 -4 -4 0 -4 10 0 9 3
17 4 17 1 0 -4 -16 -11 -36 -16 -29 -8 -41 -7 -58 4 -11 8 -16 15 -10 15 5 0
15 -4 22 -10 9 -7 9 -7 2 2 -11 13 -99 18 -106 6z"/>
<path fill="#000000" stroke="none" d="M22 134 c10 -10 20 -16 22 -13 3 3 -5
11 -17 18 -21 13 -21 12 -5 -5z"/>
<path fill="#000000" stroke="none" d="M182 134 c10 -10 20 -16 22 -13 3 3 -5
11 -17 18 -21 13 -21 12 -5 -5z"/>
<path fill="#000000" stroke="none" d="M110 130 c-9 -6 -10 -10 -3 -10 6 0 15
5 18 10 8 12 4 12 -15 0z"/>
<path fill="#000000" stroke="none" d="M270 130 c-9 -6 -10 -10 -3 -10 6 0 15
5 18 10 8 12 4 12 -15 0z"/>
<path fill="#000000" stroke="none" d="M68 113 c7 -3 16 -2 19 1 4 3 -2 6 -13
5 -11 0 -14 -3 -6 -6z"/>
<path fill="#000000" stroke="none" d="M228 113 c7 -3 16 -2 19 1 4 3 -2 6
-13 5 -11 0 -14 -3 -6 -6z"/>
<path fill="#000000" stroke="none" d="M0 41 l0 -41 160 0 160 0 0 41 c0 40
-1 41 -27 33 -16 -4 -43 -7 -60 -6 -44 2 -116 2 -155 -1 -18 -1 -43 2 -55 6
-21 8 -23 6 -23 -32z"/>
</g>
</svg>
