<?xml version="1.0" standalone="no"?>
<!DOCTYPE svg PUBLIC "-//W3C//DTD SVG 20010904//EN"
 "http://www.w3.org/TR/2001/REC-SVG-20010904/DTD/svg10.dtd">
<svg version="1.0" xmlns="http://www.w3.org/2000/svg"
 width="32.000000pt" height="32.000000pt" viewBox="0 0 32.000000 32.000000"
 preserveAspectRatio="xMidYMid meet">
<metadata>
Created by potrace 1.16, written by Peter Selinger 2001-2019
</metadata>
<g transform="translate(0.000000,32.000000) scale(0.100000,-0.100000)"
fill="#000000" stroke="none">
<path fill="#000000" stroke="none" d="M76 311 c-3 -4 -19 -11 -35 -14 -37 -8
-44 -36 -14 -60 27 -22 21 -42 -7 -27 -17 9 -18 7 -10 -19 5 -18 4 -33 -2 -39
-11 -11 -3 -32 13 -32 5 0 9 7 9 15 0 9 8 27 17 41 14 22 14 29 4 46 -12 19
-11 20 6 14 13 -4 12 -1 -6 14 -13 11 -21 24 -17 27 4 4 11 2 15 -5 6 -10 14
-10 36 -2 16 6 34 9 41 6 8 -3 16 -1 19 4 3 5 19 7 35 3 26 -5 30 -3 30 18 0
22 0 22 -16 3 -13 -16 -15 -16 -10 -1 3 11 0 17 -9 17 -8 0 -15 -4 -15 -9 0
-15 -49 -19 -54 -5 -6 16 -22 18 -30 5z"/>
<path fill="#000000" stroke="none" d="M220 300 c0 -5 5 -10 11 -10 5 0 7 5 4
10 -3 6 -8 10 -11 10 -2 0 -4 -4 -4 -10z"/>
<path fill="#000000" stroke="none" d="M222 268 c-6 -6 -12 -18 -12 -26 0 -12
3 -12 15 -2 17 14 39 4 31 -16 -3 -9 2 -14 14 -14 26 0 25 -18 0 -45 -18 -19
-19 -24 -6 -34 12 -10 12 -16 1 -38 -7 -14 -11 -32 -8 -39 4 -10 0 -12 -11 -8
-9 3 -16 10 -16 15 0 5 -7 9 -16 9 -12 0 -11 -5 7 -20 28 -23 13 -27 -19 -4
-24 16 -42 12 -42 -12 0 -22 46 -40 64 -25 8 7 20 10 26 6 5 -3 21 6 35 22 25
29 32 53 15 53 -6 0 -5 8 2 20 10 16 10 24 0 41 -8 12 -9 18 -3 15 15 -10 24
13 11 29 -8 10 -8 18 1 33 7 11 10 26 7 34 -7 18 -79 23 -96 6z"/>
<path fill="#ffffff" stroke="none" d="M290 70 c0 -5 -4 -10 -10 -10 -5 0 -10
5 -10 10 0 6 5 10 10 10 6 0 10 -4 10 -10z"/>
<path fill="#000000" stroke="none" d="M36 105 c-25 -19 -9 -19 24 0 14 8 19
14 10 14 -8 0 -24 -6 -34 -14z"/>
<path fill="#000000" stroke="none" d="M16 71 c-8 -13 10 -51 25 -51 5 0 21 7
34 16 14 9 32 14 40 10 19 -7 20 8 1 23 -10 9 -16 8 -26 -4 -16 -20 -47 -19
-58 1 -6 11 -11 13 -16 5z"/>
<path fill="#000000" stroke="none" d="M95 20 c3 -5 8 -10 11 -10 2 0 4 5 4
10 0 6 -5 10 -11 10 -5 0 -7 -4 -4 -10z"/>
</g>
</svg>
