<?xml version="1.0" standalone="no"?>
<!DOCTYPE svg PUBLIC "-//W3C//DTD SVG 20010904//EN"
 "http://www.w3.org/TR/2001/REC-SVG-20010904/DTD/svg10.dtd">
<svg version="1.0" xmlns="http://www.w3.org/2000/svg"
 width="32.000000pt" height="32.000000pt" viewBox="0 0 32.000000 32.000000"
 preserveAspectRatio="xMidYMid meet">
<metadata>
Created by potrace 1.16, written by Peter Selinger 2001-2019
</metadata>
<g transform="translate(0.000000,32.000000) scale(0.100000,-0.100000)"
fill="#000000" stroke="none">
<path fill="#000000" stroke="none" d="M75 310 c-3 -5 -17 -10 -31 -10 -34 0
-49 -41 -36 -97 6 -28 6 -45 -2 -53 -7 -7 -5 -15 6 -26 13 -13 14 -23 7 -42
-16 -41 4 -68 49 -69 20 0 63 -3 95 -6 31 -3 60 -1 63 4 3 6 13 7 23 4 32 -10
59 34 57 90 -1 28 2 56 7 63 6 7 5 17 -2 25 -7 10 -7 17 0 24 6 6 9 21 7 34
-2 18 -10 25 -30 27 -18 2 -25 8 -22 17 4 8 -3 13 -18 13 -13 1 -38 4 -55 8
-22 4 -33 2 -33 -5 0 -7 -5 -9 -10 -6 -6 4 -17 2 -24 -4 -10 -9 -15 -8 -20 4
-6 17 -22 20 -31 5z"/>
<path fill="#ffffff" stroke="none" d="M200 306 c0 -3 -4 -8 -10 -11 -5 -3
-10 -1 -10 4 0 6 5 11 10 11 6 0 10 -2 10 -4z"/>
<path fill="#ffffff" stroke="none" d="M230 281 c0 -6 -4 -13 -10 -16 -17 -10
-11 -33 8 -31 10 0 17 -6 16 -16 -1 -9 4 -15 10 -12 6 2 18 -1 26 -6 13 -8 12
-12 -7 -31 -16 -16 -19 -26 -11 -38 6 -11 6 -25 -1 -44 -9 -23 -15 -27 -38
-21 -21 4 -24 3 -13 -5 8 -5 11 -13 7 -17 -3 -4 -13 -1 -22 6 -12 10 -18 10
-31 0 -13 -11 -19 -10 -36 8 -19 19 -23 19 -45 5 -18 -12 -26 -13 -38 -3 -21
18 -19 29 10 42 14 6 25 15 25 20 0 13 -28 9 -33 -4 -2 -7 -7 -10 -11 -7 -4 4
1 28 9 54 13 37 14 50 4 59 -9 8 -10 8 -5 -1 8 -15 -10 -27 -20 -12 -8 13 16
31 33 24 7 -2 12 -1 12 3 -4 21 4 30 28 35 16 3 32 0 36 -6 6 -9 10 -9 14 1 2
6 13 12 24 12 10 0 19 -6 19 -12 0 -7 5 -5 11 5 11 18 29 23 29 8z"/>
<path fill="#ffffff" stroke="none" d="M290 70 c0 -5 -4 -10 -10 -10 -5 0 -10
5 -10 10 0 6 5 10 10 10 6 0 10 -4 10 -10z"/>
<path fill="#ffffff" stroke="none" d="M121 37 c-1 -12 -15 -9 -19 4 -3 6 1
10 8 8 6 -3 11 -8 11 -12z"/>
</g>
</svg>
