<?xml version="1.0" standalone="no"?>
<!DOCTYPE svg PUBLIC "-//W3C//DTD SVG 20010904//EN"
 "http://www.w3.org/TR/2001/REC-SVG-20010904/DTD/svg10.dtd">
<svg version="1.0" xmlns="http://www.w3.org/2000/svg"
 width="32.000000pt" height="32.000000pt" viewBox="0 0 32.000000 32.000000"
 preserveAspectRatio="xMidYMid meet">
<metadata>
Created by potrace 1.16, written by Peter Selinger 2001-2019
</metadata>
<g transform="translate(0.000000,32.000000) scale(0.100000,-0.100000)"
fill="#000000" stroke="none">
<path fill="#000000" stroke="none" d="M159 269 c-20 -29 -55 -65 -85 -85 -62
-41 -76 -66 -72 -130 l3 -49 61 -3 c61 -3 62 -2 91 35 17 21 35 48 42 60 6 12
36 39 67 59 l55 37 -3 61 -3 61 -61 3 -62 3 -33 -52z"/>
<path fill="#ffffff" stroke="none" d="M304 271 c-3 -43 -34 -74 -73 -74 -40
0 -85 -47 -87 -89 -2 -38 -33 -70 -71 -72 -17 -1 -39 -8 -49 -16 -18 -14 -18
-14 -4 4 8 10 15 32 16 49 2 38 34 69 72 71 42 2 89 47 89 86 0 46 38 79 89
76 17 -1 20 -7 18 -35z"/>
<path fill="#000000" stroke="none" d="M229 271 c-16 -16 -29 -35 -29 -43 1
-7 7 -1 16 14 8 15 27 34 42 42 15 9 21 15 14 16 -8 0 -27 -13 -43 -29z"/>
<path fill="#000000" stroke="none" d="M285 259 c-4 -11 -21 -29 -38 -40 -18
-10 -26 -19 -19 -19 16 0 72 54 72 69 0 18 -8 13 -15 -10z"/>
<path fill="#000000" stroke="none" d="M69 111 c-16 -16 -29 -35 -29 -43 1 -7
7 -1 16 14 8 15 27 34 42 42 15 9 21 15 14 16 -8 0 -27 -13 -43 -29z"/>
<path fill="#000000" stroke="none" d="M125 99 c-4 -11 -21 -29 -38 -40 -18
-10 -26 -19 -19 -19 16 0 72 54 72 69 0 18 -8 13 -15 -10z"/>
</g>
</svg>
