<?xml version="1.0" standalone="no"?>
<!DOCTYPE svg PUBLIC "-//W3C//DTD SVG 20010904//EN"
 "http://www.w3.org/TR/2001/REC-SVG-20010904/DTD/svg10.dtd">
<svg version="1.0" xmlns="http://www.w3.org/2000/svg"
 width="32.000000pt" height="32.000000pt" viewBox="0 0 32.000000 32.000000"
 preserveAspectRatio="xMidYMid meet">
<metadata>
Created by potrace 1.16, written by Peter Selinger 2001-2019
</metadata>
<g transform="translate(0.000000,32.000000) scale(0.100000,-0.100000)"
fill="#000000" stroke="none">
<path fill="#000000" stroke="none" d="M7 313 c-4 -3 -7 -32 -7 -64 0 -54 2
-59 38 -87 20 -16 47 -34 59 -41 12 -6 39 -36 59 -67 l37 -55 61 3 61 3 3 61
3 61 -56 37 c-30 21 -62 50 -70 65 -8 16 -28 43 -45 60 -27 27 -39 31 -84 31
-29 0 -56 -3 -59 -7z"/>
<path fill="#ffffff" stroke="none" d="M73 284 c38 -2 69 -34 71 -72 2 -42 47
-89 87 -89 39 0 70 -31 73 -75 3 -34 2 -35 -32 -32 -44 3 -75 34 -75 73 0 40
-47 85 -89 87 -38 2 -70 33 -72 71 -1 17 -8 39 -16 49 -14 18 -14 18 4 4 10
-8 32 -15 49 -16z"/>
<path fill="#000000" stroke="none" d="M82 264 c15 -8 34 -27 42 -42 9 -15 15
-21 16 -14 0 17 -55 72 -72 72 -7 -1 -1 -7 14 -16z"/>
<path fill="#000000" stroke="none" d="M40 252 c0 -17 55 -72 72 -72 7 1 1 7
-14 16 -15 8 -34 27 -42 42 -9 15 -15 21 -16 14z"/>
<path fill="#000000" stroke="none" d="M242 104 c15 -8 34 -27 42 -42 9 -15
15 -21 16 -14 0 17 -55 72 -72 72 -7 -1 -1 -7 14 -16z"/>
<path fill="#000000" stroke="none" d="M200 92 c0 -17 55 -72 72 -72 7 1 1 7
-14 16 -15 8 -34 27 -42 42 -9 15 -15 21 -16 14z"/>
</g>
</svg>
