<?xml version="1.0" standalone="no"?>
<!DOCTYPE svg PUBLIC "-//W3C//DTD SVG 20010904//EN"
 "http://www.w3.org/TR/2001/REC-SVG-20010904/DTD/svg10.dtd">
<svg version="1.0" xmlns="http://www.w3.org/2000/svg"
 width="32.000000pt" height="32.000000pt" viewBox="0 0 32.000000 32.000000"
 preserveAspectRatio="xMidYMid meet">
<metadata>
Created by potrace 1.16, written by Peter Selinger 2001-2019
</metadata>
<g transform="translate(0.000000,32.000000) scale(0.100000,-0.100000)"
fill="#000000" stroke="none">
<path fill="#000000" stroke="none" d="M0 219 l0 -101 31 32 c17 17 44 37 59
45 24 12 55 50 94 113 5 9 -15 12 -88 12 l-96 0 0 -101z"/>
<path fill="#000000" stroke="none" d="M306 313 c-4 -4 -21 -8 -38 -9 -39 -2
-70 -33 -72 -72 -2 -42 -47 -89 -87 -89 -38 0 -71 -32 -73 -71 -1 -17 -10 -41
-21 -54 l-20 -23 23 20 c13 11 37 20 54 21 39 2 71 35 71 73 0 40 47 85 89 87
38 2 70 33 72 70 1 16 5 35 9 42 9 13 5 16 -7 5z"/>
<path fill="#ffffff" stroke="none" d="M258 284 c-15 -8 -34 -27 -42 -42 -9
-15 -15 -21 -16 -14 0 8 13 27 29 43 16 16 35 29 43 29 7 -1 1 -7 -14 -16z"/>
<path fill="#ffffff" stroke="none" d="M300 269 c0 -15 -56 -69 -72 -69 -7 0
1 9 19 19 17 11 34 29 38 40 7 23 15 28 15 10z"/>
<path fill="#ffffff" stroke="none" d="M98 124 c-15 -8 -34 -27 -42 -42 -9
-15 -15 -21 -16 -14 0 17 55 72 72 72 7 -1 1 -7 -14 -16z"/>
<path fill="#ffffff" stroke="none" d="M140 109 c0 -15 -56 -69 -72 -69 -7 0
1 9 19 19 17 11 34 29 38 40 7 23 15 28 15 10z"/>
<path fill="#000000" stroke="none" d="M263 154 c-29 -19 -58 -45 -64 -57 -7
-12 -25 -39 -41 -59 l-30 -38 96 0 96 0 0 95 c0 52 -1 95 -2 95 -2 0 -27 -16
-55 -36z"/>
</g>
</svg>
