<?xml version="1.0" standalone="no"?>
<!DOCTYPE svg PUBLIC "-//W3C//DTD SVG 20010904//EN"
 "http://www.w3.org/TR/2001/REC-SVG-20010904/DTD/svg10.dtd">
<svg version="1.0" xmlns="http://www.w3.org/2000/svg"
 width="32.000000pt" height="32.000000pt" viewBox="0 0 32.000000 32.000000"
 preserveAspectRatio="xMidYMid meet">
<metadata>
Created by potrace 1.16, written by Peter Selinger 2001-2019
</metadata>
<g transform="translate(0.000000,32.000000) scale(0.100000,-0.100000)"
fill="#000000" stroke="none">
<path fill="#000000" stroke="none" d="M0 160 l0 -160 160 0 160 0 0 160 0
160 -160 0 -160 0 0 -160z"/>
<path fill="#ffffff" stroke="none" d="M120 284 c0 -11 -61 -66 -67 -61 -6 6
47 67 59 67 4 0 8 -3 8 -6z"/>
<path fill="#ffffff" stroke="none" d="M187 223 c-20 -20 -39 -34 -43 -30 -4
3 10 23 30 43 20 20 40 34 43 30 4 -4 -9 -23 -30 -43z"/>
<path fill="#ffffff" stroke="none" d="M249 184 c-45 -47 -57 -43 -18 6 18 22
36 37 41 34 5 -4 -5 -21 -23 -40z"/>
<path fill="#ffffff" stroke="none" d="M75 170 c-40 -41 -50 -27 -12 16 17 19
33 30 35 24 3 -7 -8 -25 -23 -40z"/>
<path fill="#ffffff" stroke="none" d="M190 172 c0 -12 -51 -55 -57 -48 -3 3
5 17 18 31 24 25 39 32 39 17z"/>
<path fill="#ffffff" stroke="none" d="M90 123 c0 -13 -44 -53 -59 -53 -10 0
-6 9 14 30 28 29 45 38 45 23z"/>
<path fill="#ffffff" stroke="none" d="M130 93 c0 -13 -33 -43 -48 -43 -12 0
-10 6 8 25 23 24 40 32 40 18z"/>
<path fill="#ffffff" stroke="none" d="M210 94 c0 -11 -61 -66 -67 -61 -6 6
47 67 59 67 4 0 8 -3 8 -6z"/>
<path fill="#ffffff" stroke="none" d="M255 50 c-40 -41 -50 -27 -12 16 17 19
33 30 35 24 3 -7 -8 -25 -23 -40z"/>
</g>
</svg>
