<?xml version="1.0" standalone="no"?>
<!DOCTYPE svg PUBLIC "-//W3C//DTD SVG 20010904//EN"
 "http://www.w3.org/TR/2001/REC-SVG-20010904/DTD/svg10.dtd">
<svg version="1.0" xmlns="http://www.w3.org/2000/svg"
 width="32.000000pt" height="32.000000pt" viewBox="0 0 32.000000 32.000000"
 preserveAspectRatio="xMidYMid meet">
<metadata>
Created by potrace 1.16, written by Peter Selinger 2001-2019
</metadata>
<g transform="translate(0.000000,32.000000) scale(0.100000,-0.100000)"
fill="#000000" stroke="none">
<path fill="#000000" stroke="none" d="M0 160 l0 -160 160 0 160 0 0 160 0
160 -160 0 -160 0 0 -160z"/>
<path fill="#ffffff" stroke="none" d="M78 260 c-20 -27 -38 -39 -38 -25 0 6
52 54 58 55 1 0 -7 -13 -20 -30z"/>
<path fill="#ffffff" stroke="none" d="M160 260 c-10 -19 -50 -47 -50 -35 0 6
51 54 58 55 1 0 -2 -9 -8 -20z"/>
<path fill="#ffffff" stroke="none" d="M227 244 c-16 -14 -31 -24 -33 -21 -8
8 29 45 46 46 9 1 4 -9 -13 -25z"/>
<path fill="#ffffff" stroke="none" d="M281 232 c-12 -23 -40 -47 -46 -40 -5
5 43 58 52 58 2 0 -1 -8 -6 -18z"/>
<path fill="#ffffff" stroke="none" d="M168 170 c-21 -28 -38 -39 -38 -23 0 6
50 52 58 53 1 0 -7 -13 -20 -30z"/>
<path fill="#ffffff" stroke="none" d="M89 131 c-21 -29 -39 -40 -39 -24 0 10
53 64 58 59 2 -3 -6 -18 -19 -35z"/>
<path fill="#ffffff" stroke="none" d="M258 140 c-20 -27 -38 -39 -38 -25 0 6
52 54 58 55 1 0 -7 -13 -20 -30z"/>
<path fill="#ffffff" stroke="none" d="M145 85 c-14 -16 -29 -25 -33 -21 -4 4
6 19 22 32 37 32 45 24 11 -11z"/>
<path fill="#ffffff" stroke="none" d="M250 70 c-10 -19 -50 -47 -50 -35 0 6
51 54 58 55 1 0 -2 -9 -8 -20z"/>
</g>
</svg>
