<?xml version="1.0" standalone="no"?>
<!DOCTYPE svg PUBLIC "-//W3C//DTD SVG 20010904//EN"
 "http://www.w3.org/TR/2001/REC-SVG-20010904/DTD/svg10.dtd">
<svg version="1.0" xmlns="http://www.w3.org/2000/svg"
 width="32.000000pt" height="32.000000pt" viewBox="0 0 32.000000 32.000000"
 preserveAspectRatio="xMidYMid meet">
<metadata>
Created by potrace 1.16, written by Peter Selinger 2001-2019
</metadata>
<g transform="translate(0.000000,32.000000) scale(0.100000,-0.100000)"
fill="#000000" stroke="none">
<path fill="#000000" stroke="none" d="M0 160 l0 -160 160 0 160 0 0 160 0
160 -160 0 -160 0 0 -160z"/>
<path fill="#ffffff" stroke="none" d="M178 260 c0 -20 -4 -30 -14 -30 -14 0
-20 41 -7 53 13 14 20 6 21 -23z"/>
<path fill="#ffffff" stroke="none" d="M106 214 c-3 -9 -6 -21 -6 -27 0 -7 -5
-4 -11 6 -11 18 -5 37 13 37 5 0 7 -7 4 -16z"/>
<path fill="#ffffff" stroke="none" d="M290 193 c0 -7 -6 -13 -13 -13 -12 0
-14 17 -8 50 2 9 21 -25 21 -37z"/>
<path fill="#ffffff" stroke="none" d="M216 195 c-1 -14 -6 -28 -9 -31 -9 -10
-20 23 -13 41 9 24 25 17 22 -10z"/>
<path fill="#ffffff" stroke="none" d="M46 184 c-3 -9 -6 -23 -7 -32 -1 -10
-4 -7 -8 8 -9 28 -5 40 11 40 5 0 7 -7 4 -16z"/>
<path fill="#ffffff" stroke="none" d="M94 109 l-8 -24 -6 25 c-8 30 -2 46 12
32 6 -6 7 -20 2 -33z"/>
<path fill="#ffffff" stroke="none" d="M251 117 c-1 -4 -1 -17 -1 -29 0 -27
-5 -21 -14 15 -5 20 -3 28 4 25 6 -2 11 -7 11 -11z"/>
<path fill="#ffffff" stroke="none" d="M156 84 c-3 -9 -6 -21 -6 -27 0 -7 -5
-4 -11 6 -11 18 -5 37 13 37 5 0 7 -7 4 -16z"/>
<path fill="#ffffff" stroke="none" d="M205 50 c-5 -16 -9 -19 -15 -10 -11 17
0 54 12 42 6 -6 7 -20 3 -32z"/>
</g>
</svg>
