<?xml version="1.0" standalone="no"?>
<!DOCTYPE svg PUBLIC "-//W3C//DTD SVG 20010904//EN"
 "http://www.w3.org/TR/2001/REC-SVG-20010904/DTD/svg10.dtd">
<svg version="1.0" xmlns="http://www.w3.org/2000/svg"
 width="32.000000pt" height="32.000000pt" viewBox="0 0 32.000000 32.000000"
 preserveAspectRatio="xMidYMid meet">
<metadata>
Created by potrace 1.16, written by Peter Selinger 2001-2019
</metadata>
<g transform="translate(0.000000,32.000000) scale(0.100000,-0.100000)"
fill="#000000" stroke="none">
<path fill="#000000" stroke="none" d="M50 265 c-18 -19 -30 -38 -27 -42 8 -7
77 55 77 69 0 16 -17 7 -50 -27z"/>
<path fill="#000000" stroke="none" d="M180 255 c-44 -46 -35 -53 14 -11 22
18 35 36 29 39 -5 3 -25 -9 -43 -28z"/>
<path fill="#000000" stroke="none" d="M255 270 c-10 -11 -13 -20 -8 -20 13 0
38 29 31 35 -3 3 -13 -4 -23 -15z"/>
<path fill="#000000" stroke="none" d="M105 250 c-3 -5 -2 -10 4 -10 5 0 13 5
16 10 3 6 2 10 -4 10 -5 0 -13 -4 -16 -10z"/>
<path fill="#000000" stroke="none" d="M220 195 c-18 -19 -30 -38 -27 -42 8
-7 77 55 77 69 0 16 -17 7 -50 -27z"/>
<path fill="#000000" stroke="none" d="M55 190 c-16 -16 -25 -33 -22 -37 8 -7
67 45 67 59 0 16 -17 8 -45 -22z"/>
<path fill="#000000" stroke="none" d="M145 180 c-16 -16 -25 -33 -22 -37 8
-7 67 45 67 59 0 16 -17 8 -45 -22z"/>
<path fill="#000000" stroke="none" d="M99 173 c-13 -16 -12 -17 4 -4 9 7 17
15 17 17 0 8 -8 3 -21 -13z"/>
<path fill="#000000" stroke="none" d="M265 180 c-3 -5 -2 -10 4 -10 5 0 13 5
16 10 3 6 2 10 -4 10 -5 0 -13 -4 -16 -10z"/>
<path fill="#000000" stroke="none" d="M155 130 c-10 -11 -13 -20 -8 -20 13 0
38 29 31 35 -3 3 -13 -4 -23 -15z"/>
<path fill="#000000" stroke="none" d="M239 133 c-13 -16 -12 -17 4 -4 9 7 17
15 17 17 0 8 -8 3 -21 -13z"/>
<path fill="#000000" stroke="none" d="M60 115 c-13 -14 -20 -28 -17 -32 8 -7
57 35 57 49 0 15 -16 8 -40 -17z"/>
<path fill="#000000" stroke="none" d="M245 100 c-16 -16 -25 -33 -22 -37 8
-7 67 45 67 59 0 16 -17 8 -45 -22z"/>
<path fill="#000000" stroke="none" d="M170 85 c-18 -19 -30 -38 -27 -42 8 -7
77 55 77 69 0 16 -17 7 -50 -27z"/>
<path fill="#000000" stroke="none" d="M85 70 c-16 -16 -25 -33 -22 -37 8 -7
67 45 67 59 0 16 -17 8 -45 -22z"/>
<path fill="#000000" stroke="none" d="M259 43 c-13 -16 -12 -17 4 -4 9 7 17
15 17 17 0 8 -8 3 -21 -13z"/>
<path fill="#000000" stroke="none" d="M185 40 c-3 -5 -2 -10 4 -10 5 0 13 5
16 10 3 6 2 10 -4 10 -5 0 -13 -4 -16 -10z"/>
</g>
</svg>
