<?xml version="1.0" standalone="no"?>
<!DOCTYPE svg PUBLIC "-//W3C//DTD SVG 20010904//EN"
 "http://www.w3.org/TR/2001/REC-SVG-20010904/DTD/svg10.dtd">
<svg version="1.0" xmlns="http://www.w3.org/2000/svg"
 width="32.000000pt" height="32.000000pt" viewBox="0 0 32.000000 32.000000"
 preserveAspectRatio="xMidYMid meet">
<metadata>
Created by potrace 1.16, written by Peter Selinger 2001-2019
</metadata>
<g transform="translate(0.000000,32.000000) scale(0.100000,-0.100000)"
fill="#000000" stroke="none">
<path fill="#000000" stroke="none" d="M0 160 l0 -160 160 0 160 0 0 160 0
160 -160 0 -160 0 0 -160z"/>
<path fill="#ffffff" stroke="none" d="M150 269 c0 -6 -4 -7 -10 -4 -5 3 -10
11 -10 16 0 6 5 7 10 4 6 -3 10 -11 10 -16z"/>
<path fill="#ffffff" stroke="none" d="M235 260 c16 -16 25 -33 22 -37 -8 -7
-67 45 -67 59 0 16 17 8 45 -22z"/>
<path fill="#ffffff" stroke="none" d="M60 265 c20 -24 6 -28 -15 -5 -10 11
-13 20 -8 20 6 0 16 -7 23 -15z"/>
<path fill="#ffffff" stroke="none" d="M281 263 c13 -16 12 -17 -3 -4 -10 7
-18 15 -18 17 0 8 8 3 21 -13z"/>
<path fill="#ffffff" stroke="none" d="M140 235 c18 -19 30 -38 27 -42 -8 -7
-77 55 -77 69 0 16 17 7 50 -27z"/>
<path fill="#ffffff" stroke="none" d="M191 243 c13 -16 12 -17 -3 -4 -10 7
-18 15 -18 17 0 8 8 3 21 -13z"/>
<path fill="#ffffff" stroke="none" d="M104 151 c-8 -8 -73 62 -67 72 3 6 21
-7 39 -29 18 -21 31 -41 28 -43z"/>
<path fill="#ffffff" stroke="none" d="M250 185 c18 -19 30 -38 27 -42 -8 -7
-77 55 -77 69 0 16 17 7 50 -27z"/>
<path fill="#ffffff" stroke="none" d="M290 189 c0 -6 -4 -7 -10 -4 -5 3 -10
11 -10 16 0 6 5 7 10 4 6 -3 10 -11 10 -16z"/>
<path fill="#ffffff" stroke="none" d="M155 160 c16 -16 25 -33 22 -37 -8 -7
-67 45 -67 59 0 16 17 8 45 -22z"/>
<path fill="#ffffff" stroke="none" d="M200 165 c20 -24 6 -28 -15 -5 -10 11
-13 20 -8 20 6 0 16 -7 23 -15z"/>
<path fill="#ffffff" stroke="none" d="M80 109 c0 -6 -4 -7 -10 -4 -5 3 -10
11 -10 16 0 6 5 7 10 4 6 -3 10 -11 10 -16z"/>
<path fill="#ffffff" stroke="none" d="M265 100 c16 -16 25 -33 22 -37 -8 -7
-67 45 -67 59 0 16 17 8 45 -22z"/>
<path fill="#ffffff" stroke="none" d="M151 103 c13 -16 12 -17 -3 -4 -10 7
-18 15 -18 17 0 8 8 3 21 -13z"/>
<path fill="#ffffff" stroke="none" d="M70 65 c18 -19 30 -38 27 -42 -8 -7
-77 55 -77 69 0 16 17 7 50 -27z"/>
<path fill="#ffffff" stroke="none" d="M145 70 c16 -16 25 -33 22 -37 -8 -7
-67 45 -67 59 0 16 17 8 45 -22z"/>
<path fill="#ffffff" stroke="none" d="M220 75 c13 -14 20 -28 17 -32 -8 -7
-57 35 -57 49 0 15 16 8 40 -17z"/>
</g>
</svg>
