<?xml version="1.0" standalone="no"?>
<!DOCTYPE svg PUBLIC "-//W3C//DTD SVG 20010904//EN"
 "http://www.w3.org/TR/2001/REC-SVG-20010904/DTD/svg10.dtd">
<svg version="1.0" xmlns="http://www.w3.org/2000/svg"
 width="32.000000pt" height="32.000000pt" viewBox="0 0 32.000000 32.000000"
 preserveAspectRatio="xMidYMid meet">
<metadata>
Created by potrace 1.16, written by Peter Selinger 2001-2019
</metadata>
<g transform="translate(0.000000,32.000000) scale(0.100000,-0.100000)"
fill="#000000" stroke="none">
<path fill="#000000" stroke="none" d="M185 290 c-4 -6 3 -10 14 -10 25 0 27
6 6 13 -8 4 -17 2 -20 -3z"/>
<path fill="#000000" stroke="none" d="M83 253 c9 -2 25 -2 35 0 9 3 1 5 -18
5 -19 0 -27 -2 -17 -5z"/>
<path fill="#000000" stroke="none" d="M180 221 l-25 -7 24 -7 c26 -6 41 -2
41 14 0 10 -4 10 -40 0z"/>
<path fill="#000000" stroke="none" d="M46 213 c-14 -4 -15 -7 -6 -13 16 -10
52 -1 44 11 -5 9 -8 10 -38 2z"/>
<path fill="#000000" stroke="none" d="M230 172 c0 -9 47 -8 57 1 3 4 -8 7
-25 7 -18 0 -32 -4 -32 -8z"/>
<path fill="#000000" stroke="none" d="M63 153 c9 -2 23 -2 30 0 6 3 -1 5 -18
5 -16 0 -22 -2 -12 -5z"/>
<path fill="#000000" stroke="none" d="M193 103 c9 -2 23 -2 30 0 6 3 -1 5
-18 5 -16 0 -22 -2 -12 -5z"/>
<path fill="#000000" stroke="none" d="M103 93 c9 -2 25 -2 35 0 9 3 1 5 -18
5 -19 0 -27 -2 -17 -5z"/>
<path fill="#000000" stroke="none" d="M153 43 c9 -2 25 -2 35 0 9 3 1 5 -18
5 -19 0 -27 -2 -17 -5z"/>
</g>
</svg>
