<?xml version="1.0" standalone="no"?>
<!DOCTYPE svg PUBLIC "-//W3C//DTD SVG 20010904//EN"
 "http://www.w3.org/TR/2001/REC-SVG-20010904/DTD/svg10.dtd">
<svg version="1.0" xmlns="http://www.w3.org/2000/svg"
 width="32.000000pt" height="32.000000pt" viewBox="0 0 32.000000 32.000000"
 preserveAspectRatio="xMidYMid meet">
<metadata>
Created by potrace 1.16, written by Peter Selinger 2001-2019
</metadata>
<g transform="translate(0.000000,32.000000) scale(0.100000,-0.100000)"
fill="#000000" stroke="none">
<path fill="#000000" stroke="none" d="M0 160 l0 -160 160 0 160 0 0 160 0
160 -160 0 -160 0 0 -160z"/>
<path fill="#ffffff" stroke="none" d="M135 280 c3 -6 -4 -10 -17 -10 -18 0
-20 2 -8 10 19 12 18 12 25 0z"/>
<path fill="#ffffff" stroke="none" d="M238 243 c-10 -2 -26 -2 -35 0 -10 3
-2 5 17 5 19 0 27 -2 18 -5z"/>
<path fill="#ffffff" stroke="none" d="M148 209 c12 0 10 -3 -6 -10 -25 -10
-42 -5 -42 13 0 5 7 7 16 4 9 -3 23 -6 32 -7z"/>
<path fill="#ffffff" stroke="none" d="M283 200 c8 0 7 -3 -2 -9 -17 -11 -53
-2 -45 11 3 5 13 7 21 4 8 -3 20 -6 26 -6z"/>
<path fill="#ffffff" stroke="none" d="M90 167 c0 -15 -52 -15 -57 0 -2 5 10
10 27 11 17 0 30 -4 30 -11z"/>
<path fill="#ffffff" stroke="none" d="M263 150 c7 0 4 -5 -6 -11 -18 -11 -37
-5 -37 13 0 5 7 7 16 4 9 -3 21 -6 27 -6z"/>
<path fill="#ffffff" stroke="none" d="M133 100 c7 0 4 -5 -6 -11 -18 -11 -37
-5 -37 13 0 5 7 7 16 4 9 -3 21 -6 27 -6z"/>
<path fill="#ffffff" stroke="none" d="M218 83 c-10 -2 -26 -2 -35 0 -10 3 -2
5 17 5 19 0 27 -2 18 -5z"/>
<path fill="#ffffff" stroke="none" d="M168 33 c-10 -2 -26 -2 -35 0 -10 3 -2
5 17 5 19 0 27 -2 18 -5z"/>
</g>
</svg>
