<?xml version="1.0" standalone="no"?>
<!DOCTYPE svg PUBLIC "-//W3C//DTD SVG 20010904//EN"
 "http://www.w3.org/TR/2001/REC-SVG-20010904/DTD/svg10.dtd">
<svg version="1.0" xmlns="http://www.w3.org/2000/svg"
 width="32.000000pt" height="32.000000pt" viewBox="0 0 32.000000 32.000000"
 preserveAspectRatio="xMidYMid meet">
<metadata>
Created by potrace 1.16, written by Peter Selinger 2001-2019
</metadata>
<g transform="translate(0.000000,32.000000) scale(0.100000,-0.100000)"
fill="#000000" stroke="none">
<path fill="#000000" stroke="none" d="M190 287 c0 -2 15 -16 33 -33 l32 -29
-29 33 c-28 30 -36 37 -36 29z"/>
<path fill="#000000" stroke="none" d="M100 252 c0 -5 14 -19 31 -31 l31 -23
-23 31 c-22 30 -39 40 -39 23z"/>
<path fill="#000000" stroke="none" d="M40 215 c0 -6 50 -55 56 -55 2 0 -5 14
-18 30 -19 26 -38 39 -38 25z"/>
<path fill="#000000" stroke="none" d="M210 207 c0 -2 15 -16 33 -33 l32 -29
-29 33 c-28 30 -36 37 -36 29z"/>
<path fill="#000000" stroke="none" d="M120 171 c0 -5 12 -16 26 -26 l25 -16
-16 25 c-17 26 -35 34 -35 17z"/>
<path fill="#000000" stroke="none" d="M231 111 c7 -10 21 -24 32 -30 18 -12
18 -11 -2 18 -24 33 -49 44 -30 12z"/>
<path fill="#000000" stroke="none" d="M100 97 c0 -2 15 -16 33 -33 l32 -29
-29 33 c-28 30 -36 37 -36 29z"/>
<path fill="#000000" stroke="none" d="M30 87 c0 -2 15 -16 33 -33 l32 -29
-29 33 c-28 30 -36 37 -36 29z"/>
<path fill="#000000" stroke="none" d="M204 71 c20 -22 26 -25 26 -13 0 4 -10
13 -22 21 -23 14 -23 14 -4 -8z"/>
</g>
</svg>
