<?xml version="1.0" standalone="no"?>
<!DOCTYPE svg PUBLIC "-//W3C//DTD SVG 20010904//EN"
 "http://www.w3.org/TR/2001/REC-SVG-20010904/DTD/svg10.dtd">
<svg version="1.0" xmlns="http://www.w3.org/2000/svg"
 width="32.000000pt" height="32.000000pt" viewBox="0 0 32.000000 32.000000"
 preserveAspectRatio="xMidYMid meet">
<metadata>
Created by potrace 1.16, written by Peter Selinger 2001-2019
</metadata>
<g transform="translate(0.000000,32.000000) scale(0.100000,-0.100000)"
fill="#000000" stroke="none">
<path fill="#000000" stroke="none" d="M0 160 l0 -160 160 0 160 0 0 160 0
160 -160 0 -160 0 0 -160z"/>
<path fill="#ffffff" stroke="none" d="M170 208 c0 -5 -18 5 -40 23 -22 18
-37 36 -34 41 6 10 74 -49 74 -64z"/>
<path fill="#ffffff" stroke="none" d="M274 251 c39 -41 18 -44 -24 -4 -23 22
-30 33 -19 33 8 0 28 -13 43 -29z"/>
<path fill="#ffffff" stroke="none" d="M100 185 c18 -19 31 -37 28 -40 -7 -7
-56 32 -68 56 -17 30 3 22 40 -16z"/>
<path fill="#ffffff" stroke="none" d="M262 179 c16 -17 27 -33 25 -36 -6 -6
-67 47 -67 59 0 15 13 8 42 -23z"/>
<path fill="#ffffff" stroke="none" d="M179 164 c12 -14 20 -28 17 -31 -6 -6
-56 38 -56 50 0 15 17 6 39 -19z"/>
<path fill="#ffffff" stroke="none" d="M252 113 c10 -9 18 -23 18 -31 0 -12
-6 -10 -25 8 -38 35 -31 58 7 23z"/>
<path fill="#ffffff" stroke="none" d="M72 89 c16 -17 27 -33 25 -36 -6 -6
-67 47 -67 59 0 15 13 8 42 -23z"/>
<path fill="#ffffff" stroke="none" d="M154 71 c39 -41 18 -44 -24 -4 -23 22
-30 33 -19 33 8 0 28 -13 43 -29z"/>
<path fill="#ffffff" stroke="none" d="M227 68 c13 -12 23 -28 23 -37 0 -10
-9 -6 -30 14 -29 28 -38 45 -23 45 4 0 17 -10 30 -22z"/>
</g>
</svg>
