<?xml version="1.0" standalone="no"?>
<!DOCTYPE svg PUBLIC "-//W3C//DTD SVG 20010904//EN"
 "http://www.w3.org/TR/2001/REC-SVG-20010904/DTD/svg10.dtd">
<svg version="1.0" xmlns="http://www.w3.org/2000/svg"
 width="32.000000pt" height="32.000000pt" viewBox="0 0 32.000000 32.000000"
 preserveAspectRatio="xMidYMid meet">
<metadata>
Created by potrace 1.16, written by Peter Selinger 2001-2019
</metadata>
<g transform="translate(0.000000,32.000000) scale(0.100000,-0.100000)"
fill="#000000" stroke="none">
<path fill="#000000" stroke="none" d="M0 160 l0 -160 160 0 160 0 0 160 0
160 -160 0 -160 0 0 -160z"/>
<path fill="#ffffff" stroke="none" d="M164 238 c46 2 86 -52 86 -114 0 -33
-21 -94 -32 -94 -12 0 -9 13 7 34 22 29 18 43 -15 60 -29 14 -30 14 -36 -10
-3 -13 -10 -24 -15 -24 -13 0 -11 7 7 35 14 22 14 25 1 25 -8 0 -21 7 -28 16
-12 15 -15 14 -31 -6 -10 -13 -21 -20 -24 -17 -3 3 3 16 15 28 42 45 11 77
-39 40 -32 -23 -40 -26 -40 -12 0 13 93 51 110 44 8 -3 24 -5 34 -5z"/>
<path fill="#ffffff" stroke="none" d="M217 85 c-11 -23 -27 -34 -27 -18 0 6
30 43 36 43 1 0 -3 -11 -9 -25z"/>
<path fill="#000000" stroke="none" d="M131 200 c13 -27 26 -40 39 -40 11 0
20 4 20 9 0 14 -28 33 -39 27 -5 -4 -7 3 -3 16 3 14 2 19 -6 14 -7 -4 -12 -2
-12 3 0 6 -4 11 -9 11 -5 0 0 -18 10 -40z"/>
<path fill="#000000" stroke="none" d="M160 222 c0 -5 9 -17 20 -27 11 -10 20
-13 20 -7 0 6 -6 13 -12 16 -7 3 -2 3 12 0 24 -5 24 -4 6 10 -21 17 -46 21
-46 8z"/>
<path fill="#000000" stroke="none" d="M202 170 c-15 -24 -10 -36 18 -43 23
-6 27 8 5 17 -8 3 -15 11 -15 18 0 9 3 9 10 -2 5 -8 11 -12 14 -9 3 3 0 13 -7
22 -11 16 -13 16 -25 -3z"/>
</g>
</svg>
