<?xml version="1.0" standalone="no"?>
<!DOCTYPE svg PUBLIC "-//W3C//DTD SVG 20010904//EN"
 "http://www.w3.org/TR/2001/REC-SVG-20010904/DTD/svg10.dtd">
<svg version="1.0" xmlns="http://www.w3.org/2000/svg"
 width="32.000000pt" height="32.000000pt" viewBox="0 0 32.000000 32.000000"
 preserveAspectRatio="xMidYMid meet">
<metadata>
Created by potrace 1.16, written by Peter Selinger 2001-2019
</metadata>
<g transform="translate(0.000000,32.000000) scale(0.100000,-0.100000)"
fill="#000000" stroke="none">
<path fill="#000000" stroke="none" d="M0 160 l0 -160 160 0 160 0 0 160 0
160 -160 0 -160 0 0 -160z"/>
<path fill="#ffffff" stroke="none" d="M110 283 c0 -5 -7 -17 -15 -27 -22 -29
-18 -43 15 -60 29 -14 30 -14 36 10 3 13 10 24 15 24 13 0 11 -7 -7 -35 -14
-22 -14 -25 -1 -25 8 0 21 -7 28 -16 12 -15 15 -14 31 6 10 13 21 20 24 17 3
-3 -3 -16 -15 -28 -42 -45 -11 -77 39 -40 32 23 40 26 40 12 0 -16 -99 -52
-118 -43 -9 5 -22 7 -29 5 -35 -13 -83 53 -83 113 0 33 21 94 32 94 4 0 8 -3
8 -7z"/>
<path fill="#ffffff" stroke="none" d="M130 252 c0 -5 -9 -17 -20 -27 -19 -17
-19 -17 -7 9 12 25 27 35 27 18z"/>
<path fill="#000000" stroke="none" d="M80 194 c0 -2 9 -13 20 -24 18 -18 38
-11 26 9 -6 9 -46 22 -46 15z"/>
<path fill="#000000" stroke="none" d="M90 149 c7 -11 14 -19 16 -16 7 7 -7
37 -17 37 -6 0 -5 -9 1 -21z"/>
<path fill="#000000" stroke="none" d="M125 140 c-3 -11 -12 -20 -18 -20 -17
-1 24 -30 41 -30 7 0 12 6 9 13 -2 6 -13 11 -23 10 -10 -1 -13 0 -6 3 6 3 9
11 5 17 -4 7 0 6 10 -1 9 -8 20 -11 26 -8 5 4 7 -3 3 -16 -3 -14 -2 -19 6 -14
7 4 12 2 12 -3 0 -6 4 -11 9 -11 5 0 0 18 -10 40 -21 44 -53 54 -64 20z"/>
</g>
</svg>
