<?xml version="1.0" standalone="no"?>
<!DOCTYPE svg PUBLIC "-//W3C//DTD SVG 20010904//EN"
 "http://www.w3.org/TR/2001/REC-SVG-20010904/DTD/svg10.dtd">
<svg version="1.0" xmlns="http://www.w3.org/2000/svg"
 width="32.000000pt" height="32.000000pt" viewBox="0 0 32.000000 32.000000"
 preserveAspectRatio="xMidYMid meet">
<metadata>
Created by potrace 1.16, written by Peter Selinger 2001-2019
</metadata>
<g transform="translate(0.000000,32.000000) scale(0.100000,-0.100000)"
fill="#000000" stroke="none">
<path fill="#000000" stroke="none" d="M0 160 l0 -160 160 0 160 0 0 160 0
160 -160 0 -160 0 0 -160z"/>
<path fill="#ffffff" stroke="none" d="M143 268 c16 -6 39 -29 53 -54 23 -40
25 -47 14 -81 -14 -44 -43 -79 -82 -99 -31 -16 -38 -17 -38 -5 0 5 14 11 30
15 17 3 33 13 36 21 10 24 -2 29 -28 11 -25 -17 -38 -20 -38 -8 0 4 14 13 30
19 21 8 28 16 24 27 -5 12 -11 13 -24 6 -24 -13 -30 -13 -30 0 0 6 9 10 19 10
26 0 30 9 24 43 -5 24 -9 28 -29 23 -14 -4 -24 -2 -24 4 0 5 13 10 29 10 21 0
32 6 36 21 8 25 -8 39 -47 39 -16 0 -28 5 -28 11 0 11 21 7 73 -13z"/>
<path fill="#000000" stroke="none" d="M152 225 c-10 -21 -9 -25 3 -25 8 0 15
5 15 11 0 5 6 7 13 3 7 -5 7 -1 -3 12 -8 10 -15 20 -16 22 0 1 -6 -9 -12 -23z"/>
<path fill="#000000" stroke="none" d="M185 165 c2 -20 1 -34 -3 -31 -5 3 -14
1 -21 -3 -10 -7 -11 -13 -1 -31 6 -12 15 -18 20 -14 14 16 31 81 24 97 -11 30
-24 18 -19 -18z"/>
<path fill="#ffffff" stroke="none" d="M177 98 c-3 -7 -5 -2 -5 12 0 14 2 19
5 13 2 -7 2 -19 0 -25z"/>
<path fill="#000000" stroke="none" d="M140 181 c0 -20 13 -41 21 -35 15 9 10
44 -6 44 -8 0 -15 -4 -15 -9z"/>
</g>
</svg>
