<?xml version="1.0" standalone="no"?>
<!DOCTYPE svg PUBLIC "-//W3C//DTD SVG 20010904//EN"
 "http://www.w3.org/TR/2001/REC-SVG-20010904/DTD/svg10.dtd">
<svg version="1.0" xmlns="http://www.w3.org/2000/svg"
 width="32.000000pt" height="32.000000pt" viewBox="0 0 32.000000 32.000000"
 preserveAspectRatio="xMidYMid meet">
<metadata>
Created by potrace 1.16, written by Peter Selinger 2001-2019
</metadata>
<g transform="translate(0.000000,32.000000) scale(0.100000,-0.100000)"
fill="#000000" stroke="none">
<path fill="#000000" stroke="none" d="M157 223 c-2 -5 -3 -16 -1 -26 2 -18 2
-18 -17 -1 -10 9 -19 15 -20 13 0 -2 -2 -12 -4 -21 -2 -10 2 -16 8 -15 6 1 15
-7 21 -18 14 -26 26 -25 56 4 14 13 19 20 11 16 -11 -6 -13 -3 -8 14 5 19 3
20 -10 10 -12 -10 -16 -10 -23 1 -5 8 -6 18 -4 22 3 4 3 8 0 8 -3 0 -7 -3 -9
-7z"/>
</g>
</svg>
