<?xml version="1.0" standalone="no"?>
<!DOCTYPE svg PUBLIC "-//W3C//DTD SVG 20010904//EN"
 "http://www.w3.org/TR/2001/REC-SVG-20010904/DTD/svg10.dtd">
<svg version="1.0" xmlns="http://www.w3.org/2000/svg"
 width="32.000000pt" height="32.000000pt" viewBox="0 0 32.000000 32.000000"
 preserveAspectRatio="xMidYMid meet">
<metadata>
Created by potrace 1.16, written by Peter Selinger 2001-2019
</metadata>
<g transform="translate(0.000000,32.000000) scale(0.100000,-0.100000)"
fill="#000000" stroke="none">
<path fill="#000000" stroke="none" d="M92 271 c-11 -16 -24 -41 -28 -55 -3
-14 -10 -29 -15 -32 -5 -3 -9 -14 -9 -25 0 -11 -4 -17 -10 -14 -5 3 -10 -2
-10 -13 0 -21 46 -58 84 -68 14 -3 29 -10 32 -15 3 -5 14 -9 25 -9 11 0 17 -4
14 -10 -3 -5 3 -10 14 -10 22 0 56 43 66 83 4 15 11 30 16 33 5 3 9 14 9 25 0
11 5 17 10 14 6 -3 10 2 10 13 0 20 -41 55 -80 67 -14 4 -37 16 -52 26 -36 26
-51 24 -76 -10z"/>
<path fill="#ffffff" stroke="none" d="M176 169 c10 -17 -13 -36 -27 -22 -12
12 -4 33 11 33 5 0 12 -5 16 -11z"/>
</g>
</svg>
