<?xml version="1.0" standalone="no"?>
<!DOCTYPE svg PUBLIC "-//W3C//DTD SVG 20010904//EN"
 "http://www.w3.org/TR/2001/REC-SVG-20010904/DTD/svg10.dtd">
<svg version="1.0" xmlns="http://www.w3.org/2000/svg"
 width="32.000000pt" height="32.000000pt" viewBox="0 0 32.000000 32.000000"
 preserveAspectRatio="xMidYMid meet">
<metadata>
Created by potrace 1.16, written by Peter Selinger 2001-2019
</metadata>
<g transform="translate(0.000000,32.000000) scale(0.100000,-0.100000)"
fill="#000000" stroke="none">
<path fill="#000000" stroke="none" d="M0 160 l0 -160 160 0 160 0 0 160 0
160 -160 0 -160 0 0 -160z"/>
<path fill="#ffffff" stroke="none" d="M157 238 c-2 -7 4 -22 14 -34 19 -20
19 -21 -1 -39 -18 -16 -18 -20 -6 -34 13 -14 12 -19 -4 -39 -12 -14 -21 -18
-25 -12 -4 6 -2 17 4 24 8 10 7 17 -4 26 -14 12 -13 15 5 35 l20 22 -20 18
c-15 14 -17 21 -9 32 14 16 32 17 26 1z"/>
</g>
</svg>
