<?xml version="1.0" standalone="no"?>
<!DOCTYPE svg PUBLIC "-//W3C//DTD SVG 20010904//EN"
 "http://www.w3.org/TR/2001/REC-SVG-20010904/DTD/svg10.dtd">
<svg version="1.0" xmlns="http://www.w3.org/2000/svg"
 width="32.000000pt" height="32.000000pt" viewBox="0 0 32.000000 32.000000"
 preserveAspectRatio="xMidYMid meet">
<metadata>
Created by potrace 1.16, written by Peter Selinger 2001-2019
</metadata>
<g transform="translate(0.000000,32.000000) scale(0.100000,-0.100000)"
fill="#000000" stroke="none">
<path fill="#000000" stroke="none" d="M0 160 l0 -160 160 0 160 0 0 160 0
160 -160 0 -160 0 0 -160z"/>
<path fill="#ffffff" stroke="none" d="M150 181 c0 -16 29 -21 43 -7 11 11 17
10 35 -5 14 -11 18 -20 12 -24 -6 -4 -18 -1 -27 7 -13 10 -17 10 -20 1 -6 -18
-23 -16 -44 3 -16 15 -19 14 -35 -5 -13 -15 -21 -18 -31 -9 -17 14 -17 32 1
25 8 -3 20 1 26 9 14 15 40 19 40 5z"/>
</g>
</svg>
