<?xml version="1.0" standalone="no"?>
<!DOCTYPE svg PUBLIC "-//W3C//DTD SVG 20010904//EN"
 "http://www.w3.org/TR/2001/REC-SVG-20010904/DTD/svg10.dtd">
<svg version="1.0" xmlns="http://www.w3.org/2000/svg"
 width="32.000000pt" height="32.000000pt" viewBox="0 0 32.000000 32.000000"
 preserveAspectRatio="xMidYMid meet">
<metadata>
Created by potrace 1.16, written by Peter Selinger 2001-2019
</metadata>
<g transform="translate(0.000000,32.000000) scale(0.100000,-0.100000)"
fill="#000000" stroke="none">
<path fill="#000000" stroke="none" d="M0 160 l0 -160 160 0 160 0 0 160 0
160 -160 0 -160 0 0 -160z"/>
<path fill="#ffffff" stroke="none" d="M71 244 c11 -14 13 -14 21 0 11 19 44
21 51 4 3 -10 9 -10 26 0 27 16 50 15 57 -1 5 -15 39 -16 51 -2 5 4 2 5 -6 0
-9 -5 -12 -4 -7 3 12 20 24 13 22 -12 0 -13 -4 -22 -8 -20 -3 2 -9 -9 -13 -26
-4 -16 -13 -30 -21 -30 -8 0 -14 -7 -14 -15 0 -8 8 -15 18 -15 9 0 24 -5 32
-10 12 -7 7 -12 -20 -24 -33 -13 -33 -14 -10 -18 14 -3 -15 -5 -65 -5 -49 0
-85 2 -79 4 19 6 -6 60 -33 72 -23 11 -29 22 -16 34 3 4 14 0 23 -8 10 -9 21
-15 26 -14 5 1 17 -1 27 -6 14 -6 16 -10 6 -16 -10 -6 -9 -10 5 -15 11 -4 24
0 34 10 16 16 16 17 -3 10 -20 -7 -20 -7 0 9 10 8 24 13 30 11 6 -3 19 3 30
12 11 8 14 12 6 8 -11 -5 -13 -3 -8 9 8 21 -28 44 -39 25 -5 -7 -3 -8 6 -3 8
5 11 4 6 -3 -4 -6 -30 -9 -62 -8 -43 2 -54 0 -50 -11 8 -20 -2 -16 -31 15 -15
15 -23 20 -18 12 6 -12 5 -12 -5 -3 -13 12 -7 43 8 43 5 0 15 -7 23 -16z"/>
<path fill="#000000" stroke="none" d="M120 241 c0 -13 30 -22 51 -16 11 4 19
11 19 17 0 6 -6 5 -16 -3 -12 -10 -20 -10 -35 -1 -10 7 -19 8 -19 3z"/>
<path fill="#000000" stroke="none" d="M106 152 c-3 -5 1 -9 9 -9 8 0 12 4 9
9 -3 4 -7 8 -9 8 -2 0 -6 -4 -9 -8z"/>
<path fill="#000000" stroke="none" d="M110 126 c0 -44 63 -61 94 -27 17 19
17 19 -24 15 -24 -3 -48 0 -56 7 -8 6 -14 8 -14 5z"/>
</g>
</svg>
