<?xml version="1.0" standalone="no"?>
<!DOCTYPE svg PUBLIC "-//W3C//DTD SVG 20010904//EN"
 "http://www.w3.org/TR/2001/REC-SVG-20010904/DTD/svg10.dtd">
<svg version="1.0" xmlns="http://www.w3.org/2000/svg"
 width="32.000000pt" height="32.000000pt" viewBox="0 0 32.000000 32.000000"
 preserveAspectRatio="xMidYMid meet">
<metadata>
Created by potrace 1.16, written by Peter Selinger 2001-2019
</metadata>
<g transform="translate(0.000000,32.000000) scale(0.100000,-0.100000)"
fill="#000000" stroke="none">
<path fill="#000000" stroke="none" d="M22 242 c-3 -8 5 -22 17 -31 20 -16 21
-19 7 -30 -23 -20 -22 -101 2 -102 138 -8 206 -8 220 1 15 8 15 9 -2 10 -20 0
-20 0 0 15 18 13 17 14 -13 21 -35 7 -42 24 -18 44 8 7 13 16 10 20 -6 10 20
32 28 23 4 -3 7 6 7 20 0 28 -13 36 -26 15 -4 -7 -3 -8 4 -4 7 4 12 5 12 2 0
-7 -119 -96 -128 -96 -4 1 -25 17 -47 36 -22 20 -30 31 -18 25 12 -6 25 -16
28 -21 11 -19 63 -10 104 17 28 18 38 30 31 37 -6 6 -56 11 -111 11 -79 1
-102 -2 -107 -13z"/>
<path fill="#ffffff" stroke="none" d="M145 200 c17 0 29 7 35 23 5 13 9 16 9
6 1 -21 -19 -39 -44 -39 -25 0 -45 18 -44 40 0 9 4 6 9 -7 6 -16 18 -23 35
-23z"/>
<path fill="#ffffff" stroke="none" d="M92 120 c8 -25 14 -28 53 -26 24 0 41
-3 38 -8 -3 -4 -28 -5 -57 -2 -28 3 -59 6 -68 6 -14 0 -18 8 -18 34 0 30 3 33
21 29 12 -3 25 -18 31 -33z"/>
<path fill="#ffffff" stroke="none" d="M157 104 c-3 -3 -12 -4 -19 -1 -8 3 -5
6 6 6 11 1 17 -2 13 -5z"/>
</g>
</svg>
