<?xml version="1.0" standalone="no"?>
<!DOCTYPE svg PUBLIC "-//W3C//DTD SVG 20010904//EN"
 "http://www.w3.org/TR/2001/REC-SVG-20010904/DTD/svg10.dtd">
<svg version="1.0" xmlns="http://www.w3.org/2000/svg"
 width="32.000000pt" height="32.000000pt" viewBox="0 0 32.000000 32.000000"
 preserveAspectRatio="xMidYMid meet">
<metadata>
Created by potrace 1.16, written by Peter Selinger 2001-2019
</metadata>
<g transform="translate(0.000000,32.000000) scale(0.100000,-0.100000)"
fill="#000000" stroke="none">
<path fill="#000000" stroke="none" d="M0 160 l0 -160 160 0 160 0 0 160 0
160 -160 0 -160 0 0 -160z"/>
<path fill="#ffffff" stroke="none" d="M237 247 c6 -4 14 -3 18 3 11 19 25 10
25 -16 0 -14 -4 -23 -9 -19 -10 5 -24 -11 -27 -32 -1 -6 7 -13 17 -16 25 -7
28 -82 3 -91 -21 -8 -129 -8 -188 0 l-46 7 0 42 c0 27 6 47 16 56 14 11 13 14
-7 30 -44 33 -20 45 87 44 55 0 104 -4 111 -8z"/>
<path fill="#000000" stroke="none" d="M60 216 c0 -3 9 -10 20 -16 11 -6 20
-8 20 -6 0 3 -9 10 -20 16 -11 6 -20 8 -20 6z"/>
<path fill="#000000" stroke="none" d="M204 204 c-18 -14 -18 -15 4 -4 12 6
22 13 22 15 0 8 -5 6 -26 -11z"/>
<path fill="#000000" stroke="none" d="M138 193 c7 -3 16 -2 19 1 4 3 -2 6
-13 5 -11 0 -14 -3 -6 -6z"/>
<path fill="#000000" stroke="none" d="M120 174 c0 -1 6 -7 14 -13 10 -8 16
-8 24 2 9 10 6 13 -13 13 -14 0 -25 -1 -25 -2z"/>
<path fill="#000000" stroke="none" d="M62 125 c0 -16 2 -22 5 -12 2 9 2 23 0
30 -3 6 -5 -1 -5 -18z"/>
<path fill="#000000" stroke="none" d="M138 83 c7 -3 16 -2 19 1 4 3 -2 6 -13
5 -11 0 -14 -3 -6 -6z"/>
</g>
</svg>
