<?xml version="1.0" standalone="no"?>
<!DOCTYPE svg PUBLIC "-//W3C//DTD SVG 20010904//EN"
 "http://www.w3.org/TR/2001/REC-SVG-20010904/DTD/svg10.dtd">
<svg version="1.0" xmlns="http://www.w3.org/2000/svg"
 width="32.000000pt" height="32.000000pt" viewBox="0 0 32.000000 32.000000"
 preserveAspectRatio="xMidYMid meet">
<metadata>
Created by potrace 1.16, written by Peter Selinger 2001-2019
</metadata>
<g transform="translate(0.000000,32.000000) scale(0.100000,-0.100000)"
fill="#000000" stroke="none">
<path fill="#000000" stroke="none" d="M0 160 l0 -160 160 0 160 0 0 160 0
160 -160 0 -160 0 0 -160z"/>
<path fill="#ffffff" stroke="none" d="M98 284 c-9 -9 16 -52 43 -73 22 -17
84 -37 102 -33 4 1 5 -8 2 -21 -3 -12 1 -40 10 -61 14 -33 14 -38 2 -33 -8 3
-18 3 -22 -1 -4 -4 -17 -7 -28 -7 -13 0 -21 -6 -19 -13 1 -9 -6 -11 -25 -6
-38 9 -44 14 -37 26 4 6 -3 5 -16 -2 -13 -7 -20 -8 -16 -2 3 6 2 13 -3 16 -5
4 -12 2 -16 -4 -4 -6 -10 -8 -14 -5 -5 2 0 30 10 62 11 31 15 59 11 62 -5 3
-12 21 -15 40 -7 34 5 61 26 61 6 0 8 -3 5 -6z"/>
<path fill="#000000" stroke="none" d="M87 146 c-4 -10 -1 -13 9 -9 15 6 19
23 5 23 -5 0 -11 -7 -14 -14z"/>
<path fill="#000000" stroke="none" d="M122 148 c2 -6 10 -14 16 -16 7 -2 10
2 6 12 -7 18 -28 22 -22 4z"/>
<path fill="#000000" stroke="none" d="M175 140 c-3 -5 -2 -10 4 -10 5 0 13 5
16 10 3 6 2 10 -4 10 -5 0 -13 -4 -16 -10z"/>
<path fill="#000000" stroke="none" d="M200 120 c0 -5 5 -10 10 -10 6 0 10 5
10 10 0 6 -4 10 -10 10 -5 0 -10 -4 -10 -10z"/>
<path fill="#000000" stroke="none" d="M170 110 c0 -5 5 -10 10 -10 6 0 10 5
10 10 0 6 -4 10 -10 10 -5 0 -10 -4 -10 -10z"/>
<path fill="#000000" stroke="none" d="M140 100 c0 -5 5 -10 10 -10 6 0 10 5
10 10 0 6 -4 10 -10 10 -5 0 -10 -4 -10 -10z"/>
<path fill="#000000" stroke="none" d="M220 90 c0 -5 5 -10 11 -10 5 0 7 5 4
10 -3 6 -8 10 -11 10 -2 0 -4 -4 -4 -10z"/>
<path fill="#000000" stroke="none" d="M190 80 c0 -5 5 -10 11 -10 5 0 7 5 4
10 -3 6 -8 10 -11 10 -2 0 -4 -4 -4 -10z"/>
</g>
</svg>
