<?xml version="1.0" standalone="no"?>
<!DOCTYPE svg PUBLIC "-//W3C//DTD SVG 20010904//EN"
 "http://www.w3.org/TR/2001/REC-SVG-20010904/DTD/svg10.dtd">
<svg version="1.0" xmlns="http://www.w3.org/2000/svg"
 width="32.000000pt" height="32.000000pt" viewBox="0 0 32.000000 32.000000"
 preserveAspectRatio="xMidYMid meet">
<metadata>
Created by potrace 1.16, written by Peter Selinger 2001-2019
</metadata>
<g transform="translate(0.000000,32.000000) scale(0.100000,-0.100000)"
fill="#000000" stroke="none">
<path fill="#000000" stroke="none" d="M73 290 c-25 -10 -30 -39 -11 -58 9 -9
9 -12 0 -12 -10 0 -10 -5 -2 -20 8 -16 6 -24 -10 -40 -18 -18 -20 -31 -18 -83
l3 -62 112 -3 c126 -3 163 9 163 54 0 20 -5 24 -30 24 -26 0 -30 3 -26 22 3
13 7 56 10 96 6 71 5 73 -21 83 -40 15 -58 8 -58 -24 0 -32 -28 -55 -42 -35
-4 7 -8 24 -8 38 0 28 -24 36 -62 20z"/>
<path fill="#ffffff" stroke="none" d="M92 227 c-8 -17 -35 21 -28 39 6 16 8
16 20 -6 7 -14 11 -29 8 -33z"/>
<path fill="#ffffff" stroke="none" d="M260 256 c0 -16 -24 -38 -32 -30 -8 7
15 53 24 48 5 -3 8 -11 8 -18z"/>
<path fill="#ffffff" stroke="none" d="M160 217 c8 0 24 4 35 8 16 6 15 2 -7
-21 l-28 -29 -27 29 c-23 23 -24 27 -8 21 11 -4 27 -8 35 -8z"/>
<path fill="#ffffff" stroke="none" d="M73 145 c-3 -9 -8 -14 -10 -11 -3 3 -2
9 2 15 9 16 15 13 8 -4z"/>
<path fill="#ffffff" stroke="none" d="M148 142 c16 16 42 -8 42 -37 0 -29
-33 -71 -48 -61 -7 4 -12 21 -12 38 l0 30 -19 -23 c-14 -18 -23 -21 -31 -13
-8 8 -5 21 11 49 19 32 24 35 34 22 9 -12 15 -13 23 -5z"/>
</g>
</svg>
