<?xml version="1.0" standalone="no"?>
<!DOCTYPE svg PUBLIC "-//W3C//DTD SVG 20010904//EN"
 "http://www.w3.org/TR/2001/REC-SVG-20010904/DTD/svg10.dtd">
<svg version="1.0" xmlns="http://www.w3.org/2000/svg"
 width="32.000000pt" height="32.000000pt" viewBox="0 0 32.000000 32.000000"
 preserveAspectRatio="xMidYMid meet">
<metadata>
Created by potrace 1.16, written by Peter Selinger 2001-2019
</metadata>
<g transform="translate(0.000000,32.000000) scale(0.100000,-0.100000)"
fill="#000000" stroke="none">
<path fill="#000000" stroke="none" d="M72 289 c-26 -10 -28 -35 -5 -69 16
-24 16 -24 0 -11 -10 8 -20 11 -23 8 -3 -3 -6 -49 -7 -104 l-2 -98 112 -3
c126 -3 163 9 163 54 0 20 -5 24 -29 24 -29 0 -30 1 -24 38 3 20 11 40 16 44
12 7 2 97 -13 112 -12 12 -159 16 -188 5z"/>
<path fill="#ffffff" stroke="none" d="M83 251 c3 -14 1 -18 -9 -14 -15 6 -18
16 -7 26 9 10 10 9 16 -12z"/>
<path fill="#ffffff" stroke="none" d="M200 260 c0 -5 -8 -7 -17 -3 -16 6 -16
4 1 -16 20 -22 20 -22 -2 -43 -20 -21 -22 -21 -40 -5 -10 10 -19 31 -20 47 -1
28 1 30 39 30 21 0 39 -4 39 -10z"/>
<path fill="#ffffff" stroke="none" d="M260 250 c0 -4 -6 -10 -14 -13 -10 -4
-12 0 -9 14 5 18 23 18 23 -1z"/>
<path fill="#000000" stroke="none" d="M134 248 c-4 -7 -4 -10 1 -6 4 4 14 0
21 -10 16 -21 17 -32 3 -32 -5 0 -8 4 -4 9 3 5 1 12 -4 15 -16 11 -22 -11 -6
-24 12 -10 18 -10 30 0 12 10 12 15 -2 36 -17 27 -28 30 -39 12z"/>
</g>
</svg>
