<?xml version="1.0" standalone="no"?>
<!DOCTYPE svg PUBLIC "-//W3C//DTD SVG 20010904//EN"
 "http://www.w3.org/TR/2001/REC-SVG-20010904/DTD/svg10.dtd">
<svg version="1.0" xmlns="http://www.w3.org/2000/svg"
 width="32.000000pt" height="32.000000pt" viewBox="0 0 32.000000 32.000000"
 preserveAspectRatio="xMidYMid meet">
<metadata>
Created by potrace 1.16, written by Peter Selinger 2001-2019
</metadata>
<g transform="translate(0.000000,32.000000) scale(0.100000,-0.100000)"
fill="#000000" stroke="none">
<path fill="#000000" stroke="none" d="M0 160 l0 -160 160 0 160 0 0 160 0
160 -160 0 -160 0 0 -160z"/>
<path fill="#ffffff" stroke="none" d="M260 284 c15 -15 25 -105 13 -112 -5
-4 -13 -24 -16 -44 -6 -37 -5 -38 24 -38 24 0 29 -4 29 -24 0 -45 -37 -57
-163 -54 l-112 3 2 98 c1 55 4 101 7 104 3 3 13 0 23 -8 16 -13 16 -13 0 11
-23 34 -21 59 5 69 29 11 176 7 188 -5z"/>
<path fill="#000000" stroke="none" d="M67 263 c-11 -10 -8 -20 7 -26 10 -4
12 0 9 14 -6 21 -7 22 -16 12z"/>
<path fill="#000000" stroke="none" d="M122 240 c1 -16 10 -37 20 -47 18 -16
20 -16 40 5 22 21 22 21 2 43 -17 20 -17 22 -1 16 9 -4 17 -2 17 3 0 6 -18 10
-39 10 -38 0 -40 -2 -39 -30z"/>
<path fill="#ffffff" stroke="none" d="M173 236 c14 -21 14 -26 2 -36 -12 -10
-18 -10 -30 0 -16 13 -10 35 6 24 5 -3 7 -10 4 -15 -4 -5 -1 -9 4 -9 14 0 13
11 -3 32 -7 10 -17 14 -21 10 -5 -4 -5 -1 -1 6 11 18 22 15 39 -12z"/>
<path fill="#000000" stroke="none" d="M237 251 c-3 -14 -1 -18 9 -14 16 6 18
19 5 27 -5 3 -11 -3 -14 -13z"/>
</g>
</svg>
