<?xml version="1.0" standalone="no"?>
<!DOCTYPE svg PUBLIC "-//W3C//DTD SVG 20010904//EN"
 "http://www.w3.org/TR/2001/REC-SVG-20010904/DTD/svg10.dtd">
<svg version="1.0" xmlns="http://www.w3.org/2000/svg"
 width="32.000000pt" height="32.000000pt" viewBox="0 0 32.000000 32.000000"
 preserveAspectRatio="xMidYMid meet">
<metadata>
Created by potrace 1.16, written by Peter Selinger 2001-2019
</metadata>
<g transform="translate(0.000000,32.000000) scale(0.100000,-0.100000)"
fill="#000000" stroke="none">
<path fill="#000000" stroke="none" d="M0 160 l0 -160 160 0 160 0 0 160 0
160 -160 0 -160 0 0 -160z"/>
<path fill="#ffffff" stroke="none" d="M140 288 c15 -9 24 -9 43 1 18 10 33
11 54 4 28 -10 28 -11 25 -84 -1 -41 -5 -84 -7 -97 -5 -19 -1 -22 25 -22 25 0
30 -4 30 -24 0 -45 -37 -57 -163 -54 l-112 3 -1 64 c-1 50 3 68 17 82 20 20
25 64 9 74 -18 11 -10 45 13 55 31 12 44 12 67 -2z"/>
<path fill="#000000" stroke="none" d="M82 279 c-32 -12 -25 -40 15 -60 18 -9
40 -22 48 -29 13 -10 19 -10 33 2 9 8 30 19 45 26 30 13 45 38 31 52 -5 5 -22
11 -39 14 l-30 6 28 -11 c35 -14 31 -29 -16 -52 -35 -16 -39 -16 -74 0 -46 23
-51 38 -16 51 15 6 21 10 13 11 -8 0 -25 -4 -38 -10z"/>
<path fill="#000000" stroke="none" d="M81 199 c-1 -9 -10 -28 -21 -42 -24
-31 -26 -51 -4 -43 13 5 14 3 6 -7 -8 -10 -6 -16 8 -25 11 -7 23 -12 27 -11 5
0 10 -10 13 -23 12 -49 80 -19 80 35 0 10 4 16 9 12 6 -3 15 3 21 12 10 16 11
16 5 -2 -16 -48 -17 -50 -1 -31 20 25 32 104 17 119 -8 8 -11 7 -11 -3 0 -13
-2 -13 -9 -1 -7 11 -10 9 -16 -8 -4 -14 -11 -19 -18 -14 -7 5 -21 8 -32 8 -11
0 -25 6 -32 15 -10 13 -13 13 -19 -5 -8 -19 -9 -18 -15 5 -4 14 -7 18 -8 9z"/>
<path fill="#000000" stroke="none" d="M40 28 c0 -4 12 -8 27 -8 14 0 23 3 19
7 -10 10 -46 11 -46 1z"/>
</g>
</svg>
