<?xml version="1.0" standalone="no"?>
<!DOCTYPE svg PUBLIC "-//W3C//DTD SVG 20010904//EN"
 "http://www.w3.org/TR/2001/REC-SVG-20010904/DTD/svg10.dtd">
<svg version="1.0" xmlns="http://www.w3.org/2000/svg"
 width="32.000000pt" height="32.000000pt" viewBox="0 0 32.000000 32.000000"
 preserveAspectRatio="xMidYMid meet">
<metadata>
Created by potrace 1.16, written by Peter Selinger 2001-2019
</metadata>
<g transform="translate(0.000000,32.000000) scale(0.100000,-0.100000)"
fill="#000000" stroke="none">
<path fill="#000000" stroke="none" d="M2 158 c2 -162 2 -162 5 -35 l4 127
154 0 155 0 0 35 0 35 -160 0 -160 0 2 -162z"/>
<path fill="#000000" stroke="none" d="M120 224 c-7 -7 -9 -18 -6 -23 4 -5 2
-12 -4 -16 -5 -3 -10 -12 -10 -18 0 -7 4 -6 10 3 5 8 10 11 10 5 0 -5 5 -3 10
5 8 12 10 11 7 -5 -1 -11 -6 -26 -11 -34 -7 -11 -10 -11 -17 0 -7 11 -9 11 -9
1 0 -8 -5 -10 -12 -6 -9 6 -9 3 1 -9 10 -13 17 -14 33 -6 15 8 19 8 14 0 -4
-6 -2 -11 3 -11 10 0 15 14 12 33 -1 5 3 6 9 2 8 -5 8 23 0 45 -2 3 -2 9 -1
14 1 5 -8 6 -19 3 -14 -3 -20 -1 -17 6 2 7 16 13 30 15 21 3 26 0 21 -12 -3
-9 -1 -16 5 -16 7 0 10 -10 7 -25 -3 -13 -2 -24 2 -22 4 1 8 -2 8 -8 1 -5 -3
-8 -10 -7 -6 2 -8 0 -3 -4 28 -28 64 -2 52 37 -5 14 -1 19 14 19 27 0 34 15
16 33 -19 20 -130 21 -145 1z"/>
<path fill="#ffffff" stroke="none" d="M255 220 c7 -11 4 -12 -37 -14 -29 -2
-38 8 -15 17 21 9 46 7 52 -3z"/>
<path fill="#ffffff" stroke="none" d="M217 180 c-1 -20 -9 -25 -20 -13 -4 3
-2 12 4 20 15 18 18 17 16 -7z"/>
<path fill="#000000" stroke="none" d="M250 162 c0 -10 -7 -27 -15 -39 -13
-19 -19 -21 -40 -11 -34 15 -39 7 -24 -41 14 -46 19 -47 77 -8 21 15 30 27 26
37 -4 8 -9 26 -11 40 -4 21 -3 22 7 10 10 -13 11 -12 6 3 -3 10 -6 21 -6 23 0
2 -4 4 -10 4 -5 0 -10 -8 -10 -18z"/>
<path fill="#000000" stroke="none" d="M36 107 c-21 -16 -18 -79 5 -85 11 -3
11 -2 1 6 -11 7 -11 10 2 15 9 4 16 13 16 20 0 8 7 20 15 27 33 28 -3 43 -39
17z"/>
<path fill="#000000" stroke="none" d="M82 88 c-29 -29 -2 -68 46 -68 31 0 43
22 29 50 -14 28 -55 38 -75 18z"/>
<path fill="#000000" stroke="none" d="M99 7 c5 -5 19 -7 32 -5 20 3 19 5 -9
9 -20 3 -29 2 -23 -4z"/>
</g>
</svg>
