<?xml version="1.0" standalone="no"?>
<!DOCTYPE svg PUBLIC "-//W3C//DTD SVG 20010904//EN"
 "http://www.w3.org/TR/2001/REC-SVG-20010904/DTD/svg10.dtd">
<svg version="1.0" xmlns="http://www.w3.org/2000/svg"
 width="32.000000pt" height="32.000000pt" viewBox="0 0 32.000000 32.000000"
 preserveAspectRatio="xMidYMid meet">
<metadata>
Created by potrace 1.16, written by Peter Selinger 2001-2019
</metadata>
<g transform="translate(0.000000,32.000000) scale(0.100000,-0.100000)"
fill="#000000" stroke="none">
<path fill="#000000" stroke="none" d="M0 200 l0 -120 28 12 c15 7 33 16 39
21 13 10 13 77 1 77 -14 0 -9 74 6 103 l15 27 -45 0 -44 0 0 -120z"/>
<path fill="#000000" stroke="none" d="M132 300 c14 -22 24 -25 33 -10 11 17
35 11 62 -16 18 -18 29 -22 36 -15 6 6 17 11 25 11 12 0 14 -15 8 -89 -5 -74
-4 -90 9 -95 13 -5 15 11 15 114 l0 120 -100 0 c-98 0 -100 -1 -88 -20z"/>
<path fill="#000000" stroke="none" d="M74 248 c-4 -6 -2 -14 4 -16 7 -2 9 -9
6 -14 -4 -6 -2 -8 4 -5 5 4 8 16 5 27 -6 23 -9 24 -19 8z"/>
<path fill="#000000" stroke="none" d="M174 218 c-4 -6 -2 -14 4 -16 7 -2 9
-9 6 -14 -4 -6 -2 -8 4 -5 5 4 8 16 5 27 -6 23 -9 24 -19 8z"/>
<path fill="#000000" stroke="none" d="M240 226 c0 -2 8 -10 18 -17 15 -13 16
-12 3 4 -13 16 -21 21 -21 13z"/>
<path fill="#000000" stroke="none" d="M159 93 c-13 -16 -12 -17 4 -4 16 13
21 21 13 21 -2 0 -10 -8 -17 -17z"/>
<path fill="#000000" stroke="none" d="M30 69 c0 -5 5 -7 10 -4 6 3 10 8 10
11 0 2 -4 4 -10 4 -5 0 -10 -5 -10 -11z"/>
<path fill="#000000" stroke="none" d="M259 63 c-13 -16 -12 -17 4 -4 16 13
21 21 13 21 -2 0 -10 -8 -17 -17z"/>
<path fill="#000000" stroke="none" d="M28 43 c7 -3 16 -2 19 1 4 3 -2 6 -13
5 -11 0 -14 -3 -6 -6z"/>
<path fill="#000000" stroke="none" d="M130 39 c0 -5 5 -7 10 -4 6 3 10 8 10
11 0 2 -4 4 -10 4 -5 0 -10 -5 -10 -11z"/>
<path fill="#000000" stroke="none" d="M0 15 c0 -11 12 -15 50 -15 38 0 50 4
50 15 0 11 -12 15 -50 15 -38 0 -50 -4 -50 -15z"/>
<path fill="#000000" stroke="none" d="M128 13 c7 -3 16 -2 19 1 4 3 -2 6 -13
5 -11 0 -14 -3 -6 -6z"/>
</g>
</svg>
