<?xml version="1.0" standalone="no"?>
<!DOCTYPE svg PUBLIC "-//W3C//DTD SVG 20010904//EN"
 "http://www.w3.org/TR/2001/REC-SVG-20010904/DTD/svg10.dtd">
<svg version="1.0" xmlns="http://www.w3.org/2000/svg"
 width="32.000000pt" height="32.000000pt" viewBox="0 0 32.000000 32.000000"
 preserveAspectRatio="xMidYMid meet">
<metadata>
Created by potrace 1.16, written by Peter Selinger 2001-2019
</metadata>
<g transform="translate(0.000000,32.000000) scale(0.100000,-0.100000)"
fill="#000000" stroke="none">
<path fill="#000000" stroke="none" d="M77 273 c-4 -3 -7 -13 -7 -22 1 -13 3
-13 11 2 11 19 8 33 -4 20z"/>
<path fill="#000000" stroke="none" d="M197 269 c-17 -10 -24 -39 -9 -39 8 0
35 40 30 45 -2 2 -11 -1 -21 -6z"/>
<path fill="#000000" stroke="none" d="M100 261 c0 -9 24 -21 41 -21 5 0 9 7
9 15 0 9 -9 15 -25 15 -14 0 -25 -4 -25 -9z"/>
<path fill="#000000" stroke="none" d="M235 260 c4 -6 11 -8 16 -5 14 9 11 15
-7 15 -8 0 -12 -5 -9 -10z"/>
<path fill="#000000" stroke="none" d="M85 230 c-3 -6 1 -7 9 -4 18 7 21 14 7
14 -6 0 -13 -4 -16 -10z"/>
<path fill="#000000" stroke="none" d="M221 214 c7 -8 6 -14 -3 -17 -11 -4
-10 -6 0 -6 8 -1 10 -6 5 -13 -11 -19 -13 -39 -1 -32 5 3 8 -2 6 -11 -2 -10 4
-20 12 -22 13 -4 13 -3 0 6 -12 8 -12 11 -1 11 10 0 11 3 2 14 -9 10 -9 16 -1
21 8 5 8 11 -1 21 -9 11 -8 14 2 14 12 0 12 2 0 9 -11 7 -11 9 0 14 8 3 4 4
-8 4 -16 -1 -19 -5 -12 -13z"/>
<path fill="#000000" stroke="none" d="M99 198 c8 -11 9 -18 3 -18 -6 0 -10
-9 -9 -19 1 -12 6 -17 16 -13 11 4 11 7 3 10 -9 3 -10 8 -2 17 7 9 5 16 -7 26
-16 13 -17 12 -4 -3z"/>
<path fill="#000000" stroke="none" d="M85 121 c-6 -11 13 -26 22 -17 4 3 0 6
-8 6 -11 0 -11 2 1 10 9 6 10 10 3 10 -6 0 -14 -4 -18 -9z"/>
</g>
</svg>
