<?xml version="1.0" standalone="no"?>
<!DOCTYPE svg PUBLIC "-//W3C//DTD SVG 20010904//EN"
 "http://www.w3.org/TR/2001/REC-SVG-20010904/DTD/svg10.dtd">
<svg version="1.0" xmlns="http://www.w3.org/2000/svg"
 width="32.000000pt" height="32.000000pt" viewBox="0 0 32.000000 32.000000"
 preserveAspectRatio="xMidYMid meet">
<metadata>
Created by potrace 1.16, written by Peter Selinger 2001-2019
</metadata>
<g transform="translate(0.000000,32.000000) scale(0.100000,-0.100000)"
fill="#000000" stroke="none">
<path fill="#000000" stroke="none" d="M0 160 l0 -160 160 0 160 0 0 160 0
160 -160 0 -160 0 0 -160z"/>
<path fill="#ffffff" stroke="none" d="M139 264 c-11 -14 -9 -15 17 -12 16 2
28 8 27 15 -2 7 4 10 12 7 8 -4 12 -11 8 -17 -4 -6 0 -8 11 -4 19 8 56 -24 56
-49 0 -8 5 -12 10 -9 17 10 11 -12 -7 -26 -12 -10 -15 -10 -9 -1 4 7 0 19 -8
28 -9 8 -16 12 -16 8 0 -3 -6 -1 -14 5 -10 9 -17 7 -27 -6 -12 -15 -12 -16 1
-8 8 4 4 -4 -10 -19 -19 -21 -22 -29 -11 -35 9 -6 5 -10 -13 -13 -16 -3 -31 1
-38 10 -10 12 -10 14 -1 9 8 -5 8 1 -2 20 -11 21 -11 30 -2 41 9 11 8 17 -6
27 -23 16 -21 24 6 35 31 12 31 12 16 -6z"/>
<path fill="#ffffff" stroke="none" d="M96 227 c1 -10 -6 -22 -17 -28 -11 -5
-17 -15 -14 -22 4 -7 -1 -3 -9 7 -11 13 -16 15 -16 6 0 -7 -3 -11 -6 -7 -8 8
38 68 50 64 5 -2 10 -11 12 -20z"/>
<path fill="#ffffff" stroke="none" d="M137 114 c-3 -3 -12 -4 -19 -1 -8 3 -5
6 6 6 11 1 17 -2 13 -5z"/>
<path fill="#ffffff" stroke="none" d="M168 109 c-2 -6 7 -12 19 -14 13 -1 26
-5 30 -10 5 -4 0 -5 -9 -2 -12 4 -15 2 -11 -8 3 -8 10 -12 16 -8 6 4 7 1 2 -7
-6 -10 -3 -12 11 -7 18 7 18 7 0 -8 -25 -19 -45 -19 -51 0 -16 51 -16 51 -30
18 -15 -36 -23 -39 -49 -20 -16 12 -16 14 4 35 11 12 27 22 35 22 8 0 15 5 15
10 0 6 5 10 10 10 6 0 9 -5 8 -11z"/>
</g>
</svg>
