<?xml version="1.0" standalone="no"?>
<!DOCTYPE svg PUBLIC "-//W3C//DTD SVG 20010904//EN"
 "http://www.w3.org/TR/2001/REC-SVG-20010904/DTD/svg10.dtd">
<svg version="1.0" xmlns="http://www.w3.org/2000/svg"
 width="32.000000pt" height="32.000000pt" viewBox="0 0 32.000000 32.000000"
 preserveAspectRatio="xMidYMid meet">
<metadata>
Created by potrace 1.16, written by Peter Selinger 2001-2019
</metadata>
<g transform="translate(0.000000,32.000000) scale(0.100000,-0.100000)"
fill="#000000" stroke="none">
<path fill="#000000" stroke="none" d="M0 160 l0 -160 160 0 160 0 0 160 0
160 -160 0 -160 0 0 -160z"/>
<path fill="#ffffff" stroke="none" d="M245 229 c3 -10 12 -20 20 -23 8 -3 15
-10 15 -16 0 -5 -9 -2 -21 8 -67 55 -63 51 -40 49 12 -1 23 -9 26 -18z"/>
<path fill="#ffffff" stroke="none" d="M80 220 c0 -5 -9 -14 -21 -20 -19 -11
-20 -10 -9 9 11 22 30 29 30 11z"/>
<path fill="#ffffff" stroke="none" d="M181 222 c3 -1 6 -9 6 -17 0 -24 -24
-25 -46 -1 l-22 23 28 -2 c15 -1 31 -3 34 -3z"/>
<path fill="#ffffff" stroke="none" d="M139 62 c-12 -36 -17 -38 -45 -17 -13
10 -14 13 -3 10 10 -4 22 4 33 20 22 34 29 27 15 -13z"/>
<path fill="#ffffff" stroke="none" d="M195 50 c-3 -5 1 -11 7 -13 8 -4 7 -6
-4 -6 -9 -1 -20 12 -27 31 -11 31 -11 31 9 13 11 -10 17 -21 15 -25z"/>
</g>
</svg>
