<?xml version="1.0" standalone="no"?>
<!DOCTYPE svg PUBLIC "-//W3C//DTD SVG 20010904//EN"
 "http://www.w3.org/TR/2001/REC-SVG-20010904/DTD/svg10.dtd">
<svg version="1.0" xmlns="http://www.w3.org/2000/svg"
 width="32.000000pt" height="32.000000pt" viewBox="0 0 32.000000 32.000000"
 preserveAspectRatio="xMidYMid meet">
<metadata>
Created by potrace 1.16, written by Peter Selinger 2001-2019
</metadata>
<g transform="translate(0.000000,32.000000) scale(0.100000,-0.100000)"
fill="#000000" stroke="none">
<path fill="#000000" stroke="none" d="M112 253 c-7 -3 -20 -19 -29 -36 -18
-36 -54 -189 -42 -181 7 4 17 46 35 140 5 28 42 74 59 74 7 0 21 -7 29 -16 9
-8 16 -11 16 -5 0 20 -41 35 -68 24z"/>
<path fill="#000000" stroke="none" d="M129 199 l-24 -20 28 17 c15 9 27 18
27 20 0 8 -8 4 -31 -17z"/>
<path fill="#000000" stroke="none" d="M160 173 c0 -10 79 -78 84 -72 1 2 -17
21 -41 43 -24 21 -43 34 -43 29z"/>
<path fill="#000000" stroke="none" d="M170 127 c24 -26 45 -47 47 -47 12 0
-16 34 -50 60 l-42 33 45 -46z"/>
<path fill="#000000" stroke="none" d="M160 92 c11 -23 23 -42 25 -42 7 0 -17
53 -32 70 -7 8 -4 -4 7 -28z"/>
</g>
</svg>
