<?xml version="1.0" standalone="no"?>
<!DOCTYPE svg PUBLIC "-//W3C//DTD SVG 20010904//EN"
 "http://www.w3.org/TR/2001/REC-SVG-20010904/DTD/svg10.dtd">
<svg version="1.0" xmlns="http://www.w3.org/2000/svg"
 width="32.000000pt" height="32.000000pt" viewBox="0 0 32.000000 32.000000"
 preserveAspectRatio="xMidYMid meet">
<metadata>
Created by potrace 1.16, written by Peter Selinger 2001-2019
</metadata>
<g transform="translate(0.000000,32.000000) scale(0.100000,-0.100000)"
fill="#000000" stroke="none">
<path fill="#000000" stroke="none" d="M82 257 c-6 -7 -10 -32 -9 -56 2 -23
-1 -45 -5 -47 -11 -7 -10 -41 1 -48 4 -3 6 6 3 21 -4 19 -2 24 8 18 9 -5 11
-4 6 3 -4 7 -2 12 3 12 6 0 11 -8 12 -17 0 -12 2 -13 6 -5 3 7 -3 22 -12 32
-9 10 -15 25 -12 32 3 8 8 4 14 -11 6 -14 13 -20 16 -14 4 6 -3 23 -14 38 -16
20 -19 29 -10 38 8 8 11 6 11 -8 0 -11 7 -29 15 -39 11 -14 12 -23 4 -33 -7
-8 -7 -13 -2 -13 6 0 9 -12 7 -27 -4 -27 -3 -27 4 -3 6 18 16 26 36 28 34 4
32 -17 -5 -35 -15 -8 -18 -13 -8 -13 19 0 55 37 46 47 -4 3 -2 12 4 20 10 11
14 10 24 -3 17 -25 36 -9 25 20 -5 13 -6 26 -4 29 3 3 1 15 -6 26 -11 22 -44
28 -55 11 -3 -5 -19 -10 -35 -10 -16 0 -32 5 -35 10 -8 14 -20 13 -33 -3z"/>
<path fill="#ffffff" stroke="none" d="M217 213 c-11 -10 -26 8 -20 23 5 15 7
14 15 -1 6 -9 7 -19 5 -22z"/>
<path fill="#ffffff" stroke="none" d="M168 224 c-9 -9 -21 -13 -27 -10 -20
13 -11 26 16 26 25 0 26 -1 11 -16z"/>
<path fill="#ffffff" stroke="none" d="M177 206 c-4 -11 -1 -13 10 -9 11 4 14
2 11 -8 -6 -17 -48 -21 -48 -5 0 11 19 36 28 36 2 0 2 -7 -1 -14z"/>
<path fill="#ffffff" stroke="none" d="M243 170 c-7 -8 -22 24 -16 34 4 5 10
1 13 -10 4 -10 6 -21 3 -24z"/>
<path fill="#000000" stroke="none" d="M210 135 c0 -21 11 -45 22 -45 5 0 6 5
3 10 -3 6 -1 10 5 10 6 0 10 7 8 17 -4 19 -38 27 -38 8z"/>
<path fill="#ffffff" stroke="none" d="M232 118 c-7 -7 -12 -8 -12 -2 0 14 12
26 19 19 2 -3 -1 -11 -7 -17z"/>
<path fill="#000000" stroke="none" d="M182 98 c-13 -13 -17 -68 -4 -68 14 0
32 23 31 40 0 8 -5 4 -11 -10 l-11 -25 -5 23 c-2 13 2 30 8 38 15 17 9 19 -8
2z"/>
<path fill="#000000" stroke="none" d="M101 84 c-1 -12 6 -27 14 -34 13 -11
15 -8 14 21 -2 29 -3 30 -7 9 l-5 -25 -8 25 c-6 22 -7 23 -8 4z"/>
</g>
</svg>
