<?xml version="1.0" standalone="no"?>
<!DOCTYPE svg PUBLIC "-//W3C//DTD SVG 20010904//EN"
 "http://www.w3.org/TR/2001/REC-SVG-20010904/DTD/svg10.dtd">
<svg version="1.0" xmlns="http://www.w3.org/2000/svg"
 width="32.000000pt" height="32.000000pt" viewBox="0 0 32.000000 32.000000"
 preserveAspectRatio="xMidYMid meet">
<metadata>
Created by potrace 1.16, written by Peter Selinger 2001-2019
</metadata>
<g transform="translate(0.000000,32.000000) scale(0.100000,-0.100000)"
fill="#000000" stroke="none">
<path fill="#000000" stroke="none" d="M82 257 c-6 -7 -10 -32 -9 -56 2 -23
-1 -45 -5 -47 -11 -7 -10 -41 1 -48 4 -3 6 6 3 21 -4 19 -2 24 8 18 9 -5 11
-4 6 3 -4 7 -2 12 3 12 6 0 11 -6 11 -14 0 -7 6 -19 14 -25 8 -7 11 -22 8 -39
l-6 -27 -7 25 c-6 22 -7 23 -8 4 -1 -12 6 -27 14 -34 13 -11 15 -8 15 19 0 24
6 34 23 40 28 11 51 37 43 49 -3 6 0 15 8 21 17 14 30 -11 14 -27 -12 -12 -2
-62 13 -62 6 0 8 4 5 9 -4 5 0 11 6 14 10 3 10 9 1 25 -10 17 -9 21 4 26 10 4
13 12 8 24 -4 9 -8 26 -9 38 -2 11 -6 26 -10 32 -9 15 -43 16 -51 2 -3 -5 -19
-10 -35 -10 -16 0 -32 5 -35 10 -8 14 -20 13 -33 -3z"/>
<path fill="#ffffff" stroke="none" d="M117 204 c10 -16 11 -24 2 -29 -7 -5
-8 -10 -1 -14 7 -4 8 -12 2 -21 -8 -13 -10 -13 -10 -1 0 8 -7 22 -16 32 -9 10
-14 24 -11 31 3 8 8 4 14 -11 6 -14 13 -20 16 -14 4 6 -3 22 -14 37 -12 15
-17 31 -12 38 5 9 9 7 11 -7 3 -10 11 -29 19 -41z"/>
<path fill="#ffffff" stroke="none" d="M217 213 c-11 -10 -26 8 -20 23 5 15 7
14 15 -1 6 -9 7 -19 5 -22z"/>
<path fill="#ffffff" stroke="none" d="M168 224 c-9 -9 -21 -13 -27 -10 -20
13 -11 26 16 26 25 0 26 -1 11 -16z"/>
<path fill="#ffffff" stroke="none" d="M177 206 c-4 -11 -1 -13 10 -9 11 4 14
2 11 -8 -6 -17 -48 -21 -48 -5 0 11 19 36 28 36 2 0 2 -7 -1 -14z"/>
<path fill="#ffffff" stroke="none" d="M243 170 c-7 -8 -22 24 -16 34 4 5 10
1 13 -10 4 -10 6 -21 3 -24z"/>
<path fill="#ffffff" stroke="none" d="M188 148 c-6 -18 -52 -40 -56 -27 -2 5
-1 16 2 24 7 18 60 21 54 3z"/>
<path fill="#ffffff" stroke="none" d="M233 119 c-9 -9 -12 -7 -10 9 1 14 5
18 11 12 7 -7 6 -14 -1 -21z"/>
<path fill="#000000" stroke="none" d="M182 98 c-13 -13 -17 -68 -4 -68 14 0
32 23 31 40 0 8 -5 4 -11 -10 l-11 -25 -5 23 c-2 13 2 30 8 38 15 17 9 19 -8
2z"/>
</g>
</svg>
