<?xml version="1.0" standalone="no"?>
<!DOCTYPE svg PUBLIC "-//W3C//DTD SVG 20010904//EN"
 "http://www.w3.org/TR/2001/REC-SVG-20010904/DTD/svg10.dtd">
<svg version="1.0" xmlns="http://www.w3.org/2000/svg"
 width="32.000000pt" height="32.000000pt" viewBox="0 0 32.000000 32.000000"
 preserveAspectRatio="xMidYMid meet">
<metadata>
Created by potrace 1.16, written by Peter Selinger 2001-2019
</metadata>
<g transform="translate(0.000000,32.000000) scale(0.100000,-0.100000)"
fill="#000000" stroke="none">
<path fill="#000000" stroke="none" d="M0 160 l0 -160 160 0 160 0 0 160 0
160 -160 0 -160 0 0 -160z"/>
<path fill="#ffffff" stroke="none" d="M115 260 c3 -5 19 -10 35 -10 16 0 32
5 35 10 11 17 44 11 55 -11 7 -11 9 -23 6 -26 -3 -3 0 -15 6 -26 8 -16 7 -23
-8 -34 -10 -7 -13 -13 -7 -13 16 0 36 28 28 40 -9 14 18 13 33 -2 25 -25 2
-108 -30 -108 -6 0 -20 -7 -30 -17 -14 -13 -18 -13 -18 -2 0 8 9 20 20 27 11
7 20 22 19 35 -1 21 -1 21 -8 -2 -4 -14 -12 -26 -18 -28 -14 -5 -28 40 -18 56
13 21 -6 10 -30 -16 -18 -21 -24 -39 -23 -68 l1 -40 4 40 c8 71 42 82 43 13 0
-28 -31 -58 -61 -58 -14 0 -16 7 -12 38 4 29 1 41 -17 57 -18 16 -23 17 -30 5
-5 -8 -6 -19 -2 -25 3 -5 -2 -4 -11 4 -18 14 -23 46 -9 55 4 2 7 24 5 47 -3
53 23 90 42 59z"/>
<path fill="#ffffff" stroke="none" d="M130 68 c0 -26 -2 -29 -15 -18 -8 7
-15 26 -15 42 0 26 2 29 15 18 8 -7 15 -26 15 -42z"/>
</g>
</svg>
