<?xml version="1.0" standalone="no"?>
<!DOCTYPE svg PUBLIC "-//W3C//DTD SVG 20010904//EN"
 "http://www.w3.org/TR/2001/REC-SVG-20010904/DTD/svg10.dtd">
<svg version="1.0" xmlns="http://www.w3.org/2000/svg"
 width="32.000000pt" height="32.000000pt" viewBox="0 0 32.000000 32.000000"
 preserveAspectRatio="xMidYMid meet">
<metadata>
Created by potrace 1.16, written by Peter Selinger 2001-2019
</metadata>
<g transform="translate(0.000000,32.000000) scale(0.100000,-0.100000)"
fill="#000000" stroke="none">
<path fill="#000000" stroke="none" d="M39 269 c-31 -31 -19 -66 29 -85 1 -1
7 -15 12 -32 6 -22 5 -31 -2 -29 -13 2 -44 -70 -34 -80 3 -4 13 2 20 13 14 18
15 18 25 -9 16 -41 36 -43 70 -5 l29 33 25 -24 c44 -41 67 0 23 43 -21 22 -39
53 -36 66 0 3 14 3 31 2 16 -2 37 2 45 8 20 17 18 74 -4 93 -22 20 -35 21 -79
5 -28 -10 -38 -9 -62 5 -38 23 -67 21 -92 -4z"/>
</g>
</svg>
