<?xml version="1.0" standalone="no"?>
<!DOCTYPE svg PUBLIC "-//W3C//DTD SVG 20010904//EN"
 "http://www.w3.org/TR/2001/REC-SVG-20010904/DTD/svg10.dtd">
<svg version="1.0" xmlns="http://www.w3.org/2000/svg"
 width="32.000000pt" height="32.000000pt" viewBox="0 0 32.000000 32.000000"
 preserveAspectRatio="xMidYMid meet">
<metadata>
Created by potrace 1.16, written by Peter Selinger 2001-2019
</metadata>
<g transform="translate(0.000000,32.000000) scale(0.100000,-0.100000)"
fill="#000000" stroke="none">
<path fill="#000000" stroke="none" d="M195 270 c3 -5 8 -10 11 -10 2 0 4 5 4
10 0 6 -5 10 -11 10 -5 0 -7 -4 -4 -10z"/>
<path fill="#000000" stroke="none" d="M114 249 c-14 -16 -16 -23 -6 -26 10
-4 10 -8 2 -19 -13 -15 -4 -38 11 -28 5 3 7 9 4 14 -3 4 1 12 8 18 16 12 46
12 44 -2 -1 -5 3 -10 10 -11 14 0 28 -13 28 -27 0 -6 6 -13 13 -15 16 -6 15
12 -3 46 -8 16 -11 32 -7 36 4 3 2 6 -3 5 -23 -5 -36 1 -29 12 4 7 -9 2 -29
-9 -40 -24 -61 -14 -25 11 12 9 18 16 12 16 -6 0 -19 -10 -30 -21z"/>
<path fill="#000000" stroke="none" d="M225 250 c3 -5 8 -10 11 -10 2 0 4 5 4
10 0 6 -5 10 -11 10 -5 0 -7 -4 -4 -10z"/>
<path fill="#000000" stroke="none" d="M245 220 c3 -5 8 -10 11 -10 2 0 4 5 4
10 0 6 -5 10 -11 10 -5 0 -7 -4 -4 -10z"/>
<path fill="#000000" stroke="none" d="M265 190 c3 -5 8 -10 11 -10 2 0 4 5 4
10 0 6 -5 10 -11 10 -5 0 -7 -4 -4 -10z"/>
<path fill="#000000" stroke="none" d="M45 150 c-10 -11 -22 -17 -26 -14 -5 3
-9 0 -9 -6 0 -14 29 -70 36 -70 2 0 0 9 -6 19 -12 23 -3 54 13 44 6 -4 7 -1 2
7 -6 10 -4 12 8 7 10 -4 17 -1 17 6 0 8 4 7 9 -3 6 -8 7 -19 4 -25 -3 -5 0 -5
6 1 10 9 10 17 2 33 -15 26 -33 27 -56 1z"/>
</g>
</svg>
