<?xml version="1.0" standalone="no"?>
<!DOCTYPE svg PUBLIC "-//W3C//DTD SVG 20010904//EN"
 "http://www.w3.org/TR/2001/REC-SVG-20010904/DTD/svg10.dtd">
<svg version="1.0" xmlns="http://www.w3.org/2000/svg"
 width="32.000000pt" height="32.000000pt" viewBox="0 0 32.000000 32.000000"
 preserveAspectRatio="xMidYMid meet">
<metadata>
Created by potrace 1.16, written by Peter Selinger 2001-2019
</metadata>
<g transform="translate(0.000000,32.000000) scale(0.100000,-0.100000)"
fill="#000000" stroke="none">
<path fill="#000000" stroke="none" d="M253 313 c-7 -2 -13 -9 -13 -14 0 -13
22 -10 44 6 20 15 20 15 0 14 -10 0 -25 -3 -31 -6z"/>
<path fill="#000000" stroke="none" d="M190 262 c-43 -47 -69 -66 -66 -49 1 8
8 22 14 30 7 9 9 18 4 21 -15 9 -42 -29 -49 -68 -5 -33 -2 -41 28 -72 38 -39
45 -41 72 -17 15 13 18 14 12 3 -4 -8 15 7 43 34 28 27 48 54 45 59 -3 6 -16
-2 -28 -17 -13 -16 -25 -24 -28 -19 -4 6 7 23 23 38 16 15 27 32 24 37 -3 4
-19 -6 -36 -22 -17 -17 -33 -28 -36 -25 -3 3 9 20 26 38 18 18 30 36 26 40 -3
3 -16 -4 -28 -17 -11 -12 -30 -26 -41 -30 -13 -4 -9 3 13 21 17 16 32 32 32
36 0 16 -27 5 -50 -21z"/>
<path fill="#000000" stroke="none" d="M98 119 c24 -23 41 -44 38 -47 -3 -3
-6 -2 -6 3 0 4 -7 1 -16 -6 -14 -11 -16 -10 -14 6 4 34 1 38 -17 24 -15 -13
-16 -12 -11 8 7 27 -7 39 -26 24 -7 -6 -16 -8 -19 -4 -4 3 -7 1 -7 -7 0 -22
76 -90 101 -90 18 0 20 3 10 9 -11 7 -10 12 7 22 21 13 21 14 -20 56 -23 24
-47 43 -53 43 -5 0 9 -19 33 -41z"/>
</g>
</svg>
