<?xml version="1.0" standalone="no"?>
<!DOCTYPE svg PUBLIC "-//W3C//DTD SVG 20010904//EN"
 "http://www.w3.org/TR/2001/REC-SVG-20010904/DTD/svg10.dtd">
<svg version="1.0" xmlns="http://www.w3.org/2000/svg"
 width="32.000000pt" height="32.000000pt" viewBox="0 0 32.000000 32.000000"
 preserveAspectRatio="xMidYMid meet">
<metadata>
Created by potrace 1.16, written by Peter Selinger 2001-2019
</metadata>
<g transform="translate(0.000000,32.000000) scale(0.100000,-0.100000)"
fill="#000000" stroke="none">
<path fill="#000000" stroke="none" d="M0 160 l0 -160 160 0 160 0 0 160 0
160 -160 0 -160 0 0 -160z"/>
<path fill="#ffffff" stroke="none" d="M115 230 c3 -5 1 -10 -4 -10 -6 0 -11
5 -11 10 0 6 2 10 4 10 3 0 8 -4 11 -10z"/>
<path fill="#ffffff" stroke="none" d="M260 220 c0 -5 -2 -10 -4 -10 -3 0 -8
5 -11 10 -3 6 -1 10 4 10 6 0 11 -4 11 -10z"/>
<path fill="#ffffff" stroke="none" d="M226 198 c10 -13 12 -17 4 -10 -11 10
-20 6 -49 -20 -19 -18 -29 -25 -21 -15 12 16 12 20 -1 29 -12 8 -12 9 1 5 20
-6 52 11 45 24 -11 17 2 9 21 -13z"/>
<path fill="#ffffff" stroke="none" d="M168 124 c2 -1 -8 -4 -21 -6 -20 -4
-23 -1 -19 14 4 15 7 16 21 6 9 -7 17 -13 19 -14z"/>
<path fill="#ffffff" stroke="none" d="M138 94 c2 -1 -8 -4 -21 -6 -20 -4 -23
-1 -19 14 4 15 7 16 21 6 9 -7 17 -13 19 -14z"/>
<path fill="#ffffff" stroke="none" d="M93 62 c-10 -2 -22 -8 -28 -13 -5 -5
-14 -9 -20 -9 -5 0 -2 5 8 11 9 5 17 17 17 25 0 12 3 12 20 2 19 -12 19 -13 3
-16z"/>
<path fill="#ffffff" stroke="none" d="M59 23 c2 -2 -5 -3 -17 -3 -14 0 -22 6
-22 16 0 14 3 15 18 3 9 -7 19 -15 21 -16z"/>
</g>
</svg>
