<?xml version="1.0" standalone="no"?>
<!DOCTYPE svg PUBLIC "-//W3C//DTD SVG 20010904//EN"
 "http://www.w3.org/TR/2001/REC-SVG-20010904/DTD/svg10.dtd">
<svg version="1.0" xmlns="http://www.w3.org/2000/svg"
 width="32.000000pt" height="32.000000pt" viewBox="0 0 32.000000 32.000000"
 preserveAspectRatio="xMidYMid meet">
<metadata>
Created by potrace 1.16, written by Peter Selinger 2001-2019
</metadata>
<g transform="translate(0.000000,32.000000) scale(0.100000,-0.100000)"
fill="#000000" stroke="none">
<path fill="#000000" stroke="none" d="M0 160 l0 -160 160 0 160 0 0 160 0
160 -160 0 -160 0 0 -160z"/>
<path fill="#ffffff" stroke="none" d="M178 289 l37 -18 -35 6 c-19 3 -39 9
-45 13 -5 4 -35 6 -67 6 -31 -1 -54 2 -52 5 9 15 125 7 162 -12z"/>
<path fill="#ffffff" stroke="none" d="M211 219 c16 -18 27 -34 24 -38 -3 -3
-10 1 -15 9 -6 8 -10 11 -10 6 0 -5 -6 -3 -13 3 -8 6 -18 7 -22 3 -5 -4 -5 -2
-1 5 3 6 2 14 -4 18 -5 3 -10 10 -10 16 0 18 22 8 51 -22z"/>
<path fill="#ffffff" stroke="none" d="M180 163 c0 -11 -3 -14 -8 -7 -4 6 -14
14 -22 17 -10 4 -8 6 8 6 15 1 22 -5 22 -16z"/>
<path fill="#ffffff" stroke="none" d="M42 118 c-7 -7 -12 -8 -12 -2 0 14 12
26 19 19 2 -3 -1 -11 -7 -17z"/>
<path fill="#ffffff" stroke="none" d="M95 100 c10 -11 16 -20 13 -20 -3 0
-13 9 -23 20 -10 11 -16 20 -13 20 3 0 13 -9 23 -20z"/>
<path fill="#ffffff" stroke="none" d="M45 64 c9 -15 12 -23 6 -20 -11 7 -35
46 -28 46 3 0 12 -12 22 -26z"/>
<path fill="#000000" stroke="none" d="M185 220 c10 -11 20 -20 23 -20 3 0 -3
9 -13 20 -10 11 -20 20 -23 20 -3 0 3 -9 13 -20z"/>
</g>
</svg>
