<?xml version="1.0" standalone="no"?>
<!DOCTYPE svg PUBLIC "-//W3C//DTD SVG 20010904//EN"
 "http://www.w3.org/TR/2001/REC-SVG-20010904/DTD/svg10.dtd">
<svg version="1.0" xmlns="http://www.w3.org/2000/svg"
 width="32.000000pt" height="32.000000pt" viewBox="0 0 32.000000 32.000000"
 preserveAspectRatio="xMidYMid meet">
<metadata>
Created by potrace 1.16, written by Peter Selinger 2001-2019
</metadata>
<g transform="translate(0.000000,32.000000) scale(0.100000,-0.100000)"
fill="#000000" stroke="none">
<path fill="#000000" stroke="none" d="M0 189 c0 -96 3 -128 12 -123 7 5 8 3
2 -7 -5 -8 -10 -24 -12 -36 l-3 -23 161 0 160 0 0 160 0 160 -160 0 -160 0 0
-131z"/>
<path fill="#ffffff" stroke="none" d="M173 292 c20 -9 37 -20 37 -26 0 -6 -5
-5 -12 2 -7 7 -22 12 -34 12 -13 0 -25 4 -28 9 -3 4 -32 7 -65 7 -33 -1 -58 2
-55 5 8 14 119 7 157 -9z"/>
<path fill="#ffffff" stroke="none" d="M185 250 c-6 -10 9 -15 30 -10 5 1 7
-2 3 -6 -4 -4 2 -22 13 -41 12 -19 19 -37 16 -40 -4 -3 -12 6 -18 20 -7 15
-15 24 -20 22 -4 -3 -10 -1 -14 5 -4 6 -12 7 -18 4 -7 -4 -9 -4 -5 1 4 4 3 15
-4 22 -9 11 -9 17 3 24 18 11 22 11 14 -1z"/>
<path fill="#ffffff" stroke="none" d="M240 250 c0 -5 -2 -10 -4 -10 -3 0 -8
5 -11 10 -3 6 -1 10 4 10 6 0 11 -4 11 -10z"/>
<path fill="#ffffff" stroke="none" d="M115 230 c3 -5 1 -10 -4 -10 -6 0 -11
5 -11 10 0 6 2 10 4 10 3 0 8 -4 11 -10z"/>
<path fill="#ffffff" stroke="none" d="M260 220 c0 -5 -2 -10 -4 -10 -3 0 -8
5 -11 10 -3 6 -1 10 4 10 6 0 11 -4 11 -10z"/>
<path fill="#ffffff" stroke="none" d="M280 190 c0 -5 -2 -10 -4 -10 -3 0 -8
5 -11 10 -3 6 -1 10 4 10 6 0 11 -4 11 -10z"/>
<path fill="#ffffff" stroke="none" d="M179 148 c-2 -30 -2 -30 -6 -6 -4 24
-10 27 -46 31 l-42 4 48 1 47 2 -1 -32z"/>
<path fill="#ffffff" stroke="none" d="M42 118 c-7 -7 -12 -8 -12 -2 0 14 12
26 19 19 2 -3 -1 -11 -7 -17z"/>
<path fill="#ffffff" stroke="none" d="M90 108 c15 -21 17 -28 6 -19 -16 13
-41 51 -33 51 2 0 14 -15 27 -32z"/>
<path fill="#ffffff" stroke="none" d="M54 50 c6 -9 1 -5 -11 8 -13 13 -23 28
-23 35 0 7 6 3 12 -8 6 -11 16 -27 22 -35z"/>
<path fill="#000000" stroke="none" d="M185 220 c10 -11 20 -20 23 -20 3 0 -3
9 -13 20 -10 11 -20 20 -23 20 -3 0 3 -9 13 -20z"/>
</g>
</svg>
