<?xml version="1.0" standalone="no"?>
<!DOCTYPE svg PUBLIC "-//W3C//DTD SVG 20010904//EN"
 "http://www.w3.org/TR/2001/REC-SVG-20010904/DTD/svg10.dtd">
<svg version="1.0" xmlns="http://www.w3.org/2000/svg"
 width="32.000000pt" height="32.000000pt" viewBox="0 0 32.000000 32.000000"
 preserveAspectRatio="xMidYMid meet">
<metadata>
Created by potrace 1.16, written by Peter Selinger 2001-2019
</metadata>
<g transform="translate(0.000000,32.000000) scale(0.100000,-0.100000)"
fill="#000000" stroke="none">
<path fill="#000000" stroke="none" d="M22 297 c-12 -13 -22 -36 -22 -53 0
-43 19 -104 33 -104 8 0 7 -3 -2 -9 -8 -5 -11 -16 -8 -26 4 -9 12 -13 17 -10
7 4 9 -2 4 -19 -5 -20 -2 -26 10 -26 10 0 16 -9 16 -25 0 -25 0 -25 98 -25
111 0 152 13 152 48 0 12 -4 22 -9 22 -15 0 -21 43 -8 58 6 8 12 45 14 83 2
59 0 71 -15 76 -9 3 -25 13 -34 21 -15 12 -20 12 -39 -2 -17 -11 -26 -13 -36
-4 -9 7 -17 7 -28 -2 -12 -10 -18 -10 -30 0 -11 9 -19 10 -28 1 -10 -8 -19 -7
-33 4 -25 19 -27 19 -52 -8z"/>
<path fill="#ffffff" stroke="none" d="M80 177 c0 -7 -6 -21 -13 -32 -13 -16
-14 -15 -9 13 4 31 22 46 22 19z"/>
<path fill="#ffffff" stroke="none" d="M250 186 c0 -3 -4 -8 -10 -11 -5 -3
-10 -1 -10 4 0 6 5 11 10 11 6 0 10 -2 10 -4z"/>
<path fill="#ffffff" stroke="none" d="M290 180 c0 -5 -4 -10 -10 -10 -5 0
-10 5 -10 10 0 6 5 10 10 10 6 0 10 -4 10 -10z"/>
<path fill="#ffffff" stroke="none" d="M247 134 c-3 -3 -12 -4 -19 -1 -8 3 -5
6 6 6 11 1 17 -2 13 -5z"/>
<path fill="#ffffff" stroke="none" d="M270 110 c0 -5 -2 -10 -4 -10 -3 0 -8
5 -11 10 -3 6 -1 10 4 10 6 0 11 -4 11 -10z"/>
<path fill="#ffffff" stroke="none" d="M160 64 c0 -8 -5 -12 -10 -9 -6 4 -8
11 -5 16 9 14 15 11 15 -7z"/>
</g>
</svg>
