<?xml version="1.0" standalone="no"?>
<!DOCTYPE svg PUBLIC "-//W3C//DTD SVG 20010904//EN"
 "http://www.w3.org/TR/2001/REC-SVG-20010904/DTD/svg10.dtd">
<svg version="1.0" xmlns="http://www.w3.org/2000/svg"
 width="32.000000pt" height="32.000000pt" viewBox="0 0 32.000000 32.000000"
 preserveAspectRatio="xMidYMid meet">
<metadata>
Created by potrace 1.16, written by Peter Selinger 2001-2019
</metadata>
<g transform="translate(0.000000,32.000000) scale(0.100000,-0.100000)"
fill="#000000" stroke="none">
<path fill="#000000" stroke="none" d="M0 160 l0 -161 44 2 c25 2 43 6 40 11
-3 4 6 18 18 31 27 27 27 57 0 35 -13 -12 -14 -10 -3 10 7 14 8 22 2 22 -10 0
-14 -11 -25 -70 -3 -14 -3 -4 -2 23 3 40 1 47 -15 47 -22 0 -36 39 -18 50 6 5
19 6 27 3 11 -5 13 -1 8 14 -4 12 -1 25 9 33 21 17 19 35 -2 19 -15 -11 -16
-11 -5 1 6 8 12 25 12 38 0 23 -2 22 -25 -13 -14 -20 -32 -51 -39 -69 l-13
-31 0 48 c-1 26 3 47 8 47 5 0 9 5 9 11 0 28 38 44 66 26 6 -3 14 -3 18 1 11
10 66 11 66 0 0 -5 -4 -7 -8 -4 -5 3 -9 -1 -9 -9 0 -8 5 -12 10 -8 5 3 7 -3 5
-13 -5 -27 -61 -27 -66 0 -2 11 0 16 6 12 6 -3 13 -2 16 3 11 17 -11 21 -25 5
-10 -13 -10 -19 0 -36 11 -18 11 -22 -3 -30 -9 -5 -16 -16 -16 -25 0 -11 7
-14 28 -9 17 4 22 3 13 -2 -18 -13 4 -26 27 -17 14 5 14 7 2 16 -11 7 -7 8 13
3 20 -5 27 -2 27 9 0 9 -8 20 -17 26 -14 7 -15 12 -4 25 7 8 11 21 9 28 -5 14
20 37 40 38 15 0 42 -24 42 -38 0 -6 7 -13 16 -16 14 -5 15 -26 4 -101 -1 -5
-7 8 -14 30 -7 22 -25 58 -41 80 l-27 40 4 -32 c2 -18 1 -30 -4 -27 -14 9 -9
-8 8 -27 8 -9 17 -26 18 -36 2 -10 11 -17 20 -17 20 2 21 -20 1 -40 -23 -23
-8 -46 31 -46 l34 0 0 125 0 125 -160 0 -160 0 0 -160z"/>
<path fill="#ffffff" stroke="none" d="M53 190 c-3 -11 -9 -20 -15 -20 -5 0
-4 9 2 20 6 11 12 20 14 20 2 0 2 -9 -1 -20z"/>
<path fill="#ffffff" stroke="none" d="M259 191 c8 -14 7 -20 -2 -24 -7 -3
-12 5 -12 19 0 29 1 29 14 5z"/>
<path fill="#000000" stroke="none" d="M42 259 c-13 -16 -22 -34 -20 -39 2 -5
14 6 27 25 29 44 24 53 -7 14z"/>
<path fill="#000000" stroke="none" d="M230 283 c0 -4 14 -28 31 -53 21 -30
29 -37 24 -20 -8 25 -55 89 -55 73z"/>
<path fill="#000000" stroke="none" d="M100 140 c0 -11 4 -20 9 -20 11 0 22
26 14 34 -12 12 -23 5 -23 -14z"/>
<path fill="#000000" stroke="none" d="M168 154 c-3 -3 -4 -14 -1 -25 4 -15 8
-17 19 -8 18 15 18 39 1 39 -8 0 -16 -3 -19 -6z"/>
<path fill="#000000" stroke="none" d="M132 124 c4 -21 22 -23 26 -1 2 10 -3
17 -13 17 -10 0 -15 -6 -13 -16z"/>
<path fill="#000000" stroke="none" d="M201 116 c-7 -8 -10 -20 -6 -25 3 -7 0
-8 -9 -5 -9 3 -16 1 -16 -5 0 -6 11 -16 24 -21 13 -5 29 -17 35 -27 16 -28 14
46 -3 75 -11 21 -14 21 -25 8z"/>
<path fill="#000000" stroke="none" d="M130 91 c0 -29 24 -81 36 -81 10 0 13
6 10 18 -3 9 -8 29 -11 43 -4 14 -13 26 -21 26 -8 0 -14 -3 -14 -6z"/>
<path fill="#000000" stroke="none" d="M105 40 c-3 -6 1 -7 9 -4 18 7 21 14 7
14 -6 0 -13 -4 -16 -10z"/>
<path fill="#000000" stroke="none" d="M118 13 c7 -3 16 -2 19 1 4 3 -2 6 -13
5 -11 0 -14 -3 -6 -6z"/>
<path fill="#000000" stroke="none" d="M285 10 c-3 -5 3 -10 14 -10 12 0 21 5
21 10 0 6 -6 10 -14 10 -8 0 -18 -4 -21 -10z"/>
</g>
</svg>
