<?xml version="1.0" standalone="no"?>
<!DOCTYPE svg PUBLIC "-//W3C//DTD SVG 20010904//EN"
 "http://www.w3.org/TR/2001/REC-SVG-20010904/DTD/svg10.dtd">
<svg version="1.0" xmlns="http://www.w3.org/2000/svg"
 width="32.000000pt" height="32.000000pt" viewBox="0 0 32.000000 32.000000"
 preserveAspectRatio="xMidYMid meet">
<metadata>
Created by potrace 1.16, written by Peter Selinger 2001-2019
</metadata>
<g transform="translate(0.000000,32.000000) scale(0.100000,-0.100000)"
fill="#000000" stroke="none">
<path fill="#000000" stroke="none" d="M100 275 c-7 -9 -21 -13 -35 -9 -26 6
-43 -12 -26 -29 8 -8 6 -16 -5 -28 -23 -25 -12 -48 19 -42 31 6 44 -26 27 -67
-6 -15 -10 -41 -8 -56 3 -25 8 -29 33 -29 17 -1 38 -5 48 -9 32 -15 175 33
162 54 -4 6 -19 10 -34 10 -21 0 -31 8 -44 35 -22 45 -23 79 -2 71 8 -3 22 -9
30 -12 21 -8 30 22 14 43 -8 9 -14 26 -14 37 0 17 -5 21 -31 19 -18 -2 -37 3
-44 12 -9 11 -16 12 -30 3 -14 -9 -22 -9 -33 0 -11 10 -17 9 -27 -3z"/>
<path fill="#ffffff" stroke="none" d="M163 268 c16 13 27 6 27 -17 0 -9 -3
-12 -8 -6 -4 6 -20 10 -37 10 -16 0 -33 -4 -37 -10 -5 -6 -8 -3 -8 6 0 24 10
29 30 17 14 -9 22 -9 33 0z"/>
<path fill="#ffffff" stroke="none" d="M102 233 c18 -15 28 -21 21 -13 -9 13
-6 15 22 15 28 0 31 -2 22 -15 -6 -8 0 -5 13 7 25 21 80 41 80 29 0 -16 -34
-56 -46 -56 -8 0 -14 -6 -14 -14 0 -8 -3 -16 -7 -19 -5 -2 -2 -2 5 -1 15 4 16
-11 2 -37 -13 -24 -30 -25 -30 -2 0 13 -3 14 -12 5 -7 -7 -16 -8 -22 -3 -7 6
-17 -4 -29 -27 -13 -26 -14 -32 -4 -24 26 22 26 -10 0 -35 l-23 -22 0 34 c0
19 6 40 14 47 9 9 11 20 5 35 -6 16 -5 23 4 23 8 0 8 3 1 8 -13 9 -64 77 -64
85 0 16 31 5 62 -20z"/>
<path fill="#ffffff" stroke="none" d="M280 184 c0 -17 -5 -17 -31 -3 -16 8
-18 13 -8 25 13 16 39 2 39 -22z"/>
<path fill="#ffffff" stroke="none" d="M65 201 c3 -6 -4 -15 -15 -21 -16 -8
-20 -8 -20 3 0 25 23 36 35 18z"/>
<path fill="#ffffff" stroke="none" d="M239 50 c0 -29 -1 -32 -10 -17 -6 10
-22 22 -35 27 -13 5 -24 15 -24 21 0 6 7 8 16 5 9 -3 12 -2 9 5 -4 5 -1 17 6
25 11 13 14 13 25 -8 8 -13 13 -39 13 -58z"/>
<path fill="#ffffff" stroke="none" d="M164 79 c3 -20 9 -44 12 -53 4 -10 1
-16 -9 -16 -15 0 -37 54 -37 91 0 33 28 15 34 -22z"/>
<path fill="#ffffff" stroke="none" d="M130 46 c0 -2 -7 -7 -16 -10 -8 -3 -12
-2 -9 4 6 10 25 14 25 6z"/>
<path fill="#000000" stroke="none" d="M131 184 c0 -11 3 -14 6 -6 3 7 2 16
-1 19 -3 4 -6 -2 -5 -13z"/>
<path fill="#000000" stroke="none" d="M151 184 c0 -11 3 -14 6 -6 3 7 2 16
-1 19 -3 4 -6 -2 -5 -13z"/>
</g>
</svg>
