<?xml version="1.0" standalone="no"?>
<!DOCTYPE svg PUBLIC "-//W3C//DTD SVG 20010904//EN"
 "http://www.w3.org/TR/2001/REC-SVG-20010904/DTD/svg10.dtd">
<svg version="1.0" xmlns="http://www.w3.org/2000/svg"
 width="32.000000pt" height="32.000000pt" viewBox="0 0 32.000000 32.000000"
 preserveAspectRatio="xMidYMid meet">
<metadata>
Created by potrace 1.16, written by Peter Selinger 2001-2019
</metadata>
<g transform="translate(0.000000,32.000000) scale(0.100000,-0.100000)"
fill="#000000" stroke="none">
<path fill="#000000" stroke="none" d="M100 275 c-8 -9 -21 -13 -35 -9 -26 6
-43 -12 -26 -29 8 -8 6 -16 -5 -28 -23 -25 -12 -48 19 -42 31 6 44 -26 27 -67
-6 -15 -10 -41 -8 -56 3 -25 8 -29 33 -29 17 -1 38 -5 48 -9 32 -15 175 33
162 54 -4 6 -19 10 -34 10 -21 0 -31 8 -44 35 -22 45 -23 79 -2 71 8 -3 22 -9
30 -12 21 -8 30 22 14 43 -8 9 -14 26 -14 37 0 17 -6 21 -30 19 -16 -1 -37 5
-47 14 -16 14 -21 12 -20 -7 0 -3 -10 -5 -23 -5 -13 0 -21 3 -19 7 9 14 -14
17 -26 3z"/>
<path fill="#ffffff" stroke="none" d="M116 258 c-1 -19 4 -23 29 -23 25 0 30
4 29 23 0 16 2 20 10 12 16 -16 -6 -44 -36 -48 -28 -3 -53 20 -44 43 8 21 13
19 12 -7z"/>
<path fill="#ffffff" stroke="none" d="M61 247 c-1 -12 -15 -9 -19 4 -3 6 1
10 8 8 6 -3 11 -8 11 -12z"/>
<path fill="#ffffff" stroke="none" d="M258 249 c-2 -6 -8 -10 -13 -10 -5 0
-11 4 -13 10 -2 6 4 11 13 11 9 0 15 -5 13 -11z"/>
<path fill="#ffffff" stroke="none" d="M96 212 c-2 -4 20 -7 49 -7 34 0 51 4
48 11 -2 6 2 16 10 23 11 9 17 8 27 -4 7 -9 11 -16 9 -18 -2 -1 -13 -7 -24
-14 -11 -6 -19 -16 -17 -23 1 -6 -2 -9 -7 -6 -5 3 -14 -1 -21 -9 -7 -8 -18
-15 -25 -15 -7 0 -18 7 -25 15 -7 8 -17 12 -23 8 -5 -3 -7 -1 -3 5 3 6 -3 17
-15 26 -19 13 -20 17 -9 31 12 15 14 15 22 1 5 -9 7 -19 4 -24z"/>
<path fill="#ffffff" stroke="none" d="M280 184 c0 -17 -12 -18 -27 -3 -17 17
-5 43 13 28 8 -6 14 -18 14 -25z"/>
<path fill="#ffffff" stroke="none" d="M54 189 c-3 -5 -10 -7 -15 -3 -5 3 -7
10 -3 15 3 5 10 7 15 3 5 -3 7 -10 3 -15z"/>
<path fill="#ffffff" stroke="none" d="M123 135 c-3 -8 -9 -15 -14 -15 -10 0
-12 24 -3 33 11 11 24 -3 17 -18z"/>
<path fill="#ffffff" stroke="none" d="M209 151 c2 -1 -4 -10 -15 -22 -17 -19
-19 -19 -25 -2 -9 24 -3 32 19 28 9 -2 19 -4 21 -4z"/>
<path fill="#ffffff" stroke="none" d="M163 93 c3 -27 9 -56 12 -65 5 -13 2
-18 -8 -18 -17 0 -37 55 -37 103 0 48 27 32 33 -20z"/>
<path fill="#ffffff" stroke="none" d="M239 50 c0 -29 -1 -32 -10 -17 -6 10
-22 22 -35 27 -13 5 -24 15 -24 21 0 6 7 8 16 5 9 -3 12 -2 9 5 -4 5 -1 17 6
25 11 13 14 13 25 -8 8 -13 13 -39 13 -58z"/>
<path fill="#ffffff" stroke="none" d="M99 88 c-11 -20 -10 -21 3 -10 27 22
27 -10 1 -35 l-23 -22 0 29 c0 35 9 60 21 60 6 0 4 -10 -2 -22z"/>
<path fill="#ffffff" stroke="none" d="M130 46 c0 -2 -7 -7 -16 -10 -8 -3 -12
-2 -9 4 6 10 25 14 25 6z"/>
</g>
</svg>
