<?xml version="1.0" standalone="no"?>
<!DOCTYPE svg PUBLIC "-//W3C//DTD SVG 20010904//EN"
 "http://www.w3.org/TR/2001/REC-SVG-20010904/DTD/svg10.dtd">
<svg version="1.0" xmlns="http://www.w3.org/2000/svg"
 width="32.000000pt" height="32.000000pt" viewBox="0 0 32.000000 32.000000"
 preserveAspectRatio="xMidYMid meet">
<metadata>
Created by potrace 1.16, written by Peter Selinger 2001-2019
</metadata>
<g transform="translate(0.000000,32.000000) scale(0.100000,-0.100000)"
fill="#000000" stroke="none">
<path fill="#000000" stroke="none" d="M67 262 c3 -7 9 -10 12 -5 3 4 10 11
15 15 4 4 -1 6 -12 5 -12 -1 -18 -6 -15 -15z"/>
<path fill="#000000" stroke="none" d="M215 259 c-4 -6 -5 -13 -2 -16 7 -7 27
6 27 18 0 12 -17 12 -25 -2z"/>
<path fill="#000000" stroke="none" d="M240 240 c0 -5 5 -10 11 -10 6 0 8 -7
4 -17 -4 -13 -3 -15 5 -7 6 6 8 18 4 27 -7 18 -24 23 -24 7z"/>
<path fill="#000000" stroke="none" d="M96 211 c-4 -5 -3 -16 0 -25 9 -23 51
-20 65 5 7 13 7 19 1 15 -6 -3 -13 -2 -17 4 -8 12 -42 13 -49 1z"/>
<path fill="#000000" stroke="none" d="M104 59 c-4 -7 -3 -9 4 -5 5 3 13 0 15
-6 4 -9 6 -10 6 -1 1 17 -16 25 -25 12z"/>
</g>
</svg>
