<?xml version="1.0" standalone="no"?>
<!DOCTYPE svg PUBLIC "-//W3C//DTD SVG 20010904//EN"
 "http://www.w3.org/TR/2001/REC-SVG-20010904/DTD/svg10.dtd">
<svg version="1.0" xmlns="http://www.w3.org/2000/svg"
 width="32.000000pt" height="32.000000pt" viewBox="0 0 32.000000 32.000000"
 preserveAspectRatio="xMidYMid meet">
<metadata>
Created by potrace 1.16, written by Peter Selinger 2001-2019
</metadata>
<g transform="translate(0.000000,32.000000) scale(0.100000,-0.100000)"
fill="#000000" stroke="none">
<path fill="#000000" stroke="none" d="M75 267 l-30 -25 13 -58 c17 -74 17
-83 8 -117 -10 -34 8 -62 25 -37 5 8 8 24 6 36 -3 18 1 21 33 21 32 0 36 -3
33 -21 -5 -31 11 -49 36 -41 24 7 28 38 7 57 -11 11 -10 21 10 67 13 29 24 64
24 77 0 30 -38 55 -93 61 -36 4 -48 1 -72 -20z"/>
<path fill="#ffffff" stroke="none" d="M124 268 c-3 -5 -11 -5 -17 -2 -7 4 -8
3 -4 -2 5 -5 13 -10 18 -10 5 -1 14 -2 19 -3 7 -1 6 -7 -2 -16 -11 -12 -15
-11 -30 6 -20 23 -17 36 6 36 8 0 13 -4 10 -9z"/>
<path fill="#ffffff" stroke="none" d="M225 222 c0 -18 -20 -15 -23 4 -3 10 1
15 10 12 7 -3 13 -10 13 -16z"/>
<path fill="#ffffff" stroke="none" d="M165 120 c13 -6 15 -9 5 -9 -8 0 -22 4
-30 9 -18 12 -2 12 25 0z"/>
</g>
</svg>
