<?xml version="1.0" standalone="no"?>
<!DOCTYPE svg PUBLIC "-//W3C//DTD SVG 20010904//EN"
 "http://www.w3.org/TR/2001/REC-SVG-20010904/DTD/svg10.dtd">
<svg version="1.0" xmlns="http://www.w3.org/2000/svg"
 width="32.000000pt" height="32.000000pt" viewBox="0 0 32.000000 32.000000"
 preserveAspectRatio="xMidYMid meet">
<metadata>
Created by potrace 1.16, written by Peter Selinger 2001-2019
</metadata>
<g transform="translate(0.000000,32.000000) scale(0.100000,-0.100000)"
fill="#000000" stroke="none">
<path fill="#000000" stroke="none" d="M116 293 c-4 -5 -12 -8 -18 -8 -6 0
-25 -17 -41 -38 -22 -26 -28 -40 -20 -48 8 -8 13 -7 18 2 6 8 4 10 -6 4 -8 -5
-11 -4 -6 0 4 5 18 10 30 11 12 2 16 0 10 -2 -7 -3 -13 -14 -13 -24 0 -24 21
-70 32 -70 4 0 -1 -9 -12 -20 -11 -11 -20 -30 -19 -42 0 -19 3 -16 14 12 l14
35 -5 -36 c-7 -47 12 -60 20 -14 9 48 22 44 18 -5 -3 -33 -1 -40 13 -40 14 0
16 7 13 40 -4 50 7 52 22 4 7 -19 17 -33 23 -31 12 4 13 14 2 57 -6 23 -4 22
12 -5 9 -16 16 -34 15 -38 -1 -5 2 -6 8 -2 7 4 5 17 -8 38 -16 27 -24 32 -53
29 -31 -3 -32 -2 -14 12 10 7 25 12 31 9 16 -6 29 56 15 70 -8 8 -11 7 -11 -4
0 -7 -6 -3 -13 11 -8 16 -20 24 -33 22 -17 -2 -18 -2 -1 8 9 6 17 20 17 30 0
10 8 24 18 29 15 9 15 10 -5 11 -12 0 -28 -9 -36 -21 -15 -20 -35 -10 -22 11
7 12 2 13 -9 3z"/>
<path fill="#ffffff" stroke="none" d="M114 230 c10 -13 9 -13 -6 -1 -10 7
-17 23 -17 35 1 20 2 20 6 1 3 -11 10 -27 17 -35z"/>
<path fill="#ffffff" stroke="none" d="M191 147 c-10 -9 -11 -8 -5 6 3 10 9
15 12 12 3 -3 0 -11 -7 -18z"/>
<path fill="#000000" stroke="none" d="M187 273 c-13 -12 -7 -40 13 -58 11
-10 23 -15 27 -12 3 4 12 2 18 -3 9 -8 14 -6 19 5 3 10 11 13 18 9 7 -4 4 3
-7 16 -11 13 -14 20 -7 16 6 -4 12 -5 12 -2 0 8 -57 36 -73 36 -7 0 -17 -3
-20 -7z"/>
</g>
</svg>
