<?xml version="1.0" standalone="no"?>
<!DOCTYPE svg PUBLIC "-//W3C//DTD SVG 20010904//EN"
 "http://www.w3.org/TR/2001/REC-SVG-20010904/DTD/svg10.dtd">
<svg version="1.0" xmlns="http://www.w3.org/2000/svg"
 width="32.000000pt" height="32.000000pt" viewBox="0 0 32.000000 32.000000"
 preserveAspectRatio="xMidYMid meet">
<metadata>
Created by potrace 1.16, written by Peter Selinger 2001-2019
</metadata>
<g transform="translate(0.000000,32.000000) scale(0.100000,-0.100000)"
fill="#000000" stroke="none">
<path fill="#000000" stroke="none" d="M104 280 c-8 -8 -46 -16 -89 -19 -5 -1
-11 -17 -13 -37 -2 -29 1 -35 15 -32 10 1 30 -9 46 -23 28 -27 35 -53 17 -64
-5 -3 -10 -28 -10 -54 l0 -48 96 -2 c110 -2 154 11 154 46 0 16 -6 23 -20 23
-13 0 -20 7 -20 20 0 14 -5 18 -16 13 -11 -4 -22 1 -30 12 -16 22 -19 65 -4
65 6 0 10 -5 10 -11 0 -6 9 -8 20 -4 15 5 20 2 20 -12 0 -13 6 -8 20 15 26 42
25 55 -5 88 -14 15 -25 22 -25 17 0 -14 -71 -8 -80 7 -6 9 -12 9 -30 -2 -18
-10 -24 -10 -27 0 -6 15 -16 15 -29 2z"/>
<path fill="#ffffff" stroke="none" d="M160 268 c22 14 35 0 25 -25 -5 -15 -4
-15 14 1 27 25 85 13 100 -20 14 -31 14 -34 0 -34 -5 0 -8 4 -5 8 2 4 1 13 -3
20 -5 8 -12 5 -25 -10 -14 -16 -15 -20 -3 -15 8 3 18 0 21 -8 4 -11 0 -12 -20
-5 -37 14 -61 12 -68 -6 -3 -8 -2 -12 4 -9 15 9 12 -19 -5 -41 -12 -15 -16
-16 -23 -6 -7 11 -11 10 -16 -5 -7 -17 -8 -17 -20 -1 -11 15 -14 14 -31 -15
-14 -25 -15 -29 -3 -19 27 21 28 -10 1 -35 l-23 -22 0 34 c0 19 6 40 14 47 9
8 11 20 6 33 -9 23 -10 29 -10 50 0 8 -6 12 -14 9 -8 -3 -23 4 -32 15 -13 15
-20 17 -26 8 -4 -6 -8 -7 -8 -2 0 23 19 36 53 38 20 1 39 8 42 16 4 11 8 11
21 0 12 -10 20 -10 34 -1z"/>
<path fill="#ffffff" stroke="none" d="M239 50 c0 -29 -1 -32 -10 -17 -6 10
-22 22 -35 27 -13 5 -24 15 -24 21 0 6 7 8 16 5 9 -3 12 -2 9 5 -4 5 -1 17 6
25 11 13 14 13 25 -8 8 -13 13 -39 13 -58z"/>
<path fill="#ffffff" stroke="none" d="M165 71 c3 -14 8 -34 11 -43 3 -12 0
-18 -10 -18 -9 0 -19 15 -25 38 -14 48 -14 49 3 49 8 0 17 -12 21 -26z"/>
<path fill="#ffffff" stroke="none" d="M130 46 c0 -2 -7 -7 -16 -10 -8 -3 -12
-2 -9 4 6 10 25 14 25 6z"/>
<path fill="#ffffff" stroke="none" d="M137 14 c-3 -3 -12 -4 -19 -1 -8 3 -5
6 6 6 11 1 17 -2 13 -5z"/>
<path fill="#000000" stroke="none" d="M116 243 c14 -47 15 -48 24 -33 7 11
10 12 10 2 0 -21 17 -5 22 20 4 20 0 23 -28 23 -20 0 -30 -4 -28 -12z"/>
</g>
</svg>
