<?xml version="1.0" standalone="no"?>
<!DOCTYPE svg PUBLIC "-//W3C//DTD SVG 20010904//EN"
 "http://www.w3.org/TR/2001/REC-SVG-20010904/DTD/svg10.dtd">
<svg version="1.0" xmlns="http://www.w3.org/2000/svg"
 width="32.000000pt" height="32.000000pt" viewBox="0 0 32.000000 32.000000"
 preserveAspectRatio="xMidYMid meet">
<metadata>
Created by potrace 1.16, written by Peter Selinger 2001-2019
</metadata>
<g transform="translate(0.000000,32.000000) scale(0.100000,-0.100000)"
fill="#000000" stroke="none">
<path fill="#000000" stroke="none" d="M0 160 l0 -160 35 0 35 0 0 48 c0 26 5
53 11 59 7 7 9 23 5 37 -5 21 -13 26 -36 26 -20 0 -30 5 -30 15 0 8 4 15 9 15
13 0 19 59 7 63 -6 2 4 4 22 5 18 0 40 6 48 13 13 10 17 10 24 -2 8 -11 13
-12 30 -1 11 6 24 12 30 12 5 0 9 -6 8 -12 -2 -8 6 -12 20 -10 29 4 52 -14 52
-41 0 -11 8 -25 17 -32 14 -10 15 -17 6 -36 -9 -19 -12 -20 -12 -6 -1 9 -7 17
-15 17 -8 0 -21 3 -30 6 -12 5 -16 0 -16 -18 0 -33 23 -63 44 -55 11 5 16 1
16 -13 0 -13 7 -20 20 -20 19 0 20 7 20 125 l0 125 -160 0 -160 0 0 -160z"/>
<path fill="#000000" stroke="none" d="M103 268 c-4 -7 -17 -13 -28 -13 -14 0
-21 -8 -23 -25 -2 -14 -9 -31 -14 -37 -8 -10 -5 -13 10 -13 12 0 24 5 27 10 3
6 11 10 16 10 6 0 7 -5 3 -11 -3 -6 0 -15 7 -20 10 -6 10 -9 2 -9 -9 0 -10 -7
-4 -23 6 -15 4 -26 -5 -35 -8 -7 -13 -29 -13 -50 l1 -37 8 35 c4 19 14 48 23
64 9 16 14 32 12 35 -2 3 7 6 19 6 14 0 23 -6 24 -19 2 -28 12 -33 28 -12 20
27 18 47 -3 40 -14 -5 -15 -4 -4 4 8 6 12 19 8 32 -5 21 -5 21 13 5 11 -10 24
-14 31 -9 8 4 10 3 5 -4 -5 -8 1 -12 15 -12 16 0 19 3 11 13 -5 6 -12 23 -14
37 -4 31 -33 38 -60 13 -11 -10 -31 -16 -45 -15 -13 2 -30 -2 -38 -8 -11 -9
-13 -7 -10 7 2 10 4 20 4 23 2 10 66 5 73 -5 5 -6 8 -3 8 6 0 24 -10 29 -30
17 -14 -9 -22 -9 -33 1 -12 10 -17 10 -24 -1z"/>
<path fill="#000000" stroke="none" d="M132 124 c4 -21 22 -23 26 -1 2 10 -3
17 -13 17 -10 0 -15 -6 -13 -16z"/>
<path fill="#000000" stroke="none" d="M201 116 c-10 -12 -8 -23 13 -58 l26
-43 -4 41 c-2 22 -7 48 -13 58 -8 15 -11 16 -22 2z"/>
<path fill="#000000" stroke="none" d="M130 92 c0 -3 5 -22 12 -43 15 -52 39
-53 27 -1 -5 20 -9 40 -9 43 0 7 -30 8 -30 1z"/>
<path fill="#000000" stroke="none" d="M118 13 c7 -3 16 -2 19 1 4 3 -2 6 -13
5 -11 0 -14 -3 -6 -6z"/>
<path fill="#000000" stroke="none" d="M285 10 c-3 -5 3 -10 14 -10 12 0 21 5
21 10 0 6 -6 10 -14 10 -8 0 -18 -4 -21 -10z"/>
</g>
</svg>
