<?xml version="1.0" standalone="no"?>
<!DOCTYPE svg PUBLIC "-//W3C//DTD SVG 20010904//EN"
 "http://www.w3.org/TR/2001/REC-SVG-20010904/DTD/svg10.dtd">
<svg version="1.0" xmlns="http://www.w3.org/2000/svg"
 width="32.000000pt" height="32.000000pt" viewBox="0 0 32.000000 32.000000"
 preserveAspectRatio="xMidYMid meet">
<metadata>
Created by potrace 1.16, written by Peter Selinger 2001-2019
</metadata>
<g transform="translate(0.000000,32.000000) scale(0.100000,-0.100000)"
fill="#000000" stroke="none">
<path fill="#000000" stroke="none" d="M110 271 c-5 -11 -17 -27 -26 -35 -13
-14 -13 -16 0 -16 8 0 18 9 21 20 3 11 13 27 21 35 9 8 11 15 5 15 -6 0 -15
-9 -21 -19z"/>
<path fill="#000000" stroke="none" d="M165 279 c-11 -16 -1 -19 13 -3 7 8 8
14 3 14 -5 0 -13 -5 -16 -11z"/>
<path fill="#000000" stroke="none" d="M201 246 c-10 -11 -7 -17 11 -30 12 -9
16 -16 9 -16 -11 0 -11 -3 -1 -15 10 -12 10 -19 2 -27 -14 -14 -16 -58 -3 -58
12 0 24 37 17 49 -3 5 1 11 9 15 8 3 15 10 15 17 0 6 -7 9 -15 5 -12 -4 -14 0
-11 20 9 46 -10 68 -33 40z"/>
<path fill="#ffffff" stroke="none" d="M220 240 c0 -5 -5 -10 -11 -10 -5 0 -7
5 -4 10 3 6 8 10 11 10 2 0 4 -4 4 -10z"/>
<path fill="#000000" stroke="none" d="M109 228 c-5 -9 -9 -25 -9 -35 0 -16 6
-18 35 -15 39 5 48 13 39 36 -4 11 -13 15 -28 11 -18 -5 -17 -4 4 9 l25 14
-29 -1 c-15 -1 -32 -10 -37 -19z"/>
<path fill="#000000" stroke="none" d="M73 198 c3 -9 1 -20 -5 -26 -6 -6 -6
-12 1 -16 8 -5 8 -13 0 -29 -9 -17 -9 -19 0 -11 16 15 22 82 8 91 -6 4 -8 0
-4 -9z"/>
<path fill="#000000" stroke="none" d="M110 160 c-9 -6 -10 -10 -3 -10 15 0 8
-41 -9 -52 -10 -6 -10 -10 2 -18 9 -5 10 -10 3 -10 -19 0 -7 -35 13 -37 18 -3
18 -2 -1 6 -11 5 -15 10 -9 10 6 1 11 11 11 24 1 42 3 47 21 48 15 0 14 2 -3
10 -17 8 -17 9 6 6 20 -3 26 0 24 12 -2 19 -34 25 -55 11z"/>
<path fill="#ffffff" stroke="none" d="M153 153 c-7 -2 -19 -2 -25 0 -7 3 -2
5 12 5 14 0 19 -2 13 -5z"/>
<path fill="#000000" stroke="none" d="M170 115 c-8 -9 -8 -15 -2 -15 12 0 26
19 19 26 -2 2 -10 -2 -17 -11z"/>
<path fill="#000000" stroke="none" d="M173 93 c-18 -6 -16 -23 1 -23 17 0 30
16 19 23 -5 2 -14 2 -20 0z"/>
<path fill="#000000" stroke="none" d="M185 65 c-24 -11 -26 -14 -9 -15 11 0
29 7 40 15 24 18 9 18 -31 0z"/>
<path fill="#000000" stroke="none" d="M185 40 c-19 -8 -19 -9 2 -9 12 -1 25
4 28 9 7 12 -2 12 -30 0z"/>
</g>
</svg>
