<?xml version="1.0" standalone="no"?>
<!DOCTYPE svg PUBLIC "-//W3C//DTD SVG 20010904//EN"
 "http://www.w3.org/TR/2001/REC-SVG-20010904/DTD/svg10.dtd">
<svg version="1.0" xmlns="http://www.w3.org/2000/svg"
 width="32.000000pt" height="32.000000pt" viewBox="0 0 32.000000 32.000000"
 preserveAspectRatio="xMidYMid meet">
<metadata>
Created by potrace 1.16, written by Peter Selinger 2001-2019
</metadata>
<g transform="translate(0.000000,32.000000) scale(0.100000,-0.100000)"
fill="#000000" stroke="none">
<path fill="#000000" stroke="none" d="M0 160 l0 -160 160 0 160 0 0 160 0
160 -160 0 -160 0 0 -160z"/>
<path fill="#ffffff" stroke="none" d="M126 275 c-8 -8 -18 -24 -21 -35 -3
-11 -13 -20 -21 -20 -13 0 -13 2 0 16 9 8 21 24 26 35 6 10 15 19 21 19 6 0 4
-7 -5 -15z"/>
<path fill="#ffffff" stroke="none" d="M178 276 c-7 -8 -15 -12 -17 -11 -5 6
10 25 20 25 5 0 4 -6 -3 -14z"/>
<path fill="#ffffff" stroke="none" d="M233 246 c3 -8 4 -26 1 -40 -3 -20 -1
-24 11 -20 8 4 15 1 15 -5 0 -7 -7 -14 -15 -17 -8 -4 -12 -10 -9 -15 7 -12 -5
-49 -17 -49 -13 0 -11 44 3 58 8 8 8 15 -2 27 -10 12 -10 15 1 15 7 0 3 7 -9
16 -18 13 -21 19 -11 30 15 18 25 18 32 0z"/>
<path fill="#ffffff" stroke="none" d="M150 234 c-21 -13 -22 -14 -4 -9 15 4
24 0 28 -11 9 -23 0 -31 -39 -36 -29 -3 -35 -1 -35 15 0 32 17 52 46 54 l29 1
-25 -14z"/>
<path fill="#ffffff" stroke="none" d="M85 164 c-2 -20 -9 -42 -16 -48 -9 -8
-9 -6 0 11 8 16 8 24 0 29 -7 4 -7 10 -1 16 6 6 8 17 5 26 -4 9 -2 13 4 9 6
-4 9 -23 8 -43z"/>
<path fill="#ffffff" stroke="none" d="M165 149 c2 -12 -4 -15 -24 -12 -23 3
-23 2 -6 -6 17 -8 18 -10 3 -10 -18 -1 -20 -6 -21 -48 0 -13 -5 -23 -11 -24
-6 0 -2 -5 9 -10 19 -8 19 -9 1 -6 -20 2 -32 37 -13 37 7 0 6 5 -3 10 -12 8
-12 12 -2 18 17 11 24 52 9 52 -7 0 -6 4 3 10 21 14 53 8 55 -11z"/>
<path fill="#ffffff" stroke="none" d="M185 111 c-3 -6 -11 -11 -17 -11 -6 0
-6 6 2 15 14 17 26 13 15 -4z"/>
<path fill="#ffffff" stroke="none" d="M195 79 c-8 -12 -35 -12 -35 0 0 11 22
20 33 14 4 -2 5 -9 2 -14z"/>
<path fill="#ffffff" stroke="none" d="M216 65 c-11 -8 -29 -15 -40 -15 -17 1
-15 4 9 15 40 18 55 18 31 0z"/>
<path fill="#ffffff" stroke="none" d="M215 40 c-3 -5 -16 -10 -28 -9 -21 0
-21 1 -2 9 28 12 37 12 30 0z"/>
<path fill="#000000" stroke="none" d="M205 240 c-3 -5 -1 -10 4 -10 6 0 11 5
11 10 0 6 -2 10 -4 10 -3 0 -8 -4 -11 -10z"/>
<path fill="#000000" stroke="none" d="M128 153 c6 -2 18 -2 25 0 6 3 1 5 -13
5 -14 0 -19 -2 -12 -5z"/>
</g>
</svg>
