<?xml version="1.0" standalone="no"?>
<!DOCTYPE svg PUBLIC "-//W3C//DTD SVG 20010904//EN"
 "http://www.w3.org/TR/2001/REC-SVG-20010904/DTD/svg10.dtd">
<svg version="1.0" xmlns="http://www.w3.org/2000/svg"
 width="32.000000pt" height="32.000000pt" viewBox="0 0 32.000000 32.000000"
 preserveAspectRatio="xMidYMid meet">
<metadata>
Created by potrace 1.16, written by Peter Selinger 2001-2019
</metadata>
<g transform="translate(0.000000,32.000000) scale(0.100000,-0.100000)"
fill="#000000" stroke="none">
<path fill="#000000" stroke="none" d="M0 160 l0 -160 160 0 160 0 0 160 0
160 -160 0 -160 0 0 -160z"/>
<path fill="#ffffff" stroke="none" d="M123 275 c-3 -9 -8 -14 -10 -11 -3 3
-2 9 2 15 9 16 15 13 8 -4z"/>
<path fill="#ffffff" stroke="none" d="M178 276 c-7 -8 -15 -12 -17 -11 -5 6
10 25 20 25 5 0 4 -6 -3 -14z"/>
<path fill="#ffffff" stroke="none" d="M103 234 c-4 -12 -2 -15 8 -12 8 3 13
9 12 14 -1 5 11 10 25 11 l27 1 -24 -13 -24 -13 21 -6 c28 -9 21 -22 -14 -29
-20 -3 -28 0 -31 14 -3 11 -12 19 -20 19 -11 0 -11 3 -1 15 17 19 29 19 21 -1z"/>
<path fill="#ffffff" stroke="none" d="M233 219 c-17 -17 -36 -1 -20 16 7 8
16 10 22 4 5 -6 5 -13 -2 -20z"/>
<path fill="#ffffff" stroke="none" d="M80 164 c0 -8 -5 -12 -10 -9 -6 4 -8
11 -5 16 9 14 15 11 15 -7z"/>
<path fill="#ffffff" stroke="none" d="M250 170 c0 -5 -5 -10 -11 -10 -5 0 -7
5 -4 10 3 6 8 10 11 10 2 0 4 -4 4 -10z"/>
<path fill="#ffffff" stroke="none" d="M135 160 c-19 -8 -19 -9 -1 -9 11 -1
17 -4 13 -7 -3 -3 -15 -3 -28 1 -17 6 -19 9 -8 16 8 5 21 8 29 8 10 0 8 -3 -5
-9z"/>
<path fill="#ffffff" stroke="none" d="M230 123 c0 -19 -3 -24 -10 -17 -6 6
-8 18 -4 27 9 24 14 21 14 -10z"/>
<path fill="#ffffff" stroke="none" d="M147 124 c-3 -3 -12 -4 -19 -1 -8 3 -5
6 6 6 11 1 17 -2 13 -5z"/>
<path fill="#ffffff" stroke="none" d="M180 110 c0 -5 -5 -10 -11 -10 -5 0 -7
5 -4 10 3 6 8 10 11 10 2 0 4 -4 4 -10z"/>
<path fill="#ffffff" stroke="none" d="M110 90 c0 -5 -4 -10 -10 -10 -5 0 -10
5 -10 10 0 6 5 10 10 10 6 0 10 -4 10 -10z"/>
<path fill="#ffffff" stroke="none" d="M180 80 c0 -5 -4 -10 -10 -10 -5 0 -10
5 -10 10 0 6 5 10 10 10 6 0 10 -4 10 -10z"/>
<path fill="#ffffff" stroke="none" d="M107 56 c-3 -8 -2 -17 4 -20 5 -2 4 -3
-2 -2 -15 3 -21 36 -7 36 6 0 8 -6 5 -14z"/>
<path fill="#ffffff" stroke="none" d="M197 34 c-3 -3 -12 -4 -19 -1 -8 3 -5
6 6 6 11 1 17 -2 13 -5z"/>
</g>
</svg>
