<?xml version="1.0" standalone="no"?>
<!DOCTYPE svg PUBLIC "-//W3C//DTD SVG 20010904//EN"
 "http://www.w3.org/TR/2001/REC-SVG-20010904/DTD/svg10.dtd">
<svg version="1.0" xmlns="http://www.w3.org/2000/svg"
 width="32.000000pt" height="32.000000pt" viewBox="0 0 32.000000 32.000000"
 preserveAspectRatio="xMidYMid meet">
<metadata>
Created by potrace 1.16, written by Peter Selinger 2001-2019
</metadata>
<g transform="translate(0.000000,32.000000) scale(0.100000,-0.100000)"
fill="#000000" stroke="none">
<path fill="#000000" stroke="none" d="M0 160 l0 -160 160 0 160 0 0 160 0
160 -160 0 -160 0 0 -160z"/>
<path fill="#ffffff" stroke="none" d="M188 291 c11 -6 10 -11 -3 -25 -9 -9
-12 -16 -7 -16 5 0 15 6 21 14 19 22 51 27 51 8 1 -10 3 -40 5 -69 5 -64 -6
-107 -28 -111 -13 -3 -17 4 -17 27 0 16 4 33 10 36 6 4 3 16 -7 32 -15 23 -17
24 -24 7 -3 -11 -3 -21 2 -24 4 -3 9 -26 10 -51 2 -43 4 -45 28 -42 l26 4 -25
-16 c-23 -15 -24 -15 -2 -10 12 4 22 2 22 -3 0 -11 -69 -26 -78 -18 -13 13 -8
72 7 90 13 17 11 16 -13 -2 -20 -15 -30 -32 -31 -52 -2 -37 -8 -44 -34 -35
-24 7 -29 52 -9 88 16 30 18 45 8 71 -8 19 -9 18 -10 -9 0 -38 -10 -75 -19
-75 -4 0 -6 28 -5 63 1 34 -3 68 -8 75 -7 8 -7 12 1 12 6 0 11 7 11 15 0 12 4
13 18 6 12 -6 23 -5 37 5 21 16 44 18 63 5z"/>
<path fill="#000000" stroke="none" d="M130 264 c0 -9 5 -14 12 -12 18 6 21
28 4 28 -9 0 -16 -7 -16 -16z"/>
<path fill="#000000" stroke="none" d="M89 243 c-13 -16 -12 -17 4 -4 9 7 17
15 17 17 0 8 -8 3 -21 -13z"/>
<path fill="#000000" stroke="none" d="M229 233 c-13 -16 -12 -17 4 -4 9 7 17
15 17 17 0 8 -8 3 -21 -13z"/>
</g>
</svg>
