<?xml version="1.0" standalone="no"?>
<!DOCTYPE svg PUBLIC "-//W3C//DTD SVG 20010904//EN"
 "http://www.w3.org/TR/2001/REC-SVG-20010904/DTD/svg10.dtd">
<svg version="1.0" xmlns="http://www.w3.org/2000/svg"
 width="32.000000pt" height="32.000000pt" viewBox="0 0 32.000000 32.000000"
 preserveAspectRatio="xMidYMid meet">
<metadata>
Created by potrace 1.16, written by Peter Selinger 2001-2019
</metadata>
<g transform="translate(0.000000,32.000000) scale(0.100000,-0.100000)"
fill="#000000" stroke="none">
<path fill="#000000" stroke="none" d="M0 160 l0 -160 160 0 160 0 0 160 0
160 -160 0 -160 0 0 -160z"/>
<path fill="#ffffff" stroke="none" d="M128 276 c-7 -8 -15 -12 -17 -11 -5 6
10 25 20 25 5 0 4 -6 -3 -14z"/>
<path fill="#ffffff" stroke="none" d="M178 276 c-7 -8 -15 -12 -17 -11 -5 6
10 25 20 25 5 0 4 -6 -3 -14z"/>
<path fill="#ffffff" stroke="none" d="M204 256 c-15 -12 -17 -17 -6 -28 10
-10 16 -10 33 0 17 11 20 11 13 0 -16 -24 -15 -48 1 -42 8 4 15 1 15 -5 0 -7
-7 -14 -15 -17 -11 -5 -12 -11 -4 -25 11 -22 4 -39 -17 -39 -17 0 -19 41 -2
58 8 8 8 15 -1 26 -9 11 -9 15 1 19 9 4 8 6 -3 6 -27 2 -44 28 -29 46 7 8 17
15 23 15 6 0 2 -6 -9 -14z"/>
<path fill="#ffffff" stroke="none" d="M149 233 c-24 -14 -24 -14 -1 -8 12 4
23 3 23 -2 6 -36 5 -53 -2 -53 -13 0 -6 -23 10 -36 15 -11 8 -34 -11 -34 -6 0
-5 6 3 16 11 13 9 14 -17 8 -35 -9 -42 -18 -38 -50 1 -13 -3 -24 -9 -25 -7 0
-3 -5 8 -10 19 -8 19 -9 1 -6 -20 2 -32 37 -13 37 7 0 6 5 -3 10 -12 8 -12 12
-2 19 17 10 22 44 9 53 -6 3 5 11 24 17 l34 11 -34 -5 -34 -5 6 37 c3 21 3 32
0 26 -2 -7 -12 -13 -21 -13 -34 0 18 25 54 26 35 1 36 1 13 -13z"/>
<path fill="#ffffff" stroke="none" d="M84 158 c-4 -43 -10 -56 -20 -45 -4 4
-1 13 5 21 9 10 9 16 1 21 -8 5 -8 11 -2 17 6 6 8 17 5 26 -4 9 -2 13 4 9 6
-4 9 -25 7 -49z"/>
<path fill="#ffffff" stroke="none" d="M195 79 c-8 -12 -35 -12 -35 0 0 11 22
20 33 14 4 -2 5 -9 2 -14z"/>
<path fill="#ffffff" stroke="none" d="M216 65 c-11 -8 -29 -15 -40 -15 -17 1
-15 4 9 15 40 18 55 18 31 0z"/>
<path fill="#ffffff" stroke="none" d="M215 40 c-3 -5 -16 -10 -28 -9 -21 0
-21 1 -2 9 28 12 37 12 30 0z"/>
<path fill="#000000" stroke="none" d="M128 153 c6 -2 18 -2 25 0 6 3 1 5 -13
5 -14 0 -19 -2 -12 -5z"/>
<path fill="#000000" stroke="none" d="M128 133 c6 -2 18 -2 25 0 6 3 1 5 -13
5 -14 0 -19 -2 -12 -5z"/>
</g>
</svg>
