<?xml version="1.0" standalone="no"?>
<!DOCTYPE svg PUBLIC "-//W3C//DTD SVG 20010904//EN"
 "http://www.w3.org/TR/2001/REC-SVG-20010904/DTD/svg10.dtd">
<svg version="1.0" xmlns="http://www.w3.org/2000/svg"
 width="32.000000pt" height="32.000000pt" viewBox="0 0 32.000000 32.000000"
 preserveAspectRatio="xMidYMid meet">
<metadata>
Created by potrace 1.16, written by Peter Selinger 2001-2019
</metadata>
<g transform="translate(0.000000,32.000000) scale(0.100000,-0.100000)"
fill="#000000" stroke="none">
<path fill="#000000" stroke="none" d="M94 258 c-5 -7 -2 -8 7 -3 8 4 6 0 -3
-11 -14 -14 -21 -15 -30 -6 -8 8 -15 9 -25 0 -11 -9 -11 -14 1 -27 19 -21 20
-32 4 -43 -10 -7 -8 -8 5 -4 26 8 62 -73 40 -91 -10 -8 -11 -13 -2 -18 6 -4
15 -1 20 6 6 10 9 11 9 2 0 -10 26 -13 95 -13 88 0 95 1 95 20 0 11 -7 20 -15
20 -8 0 -15 4 -15 8 0 4 -16 6 -37 4 -31 -4 -35 -2 -30 13 4 9 7 24 8 33 0 15
1 15 7 -1 7 -16 9 -16 25 3 13 16 14 20 3 20 -17 0 -15 25 2 42 17 17 15 25
-8 31 -11 3 -20 1 -20 -4 0 -15 -27 -10 -41 8 -10 11 -10 14 -1 9 6 -4 12 -2
12 3 0 16 -16 13 -30 -4 -7 -8 -19 -15 -27 -15 -7 0 -16 7 -19 15 -7 18 -20
19 -30 3z"/>
<path fill="#ffffff" stroke="none" d="M125 180 c3 -5 -10 -1 -29 11 -20 12
-36 23 -36 25 0 7 58 -25 65 -36z"/>
<path fill="#ffffff" stroke="none" d="M230 216 c0 -2 -16 -13 -35 -25 -19
-11 -35 -18 -35 -16 0 5 61 45 68 45 1 0 2 -2 2 -4z"/>
<path fill="#000000" stroke="none" d="M30 140 c0 -6 7 -10 15 -10 19 0 19 6
0 14 -8 3 -15 1 -15 -4z"/>
</g>
</svg>
