<?xml version="1.0" standalone="no"?>
<!DOCTYPE svg PUBLIC "-//W3C//DTD SVG 20010904//EN"
 "http://www.w3.org/TR/2001/REC-SVG-20010904/DTD/svg10.dtd">
<svg version="1.0" xmlns="http://www.w3.org/2000/svg"
 width="32.000000pt" height="32.000000pt" viewBox="0 0 32.000000 32.000000"
 preserveAspectRatio="xMidYMid meet">
<metadata>
Created by potrace 1.16, written by Peter Selinger 2001-2019
</metadata>
<g transform="translate(0.000000,32.000000) scale(0.100000,-0.100000)"
fill="#000000" stroke="none">
<path fill="#000000" stroke="none" d="M261 286 c-16 -17 -19 -24 -8 -22 18 2
47 25 47 37 0 16 -16 10 -39 -15z"/>
<path fill="#ffffff" stroke="none" d="M290 296 c0 -2 -8 -10 -17 -17 -16 -13
-17 -12 -4 4 13 16 21 21 21 13z"/>
<path fill="#000000" stroke="none" d="M113 258 c-19 -25 -26 -41 -15 -34 6 3
13 2 17 -4 10 -16 51 -12 68 8 13 14 14 21 5 30 -16 16 -63 15 -75 0z"/>
<path fill="#ffffff" stroke="none" d="M183 253 c12 -11 -14 -33 -39 -33 -25
0 -39 14 -29 30 7 11 58 14 68 3z"/>
<path fill="#000000" stroke="none" d="M245 240 c3 -5 8 -10 11 -10 2 0 4 5 4
10 0 6 -5 10 -11 10 -5 0 -7 -4 -4 -10z"/>
<path fill="#000000" stroke="none" d="M265 190 c3 -5 11 -10 16 -10 6 0 7 5
4 10 -3 6 -11 10 -16 10 -6 0 -7 -4 -4 -10z"/>
<path fill="#000000" stroke="none" d="M167 149 c7 -7 15 -10 18 -7 3 3 -2 9
-12 12 -14 6 -15 5 -6 -5z"/>
<path fill="#000000" stroke="none" d="M138 133 c7 -3 16 -2 19 1 4 3 -2 6
-13 5 -11 0 -14 -3 -6 -6z"/>
<path fill="#000000" stroke="none" d="M166 49 c3 -5 -5 -9 -18 -10 -20 -1
-19 -2 6 -10 17 -4 32 -6 35 -4 2 3 -2 5 -10 6 -8 0 -6 4 5 8 19 7 19 8 -2 13
-12 4 -20 2 -16 -3z"/>
<path fill="#000000" stroke="none" d="M128 13 c6 -2 18 -2 25 0 6 3 1 5 -13
5 -14 0 -19 -2 -12 -5z"/>
</g>
</svg>
