<?xml version="1.0" standalone="no"?>
<!DOCTYPE svg PUBLIC "-//W3C//DTD SVG 20010904//EN"
 "http://www.w3.org/TR/2001/REC-SVG-20010904/DTD/svg10.dtd">
<svg version="1.0" xmlns="http://www.w3.org/2000/svg"
 width="32.000000pt" height="32.000000pt" viewBox="0 0 32.000000 32.000000"
 preserveAspectRatio="xMidYMid meet">
<metadata>
Created by potrace 1.16, written by Peter Selinger 2001-2019
</metadata>
<g transform="translate(0.000000,32.000000) scale(0.100000,-0.100000)"
fill="#000000" stroke="none">
<path fill="#000000" stroke="none" d="M261 286 c-16 -17 -19 -24 -8 -22 18 2
47 25 47 37 0 16 -16 10 -39 -15z"/>
<path fill="#ffffff" stroke="none" d="M290 296 c0 -2 -8 -10 -17 -17 -16 -13
-17 -12 -4 4 13 16 21 21 21 13z"/>
<path fill="#000000" stroke="none" d="M92 252 c-22 -22 -20 -64 3 -56 7 3 16
0 20 -6 3 -6 1 -9 -6 -8 -8 2 -13 -8 -13 -27 0 -18 5 -29 12 -27 7 1 12 -2 12
-8 0 -5 -6 -10 -12 -10 -9 0 -8 -4 2 -10 10 -7 11 -10 2 -10 -9 0 -10 -4 -1
-19 14 -21 50 -22 64 -1 13 21 15 39 4 46 -5 3 -7 10 -3 15 4 6 10 6 19 -1 10
-8 12 -4 12 17 0 16 -2 23 -4 16 -6 -17 -67 -27 -88 -15 -12 6 -14 11 -6 16 6
4 11 1 12 -6 1 -7 5 -2 9 12 7 22 8 22 9 4 1 -19 31 -31 31 -12 0 5 3 7 8 5 4
-3 13 1 20 9 10 10 10 14 1 14 -7 0 -9 3 -6 6 12 12 37 -18 37 -43 0 -15 5
-23 12 -21 15 5 18 28 6 45 -5 6 -11 24 -14 40 -7 39 -16 45 -72 51 -41 3 -53
1 -70 -16z"/>
<path fill="#ffffff" stroke="none" d="M183 253 c12 -11 -14 -33 -39 -33 -25
0 -39 14 -29 30 7 11 58 14 68 3z"/>
<path fill="#000000" stroke="none" d="M243 235 c0 -8 4 -12 9 -9 4 3 8 9 8
15 0 5 -4 9 -8 9 -5 0 -9 -7 -9 -15z"/>
<path fill="#000000" stroke="none" d="M58 178 c-3 -18 -8 -42 -12 -53 -7 -18
-6 -18 4 -2 6 9 14 15 18 13 4 -2 6 13 4 35 -5 48 -8 49 -14 7z"/>
<path fill="#000000" stroke="none" d="M257 197 c-3 -8 3 -14 15 -14 16 -2 17
1 8 13 -15 17 -17 17 -23 1z"/>
<path fill="#000000" stroke="none" d="M32 57 c-13 -14 -19 -28 -14 -31 12 -7
45 29 40 44 -2 6 -13 1 -26 -13z"/>
<path fill="#000000" stroke="none" d="M76 54 c-9 -24 4 -34 50 -39 l39 -5
-42 11 c-24 6 -43 14 -43 18 0 4 23 2 52 -5 55 -15 100 -18 58 -4 l-25 8 28 1
c28 1 36 14 15 27 -6 4 -8 3 -5 -3 16 -25 -98 -26 -114 -1 -3 5 -9 2 -13 -8z"/>
</g>
</svg>
