<?xml version="1.0" standalone="no"?>
<!DOCTYPE svg PUBLIC "-//W3C//DTD SVG 20010904//EN"
 "http://www.w3.org/TR/2001/REC-SVG-20010904/DTD/svg10.dtd">
<svg version="1.0" xmlns="http://www.w3.org/2000/svg"
 width="32.000000pt" height="32.000000pt" viewBox="0 0 32.000000 32.000000"
 preserveAspectRatio="xMidYMid meet">
<metadata>
Created by potrace 1.16, written by Peter Selinger 2001-2019
</metadata>
<g transform="translate(0.000000,32.000000) scale(0.100000,-0.100000)"
fill="#000000" stroke="none">
<path fill="#000000" stroke="none" d="M102 264 c-7 -3 -18 -18 -25 -32 -12
-24 -11 -30 10 -51 21 -22 23 -23 24 -5 0 11 3 13 6 6 2 -6 10 -9 16 -5 9 5 9
3 0 -8 -10 -13 -8 -15 12 -15 20 0 22 2 12 15 -9 11 -9 13 0 8 6 -4 14 -1 16
5 4 9 6 8 6 -3 1 -9 8 -16 16 -16 8 0 12 3 10 7 -5 9 32 40 39 33 3 -4 6 0 6
9 0 27 -38 51 -87 54 -27 2 -54 1 -61 -2z"/>
<path fill="#ffffff" stroke="none" d="M183 253 c12 -11 -14 -33 -39 -33 -25
0 -39 14 -29 30 7 11 58 14 68 3z"/>
<path fill="#000000" stroke="none" d="M47 144 c-4 -4 -4 -11 -1 -15 7 -12 34
-11 34 1 0 5 -7 6 -17 3 -11 -4 -14 -3 -9 5 8 13 3 16 -7 6z"/>
<path fill="#000000" stroke="none" d="M95 141 c-3 -5 -2 -12 3 -15 5 -3 9 1
9 9 0 17 -3 19 -12 6z"/>
<path fill="#000000" stroke="none" d="M183 137 c0 -8 6 -14 14 -14 9 0 10 4
2 14 -6 7 -12 13 -14 13 -1 0 -2 -6 -2 -13z"/>
<path fill="#000000" stroke="none" d="M252 139 c2 -6 -3 -14 -11 -17 -9 -3
-11 0 -6 8 5 9 4 11 -3 6 -16 -10 -15 -26 2 -26 20 0 40 26 26 35 -6 4 -9 1
-8 -6z"/>
<path fill="#000000" stroke="none" d="M80 63 c0 -31 90 -45 125 -20 14 11 15
16 5 22 -8 5 -11 4 -7 -2 8 -13 -15 -23 -54 -23 -17 0 -28 4 -24 10 4 6 -1 7
-10 3 -10 -3 -21 0 -26 8 -6 9 -9 10 -9 2z"/>
</g>
</svg>
