<?xml version="1.0" standalone="no"?>
<!DOCTYPE svg PUBLIC "-//W3C//DTD SVG 20010904//EN"
 "http://www.w3.org/TR/2001/REC-SVG-20010904/DTD/svg10.dtd">
<svg version="1.0" xmlns="http://www.w3.org/2000/svg"
 width="32.000000pt" height="32.000000pt" viewBox="0 0 32.000000 32.000000"
 preserveAspectRatio="xMidYMid meet">
<metadata>
Created by potrace 1.16, written by Peter Selinger 2001-2019
</metadata>
<g transform="translate(0.000000,32.000000) scale(0.100000,-0.100000)"
fill="#000000" stroke="none">
<path fill="#000000" stroke="none" d="M102 285 c-18 -8 -35 -22 -38 -32 -3
-10 -12 -33 -19 -50 -13 -30 -13 -33 5 -43 11 -6 25 -8 30 -5 22 13 19 -19 -4
-50 l-26 -34 26 -20 c15 -12 30 -21 34 -21 9 0 30 46 30 65 0 8 7 15 15 15 9
0 15 -9 15 -22 0 -13 7 -32 15 -42 13 -18 16 -18 40 -2 29 19 28 17 15 51 -7
18 -15 25 -25 21 -12 -4 -12 -1 2 20 10 16 13 28 7 32 -7 5 -6 16 2 31 13 25
13 25 12 -7 -1 -40 5 -47 31 -32 20 10 20 13 6 40 -8 16 -15 36 -15 44 0 20
-62 56 -96 56 -16 -1 -44 -7 -62 -15z"/>
<path fill="#ffffff" stroke="none" d="M198 277 c8 -10 5 -25 -13 -60 -13 -26
-27 -48 -31 -48 -4 0 -16 20 -27 45 -16 37 -17 49 -7 61 15 18 64 20 78 2z"/>
<path fill="#ffffff" stroke="none" d="M102 172 c8 -9 7 -11 -6 -6 -10 4 -16
17 -15 38 2 27 2 28 6 6 3 -14 10 -31 15 -38z"/>
</g>
</svg>
