<?xml version="1.0" standalone="no"?>
<!DOCTYPE svg PUBLIC "-//W3C//DTD SVG 20010904//EN"
 "http://www.w3.org/TR/2001/REC-SVG-20010904/DTD/svg10.dtd">
<svg version="1.0" xmlns="http://www.w3.org/2000/svg"
 width="32.000000pt" height="32.000000pt" viewBox="0 0 32.000000 32.000000"
 preserveAspectRatio="xMidYMid meet">
<metadata>
Created by potrace 1.16, written by Peter Selinger 2001-2019
</metadata>
<g transform="translate(0.000000,32.000000) scale(0.100000,-0.100000)"
fill="#000000" stroke="none">
<path fill="#000000" stroke="none" d="M126 291 c-4 -5 3 -7 14 -4 23 6 26 13
6 13 -8 0 -17 -4 -20 -9z"/>
<path fill="#000000" stroke="none" d="M95 246 c10 -14 19 -26 22 -26 7 0 -17
39 -28 46 -6 3 -3 -5 6 -20z"/>
<path fill="#000000" stroke="none" d="M133 134 c11 -13 21 -24 21 -24 1 0 1
10 1 23 0 16 -6 22 -21 23 l-22 2 21 -24z"/>
<path fill="#000000" stroke="none" d="M188 153 c7 -3 16 -2 19 1 4 3 -2 6
-13 5 -11 0 -14 -3 -6 -6z"/>
<path fill="#000000" stroke="none" d="M188 133 c7 -3 16 -2 19 1 4 3 -2 6
-13 5 -11 0 -14 -3 -6 -6z"/>
<path fill="#000000" stroke="none" d="M120 60 c-6 -11 -16 -17 -22 -14 -7 4
-8 3 -4 -4 11 -18 22 -14 34 13 14 30 7 34 -8 5z"/>
<path fill="#000000" stroke="none" d="M171 75 c0 -5 6 -18 14 -28 11 -15 17
-17 32 -8 17 11 17 11 -2 9 -12 -2 -19 2 -17 10 1 8 -2 11 -7 8 -5 -4 -12 0
-14 6 -3 7 -6 9 -6 3z"/>
</g>
</svg>
