<?xml version="1.0" standalone="no"?>
<!DOCTYPE svg PUBLIC "-//W3C//DTD SVG 20010904//EN"
 "http://www.w3.org/TR/2001/REC-SVG-20010904/DTD/svg10.dtd">
<svg version="1.0" xmlns="http://www.w3.org/2000/svg"
 width="32.000000pt" height="32.000000pt" viewBox="0 0 32.000000 32.000000"
 preserveAspectRatio="xMidYMid meet">
<metadata>
Created by potrace 1.16, written by Peter Selinger 2001-2019
</metadata>
<g transform="translate(0.000000,32.000000) scale(0.100000,-0.100000)"
fill="#000000" stroke="none">
<path fill="#000000" stroke="none" d="M113 290 c-26 -11 -28 -25 -8 -60 17
-29 20 -19 4 12 -14 26 -2 39 48 48 34 7 35 8 8 8 -16 1 -40 -3 -52 -8z"/>
<path fill="#000000" stroke="none" d="M207 279 c10 -12 8 -22 -12 -52 -14
-20 -25 -39 -25 -44 0 -7 11 7 44 58 15 25 15 27 -1 40 -16 12 -17 12 -6 -2z"/>
<path fill="#000000" stroke="none" d="M56 233 c-6 -14 -5 -15 5 -6 7 7 10 15
7 18 -3 3 -9 -2 -12 -12z"/>
<path fill="#000000" stroke="none" d="M122 149 c6 -4 5 -9 -3 -12 -9 -3 -3
-7 13 -12 15 -4 40 -2 55 3 22 8 24 11 8 11 -13 1 -16 4 -8 9 6 4 -8 7 -32 7
-24 0 -39 -3 -33 -6z"/>
<path fill="#ffffff" stroke="none" d="M173 133 c-7 -2 -21 -2 -30 0 -10 3 -4
5 12 5 17 0 24 -2 18 -5z"/>
<path fill="#000000" stroke="none" d="M122 64 c-7 -15 -17 -22 -24 -18 -7 4
-8 3 -4 -4 4 -7 11 -12 15 -12 9 0 34 50 28 56 -2 2 -9 -7 -15 -22z"/>
<path fill="#000000" stroke="none" d="M170 80 c1 -8 7 -23 15 -33 11 -15 17
-17 32 -8 17 11 17 11 -1 9 -13 -2 -25 6 -33 22 -7 14 -13 18 -13 10z"/>
</g>
</svg>
