<?xml version="1.0" standalone="no"?>
<!DOCTYPE svg PUBLIC "-//W3C//DTD SVG 20010904//EN"
 "http://www.w3.org/TR/2001/REC-SVG-20010904/DTD/svg10.dtd">
<svg version="1.0" xmlns="http://www.w3.org/2000/svg"
 width="32.000000pt" height="32.000000pt" viewBox="0 0 32.000000 32.000000"
 preserveAspectRatio="xMidYMid meet">
<metadata>
Created by potrace 1.16, written by Peter Selinger 2001-2019
</metadata>
<g transform="translate(0.000000,32.000000) scale(0.100000,-0.100000)"
fill="#000000" stroke="none">
<path fill="#000000" stroke="none" d="M0 160 l0 -160 160 0 160 0 0 160 0
160 -160 0 -160 0 0 -160z"/>
<path fill="#ffffff" stroke="none" d="M167 294 c-3 -3 -12 -4 -19 -1 -8 3 -5
6 6 6 11 1 17 -2 13 -5z"/>
<path fill="#ffffff" stroke="none" d="M111 276 c-10 -11 -9 -21 3 -44 13 -26
13 -30 1 -28 -8 1 -18 6 -22 11 -4 4 -2 5 5 1 15 -9 15 -1 1 25 -10 19 2 49
18 49 3 0 0 -6 -6 -14z"/>
<path fill="#ffffff" stroke="none" d="M75 253 l18 -28 -21 19 c-12 11 -22 23
-22 28 0 14 7 9 25 -19z"/>
<path fill="#ffffff" stroke="none" d="M261 237 l-24 -22 19 27 c10 14 21 24
23 22 3 -3 -6 -15 -18 -27z"/>
<path fill="#ffffff" stroke="none" d="M65 160 c3 -6 -1 -7 -9 -4 -18 7 -21
14 -7 14 6 0 13 -4 16 -10z"/>
<path fill="#ffffff" stroke="none" d="M280 166 c0 -2 -7 -7 -16 -10 -8 -3
-12 -2 -9 4 6 10 25 14 25 6z"/>
<path fill="#ffffff" stroke="none" d="M215 150 c3 -5 -10 -16 -29 -25 -32
-15 -37 -15 -58 -1 -15 11 -17 16 -8 16 12 0 12 2 2 9 -8 4 7 8 38 8 27 1 52
-3 55 -7z"/>
<path fill="#ffffff" stroke="none" d="M146 23 c-7 -7 -64 16 -72 29 -4 5 7 3
24 -6 32 -17 41 -13 43 18 1 14 3 11 6 -7 3 -16 2 -31 -1 -34z"/>
<path fill="#ffffff" stroke="none" d="M181 30 c5 0 9 5 9 12 0 6 3 8 6 5 4
-3 15 -2 25 4 11 5 19 7 19 5 0 -7 -56 -36 -70 -36 -5 0 -9 12 -9 28 2 23 2
24 6 5 2 -13 9 -23 14 -23z"/>
<path fill="#000000" stroke="none" d="M134 139 c-10 -17 22 -20 50 -5 l28 14
-36 0 c-20 0 -39 -4 -42 -9z"/>
</g>
</svg>
