<?xml version="1.0" standalone="no"?>
<!DOCTYPE svg PUBLIC "-//W3C//DTD SVG 20010904//EN"
 "http://www.w3.org/TR/2001/REC-SVG-20010904/DTD/svg10.dtd">
<svg version="1.0" xmlns="http://www.w3.org/2000/svg"
 width="32.000000pt" height="32.000000pt" viewBox="0 0 32.000000 32.000000"
 preserveAspectRatio="xMidYMid meet">
<metadata>
Created by potrace 1.16, written by Peter Selinger 2001-2019
</metadata>
<g transform="translate(0.000000,32.000000) scale(0.100000,-0.100000)"
fill="#000000" stroke="none">
<path fill="#000000" stroke="none" d="M103 284 c-24 -12 -36 -27 -43 -55 -6
-21 -16 -41 -22 -45 -12 -8 17 -34 36 -34 6 0 4 5 -4 10 -8 5 -10 10 -5 10 6
0 12 17 13 37 4 47 12 57 12 14 0 -18 4 -30 9 -26 18 10 1 -66 -19 -87 -11
-12 -20 -27 -20 -34 0 -10 41 -44 53 -44 10 0 29 61 23 75 -4 11 1 15 18 15
19 0 22 -4 19 -28 -2 -15 3 -36 11 -46 14 -18 17 -18 41 -2 16 10 23 21 18 29
-8 12 -9 17 -12 37 0 5 -9 6 -18 3 -17 -7 -17 -6 0 11 9 9 17 20 17 23 0 3 -8
2 -17 -1 -17 -6 -17 -5 0 8 13 10 15 15 5 18 -10 4 -10 8 -2 19 7 8 14 23 17
34 4 17 5 16 7 -5 1 -14 2 -28 1 -32 -1 -10 16 -10 23 0 6 11 -8 78 -17 75 -4
-2 -16 6 -27 17 -24 24 -72 26 -117 4z"/>
<path fill="#ffffff" stroke="none" d="M200 275 c10 -12 8 -22 -9 -50 -12 -20
-21 -45 -21 -56 0 -10 -7 -19 -15 -19 -8 0 -15 9 -15 20 0 10 -7 35 -17 54
-13 29 -14 38 -3 51 16 19 64 20 80 0z"/>
<path fill="#000000" stroke="none" d="M260 175 c-10 -12 -10 -15 3 -15 19 0
31 16 18 24 -5 3 -14 -1 -21 -9z"/>
</g>
</svg>
