<?xml version="1.0" standalone="no"?>
<!DOCTYPE svg PUBLIC "-//W3C//DTD SVG 20010904//EN"
 "http://www.w3.org/TR/2001/REC-SVG-20010904/DTD/svg10.dtd">
<svg version="1.0" xmlns="http://www.w3.org/2000/svg"
 width="32.000000pt" height="32.000000pt" viewBox="0 0 32.000000 32.000000"
 preserveAspectRatio="xMidYMid meet">
<metadata>
Created by potrace 1.16, written by Peter Selinger 2001-2019
</metadata>
<g transform="translate(0.000000,32.000000) scale(0.100000,-0.100000)"
fill="#000000" stroke="none">
<path fill="#000000" stroke="none" d="M0 160 l0 -160 51 0 c29 0 48 4 44 9
-3 6 4 8 17 5 13 -2 65 -7 116 -11 l93 -6 -2 161 -1 162 -159 0 -159 0 0 -160z"/>
<path fill="#ffffff" stroke="none" d="M192 262 c21 -2 78 -50 78 -65 0 -7
-12 2 -26 18 -20 23 -25 25 -22 11 1 -10 -3 -21 -11 -24 -10 -3 -11 0 -5 9 7
12 5 12 -9 1 -14 -12 -15 -16 -2 -29 8 -8 15 -17 15 -20 0 -4 -3 -3 -7 0 -3 4
-15 0 -25 -10 -10 -9 -21 -13 -25 -10 -3 4 -1 7 6 7 7 0 10 4 6 10 -3 5 -13 6
-22 3 -11 -4 -14 -3 -9 5 10 16 -7 15 -23 0 -10 -11 -12 -10 -9 2 2 8 9 17 16
20 11 5 10 9 -4 20 -14 12 -16 12 -10 1 6 -9 5 -12 -5 -9 -8 3 -13 13 -11 23
3 16 2 17 -12 2 -17 -17 -22 -32 -7 -23 5 3 11 -1 15 -9 7 -19 -4 -19 -28 -2
-17 13 -16 15 13 39 17 15 26 28 20 30 -11 4 68 3 103 0z"/>
<path fill="#ffffff" stroke="none" d="M250 189 c0 -5 -7 -9 -15 -9 -9 0 -12
6 -9 15 6 15 24 11 24 -6z"/>
<path fill="#ffffff" stroke="none" d="M50 170 c0 -5 -2 -10 -4 -10 -3 0 -8 5
-11 10 -3 6 -1 10 4 10 6 0 11 -4 11 -10z"/>
<path fill="#ffffff" stroke="none" d="M124 99 c-3 -5 2 -9 11 -9 9 0 13 5 10
10 -3 6 1 10 10 10 9 0 13 -4 10 -10 -3 -5 1 -10 10 -10 9 0 14 -4 11 -9 -4
-5 0 -11 6 -14 10 -3 10 -7 -1 -20 -9 -12 -17 -14 -26 -7 -8 6 -15 6 -23 -2
-9 -9 -12 -9 -12 0 0 7 5 12 11 12 5 0 7 5 4 10 -5 8 -11 8 -20 0 -9 -7 -16
-6 -24 4 -10 12 -8 13 11 9 22 -6 22 -5 6 14 -22 24 -23 34 -3 27 8 -4 12 -10
9 -15z"/>
<path fill="#ffffff" stroke="none" d="M91 53 c13 -16 12 -17 -3 -4 -17 13
-22 21 -14 21 2 0 10 -8 17 -17z"/>
<path fill="#ffffff" stroke="none" d="M25 40 c3 -5 1 -10 -4 -10 -6 0 -11 5
-11 10 0 6 2 10 4 10 3 0 8 -4 11 -10z"/>
<path fill="#000000" stroke="none" d="M114 245 c-18 -13 -18 -14 -1 -15 10 0
15 -5 12 -10 -3 -6 1 -13 9 -16 9 -3 13 -10 10 -15 -3 -5 -1 -9 5 -9 5 0 18
-3 28 -6 17 -5 17 -5 0 6 -18 11 -18 12 0 26 10 7 13 14 8 14 -6 0 -16 -5 -22
-11 -7 -7 -13 -7 -17 0 -4 6 9 13 30 17 34 6 36 8 19 20 -24 18 -56 18 -81 -1z"/>
<path fill="#000000" stroke="none" d="M145 80 c-3 -5 1 -10 10 -10 9 0 13 -4
10 -10 -3 -5 2 -10 11 -10 16 0 16 1 -1 20 -21 23 -22 23 -30 10z"/>
</g>
</svg>
