<?xml version="1.0" standalone="no"?>
<!DOCTYPE svg PUBLIC "-//W3C//DTD SVG 20010904//EN"
 "http://www.w3.org/TR/2001/REC-SVG-20010904/DTD/svg10.dtd">
<svg version="1.0" xmlns="http://www.w3.org/2000/svg"
 width="32.000000pt" height="32.000000pt" viewBox="0 0 32.000000 32.000000"
 preserveAspectRatio="xMidYMid meet">
<metadata>
Created by potrace 1.16, written by Peter Selinger 2001-2019
</metadata>
<g transform="translate(0.000000,32.000000) scale(0.100000,-0.100000)"
fill="#000000" stroke="none">
<path fill="#000000" stroke="none" d="M0 160 l0 -160 160 0 160 0 0 160 0
160 -160 0 -160 0 0 -160z"/>
<path fill="#ffffff" stroke="none" d="M110 250 c0 -5 -5 -10 -11 -10 -5 0 -7
5 -4 10 3 6 8 10 11 10 2 0 4 -4 4 -10z"/>
<path fill="#ffffff" stroke="none" d="M256 217 c21 -23 21 -24 2 -36 -22 -14
-39 -6 -32 14 4 8 10 12 15 9 15 -9 10 6 -7 23 -14 15 -15 14 -12 -3 2 -11 -3
-20 -12 -20 -32 -3 -35 -5 -21 -13 11 -7 11 -13 -3 -32 -13 -19 -16 -20 -16
-6 0 9 -5 17 -11 17 -5 0 -7 -5 -3 -12 5 -7 3 -8 -5 -4 -7 5 -16 18 -21 30 -9
25 -43 31 -60 10 -13 -14 -30 -10 -30 8 0 5 7 8 15 4 8 -3 18 1 22 8 11 20 47
24 48 7 0 -8 6 -16 14 -19 8 -3 11 0 8 6 -4 5 2 12 14 15 16 4 18 3 8 -9 -9
-11 -9 -14 0 -14 7 0 17 13 22 30 12 33 28 30 65 -13z"/>
<path fill="#ffffff" stroke="none" d="M125 152 c-3 -3 -11 0 -18 7 -9 10 -8
11 6 5 10 -3 15 -9 12 -12z"/>
<path fill="#ffffff" stroke="none" d="M130 106 c0 -11 -19 -15 -25 -6 -3 5 1
10 9 10 9 0 16 -2 16 -4z"/>
<path fill="#ffffff" stroke="none" d="M155 90 c-16 -18 -16 -20 -2 -20 10 0
17 4 17 8 0 16 48 33 56 20 4 -6 3 -8 -4 -4 -5 3 -24 -5 -40 -19 -20 -16 -33
-22 -37 -15 -5 8 -11 8 -20 0 -9 -7 -16 -6 -24 4 -10 12 -9 14 6 10 11 -3 24
3 33 16 8 11 19 20 24 20 5 0 1 -9 -9 -20z"/>
<path fill="#ffffff" stroke="none" d="M96 43 c-7 -7 -26 7 -26 19 0 6 6 6 15
-2 9 -7 13 -15 11 -17z"/>
<path fill="#ffffff" stroke="none" d="M197 51 c0 -11 -5 -17 -9 -15 -4 3 -8
0 -8 -6 0 -7 -6 -8 -16 -2 -9 5 -26 7 -38 5 -17 -4 -18 -3 -6 6 8 6 23 8 32 5
9 -3 22 2 30 10 17 20 17 20 15 -3z"/>
<path fill="#000000" stroke="none" d="M146 191 c-3 -5 4 -11 16 -14 29 -8 32
-4 8 11 -10 6 -21 8 -24 3z"/>
</g>
</svg>
