<?xml version="1.0" standalone="no"?>
<!DOCTYPE svg PUBLIC "-//W3C//DTD SVG 20010904//EN"
 "http://www.w3.org/TR/2001/REC-SVG-20010904/DTD/svg10.dtd">
<svg version="1.0" xmlns="http://www.w3.org/2000/svg"
 width="32.000000pt" height="32.000000pt" viewBox="0 0 32.000000 32.000000"
 preserveAspectRatio="xMidYMid meet">
<metadata>
Created by potrace 1.16, written by Peter Selinger 2001-2019
</metadata>
<g transform="translate(0.000000,32.000000) scale(0.100000,-0.100000)"
fill="#000000" stroke="none">
<path fill="#000000" stroke="none" d="M92 234 c-2 -19 2 -34 8 -34 6 0 8 6 4
13 -5 7 -1 6 10 -3 17 -13 17 -14 -1 -21 -16 -7 -15 -8 5 -8 13 -1 21 -5 18
-9 -3 -5 8 -9 25 -9 19 0 25 3 17 9 -9 5 -7 8 7 9 11 0 14 3 7 6 -6 2 -10 9
-7 13 3 5 12 7 20 3 10 -3 15 2 15 17 0 19 2 20 15 6 17 -17 20 -30 5 -21 -5
3 -10 -1 -10 -11 0 -13 3 -14 13 -5 8 6 18 7 22 3 5 -4 2 4 -6 17 -19 31 -65
63 -57 41 2 -8 -3 -22 -11 -32 -16 -19 -37 -25 -26 -8 3 6 -1 10 -10 10 -9 0
-13 -5 -9 -11 4 -7 1 -10 -7 -7 -8 3 -13 11 -12 17 2 6 -4 11 -12 11 -8 0 -12
6 -9 14 3 8 1 16 -3 19 -5 3 -10 -10 -11 -29z"/>
<path fill="#ffffff" stroke="none" d="M165 190 c3 -5 -1 -10 -10 -10 -9 0
-13 5 -10 10 3 6 8 10 10 10 2 0 7 -4 10 -10z"/>
<path fill="#000000" stroke="none" d="M148 263 c7 -3 16 -2 19 1 4 3 -2 6
-13 5 -11 0 -14 -3 -6 -6z"/>
<path fill="#000000" stroke="none" d="M65 230 c-3 -5 -1 -10 4 -10 6 0 11 5
11 10 0 6 -2 10 -4 10 -3 0 -8 -4 -11 -10z"/>
<path fill="#000000" stroke="none" d="M104 8 c-3 -4 15 -8 40 -8 25 0 46 2
46 4 0 8 -82 11 -86 4z"/>
</g>
</svg>
