<?xml version="1.0" standalone="no"?>
<!DOCTYPE svg PUBLIC "-//W3C//DTD SVG 20010904//EN"
 "http://www.w3.org/TR/2001/REC-SVG-20010904/DTD/svg10.dtd">
<svg version="1.0" xmlns="http://www.w3.org/2000/svg"
 width="32.000000pt" height="32.000000pt" viewBox="0 0 32.000000 32.000000"
 preserveAspectRatio="xMidYMid meet">
<metadata>
Created by potrace 1.16, written by Peter Selinger 2001-2019
</metadata>
<g transform="translate(0.000000,32.000000) scale(0.100000,-0.100000)"
fill="#000000" stroke="none">
<path fill="#000000" stroke="none" d="M94 277 c-17 -7 -39 -20 -49 -31 -18
-18 -18 -19 15 -46 18 -15 30 -32 26 -38 -4 -7 3 -9 21 -7 16 2 22 2 15 -1 -6
-3 -9 -10 -6 -16 4 -6 -1 -8 -14 -4 -21 7 -38 -17 -25 -36 3 -7 1 -8 -5 -4
-17 10 -15 -6 3 -30 10 -13 14 -15 15 -5 0 11 4 10 19 -3 14 -12 21 -14 26 -6
5 8 10 9 18 1 8 -8 16 -6 29 6 12 11 18 12 18 4 0 -9 5 -8 15 3 19 19 19 30
-1 22 -10 -4 -13 -2 -8 6 5 7 2 9 -9 5 -11 -4 -14 -2 -11 8 3 8 12 11 22 7 14
-5 15 -4 2 10 -8 8 -21 13 -29 10 -9 -3 -12 -1 -7 6 4 7 1 12 -9 12 -9 0 -13
-5 -10 -10 3 -6 -2 -10 -11 -10 -16 0 -16 1 1 20 13 14 22 17 30 10 9 -8 17
-3 29 15 9 14 22 25 29 25 6 0 18 4 25 9 29 18 -65 83 -117 80 -9 0 -30 -6
-47 -12z"/>
<path fill="#ffffff" stroke="none" d="M179 271 c11 -7 10 -11 -7 -20 -28 -15
-47 -14 -61 3 -9 11 -9 15 1 19 21 9 52 7 67 -2z"/>
<path fill="#ffffff" stroke="none" d="M205 240 c3 -5 1 -10 -4 -10 -6 0 -11
5 -11 10 0 6 2 10 4 10 3 0 8 -4 11 -10z"/>
</g>
</svg>
