<?xml version="1.0" standalone="no"?>
<!DOCTYPE svg PUBLIC "-//W3C//DTD SVG 20010904//EN"
 "http://www.w3.org/TR/2001/REC-SVG-20010904/DTD/svg10.dtd">
<svg version="1.0" xmlns="http://www.w3.org/2000/svg"
 width="32.000000pt" height="32.000000pt" viewBox="0 0 32.000000 32.000000"
 preserveAspectRatio="xMidYMid meet">
<metadata>
Created by potrace 1.16, written by Peter Selinger 2001-2019
</metadata>
<g transform="translate(0.000000,32.000000) scale(0.100000,-0.100000)"
fill="#000000" stroke="none">
<path fill="#000000" stroke="none" d="M113 260 c-13 -5 -23 -14 -23 -20 0 -5
-5 -10 -11 -10 -5 0 -7 6 -3 13 4 7 3 9 -2 4 -5 -5 -7 -10 -4 -12 3 -2 -4 -11
-15 -20 -20 -15 -20 -15 0 -30 11 -9 26 -13 34 -10 9 3 12 3 8 -1 -3 -4 2 -19
13 -34 15 -21 25 -26 45 -22 16 3 25 0 25 -8 0 -9 3 -10 13 -1 20 16 42 -33
23 -51 -19 -19 -102 -15 -126 7 -17 16 -20 16 -20 2 0 -25 29 -38 85 -38 66 0
89 14 80 50 -4 14 -11 32 -17 39 -13 15 -18 82 -6 82 4 0 8 -7 8 -15 0 -19 20
-19 45 -1 19 14 19 15 -5 36 -51 44 -103 58 -147 40z"/>
<path fill="#ffffff" stroke="none" d="M185 251 c10 -17 -34 -34 -51 -21 -7 7
-11 16 -8 21 7 12 51 11 59 0z"/>
<path fill="#ffffff" stroke="none" d="M100 201 c0 -5 -7 -12 -16 -15 -14 -5
-15 -4 -4 9 14 17 20 19 20 6z"/>
<path fill="#ffffff" stroke="none" d="M130 170 c0 -5 -5 -10 -11 -10 -5 0 -7
5 -4 10 3 6 8 10 11 10 2 0 4 -4 4 -10z"/>
<path fill="#ffffff" stroke="none" d="M198 162 c2 -7 -1 -12 -8 -12 -6 0 -9
4 -6 9 4 5 1 12 -4 14 -6 3 -5 4 2 3 6 -1 14 -8 16 -14z"/>
<path fill="#ffffff" stroke="none" d="M145 150 c-10 -11 -21 -18 -23 -15 -3
3 3 12 14 20 27 20 30 18 9 -5z"/>
<path fill="#ffffff" stroke="none" d="M170 140 c0 -5 -5 -10 -11 -10 -5 0 -7
5 -4 10 3 6 8 10 11 10 2 0 4 -4 4 -10z"/>
<path fill="#000000" stroke="none" d="M97 105 c-3 -7 0 -12 8 -11 22 3 27 13
11 19 -8 3 -17 0 -19 -8z"/>
<path fill="#000000" stroke="none" d="M145 100 c3 -5 -1 -10 -9 -10 -9 0 -16
-4 -16 -10 0 -5 -8 -6 -17 -3 -16 6 -16 5 -4 -10 13 -17 15 -16 36 3 15 14 25
18 30 11 3 -6 -1 -11 -10 -11 -9 0 -13 -5 -10 -10 5 -8 11 -8 20 0 9 8 15 8
20 1 8 -15 34 10 28 26 -3 8 -14 11 -31 6 -17 -4 -23 -2 -18 6 4 6 1 11 -9 11
-9 0 -13 -4 -10 -10z"/>
<path fill="#ffffff" stroke="none" d="M200 80 c0 -5 -5 -10 -11 -10 -5 0 -7
5 -4 10 3 6 8 10 11 10 2 0 4 -4 4 -10z"/>
</g>
</svg>
