<?xml version="1.0" standalone="no"?>
<!DOCTYPE svg PUBLIC "-//W3C//DTD SVG 20010904//EN"
 "http://www.w3.org/TR/2001/REC-SVG-20010904/DTD/svg10.dtd">
<svg version="1.0" xmlns="http://www.w3.org/2000/svg"
 width="32.000000pt" height="32.000000pt" viewBox="0 0 32.000000 32.000000"
 preserveAspectRatio="xMidYMid meet">
<metadata>
Created by potrace 1.16, written by Peter Selinger 2001-2019
</metadata>
<g transform="translate(0.000000,32.000000) scale(0.100000,-0.100000)"
fill="#000000" stroke="none">
<path fill="#000000" stroke="none" d="M0 160 l0 -161 43 2 c42 2 43 4 45 37
2 19 8 44 14 56 15 26 18 67 6 59 -6 -3 -8 -14 -5 -24 3 -10 0 -20 -6 -22 -5
-1 -14 -23 -18 -48 l-8 -44 3 48 c3 43 2 47 -19 47 -18 0 -24 7 -28 36 -4 21
-4 57 0 80 5 42 7 44 39 44 18 0 36 5 39 10 8 13 25 13 25 -1 0 -5 -5 -7 -10
-4 -16 10 -24 -24 -9 -41 18 -22 62 -14 74 14 8 17 18 22 48 22 37 0 39 -2 33
-24 -4 -17 -1 -28 10 -34 9 -5 14 -18 12 -28 -4 -19 -19 -22 -50 -9 -14 6 -18
2 -18 -16 0 -25 20 -65 20 -41 0 6 7 12 15 12 8 0 15 -4 15 -10 0 -5 -7 -10
-15 -10 -17 0 -18 -2 -9 -24 4 -10 18 -16 40 -16 l34 0 0 125 0 125 -160 0
-160 0 0 -160z"/>
<path fill="#ffffff" stroke="none" d="M190 286 c0 -3 -5 -17 -10 -31 -8 -21
-16 -26 -37 -23 -16 2 -29 10 -31 20 -2 12 4 16 28 14 17 -1 34 2 37 7 4 6 1
7 -7 2 -9 -5 -11 -4 -6 3 7 11 26 17 26 8z"/>
<path fill="#000000" stroke="none" d="M43 241 c1 -15 4 -17 14 -9 7 5 10 14
7 19 -10 16 -23 9 -21 -10z"/>
<path fill="#000000" stroke="none" d="M232 249 c2 -6 8 -10 13 -10 5 0 11 4
13 10 2 6 -4 11 -13 11 -9 0 -15 -5 -13 -11z"/>
<path fill="#000000" stroke="none" d="M72 238 c-17 -17 -15 -25 9 -31 15 -4
20 -11 15 -22 -3 -9 -2 -14 3 -11 5 3 14 -1 21 -9 7 -8 18 -15 25 -15 7 0 18
7 25 15 7 8 16 13 20 10 4 -3 7 3 6 13 0 11 7 18 22 20 25 4 28 14 9 31 -11 8
-18 6 -32 -9 -24 -27 -79 -27 -98 0 -10 15 -16 17 -25 8z"/>
<path fill="#000000" stroke="none" d="M247 206 c-5 -14 10 -36 25 -36 13 0 9
27 -6 39 -10 9 -15 8 -19 -3z"/>
<path fill="#000000" stroke="none" d="M36 201 c-4 -5 -2 -12 3 -15 5 -4 12
-2 15 3 4 5 2 12 -3 15 -5 4 -12 2 -15 -3z"/>
<path fill="#000000" stroke="none" d="M40 150 c0 -13 7 -20 19 -20 11 0 22
-6 24 -12 4 -8 6 -7 6 4 2 29 -11 48 -30 48 -12 0 -19 -7 -19 -20z"/>
<path fill="#000000" stroke="none" d="M164 148 c-3 -5 -14 -8 -23 -5 -16 4
-17 -1 -10 -45 11 -71 18 -88 36 -88 10 0 13 5 8 18 -3 9 -9 39 -12 66 -5 36
-3 47 6 42 6 -4 8 -13 4 -19 -3 -7 3 -3 15 7 12 11 20 22 17 25 -10 9 -35 9
-41 -1z"/>
<path fill="#000000" stroke="none" d="M201 116 c-10 -12 -8 -23 13 -58 l26
-43 0 35 c-1 19 -6 45 -14 58 -11 20 -14 21 -25 8z"/>
<path fill="#000000" stroke="none" d="M118 13 c7 -3 16 -2 19 1 4 3 -2 6 -13
5 -11 0 -14 -3 -6 -6z"/>
<path fill="#000000" stroke="none" d="M285 10 c-3 -5 3 -10 14 -10 12 0 21 5
21 10 0 6 -6 10 -14 10 -8 0 -18 -4 -21 -10z"/>
</g>
</svg>
