<?xml version="1.0" standalone="no"?>
<!DOCTYPE svg PUBLIC "-//W3C//DTD SVG 20010904//EN"
 "http://www.w3.org/TR/2001/REC-SVG-20010904/DTD/svg10.dtd">
<svg version="1.0" xmlns="http://www.w3.org/2000/svg"
 width="32.000000pt" height="32.000000pt" viewBox="0 0 32.000000 32.000000"
 preserveAspectRatio="xMidYMid meet">
<metadata>
Created by potrace 1.16, written by Peter Selinger 2001-2019
</metadata>
<g transform="translate(0.000000,32.000000) scale(0.100000,-0.100000)"
fill="#000000" stroke="none">
<path fill="#000000" stroke="none" d="M0 160 l0 -160 38 1 c23 1 28 3 15 6
-21 4 -23 10 -24 81 -1 54 -3 69 -9 52 -5 -17 -8 6 -9 68 l-1 92 148 -2 c109
-1 132 -3 87 -8 -60 -7 -60 -7 -12 -8 46 -2 47 -3 47 -35 0 -18 5 -38 11 -44
9 -9 9 -20 0 -44 -18 -52 -14 -89 9 -89 19 0 20 7 20 125 l0 125 -160 0 -160
0 0 -160z"/>
<path fill="#000000" stroke="none" d="M20 273 c0 -12 3 -14 8 -6 4 6 23 13
42 16 33 4 33 4 -7 5 -35 2 -43 -1 -43 -15z"/>
<path fill="#000000" stroke="none" d="M138 283 c7 -3 16 -2 19 1 4 3 -2 6
-13 5 -11 0 -14 -3 -6 -6z"/>
<path fill="#000000" stroke="none" d="M21 224 c0 -11 3 -14 6 -6 3 7 2 16 -1
19 -3 4 -6 -2 -5 -13z"/>
<path fill="#000000" stroke="none" d="M136 202 c-3 -5 1 -9 9 -9 8 0 12 4 9
9 -3 4 -7 8 -9 8 -2 0 -6 -4 -9 -8z"/>
<path fill="#000000" stroke="none" d="M137 157 c-3 -8 1 -14 8 -14 7 0 11 6
8 14 -3 7 -6 13 -8 13 -2 0 -5 -6 -8 -13z"/>
<path fill="#000000" stroke="none" d="M285 10 c-3 -5 3 -10 14 -10 12 0 21 5
21 10 0 6 -6 10 -14 10 -8 0 -18 -4 -21 -10z"/>
</g>
</svg>
