<?xml version="1.0" standalone="no"?>
<!DOCTYPE svg PUBLIC "-//W3C//DTD SVG 20010904//EN"
 "http://www.w3.org/TR/2001/REC-SVG-20010904/DTD/svg10.dtd">
<svg version="1.0" xmlns="http://www.w3.org/2000/svg"
 width="32.000000pt" height="32.000000pt" viewBox="0 0 32.000000 32.000000"
 preserveAspectRatio="xMidYMid meet">
<metadata>
Created by potrace 1.16, written by Peter Selinger 2001-2019
</metadata>
<g transform="translate(0.000000,32.000000) scale(0.100000,-0.100000)"
fill="#000000" stroke="none">
<path fill="#000000" stroke="none" d="M0 160 l0 -160 160 0 160 0 0 160 0
160 -160 0 -160 0 0 -160z"/>
<path fill="#ffffff" stroke="none" d="M239 245 c17 -4 31 -13 31 -21 0 -8 5
-14 10 -14 6 0 10 -14 10 -31 0 -26 -3 -29 -20 -24 -24 8 -29 -22 -5 -31 20
-8 19 -40 -1 -48 -28 -11 -174 -7 -174 5 0 5 4 7 10 4 5 -3 7 0 4 8 -3 8 -14
17 -25 20 -11 3 -19 9 -18 14 4 21 -2 34 -12 27 -8 -4 -7 -9 2 -15 11 -7 10
-9 -3 -9 -21 0 -35 55 -18 75 7 8 9 15 5 15 -4 0 -2 6 5 14 17 22 125 27 199
11z"/>
</g>
</svg>
