<?xml version="1.0" standalone="no"?>
<!DOCTYPE svg PUBLIC "-//W3C//DTD SVG 20010904//EN"
 "http://www.w3.org/TR/2001/REC-SVG-20010904/DTD/svg10.dtd">
<svg version="1.0" xmlns="http://www.w3.org/2000/svg"
 width="32.000000pt" height="32.000000pt" viewBox="0 0 32.000000 32.000000"
 preserveAspectRatio="xMidYMid meet">
<metadata>
Created by potrace 1.16, written by Peter Selinger 2001-2019
</metadata>
<g transform="translate(0.000000,32.000000) scale(0.100000,-0.100000)"
fill="#000000" stroke="none">
<path fill="#000000" stroke="none" d="M0 160 l0 -160 160 0 160 0 0 160 0
160 -160 0 -160 0 0 -160z"/>
<path fill="#ffffff" stroke="none" d="M133 248 c3 -10 9 -10 27 1 20 11 24
11 32 -3 7 -12 18 -15 41 -11 28 5 34 2 44 -21 14 -30 9 -44 -15 -44 -9 0 -24
-5 -32 -11 -13 -9 -12 -10 3 -5 11 3 17 0 17 -10 0 -8 7 -17 15 -20 21 -8 19
-41 -2 -48 -10 -3 -53 -5 -96 -4 -68 0 -77 3 -72 17 4 13 -4 21 -30 31 -19 8
-35 18 -35 23 0 5 11 2 25 -7 32 -21 33 -20 31 8 -1 20 -4 22 -15 13 -12 -9
-13 -9 -7 1 5 8 1 12 -13 12 -24 0 -35 15 -24 33 4 6 8 17 8 22 0 6 12 10 27
10 15 0 33 6 39 13 7 6 16 12 20 12 4 0 9 -6 12 -12z"/>
<path fill="#000000" stroke="none" d="M100 235 c-7 -9 -8 -15 0 -20 5 -3 10
-3 10 2 0 4 16 8 35 8 19 0 35 -4 35 -8 0 -5 5 -5 10 -2 8 5 7 11 -1 21 -9 11
-15 12 -26 2 -11 -9 -19 -9 -33 0 -14 9 -21 8 -30 -3z"/>
<path fill="#000000" stroke="none" d="M56 209 c10 -12 18 -24 17 -28 -2 -3 2
-7 7 -7 6 -1 12 -3 15 -4 5 -2 17 -6 33 -9 4 -1 0 -7 -8 -14 -8 -7 -15 -24
-15 -38 -1 -22 3 -26 35 -27 25 -2 42 3 54 17 19 20 12 22 -31 7 -13 -4 -30
-2 -40 4 -16 10 -16 10 3 5 28 -7 84 16 59 25 -9 3 -16 9 -16 13 1 4 3 6 4 5
2 -2 12 4 22 12 14 11 17 11 11 2 -7 -11 -4 -12 13 -3 11 7 21 14 21 17 0 3
-6 2 -12 -2 -7 -4 -2 5 11 19 27 30 14 36 -29 14 -33 -18 -100 -18 -125 -1
-32 23 -52 18 -29 -7z"/>
<path fill="#ffffff" stroke="none" d="M161 127 c-5 -5 -18 -7 -28 -3 -14 6
-15 9 -4 16 19 11 46 1 32 -13z"/>
<path fill="#000000" stroke="none" d="M37 203 c-4 -3 -7 -11 -7 -17 0 -6 5
-5 12 2 6 6 9 14 7 17 -3 3 -9 2 -12 -2z"/>
<path fill="#000000" stroke="none" d="M252 199 c2 -7 10 -15 17 -17 8 -3 12
1 9 9 -2 7 -10 15 -17 17 -8 3 -12 -1 -9 -9z"/>
</g>
</svg>
