<?xml version="1.0" standalone="no"?>
<!DOCTYPE svg PUBLIC "-//W3C//DTD SVG 20010904//EN"
 "http://www.w3.org/TR/2001/REC-SVG-20010904/DTD/svg10.dtd">
<svg version="1.0" xmlns="http://www.w3.org/2000/svg"
 width="32.000000pt" height="32.000000pt" viewBox="0 0 32.000000 32.000000"
 preserveAspectRatio="xMidYMid meet">
<metadata>
Created by potrace 1.16, written by Peter Selinger 2001-2019
</metadata>
<g transform="translate(0.000000,32.000000) scale(0.100000,-0.100000)"
fill="#000000" stroke="none">
<path fill="#000000" stroke="none" d="M0 160 l0 -160 76 0 c47 0 73 4 69 10
-3 5 -21 9 -38 7 -28 -2 -32 1 -35 27 -2 15 2 41 8 56 17 41 4 73 -27 67 -31
-6 -42 17 -19 42 11 12 13 20 5 28 -17 17 0 35 26 29 14 -4 28 0 35 9 10 12
16 13 27 3 11 -9 19 -9 33 0 14 9 21 8 30 -3 7 -9 26 -14 44 -12 26 2 31 -2
31 -19 0 -11 6 -28 14 -37 16 -21 7 -51 -14 -43 -8 3 -22 9 -30 12 -11 5 -15
-1 -15 -21 0 -15 4 -24 10 -20 6 3 10 -3 10 -14 0 -38 11 -51 46 -51 l34 0 0
125 0 125 -160 0 -160 0 0 -160z"/>
<path fill="#000000" stroke="none" d="M75 231 c-3 -5 -2 -12 3 -15 5 -3 9 1
9 9 0 17 -3 19 -12 6z"/>
<path fill="#000000" stroke="none" d="M211 227 c-8 -10 -7 -14 2 -14 8 0 14
6 14 14 0 7 -1 13 -2 13 -2 0 -8 -6 -14 -13z"/>
<path fill="#000000" stroke="none" d="M112 195 c14 -17 15 -23 3 -39 -8 -10
-11 -24 -8 -30 4 -6 10 0 13 14 4 16 13 25 25 25 12 0 21 -9 25 -25 3 -14 9
-20 13 -14 3 6 0 20 -8 30 -12 16 -11 22 3 39 17 20 17 20 -5 2 -21 -18 -21
-18 -26 0 -4 17 -5 17 -6 -1 -1 -19 -1 -19 -23 0 -23 19 -23 19 -6 -1z"/>
<path fill="#000000" stroke="none" d="M202 107 c-8 -9 -6 -21 8 -42 l19 -29
-4 29 c-2 17 -4 32 -5 35 -2 3 -2 8 -1 13 2 11 -5 9 -17 -6z"/>
<path fill="#000000" stroke="none" d="M90 91 c-5 -11 -10 -30 -9 -43 1 -18 3
-17 8 8 4 17 11 36 15 42 4 7 5 12 2 12 -3 0 -10 -9 -16 -19z"/>
<path fill="#000000" stroke="none" d="M137 93 c-7 -12 11 -53 23 -53 7 0 9 9
5 23 -9 28 -21 41 -28 30z"/>
<path fill="#000000" stroke="none" d="M105 40 c-3 -6 1 -7 9 -4 18 7 21 14 7
14 -6 0 -13 -4 -16 -10z"/>
<path fill="#000000" stroke="none" d="M235 15 l-40 -13 63 -1 c35 -1 62 3 62
9 0 6 -4 10 -9 10 -5 0 -15 2 -23 4 -7 2 -31 -2 -53 -9z"/>
</g>
</svg>
