<?xml version="1.0" standalone="no"?>
<!DOCTYPE svg PUBLIC "-//W3C//DTD SVG 20010904//EN"
 "http://www.w3.org/TR/2001/REC-SVG-20010904/DTD/svg10.dtd">
<svg version="1.0" xmlns="http://www.w3.org/2000/svg"
 width="32.000000pt" height="32.000000pt" viewBox="0 0 32.000000 32.000000"
 preserveAspectRatio="xMidYMid meet">
<metadata>
Created by potrace 1.16, written by Peter Selinger 2001-2019
</metadata>
<g transform="translate(0.000000,32.000000) scale(0.100000,-0.100000)"
fill="#000000" stroke="none">
<path fill="#000000" stroke="none" d="M100 275 c-8 -9 -21 -13 -35 -9 -26 6
-43 -12 -26 -29 8 -8 6 -16 -5 -28 -23 -25 -12 -48 19 -42 31 6 44 -26 27 -67
-6 -15 -10 -41 -8 -56 3 -25 8 -29 33 -29 17 -1 38 -5 48 -9 32 -15 175 33
162 54 -4 6 -19 10 -34 10 -21 0 -31 8 -44 35 -22 45 -23 79 -2 71 8 -3 22 -9
30 -12 21 -8 30 22 14 43 -8 9 -14 26 -14 37 0 17 -6 21 -30 19 -16 -1 -37 5
-47 14 -16 14 -21 12 -20 -7 0 -3 -10 -5 -23 -5 -13 0 -21 3 -19 7 9 14 -14
17 -26 3z"/>
<path fill="#ffffff" stroke="none" d="M115 269 c-6 -9 20 -79 30 -79 11 0 36
71 29 82 -6 11 -4 11 7 0 11 -10 11 -16 1 -32 -16 -26 -15 -37 3 -37 8 0 13 2
10 5 -2 3 0 13 6 24 8 15 13 17 25 7 19 -16 18 -23 -8 -34 -13 -6 -22 -17 -20
-24 1 -7 -2 -10 -7 -7 -5 3 -14 -1 -21 -9 -16 -19 -34 -19 -50 0 -7 8 -17 12
-23 8 -5 -3 -7 -1 -4 4 4 6 0 16 -8 23 -13 11 -18 10 -29 -6 -8 -10 -18 -16
-22 -12 -4 4 7 22 25 40 30 31 37 28 33 -13 -1 -3 6 -6 14 -6 17 0 18 19 3 34
-11 11 -6 43 6 43 4 0 3 -5 0 -11z"/>
<path fill="#ffffff" stroke="none" d="M61 247 c-1 -12 -15 -9 -19 4 -3 6 1
10 8 8 6 -3 11 -8 11 -12z"/>
<path fill="#ffffff" stroke="none" d="M258 249 c-2 -6 -8 -10 -13 -10 -5 0
-11 4 -13 10 -2 6 4 11 13 11 9 0 15 -5 13 -11z"/>
<path fill="#ffffff" stroke="none" d="M280 184 c0 -17 -12 -18 -27 -3 -17 17
-5 43 13 28 8 -6 14 -18 14 -25z"/>
<path fill="#ffffff" stroke="none" d="M123 135 c-5 -13 -23 -22 -23 -11 0 15
14 35 21 31 4 -3 6 -12 2 -20z"/>
<path fill="#ffffff" stroke="none" d="M209 151 c2 -1 -4 -10 -15 -22 -17 -19
-19 -19 -25 -2 -9 24 -3 32 19 28 9 -2 19 -4 21 -4z"/>
<path fill="#ffffff" stroke="none" d="M163 87 c3 -23 9 -51 13 -60 4 -12 1
-17 -9 -17 -24 0 -49 104 -31 123 13 12 21 -3 27 -46z"/>
<path fill="#ffffff" stroke="none" d="M239 50 c0 -29 -1 -32 -10 -17 -6 10
-22 22 -35 27 -13 5 -24 15 -24 21 0 6 7 8 16 5 9 -3 12 -2 9 5 -4 5 -1 17 6
25 11 13 14 13 25 -8 8 -13 13 -39 13 -58z"/>
<path fill="#ffffff" stroke="none" d="M99 88 c-11 -20 -10 -21 3 -10 27 22
27 -10 1 -35 l-23 -22 0 29 c0 35 9 60 21 60 6 0 4 -10 -2 -22z"/>
<path fill="#ffffff" stroke="none" d="M130 46 c0 -2 -7 -7 -16 -10 -8 -3 -12
-2 -9 4 6 10 25 14 25 6z"/>
</g>
</svg>
