<?xml version="1.0" standalone="no"?>
<!DOCTYPE svg PUBLIC "-//W3C//DTD SVG 20010904//EN"
 "http://www.w3.org/TR/2001/REC-SVG-20010904/DTD/svg10.dtd">
<svg version="1.0" xmlns="http://www.w3.org/2000/svg"
 width="32.000000pt" height="32.000000pt" viewBox="0 0 32.000000 32.000000"
 preserveAspectRatio="xMidYMid meet">
<metadata>
Created by potrace 1.16, written by Peter Selinger 2001-2019
</metadata>
<g transform="translate(0.000000,32.000000) scale(0.100000,-0.100000)"
fill="#000000" stroke="none">
<path fill="#000000" stroke="none" d="M100 275 c-7 -9 -21 -13 -35 -9 -26 6
-43 -12 -26 -29 8 -8 6 -16 -5 -28 -23 -25 -12 -48 19 -42 31 6 44 -26 27 -67
-6 -15 -10 -41 -8 -56 3 -25 8 -29 33 -29 17 -1 38 -5 48 -9 32 -15 175 33
162 54 -4 6 -19 10 -34 10 -21 0 -31 8 -44 35 -22 45 -23 79 -2 71 8 -3 22 -9
30 -12 21 -8 30 22 14 43 -8 9 -14 26 -14 37 0 17 -5 21 -31 19 -18 -2 -37 3
-44 12 -9 11 -16 12 -30 3 -14 -9 -22 -9 -33 0 -11 10 -17 9 -27 -3z"/>
<path fill="#ffffff" stroke="none" d="M87 225 c0 -8 -4 -12 -9 -9 -5 3 -6 10
-3 15 9 13 12 11 12 -6z"/>
<path fill="#ffffff" stroke="none" d="M227 227 c0 -8 -6 -14 -14 -14 -9 0
-10 4 -2 14 6 7 12 13 14 13 1 0 2 -6 2 -13z"/>
<path fill="#ffffff" stroke="none" d="M155 200 c3 6 11 8 16 4 6 -4 3 -14 -7
-25 -16 -18 -19 -18 -35 -3 -21 19 -15 41 6 24 9 -8 15 -8 20 0z"/>
<path fill="#ffffff" stroke="none" d="M219 113 c-1 -5 -1 -10 1 -13 1 -3 3
-18 5 -35 l4 -29 -19 29 c-14 21 -16 33 -8 42 12 15 19 17 17 6z"/>
<path fill="#ffffff" stroke="none" d="M104 98 c-4 -6 -11 -25 -15 -42 -5 -25
-7 -26 -8 -8 -1 23 15 62 25 62 3 0 2 -5 -2 -12z"/>
<path fill="#ffffff" stroke="none" d="M165 63 c9 -30 -13 -30 -24 0 -9 24 -3
44 9 30 4 -4 11 -18 15 -30z"/>
<path fill="#ffffff" stroke="none" d="M130 46 c0 -2 -7 -7 -16 -10 -8 -3 -12
-2 -9 4 6 10 25 14 25 6z"/>
</g>
</svg>
