<?xml version="1.0" standalone="no"?>
<!DOCTYPE svg PUBLIC "-//W3C//DTD SVG 20010904//EN"
 "http://www.w3.org/TR/2001/REC-SVG-20010904/DTD/svg10.dtd">
<svg version="1.0" xmlns="http://www.w3.org/2000/svg"
 width="32.000000pt" height="32.000000pt" viewBox="0 0 32.000000 32.000000"
 preserveAspectRatio="xMidYMid meet">
<metadata>
Created by potrace 1.16, written by Peter Selinger 2001-2019
</metadata>
<g transform="translate(0.000000,32.000000) scale(0.100000,-0.100000)"
fill="#000000" stroke="none">
<path fill="#000000" stroke="none" d="M4 305 c-3 -8 -4 -20 -1 -27 3 -7 6 -3
6 9 1 16 9 23 29 26 l27 4 -28 2 c-16 0 -30 -5 -33 -14z"/>
<path fill="#000000" stroke="none" d="M98 313 c12 -2 30 -2 40 0 9 3 -1 5
-23 4 -22 0 -30 -2 -17 -4z"/>
<path fill="#000000" stroke="none" d="M165 310 c3 -6 2 -10 -3 -10 -6 0 -13
-11 -16 -25 -4 -17 -13 -25 -28 -25 l-22 0 22 16 c12 8 22 20 22 25 0 6 -16
-2 -35 -16 -24 -19 -43 -26 -66 -23 -17 2 -31 0 -30 -4 1 -5 1 -13 1 -20 0 -9
3 -9 12 0 7 7 20 12 30 12 22 0 25 -35 3 -44 -8 -3 -15 -1 -15 3 0 5 6 11 13
14 6 2 9 8 4 12 -11 13 -31 -11 -24 -29 5 -11 19 -16 49 -16 33 0 39 -3 30
-12 -19 -19 -14 -33 6 -15 10 10 24 17 30 17 7 0 12 12 12 26 0 18 5 25 18 23
9 -1 25 1 35 6 9 4 24 5 32 1 20 -7 19 -42 -1 -50 -14 -6 -15 -4 -4 10 12 13
11 17 0 24 -16 10 -41 -6 -39 -24 3 -27 -3 -32 -30 -28 -33 5 -61 -26 -62 -68
l0 -25 -10 23 c-5 13 -7 27 -5 31 3 4 -14 8 -37 8 -23 0 -31 -1 -17 -4 49 -9
70 -67 25 -71 -32 -2 -42 16 -20 36 16 16 17 15 10 -8 -6 -20 -5 -23 5 -13 15
14 6 43 -14 43 -17 0 -31 -34 -21 -51 4 -6 17 -14 29 -19 19 -8 18 -9 -9 -11
l-30 -2 35 -7 35 -7 -37 -2 c-27 -1 -38 4 -41 16 -4 14 -5 12 -6 -4 -1 -23 -1
-23 159 -23 l160 0 0 160 0 160 -27 -1 c-24 -2 -25 -2 -5 -6 15 -3 22 -11 21
-26 -1 -17 -2 -18 -6 -4 -2 9 -8 17 -13 17 -14 0 -21 -18 -10 -25 17 -10 11
-35 -7 -35 -16 0 -16 2 -3 10 13 9 12 13 -9 30 -26 23 -42 26 -38 8 1 -6 -6
-14 -17 -16 -12 -3 -16 0 -11 8 5 8 3 11 -6 8 -8 -3 -14 -11 -14 -19 0 -10 11
-13 40 -12 39 2 40 2 10 -8 -16 -6 -39 -11 -50 -12 -11 -1 -24 -12 -30 -24
-10 -24 -48 -32 -60 -13 -10 16 16 41 39 38 29 -3 46 9 39 29 -4 9 1 21 11 28
15 11 15 13 1 19 -9 3 -13 2 -10 -4z"/>
<path fill="#ffffff" stroke="none" d="M307 193 c-3 -10 -5 -2 -5 17 0 19 2
27 5 18 2 -10 2 -26 0 -35z"/>
<path fill="#ffffff" stroke="none" d="M281 178 c-11 -30 -37 -46 -52 -31 -8
8 -6 11 7 10 11 -1 23 8 29 21 13 29 27 29 16 0z"/>
<path fill="#ffffff" stroke="none" d="M310 146 c0 -17 -52 -39 -77 -33 -13 3
-11 5 8 6 14 0 34 10 45 20 23 24 24 24 24 7z"/>
<path fill="#ffffff" stroke="none" d="M180 146 c0 -3 -11 -17 -25 -32 -28
-30 -34 -21 -9 14 13 19 34 30 34 18z"/>
<path fill="#ffffff" stroke="none" d="M205 107 c16 -17 2 -47 -22 -47 -15 0
-14 2 2 13 10 8 15 19 11 26 -10 15 -28 3 -20 -12 4 -8 2 -7 -7 1 -12 11 -12
14 1 22 19 12 19 12 35 -3z"/>
<path fill="#ffffff" stroke="none" d="M250 85 c0 -9 -11 -27 -24 -40 -13 -13
-22 -25 -20 -27 2 -2 -11 -5 -29 -6 -32 -2 -32 -2 10 17 29 14 44 28 49 45 7
29 14 34 14 11z"/>
<path fill="#ffffff" stroke="none" d="M275 79 c-5 -15 -4 -19 4 -15 6 4 11 3
11 -3 0 -5 -4 -12 -9 -16 -12 -7 -25 31 -16 45 11 18 17 11 10 -11z"/>
<path fill="#ffffff" stroke="none" d="M310 56 c0 -25 -30 -46 -63 -45 l-32 1
31 7 c41 10 54 19 54 37 0 8 2 14 5 14 3 0 5 -6 5 -14z"/>
<path fill="#ffffff" stroke="none" d="M135 50 c-4 -7 3 -9 22 -5 l28 6 -25
-15 c-14 -8 -36 -15 -50 -15 l-25 1 25 8 c21 7 22 8 5 10 l-20 1 20 9 c27 12
27 12 20 0z"/>
<path fill="#ffffff" stroke="none" d="M260 40 c0 -5 -5 -10 -11 -10 -5 0 -7
5 -4 10 3 6 8 10 11 10 2 0 4 -4 4 -10z"/>
<path fill="#000000" stroke="none" d="M228 313 c6 -2 18 -2 25 0 6 3 1 5 -13
5 -14 0 -19 -2 -12 -5z"/>
<path fill="#000000" stroke="none" d="M25 289 c-11 -17 -2 -18 19 -3 17 12
17 14 4 14 -9 0 -20 -5 -23 -11z"/>
<path fill="#000000" stroke="none" d="M68 287 c-16 -6 -28 -14 -28 -19 0 -13
13 -9 45 12 33 22 26 24 -17 7z"/>
<path fill="#000000" stroke="none" d="M100 215 c-10 -13 -9 -15 9 -15 12 0
20 4 17 9 -4 5 0 12 6 14 9 4 7 6 -3 6 -9 1 -22 -6 -29 -14z"/>
<path fill="#000000" stroke="none" d="M175 197 c-4 -10 -5 -21 -1 -24 10 -10
18 4 13 24 -4 17 -4 17 -12 0z"/>
<path fill="#000000" stroke="none" d="M1 174 c0 -11 3 -14 6 -6 3 7 2 16 -1
19 -3 4 -6 -2 -5 -13z"/>
<path fill="#000000" stroke="none" d="M36 153 c21 -15 45 -14 51 3 2 6 -12
10 -33 10 -32 0 -34 -1 -18 -13z"/>
<path fill="#000000" stroke="none" d="M2 120 c0 -14 2 -19 5 -12 2 6 2 18 0
25 -3 6 -5 1 -5 -13z"/>
<path fill="#000000" stroke="none" d="M2 70 c0 -14 2 -19 5 -12 2 6 2 18 0
25 -3 6 -5 1 -5 -13z"/>
</g>
</svg>
