<?xml version="1.0" standalone="no"?>
<!DOCTYPE svg PUBLIC "-//W3C//DTD SVG 20010904//EN"
 "http://www.w3.org/TR/2001/REC-SVG-20010904/DTD/svg10.dtd">
<svg version="1.0" xmlns="http://www.w3.org/2000/svg"
 width="32.000000pt" height="32.000000pt" viewBox="0 0 32.000000 32.000000"
 preserveAspectRatio="xMidYMid meet">
<metadata>
Created by potrace 1.16, written by Peter Selinger 2001-2019
</metadata>
<g transform="translate(0.000000,32.000000) scale(0.100000,-0.100000)"
fill="#000000" stroke="none">
<path fill="#000000" stroke="none" d="M248 313 c7 -3 16 -2 19 1 4 3 -2 6
-13 5 -11 0 -14 -3 -6 -6z"/>
<path fill="#000000" stroke="none" d="M158 303 c-10 -2 -18 -8 -18 -13 0 -4
9 -6 20 -3 11 3 20 9 20 14 0 5 -1 8 -2 8 -2 -1 -11 -3 -20 -6z"/>
<path fill="#000000" stroke="none" d="M310 300 c0 -5 -7 -7 -15 -4 -8 4 -37
3 -63 -2 -26 -4 -39 -9 -29 -11 9 -3 17 -9 17 -15 0 -6 -3 -9 -6 -5 -9 9 -36
-21 -30 -32 10 -16 -5 -41 -33 -56 -25 -14 -25 -14 -4 -15 33 0 66 36 60 66
-2 13 0 24 4 24 15 0 10 -54 -7 -78 -8 -12 -21 -22 -28 -22 -14 0 -28 -45 -18
-55 3 -3 7 -13 8 -23 3 -16 2 -16 -10 1 -12 15 -15 15 -26 2 -7 -8 -24 -15
-38 -15 -19 0 -23 -3 -15 -11 8 -8 20 -7 43 4 28 15 32 15 37 0 7 -17 -24 -46
-38 -37 -5 3 -9 1 -9 -3 0 -5 18 -9 40 -10 22 0 40 3 40 9 0 5 14 27 31 48 17
21 29 45 26 52 -3 9 2 14 14 14 12 0 15 -4 9 -10 -13 -13 -13 -26 0 -26 6 0
15 10 20 23 10 22 10 22 7 -3 -1 -19 -9 -26 -32 -31 l-30 -7 30 -2 c30 -2 30
-2 5 -9 -38 -12 -70 -34 -70 -49 0 -10 15 -12 58 -10 51 3 57 5 60 26 2 13 -1
29 -7 35 -5 7 -6 19 -2 26 10 15 15 221 6 221 -3 0 -5 -4 -5 -10z"/>
<path fill="#ffffff" stroke="none" d="M285 278 c27 -12 34 -45 13 -66 -13
-13 -58 -17 -58 -4 0 4 -3 17 -6 28 -4 14 0 23 10 27 12 5 14 0 9 -24 -5 -26
-3 -30 12 -28 10 2 23 12 29 21 8 14 6 21 -9 33 -11 8 -28 13 -37 11 -10 -2
-18 0 -18 5 0 12 24 11 55 -3z"/>
<path fill="#ffffff" stroke="none" d="M280 235 c-7 -9 -15 -13 -17 -11 -7 7
7 26 19 26 6 0 6 -6 -2 -15z"/>
<path fill="#ffffff" stroke="none" d="M308 169 c-1 -17 -4 -25 -8 -18 -7 10
-2 49 5 49 2 0 3 -14 3 -31z"/>
<path fill="#ffffff" stroke="none" d="M280 177 c0 -19 -21 -37 -43 -37 -21 0
-49 -24 -40 -34 4 -3 -1 -6 -10 -6 -9 0 -17 7 -17 15 0 8 6 15 13 15 7 0 21
14 30 30 19 31 67 43 67 17z"/>
<path fill="#ffffff" stroke="none" d="M227 95 c-4 -8 -17 -15 -29 -16 -22 0
-22 -1 -3 -9 11 -5 14 -9 8 -9 -7 -1 -15 -12 -19 -26 -3 -14 -10 -25 -15 -25
-5 0 -4 12 1 26 6 14 8 30 4 35 -3 5 6 13 20 19 14 5 26 15 26 21 0 7 3 10 6
6 4 -3 4 -13 1 -22z"/>
<path fill="#ffffff" stroke="none" d="M285 40 c-3 -5 -13 -10 -21 -10 -8 0
-12 -4 -9 -10 3 -5 1 -10 -4 -10 -17 0 -13 18 7 29 22 13 35 14 27 1z"/>
<path fill="#ffffff" stroke="none" d="M307 25 c-4 -8 -13 -15 -22 -15 -13 0
-12 3 3 18 19 21 27 20 19 -3z"/>
<path fill="#000000" stroke="none" d="M230 165 c0 -17 2 -18 24 -9 18 7 12
24 -10 24 -8 0 -14 -7 -14 -15z"/>
<path fill="#000000" stroke="none" d="M70 268 c-7 -18 -20 -39 -28 -45 -14
-12 -14 -13 1 -13 10 0 20 8 23 18 3 9 11 29 19 45 8 15 10 27 6 27 -5 0 -14
-15 -21 -32z"/>
<path fill="#000000" stroke="none" d="M24 275 c-8 -20 3 -48 16 -40 5 3 10
12 10 18 0 7 -4 6 -11 -3 -8 -12 -9 -9 -5 13 7 29 -1 37 -10 12z"/>
<path fill="#000000" stroke="none" d="M98 263 c-9 -10 -15 -30 -13 -45 3 -22
-1 -28 -16 -28 -10 0 -19 -4 -19 -10 0 -6 10 -6 27 1 15 5 36 9 47 7 28 -3 46
9 46 32 0 22 -28 34 -46 19 -18 -15 -18 -29 1 -29 8 0 15 8 15 17 0 14 3 14
12 5 10 -10 10 -15 -2 -22 -37 -24 -58 -2 -41 43 12 32 10 33 -11 10z"/>
<path fill="#000000" stroke="none" d="M1 174 c0 -11 3 -14 6 -6 3 7 2 16 -1
19 -3 4 -6 -2 -5 -13z"/>
<path fill="#000000" stroke="none" d="M26 172 c-2 -4 -1 -14 5 -22 7 -12 9
-10 9 8 0 23 -5 28 -14 14z"/>
<path fill="#000000" stroke="none" d="M100 166 c0 -7 -7 -19 -15 -26 -8 -7
-15 -20 -15 -29 1 -11 5 -8 16 9 l15 25 -7 -25 c-6 -22 -5 -23 10 -11 11 9 13
18 7 24 -7 7 -7 16 0 29 6 12 6 18 -1 18 -5 0 -10 -6 -10 -14z"/>
<path fill="#000000" stroke="none" d="M62 158 c-7 -7 -11 -21 -11 -32 1 -20
1 -20 6 -1 3 11 13 25 22 32 9 7 11 13 6 13 -6 0 -16 -5 -23 -12z"/>
<path fill="#000000" stroke="none" d="M124 128 c1 -28 -40 -51 -66 -37 -11 6
-18 6 -18 0 0 -5 13 -12 29 -16 31 -7 71 11 71 32 0 6 3 18 6 27 4 10 1 16 -8
16 -9 0 -14 -9 -14 -22z"/>
<path fill="#000000" stroke="none" d="M22 100 c0 -19 2 -27 5 -17 2 9 2 25 0
35 -3 9 -5 1 -5 -18z"/>
<path fill="#000000" stroke="none" d="M44 54 c3 -9 6 -20 6 -25 0 -6 5 -7 10
-4 6 3 10 2 10 -4 0 -5 -12 -12 -27 -14 -20 -3 -15 -4 15 -6 23 0 42 2 42 5 0
3 -14 19 -31 35 -17 16 -28 22 -25 13z"/>
<path fill="#000000" stroke="none" d="M20 35 c0 -8 4 -15 10 -15 5 0 7 7 4
15 -4 8 -8 15 -10 15 -2 0 -4 -7 -4 -15z"/>
<path fill="#000000" stroke="none" d="M116 41 c-17 -6 -17 -8 -3 -14 8 -3 21
1 27 9 13 15 6 17 -24 5z"/>
</g>
</svg>
