<?xml version="1.0" standalone="no"?>
<!DOCTYPE svg PUBLIC "-//W3C//DTD SVG 20010904//EN"
 "http://www.w3.org/TR/2001/REC-SVG-20010904/DTD/svg10.dtd">
<svg version="1.0" xmlns="http://www.w3.org/2000/svg"
 width="32.000000pt" height="32.000000pt" viewBox="0 0 32.000000 32.000000"
 preserveAspectRatio="xMidYMid meet">
<metadata>
Created by potrace 1.16, written by Peter Selinger 2001-2019
</metadata>
<g transform="translate(0.000000,32.000000) scale(0.100000,-0.100000)"
fill="#000000" stroke="none">
<path fill="#000000" stroke="none" d="M18 313 c8 -3 10 -9 4 -16 -17 -21 -21
-95 -6 -101 13 -5 59 43 49 52 -3 3 -12 -3 -19 -14 -8 -10 -17 -16 -21 -12
-11 11 27 47 43 40 10 -3 13 -1 8 6 -11 17 -34 15 -45 -5 -10 -17 -10 -17 -11
0 0 21 38 37 90 37 33 0 37 -3 33 -20 -6 -23 -21 -35 -31 -25 -3 3 0 10 8 15
18 11 7 25 -14 17 -8 -3 -17 -19 -21 -35 -7 -33 -48 -77 -63 -68 -5 3 -12 -3
-15 -14 -3 -11 -3 -20 -1 -20 12 0 50 28 67 48 11 13 31 23 50 23 l32 2 -35 7
c-32 7 -33 7 -7 9 16 0 30 8 34 19 3 9 13 25 21 35 14 16 11 17 -54 17 -38 0
-78 2 -89 4 -11 2 -14 1 -7 -1z"/>
<path fill="#000000" stroke="none" d="M183 288 c-20 -22 -28 -63 -11 -52 5 3
6 9 3 13 -9 16 34 44 60 39 14 -3 25 -1 25 5 0 5 11 7 25 5 14 -3 28 -1 31 3
3 5 -21 9 -54 9 -48 0 -62 -4 -79 -22z"/>
<path fill="#000000" stroke="none" d="M207 273 c-4 -3 -7 -13 -7 -22 1 -13 2
-13 11 2 6 9 14 15 20 12 5 -4 9 -1 9 4 0 12 -23 15 -33 4z"/>
<path fill="#000000" stroke="none" d="M271 262 c-2 -36 -18 -59 -46 -66 -14
-4 -25 -10 -25 -15 0 -5 16 -1 35 7 36 17 51 44 42 79 -4 14 -5 13 -6 -5z"/>
<path fill="#000000" stroke="none" d="M302 260 c0 -14 2 -19 5 -12 2 6 2 18
0 25 -3 6 -5 1 -5 -13z"/>
<path fill="#000000" stroke="none" d="M228 238 c-30 -31 -22 -38 12 -10 13
10 21 23 19 28 -2 5 -16 -3 -31 -18z"/>
<path fill="#000000" stroke="none" d="M163 188 c-6 -14 -31 -31 -63 -43 -36
-14 -55 -28 -62 -45 -6 -14 -12 -20 -15 -13 -7 20 16 52 42 59 14 3 25 12 25
19 0 11 -6 11 -29 -1 -43 -21 -49 -33 -53 -100 -3 -58 -2 -60 19 -56 29 5 53
32 29 32 -9 0 -16 -4 -16 -10 0 -5 -5 -10 -11 -10 -23 0 -1 25 27 30 25 4 30
10 34 44 4 35 9 41 37 48 21 6 38 19 48 38 9 17 12 30 7 30 -5 0 -13 -10 -19
-22z"/>
<path fill="#ffffff" stroke="none" d="M76 74 c-3 -8 -15 -14 -28 -14 -21 0
-21 0 -2 15 10 8 15 15 10 15 -5 0 -2 7 5 17 13 15 14 15 17 -1 2 -9 1 -24 -2
-32z"/>
<path fill="#000000" stroke="none" d="M302 190 c0 -14 2 -19 5 -12 2 6 2 18
0 25 -3 6 -5 1 -5 -13z"/>
<path fill="#000000" stroke="none" d="M107 193 c-4 -3 -7 -13 -7 -22 1 -14 2
-13 11 2 5 9 15 17 20 17 6 0 7 -5 3 -12 -4 -7 -3 -8 5 -4 6 4 9 12 6 17 -7
11 -29 12 -38 2z"/>
<path fill="#000000" stroke="none" d="M274 191 c-5 -5 -18 -11 -29 -14 -15
-4 -14 -5 7 -6 15 0 30 4 33 10 9 14 1 21 -11 10z"/>
<path fill="#000000" stroke="none" d="M208 153 c12 -2 32 -2 45 0 12 2 2 4
-23 4 -25 0 -35 -2 -22 -4z"/>
<path fill="#000000" stroke="none" d="M135 130 c-16 -4 -26 -8 -21 -9 5 0 4
-7 -1 -13 -14 -18 -25 -80 -13 -73 6 3 10 17 10 30 0 32 23 53 68 60 55 10 61
13 22 13 -19 0 -48 -4 -65 -8z"/>
<path fill="#000000" stroke="none" d="M244 125 c-25 -18 -15 -25 14 -9 13 6
20 14 14 18 -5 3 -18 -1 -28 -9z"/>
<path fill="#000000" stroke="none" d="M196 105 c-3 -8 -1 -15 4 -15 6 0 10 7
10 15 0 8 -2 15 -4 15 -2 0 -6 -7 -10 -15z"/>
<path fill="#000000" stroke="none" d="M300 82 c0 -49 -24 -60 -129 -61 -52 0
-96 -3 -99 -6 -3 -3 40 -5 96 -5 89 0 105 3 122 20 17 17 29 80 15 80 -3 0 -5
-13 -5 -28z"/>
<path fill="#000000" stroke="none" d="M132 88 c-7 -7 -12 -16 -12 -22 0 -5 6
-3 13 6 6 9 21 18 32 21 20 5 20 5 0 6 -12 0 -26 -4 -33 -11z"/>
<path fill="#000000" stroke="none" d="M246 85 c-3 -8 -1 -15 4 -15 13 0 22
18 11 24 -5 3 -11 -1 -15 -9z"/>
<path fill="#000000" stroke="none" d="M277 77 c-3 -9 -13 -17 -22 -17 -8 0
-15 -4 -15 -10 0 -14 13 -13 34 3 11 8 17 20 14 27 -3 11 -6 10 -11 -3z"/>
<path fill="#000000" stroke="none" d="M150 40 c0 -5 7 -7 15 -4 8 4 15 8 15
10 0 2 -7 4 -15 4 -8 0 -15 -4 -15 -10z"/>
</g>
</svg>
