<?xml version="1.0" standalone="no"?>
<!DOCTYPE svg PUBLIC "-//W3C//DTD SVG 20010904//EN"
 "http://www.w3.org/TR/2001/REC-SVG-20010904/DTD/svg10.dtd">
<svg version="1.0" xmlns="http://www.w3.org/2000/svg"
 width="32.000000pt" height="32.000000pt" viewBox="0 0 32.000000 32.000000"
 preserveAspectRatio="xMidYMid meet">
<metadata>
Created by potrace 1.16, written by Peter Selinger 2001-2019
</metadata>
<g transform="translate(0.000000,32.000000) scale(0.100000,-0.100000)"
fill="#000000" stroke="none">
<path fill="#000000" stroke="none" d="M17 303 c-4 -3 -7 -11 -7 -17 0 -6 5
-5 12 2 7 7 21 12 33 11 20 0 20 0 0 -10 -19 -8 -19 -9 -1 -6 33 4 31 27 -1
27 -17 0 -33 -3 -36 -7z"/>
<path fill="#000000" stroke="none" d="M138 303 c7 -3 16 -2 19 1 4 3 -2 6
-13 5 -11 0 -14 -3 -6 -6z"/>
<path fill="#000000" stroke="none" d="M258 303 c7 -3 16 -2 19 1 4 3 -2 6
-13 5 -11 0 -14 -3 -6 -6z"/>
<path fill="#000000" stroke="none" d="M165 290 c-3 -6 1 -7 9 -4 18 7 21 14
7 14 -6 0 -13 -4 -16 -10z"/>
<path fill="#000000" stroke="none" d="M80 269 l-25 -20 33 16 c17 8 32 18 32
20 0 10 -16 4 -40 -16z"/>
<path fill="#000000" stroke="none" d="M24 225 c-3 -8 -4 -20 -1 -27 3 -7 6
-3 6 9 1 12 7 24 14 26 9 4 9 6 -1 6 -7 1 -15 -6 -18 -14z"/>
<path fill="#000000" stroke="none" d="M124 148 l-19 -23 23 19 c21 18 27 26
19 26 -2 0 -12 -10 -23 -22z"/>
<path fill="#000000" stroke="none" d="M11 134 c0 -11 3 -14 6 -6 3 7 2 16 -1
19 -3 4 -6 -2 -5 -13z"/>
<path fill="#000000" stroke="none" d="M11 84 c0 -11 3 -14 6 -6 3 7 2 16 -1
19 -3 4 -6 -2 -5 -13z"/>
</g>
</svg>
