<?xml version="1.0" standalone="no"?>
<!DOCTYPE svg PUBLIC "-//W3C//DTD SVG 20010904//EN"
 "http://www.w3.org/TR/2001/REC-SVG-20010904/DTD/svg10.dtd">
<svg version="1.0" xmlns="http://www.w3.org/2000/svg"
 width="32.000000pt" height="32.000000pt" viewBox="0 0 32.000000 32.000000"
 preserveAspectRatio="xMidYMid meet">
<metadata>
Created by potrace 1.16, written by Peter Selinger 2001-2019
</metadata>
<g transform="translate(0.000000,32.000000) scale(0.100000,-0.100000)"
fill="#000000" stroke="none">
<path fill="#000000" stroke="none" d="M3 157 c1 -127 4 -156 15 -152 8 3 19
5 25 5 15 0 47 55 47 80 0 10 4 21 8 24 13 8 1 -57 -16 -81 l-14 -23 103 0
c130 1 142 8 138 79 -3 29 0 51 6 52 20 2 -41 17 -72 18 -41 1 -43 19 -3 32
16 6 32 19 35 30 10 29 20 23 21 -13 1 -18 -1 -27 -3 -20 -3 8 -9 10 -16 3 -7
-5 -21 -11 -32 -13 -11 -3 -2 -6 23 -9 l42 -5 0 62 c0 34 2 69 5 77 5 11 -20
14 -154 13 l-159 -1 1 -158z"/>
<path fill="#ffffff" stroke="none" d="M123 293 c-7 -2 -19 -2 -25 0 -7 3 -2
5 12 5 14 0 19 -2 13 -5z"/>
<path fill="#ffffff" stroke="none" d="M178 286 c-10 -7 -18 -23 -18 -35 0
-18 -5 -21 -37 -19 -37 1 -37 1 -5 5 22 3 32 10 32 22 0 19 19 41 35 41 5 0 2
-7 -7 -14z"/>
<path fill="#ffffff" stroke="none" d="M297 270 c1 -21 1 -21 -3 -3 -3 12 -13
24 -22 27 -12 3 -11 4 3 3 14 -2 21 -10 22 -27z"/>
<path fill="#ffffff" stroke="none" d="M60 286 c0 -2 -7 -6 -15 -10 -8 -3 -15
-1 -15 4 0 6 7 10 15 10 8 0 15 -2 15 -4z"/>
<path fill="#ffffff" stroke="none" d="M212 274 c-12 -8 -20 -20 -17 -25 3 -5
-1 -6 -9 -3 -12 5 -12 8 2 25 9 10 23 19 31 19 11 0 8 -5 -7 -16z"/>
<path fill="#ffffff" stroke="none" d="M251 217 c-11 -12 -24 -18 -28 -14 -4
4 3 14 15 23 12 8 23 25 23 37 2 21 2 21 6 -2 3 -15 -3 -31 -16 -44z"/>
<path fill="#ffffff" stroke="none" d="M79 241 c-6 -17 -17 -35 -26 -42 -10
-9 -7 1 7 29 26 49 33 54 19 13z"/>
<path fill="#ffffff" stroke="none" d="M244 249 c-6 -11 -24 -2 -24 11 0 5 7
7 15 4 8 -4 12 -10 9 -15z"/>
<path fill="#ffffff" stroke="none" d="M54 245 c-4 -8 -11 -15 -16 -15 -6 0
-5 6 2 15 7 8 14 15 16 15 2 0 1 -7 -2 -15z"/>
<path fill="#ffffff" stroke="none" d="M185 220 c3 -5 1 -10 -4 -10 -6 0 -11
5 -11 10 0 6 2 10 4 10 3 0 8 -4 11 -10z"/>
<path fill="#ffffff" stroke="none" d="M135 210 c-4 -6 -11 -8 -16 -5 -5 4 -9
1 -9 -4 0 -6 -7 -11 -15 -11 -8 0 -15 -4 -15 -8 0 -11 -51 -35 -58 -27 -3 3
-1 5 5 5 6 0 27 14 48 30 36 29 73 41 60 20z"/>
<path fill="#ffffff" stroke="none" d="M152 168 c-8 -8 -9 -4 -5 13 4 13 8 18
11 10 2 -7 -1 -18 -6 -23z"/>
<path fill="#ffffff" stroke="none" d="M200 187 c0 -7 -9 -23 -21 -36 -27 -29
-83 -26 -85 4 -1 15 0 16 3 3 9 -36 83 -11 83 28 0 8 5 14 10 14 6 0 10 -6 10
-13z"/>
<path fill="#ffffff" stroke="none" d="M130 170 c0 -5 -5 -10 -11 -10 -5 0 -7
5 -4 10 3 6 8 10 11 10 2 0 4 -4 4 -10z"/>
<path fill="#ffffff" stroke="none" d="M70 138 c-8 -7 -21 -19 -27 -27 -8 -9
-13 -10 -13 -4 0 15 28 43 43 43 6 0 5 -5 -3 -12z"/>
<path fill="#ffffff" stroke="none" d="M284 134 c25 -25 20 -81 -9 -100 -13
-9 -30 -14 -37 -12 -7 3 0 11 17 19 22 10 31 22 33 45 4 45 -18 60 -52 33 -14
-11 -26 -16 -26 -10 0 5 6 13 12 17 9 6 5 10 -12 15 -20 6 -17 7 17 8 26 1 48
-5 57 -15z"/>
<path fill="#ffffff" stroke="none" d="M195 105 c0 -14 -3 -25 -7 -25 -5 0 -8
6 -8 14 0 25 -53 3 -62 -25 l-7 -24 2 25 c1 18 12 30 37 42 45 23 45 23 45 -7z"/>
<path fill="#ffffff" stroke="none" d="M250 95 c-7 -9 -10 -19 -6 -23 4 -4 14
2 23 13 15 20 15 20 11 0 -4 -25 -40 -31 -58 -10 -10 12 -10 15 4 15 9 0 16 5
16 10 0 6 5 10 11 10 8 0 7 -5 -1 -15z"/>
<path fill="#ffffff" stroke="none" d="M160 64 c0 -8 -7 -14 -15 -14 -17 0
-18 2 -9 24 7 18 24 12 24 -10z"/>
<path fill="#ffffff" stroke="none" d="M70 70 c0 -5 -2 -10 -4 -10 -3 0 -8 5
-11 10 -3 6 -1 10 4 10 6 0 11 -4 11 -10z"/>
<path fill="#ffffff" stroke="none" d="M219 56 c8 -10 9 -16 1 -21 -6 -4 -9
-1 -8 6 2 7 -8 16 -22 20 -22 6 -23 7 -4 8 12 1 27 -5 33 -13z"/>
<path fill="#ffffff" stroke="none" d="M60 46 c0 -2 -7 -7 -16 -10 -8 -3 -12
-2 -9 4 6 10 25 14 25 6z"/>
<path fill="#ffffff" stroke="none" d="M194 35 c-7 -18 -94 -22 -94 -4 0 6 11
8 28 5 15 -3 34 -2 42 4 22 14 30 12 24 -5z"/>
</g>
</svg>
