<?xml version="1.0" standalone="no"?>
<!DOCTYPE svg PUBLIC "-//W3C//DTD SVG 20010904//EN"
 "http://www.w3.org/TR/2001/REC-SVG-20010904/DTD/svg10.dtd">
<svg version="1.0" xmlns="http://www.w3.org/2000/svg"
 width="32.000000pt" height="32.000000pt" viewBox="0 0 32.000000 32.000000"
 preserveAspectRatio="xMidYMid meet">
<metadata>
Created by potrace 1.16, written by Peter Selinger 2001-2019
</metadata>
<g transform="translate(0.000000,32.000000) scale(0.100000,-0.100000)"
fill="#000000" stroke="none">
<path fill="#000000" stroke="none" d="M1 159 l0 -159 160 0 159 0 0 160 0
160 -160 -1 -160 0 1 -160z"/>
<path fill="#ffffff" stroke="none" d="M80 299 c0 -5 -5 -7 -10 -4 -15 9 -40
-14 -40 -37 0 -21 21 -20 28 2 3 8 0 10 -8 5 -9 -5 -11 -4 -6 4 8 12 26 6 26
-9 0 -5 -7 -16 -16 -25 -14 -13 -19 -14 -25 -3 -13 19 -11 52 3 66 15 15 48
16 48 1z"/>
<path fill="#ffffff" stroke="none" d="M187 297 c-10 -6 -22 -26 -27 -42 -10
-29 -10 -28 -6 8 5 35 3 38 -17 35 -19 -3 -28 -16 -57 -78 -4 -8 -19 -16 -34
-18 -25 -3 -26 -6 -26 -58 0 -58 3 -60 43 -26 10 9 17 11 17 4 0 -10 -49 -42
-65 -42 -3 0 -5 35 -4 78 0 42 3 71 6 65 6 -16 35 -17 51 -1 7 7 12 22 12 34
0 31 36 54 84 54 34 0 37 -2 23 -13z"/>
<path fill="#ffffff" stroke="none" d="M266 303 c-38 -6 -76 -31 -76 -51 0 -8
-3 -13 -6 -9 -11 11 6 44 29 55 12 6 36 10 52 10 l30 -1 -29 -4z"/>
<path fill="#ffffff" stroke="none" d="M140 258 c0 -19 -2 -20 -10 -8 -8 13
-10 13 -10 -2 0 -9 -4 -20 -10 -23 -5 -3 -8 1 -5 9 3 9 7 23 10 31 7 23 25 18
25 -7z"/>
<path fill="#ffffff" stroke="none" d="M281 213 c-12 -20 -14 -14 -5 12 4 9 9
14 11 11 3 -2 0 -13 -6 -23z"/>
<path fill="#ffffff" stroke="none" d="M62 174 c-22 -15 -32 -41 -11 -28 7 4
10 1 7 -6 -7 -22 -28 -23 -28 -2 0 35 11 52 33 52 21 0 21 0 -1 -16z"/>
<path fill="#ffffff" stroke="none" d="M255 180 c-3 -5 -12 -10 -18 -10 -7 0
-6 4 3 10 19 12 23 12 15 0z"/>
<path fill="#ffffff" stroke="none" d="M130 176 c0 -2 -8 -10 -17 -17 -16 -13
-17 -12 -4 4 13 16 21 21 21 13z"/>
<path fill="#ffffff" stroke="none" d="M150 140 c0 -5 -5 -10 -11 -10 -5 0 -7
5 -4 10 3 6 8 10 11 10 2 0 4 -4 4 -10z"/>
<path fill="#ffffff" stroke="none" d="M233 95 c-3 -9 -8 -14 -10 -11 -3 3 -2
9 2 15 9 16 15 13 8 -4z"/>
<path fill="#ffffff" stroke="none" d="M84 77 c-3 -9 -19 -19 -34 -22 -19 -4
-30 -14 -33 -28 -4 -19 -4 -18 -6 4 -1 22 4 28 29 33 17 3 33 13 36 21 4 9 8
14 10 12 3 -2 2 -11 -2 -20z"/>
<path fill="#ffffff" stroke="none" d="M280 66 c0 -3 -4 -8 -10 -11 -5 -3 -10
-1 -10 4 0 6 5 11 10 11 6 0 10 -2 10 -4z"/>
<path fill="#ffffff" stroke="none" d="M77 34 c-3 -3 -12 -4 -19 -1 -8 3 -5 6
6 6 11 1 17 -2 13 -5z"/>
<path fill="#ffffff" stroke="none" d="M130 20 c0 -5 -8 -10 -17 -10 -15 0
-16 2 -3 10 19 12 20 12 20 0z"/>
<path fill="#ffffff" stroke="none" d="M57 14 c-3 -3 -12 -4 -19 -1 -8 3 -5 6
6 6 11 1 17 -2 13 -5z"/>
</g>
</svg>
