<?xml version="1.0" standalone="no"?>
<!DOCTYPE svg PUBLIC "-//W3C//DTD SVG 20010904//EN"
 "http://www.w3.org/TR/2001/REC-SVG-20010904/DTD/svg10.dtd">
<svg version="1.0" xmlns="http://www.w3.org/2000/svg"
 width="32.000000pt" height="32.000000pt" viewBox="0 0 32.000000 32.000000"
 preserveAspectRatio="xMidYMid meet">
<metadata>
Created by potrace 1.16, written by Peter Selinger 2001-2019
</metadata>
<g transform="translate(0.000000,32.000000) scale(0.100000,-0.100000)"
fill="#000000" stroke="none">
<path fill="#000000" stroke="none" d="M43 290 c-3 -11 -10 -20 -15 -20 -6 0
-8 7 -4 15 3 8 1 15 -4 15 -6 0 -10 -32 -10 -71 l0 -71 20 23 c15 19 19 20 20
8 0 -9 -6 -22 -14 -28 -8 -7 -16 -29 -18 -51 -2 -21 -1 -37 1 -34 2 2 10 -1
18 -7 8 -8 13 -8 13 -1 0 6 -6 12 -12 15 -18 6 1 38 33 55 l24 13 -28 -4 c-19
-3 -25 -1 -18 7 9 12 21 66 14 66 -2 0 -13 -5 -24 -10 -16 -9 -19 -7 -19 8 0
15 6 18 29 14 25 -3 33 2 53 32 16 25 30 36 48 36 24 -1 24 -1 5 -12 -11 -7
-26 -18 -33 -25 -11 -11 -7 -13 25 -12 25 1 30 3 15 6 -23 5 -23 5 9 29 l33
24 -53 0 c-43 0 -52 -3 -47 -15 3 -9 0 -15 -8 -15 -8 0 -16 -9 -19 -20 -5 -21
-31 -27 -42 -10 -3 6 3 10 14 10 12 0 21 5 21 11 0 5 -5 7 -11 3 -7 -4 -10 -1
-7 7 3 8 12 13 21 13 9 -1 14 2 11 7 -10 16 -36 9 -41 -11z"/>
<path fill="#000000" stroke="none" d="M278 303 c6 -2 18 -2 25 0 6 3 1 5 -13
5 -14 0 -19 -2 -12 -5z"/>
<path fill="#000000" stroke="none" d="M202 288 c-7 -7 -12 -19 -12 -27 0 -11
4 -9 15 6 8 12 25 24 38 26 20 4 20 4 -3 6 -15 0 -31 -4 -38 -11z"/>
<path fill="#000000" stroke="none" d="M286 279 c-10 -6 -27 -20 -37 -30 -15
-15 -16 -19 -4 -19 8 0 19 9 25 20 6 11 17 20 25 20 8 0 15 5 15 10 0 12 0 12
-24 -1z"/>
<path fill="#000000" stroke="none" d="M228 263 c7 -3 16 -2 19 1 4 3 -2 6
-13 5 -11 0 -14 -3 -6 -6z"/>
<path fill="#000000" stroke="none" d="M103 225 c-23 -16 -36 -52 -22 -61 5
-3 9 7 9 21 0 20 8 29 33 40 17 8 25 14 17 15 -9 0 -25 -7 -37 -15z"/>
<path fill="#000000" stroke="none" d="M213 215 c0 -8 4 -12 9 -9 5 3 6 10 3
15 -9 13 -12 11 -12 -6z"/>
<path fill="#000000" stroke="none" d="M244 198 l-29 -33 33 29 c17 17 32 31
32 33 0 8 -8 1 -36 -29z"/>
<path fill="#000000" stroke="none" d="M115 199 c-11 -17 1 -21 15 -4 8 9 8
15 2 15 -6 0 -14 -5 -17 -11z"/>
<path fill="#000000" stroke="none" d="M182 175 c-6 -14 -19 -25 -27 -25 -9 0
-13 -5 -10 -10 9 -15 42 6 50 31 10 30 0 33 -13 4z"/>
<path fill="#000000" stroke="none" d="M301 184 c0 -11 3 -14 6 -6 3 7 2 16
-1 19 -3 4 -6 -2 -5 -13z"/>
<path fill="#000000" stroke="none" d="M259 173 c-13 -16 -12 -17 4 -4 16 13
21 21 13 21 -2 0 -10 -8 -17 -17z"/>
<path fill="#000000" stroke="none" d="M170 114 c-24 -9 -29 -13 -14 -13 11
-1 29 6 40 14 22 17 20 17 -26 -1z"/>
<path fill="#000000" stroke="none" d="M54 109 c-3 -6 -1 -16 6 -22 9 -9 11
-8 8 3 -2 9 4 14 15 14 9 -1 17 2 17 7 0 13 -37 11 -46 -2z"/>
<path fill="#000000" stroke="none" d="M218 106 c-10 -7 -18 -19 -18 -27 1 -9
4 -8 11 4 6 10 20 22 32 27 13 5 16 9 7 9 -8 0 -23 -6 -32 -13z"/>
<path fill="#000000" stroke="none" d="M139 73 c-13 -17 -13 -17 6 -3 11 8 22
16 24 17 2 2 0 3 -6 3 -6 0 -17 -8 -24 -17z"/>
<path fill="#000000" stroke="none" d="M75 70 c-16 -7 -17 -9 -3 -9 9 -1 20 4
23 9 7 11 7 11 -20 0z"/>
<path fill="#000000" stroke="none" d="M301 64 c0 -11 3 -14 6 -6 3 7 2 16 -1
19 -3 4 -6 -2 -5 -13z"/>
<path fill="#000000" stroke="none" d="M260 59 c0 -5 5 -7 10 -4 6 3 10 8 10
11 0 2 -4 4 -10 4 -5 0 -10 -5 -10 -11z"/>
<path fill="#000000" stroke="none" d="M10 46 c0 -10 8 -16 22 -16 12 0 19 1
17 3 -2 1 -12 9 -21 16 -15 12 -18 11 -18 -3z"/>
<path fill="#000000" stroke="none" d="M168 28 c-14 -14 -15 -18 -4 -18 8 0
17 7 20 16 9 23 4 24 -16 2z"/>
<path fill="#000000" stroke="none" d="M260 31 c-14 -4 -20 -10 -15 -13 10 -6
55 7 55 17 0 6 -7 5 -40 -4z"/>
<path fill="#000000" stroke="none" d="M23 13 c9 -2 25 -2 35 0 9 3 1 5 -18 5
-19 0 -27 -2 -17 -5z"/>
<path fill="#000000" stroke="none" d="M108 13 c7 -3 16 -2 19 1 4 3 -2 6 -13
5 -11 0 -14 -3 -6 -6z"/>
<path fill="#000000" stroke="none" d="M198 13 c6 -2 18 -2 25 0 6 3 1 5 -13
5 -14 0 -19 -2 -12 -5z"/>
</g>
</svg>
