<?xml version="1.0" standalone="no"?>
<!DOCTYPE svg PUBLIC "-//W3C//DTD SVG 20010904//EN"
 "http://www.w3.org/TR/2001/REC-SVG-20010904/DTD/svg10.dtd">
<svg version="1.0" xmlns="http://www.w3.org/2000/svg"
 width="32.000000pt" height="32.000000pt" viewBox="0 0 32.000000 32.000000"
 preserveAspectRatio="xMidYMid meet">
<metadata>
Created by potrace 1.16, written by Peter Selinger 2001-2019
</metadata>
<g transform="translate(0.000000,32.000000) scale(0.100000,-0.100000)"
fill="#000000" stroke="none">
<path fill="#000000" stroke="none" d="M1 161 l1 -156 155 2 c85 0 158 5 161
9 4 4 -2 4 -12 0 -16 -5 -17 -4 -6 9 16 19 20 117 6 127 -6 4 -30 8 -53 8 -50
0 -56 14 -13 29 17 5 34 20 40 33 5 13 9 16 9 8 1 -22 -12 -38 -39 -48 -23 -9
-21 -10 18 -13 39 -4 42 -3 43 21 0 14 2 48 3 77 l2 52 -158 -1 -158 -1 1
-156z"/>
<path fill="#ffffff" stroke="none" d="M185 290 c-3 -5 -12 -10 -18 -10 -7 0
-6 4 3 10 19 12 23 12 15 0z"/>
<path fill="#ffffff" stroke="none" d="M298 264 c-3 -14 -5 -12 -10 9 -3 19
-2 25 4 19 6 -6 8 -18 6 -28z"/>
<path fill="#ffffff" stroke="none" d="M210 276 c0 -3 -4 -8 -10 -11 -5 -3
-10 -1 -10 4 0 6 5 11 10 11 6 0 10 -2 10 -4z"/>
<path fill="#ffffff" stroke="none" d="M254 219 c-9 -10 -21 -16 -27 -12 -6 3
-1 10 11 14 15 6 22 18 23 36 2 25 2 25 6 5 3 -14 -3 -32 -13 -43z"/>
<path fill="#ffffff" stroke="none" d="M123 233 c-7 -2 -19 -2 -25 0 -7 3 -2
5 12 5 14 0 19 -2 13 -5z"/>
<path fill="#ffffff" stroke="none" d="M193 175 c-8 -22 -22 -18 -16 5 3 11 9
17 14 15 4 -3 6 -12 2 -20z"/>
<path fill="#ffffff" stroke="none" d="M170 140 c-8 -5 -28 -9 -45 -9 l-30 1
30 8 c17 4 37 8 45 9 13 1 13 0 0 -9z"/>
<path fill="#ffffff" stroke="none" d="M223 143 c-7 -2 -19 -2 -25 0 -7 3 -2
5 12 5 14 0 19 -2 13 -5z"/>
<path fill="#ffffff" stroke="none" d="M260 143 c-1 -10 -50 -46 -50 -37 0 9
33 43 43 43 4 1 7 -2 7 -6z"/>
<path fill="#ffffff" stroke="none" d="M296 114 c9 -36 -7 -78 -31 -82 -18 -3
-18 -2 3 13 24 18 30 63 10 83 -9 9 -9 12 0 12 6 0 15 -12 18 -26z"/>
<path fill="#ffffff" stroke="none" d="M192 108 c-3 -12 -7 -18 -9 -12 -6 18
-54 3 -63 -20 -7 -16 -9 -17 -9 -4 -1 18 37 50 50 42 4 -2 10 0 14 6 11 18 23
10 17 -12z"/>
<path fill="#ffffff" stroke="none" d="M102 88 c-5 -34 -31 -82 -40 -74 -2 3
3 17 12 30 9 14 16 34 16 44 0 15 8 32 15 32 1 0 -1 -15 -3 -32z"/>
<path fill="#ffffff" stroke="none" d="M160 65 c0 -9 -6 -12 -16 -8 -13 5 -13
7 -2 14 17 11 18 11 18 -6z"/>
<path fill="#ffffff" stroke="none" d="M274 69 c-6 -11 -31 -12 -37 -1 -3 4 6
8 19 8 13 1 21 -2 18 -7z"/>
<path fill="#ffffff" stroke="none" d="M183 28 c-2 -5 -22 -8 -44 -8 -21 0
-39 3 -39 8 0 4 20 7 44 7 24 0 42 -3 39 -7z"/>
</g>
</svg>
