<?xml version="1.0" standalone="no"?>
<!DOCTYPE svg PUBLIC "-//W3C//DTD SVG 20010904//EN"
 "http://www.w3.org/TR/2001/REC-SVG-20010904/DTD/svg10.dtd">
<svg version="1.0" xmlns="http://www.w3.org/2000/svg"
 width="32.000000pt" height="32.000000pt" viewBox="0 0 32.000000 32.000000"
 preserveAspectRatio="xMidYMid meet">
<metadata>
Created by potrace 1.16, written by Peter Selinger 2001-2019
</metadata>
<g transform="translate(0.000000,32.000000) scale(0.100000,-0.100000)"
fill="#000000" stroke="none">
<path fill="#000000" stroke="none" d="M7 313 c-4 -3 -7 -16 -6 -27 0 -20 1
-20 9 2 7 16 18 22 41 22 34 0 37 -23 3 -28 -16 -3 -16 -1 -4 7 13 9 12 11 -3
11 -11 0 -21 -9 -24 -20 -3 -11 -9 -20 -13 -20 -4 0 -8 -58 -9 -130 l-2 -130
161 0 160 0 0 159 0 160 -153 0 c-85 1 -157 -2 -160 -6z"/>
<path fill="#ffffff" stroke="none" d="M148 286 c-6 -14 -18 -28 -26 -31 -13
-5 -13 -3 1 13 28 30 20 33 -19 7 -20 -14 -46 -25 -58 -24 -17 1 -15 2 7 9 41
13 61 31 45 41 -8 6 1 9 24 9 36 0 37 -1 26 -24z"/>
<path fill="#ffffff" stroke="none" d="M271 299 c-16 -6 -28 -6 -35 1 -7 7 1
10 25 9 32 0 33 -1 10 -10z"/>
<path fill="#ffffff" stroke="none" d="M190 296 c0 -2 -7 -7 -16 -10 -8 -3
-12 -2 -9 4 6 10 25 14 25 6z"/>
<path fill="#ffffff" stroke="none" d="M220 250 c-20 -13 -33 -13 -25 0 3 6
14 10 23 10 15 0 15 -2 2 -10z"/>
<path fill="#ffffff" stroke="none" d="M37 215 c-7 -13 -14 -20 -15 -14 -5 14
6 39 17 39 5 0 4 -11 -2 -25z"/>
<path fill="#ffffff" stroke="none" d="M110 225 c-7 -9 -15 -13 -19 -10 -3 3
1 10 9 15 21 14 24 12 10 -5z"/>
<path fill="#ffffff" stroke="none" d="M70 210 c0 -5 -5 -10 -11 -10 -5 0 -7
5 -4 10 3 6 8 10 11 10 2 0 4 -4 4 -10z"/>
<path fill="#ffffff" stroke="none" d="M167 188 c-3 -8 -6 -5 -6 6 -1 11 2 17
5 13 3 -3 4 -12 1 -19z"/>
<path fill="#ffffff" stroke="none" d="M277 165 c-4 -8 -11 -15 -17 -15 -6 0
-6 7 2 20 14 22 24 19 15 -5z"/>
<path fill="#ffffff" stroke="none" d="M39 141 c15 -13 15 -13 -1 -8 -9 3 -19
1 -22 -6 -2 -7 -4 4 -4 23 0 19 2 28 5 20 3 -8 13 -21 22 -29z"/>
<path fill="#ffffff" stroke="none" d="M77 174 c-3 -3 -12 -4 -19 -1 -8 3 -5
6 6 6 11 1 17 -2 13 -5z"/>
<path fill="#ffffff" stroke="none" d="M160 163 c-8 -3 -23 -12 -32 -21 -10
-8 -18 -11 -18 -6 0 17 23 34 45 33 14 0 16 -2 5 -6z"/>
<path fill="#ffffff" stroke="none" d="M160 125 c-7 -9 -15 -13 -17 -11 -7 7
7 26 19 26 6 0 6 -6 -2 -15z"/>
<path fill="#ffffff" stroke="none" d="M32 108 c-6 -7 -12 -26 -15 -43 l-4
-30 -2 31 c0 16 4 35 11 42 16 16 23 15 10 0z"/>
<path fill="#ffffff" stroke="none" d="M79 64 c-6 -8 -15 -12 -18 -8 -3 4 0 9
7 11 6 3 9 10 6 15 -4 7 -2 8 5 4 9 -6 9 -11 0 -22z"/>
<path fill="#ffffff" stroke="none" d="M57 14 c-3 -3 -12 -4 -19 -1 -8 3 -5 6
6 6 11 1 17 -2 13 -5z"/>
</g>
</svg>
