<?xml version="1.0" standalone="no"?>
<!DOCTYPE svg PUBLIC "-//W3C//DTD SVG 20010904//EN"
 "http://www.w3.org/TR/2001/REC-SVG-20010904/DTD/svg10.dtd">
<svg version="1.0" xmlns="http://www.w3.org/2000/svg"
 width="32.000000pt" height="32.000000pt" viewBox="0 0 32.000000 32.000000"
 preserveAspectRatio="xMidYMid meet">
<metadata>
Created by potrace 1.16, written by Peter Selinger 2001-2019
</metadata>
<g transform="translate(0.000000,32.000000) scale(0.100000,-0.100000)"
fill="#000000" stroke="none">
<path fill="#000000" stroke="none" d="M13 293 c-3 -10 -8 -21 -10 -25 -2 -5
0 -8 5 -8 5 0 12 9 15 20 3 11 13 20 24 20 15 0 16 -2 3 -11 -12 -8 -12 -10 4
-7 11 2 21 9 24 16 6 20 -57 15 -65 -5z"/>
<path fill="#000000" stroke="none" d="M98 301 c16 -10 -4 -28 -45 -41 -22 -7
-24 -8 -7 -9 12 -1 38 10 58 24 39 26 47 23 19 -7 -14 -16 -14 -18 -1 -13 8 3
20 17 26 31 11 23 10 24 -26 24 -23 0 -32 -3 -24 -9z"/>
<path fill="#000000" stroke="none" d="M236 300 c7 -7 19 -7 35 -1 23 9 22 10
-10 10 -24 1 -32 -2 -25 -9z"/>
<path fill="#000000" stroke="none" d="M165 290 c-3 -6 1 -7 9 -4 18 7 21 14
7 14 -6 0 -13 -4 -16 -10z"/>
<path fill="#000000" stroke="none" d="M195 250 c-8 -13 5 -13 25 0 13 8 13
10 -2 10 -9 0 -20 -4 -23 -10z"/>
<path fill="#000000" stroke="none" d="M24 225 c-10 -26 1 -35 13 -10 6 14 7
25 2 25 -5 0 -12 -7 -15 -15z"/>
<path fill="#000000" stroke="none" d="M100 230 c-8 -5 -12 -12 -9 -15 4 -3
12 1 19 10 14 17 11 19 -10 5z"/>
<path fill="#000000" stroke="none" d="M55 210 c-3 -5 -1 -10 4 -10 6 0 11 5
11 10 0 6 -2 10 -4 10 -3 0 -8 -4 -11 -10z"/>
<path fill="#000000" stroke="none" d="M161 194 c0 -11 3 -14 6 -6 3 7 2 16
-1 19 -3 4 -6 -2 -5 -13z"/>
<path fill="#000000" stroke="none" d="M262 170 c-8 -13 -8 -20 -2 -20 6 0 13
7 17 15 9 24 -1 27 -15 5z"/>
<path fill="#000000" stroke="none" d="M12 150 c0 -19 2 -30 4 -23 3 7 13 9
22 6 16 -5 16 -5 1 8 -9 8 -19 21 -22 29 -3 8 -5 -1 -5 -20z"/>
<path fill="#000000" stroke="none" d="M58 173 c7 -3 16 -2 19 1 4 3 -2 6 -13
5 -11 0 -14 -3 -6 -6z"/>
<path fill="#000000" stroke="none" d="M122 158 c-19 -19 -14 -33 6 -16 9 9
24 18 32 21 11 4 9 6 -5 6 -12 1 -26 -4 -33 -11z"/>
<path fill="#000000" stroke="none" d="M145 129 c-11 -17 1 -21 15 -4 8 9 8
15 2 15 -6 0 -14 -5 -17 -11z"/>
<path fill="#000000" stroke="none" d="M22 108 c-7 -7 -11 -26 -11 -42 l2 -31
4 30 c3 17 9 36 15 43 13 15 6 16 -10 0z"/>
<path fill="#000000" stroke="none" d="M74 82 c3 -5 0 -12 -6 -15 -7 -2 -10
-7 -7 -11 3 -4 12 0 18 8 9 11 9 16 0 22 -7 4 -9 3 -5 -4z"/>
<path fill="#000000" stroke="none" d="M38 13 c7 -3 16 -2 19 1 4 3 -2 6 -13
5 -11 0 -14 -3 -6 -6z"/>
</g>
</svg>
