<?xml version="1.0" standalone="no"?>
<!DOCTYPE svg PUBLIC "-//W3C//DTD SVG 20010904//EN"
 "http://www.w3.org/TR/2001/REC-SVG-20010904/DTD/svg10.dtd">
<svg version="1.0" xmlns="http://www.w3.org/2000/svg"
 width="32.000000pt" height="32.000000pt" viewBox="0 0 32.000000 32.000000"
 preserveAspectRatio="xMidYMid meet">
<metadata>
Created by potrace 1.16, written by Peter Selinger 2001-2019
</metadata>
<g transform="translate(0.000000,32.000000) scale(0.100000,-0.100000)"
fill="#000000" stroke="none">
<path fill="#000000" stroke="none" d="M299 312 c18 -13 7 -103 -14 -115 -8
-4 -15 -13 -15 -18 0 -6 5 -7 10 -4 6 3 10 2 10 -4 0 -5 -4 -13 -10 -16 -5 -3
-10 -14 -10 -23 1 -14 4 -13 20 7 11 13 20 18 20 11 0 -13 -37 -50 -50 -50 -5
0 -4 16 0 35 6 27 5 35 -6 35 -9 0 -14 -12 -14 -35 0 -25 -6 -37 -21 -45 -11
-7 -23 -9 -26 -7 -2 3 5 10 16 17 22 11 31 70 11 70 -5 0 -10 4 -10 9 0 4 10
6 23 4 31 -6 59 28 63 77 3 52 -16 53 -79 5 -25 -19 -56 -35 -67 -35 -19 0
-22 5 -18 35 3 23 1 32 -6 25 -5 -5 -10 -24 -10 -42 -1 -24 -7 -35 -24 -44
-16 -8 -19 -13 -10 -16 9 -3 5 -15 -15 -41 -15 -20 -23 -37 -18 -37 6 0 22 20
36 44 34 58 43 64 93 67 23 2 39 5 37 8 -8 8 17 31 34 31 14 -1 14 -2 -1 -11
-20 -11 -25 -43 -5 -36 6 2 11 11 9 18 -3 11 -1 11 8 2 21 -19 1 -35 -35 -29
-27 5 -35 3 -40 -13 -3 -10 -14 -21 -24 -24 -25 -6 -33 -44 -13 -63 14 -15 14
-16 -2 -13 -9 2 -16 6 -15 9 1 3 -3 15 -9 26 -9 18 -7 25 12 43 12 11 28 21
34 21 7 0 12 5 12 10 0 6 -7 10 -15 10 -17 0 -65 -47 -65 -63 0 -6 -19 -27
-42 -49 -23 -21 -39 -40 -37 -43 3 -2 24 13 48 35 24 22 41 33 38 25 -3 -7 1
-19 9 -25 27 -23 10 -70 -25 -70 -11 0 -9 5 7 16 25 17 29 39 9 47 -8 3 -13
-2 -13 -12 1 -9 -3 -16 -9 -16 -5 0 -8 7 -7 15 3 10 -3 8 -17 -6 -11 -12 -26
-24 -33 -27 -7 -2 -10 -8 -6 -12 4 -4 14 -2 22 4 11 9 16 9 22 0 4 -8 3 -9 -4
-5 -7 4 -12 3 -12 -3 0 -5 -8 -12 -17 -14 -10 -3 41 -5 113 -6 105 -1 134 2
144 14 7 8 10 21 7 28 -3 8 -1 29 3 48 7 27 8 21 5 -28 -1 -35 1 -63 6 -63 5
0 8 68 7 157 -3 129 -6 157 -18 160 -13 4 -13 3 -1 -5z"/>
<path fill="#ffffff" stroke="none" d="M220 146 c0 -18 -22 -36 -43 -36 -22 0
-20 31 3 38 13 5 13 3 0 -13 -13 -16 -13 -18 0 -13 8 3 15 14 14 26 0 13 4 18
13 15 7 -3 13 -11 13 -17z"/>
<path fill="#ffffff" stroke="none" d="M174 75 c-7 -17 -34 -21 -34 -4 0 5 4
8 9 4 5 -3 12 -1 16 5 9 15 15 12 9 -5z"/>
<path fill="#ffffff" stroke="none" d="M247 65 c-12 -13 -24 -20 -25 -14 -5
13 17 39 33 39 9 0 6 -9 -8 -25z"/>
<path fill="#ffffff" stroke="none" d="M190 50 c-14 -11 -31 -25 -38 -31 -7
-6 -18 -9 -23 -7 -6 2 6 16 27 30 45 31 71 37 34 8z"/>
<path fill="#ffffff" stroke="none" d="M280 30 c0 -14 -33 -21 -44 -9 -8 9 -8
10 2 5 20 -12 35 4 20 22 -12 15 -11 16 5 3 9 -7 17 -17 17 -21z"/>
<path fill="#ffffff" stroke="none" d="M210 25 c0 -10 -9 -15 -27 -14 -24 2
-25 2 -5 6 12 2 22 9 22 14 0 5 2 9 5 9 3 0 5 -7 5 -15z"/>
<path fill="#000000" stroke="none" d="M15 300 c-3 -6 1 -7 9 -4 18 7 21 14 7
14 -6 0 -13 -4 -16 -10z"/>
<path fill="#000000" stroke="none" d="M146 284 c-19 -51 4 -57 53 -14 18 17
29 30 24 30 -6 0 -16 -7 -23 -15 -7 -9 -15 -13 -18 -10 -3 2 -11 -3 -18 -13
-12 -16 -13 -16 -14 0 0 9 8 22 18 27 15 9 15 10 1 11 -9 0 -20 -7 -23 -16z"/>
<path fill="#000000" stroke="none" d="M25 252 c-3 -14 -4 -27 0 -30 3 -3 5 0
5 6 0 7 9 21 19 31 19 19 19 20 1 18 -11 -1 -21 -11 -25 -25z"/>
<path fill="#000000" stroke="none" d="M53 244 c-3 -8 -1 -20 5 -26 13 -13 52
7 52 27 0 22 -17 18 -23 -5 -3 -11 -10 -20 -15 -20 -6 0 -8 9 -5 20 6 24 -5
27 -14 4z"/>
<path fill="#000000" stroke="none" d="M20 199 c0 -5 5 -7 10 -4 6 3 10 8 10
11 0 2 -4 4 -10 4 -5 0 -10 -5 -10 -11z"/>
<path fill="#000000" stroke="none" d="M1 164 c0 -11 3 -14 6 -6 3 7 2 16 -1
19 -3 4 -6 -2 -5 -13z"/>
<path fill="#000000" stroke="none" d="M43 173 c4 -3 2 -12 -5 -20 -8 -11 -7
-12 6 -7 18 7 22 34 4 34 -6 0 -8 -3 -5 -7z"/>
<path fill="#000000" stroke="none" d="M21 104 c0 -11 3 -14 6 -6 3 7 2 16 -1
19 -3 4 -6 -2 -5 -13z"/>
</g>
</svg>
