<?xml version="1.0" standalone="no"?>
<!DOCTYPE svg PUBLIC "-//W3C//DTD SVG 20010904//EN"
 "http://www.w3.org/TR/2001/REC-SVG-20010904/DTD/svg10.dtd">
<svg version="1.0" xmlns="http://www.w3.org/2000/svg"
 width="32.000000pt" height="32.000000pt" viewBox="0 0 32.000000 32.000000"
 preserveAspectRatio="xMidYMid meet">
<metadata>
Created by potrace 1.16, written by Peter Selinger 2001-2019
</metadata>
<g transform="translate(0.000000,32.000000) scale(0.100000,-0.100000)"
fill="#000000" stroke="none">
<path fill="#000000" stroke="none" d="M0 160 l0 -160 160 0 160 0 0 160 0
160 -160 0 -160 0 0 -160z"/>
<path fill="#ffffff" stroke="none" d="M168 293 c-8 -10 -18 -26 -21 -35 -4
-10 -11 -18 -17 -18 -6 0 -2 14 10 30 l21 30 -55 0 c-43 0 -61 -5 -76 -20 -15
-15 -20 -16 -20 -5 0 24 32 34 104 35 65 0 68 -1 54 -17z"/>
<path fill="#ffffff" stroke="none" d="M273 303 c-7 -2 -21 -2 -30 0 -10 3 -4
5 12 5 17 0 24 -2 18 -5z"/>
<path fill="#ffffff" stroke="none" d="M210 290 c-8 -6 -24 -16 -35 -22 -20
-11 -20 -11 -1 11 11 11 26 21 35 21 14 0 14 -2 1 -10z"/>
<path fill="#ffffff" stroke="none" d="M130 286 c0 -2 -7 -7 -16 -10 -8 -3
-12 -2 -9 4 6 10 25 14 25 6z"/>
<path fill="#ffffff" stroke="none" d="M50 215 c-7 -9 -15 -13 -19 -10 -3 3 1
10 9 15 21 14 24 12 10 -5z"/>
<path fill="#ffffff" stroke="none" d="M80 205 c-16 -19 -70 -59 -70 -51 0 8
74 75 79 71 2 -3 -2 -12 -9 -20z"/>
<path fill="#ffffff" stroke="none" d="M127 224 c-3 -3 -12 -4 -19 -1 -8 3 -5
6 6 6 11 1 17 -2 13 -5z"/>
<path fill="#ffffff" stroke="none" d="M267 174 c-3 -3 -12 -4 -19 -1 -8 3 -5
6 6 6 11 1 17 -2 13 -5z"/>
<path fill="#ffffff" stroke="none" d="M165 160 c-3 -5 -12 -10 -18 -10 -7 0
-6 4 3 10 19 12 23 12 15 0z"/>
<path fill="#ffffff" stroke="none" d="M43 134 c-14 -14 -27 -23 -30 -20 -6 6
34 46 47 46 5 0 -2 -12 -17 -26z"/>
<path fill="#ffffff" stroke="none" d="M73 53 c-7 -2 -19 -2 -25 0 -7 3 -2 5
12 5 14 0 19 -2 13 -5z"/>
<path fill="#ffffff" stroke="none" d="M277 54 c-3 -3 -12 -4 -19 -1 -8 3 -5
6 6 6 11 1 17 -2 13 -5z"/>
</g>
</svg>
