<?xml version="1.0" standalone="no"?>
<!DOCTYPE svg PUBLIC "-//W3C//DTD SVG 20010904//EN"
 "http://www.w3.org/TR/2001/REC-SVG-20010904/DTD/svg10.dtd">
<svg version="1.0" xmlns="http://www.w3.org/2000/svg"
 width="32.000000pt" height="32.000000pt" viewBox="0 0 32.000000 32.000000"
 preserveAspectRatio="xMidYMid meet">
<metadata>
Created by potrace 1.16, written by Peter Selinger 2001-2019
</metadata>
<g transform="translate(0.000000,32.000000) scale(0.100000,-0.100000)"
fill="#000000" stroke="none">
<path fill="#000000" stroke="none" d="M1 160 l1 -160 159 0 159 0 0 160 0
160 -145 0 c-81 0 -145 -4 -145 -9 0 -5 -3 -16 -6 -25 -3 -9 -2 -16 4 -16 5 0
12 9 15 19 4 17 15 19 138 18 119 -1 129 -2 86 -12 -27 -6 -55 -19 -63 -30
-10 -14 -14 -15 -14 -4 0 8 5 20 12 27 19 19 -4 14 -37 -8 -28 -18 -28 -20 -7
-20 12 0 22 -4 22 -8 0 -4 -17 -6 -37 -4 l-37 5 29 23 c29 23 29 24 8 24 -13
0 -23 -4 -23 -10 0 -6 -9 -6 -23 -1 -14 6 -30 6 -38 0 -10 -6 -10 -9 -1 -9 6
0 12 -4 12 -10 0 -5 -7 -10 -15 -10 -8 0 -15 -4 -15 -10 0 -19 32 -10 37 10 3
11 12 20 20 20 14 0 14 -2 0 -22 -10 -16 -25 -23 -46 -23 -23 0 -31 -4 -31
-18 0 -14 4 -16 19 -7 11 5 22 10 24 10 7 0 -5 -54 -14 -66 -6 -7 1 -9 20 -6
16 2 31 -1 35 -6 4 -6 -2 -8 -14 -5 -12 3 -29 -2 -40 -12 -21 -19 -27 -45 -10
-45 6 0 10 -5 10 -11 0 -8 -5 -8 -15 1 -12 10 -15 10 -15 -3 0 -9 8 -21 17
-26 16 -9 15 -10 -5 -11 -23 0 -23 2 -17 58 4 31 14 64 21 73 8 8 14 22 14 30
-1 9 -8 5 -21 -11 l-21 -24 4 82 c2 45 0 82 -4 82 -4 0 -7 -72 -7 -160z"/>
<path fill="#ffffff" stroke="none" d="M310 280 c0 -5 -7 -10 -15 -10 -8 0
-19 -9 -25 -20 -6 -11 -17 -20 -25 -20 -24 0 26 48 63 59 1 1 2 -3 2 -9z"/>
<path fill="#ffffff" stroke="none" d="M247 264 c-3 -3 -12 -4 -19 -1 -8 3 -5
6 6 6 11 1 17 -2 13 -5z"/>
<path fill="#ffffff" stroke="none" d="M150 230 c0 -5 -6 -7 -14 -4 -18 7 -46
-22 -46 -47 0 -11 -4 -18 -9 -15 -14 9 -1 45 22 61 24 17 47 20 47 5z"/>
<path fill="#ffffff" stroke="none" d="M194 208 c9 -33 8 -36 -14 -58 -22 -22
-40 -26 -40 -10 0 6 7 10 15 10 22 0 38 36 25 60 -6 11 -7 20 -2 20 6 0 12
-10 16 -22z"/>
<path fill="#ffffff" stroke="none" d="M225 221 c3 -5 2 -12 -3 -15 -5 -3 -9
1 -9 9 0 17 3 19 12 6z"/>
<path fill="#ffffff" stroke="none" d="M257 202 c-15 -15 -27 -34 -27 -41 0
-23 -48 -61 -77 -60 -30 1 -26 3 20 13 17 4 32 17 39 34 11 26 57 82 67 82 2
0 -7 -13 -22 -28z"/>
<path fill="#ffffff" stroke="none" d="M130 195 c-7 -8 -17 -15 -22 -15 -6 0
-5 7 2 15 7 8 17 15 22 15 6 0 5 -7 -2 -15z"/>
<path fill="#ffffff" stroke="none" d="M307 178 c-3 -7 -5 -2 -5 12 0 14 2 19
5 13 2 -7 2 -19 0 -25z"/>
<path fill="#ffffff" stroke="none" d="M160 185 c0 -8 -7 -15 -15 -15 -13 0
-14 3 -3 15 16 18 18 18 18 0z"/>
<path fill="#ffffff" stroke="none" d="M280 186 c0 -2 -8 -10 -17 -17 -16 -13
-17 -12 -4 4 13 16 21 21 21 13z"/>
<path fill="#ffffff" stroke="none" d="M285 133 c-5 -10 -8 -25 -7 -33 1 -10
0 -11 -4 -2 -9 19 -41 14 -58 -10 -9 -13 -16 -17 -16 -9 0 17 29 40 52 41 9 0
20 9 23 21 4 11 9 18 12 15 3 -3 2 -13 -2 -23z"/>
<path fill="#ffffff" stroke="none" d="M307 108 c-3 -8 -6 -5 -6 6 -1 11 2 17
5 13 3 -3 4 -12 1 -19z"/>
<path fill="#ffffff" stroke="none" d="M100 111 c0 -5 -8 -8 -17 -7 -11 0 -17
-5 -15 -14 3 -11 1 -12 -8 -3 -7 6 -9 16 -6 22 9 13 46 15 46 2z"/>
<path fill="#ffffff" stroke="none" d="M170 83 c-8 -3 -22 -11 -30 -17 -13
-10 -13 -9 -1 7 7 9 21 17 30 16 13 0 14 -1 1 -6z"/>
<path fill="#ffffff" stroke="none" d="M95 70 c-3 -5 -14 -10 -23 -9 -14 0
-13 2 3 9 27 11 27 11 20 0z"/>
<path fill="#ffffff" stroke="none" d="M307 58 c-3 -8 -6 -5 -6 6 -1 11 2 17
5 13 3 -3 4 -12 1 -19z"/>
<path fill="#ffffff" stroke="none" d="M188 46 c-4 -21 -1 -26 21 -29 15 -2 7
-5 -19 -5 -35 -1 -41 1 -27 9 9 5 17 19 17 29 0 11 3 20 6 20 4 0 4 -11 2 -24z"/>
<path fill="#ffffff" stroke="none" d="M275 60 c-3 -5 -11 -10 -16 -10 -6 0
-7 5 -4 10 3 6 11 10 16 10 6 0 7 -4 4 -10z"/>
<path fill="#ffffff" stroke="none" d="M110 50 c0 -5 -5 -10 -11 -10 -5 0 -7
5 -4 10 3 6 8 10 11 10 2 0 4 -4 4 -10z"/>
<path fill="#ffffff" stroke="none" d="M295 31 c-16 -14 -55 -23 -55 -12 0 8
16 14 55 20 6 0 6 -2 0 -8z"/>
<path fill="#ffffff" stroke="none" d="M73 13 c-13 -2 -33 -2 -45 0 -13 2 -3
4 22 4 25 0 35 -2 23 -4z"/>
<path fill="#ffffff" stroke="none" d="M127 14 c-3 -3 -12 -4 -19 -1 -8 3 -5
6 6 6 11 1 17 -2 13 -5z"/>
</g>
</svg>
