<?xml version="1.0" standalone="no"?>
<!DOCTYPE svg PUBLIC "-//W3C//DTD SVG 20010904//EN"
 "http://www.w3.org/TR/2001/REC-SVG-20010904/DTD/svg10.dtd">
<svg version="1.0" xmlns="http://www.w3.org/2000/svg"
 width="32.000000pt" height="32.000000pt" viewBox="0 0 32.000000 32.000000"
 preserveAspectRatio="xMidYMid meet">
<metadata>
Created by potrace 1.16, written by Peter Selinger 2001-2019
</metadata>
<g transform="translate(0.000000,32.000000) scale(0.100000,-0.100000)"
fill="#000000" stroke="none">
<path fill="#000000" stroke="none" d="M4 165 l1 -150 60 1 c56 1 124 18 113
29 -3 3 -20 7 -39 9 -19 2 -37 4 -41 5 -3 0 -9 14 -13 30 -3 17 -14 32 -23 34
-15 4 -15 5 0 6 11 1 23 -12 32 -34 18 -42 28 -45 20 -6 -8 41 26 75 68 67 16
-3 27 -2 23 3 -3 6 7 11 22 13 22 2 29 9 31 31 3 23 0 27 -20 27 -13 0 -29 -5
-36 -12 -9 -9 -12 -8 -12 5 0 9 7 18 15 18 29 3 33 4 42 13 5 5 -7 6 -29 3
-25 -4 -38 -1 -42 8 -5 14 2 25 15 25 5 0 6 -7 2 -16 -5 -14 -3 -15 16 -5 12
7 19 16 16 22 -11 17 4 9 26 -13 12 -13 18 -16 14 -8 -7 12 -6 13 6 2 12 -11
12 -14 0 -21 -9 -6 -10 -11 -2 -15 12 -8 5 -53 -12 -74 -6 -7 -16 -11 -24 -8
-8 3 -11 1 -8 -4 10 -16 34 -11 47 10 15 24 28 26 28 5 0 -29 -63 -55 -80 -33
-3 3 -18 8 -34 10 -24 2 -33 -3 -45 -24 -13 -23 -14 -29 -2 -40 8 -7 12 -8 9
-3 -3 6 -2 20 3 32 6 17 16 23 36 22 28 -1 28 -1 3 -8 -35 -10 -40 -61 -5 -61
16 0 25 7 29 26 5 19 10 24 18 16 18 -18 -2 -50 -45 -71 l-42 -21 72 0 c80 0
95 11 91 68 -2 23 -6 28 -21 24 -10 -3 -21 -12 -24 -21 -2 -9 -9 -24 -14 -34
-5 -9 -7 -17 -3 -17 13 0 44 22 44 31 0 6 -5 7 -11 3 -7 -4 -10 -1 -7 6 8 25
28 22 28 -4 0 -28 -25 -46 -65 -46 -24 0 -25 2 -11 15 18 18 30 54 22 63 -4 3
8 11 26 16 32 11 33 13 35 71 1 46 -1 53 -7 30 -8 -32 -13 -25 -10 15 1 14 6
29 11 34 5 6 9 20 9 31 0 21 -4 21 -153 21 l-153 -1 0 -150z"/>
<path fill="#ffffff" stroke="none" d="M175 296 c-11 -8 -16 -20 -12 -29 3 -8
-1 -21 -9 -28 -12 -10 -12 -14 -2 -21 8 -6 5 -7 -11 -3 -16 5 -21 4 -17 -4 4
-6 0 -11 -8 -11 -23 0 -20 21 3 27 12 3 21 17 25 38 6 31 16 42 40 44 6 1 1
-5 -9 -13z"/>
<path fill="#ffffff" stroke="none" d="M60 296 c0 -2 -9 -6 -20 -9 -11 -3 -18
-1 -14 4 5 9 34 13 34 5z"/>
<path fill="#ffffff" stroke="none" d="M82 279 c-18 -12 -35 -19 -38 -16 -3 3
7 12 23 21 42 23 53 19 15 -5z"/>
<path fill="#ffffff" stroke="none" d="M121 269 c-20 -17 -21 -19 -5 -19 15 0
14 -3 -6 -13 -14 -7 -26 -21 -28 -31 -4 -17 1 -18 37 -13 48 6 50 0 10 -31
-28 -23 -41 -18 -17 6 9 9 5 12 -21 12 -29 0 -32 2 -25 23 3 12 10 27 15 33
11 14 -40 6 -58 -9 -9 -6 -13 -6 -13 1 0 11 23 22 48 22 9 0 31 11 47 24 17
13 32 22 35 19 3 -2 -6 -13 -19 -24z"/>
<path fill="#ffffff" stroke="none" d="M300 279 c0 -5 -4 -9 -10 -9 -5 0 -10
7 -10 16 0 8 5 12 10 9 6 -3 10 -10 10 -16z"/>
<path fill="#ffffff" stroke="none" d="M180 230 c0 -5 -2 -10 -4 -10 -3 0 -8
5 -11 10 -3 6 -1 10 4 10 6 0 11 -4 11 -10z"/>
<path fill="#ffffff" stroke="none" d="M60 221 c0 -5 -7 -11 -15 -15 -15 -5
-20 5 -8 17 9 10 23 9 23 -2z"/>
<path fill="#ffffff" stroke="none" d="M250 200 c0 -5 -4 -12 -10 -15 -5 -3
-10 0 -10 7 0 10 -3 9 -10 -2 -5 -8 -12 -11 -16 -7 -11 10 16 36 32 30 8 -3
14 -9 14 -13z"/>
<path fill="#ffffff" stroke="none" d="M186 173 c-11 -11 -19 6 -11 24 8 17 8
17 12 0 3 -10 2 -21 -1 -24z"/>
<path fill="#ffffff" stroke="none" d="M73 163 c2 7 8 9 12 4 17 -15 -11 -28
-38 -18 -15 6 -27 13 -27 16 0 2 11 0 24 -5 17 -6 26 -5 29 3z"/>
<path fill="#ffffff" stroke="none" d="M68 87 c2 -9 -1 -17 -7 -17 -6 0 -7 8
-4 18 6 15 5 15 -11 3 -9 -8 -15 -20 -12 -28 3 -8 1 -11 -4 -8 -14 8 -13 28 2
43 15 15 32 10 36 -11z"/>
<path fill="#ffffff" stroke="none" d="M196 81 c-11 -17 -25 -13 -21 7 2 9 4
19 4 22 1 2 6 -1 12 -7 6 -6 8 -16 5 -22z"/>
<path fill="#ffffff" stroke="none" d="M121 43 c12 3 18 2 13 -3 -5 -4 -34
-10 -64 -13 -38 -4 -46 -3 -25 2 17 5 23 9 15 10 -13 1 -13 2 0 11 9 5 19 5
27 -2 7 -6 23 -8 34 -5z"/>
</g>
</svg>
