<?xml version="1.0" standalone="no"?>
<!DOCTYPE svg PUBLIC "-//W3C//DTD SVG 20010904//EN"
 "http://www.w3.org/TR/2001/REC-SVG-20010904/DTD/svg10.dtd">
<svg version="1.0" xmlns="http://www.w3.org/2000/svg"
 width="32.000000pt" height="32.000000pt" viewBox="0 0 32.000000 32.000000"
 preserveAspectRatio="xMidYMid meet">
<metadata>
Created by potrace 1.16, written by Peter Selinger 2001-2019
</metadata>
<g transform="translate(0.000000,32.000000) scale(0.100000,-0.100000)"
fill="#000000" stroke="none">
<path fill="#000000" stroke="none" d="M138 303 c6 -2 18 -2 25 0 6 3 1 5 -13
5 -14 0 -19 -2 -12 -5z"/>
<path fill="#000000" stroke="none" d="M186 301 c-3 -5 16 -6 42 -4 69 7 74
11 15 12 -28 1 -54 -3 -57 -8z"/>
<path fill="#000000" stroke="none" d="M24 286 c-29 -22 -13 -24 26 -4 26 13
30 18 14 18 -11 0 -29 -6 -40 -14z"/>
<path fill="#000000" stroke="none" d="M248 283 c7 -3 16 -2 19 1 4 3 -2 6
-13 5 -11 0 -14 -3 -6 -6z"/>
<path fill="#000000" stroke="none" d="M45 260 c-3 -5 -2 -10 4 -10 5 0 13 5
16 10 3 6 2 10 -4 10 -5 0 -13 -4 -16 -10z"/>
<path fill="#000000" stroke="none" d="M13 195 c-3 -9 -3 -18 -1 -21 3 -3 8 4
11 16 6 23 -1 27 -10 5z"/>
<path fill="#000000" stroke="none" d="M43 170 c-23 -14 -33 -27 -32 -42 2
-23 2 -23 6 -1 2 12 19 28 39 38 32 15 43 25 27 25 -5 0 -23 -9 -40 -20z"/>
<path fill="#000000" stroke="none" d="M54 136 c-6 -7 -15 -23 -18 -37 -6 -22
-6 -23 5 -4 6 11 19 28 27 38 8 9 11 17 6 17 -5 -1 -14 -7 -20 -14z"/>
</g>
</svg>
