<?xml version="1.0" standalone="no"?>
<!DOCTYPE svg PUBLIC "-//W3C//DTD SVG 20010904//EN"
 "http://www.w3.org/TR/2001/REC-SVG-20010904/DTD/svg10.dtd">
<svg version="1.0" xmlns="http://www.w3.org/2000/svg"
 width="32.000000pt" height="32.000000pt" viewBox="0 0 32.000000 32.000000"
 preserveAspectRatio="xMidYMid meet">
<metadata>
Created by potrace 1.16, written by Peter Selinger 2001-2019
</metadata>
<g transform="translate(0.000000,32.000000) scale(0.100000,-0.100000)"
fill="#000000" stroke="none">
<path fill="#000000" stroke="none" d="M1 160 l0 -159 52 5 c28 3 60 7 70 9 9
2 17 -1 17 -5 0 -5 8 -7 18 -5 9 2 27 4 40 4 13 1 20 5 17 11 -3 6 -1 10 4 10
6 0 11 -7 11 -15 0 -9 9 -15 23 -15 18 0 19 2 7 10 -12 8 -10 10 8 10 13 0 20
-4 17 -10 -3 -5 4 -10 16 -10 18 0 19 3 9 15 -6 8 -9 19 -5 26 7 10 8 84 6
229 l-1 46 -155 2 -154 2 0 -160z"/>
<path fill="#ffffff" stroke="none" d="M183 263 c-3 -18 -9 -33 -14 -33 -12 0
-11 13 1 46 13 34 19 28 13 -13z"/>
<path fill="#ffffff" stroke="none" d="M297 294 c-3 -3 -12 -4 -19 -1 -8 3 -5
6 6 6 11 1 17 -2 13 -5z"/>
<path fill="#ffffff" stroke="none" d="M216 262 c-18 -16 -18 -16 -6 6 6 13
14 21 18 18 3 -4 -2 -14 -12 -24z"/>
<path fill="#ffffff" stroke="none" d="M297 248 c-3 -8 -6 -5 -6 6 -1 11 2 17
5 13 3 -3 4 -12 1 -19z"/>
<path fill="#ffffff" stroke="none" d="M103 240 c-3 -12 -8 -19 -11 -16 -5 6
5 36 12 36 2 0 2 -9 -1 -20z"/>
<path fill="#ffffff" stroke="none" d="M147 238 c-3 -8 -6 -5 -6 6 -1 11 2 17
5 13 3 -3 4 -12 1 -19z"/>
<path fill="#ffffff" stroke="none" d="M236 214 c-3 -8 -11 -14 -18 -14 -9 0
-9 3 0 12 7 7 13 21 13 33 1 17 2 18 6 2 3 -10 2 -25 -1 -33z"/>
<path fill="#ffffff" stroke="none" d="M274 228 c-10 -34 -24 -48 -48 -48 -19
0 -19 1 4 13 14 7 26 23 28 35 2 12 8 22 13 22 6 0 7 -10 3 -22z"/>
<path fill="#ffffff" stroke="none" d="M70 230 c0 -5 -5 -10 -11 -10 -5 0 -7
5 -4 10 3 6 8 10 11 10 2 0 4 -4 4 -10z"/>
<path fill="#ffffff" stroke="none" d="M295 191 c-3 -11 -22 -28 -41 -37 -33
-16 -36 -16 -52 1 -16 16 -16 17 4 11 29 -9 71 12 78 37 3 12 8 18 12 15 3 -4
3 -16 -1 -27z"/>
<path fill="#ffffff" stroke="none" d="M153 183 c-7 -2 -19 -2 -25 0 -7 3 -2
5 12 5 14 0 19 -2 13 -5z"/>
<path fill="#ffffff" stroke="none" d="M104 165 c-4 -8 -8 -15 -10 -15 -2 0
-4 7 -4 15 0 8 4 15 10 15 5 0 7 -7 4 -15z"/>
<path fill="#ffffff" stroke="none" d="M64 154 c12 -5 13 -9 3 -25 -6 -10 -16
-19 -21 -19 -6 0 -5 5 2 12 15 15 16 32 2 23 -5 -3 -10 -1 -10 4 0 13 3 13 24
5z"/>
<path fill="#ffffff" stroke="none" d="M132 137 c-7 -8 -10 -17 -7 -21 3 -3 0
-2 -7 3 -8 8 -8 14 2 26 7 8 15 13 18 10 3 -2 0 -11 -6 -18z"/>
<path fill="#ffffff" stroke="none" d="M300 147 c0 -8 -7 -14 -15 -14 -11 0
-12 4 -4 14 6 7 13 13 15 13 2 0 4 -6 4 -13z"/>
<path fill="#ffffff" stroke="none" d="M164 115 c-3 -7 -11 -16 -18 -18 -11
-4 -11 0 -2 18 11 24 29 25 20 0z"/>
<path fill="#ffffff" stroke="none" d="M260 130 c0 -5 -5 -10 -11 -10 -5 0 -7
5 -4 10 3 6 8 10 11 10 2 0 4 -4 4 -10z"/>
<path fill="#ffffff" stroke="none" d="M186 95 c-9 -14 -23 -25 -32 -25 -11 0
-13 -6 -9 -21 5 -14 3 -19 -3 -15 -6 3 -13 2 -17 -4 -3 -5 -23 -9 -43 -9 l-37
2 35 6 c23 4 38 14 45 29 5 12 15 22 22 22 7 0 20 11 29 25 9 14 19 23 22 21
2 -3 -3 -17 -12 -31z"/>
<path fill="#ffffff" stroke="none" d="M222 85 c-5 -45 -12 -45 -12 0 0 19 4
35 8 35 4 0 6 -16 4 -35z"/>
<path fill="#ffffff" stroke="none" d="M280 96 c0 -2 -11 -6 -25 -8 -13 -3
-22 -1 -19 3 5 9 44 13 44 5z"/>
<path fill="#ffffff" stroke="none" d="M300 60 c0 -16 -41 -33 -52 -22 -6 6 0
12 17 16 16 4 23 11 19 18 -4 7 -3 8 4 4 7 -4 12 -11 12 -16z"/>
<path fill="#ffffff" stroke="none" d="M98 45 c-3 -3 -9 2 -12 12 -6 14 -5 15
5 6 7 -7 10 -15 7 -18z"/>
<path fill="#ffffff" stroke="none" d="M65 50 c-3 -5 -12 -10 -18 -10 -7 0 -6
4 3 10 19 12 23 12 15 0z"/>
<path fill="#ffffff" stroke="none" d="M193 46 c7 -17 -20 -30 -29 -14 -5 7
-2 8 6 3 10 -6 12 -4 7 8 -3 10 -2 17 2 17 5 0 11 -6 14 -14z"/>
</g>
</svg>
