<?xml version="1.0" standalone="no"?>
<!DOCTYPE svg PUBLIC "-//W3C//DTD SVG 20010904//EN"
 "http://www.w3.org/TR/2001/REC-SVG-20010904/DTD/svg10.dtd">
<svg version="1.0" xmlns="http://www.w3.org/2000/svg"
 width="32.000000pt" height="32.000000pt" viewBox="0 0 32.000000 32.000000"
 preserveAspectRatio="xMidYMid meet">
<metadata>
Created by potrace 1.16, written by Peter Selinger 2001-2019
</metadata>
<g transform="translate(0.000000,32.000000) scale(0.100000,-0.100000)"
fill="#000000" stroke="none">
<path fill="#000000" stroke="none" d="M1 158 l0 -158 160 0 159 0 0 161 0
160 -160 -2 -160 -3 1 -158z"/>
<path fill="#ffffff" stroke="none" d="M260 302 c-30 -2 -60 -8 -66 -13 -8 -7
-14 -6 -19 1 -3 5 -13 10 -21 10 -8 0 -12 -4 -9 -10 3 -5 1 -10 -4 -10 -6 0
-11 4 -11 9 0 5 -8 11 -17 14 -10 2 32 4 92 4 61 -1 85 -3 55 -5z"/>
<path fill="#ffffff" stroke="none" d="M106 285 c17 -13 16 -14 -13 -4 -23 7
-37 7 -52 -1 -26 -13 -26 -25 -1 -50 26 -26 39 -25 50 3 6 15 9 17 9 6 2 -54
-83 -43 -87 11 -4 46 52 67 94 35z"/>
<path fill="#ffffff" stroke="none" d="M250 283 c-14 -3 -29 -9 -34 -14 -6 -5
-15 -9 -20 -9 -6 0 -2 7 8 15 11 8 31 14 45 14 l26 -2 -25 -4z"/>
<path fill="#ffffff" stroke="none" d="M310 277 c0 -6 -16 -17 -35 -23 -19 -6
-35 -8 -35 -3 0 4 14 10 30 14 17 4 30 11 30 16 0 5 2 9 5 9 3 0 5 -6 5 -13z"/>
<path fill="#ffffff" stroke="none" d="M72 259 c-13 -5 -20 -13 -17 -19 3 -5
1 -10 -4 -10 -12 0 -15 23 -4 33 3 4 16 7 27 6 20 0 20 -1 -2 -10z"/>
<path fill="#ffffff" stroke="none" d="M150 247 c-14 -7 -26 -22 -28 -33 -2
-14 -18 -28 -45 -40 -23 -10 -47 -30 -54 -44 -12 -23 -13 -21 -13 28 0 50 12
68 24 36 3 -8 2 -12 -4 -9 -6 3 -10 -1 -10 -9 0 -28 81 17 96 53 9 22 20 31
36 31 23 0 23 0 -2 -13z"/>
<path fill="#ffffff" stroke="none" d="M170 225 c-7 -9 -15 -13 -19 -10 -3 3
1 10 9 15 21 14 24 12 10 -5z"/>
<path fill="#ffffff" stroke="none" d="M289 228 c-2 -2 -17 -14 -34 -28 l-30
-25 24 28 c14 15 29 27 34 27 6 0 8 -1 6 -2z"/>
<path fill="#ffffff" stroke="none" d="M190 186 c0 -3 -4 -8 -10 -11 -5 -3
-10 -1 -10 4 0 6 5 11 10 11 6 0 10 -2 10 -4z"/>
<path fill="#ffffff" stroke="none" d="M205 150 c-3 -5 -18 -9 -33 -9 l-27 1
30 8 c17 4 31 8 33 9 2 0 0 -3 -3 -9z"/>
<path fill="#ffffff" stroke="none" d="M290 156 c0 -2 -8 -10 -17 -17 -16 -13
-17 -12 -4 4 13 16 21 21 21 13z"/>
<path fill="#ffffff" stroke="none" d="M83 140 c-26 -10 -47 -46 -39 -66 3 -8
1 -14 -4 -14 -15 0 -12 43 6 68 8 12 25 22 37 21 l22 0 -22 -9z"/>
<path fill="#ffffff" stroke="none" d="M310 125 c0 -8 -4 -15 -10 -15 -5 0 -7
7 -4 15 4 8 8 15 10 15 2 0 4 -7 4 -15z"/>
<path fill="#ffffff" stroke="none" d="M106 121 c-10 -4 -24 -18 -32 -32 -7
-13 -13 -18 -14 -11 0 26 21 52 43 51 20 0 20 -1 3 -8z"/>
<path fill="#ffffff" stroke="none" d="M267 109 c-10 -6 -22 -20 -27 -32 -8
-21 -9 -21 -9 -1 -1 24 17 44 39 44 12 -1 11 -3 -3 -11z"/>
<path fill="#ffffff" stroke="none" d="M140 66 c0 -18 -27 -46 -43 -45 -7 0
-2 7 11 16 12 8 22 22 22 29 0 8 2 14 5 14 3 0 5 -6 5 -14z"/>
<path fill="#ffffff" stroke="none" d="M207 58 c-3 -8 -6 -5 -6 6 -1 11 2 17
5 13 3 -3 4 -12 1 -19z"/>
<path fill="#ffffff" stroke="none" d="M27 28 c-6 -3 3 -8 19 -11 l29 -4 -32
-2 c-31 -1 -33 1 -33 31 0 30 1 31 14 12 10 -13 11 -21 3 -26z"/>
<path fill="#ffffff" stroke="none" d="M300 35 c0 -2 -10 -9 -22 -15 -22 -11
-22 -10 -4 4 21 17 26 19 26 11z"/>
<path fill="#ffffff" stroke="none" d="M197 14 c-3 -3 -12 -4 -19 -1 -8 3 -5
6 6 6 11 1 17 -2 13 -5z"/>
</g>
</svg>
