<?xml version="1.0" standalone="no"?>
<!DOCTYPE svg PUBLIC "-//W3C//DTD SVG 20010904//EN"
 "http://www.w3.org/TR/2001/REC-SVG-20010904/DTD/svg10.dtd">
<svg version="1.0" xmlns="http://www.w3.org/2000/svg"
 width="32.000000pt" height="32.000000pt" viewBox="0 0 32.000000 32.000000"
 preserveAspectRatio="xMidYMid meet">
<metadata>
Created by potrace 1.16, written by Peter Selinger 2001-2019
</metadata>
<g transform="translate(0.000000,32.000000) scale(0.100000,-0.100000)"
fill="#000000" stroke="none">
<path fill="#000000" stroke="none" d="M98 303 c7 -3 16 -2 19 1 4 3 -2 6 -13
5 -11 0 -14 -3 -6 -6z"/>
<path fill="#000000" stroke="none" d="M15 289 c-11 -17 1 -21 15 -4 8 9 8 15
2 15 -6 0 -14 -5 -17 -11z"/>
<path fill="#000000" stroke="none" d="M40 185 c-11 -13 -10 -14 4 -9 9 3 16
10 16 15 0 13 -6 11 -20 -6z"/>
<path fill="#000000" stroke="none" d="M19 128 c-12 -23 -12 -23 10 -4 23 21
26 26 11 26 -5 0 -15 -10 -21 -22z"/>
</g>
</svg>
