<?xml version="1.0" standalone="no"?>
<!DOCTYPE svg PUBLIC "-//W3C//DTD SVG 20010904//EN"
 "http://www.w3.org/TR/2001/REC-SVG-20010904/DTD/svg10.dtd">
<svg version="1.0" xmlns="http://www.w3.org/2000/svg"
 width="32.000000pt" height="32.000000pt" viewBox="0 0 32.000000 32.000000"
 preserveAspectRatio="xMidYMid meet">
<metadata>
Created by potrace 1.16, written by Peter Selinger 2001-2019
</metadata>
<g transform="translate(0.000000,32.000000) scale(0.100000,-0.100000)"
fill="#000000" stroke="none">
<path fill="#000000" stroke="none" d="M11 309 c6 -3 6 -16 1 -30 -4 -13 -7
-76 -6 -139 2 -135 2 -130 13 -130 4 0 7 12 5 28 -2 15 -1 19 2 10 10 -32 23
-19 18 18 -3 31 -2 36 13 32 14 -4 18 2 19 24 1 34 -4 36 -16 5 -8 -19 -9 -20
-9 -3 -1 11 6 27 15 37 15 17 15 18 -4 16 -11 0 -20 -4 -20 -7 0 -3 0 -12 -1
-20 -1 -13 -2 -13 -11 0 -11 18 16 51 36 43 8 -3 14 -2 12 3 -1 5 1 24 5 42 5
26 15 37 49 52 28 12 45 15 49 9 8 -14 51 -7 57 9 3 9 -2 10 -21 3 -14 -5 -27
-7 -30 -4 -3 3 -46 6 -95 7 -50 0 -86 -2 -81 -5z"/>
<path fill="#ffffff" stroke="none" d="M70 296 c0 -3 -4 -8 -10 -11 -5 -3 -10
-1 -10 4 0 6 5 11 10 11 6 0 10 -2 10 -4z"/>
<path fill="#ffffff" stroke="none" d="M90 280 c-11 -11 -20 -31 -20 -44 0
-17 -7 -25 -25 -28 -14 -3 -28 0 -32 6 -3 6 -3 8 2 4 12 -11 45 11 45 30 -1
16 -1 16 -11 -1 -6 -9 -14 -15 -20 -12 -12 8 -12 42 1 50 7 4 8 -3 4 -21 l-7
-28 29 31 c16 18 35 32 42 32 7 1 4 -7 -8 -19z"/>
<path fill="#ffffff" stroke="none" d="M27 83 c-3 -10 -5 -2 -5 17 0 19 2 27
5 18 2 -10 2 -26 0 -35z"/>
<path fill="#000000" stroke="none" d="M258 303 c6 -2 18 -2 25 0 6 3 1 5 -13
5 -14 0 -19 -2 -12 -5z"/>
<path fill="#000000" stroke="none" d="M134 272 c-27 -21 -39 -58 -23 -68 8
-4 9 -3 5 5 -8 12 10 41 24 41 5 0 6 -10 4 -22 -4 -21 -4 -21 5 -3 5 12 5 25
-1 33 -8 8 -6 12 6 12 9 0 16 5 16 10 0 15 -12 12 -36 -8z"/>
<path fill="#000000" stroke="none" d="M298 237 c-3 -19 -2 -25 4 -19 6 6 8
18 6 28 -3 14 -5 12 -10 -9z"/>
<path fill="#000000" stroke="none" d="M230 244 c0 -6 7 -19 16 -30 14 -18 14
-18 3 6 -14 31 -19 36 -19 24z"/>
<path fill="#000000" stroke="none" d="M168 215 c-3 -14 -1 -25 3 -25 5 0 9
11 9 25 0 14 -2 25 -4 25 -2 0 -6 -11 -8 -25z"/>
<path fill="#000000" stroke="none" d="M211 217 c-1 -20 -10 -33 -30 -45 -17
-9 -32 -28 -34 -42 -7 -34 0 -39 9 -6 3 14 12 26 20 26 20 0 46 45 41 72 -4
20 -4 19 -6 -5z"/>
<path fill="#000000" stroke="none" d="M120 165 c-6 -8 -9 -19 -5 -25 4 -6 1
-18 -6 -26 -6 -8 -9 -17 -6 -20 8 -9 29 35 22 47 -4 5 -1 16 5 24 7 8 10 15 7
15 -2 0 -10 -7 -17 -15z"/>
<path fill="#000000" stroke="none" d="M212 160 c-7 -11 -8 -20 -3 -20 9 0 24
30 18 36 -1 2 -8 -6 -15 -16z"/>
<path fill="#000000" stroke="none" d="M245 150 c-3 -5 -1 -10 4 -10 6 0 11 5
11 10 0 6 -2 10 -4 10 -3 0 -8 -4 -11 -10z"/>
<path fill="#000000" stroke="none" d="M175 121 c-3 -5 0 -13 6 -17 7 -4 9 -3
5 4 -3 5 0 13 6 15 9 4 10 6 1 6 -6 1 -14 -3 -18 -8z"/>
<path fill="#000000" stroke="none" d="M252 100 c0 -14 2 -19 5 -12 2 6 2 18
0 25 -3 6 -5 1 -5 -13z"/>
<path fill="#000000" stroke="none" d="M282 100 c-8 -13 -8 -20 -2 -20 6 0 13
7 17 15 9 24 -1 27 -15 5z"/>
<path fill="#000000" stroke="none" d="M209 93 c-13 -16 -12 -17 4 -4 9 7 17
15 17 17 0 8 -8 3 -21 -13z"/>
<path fill="#000000" stroke="none" d="M110 75 c-11 -13 -10 -14 4 -9 9 3 16
10 16 15 0 13 -6 11 -20 -6z"/>
<path fill="#000000" stroke="none" d="M240 60 c-8 -5 -10 -10 -5 -10 6 0 17
5 25 10 8 5 11 10 5 10 -5 0 -17 -5 -25 -10z"/>
<path fill="#000000" stroke="none" d="M177 53 c-4 -3 -7 -11 -7 -17 0 -6 5
-5 12 2 6 6 9 14 7 17 -3 3 -9 2 -12 -2z"/>
<path fill="#000000" stroke="none" d="M95 41 c-3 -5 0 -13 6 -17 7 -4 9 -3 5
4 -3 5 0 13 6 15 9 4 10 6 1 6 -6 1 -14 -3 -18 -8z"/>
<path fill="#000000" stroke="none" d="M199 33 c-13 -16 -12 -17 4 -4 16 13
21 21 13 21 -2 0 -10 -8 -17 -17z"/>
<path fill="#000000" stroke="none" d="M245 29 c-11 -16 -1 -19 13 -3 7 8 8
14 3 14 -5 0 -13 -5 -16 -11z"/>
</g>
</svg>
