<?xml version="1.0" standalone="no"?>
<!DOCTYPE svg PUBLIC "-//W3C//DTD SVG 20010904//EN"
 "http://www.w3.org/TR/2001/REC-SVG-20010904/DTD/svg10.dtd">
<svg version="1.0" xmlns="http://www.w3.org/2000/svg"
 width="32.000000pt" height="32.000000pt" viewBox="0 0 32.000000 32.000000"
 preserveAspectRatio="xMidYMid meet">
<metadata>
Created by potrace 1.16, written by Peter Selinger 2001-2019
</metadata>
<g transform="translate(0.000000,32.000000) scale(0.100000,-0.100000)"
fill="#000000" stroke="none">
<path fill="#000000" stroke="none" d="M138 302 c23 -2 42 -8 42 -14 0 -7 4
-7 13 0 7 6 37 12 67 14 30 2 6 4 -55 4 -60 0 -91 -2 -67 -4z"/>
<path fill="#000000" stroke="none" d="M28 289 c-19 -11 -25 -49 -8 -49 5 0 7
6 4 14 -9 24 32 39 69 27 29 -10 30 -9 13 4 -23 17 -53 19 -78 4z"/>
<path fill="#000000" stroke="none" d="M210 280 c-9 -6 -10 -10 -3 -10 6 0 15
5 18 10 8 12 4 12 -15 0z"/>
<path fill="#000000" stroke="none" d="M248 283 c7 -3 16 -2 19 1 4 3 -2 6
-13 5 -11 0 -14 -3 -6 -6z"/>
<path fill="#000000" stroke="none" d="M300 282 c0 -6 -13 -13 -30 -17 -16 -4
-30 -11 -30 -16 0 -5 12 -3 28 3 35 15 47 26 39 35 -4 3 -7 1 -7 -5z"/>
<path fill="#000000" stroke="none" d="M47 263 c-11 -10 -8 -33 4 -33 5 0 8 4
4 9 -3 6 3 14 12 20 15 9 15 10 2 11 -9 0 -19 -3 -22 -7z"/>
<path fill="#000000" stroke="none" d="M127 242 c-10 -10 -17 -24 -17 -30 0
-6 -22 -21 -50 -33 -42 -18 -50 -26 -50 -48 l0 -26 13 25 c7 14 31 34 55 44
26 12 42 26 42 37 0 10 10 25 22 33 12 9 18 16 12 16 -6 0 -18 -8 -27 -18z"/>
<path fill="#000000" stroke="none" d="M87 231 c-4 -16 -11 -22 -21 -18 -9 4
-16 2 -16 -3 0 -15 26 -12 40 5 6 8 10 20 8 27 -3 7 -7 2 -11 -11z"/>
<path fill="#000000" stroke="none" d="M20 221 c10 -7 11 -11 3 -11 -7 0 -13
-10 -12 -22 0 -13 3 -17 6 -10 2 6 8 10 12 8 4 -3 7 5 6 16 -1 12 -8 24 -16
26 -11 3 -11 1 1 -7z"/>
<path fill="#000000" stroke="none" d="M254 208 l-19 -23 25 20 c14 11 27 21
29 22 2 2 0 3 -6 3 -5 0 -18 -10 -29 -22z"/>
<path fill="#000000" stroke="none" d="M170 179 c0 -5 5 -7 10 -4 6 3 10 8 10
11 0 2 -4 4 -10 4 -5 0 -10 -5 -10 -11z"/>
<path fill="#000000" stroke="none" d="M46 128 c-9 -12 -16 -34 -15 -48 1 -23
2 -22 10 7 5 18 19 39 31 48 18 12 19 15 6 15 -9 0 -24 -10 -32 -22z"/>
<path fill="#000000" stroke="none" d="M168 143 c7 -3 16 -2 19 1 4 3 -2 6
-13 5 -11 0 -14 -3 -6 -6z"/>
<path fill="#000000" stroke="none" d="M70 109 c-16 -29 -9 -29 17 -2 16 16
18 23 8 23 -8 0 -19 -9 -25 -21z"/>
<path fill="#000000" stroke="none" d="M243 105 c-7 -8 -13 -22 -12 -32 0 -15
2 -14 9 4 5 12 17 26 27 32 14 8 14 10 3 10 -8 0 -21 -6 -27 -14z"/>
<path fill="#000000" stroke="none" d="M10 42 c0 -29 3 -32 28 -31 25 2 26 2
3 6 -13 3 -19 8 -13 11 7 5 6 13 -4 26 -13 19 -14 18 -14 -12z"/>
<path fill="#000000" stroke="none" d="M113 44 c-12 -13 -18 -24 -13 -24 11 0
40 29 40 41 0 12 -1 11 -27 -17z"/>
<path fill="#000000" stroke="none" d="M265 20 c-3 -6 1 -7 9 -4 18 7 21 14 7
14 -6 0 -13 -4 -16 -10z"/>
<path fill="#000000" stroke="none" d="M178 13 c7 -3 16 -2 19 1 4 3 -2 6 -13
5 -11 0 -14 -3 -6 -6z"/>
</g>
</svg>
