<?xml version="1.0" standalone="no"?>
<!DOCTYPE svg PUBLIC "-//W3C//DTD SVG 20010904//EN"
 "http://www.w3.org/TR/2001/REC-SVG-20010904/DTD/svg10.dtd">
<svg version="1.0" xmlns="http://www.w3.org/2000/svg"
 width="32.000000pt" height="32.000000pt" viewBox="0 0 32.000000 32.000000"
 preserveAspectRatio="xMidYMid meet">
<metadata>
Created by potrace 1.16, written by Peter Selinger 2001-2019
</metadata>
<g transform="translate(0.000000,32.000000) scale(0.100000,-0.100000)"
fill="#000000" stroke="none">
<path fill="#000000" stroke="none" d="M1 161 c2 -149 3 -160 20 -158 10 2 22
6 25 10 4 4 19 7 33 6 l26 -1 -25 -8 c-16 -4 6 -7 57 -6 57 1 83 5 83 13 0 6
-4 15 -10 18 -6 3 -10 1 -10 -4 0 -6 -10 -11 -22 -11 -22 1 -22 1 5 21 15 11
27 25 27 30 0 5 9 18 20 29 12 12 19 29 16 43 -3 17 3 26 21 34 24 11 24 11
11 -5 -14 -16 -30 -72 -21 -72 2 0 13 5 24 11 18 9 20 8 17 -17 -2 -17 -10
-28 -21 -30 -24 -3 -35 -16 -19 -21 6 -3 9 -9 6 -14 -4 -6 -11 -6 -20 2 -20
16 1 53 27 46 12 -3 19 0 19 8 0 10 -7 11 -31 5 -37 -11 -36 -10 -40 -30 -7
-45 44 -70 60 -28 5 13 10 17 15 10 3 -6 2 -13 -4 -17 -15 -9 -12 -25 5 -25
12 0 15 14 15 69 0 38 2 84 5 102 l5 34 -10 -31 c-12 -37 -40 -66 -40 -41 0 8
7 20 15 27 8 7 15 28 15 47 0 19 3 32 8 30 4 -3 7 14 7 37 l0 43 -157 2 -158
2 1 -160z"/>
<path fill="#ffffff" stroke="none" d="M168 289 c-10 -5 -18 -18 -18 -27 1
-15 3 -14 16 3 15 19 16 19 12 1 -4 -25 -26 -32 -34 -12 -7 18 12 46 30 46 6
0 3 -5 -6 -11z"/>
<path fill="#ffffff" stroke="none" d="M240 265 c-7 -8 -19 -15 -26 -15 -8 0
-14 -7 -14 -15 0 -10 -10 -15 -32 -15 -19 0 -41 -9 -55 -22 -13 -12 -23 -17
-23 -11 0 6 7 16 15 23 8 7 16 24 16 39 2 23 2 24 6 4 3 -15 12 -23 24 -23 19
0 81 37 88 53 1 5 6 6 8 3 3 -3 0 -12 -7 -21z"/>
<path fill="#ffffff" stroke="none" d="M54 268 c-3 -4 -9 -8 -15 -8 -5 0 -9 4
-9 8 0 5 7 9 15 9 8 0 12 -4 9 -9z"/>
<path fill="#ffffff" stroke="none" d="M294 265 c7 -19 -7 -57 -27 -74 -19
-15 -49 -11 -55 7 -3 11 0 12 16 3 17 -9 23 -7 36 11 9 12 16 27 16 33 0 5 -5
3 -10 -5 -8 -12 -10 -9 -10 13 0 29 24 38 34 12z"/>
<path fill="#ffffff" stroke="none" d="M65 240 c-4 -12 -2 -20 5 -20 7 0 14 9
17 20 3 11 9 17 14 14 15 -9 10 -23 -12 -35 -25 -13 -45 1 -36 25 9 23 19 19
12 -4z"/>
<path fill="#ffffff" stroke="none" d="M250 216 c-14 -14 -24 0 -16 21 6 15 8
15 16 3 6 -9 5 -19 0 -24z"/>
<path fill="#ffffff" stroke="none" d="M144 177 c-32 -29 -34 -35 -25 -60 6
-15 18 -27 27 -27 15 0 15 2 2 18 -15 17 -14 52 2 52 5 0 16 7 24 16 9 8 16
12 16 7 0 -5 -9 -17 -21 -26 -23 -20 -21 -40 5 -45 20 -4 46 15 46 34 0 21
-17 17 -23 -6 -3 -11 -10 -20 -16 -20 -5 0 -3 13 7 29 9 16 22 27 29 24 20 -8
15 -50 -8 -67 -12 -8 -18 -19 -14 -25 3 -6 -1 -11 -9 -11 -10 0 -13 6 -10 18
5 16 5 16 -9 0 -8 -10 -17 -15 -20 -11 -4 3 -7 -1 -7 -9 0 -12 7 -15 23 -11
19 4 17 2 -8 -16 -32 -23 -56 -28 -37 -9 15 15 16 58 2 58 -5 0 -10 9 -10 20
0 18 -5 16 -37 -15 -20 -19 -39 -32 -42 -29 -3 3 6 14 21 25 14 11 38 40 53
64 14 25 30 43 36 40 5 -4 9 -1 9 4 0 6 7 11 15 11 9 0 0 -13 -21 -33z"/>
<path fill="#ffffff" stroke="none" d="M78 141 c-7 -11 -18 -23 -25 -26 -7 -2
-3 9 9 25 24 33 37 34 16 1z"/>
<path fill="#ffffff" stroke="none" d="M27 98 c-3 -8 -6 -5 -6 6 -1 11 2 17 5
13 3 -3 4 -12 1 -19z"/>
<path fill="#ffffff" stroke="none" d="M120 73 c0 -17 -24 -43 -40 -43 -26 0
-32 14 -14 36 14 18 15 18 8 -5 -4 -17 -3 -22 7 -19 8 3 14 14 13 26 0 13 4
18 13 15 7 -3 13 -7 13 -10z"/>
</g>
</svg>
