<?xml version="1.0" standalone="no"?>
<!DOCTYPE svg PUBLIC "-//W3C//DTD SVG 20010904//EN"
 "http://www.w3.org/TR/2001/REC-SVG-20010904/DTD/svg10.dtd">
<svg version="1.0" xmlns="http://www.w3.org/2000/svg"
 width="32.000000pt" height="32.000000pt" viewBox="0 0 32.000000 32.000000"
 preserveAspectRatio="xMidYMid meet">
<metadata>
Created by potrace 1.16, written by Peter Selinger 2001-2019
</metadata>
<g transform="translate(0.000000,32.000000) scale(0.100000,-0.100000)"
fill="#000000" stroke="none">
<path fill="#000000" stroke="none" d="M2 159 l-1 -159 42 6 c23 3 48 7 55 10
6 2 12 0 12 -4 0 -4 46 -7 102 -7 81 0 102 3 106 15 5 13 3 13 -12 1 -16 -13
-17 -12 -11 15 4 16 9 36 12 44 3 8 6 65 7 125 l2 111 -157 1 -157 2 0 -160z"/>
<path fill="#ffffff" stroke="none" d="M230 293 c-8 -3 -22 -11 -30 -17 -13
-10 -13 -9 -1 7 7 9 21 17 30 16 13 0 14 -1 1 -6z"/>
<path fill="#ffffff" stroke="none" d="M293 284 c-5 -13 -61 -30 -69 -21 -3 3
8 8 25 12 17 4 29 10 27 14 -3 4 1 8 8 8 8 0 12 -6 9 -13z"/>
<path fill="#ffffff" stroke="none" d="M107 213 c-3 -10 -5 -4 -5 12 0 17 2
24 5 18 2 -7 2 -21 0 -30z"/>
<path fill="#ffffff" stroke="none" d="M189 246 c-2 -2 -17 -6 -34 -10 -22 -5
-26 -4 -15 4 14 9 59 15 49 6z"/>
<path fill="#ffffff" stroke="none" d="M258 221 c-18 -16 -34 -28 -36 -26 -9
9 33 55 49 55 16 0 13 -5 -13 -29z"/>
<path fill="#ffffff" stroke="none" d="M132 198 c-7 -7 -12 -8 -12 -2 0 14 12
26 19 19 2 -3 -1 -11 -7 -17z"/>
<path fill="#ffffff" stroke="none" d="M167 188 c-3 -7 -5 -2 -5 12 0 14 2 19
5 13 2 -7 2 -19 0 -25z"/>
<path fill="#ffffff" stroke="none" d="M300 170 c0 -46 -2 -50 -24 -50 -28 0
-42 -14 -51 -53 -7 -26 -48 -57 -60 -45 -3 3 -1 16 4 29 l10 24 1 -25 1 -25
19 24 c11 13 20 30 20 38 0 21 25 43 49 43 18 0 21 6 21 42 l0 41 -26 -24
c-25 -22 -26 -23 -15 -2 10 19 24 30 44 32 4 1 7 -21 7 -49z"/>
<path fill="#ffffff" stroke="none" d="M275 161 c-3 -6 -11 -11 -16 -11 -5 0
-4 6 3 14 14 16 24 13 13 -3z"/>
<path fill="#ffffff" stroke="none" d="M195 160 c-3 -5 -10 -10 -16 -10 -5 0
-9 5 -9 10 0 6 7 10 16 10 8 0 12 -4 9 -10z"/>
<path fill="#ffffff" stroke="none" d="M119 136 c-12 -10 -60 -16 -54 -6 3 5
18 10 32 10 15 0 24 -2 22 -4z"/>
<path fill="#ffffff" stroke="none" d="M178 133 c-29 -3 -36 -8 -32 -21 5 -14
4 -14 -4 -2 -16 21 -5 30 36 28 l37 -1 -37 -4z"/>
<path fill="#ffffff" stroke="none" d="M184 109 c-2 -4 1 -9 8 -11 7 -3 4 -7
-7 -12 -11 -4 -16 -4 -12 0 4 4 2 12 -3 19 -7 8 -5 12 5 12 8 0 12 -4 9 -8z"/>
<path fill="#ffffff" stroke="none" d="M273 93 c-26 -17 -31 -53 -8 -53 18 0
20 16 3 23 -8 3 -6 6 5 6 23 1 22 -26 -2 -38 -15 -8 -20 -7 -25 5 -15 39 2 75
34 73 11 0 9 -4 -7 -16z"/>
<path fill="#ffffff" stroke="none" d="M160 81 c0 -22 -20 -61 -32 -61 -9 0
-9 3 0 12 7 7 12 22 12 35 0 13 5 23 10 23 6 0 10 -4 10 -9z"/>
<path fill="#ffffff" stroke="none" d="M111 47 c-17 -17 -23 -19 -33 -8 -7 7
-8 11 -3 10 18 -4 45 13 38 24 -4 6 -1 7 6 2 10 -6 8 -13 -8 -28z"/>
<path fill="#ffffff" stroke="none" d="M53 23 c-7 -2 -19 -2 -25 0 -7 3 -2 5
12 5 14 0 19 -2 13 -5z"/>
</g>
</svg>
