<?xml version="1.0" standalone="no"?>
<!DOCTYPE svg PUBLIC "-//W3C//DTD SVG 20010904//EN"
 "http://www.w3.org/TR/2001/REC-SVG-20010904/DTD/svg10.dtd">
<svg version="1.0" xmlns="http://www.w3.org/2000/svg"
 width="32.000000pt" height="32.000000pt" viewBox="0 0 32.000000 32.000000"
 preserveAspectRatio="xMidYMid meet">
<metadata>
Created by potrace 1.16, written by Peter Selinger 2001-2019
</metadata>
<g transform="translate(0.000000,32.000000) scale(0.100000,-0.100000)"
fill="#000000" stroke="none">
<path fill="#000000" stroke="none" d="M7 312 c8 -5 9 -21 3 -52 -5 -26 -4
-50 1 -56 5 -6 6 -14 3 -17 -8 -7 -9 -166 -1 -173 3 -3 5 32 6 78 1 65 4 86
17 95 9 7 21 10 25 7 5 -3 9 0 9 6 0 8 -9 10 -22 7 -20 -5 -23 -2 -26 30 -3
45 12 63 51 63 43 0 31 6 -28 14 -27 3 -45 3 -38 -2z"/>
<path fill="#000000" stroke="none" d="M150 310 c-23 -7 -23 -8 -3 -9 12 -1
25 4 28 9 3 6 5 10 3 9 -2 -1 -14 -5 -28 -9z"/>
<path fill="#000000" stroke="none" d="M195 300 c-19 -8 -19 -9 3 -9 12 -1 22
4 22 9 0 6 -1 10 -2 9 -2 0 -12 -4 -23 -9z"/>
<path fill="#000000" stroke="none" d="M258 303 c6 -2 18 -2 25 0 6 3 1 5 -13
5 -14 0 -19 -2 -12 -5z"/>
<path fill="#000000" stroke="none" d="M97 285 c-18 -18 -31 -54 -23 -62 3 -4
6 1 6 10 0 10 9 26 21 38 11 11 19 23 16 25 -3 3 -12 -2 -20 -11z"/>
<path fill="#000000" stroke="none" d="M60 279 c0 -5 5 -7 10 -4 6 3 10 8 10
11 0 2 -4 4 -10 4 -5 0 -10 -5 -10 -11z"/>
<path fill="#000000" stroke="none" d="M150 280 c-9 -6 -10 -10 -3 -10 6 0 15
5 18 10 8 12 4 12 -15 0z"/>
<path fill="#000000" stroke="none" d="M37 274 c-11 -12 -8 -26 4 -18 8 4 9
-1 4 -17 -6 -19 -5 -22 6 -12 8 9 9 19 3 33 -5 12 -13 18 -17 14z"/>
<path fill="#000000" stroke="none" d="M107 240 c-3 -11 -4 -20 -3 -20 1 0 9
9 19 20 13 15 14 20 3 20 -7 0 -16 -9 -19 -20z"/>
<path fill="#000000" stroke="none" d="M297 231 c-4 -17 -3 -21 5 -13 5 5 8
16 6 23 -3 8 -7 3 -11 -10z"/>
<path fill="#000000" stroke="none" d="M167 211 c-4 -17 -3 -21 5 -13 5 5 8
16 6 23 -3 8 -7 3 -11 -10z"/>
<path fill="#000000" stroke="none" d="M211 213 c0 -12 -14 -32 -31 -45 -16
-12 -30 -29 -29 -37 0 -12 2 -13 6 -2 3 7 19 26 35 40 20 18 29 33 25 46 -4
18 -5 18 -6 -2z"/>
<path fill="#000000" stroke="none" d="M50 165 c-20 -24 -6 -28 15 -5 10 11
13 20 8 20 -6 0 -16 -7 -23 -15z"/>
<path fill="#000000" stroke="none" d="M211 157 c-13 -21 -12 -21 5 -5 10 10
16 20 13 22 -3 3 -11 -5 -18 -17z"/>
<path fill="#000000" stroke="none" d="M67 143 c-9 -9 -9 -41 1 -46 4 -3 7 8
8 24 1 31 1 32 -9 22z"/>
<path fill="#000000" stroke="none" d="M114 142 c4 -7 2 -20 -5 -28 -6 -8 -9
-17 -6 -20 3 -3 11 4 17 16 9 17 9 25 -1 34 -9 8 -10 8 -5 -2z"/>
<path fill="#000000" stroke="none" d="M32 105 c-1 -13 -2 -28 -3 -32 -3 -19
2 -43 9 -43 4 0 7 20 7 45 -1 48 -9 69 -13 30z"/>
<path fill="#000000" stroke="none" d="M175 121 c-3 -5 -2 -12 3 -15 5 -3 9 1
9 9 0 17 -3 19 -12 6z"/>
<path fill="#000000" stroke="none" d="M286 103 c-6 -14 -5 -15 5 -6 7 7 10
15 7 18 -3 3 -9 -2 -12 -12z"/>
<path fill="#000000" stroke="none" d="M240 60 c-9 -6 -10 -10 -3 -10 6 0 15
5 18 10 8 12 4 12 -15 0z"/>
<path fill="#000000" stroke="none" d="M199 33 c-13 -16 -12 -17 4 -4 16 13
21 21 13 21 -2 0 -10 -8 -17 -17z"/>
</g>
</svg>
