<?xml version="1.0" standalone="no"?>
<!DOCTYPE svg PUBLIC "-//W3C//DTD SVG 20010904//EN"
 "http://www.w3.org/TR/2001/REC-SVG-20010904/DTD/svg10.dtd">
<svg version="1.0" xmlns="http://www.w3.org/2000/svg"
 width="32.000000pt" height="32.000000pt" viewBox="0 0 32.000000 32.000000"
 preserveAspectRatio="xMidYMid meet">
<metadata>
Created by potrace 1.16, written by Peter Selinger 2001-2019
</metadata>
<g transform="translate(0.000000,32.000000) scale(0.100000,-0.100000)"
fill="#000000" stroke="none">
<path fill="#000000" stroke="none" d="M2 161 l-1 -157 62 7 c34 4 76 12 92
19 28 11 28 13 10 20 -16 7 -14 9 13 9 20 1 32 6 32 15 0 8 7 16 15 20 21 8
19 -17 -3 -37 -9 -8 -31 -23 -47 -31 -30 -16 -29 -16 41 -16 45 0 75 5 81 13
14 17 22 67 12 67 -5 0 -9 -11 -9 -25 0 -27 -25 -45 -65 -45 l-26 0 21 22 c11
12 20 31 20 43 0 14 10 24 30 32 27 10 30 15 30 56 0 25 3 52 6 61 3 9 1 16
-5 16 -6 0 -11 -14 -11 -31 0 -16 -4 -28 -9 -25 -11 7 -5 38 15 83 8 17 14 33
14 36 0 2 -72 5 -159 5 l-159 0 0 -157z"/>
<path fill="#ffffff" stroke="none" d="M121 269 c-34 -28 -47 -23 -14 5 15 13
30 22 33 19 3 -2 -6 -13 -19 -24z"/>
<path fill="#ffffff" stroke="none" d="M158 275 c-6 -14 -13 -24 -14 -22 -6 6
9 47 17 47 5 0 3 -11 -3 -25z"/>
<path fill="#ffffff" stroke="none" d="M287 270 c-6 -11 -16 -20 -21 -20 -5 0
-2 8 7 18 10 10 14 22 10 27 -5 4 -2 5 4 1 10 -5 10 -11 0 -26z"/>
<path fill="#ffffff" stroke="none" d="M90 286 c0 -3 -4 -8 -10 -11 -5 -3 -10
-1 -10 4 0 6 5 11 10 11 6 0 10 -2 10 -4z"/>
<path fill="#ffffff" stroke="none" d="M245 270 c3 -5 -3 -10 -14 -10 -10 0
-28 -3 -38 -6 -10 -3 -7 2 7 10 30 18 37 19 45 6z"/>
<path fill="#ffffff" stroke="none" d="M57 244 c-3 -3 -12 -4 -19 -1 -8 3 -5
6 6 6 11 1 17 -2 13 -5z"/>
<path fill="#ffffff" stroke="none" d="M272 204 c-5 -35 -21 -57 -38 -50 -7 3
-16 1 -20 -5 -3 -5 -14 -7 -24 -4 -11 3 -29 1 -41 -5 -17 -10 -20 -18 -16 -45
4 -22 1 -35 -7 -38 -20 -8 -11 61 11 85 13 14 25 18 46 14 19 -4 26 -2 21 6
-5 7 0 9 14 6 23 -6 36 5 45 40 4 19 1 22 -23 22 -29 0 -65 -34 -54 -52 3 -4
0 -8 -5 -8 -14 0 -14 6 4 40 17 33 31 39 65 30 21 -5 24 -12 22 -36z"/>
<path fill="#ffffff" stroke="none" d="M92 228 c-26 -26 -14 -41 28 -35 47 6
49 0 9 -31 -28 -23 -41 -18 -17 6 9 9 5 12 -20 12 -18 0 -32 2 -32 4 0 18 22
56 32 56 9 0 9 -3 0 -12z"/>
<path fill="#ffffff" stroke="none" d="M54 222 c3 -5 -1 -9 -9 -9 -8 0 -12 4
-9 9 3 4 7 8 9 8 2 0 6 -4 9 -8z"/>
<path fill="#ffffff" stroke="none" d="M150 219 c12 -8 10 -9 -9 -4 -16 5 -21
4 -17 -4 4 -6 0 -11 -8 -11 -17 0 -21 12 -9 23 9 10 26 8 43 -4z"/>
<path fill="#ffffff" stroke="none" d="M224 196 c-6 -16 -24 -23 -24 -8 0 10
22 33 27 28 2 -2 1 -11 -3 -20z"/>
<path fill="#ffffff" stroke="none" d="M242 188 c-7 -7 -12 -8 -12 -2 0 6 3
14 7 17 3 4 9 5 12 2 2 -3 -1 -11 -7 -17z"/>
<path fill="#ffffff" stroke="none" d="M279 138 c-11 -9 -27 -14 -36 -11 -13
5 -13 8 6 14 12 5 24 16 28 25 5 13 7 13 14 2 6 -8 2 -19 -12 -30z"/>
<path fill="#ffffff" stroke="none" d="M90 161 c0 -17 -21 -24 -33 -11 -9 10
-9 11 1 6 6 -4 12 -2 12 3 0 6 5 11 10 11 6 0 10 -4 10 -9z"/>
<path fill="#ffffff" stroke="none" d="M77 124 c-3 -3 -12 -4 -19 -1 -8 3 -5
6 6 6 11 1 17 -2 13 -5z"/>
<path fill="#ffffff" stroke="none" d="M195 123 c-30 -7 -41 -21 -27 -35 9 -9
12 -8 12 7 0 14 3 16 11 8 15 -15 3 -33 -19 -30 -39 6 -25 57 15 56 20 -1 23
-3 8 -6z"/>
<path fill="#ffffff" stroke="none" d="M68 87 c2 -9 -1 -17 -7 -17 -6 0 -8 7
-5 15 7 18 -7 20 -26 3 -12 -11 -12 -10 -1 5 16 21 35 18 39 -6z"/>
<path fill="#ffffff" stroke="none" d="M115 37 c16 -4 14 -5 -7 -6 -38 -1 -64
9 -47 20 7 4 18 4 24 0 5 -5 19 -11 30 -14z"/>
<path fill="#ffffff" stroke="none" d="M53 23 c-7 -2 -19 -2 -25 0 -7 3 -2 5
12 5 14 0 19 -2 13 -5z"/>
<path fill="#000000" stroke="none" d="M278 99 c-10 -5 -18 -18 -18 -27 0 -10
-5 -23 -12 -30 -15 -15 -3 -16 23 -2 10 6 19 15 19 21 0 6 -4 7 -10 4 -5 -3
-10 -2 -10 2 0 5 12 16 28 25 29 18 10 25 -20 7z"/>
</g>
</svg>
