<?xml version="1.0" standalone="no"?>
<!DOCTYPE svg PUBLIC "-//W3C//DTD SVG 20010904//EN"
 "http://www.w3.org/TR/2001/REC-SVG-20010904/DTD/svg10.dtd">
<svg version="1.0" xmlns="http://www.w3.org/2000/svg"
 width="32.000000pt" height="32.000000pt" viewBox="0 0 32.000000 32.000000"
 preserveAspectRatio="xMidYMid meet">
<metadata>
Created by potrace 1.16, written by Peter Selinger 2001-2019
</metadata>
<g transform="translate(0.000000,32.000000) scale(0.100000,-0.100000)"
fill="#000000" stroke="none">
<path fill="#000000" stroke="none" d="M1 161 c2 -149 3 -160 20 -158 10 2 22
6 25 10 4 4 14 7 23 7 14 0 14 -2 1 -10 -12 -8 -10 -10 8 -10 15 0 21 4 16 12
-5 7 -3 8 7 3 21 -14 119 -12 119 2 0 6 -4 15 -10 18 -6 3 -10 1 -10 -4 0 -6
-10 -11 -22 -11 -22 1 -22 1 5 21 15 11 27 25 27 30 0 5 8 17 19 28 12 12 17
28 14 43 -4 20 0 27 19 33 12 4 26 7 30 6 5 -1 7 2 7 7 -4 21 2 53 9 49 4 -3
7 14 7 38 l0 43 -157 1 -158 2 1 -160z"/>
<path fill="#ffffff" stroke="none" d="M160 285 c-7 -8 -10 -22 -6 -30 3 -9 2
-13 -4 -10 -14 8 -13 28 2 43 17 17 23 15 8 -3z"/>
<path fill="#ffffff" stroke="none" d="M245 270 c-4 -6 -18 -15 -32 -21 -13
-5 -22 -13 -19 -17 2 -4 -10 -9 -27 -10 -17 -2 -39 -10 -49 -19 -10 -9 -20
-14 -23 -11 -3 3 1 11 10 18 8 7 16 24 16 39 2 23 2 24 6 4 3 -15 12 -23 24
-23 19 0 81 37 88 53 1 5 5 6 8 3 3 -2 2 -10 -2 -16z"/>
<path fill="#ffffff" stroke="none" d="M177 258 c-3 -8 -6 -5 -6 6 -1 11 2 17
5 13 3 -3 4 -12 1 -19z"/>
<path fill="#ffffff" stroke="none" d="M294 265 c7 -20 -3 -46 -26 -68 -21
-20 -49 -19 -56 1 -3 11 0 12 16 3 17 -9 23 -7 36 11 9 12 16 27 16 33 0 5 -5
3 -10 -5 -8 -12 -10 -9 -10 13 0 29 24 38 34 12z"/>
<path fill="#ffffff" stroke="none" d="M96 224 c-11 -8 -24 -14 -28 -14 -15 0
-21 31 -8 43 10 10 11 7 5 -12 -5 -17 -4 -22 6 -19 8 3 14 15 13 27 -1 20 1
21 15 6 15 -15 14 -17 -3 -31z"/>
<path fill="#ffffff" stroke="none" d="M27 228 c-3 -8 -6 -5 -6 6 -1 11 2 17
5 13 3 -3 4 -12 1 -19z"/>
<path fill="#ffffff" stroke="none" d="M250 216 c-14 -14 -24 0 -16 21 6 15 8
15 16 3 6 -9 5 -19 0 -24z"/>
<path fill="#ffffff" stroke="none" d="M125 160 c-16 -17 -16 -21 -1 -51 9
-18 16 -38 16 -45 0 -7 8 -10 23 -7 19 4 17 2 -8 -16 -32 -23 -56 -28 -37 -9
15 15 16 58 2 58 -5 0 -10 9 -10 21 0 19 -3 18 -31 -10 -17 -17 -36 -31 -42
-31 -7 0 0 10 15 21 14 11 39 41 54 67 15 25 29 41 32 34 2 -7 -4 -22 -13 -32z"/>
<path fill="#ffffff" stroke="none" d="M230 144 c0 -12 -9 -30 -21 -38 -12 -8
-18 -19 -14 -25 3 -6 -1 -11 -9 -11 -10 0 -13 6 -10 18 5 14 3 14 -12 -3 -13
-15 -15 -16 -11 -3 3 9 0 22 -8 28 -16 13 -9 46 12 55 13 4 14 3 3 -10 -7 -8
-10 -22 -6 -30 11 -29 66 -11 66 22 0 20 -17 15 -23 -7 -3 -11 -10 -20 -16
-20 -5 0 -3 13 7 29 18 33 42 30 42 -5z"/>
<path fill="#ffffff" stroke="none" d="M78 141 c-7 -11 -18 -23 -25 -26 -7 -2
-3 9 9 25 24 33 37 34 16 1z"/>
<path fill="#ffffff" stroke="none" d="M27 98 c-3 -8 -6 -5 -6 6 -1 11 2 17 5
13 3 -3 4 -12 1 -19z"/>
<path fill="#ffffff" stroke="none" d="M120 73 c0 -17 -24 -43 -40 -43 -26 0
-32 14 -14 36 14 18 15 18 8 -5 -4 -17 -3 -22 7 -19 8 3 14 14 13 26 0 13 4
18 13 15 7 -3 13 -7 13 -10z"/>
<path fill="#000000" stroke="none" d="M305 171 c-7 -35 -35 -64 -35 -37 0 10
4 15 8 12 4 -2 9 4 9 15 3 33 -24 4 -29 -31 -5 -34 -4 -34 23 -20 16 9 19 7
19 -14 0 -14 -5 -28 -10 -31 -8 -5 -8 -11 0 -20 8 -9 8 -15 0 -20 -15 -9 -12
-25 4 -25 10 0 15 23 18 98 5 104 4 121 -7 73z"/>
<path fill="#000000" stroke="none" d="M254 89 c-36 -10 -48 -37 -28 -63 16
-23 49 -17 50 9 1 11 5 28 9 38 10 24 6 26 -31 16z"/>
<path fill="#ffffff" stroke="none" d="M265 64 c-14 -11 -16 -18 -7 -21 6 -3
9 -9 6 -14 -4 -6 -11 -6 -20 2 -18 14 -1 49 24 49 15 -1 15 -3 -3 -16z"/>
</g>
</svg>
