<?xml version="1.0" standalone="no"?>
<!DOCTYPE svg PUBLIC "-//W3C//DTD SVG 20010904//EN"
 "http://www.w3.org/TR/2001/REC-SVG-20010904/DTD/svg10.dtd">
<svg version="1.0" xmlns="http://www.w3.org/2000/svg"
 width="32.000000pt" height="32.000000pt" viewBox="0 0 32.000000 32.000000"
 preserveAspectRatio="xMidYMid meet">
<metadata>
Created by potrace 1.16, written by Peter Selinger 2001-2019
</metadata>
<g transform="translate(0.000000,32.000000) scale(0.100000,-0.100000)"
fill="#000000" stroke="none">
<path fill="#000000" stroke="none" d="M28 299 c-10 -5 -18 -17 -18 -26 0 -14
2 -14 14 2 9 13 32 21 67 26 l54 6 -50 1 c-27 1 -58 -3 -67 -9z"/>
<path fill="#000000" stroke="none" d="M150 285 c-7 -14 -10 -28 -7 -32 4 -3
7 0 7 7 0 7 7 22 17 32 9 10 12 18 6 18 -5 0 -16 -11 -23 -25z"/>
<path fill="#000000" stroke="none" d="M248 303 c6 -2 18 -2 25 0 6 3 1 5 -13
5 -14 0 -19 -2 -12 -5z"/>
<path fill="#000000" stroke="none" d="M180 285 c-7 -8 -8 -15 -2 -15 5 0 15
7 22 15 7 8 8 15 2 15 -5 0 -15 -7 -22 -15z"/>
<path fill="#000000" stroke="none" d="M108 223 c7 -3 16 -2 19 1 4 3 -2 6
-13 5 -11 0 -14 -3 -6 -6z"/>
<path fill="#000000" stroke="none" d="M49 190 c-13 -10 -19 -19 -13 -20 6 0
19 9 29 20 23 26 14 26 -16 0z"/>
<path fill="#000000" stroke="none" d="M42 153 c-7 -2 -17 -14 -23 -26 -11
-20 -10 -20 17 3 16 14 31 26 33 28 7 4 -14 1 -27 -5z"/>
</g>
</svg>
