<?xml version="1.0" standalone="no"?>
<!DOCTYPE svg PUBLIC "-//W3C//DTD SVG 20010904//EN"
 "http://www.w3.org/TR/2001/REC-SVG-20010904/DTD/svg10.dtd">
<svg version="1.0" xmlns="http://www.w3.org/2000/svg"
 width="32.000000pt" height="32.000000pt" viewBox="0 0 32.000000 32.000000"
 preserveAspectRatio="xMidYMid meet">
<metadata>
Created by potrace 1.16, written by Peter Selinger 2001-2019
</metadata>
<g transform="translate(0.000000,32.000000) scale(0.100000,-0.100000)"
fill="#000000" stroke="none">
<path fill="#000000" stroke="none" d="M0 160 l0 -160 160 0 160 0 0 160 0
160 -160 0 -160 0 0 -160z"/>
<path fill="#ffffff" stroke="none" d="M84 302 c2 -4 -4 -8 -15 -8 -10 0 -19
4 -19 8 0 10 27 10 34 0z"/>
<path fill="#ffffff" stroke="none" d="M150 306 c0 -9 -40 -13 -46 -5 -3 5 6
9 20 9 14 0 26 -2 26 -4z"/>
<path fill="#ffffff" stroke="none" d="M193 303 c-7 -2 -19 -2 -25 0 -7 3 -2
5 12 5 14 0 19 -2 13 -5z"/>
<path fill="#ffffff" stroke="none" d="M303 303 c-7 -2 -19 -2 -25 0 -7 3 -2
5 12 5 14 0 19 -2 13 -5z"/>
<path fill="#ffffff" stroke="none" d="M219 281 c-13 -11 -26 -18 -28 -16 -6
7 24 34 38 35 7 0 3 -8 -10 -19z"/>
<path fill="#ffffff" stroke="none" d="M165 280 c-3 -5 -12 -10 -18 -10 -7 0
-6 4 3 10 19 12 23 12 15 0z"/>
<path fill="#ffffff" stroke="none" d="M94 254 c-14 -20 -24 -25 -45 -22 -20
3 -30 0 -32 -11 -3 -10 -5 -8 -6 6 -1 20 3 22 28 17 23 -5 32 -2 43 15 7 12
16 21 21 21 4 0 0 -12 -9 -26z"/>
<path fill="#ffffff" stroke="none" d="M55 204 c-11 -8 -26 -22 -32 -31 -12
-15 -13 -15 -13 3 0 10 10 24 23 30 32 17 45 16 22 -2z"/>
<path fill="#ffffff" stroke="none" d="M49 154 c-12 -15 -11 -16 11 -10 l25 8
-22 -16 c-12 -9 -27 -24 -33 -34 -8 -13 -9 -9 -4 18 4 19 12 38 18 42 18 12
19 9 5 -8z"/>
<path fill="#ffffff" stroke="none" d="M80 110 c-8 -5 -19 -10 -25 -10 -5 0
-3 5 5 10 8 5 20 10 25 10 6 0 3 -5 -5 -10z"/>
</g>
</svg>
