<?xml version="1.0" standalone="no"?>
<!DOCTYPE svg PUBLIC "-//W3C//DTD SVG 20010904//EN"
 "http://www.w3.org/TR/2001/REC-SVG-20010904/DTD/svg10.dtd">
<svg version="1.0" xmlns="http://www.w3.org/2000/svg"
 width="32.000000pt" height="32.000000pt" viewBox="0 0 32.000000 32.000000"
 preserveAspectRatio="xMidYMid meet">
<metadata>
Created by potrace 1.16, written by Peter Selinger 2001-2019
</metadata>
<g transform="translate(0.000000,32.000000) scale(0.100000,-0.100000)"
fill="#000000" stroke="none">
<path fill="#000000" stroke="none" d="M108 303 c7 -3 16 -2 19 1 4 3 -2 6
-13 5 -11 0 -14 -3 -6 -6z"/>
<path fill="#000000" stroke="none" d="M188 303 c6 -2 18 -2 25 0 6 3 1 5 -13
5 -14 0 -19 -2 -12 -5z"/>
<path fill="#000000" stroke="none" d="M20 280 c-6 -11 -9 -40 -7 -63 l4 -42
1 46 c1 25 7 50 14 57 6 6 9 14 6 18 -4 3 -11 -4 -18 -16z"/>
<path fill="#000000" stroke="none" d="M132 265 c0 -16 2 -22 5 -12 2 9 2 23
0 30 -3 6 -5 -1 -5 -18z"/>
<path fill="#000000" stroke="none" d="M44 255 c-3 -8 -4 -20 -2 -27 3 -7 7
-1 10 15 6 29 1 36 -8 12z"/>
<path fill="#000000" stroke="none" d="M225 249 c-4 -6 -5 -12 -2 -15 2 -3 7
2 10 11 7 17 1 20 -8 4z"/>
<path fill="#000000" stroke="none" d="M102 230 c-7 -11 -8 -20 -3 -20 9 0 24
30 18 36 -1 2 -8 -6 -15 -16z"/>
<path fill="#000000" stroke="none" d="M32 180 c0 -14 2 -19 5 -12 2 6 2 18 0
25 -3 6 -5 1 -5 -13z"/>
<path fill="#000000" stroke="none" d="M53 155 c-6 -14 -7 -25 -2 -25 11 0 22
25 17 39 -1 6 -8 -1 -15 -14z"/>
<path fill="#000000" stroke="none" d="M13 115 c0 -33 2 -45 4 -27 2 18 2 45
0 60 -2 15 -4 0 -4 -33z"/>
<path fill="#000000" stroke="none" d="M57 115 c-15 -14 -24 -25 -19 -25 9 0
52 37 52 45 0 8 -4 6 -33 -20z"/>
<path fill="#000000" stroke="none" d="M301 94 c0 -11 3 -14 6 -6 3 7 2 16 -1
19 -3 4 -6 -2 -5 -13z"/>
<path fill="#000000" stroke="none" d="M116 53 c-6 -14 -5 -15 5 -6 7 7 10 15
7 18 -3 3 -9 -2 -12 -12z"/>
<path fill="#000000" stroke="none" d="M10 30 c0 -26 6 -26 13 0 3 11 1 20 -4
20 -5 0 -9 -9 -9 -20z"/>
</g>
</svg>
