<?xml version="1.0" standalone="no"?>
<!DOCTYPE svg PUBLIC "-//W3C//DTD SVG 20010904//EN"
 "http://www.w3.org/TR/2001/REC-SVG-20010904/DTD/svg10.dtd">
<svg version="1.0" xmlns="http://www.w3.org/2000/svg"
 width="32.000000pt" height="32.000000pt" viewBox="0 0 32.000000 32.000000"
 preserveAspectRatio="xMidYMid meet">
<metadata>
Created by potrace 1.16, written by Peter Selinger 2001-2019
</metadata>
<g transform="translate(0.000000,32.000000) scale(0.100000,-0.100000)"
fill="#000000" stroke="none">
<path fill="#000000" stroke="none" d="M133 313 c9 -2 25 -2 35 0 9 3 1 5 -18
5 -19 0 -27 -2 -17 -5z"/>
<path fill="#000000" stroke="none" d="M310 276 c0 -59 -43 -110 -95 -111 -21
-1 -36 4 -39 12 -4 9 -20 13 -49 12 -38 -2 -44 -5 -39 -22 4 -17 6 -17 14 -3
10 17 68 23 68 7 0 -6 -9 -8 -20 -6 -12 2 -24 -3 -29 -14 -13 -23 -3 -61 15
-61 14 0 39 38 30 47 -8 8 -27 -8 -21 -18 4 -5 1 -9 -5 -9 -6 0 -10 8 -8 18 2
11 13 17 34 18 l32 1 -20 -32 c-27 -46 -56 -52 -72 -14 -12 28 -13 29 -29 11
-9 -10 -17 -23 -17 -28 0 -5 7 0 15 10 14 18 15 18 22 1 4 -11 2 -20 -5 -23
-14 -4 -16 -32 -3 -32 6 0 13 5 16 10 3 6 11 10 17 10 27 0 -17 -29 -50 -33
l-37 -4 42 -1 c23 -1 45 3 48 8 4 6 11 7 17 4 8 -5 9 -1 5 10 -5 12 1 20 18
28 14 6 28 22 31 35 4 15 22 31 51 44 24 11 48 30 53 42 7 17 9 8 9 -36 1 -36
-3 -56 -9 -52 -6 4 -7 -1 -3 -11 4 -12 3 -15 -5 -10 -15 9 -16 36 -2 36 6 0
10 9 10 20 0 19 -1 19 -42 0 -36 -16 -44 -25 -49 -55 -6 -34 -19 -60 -19 -37
0 7 -5 12 -11 12 -5 0 -8 -4 -5 -9 3 -5 -2 -12 -12 -17 -13 -6 -7 -9 23 -14
28 -4 12 -7 -54 -8 -51 0 -96 -3 -99 -7 -3 -3 40 -5 95 -5 79 0 102 3 106 14
3 8 1 17 -6 19 -7 2 -2 2 11 0 28 -4 62 13 62 32 0 8 4 15 9 15 5 0 10 54 10
120 1 66 -1 120 -4 120 -3 0 -5 -20 -5 -44z"/>
<path fill="#ffffff" stroke="none" d="M278 121 c-7 -11 -14 -19 -17 -19 -22
2 -31 -5 -31 -22 0 -22 24 -27 36 -8 5 8 2 9 -10 5 -10 -4 -15 -3 -11 3 9 15
32 12 39 -5 3 -10 -3 -17 -19 -21 -31 -8 -45 2 -45 32 0 21 23 39 68 53 1 1
-3 -8 -10 -18z"/>
<path fill="#000000" stroke="none" d="M187 298 c-20 -16 -34 -68 -18 -68 6 0
11 10 11 22 0 12 7 30 17 40 19 21 14 24 -10 6z"/>
<path fill="#000000" stroke="none" d="M278 293 c7 -3 16 -2 19 1 4 3 -2 6
-13 5 -11 0 -14 -3 -6 -6z"/>
<path fill="#000000" stroke="none" d="M35 279 c-4 -6 -5 -12 -2 -15 2 -3 7 2
10 11 7 17 1 20 -8 4z"/>
<path fill="#000000" stroke="none" d="M100 264 c-6 -14 -10 -28 -10 -31 0 -4
-8 -15 -17 -26 -17 -19 -17 -20 3 -9 12 6 24 9 27 6 3 -3 3 3 0 15 -3 12 2 32
11 46 9 14 12 25 6 25 -6 0 -15 -12 -20 -26z"/>
<path fill="#000000" stroke="none" d="M209 274 c-14 -18 -21 -44 -11 -44 8 0
33 52 28 57 -2 2 -9 -4 -17 -13z"/>
<path fill="#000000" stroke="none" d="M71 263 c0 -12 -9 -27 -18 -32 -17 -10
-17 -10 0 -11 20 0 31 20 24 47 -4 15 -5 14 -6 -4z"/>
<path fill="#000000" stroke="none" d="M292 250 c0 -14 2 -19 5 -12 2 6 2 18
0 25 -3 6 -5 1 -5 -13z"/>
<path fill="#000000" stroke="none" d="M124 230 c1 -16 7 -25 19 -26 11 -1 12
0 3 3 -8 2 -17 14 -19 26 -3 18 -4 18 -3 -3z"/>
<path fill="#000000" stroke="none" d="M141 244 c0 -11 3 -14 6 -6 3 7 2 16
-1 19 -3 4 -6 -2 -5 -13z"/>
<path fill="#000000" stroke="none" d="M229 255 c-1 -5 -2 -17 -3 -25 0 -8 -7
-14 -13 -12 -7 1 -13 -2 -13 -8 0 -5 7 -10 15 -10 20 0 36 32 24 51 -5 7 -9
10 -10 4z"/>
<path fill="#000000" stroke="none" d="M260 238 c0 -37 -25 -54 -60 -41 -24 9
-28 8 -23 -4 4 -9 17 -13 42 -11 28 2 39 9 49 31 10 21 11 32 3 40 -8 8 -11 4
-11 -15z"/>
<path fill="#000000" stroke="none" d="M22 150 c0 -14 2 -19 5 -12 2 6 2 18 0
25 -3 6 -5 1 -5 -13z"/>
<path fill="#000000" stroke="none" d="M53 163 c-7 -2 -13 -9 -13 -14 0 -6 5
-7 10 -4 20 13 9 -14 -12 -29 -12 -9 -17 -16 -11 -16 17 0 56 44 43 48 -5 2
-8 8 -4 13 6 10 5 10 -13 2z"/>
<path fill="#000000" stroke="none" d="M20 70 c0 -5 4 -10 9 -10 6 0 13 5 16
10 3 6 -1 10 -9 10 -9 0 -16 -4 -16 -10z"/>
<path fill="#000000" stroke="none" d="M307 50 c-3 -13 -17 -22 -37 -26 -22
-5 -28 -9 -18 -15 18 -12 50 -11 43 1 -3 6 -2 10 4 10 5 0 12 -6 14 -12 3 -7
6 4 6 25 1 41 -4 48 -12 17z"/>
<path fill="#000000" stroke="none" d="M50 50 c-13 -8 -12 -10 3 -10 9 0 17 5
17 10 0 12 -1 12 -20 0z"/>
</g>
</svg>
