<?xml version="1.0" standalone="no"?>
<!DOCTYPE svg PUBLIC "-//W3C//DTD SVG 20010904//EN"
 "http://www.w3.org/TR/2001/REC-SVG-20010904/DTD/svg10.dtd">
<svg version="1.0" xmlns="http://www.w3.org/2000/svg"
 width="32.000000pt" height="32.000000pt" viewBox="0 0 32.000000 32.000000"
 preserveAspectRatio="xMidYMid meet">
<metadata>
Created by potrace 1.16, written by Peter Selinger 2001-2019
</metadata>
<g transform="translate(0.000000,32.000000) scale(0.100000,-0.100000)"
fill="#000000" stroke="none">
<path fill="#000000" stroke="none" d="M0 160 l0 -160 160 0 160 0 0 160 0
160 -160 0 -160 0 0 -160z"/>
<path fill="#ffffff" stroke="none" d="M83 303 c3 -5 -6 -9 -19 -9 -13 -1 -21
2 -18 7 6 11 31 12 37 2z"/>
<path fill="#ffffff" stroke="none" d="M150 306 c0 -2 -9 -6 -20 -9 -11 -3
-20 -1 -20 4 0 5 9 9 20 9 11 0 20 -2 20 -4z"/>
<path fill="#ffffff" stroke="none" d="M197 304 c-3 -3 -12 -4 -19 -1 -8 3 -5
6 6 6 11 1 17 -2 13 -5z"/>
<path fill="#ffffff" stroke="none" d="M239 297 c-2 -1 -12 -9 -22 -16 -15
-12 -17 -12 -11 3 3 9 13 16 22 16 8 0 13 -1 11 -3z"/>
<path fill="#ffffff" stroke="none" d="M90 251 c-6 -12 -20 -21 -33 -20 l-22
0 23 9 c12 5 25 17 28 25 4 9 9 14 11 11 3 -2 0 -14 -7 -25z"/>
<path fill="#ffffff" stroke="none" d="M17 218 c-3 -7 -5 -2 -5 12 0 14 2 19
5 13 2 -7 2 -19 0 -25z"/>
<path fill="#ffffff" stroke="none" d="M42 193 c-15 -16 -29 -24 -31 -19 -2 5
7 17 20 27 36 28 41 23 11 -8z"/>
<path fill="#ffffff" stroke="none" d="M61 144 c8 4 7 2 -2 -6 -8 -7 -21 -22
-27 -33 -10 -17 -11 -17 -12 -3 0 9 4 19 10 23 5 3 7 13 4 23 -5 13 -4 14 4 3
5 -7 16 -10 23 -7z"/>
<path fill="#ffffff" stroke="none" d="M90 116 c0 -2 -7 -7 -16 -10 -8 -3 -12
-2 -9 4 6 10 25 14 25 6z"/>
</g>
</svg>
