<?xml version="1.0" standalone="no"?>
<!DOCTYPE svg PUBLIC "-//W3C//DTD SVG 20010904//EN"
 "http://www.w3.org/TR/2001/REC-SVG-20010904/DTD/svg10.dtd">
<svg version="1.0" xmlns="http://www.w3.org/2000/svg"
 width="32.000000pt" height="32.000000pt" viewBox="0 0 32.000000 32.000000"
 preserveAspectRatio="xMidYMid meet">
<metadata>
Created by potrace 1.16, written by Peter Selinger 2001-2019
</metadata>
<g transform="translate(0.000000,32.000000) scale(0.100000,-0.100000)"
fill="#000000" stroke="none">
<path fill="#000000" stroke="none" d="M50 307 c-16 -4 -30 -13 -30 -20 0 -9
-2 -9 -8 0 -4 6 -7 -53 -7 -133 0 -79 3 -144 8 -144 4 0 7 5 7 11 0 6 9 18 21
27 11 10 21 24 22 34 2 9 8 22 14 29 6 8 20 34 32 59 16 35 17 40 3 24 -9 -12
-24 -35 -34 -52 -9 -17 -26 -35 -37 -42 -21 -11 -21 -9 -20 74 1 47 6 92 13
101 6 8 31 17 56 20 l46 4 -4 -34 c-2 -19 0 -35 6 -35 5 0 7 11 5 23 -3 14 2
31 11 39 14 15 11 16 -29 20 -24 2 -58 0 -75 -5z"/>
<path fill="#ffffff" stroke="none" d="M54 76 c-6 -16 -34 -30 -34 -18 0 5 5
13 12 20 16 16 29 15 22 -2z"/>
<path fill="#000000" stroke="none" d="M203 313 c-13 -2 -23 -8 -23 -12 0 -5
12 -6 28 -3 25 5 26 4 12 -14 -14 -17 -14 -18 2 -6 9 8 14 20 11 28 -3 8 -6
13 -7 13 0 -1 -11 -4 -23 -6z"/>
<path fill="#000000" stroke="none" d="M246 308 c3 -4 15 -8 26 -8 12 0 18 3
14 7 -10 10 -46 11 -40 1z"/>
<path fill="#000000" stroke="none" d="M80 280 c-13 -8 -12 -10 3 -10 26 0 32
-28 11 -52 -19 -21 -19 -21 4 -9 13 7 22 21 22 35 0 30 -21 48 -40 36z"/>
<path fill="#000000" stroke="none" d="M157 283 c-4 -3 -7 -13 -7 -22 1 -13 3
-13 11 2 11 19 8 33 -4 20z"/>
<path fill="#000000" stroke="none" d="M42 276 c4 -5 3 -18 -2 -31 -5 -14 -5
-26 3 -34 8 -8 8 -11 -1 -11 -7 0 -12 -9 -12 -20 0 -11 5 -20 11 -20 5 0 7 5
3 12 -4 6 1 17 11 25 12 8 14 13 6 13 -9 0 -12 10 -9 30 3 17 0 34 -6 37 -6 3
-8 3 -4 -1z"/>
<path fill="#000000" stroke="none" d="M182 275 c4 -4 3 -14 -3 -22 -7 -8 -8
-13 -1 -13 15 0 23 28 9 36 -7 4 -9 4 -5 -1z"/>
<path fill="#000000" stroke="none" d="M76 252 c2 -3 -1 -11 -7 -19 -8 -9 -8
-13 -1 -13 16 0 26 20 15 30 -6 4 -8 5 -7 2z"/>
<path fill="#000000" stroke="none" d="M224 245 c-3 -8 -4 -20 -2 -27 3 -7 7
-1 10 15 6 29 1 36 -8 12z"/>
<path fill="#000000" stroke="none" d="M253 225 c0 -8 4 -15 9 -15 4 0 8 4 8
9 0 6 -4 12 -8 15 -5 3 -9 -1 -9 -9z"/>
<path fill="#000000" stroke="none" d="M291 231 c-1 -8 -9 -24 -18 -35 -16
-20 -16 -20 6 0 13 12 21 28 18 35 -4 11 -6 11 -6 0z"/>
<path fill="#000000" stroke="none" d="M57 170 c3 -12 -1 -22 -11 -26 -9 -3
-16 -13 -16 -22 0 -13 3 -12 20 3 20 18 28 65 11 65 -5 0 -7 -9 -4 -20z"/>
<path fill="#000000" stroke="none" d="M130 159 c-6 -11 -10 -25 -8 -30 2 -5
8 4 15 21 13 34 9 40 -7 9z"/>
<path fill="#000000" stroke="none" d="M273 168 c-14 -18 -22 -68 -12 -68 5 0
9 13 9 28 0 15 5 33 12 40 7 7 9 12 6 12 -3 0 -10 -6 -15 -12z"/>
<path fill="#000000" stroke="none" d="M229 138 c-3 -22 -1 -34 4 -29 5 5 7
21 5 37 -3 27 -4 26 -9 -8z"/>
<path fill="#000000" stroke="none" d="M197 140 c-3 -11 -1 -20 4 -20 5 0 9 9
9 20 0 11 -2 20 -4 20 -2 0 -6 -9 -9 -20z"/>
<path fill="#000000" stroke="none" d="M291 137 c-13 -21 -12 -21 5 -5 10 10
16 20 13 22 -3 3 -11 -5 -18 -17z"/>
<path fill="#000000" stroke="none" d="M164 139 c-3 -6 -2 -15 3 -20 5 -5 9
-1 9 11 0 23 -2 24 -12 9z"/>
<path fill="#000000" stroke="none" d="M302 100 c0 -14 2 -19 5 -12 2 6 2 18
0 25 -3 6 -5 1 -5 -13z"/>
<path fill="#000000" stroke="none" d="M108 83 c17 -7 15 -23 -5 -47 -16 -19
-15 -19 6 1 24 22 23 54 -1 52 -10 0 -10 -2 0 -6z"/>
<path fill="#000000" stroke="none" d="M230 69 c-7 -11 -10 -23 -7 -25 2 -2 9
7 15 21 14 30 7 33 -8 4z"/>
<path fill="#000000" stroke="none" d="M90 61 c0 -7 -5 -9 -12 -5 -7 5 -8 3
-3 -5 5 -9 10 -10 18 -2 6 6 8 14 4 18 -4 3 -7 1 -7 -6z"/>
</g>
</svg>
