<?xml version="1.0" standalone="no"?>
<!DOCTYPE svg PUBLIC "-//W3C//DTD SVG 20010904//EN"
 "http://www.w3.org/TR/2001/REC-SVG-20010904/DTD/svg10.dtd">
<svg version="1.0" xmlns="http://www.w3.org/2000/svg"
 width="32.000000pt" height="32.000000pt" viewBox="0 0 32.000000 32.000000"
 preserveAspectRatio="xMidYMid meet">
<metadata>
Created by potrace 1.16, written by Peter Selinger 2001-2019
</metadata>
<g transform="translate(0.000000,32.000000) scale(0.100000,-0.100000)"
fill="#000000" stroke="none">
<path fill="#000000" stroke="none" d="M65 313 c-11 -3 -26 -10 -32 -15 -15
-12 -17 -54 -4 -62 5 -4 7 3 4 14 -6 24 15 53 33 46 7 -3 15 2 18 10 3 8 4 13
3 13 -1 -1 -11 -4 -22 -6z"/>
<path fill="#000000" stroke="none" d="M103 292 c-12 -10 -23 -29 -25 -42 -1
-14 -14 -30 -28 -38 l-25 -13 24 3 c13 2 27 10 31 18 29 63 38 75 57 78 20 3
22 0 17 -35 -4 -36 -4 -37 6 -8 5 16 17 36 27 42 14 11 11 13 -24 13 -24 0
-48 -7 -60 -18z"/>
<path fill="#000000" stroke="none" d="M220 300 c-10 -6 -2 -7 25 -3 49 7 58
13 19 13 -16 0 -36 -5 -44 -10z"/>
<path fill="#000000" stroke="none" d="M186 275 c-3 -9 -6 -22 -5 -28 0 -7 5
-1 10 12 5 13 8 26 5 28 -2 2 -6 -3 -10 -12z"/>
<path fill="#000000" stroke="none" d="M46 272 c-3 -5 1 -9 9 -9 8 0 12 4 9 9
-3 4 -7 8 -9 8 -2 0 -6 -4 -9 -8z"/>
<path fill="#000000" stroke="none" d="M113 265 c-3 -9 -3 -19 1 -22 3 -4 6 0
6 8 0 11 2 11 10 -1 8 -12 10 -11 10 8 0 25 -18 30 -27 7z"/>
<path fill="#000000" stroke="none" d="M12 158 c-1 -43 1 -78 4 -78 12 0 64
35 64 43 0 5 -12 -1 -27 -13 l-28 -22 -6 74 -5 73 -2 -77z"/>
<path fill="#000000" stroke="none" d="M36 174 c-10 -26 -7 -56 6 -52 6 2 14
10 16 18 3 7 0 10 -7 6 -16 -11 -13 5 6 26 14 16 14 18 1 18 -9 0 -19 -7 -22
-16z"/>
<path fill="#000000" stroke="none" d="M135 140 c-3 -5 -1 -10 4 -10 6 0 11 5
11 10 0 6 -2 10 -4 10 -3 0 -8 -4 -11 -10z"/>
<path fill="#000000" stroke="none" d="M62 74 c-22 -21 -22 -22 -3 -17 11 3
22 12 26 20 8 23 3 22 -23 -3z"/>
<path fill="#000000" stroke="none" d="M260 59 c0 -5 5 -7 10 -4 6 3 10 8 10
11 0 2 -4 4 -10 4 -5 0 -10 -5 -10 -11z"/>
<path fill="#000000" stroke="none" d="M10 35 c0 -32 6 -32 12 0 3 14 1 25 -3
25 -5 0 -9 -11 -9 -25z"/>
<path fill="#000000" stroke="none" d="M115 20 c-3 -5 -1 -10 4 -10 6 0 11 5
11 10 0 6 -2 10 -4 10 -3 0 -8 -4 -11 -10z"/>
</g>
</svg>
