<?xml version="1.0" standalone="no"?>
<!DOCTYPE svg PUBLIC "-//W3C//DTD SVG 20010904//EN"
 "http://www.w3.org/TR/2001/REC-SVG-20010904/DTD/svg10.dtd">
<svg version="1.0" xmlns="http://www.w3.org/2000/svg"
 width="32.000000pt" height="32.000000pt" viewBox="0 0 32.000000 32.000000"
 preserveAspectRatio="xMidYMid meet">
<metadata>
Created by potrace 1.16, written by Peter Selinger 2001-2019
</metadata>
<g transform="translate(0.000000,32.000000) scale(0.100000,-0.100000)"
fill="#000000" stroke="none">
<path fill="#000000" stroke="none" d="M16 304 c-10 -9 -15 -30 -14 -52 l1
-37 4 35 c7 54 17 60 101 60 71 0 74 -1 60 -17 -8 -10 -18 -26 -21 -35 -4 -11
-18 -19 -34 -19 -26 -2 -25 -2 7 -9 29 -6 31 -8 9 -9 -14 0 -37 -11 -51 -23
-13 -13 -36 -29 -51 -37 -27 -14 -28 -17 -25 -85 l3 -71 158 -3 157 -3 -2 153
c-1 125 -3 139 -8 78 l-6 -75 -2 73 c-2 64 -4 72 -21 72 -15 0 -21 -8 -23 -32
-2 -26 -11 -37 -40 -53 -21 -11 -38 -25 -38 -32 0 -17 -41 -43 -65 -42 -15 0
-12 4 13 15 29 13 37 24 33 47 0 4 8 7 20 7 11 0 17 4 14 10 -4 6 1 7 12 3 16
-6 16 -5 4 10 -7 9 -11 24 -7 32 6 17 36 21 36 5 0 -6 -3 -9 -7 -8 -5 2 -9 -1
-10 -7 -2 -5 3 -10 10 -10 6 0 13 10 15 23 3 18 -1 22 -21 22 -23 0 -56 -26
-55 -43 0 -5 -3 -11 -6 -15 -3 -3 -6 4 -6 15 0 37 40 62 105 66 33 2 -6 4 -87
5 -122 2 -149 -1 -162 -14z"/>
<path fill="#ffffff" stroke="none" d="M285 258 c-5 -40 -16 -56 -46 -67 -39
-14 -37 -31 5 -31 47 0 66 -22 66 -75 0 -64 -20 -75 -143 -75 l-98 0 15 22 c9
12 16 32 16 43 0 12 6 27 13 34 10 11 9 13 -3 9 -8 -3 -17 -18 -20 -34 -4 -22
-12 -30 -34 -34 -28 -5 -50 -30 -27 -30 6 0 11 5 11 10 0 6 7 10 16 10 14 0
14 -3 4 -15 -7 -8 -21 -15 -31 -15 -16 0 -19 8 -19 58 0 61 6 71 58 100 18 10
22 10 22 -3 0 -8 -6 -15 -13 -15 -22 0 -47 -23 -52 -48 -2 -13 0 -20 6 -17 5
4 9 12 9 20 0 22 14 26 104 30 l84 5 -11 -25 c-14 -30 -31 -33 -22 -5 6 19 3
20 -22 14 -38 -9 -63 -32 -63 -59 0 -11 -5 -26 -12 -33 -9 -9 -1 -12 39 -12
32 0 53 5 56 13 4 8 8 8 14 2 14 -18 54 -17 74 1 12 11 19 30 19 55 0 45 -19
59 -80 59 l-40 0 16 25 c9 14 25 25 35 25 20 0 39 28 39 59 0 12 4 21 9 21 5
0 8 -10 6 -22z"/>
<path fill="#ffffff" stroke="none" d="M145 191 c3 -5 1 -12 -5 -16 -5 -3 -10
-1 -10 6 0 7 -7 4 -15 -7 -12 -15 -14 -16 -15 -3 0 27 31 41 45 20z"/>
<path fill="#ffffff" stroke="none" d="M290 185 c0 -10 -10 -15 -32 -14 -22 1
-26 3 -13 6 11 3 24 9 30 14 13 12 15 11 15 -6z"/>
<path fill="#ffffff" stroke="none" d="M289 106 c0 -7 -2 -6 -6 2 -7 18 -30
15 -42 -5 -10 -17 -10 -17 -11 -1 0 23 31 40 47 26 7 -6 13 -16 12 -22z"/>
<path fill="#ffffff" stroke="none" d="M184 85 c4 -12 2 -13 -15 -2 -17 10
-22 9 -35 -7 -8 -11 -14 -15 -14 -10 0 30 53 46 64 19z"/>
<path fill="#ffffff" stroke="none" d="M268 88 c-2 -6 -10 -14 -16 -16 -7 -2
-10 2 -6 12 7 18 28 22 22 4z"/>
<path fill="#ffffff" stroke="none" d="M280 55 c-14 -17 -50 -20 -50 -5 0 6 9
10 20 10 11 0 24 8 27 17 4 11 8 13 11 5 2 -7 -2 -19 -8 -27z"/>
<path fill="#ffffff" stroke="none" d="M169 39 c-22 -14 -33 -10 -19 6 7 8 17
12 22 9 6 -4 5 -10 -3 -15z"/>
<path fill="#000000" stroke="none" d="M61 107 c-7 -10 -10 -17 -6 -17 4 0 2
-7 -5 -15 -10 -12 -9 -15 4 -15 19 0 29 20 24 46 -3 16 -4 16 -17 1z"/>
<path fill="#000000" stroke="none" d="M43 290 c-13 -5 -23 -16 -23 -25 0 -12
5 -10 21 6 16 16 23 18 29 9 10 -17 2 -39 -23 -67 -11 -13 -16 -23 -10 -23 15
0 39 31 50 65 9 28 43 49 43 26 0 -6 -4 -11 -10 -11 -5 0 -10 -5 -10 -11 0
-18 23 -4 31 19 8 21 6 22 -34 21 -23 0 -52 -4 -64 -9z"/>
<path fill="#000000" stroke="none" d="M37 246 c-11 -8 -14 -17 -8 -20 5 -4
15 3 21 14 13 23 11 24 -13 6z"/>
<path fill="#000000" stroke="none" d="M0 180 c0 -26 6 -26 13 0 3 11 1 20 -4
20 -5 0 -9 -9 -9 -20z"/>
</g>
</svg>
