<?xml version="1.0" standalone="no"?>
<!DOCTYPE svg PUBLIC "-//W3C//DTD SVG 20010904//EN"
 "http://www.w3.org/TR/2001/REC-SVG-20010904/DTD/svg10.dtd">
<svg version="1.0" xmlns="http://www.w3.org/2000/svg"
 width="32.000000pt" height="32.000000pt" viewBox="0 0 32.000000 32.000000"
 preserveAspectRatio="xMidYMid meet">
<metadata>
Created by potrace 1.16, written by Peter Selinger 2001-2019
</metadata>
<g transform="translate(0.000000,32.000000) scale(0.100000,-0.100000)"
fill="#000000" stroke="none">
<path fill="#000000" stroke="none" d="M170 290 c-9 -6 -10 -10 -3 -10 6 0 15
5 18 10 8 12 4 12 -15 0z"/>
<path fill="#000000" stroke="none" d="M288 273 c5 -21 7 -23 10 -9 2 10 0 22
-6 28 -6 6 -7 0 -4 -19z"/>
<path fill="#000000" stroke="none" d="M190 269 c0 -5 5 -7 10 -4 6 3 10 8 10
11 0 2 -4 4 -10 4 -5 0 -10 -5 -10 -11z"/>
<path fill="#000000" stroke="none" d="M261 257 c-1 -18 -8 -30 -23 -36 -12
-4 -17 -11 -11 -14 16 -10 45 29 40 55 -4 20 -4 20 -6 -5z"/>
<path fill="#000000" stroke="none" d="M98 233 c6 -2 18 -2 25 0 6 3 1 5 -13
5 -14 0 -19 -2 -12 -5z"/>
<path fill="#000000" stroke="none" d="M270 205 c-7 -9 -8 -15 -2 -15 5 0 12
7 16 15 3 8 4 15 2 15 -2 0 -9 -7 -16 -15z"/>
<path fill="#000000" stroke="none" d="M311 204 c0 -11 3 -14 6 -6 3 7 2 16
-1 19 -3 4 -6 -2 -5 -13z"/>
<path fill="#000000" stroke="none" d="M177 180 c-3 -11 -2 -20 3 -20 12 0 21
28 11 35 -5 2 -11 -4 -14 -15z"/>
<path fill="#000000" stroke="none" d="M220 180 c-8 -5 -11 -12 -8 -16 4 -3
14 1 23 10 18 17 9 21 -15 6z"/>
<path fill="#000000" stroke="none" d="M311 164 c0 -11 3 -14 6 -6 3 7 2 16
-1 19 -3 4 -6 -2 -5 -13z"/>
<path fill="#000000" stroke="none" d="M248 163 c6 -2 18 -2 25 0 6 3 1 5 -13
5 -14 0 -19 -2 -12 -5z"/>
<path fill="#000000" stroke="none" d="M135 140 c-19 -8 -19 -9 2 -9 12 -1 25
4 28 9 7 12 -2 12 -30 0z"/>
<path fill="#000000" stroke="none" d="M198 143 c7 -3 16 -2 19 1 4 3 -2 6
-13 5 -11 0 -14 -3 -6 -6z"/>
<path fill="#000000" stroke="none" d="M245 140 c3 -5 8 -10 11 -10 2 0 4 5 4
10 0 6 -5 10 -11 10 -5 0 -7 -4 -4 -10z"/>
<path fill="#000000" stroke="none" d="M275 130 c3 -5 8 -10 11 -10 2 0 4 5 4
10 0 6 -5 10 -11 10 -5 0 -7 -4 -4 -10z"/>
<path fill="#000000" stroke="none" d="M175 120 c-4 -6 -10 -8 -14 -6 -13 8
-51 -24 -50 -42 0 -12 3 -11 9 6 5 12 14 23 20 23 5 1 16 2 23 3 6 1 15 -2 18
-7 3 -5 9 1 12 12 5 22 -7 29 -18 11z"/>
<path fill="#000000" stroke="none" d="M215 119 c-11 -17 1 -21 15 -4 8 9 8
15 2 15 -6 0 -14 -5 -17 -11z"/>
<path fill="#000000" stroke="none" d="M311 114 c0 -11 3 -14 6 -6 3 7 2 16
-1 19 -3 4 -6 -2 -5 -13z"/>
<path fill="#000000" stroke="none" d="M97 113 c-4 -3 -7 -15 -7 -25 0 -10 -7
-30 -16 -43 -16 -25 -12 -46 9 -44 8 0 8 2 -1 6 -11 4 -10 9 1 26 8 12 16 37
19 55 5 35 5 35 -5 25z"/>
<path fill="#000000" stroke="none" d="M291 83 c0 -12 -11 -29 -23 -37 -18
-13 -19 -16 -6 -16 21 0 41 34 35 58 -3 12 -5 11 -6 -5z"/>
<path fill="#000000" stroke="none" d="M145 71 c-3 -5 -1 -12 5 -16 5 -3 10 1
10 9 0 18 -6 21 -15 7z"/>
<path fill="#000000" stroke="none" d="M237 68 c6 -11 31 -10 37 1 3 5 -5 8
-18 7 -13 0 -22 -4 -19 -8z"/>
<path fill="#000000" stroke="none" d="M305 38 c-8 -17 -21 -24 -55 -29 l-45
-6 40 -1 c45 -2 78 18 73 43 -2 13 -5 11 -13 -7z"/>
<path fill="#000000" stroke="none" d="M100 30 c0 -5 5 -10 11 -10 5 0 7 5 4
10 -3 6 -8 10 -11 10 -2 0 -4 -4 -4 -10z"/>
<path fill="#000000" stroke="none" d="M150 30 l-25 -8 27 -1 c15 -1 30 4 33
9 7 11 0 11 -35 0z"/>
<path fill="#000000" stroke="none" d="M123 3 c15 -2 39 -2 55 0 15 2 2 4 -28
4 -30 0 -43 -2 -27 -4z"/>
</g>
</svg>
