<?xml version="1.0" standalone="no"?>
<!DOCTYPE svg PUBLIC "-//W3C//DTD SVG 20010904//EN"
 "http://www.w3.org/TR/2001/REC-SVG-20010904/DTD/svg10.dtd">
<svg version="1.0" xmlns="http://www.w3.org/2000/svg"
 width="32.000000pt" height="32.000000pt" viewBox="0 0 32.000000 32.000000"
 preserveAspectRatio="xMidYMid meet">
<metadata>
Created by potrace 1.16, written by Peter Selinger 2001-2019
</metadata>
<g transform="translate(0.000000,32.000000) scale(0.100000,-0.100000)"
fill="#000000" stroke="none">
<path fill="#000000" stroke="none" d="M22 298 c-12 -15 -19 -84 -10 -93 4 -4
3 -18 -2 -31 -13 -33 -1 -30 47 11 24 20 53 36 70 36 26 2 26 2 -7 9 -32 7
-33 7 -7 9 16 0 30 8 34 19 3 9 13 25 21 35 14 16 11 17 -60 17 -48 0 -79 -5
-86 -12z"/>
<path fill="#ffffff" stroke="none" d="M141 278 c-8 -23 -31 -37 -31 -19 0 6
5 11 10 11 6 0 10 5 10 11 0 23 -34 2 -43 -26 -10 -32 -44 -75 -60 -75 -5 0 3
14 18 31 14 17 23 34 20 37 -3 3 -12 -3 -19 -14 -8 -10 -17 -16 -21 -12 -11
11 27 47 43 40 10 -3 13 -1 8 6 -11 17 -34 15 -45 -5 -10 -17 -10 -17 -11 0 0
22 32 36 87 36 40 1 42 0 34 -21z"/>
<path fill="#000000" stroke="none" d="M180 285 c-13 -14 -19 -25 -13 -25 6 0
16 7 24 16 8 10 23 14 40 12 16 -3 25 0 22 5 -3 6 7 8 26 5 17 -2 31 -1 31 4
0 4 -24 8 -53 8 -44 0 -58 -4 -77 -25z"/>
<path fill="#000000" stroke="none" d="M207 273 c-4 -3 -7 -13 -7 -22 1 -13 2
-13 11 2 6 9 14 15 20 12 5 -4 9 -1 9 4 0 12 -23 15 -33 4z"/>
<path fill="#000000" stroke="none" d="M270 262 c0 -35 -16 -59 -45 -66 -14
-4 -25 -10 -25 -15 0 -5 16 -1 35 7 37 17 59 59 44 83 -6 10 -9 8 -9 -9z"/>
<path fill="#000000" stroke="none" d="M228 238 c-30 -31 -22 -38 12 -10 13
10 21 23 19 28 -2 5 -16 -3 -31 -18z"/>
<path fill="#000000" stroke="none" d="M162 185 c-6 -14 -18 -25 -27 -25 -8 0
-15 -5 -15 -11 0 -6 7 -8 16 -5 9 3 17 6 20 6 2 0 10 14 19 30 9 17 12 30 7
30 -5 0 -14 -11 -20 -25z"/>
<path fill="#000000" stroke="none" d="M302 190 c0 -14 2 -19 5 -12 2 6 2 18
0 25 -3 6 -5 1 -5 -13z"/>
<path fill="#000000" stroke="none" d="M107 193 c-4 -3 -7 -13 -7 -22 0 -11 3
-10 15 5 9 12 14 14 15 6 0 -7 5 -10 11 -6 8 4 7 9 -2 15 -17 11 -24 11 -32 2z"/>
<path fill="#000000" stroke="none" d="M274 191 c-5 -5 -18 -11 -29 -14 -15
-4 -14 -5 7 -6 15 0 30 4 33 10 9 14 1 21 -11 10z"/>
<path fill="#000000" stroke="none" d="M64 166 c-48 -26 -54 -37 -54 -97 0
-51 3 -59 19 -59 10 0 24 7 31 15 10 12 9 15 -4 15 -10 0 -14 -4 -11 -10 3 -5
-1 -10 -10 -10 -28 0 -10 25 21 30 25 5 30 10 35 48 5 39 4 42 -15 36 -12 -4
-22 -10 -24 -14 -1 -4 -9 -16 -17 -26 -13 -17 -14 -18 -15 -1 0 21 34 57 55
57 8 0 15 7 15 15 0 8 -1 15 -2 14 -2 -1 -13 -6 -24 -13z"/>
<path fill="#ffffff" stroke="none" d="M76 74 c-3 -8 -16 -14 -28 -14 -22 1
-22 1 -4 15 11 8 16 15 12 15 -5 0 -2 7 5 17 13 15 14 15 17 -1 2 -9 1 -24 -2
-32z"/>
<path fill="#000000" stroke="none" d="M208 153 c12 -2 32 -2 45 0 12 2 2 4
-23 4 -25 0 -35 -2 -22 -4z"/>
<path fill="#000000" stroke="none" d="M135 130 c-16 -4 -26 -8 -21 -9 5 0 4
-7 -1 -13 -14 -18 -25 -80 -13 -73 6 3 10 17 10 30 0 32 23 53 68 60 55 10 61
13 22 13 -19 0 -48 -4 -65 -8z"/>
<path fill="#000000" stroke="none" d="M243 123 c-7 -2 -13 -12 -13 -21 0 -14
1 -14 13 0 6 9 19 18 27 21 13 5 13 5 0 5 -8 0 -21 -2 -27 -5z"/>
<path fill="#000000" stroke="none" d="M196 105 c-3 -8 -1 -15 4 -15 6 0 10 7
10 15 0 8 -2 15 -4 15 -2 0 -6 -7 -10 -15z"/>
<path fill="#000000" stroke="none" d="M300 82 c0 -49 -24 -60 -129 -61 -52 0
-96 -3 -99 -6 -3 -3 40 -5 96 -5 89 0 105 3 122 20 17 17 29 80 15 80 -3 0 -5
-13 -5 -28z"/>
<path fill="#000000" stroke="none" d="M132 88 c-7 -7 -12 -16 -12 -22 0 -5 6
-3 13 6 6 9 21 18 32 21 20 5 20 5 0 6 -12 0 -26 -4 -33 -11z"/>
<path fill="#000000" stroke="none" d="M246 85 c-3 -8 -1 -15 4 -15 13 0 22
18 11 24 -5 3 -11 -1 -15 -9z"/>
<path fill="#000000" stroke="none" d="M277 77 c-3 -9 -13 -17 -22 -17 -8 0
-15 -4 -15 -10 0 -14 13 -13 34 3 11 8 17 20 14 27 -3 11 -6 10 -11 -3z"/>
<path fill="#000000" stroke="none" d="M150 40 c0 -5 7 -7 15 -4 8 4 15 8 15
10 0 2 -7 4 -15 4 -8 0 -15 -4 -15 -10z"/>
</g>
</svg>
