<?xml version="1.0" standalone="no"?>
<!DOCTYPE svg PUBLIC "-//W3C//DTD SVG 20010904//EN"
 "http://www.w3.org/TR/2001/REC-SVG-20010904/DTD/svg10.dtd">
<svg version="1.0" xmlns="http://www.w3.org/2000/svg"
 width="32.000000pt" height="32.000000pt" viewBox="0 0 32.000000 32.000000"
 preserveAspectRatio="xMidYMid meet">
<metadata>
Created by potrace 1.16, written by Peter Selinger 2001-2019
</metadata>
<g transform="translate(0.000000,32.000000) scale(0.100000,-0.100000)"
fill="#000000" stroke="none">
<path fill="#000000" stroke="none" d="M105 270 c-3 -5 -1 -10 4 -10 6 0 11 5
11 10 0 6 -2 10 -4 10 -3 0 -8 -4 -11 -10z"/>
<path fill="#000000" stroke="none" d="M215 271 c-3 -6 3 -9 14 -8 11 0 17 5
15 9 -7 11 -22 10 -29 -1z"/>
<path fill="#000000" stroke="none" d="M293 225 c0 -22 2 -30 4 -17 2 12 2 30
0 40 -3 9 -5 -1 -4 -23z"/>
<path fill="#000000" stroke="none" d="M73 225 c-3 -9 -3 -18 -1 -21 3 -3 8 4
11 16 6 23 -1 27 -10 5z"/>
<path fill="#000000" stroke="none" d="M195 229 c-11 -17 -2 -18 19 -3 17 12
17 14 4 14 -9 0 -20 -5 -23 -11z"/>
<path fill="#000000" stroke="none" d="M308 174 c-1 -31 0 -58 5 -61 4 -2 7
23 7 56 0 76 -7 79 -12 5z"/>
<path fill="#000000" stroke="none" d="M108 203 c7 -3 16 -2 19 1 4 3 -2 6
-13 5 -11 0 -14 -3 -6 -6z"/>
<path fill="#000000" stroke="none" d="M210 199 c0 -5 5 -7 10 -4 6 3 10 8 10
11 0 2 -4 4 -10 4 -5 0 -10 -5 -10 -11z"/>
<path fill="#000000" stroke="none" d="M140 189 c0 -5 5 -7 10 -4 6 3 10 8 10
11 0 2 -4 4 -10 4 -5 0 -10 -5 -10 -11z"/>
<path fill="#000000" stroke="none" d="M175 189 c-4 -6 -5 -12 -2 -15 2 -3 7
2 10 11 7 17 1 20 -8 4z"/>
<path fill="#000000" stroke="none" d="M246 174 c-18 -26 -18 -26 3 -15 11 7
21 18 21 26 0 20 -2 19 -24 -11z"/>
<path fill="#000000" stroke="none" d="M109 181 c9 -6 10 -11 2 -15 -6 -4 -11
-12 -11 -19 0 -7 7 -5 16 5 17 17 12 38 -9 38 -8 0 -8 -3 2 -9z"/>
<path fill="#000000" stroke="none" d="M275 160 c-4 -6 -17 -15 -29 -20 -20
-8 -19 -9 5 -9 16 -1 29 6 33 15 8 20 1 30 -9 14z"/>
<path fill="#000000" stroke="none" d="M139 143 c-13 -15 -12 -15 11 -3 34 17
36 20 18 20 -9 0 -22 -7 -29 -17z"/>
<path fill="#000000" stroke="none" d="M163 123 c-7 -2 -13 -14 -12 -26 0 -21
1 -21 8 -2 4 11 19 23 32 26 19 6 20 7 4 7 -11 0 -26 -2 -32 -5z"/>
<path fill="#000000" stroke="none" d="M268 112 c-11 -2 -18 -13 -18 -26 0
-12 -9 -32 -20 -44 l-21 -22 29 0 c37 0 67 22 59 44 -7 18 -27 22 -27 5 0 -5
5 -7 10 -4 6 3 10 2 10 -4 0 -9 -31 -31 -44 -31 -9 0 17 54 33 67 17 15 13 21
-11 15z"/>
<path fill="#000000" stroke="none" d="M187 93 c-4 -3 -7 -11 -7 -17 0 -6 5
-5 12 2 6 6 9 14 7 17 -3 3 -9 2 -12 -2z"/>
<path fill="#000000" stroke="none" d="M215 78 c-4 -10 -13 -18 -21 -18 -8 0
-14 -5 -14 -10 0 -13 -41 -30 -95 -41 -39 -7 -39 -7 12 -6 29 0 50 4 47 9 -3
4 3 8 13 8 26 0 77 44 71 61 -5 11 -7 10 -13 -3z"/>
<path fill="#000000" stroke="none" d="M80 39 c0 -5 11 -9 25 -9 14 0 25 2 25
4 0 2 -11 6 -25 8 -14 3 -25 1 -25 -3z"/>
<path fill="#000000" stroke="none" d="M297 23 c-4 -3 -7 -11 -7 -17 0 -6 5
-5 12 2 6 6 9 14 7 17 -3 3 -9 2 -12 -2z"/>
<path fill="#000000" stroke="none" d="M203 3 c9 -2 23 -2 30 0 6 3 -1 5 -18
5 -16 0 -22 -2 -12 -5z"/>
<path fill="#000000" stroke="none" d="M258 3 c7 -3 16 -2 19 1 4 3 -2 6 -13
5 -11 0 -14 -3 -6 -6z"/>
</g>
</svg>
