<?xml version="1.0" standalone="no"?>
<!DOCTYPE svg PUBLIC "-//W3C//DTD SVG 20010904//EN"
 "http://www.w3.org/TR/2001/REC-SVG-20010904/DTD/svg10.dtd">
<svg version="1.0" xmlns="http://www.w3.org/2000/svg"
 width="32.000000pt" height="32.000000pt" viewBox="0 0 32.000000 32.000000"
 preserveAspectRatio="xMidYMid meet">
<metadata>
Created by potrace 1.16, written by Peter Selinger 2001-2019
</metadata>
<g transform="translate(0.000000,32.000000) scale(0.100000,-0.100000)"
fill="#000000" stroke="none">
<path fill="#000000" stroke="none" d="M13 313 c-8 -3 -12 -22 -11 -51 1 -41
2 -42 5 -12 7 54 17 60 101 60 71 0 74 -1 60 -17 -8 -10 -18 -26 -21 -35 -4
-11 -18 -19 -34 -19 -26 -2 -25 -2 7 -9 l35 -7 -32 -2 c-20 -1 -38 -10 -50
-23 -10 -13 -30 -29 -46 -37 -26 -14 -27 -18 -27 -88 l0 -73 160 0 160 0 0
160 0 160 -147 -1 c-82 0 -154 -3 -160 -6z"/>
<path fill="#ffffff" stroke="none" d="M310 302 c0 -5 -14 -6 -31 -4 -20 3
-29 1 -26 -5 4 -6 -4 -8 -19 -5 -25 5 -68 -23 -59 -39 3 -4 2 -10 -3 -13 -17
-11 -9 30 11 52 16 17 31 22 74 22 29 0 53 -4 53 -8z"/>
<path fill="#ffffff" stroke="none" d="M240 269 c0 -5 -4 -8 -9 -4 -6 3 -14
-3 -20 -12 -9 -15 -10 -15 -11 -2 0 9 3 19 7 22 10 11 33 8 33 -4z"/>
<path fill="#ffffff" stroke="none" d="M279 231 c-9 -26 -79 -70 -79 -50 0 5
11 11 25 15 29 7 45 31 45 66 0 17 3 19 9 9 5 -8 5 -25 0 -40z"/>
<path fill="#ffffff" stroke="none" d="M240 228 c-34 -28 -42 -21 -12 10 15
15 29 23 31 18 2 -5 -6 -18 -19 -28z"/>
<path fill="#ffffff" stroke="none" d="M175 180 c-9 -16 -17 -30 -19 -30 -3 0
-11 -3 -20 -6 -9 -3 -16 -1 -16 5 0 6 7 11 15 11 9 0 21 11 27 25 6 14 15 25
20 25 5 0 2 -13 -7 -30z"/>
<path fill="#ffffff" stroke="none" d="M307 178 c-3 -7 -5 -2 -5 12 0 14 2 19
5 13 2 -7 2 -19 0 -25z"/>
<path fill="#ffffff" stroke="none" d="M139 191 c9 -6 10 -11 2 -15 -6 -4 -11
-1 -11 6 -1 8 -6 6 -15 -6 -12 -15 -15 -16 -15 -5 0 27 15 35 39 20z"/>
<path fill="#ffffff" stroke="none" d="M285 181 c-3 -6 -18 -10 -33 -10 -21 1
-22 2 -7 6 11 3 24 9 29 14 12 11 20 4 11 -10z"/>
<path fill="#ffffff" stroke="none" d="M90 165 c0 -8 -7 -15 -15 -15 -21 0
-55 -36 -55 -57 1 -17 2 -16 15 1 8 10 16 22 17 26 2 4 12 10 24 14 19 6 20 3
15 -36 -5 -38 -10 -43 -35 -48 -31 -5 -49 -30 -21 -30 9 0 13 5 10 10 -3 6 1
10 11 10 13 0 14 -3 4 -15 -7 -8 -21 -15 -31 -15 -16 0 -19 8 -19 59 0 60 6
71 54 97 11 7 22 12 24 13 1 1 2 -6 2 -14z"/>
<path fill="#ffffff" stroke="none" d="M284 152 c2 -4 -12 -6 -32 -4 -62 6
-69 10 -20 11 26 0 49 -3 52 -7z"/>
<path fill="#ffffff" stroke="none" d="M217 115 c-7 -14 -16 -25 -20 -25 -4 0
-3 9 3 20 13 24 -2 26 -47 9 -32 -12 -43 -26 -43 -56 0 -12 -4 -25 -10 -28
-12 -7 -1 55 13 73 5 6 6 13 1 13 -16 2 51 17 83 18 30 1 31 0 20 -24z"/>
<path fill="#ffffff" stroke="none" d="M270 123 c-8 -3 -21 -12 -27 -21 -12
-14 -13 -14 -13 0 0 17 14 26 40 26 13 0 13 0 0 -5z"/>
<path fill="#ffffff" stroke="none" d="M310 80 c0 -57 -27 -70 -142 -70 -56 0
-99 2 -96 5 3 3 47 6 99 6 105 1 129 12 129 61 0 15 2 28 5 28 3 0 5 -13 5
-30z"/>
<path fill="#ffffff" stroke="none" d="M165 93 c-11 -3 -26 -12 -32 -21 -7 -9
-13 -11 -13 -6 0 17 23 34 45 33 20 -1 20 -1 0 -6z"/>
<path fill="#ffffff" stroke="none" d="M265 79 c-10 -15 -25 -10 -19 6 4 8 10
12 15 9 5 -3 7 -10 4 -15z"/>
<path fill="#ffffff" stroke="none" d="M274 53 c-21 -16 -34 -17 -34 -3 0 6 7
10 15 10 9 0 19 8 22 17 5 13 8 14 11 3 3 -7 -3 -19 -14 -27z"/>
<path fill="#ffffff" stroke="none" d="M180 46 c0 -2 -7 -6 -15 -10 -8 -3 -15
-1 -15 4 0 6 7 10 15 10 8 0 15 -2 15 -4z"/>
<path fill="#000000" stroke="none" d="M60 105 c-7 -8 -9 -15 -4 -15 5 0 2 -4
-6 -10 -18 -11 -7 -25 15 -17 8 4 15 18 15 32 0 29 -3 31 -20 10z"/>
<path fill="#000000" stroke="none" d="M43 290 c-13 -5 -23 -17 -23 -27 1 -17
1 -17 11 0 11 20 34 22 45 5 5 -7 2 -9 -8 -6 -16 7 -54 -29 -43 -40 4 -4 13 2
21 12 7 11 16 17 19 14 10 -10 -36 -57 -50 -51 -11 4 -15 -2 -14 -18 1 -18 3
-19 6 -6 2 9 9 14 14 11 16 -9 57 35 64 68 4 16 13 32 21 35 21 8 32 -6 14
-17 -8 -5 -11 -12 -8 -15 10 -10 25 2 31 25 5 18 0 20 -36 19 -23 0 -52 -4
-64 -9z"/>
</g>
</svg>
