<?xml version="1.0" standalone="no"?>
<!DOCTYPE svg PUBLIC "-//W3C//DTD SVG 20010904//EN"
 "http://www.w3.org/TR/2001/REC-SVG-20010904/DTD/svg10.dtd">
<svg version="1.0" xmlns="http://www.w3.org/2000/svg"
 width="32.000000pt" height="32.000000pt" viewBox="0 0 32.000000 32.000000"
 preserveAspectRatio="xMidYMid meet">
<metadata>
Created by potrace 1.16, written by Peter Selinger 2001-2019
</metadata>
<g transform="translate(0.000000,32.000000) scale(0.100000,-0.100000)"
fill="#000000" stroke="none">
<path fill="#000000" stroke="none" d="M104 305 c-3 -7 -15 -10 -28 -8 -61 12
-94 -61 -40 -86 39 -17 64 -6 64 30 0 16 4 29 9 29 10 0 6 -58 -4 -68 -13 -13
-85 -40 -85 -32 0 6 4 10 10 10 5 0 7 7 4 15 -12 31 -24 13 -24 -37 1 -50 2
-51 14 -29 15 26 51 50 79 51 10 0 17 8 17 19 0 20 20 46 42 53 10 4 10 8 -1
22 -17 20 -7 33 13 17 10 -8 16 -9 21 -1 3 5 28 10 56 10 37 0 49 -4 49 -15 0
-8 -9 -15 -19 -15 -20 0 -51 -25 -51 -41 0 -5 9 0 20 11 11 11 29 20 40 20 14
0 20 7 20 24 0 21 -5 24 -45 28 -25 2 -53 1 -62 -3 -9 -3 -34 -2 -56 1 -27 5
-40 4 -43 -5z"/>
<path fill="#ffffff" stroke="none" d="M146 262 c-6 -5 -36 23 -36 34 0 4 9
-1 20 -11 11 -10 18 -20 16 -23z"/>
<path fill="#ffffff" stroke="none" d="M77 283 c16 -6 15 -8 -7 -13 -24 -6
-42 -40 -21 -40 6 0 10 5 9 12 -2 6 5 14 15 16 12 2 17 -3 17 -17 0 -26 -15
-34 -39 -22 -28 15 -35 43 -15 58 21 15 18 15 41 6z"/>
<path fill="#000000" stroke="none" d="M200 275 c-8 -9 -9 -15 -2 -15 6 0 14
5 17 11 4 6 13 8 19 6 7 -3 19 -1 27 4 10 6 5 9 -17 9 -17 0 -37 -7 -44 -15z"/>
<path fill="#000000" stroke="none" d="M182 243 c-22 -4 -52 -43 -33 -43 5 0
11 7 15 15 3 8 12 15 20 15 8 0 18 5 21 10 3 6 5 9 3 9 -2 -1 -13 -4 -26 -6z"/>
<path fill="#000000" stroke="none" d="M250 210 c-11 -11 -20 -26 -20 -32 0
-7 7 -4 16 7 8 11 22 26 31 33 9 6 12 12 5 12 -7 0 -21 -9 -32 -20z"/>
<path fill="#000000" stroke="none" d="M176 202 c2 -3 -1 -11 -7 -19 -8 -9 -8
-13 -1 -13 16 0 26 20 15 30 -6 4 -8 5 -7 2z"/>
<path fill="#000000" stroke="none" d="M300 165 c0 -40 -2 -45 -23 -45 -30 0
-47 -18 -46 -49 1 -21 2 -22 6 -6 8 32 25 47 50 42 22 -4 23 -1 23 49 0 30 -2
54 -5 54 -3 0 -5 -20 -5 -45z"/>
<path fill="#000000" stroke="none" d="M261 149 c-16 -13 -18 -19 -8 -19 15 0
43 27 36 34 -2 3 -15 -4 -28 -15z"/>
<path fill="#000000" stroke="none" d="M55 135 c-14 -13 -25 -33 -25 -45 0
-11 -4 -20 -10 -20 -5 0 -10 -13 -10 -30 0 -28 3 -30 35 -30 51 0 95 25 94 53
0 14 -2 17 -6 7 -10 -27 -47 -50 -83 -49 -32 0 -33 1 -13 11 18 9 20 14 11 34
-15 32 12 74 48 74 14 0 22 4 19 10 -10 17 -35 11 -60 -15z"/>
<path fill="#000000" stroke="none" d="M141 149 c17 -11 56 -12 63 -1 2 4 -14
8 -36 8 -26 1 -35 -2 -27 -7z"/>
<path fill="#000000" stroke="none" d="M70 111 c-13 -26 -13 -41 2 -41 6 0 8
3 5 6 -13 13 14 46 34 41 10 -3 17 -1 13 4 -9 16 -43 10 -54 -10z"/>
<path fill="#000000" stroke="none" d="M158 123 c6 -2 18 -2 25 0 6 3 1 5 -13
5 -14 0 -19 -2 -12 -5z"/>
<path fill="#000000" stroke="none" d="M94 75 c-1 -14 2 -22 7 -19 11 6 12 44
2 44 -5 0 -9 -11 -9 -25z"/>
<path fill="#000000" stroke="none" d="M157 63 c-4 -27 -13 -43 -25 -46 -16
-4 -16 -5 0 -6 22 -1 40 32 36 67 -3 22 -5 20 -11 -15z"/>
<path fill="#000000" stroke="none" d="M205 79 c-6 -17 -9 -19 -16 -8 -5 8 -9
10 -9 4 0 -5 4 -17 10 -25 7 -11 11 -9 20 14 6 16 9 31 6 33 -2 3 -7 -5 -11
-18z"/>
<path fill="#000000" stroke="none" d="M276 34 c-18 -26 -18 -26 3 -15 11 7
21 18 21 26 0 20 -2 19 -24 -11z"/>
<path fill="#000000" stroke="none" d="M190 24 c-16 -8 -19 -14 -9 -14 8 0 24
7 35 15 24 18 7 18 -26 -1z"/>
</g>
</svg>
