<?xml version="1.0" standalone="no"?>
<!DOCTYPE svg PUBLIC "-//W3C//DTD SVG 20010904//EN"
 "http://www.w3.org/TR/2001/REC-SVG-20010904/DTD/svg10.dtd">
<svg version="1.0" xmlns="http://www.w3.org/2000/svg"
 width="32.000000pt" height="32.000000pt" viewBox="0 0 32.000000 32.000000"
 preserveAspectRatio="xMidYMid meet">
<metadata>
Created by potrace 1.16, written by Peter Selinger 2001-2019
</metadata>
<g transform="translate(0.000000,32.000000) scale(0.100000,-0.100000)"
fill="#000000" stroke="none">
<path fill="#000000" stroke="none" d="M28 299 c-10 -5 -18 -17 -18 -24 0 -11
5 -10 20 5 15 15 33 20 76 20 l55 0 -21 -30 c-12 -16 -16 -30 -10 -30 6 0 13
8 17 18 3 9 13 25 21 35 14 16 11 17 -54 17 -38 0 -77 -5 -86 -11z"/>
<path fill="#000000" stroke="none" d="M243 303 c9 -2 23 -2 30 0 6 3 -1 5
-18 5 -16 0 -22 -2 -12 -5z"/>
<path fill="#000000" stroke="none" d="M174 279 c-19 -22 -19 -22 1 -11 11 6
27 16 35 22 13 8 13 10 -1 10 -9 0 -24 -10 -35 -21z"/>
<path fill="#000000" stroke="none" d="M105 280 c-3 -6 1 -7 9 -4 18 7 21 14
7 14 -6 0 -13 -4 -16 -10z"/>
<path fill="#000000" stroke="none" d="M40 220 c-8 -5 -12 -12 -9 -15 4 -3 12
1 19 10 14 17 11 19 -10 5z"/>
<path fill="#000000" stroke="none" d="M47 194 c-20 -19 -37 -38 -37 -40 0 -8
54 32 70 51 25 31 4 23 -33 -11z"/>
<path fill="#000000" stroke="none" d="M108 223 c7 -3 16 -2 19 1 4 3 -2 6
-13 5 -11 0 -14 -3 -6 -6z"/>
<path fill="#000000" stroke="none" d="M248 173 c7 -3 16 -2 19 1 4 3 -2 6
-13 5 -11 0 -14 -3 -6 -6z"/>
<path fill="#000000" stroke="none" d="M150 160 c-9 -6 -10 -10 -3 -10 6 0 15
5 18 10 8 12 4 12 -15 0z"/>
<path fill="#000000" stroke="none" d="M29 139 c-11 -11 -19 -23 -16 -25 3 -3
16 6 30 20 15 14 22 26 17 26 -6 0 -19 -9 -31 -21z"/>
<path fill="#000000" stroke="none" d="M48 53 c6 -2 18 -2 25 0 6 3 1 5 -13 5
-14 0 -19 -2 -12 -5z"/>
<path fill="#000000" stroke="none" d="M258 53 c7 -3 16 -2 19 1 4 3 -2 6 -13
5 -11 0 -14 -3 -6 -6z"/>
</g>
</svg>
