<?xml version="1.0" standalone="no"?>
<!DOCTYPE svg PUBLIC "-//W3C//DTD SVG 20010904//EN"
 "http://www.w3.org/TR/2001/REC-SVG-20010904/DTD/svg10.dtd">
<svg version="1.0" xmlns="http://www.w3.org/2000/svg"
 width="32.000000pt" height="32.000000pt" viewBox="0 0 32.000000 32.000000"
 preserveAspectRatio="xMidYMid meet">
<metadata>
Created by potrace 1.16, written by Peter Selinger 2001-2019
</metadata>
<g transform="translate(0.000000,32.000000) scale(0.100000,-0.100000)"
fill="#000000" stroke="none">
<path fill="#000000" stroke="none" d="M3 257 c0 -42 1 -49 4 -22 8 68 21 75
141 75 l104 0 -16 -25 c-9 -13 -16 -33 -16 -44 0 -11 -5 -23 -10 -26 -6 -4 -8
-10 -5 -14 5 -8 -50 -21 -92 -21 -20 0 -21 2 -8 27 11 20 11 30 3 40 -17 21
-62 12 -66 -12 -4 -20 -4 -20 11 0 9 11 18 17 21 14 4 -3 -3 -17 -13 -31 -26
-32 -12 -48 41 -48 36 0 38 -1 28 -21 -6 -11 -19 -23 -28 -26 -31 -11 -52 -36
-53 -62 -1 -17 -3 -20 -6 -8 -7 25 -25 21 -21 -5 4 -32 48 -35 101 -8 l42 22
-23 -24 c-17 -17 -38 -24 -85 -29 -41 -4 -7 -6 101 -7 l162 -2 0 160 0 161
-158 -2 -159 -1 0 -61z"/>
<path fill="#ffffff" stroke="none" d="M298 303 c-10 -2 -18 -9 -18 -14 0 -5
-7 -9 -16 -9 -14 0 -14 3 -4 15 7 8 22 14 34 14 17 -1 17 -2 4 -6z"/>
<path fill="#ffffff" stroke="none" d="M305 271 c-3 -6 -17 -11 -31 -11 -16 0
-28 -8 -34 -22 -5 -13 -9 -18 -9 -11 -2 25 12 43 34 43 13 0 27 5 30 11 4 6 9
8 12 5 3 -2 2 -9 -2 -15z"/>
<path fill="#ffffff" stroke="none" d="M90 205 c-7 -8 -19 -15 -27 -15 -10 0
-8 6 8 19 27 22 38 19 19 -4z"/>
<path fill="#ffffff" stroke="none" d="M275 201 c-3 -6 -11 -11 -17 -11 -6 0
-6 6 2 15 14 17 26 13 15 -4z"/>
<path fill="#ffffff" stroke="none" d="M304 195 c-7 -17 -74 -58 -74 -44 0 5
10 13 23 18 13 5 29 16 36 25 17 20 22 20 15 1z"/>
<path fill="#ffffff" stroke="none" d="M220 170 c0 -5 -6 -7 -14 -4 -8 3 -24
-4 -35 -15 -15 -15 -21 -17 -21 -6 0 16 27 34 53 35 9 0 17 -4 17 -10z"/>
<path fill="#ffffff" stroke="none" d="M310 155 c0 -8 -6 -15 -13 -15 -8 0
-24 -11 -37 -25 -17 -19 -33 -25 -59 -23 -35 1 -35 1 -5 5 17 2 42 15 55 29
12 13 28 24 36 24 7 0 13 5 13 10 0 6 2 10 5 10 3 0 5 -7 5 -15z"/>
<path fill="#ffffff" stroke="none" d="M215 131 c-3 -6 -11 -11 -17 -11 -6 0
-6 6 2 15 14 17 26 13 15 -4z"/>
<path fill="#ffffff" stroke="none" d="M290 107 c0 -2 -10 -12 -21 -23 -22
-19 -22 -19 -10 4 10 18 31 31 31 19z"/>
<path fill="#ffffff" stroke="none" d="M97 89 c-10 -6 -22 -20 -27 -32 l-9
-22 0 22 c-1 21 22 42 44 42 6 0 2 -4 -8 -10z"/>
<path fill="#ffffff" stroke="none" d="M294 23 c-11 -8 -46 -13 -87 -13 -66 0
-69 1 -55 18 8 9 18 25 21 35 4 11 17 17 38 17 18 0 29 -3 25 -7 -4 -4 -16 -8
-28 -8 -12 0 -24 -9 -29 -22 -8 -22 -6 -23 37 -23 59 0 84 14 85 48 2 27 2 27
6 -3 3 -20 -1 -33 -13 -42z"/>
<path fill="#ffffff" stroke="none" d="M115 50 c-3 -5 -11 -10 -16 -10 -6 0
-7 5 -4 10 3 6 11 10 16 10 6 0 7 -4 4 -10z"/>
<path fill="#ffffff" stroke="none" d="M225 40 c-3 -5 -14 -10 -23 -9 -14 0
-13 2 3 9 27 11 27 11 20 0z"/>
<path fill="#000000" stroke="none" d="M53 290 c-24 -10 -38 -46 -30 -77 3
-10 5 -3 6 15 1 28 6 36 31 45 17 6 30 15 30 19 0 10 -9 9 -37 -2z"/>
<path fill="#000000" stroke="none" d="M137 293 c-15 -14 -6 -23 12 -13 26 13
51 13 51 -1 0 -6 -7 -9 -15 -5 -8 3 -15 1 -15 -4 0 -6 -11 -10 -25 -10 -16 0
-25 6 -25 15 0 8 -5 15 -10 15 -6 0 -4 -13 5 -30 9 -17 13 -40 10 -50 -7 -23
0 -24 44 -9 21 8 33 19 37 37 3 15 9 35 15 45 8 15 4 17 -34 17 -24 0 -47 -3
-50 -7z"/>
<path fill="#ffffff" stroke="none" d="M190 235 c-7 -8 -22 -14 -34 -14 -19 2
-19 2 2 6 13 3 26 11 29 19 3 8 8 13 11 10 3 -3 -1 -12 -8 -21z"/>
<path fill="#000000" stroke="none" d="M0 175 c0 -8 2 -15 4 -15 2 0 6 7 10
15 3 8 1 15 -4 15 -6 0 -10 -7 -10 -15z"/>
<path fill="#000000" stroke="none" d="M24 162 c4 -7 22 -12 39 -13 31 0 31
-1 7 -10 -27 -11 -40 -27 -39 -49 0 -9 5 -6 11 8 6 12 22 25 34 28 13 3 28 12
35 20 9 12 5 14 -24 14 -19 0 -43 3 -53 7 -12 4 -15 3 -10 -5z"/>
<path fill="#000000" stroke="none" d="M3 85 c0 -38 2 -53 4 -32 2 20 2 52 0
70 -2 17 -4 1 -4 -38z"/>
</g>
</svg>
