<?xml version="1.0" standalone="no"?>
<!DOCTYPE svg PUBLIC "-//W3C//DTD SVG 20010904//EN"
 "http://www.w3.org/TR/2001/REC-SVG-20010904/DTD/svg10.dtd">
<svg version="1.0" xmlns="http://www.w3.org/2000/svg"
 width="32.000000pt" height="32.000000pt" viewBox="0 0 32.000000 32.000000"
 preserveAspectRatio="xMidYMid meet">
<metadata>
Created by potrace 1.16, written by Peter Selinger 2001-2019
</metadata>
<g transform="translate(0.000000,32.000000) scale(0.100000,-0.100000)"
fill="#000000" stroke="none">
<path fill="#000000" stroke="none" d="M8 312 c6 -2 9 -9 5 -15 -8 -13 -12
-254 -5 -275 8 -23 19 -12 16 16 -2 15 -1 19 2 10 10 -32 23 -19 18 18 -3 26
-1 34 8 31 7 -2 12 -11 10 -21 -2 -10 4 -16 15 -15 10 0 13 3 6 5 -16 7 -5 34
11 28 18 -7 40 22 32 42 -4 9 -1 24 6 33 12 14 11 15 -5 2 -10 -8 -15 -21 -12
-31 3 -10 -2 -23 -12 -31 -15 -12 -16 -12 -10 6 l7 20 -16 -20 c-16 -19 -16
-19 -10 7 8 34 -1 37 -14 5 -8 -19 -9 -20 -9 -3 -1 11 6 27 15 37 15 17 15 18
-5 16 -14 -1 -21 -8 -21 -22 0 -16 -2 -17 -10 -5 -11 18 16 51 36 43 13 -5 19
8 15 31 -1 4 1 17 5 28 7 23 85 62 95 47 3 -6 26 -7 58 -3 28 4 49 9 47 12 -3
2 -69 5 -148 7 -79 1 -137 0 -130 -3z"/>
<path fill="#ffffff" stroke="none" d="M70 296 c0 -3 -4 -8 -10 -11 -5 -3 -10
-1 -10 4 0 6 5 11 10 11 6 0 10 -2 10 -4z"/>
<path fill="#ffffff" stroke="none" d="M90 280 c-11 -11 -20 -31 -20 -44 0
-18 -7 -25 -27 -29 l-28 -5 23 15 c12 9 22 22 22 29 0 21 23 54 37 54 8 0 5
-8 -7 -20z"/>
<path fill="#ffffff" stroke="none" d="M34 263 c-4 -22 -3 -25 5 -13 7 9 11
10 11 3 0 -6 -5 -15 -10 -18 -13 -8 -24 20 -16 40 9 25 17 17 10 -12z"/>
<path fill="#ffffff" stroke="none" d="M27 83 c-3 -10 -5 -2 -5 17 0 19 2 27
5 18 2 -10 2 -26 0 -35z"/>
<path fill="#000000" stroke="none" d="M145 280 c-3 -5 1 -10 9 -10 8 0 18 5
21 10 3 6 -1 10 -9 10 -8 0 -18 -4 -21 -10z"/>
<path fill="#000000" stroke="none" d="M185 271 c-3 -5 0 -13 6 -17 8 -5 9 -3
4 6 -6 10 -4 12 9 7 10 -4 15 -3 11 3 -8 13 -22 13 -30 1z"/>
<path fill="#000000" stroke="none" d="M110 249 c-13 -24 -7 -49 12 -49 10 0
9 3 -1 9 -12 8 -12 12 -2 25 19 23 30 20 24 -6 -3 -13 -2 -19 2 -15 14 12 15
41 2 49 -19 12 -25 10 -37 -13z"/>
<path fill="#000000" stroke="none" d="M298 237 c-3 -19 -2 -25 4 -19 6 6 8
18 6 28 -3 14 -5 12 -10 -9z"/>
<path fill="#000000" stroke="none" d="M231 244 c-2 -19 26 -47 40 -41 11 4
11 6 -2 6 -9 1 -21 11 -27 24 -6 12 -11 17 -11 11z"/>
<path fill="#000000" stroke="none" d="M265 240 c-3 -5 -1 -10 4 -10 6 0 11 5
11 10 0 6 -2 10 -4 10 -3 0 -8 -4 -11 -10z"/>
<path fill="#000000" stroke="none" d="M170 222 c0 -10 -6 -24 -12 -31 -11
-10 -10 -11 5 -6 15 6 26 55 12 55 -3 0 -5 -8 -5 -18z"/>
<path fill="#000000" stroke="none" d="M211 217 c-1 -20 -10 -33 -31 -45 -16
-9 -30 -22 -30 -29 0 -6 -3 -19 -7 -29 -4 -12 -3 -15 5 -10 7 4 12 16 12 27 0
10 7 19 15 19 21 0 47 45 42 72 -4 20 -4 19 -6 -5z"/>
<path fill="#000000" stroke="none" d="M212 160 c-7 -11 -8 -20 -3 -20 9 0 24
30 18 36 -1 2 -8 -6 -15 -16z"/>
<path fill="#000000" stroke="none" d="M245 150 c-3 -5 -1 -10 4 -10 6 0 11 5
11 10 0 6 -2 10 -4 10 -3 0 -8 -4 -11 -10z"/>
<path fill="#000000" stroke="none" d="M175 121 c-3 -5 0 -13 6 -17 7 -4 9 -3
5 4 -3 5 0 13 6 15 9 4 10 6 1 6 -6 1 -14 -3 -18 -8z"/>
<path fill="#000000" stroke="none" d="M262 121 c-8 -5 -12 -16 -10 -25 2 -12
6 -10 15 9 6 14 10 25 10 25 -1 0 -8 -4 -15 -9z"/>
<path fill="#000000" stroke="none" d="M282 100 c-8 -13 -8 -20 -2 -20 6 0 13
7 17 15 9 24 -1 27 -15 5z"/>
<path fill="#000000" stroke="none" d="M200 93 c-24 -12 -24 -13 -3 -13 12 0
25 5 28 11 11 16 2 17 -25 2z"/>
<path fill="#000000" stroke="none" d="M110 75 c-11 -13 -10 -14 4 -9 9 3 16
10 16 15 0 13 -6 11 -20 -6z"/>
<path fill="#000000" stroke="none" d="M171 38 c-10 -30 -9 -31 4 -14 8 11 15
26 15 33 0 22 -8 14 -19 -19z"/>
<path fill="#000000" stroke="none" d="M223 50 c-46 -27 -41 -34 5 -8 46 27
48 28 36 28 -5 0 -24 -9 -41 -20z"/>
<path fill="#000000" stroke="none" d="M92 43 c-13 -5 -7 -23 9 -23 6 0 8 4 4
9 -3 5 3 12 12 14 12 3 13 5 3 5 -8 0 -21 -2 -28 -5z"/>
<path fill="#000000" stroke="none" d="M140 35 c-11 -13 -10 -14 4 -9 9 3 16
10 16 15 0 13 -6 11 -20 -6z"/>
<path fill="#000000" stroke="none" d="M247 33 c-10 -10 -8 -23 4 -23 5 0 8 4
5 9 -4 5 0 12 6 14 7 3 8 6 2 6 -6 1 -14 -2 -17 -6z"/>
</g>
</svg>
