<?xml version="1.0" standalone="no"?>
<!DOCTYPE svg PUBLIC "-//W3C//DTD SVG 20010904//EN"
 "http://www.w3.org/TR/2001/REC-SVG-20010904/DTD/svg10.dtd">
<svg version="1.0" xmlns="http://www.w3.org/2000/svg"
 width="32.000000pt" height="32.000000pt" viewBox="0 0 32.000000 32.000000"
 preserveAspectRatio="xMidYMid meet">
<metadata>
Created by potrace 1.16, written by Peter Selinger 2001-2019
</metadata>
<g transform="translate(0.000000,32.000000) scale(0.100000,-0.100000)"
fill="#000000" stroke="none">
<path fill="#000000" stroke="none" d="M1 161 l-2 -159 56 4 c60 6 125 28 125
44 0 6 5 10 11 10 7 0 18 8 25 18 12 16 13 16 14 0 0 -19 -50 -58 -73 -58 -9
0 -18 -3 -20 -8 -3 -4 37 -7 88 -8 l94 -1 -4 56 c-2 31 -4 58 -5 61 -1 3 -2 8
-1 12 0 4 3 47 6 97 l5 89 -159 1 -159 2 -1 -160z"/>
<path fill="#ffffff" stroke="none" d="M244 272 c2 -4 -4 -9 -15 -9 -11 -1
-17 2 -14 8 7 11 22 12 29 1z"/>
<path fill="#ffffff" stroke="none" d="M297 203 c-3 -10 -5 -2 -5 17 0 19 2
27 5 18 2 -10 2 -26 0 -35z"/>
<path fill="#ffffff" stroke="none" d="M83 220 c-3 -12 -8 -19 -11 -16 -5 6 5
36 12 36 2 0 2 -9 -1 -20z"/>
<path fill="#ffffff" stroke="none" d="M210 225 c-7 -9 -15 -13 -17 -11 -7 7
7 26 19 26 6 0 6 -6 -2 -15z"/>
<path fill="#ffffff" stroke="none" d="M127 204 c-3 -3 -12 -4 -19 -1 -8 3 -5
6 6 6 11 1 17 -2 13 -5z"/>
<path fill="#ffffff" stroke="none" d="M270 185 c0 -8 -10 -19 -21 -26 -21
-11 -21 -11 -3 15 22 30 24 31 24 11z"/>
<path fill="#ffffff" stroke="none" d="M126 179 c3 -6 -1 -18 -10 -27 -9 -10
-16 -12 -16 -5 0 7 5 15 11 19 8 4 7 9 -2 15 -10 6 -10 9 -2 9 6 0 15 -5 19
-11z"/>
<path fill="#ffffff" stroke="none" d="M284 146 c-4 -9 -17 -16 -33 -15 -24 0
-25 1 -5 9 12 5 25 14 29 20 10 16 17 6 9 -14z"/>
<path fill="#ffffff" stroke="none" d="M179 156 c-2 -2 -15 -9 -29 -16 -23
-12 -24 -12 -11 3 7 10 20 17 29 17 8 0 13 -2 11 -4z"/>
<path fill="#ffffff" stroke="none" d="M191 121 c-13 -3 -28 -15 -32 -26 -7
-19 -8 -19 -8 2 -1 23 11 32 44 31 16 0 15 -1 -4 -7z"/>
<path fill="#ffffff" stroke="none" d="M262 75 c-9 -19 -21 -35 -26 -35 -6 0
-5 5 2 12 7 7 12 22 12 35 0 13 6 23 14 23 11 0 11 -6 -2 -35z"/>
<path fill="#ffffff" stroke="none" d="M192 78 c-7 -7 -12 -8 -12 -2 0 14 12
26 19 19 2 -3 -1 -11 -7 -17z"/>
<path fill="#ffffff" stroke="none" d="M297 64 c8 -23 -23 -44 -61 -43 l-31 1
31 7 c38 9 54 19 54 32 0 6 -4 7 -10 4 -5 -3 -10 -1 -10 4 0 17 20 13 27 -5z"/>
<path fill="#ffffff" stroke="none" d="M110 34 c0 -2 -7 -4 -15 -4 -8 0 -15 4
-15 10 0 5 7 7 15 4 8 -4 15 -8 15 -10z"/>
<path fill="#ffffff" stroke="none" d="M310 20 c0 -5 -5 -10 -11 -10 -5 0 -7
5 -4 10 3 6 8 10 11 10 2 0 4 -4 4 -10z"/>
</g>
</svg>
