<?xml version="1.0" standalone="no"?>
<!DOCTYPE svg PUBLIC "-//W3C//DTD SVG 20010904//EN"
 "http://www.w3.org/TR/2001/REC-SVG-20010904/DTD/svg10.dtd">
<svg version="1.0" xmlns="http://www.w3.org/2000/svg"
 width="32.000000pt" height="32.000000pt" viewBox="0 0 32.000000 32.000000"
 preserveAspectRatio="xMidYMid meet">
<metadata>
Created by potrace 1.16, written by Peter Selinger 2001-2019
</metadata>
<g transform="translate(0.000000,32.000000) scale(0.100000,-0.100000)"
fill="#000000" stroke="none">
<path fill="#000000" stroke="none" d="M4 305 c-3 -8 -4 -20 -1 -27 3 -7 6 -3
6 9 1 20 7 22 74 26 l72 3 -73 2 c-56 2 -74 -1 -78 -13z"/>
<path fill="#000000" stroke="none" d="M150 285 c-8 -26 -17 -35 -33 -35 l-21
0 22 16 c12 8 22 20 22 25 0 6 -16 -2 -35 -16 -24 -19 -43 -26 -66 -23 -29 3
-32 0 -35 -27 l-3 -30 18 24 c12 16 24 22 35 18 21 -8 21 -33 0 -41 -14 -5
-15 -4 -4 9 15 18 5 34 -11 18 -22 -22 -2 -43 41 -43 l41 0 -25 -26 c-18 -20
-31 -25 -50 -22 -15 3 -27 1 -27 -6 -1 -6 -5 7 -9 29 -5 30 -8 16 -9 -57 l-1
-98 160 0 160 0 0 160 0 160 -52 -2 -53 -1 50 -7 c39 -5 43 -8 20 -10 -16 -2
-38 -3 -47 -2 -10 1 -17 -4 -15 -10 1 -7 -7 -13 -18 -15 -16 -3 -17 -2 -5 6
13 9 13 11 -2 11 -21 0 -30 -13 -22 -34 5 -13 10 -14 20 -5 7 6 18 9 25 7 6
-2 0 -9 -15 -16 -22 -10 -27 -9 -37 9 -14 27 -5 49 21 49 11 0 20 5 20 10 0 6
-11 10 -24 10 -19 0 -27 -8 -36 -35z"/>
<path fill="#ffffff" stroke="none" d="M290 255 c0 -8 -4 -15 -10 -15 -5 0 -7
7 -4 15 4 8 8 15 10 15 2 0 4 -7 4 -15z"/>
<path fill="#ffffff" stroke="none" d="M120 227 c-14 -8 -24 -20 -22 -28 3
-11 1 -11 -9 -2 -16 16 5 43 35 43 20 0 19 -1 -4 -13z"/>
<path fill="#ffffff" stroke="none" d="M307 193 c-3 -10 -5 -2 -5 17 0 19 2
27 5 18 2 -10 2 -26 0 -35z"/>
<path fill="#ffffff" stroke="none" d="M211 206 c-6 -8 -10 -20 -9 -27 2 -9
-8 -15 -27 -17 -16 -2 -39 -11 -49 -20 -15 -14 -18 -14 -14 -2 2 8 14 19 26
25 12 5 22 17 22 27 0 9 4 19 9 22 4 3 6 -6 3 -19 -3 -18 0 -25 12 -25 10 0
13 6 10 15 -6 15 14 50 24 40 3 -2 0 -11 -7 -19z"/>
<path fill="#ffffff" stroke="none" d="M140 205 c0 -8 -8 -15 -17 -14 -11 0
-13 3 -5 6 6 2 10 9 6 14 -3 5 0 9 5 9 6 0 11 -7 11 -15z"/>
<path fill="#ffffff" stroke="none" d="M270 155 c-7 -8 -20 -15 -28 -15 -12 0
-11 4 6 16 12 8 23 23 23 32 1 15 2 15 6 -1 3 -10 -1 -24 -7 -32z"/>
<path fill="#ffffff" stroke="none" d="M165 130 c-10 -11 -21 -17 -24 -14 -3
3 3 12 13 20 28 20 32 17 11 -6z"/>
<path fill="#ffffff" stroke="none" d="M295 130 c-3 -5 -12 -10 -18 -10 -7 0
-6 4 3 10 19 12 23 12 15 0z"/>
<path fill="#ffffff" stroke="none" d="M48 113 c-28 -7 -35 -53 -12 -71 18
-14 18 -14 1 -8 -10 3 -21 6 -23 6 -2 0 -4 15 -4 34 0 34 10 45 40 44 10 0 9
-2 -2 -5z"/>
<path fill="#ffffff" stroke="none" d="M210 80 c-6 -11 -18 -20 -26 -20 -12 0
-10 5 7 20 30 25 32 25 19 0z"/>
<path fill="#ffffff" stroke="none" d="M242 68 c-8 -8 -9 -4 -5 13 4 13 8 18
11 10 2 -7 -1 -18 -6 -23z"/>
<path fill="#ffffff" stroke="none" d="M273 85 c-3 -9 -8 -14 -10 -11 -3 3 -2
9 2 15 9 16 15 13 8 -4z"/>
<path fill="#ffffff" stroke="none" d="M55 80 c-3 -5 -11 -10 -16 -10 -6 0 -7
5 -4 10 3 6 11 10 16 10 6 0 7 -4 4 -10z"/>
<path fill="#ffffff" stroke="none" d="M79 64 c-17 -21 -31 -17 -17 5 7 11 16
17 20 14 5 -2 4 -11 -3 -19z"/>
<path fill="#ffffff" stroke="none" d="M305 41 c-3 -12 -10 -21 -15 -21 -4 0
-3 11 3 24 14 29 22 27 12 -3z"/>
<path fill="#ffffff" stroke="none" d="M180 46 c0 -2 -7 -6 -15 -10 -8 -3 -15
-1 -15 4 0 6 7 10 15 10 8 0 15 -2 15 -4z"/>
<path fill="#ffffff" stroke="none" d="M225 40 c-3 -5 -12 -10 -18 -10 -7 0
-6 4 3 10 19 12 23 12 15 0z"/>
<path fill="#ffffff" stroke="none" d="M123 23 c-7 -2 -19 -2 -25 0 -7 3 -2 5
12 5 14 0 19 -2 13 -5z"/>
<path fill="#ffffff" stroke="none" d="M63 13 c-7 -2 -19 -2 -25 0 -7 3 -2 5
12 5 14 0 19 -2 13 -5z"/>
<path fill="#ffffff" stroke="none" d="M183 13 c-7 -2 -19 -2 -25 0 -7 3 -2 5
12 5 14 0 19 -2 13 -5z"/>
<path fill="#ffffff" stroke="none" d="M263 13 c-7 -2 -21 -2 -30 0 -10 3 -4
5 12 5 17 0 24 -2 18 -5z"/>
<path fill="#000000" stroke="none" d="M25 289 c-11 -17 -2 -18 19 -3 17 12
17 14 4 14 -9 0 -20 -5 -23 -11z"/>
<path fill="#000000" stroke="none" d="M68 287 c-16 -6 -28 -14 -28 -19 0 -14
24 -8 50 12 27 21 20 24 -22 7z"/>
<path fill="#000000" stroke="none" d="M36 153 c21 -15 45 -14 51 3 2 6 -12
10 -33 10 -32 0 -34 -1 -18 -13z"/>
</g>
</svg>
