<?xml version="1.0" standalone="no"?>
<!DOCTYPE svg PUBLIC "-//W3C//DTD SVG 20010904//EN"
 "http://www.w3.org/TR/2001/REC-SVG-20010904/DTD/svg10.dtd">
<svg version="1.0" xmlns="http://www.w3.org/2000/svg"
 width="32.000000pt" height="32.000000pt" viewBox="0 0 32.000000 32.000000"
 preserveAspectRatio="xMidYMid meet">
<metadata>
Created by potrace 1.16, written by Peter Selinger 2001-2019
</metadata>
<g transform="translate(0.000000,32.000000) scale(0.100000,-0.100000)"
fill="#000000" stroke="none">
<path fill="#000000" stroke="none" d="M250 200 c-8 -5 -12 -12 -9 -15 4 -3
12 1 19 10 14 17 11 19 -10 5z"/>
<path fill="#000000" stroke="none" d="M266 175 c-11 -8 -15 -15 -9 -15 6 0
16 7 23 15 16 19 11 19 -14 0z"/>
<path fill="#000000" stroke="none" d="M160 79 c0 -5 5 -7 10 -4 6 3 10 8 10
11 0 2 -4 4 -10 4 -5 0 -10 -5 -10 -11z"/>
<path fill="#000000" stroke="none" d="M50 50 c-9 -6 -10 -10 -3 -10 6 0 15 5
18 10 8 12 4 12 -15 0z"/>
<path fill="#000000" stroke="none" d="M95 30 c-13 -6 -15 -9 -5 -9 8 0 22 4
30 9 18 12 2 12 -25 0z"/>
</g>
</svg>
