<?xml version="1.0" standalone="no"?>
<!DOCTYPE svg PUBLIC "-//W3C//DTD SVG 20010904//EN"
 "http://www.w3.org/TR/2001/REC-SVG-20010904/DTD/svg10.dtd">
<svg version="1.0" xmlns="http://www.w3.org/2000/svg"
 width="32.000000pt" height="32.000000pt" viewBox="0 0 32.000000 32.000000"
 preserveAspectRatio="xMidYMid meet">
<metadata>
Created by potrace 1.16, written by Peter Selinger 2001-2019
</metadata>
<g transform="translate(0.000000,32.000000) scale(0.100000,-0.100000)"
fill="#000000" stroke="none">
<path fill="#000000" stroke="none" d="M78 313 c7 -3 16 -2 19 1 4 3 -2 6 -13
5 -11 0 -14 -3 -6 -6z"/>
<path fill="#000000" stroke="none" d="M138 313 c7 -3 16 -2 19 1 4 3 -2 6
-13 5 -11 0 -14 -3 -6 -6z"/>
<path fill="#000000" stroke="none" d="M265 311 c27 -6 25 -8 -24 -14 -49 -7
-52 -9 -35 -23 18 -14 18 -14 -1 -7 -19 6 -19 6 -2 -14 9 -11 17 -28 17 -39 0
-26 -27 -64 -46 -64 -8 0 -14 -9 -14 -19 0 -11 -4 -22 -9 -26 -6 -3 -9 7 -8
22 1 19 11 32 32 43 35 17 44 53 21 79 -9 10 -13 21 -9 25 5 4 -5 4 -21 0 -21
-5 -27 -4 -22 5 4 6 14 11 22 11 8 0 14 4 14 9 0 14 -53 -6 -79 -30 -24 -23
-24 -65 0 -80 10 -6 11 -9 1 -9 -7 0 -10 -5 -6 -12 4 -7 3 -8 -5 -4 -17 11
-41 -12 -40 -38 0 -21 0 -21 9 2 13 31 22 28 14 -5 l-6 -28 20 31 c11 18 25
35 31 39 6 3 9 11 6 16 -4 5 -1 9 5 9 8 0 9 -7 5 -17 -4 -10 -7 -28 -7 -39 2
-25 -22 -49 -38 -39 -5 3 -10 1 -10 -6 0 -10 -3 -10 -12 -1 -14 14 -28 16 -28
3 0 -5 12 -12 28 -16 25 -7 25 -8 7 -15 -12 -4 -23 -3 -28 4 -5 6 -5 1 -2 -11
7 -24 -9 -32 -19 -10 -4 6 -4 2 -2 -10 2 -14 -2 -24 -13 -26 -9 -3 56 -4 144
-3 l160 1 3 39 c3 29 0 36 -10 30 -10 -6 -11 -5 -1 7 7 9 11 53 10 124 l-2
110 -40 2 c-36 1 -37 1 -10 -6z"/>
<path fill="#ffffff" stroke="none" d="M145 262 c20 -13 15 -51 -7 -58 -30 -9
-44 10 -30 41 12 26 20 30 37 17z"/>
<path fill="#ffffff" stroke="none" d="M310 241 c0 -42 -63 -58 -73 -19 -4 12
-4 24 -1 27 3 3 7 -5 11 -17 3 -12 13 -22 23 -22 20 0 36 33 24 51 -4 8 -3 9
4 5 7 -4 12 -15 12 -25z"/>
<path fill="#ffffff" stroke="none" d="M272 228 c-7 -7 -12 -8 -12 -2 0 6 3
14 7 17 3 4 9 5 12 2 2 -3 -1 -11 -7 -17z"/>
<path fill="#ffffff" stroke="none" d="M176 194 c-3 -8 -11 -14 -18 -14 -9 0
-9 3 0 12 7 7 13 21 13 33 1 17 2 18 6 2 3 -10 2 -25 -1 -33z"/>
<path fill="#ffffff" stroke="none" d="M307 178 c-3 -8 -6 -5 -6 6 -1 11 2 17
5 13 3 -3 4 -12 1 -19z"/>
<path fill="#ffffff" stroke="none" d="M224 156 c-3 -9 -10 -16 -15 -16 -5 0
-4 9 3 20 14 22 21 20 12 -4z"/>
<path fill="#ffffff" stroke="none" d="M260 150 c0 -5 -8 -10 -17 -10 -15 0
-16 2 -3 10 19 12 20 12 20 0z"/>
<path fill="#ffffff" stroke="none" d="M197 123 c-9 -2 -15 -9 -12 -14 4 -5 1
-9 -4 -9 -12 0 -14 13 -4 23 3 4 13 6 22 6 13 -1 12 -2 -2 -6z"/>
<path fill="#ffffff" stroke="none" d="M270 115 c-7 -9 -10 -19 -6 -23 4 -4
14 2 23 13 15 20 15 20 11 0 -2 -13 -14 -22 -33 -26 -20 -4 -23 -7 -10 -8 17
-2 15 -4 -10 -17 -16 -9 -36 -23 -42 -32 -7 -9 -13 -11 -13 -4 0 6 10 18 23
27 12 8 22 19 23 23 2 16 18 47 28 54 17 12 19 9 6 -7z"/>
<path fill="#ffffff" stroke="none" d="M227 95 c-4 -8 -17 -15 -29 -14 l-23 0
23 9 c12 5 22 15 22 21 0 7 3 10 6 6 4 -3 4 -13 1 -22z"/>
<path fill="#ffffff" stroke="none" d="M130 75 c-7 -8 -17 -15 -22 -15 -6 0
-5 7 2 15 7 8 17 15 22 15 6 0 5 -7 -2 -15z"/>
<path fill="#ffffff" stroke="none" d="M161 46 c-5 -11 -14 -22 -22 -25 -12
-4 -12 -2 -1 12 8 9 11 20 8 25 -3 5 1 9 9 9 9 0 11 -6 6 -21z"/>
<path fill="#ffffff" stroke="none" d="M184 36 c-3 -14 -10 -26 -15 -26 -4 0
-3 14 3 31 12 36 22 33 12 -5z"/>
<path fill="#ffffff" stroke="none" d="M117 43 c-9 -2 -15 -9 -12 -14 9 -14
-11 -11 -23 4 -8 9 -3 12 21 13 18 1 24 -1 14 -3z"/>
<path fill="#ffffff" stroke="none" d="M280 40 c0 -5 -7 -10 -16 -10 -8 0 -12
-4 -9 -10 3 -5 1 -10 -4 -10 -17 0 -13 18 7 29 22 13 22 13 22 1z"/>
<path fill="#ffffff" stroke="none" d="M299 19 c-24 -15 -30 -10 -11 9 9 10
19 14 21 9 2 -5 -3 -13 -10 -18z"/>
<path fill="#000000" stroke="none" d="M122 238 c-16 -16 -15 -28 2 -28 7 0
16 9 19 20 6 23 -3 26 -21 8z"/>
<path fill="#000000" stroke="none" d="M72 280 c-6 -11 -12 -26 -12 -34 0 -7
-10 -20 -22 -29 l-23 -15 28 5 c20 4 27 11 27 29 0 13 9 33 20 44 12 12 15 20
7 20 -7 0 -18 -9 -25 -20z"/>
<path fill="#000000" stroke="none" d="M24 275 c-8 -20 3 -48 16 -40 5 3 10
12 10 18 0 7 -4 6 -11 -3 -8 -12 -9 -9 -5 13 7 29 -1 37 -10 12z"/>
<path fill="#000000" stroke="none" d="M36 181 c-10 -11 -12 -21 -6 -31 8 -12
10 -10 10 8 0 13 3 21 8 19 4 -3 16 -1 26 3 19 6 19 7 -1 12 -14 4 -28 -1 -37
-11z"/>
<path fill="#000000" stroke="none" d="M2 170 c0 -14 2 -19 5 -12 2 6 2 18 0
25 -3 6 -5 1 -5 -13z"/>
<path fill="#000000" stroke="none" d="M96 124 c-9 -24 -7 -28 9 -14 17 14 20
30 6 30 -5 0 -12 -7 -15 -16z"/>
<path fill="#000000" stroke="none" d="M22 100 c0 -19 2 -27 5 -17 2 9 2 25 0
35 -3 9 -5 1 -5 -18z"/>
</g>
</svg>
