<?xml version="1.0" standalone="no"?>
<!DOCTYPE svg PUBLIC "-//W3C//DTD SVG 20010904//EN"
 "http://www.w3.org/TR/2001/REC-SVG-20010904/DTD/svg10.dtd">
<svg version="1.0" xmlns="http://www.w3.org/2000/svg"
 width="32.000000pt" height="32.000000pt" viewBox="0 0 32.000000 32.000000"
 preserveAspectRatio="xMidYMid meet">
<metadata>
Created by potrace 1.16, written by Peter Selinger 2001-2019
</metadata>
<g transform="translate(0.000000,32.000000) scale(0.100000,-0.100000)"
fill="#000000" stroke="none">
<path fill="#000000" stroke="none" d="M50 307 c-28 -14 -39 -53 -42 -161 l-3
-73 25 10 c32 13 66 44 58 53 -4 3 -16 -4 -27 -15 -32 -32 -41 -26 -41 29 0
46 2 50 23 50 28 0 47 17 47 42 0 21 34 58 54 58 11 0 13 -11 10 -42 -4 -42
-3 -42 5 -9 5 19 19 42 32 52 22 17 22 17 -27 12 -55 -6 -84 -26 -84 -58 0
-25 -18 -45 -39 -44 -12 0 -10 4 7 16 12 8 22 24 22 34 0 21 -15 25 -26 7 -4
-7 -3 -8 4 -4 7 4 12 3 12 -3 0 -18 -20 -22 -27 -5 -6 17 23 48 37 39 5 -3 10
2 14 10 7 18 -1 19 -34 2z"/>
<path fill="#000000" stroke="none" d="M203 293 c-13 -8 -23 -25 -22 -37 0
-21 0 -21 8 -1 11 25 45 43 91 48 30 3 28 4 -10 5 -26 1 -54 -6 -67 -15z"/>
<path fill="#000000" stroke="none" d="M109 254 c-5 -15 -7 -29 -4 -32 3 -4 8
4 12 17 4 17 8 19 14 9 6 -9 9 -7 9 10 0 30 -18 28 -31 -4z"/>
<path fill="#000000" stroke="none" d="M217 263 c-4 -3 -7 -11 -7 -17 0 -6 5
-5 12 2 6 6 9 14 7 17 -3 3 -9 2 -12 -2z"/>
<path fill="#000000" stroke="none" d="M273 220 c-6 -17 -21 -34 -32 -37 -12
-3 -21 -9 -21 -13 0 -5 9 -6 21 -3 25 7 52 46 47 69 -2 10 -7 5 -15 -16z"/>
<path fill="#000000" stroke="none" d="M241 219 c-7 -12 -10 -23 -8 -26 3 -3
11 5 17 17 15 28 8 35 -9 9z"/>
<path fill="#000000" stroke="none" d="M301 194 c0 -11 3 -14 6 -6 3 7 2 16
-1 19 -3 4 -6 -2 -5 -13z"/>
<path fill="#000000" stroke="none" d="M148 193 c6 -2 18 -2 25 0 6 3 1 5 -13
5 -14 0 -19 -2 -12 -5z"/>
<path fill="#000000" stroke="none" d="M32 155 c-2 -26 1 -36 9 -33 7 2 15 10
17 18 3 7 0 10 -7 6 -17 -11 -13 10 5 25 13 10 17 10 26 -2 8 -12 9 -12 5 1
-2 8 -15 16 -28 18 -22 3 -25 -1 -27 -33z"/>
<path fill="#000000" stroke="none" d="M112 168 c-20 -20 -13 -32 8 -13 10 9
26 15 35 11 9 -3 13 -2 10 4 -8 14 -38 13 -53 -2z"/>
<path fill="#000000" stroke="none" d="M262 156 c-36 -21 -38 -27 -4 -15 18 6
32 15 32 20 0 5 -1 9 -2 8 -2 -1 -13 -7 -26 -13z"/>
<path fill="#000000" stroke="none" d="M137 143 c-4 -3 -7 -11 -7 -17 0 -6 5
-5 12 2 6 6 9 14 7 17 -3 3 -9 2 -12 -2z"/>
<path fill="#000000" stroke="none" d="M301 134 c0 -11 3 -14 6 -6 3 7 2 16
-1 19 -3 4 -6 -2 -5 -13z"/>
<path fill="#000000" stroke="none" d="M202 110 c0 -14 2 -19 5 -12 2 6 2 18
0 25 -3 6 -5 1 -5 -13z"/>
<path fill="#000000" stroke="none" d="M230 105 c-19 -22 -8 -25 13 -3 9 10
13 18 8 18 -5 0 -14 -7 -21 -15z"/>
<path fill="#000000" stroke="none" d="M150 95 c-8 -9 -8 -15 -2 -15 12 0 26
19 19 26 -2 2 -10 -2 -17 -11z"/>
<path fill="#000000" stroke="none" d="M76 85 c-3 -9 -19 -18 -36 -21 -23 -5
-30 -12 -30 -30 0 -23 4 -24 59 -24 33 0 62 4 65 8 3 5 -22 6 -55 4 -68 -5
-79 9 -24 32 19 8 35 22 35 30 0 20 -6 20 -14 1z"/>
<path fill="#000000" stroke="none" d="M170 70 c-8 -5 -10 -10 -5 -10 6 0 17
5 25 10 8 5 11 10 5 10 -5 0 -17 -5 -25 -10z"/>
<path fill="#000000" stroke="none" d="M255 60 c-3 -5 -2 -10 4 -10 5 0 13 5
16 10 3 6 2 10 -4 10 -5 0 -13 -4 -16 -10z"/>
<path fill="#000000" stroke="none" d="M270 34 c-16 -8 -19 -14 -9 -14 8 0 24
7 35 15 24 18 7 18 -26 -1z"/>
<path fill="#000000" stroke="none" d="M58 33 c7 -3 16 -2 19 1 4 3 -2 6 -13
5 -11 0 -14 -3 -6 -6z"/>
</g>
</svg>
