<?xml version="1.0" standalone="no"?>
<!DOCTYPE svg PUBLIC "-//W3C//DTD SVG 20010904//EN"
 "http://www.w3.org/TR/2001/REC-SVG-20010904/DTD/svg10.dtd">
<svg version="1.0" xmlns="http://www.w3.org/2000/svg"
 width="32.000000pt" height="32.000000pt" viewBox="0 0 32.000000 32.000000"
 preserveAspectRatio="xMidYMid meet">
<metadata>
Created by potrace 1.16, written by Peter Selinger 2001-2019
</metadata>
<g transform="translate(0.000000,32.000000) scale(0.100000,-0.100000)"
fill="#000000" stroke="none">
<path fill="#000000" stroke="none" d="M0 305 c0 -9 5 -15 11 -13 14 5 14 21
0 26 -6 2 -11 -4 -11 -13z"/>
<path fill="#000000" stroke="none" d="M34 311 c3 -4 -2 -15 -12 -24 -15 -14
-17 -35 -17 -149 0 -110 3 -132 14 -130 8 2 50 3 93 3 96 0 128 12 128 49 0
14 5 31 12 38 16 16 45 15 51 0 3 -7 6 22 6 65 1 77 1 78 -22 72 -12 -4 -32
-17 -44 -28 -27 -24 -30 -16 -7 18 9 14 30 27 48 31 28 5 32 9 28 30 -2 13
-12 24 -21 25 -9 0 -35 2 -58 3 -26 2 -43 -2 -43 -8 0 -7 -3 -7 -8 -1 -8 12
-113 15 -106 3 3 -4 0 -8 -5 -8 -6 0 -11 5 -11 10 0 6 -7 10 -16 10 -8 0 -13
-4 -10 -9z"/>
<path fill="#ffffff" stroke="none" d="M300 290 c0 -12 -47 -33 -73 -32 -14 1
-15 -3 -7 -19 7 -13 7 -19 0 -19 -5 0 -10 6 -10 14 0 22 -50 6 -62 -20 -14
-30 -32 -31 -22 -1 8 26 22 37 49 37 12 0 26 5 31 10 6 6 24 13 40 16 41 8 43
14 3 14 -19 0 -40 -5 -47 -12 -7 -7 -12 -8 -12 -2 0 6 3 14 7 17 10 11 103 8
103 -3z"/>
<path fill="#ffffff" stroke="none" d="M70 281 c0 -5 -9 -12 -19 -16 -13 -4
-18 -12 -15 -23 5 -14 4 -14 -6 1 -10 15 -8 21 7 32 21 17 33 19 33 6z"/>
<path fill="#ffffff" stroke="none" d="M110 235 c0 -19 -4 -35 -8 -35 -4 0 -6
16 -4 35 2 19 6 35 8 35 2 0 4 -16 4 -35z"/>
<path fill="#ffffff" stroke="none" d="M90 234 c0 -8 -7 -14 -16 -14 -8 0 -12
5 -9 10 3 6 0 10 -7 10 -10 0 -9 3 2 9 17 12 30 5 30 -15z"/>
<path fill="#ffffff" stroke="none" d="M195 220 c4 -6 1 -9 -6 -8 -7 2 -13 -3
-14 -9 0 -7 -4 -13 -10 -12 -13 1 -7 21 8 31 15 10 15 10 22 -2z"/>
<path fill="#ffffff" stroke="none" d="M300 170 c0 -46 -2 -50 -24 -50 -28 0
-42 -14 -51 -53 -7 -25 -31 -47 -52 -47 -4 0 -8 23 -8 50 0 40 3 50 15 48 9
-2 16 -16 18 -33 2 -23 0 -27 -7 -15 -9 12 -11 11 -11 -7 0 -30 18 -29 30 1
15 41 2 66 -35 66 -32 0 -33 -1 -23 -27 13 -36 -4 -83 -29 -83 -17 1 -17 1 0
11 11 7 17 22 17 49 0 34 -4 41 -25 46 -27 7 -55 -10 -55 -32 0 -8 -5 -14 -10
-14 -6 0 -4 13 5 30 16 31 26 34 105 30 28 -1 43 7 78 39 24 23 48 41 53 41 5
0 9 -22 9 -50z"/>
<path fill="#ffffff" stroke="none" d="M40 175 c-7 -9 -15 -13 -17 -11 -6 6
20 36 26 30 2 -2 -2 -10 -9 -19z"/>
<path fill="#ffffff" stroke="none" d="M80 196 c0 -3 -4 -8 -10 -11 -5 -3 -10
-1 -10 4 0 6 5 11 10 11 6 0 10 -2 10 -4z"/>
<path fill="#ffffff" stroke="none" d="M200 165 c-12 -15 -40 -21 -40 -9 0 3
10 14 23 24 24 20 37 9 17 -15z"/>
<path fill="#ffffff" stroke="none" d="M110 171 c0 -5 -13 -11 -29 -14 -18 -4
-36 -17 -46 -34 -15 -27 -15 -27 -9 -3 4 14 7 26 8 26 5 5 63 33 69 34 4 0 7
-4 7 -9z"/>
<path fill="#ffffff" stroke="none" d="M127 82 c4 -18 1 -29 -12 -39 -24 -16
-27 -16 -51 2 -18 15 -18 15 11 13 24 -3 31 1 33 20 2 12 -1 22 -7 22 -6 0 -8
-6 -5 -14 3 -8 1 -17 -5 -21 -12 -7 -16 37 -5 48 12 11 34 -6 41 -31z"/>
<path fill="#ffffff" stroke="none" d="M53 23 c-7 -2 -19 -2 -25 0 -7 3 -2 5
12 5 14 0 19 -2 13 -5z"/>
<path fill="#000000" stroke="none" d="M267 193 c-11 -10 -8 -25 3 -18 15 9
12 -11 -3 -24 -10 -8 -17 -7 -26 2 -11 10 -13 9 -9 -3 3 -8 16 -15 29 -15 20
0 25 6 27 33 3 30 -6 41 -21 25z"/>
<path fill="#000000" stroke="none" d="M254 75 c-8 -21 11 -42 21 -24 6 8 4
10 -5 4 -8 -5 -11 -3 -8 5 2 8 10 16 17 18 24 8 7 -42 -19 -55 -23 -12 -23
-13 -4 -13 28 0 46 23 42 52 -4 27 -35 37 -44 13z"/>
</g>
</svg>
