<?xml version="1.0" standalone="no"?>
<!DOCTYPE svg PUBLIC "-//W3C//DTD SVG 20010904//EN"
 "http://www.w3.org/TR/2001/REC-SVG-20010904/DTD/svg10.dtd">
<svg version="1.0" xmlns="http://www.w3.org/2000/svg"
 width="32.000000pt" height="32.000000pt" viewBox="0 0 32.000000 32.000000"
 preserveAspectRatio="xMidYMid meet">
<metadata>
Created by potrace 1.16, written by Peter Selinger 2001-2019
</metadata>
<g transform="translate(0.000000,32.000000) scale(0.100000,-0.100000)"
fill="#000000" stroke="none">
<path fill="#000000" stroke="none" d="M0 160 l0 -160 160 0 160 0 0 160 0
160 -160 0 -160 0 0 -160z"/>
<path fill="#ffffff" stroke="none" d="M168 293 l-137 -4 -4 -137 -3 -137 -2
143 -2 142 143 -2 142 -2 -137 -3z"/>
<path fill="#ffffff" stroke="none" d="M80 250 c0 -5 -4 -10 -10 -10 -5 0 -10
5 -10 10 0 6 5 10 10 10 6 0 10 -4 10 -10z"/>
<path fill="#ffffff" stroke="none" d="M130 230 c0 -22 -5 -30 -17 -29 -11 0
-13 3 -6 6 8 3 11 14 7 29 -4 15 -2 24 5 24 6 0 11 -13 11 -30z"/>
<path fill="#ffffff" stroke="none" d="M202 238 c-7 -7 -12 -8 -12 -2 0 6 3
14 7 17 3 4 9 5 12 2 2 -3 -1 -11 -7 -17z"/>
<path fill="#ffffff" stroke="none" d="M60 204 c0 -8 -4 -14 -10 -14 -5 0 -10
9 -10 21 0 11 5 17 10 14 6 -3 10 -13 10 -21z"/>
<path fill="#ffffff" stroke="none" d="M200 209 c0 -5 -11 -9 -25 -9 -14 0
-25 6 -25 14 0 9 8 12 25 8 14 -2 25 -8 25 -13z"/>
<path fill="#ffffff" stroke="none" d="M97 168 c-3 -8 -6 -5 -6 6 -1 11 2 17
5 13 3 -3 4 -12 1 -19z"/>
<path fill="#ffffff" stroke="none" d="M130 178 c0 7 12 11 28 11 23 -2 24 -2
4 -6 -12 -2 -20 -8 -18 -12 3 -4 -4 -8 -15 -8 -12 -1 -19 5 -19 15 0 15 2 15
10 2 6 -10 10 -11 10 -2z"/>
<path fill="#ffffff" stroke="none" d="M220 186 c0 -2 -7 -9 -15 -16 -12 -10
-15 -10 -15 4 0 9 7 16 15 16 8 0 15 -2 15 -4z"/>
<path fill="#ffffff" stroke="none" d="M90 141 c0 -12 -20 -25 -27 -18 -7 7 6
27 18 27 5 0 9 -4 9 -9z"/>
<path fill="#ffffff" stroke="none" d="M183 143 c-7 -2 -19 -2 -25 0 -7 3 -2
5 12 5 14 0 19 -2 13 -5z"/>
<path fill="#ffffff" stroke="none" d="M238 105 c2 -14 0 -16 -6 -7 -5 7 -16
10 -25 6 -12 -4 -17 -1 -17 11 0 24 44 15 48 -10z"/>
<path fill="#ffffff" stroke="none" d="M145 99 c0 -7 -8 -15 -17 -17 -18 -3
-25 18 -11 32 10 10 28 1 28 -15z"/>
<path fill="#ffffff" stroke="none" d="M74 84 c3 -8 2 -12 -4 -9 -6 3 -10 10
-10 16 0 14 7 11 14 -7z"/>
</g>
</svg>
