<?xml version="1.0" standalone="no"?>
<!DOCTYPE svg PUBLIC "-//W3C//DTD SVG 20010904//EN"
 "http://www.w3.org/TR/2001/REC-SVG-20010904/DTD/svg10.dtd">
<svg version="1.0" xmlns="http://www.w3.org/2000/svg"
 width="32.000000pt" height="32.000000pt" viewBox="0 0 32.000000 32.000000"
 preserveAspectRatio="xMidYMid meet">
<metadata>
Created by potrace 1.16, written by Peter Selinger 2001-2019
</metadata>
<g transform="translate(0.000000,32.000000) scale(0.100000,-0.100000)"
fill="#000000" stroke="none">
<path fill="#000000" stroke="none" d="M0 160 l0 -160 160 0 160 0 0 160 0
160 -160 0 -160 0 0 -160z"/>
<path fill="#ffffff" stroke="none" d="M300 160 l0 -140 -140 0 -140 0 0 140
0 140 140 0 140 0 0 -140z"/>
<path fill="#000000" stroke="none" d="M30 159 l0 -130 48 3 47 3 0 42 c0 23
3 45 8 49 11 11 8 44 -4 44 -6 0 -9 -8 -6 -19 3 -14 0 -17 -14 -14 -21 6 -25
28 -9 38 8 5 7 12 -2 23 -11 15 -11 15 2 5 22 -17 45 5 45 42 0 20 5 30 15 30
10 0 15 -10 15 -30 0 -16 7 -37 15 -46 14 -15 16 -15 28 -1 6 9 12 11 12 5 0
-7 -5 -15 -10 -18 -16 -10 -1 -25 18 -18 15 6 15 5 -2 -12 -17 -18 -19 -18
-31 -2 -7 9 -14 17 -17 17 -5 0 -3 -42 2 -47 1 -2 3 -22 4 -45 l1 -43 48 -3
47 -3 0 130 0 131 -130 0 -130 0 0 -131z"/>
</g>
</svg>
