<?xml version="1.0" standalone="no"?>
<!DOCTYPE svg PUBLIC "-//W3C//DTD SVG 20010904//EN"
 "http://www.w3.org/TR/2001/REC-SVG-20010904/DTD/svg10.dtd">
<svg version="1.0" xmlns="http://www.w3.org/2000/svg"
 width="32.000000pt" height="32.000000pt" viewBox="0 0 32.000000 32.000000"
 preserveAspectRatio="xMidYMid meet">
<metadata>
Created by potrace 1.16, written by Peter Selinger 2001-2019
</metadata>
<g transform="translate(0.000000,32.000000) scale(0.100000,-0.100000)"
fill="#000000" stroke="none">
<path fill="#000000" stroke="none" d="M20 160 l0 -140 140 0 140 0 0 140 0
140 -140 0 -140 0 0 -140z"/>
<path fill="#ffffff" stroke="none" d="M214 277 c-28 -16 -78 -50 -84 -57 -3
-3 -26 -18 -52 -33 l-48 -28 0 66 0 65 103 0 c86 0 99 -2 81 -13z"/>
<path fill="#ffffff" stroke="none" d="M250 241 c0 -8 -18 -33 -107 -148 -41
-53 -53 -62 -80 -63 -26 0 -33 4 -33 19 0 36 13 52 94 116 44 36 86 69 91 74
13 12 35 14 35 2z"/>
<path fill="#ffffff" stroke="none" d="M290 125 l0 -95 -70 0 c-38 0 -70 2
-70 5 0 3 15 21 33 40 44 46 59 65 52 65 -3 0 4 18 15 40 11 22 25 40 30 40 6
0 10 -40 10 -95z"/>
</g>
</svg>
