<?xml version="1.0" standalone="no"?>
<!DOCTYPE svg PUBLIC "-//W3C//DTD SVG 20010904//EN"
 "http://www.w3.org/TR/2001/REC-SVG-20010904/DTD/svg10.dtd">
<svg version="1.0" xmlns="http://www.w3.org/2000/svg"
 width="32.000000pt" height="32.000000pt" viewBox="0 0 32.000000 32.000000"
 preserveAspectRatio="xMidYMid meet">
<metadata>
Created by potrace 1.16, written by Peter Selinger 2001-2019
</metadata>
<g transform="translate(0.000000,32.000000) scale(0.100000,-0.100000)"
fill="#000000" stroke="none">
<path fill="#000000" stroke="none" d="M0 160 l0 -160 160 0 160 0 0 160 0
160 -160 0 -160 0 0 -160z"/>
<path fill="#ffffff" stroke="none" d="M168 293 l-138 -4 0 -128 c0 -94 3
-131 13 -134 7 -3 5 -6 -5 -6 -16 -1 -18 12 -18 139 l0 140 143 -2 142 -2
-137 -3z"/>
<path fill="#ffffff" stroke="none" d="M173 236 c-2 -26 2 -36 12 -36 8 0 15
-7 15 -16 0 -11 -5 -14 -16 -10 -12 5 -15 0 -12 -22 2 -15 10 -30 18 -34 8 -4
-5 -7 -29 -7 -35 -1 -41 1 -32 13 6 7 10 25 9 40 -2 23 -4 24 -17 11 -12 -12
-12 -16 0 -32 12 -16 12 -17 -2 -6 -9 7 -19 10 -22 6 -4 -3 -7 1 -7 10 0 9 5
19 10 22 8 5 7 12 -2 23 -10 14 -10 15 2 5 21 -19 52 2 44 32 -7 28 3 48 19
42 7 -2 11 -20 10 -41z"/>
<path fill="#ffffff" stroke="none" d="M221 187 c-10 -9 -11 -8 -5 6 3 10 9
15 12 12 3 -3 0 -11 -7 -18z"/>
<path fill="#ffffff" stroke="none" d="M215 160 c3 -5 1 -10 -4 -10 -6 0 -11
5 -11 10 0 6 2 10 4 10 3 0 8 -4 11 -10z"/>
<path fill="#ffffff" stroke="none" d="M183 93 c-13 -2 -33 -2 -45 0 -13 2 -3
4 22 4 25 0 35 -2 23 -4z"/>
<path fill="#ffffff" stroke="none" d="M183 73 c-13 -2 -33 -2 -45 0 -13 2 -3
4 22 4 25 0 35 -2 23 -4z"/>
<path fill="#ffffff" stroke="none" d="M197 42 c1 -10 -5 -19 -13 -19 -8 0
-14 7 -14 16 0 13 -2 14 -9 2 -5 -8 -19 -15 -30 -16 -15 -1 -18 2 -11 10 5 7
7 15 3 18 -3 4 11 7 33 7 31 0 40 -4 41 -18z"/>
</g>
</svg>
