<?xml version="1.0" standalone="no"?>
<!DOCTYPE svg PUBLIC "-//W3C//DTD SVG 20010904//EN"
 "http://www.w3.org/TR/2001/REC-SVG-20010904/DTD/svg10.dtd">
<svg version="1.0" xmlns="http://www.w3.org/2000/svg"
 width="32.000000pt" height="32.000000pt" viewBox="0 0 32.000000 32.000000"
 preserveAspectRatio="xMidYMid meet">
<metadata>
Created by potrace 1.16, written by Peter Selinger 2001-2019
</metadata>
<g transform="translate(0.000000,32.000000) scale(0.100000,-0.100000)"
fill="#000000" stroke="none">
<path fill="#000000" stroke="none" d="M0 160 l0 -160 160 0 160 0 0 160 0
160 -160 0 -160 0 0 -160z"/>
<path fill="#ffffff" stroke="none" d="M236 293 c-66 -4 -68 -5 -63 -28 2 -15
-1 -25 -7 -25 -6 0 -3 -7 7 -15 11 -7 26 -11 35 -7 16 5 16 5 1 -11 -25 -24
-86 -9 -75 19 3 7 0 16 -6 20 -7 4 -8 3 -4 -4 9 -15 -31 -35 -52 -27 -15 6
-15 8 2 20 10 8 23 12 29 8 6 -3 7 -1 3 5 -3 6 4 18 16 26 22 15 20 16 -35 16
l-57 0 0 -129 c0 -94 3 -131 13 -134 7 -3 5 -6 -5 -6 -16 -1 -18 12 -18 139
l0 140 143 -2 c78 -1 111 -4 73 -5z"/>
<path fill="#ffffff" stroke="none" d="M234 263 c10 -24 -8 -37 -34 -23 -17 9
-19 14 -9 26 15 19 35 18 43 -3z"/>
<path fill="#ffffff" stroke="none" d="M256 205 c-3 -8 2 -19 10 -26 18 -15 4
-32 -20 -23 -13 5 -14 9 -5 20 11 13 6 18 -14 15 -4 -1 -3 8 3 19 12 22 35 17
26 -5z"/>
<path fill="#ffffff" stroke="none" d="M76 184 c18 -14 18 -14 -6 -3 -31 14
-36 19 -24 19 6 0 19 -7 30 -16z"/>
<path fill="#ffffff" stroke="none" d="M208 143 c18 -17 2 -16 -22 2 -10 8
-23 12 -29 8 -6 -3 -7 -1 -3 5 7 12 34 5 54 -15z"/>
<path fill="#ffffff" stroke="none" d="M106 148 c4 -6 3 -8 -4 -4 -6 3 -13 2
-17 -4 -3 -5 0 -10 7 -10 10 0 9 -3 -2 -9 -21 -14 -32 -3 -20 20 12 22 25 24
36 7z"/>
<path fill="#ffffff" stroke="none" d="M258 115 c-3 -3 -9 2 -12 12 -6 14 -5
15 5 6 7 -7 10 -15 7 -18z"/>
<path fill="#ffffff" stroke="none" d="M250 55 c0 -9 -39 11 -40 20 -1 6 -6
18 -11 28 -8 14 -14 15 -30 6 -20 -10 -20 -11 -2 -24 10 -7 15 -17 10 -21 -4
-4 -7 -2 -7 4 0 7 -6 12 -14 12 -8 0 -17 7 -20 16 -8 22 -8 26 4 19 5 -3 18
-2 27 4 15 8 24 3 51 -25 17 -19 32 -37 32 -39z"/>
<path fill="#ffffff" stroke="none" d="M128 93 c2 -7 -1 -13 -8 -13 -6 0 -8 5
-4 12 4 7 3 8 -4 4 -9 -5 -9 -13 -2 -26 5 -10 10 -27 10 -37 0 -15 -2 -15 -15
4 -19 27 -16 75 4 71 8 -2 16 -9 19 -15z"/>
</g>
</svg>
