<?xml version="1.0" standalone="no"?>
<!DOCTYPE svg PUBLIC "-//W3C//DTD SVG 20010904//EN"
 "http://www.w3.org/TR/2001/REC-SVG-20010904/DTD/svg10.dtd">
<svg version="1.0" xmlns="http://www.w3.org/2000/svg"
 width="32.000000pt" height="32.000000pt" viewBox="0 0 32.000000 32.000000"
 preserveAspectRatio="xMidYMid meet">
<metadata>
Created by potrace 1.16, written by Peter Selinger 2001-2019
</metadata>
<g transform="translate(0.000000,32.000000) scale(0.100000,-0.100000)"
fill="#000000" stroke="none">
<path fill="#000000" stroke="none" d="M0 160 l0 -160 160 0 160 0 0 160 0
160 -160 0 -160 0 0 -160z"/>
<path fill="#ffffff" stroke="none" d="M168 293 l-137 -4 -4 -137 -3 -137 -2
143 -2 142 143 -2 142 -2 -137 -3z"/>
<path fill="#ffffff" stroke="none" d="M272 248 c-8 -8 -9 -4 -5 13 4 13 8 18
11 10 2 -7 -1 -18 -6 -23z"/>
<path fill="#ffffff" stroke="none" d="M100 245 c-7 -8 -22 -15 -34 -14 l-21
0 21 9 c12 5 25 14 29 20 4 6 9 9 12 6 3 -3 0 -12 -7 -21z"/>
<path fill="#ffffff" stroke="none" d="M150 260 c0 -5 -7 -10 -15 -10 -8 0
-15 5 -15 10 0 6 7 10 15 10 8 0 15 -4 15 -10z"/>
<path fill="#ffffff" stroke="none" d="M182 223 c16 -20 38 -15 48 11 5 13 14
27 20 31 16 10 -15 -48 -34 -64 -9 -8 -16 -10 -16 -6 0 4 -7 2 -15 -5 -12 -10
-15 -10 -15 3 0 8 -2 27 -4 43 -2 16 -1 22 1 14 3 -8 10 -21 15 -27z"/>
<path fill="#ffffff" stroke="none" d="M150 220 c0 -5 -7 -10 -15 -10 -8 0
-15 5 -15 10 0 6 7 10 15 10 8 0 15 -4 15 -10z"/>
<path fill="#ffffff" stroke="none" d="M83 201 c16 -6 17 -9 5 -18 -11 -9 -16
-8 -26 8 -13 20 -9 22 21 10z"/>
<path fill="#ffffff" stroke="none" d="M274 133 c-30 -22 -49 -15 -21 8 15 11
26 23 26 27 -3 21 4 23 8 3 3 -16 -1 -29 -13 -38z"/>
<path fill="#ffffff" stroke="none" d="M110 151 c0 -11 -61 -43 -68 -36 -3 3
0 5 6 5 6 0 14 9 17 20 6 20 45 29 45 11z"/>
<path fill="#ffffff" stroke="none" d="M160 60 c43 0 74 6 90 16 l25 16 -24
-21 c-19 -17 -37 -21 -91 -21 -54 0 -72 4 -91 21 l-24 21 25 -16 c16 -10 47
-16 90 -16z"/>
</g>
</svg>
