<?xml version="1.0" standalone="no"?>
<!DOCTYPE svg PUBLIC "-//W3C//DTD SVG 20010904//EN"
 "http://www.w3.org/TR/2001/REC-SVG-20010904/DTD/svg10.dtd">
<svg version="1.0" xmlns="http://www.w3.org/2000/svg"
 width="32.000000pt" height="32.000000pt" viewBox="0 0 32.000000 32.000000"
 preserveAspectRatio="xMidYMid meet">
<metadata>
Created by potrace 1.16, written by Peter Selinger 2001-2019
</metadata>
<g transform="translate(0.000000,32.000000) scale(0.100000,-0.100000)"
fill="#000000" stroke="none">
<path fill="#000000" stroke="none" d="M0 160 l0 -160 160 0 160 0 0 160 0
161 -67 -3 c-50 -2 -67 -7 -65 -16 1 -8 -2 -11 -8 -7 -6 3 -8 11 -5 16 4 5 -3
9 -15 9 -12 0 -19 -4 -15 -9 3 -5 1 -13 -5 -16 -6 -4 -9 -1 -8 7 2 9 -15 14
-64 16 l-68 3 0 -161z"/>
</g>
</svg>
