<?xml version="1.0" standalone="no"?>
<!DOCTYPE svg PUBLIC "-//W3C//DTD SVG 20010904//EN"
 "http://www.w3.org/TR/2001/REC-SVG-20010904/DTD/svg10.dtd">
<svg version="1.0" xmlns="http://www.w3.org/2000/svg"
 width="32.000000pt" height="32.000000pt" viewBox="0 0 32.000000 32.000000"
 preserveAspectRatio="xMidYMid meet">
<metadata>
Created by potrace 1.16, written by Peter Selinger 2001-2019
</metadata>
<g transform="translate(0.000000,32.000000) scale(0.100000,-0.100000)"
fill="#000000" stroke="none">
<path fill="#000000" stroke="none" d="M0 160 l0 -160 160 0 160 0 0 160 0
160 -72 0 c-69 -1 -72 -2 -53 -17 20 -15 20 -15 -4 -10 -18 4 -21 3 -12 -6 6
-6 11 -17 11 -25 0 -12 -3 -12 -15 -2 -12 10 -18 10 -30 0 -21 -17 -20 3 1 35
l16 25 -81 0 -81 0 0 -160z"/>
</g>
</svg>
