<?xml version="1.0" standalone="no"?>
<!DOCTYPE svg PUBLIC "-//W3C//DTD SVG 20010904//EN"
 "http://www.w3.org/TR/2001/REC-SVG-20010904/DTD/svg10.dtd">
<svg version="1.0" xmlns="http://www.w3.org/2000/svg"
 width="32.000000pt" height="32.000000pt" viewBox="0 0 32.000000 32.000000"
 preserveAspectRatio="xMidYMid meet">
<metadata>
Created by potrace 1.16, written by Peter Selinger 2001-2019
</metadata>
<g transform="translate(0.000000,32.000000) scale(0.100000,-0.100000)"
fill="#000000" stroke="none">
<path fill="#000000" stroke="none" d="M155 310 c-3 -5 -3 -10 2 -10 4 0 19
-3 33 -6 24 -6 25 -6 5 9 -24 19 -32 21 -40 7z"/>
<path fill="#000000" stroke="none" d="M137 284 c-4 -4 -7 -14 -7 -22 0 -12 3
-12 15 -2 12 10 18 10 31 -1 14 -12 16 -11 13 6 -4 20 -38 32 -52 19z"/>
</g>
</svg>
