<?xml version="1.0" standalone="no"?>
<!DOCTYPE svg PUBLIC "-//W3C//DTD SVG 20010904//EN"
 "http://www.w3.org/TR/2001/REC-SVG-20010904/DTD/svg10.dtd">
<svg version="1.0" xmlns="http://www.w3.org/2000/svg"
 width="32.000000pt" height="32.000000pt" viewBox="0 0 32.000000 32.000000"
 preserveAspectRatio="xMidYMid meet">
<metadata>
Created by potrace 1.16, written by Peter Selinger 2001-2019
</metadata>
<g transform="translate(0.000000,32.000000) scale(0.100000,-0.100000)"
fill="#000000" stroke="none">
<path fill="#000000" stroke="none" d="M0 160 l0 -160 160 0 160 0 0 160 0
160 -160 0 -160 0 0 -160z"/>
<path fill="#ffffff" stroke="none" d="M191 263 c7 -18 7 -34 0 -48 -8 -17
-10 -17 -10 -2 -1 28 -2 32 -13 44 -12 14 -29 8 -27 -10 1 -7 1 -21 0 -32 -2
-19 -2 -19 -12 -2 -6 10 -7 26 -3 35 7 16 9 23 13 37 0 3 10 5 21 5 13 0 24
-10 31 -27z"/>
</g>
</svg>
