<?xml version="1.0" standalone="no"?>
<!DOCTYPE svg PUBLIC "-//W3C//DTD SVG 20010904//EN"
 "http://www.w3.org/TR/2001/REC-SVG-20010904/DTD/svg10.dtd">
<svg version="1.0" xmlns="http://www.w3.org/2000/svg"
 width="32.000000pt" height="32.000000pt" viewBox="0 0 32.000000 32.000000"
 preserveAspectRatio="xMidYMid meet">
<metadata>
Created by potrace 1.16, written by Peter Selinger 2001-2019
</metadata>
<g transform="translate(0.000000,32.000000) scale(0.100000,-0.100000)"
fill="#000000" stroke="none">
<path fill="#000000" stroke="none" d="M0 160 l0 -160 160 0 160 0 0 160 0
160 -72 0 c-51 0 -68 -3 -58 -10 9 -6 10 -10 3 -10 -6 0 -14 4 -18 10 -4 6
-15 6 -31 0 -17 -7 -23 -7 -19 0 4 6 -18 10 -59 10 l-66 0 0 -160z"/>
<path fill="#ffffff" stroke="none" d="M162 283 c-12 -2 -20 -9 -17 -14 4 -5
1 -9 -4 -9 -12 0 -14 13 -4 23 3 4 16 6 27 6 19 -2 19 -2 -2 -6z"/>
</g>
</svg>
