<?xml version="1.0" standalone="no"?>
<!DOCTYPE svg PUBLIC "-//W3C//DTD SVG 20010904//EN"
 "http://www.w3.org/TR/2001/REC-SVG-20010904/DTD/svg10.dtd">
<svg version="1.0" xmlns="http://www.w3.org/2000/svg"
 width="32.000000pt" height="32.000000pt" viewBox="0 0 32.000000 32.000000"
 preserveAspectRatio="xMidYMid meet">
<metadata>
Created by potrace 1.16, written by Peter Selinger 2001-2019
</metadata>
<g transform="translate(0.000000,32.000000) scale(0.100000,-0.100000)"
fill="#000000" stroke="none">
<path fill="#000000" stroke="none" d="M30 160 l0 -130 130 0 130 0 0 130 0
130 -130 0 -130 0 0 -130z"/>
<path fill="#ffffff" stroke="none" d="M194 253 c3 -7 19 -13 36 -13 20 0 30
-5 30 -15 0 -8 -7 -15 -16 -15 -11 0 -14 -6 -9 -20 5 -15 2 -20 -14 -20 -23 0
-26 -4 -36 -50 -7 -33 -7 -34 11 -20 10 8 15 11 12 5 -3 -6 6 -11 20 -12 25
-1 26 0 7 13 -22 16 -12 19 16 4 30 -17 24 -46 -12 -59 -41 -14 -117 -14 -158
0 -36 13 -42 42 -12 59 28 15 38 12 16 -4 -19 -13 -18 -14 7 -13 14 1 23 6 20
12 -3 6 2 3 12 -5 18 -14 18 -13 11 20 -10 46 -13 50 -36 50 -16 0 -19 5 -14
20 5 14 2 20 -9 20 -9 0 -16 7 -16 15 0 10 10 15 30 15 17 0 33 6 36 13 3 8
18 14 34 14 16 0 31 -6 34 -14z"/>
<path fill="#000000" stroke="none" d="M145 211 c-7 -12 12 -24 25 -16 11 7 4
25 -10 25 -5 0 -11 -4 -15 -9z"/>
<path fill="#000000" stroke="none" d="M103 73 c9 -2 23 -2 30 0 6 3 -1 5 -18
5 -16 0 -22 -2 -12 -5z"/>
<path fill="#000000" stroke="none" d="M193 73 c9 -2 23 -2 30 0 6 3 -1 5 -18
5 -16 0 -22 -2 -12 -5z"/>
</g>
</svg>
