<?xml version="1.0" standalone="no"?>
<!DOCTYPE svg PUBLIC "-//W3C//DTD SVG 20010904//EN"
 "http://www.w3.org/TR/2001/REC-SVG-20010904/DTD/svg10.dtd">
<svg version="1.0" xmlns="http://www.w3.org/2000/svg"
 width="32.000000pt" height="32.000000pt" viewBox="0 0 32.000000 32.000000"
 preserveAspectRatio="xMidYMid meet">
<metadata>
Created by potrace 1.16, written by Peter Selinger 2001-2019
</metadata>
<g transform="translate(0.000000,32.000000) scale(0.100000,-0.100000)"
fill="#000000" stroke="none">
<path fill="#000000" stroke="none" d="M22 163 l2 -138 3 132 4 132 132 4 132
3 -137 2 -138 2 2 -137z"/>
<path fill="#000000" stroke="none" d="M140 200 c-22 -14 -5 -23 19 -10 12 6
26 8 31 5 6 -3 10 -1 10 4 0 13 -40 14 -60 1z"/>
<path fill="#000000" stroke="none" d="M104 168 c-4 -7 -4 -10 1 -6 4 4 15 2
24 -5 14 -11 14 -10 2 6 -16 20 -18 21 -27 5z"/>
<path fill="#000000" stroke="none" d="M150 158 c0 -6 3 -8 7 -5 3 4 12 2 20
-5 11 -8 12 -7 7 6 -7 18 -34 22 -34 4z"/>
</g>
</svg>
