<?xml version="1.0" standalone="no"?>
<!DOCTYPE svg PUBLIC "-//W3C//DTD SVG 20010904//EN"
 "http://www.w3.org/TR/2001/REC-SVG-20010904/DTD/svg10.dtd">
<svg version="1.0" xmlns="http://www.w3.org/2000/svg"
 width="32.000000pt" height="32.000000pt" viewBox="0 0 32.000000 32.000000"
 preserveAspectRatio="xMidYMid meet">
<metadata>
Created by potrace 1.16, written by Peter Selinger 2001-2019
</metadata>
<g transform="translate(0.000000,32.000000) scale(0.100000,-0.100000)"
fill="#000000" stroke="none">
<path fill="#000000" stroke="none" d="M22 158 l2 -143 3 137 4 137 137 4 137
3 -142 2 -143 2 2 -142z"/>
<path fill="#000000" stroke="none" d="M88 225 c-9 -19 -9 -28 0 -37 16 -16
15 -31 0 -22 -10 6 -10 4 0 -7 9 -10 15 -10 24 -1 9 9 9 15 0 24 -17 17 -15
45 6 57 16 10 16 10 -1 11 -9 0 -23 -11 -29 -25z"/>
<path fill="#000000" stroke="none" d="M203 239 c20 -12 22 -40 5 -57 -9 -9
-9 -15 0 -24 9 -9 15 -9 25 1 10 11 10 13 0 7 -16 -9 -17 6 -1 22 16 16 -6 62
-29 62 -17 -1 -17 -1 0 -11z"/>
<path fill="#000000" stroke="none" d="M118 158 c-30 -33 -37 -48 -13 -28 23
19 46 5 43 -26 -2 -15 2 -29 8 -31 7 -2 10 5 7 20 -4 18 2 29 19 41 l23 17
-30 -6 c-16 -4 -25 -3 -20 2 14 11 15 43 1 43 -6 -1 -23 -15 -38 -32z"/>
</g>
</svg>
