<?xml version="1.0" standalone="no"?>
<!DOCTYPE svg PUBLIC "-//W3C//DTD SVG 20010904//EN"
 "http://www.w3.org/TR/2001/REC-SVG-20010904/DTD/svg10.dtd">
<svg version="1.0" xmlns="http://www.w3.org/2000/svg"
 width="32.000000pt" height="32.000000pt" viewBox="0 0 32.000000 32.000000"
 preserveAspectRatio="xMidYMid meet">
<metadata>
Created by potrace 1.16, written by Peter Selinger 2001-2019
</metadata>
<g transform="translate(0.000000,32.000000) scale(0.100000,-0.100000)"
fill="#000000" stroke="none">
<path fill="#000000" stroke="none" d="M0 160 l0 -160 160 0 160 0 0 160 0
160 -160 0 -160 0 0 -160z"/>
<path fill="#ffffff" stroke="none" d="M168 293 l-137 -4 -4 -137 -3 -137 -2
143 -2 142 143 -2 142 -2 -137 -3z"/>
<path fill="#ffffff" stroke="none" d="M175 235 c0 -10 24 -41 53 -69 30 -28
49 -52 43 -54 -15 -5 -72 40 -67 53 2 7 -2 12 -10 12 -8 0 -14 -3 -14 -7 0
-18 24 -77 38 -92 14 -16 13 -18 -5 -18 -14 0 -24 10 -32 30 -5 17 -15 30 -21
30 -6 0 -16 -14 -21 -30 -8 -20 -18 -30 -32 -30 -18 0 -19 2 -5 18 14 15 38
74 38 92 0 4 -6 7 -14 7 -8 0 -12 -5 -10 -12 5 -13 -52 -58 -67 -53 -6 2 14
27 44 55 30 29 52 54 50 57 -3 3 -3 12 1 21 8 22 31 14 31 -10z"/>
</g>
</svg>
