<?xml version="1.0" standalone="no"?>
<!DOCTYPE svg PUBLIC "-//W3C//DTD SVG 20010904//EN"
 "http://www.w3.org/TR/2001/REC-SVG-20010904/DTD/svg10.dtd">
<svg version="1.0" xmlns="http://www.w3.org/2000/svg"
 width="32.000000pt" height="32.000000pt" viewBox="0 0 32.000000 32.000000"
 preserveAspectRatio="xMidYMid meet">
<metadata>
Created by potrace 1.16, written by Peter Selinger 2001-2019
</metadata>
<g transform="translate(0.000000,32.000000) scale(0.100000,-0.100000)"
fill="#000000" stroke="none">
<path fill="#000000" stroke="none" d="M0 160 l0 -160 160 0 160 0 0 160 0
160 -160 0 -160 0 0 -160z"/>
<path fill="#ffffff" stroke="none" d="M66 282 c-2 -4 -1 -14 5 -22 7 -13 9
-12 9 3 0 18 26 24 32 8 5 -16 68 -23 68 -9 0 10 2 10 9 -1 7 -10 13 -11 30
-2 12 7 19 16 16 21 -3 6 0 7 8 4 8 -3 13 -13 10 -23 -2 -9 2 -36 10 -58 13
-37 12 -43 0 -48 -9 -3 -13 -13 -10 -25 6 -24 -16 -59 -27 -42 -11 18 -36 15
-30 -3 4 -10 0 -15 -12 -15 -9 0 -26 -7 -35 -16 -17 -15 -20 -15 -43 -1 -13 9
-27 25 -31 36 -3 11 -15 23 -26 26 -24 8 -24 21 0 42 19 15 19 17 3 29 -15 12
-15 12 4 8 19 -5 21 -2 17 20 -3 14 -9 23 -14 20 -10 -6 -12 39 -2 49 9 10 15
9 9 -1z"/>
</g>
</svg>
