<?xml version="1.0" standalone="no"?>
<!DOCTYPE svg PUBLIC "-//W3C//DTD SVG 20010904//EN"
 "http://www.w3.org/TR/2001/REC-SVG-20010904/DTD/svg10.dtd">
<svg version="1.0" xmlns="http://www.w3.org/2000/svg"
 width="32.000000pt" height="32.000000pt" viewBox="0 0 32.000000 32.000000"
 preserveAspectRatio="xMidYMid meet">
<metadata>
Created by potrace 1.16, written by Peter Selinger 2001-2019
</metadata>
<g transform="translate(0.000000,32.000000) scale(0.100000,-0.100000)"
fill="#000000" stroke="none">
<path fill="#000000" stroke="none" d="M0 160 l0 -160 160 0 160 0 0 160 0
160 -160 0 -160 0 0 -160z"/>
<path fill="#ffffff" stroke="none" d="M300 160 l0 -140 -140 0 -140 0 0 140
0 140 140 0 140 0 0 -140z"/>
<path fill="#000000" stroke="none" d="M30 160 l0 -130 130 0 130 0 0 130 0
130 -130 0 -130 0 0 -130z"/>
<path fill="#ffffff" stroke="none" d="M146 247 c-6 -4 15 -6 47 -4 31 3 57 2
58 -2 1 -3 2 -23 3 -44 0 -21 6 -41 12 -45 9 -5 8 -11 -2 -20 -10 -10 -14 -10
-14 -1 0 16 -13 3 -16 -16 -1 -8 2 -15 7 -15 6 0 4 -6 -3 -14 -9 -9 -15 -10
-20 -3 -4 7 -16 2 -33 -15 l-26 -27 -35 37 c-19 20 -37 45 -40 55 -6 18 -6 18
-20 0 -13 -16 -13 -16 -8 0 4 10 1 17 -6 17 -7 0 -6 6 4 16 17 16 22 36 9 32
-5 -2 -9 2 -10 7 0 6 3 9 8 8 5 -2 8 0 8 5 -4 26 3 32 34 28 17 -3 27 -3 20 0
-10 4 -10 8 -1 18 9 9 15 10 24 2 9 -8 9 -13 0 -19z"/>
</g>
</svg>
