<?xml version="1.0" standalone="no"?>
<!DOCTYPE svg PUBLIC "-//W3C//DTD SVG 20010904//EN"
 "http://www.w3.org/TR/2001/REC-SVG-20010904/DTD/svg10.dtd">
<svg version="1.0" xmlns="http://www.w3.org/2000/svg"
 width="32.000000pt" height="32.000000pt" viewBox="0 0 32.000000 32.000000"
 preserveAspectRatio="xMidYMid meet">
<metadata>
Created by potrace 1.16, written by Peter Selinger 2001-2019
</metadata>
<g transform="translate(0.000000,32.000000) scale(0.100000,-0.100000)"
fill="#000000" stroke="none">
<path fill="#000000" stroke="none" d="M0 160 l0 -160 160 0 160 0 0 160 0
160 -160 0 -160 0 0 -160z"/>
<path fill="#ffffff" stroke="none" d="M300 160 l0 -140 -140 0 -140 0 0 140
0 140 140 0 140 0 0 -140z"/>
<path fill="#000000" stroke="none" d="M30 160 l0 -130 130 0 130 0 0 130 0
130 -130 0 -130 0 0 -130z"/>
<path fill="#ffffff" stroke="none" d="M119 191 c12 -12 26 -21 31 -21 6 0 10
-5 10 -12 0 -6 9 -3 20 7 13 12 18 26 15 39 -5 19 -5 19 5 3 6 -9 8 -22 5 -27
-3 -5 -1 -18 4 -28 7 -13 6 -23 -2 -32 -10 -10 -8 -12 10 -7 19 4 21 2 13 -19
-8 -19 -6 -24 8 -25 21 -2 -56 -20 -83 -20 -26 0 -104 18 -85 20 8 1 23 20 33
43 17 41 17 43 -3 70 -11 15 -20 37 -19 50 l0 23 9 -22 c5 -12 18 -31 29 -42z"/>
<path fill="#ffffff" stroke="none" d="M167 181 c-6 -2 -19 6 -29 19 -28 35
-21 44 11 13 16 -15 24 -30 18 -32z"/>
</g>
</svg>
