<?xml version="1.0" standalone="no"?>
<!DOCTYPE svg PUBLIC "-//W3C//DTD SVG 20010904//EN"
 "http://www.w3.org/TR/2001/REC-SVG-20010904/DTD/svg10.dtd">
<svg version="1.0" xmlns="http://www.w3.org/2000/svg"
 width="32.000000pt" height="32.000000pt" viewBox="0 0 32.000000 32.000000"
 preserveAspectRatio="xMidYMid meet">
<metadata>
Created by potrace 1.16, written by Peter Selinger 2001-2019
</metadata>
<g transform="translate(0.000000,32.000000) scale(0.100000,-0.100000)"
fill="#000000" stroke="none">
<path fill="#000000" stroke="none" d="M20 160 l0 -140 140 0 140 0 0 140 0
140 -140 0 -140 0 0 -140z"/>
<path fill="#ffffff" stroke="none" d="M109 278 c11 -10 14 -10 18 0 3 6 20
12 38 12 18 0 36 -6 39 -12 5 -10 7 -10 12 0 3 6 21 12 40 12 l34 0 0 -130 0
-130 -130 0 -130 0 0 130 0 130 33 0 c18 0 39 -6 46 -12z"/>
<path fill="#000000" stroke="none" d="M176 261 c-4 -5 -2 -12 3 -15 5 -4 12
-2 15 3 4 5 2 12 -3 15 -5 4 -12 2 -15 -3z"/>
<path fill="#000000" stroke="none" d="M69 247 c6 -8 8 -17 5 -20 -3 -3 -3
-11 1 -17 5 -8 15 -5 31 11 22 20 24 47 3 33 -5 -3 -7 -10 -4 -15 3 -5 -1 -6
-9 -3 -9 3 -16 10 -16 15 0 5 -5 9 -11 9 -8 0 -9 -4 0 -13z"/>
<path fill="#000000" stroke="none" d="M205 249 c-10 -15 1 -23 20 -15 9 3 13
10 10 16 -8 13 -22 13 -30 -1z"/>
<path fill="#000000" stroke="none" d="M130 210 c0 -13 -7 -20 -20 -20 -16 0
-20 -7 -20 -30 0 -23 4 -30 20 -30 13 0 20 -7 20 -20 0 -16 7 -20 30 -20 23 0
30 4 30 20 0 13 7 20 20 20 16 0 20 7 20 30 0 17 -4 30 -10 30 -5 0 -10 7 -10
16 0 8 -4 12 -10 9 -5 -3 -10 -1 -10 4 0 6 -13 11 -30 11 -23 0 -30 -4 -30
-20z"/>
</g>
</svg>
