<?xml version="1.0" standalone="no"?>
<!DOCTYPE svg PUBLIC "-//W3C//DTD SVG 20010904//EN"
 "http://www.w3.org/TR/2001/REC-SVG-20010904/DTD/svg10.dtd">
<svg version="1.0" xmlns="http://www.w3.org/2000/svg"
 width="32.000000pt" height="32.000000pt" viewBox="0 0 32.000000 32.000000"
 preserveAspectRatio="xMidYMid meet">
<metadata>
Created by potrace 1.16, written by Peter Selinger 2001-2019
</metadata>
<g transform="translate(0.000000,32.000000) scale(0.100000,-0.100000)"
fill="#000000" stroke="none">
<path fill="#000000" stroke="none" d="M80 260 c-41 -23 -32 -26 13 -6 18 8
41 17 52 19 16 4 15 5 -5 5 -14 1 -41 -7 -60 -18z"/>
<path fill="#000000" stroke="none" d="M140 245 c-16 -19 -1 -19 24 0 16 12
17 15 4 15 -8 0 -21 -7 -28 -15z"/>
<path fill="#000000" stroke="none" d="M175 231 c-4 -7 4 -11 19 -11 l24 0
-30 -30 c-16 -17 -35 -30 -42 -30 -15 0 -46 -32 -46 -46 0 -6 7 -19 16 -30 14
-18 15 -18 4 5 -10 19 -9 22 1 15 23 -14 49 -11 49 4 0 9 8 24 17 34 14 15 15
21 4 27 -9 6 -5 13 16 28 15 11 35 23 43 26 9 3 4 6 -12 6 -14 1 -33 4 -41 7
-8 3 -18 1 -22 -5z"/>
<path fill="#ffffff" stroke="none" d="M190 156 c0 -2 -7 -7 -16 -10 -8 -3
-12 -2 -9 4 6 10 25 14 25 6z"/>
<path fill="#ffffff" stroke="none" d="M150 141 c0 -5 -7 -12 -16 -15 -24 -9
-28 -7 -14 9 14 17 30 20 30 6z"/>
<path fill="#000000" stroke="none" d="M65 50 c-3 -6 1 -7 9 -4 18 7 21 14 7
14 -6 0 -13 -4 -16 -10z"/>
</g>
</svg>
