<?xml version="1.0" standalone="no"?>
<!DOCTYPE svg PUBLIC "-//W3C//DTD SVG 20010904//EN"
 "http://www.w3.org/TR/2001/REC-SVG-20010904/DTD/svg10.dtd">
<svg version="1.0" xmlns="http://www.w3.org/2000/svg"
 width="32.000000pt" height="32.000000pt" viewBox="0 0 32.000000 32.000000"
 preserveAspectRatio="xMidYMid meet">
<metadata>
Created by potrace 1.16, written by Peter Selinger 2001-2019
</metadata>
<g transform="translate(0.000000,32.000000) scale(0.100000,-0.100000)"
fill="#000000" stroke="none">
<path fill="#000000" stroke="none" d="M0 160 l0 -160 160 0 160 0 0 160 0
160 -160 0 -160 0 0 -160z"/>
<path fill="#ffffff" stroke="none" d="M163 293 l-132 -4 -4 -132 -3 -132 -2
138 -2 137 138 -2 137 -2 -132 -3z"/>
<path fill="#ffffff" stroke="none" d="M231 208 c2 -24 -3 -43 -14 -50 -8 -5
-6 -8 6 -8 12 0 17 -8 17 -30 0 -39 -31 -53 -73 -32 -25 12 -31 12 -38 1 -12
-20 -45 3 -41 27 5 26 7 27 31 14 15 -8 21 -8 21 0 0 6 5 8 10 5 6 -3 10 1 10
10 0 12 6 15 20 10 11 -4 20 -2 20 4 0 6 -5 11 -10 11 -13 0 -9 32 5 42 16 12
35 9 36 -4z"/>
</g>
</svg>
