<?xml version="1.0" standalone="no"?>
<!DOCTYPE svg PUBLIC "-//W3C//DTD SVG 20010904//EN"
 "http://www.w3.org/TR/2001/REC-SVG-20010904/DTD/svg10.dtd">
<svg version="1.0" xmlns="http://www.w3.org/2000/svg"
 width="32.000000pt" height="32.000000pt" viewBox="0 0 32.000000 32.000000"
 preserveAspectRatio="xMidYMid meet">
<metadata>
Created by potrace 1.16, written by Peter Selinger 2001-2019
</metadata>
<g transform="translate(0.000000,32.000000) scale(0.100000,-0.100000)"
fill="#000000" stroke="none">
<path fill="#000000" stroke="none" d="M20 160 c0 -127 2 -140 18 -139 10 0
12 3 5 6 -10 3 -13 40 -13 134 l0 128 138 4 137 3 -142 2 -143 2 0 -140z"/>
<path fill="#000000" stroke="none" d="M142 240 c2 -28 -3 -32 -16 -15 -12 16
-16 17 -30 6 -9 -7 -16 -23 -15 -35 0 -20 1 -21 9 -1 6 13 9 15 9 5 1 -13 2
-13 11 0 8 13 10 12 10 -4 0 -14 3 -16 13 -7 10 8 17 7 25 -1 10 -10 17 -10
31 -1 14 9 21 9 30 0 8 -8 11 -6 11 9 0 16 2 17 10 4 9 -13 10 -13 11 0 0 10
3 8 9 -5 8 -20 9 -19 9 1 1 12 -6 28 -15 35 -14 11 -18 10 -30 -6 -13 -17 -18
-13 -16 15 0 3 -15 5 -33 5 -18 0 -33 -2 -33 -5z"/>
<path fill="#000000" stroke="none" d="M135 162 c-12 -8 -16 -44 -5 -37 5 3
11 -1 14 -7 3 -7 5 -4 3 7 -1 11 2 26 6 33 9 13 -2 16 -18 4z"/>
<path fill="#000000" stroke="none" d="M197 159 c16 -16 4 -49 -18 -49 -10 0
-21 -5 -24 -10 -5 -8 -11 -7 -21 1 -9 7 -24 8 -41 3 -16 -4 -31 -7 -34 -6 -3
0 -6 -6 -6 -14 0 -19 36 -28 69 -15 17 6 29 6 36 -1 8 -8 15 -8 26 1 10 9 16
9 21 1 5 -8 10 -8 20 0 9 8 15 8 20 0 3 -5 12 -10 18 -10 7 0 4 5 -5 11 -23
13 -24 44 -2 35 8 -3 12 -2 9 4 -3 6 -17 7 -31 4 -15 -4 -24 -2 -24 6 0 6 4 9
8 6 13 -8 11 28 -2 36 -17 12 -31 9 -19 -3z"/>
<path fill="#ffffff" stroke="none" d="M230 90 c0 -14 -18 -21 -25 -10 -5 8
-11 7 -21 -1 -11 -9 -18 -9 -26 -1 -11 11 -10 13 32 25 18 5 40 -2 40 -13z"/>
<path fill="#ffffff" stroke="none" d="M134 91 c7 -11 -52 -26 -62 -16 -8 8
18 25 40 25 9 0 19 -4 22 -9z"/>
</g>
</svg>
