<?xml version="1.0" standalone="no"?>
<!DOCTYPE svg PUBLIC "-//W3C//DTD SVG 20010904//EN"
 "http://www.w3.org/TR/2001/REC-SVG-20010904/DTD/svg10.dtd">
<svg version="1.0" xmlns="http://www.w3.org/2000/svg"
 width="32.000000pt" height="32.000000pt" viewBox="0 0 32.000000 32.000000"
 preserveAspectRatio="xMidYMid meet">
<metadata>
Created by potrace 1.16, written by Peter Selinger 2001-2019
</metadata>
<g transform="translate(0.000000,32.000000) scale(0.100000,-0.100000)"
fill="#000000" stroke="none">
<path fill="#000000" stroke="none" d="M0 160 l0 -160 160 0 160 0 0 160 0
160 -160 0 -160 0 0 -160z"/>
<path fill="#ffffff" stroke="none" d="M168 293 l-138 -4 0 -128 c0 -94 3
-131 13 -134 7 -3 5 -6 -5 -6 -16 -1 -18 12 -18 139 l0 140 143 -2 142 -2
-137 -3z"/>
<path fill="#ffffff" stroke="none" d="M208 240 c-2 -28 3 -32 16 -15 12 16
16 17 30 6 9 -7 16 -23 15 -35 0 -20 -1 -21 -9 -1 -6 13 -9 15 -9 5 -1 -13 -2
-13 -11 0 -8 13 -10 12 -10 -4 0 -15 -3 -17 -11 -9 -9 9 -16 9 -30 0 -14 -9
-21 -9 -31 1 -8 8 -15 9 -25 1 -10 -9 -13 -7 -13 7 0 16 -2 17 -10 4 -9 -13
-10 -13 -11 0 0 10 -3 8 -9 -5 -8 -20 -9 -19 -9 1 -1 12 6 28 15 35 14 11 18
10 30 -6 13 -17 18 -13 16 15 0 3 15 5 33 5 18 0 33 -2 33 -5z"/>
<path fill="#ffffff" stroke="none" d="M153 158 c-4 -7 -7 -22 -6 -33 2 -11 0
-14 -3 -7 -3 6 -9 10 -14 7 -11 -7 -7 29 5 37 16 12 27 9 18 -4z"/>
<path fill="#ffffff" stroke="none" d="M216 162 c13 -8 15 -44 2 -36 -4 3 -8
0 -8 -6 0 -8 9 -10 24 -6 14 3 28 2 31 -4 3 -6 -1 -7 -9 -4 -22 9 -21 -22 2
-35 9 -6 12 -11 5 -11 -6 0 -15 5 -18 10 -5 8 -11 8 -20 0 -10 -8 -15 -8 -20
0 -5 8 -11 8 -21 -1 -11 -9 -18 -9 -26 -1 -7 7 -19 7 -36 1 -33 -13 -69 -4
-69 15 0 8 3 14 6 14 3 -1 18 2 34 6 17 5 32 4 41 -3 10 -8 16 -9 21 -1 3 5
14 10 24 10 22 0 34 33 18 49 -12 12 2 15 19 3z"/>
<path fill="#000000" stroke="none" d="M190 103 c-42 -12 -43 -14 -32 -25 8
-8 15 -8 26 1 10 8 16 9 21 1 3 -6 11 -8 16 -5 23 15 -1 36 -31 28z"/>
<path fill="#000000" stroke="none" d="M80 90 c-8 -5 -11 -12 -8 -15 10 -10
69 5 62 16 -7 12 -35 11 -54 -1z"/>
</g>
</svg>
