<?xml version="1.0" standalone="no"?>
<!DOCTYPE svg PUBLIC "-//W3C//DTD SVG 20010904//EN"
 "http://www.w3.org/TR/2001/REC-SVG-20010904/DTD/svg10.dtd">
<svg version="1.0" xmlns="http://www.w3.org/2000/svg"
 width="32.000000pt" height="32.000000pt" viewBox="0 0 32.000000 32.000000"
 preserveAspectRatio="xMidYMid meet">
<metadata>
Created by potrace 1.16, written by Peter Selinger 2001-2019
</metadata>
<g transform="translate(0.000000,32.000000) scale(0.100000,-0.100000)"
fill="#000000" stroke="none">
<path fill="#000000" stroke="none" d="M22 158 l2 -143 3 137 4 137 137 4 137
3 -142 2 -143 2 2 -142z"/>
<path fill="#000000" stroke="none" d="M159 249 l-24 -21 25 16 c34 22 53 20
80 -9 22 -23 23 -29 12 -58 -10 -29 -10 -30 3 -13 22 28 18 53 -10 81 -30 30
-55 32 -86 4z"/>
<path fill="#000000" stroke="none" d="M150 176 c-35 -34 -48 -42 -58 -33 -11
9 -13 6 -11 -15 2 -14 -2 -33 -10 -42 -18 -21 -6 -33 15 -15 9 8 28 12 42 10
21 -2 24 0 15 11 -9 10 -1 23 33 58 44 45 55 70 31 70 -7 0 -32 -20 -57 -44z"/>
</g>
</svg>
