<?xml version="1.0" standalone="no"?>
<!DOCTYPE svg PUBLIC "-//W3C//DTD SVG 20010904//EN"
 "http://www.w3.org/TR/2001/REC-SVG-20010904/DTD/svg10.dtd">
<svg version="1.0" xmlns="http://www.w3.org/2000/svg"
 width="32.000000pt" height="32.000000pt" viewBox="0 0 32.000000 32.000000"
 preserveAspectRatio="xMidYMid meet">
<metadata>
Created by potrace 1.16, written by Peter Selinger 2001-2019
</metadata>
<g transform="translate(0.000000,32.000000) scale(0.100000,-0.100000)"
fill="#000000" stroke="none">
<path fill="#000000" stroke="none" d="M0 160 l0 -160 160 0 160 0 0 160 0
160 -160 0 -160 0 0 -160z"/>
<path fill="#ffffff" stroke="none" d="M300 155 l0 -135 -135 0 -135 0 0 135
0 135 135 0 135 0 0 -135z"/>
<path fill="#000000" stroke="none" d="M161 259 c-17 -7 -22 -15 -18 -30 5
-17 1 -20 -21 -17 -18 2 -26 8 -24 18 1 10 -3 9 -14 -5 -8 -11 -20 -19 -25
-17 -6 1 -8 -2 -4 -8 3 -6 11 -8 16 -4 5 3 23 2 40 -1 29 -7 31 -9 25 -43 -3
-20 -15 -49 -26 -64 -19 -26 -19 -28 -2 -28 10 0 22 12 29 30 12 31 33 41 33
15 0 -8 13 -24 30 -36 16 -12 27 -25 25 -28 -2 -4 5 -7 15 -7 16 0 15 3 -7 30
-13 16 -21 32 -16 35 10 8 13 42 3 36 -4 -3 -11 2 -14 11 -9 22 -8 26 6 18 7
-4 8 -3 4 4 -4 7 -4 17 0 23 5 8 9 8 14 -1 5 -8 14 -2 29 18 18 26 19 31 5 36
-8 3 -13 2 -10 -3 3 -5 -1 -11 -9 -15 -8 -3 -15 -1 -15 5 0 6 -7 6 -20 -1 -21
-11 -27 -1 -9 17 15 15 -10 23 -40 12z"/>
</g>
</svg>
