<?xml version="1.0" standalone="no"?>
<!DOCTYPE svg PUBLIC "-//W3C//DTD SVG 20010904//EN"
 "http://www.w3.org/TR/2001/REC-SVG-20010904/DTD/svg10.dtd">
<svg version="1.0" xmlns="http://www.w3.org/2000/svg"
 width="32.000000pt" height="32.000000pt" viewBox="0 0 32.000000 32.000000"
 preserveAspectRatio="xMidYMid meet">
<metadata>
Created by potrace 1.16, written by Peter Selinger 2001-2019
</metadata>
<g transform="translate(0.000000,32.000000) scale(0.100000,-0.100000)"
fill="#000000" stroke="none">
<path fill="#000000" stroke="none" d="M0 160 l0 -160 160 0 160 0 0 160 0
160 -160 0 -160 0 0 -160z"/>
<path fill="#ffffff" stroke="none" d="M168 293 l-137 -4 -4 -137 -3 -137 -2
143 -2 142 143 -2 142 -2 -137 -3z"/>
<path fill="#ffffff" stroke="none" d="M168 240 c7 -12 17 -18 22 -15 6 3 10
-1 10 -9 0 -9 9 -21 20 -28 26 -17 26 -20 -12 -48 l-33 -23 24 26 23 26 -23
-6 c-18 -5 -21 -3 -15 12 5 15 4 16 -9 5 -8 -7 -12 -16 -9 -21 3 -5 -2 -6 -11
-3 -8 4 -23 0 -33 -7 -9 -7 -7 -2 6 13 16 18 20 28 12 33 -6 4 -9 14 -5 23 5
13 2 12 -15 -3 -27 -24 -26 -7 2 22 26 28 30 28 46 3z"/>
<path fill="#ffffff" stroke="none" d="M280 164 c0 -50 -93 -110 -114 -75 -4
5 3 7 14 4 28 -7 94 59 87 87 -3 11 -1 18 4 14 5 -3 9 -17 9 -30z"/>
<path fill="#ffffff" stroke="none" d="M65 90 c-10 -11 -21 -18 -23 -15 -3 3
3 12 14 20 27 20 30 18 9 -5z"/>
</g>
</svg>
