<?xml version="1.0" standalone="no"?>
<!DOCTYPE svg PUBLIC "-//W3C//DTD SVG 20010904//EN"
 "http://www.w3.org/TR/2001/REC-SVG-20010904/DTD/svg10.dtd">
<svg version="1.0" xmlns="http://www.w3.org/2000/svg"
 width="32.000000pt" height="32.000000pt" viewBox="0 0 32.000000 32.000000"
 preserveAspectRatio="xMidYMid meet">
<metadata>
Created by potrace 1.16, written by Peter Selinger 2001-2019
</metadata>
<g transform="translate(0.000000,32.000000) scale(0.100000,-0.100000)"
fill="#000000" stroke="none">
<path fill="#000000" stroke="none" d="M22 158 l2 -143 3 137 4 137 137 4 137
3 -142 2 -143 2 2 -142z"/>
<path fill="#000000" stroke="none" d="M122 237 c-28 -29 -29 -46 -2 -22 17
15 20 16 15 3 -4 -9 -2 -19 4 -22 6 -4 8 -13 5 -20 -3 -7 2 -16 11 -20 9 -3
14 -2 11 3 -3 5 1 14 9 21 13 11 14 10 9 -5 -6 -15 -3 -17 15 -12 l23 6 -23
-26 -24 -26 33 23 c17 13 32 25 32 26 0 3 -91 94 -94 94 -1 0 -12 -10 -24 -23z"/>
<path fill="#000000" stroke="none" d="M241 125 c-28 -39 -30 -45 -12 -36 25
14 54 56 49 71 -2 7 -19 -10 -37 -35z"/>
</g>
</svg>
