<?xml version="1.0" standalone="no"?>
<!DOCTYPE svg PUBLIC "-//W3C//DTD SVG 20010904//EN"
 "http://www.w3.org/TR/2001/REC-SVG-20010904/DTD/svg10.dtd">
<svg version="1.0" xmlns="http://www.w3.org/2000/svg"
 width="32.000000pt" height="32.000000pt" viewBox="0 0 32.000000 32.000000"
 preserveAspectRatio="xMidYMid meet">
<metadata>
Created by potrace 1.16, written by Peter Selinger 2001-2019
</metadata>
<g transform="translate(0.000000,32.000000) scale(0.100000,-0.100000)"
fill="#000000" stroke="none">
<path fill="#000000" stroke="none" d="M20 160 l0 -140 140 0 140 0 0 140 0
140 -140 0 -140 0 0 -140z"/>
<path fill="#ffffff" stroke="none" d="M86 274 c-3 -9 -6 -22 -6 -30 0 -10 -5
-12 -12 -8 -10 6 -10 4 -2 -7 11 -16 12 -29 2 -44 -4 -6 -3 -17 3 -25 7 -12 9
-10 9 7 0 12 5 25 10 28 8 5 8 11 0 20 -11 14 1 14 97 -1 49 -8 64 10 45 52
-11 23 -10 24 23 24 l35 0 0 -130 0 -130 -35 0 c-31 0 -35 3 -35 25 0 16 -4
23 -13 19 -18 -7 -41 22 -33 42 4 11 13 14 27 11 19 -5 21 -2 17 29 -2 18 1
35 7 37 5 2 -16 7 -48 11 -32 4 -61 5 -64 2 -3 -3 5 -14 18 -25 21 -17 22 -22
11 -45 -7 -16 -19 -27 -30 -25 -30 3 -35 -1 -22 -15 6 -8 17 -13 24 -10 17 6
40 -22 33 -40 -4 -9 -24 -14 -61 -15 l-56 -1 0 130 0 130 31 0 c24 0 30 -3 25
-16z"/>
<path fill="#000000" stroke="none" d="M240 185 c0 -8 5 -15 10 -15 6 0 10 7
10 15 0 8 -4 15 -10 15 -5 0 -10 -7 -10 -15z"/>
<path fill="#000000" stroke="none" d="M90 166 c0 -25 12 -46 25 -46 16 0 26
25 19 45 -8 19 -44 20 -44 1z"/>
<path fill="#000000" stroke="none" d="M239 150 c-1 -8 -1 -20 0 -27 1 -7 -9
-10 -29 -7 -22 4 -30 1 -30 -10 0 -23 22 -31 35 -13 7 9 15 14 18 11 3 -3 11
4 17 16 9 16 9 25 1 33 -8 8 -11 7 -12 -3z"/>
<path fill="#000000" stroke="none" d="M80 64 c0 -8 5 -12 10 -9 6 4 8 11 5
16 -9 14 -15 11 -15 -7z"/>
<path fill="#000000" stroke="none" d="M110 61 c0 -12 6 -21 16 -21 9 0 14 7
12 17 -5 25 -28 28 -28 4z"/>
</g>
</svg>
