<?xml version="1.0" standalone="no"?>
<!DOCTYPE svg PUBLIC "-//W3C//DTD SVG 20010904//EN"
 "http://www.w3.org/TR/2001/REC-SVG-20010904/DTD/svg10.dtd">
<svg version="1.0" xmlns="http://www.w3.org/2000/svg"
 width="32.000000pt" height="32.000000pt" viewBox="0 0 32.000000 32.000000"
 preserveAspectRatio="xMidYMid meet">
<metadata>
Created by potrace 1.16, written by Peter Selinger 2001-2019
</metadata>
<g transform="translate(0.000000,32.000000) scale(0.100000,-0.100000)"
fill="#000000" stroke="none">
<path fill="#000000" stroke="none" d="M81 163 c-49 -26 -60 -47 -37 -72 10
-11 34 -25 53 -32 39 -12 92 -4 76 12 -7 7 -17 7 -30 -2 -17 -10 -27 -9 -59 7
-50 25 -52 53 -4 76 67 34 179 14 200 -34 7 -17 9 -18 7 -4 -7 55 -137 86
-206 49z"/>
</g>
</svg>
