<?xml version="1.0" standalone="no"?>
<!DOCTYPE svg PUBLIC "-//W3C//DTD SVG 20010904//EN"
 "http://www.w3.org/TR/2001/REC-SVG-20010904/DTD/svg10.dtd">
<svg version="1.0" xmlns="http://www.w3.org/2000/svg"
 width="32.000000pt" height="32.000000pt" viewBox="0 0 32.000000 32.000000"
 preserveAspectRatio="xMidYMid meet">
<metadata>
Created by potrace 1.16, written by Peter Selinger 2001-2019
</metadata>
<g transform="translate(0.000000,32.000000) scale(0.100000,-0.100000)"
fill="#000000" stroke="none">
<path fill="#000000" stroke="none" d="M0 160 l0 -160 160 0 160 0 0 160 0
160 -160 0 -160 0 0 -160z"/>
<path fill="#ffffff" stroke="none" d="M300 160 l0 -140 -140 0 -140 0 0 140
0 140 140 0 140 0 0 -140z"/>
<path fill="#000000" stroke="none" d="M30 160 l0 -130 130 0 130 0 0 130 0
130 -130 0 -130 0 0 -130z"/>
<path fill="#ffffff" stroke="none" d="M187 274 c13 -4 20 -10 17 -15 -3 -5 1
-9 8 -9 9 0 9 -3 -2 -10 -12 -8 -12 -10 5 -10 17 0 17 -2 5 -10 -12 -8 -10
-10 10 -10 14 0 21 -4 15 -8 -5 -4 -11 -11 -12 -17 -1 -5 -5 -18 -8 -27 -5
-12 -2 -18 6 -18 11 0 11 -3 -1 -10 -12 -8 -12 -10 5 -10 15 0 17 -2 6 -9 -11
-7 -10 -11 5 -20 11 -6 15 -11 10 -11 -6 0 -23 12 -39 27 -23 23 -27 24 -21 8
4 -11 14 -28 22 -37 14 -16 13 -18 -5 -18 -14 0 -24 10 -32 30 -5 17 -15 30
-21 30 -6 0 -16 -13 -21 -30 -8 -20 -18 -30 -32 -30 -18 0 -19 2 -5 18 8 9 18
26 22 37 6 16 2 15 -21 -8 -16 -15 -33 -27 -39 -27 -5 0 -1 5 9 11 9 6 15 14
12 20 -4 5 -1 9 6 9 7 0 9 9 6 23 -3 12 -8 32 -10 44 -4 15 0 23 16 28 22 7
22 7 -3 15 l-25 8 24 1 c13 1 21 4 18 8 -7 7 22 32 38 33 6 0 20 -3 32 -6z"/>
<path fill="#ffffff" stroke="none" d="M257 244 c-3 -3 -12 -4 -19 -1 -8 3 -5
6 6 6 11 1 17 -2 13 -5z"/>
</g>
</svg>
