<?xml version="1.0" standalone="no"?>
<!DOCTYPE svg PUBLIC "-//W3C//DTD SVG 20010904//EN"
 "http://www.w3.org/TR/2001/REC-SVG-20010904/DTD/svg10.dtd">
<svg version="1.0" xmlns="http://www.w3.org/2000/svg"
 width="32.000000pt" height="32.000000pt" viewBox="0 0 32.000000 32.000000"
 preserveAspectRatio="xMidYMid meet">
<metadata>
Created by potrace 1.16, written by Peter Selinger 2001-2019
</metadata>
<g transform="translate(0.000000,32.000000) scale(0.100000,-0.100000)"
fill="#000000" stroke="none">
<path fill="#000000" stroke="none" d="M20 160 l0 -140 140 0 140 0 0 140 0
140 -140 0 -140 0 0 -140z"/>
<path fill="#ffffff" stroke="none" d="M290 160 l0 -130 -130 0 -130 0 0 130
0 130 130 0 130 0 0 -130z"/>
<path fill="#000000" stroke="none" d="M128 266 c-10 -7 -15 -16 -11 -19 3 -4
-5 -7 -18 -8 l-24 -1 25 -8 c25 -8 25 -8 3 -15 -16 -5 -20 -13 -16 -28 2 -12
7 -32 10 -44 3 -14 1 -23 -6 -23 -7 0 -10 -4 -6 -9 3 -6 -3 -14 -12 -20 -10
-6 -14 -11 -9 -11 6 0 23 12 39 27 23 23 27 24 21 8 -4 -11 -14 -28 -22 -37
-14 -16 -13 -18 5 -18 14 0 24 10 32 30 13 38 29 38 42 0 8 -20 18 -30 32 -30
18 0 19 2 5 18 -8 9 -18 26 -22 37 -6 16 -2 15 21 -8 16 -15 33 -27 39 -27 5
0 1 5 -10 11 -15 9 -16 13 -5 20 11 7 9 9 -6 9 -17 0 -17 2 -5 10 12 7 12 10
1 10 -8 0 -11 6 -6 18 3 9 7 22 8 27 1 6 7 13 12 17 6 4 -1 8 -15 8 -20 0 -22
2 -10 10 12 8 12 10 -5 10 -17 0 -17 2 -5 10 11 7 11 10 2 10 -7 0 -11 4 -8 9
3 5 -4 11 -17 15 -31 8 -40 7 -59 -8z"/>
<path fill="#000000" stroke="none" d="M238 243 c7 -3 16 -2 19 1 4 3 -2 6
-13 5 -11 0 -14 -3 -6 -6z"/>
</g>
</svg>
