<?xml version="1.0" standalone="no"?>
<!DOCTYPE svg PUBLIC "-//W3C//DTD SVG 20010904//EN"
 "http://www.w3.org/TR/2001/REC-SVG-20010904/DTD/svg10.dtd">
<svg version="1.0" xmlns="http://www.w3.org/2000/svg"
 width="32.000000pt" height="32.000000pt" viewBox="0 0 32.000000 32.000000"
 preserveAspectRatio="xMidYMid meet">
<metadata>
Created by potrace 1.16, written by Peter Selinger 2001-2019
</metadata>
<g transform="translate(0.000000,32.000000) scale(0.100000,-0.100000)"
fill="#000000" stroke="none">
<path fill="#000000" stroke="none" d="M22 158 l2 -143 3 137 4 137 137 4 137
3 -142 2 -143 2 2 -142z"/>
<path fill="#000000" stroke="none" d="M68 258 c8 -8 12 -47 12 -110 l0 -98
43 2 42 1 -37 4 -37 4 -3 99 c-3 93 -2 100 17 103 11 2 4 5 -14 6 -27 1 -32
-2 -23 -11z"/>
<path fill="#000000" stroke="none" d="M151 248 c1 -16 3 -18 6 -6 2 9 14 19
26 21 18 4 17 5 -5 6 -23 1 -28 -3 -27 -21z"/>
<path fill="#000000" stroke="none" d="M220 246 c0 -31 -36 -75 -74 -92 -21
-9 -25 -13 -12 -14 25 0 96 72 96 98 0 13 8 22 23 25 19 4 18 4 -5 6 -23 1
-28 -3 -28 -23z"/>
<path fill="#000000" stroke="none" d="M129 203 c-13 -16 -12 -17 4 -4 9 7 17
15 17 17 0 8 -8 3 -21 -13z"/>
</g>
</svg>
