<?xml version="1.0" standalone="no"?>
<!DOCTYPE svg PUBLIC "-//W3C//DTD SVG 20010904//EN"
 "http://www.w3.org/TR/2001/REC-SVG-20010904/DTD/svg10.dtd">
<svg version="1.0" xmlns="http://www.w3.org/2000/svg"
 width="32.000000pt" height="32.000000pt" viewBox="0 0 32.000000 32.000000"
 preserveAspectRatio="xMidYMid meet">
<metadata>
Created by potrace 1.16, written by Peter Selinger 2001-2019
</metadata>
<g transform="translate(0.000000,32.000000) scale(0.100000,-0.100000)"
fill="#000000" stroke="none">
<path fill="#000000" stroke="none" d="M22 158 l2 -143 3 137 4 137 137 4 137
3 -142 2 -143 2 2 -142z"/>
<path fill="#000000" stroke="none" d="M64 261 c5 -8 56 -3 56 5 0 2 -14 4
-31 4 -16 0 -28 -4 -25 -9z"/>
<path fill="#000000" stroke="none" d="M150 254 c0 -8 -5 -25 -12 -37 -12 -22
-12 -21 -19 8 -4 19 -7 -2 -8 -57 0 -48 3 -89 7 -92 5 -3 6 8 4 24 -4 26 -1
30 36 39 43 12 102 69 102 99 -1 9 -7 2 -15 -15 -8 -18 -17 -33 -20 -33 -3 0
-1 9 5 21 7 11 9 27 6 34 -3 9 4 15 17 18 18 4 17 5 -5 6 -24 1 -28 -3 -28
-25 0 -29 -58 -94 -84 -94 -25 0 -19 29 8 40 25 9 52 47 42 58 -3 3 -6 1 -6
-4 0 -6 -7 -19 -16 -30 -14 -18 -15 -18 -4 4 6 12 8 26 5 31 -3 5 5 12 17 14
20 4 19 4 -4 6 -19 1 -28 -4 -28 -15z"/>
<path fill="#ffffff" stroke="none" d="M220 186 c0 -2 -8 -10 -17 -17 -16 -13
-17 -12 -4 4 13 16 21 21 21 13z"/>
<path fill="#000000" stroke="none" d="M80 150 l0 -100 43 2 c36 1 38 2 10 5
l-33 4 0 95 c0 56 -4 94 -10 94 -6 0 -10 -40 -10 -100z"/>
</g>
</svg>
