<?xml version="1.0" standalone="no"?>
<!DOCTYPE svg PUBLIC "-//W3C//DTD SVG 20010904//EN"
 "http://www.w3.org/TR/2001/REC-SVG-20010904/DTD/svg10.dtd">
<svg version="1.0" xmlns="http://www.w3.org/2000/svg"
 width="32.000000pt" height="32.000000pt" viewBox="0 0 32.000000 32.000000"
 preserveAspectRatio="xMidYMid meet">
<metadata>
Created by potrace 1.16, written by Peter Selinger 2001-2019
</metadata>
<g transform="translate(0.000000,32.000000) scale(0.100000,-0.100000)"
fill="#000000" stroke="none">
<path fill="#000000" stroke="none" d="M22 163 l2 -138 3 132 4 132 132 4 132
3 -137 2 -138 2 2 -137z"/>
<path fill="#000000" stroke="none" d="M186 239 c13 -14 12 -18 -2 -29 -12
-11 -20 -11 -34 -2 -16 10 -18 9 -14 -3 7 -18 -7 -20 -26 -2 -12 10 -12 9 -1
-5 11 -15 11 -18 -2 -18 -9 0 -19 5 -22 10 -3 6 -12 10 -18 10 -7 0 -4 -5 6
-11 10 -6 22 -20 27 -32 8 -19 9 -20 9 -3 1 14 4 16 14 8 9 -7 25 3 62 39 84
83 108 57 25 -27 -46 -48 -49 -53 -33 -65 16 -13 17 -12 4 4 -12 15 -11 17 3
17 9 0 16 6 16 13 0 7 16 28 35 47 51 50 47 69 -14 67 -45 -2 -48 -4 -35 -18z"/>
<path fill="#ffffff" stroke="none" d="M140 170 c0 -5 -2 -10 -4 -10 -3 0 -8
5 -11 10 -3 6 -1 10 4 10 6 0 11 -4 11 -10z"/>
<path fill="#000000" stroke="none" d="M99 113 c-13 -16 -12 -17 4 -4 9 7 17
15 17 17 0 8 -8 3 -21 -13z"/>
</g>
</svg>
