<?xml version="1.0" standalone="no"?>
<!DOCTYPE svg PUBLIC "-//W3C//DTD SVG 20010904//EN"
 "http://www.w3.org/TR/2001/REC-SVG-20010904/DTD/svg10.dtd">
<svg version="1.0" xmlns="http://www.w3.org/2000/svg"
 width="32.000000pt" height="32.000000pt" viewBox="0 0 32.000000 32.000000"
 preserveAspectRatio="xMidYMid meet">
<metadata>
Created by potrace 1.16, written by Peter Selinger 2001-2019
</metadata>
<g transform="translate(0.000000,32.000000) scale(0.100000,-0.100000)"
fill="#000000" stroke="none">
<path fill="#000000" stroke="none" d="M0 160 l0 -160 160 0 160 0 0 160 0
160 -160 0 -160 0 0 -160z"/>
<path fill="#ffffff" stroke="none" d="M168 293 l-137 -4 -4 -137 -3 -137 -2
143 -2 142 143 -2 142 -2 -137 -3z"/>
<path fill="#ffffff" stroke="none" d="M270 241 c0 -9 -16 -32 -35 -51 -19
-19 -35 -40 -35 -47 0 -7 -7 -13 -16 -13 -10 0 0 17 30 48 79 82 52 103 -29
23 -39 -38 -53 -47 -63 -38 -11 9 -13 6 -11 -15 2 -14 -2 -32 -8 -40 -10 -12
-10 -15 2 -15 8 0 12 4 10 8 -3 4 12 5 32 2 35 -5 36 -4 23 13 -14 18 -14 18
3 5 26 -21 20 -34 -13 -29 -21 3 -35 -1 -47 -14 -25 -27 -43 -23 -40 11 1 16
5 27 10 24 18 -11 17 29 -3 57 -12 16 -17 30 -11 30 5 0 13 -4 16 -10 3 -5 11
-10 17 -10 6 0 2 12 -7 28 l-18 27 25 -22 c29 -28 40 -29 31 -5 -6 15 -5 15
10 3 14 -11 20 -11 32 -1 14 11 14 15 1 29 -13 14 -9 16 40 17 44 1 54 -1 54
-15z"/>
<path fill="#ffffff" stroke="none" d="M250 232 c0 -4 -22 -30 -50 -57 -27
-26 -47 -52 -44 -56 2 -4 -4 -7 -14 -6 -10 0 -19 9 -19 19 -1 10 2 16 6 14 4
-3 30 17 56 44 47 48 65 59 65 42z"/>
<path fill="#000000" stroke="none" d="M80 78 c0 -4 4 -8 9 -8 6 0 12 4 15 8
3 5 -1 9 -9 9 -8 0 -15 -4 -15 -9z"/>
</g>
</svg>
