<?xml version="1.0" standalone="no"?>
<!DOCTYPE svg PUBLIC "-//W3C//DTD SVG 20010904//EN"
 "http://www.w3.org/TR/2001/REC-SVG-20010904/DTD/svg10.dtd">
<svg version="1.0" xmlns="http://www.w3.org/2000/svg"
 width="32.000000pt" height="32.000000pt" viewBox="0 0 32.000000 32.000000"
 preserveAspectRatio="xMidYMid meet">
<metadata>
Created by potrace 1.16, written by Peter Selinger 2001-2019
</metadata>
<g transform="translate(0.000000,32.000000) scale(0.100000,-0.100000)"
fill="#000000" stroke="none">
<path fill="#000000" stroke="none" d="M20 160 c0 -127 2 -140 18 -139 10 0
12 3 5 6 -10 3 -13 40 -13 134 l0 128 138 4 137 3 -142 2 -143 2 0 -140z"/>
<path fill="#000000" stroke="none" d="M105 250 c3 -5 13 -6 23 -3 13 5 12 1
-6 -22 l-22 -28 21 -23 c11 -12 32 -24 45 -27 14 -2 22 -2 19 1 -2 3 0 11 6
19 8 9 15 10 24 3 10 -8 15 -8 21 1 5 8 3 9 -6 4 -10 -6 -12 -4 -7 9 4 10 3
15 -3 11 -14 -9 -13 8 2 23 8 8 15 8 24 1 8 -7 14 -6 20 2 4 7 3 9 -4 5 -6 -3
-13 -2 -17 4 -4 7 -12 7 -23 1 -12 -7 -22 -5 -32 4 -17 16 -93 29 -85 15z"/>
<path fill="#ffffff" stroke="none" d="M185 200 c0 -18 -6 -26 -23 -28 -24 -4
-38 18 -28 44 3 9 15 14 28 12 17 -2 23 -10 23 -28z"/>
<path fill="#000000" stroke="none" d="M55 220 c-4 -6 -1 -9 6 -8 7 2 13 -1
14 -7 1 -20 22 -47 29 -37 3 5 -1 13 -10 16 -8 3 -13 10 -10 15 3 5 -1 14 -8
20 -10 9 -16 9 -21 1z"/>
<path fill="#000000" stroke="none" d="M50 88 c0 -21 55 -43 110 -43 55 0 110
22 110 43 0 13 -3 12 -14 -3 -12 -17 -27 -20 -96 -20 -69 0 -84 3 -96 20 -11
15 -14 16 -14 3z"/>
</g>
</svg>
