<?xml version="1.0" standalone="no"?>
<!DOCTYPE svg PUBLIC "-//W3C//DTD SVG 20010904//EN"
 "http://www.w3.org/TR/2001/REC-SVG-20010904/DTD/svg10.dtd">
<svg version="1.0" xmlns="http://www.w3.org/2000/svg"
 width="32.000000pt" height="32.000000pt" viewBox="0 0 32.000000 32.000000"
 preserveAspectRatio="xMidYMid meet">
<metadata>
Created by potrace 1.16, written by Peter Selinger 2001-2019
</metadata>
<g transform="translate(0.000000,32.000000) scale(0.100000,-0.100000)"
fill="#000000" stroke="none">
<path fill="#000000" stroke="none" d="M0 160 l0 -160 160 0 160 0 0 160 0
160 -160 0 -160 0 0 -160z"/>
<path fill="#ffffff" stroke="none" d="M168 293 l-137 -4 -4 -137 -3 -137 -2
143 -2 142 143 -2 142 -2 -137 -3z"/>
<path fill="#ffffff" stroke="none" d="M168 266 c-8 -9 -15 -10 -19 -4 -4 6
-19 8 -35 4 -21 -5 -25 -4 -14 4 8 5 30 10 48 10 27 0 31 -2 20 -14z"/>
<path fill="#ffffff" stroke="none" d="M72 238 c-5 -20 -4 -21 11 -10 21 17
37 8 30 -18 -4 -16 0 -20 18 -20 16 0 20 3 12 8 -10 6 -10 12 2 28 15 19 15
19 30 0 12 -16 12 -22 2 -28 -8 -5 -6 -8 8 -8 31 -1 56 -25 48 -45 -5 -14 -3
-16 7 -10 8 5 11 4 7 -3 -12 -18 -48 -2 -42 19 5 16 3 16 -23 7 -25 -10 -35
-8 -68 13 -22 13 -42 23 -46 21 -10 -3 -11 52 -1 61 10 11 11 8 5 -15z"/>
<path fill="#ffffff" stroke="none" d="M258 214 c-3 -27 -4 -26 -9 8 -3 22 -1
34 4 29 5 -5 7 -21 5 -37z"/>
<path fill="#ffffff" stroke="none" d="M186 126 c20 -21 17 -28 -6 -14 -16 10
-24 10 -40 0 -23 -14 -26 -8 -7 13 16 18 35 19 53 1z"/>
<path fill="#ffffff" stroke="none" d="M160 60 c43 0 74 6 90 16 l25 16 -24
-21 c-19 -17 -37 -21 -91 -21 -54 0 -72 4 -91 21 l-24 21 25 -16 c16 -10 47
-16 90 -16z"/>
</g>
</svg>
