<?xml version="1.0" standalone="no"?>
<!DOCTYPE svg PUBLIC "-//W3C//DTD SVG 20010904//EN"
 "http://www.w3.org/TR/2001/REC-SVG-20010904/DTD/svg10.dtd">
<svg version="1.0" xmlns="http://www.w3.org/2000/svg"
 width="32.000000pt" height="32.000000pt" viewBox="0 0 32.000000 32.000000"
 preserveAspectRatio="xMidYMid meet">
<metadata>
Created by potrace 1.16, written by Peter Selinger 2001-2019
</metadata>
<g transform="translate(0.000000,32.000000) scale(0.100000,-0.100000)"
fill="#000000" stroke="none">
<path fill="#000000" stroke="none" d="M30 160 c0 -72 3 -131 8 -132 4 0 64
-2 133 -3 l125 -1 0 133 0 133 -133 0 -133 0 0 -130z"/>
<path fill="#ffffff" stroke="none" d="M217 196 c-4 -11 -1 -13 11 -8 16 6 16
4 1 -18 -26 -41 -30 -60 -12 -53 11 4 14 3 9 -6 -5 -7 -14 -10 -22 -7 -7 3
-16 1 -20 -5 -4 -6 -12 -5 -22 3 -12 10 -14 10 -8 1 4 -7 2 -13 -3 -13 -6 0
-11 5 -11 11 0 6 -7 8 -16 5 -8 -3 -12 -2 -9 3 3 5 2 12 -3 15 -14 9 -7 59 10
70 13 8 22 6 41 -12 l24 -22 11 25 c12 26 28 36 19 11z"/>
<path fill="#ffffff" stroke="none" d="M160 65 c69 0 84 3 96 20 11 15 14 16
14 3 0 -21 -55 -43 -110 -43 -55 0 -110 22 -110 43 0 13 3 12 14 -3 12 -17 27
-20 96 -20z"/>
<path fill="#000000" stroke="none" d="M121 134 c0 -11 3 -14 6 -6 3 7 2 16
-1 19 -3 4 -6 -2 -5 -13z"/>
</g>
</svg>
