<?xml version="1.0" standalone="no"?>
<!DOCTYPE svg PUBLIC "-//W3C//DTD SVG 20010904//EN"
 "http://www.w3.org/TR/2001/REC-SVG-20010904/DTD/svg10.dtd">
<svg version="1.0" xmlns="http://www.w3.org/2000/svg"
 width="32.000000pt" height="32.000000pt" viewBox="0 0 32.000000 32.000000"
 preserveAspectRatio="xMidYMid meet">
<metadata>
Created by potrace 1.16, written by Peter Selinger 2001-2019
</metadata>
<g transform="translate(0.000000,32.000000) scale(0.100000,-0.100000)"
fill="#000000" stroke="none">
<path fill="#000000" stroke="none" d="M64 281 c3 -5 -1 -11 -8 -14 -8 -3 -19
-15 -25 -25 -9 -17 -8 -19 9 -15 11 3 18 9 15 13 -3 4 3 14 12 21 15 12 16 12
10 -3 -4 -12 -2 -15 9 -11 7 3 14 0 14 -6 0 -6 5 -11 11 -11 12 0 -31 59 -44
59 -5 1 -6 -3 -3 -8z"/>
<path fill="#000000" stroke="none" d="M135 270 c-8 -13 5 -13 25 0 13 8 13
10 -2 10 -9 0 -20 -4 -23 -10z"/>
<path fill="#000000" stroke="none" d="M160 212 c0 -12 19 -26 26 -19 2 2 -2
10 -11 17 -9 8 -15 8 -15 2z"/>
<path fill="#000000" stroke="none" d="M135 171 c-3 -5 -2 -12 3 -15 5 -3 9 1
9 9 0 17 -3 19 -12 6z"/>
<path fill="#000000" stroke="none" d="M20 39 c0 -5 5 -7 10 -4 6 3 10 8 10
11 0 2 -4 4 -10 4 -5 0 -10 -5 -10 -11z"/>
<path fill="#000000" stroke="none" d="M58 43 c7 -3 16 -2 19 1 4 3 -2 6 -13
5 -11 0 -14 -3 -6 -6z"/>
<path fill="#000000" stroke="none" d="M128 43 c6 -2 18 -2 25 0 6 3 1 5 -13
5 -14 0 -19 -2 -12 -5z"/>
</g>
</svg>
