<?xml version="1.0" standalone="no"?>
<!DOCTYPE svg PUBLIC "-//W3C//DTD SVG 20010904//EN"
 "http://www.w3.org/TR/2001/REC-SVG-20010904/DTD/svg10.dtd">
<svg version="1.0" xmlns="http://www.w3.org/2000/svg"
 width="32.000000pt" height="32.000000pt" viewBox="0 0 32.000000 32.000000"
 preserveAspectRatio="xMidYMid meet">
<metadata>
Created by potrace 1.16, written by Peter Selinger 2001-2019
</metadata>
<g transform="translate(0.000000,32.000000) scale(0.100000,-0.100000)"
fill="#000000" stroke="none">
<path fill="#000000" stroke="none" d="M155 301 c-18 -4 -31 -14 -33 -25 -2
-10 0 -16 6 -12 6 4 8 -2 5 -14 -4 -15 0 -20 15 -20 26 0 46 25 39 50 -3 11
-1 18 4 14 5 -3 9 -13 10 -22 0 -11 3 -12 6 -4 2 6 11 12 19 12 17 0 19 16 2
26 -7 4 -8 3 -4 -4 4 -7 3 -12 -3 -12 -5 0 -13 5 -16 10 -3 6 -9 9 -13 9 -4
-1 -20 -4 -37 -8z"/>
<path fill="#ffffff" stroke="none" d="M168 263 c2 -12 -3 -20 -12 -20 -11 0
-13 5 -6 18 6 11 6 19 0 22 -6 3 -5 4 2 3 7 -1 14 -12 16 -23z"/>
<path fill="#000000" stroke="none" d="M19 273 c-7 -10 -10 -15 -5 -11 19 16
46 -13 48 -50 l1 -37 4 35 c3 20 13 42 25 51 16 12 18 18 8 24 -8 5 -11 4 -6
-3 3 -6 -2 -13 -12 -17 -23 -7 -54 4 -46 16 10 16 -3 9 -17 -8z"/>
<path fill="#000000" stroke="none" d="M284 200 c1 -58 5 -81 15 -85 19 -7 29
4 12 14 -11 7 -11 9 0 13 12 4 12 9 1 27 -10 17 -10 21 0 21 10 0 9 3 -1 9 -7
5 -14 22 -15 39 -1 17 -4 33 -7 37 -3 3 -6 -31 -5 -75z"/>
<path fill="#000000" stroke="none" d="M82 220 c0 -14 2 -19 5 -12 2 6 2 18 0
25 -3 6 -5 1 -5 -13z"/>
<path fill="#000000" stroke="none" d="M232 224 c-7 -8 -8 -14 -3 -14 10 0 25
19 20 25 -2 1 -10 -3 -17 -11z"/>
<path fill="#000000" stroke="none" d="M165 200 c-3 -5 1 -10 10 -10 9 0 13 5
10 10 -3 6 -8 10 -10 10 -2 0 -7 -4 -10 -10z"/>
<path fill="#000000" stroke="none" d="M106 191 c-3 -5 1 -12 10 -15 27 -11
37 -7 24 9 -14 17 -26 19 -34 6z"/>
<path fill="#000000" stroke="none" d="M204 178 c-12 -14 -13 -18 -3 -10 9 6
20 8 24 4 5 -4 5 -1 1 6 -4 6 -3 12 3 12 15 0 23 -18 11 -25 -12 -8 -13 -25
-1 -25 14 0 20 37 8 49 -16 16 -21 14 -43 -11z"/>
<path fill="#000000" stroke="none" d="M50 154 c0 -17 22 -14 28 4 2 7 -3 12
-12 12 -9 0 -16 -7 -16 -16z"/>
<path fill="#000000" stroke="none" d="M15 152 c-5 -4 -11 -13 -13 -20 -2 -10
2 -10 18 -2 11 6 20 15 20 20 0 12 -11 13 -25 2z"/>
<path fill="#000000" stroke="none" d="M260 134 c0 -8 5 -12 10 -9 6 3 10 10
10 16 0 5 -4 9 -10 9 -5 0 -10 -7 -10 -16z"/>
<path fill="#000000" stroke="none" d="M1 99 c-1 -9 6 -19 14 -23 9 -3 15 0
15 10 0 8 -4 13 -9 10 -5 -4 -12 0 -14 6 -4 8 -6 7 -6 -3z"/>
<path fill="#000000" stroke="none" d="M128 101 c8 -4 14 -12 13 -17 0 -5 9
-12 20 -16 12 -5 18 -4 14 2 -3 6 -1 10 5 10 6 0 8 5 5 10 -4 6 -10 8 -15 5
-5 -3 -11 -1 -15 5 -3 5 -14 10 -23 10 -13 0 -14 -2 -4 -9z"/>
<path fill="#000000" stroke="none" d="M312 25 c0 -17 2 -22 5 -12 2 9 2 23 0
30 -3 6 -5 -1 -5 -18z"/>
<path fill="#000000" stroke="none" d="M85 30 c-3 -5 1 -10 10 -10 9 0 13 5
10 10 -3 6 -8 10 -10 10 -2 0 -7 -4 -10 -10z"/>
</g>
</svg>
