<?xml version="1.0" standalone="no"?>
<!DOCTYPE svg PUBLIC "-//W3C//DTD SVG 20010904//EN"
 "http://www.w3.org/TR/2001/REC-SVG-20010904/DTD/svg10.dtd">
<svg version="1.0" xmlns="http://www.w3.org/2000/svg"
 width="32.000000pt" height="32.000000pt" viewBox="0 0 32.000000 32.000000"
 preserveAspectRatio="xMidYMid meet">
<metadata>
Created by potrace 1.16, written by Peter Selinger 2001-2019
</metadata>
<g transform="translate(0.000000,32.000000) scale(0.100000,-0.100000)"
fill="#000000" stroke="none">
<path fill="#000000" stroke="none" d="M0 160 l0 -160 160 0 160 0 0 158 0
158 -160 2 -160 1 0 -159z"/>
<path fill="#ffffff" stroke="none" d="M198 277 c69 -34 112 -68 112 -90 0 -7
-18 -23 -40 -36 -45 -25 -46 -27 -26 -67 26 -52 24 -69 -6 -72 -27 -3 -40 12
-17 20 7 2 1 16 -14 33 -21 25 -29 28 -44 19 -10 -7 -18 -23 -18 -40 -1 -24
-5 -30 -28 -32 -15 -2 -27 1 -27 7 0 6 5 11 11 11 8 0 8 4 -1 14 -9 12 -7 25
9 62 24 53 26 70 9 80 -20 13 -60 -45 -56 -82 2 -19 0 -30 -6 -27 -5 4 -7 -1
-3 -10 12 -30 -4 -18 -19 16 -15 33 -15 23 0 -42 3 -13 2 -21 -1 -17 -7 7 -10
17 -20 66 -3 20 0 37 10 48 25 29 47 91 35 98 -7 5 -8 2 -3 -7 5 -8 4 -11 -1
-6 -12 12 -12 59 0 73 19 21 80 13 144 -19z"/>
<path fill="#ffffff" stroke="none" d="M119 177 c-2 -1 -13 -9 -24 -17 -19
-14 -19 -14 -6 3 7 9 18 17 24 17 6 0 8 -1 6 -3z"/>
<path fill="#ffffff" stroke="none" d="M285 140 c-16 -11 -34 -20 -40 -20 -12
0 46 38 60 39 6 1 -3 -8 -20 -19z"/>
<path fill="#ffffff" stroke="none" d="M190 76 c0 -2 -9 -6 -20 -9 -11 -3 -18
-1 -14 4 5 9 34 13 34 5z"/>
<path fill="#000000" stroke="none" d="M223 195 c-3 -9 -3 -19 1 -22 8 -9 37
18 30 28 -8 14 -24 11 -31 -6z"/>
<path fill="#000000" stroke="none" d="M41 94 c0 -11 3 -14 6 -6 3 7 2 16 -1
19 -3 4 -6 -2 -5 -13z"/>
</g>
</svg>
