<?xml version="1.0" standalone="no"?>
<!DOCTYPE svg PUBLIC "-//W3C//DTD SVG 20010904//EN"
 "http://www.w3.org/TR/2001/REC-SVG-20010904/DTD/svg10.dtd">
<svg version="1.0" xmlns="http://www.w3.org/2000/svg"
 width="32.000000pt" height="32.000000pt" viewBox="0 0 32.000000 32.000000"
 preserveAspectRatio="xMidYMid meet">
<metadata>
Created by potrace 1.16, written by Peter Selinger 2001-2019
</metadata>
<g transform="translate(0.000000,32.000000) scale(0.100000,-0.100000)"
fill="#000000" stroke="none">
<path fill="#000000" stroke="none" d="M0 160 l0 -159 160 0 160 -1 0 160 0
160 -160 0 -160 0 0 -160z"/>
<path fill="#ffffff" stroke="none" d="M174 301 c4 -5 0 -12 -6 -15 -7 -3 1
-4 17 -1 24 4 27 3 13 -5 -10 -6 -18 -21 -18 -32 0 -17 3 -19 12 -10 21 21 38
-6 38 -60 0 -33 -5 -50 -14 -54 -19 -7 -18 -64 1 -86 10 -11 11 -18 4 -23 -18
-10 -28 2 -40 50 -7 28 -17 45 -26 45 -8 0 -16 -4 -16 -10 -1 -5 -3 -14 -4
-20 -1 -5 -3 -21 -4 -35 -1 -20 -6 -25 -28 -25 -25 0 -25 1 -9 19 10 11 15 24
12 30 -4 6 -2 20 4 31 8 15 8 18 -2 15 -27 -10 -36 9 -28 58 8 54 35 91 49 68
7 -10 10 -11 16 0 5 8 -1 20 -16 32 -24 20 -24 20 -1 13 12 -4 22 -4 21 1 -4
23 14 33 25 14z"/>
<path fill="#000000" stroke="none" d="M112 180 c0 -14 2 -19 5 -12 2 6 2 18
0 25 -3 6 -5 1 -5 -13z"/>
<path fill="#000000" stroke="none" d="M186 183 c-4 -9 0 -23 9 -32 9 -9 15
-11 15 -4 0 7 -4 14 -10 18 -5 3 -7 12 -3 20 3 8 3 15 0 15 -3 0 -8 -8 -11
-17z"/>
</g>
</svg>
