<?xml version="1.0" standalone="no"?>
<!DOCTYPE svg PUBLIC "-//W3C//DTD SVG 20010904//EN"
 "http://www.w3.org/TR/2001/REC-SVG-20010904/DTD/svg10.dtd">
<svg version="1.0" xmlns="http://www.w3.org/2000/svg"
 width="32.000000pt" height="32.000000pt" viewBox="0 0 32.000000 32.000000"
 preserveAspectRatio="xMidYMid meet">
<metadata>
Created by potrace 1.16, written by Peter Selinger 2001-2019
</metadata>
<g transform="translate(0.000000,32.000000) scale(0.100000,-0.100000)"
fill="#000000" stroke="none">
<path fill="#000000" stroke="none" d="M142 236 c1 -13 -3 -30 -9 -38 -16 -19
-44 -98 -35 -97 36 6 45 -40 15 -74 -17 -18 -17 -19 7 -16 17 3 26 11 28 26 4
30 20 30 24 1 2 -16 11 -24 28 -27 24 -3 24 -2 7 16 -21 24 -24 78 -3 70 20
-8 13 56 -10 91 -10 15 -17 37 -15 50 2 17 -3 22 -19 22 -17 0 -21 -5 -18 -24z"/>
<path fill="#000000" stroke="none" d="M242 239 c-13 -5 -29 -6 -35 -3 -15 7
34 -37 59 -53 11 -8 3 -7 -20 2 -21 8 -40 15 -42 15 -1 0 4 -12 12 -27 7 -16
14 -33 14 -39 0 -7 7 -14 15 -18 9 -3 15 0 15 9 0 7 7 21 15 29 12 12 13 20 6
35 -6 11 -8 26 -5 34 7 20 -6 26 -34 16z"/>
</g>
</svg>
