<?xml version="1.0" standalone="no"?>
<!DOCTYPE svg PUBLIC "-//W3C//DTD SVG 20010904//EN"
 "http://www.w3.org/TR/2001/REC-SVG-20010904/DTD/svg10.dtd">
<svg version="1.0" xmlns="http://www.w3.org/2000/svg"
 width="32.000000pt" height="32.000000pt" viewBox="0 0 32.000000 32.000000"
 preserveAspectRatio="xMidYMid meet">
<metadata>
Created by potrace 1.16, written by Peter Selinger 2001-2019
</metadata>
<g transform="translate(0.000000,32.000000) scale(0.100000,-0.100000)"
fill="#000000" stroke="none">
<path fill="#000000" stroke="none" d="M0 160 l0 -160 160 0 160 0 0 160 0
160 -160 0 -160 0 0 -160z"/>
<path fill="#ffffff" stroke="none" d="M179 238 c-2 -13 5 -35 15 -50 23 -35
30 -99 10 -91 -21 8 -18 -46 3 -70 17 -18 17 -19 -7 -16 -17 3 -26 11 -28 27
-4 29 -20 29 -24 -1 -2 -15 -11 -23 -28 -26 -24 -3 -24 -2 -7 16 30 34 21 80
-15 74 -9 -1 19 78 35 97 6 8 10 25 9 38 -3 19 1 24 18 24 16 0 21 -5 19 -22z"/>
<path fill="#ffffff" stroke="none" d="M273 224 c-1 -10 3 -26 8 -36 7 -13 6
-23 -6 -34 -8 -8 -15 -22 -15 -29 0 -25 -28 -5 -39 28 -6 17 -19 39 -28 50
-14 15 -14 18 -3 15 8 -2 14 3 12 10 -1 8 1 11 5 9 5 -2 17 -1 28 4 28 11 40
5 38 -17z"/>
</g>
</svg>
