<?xml version="1.0" standalone="no"?>
<!DOCTYPE svg PUBLIC "-//W3C//DTD SVG 20010904//EN"
 "http://www.w3.org/TR/2001/REC-SVG-20010904/DTD/svg10.dtd">
<svg version="1.0" xmlns="http://www.w3.org/2000/svg"
 width="32.000000pt" height="32.000000pt" viewBox="0 0 32.000000 32.000000"
 preserveAspectRatio="xMidYMid meet">
<metadata>
Created by potrace 1.16, written by Peter Selinger 2001-2019
</metadata>
<g transform="translate(0.000000,32.000000) scale(0.100000,-0.100000)"
fill="#000000" stroke="none">
<path fill="#000000" stroke="none" d="M104 298 c-3 -4 0 -16 6 -27 8 -16 5
-25 -15 -47 -14 -15 -25 -33 -25 -40 0 -7 -10 -14 -22 -16 -24 -3 -34 -36 -13
-44 7 -3 28 2 46 11 31 16 32 16 24 -1 -5 -11 -10 -36 -11 -56 0 -21 -6 -44
-13 -51 -14 -18 -4 -27 31 -27 26 0 28 2 28 43 0 24 -5 48 -11 54 -8 8 -8 17
0 31 14 27 14 35 -1 26 -7 -4 -6 1 4 11 15 17 17 17 40 0 12 -10 16 -15 6 -12
-23 8 -30 -3 -13 -20 21 -21 18 -36 -5 -30 -11 3 -20 1 -20 -4 0 -5 5 -9 10
-9 6 0 10 -12 10 -26 0 -36 17 -64 40 -64 29 0 32 14 15 79 -8 32 -15 70 -15
84 0 22 -4 24 -40 22 -31 -2 -41 2 -46 17 -8 27 0 32 20 12 15 -15 19 -15 41
0 31 20 38 20 31 -1 -3 -11 8 -33 29 -56 33 -38 55 -42 55 -11 0 8 -4 12 -10
9 -5 -3 -7 0 -4 8 5 13 -50 70 -76 79 -10 3 -10 9 -1 27 7 12 10 26 6 29 -9 9
-95 10 -101 0z"/>
<path fill="#ffffff" stroke="none" d="M195 290 c-3 -5 -12 -10 -18 -10 -7 0
-6 4 3 10 19 12 23 12 15 0z"/>
</g>
</svg>
