<?xml version="1.0" standalone="no"?>
<!DOCTYPE svg PUBLIC "-//W3C//DTD SVG 20010904//EN"
 "http://www.w3.org/TR/2001/REC-SVG-20010904/DTD/svg10.dtd">
<svg version="1.0" xmlns="http://www.w3.org/2000/svg"
 width="32.000000pt" height="32.000000pt" viewBox="0 0 32.000000 32.000000"
 preserveAspectRatio="xMidYMid meet">
<metadata>
Created by potrace 1.16, written by Peter Selinger 2001-2019
</metadata>
<g transform="translate(0.000000,32.000000) scale(0.100000,-0.100000)"
fill="#000000" stroke="none">
<path fill="#000000" stroke="none" d="M0 160 l0 -160 38 0 c21 0 47 7 58 16
18 14 18 14 -6 3 -23 -11 -24 -11 -11 5 8 9 15 33 15 54 1 20 6 45 11 56 8 17
7 17 -24 1 -38 -19 -61 -14 -57 12 3 13 11 18 35 17 26 -2 31 2 30 20 0 20 -1
20 -9 1 -6 -15 -9 -16 -9 -4 -1 9 10 28 24 43 20 22 23 31 15 47 -16 29 -7 35
47 34 49 -1 55 -7 38 -47 -4 -11 0 -18 14 -23 24 -7 81 -70 81 -90 0 -30 -23
-25 -55 12 l-34 38 -1 -29 c0 -15 7 -55 15 -87 9 -33 13 -64 10 -69 -4 -6 14
-10 44 -10 l51 0 0 160 0 160 -160 0 -160 0 0 -160z"/>
<path fill="#000000" stroke="none" d="M110 290 c0 -4 20 -7 45 -7 25 0 45 3
45 7 0 3 -20 6 -45 6 -25 0 -45 -3 -45 -6z"/>
<path fill="#000000" stroke="none" d="M138 263 c7 -3 16 -2 19 1 4 3 -2 6
-13 5 -11 0 -14 -3 -6 -6z"/>
<path fill="#000000" stroke="none" d="M100 225 c0 -4 6 -18 13 -33 15 -31 15
-36 -2 -76 -14 -35 -10 -74 5 -41 12 27 64 30 64 4 0 -11 5 -19 11 -19 10 0 9
20 -4 85 -4 20 11 65 22 65 14 -1 42 -30 37 -38 -3 -5 3 -17 14 -27 18 -16 20
-16 20 -2 0 10 -4 17 -9 17 -5 0 -11 9 -14 19 -2 10 -16 27 -31 36 -20 14 -32
15 -56 7 -18 -7 -32 -7 -35 -1 -7 10 -35 13 -35 4z"/>
<path fill="#000000" stroke="none" d="M140 45 c0 -38 3 -45 19 -45 11 0 23 5
27 12 4 6 3 8 -3 5 -13 -8 -23 14 -23 49 0 13 -4 24 -10 24 -5 0 -10 -20 -10
-45z"/>
</g>
</svg>
