<?xml version="1.0" standalone="no"?>
<!DOCTYPE svg PUBLIC "-//W3C//DTD SVG 20010904//EN"
 "http://www.w3.org/TR/2001/REC-SVG-20010904/DTD/svg10.dtd">
<svg version="1.0" xmlns="http://www.w3.org/2000/svg"
 width="32.000000pt" height="32.000000pt" viewBox="0 0 32.000000 32.000000"
 preserveAspectRatio="xMidYMid meet">
<metadata>
Created by potrace 1.16, written by Peter Selinger 2001-2019
</metadata>
<g transform="translate(0.000000,32.000000) scale(0.100000,-0.100000)"
fill="#000000" stroke="none">
<path fill="#000000" stroke="none" d="M26 250 c-10 -27 -16 -55 -13 -62 2 -7
8 4 12 24 4 23 11 35 18 31 6 -4 7 -1 3 8 -4 8 0 5 8 -5 9 -11 16 -26 16 -33
0 -27 23 -50 44 -46 17 4 18 3 6 -6 -13 -10 -13 -11 0 -11 12 -1 11 -4 -4 -15
-15 -11 -16 -18 -8 -28 9 -10 9 -16 0 -25 -9 -9 -9 -12 0 -12 7 0 12 5 12 11
0 5 6 7 13 3 8 -5 7 -2 -2 9 -11 13 -11 23 -3 40 16 34 21 66 11 73 -5 3 -9 2
-8 -3 4 -24 -3 -25 -16 -3 -8 14 -14 19 -15 10 0 -10 -5 -7 -16 8 -9 13 -13
30 -10 38 3 9 1 12 -4 9 -6 -3 -10 1 -10 9 0 34 -18 22 -34 -24z"/>
<path fill="#000000" stroke="none" d="M127 263 c-4 -3 3 -21 14 -39 13 -21
18 -41 14 -54 -9 -29 11 -25 31 6 14 20 15 27 5 33 -10 6 -9 10 4 14 9 4 13 3
10 -3 -3 -6 -1 -10 5 -10 6 0 9 -4 6 -9 -9 -13 22 -7 36 7 9 9 9 15 -1 25 -11
10 -13 9 -8 -5 10 -28 -10 -30 -28 -2 -12 18 -23 24 -43 22 -17 -2 -26 2 -24
10 2 13 -10 16 -21 5z"/>
<path fill="#000000" stroke="none" d="M206 156 c-27 -22 -26 -35 2 -30 6 1
17 2 23 3 8 1 8 5 0 14 -8 10 -7 17 1 25 20 20 5 13 -26 -12z"/>
<path fill="#000000" stroke="none" d="M196 103 c-16 -16 -5 -39 18 -39 14 0
22 4 20 8 -3 4 -12 8 -20 8 -8 0 -12 5 -9 10 4 6 10 8 15 5 5 -3 11 -2 14 3 5
9 -29 14 -38 5z"/>
<path fill="#000000" stroke="none" d="M20 35 c0 -11 10 -15 33 -14 l32 2 -30
6 c-19 4 5 8 65 11 l95 6 -97 2 c-81 2 -98 -1 -98 -13z"/>
<path fill="#000000" stroke="none" d="M108 23 c7 -3 16 -2 19 1 4 3 -2 6 -13
5 -11 0 -14 -3 -6 -6z"/>
</g>
</svg>
