<?xml version="1.0" standalone="no"?>
<!DOCTYPE svg PUBLIC "-//W3C//DTD SVG 20010904//EN"
 "http://www.w3.org/TR/2001/REC-SVG-20010904/DTD/svg10.dtd">
<svg version="1.0" xmlns="http://www.w3.org/2000/svg"
 width="32.000000pt" height="32.000000pt" viewBox="0 0 32.000000 32.000000"
 preserveAspectRatio="xMidYMid meet">
<metadata>
Created by potrace 1.16, written by Peter Selinger 2001-2019
</metadata>
<g transform="translate(0.000000,32.000000) scale(0.100000,-0.100000)"
fill="#000000" stroke="none">
<path fill="#000000" stroke="none" d="M8 308 c9 -11 10 -18 2 -23 -6 -4 -10
-59 -10 -145 l0 -139 74 2 c41 1 69 5 64 8 -7 4 -6 13 1 27 8 16 7 21 -4 26
-10 3 -20 -5 -30 -24 -33 -64 -60 -27 -58 79 1 35 -1 61 -4 57 -11 -10 -11
-156 0 -149 6 3 7 1 3 -6 -17 -26 -26 5 -22 76 2 42 1 101 -3 130 -4 30 -4 56
1 59 4 3 8 -2 8 -10 0 -23 25 -19 44 7 14 19 15 20 9 2 -5 -16 -4 -18 8 -7 11
10 10 15 -5 30 -11 9 -16 11 -12 5 4 -8 2 -13 -6 -13 -8 0 -20 6 -27 13 -11
10 -13 10 -7 0 4 -7 3 -13 -1 -13 -5 0 -15 6 -23 13 -12 10 -12 9 -2 -5z"/>
<path fill="#000000" stroke="none" d="M106 306 c3 -8 -1 -25 -10 -38 -10 -16
-12 -28 -6 -38 8 -12 10 -11 10 6 0 25 54 78 72 71 9 -4 9 -6 -3 -6 -9 -1 -23
-9 -32 -19 -15 -16 -13 -19 19 -41 23 -16 34 -31 34 -48 0 -23 11 -32 46 -37
11 -2 21 -14 25 -32 3 -16 13 -42 22 -59 16 -29 16 -27 11 65 -7 138 -11 156
-33 157 -13 1 -18 -4 -16 -15 2 -9 4 -21 4 -26 1 -4 8 -6 16 -2 12 4 15 -5 15
-51 0 -65 -7 -65 -18 -2 -7 40 -10 43 -37 44 -31 0 -37 17 -21 56 8 18 -17 29
-71 29 -24 0 -31 -4 -27 -14z"/>
<path fill="#000000" stroke="none" d="M225 310 c3 -6 -1 -17 -10 -26 -19 -19
-15 -38 8 -42 12 -3 16 4 14 25 -2 23 2 28 21 29 31 2 44 -30 52 -126 7 -73 7
-72 8 38 l2 112 -51 0 c-31 0 -48 -4 -44 -10z"/>
<path fill="#000000" stroke="none" d="M53 256 c-30 -14 -32 -51 -3 -43 23 6
23 6 10 -62 -7 -36 -6 -59 0 -72 11 -20 45 -26 55 -10 3 6 28 1 57 -12 37 -15
53 -18 56 -9 2 7 8 10 13 6 5 -3 4 7 -3 21 -9 21 -9 31 0 46 7 10 12 22 12 26
0 5 -5 0 -11 -9 -5 -10 -17 -18 -25 -18 -8 0 -23 -5 -34 -12 -16 -10 -23 -9
-45 12 -22 20 -29 20 -27 0 0 -3 -8 -16 -18 -30 l-18 -24 2 34 c1 24 7 35 24
41 24 9 29 17 36 67 2 18 0 30 -5 26 -5 -3 -9 3 -10 13 0 11 -3 13 -6 5 -3 -7
1 -19 7 -27 10 -12 9 -16 -5 -22 -23 -8 -63 36 -43 48 20 13 5 16 -19 5z"/>
<path fill="#000000" stroke="none" d="M146 212 c-16 -58 -16 -79 -1 -92 13
-11 21 -11 36 -2 10 7 26 12 34 12 23 0 18 14 -10 27 -22 10 -27 8 -36 -8 -10
-20 -29 -17 -29 4 0 9 3 8 8 -1 6 -9 12 -5 20 13 7 14 12 32 12 39 0 21 -28
27 -34 8z"/>
<path fill="#000000" stroke="none" d="M178 24 c3 -15 11 -24 24 -24 15 0 17
3 9 19 -17 30 -39 34 -33 5z"/>
</g>
</svg>
