<?xml version="1.0" standalone="no"?>
<!DOCTYPE svg PUBLIC "-//W3C//DTD SVG 20010904//EN"
 "http://www.w3.org/TR/2001/REC-SVG-20010904/DTD/svg10.dtd">
<svg version="1.0" xmlns="http://www.w3.org/2000/svg"
 width="32.000000pt" height="32.000000pt" viewBox="0 0 32.000000 32.000000"
 preserveAspectRatio="xMidYMid meet">
<metadata>
Created by potrace 1.16, written by Peter Selinger 2001-2019
</metadata>
<g transform="translate(0.000000,32.000000) scale(0.100000,-0.100000)"
fill="#000000" stroke="none">
<path fill="#000000" stroke="none" d="M127 302 c-10 -10 -17 -33 -17 -50 0
-17 -4 -34 -10 -37 -5 -3 -10 -15 -10 -26 0 -17 -6 -19 -37 -17 -35 3 -38 1
-41 -26 -2 -15 0 -26 5 -23 5 3 8 -7 5 -22 -5 -37 12 -47 44 -26 34 22 40 13
22 -33 -12 -31 -12 -39 -2 -39 7 0 11 4 9 8 -3 3 3 13 12 20 15 12 16 11 11
-9 -6 -21 -3 -22 42 -22 27 0 52 5 56 12 4 6 3 8 -2 5 -6 -3 -16 3 -23 15 -12
20 -12 20 18 2 16 -10 28 -21 25 -25 -5 -9 17 -6 35 5 10 7 12 5 6 -3 -5 -9 0
-12 16 -9 33 4 41 58 10 58 -24 0 -28 29 -8 61 10 17 9 22 -11 37 -17 13 -24
29 -26 65 -1 26 -8 53 -15 60 -11 10 -11 8 -2 -10 17 -33 -10 -20 -38 17 -25
34 -51 38 -74 12z"/>
<path fill="#ffffff" stroke="none" d="M171 219 c5 -8 9 -18 8 -24 0 -5 -6 1
-13 14 -11 20 -14 21 -20 6 -3 -9 -3 -22 1 -27 3 -7 1 -8 -5 -4 -7 4 -12 15
-12 24 -1 15 -2 15 -15 -2 -8 -11 -15 -16 -15 -11 0 16 31 43 46 41 9 -1 20
-9 25 -17z"/>
<path fill="#ffffff" stroke="none" d="M230 190 c0 -5 -2 -10 -4 -10 -3 0 -8
5 -11 10 -3 6 -1 10 4 10 6 0 11 -4 11 -10z"/>
<path fill="#ffffff" stroke="none" d="M42 155 c0 -5 -5 -11 -11 -13 -6 -2
-11 4 -11 13 0 9 5 15 11 13 6 -2 11 -8 11 -13z"/>
<path fill="#ffffff" stroke="none" d="M266 155 c4 -8 10 -12 15 -9 5 3 9 0 9
-6 0 -7 -9 -14 -21 -17 -13 -4 -18 -11 -15 -22 5 -13 4 -13 -8 2 -14 18 -10
67 5 67 6 0 12 -7 15 -15z"/>
<path fill="#ffffff" stroke="none" d="M100 153 c0 -1 -14 -10 -30 -18 -29
-15 -30 -15 -19 2 9 15 49 28 49 16z"/>
<path fill="#ffffff" stroke="none" d="M196 93 c-7 -7 -26 7 -26 19 0 6 6 6
15 -2 9 -7 13 -15 11 -17z"/>
<path fill="#000000" stroke="none" d="M247 141 c-3 -13 -1 -18 9 -14 7 2 10
11 7 19 -7 19 -10 18 -16 -5z"/>
</g>
</svg>
