<?xml version="1.0" standalone="no"?>
<!DOCTYPE svg PUBLIC "-//W3C//DTD SVG 20010904//EN"
 "http://www.w3.org/TR/2001/REC-SVG-20010904/DTD/svg10.dtd">
<svg version="1.0" xmlns="http://www.w3.org/2000/svg"
 width="32.000000pt" height="32.000000pt" viewBox="0 0 32.000000 32.000000"
 preserveAspectRatio="xMidYMid meet">
<metadata>
Created by potrace 1.16, written by Peter Selinger 2001-2019
</metadata>
<g transform="translate(0.000000,32.000000) scale(0.100000,-0.100000)"
fill="#000000" stroke="none">
<path fill="#000000" stroke="none" d="M126 301 c-12 -13 -17 -32 -15 -55 2
-19 -1 -39 -5 -43 -5 -5 -6 -2 -1 6 5 9 4 12 -3 7 -7 -4 -12 -16 -12 -27 0
-17 -6 -19 -37 -17 -35 3 -38 1 -41 -26 -2 -15 0 -26 5 -23 5 3 8 -7 5 -22 -5
-37 12 -47 44 -26 34 22 40 13 22 -33 -12 -31 -12 -39 -2 -39 7 0 11 4 8 9 -3
4 0 8 5 8 6 0 11 -5 11 -11 0 -14 139 -9 159 5 11 9 13 8 7 -2 -6 -10 -2 -13
15 -10 33 4 41 58 10 58 -16 0 -21 6 -21 24 0 14 4 28 10 31 16 10 11 34 -10
45 -17 9 -19 8 -14 -7 5 -15 4 -16 -5 -3 -9 13 -11 13 -11 -2 0 -10 6 -18 13
-18 9 0 8 -3 -2 -9 -7 -5 -10 -14 -7 -20 4 -6 5 -11 2 -11 -17 0 -24 39 -11
63 17 32 14 112 -4 130 -11 10 -11 8 -2 -10 17 -33 -10 -20 -38 17 -25 35 -51
38 -75 11z"/>
<path fill="#ffffff" stroke="none" d="M145 206 c0 -15 -4 -21 -9 -16 -5 5 -6
16 -3 24 9 22 12 20 12 -8z"/>
<path fill="#ffffff" stroke="none" d="M42 155 c0 -5 -5 -11 -11 -13 -6 -2
-11 4 -11 13 0 9 5 15 11 13 6 -2 11 -8 11 -13z"/>
</g>
</svg>
