<?xml version="1.0" standalone="no"?>
<!DOCTYPE svg PUBLIC "-//W3C//DTD SVG 20010904//EN"
 "http://www.w3.org/TR/2001/REC-SVG-20010904/DTD/svg10.dtd">
<svg version="1.0" xmlns="http://www.w3.org/2000/svg"
 width="32.000000pt" height="32.000000pt" viewBox="0 0 32.000000 32.000000"
 preserveAspectRatio="xMidYMid meet">
<metadata>
Created by potrace 1.16, written by Peter Selinger 2001-2019
</metadata>
<g transform="translate(0.000000,32.000000) scale(0.100000,-0.100000)"
fill="#000000" stroke="none">
<path fill="#000000" stroke="none" d="M63 184 l-28 -25 33 22 c17 13 32 24
32 26 0 8 -11 1 -37 -23z"/>
<path fill="#000000" stroke="none" d="M220 196 c0 -8 4 -18 10 -21 6 -4 7 1
3 11 -5 14 -3 16 11 11 10 -4 15 -3 11 3 -9 15 -35 12 -35 -4z"/>
<path fill="#000000" stroke="none" d="M130 139 c0 -5 5 -7 10 -4 6 3 10 8 10
11 0 2 -4 4 -10 4 -5 0 -10 -5 -10 -11z"/>
</g>
</svg>
