<?xml version="1.0" standalone="no"?>
<!DOCTYPE svg PUBLIC "-//W3C//DTD SVG 20010904//EN"
 "http://www.w3.org/TR/2001/REC-SVG-20010904/DTD/svg10.dtd">
<svg version="1.0" xmlns="http://www.w3.org/2000/svg"
 width="32.000000pt" height="32.000000pt" viewBox="0 0 32.000000 32.000000"
 preserveAspectRatio="xMidYMid meet">
<metadata>
Created by potrace 1.16, written by Peter Selinger 2001-2019
</metadata>
<g transform="translate(0.000000,32.000000) scale(0.100000,-0.100000)"
fill="#000000" stroke="none">
<path fill="#000000" stroke="none" d="M108 296 c-15 -8 -30 -11 -34 -8 -4 4
-4 2 -1 -4 4 -7 1 -17 -7 -23 -11 -9 -15 -9 -20 1 -3 7 -3 2 0 -11 3 -13 2
-21 -3 -18 -5 3 -10 -4 -10 -16 -1 -12 -5 -33 -8 -47 -4 -19 -3 -21 5 -10 5 8
10 22 10 30 0 23 59 90 87 101 43 16 100 -6 128 -51 13 -21 30 -42 37 -46 6
-4 2 9 -11 29 -12 20 -20 41 -16 47 4 6 3 10 -2 9 -4 -1 -25 5 -45 14 -45 21
-75 21 -110 3z"/>
<path fill="#000000" stroke="none" d="M80 229 c0 -5 5 -7 10 -4 6 3 10 8 10
11 0 2 -4 4 -10 4 -5 0 -10 -5 -10 -11z"/>
<path fill="#000000" stroke="none" d="M120 230 c0 -5 5 -10 10 -10 6 0 10 5
10 10 0 6 -4 10 -10 10 -5 0 -10 -4 -10 -10z"/>
<path fill="#000000" stroke="none" d="M120 126 c0 -2 9 -6 20 -9 11 -3 18 -1
14 4 -5 9 -34 13 -34 5z"/>
<path fill="#000000" stroke="none" d="M205 109 c-4 -6 -5 -12 -2 -15 2 -3 7
2 10 11 7 17 1 20 -8 4z"/>
<path fill="#000000" stroke="none" d="M231 94 c0 -11 3 -14 6 -6 3 7 2 16 -1
19 -3 4 -6 -2 -5 -13z"/>
<path fill="#000000" stroke="none" d="M130 96 c0 -2 7 -7 16 -10 8 -3 12 -2
9 4 -6 10 -25 14 -25 6z"/>
</g>
</svg>
