<?xml version="1.0" standalone="no"?>
<!DOCTYPE svg PUBLIC "-//W3C//DTD SVG 20010904//EN"
 "http://www.w3.org/TR/2001/REC-SVG-20010904/DTD/svg10.dtd">
<svg version="1.0" xmlns="http://www.w3.org/2000/svg"
 width="32.000000pt" height="32.000000pt" viewBox="0 0 32.000000 32.000000"
 preserveAspectRatio="xMidYMid meet">
<metadata>
Created by potrace 1.16, written by Peter Selinger 2001-2019
</metadata>
<g transform="translate(0.000000,32.000000) scale(0.100000,-0.100000)"
fill="#000000" stroke="none">
<path fill="#000000" stroke="none" d="M108 296 c-15 -8 -30 -11 -34 -8 -4 4
-4 2 -1 -4 4 -7 1 -17 -7 -23 -11 -9 -15 -9 -20 1 -3 7 -3 2 0 -11 4 -13 2
-21 -3 -18 -5 4 -10 1 -10 -6 -2 -41 -12 -118 -17 -125 -8 -13 83 -5 99 8 8 7
21 10 28 7 27 -10 39 8 18 27 -12 11 -21 14 -26 7 -3 -6 1 -11 9 -11 9 0 16
-4 16 -10 0 -6 -9 -6 -26 1 -15 5 -29 7 -32 4 -3 -3 1 -5 8 -5 26 0 -1 -13
-29 -14 -20 -1 -28 3 -26 14 2 8 4 19 4 23 1 5 5 6 10 2 5 -3 12 -1 15 4 4 5
1 13 -5 17 -8 5 -9 3 -4 -6 5 -9 4 -11 -4 -6 -6 4 -8 13 -4 19 12 20 12 38 0
34 -6 -2 -15 -18 -20 -36 -10 -39 -18 -38 -10 0 6 34 61 101 75 93 6 -4 8 -2
5 3 -11 18 39 24 79 10 25 -8 45 -25 62 -52 23 -36 23 -38 3 -21 -22 20 -23
19 -23 -14 0 -31 1 -32 25 -18 12 7 26 11 31 10 4 -2 -2 13 -14 32 -12 20 -19
40 -15 46 4 6 3 10 -2 9 -4 -1 -25 5 -45 14 -45 21 -75 21 -110 3z"/>
<path fill="#000000" stroke="none" d="M137 284 c-13 -13 5 -25 19 -13 12 10
13 9 8 -5 -4 -11 -1 -16 11 -16 11 0 15 -5 12 -14 -4 -11 1 -12 21 -7 51 14
35 41 -33 55 -17 4 -34 4 -38 0z"/>
<path fill="#000000" stroke="none" d="M85 245 c-7 -24 0 -45 17 -51 25 -8 46
11 44 39 -1 17 -7 22 -30 22 -15 1 -30 -4 -31 -10z"/>
<path fill="#ffffff" stroke="none" d="M125 210 c3 -5 -1 -10 -10 -10 -9 0
-13 5 -10 10 3 6 8 10 10 10 2 0 7 -4 10 -10z"/>
<path fill="#000000" stroke="none" d="M130 180 c-9 -6 -10 -10 -3 -10 6 0 15
5 18 10 8 12 4 12 -15 0z"/>
<path fill="#000000" stroke="none" d="M166 171 c-3 -5 1 -14 9 -21 12 -10 15
-10 15 3 0 19 -16 31 -24 18z"/>
<path fill="#000000" stroke="none" d="M270 160 c-20 -12 -5 -24 16 -12 9 5
12 12 7 15 -5 3 -15 2 -23 -3z"/>
<path fill="#000000" stroke="none" d="M209 143 c-13 -16 -12 -17 4 -4 9 7 17
15 17 17 0 8 -8 3 -21 -13z"/>
<path fill="#000000" stroke="none" d="M216 121 c-9 -10 -14 -25 -10 -35 3 -9
1 -23 -5 -30 -9 -11 -9 -16 1 -23 16 -10 69 -12 62 -2 -2 4 -15 6 -29 3 -32
-6 -39 9 -15 31 11 10 20 24 20 32 0 9 5 11 13 6 18 -11 38 -13 31 -2 -3 5 -9
7 -14 4 -5 -3 -11 -1 -15 5 -3 5 -1 10 5 10 6 0 8 5 5 10 -10 15 -30 12 -49
-9z"/>
<path fill="#ffffff" stroke="none" d="M232 100 c-6 -16 -11 -20 -16 -11 -4 6
-2 19 5 27 16 20 21 12 11 -16z"/>
<path fill="#000000" stroke="none" d="M130 96 c0 -2 7 -7 16 -10 8 -3 12 -2
9 4 -6 10 -25 14 -25 6z"/>
<path fill="#000000" stroke="none" d="M60 52 c0 -15 -4 -32 -10 -38 -7 -7 -2
-10 15 -10 13 0 22 2 20 5 -3 2 2 9 9 15 10 8 12 18 5 34 -12 32 -39 28 -39
-6z"/>
</g>
</svg>
