<?xml version="1.0" standalone="no"?>
<!DOCTYPE svg PUBLIC "-//W3C//DTD SVG 20010904//EN"
 "http://www.w3.org/TR/2001/REC-SVG-20010904/DTD/svg10.dtd">
<svg version="1.0" xmlns="http://www.w3.org/2000/svg"
 width="32.000000pt" height="32.000000pt" viewBox="0 0 32.000000 32.000000"
 preserveAspectRatio="xMidYMid meet">
<metadata>
Created by potrace 1.16, written by Peter Selinger 2001-2019
</metadata>
<g transform="translate(0.000000,32.000000) scale(0.100000,-0.100000)"
fill="#000000" stroke="none">
<path fill="#000000" stroke="none" d="M0 160 l0 -160 160 0 160 0 0 160 0
160 -160 0 -160 0 0 -160z"/>
<path fill="#ffffff" stroke="none" d="M67 278 c13 -12 23 -31 23 -42 1 -12 7
-32 14 -45 l14 -25 7 35 c5 19 10 28 12 22 6 -17 30 -17 36 0 2 6 7 -3 11 -21
l8 -33 19 25 c10 13 19 32 19 42 0 24 39 64 63 64 19 0 19 -1 4 -18 -9 -10
-18 -38 -19 -63 -2 -30 -11 -52 -26 -67 -12 -12 -22 -26 -22 -32 0 -5 -7 -7
-15 -4 -14 6 -49 -19 -40 -28 2 -2 -6 -4 -20 -4 -13 0 -22 3 -20 6 6 10 -42
33 -53 26 -13 -8 -34 47 -39 103 -2 25 -11 53 -20 63 -15 17 -15 18 2 18 10 0
29 -10 42 -22z"/>
</g>
</svg>
