<?xml version="1.0" standalone="no"?>
<!DOCTYPE svg PUBLIC "-//W3C//DTD SVG 20010904//EN"
 "http://www.w3.org/TR/2001/REC-SVG-20010904/DTD/svg10.dtd">
<svg version="1.0" xmlns="http://www.w3.org/2000/svg"
 width="32.000000pt" height="32.000000pt" viewBox="0 0 32.000000 32.000000"
 preserveAspectRatio="xMidYMid meet">
<metadata>
Created by potrace 1.16, written by Peter Selinger 2001-2019
</metadata>
<g transform="translate(0.000000,32.000000) scale(0.100000,-0.100000)"
fill="#000000" stroke="none">
<path fill="#000000" stroke="none" d="M0 160 l0 -160 160 0 160 0 0 160 0
160 -160 0 -160 0 0 -160z"/>
<path fill="#ffffff" stroke="none" d="M67 278 c13 -12 23 -31 23 -42 1 -12 7
-32 14 -45 l14 -25 7 35 c5 19 10 28 12 22 6 -17 30 -17 36 0 2 6 7 -3 11 -21
l8 -33 19 25 c10 13 19 32 19 42 0 24 39 64 63 64 19 0 19 -1 4 -18 -9 -10
-18 -38 -19 -63 -2 -30 -11 -52 -26 -67 -12 -12 -22 -26 -22 -32 0 -5 -7 -7
-15 -4 -14 6 -49 -19 -40 -28 2 -2 -6 -4 -20 -4 -13 0 -22 3 -20 6 6 10 -42
33 -53 26 -13 -8 -34 47 -39 103 -2 25 -11 53 -20 63 -15 17 -15 18 2 18 10 0
29 -10 42 -22z"/>
<path fill="#000000" stroke="none" d="M43 265 c11 -23 37 -35 37 -17 0 10
-33 42 -42 42 -4 0 -1 -11 5 -25z"/>
<path fill="#000000" stroke="none" d="M257 272 c-20 -22 -21 -32 -4 -32 6 0
17 11 24 25 13 29 3 33 -20 7z"/>
<path fill="#000000" stroke="none" d="M54 208 c5 -35 18 -78 23 -78 16 0 30
36 21 53 -8 15 -12 16 -26 6 -14 -11 -15 -11 -4 1 16 19 15 40 -2 40 -9 0 -14
-8 -12 -22z"/>
<path fill="#000000" stroke="none" d="M240 217 c0 -7 6 -19 13 -27 10 -12 9
-12 -7 0 -16 13 -20 12 -31 -4 -11 -14 -11 -23 -3 -36 11 -17 13 -16 32 7 24
32 30 73 10 73 -8 0 -14 -6 -14 -13z"/>
<path fill="#000000" stroke="none" d="M133 193 c4 -3 -3 -17 -15 -31 l-23
-24 24 -19 c29 -24 40 -23 70 2 l24 20 -22 23 c-11 12 -18 26 -14 29 3 4 -6 7
-22 7 -16 0 -25 -3 -22 -7z"/>
<path fill="#ffffff" stroke="none" d="M166 147 c0 -13 -5 -24 -11 -24 -6 0
-11 11 -11 24 0 13 5 23 11 23 6 0 11 -10 11 -23z"/>
</g>
</svg>
