<?xml version="1.0" standalone="no"?>
<!DOCTYPE svg PUBLIC "-//W3C//DTD SVG 20010904//EN"
 "http://www.w3.org/TR/2001/REC-SVG-20010904/DTD/svg10.dtd">
<svg version="1.0" xmlns="http://www.w3.org/2000/svg"
 width="32.000000pt" height="32.000000pt" viewBox="0 0 32.000000 32.000000"
 preserveAspectRatio="xMidYMid meet">
<metadata>
Created by potrace 1.16, written by Peter Selinger 2001-2019
</metadata>
<g transform="translate(0.000000,32.000000) scale(0.100000,-0.100000)"
fill="#000000" stroke="none">
<path fill="#000000" stroke="none" d="M0 160 l0 -160 160 0 160 0 0 160 0
160 -160 0 -160 0 0 -160z"/>
<path fill="#ffffff" stroke="none" d="M45 283 c-4 -10 -9 -29 -10 -42 -3 -17
-1 -21 8 -12 6 6 22 11 36 11 24 0 24 0 5 -15 -17 -14 -17 -14 10 -3 l29 12
-26 11 -25 10 24 22 c13 12 24 18 24 13 0 -4 8 -6 18 -4 9 3 32 -7 51 -21 19
-14 48 -25 63 -25 21 0 32 -7 40 -26 11 -23 10 -29 -10 -44 -12 -10 -22 -22
-22 -26 0 -4 3 -4 7 -1 3 4 12 2 20 -5 11 -9 12 -7 8 8 -4 14 -2 13 6 -3 7
-12 8 -34 4 -50 -6 -24 -8 -26 -16 -10 -6 10 -14 15 -19 12 -5 -3 -11 -1 -14
3 -3 5 -17 7 -31 4 -19 -3 -28 -13 -33 -36 -3 -17 -5 -35 -4 -39 6 -20 -40 17
-50 41 -7 15 -18 34 -26 43 -11 15 -10 19 10 33 12 9 18 16 13 16 -6 0 -2 7 8
14 10 8 17 18 16 22 -1 5 -1 11 1 14 10 28 6 47 -13 59 -21 13 -21 13 -6 -5
19 -23 18 -32 -3 -62 -9 -14 -19 -19 -22 -13 -8 12 -36 3 -36 -11 0 -6 7 -7
16 -4 11 4 10 -2 -6 -25 -27 -37 -46 -33 -43 9 3 33 -14 53 -27 31 -5 -8 -7 3
-5 27 1 23 9 51 16 62 17 26 24 29 14 5z"/>
<path fill="#ffffff" stroke="none" d="M106 95 c1 -8 -2 -13 -7 -9 -5 3 -12
-2 -15 -10 -8 -20 -24 -11 -24 14 0 10 8 20 18 22 20 5 25 2 28 -17z"/>
<path fill="#ffffff" stroke="none" d="M98 33 c-15 -15 -16 -15 -13 3 2 10 4
23 4 29 1 5 6 4 13 -3 10 -9 9 -16 -4 -29z"/>
<path fill="#ffffff" stroke="none" d="M235 61 c3 -5 2 -12 -3 -15 -5 -3 -9 1
-9 9 0 17 3 19 12 6z"/>
<path fill="#ffffff" stroke="none" d="M281 47 c-13 -13 -26 -3 -16 12 3 6 11
8 17 5 6 -4 6 -10 -1 -17z"/>
<path fill="#000000" stroke="none" d="M110 271 c0 -6 4 -13 10 -16 6 -3 7 1
4 9 -7 18 -14 21 -14 7z"/>
</g>
</svg>
