<?xml version="1.0" standalone="no"?>
<!DOCTYPE svg PUBLIC "-//W3C//DTD SVG 20010904//EN"
 "http://www.w3.org/TR/2001/REC-SVG-20010904/DTD/svg10.dtd">
<svg version="1.0" xmlns="http://www.w3.org/2000/svg"
 width="32.000000pt" height="32.000000pt" viewBox="0 0 32.000000 32.000000"
 preserveAspectRatio="xMidYMid meet">
<metadata>
Created by potrace 1.16, written by Peter Selinger 2001-2019
</metadata>
<g transform="translate(0.000000,32.000000) scale(0.100000,-0.100000)"
fill="#000000" stroke="none">
<path fill="#000000" stroke="none" d="M250 278 c-11 -18 -20 -36 -20 -40 0
-17 11 -6 30 32 25 48 18 53 -10 8z"/>
<path fill="#000000" stroke="none" d="M170 275 c25 -27 36 -33 24 -13 -5 7
-2 9 9 5 11 -4 14 -2 11 8 -3 8 -12 11 -19 9 -7 -3 -16 -1 -20 5 -3 6 -11 11
-17 11 -6 0 -1 -11 12 -25z"/>
<path fill="#000000" stroke="none" d="M65 264 l30 -25 -30 5 c-25 5 -27 4
-12 -5 10 -6 24 -8 31 -6 7 3 17 -3 24 -13 8 -14 8 -17 -5 -16 -9 0 -17 -9
-19 -23 -4 -24 -4 -24 15 -7 11 10 25 15 31 11 9 -5 10 -1 5 14 -4 13 -2 21 6
21 9 0 8 4 -1 15 -7 8 -18 15 -25 15 -7 0 -18 6 -24 14 -6 8 -22 16 -34 20
-18 4 -17 2 8 -20z"/>
<path fill="#000000" stroke="none" d="M196 219 c-20 -29 -21 -51 -1 -25 13
17 15 17 49 -9 46 -35 47 -19 2 24 l-34 33 -16 -23z"/>
<path fill="#000000" stroke="none" d="M139 173 c-22 -45 -22 -46 -10 -38 7 4
18 -1 26 -11 13 -17 14 -15 11 24 -5 55 -9 59 -27 25z"/>
<path fill="#000000" stroke="none" d="M40 169 l-25 -20 33 16 c17 8 32 18 32
20 0 10 -16 4 -40 -16z"/>
<path fill="#000000" stroke="none" d="M208 116 c-19 -14 -25 -32 -8 -21 6 3
10 -2 11 -12 0 -14 3 -12 10 6 13 32 8 42 -13 27z"/>
<path fill="#000000" stroke="none" d="M110 98 c0 -12 3 -18 7 -14 11 10 12
36 2 36 -5 0 -9 -10 -9 -22z"/>
<path fill="#000000" stroke="none" d="M20 35 c0 -11 10 -15 33 -14 l32 2 -30
6 c-19 4 5 8 65 11 l95 6 -97 2 c-81 2 -98 -1 -98 -13z"/>
<path fill="#000000" stroke="none" d="M108 23 c7 -3 16 -2 19 1 4 3 -2 6 -13
5 -11 0 -14 -3 -6 -6z"/>
</g>
</svg>
