<?xml version="1.0" standalone="no"?>
<!DOCTYPE svg PUBLIC "-//W3C//DTD SVG 20010904//EN"
 "http://www.w3.org/TR/2001/REC-SVG-20010904/DTD/svg10.dtd">
<svg version="1.0" xmlns="http://www.w3.org/2000/svg"
 width="32.000000pt" height="32.000000pt" viewBox="0 0 32.000000 32.000000"
 preserveAspectRatio="xMidYMid meet">
<metadata>
Created by potrace 1.16, written by Peter Selinger 2001-2019
</metadata>
<g transform="translate(0.000000,32.000000) scale(0.100000,-0.100000)"
fill="#000000" stroke="none">
<path fill="#000000" stroke="none" d="M0 160 l0 -160 160 0 160 0 0 160 0
160 -160 0 -160 0 0 -160z"/>
<path fill="#ffffff" stroke="none" d="M231 296 c12 7 11 -3 -2 -28 -19 -36
-2 -30 20 8 25 42 38 39 23 -4 -9 -25 -7 -33 11 -51 18 -18 19 -21 4 -15 -16
6 -17 3 -11 -22 5 -24 4 -27 -7 -16 -19 18 -29 15 -29 -9 0 -11 4 -18 9 -15
18 11 23 -52 7 -81 l-15 -28 -1 34 c0 33 -1 34 -15 15 -13 -18 -14 -18 -15 -1
0 10 -4 15 -10 12 -5 -3 -10 -1 -10 4 0 6 5 11 10 11 6 0 10 5 10 11 0 5 -4 7
-10 4 -6 -3 -10 4 -11 17 -1 21 -1 21 -11 -5 -8 -22 -13 -25 -23 -17 -12 10
-13 5 -9 -27 5 -34 4 -36 -9 -21 -8 10 -17 15 -20 11 -4 -3 -7 -1 -7 7 0 10
-3 10 -15 0 -8 -7 -15 -9 -15 -5 0 4 -7 2 -15 -5 -28 -23 -15 2 15 30 17 15
30 24 30 19 0 -5 5 -9 11 -9 5 0 7 4 4 10 -3 5 2 22 11 37 9 15 10 21 3 13 -8
-8 -21 -16 -29 -18 -8 -2 -22 -10 -31 -18 -21 -19 -30 -18 -22 2 5 13 1 15
-18 10 -23 -6 -23 -6 -4 8 11 8 29 22 40 31 19 16 19 16 -5 5 -24 -11 -24 -10
3 13 l29 24 -34 26 -33 27 30 -9 c17 -5 39 -12 50 -17 18 -7 18 -6 6 9 -11 14
-11 17 1 17 7 0 25 -8 38 -17 l25 -17 -20 24 -20 23 28 -5 c15 -3 30 -1 34 5
5 8 8 7 11 -1 2 -7 8 -10 13 -6z"/>
<path fill="#ffffff" stroke="none" d="M85 240 c8 -13 -15 -13 -35 0 -12 8
-11 10 7 10 12 0 25 -4 28 -10z"/>
<path fill="#ffffff" stroke="none" d="M200 75 c7 -8 16 -12 21 -9 5 3 9 -2 9
-10 0 -27 20 -28 32 -2 9 20 14 23 25 15 7 -6 13 -20 13 -30 0 -18 -10 -19
-141 -19 -140 0 -140 0 -137 22 2 13 10 24 18 24 8 1 17 3 20 4 24 9 49 7 68
-6 22 -14 24 -14 29 5 6 25 25 27 43 6z"/>
<path fill="#000000" stroke="none" d="M163 240 c9 -6 17 -15 17 -20 0 -5 -8
-7 -17 -4 -15 5 -16 4 -3 -5 20 -14 23 -14 37 7 8 14 8 19 0 19 -7 0 -21 4
-32 8 -18 6 -18 5 -2 -5z"/>
<path fill="#000000" stroke="none" d="M212 180 c-1 -35 3 -37 17 -11 8 14 7
22 -3 30 -10 9 -13 5 -14 -19z"/>
</g>
</svg>
