<?xml version="1.0" standalone="no"?>
<!DOCTYPE svg PUBLIC "-//W3C//DTD SVG 20010904//EN"
 "http://www.w3.org/TR/2001/REC-SVG-20010904/DTD/svg10.dtd">
<svg version="1.0" xmlns="http://www.w3.org/2000/svg"
 width="32.000000pt" height="32.000000pt" viewBox="0 0 32.000000 32.000000"
 preserveAspectRatio="xMidYMid meet">
<metadata>
Created by potrace 1.16, written by Peter Selinger 2001-2019
</metadata>
<g transform="translate(0.000000,32.000000) scale(0.100000,-0.100000)"
fill="#000000" stroke="none">
<path fill="#000000" stroke="none" d="M2 288 c1 -15 5 -25 9 -22 4 2 9 1 12
-3 2 -5 2 -2 0 5 -5 23 8 34 25 20 13 -11 15 -11 9 4 -3 9 -1 19 6 22 7 2 -5
4 -25 3 -35 -2 -38 -4 -36 -29z"/>
<path fill="#000000" stroke="none" d="M90 266 c0 -2 6 -9 14 -15 10 -9 15 -8
19 2 3 8 -3 13 -14 14 -10 1 -19 0 -19 -1z"/>
<path fill="#000000" stroke="none" d="M4 217 c1 -16 6 -32 11 -34 14 -4 13
55 -1 61 -7 3 -11 -7 -10 -27z"/>
</g>
</svg>
