<?xml version="1.0" standalone="no"?>
<!DOCTYPE svg PUBLIC "-//W3C//DTD SVG 20010904//EN"
 "http://www.w3.org/TR/2001/REC-SVG-20010904/DTD/svg10.dtd">
<svg version="1.0" xmlns="http://www.w3.org/2000/svg"
 width="32.000000pt" height="32.000000pt" viewBox="0 0 32.000000 32.000000"
 preserveAspectRatio="xMidYMid meet">
<metadata>
Created by potrace 1.16, written by Peter Selinger 2001-2019
</metadata>
<g transform="translate(0.000000,32.000000) scale(0.100000,-0.100000)"
fill="#000000" stroke="none">
<path fill="#000000" stroke="none" d="M193 306 c-25 -12 -32 -32 -8 -22 8 3
15 1 15 -4 0 -6 -5 -10 -12 -10 -6 0 -8 -3 -5 -6 4 -4 13 -1 22 6 12 10 15 10
15 -4 0 -9 5 -16 12 -16 9 0 9 -3 1 -11 -8 -8 -17 -8 -33 1 -18 10 -21 9 -18
-2 3 -7 15 -14 27 -16 12 -2 21 -8 19 -14 -2 -5 -7 -8 -11 -6 -5 2 -13 -5 -18
-14 -6 -10 -17 -18 -24 -18 -18 0 -20 -16 -3 -26 8 -5 6 -10 -8 -15 -17 -7
-17 -8 -1 -8 20 -1 23 -21 5 -39 -15 -15 -3 -16 23 -1 17 9 21 7 26 -10 6 -24
4 -24 38 -11 18 7 33 7 46 0 15 -9 19 -7 19 6 0 10 -3 14 -7 11 -3 -4 -12 -2
-20 4 -7 6 -13 8 -13 3 0 -10 -29 28 -30 39 0 4 16 7 35 7 29 0 35 4 35 21 0
17 -3 19 -13 10 -16 -12 -75 -21 -95 -13 -10 3 -9 9 4 23 9 10 21 16 26 13 4
-3 8 -2 7 3 -1 4 1 16 5 25 6 13 13 15 33 7 31 -11 33 -11 33 1 0 6 -7 10 -15
10 -18 0 -20 20 -2 20 6 0 4 5 -6 11 -14 8 -16 14 -6 25 6 7 15 11 20 8 5 -3
9 2 9 10 0 19 -31 21 -48 4 -7 -7 -12 -8 -12 -3 0 5 -6 1 -13 -9 -9 -12 -19
-15 -32 -10 -19 8 -18 9 5 14 17 4 20 8 10 11 -8 3 -25 0 -37 -5z"/>
<path fill="#ffffff" stroke="none" d="M270 250 c0 -5 -5 -10 -11 -10 -5 0 -7
5 -4 10 3 6 8 10 11 10 2 0 4 -4 4 -10z"/>
<path fill="#ffffff" stroke="none" d="M256 82 c-4 -3 -11 0 -16 8 -6 8 -10
11 -10 7 0 -5 -5 -5 -11 -1 -8 4 -7 9 2 14 14 9 46 -17 35 -28z"/>
<path fill="#000000" stroke="none" d="M131 194 c-12 -14 -11 -16 4 -12 10 1
20 9 23 16 5 17 -10 15 -27 -4z"/>
<path fill="#000000" stroke="none" d="M175 30 c-5 -8 -4 -11 3 -6 6 3 15 -1
20 -11 8 -14 13 -15 25 -4 12 9 21 10 37 1 12 -6 26 -9 33 -7 14 5 -35 27 -79
34 -20 3 -34 0 -39 -7z"/>
</g>
</svg>
