<?xml version="1.0" standalone="no"?>
<!DOCTYPE svg PUBLIC "-//W3C//DTD SVG 20010904//EN"
 "http://www.w3.org/TR/2001/REC-SVG-20010904/DTD/svg10.dtd">
<svg version="1.0" xmlns="http://www.w3.org/2000/svg"
 width="32.000000pt" height="32.000000pt" viewBox="0 0 32.000000 32.000000"
 preserveAspectRatio="xMidYMid meet">
<metadata>
Created by potrace 1.16, written by Peter Selinger 2001-2019
</metadata>
<g transform="translate(0.000000,32.000000) scale(0.100000,-0.100000)"
fill="#000000" stroke="none">
<path fill="#000000" stroke="none" d="M24 300 c1 -8 -4 -14 -10 -13 -20 4
-10 -31 15 -54 l24 -22 -26 3 c-15 2 -27 2 -27 0 0 -2 14 -17 30 -33 26 -24
28 -30 14 -35 -9 -4 -14 -9 -11 -13 9 -8 -13 -34 -23 -28 -16 10 -2 -67 16
-86 21 -23 64 -28 45 -5 -8 10 -9 16 -1 21 14 9 9 39 -8 45 -10 4 -9 11 6 28
10 12 21 20 23 17 3 -2 6 7 7 20 1 13 -3 27 -8 30 -6 4 -7 11 -4 17 4 5 -3 23
-15 39 -23 30 -27 44 -11 34 5 -3 7 0 4 8 -3 8 -1 18 5 22 21 12 11 25 -18 23
-18 -1 -28 -7 -27 -18z"/>
<path fill="#000000" stroke="none" d="M122 260 c0 -19 2 -27 5 -17 2 9 2 25
0 35 -3 9 -5 1 -5 -18z"/>
<path fill="#000000" stroke="none" d="M132 200 c0 -14 2 -19 5 -12 2 6 2 18
0 25 -3 6 -5 1 -5 -13z"/>
<path fill="#000000" stroke="none" d="M125 121 c-3 -5 -1 -12 5 -16 5 -3 10
1 10 9 0 18 -6 21 -15 7z"/>
<path fill="#000000" stroke="none" d="M118 73 c-2 -10 -1 -31 3 -48 6 -26 7
-23 8 18 1 48 -3 61 -11 30z"/>
</g>
</svg>
