<?xml version="1.0" standalone="no"?>
<!DOCTYPE svg PUBLIC "-//W3C//DTD SVG 20010904//EN"
 "http://www.w3.org/TR/2001/REC-SVG-20010904/DTD/svg10.dtd">
<svg version="1.0" xmlns="http://www.w3.org/2000/svg"
 width="32.000000pt" height="32.000000pt" viewBox="0 0 32.000000 32.000000"
 preserveAspectRatio="xMidYMid meet">
<metadata>
Created by potrace 1.16, written by Peter Selinger 2001-2019
</metadata>
<g transform="translate(0.000000,32.000000) scale(0.100000,-0.100000)"
fill="#000000" stroke="none">
<path fill="#000000" stroke="none" d="M60 293 c0 -13 -5 -23 -11 -23 -6 0 -8
7 -5 16 6 15 4 15 -10 3 -15 -12 -14 -14 4 -22 17 -8 20 -17 18 -59 -2 -37 1
-47 11 -44 7 3 13 1 13 -3 0 -5 -7 -11 -15 -15 -17 -6 -20 -26 -4 -26 5 0 7 4
4 10 -3 6 -1 10 4 10 16 0 13 -20 -4 -26 -8 -4 -12 -11 -9 -16 4 -6 -2 -5 -14
1 -32 17 -50 13 -27 -6 16 -13 17 -15 3 -10 -12 4 -18 1 -18 -9 0 -15 11 -22
45 -27 11 -1 26 -6 33 -10 7 -5 21 -6 31 -2 14 4 19 1 17 -12 -1 -22 30 -25
87 -8 28 9 42 18 41 29 -1 9 2 16 7 16 5 0 9 5 9 11 0 5 -6 7 -12 3 -9 -5 -9
-2 1 9 7 9 21 17 30 17 14 1 14 2 -2 11 -9 5 -21 8 -26 5 -4 -3 -6 5 -4 19 5
25 31 54 48 54 17 -1 17 21 0 27 -9 4 -24 -1 -35 -11 -18 -16 -20 -16 -49 1
l-30 18 31 13 c24 10 40 11 61 3 17 -5 32 -10 35 -10 2 0 -13 18 -34 39 -37
37 -40 38 -58 23 -11 -10 -16 -11 -12 -4 10 16 -34 33 -51 20 -9 -7 -13 -7
-13 1 0 8 -16 11 -45 10 -40 -2 -45 -5 -45 -26z"/>
<path fill="#ffffff" stroke="none" d="M170 279 c0 -5 8 -10 18 -10 16 -1 16
-2 0 -6 -10 -2 -18 -10 -18 -17 0 -7 -10 -12 -22 -12 -26 1 -59 26 -52 38 3 5
12 3 20 -3 9 -7 14 -8 13 -3 -3 16 1 20 21 21 11 1 20 -2 20 -8z"/>
<path fill="#ffffff" stroke="none" d="M126 219 c3 -6 17 -8 31 -4 18 4 23 2
17 -6 -5 -8 -2 -10 8 -6 11 4 15 1 13 -11 -2 -9 -4 -19 -4 -22 -1 -3 -5 1 -10
8 -6 11 -13 8 -28 -11 -13 -17 -24 -23 -33 -17 -8 5 -18 6 -22 4 -4 -3 -6 5
-4 18 3 13 5 31 5 41 1 19 16 23 27 6z"/>
<path fill="#ffffff" stroke="none" d="M220 75 c0 -16 -2 -17 -10 -5 -8 12
-10 12 -16 -3 -3 -9 -11 -14 -16 -11 -6 4 -5 10 3 15 10 6 10 9 2 9 -15 0 -26
-17 -27 -43 -1 -11 -7 -22 -15 -25 -9 -3 -11 0 -7 7 4 7 3 17 -2 24 -18 23 -7
60 19 64 13 2 25 8 27 13 6 15 42 -23 42 -45z"/>
<path fill="#000000" stroke="none" d="M145 90 c-3 -6 1 -7 9 -4 18 7 21 14 7
14 -6 0 -13 -4 -16 -10z"/>
<path fill="#000000" stroke="none" d="M0 246 c0 -6 11 -11 25 -11 14 0 24 5
22 10 -5 14 -47 15 -47 1z"/>
<path fill="#000000" stroke="none" d="M0 185 c0 -12 29 -54 30 -45 8 35 7 38
-8 32 -14 -5 -15 -3 -5 9 10 13 10 16 -2 16 -8 0 -15 -5 -15 -12z"/>
<path fill="#000000" stroke="none" d="M299 86 c-14 -10 -15 -14 -3 -30 12
-17 13 -17 20 8 8 33 4 38 -17 22z"/>
</g>
</svg>
