<?xml version="1.0" standalone="no"?>
<!DOCTYPE svg PUBLIC "-//W3C//DTD SVG 20010904//EN"
 "http://www.w3.org/TR/2001/REC-SVG-20010904/DTD/svg10.dtd">
<svg version="1.0" xmlns="http://www.w3.org/2000/svg"
 width="32.000000pt" height="32.000000pt" viewBox="0 0 32.000000 32.000000"
 preserveAspectRatio="xMidYMid meet">
<metadata>
Created by potrace 1.16, written by Peter Selinger 2001-2019
</metadata>
<g transform="translate(0.000000,32.000000) scale(0.100000,-0.100000)"
fill="#000000" stroke="none">
<path fill="#000000" stroke="none" d="M0 298 c0 -9 5 -20 10 -23 6 -3 10 -2
10 4 0 6 12 17 28 25 l27 15 -37 -2 c-28 -1 -38 -6 -38 -19z"/>
<path fill="#000000" stroke="none" d="M115 295 c25 -20 27 -26 16 -37 -11
-11 -13 -10 -6 2 5 8 5 12 0 8 -4 -4 -16 -3 -26 3 -13 6 -19 6 -19 -1 0 -5 7
-10 15 -10 22 0 18 -28 -5 -35 -10 -3 -28 -1 -39 4 -27 15 -53 3 -49 -23 2
-15 10 -21 31 -22 15 -1 30 3 34 9 4 6 -4 7 -21 3 -15 -4 -26 -2 -26 4 0 5 10
10 23 10 23 0 67 -46 67 -70 0 -7 6 -8 19 -1 10 6 36 8 57 5 22 -3 34 -2 27 3
-8 6 -2 19 21 44 25 27 38 34 52 28 27 -11 34 -10 34 1 0 6 -7 10 -15 10 -18
0 -20 20 -2 20 6 0 4 5 -6 11 -14 8 -16 14 -6 25 6 7 15 11 20 8 5 -3 9 2 9
10 0 19 -31 21 -48 4 -7 -7 -12 -8 -12 -3 0 5 -6 1 -13 -9 -8 -11 -19 -15 -30
-10 -14 5 -15 9 -6 20 10 12 7 12 -16 0 -23 -12 -30 -12 -53 0 -44 23 -60 16
-27 -11z"/>
<path fill="#ffffff" stroke="none" d="M225 272 c29 -5 31 -10 13 -28 -14 -14
-19 -14 -49 1 -31 17 -32 18 -14 31 10 8 21 11 24 6 3 -4 15 -9 26 -10z"/>
<path fill="#ffffff" stroke="none" d="M230 209 c0 -9 -27 -30 -42 -33 -7 -1
-18 -5 -24 -8 -15 -10 -52 1 -58 18 -3 7 6 22 19 32 21 17 30 18 65 9 22 -6
40 -14 40 -18z"/>
<path fill="#000000" stroke="none" d="M133 207 c3 -9 1 -18 -6 -20 -7 -3 5
-4 25 -3 21 0 38 2 38 3 0 1 -14 10 -31 19 -28 14 -31 14 -26 1z"/>
<path fill="#000000" stroke="none" d="M295 190 c-16 -7 -17 -9 -3 -9 9 -1 20
4 23 9 7 11 7 11 -20 0z"/>
</g>
</svg>
