<?xml version="1.0" standalone="no"?>
<!DOCTYPE svg PUBLIC "-//W3C//DTD SVG 20010904//EN"
 "http://www.w3.org/TR/2001/REC-SVG-20010904/DTD/svg10.dtd">
<svg version="1.0" xmlns="http://www.w3.org/2000/svg"
 width="32.000000pt" height="32.000000pt" viewBox="0 0 32.000000 32.000000"
 preserveAspectRatio="xMidYMid meet">
<metadata>
Created by potrace 1.16, written by Peter Selinger 2001-2019
</metadata>
<g transform="translate(0.000000,32.000000) scale(0.100000,-0.100000)"
fill="#000000" stroke="none">
<path fill="#000000" stroke="none" d="M56 302 c-4 -11 -18 -23 -31 -26 -14
-4 -25 -14 -25 -22 0 -13 3 -14 13 -5 10 8 17 7 25 -1 9 -9 16 -8 29 5 21 18
51 8 38 -13 -5 -9 -4 -11 4 -6 6 4 18 2 26 -4 9 -7 22 -9 32 -4 10 4 26 8 36
9 9 1 26 10 37 20 18 17 21 17 46 1 28 -19 44 -15 26 7 -7 8 -8 18 -4 22 4 5
2 5 -4 2 -6 -3 -21 3 -32 14 -19 17 -22 17 -22 4 0 -10 -5 -13 -12 -9 -6 4 -8
3 -5 -3 4 -6 0 -16 -7 -22 -11 -10 -15 -8 -18 6 -3 16 -7 15 -31 -9 -15 -15
-27 -23 -27 -17 0 6 -4 8 -9 4 -5 -3 -16 3 -23 12 -7 10 -23 26 -35 36 -21 18
-21 18 -27 -1z"/>
</g>
</svg>
