<?xml version="1.0" standalone="no"?>
<!DOCTYPE svg PUBLIC "-//W3C//DTD SVG 20010904//EN"
 "http://www.w3.org/TR/2001/REC-SVG-20010904/DTD/svg10.dtd">
<svg version="1.0" xmlns="http://www.w3.org/2000/svg"
 width="32.000000pt" height="32.000000pt" viewBox="0 0 32.000000 32.000000"
 preserveAspectRatio="xMidYMid meet">
<metadata>
Created by potrace 1.16, written by Peter Selinger 2001-2019
</metadata>
<g transform="translate(0.000000,32.000000) scale(0.100000,-0.100000)"
fill="#000000" stroke="none">
<path fill="#000000" stroke="none" d="M0 299 c0 -18 2 -19 15 -9 8 7 15 16
15 21 0 5 -7 9 -15 9 -9 0 -15 -9 -15 -21z"/>
<path fill="#000000" stroke="none" d="M106 299 c9 -10 21 -16 25 -13 5 3 12
-1 15 -10 5 -12 10 -11 30 7 36 31 30 38 -31 36 -52 -2 -54 -3 -39 -20z"/>
<path fill="#000000" stroke="none" d="M219 318 c-1 -2 -3 -13 -4 -26 -2 -23
-2 -23 16 -3 11 11 19 23 19 26 0 5 -29 8 -31 3z"/>
<path fill="#000000" stroke="none" d="M272 308 c38 -25 44 -26 45 -8 1 14 -5
18 -28 18 -21 -1 -26 -4 -17 -10z"/>
<path fill="#000000" stroke="none" d="M80 257 c0 -15 -37 -20 -46 -6 -8 14
-34 -9 -34 -31 0 -10 8 -21 18 -23 16 -4 16 -5 0 -6 -16 -1 -18 -13 -18 -96
l0 -95 160 0 160 0 0 118 c0 107 -2 118 -20 130 -12 7 -26 10 -32 6 -7 -4 -8
-3 -4 4 11 18 -5 14 -26 -5 -10 -9 -26 -17 -36 -18 -9 -1 -25 -6 -35 -10 -10
-4 -23 -2 -32 5 -8 6 -19 9 -24 6 -5 -4 -13 -1 -17 5 -4 8 -3 9 4 5 7 -4 12
-3 12 2 0 6 -7 12 -15 16 -8 3 -15 0 -15 -7z"/>
<path fill="#ffffff" stroke="none" d="M87 194 c-3 -3 -12 -4 -19 -1 -8 3 -5
6 6 6 11 1 17 -2 13 -5z"/>
<path fill="#ffffff" stroke="none" d="M278 193 c-10 -2 -26 -2 -35 0 -10 3
-2 5 17 5 19 0 27 -2 18 -5z"/>
<path fill="#ffffff" stroke="none" d="M213 183 c-7 -2 -19 -2 -25 0 -7 3 -2
5 12 5 14 0 19 -2 13 -5z"/>
</g>
</svg>
