<?xml version="1.0" standalone="no"?>
<!DOCTYPE svg PUBLIC "-//W3C//DTD SVG 20010904//EN"
 "http://www.w3.org/TR/2001/REC-SVG-20010904/DTD/svg10.dtd">
<svg version="1.0" xmlns="http://www.w3.org/2000/svg"
 width="32.000000pt" height="32.000000pt" viewBox="0 0 32.000000 32.000000"
 preserveAspectRatio="xMidYMid meet">
<metadata>
Created by potrace 1.16, written by Peter Selinger 2001-2019
</metadata>
<g transform="translate(0.000000,32.000000) scale(0.100000,-0.100000)"
fill="#000000" stroke="none">
<path fill="#000000" stroke="none" d="M155 299 c-3 -10 -16 -20 -28 -22 -18
-4 -17 -5 6 -6 20 -1 27 -6 27 -22 0 -13 -4 -18 -12 -13 -7 4 -6 -1 3 -10 14
-15 24 -19 58 -25 3 -1 -4 -7 -15 -15 -14 -11 -21 -11 -26 -3 -5 7 -8 8 -8 2
0 -6 9 -18 20 -28 24 -20 27 -52 5 -43 -9 3 -19 -3 -25 -15 -6 -11 -15 -17
-21 -14 -5 4 -9 1 -9 -4 0 -6 5 -11 10 -11 6 0 10 -8 8 -18 -2 -10 2 -16 10
-14 7 1 12 -5 10 -15 -3 -16 7 -18 75 -21 l77 -3 0 161 0 161 -80 -2 c-67 -1
-80 -5 -85 -20z"/>
</g>
</svg>
