<?xml version="1.0" standalone="no"?>
<!DOCTYPE svg PUBLIC "-//W3C//DTD SVG 20010904//EN"
 "http://www.w3.org/TR/2001/REC-SVG-20010904/DTD/svg10.dtd">
<svg version="1.0" xmlns="http://www.w3.org/2000/svg"
 width="32.000000pt" height="32.000000pt" viewBox="0 0 32.000000 32.000000"
 preserveAspectRatio="xMidYMid meet">
<metadata>
Created by potrace 1.16, written by Peter Selinger 2001-2019
</metadata>
<g transform="translate(0.000000,32.000000) scale(0.100000,-0.100000)"
fill="#000000" stroke="none">
<path fill="#000000" stroke="none" d="M43 103 c-7 -2 -13 -12 -13 -20 0 -9
-6 -13 -15 -9 -26 9 -17 -25 12 -50 16 -13 37 -24 48 -23 11 0 14 3 7 6 -6 2
-9 10 -5 16 4 6 0 8 -10 4 -24 -9 -41 17 -27 43 10 18 14 19 28 8 12 -10 14
-10 8 0 -4 6 -3 12 3 12 5 0 12 -6 14 -12 3 -7 6 -3 6 10 1 17 -4 22 -21 21
-13 0 -29 -3 -35 -6z"/>
</g>
</svg>
