<?xml version="1.0" standalone="no"?>
<!DOCTYPE svg PUBLIC "-//W3C//DTD SVG 20010904//EN"
 "http://www.w3.org/TR/2001/REC-SVG-20010904/DTD/svg10.dtd">
<svg version="1.0" xmlns="http://www.w3.org/2000/svg"
 width="32.000000pt" height="32.000000pt" viewBox="0 0 32.000000 32.000000"
 preserveAspectRatio="xMidYMid meet">
<metadata>
Created by potrace 1.16, written by Peter Selinger 2001-2019
</metadata>
<g transform="translate(0.000000,32.000000) scale(0.100000,-0.100000)"
fill="#000000" stroke="none">
<path fill="#000000" stroke="none" d="M0 295 c0 -14 5 -25 10 -25 6 0 10 4
10 10 0 5 8 7 18 3 9 -3 14 -3 10 2 -4 4 -3 14 3 22 9 10 5 13 -20 13 -26 0
-31 -4 -31 -25z"/>
<path fill="#000000" stroke="none" d="M82 313 c9 -2 20 -13 23 -24 4 -13 12
-18 21 -15 8 3 13 2 10 -3 -3 -5 1 -11 9 -15 8 -3 15 -1 15 4 0 5 9 12 20 15
11 4 18 12 14 18 -3 7 1 3 10 -7 14 -17 16 -17 22 -3 3 9 10 14 15 11 5 -3 9
2 9 10 0 13 -15 16 -92 15 -51 -1 -85 -3 -76 -6z"/>
<path fill="#000000" stroke="none" d="M260 309 c0 -5 5 -7 10 -4 6 3 10 1 10
-4 0 -6 6 -11 14 -11 8 0 16 -6 19 -12 2 -7 4 -1 4 15 0 23 -4 27 -28 27 -16
0 -29 -5 -29 -11z"/>
<path fill="#000000" stroke="none" d="M80 261 c0 -14 -32 -23 -43 -12 -7 7
-15 7 -24 0 -9 -8 -13 -44 -13 -130 l0 -119 160 0 160 0 0 118 c0 107 -2 118
-20 130 -12 7 -26 10 -32 6 -7 -4 -8 -3 -4 4 11 18 -5 14 -26 -5 -10 -9 -26
-17 -36 -18 -9 -1 -25 -6 -35 -10 -10 -4 -23 -2 -32 5 -8 6 -19 9 -24 6 -5 -4
-13 -1 -17 5 -4 8 -3 9 4 5 7 -4 12 -3 12 2 0 6 -7 12 -15 16 -8 3 -15 1 -15
-3z"/>
</g>
</svg>
