<?xml version="1.0" standalone="no"?>
<!DOCTYPE svg PUBLIC "-//W3C//DTD SVG 20010904//EN"
 "http://www.w3.org/TR/2001/REC-SVG-20010904/DTD/svg10.dtd">
<svg version="1.0" xmlns="http://www.w3.org/2000/svg"
 width="32.000000pt" height="32.000000pt" viewBox="0 0 32.000000 32.000000"
 preserveAspectRatio="xMidYMid meet">
<metadata>
Created by potrace 1.16, written by Peter Selinger 2001-2019
</metadata>
<g transform="translate(0.000000,32.000000) scale(0.100000,-0.100000)"
fill="#000000" stroke="none">
<path fill="#000000" stroke="none" d="M0 306 c0 -47 26 -58 55 -26 10 12 24
19 30 16 7 -2 12 2 12 10 0 10 -14 14 -49 14 -35 0 -48 -4 -48 -14z"/>
<path fill="#000000" stroke="none" d="M223 303 c0 -9 4 -10 11 -3 14 14 26
12 26 -5 0 -8 12 -23 27 -32 l27 -18 -29 -5 -29 -5 22 -21 22 -21 -20 -23
c-19 -21 -19 -25 -5 -47 9 -12 11 -23 5 -23 -5 0 -10 -9 -10 -20 0 -11 -5 -20
-11 -20 -6 0 -9 -6 -6 -14 6 -16 -16 -28 -36 -20 -8 3 -20 -2 -27 -11 -11 -13
-4 -15 59 -15 l71 0 0 33 c0 19 -3 27 -8 20 -6 -9 -11 -7 -20 7 -10 16 -10 20
2 20 20 0 24 21 25 138 l1 103 -48 -2 c-33 -2 -49 -7 -49 -16z"/>
<path fill="#ffffff" stroke="none" d="M291 283 c13 -16 12 -17 -3 -4 -10 7
-18 15 -18 17 0 8 8 3 21 -13z"/>
<path fill="#000000" stroke="none" d="M142 285 c-15 -17 -15 -25 2 -45 15
-18 19 -63 5 -55 -5 4 -9 2 -9 -4 0 -5 14 -12 30 -16 19 -4 28 -11 23 -18 -4
-7 1 -6 10 2 10 7 16 21 15 30 -2 12 4 16 24 15 15 -1 25 3 22 8 -3 4 -9 6
-14 3 -4 -3 -11 2 -14 11 -4 12 -14 14 -37 9 -26 -6 -30 -4 -27 12 2 10 6 16
9 13 3 -3 14 1 23 9 13 11 14 16 4 22 -7 5 -16 3 -20 -4 -5 -9 -11 -7 -20 5
-11 14 -15 15 -26 3z"/>
<path fill="#ffffff" stroke="none" d="M220 216 c0 -3 -4 -8 -10 -11 -5 -3
-10 -1 -10 4 0 6 5 11 10 11 6 0 10 -2 10 -4z"/>
<path fill="#000000" stroke="none" d="M107 264 c-4 -4 -1 -14 6 -22 10 -13 9
-14 -10 -3 -13 6 -23 8 -23 4 0 -4 -5 -2 -12 5 -17 17 -31 15 -24 -4 3 -8 2
-12 -3 -9 -5 3 -12 1 -15 -4 -4 -5 -2 -12 4 -16 6 -4 7 -12 1 -22 -4 -9 -6
-25 -3 -37 5 -19 4 -19 -11 -7 -15 12 -17 11 -17 -13 0 -25 9 -30 47 -29 7 1
10 -3 7 -8 -3 -5 -2 -9 3 -9 13 1 45 50 33 50 -6 0 -8 5 -5 10 3 6 0 13 -9 16
-8 3 -17 12 -20 20 -3 8 -2 13 3 9 5 -3 17 3 27 12 10 10 21 18 25 18 15 0 21
14 12 30 -5 8 -12 12 -16 9z"/>
<path fill="#000000" stroke="none" d="M96 204 c-8 -21 -8 -21 9 -21 8 0 12 4
9 8 -2 4 1 9 8 11 8 3 6 7 -4 11 -10 3 -19 0 -22 -9z"/>
<path fill="#000000" stroke="none" d="M137 116 c-10 -25 -9 -38 3 -31 6 4 8
11 5 16 -3 5 1 6 10 2 13 -4 14 -7 3 -14 -7 -4 -13 -14 -14 -21 -3 -34 -5 -39
-14 -33 -6 3 -7 -1 -4 -9 7 -18 -7 -21 -22 -6 -5 5 -31 16 -57 24 l-47 14 0
-29 0 -29 75 1 c41 1 76 4 76 8 1 3 3 16 4 29 1 13 8 29 15 35 10 9 11 9 6 0
-3 -6 -2 -14 3 -17 5 -3 12 2 15 11 6 15 8 15 16 3 7 -12 10 -9 10 12 0 15 -5
30 -12 34 -7 4 -8 3 -4 -4 4 -7 2 -12 -3 -12 -6 0 -11 8 -12 18 0 10 -3 12 -6
5 -6 -16 -30 -17 -35 -1 -3 7 -7 5 -11 -6z"/>
<path fill="#000000" stroke="none" d="M125 60 c3 -5 8 -10 11 -10 2 0 4 5 4
10 0 6 -5 10 -11 10 -5 0 -7 -4 -4 -10z"/>
</g>
</svg>
