<?xml version="1.0" standalone="no"?>
<!DOCTYPE svg PUBLIC "-//W3C//DTD SVG 20010904//EN"
 "http://www.w3.org/TR/2001/REC-SVG-20010904/DTD/svg10.dtd">
<svg version="1.0" xmlns="http://www.w3.org/2000/svg"
 width="32.000000pt" height="32.000000pt" viewBox="0 0 32.000000 32.000000"
 preserveAspectRatio="xMidYMid meet">
<metadata>
Created by potrace 1.16, written by Peter Selinger 2001-2019
</metadata>
<g transform="translate(0.000000,32.000000) scale(0.100000,-0.100000)"
fill="#000000" stroke="none">
<path fill="#000000" stroke="none" d="M0 226 l0 -93 32 -8 c18 -4 38 -7 43
-5 6 1 16 3 23 3 6 0 12 5 12 10 0 13 144 0 148 -13 5 -13 32 -13 32 0 0 6 7
10 15 10 12 0 15 17 15 95 l0 95 -160 0 -160 0 0 -94z"/>
<path fill="#000000" stroke="none" d="M82 24 c-11 -12 -9 -14 8 -14 11 0 20
4 20 9 0 17 -15 19 -28 5z"/>
<path fill="#000000" stroke="none" d="M6 23 c-13 -14 -5 -23 19 -21 14 1 25
3 25 5 0 7 -38 21 -44 16z"/>
<path fill="#000000" stroke="none" d="M134 15 c-17 -13 -16 -14 24 -15 29 0
42 4 40 12 -6 17 -43 19 -64 3z"/>
<path fill="#000000" stroke="none" d="M301 21 c-10 -6 -10 -10 -1 -16 13 -8
24 -1 19 14 -3 6 -10 7 -18 2z"/>
</g>
</svg>
