<?xml version="1.0" standalone="no"?>
<!DOCTYPE svg PUBLIC "-//W3C//DTD SVG 20010904//EN"
 "http://www.w3.org/TR/2001/REC-SVG-20010904/DTD/svg10.dtd">
<svg version="1.0" xmlns="http://www.w3.org/2000/svg"
 width="32.000000pt" height="32.000000pt" viewBox="0 0 32.000000 32.000000"
 preserveAspectRatio="xMidYMid meet">
<metadata>
Created by potrace 1.16, written by Peter Selinger 2001-2019
</metadata>
<g transform="translate(0.000000,32.000000) scale(0.100000,-0.100000)"
fill="#000000" stroke="none">
<path fill="#000000" stroke="none" d="M0 160 l0 -160 118 0 c107 0 118 2 130
20 7 12 11 24 8 28 -3 4 4 9 15 9 44 4 49 19 49 144 l0 119 -160 0 -160 0 0
-160z"/>
<path fill="#000000" stroke="none" d="M277 30 c-23 -27 -22 -30 13 -30 25 0
30 4 30 25 0 30 -19 32 -43 5z"/>
</g>
</svg>
