<?xml version="1.0" standalone="no"?>
<!DOCTYPE svg PUBLIC "-//W3C//DTD SVG 20010904//EN"
 "http://www.w3.org/TR/2001/REC-SVG-20010904/DTD/svg10.dtd">
<svg version="1.0" xmlns="http://www.w3.org/2000/svg"
 width="32.000000pt" height="32.000000pt" viewBox="0 0 32.000000 32.000000"
 preserveAspectRatio="xMidYMid meet">
<metadata>
Created by potrace 1.16, written by Peter Selinger 2001-2019
</metadata>
<g transform="translate(0.000000,32.000000) scale(0.100000,-0.100000)"
fill="#000000" stroke="none">
<path fill="#000000" stroke="none" d="M50 306 c-5 -7 -6 -16 -2 -21 4 -4 0
-6 -8 -3 -16 5 -40 -14 -40 -33 0 -8 4 -9 13 0 9 7 17 7 24 0 11 -11 43 -2 43
12 0 4 7 6 15 3 8 -4 15 -10 15 -16 0 -5 -5 -6 -12 -2 -7 4 -8 3 -4 -5 4 -6
12 -9 17 -5 5 3 16 0 24 -6 9 -7 22 -9 32 -5 10 4 26 9 35 10 10 1 26 9 36 18
20 19 37 23 27 7 -3 -5 0 -7 8 -4 8 3 18 1 22 -5 12 -21 24 -11 22 17 -2 22
-6 28 -19 24 -10 -2 -18 1 -18 7 0 7 -4 10 -9 7 -5 -4 -12 0 -14 6 -3 8 -6 6
-6 -5 -1 -10 -5 -16 -10 -13 -5 3 -12 -2 -15 -11 -6 -14 -8 -14 -22 3 -9 10
-13 14 -10 7 4 -6 -3 -14 -14 -18 -11 -3 -20 -10 -20 -15 0 -5 -7 -7 -15 -4
-8 4 -12 10 -9 15 3 5 -2 6 -10 3 -9 -3 -17 2 -20 14 -8 24 -41 35 -56 18z"/>
</g>
</svg>
