<?xml version="1.0" standalone="no"?>
<!DOCTYPE svg PUBLIC "-//W3C//DTD SVG 20010904//EN"
 "http://www.w3.org/TR/2001/REC-SVG-20010904/DTD/svg10.dtd">
<svg version="1.0" xmlns="http://www.w3.org/2000/svg"
 width="32.000000pt" height="32.000000pt" viewBox="0 0 32.000000 32.000000"
 preserveAspectRatio="xMidYMid meet">
<metadata>
Created by potrace 1.16, written by Peter Selinger 2001-2019
</metadata>
<g transform="translate(0.000000,32.000000) scale(0.100000,-0.100000)"
fill="#000000" stroke="none">
<path fill="#000000" stroke="none" d="M63 313 c-7 -2 -9 -12 -6 -21 6 -15 4
-15 -9 -4 -19 15 -31 2 -22 -25 6 -17 6 -17 -8 0 -13 18 -14 17 -14 -6 0 -14
5 -23 11 -21 6 3 11 -8 10 -26 0 -20 -4 -29 -12 -25 -10 3 -13 -19 -13 -90 l0
-95 160 0 160 0 0 160 0 160 -115 0 c-85 0 -115 -3 -115 -12 0 -9 -3 -10 -8
-2 -4 6 -12 9 -19 7z"/>
<path fill="#ffffff" stroke="none" d="M123 253 c-4 -10 -9 -11 -19 -2 -19 15
-18 18 5 16 11 -1 17 -6 14 -14z"/>
</g>
</svg>
