<?xml version="1.0" standalone="no"?>
<!DOCTYPE svg PUBLIC "-//W3C//DTD SVG 20010904//EN"
 "http://www.w3.org/TR/2001/REC-SVG-20010904/DTD/svg10.dtd">
<svg version="1.0" xmlns="http://www.w3.org/2000/svg"
 width="32.000000pt" height="32.000000pt" viewBox="0 0 32.000000 32.000000"
 preserveAspectRatio="xMidYMid meet">
<metadata>
Created by potrace 1.16, written by Peter Selinger 2001-2019
</metadata>
<g transform="translate(0.000000,32.000000) scale(0.100000,-0.100000)"
fill="#000000" stroke="none">
<path fill="#000000" stroke="none" d="M0 250 c0 -56 3 -70 15 -70 10 0 15 10
15 34 0 19 5 38 10 41 5 3 10 -3 10 -15 0 -17 6 -20 31 -18 26 2 66 28 43 28
-5 0 -2 5 6 11 11 8 6 9 -23 5 -36 -5 -37 -4 -26 17 7 12 17 25 23 29 6 4 -15
8 -46 8 l-58 0 0 -70z"/>
</g>
</svg>
