<?xml version="1.0" standalone="no"?>
<!DOCTYPE svg PUBLIC "-//W3C//DTD SVG 20010904//EN"
 "http://www.w3.org/TR/2001/REC-SVG-20010904/DTD/svg10.dtd">
<svg version="1.0" xmlns="http://www.w3.org/2000/svg"
 width="32.000000pt" height="32.000000pt" viewBox="0 0 32.000000 32.000000"
 preserveAspectRatio="xMidYMid meet">
<metadata>
Created by potrace 1.16, written by Peter Selinger 2001-2019
</metadata>
<g transform="translate(0.000000,32.000000) scale(0.100000,-0.100000)"
fill="#000000" stroke="none">
<path fill="#000000" stroke="none" d="M55 290 c-4 -11 -10 -18 -14 -15 -5 2
-17 -3 -27 -11 -15 -12 -15 -14 -3 -11 9 3 22 0 28 -6 8 -8 11 -8 11 2 0 7 5
9 12 5 6 -4 8 -3 5 3 -16 25 23 19 52 -9 26 -25 34 -28 47 -17 8 7 26 13 39
14 14 0 31 9 40 20 13 17 16 18 25 5 5 -8 10 -11 10 -6 0 5 9 1 20 -9 11 -10
20 -13 20 -7 0 6 -5 14 -10 17 -6 4 -7 11 -4 17 4 7 2 8 -5 4 -6 -4 -19 0 -28
10 -16 15 -17 15 -24 -3 -4 -10 -14 -24 -22 -31 -13 -11 -17 -10 -24 3 -8 13
-12 13 -31 -6 -25 -23 -37 -18 -75 29 -23 27 -34 28 -42 2z"/>
</g>
</svg>
