<?xml version="1.0" standalone="no"?>
<!DOCTYPE svg PUBLIC "-//W3C//DTD SVG 20010904//EN"
 "http://www.w3.org/TR/2001/REC-SVG-20010904/DTD/svg10.dtd">
<svg version="1.0" xmlns="http://www.w3.org/2000/svg"
 width="32.000000pt" height="32.000000pt" viewBox="0 0 32.000000 32.000000"
 preserveAspectRatio="xMidYMid meet">
<metadata>
Created by potrace 1.16, written by Peter Selinger 2001-2019
</metadata>
<g transform="translate(0.000000,32.000000) scale(0.100000,-0.100000)"
fill="#000000" stroke="none">
<path fill="#000000" stroke="none" d="M33 314 c7 -8 87 -7 95 0 3 3 -19 6
-48 6 -29 0 -51 -3 -47 -6z"/>
<path fill="#000000" stroke="none" d="M173 313 c15 -2 39 -2 55 0 15 2 2 4
-28 4 -30 0 -43 -2 -27 -4z"/>
<path fill="#000000" stroke="none" d="M310 300 c0 -19 -7 -20 -155 -20 l-155
0 0 -140 0 -140 160 0 160 0 0 160 c0 88 -2 160 -5 160 -3 0 -5 -9 -5 -20z"/>
</g>
</svg>
