<?xml version="1.0" standalone="no"?>
<!DOCTYPE svg PUBLIC "-//W3C//DTD SVG 20010904//EN"
 "http://www.w3.org/TR/2001/REC-SVG-20010904/DTD/svg10.dtd">
<svg version="1.0" xmlns="http://www.w3.org/2000/svg"
 width="32.000000pt" height="32.000000pt" viewBox="0 0 32.000000 32.000000"
 preserveAspectRatio="xMidYMid meet">
<metadata>
Created by potrace 1.16, written by Peter Selinger 2001-2019
</metadata>
<g transform="translate(0.000000,32.000000) scale(0.100000,-0.100000)"
fill="#000000" stroke="none">
<path fill="#000000" stroke="none" d="M140 27 c0 -5 -7 -7 -15 -3 -18 6 -45
-2 -45 -15 0 -5 39 -9 86 -9 60 0 85 3 82 12 -2 6 -18 12 -35 12 -17 1 -29 -2
-27 -6 3 -4 -2 -5 -10 -2 -9 3 -14 9 -11 13 2 4 -2 8 -10 8 -8 0 -15 -5 -15
-10z"/>
</g>
</svg>
