<?xml version="1.0" standalone="no"?>
<!DOCTYPE svg PUBLIC "-//W3C//DTD SVG 20010904//EN"
 "http://www.w3.org/TR/2001/REC-SVG-20010904/DTD/svg10.dtd">
<svg version="1.0" xmlns="http://www.w3.org/2000/svg"
 width="32.000000pt" height="32.000000pt" viewBox="0 0 32.000000 32.000000"
 preserveAspectRatio="xMidYMid meet">
<metadata>
Created by potrace 1.16, written by Peter Selinger 2001-2019
</metadata>
<g transform="translate(0.000000,32.000000) scale(0.100000,-0.100000)"
fill="#000000" stroke="none">
<path fill="#000000" stroke="none" d="M70 303 c0 -9 3 -13 7 -10 3 4 13 1 21
-6 13 -10 14 -9 7 3 -4 8 4 4 19 -10 15 -14 26 -20 24 -15 -2 6 0 10 3 10 4 0
16 8 27 18 12 11 22 14 26 8 7 -12 36 -4 36 10 0 5 -38 9 -85 9 -73 0 -85 -2
-85 -17z"/>
</g>
</svg>
