<?xml version="1.0" standalone="no"?>
<!DOCTYPE svg PUBLIC "-//W3C//DTD SVG 20010904//EN"
 "http://www.w3.org/TR/2001/REC-SVG-20010904/DTD/svg10.dtd">
<svg version="1.0" xmlns="http://www.w3.org/2000/svg"
 width="32.000000pt" height="32.000000pt" viewBox="0 0 32.000000 32.000000"
 preserveAspectRatio="xMidYMid meet">
<metadata>
Created by potrace 1.16, written by Peter Selinger 2001-2019
</metadata>
<g transform="translate(0.000000,32.000000) scale(0.100000,-0.100000)"
fill="#000000" stroke="none">
<path fill="#000000" stroke="none" d="M97 313 c-10 -9 5 -33 16 -26 5 3 7 1
3 -5 -3 -6 -3 -13 2 -16 4 -2 9 6 10 19 1 21 -19 40 -31 28z"/>
<path fill="#000000" stroke="none" d="M232 314 c3 -8 -6 -16 -14 -13 -24 8
-58 7 -58 -1 0 -5 8 -10 18 -11 39 -1 58 -9 74 -29 11 -14 26 -20 40 -18 22 4
22 4 -4 18 -16 7 -28 19 -28 25 0 7 -7 18 -16 25 -8 8 -14 9 -12 4z"/>
<path fill="#000000" stroke="none" d="M60 280 c-9 -18 -8 -20 15 -20 27 0 28
1 19 24 -8 22 -21 20 -34 -4z"/>
<path fill="#000000" stroke="none" d="M196 249 c-11 -10 -16 -22 -13 -26 4
-3 7 -1 7 5 0 13 27 12 48 -2 7 -4 16 -5 20 -1 3 3 0 10 -8 15 -8 6 -10 10 -5
10 6 0 3 5 -5 10 -20 13 -22 12 -44 -11z"/>
<path fill="#000000" stroke="none" d="M0 244 c0 -7 11 -11 24 -10 13 0 22 6
19 11 -5 15 -43 13 -43 -1z"/>
<path fill="#000000" stroke="none" d="M136 232 c-3 -6 -3 -17 0 -26 4 -12 2
-15 -9 -10 -8 3 -18 1 -21 -4 -3 -6 -15 -8 -26 -5 -11 3 -20 0 -20 -6 0 -6 7
-11 15 -11 8 0 15 -7 15 -15 0 -8 6 -15 13 -15 7 -1 4 -7 -7 -15 -34 -26 -29
-94 7 -95 13 0 8 27 -8 40 -8 7 -15 18 -14 24 0 8 2 8 5 0 3 -7 14 -9 25 -7
16 5 18 8 7 15 -9 7 -7 8 9 5 13 -3 26 -1 29 4 3 5 10 7 15 3 7 -4 9 5 7 22
-2 17 -10 28 -20 30 -10 1 -18 -2 -18 -7 0 -5 -6 -9 -14 -9 -17 0 -29 27 -16
35 6 4 10 -2 10 -11 0 -16 2 -16 19 2 10 10 17 27 15 38 -4 24 -10 30 -18 18z"/>
<path fill="#000000" stroke="none" d="M222 176 c3 -15 3 -24 0 -21 -8 8 -32
-16 -32 -32 0 -8 4 -12 9 -8 12 7 33 -29 23 -40 -4 -5 0 -6 9 -2 9 3 22 0 29
-6 10 -9 11 -7 5 11 -5 16 -2 22 10 22 9 0 13 5 10 10 -4 6 -14 9 -22 8 -9 -2
-18 3 -21 11 -3 8 0 11 7 7 15 -10 14 7 -1 23 -11 10 -10 11 3 6 9 -3 22 1 29
10 10 13 9 15 -8 15 -11 0 -28 3 -38 7 -14 5 -16 2 -12 -21z"/>
<path fill="#000000" stroke="none" d="M13 96 c12 -9 14 -16 8 -21 -19 -11
-12 -21 15 -23 22 -2 24 0 14 13 -6 8 -9 18 -6 24 3 5 -1 12 -10 15 -28 11
-40 6 -21 -8z"/>
<path fill="#000000" stroke="none" d="M288 68 c9 -9 15 -9 24 0 9 9 7 12 -12
12 -19 0 -21 -3 -12 -12z"/>
<path fill="#000000" stroke="none" d="M160 42 c0 -25 9 -32 29 -22 9 5 24 11
34 14 25 8 21 21 -8 21 -14 0 -25 -3 -25 -7 0 -5 -5 -8 -11 -8 -5 0 -7 5 -4
10 3 6 1 10 -4 10 -6 0 -11 -8 -11 -18z"/>
</g>
</svg>
