<?xml version="1.0" standalone="no"?>
<!DOCTYPE svg PUBLIC "-//W3C//DTD SVG 20010904//EN"
 "http://www.w3.org/TR/2001/REC-SVG-20010904/DTD/svg10.dtd">
<svg version="1.0" xmlns="http://www.w3.org/2000/svg"
 width="32.000000pt" height="32.000000pt" viewBox="0 0 32.000000 32.000000"
 preserveAspectRatio="xMidYMid meet">
<metadata>
Created by potrace 1.16, written by Peter Selinger 2001-2019
</metadata>
<g transform="translate(0.000000,32.000000) scale(0.100000,-0.100000)"
fill="#000000" stroke="none">
<path fill="#000000" stroke="none" d="M78 301 c-23 -23 -23 -44 0 -39 9 2 16
9 15 15 -2 7 6 10 16 8 12 -2 21 3 24 16 7 25 -31 25 -55 0z"/>
<path fill="#000000" stroke="none" d="M160 300 c0 -5 5 -10 11 -10 5 0 7 -4
4 -10 -3 -5 -1 -10 4 -10 6 0 11 4 11 9 0 15 33 5 75 -23 21 -15 41 -24 44
-21 6 7 -58 59 -74 61 -5 1 -12 3 -15 4 -22 8 -60 9 -60 0z"/>
<path fill="#000000" stroke="none" d="M205 260 c-3 -5 -12 -7 -20 -3 -17 6
-19 -5 -5 -27 6 -9 10 -10 10 -3 0 6 10 13 22 15 25 3 37 28 14 28 -8 0 -17
-4 -21 -10z"/>
<path fill="#000000" stroke="none" d="M0 245 c0 -5 11 -10 24 -10 13 0 22 5
19 10 -2 6 -12 11 -23 11 -11 0 -20 -5 -20 -11z"/>
<path fill="#000000" stroke="none" d="M60 235 c0 -8 5 -15 10 -15 6 0 10 7
10 15 0 8 -4 15 -10 15 -5 0 -10 -7 -10 -15z"/>
<path fill="#000000" stroke="none" d="M141 224 c0 -11 3 -14 6 -6 3 7 2 16
-1 19 -3 4 -6 -2 -5 -13z"/>
<path fill="#000000" stroke="none" d="M80 210 c-13 -8 -12 -10 3 -10 9 0 17
5 17 10 0 12 -1 12 -20 0z"/>
<path fill="#000000" stroke="none" d="M204 188 c5 -42 4 -44 -17 -24 -13 13
-17 13 -33 -2 -12 -12 -29 -16 -48 -14 -20 3 -27 1 -22 -7 4 -6 13 -9 19 -5 7
3 2 -3 -9 -13 -21 -18 -33 -90 -13 -78 5 4 9 1 9 -4 0 -6 5 -11 10 -11 14 0
12 27 -2 34 -10 3 -8 9 4 19 10 8 15 17 11 20 -3 4 5 7 18 8 22 0 23 1 4 9
-19 8 -19 9 3 9 12 1 22 -3 22 -9 0 -18 20 -11 21 8 0 16 1 16 8 -1 4 -10 11
-18 16 -17 6 0 13 -12 16 -29 6 -27 4 -29 -20 -26 -15 2 -25 8 -23 16 1 8 -5
5 -13 -5 -10 -13 -15 -15 -15 -6 0 7 -3 11 -6 8 -7 -8 25 -58 38 -58 5 0 6 5
3 10 -3 6 0 11 7 12 7 0 18 2 23 3 6 2 16 3 24 4 10 1 11 4 2 15 -9 11 -6 18
14 34 27 22 33 34 11 26 -8 -3 -17 2 -20 13 -8 26 -7 38 4 39 6 1 15 2 20 3
23 3 7 19 -24 25 -19 4 -37 12 -40 19 -4 7 -4 -5 -2 -25z"/>
<path fill="#000000" stroke="none" d="M281 211 c-10 -6 -10 -10 -1 -16 13 -8
24 -1 19 14 -3 6 -10 7 -18 2z"/>
<path fill="#000000" stroke="none" d="M60 180 c0 -5 7 -10 15 -10 8 0 15 5
15 10 0 6 -7 10 -15 10 -8 0 -15 -4 -15 -10z"/>
<path fill="#000000" stroke="none" d="M19 92 c9 -7 10 -12 2 -16 -18 -12 -13
-21 13 -21 33 0 30 39 -4 43 -18 2 -21 0 -11 -6z"/>
<path fill="#000000" stroke="none" d="M291 63 c7 -10 14 -19 15 -21 1 -1 4 6
7 18 4 15 0 20 -15 20 -18 0 -19 -2 -7 -17z"/>
</g>
</svg>
