<?xml version="1.0" standalone="no"?>
<!DOCTYPE svg PUBLIC "-//W3C//DTD SVG 20010904//EN"
 "http://www.w3.org/TR/2001/REC-SVG-20010904/DTD/svg10.dtd">
<svg version="1.0" xmlns="http://www.w3.org/2000/svg"
 width="32.000000pt" height="32.000000pt" viewBox="0 0 32.000000 32.000000"
 preserveAspectRatio="xMidYMid meet">
<metadata>
Created by potrace 1.16, written by Peter Selinger 2001-2019
</metadata>
<g transform="translate(0.000000,32.000000) scale(0.100000,-0.100000)"
fill="#000000" stroke="none">
<path fill="#000000" stroke="none" d="M156 95 c-15 -8 -32 -13 -36 -10 -4 3
-20 -5 -34 -16 -25 -20 -28 -20 -51 -5 -30 20 -35 20 -35 1 0 -16 36 -52 47
-47 3 2 10 -2 14 -10 7 -10 9 -8 9 6 0 11 3 16 7 12 4 -3 13 4 20 16 12 22 12
22 14 3 1 -11 0 -24 -1 -30 -1 -5 11 4 27 21 22 25 32 30 50 23 12 -4 24 -17
28 -27 3 -11 13 -23 22 -26 19 -8 45 12 36 26 -3 6 0 9 8 6 16 -5 39 14 39 33
0 8 -4 9 -13 0 -10 -8 -17 -7 -25 1 -9 9 -16 8 -29 -5 -19 -17 -51 -8 -39 11
3 5 -2 9 -12 8 -9 0 -16 5 -14 12 3 15 3 15 -32 -3z"/>
</g>
</svg>
