<?xml version="1.0" standalone="no"?>
<!DOCTYPE svg PUBLIC "-//W3C//DTD SVG 20010904//EN"
 "http://www.w3.org/TR/2001/REC-SVG-20010904/DTD/svg10.dtd">
<svg version="1.0" xmlns="http://www.w3.org/2000/svg"
 width="32.000000pt" height="32.000000pt" viewBox="0 0 32.000000 32.000000"
 preserveAspectRatio="xMidYMid meet">
<metadata>
Created by potrace 1.16, written by Peter Selinger 2001-2019
</metadata>
<g transform="translate(0.000000,32.000000) scale(0.100000,-0.100000)"
fill="#000000" stroke="none">
<path fill="#000000" stroke="none" d="M116 284 c-9 -8 -16 -20 -16 -25 0 -6
-8 -9 -17 -8 -33 3 -44 -1 -37 -12 3 -6 0 -15 -7 -20 -12 -8 -11 -12 3 -23 10
-7 18 -20 18 -28 0 -9 -8 -15 -17 -14 -12 0 -16 -4 -14 -14 2 -8 4 -25 4 -38
-1 -18 2 -20 12 -12 9 7 15 8 19 1 4 -6 13 -8 21 -5 9 4 13 -2 11 -20 -2 -14
3 -27 11 -30 9 -4 11 -2 7 7 -5 8 -2 8 9 -2 9 -7 14 -17 11 -22 -3 -5 -1 -9 5
-9 5 0 13 5 16 11 4 6 13 8 20 5 7 -2 18 1 25 7 10 9 11 9 6 0 -5 -8 -1 -13
10 -13 10 0 14 3 11 7 -4 3 2 12 13 20 11 8 20 19 20 25 0 7 -4 7 -13 -1 -8
-6 -18 -7 -22 -3 -5 4 -5 1 -1 -5 7 -13 -6 -18 -17 -6 -4 3 8 17 26 30 27 21
33 22 43 9 8 -12 13 -13 22 -4 18 18 14 27 -8 21 -15 -4 -20 0 -20 16 0 14 -4
20 -12 15 -8 -5 -9 -2 -5 10 4 10 1 19 -8 22 -7 3 -11 12 -9 19 3 8 12 11 19
9 17 -7 26 8 15 26 -7 12 -13 10 -30 -9 -22 -27 -41 -21 -19 5 12 14 11 16 -6
12 -11 -2 -19 -9 -18 -14 1 -5 -8 -21 -19 -34 -13 -16 -18 -19 -14 -7 4 12 0
17 -15 17 -12 0 -19 5 -16 13 2 6 11 11 19 9 9 -1 21 5 28 13 9 10 9 15 1 15
-6 0 -11 7 -11 16 0 8 -5 12 -10 9 -6 -4 -8 -11 -5 -16 4 -5 1 -9 -4 -9 -16 0
-13 15 4 30 8 6 20 8 26 4 8 -4 9 -3 5 4 -10 17 -52 15 -70 -4z"/>
<path fill="#ffffff" stroke="none" d="M117 190 c15 -24 14 -24 -1 -5 -10 11
-24 19 -32 17 -8 -2 -14 2 -14 8 0 20 32 6 47 -20z"/>
<path fill="#ffffff" stroke="none" d="M97 158 c-3 -7 -5 -2 -5 12 0 14 2 19
5 13 2 -7 2 -19 0 -25z"/>
<path fill="#ffffff" stroke="none" d="M234 142 c3 -5 -1 -9 -9 -9 -8 0 -12 4
-9 9 3 4 7 8 9 8 2 0 6 -4 9 -8z"/>
<path fill="#ffffff" stroke="none" d="M186 50 c0 -12 -4 -16 -9 -11 -5 5 -6
14 -3 20 10 15 12 14 12 -9z"/>
<path fill="#000000" stroke="none" d="M280 234 c0 -7 27 -34 35 -34 3 0 1 9
-5 20 -10 18 -30 28 -30 14z"/>
<path fill="#000000" stroke="none" d="M286 162 c-3 -6 -1 -14 5 -17 15 -10
25 3 12 16 -7 7 -13 7 -17 1z"/>
<path fill="#000000" stroke="none" d="M45 70 c-3 -5 -1 -10 4 -10 6 0 11 5
11 10 0 6 -2 10 -4 10 -3 0 -8 -4 -11 -10z"/>
</g>
</svg>
