<?xml version="1.0" standalone="no"?>
<!DOCTYPE svg PUBLIC "-//W3C//DTD SVG 20010904//EN"
 "http://www.w3.org/TR/2001/REC-SVG-20010904/DTD/svg10.dtd">
<svg version="1.0" xmlns="http://www.w3.org/2000/svg"
 width="32.000000pt" height="32.000000pt" viewBox="0 0 32.000000 32.000000"
 preserveAspectRatio="xMidYMid meet">
<metadata>
Created by potrace 1.16, written by Peter Selinger 2001-2019
</metadata>
<g transform="translate(0.000000,32.000000) scale(0.100000,-0.100000)"
fill="#000000" stroke="none">
<path fill="#000000" stroke="none" d="M6 305 c7 -18 9 -18 36 -4 18 9 19 9
10 -7 -15 -27 16 -49 39 -28 9 8 26 16 38 17 21 1 31 17 10 17 -5 0 -7 5 -4
10 4 6 -20 10 -64 10 -58 0 -69 -3 -65 -15z"/>
<path fill="#000000" stroke="none" d="M233 310 c2 -5 -10 -11 -15 -9 -24 8
-58 7 -58 -1 0 -5 6 -10 13 -10 7 0 8 -3 2 -8 -14 -10 -13 -35 2 -45 17 -11
66 11 60 27 -3 8 3 22 14 32 18 17 20 17 34 -2 8 -10 15 -14 15 -9 0 6 5 3 10
-5 8 -11 9 -8 8 13 -2 26 -5 27 -44 25 -23 -2 -42 -5 -41 -8z"/>
<path fill="#ffffff" stroke="none" d="M220 280 c0 -4 -6 -13 -14 -19 -15 -13
-32 1 -22 17 6 10 36 11 36 2z"/>
<path fill="#000000" stroke="none" d="M255 264 c11 -9 28 -20 38 -26 16 -8
18 -6 15 9 -2 10 -11 17 -20 15 -9 -1 -19 2 -23 8 -3 5 -12 10 -18 10 -7 0 -3
-8 8 -16z"/>
<path fill="#000000" stroke="none" d="M11 261 c-14 -9 -6 -51 10 -51 14 0 11
20 -3 21 -7 0 -5 3 4 7 10 4 14 12 10 19 -5 7 -13 9 -21 4z"/>
<path fill="#000000" stroke="none" d="M76 245 c-11 -8 -18 -15 -15 -16 2 0
12 -2 21 -4 10 -2 20 1 24 6 3 5 0 9 -6 9 -6 0 -8 5 -5 10 8 13 4 12 -19 -5z"/>
<path fill="#000000" stroke="none" d="M123 240 c1 -10 4 -17 8 -14 4 2 9 -2
12 -8 2 -7 8 -10 11 -6 4 3 -1 15 -12 26 -20 20 -21 20 -19 2z"/>
<path fill="#000000" stroke="none" d="M234 231 c6 -10 -6 -15 -27 -12 -4 1
-5 -13 -2 -30 3 -17 1 -37 -4 -43 -8 -9 -5 -18 7 -32 10 -10 21 -28 26 -39 6
-16 9 -17 16 -5 8 13 10 13 10 1 0 -8 3 -11 7 -8 3 4 -2 17 -13 29 -10 12 -14
18 -7 15 6 -4 14 -1 16 5 4 10 6 10 6 1 1 -7 8 -13 16 -13 15 0 32 46 21 57
-3 4 -6 0 -6 -8 0 -8 -10 -15 -21 -16 -21 -2 -21 -1 -3 13 17 14 17 15 2 10
-25 -8 -22 3 7 30 14 13 25 18 25 12 0 -6 3 -9 6 -5 3 3 3 11 -1 17 -5 8 -13
7 -30 -4 -22 -15 -65 -18 -65 -5 0 11 31 20 42 13 6 -4 9 -1 6 7 -3 8 -13 16
-23 17 -10 3 -15 0 -11 -7z"/>
<path fill="#ffffff" stroke="none" d="M250 160 c0 -5 -5 -10 -11 -10 -5 0 -7
5 -4 10 3 6 8 10 11 10 2 0 4 -4 4 -10z"/>
<path fill="#000000" stroke="none" d="M70 199 c10 -6 11 -9 3 -9 -7 0 -13 -4
-13 -10 0 -14 33 -13 48 2 9 9 12 8 12 -6 0 -9 4 -15 10 -11 5 3 6 13 3 23 -3
9 -3 14 1 10 11 -9 15 -58 5 -58 -4 0 -19 4 -33 10 -30 11 -34 3 -9 -15 15
-11 13 -13 -15 -20 -17 -3 -34 -11 -37 -16 -4 -5 1 -6 10 -3 11 5 14 2 9 -10
-4 -11 -13 -15 -25 -11 -11 4 -19 2 -19 -4 0 -6 9 -11 19 -11 11 0 23 -5 26
-10 4 -6 11 -8 16 -5 5 4 9 1 9 -4 0 -6 9 -11 20 -11 11 0 20 4 20 8 0 14 -22
31 -35 26 -22 -9 -26 25 -5 36 11 6 21 8 21 5 1 -3 3 -9 4 -15 1 -5 3 -15 4
-21 0 -6 10 -9 21 -6 12 3 20 1 19 -6 -4 -30 2 -35 34 -30 36 6 48 14 30 20
-7 3 -13 12 -13 21 0 13 -4 11 -20 -6 -28 -30 -33 -28 -15 8 15 29 15 31 -7
39 -46 17 -52 21 -26 17 17 -2 33 3 43 14 15 17 15 19 -4 32 -12 8 -18 18 -14
21 3 4 0 7 -8 8 -8 0 -34 2 -59 4 -29 2 -39 1 -30 -6z"/>
<path fill="#000000" stroke="none" d="M3 132 c0 -20 2 -30 4 -21 3 10 11 15
22 12 9 -2 23 2 30 10 13 17 9 21 -30 31 -26 6 -27 4 -26 -32z"/>
<path fill="#000000" stroke="none" d="M297 82 c-14 -3 -16 -7 -6 -18 11 -14
2 -22 -33 -28 -7 -1 -23 -7 -34 -14 -12 -6 -24 -8 -28 -5 -3 3 -6 1 -6 -5 0
-8 22 -12 65 -12 39 0 65 4 65 11 0 5 -4 8 -8 5 -4 -2 -14 -1 -22 5 -13 7 -12
9 1 9 10 0 19 11 22 28 6 31 7 29 -16 24z"/>
<path fill="#000000" stroke="none" d="M2 42 c-2 -23 3 -31 20 -35 26 -7 38
-1 38 19 0 12 -12 18 -25 12 -2 -2 -10 5 -17 15 -13 17 -14 16 -16 -11z"/>
</g>
</svg>
