<?xml version="1.0" standalone="no"?>
<!DOCTYPE svg PUBLIC "-//W3C//DTD SVG 20010904//EN"
 "http://www.w3.org/TR/2001/REC-SVG-20010904/DTD/svg10.dtd">
<svg version="1.0" xmlns="http://www.w3.org/2000/svg"
 width="32.000000pt" height="32.000000pt" viewBox="0 0 32.000000 32.000000"
 preserveAspectRatio="xMidYMid meet">
<metadata>
Created by potrace 1.16, written by Peter Selinger 2001-2019
</metadata>
<g transform="translate(0.000000,32.000000) scale(0.100000,-0.100000)"
fill="#000000" stroke="none">
<path fill="#000000" stroke="none" d="M6 305 c7 -18 9 -18 35 -4 19 10 19 9
9 -10 -9 -17 -8 -21 5 -21 8 0 15 -4 15 -10 0 -5 12 2 26 15 14 13 32 21 40
18 8 -3 14 -1 14 5 0 14 -36 22 -97 22 -42 0 -51 -3 -47 -15z"/>
<path fill="#000000" stroke="none" d="M160 310 c0 -5 9 -10 20 -10 11 0 22 0
25 0 3 0 5 3 5 7 0 4 -11 8 -25 10 -14 2 -25 -1 -25 -7z"/>
<path fill="#000000" stroke="none" d="M223 306 c0 -7 9 -18 19 -25 11 -7 18
-7 18 -1 0 5 -4 10 -10 10 -5 0 -10 7 -10 15 0 8 -4 15 -8 15 -5 0 -9 -6 -9
-14z"/>
<path fill="#000000" stroke="none" d="M254 308 c-5 -7 -3 -8 5 -4 7 5 18 0
26 -10 8 -11 15 -14 15 -9 0 6 5 3 10 -5 8 -11 9 -9 8 13 -2 22 -7 27 -30 27
-15 0 -30 -5 -34 -12z"/>
<path fill="#000000" stroke="none" d="M170 277 c0 -9 5 -17 11 -17 5 0 8 -4
4 -9 -3 -6 3 -9 12 -9 10 1 28 -2 41 -6 26 -9 29 5 6 28 -19 19 -31 20 -38 4
-3 -9 -9 -7 -20 6 -14 17 -16 18 -16 3z"/>
<path fill="#000000" stroke="none" d="M138 273 c7 -3 16 -2 19 1 4 3 -2 6
-13 5 -11 0 -14 -3 -6 -6z"/>
<path fill="#000000" stroke="none" d="M14 262 c-13 -8 -15 -44 -2 -36 5 3 6
10 3 15 -4 5 -2 9 4 9 5 0 11 -6 14 -12 4 -10 7 -10 18 0 11 10 10 12 -3 12
-9 0 -18 4 -20 10 -1 5 -8 6 -14 2z"/>
<path fill="#000000" stroke="none" d="M265 260 c-4 -6 5 -10 20 -10 15 0 24
4 20 10 -3 6 -12 10 -20 10 -8 0 -17 -4 -20 -10z"/>
<path fill="#000000" stroke="none" d="M110 240 c0 -5 -8 -7 -17 -4 -15 5 -15
4 -3 -4 8 -6 17 -9 21 -6 4 2 10 0 14 -6 3 -5 1 -10 -4 -10 -6 0 -11 -4 -11
-8 0 -5 15 -7 33 -5 24 3 29 2 17 -6 -8 -6 -24 -11 -35 -12 -11 0 -14 -3 -7
-6 6 -2 12 -11 12 -19 0 -8 5 -14 10 -14 6 0 10 -5 10 -11 0 -6 -6 -9 -13 -6
-7 3 -19 -3 -25 -13 -9 -15 -8 -20 6 -26 30 -13 43 -13 48 0 5 14 14 16 97 17
37 1 54 5 45 10 -9 6 -10 9 0 9 12 0 17 32 6 43 -4 3 -18 -3 -32 -13 -28 -22
-42 -25 -42 -9 0 5 5 7 12 3 8 -5 9 -2 4 11 -5 14 -4 16 7 7 8 -7 17 -9 20 -5
9 8 -40 53 -59 53 -8 0 -12 5 -9 10 3 6 1 10 -4 10 -17 0 -13 -38 6 -48 14 -9
15 -12 2 -24 -20 -20 -39 -11 -39 18 0 14 -7 27 -15 30 -8 4 -13 10 -10 15 3
4 -3 13 -14 18 -24 14 -31 14 -31 1z"/>
<path fill="#ffffff" stroke="none" d="M206 129 c9 -16 -18 -30 -33 -17 -7 6
-13 14 -13 19 0 13 38 11 46 -2z"/>
<path fill="#000000" stroke="none" d="M65 210 c3 -5 1 -10 -4 -10 -6 0 -11
-4 -11 -10 0 -5 7 -10 16 -10 10 0 14 -6 10 -15 -3 -9 0 -15 9 -15 8 0 15 -4
15 -10 0 -5 -6 -10 -14 -10 -21 0 -27 -27 -8 -35 9 -3 14 -3 10 0 -3 4 2 15
13 26 21 21 25 39 9 39 -5 0 -10 8 -10 18 0 19 -18 42 -33 42 -4 0 -5 -4 -2
-10z"/>
<path fill="#000000" stroke="none" d="M283 213 c-15 -5 -17 -23 -4 -23 5 0
11 7 15 15 3 8 4 15 3 14 -1 0 -8 -3 -14 -6z"/>
<path fill="#000000" stroke="none" d="M9 177 c-1 -1 -3 -39 -4 -84 -2 -75 -1
-82 18 -87 25 -6 37 0 37 20 0 12 -12 18 -32 16 -3 -1 -8 5 -11 12 -6 15 28
11 50 -6 15 -12 59 0 46 13 -5 5 -22 10 -38 11 -42 2 -47 6 -35 28 9 17 8 19
-7 13 -15 -5 -14 -1 5 19 l22 25 -25 11 c-14 6 -26 11 -26 9z"/>
<path fill="#000000" stroke="none" d="M200 79 c0 -6 -7 -8 -17 -4 -15 5 -16
4 -5 -6 17 -18 15 -34 -2 -20 -19 16 -30 -3 -16 -29 6 -11 13 -20 16 -20 2 0
-1 10 -7 23 -9 17 -9 19 0 11 13 -12 61 -7 61 7 0 5 -5 9 -11 9 -6 0 -9 9 -6
20 3 11 1 20 -4 20 -5 0 -9 -5 -9 -11z"/>
<path fill="#000000" stroke="none" d="M230 76 c0 -9 8 -14 20 -13 24 2 21 21
-3 25 -10 2 -17 -3 -17 -12z"/>
<path fill="#000000" stroke="none" d="M297 82 c-14 -3 -16 -7 -6 -18 11 -14
2 -22 -33 -28 -7 -1 -23 -7 -34 -14 -12 -6 -24 -8 -28 -5 -3 3 -6 1 -6 -5 0
-8 22 -12 65 -12 39 0 65 4 65 11 0 5 -4 8 -8 5 -4 -2 -14 -1 -22 5 -13 7 -12
9 1 9 10 0 19 11 22 28 6 31 7 29 -16 24z"/>
<path fill="#000000" stroke="none" d="M95 21 c-3 -5 -2 -12 3 -15 5 -3 9 1 9
9 0 17 -3 19 -12 6z"/>
</g>
</svg>
