<?xml version="1.0" standalone="no"?>
<!DOCTYPE svg PUBLIC "-//W3C//DTD SVG 20010904//EN"
 "http://www.w3.org/TR/2001/REC-SVG-20010904/DTD/svg10.dtd">
<svg version="1.0" xmlns="http://www.w3.org/2000/svg"
 width="32.000000pt" height="32.000000pt" viewBox="0 0 32.000000 32.000000"
 preserveAspectRatio="xMidYMid meet">
<metadata>
Created by potrace 1.16, written by Peter Selinger 2001-2019
</metadata>
<g transform="translate(0.000000,32.000000) scale(0.100000,-0.100000)"
fill="#000000" stroke="none">
<path fill="#000000" stroke="none" d="M0 226 c0 -90 1 -95 23 -99 l22 -4 -22
-2 c-15 -1 -23 -7 -23 -19 0 -20 36 -46 52 -36 7 4 8 3 4 -4 -11 -18 5 -14 26
5 10 9 26 17 36 18 16 2 47 13 65 22 4 3 6 -1 5 -9 -2 -7 5 -13 14 -13 9 0 20
-4 25 -9 4 -5 3 -6 -4 -2 -7 4 -13 3 -13 -2 0 -6 7 -12 15 -16 8 -3 15 0 15 7
0 15 37 20 46 6 8 -14 34 9 34 31 0 10 -8 21 -17 23 -17 4 -17 5 0 6 15 1 17
13 17 96 l0 95 -160 0 -160 0 0 -94z"/>
<path fill="#ffffff" stroke="none" d="M137 134 c-3 -3 -12 -4 -19 -1 -8 3 -5
6 6 6 11 1 17 -2 13 -5z"/>
<path fill="#ffffff" stroke="none" d="M257 124 c-3 -3 -12 -4 -19 -1 -8 3 -5
6 6 6 11 1 17 -2 13 -5z"/>
<path fill="#000000" stroke="none" d="M87 29 c-17 -19 -17 -20 -1 -17 9 1 18
11 20 21 3 22 2 21 -19 -4z"/>
<path fill="#000000" stroke="none" d="M20 16 c0 -2 7 -7 16 -10 8 -3 12 -2 9
4 -6 10 -25 14 -25 6z"/>
<path fill="#000000" stroke="none" d="M129 9 c-9 -6 -1 -9 24 -9 20 0 37 4
37 9 0 11 -44 11 -61 0z"/>
</g>
</svg>
