<?xml version="1.0" standalone="no"?>
<!DOCTYPE svg PUBLIC "-//W3C//DTD SVG 20010904//EN"
 "http://www.w3.org/TR/2001/REC-SVG-20010904/DTD/svg10.dtd">
<svg version="1.0" xmlns="http://www.w3.org/2000/svg"
 width="32.000000pt" height="32.000000pt" viewBox="0 0 32.000000 32.000000"
 preserveAspectRatio="xMidYMid meet">
<metadata>
Created by potrace 1.16, written by Peter Selinger 2001-2019
</metadata>
<g transform="translate(0.000000,32.000000) scale(0.100000,-0.100000)"
fill="#000000" stroke="none">
<path fill="#000000" stroke="none" d="M3 51 c1 -16 7 -27 13 -24 6 2 18 -3
27 -11 9 -9 20 -16 26 -16 14 0 14 17 1 25 -6 4 -8 11 -5 16 4 5 1 9 -5 9 -6
0 -8 4 -5 10 3 5 0 7 -8 4 -8 -3 -18 -1 -22 5 -12 21 -24 11 -22 -18z"/>
</g>
</svg>
