<?xml version="1.0" standalone="no"?>
<!DOCTYPE svg PUBLIC "-//W3C//DTD SVG 20010904//EN"
 "http://www.w3.org/TR/2001/REC-SVG-20010904/DTD/svg10.dtd">
<svg version="1.0" xmlns="http://www.w3.org/2000/svg"
 width="32.000000pt" height="32.000000pt" viewBox="0 0 32.000000 32.000000"
 preserveAspectRatio="xMidYMid meet">
<metadata>
Created by potrace 1.16, written by Peter Selinger 2001-2019
</metadata>
<g transform="translate(0.000000,32.000000) scale(0.100000,-0.100000)"
fill="#000000" stroke="none">
<path fill="#000000" stroke="none" d="M0 293 l0 -28 21 25 c11 14 18 20 15
13 -4 -6 -1 -15 6 -19 7 -4 10 -4 6 1 -4 4 -3 14 3 22 9 10 5 13 -20 13 -27 0
-31 -3 -31 -27z"/>
<path fill="#000000" stroke="none" d="M93 309 c9 -5 17 -17 17 -26 0 -9 6
-13 15 -9 8 3 15 1 15 -4 0 -18 19 -10 46 18 15 15 23 21 20 15 -4 -7 -2 -13
4 -13 6 0 8 -6 4 -12 -4 -7 3 -3 15 9 11 12 21 25 21 28 0 3 -39 5 -87 5 -65
-1 -83 -3 -70 -11z"/>
<path fill="#000000" stroke="none" d="M260 310 c0 -5 3 -9 8 -8 4 1 16 -3 27
-9 18 -10 21 -9 22 8 1 15 -5 19 -28 19 -16 0 -29 -4 -29 -10z"/>
<path fill="#000000" stroke="none" d="M80 261 c0 -14 -32 -23 -43 -12 -7 7
-15 7 -24 0 -9 -8 -13 -44 -13 -130 l0 -119 160 0 160 0 0 118 c0 107 -2 118
-20 130 -12 7 -26 10 -32 6 -7 -4 -8 -3 -4 4 11 18 -5 14 -26 -5 -10 -9 -26
-17 -36 -18 -9 -1 -25 -6 -35 -10 -10 -4 -23 -2 -32 5 -8 6 -19 9 -24 6 -5 -4
-13 -1 -17 5 -4 8 -3 9 4 5 7 -4 12 -3 12 2 0 6 -7 12 -15 16 -8 3 -15 1 -15
-3z"/>
</g>
</svg>
