<?xml version="1.0" standalone="no"?>
<!DOCTYPE svg PUBLIC "-//W3C//DTD SVG 20010904//EN"
 "http://www.w3.org/TR/2001/REC-SVG-20010904/DTD/svg10.dtd">
<svg version="1.0" xmlns="http://www.w3.org/2000/svg"
 width="32.000000pt" height="32.000000pt" viewBox="0 0 32.000000 32.000000"
 preserveAspectRatio="xMidYMid meet">
<metadata>
Created by potrace 1.16, written by Peter Selinger 2001-2019
</metadata>
<g transform="translate(0.000000,32.000000) scale(0.100000,-0.100000)"
fill="#000000" stroke="none">
<path fill="#000000" stroke="none" d="M33 313 c4 -3 2 -12 -4 -19 -8 -10 -6
-13 10 -11 12 1 21 2 21 3 0 13 -14 34 -23 34 -6 0 -7 -3 -4 -7z"/>
<path fill="#000000" stroke="none" d="M244 299 c-9 -16 10 -31 30 -23 13 5
14 9 5 20 -14 17 -25 18 -35 3z"/>
<path fill="#000000" stroke="none" d="M193 294 c3 -4 2 -15 -4 -25 -11 -21 1
-25 19 -7 17 17 15 38 -5 38 -9 0 -13 -3 -10 -6z"/>
<path fill="#000000" stroke="none" d="M60 273 c-14 -7 -31 -11 -37 -8 -16 5
-17 -11 -2 -21 6 -3 16 -1 22 5 6 6 21 11 33 11 13 0 25 4 28 9 10 15 -18 18
-44 4z"/>
<path fill="#000000" stroke="none" d="M298 273 c-3 -13 -2 -26 4 -29 14 -9
16 -2 8 26 -6 25 -6 25 -12 3z"/>
<path fill="#000000" stroke="none" d="M210 251 c0 -5 7 -12 16 -15 24 -9 27
-7 10 9 -17 17 -26 19 -26 6z"/>
<path fill="#000000" stroke="none" d="M260 250 c0 -5 5 -10 11 -10 5 0 7 5 4
10 -3 6 -8 10 -11 10 -2 0 -4 -4 -4 -10z"/>
<path fill="#000000" stroke="none" d="M10 215 c-7 -9 -11 -17 -9 -20 3 -2 10
5 17 15 14 24 10 26 -8 5z"/>
<path fill="#000000" stroke="none" d="M145 210 c-3 -5 -1 -10 4 -10 6 0 11 5
11 10 0 6 -2 10 -4 10 -3 0 -8 -4 -11 -10z"/>
<path fill="#000000" stroke="none" d="M215 210 c3 -5 8 -10 11 -10 2 0 4 5 4
10 0 6 -5 10 -11 10 -5 0 -7 -4 -4 -10z"/>
<path fill="#000000" stroke="none" d="M280 200 c0 -5 5 -10 10 -10 6 0 10 5
10 10 0 6 -4 10 -10 10 -5 0 -10 -4 -10 -10z"/>
<path fill="#000000" stroke="none" d="M30 180 c0 -5 5 -10 10 -10 6 0 10 5
10 10 0 6 -4 10 -10 10 -5 0 -10 -4 -10 -10z"/>
<path fill="#000000" stroke="none" d="M0 106 c0 -2 7 -6 15 -10 8 -3 15 -1
15 4 0 6 -7 10 -15 10 -8 0 -15 -2 -15 -4z"/>
<path fill="#000000" stroke="none" d="M0 81 c0 -5 9 -11 21 -14 16 -4 18 -3
8 9 -13 16 -29 19 -29 5z"/>
<path fill="#000000" stroke="none" d="M250 50 c0 -5 5 -10 11 -10 5 0 7 5 4
10 -3 6 -8 10 -11 10 -2 0 -4 -4 -4 -10z"/>
<path fill="#000000" stroke="none" d="M19 30 c-5 -23 -2 -25 28 -26 21 0 33
4 33 13 0 7 -11 13 -24 13 -13 0 -26 6 -29 13 -2 6 -6 1 -8 -13z"/>
<path fill="#000000" stroke="none" d="M280 35 c-7 -8 -16 -13 -20 -10 -4 3
-14 -3 -21 -12 -12 -14 -12 -16 1 -8 8 5 27 8 42 6 20 -2 28 2 28 13 0 22 -16
28 -30 11z"/>
<path fill="#000000" stroke="none" d="M90 10 c0 -5 5 -10 10 -10 6 0 10 5 10
10 0 6 -4 10 -10 10 -5 0 -10 -4 -10 -10z"/>
</g>
</svg>
