<?xml version="1.0" standalone="no"?>
<!DOCTYPE svg PUBLIC "-//W3C//DTD SVG 20010904//EN"
 "http://www.w3.org/TR/2001/REC-SVG-20010904/DTD/svg10.dtd">
<svg version="1.0" xmlns="http://www.w3.org/2000/svg"
 width="32.000000pt" height="32.000000pt" viewBox="0 0 32.000000 32.000000"
 preserveAspectRatio="xMidYMid meet">
<metadata>
Created by potrace 1.16, written by Peter Selinger 2001-2019
</metadata>
<g transform="translate(0.000000,32.000000) scale(0.100000,-0.100000)"
fill="#000000" stroke="none">
<path fill="#000000" stroke="none" d="M0 289 c0 -16 5 -29 10 -29 6 0 9 3 8
8 -1 4 3 16 9 27 10 18 9 21 -8 22 -15 1 -19 -5 -19 -28z"/>
<path fill="#000000" stroke="none" d="M72 300 c-7 -12 -10 -26 -6 -32 4 -7 3
-8 -4 -4 -18 11 -14 -2 9 -33 12 -16 19 -34 15 -39 -3 -6 -2 -13 4 -17 5 -3 9
-17 8 -30 -1 -13 -4 -22 -7 -20 -2 3 -12 -5 -22 -16 -16 -19 -16 -23 -4 -36
18 -17 19 -29 5 -38 -8 -5 -7 -11 1 -21 9 -11 40 -14 130 -14 l119 0 0 160 0
160 -118 0 c-107 0 -118 -2 -130 -20z"/>
<path fill="#000000" stroke="none" d="M0 236 c0 -7 7 -19 15 -26 11 -9 15 -9
15 -1 0 7 6 9 13 5 6 -4 2 3 -10 15 -26 25 -33 26 -33 7z"/>
<path fill="#000000" stroke="none" d="M0 146 l0 -65 23 22 c13 12 21 28 19
35 -2 6 1 12 7 12 16 0 3 23 -24 43 l-25 18 0 -65z"/>
<path fill="#000000" stroke="none" d="M0 31 c0 -27 3 -31 28 -31 24 1 25 2
10 14 -10 7 -18 18 -18 24 0 6 -4 14 -10 17 -6 4 -10 -7 -10 -24z"/>
</g>
</svg>
