<?xml version="1.0" standalone="no"?>
<!DOCTYPE svg PUBLIC "-//W3C//DTD SVG 20010904//EN"
 "http://www.w3.org/TR/2001/REC-SVG-20010904/DTD/svg10.dtd">
<svg version="1.0" xmlns="http://www.w3.org/2000/svg"
 width="32.000000pt" height="32.000000pt" viewBox="0 0 32.000000 32.000000"
 preserveAspectRatio="xMidYMid meet">
<metadata>
Created by potrace 1.16, written by Peter Selinger 2001-2019
</metadata>
<g transform="translate(0.000000,32.000000) scale(0.100000,-0.100000)"
fill="#000000" stroke="none">
<path fill="#000000" stroke="none" d="M0 160 l0 -160 118 0 c107 0 118 2 130
20 7 12 10 26 6 32 -4 7 -3 8 4 4 18 -11 14 5 -5 26 -9 10 -17 26 -18 36 -1 9
-6 25 -10 35 -4 10 -2 23 5 32 6 8 9 19 6 24 -4 5 -1 13 5 17 8 4 9 3 5 -4 -4
-7 -3 -12 2 -12 6 0 12 7 16 15 3 8 1 15 -3 15 -14 0 -22 32 -11 45 21 26 -13
35 -132 35 l-118 0 0 -160z"/>
<path fill="#000000" stroke="none" d="M307 279 c4 -13 8 -18 11 -10 2 7 -1
18 -6 23 -8 8 -9 4 -5 -13z"/>
<path fill="#000000" stroke="none" d="M297 212 c-10 -10 -14 -22 -11 -25 4
-4 0 -9 -9 -13 -13 -5 -13 -9 6 -30 11 -13 24 -24 28 -24 3 0 6 25 6 55 0 30
-1 55 -2 55 -1 0 -9 -8 -18 -18z"/>
<path fill="#000000" stroke="none" d="M290 88 c25 -23 30 -23 30 2 0 15 -6
19 -25 18 -24 -2 -24 -3 -5 -20z"/>
<path fill="#000000" stroke="none" d="M298 32 c-16 -26 -16 -28 2 -29 14 -1
18 5 18 28 -1 16 -2 29 -2 29 -1 0 -9 -13 -18 -28z"/>
</g>
</svg>
