<?xml version="1.0" standalone="no"?>
<!DOCTYPE svg PUBLIC "-//W3C//DTD SVG 20010904//EN"
 "http://www.w3.org/TR/2001/REC-SVG-20010904/DTD/svg10.dtd">
<svg version="1.0" xmlns="http://www.w3.org/2000/svg"
 width="32.000000pt" height="32.000000pt" viewBox="0 0 32.000000 32.000000"
 preserveAspectRatio="xMidYMid meet">
<metadata>
Created by potrace 1.16, written by Peter Selinger 2001-2019
</metadata>
<g transform="translate(0.000000,32.000000) scale(0.100000,-0.100000)"
fill="#000000" stroke="none">
<path fill="#000000" stroke="none" d="M117 286 c-9 -9 -14 -23 -11 -31 4 -10
0 -12 -17 -8 -27 7 -49 -19 -49 -57 0 -14 -5 -31 -11 -37 -8 -8 -8 -16 1 -30
10 -16 11 -15 6 7 -5 24 -4 24 9 6 8 -10 12 -23 9 -27 -3 -5 7 -14 21 -19 14
-5 24 -14 20 -19 -3 -6 4 -15 15 -21 11 -6 20 -17 20 -25 0 -17 16 -20 25 -5
4 6 11 8 16 4 6 -3 7 4 3 20 -3 15 -2 26 4 26 5 0 9 -7 8 -16 0 -9 9 -20 22
-25 13 -5 21 -5 18 0 -3 5 1 11 9 15 8 3 15 11 15 17 0 8 -4 8 -15 -1 -8 -6
-20 -8 -26 -4 -12 7 3 23 45 46 16 8 18 7 13 -6 -9 -23 16 -20 30 4 11 16 10
18 -2 14 -8 -4 -15 -1 -15 6 0 7 -7 10 -15 6 -12 -4 -15 4 -15 39 0 35 4 45
20 50 11 3 24 3 30 0 5 -3 10 -1 10 5 0 16 -23 22 -50 12 -14 -5 -32 -4 -46 2
-26 12 -41 39 -25 44 13 4 4 22 -10 22 -6 0 -8 -4 -5 -9 4 -5 0 -11 -6 -14
-10 -3 -10 -8 1 -21 8 -10 15 -26 16 -37 1 -15 -5 -19 -27 -19 -32 0 -38 15
-8 23 13 3 18 11 14 20 -3 9 -13 13 -25 10 -20 -6 -27 13 -7 19 6 2 9 10 7 17
-4 11 -8 10 -22 -3z"/>
<path fill="#ffffff" stroke="none" d="M104 211 c4 -5 -1 -8 -9 -7 -21 3 -31
16 -12 16 9 0 18 -4 21 -9z"/>
<path fill="#ffffff" stroke="none" d="M94 174 c3 -8 10 -12 16 -9 6 4 7 12 3
18 -4 8 -1 7 9 -1 9 -7 16 -26 16 -41 -1 -23 -5 -27 -19 -24 -11 3 -19 10 -19
15 0 5 5 6 10 3 6 -3 10 -1 10 6 0 6 -8 9 -20 6 -11 -3 -18 -2 -15 3 3 4 -2
10 -10 14 -8 3 -15 10 -15 16 0 16 27 12 34 -6z"/>
<path fill="#000000" stroke="none" d="M290 167 c0 -10 -4 -15 -10 -12 -5 3
-10 1 -10 -4 0 -6 9 -11 20 -11 22 0 25 7 10 30 -8 13 -10 12 -10 -3z"/>
<path fill="#000000" stroke="none" d="M50 70 c0 -5 5 -10 10 -10 6 0 10 5 10
10 0 6 -4 10 -10 10 -5 0 -10 -4 -10 -10z"/>
</g>
</svg>
