<?xml version="1.0" standalone="no"?>
<!DOCTYPE svg PUBLIC "-//W3C//DTD SVG 20010904//EN"
 "http://www.w3.org/TR/2001/REC-SVG-20010904/DTD/svg10.dtd">
<svg version="1.0" xmlns="http://www.w3.org/2000/svg"
 width="32.000000pt" height="32.000000pt" viewBox="0 0 32.000000 32.000000"
 preserveAspectRatio="xMidYMid meet">
<metadata>
Created by potrace 1.16, written by Peter Selinger 2001-2019
</metadata>
<g transform="translate(0.000000,32.000000) scale(0.100000,-0.100000)"
fill="#000000" stroke="none">
<path fill="#000000" stroke="none" d="M18 313 c-10 -2 -18 -9 -18 -14 0 -12
10 -11 40 6 24 14 14 18 -22 8z"/>
<path fill="#000000" stroke="none" d="M102 307 c9 -7 24 -17 34 -23 17 -10
16 -12 -8 -37 -27 -27 -71 -36 -83 -17 -11 18 -40 -7 -40 -34 -1 -13 3 -22 7
-19 5 2 6 13 3 24 -7 22 9 25 51 9 16 -6 30 -7 33 -2 16 25 49 31 98 18 45
-12 51 -12 73 6 19 15 21 21 10 28 -11 7 -10 11 3 24 8 9 20 16 26 16 6 0 11
5 11 10 0 16 -23 11 -49 -11 -18 -15 -21 -23 -13 -31 7 -7 12 -15 12 -19 0
-15 -55 -16 -89 -2 -31 13 -34 17 -20 26 14 9 11 13 -19 29 -41 20 -66 24 -40
5z"/>
<path fill="#000000" stroke="none" d="M96 182 c-3 -6 1 -15 9 -22 8 -7 12
-17 9 -22 -4 -6 2 -5 14 1 25 13 52 14 72 1 12 -7 7 -16 -23 -45 -21 -21 -42
-33 -49 -29 -7 4 -8 3 -4 -4 10 -17 -16 -52 -40 -52 -12 0 -37 15 -55 33 l-33
32 26 -35 c14 -19 35 -36 48 -38 28 -4 82 17 74 30 -7 11 46 -1 64 -15 10 -8
15 -5 19 12 3 13 20 30 37 38 28 12 28 13 5 9 -18 -4 -32 0 -43 13 -17 18 -17
20 3 30 11 6 29 11 40 11 11 0 22 4 25 8 3 5 -16 8 -42 8 -39 -1 -47 2 -46 17
2 21 4 20 -37 3 -31 -13 -35 -12 -50 5 -10 11 -20 16 -23 11z"/>
<path fill="#ffffff" stroke="none" d="M220 49 c-9 -15 -15 -16 -42 -7 l-31
11 28 25 c27 23 29 23 41 7 9 -12 10 -23 4 -36z"/>
<path fill="#000000" stroke="none" d="M0 151 c0 -5 6 -11 12 -13 7 -3 13 -13
13 -23 0 -13 8 -18 32 -19 17 -1 30 1 27 3 -2 2 2 11 9 19 10 13 9 14 -10 4
-30 -16 -54 -15 -47 2 3 8 -3 19 -15 26 -12 6 -21 7 -21 1z"/>
</g>
</svg>
