<?xml version="1.0" standalone="no"?>
<!DOCTYPE svg PUBLIC "-//W3C//DTD SVG 20010904//EN"
 "http://www.w3.org/TR/2001/REC-SVG-20010904/DTD/svg10.dtd">
<svg version="1.0" xmlns="http://www.w3.org/2000/svg"
 width="32.000000pt" height="32.000000pt" viewBox="0 0 32.000000 32.000000"
 preserveAspectRatio="xMidYMid meet">
<metadata>
Created by potrace 1.16, written by Peter Selinger 2001-2019
</metadata>
<g transform="translate(0.000000,32.000000) scale(0.100000,-0.100000)"
fill="#000000" stroke="none">
<path fill="#000000" stroke="none" d="M110 310 c0 -5 5 -10 11 -10 5 0 7 5 4
10 -3 6 -8 10 -11 10 -2 0 -4 -4 -4 -10z"/>
<path fill="#000000" stroke="none" d="M275 250 c-3 -5 -2 -10 4 -10 5 0 13 5
16 10 3 6 2 10 -4 10 -5 0 -13 -4 -16 -10z"/>
<path fill="#000000" stroke="none" d="M75 210 c-8 -13 5 -13 25 0 13 8 13 10
-2 10 -9 0 -20 -4 -23 -10z"/>
<path fill="#000000" stroke="none" d="M190 161 c0 -6 4 -12 8 -15 5 -3 9 1 9
9 0 8 -4 15 -9 15 -4 0 -8 -4 -8 -9z"/>
<path fill="#000000" stroke="none" d="M192 34 c-7 -8 -8 -14 -3 -14 10 0 25
19 20 25 -2 1 -10 -3 -17 -11z"/>
</g>
</svg>
