<?xml version="1.0" standalone="no"?>
<!DOCTYPE svg PUBLIC "-//W3C//DTD SVG 20010904//EN"
 "http://www.w3.org/TR/2001/REC-SVG-20010904/DTD/svg10.dtd">
<svg version="1.0" xmlns="http://www.w3.org/2000/svg"
 width="32.000000pt" height="32.000000pt" viewBox="0 0 32.000000 32.000000"
 preserveAspectRatio="xMidYMid meet">
<metadata>
Created by potrace 1.16, written by Peter Selinger 2001-2019
</metadata>
<g transform="translate(0.000000,32.000000) scale(0.100000,-0.100000)"
fill="#000000" stroke="none">
<path fill="#000000" stroke="none" d="M0 300 c0 -11 4 -20 9 -20 16 0 20 -41
5 -47 -20 -7 -19 -102 1 -109 8 -4 12 -10 9 -15 -3 -5 -8 -7 -12 -5 -4 2 -8
-19 -9 -48 l-2 -52 75 -3 c53 -1 74 2 74 10 0 7 3 9 6 6 4 -3 15 -2 25 3 13 8
20 6 27 -6 8 -14 11 -14 18 -3 5 8 9 21 9 29 0 16 33 16 49 0 5 -6 -3 -7 -20
-4 l-29 5 22 -20 c12 -12 31 -21 41 -21 16 0 20 7 20 40 0 22 -2 39 -6 38 -4
-1 -17 3 -28 10 -12 6 -25 8 -29 4 -5 -4 -5 -1 0 6 4 8 19 12 34 10 25 -4 27
-1 29 32 2 25 0 31 -7 20 -6 -8 -13 -11 -17 -7 -4 3 -1 13 6 22 7 9 10 18 6
22 -3 3 -6 1 -6 -5 0 -6 -15 -16 -34 -23 -32 -11 -33 -14 -18 -27 9 -7 2 -5
-15 4 -30 17 -31 19 -16 36 9 10 22 18 28 18 7 0 18 7 25 15 7 9 21 13 31 10
11 -4 19 -2 19 4 0 6 -5 11 -11 11 -5 0 -7 5 -3 12 5 7 2 9 -9 5 -9 -3 -18 1
-21 9 -9 23 -8 24 19 24 16 0 25 6 25 15 0 18 -31 20 -48 3 -7 -7 -12 -8 -12
-2 0 5 -27 11 -60 12 -34 2 -60 -1 -60 -7 0 -5 -12 -5 -30 2 -22 8 -38 8 -60
0 -17 -6 -28 -7 -24 -2 3 5 -2 9 -10 9 -9 0 -16 -9 -16 -20z"/>
<path fill="#ffffff" stroke="none" d="M247 294 c-3 -3 -12 -4 -19 -1 -8 3 -5
6 6 6 11 1 17 -2 13 -5z"/>
<path fill="#ffffff" stroke="none" d="M73 270 c13 -16 21 -18 42 -10 17 7 24
7 20 0 -3 -6 -13 -10 -21 -10 -8 0 -14 -5 -14 -11 0 -5 -4 -7 -10 -4 -5 3 -10
2 -10 -4 0 -6 -8 -8 -17 -4 -16 6 -16 4 2 -18 11 -13 13 -18 5 -11 -17 14 -34
16 -25 2 3 -5 -3 -10 -14 -10 -12 0 -21 3 -21 6 0 10 29 34 52 43 l23 9 -28
11 c-16 6 -25 15 -22 21 9 15 19 12 38 -10z"/>
<path fill="#ffffff" stroke="none" d="M220 260 c0 -5 -2 -10 -4 -10 -3 0 -8
5 -11 10 -3 6 -1 10 4 10 6 0 11 -4 11 -10z"/>
<path fill="#ffffff" stroke="none" d="M179 241 c9 -6 5 -8 -13 -8 -14 0 -26
3 -26 8 0 11 21 11 39 0z"/>
<path fill="#ffffff" stroke="none" d="M141 190 c5 0 9 -4 9 -10 0 -14 -40 -6
-50 11 -7 10 -4 16 8 20 10 4 18 1 20 -7 2 -8 8 -14 13 -14z"/>
<path fill="#ffffff" stroke="none" d="M40 170 c-20 -13 -33 -13 -25 0 3 6 14
10 23 10 15 0 15 -2 2 -10z"/>
<path fill="#ffffff" stroke="none" d="M120 149 c0 -4 -10 -13 -21 -20 -17 -9
-20 -8 -14 1 6 10 1 12 -19 8 -28 -6 -36 6 -10 16 8 3 13 10 9 16 -3 5 6 5 25
-1 16 -6 30 -15 30 -20z"/>
<path fill="#ffffff" stroke="none" d="M185 140 c3 -5 -1 -10 -9 -10 -8 0 -18
5 -21 10 -3 6 1 10 9 10 8 0 18 -4 21 -10z"/>
<path fill="#ffffff" stroke="none" d="M175 120 c11 -5 14 -9 7 -9 -8 -1 -10
-6 -6 -13 4 -7 -2 -5 -14 5 -12 11 -26 16 -33 11 -8 -4 -10 -3 -5 4 8 14 23
14 51 2z"/>
<path fill="#ffffff" stroke="none" d="M157 64 c-4 -4 -18 1 -31 10 -30 19
-48 22 -22 3 28 -21 17 -61 -17 -65 -16 -2 -35 2 -43 9 -16 13 -19 34 -4 24 6
-3 10 -1 10 6 0 19 42 50 61 44 9 -3 21 0 25 6 5 9 10 6 17 -9 6 -12 7 -25 4
-28z"/>
<path fill="#ffffff" stroke="none" d="M44 75 c-4 -8 -12 -15 -20 -15 -17 0
-18 17 -1 23 22 9 27 7 21 -8z"/>
<path fill="#ffffff" stroke="none" d="M211 52 c-7 -2 -18 1 -23 6 -8 8 -4 9
13 5 13 -4 18 -8 10 -11z"/>
</g>
</svg>
