<?xml version="1.0" standalone="no"?>
<!DOCTYPE svg PUBLIC "-//W3C//DTD SVG 20010904//EN"
 "http://www.w3.org/TR/2001/REC-SVG-20010904/DTD/svg10.dtd">
<svg version="1.0" xmlns="http://www.w3.org/2000/svg"
 width="32.000000pt" height="32.000000pt" viewBox="0 0 32.000000 32.000000"
 preserveAspectRatio="xMidYMid meet">
<metadata>
Created by potrace 1.16, written by Peter Selinger 2001-2019
</metadata>
<g transform="translate(0.000000,32.000000) scale(0.100000,-0.100000)"
fill="#000000" stroke="none">
<path fill="#000000" stroke="none" d="M128 313 c6 -2 18 -2 25 0 6 3 1 5 -13
5 -14 0 -19 -2 -12 -5z"/>
<path fill="#000000" stroke="none" d="M235 310 c3 -5 8 -10 11 -10 2 0 4 5 4
10 0 6 -5 10 -11 10 -5 0 -7 -4 -4 -10z"/>
<path fill="#000000" stroke="none" d="M260 309 c0 -5 5 -7 10 -4 6 3 10 8 10
11 0 2 -4 4 -10 4 -5 0 -10 -5 -10 -11z"/>
<path fill="#000000" stroke="none" d="M26 285 c-3 -8 -1 -15 5 -15 6 0 8 -4
4 -10 -3 -5 -12 -7 -20 -3 -8 3 -15 0 -15 -6 0 -14 16 -14 42 0 14 8 23 8 31
0 8 -8 6 -11 -8 -11 -14 0 -16 -3 -8 -11 6 -6 21 -8 33 -4 22 7 21 8 -16 41
-44 40 -40 38 -48 19z"/>
<path fill="#000000" stroke="none" d="M295 281 c-19 -8 -19 -8 0 -19 11 -6
14 -12 8 -12 -18 0 -16 -20 2 -20 10 0 15 10 15 30 0 17 -1 30 -2 29 -2 0 -12
-4 -23 -8z"/>
<path fill="#000000" stroke="none" d="M205 260 c3 -5 8 -10 11 -10 2 0 4 5 4
10 0 6 -5 10 -11 10 -5 0 -7 -4 -4 -10z"/>
<path fill="#000000" stroke="none" d="M128 222 c-16 -9 -28 -19 -28 -22 1
-27 50 -44 58 -20 3 8 1 12 -3 8 -4 -4 -13 -1 -20 5 -11 10 -10 15 8 29 28 22
20 22 -15 0z"/>
<path fill="#000000" stroke="none" d="M254 212 c-4 -9 -6 -21 -5 -25 1 -5 -3
-6 -7 -3 -5 3 -17 -3 -26 -13 -15 -16 -15 -19 -2 -24 8 -3 17 -1 20 6 3 9 5 9
5 0 1 -10 7 -10 25 -2 14 7 22 17 20 24 -3 7 2 15 12 19 12 4 15 2 10 -9 -3
-8 -1 -15 4 -15 6 0 10 9 10 19 0 27 -55 46 -66 23z"/>
<path fill="#000000" stroke="none" d="M24 196 c5 -13 2 -17 -8 -13 -10 4 -13
1 -10 -8 8 -21 34 -27 41 -9 3 9 -2 23 -12 32 -17 16 -17 16 -11 -2z"/>
<path fill="#000000" stroke="none" d="M67 189 c-4 -16 -3 -18 9 -8 7 6 11 15
8 20 -8 13 -11 11 -17 -12z"/>
<path fill="#000000" stroke="none" d="M76 145 c-19 -14 -19 -15 5 -15 16 0
26 6 26 15 0 19 -7 18 -31 0z"/>
<path fill="#000000" stroke="none" d="M145 140 c3 -5 10 -10 16 -10 5 0 9 5
9 10 0 6 -7 10 -16 10 -8 0 -12 -4 -9 -10z"/>
<path fill="#000000" stroke="none" d="M120 120 c0 -5 6 -10 14 -10 8 0 18 -5
22 -11 4 -8 -3 -9 -26 -4 -25 5 -31 4 -28 -6 3 -8 16 -15 31 -17 14 -2 31 -10
37 -18 12 -14 40 -20 40 -8 0 13 -26 30 -40 26 -13 -5 -13 -3 0 12 13 16 12
20 -5 32 -22 16 -45 18 -45 4z"/>
<path fill="#000000" stroke="none" d="M271 110 c-8 -5 -4 -12 12 -23 25 -16
37 -13 37 9 0 14 -33 24 -49 14z"/>
<path fill="#000000" stroke="none" d="M5 100 c-8 -13 3 -30 18 -30 8 0 7 3
-2 9 -7 5 -10 14 -7 20 4 6 5 11 2 11 -3 0 -8 -4 -11 -10z"/>
<path fill="#000000" stroke="none" d="M41 68 c-13 -21 -7 -38 15 -38 8 0 14
-4 14 -10 0 -5 5 -10 11 -10 5 0 7 4 4 10 -3 6 1 7 9 4 28 -11 31 25 5 44 -33
23 -44 23 -58 0z"/>
<path fill="#ffffff" stroke="none" d="M87 54 c-3 -3 -12 -4 -19 -1 -8 3 -5 6
6 6 11 1 17 -2 13 -5z"/>
<path fill="#000000" stroke="none" d="M236 44 c-8 -20 30 -23 42 -3 11 17 9
19 -13 17 -13 -1 -27 -8 -29 -14z"/>
<path fill="#000000" stroke="none" d="M30 10 c0 -5 5 -10 11 -10 5 0 7 5 4
10 -3 6 -8 10 -11 10 -2 0 -4 -4 -4 -10z"/>
<path fill="#000000" stroke="none" d="M127 8 c-7 -4 5 -8 26 -8 20 0 37 4 37
9 0 10 -46 9 -63 -1z"/>
<path fill="#000000" stroke="none" d="M225 10 c-3 -5 3 -10 15 -10 12 0 18 5
15 10 -3 6 -10 10 -15 10 -5 0 -12 -4 -15 -10z"/>
</g>
</svg>
