<?xml version="1.0" standalone="no"?>
<!DOCTYPE svg PUBLIC "-//W3C//DTD SVG 20010904//EN"
 "http://www.w3.org/TR/2001/REC-SVG-20010904/DTD/svg10.dtd">
<svg version="1.0" xmlns="http://www.w3.org/2000/svg"
 width="32.000000pt" height="32.000000pt" viewBox="0 0 32.000000 32.000000"
 preserveAspectRatio="xMidYMid meet">
<metadata>
Created by potrace 1.16, written by Peter Selinger 2001-2019
</metadata>
<g transform="translate(0.000000,32.000000) scale(0.100000,-0.100000)"
fill="#000000" stroke="none">
<path fill="#000000" stroke="none" d="M0 298 c0 -23 2 -22 42 2 l33 20 -37
-2 c-29 -2 -38 -7 -38 -20z"/>
<path fill="#000000" stroke="none" d="M100 305 c7 -8 19 -15 26 -15 32 0 6
-55 -30 -64 -28 -7 -58 2 -50 15 10 16 -13 9 -28 -8 -19 -22 -22 -80 -6 -111
9 -17 9 -25 0 -34 -18 -18 -15 -33 14 -62 30 -29 69 -34 112 -13 15 7 33 12
40 11 6 -1 17 -2 23 -3 5 0 7 -6 4 -11 -9 -14 4 -12 19 3 7 7 11 18 8 25 -6
18 45 34 69 22 24 -13 25 -2 2 15 -12 9 -25 10 -41 4 -23 -9 -24 -8 -17 18 8
35 5 32 43 35 24 2 32 7 32 21 0 14 -3 17 -12 9 -20 -16 -76 -24 -94 -14 -14
8 -12 14 18 44 29 28 39 33 61 27 16 -4 25 -3 21 2 -3 5 -12 9 -21 9 -12 0
-13 3 -4 14 9 11 9 15 -1 18 -10 4 -10 8 1 21 7 9 17 14 22 11 5 -3 9 2 9 10
0 19 -36 21 -47 3 -11 -18 -39 -28 -58 -21 -12 5 -13 9 -4 20 10 12 7 12 -16
0 -25 -13 -32 -13 -56 0 -38 19 -55 19 -39 -1z"/>
<path fill="#ffffff" stroke="none" d="M190 270 c-9 -6 -10 -10 -3 -10 6 0 14
4 17 9 7 11 46 2 46 -11 0 -5 5 -6 10 -3 6 3 10 1 10 -5 0 -7 -7 -9 -17 -6 -9
4 -20 2 -23 -5 -5 -8 -17 -6 -40 6 -30 15 -31 17 -13 30 10 7 20 11 23 9 2 -3
-2 -9 -10 -14z"/>
<path fill="#ffffff" stroke="none" d="M229 213 c2 -1 -2 -9 -9 -17 -11 -14
-15 -14 -41 0 -16 8 -29 10 -29 5 0 -5 10 -12 23 -15 21 -7 21 -7 2 -16 -30
-13 -42 -12 -59 6 -17 17 -22 49 -6 39 6 -3 10 -2 10 4 0 15 31 18 70 7 19 -5
37 -11 39 -13z"/>
<path fill="#ffffff" stroke="none" d="M85 190 c0 -18 -43 -40 -62 -33 -8 3
-12 12 -9 20 3 8 6 20 6 28 0 9 9 11 33 6 18 -4 32 -13 32 -21z"/>
<path fill="#ffffff" stroke="none" d="M108 149 c3 -19 -48 -43 -62 -28 -8 7
-3 16 14 29 27 21 44 21 48 -1z"/>
<path fill="#ffffff" stroke="none" d="M184 144 c9 -3 16 -10 16 -16 0 -5 -4
-6 -10 -3 -5 3 -10 -2 -10 -12 0 -26 -19 -43 -48 -43 -13 0 -20 -4 -17 -10 12
-20 -6 -50 -29 -50 -26 0 -50 22 -38 35 4 5 2 5 -5 1 -7 -4 -16 1 -22 12 -13
24 15 42 54 35 18 -4 26 -2 21 5 -3 5 6 20 21 31 30 22 42 25 67 15z"/>
<path fill="#ffffff" stroke="none" d="M235 101 c-3 -6 -11 -8 -17 -5 -6 4 -5
9 3 15 16 10 23 4 14 -10z"/>
<path fill="#ffffff" stroke="none" d="M216 55 c-7 -18 -47 -17 -53 1 -5 14
39 34 51 24 5 -5 6 -16 2 -25z"/>
<path fill="#000000" stroke="none" d="M196 198 c3 -5 10 -6 15 -3 13 9 11 12
-6 12 -8 0 -12 -4 -9 -9z"/>
<path fill="#000000" stroke="none" d="M115 259 c-4 -6 -5 -12 -2 -15 2 -3 7
2 10 11 7 17 1 20 -8 4z"/>
<path fill="#000000" stroke="none" d="M270 10 c20 -13 33 -13 25 0 -3 5 -14
10 -23 10 -15 0 -15 -2 -2 -10z"/>
</g>
</svg>
