<?xml version="1.0" standalone="no"?>
<!DOCTYPE svg PUBLIC "-//W3C//DTD SVG 20010904//EN"
 "http://www.w3.org/TR/2001/REC-SVG-20010904/DTD/svg10.dtd">
<svg version="1.0" xmlns="http://www.w3.org/2000/svg"
 width="32.000000pt" height="32.000000pt" viewBox="0 0 32.000000 32.000000"
 preserveAspectRatio="xMidYMid meet">
<metadata>
Created by potrace 1.16, written by Peter Selinger 2001-2019
</metadata>
<g transform="translate(0.000000,32.000000) scale(0.100000,-0.100000)"
fill="#000000" stroke="none">
<path fill="#000000" stroke="none" d="M0 241 c0 -61 3 -80 15 -85 8 -3 15
-11 14 -18 0 -10 -2 -10 -6 0 -13 32 -23 5 -23 -63 l0 -75 160 0 160 0 0 70
c0 64 -9 86 -25 60 -3 -5 -14 -10 -23 -10 -11 0 -5 7 16 20 32 20 32 20 32
100 l0 80 -130 0 c-80 0 -130 -4 -130 -10 0 -5 -5 -10 -11 -10 -5 0 -7 5 -4
10 4 6 -5 10 -19 10 -26 0 -26 -1 -26 -79z"/>
<path fill="#ffffff" stroke="none" d="M240 209 c-7 -11 -14 -19 -16 -16 -7 7
7 37 17 37 6 0 5 -9 -1 -21z"/>
<path fill="#ffffff" stroke="none" d="M196 92 c-17 -16 -18 -16 -5 5 7 12 15
20 18 17 3 -2 -3 -12 -13 -22z"/>
</g>
</svg>
