<?xml version="1.0" standalone="no"?>
<!DOCTYPE svg PUBLIC "-//W3C//DTD SVG 20010904//EN"
 "http://www.w3.org/TR/2001/REC-SVG-20010904/DTD/svg10.dtd">
<svg version="1.0" xmlns="http://www.w3.org/2000/svg"
 width="32.000000pt" height="32.000000pt" viewBox="0 0 32.000000 32.000000"
 preserveAspectRatio="xMidYMid meet">
<metadata>
Created by potrace 1.16, written by Peter Selinger 2001-2019
</metadata>
<g transform="translate(0.000000,32.000000) scale(0.100000,-0.100000)"
fill="#000000" stroke="none">
<path fill="#000000" stroke="none" d="M95 310 c3 -5 -12 -18 -34 -30 -26 -13
-38 -25 -35 -34 3 -7 -2 -16 -10 -19 -9 -4 -16 -11 -16 -17 0 -6 10 -2 22 10
12 11 26 20 31 20 5 0 7 7 3 15 -4 10 1 15 15 15 11 0 22 6 25 14 6 16 44 10
44 -8 0 -6 -18 -20 -40 -30 -22 -10 -47 -30 -57 -44 -10 -13 -23 -30 -30 -37
-6 -7 -8 -16 -3 -21 4 -5 10 -17 12 -28 2 -13 13 -20 36 -22 18 -2 32 1 32 7
0 5 5 7 12 3 6 -4 25 -11 42 -15 l31 -7 -32 -1 c-35 -1 -44 -15 -18 -25 13 -4
14 -10 5 -26 -9 -16 -8 -18 5 -14 8 3 12 11 9 16 -4 6 2 8 15 3 16 -5 20 -3
15 9 -4 10 -1 16 9 16 9 0 23 3 33 7 16 6 15 2 -4 -22 -25 -32 -16 -43 19 -25
16 9 18 14 9 20 -20 12 24 32 57 25 27 -5 27 -5 4 5 -13 6 -32 8 -42 5 -28 -9
-23 7 11 35 36 29 40 70 10 100 -18 18 -18 20 -2 29 16 9 16 11 -3 25 -19 15
-19 16 13 28 17 7 32 16 32 20 0 14 -25 8 -49 -13 -21 -17 -23 -24 -14 -39 10
-15 8 -19 -12 -22 -15 -3 -29 2 -39 14 -9 10 -24 18 -33 18 -15 0 -16 2 -3 10
12 8 12 10 -5 10 -11 0 -29 7 -39 15 -22 17 -40 20 -31 5z"/>
<path fill="#000000" stroke="none" d="M0 300 c0 -5 5 -10 10 -10 6 0 10 5 10
10 0 6 -4 10 -10 10 -5 0 -10 -4 -10 -10z"/>
<path fill="#000000" stroke="none" d="M20 33 c0 -16 45 -35 71 -30 21 4 21 4
-5 6 -16 0 -38 8 -48 18 -10 9 -18 12 -18 6z"/>
</g>
</svg>
