<?xml version="1.0" standalone="no"?>
<!DOCTYPE svg PUBLIC "-//W3C//DTD SVG 20010904//EN"
 "http://www.w3.org/TR/2001/REC-SVG-20010904/DTD/svg10.dtd">
<svg version="1.0" xmlns="http://www.w3.org/2000/svg"
 width="32.000000pt" height="32.000000pt" viewBox="0 0 32.000000 32.000000"
 preserveAspectRatio="xMidYMid meet">
<metadata>
Created by potrace 1.16, written by Peter Selinger 2001-2019
</metadata>
<g transform="translate(0.000000,32.000000) scale(0.100000,-0.100000)"
fill="#000000" stroke="none">
<path fill="#000000" stroke="none" d="M30 303 c-14 -7 -18 -13 -10 -13 17 0
47 17 40 23 -3 2 -16 -2 -30 -10z"/>
<path fill="#000000" stroke="none" d="M180 306 c0 -2 8 -10 18 -17 15 -13 16
-12 3 4 -13 16 -21 21 -21 13z"/>
<path fill="#000000" stroke="none" d="M226 214 c-9 -25 -2 -26 17 -4 13 16
14 20 3 20 -8 0 -17 -7 -20 -16z"/>
<path fill="#000000" stroke="none" d="M190 180 c-9 -6 -10 -10 -3 -10 6 0 15
5 18 10 8 12 4 12 -15 0z"/>
<path fill="#000000" stroke="none" d="M18 137 c12 -13 19 -27 15 -30 -3 -4 3
-7 15 -7 21 0 21 1 -6 30 -16 17 -33 30 -37 30 -5 0 1 -10 13 -23z"/>
<path fill="#000000" stroke="none" d="M280 138 c-25 -13 -29 -18 -15 -18 19
1 63 27 54 33 -2 2 -20 -5 -39 -15z"/>
<path fill="#000000" stroke="none" d="M175 81 l-30 -35 27 19 c15 11 28 24
28 29 0 5 8 2 18 -5 16 -13 16 -13 2 6 -8 11 -14 20 -15 21 0 0 -13 -15 -30
-35z"/>
</g>
</svg>
