<?xml version="1.0" standalone="no"?>
<!DOCTYPE svg PUBLIC "-//W3C//DTD SVG 20010904//EN"
 "http://www.w3.org/TR/2001/REC-SVG-20010904/DTD/svg10.dtd">
<svg version="1.0" xmlns="http://www.w3.org/2000/svg"
 width="32.000000pt" height="32.000000pt" viewBox="0 0 32.000000 32.000000"
 preserveAspectRatio="xMidYMid meet">
<metadata>
Created by potrace 1.16, written by Peter Selinger 2001-2019
</metadata>
<g transform="translate(0.000000,32.000000) scale(0.100000,-0.100000)"
fill="#000000" stroke="none">
<path fill="#000000" stroke="none" d="M110 316 c0 -2 7 -6 15 -10 8 -3 15 -1
15 4 0 6 -7 10 -15 10 -8 0 -15 -2 -15 -4z"/>
<path fill="#000000" stroke="none" d="M235 310 c3 -5 8 -10 11 -10 2 0 4 5 4
10 0 6 -5 10 -11 10 -5 0 -7 -4 -4 -10z"/>
<path fill="#000000" stroke="none" d="M260 309 c0 -5 5 -7 10 -4 6 3 10 8 10
11 0 2 -4 4 -10 4 -5 0 -10 -5 -10 -11z"/>
<path fill="#000000" stroke="none" d="M288 293 c-21 -5 -21 -8 -8 -34 15 -27
40 -24 40 5 0 28 -7 34 -32 29z"/>
<path fill="#000000" stroke="none" d="M35 280 c-3 -6 6 -15 21 -20 l27 -11
-33 -17 c-41 -21 -46 -33 -20 -50 16 -10 20 -10 18 0 -2 7 -7 17 -13 21 -6 5
-1 7 10 5 14 -2 20 -12 22 -32 3 -35 16 -51 37 -43 24 9 19 26 -8 33 -16 4
-23 11 -19 20 3 8 -3 22 -13 30 -16 14 -17 15 -2 10 10 -3 24 1 32 9 8 8 19
15 25 15 5 0 13 4 16 10 4 7 -3 7 -20 0 -21 -8 -29 -6 -42 10 -19 22 -29 25
-38 10z"/>
<path fill="#000000" stroke="none" d="M6 262 c-9 -27 -5 -34 10 -24 7 4 8 16
4 27 -7 19 -7 19 -14 -3z"/>
<path fill="#000000" stroke="none" d="M205 260 c3 -5 8 -10 11 -10 2 0 4 5 4
10 0 6 -5 10 -11 10 -5 0 -7 -4 -4 -10z"/>
<path fill="#000000" stroke="none" d="M145 240 c4 -6 11 -8 16 -5 14 9 11 15
-7 15 -8 0 -12 -5 -9 -10z"/>
<path fill="#000000" stroke="none" d="M285 220 c3 -5 -1 -10 -9 -10 -8 0 -19
-8 -25 -17 -5 -10 -11 -17 -13 -15 -2 2 -11 0 -21 -4 -17 -6 -16 -8 3 -21 20
-14 23 -13 41 6 21 23 45 29 33 9 -5 -9 -2 -9 9 1 21 17 22 47 1 55 -22 8 -26
8 -19 -4z"/>
<path fill="#000000" stroke="none" d="M97 194 c3 -8 11 -13 18 -10 8 3 16 -2
19 -10 3 -9 10 -12 16 -9 16 10 12 19 -17 33 -36 16 -44 15 -36 -4z"/>
<path fill="#000000" stroke="none" d="M155 140 c3 -5 -1 -10 -9 -10 -8 0 -18
-4 -21 -10 -4 -6 1 -7 11 -3 11 4 15 2 11 -4 -4 -6 -25 -13 -47 -17 -22 -3
-40 -11 -40 -16 0 -6 -5 -10 -11 -10 -5 0 -8 4 -5 9 4 5 -3 7 -14 4 -26 -7
-26 -23 -1 -23 11 0 23 -4 26 -10 3 -5 -1 -10 -11 -10 -13 0 -14 -3 -4 -15 18
-22 67 -19 80 5 8 15 6 24 -10 40 -23 23 -14 26 14 5 28 -21 35 -19 30 11 -3
16 -1 23 6 19 6 -3 7 0 4 9 -4 11 0 16 11 16 9 0 13 5 10 10 -3 6 -13 10 -21
10 -8 0 -12 -4 -9 -10z"/>
<path fill="#000000" stroke="none" d="M285 111 l-29 -6 27 -18 c15 -9 28 -16
28 -15 2 4 7 48 5 47 0 -1 -14 -4 -31 -8z"/>
<path fill="#000000" stroke="none" d="M180 59 c0 -5 9 -9 20 -9 11 0 20 2 20
4 0 2 -9 6 -20 9 -11 3 -20 1 -20 -4z"/>
<path fill="#000000" stroke="none" d="M233 27 c0 -18 6 -23 26 -25 l26 -2
-25 20 -25 20 28 -4 c15 -3 25 -1 22 5 -4 5 -17 9 -29 9 -18 0 -23 -6 -23 -23z"/>
<path fill="#000000" stroke="none" d="M170 15 c-25 -14 -25 -14 -2 -15 12 0
22 5 22 11 0 5 5 7 12 3 7 -4 8 -3 4 4 -9 14 -5 15 -36 -3z"/>
</g>
</svg>
