<?xml version="1.0" standalone="no"?>
<!DOCTYPE svg PUBLIC "-//W3C//DTD SVG 20010904//EN"
 "http://www.w3.org/TR/2001/REC-SVG-20010904/DTD/svg10.dtd">
<svg version="1.0" xmlns="http://www.w3.org/2000/svg"
 width="32.000000pt" height="32.000000pt" viewBox="0 0 32.000000 32.000000"
 preserveAspectRatio="xMidYMid meet">
<metadata>
Created by potrace 1.16, written by Peter Selinger 2001-2019
</metadata>
<g transform="translate(0.000000,32.000000) scale(0.100000,-0.100000)"
fill="#000000" stroke="none">
<path fill="#000000" stroke="none" d="M7 313 c-13 -12 -7 -26 6 -15 6 5 21
12 32 15 16 4 15 5 -6 6 -14 0 -29 -2 -32 -6z"/>
<path fill="#000000" stroke="none" d="M117 301 c24 -15 30 -25 26 -42 -8 -30
-69 -54 -100 -40 -30 14 -49 5 -33 -14 7 -8 8 -20 4 -27 -5 -10 -4 -10 6 -1
11 10 11 15 0 28 -8 9 -8 15 -2 15 6 0 14 -4 17 -10 3 -5 15 -10 26 -10 10 0
19 -6 19 -14 0 -7 7 -19 15 -26 17 -15 19 -7 5 21 -7 12 -7 19 -1 19 6 0 19 9
29 20 18 19 21 19 48 5 41 -21 72 -19 105 9 25 21 26 25 11 31 -15 6 -15 8 6
25 12 10 22 21 22 24 0 11 -15 5 -39 -14 -18 -16 -21 -23 -12 -34 9 -10 6 -17
-13 -30 -33 -21 -42 -20 -78 6 l-30 21 26 14 c27 14 36 26 12 17 -8 -3 -28 2
-45 10 -43 23 -62 20 -24 -3z"/>
<path fill="#000000" stroke="none" d="M192 170 c-18 -11 -39 -20 -48 -20 -8
0 -33 -9 -56 -21 l-41 -21 -23 29 c-13 15 -23 23 -24 17 0 -6 7 -17 16 -25 8
-7 13 -21 11 -31 -4 -15 -2 -16 15 -7 11 6 26 8 34 5 8 -3 12 -2 9 4 -7 12 32
36 72 43 53 10 49 -11 -15 -75 l-60 -61 -32 23 c-17 12 -33 20 -36 17 -5 -5
62 -47 75 -47 4 0 16 9 25 19 18 19 28 18 105 -11 31 -11 40 -2 15 17 -19 14
-18 15 6 35 28 22 46 25 55 10 3 -5 11 -10 17 -10 6 0 3 9 -7 20 -17 19 -20
19 -43 4 -22 -14 -26 -14 -40 -1 -20 21 -9 45 25 53 43 9 56 14 51 19 -2 2
-21 0 -42 -6 -43 -12 -55 -7 -36 16 20 24 7 26 -28 5z"/>
<path fill="#ffffff" stroke="none" d="M213 76 c9 -23 -19 -47 -47 -40 -31 8
-32 11 -5 40 21 23 43 23 52 0z"/>
</g>
</svg>
