<?xml version="1.0" standalone="no"?>
<!DOCTYPE svg PUBLIC "-//W3C//DTD SVG 20010904//EN"
 "http://www.w3.org/TR/2001/REC-SVG-20010904/DTD/svg10.dtd">
<svg version="1.0" xmlns="http://www.w3.org/2000/svg"
 width="32.000000pt" height="32.000000pt" viewBox="0 0 32.000000 32.000000"
 preserveAspectRatio="xMidYMid meet">
<metadata>
Created by potrace 1.16, written by Peter Selinger 2001-2019
</metadata>
<g transform="translate(0.000000,32.000000) scale(0.100000,-0.100000)"
fill="#000000" stroke="none">
<path fill="#000000" stroke="none" d="M15 310 c18 -7 19 -8 3 -15 -16 -6 -18
-23 -18 -151 l0 -144 25 0 c30 0 32 11 5 28 -11 7 -20 17 -20 24 0 6 13 0 28
-15 34 -33 49 -34 81 -4 24 22 28 23 51 10 21 -12 22 -14 4 -10 -12 2 -32 -4
-45 -14 -24 -19 -23 -19 84 -17 l107 1 0 149 c0 81 -2 148 -5 148 -4 0 -20 -7
-38 -15 -30 -15 -31 -15 -9 1 12 9 22 21 22 26 0 5 -64 8 -147 7 -82 -1 -139
-5 -128 -9z"/>
<path fill="#ffffff" stroke="none" d="M169 293 c14 3 18 1 14 -9 -3 -8 -10
-14 -17 -14 -14 1 -46 25 -46 35 0 4 7 2 15 -5 8 -7 24 -10 34 -7z"/>
<path fill="#ffffff" stroke="none" d="M197 235 c2 -1 -13 -1 -32 -1 -35 1
-46 10 -22 19 9 3 40 -6 54 -18z"/>
<path fill="#ffffff" stroke="none" d="M57 214 c-7 -7 -37 7 -37 17 0 6 9 5
21 -1 11 -7 19 -14 16 -16z"/>
<path fill="#ffffff" stroke="none" d="M151 159 l24 0 -24 -10 c-18 -7 -28 -5
-42 7 -16 14 -21 15 -36 3 -15 -11 -15 -10 1 9 17 20 21 21 36 7 9 -8 27 -15
41 -16z"/>
<path fill="#ffffff" stroke="none" d="M250 130 c-20 -13 -33 -13 -25 0 3 6
14 10 23 10 15 0 15 -2 2 -10z"/>
<path fill="#ffffff" stroke="none" d="M95 92 c-7 -8 -45 10 -40 19 4 5 14 3
25 -3 11 -7 17 -14 15 -16z"/>
<path fill="#ffffff" stroke="none" d="M242 51 c-21 -21 -26 -19 -17 8 3 12
12 18 20 15 11 -5 10 -9 -3 -23z"/>
</g>
</svg>
