<?xml version="1.0" standalone="no"?>
<!DOCTYPE svg PUBLIC "-//W3C//DTD SVG 20010904//EN"
 "http://www.w3.org/TR/2001/REC-SVG-20010904/DTD/svg10.dtd">
<svg version="1.0" xmlns="http://www.w3.org/2000/svg"
 width="32.000000pt" height="32.000000pt" viewBox="0 0 32.000000 32.000000"
 preserveAspectRatio="xMidYMid meet">
<metadata>
Created by potrace 1.16, written by Peter Selinger 2001-2019
</metadata>
<g transform="translate(0.000000,32.000000) scale(0.100000,-0.100000)"
fill="#000000" stroke="none">
<path fill="#000000" stroke="none" d="M18 313 c-10 -2 -18 -9 -18 -14 0 -14
16 -11 30 6 7 8 11 14 9 14 -2 -1 -12 -3 -21 -6z"/>
<path fill="#000000" stroke="none" d="M270 293 l-25 -25 38 18 c20 10 37 21
37 26 0 15 -25 6 -50 -19z"/>
<path fill="#000000" stroke="none" d="M120 305 c0 -10 32 -34 46 -35 7 0 14
6 17 14 4 10 0 12 -14 9 -10 -3 -26 0 -34 7 -8 7 -15 9 -15 5z"/>
<path fill="#000000" stroke="none" d="M143 253 c-24 -9 -13 -18 22 -19 19 0
34 0 32 1 -14 12 -45 21 -54 18z"/>
<path fill="#000000" stroke="none" d="M20 231 c0 -10 30 -24 37 -17 3 2 -5 9
-16 16 -12 6 -21 7 -21 1z"/>
<path fill="#000000" stroke="none" d="M74 168 c-16 -19 -16 -20 -1 -9 15 12
20 11 36 -3 14 -12 24 -14 42 -7 l24 10 -24 0 c-14 1 -32 8 -41 16 -15 14 -19
13 -36 -7z"/>
<path fill="#000000" stroke="none" d="M225 130 c-8 -13 5 -13 25 0 13 8 13
10 -2 10 -9 0 -20 -4 -23 -10z"/>
<path fill="#000000" stroke="none" d="M55 111 c-3 -5 4 -13 16 -16 28 -9 33
-2 9 13 -11 6 -21 8 -25 3z"/>
<path fill="#000000" stroke="none" d="M225 59 c-9 -27 -4 -29 17 -8 13 14 14
18 3 23 -8 3 -17 -3 -20 -15z"/>
<path fill="#000000" stroke="none" d="M10 54 c0 -18 49 -54 73 -54 12 0 33 9
46 19 13 10 33 16 45 14 18 -4 17 -2 -4 10 -23 13 -27 12 -51 -10 -32 -30 -47
-29 -81 4 -15 15 -28 22 -28 17z"/>
</g>
</svg>
