<?xml version="1.0" standalone="no"?>
<!DOCTYPE svg PUBLIC "-//W3C//DTD SVG 20010904//EN"
 "http://www.w3.org/TR/2001/REC-SVG-20010904/DTD/svg10.dtd">
<svg version="1.0" xmlns="http://www.w3.org/2000/svg"
 width="32.000000pt" height="32.000000pt" viewBox="0 0 32.000000 32.000000"
 preserveAspectRatio="xMidYMid meet">
<metadata>
Created by potrace 1.16, written by Peter Selinger 2001-2019
</metadata>
<g transform="translate(0.000000,32.000000) scale(0.100000,-0.100000)"
fill="#000000" stroke="none">
<path fill="#000000" stroke="none" d="M0 160 l0 -160 160 0 160 0 0 160 0
160 -160 0 -160 0 0 -160z"/>
<path fill="#ffffff" stroke="none" d="M182 142 c-1 -8 2 -11 8 -7 6 3 8 11 5
16 -4 5 -1 9 5 9 7 0 10 -22 8 -62 l-3 -63 -34 -2 c-19 -2 -40 2 -47 8 -14 11
-20 100 -8 111 12 12 69 3 66 -10z"/>
<path fill="#000000" stroke="none" d="M150 135 c0 -8 5 -15 10 -15 6 0 10 7
10 15 0 8 -4 15 -10 15 -5 0 -10 -7 -10 -15z"/>
<path fill="#000000" stroke="none" d="M161 74 c0 -11 3 -14 6 -6 3 7 2 16 -1
19 -3 4 -6 -2 -5 -13z"/>
</g>
</svg>
