<?xml version="1.0" standalone="no"?>
<!DOCTYPE svg PUBLIC "-//W3C//DTD SVG 20010904//EN"
 "http://www.w3.org/TR/2001/REC-SVG-20010904/DTD/svg10.dtd">
<svg version="1.0" xmlns="http://www.w3.org/2000/svg"
 width="32.000000pt" height="32.000000pt" viewBox="0 0 32.000000 32.000000"
 preserveAspectRatio="xMidYMid meet">
<metadata>
Created by potrace 1.16, written by Peter Selinger 2001-2019
</metadata>
<g transform="translate(0.000000,32.000000) scale(0.100000,-0.100000)"
fill="#000000" stroke="none">
<path fill="#000000" stroke="none" d="M122 158 c-6 -8 -8 -37 -5 -76 6 -60 7
-62 34 -62 15 0 31 5 35 11 4 8 9 7 15 -2 6 -9 8 14 7 61 l-3 75 -36 3 c-21 2
-40 -2 -47 -10z"/>
<path fill="#ffffff" stroke="none" d="M198 142 c2 -7 -2 -10 -12 -6 -11 4
-16 1 -16 -10 0 -9 -4 -16 -10 -16 -5 0 -10 7 -10 16 0 10 -6 14 -15 10 -14
-5 -21 5 -10 16 10 10 69 2 73 -10z"/>
<path fill="#ffffff" stroke="none" d="M176 111 c14 11 15 7 12 -32 -3 -39 -6
-44 -28 -44 -22 0 -25 5 -28 44 -3 39 -2 43 12 32 13 -11 19 -11 32 0z"/>
</g>
</svg>
