<?xml version="1.0" standalone="no"?>
<!DOCTYPE svg PUBLIC "-//W3C//DTD SVG 20010904//EN"
 "http://www.w3.org/TR/2001/REC-SVG-20010904/DTD/svg10.dtd">
<svg version="1.0" xmlns="http://www.w3.org/2000/svg"
 width="8.000000pt" height="14.000000pt" viewBox="0 0 8.000000 14.000000"
 preserveAspectRatio="xMidYMid meet">
<metadata>
Created by potrace 1.16, written by Peter Selinger 2001-2019
</metadata>
<g transform="translate(0.000000,14.000000) scale(0.100000,-0.100000)"
fill="#000000" stroke="none">
<path fill="#000000" stroke="none" d="M0 70 l0 -70 40 0 40 0 0 70 0 70 -40
0 -40 0 0 -70z"/>
<path fill="#ffffff" stroke="none" d="M70 96 c0 -8 -4 -18 -10 -21 -5 -3 -10
-15 -10 -26 0 -10 -4 -19 -10 -19 -5 0 -10 6 -10 14 0 8 5 18 10 21 6 3 10 13
10 21 0 11 -6 13 -20 9 -11 -4 -20 -2 -20 4 0 6 13 11 30 11 19 0 30 -5 30
-14z"/>
</g>
</svg>
