<?xml version="1.0" standalone="no"?>
<!DOCTYPE svg PUBLIC "-//W3C//DTD SVG 20010904//EN"
 "http://www.w3.org/TR/2001/REC-SVG-20010904/DTD/svg10.dtd">
<svg version="1.0" xmlns="http://www.w3.org/2000/svg"
 width="8.000000pt" height="14.000000pt" viewBox="0 0 8.000000 14.000000"
 preserveAspectRatio="xMidYMid meet">
<metadata>
Created by potrace 1.16, written by Peter Selinger 2001-2019
</metadata>
<g transform="translate(0.000000,14.000000) scale(0.100000,-0.100000)"
fill="#000000" stroke="none">
<path fill="#000000" stroke="none" d="M0 70 l0 -70 40 0 40 0 0 70 0 70 -40
0 -40 0 0 -70z"/>
<path fill="#ffffff" stroke="none" d="M68 87 c4 -22 -25 -57 -47 -57 -13 1
-13 2 2 11 18 10 18 11 1 24 -16 11 -16 15 -5 29 18 21 45 17 49 -7z"/>
<path fill="#000000" stroke="none" d="M36 91 c-4 -7 -5 -15 -2 -18 9 -9 19 4
14 18 -4 11 -6 11 -12 0z"/>
</g>
</svg>
