<?xml version="1.0" standalone="no"?>
<!DOCTYPE svg PUBLIC "-//W3C//DTD SVG 20010904//EN"
 "http://www.w3.org/TR/2001/REC-SVG-20010904/DTD/svg10.dtd">
<svg version="1.0" xmlns="http://www.w3.org/2000/svg"
 width="32.000000pt" height="32.000000pt" viewBox="0 0 32.000000 32.000000"
 preserveAspectRatio="xMidYMid meet">
<metadata>
Created by potrace 1.16, written by Peter Selinger 2001-2019
</metadata>
<g transform="translate(0.000000,32.000000) scale(0.100000,-0.100000)"
fill="#000000" stroke="none">
<path fill="#000000" stroke="none" d="M120 142 c0 -22 30 -35 55 -24 14 7 25
16 25 22 0 6 -9 5 -25 -2 -19 -8 -28 -8 -40 2 -8 7 -15 8 -15 2z"/>
<path fill="#000000" stroke="none" d="M206 134 c-3 -8 -17 -19 -31 -26 -21
-9 -28 -8 -46 8 -17 16 -22 16 -29 4 -6 -10 -5 -19 3 -25 6 -6 17 -19 23 -30
17 -30 50 -31 69 -1 9 13 31 28 48 32 29 6 30 7 11 20 -10 7 -24 18 -31 23 -8
7 -13 5 -17 -5z"/>
<path fill="#ffffff" stroke="none" d="M235 110 c-3 -5 -12 -10 -19 -10 -8 0
-19 -7 -26 -15 -17 -20 -37 -19 -67 5 -14 11 -21 20 -16 20 6 0 16 -7 23 -15
14 -17 46 -20 55 -4 4 6 17 14 29 19 28 12 28 12 21 0z"/>
<path fill="#000000" stroke="none" d="M225 80 c-19 -8 -19 -9 2 -9 12 -1 25
4 28 9 7 12 -2 12 -30 0z"/>
</g>
</svg>
