<?xml version="1.0" standalone="no"?>
<!DOCTYPE svg PUBLIC "-//W3C//DTD SVG 20010904//EN"
 "http://www.w3.org/TR/2001/REC-SVG-20010904/DTD/svg10.dtd">
<svg version="1.0" xmlns="http://www.w3.org/2000/svg"
 width="32.000000pt" height="32.000000pt" viewBox="0 0 32.000000 32.000000"
 preserveAspectRatio="xMidYMid meet">
<metadata>
Created by potrace 1.16, written by Peter Selinger 2001-2019
</metadata>
<g transform="translate(0.000000,32.000000) scale(0.100000,-0.100000)"
fill="#000000" stroke="none">
<path fill="#000000" stroke="none" d="M0 160 l0 -160 160 0 160 0 0 160 0
160 -160 0 -160 0 0 -160z"/>
<path fill="#ffffff" stroke="none" d="M181 140 c-19 -5 -41 -6 -49 -2 -12 4
-14 1 -9 -12 4 -10 7 -28 7 -41 0 -13 7 -26 15 -28 11 -4 10 -5 -2 -3 -12 1
-20 13 -24 41 -4 22 -5 43 -2 48 2 4 25 7 51 6 46 -1 46 -1 13 -9z"/>
<path fill="#ffffff" stroke="none" d="M193 123 c-7 -2 -13 -14 -14 -26 0 -12
-3 -16 -6 -9 -7 18 4 42 19 41 10 0 10 -2 1 -6z"/>
</g>
</svg>
