<?xml version="1.0" standalone="no"?>
<!DOCTYPE svg PUBLIC "-//W3C//DTD SVG 20010904//EN"
 "http://www.w3.org/TR/2001/REC-SVG-20010904/DTD/svg10.dtd">
<svg version="1.0" xmlns="http://www.w3.org/2000/svg"
 width="32.000000pt" height="32.000000pt" viewBox="0 0 32.000000 32.000000"
 preserveAspectRatio="xMidYMid meet">
<metadata>
Created by potrace 1.16, written by Peter Selinger 2001-2019
</metadata>
<g transform="translate(0.000000,32.000000) scale(0.100000,-0.100000)"
fill="#000000" stroke="none">
<path fill="#000000" stroke="none" d="M130 136 c0 -16 37 -32 48 -21 7 7 -25
35 -40 35 -4 0 -8 -6 -8 -14z"/>
<path fill="#000000" stroke="none" d="M132 98 c6 -17 36 -34 45 -24 4 4 -1
14 -11 22 -24 17 -39 18 -34 2z"/>
<path fill="#000000" stroke="none" d="M130 72 c0 -5 3 -12 8 -16 4 -4 7 -13
7 -19 0 -5 7 -12 15 -14 12 -4 13 -3 1 5 -11 8 -11 11 5 14 15 3 14 6 -9 21
-15 10 -27 14 -27 9z"/>
</g>
</svg>
