<?xml version="1.0" standalone="no"?>
<!DOCTYPE svg PUBLIC "-//W3C//DTD SVG 20010904//EN"
 "http://www.w3.org/TR/2001/REC-SVG-20010904/DTD/svg10.dtd">
<svg version="1.0" xmlns="http://www.w3.org/2000/svg"
 width="32.000000pt" height="32.000000pt" viewBox="0 0 32.000000 32.000000"
 preserveAspectRatio="xMidYMid meet">
<metadata>
Created by potrace 1.16, written by Peter Selinger 2001-2019
</metadata>
<g transform="translate(0.000000,32.000000) scale(0.100000,-0.100000)"
fill="#000000" stroke="none">
<path fill="#000000" stroke="none" d="M0 160 l0 -160 53 0 c41 0 55 4 64 20
8 12 9 21 3 25 -6 3 -10 17 -10 31 0 21 -3 23 -19 14 -25 -13 -58 -13 -66 0
-9 15 12 38 38 42 12 2 21 9 19 16 -1 7 5 15 13 19 14 5 14 7 -1 24 -19 21
-11 60 8 41 8 -8 17 -6 35 8 25 19 55 17 74 -6 9 -11 15 -11 25 -3 19 16 30
-16 13 -37 -11 -14 -10 -18 5 -29 10 -8 24 -11 31 -8 13 4 14 0 15 -49 0 -39
-4 -54 -19 -65 -9 -7 -11 -13 -6 -13 6 0 -1 -7 -15 -15 -25 -14 -24 -14 18
-15 l42 0 0 160 0 160 -160 0 -160 0 0 -160z"/>
<path fill="#000000" stroke="none" d="M139 229 c-16 -16 -23 -18 -35 -8 -11
9 -14 8 -14 -4 0 -8 7 -20 16 -28 14 -12 14 -14 -2 -26 -10 -7 -14 -13 -10
-13 5 0 3 -7 -4 -15 -7 -8 -21 -15 -31 -15 -19 0 -35 -17 -24 -28 3 -3 10 0
14 7 7 11 9 11 13 0 4 -11 13 -8 38 10 l32 23 -7 -40 c-4 -26 -2 -42 5 -47 8
-5 8 -11 -1 -21 -9 -11 -7 -14 10 -14 15 0 21 6 21 24 0 13 6 26 14 29 9 4 14
18 14 36 -1 22 -5 28 -16 23 -9 -3 -6 4 7 17 12 12 26 19 31 16 5 -3 11 -1 15
5 3 5 0 10 -7 10 -7 0 -2 7 10 16 12 8 22 22 22 31 0 13 -3 13 -15 3 -13 -11
-18 -10 -28 2 -21 26 -46 29 -68 7z"/>
<path fill="#ffffff" stroke="none" d="M170 170 c0 -5 -4 -10 -10 -10 -5 0
-10 5 -10 10 0 6 5 10 10 10 6 0 10 -4 10 -10z"/>
<path fill="#000000" stroke="none" d="M237 154 c-3 -3 -13 -7 -24 -8 -18 -3
-21 -23 -9 -74 3 -12 1 -22 -5 -22 -5 0 -9 -9 -9 -20 0 -14 7 -20 21 -20 13 0
18 4 13 12 -5 7 -9 20 -9 30 -1 13 2 15 15 8 9 -5 22 -5 30 0 8 5 17 7 20 5 7
-4 10 10 10 40 0 28 -3 45 -8 40 -3 -2 -12 0 -22 5 -10 5 -20 7 -23 4z"/>
</g>
</svg>
