<?xml version="1.0" standalone="no"?>
<!DOCTYPE svg PUBLIC "-//W3C//DTD SVG 20010904//EN"
 "http://www.w3.org/TR/2001/REC-SVG-20010904/DTD/svg10.dtd">
<svg version="1.0" xmlns="http://www.w3.org/2000/svg"
 width="32.000000pt" height="32.000000pt" viewBox="0 0 32.000000 32.000000"
 preserveAspectRatio="xMidYMid meet">
<metadata>
Created by potrace 1.16, written by Peter Selinger 2001-2019
</metadata>
<g transform="translate(0.000000,32.000000) scale(0.100000,-0.100000)"
fill="#000000" stroke="none">
<path fill="#000000" stroke="none" d="M232 238 c-25 -25 -8 -168 22 -194 9
-8 11 -9 6 -2 -6 7 -10 19 -10 28 0 13 2 13 11 0 9 -13 10 -13 6 0 -2 8 -10
14 -16 12 -6 -1 -11 8 -11 19 0 18 3 19 15 9 12 -10 16 -10 19 1 7 23 3 49 -7
49 -5 0 -6 -12 -2 -27 5 -22 4 -25 -8 -15 -8 7 -17 9 -20 5 -16 -15 -6 91 10
109 18 20 4 25 -15 6z"/>
<path fill="#000000" stroke="none" d="M280 241 c0 -5 -9 -13 -20 -16 -11 -3
-20 -11 -20 -17 0 -6 3 -8 7 -5 3 4 13 1 22 -6 14 -11 15 -10 1 7 -13 18 -13
19 0 14 11 -4 16 0 17 13 1 10 0 19 -3 19 -2 0 -4 -4 -4 -9z"/>
<path fill="#000000" stroke="none" d="M243 168 c-1 -11 1 -16 5 -12 4 5 11
12 15 15 5 3 2 9 -5 12 -9 3 -14 -3 -15 -15z"/>
</g>
</svg>
