<?xml version="1.0" standalone="no"?>
<!DOCTYPE svg PUBLIC "-//W3C//DTD SVG 20010904//EN"
 "http://www.w3.org/TR/2001/REC-SVG-20010904/DTD/svg10.dtd">
<svg version="1.0" xmlns="http://www.w3.org/2000/svg"
 width="32.000000pt" height="32.000000pt" viewBox="0 0 32.000000 32.000000"
 preserveAspectRatio="xMidYMid meet">
<metadata>
Created by potrace 1.16, written by Peter Selinger 2001-2019
</metadata>
<g transform="translate(0.000000,32.000000) scale(0.100000,-0.100000)"
fill="#000000" stroke="none">
<path fill="#000000" stroke="none" d="M210 205 c-18 -19 -21 -31 -16 -58 9
-50 28 -62 66 -45 19 8 28 18 25 27 -3 7 -1 19 5 26 8 9 8 15 0 20 -6 4 -8 16
-4 27 5 17 3 20 -11 14 -10 -3 -23 -2 -30 4 -8 7 -18 3 -35 -15z"/>
<path fill="#ffffff" stroke="none" d="M263 203 c12 5 14 1 7 -23 -4 -16 -6
-31 -2 -34 3 -3 0 -6 -6 -6 -6 0 -9 -6 -6 -14 3 -8 1 -17 -5 -21 -6 -3 -11 0
-11 7 0 10 -3 9 -10 -2 -7 -11 -11 -9 -19 13 -6 16 -11 36 -11 44 0 22 33 53
41 40 4 -5 14 -7 22 -4z"/>
</g>
</svg>
