<?xml version="1.0" standalone="no"?>
<!DOCTYPE svg PUBLIC "-//W3C//DTD SVG 20010904//EN"
 "http://www.w3.org/TR/2001/REC-SVG-20010904/DTD/svg10.dtd">
<svg version="1.0" xmlns="http://www.w3.org/2000/svg"
 width="20.000000pt" height="20.000000pt" viewBox="0 0 20.000000 20.000000"
 preserveAspectRatio="xMidYMid meet">
<metadata>
Created by potrace 1.16, written by Peter Selinger 2001-2019
</metadata>
<g transform="translate(0.000000,20.000000) scale(0.100000,-0.100000)"
fill="#000000" stroke="none">
<path fill="#000000" stroke="none" d="M0 190 c0 -6 33 -10 80 -10 l80 0 0
-80 0 -80 -80 0 c-47 0 -80 -4 -80 -10 0 -6 40 -10 100 -10 l100 0 0 100 0
100 -100 0 c-60 0 -100 -4 -100 -10z"/>
<path fill="#000000" stroke="none" d="M10 100 l0 -70 70 0 70 0 0 70 0 70
-70 0 -70 0 0 -70z"/>
<path fill="#ffffff" stroke="none" d="M130 132 c0 -9 -10 -22 -22 -27 -13 -6
-27 -20 -33 -32 -5 -13 -18 -23 -27 -23 -26 0 -22 33 5 45 12 6 26 20 32 33
12 26 45 30 45 4z"/>
</g>
</svg>
