<?xml version="1.0" standalone="no"?>
<!DOCTYPE svg PUBLIC "-//W3C//DTD SVG 20010904//EN"
 "http://www.w3.org/TR/2001/REC-SVG-20010904/DTD/svg10.dtd">
<svg version="1.0" xmlns="http://www.w3.org/2000/svg"
 width="20.000000pt" height="20.000000pt" viewBox="0 0 20.000000 20.000000"
 preserveAspectRatio="xMidYMid meet">
<metadata>
Created by potrace 1.16, written by Peter Selinger 2001-2019
</metadata>
<g transform="translate(0.000000,20.000000) scale(0.100000,-0.100000)"
fill="#000000" stroke="none">
<path fill="#000000" stroke="none" d="M0 190 c0 -6 36 -11 83 -12 l82 -2 -77
-3 -78 -4 0 -69 c0 -37 -3 -75 -6 -84 -5 -14 7 -16 95 -16 l101 0 0 100 0 100
-100 0 c-60 0 -100 -4 -100 -10z"/>
<path fill="#ffffff" stroke="none" d="M96 71 c-16 -17 -33 -28 -38 -25 -5 4
1 17 13 30 l22 24 -21 23 c-33 35 -13 42 22 8 l30 -31 -28 -29z"/>
</g>
</svg>
