<?xml version="1.0" standalone="no"?>
<!DOCTYPE svg PUBLIC "-//W3C//DTD SVG 20010904//EN"
 "http://www.w3.org/TR/2001/REC-SVG-20010904/DTD/svg10.dtd">
<svg version="1.0" xmlns="http://www.w3.org/2000/svg"
 width="20.000000pt" height="20.000000pt" viewBox="0 0 20.000000 20.000000"
 preserveAspectRatio="xMidYMid meet">
<metadata>
Created by potrace 1.16, written by Peter Selinger 2001-2019
</metadata>
<g transform="translate(0.000000,20.000000) scale(0.100000,-0.100000)"
fill="#000000" stroke="none">
<path fill="#000000" stroke="none" d="M0 100 l0 -80 80 0 80 0 0 80 0 80 -80
0 -80 0 0 -80z"/>
<path fill="#ffffff" stroke="none" d="M150 100 l0 -70 -70 0 -70 0 0 70 0 70
70 0 70 0 0 -70z"/>
<path fill="#000000" stroke="none" d="M70 150 c0 -6 -8 -10 -17 -8 -11 2 -17
-2 -15 -11 2 -8 -3 -18 -10 -23 -11 -6 -11 -10 0 -16 7 -5 12 -15 10 -23 -2
-8 3 -13 11 -11 8 2 18 -3 23 -10 6 -11 10 -11 16 0 5 7 15 12 23 10 8 -2 13
3 11 11 -2 8 3 18 10 23 11 6 11 10 0 16 -7 5 -12 15 -10 23 2 9 -4 13 -14 11
-10 -2 -18 2 -18 8 0 5 -4 10 -10 10 -5 0 -10 -5 -10 -10z"/>
<path fill="#ffffff" stroke="none" d="M96 109 c10 -17 -13 -36 -27 -22 -12
12 -4 33 11 33 5 0 12 -5 16 -11z"/>
</g>
</svg>
