<?xml version="1.0" standalone="no"?>
<!DOCTYPE svg PUBLIC "-//W3C//DTD SVG 20010904//EN"
 "http://www.w3.org/TR/2001/REC-SVG-20010904/DTD/svg10.dtd">
<svg version="1.0" xmlns="http://www.w3.org/2000/svg"
 width="20.000000pt" height="20.000000pt" viewBox="0 0 20.000000 20.000000"
 preserveAspectRatio="xMidYMid meet">
<metadata>
Created by potrace 1.16, written by Peter Selinger 2001-2019
</metadata>
<g transform="translate(0.000000,20.000000) scale(0.100000,-0.100000)"
fill="#000000" stroke="none">
<path fill="#000000" stroke="none" d="M0 100 l0 -80 80 0 80 0 0 80 0 80 -80
0 -80 0 0 -80z"/>
<path fill="#ffffff" stroke="none" d="M150 100 l0 -70 -70 0 -70 0 0 70 0 70
70 0 70 0 0 -70z"/>
<path fill="#000000" stroke="none" d="M85 128 c-6 -13 -20 -27 -32 -33 -27
-12 -31 -45 -5 -45 9 0 22 10 27 23 6 12 20 26 33 32 26 12 30 45 4 45 -9 0
-22 -10 -27 -22z"/>
</g>
</svg>
