<?xml version="1.0" standalone="no"?>
<!DOCTYPE svg PUBLIC "-//W3C//DTD SVG 20010904//EN"
 "http://www.w3.org/TR/2001/REC-SVG-20010904/DTD/svg10.dtd">
<svg version="1.0" xmlns="http://www.w3.org/2000/svg"
 width="32.000000pt" height="32.000000pt" viewBox="0 0 32.000000 32.000000"
 preserveAspectRatio="xMidYMid meet">
<metadata>
Created by potrace 1.16, written by Peter Selinger 2001-2019
</metadata>
<g transform="translate(0.000000,32.000000) scale(0.100000,-0.100000)"
fill="#000000" stroke="none">
<path fill="#000000" stroke="none" d="M297 262 c-5 -12 -17 -27 -28 -33 -11
-5 -17 -15 -14 -22 4 -7 -2 -2 -12 9 l-18 21 -40 -42 c-22 -24 -71 -76 -110
-116 l-69 -74 67 65 c61 58 70 64 104 62 34 -3 43 3 86 46 39 40 48 55 45 78
-3 28 -4 28 -11 6z"/>
<path fill="#ffffff" stroke="none" d="M227 213 c-4 -3 -1 -13 6 -21 9 -12 9
-14 0 -9 -7 5 -16 -1 -23 -13 -6 -11 -20 -20 -32 -20 -20 0 -19 3 12 35 19 19
36 35 39 35 2 0 1 -3 -2 -7z"/>
</g>
</svg>
