<?xml version="1.0" standalone="no"?>
<!DOCTYPE svg PUBLIC "-//W3C//DTD SVG 20010904//EN"
 "http://www.w3.org/TR/2001/REC-SVG-20010904/DTD/svg10.dtd">
<svg version="1.0" xmlns="http://www.w3.org/2000/svg"
 width="32.000000pt" height="32.000000pt" viewBox="0 0 32.000000 32.000000"
 preserveAspectRatio="xMidYMid meet">
<metadata>
Created by potrace 1.16, written by Peter Selinger 2001-2019
</metadata>
<g transform="translate(0.000000,32.000000) scale(0.100000,-0.100000)"
fill="#000000" stroke="none">
<path fill="#000000" stroke="none" d="M146 269 c-37 -40 -56 -77 -56 -105 0
-8 5 -12 10 -9 6 3 10 17 10 29 0 14 18 43 44 70 23 26 40 49 36 51 -4 3 -24
-13 -44 -36z"/>
<path fill="#000000" stroke="none" d="M250 155 c-26 -27 -53 -45 -66 -45 -13
0 -26 -4 -29 -10 -9 -15 23 -12 59 5 40 19 101 81 89 88 -6 4 -29 -14 -53 -38z"/>
</g>
</svg>
