<?xml version="1.0" standalone="no"?>
<!DOCTYPE svg PUBLIC "-//W3C//DTD SVG 20010904//EN"
 "http://www.w3.org/TR/2001/REC-SVG-20010904/DTD/svg10.dtd">
<svg version="1.0" xmlns="http://www.w3.org/2000/svg"
 width="32.000000pt" height="32.000000pt" viewBox="0 0 32.000000 32.000000"
 preserveAspectRatio="xMidYMid meet">
<metadata>
Created by potrace 1.16, written by Peter Selinger 2001-2019
</metadata>
<g transform="translate(0.000000,32.000000) scale(0.100000,-0.100000)"
fill="#000000" stroke="none">
<path fill="#000000" stroke="none" d="M146 281 c-22 -22 -27 -36 -24 -65 l3
-37 65 66 64 65 -40 0 c-31 0 -46 -6 -68 -29z"/>
<path fill="#ffffff" stroke="none" d="M200 280 c0 8 3 10 6 7 9 -9 -16 -38
-27 -31 -5 3 -9 -1 -9 -9 0 -8 -7 -20 -15 -27 -12 -10 -15 -9 -15 4 0 10 5 14
10 11 6 -3 10 -1 10 4 0 6 -5 11 -12 11 -6 0 -3 9 7 20 14 15 21 17 32 9 10
-9 13 -8 13 1z"/>
<path fill="#000000" stroke="none" d="M262 285 c6 -7 -154 -175 -168 -175
-14 0 -84 -73 -84 -88 0 -10 3 -10 14 0 8 7 12 16 9 21 -2 4 3 7 12 7 9 0 13
5 10 10 -3 6 1 11 9 11 32 3 36 4 35 13 -2 15 174 185 185 179 6 -4 5 1 -3 10
-7 9 -16 17 -19 17 -3 0 -3 -2 0 -5z"/>
<path fill="#ffffff" stroke="none" d="M94 92 c3 -5 -1 -9 -9 -9 -8 0 -12 4
-9 9 3 4 7 8 9 8 2 0 6 -4 9 -8z"/>
<path fill="#000000" stroke="none" d="M240 185 l-64 -65 40 0 c56 0 97 42 92
94 l-3 37 -65 -66z"/>
<path fill="#ffffff" stroke="none" d="M282 203 c-9 -3 -10 -9 -2 -17 7 -9 4
-18 -10 -31 -11 -10 -20 -13 -20 -7 0 7 -5 12 -11 12 -5 0 -7 -4 -4 -10 3 -5
-1 -10 -11 -10 -13 0 -14 3 -4 15 7 8 19 15 28 15 8 0 12 3 9 7 -9 8 12 33 27
32 6 0 6 -3 -2 -6z"/>
</g>
</svg>
