<?xml version="1.0" standalone="no"?>
<!DOCTYPE svg PUBLIC "-//W3C//DTD SVG 20010904//EN"
 "http://www.w3.org/TR/2001/REC-SVG-20010904/DTD/svg10.dtd">
<svg version="1.0" xmlns="http://www.w3.org/2000/svg"
 width="32.000000pt" height="32.000000pt" viewBox="0 0 32.000000 32.000000"
 preserveAspectRatio="xMidYMid meet">
<metadata>
Created by potrace 1.16, written by Peter Selinger 2001-2019
</metadata>
<g transform="translate(0.000000,32.000000) scale(0.100000,-0.100000)"
fill="#000000" stroke="none">
<path fill="#000000" stroke="none" d="M144 258 c-19 -23 -19 -23 2 -5 11 9
23 15 26 12 3 -3 16 -1 29 4 23 9 23 10 -7 10 -20 1 -37 -7 -50 -21z"/>
<path fill="#000000" stroke="none" d="M297 263 c-4 -3 -7 -16 -7 -28 0 -29
-57 -85 -86 -85 -13 0 -26 -5 -30 -12 -5 -8 3 -9 31 -5 48 8 93 50 101 94 6
34 3 48 -9 36z"/>
<path fill="#000000" stroke="none" d="M189 217 c-18 -18 -45 -46 -59 -62 -13
-17 3 -3 38 30 34 33 62 61 62 62 0 7 -8 1 -41 -30z"/>
<path fill="#000000" stroke="none" d="M77 123 c-9 -2 -15 -9 -12 -14 9 -14
22 -11 29 6 3 8 4 14 3 14 -1 -1 -10 -3 -20 -6z"/>
<path fill="#000000" stroke="none" d="M10 45 c0 -8 7 -15 15 -15 19 0 19 16
0 24 -9 3 -15 0 -15 -9z"/>
</g>
</svg>
