<?xml version="1.0" standalone="no"?>
<!DOCTYPE svg PUBLIC "-//W3C//DTD SVG 20010904//EN"
 "http://www.w3.org/TR/2001/REC-SVG-20010904/DTD/svg10.dtd">
<svg version="1.0" xmlns="http://www.w3.org/2000/svg"
 width="32.000000pt" height="32.000000pt" viewBox="0 0 32.000000 32.000000"
 preserveAspectRatio="xMidYMid meet">
<metadata>
Created by potrace 1.16, written by Peter Selinger 2001-2019
</metadata>
<g transform="translate(0.000000,32.000000) scale(0.100000,-0.100000)"
fill="#000000" stroke="none">
<path fill="#000000" stroke="none" d="M0 160 l0 -160 160 0 160 0 0 160 0
160 -160 0 -160 0 0 -160z"/>
<path fill="#ffffff" stroke="none" d="M249 249 c-10 -10 -19 -24 -19 -31 0
-7 16 3 35 22 l35 34 0 -40 c0 -33 -7 -46 -39 -78 -32 -32 -44 -37 -75 -34
l-37 3 30 31 c17 17 28 34 24 38 -9 9 -103 -84 -103 -102 0 -7 -8 -12 -17 -10
-21 4 -30 38 -11 38 8 0 35 22 62 49 43 44 46 49 27 54 -29 7 -30 57 -1 57 11
0 30 -6 41 -12 18 -11 23 -10 32 4 8 12 15 14 23 7 10 -8 8 -15 -7 -30z"/>
<path fill="#ffffff" stroke="none" d="M60 74 c0 -9 -9 -18 -21 -21 -16 -4
-17 -8 -7 -14 9 -6 9 -9 1 -9 -21 0 -25 21 -7 41 21 23 34 24 34 3z"/>
</g>
</svg>
