<?xml version="1.0" standalone="no"?>
<!DOCTYPE svg PUBLIC "-//W3C//DTD SVG 20010904//EN"
 "http://www.w3.org/TR/2001/REC-SVG-20010904/DTD/svg10.dtd">
<svg version="1.0" xmlns="http://www.w3.org/2000/svg"
 width="32.000000pt" height="32.000000pt" viewBox="0 0 32.000000 32.000000"
 preserveAspectRatio="xMidYMid meet">
<metadata>
Created by potrace 1.16, written by Peter Selinger 2001-2019
</metadata>
<g transform="translate(0.000000,32.000000) scale(0.100000,-0.100000)"
fill="#000000" stroke="none">
<path fill="#000000" stroke="none" d="M293 235 c0 -22 2 -30 4 -17 2 12 2 30
0 40 -3 9 -5 -1 -4 -23z"/>
<path fill="#000000" stroke="none" d="M254 158 l-29 -33 33 29 c30 28 37 36
29 36 -2 0 -16 -15 -33 -32z"/>
<path fill="#000000" stroke="none" d="M168 123 c12 -2 30 -2 40 0 9 3 -1 5
-23 4 -22 0 -30 -2 -17 -4z"/>
</g>
</svg>
