<?xml version="1.0" standalone="no"?>
<!DOCTYPE svg PUBLIC "-//W3C//DTD SVG 20010904//EN"
 "http://www.w3.org/TR/2001/REC-SVG-20010904/DTD/svg10.dtd">
<svg version="1.0" xmlns="http://www.w3.org/2000/svg"
 width="32.000000pt" height="32.000000pt" viewBox="0 0 32.000000 32.000000"
 preserveAspectRatio="xMidYMid meet">
<metadata>
Created by potrace 1.16, written by Peter Selinger 2001-2019
</metadata>
<g transform="translate(0.000000,32.000000) scale(0.100000,-0.100000)"
fill="#000000" stroke="none">
<path fill="#000000" stroke="none" d="M0 160 l0 -160 160 0 160 0 0 160 0
160 -160 0 -160 0 0 -160z"/>
<path fill="#ffffff" stroke="none" d="M201 269 c-13 -5 -26 -7 -29 -4 -3 3
-15 -3 -26 -12 -21 -18 -21 -18 -2 5 13 14 30 22 50 21 30 0 30 -1 7 -10z"/>
<path fill="#ffffff" stroke="none" d="M306 227 c-8 -44 -53 -86 -101 -94 -28
-4 -36 -3 -31 5 4 7 17 12 30 12 29 0 86 56 86 85 0 22 10 39 18 30 2 -2 2
-19 -2 -38z"/>
<path fill="#ffffff" stroke="none" d="M230 247 c0 -1 -28 -29 -62 -62 -35
-33 -51 -47 -38 -30 39 46 100 103 100 92z"/>
<path fill="#ffffff" stroke="none" d="M94 115 c-7 -17 -20 -20 -29 -6 -3 5 3
12 12 14 10 3 19 5 20 6 1 0 0 -6 -3 -14z"/>
<path fill="#ffffff" stroke="none" d="M40 39 c0 -5 -7 -9 -15 -9 -8 0 -15 7
-15 15 0 9 6 12 15 9 8 -4 15 -10 15 -15z"/>
</g>
</svg>
