<?xml version="1.0" standalone="no"?>
<!DOCTYPE svg PUBLIC "-//W3C//DTD SVG 20010904//EN"
 "http://www.w3.org/TR/2001/REC-SVG-20010904/DTD/svg10.dtd">
<svg version="1.0" xmlns="http://www.w3.org/2000/svg"
 width="32.000000pt" height="32.000000pt" viewBox="0 0 32.000000 32.000000"
 preserveAspectRatio="xMidYMid meet">
<metadata>
Created by potrace 1.16, written by Peter Selinger 2001-2019
</metadata>
<g transform="translate(0.000000,32.000000) scale(0.100000,-0.100000)"
fill="#000000" stroke="none">
<path fill="#000000" stroke="none" d="M0 160 l0 -160 160 0 160 0 0 160 0
160 -160 0 -160 0 0 -160z"/>
<path fill="#ffffff" stroke="none" d="M258 259 c26 -21 26 -21 4 -14 -33 10
-78 -31 -59 -54 10 -14 10 -14 -3 -4 -12 9 -24 3 -62 -32 -27 -24 -48 -49 -48
-55 0 -9 -4 -9 -16 1 -14 11 -14 14 -1 19 16 5 157 138 157 147 0 9 -74 -8
-90 -20 -8 -7 -6 -2 4 11 25 29 79 29 114 1z"/>
<path fill="#ffffff" stroke="none" d="M306 227 c-8 -45 -53 -86 -102 -94 -28
-4 -36 -3 -29 5 6 6 20 13 33 15 23 3 84 55 78 66 -6 9 14 55 20 48 4 -3 4
-21 0 -40z"/>
<path fill="#ffffff" stroke="none" d="M38 42 c2 -7 -3 -12 -12 -12 -9 0 -16
7 -16 16 0 17 22 14 28 -4z"/>
</g>
</svg>
