<?xml version="1.0" standalone="no"?>
<!DOCTYPE svg PUBLIC "-//W3C//DTD SVG 20010904//EN"
 "http://www.w3.org/TR/2001/REC-SVG-20010904/DTD/svg10.dtd">
<svg version="1.0" xmlns="http://www.w3.org/2000/svg"
 width="32.000000pt" height="32.000000pt" viewBox="0 0 32.000000 32.000000"
 preserveAspectRatio="xMidYMid meet">
<metadata>
Created by potrace 1.16, written by Peter Selinger 2001-2019
</metadata>
<g transform="translate(0.000000,32.000000) scale(0.100000,-0.100000)"
fill="#000000" stroke="none">
<path fill="#000000" stroke="none" d="M0 160 l0 -160 160 0 160 0 0 160 0
160 -160 0 -160 0 0 -160z"/>
<path fill="#ffffff" stroke="none" d="M310 294 c0 -20 -151 -183 -167 -179
-6 2 -19 -5 -29 -17 -18 -19 -18 -20 0 -34 10 -7 22 -11 27 -9 4 3 10 1 14 -5
8 -13 -18 -13 -49 2 -22 9 -29 8 -46 -7 -11 -10 -17 -22 -14 -27 4 -6 -2 -8
-12 -6 -10 2 -20 12 -22 22 -2 10 0 16 6 12 5 -3 17 3 27 14 15 17 16 24 7 46
-15 31 -15 57 -2 49 6 -4 8 -10 5 -14 -2 -5 2 -17 9 -27 14 -18 15 -18 34 0
12 10 19 23 17 29 -4 16 159 167 179 167 9 0 16 -7 16 -16z"/>
</g>
</svg>
