<?xml version="1.0" standalone="no"?>
<!DOCTYPE svg PUBLIC "-//W3C//DTD SVG 20010904//EN"
 "http://www.w3.org/TR/2001/REC-SVG-20010904/DTD/svg10.dtd">
<svg version="1.0" xmlns="http://www.w3.org/2000/svg"
 width="32.000000pt" height="32.000000pt" viewBox="0 0 32.000000 32.000000"
 preserveAspectRatio="xMidYMid meet">
<metadata>
Created by potrace 1.16, written by Peter Selinger 2001-2019
</metadata>
<g transform="translate(0.000000,32.000000) scale(0.100000,-0.100000)"
fill="#000000" stroke="none">
<path fill="#000000" stroke="none" d="M0 160 l0 -160 160 0 160 0 0 160 0
160 -160 0 -160 0 0 -160z"/>
<path fill="#ffffff" stroke="none" d="M310 297 c0 -7 -37 -48 -82 -92 -79
-76 -79 -76 -15 -9 37 38 64 73 60 77 -4 4 -39 -25 -79 -64 -50 -50 -74 -67
-79 -58 -5 7 -4 10 2 6 5 -3 45 30 88 74 76 76 105 94 105 66z"/>
<path fill="#ffffff" stroke="none" d="M114 61 c4 -5 -3 -7 -14 -4 -23 6 -26
13 -6 13 8 0 17 -4 20 -9z"/>
<path fill="#000000" stroke="none" d="M275 291 c-6 -11 9 -23 19 -14 9 9 7
23 -3 23 -6 0 -12 -4 -16 -9z"/>
</g>
</svg>
