<?xml version="1.0" standalone="no"?>
<!DOCTYPE svg PUBLIC "-//W3C//DTD SVG 20010904//EN"
 "http://www.w3.org/TR/2001/REC-SVG-20010904/DTD/svg10.dtd">
<svg version="1.0" xmlns="http://www.w3.org/2000/svg"
 width="32.000000pt" height="32.000000pt" viewBox="0 0 32.000000 32.000000"
 preserveAspectRatio="xMidYMid meet">
<metadata>
Created by potrace 1.16, written by Peter Selinger 2001-2019
</metadata>
<g transform="translate(0.000000,32.000000) scale(0.100000,-0.100000)"
fill="#000000" stroke="none">
<path fill="#000000" stroke="none" d="M233 264 c-12 -23 -45 -66 -72 -95 -39
-41 -53 -51 -59 -40 -11 16 -27 -3 -16 -20 3 -6 -9 -26 -27 -45 -18 -18 -30
-37 -26 -40 3 -4 20 8 37 26 17 18 34 29 38 25 4 -4 -5 -17 -20 -29 -32 -25
-35 -36 -12 -36 8 0 13 4 10 9 -3 4 6 13 19 19 18 8 25 19 25 40 0 20 14 41
51 77 58 57 82 97 77 128 -3 19 -7 16 -25 -19z"/>
</g>
</svg>
