<?xml version="1.0" standalone="no"?>
<!DOCTYPE svg PUBLIC "-//W3C//DTD SVG 20010904//EN"
 "http://www.w3.org/TR/2001/REC-SVG-20010904/DTD/svg10.dtd">
<svg version="1.0" xmlns="http://www.w3.org/2000/svg"
 width="32.000000pt" height="32.000000pt" viewBox="0 0 32.000000 32.000000"
 preserveAspectRatio="xMidYMid meet">
<metadata>
Created by potrace 1.16, written by Peter Selinger 2001-2019
</metadata>
<g transform="translate(0.000000,32.000000) scale(0.100000,-0.100000)"
fill="#000000" stroke="none">
<path fill="#000000" stroke="none" d="M0 160 l0 -160 160 0 160 0 0 160 0
160 -160 0 -160 0 0 -160z"/>
<path fill="#ffffff" stroke="none" d="M192 178 c-49 -49 -85 -91 -80 -94 17
-10 -43 -64 -69 -62 -12 1 -23 6 -23 11 0 5 9 5 21 2 14 -5 28 0 45 16 22 20
25 47 3 34 -28 -18 1 18 78 97 48 49 92 97 98 106 8 16 10 15 13 -2 3 -14 -22
-45 -86 -108z"/>
</g>
</svg>
