<?xml version="1.0" standalone="no"?>
<!DOCTYPE svg PUBLIC "-//W3C//DTD SVG 20010904//EN"
 "http://www.w3.org/TR/2001/REC-SVG-20010904/DTD/svg10.dtd">
<svg version="1.0" xmlns="http://www.w3.org/2000/svg"
 width="32.000000pt" height="32.000000pt" viewBox="0 0 32.000000 32.000000"
 preserveAspectRatio="xMidYMid meet">
<metadata>
Created by potrace 1.16, written by Peter Selinger 2001-2019
</metadata>
<g transform="translate(0.000000,32.000000) scale(0.100000,-0.100000)"
fill="#000000" stroke="none">
<path fill="#000000" stroke="none" d="M0 160 l0 -160 160 0 160 0 0 160 0
160 -160 0 -160 0 0 -160z"/>
<path fill="#ffffff" stroke="none" d="M199 184 c-65 -66 -81 -86 -71 -96 18
-18 -43 -78 -80 -78 -36 0 -36 19 1 54 20 19 27 34 23 48 -4 17 -1 19 15 14
16 -5 38 12 104 81 50 53 85 82 87 74 2 -7 -33 -51 -79 -97z"/>
<path fill="#000000" stroke="none" d="M70 55 c-13 -14 -19 -25 -13 -25 12 0
48 38 41 45 -2 3 -15 -6 -28 -20z"/>
</g>
</svg>
