<?xml version="1.0" standalone="no"?>
<!DOCTYPE svg PUBLIC "-//W3C//DTD SVG 20010904//EN"
 "http://www.w3.org/TR/2001/REC-SVG-20010904/DTD/svg10.dtd">
<svg version="1.0" xmlns="http://www.w3.org/2000/svg"
 width="32.000000pt" height="32.000000pt" viewBox="0 0 32.000000 32.000000"
 preserveAspectRatio="xMidYMid meet">
<metadata>
Created by potrace 1.16, written by Peter Selinger 2001-2019
</metadata>
<g transform="translate(0.000000,32.000000) scale(0.100000,-0.100000)"
fill="#000000" stroke="none">
<path fill="#000000" stroke="none" d="M44 305 c-4 -8 -10 -12 -15 -9 -5 3 -9
-7 -9 -21 0 -27 50 -111 50 -85 1 8 2 38 3 67 1 28 -1 46 -5 40 -7 -11 -12 -2
-9 16 2 13 -9 7 -15 -8z"/>
<path fill="#ffffff" stroke="none" d="M62 251 c2 -22 0 -37 -4 -35 -5 3 -8
17 -9 32 0 24 -1 25 -9 7 -8 -19 -9 -19 -9 2 -1 12 5 24 12 26 6 3 13 6 13 6
1 1 4 -17 6 -38z"/>
<path fill="#000000" stroke="none" d="M96 308 c3 -5 10 -6 15 -3 13 9 11 12
-6 12 -8 0 -12 -4 -9 -9z"/>
<path fill="#000000" stroke="none" d="M138 302 c3 -10 1 -13 -6 -8 -7 4 -12
1 -12 -8 0 -25 27 -19 32 7 3 15 0 24 -8 24 -7 0 -10 -7 -6 -15z"/>
<path fill="#000000" stroke="none" d="M251 299 c13 -26 29 -33 29 -14 0 10
-5 13 -12 9 -7 -5 -9 -2 -6 8 4 8 0 15 -7 15 -10 0 -11 -5 -4 -18z"/>
<path fill="#000000" stroke="none" d="M286 308 c3 -5 10 -6 15 -3 13 9 11 12
-6 12 -8 0 -12 -4 -9 -9z"/>
<path fill="#000000" stroke="none" d="M200 279 c0 -5 5 -7 10 -4 6 3 10 8 10
11 0 2 -4 4 -10 4 -5 0 -10 -5 -10 -11z"/>
<path fill="#000000" stroke="none" d="M186 201 c-56 -56 -73 -68 -87 -61 -12
7 -19 5 -23 -6 -9 -23 -7 -31 4 -14 7 12 12 8 21 -17 6 -18 15 -30 20 -27 5 3
9 1 9 -5 0 -11 -39 -9 -58 3 -7 4 -12 3 -12 -2 0 -6 7 -13 16 -16 45 -17 84 7
65 42 -8 15 -7 23 3 31 7 6 17 7 21 3 5 -4 5 -2 2 4 -3 6 7 23 22 38 27 26 30
27 40 9 6 -10 11 -13 11 -6 0 6 -5 15 -11 18 -7 5 -3 15 11 30 12 13 21 28 19
34 -2 6 -35 -20 -73 -58z"/>
<path fill="#000000" stroke="none" d="M290 260 c0 -5 5 -10 10 -10 6 0 10 5
10 10 0 6 -4 10 -10 10 -5 0 -10 -4 -10 -10z"/>
<path fill="#000000" stroke="none" d="M105 225 c-14 -13 -25 -32 -25 -42 1
-11 6 -5 15 14 15 35 48 49 87 38 18 -5 20 -4 8 4 -25 18 -60 12 -85 -14z"/>
<path fill="#000000" stroke="none" d="M133 217 c-25 -11 -40 -44 -26 -58 5
-5 22 5 42 25 34 35 26 52 -16 33z"/>
<path fill="#000000" stroke="none" d="M190 159 c0 -5 5 -7 10 -4 6 3 10 8 10
11 0 2 -4 4 -10 4 -5 0 -10 -5 -10 -11z"/>
<path fill="#000000" stroke="none" d="M300 110 c0 -5 5 -10 11 -10 5 0 7 5 4
10 -3 6 -8 10 -11 10 -2 0 -4 -4 -4 -10z"/>
<path fill="#000000" stroke="none" d="M215 98 c-11 -6 -21 -11 -21 -12 -1 -1
-5 -11 -8 -23 -5 -15 -3 -23 4 -23 6 0 9 4 5 9 -3 6 3 15 14 20 10 6 21 17 25
26 6 18 7 18 -19 3z"/>
<path fill="#000000" stroke="none" d="M282 78 c-1 -23 -7 -38 -14 -38 -9 0
-8 -4 2 -10 10 -6 11 -10 3 -10 -7 0 -13 -4 -13 -10 0 -6 9 -6 24 0 13 5 26 7
28 4 3 -2 5 14 4 36 -1 51 -15 53 -18 3 -1 -35 -2 -34 -8 12 -6 46 -7 47 -8
13z"/>
<path fill="#000000" stroke="none" d="M215 50 c-29 -29 -43 -50 -34 -50 19 0
92 75 88 89 -3 7 -26 -11 -54 -39z"/>
<path fill="#000000" stroke="none" d="M2 23 c-1 -19 1 -24 7 -14 7 11 9 11
13 0 3 -8 8 -12 11 -9 3 3 -2 16 -11 28 l-18 23 -2 -28z"/>
<path fill="#000000" stroke="none" d="M108 23 c-4 -14 1 -18 25 -19 26 -1 27
0 11 9 -11 6 -22 14 -25 19 -3 6 -8 1 -11 -9z"/>
</g>
</svg>
