<?xml version="1.0" standalone="no"?>
<!DOCTYPE svg PUBLIC "-//W3C//DTD SVG 20010904//EN"
 "http://www.w3.org/TR/2001/REC-SVG-20010904/DTD/svg10.dtd">
<svg version="1.0" xmlns="http://www.w3.org/2000/svg"
 width="32.000000pt" height="32.000000pt" viewBox="0 0 32.000000 32.000000"
 preserveAspectRatio="xMidYMid meet">
<metadata>
Created by potrace 1.16, written by Peter Selinger 2001-2019
</metadata>
<g transform="translate(0.000000,32.000000) scale(0.100000,-0.100000)"
fill="#000000" stroke="none">
<path fill="#000000" stroke="none" d="M0 160 l0 -160 160 0 160 0 0 160 0
160 -160 0 -160 0 0 -160z"/>
<path fill="#ffffff" stroke="none" d="M255 253 c-3 -14 -34 -55 -68 -90 -47
-49 -61 -71 -59 -89 3 -17 -3 -27 -22 -35 -14 -7 -23 -16 -20 -20 3 -5 -2 -9
-10 -9 -23 0 -20 11 11 36 27 21 27 22 10 48 -10 15 -15 31 -11 37 4 8 9 7 16
-2 6 -11 20 -1 59 40 27 29 59 72 71 95 22 42 35 36 23 -11z"/>
<path fill="#ffffff" stroke="none" d="M46 23 c-10 -10 -19 5 -10 18 6 11 8
11 12 0 2 -7 1 -15 -2 -18z"/>
</g>
</svg>
