<?xml version="1.0" standalone="no"?>
<!DOCTYPE svg PUBLIC "-//W3C//DTD SVG 20010904//EN"
 "http://www.w3.org/TR/2001/REC-SVG-20010904/DTD/svg10.dtd">
<svg version="1.0" xmlns="http://www.w3.org/2000/svg"
 width="32.000000pt" height="32.000000pt" viewBox="0 0 32.000000 32.000000"
 preserveAspectRatio="xMidYMid meet">
<metadata>
Created by potrace 1.16, written by Peter Selinger 2001-2019
</metadata>
<g transform="translate(0.000000,32.000000) scale(0.100000,-0.100000)"
fill="#000000" stroke="none">
<path fill="#000000" stroke="none" d="M165 310 c-3 -5 -4 -10 0 -10 3 0 1 -8
-4 -18 -6 -12 -6 -23 0 -33 9 -12 10 -12 6 1 -2 8 5 22 16 30 17 14 17 17 4
28 -10 9 -17 10 -22 2z"/>
<path fill="#000000" stroke="none" d="M55 290 c3 -5 11 -10 16 -10 6 0 7 5 4
10 -3 6 -11 10 -16 10 -6 0 -7 -4 -4 -10z"/>
<path fill="#000000" stroke="none" d="M189 263 c-13 -16 -12 -17 4 -4 16 13
21 21 13 21 -2 0 -10 -8 -17 -17z"/>
<path fill="#000000" stroke="none" d="M185 178 l-60 -63 63 60 c58 55 67 65
59 65 -1 0 -29 -28 -62 -62z"/>
<path fill="#000000" stroke="none" d="M281 196 c-10 -12 -9 -14 5 -12 10 2
20 8 22 14 5 17 -13 15 -27 -2z"/>
<path fill="#000000" stroke="none" d="M145 10 c3 -5 26 -10 51 -10 28 0 43 4
39 10 -3 5 -26 10 -51 10 -28 0 -43 -4 -39 -10z"/>
</g>
</svg>
