<?xml version="1.0" standalone="no"?>
<!DOCTYPE svg PUBLIC "-//W3C//DTD SVG 20010904//EN"
 "http://www.w3.org/TR/2001/REC-SVG-20010904/DTD/svg10.dtd">
<svg version="1.0" xmlns="http://www.w3.org/2000/svg"
 width="32.000000pt" height="32.000000pt" viewBox="0 0 32.000000 32.000000"
 preserveAspectRatio="xMidYMid meet">
<metadata>
Created by potrace 1.16, written by Peter Selinger 2001-2019
</metadata>
<g transform="translate(0.000000,32.000000) scale(0.100000,-0.100000)"
fill="#000000" stroke="none">
<path fill="#000000" stroke="none" d="M147 164 c-70 -72 -127 -133 -127 -137
0 -4 13 -7 28 -7 33 0 91 53 72 65 -8 5 18 37 75 95 48 48 85 94 83 101 -2 8
-56 -40 -131 -117z"/>
<path fill="#ffffff" stroke="none" d="M100 73 c0 -12 -33 -43 -47 -43 -17 0
-17 10 4 32 16 18 43 25 43 11z"/>
</g>
</svg>
