<?xml version="1.0" standalone="no"?>
<!DOCTYPE svg PUBLIC "-//W3C//DTD SVG 20010904//EN"
 "http://www.w3.org/TR/2001/REC-SVG-20010904/DTD/svg10.dtd">
<svg version="1.0" xmlns="http://www.w3.org/2000/svg"
 width="32.000000pt" height="32.000000pt" viewBox="0 0 32.000000 32.000000"
 preserveAspectRatio="xMidYMid meet">
<metadata>
Created by potrace 1.16, written by Peter Selinger 2001-2019
</metadata>
<g transform="translate(0.000000,32.000000) scale(0.100000,-0.100000)"
fill="#000000" stroke="none">
<path fill="#000000" stroke="none" d="M60 305 c0 -26 46 -41 83 -27 28 10 30
10 14 -2 -16 -12 -16 -15 -2 -29 9 -10 11 -18 5 -22 -6 -4 -8 -11 -4 -16 10
-16 36 12 28 30 -6 15 -11 41 -13 69 -1 19 -111 17 -111 -3z"/>
<path fill="#000000" stroke="none" d="M186 312 c-3 -5 0 -9 7 -10 7 -1 26 -4
42 -7 19 -4 37 -1 50 9 19 14 16 15 -37 16 -31 0 -59 -4 -62 -8z"/>
<path fill="#000000" stroke="none" d="M285 291 c-3 -6 4 -15 15 -21 17 -9 20
-8 20 10 0 20 -24 28 -35 11z"/>
<path fill="#000000" stroke="none" d="M198 266 c-3 -16 -1 -23 8 -19 6 2 11
11 10 18 -4 26 -13 26 -18 1z"/>
<path fill="#000000" stroke="none" d="M233 257 c4 -10 3 -16 -2 -13 -4 3 -20
-7 -35 -23 -19 -20 -34 -27 -50 -24 -38 8 -66 -13 -66 -48 0 -17 4 -28 9 -24
5 3 12 -3 14 -12 2 -10 3 -9 2 4 -1 14 10 33 28 50 17 15 27 22 23 15 -5 -8
-1 -21 9 -32 16 -17 15 -20 -14 -41 -42 -31 -39 -43 4 -22 27 13 35 23 33 39
-2 12 10 36 30 58 27 31 32 34 32 16 0 -12 -4 -18 -10 -15 -14 9 -12 -6 6 -35
14 -24 15 -22 10 39 -2 35 -10 68 -17 75 -9 8 -10 7 -6 -7z"/>
<path fill="#ffffff" stroke="none" d="M190 170 c0 -5 -2 -10 -4 -10 -3 0 -8
5 -11 10 -3 6 -1 10 4 10 6 0 11 -4 11 -10z"/>
<path fill="#000000" stroke="none" d="M124 145 c-3 -8 -4 -20 -1 -27 3 -7 6
-3 6 10 1 15 5 21 13 16 7 -4 8 -3 4 4 -10 16 -15 15 -22 -3z"/>
<path fill="#000000" stroke="none" d="M29 83 l-34 -38 38 34 c34 33 42 41 34
41 -2 0 -19 -17 -38 -37z"/>
<path fill="#000000" stroke="none" d="M81 91 c-1 -16 -5 -21 -16 -17 -8 3
-14 2 -14 -2 4 -24 -3 -34 -18 -27 -14 5 -15 4 -6 -6 17 -17 67 32 60 58 -4
14 -5 12 -6 -6z"/>
</g>
</svg>
