<?xml version="1.0" standalone="no"?>
<!DOCTYPE svg PUBLIC "-//W3C//DTD SVG 20010904//EN"
 "http://www.w3.org/TR/2001/REC-SVG-20010904/DTD/svg10.dtd">
<svg version="1.0" xmlns="http://www.w3.org/2000/svg"
 width="32.000000pt" height="32.000000pt" viewBox="0 0 32.000000 32.000000"
 preserveAspectRatio="xMidYMid meet">
<metadata>
Created by potrace 1.16, written by Peter Selinger 2001-2019
</metadata>
<g transform="translate(0.000000,32.000000) scale(0.100000,-0.100000)"
fill="#000000" stroke="none">
<path fill="#000000" stroke="none" d="M0 160 l0 -160 160 0 160 0 0 89 c0 83
-2 91 -25 109 -13 11 -22 22 -18 25 3 3 14 -4 24 -16 18 -22 18 -21 19 46 l0
67 -160 0 -160 0 0 -160z"/>
<path fill="#ffffff" stroke="none" d="M215 290 c10 -11 13 -20 7 -20 -6 0
-16 9 -22 20 -6 11 -9 20 -7 20 2 0 12 -9 22 -20z"/>
<path fill="#ffffff" stroke="none" d="M301 293 c13 -16 12 -17 -3 -4 -10 7
-18 15 -18 17 0 8 8 3 21 -13z"/>
<path fill="#ffffff" stroke="none" d="M185 260 c10 -11 13 -20 7 -20 -6 0
-16 9 -22 20 -6 11 -9 20 -7 20 2 0 12 -9 22 -20z"/>
<path fill="#ffffff" stroke="none" d="M260 250 c0 -5 -7 -10 -15 -10 -8 0
-15 5 -15 10 0 6 7 10 15 10 8 0 15 -4 15 -10z"/>
<path fill="#ffffff" stroke="none" d="M155 230 c10 -11 13 -20 7 -20 -6 0
-16 9 -22 20 -6 11 -9 20 -7 20 2 0 12 -9 22 -20z"/>
<path fill="#ffffff" stroke="none" d="M230 220 c0 -5 -7 -10 -16 -10 -8 0
-12 5 -9 10 3 6 10 10 16 10 5 0 9 -4 9 -10z"/>
<path fill="#ffffff" stroke="none" d="M200 192 c0 -13 -12 -22 -22 -16 -10 6
-1 24 13 24 5 0 9 -4 9 -8z"/>
<path fill="#ffffff" stroke="none" d="M270 176 c14 -18 14 -18 -7 -6 -12 8
-19 18 -16 23 3 4 6 7 7 5 1 -2 8 -12 16 -22z"/>
<path fill="#ffffff" stroke="none" d="M240 146 c14 -18 14 -18 -7 -6 -12 8
-19 18 -16 23 3 4 6 7 7 5 1 -2 8 -12 16 -22z"/>
<path fill="#ffffff" stroke="none" d="M105 79 c-6 -9 -35 -1 -35 10 0 4 3 11
7 14 8 9 34 -13 28 -24z"/>
<path fill="#ffffff" stroke="none" d="M42 53 c-6 -3 -10 -9 -6 -14 3 -5 -3
-9 -12 -9 -16 0 -16 2 1 20 10 11 21 17 24 14 3 -4 0 -9 -7 -11z"/>
</g>
</svg>
