<?xml version="1.0" standalone="no"?>
<!DOCTYPE svg PUBLIC "-//W3C//DTD SVG 20010904//EN"
 "http://www.w3.org/TR/2001/REC-SVG-20010904/DTD/svg10.dtd">
<svg version="1.0" xmlns="http://www.w3.org/2000/svg"
 width="32.000000pt" height="32.000000pt" viewBox="0 0 32.000000 32.000000"
 preserveAspectRatio="xMidYMid meet">
<metadata>
Created by potrace 1.16, written by Peter Selinger 2001-2019
</metadata>
<g transform="translate(0.000000,32.000000) scale(0.100000,-0.100000)"
fill="#000000" stroke="none">
<path fill="#000000" stroke="none" d="M0 160 l0 -160 160 0 160 0 0 160 0
160 -160 0 -160 0 0 -160z"/>
<path fill="#ffffff" stroke="none" d="M212 266 c-3 -5 -9 -1 -13 10 -12 31
-10 39 5 19 8 -11 12 -24 8 -29z"/>
<path fill="#ffffff" stroke="none" d="M290 285 c-7 -8 -17 -15 -23 -15 -6 0
-2 7 9 15 25 19 30 19 14 0z"/>
<path fill="#ffffff" stroke="none" d="M177 263 c0 -7 -4 -13 -7 -13 -4 0 -12
6 -18 13 -8 10 -6 13 7 13 10 0 18 -6 18 -13z"/>
<path fill="#ffffff" stroke="none" d="M250 240 c0 -5 -4 -10 -10 -10 -5 0
-10 5 -10 10 0 6 5 10 10 10 6 0 10 -4 10 -10z"/>
<path fill="#ffffff" stroke="none" d="M144 221 c11 -4 15 -10 10 -13 -5 -4
-18 0 -29 8 -20 15 -12 17 19 5z"/>
<path fill="#ffffff" stroke="none" d="M215 210 c3 -5 1 -10 -4 -10 -6 0 -11
5 -11 10 0 6 2 10 4 10 3 0 8 -4 11 -10z"/>
<path fill="#ffffff" stroke="none" d="M307 193 c-7 -6 -46 10 -41 18 3 5 14
3 24 -3 11 -7 18 -13 17 -15z"/>
<path fill="#ffffff" stroke="none" d="M190 181 c0 -12 -20 -25 -27 -18 -7 7
6 27 18 27 5 0 9 -4 9 -9z"/>
<path fill="#ffffff" stroke="none" d="M276 159 c0 -13 -3 -15 -13 -7 -7 6
-13 14 -13 18 0 3 6 7 13 7 7 0 13 -8 13 -18z"/>
<path fill="#ffffff" stroke="none" d="M229 116 c1 -6 -5 -1 -13 9 -8 11 -12
24 -8 29 5 9 20 -17 21 -38z"/>
<path fill="#ffffff" stroke="none" d="M109 118 c10 3 12 0 8 -11 -3 -9 1 -18
10 -21 9 -4 13 -9 9 -13 -8 -8 -66 46 -66 61 0 6 6 4 13 -5 7 -9 18 -14 26
-11z"/>
<path fill="#ffffff" stroke="none" d="M33 36 c4 -10 1 -13 -8 -9 -8 3 -12 9
-9 14 7 12 11 11 17 -5z"/>
</g>
</svg>
