<?xml version="1.0" standalone="no"?>
<!DOCTYPE svg PUBLIC "-//W3C//DTD SVG 20010904//EN"
 "http://www.w3.org/TR/2001/REC-SVG-20010904/DTD/svg10.dtd">
<svg version="1.0" xmlns="http://www.w3.org/2000/svg"
 width="32.000000pt" height="32.000000pt" viewBox="0 0 32.000000 32.000000"
 preserveAspectRatio="xMidYMid meet">
<metadata>
Created by potrace 1.16, written by Peter Selinger 2001-2019
</metadata>
<g transform="translate(0.000000,32.000000) scale(0.100000,-0.100000)"
fill="#000000" stroke="none">
<path fill="#000000" stroke="none" d="M0 160 l0 -160 160 0 160 0 0 89 c0 83
-2 91 -25 109 -13 11 -22 22 -18 25 3 3 14 -4 24 -16 18 -22 18 -21 19 46 l0
67 -160 0 -160 0 0 -160z"/>
<path fill="#ffffff" stroke="none" d="M218 274 c-4 -3 -12 5 -18 18 -12 22
-12 22 6 6 10 -10 15 -20 12 -24z"/>
<path fill="#ffffff" stroke="none" d="M301 293 c13 -16 12 -17 -3 -4 -10 7
-18 15 -18 17 0 8 8 3 21 -13z"/>
<path fill="#ffffff" stroke="none" d="M188 244 c-4 -3 -12 5 -18 18 -12 22
-12 22 6 6 10 -10 15 -20 12 -24z"/>
<path fill="#ffffff" stroke="none" d="M260 250 c0 -5 -7 -10 -16 -10 -8 0
-12 5 -9 10 3 6 10 10 16 10 5 0 9 -4 9 -10z"/>
<path fill="#ffffff" stroke="none" d="M158 214 c-4 -3 -12 5 -18 18 -12 22
-12 22 6 6 10 -10 15 -20 12 -24z"/>
<path fill="#ffffff" stroke="none" d="M230 220 c0 -5 -7 -10 -16 -10 -8 0
-12 5 -9 10 3 6 10 10 16 10 5 0 9 -4 9 -10z"/>
<path fill="#ffffff" stroke="none" d="M200 190 c0 -5 -7 -10 -16 -10 -8 0
-12 5 -9 10 3 6 10 10 16 10 5 0 9 -4 9 -10z"/>
<path fill="#ffffff" stroke="none" d="M270 176 c14 -18 14 -18 -7 -6 -12 8
-19 18 -16 23 3 4 6 7 7 5 1 -2 8 -12 16 -22z"/>
<path fill="#ffffff" stroke="none" d="M240 146 c14 -18 14 -18 -7 -6 -12 8
-19 18 -16 23 3 4 6 7 7 5 1 -2 8 -12 16 -22z"/>
<path fill="#ffffff" stroke="none" d="M87 95 c0 -8 -4 -15 -9 -15 -10 0 -11
14 -1 23 9 10 10 9 10 -8z"/>
<path fill="#ffffff" stroke="none" d="M42 53 c-6 -3 -10 -9 -6 -14 3 -5 -3
-9 -12 -9 -16 0 -16 2 1 20 10 11 21 17 24 14 3 -4 0 -9 -7 -11z"/>
</g>
</svg>
