<?xml version="1.0" standalone="no"?>
<!DOCTYPE svg PUBLIC "-//W3C//DTD SVG 20010904//EN"
 "http://www.w3.org/TR/2001/REC-SVG-20010904/DTD/svg10.dtd">
<svg version="1.0" xmlns="http://www.w3.org/2000/svg"
 width="32.000000pt" height="32.000000pt" viewBox="0 0 32.000000 32.000000"
 preserveAspectRatio="xMidYMid meet">
<metadata>
Created by potrace 1.16, written by Peter Selinger 2001-2019
</metadata>
<g transform="translate(0.000000,32.000000) scale(0.100000,-0.100000)"
fill="#000000" stroke="none">
<path fill="#000000" stroke="none" d="M0 160 l0 -160 160 0 160 0 0 160 0
160 -160 0 -160 0 0 -160z"/>
<path fill="#ffffff" stroke="none" d="M220 291 c0 -10 -7 -21 -15 -25 -8 -3
-15 -11 -15 -17 0 -8 6 -7 18 2 15 13 16 12 3 -4 -10 -13 -17 -15 -27 -6 -11
9 -14 9 -14 0 0 -6 7 -14 15 -18 19 -7 58 26 51 44 -8 19 -3 16 25 -13 14 -14
17 -23 8 -19 -20 7 -53 -29 -46 -50 4 -8 12 -15 18 -15 9 0 9 3 0 14 -9 10 -7
17 6 27 16 13 17 12 4 -3 -9 -12 -10 -18 -2 -18 6 0 14 7 17 15 8 20 44 19 44
-1 0 -44 -80 -124 -124 -124 -25 0 -19 35 9 50 29 15 32 28 9 37 -18 7 -66
-35 -57 -50 3 -6 1 -7 -4 -4 -6 4 -33 -17 -61 -47 -30 -32 -54 -50 -60 -44 -5
5 23 39 70 85 76 74 90 101 58 111 -12 4 -13 3 -2 -10 10 -13 9 -18 -5 -29
-16 -13 -17 -12 -4 4 9 11 10 17 2 17 -6 0 -14 -7 -17 -15 -8 -20 -44 -19 -44
1 0 27 38 81 73 103 41 26 67 27 67 2z"/>
</g>
</svg>
