<?xml version="1.0" standalone="no"?>
<!DOCTYPE svg PUBLIC "-//W3C//DTD SVG 20010904//EN"
 "http://www.w3.org/TR/2001/REC-SVG-20010904/DTD/svg10.dtd">
<svg version="1.0" xmlns="http://www.w3.org/2000/svg"
 width="32.000000pt" height="32.000000pt" viewBox="0 0 32.000000 32.000000"
 preserveAspectRatio="xMidYMid meet">
<metadata>
Created by potrace 1.16, written by Peter Selinger 2001-2019
</metadata>
<g transform="translate(0.000000,32.000000) scale(0.100000,-0.100000)"
fill="#000000" stroke="none">
<path fill="#000000" stroke="none" d="M0 160 l0 -160 160 0 160 0 0 160 0
160 -160 0 -160 0 0 -160z"/>
<path fill="#ffffff" stroke="none" d="M207 303 c-9 -2 -15 -9 -12 -14 3 -5
-1 -6 -9 -3 -20 8 -90 -62 -82 -82 3 -8 2 -12 -3 -9 -5 3 -12 -3 -14 -12 -4
-15 -5 -15 -6 -2 -3 39 89 131 128 128 13 -1 13 -2 -2 -6z"/>
<path fill="#ffffff" stroke="none" d="M170 245 c0 -2 -6 -8 -13 -14 -10 -8
-14 -7 -14 2 0 8 6 14 14 14 7 0 13 -1 13 -2z"/>
<path fill="#ffffff" stroke="none" d="M216 213 c-4 -5 -13 -8 -19 -8 -7 0
-12 -5 -12 -12 0 -6 -3 -15 -7 -19 -5 -4 -8 -1 -8 7 0 8 5 20 12 27 7 7 19 12
27 12 8 0 11 -3 7 -7z"/>
<path fill="#ffffff" stroke="none" d="M296 172 c-25 -49 -105 -106 -123 -88
-4 3 1 6 11 6 9 0 14 4 11 10 -3 5 0 7 9 4 20 -8 90 62 82 82 -3 8 -2 12 4 9
6 -3 10 2 11 12 0 10 3 13 5 6 3 -6 -2 -25 -10 -41z"/>
<path fill="#ffffff" stroke="none" d="M247 157 c0 -8 -6 -14 -14 -14 -9 0
-10 4 -2 14 6 7 12 13 14 13 1 0 2 -6 2 -13z"/>
</g>
</svg>
