<?xml version="1.0" standalone="no"?>
<!DOCTYPE svg PUBLIC "-//W3C//DTD SVG 20010904//EN"
 "http://www.w3.org/TR/2001/REC-SVG-20010904/DTD/svg10.dtd">
<svg version="1.0" xmlns="http://www.w3.org/2000/svg"
 width="32.000000pt" height="32.000000pt" viewBox="0 0 32.000000 32.000000"
 preserveAspectRatio="xMidYMid meet">
<metadata>
Created by potrace 1.16, written by Peter Selinger 2001-2019
</metadata>
<g transform="translate(0.000000,32.000000) scale(0.100000,-0.100000)"
fill="#000000" stroke="none">
<path fill="#000000" stroke="none" d="M112 237 c-46 -47 -52 -57 -51 -92 l1
-40 8 38 c5 27 22 54 55 87 27 27 47 52 44 55 -3 2 -29 -19 -57 -48z"/>
<path fill="#000000" stroke="none" d="M302 232 c-2 -25 -15 -47 -54 -88 -67
-71 -58 -80 11 -10 48 49 52 56 48 92 -3 37 -4 37 -5 6z"/>
</g>
</svg>
