<?xml version="1.0" standalone="no"?>
<!DOCTYPE svg PUBLIC "-//W3C//DTD SVG 20010904//EN"
 "http://www.w3.org/TR/2001/REC-SVG-20010904/DTD/svg10.dtd">
<svg version="1.0" xmlns="http://www.w3.org/2000/svg"
 width="32.000000pt" height="32.000000pt" viewBox="0 0 32.000000 32.000000"
 preserveAspectRatio="xMidYMid meet">
<metadata>
Created by potrace 1.16, written by Peter Selinger 2001-2019
</metadata>
<g transform="translate(0.000000,32.000000) scale(0.100000,-0.100000)"
fill="#000000" stroke="none">
<path fill="#000000" stroke="none" d="M183 309 c-12 -12 -114 -16 -132 -5
-13 9 -45 -20 -36 -33 3 -5 1 -13 -5 -16 -8 -5 -7 -11 1 -21 6 -8 8 -14 4 -14
-5 0 0 -9 9 -19 10 -11 24 -17 32 -14 18 7 18 -29 0 -82 -10 -27 -21 -41 -35
-43 -16 -3 -21 -11 -21 -33 l0 -29 160 0 160 0 0 160 0 160 -34 0 c-28 0 -35
-5 -40 -24 -4 -16 -13 -24 -25 -23 -11 0 -19 6 -18 12 1 5 -4 9 -11 7 -8 -1
-11 2 -7 8 3 6 11 8 16 5 5 -4 9 -1 9 4 0 14 -13 14 -27 0z"/>
<path fill="#ffffff" stroke="none" d="M256 244 c-9 -26 -13 -51 -9 -57 3 -5
1 -7 -5 -3 -6 3 -13 -2 -16 -12 -3 -9 -34 -44 -68 -77 -69 -67 -61 -50 19 38
39 43 58 74 71 118 9 32 19 54 20 49 2 -6 -3 -31 -12 -56z"/>
<path fill="#ffffff" stroke="none" d="M63 269 c-6 -22 10 -30 63 -32 44 -2
54 -19 22 -35 -18 -8 -19 -11 -5 -11 19 -1 20 -3 11 -25 -3 -9 -12 -16 -19
-16 -6 0 -20 -9 -30 -20 -20 -22 -35 -26 -35 -10 0 6 7 10 15 10 8 0 15 5 15
10 0 6 -4 10 -8 10 -4 0 -9 10 -9 22 -1 13 -7 24 -13 26 -5 2 -10 13 -10 23 0
11 -4 17 -10 14 -5 -3 -18 -1 -27 4 -12 7 -13 10 -4 11 7 0 11 6 8 14 -3 7 -1
18 5 24 16 16 36 3 31 -19z"/>
<path fill="#ffffff" stroke="none" d="M189 277 c6 -8 8 -17 4 -21 -4 -4 0 -4
10 0 13 5 16 2 11 -10 -11 -28 -48 -16 -52 17 -4 29 9 35 27 14z"/>
<path fill="#ffffff" stroke="none" d="M248 109 c-2 -12 -13 -25 -25 -30 -21
-8 -21 -7 -5 22 20 34 35 38 30 8z"/>
<path fill="#ffffff" stroke="none" d="M100 96 c0 -3 -4 -8 -10 -11 -5 -3 -10
-1 -10 4 0 6 5 11 10 11 6 0 10 -2 10 -4z"/>
<path fill="#000000" stroke="none" d="M90 200 c0 -5 7 -10 16 -10 8 0 12 5 9
10 -3 6 -10 10 -16 10 -5 0 -9 -4 -9 -10z"/>
<path fill="#000000" stroke="none" d="M215 290 c3 -5 8 -10 11 -10 2 0 4 5 4
10 0 6 -5 10 -11 10 -5 0 -7 -4 -4 -10z"/>
</g>
</svg>
