<?xml version="1.0" standalone="no"?>
<!DOCTYPE svg PUBLIC "-//W3C//DTD SVG 20010904//EN"
 "http://www.w3.org/TR/2001/REC-SVG-20010904/DTD/svg10.dtd">
<svg version="1.0" xmlns="http://www.w3.org/2000/svg"
 width="32.000000pt" height="32.000000pt" viewBox="0 0 32.000000 32.000000"
 preserveAspectRatio="xMidYMid meet">
<metadata>
Created by potrace 1.16, written by Peter Selinger 2001-2019
</metadata>
<g transform="translate(0.000000,32.000000) scale(0.100000,-0.100000)"
fill="#000000" stroke="none">
<path fill="#000000" stroke="none" d="M1 189 c-1 -127 -1 -130 20 -127 14 2
25 16 35 43 18 53 18 89 0 82 -15 -6 -39 16 -42 38 -1 8 8 12 22 11 15 0 24
-7 24 -18 0 -9 5 -18 10 -20 6 -2 12 -13 13 -26 0 -12 5 -22 9 -22 4 0 8 -4 8
-10 0 -5 -7 -10 -15 -10 -8 0 -15 -4 -15 -10 0 -16 15 -12 35 10 10 11 24 20
30 20 7 0 16 7 19 16 9 22 8 24 -11 25 -14 0 -13 3 5 11 32 16 22 33 -22 35
-53 2 -69 10 -63 33 7 26 -9 26 -25 0 -16 -25 -25 -26 -25 -3 0 23 24 46 38
37 15 -9 114 -8 129 1 9 5 11 4 6 -4 -5 -7 -2 -10 6 -9 7 2 12 -2 11 -8 -2
-14 30 -14 39 0 14 20 8 36 -12 36 -11 0 -20 -5 -20 -12 0 -9 -3 -9 -12 0 -8
8 -46 12 -104 12 l-93 0 0 -131z"/>
<path fill="#ffffff" stroke="none" d="M230 290 c0 -5 -2 -10 -4 -10 -3 0 -8
5 -11 10 -3 6 -1 10 4 10 6 0 11 -4 11 -10z"/>
<path fill="#ffffff" stroke="none" d="M115 200 c3 -5 -1 -10 -9 -10 -9 0 -16
5 -16 10 0 6 4 10 9 10 6 0 13 -4 16 -10z"/>
<path fill="#000000" stroke="none" d="M248 251 c-13 -44 -32 -75 -71 -118
-80 -88 -88 -105 -19 -38 34 33 65 68 68 77 3 10 10 15 16 12 6 -4 8 -2 5 3
-4 6 0 31 9 57 9 25 14 50 12 56 -1 5 -11 -17 -20 -49z"/>
<path fill="#000000" stroke="none" d="M29 283 c-13 -16 -12 -17 4 -4 16 13
21 21 13 21 -2 0 -10 -8 -17 -17z"/>
<path fill="#000000" stroke="none" d="M162 263 c4 -33 41 -45 52 -17 5 12 2
15 -11 10 -10 -4 -14 -4 -10 0 8 8 -11 34 -25 34 -5 0 -8 -12 -6 -27z"/>
<path fill="#000000" stroke="none" d="M218 101 c-16 -29 -16 -30 5 -22 12 5
23 18 25 30 5 30 -10 26 -30 -8z"/>
<path fill="#000000" stroke="none" d="M80 89 c0 -5 5 -7 10 -4 6 3 10 8 10
11 0 2 -4 4 -10 4 -5 0 -10 -5 -10 -11z"/>
</g>
</svg>
