<?xml version="1.0" standalone="no"?>
<!DOCTYPE svg PUBLIC "-//W3C//DTD SVG 20010904//EN"
 "http://www.w3.org/TR/2001/REC-SVG-20010904/DTD/svg10.dtd">
<svg version="1.0" xmlns="http://www.w3.org/2000/svg"
 width="32.000000pt" height="32.000000pt" viewBox="0 0 32.000000 32.000000"
 preserveAspectRatio="xMidYMid meet">
<metadata>
Created by potrace 1.16, written by Peter Selinger 2001-2019
</metadata>
<g transform="translate(0.000000,32.000000) scale(0.100000,-0.100000)"
fill="#000000" stroke="none">
<path fill="#000000" stroke="none" d="M1 189 c-1 -127 -1 -130 20 -127 14 2
25 16 35 43 18 53 18 89 0 82 -16 -6 -39 16 -43 42 -1 12 2 11 15 -5 9 -12 25
-24 36 -28 14 -5 17 -14 14 -39 -3 -17 -9 -41 -13 -52 -6 -15 2 -11 27 13 19
18 37 30 40 26 6 -6 88 92 88 105 0 17 -32 51 -43 44 -6 -3 -31 -6 -56 -6 -34
0 -37 -1 -13 -4 28 -4 31 -7 21 -19 -17 -20 -34 -17 -53 9 l-15 22 -20 -22
c-23 -28 -28 -28 -28 -6 0 23 24 46 38 37 6 -3 35 -6 65 -5 76 2 84 3 78 13
-3 4 -47 8 -99 8 l-94 0 0 -131z"/>
<path fill="#000000" stroke="none" d="M207 306 c-3 -8 1 -20 9 -27 13 -10 17
-10 25 2 5 8 9 20 9 27 0 17 -37 15 -43 -2z"/>
<path fill="#ffffff" stroke="none" d="M230 290 c0 -5 -2 -10 -4 -10 -3 0 -8
5 -11 10 -3 6 -1 10 4 10 6 0 11 -4 11 -10z"/>
<path fill="#000000" stroke="none" d="M236 258 c-33 -58 -94 -130 -106 -123
-12 7 -53 -42 -45 -55 5 -8 11 -8 21 1 11 9 14 8 14 -5 0 -10 -4 -15 -9 -12
-4 3 -16 -3 -26 -14 -12 -13 -14 -20 -6 -20 17 0 139 118 146 141 4 11 11 16
17 13 6 -4 8 -2 5 3 -4 6 0 31 9 57 23 67 13 74 -20 14z"/>
<path fill="#000000" stroke="none" d="M29 283 c-13 -16 -12 -17 4 -4 16 13
21 21 13 21 -2 0 -10 -8 -17 -17z"/>
<path fill="#000000" stroke="none" d="M282 243 l2 -58 5 55 5 55 6 -70 6 -70
4 73 c4 64 3 72 -12 72 -15 0 -18 -9 -16 -57z"/>
<path fill="#000000" stroke="none" d="M261 224 c0 -11 3 -14 6 -6 3 7 2 16
-1 19 -3 4 -6 -2 -5 -13z"/>
<path fill="#000000" stroke="none" d="M218 101 c-16 -29 -16 -30 5 -22 12 5
23 18 25 30 5 30 -10 26 -30 -8z"/>
<path fill="#000000" stroke="none" d="M165 90 c-3 -5 -1 -10 4 -10 6 0 11 5
11 10 0 6 -2 10 -4 10 -3 0 -8 -4 -11 -10z"/>
<path fill="#000000" stroke="none" d="M16 32 c-3 -6 -1 -14 5 -17 15 -10 25
3 12 16 -7 7 -13 7 -17 1z"/>
<path fill="#000000" stroke="none" d="M280 9 c0 -5 5 -7 10 -4 6 3 10 8 10
11 0 2 -4 4 -10 4 -5 0 -10 -5 -10 -11z"/>
</g>
</svg>
