<?xml version="1.0" standalone="no"?>
<!DOCTYPE svg PUBLIC "-//W3C//DTD SVG 20010904//EN"
 "http://www.w3.org/TR/2001/REC-SVG-20010904/DTD/svg10.dtd">
<svg version="1.0" xmlns="http://www.w3.org/2000/svg"
 width="32.000000pt" height="32.000000pt" viewBox="0 0 32.000000 32.000000"
 preserveAspectRatio="xMidYMid meet">
<metadata>
Created by potrace 1.16, written by Peter Selinger 2001-2019
</metadata>
<g transform="translate(0.000000,32.000000) scale(0.100000,-0.100000)"
fill="#000000" stroke="none">
<path fill="#000000" stroke="none" d="M6 311 c-4 -6 -6 -65 -5 -131 l1 -122
25 24 c17 16 23 31 21 50 -3 15 -1 25 4 22 18 -11 6 -52 -22 -79 -16 -16 -30
-39 -30 -52 l0 -23 160 0 160 0 0 159 0 159 -154 1 c-93 1 -157 -2 -160 -8z"/>
<path fill="#ffffff" stroke="none" d="M256 244 c-9 -26 -13 -51 -9 -57 3 -6
1 -7 -5 -3 -7 4 -12 2 -12 -4 0 -14 -101 -122 -108 -115 -3 2 21 32 52 65 43
47 60 75 74 121 9 32 19 54 20 49 2 -6 -3 -31 -12 -56z"/>
<path fill="#ffffff" stroke="none" d="M267 198 c-3 -8 -6 -5 -6 6 -1 11 2 17
5 13 3 -3 4 -12 1 -19z"/>
</g>
</svg>
