<?xml version="1.0" standalone="no"?>
<!DOCTYPE svg PUBLIC "-//W3C//DTD SVG 20010904//EN"
 "http://www.w3.org/TR/2001/REC-SVG-20010904/DTD/svg10.dtd">
<svg version="1.0" xmlns="http://www.w3.org/2000/svg"
 width="32.000000pt" height="32.000000pt" viewBox="0 0 32.000000 32.000000"
 preserveAspectRatio="xMidYMid meet">
<metadata>
Created by potrace 1.16, written by Peter Selinger 2001-2019
</metadata>
<g transform="translate(0.000000,32.000000) scale(0.100000,-0.100000)"
fill="#000000" stroke="none">
<path fill="#000000" stroke="none" d="M0 299 c0 -11 4 -18 9 -14 5 3 12 1 16
-5 11 -18 23 -10 21 15 -1 33 -46 37 -46 4z"/>
<path fill="#000000" stroke="none" d="M60 310 c-11 -7 -12 -12 -3 -21 9 -9
22 -9 57 1 25 7 43 16 40 21 -7 12 -75 11 -94 -1z"/>
<path fill="#000000" stroke="none" d="M281 289 c-6 -18 -11 -33 -11 -34 0 -1
7 -2 15 -2 8 0 12 4 10 8 -3 3 2 12 10 19 19 16 19 40 1 40 -8 0 -19 -14 -25
-31z"/>
<path fill="#000000" stroke="none" d="M176 295 c4 -8 1 -15 -5 -15 -6 0 -3
-9 6 -20 21 -24 39 -26 47 -4 9 22 9 22 -24 39 -26 13 -29 14 -24 0z"/>
<path fill="#000000" stroke="none" d="M237 261 c-15 -27 -57 -76 -94 -109
-41 -37 -63 -64 -59 -71 6 -9 11 -9 22 0 11 9 14 8 14 -7 1 -37 104 85 129
150 29 78 23 99 -12 37z"/>
<path fill="#000000" stroke="none" d="M255 211 c-3 -5 -1 -12 5 -16 5 -3 10
1 10 9 0 18 -6 21 -15 7z"/>
<path fill="#000000" stroke="none" d="M145 178 c-29 -15 -65 -50 -77 -72 -6
-11 15 3 46 29 65 57 72 66 31 43z"/>
<path fill="#000000" stroke="none" d="M22 129 c-24 -30 -28 -80 -9 -106 13
-18 27 -16 27 2 0 8 9 20 20 27 23 15 25 24 6 31 -8 3 -13 -1 -12 -10 0 -8 -9
-22 -21 -30 -19 -13 -21 -13 -19 1 1 9 12 26 24 39 21 23 29 62 15 70 -5 2
-18 -9 -31 -24z"/>
<path fill="#000000" stroke="none" d="M29 63 c-13 -16 -12 -17 4 -4 16 13 21
21 13 21 -2 0 -10 -8 -17 -17z"/>
</g>
</svg>
