<?xml version="1.0" standalone="no"?>
<!DOCTYPE svg PUBLIC "-//W3C//DTD SVG 20010904//EN"
 "http://www.w3.org/TR/2001/REC-SVG-20010904/DTD/svg10.dtd">
<svg version="1.0" xmlns="http://www.w3.org/2000/svg"
 width="32.000000pt" height="32.000000pt" viewBox="0 0 32.000000 32.000000"
 preserveAspectRatio="xMidYMid meet">
<metadata>
Created by potrace 1.16, written by Peter Selinger 2001-2019
</metadata>
<g transform="translate(0.000000,32.000000) scale(0.100000,-0.100000)"
fill="#000000" stroke="none">
<path fill="#000000" stroke="none" d="M11 306 c-8 -9 -11 -47 -9 -107 3 -82
5 -94 22 -97 13 -3 16 0 11 9 -6 8 -4 10 5 4 10 -6 12 -1 8 18 -3 15 -1 24 3
21 19 -11 8 -52 -21 -79 -16 -16 -30 -39 -30 -52 l0 -23 160 0 160 0 0 156 c0
101 -3 153 -10 149 -5 -3 -10 -1 -10 4 0 18 -275 15 -289 -3z"/>
<path fill="#ffffff" stroke="none" d="M256 244 c-9 -26 -13 -51 -9 -57 3 -5
1 -7 -5 -3 -6 3 -13 -2 -16 -12 -8 -24 -106 -120 -106 -103 0 7 27 43 60 79
33 37 60 73 60 80 0 8 -17 -8 -38 -35 -41 -51 -72 -80 -72 -68 0 4 -7 2 -15
-5 -8 -7 -13 -16 -10 -20 6 -10 -14 -24 -22 -16 -4 3 27 39 68 80 75 75 109
112 109 121 0 25 2 29 7 17 2 -7 -2 -33 -11 -58z"/>
<path fill="#ffffff" stroke="none" d="M102 287 c-21 -6 -36 -7 -42 -1 -6 6 6
10 33 11 l42 1 -33 -11z"/>
<path fill="#ffffff" stroke="none" d="M198 260 c7 -11 9 -20 4 -20 -4 0 -15
9 -25 20 -11 14 -13 20 -4 20 7 0 18 -9 25 -20z"/>
<path fill="#ffffff" stroke="none" d="M267 198 c-3 -8 -6 -5 -6 6 -1 11 2 17
5 13 3 -3 4 -12 1 -19z"/>
<path fill="#ffffff" stroke="none" d="M30 30 c0 -5 -5 -10 -11 -10 -5 0 -7 5
-4 10 3 6 8 10 11 10 2 0 4 -4 4 -10z"/>
</g>
</svg>
