<?xml version="1.0" standalone="no"?>
<!DOCTYPE svg PUBLIC "-//W3C//DTD SVG 20010904//EN"
 "http://www.w3.org/TR/2001/REC-SVG-20010904/DTD/svg10.dtd">
<svg version="1.0" xmlns="http://www.w3.org/2000/svg"
 width="32.000000pt" height="32.000000pt" viewBox="0 0 32.000000 32.000000"
 preserveAspectRatio="xMidYMid meet">
<metadata>
Created by potrace 1.16, written by Peter Selinger 2001-2019
</metadata>
<g transform="translate(0.000000,32.000000) scale(0.100000,-0.100000)"
fill="#000000" stroke="none">
<path fill="#000000" stroke="none" d="M0 160 l0 -160 160 0 160 0 0 160 0
160 -160 0 -160 0 0 -160z"/>
<path fill="#ffffff" stroke="none" d="M215 270 c4 -6 11 -8 16 -5 5 4 9 2 9
-4 0 -5 14 -23 30 -39 34 -34 37 -59 15 -102 -17 -34 -58 -49 -80 -30 -23 19
-18 46 11 67 23 17 24 21 13 46 -7 15 -16 27 -21 27 -5 0 -7 4 -4 9 12 19 -28
21 -47 2 -19 -18 -19 -20 -1 -50 l19 -31 -72 -72 c-40 -40 -76 -69 -80 -65 -4
4 22 37 57 72 58 58 63 67 52 85 -18 29 -15 57 8 80 21 21 65 27 75 10z"/>
<path fill="#000000" stroke="none" d="M235 213 c16 -37 16 -38 -10 -59 l-25
-20 24 -23 c22 -20 25 -21 40 -6 38 38 28 98 -21 130 l-24 16 16 -38z"/>
</g>
</svg>
