<?xml version="1.0" standalone="no"?>
<!DOCTYPE svg PUBLIC "-//W3C//DTD SVG 20010904//EN"
 "http://www.w3.org/TR/2001/REC-SVG-20010904/DTD/svg10.dtd">
<svg version="1.0" xmlns="http://www.w3.org/2000/svg"
 width="32.000000pt" height="32.000000pt" viewBox="0 0 32.000000 32.000000"
 preserveAspectRatio="xMidYMid meet">
<metadata>
Created by potrace 1.16, written by Peter Selinger 2001-2019
</metadata>
<g transform="translate(0.000000,32.000000) scale(0.100000,-0.100000)"
fill="#000000" stroke="none">
<path fill="#000000" stroke="none" d="M163 265 c-11 -8 -23 -12 -27 -10 -3 3
-4 2 -2 -1 2 -3 0 -19 -4 -35 -5 -16 -5 -27 0 -24 4 2 13 -2 20 -10 9 -11 9
-15 1 -15 -7 0 -10 -4 -7 -9 4 -5 -7 -21 -24 -34 -16 -14 -30 -30 -30 -35 0
-5 18 9 41 31 40 41 41 42 25 69 -14 23 -15 31 -4 48 15 24 63 29 54 5 -7 -19
1 -19 20 -1 16 17 19 30 4 21 -5 -3 -18 -1 -28 4 -14 7 -25 6 -39 -4z"/>
<path fill="#000000" stroke="none" d="M195 120 c1 -11 7 -26 15 -33 10 -9 11
-9 6 1 -4 6 -3 12 1 12 5 0 15 -6 23 -12 8 -7 2 2 -14 20 -17 17 -30 32 -31
32 -1 0 -1 -9 0 -20z"/>
<path fill="#000000" stroke="none" d="M71 74 c0 -11 3 -14 6 -6 3 7 2 16 -1
19 -3 4 -6 -2 -5 -13z"/>
<path fill="#000000" stroke="none" d="M43 50 c-11 -16 -10 -18 2 -14 8 4 15
12 15 20 0 19 -3 18 -17 -6z"/>
</g>
</svg>
