<?xml version="1.0" standalone="no"?>
<!DOCTYPE svg PUBLIC "-//W3C//DTD SVG 20010904//EN"
 "http://www.w3.org/TR/2001/REC-SVG-20010904/DTD/svg10.dtd">
<svg version="1.0" xmlns="http://www.w3.org/2000/svg"
 width="32.000000pt" height="32.000000pt" viewBox="0 0 32.000000 32.000000"
 preserveAspectRatio="xMidYMid meet">
<metadata>
Created by potrace 1.16, written by Peter Selinger 2001-2019
</metadata>
<g transform="translate(0.000000,32.000000) scale(0.100000,-0.100000)"
fill="#000000" stroke="none">
<path fill="#000000" stroke="none" d="M215 275 c-26 -26 -50 -43 -57 -39 -7
4 -8 3 -4 -4 4 -7 -8 -27 -29 -47 -19 -20 -35 -41 -35 -48 0 -6 42 30 93 81
51 50 96 92 100 92 4 0 -35 -43 -88 -95 -52 -52 -97 -95 -100 -95 -3 0 -13 15
-21 33 l-15 32 6 -30 c5 -26 0 -36 -30 -65 -35 -34 -43 -50 -25 -50 5 0 9 5 7
12 -1 6 9 17 23 25 14 7 21 13 16 13 -5 0 -3 6 3 14 10 12 16 10 36 -10 13
-13 32 -24 41 -24 17 0 17 1 0 13 -17 12 -15 16 24 57 31 32 44 40 53 31 6 -6
15 -11 21 -11 5 0 2 6 -9 13 -17 13 -15 17 34 66 55 57 59 66 35 75 -27 10
-32 7 -79 -39z"/>
<path fill="#000000" stroke="none" d="M25 289 c-11 -16 -1 -19 13 -3 7 8 8
14 3 14 -5 0 -13 -5 -16 -11z"/>
<path fill="#000000" stroke="none" d="M70 216 c7 -7 13 -7 20 0 6 6 3 10 -10
10 -13 0 -16 -4 -10 -10z"/>
<path fill="#000000" stroke="none" d="M7 199 c7 -7 15 -10 18 -7 3 3 -2 9
-12 12 -14 6 -15 5 -6 -5z"/>
<path fill="#000000" stroke="none" d="M245 199 c-11 -16 -1 -19 13 -3 7 8 8
14 3 14 -5 0 -13 -5 -16 -11z"/>
<path fill="#000000" stroke="none" d="M0 140 c0 -5 5 -10 10 -10 6 0 10 5 10
10 0 6 -4 10 -10 10 -5 0 -10 -4 -10 -10z"/>
<path fill="#000000" stroke="none" d="M215 139 c-4 -6 -5 -12 -2 -15 2 -3 7
2 10 11 7 17 1 20 -8 4z"/>
<path fill="#000000" stroke="none" d="M177 119 c7 -7 15 -10 18 -7 3 3 -2 9
-12 12 -14 6 -15 5 -6 -5z"/>
<path fill="#000000" stroke="none" d="M50 60 c0 -5 5 -10 11 -10 5 0 7 5 4
10 -3 6 -8 10 -11 10 -2 0 -4 -4 -4 -10z"/>
<path fill="#000000" stroke="none" d="M10 20 c0 -5 5 -10 11 -10 5 0 7 5 4
10 -3 6 -8 10 -11 10 -2 0 -4 -4 -4 -10z"/>
</g>
</svg>
