<?xml version="1.0" standalone="no"?>
<!DOCTYPE svg PUBLIC "-//W3C//DTD SVG 20010904//EN"
 "http://www.w3.org/TR/2001/REC-SVG-20010904/DTD/svg10.dtd">
<svg version="1.0" xmlns="http://www.w3.org/2000/svg"
 width="32.000000pt" height="32.000000pt" viewBox="0 0 32.000000 32.000000"
 preserveAspectRatio="xMidYMid meet">
<metadata>
Created by potrace 1.16, written by Peter Selinger 2001-2019
</metadata>
<g transform="translate(0.000000,32.000000) scale(0.100000,-0.100000)"
fill="#000000" stroke="none">
<path fill="#000000" stroke="none" d="M194 213 c-90 -89 -98 -95 -110 -78
-11 15 -14 15 -14 4 0 -8 -7 -24 -16 -35 -14 -18 -15 -18 -8 6 3 14 12 31 19
39 11 11 11 21 0 58 -15 50 -41 93 -55 93 -14 0 -13 -261 1 -280 9 -13 10 -13
6 2 -7 21 28 56 37 36 4 -9 5 -9 4 2 -1 8 1 25 5 37 l8 21 24 -24 c13 -13 32
-24 41 -24 17 0 17 1 0 13 -17 12 -11 21 78 111 53 54 96 102 96 107 0 22 -26
3 -116 -88z"/>
<path fill="#000000" stroke="none" d="M270 10 c-12 -8 -11 -10 8 -10 12 0 22
5 22 10 0 13 -11 13 -30 0z"/>
</g>
</svg>
