<?xml version="1.0" standalone="no"?>
<!DOCTYPE svg PUBLIC "-//W3C//DTD SVG 20010904//EN"
 "http://www.w3.org/TR/2001/REC-SVG-20010904/DTD/svg10.dtd">
<svg version="1.0" xmlns="http://www.w3.org/2000/svg"
 width="32.000000pt" height="32.000000pt" viewBox="0 0 32.000000 32.000000"
 preserveAspectRatio="xMidYMid meet">
<metadata>
Created by potrace 1.16, written by Peter Selinger 2001-2019
</metadata>
<g transform="translate(0.000000,32.000000) scale(0.100000,-0.100000)"
fill="#000000" stroke="none">
<path fill="#000000" stroke="none" d="M0 160 l0 -160 160 0 161 0 -3 158 -3
157 -157 3 -158 3 0 -161z"/>
<path fill="#ffffff" stroke="none" d="M310 301 c0 -5 -13 -23 -29 -40 -16
-17 -27 -32 -25 -32 2 -1 7 -2 12 -3 4 -1 13 -5 20 -10 20 -12 -34 -66 -66
-66 -24 0 -25 0 -7 20 10 11 15 23 11 27 -4 4 -51 -38 -106 -92 -55 -54 -103
-96 -107 -92 -4 4 39 54 96 111 67 67 98 105 90 108 -8 3 -22 -2 -33 -11 -17
-15 -18 -15 -14 4 2 15 12 20 38 21 25 1 45 10 69 32 33 32 51 40 51 23z"/>
</g>
</svg>
