<?xml version="1.0" standalone="no"?>
<!DOCTYPE svg PUBLIC "-//W3C//DTD SVG 20010904//EN"
 "http://www.w3.org/TR/2001/REC-SVG-20010904/DTD/svg10.dtd">
<svg version="1.0" xmlns="http://www.w3.org/2000/svg"
 width="32.000000pt" height="32.000000pt" viewBox="0 0 32.000000 32.000000"
 preserveAspectRatio="xMidYMid meet">
<metadata>
Created by potrace 1.16, written by Peter Selinger 2001-2019
</metadata>
<g transform="translate(0.000000,32.000000) scale(0.100000,-0.100000)"
fill="#000000" stroke="none">
<path fill="#000000" stroke="none" d="M140 249 c-14 -6 -33 -8 -42 -6 -16 5
-16 2 2 -33 20 -40 12 -63 -19 -53 -12 4 -13 3 -2 -5 10 -7 10 -11 1 -17 -6
-4 -9 -14 -6 -22 4 -9 1 -22 -5 -30 -9 -10 -9 -17 -1 -25 17 -17 40 8 45 46 4
33 17 38 88 40 31 1 45 5 42 13 -3 6 0 21 7 32 9 17 8 21 -6 21 -9 0 -18 9
-21 20 -7 27 -29 10 -48 -38 -17 -40 -33 -38 -59 7 l-19 33 44 -3 c24 -2 43 0
42 4 -2 4 -3 12 -3 17 0 12 -7 12 -40 -1z"/>
<path fill="#ffffff" stroke="none" d="M230 174 c0 -8 -10 -14 -24 -14 -22 0
-23 2 -13 24 9 18 15 22 24 14 7 -6 13 -17 13 -24z"/>
</g>
</svg>
