<?xml version="1.0" standalone="no"?>
<!DOCTYPE svg PUBLIC "-//W3C//DTD SVG 20010904//EN"
 "http://www.w3.org/TR/2001/REC-SVG-20010904/DTD/svg10.dtd">
<svg version="1.0" xmlns="http://www.w3.org/2000/svg"
 width="32.000000pt" height="32.000000pt" viewBox="0 0 32.000000 32.000000"
 preserveAspectRatio="xMidYMid meet">
<metadata>
Created by potrace 1.16, written by Peter Selinger 2001-2019
</metadata>
<g transform="translate(0.000000,32.000000) scale(0.100000,-0.100000)"
fill="#000000" stroke="none">
<path fill="#000000" stroke="none" d="M108 240 c-16 -10 -17 -14 -4 -39 16
-30 5 -54 -19 -45 -8 3 -11 -6 -10 -28 2 -18 -2 -39 -8 -46 -7 -9 -7 -16 1
-24 15 -15 42 -2 42 21 0 10 9 21 20 24 11 3 20 11 20 19 0 10 -3 9 -10 -2 -7
-10 -10 -11 -10 -2 0 18 49 34 88 30 29 -4 32 -1 32 22 0 46 -30 75 -80 78
-25 1 -53 -3 -62 -8z"/>
<path fill="#ffffff" stroke="none" d="M169 221 c12 -8 13 -14 3 -36 -15 -32
-31 -29 -55 13 l-19 32 29 0 c15 0 34 -4 42 -9z"/>
<path fill="#ffffff" stroke="none" d="M228 188 c18 -18 14 -28 -12 -28 -19 0
-23 4 -19 20 6 23 14 25 31 8z"/>
</g>
</svg>
