<?xml version="1.0" standalone="no"?>
<!DOCTYPE svg PUBLIC "-//W3C//DTD SVG 20010904//EN"
 "http://www.w3.org/TR/2001/REC-SVG-20010904/DTD/svg10.dtd">
<svg version="1.0" xmlns="http://www.w3.org/2000/svg"
 width="32.000000pt" height="32.000000pt" viewBox="0 0 32.000000 32.000000"
 preserveAspectRatio="xMidYMid meet">
<metadata>
Created by potrace 1.16, written by Peter Selinger 2001-2019
</metadata>
<g transform="translate(0.000000,32.000000) scale(0.100000,-0.100000)"
fill="#000000" stroke="none">
<path fill="#000000" stroke="none" d="M140 249 c-14 -6 -32 -8 -42 -6 -15 4
-16 2 -1 -29 9 -19 18 -32 21 -30 2 2 -1 13 -7 24 -9 18 -7 21 24 26 19 4 37
11 40 16 8 12 -2 12 -35 -1z"/>
<path fill="#000000" stroke="none" d="M197 232 c-10 -10 -17 -26 -17 -34 0
-22 -23 -38 -48 -33 -12 2 -24 0 -27 -5 -3 -5 -13 -7 -23 -4 -14 5 -14 4 -2
-4 8 -6 18 -8 24 -5 5 4 7 -1 2 -12 -5 -14 -3 -15 6 -7 7 6 16 11 20 11 4 1
15 4 23 7 8 4 32 4 54 2 27 -2 37 0 34 9 -3 6 0 20 5 29 8 14 5 21 -11 29 -12
7 -21 17 -19 23 3 17 -2 15 -21 -6z"/>
<path fill="#ffffff" stroke="none" d="M233 179 c-4 -13 -14 -19 -33 -19 l-28
0 16 35 c15 32 17 33 33 19 10 -9 15 -23 12 -35z"/>
<path fill="#000000" stroke="none" d="M80 60 c-23 -7 -23 -8 -3 -9 12 -1 25
4 28 9 3 6 5 10 3 9 -2 -1 -14 -5 -28 -9z"/>
</g>
</svg>
