<?xml version="1.0" standalone="no"?>
<!DOCTYPE svg PUBLIC "-//W3C//DTD SVG 20010904//EN"
 "http://www.w3.org/TR/2001/REC-SVG-20010904/DTD/svg10.dtd">
<svg version="1.0" xmlns="http://www.w3.org/2000/svg"
 width="32.000000pt" height="32.000000pt" viewBox="0 0 32.000000 32.000000"
 preserveAspectRatio="xMidYMid meet">
<metadata>
Created by potrace 1.16, written by Peter Selinger 2001-2019
</metadata>
<g transform="translate(0.000000,32.000000) scale(0.100000,-0.100000)"
fill="#000000" stroke="none">
<path fill="#000000" stroke="none" d="M261 271 c-27 -52 -123 -151 -145 -151
-19 0 -20 -9 -5 -30 9 -13 10 -12 5 3 -3 11 -2 16 5 12 31 -20 176 148 167
193 -3 12 -11 4 -27 -27z"/>
<path fill="#000000" stroke="none" d="M176 61 c-4 -5 -2 -12 3 -15 5 -4 12
-2 15 3 4 5 2 12 -3 15 -5 4 -12 2 -15 -3z"/>
</g>
</svg>
