<?xml version="1.0" standalone="no"?>
<!DOCTYPE svg PUBLIC "-//W3C//DTD SVG 20010904//EN"
 "http://www.w3.org/TR/2001/REC-SVG-20010904/DTD/svg10.dtd">
<svg version="1.0" xmlns="http://www.w3.org/2000/svg"
 width="32.000000pt" height="32.000000pt" viewBox="0 0 32.000000 32.000000"
 preserveAspectRatio="xMidYMid meet">
<metadata>
Created by potrace 1.16, written by Peter Selinger 2001-2019
</metadata>
<g transform="translate(0.000000,32.000000) scale(0.100000,-0.100000)"
fill="#000000" stroke="none">
<path fill="#000000" stroke="none" d="M0 160 l0 -160 160 0 160 0 0 160 0
160 -160 0 -160 0 0 -160z"/>
<path fill="#ffffff" stroke="none" d="M300 295 c0 -21 -37 -69 -81 -106 -29
-24 -64 -60 -79 -81 -26 -36 -28 -37 -44 -19 -16 17 -12 23 66 103 77 78 111
107 131 108 4 0 7 -2 7 -5z"/>
<path fill="#ffffff" stroke="none" d="M45 22 c-6 -7 -34 11 -29 19 3 5 11 3
19 -4 7 -6 12 -13 10 -15z"/>
</g>
</svg>
