<?xml version="1.0" standalone="no"?>
<!DOCTYPE svg PUBLIC "-//W3C//DTD SVG 20010904//EN"
 "http://www.w3.org/TR/2001/REC-SVG-20010904/DTD/svg10.dtd">
<svg version="1.0" xmlns="http://www.w3.org/2000/svg"
 width="32.000000pt" height="32.000000pt" viewBox="0 0 32.000000 32.000000"
 preserveAspectRatio="xMidYMid meet">
<metadata>
Created by potrace 1.16, written by Peter Selinger 2001-2019
</metadata>
<g transform="translate(0.000000,32.000000) scale(0.100000,-0.100000)"
fill="#000000" stroke="none">
<path fill="#000000" stroke="none" d="M0 189 c0 -132 0 -132 20 -114 11 10
23 15 28 11 4 -4 -5 -18 -20 -30 -16 -12 -28 -29 -28 -39 0 -15 16 -17 161
-17 146 0 160 2 148 16 -10 12 -10 17 -1 23 8 5 12 29 10 69 -1 33 -5 59 -9
56 -15 -9 -18 14 -4 32 8 11 15 42 15 71 l0 51 -160 1 -160 2 0 -132z"/>
<path fill="#ffffff" stroke="none" d="M270 273 c0 -33 -10 -47 -87 -127 -49
-49 -93 -89 -99 -88 -6 1 -21 -9 -34 -23 -13 -14 -27 -25 -32 -25 -17 0 -7 22
19 45 27 23 27 24 9 43 -10 12 -15 26 -11 32 9 14 28 1 21 -15 -2 -7 2 -12 10
-11 23 3 184 168 184 188 0 10 5 18 10 18 6 0 10 -17 10 -37z"/>
<path fill="#ffffff" stroke="none" d="M160 195 c-46 -46 -86 -82 -89 -79 -3
2 33 43 79 89 46 46 86 82 89 79 3 -2 -33 -43 -79 -89z"/>
</g>
</svg>
