<?xml version="1.0" standalone="no"?>
<!DOCTYPE svg PUBLIC "-//W3C//DTD SVG 20010904//EN"
 "http://www.w3.org/TR/2001/REC-SVG-20010904/DTD/svg10.dtd">
<svg version="1.0" xmlns="http://www.w3.org/2000/svg"
 width="32.000000pt" height="32.000000pt" viewBox="0 0 32.000000 32.000000"
 preserveAspectRatio="xMidYMid meet">
<metadata>
Created by potrace 1.16, written by Peter Selinger 2001-2019
</metadata>
<g transform="translate(0.000000,32.000000) scale(0.100000,-0.100000)"
fill="#000000" stroke="none">
<path fill="#000000" stroke="none" d="M250 291 c0 -11 -5 -23 -12 -27 -7 -5
-8 -2 -3 7 4 8 -31 -24 -79 -71 -47 -46 -86 -87 -86 -90 0 -2 37 31 81 75 45
44 79 72 76 63 -3 -10 -2 -20 4 -23 5 -4 6 -11 3 -17 -4 -7 -9 -6 -14 2 -5 8
-18 1 -44 -23 -21 -21 -32 -38 -26 -42 6 -4 7 -11 4 -17 -4 -6 -10 -5 -15 3
-7 11 -9 11 -9 1 0 -7 -4 -11 -9 -8 -5 4 -7 -4 -4 -15 5 -19 3 -21 -20 -17
-22 4 -24 3 -14 -13 11 -17 17 -14 69 38 31 31 54 61 51 67 -3 6 -2 8 2 3 5
-4 21 5 37 20 21 20 28 36 28 65 0 21 -4 38 -10 38 -5 0 -10 -9 -10 -19z"/>
<path fill="#ffffff" stroke="none" d="M247 235 c0 -8 -4 -12 -9 -9 -5 3 -6
10 -3 15 9 13 12 11 12 -6z"/>
<path fill="#ffffff" stroke="none" d="M182 158 c-7 -7 -12 -8 -12 -2 0 6 3
14 7 17 3 4 9 5 12 2 2 -3 -1 -11 -7 -17z"/>
</g>
</svg>
