<?xml version="1.0" standalone="no"?>
<!DOCTYPE svg PUBLIC "-//W3C//DTD SVG 20010904//EN"
 "http://www.w3.org/TR/2001/REC-SVG-20010904/DTD/svg10.dtd">
<svg version="1.0" xmlns="http://www.w3.org/2000/svg"
 width="32.000000pt" height="32.000000pt" viewBox="0 0 32.000000 32.000000"
 preserveAspectRatio="xMidYMid meet">
<metadata>
Created by potrace 1.16, written by Peter Selinger 2001-2019
</metadata>
<g transform="translate(0.000000,32.000000) scale(0.100000,-0.100000)"
fill="#000000" stroke="none">
<path fill="#000000" stroke="none" d="M0 233 l1 -88 77 82 77 82 28 -25 28
-24 -23 -30 -22 -31 -18 23 -17 23 -66 -65 -65 -64 0 -58 0 -58 160 0 160 0 0
50 c0 45 -2 50 -22 50 l-23 1 22 18 c20 17 23 29 23 88 -1 62 -2 66 -15 49
-19 -25 -19 -18 0 28 l15 36 -160 0 -160 0 0 -87z"/>
<path fill="#ffffff" stroke="none" d="M300 291 c0 -4 -11 -24 -24 -44 -13
-19 -23 -37 -20 -39 2 -2 -17 -24 -41 -48 -25 -24 -45 -39 -45 -33 0 6 19 28
43 48 29 26 32 31 10 16 -50 -34 -104 -102 -97 -123 6 -21 -6 -24 -25 -6 -10
11 -18 7 -40 -19 -21 -25 -30 -30 -39 -21 -9 9 -4 18 21 39 26 22 30 30 19 40
-18 20 -14 31 9 24 17 -6 35 8 97 73 86 89 132 121 132 93z"/>
</g>
</svg>
