<?xml version="1.0" standalone="no"?>
<!DOCTYPE svg PUBLIC "-//W3C//DTD SVG 20010904//EN"
 "http://www.w3.org/TR/2001/REC-SVG-20010904/DTD/svg10.dtd">
<svg version="1.0" xmlns="http://www.w3.org/2000/svg"
 width="32.000000pt" height="32.000000pt" viewBox="0 0 32.000000 32.000000"
 preserveAspectRatio="xMidYMid meet">
<metadata>
Created by potrace 1.16, written by Peter Selinger 2001-2019
</metadata>
<g transform="translate(0.000000,32.000000) scale(0.100000,-0.100000)"
fill="#000000" stroke="none">
<path fill="#000000" stroke="none" d="M0 160 l0 -160 160 0 160 0 0 160 0
160 -160 0 -160 0 0 -160z"/>
<path fill="#ffffff" stroke="none" d="M270 272 c0 -29 -7 -45 -28 -65 -16
-15 -32 -24 -37 -20 -4 5 -5 3 -2 -3 3 -6 -20 -36 -51 -67 -52 -52 -58 -55
-69 -38 -10 16 -8 17 14 13 23 -4 25 -2 20 17 -3 11 -1 19 4 15 5 -3 9 1 9 8
0 10 2 10 9 -1 5 -8 11 -9 15 -3 3 6 2 13 -4 17 -6 4 5 21 26 42 26 24 39 31
44 23 5 -8 10 -9 14 -2 3 6 2 13 -3 17 -6 3 -7 13 -4 23 3 9 -31 -19 -76 -63
-44 -44 -81 -77 -81 -75 0 3 39 44 86 90 48 47 83 79 79 71 -5 -9 -4 -12 3 -7
7 4 12 16 12 27 0 10 5 19 10 19 6 0 10 -17 10 -38z"/>
<path fill="#000000" stroke="none" d="M235 241 c-3 -5 -2 -12 3 -15 5 -3 9 1
9 9 0 17 -3 19 -12 6z"/>
<path fill="#000000" stroke="none" d="M177 173 c-4 -3 -7 -11 -7 -17 0 -6 5
-5 12 2 6 6 9 14 7 17 -3 3 -9 2 -12 -2z"/>
</g>
</svg>
