<?xml version="1.0" standalone="no"?>
<!DOCTYPE svg PUBLIC "-//W3C//DTD SVG 20010904//EN"
 "http://www.w3.org/TR/2001/REC-SVG-20010904/DTD/svg10.dtd">
<svg version="1.0" xmlns="http://www.w3.org/2000/svg"
 width="32.000000pt" height="32.000000pt" viewBox="0 0 32.000000 32.000000"
 preserveAspectRatio="xMidYMid meet">
<metadata>
Created by potrace 1.16, written by Peter Selinger 2001-2019
</metadata>
<g transform="translate(0.000000,32.000000) scale(0.100000,-0.100000)"
fill="#000000" stroke="none">
<path fill="#000000" stroke="none" d="M248 309 c-32 -18 -158 -150 -158 -166
0 -24 24 -10 41 25 19 38 123 142 142 142 16 0 37 -20 37 -36 0 -20 -47 -67
-52 -52 -3 9 -6 9 -12 0 -4 -7 -2 -12 4 -12 17 0 -47 -61 -83 -79 -33 -17 -48
-41 -24 -41 8 0 49 35 92 77 63 63 78 85 83 115 4 36 3 38 -24 38 -16 0 -37
-5 -46 -11z"/>
<path fill="#000000" stroke="none" d="M258 293 c-10 -2 -18 -11 -18 -19 0 -8
-7 -14 -15 -14 -8 0 -15 -7 -15 -15 0 -8 -7 -15 -15 -15 -8 0 -15 -7 -15 -15
0 -8 -7 -15 -15 -15 -8 0 -15 -6 -15 -14 0 -16 -38 -66 -50 -66 -5 0 -16 12
-24 28 -10 17 -15 21 -16 11 0 -22 77 -99 99 -99 10 1 6 6 -11 16 -34 18 -35
27 -5 51 23 18 27 24 27 43 0 6 7 10 15 10 8 0 15 7 15 15 0 8 7 15 15 15 8 0
15 7 15 15 0 8 5 15 10 15 6 0 19 9 30 20 20 20 27 41 13 39 -5 -1 -16 -3 -25
-6z"/>
<path fill="#000000" stroke="none" d="M275 250 c-3 -5 -1 -10 4 -10 6 0 11 5
11 10 0 6 -2 10 -4 10 -3 0 -8 -4 -11 -10z"/>
<path fill="#000000" stroke="none" d="M215 190 c-3 -5 -1 -10 4 -10 6 0 11 5
11 10 0 6 -2 10 -4 10 -3 0 -8 -4 -11 -10z"/>
<path fill="#000000" stroke="none" d="M185 160 c-3 -5 -1 -10 4 -10 6 0 11 5
11 10 0 6 -2 10 -4 10 -3 0 -8 -4 -11 -10z"/>
<path fill="#000000" stroke="none" d="M50 75 c-37 -38 -46 -62 -24 -62 8 0
17 11 20 24 4 12 10 20 15 17 5 -3 9 2 9 11 0 9 4 14 9 11 5 -3 11 1 15 9 11
29 -11 24 -44 -10z"/>
<path fill="#ffffff" stroke="none" d="M40 40 c0 -5 -5 -10 -11 -10 -5 0 -7 5
-4 10 3 6 8 10 11 10 2 0 4 -4 4 -10z"/>
</g>
</svg>
