<?xml version="1.0" standalone="no"?>
<!DOCTYPE svg PUBLIC "-//W3C//DTD SVG 20010904//EN"
 "http://www.w3.org/TR/2001/REC-SVG-20010904/DTD/svg10.dtd">
<svg version="1.0" xmlns="http://www.w3.org/2000/svg"
 width="32.000000pt" height="32.000000pt" viewBox="0 0 32.000000 32.000000"
 preserveAspectRatio="xMidYMid meet">
<metadata>
Created by potrace 1.16, written by Peter Selinger 2001-2019
</metadata>
<g transform="translate(0.000000,32.000000) scale(0.100000,-0.100000)"
fill="#000000" stroke="none">
<path fill="#000000" stroke="none" d="M248 309 c-32 -18 -158 -150 -158 -166
0 -24 24 -10 41 25 13 25 18 29 23 16 9 -23 8 -26 -6 -18 -7 4 -10 3 -5 -1 4
-5 -1 -18 -10 -29 -14 -16 -12 -16 9 3 25 22 35 61 15 61 -5 0 16 25 47 55 58
57 75 65 96 40 14 -17 4 -58 -12 -49 -6 4 -9 3 -6 -2 7 -10 -17 -35 -26 -28
-3 2 -4 1 -2 -2 7 -10 -18 -32 -29 -26 -5 3 -7 2 -3 -2 9 -11 -14 -36 -26 -28
-5 3 -6 0 -3 -5 4 -6 -4 -14 -18 -17 -14 -4 -32 -18 -42 -32 -14 -22 -14 -27
-2 -35 8 -5 21 -9 29 -8 9 0 5 6 -10 14 -17 10 -20 14 -9 15 9 0 51 35 94 77
63 63 78 85 83 115 4 36 3 38 -24 38 -16 0 -37 -5 -46 -11z"/>
<path fill="#000000" stroke="none" d="M262 273 c-30 -33 -23 -40 8 -8 13 14
21 27 19 29 -2 3 -14 -7 -27 -21z"/>
<path fill="#000000" stroke="none" d="M240 279 c0 -5 5 -7 10 -4 6 3 10 8 10
11 0 2 -4 4 -10 4 -5 0 -10 -5 -10 -11z"/>
<path fill="#000000" stroke="none" d="M213 235 c0 -13 3 -22 8 -20 9 6 8 45
-2 45 -4 0 -6 -11 -6 -25z"/>
<path fill="#000000" stroke="none" d="M183 205 c0 -13 3 -22 8 -20 9 6 8 45
-2 45 -4 0 -6 -11 -6 -25z"/>
<path fill="#000000" stroke="none" d="M60 160 c0 -18 9 -30 35 -50 19 -14 19
-14 4 5 -9 11 -21 29 -27 40 -8 14 -11 15 -12 5z"/>
<path fill="#000000" stroke="none" d="M13 25 c0 -8 4 -12 9 -9 5 3 6 10 3 15
-9 13 -12 11 -12 -6z"/>
</g>
</svg>
