<?xml version="1.0" standalone="no"?>
<!DOCTYPE svg PUBLIC "-//W3C//DTD SVG 20010904//EN"
 "http://www.w3.org/TR/2001/REC-SVG-20010904/DTD/svg10.dtd">
<svg version="1.0" xmlns="http://www.w3.org/2000/svg"
 width="32.000000pt" height="32.000000pt" viewBox="0 0 32.000000 32.000000"
 preserveAspectRatio="xMidYMid meet">
<metadata>
Created by potrace 1.16, written by Peter Selinger 2001-2019
</metadata>
<g transform="translate(0.000000,32.000000) scale(0.100000,-0.100000)"
fill="#000000" stroke="none">
<path fill="#000000" stroke="none" d="M0 160 l0 -160 160 0 160 0 0 160 0
160 -160 0 -160 0 0 -160z"/>
<path fill="#ffffff" stroke="none" d="M200 280 c0 -18 -19 -11 -30 11 -11 19
-10 20 9 9 12 -6 21 -15 21 -20z"/>
<path fill="#ffffff" stroke="none" d="M288 280 c-7 -11 -16 -20 -20 -20 -13
0 -9 28 5 33 23 10 27 7 15 -13z"/>
<path fill="#ffffff" stroke="none" d="M244 254 c19 -19 20 -25 4 -21 -7 1
-12 -4 -10 -12 2 -9 -3 -11 -15 -6 -10 4 -26 10 -35 12 -16 5 -15 7 5 24 27
23 32 23 51 3z"/>
<path fill="#ffffff" stroke="none" d="M288 198 c-6 -18 -28 -21 -28 -4 0 9 7
16 16 16 9 0 14 -5 12 -12z"/>
<path fill="#ffffff" stroke="none" d="M107 101 c-1 -15 -4 -17 -14 -9 -15 12
-17 22 -3 13 6 -3 10 -1 10 4 0 6 2 11 4 11 3 0 4 -9 3 -19z"/>
<path fill="#ffffff" stroke="none" d="M62 73 c-6 -3 -10 -8 -7 -13 3 -4 -5
-10 -16 -13 -21 -6 -21 -5 2 19 12 13 25 21 28 18 3 -4 0 -9 -7 -11z"/>
</g>
</svg>
