<?xml version="1.0" standalone="no"?>
<!DOCTYPE svg PUBLIC "-//W3C//DTD SVG 20010904//EN"
 "http://www.w3.org/TR/2001/REC-SVG-20010904/DTD/svg10.dtd">
<svg version="1.0" xmlns="http://www.w3.org/2000/svg"
 width="32.000000pt" height="32.000000pt" viewBox="0 0 32.000000 32.000000"
 preserveAspectRatio="xMidYMid meet">
<metadata>
Created by potrace 1.16, written by Peter Selinger 2001-2019
</metadata>
<g transform="translate(0.000000,32.000000) scale(0.100000,-0.100000)"
fill="#000000" stroke="none">
<path fill="#000000" stroke="none" d="M0 160 l0 -160 160 0 160 0 0 160 0
160 -160 0 -160 0 0 -160z"/>
<path fill="#ffffff" stroke="none" d="M203 276 c-6 -14 -16 -10 -32 14 l-16
25 25 -16 c14 -9 24 -19 23 -23z"/>
<path fill="#ffffff" stroke="none" d="M290 280 c-6 -11 -15 -20 -20 -20 -14
0 -12 27 3 33 23 10 28 7 17 -13z"/>
<path fill="#ffffff" stroke="none" d="M244 251 c3 -5 -1 -14 -8 -20 -16 -13
-32 2 -21 19 8 12 22 13 29 1z"/>
<path fill="#ffffff" stroke="none" d="M281 197 c-1 -12 -15 -9 -19 4 -3 6 1
10 8 8 6 -3 11 -8 11 -12z"/>
<path fill="#ffffff" stroke="none" d="M107 93 c0 -9 -4 -10 -14 -2 -7 6 -13
12 -13 14 0 1 6 2 13 2 8 0 14 -6 14 -14z"/>
<path fill="#ffffff" stroke="none" d="M62 73 c-6 -3 -10 -8 -7 -13 3 -4 -5
-10 -16 -13 -21 -6 -21 -5 2 19 12 13 25 21 28 18 3 -4 0 -9 -7 -11z"/>
</g>
</svg>
