<?xml version="1.0" standalone="no"?>
<!DOCTYPE svg PUBLIC "-//W3C//DTD SVG 20010904//EN"
 "http://www.w3.org/TR/2001/REC-SVG-20010904/DTD/svg10.dtd">
<svg version="1.0" xmlns="http://www.w3.org/2000/svg"
 width="32.000000pt" height="32.000000pt" viewBox="0 0 32.000000 32.000000"
 preserveAspectRatio="xMidYMid meet">
<metadata>
Created by potrace 1.16, written by Peter Selinger 2001-2019
</metadata>
<g transform="translate(0.000000,32.000000) scale(0.100000,-0.100000)"
fill="#000000" stroke="none">
<path fill="#000000" stroke="none" d="M171 288 c6 -13 17 -26 23 -30 6 -4 4
-10 -8 -14 -15 -6 -13 -9 15 -21 29 -12 35 -12 48 2 15 15 14 18 -4 30 -11 8
-25 18 -31 23 -5 5 -20 15 -33 21 -21 12 -22 11 -10 -11z"/>
<path fill="#000000" stroke="none" d="M273 293 c-14 -5 -18 -33 -5 -33 10 0
32 22 32 32 0 9 -8 9 -27 1z"/>
<path fill="#000000" stroke="none" d="M260 196 c0 -7 8 -16 19 -19 14 -3 17
0 14 14 -6 22 -33 26 -33 5z"/>
<path fill="#000000" stroke="none" d="M100 109 c0 -5 -4 -7 -10 -4 -14 9 -12
-1 3 -13 10 -8 13 -6 14 9 1 10 0 19 -3 19 -2 0 -4 -5 -4 -11z"/>
<path fill="#000000" stroke="none" d="M41 66 c-23 -24 -23 -25 -2 -19 11 3
19 9 16 13 -3 5 1 10 7 13 7 2 10 7 7 11 -3 3 -16 -5 -28 -18z"/>
</g>
</svg>
