<?xml version="1.0" standalone="no"?>
<!DOCTYPE svg PUBLIC "-//W3C//DTD SVG 20010904//EN"
 "http://www.w3.org/TR/2001/REC-SVG-20010904/DTD/svg10.dtd">
<svg version="1.0" xmlns="http://www.w3.org/2000/svg"
 width="32.000000pt" height="32.000000pt" viewBox="0 0 32.000000 32.000000"
 preserveAspectRatio="xMidYMid meet">
<metadata>
Created by potrace 1.16, written by Peter Selinger 2001-2019
</metadata>
<g transform="translate(0.000000,32.000000) scale(0.100000,-0.100000)"
fill="#000000" stroke="none">
<path fill="#000000" stroke="none" d="M0 160 l0 -160 160 0 160 0 0 160 0
160 -160 0 -160 0 0 -160z"/>
<path fill="#ffffff" stroke="none" d="M252 274 c-5 -25 -3 -26 24 -20 28 7
28 7 10 -13 l-19 -21 -23 23 c-21 20 -21 23 -7 39 21 23 21 23 15 -8z"/>
<path fill="#ffffff" stroke="none" d="M215 224 c-11 -8 -20 -21 -20 -28 0 -7
-15 -25 -32 -40 -18 -15 -32 -30 -32 -34 3 -20 -2 -32 -11 -27 -6 4 -19 1 -28
-7 -15 -12 -16 -11 -4 4 8 9 11 22 7 28 -3 5 2 10 13 10 27 0 66 45 68 80 1
17 -2 28 -6 25 -5 -3 -14 4 -20 15 -11 20 -10 21 9 10 18 -9 21 -8 21 12 0 22
0 22 28 -5 27 -28 27 -28 7 -43z"/>
<path fill="#ffffff" stroke="none" d="M170 213 c0 -5 -11 -9 -25 -9 -14 -1
-22 2 -19 7 6 11 44 12 44 2z"/>
<path fill="#ffffff" stroke="none" d="M245 190 c-5 -8 -11 -8 -17 -2 -6 6 -7
16 -3 22 5 8 11 8 17 2 6 -6 7 -16 3 -22z"/>
<path fill="#ffffff" stroke="none" d="M280 195 c10 -13 9 -15 -8 -15 -15 0
-20 5 -16 15 4 8 7 15 9 15 1 0 8 -7 15 -15z"/>
<path fill="#ffffff" stroke="none" d="M220 154 c0 -8 -4 -12 -10 -9 -5 3 -10
10 -10 16 0 5 5 9 10 9 6 0 10 -7 10 -16z"/>
<path fill="#ffffff" stroke="none" d="M260 160 c0 -5 -4 -10 -9 -10 -6 0 -13
5 -16 10 -3 6 1 10 9 10 9 0 16 -4 16 -10z"/>
<path fill="#ffffff" stroke="none" d="M33 17 c-3 -5 -10 -4 -15 1 -6 6 -7 16
-3 22 6 9 9 9 16 -1 4 -7 5 -17 2 -22z"/>
</g>
</svg>
