<?xml version="1.0" standalone="no"?>
<!DOCTYPE svg PUBLIC "-//W3C//DTD SVG 20010904//EN"
 "http://www.w3.org/TR/2001/REC-SVG-20010904/DTD/svg10.dtd">
<svg version="1.0" xmlns="http://www.w3.org/2000/svg"
 width="32.000000pt" height="32.000000pt" viewBox="0 0 32.000000 32.000000"
 preserveAspectRatio="xMidYMid meet">
<metadata>
Created by potrace 1.16, written by Peter Selinger 2001-2019
</metadata>
<g transform="translate(0.000000,32.000000) scale(0.100000,-0.100000)"
fill="#000000" stroke="none">
<path fill="#000000" stroke="none" d="M0 160 l0 -160 160 0 160 0 0 160 0
160 -160 0 -160 0 0 -160z"/>
<path fill="#ffffff" stroke="none" d="M200 269 c0 -5 -4 -9 -10 -9 -5 0 -10
7 -10 16 0 8 5 12 10 9 6 -3 10 -10 10 -16z"/>
<path fill="#ffffff" stroke="none" d="M250 275 c0 -8 -7 -15 -16 -15 -14 0
-14 3 -4 15 7 8 14 15 16 15 2 0 4 -7 4 -15z"/>
<path fill="#ffffff" stroke="none" d="M170 239 c0 -6 -4 -7 -10 -4 -5 3 -10
11 -10 16 0 6 5 7 10 4 6 -3 10 -11 10 -16z"/>
<path fill="#ffffff" stroke="none" d="M284 239 c-12 -13 -20 -16 -22 -9 -3 7
2 16 9 21 25 16 32 9 13 -12z"/>
<path fill="#ffffff" stroke="none" d="M215 241 c7 -12 -12 -24 -25 -16 -11 7
-4 25 10 25 5 0 11 -4 15 -9z"/>
<path fill="#ffffff" stroke="none" d="M167 214 c-3 -3 -12 -4 -19 -1 -8 3 -5
6 6 6 11 1 17 -2 13 -5z"/>
<path fill="#ffffff" stroke="none" d="M240 194 c0 -8 -4 -12 -10 -9 -5 3 -10
10 -10 16 0 5 5 9 10 9 6 0 10 -7 10 -16z"/>
<path fill="#ffffff" stroke="none" d="M200 191 c0 -5 -7 -11 -15 -15 -15 -5
-20 5 -8 17 9 10 23 9 23 -2z"/>
<path fill="#ffffff" stroke="none" d="M285 190 c3 -5 -1 -10 -9 -10 -9 0 -16
5 -16 10 0 6 4 10 9 10 6 0 13 -4 16 -10z"/>
<path fill="#ffffff" stroke="none" d="M220 155 c0 -8 -2 -15 -4 -15 -2 0 -6
7 -10 15 -3 8 -1 15 4 15 6 0 10 -7 10 -15z"/>
<path fill="#ffffff" stroke="none" d="M255 160 c3 -5 2 -10 -4 -10 -5 0 -13
5 -16 10 -3 6 -2 10 4 10 5 0 13 -4 16 -10z"/>
<path fill="#ffffff" stroke="none" d="M131 121 c-6 -10 -7 -21 -4 -25 3 -3 4
-6 1 -6 -3 0 -13 10 -24 22 -10 12 -14 19 -9 15 6 -3 17 -2 25 4 21 12 22 11
11 -10z"/>
<path fill="#ffffff" stroke="none" d="M33 17 c-3 -5 -10 -4 -15 1 -6 6 -7 16
-3 22 6 9 9 9 16 -1 4 -7 5 -17 2 -22z"/>
</g>
</svg>
