<?xml version="1.0" standalone="no"?>
<!DOCTYPE svg PUBLIC "-//W3C//DTD SVG 20010904//EN"
 "http://www.w3.org/TR/2001/REC-SVG-20010904/DTD/svg10.dtd">
<svg version="1.0" xmlns="http://www.w3.org/2000/svg"
 width="32.000000pt" height="32.000000pt" viewBox="0 0 32.000000 32.000000"
 preserveAspectRatio="xMidYMid meet">
<metadata>
Created by potrace 1.16, written by Peter Selinger 2001-2019
</metadata>
<g transform="translate(0.000000,32.000000) scale(0.100000,-0.100000)"
fill="#000000" stroke="none">
<path fill="#000000" stroke="none" d="M0 160 l0 -160 160 0 160 0 0 160 0
160 -160 0 -160 0 0 -160z"/>
<path fill="#ffffff" stroke="none" d="M197 285 c14 -14 17 -14 32 0 24 21 31
19 28 -7 -2 -18 3 -23 21 -21 26 3 28 -4 7 -28 -14 -15 -14 -18 0 -32 20 -21
19 -26 -6 -20 -18 5 -20 3 -14 -16 6 -21 -8 -30 -20 -11 -10 16 -22 11 -30
-12 -6 -20 -8 -20 -12 -5 -7 27 -42 20 -61 -13 -9 -16 -22 -30 -28 -30 -6 0
-22 -10 -36 -23 -14 -13 -30 -21 -36 -19 -7 2 -12 -1 -12 -7 0 -6 5 -11 10
-11 6 0 10 -4 10 -10 0 -5 -9 -10 -20 -10 -24 0 -28 35 -4 44 8 3 13 10 10 15
-3 4 4 17 17 27 l22 19 -19 -22 c-12 -14 -14 -23 -7 -23 7 0 19 13 28 28 9 16
29 36 45 45 31 18 38 53 11 60 -15 4 -15 6 5 12 23 8 28 20 12 30 -19 12 -10
26 11 20 19 -6 21 -4 16 14 -6 25 -1 26 20 6z"/>
</g>
</svg>
