<?xml version="1.0" standalone="no"?>
<!DOCTYPE svg PUBLIC "-//W3C//DTD SVG 20010904//EN"
 "http://www.w3.org/TR/2001/REC-SVG-20010904/DTD/svg10.dtd">
<svg version="1.0" xmlns="http://www.w3.org/2000/svg"
 width="32.000000pt" height="32.000000pt" viewBox="0 0 32.000000 32.000000"
 preserveAspectRatio="xMidYMid meet">
<metadata>
Created by potrace 1.16, written by Peter Selinger 2001-2019
</metadata>
<g transform="translate(0.000000,32.000000) scale(0.100000,-0.100000)"
fill="#000000" stroke="none">
<path fill="#000000" stroke="none" d="M167 292 c3 -9 10 -23 16 -29 6 -9 4
-15 -7 -19 -15 -6 -15 -8 1 -20 17 -12 15 -16 -27 -58 -24 -25 -50 -46 -58
-46 -7 0 -12 -8 -10 -17 4 -21 38 -30 38 -11 0 8 21 34 46 58 42 42 46 44 58
27 12 -15 14 -16 20 -2 5 13 9 13 25 3 26 -16 39 -3 23 22 -9 16 -9 21 4 28
15 8 15 10 0 15 -14 6 -14 10 -4 26 16 26 3 39 -22 23 -16 -9 -21 -9 -28 4 -8
15 -10 14 -16 -1 -4 -12 -10 -14 -19 -8 -6 6 -20 13 -29 16 -13 4 -15 2 -11
-11z"/>
<path fill="#000000" stroke="none" d="M40 65 c-18 -20 -21 -28 -12 -37 9 -9
15 -9 25 1 10 11 9 13 -5 8 -28 -10 -21 2 7 13 14 5 25 16 25 25 0 22 -13 19
-40 -10z"/>
</g>
</svg>
