<?xml version="1.0" standalone="no"?>
<!DOCTYPE svg PUBLIC "-//W3C//DTD SVG 20010904//EN"
 "http://www.w3.org/TR/2001/REC-SVG-20010904/DTD/svg10.dtd">
<svg version="1.0" xmlns="http://www.w3.org/2000/svg"
 width="32.000000pt" height="32.000000pt" viewBox="0 0 32.000000 32.000000"
 preserveAspectRatio="xMidYMid meet">
<metadata>
Created by potrace 1.16, written by Peter Selinger 2001-2019
</metadata>
<g transform="translate(0.000000,32.000000) scale(0.100000,-0.100000)"
fill="#000000" stroke="none">
<path fill="#000000" stroke="none" d="M170 291 c6 -12 15 -21 20 -21 18 0 11
19 -11 30 -19 11 -20 10 -9 -9z"/>
<path fill="#000000" stroke="none" d="M273 293 c-14 -5 -18 -33 -5 -33 4 0
13 9 20 20 12 20 8 23 -15 13z"/>
<path fill="#000000" stroke="none" d="M193 251 c-20 -17 -21 -19 -5 -24 9 -2
25 -8 35 -12 12 -5 17 -3 15 6 -2 8 3 13 10 12 16 -4 15 2 -4 21 -19 20 -24
20 -51 -3z"/>
<path fill="#000000" stroke="none" d="M260 194 c0 -17 22 -14 28 4 2 7 -3 12
-12 12 -9 0 -16 -7 -16 -16z"/>
<path fill="#000000" stroke="none" d="M100 109 c0 -5 -4 -7 -10 -4 -14 9 -12
-1 3 -13 10 -8 13 -6 14 9 1 10 0 19 -3 19 -2 0 -4 -5 -4 -11z"/>
<path fill="#000000" stroke="none" d="M41 66 c-23 -24 -23 -25 -2 -19 11 3
19 9 16 13 -3 5 1 10 7 13 7 2 10 7 7 11 -3 3 -16 -5 -28 -18z"/>
</g>
</svg>
