<?xml version="1.0" standalone="no"?>
<!DOCTYPE svg PUBLIC "-//W3C//DTD SVG 20010904//EN"
 "http://www.w3.org/TR/2001/REC-SVG-20010904/DTD/svg10.dtd">
<svg version="1.0" xmlns="http://www.w3.org/2000/svg"
 width="32.000000pt" height="32.000000pt" viewBox="0 0 32.000000 32.000000"
 preserveAspectRatio="xMidYMid meet">
<metadata>
Created by potrace 1.16, written by Peter Selinger 2001-2019
</metadata>
<g transform="translate(0.000000,32.000000) scale(0.100000,-0.100000)"
fill="#000000" stroke="none">
<path fill="#000000" stroke="none" d="M0 160 l0 -160 160 0 160 0 0 160 0
160 -160 0 -160 0 0 -160z"/>
<path fill="#ffffff" stroke="none" d="M207 288 c7 -6 14 -4 19 3 5 9 10 8 19
-5 11 -14 13 -15 19 -1 6 16 36 21 36 6 0 -5 -7 -16 -15 -24 -13 -13 -13 -16
1 -21 8 -3 12 -10 9 -16 -4 -6 -10 -8 -15 -5 -4 3 -13 -2 -20 -10 -7 -8 -22
-15 -34 -15 -28 0 -121 -93 -111 -111 6 -9 3 -11 -9 -6 -16 6 -51 -15 -41 -24
2 -3 -7 -9 -21 -16 -33 -15 -30 0 6 30 16 14 30 31 30 37 0 6 4 9 8 6 5 -3 32
19 61 48 43 44 50 54 36 60 -14 5 -15 9 -6 20 7 8 8 17 3 20 -5 3 -12 14 -15
25 -4 15 -1 18 12 14 9 -3 21 -10 28 -15z"/>
<path fill="#ffffff" stroke="none" d="M294 194 c4 -9 5 -19 3 -21 -8 -8 -37
10 -37 23 0 19 26 18 34 -2z"/>
<path fill="#ffffff" stroke="none" d="M250 186 c0 -11 -19 -15 -25 -6 -3 5 1
10 9 10 9 0 16 -2 16 -4z"/>
</g>
</svg>
