<?xml version="1.0" standalone="no"?>
<!DOCTYPE svg PUBLIC "-//W3C//DTD SVG 20010904//EN"
 "http://www.w3.org/TR/2001/REC-SVG-20010904/DTD/svg10.dtd">
<svg version="1.0" xmlns="http://www.w3.org/2000/svg"
 width="32.000000pt" height="32.000000pt" viewBox="0 0 32.000000 32.000000"
 preserveAspectRatio="xMidYMid meet">
<metadata>
Created by potrace 1.16, written by Peter Selinger 2001-2019
</metadata>
<g transform="translate(0.000000,32.000000) scale(0.100000,-0.100000)"
fill="#000000" stroke="none">
<path fill="#000000" stroke="none" d="M0 309 c0 -5 5 -7 10 -4 5 3 10 8 10
11 0 2 -4 4 -10 4 -5 0 -10 -5 -10 -11z"/>
<path fill="#000000" stroke="none" d="M22 285 c-20 -31 -22 -47 -22 -160 l0
-125 160 0 160 0 0 46 c0 43 -1 45 -17 33 -17 -13 -17 -13 0 7 30 36 19 50
-15 17 -44 -40 -79 -63 -98 -63 -8 0 0 8 17 16 18 9 31 20 28 24 -2 3 16 26
40 50 l45 44 0 73 0 73 -137 0 -138 0 -23 -35z"/>
<path fill="#ffffff" stroke="none" d="M203 270 c-1 -24 -9 -40 -24 -50 -12
-8 -38 -31 -57 -50 -20 -19 -44 -33 -54 -32 -15 3 -18 -4 -18 -32 0 -38 7 -44
30 -23 11 9 11 8 0 -8 -8 -11 -23 -26 -33 -33 -9 -7 -15 -18 -12 -23 4 -5 -1
-9 -9 -9 -9 0 -16 7 -16 17 0 9 3 13 7 10 16 -17 30 16 25 58 -4 42 -3 45 24
56 28 10 28 11 9 25 -19 14 -19 14 5 12 23 -3 25 0 22 37 -2 22 -8 45 -14 50
-13 13 -38 -21 -39 -54 -2 -23 -2 -24 -6 -4 -10 52 48 95 122 90 39 -2 40 -3
38 -37z"/>
<path fill="#ffffff" stroke="none" d="M226 205 c-4 -16 -2 -24 5 -23 6 2 14
-4 16 -12 4 -12 3 -12 -5 -2 -15 22 -18 20 -77 -38 -47 -46 -53 -56 -38 -62
15 -5 14 -7 -4 -7 -15 -1 -23 5 -23 15 0 9 -9 18 -20 21 -11 3 -20 10 -20 15
0 5 4 7 9 3 5 -3 13 -1 16 5 11 18 125 110 137 110 6 0 8 -10 4 -25z"/>
<path fill="#ffffff" stroke="none" d="M261 127 c-8 -8 -11 -7 -11 4 0 9 3 19
7 23 4 4 9 2 11 -4 3 -7 -1 -17 -7 -23z"/>
<path fill="#ffffff" stroke="none" d="M237 135 c0 -8 -4 -12 -9 -9 -4 3 -8 9
-8 15 0 5 4 9 8 9 5 0 9 -7 9 -15z"/>
<path fill="#ffffff" stroke="none" d="M214 124 c12 -31 7 -47 -14 -41 -11 3
-20 2 -20 -3 0 -4 -8 -11 -17 -14 -15 -6 -15 -5 1 13 10 11 23 18 29 14 6 -4
7 4 3 21 -7 28 8 37 18 10z"/>
<path fill="#ffffff" stroke="none" d="M165 100 c-10 -11 -20 -18 -23 -15 -7
6 18 35 31 35 5 0 2 -9 -8 -20z"/>
<path fill="#ffffff" stroke="none" d="M87 34 c-3 -3 -12 -4 -19 -1 -8 3 -5 6
6 6 11 1 17 -2 13 -5z"/>
<path fill="#000000" stroke="none" d="M106 290 c-14 -4 -16 -9 -8 -14 7 -4
12 -20 12 -37 0 -32 7 -36 34 -16 14 10 15 18 7 39 -12 32 -21 37 -45 28z"/>
<path fill="#000000" stroke="none" d="M153 275 c14 -30 41 -29 45 3 3 18 -1
22 -26 22 -29 0 -30 -1 -19 -25z"/>
</g>
</svg>
