<?xml version="1.0" standalone="no"?>
<!DOCTYPE svg PUBLIC "-//W3C//DTD SVG 20010904//EN"
 "http://www.w3.org/TR/2001/REC-SVG-20010904/DTD/svg10.dtd">
<svg version="1.0" xmlns="http://www.w3.org/2000/svg"
 width="32.000000pt" height="32.000000pt" viewBox="0 0 32.000000 32.000000"
 preserveAspectRatio="xMidYMid meet">
<metadata>
Created by potrace 1.16, written by Peter Selinger 2001-2019
</metadata>
<g transform="translate(0.000000,32.000000) scale(0.100000,-0.100000)"
fill="#000000" stroke="none">
<path fill="#000000" stroke="none" d="M42 291 c13 -22 28 -28 28 -11 0 5 -9
14 -20 20 -19 10 -20 10 -8 -9z"/>
<path fill="#000000" stroke="none" d="M90 295 c-11 -13 -9 -23 8 -54 12 -21
22 -47 22 -56 0 -14 3 -15 15 -5 22 18 19 35 -15 73 -22 26 -26 37 -18 45 7 7
9 12 6 12 -3 0 -11 -7 -18 -15z"/>
<path fill="#000000" stroke="none" d="M233 274 c-19 -20 -32 -39 -29 -41 2
-3 -22 -27 -54 -54 -32 -27 -61 -53 -65 -59 -3 -6 -11 -8 -16 -5 -5 4 -9 2 -9
-3 0 -5 9 -12 20 -15 11 -3 20 -12 20 -21 0 -10 8 -16 23 -15 18 1 18 2 4 6
-15 4 -8 16 42 68 58 60 73 89 51 97 -19 6 36 60 70 68 34 8 34 8 6 9 -21 1
-38 -9 -63 -35z"/>
<path fill="#000000" stroke="none" d="M288 264 c-38 -20 -36 -50 5 -69 28
-14 30 -14 13 0 -11 8 -23 15 -28 15 -4 0 -8 9 -8 20 0 11 4 20 8 20 5 0 17 7
28 15 24 18 17 18 -18 -1z"/>
<path fill="#000000" stroke="none" d="M14 218 l-19 -23 23 19 c21 18 27 26
19 26 -2 0 -12 -10 -23 -22z"/>
<path fill="#000000" stroke="none" d="M196 151 c-16 -18 -17 -25 -8 -46 6
-14 18 -25 27 -25 8 0 15 -4 15 -10 0 -5 16 -10 35 -10 19 0 35 2 35 4 0 2
-15 19 -32 38 -18 18 -38 42 -43 52 -10 17 -11 17 -29 -3z"/>
<path fill="#000000" stroke="none" d="M219 29 c-21 -18 -21 -20 -4 -13 11 5
39 8 63 9 27 0 42 5 42 13 0 21 -75 15 -101 -9z"/>
<path fill="#000000" stroke="none" d="M10 25 c0 -8 7 -15 16 -15 14 0 14 3 4
15 -16 19 -20 19 -20 0z"/>
</g>
</svg>
