<?xml version="1.0" standalone="no"?>
<!DOCTYPE svg PUBLIC "-//W3C//DTD SVG 20010904//EN"
 "http://www.w3.org/TR/2001/REC-SVG-20010904/DTD/svg10.dtd">
<svg version="1.0" xmlns="http://www.w3.org/2000/svg"
 width="32.000000pt" height="32.000000pt" viewBox="0 0 32.000000 32.000000"
 preserveAspectRatio="xMidYMid meet">
<metadata>
Created by potrace 1.16, written by Peter Selinger 2001-2019
</metadata>
<g transform="translate(0.000000,32.000000) scale(0.100000,-0.100000)"
fill="#000000" stroke="none">
<path fill="#000000" stroke="none" d="M0 295 c0 -21 3 -25 13 -17 6 5 22 13
34 16 17 6 15 0 -13 -29 -27 -29 -34 -45 -34 -76 0 -39 0 -40 22 -25 38 27 42
18 9 -19 -27 -31 -31 -43 -31 -90 l0 -55 160 0 160 0 0 45 c0 25 -2 45 -5 45
-3 0 -16 -9 -28 -20 -15 -14 -23 -17 -26 -9 -2 7 10 25 28 41 31 27 31 29 31
123 l0 95 -57 0 -58 0 -58 -65 c-50 -56 -61 -64 -74 -53 -13 11 -8 20 41 65
l57 53 -65 0 c-36 0 -68 -5 -71 -10 -5 -8 -11 -7 -21 1 -11 9 -14 6 -14 -16z"/>
<path fill="#ffffff" stroke="none" d="M204 257 c-10 -6 -27 -13 -37 -14 -17
-3 -17 -2 0 21 14 19 22 22 37 14 19 -10 19 -11 0 -21z"/>
<path fill="#ffffff" stroke="none" d="M290 282 c0 -4 -13 -29 -29 -54 -16
-25 -26 -49 -23 -53 4 -4 -5 -5 -21 -3 -15 3 -30 1 -33 -4 -3 -5 -12 -4 -20 3
-17 14 -18 29 -3 29 5 0 7 -5 3 -12 -4 -6 -3 -8 3 -5 6 4 8 19 5 34 -2 16 -1
25 3 21 4 -3 28 7 53 23 47 30 62 35 62 21z"/>
<path fill="#ffffff" stroke="none" d="M160 156 c0 -2 -27 -30 -60 -62 -33
-33 -60 -65 -60 -71 0 -7 -7 -13 -15 -13 -8 0 -15 7 -15 15 0 8 6 15 13 15 6
0 37 27 67 59 49 52 70 69 70 57z"/>
</g>
</svg>
