<?xml version="1.0" standalone="no"?>
<!DOCTYPE svg PUBLIC "-//W3C//DTD SVG 20010904//EN"
 "http://www.w3.org/TR/2001/REC-SVG-20010904/DTD/svg10.dtd">
<svg version="1.0" xmlns="http://www.w3.org/2000/svg"
 width="32.000000pt" height="32.000000pt" viewBox="0 0 32.000000 32.000000"
 preserveAspectRatio="xMidYMid meet">
<metadata>
Created by potrace 1.16, written by Peter Selinger 2001-2019
</metadata>
<g transform="translate(0.000000,32.000000) scale(0.100000,-0.100000)"
fill="#000000" stroke="none">
<path fill="#000000" stroke="none" d="M143 294 c-40 -20 -67 -74 -59 -120 4
-18 11 -36 16 -39 6 -4 5 6 -1 22 -14 39 -4 85 27 114 20 19 36 24 77 23 32 0
44 2 31 7 -30 12 -56 10 -91 -7z"/>
<path fill="#000000" stroke="none" d="M275 288 c-11 -6 -28 -21 -38 -32 -14
-16 -20 -18 -26 -7 -6 10 -19 12 -43 7 -38 -7 -63 -44 -53 -77 9 -28 23 -23
17 6 -2 14 1 32 8 40 14 17 70 21 70 5 0 -5 -4 -10 -9 -10 -10 0 -24 -31 -16
-38 2 -3 11 1 20 8 9 7 18 10 21 7 12 -12 -6 -37 -33 -48 -16 -7 -23 -13 -15
-16 16 -6 61 23 69 44 3 8 0 19 -7 23 -9 6 -4 16 19 40 17 18 31 37 31 42 0 5
5 6 10 3 6 -3 10 -1 10 4 0 14 -10 13 -35 -1z"/>
<path fill="#000000" stroke="none" d="M291 230 c6 -17 9 -40 6 -52 -4 -15 -3
-18 5 -10 12 12 3 78 -12 87 -5 3 -4 -8 1 -25z"/>
<path fill="#000000" stroke="none" d="M246 105 c-11 -8 -16 -15 -10 -15 5 0
18 7 28 15 11 8 16 15 10 15 -5 0 -18 -7 -28 -15z"/>
<path fill="#000000" stroke="none" d="M148 93 c7 -3 16 -2 19 1 4 3 -2 6 -13
5 -11 0 -14 -3 -6 -6z"/>
<path fill="#000000" stroke="none" d="M15 29 c-10 -15 3 -25 16 -12 7 7 7 13
1 17 -6 3 -14 1 -17 -5z"/>
</g>
</svg>
