<?xml version="1.0" standalone="no"?>
<!DOCTYPE svg PUBLIC "-//W3C//DTD SVG 20010904//EN"
 "http://www.w3.org/TR/2001/REC-SVG-20010904/DTD/svg10.dtd">
<svg version="1.0" xmlns="http://www.w3.org/2000/svg"
 width="32.000000pt" height="32.000000pt" viewBox="0 0 32.000000 32.000000"
 preserveAspectRatio="xMidYMid meet">
<metadata>
Created by potrace 1.16, written by Peter Selinger 2001-2019
</metadata>
<g transform="translate(0.000000,32.000000) scale(0.100000,-0.100000)"
fill="#000000" stroke="none">
<path fill="#000000" stroke="none" d="M0 160 l0 -160 160 0 160 0 0 160 0
160 -160 0 -160 0 0 -160z"/>
<path fill="#ffffff" stroke="none" d="M234 301 c13 -5 1 -7 -31 -7 -41 1 -57
-4 -77 -23 -31 -29 -41 -75 -27 -114 6 -16 7 -26 1 -22 -5 3 -12 21 -16 39
-15 84 72 158 150 127z"/>
<path fill="#ffffff" stroke="none" d="M254 248 c-59 -56 -87 -61 -32 -5 33
33 66 56 80 57 4 0 -18 -23 -48 -52z"/>
<path fill="#ffffff" stroke="none" d="M200 250 c0 -5 -11 -10 -24 -10 -31 0
-50 -24 -44 -55 6 -29 -8 -34 -17 -5 -11 35 26 79 68 80 9 0 17 -4 17 -10z"/>
<path fill="#ffffff" stroke="none" d="M248 184 c-4 -22 -52 -58 -69 -51 -9 3
-3 9 14 16 16 6 31 20 34 31 6 24 26 27 21 4z"/>
</g>
</svg>
