<?xml version="1.0" standalone="no"?>
<!DOCTYPE svg PUBLIC "-//W3C//DTD SVG 20010904//EN"
 "http://www.w3.org/TR/2001/REC-SVG-20010904/DTD/svg10.dtd">
<svg version="1.0" xmlns="http://www.w3.org/2000/svg"
 width="32.000000pt" height="32.000000pt" viewBox="0 0 32.000000 32.000000"
 preserveAspectRatio="xMidYMid meet">
<metadata>
Created by potrace 1.16, written by Peter Selinger 2001-2019
</metadata>
<g transform="translate(0.000000,32.000000) scale(0.100000,-0.100000)"
fill="#000000" stroke="none">
<path fill="#000000" stroke="none" d="M1 158 l-1 -158 159 0 160 0 0 160 1
160 -63 0 c-37 0 -69 -5 -76 -12 -11 -11 -12 -10 -7 0 6 10 -11 13 -82 11
l-91 -3 0 -158z"/>
<path fill="#ffffff" stroke="none" d="M290 281 c0 -5 -15 -31 -32 -57 -25
-36 -40 -49 -60 -51 -23 -1 -26 2 -25 25 2 20 15 35 51 60 49 33 66 39 66 23z"/>
<path fill="#ffffff" stroke="none" d="M31 17 c-13 -13 -26 -3 -16 12 3 6 11
8 17 5 6 -4 6 -10 -1 -17z"/>
</g>
</svg>
