<?xml version="1.0" standalone="no"?>
<!DOCTYPE svg PUBLIC "-//W3C//DTD SVG 20010904//EN"
 "http://www.w3.org/TR/2001/REC-SVG-20010904/DTD/svg10.dtd">
<svg version="1.0" xmlns="http://www.w3.org/2000/svg"
 width="32.000000pt" height="32.000000pt" viewBox="0 0 32.000000 32.000000"
 preserveAspectRatio="xMidYMid meet">
<metadata>
Created by potrace 1.16, written by Peter Selinger 2001-2019
</metadata>
<g transform="translate(0.000000,32.000000) scale(0.100000,-0.100000)"
fill="#000000" stroke="none">
<path fill="#000000" stroke="none" d="M201 276 c-8 -10 -9 -21 -4 -33 7 -14
-3 -29 -49 -75 -32 -32 -56 -53 -53 -48 3 5 0 12 -6 16 -7 4 -9 3 -6 -3 3 -5
-12 -27 -33 -48 -41 -40 -51 -65 -25 -65 8 0 17 11 21 25 3 14 10 22 15 19 5
-3 9 2 9 11 0 9 4 14 9 11 5 -3 12 1 15 10 5 14 9 14 24 3 10 -8 13 -8 6 -1
-7 9 4 27 43 67 47 49 52 58 42 76 -15 29 1 43 33 28 33 -14 55 -53 41 -71 -6
-7 -13 -25 -17 -40 -3 -16 -11 -28 -16 -28 -6 0 -10 -4 -10 -8 0 -4 11 -8 25
-8 14 0 25 4 25 8 0 4 -5 8 -10 8 -12 0 -3 48 13 68 14 18 -10 60 -45 78 -33
17 -33 17 -47 0z"/>
<path fill="#ffffff" stroke="none" d="M40 50 c0 -5 -5 -10 -11 -10 -5 0 -7 5
-4 10 3 6 8 10 11 10 2 0 4 -4 4 -10z"/>
<path fill="#000000" stroke="none" d="M260 92 c0 -5 7 -9 15 -9 8 0 12 4 9 9
-7 10 -24 10 -24 0z"/>
</g>
</svg>
