<?xml version="1.0" standalone="no"?>
<!DOCTYPE svg PUBLIC "-//W3C//DTD SVG 20010904//EN"
 "http://www.w3.org/TR/2001/REC-SVG-20010904/DTD/svg10.dtd">
<svg version="1.0" xmlns="http://www.w3.org/2000/svg"
 width="32.000000pt" height="32.000000pt" viewBox="0 0 32.000000 32.000000"
 preserveAspectRatio="xMidYMid meet">
<metadata>
Created by potrace 1.16, written by Peter Selinger 2001-2019
</metadata>
<g transform="translate(0.000000,32.000000) scale(0.100000,-0.100000)"
fill="#000000" stroke="none">
<path fill="#000000" stroke="none" d="M0 160 l0 -160 160 0 160 0 0 160 0
160 -160 0 -160 0 0 -160z"/>
<path fill="#ffffff" stroke="none" d="M248 266 c35 -18 59 -60 45 -78 -21
-27 -23 -64 -4 -77 18 -13 18 -15 -2 -35 l-22 -22 -20 20 -21 21 23 23 c13 13
23 31 23 40 0 10 5 23 12 30 26 26 -39 90 -77 76 -18 -7 -18 -10 -5 -33 8 -15
0 -29 -39 -74 -37 -42 -51 -53 -60 -44 -9 9 -10 8 -5 -7 6 -15 4 -18 -9 -13
-12 4 -14 2 -10 -10 5 -12 2 -15 -10 -10 -12 4 -14 2 -10 -10 5 -12 2 -15 -9
-10 -12 4 -14 1 -10 -16 5 -20 4 -21 -12 -8 -16 13 -15 16 10 42 15 16 58 54
95 86 58 50 66 60 57 77 -8 15 -7 22 8 33 22 16 19 16 52 -1z"/>
</g>
</svg>
