<?xml version="1.0" standalone="no"?>
<!DOCTYPE svg PUBLIC "-//W3C//DTD SVG 20010904//EN"
 "http://www.w3.org/TR/2001/REC-SVG-20010904/DTD/svg10.dtd">
<svg version="1.0" xmlns="http://www.w3.org/2000/svg"
 width="32.000000pt" height="32.000000pt" viewBox="0 0 32.000000 32.000000"
 preserveAspectRatio="xMidYMid meet">
<metadata>
Created by potrace 1.16, written by Peter Selinger 2001-2019
</metadata>
<g transform="translate(0.000000,32.000000) scale(0.100000,-0.100000)"
fill="#000000" stroke="none">
<path fill="#000000" stroke="none" d="M0 160 l0 -160 160 0 160 0 0 160 0
160 -160 0 -160 0 0 -160z"/>
<path fill="#ffffff" stroke="none" d="M205 300 c-9 -15 5 -51 16 -44 6 3 5
-3 -3 -15 -14 -23 -28 -28 -28 -9 0 15 -11 4 -14 -14 -1 -8 -16 -33 -34 -55
-17 -22 -28 -44 -24 -49 4 -4 -1 -3 -10 5 -15 11 -14 15 18 43 31 27 33 33 19
41 -9 5 -23 6 -31 3 -35 -13 4 67 44 88 31 18 56 20 47 6z"/>
<path fill="#ffffff" stroke="none" d="M290 217 c0 -22 -34 -68 -60 -82 -41
-21 -45 -20 -45 22 0 27 4 38 15 38 8 0 16 6 16 13 1 6 2 14 3 16 2 8 71 1 71
-7z"/>
<path fill="#ffffff" stroke="none" d="M80 105 c-7 -8 -9 -15 -4 -15 5 -1 -3
-7 -18 -16 -20 -10 -25 -19 -21 -32 6 -15 4 -15 -9 -4 -15 12 -13 17 20 47 39
37 53 45 32 20z"/>
</g>
</svg>
