<?xml version="1.0" standalone="no"?>
<!DOCTYPE svg PUBLIC "-//W3C//DTD SVG 20010904//EN"
 "http://www.w3.org/TR/2001/REC-SVG-20010904/DTD/svg10.dtd">
<svg version="1.0" xmlns="http://www.w3.org/2000/svg"
 width="32.000000pt" height="32.000000pt" viewBox="0 0 32.000000 32.000000"
 preserveAspectRatio="xMidYMid meet">
<metadata>
Created by potrace 1.16, written by Peter Selinger 2001-2019
</metadata>
<g transform="translate(0.000000,32.000000) scale(0.100000,-0.100000)"
fill="#000000" stroke="none">
<path fill="#000000" stroke="none" d="M0 160 l0 -160 160 0 160 0 0 160 0
160 -160 0 -160 0 0 -160z"/>
<path fill="#ffffff" stroke="none" d="M207 204 c4 -13 -75 -46 -82 -35 -2 5
7 13 20 19 14 7 25 16 25 23 0 13 32 8 37 -7z"/>
<path fill="#ffffff" stroke="none" d="M270 180 c12 -7 7 -12 -22 -25 -21 -8
-48 -15 -60 -15 -22 1 -22 1 -3 12 11 7 26 18 33 25 16 15 31 16 52 3z"/>
<path fill="#ffffff" stroke="none" d="M110 166 c0 -5 -69 -46 -78 -46 -6 1
69 50 76 50 1 0 2 -2 2 -4z"/>
</g>
</svg>
