<?xml version="1.0" standalone="no"?>
<!DOCTYPE svg PUBLIC "-//W3C//DTD SVG 20010904//EN"
 "http://www.w3.org/TR/2001/REC-SVG-20010904/DTD/svg10.dtd">
<svg version="1.0" xmlns="http://www.w3.org/2000/svg"
 width="32.000000pt" height="32.000000pt" viewBox="0 0 32.000000 32.000000"
 preserveAspectRatio="xMidYMid meet">
<metadata>
Created by potrace 1.16, written by Peter Selinger 2001-2019
</metadata>
<g transform="translate(0.000000,32.000000) scale(0.100000,-0.100000)"
fill="#000000" stroke="none">
<path fill="#000000" stroke="none" d="M265 281 c-11 -5 -23 -7 -26 -5 -3 2
-6 -2 -6 -9 0 -7 -2 -19 -4 -27 -3 -9 2 -14 11 -11 8 2 24 4 35 3 11 0 15 2 8
5 -8 3 -9 12 -3 29 5 13 8 24 7 23 -1 0 -11 -4 -22 -8z"/>
<path fill="#000000" stroke="none" d="M120 146 c0 -2 8 -10 18 -17 15 -13 16
-12 3 4 -13 16 -21 21 -21 13z"/>
<path fill="#000000" stroke="none" d="M70 96 c0 -2 8 -10 18 -17 15 -13 16
-12 3 4 -13 16 -21 21 -21 13z"/>
<path fill="#000000" stroke="none" d="M15 39 c-11 -16 -1 -19 13 -3 7 8 8 14
3 14 -5 0 -13 -5 -16 -11z"/>
</g>
</svg>
