<?xml version="1.0" standalone="no"?>
<!DOCTYPE svg PUBLIC "-//W3C//DTD SVG 20010904//EN"
 "http://www.w3.org/TR/2001/REC-SVG-20010904/DTD/svg10.dtd">
<svg version="1.0" xmlns="http://www.w3.org/2000/svg"
 width="32.000000pt" height="32.000000pt" viewBox="0 0 32.000000 32.000000"
 preserveAspectRatio="xMidYMid meet">
<metadata>
Created by potrace 1.16, written by Peter Selinger 2001-2019
</metadata>
<g transform="translate(0.000000,32.000000) scale(0.100000,-0.100000)"
fill="#000000" stroke="none">
<path fill="#000000" stroke="none" d="M0 160 l0 -160 160 0 160 0 0 160 0
160 -160 0 -160 0 0 -160z"/>
<path fill="#ffffff" stroke="none" d="M310 296 c0 -8 -36 -49 -80 -91 -72
-70 -93 -106 -53 -91 8 4 11 1 7 -5 -3 -6 -14 -9 -24 -6 -10 2 -23 1 -30 -3
-18 -11 26 -34 48 -25 14 5 15 4 4 -6 -10 -11 -19 -10 -49 0 -36 13 -37 13
-70 -23 -18 -20 -38 -36 -43 -36 -20 0 -9 20 26 53 36 33 36 34 23 70 -10 30
-11 39 0 49 10 11 11 10 6 -4 -9 -22 14 -66 25 -48 4 7 5 20 3 30 -3 10 0 21
6 24 6 4 9 1 5 -7 -15 -40 20 -19 87 52 70 74 109 98 109 67z"/>
<path fill="#000000" stroke="none" d="M220 225 c-24 -25 -42 -45 -39 -45 3 0
25 20 49 45 24 25 42 45 39 45 -3 0 -25 -20 -49 -45z"/>
</g>
</svg>
