<?xml version="1.0" standalone="no"?>
<!DOCTYPE svg PUBLIC "-//W3C//DTD SVG 20010904//EN"
 "http://www.w3.org/TR/2001/REC-SVG-20010904/DTD/svg10.dtd">
<svg version="1.0" xmlns="http://www.w3.org/2000/svg"
 width="32.000000pt" height="32.000000pt" viewBox="0 0 32.000000 32.000000"
 preserveAspectRatio="xMidYMid meet">
<metadata>
Created by potrace 1.16, written by Peter Selinger 2001-2019
</metadata>
<g transform="translate(0.000000,32.000000) scale(0.100000,-0.100000)"
fill="#000000" stroke="none">
<path fill="#000000" stroke="none" d="M190 251 c0 -6 5 -13 12 -17 8 -5 -24
-41 -91 -104 -85 -79 -101 -98 -89 -107 11 -10 35 10 124 103 83 88 106 118
97 126 -9 8 -13 7 -13 -3 0 -10 -3 -10 -12 -1 -14 14 -28 16 -28 3z"/>
<path fill="#000000" stroke="none" d="M232 208 c-8 -8 -8 -15 -1 -24 7 -8 1
-19 -20 -37 -22 -18 -27 -27 -18 -36 20 -20 52 -12 85 22 31 32 31 34 15 48
-44 37 -49 39 -61 27z"/>
</g>
</svg>
