<?xml version="1.0" standalone="no"?>
<!DOCTYPE svg PUBLIC "-//W3C//DTD SVG 20010904//EN"
 "http://www.w3.org/TR/2001/REC-SVG-20010904/DTD/svg10.dtd">
<svg version="1.0" xmlns="http://www.w3.org/2000/svg"
 width="32.000000pt" height="32.000000pt" viewBox="0 0 32.000000 32.000000"
 preserveAspectRatio="xMidYMid meet">
<metadata>
Created by potrace 1.16, written by Peter Selinger 2001-2019
</metadata>
<g transform="translate(0.000000,32.000000) scale(0.100000,-0.100000)"
fill="#000000" stroke="none">
<path fill="#000000" stroke="none" d="M0 160 l0 -160 160 0 160 0 0 160 0
160 -160 0 -160 0 0 -160z"/>
<path fill="#ffffff" stroke="none" d="M284 201 l30 -31 -34 -35 c-24 -24 -43
-35 -64 -35 -28 0 -28 1 -13 18 21 23 21 36 3 51 -11 9 -31 -5 -97 -68 -46
-44 -87 -81 -91 -81 -20 0 -1 23 87 110 63 64 91 98 85 105 -6 7 -5 16 2 23
13 13 44 -6 92 -57z"/>
<path fill="#000000" stroke="none" d="M225 210 c-7 -12 2 -30 16 -30 12 0 12
27 0 35 -5 3 -12 1 -16 -5z"/>
</g>
</svg>
