<?xml version="1.0" standalone="no"?>
<!DOCTYPE svg PUBLIC "-//W3C//DTD SVG 20010904//EN"
 "http://www.w3.org/TR/2001/REC-SVG-20010904/DTD/svg10.dtd">
<svg version="1.0" xmlns="http://www.w3.org/2000/svg"
 width="32.000000pt" height="32.000000pt" viewBox="0 0 32.000000 32.000000"
 preserveAspectRatio="xMidYMid meet">
<metadata>
Created by potrace 1.16, written by Peter Selinger 2001-2019
</metadata>
<g transform="translate(0.000000,32.000000) scale(0.100000,-0.100000)"
fill="#000000" stroke="none">
<path fill="#000000" stroke="none" d="M190 255 c-12 -14 -7 -19 15 -16 6 1
-18 -25 -51 -58 -54 -53 -60 -62 -46 -73 9 -7 13 -8 9 -2 -3 6 5 22 18 34 14
13 25 20 25 16 0 -5 7 -3 15 4 8 7 13 16 10 20 -2 4 9 20 26 36 17 16 29 25
28 19 -1 -5 1 -18 6 -28 11 -25 -4 -36 -20 -14 -10 14 -14 15 -24 3 -9 -10 -8
-16 4 -26 19 -16 19 -29 -2 -52 -15 -17 -15 -18 13 -18 21 0 40 11 64 35 l34
35 -30 31 c-16 17 -41 39 -55 50 -24 16 -28 17 -39 4z"/>
<path fill="#000000" stroke="none" d="M10 30 c0 -5 5 -10 11 -10 5 0 7 5 4
10 -3 6 -8 10 -11 10 -2 0 -4 -4 -4 -10z"/>
</g>
</svg>
