<?xml version="1.0" standalone="no"?>
<!DOCTYPE svg PUBLIC "-//W3C//DTD SVG 20010904//EN"
 "http://www.w3.org/TR/2001/REC-SVG-20010904/DTD/svg10.dtd">
<svg version="1.0" xmlns="http://www.w3.org/2000/svg"
 width="32.000000pt" height="32.000000pt" viewBox="0 0 32.000000 32.000000"
 preserveAspectRatio="xMidYMid meet">
<metadata>
Created by potrace 1.16, written by Peter Selinger 2001-2019
</metadata>
<g transform="translate(0.000000,32.000000) scale(0.100000,-0.100000)"
fill="#000000" stroke="none">
<path fill="#000000" stroke="none" d="M0 293 c0 -36 45 -132 65 -139 23 -9
63 4 74 24 5 10 11 35 13 57 4 54 -18 57 -41 5 l-18 -41 -17 26 c-9 14 -14 25
-10 25 4 0 1 7 -6 15 -7 9 -10 18 -7 22 11 10 -14 33 -34 33 -14 0 -19 -7 -19
-27z"/>
</g>
</svg>
