<?xml version="1.0" standalone="no"?>
<!DOCTYPE svg PUBLIC "-//W3C//DTD SVG 20010904//EN"
 "http://www.w3.org/TR/2001/REC-SVG-20010904/DTD/svg10.dtd">
<svg version="1.0" xmlns="http://www.w3.org/2000/svg"
 width="32.000000pt" height="32.000000pt" viewBox="0 0 32.000000 32.000000"
 preserveAspectRatio="xMidYMid meet">
<metadata>
Created by potrace 1.16, written by Peter Selinger 2001-2019
</metadata>
<g transform="translate(0.000000,32.000000) scale(0.100000,-0.100000)"
fill="#000000" stroke="none">
<path fill="#000000" stroke="none" d="M23 178 c-30 -14 -30 -32 -1 -24 45 14
53 14 76 -1 12 -7 28 -11 34 -7 7 4 8 3 4 -5 -4 -6 0 -14 8 -17 9 -3 13 -10
10 -15 -3 -5 0 -9 6 -9 6 0 8 -5 5 -10 -3 -5 -2 -10 4 -10 5 0 8 -9 6 -20 -2
-13 0 -18 7 -14 13 8 4 69 -16 99 -9 14 -30 25 -53 29 -21 4 -45 9 -53 11 -8
2 -25 -1 -37 -7z"/>
</g>
</svg>
