<?xml version="1.0" standalone="no"?>
<!DOCTYPE svg PUBLIC "-//W3C//DTD SVG 20010904//EN"
 "http://www.w3.org/TR/2001/REC-SVG-20010904/DTD/svg10.dtd">
<svg version="1.0" xmlns="http://www.w3.org/2000/svg"
 width="32.000000pt" height="32.000000pt" viewBox="0 0 32.000000 32.000000"
 preserveAspectRatio="xMidYMid meet">
<metadata>
Created by potrace 1.16, written by Peter Selinger 2001-2019
</metadata>
<g transform="translate(0.000000,32.000000) scale(0.100000,-0.100000)"
fill="#000000" stroke="none">
<path fill="#000000" stroke="none" d="M2 160 c2 -110 7 -160 14 -160 15 0 36
25 27 33 -3 4 0 13 7 22 7 8 9 15 6 15 -4 0 2 13 14 30 26 37 36 38 43 3 8
-34 24 -60 32 -52 9 10 -12 91 -27 100 -35 22 -59 10 -83 -44 -14 -28 -25 -46
-25 -39 0 21 40 93 55 99 23 8 63 -5 74 -25 5 -10 11 -35 13 -57 4 -54 -18
-57 -41 -5 l-18 41 -17 -26 c-9 -14 -14 -25 -10 -25 4 0 1 -7 -6 -15 -7 -9
-10 -18 -7 -22 4 -3 2 -12 -4 -20 -10 -11 13 -13 130 -13 l141 0 0 160 0 160
-161 0 -161 0 4 -160z"/>
</g>
</svg>
