<?xml version="1.0" standalone="no"?>
<!DOCTYPE svg PUBLIC "-//W3C//DTD SVG 20010904//EN"
 "http://www.w3.org/TR/2001/REC-SVG-20010904/DTD/svg10.dtd">
<svg version="1.0" xmlns="http://www.w3.org/2000/svg"
 width="32.000000pt" height="32.000000pt" viewBox="0 0 32.000000 32.000000"
 preserveAspectRatio="xMidYMid meet">
<metadata>
Created by potrace 1.16, written by Peter Selinger 2001-2019
</metadata>
<g transform="translate(0.000000,32.000000) scale(0.100000,-0.100000)"
fill="#000000" stroke="none">
<path fill="#000000" stroke="none" d="M30 155 l0 -135 135 0 135 0 0 135 0
135 -135 0 -135 0 0 -135z"/>
<path fill="#ffffff" stroke="none" d="M147 261 c7 7 17 7 32 -2 18 -12 22
-11 34 5 12 16 14 16 14 2 0 -8 -9 -18 -19 -22 -10 -3 -18 -10 -18 -15 0 -10
23 -12 33 -2 4 3 19 8 34 9 20 2 24 1 13 -6 -8 -5 -15 -15 -15 -21 0 -7 -15
-17 -32 -21 -47 -12 -43 -35 5 -31 20 2 31 0 25 -3 -22 -10 -14 -22 10 -18 20
4 21 4 2 -5 -14 -6 -23 -5 -31 5 -17 21 -34 17 -35 -8 -1 -18 -3 -15 -12 11
-9 29 -8 36 8 47 10 8 27 14 37 14 12 0 15 5 11 16 -4 11 -9 12 -16 5 -6 -6
-21 -11 -32 -11 -16 0 -21 6 -21 23 1 13 -5 22 -14 22 -9 0 -15 -9 -14 -22 0
-17 -5 -23 -22 -23 -13 0 -26 5 -30 11 -4 8 -9 7 -15 -2 -6 -10 1 -16 24 -24
44 -14 48 -46 7 -63 -18 -8 -27 -18 -23 -25 3 -7 3 -9 -2 -5 -4 4 -14 3 -22
-4 -10 -8 -12 -8 -8 3 3 8 21 23 40 33 35 19 45 41 23 48 -7 3 -23 -8 -36 -24
-13 -15 -29 -28 -35 -28 -6 0 -3 6 8 13 10 8 15 19 11 25 -5 8 -2 10 8 6 9 -3
16 -2 16 4 0 5 -7 13 -16 16 -8 3 -13 10 -10 15 3 5 -1 14 -9 21 -8 7 -15 18
-15 24 0 6 7 3 15 -8 7 -10 18 -15 24 -12 5 4 12 2 16 -4 10 -15 35 -12 35 5
0 8 -4 15 -8 15 -5 0 -17 7 -28 15 -17 15 -16 15 12 1 21 -10 34 -12 41 -5z"/>
<path fill="#ffffff" stroke="none" d="M178 99 c3 -11 2 -11 -7 1 -10 13 -12
13 -21 0 -5 -8 -10 -10 -10 -4 0 27 31 30 38 3z"/>
<path fill="#ffffff" stroke="none" d="M120 97 c0 -2 -8 -11 -18 -20 -15 -14
-19 -15 -19 -2 0 8 4 12 8 9 4 -2 10 0 14 6 6 10 15 14 15 7z"/>
<path fill="#ffffff" stroke="none" d="M273 87 c-2 -4 -14 -5 -25 -1 -17 5
-20 3 -15 -10 8 -21 4 -20 -16 2 -15 16 -14 17 23 17 21 0 36 -3 33 -8z"/>
</g>
</svg>
