<?xml version="1.0" standalone="no"?>
<!DOCTYPE svg PUBLIC "-//W3C//DTD SVG 20010904//EN"
 "http://www.w3.org/TR/2001/REC-SVG-20010904/DTD/svg10.dtd">
<svg version="1.0" xmlns="http://www.w3.org/2000/svg"
 width="32.000000pt" height="32.000000pt" viewBox="0 0 32.000000 32.000000"
 preserveAspectRatio="xMidYMid meet">
<metadata>
Created by potrace 1.16, written by Peter Selinger 2001-2019
</metadata>
<g transform="translate(0.000000,32.000000) scale(0.100000,-0.100000)"
fill="#000000" stroke="none">
<path fill="#000000" stroke="none" d="M22 158 l2 -143 3 137 4 137 137 4 137
3 -142 2 -143 2 2 -142z"/>
<path fill="#000000" stroke="none" d="M105 260 c-4 -7 -3 -16 3 -22 13 -13
71 -17 78 -6 3 5 11 5 18 -1 7 -6 17 -6 26 -1 13 8 13 10 -1 10 -9 0 -20 7
-23 17 -6 14 -8 14 -22 -3 -11 -14 -17 -16 -21 -6 -4 10 -8 9 -18 -5 -13 -17
-13 -17 -12 1 2 22 -18 33 -28 16z"/>
<path fill="#000000" stroke="none" d="M63 214 c4 -7 0 -17 -8 -24 -11 -9 -12
-16 -4 -26 6 -7 7 -19 3 -26 -4 -7 3 -4 17 7 13 11 18 13 12 5 -7 -8 -13 -24
-13 -36 0 -12 6 -26 13 -31 17 -14 66 -22 73 -12 8 13 21 11 38 -6 13 -14 18
-13 40 9 24 21 36 43 18 32 -10 -6 -47 22 -39 30 4 4 1 14 -6 22 -11 13 -9 14
10 1 20 -12 25 -11 40 4 24 24 6 52 -33 52 -27 0 -28 -2 -28 -50 0 -42 4 -52
22 -61 19 -9 20 -13 8 -23 -11 -9 -18 -6 -35 15 -14 17 -21 21 -21 12 0 -9 -8
-22 -18 -29 -14 -11 -15 -11 -4 1 16 18 15 55 -1 68 -7 6 -28 13 -46 14 -37 3
-50 16 -30 29 12 7 12 10 0 21 -8 7 -11 8 -8 2z"/>
</g>
</svg>
