<?xml version="1.0" standalone="no"?>
<!DOCTYPE svg PUBLIC "-//W3C//DTD SVG 20010904//EN"
 "http://www.w3.org/TR/2001/REC-SVG-20010904/DTD/svg10.dtd">
<svg version="1.0" xmlns="http://www.w3.org/2000/svg"
 width="32.000000pt" height="32.000000pt" viewBox="0 0 32.000000 32.000000"
 preserveAspectRatio="xMidYMid meet">
<metadata>
Created by potrace 1.16, written by Peter Selinger 2001-2019
</metadata>
<g transform="translate(0.000000,32.000000) scale(0.100000,-0.100000)"
fill="#000000" stroke="none">
<path fill="#000000" stroke="none" d="M0 160 l0 -160 160 0 160 0 0 160 0
160 -160 0 -160 0 0 -160z"/>
<path fill="#ffffff" stroke="none" d="M186 198 c4 -7 3 -8 -4 -4 -7 4 -12 1
-12 -9 0 -8 7 -18 15 -21 8 -4 15 -11 15 -16 0 -6 -8 -4 -17 3 -15 13 -16 12
-11 -9 4 -12 2 -20 -3 -16 -5 3 -9 11 -9 19 0 8 -5 17 -12 21 -8 5 -9 2 -5 -9
8 -22 4 -21 -18 3 -16 17 -16 20 -3 15 10 -4 24 1 35 14 20 25 20 24 29 9z"/>
</g>
</svg>
