<?xml version="1.0" standalone="no"?>
<!DOCTYPE svg PUBLIC "-//W3C//DTD SVG 20010904//EN"
 "http://www.w3.org/TR/2001/REC-SVG-20010904/DTD/svg10.dtd">
<svg version="1.0" xmlns="http://www.w3.org/2000/svg"
 width="32.000000pt" height="32.000000pt" viewBox="0 0 32.000000 32.000000"
 preserveAspectRatio="xMidYMid meet">
<metadata>
Created by potrace 1.16, written by Peter Selinger 2001-2019
</metadata>
<g transform="translate(0.000000,32.000000) scale(0.100000,-0.100000)"
fill="#000000" stroke="none">
<path fill="#000000" stroke="none" d="M0 160 l0 -160 160 0 160 0 0 160 0
160 -160 0 -160 0 0 -160z"/>
<path fill="#ffffff" stroke="none" d="M168 293 l-137 -4 -4 -137 -3 -137 -2
143 -2 142 143 -2 142 -2 -137 -3z"/>
<path fill="#ffffff" stroke="none" d="M85 260 c16 -17 16 -20 3 -15 -9 4 -19
13 -22 21 -7 19 -2 18 19 -6z"/>
<path fill="#ffffff" stroke="none" d="M181 243 c19 3 45 8 59 12 l25 7 -27
-26 c-16 -15 -28 -35 -28 -46 0 -10 -5 -22 -11 -26 -7 -4 -8 -20 -4 -43 l6
-36 -27 33 c-25 32 -27 32 -46 15 -19 -17 -19 -17 -13 9 7 27 7 27 -30 17 -47
-13 -56 -5 -16 15 38 20 53 48 45 83 l-6 28 20 -24 c15 -19 26 -23 53 -18z"/>
<path fill="#ffffff" stroke="none" d="M275 160 c3 -5 2 -10 -4 -10 -5 0 -13
5 -16 10 -3 6 -2 10 4 10 5 0 13 -4 16 -10z"/>
<path fill="#ffffff" stroke="none" d="M160 60 c43 0 74 6 90 16 l25 16 -24
-21 c-19 -17 -37 -21 -91 -21 -54 0 -72 4 -91 21 l-24 21 25 -16 c16 -10 47
-16 90 -16z"/>
<path fill="#000000" stroke="none" d="M134 205 c-4 -9 -2 -21 4 -27 16 -16
47 -5 47 17 0 26 -42 34 -51 10z"/>
</g>
</svg>
