<?xml version="1.0" standalone="no"?>
<!DOCTYPE svg PUBLIC "-//W3C//DTD SVG 20010904//EN"
 "http://www.w3.org/TR/2001/REC-SVG-20010904/DTD/svg10.dtd">
<svg version="1.0" xmlns="http://www.w3.org/2000/svg"
 width="32.000000pt" height="32.000000pt" viewBox="0 0 32.000000 32.000000"
 preserveAspectRatio="xMidYMid meet">
<metadata>
Created by potrace 1.16, written by Peter Selinger 2001-2019
</metadata>
<g transform="translate(0.000000,32.000000) scale(0.100000,-0.100000)"
fill="#000000" stroke="none">
<path fill="#000000" stroke="none" d="M0 160 l0 -160 160 0 160 0 0 160 0
160 -160 0 -160 0 0 -160z"/>
<path fill="#ffffff" stroke="none" d="M168 293 l-137 -4 -4 -137 -3 -137 -2
143 -2 142 143 -2 142 -2 -137 -3z"/>
<path fill="#ffffff" stroke="none" d="M194 232 c3 -5 -7 -15 -22 -22 -15 -7
-34 -16 -42 -20 -8 -4 -16 -16 -18 -27 -2 -12 -13 -29 -25 -39 -12 -11 -17
-12 -11 -4 6 8 14 30 18 49 3 19 14 43 23 53 16 18 68 25 77 10z"/>
<path fill="#ffffff" stroke="none" d="M170 160 c0 -5 -4 -10 -10 -10 -5 0
-10 5 -10 10 0 6 5 10 10 10 6 0 10 -4 10 -10z"/>
<path fill="#ffffff" stroke="none" d="M230 155 c0 -4 -7 -19 -15 -34 -15 -30
-52 -46 -79 -35 -15 6 -15 8 1 19 10 7 21 11 25 9 12 -8 48 16 48 31 0 8 5 15
10 15 6 0 10 -2 10 -5z"/>
</g>
</svg>
