<?xml version="1.0" standalone="no"?>
<!DOCTYPE svg PUBLIC "-//W3C//DTD SVG 20010904//EN"
 "http://www.w3.org/TR/2001/REC-SVG-20010904/DTD/svg10.dtd">
<svg version="1.0" xmlns="http://www.w3.org/2000/svg"
 width="32.000000pt" height="32.000000pt" viewBox="0 0 32.000000 32.000000"
 preserveAspectRatio="xMidYMid meet">
<metadata>
Created by potrace 1.16, written by Peter Selinger 2001-2019
</metadata>
<g transform="translate(0.000000,32.000000) scale(0.100000,-0.100000)"
fill="#000000" stroke="none">
<path fill="#000000" stroke="none" d="M22 163 l2 -138 3 132 4 132 132 4 132
3 -137 2 -138 2 2 -137z"/>
<path fill="#000000" stroke="none" d="M137 233 c-9 -2 -24 -17 -32 -33 -18
-34 -18 -40 -5 -40 6 0 10 7 10 15 0 14 32 37 47 34 4 -1 16 1 26 6 15 6 16
10 5 16 -14 9 -22 9 -51 2z"/>
<path fill="#000000" stroke="none" d="M187 119 c-9 -5 -21 -8 -25 -5 -4 2
-15 -2 -25 -9 -16 -11 -16 -13 -1 -19 24 -9 63 4 75 25 11 21 3 24 -24 8z"/>
</g>
</svg>
