<?xml version="1.0" standalone="no"?>
<!DOCTYPE svg PUBLIC "-//W3C//DTD SVG 20010904//EN"
 "http://www.w3.org/TR/2001/REC-SVG-20010904/DTD/svg10.dtd">
<svg version="1.0" xmlns="http://www.w3.org/2000/svg"
 width="32.000000pt" height="32.000000pt" viewBox="0 0 32.000000 32.000000"
 preserveAspectRatio="xMidYMid meet">
<metadata>
Created by potrace 1.16, written by Peter Selinger 2001-2019
</metadata>
<g transform="translate(0.000000,32.000000) scale(0.100000,-0.100000)"
fill="#000000" stroke="none">
<path fill="#000000" stroke="none" d="M134 230 c-12 -4 -24 -16 -28 -25 -5
-14 -2 -16 11 -10 10 4 25 9 33 10 8 1 23 6 33 10 15 6 16 10 5 16 -16 11 -27
10 -54 -1z"/>
<path fill="#000000" stroke="none" d="M190 120 c-8 -5 -28 -12 -45 -16 -27
-6 -28 -7 -10 -14 21 -8 75 13 75 30 0 12 0 12 -20 0z"/>
</g>
</svg>
