<?xml version="1.0" standalone="no"?>
<!DOCTYPE svg PUBLIC "-//W3C//DTD SVG 20010904//EN"
 "http://www.w3.org/TR/2001/REC-SVG-20010904/DTD/svg10.dtd">
<svg version="1.0" xmlns="http://www.w3.org/2000/svg"
 width="32.000000pt" height="32.000000pt" viewBox="0 0 32.000000 32.000000"
 preserveAspectRatio="xMidYMid meet">
<metadata>
Created by potrace 1.16, written by Peter Selinger 2001-2019
</metadata>
<g transform="translate(0.000000,32.000000) scale(0.100000,-0.100000)"
fill="#000000" stroke="none">
<path fill="#000000" stroke="none" d="M22 158 l2 -143 3 137 4 137 137 4 137
3 -142 2 -143 2 2 -142z"/>
<path fill="#000000" stroke="none" d="M111 214 c-12 -15 -21 -36 -21 -48 0
-12 -8 -33 -17 -46 l-16 -25 26 24 c14 13 27 33 29 44 2 11 10 23 18 27 8 4
27 13 42 20 33 16 27 30 -12 30 -19 0 -35 -9 -49 -26z"/>
<path fill="#000000" stroke="none" d="M228 193 c-9 -10 -18 -27 -19 -37 -2
-10 -11 -22 -19 -26 -8 -4 -27 -13 -42 -20 -15 -7 -25 -17 -22 -22 9 -15 60
-9 76 10 12 14 50 112 43 112 -1 0 -9 -8 -17 -17z"/>
<path fill="#000000" stroke="none" d="M150 160 c0 -5 5 -10 10 -10 6 0 10 5
10 10 0 6 -4 10 -10 10 -5 0 -10 -4 -10 -10z"/>
</g>
</svg>
