<?xml version="1.0" standalone="no"?>
<!DOCTYPE svg PUBLIC "-//W3C//DTD SVG 20010904//EN"
 "http://www.w3.org/TR/2001/REC-SVG-20010904/DTD/svg10.dtd">
<svg version="1.0" xmlns="http://www.w3.org/2000/svg"
 width="32.000000pt" height="32.000000pt" viewBox="0 0 32.000000 32.000000"
 preserveAspectRatio="xMidYMid meet">
<metadata>
Created by potrace 1.16, written by Peter Selinger 2001-2019
</metadata>
<g transform="translate(0.000000,32.000000) scale(0.100000,-0.100000)"
fill="#000000" stroke="none">
<path fill="#000000" stroke="none" d="M0 160 l0 -160 160 0 160 0 0 160 0
160 -160 0 -160 0 0 -160z"/>
<path fill="#ffffff" stroke="none" d="M168 293 l-137 -4 -4 -137 -3 -137 -2
143 -2 142 143 -2 142 -2 -137 -3z"/>
<path fill="#ffffff" stroke="none" d="M163 252 c-8 -5 -8 -12 3 -27 11 -15
17 -17 23 -7 4 7 15 10 24 6 13 -4 17 -1 17 15 0 15 6 21 23 20 16 -1 18 -2 5
-6 -21 -5 -23 -14 -7 -30 7 -7 3 -10 -16 -10 -15 0 -31 -6 -35 -13 -6 -9 -12
-9 -30 0 -12 6 -28 9 -35 6 -7 -2 -16 1 -18 8 -4 9 2 11 21 8 23 -4 25 -3 15
10 -13 15 -8 28 11 28 7 0 7 -3 -1 -8z"/>
<path fill="#ffffff" stroke="none" d="M250 175 c8 -9 8 -15 2 -15 -6 0 -13 6
-15 13 -3 6 -6 -2 -6 -20 -1 -22 4 -33 17 -37 10 -3 7 -4 -8 -3 -14 1 -31 -2
-37 -6 -18 -11 -16 8 2 23 10 9 12 17 5 30 -7 13 -6 20 3 23 20 9 24 8 37 -8z"/>
<path fill="#ffffff" stroke="none" d="M180 160 c0 -4 -11 -17 -25 -30 -31
-29 -32 -44 -4 -35 14 5 19 3 15 -3 -3 -6 -23 -16 -44 -22 -20 -7 -41 -16 -47
-21 -15 -14 -35 -10 -35 6 0 21 29 66 58 91 23 19 82 29 82 14z"/>
<path fill="#000000" stroke="none" d="M134 138 l-19 -23 23 19 c21 18 27 26
19 26 -2 0 -12 -10 -23 -22z"/>
</g>
</svg>
