<?xml version="1.0" standalone="no"?>
<!DOCTYPE svg PUBLIC "-//W3C//DTD SVG 20010904//EN"
 "http://www.w3.org/TR/2001/REC-SVG-20010904/DTD/svg10.dtd">
<svg version="1.0" xmlns="http://www.w3.org/2000/svg"
 width="32.000000pt" height="32.000000pt" viewBox="0 0 32.000000 32.000000"
 preserveAspectRatio="xMidYMid meet">
<metadata>
Created by potrace 1.16, written by Peter Selinger 2001-2019
</metadata>
<g transform="translate(0.000000,32.000000) scale(0.100000,-0.100000)"
fill="#000000" stroke="none">
<path fill="#000000" stroke="none" d="M22 158 l2 -143 3 137 4 137 137 4 137
3 -142 2 -143 2 2 -142z"/>
<path fill="#000000" stroke="none" d="M147 253 c-4 -3 -1 -13 6 -21 10 -13 8
-14 -14 -9 -19 5 -26 3 -26 -9 0 -11 7 -14 25 -9 15 4 21 2 17 -4 -3 -6 0 -8
8 -5 9 3 23 -7 36 -25 21 -29 21 -30 2 -43 -12 -9 -17 -19 -12 -27 7 -10 9
-10 14 2 3 9 16 13 34 11 15 -2 20 -1 11 2 -13 4 -18 15 -17 37 0 18 3 26 6
20 2 -7 9 -13 15 -13 6 0 5 6 -2 15 -7 9 -21 13 -31 10 -13 -4 -19 -1 -19 8 0
19 35 28 49 14 13 -13 14 2 1 23 -7 11 -5 17 8 22 14 5 13 7 -5 7 -16 1 -23
-5 -23 -19 0 -14 -5 -18 -16 -13 -9 3 -20 0 -25 -8 -8 -12 -11 -12 -19 1 -5 8
-8 21 -5 28 5 13 -7 17 -18 5z"/>
<path fill="#000000" stroke="none" d="M146 173 c-4 -5 -17 -8 -29 -8 -25 0
-76 -68 -77 -102 0 -25 10 -28 38 -13 9 5 35 17 57 26 37 15 38 17 17 23 l-23
6 30 29 c23 22 28 32 19 38 -16 10 -23 10 -32 1z"/>
<path fill="#ffffff" stroke="none" d="M170 167 c0 -2 -10 -12 -22 -23 l-23
-19 19 23 c18 21 26 27 26 19z"/>
<path fill="#ffffff" stroke="none" d="M125 151 c-9 -8 -36 -10 -30 -2 2 4 11
8 20 8 8 0 13 -3 10 -6z"/>
</g>
</svg>
