<?xml version="1.0" standalone="no"?>
<!DOCTYPE svg PUBLIC "-//W3C//DTD SVG 20010904//EN"
 "http://www.w3.org/TR/2001/REC-SVG-20010904/DTD/svg10.dtd">
<svg version="1.0" xmlns="http://www.w3.org/2000/svg"
 width="32.000000pt" height="32.000000pt" viewBox="0 0 32.000000 32.000000"
 preserveAspectRatio="xMidYMid meet">
<metadata>
Created by potrace 1.16, written by Peter Selinger 2001-2019
</metadata>
<g transform="translate(0.000000,32.000000) scale(0.100000,-0.100000)"
fill="#000000" stroke="none">
<path fill="#000000" stroke="none" d="M22 158 c1 -79 3 -119 5 -91 4 53 4 53
38 53 19 0 38 -6 42 -13 4 -8 24 -19 43 -25 32 -11 33 -10 16 3 -11 8 -26 15
-33 15 -7 0 -13 9 -13 20 0 17 -7 20 -45 20 -65 0 -55 18 12 22 31 2 58 8 60
14 3 8 -9 9 -39 3 -79 -15 -78 -16 -78 51 l0 59 138 4 137 3 -142 2 -143 2 2
-142z"/>
<path fill="#000000" stroke="none" d="M167 208 c-3 -22 -12 -47 -21 -57 -23
-26 -20 -34 23 -54 73 -33 138 -13 68 21 -15 7 -27 17 -27 21 0 19 23 71 31
71 24 0 5 17 -30 26 l-39 11 -5 -39z"/>
</g>
</svg>
