<?xml version="1.0" standalone="no"?>
<!DOCTYPE svg PUBLIC "-//W3C//DTD SVG 20010904//EN"
 "http://www.w3.org/TR/2001/REC-SVG-20010904/DTD/svg10.dtd">
<svg version="1.0" xmlns="http://www.w3.org/2000/svg"
 width="32.000000pt" height="32.000000pt" viewBox="0 0 32.000000 32.000000"
 preserveAspectRatio="xMidYMid meet">
<metadata>
Created by potrace 1.16, written by Peter Selinger 2001-2019
</metadata>
<g transform="translate(0.000000,32.000000) scale(0.100000,-0.100000)"
fill="#000000" stroke="none">
<path fill="#000000" stroke="none" d="M210 253 c0 -7 -7 -10 -17 -7 -15 5
-15 4 -3 -4 8 -6 18 -8 22 -6 4 3 8 -3 9 -13 0 -10 3 -13 5 -6 3 7 1 20 -5 30
-6 10 -11 13 -11 6z"/>
<path fill="#000000" stroke="none" d="M151 232 c-15 -28 -31 -72 -27 -72 6 0
46 84 42 88 -3 2 -9 -5 -15 -16z"/>
<path fill="#000000" stroke="none" d="M116 135 c-9 -26 -7 -32 5 -12 6 10 9
21 6 23 -2 3 -7 -2 -11 -11z"/>
</g>
</svg>
