<?xml version="1.0" standalone="no"?>
<!DOCTYPE svg PUBLIC "-//W3C//DTD SVG 20010904//EN"
 "http://www.w3.org/TR/2001/REC-SVG-20010904/DTD/svg10.dtd">
<svg version="1.0" xmlns="http://www.w3.org/2000/svg"
 width="32.000000pt" height="32.000000pt" viewBox="0 0 32.000000 32.000000"
 preserveAspectRatio="xMidYMid meet">
<metadata>
Created by potrace 1.16, written by Peter Selinger 2001-2019
</metadata>
<g transform="translate(0.000000,32.000000) scale(0.100000,-0.100000)"
fill="#000000" stroke="none">
<path fill="#000000" stroke="none" d="M0 160 l0 -160 70 0 c43 0 70 4 70 11
0 22 -21 47 -55 68 -41 24 -47 57 -15 86 15 14 23 16 32 7 8 -8 8 -15 0 -25
-9 -11 -8 -18 6 -30 9 -8 22 -15 27 -15 16 2 54 -61 50 -82 -4 -18 2 -20 66
-20 l69 0 0 160 0 160 -160 0 -160 0 0 -160z"/>
<path fill="#000000" stroke="none" d="M70 155 c-18 -21 0 -59 36 -77 27 -13
36 -24 50 -63 7 -19 7 -19 11 -2 6 25 -16 77 -32 77 -7 0 -23 8 -35 18 -19 16
-21 22 -11 40 13 25 0 30 -19 7z"/>
</g>
</svg>
