<?xml version="1.0" standalone="no"?>
<!DOCTYPE svg PUBLIC "-//W3C//DTD SVG 20010904//EN"
 "http://www.w3.org/TR/2001/REC-SVG-20010904/DTD/svg10.dtd">
<svg version="1.0" xmlns="http://www.w3.org/2000/svg"
 width="32.000000pt" height="32.000000pt" viewBox="0 0 32.000000 32.000000"
 preserveAspectRatio="xMidYMid meet">
<metadata>
Created by potrace 1.16, written by Peter Selinger 2001-2019
</metadata>
<g transform="translate(0.000000,32.000000) scale(0.100000,-0.100000)"
fill="#000000" stroke="none">
<path fill="#000000" stroke="none" d="M0 246 c0 -72 1 -74 22 -69 31 8 58 42
58 74 0 56 60 63 68 8 6 -40 34 -64 76 -66 21 -2 45 -8 52 -14 10 -8 14 -8 14
0 0 6 5 11 11 11 6 0 8 -17 5 -47 -4 -34 -3 -42 3 -28 5 11 10 62 10 113 l1
92 -160 0 -160 0 0 -74z"/>
<path fill="#000000" stroke="none" d="M30 130 c0 -5 -7 -10 -15 -10 -12 0
-15 -13 -15 -60 l0 -60 58 0 c37 0 52 3 43 9 -8 5 -23 8 -34 5 -20 -3 -20 -5
0 99 5 23 2 27 -16 27 -11 0 -21 -4 -21 -10z"/>
<path fill="#000000" stroke="none" d="M303 73 c-17 -6 -17 -23 0 -23 8 0 14
7 14 15 0 8 -1 15 -1 14 -1 0 -7 -3 -13 -6z"/>
<path fill="#000000" stroke="none" d="M198 3 c7 -3 16 -2 19 1 4 3 -2 6 -13
5 -11 0 -14 -3 -6 -6z"/>
</g>
</svg>
