<?xml version="1.0" standalone="no"?>
<!DOCTYPE svg PUBLIC "-//W3C//DTD SVG 20010904//EN"
 "http://www.w3.org/TR/2001/REC-SVG-20010904/DTD/svg10.dtd">
<svg version="1.0" xmlns="http://www.w3.org/2000/svg"
 width="32.000000pt" height="32.000000pt" viewBox="0 0 32.000000 32.000000"
 preserveAspectRatio="xMidYMid meet">
<metadata>
Created by potrace 1.16, written by Peter Selinger 2001-2019
</metadata>
<g transform="translate(0.000000,32.000000) scale(0.100000,-0.100000)"
fill="#000000" stroke="none">
<path fill="#000000" stroke="none" d="M243 291 c-20 -34 -25 -36 -54 -21 -12
7 -19 7 -19 1 0 -6 9 -15 21 -22 17 -9 25 -7 45 11 12 13 22 27 21 33 -1 5 4
11 11 13 7 1 9 0 4 -2 -5 -3 -7 -16 -4 -30 5 -27 -24 -68 -41 -57 -6 4 -7 1
-2 -6 5 -9 -1 -12 -21 -9 -23 2 -30 9 -34 33 -6 36 -34 45 -50 15 -16 -29 -5
-54 20 -47 11 3 18 1 14 -4 -9 -16 -60 -10 -77 9 -20 22 -23 54 -4 46 7 -2 19
7 27 21 10 18 19 24 33 19 13 -4 17 -2 13 5 -12 18 -40 12 -55 -11 -12 -20
-14 -20 -26 -5 -12 16 -13 16 -26 0 -9 -11 -10 -14 -1 -9 6 4 12 3 12 -3 0 -5
-4 -11 -10 -13 -16 -5 31 -68 56 -73 13 -3 36 -7 50 -10 37 -8 23 -17 -33 -22
-61 -5 -83 -24 -64 -56 14 -22 14 -22 -7 -4 -22 20 -20 39 7 71 15 18 15 18
-5 8 -40 -21 -41 -85 -2 -98 25 -7 50 13 30 25 -22 13 -2 38 36 44 20 4 38 4
41 2 2 -3 -10 -21 -29 -40 -32 -33 -33 -36 -17 -53 9 -10 14 -22 10 -25 -3 -4
1 -7 10 -7 24 0 28 16 8 34 -9 9 -20 15 -22 14 -3 -2 4 5 14 14 11 10 23 18
27 18 7 0 19 -25 26 -52 1 -5 3 -11 4 -15 1 -5 2 -11 1 -15 -1 -11 27 -10 33
1 3 4 -2 15 -12 24 -31 28 -13 107 24 107 11 0 13 -10 9 -40 -4 -30 -1 -40 10
-40 20 0 29 18 31 68 2 30 -1 45 -12 49 -20 8 -18 21 12 56 17 20 22 32 14 37
-6 4 -10 13 -8 20 6 27 -23 20 -39 -9z"/>
<path fill="#ffffff" stroke="none" d="M256 175 c21 -16 19 -17 -25 -19 -16 0
-27 2 -24 7 2 4 -1 7 -7 7 -6 0 -8 5 -5 10 9 15 38 12 61 -5z"/>
<path fill="#ffffff" stroke="none" d="M270 126 c0 -3 -4 -8 -10 -11 -5 -3
-10 -1 -10 4 0 6 5 11 10 11 6 0 10 -2 10 -4z"/>
</g>
</svg>
