<?xml version="1.0" standalone="no"?>
<!DOCTYPE svg PUBLIC "-//W3C//DTD SVG 20010904//EN"
 "http://www.w3.org/TR/2001/REC-SVG-20010904/DTD/svg10.dtd">
<svg version="1.0" xmlns="http://www.w3.org/2000/svg"
 width="32.000000pt" height="32.000000pt" viewBox="0 0 32.000000 32.000000"
 preserveAspectRatio="xMidYMid meet">
<metadata>
Created by potrace 1.16, written by Peter Selinger 2001-2019
</metadata>
<g transform="translate(0.000000,32.000000) scale(0.100000,-0.100000)"
fill="#000000" stroke="none">
<path fill="#000000" stroke="none" d="M0 160 l0 -160 160 0 160 0 0 159 0
159 -160 1 -160 2 0 -161z"/>
<path fill="#ffffff" stroke="none" d="M146 299 c4 -7 0 -9 -13 -5 -14 5 -23
-1 -33 -19 -10 -18 -19 -24 -33 -19 -16 5 -18 2 -12 -18 7 -22 7 -23 -8 -3 -9
11 -11 22 -6 23 5 2 9 8 9 13 0 6 -6 7 -12 3 -9 -5 -8 -2 1 9 13 16 14 16 26
0 12 -15 14 -15 26 5 15 23 43 29 55 11z"/>
<path fill="#ffffff" stroke="none" d="M283 297 c-3 -5 -1 -12 5 -16 7 -4 3
-15 -9 -31 -19 -23 -19 -23 -9 -2 18 37 1 47 -30 17 -24 -23 -31 -25 -49 -16
-12 7 -21 16 -21 22 0 6 7 6 19 -1 29 -15 37 -13 48 13 6 13 19 23 31 23 11 0
18 -4 15 -9z"/>
<path fill="#ffffff" stroke="none" d="M165 240 c0 -15 -5 -24 -13 -22 -8 1
-11 -2 -7 -8 3 -5 -1 -10 -10 -10 -22 0 -29 24 -15 50 15 29 45 22 45 -10z"/>
<path fill="#ffffff" stroke="none" d="M190 189 c0 -12 -29 -24 -37 -16 -3 4
-3 13 0 21 6 16 37 11 37 -5z"/>
<path fill="#ffffff" stroke="none" d="M261 190 c23 -13 25 -33 4 -50 -8 -7
-15 -17 -15 -22 0 -6 7 -5 15 2 11 9 15 9 15 1 0 -22 -20 -51 -35 -51 -20 0
-13 54 9 79 16 17 15 19 -6 34 -26 18 -17 22 13 7z"/>
<path fill="#ffffff" stroke="none" d="M48 163 c-26 -31 -28 -50 -6 -70 21
-18 21 -18 8 4 -11 18 -12 24 -1 37 20 23 34 19 20 -5 -8 -17 -8 -23 1 -29 15
-9 4 -30 -15 -30 -7 0 -21 7 -30 16 -19 20 -13 62 12 82 24 17 29 15 11 -5z"/>
<path fill="#ffffff" stroke="none" d="M197 150 c2 -22 -31 -45 -49 -34 -7 4
-8 3 -4 -4 4 -7 -3 -17 -18 -24 -29 -12 -34 -28 -11 -28 8 0 15 -2 15 -4 0 -2
3 -11 6 -20 4 -11 1 -16 -12 -15 -11 0 -14 3 -6 6 8 3 5 10 -10 23 l-23 18 40
45 c22 25 47 47 55 50 8 2 15 5 15 6 1 0 1 -8 2 -19z"/>
<path fill="#ffffff" stroke="none" d="M190 91 c0 -11 -4 -22 -9 -25 -11 -7
-23 22 -15 35 9 16 24 10 24 -10z"/>
<path fill="#ffffff" stroke="none" d="M204 34 c8 -22 8 -24 -7 -24 -7 0 -13
9 -14 20 -2 24 12 27 21 4z"/>
</g>
</svg>
