<?xml version="1.0" standalone="no"?>
<!DOCTYPE svg PUBLIC "-//W3C//DTD SVG 20010904//EN"
 "http://www.w3.org/TR/2001/REC-SVG-20010904/DTD/svg10.dtd">
<svg version="1.0" xmlns="http://www.w3.org/2000/svg"
 width="32.000000pt" height="32.000000pt" viewBox="0 0 32.000000 32.000000"
 preserveAspectRatio="xMidYMid meet">
<metadata>
Created by potrace 1.16, written by Peter Selinger 2001-2019
</metadata>
<g transform="translate(0.000000,32.000000) scale(0.100000,-0.100000)"
fill="#000000" stroke="none">
<path fill="#000000" stroke="none" d="M0 160 l0 -160 160 0 160 0 0 160 0
160 -160 0 -160 0 0 -160z"/>
<path fill="#ffffff" stroke="none" d="M189 283 c-8 -10 -9 -14 -2 -10 6 4 15
2 19 -4 5 -8 3 -9 -6 -4 -10 6 -12 3 -7 -11 6 -15 3 -14 -13 5 -22 26 -27 16
-6 -11 17 -23 42 -23 58 1 9 12 19 17 27 12 9 -6 4 -15 -18 -34 -17 -14 -35
-27 -41 -29 -20 -6 0 -36 21 -31 26 7 24 -13 -2 -28 -15 -8 -18 -14 -10 -22 6
-6 11 -16 11 -21 0 -6 -7 -3 -15 7 -7 11 -12 24 -9 30 3 8 -7 12 -25 12 -19 0
-27 -3 -21 -9 10 -10 14 -56 6 -56 -2 0 -12 -3 -21 -7 -14 -5 -16 -3 -7 13 5
10 10 38 10 62 1 41 0 42 -21 27 -28 -20 -57 -19 -57 1 0 11 5 14 17 10 11 -5
26 3 44 24 15 16 24 30 19 30 -5 0 -6 7 -3 17 4 11 3 14 -5 9 -8 -4 -10 -2 -6
8 3 8 18 17 32 19 15 2 31 5 36 6 5 0 2 -7 -5 -16z"/>
<path fill="#ffffff" stroke="none" d="M124 228 c-3 -5 -12 -4 -20 3 -7 6 -11
15 -8 21 3 5 12 4 20 -3 7 -6 11 -15 8 -21z"/>
<path fill="#ffffff" stroke="none" d="M143 22 c8 -10 7 -12 -4 -10 -16 4 -29
29 -21 43 3 5 8 2 10 -5 3 -8 9 -21 15 -28z"/>
</g>
</svg>
