<?xml version="1.0" standalone="no"?>
<!DOCTYPE svg PUBLIC "-//W3C//DTD SVG 20010904//EN"
 "http://www.w3.org/TR/2001/REC-SVG-20010904/DTD/svg10.dtd">
<svg version="1.0" xmlns="http://www.w3.org/2000/svg"
 width="32.000000pt" height="32.000000pt" viewBox="0 0 32.000000 32.000000"
 preserveAspectRatio="xMidYMid meet">
<metadata>
Created by potrace 1.16, written by Peter Selinger 2001-2019
</metadata>
<g transform="translate(0.000000,32.000000) scale(0.100000,-0.100000)"
fill="#000000" stroke="none">
<path fill="#000000" stroke="none" d="M99 304 c-8 -9 -14 -40 -15 -68 -1 -47
-4 -52 -35 -68 -47 -25 -44 -43 9 -44 32 -1 47 4 56 18 8 11 17 15 20 10 3 -5
-5 -17 -19 -26 -14 -9 -25 -23 -25 -31 0 -11 28 -28 52 -30 18 -1 16 -12 -3
-11 -14 1 -23 -5 -25 -17 -3 -23 -14 -36 -14 -17 0 10 -4 10 -17 -1 -15 -12
-16 -12 -10 5 6 16 5 17 -8 6 -8 -7 -15 -8 -15 -3 0 15 22 32 35 27 7 -3 15
-1 19 4 9 15 -28 10 -46 -6 -47 -40 -3 -59 99 -43 139 23 138 22 141 65 3 33
1 37 -15 32 -10 -3 -24 -2 -31 3 -10 6 -10 10 3 21 19 16 19 44 0 60 -8 7 -15
18 -15 24 0 6 5 4 10 -4 5 -8 10 -10 11 -5 4 24 6 31 14 48 6 14 1 25 -21 43
-36 29 -133 34 -155 8z"/>
<path fill="#ffffff" stroke="none" d="M188 235 c-3 -3 -9 2 -12 12 -6 14 -5
15 5 6 7 -7 10 -15 7 -18z"/>
<path fill="#ffffff" stroke="none" d="M161 224 c10 -13 10 -17 -2 -25 -23
-14 -39 -10 -39 9 0 34 20 42 41 16z"/>
<path fill="#ffffff" stroke="none" d="M242 181 c12 -12 18 -26 15 -35 -7 -17
-37 -22 -37 -6 0 6 5 10 11 10 6 0 9 6 7 12 -6 18 -55 20 -62 2 -7 -18 -36
-19 -36 -1 0 7 15 18 33 24 46 15 46 15 69 -6z"/>
<path fill="#ffffff" stroke="none" d="M65 142 c-10 -11 -35 -10 -42 0 -3 6
-1 8 5 4 6 -3 13 -2 17 4 4 6 11 8 16 4 6 -3 8 -9 4 -12z"/>
<path fill="#ffffff" stroke="none" d="M184 125 c11 -8 15 -15 10 -15 -6 0
-16 6 -23 13 -11 10 -13 9 -8 -6 4 -11 3 -16 -3 -12 -12 7 -14 35 -2 35 4 0
16 -7 26 -15z"/>
<path fill="#ffffff" stroke="none" d="M183 69 c4 -16 3 -18 -9 -8 -16 13 -19
29 -5 29 5 0 11 -9 14 -21z"/>
<path fill="#ffffff" stroke="none" d="M243 67 c4 3 7 1 7 -5 0 -15 -6 -15
-31 -2 -10 6 -19 16 -19 22 0 6 8 4 18 -5 10 -10 22 -14 25 -10z"/>
</g>
</svg>
