<?xml version="1.0" standalone="no"?>
<!DOCTYPE svg PUBLIC "-//W3C//DTD SVG 20010904//EN"
 "http://www.w3.org/TR/2001/REC-SVG-20010904/DTD/svg10.dtd">
<svg version="1.0" xmlns="http://www.w3.org/2000/svg"
 width="32.000000pt" height="32.000000pt" viewBox="0 0 32.000000 32.000000"
 preserveAspectRatio="xMidYMid meet">
<metadata>
Created by potrace 1.16, written by Peter Selinger 2001-2019
</metadata>
<g transform="translate(0.000000,32.000000) scale(0.100000,-0.100000)"
fill="#000000" stroke="none">
<path fill="#000000" stroke="none" d="M99 304 c-8 -9 -14 -40 -15 -68 -1 -47
-4 -52 -35 -68 -47 -25 -44 -43 9 -44 32 -1 47 4 56 18 15 21 23 15 22 -16 -1
-11 -8 -22 -16 -24 -13 -5 -13 -3 0 13 12 15 13 17 1 14 -25 -9 -38 -38 -21
-49 14 -9 7 -15 -14 -11 -13 3 -46 -30 -46 -45 0 -21 43 -27 117 -15 138 23
138 23 141 63 3 39 10 36 -76 29 -10 -1 -10 -6 -2 -21 6 -11 15 -18 21 -15 5
4 9 0 9 -7 0 -10 3 -9 10 2 6 9 5 17 -1 21 -6 3 -1 9 10 12 18 4 21 1 21 -26
0 -24 -3 -28 -10 -17 -7 12 -10 12 -10 1 0 -8 -6 -11 -17 -6 -10 4 -22 8 -28
9 -22 4 -34 17 -28 31 3 8 0 15 -7 15 -7 0 -11 -9 -8 -23 3 -18 0 -23 -16 -24
-46 -1 -57 -3 -52 -11 2 -4 1 -14 -5 -22 -7 -12 -9 -12 -9 -1 0 11 -3 11 -17
0 -15 -12 -16 -12 -10 5 6 16 5 17 -8 6 -8 -7 -15 -8 -15 -3 0 15 22 32 36 26
7 -2 19 5 26 16 11 19 14 19 31 4 17 -16 18 -15 11 25 -4 23 -5 42 -3 42 2 0
22 -7 44 -14 35 -13 42 -12 57 1 20 18 24 48 8 58 -8 5 -8 11 0 20 6 7 10 17
9 21 -1 5 1 17 6 27 6 14 1 25 -21 43 -32 26 -77 33 -68 11 3 -8 -3 -20 -12
-28 -16 -13 -17 -12 -10 14 6 25 4 27 -23 27 -16 0 -35 -7 -42 -16z"/>
<path fill="#ffffff" stroke="none" d="M155 285 c0 -16 -5 -23 -12 -20 -21 8
-15 -19 8 -33 14 -9 18 -19 14 -32 -4 -12 -2 -20 5 -20 6 0 9 4 5 10 -3 5 3
18 15 30 11 11 16 20 11 20 -6 0 -13 -5 -17 -11 -5 -8 -10 -6 -16 5 -7 13 -2
24 20 47 25 26 31 28 42 14 7 -8 19 -15 26 -15 8 0 14 -7 14 -15 0 -8 -4 -15
-8 -15 -5 0 -17 -7 -28 -15 -10 -9 -13 -14 -5 -13 7 2 16 -3 18 -10 4 -9 -2
-10 -24 -2 l-28 10 25 -20 c14 -11 28 -20 33 -20 14 0 7 -41 -8 -47 -20 -7
-34 6 -17 16 10 6 10 11 -3 21 -16 13 -18 9 -16 -25 1 -17 -1 -17 -13 5 -9 14
-15 19 -16 13 0 -22 -40 -14 -50 10 -5 12 -9 16 -9 10 -1 -21 -17 -15 -17 6 0
11 3 18 7 15 4 -2 9 5 12 16 3 11 1 23 -4 26 -7 4 25 64 34 64 1 0 2 -11 2
-25z"/>
<path fill="#ffffff" stroke="none" d="M74 155 c-15 -23 -54 -36 -54 -17 0 6
14 14 68 41 1 0 -5 -10 -14 -24z"/>
<path fill="#ffffff" stroke="none" d="M110 156 c0 -3 -4 -8 -10 -11 -5 -3
-10 -1 -10 4 0 6 5 11 10 11 6 0 10 -2 10 -4z"/>
</g>
</svg>
