<?xml version="1.0" standalone="no"?>
<!DOCTYPE svg PUBLIC "-//W3C//DTD SVG 20010904//EN"
 "http://www.w3.org/TR/2001/REC-SVG-20010904/DTD/svg10.dtd">
<svg version="1.0" xmlns="http://www.w3.org/2000/svg"
 width="32.000000pt" height="32.000000pt" viewBox="0 0 32.000000 32.000000"
 preserveAspectRatio="xMidYMid meet">
<metadata>
Created by potrace 1.16, written by Peter Selinger 2001-2019
</metadata>
<g transform="translate(0.000000,32.000000) scale(0.100000,-0.100000)"
fill="#000000" stroke="none">
<path fill="#000000" stroke="none" d="M0 312 c0 -4 6 -14 13 -21 10 -11 10
-13 0 -7 -8 5 -13 1 -13 -9 0 -9 5 -13 10 -10 6 3 10 2 10 -4 0 -5 -5 -13 -10
-16 -14 -9 -13 -172 1 -181 6 -4 8 -19 5 -37 -6 -29 -6 -30 13 -13 14 13 21
14 27 5 5 -8 3 -10 -7 -4 -8 5 -11 4 -6 -1 11 -11 277 -13 277 -1 0 4 -4 5
-10 2 -5 -3 -18 -1 -27 5 -15 9 -15 11 -2 7 35 -11 54 43 22 62 -17 10 -17 10
-1 11 17 0 18 26 2 52 -4 7 -3 8 4 4 17 -10 16 76 0 93 -10 11 -10 13 0 7 8
-5 12 3 12 28 l0 36 -60 -1 c-45 -1 -60 -5 -63 -18 -4 -14 -5 -14 -6 1 -1 14
-12 16 -71 15 -39 -1 -70 -5 -70 -9 0 -4 -5 -8 -11 -8 -5 0 -7 5 -4 10 3 6 -3
10 -14 10 -12 0 -21 -4 -21 -8z"/>
<path fill="#ffffff" stroke="none" d="M85 300 c-3 -5 -12 -10 -18 -10 -7 0
-6 4 3 10 19 12 23 12 15 0z"/>
<path fill="#ffffff" stroke="none" d="M192 269 c3 -9 12 -7 31 6 15 9 25 20
23 24 -3 4 7 7 22 6 27 0 43 -27 23 -39 -5 -3 -7 3 -4 14 6 24 -9 26 -31 5 -8
-8 -18 -15 -22 -15 -4 0 -16 -7 -25 -16 -18 -16 -18 -18 3 -47 25 -35 34 -64
15 -48 -9 7 -13 0 -14 -25 -3 -54 -5 -60 -27 -60 -26 0 -36 13 -36 49 0 15 -5
27 -11 27 -5 0 -8 -4 -4 -9 3 -5 1 -12 -4 -15 -5 -3 -8 8 -7 26 1 17 8 34 14
36 7 2 9 9 5 15 -4 7 1 6 10 -2 19 -15 14 -31 -11 -31 -14 0 -14 -2 -3 -9 8
-5 21 -5 30 -1 9 5 25 11 35 15 18 5 18 6 -3 29 -13 14 -19 29 -15 39 3 10 1
17 -6 17 -6 0 -9 4 -5 10 3 5 -5 9 -17 8 -45 -2 -50 1 -36 16 11 12 17 12 40
0 14 -7 28 -19 30 -25z"/>
<path fill="#ffffff" stroke="none" d="M80 268 c0 -4 -7 -8 -15 -8 -8 0 -15 4
-15 8 0 5 7 9 15 9 8 0 15 -4 15 -9z"/>
<path fill="#ffffff" stroke="none" d="M110 250 c9 -16 8 -18 -5 -14 -8 4 -15
12 -15 20 0 20 7 17 20 -6z"/>
<path fill="#ffffff" stroke="none" d="M168 242 c-2 -8 -11 -16 -20 -18 -20
-3 -34 26 -17 37 18 11 40 -1 37 -19z"/>
<path fill="#ffffff" stroke="none" d="M235 238 c-4 -33 -4 -34 -15 -18 -5 9
-5 19 2 27 14 18 16 17 13 -9z"/>
<path fill="#ffffff" stroke="none" d="M290 229 c0 -5 -6 -8 -12 -6 -7 1 -11
-5 -10 -13 2 -8 0 -12 -4 -7 -4 4 -8 16 -9 26 -1 13 4 17 17 13 10 -2 18 -8
18 -13z"/>
<path fill="#ffffff" stroke="none" d="M26 203 c-10 -10 -19 5 -10 18 6 11 8
11 12 0 2 -7 1 -15 -2 -18z"/>
<path fill="#ffffff" stroke="none" d="M94 212 c2 -4 1 -14 -5 -22 -7 -13 -9
-13 -9 0 0 10 -7 7 -19 -10 -11 -13 -17 -28 -15 -32 3 -4 0 -8 -5 -8 -6 0 -11
7 -11 15 0 8 5 15 11 15 5 0 7 5 4 10 -4 6 -1 17 5 25 14 16 36 20 44 7z"/>
<path fill="#ffffff" stroke="none" d="M278 156 c-7 -8 -15 -12 -17 -11 -5 6
10 25 20 25 5 0 4 -6 -3 -14z"/>
<path fill="#ffffff" stroke="none" d="M104 147 c4 4 0 -8 -8 -27 -16 -39 -43
-51 -53 -23 -4 10 -11 21 -17 25 -7 5 -6 8 2 8 8 0 16 -9 19 -20 3 -11 11 -20
18 -20 18 0 26 41 12 59 -10 14 -10 14 4 4 9 -7 19 -10 23 -6z"/>
<path fill="#ffffff" stroke="none" d="M159 66 c9 -11 11 -16 4 -13 -6 4 -13
3 -15 -2 -1 -4 -13 -11 -25 -15 -22 -7 -22 -7 -5 33 9 22 19 35 21 28 2 -7 11
-21 20 -31z"/>
<path fill="#ffffff" stroke="none" d="M246 98 c4 -7 3 -8 -4 -4 -7 4 -12 2
-12 -5 0 -7 -3 -10 -6 -6 -6 5 3 27 11 27 2 0 7 -5 11 -12z"/>
<path fill="#ffffff" stroke="none" d="M206 41 c-3 -5 3 -11 14 -14 11 -3 20
-1 20 5 0 5 5 6 10 3 33 -20 -8 -30 -54 -12 -26 9 -27 12 -10 18 26 10 26 10
20 0z"/>
<path fill="#ffffff" stroke="none" d="M127 14 c-3 -3 -12 -4 -19 -1 -8 3 -5
6 6 6 11 1 17 -2 13 -5z"/>
<path fill="#000000" stroke="none" d="M165 150 c-3 -5 3 -10 15 -10 12 0 18
5 15 10 -3 6 -10 10 -15 10 -5 0 -12 -4 -15 -10z"/>
<path fill="#000000" stroke="none" d="M168 123 c7 -3 16 -2 19 1 4 3 -2 6
-13 5 -11 0 -14 -3 -6 -6z"/>
</g>
</svg>
