<?xml version="1.0" standalone="no"?>
<!DOCTYPE svg PUBLIC "-//W3C//DTD SVG 20010904//EN"
 "http://www.w3.org/TR/2001/REC-SVG-20010904/DTD/svg10.dtd">
<svg version="1.0" xmlns="http://www.w3.org/2000/svg"
 width="32.000000pt" height="32.000000pt" viewBox="0 0 32.000000 32.000000"
 preserveAspectRatio="xMidYMid meet">
<metadata>
Created by potrace 1.16, written by Peter Selinger 2001-2019
</metadata>
<g transform="translate(0.000000,32.000000) scale(0.100000,-0.100000)"
fill="#000000" stroke="none">
<path fill="#000000" stroke="none" d="M0 311 c0 -6 4 -12 9 -15 12 -8 25 -85
16 -94 -3 -3 -10 0 -15 8 -7 11 -10 2 -10 -28 0 -32 3 -41 12 -36 10 6 11 4 1
-7 -16 -16 -17 -65 -2 -75 6 -4 9 -19 5 -38 -3 -17 -2 -25 2 -19 5 8 18 10 32
7 14 -4 69 -7 124 -8 83 -1 103 1 122 17 27 21 32 55 9 63 -13 5 -13 8 0 21
12 11 12 19 4 35 -8 15 -8 19 0 14 16 -10 14 76 -1 93 -10 11 -10 13 0 7 8 -5
12 3 12 29 l0 36 -49 -2 c-34 -2 -48 -6 -44 -15 2 -6 -1 -15 -6 -19 -6 -3 -9
-11 -6 -16 4 -5 4 -9 1 -9 -3 0 -12 12 -19 27 -13 25 -20 27 -76 28 -33 1 -61
-3 -61 -8 0 -5 7 -6 16 -3 14 5 15 4 5 -8 -15 -18 -33 -15 -55 7 -20 19 -26
21 -26 8z"/>
<path fill="#ffffff" stroke="none" d="M193 268 c11 -11 26 -17 37 -13 19 6
60 -13 60 -27 0 -12 -24 -4 -37 12 -10 13 -14 13 -29 -2 -17 -17 -17 -18 1
-38 13 -14 27 -19 40 -16 26 7 29 -13 6 -34 -13 -13 -14 -12 -8 3 5 12 1 17
-13 17 -10 0 -22 5 -25 10 -4 6 -10 8 -15 5 -13 -8 11 -45 28 -45 7 0 15 -7
18 -15 4 -8 9 -13 13 -11 3 2 7 -6 8 -17 1 -12 4 -34 8 -50 5 -18 3 -27 -4
-27 -7 0 -10 4 -7 9 7 11 -15 67 -28 70 -5 2 -13 -3 -18 -11 -8 -10 -9 -10 -5
2 2 8 10 14 16 13 6 -2 11 2 11 7 0 17 -29 11 -39 -9 -6 -10 -8 -21 -5 -23 2
-3 -8 -5 -23 -4 -21 1 -29 7 -31 24 -5 35 -20 26 -43 -28 -12 -27 -25 -50 -30
-50 -16 0 40 103 68 126 26 21 27 24 11 40 -16 16 -18 15 -48 -10 -17 -14 -35
-26 -40 -26 -5 0 -15 -3 -24 -6 -11 -4 -16 -1 -16 10 0 9 5 16 11 16 5 0 7 -5
3 -11 -4 -7 2 -7 17 1 35 18 59 42 53 51 -3 5 -1 9 5 9 5 0 8 11 7 25 -2 14
-7 25 -12 25 -5 -1 -8 -8 -6 -16 2 -8 -2 -14 -8 -14 -17 0 -11 23 13 46 24 23
45 19 80 -18z"/>
<path fill="#ffffff" stroke="none" d="M298 288 c2 -9 -1 -19 -7 -22 -5 -3 -7
3 -4 14 6 24 -9 26 -31 5 -8 -8 -21 -15 -28 -15 -8 0 -6 5 5 11 9 6 15 14 13
18 -3 4 7 7 22 6 17 0 28 -6 30 -17z"/>
<path fill="#ffffff" stroke="none" d="M75 260 c-6 -19 19 -35 37 -23 7 3 8 1
4 -5 -10 -17 -23 -15 -46 8 -24 24 -26 37 -5 37 10 0 13 -6 10 -17z"/>
<path fill="#ffffff" stroke="none" d="M256 223 c17 -23 17 -33 0 -33 -18 0
-39 27 -31 40 9 14 16 13 31 -7z"/>
<path fill="#ffffff" stroke="none" d="M99 211 c11 -7 8 -13 -13 -26 -32 -21
-58 -7 -36 20 14 17 29 19 49 6z"/>
<path fill="#ffffff" stroke="none" d="M156 178 c4 -6 -1 -17 -11 -24 -23 -17
-29 -12 -20 15 7 23 20 27 31 9z"/>
<path fill="#ffffff" stroke="none" d="M231 163 c13 -16 12 -17 -3 -4 -10 7
-18 15 -18 17 0 8 8 3 21 -13z"/>
<path fill="#ffffff" stroke="none" d="M100 130 c-5 -9 -11 -29 -14 -45 -6
-31 -34 -67 -47 -59 -12 7 13 44 31 45 9 0 6 4 -7 9 -13 5 -23 16 -23 24 0 8
-6 17 -12 19 -10 4 -10 6 0 6 8 1 16 -8 19 -19 5 -20 33 -29 33 -11 0 5 3 17
6 25 5 12 2 15 -12 10 -13 -4 -15 -3 -6 3 22 16 42 12 32 -7z"/>
<path fill="#ffffff" stroke="none" d="M157 69 c12 -15 10 -18 -18 -28 -18 -6
-33 -11 -35 -11 -1 0 5 18 14 40 9 21 19 34 21 27 2 -7 10 -19 18 -28z"/>
<path fill="#ffffff" stroke="none" d="M227 33 c14 -17 14 -17 9 1 -6 16 -4
17 9 6 33 -27 5 -36 -55 -17 -37 11 -36 12 19 26 2 1 10 -7 18 -16z"/>
<path fill="#ffffff" stroke="none" d="M135 20 c-3 -5 -14 -10 -23 -9 -14 0
-13 2 3 9 27 11 27 11 20 0z"/>
<path fill="#000000" stroke="none" d="M136 278 c3 -5 10 -6 15 -3 13 9 11 12
-6 12 -8 0 -12 -4 -9 -9z"/>
<path fill="#000000" stroke="none" d="M166 271 c-3 -4 3 -16 13 -25 15 -14
21 -15 27 -4 4 7 4 10 -1 6 -10 -10 -37 11 -29 23 3 5 3 9 0 9 -3 0 -7 -4 -10
-9z"/>
</g>
</svg>
