<?xml version="1.0" standalone="no"?>
<!DOCTYPE svg PUBLIC "-//W3C//DTD SVG 20010904//EN"
 "http://www.w3.org/TR/2001/REC-SVG-20010904/DTD/svg10.dtd">
<svg version="1.0" xmlns="http://www.w3.org/2000/svg"
 width="32.000000pt" height="32.000000pt" viewBox="0 0 32.000000 32.000000"
 preserveAspectRatio="xMidYMid meet">
<metadata>
Created by potrace 1.16, written by Peter Selinger 2001-2019
</metadata>
<g transform="translate(0.000000,32.000000) scale(0.100000,-0.100000)"
fill="#000000" stroke="none">
<path fill="#000000" stroke="none" d="M180 295 c-6 -8 -10 -20 -7 -27 4 -8 6
-7 6 4 1 9 9 22 19 27 9 6 12 11 6 11 -6 0 -17 -7 -24 -15z"/>
<path fill="#000000" stroke="none" d="M248 303 c7 -3 16 -2 19 1 4 3 -2 6
-13 5 -11 0 -14 -3 -6 -6z"/>
<path fill="#000000" stroke="none" d="M115 140 c-3 -6 1 -7 9 -4 18 7 21 14
7 14 -6 0 -13 -4 -16 -10z"/>
<path fill="#000000" stroke="none" d="M139 103 c7 -14 8 -24 1 -28 -5 -3 -10
-12 -10 -18 0 -8 3 -7 9 2 7 11 9 11 13 0 3 -9 6 -7 10 6 3 12 -3 28 -15 40
-20 20 -20 20 -8 -2z"/>
</g>
</svg>
