<?xml version="1.0" standalone="no"?>
<!DOCTYPE svg PUBLIC "-//W3C//DTD SVG 20010904//EN"
 "http://www.w3.org/TR/2001/REC-SVG-20010904/DTD/svg10.dtd">
<svg version="1.0" xmlns="http://www.w3.org/2000/svg"
 width="32.000000pt" height="32.000000pt" viewBox="0 0 32.000000 32.000000"
 preserveAspectRatio="xMidYMid meet">
<metadata>
Created by potrace 1.16, written by Peter Selinger 2001-2019
</metadata>
<g transform="translate(0.000000,32.000000) scale(0.100000,-0.100000)"
fill="#000000" stroke="none">
<path fill="#000000" stroke="none" d="M20 256 c0 -25 7 -40 26 -55 l27 -21
-32 0 c-24 0 -31 -4 -31 -19 0 -33 27 -46 71 -34 38 10 48 6 30 -13 -11 -12
-21 -94 -11 -94 4 0 28 19 54 41 34 30 45 46 41 60 -7 23 3 24 29 4 26 -20 49
-19 69 3 22 24 21 42 -1 42 -31 0 -33 11 -7 32 18 14 25 29 25 54 0 41 -12 43
-60 10 -19 -12 -43 -22 -52 -20 -10 1 -18 -2 -18 -7 0 -4 -7 -6 -15 -3 -25 10
-17 25 11 20 22 -4 24 -3 13 10 -16 19 -65 15 -61 -6 2 -8 0 -12 -4 -8 -4 4
-12 3 -19 -2 -8 -7 -19 -2 -35 15 -33 35 -50 32 -50 -9z"/>
<path fill="#ffffff" stroke="none" d="M75 250 c22 -23 26 -33 17 -42 -21 -21
-62 6 -62 42 0 38 9 38 45 0z"/>
<path fill="#ffffff" stroke="none" d="M300 250 c0 -29 -33 -60 -44 -41 -7 11
3 21 18 15 6 -2 12 4 12 15 0 15 -4 17 -17 10 -30 -15 -35 -9 -10 11 32 27 41
25 41 -10z"/>
<path fill="#ffffff" stroke="none" d="M185 190 c-3 -5 -11 -10 -16 -10 -6 0
-7 5 -4 10 3 6 11 10 16 10 6 0 7 -4 4 -10z"/>
<path fill="#ffffff" stroke="none" d="M53 149 c4 -15 1 -19 -11 -17 -21 4
-29 38 -9 38 8 0 17 -9 20 -21z"/>
<path fill="#ffffff" stroke="none" d="M170 166 c0 -2 -7 -7 -16 -10 -8 -3
-12 -2 -9 4 6 10 25 14 25 6z"/>
<path fill="#ffffff" stroke="none" d="M299 154 c5 -5 -23 -29 -38 -32 -7 -1
-25 5 -40 15 l-26 17 25 7 c22 6 68 2 79 -7z"/>
</g>
</svg>
