<?xml version="1.0" standalone="no"?>
<!DOCTYPE svg PUBLIC "-//W3C//DTD SVG 20010904//EN"
 "http://www.w3.org/TR/2001/REC-SVG-20010904/DTD/svg10.dtd">
<svg version="1.0" xmlns="http://www.w3.org/2000/svg"
 width="32.000000pt" height="32.000000pt" viewBox="0 0 32.000000 32.000000"
 preserveAspectRatio="xMidYMid meet">
<metadata>
Created by potrace 1.16, written by Peter Selinger 2001-2019
</metadata>
<g transform="translate(0.000000,32.000000) scale(0.100000,-0.100000)"
fill="#000000" stroke="none">
<path fill="#000000" stroke="none" d="M20 256 c0 -25 7 -40 26 -55 l27 -21
-32 0 c-24 0 -31 -4 -31 -19 0 -33 27 -46 71 -34 21 6 39 7 39 2 0 -4 9 -10
20 -12 12 -3 10 -4 -7 -3 -26 1 -28 -3 -34 -44 -4 -25 -5 -47 -3 -49 7 -8 79
57 77 68 -2 6 3 10 10 8 7 -1 11 7 10 21 -3 26 4 27 31 7 26 -20 49 -19 69 3
22 24 21 42 -1 42 -31 0 -33 11 -7 32 18 14 25 29 25 54 0 41 -12 43 -62 9
-35 -24 -36 -24 -53 -5 -23 26 -57 25 -80 0 l-18 -20 -27 25 c-36 34 -50 32
-50 -9z"/>
<path fill="#ffffff" stroke="none" d="M75 250 c22 -23 26 -33 17 -42 -21 -21
-62 6 -62 42 0 38 9 38 45 0z"/>
<path fill="#ffffff" stroke="none" d="M300 250 c0 -19 -7 -33 -20 -40 -11 -6
-20 -7 -20 -3 0 4 -9 -3 -21 -16 -12 -12 -24 -19 -27 -16 -4 4 1 11 11 16 11
7 16 17 12 29 -4 12 3 25 21 39 36 28 44 27 44 -9z"/>
<path fill="#ffffff" stroke="none" d="M188 256 c16 -10 8 -61 -12 -81 -12
-12 -13 -21 -6 -35 16 -30 12 -35 -10 -10 -15 17 -17 27 -9 41 6 13 6 19 -1
19 -5 0 -9 3 -8 8 3 15 -14 42 -24 36 -6 -4 -6 2 1 14 11 20 44 24 69 8z"/>
<path fill="#ffffff" stroke="none" d="M85 170 c-3 -6 4 -10 16 -10 27 0 21
-9 -12 -16 -47 -11 -63 -9 -67 9 -2 10 3 17 12 17 9 0 16 -8 17 -17 0 -14 2
-15 6 -3 3 8 11 18 17 22 15 10 18 10 11 -2z"/>
<path fill="#ffffff" stroke="none" d="M299 154 c5 -5 -23 -29 -38 -32 -7 -1
-25 5 -40 15 l-26 17 25 7 c22 6 68 2 79 -7z"/>
<path fill="#ffffff" stroke="none" d="M153 93 c3 -5 -9 -21 -26 -38 -17 -16
-23 -20 -13 -9 13 17 14 23 4 27 -8 3 -5 6 7 7 l20 1 -20 9 c-19 8 -19 9 2 9
12 1 24 -2 26 -6z"/>
<path fill="#000000" stroke="none" d="M263 248 c-13 -6 -23 -15 -23 -21 0 -5
8 -3 17 4 15 12 16 12 10 -3 -4 -11 -2 -15 6 -12 7 2 13 13 13 24 0 11 0 20
-1 19 0 0 -10 -5 -22 -11z"/>
<path fill="#000000" stroke="none" d="M130 253 c0 -7 9 -18 19 -25 11 -7 17
-18 13 -27 -5 -14 -3 -14 11 -2 18 14 14 31 -8 31 -8 0 -19 8 -24 18 -6 9 -11
11 -11 5z"/>
</g>
</svg>
