<?xml version="1.0" standalone="no"?>
<!DOCTYPE svg PUBLIC "-//W3C//DTD SVG 20010904//EN"
 "http://www.w3.org/TR/2001/REC-SVG-20010904/DTD/svg10.dtd">
<svg version="1.0" xmlns="http://www.w3.org/2000/svg"
 width="32.000000pt" height="32.000000pt" viewBox="0 0 32.000000 32.000000"
 preserveAspectRatio="xMidYMid meet">
<metadata>
Created by potrace 1.16, written by Peter Selinger 2001-2019
</metadata>
<g transform="translate(0.000000,32.000000) scale(0.100000,-0.100000)"
fill="#000000" stroke="none">
<path fill="#000000" stroke="none" d="M144 291 c4 -6 0 -14 -10 -18 -10 -4
-19 -2 -22 5 -2 7 -11 12 -20 12 -12 0 -13 -3 -5 -11 8 -8 8 -18 1 -35 -8 -17
-8 -27 1 -38 19 -23 3 -38 -30 -31 -25 6 -29 4 -29 -15 0 -18 5 -21 38 -18 24
2 36 8 34 16 -1 8 2 11 8 7 5 -3 10 -15 10 -26 0 -13 4 -18 13 -13 7 4 8 3 4
-2 -5 -5 -15 -9 -24 -9 -9 0 -21 -8 -26 -17 -9 -13 -7 -22 7 -37 15 -17 16
-23 6 -36 -10 -12 -10 -15 2 -15 19 0 38 20 38 41 0 12 6 17 20 14 16 -3 20 2
21 23 2 24 2 24 6 4 2 -12 20 -33 39 -46 18 -12 31 -26 27 -29 -3 -4 1 -7 10
-7 23 0 21 22 -3 53 -11 14 -20 32 -20 40 0 8 -14 34 -31 58 l-32 44 29 -26
c32 -29 68 -44 84 -34 13 8 -10 44 -26 38 -6 -2 -22 10 -34 26 -13 19 -30 31
-44 31 -19 0 -23 5 -22 27 1 14 -5 28 -13 31 -8 3 -11 0 -7 -7z"/>
</g>
</svg>
