<?xml version="1.0" standalone="no"?>
<!DOCTYPE svg PUBLIC "-//W3C//DTD SVG 20010904//EN"
 "http://www.w3.org/TR/2001/REC-SVG-20010904/DTD/svg10.dtd">
<svg version="1.0" xmlns="http://www.w3.org/2000/svg"
 width="32.000000pt" height="32.000000pt" viewBox="0 0 32.000000 32.000000"
 preserveAspectRatio="xMidYMid meet">
<metadata>
Created by potrace 1.16, written by Peter Selinger 2001-2019
</metadata>
<g transform="translate(0.000000,32.000000) scale(0.100000,-0.100000)"
fill="#000000" stroke="none">
<path fill="#000000" stroke="none" d="M88 299 c-30 -17 -21 -32 15 -26 l32 6
-30 -14 -30 -14 33 -1 c20 0 31 -4 27 -10 -4 -6 -1 -19 7 -28 12 -15 11 -16
-4 -4 -23 18 -41 5 -34 -24 5 -17 2 -24 -8 -24 -21 0 -31 -21 -15 -31 17 -11
21 -11 36 -1 9 6 10 17 4 40 -6 18 -6 30 -2 27 5 -2 11 -19 15 -37 5 -27 1
-37 -25 -64 -21 -21 -30 -39 -27 -55 3 -23 7 -24 80 -24 67 0 80 3 101 24 16
14 31 20 39 16 10 -6 10 -5 1 5 -10 10 -20 11 -57 0 -52 -14 -75 -7 -53 18 8
10 20 34 28 54 10 31 10 40 -2 55 -13 17 -13 17 6 3 40 -28 46 -42 27 -57 -9
-8 -11 -11 -3 -7 10 5 13 3 8 -8 -4 -11 0 -15 11 -14 27 4 29 79 2 106 -11 11
-26 18 -32 14 -7 -4 -8 -3 -4 5 11 17 -24 26 -48 11 -17 -10 -19 -10 -8 1 40
42 -35 91 -90 58z"/>
<path fill="#000000" stroke="none" d="M40 165 c0 -8 7 -15 15 -15 8 0 15 7
15 15 0 8 -7 15 -15 15 -8 0 -15 -7 -15 -15z"/>
</g>
</svg>
