<?xml version="1.0" standalone="no"?>
<!DOCTYPE svg PUBLIC "-//W3C//DTD SVG 20010904//EN"
 "http://www.w3.org/TR/2001/REC-SVG-20010904/DTD/svg10.dtd">
<svg version="1.0" xmlns="http://www.w3.org/2000/svg"
 width="32.000000pt" height="32.000000pt" viewBox="0 0 32.000000 32.000000"
 preserveAspectRatio="xMidYMid meet">
<metadata>
Created by potrace 1.16, written by Peter Selinger 2001-2019
</metadata>
<g transform="translate(0.000000,32.000000) scale(0.100000,-0.100000)"
fill="#000000" stroke="none">
<path fill="#000000" stroke="none" d="M0 160 l0 -160 30 0 c22 0 28 4 24 15
-4 8 -1 15 5 15 7 0 10 20 8 53 -2 49 -4 52 -29 55 -27 3 -28 5 -28 68 0 62 1
64 25 64 18 0 25 5 25 19 0 12 8 21 23 24 12 2 -2 5 -30 6 l-53 1 0 -160z"/>
<path fill="#000000" stroke="none" d="M242 313 l67 -4 4 -42 4 -42 1 48 2 47
-72 -2 -73 -2 67 -3z"/>
<path fill="#000000" stroke="none" d="M110 301 c0 -5 7 -11 14 -14 10 -4 13
-1 9 9 -6 15 -23 19 -23 5z"/>
<path fill="#000000" stroke="none" d="M79 283 c-13 -16 -12 -17 4 -4 9 7 17
15 17 17 0 8 -8 3 -21 -13z"/>
<path fill="#000000" stroke="none" d="M43 235 c4 -5 0 -16 -9 -26 -21 -24
-14 -54 13 -55 13 -1 20 3 16 9 -3 5 -6 23 -5 38 0 16 -5 32 -11 35 -7 4 -9 3
-4 -1z"/>
<path fill="#000000" stroke="none" d="M242 213 c-6 -3 -9 -9 -6 -15 4 -6 10
-5 15 3 7 11 9 10 9 -4 0 -10 -7 -29 -16 -42 -18 -27 -12 -45 15 -45 21 0 41
19 41 38 0 11 -3 12 -13 3 -11 -9 -14 -5 -15 20 -1 35 -11 49 -30 42z"/>
<path fill="#000000" stroke="none" d="M313 170 c0 -25 2 -35 4 -22 2 12 2 32
0 45 -2 12 -4 2 -4 -23z"/>
<path fill="#000000" stroke="none" d="M312 90 c0 -14 2 -19 5 -12 2 6 2 18 0
25 -3 6 -5 1 -5 -13z"/>
<path fill="#000000" stroke="none" d="M161 66 c-10 -12 -8 -17 8 -25 28 -15
38 -14 16 2 -10 8 -15 19 -11 25 10 17 1 15 -13 -2z"/>
</g>
</svg>
