<?xml version="1.0" standalone="no"?>
<!DOCTYPE svg PUBLIC "-//W3C//DTD SVG 20010904//EN"
 "http://www.w3.org/TR/2001/REC-SVG-20010904/DTD/svg10.dtd">
<svg version="1.0" xmlns="http://www.w3.org/2000/svg"
 width="32.000000pt" height="32.000000pt" viewBox="0 0 32.000000 32.000000"
 preserveAspectRatio="xMidYMid meet">
<metadata>
Created by potrace 1.16, written by Peter Selinger 2001-2019
</metadata>
<g transform="translate(0.000000,32.000000) scale(0.100000,-0.100000)"
fill="#000000" stroke="none">
<path fill="#000000" stroke="none" d="M0 160 l0 -160 34 0 c19 0 38 5 42 12
4 7 3 8 -5 4 -16 -10 -3 43 15 65 18 20 18 29 0 29 -17 0 -29 27 -15 36 6 3 8
12 5 20 -3 9 0 11 11 7 11 -4 14 -3 9 5 -4 7 -4 22 -1 33 6 17 9 19 16 8 5 -8
8 -21 8 -29 0 -10 -3 -9 -10 5 -8 18 -9 17 -5 -4 3 -15 -1 -29 -11 -36 -9 -7
-13 -17 -9 -24 10 -16 47 5 40 23 -3 8 -1 23 5 34 12 22 -3 39 -53 60 -26 12
-27 14 -14 34 8 12 21 24 29 26 8 2 5 -3 -6 -11 -23 -18 -14 -33 12 -22 10 5
26 7 36 6 27 -3 16 23 -13 30 -14 4 -46 7 -72 8 l-48 1 0 -160z"/>
<path fill="#000000" stroke="none" d="M184 308 c3 -7 9 -21 12 -30 4 -10 12
-18 19 -18 7 0 17 -6 23 -13 8 -10 6 -16 -9 -25 -17 -11 -18 -16 -8 -28 7 -8
19 -12 28 -9 10 4 8 -2 -7 -18 -23 -24 -30 -57 -12 -57 6 0 10 -7 10 -16 0
-10 -6 -14 -14 -11 -8 3 -20 -1 -28 -10 -12 -15 -9 -16 22 -8 19 5 49 8 66 9
l31 0 1 123 1 123 -70 0 c-53 0 -69 -3 -65 -12z"/>
<path fill="#ffffff" stroke="none" d="M288 185 c-2 -12 -7 -7 -15 16 -12 30
-11 32 3 17 9 -8 14 -23 12 -33z"/>
<path fill="#000000" stroke="none" d="M162 275 c7 -16 15 -22 21 -16 13 13 1
41 -17 41 -13 0 -14 -4 -4 -25z"/>
<path fill="#000000" stroke="none" d="M95 260 c-18 -8 -17 -9 7 -9 15 -1 30
4 33 9 7 12 -12 12 -40 0z"/>
<path fill="#000000" stroke="none" d="M141 236 c-8 -10 -9 -16 -1 -21 6 -3 8
-11 5 -16 -12 -19 -14 -50 -3 -43 8 5 9 1 5 -12 -7 -18 -7 -18 8 0 8 11 13 27
10 37 -6 17 29 68 40 58 3 -4 -1 -14 -10 -22 -16 -17 -19 -27 -7 -27 4 0 15
14 24 30 16 28 16 30 1 30 -9 0 -28 -10 -41 -22 l-24 -23 6 23 c8 25 4 28 -13
8z"/>
<path fill="#000000" stroke="none" d="M175 163 c0 -13 7 -28 15 -33 12 -8 9
-15 -18 -43 -37 -38 -40 -52 -13 -66 23 -13 71 0 107 28 30 23 22 26 -25 10
-17 -6 -39 -8 -47 -5 -15 6 -15 8 -1 24 9 9 16 31 15 47 0 17 1 36 3 44 2 8
-5 14 -16 15 -16 2 -21 -3 -20 -21z"/>
<path fill="#000000" stroke="none" d="M122 104 c-43 -36 -46 -54 -11 -54 11
0 17 5 14 10 -3 6 0 10 8 10 7 0 23 11 36 23 18 20 19 26 8 35 -11 9 -23 4
-55 -24z"/>
<path fill="#ffffff" stroke="none" d="M140 106 c0 -2 -8 -10 -17 -17 -16 -13
-17 -12 -4 4 13 16 21 21 21 13z"/>
<path fill="#000000" stroke="none" d="M98 33 c6 -2 18 -2 25 0 6 3 1 5 -13 5
-14 0 -19 -2 -12 -5z"/>
</g>
</svg>
