<?xml version="1.0" standalone="no"?>
<!DOCTYPE svg PUBLIC "-//W3C//DTD SVG 20010904//EN"
 "http://www.w3.org/TR/2001/REC-SVG-20010904/DTD/svg10.dtd">
<svg version="1.0" xmlns="http://www.w3.org/2000/svg"
 width="32.000000pt" height="32.000000pt" viewBox="0 0 32.000000 32.000000"
 preserveAspectRatio="xMidYMid meet">
<metadata>
Created by potrace 1.16, written by Peter Selinger 2001-2019
</metadata>
<g transform="translate(0.000000,32.000000) scale(0.100000,-0.100000)"
fill="#000000" stroke="none">
<path fill="#000000" stroke="none" d="M83 313 c-15 -3 -23 -12 -23 -24 0 -14
-7 -19 -25 -19 -24 0 -25 -2 -25 -64 0 -63 1 -65 28 -68 25 -3 27 -7 29 -53 2
-27 -2 -52 -9 -56 -6 -4 -7 -12 -4 -18 5 -7 52 -11 136 -11 l128 0 -4 152 c-3
84 -6 153 -7 154 -6 4 -205 10 -224 7z"/>
<path fill="#ffffff" stroke="none" d="M133 296 c4 -10 1 -13 -9 -9 -7 3 -14
9 -14 14 0 14 17 10 23 -5z"/>
<path fill="#ffffff" stroke="none" d="M100 296 c0 -2 -8 -10 -17 -17 -16 -13
-17 -12 -4 4 13 16 21 21 21 13z"/>
<path fill="#ffffff" stroke="none" d="M63 188 c3 -30 0 -35 -17 -34 -26 1
-33 32 -12 55 9 10 14 20 13 23 -2 3 0 2 5 -2 5 -3 10 -22 11 -42z"/>
<path fill="#ffffff" stroke="none" d="M168 210 c-7 -10 -14 -17 -17 -15 -4 4
18 35 25 35 2 0 -1 -9 -8 -20z"/>
<path fill="#ffffff" stroke="none" d="M272 171 c1 -25 4 -29 15 -20 10 9 13
8 13 -3 0 -19 -20 -38 -41 -38 -27 0 -33 18 -15 45 9 13 16 32 16 42 0 14 -2
15 -9 4 -5 -8 -11 -9 -15 -3 -7 12 16 23 27 12 5 -4 9 -21 9 -39z"/>
<path fill="#ffffff" stroke="none" d="M160 176 c0 -3 -4 -8 -10 -11 -5 -3
-10 -1 -10 4 0 6 5 11 10 11 6 0 10 -2 10 -4z"/>
<path fill="#ffffff" stroke="none" d="M174 68 c-4 -6 1 -17 11 -25 22 -16 12
-17 -16 -2 -16 8 -18 13 -8 25 14 17 23 19 13 2z"/>
</g>
</svg>
