<?xml version="1.0" standalone="no"?>
<!DOCTYPE svg PUBLIC "-//W3C//DTD SVG 20010904//EN"
 "http://www.w3.org/TR/2001/REC-SVG-20010904/DTD/svg10.dtd">
<svg version="1.0" xmlns="http://www.w3.org/2000/svg"
 width="32.000000pt" height="32.000000pt" viewBox="0 0 32.000000 32.000000"
 preserveAspectRatio="xMidYMid meet">
<metadata>
Created by potrace 1.16, written by Peter Selinger 2001-2019
</metadata>
<g transform="translate(0.000000,32.000000) scale(0.100000,-0.100000)"
fill="#000000" stroke="none">
<path fill="#000000" stroke="none" d="M84 296 c-28 -21 -13 -28 34 -18 33 8
42 7 47 -6 4 -11 9 -12 16 -5 16 16 0 36 -22 30 -11 -3 -19 -1 -19 4 0 14 -34
11 -56 -5z"/>
<path fill="#000000" stroke="none" d="M95 260 c-18 -8 -17 -9 7 -9 15 -1 30
4 33 9 7 12 -12 12 -40 0z"/>
<path fill="#000000" stroke="none" d="M141 236 c-9 -10 -9 -16 -1 -21 6 -4
14 -4 17 -1 3 3 14 1 25 -5 24 -13 58 15 39 34 -8 8 -19 7 -41 -6 -25 -15 -29
-16 -24 -2 8 19 0 19 -15 1z"/>
<path fill="#000000" stroke="none" d="M105 210 c-3 -6 -3 -19 0 -30 5 -14 2
-20 -9 -20 -18 0 -20 -8 -7 -29 8 -12 12 -12 25 -2 11 9 13 19 5 37 -11 32
-12 31 5 31 8 0 11 -8 8 -20 -3 -12 2 -23 12 -29 15 -9 12 -14 -23 -45 -42
-36 -45 -53 -10 -53 11 0 17 4 14 10 -3 5 0 10 8 10 21 0 59 44 47 56 -6 6 -3
10 9 10 23 0 15 -19 -23 -55 -31 -30 -32 -37 -5 -51 16 -9 28 -8 54 4 18 9 38
16 43 16 6 0 13 4 16 9 3 5 -14 3 -39 -4 -47 -15 -62 -8 -46 22 30 53 42 85
30 77 -9 -5 -11 -2 -6 9 6 17 -28 45 -40 33 -3 -3 -18 1 -34 9 -18 10 -30 11
-34 5z"/>
<path fill="#ffffff" stroke="none" d="M140 106 c0 -2 -8 -10 -17 -17 -16 -13
-17 -12 -4 4 13 16 21 21 21 13z"/>
<path fill="#000000" stroke="none" d="M226 212 c-5 -8 46 -62 58 -62 14 0 4
31 -16 50 -23 22 -34 25 -42 12z"/>
<path fill="#000000" stroke="none" d="M40 165 c0 -9 6 -12 15 -9 8 4 15 10
15 15 0 5 -7 9 -15 9 -8 0 -15 -7 -15 -15z"/>
<path fill="#000000" stroke="none" d="M244 128 c-5 -7 -3 -8 6 -3 10 6 12 4
7 -9 -6 -14 -3 -15 13 -6 11 6 20 15 20 20 0 14 -37 12 -46 -2z"/>
<path fill="#000000" stroke="none" d="M98 33 c6 -2 18 -2 25 0 6 3 1 5 -13 5
-14 0 -19 -2 -12 -5z"/>
</g>
</svg>
