<?xml version="1.0" standalone="no"?>
<!DOCTYPE svg PUBLIC "-//W3C//DTD SVG 20010904//EN"
 "http://www.w3.org/TR/2001/REC-SVG-20010904/DTD/svg10.dtd">
<svg version="1.0" xmlns="http://www.w3.org/2000/svg"
 width="32.000000pt" height="32.000000pt" viewBox="0 0 32.000000 32.000000"
 preserveAspectRatio="xMidYMid meet">
<metadata>
Created by potrace 1.16, written by Peter Selinger 2001-2019
</metadata>
<g transform="translate(0.000000,32.000000) scale(0.100000,-0.100000)"
fill="#000000" stroke="none">
<path fill="#000000" stroke="none" d="M126 294 c-3 -8 -2 -12 4 -9 16 10 7
-39 -13 -68 -26 -38 -12 -49 18 -15 19 22 25 25 34 14 9 -10 8 -15 -4 -20 -10
-3 -13 -11 -9 -18 4 -7 3 -10 -1 -5 -11 9 -66 -43 -59 -55 3 -5 15 -2 25 8 18
16 19 16 19 0 0 -10 -5 -26 -10 -37 -11 -19 -4 -24 16 -11 15 9 21 43 11 58
-4 7 3 14 19 17 16 3 24 0 21 -7 -3 -7 1 -20 8 -30 8 -10 11 -25 8 -34 -5 -12
-2 -14 11 -9 10 4 20 7 24 7 3 0 -7 13 -22 29 -28 29 -28 29 -7 40 26 15 28
35 2 28 -27 -7 -36 30 -10 43 10 6 30 21 44 34 19 18 22 25 11 29 -8 3 -16 -2
-19 -14 -3 -10 -14 -19 -24 -19 -10 0 -24 -5 -31 -12 -9 -9 -12 -7 -12 9 0 12
-4 25 -10 28 -5 3 -10 12 -10 18 0 8 3 7 9 -2 5 -8 14 -10 21 -6 9 6 11 4 5
-6 -6 -11 -5 -11 5 -2 19 17 3 33 -35 33 -20 0 -35 -6 -39 -16z"/>
<path fill="#000000" stroke="none" d="M60 185 c0 -9 5 -15 11 -13 6 2 11 8
11 13 0 5 -5 11 -11 13 -6 2 -11 -4 -11 -13z"/>
<path fill="#000000" stroke="none" d="M62 87 c-25 -27 -27 -40 -9 -55 10 -9
15 -1 23 34 6 24 10 44 9 44 -1 0 -11 -10 -23 -23z"/>
<path fill="#000000" stroke="none" d="M120 60 c-10 -30 -5 -50 13 -50 14 0
17 3 10 13 -6 6 -13 19 -16 27 -3 8 -6 13 -7 10z"/>
</g>
</svg>
