<?xml version="1.0" standalone="no"?>
<!DOCTYPE svg PUBLIC "-//W3C//DTD SVG 20010904//EN"
 "http://www.w3.org/TR/2001/REC-SVG-20010904/DTD/svg10.dtd">
<svg version="1.0" xmlns="http://www.w3.org/2000/svg"
 width="32.000000pt" height="32.000000pt" viewBox="0 0 32.000000 32.000000"
 preserveAspectRatio="xMidYMid meet">
<metadata>
Created by potrace 1.16, written by Peter Selinger 2001-2019
</metadata>
<g transform="translate(0.000000,32.000000) scale(0.100000,-0.100000)"
fill="#000000" stroke="none">
<path fill="#000000" stroke="none" d="M0 159 l0 -161 47 4 c36 2 49 8 51 21
2 10 -3 17 -12 17 -20 0 -21 20 -2 45 12 16 16 17 30 6 9 -7 13 -18 9 -24 -4
-6 -7 -23 -8 -38 -1 -27 -1 -27 67 -27 63 0 67 1 57 19 -7 13 -6 19 2 19 6 0
13 -8 16 -18 3 -11 15 -19 34 -20 l29 -2 0 160 0 160 -160 0 -160 0 0 -161z"/>
<path fill="#ffffff" stroke="none" d="M190 280 c26 -26 25 -38 -7 -74 -16
-17 -20 -24 -10 -17 10 8 17 9 17 3 0 -6 -8 -16 -17 -21 -10 -6 -12 -11 -5
-11 15 0 16 -30 1 -30 -5 0 -8 -4 -5 -9 3 -5 14 -7 24 -5 25 7 58 -49 38 -65
-18 -15 -40 11 -33 39 3 11 1 18 -4 14 -5 -3 -9 -12 -9 -20 0 -28 -27 -25 -59
6 -22 22 -25 30 -12 25 11 -3 22 -1 26 5 6 10 1 12 -49 14 -17 1 -31 7 -33 16
-4 12 -3 12 5 1 8 -11 14 -9 31 8 12 12 26 19 31 16 6 -4 7 1 3 11 -4 11 -3
15 5 10 7 -4 10 1 9 13 -1 16 -7 19 -27 16 -15 -3 -11 0 10 8 19 6 44 17 55
24 19 11 19 12 2 19 -11 4 -23 1 -30 -6 -9 -10 -9 -11 3 -5 10 6 12 5 5 -3 -5
-6 -28 -14 -49 -18 -46 -8 -43 6 8 37 39 24 51 24 76 -1z"/>
<path fill="#ffffff" stroke="none" d="M262 148 c-10 -10 -62 17 -62 31 0 19
15 19 42 -1 19 -13 26 -24 20 -30z"/>
<path fill="#ffffff" stroke="none" d="M40 145 c0 -8 -4 -15 -10 -15 -5 0 -10
7 -10 15 0 8 5 15 10 15 6 0 10 -7 10 -15z"/>
<path fill="#ffffff" stroke="none" d="M308 124 c4 -18 3 -18 -12 1 -15 19
-15 19 -16 1 0 -11 -3 -17 -6 -13 -11 10 5 39 19 35 6 -3 14 -13 15 -24z"/>
<path fill="#000000" stroke="none" d="M145 100 c3 -5 8 -10 11 -10 2 0 4 5 4
10 0 6 -5 10 -11 10 -5 0 -7 -4 -4 -10z"/>
</g>
</svg>
