<?xml version="1.0" standalone="no"?>
<!DOCTYPE svg PUBLIC "-//W3C//DTD SVG 20010904//EN"
 "http://www.w3.org/TR/2001/REC-SVG-20010904/DTD/svg10.dtd">
<svg version="1.0" xmlns="http://www.w3.org/2000/svg"
 width="32.000000pt" height="32.000000pt" viewBox="0 0 32.000000 32.000000"
 preserveAspectRatio="xMidYMid meet">
<metadata>
Created by potrace 1.16, written by Peter Selinger 2001-2019
</metadata>
<g transform="translate(0.000000,32.000000) scale(0.100000,-0.100000)"
fill="#000000" stroke="none">
<path fill="#000000" stroke="none" d="M30 315 c0 -2 14 -12 30 -20 17 -9 60
-45 96 -82 l66 -66 -5 -48 c-3 -26 -13 -60 -23 -74 l-16 -25 71 0 71 0 0 160
0 160 -145 0 c-80 0 -145 -2 -145 -5z"/>
<path fill="#000000" stroke="none" d="M0 149 l0 -149 68 0 c76 0 78 2 102 89
l11 41 -60 58 c-33 31 -73 69 -90 83 l-31 27 0 -149z"/>
</g>
</svg>
