<?xml version="1.0" standalone="no"?>
<!DOCTYPE svg PUBLIC "-//W3C//DTD SVG 20010904//EN"
 "http://www.w3.org/TR/2001/REC-SVG-20010904/DTD/svg10.dtd">
<svg version="1.0" xmlns="http://www.w3.org/2000/svg"
 width="32.000000pt" height="32.000000pt" viewBox="0 0 32.000000 32.000000"
 preserveAspectRatio="xMidYMid meet">
<metadata>
Created by potrace 1.16, written by Peter Selinger 2001-2019
</metadata>
<g transform="translate(0.000000,32.000000) scale(0.100000,-0.100000)"
fill="#000000" stroke="none">
<path fill="#000000" stroke="none" d="M0 240 c0 -62 3 -80 12 -74 10 6 11 4
1 -7 -8 -8 -13 -41 -13 -86 l0 -73 160 0 161 0 -3 158 -3 157 -157 3 -158 3 0
-81z"/>
<path fill="#ffffff" stroke="none" d="M251 237 c-10 -9 -11 -8 -5 6 3 10 9
15 12 12 3 -3 0 -11 -7 -18z"/>
<path fill="#ffffff" stroke="none" d="M226 198 c4 -7 4 -10 -1 -6 -4 4 -17 3
-29 -3 -20 -10 -20 -10 -2 5 24 19 23 19 32 4z"/>
<path fill="#ffffff" stroke="none" d="M81 133 c11 -15 11 -16 -1 -6 -11 10
-17 10 -29 0 -14 -11 -14 -10 -2 6 7 9 15 17 16 17 1 0 9 -8 16 -17z"/>
<path fill="#ffffff" stroke="none" d="M128 124 c6 3 13 2 16 -2 3 -5 -4 -9
-16 -8 -12 0 -23 8 -25 16 -4 12 -3 13 5 1 5 -7 14 -11 20 -7z"/>
</g>
</svg>
