<?xml version="1.0" standalone="no"?>
<!DOCTYPE svg PUBLIC "-//W3C//DTD SVG 20010904//EN"
 "http://www.w3.org/TR/2001/REC-SVG-20010904/DTD/svg10.dtd">
<svg version="1.0" xmlns="http://www.w3.org/2000/svg"
 width="32.000000pt" height="32.000000pt" viewBox="0 0 32.000000 32.000000"
 preserveAspectRatio="xMidYMid meet">
<metadata>
Created by potrace 1.16, written by Peter Selinger 2001-2019
</metadata>
<g transform="translate(0.000000,32.000000) scale(0.100000,-0.100000)"
fill="#000000" stroke="none">
<path fill="#000000" stroke="none" d="M135 310 c-3 -5 -3 -15 0 -20 4 -6 1
-9 -6 -8 -23 6 -28 -43 -18 -162 1 -8 6 -20 11 -27 5 -7 7 -16 4 -21 -11 -18
15 -72 35 -72 15 0 18 5 15 23 -32 149 -41 241 -22 230 5 -3 7 0 4 8 -3 8 1
20 9 27 7 7 13 18 13 23 0 12 -37 12 -45 -1z"/>
<path fill="#ffffff" stroke="none" d="M154 24 c3 -8 2 -12 -4 -9 -6 3 -10 10
-10 16 0 14 7 11 14 -7z"/>
</g>
</svg>
