<?xml version="1.0" standalone="no"?>
<!DOCTYPE svg PUBLIC "-//W3C//DTD SVG 20010904//EN"
 "http://www.w3.org/TR/2001/REC-SVG-20010904/DTD/svg10.dtd">
<svg version="1.0" xmlns="http://www.w3.org/2000/svg"
 width="32.000000pt" height="32.000000pt" viewBox="0 0 32.000000 32.000000"
 preserveAspectRatio="xMidYMid meet">
<metadata>
Created by potrace 1.16, written by Peter Selinger 2001-2019
</metadata>
<g transform="translate(0.000000,32.000000) scale(0.100000,-0.100000)"
fill="#000000" stroke="none">
<path fill="#000000" stroke="none" d="M45 294 c14 -15 25 -33 25 -40 0 -8 3
-13 8 -12 13 5 52 -28 44 -37 -4 -5 -1 -5 7 0 7 4 29 8 49 9 20 1 37 7 38 14
1 7 0 8 -3 2 -2 -5 -9 -10 -15 -10 -6 0 -3 9 7 20 10 11 22 17 28 13 5 -3 7
-1 4 4 -4 6 3 19 16 29 21 19 21 19 7 -1 -11 -16 -11 -18 0 -8 8 7 15 20 16
28 2 13 -17 15 -126 15 l-129 0 24 -26z"/>
<path fill="#000000" stroke="none" d="M276 250 c-83 -109 -166 -108 -247 3
l-29 40 0 -146 0 -147 160 0 160 0 0 150 c0 83 -1 150 -3 150 -2 0 -20 -23
-41 -50z"/>
</g>
</svg>
