<?xml version="1.0" standalone="no"?>
<!DOCTYPE svg PUBLIC "-//W3C//DTD SVG 20010904//EN"
 "http://www.w3.org/TR/2001/REC-SVG-20010904/DTD/svg10.dtd">
<svg version="1.0" xmlns="http://www.w3.org/2000/svg"
 width="32.000000pt" height="32.000000pt" viewBox="0 0 32.000000 32.000000"
 preserveAspectRatio="xMidYMid meet">
<metadata>
Created by potrace 1.16, written by Peter Selinger 2001-2019
</metadata>
<g transform="translate(0.000000,32.000000) scale(0.100000,-0.100000)"
fill="#000000" stroke="none">
<path fill="#000000" stroke="none" d="M0 160 l0 -160 69 0 c42 0 73 5 77 12
4 6 3 8 -3 5 -11 -7 -28 22 -38 63 -5 19 -4 22 4 10 7 -9 11 -10 11 -3 0 6 -5
15 -10 18 -21 13 0 57 52 107 29 29 56 51 61 50 4 -1 7 2 7 8 0 12 55 41 64
33 3 -4 6 -1 6 5 0 9 -42 12 -150 12 l-150 0 0 -160z"/>
<path fill="#000000" stroke="none" d="M259 246 c-25 -19 -49 -41 -52 -49 -3
-8 -20 -25 -38 -38 -18 -12 -29 -18 -25 -11 5 8 2 10 -9 5 -12 -4 -13 -8 -5
-13 7 -4 9 -13 6 -19 -4 -6 -2 -11 4 -11 6 0 10 -6 9 -12 -1 -7 6 -32 15 -55
l18 -43 69 0 69 0 0 140 c0 77 -3 140 -7 140 -5 0 -29 -16 -54 -34z"/>
<path fill="#000000" stroke="none" d="M204 249 c-4 -7 -3 -9 4 -5 5 3 13 0
15 -6 4 -9 6 -10 6 -1 1 17 -16 25 -25 12z"/>
<path fill="#000000" stroke="none" d="M171 206 c-9 -11 -9 -16 1 -22 7 -4 10
-4 6 1 -4 4 -3 14 3 22 6 7 9 13 6 13 -2 0 -10 -6 -16 -14z"/>
</g>
</svg>
