<?xml version="1.0" standalone="no"?>
<!DOCTYPE svg PUBLIC "-//W3C//DTD SVG 20010904//EN"
 "http://www.w3.org/TR/2001/REC-SVG-20010904/DTD/svg10.dtd">
<svg version="1.0" xmlns="http://www.w3.org/2000/svg"
 width="32.000000pt" height="32.000000pt" viewBox="0 0 32.000000 32.000000"
 preserveAspectRatio="xMidYMid meet">
<metadata>
Created by potrace 1.16, written by Peter Selinger 2001-2019
</metadata>
<g transform="translate(0.000000,32.000000) scale(0.100000,-0.100000)"
fill="#000000" stroke="none">
<path fill="#000000" stroke="none" d="M0 160 l0 -160 143 0 c101 0 147 4 156
13 11 10 12 9 6 -2 -5 -9 -4 -12 3 -7 8 5 12 56 12 162 l0 154 -81 0 c-61 0
-79 -3 -73 -12 6 -10 4 -10 -7 0 -8 7 -41 12 -86 12 l-73 0 0 -160z"/>
<path fill="#ffffff" stroke="none" d="M139 266 c9 -10 7 -17 -6 -27 -16 -12
-17 -12 -6 2 10 12 10 18 1 27 -7 7 -9 12 -6 12 3 0 11 -6 17 -14z"/>
<path fill="#ffffff" stroke="none" d="M131 211 c-7 -5 -11 -13 -7 -19 3 -6 2
-13 -2 -16 -5 -3 -8 5 -7 17 3 28 3 27 18 27 9 0 8 -3 -2 -9z"/>
<path fill="#ffffff" stroke="none" d="M200 121 c7 -15 7 -22 -2 -27 -7 -4
-10 -4 -6 1 4 4 3 16 -3 26 -5 11 -7 19 -5 19 3 0 10 -9 16 -19z"/>
<path fill="#ffffff" stroke="none" d="M255 62 c-3 -3 -11 0 -18 7 -9 10 -8
11 6 5 10 -3 15 -9 12 -12z"/>
</g>
</svg>
