<?xml version="1.0" standalone="no"?>
<!DOCTYPE svg PUBLIC "-//W3C//DTD SVG 20010904//EN"
 "http://www.w3.org/TR/2001/REC-SVG-20010904/DTD/svg10.dtd">
<svg version="1.0" xmlns="http://www.w3.org/2000/svg"
 width="32.000000pt" height="32.000000pt" viewBox="0 0 32.000000 32.000000"
 preserveAspectRatio="xMidYMid meet">
<metadata>
Created by potrace 1.16, written by Peter Selinger 2001-2019
</metadata>
<g transform="translate(0.000000,32.000000) scale(0.100000,-0.100000)"
fill="#000000" stroke="none">
<path fill="#000000" stroke="none" d="M46 298 c10 -13 38 -42 62 -65 28 -26
41 -46 36 -54 -4 -7 -3 -10 3 -6 6 4 47 -29 92 -73 l81 -79 0 149 0 150 -147
0 -146 0 19 -22z"/>
<path fill="#000000" stroke="none" d="M7 293 c-4 -3 -7 -71 -7 -150 l0 -143
139 0 c117 0 139 2 137 15 -1 8 -6 18 -11 22 -4 5 -4 2 0 -6 5 -8 -6 -5 -24 8
-18 13 -30 29 -27 36 2 7 -10 26 -27 41 l-32 29 30 -35 30 -34 -43 37 c-85 75
-163 160 -158 173 6 15 3 18 -7 7z"/>
<path fill="#000000" stroke="none" d="M45 251 c-3 -5 0 -13 6 -17 7 -4 9 -3
5 4 -3 5 0 13 6 15 9 4 10 6 1 6 -6 1 -14 -3 -18 -8z"/>
<path fill="#000000" stroke="none" d="M80 217 c0 -2 6 -10 14 -16 11 -9 16
-9 22 1 4 7 4 10 -1 6 -4 -4 -14 -3 -22 3 -7 6 -13 9 -13 6z"/>
<path fill="#000000" stroke="none" d="M226 58 c3 -5 10 -6 15 -3 13 9 11 12
-6 12 -8 0 -12 -4 -9 -9z"/>
</g>
</svg>
