<?xml version="1.0" standalone="no"?>
<!DOCTYPE svg PUBLIC "-//W3C//DTD SVG 20010904//EN"
 "http://www.w3.org/TR/2001/REC-SVG-20010904/DTD/svg10.dtd">
<svg version="1.0" xmlns="http://www.w3.org/2000/svg"
 width="32.000000pt" height="32.000000pt" viewBox="0 0 32.000000 32.000000"
 preserveAspectRatio="xMidYMid meet">
<metadata>
Created by potrace 1.16, written by Peter Selinger 2001-2019
</metadata>
<g transform="translate(0.000000,32.000000) scale(0.100000,-0.100000)"
fill="#000000" stroke="none">
<path fill="#000000" stroke="none" d="M256 274 c-16 -25 -39 -52 -53 -61 -23
-16 -78 -83 -55 -69 8 5 10 2 5 -9 -4 -12 -8 -13 -13 -5 -4 7 -13 9 -19 6 -6
-4 -11 -2 -11 4 0 6 -6 10 -12 9 -7 -2 -30 5 -52 14 -47 21 -46 21 -46 -2 0
-10 10 -25 22 -33 27 -17 92 -35 68 -18 -9 6 -10 10 -3 10 6 0 15 -5 18 -10
13 -21 57 0 107 52 29 29 51 56 50 61 -1 4 2 7 8 7 12 0 41 55 33 64 -4 3 -1
6 5 6 19 0 14 16 -6 17 -11 1 -29 -15 -46 -43z"/>
<path fill="#ffffff" stroke="none" d="M255 221 c3 -5 0 -13 -6 -17 -7 -4 -9
-3 -5 4 3 5 0 13 -6 15 -9 4 -10 6 -1 6 6 1 14 -3 18 -8z"/>
<path fill="#ffffff" stroke="none" d="M220 186 c0 -2 -6 -9 -14 -15 -11 -9
-16 -9 -22 0 -4 7 -3 9 4 5 6 -3 13 -2 17 4 6 10 15 14 15 6z"/>
</g>
</svg>
