<?xml version="1.0" standalone="no"?>
<!DOCTYPE svg PUBLIC "-//W3C//DTD SVG 20010904//EN"
 "http://www.w3.org/TR/2001/REC-SVG-20010904/DTD/svg10.dtd">
<svg version="1.0" xmlns="http://www.w3.org/2000/svg"
 width="32.000000pt" height="32.000000pt" viewBox="0 0 32.000000 32.000000"
 preserveAspectRatio="xMidYMid meet">
<metadata>
Created by potrace 1.16, written by Peter Selinger 2001-2019
</metadata>
<g transform="translate(0.000000,32.000000) scale(0.100000,-0.100000)"
fill="#000000" stroke="none">
<path fill="#000000" stroke="none" d="M2 163 l3 -158 158 -3 157 -3 0 81 c0
62 -3 80 -12 74 -10 -6 -10 -4 0 7 7 8 12 41 12 86 l0 73 -160 0 -161 0 3
-157z"/>
<path fill="#ffffff" stroke="none" d="M217 190 c4 -12 3 -13 -5 -1 -5 7 -14
11 -20 7 -6 -3 -13 -2 -16 2 -3 5 4 9 16 8 12 0 23 -8 25 -16z"/>
<path fill="#ffffff" stroke="none" d="M269 193 c14 11 14 10 2 -6 -10 -13
-17 -15 -27 -6 -8 6 -14 14 -14 17 0 3 5 1 12 -6 9 -9 15 -9 27 1z"/>
<path fill="#ffffff" stroke="none" d="M140 135 c0 -2 -9 -9 -19 -15 -14 -7
-22 -7 -27 2 -4 6 -3 8 2 5 6 -3 16 -2 24 4 17 10 20 11 20 4z"/>
<path fill="#ffffff" stroke="none" d="M73 75 c-3 -9 -8 -14 -10 -11 -3 3 -2
9 2 15 9 16 15 13 8 -4z"/>
</g>
</svg>
