<?xml version="1.0" standalone="no"?>
<!DOCTYPE svg PUBLIC "-//W3C//DTD SVG 20010904//EN"
 "http://www.w3.org/TR/2001/REC-SVG-20010904/DTD/svg10.dtd">
<svg version="1.0" xmlns="http://www.w3.org/2000/svg"
 width="32.000000pt" height="32.000000pt" viewBox="0 0 32.000000 32.000000"
 preserveAspectRatio="xMidYMid meet">
<metadata>
Created by potrace 1.16, written by Peter Selinger 2001-2019
</metadata>
<g transform="translate(0.000000,32.000000) scale(0.100000,-0.100000)"
fill="#000000" stroke="none">
<path fill="#000000" stroke="none" d="M65 223 c-34 -9 -65 -35 -65 -55 0 -12
5 -18 13 -14 6 2 37 12 67 22 30 9 58 22 62 28 5 7 8 7 8 -3 0 -7 6 -11 13 -8
8 3 14 -1 14 -8 0 -10 -5 -11 -18 -5 -15 9 -16 7 -6 -14 7 -14 14 -23 18 -21
3 2 5 -12 5 -30 -1 -19 -4 -35 -7 -35 -4 0 -9 -10 -12 -22 -2 -13 -8 -31 -12
-41 -5 -13 -2 -17 14 -17 12 0 20 3 19 8 0 4 1 14 5 22 35 94 35 129 -2 169
-31 33 -58 39 -80 19 -11 -10 -13 -10 -7 0 7 12 4 13 -29 5z"/>
</g>
</svg>
