<?xml version="1.0" standalone="no"?>
<!DOCTYPE svg PUBLIC "-//W3C//DTD SVG 20010904//EN"
 "http://www.w3.org/TR/2001/REC-SVG-20010904/DTD/svg10.dtd">
<svg version="1.0" xmlns="http://www.w3.org/2000/svg"
 width="32.000000pt" height="32.000000pt" viewBox="0 0 32.000000 32.000000"
 preserveAspectRatio="xMidYMid meet">
<metadata>
Created by potrace 1.16, written by Peter Selinger 2001-2019
</metadata>
<g transform="translate(0.000000,32.000000) scale(0.100000,-0.100000)"
fill="#000000" stroke="none">
<path fill="#000000" stroke="none" d="M22 288 c-15 -15 -16 -45 -1 -54 6 -3
8 -15 6 -26 -4 -15 -3 -17 9 -8 10 9 11 17 3 31 -5 11 -6 25 -2 32 19 31 9 49
-15 25z"/>
<path fill="#000000" stroke="none" d="M46 261 c-11 -17 18 -28 42 -16 l23 12
-23 7 c-31 8 -36 8 -42 -3z"/>
<path fill="#000000" stroke="none" d="M61 204 c0 -11 3 -14 6 -6 3 7 2 16 -1
19 -3 4 -6 -2 -5 -13z"/>
</g>
</svg>
