<?xml version="1.0" standalone="no"?>
<!DOCTYPE svg PUBLIC "-//W3C//DTD SVG 20010904//EN"
 "http://www.w3.org/TR/2001/REC-SVG-20010904/DTD/svg10.dtd">
<svg version="1.0" xmlns="http://www.w3.org/2000/svg"
 width="32.000000pt" height="32.000000pt" viewBox="0 0 32.000000 32.000000"
 preserveAspectRatio="xMidYMid meet">
<metadata>
Created by potrace 1.16, written by Peter Selinger 2001-2019
</metadata>
<g transform="translate(0.000000,32.000000) scale(0.100000,-0.100000)"
fill="#000000" stroke="none">
<path fill="#000000" stroke="none" d="M10 272 c0 -21 7 -47 15 -58 10 -13 13
-14 10 -3 -3 9 1 22 10 29 13 11 15 6 17 -36 l1 -49 7 50 c6 42 8 46 15 27 6
-18 10 -20 16 -10 13 19 11 88 -2 88 -6 0 -9 -7 -5 -15 3 -9 0 -15 -9 -15 -8
0 -12 6 -9 13 3 8 -2 14 -11 14 -9 0 -14 -6 -11 -14 3 -8 -2 -13 -14 -13 -13
0 -18 5 -14 15 4 8 1 15 -5 15 -6 0 -11 -17 -11 -38z"/>
<path fill="#ffffff" stroke="none" d="M50 266 c0 -3 -4 -8 -10 -11 -5 -3 -10
-1 -10 4 0 6 5 11 10 11 6 0 10 -2 10 -4z"/>
<path fill="#000000" stroke="none" d="M63 95 c0 -22 2 -30 4 -17 2 12 2 30 0
40 -3 9 -5 -1 -4 -23z"/>
</g>
</svg>
