<?xml version="1.0" standalone="no"?>
<!DOCTYPE svg PUBLIC "-//W3C//DTD SVG 20010904//EN"
 "http://www.w3.org/TR/2001/REC-SVG-20010904/DTD/svg10.dtd">
<svg version="1.0" xmlns="http://www.w3.org/2000/svg"
 width="32.000000pt" height="32.000000pt" viewBox="0 0 32.000000 32.000000"
 preserveAspectRatio="xMidYMid meet">
<metadata>
Created by potrace 1.16, written by Peter Selinger 2001-2019
</metadata>
<g transform="translate(0.000000,32.000000) scale(0.100000,-0.100000)"
fill="#000000" stroke="none">
<path fill="#000000" stroke="none" d="M10 272 c0 -21 7 -47 15 -58 13 -17 13
-15 4 19 -6 21 -7 47 -4 57 4 12 2 20 -4 20 -6 0 -11 -17 -11 -38z"/>
<path fill="#000000" stroke="none" d="M53 298 c4 -13 1 -18 -10 -18 -16 0
-16 -1 -1 -12 9 -7 18 -26 20 -43 3 -26 4 -24 9 12 3 27 0 48 -10 60 -13 17
-13 17 -8 1z"/>
<path fill="#000000" stroke="none" d="M95 261 c0 -27 3 -44 7 -38 10 16 10
87 1 87 -5 0 -8 -22 -8 -49z"/>
<path fill="#000000" stroke="none" d="M62 85 c0 -16 2 -22 5 -12 2 9 2 23 0
30 -3 6 -5 -1 -5 -18z"/>
</g>
</svg>
