<?xml version="1.0" standalone="no"?>
<!DOCTYPE svg PUBLIC "-//W3C//DTD SVG 20010904//EN"
 "http://www.w3.org/TR/2001/REC-SVG-20010904/DTD/svg10.dtd">
<svg version="1.0" xmlns="http://www.w3.org/2000/svg"
 width="32.000000pt" height="32.000000pt" viewBox="0 0 32.000000 32.000000"
 preserveAspectRatio="xMidYMid meet">
<metadata>
Created by potrace 1.16, written by Peter Selinger 2001-2019
</metadata>
<g transform="translate(0.000000,32.000000) scale(0.100000,-0.100000)"
fill="#000000" stroke="none">
<path fill="#000000" stroke="none" d="M47 289 c-29 -44 -33 -87 -9 -109 26
-25 28 -25 54 -1 16 16 19 27 14 55 -4 19 -15 45 -25 57 l-18 23 -16 -25z"/>
<path fill="#ffffff" stroke="none" d="M90 258 c0 -5 -5 -8 -11 -8 -5 0 -7 6
-4 13 4 6 0 4 -8 -6 -19 -23 -32 -5 -15 22 11 18 13 18 25 3 7 -9 13 -20 13
-24z"/>
<path fill="#ffffff" stroke="none" d="M100 232 c0 -5 -7 -9 -15 -9 -8 0 -12
4 -9 9 3 4 9 8 15 8 5 0 9 -4 9 -8z"/>
<path fill="#ffffff" stroke="none" d="M50 200 c0 -5 -4 -10 -10 -10 -5 0 -10
5 -10 10 0 6 5 10 10 10 6 0 10 -4 10 -10z"/>
<path fill="#000000" stroke="none" d="M48 93 c-8 -67 19 -115 33 -60 9 34 -1
97 -16 97 -7 0 -15 -16 -17 -37z"/>
</g>
</svg>
