<?xml version="1.0" standalone="no"?>
<!DOCTYPE svg PUBLIC "-//W3C//DTD SVG 20010904//EN"
 "http://www.w3.org/TR/2001/REC-SVG-20010904/DTD/svg10.dtd">
<svg version="1.0" xmlns="http://www.w3.org/2000/svg"
 width="32.000000pt" height="32.000000pt" viewBox="0 0 32.000000 32.000000"
 preserveAspectRatio="xMidYMid meet">
<metadata>
Created by potrace 1.16, written by Peter Selinger 2001-2019
</metadata>
<g transform="translate(0.000000,32.000000) scale(0.100000,-0.100000)"
fill="#000000" stroke="none">
<path fill="#000000" stroke="none" d="M47 289 c-29 -44 -33 -87 -8 -110 l21
-20 0 31 c0 20 -5 30 -15 30 -8 0 -15 4 -15 8 0 4 16 8 35 8 19 0 35 -4 35 -8
0 -4 -7 -8 -15 -8 -10 0 -15 -10 -15 -30 l0 -31 21 20 c17 16 20 27 15 55 -4
19 -15 45 -25 57 l-18 23 -16 -25z"/>
<path fill="#ffffff" stroke="none" d="M85 250 c-8 -13 -32 -13 -40 0 -3 5 0
18 7 29 12 19 12 19 26 0 7 -10 10 -24 7 -29z"/>
<path fill="#ffffff" stroke="none" d="M50 200 c0 -5 -4 -10 -10 -10 -5 0 -10
5 -10 10 0 6 5 10 10 10 6 0 10 -4 10 -10z"/>
<path fill="#ffffff" stroke="none" d="M100 200 c0 -5 -4 -10 -10 -10 -5 0
-10 5 -10 10 0 6 5 10 10 10 6 0 10 -4 10 -10z"/>
<path fill="#000000" stroke="none" d="M48 93 c-5 -44 3 -83 17 -83 16 0 23
43 15 86 -7 36 -8 35 -8 -19 1 -32 -2 -61 -6 -64 -7 -7 -9 21 -6 80 2 48 -6
48 -12 0z"/>
</g>
</svg>
