<?xml version="1.0" standalone="no"?>
<!DOCTYPE svg PUBLIC "-//W3C//DTD SVG 20010904//EN"
 "http://www.w3.org/TR/2001/REC-SVG-20010904/DTD/svg10.dtd">
<svg version="1.0" xmlns="http://www.w3.org/2000/svg"
 width="32.000000pt" height="32.000000pt" viewBox="0 0 32.000000 32.000000"
 preserveAspectRatio="xMidYMid meet">
<metadata>
Created by potrace 1.16, written by Peter Selinger 2001-2019
</metadata>
<g transform="translate(0.000000,32.000000) scale(0.100000,-0.100000)"
fill="#000000" stroke="none">
<path fill="#000000" stroke="none" d="M0 160 l0 -160 160 0 160 0 0 160 0
160 -110 0 -110 0 0 -84 c0 -47 -4 -87 -9 -90 -5 -3 -7 -15 -4 -25 7 -29 -16
-36 -40 -13 -16 17 -18 24 -8 36 10 12 8 22 -8 55 -12 22 -21 47 -21 56 0 21
39 58 55 51 8 -3 17 -1 20 4 4 6 -13 10 -39 10 l-46 0 0 -160z"/>
<path fill="#000000" stroke="none" d="M53 273 c-3 -10 -8 -22 -11 -27 -3 -5
0 -6 5 -3 11 7 25 47 17 47 -3 0 -7 -8 -11 -17z"/>
<path fill="#000000" stroke="none" d="M46 217 c3 -10 9 -15 12 -12 3 3 0 11
-7 18 -10 9 -11 8 -5 -6z"/>
<path fill="#000000" stroke="none" d="M70 170 c6 -11 13 -20 16 -20 2 0 0 9
-6 20 -6 11 -13 20 -16 20 -2 0 0 -9 6 -20z"/>
<path fill="#000000" stroke="none" d="M40 131 c0 -10 22 -31 32 -31 17 0 7
28 -12 33 -11 3 -20 2 -20 -2z"/>
</g>
</svg>
