<?xml version="1.0" standalone="no"?>
<!DOCTYPE svg PUBLIC "-//W3C//DTD SVG 20010904//EN"
 "http://www.w3.org/TR/2001/REC-SVG-20010904/DTD/svg10.dtd">
<svg version="1.0" xmlns="http://www.w3.org/2000/svg"
 width="32.000000pt" height="32.000000pt" viewBox="0 0 32.000000 32.000000"
 preserveAspectRatio="xMidYMid meet">
<metadata>
Created by potrace 1.16, written by Peter Selinger 2001-2019
</metadata>
<g transform="translate(0.000000,32.000000) scale(0.100000,-0.100000)"
fill="#000000" stroke="none">
<path fill="#000000" stroke="none" d="M0 160 l0 -160 160 0 160 0 0 160 0
160 -110 0 -110 0 0 -84 c0 -87 -12 -115 -45 -102 -17 6 -20 -4 -5 -22 5 -7 3
-6 -6 2 -17 15 -10 41 7 30 6 -3 -1 17 -15 45 -31 61 -32 75 -6 101 30 30 43
25 25 -10 -8 -16 -15 -36 -15 -44 0 -21 32 -86 42 -86 4 0 -2 20 -14 44 l-21
44 20 41 20 41 -43 0 -44 0 0 -160z"/>
</g>
</svg>
