<?xml version="1.0" standalone="no"?>
<!DOCTYPE svg PUBLIC "-//W3C//DTD SVG 20010904//EN"
 "http://www.w3.org/TR/2001/REC-SVG-20010904/DTD/svg10.dtd">
<svg version="1.0" xmlns="http://www.w3.org/2000/svg"
 width="32.000000pt" height="32.000000pt" viewBox="0 0 32.000000 32.000000"
 preserveAspectRatio="xMidYMid meet">
<metadata>
Created by potrace 1.16, written by Peter Selinger 2001-2019
</metadata>
<g transform="translate(0.000000,32.000000) scale(0.100000,-0.100000)"
fill="#000000" stroke="none">
<path fill="#000000" stroke="none" d="M79 300 c-29 -44 -31 -67 -9 -109 11
-23 18 -41 15 -41 -2 0 -14 19 -26 41 -20 39 -20 44 -6 80 17 43 8 50 -23 19
-25 -25 -25 -41 1 -91 16 -33 18 -43 8 -55 -10 -12 -8 -19 8 -36 23 -22 45
-17 42 10 -1 10 1 24 5 33 4 9 6 51 4 95 -3 77 -3 78 -19 54z"/>
<path fill="#ffffff" stroke="none" d="M80 114 c0 -17 -12 -18 -28 -2 -18 18
-15 27 8 21 11 -3 20 -12 20 -19z"/>
</g>
</svg>
