<?xml version="1.0" standalone="no"?>
<!DOCTYPE svg PUBLIC "-//W3C//DTD SVG 20010904//EN"
 "http://www.w3.org/TR/2001/REC-SVG-20010904/DTD/svg10.dtd">
<svg version="1.0" xmlns="http://www.w3.org/2000/svg"
 width="32.000000pt" height="32.000000pt" viewBox="0 0 32.000000 32.000000"
 preserveAspectRatio="xMidYMid meet">
<metadata>
Created by potrace 1.16, written by Peter Selinger 2001-2019
</metadata>
<g transform="translate(0.000000,32.000000) scale(0.100000,-0.100000)"
fill="#000000" stroke="none">
<path fill="#000000" stroke="none" d="M79 300 c-29 -44 -31 -67 -9 -109 11
-23 17 -41 12 -41 -10 0 -42 65 -42 86 0 8 7 28 15 44 18 35 5 40 -25 10 -26
-26 -25 -40 6 -101 14 -28 21 -48 15 -45 -19 12 -23 -16 -5 -32 10 -10 13 -10
6 -2 -17 20 -15 29 6 23 33 -8 43 20 40 109 -3 81 -3 82 -19 58z"/>
</g>
</svg>
