<?xml version="1.0" standalone="no"?>
<!DOCTYPE svg PUBLIC "-//W3C//DTD SVG 20010904//EN"
 "http://www.w3.org/TR/2001/REC-SVG-20010904/DTD/svg10.dtd">
<svg version="1.0" xmlns="http://www.w3.org/2000/svg"
 width="32.000000pt" height="32.000000pt" viewBox="0 0 32.000000 32.000000"
 preserveAspectRatio="xMidYMid meet">
<metadata>
Created by potrace 1.16, written by Peter Selinger 2001-2019
</metadata>
<g transform="translate(0.000000,32.000000) scale(0.100000,-0.100000)"
fill="#000000" stroke="none">
<path fill="#000000" stroke="none" d="M50 271 c-6 -23 -9 -50 -7 -59 3 -11 5
-8 6 8 1 20 3 22 11 10 8 -11 9 -7 5 15 -5 25 -5 27 5 12 7 -10 10 -27 7 -38
-3 -10 0 -19 5 -19 12 0 3 73 -11 99 -7 11 -12 5 -21 -28z"/>
</g>
</svg>
