<?xml version="1.0" standalone="no"?>
<!DOCTYPE svg PUBLIC "-//W3C//DTD SVG 20010904//EN"
 "http://www.w3.org/TR/2001/REC-SVG-20010904/DTD/svg10.dtd">
<svg version="1.0" xmlns="http://www.w3.org/2000/svg"
 width="32.000000pt" height="32.000000pt" viewBox="0 0 32.000000 32.000000"
 preserveAspectRatio="xMidYMid meet">
<metadata>
Created by potrace 1.16, written by Peter Selinger 2001-2019
</metadata>
<g transform="translate(0.000000,32.000000) scale(0.100000,-0.100000)"
fill="#000000" stroke="none">
<path fill="#000000" stroke="none" d="M0 160 l0 -160 160 0 160 0 0 160 0
160 -160 0 -160 0 0 -160z"/>
<path fill="#ffffff" stroke="none" d="M130 255 c0 -29 -4 -34 -27 -37 -16 -2
-40 -1 -55 1 -24 3 -28 8 -28 36 0 29 4 34 28 37 15 2 39 1 55 -1 23 -3 27 -8
27 -36z"/>
<path fill="#ffffff" stroke="none" d="M87 164 c-3 -3 -12 -4 -19 -1 -8 3 -5
6 6 6 11 1 17 -2 13 -5z"/>
<path fill="#ffffff" stroke="none" d="M87 124 c-3 -3 -12 -4 -19 -1 -8 3 -5
6 6 6 11 1 17 -2 13 -5z"/>
<path fill="#ffffff" stroke="none" d="M77 88 c-3 -8 -6 -5 -6 6 -1 11 2 17 5
13 3 -3 4 -12 1 -19z"/>
<path fill="#000000" stroke="none" d="M30 255 c0 -14 5 -25 10 -25 6 0 10 11
10 25 0 14 -4 25 -10 25 -5 0 -10 -11 -10 -25z"/>
<path fill="#000000" stroke="none" d="M100 255 c0 -14 5 -25 10 -25 6 0 10
11 10 25 0 14 -4 25 -10 25 -5 0 -10 -11 -10 -25z"/>
</g>
</svg>
