<?xml version="1.0" standalone="no"?>
<!DOCTYPE svg PUBLIC "-//W3C//DTD SVG 20010904//EN"
 "http://www.w3.org/TR/2001/REC-SVG-20010904/DTD/svg10.dtd">
<svg version="1.0" xmlns="http://www.w3.org/2000/svg"
 width="32.000000pt" height="32.000000pt" viewBox="0 0 32.000000 32.000000"
 preserveAspectRatio="xMidYMid meet">
<metadata>
Created by potrace 1.16, written by Peter Selinger 2001-2019
</metadata>
<g transform="translate(0.000000,32.000000) scale(0.100000,-0.100000)"
fill="#000000" stroke="none">
<path fill="#000000" stroke="none" d="M55 291 c-3 -6 -12 -8 -18 -5 -7 4 -9
4 -5 -1 4 -4 3 -14 -2 -20 -7 -9 -6 -16 5 -25 8 -7 15 -22 15 -34 0 -17 -2
-18 -10 -6 -7 11 -10 -2 -10 -42 l0 -57 35 1 c25 1 35 6 35 17 0 9 3 25 6 37
3 12 -1 27 -10 37 -20 19 -20 26 -1 47 13 15 13 19 -9 39 -16 15 -26 19 -31
12z"/>
<path fill="#ffffff" stroke="none" d="M74 269 c-3 -5 -1 -8 4 -7 6 2 10 -1
10 -7 0 -5 -3 -9 -7 -8 -4 1 -8 -16 -10 -39 -1 -22 2 -37 6 -35 5 3 10 -3 10
-14 2 -26 -33 -25 -40 1 -3 11 -1 17 4 14 6 -3 9 11 8 34 -2 23 -5 40 -8 39
-3 -1 -7 3 -7 8 -1 6 2 9 7 8 5 -2 8 0 8 5 -3 16 2 23 11 17 6 -4 8 -11 4 -16z"/>
<path fill="#ffffff" stroke="none" d="M80 126 c0 -11 -19 -15 -25 -6 -3 5 1
10 9 10 9 0 16 -2 16 -4z"/>
</g>
</svg>
