<?xml version="1.0" standalone="no"?>
<!DOCTYPE svg PUBLIC "-//W3C//DTD SVG 20010904//EN"
 "http://www.w3.org/TR/2001/REC-SVG-20010904/DTD/svg10.dtd">
<svg version="1.0" xmlns="http://www.w3.org/2000/svg"
 width="32.000000pt" height="32.000000pt" viewBox="0 0 32.000000 32.000000"
 preserveAspectRatio="xMidYMid meet">
<metadata>
Created by potrace 1.16, written by Peter Selinger 2001-2019
</metadata>
<g transform="translate(0.000000,32.000000) scale(0.100000,-0.100000)"
fill="#000000" stroke="none">
<path fill="#000000" stroke="none" d="M0 160 l0 -160 160 0 160 0 0 160 0
160 -160 0 -160 0 0 -160z"/>
<path fill="#ffffff" stroke="none" d="M77 303 c-4 -3 2 -16 13 -28 18 -20 19
-23 5 -35 -19 -16 -19 -27 1 -47 9 -10 13 -25 10 -37 -3 -12 -6 -28 -6 -37 0
-11 -10 -16 -35 -17 l-35 -1 0 57 c0 40 3 53 10 42 8 -12 10 -11 10 6 0 12 -7
27 -15 34 -12 10 -15 10 -15 0 0 -8 -3 -10 -7 -7 -3 4 1 15 10 25 10 10 14 22
10 27 -5 4 -3 5 3 2 7 -4 17 0 24 8 7 8 15 15 18 15 3 0 2 -3 -1 -7z"/>
<path fill="#000000" stroke="none" d="M59 283 c-1 -4 -1 -12 0 -16 1 -5 -3
-6 -8 -3 -15 9 -22 -10 -8 -21 21 -16 63 -1 51 18 -3 5 -10 6 -16 3 -6 -4 -8
-2 -4 4 3 6 2 13 -4 17 -5 3 -11 3 -11 -2z"/>
<path fill="#000000" stroke="none" d="M47 163 c7 -29 42 -32 40 -4 0 11 -5
17 -9 15 -5 -3 -6 -10 -3 -15 11 -16 -7 -9 -21 9 -12 15 -12 15 -7 -5z"/>
<path fill="#000000" stroke="none" d="M55 120 c4 -6 11 -8 16 -5 14 9 11 15
-7 15 -8 0 -12 -5 -9 -10z"/>
</g>
</svg>
