<?xml version="1.0" standalone="no"?>
<!DOCTYPE svg PUBLIC "-//W3C//DTD SVG 20010904//EN"
 "http://www.w3.org/TR/2001/REC-SVG-20010904/DTD/svg10.dtd">
<svg version="1.0" xmlns="http://www.w3.org/2000/svg"
 width="32.000000pt" height="32.000000pt" viewBox="0 0 32.000000 32.000000"
 preserveAspectRatio="xMidYMid meet">
<metadata>
Created by potrace 1.16, written by Peter Selinger 2001-2019
</metadata>
<g transform="translate(0.000000,32.000000) scale(0.100000,-0.100000)"
fill="#000000" stroke="none">
<path fill="#000000" stroke="none" d="M36 292 c-6 -11 0 -97 8 -111 20 -32
56 7 51 54 -1 11 -3 26 -4 33 0 7 -6 10 -13 6 -8 -5 -9 -2 -5 9 5 12 1 17 -13
17 -10 0 -21 -4 -24 -8z"/>
<path fill="#000000" stroke="none" d="M52 115 c4 -33 22 -33 26 0 2 18 -1 25
-13 25 -12 0 -15 -7 -13 -25z"/>
</g>
</svg>
