<?xml version="1.0" standalone="no"?>
<!DOCTYPE svg PUBLIC "-//W3C//DTD SVG 20010904//EN"
 "http://www.w3.org/TR/2001/REC-SVG-20010904/DTD/svg10.dtd">
<svg version="1.0" xmlns="http://www.w3.org/2000/svg"
 width="32.000000pt" height="32.000000pt" viewBox="0 0 32.000000 32.000000"
 preserveAspectRatio="xMidYMid meet">
<metadata>
Created by potrace 1.16, written by Peter Selinger 2001-2019
</metadata>
<g transform="translate(0.000000,32.000000) scale(0.100000,-0.100000)"
fill="#000000" stroke="none">
<path fill="#000000" stroke="none" d="M0 160 l0 -160 160 0 160 0 0 160 0
160 -160 0 -160 0 0 -160z"/>
<path fill="#ffffff" stroke="none" d="M73 283 c-4 -11 -3 -14 5 -9 7 4 13 1
13 -6 1 -7 3 -22 4 -33 5 -47 -31 -86 -51 -54 -8 14 -14 100 -8 111 3 4 14 8
24 8 14 0 18 -5 13 -17z"/>
<path fill="#ffffff" stroke="none" d="M78 115 c-4 -33 -22 -33 -26 0 -2 18 1
25 13 25 12 0 15 -7 13 -25z"/>
</g>
</svg>
