<?xml version="1.0" standalone="no"?>
<!DOCTYPE svg PUBLIC "-//W3C//DTD SVG 20010904//EN"
 "http://www.w3.org/TR/2001/REC-SVG-20010904/DTD/svg10.dtd">
<svg version="1.0" xmlns="http://www.w3.org/2000/svg"
 width="32.000000pt" height="32.000000pt" viewBox="0 0 32.000000 32.000000"
 preserveAspectRatio="xMidYMid meet">
<metadata>
Created by potrace 1.16, written by Peter Selinger 2001-2019
</metadata>
<g transform="translate(0.000000,32.000000) scale(0.100000,-0.100000)"
fill="#000000" stroke="none">
<path fill="#000000" stroke="none" d="M0 293 c0 -14 1 -24 3 -22 1 2 11 14
21 27 19 22 19 22 -2 22 -17 0 -22 -6 -22 -27z"/>
<path fill="#000000" stroke="none" d="M82 302 c7 -9 8 -13 2 -9 -6 4 -20 -3
-30 -16 -19 -21 -19 -21 0 -7 18 14 19 14 6 -10 -20 -37 -20 -48 1 -53 13 -3
17 -11 13 -21 -4 -9 -1 -16 6 -16 10 0 10 -3 1 -14 -13 -16 -51 -10 -48 8 1 6
-4 10 -11 8 -8 -1 -11 2 -8 7 4 5 2 12 -4 16 -6 4 -10 -29 -10 -94 l0 -101
160 0 160 0 0 160 0 161 -125 -2 c-113 -1 -124 -3 -113 -17z"/>
</g>
</svg>
