<?xml version="1.0" standalone="no"?>
<!DOCTYPE svg PUBLIC "-//W3C//DTD SVG 20010904//EN"
 "http://www.w3.org/TR/2001/REC-SVG-20010904/DTD/svg10.dtd">
<svg version="1.0" xmlns="http://www.w3.org/2000/svg"
 width="32.000000pt" height="32.000000pt" viewBox="0 0 32.000000 32.000000"
 preserveAspectRatio="xMidYMid meet">
<metadata>
Created by potrace 1.16, written by Peter Selinger 2001-2019
</metadata>
<g transform="translate(0.000000,32.000000) scale(0.100000,-0.100000)"
fill="#000000" stroke="none">
<path fill="#000000" stroke="none" d="M0 161 l0 -160 160 0 160 -1 0 160 0
160 -160 0 -160 0 0 -159z"/>
<path fill="#ffffff" stroke="none" d="M81 288 c16 -30 21 -76 9 -83 -6 -3
-10 -15 -10 -26 0 -10 -7 -19 -15 -19 -8 0 -15 9 -15 19 0 11 -4 23 -10 26
-16 10 6 105 25 105 2 0 10 -10 16 -22z"/>
<path fill="#ffffff" stroke="none" d="M79 68 c0 -35 -3 -57 -6 -49 -5 11 -7
11 -14 0 -5 -9 -9 10 -9 49 0 48 3 62 15 62 12 0 15 -13 14 -62z"/>
<path fill="#000000" stroke="none" d="M54 279 c-11 -35 -12 -59 -2 -59 5 0 6
-4 3 -10 -3 -5 1 -10 10 -10 9 0 13 5 10 10 -3 6 -2 10 3 10 11 0 8 42 -6 66
-9 16 -10 15 -18 -7z"/>
</g>
</svg>
