<?xml version="1.0" standalone="no"?>
<!DOCTYPE svg PUBLIC "-//W3C//DTD SVG 20010904//EN"
 "http://www.w3.org/TR/2001/REC-SVG-20010904/DTD/svg10.dtd">
<svg version="1.0" xmlns="http://www.w3.org/2000/svg"
 width="32.000000pt" height="32.000000pt" viewBox="0 0 32.000000 32.000000"
 preserveAspectRatio="xMidYMid meet">
<metadata>
Created by potrace 1.16, written by Peter Selinger 2001-2019
</metadata>
<g transform="translate(0.000000,32.000000) scale(0.100000,-0.100000)"
fill="#000000" stroke="none">
<path fill="#000000" stroke="none" d="M21 294 c-25 -31 -27 -63 -6 -90 13
-16 16 -17 25 -4 9 13 11 12 9 -5 -1 -11 1 -28 5 -37 4 -9 4 -23 0 -30 -19
-31 -3 -98 19 -79 13 10 15 60 3 80 -4 6 -4 20 0 29 4 9 6 26 5 37 -2 17 0 18
9 5 9 -13 12 -12 25 4 21 27 19 59 -6 90 -24 30 -36 33 -42 9 -4 -17 -5 -17
-6 0 -1 24 -16 21 -40 -9z"/>
<path fill="#ffffff" stroke="none" d="M75 270 c3 -5 -1 -10 -10 -10 -9 0 -13
5 -10 10 3 6 8 10 10 10 2 0 7 -4 10 -10z"/>
</g>
</svg>
