<?xml version="1.0" standalone="no"?>
<!DOCTYPE svg PUBLIC "-//W3C//DTD SVG 20010904//EN"
 "http://www.w3.org/TR/2001/REC-SVG-20010904/DTD/svg10.dtd">
<svg version="1.0" xmlns="http://www.w3.org/2000/svg"
 width="32.000000pt" height="32.000000pt" viewBox="0 0 32.000000 32.000000"
 preserveAspectRatio="xMidYMid meet">
<metadata>
Created by potrace 1.16, written by Peter Selinger 2001-2019
</metadata>
<g transform="translate(0.000000,32.000000) scale(0.100000,-0.100000)"
fill="#000000" stroke="none">
<path fill="#000000" stroke="none" d="M0 160 l0 -160 160 0 160 0 0 160 0
160 -160 0 -160 0 0 -160z"/>
<path fill="#ffffff" stroke="none" d="M75 285 c-2 -14 1 -27 6 -31 14 -8 1
-24 -20 -24 -18 0 -19 23 -6 68 8 22 22 12 20 -13z"/>
<path fill="#ffffff" stroke="none" d="M73 207 c3 -8 0 -14 -7 -14 -7 0 -13 6
-13 14 0 7 4 13 8 13 4 0 9 -6 12 -13z"/>
</g>
</svg>
