<?xml version="1.0" standalone="no"?>
<!DOCTYPE svg PUBLIC "-//W3C//DTD SVG 20010904//EN"
 "http://www.w3.org/TR/2001/REC-SVG-20010904/DTD/svg10.dtd">
<svg version="1.0" xmlns="http://www.w3.org/2000/svg"
 width="32.000000pt" height="32.000000pt" viewBox="0 0 32.000000 32.000000"
 preserveAspectRatio="xMidYMid meet">
<metadata>
Created by potrace 1.16, written by Peter Selinger 2001-2019
</metadata>
<g transform="translate(0.000000,32.000000) scale(0.100000,-0.100000)"
fill="#000000" stroke="none">
<path fill="#000000" stroke="none" d="M7 290 c3 -14 6 -43 8 -65 4 -33 3 -35
-5 -15 -8 23 -8 23 -7 -8 2 -37 13 -50 30 -33 8 8 8 11 0 11 -6 0 -9 9 -6 21
4 14 9 17 16 10 16 -16 27 -13 27 7 0 14 -2 15 -10 2 -10 -15 -11 -13 -14 18
-1 9 -5 22 -9 29 -4 6 -3 14 3 18 5 3 10 11 10 17 0 6 -9 3 -19 -6 -18 -17
-20 -17 -24 1 -2 10 -2 7 0 -7z"/>
<path fill="#000000" stroke="none" d="M94 288 c0 -18 -2 -44 -4 -58 -2 -14
-2 -71 -2 -127 l2 -103 115 0 115 0 0 160 0 160 -112 0 -113 0 -1 -32z"/>
<path fill="#000000" stroke="none" d="M66 302 c-3 -5 1 -9 9 -9 8 0 12 4 9 9
-3 4 -7 8 -9 8 -2 0 -6 -4 -9 -8z"/>
<path fill="#000000" stroke="none" d="M60 150 c0 -19 3 -21 12 -12 9 9 9 15
0 24 -9 9 -12 7 -12 -12z"/>
<path fill="#000000" stroke="none" d="M3 75 c0 -44 2 -61 4 -37 2 23 2 59 0
80 -2 20 -4 1 -4 -43z"/>
</g>
</svg>
