<?xml version="1.0" standalone="no"?>
<!DOCTYPE svg PUBLIC "-//W3C//DTD SVG 20010904//EN"
 "http://www.w3.org/TR/2001/REC-SVG-20010904/DTD/svg10.dtd">
<svg version="1.0" xmlns="http://www.w3.org/2000/svg"
 width="32.000000pt" height="32.000000pt" viewBox="0 0 32.000000 32.000000"
 preserveAspectRatio="xMidYMid meet">
<metadata>
Created by potrace 1.16, written by Peter Selinger 2001-2019
</metadata>
<g transform="translate(0.000000,32.000000) scale(0.100000,-0.100000)"
fill="#000000" stroke="none">
<path fill="#000000" stroke="none" d="M7 283 c-2 -21 -3 -58 -2 -83 1 -25 3
-80 4 -122 l1 -78 28 0 27 0 -3 101 c-3 92 -5 101 -22 96 -27 -7 -34 70 -9 98
19 19 19 19 19 0 0 -18 0 -18 13 0 11 14 16 15 22 5 5 -8 4 -11 -3 -6 -8 5
-11 -34 -11 -138 0 -86 4 -148 10 -152 6 -4 10 38 10 118 0 67 1 139 2 158 2
34 1 35 -40 38 -41 3 -41 3 -46 -35z"/>
<path fill="#ffffff" stroke="none" d="M40 174 c-15 -18 -27 -18 -27 -1 0 7 9
14 19 14 16 2 17 -1 8 -13z"/>
<path fill="#000000" stroke="none" d="M52 240 c0 -19 2 -27 5 -17 2 9 2 25 0
35 -3 9 -5 1 -5 -18z"/>
</g>
</svg>
