<?xml version="1.0" standalone="no"?>
<!DOCTYPE svg PUBLIC "-//W3C//DTD SVG 20010904//EN"
 "http://www.w3.org/TR/2001/REC-SVG-20010904/DTD/svg10.dtd">
<svg version="1.0" xmlns="http://www.w3.org/2000/svg"
 width="32.000000pt" height="32.000000pt" viewBox="0 0 32.000000 32.000000"
 preserveAspectRatio="xMidYMid meet">
<metadata>
Created by potrace 1.16, written by Peter Selinger 2001-2019
</metadata>
<g transform="translate(0.000000,32.000000) scale(0.100000,-0.100000)"
fill="#000000" stroke="none">
<path fill="#000000" stroke="none" d="M22 217 c-25 -26 -29 -47 -9 -47 7 0
26 -13 42 -30 31 -32 55 -39 55 -15 0 8 -5 15 -11 15 -5 0 -7 -4 -4 -10 3 -5
2 -10 -4 -10 -5 0 -16 12 -23 27 -7 15 -23 32 -36 39 -22 11 -22 11 -2 29 16
15 20 15 20 3 0 -8 11 -25 25 -38 14 -13 25 -19 25 -13 0 5 -9 18 -20 28 -11
10 -20 24 -20 32 0 19 -14 16 -38 -10z"/>
<path fill="#ffffff" stroke="none" d="M51 163 c13 -16 12 -17 -3 -4 -10 7
-18 15 -18 17 0 8 8 3 21 -13z"/>
</g>
</svg>
