<?xml version="1.0" standalone="no"?>
<!DOCTYPE svg PUBLIC "-//W3C//DTD SVG 20010904//EN"
 "http://www.w3.org/TR/2001/REC-SVG-20010904/DTD/svg10.dtd">
<svg version="1.0" xmlns="http://www.w3.org/2000/svg"
 width="32.000000pt" height="32.000000pt" viewBox="0 0 32.000000 32.000000"
 preserveAspectRatio="xMidYMid meet">
<metadata>
Created by potrace 1.16, written by Peter Selinger 2001-2019
</metadata>
<g transform="translate(0.000000,32.000000) scale(0.100000,-0.100000)"
fill="#000000" stroke="none">
<path fill="#000000" stroke="none" d="M22 217 c-25 -27 -28 -47 -8 -47 8 0
26 -13 39 -30 36 -42 61 -41 52 2 -4 18 -16 42 -26 54 -10 11 -19 26 -19 32 0
18 -14 14 -38 -11z"/>
<path fill="#ffffff" stroke="none" d="M73 183 c11 -13 19 -23 16 -24 -2 0
-12 -2 -21 -4 -9 -2 -23 4 -30 13 -12 16 -11 16 7 2 19 -14 19 -14 6 3 -7 9
-20 17 -29 17 -12 0 -12 4 4 21 13 15 20 17 23 7 2 -7 13 -23 24 -35z"/>
</g>
</svg>
