<?xml version="1.0" standalone="no"?>
<!DOCTYPE svg PUBLIC "-//W3C//DTD SVG 20010904//EN"
 "http://www.w3.org/TR/2001/REC-SVG-20010904/DTD/svg10.dtd">
<svg version="1.0" xmlns="http://www.w3.org/2000/svg"
 width="32.000000pt" height="32.000000pt" viewBox="0 0 32.000000 32.000000"
 preserveAspectRatio="xMidYMid meet">
<metadata>
Created by potrace 1.16, written by Peter Selinger 2001-2019
</metadata>
<g transform="translate(0.000000,32.000000) scale(0.100000,-0.100000)"
fill="#000000" stroke="none">
<path fill="#000000" stroke="none" d="M0 160 l0 -160 160 0 160 0 0 160 0
160 -160 0 -160 0 0 -160z"/>
<path fill="#ffffff" stroke="none" d="M92 269 c7 0 4 -4 -7 -8 -11 -4 -28 -6
-38 -3 -17 4 -17 6 -3 14 9 5 16 17 17 26 0 12 3 11 9 -5 5 -13 15 -23 22 -24z"/>
<path fill="#ffffff" stroke="none" d="M90 164 c0 -2 -12 -4 -27 -4 -21 0 -24
3 -14 9 13 8 41 5 41 -5z"/>
<path fill="#ffffff" stroke="none" d="M86 58 c-9 -5 -16 -17 -17 -26 0 -12
-3 -11 -9 6 -5 12 -15 22 -22 23 -7 0 -4 4 7 8 11 4 28 6 38 3 17 -4 17 -6 3
-14z"/>
</g>
</svg>
