<?xml version="1.0" standalone="no"?>
<!DOCTYPE svg PUBLIC "-//W3C//DTD SVG 20010904//EN"
 "http://www.w3.org/TR/2001/REC-SVG-20010904/DTD/svg10.dtd">
<svg version="1.0" xmlns="http://www.w3.org/2000/svg"
 width="32.000000pt" height="32.000000pt" viewBox="0 0 32.000000 32.000000"
 preserveAspectRatio="xMidYMid meet">
<metadata>
Created by potrace 1.16, written by Peter Selinger 2001-2019
</metadata>
<g transform="translate(0.000000,32.000000) scale(0.100000,-0.100000)"
fill="#000000" stroke="none">
<path fill="#000000" stroke="none" d="M50 298 c0 -6 -7 -19 -15 -29 -16 -17
-12 -69 6 -69 5 0 9 -9 9 -20 0 -11 7 -20 15 -20 8 0 15 9 15 19 0 10 6 21 14
24 20 8 15 61 -8 86 -21 23 -36 27 -36 9z"/>
<path fill="#ffffff" stroke="none" d="M71 245 c-6 -36 -8 -37 -14 -16 -3 14
-1 31 4 38 6 6 7 18 3 25 -5 9 -4 10 4 3 6 -6 7 -26 3 -50z"/>
<path fill="#ffffff" stroke="none" d="M43 240 c3 -11 1 -18 -4 -14 -5 3 -9
12 -9 20 0 20 7 17 13 -6z"/>
<path fill="#ffffff" stroke="none" d="M96 240 c0 -12 -4 -16 -9 -11 -5 5 -6
14 -3 20 10 15 12 14 12 -9z"/>
<path fill="#000000" stroke="none" d="M52 68 c2 -35 8 -63 13 -63 6 0 11 28
13 63 2 51 0 62 -13 62 -13 0 -15 -11 -13 -62z"/>
</g>
</svg>
