<?xml version="1.0" standalone="no"?>
<!DOCTYPE svg PUBLIC "-//W3C//DTD SVG 20010904//EN"
 "http://www.w3.org/TR/2001/REC-SVG-20010904/DTD/svg10.dtd">
<svg version="1.0" xmlns="http://www.w3.org/2000/svg"
 width="32.000000pt" height="32.000000pt" viewBox="0 0 32.000000 32.000000"
 preserveAspectRatio="xMidYMid meet">
<metadata>
Created by potrace 1.16, written by Peter Selinger 2001-2019
</metadata>
<g transform="translate(0.000000,32.000000) scale(0.100000,-0.100000)"
fill="#000000" stroke="none">
<path fill="#000000" stroke="none" d="M56 302 c-4 -6 -13 -9 -20 -6 -10 4
-14 -4 -13 -28 0 -18 -4 -41 -8 -50 -5 -14 -2 -18 14 -18 14 0 21 -6 21 -20 0
-11 7 -20 15 -20 8 0 15 9 15 20 0 13 7 20 20 20 17 0 19 4 13 28 -3 15 -6 35
-5 45 0 10 -4 16 -11 14 -7 -2 -17 3 -23 11 -8 10 -13 12 -18 4z"/>
<path fill="#000000" stroke="none" d="M52 119 c2 -6 8 -10 13 -10 5 0 11 4
13 10 2 6 -4 11 -13 11 -9 0 -15 -5 -13 -11z"/>
</g>
</svg>
