<?xml version="1.0" standalone="no"?>
<!DOCTYPE svg PUBLIC "-//W3C//DTD SVG 20010904//EN"
 "http://www.w3.org/TR/2001/REC-SVG-20010904/DTD/svg10.dtd">
<svg version="1.0" xmlns="http://www.w3.org/2000/svg"
 width="32.000000pt" height="32.000000pt" viewBox="0 0 32.000000 32.000000"
 preserveAspectRatio="xMidYMid meet">
<metadata>
Created by potrace 1.16, written by Peter Selinger 2001-2019
</metadata>
<g transform="translate(0.000000,32.000000) scale(0.100000,-0.100000)"
fill="#000000" stroke="none">
<path fill="#000000" stroke="none" d="M0 160 l0 -160 160 0 160 0 0 160 0
160 -160 0 -160 0 0 -160z"/>
<path fill="#ffffff" stroke="none" d="M97 287 c7 2 11 -4 11 -14 -1 -10 2
-30 5 -45 6 -24 4 -28 -13 -28 -13 0 -20 -7 -20 -18 0 -10 -7 -19 -15 -19 -8
0 -15 9 -15 19 0 12 -7 18 -21 18 -16 0 -19 4 -14 18 4 9 8 32 8 50 -1 24 3
32 13 28 7 -3 16 0 20 6 5 8 10 6 18 -4 6 -8 16 -13 23 -11z"/>
<path fill="#ffffff" stroke="none" d="M72 121 c8 11 9 11 6 1 -4 -16 -22 -18
-24 -2 -2 7 -1 6 3 -1 4 -8 8 -7 15 2z"/>
<path fill="#000000" stroke="none" d="M40 270 c-20 -12 -10 -19 14 -10 11 3
15 9 10 13 -6 3 -16 2 -24 -3z"/>
<path fill="#000000" stroke="none" d="M60 250 c-24 -18 -24 -20 -8 -35 10 -8
16 -12 13 -9 -2 4 5 14 15 23 30 25 11 44 -20 21z"/>
</g>
</svg>
