<?xml version="1.0" standalone="no"?>
<!DOCTYPE svg PUBLIC "-//W3C//DTD SVG 20010904//EN"
 "http://www.w3.org/TR/2001/REC-SVG-20010904/DTD/svg10.dtd">
<svg version="1.0" xmlns="http://www.w3.org/2000/svg"
 width="32.000000pt" height="32.000000pt" viewBox="0 0 32.000000 32.000000"
 preserveAspectRatio="xMidYMid meet">
<metadata>
Created by potrace 1.16, written by Peter Selinger 2001-2019
</metadata>
<g transform="translate(0.000000,32.000000) scale(0.100000,-0.100000)"
fill="#000000" stroke="none">
<path fill="#000000" stroke="none" d="M0 160 l0 -160 160 0 160 0 0 160 0
161 -117 -3 -118 -3 -3 -65 c-1 -40 1 -60 6 -52 7 10 11 6 15 -15 6 -29 -11
-59 -20 -35 -3 6 -18 12 -35 12 -25 0 -29 3 -23 18 5 9 11 37 15 62 4 25 8 36
9 25 5 -40 12 -80 17 -84 2 -2 4 28 4 69 0 67 -1 71 -17 59 -11 -10 -14 -10
-9 -1 5 8 -1 12 -18 12 l-26 0 0 -160z"/>
<path fill="#ffffff" stroke="none" d="M83 123 c4 -3 2 -12 -4 -20 -9 -10 -15
-10 -25 -2 -8 6 -11 15 -8 20 6 11 28 12 37 2z"/>
</g>
</svg>
