<?xml version="1.0" standalone="no"?>
<!DOCTYPE svg PUBLIC "-//W3C//DTD SVG 20010904//EN"
 "http://www.w3.org/TR/2001/REC-SVG-20010904/DTD/svg10.dtd">
<svg version="1.0" xmlns="http://www.w3.org/2000/svg"
 width="32.000000pt" height="32.000000pt" viewBox="0 0 32.000000 32.000000"
 preserveAspectRatio="xMidYMid meet">
<metadata>
Created by potrace 1.16, written by Peter Selinger 2001-2019
</metadata>
<g transform="translate(0.000000,32.000000) scale(0.100000,-0.100000)"
fill="#000000" stroke="none">
<path fill="#000000" stroke="none" d="M0 160 l0 -160 160 0 160 0 0 160 0
160 -160 0 -160 0 0 -160z"/>
<path fill="#ffffff" stroke="none" d="M84 235 c-7 -19 -14 -45 -15 -57 0 -21
-1 -21 -8 -4 -5 12 -1 34 11 58 23 47 32 50 12 3z"/>
<path fill="#ffffff" stroke="none" d="M80 68 c5 -16 7 -28 5 -28 -10 0 -30
57 -26 75 l5 20 3 -20 c2 -11 8 -32 13 -47z"/>
</g>
</svg>
