<?xml version="1.0" standalone="no"?>
<!DOCTYPE svg PUBLIC "-//W3C//DTD SVG 20010904//EN"
 "http://www.w3.org/TR/2001/REC-SVG-20010904/DTD/svg10.dtd">
<svg version="1.0" xmlns="http://www.w3.org/2000/svg"
 width="32.000000pt" height="32.000000pt" viewBox="0 0 32.000000 32.000000"
 preserveAspectRatio="xMidYMid meet">
<metadata>
Created by potrace 1.16, written by Peter Selinger 2001-2019
</metadata>
<g transform="translate(0.000000,32.000000) scale(0.100000,-0.100000)"
fill="#000000" stroke="none">
<path fill="#000000" stroke="none" d="M0 160 l0 -160 160 0 160 0 0 160 0
160 -160 0 -160 0 0 -160z"/>
<path fill="#ffffff" stroke="none" d="M168 303 c-97 -4 -98 -4 -98 -28 0 -20
-5 -25 -25 -25 -24 0 -24 -1 -28 -97 l-3 -98 -2 103 -2 102 25 0 c20 0 25 5
25 25 l0 25 103 -2 102 -2 -97 -3z"/>
<path fill="#ffffff" stroke="none" d="M155 259 c-25 -7 -23 -8 14 -4 30 2 40
1 30 -6 -16 -10 -50 -12 -74 -3 -23 9 1 24 35 23 23 -1 23 -2 -5 -10z"/>
<path fill="#ffffff" stroke="none" d="M303 253 c-7 -2 -21 -2 -30 0 -10 3 -4
5 12 5 17 0 24 -2 18 -5z"/>
<path fill="#ffffff" stroke="none" d="M210 205 c6 -8 8 -20 4 -26 -4 -8 -3
-9 4 -5 17 10 15 -7 -4 -30 -8 -10 -13 -13 -9 -7 8 16 -21 17 -31 1 -4 -7 -3
-8 5 -4 6 4 14 0 17 -8 3 -9 11 -13 18 -9 6 3 7 2 3 -2 -4 -5 -19 -11 -32 -12
-24 -4 -25 -2 -25 57 0 52 2 60 19 60 10 0 24 -7 31 -15z"/>
<path fill="#ffffff" stroke="none" d="M150 181 c0 -24 -3 -28 -20 -24 -12 3
-20 0 -20 -7 0 -6 9 -14 20 -17 11 -3 20 -9 20 -12 0 -16 -13 -20 -31 -11 -12
7 -16 19 -14 40 3 22 1 29 -8 24 -7 -4 -3 2 7 14 27 31 46 28 46 -7z"/>
<path fill="#ffffff" stroke="none" d="M280 171 c0 -5 -8 -15 -17 -22 -16 -13
-17 -12 -5 3 11 14 10 17 -5 21 -14 4 -13 5 5 6 12 0 22 -3 22 -8z"/>
<path fill="#ffffff" stroke="none" d="M146 52 c-4 -3 -14 2 -24 12 -16 16
-16 17 1 10 11 -4 17 -1 18 7 1 8 3 6 6 -4 3 -10 2 -21 -1 -25z"/>
<path fill="#ffffff" stroke="none" d="M194 59 c-5 -9 -34 -13 -34 -5 0 2 3
12 6 20 5 13 9 14 20 5 8 -6 11 -15 8 -20z"/>
<path fill="#ffffff" stroke="none" d="M67 23 c-3 -10 -5 -5 -5 12 0 17 2 24
5 18 2 -7 2 -21 0 -30z"/>
</g>
</svg>
