<?xml version="1.0" standalone="no"?>
<!DOCTYPE svg PUBLIC "-//W3C//DTD SVG 20010904//EN"
 "http://www.w3.org/TR/2001/REC-SVG-20010904/DTD/svg10.dtd">
<svg version="1.0" xmlns="http://www.w3.org/2000/svg"
 width="32.000000pt" height="32.000000pt" viewBox="0 0 32.000000 32.000000"
 preserveAspectRatio="xMidYMid meet">
<metadata>
Created by potrace 1.16, written by Peter Selinger 2001-2019
</metadata>
<g transform="translate(0.000000,32.000000) scale(0.100000,-0.100000)"
fill="#000000" stroke="none">
<path fill="#000000" stroke="none" d="M42 277 c-31 -32 -32 -36 -32 -119 0
-48 3 -89 8 -91 4 -3 6 34 4 81 l-3 87 34 33 c34 33 35 34 120 30 47 -2 83 0
80 5 -2 4 -44 7 -92 7 -85 0 -88 -1 -119 -33z"/>
<path fill="#000000" stroke="none" d="M108 171 c-16 -27 -27 -62 -27 -77 2
-27 2 -27 9 6 6 28 8 30 9 10 1 -17 4 -21 10 -12 4 7 21 17 37 22 21 6 23 9 9
9 -18 1 -20 7 -19 46 1 25 1 45 0 45 0 0 -13 -22 -28 -49z"/>
<path fill="#ffffff" stroke="none" d="M122 158 c-7 -7 -12 -8 -12 -2 0 14 12
26 19 19 2 -3 -1 -11 -7 -17z"/>
</g>
</svg>
