<?xml version="1.0" standalone="no"?>
<!DOCTYPE svg PUBLIC "-//W3C//DTD SVG 20010904//EN"
 "http://www.w3.org/TR/2001/REC-SVG-20010904/DTD/svg10.dtd">
<svg version="1.0" xmlns="http://www.w3.org/2000/svg"
 width="32.000000pt" height="32.000000pt" viewBox="0 0 32.000000 32.000000"
 preserveAspectRatio="xMidYMid meet">
<metadata>
Created by potrace 1.16, written by Peter Selinger 2001-2019
</metadata>
<g transform="translate(0.000000,32.000000) scale(0.100000,-0.100000)"
fill="#000000" stroke="none">
<path fill="#000000" stroke="none" d="M0 160 l0 -160 160 0 160 0 0 160 0
160 -160 0 -160 0 0 -160z"/>
<path fill="#ffffff" stroke="none" d="M280 275 c18 -19 31 -37 29 -40 -3 -2
-21 11 -39 30 -33 34 -36 35 -109 35 -71 0 -77 -2 -108 -32 -24 -23 -33 -41
-33 -65 0 -38 4 -40 45 -15 41 25 103 36 120 22 8 -7 18 -10 22 -7 15 9 98
-38 99 -55 1 -10 -2 -15 -7 -12 -14 9 -80 -16 -73 -28 4 -6 -3 -5 -16 2 -23
12 -55 6 -46 -9 3 -5 -1 -11 -9 -15 -8 -3 -15 -1 -15 3 0 14 -69 51 -96 51
-38 0 -33 -48 11 -90 19 -18 32 -36 30 -39 -3 -2 -21 11 -40 29 -35 34 -35 35
-35 119 0 82 1 86 32 118 31 32 34 33 118 33 85 0 86 0 120 -35z"/>
<path fill="#ffffff" stroke="none" d="M271 41 c-17 -18 -31 -28 -31 -24 0 10
53 64 57 59 3 -2 -9 -18 -26 -35z"/>
</g>
</svg>
