<?xml version="1.0" standalone="no"?>
<!DOCTYPE svg PUBLIC "-//W3C//DTD SVG 20010904//EN"
 "http://www.w3.org/TR/2001/REC-SVG-20010904/DTD/svg10.dtd">
<svg version="1.0" xmlns="http://www.w3.org/2000/svg"
 width="32.000000pt" height="32.000000pt" viewBox="0 0 32.000000 32.000000"
 preserveAspectRatio="xMidYMid meet">
<metadata>
Created by potrace 1.16, written by Peter Selinger 2001-2019
</metadata>
<g transform="translate(0.000000,32.000000) scale(0.100000,-0.100000)"
fill="#000000" stroke="none">
<path fill="#000000" stroke="none" d="M0 160 l0 -160 160 0 160 0 0 160 0
160 -160 0 -160 0 0 -160z"/>
<path fill="#ffffff" stroke="none" d="M70 307 c0 -2 -13 -16 -30 -32 l-30
-29 0 32 c0 29 3 32 30 32 17 0 30 -1 30 -3z"/>
<path fill="#ffffff" stroke="none" d="M310 278 l0 -32 -30 29 c-16 16 -30 30
-30 32 0 2 14 3 30 3 27 0 30 -3 30 -32z"/>
<path fill="#ffffff" stroke="none" d="M272 263 l38 -37 0 -108 0 -108 -107 0
-107 0 -38 37 c-37 36 -38 38 -38 112 0 71 2 77 32 108 31 32 35 33 107 33 73
0 76 -1 113 -37z"/>
<path fill="#ffffff" stroke="none" d="M45 40 l29 -30 -32 0 c-29 0 -32 3 -32
30 0 17 1 30 3 30 2 0 16 -13 32 -30z"/>
</g>
</svg>
