<?xml version="1.0" standalone="no"?>
<!DOCTYPE svg PUBLIC "-//W3C//DTD SVG 20010904//EN"
 "http://www.w3.org/TR/2001/REC-SVG-20010904/DTD/svg10.dtd">
<svg version="1.0" xmlns="http://www.w3.org/2000/svg"
 width="32.000000pt" height="32.000000pt" viewBox="0 0 32.000000 32.000000"
 preserveAspectRatio="xMidYMid meet">
<metadata>
Created by potrace 1.16, written by Peter Selinger 2001-2019
</metadata>
<g transform="translate(0.000000,32.000000) scale(0.100000,-0.100000)"
fill="#000000" stroke="none">
<path fill="#000000" stroke="none" d="M10 278 l0 -32 30 29 c17 16 30 30 30
32 0 2 -13 3 -30 3 -27 0 -30 -3 -30 -32z"/>
<path fill="#000000" stroke="none" d="M250 307 c0 -2 14 -16 30 -32 l30 -29
0 32 c0 29 -3 32 -30 32 -16 0 -30 -1 -30 -3z"/>
<path fill="#000000" stroke="none" d="M52 267 c-30 -31 -32 -37 -32 -108 0
-72 1 -76 33 -107 31 -30 37 -32 108 -32 72 0 76 1 107 33 30 31 32 37 32 108
0 72 -1 76 -33 107 -31 30 -37 32 -108 32 -72 0 -76 -1 -107 -33z"/>
<path fill="#ffffff" stroke="none" d="M216 248 c4 -6 -1 -8 -13 -4 -23 7 -48
-16 -38 -36 4 -7 -1 -4 -9 7 -9 11 -23 25 -31 31 -10 8 -1 10 36 11 27 0 52
-4 55 -9z"/>
<path fill="#ffffff" stroke="none" d="M130 120 c-12 -54 -15 -60 -34 -54 -34
10 -48 26 -36 38 15 15 12 26 -5 20 -11 -5 -13 -2 -9 9 3 9 12 13 20 10 9 -3
14 2 14 16 0 12 10 31 22 43 l22 22 9 -22 c7 -14 6 -41 -3 -82z"/>
<path fill="#ffffff" stroke="none" d="M217 172 c9 -20 25 -45 35 -56 11 -10
17 -21 13 -24 -3 -4 -10 0 -15 7 -6 11 -9 8 -12 -10 -2 -16 -9 -24 -23 -24
-18 0 -20 7 -20 57 0 63 -10 87 -13 32 -3 -40 -20 -89 -28 -81 -3 3 -1 20 5
39 6 18 13 50 16 71 7 44 18 41 42 -11z"/>
<path fill="#000000" stroke="none" d="M10 40 c0 -27 3 -30 32 -30 l32 0 -29
30 c-16 17 -30 30 -32 30 -2 0 -3 -13 -3 -30z"/>
<path fill="#000000" stroke="none" d="M275 40 l-29 -30 32 0 c29 0 32 3 32
30 0 17 -1 30 -3 30 -2 0 -16 -13 -32 -30z"/>
</g>
</svg>
