<?xml version="1.0" standalone="no"?>
<!DOCTYPE svg PUBLIC "-//W3C//DTD SVG 20010904//EN"
 "http://www.w3.org/TR/2001/REC-SVG-20010904/DTD/svg10.dtd">
<svg version="1.0" xmlns="http://www.w3.org/2000/svg"
 width="32.000000pt" height="32.000000pt" viewBox="0 0 32.000000 32.000000"
 preserveAspectRatio="xMidYMid meet">
<metadata>
Created by potrace 1.16, written by Peter Selinger 2001-2019
</metadata>
<g transform="translate(0.000000,32.000000) scale(0.100000,-0.100000)"
fill="#000000" stroke="none">
<path fill="#000000" stroke="none" d="M0 160 l0 -160 160 0 160 0 0 160 0
160 -160 0 -160 0 0 -160z"/>
<path fill="#ffffff" stroke="none" d="M70 307 c0 -2 -13 -16 -30 -32 l-30
-29 0 32 c0 29 3 32 30 32 17 0 30 -1 30 -3z"/>
<path fill="#ffffff" stroke="none" d="M310 278 l0 -32 -30 29 c-16 16 -30 30
-30 32 0 2 14 3 30 3 27 0 30 -3 30 -32z"/>
<path fill="#ffffff" stroke="none" d="M267 268 c32 -31 33 -35 33 -107 0 -71
-2 -77 -32 -108 -31 -32 -35 -33 -107 -33 -71 0 -77 2 -108 32 -32 31 -33 35
-33 107 0 71 2 77 32 108 31 32 35 33 107 33 71 0 77 -2 108 -32z"/>
<path fill="#ffffff" stroke="none" d="M45 40 l29 -30 -32 0 c-29 0 -32 3 -32
30 0 17 1 30 3 30 2 0 16 -13 32 -30z"/>
<path fill="#ffffff" stroke="none" d="M310 40 c0 -27 -3 -30 -32 -30 l-32 0
29 30 c16 17 30 30 32 30 2 0 3 -13 3 -30z"/>
<path fill="#000000" stroke="none" d="M125 246 c8 -6 22 -20 31 -31 8 -11 13
-14 9 -7 -10 20 15 43 38 36 12 -4 17 -2 13 4 -3 5 -28 9 -55 9 -37 -1 -46 -3
-36 -11z"/>
<path fill="#000000" stroke="none" d="M102 202 c-12 -12 -22 -31 -22 -43 0
-14 -5 -19 -14 -16 -8 3 -17 -1 -20 -10 -4 -11 -2 -14 9 -9 17 6 20 -5 5 -20
-12 -12 2 -28 36 -38 19 -6 22 0 34 54 9 41 10 68 3 82 l-9 22 -22 -22z"/>
<path fill="#000000" stroke="none" d="M175 183 c-3 -21 -10 -53 -16 -71 -6
-19 -8 -36 -5 -39 8 -8 25 41 28 81 3 55 13 31 13 -32 0 -50 2 -57 20 -57 14
0 21 8 23 24 3 18 6 21 12 10 5 -7 12 -11 15 -7 4 3 -2 14 -13 24 -10 11 -26
36 -35 56 -24 52 -35 55 -42 11z"/>
</g>
</svg>
