<?xml version="1.0" standalone="no"?>
<!DOCTYPE svg PUBLIC "-//W3C//DTD SVG 20010904//EN"
 "http://www.w3.org/TR/2001/REC-SVG-20010904/DTD/svg10.dtd">
<svg version="1.0" xmlns="http://www.w3.org/2000/svg"
 width="32.000000pt" height="32.000000pt" viewBox="0 0 32.000000 32.000000"
 preserveAspectRatio="xMidYMid meet">
<metadata>
Created by potrace 1.16, written by Peter Selinger 2001-2019
</metadata>
<g transform="translate(0.000000,32.000000) scale(0.100000,-0.100000)"
fill="#000000" stroke="none">
<path fill="#000000" stroke="none" d="M0 160 l0 -160 160 0 160 0 0 160 0
160 -160 0 -160 0 0 -160z"/>
<path fill="#ffffff" stroke="none" d="M277 278 c32 -31 33 -34 33 -117 0 -82
-1 -86 -32 -118 -31 -32 -34 -33 -117 -33 -82 0 -86 1 -118 32 -32 31 -33 34
-33 117 0 82 1 86 32 118 31 32 34 33 117 33 82 0 86 -1 118 -32z"/>
<path fill="#000000" stroke="none" d="M52 267 c-53 -55 -35 -120 19 -71 37
34 151 33 188 0 51 -46 58 24 8 72 -31 30 -37 32 -108 32 -72 0 -76 -1 -107
-33z"/>
<path fill="#000000" stroke="none" d="M20 112 c0 -19 11 -39 33 -60 31 -30
37 -32 108 -32 72 0 76 1 107 33 20 20 32 43 32 59 0 26 -2 26 -30 17 -16 -6
-30 -17 -30 -24 0 -8 -5 -17 -12 -21 -7 -4 -8 -3 -4 4 4 7 4 12 -1 13 -4 0
-16 2 -25 4 -10 2 -18 0 -18 -5 0 -4 -9 -10 -20 -13 -29 -8 -30 -8 -27 -1 2 5
-97 54 -109 54 -2 0 -4 -13 -4 -28z"/>
</g>
</svg>
