<?xml version="1.0" standalone="no"?>
<!DOCTYPE svg PUBLIC "-//W3C//DTD SVG 20010904//EN"
 "http://www.w3.org/TR/2001/REC-SVG-20010904/DTD/svg10.dtd">
<svg version="1.0" xmlns="http://www.w3.org/2000/svg"
 width="32.000000pt" height="32.000000pt" viewBox="0 0 32.000000 32.000000"
 preserveAspectRatio="xMidYMid meet">
<metadata>
Created by potrace 1.16, written by Peter Selinger 2001-2019
</metadata>
<g transform="translate(0.000000,32.000000) scale(0.100000,-0.100000)"
fill="#000000" stroke="none">
<path fill="#000000" stroke="none" d="M0 160 l0 -160 160 0 160 0 0 160 0
160 -160 0 -160 0 0 -160z"/>
<path fill="#ffffff" stroke="none" d="M277 278 c32 -31 33 -34 33 -117 0 -82
-1 -86 -32 -118 -31 -32 -34 -33 -117 -33 -82 0 -86 1 -118 32 -32 31 -33 34
-33 117 0 82 1 86 32 118 31 32 34 33 117 33 82 0 86 -1 118 -32z"/>
<path fill="#000000" stroke="none" d="M52 267 c-30 -31 -32 -37 -32 -108 0
-72 1 -76 33 -107 31 -30 37 -32 108 -32 72 0 76 1 107 33 30 31 32 37 32 108
0 72 -1 76 -33 107 -31 30 -37 32 -108 32 -72 0 -76 -1 -107 -33z"/>
<path fill="#ffffff" stroke="none" d="M245 249 c11 -17 0 -20 -21 -4 -17 13
-17 14 -2 15 9 0 20 -5 23 -11z"/>
<path fill="#ffffff" stroke="none" d="M227 215 l28 -26 -45 22 c-56 27 -58
29 -32 29 11 0 34 -11 49 -25z"/>
<path fill="#ffffff" stroke="none" d="M200 200 c33 -17 60 -33 60 -36 0 -3
-19 -14 -42 -24 -24 -11 -37 -20 -30 -20 7 0 27 7 43 16 35 17 59 13 59 -12 0
-10 -5 -14 -15 -10 -9 3 -31 -2 -50 -11 -34 -16 -36 -16 -96 12 -33 16 -63 33
-65 37 -3 5 14 17 38 28 24 11 37 20 30 20 -7 0 -27 -7 -43 -16 -34 -17 -59
-13 -59 11 0 11 6 15 18 11 9 -3 28 1 42 9 35 20 43 19 110 -15z"/>
<path fill="#ffffff" stroke="none" d="M159 84 c2 -2 -5 -4 -17 -4 -11 0 -34
11 -49 25 l-28 26 45 -22 c25 -12 47 -23 49 -25z"/>
<path fill="#ffffff" stroke="none" d="M106 63 c-8 -8 -36 5 -36 17 0 7 6 7
21 0 11 -7 18 -14 15 -17z"/>
</g>
</svg>
