<?xml version="1.0" standalone="no"?>
<!DOCTYPE svg PUBLIC "-//W3C//DTD SVG 20010904//EN"
 "http://www.w3.org/TR/2001/REC-SVG-20010904/DTD/svg10.dtd">
<svg version="1.0" xmlns="http://www.w3.org/2000/svg"
 width="32.000000pt" height="32.000000pt" viewBox="0 0 32.000000 32.000000"
 preserveAspectRatio="xMidYMid meet">
<metadata>
Created by potrace 1.16, written by Peter Selinger 2001-2019
</metadata>
<g transform="translate(0.000000,32.000000) scale(0.100000,-0.100000)"
fill="#000000" stroke="none">
<path fill="#000000" stroke="none" d="M70 275 c0 -20 -5 -25 -25 -25 l-25 0
0 -100 0 -100 25 6 c22 5 25 3 25 -20 l0 -26 95 0 95 0 0 26 c0 20 4 25 23 22
21 -3 22 0 25 95 l3 97 -28 1 c-25 0 -26 1 -8 9 17 7 17 9 3 9 -10 1 -18 8
-18 16 0 12 -17 15 -95 15 -95 0 -95 0 -95 -25z"/>
<path fill="#000000" stroke="none" d="M38 263 c7 -3 16 -2 19 1 4 3 -2 6 -13
5 -11 0 -14 -3 -6 -6z"/>
</g>
</svg>
