<?xml version="1.0" standalone="no"?>
<!DOCTYPE svg PUBLIC "-//W3C//DTD SVG 20010904//EN"
 "http://www.w3.org/TR/2001/REC-SVG-20010904/DTD/svg10.dtd">
<svg version="1.0" xmlns="http://www.w3.org/2000/svg"
 width="32.000000pt" height="32.000000pt" viewBox="0 0 32.000000 32.000000"
 preserveAspectRatio="xMidYMid meet">
<metadata>
Created by potrace 1.16, written by Peter Selinger 2001-2019
</metadata>
<g transform="translate(0.000000,32.000000) scale(0.100000,-0.100000)"
fill="#000000" stroke="none">
<path fill="#000000" stroke="none" d="M0 160 l0 -160 160 0 160 0 0 160 0
160 -160 0 -160 0 0 -160z"/>
<path fill="#ffffff" stroke="none" d="M250 275 c0 -20 5 -25 25 -25 24 0 25
-2 25 -65 l0 -65 -27 17 -28 18 17 -26 c23 -36 8 -50 -38 -36 -22 7 -33 15
-30 24 4 10 -1 10 -24 -2 -27 -14 -34 -13 -31 7 0 4 -6 5 -14 2 -20 -8 -19 5
3 30 15 19 15 19 0 7 -28 -21 -40 -4 -22 32 l16 32 -41 -40 c-42 -40 -50 -41
-30 -2 12 22 12 22 -10 3 l-21 -19 0 41 c0 38 2 42 25 42 20 0 25 5 25 25 0
25 1 25 90 25 89 0 90 0 90 -25z"/>
<path fill="#ffffff" stroke="none" d="M57 264 c-3 -3 -12 -4 -19 -1 -8 3 -5
6 6 6 11 1 17 -2 13 -5z"/>
<path fill="#ffffff" stroke="none" d="M287 264 c-3 -3 -12 -4 -19 -1 -8 3 -5
6 6 6 11 1 17 -2 13 -5z"/>
<path fill="#ffffff" stroke="none" d="M100 30 c0 -5 -8 -10 -17 -10 -15 0
-16 2 -3 10 19 12 20 12 20 0z"/>
</g>
</svg>
