<?xml version="1.0" standalone="no"?>
<!DOCTYPE svg PUBLIC "-//W3C//DTD SVG 20010904//EN"
 "http://www.w3.org/TR/2001/REC-SVG-20010904/DTD/svg10.dtd">
<svg version="1.0" xmlns="http://www.w3.org/2000/svg"
 width="32.000000pt" height="32.000000pt" viewBox="0 0 32.000000 32.000000"
 preserveAspectRatio="xMidYMid meet">
<metadata>
Created by potrace 1.16, written by Peter Selinger 2001-2019
</metadata>
<g transform="translate(0.000000,32.000000) scale(0.100000,-0.100000)"
fill="#000000" stroke="none">
<path fill="#000000" stroke="none" d="M70 278 c0 -24 -20 -63 -20 -40 0 6 -7
12 -15 12 -10 0 -15 -11 -15 -35 l0 -35 26 17 c27 17 27 17 15 -5 -11 -22 -11
-22 8 -10 12 7 21 16 21 19 0 4 12 15 28 25 21 14 24 14 14 2 -7 -9 -15 -28
-18 -43 -4 -23 -3 -25 15 -15 17 9 19 8 15 -5 -4 -8 -10 -15 -15 -15 -5 0 -9
-5 -9 -11 0 -6 7 -9 14 -6 10 4 13 1 9 -9 -7 -18 1 -18 40 3 26 13 30 13 20 1
-11 -12 -9 -17 13 -26 54 -25 71 -6 34 41 -13 16 -16 28 -10 32 9 6 14 0 12
-16 -1 -3 10 -11 23 -17 l25 -12 0 60 c0 57 -1 60 -25 60 -20 0 -25 5 -25 25
0 25 -1 25 -90 25 -87 0 -90 -1 -90 -22z"/>
<path fill="#000000" stroke="none" d="M38 263 c7 -3 16 -2 19 1 4 3 -2 6 -13
5 -11 0 -14 -3 -6 -6z"/>
<path fill="#000000" stroke="none" d="M268 263 c7 -3 16 -2 19 1 4 3 -2 6
-13 5 -11 0 -14 -3 -6 -6z"/>
</g>
</svg>
