<?xml version="1.0" standalone="no"?>
<!DOCTYPE svg PUBLIC "-//W3C//DTD SVG 20010904//EN"
 "http://www.w3.org/TR/2001/REC-SVG-20010904/DTD/svg10.dtd">
<svg version="1.0" xmlns="http://www.w3.org/2000/svg"
 width="32.000000pt" height="32.000000pt" viewBox="0 0 32.000000 32.000000"
 preserveAspectRatio="xMidYMid meet">
<metadata>
Created by potrace 1.16, written by Peter Selinger 2001-2019
</metadata>
<g transform="translate(0.000000,32.000000) scale(0.100000,-0.100000)"
fill="#000000" stroke="none">
<path fill="#000000" stroke="none" d="M0 160 l0 -160 160 0 160 0 0 160 0
160 -72 -2 c-48 -1 -59 -3 -30 -5 37 -4 42 -7 42 -29 0 -19 5 -24 25 -24 l25
0 0 -100 0 -100 -25 0 c-20 0 -25 -5 -25 -25 l0 -25 -100 0 -100 0 0 25 c0 20
-5 25 -25 25 l-25 0 0 100 0 100 25 0 c20 0 25 5 25 25 0 22 4 24 58 28 44 2
37 4 -30 5 l-88 2 0 -160z"/>
<path fill="#000000" stroke="none" d="M70 275 c0 -20 -5 -25 -25 -25 -25 0
-25 -1 -25 -90 0 -89 0 -90 25 -90 20 0 25 -5 25 -25 0 -25 1 -25 90 -25 89 0
90 0 90 25 0 20 5 25 25 25 25 0 25 1 25 90 0 89 0 90 -25 90 -20 0 -25 5 -25
25 0 25 -1 25 -90 25 -89 0 -90 0 -90 -25z"/>
<path fill="#ffffff" stroke="none" d="M188 224 c42 -29 20 -104 -28 -91 -11
3 -20 1 -20 -4 0 -16 25 -20 55 -9 26 10 27 9 14 -6 -12 -15 -11 -16 11 -9 14
4 33 17 42 29 12 14 18 16 18 7 0 -8 -10 -25 -22 -38 -26 -28 -91 -32 -126 -7
-42 29 -20 104 28 91 11 -3 20 -1 20 4 0 16 -25 20 -55 9 -26 -10 -27 -9 -14
6 12 15 11 16 -11 9 -14 -4 -33 -17 -42 -29 -12 -14 -18 -16 -18 -7 0 8 10 25
22 38 26 28 91 32 126 7z"/>
</g>
</svg>
