<?xml version="1.0" standalone="no"?>
<!DOCTYPE svg PUBLIC "-//W3C//DTD SVG 20010904//EN"
 "http://www.w3.org/TR/2001/REC-SVG-20010904/DTD/svg10.dtd">
<svg version="1.0" xmlns="http://www.w3.org/2000/svg"
 width="32.000000pt" height="32.000000pt" viewBox="0 0 32.000000 32.000000"
 preserveAspectRatio="xMidYMid meet">
<metadata>
Created by potrace 1.16, written by Peter Selinger 2001-2019
</metadata>
<g transform="translate(0.000000,32.000000) scale(0.100000,-0.100000)"
fill="#000000" stroke="none">
<path fill="#000000" stroke="none" d="M2 213 c1 -84 3 -93 5 -38 4 63 7 73
35 103 31 31 34 32 118 32 85 0 87 0 119 -34 l34 -35 -5 -104 c-2 -57 -8 -109
-12 -115 -5 -8 -43 -12 -115 -12 l-107 0 -31 32 c-17 18 -33 40 -36 48 -3 8
-6 -9 -6 -37 l-1 -53 160 0 160 0 0 160 0 160 -160 0 -160 0 2 -107z"/>
<path fill="#000000" stroke="none" d="M52 267 c-30 -31 -32 -37 -32 -108 0
-72 1 -76 33 -107 31 -30 37 -32 108 -32 72 0 76 1 107 33 30 31 32 37 32 108
0 72 -1 76 -33 107 -31 30 -37 32 -108 32 -72 0 -76 -1 -107 -33z"/>
<path fill="#ffffff" stroke="none" d="M226 184 c-8 -22 -36 -17 -36 7 0 17
-3 19 -14 10 -10 -8 -16 -8 -25 3 -9 11 -4 20 26 47 l38 32 8 -42 c5 -23 6
-49 3 -57z"/>
<path fill="#ffffff" stroke="none" d="M125 190 c4 -6 1 -18 -6 -26 -11 -13
-10 -18 4 -25 9 -5 14 -16 11 -24 -5 -11 -14 -10 -50 8 l-45 22 33 27 c37 30
44 33 53 18z"/>
<path fill="#ffffff" stroke="none" d="M234 128 c3 -13 6 -35 6 -50 l0 -28
-45 22 c-46 22 -55 45 -17 41 12 -2 22 5 25 17 7 27 23 25 31 -2z"/>
<path fill="#000000" stroke="none" d="M270 35 c-10 -12 -10 -15 4 -15 9 0 16
7 16 15 0 8 -2 15 -4 15 -2 0 -9 -7 -16 -15z"/>
</g>
</svg>
