<?xml version="1.0" standalone="no"?>
<!DOCTYPE svg PUBLIC "-//W3C//DTD SVG 20010904//EN"
 "http://www.w3.org/TR/2001/REC-SVG-20010904/DTD/svg10.dtd">
<svg version="1.0" xmlns="http://www.w3.org/2000/svg"
 width="32.000000pt" height="32.000000pt" viewBox="0 0 32.000000 32.000000"
 preserveAspectRatio="xMidYMid meet">
<metadata>
Created by potrace 1.16, written by Peter Selinger 2001-2019
</metadata>
<g transform="translate(0.000000,32.000000) scale(0.100000,-0.100000)"
fill="#000000" stroke="none">
<path fill="#000000" stroke="none" d="M42 277 c-31 -32 -32 -36 -32 -118 0
-84 0 -85 35 -119 19 -18 37 -31 40 -29 2 3 -11 21 -30 39 -34 33 -35 36 -35
110 0 73 1 77 33 108 31 30 37 32 108 32 73 0 76 -1 109 -35 18 -19 36 -32 39
-30 2 3 -11 21 -29 40 -34 35 -35 35 -120 35 -84 0 -87 -1 -118 -33z"/>
<path fill="#000000" stroke="none" d="M171 241 c-23 -19 -30 -30 -22 -35 6
-4 18 -2 26 4 12 10 15 9 15 -7 0 -24 8 -33 25 -27 9 4 10 15 3 47 -5 23 -10
42 -11 43 -1 2 -17 -10 -36 -25z"/>
<path fill="#000000" stroke="none" d="M82 171 l-33 -27 37 -17 c41 -20 56
-15 31 10 -15 15 -15 19 -1 34 26 29 1 29 -34 0z"/>
<path fill="#000000" stroke="none" d="M291 43 c-1 -14 -9 -23 -23 -26 l-23
-4 23 -2 c24 -1 38 19 29 41 -3 7 -6 3 -6 -9z"/>
</g>
</svg>
