<?xml version="1.0" standalone="no"?>
<!DOCTYPE svg PUBLIC "-//W3C//DTD SVG 20010904//EN"
 "http://www.w3.org/TR/2001/REC-SVG-20010904/DTD/svg10.dtd">
<svg version="1.0" xmlns="http://www.w3.org/2000/svg"
 width="32.000000pt" height="32.000000pt" viewBox="0 0 32.000000 32.000000"
 preserveAspectRatio="xMidYMid meet">
<metadata>
Created by potrace 1.16, written by Peter Selinger 2001-2019
</metadata>
<g transform="translate(0.000000,32.000000) scale(0.100000,-0.100000)"
fill="#000000" stroke="none">
<path fill="#000000" stroke="none" d="M0 160 l0 -160 160 0 160 0 0 160 0
160 -72 -2 c-48 -1 -59 -3 -30 -5 37 -4 42 -7 42 -29 0 -19 5 -24 25 -24 l25
0 0 -100 0 -100 -25 0 c-20 0 -25 -5 -25 -25 l0 -25 -100 0 -100 0 0 25 c0 20
-5 25 -25 25 l-25 0 0 100 0 100 25 0 c20 0 25 5 25 25 0 22 4 24 58 28 44 2
37 4 -30 5 l-88 2 0 -160z"/>
<path fill="#000000" stroke="none" d="M70 275 c0 -20 -5 -25 -25 -25 -25 0
-25 -1 -25 -90 0 -89 0 -90 25 -90 26 0 28 4 27 71 -1 24 6 43 18 54 13 12 20
31 20 56 l0 39 50 -1 50 -2 0 -37 c0 -24 7 -43 20 -55 12 -11 19 -30 18 -54
-1 -67 1 -71 27 -71 25 0 25 1 25 90 0 89 0 90 -25 90 -20 0 -25 5 -25 25 0
25 -1 25 -90 25 -89 0 -90 0 -90 -25z"/>
<path fill="#000000" stroke="none" d="M88 72 c-11 -2 -18 -13 -18 -28 0 -24
1 -24 90 -24 88 0 90 0 90 24 0 15 -7 26 -20 29 -16 4 -20 0 -20 -19 0 -22 -4
-24 -49 -24 -44 0 -50 3 -53 23 -2 15 -9 21 -20 19z"/>
</g>
</svg>
