<?xml version="1.0" standalone="no"?>
<!DOCTYPE svg PUBLIC "-//W3C//DTD SVG 20010904//EN"
 "http://www.w3.org/TR/2001/REC-SVG-20010904/DTD/svg10.dtd">
<svg version="1.0" xmlns="http://www.w3.org/2000/svg"
 width="32.000000pt" height="32.000000pt" viewBox="0 0 32.000000 32.000000"
 preserveAspectRatio="xMidYMid meet">
<metadata>
Created by potrace 1.16, written by Peter Selinger 2001-2019
</metadata>
<g transform="translate(0.000000,32.000000) scale(0.100000,-0.100000)"
fill="#000000" stroke="none">
<path fill="#000000" stroke="none" d="M60 285 c0 -20 -5 -25 -25 -25 l-25 0
2 -102 2 -103 3 98 c4 96 4 97 28 97 20 0 25 5 25 25 0 24 2 24 93 28 l92 3
-97 2 -98 2 0 -25z"/>
<path fill="#000000" stroke="none" d="M130 231 c0 -28 -5 -53 -11 -56 -7 -5
-5 -13 7 -26 13 -14 15 -28 10 -64 l-7 -45 31 0 31 0 -7 45 c-5 36 -3 50 10
64 12 13 14 21 7 26 -6 3 -11 28 -11 56 0 48 -1 49 -30 49 -29 0 -30 -1 -30
-49z"/>
<path fill="#ffffff" stroke="none" d="M180 226 c0 -25 5 -48 11 -51 7 -5 4
-13 -7 -26 -13 -14 -15 -28 -10 -59 6 -36 4 -40 -14 -40 -18 0 -20 4 -14 40 5
31 3 45 -10 59 -11 13 -14 21 -7 26 6 3 11 26 11 51 0 37 3 44 20 44 17 0 20
-7 20 -44z"/>
</g>
</svg>
