<?xml version="1.0" standalone="no"?>
<!DOCTYPE svg PUBLIC "-//W3C//DTD SVG 20010904//EN"
 "http://www.w3.org/TR/2001/REC-SVG-20010904/DTD/svg10.dtd">
<svg version="1.0" xmlns="http://www.w3.org/2000/svg"
 width="32.000000pt" height="32.000000pt" viewBox="0 0 32.000000 32.000000"
 preserveAspectRatio="xMidYMid meet">
<metadata>
Created by potrace 1.16, written by Peter Selinger 2001-2019
</metadata>
<g transform="translate(0.000000,32.000000) scale(0.100000,-0.100000)"
fill="#000000" stroke="none">
<path fill="#000000" stroke="none" d="M0 160 l0 -160 160 0 160 0 0 160 0
160 -160 0 -160 0 0 -160z"/>
<path fill="#ffffff" stroke="none" d="M280 275 c18 -19 31 -37 29 -40 -3 -2
-21 11 -39 30 -33 34 -36 35 -109 35 -71 0 -77 -2 -108 -32 -32 -31 -33 -35
-33 -108 0 -74 1 -77 35 -110 19 -18 32 -36 30 -39 -3 -2 -21 11 -40 29 -35
34 -35 35 -35 119 0 82 1 86 32 118 31 32 34 33 118 33 85 0 86 0 120 -35z"/>
<path fill="#ffffff" stroke="none" d="M178 278 c17 -17 15 -63 -2 -78 -22
-17 -60 -8 -64 15 -3 16 -1 18 9 8 19 -19 37 -16 44 8 13 40 -37 47 -77 11
-31 -26 -21 -50 32 -83 28 -17 50 -36 51 -42 1 -7 4 -1 8 12 6 24 8 22 48 -27
35 -45 42 -50 53 -37 7 9 15 14 17 11 2 -2 -9 -18 -26 -35 -17 -18 -31 -28
-31 -23 0 4 5 13 12 20 9 9 -3 12 -57 12 -63 0 -67 1 -49 15 18 14 18 14 1 15
-28 0 -104 67 -112 97 -8 35 12 81 44 98 32 18 83 19 99 3z"/>
</g>
</svg>
