<?xml version="1.0" standalone="no"?>
<!DOCTYPE svg PUBLIC "-//W3C//DTD SVG 20010904//EN"
 "http://www.w3.org/TR/2001/REC-SVG-20010904/DTD/svg10.dtd">
<svg version="1.0" xmlns="http://www.w3.org/2000/svg"
 width="32.000000pt" height="32.000000pt" viewBox="0 0 32.000000 32.000000"
 preserveAspectRatio="xMidYMid meet">
<metadata>
Created by potrace 1.16, written by Peter Selinger 2001-2019
</metadata>
<g transform="translate(0.000000,32.000000) scale(0.100000,-0.100000)"
fill="#000000" stroke="none">
<path fill="#000000" stroke="none" d="M17 303 c-11 -10 -8 -61 4 -69 6 -3 16
-1 22 5 6 6 15 11 19 11 14 0 4 -94 -10 -106 -12 -8 -11 -16 1 -46 19 -46 52
-68 102 -68 50 0 83 22 102 68 12 30 13 38 1 46 -16 14 -23 106 -8 106 6 0 9
-4 6 -9 -3 -5 1 -14 9 -21 18 -15 45 3 45 30 0 34 -25 41 -144 41 -64 1 -118
5 -122 10 -6 11 -18 12 -27 2z"/>
<path fill="#ffffff" stroke="none" d="M40 291 c0 -5 53 -10 120 -10 66 0 124
-3 130 -6 13 -8 13 -42 -1 -51 -6 -3 -16 -1 -22 5 -8 8 -8 11 1 11 7 0 12 5
12 10 0 6 -11 10 -25 10 -24 0 -25 -2 -23 -56 1 -34 8 -58 16 -63 11 -6 11
-14 -1 -44 -18 -42 -42 -57 -92 -57 -50 0 -74 15 -92 57 -12 30 -12 38 -1 44
8 5 15 29 16 63 2 50 0 56 -18 56 -11 0 -20 -4 -20 -10 0 -5 -4 -10 -10 -10
-5 0 -10 14 -10 30 0 17 5 30 10 30 6 0 10 -4 10 -9z"/>
<path fill="#000000" stroke="none" d="M90 238 c0 -22 4 -23 65 -23 61 0 65 1
65 23 0 21 -4 22 -65 22 -61 0 -65 -1 -65 -22z"/>
<path fill="#ffffff" stroke="none" d="M210 238 c0 -9 -18 -13 -55 -13 -37 0
-55 4 -55 13 0 8 18 12 55 12 37 0 55 -4 55 -12z"/>
</g>
</svg>
