<?xml version="1.0" standalone="no"?>
<!DOCTYPE svg PUBLIC "-//W3C//DTD SVG 20010904//EN"
 "http://www.w3.org/TR/2001/REC-SVG-20010904/DTD/svg10.dtd">
<svg version="1.0" xmlns="http://www.w3.org/2000/svg"
 width="32.000000pt" height="32.000000pt" viewBox="0 0 32.000000 32.000000"
 preserveAspectRatio="xMidYMid meet">
<metadata>
Created by potrace 1.16, written by Peter Selinger 2001-2019
</metadata>
<g transform="translate(0.000000,32.000000) scale(0.100000,-0.100000)"
fill="#000000" stroke="none">
<path fill="#000000" stroke="none" d="M276 243 c-6 -14 -5 -15 5 -6 7 7 10
15 7 18 -3 3 -9 -2 -12 -12z"/>
<path fill="#000000" stroke="none" d="M86 211 c2 -2 -1 -10 -6 -16 -7 -9 -5
-17 7 -26 16 -13 17 -12 5 3 -16 20 -7 27 56 38 l47 8 -57 -1 c-31 -1 -54 -4
-52 -6z"/>
<path fill="#000000" stroke="none" d="M146 169 c4 -8 30 -6 38 2 3 3 -5 5
-19 5 -13 0 -22 -3 -19 -7z"/>
</g>
</svg>
