<?xml version="1.0" standalone="no"?>
<!DOCTYPE svg PUBLIC "-//W3C//DTD SVG 20010904//EN"
 "http://www.w3.org/TR/2001/REC-SVG-20010904/DTD/svg10.dtd">
<svg version="1.0" xmlns="http://www.w3.org/2000/svg"
 width="416.000000pt" height="416.000000pt" viewBox="0 0 416.000000 416.000000"
 preserveAspectRatio="xMidYMid meet">
<metadata>
Created by potrace 1.16, written by Peter Selinger 2001-2019
</metadata>
<g transform="translate(0.000000,416.000000) scale(0.100000,-0.100000)"
fill="#000000" stroke="none">
<path fill="#000000" stroke="none" d="M0 2080 l0 -2080 2080 0 2080 0 0 2080
0 2080 -2080 0 -2080 0 0 -2080z"/>
<path fill="#ffffff" stroke="none" d="M400 3790 c0 -15 7 -20 25 -20 25 0 26
-1 23 -62 -3 -57 -5 -63 -25 -66 -15 -2 -23 -10 -23 -23 0 -17 -7 -19 -65 -19
l-65 0 0 105 0 105 65 0 c58 0 65 -2 65 -20z"/>
<path fill="#ffffff" stroke="none" d="M578 3728 c-3 -77 -5 -83 -25 -86 -22
-3 -23 -1 -23 82 0 85 0 86 25 86 26 0 26 0 23 -82z"/>
<path fill="#ffffff" stroke="none" d="M708 3728 c-3 -77 -5 -83 -25 -86 -15
-2 -23 -10 -23 -23 0 -16 -7 -19 -45 -19 -38 0 -45 3 -45 20 0 17 7 20 45 20
l45 0 0 85 c0 84 0 85 25 85 26 0 26 0 23 -82z"/>
<path fill="#ffffff" stroke="none" d="M840 3790 c0 -13 7 -20 20 -20 13 0 20
-7 20 -20 0 -13 7 -20 20 -20 15 0 20 -7 20 -25 0 -18 5 -25 20 -25 18 0 20 7
20 65 0 63 1 65 25 65 l25 0 0 -105 0 -105 -25 0 c-18 0 -25 5 -25 20 0 13 -7
20 -20 20 -13 0 -20 7 -20 20 0 13 -7 20 -20 20 -15 0 -20 7 -20 25 0 18 -5
25 -20 25 -18 0 -20 -7 -20 -65 0 -63 -1 -65 -25 -65 l-25 0 0 105 0 105 25 0
c18 0 25 -5 25 -20z"/>
<path fill="#ffffff" stroke="none" d="M1270 3790 c0 -18 -7 -20 -70 -20 -63
0 -70 2 -70 20 0 18 7 20 70 20 63 0 70 -2 70 -20z"/>
<path fill="#ffffff" stroke="none" d="M1480 3790 c0 -17 -7 -20 -40 -20 -36
0 -40 -2 -40 -25 0 -22 4 -25 40 -25 33 0 40 -3 40 -20 0 -17 -7 -20 -40 -20
-33 0 -40 -3 -40 -20 0 -17 7 -20 40 -20 33 0 40 -3 40 -20 0 -18 -7 -20 -65
-20 l-65 0 0 105 0 105 65 0 c58 0 65 -2 65 -20z"/>
<path fill="#ffffff" stroke="none" d="M1690 3790 c0 -15 7 -20 25 -20 25 0
26 -1 23 -62 -3 -57 -5 -63 -25 -66 -15 -2 -23 -10 -23 -23 0 -16 -7 -19 -45
-19 -38 0 -45 3 -45 20 0 17 7 20 45 20 l45 0 0 65 0 65 -40 0 -39 0 -3 -62
c-3 -57 -5 -63 -25 -66 -22 -3 -23 0 -23 62 0 59 2 66 20 66 13 0 20 7 20 20
0 17 7 20 45 20 38 0 45 -3 45 -20z"/>
<path fill="#ffffff" stroke="none" d="M1870 3790 c0 -13 7 -20 20 -20 13 0
20 -7 20 -20 0 -13 7 -20 20 -20 15 0 20 -7 20 -25 0 -18 5 -25 20 -25 18 0
20 7 20 65 0 63 1 65 25 65 l25 0 0 -105 0 -105 -25 0 c-18 0 -25 5 -25 20 0
13 -7 20 -20 20 -13 0 -20 7 -20 20 0 13 -7 20 -20 20 -15 0 -20 7 -20 25 0
18 -5 25 -20 25 -18 0 -20 -7 -20 -65 0 -63 -1 -65 -25 -65 l-25 0 0 105 0
105 25 0 c18 0 25 -5 25 -20z"/>
<path fill="#ffffff" stroke="none" d="M2420 3790 c0 -15 7 -20 25 -20 18 0
25 -5 25 -20 0 -15 -7 -20 -25 -20 -18 0 -25 5 -25 20 0 17 -7 20 -40 20 l-40
0 0 -65 0 -65 40 0 c33 0 40 3 40 20 0 15 7 20 25 20 18 0 25 -5 25 -20 0 -15
-7 -20 -25 -20 -18 0 -25 -5 -25 -20 0 -17 -7 -20 -45 -20 -38 0 -45 3 -45 20
0 13 -7 20 -20 20 -18 0 -20 7 -20 65 0 58 2 65 20 65 13 0 20 7 20 20 0 17 7
20 45 20 38 0 45 -3 45 -20z"/>
<path fill="#ffffff" stroke="none" d="M2680 3790 c0 -15 7 -20 25 -20 18 0
25 -5 25 -20 0 -15 -7 -20 -25 -20 -23 0 -25 -4 -25 -45 0 -41 2 -45 25 -45
18 0 25 -5 25 -20 0 -15 -7 -20 -25 -20 -18 0 -25 5 -25 20 0 13 -7 20 -20 20
-13 0 -20 7 -20 20 0 13 -7 20 -20 20 -17 0 -20 -7 -20 -40 0 -36 -2 -40 -25
-40 l-25 0 0 105 0 105 65 0 c58 0 65 -2 65 -20z"/>
<path fill="#ffffff" stroke="none" d="M2930 3790 c0 -15 7 -20 25 -20 25 0
25 -1 25 -85 0 -84 0 -85 -25 -85 -22 0 -25 4 -25 40 l0 40 -40 0 -40 0 0 -40
c0 -36 -2 -40 -25 -40 -25 0 -25 1 -25 85 0 84 0 85 25 85 18 0 25 5 25 20 0
17 7 20 40 20 33 0 40 -3 40 -20z"/>
<path fill="#ffffff" stroke="none" d="M3108 3728 c-3 -77 -5 -83 -25 -86 -22
-3 -23 -1 -23 82 0 85 0 86 25 86 26 0 26 0 23 -82z"/>
<path fill="#ffffff" stroke="none" d="M3280 3724 c0 -83 -1 -85 -22 -82 -21
3 -23 9 -26 86 -3 82 -3 82 23 82 25 0 25 -1 25 -86z"/>
<path fill="#ffffff" stroke="none" d="M3410 3725 l0 -85 40 0 c33 0 40 -3 40
-20 0 -18 -7 -20 -65 -20 l-65 0 0 105 0 105 25 0 c25 0 25 -1 25 -85z"/>
<path fill="#ffffff" stroke="none" d="M3190 3705 c0 -63 1 -65 25 -65 18 0
25 -5 25 -20 0 -15 -7 -20 -25 -20 -18 0 -25 5 -25 20 0 13 -7 20 -20 20 -13
0 -20 -7 -20 -20 0 -15 -7 -20 -25 -20 -18 0 -25 5 -25 20 0 15 7 20 25 20 24
0 25 2 25 65 0 58 2 65 20 65 18 0 20 -7 20 -65z"/>
<path fill="#ffffff" stroke="none" d="M1140 3700 l0 -60 40 0 c33 0 40 3 40
20 0 13 -7 20 -20 20 -13 0 -20 7 -20 20 0 17 7 20 45 20 l45 0 0 -40 c0 -36
-2 -40 -25 -40 -18 0 -25 -5 -25 -20 0 -17 -7 -20 -45 -20 -38 0 -45 3 -45 20
0 13 -7 20 -20 20 -18 0 -20 7 -20 60 0 57 1 60 25 60 24 0 25 -3 25 -60z"/>
<path fill="#ffffff" stroke="none" d="M2290 3465 c0 -11 -12 -15 -45 -15 -33
0 -45 -4 -45 -15 0 -10 10 -15 30 -15 17 0 30 -4 30 -10 0 -5 7 -10 15 -10 8
0 15 -7 15 -15 0 -8 -7 -15 -15 -15 -8 0 -15 -7 -15 -15 0 -11 -12 -15 -45
-15 -33 0 -45 4 -45 15 0 11 12 15 45 15 33 0 45 4 45 15 0 10 -10 15 -30 15
-16 0 -30 5 -30 10 0 6 -7 10 -15 10 -8 0 -15 7 -15 15 0 8 7 15 15 15 8 0 15
7 15 15 0 11 12 15 45 15 33 0 45 -4 45 -15z"/>
<path fill="#ffffff" stroke="none" d="M2440 3465 c0 -8 -7 -15 -15 -15 -12 0
-15 -13 -15 -55 0 -42 -3 -55 -15 -55 -12 0 -15 13 -15 55 0 42 -3 55 -15 55
-8 0 -15 7 -15 15 0 11 12 15 45 15 33 0 45 -4 45 -15z"/>
<path fill="#ffffff" stroke="none" d="M2586 3466 c16 -16 19 -96 4 -96 -5 0
-10 -7 -10 -15 0 -10 -10 -15 -30 -15 -20 0 -30 5 -30 15 0 8 -7 15 -15 15
-11 0 -15 12 -15 45 0 33 4 45 15 45 8 0 15 5 15 10 0 15 49 12 66 -4z"/>
<path fill="#ffffff" stroke="none" d="M2690 3465 c0 -8 5 -15 11 -15 7 0 22
-11 35 -25 13 -14 26 -25 29 -25 3 0 5 18 5 40 0 29 4 40 15 40 12 0 15 -14
15 -70 0 -56 -3 -70 -15 -70 -8 0 -15 7 -15 15 0 8 -5 15 -11 15 -7 0 -22 11
-35 25 -13 14 -26 25 -29 25 -3 0 -5 -18 -5 -40 0 -29 -4 -40 -15 -40 -12 0
-15 14 -15 70 0 56 3 70 15 70 8 0 15 -7 15 -15z"/>
<path fill="#ffffff" stroke="none" d="M2950 3465 c0 -10 -10 -15 -30 -15 -20
0 -30 -5 -30 -15 0 -10 10 -15 30 -15 20 0 30 -5 30 -15 0 -10 -10 -15 -30
-15 -16 0 -30 -4 -30 -10 0 -5 14 -10 30 -10 20 0 30 -5 30 -15 0 -11 -12 -15
-45 -15 l-45 0 0 70 0 70 45 0 c33 0 45 -4 45 -15z"/>
<path fill="#ffffff" stroke="none" d="M3230 3465 c0 -11 -11 -15 -40 -15 -29
0 -40 -4 -40 -15 0 -9 10 -15 26 -15 26 0 54 -20 54 -39 0 -6 -4 -11 -10 -11
-5 0 -10 -7 -10 -15 0 -11 -12 -15 -45 -15 -33 0 -45 4 -45 15 0 11 11 15 40
15 29 0 40 4 40 15 0 9 -9 15 -25 15 -14 0 -25 5 -25 10 0 6 -7 10 -15 10 -8
0 -15 7 -15 15 0 8 7 15 15 15 8 0 15 7 15 15 0 11 11 15 40 15 29 0 40 -4 40
-15z"/>
<path fill="#ffffff" stroke="none" d="M3386 3466 c16 -16 19 -96 4 -96 -5 0
-10 -7 -10 -15 0 -10 -10 -15 -30 -15 -20 0 -30 5 -30 15 0 8 -7 15 -15 15
-11 0 -15 12 -15 45 0 33 4 45 15 45 8 0 15 5 15 10 0 15 49 12 66 -4z"/>
<path fill="#ffffff" stroke="none" d="M3490 3425 c0 -52 1 -55 25 -55 24 0
25 3 25 55 0 42 3 55 15 55 12 0 15 -13 15 -55 0 -30 -4 -55 -10 -55 -5 0 -10
-7 -10 -15 0 -10 -10 -15 -30 -15 -20 0 -30 5 -30 15 0 8 -7 15 -15 15 -12 0
-15 13 -15 55 0 42 3 55 15 55 12 0 15 -13 15 -55z"/>
<path fill="#ffffff" stroke="none" d="M3720 3470 c0 -5 7 -10 15 -10 8 0 15
-9 15 -20 0 -11 -7 -20 -15 -20 -8 0 -15 -7 -15 -15 0 -10 -10 -15 -30 -15
-25 0 -30 -4 -30 -25 0 -16 -6 -25 -15 -25 -12 0 -15 14 -15 70 l0 70 45 0
c25 0 45 -4 45 -10z"/>
<path fill="#ffffff" stroke="none" d="M1418 3429 c-10 -6 -10 -11 -1 -20 9
-9 8 -15 -4 -27 -14 -15 -17 -14 -33 6 -10 12 -23 22 -29 22 -23 0 -9 16 22
26 37 11 68 7 45 -7z"/>
<path fill="#ffffff" stroke="none" d="M1510 3404 c0 -10 -28 -34 -40 -34 -8
0 -8 6 0 20 10 18 40 29 40 14z"/>
<path fill="#ffffff" stroke="none" d="M1430 3360 c0 -5 -5 -10 -11 -10 -5 0
-7 5 -4 10 3 6 8 10 11 10 2 0 4 -4 4 -10z"/>
<path fill="#ffffff" stroke="none" d="M1354 3316 c-25 -19 -8 -36 29 -29 31
6 36 20 10 25 -11 3 -5 6 14 9 23 4 36 0 47 -12 13 -16 13 -19 -5 -24 -11 -4
-19 -14 -17 -23 4 -26 -20 -62 -37 -56 -8 4 -15 2 -15 -2 0 -12 -49 -9 -83 5
-16 6 -37 11 -47 11 -10 0 -21 8 -24 17 -4 10 -4 15 -1 11 4 -3 15 1 25 10 50
45 52 46 62 29 5 -10 14 -17 20 -17 6 0 5 6 -3 16 -11 14 -10 18 6 30 10 8 23
14 29 14 5 0 1 -6 -10 -14z"/>
<path fill="#ffffff" stroke="none" d="M1260 3305 c0 -2 -9 -9 -20 -15 -12 -6
-20 -7 -20 -1 0 5 8 12 18 14 9 3 18 5 20 6 1 0 2 -1 2 -4z"/>
<path fill="#ffffff" stroke="none" d="M3174 3275 c3 -8 1 -15 -4 -15 -6 0
-10 7 -10 15 0 8 2 15 4 15 2 0 6 -7 10 -15z"/>
<path fill="#ffffff" stroke="none" d="M1787 3174 c-3 -3 -12 -4 -19 -1 -8 3
-5 6 6 6 11 1 17 -2 13 -5z"/>
<path fill="#ffffff" stroke="none" d="M2238 3152 c5 -17 -13 -15 -27 2 -10
12 -9 14 5 12 10 -2 20 -8 22 -14z"/>
<path fill="#ffffff" stroke="none" d="M2277 3148 c5 -7 7 -24 4 -37 l-7 -24
-15 24 c-16 24 -15 49 1 49 4 0 12 -6 17 -12z"/>
<path fill="#ffffff" stroke="none" d="M1699 3117 c-2 -1 -24 -17 -48 -36 -50
-39 -120 -59 -132 -39 -7 10 -9 10 -9 1 0 -7 -8 -13 -17 -13 -14 0 -13 3 6 16
13 9 34 17 47 17 13 0 27 3 30 8 3 5 14 9 25 9 11 0 17 4 14 10 -3 5 0 7 7 5
8 -3 22 2 33 11 20 16 20 16 0 9 -13 -4 -16 -3 -10 3 14 14 49 20 54 9 1 -4 1
-9 0 -10z"/>
<path fill="#ffffff" stroke="none" d="M3136 3041 c21 -11 49 -30 62 -43 21
-23 21 -25 5 -40 -15 -14 -80 -22 -67 -9 2 3 -3 15 -12 29 -14 22 -36 82 -30
82 1 0 20 -9 42 -19z"/>
<path fill="#ffffff" stroke="none" d="M3605 3000 c3 -11 3 -30 0 -41 -7 -21
-8 -20 -28 11 -17 27 -18 33 -6 41 21 13 27 11 34 -11z"/>
<path fill="#ffffff" stroke="none" d="M2126 2892 c-23 -23 -86 -47 -86 -32 0
16 62 80 71 74 5 -3 12 3 16 13 6 16 8 15 14 -7 4 -18 0 -31 -15 -48z"/>
<path fill="#ffffff" stroke="none" d="M3573 2935 c-7 -21 -13 -19 -13 6 0 11
4 18 10 14 5 -3 7 -12 3 -20z"/>
<path fill="#ffffff" stroke="none" d="M1109 2907 c8 -10 2 -21 -24 -47 -31
-31 -50 -32 -25 -2 7 9 7 9 -2 2 -7 -5 -22 -10 -34 -10 -21 0 -22 3 -13 29 10
28 16 32 75 40 6 0 17 -5 23 -12z"/>
<path fill="#ffffff" stroke="none" d="M1833 2880 l42 -39 -28 -1 c-49 0 -117
46 -102 70 13 20 47 9 88 -30z"/>
<path fill="#ffffff" stroke="none" d="M2957 2880 c22 -10 47 -29 54 -42 23
-36 40 -80 29 -73 -5 3 -11 -2 -12 -12 0 -10 -2 -27 -3 -38 -1 -11 -3 -37 -4
-57 -1 -29 -4 -36 -16 -32 -9 4 -15 0 -15 -10 0 -9 5 -16 10 -16 6 0 10 -4 10
-10 0 -5 -13 -10 -29 -10 -53 0 -57 -5 -55 -76 2 -56 -1 -67 -16 -71 -27 -7
-31 -69 -8 -115 10 -21 16 -38 12 -38 -4 0 0 -8 7 -17 12 -14 11 -14 -13 1
-27 18 -58 67 -58 93 0 7 -7 13 -15 13 -7 0 -19 8 -25 18 -10 15 -11 14 -7 -5
4 -20 1 -23 -22 -23 -23 0 -30 6 -39 38 -19 65 -20 81 -6 93 21 17 0 49 -29
43 -19 -3 -25 2 -34 29 -5 17 -8 23 -7 13 2 -11 -4 -25 -14 -32 -14 -10 -11
-14 26 -25 24 -7 38 -15 31 -19 -7 -5 -8 -13 -1 -26 15 -30 23 -84 12 -84 -6
0 -10 5 -10 10 0 6 -7 10 -15 10 -8 0 -22 8 -32 18 -10 10 -39 33 -65 51 -36
24 -54 30 -75 26 -32 -7 -96 -31 -133 -50 -14 -7 -42 -13 -63 -13 -21 -1 -43
-4 -49 -8 -13 -8 -28 14 -28 42 0 16 16 28 68 52 37 18 72 32 79 32 6 0 14 7
17 16 3 8 10 12 16 9 5 -3 10 1 10 9 0 19 31 21 63 5 13 -6 7 3 -15 23 -20 18
-39 43 -42 54 -6 19 -2 22 39 26 54 7 54 7 61 44 3 15 7 31 10 36 8 13 75 6
70 -8 -2 -6 1 -17 7 -23 9 -9 9 -14 -1 -20 -10 -6 -9 -10 7 -14 33 -8 26 -35
-11 -40 -26 -4 -24 -5 12 -5 67 -1 88 -10 95 -43 4 -16 3 -34 -1 -40 -5 -8 -3
-9 5 -5 8 5 12 3 10 -5 -4 -33 2 -70 10 -64 13 8 41 -35 41 -62 0 -17 -6 -23
-22 -24 -21 -1 -21 -2 -3 -6 11 -3 30 -14 43 -26 l22 -21 -2 99 c0 54 -7 133
-14 176 -10 66 -10 86 2 126 23 78 43 111 67 116 12 2 22 5 23 6 0 0 18 -8 41
-19z"/>
<path fill="#ffffff" stroke="none" d="M2487 2863 c3 -10 12 -25 18 -33 7 -8
15 -36 17 -62 3 -45 2 -48 -22 -49 -14 -1 -29 -1 -33 0 -4 1 -19 2 -32 3 -23
2 -25 6 -25 53 0 84 9 99 58 104 7 0 15 -7 19 -16z"/>
<path fill="#ffffff" stroke="none" d="M1226 2808 c10 -24 23 -46 28 -49 5 -4
7 -27 4 -51 -3 -29 -1 -45 6 -45 7 0 11 22 10 59 -1 66 10 74 41 28 12 -18 23
-26 29 -20 5 5 20 3 37 -6 34 -17 33 -13 13 -54 -17 -32 -17 -32 -71 -26 -35
4 -52 3 -48 -4 3 -5 -3 -19 -14 -31 -10 -11 -22 -30 -24 -41 -5 -17 0 -14 25
11 25 25 33 29 45 19 8 -6 24 -12 35 -13 20 -2 40 -23 33 -35 -2 -4 11 -22 30
-40 19 -19 35 -42 35 -52 0 -18 -33 -42 -44 -31 -3 3 -6 1 -6 -5 0 -6 -26 7
-59 29 -67 44 -76 47 -91 20 -5 -11 -24 -23 -42 -26 -18 -4 -42 -12 -53 -18
-11 -6 -23 -11 -27 -12 -3 0 -10 -3 -14 -7 -4 -5 -17 -8 -29 -8 -17 0 -24 8
-29 31 -12 62 -9 69 29 69 40 0 51 15 35 51 -10 22 -10 21 -6 -8 l6 -33 -50 0
c-46 0 -50 2 -50 24 0 14 5 28 11 32 6 4 9 19 5 35 -4 19 1 40 13 60 l18 30
22 -37 c12 -20 20 -43 17 -51 -3 -8 -1 -11 4 -8 6 3 10 13 10 21 0 8 5 14 10
14 6 0 10 15 11 33 0 32 0 32 16 10 8 -13 23 -23 32 -23 14 1 14 2 -1 11 -10
5 -18 21 -18 34 0 14 -9 34 -20 45 -20 20 -29 87 -10 75 6 -4 8 -11 5 -16 -4
-5 -1 -9 4 -9 6 0 11 11 11 24 0 18 7 26 23 29 12 2 25 5 28 6 3 0 14 -18 25
-41z"/>
<path fill="#ffffff" stroke="none" d="M3553 2823 c-7 -2 -19 -2 -25 0 -7 3
-2 5 12 5 14 0 19 -2 13 -5z"/>
<path fill="#ffffff" stroke="none" d="M947 2738 c-3 -8 -6 -5 -6 6 -1 11 2
17 5 13 3 -3 4 -12 1 -19z"/>
<path fill="#ffffff" stroke="none" d="M1120 2706 c0 -3 -4 -8 -10 -11 -5 -3
-10 -1 -10 4 0 6 5 11 10 11 6 0 10 -2 10 -4z"/>
<path fill="#ffffff" stroke="none" d="M2690 2700 c0 -5 -5 -10 -11 -10 -5 0
-7 5 -4 10 3 6 8 10 11 10 2 0 4 -4 4 -10z"/>
<path fill="#ffffff" stroke="none" d="M335 2679 c-10 -15 -25 -10 -19 6 4 8
10 12 15 9 5 -3 7 -10 4 -15z"/>
<path fill="#ffffff" stroke="none" d="M315 2640 c-4 -7 -20 -10 -36 -8 -15 3
-26 1 -24 -3 3 -4 -2 -10 -11 -13 -22 -8 -54 -8 -54 2 0 16 17 28 60 43 36 12
48 13 59 3 7 -7 10 -17 6 -24z"/>
<path fill="#ffffff" stroke="none" d="M205 2501 c-4 -11 -8 -11 -20 -1 -17
14 -21 65 -5 55 6 -3 10 0 11 7 0 7 5 0 10 -17 5 -16 7 -36 4 -44z"/>
<path fill="#ffffff" stroke="none" d="M2800 2540 c0 -5 -4 -10 -9 -10 -6 0
-13 5 -16 10 -3 6 1 10 9 10 9 0 16 -4 16 -10z"/>
<path fill="#ffffff" stroke="none" d="M1021 2490 c5 0 9 -7 9 -16 0 -9 -5
-12 -12 -8 -10 6 -10 5 -1 -7 6 -8 14 -40 18 -71 6 -46 4 -60 -9 -73 -17 -17
-61 -17 -61 0 0 6 -4 16 -8 22 -11 17 1 147 14 151 5 2 9 12 9 21 0 30 14 34
23 7 5 -14 13 -26 18 -26z"/>
<path fill="#ffffff" stroke="none" d="M3588 2498 c27 1 33 -1 22 -8 -23 -15
-46 -12 -67 8 -10 9 -13 13 -6 8 8 -5 31 -9 51 -8z"/>
<path fill="#ffffff" stroke="none" d="M937 2468 c-3 -8 -6 -5 -6 6 -1 11 2
17 5 13 3 -3 4 -12 1 -19z"/>
<path fill="#ffffff" stroke="none" d="M2992 2293 c-6 -19 -20 -16 -32 6 -8
15 -6 24 7 37 17 16 18 16 24 -7 3 -13 4 -30 1 -36z"/>
<path fill="#ffffff" stroke="none" d="M3270 2346 c0 -3 -4 -8 -10 -11 -5 -3
-10 -1 -10 4 0 6 5 11 10 11 6 0 10 -2 10 -4z"/>
<path fill="#ffffff" stroke="none" d="M3360 2340 c0 -5 -7 -7 -15 -4 -8 4
-15 8 -15 10 0 2 7 4 15 4 8 0 15 -4 15 -10z"/>
<path fill="#ffffff" stroke="none" d="M2213 2306 c-4 -5 1 -7 10 -3 20 8 64
-48 46 -58 -23 -15 46 -37 103 -33 31 2 55 2 53 -1 -1 -3 15 -26 36 -51 27
-31 39 -39 39 -28 0 18 19 21 31 5 3 -5 19 3 35 16 16 14 38 27 49 29 11 2 19
9 18 14 -1 5 8 11 20 11 16 2 18 0 8 -7 -18 -11 48 -30 105 -30 22 0 45 -5 51
-11 9 -9 10 -7 6 10 -3 11 -12 21 -21 21 -8 0 -12 3 -9 7 6 6 50 -5 122 -30
17 -5 44 -22 60 -37 17 -14 46 -34 66 -45 20 -10 41 -26 47 -36 13 -20 9 -24
-58 -60 -57 -31 -93 -61 -81 -69 6 -3 4 -27 -6 -60 -11 -39 -12 -55 -4 -58 15
-5 14 -47 -1 -60 -7 -5 -23 -13 -35 -16 -18 -6 -25 -1 -37 23 -9 16 -34 40
-56 52 -22 13 -40 26 -40 31 0 4 -18 7 -40 6 -32 -1 -46 -8 -75 -40 -33 -36
-40 -38 -93 -38 -54 0 -58 1 -71 32 -13 28 -12 32 4 45 22 16 24 15 -92 13
-54 0 -94 3 -98 9 -8 14 -145 14 -181 1 -18 -7 -30 -7 -39 0 -17 14 -552 7
-567 -8 -7 -7 -3 -12 13 -18 21 -6 16 -9 -31 -21 -79 -20 -108 -23 -142 -11
-23 8 -33 7 -47 -6 -10 -9 -25 -16 -35 -16 -9 0 -26 -5 -37 -10 -13 -7 -19 -7
-19 0 0 5 5 10 12 10 19 0 -25 29 -44 30 -19 0 -25 -16 -8 -22 5 -1 11 -15 12
-30 1 -16 6 -28 11 -28 4 0 4 -8 -1 -17 -5 -10 -7 -31 -6 -46 2 -21 -1 -27
-14 -25 -21 4 -32 28 -21 49 4 8 4 22 -1 29 -5 8 -7 34 -4 57 4 31 1 43 -8 44
-74 4 -108 29 -108 77 0 42 -14 59 -88 107 -25 16 -42 35 -42 46 0 25 32 52
67 57 15 2 31 9 35 15 4 6 10 8 14 4 4 -4 14 -1 22 6 13 10 14 9 8 -2 -6 -9
-5 -12 5 -9 8 3 13 11 12 17 -4 14 24 15 32 0 13 -20 50 -28 56 -11 7 18 59
23 59 5 0 -39 44 -12 86 53 14 21 23 23 78 22 33 -1 86 1 116 5 30 3 78 6 105
7 33 0 45 3 36 9 -8 5 -20 7 -28 4 -7 -3 -13 1 -13 10 0 18 27 30 36 15 4 -7
9 -6 14 3 6 9 12 9 24 -4 12 -11 13 -17 3 -20 -6 -3 24 -5 68 -5 77 0 79 0 45
13 l-35 13 28 7 c15 4 44 4 65 1 20 -4 54 -8 75 -9 20 -1 37 -6 37 -11 0 -5 9
-1 19 8 11 10 26 16 33 14 7 -3 24 1 37 8 20 11 27 11 34 1 7 -9 10 -9 14 1 2
6 13 12 24 12 10 0 19 5 19 11 0 5 4 8 9 5 5 -3 19 3 32 13 24 19 46 10 32
-13z"/>
<path fill="#ffffff" stroke="none" d="M3305 2290 c-3 -5 -10 -10 -16 -10 -5
0 -9 5 -9 10 0 6 7 10 16 10 8 0 12 -4 9 -10z"/>
<path fill="#ffffff" stroke="none" d="M1750 2256 c0 -2 -11 -6 -25 -8 -14 -3
-25 -1 -25 3 0 5 11 9 25 9 14 0 25 -2 25 -4z"/>
<path fill="#ffffff" stroke="none" d="M1261 2207 c-13 -13 -15 1 -4 30 7 17
8 17 11 -1 2 -10 -1 -23 -7 -29z"/>
<path fill="#ffffff" stroke="none" d="M985 2150 c3 -5 -1 -10 -9 -10 -9 0
-16 5 -16 10 0 6 4 10 9 10 6 0 13 -4 16 -10z"/>
<path fill="#ffffff" stroke="none" d="M3124 2068 c-5 -8 -2 -9 10 -5 10 4 24
-1 37 -14 l21 -21 -46 -30 c-48 -29 -132 -53 -92 -26 10 7 31 23 45 36 24 20
25 23 9 33 -10 5 -18 14 -18 19 0 5 8 11 18 13 9 3 18 5 20 6 2 0 0 -4 -4 -11z"/>
<path fill="#ffffff" stroke="none" d="M867 2008 c-3 -8 -6 -5 -6 6 -1 11 2
17 5 13 3 -3 4 -12 1 -19z"/>
<path fill="#ffffff" stroke="none" d="M3130 1940 c0 -5 -5 -10 -11 -10 -5 0
-7 5 -4 10 3 6 8 10 11 10 2 0 4 -4 4 -10z"/>
<path fill="#ffffff" stroke="none" d="M645 1890 c3 -5 -3 -10 -14 -10 -12 0
-21 5 -21 10 0 6 6 10 14 10 8 0 18 -4 21 -10z"/>
<path fill="#ffffff" stroke="none" d="M878 1863 c-1 -5 4 -19 12 -33 12 -22
12 -24 -2 -13 -8 7 -17 10 -21 7 -3 -3 -15 -3 -27 1 l-21 7 22 19 c22 19 41
25 37 12z"/>
<path fill="#ffffff" stroke="none" d="M736 1785 c-1 -30 -3 -34 -21 -27 -11
4 -63 7 -117 7 -53 0 -91 3 -85 7 7 4 8 8 2 8 -5 0 -24 -17 -42 -37 l-32 -38
13 45 c10 33 19 46 37 50 27 7 128 5 135 -3 3 -3 24 -2 46 1 33 4 40 2 34 -9
-4 -8 1 -4 10 9 9 12 17 22 18 22 2 0 2 -16 2 -35z"/>
<path fill="#ffffff" stroke="none" d="M2085 1810 c23 0 27 -3 15 -10 -16 -11
-228 -14 -254 -4 -38 15 2 22 102 19 59 -2 121 -4 137 -5z"/>
<path fill="#ffffff" stroke="none" d="M2373 1803 c-7 -2 -21 -2 -30 0 -10 3
-4 5 12 5 17 0 24 -2 18 -5z"/>
<path fill="#ffffff" stroke="none" d="M3472 1786 c52 -2 109 -85 107 -156 0
-22 -2 -21 -13 10 -9 25 -15 30 -19 20 -4 -8 -4 -5 -1 8 4 18 1 25 -15 29 -12
3 -21 8 -21 12 0 9 -66 41 -85 41 -8 0 -15 5 -15 10 0 14 -82 12 -116 -3 -16
-6 -42 -21 -57 -31 -15 -10 -30 -16 -33 -13 -3 3 -16 2 -28 -3 -18 -6 -22 -4
-24 14 -1 15 8 27 31 39 37 20 175 38 227 29 19 -3 47 -6 62 -6z"/>
<path fill="#ffffff" stroke="none" d="M788 1724 c13 8 62 -32 62 -50 0 -8 -5
-14 -11 -14 -14 0 -89 61 -89 73 0 5 7 4 15 -3 8 -6 18 -9 23 -6z"/>
<path fill="#ffffff" stroke="none" d="M2894 1661 c6 -10 -15 -73 -28 -83 -6
-4 -19 -2 -29 4 -11 6 -15 13 -10 17 6 3 18 21 27 39 16 32 30 40 40 23z"/>
<path fill="#ffffff" stroke="none" d="M3655 1591 c3 -5 1 -12 -5 -16 -5 -3
-10 1 -10 9 0 18 6 21 15 7z"/>
<path fill="#ffffff" stroke="none" d="M3700 1506 c0 -24 -44 -122 -56 -127
-15 -7 -83 -96 -79 -103 3 -3 2 -4 -1 -2 -3 2 -14 -4 -24 -14 -10 -10 -39 -22
-64 -25 -25 -4 -46 -11 -46 -15 0 -4 -11 -10 -25 -12 -14 -3 -25 -2 -25 3 0
17 52 63 89 80 38 17 67 50 54 63 -3 3 0 6 8 6 17 1 59 34 59 48 0 5 14 26 30
47 17 21 33 50 37 64 3 14 8 30 11 35 7 13 32 -24 32 -48z"/>
<path fill="#ffffff" stroke="none" d="M344 1444 c9 -24 7 -28 -9 -14 -17 14
-20 30 -6 30 5 0 12 -7 15 -16z"/>
<path fill="#ffffff" stroke="none" d="M3590 1445 c0 -8 -4 -15 -10 -15 -5 0
-7 7 -4 15 4 8 8 15 10 15 2 0 4 -7 4 -15z"/>
<path fill="#ffffff" stroke="none" d="M3330 1408 c0 -5 -4 -8 -10 -8 -5 0
-10 10 -10 23 0 18 2 19 10 7 5 -8 10 -18 10 -22z"/>
<path fill="#ffffff" stroke="none" d="M436 1302 c30 -18 59 -30 64 -27 6 4
13 -7 16 -24 4 -17 10 -31 15 -31 5 0 9 -7 9 -15 0 -8 5 -15 12 -15 6 0 8 -3
5 -6 -10 -10 -65 16 -71 33 -4 9 -14 13 -26 10 -11 -3 -18 -1 -15 3 3 5 -6 17
-20 26 -28 18 -57 66 -61 99 l-3 20 10 -20 c6 -11 35 -35 65 -53z"/>
<path fill="#ffffff" stroke="none" d="M874 1267 c-3 -8 -12 -14 -21 -14 -13
0 -13 2 3 14 10 7 19 13 21 13 1 0 0 -6 -3 -13z"/>
<path fill="#ffffff" stroke="none" d="M3160 1230 c19 -15 28 -16 39 -7 12 10
13 9 7 -1 -5 -8 0 -20 14 -32 19 -17 22 -27 18 -69 -5 -55 4 -81 31 -81 33 0
36 -54 6 -90 -7 -8 -23 -35 -35 -60 l-22 -45 36 38 c20 20 36 42 36 49 0 6 14
40 30 75 17 34 30 76 30 92 0 37 31 77 53 68 14 -5 15 -11 6 -33 -12 -32 -4
-74 23 -128 12 -23 17 -48 14 -62 -5 -20 -12 -23 -52 -22 -55 1 -91 -28 -100
-81 -9 -60 -24 -88 -64 -124 -62 -55 -61 -93 4 -162 24 -26 46 -78 46 -109 0
-32 -60 -88 -103 -98 -44 -9 -113 8 -151 37 -42 32 -66 31 -119 -2 -69 -44
-138 -67 -204 -68 -96 -3 -125 -40 -53 -68 80 -31 61 -80 -30 -76 -48 2 -62
-2 -92 -24 -19 -15 -38 -27 -41 -27 -4 0 -7 15 -7 33 -1 30 -1 31 -15 13 -8
-11 -15 -29 -16 -40 0 -12 -3 -15 -6 -8 -7 17 -23 15 -23 -3 0 -19 -7 -19 -26
0 -12 12 -13 25 -3 82 6 37 17 79 24 93 7 14 16 46 20 71 6 37 4 47 -9 52 -9
4 -16 13 -16 21 0 8 -7 22 -16 30 -8 9 -12 16 -7 16 4 0 14 4 22 9 11 7 10 13
-3 33 -9 14 -18 51 -21 84 -4 50 0 71 26 134 28 66 31 82 27 147 -3 40 -7 76
-10 79 -10 9 -56 -8 -62 -23 -4 -9 -2 -21 4 -28 8 -10 2 -23 -25 -52 -35 -37
-36 -39 -34 -118 1 -44 -4 -114 -11 -156 -12 -71 -17 -81 -60 -126 -32 -34
-44 -53 -39 -63 20 -38 97 -220 93 -220 -3 0 -19 7 -36 16 -24 13 -48 15 -117
10 -150 -11 -276 -1 -306 24 -11 9 -44 16 -84 17 -36 2 -79 5 -96 6 -16 2 -50
-3 -73 -11 -36 -12 -48 -12 -70 -2 -15 8 -38 15 -52 17 -70 9 -88 15 -110 35
-14 13 -40 23 -69 26 -43 4 -48 2 -59 -22 -11 -25 -15 -26 -64 -20 -29 3 -68
10 -86 16 -18 5 -49 10 -68 10 -19 0 -34 1 -34 3 0 1 24 14 53 28 28 15 68 40
87 57 32 29 24 33 -10 4 -16 -13 -100 -45 -100 -37 0 2 12 26 26 54 14 28 24
60 23 72 -2 12 2 31 8 43 7 11 9 32 6 45 -6 24 -80 109 -95 109 -17 0 13 -39
42 -56 40 -24 41 -31 15 -89 -64 -145 -88 -217 -74 -227 11 -7 9 -8 -6 -6 -17
3 -20 12 -22 67 -1 37 -11 88 -23 122 -19 49 -27 60 -54 68 -17 5 -56 32 -86
61 -75 72 -103 82 -186 71 -37 -6 -81 -8 -98 -5 -73 12 -76 14 -76 38 0 33 23
54 68 61 78 12 108 26 152 68 25 24 52 46 60 49 18 6 50 -9 50 -23 0 -22 59
-95 91 -112 33 -18 33 -18 13 0 -34 31 -119 165 -138 220 -17 50 -15 99 5 88
5 -4 9 3 9 14 0 12 5 21 10 21 6 0 10 -4 10 -8 0 -5 9 -19 19 -31 l20 -22 20
20 c19 19 25 34 22 54 0 4 2 7 7 7 4 0 13 14 20 30 17 38 29 38 62 -2 23 -27
34 -32 71 -32 24 -1 47 -5 50 -10 4 -4 17 2 29 14 15 15 29 20 43 16 12 -3 33
-6 45 -6 16 0 26 -7 29 -21 4 -14 12 -19 24 -16 10 3 30 -5 46 -19 15 -13 33
-24 39 -24 6 0 21 -11 34 -24 17 -19 29 -24 51 -19 27 5 29 3 29 -23 1 -37 21
-64 50 -64 20 0 22 3 15 37 l-7 38 21 -19 c21 -19 21 -19 21 0 1 17 3 17 20
-5 18 -21 25 -20 21 3 -2 11 29 46 41 46 16 0 8 -19 -21 -51 -16 -17 -33 -29
-39 -26 -5 4 -19 -3 -31 -15 -18 -16 -20 -22 -10 -29 7 -4 16 -6 20 -3 4 2 10
0 14 -6 3 -5 2 -10 -3 -10 -6 0 -7 -13 -3 -32 9 -40 39 -98 49 -97 16 2 51
-14 47 -21 -3 -4 4 -10 15 -13 11 -3 23 -1 26 4 8 14 51 11 68 -6 8 -8 19 -15
25 -15 6 0 11 -13 11 -30 0 -16 5 -30 11 -30 6 0 8 9 3 22 -7 22 -6 22 21 4
15 -10 25 -14 21 -8 -3 6 -3 17 0 26 4 11 11 13 30 6 19 -8 26 -6 34 10 6 11
21 20 33 20 22 1 57 21 57 34 0 4 -10 6 -22 5 -57 -8 -155 61 -112 78 8 3 14
13 14 23 0 11 5 22 10 25 6 4 10 -5 10 -19 0 -28 35 -70 50 -61 6 4 10 2 10
-3 0 -5 12 -14 26 -20 14 -7 23 -8 19 -2 -3 5 1 10 10 10 9 0 14 -4 11 -8 -3
-5 9 -8 25 -7 20 1 41 13 61 34 29 31 31 31 55 16 23 -15 26 -15 44 1 18 16
26 64 13 76 -3 4 -17 0 -32 -8 -20 -10 -28 -11 -34 -1 -9 14 11 23 78 33 27 4
52 12 56 18 5 7 8 7 8 -3 0 -10 5 -10 25 3 14 9 30 14 34 11 14 -8 42 6 35 17
-4 6 3 5 15 -1 25 -14 49 -5 32 12 -18 18 -13 33 14 45 14 6 24 8 23 4 -2 -4
5 -26 15 -49 12 -30 21 -41 32 -37 8 3 12 10 9 15 -3 5 -2 14 2 21 5 8 11 6
20 -6 9 -13 14 -14 20 -5 4 7 0 17 -9 24 -23 16 -21 28 2 22 14 -3 20 2 24 23
7 35 87 115 116 117 13 1 41 12 64 24 43 22 111 34 129 23 6 -4 5 -10 -3 -15
-9 -5 -5 -10 14 -14 31 -8 33 -13 11 -30 -15 -11 -15 -14 6 -33 21 -20 47 -21
35 -2 -3 4 7 11 21 14 21 6 25 12 22 30 -3 15 2 27 14 35 11 7 18 7 18 1 0 -5
7 -10 15 -10 8 0 15 -4 15 -8 0 -10 30 -12 31 -3 9 69 57 92 109 51z"/>
<path fill="#ffffff" stroke="none" d="M1288 1213 c3 -19 1 -20 -32 -9 -21 6
-30 13 -23 18 6 3 15 4 19 2 4 -3 8 0 8 6 0 20 25 5 28 -17z"/>
<path fill="#ffffff" stroke="none" d="M1278 1172 c3 -9 -5 -12 -24 -10 -24 2
-30 -1 -32 -19 -2 -13 -7 -23 -12 -23 -7 0 -19 33 -20 52 0 7 44 16 69 14 8
-1 16 -7 19 -14z"/>
<path fill="#ffffff" stroke="none" d="M1290 1135 c0 -8 -4 -15 -10 -15 -5 0
-7 7 -4 15 4 8 8 15 10 15 2 0 4 -7 4 -15z"/>
<path fill="#ffffff" stroke="none" d="M2900 1140 c0 -5 -2 -10 -4 -10 -3 0
-8 5 -11 10 -3 6 -1 10 4 10 6 0 11 -4 11 -10z"/>
<path fill="#ffffff" stroke="none" d="M1539 1041 c10 -19 6 -31 -12 -31 -5 0
-6 7 -3 16 3 8 2 12 -4 9 -6 -3 -10 1 -10 9 0 22 17 20 29 -3z"/>
<path fill="#ffffff" stroke="none" d="M2336 1001 c-6 -9 -46 -22 -46 -15 0 3
10 9 23 14 29 11 29 11 23 1z"/>
<path fill="#ffffff" stroke="none" d="M2168 963 c-2 -9 -8 -18 -15 -20 -7 -3
-9 3 -6 16 6 25 26 28 21 4z"/>
<path fill="#ffffff" stroke="none" d="M1870 930 c0 -5 -2 -10 -4 -10 -3 0 -8
5 -11 10 -3 6 -1 10 4 10 6 0 11 -4 11 -10z"/>
<path fill="#ffffff" stroke="none" d="M1660 800 c0 -5 -2 -10 -4 -10 -3 0 -8
5 -11 10 -3 6 -1 10 4 10 6 0 11 -4 11 -10z"/>
<path fill="#ffffff" stroke="none" d="M2259 438 c-9 -16 -14 -19 -17 -9 -2 7
2 17 9 22 20 13 21 11 8 -13z"/>
<path fill="#ffffff" stroke="none" d="M2284 348 c9 -10 16 -20 16 -23 0 -3
11 -23 24 -44 24 -38 30 -58 27 -96 -2 -19 -3 -18 -21 5 -11 14 -24 30 -29 36
-26 32 -82 158 -76 173 6 14 9 12 25 -9 11 -14 26 -33 34 -42z"/>
<path fill="#000000" stroke="none" d="M320 3705 l0 -65 40 0 40 0 0 65 0 65
-40 0 -40 0 0 -65z"/>
<path fill="#000000" stroke="none" d="M2600 3750 c0 -17 7 -20 40 -20 33 0
40 3 40 20 0 17 -7 20 -40 20 -33 0 -40 -3 -40 -20z"/>
<path fill="#000000" stroke="none" d="M2850 3745 c0 -22 4 -25 40 -25 36 0
40 3 40 25 0 23 -4 25 -40 25 -36 0 -40 -2 -40 -25z"/>
<path fill="#000000" stroke="none" d="M2520 3410 c0 -36 3 -40 25 -40 23 0
25 4 25 40 0 36 -2 40 -25 40 -22 0 -25 -4 -25 -40z"/>
<path fill="#000000" stroke="none" d="M3320 3410 c0 -36 3 -40 25 -40 23 0
25 4 25 40 0 36 -2 40 -25 40 -22 0 -25 -4 -25 -40z"/>
<path fill="#000000" stroke="none" d="M3660 3435 c0 -10 10 -15 30 -15 20 0
30 5 30 15 0 10 -10 15 -30 15 -20 0 -30 -5 -30 -15z"/>
<path fill="#000000" stroke="none" d="M2555 2713 c-11 -24 -13 -63 -3 -63 4
0 8 -7 8 -15 0 -8 5 -15 10 -15 7 0 7 6 1 19 -6 10 -7 21 -3 25 3 4 0 11 -8
16 -11 7 -12 11 0 24 7 9 11 19 8 22 -3 3 -9 -3 -13 -13z"/>
<path fill="#000000" stroke="none" d="M2646 2645 c-17 -13 -18 -15 -3 -15 9
0 17 -6 18 -12 0 -7 4 -4 9 7 17 39 9 45 -24 20z"/>
<path fill="#000000" stroke="none" d="M2695 2580 c-3 -6 1 -7 9 -4 18 7 21
14 7 14 -6 0 -13 -4 -16 -10z"/>
<path fill="#000000" stroke="none" d="M2760 2401 c0 -5 7 -15 17 -22 15 -13
15 -12 4 9 -12 23 -21 28 -21 13z"/>
<path fill="#000000" stroke="none" d="M2430 2770 c0 -16 2 -30 4 -30 2 0 6
14 8 30 3 17 1 30 -4 30 -4 0 -8 -13 -8 -30z"/>
<path fill="#000000" stroke="none" d="M1190 2770 c-8 -5 -12 -11 -10 -14 3
-2 14 2 24 10 22 15 10 19 -14 4z"/>
<path fill="#000000" stroke="none" d="M1330 2701 c0 -10 19 -25 25 -20 1 2
-3 10 -11 17 -8 7 -14 8 -14 3z"/>
<path fill="#000000" stroke="none" d="M1200 2660 c0 -13 11 -13 30 0 12 8 11
10 -7 10 -13 0 -23 -4 -23 -10z"/>
<path fill="#000000" stroke="none" d="M996 2377 c3 -10 9 -15 12 -12 3 3 0
11 -7 18 -10 9 -11 8 -5 -6z"/>
<path fill="#000000" stroke="none" d="M1832 2224 c10 -10 130 -23 159 -17 55
11 17 23 -73 23 -50 0 -89 -3 -86 -6z"/>
<path fill="#000000" stroke="none" d="M2150 2220 c-8 -5 -10 -10 -5 -10 6 0
17 5 25 10 8 5 11 10 5 10 -5 0 -17 -5 -25 -10z"/>
<path fill="#000000" stroke="none" d="M2093 2213 c9 -2 23 -2 30 0 6 3 -1 5
-18 5 -16 0 -22 -2 -12 -5z"/>
<path fill="#000000" stroke="none" d="M1410 2190 l-35 -7 42 -2 c23 0 45 4
48 9 7 11 -3 11 -55 0z"/>
<path fill="#000000" stroke="none" d="M851 1144 c0 -11 3 -14 6 -6 3 7 2 16
-1 19 -3 4 -6 -2 -5 -13z"/>
<path fill="#000000" stroke="none" d="M2787 1123 c-12 -12 -7 -22 8 -17 8 4
15 10 15 15 0 11 -14 12 -23 2z"/>
<path fill="#000000" stroke="none" d="M3174 802 c-71 -70 -161 -179 -167
-203 -5 -21 -1 -31 23 -53 16 -14 34 -26 40 -26 5 0 28 -10 50 -21 23 -12 44
-18 48 -15 4 4 -3 24 -16 44 -12 20 -31 58 -43 85 -24 53 -45 63 -35 17 3 -17
1 -41 -4 -55 -8 -22 -13 -24 -30 -15 -41 22 -25 55 71 150 50 50 88 90 84 90
-4 0 -2 7 5 15 21 25 4 17 -26 -13z"/>
<path fill="#000000" stroke="none" d="M885 730 c3 -5 8 -10 11 -10 2 0 4 5 4
10 0 6 -5 10 -11 10 -5 0 -7 -4 -4 -10z"/>
<path fill="#000000" stroke="none" d="M2471 224 c0 -11 3 -14 6 -6 3 7 2 16
-1 19 -3 4 -6 -2 -5 -13z"/>
</g>
</svg>
