<?xml version="1.0" standalone="no"?>
<!DOCTYPE svg PUBLIC "-//W3C//DTD SVG 20010904//EN"
 "http://www.w3.org/TR/2001/REC-SVG-20010904/DTD/svg10.dtd">
<svg version="1.0" xmlns="http://www.w3.org/2000/svg"
 width="416.000000pt" height="416.000000pt" viewBox="0 0 416.000000 416.000000"
 preserveAspectRatio="xMidYMid meet">
<metadata>
Created by potrace 1.16, written by Peter Selinger 2001-2019
</metadata>
<g transform="translate(0.000000,416.000000) scale(0.100000,-0.100000)"
fill="#000000" stroke="none">
<path fill="#000000" stroke="none" d="M2 3393 c1 -484 4 -696 8 -573 7 185
22 314 41 335 5 5 9 32 9 61 l0 52 37 7 c21 4 50 16 65 27 28 20 38 58 15 58
-20 0 -84 62 -102 99 -18 36 -23 164 -9 238 5 28 4 34 -6 28 -8 -5 -11 -4 -6
3 4 6 9 44 12 84 3 40 14 92 24 115 10 23 16 44 12 47 -3 3 0 6 6 6 6 0 13 14
17 30 4 20 13 30 25 30 10 0 21 4 24 9 3 5 16 7 28 3 17 -4 20 -2 14 13 -5 15
-4 16 8 6 11 -9 15 -9 19 1 4 10 7 10 18 1 8 -8 17 -9 24 -3 7 6 45 12 86 14
41 2 132 8 204 12 179 12 2221 11 2640 0 187 -5 356 -9 375 -8 19 0 40 -4 47
-10 8 -6 13 -6 13 -1 0 16 42 8 55 -10 9 -12 14 -14 23 -5 8 8 12 9 12 1 0 -6
10 -11 23 -10 12 0 47 -1 78 -3 45 -3 56 -7 54 -19 -1 -9 -7 -15 -13 -14 -5 1
-16 -5 -23 -15 -11 -14 -11 -15 0 -5 10 8 20 9 38 0 19 -8 26 -8 32 2 6 9 11
10 15 2 4 -6 4 -15 1 -21 -3 -5 -1 -10 4 -10 6 0 11 -5 11 -10 0 -6 -6 -10
-12 -9 -25 3 -38 -1 -38 -12 0 -7 12 -8 33 -4 25 5 29 4 17 -5 -13 -10 -13
-11 0 -7 8 2 14 13 12 23 -2 14 1 13 12 -6 8 -14 12 -28 9 -32 -7 -12 19 -78
29 -72 5 3 6 10 3 15 -4 5 -1 9 5 9 7 0 10 -7 6 -15 -3 -8 -1 -15 5 -15 16 0
28 -43 15 -59 -8 -11 -8 -13 0 -8 7 4 14 -1 16 -11 6 -26 -2 -53 -14 -46 -12
8 22 -48 36 -57 4 -4 9 -24 10 -45 1 -22 6 -45 10 -53 7 -11 6 -12 -5 -6 -11
7 -12 6 -3 -6 7 -8 12 -68 13 -154 1 -77 6 -171 12 -210 5 -38 10 -126 10
-195 0 -157 9 -482 14 -495 2 -5 4 369 4 833 l1 842 -2080 0 -2080 0 2 -767z"/>
<path fill="#ffffff" stroke="none" d="M4008 3965 c17 -37 14 -45 -4 -12 -10
18 -21 26 -30 23 -8 -3 -14 -1 -14 4 0 21 37 9 48 -15z"/>
<path fill="#ffffff" stroke="none" d="M4020 3888 c0 -9 4 -8 11 2 9 12 10 12
7 1 -6 -21 -24 -25 -31 -6 -4 8 -2 15 3 15 6 0 10 -6 10 -12z"/>
<path fill="#000000" stroke="none" d="M3628 4053 c7 -3 16 -2 19 1 4 3 -2 6
-13 5 -11 0 -14 -3 -6 -6z"/>
<path fill="#000000" stroke="none" d="M3887 3970 c3 -11 7 -20 9 -20 2 0 4 9
4 20 0 11 -4 20 -9 20 -5 0 -7 -9 -4 -20z"/>
<path fill="#000000" stroke="none" d="M3930 3915 c0 -27 35 -43 44 -20 3 9 0
12 -11 8 -8 -3 -19 0 -24 8 -5 8 -9 10 -9 4z"/>
<path fill="#000000" stroke="none" d="M254 3827 c-2 -7 -3 -67 -2 -133 l3
-119 85 0 c79 0 85 1 88 21 2 12 12 24 23 27 17 5 19 14 19 87 0 72 -2 82 -19
87 -11 3 -21 13 -24 24 -5 17 -15 19 -86 19 -58 0 -83 -4 -87 -13z"/>
<path fill="#ffffff" stroke="none" d="M410 3790 c0 -13 7 -20 20 -20 18 0 20
-7 20 -65 0 -58 -2 -65 -20 -65 -13 0 -20 -7 -20 -20 0 -18 -7 -20 -70 -20
l-70 0 0 105 0 105 70 0 c63 0 70 -2 70 -20z"/>
<path fill="#000000" stroke="none" d="M320 3705 l0 -65 40 0 40 0 0 65 0 65
-40 0 -40 0 0 -65z"/>
<path fill="#ffffff" stroke="none" d="M380 3705 c0 -28 -4 -35 -20 -35 -16 0
-20 7 -20 35 0 28 4 35 20 35 16 0 20 -7 20 -35z"/>
<path fill="#000000" stroke="none" d="M517 3834 c-4 -4 -7 -52 -7 -107 0 -90
2 -99 19 -104 11 -3 21 -15 23 -27 3 -19 9 -21 68 -21 59 0 65 2 68 21 2 12
12 24 23 27 18 5 20 13 17 109 l-3 103 -40 0 -40 0 -3 -82 c-2 -74 -5 -83 -22
-83 -17 0 -20 9 -22 83 l-3 82 -35 3 c-20 2 -39 0 -43 -4z"/>
<path fill="#ffffff" stroke="none" d="M580 3725 l0 -85 40 0 40 0 0 85 c0 84
0 85 25 85 25 0 25 -1 25 -85 0 -78 -2 -85 -20 -85 -13 0 -20 -7 -20 -20 0
-17 -7 -20 -50 -20 -43 0 -50 3 -50 20 0 13 -7 20 -20 20 -18 0 -20 7 -20 85
0 84 0 85 25 85 25 0 25 -1 25 -85z"/>
<path fill="#000000" stroke="none" d="M774 3827 c-2 -7 -3 -67 -2 -133 l3
-119 40 0 c40 0 40 0 43 43 3 34 7 42 23 42 13 0 19 -7 19 -21 0 -12 8 -23 19
-26 11 -3 21 -14 24 -25 5 -16 13 -19 44 -16 l38 3 0 130 0 130 -40 0 c-39 0
-40 -1 -43 -37 -2 -29 -8 -38 -21 -38 -10 0 -21 9 -24 20 -3 11 -12 20 -20 20
-8 0 -17 9 -20 20 -4 15 -14 20 -41 20 -21 0 -39 -6 -42 -13z"/>
<path fill="#ffffff" stroke="none" d="M840 3790 c0 -13 7 -20 20 -20 13 0 20
-7 20 -20 0 -15 7 -20 25 -20 20 0 25 -5 25 -25 0 -16 6 -25 15 -25 12 0 15
14 15 65 0 63 1 65 25 65 l25 0 0 -105 0 -105 -25 0 c-18 0 -25 5 -25 20 0 13
-7 20 -20 20 -13 0 -20 7 -20 20 0 15 -7 20 -25 20 -20 0 -25 5 -25 25 0 16
-6 25 -15 25 -12 0 -15 -14 -15 -65 0 -63 -1 -65 -25 -65 l-25 0 0 105 0 105
25 0 c18 0 25 -5 25 -20z"/>
<path fill="#000000" stroke="none" d="M1117 3834 c-4 -4 -7 -15 -7 -25 0 -9
-9 -19 -20 -22 -18 -5 -20 -14 -20 -87 0 -72 2 -82 19 -87 11 -3 21 -13 24
-24 4 -16 15 -19 67 -19 52 0 63 3 67 19 3 11 13 21 24 24 18 5 19 14 17 114
l-3 108 -80 3 c-45 1 -84 0 -88 -4z"/>
<path fill="#ffffff" stroke="none" d="M1270 3790 c0 -18 -7 -20 -70 -20 -63
0 -70 2 -70 20 0 18 7 20 70 20 63 0 70 -2 70 -20z"/>
<path fill="#ffffff" stroke="none" d="M1140 3700 l0 -60 40 0 c33 0 40 3 40
20 0 15 -7 20 -25 20 -18 0 -25 5 -25 20 0 17 7 20 50 20 l50 0 0 -40 c0 -33
-3 -40 -20 -40 -13 0 -20 -7 -20 -20 0 -17 -7 -20 -50 -20 -43 0 -50 3 -50 20
0 13 -7 20 -20 20 -18 0 -20 7 -20 60 0 57 1 60 25 60 24 0 25 -3 25 -60z"/>
<path fill="#000000" stroke="none" d="M1335 3827 c-3 -7 -4 -67 -3 -133 l3
-119 85 0 85 0 0 130 0 130 -83 3 c-62 2 -84 -1 -87 -11z"/>
<path fill="#ffffff" stroke="none" d="M1490 3790 c0 -17 -7 -20 -45 -20 -41
0 -45 -2 -45 -25 0 -23 4 -25 45 -25 38 0 45 -3 45 -20 0 -17 -7 -20 -45 -20
-38 0 -45 -3 -45 -20 0 -17 7 -20 45 -20 38 0 45 -3 45 -20 0 -18 -7 -20 -70
-20 l-70 0 0 105 0 105 70 0 c63 0 70 -2 70 -20z"/>
<path fill="#000000" stroke="none" d="M1583 3821 c-3 -11 -13 -21 -24 -24
-17 -5 -19 -15 -19 -87 0 -73 2 -82 19 -87 11 -3 21 -15 23 -27 3 -19 9 -21
68 -21 59 0 65 2 68 21 2 12 12 24 23 27 17 5 19 14 19 87 0 72 -2 82 -19 87
-11 3 -21 13 -24 24 -4 16 -15 19 -67 19 -52 0 -63 -3 -67 -19z"/>
<path fill="#ffffff" stroke="none" d="M1700 3790 c0 -13 7 -20 20 -20 18 0
20 -7 20 -65 0 -58 -2 -65 -20 -65 -13 0 -20 -7 -20 -20 0 -17 -7 -20 -50 -20
-43 0 -50 3 -50 20 0 13 -7 20 -20 20 -18 0 -20 7 -20 65 0 58 2 65 20 65 13
0 20 7 20 20 0 17 7 20 50 20 43 0 50 -3 50 -20z"/>
<path fill="#000000" stroke="none" d="M1610 3705 l0 -65 40 0 40 0 0 65 0 65
-40 0 -40 0 0 -65z"/>
<path fill="#ffffff" stroke="none" d="M1670 3705 c0 -28 -4 -35 -20 -35 -16
0 -20 7 -20 35 0 28 4 35 20 35 16 0 20 -7 20 -35z"/>
<path fill="#000000" stroke="none" d="M1804 3827 c-2 -7 -3 -67 -2 -133 l3
-119 40 0 c40 0 40 0 43 43 3 34 7 42 23 42 13 0 19 -7 19 -21 0 -12 8 -23 19
-26 11 -3 21 -14 24 -25 5 -16 13 -19 44 -16 l38 3 0 130 0 130 -40 0 c-39 0
-40 -1 -43 -37 -2 -29 -8 -38 -21 -38 -10 0 -21 9 -24 20 -3 11 -12 20 -20 20
-8 0 -17 9 -20 20 -4 15 -14 20 -41 20 -21 0 -39 -6 -42 -13z"/>
<path fill="#ffffff" stroke="none" d="M1870 3790 c0 -13 7 -20 20 -20 13 0
20 -7 20 -20 0 -15 7 -20 25 -20 20 0 25 -5 25 -25 0 -16 6 -25 15 -25 12 0
15 14 15 65 0 63 1 65 25 65 l25 0 0 -105 0 -105 -25 0 c-18 0 -25 5 -25 20 0
13 -7 20 -20 20 -13 0 -20 7 -20 20 0 15 -7 20 -25 20 -20 0 -25 5 -25 25 0
16 -6 25 -15 25 -12 0 -15 -14 -15 -65 0 -63 -1 -65 -25 -65 l-25 0 0 105 0
105 25 0 c18 0 25 -5 25 -20z"/>
<path fill="#000000" stroke="none" d="M2313 3821 c-3 -11 -13 -21 -24 -24
-17 -5 -19 -15 -19 -92 0 -77 2 -87 19 -92 11 -3 21 -13 24 -24 4 -16 15 -19
67 -19 52 0 63 3 67 19 3 11 13 21 23 24 17 4 19 16 19 92 0 76 -2 88 -19 92
-10 3 -20 13 -23 24 -4 16 -15 19 -67 19 -52 0 -63 -3 -67 -19z"/>
<path fill="#ffffff" stroke="none" d="M2430 3790 c0 -13 7 -20 20 -20 13 0
20 -7 20 -20 0 -15 -7 -20 -25 -20 -18 0 -25 5 -25 20 0 17 -7 20 -40 20 l-40
0 0 -65 0 -65 40 0 c33 0 40 3 40 20 0 15 7 20 25 20 18 0 25 -5 25 -20 0 -13
-7 -20 -20 -20 -13 0 -20 -7 -20 -20 0 -17 -7 -20 -50 -20 -43 0 -50 3 -50 20
0 13 -7 20 -20 20 -18 0 -20 7 -20 65 0 58 2 65 20 65 13 0 20 7 20 20 0 17 7
20 50 20 43 0 50 -3 50 -20z"/>
<path fill="#ffffff" stroke="none" d="M2402 3723 c7 -30 -3 -53 -23 -53 -15
0 -19 7 -19 35 0 28 4 35 19 35 11 0 21 -8 23 -17z"/>
<path fill="#000000" stroke="none" d="M2534 3827 c-2 -7 -3 -67 -2 -133 l3
-119 38 -3 c32 -3 39 0 44 17 3 12 13 21 23 21 10 0 20 -9 23 -21 5 -17 12
-20 44 -17 37 3 38 4 41 46 3 37 0 44 -17 49 -27 7 -27 29 -1 36 29 7 29 86 1
94 -11 3 -21 13 -24 24 -5 17 -15 19 -86 19 -58 0 -83 -4 -87 -13z"/>
<path fill="#ffffff" stroke="none" d="M2690 3790 c0 -13 7 -20 20 -20 13 0
20 -7 20 -20 0 -13 -7 -20 -20 -20 -17 0 -20 -7 -20 -45 0 -38 3 -45 20 -45
13 0 20 -7 20 -20 0 -15 -7 -20 -25 -20 -18 0 -25 5 -25 20 0 15 -7 20 -25 20
-18 0 -25 5 -25 20 0 11 -7 20 -15 20 -11 0 -15 -11 -15 -40 0 -36 -2 -40 -25
-40 l-25 0 0 105 0 105 70 0 c63 0 70 -2 70 -20z"/>
<path fill="#000000" stroke="none" d="M2600 3750 c0 -17 7 -20 40 -20 33 0
40 3 40 20 0 17 -7 20 -40 20 -33 0 -40 -3 -40 -20z"/>
<path fill="#000000" stroke="none" d="M2823 3821 c-3 -11 -14 -21 -24 -24
-18 -5 -19 -14 -17 -114 l3 -108 40 0 c39 0 40 1 43 38 2 28 8 37 22 37 14 0
20 -9 22 -37 3 -37 4 -38 43 -38 l40 0 3 108 c2 100 1 109 -17 114 -10 3 -21
13 -24 24 -4 16 -15 19 -67 19 -52 0 -63 -3 -67 -19z"/>
<path fill="#ffffff" stroke="none" d="M2940 3790 c0 -13 7 -20 20 -20 18 0
20 -7 20 -85 0 -84 0 -85 -25 -85 -22 0 -25 4 -25 40 l0 40 -40 0 -40 0 0 -40
c0 -36 -2 -40 -25 -40 -25 0 -25 1 -25 85 0 78 2 85 20 85 13 0 20 7 20 20 0
17 7 20 50 20 43 0 50 -3 50 -20z"/>
<path fill="#000000" stroke="none" d="M2850 3745 c0 -22 4 -25 40 -25 36 0
40 3 40 25 0 23 -4 25 -40 25 -36 0 -40 -2 -40 -25z"/>
<path fill="#000000" stroke="none" d="M3047 3833 c-4 -3 -7 -51 -7 -106 0
-90 2 -99 19 -104 11 -3 21 -15 23 -27 3 -20 9 -21 88 -21 79 0 85 1 88 21 2
12 12 24 23 27 18 5 20 13 17 109 l-3 103 -38 3 c-32 3 -39 0 -44 -17 -8 -30
-78 -30 -86 -1 -4 15 -14 20 -39 20 -19 0 -38 -3 -41 -7z"/>
<path fill="#ffffff" stroke="none" d="M3110 3725 c0 -69 3 -85 15 -85 12 0
15 14 15 65 l0 65 30 0 30 0 0 -65 c0 -51 3 -65 15 -65 12 0 15 16 15 85 0 84
0 85 25 85 25 0 25 -1 25 -85 0 -78 -2 -85 -20 -85 -13 0 -20 -7 -20 -20 0
-15 -7 -20 -25 -20 -18 0 -25 5 -25 20 0 13 -7 20 -20 20 -13 0 -20 -7 -20
-20 0 -15 -7 -20 -25 -20 -18 0 -25 5 -25 20 0 13 -7 20 -20 20 -18 0 -20 7
-20 85 0 84 0 85 25 85 25 0 25 -1 25 -85z"/>
<path fill="#000000" stroke="none" d="M3345 3828 c-3 -8 -4 -68 -3 -134 l3
-119 85 0 85 0 0 45 0 45 -42 3 -42 3 -3 82 -3 82 -38 3 c-24 2 -39 -1 -42
-10z"/>
<path fill="#ffffff" stroke="none" d="M3410 3725 l0 -85 45 0 c38 0 45 -3 45
-20 0 -18 -7 -20 -70 -20 l-70 0 0 105 0 105 25 0 c25 0 25 -1 25 -85z"/>
<path fill="#000000" stroke="none" d="M4026 3812 c-6 -11 6 -26 23 -30 11 -2
12 0 3 11 -7 8 -9 17 -5 20 3 4 1 7 -5 7 -6 0 -13 -4 -16 -8z"/>
<path fill="#000000" stroke="none" d="M3988 3793 c7 -3 16 -2 19 1 4 3 -2 6
-13 5 -11 0 -14 -3 -6 -6z"/>
<path fill="#000000" stroke="none" d="M2173 3486 c-20 -20 -22 -33 -20 -97
l2 -74 53 -3 c46 -3 57 1 78 21 21 21 23 31 21 98 l-2 74 -55 3 c-47 2 -58 -1
-77 -22z"/>
<path fill="#ffffff" stroke="none" d="M2290 3465 c0 -11 -11 -15 -40 -15 -29
0 -40 -4 -40 -15 0 -9 9 -15 25 -15 14 0 25 -4 25 -10 0 -5 7 -10 15 -10 8 0
15 -7 15 -15 0 -8 -7 -15 -15 -15 -8 0 -15 -7 -15 -15 0 -11 -12 -15 -45 -15
-33 0 -45 4 -45 15 0 11 11 15 40 15 29 0 40 4 40 15 0 9 -9 15 -25 15 -14 0
-25 5 -25 10 0 6 -7 10 -15 10 -8 0 -15 7 -15 15 0 8 7 15 15 15 8 0 15 7 15
15 0 11 12 15 45 15 33 0 45 -4 45 -15z"/>
<path fill="#000000" stroke="none" d="M2327 3503 c-13 -12 -7 -72 7 -80 9 -5
16 -28 18 -58 3 -50 3 -50 38 -50 l35 0 3 52 c2 33 8 53 17 57 12 4 15 -3 15
-30 0 -51 33 -84 85 -84 30 0 46 6 59 22 l19 22 8 -23 c7 -18 15 -22 41 -19
28 2 34 8 36 30 l3 28 27 -29 c27 -29 28 -29 127 -28 l100 2 0 95 0 95 -105 0
-105 0 -3 -28 -3 -27 -27 30 c-33 37 -78 41 -91 8 l-8 -22 -19 22 c-13 16 -30
22 -59 22 -29 0 -46 -6 -59 -22 l-19 -22 -8 22 c-7 19 -16 22 -67 22 -32 0
-62 -3 -65 -7z"/>
<path fill="#ffffff" stroke="none" d="M2440 3465 c0 -8 -7 -15 -15 -15 -12 0
-15 -13 -15 -55 0 -48 -2 -55 -20 -55 -18 0 -20 7 -20 55 0 42 -3 55 -15 55
-8 0 -15 7 -15 15 0 11 12 15 50 15 38 0 50 -4 50 -15z"/>
<path fill="#ffffff" stroke="none" d="M2580 3470 c0 -5 7 -10 15 -10 11 0 15
-12 15 -45 0 -33 -4 -45 -15 -45 -8 0 -15 -7 -15 -15 0 -10 -11 -15 -35 -15
-24 0 -35 5 -35 15 0 8 -7 15 -15 15 -11 0 -15 12 -15 45 0 33 4 45 15 45 8 0
15 5 15 10 0 6 16 10 35 10 19 0 35 -4 35 -10z"/>
<path fill="#ffffff" stroke="none" d="M2690 3465 c0 -8 7 -15 15 -15 8 0 15
-4 15 -10 0 -5 7 -10 15 -10 8 0 15 -7 15 -15 0 -8 5 -15 10 -15 6 0 10 18 10
40 0 33 3 40 20 40 18 0 20 -7 20 -70 0 -63 -2 -70 -20 -70 -11 0 -20 7 -20
15 0 8 -7 15 -15 15 -8 0 -15 5 -15 10 0 6 -7 10 -15 10 -8 0 -15 7 -15 15 0
8 -4 15 -10 15 -5 0 -10 -18 -10 -40 0 -33 -3 -40 -20 -40 -18 0 -20 7 -20 70
0 63 2 70 20 70 11 0 20 -7 20 -15z"/>
<path fill="#ffffff" stroke="none" d="M2950 3465 c0 -10 -10 -15 -30 -15 -20
0 -30 -5 -30 -15 0 -10 10 -15 30 -15 20 0 30 -5 30 -15 0 -10 -10 -15 -30
-15 -16 0 -30 -4 -30 -10 0 -5 14 -10 30 -10 20 0 30 -5 30 -15 0 -11 -12 -15
-50 -15 l-50 0 0 70 0 70 50 0 c38 0 50 -4 50 -15z"/>
<path fill="#000000" stroke="none" d="M2520 3410 c0 -36 3 -40 25 -40 23 0
25 4 25 40 0 36 -2 40 -25 40 -22 0 -25 -4 -25 -40z"/>
<path fill="#000000" stroke="none" d="M3113 3486 c-20 -20 -22 -33 -20 -97
l2 -74 59 -3 c49 -3 62 0 78 17 24 26 34 26 55 1 12 -14 30 -20 58 -20 28 0
46 6 58 20 9 11 21 20 27 20 6 0 18 -9 27 -20 26 -30 91 -27 121 5 20 21 23
32 20 97 l-3 73 -35 0 -35 0 -6 -55 -5 -55 -5 55 c-4 54 -5 55 -37 58 -26 3
-34 -1 -41 -19 l-8 -23 -19 22 c-13 16 -30 22 -59 22 -29 0 -46 -6 -59 -22
l-19 -22 -8 22 c-7 19 -16 22 -66 22 -48 0 -62 -5 -80 -24z"/>
<path fill="#ffffff" stroke="none" d="M3240 3465 c0 -11 -12 -15 -45 -15 -33
0 -45 -4 -45 -15 0 -10 10 -15 30 -15 17 0 30 -4 30 -10 0 -5 7 -10 15 -10 8
0 15 -7 15 -15 0 -8 -7 -15 -15 -15 -8 0 -15 -7 -15 -15 0 -11 -12 -15 -50
-15 -38 0 -50 4 -50 15 0 11 12 15 45 15 33 0 45 4 45 15 0 10 -10 15 -30 15
-16 0 -30 5 -30 10 0 6 -7 10 -15 10 -8 0 -15 7 -15 15 0 8 7 15 15 15 8 0 15
7 15 15 0 11 12 15 50 15 38 0 50 -4 50 -15z"/>
<path fill="#ffffff" stroke="none" d="M3380 3470 c0 -5 7 -10 15 -10 11 0 15
-12 15 -45 0 -33 -4 -45 -15 -45 -8 0 -15 -7 -15 -15 0 -10 -11 -15 -35 -15
-24 0 -35 5 -35 15 0 8 -7 15 -15 15 -11 0 -15 12 -15 45 0 33 4 45 15 45 8 0
15 5 15 10 0 6 16 10 35 10 19 0 35 -4 35 -10z"/>
<path fill="#ffffff" stroke="none" d="M3490 3425 c0 -52 1 -55 25 -55 24 0
25 3 25 55 0 48 2 55 20 55 18 0 20 -7 20 -55 0 -42 -3 -55 -15 -55 -8 0 -15
-7 -15 -15 0 -10 -11 -15 -35 -15 -24 0 -35 5 -35 15 0 8 -7 15 -15 15 -12 0
-15 13 -15 55 0 48 2 55 20 55 18 0 20 -7 20 -55z"/>
<path fill="#000000" stroke="none" d="M3320 3410 c0 -36 3 -40 25 -40 23 0
25 4 25 40 0 36 -2 40 -25 40 -22 0 -25 -4 -25 -40z"/>
<path fill="#000000" stroke="none" d="M3614 3497 c-3 -8 -4 -52 -2 -98 l3
-84 35 0 c31 0 35 3 38 28 2 17 9 27 20 27 24 0 62 44 62 70 0 12 -10 33 -22
46 -19 19 -33 24 -76 24 -35 0 -54 -5 -58 -13z"/>
<path fill="#ffffff" stroke="none" d="M3720 3470 c0 -5 7 -10 15 -10 8 0 15
-9 15 -20 0 -11 -7 -20 -15 -20 -8 0 -15 -7 -15 -15 0 -9 -9 -15 -25 -15 -20
0 -25 -5 -25 -25 0 -18 -5 -25 -20 -25 -18 0 -20 7 -20 70 l0 70 45 0 c25 0
45 -4 45 -10z"/>
<path fill="#000000" stroke="none" d="M3670 3435 c0 -8 9 -15 20 -15 11 0 20
7 20 15 0 8 -9 15 -20 15 -11 0 -20 -7 -20 -15z"/>
<path fill="#000000" stroke="none" d="M2216 3187 c-16 -12 -16 -13 2 -13 10
0 19 6 19 13 0 7 -1 13 -2 13 -1 0 -9 -6 -19 -13z"/>
<path fill="#000000" stroke="none" d="M1636 3178 c3 -5 11 -5 17 -1 7 3 4 -2
-5 -13 -13 -15 -15 -23 -7 -31 8 -8 8 -13 0 -18 -6 -3 -11 -3 -10 2 4 20 -2
27 -12 13 -9 -13 -10 -12 -5 3 4 12 0 17 -14 17 -10 0 -22 4 -25 10 -3 6 1 7
9 4 9 -3 16 -1 16 6 0 18 -33 7 -36 -12 -1 -10 2 -18 7 -18 6 0 5 -9 -2 -21
-8 -16 -8 -24 1 -33 9 -8 11 -8 8 3 -2 7 3 16 11 19 9 3 11 0 6 -8 -5 -9 -3
-10 11 -2 11 5 25 7 31 5 7 -3 17 7 23 21 5 14 12 26 15 26 4 0 3 -6 -1 -12
-5 -10 -4 -10 5 -2 17 15 -6 53 -30 51 -10 -1 -15 -5 -13 -9z"/>
<path fill="#000000" stroke="none" d="M1704 3178 c-3 -5 -10 -6 -15 -2 -6 3
-5 -3 2 -14 7 -12 13 -20 14 -19 0 1 8 11 18 23 15 18 15 21 2 21 -9 0 -18 -4
-21 -9z"/>
<path fill="#000000" stroke="none" d="M1610 3170 c0 -6 7 -10 15 -10 8 0 15
2 15 4 0 2 -7 6 -15 10 -8 3 -15 1 -15 -4z"/>
<path fill="#000000" stroke="none" d="M2255 3169 c-11 -17 1 -21 15 -4 8 9 8
15 2 15 -6 0 -14 -5 -17 -11z"/>
<path fill="#000000" stroke="none" d="M1520 3152 c0 -6 5 -14 10 -17 13 -8
13 -25 -1 -25 -5 0 -8 4 -5 9 3 5 -1 11 -9 14 -9 4 -12 1 -8 -9 4 -10 0 -12
-11 -8 -11 4 -22 -1 -31 -12 -13 -18 -14 -17 -9 6 2 14 2 19 -2 12 -3 -6 -11
-9 -16 -6 -7 4 -8 2 -4 -4 4 -8 0 -12 -11 -12 -15 -1 -16 -2 -3 -9 8 -5 19 -9
24 -9 5 0 12 -6 17 -13 5 -9 11 -10 21 -2 15 12 49 13 42 1 -3 -4 0 -8 5 -8 6
0 11 -5 11 -11 0 -6 -7 -9 -15 -6 -8 4 -17 1 -21 -5 -4 -7 -3 -8 5 -4 6 4 14
0 17 -9 6 -14 8 -14 20 2 16 21 19 57 4 48 -12 -8 -13 -3 -1 28 8 20 6 29 -10
43 -10 9 -19 12 -19 6z"/>
<path fill="#000000" stroke="none" d="M2309 3153 c0 -4 -2 -16 -4 -25 -2 -10
0 -18 5 -18 12 0 20 39 9 46 -5 3 -9 2 -10 -3z"/>
<path fill="#000000" stroke="none" d="M2333 3137 c-2 -17 0 -18 15 -4 9 9 20
15 24 14 3 -1 9 1 13 5 4 4 -6 6 -22 6 -21 -1 -29 -6 -30 -21z"/>
<path fill="#000000" stroke="none" d="M2404 3152 c7 -11 2 -14 -34 -16 -8 -1
-15 -9 -15 -19 0 -10 -7 -22 -15 -27 -14 -9 -7 -15 14 -11 5 1 6 -5 3 -14 -4
-9 -1 -15 8 -16 8 -1 21 -2 28 -3 6 -1 10 -10 9 -21 -2 -11 -2 -18 0 -15 2 3
10 13 18 23 11 16 11 18 -1 15 -18 -4 -18 24 0 30 9 3 11 0 6 -8 -6 -9 -3 -9
14 -1 22 12 29 31 11 31 -5 0 -10 10 -10 23 0 17 -2 19 -9 8 -5 -8 -7 -20 -4
-28 3 -7 0 -13 -7 -13 -8 0 -9 10 -5 29 4 18 2 32 -6 37 -8 4 -9 3 -5 -4z"/>
<path fill="#ffffff" stroke="none" d="M2404 3124 c-6 -3 -9 -17 -7 -32 4 -22
2 -24 -7 -12 -10 12 -11 11 -7 -8 3 -12 1 -20 -4 -16 -20 12 0 75 24 73 8 0 8
-2 1 -5z"/>
<path fill="#000000" stroke="none" d="M2460 3121 c0 -5 7 -11 15 -15 8 -3 15
-1 15 3 0 5 -7 11 -15 15 -8 3 -15 1 -15 -3z"/>
<path fill="#000000" stroke="none" d="M2504 3097 c3 -10 6 -25 6 -33 0 -9 5
-12 12 -8 7 4 8 3 4 -5 -4 -6 -11 -9 -16 -6 -5 3 -11 1 -15 -5 -3 -5 -1 -10 4
-10 6 0 11 -5 11 -11 0 -6 -5 -7 -12 -2 -23 14 -40 12 -34 -3 3 -9 1 -12 -4
-9 -14 8 -13 18 5 41 15 19 15 19 9 -1 -4 -15 -4 -17 4 -6 6 8 8 21 4 29 -4
11 -1 13 8 7 9 -6 11 -4 5 4 -10 18 -42 -15 -54 -56 -8 -26 -6 -32 9 -36 10
-3 24 0 31 7 11 9 11 8 1 -6 -9 -11 -10 -18 -2 -23 8 -5 7 -11 -2 -23 -9 -11
-9 -14 -1 -9 7 4 20 0 31 -10 19 -19 52 -27 52 -13 0 5 -6 11 -12 13 -7 3 1 5
17 5 17 0 24 -2 17 -5 -6 -2 -10 -9 -6 -14 3 -5 0 -9 -5 -9 -15 0 -14 -27 1
-36 7 -5 8 -3 3 6 -5 8 -2 17 6 24 15 12 21 66 7 66 -4 0 -8 5 -8 12 0 6 3 9
6 5 3 -3 17 -2 30 3 23 9 24 9 9 -14 -8 -12 -12 -26 -8 -30 4 -4 2 -11 -6 -15
-10 -6 -9 -12 5 -25 16 -17 16 -17 -2 -14 -16 2 -19 -3 -19 -31 0 -19 5 -36
12 -38 8 -3 11 3 8 16 -2 14 3 22 18 27 12 4 27 14 33 22 8 10 13 12 18 4 5
-8 12 -6 24 6 16 15 16 18 2 29 -22 18 -29 16 -23 -9 3 -13 2 -20 -2 -16 -4 4
-17 2 -29 -4 -18 -10 -19 -9 -8 4 10 13 10 18 0 29 -20 21 -20 46 -2 53 16 6
15 8 -2 21 -12 9 -14 14 -6 15 7 0 10 4 7 10 -3 6 -16 0 -28 -13 -22 -22 -67
-26 -67 -6 0 6 -4 8 -9 5 -5 -3 -11 1 -15 9 -3 9 0 15 10 15 8 0 13 4 10 8 -3
5 1 9 8 9 8 0 13 -9 11 -22 -1 -16 3 -22 17 -21 10 1 18 4 18 9 0 4 0 10 0 15
0 4 -5 0 -11 -8 -9 -12 -10 -11 -6 7 4 16 -1 24 -15 29 -12 3 -32 18 -45 33
-18 19 -23 21 -19 8z"/>
<path fill="#ffffff" stroke="none" d="M2520 2991 c0 -5 -6 -12 -12 -15 -7 -3
-1 -3 15 -1 19 3 25 0 20 -8 -4 -7 0 -6 10 2 9 7 17 11 17 8 0 -3 3 -13 7 -23
4 -12 3 -15 -6 -10 -7 5 -21 0 -33 -11 -21 -18 -21 -18 -15 6 4 18 3 21 -6 12
-17 -17 -24 -13 -21 12 1 12 3 25 3 30 1 10 21 9 21 -2z"/>
<path fill="#000000" stroke="none" d="M1402 3068 c0 -7 -3 -22 -7 -33 -5 -16
2 -27 31 -48 l38 -26 -25 -10 -24 -10 27 2 c15 1 24 5 22 9 -3 4 0 8 6 8 8 0
10 9 6 23 -4 17 -1 24 9 24 8 0 15 -4 15 -9 0 -4 5 -8 10 -8 6 0 10 9 10 20 0
18 -3 19 -22 9 -22 -12 -22 -12 -4 15 10 15 15 30 12 33 -9 10 -36 -18 -36
-38 0 -10 -5 -21 -12 -25 -6 -4 -8 -3 -5 3 4 6 1 13 -7 16 -10 4 -12 0 -8 -15
3 -14 1 -19 -6 -15 -14 10 -8 42 8 42 7 0 15 6 18 13 2 8 -2 10 -14 5 -11 -4
-15 -3 -11 4 4 6 0 14 -9 17 -21 8 -21 8 -22 -6z"/>
<path fill="#ffffff" stroke="none" d="M1465 2980 c3 -6 -1 -7 -9 -4 -18 7
-21 14 -7 14 6 0 13 -4 16 -10z"/>
<path fill="#000000" stroke="none" d="M1356 3061 c-4 -5 -2 -12 3 -15 5 -4
12 -2 15 3 4 5 2 12 -3 15 -5 4 -12 2 -15 -3z"/>
<path fill="#000000" stroke="none" d="M1335 3010 c18 -20 18 -20 -13 -14 -31
6 -32 5 -31 -27 0 -32 1 -33 10 -10 9 23 10 23 24 5 13 -18 14 -18 23 6 12 31
4 60 -16 60 -13 0 -12 -3 3 -20z"/>
<path fill="#000000" stroke="none" d="M1360 3020 c0 -5 5 -10 11 -10 5 0 7 5
4 10 -3 6 -8 10 -11 10 -2 0 -4 -4 -4 -10z"/>
<path fill="#000000" stroke="none" d="M2663 2998 c1 -32 -4 -49 -13 -43 -6 4
-5 -5 2 -19 12 -27 32 -37 22 -11 -7 18 17 20 34 3 26 -26 11 17 -17 50 -16
19 -29 28 -28 20z"/>
<path fill="#000000" stroke="none" d="M1380 2988 c0 -10 -5 -18 -11 -18 -5 0
-7 -5 -4 -10 4 -6 12 -7 18 -3 7 4 21 6 32 5 l20 -3 -20 12 c-11 7 -23 17 -27
23 -5 7 -8 4 -8 -6z"/>
<path fill="#000000" stroke="none" d="M1262 2944 c-7 -8 -9 -14 -5 -14 4 -1
-5 -8 -22 -16 -16 -8 -22 -12 -13 -10 10 3 19 -2 23 -13 4 -15 15 -19 44 -17
22 0 37 -2 35 -5 -4 -8 21 -19 41 -19 9 0 11 8 7 22 -5 20 -6 20 -12 3 -6 -17
-7 -17 -13 -1 -4 9 -15 16 -24 14 -10 -1 -18 2 -18 7 0 6 6 9 13 7 9 -2 11 1
6 10 -6 11 -5 11 8 0 14 -11 18 -10 27 7 14 26 14 28 -4 28 -8 0 -15 -4 -15
-9 0 -4 -5 -8 -11 -8 -5 0 -7 5 -4 10 3 6 2 10 -4 10 -5 0 -13 -4 -16 -10 -9
-14 -23 -12 -27 4 -3 12 -5 12 -16 0z"/>
<path fill="#ffffff" stroke="none" d="M1283 2905 c-8 -22 -22 -18 -16 5 3 11
9 17 14 15 4 -3 6 -12 2 -20z"/>
<path fill="#000000" stroke="none" d="M1383 2943 c-3 -10 -8 -22 -11 -27 -3
-5 1 -6 8 -1 8 5 11 3 8 -6 -3 -8 -1 -24 3 -36 5 -14 4 -23 -4 -26 -9 -3 -9
-7 1 -19 10 -13 9 -18 -3 -28 -9 -7 -18 -10 -22 -6 -3 3 -1 6 5 6 7 0 12 5 12
11 0 8 -4 9 -13 0 -8 -6 -17 -8 -20 -4 -4 3 1 12 11 20 14 11 14 12 1 7 -9 -3
-23 2 -32 10 -9 9 -26 16 -38 16 -21 0 -19 -13 2 -16 5 -1 13 -2 19 -3 5 0 7
-8 4 -16 -4 -9 0 -15 9 -15 8 0 20 -7 28 -16 7 -8 21 -13 31 -11 10 3 16 2 13
-3 -3 -4 -18 -10 -35 -12 -23 -3 -29 -1 -28 10 2 8 -3 17 -10 19 -9 4 -11 -3
-7 -24 12 -54 13 -55 35 -33 11 11 26 20 33 20 6 -1 1 -7 -13 -16 l-25 -15 25
6 c23 6 23 5 8 -8 -23 -18 -23 -22 2 -24 13 -1 20 4 20 17 0 10 4 21 9 24 4 3
7 -6 5 -21 -3 -28 -22 -46 -38 -36 -5 3 -6 1 -2 -5 4 -6 14 -8 23 -5 10 4 14
2 10 -4 -4 -5 5 -15 18 -21 14 -7 25 -18 25 -26 0 -8 4 -17 9 -20 5 -4 7 4 4
16 -4 23 -4 23 10 -1 11 -18 15 -20 20 -9 3 8 -3 22 -14 31 -10 9 -19 12 -19
6 0 -5 -5 -7 -10 -4 -6 4 -8 10 -5 15 3 5 -4 11 -14 15 -13 4 -18 12 -14 21 3
8 8 12 11 9 10 -10 51 37 45 52 -4 11 -2 14 8 11 8 -3 14 -17 14 -31 -1 -14 1
-24 4 -22 2 3 12 -2 22 -11 16 -14 18 -14 29 5 9 17 8 21 -5 21 -9 0 -13 -4
-10 -10 3 -5 1 -10 -4 -10 -17 0 -13 18 7 29 14 8 14 11 2 12 -8 1 -18 1 -22
0 -5 0 -8 6 -8 15 0 9 5 12 12 8 7 -5 8 -3 3 6 -6 10 -4 12 8 7 10 -3 17 -2
17 3 0 6 10 10 23 10 12 0 17 3 11 8 -14 9 -34 47 -33 64 0 7 4 3 10 -10 5
-13 13 -21 19 -17 5 3 12 -5 16 -19 3 -13 12 -27 20 -30 17 -6 18 8 4 35 -7
13 -7 19 0 19 5 0 10 -5 10 -11 0 -5 5 -7 12 -3 7 5 8 3 3 -6 -5 -8 -3 -11 4
-9 7 3 12 9 11 14 -1 5 7 12 17 16 15 6 14 8 -7 9 -14 2 -30 2 -37 1 -6 -1
-14 3 -18 9 -4 6 -12 4 -22 -6 -15 -15 -17 -15 -25 6 -8 22 -28 19 -28 -6 0
-8 -6 -13 -12 -11 -7 1 -11 -5 -9 -13 8 -33 5 -43 -15 -50 -15 -6 -21 -4 -21
6 0 8 5 13 12 11 6 -3 11 4 11 14 0 10 -5 18 -11 18 -32 -4 -40 2 -21 16 13
10 22 11 26 4 4 -6 14 1 25 18 18 27 18 28 0 13 -17 -14 -18 -13 -12 4 6 16 5
17 -8 6 -14 -11 -19 -7 -16 12 0 4 -7 4 -16 1 -11 -4 -14 -2 -9 5 5 8 -6 10
-35 7 -34 -4 -39 -2 -29 9 7 10 8 16 0 21 -5 3 -13 -2 -17 -12z"/>
<path fill="#ffffff" stroke="none" d="M1460 2897 c0 -4 5 -5 10 -2 6 3 10 1
10 -4 0 -6 -7 -11 -16 -11 -8 0 -12 -4 -9 -10 3 -5 1 -10 -5 -10 -6 0 -10 8
-8 18 2 13 -3 16 -19 14 -13 -2 -23 0 -23 5 0 4 14 8 30 8 17 1 30 -3 30 -8z"/>
<path fill="#ffffff" stroke="none" d="M1550 2825 c11 -13 10 -14 -4 -9 -9 3
-16 10 -16 15 0 13 6 11 20 -6z"/>
<path fill="#ffffff" stroke="none" d="M1465 2820 c3 -5 1 -10 -6 -10 -9 0 -9
-3 0 -14 9 -10 9 -16 1 -21 -7 -5 -8 -11 -1 -19 7 -9 5 -17 -9 -29 -11 -9 -20
-16 -21 -14 -6 24 -4 69 4 74 6 4 8 0 4 -11 -4 -11 -3 -15 4 -11 6 4 7 19 4
36 -6 28 7 40 20 19z"/>
<path fill="#ffffff" stroke="none" d="M1430 2810 c0 -5 -4 -10 -10 -10 -5 0
-10 5 -10 10 0 6 5 10 10 10 6 0 10 -4 10 -10z"/>
<path fill="#000000" stroke="none" d="M1440 2750 c0 -5 5 -10 11 -10 5 0 7 5
4 10 -3 6 -8 10 -11 10 -2 0 -4 -4 -4 -10z"/>
<path fill="#000000" stroke="none" d="M1761 2928 c-1 -11 -8 -16 -20 -13 -11
2 -26 -4 -33 -13 -7 -9 -8 -13 -2 -9 7 4 14 0 17 -8 4 -10 1 -12 -10 -8 -14 5
-15 1 -9 -27 3 -18 3 -31 0 -27 -4 4 -15 -3 -25 -15 -24 -27 -24 -31 1 -18 11
6 20 8 20 5 0 -3 10 1 23 10 21 13 23 13 24 -5 1 -13 -4 -19 -15 -18 -43 3
-64 -2 -59 -16 3 -7 -1 -23 -8 -34 -8 -10 -11 -22 -8 -26 3 -3 2 -6 -4 -6 -5
0 -8 -13 -5 -30 2 -16 8 -27 13 -24 5 3 7 9 4 14 -9 14 14 60 29 60 8 0 19 8
25 18 8 14 12 15 23 3 11 -12 10 -13 -2 -7 -12 6 -12 5 1 -6 9 -7 15 -19 13
-26 -1 -7 0 -8 2 -3 3 6 19 8 35 4 22 -4 29 -2 27 8 -2 9 4 13 19 11 12 -2 23
1 26 5 3 5 -8 8 -24 8 -16 0 -29 5 -29 10 0 6 4 10 9 10 19 0 19 11 0 35 l-20
25 6 -25 c4 -17 3 -21 -3 -11 -8 11 -11 11 -16 0 -3 -8 -4 -4 -2 9 3 14 -1 22
-9 22 -20 0 -24 23 -6 38 15 12 14 13 -1 8 -9 -2 -18 1 -21 7 -6 15 15 35 31
29 7 -2 12 6 12 20 0 17 -3 19 -9 9 -7 -11 -10 -10 -14 5 -4 16 -5 16 -6 2z"/>
<path fill="#ffffff" stroke="none" d="M1736 2834 c-4 -9 -9 -15 -11 -12 -3 3
-3 13 1 22 4 9 9 15 11 12 3 -3 3 -13 -1 -22z"/>
<path fill="#ffffff" stroke="none" d="M1717 2756 c-10 -21 -13 -22 -21 -9 -5
10 -4 18 5 24 23 15 28 10 16 -15z"/>
<path fill="#ffffff" stroke="none" d="M1770 2770 c0 -5 -4 -10 -10 -10 -5 0
-10 5 -10 10 0 6 5 10 10 10 6 0 10 -4 10 -10z"/>
<path fill="#ffffff" stroke="none" d="M1799 2723 c2 -2 -5 -3 -17 -3 -14 0
-22 6 -22 16 0 14 3 15 18 3 9 -7 19 -15 21 -16z"/>
<path fill="#000000" stroke="none" d="M2207 2910 c3 -12 0 -20 -7 -20 -6 0
-10 -10 -8 -23 3 -22 -21 -57 -39 -57 -4 0 -17 -7 -27 -15 -18 -13 -16 -14 18
-12 20 2 42 9 49 17 10 10 9 11 -2 5 -9 -5 -8 1 4 18 9 15 14 31 11 36 -4 5 2
16 12 23 11 7 17 19 13 28 -9 23 -30 23 -24 0z"/>
<path fill="#000000" stroke="none" d="M2742 2914 c10 -10 20 -16 22 -13 3 3
-5 11 -17 18 -21 13 -21 12 -5 -5z"/>
<path fill="#000000" stroke="none" d="M2137 2906 c-4 -9 -16 -16 -28 -16 -17
0 -20 -5 -16 -21 4 -15 2 -18 -7 -10 -7 6 -16 8 -20 4 -4 -4 -11 -1 -16 7 -7
11 -10 12 -10 2 0 -8 -5 -10 -12 -6 -7 5 -9 2 -5 -9 4 -10 0 -17 -11 -20 -16
-4 -15 -5 1 -6 9 0 17 -7 17 -13 0 -9 4 -8 10 2 6 9 10 10 10 3 0 -21 -19 -24
-40 -6 -20 17 -29 50 -10 38 6 -3 10 0 10 8 0 15 -21 14 -60 0 -8 -4 -19 -5
-23 -4 -5 1 -6 -3 -2 -9 3 -6 10 -8 15 -5 5 3 11 1 15 -5 3 -5 -1 -10 -9 -10
-9 0 -16 -6 -16 -12 -1 -7 -8 1 -16 17 -8 17 -12 22 -10 13 8 -28 -9 -29 -43
-4 -27 20 -29 25 -16 36 8 7 15 18 14 24 0 7 -2 6 -6 -1 -2 -7 -11 -13 -20
-13 -9 0 -13 -8 -11 -22 2 -13 9 -22 16 -21 6 2 12 -2 12 -7 0 -6 -7 -10 -16
-8 -10 2 -19 -3 -22 -11 -3 -9 1 -11 16 -7 18 6 19 3 17 -34 -2 -22 1 -40 6
-40 5 0 9 5 9 12 0 6 7 3 15 -8 15 -18 15 -18 13 11 -2 23 -7 29 -22 27 -11
-2 -15 1 -11 8 4 6 13 9 21 6 7 -3 16 -1 19 4 4 6 17 7 31 4 16 -4 24 -2 24 6
0 10 3 10 15 0 13 -11 15 -10 9 6 -5 16 -4 16 5 4 13 -18 15 -43 3 -36 -5 3
-9 -1 -9 -9 0 -11 4 -12 14 -4 9 8 13 8 13 0 0 -6 8 -11 19 -11 10 0 21 -9 24
-20 3 -13 13 -20 29 -19 12 0 17 3 10 6 -6 2 -10 9 -6 14 3 5 0 9 -7 9 -7 0
-9 3 -6 7 4 3 15 -1 25 -10 18 -16 19 -16 17 5 -1 13 -5 21 -10 20 -4 -2 -12
2 -16 10 -5 7 -9 8 -9 3 0 -6 -15 -11 -32 -10 -25 0 -33 5 -36 20 -2 17 -1 18
7 4 7 -11 19 -15 36 -12 13 3 22 10 19 15 -4 6 1 6 13 0 26 -14 53 2 35 20
-16 16 -15 25 3 25 8 0 15 -6 15 -13 0 -7 6 -11 13 -10 18 3 54 25 40 26 -6 0
-9 9 -5 22 4 17 2 20 -12 15 -10 -4 -20 -7 -22 -7 -2 0 -4 -5 -4 -11 0 -5 4
-7 10 -4 6 4 7 -1 3 -11 -5 -14 -7 -14 -15 -1 -9 16 0 50 11 43 4 -3 13 -1 20
3 9 6 10 11 2 15 -6 4 -11 1 -11 -6 0 -11 -2 -10 -9 0 -7 11 -9 11 -14 -2z"/>
<path fill="#ffffff" stroke="none" d="M2120 2864 c0 -8 -5 -12 -10 -9 -6 4
-8 11 -5 16 9 14 15 11 15 -7z"/>
<path fill="#ffffff" stroke="none" d="M2094 2828 c9 -9 12 -19 7 -23 -6 -3
-13 1 -18 8 -4 8 -17 19 -28 25 -20 12 -20 12 1 9 12 -2 29 -10 38 -19z"/>
<path fill="#000000" stroke="none" d="M1792 2891 c-15 -13 -18 -21 -10 -24
10 -3 10 -8 -1 -21 -13 -15 -13 -19 0 -26 16 -10 30 15 25 46 -2 11 6 24 18
31 14 8 16 12 6 12 -8 0 -25 -8 -38 -18z"/>
<path fill="#000000" stroke="none" d="M2250 2900 c0 -7 -8 -18 -17 -25 -15
-11 -15 -13 6 -25 13 -6 21 -7 17 -2 -3 6 0 17 9 25 13 13 13 16 0 27 -12 10
-15 10 -15 0z"/>
<path fill="#000000" stroke="none" d="M2486 2898 c3 -5 0 -9 -7 -7 -40 5 -60
-2 -57 -18 2 -10 10 -17 17 -15 7 1 20 -3 29 -10 12 -10 14 -10 8 0 -4 6 -2
12 3 12 6 0 11 -7 11 -15 0 -16 -21 -20 -34 -7 -4 4 -11 7 -14 8 -21 3 -40 17
-36 28 2 6 -4 12 -16 13 -17 2 -18 -1 -10 -18 6 -10 17 -19 26 -19 8 0 17 -7
20 -15 4 -8 10 -13 14 -10 5 3 12 0 17 -8 14 -22 76 -48 85 -34 8 12 12 -3 9
-30 -1 -8 5 -10 14 -7 8 3 15 2 15 -3 0 -6 9 -20 19 -32 18 -21 20 -21 55 -4
38 18 44 27 24 39 -6 4 -8 3 -4 -4 3 -6 1 -14 -5 -18 -8 -4 -9 -3 -5 4 4 7 1
12 -6 13 -7 0 -3 5 8 11 12 5 27 24 33 42 l11 31 -6 -30 c-3 -16 -6 -34 -7
-39 -1 -5 6 -12 16 -14 9 -2 17 2 17 8 0 6 -5 8 -12 4 -8 -5 -9 -2 -5 10 4 10
7 20 7 23 0 3 7 0 15 -7 18 -15 20 -7 3 12 -23 25 -39 58 -28 58 6 0 13 -7 17
-16 5 -13 7 -13 14 -2 6 9 9 6 9 -12 0 -27 20 -67 20 -41 0 8 7 11 20 8 17 -4
20 -2 14 15 -5 16 -3 20 9 15 11 -4 14 -2 10 9 -6 17 -17 18 -44 4 -15 -8 -19
-7 -19 4 0 19 -45 29 -70 16 -16 -9 -19 -8 -14 7 5 17 5 17 -9 1 -8 -10 -17
-15 -21 -11 -4 4 -4 0 0 -10 3 -9 10 -17 16 -17 5 0 6 -5 2 -11 -5 -8 -10 -6
-16 5 -5 9 -14 16 -21 16 -7 0 -6 -4 3 -10 10 -6 11 -10 3 -10 -7 0 -13 -9
-13 -19 0 -11 -4 -23 -10 -26 -5 -3 -10 0 -10 7 0 9 -3 9 -10 -2 -7 -12 -12
-12 -22 -2 -9 9 -9 12 0 12 7 0 12 4 12 9 0 5 -16 8 -37 6 -24 -2 -42 2 -52
13 -15 15 -15 15 1 9 19 -7 34 8 18 18 -5 3 -10 15 -10 25 0 13 -5 17 -14 14
-8 -3 -16 -1 -19 3 -3 5 4 9 16 9 27 -1 39 16 14 20 -9 1 -14 -2 -11 -8z"/>
<path fill="#ffffff" stroke="none" d="M2683 2792 c-2 -10 -18 -24 -35 -31
-26 -12 -28 -15 -14 -23 23 -13 21 -31 -3 -19 -10 6 -21 7 -25 4 -3 -3 -6 -2
-6 3 1 14 26 44 32 39 3 -3 16 6 29 20 29 30 28 30 22 7z"/>
<path fill="#ffffff" stroke="none" d="M2787 2804 c-3 -3 -12 -4 -19 -1 -8 3
-5 6 6 6 11 1 17 -2 13 -5z"/>
<path fill="#000000" stroke="none" d="M2528 2889 c-21 -12 -24 -45 -5 -52 9
-3 9 -8 -3 -23 -10 -13 -10 -15 0 -7 8 8 19 9 30 3 23 -12 39 1 29 25 -5 14
-8 15 -9 5 -1 -8 -7 2 -13 22 -10 31 -15 35 -29 27z"/>
<path fill="#ffffff" stroke="none" d="M2547 2834 c2 -13 1 -15 -4 -4 -3 8
-11 19 -17 23 -7 6 -6 7 4 4 8 -2 16 -12 17 -23z"/>
<path fill="#000000" stroke="none" d="M1220 2871 c-14 -26 -13 -28 11 -34 16
-4 20 -11 16 -26 -3 -12 -1 -21 5 -21 5 0 7 -4 4 -9 -3 -5 1 -12 10 -15 12 -5
15 -2 9 11 -4 10 -9 33 -12 51 -3 19 -12 36 -19 39 -8 3 -11 9 -8 14 3 5 3 9
0 9 -3 0 -10 -9 -16 -19z"/>
<path fill="#000000" stroke="none" d="M1881 2883 c0 -6 -4 -20 -7 -30 -5 -14
-4 -15 5 -7 7 7 11 20 8 30 -3 11 -5 14 -6 7z"/>
<path fill="#000000" stroke="none" d="M2320 2879 c-31 -6 -32 -7 -7 -8 15 0
27 -5 27 -11 0 -6 -15 -8 -34 -4 -30 4 -35 2 -33 -15 1 -16 5 -18 20 -9 10 5
21 7 25 4 3 -3 15 1 28 9 19 12 23 12 28 0 3 -8 13 -14 23 -14 14 1 14 2 3 5
-9 3 -22 15 -30 27 -13 19 -21 22 -50 16z"/>
<path fill="#000000" stroke="none" d="M2743 2875 c0 -8 4 -15 8 -15 4 0 15
-3 24 -6 10 -4 15 -2 13 7 -6 28 -45 40 -45 14z"/>
<path fill="#000000" stroke="none" d="M1185 2850 c4 -11 2 -20 -4 -20 -6 0
-11 -5 -11 -11 0 -5 4 -8 9 -4 5 3 12 1 15 -4 7 -11 46 -2 46 10 0 14 -28 11
-34 -3 -4 -9 -5 -8 -5 2 2 33 -2 50 -12 50 -6 0 -8 -9 -4 -20z"/>
<path fill="#000000" stroke="none" d="M1270 2823 c0 -14 19 -38 25 -32 8 8
-5 39 -16 39 -5 0 -9 -3 -9 -7z"/>
<path fill="#000000" stroke="none" d="M1632 2785 c-8 -18 -8 -25 1 -28 7 -2
-3 -4 -20 -3 -31 1 -49 16 -20 16 6 0 4 5 -7 11 -25 15 -42 -10 -18 -28 9 -7
12 -13 5 -13 -12 0 -12 -24 0 -36 6 -6 11 9 9 27 -2 11 32 16 53 8 19 -7 19
-8 -2 -8 -30 -1 -39 -20 -17 -35 10 -8 13 -15 7 -19 -6 -4 -13 0 -17 8 -3 9
-14 13 -28 11 -13 -3 -27 -5 -31 -5 -5 -1 -6 -5 -3 -10 7 -10 25 -9 44 2 7 5
12 4 12 -2 0 -6 -5 -11 -11 -11 -6 0 -9 -6 -6 -12 2 -7 9 -13 15 -13 6 0 18
-9 26 -20 15 -20 15 -20 16 3 0 12 -6 22 -12 22 -9 0 -9 3 -2 8 6 4 10 19 9
35 -1 15 2 27 6 27 5 0 13 10 20 21 9 17 8 20 -1 14 -10 -6 -12 -1 -8 19 7 35
-6 42 -20 11z"/>
<path fill="#000000" stroke="none" d="M1914 2783 c4 -7 2 -13 -3 -13 -16 0
-13 -17 4 -24 10 -4 14 0 12 14 -2 11 -7 23 -12 27 -4 5 -5 2 -1 -4z"/>
<path fill="#000000" stroke="none" d="M1937 2777 c-9 -24 18 -39 60 -34 l38
4 -43 1 c-24 1 -41 6 -38 10 2 4 1 14 -3 21 -7 10 -9 9 -14 -2z"/>
<path fill="#000000" stroke="none" d="M1289 2753 c-13 -16 -12 -17 4 -4 9 7
17 15 17 17 0 8 -8 3 -21 -13z"/>
<path fill="#000000" stroke="none" d="M1680 2704 c0 -10 39 -42 45 -36 3 4 3
-2 -1 -13 -7 -20 -7 -20 14 -1 17 15 19 21 9 37 -8 13 -13 15 -19 6 -4 -7 -8
-7 -8 -2 0 6 -9 11 -20 12 -11 1 -20 0 -20 -3z"/>
<path fill="#000000" stroke="none" d="M1460 2690 c0 -5 -6 -8 -12 -7 -7 2 -3
-1 10 -7 12 -5 22 -13 22 -18 0 -4 4 -8 8 -8 5 0 9 7 9 15 0 8 -7 15 -14 15
-8 0 -11 5 -8 10 3 6 1 10 -4 10 -6 0 -11 -4 -11 -10z"/>
<path fill="#000000" stroke="none" d="M1509 2683 c-4 -23 -4 -82 -1 -78 3 2
11 -2 19 -10 23 -23 31 -18 27 18 -1 17 -4 34 -5 37 -1 3 -1 7 -1 11 1 8 -38
30 -39 22z"/>
<path fill="#ffffff" stroke="none" d="M1541 2635 c5 4 6 -1 2 -10 -5 -13 -7
-14 -14 -3 -5 7 -8 18 -8 23 0 6 3 4 6 -3 2 -6 9 -10 14 -7z"/>
<path fill="#000000" stroke="none" d="M1676 2671 c-4 -5 0 -12 6 -14 10 -4
10 -6 1 -6 -7 -1 -13 -5 -13 -10 0 -5 8 -8 18 -7 16 3 18 8 14 36 -2 13 -19
13 -26 1z"/>
<path fill="#000000" stroke="none" d="M1566 2625 c-6 -17 30 -46 50 -38 8 3
14 7 14 10 0 3 -7 3 -15 -1 -12 -4 -14 0 -9 22 4 23 3 24 -6 10 -6 -10 -16
-18 -23 -18 -8 0 -8 3 2 9 8 5 9 11 3 15 -5 3 -12 -1 -16 -9z"/>
<path fill="#000000" stroke="none" d="M1652 2624 c4 -4 3 -15 -3 -25 -6 -13
-6 -19 1 -19 5 0 10 6 10 14 0 8 5 16 12 18 7 3 4 7 -7 12 -11 4 -16 4 -13 0z"/>
<path fill="#000000" stroke="none" d="M1082 2341 c-25 -21 -30 -53 -7 -45 11
5 13 2 9 -9 -3 -10 -12 -13 -22 -10 -14 5 -13 2 3 -14 22 -23 25 -22 29 2 1 9
9 21 17 27 11 7 11 11 2 15 -7 2 -13 14 -13 24 0 13 4 18 12 13 7 -4 8 -3 4 4
-9 15 -9 15 -34 -7z"/>
<path fill="#000000" stroke="none" d="M2786 2348 c3 -5 10 -6 15 -3 13 9 11
12 -6 12 -8 0 -12 -4 -9 -9z"/>
<path fill="#000000" stroke="none" d="M1128 2313 c-2 -22 -8 -37 -15 -36 -16
3 -9 -30 7 -35 9 -3 11 1 7 12 -4 10 -3 15 3 11 16 -10 12 -23 -11 -36 -17 -9
-20 -8 -14 2 6 9 4 11 -7 6 -23 -8 -55 32 -52 66 l3 28 -26 -21 c-14 -11 -29
-17 -34 -14 -12 7 -11 2 7 -34 15 -31 12 -52 -7 -52 -6 0 -8 4 -5 8 3 5 -1 9
-10 9 -14 0 -13 -11 3 -54 3 -6 -4 -20 -15 -31 -14 -14 -17 -24 -10 -36 11
-20 40 -22 32 -2 -3 8 0 17 7 22 9 5 10 2 6 -10 -6 -14 -3 -17 9 -12 8 3 18 6
20 6 3 0 2 6 -2 13 -6 9 -5 9 8 0 18 -16 28 -7 28 24 0 16 6 23 20 23 11 0 20
-6 20 -12 0 -10 3 -9 9 1 7 11 10 11 15 0 3 -8 4 -4 2 9 -2 12 0 19 5 16 5 -3
30 -7 54 -8 35 -3 43 -1 35 9 -5 6 -6 16 -2 20 4 5 1 5 -7 0 -10 -6 -12 -2 -6
14 4 13 2 21 -5 21 -7 0 -10 6 -7 13 3 8 -1 14 -8 14 -8 0 -13 -3 -12 -6 4
-15 -26 -51 -41 -50 -15 1 -15 2 -1 6 21 5 31 40 14 46 -7 3 -10 17 -7 36 2
17 9 28 14 25 5 -4 8 -17 5 -30 -2 -13 0 -21 4 -18 5 3 9 12 9 20 0 16 26 19
35 4 4 -6 -1 -7 -12 -4 -15 5 -15 4 -3 -4 10 -8 18 -8 27 0 17 13 17 29 1 26
-7 -2 -12 3 -10 10 1 6 -2 12 -7 12 -5 0 -11 -6 -14 -12 -3 -10 -9 -8 -24 5
-28 24 -31 22 -35 -20z"/>
<path fill="#ffffff" stroke="none" d="M1086 2195 c1 -11 0 -14 -3 -7 -3 6
-11 12 -19 12 -9 0 -13 4 -10 8 2 4 0 14 -6 22 -8 13 -9 12 -5 -2 3 -9 -3 -24
-14 -34 -15 -14 -17 -20 -6 -32 11 -13 9 -14 -10 -1 -26 16 -31 39 -8 39 17 0
20 36 6 60 -6 8 -7 18 -4 23 8 13 78 -64 79 -88z"/>
<path fill="#ffffff" stroke="none" d="M1195 2182 c-3 -3 -5 0 -5 7 0 8 -7 11
-15 7 -18 -7 -20 5 -3 22 10 10 14 8 20 -9 5 -12 6 -24 3 -27z"/>
<path fill="#ffffff" stroke="none" d="M1063 2181 c-4 -3 -11 -10 -15 -15 -4
-4 -6 1 -5 12 1 12 6 18 15 15 7 -3 10 -9 5 -12z"/>
<path fill="#ffffff" stroke="none" d="M1005 2150 c3 -5 1 -10 -4 -10 -6 0
-11 5 -11 10 0 6 2 10 4 10 3 0 8 -4 11 -10z"/>
<path fill="#000000" stroke="none" d="M2828 2324 c2 -13 8 -21 13 -18 5 3 7
9 4 14 -3 4 0 10 7 12 7 3 3 7 -8 10 -17 4 -20 1 -16 -18z"/>
<path fill="#000000" stroke="none" d="M2892 2323 c-19 -7 -4 -23 16 -17 14 5
15 4 2 -5 -13 -9 -13 -11 -1 -11 11 0 10 -4 -5 -16 -13 -11 -14 -14 -3 -11 8
3 21 -4 28 -15 11 -17 10 -18 -9 -8 -11 6 -20 7 -20 3 0 -4 -5 0 -11 11 -9 14
-8 20 1 26 20 12 -7 23 -27 11 -12 -7 -13 -10 -4 -11 9 0 12 -8 9 -25 -3 -14
-1 -23 6 -22 6 1 11 -5 11 -13 0 -8 4 -18 10 -22 5 -4 9 -23 8 -42 -1 -36 9
-43 56 -36 9 1 12 -4 8 -14 -3 -8 -2 -18 4 -21 5 -4 7 -11 3 -16 -3 -5 -15 2
-26 16 -20 25 -42 26 -32 1 3 -8 1 -17 -5 -21 -12 -7 -15 -26 -3 -24 21 4 24
-3 6 -17 -10 -8 -14 -13 -7 -10 6 4 14 0 16 -6 3 -8 6 -6 6 5 1 9 6 17 13 17
6 0 4 6 -7 13 -18 14 -14 37 6 37 6 0 8 -4 5 -8 -2 -4 -1 -14 4 -22 5 -9 5
-19 -1 -26 -7 -8 -6 -15 2 -20 8 -4 9 -3 5 4 -4 7 -2 12 3 12 6 0 11 -4 11 -8
0 -11 60 -45 67 -38 4 3 -1 14 -10 24 -25 27 -8 36 19 11 19 -18 26 -20 39 -9
10 8 15 9 15 1 0 -6 -3 -11 -7 -11 -5 0 -8 -11 -8 -24 0 -18 3 -22 13 -14 12
10 13 9 16 -14 0 -7 10 -14 21 -16 16 -3 17 -1 5 7 -11 8 -12 11 -2 11 7 0 10
5 7 10 -3 6 -1 10 4 10 6 0 11 7 11 15 0 8 5 15 11 15 5 0 8 -4 4 -9 -3 -5 -1
-12 4 -16 6 -3 9 9 7 32 -2 21 -4 54 -5 73 -2 28 -4 31 -10 15 -5 -11 -6 -27
-3 -35 5 -13 4 -13 -13 0 -17 14 -18 14 -7 -6 12 -23 7 -34 -15 -34 -8 0 -11
5 -8 10 4 6 11 7 17 4 7 -4 8 -2 4 5 -4 6 -12 9 -17 6 -5 -3 -6 1 -3 9 4 9 1
16 -6 16 -7 0 -10 -8 -7 -20 3 -11 2 -22 -2 -25 -10 -5 -57 47 -53 58 1 5 -2
6 -8 2 -5 -3 -10 -2 -10 3 0 15 26 22 39 9 6 -6 11 -7 11 -3 0 5 6 3 14 -3 10
-8 16 -9 21 -1 3 5 3 10 -1 10 -4 0 3 11 16 25 13 14 22 25 19 26 -2 0 -14 2
-26 5 -13 2 -23 -1 -23 -7 0 -5 5 -7 10 -4 6 3 10 -1 10 -9 0 -12 -5 -14 -24
-6 -18 6 -28 5 -36 -5 -7 -8 -15 -14 -18 -13 -4 0 -18 -1 -32 -2 -19 -2 -21
-3 -7 -7 13 -3 17 -11 14 -24 -3 -10 -1 -16 4 -13 5 3 16 -1 24 -9 13 -13 10
-15 -20 -14 -19 1 -31 3 -27 6 4 4 8 15 10 26 3 20 2 20 -13 1 -14 -19 -15
-19 -13 10 1 16 7 32 13 36 5 5 1 8 -10 8 -11 0 -27 5 -35 11 -11 7 -7 9 20 7
19 -1 38 -7 42 -12 3 -5 5 3 5 17 -1 15 -4 27 -7 28 -3 0 -15 2 -28 5 -13 2
-21 0 -17 -5 9 -15 -11 -22 -37 -12 -21 9 -21 10 -3 10 13 1 21 8 22 21 1 16
-2 20 -18 15 -12 -4 -19 -2 -19 6 0 7 3 9 7 6 3 -4 12 -2 20 4 8 7 13 8 13 1
0 -5 9 -12 20 -15 13 -3 20 0 20 9 0 8 -8 14 -17 14 -15 0 -16 2 -3 10 20 13
33 13 24 -1 -4 -8 1 -9 17 -4 20 7 22 5 13 -6 -16 -20 -13 -49 5 -48 9 1 27 5
41 9 25 8 12 14 -23 10 -13 -1 -18 4 -16 17 2 10 -3 28 -10 41 -11 20 -15 21
-28 10 -9 -7 -25 -12 -36 -10 -13 3 -17 0 -12 -9 6 -8 4 -10 -5 -4 -10 6 -10
11 4 20 15 11 15 13 -5 18 -11 3 -19 10 -16 14 7 12 -24 31 -41 26z"/>
<path fill="#ffffff" stroke="none" d="M3010 2150 c0 -5 -2 -10 -4 -10 -3 0
-8 5 -11 10 -3 6 -1 10 4 10 6 0 11 -4 11 -10z"/>
<path fill="#ffffff" stroke="none" d="M3117 2093 c0 -9 -4 -10 -12 -3 -7 5
-15 7 -18 3 -4 -3 -7 -1 -7 5 0 6 8 10 18 9 10 0 19 -7 19 -14z"/>
<path fill="#ffffff" stroke="none" d="M2999 2010 c11 -24 11 -24 -3 -6 -9 11
-16 24 -16 30 0 12 5 7 19 -24z"/>
<path fill="#ffffff" stroke="none" d="M3085 2020 c3 -6 -4 -10 -17 -10 -18 0
-20 2 -8 10 19 12 18 12 25 0z"/>
<path fill="#ffffff" stroke="none" d="M3144 1985 c4 -10 -1 -15 -14 -15 -20
0 -26 11 -13 23 10 11 20 8 27 -8z"/>
<path fill="#000000" stroke="none" d="M967 2254 c6 -15 23 -19 23 -5 0 5 -7
11 -14 14 -10 4 -13 1 -9 -9z"/>
<path fill="#000000" stroke="none" d="M922 2242 c-10 -7 -10 -15 -2 -36 13
-35 13 -56 -1 -33 -12 20 -31 23 -27 4 2 -7 -1 -13 -7 -14 -5 0 -9 3 -7 8 1 5
-3 9 -8 9 -25 0 2 -42 51 -78 15 -11 17 -9 15 12 -1 21 -5 24 -23 19 -14 -3
-23 -1 -23 6 0 6 3 11 8 12 4 0 15 2 24 4 10 2 21 -1 24 -7 9 -14 24 11 17 29
-3 7 -9 11 -13 8 -5 -3 -6 10 -3 30 6 35 -1 42 -25 27z"/>
<path fill="#000000" stroke="none" d="M880 2210 c0 -5 7 -10 16 -10 8 0 12 5
9 10 -3 6 -10 10 -16 10 -5 0 -9 -4 -9 -10z"/>
<path fill="#000000" stroke="none" d="M3052 2165 c-11 -13 -9 -15 13 -15 14
0 25 -5 25 -12 0 -6 3 -9 6 -6 6 6 -17 48 -26 48 -3 -1 -11 -7 -18 -15z"/>
<path fill="#000000" stroke="none" d="M1140 2153 c0 -10 4 -14 8 -8 4 6 11
13 16 18 5 4 2 7 -7 7 -10 0 -17 -8 -17 -17z"/>
<path fill="#000000" stroke="none" d="M1075 2151 c-3 -5 -2 -12 3 -15 5 -3 9
1 9 9 0 17 -3 19 -12 6z"/>
<path fill="#000000" stroke="none" d="M1105 2140 c-3 -5 -3 -15 1 -22 4 -7 3
-8 -5 -4 -6 4 -17 3 -24 -2 -7 -5 -20 -8 -29 -7 -10 2 -20 -1 -24 -6 -3 -5 2
-9 10 -9 8 0 18 -4 21 -10 3 -6 -1 -7 -9 -4 -10 4 -16 1 -16 -7 -1 -9 -4 -8
-11 4 -8 13 -14 15 -23 8 -7 -6 -23 -9 -35 -6 -17 3 -21 0 -17 -10 3 -8 2 -14
-2 -14 -22 4 -28 -4 -28 -31 0 -24 3 -29 15 -25 8 3 12 3 9 -1 -4 -4 -3 -15 3
-25 6 -11 6 -19 0 -19 -5 0 -12 7 -15 16 -4 12 -10 13 -19 6 -6 -6 -16 -12
-22 -14 -5 -1 -9 -9 -9 -15 1 -7 -3 -13 -9 -13 -6 0 -8 -2 -5 -5 8 -8 39 6 33
15 -3 4 2 10 10 14 21 8 19 -8 -5 -29 -11 -10 -20 -23 -20 -29 0 -6 5 -3 11 6
6 11 16 15 26 11 10 -4 14 -2 10 4 -8 12 18 12 29 0 4 -4 16 -7 27 -7 11 0 17
3 13 8 -4 4 -13 7 -19 7 -6 0 -14 16 -18 35 -7 31 -6 33 6 17 8 -11 12 -24 11
-30 -2 -7 -1 -8 2 -4 2 4 15 -5 28 -20 l23 -27 9 23 c4 12 12 22 17 22 4 -1
10 9 11 21 6 39 9 53 17 64 4 7 0 14 -8 18 -8 3 -12 12 -9 21 6 14 8 14 19 -2
11 -15 13 -15 26 8 7 13 15 34 16 46 4 23 -12 40 -22 23z"/>
<path fill="#ffffff" stroke="none" d="M1094 2094 c3 -8 2 -12 -4 -9 -6 3 -10
10 -10 16 0 14 7 11 14 -7z"/>
<path fill="#ffffff" stroke="none" d="M993 2058 c12 10 16 9 20 -3 4 -8 13
-12 22 -9 10 4 15 0 16 -12 0 -11 2 -29 3 -41 2 -13 -2 -19 -7 -16 -6 4 -8 -1
-4 -11 4 -10 3 -15 -3 -11 -6 3 -10 -1 -10 -10 0 -9 -5 -13 -10 -10 -8 5 -7
12 1 22 11 12 9 13 -14 8 -17 -5 -27 -3 -27 4 0 10 16 15 48 14 6 -1 12 3 12
8 0 5 -6 9 -12 10 -10 0 -10 2 0 6 10 4 10 8 1 19 -13 16 -39 19 -39 3 0 -5 4
-8 8 -5 5 3 9 -1 9 -9 0 -8 -4 -12 -9 -9 -4 3 -8 0 -8 -7 0 -8 -6 -6 -18 4
-10 10 -22 15 -25 12 -4 -3 -3 1 3 7 5 7 10 21 10 33 0 16 2 17 9 6 8 -12 13
-12 24 -3z"/>
<path fill="#000000" stroke="none" d="M970 2020 c0 -5 5 -10 11 -10 5 0 7 5
4 10 -3 6 -8 10 -11 10 -2 0 -4 -4 -4 -10z"/>
<path fill="#000000" stroke="none" d="M840 2128 c0 -12 -5 -16 -17 -12 -14 4
-15 3 -5 -4 23 -16 2 -55 -23 -45 -19 7 -43 -18 -39 -40 1 -9 -1 -17 -4 -17
-4 0 -13 -10 -21 -22 -13 -21 -13 -22 1 -10 13 10 17 10 21 0 3 -7 6 -2 7 12
1 14 4 20 6 13 3 -7 13 -9 22 -6 15 6 15 5 3 -10 -12 -15 -12 -17 3 -11 10 4
15 13 12 20 -3 8 -1 14 4 14 6 0 10 -5 10 -11 0 -5 5 -7 10 -4 8 5 7 11 -1 21
-9 11 -15 11 -25 3 -16 -13 -48 -4 -39 11 5 8 12 7 23 -2 15 -12 16 -11 3 5
-9 11 -10 17 -2 17 6 0 11 -5 11 -11 0 -5 4 -8 9 -5 5 3 14 -1 21 -9 7 -8 22
-15 34 -14 16 0 17 2 6 7 -19 8 -19 38 -1 34 7 -1 10 2 6 8 -3 5 -13 10 -21
10 -16 0 -19 26 -4 35 6 4 16 2 23 -3 7 -6 16 -10 20 -10 5 0 11 -3 14 -6 8
-7 -34 1 -50 10 -6 4 -1 -4 13 -17 14 -13 28 -20 31 -15 4 5 12 5 18 2 6 -4
11 0 11 9 0 8 -17 23 -37 33 -21 9 -41 22 -45 27 -5 6 -8 3 -8 -7z"/>
<path fill="#000000" stroke="none" d="M1150 2130 c-9 -6 -10 -10 -3 -10 6 0
15 5 18 10 8 12 4 12 -15 0z"/>
<path fill="#000000" stroke="none" d="M3040 2130 c0 -5 6 -10 14 -10 8 0 18
5 21 10 3 6 -3 10 -14 10 -12 0 -21 -4 -21 -10z"/>
<path fill="#000000" stroke="none" d="M3078 2063 c7 -3 16 -2 19 1 4 3 -2 6
-13 5 -11 0 -14 -3 -6 -6z"/>
<path fill="#000000" stroke="none" d="M3203 1997 c7 -27 -14 -54 -33 -42 -6
3 -10 -3 -10 -14 0 -12 7 -21 15 -21 8 0 15 5 15 11 0 6 6 9 13 6 9 -3 14 4
14 21 0 15 2 33 4 41 2 7 -2 16 -10 19 -10 3 -12 -2 -8 -21z"/>
<path fill="#000000" stroke="none" d="M835 1983 c-40 -14 -75 -23 -106 -26
-10 -1 -15 -7 -11 -16 4 -10 1 -13 -10 -9 -8 3 -15 1 -15 -5 0 -7 -4 -20 -8
-31 -6 -14 -5 -17 6 -14 8 3 13 12 11 22 -2 10 4 16 18 16 11 0 20 4 20 9 0 5
7 12 16 15 8 3 12 2 9 -4 -11 -18 8 -11 33 13 l25 22 -6 -22 c-3 -13 -1 -23 5
-23 5 0 6 -5 3 -10 -9 -15 -27 -1 -21 17 4 8 1 11 -5 8 -6 -4 -8 -13 -5 -20 2
-7 -1 -18 -7 -24 -12 -12 -51 -15 -43 -3 2 4 -5 8 -17 9 -12 0 -16 -1 -9 -4 6
-3 12 -9 12 -14 0 -6 -4 -8 -9 -4 -5 3 -12 1 -15 -4 -4 -5 2 -12 11 -15 10 -2
3 -3 -15 -1 -19 2 -31 1 -28 -2 3 -3 -5 -14 -17 -23 -21 -18 -21 -19 -3 -26
17 -6 17 -8 4 -13 -15 -5 -15 -8 -2 -25 12 -17 14 -18 14 -3 0 28 27 19 35
-10 7 -28 7 -28 23 -8 19 23 39 26 51 7 5 -9 11 -5 19 13 7 16 17 23 24 19 7
-4 8 -3 4 4 -4 7 -1 12 8 12 9 0 16 4 16 9 0 5 -6 9 -12 8 -39 -1 -52 3 -41
14 13 13 6 39 -9 39 -6 0 -7 -8 -3 -17 5 -14 4 -15 -6 -6 -10 10 -9 15 0 27
16 19 58 17 66 -2 6 -17 -3 -34 -16 -26 -5 3 -7 9 -4 14 3 5 1 11 -5 15 -11 7
-12 -11 -1 -38 6 -17 8 -17 20 -3 7 9 17 13 22 10 5 -3 9 -2 8 3 -3 18 2 27 9
16 4 -7 17 -10 29 -7 17 5 19 9 10 19 -9 9 -14 10 -19 1 -8 -11 -57 39 -57 59
-1 6 4 3 9 -5 8 -13 10 -12 10 3 0 9 -7 17 -15 17 -8 0 -15 4 -15 9 0 5 9 7
19 4 11 -3 27 -1 36 5 31 17 -7 21 -50 5z"/>
<path fill="#ffffff" stroke="none" d="M724 1828 c9 -12 16 -17 16 -11 0 6 9
13 20 16 24 6 25 3 3 -22 -9 -11 -20 -18 -25 -15 -4 3 -8 -4 -8 -15 0 -12 -4
-21 -9 -21 -5 0 -8 11 -7 25 2 13 0 22 -4 20 -4 -3 -13 2 -20 10 -9 11 -9 15
-1 15 7 0 9 5 6 10 -13 20 14 9 29 -12z"/>
<path fill="#ffffff" stroke="none" d="M760 1846 c0 -2 -7 -7 -16 -10 -8 -3
-12 -2 -9 4 6 10 25 14 25 6z"/>
<path fill="#ffffff" stroke="none" d="M799 1794 c-15 -19 -29 -18 -29 2 0 8
5 12 10 9 6 -3 10 -1 10 5 0 6 5 8 10 5 8 -5 7 -11 -1 -21z"/>
<path fill="#000000" stroke="none" d="M3060 1970 c0 -5 5 -10 11 -10 5 0 7 5
4 10 -3 6 -8 10 -11 10 -2 0 -4 -4 -4 -10z"/>
<path fill="#000000" stroke="none" d="M3236 1942 c-3 -6 -1 -14 5 -17 14 -9
20 -2 10 14 -6 8 -11 9 -15 3z"/>
<path fill="#000000" stroke="none" d="M931 1906 c-9 -11 -8 -15 5 -20 23 -9
38 8 21 23 -11 9 -17 8 -26 -3z"/>
<path fill="#000000" stroke="none" d="M569 1813 c-1 -5 -1 -11 0 -15 0 -5 -3
-8 -8 -8 -5 0 -11 -6 -14 -13 -3 -7 3 -13 13 -13 13 0 17 8 16 28 -1 26 -5 37
-7 21z"/>
<path fill="#000000" stroke="none" d="M591 1798 c0 -16 2 -27 7 -26 4 1 17
-3 30 -10 14 -8 22 -9 22 -2 0 5 -4 10 -9 10 -6 0 -8 8 -6 18 2 11 -3 19 -10
19 -8 0 -12 -4 -9 -9 3 -4 1 -8 -5 -8 -5 0 -12 8 -14 18 -3 10 -5 6 -6 -10z"/>
<path fill="#000000" stroke="none" d="M3410 1813 c0 -9 40 -36 45 -31 2 2 -8
11 -21 21 -13 10 -24 14 -24 10z"/>
<path fill="#000000" stroke="none" d="M3494 1765 c16 -15 35 -24 43 -20 11 3
13 1 10 -10 -4 -8 0 -27 8 -41 9 -18 11 -33 5 -43 -6 -12 -2 -23 16 -42 21
-22 23 -27 10 -32 -9 -4 -16 -1 -16 5 0 6 -2 9 -5 6 -8 -7 6 -39 14 -34 11 7
36 -12 28 -20 -4 -4 -19 -1 -34 6 -16 7 -31 13 -35 12 -5 -1 -8 3 -8 9 0 5 -4
7 -10 4 -12 -7 -14 -26 -2 -24 24 4 42 -3 42 -16 0 -11 10 -14 40 -12 42 2 47
6 28 25 -8 8 -4 10 18 5 16 -3 38 -6 49 -7 11 -1 26 -5 34 -10 9 -6 12 -5 7 2
-3 6 -1 14 5 18 6 3 15 1 19 -6 4 -7 12 -10 18 -6 5 3 12 -1 16 -9 6 -17 -10
-30 -19 -15 -4 6 -11 5 -19 -3 -8 -6 -12 -16 -9 -21 3 -4 9 -2 14 5 7 11 9 10
9 -4 0 -14 -5 -16 -25 -11 -15 4 -25 2 -25 -5 0 -6 -5 -11 -11 -11 -6 0 -9 6
-6 14 7 19 -18 42 -28 26 -9 -15 24 -51 44 -48 9 2 15 -3 13 -10 -1 -8 2 -11
8 -7 6 3 8 10 6 14 -3 4 5 8 17 8 12 1 17 -1 12 -5 -6 -4 -11 -17 -13 -30 -3
-17 2 -25 18 -29 18 -5 19 -7 6 -22 -8 -9 -15 -20 -16 -26 -1 -5 -7 -9 -14 -7
-6 2 -3 -5 6 -14 15 -15 20 -16 30 -5 10 11 10 12 0 7 -8 -5 -11 0 -8 16 2 13
10 22 17 20 8 -2 24 -5 37 -6 31 -4 48 -22 28 -29 -9 -4 -16 -2 -16 3 0 5 -9
8 -19 7 -23 -1 -17 -17 5 -17 12 0 14 -7 9 -30 -4 -20 -3 -30 5 -30 7 0 10 7
6 15 -3 8 -1 15 4 15 5 0 6 8 3 17 -5 12 -2 15 9 11 8 -3 15 -1 16 5 1 7 4 26
7 42 5 27 4 28 -5 7 -10 -23 -30 -22 -30 1 0 7 4 6 10 -3 9 -13 10 -13 10 1 0
17 -19 39 -33 39 -5 0 -6 -12 -2 -27 5 -23 4 -25 -9 -14 -9 7 -13 18 -9 24 3
6 1 7 -5 3 -8 -5 -12 2 -12 18 0 14 -4 26 -10 26 -16 0 -11 27 6 34 9 3 17 6
18 6 1 0 1 -13 -2 -30 -3 -19 0 -30 8 -30 8 0 10 9 6 28 -3 15 -3 21 0 15 3
-7 11 -13 17 -13 8 0 8 3 0 11 -6 6 -10 17 -9 23 2 6 1 8 -1 4 -9 -16 -31 5
-28 28 1 15 -3 24 -11 24 -8 0 -14 5 -14 11 0 5 -4 7 -10 4 -5 -3 -10 -2 -10
4 0 6 -6 8 -14 5 -8 -3 -20 3 -27 13 -20 26 -42 29 -34 4 8 -27 -13 -36 -36
-15 -15 13 -22 15 -31 6 -7 -7 -19 -12 -27 -11 -12 0 -10 4 7 16 22 16 32 51
10 37 -7 -4 -8 -3 -4 5 10 15 26 5 27 -17 0 -14 2 -13 9 3 12 28 12 37 0 30
-5 -3 -10 1 -10 9 0 8 5 18 10 21 6 4 7 11 4 17 -5 7 -2 8 7 2 8 -5 17 -9 22
-9 4 0 6 -4 5 -10 -1 -5 -8 -9 -14 -7 -9 2 -10 -5 -6 -23 4 -13 10 -25 15 -25
32 -1 38 2 34 13 -2 6 -10 11 -16 9 -7 -1 -10 2 -6 8 3 6 11 8 16 4 5 -3 8 0
7 8 -2 7 3 12 10 10 10 -2 11 4 6 20 -4 13 -7 29 -7 36 0 6 -2 10 -5 7 -3 -2
-14 0 -26 6 -17 8 -16 6 4 -10 27 -22 21 -28 -10 -11 -16 9 -18 8 -14 -5 5
-11 2 -13 -10 -9 -9 3 -19 17 -22 30 -5 19 -13 24 -38 25 -17 0 -25 3 -18 6 6
2 12 9 12 15 0 6 -6 8 -14 5 -8 -3 -17 -1 -20 6 -3 7 -3 2 0 -10 3 -13 1 -23
-5 -23 -6 0 -11 8 -12 18 0 14 -2 14 -9 -3 -8 -20 -11 -18 -14 8 0 6 -14 13
-31 15 l-30 3 29 -26z"/>
<path fill="#ffffff" stroke="none" d="M3611 1733 c8 2 11 2 7 0 -13 -8 -9
-23 6 -23 8 0 14 -10 14 -25 0 -14 -4 -25 -9 -25 -5 0 -9 10 -9 21 0 18 -2 19
-15 9 -13 -11 -13 -15 6 -31 21 -18 21 -18 1 -30 -19 -12 -19 -14 -4 -26 9 -7
12 -13 6 -13 -29 0 -48 60 -28 87 17 23 17 30 -2 37 -8 3 -12 2 -9 -4 3 -6 2
-10 -4 -10 -17 0 -23 20 -11 36 9 10 16 11 25 4 7 -6 19 -9 26 -7z"/>
<path fill="#ffffff" stroke="none" d="M3714 1679 c-6 -11 -24 -2 -24 11 0 5
7 7 15 4 8 -4 12 -10 9 -15z"/>
<path fill="#ffffff" stroke="none" d="M3800 1414 c0 -8 -6 -14 -14 -14 -12 0
-14 10 -7 38 3 10 21 -11 21 -24z"/>
<path fill="#000000" stroke="none" d="M510 1771 c0 -6 4 -13 10 -16 6 -3 7 1
4 9 -7 18 -14 21 -14 7z"/>
<path fill="#000000" stroke="none" d="M575 1751 c-3 -6 -11 -9 -16 -6 -5 4
-9 1 -9 -5 0 -6 -4 -9 -9 -5 -5 3 -12 1 -16 -4 -3 -6 4 -15 15 -21 16 -8 20
-8 20 4 0 24 18 28 42 12 20 -14 18 -21 -5 -17 -5 1 -6 -3 -2 -9 3 -5 1 -10
-4 -10 -6 0 -11 8 -12 18 0 10 -3 12 -6 5 -2 -7 -4 -15 -3 -19 1 -4 -4 -11
-12 -16 -9 -7 -4 -8 14 -4 31 7 46 -8 22 -22 -14 -8 -15 -10 -1 -15 16 -6 33
25 23 41 -2 4 4 13 14 19 14 10 21 8 36 -8 10 -11 12 -19 6 -19 -17 0 -15 -27
3 -34 8 -3 15 -11 15 -17 0 -8 -6 -7 -17 2 -16 12 -17 12 -6 -2 7 -9 10 -19 6
-23 -4 -4 0 -4 10 0 9 3 17 10 17 16 0 5 6 6 13 3 6 -4 3 1 -7 9 -18 14 -15
21 6 17 10 -1 41 59 34 66 -2 3 -13 0 -23 -6 -11 -6 -13 -11 -5 -11 7 0 10 -5
6 -11 -10 -16 -25 12 -18 34 6 20 -6 23 -24 5 -7 -7 -12 -8 -12 -4 0 5 8 15
18 22 15 12 13 14 -18 13 -19 0 -47 2 -61 6 -16 4 -29 2 -34 -4z"/>
<path fill="#ffffff" stroke="none" d="M664 1713 c5 -12 9 -13 20 -4 12 10 13
8 9 -9 l-6 -21 -22 21 c-12 11 -25 17 -28 13 -4 -3 -7 1 -7 10 0 20 26 12 34
-10z"/>
<path fill="#ffffff" stroke="none" d="M700 1661 c0 -6 -4 -13 -10 -16 -5 -3
-10 1 -10 9 0 9 5 16 10 16 6 0 10 -4 10 -9z"/>
<path fill="#000000" stroke="none" d="M749 1753 c-1 -5 -1 -11 0 -15 0 -5 -6
-8 -14 -8 -8 0 -15 -4 -15 -9 0 -5 9 -7 20 -4 11 3 20 10 20 15 0 5 6 6 13 2
8 -5 8 -2 -2 9 -15 19 -20 21 -22 10z"/>
<path fill="#000000" stroke="none" d="M500 1726 c0 -14 -6 -29 -14 -33 -8 -4
-15 -12 -15 -18 -1 -5 -4 -10 -8 -10 -20 -1 -30 -17 -28 -45 3 -32 -11 -41
-18 -12 -4 14 -5 13 -6 -3 0 -12 5 -27 12 -34 10 -10 8 -11 -8 -5 -18 7 -18 6
-6 -9 7 -9 10 -17 6 -17 -5 0 0 -9 10 -20 14 -15 16 -23 7 -32 -8 -8 -14 -4
-23 15 -7 15 -17 23 -25 20 -8 -3 -11 -9 -8 -14 3 -5 10 -7 15 -4 5 4 9 2 9
-2 0 -5 -10 -14 -21 -22 -18 -10 -19 -15 -8 -22 8 -5 21 -8 29 -8 12 0 12 2
-1 7 -15 6 -15 9 -3 20 12 11 16 9 23 -10 5 -13 5 -24 0 -26 -5 -2 -9 -8 -9
-13 0 -6 6 -7 12 -3 24 15 50 11 58 -10 7 -19 9 -19 15 -3 4 9 4 29 1 44 -7
26 -7 26 17 10 23 -15 37 -14 37 4 0 5 -6 6 -13 3 -8 -3 -14 2 -14 9 0 11 7
13 29 7 25 -8 27 -7 18 11 -6 10 -15 19 -21 19 -6 0 -7 -6 -3 -12 6 -10 5 -10
-8 0 -12 10 -17 10 -27 -1 -6 -8 -7 -17 -3 -21 4 -4 0 -6 -8 -4 -10 2 -15 -4
-14 -19 1 -24 -10 -30 -21 -12 -4 6 -13 8 -21 5 -8 -3 -14 1 -14 10 0 12 4 12
20 4 16 -8 20 -8 20 4 0 8 -3 16 -7 19 -5 2 -2 2 6 0 9 -2 11 2 7 13 -5 13 -4
14 7 6 10 -9 17 -7 29 8 11 12 24 17 38 13 13 -4 20 -1 18 7 -2 6 17 20 42 30
37 15 45 22 45 44 1 15 -3 30 -7 33 -5 2 -6 14 -3 26 5 19 4 19 -9 -3 -18 -29
-20 -44 -6 -35 6 3 10 2 10 -4 0 -13 -37 -24 -51 -15 -8 4 -9 3 -5 -4 4 -7 1
-12 -9 -12 -12 0 -15 6 -10 23 5 17 4 19 -4 7 -8 -11 -11 -12 -11 -2 0 7 -4
10 -10 7 -5 -3 -10 -1 -10 6 0 9 -4 9 -15 -1 -8 -6 -19 -9 -25 -5 -18 11 -11
-7 11 -26 21 -18 45 -17 34 2 -4 5 -1 9 4 9 12 0 15 -30 4 -31 -45 -5 -73 -4
-73 3 0 4 5 8 11 8 6 0 1 9 -12 19 -27 21 -22 32 15 36 14 2 30 6 35 10 6 3
11 1 11 -4 0 -6 10 -11 23 -11 20 1 20 2 4 11 -9 6 -15 14 -12 19 3 5 -4 15
-16 24 -12 8 -18 19 -15 25 4 5 2 12 -4 16 -6 4 -10 -4 -10 -19z"/>
<path fill="#ffffff" stroke="none" d="M534 1691 c3 -5 -1 -12 -10 -15 -27
-11 -37 -7 -24 9 14 17 26 19 34 6z"/>
<path fill="#ffffff" stroke="none" d="M463 1567 c-4 -8 -2 -8 9 1 13 10 17
10 22 -4 3 -8 6 -23 6 -31 0 -15 -2 -15 -17 0 -10 8 -22 16 -28 16 -10 1 -14
20 -7 34 2 4 8 5 13 1 5 -3 6 -11 2 -17z"/>
<path fill="#ffffff" stroke="none" d="M566 1568 c-20 -28 -40 -31 -55 -6 -11
17 -10 18 9 8 16 -9 22 -8 26 5 3 8 13 15 21 15 12 0 12 -3 -1 -22z"/>
<path fill="#ffffff" stroke="none" d="M460 1518 c0 -6 -6 -5 -15 2 -8 7 -15
14 -15 16 0 2 7 1 15 -2 8 -4 15 -11 15 -16z"/>
<path fill="#000000" stroke="none" d="M446 1709 c-37 -35 -45 -65 -13 -47 12
7 25 11 29 10 4 -1 5 5 2 13 -4 8 1 17 10 21 16 6 23 35 9 33 -5 -1 -21 -14
-37 -30z"/>
<path fill="#000000" stroke="none" d="M380 1622 c0 -12 3 -12 18 -1 9 7 19
14 21 16 2 1 -6 1 -18 0 -11 -1 -21 -8 -21 -15z"/>
<path fill="#000000" stroke="none" d="M3657 1595 c-4 -9 2 -19 13 -25 23 -12
25 -3 6 23 -12 15 -14 15 -19 2z"/>
<path fill="#000000" stroke="none" d="M380 1555 c7 -8 17 -15 22 -15 5 0 3 7
-6 15 -8 8 -18 15 -22 15 -3 0 -1 -7 6 -15z"/>
<path fill="#000000" stroke="none" d="M3495 1532 c3 -3 -1 -12 -8 -21 -11
-14 -10 -15 7 -1 18 14 19 13 13 -2 -4 -12 -2 -15 8 -11 8 3 12 9 9 14 -3 5 0
9 7 9 20 0 1 14 -21 15 -11 1 -18 -1 -15 -3z"/>
<path fill="#000000" stroke="none" d="M3650 1513 c0 -8 5 -13 12 -11 18 6 21
25 3 25 -8 0 -15 -7 -15 -14z"/>
<path fill="#000000" stroke="none" d="M3698 1524 c-9 -8 9 -34 23 -34 5 0 9
5 9 11 0 5 -4 8 -9 4 -5 -3 -11 2 -13 11 -2 9 -6 12 -10 8z"/>
<path fill="#000000" stroke="none" d="M3871 1484 c0 -11 3 -14 6 -6 3 7 2 16
-1 19 -3 4 -6 -2 -5 -13z"/>
<path fill="#000000" stroke="none" d="M557 1454 c-15 -8 -32 -12 -37 -9 -15
9 -12 -39 4 -60 12 -16 16 -17 30 -6 17 14 51 8 42 -8 -7 -11 20 -34 45 -38
14 -2 19 3 18 20 -1 18 -2 19 -6 3 -4 -15 -9 -10 -23 22 -10 23 -28 47 -39 54
-15 9 -17 15 -9 25 13 16 10 16 -25 -3z"/>
<path fill="#ffffff" stroke="none" d="M584 1410 c4 0 4 6 0 13 -4 6 1 4 11
-5 11 -10 17 -20 14 -22 -8 -8 -52 18 -56 34 -3 11 -1 11 10 -2 8 -10 17 -18
21 -18z"/>
<path fill="#ffffff" stroke="none" d="M544 1415 c3 -8 1 -15 -3 -15 -5 0 -11
7 -15 15 -3 8 -1 15 3 15 5 0 11 -7 15 -15z"/>
<path fill="#ffffff" stroke="none" d="M630 1353 c0 -13 -3 -13 -15 -3 -8 7
-12 16 -9 21 8 13 24 1 24 -18z"/>
<path fill="#000000" stroke="none" d="M1826 1453 c-6 -14 -5 -15 5 -6 7 7 10
15 7 18 -3 3 -9 -2 -12 -12z"/>
<path fill="#000000" stroke="none" d="M3850 1433 c0 -9 34 -32 41 -28 19 12
9 33 -16 31 -14 0 -25 -2 -25 -3z"/>
<path fill="#000000" stroke="none" d="M368 1398 c2 -10 -1 -18 -7 -18 -7 0
-10 4 -6 9 3 5 1 12 -4 15 -12 8 -43 -23 -36 -34 3 -5 1 -11 -5 -15 -5 -3 -10
-1 -10 6 0 8 -7 5 -20 -6 -11 -10 -17 -21 -15 -26 8 -12 66 24 60 38 -2 7 -1
15 4 17 11 7 10 -26 -1 -41 -6 -7 -3 -15 8 -21 19 -11 74 12 75 31 0 7 4 3 9
-8 7 -16 9 -17 9 -3 1 9 -7 22 -16 27 -10 6 -14 11 -9 11 5 0 2 8 -5 18 -13
16 -13 16 7 0 11 -10 30 -16 42 -13 20 3 27 -5 23 -27 -2 -14 11 -9 26 10 13
15 14 15 10 1 -3 -9 0 -25 7 -35 7 -11 12 -27 10 -36 -1 -11 4 -18 14 -19 11
0 12 -2 4 -6 -6 -2 -10 -9 -6 -14 8 -14 24 0 24 21 0 14 6 17 23 13 20 -4 20
-3 4 7 -14 9 -22 9 -33 0 -11 -10 -14 -9 -14 4 0 11 5 15 13 10 7 -4 9 -3 4 2
-5 5 -14 9 -20 9 -7 0 -12 9 -12 20 -1 31 -21 60 -30 45 -6 -9 -11 -6 -21 11
-12 22 -13 22 -14 4 l-1 -20 -9 20 c-7 17 -9 17 -9 3 -1 -10 -6 -18 -12 -18
-5 0 -7 5 -4 10 3 6 0 10 -7 11 -7 0 -22 2 -34 3 -16 2 -20 -2 -16 -16z"/>
<path fill="#ffffff" stroke="none" d="M381 1367 c-10 -9 -11 -8 -5 6 3 10 9
15 12 12 3 -3 0 -11 -7 -18z"/>
<path fill="#ffffff" stroke="none" d="M360 1339 c0 -11 -4 -18 -10 -14 -5 3
-7 12 -3 20 7 21 13 19 13 -6z"/>
<path fill="#000000" stroke="none" d="M553 1364 c-7 -7 -13 -16 -13 -19 0
-11 63 -43 76 -38 17 6 34 -24 34 -62 0 -9 6 -15 13 -14 26 5 67 -14 67 -30 0
-9 14 -25 31 -35 18 -11 29 -14 25 -7 -5 7 2 11 18 11 17 0 26 -6 26 -16 0
-11 6 -14 23 -8 39 12 48 43 20 65 -16 13 -17 12 -4 -3 8 -11 9 -18 3 -18 -6
0 -14 5 -17 10 -7 12 -25 4 -25 -11 0 -6 4 -8 8 -5 5 3 9 -1 9 -9 0 -11 -4
-11 -22 1 -12 8 -24 12 -27 9 -2 -3 -5 1 -5 9 0 8 8 13 18 11 10 -2 23 3 30
11 9 11 8 14 -4 14 -8 0 -17 7 -21 15 -3 8 -15 15 -26 15 -14 0 -19 -4 -14
-12 4 -6 3 -8 -4 -4 -6 3 -13 2 -17 -4 -8 -13 11 -13 35 0 13 7 19 6 23 -4 3
-8 -2 -16 -13 -19 -10 -3 -20 -15 -23 -28 -4 -22 -4 -22 -6 4 0 15 -6 27 -12
27 -5 0 -8 -4 -4 -9 3 -5 1 -12 -3 -15 -7 -4 -9 38 -2 54 1 3 2 9 1 13 -1 5 2
6 7 3 4 -2 14 -1 21 4 11 6 8 14 -13 34 -14 15 -26 31 -26 36 0 6 -4 10 -9 10
-5 0 -8 -11 -6 -25 1 -16 -3 -25 -12 -25 -8 0 -11 5 -7 12 5 7 3 8 -5 4 -7 -5
-10 -14 -7 -22 3 -8 -1 -17 -10 -21 -11 -4 -12 -8 -4 -13 8 -5 7 -9 -4 -13
-10 -4 -16 -1 -16 9 0 8 6 17 14 20 8 3 12 12 9 20 -3 8 -10 11 -17 8 -6 -3
-4 0 5 8 8 7 19 22 23 33 5 15 1 14 -20 -8 -17 -19 -32 -26 -43 -22 -9 4 -20
7 -26 8 -5 1 -17 14 -25 29 -12 22 -17 24 -27 12z"/>
<path fill="#ffffff" stroke="none" d="M770 1295 c0 -2 -7 -2 -15 2 -9 3 -15
2 -14 -3 1 -5 1 -15 0 -23 -1 -11 -4 -11 -17 0 -14 11 -14 13 1 21 8 5 13 14
9 20 -4 6 2 6 15 -1 11 -7 21 -14 21 -16z"/>
<path fill="#ffffff" stroke="none" d="M725 1240 c3 -5 -1 -10 -10 -10 -9 0
-13 5 -10 10 3 6 8 10 10 10 2 0 7 -4 10 -10z"/>
<path fill="#000000" stroke="none" d="M435 1331 c-3 -6 -11 -9 -16 -6 -13 9
-79 -25 -79 -41 0 -8 4 -14 9 -14 13 0 32 26 24 33 -3 4 2 7 12 7 17 0 17 -2
-3 -23 -24 -26 -29 -42 -9 -31 9 5 9 4 0 -6 -9 -10 -9 -19 1 -39 12 -22 12
-28 -2 -41 -14 -13 -15 -12 -9 3 3 9 2 17 -2 17 -7 0 -21 -23 -21 -35 0 -1 9
-5 20 -8 13 -3 20 0 20 9 0 8 6 17 14 20 8 3 12 15 10 27 -4 21 -4 21 4 2 10
-21 5 -45 -8 -45 -12 0 -19 -25 -11 -39 6 -9 11 -7 22 5 11 15 12 16 0 10 -9
-6 -12 -5 -9 5 3 8 11 13 17 11 7 -1 10 1 7 6 -8 13 7 29 34 36 20 6 22 5 10
-4 -13 -10 -12 -11 3 -6 10 3 17 0 17 -7 0 -7 7 -3 15 7 8 11 15 25 15 30 0 6
-5 3 -11 -7 -9 -15 -13 -16 -30 -3 -11 7 -30 12 -42 10 l-22 -5 22 10 c31 14
73 52 73 67 0 7 -6 15 -12 17 -10 4 -10 6 -1 6 17 1 4 31 -14 31 -8 0 -11 -4
-8 -10 8 -13 -8 -13 -22 1 -8 8 -13 8 -18 0z"/>
<path fill="#ffffff" stroke="none" d="M443 1301 c-2 -6 4 -12 12 -12 8 -1 20
-3 25 -4 6 -1 13 -3 17 -4 8 -1 -63 -41 -73 -41 -4 0 -4 9 -1 21 4 16 2 20
-12 16 -15 -4 -16 -1 -7 18 10 22 43 28 39 6z"/>
<path fill="#000000" stroke="none" d="M435 1269 c-11 -17 0 -20 21 -4 17 13
17 14 2 15 -9 0 -20 -5 -23 -11z"/>
<path fill="#000000" stroke="none" d="M299 1313 c-12 -14 -12 -16 2 -11 9 4
16 1 16 -8 0 -7 -4 -11 -8 -9 -4 3 -10 -2 -13 -10 -4 -13 -2 -14 14 -5 20 11
27 44 11 54 -5 3 -15 -2 -22 -11z"/>
<path fill="#000000" stroke="none" d="M3725 1311 c-3 -5 -2 -12 3 -15 5 -3 9
1 9 9 0 17 -3 19 -12 6z"/>
<path fill="#000000" stroke="none" d="M3803 1307 c-4 -7 -8 -21 -8 -32 0 -24
-41 -30 -50 -8 -3 8 -12 12 -20 9 -8 -3 -15 -1 -15 5 0 6 -4 8 -9 5 -5 -3 -7
-16 -4 -27 5 -18 7 -19 15 -5 5 9 14 16 20 16 6 0 8 -3 5 -7 -4 -3 2 -13 13
-20 11 -8 18 -19 15 -24 -4 -5 -2 -9 4 -9 5 0 11 5 13 11 2 7 16 13 31 13 15
1 26 6 25 11 -2 6 -9 9 -15 9 -17 -2 -16 4 2 22 8 9 15 19 15 24 0 14 -29 20
-37 7z"/>
<path fill="#000000" stroke="none" d="M232 1305 c4 -4 1 -16 -6 -27 -8 -11
-11 -29 -8 -40 4 -16 2 -19 -9 -13 -12 8 -12 6 -1 -8 12 -14 11 -16 -7 -12
-23 4 -28 -10 -8 -28 20 -19 37 -19 30 1 -6 15 -5 15 10 4 14 -12 16 -11 12 8
-3 14 0 20 8 17 7 -2 21 3 32 12 11 9 17 12 12 7 -4 -5 0 -17 9 -27 21 -24 10
-43 -17 -28 -12 6 -23 8 -26 5 -3 -3 2 -9 11 -12 14 -5 15 -9 4 -15 -19 -12
-36 -11 -18 2 12 8 12 10 -4 7 -25 -4 -33 -28 -9 -29 16 0 15 -2 -4 -16 -25
-17 -31 -35 -10 -32 23 3 35 -1 40 -14 3 -8 -3 -14 -14 -14 -11 -1 -17 2 -14
8 4 5 1 9 -4 9 -14 0 -14 -16 -1 -41 9 -16 7 -19 -9 -19 -23 0 -36 -16 -21
-25 5 -3 10 -1 10 5 0 6 8 10 17 8 11 -2 19 6 24 22 4 14 7 19 8 12 1 -7 5
-11 10 -7 5 3 13 0 17 -6 4 -8 3 -9 -4 -5 -7 4 -12 1 -12 -9 0 -9 -4 -14 -9
-10 -5 3 -12 1 -16 -5 -4 -6 -12 -7 -18 -3 -7 4 -5 -2 3 -12 11 -14 12 -19 3
-22 -9 -3 -8 -11 3 -29 9 -13 13 -24 10 -24 -4 0 -1 -6 6 -14 13 -14 42 -10
33 4 -3 5 -1 12 5 15 16 10 40 -14 33 -32 -4 -11 -2 -14 5 -9 8 4 10 2 6 -7
-3 -8 0 -18 7 -23 8 -5 10 -3 4 7 -5 8 -5 11 0 7 4 -4 13 -4 19 1 7 6 17 3 26
-7 13 -14 12 -15 -5 -9 -11 5 -21 3 -26 -4 -4 -7 -17 -13 -28 -14 -16 -1 -18
1 -10 12 9 9 7 14 -5 19 -12 5 -13 10 -5 25 6 12 6 19 0 19 -5 0 -13 -9 -16
-20 -4 -11 -11 -18 -16 -15 -33 21 -94 3 -94 -28 0 -6 -9 -13 -20 -16 -22 -4
-36 -21 -28 -34 3 -4 11 0 18 9 11 16 12 15 10 -9 -3 -22 2 -28 22 -34 25 -6
25 -7 8 -19 -11 -8 -13 -14 -6 -14 7 0 9 -4 6 -10 -3 -5 -2 -10 2 -10 5 0 8
-14 7 -30 -1 -20 3 -30 12 -30 8 0 17 -7 20 -15 5 -13 9 -13 22 -3 13 12 14
11 2 -9 -18 -28 -52 -27 -44 2 4 16 3 17 -5 5 -9 -12 -11 -13 -11 -1 0 8 -3
12 -6 9 -3 -4 -1 -15 5 -26 13 -25 68 -24 87 3 8 10 14 14 14 9 0 -6 -5 -15
-12 -22 -16 -16 4 -16 21 1 11 10 13 10 7 0 -4 -7 -2 -13 3 -13 6 0 11 6 11
13 0 19 -30 58 -40 52 -5 -3 -14 4 -20 15 -6 11 -15 18 -21 15 -5 -4 -9 -1 -9
5 0 6 -5 8 -10 5 -6 -3 -10 0 -10 9 0 8 -3 22 -7 32 -5 14 -3 16 11 11 11 -5
15 -3 10 5 -4 7 -3 8 4 4 8 -5 11 0 9 15 -2 13 -10 25 -16 27 -9 3 -11 -2 -6
-17 7 -24 -3 -27 -29 -8 -18 13 -13 52 5 41 6 -3 8 6 5 20 -3 15 -1 24 5 21 5
-4 9 0 9 7 0 7 7 2 16 -11 l16 -22 23 21 c15 14 25 18 30 11 3 -6 1 -11 -5
-11 -6 0 -5 -11 5 -30 9 -16 22 -30 30 -30 11 0 12 -6 6 -22 -5 -13 -8 -26 -7
-30 3 -18 -14 -17 -24 1 -9 18 -8 21 7 21 15 0 16 2 3 10 -16 10 -36 -13 -25
-30 3 -5 0 -7 -8 -4 -7 2 -14 11 -14 19 0 8 4 12 9 9 8 -5 11 2 11 31 0 30 -3
36 -13 30 -6 -4 -8 -11 -4 -16 3 -5 2 -9 -3 -8 -20 3 -27 -2 -13 -11 11 -7 11
-10 2 -10 -7 0 -10 -5 -7 -10 4 -6 1 -17 -5 -25 -6 -8 -8 -20 -4 -26 5 -8 3
-10 -7 -4 -10 6 -11 5 -3 -4 13 -14 47 -3 37 13 -5 8 -3 8 8 -1 8 -6 17 -12
22 -12 4 -1 8 -1 10 -2 20 -7 50 -3 54 8 3 7 9 11 13 8 10 -6 25 14 17 21 -3
3 -14 1 -26 -5 -14 -8 -22 -8 -27 1 -4 6 -3 8 4 4 6 -3 14 -1 18 5 5 8 3 9 -6
4 -8 -5 -11 -3 -8 6 6 20 48 24 48 5 0 -8 8 -23 18 -32 16 -17 16 -18 0 -11
-21 7 -24 -3 -6 -21 9 -9 9 -15 -1 -24 -7 -7 -12 -8 -11 -3 5 22 -1 33 -15 31
-22 -3 -31 -16 -11 -16 12 0 16 -5 12 -15 -3 -10 3 -17 20 -21 23 -6 24 -8 9
-24 -8 -9 -12 -20 -8 -25 5 -4 2 -5 -5 -1 -7 4 -10 16 -7 26 4 13 -2 20 -25
28 -20 7 -30 8 -30 1 0 -6 -5 -7 -12 -3 -7 5 -8 3 -4 -5 5 -7 14 -10 22 -7 8
3 13 2 13 -2 -3 -19 2 -25 11 -12 6 9 10 10 10 3 0 -19 -21 -27 -32 -12 -7 11
-8 9 -6 -6 3 -16 12 -21 46 -23 37 -3 42 -1 42 17 0 12 4 20 9 19 5 -2 9 1 9
6 0 5 6 13 14 17 10 7 8 9 -7 10 -11 1 -23 1 -27 0 -12 -2 -4 43 10 58 15 16
11 36 -8 36 -7 0 -15 6 -18 14 -3 8 0 11 7 7 6 -4 11 -2 11 3 0 6 -7 11 -15
11 -8 0 -15 5 -15 10 0 6 0 12 0 15 0 3 3 5 8 6 4 0 13 5 20 11 10 9 8 14 -8
25 -11 8 -20 20 -20 28 0 14 -16 15 -37 2 -7 -5 -9 -1 -6 12 3 13 11 17 25 13
13 -3 19 -1 15 5 -4 6 1 14 10 18 10 3 19 1 21 -4 2 -6 9 -8 14 -5 7 4 8 2 4
-4 -5 -8 0 -12 13 -12 11 0 23 5 27 11 4 8 9 7 15 -2 5 -8 9 -9 9 -3 0 18 -12
24 -31 13 -11 -5 -19 -6 -19 -1 0 14 39 46 47 39 3 -4 0 -7 -7 -7 -14 0 28
-37 45 -39 16 -2 12 49 -5 60 -11 8 -9 9 10 5 14 -3 29 -6 34 -6 6 0 1 -7 -10
-15 -18 -14 -17 -15 8 -4 15 7 25 15 22 20 -8 13 32 6 45 -8 6 -7 8 -13 3 -13
-5 0 -9 -11 -9 -24 0 -14 -8 -32 -17 -41 -14 -15 -14 -18 -1 -32 16 -15 11
-38 -6 -27 -5 3 -7 9 -5 13 3 4 -4 7 -14 8 -23 2 -35 -13 -19 -23 8 -5 9 -3 4
7 -6 11 -5 12 5 2 21 -19 21 -42 0 -40 -10 1 -17 4 -14 8 2 4 -1 9 -7 11 -19
6 0 51 20 45 18 -4 27 28 10 38 -5 4 -7 11 -4 16 4 5 1 9 -5 9 -6 0 -8 5 -5
10 3 6 1 10 -6 10 -7 0 -9 -8 -6 -21 3 -12 3 -18 0 -15 -4 3 -12 1 -20 -5 -16
-14 -18 -53 -1 -43 6 4 8 3 5 -3 -12 -19 -47 -22 -56 -5 -8 14 -11 14 -27 2
-11 -9 -15 -10 -10 -3 5 9 2 11 -8 7 -8 -3 -12 -12 -9 -20 3 -8 0 -14 -7 -14
-6 0 -8 -5 -4 -11 4 -8 9 -8 17 0 6 6 18 11 26 11 8 0 12 -3 8 -6 -8 -8 36
-55 54 -57 23 -4 40 -18 34 -28 -4 -5 -2 -9 2 -9 10 0 38 31 46 51 4 10 6 10
6 -3 1 -9 6 -20 13 -24 7 -4 8 -3 4 5 -4 6 0 14 9 17 11 5 13 9 5 14 -8 5 -6
11 5 20 11 9 15 9 15 1 0 -7 5 -9 10 -6 6 4 5 12 -4 21 -16 16 -30 19 -21 5 3
-5 1 -12 -5 -16 -10 -6 -14 7 -11 32 1 6 -3 14 -8 18 -12 7 -3 35 11 35 6 0 8
-7 4 -15 -3 -8 -1 -15 5 -15 6 0 7 -4 4 -10 -3 -5 -2 -10 4 -10 5 0 12 4 16
10 3 5 13 6 23 3 15 -6 15 -5 4 10 -8 9 -12 22 -9 29 3 8 6 6 6 -5 1 -10 6
-15 11 -12 8 5 7 11 -1 21 -9 11 -7 16 12 23 13 4 31 6 39 3 8 -3 12 -2 8 3
-4 4 -2 15 5 24 11 14 10 14 -6 2 -14 -11 -20 -12 -26 -3 -4 6 -17 10 -29 7
-14 -2 -22 1 -21 8 3 25 -1 38 -10 32 -5 -3 -13 0 -16 6 -4 5 -13 8 -21 5 -8
-3 -14 -1 -14 5 0 6 -4 8 -9 5 -5 -3 -14 1 -21 9 -7 8 -18 15 -26 15 -7 0 -16
5 -20 12 -5 7 -3 8 5 3 9 -5 9 -1 -1 14 -14 23 -28 28 -28 9 0 -8 -16 -14 -40
-16 -31 -2 -40 1 -40 13 0 9 -3 14 -7 12 -5 -3 -14 1 -20 9 -8 8 -9 15 -3 19
6 4 8 10 5 15 -3 4 4 6 15 3 15 -4 20 0 20 13 1 18 1 18 15 0 8 -11 15 -15 15
-9 0 5 -9 18 -21 29 -15 14 -20 15 -17 4 2 -11 -4 -14 -20 -12 -20 3 -23 0
-20 -20 2 -15 -2 -22 -10 -20 -8 1 -11 -2 -7 -9 4 -6 -2 -19 -14 -30 -11 -10
-19 -25 -17 -32 1 -6 1 -9 -1 -4 -3 4 -8 5 -13 2 -5 -3 -7 3 -5 12 2 10 4 21
4 26 1 4 8 7 16 7 8 0 15 4 15 9 0 6 -9 9 -19 8 -11 0 -17 -5 -15 -9 3 -4 1
-8 -5 -8 -5 0 -13 5 -17 11 -7 12 15 31 28 23 4 -3 8 -1 8 5 0 20 -22 23 -36
5 -14 -17 -15 -17 -10 -2 4 13 0 17 -12 15 -28 -4 -41 -17 -35 -32 3 -9 -1
-15 -11 -15 -9 0 -16 4 -16 8 0 14 41 53 50 47 5 -3 16 8 24 24 15 27 14 30
-7 44 -12 8 -19 18 -16 21 3 3 16 -3 29 -14 28 -24 31 -25 24 -5 -4 8 -10 15
-16 15 -5 0 -6 4 -3 10 4 6 -1 7 -11 3 -12 -4 -15 -3 -10 5 4 7 2 12 -3 12 -6
0 -11 -4 -11 -9 0 -6 -16 -3 -35 5 -21 8 -35 10 -35 4 0 -5 -5 -10 -11 -10 -7
0 -5 9 5 24 12 19 13 27 3 32 -6 4 -9 4 -5 -1z"/>
<path fill="#ffffff" stroke="none" d="M268 1219 c-3 -8 -7 -3 -11 10 -4 17
-3 21 5 13 5 -5 8 -16 6 -23z"/>
<path fill="#ffffff" stroke="none" d="M330 1094 c0 -8 -4 -14 -10 -14 -5 0
-10 -4 -10 -9 0 -6 9 -8 20 -6 11 2 20 0 20 -6 0 -5 -4 -9 -10 -9 -5 0 -7 -6
-4 -14 3 -8 -1 -27 -10 -44 -15 -29 -15 -29 9 -26 25 2 34 -10 15 -21 -13 -8
-3 -25 15 -25 8 0 12 8 10 19 -4 21 21 23 34 2 5 -7 8 1 8 19 0 16 -4 30 -9
30 -4 0 -8 -4 -8 -8 0 -4 -10 -8 -22 -9 -20 -2 -21 -1 -5 8 9 6 15 14 12 18
-2 5 3 8 13 7 9 0 16 5 14 12 -1 8 2 11 8 7 6 -3 8 -10 6 -14 -3 -4 9 -16 27
-26 28 -16 30 -16 18 -2 -11 15 -11 17 2 17 17 0 27 -18 20 -37 -4 -9 -10 -10
-23 -3 -14 7 -19 5 -23 -11 -4 -16 -3 -18 8 -9 8 7 15 7 19 1 9 -15 -6 -20
-46 -17 -21 2 -36 -1 -35 -7 1 -6 -10 -11 -25 -12 -15 -1 -25 2 -22 6 2 4 0
10 -6 14 -6 4 -8 10 -6 14 3 4 -2 8 -10 8 -8 0 -13 -6 -10 -12 2 -6 -5 -17
-16 -24 -17 -11 -22 -10 -29 1 -5 7 -9 16 -9 21 0 4 0 9 0 12 0 3 3 4 7 3 5
-2 7 -10 6 -18 -2 -10 0 -11 3 -2 3 6 9 10 14 7 4 -3 7 6 6 19 -1 16 -6 22
-16 19 -8 -2 -4 2 9 10 27 16 35 63 12 72 -11 4 -11 9 4 25 11 13 14 20 6 20
-7 0 -9 5 -6 10 8 13 25 3 25 -16z"/>
<path fill="#ffffff" stroke="none" d="M476 1034 c23 -24 24 -26 5 -21 -12 3
-21 1 -21 -5 0 -14 -18 0 -31 24 -8 15 -8 19 0 14 6 -4 11 -2 11 3 0 16 7 13
36 -15z"/>
<path fill="#ffffff" stroke="none" d="M358 983 c-15 -18 -21 -9 -13 18 6 16
9 18 16 8 4 -8 3 -19 -3 -26z"/>
<path fill="#ffffff" stroke="none" d="M565 992 c5 -13 4 -14 -6 -5 -10 10
-15 9 -25 -5 -10 -13 -15 -14 -24 -5 -14 13 -4 37 11 28 5 -4 9 -2 9 4 0 16
28 2 35 -17z"/>
<path fill="#ffffff" stroke="none" d="M599 1008 c4 6 15 3 30 -9 16 -13 19
-19 8 -19 -8 0 -17 6 -20 13 -3 8 -10 6 -21 -8 -13 -16 -15 -17 -10 -2 4 10 1
17 -6 17 -6 0 -8 5 -4 12 6 9 9 9 12 -1 3 -8 7 -9 11 -3z"/>
<path fill="#ffffff" stroke="none" d="M703 954 c-3 -8 -9 -14 -14 -14 -4 0
-6 7 -3 15 5 11 2 13 -10 9 -11 -4 -16 -1 -16 10 0 13 4 14 24 5 14 -7 22 -17
19 -25z"/>
<path fill="#ffffff" stroke="none" d="M550 930 c0 -5 -4 -10 -10 -10 -5 0
-10 5 -10 10 0 6 5 10 10 10 6 0 10 -4 10 -10z"/>
<path fill="#ffffff" stroke="none" d="M755 930 c3 -5 1 -10 -4 -10 -6 0 -11
5 -11 10 0 6 2 10 4 10 3 0 8 -4 11 -10z"/>
<path fill="#ffffff" stroke="none" d="M730 920 c0 -9 -18 -23 -32 -26 -5 -1
-11 -2 -15 -3 -5 -1 -2 -5 6 -10 7 -5 12 -14 9 -21 -2 -8 -11 -3 -21 14 -16
24 -16 26 -1 26 12 0 14 3 6 13 -8 9 -3 13 19 14 16 1 29 -2 29 -7z"/>
<path fill="#ffffff" stroke="none" d="M605 870 c4 -6 -5 -9 -19 -8 -15 1 -26
6 -26 10 0 12 38 10 45 -2z"/>
<path fill="#ffffff" stroke="none" d="M284 838 c-3 -4 -9 -8 -15 -8 -5 0 -9
4 -9 8 0 5 7 9 15 9 8 0 12 -4 9 -9z"/>
<path fill="#ffffff" stroke="none" d="M394 814 c-7 -3 -10 -13 -7 -24 3 -12
0 -18 -9 -16 -20 3 -38 16 -38 28 0 6 7 5 17 -3 9 -8 14 -9 10 -2 -7 11 7 21
28 21 6 0 5 -2 -1 -4z"/>
<path fill="#ffffff" stroke="none" d="M565 788 c9 -18 10 -27 4 -21 -9 9 -16
9 -25 2 -9 -7 -15 -5 -23 9 -12 23 -5 33 17 25 10 -4 13 -2 8 5 -4 7 -5 12 -2
12 2 0 12 -15 21 -32z"/>
<path fill="#ffffff" stroke="none" d="M650 790 c0 -5 -5 -10 -11 -10 -5 0 -7
5 -4 10 3 6 8 10 11 10 2 0 4 -4 4 -10z"/>
<path fill="#ffffff" stroke="none" d="M620 760 c0 -5 -7 -10 -16 -10 -8 0
-12 5 -9 10 3 6 10 10 16 10 5 0 9 -4 9 -10z"/>
<path fill="#ffffff" stroke="none" d="M254 654 c8 -3 12 -12 9 -20 -4 -11 -9
-12 -19 -3 -8 6 -14 15 -14 20 0 11 3 11 24 3z"/>
<path fill="#000000" stroke="none" d="M425 971 c-3 -5 -1 -12 4 -15 5 -3 11
1 15 9 6 16 -9 21 -19 6z"/>
<path fill="#000000" stroke="none" d="M526 787 c3 -10 9 -15 12 -12 3 3 0 11
-7 18 -10 9 -11 8 -5 -6z"/>
<path fill="#000000" stroke="none" d="M2087 1297 c-3 -8 1 -14 8 -14 7 0 11
6 8 14 -3 7 -6 13 -8 13 -2 0 -5 -6 -8 -13z"/>
<path fill="#000000" stroke="none" d="M262 1289 c2 -7 10 -15 17 -17 8 -3 12
1 9 9 -2 7 -10 15 -17 17 -8 3 -12 -1 -9 -9z"/>
<path fill="#000000" stroke="none" d="M3758 1293 c7 -3 16 -2 19 1 4 3 -2 6
-13 5 -11 0 -14 -3 -6 -6z"/>
<path fill="#000000" stroke="none" d="M592 1263 c-8 -19 -10 -21 -6 -5 7 28
-7 29 -24 1 -11 -16 -16 -18 -28 -9 -11 10 -19 9 -39 -4 -14 -9 -23 -21 -20
-26 9 -15 28 -12 22 3 -8 21 33 14 49 -8 10 -14 11 -22 2 -32 -19 -23 8 -42
29 -20 10 9 12 17 6 17 -6 0 -14 -6 -16 -12 -3 -7 -6 -8 -6 -2 -1 5 6 19 15
30 8 10 13 12 9 4 -4 -8 2 -4 13 9 18 23 28 81 13 81 -4 0 -12 -12 -19 -27z"/>
<path fill="#ffffff" stroke="none" d="M590 1228 c11 -3 9 -6 -6 -10 -15 -4
-20 0 -22 16 0 11 2 16 6 10 4 -6 14 -13 22 -16z"/>
<path fill="#000000" stroke="none" d="M3340 1254 c0 -9 -8 -23 -17 -30 -17
-13 -16 -14 5 -20 14 -4 22 -13 20 -23 -1 -9 1 -21 5 -28 5 -7 0 -16 -13 -23
-24 -13 -26 -26 -4 -34 11 -4 15 -2 11 8 -4 10 -1 13 9 9 13 -5 13 -8 -1 -23
-12 -14 -14 -23 -7 -37 6 -10 9 -21 9 -25 -1 -3 2 -10 7 -15 5 -4 6 -3 2 4 -3
6 -2 14 4 18 5 3 10 0 10 -7 0 -8 3 -9 8 -3 4 6 14 11 22 13 24 6 38 22 35 40
-2 9 -4 23 -4 30 -1 6 -7 12 -15 12 -8 0 -17 4 -20 9 -6 9 2 9 42 -4 22 -7 31
-25 12 -25 -6 0 -6 -9 -1 -22 5 -13 12 -22 17 -20 12 3 12 25 -1 35 -6 6 -4 7
6 4 21 -7 41 33 28 54 -7 12 -9 12 -10 -1 0 -9 -4 -7 -11 8 -6 12 -15 22 -20
22 -10 0 10 -42 26 -52 6 -4 7 -10 3 -14 -8 -9 -38 16 -32 26 3 5 -1 15 -10
23 -13 13 -13 16 2 22 11 4 22 -1 30 -11 12 -16 13 -15 13 8 0 31 -18 47 -31
27 -7 -11 -9 -11 -9 3 0 34 36 39 87 13 l28 -15 -33 -6 c-23 -5 -32 -12 -32
-26 0 -10 5 -16 10 -13 6 4 8 11 5 16 -3 5 1 6 9 3 10 -4 16 -1 16 7 1 23 40
-31 40 -55 0 -12 9 -28 21 -36 12 -8 25 -26 31 -40 9 -23 10 -24 22 -8 7 10
16 15 19 11 10 -10 8 -33 -2 -30 -5 1 -9 -1 -10 -5 -1 -5 2 -8 5 -7 4 0 11 -5
15 -13 7 -10 9 -10 9 0 0 6 8 12 17 12 15 0 15 -2 -2 -14 -11 -8 -24 -12 -30
-9 -7 2 -18 -3 -25 -12 -7 -8 -9 -15 -4 -16 5 0 0 -4 -11 -9 l-20 -9 20 0 c16
-1 17 -3 5 -11 -12 -7 -12 -12 -3 -21 16 -16 23 -9 26 28 1 16 8 30 15 30 6 0
10 -3 7 -5 -3 -3 3 -11 13 -18 12 -9 19 -9 24 -1 4 6 10 8 14 4 9 -9 -36 -43
-50 -39 -5 2 -4 -4 4 -12 7 -9 18 -16 26 -16 13 0 64 -42 64 -54 0 -3 -8 -6
-17 -6 -15 0 -16 2 -3 10 13 8 12 10 -3 10 -14 0 -17 -5 -12 -20 4 -11 2 -20
-4 -20 -6 0 -11 4 -11 9 0 5 -8 8 -17 6 -19 -3 -19 -6 -8 -40 6 -18 4 -17 -14
4 -16 17 -21 19 -21 8 0 -18 11 -26 40 -32 21 -4 27 9 10 20 -5 3 -10 10 -10
16 0 16 19 10 30 -10 7 -15 6 -23 -6 -35 -14 -15 -13 -16 7 -16 12 0 20 -3 16
-6 -3 -4 0 -13 8 -20 13 -13 10 -54 -4 -54 -17 0 -19 14 -4 25 15 11 14 14 -8
26 -13 8 -28 15 -34 15 -5 1 -14 2 -20 3 -5 1 -3 6 5 12 13 9 12 10 -2 5 -10
-3 -18 0 -18 6 0 7 -5 6 -15 -2 -14 -12 -15 -10 -11 13 3 15 0 27 -5 27 -5 0
-9 -4 -9 -10 0 -5 -10 -10 -23 -10 -17 0 -23 -6 -25 -25 -1 -14 3 -25 9 -25 5
0 7 5 4 10 -3 6 1 10 9 10 24 0 19 -15 -9 -28 -26 -12 -30 -7 -26 26 1 8 -7
16 -18 19 -12 3 -21 9 -21 14 0 5 7 6 15 2 9 -3 22 2 29 12 9 13 15 15 20 6 4
-6 12 -9 17 -5 5 3 7 9 4 14 -3 4 5 6 17 2 14 -3 19 -2 14 6 -4 7 -16 12 -26
12 -14 0 -18 5 -13 16 5 13 7 13 14 2 5 -7 9 -9 9 -5 0 4 8 3 19 -2 14 -8 23
-6 36 9 10 11 15 21 12 21 -4 1 -10 2 -14 3 -5 1 -13 5 -19 9 -7 4 -15 0 -18
-9 -4 -12 -2 -15 9 -11 8 4 17 2 20 -3 8 -13 -25 -13 -45 0 -10 6 -21 4 -34
-8 -18 -16 -18 -16 -7 6 7 12 19 21 28 20 9 -2 17 5 19 16 2 14 0 16 -9 7 -17
-17 -24 -13 -23 11 1 14 -6 24 -18 26 -11 3 -16 0 -12 -7 4 -6 3 -11 -2 -11
-6 0 -8 -9 -5 -21 4 -16 8 -17 14 -7 7 10 9 10 9 -3 0 -8 -5 -20 -12 -27 -8
-8 -8 -15 3 -28 8 -10 9 -15 3 -11 -7 4 -14 -2 -17 -13 -3 -11 -11 -20 -17
-20 -9 0 -10 3 -1 13 8 11 6 13 -9 12 -11 -1 -23 -5 -27 -10 -5 -4 -1 -4 7 0
13 8 13 6 2 -7 -9 -11 -10 -18 -2 -23 15 -9 12 -35 -5 -35 -8 0 -15 6 -15 13
0 8 -3 7 -9 -3 -6 -8 -7 -18 -5 -22 3 -4 -2 -8 -12 -8 -14 0 -14 -2 -3 -16 11
-14 14 -13 24 6 9 17 13 19 18 8 3 -8 -3 -21 -13 -28 -18 -13 -17 -40 2 -40 5
0 6 5 3 10 -4 6 -1 9 7 8 7 -2 12 2 11 8 -1 6 8 11 20 10 12 -1 27 5 34 14 6
8 15 12 19 7 10 -9 -27 -36 -42 -30 -7 3 -10 -5 -7 -21 4 -17 1 -26 -7 -26 -7
0 -10 7 -6 16 4 10 1 14 -6 11 -7 -2 -13 -13 -12 -24 0 -11 -5 -20 -12 -20 -7
0 -11 4 -8 9 8 13 -56 69 -69 61 -6 -4 -3 -9 7 -13 16 -5 16 -7 3 -19 -9 -7
-14 -22 -11 -37 3 -19 1 -24 -8 -18 -15 9 -77 14 -95 7 -7 -3 -13 -9 -13 -14
0 -6 9 -5 20 1 11 6 20 7 20 2 0 -4 46 -8 101 -9 74 -1 98 2 90 10 -6 6 -11
16 -11 21 0 6 7 1 15 -11 8 -12 24 -21 35 -20 13 1 16 5 10 11 -17 17 -11 31
15 31 14 0 25 -4 25 -8 0 -5 14 1 30 13 17 12 37 19 45 16 8 -3 15 -1 15 4 0
6 -5 10 -11 10 -5 0 -7 5 -4 10 3 6 -3 10 -15 10 -12 0 -18 -4 -15 -10 4 -6
-1 -7 -11 -3 -11 4 -13 8 -6 11 7 2 12 11 13 20 0 11 2 12 6 5 2 -7 13 -13 23
-13 18 0 44 -23 35 -32 -3 -3 5 -5 17 -4 13 1 22 7 21 13 -2 7 6 10 18 8 14
-3 19 0 16 9 -3 8 0 19 6 26 9 10 7 11 -10 6 -12 -4 -24 -2 -28 3 -3 6 0 8 8
5 18 -6 32 12 17 21 -6 4 -8 11 -5 16 4 5 1 9 -6 9 -9 0 -9 3 0 14 9 11 9 15
-1 19 -10 4 -10 8 2 16 13 9 12 11 -3 11 -15 0 -16 3 -7 20 9 17 15 18 33 10
21 -11 21 -11 3 4 -12 10 -15 16 -7 16 7 0 11 6 8 13 -2 6 -11 11 -19 9 -20
-3 -31 25 -12 32 8 3 14 0 14 -7 0 -8 4 -6 10 3 8 12 10 11 10 -7 0 -31 15
-36 28 -10 12 24 15 40 13 77 -1 19 -3 22 -10 11 -7 -12 -13 -12 -24 -3 -7 7
-17 9 -20 5 -4 -3 -7 -1 -7 6 0 7 7 10 18 7 22 -7 60 48 41 60 -8 4 -9 3 -5
-4 4 -7 1 -12 -9 -12 -12 0 -15 5 -10 18 11 29 11 34 -5 39 -13 4 -13 3 0 -6
13 -9 12 -11 -5 -11 -17 0 -17 -2 -5 -10 13 -8 13 -10 -2 -10 -9 0 -20 5 -23
10 -4 6 -11 8 -16 4 -6 -3 -6 -10 -1 -17 17 -23 20 -44 6 -44 -10 0 -12 7 -8
21 6 18 5 19 -9 8 -9 -8 -26 -11 -39 -7 -22 6 -22 5 -4 -9 10 -9 23 -13 29 -9
6 3 7 1 3 -5 -15 -24 -46 -6 -45 26 0 4 -10 10 -23 13 -13 3 -22 11 -21 17 2
7 -2 12 -7 12 -5 0 -10 -4 -10 -10 0 -5 -7 -7 -15 -4 -8 4 -15 10 -15 16 0 5
5 6 12 2 6 -4 8 -3 4 4 -3 6 -1 14 5 17 11 7 -29 42 -43 37 -13 -4 -9 26 4 34
7 4 8 3 4 -4 -5 -8 -1 -10 10 -5 13 5 16 3 11 -10 -7 -18 26 -42 43 -32 6 3 7
-1 4 -9 -3 -9 -11 -16 -18 -16 -6 0 -3 -5 7 -11 9 -5 21 -8 26 -4 5 3 17 -5
25 -17 21 -30 46 -32 45 -5 0 12 -3 16 -6 9 -2 -6 -9 -10 -14 -6 -18 11 -8 19
28 21 20 1 39 7 43 14 5 6 16 8 29 4 12 -4 21 -2 21 4 0 11 -10 14 -45 12 -19
-1 -19 0 2 10 24 12 39 39 22 39 -6 0 -7 5 -4 10 3 6 1 10 -5 10 -6 0 -10 -6
-8 -14 3 -14 0 -16 -24 -16 -9 0 -8 3 2 10 8 5 11 13 6 17 -5 4 -11 2 -13 -4
-3 -9 -10 -10 -24 -3 -13 8 -19 7 -19 0 0 -6 -4 -8 -10 -5 -5 3 -10 15 -10 27
0 18 -2 19 -17 7 -14 -12 -16 -12 -8 0 6 11 4 13 -8 8 -10 -4 -18 1 -22 13 -6
18 -7 18 -30 -2 -28 -24 -27 -27 6 -33 23 -4 23 -4 5 10 -28 21 -7 18 30 -4
26 -16 30 -24 26 -50 -3 -25 0 -32 19 -40 21 -8 19 -9 -14 -9 -27 0 -35 3 -29
12 4 6 8 20 8 31 -1 11 3 23 9 27 5 4 1 7 -10 7 -11 -1 -30 2 -43 5 -15 3 -21
1 -16 -7 3 -7 -3 -1 -14 13 -11 13 -19 27 -17 30 2 3 -5 7 -16 7 -16 2 -17 -1
-8 -18 6 -12 9 -23 6 -25 -2 -3 -10 9 -17 26 -9 23 -16 28 -25 20 -9 -8 -14
-6 -19 6 -4 11 -13 14 -28 11 -12 -4 -29 -1 -37 6 -12 9 -13 9 -7 0 4 -8 1
-13 -9 -13 -9 0 -14 4 -11 8 2 4 -6 8 -19 8 -13 0 -21 -4 -19 -8 3 -4 -2 -8
-10 -8 -9 0 -16 -5 -16 -11 0 -5 5 -7 10 -4 11 7 14 -8 4 -18 -13 -12 -32 18
-23 36 8 14 5 17 -16 17 -16 0 -25 -6 -25 -16z"/>
<path fill="#ffffff" stroke="none" d="M3367 1231 c1 -13 -3 -18 -12 -15 -8 3
-11 12 -8 20 7 20 18 17 20 -5z"/>
<path fill="#ffffff" stroke="none" d="M3450 1234 c-3 -5 -8 -8 -12 -6 -11 3
-5 -22 7 -30 6 -5 4 -8 -5 -8 -8 0 -26 -3 -40 -6 l-25 -6 23 16 c12 10 22 25
22 36 0 12 6 17 18 16 9 -2 15 -7 12 -12z"/>
<path fill="#ffffff" stroke="none" d="M3684 1174 c23 -9 20 -23 -4 -17 -11 3
-20 9 -20 14 0 11 3 11 24 3z"/>
<path fill="#ffffff" stroke="none" d="M3830 1151 c3 -2 -8 -1 -25 3 -28 6
-29 5 -11 -9 16 -12 17 -18 8 -27 -9 -9 -12 -8 -12 5 0 13 -6 16 -23 12 -18
-5 -23 -2 -24 16 -2 21 -1 21 13 3 9 -11 13 -14 10 -7 -4 6 2 16 11 22 16 9
25 6 53 -18z"/>
<path fill="#ffffff" stroke="none" d="M3439 1161 c7 -5 12 -13 10 -19 -3 -7
-14 -3 -29 8 -25 20 -10 29 19 11z"/>
<path fill="#ffffff" stroke="none" d="M3390 1134 c0 -8 -5 -12 -10 -9 -6 4
-8 11 -5 16 9 14 15 11 15 -7z"/>
<path fill="#ffffff" stroke="none" d="M3632 1108 c-9 -9 -12 -7 -12 12 0 19
3 21 12 12 9 -9 9 -15 0 -24z"/>
<path fill="#ffffff" stroke="none" d="M3411 1094 c15 -18 22 -47 9 -39 -5 3
-11 -1 -13 -7 -4 -9 -6 -10 -6 -1 -1 6 4 15 10 19 8 4 4 13 -12 25 -13 10 -19
19 -13 19 6 0 18 -7 25 -16z"/>
<path fill="#ffffff" stroke="none" d="M3390 1065 c-5 -6 -7 -15 -3 -19 4 -4
-1 -4 -11 0 -13 5 -14 9 -6 14 7 4 10 13 6 19 -5 7 -1 9 9 5 11 -5 13 -10 5
-19z"/>
<path fill="#ffffff" stroke="none" d="M3855 1043 c15 -12 16 -14 3 -10 -9 3
-18 1 -21 -6 -2 -6 -6 -1 -9 11 -7 26 0 27 27 5z"/>
<path fill="#ffffff" stroke="none" d="M3810 984 c0 -8 4 -12 10 -9 5 3 21 0
35 -8 24 -12 25 -15 11 -27 -14 -11 -16 -10 -9 6 6 17 5 17 -10 5 -15 -12 -19
-12 -32 5 -10 15 -16 16 -26 7 -15 -15 -39 -6 -39 16 0 11 -3 12 -8 4 -4 -7
-13 -9 -21 -4 -14 9 -4 19 17 15 6 -1 17 -2 22 -3 6 0 10 -8 10 -17 0 -8 5
-12 10 -9 6 4 7 11 4 17 -5 7 -2 8 6 3 10 -6 12 -4 7 9 -4 10 -3 15 3 11 6 -3
10 -13 10 -21z"/>
<path fill="#ffffff" stroke="none" d="M3783 918 c4 -13 1 -26 -6 -30 -7 -4
-13 -2 -15 6 -2 10 -12 13 -30 10 -15 -3 -24 -2 -20 1 5 6 28 12 51 14 5 1 5
6 2 11 -3 6 -2 10 3 10 5 0 12 -10 15 -22z"/>
<path fill="#ffffff" stroke="none" d="M3810 871 c0 -6 -5 -13 -12 -17 -6 -4
-8 -3 -4 4 3 5 0 13 -6 15 -8 3 -6 6 5 6 9 1 17 -3 17 -8z"/>
<path fill="#ffffff" stroke="none" d="M3786 805 c-3 -8 0 -15 6 -15 7 0 6 -5
-2 -15 -9 -10 -9 -15 -1 -15 6 0 11 -7 11 -15 0 -18 -16 -20 -26 -3 -12 19
-14 58 -3 58 6 0 7 5 4 10 -3 6 -1 10 5 10 7 0 10 -7 6 -15z"/>
<path fill="#ffffff" stroke="none" d="M3660 715 c0 -8 -4 -15 -10 -15 -5 0
-7 7 -4 15 4 8 8 15 10 15 2 0 4 -7 4 -15z"/>
<path fill="#ffffff" stroke="none" d="M3696 718 c4 -6 3 -8 -4 -4 -6 3 -13
-3 -17 -14 -3 -11 -11 -20 -16 -20 -6 0 -7 -4 -4 -10 3 -5 2 -10 -3 -10 -20 0
-20 28 -1 33 10 3 19 12 19 21 0 19 16 21 26 4z"/>
<path fill="#ffffff" stroke="none" d="M3590 695 c0 -3 -9 -5 -20 -5 -11 0
-20 7 -20 15 0 13 4 14 20 5 11 -6 20 -13 20 -15z"/>
<path fill="#ffffff" stroke="none" d="M3740 711 c0 -5 -7 -11 -15 -15 -15 -5
-20 5 -8 17 9 10 23 9 23 -2z"/>
<path fill="#ffffff" stroke="none" d="M3633 656 c3 -8 -2 -16 -14 -19 -21 -6
-22 -5 -13 17 8 20 20 21 27 2z"/>
<path fill="#ffffff" stroke="none" d="M3490 641 c0 -12 -26 -32 -33 -25 -6 7
14 33 26 34 4 0 7 -4 7 -9z"/>
<path fill="#ffffff" stroke="none" d="M3587 615 c0 -8 -4 -15 -9 -15 -10 0
-11 14 -1 23 9 10 10 9 10 -8z"/>
<path fill="#000000" stroke="none" d="M3825 960 c3 -5 8 -10 11 -10 2 0 4 5
4 10 0 6 -5 10 -11 10 -5 0 -7 -4 -4 -10z"/>
<path fill="#000000" stroke="none" d="M628 1235 c2 -14 6 -25 8 -25 2 0 4 11
4 25 0 14 -4 25 -9 25 -4 0 -6 -11 -3 -25z"/>
<path fill="#000000" stroke="none" d="M1727 1235 c-4 -8 -2 -17 3 -20 6 -4
10 3 10 14 0 25 -6 27 -13 6z"/>
<path fill="#000000" stroke="none" d="M3852 1238 c-7 -7 -23 -13 -34 -13 -12
0 -22 -6 -24 -13 -1 -7 0 -8 3 -2 3 6 11 7 23 0 14 -7 23 -6 34 6 9 8 16 20
16 25 0 12 -4 11 -18 -3z"/>
<path fill="#000000" stroke="none" d="M2396 1213 c-6 -14 -5 -15 5 -6 7 7 10
15 7 18 -3 3 -9 -2 -12 -12z"/>
<path fill="#000000" stroke="none" d="M527 1201 c-3 -13 -1 -18 9 -14 7 2 10
11 7 19 -7 19 -10 18 -16 -5z"/>
<path fill="#000000" stroke="none" d="M2017 1175 c-24 -50 -20 -58 4 -12 11
22 19 41 17 43 -3 2 -12 -12 -21 -31z"/>
<path fill="#000000" stroke="none" d="M280 1196 c0 -2 7 -9 15 -16 13 -11 14
-10 9 4 -5 14 -24 23 -24 12z"/>
<path fill="#000000" stroke="none" d="M3278 1184 c-9 -8 3 -44 14 -44 5 0 7
4 4 8 -2 4 5 9 17 9 12 1 17 -1 11 -5 -6 -4 -14 -17 -18 -29 -4 -13 -14 -23
-23 -23 -13 0 -13 3 -2 18 7 9 9 13 4 9 -5 -4 -15 3 -22 15 l-13 23 4 -25 c3
-14 5 -40 5 -57 1 -25 5 -33 19 -32 10 0 12 3 5 6 -20 7 -15 30 6 36 24 6 35
-17 15 -33 -15 -14 -19 -40 -5 -40 14 0 32 26 23 35 -4 5 -2 5 4 2 16 -9 12
25 -4 38 -16 13 -5 45 15 45 12 0 13 3 3 15 -6 8 -9 19 -5 25 3 5 1 10 -4 10
-6 0 -11 -4 -11 -8 0 -4 -9 -8 -20 -9 -11 -1 -18 2 -15 8 7 10 2 12 -7 3z"/>
<path fill="#000000" stroke="none" d="M435 1170 c-3 -5 -1 -10 4 -10 6 0 11
5 11 10 0 6 -2 10 -4 10 -3 0 -8 -4 -11 -10z"/>
<path fill="#000000" stroke="none" d="M1742 1160 c0 -14 2 -19 5 -12 2 6 2
18 0 25 -3 6 -5 1 -5 -13z"/>
<path fill="#000000" stroke="none" d="M3559 1178 c-8 -28 -5 -48 8 -59 15
-13 16 -11 9 11 -4 14 -8 31 -8 38 -1 10 -7 17 -9 10z"/>
<path fill="#000000" stroke="none" d="M516 1161 c-4 -6 -2 -11 4 -11 6 0 8
-6 4 -12 -6 -10 -4 -10 7 0 9 9 10 15 2 23 -8 8 -13 8 -17 0z"/>
<path fill="#000000" stroke="none" d="M3529 1159 c-1 -8 -1 -18 0 -22 1 -4
-5 -18 -14 -30 -19 -28 -19 -43 0 -27 8 7 12 17 8 23 -4 6 0 8 10 4 14 -5 15
-1 10 26 -7 36 -12 47 -14 26z"/>
<path fill="#000000" stroke="none" d="M194 1125 c0 -25 19 -34 31 -15 7 11
-11 40 -24 40 -4 0 -7 -11 -7 -25z"/>
<path fill="#000000" stroke="none" d="M800 1140 c0 -5 6 -10 14 -10 8 0 16
-6 19 -12 2 -7 8 -10 12 -5 5 4 0 14 -11 22 -23 17 -34 19 -34 5z"/>
<path fill="#000000" stroke="none" d="M2376 1125 c-3 -9 -6 -22 -5 -28 0 -7
5 -1 10 12 5 13 8 26 5 28 -2 2 -6 -3 -10 -12z"/>
<path fill="#000000" stroke="none" d="M1750 1125 c0 -12 42 -77 47 -72 2 3
-7 22 -22 42 -14 21 -25 34 -25 30z"/>
<path fill="#000000" stroke="none" d="M2431 1123 c-1 -6 -4 -20 -7 -30 -5
-17 -5 -17 6 0 6 10 9 23 6 30 -3 9 -5 9 -5 0z"/>
<path fill="#000000" stroke="none" d="M464 1098 c-3 -4 5 -5 17 -3 32 6 48
-8 19 -16 -22 -7 -21 -7 8 -6 19 1 32 6 32 15 0 7 5 10 12 6 6 -4 8 -3 4 4 -7
12 -85 12 -92 0z"/>
<path fill="#000000" stroke="none" d="M1975 1099 c-4 -6 -5 -12 -2 -15 2 -3
7 2 10 11 7 17 1 20 -8 4z"/>
<path fill="#000000" stroke="none" d="M190 1077 c0 -8 -6 -20 -13 -26 -20
-16 -21 -81 -1 -81 10 0 12 -5 7 -12 -11 -19 -12 -37 -2 -44 5 -3 9 -12 9 -20
0 -11 -6 -13 -22 -8 -20 6 -21 5 -9 -10 9 -10 10 -16 2 -16 -6 0 -11 3 -12 8
0 4 -2 15 -4 24 -2 12 3 15 18 13 19 -4 20 -2 7 8 -15 12 -21 34 -21 70 0 19
-14 23 -25 6 -3 -6 0 -16 7 -21 11 -7 11 -11 2 -15 -7 -2 -13 -9 -13 -15 0 -6
6 -6 15 2 18 15 19 7 3 -23 -22 -42 -16 -135 7 -98 3 6 13 7 22 4 13 -5 15 -2
10 11 -4 11 -1 19 10 23 9 4 25 15 36 26 20 20 20 20 1 14 -18 -7 -18 -7 0 8
15 11 17 18 9 26 -6 6 -9 18 -6 27 4 10 2 13 -6 8 -6 -4 -11 -13 -10 -19 4
-29 -1 -41 -12 -30 -8 8 -8 17 1 32 12 24 6 41 -15 41 -13 0 -16 49 -2 51 4 1
13 2 20 3 6 0 12 10 12 20 0 11 -6 21 -12 24 -7 2 -13 -3 -13 -11z"/>
<path fill="#ffffff" stroke="none" d="M166 838 c5 -7 3 -8 -6 -3 -7 4 -16 2
-21 -6 -7 -11 -9 -10 -9 4 0 19 25 23 36 5z"/>
<path fill="#000000" stroke="none" d="M2336 1048 l-17 -33 20 24 c18 20 27
41 18 41 -1 0 -11 -15 -21 -32z"/>
<path fill="#000000" stroke="none" d="M191 1024 c0 -11 3 -14 6 -6 3 7 2 16
-1 19 -3 4 -6 -2 -5 -13z"/>
<path fill="#000000" stroke="none" d="M1810 1030 c0 -5 5 -10 11 -10 5 0 7 5
4 10 -3 6 -8 10 -11 10 -2 0 -4 -4 -4 -10z"/>
<path fill="#000000" stroke="none" d="M3317 1020 c-8 -11 -17 -17 -22 -12 -5
4 -5 1 -1 -5 4 -8 2 -13 -5 -13 -7 0 -10 -2 -7 -5 10 -10 63 20 64 38 2 23
-12 22 -29 -3z"/>
<path fill="#000000" stroke="none" d="M1730 1017 c0 -5 14 -35 32 -66 l32
-58 -32 -37 c-18 -20 -32 -38 -32 -40 0 -2 11 -6 25 -8 20 -4 23 -2 14 8 -8 9
-5 21 12 43 26 35 32 37 50 15 7 -8 26 -22 43 -30 17 -8 22 -9 11 -2 -37 24
-114 107 -134 145 -11 21 -20 34 -21 30z"/>
<path fill="#000000" stroke="none" d="M2286 1000 c-15 -5 -16 -9 -7 -14 7 -5
18 -3 24 3 14 14 6 20 -17 11z"/>
<path fill="#000000" stroke="none" d="M1850 996 c0 -2 8 -10 18 -17 15 -13
16 -12 3 4 -13 16 -21 21 -21 13z"/>
<path fill="#000000" stroke="none" d="M2369 936 c-18 -30 -48 -63 -70 -77
-21 -13 -36 -25 -33 -28 2 -2 18 5 34 17 16 12 33 22 39 22 5 0 11 5 13 12 2
6 14 -4 25 -22 24 -38 22 -50 -10 -50 -24 0 -172 -78 -164 -86 3 -3 28 6 56
20 28 15 51 24 51 20 0 -3 12 4 26 15 15 12 39 21 54 21 40 0 42 9 10 49 -35
42 -36 50 -10 101 29 58 17 49 -21 -14z"/>
<path fill="#000000" stroke="none" d="M730 959 c0 -5 5 -7 10 -4 6 3 10 8 10
11 0 2 -4 4 -10 4 -5 0 -10 -5 -10 -11z"/>
<path fill="#000000" stroke="none" d="M623 935 c-6 -11 -7 -29 -3 -40 7 -18
8 -18 15 7 10 37 2 59 -12 33z"/>
<path fill="#000000" stroke="none" d="M3680 939 c0 -5 10 -9 22 -9 12 0 18 3
14 7 -10 11 -36 12 -36 2z"/>
<path fill="#000000" stroke="none" d="M3442 911 c6 -20 48 -25 48 -6 0 18
-16 20 -26 4 -4 -8 -9 -7 -16 2 -8 12 -9 12 -6 0z"/>
<path fill="#000000" stroke="none" d="M419 899 c-4 -39 13 -70 26 -48 5 8 4
10 -3 5 -7 -4 -12 -1 -12 9 0 9 5 13 10 10 16 -10 12 11 -5 25 -12 10 -15 10
-16 -1z"/>
<path fill="#000000" stroke="none" d="M3250 904 c-16 -5 -43 -75 -33 -84 3
-3 8 0 10 7 2 7 11 9 20 6 12 -5 14 -1 8 15 -5 17 -2 22 12 22 15 0 16 2 3 10
-8 5 -11 13 -6 17 4 4 14 -1 22 -11 14 -20 14 -20 30 0 14 18 15 18 8 -6 -6
-21 -5 -23 8 -12 11 9 23 10 42 2 15 -5 30 -9 34 -9 25 4 34 -2 23 -15 -6 -7
-22 -11 -36 -9 -21 5 -24 2 -19 -20 5 -28 -10 -45 -22 -26 -4 8 -3 9 4 5 7 -4
12 -2 12 3 0 16 -25 13 -39 -3 -9 -11 -7 -15 12 -18 13 -3 33 -1 45 3 12 5 24
4 27 -1 4 -6 -1 -10 -9 -10 -20 0 -20 -14 -1 -34 9 -8 16 -19 16 -23 0 -4 8
-6 17 -5 12 3 13 1 5 -10 -9 -10 -5 -13 18 -14 22 -1 27 2 19 11 -7 9 -6 16 5
25 12 10 13 16 4 26 -8 10 -15 11 -24 4 -6 -5 -15 -7 -18 -3 -4 3 -7 -2 -8
-13 0 -16 -2 -16 -10 4 -6 16 -5 31 2 44 10 18 9 20 -5 15 -9 -4 -16 -1 -16 6
0 8 -4 7 -11 -3 -9 -13 -10 -13 -6 0 3 10 15 14 35 13 17 -2 34 2 37 7 3 6 13
10 21 10 11 0 10 -4 -3 -18 -10 -11 -21 -17 -24 -15 -11 5 -18 -23 -9 -36 5
-10 9 -10 14 -2 4 6 12 8 18 5 7 -5 9 -1 5 9 -4 11 -1 15 14 12 13 -3 21 3 25
21 4 16 12 23 20 20 16 -6 19 10 4 19 -6 4 -8 11 -4 16 3 6 11 3 18 -6 10 -15
12 -14 13 4 1 12 -3 21 -8 21 -6 0 -7 4 -4 10 3 5 0 7 -8 4 -8 -3 -19 -16 -25
-30 -7 -13 -17 -24 -24 -24 -9 0 -8 3 2 10 8 5 10 10 5 10 -6 0 -16 -5 -23
-12 -9 -9 -11 -6 -7 11 2 12 0 19 -6 16 -5 -4 -9 -14 -9 -23 0 -11 -8 -18 -21
-19 -21 -2 -21 -1 -3 18 16 17 16 22 4 29 -8 6 -19 10 -23 10 -5 0 -5 5 -2 10
3 6 1 10 -5 10 -6 0 -13 -7 -16 -15 -4 -8 -12 -15 -20 -15 -17 0 -18 17 -1 23
6 2 -4 4 -23 5 -19 0 -41 -5 -49 -11 -11 -9 -15 -9 -18 1 -5 12 -14 13 -43 6z"/>
<path fill="#ffffff" stroke="none" d="M3450 864 c0 -2 -8 0 -19 5 -10 6 -22
7 -26 3 -5 -4 -5 -1 -1 6 5 9 12 9 27 2 10 -6 19 -13 19 -16z"/>
<path fill="#000000" stroke="none" d="M3500 896 c0 -7 7 -13 15 -13 8 0 15 4
15 8 0 4 -7 9 -15 13 -9 3 -15 0 -15 -8z"/>
<path fill="#000000" stroke="none" d="M743 879 c1 -20 17 -27 17 -7 0 6 3 9
6 6 10 -10 -20 -48 -38 -48 -10 0 -18 -4 -18 -9 0 -11 38 -2 46 10 3 5 15 9
27 9 16 0 18 3 9 12 -7 7 -12 19 -12 28 0 9 -9 16 -19 17 -14 1 -19 -4 -18
-18z"/>
<path fill="#000000" stroke="none" d="M3670 896 c0 -2 7 -7 16 -10 8 -3 12
-2 9 4 -6 10 -25 14 -25 6z"/>
<path fill="#000000" stroke="none" d="M520 876 c-8 -10 -8 -21 -2 -32 7 -13
11 -14 17 -3 5 8 4 14 -4 17 -9 3 -9 7 0 18 6 8 9 14 6 14 -2 0 -10 -7 -17
-14z"/>
<path fill="#000000" stroke="none" d="M460 876 c0 -2 9 -6 20 -9 11 -3 20 -1
20 4 0 5 -9 9 -20 9 -11 0 -20 -2 -20 -4z"/>
<path fill="#000000" stroke="none" d="M3726 865 c4 -8 10 -12 15 -9 11 6 2
24 -11 24 -5 0 -7 -7 -4 -15z"/>
<path fill="#000000" stroke="none" d="M3276 844 c-8 -22 -8 -24 7 -18 8 3 13
-5 15 -21 1 -19 -2 -24 -11 -19 -8 6 -8 3 1 -9 8 -9 10 -22 6 -29 -5 -10 -4
-10 5 -2 7 6 14 18 16 25 10 45 19 60 31 55 8 -3 14 -1 14 3 0 5 -7 12 -16 15
-21 8 -26 8 -21 -1 3 -5 1 -17 -4 -28 -7 -19 -8 -19 -8 3 -1 12 -7 22 -13 22
-9 0 -8 4 2 10 13 8 13 10 -1 10 -9 0 -20 -7 -23 -16z"/>
<path fill="#000000" stroke="none" d="M3184 828 c-4 -6 -2 -14 4 -16 15 -5
16 -32 2 -32 -17 0 -11 -26 10 -45 11 -10 17 -22 14 -26 -8 -13 3 -11 36 6 29
15 41 45 18 45 -6 0 -9 -3 -5 -6 3 -4 -1 -13 -9 -21 -18 -19 -48 -9 -40 13 5
12 2 15 -9 10 -10 -3 -14 -2 -9 5 3 6 17 8 29 5 32 -8 36 5 12 28 -18 17 -20
17 -14 2 4 -10 3 -15 -3 -11 -6 3 -10 13 -10 21 0 8 -5 14 -11 14 -5 0 -7 5
-4 10 3 6 4 10 1 10 -3 0 -8 -5 -12 -12z"/>
<path fill="#000000" stroke="none" d="M228 813 c6 -2 10 -9 6 -14 -3 -5 4 -9
15 -9 11 0 23 5 27 12 4 6 3 8 -4 4 -6 -3 -13 -2 -17 4 -3 5 -14 10 -23 9 -11
0 -12 -2 -4 -6z"/>
<path fill="#000000" stroke="none" d="M1814 787 c17 -12 36 -22 44 -24 22 -3
121 -73 164 -115 21 -21 38 -34 38 -29 0 22 -109 114 -180 150 -86 45 -111 52
-66 18z"/>
<path fill="#000000" stroke="none" d="M3260 800 c-9 -6 -10 -10 -3 -10 6 0
15 5 18 10 8 12 4 12 -15 0z"/>
<path fill="#000000" stroke="none" d="M460 785 c-9 -11 -10 -18 -1 -28 6 -8
7 -18 3 -22 -4 -5 -1 -5 6 -1 16 10 15 0 -4 -29 -13 -20 -14 -28 -4 -40 7 -8
18 -15 24 -15 6 0 4 5 -4 10 -9 6 -11 10 -3 10 7 0 10 7 6 17 -5 12 -2 15 10
10 10 -4 17 -2 17 5 0 6 8 17 18 25 9 8 11 12 5 8 -21 -10 -55 14 -48 35 8 24
-9 34 -25 15z"/>
<path fill="#000000" stroke="none" d="M3500 763 c0 -9 3 -13 7 -10 3 4 12 2
20 -5 11 -8 12 -7 7 5 -8 22 -34 30 -34 10z"/>
<path fill="#000000" stroke="none" d="M490 760 c0 -5 5 -10 11 -10 5 0 7 5 4
10 -3 6 -8 10 -11 10 -2 0 -4 -4 -4 -10z"/>
<path fill="#000000" stroke="none" d="M1821 717 c-26 -42 -27 -67 -3 -67 24
0 42 -19 42 -46 0 -13 5 -26 10 -29 6 -4 10 6 10 22 0 26 2 25 61 -32 33 -33
72 -79 86 -102 28 -49 37 -55 23 -17 -23 59 -119 160 -185 195 -25 13 -45 28
-45 32 0 4 7 22 16 38 22 43 11 47 -15 6z"/>
<path fill="#000000" stroke="none" d="M2310 746 c0 -2 7 -20 16 -41 8 -20 14
-38 12 -40 -2 -1 -25 -13 -52 -26 -53 -26 -131 -110 -166 -180 -27 -52 -17
-50 16 3 15 23 49 66 77 95 48 51 71 61 61 25 -6 -21 12 16 20 41 3 9 19 20
36 23 36 8 38 24 9 70 -18 30 -29 41 -29 30z"/>
<path fill="#000000" stroke="none" d="M617 720 c-20 -23 -15 -40 11 -40 15 0
15 2 2 11 -13 9 -13 10 0 6 8 -2 14 -10 13 -16 -2 -6 2 -11 8 -11 5 0 7 -4 4
-10 -3 -5 -2 -10 4 -10 15 0 25 21 14 29 -6 3 -16 18 -24 33 -15 28 -15 28
-32 8z"/>
<path fill="#000000" stroke="none" d="M544 718 c-4 -7 -3 -8 4 -4 7 4 12 3
12 -2 0 -4 -16 -16 -36 -25 -19 -10 -32 -22 -29 -28 4 -5 -5 -25 -19 -44 -14
-18 -23 -36 -18 -38 11 -7 49 27 45 40 -3 7 4 10 19 6 21 -4 22 -3 5 10 -18
15 -13 52 5 41 6 -4 6 -9 -2 -14 -8 -5 -9 -10 -2 -14 6 -4 16 3 22 15 8 15 9
19 1 15 -6 -4 -11 -2 -11 3 0 6 9 11 19 11 17 0 19 -4 10 -32 -5 -18 -9 -33
-9 -34 0 -9 -40 -43 -55 -47 -11 -3 0 -5 25 -4 49 2 63 12 50 37 -14 25 4 43
38 38 23 -3 29 -1 25 10 -4 8 -14 11 -29 8 -12 -3 -26 -2 -29 4 -3 5 -1 10 6
10 8 0 6 6 -4 18 -10 10 -14 22 -10 25 3 4 -1 7 -10 7 -9 0 -19 -5 -23 -12z"/>
<path fill="#000000" stroke="none" d="M2149 687 c-31 -27 -63 -77 -49 -77 5
0 10 5 10 10 0 6 19 28 41 50 44 42 42 56 -2 17z"/>
<path fill="#000000" stroke="none" d="M287 677 c-3 -8 -2 -18 1 -24 8 -12 48
-10 59 2 5 4 0 5 -9 2 -10 -3 -20 -2 -23 4 -4 5 -11 7 -16 4 -5 -3 -6 1 -3 9
3 9 4 16 1 16 -3 0 -7 -6 -10 -13z"/>
<path fill="#000000" stroke="none" d="M310 681 c0 -5 5 -13 10 -16 6 -3 10
-2 10 4 0 5 -4 13 -10 16 -5 3 -10 2 -10 -4z"/>
<path fill="#000000" stroke="none" d="M354 665 c8 -8 20 -15 27 -15 7 0 4 6
-7 15 -25 19 -40 19 -20 0z"/>
<path fill="#000000" stroke="none" d="M671 647 c-6 -6 -28 -10 -49 -10 -20 1
-30 -1 -22 -4 31 -12 50 -36 39 -49 -7 -9 -7 -12 3 -10 26 6 48 18 48 28 0 6
-6 6 -14 -1 -10 -8 -16 -9 -21 -1 -3 5 0 10 9 10 8 0 17 6 19 13 4 10 6 10 6
0 1 -18 31 -16 31 2 0 21 -34 37 -49 22z"/>
<path fill="#000000" stroke="none" d="M3786 618 c-18 -34 -7 -59 14 -33 11
13 10 15 -6 9 -18 -5 -18 -5 0 10 11 9 15 20 10 28 -6 10 -4 10 9 -1 15 -12
17 -12 11 3 -9 24 -21 20 -38 -16z"/>
<path fill="#000000" stroke="none" d="M3680 608 c-16 -9 -31 -14 -34 -11 -3
4 -6 1 -6 -5 0 -7 4 -12 9 -12 5 0 16 -3 25 -6 9 -3 16 -1 16 6 0 6 -4 8 -10
5 -5 -3 -10 -2 -10 3 0 5 13 9 30 9 16 0 27 -4 25 -8 -3 -4 2 -10 10 -13 10
-4 15 -1 13 9 -2 7 5 20 16 28 17 12 15 14 -19 13 -21 -1 -50 -9 -65 -18z"/>
<path fill="#000000" stroke="none" d="M590 609 c0 -15 18 -19 23 -6 3 8 -1
14 -9 14 -8 0 -14 -4 -14 -8z"/>
<path fill="#000000" stroke="none" d="M733 613 c-18 -6 -16 -43 2 -43 8 0 15
5 15 11 0 8 4 8 14 0 10 -9 16 -9 21 -1 4 6 5 12 4 13 -2 1 -13 7 -24 13 -11
6 -26 9 -32 7z"/>
<path fill="#000000" stroke="none" d="M3400 610 c0 -5 5 -10 10 -10 6 0 10 5
10 10 0 6 -4 10 -10 10 -5 0 -10 -4 -10 -10z"/>
<path fill="#000000" stroke="none" d="M796 585 c-3 -8 -1 -15 4 -15 6 0 10 7
10 15 0 8 -2 15 -4 15 -2 0 -6 -7 -10 -15z"/>
<path fill="#000000" stroke="none" d="M2067 584 c3 -7 9 -14 14 -14 14 0 10
17 -5 23 -10 4 -13 1 -9 -9z"/>
<path fill="#000000" stroke="none" d="M2070 372 c6 -13 14 -21 18 -18 3 4 -2
14 -12 24 -18 16 -18 16 -6 -6z"/>
<path fill="#000000" stroke="none" d="M3 165 c0 -22 2 -30 4 -17 2 12 2 30 0
40 -3 9 -5 -1 -4 -23z"/>
<path fill="#000000" stroke="none" d="M1037 3 c574 -2 1512 -2 2086 0 573 1
104 2 -1043 2 -1147 0 -1616 -1 -1043 -2z"/>
</g>
</svg>
