<?xml version="1.0" standalone="no"?>
<!DOCTYPE svg PUBLIC "-//W3C//DTD SVG 20010904//EN"
 "http://www.w3.org/TR/2001/REC-SVG-20010904/DTD/svg10.dtd">
<svg version="1.0" xmlns="http://www.w3.org/2000/svg"
 width="416.000000pt" height="416.000000pt" viewBox="0 0 416.000000 416.000000"
 preserveAspectRatio="xMidYMid meet">
<metadata>
Created by potrace 1.16, written by Peter Selinger 2001-2019
</metadata>
<g transform="translate(0.000000,416.000000) scale(0.100000,-0.100000)"
fill="#000000" stroke="none">
<path fill="#000000" stroke="none" d="M2306 2541 c-4 -5 -3 -16 0 -25 5 -13
9 -14 20 -5 8 6 14 18 14 25 0 16 -26 19 -34 5z"/>
<path fill="#000000" stroke="none" d="M1706 2513 c-3 -4 -6 -14 -6 -24 0 -18
19 -29 51 -29 18 0 18 1 4 24 -17 26 -39 39 -49 29z"/>
<path fill="#000000" stroke="none" d="M1983 1048 c-18 -24 -24 -38 -16 -38
10 0 36 40 30 46 -2 3 -9 -1 -14 -8z"/>
</g>
</svg>
