<?xml version="1.0" standalone="no"?>
<!DOCTYPE svg PUBLIC "-//W3C//DTD SVG 20010904//EN"
 "http://www.w3.org/TR/2001/REC-SVG-20010904/DTD/svg10.dtd">
<svg version="1.0" xmlns="http://www.w3.org/2000/svg"
 width="416.000000pt" height="416.000000pt" viewBox="0 0 416.000000 416.000000"
 preserveAspectRatio="xMidYMid meet">
<metadata>
Created by potrace 1.16, written by Peter Selinger 2001-2019
</metadata>
<g transform="translate(0.000000,416.000000) scale(0.100000,-0.100000)"
fill="#000000" stroke="none">
<path fill="#000000" stroke="none" d="M0 2080 l0 -2080 2080 0 2080 0 0 2080
0 2080 -2080 0 -2080 0 0 -2080z"/>
<path fill="#ffffff" stroke="none" d="M400 3790 c0 -17 -7 -20 -45 -20 l-45
0 0 -65 0 -65 45 0 c38 0 45 -3 45 -20 0 -18 -7 -20 -60 -20 l-60 0 0 105 0
105 60 0 c53 0 60 -2 60 -20z"/>
<path fill="#ffffff" stroke="none" d="M570 3730 c0 -64 -3 -80 -15 -80 -12 0
-15 16 -15 80 0 64 3 80 15 80 12 0 15 -16 15 -80z"/>
<path fill="#ffffff" stroke="none" d="M700 3730 c0 -64 -3 -80 -15 -80 -12 0
-15 16 -15 80 0 64 3 80 15 80 12 0 15 -16 15 -80z"/>
<path fill="#ffffff" stroke="none" d="M830 3790 c0 -13 7 -20 20 -20 13 0 20
-7 20 -20 0 -13 -7 -20 -20 -20 -18 0 -20 -7 -20 -65 0 -51 -3 -65 -15 -65
-12 0 -15 18 -15 105 0 87 3 105 15 105 8 0 15 -9 15 -20z"/>
<path fill="#ffffff" stroke="none" d="M1000 3705 c0 -87 -3 -105 -15 -105 -8
0 -15 9 -15 20 0 13 -7 20 -20 20 -13 0 -20 7 -20 20 0 13 7 20 20 20 18 0 20
7 20 65 0 51 3 65 15 65 12 0 15 -18 15 -105z"/>
<path fill="#ffffff" stroke="none" d="M1260 3790 c0 -18 -7 -20 -60 -20 -53
0 -60 2 -60 20 0 18 7 20 60 20 53 0 60 -2 60 -20z"/>
<path fill="#ffffff" stroke="none" d="M1480 3790 c0 -17 -7 -20 -45 -20 -41
0 -45 -2 -45 -25 0 -23 4 -25 45 -25 38 0 45 -3 45 -20 0 -17 -7 -20 -45 -20
-38 0 -45 -3 -45 -20 0 -17 7 -20 45 -20 38 0 45 -3 45 -20 0 -18 -7 -20 -60
-20 l-60 0 0 105 0 105 60 0 c53 0 60 -2 60 -20z"/>
<path fill="#ffffff" stroke="none" d="M1690 3790 c0 -17 -7 -20 -40 -20 -33
0 -40 3 -40 20 0 17 7 20 40 20 33 0 40 -3 40 -20z"/>
<path fill="#ffffff" stroke="none" d="M1860 3790 c0 -13 7 -20 20 -20 13 0
20 -7 20 -20 0 -13 -7 -20 -20 -20 -18 0 -20 -7 -20 -65 0 -51 -3 -65 -15 -65
-12 0 -15 18 -15 105 0 87 3 105 15 105 8 0 15 -9 15 -20z"/>
<path fill="#ffffff" stroke="none" d="M2030 3705 c0 -87 -3 -105 -15 -105 -8
0 -15 9 -15 20 0 13 -7 20 -20 20 -13 0 -20 7 -20 20 0 13 7 20 20 20 18 0 20
7 20 65 0 51 3 65 15 65 12 0 15 -18 15 -105z"/>
<path fill="#ffffff" stroke="none" d="M2420 3790 c0 -17 -7 -20 -40 -20 -33
0 -40 3 -40 20 0 17 7 20 40 20 33 0 40 -3 40 -20z"/>
<path fill="#ffffff" stroke="none" d="M2680 3790 c0 -17 -7 -20 -45 -20 -38
0 -45 -3 -45 -20 0 -17 7 -20 45 -20 38 0 45 -3 45 -20 0 -17 -7 -20 -45 -20
l-45 0 0 -45 c0 -33 -4 -45 -15 -45 -12 0 -15 18 -15 105 l0 105 60 0 c53 0
60 -2 60 -20z"/>
<path fill="#ffffff" stroke="none" d="M2930 3790 c0 -17 -7 -20 -40 -20 -33
0 -40 3 -40 20 0 17 7 20 40 20 33 0 40 -3 40 -20z"/>
<path fill="#ffffff" stroke="none" d="M3100 3730 c0 -64 -3 -80 -15 -80 -12
0 -15 16 -15 80 0 64 3 80 15 80 12 0 15 -16 15 -80z"/>
<path fill="#ffffff" stroke="none" d="M3270 3730 c0 -64 -3 -80 -15 -80 -12
0 -15 16 -15 80 0 64 3 80 15 80 12 0 15 -16 15 -80z"/>
<path fill="#ffffff" stroke="none" d="M3400 3725 l0 -85 45 0 c38 0 45 -3 45
-20 0 -18 -7 -20 -60 -20 l-60 0 0 105 c0 87 3 105 15 105 12 0 15 -16 15 -85z"/>
<path fill="#ffffff" stroke="none" d="M440 3710 c0 -47 -3 -60 -15 -60 -12 0
-15 13 -15 60 0 47 3 60 15 60 12 0 15 -13 15 -60z"/>
<path fill="#ffffff" stroke="none" d="M1600 3710 c0 -47 -3 -60 -15 -60 -12
0 -15 13 -15 60 0 47 3 60 15 60 12 0 15 -13 15 -60z"/>
<path fill="#ffffff" stroke="none" d="M1730 3710 c0 -47 -3 -60 -15 -60 -12
0 -15 13 -15 60 0 47 3 60 15 60 12 0 15 -13 15 -60z"/>
<path fill="#ffffff" stroke="none" d="M2330 3705 c0 -51 -3 -65 -15 -65 -12
0 -15 14 -15 65 0 51 3 65 15 65 12 0 15 -14 15 -65z"/>
<path fill="#ffffff" stroke="none" d="M2460 3750 c0 -11 -7 -20 -15 -20 -8 0
-15 9 -15 20 0 11 7 20 15 20 8 0 15 -9 15 -20z"/>
<path fill="#ffffff" stroke="none" d="M2720 3750 c0 -11 -7 -20 -15 -20 -8 0
-15 9 -15 20 0 11 7 20 15 20 8 0 15 -9 15 -20z"/>
<path fill="#ffffff" stroke="none" d="M2840 3745 c0 -23 3 -25 50 -25 47 0
50 2 50 25 0 16 6 25 15 25 12 0 15 -16 15 -85 0 -69 -3 -85 -15 -85 -11 0
-15 11 -15 40 l0 40 -50 0 -50 0 0 -40 c0 -29 -4 -40 -15 -40 -12 0 -15 16
-15 85 0 69 3 85 15 85 9 0 15 -9 15 -25z"/>
<path fill="#ffffff" stroke="none" d="M3190 3710 c0 -53 -2 -60 -20 -60 -18
0 -20 7 -20 60 0 53 2 60 20 60 18 0 20 -7 20 -60z"/>
<path fill="#ffffff" stroke="none" d="M1130 3700 c0 -47 -3 -60 -15 -60 -12
0 -15 13 -15 60 0 47 3 60 15 60 12 0 15 -13 15 -60z"/>
<path fill="#ffffff" stroke="none" d="M920 3710 c0 -13 -7 -20 -20 -20 -13 0
-20 7 -20 20 0 13 7 20 20 20 13 0 20 -7 20 -20z"/>
<path fill="#ffffff" stroke="none" d="M1950 3710 c0 -13 -7 -20 -20 -20 -13
0 -20 7 -20 20 0 13 7 20 20 20 13 0 20 -7 20 -20z"/>
<path fill="#ffffff" stroke="none" d="M1260 3680 c0 -29 -4 -40 -15 -40 -8 0
-15 9 -15 20 0 15 -7 20 -25 20 -18 0 -25 5 -25 20 0 17 7 20 40 20 l40 0 0
-40z"/>
<path fill="#ffffff" stroke="none" d="M2460 3660 c0 -11 -7 -20 -15 -20 -8 0
-15 9 -15 20 0 11 7 20 15 20 8 0 15 -9 15 -20z"/>
<path fill="#ffffff" stroke="none" d="M2680 3660 c0 -13 -7 -20 -20 -20 -13
0 -20 7 -20 20 0 13 7 20 20 20 13 0 20 -7 20 -20z"/>
<path fill="#ffffff" stroke="none" d="M660 3620 c0 -17 -7 -20 -40 -20 -33 0
-40 3 -40 20 0 17 7 20 40 20 33 0 40 -3 40 -20z"/>
<path fill="#ffffff" stroke="none" d="M1220 3620 c0 -17 -7 -20 -40 -20 -33
0 -40 3 -40 20 0 17 7 20 40 20 33 0 40 -3 40 -20z"/>
<path fill="#ffffff" stroke="none" d="M1690 3620 c0 -17 -7 -20 -40 -20 -33
0 -40 3 -40 20 0 17 7 20 40 20 33 0 40 -3 40 -20z"/>
<path fill="#ffffff" stroke="none" d="M2420 3620 c0 -17 -7 -20 -40 -20 -33
0 -40 3 -40 20 0 17 7 20 40 20 33 0 40 -3 40 -20z"/>
<path fill="#ffffff" stroke="none" d="M2720 3620 c0 -11 -7 -20 -15 -20 -8 0
-15 9 -15 20 0 11 7 20 15 20 8 0 15 -9 15 -20z"/>
<path fill="#ffffff" stroke="none" d="M3140 3620 c0 -11 -7 -20 -15 -20 -8 0
-15 9 -15 20 0 11 7 20 15 20 8 0 15 -9 15 -20z"/>
<path fill="#ffffff" stroke="none" d="M3230 3620 c0 -11 -7 -20 -15 -20 -8 0
-15 9 -15 20 0 11 7 20 15 20 8 0 15 -9 15 -20z"/>
<path fill="#ffffff" stroke="none" d="M2280 3465 c0 -10 -11 -15 -35 -15 -24
0 -35 5 -35 15 0 10 11 15 35 15 24 0 35 -5 35 -15z"/>
<path fill="#ffffff" stroke="none" d="M2430 3465 c0 -8 -7 -15 -15 -15 -12 0
-15 -13 -15 -55 0 -30 -4 -55 -10 -55 -5 0 -10 25 -10 55 0 42 -3 55 -15 55
-8 0 -15 7 -15 15 0 11 11 15 40 15 29 0 40 -4 40 -15z"/>
<path fill="#ffffff" stroke="none" d="M2570 3465 c0 -9 -9 -15 -25 -15 -16 0
-25 6 -25 15 0 9 9 15 25 15 16 0 25 -6 25 -15z"/>
<path fill="#ffffff" stroke="none" d="M2680 3465 c0 -8 7 -15 15 -15 8 0 15
-7 15 -15 0 -8 -7 -15 -15 -15 -11 0 -15 -11 -15 -40 0 -22 -4 -40 -10 -40 -6
0 -10 30 -10 70 0 40 4 70 10 70 6 0 10 -7 10 -15z"/>
<path fill="#ffffff" stroke="none" d="M2800 3410 c0 -40 -4 -70 -10 -70 -5 0
-10 7 -10 15 0 8 -7 15 -15 15 -8 0 -15 7 -15 15 0 8 7 15 15 15 11 0 15 11
15 40 0 22 5 40 10 40 6 0 10 -30 10 -70z"/>
<path fill="#ffffff" stroke="none" d="M2940 3465 c0 -10 -10 -15 -30 -15 -20
0 -30 -5 -30 -15 0 -10 10 -15 30 -15 20 0 30 -5 30 -15 0 -10 -10 -15 -30
-15 -16 0 -30 -4 -30 -10 0 -5 14 -10 30 -10 20 0 30 -5 30 -15 0 -11 -11 -15
-40 -15 l-40 0 0 70 0 70 40 0 c29 0 40 -4 40 -15z"/>
<path fill="#ffffff" stroke="none" d="M3230 3465 c0 -11 -11 -15 -40 -15 -29
0 -40 4 -40 15 0 11 11 15 40 15 29 0 40 -4 40 -15z"/>
<path fill="#ffffff" stroke="none" d="M3370 3465 c0 -9 -9 -15 -25 -15 -16 0
-25 6 -25 15 0 9 9 15 25 15 16 0 25 -6 25 -15z"/>
<path fill="#ffffff" stroke="none" d="M3480 3425 c0 -30 -4 -55 -10 -55 -5 0
-10 25 -10 55 0 30 5 55 10 55 6 0 10 -25 10 -55z"/>
<path fill="#ffffff" stroke="none" d="M3570 3425 c0 -30 -4 -55 -10 -55 -5 0
-10 25 -10 55 0 30 5 55 10 55 6 0 10 -25 10 -55z"/>
<path fill="#ffffff" stroke="none" d="M3721 3459 c11 -11 17 -24 13 -27 -3
-4 -9 -1 -11 6 -7 18 -63 16 -63 -3 0 -9 9 -15 25 -15 14 0 25 -4 25 -10 0 -5
-11 -10 -25 -10 -21 0 -25 -5 -25 -30 0 -16 -4 -30 -10 -30 -6 0 -10 30 -10
70 l0 70 30 0 c17 0 39 -9 51 -21z"/>
<path fill="#ffffff" stroke="none" d="M2200 3435 c0 -8 -4 -15 -10 -15 -5 0
-10 7 -10 15 0 8 5 15 10 15 6 0 10 -7 10 -15z"/>
<path fill="#ffffff" stroke="none" d="M2510 3410 c0 -22 -4 -40 -10 -40 -5 0
-10 18 -10 40 0 22 5 40 10 40 6 0 10 -18 10 -40z"/>
<path fill="#ffffff" stroke="none" d="M2600 3410 c0 -22 -4 -40 -10 -40 -5 0
-10 18 -10 40 0 22 5 40 10 40 6 0 10 -18 10 -40z"/>
<path fill="#ffffff" stroke="none" d="M3140 3435 c0 -8 -4 -15 -10 -15 -5 0
-10 7 -10 15 0 8 5 15 10 15 6 0 10 -7 10 -15z"/>
<path fill="#ffffff" stroke="none" d="M3310 3410 c0 -22 -4 -40 -10 -40 -5 0
-10 18 -10 40 0 22 5 40 10 40 6 0 10 -18 10 -40z"/>
<path fill="#ffffff" stroke="none" d="M3400 3410 c0 -22 -4 -40 -10 -40 -5 0
-10 18 -10 40 0 22 5 40 10 40 6 0 10 -18 10 -40z"/>
<path fill="#ffffff" stroke="none" d="M2250 3410 c0 -5 -9 -10 -20 -10 -11 0
-20 5 -20 10 0 6 9 10 20 10 11 0 20 -4 20 -10z"/>
<path fill="#ffffff" stroke="none" d="M2740 3410 c0 -5 -4 -10 -10 -10 -5 0
-10 5 -10 10 0 6 5 10 10 10 6 0 10 -4 10 -10z"/>
<path fill="#ffffff" stroke="none" d="M3200 3410 c0 -5 -11 -10 -25 -10 -14
0 -25 5 -25 10 0 6 11 10 25 10 14 0 25 -4 25 -10z"/>
<path fill="#ffffff" stroke="none" d="M2280 3385 c0 -8 -4 -15 -10 -15 -5 0
-10 7 -10 15 0 8 5 15 10 15 6 0 10 -7 10 -15z"/>
<path fill="#ffffff" stroke="none" d="M3230 3385 c0 -8 -4 -15 -10 -15 -5 0
-10 7 -10 15 0 8 5 15 10 15 6 0 10 -7 10 -15z"/>
<path fill="#ffffff" stroke="none" d="M2250 3355 c0 -10 -11 -15 -35 -15 -24
0 -35 5 -35 15 0 10 11 15 35 15 24 0 35 -5 35 -15z"/>
<path fill="#ffffff" stroke="none" d="M2570 3355 c0 -9 -9 -15 -25 -15 -16 0
-25 6 -25 15 0 9 9 15 25 15 16 0 25 -6 25 -15z"/>
<path fill="#ffffff" stroke="none" d="M3200 3355 c0 -11 -11 -15 -40 -15 -29
0 -40 4 -40 15 0 11 11 15 40 15 29 0 40 -4 40 -15z"/>
<path fill="#ffffff" stroke="none" d="M3370 3355 c0 -9 -9 -15 -25 -15 -16 0
-25 6 -25 15 0 9 9 15 25 15 16 0 25 -6 25 -15z"/>
<path fill="#ffffff" stroke="none" d="M3540 3355 c0 -9 -9 -15 -25 -15 -16 0
-25 6 -25 15 0 9 9 15 25 15 16 0 25 -6 25 -15z"/>
<path fill="#ffffff" stroke="none" d="M2350 2555 c10 -12 6 -20 -19 -46 -49
-48 -83 -20 -41 34 24 30 42 34 60 12z"/>
<path fill="#ffffff" stroke="none" d="M1768 2490 l33 -40 -33 0 c-36 0 -79
19 -85 36 -5 14 23 44 40 44 7 0 27 -18 45 -40z"/>
<path fill="#ffffff" stroke="none" d="M2107 2208 c-3 -7 -5 -2 -5 12 0 14 2
19 5 13 2 -7 2 -19 0 -25z"/>
<path fill="#ffffff" stroke="none" d="M2338 2189 c-3 -8 -7 -3 -11 10 -4 17
-3 21 5 13 5 -5 8 -16 6 -23z"/>
<path fill="#ffffff" stroke="none" d="M2235 2081 c3 -5 1 -12 -5 -16 -5 -3
-10 1 -10 9 0 18 6 21 15 7z"/>
<path fill="#ffffff" stroke="none" d="M2194 1715 c3 -9 -1 -18 -10 -22 -19
-7 -28 2 -21 22 8 19 23 19 31 0z"/>
<path fill="#ffffff" stroke="none" d="M3356 1718 c4 -7 2 -8 -4 -4 -7 4 -12
4 -12 -1 0 -4 -21 -7 -48 -6 -70 3 -82 6 -77 14 8 11 134 9 141 -3z"/>
<path fill="#ffffff" stroke="none" d="M3515 1411 l20 -8 -20 -6 c-11 -3 -45
-8 -75 -12 -30 -3 -68 -9 -85 -12 -49 -9 -15 17 42 33 55 15 89 16 118 5z"/>
<path fill="#ffffff" stroke="none" d="M1738 1290 c-12 -35 -24 -58 -26 -51
-4 12 38 125 44 118 2 -2 -6 -32 -18 -67z"/>
<path fill="#ffffff" stroke="none" d="M1986 1165 c7 -27 -35 -101 -81 -145
-22 -21 -28 -22 -35 -10 -14 22 -12 51 6 71 8 9 18 32 20 51 6 37 27 58 61 58
16 0 24 -7 29 -25z"/>
<path fill="#ffffff" stroke="none" d="M2200 1129 c0 -8 5 -8 15 1 32 26 88
-41 71 -85 -3 -8 0 -15 6 -15 9 0 8 -4 -1 -12 -10 -11 -19 -5 -45 26 -44 51
-70 96 -57 96 6 0 11 -5 11 -11z"/>
<path fill="#ffffff" stroke="none" d="M785 1070 c10 -11 16 -22 14 -25 -7 -6
-49 24 -49 36 0 15 16 10 35 -11z"/>
<path fill="#ffffff" stroke="none" d="M2173 1060 c10 -16 15 -30 10 -30 -4 0
-16 14 -25 30 -9 17 -14 30 -10 30 4 0 16 -13 25 -30z"/>
<path fill="#ffffff" stroke="none" d="M2010 1073 c0 -15 -41 -75 -47 -70 -3
3 5 22 17 41 21 35 30 43 30 29z"/>
<path fill="#000000" stroke="none" d="M1965 1160 c-3 -5 -1 -10 4 -10 6 0 11
5 11 10 0 6 -2 10 -4 10 -3 0 -8 -4 -11 -10z"/>
</g>
</svg>
