<?xml version="1.0" standalone="no"?>
<!DOCTYPE svg PUBLIC "-//W3C//DTD SVG 20010904//EN"
 "http://www.w3.org/TR/2001/REC-SVG-20010904/DTD/svg10.dtd">
<svg version="1.0" xmlns="http://www.w3.org/2000/svg"
 width="416.000000pt" height="416.000000pt" viewBox="0 0 416.000000 416.000000"
 preserveAspectRatio="xMidYMid meet">
<metadata>
Created by potrace 1.16, written by Peter Selinger 2001-2019
</metadata>
<g transform="translate(0.000000,416.000000) scale(0.100000,-0.100000)"
fill="#000000" stroke="none">
<path fill="#000000" stroke="none" d="M0 2080 l0 -2080 2080 0 2080 0 0 2080
0 2080 -2080 0 -2080 0 0 -2080z"/>
<path fill="#ffffff" stroke="none" d="M400 3790 c0 -17 -7 -20 -45 -20 l-45
0 0 -65 0 -65 45 0 c38 0 45 -3 45 -20 0 -18 -7 -20 -60 -20 l-60 0 0 105 0
105 60 0 c53 0 60 -2 60 -20z"/>
<path fill="#ffffff" stroke="none" d="M570 3730 c0 -64 -3 -80 -15 -80 -12 0
-15 16 -15 80 0 64 3 80 15 80 12 0 15 -16 15 -80z"/>
<path fill="#ffffff" stroke="none" d="M700 3730 c0 -64 -3 -80 -15 -80 -12 0
-15 16 -15 80 0 64 3 80 15 80 12 0 15 -16 15 -80z"/>
<path fill="#ffffff" stroke="none" d="M830 3790 c0 -13 7 -20 20 -20 13 0 20
-7 20 -20 0 -13 -7 -20 -20 -20 -18 0 -20 -7 -20 -65 0 -51 -3 -65 -15 -65
-12 0 -15 18 -15 105 0 87 3 105 15 105 8 0 15 -9 15 -20z"/>
<path fill="#ffffff" stroke="none" d="M1000 3705 c0 -87 -3 -105 -15 -105 -8
0 -15 9 -15 20 0 13 -7 20 -20 20 -13 0 -20 7 -20 20 0 13 7 20 20 20 18 0 20
7 20 65 0 51 3 65 15 65 12 0 15 -18 15 -105z"/>
<path fill="#ffffff" stroke="none" d="M1260 3790 c0 -18 -7 -20 -60 -20 -53
0 -60 2 -60 20 0 18 7 20 60 20 53 0 60 -2 60 -20z"/>
<path fill="#ffffff" stroke="none" d="M1480 3790 c0 -17 -7 -20 -45 -20 -41
0 -45 -2 -45 -25 0 -23 4 -25 45 -25 38 0 45 -3 45 -20 0 -17 -7 -20 -45 -20
-38 0 -45 -3 -45 -20 0 -17 7 -20 45 -20 38 0 45 -3 45 -20 0 -18 -7 -20 -60
-20 l-60 0 0 105 0 105 60 0 c53 0 60 -2 60 -20z"/>
<path fill="#ffffff" stroke="none" d="M1690 3790 c0 -17 -7 -20 -40 -20 -33
0 -40 3 -40 20 0 17 7 20 40 20 33 0 40 -3 40 -20z"/>
<path fill="#ffffff" stroke="none" d="M1860 3790 c0 -13 7 -20 20 -20 13 0
20 -7 20 -20 0 -13 -7 -20 -20 -20 -18 0 -20 -7 -20 -65 0 -51 -3 -65 -15 -65
-12 0 -15 18 -15 105 0 87 3 105 15 105 8 0 15 -9 15 -20z"/>
<path fill="#ffffff" stroke="none" d="M2030 3705 c0 -87 -3 -105 -15 -105 -8
0 -15 9 -15 20 0 13 -7 20 -20 20 -13 0 -20 7 -20 20 0 13 7 20 20 20 18 0 20
7 20 65 0 51 3 65 15 65 12 0 15 -18 15 -105z"/>
<path fill="#ffffff" stroke="none" d="M2420 3790 c0 -17 -7 -20 -40 -20 -33
0 -40 3 -40 20 0 17 7 20 40 20 33 0 40 -3 40 -20z"/>
<path fill="#ffffff" stroke="none" d="M2680 3790 c0 -17 -7 -20 -45 -20 -38
0 -45 -3 -45 -20 0 -17 7 -20 45 -20 38 0 45 -3 45 -20 0 -17 -7 -20 -45 -20
l-45 0 0 -45 c0 -33 -4 -45 -15 -45 -12 0 -15 18 -15 105 l0 105 60 0 c53 0
60 -2 60 -20z"/>
<path fill="#ffffff" stroke="none" d="M2930 3790 c0 -17 -7 -20 -40 -20 -33
0 -40 3 -40 20 0 17 7 20 40 20 33 0 40 -3 40 -20z"/>
<path fill="#ffffff" stroke="none" d="M3100 3730 c0 -64 -3 -80 -15 -80 -12
0 -15 16 -15 80 0 64 3 80 15 80 12 0 15 -16 15 -80z"/>
<path fill="#ffffff" stroke="none" d="M3270 3730 c0 -64 -3 -80 -15 -80 -12
0 -15 16 -15 80 0 64 3 80 15 80 12 0 15 -16 15 -80z"/>
<path fill="#ffffff" stroke="none" d="M3400 3725 l0 -85 45 0 c38 0 45 -3 45
-20 0 -18 -7 -20 -60 -20 l-60 0 0 105 c0 87 3 105 15 105 12 0 15 -16 15 -85z"/>
<path fill="#ffffff" stroke="none" d="M440 3710 c0 -47 -3 -60 -15 -60 -12 0
-15 13 -15 60 0 47 3 60 15 60 12 0 15 -13 15 -60z"/>
<path fill="#ffffff" stroke="none" d="M1600 3710 c0 -47 -3 -60 -15 -60 -12
0 -15 13 -15 60 0 47 3 60 15 60 12 0 15 -13 15 -60z"/>
<path fill="#ffffff" stroke="none" d="M1730 3710 c0 -47 -3 -60 -15 -60 -12
0 -15 13 -15 60 0 47 3 60 15 60 12 0 15 -13 15 -60z"/>
<path fill="#ffffff" stroke="none" d="M2330 3705 c0 -51 -3 -65 -15 -65 -12
0 -15 14 -15 65 0 51 3 65 15 65 12 0 15 -14 15 -65z"/>
<path fill="#ffffff" stroke="none" d="M2460 3750 c0 -11 -7 -20 -15 -20 -8 0
-15 9 -15 20 0 11 7 20 15 20 8 0 15 -9 15 -20z"/>
<path fill="#ffffff" stroke="none" d="M2720 3750 c0 -11 -7 -20 -15 -20 -8 0
-15 9 -15 20 0 11 7 20 15 20 8 0 15 -9 15 -20z"/>
<path fill="#ffffff" stroke="none" d="M2840 3745 c0 -23 3 -25 50 -25 47 0
50 2 50 25 0 16 6 25 15 25 12 0 15 -16 15 -85 0 -69 -3 -85 -15 -85 -11 0
-15 11 -15 40 l0 40 -50 0 -50 0 0 -40 c0 -29 -4 -40 -15 -40 -12 0 -15 16
-15 85 0 69 3 85 15 85 9 0 15 -9 15 -25z"/>
<path fill="#ffffff" stroke="none" d="M3190 3710 c0 -53 -2 -60 -20 -60 -18
0 -20 7 -20 60 0 53 2 60 20 60 18 0 20 -7 20 -60z"/>
<path fill="#ffffff" stroke="none" d="M1130 3700 c0 -47 -3 -60 -15 -60 -12
0 -15 13 -15 60 0 47 3 60 15 60 12 0 15 -13 15 -60z"/>
<path fill="#ffffff" stroke="none" d="M920 3710 c0 -13 -7 -20 -20 -20 -13 0
-20 7 -20 20 0 13 7 20 20 20 13 0 20 -7 20 -20z"/>
<path fill="#ffffff" stroke="none" d="M1950 3710 c0 -13 -7 -20 -20 -20 -13
0 -20 7 -20 20 0 13 7 20 20 20 13 0 20 -7 20 -20z"/>
<path fill="#ffffff" stroke="none" d="M1260 3680 c0 -29 -4 -40 -15 -40 -8 0
-15 9 -15 20 0 15 -7 20 -25 20 -18 0 -25 5 -25 20 0 17 7 20 40 20 l40 0 0
-40z"/>
<path fill="#ffffff" stroke="none" d="M2460 3660 c0 -11 -7 -20 -15 -20 -8 0
-15 9 -15 20 0 11 7 20 15 20 8 0 15 -9 15 -20z"/>
<path fill="#ffffff" stroke="none" d="M2680 3660 c0 -13 -7 -20 -20 -20 -13
0 -20 7 -20 20 0 13 7 20 20 20 13 0 20 -7 20 -20z"/>
<path fill="#ffffff" stroke="none" d="M660 3620 c0 -17 -7 -20 -40 -20 -33 0
-40 3 -40 20 0 17 7 20 40 20 33 0 40 -3 40 -20z"/>
<path fill="#ffffff" stroke="none" d="M1220 3620 c0 -17 -7 -20 -40 -20 -33
0 -40 3 -40 20 0 17 7 20 40 20 33 0 40 -3 40 -20z"/>
<path fill="#ffffff" stroke="none" d="M1690 3620 c0 -17 -7 -20 -40 -20 -33
0 -40 3 -40 20 0 17 7 20 40 20 33 0 40 -3 40 -20z"/>
<path fill="#ffffff" stroke="none" d="M2420 3620 c0 -17 -7 -20 -40 -20 -33
0 -40 3 -40 20 0 17 7 20 40 20 33 0 40 -3 40 -20z"/>
<path fill="#ffffff" stroke="none" d="M2720 3620 c0 -11 -7 -20 -15 -20 -8 0
-15 9 -15 20 0 11 7 20 15 20 8 0 15 -9 15 -20z"/>
<path fill="#ffffff" stroke="none" d="M3140 3620 c0 -11 -7 -20 -15 -20 -8 0
-15 9 -15 20 0 11 7 20 15 20 8 0 15 -9 15 -20z"/>
<path fill="#ffffff" stroke="none" d="M3230 3620 c0 -11 -7 -20 -15 -20 -8 0
-15 9 -15 20 0 11 7 20 15 20 8 0 15 -9 15 -20z"/>
<path fill="#ffffff" stroke="none" d="M2280 3465 c0 -10 -11 -15 -35 -15 -24
0 -35 5 -35 15 0 10 11 15 35 15 24 0 35 -5 35 -15z"/>
<path fill="#ffffff" stroke="none" d="M2430 3465 c0 -8 -7 -15 -15 -15 -12 0
-15 -13 -15 -55 0 -30 -4 -55 -10 -55 -5 0 -10 25 -10 55 0 42 -3 55 -15 55
-8 0 -15 7 -15 15 0 11 11 15 40 15 29 0 40 -4 40 -15z"/>
<path fill="#ffffff" stroke="none" d="M2570 3465 c0 -9 -9 -15 -25 -15 -16 0
-25 6 -25 15 0 9 9 15 25 15 16 0 25 -6 25 -15z"/>
<path fill="#ffffff" stroke="none" d="M2680 3465 c0 -8 7 -15 15 -15 8 0 15
-7 15 -15 0 -8 -7 -15 -15 -15 -11 0 -15 -11 -15 -40 0 -22 -4 -40 -10 -40 -6
0 -10 30 -10 70 0 40 4 70 10 70 6 0 10 -7 10 -15z"/>
<path fill="#ffffff" stroke="none" d="M2800 3410 c0 -40 -4 -70 -10 -70 -5 0
-10 7 -10 15 0 8 -7 15 -15 15 -8 0 -15 7 -15 15 0 8 7 15 15 15 11 0 15 11
15 40 0 22 5 40 10 40 6 0 10 -30 10 -70z"/>
<path fill="#ffffff" stroke="none" d="M2940 3465 c0 -10 -10 -15 -30 -15 -20
0 -30 -5 -30 -15 0 -10 10 -15 30 -15 20 0 30 -5 30 -15 0 -10 -10 -15 -30
-15 -16 0 -30 -4 -30 -10 0 -5 14 -10 30 -10 20 0 30 -5 30 -15 0 -11 -11 -15
-40 -15 l-40 0 0 70 0 70 40 0 c29 0 40 -4 40 -15z"/>
<path fill="#ffffff" stroke="none" d="M3230 3465 c0 -11 -11 -15 -40 -15 -29
0 -40 4 -40 15 0 11 11 15 40 15 29 0 40 -4 40 -15z"/>
<path fill="#ffffff" stroke="none" d="M3370 3465 c0 -9 -9 -15 -25 -15 -16 0
-25 6 -25 15 0 9 9 15 25 15 16 0 25 -6 25 -15z"/>
<path fill="#ffffff" stroke="none" d="M3480 3425 c0 -30 -4 -55 -10 -55 -5 0
-10 25 -10 55 0 30 5 55 10 55 6 0 10 -25 10 -55z"/>
<path fill="#ffffff" stroke="none" d="M3570 3425 c0 -30 -4 -55 -10 -55 -5 0
-10 25 -10 55 0 30 5 55 10 55 6 0 10 -25 10 -55z"/>
<path fill="#ffffff" stroke="none" d="M3721 3459 c11 -11 17 -24 13 -27 -3
-4 -9 -1 -11 6 -7 18 -63 16 -63 -3 0 -9 9 -15 25 -15 14 0 25 -4 25 -10 0 -5
-11 -10 -25 -10 -21 0 -25 -5 -25 -30 0 -16 -4 -30 -10 -30 -6 0 -10 30 -10
70 l0 70 30 0 c17 0 39 -9 51 -21z"/>
<path fill="#ffffff" stroke="none" d="M2200 3435 c0 -8 -4 -15 -10 -15 -5 0
-10 7 -10 15 0 8 5 15 10 15 6 0 10 -7 10 -15z"/>
<path fill="#ffffff" stroke="none" d="M2510 3410 c0 -22 -4 -40 -10 -40 -5 0
-10 18 -10 40 0 22 5 40 10 40 6 0 10 -18 10 -40z"/>
<path fill="#ffffff" stroke="none" d="M2600 3410 c0 -22 -4 -40 -10 -40 -5 0
-10 18 -10 40 0 22 5 40 10 40 6 0 10 -18 10 -40z"/>
<path fill="#ffffff" stroke="none" d="M3140 3435 c0 -8 -4 -15 -10 -15 -5 0
-10 7 -10 15 0 8 5 15 10 15 6 0 10 -7 10 -15z"/>
<path fill="#ffffff" stroke="none" d="M3310 3410 c0 -22 -4 -40 -10 -40 -5 0
-10 18 -10 40 0 22 5 40 10 40 6 0 10 -18 10 -40z"/>
<path fill="#ffffff" stroke="none" d="M3400 3410 c0 -22 -4 -40 -10 -40 -5 0
-10 18 -10 40 0 22 5 40 10 40 6 0 10 -18 10 -40z"/>
<path fill="#ffffff" stroke="none" d="M2250 3410 c0 -5 -9 -10 -20 -10 -11 0
-20 5 -20 10 0 6 9 10 20 10 11 0 20 -4 20 -10z"/>
<path fill="#ffffff" stroke="none" d="M2740 3410 c0 -5 -4 -10 -10 -10 -5 0
-10 5 -10 10 0 6 5 10 10 10 6 0 10 -4 10 -10z"/>
<path fill="#ffffff" stroke="none" d="M3200 3410 c0 -5 -11 -10 -25 -10 -14
0 -25 5 -25 10 0 6 11 10 25 10 14 0 25 -4 25 -10z"/>
<path fill="#ffffff" stroke="none" d="M2280 3385 c0 -8 -4 -15 -10 -15 -5 0
-10 7 -10 15 0 8 5 15 10 15 6 0 10 -7 10 -15z"/>
<path fill="#ffffff" stroke="none" d="M3230 3385 c0 -8 -4 -15 -10 -15 -5 0
-10 7 -10 15 0 8 5 15 10 15 6 0 10 -7 10 -15z"/>
<path fill="#ffffff" stroke="none" d="M2250 3355 c0 -10 -11 -15 -35 -15 -24
0 -35 5 -35 15 0 10 11 15 35 15 24 0 35 -5 35 -15z"/>
<path fill="#ffffff" stroke="none" d="M2570 3355 c0 -9 -9 -15 -25 -15 -16 0
-25 6 -25 15 0 9 9 15 25 15 16 0 25 -6 25 -15z"/>
<path fill="#ffffff" stroke="none" d="M3200 3355 c0 -11 -11 -15 -40 -15 -29
0 -40 4 -40 15 0 11 11 15 40 15 29 0 40 -4 40 -15z"/>
<path fill="#ffffff" stroke="none" d="M3370 3355 c0 -9 -9 -15 -25 -15 -16 0
-25 6 -25 15 0 9 9 15 25 15 16 0 25 -6 25 -15z"/>
<path fill="#ffffff" stroke="none" d="M3540 3355 c0 -9 -9 -15 -25 -15 -16 0
-25 6 -25 15 0 9 9 15 25 15 16 0 25 -6 25 -15z"/>
<path fill="#ffffff" stroke="none" d="M1805 2880 c10 -11 16 -23 12 -26 -7
-7 -57 25 -57 37 0 16 26 9 45 -11z"/>
<path fill="#ffffff" stroke="none" d="M2468 2827 c3 -12 -3 -17 -22 -17 -25
0 -35 18 -19 34 12 12 38 2 41 -17z"/>
<path fill="#ffffff" stroke="none" d="M2480 2769 c0 -23 -28 -26 -37 -3 -6
16 15 37 29 28 4 -3 8 -14 8 -25z"/>
<path fill="#ffffff" stroke="none" d="M2510 2785 c0 -8 -2 -15 -4 -15 -2 0
-6 7 -10 15 -3 8 -1 15 4 15 6 0 10 -7 10 -15z"/>
<path fill="#ffffff" stroke="none" d="M2604 2729 c-10 -16 -34 4 -34 29 l0
25 20 -23 c11 -12 17 -26 14 -31z"/>
<path fill="#ffffff" stroke="none" d="M1230 2742 c8 2 16 -5 18 -14 2 -10 -2
-18 -10 -18 -16 0 -49 36 -40 44 3 4 9 1 12 -4 4 -6 13 -10 20 -8z"/>
<path fill="#ffffff" stroke="none" d="M1180 2740 c0 -5 -4 -10 -10 -10 -5 0
-10 5 -10 10 0 6 5 10 10 10 6 0 10 -4 10 -10z"/>
<path fill="#ffffff" stroke="none" d="M1393 2711 c4 -1 7 -8 7 -15 0 -12 -6
-13 -30 -4 -40 13 -47 28 -13 23 16 -2 31 -4 36 -4z"/>
<path fill="#ffffff" stroke="none" d="M2633 2705 c8 -18 -11 -31 -25 -17 -11
11 -3 32 12 32 4 0 10 -7 13 -15z"/>
<path fill="#ffffff" stroke="none" d="M1324 2694 c18 -46 -12 -54 -32 -8 -10
21 -9 24 7 24 10 0 22 -7 25 -16z"/>
<path fill="#ffffff" stroke="none" d="M2611 2670 c10 0 19 -5 19 -11 0 -5 -4
-7 -10 -4 -5 3 -10 0 -10 -7 -1 -8 -6 -6 -15 6 -8 11 -15 25 -14 30 0 6 3 5 6
-1 2 -7 13 -13 24 -13z"/>
<path fill="#ffffff" stroke="none" d="M2510 2665 c0 -8 -7 -15 -15 -15 -8 0
-15 7 -15 15 0 8 7 15 15 15 8 0 15 -7 15 -15z"/>
<path fill="#ffffff" stroke="none" d="M1240 2640 c-8 -15 -19 -20 -41 -18
-38 3 -48 16 -17 22 13 3 32 7 43 9 11 3 21 5 23 6 1 0 -2 -8 -8 -19z"/>
<path fill="#ffffff" stroke="none" d="M2610 2612 c-8 -3 -18 -10 -22 -16 -5
-6 -8 -2 -8 11 0 17 4 20 22 15 16 -4 18 -7 8 -10z"/>
<path fill="#ffffff" stroke="none" d="M1213 2558 c-14 -24 -34 -50 -43 -58
-9 -8 -19 -23 -23 -32 -3 -10 -15 -18 -24 -18 -10 0 -29 -7 -41 -16 -21 -14
-22 -14 -22 9 0 16 9 28 28 38 36 19 42 29 35 59 -6 24 -6 24 11 7 19 -19 37
-18 44 1 2 7 -2 10 -12 6 -11 -4 -16 0 -16 14 0 24 12 30 58 31 l32 1 -27 -42z"/>
<path fill="#ffffff" stroke="none" d="M1063 2565 c1 -5 -6 -11 -15 -13 -11
-2 -18 3 -18 13 0 17 30 18 33 0z"/>
<path fill="#ffffff" stroke="none" d="M2480 2565 c11 -13 11 -18 0 -28 -10
-9 -11 -9 -6 1 4 6 3 12 -3 12 -5 0 -14 -7 -19 -16 -5 -8 -24 -18 -43 -21 -19
-2 -39 -9 -44 -13 -6 -5 -29 -15 -53 -23 -33 -12 -42 -12 -42 -2 0 14 22 25
48 25 9 0 44 18 77 40 68 45 68 45 85 25z"/>
<path fill="#ffffff" stroke="none" d="M1280 2550 c0 -5 9 -10 21 -10 26 0 61
-19 54 -29 -2 -5 9 -11 25 -15 17 -3 30 -12 30 -20 0 -8 6 -17 13 -19 6 -3 -3
-6 -21 -6 -36 -1 -71 14 -88 37 -13 17 -71 25 -80 11 -7 -12 -24 -11 -24 2 0
5 4 8 10 4 5 -3 16 8 25 25 15 29 35 41 35 20z"/>
<path fill="#ffffff" stroke="none" d="M2630 2545 c7 -9 8 -15 2 -15 -5 0 -12
7 -16 15 -3 8 -4 15 -2 15 2 0 9 -7 16 -15z"/>
<path fill="#ffffff" stroke="none" d="M2757 2468 c-3 -8 -6 -5 -6 6 -1 11 2
17 5 13 3 -3 4 -12 1 -19z"/>
<path fill="#ffffff" stroke="none" d="M2698 2462 c2 -7 -2 -10 -12 -6 -9 3
-16 11 -16 16 0 13 23 5 28 -10z"/>
<path fill="#ffffff" stroke="none" d="M1015 2421 c11 -14 14 -21 8 -17 -7 4
-13 3 -13 -3 0 -5 6 -11 13 -14 6 -2 9 -8 5 -12 -11 -11 -28 4 -28 26 0 11 -7
19 -16 19 -14 0 -14 3 -4 15 7 9 13 14 14 13 1 -2 10 -14 21 -27z"/>
<path fill="#ffffff" stroke="none" d="M2797 2394 c-9 -9 -28 6 -21 18 4 6 10
6 17 -1 6 -6 8 -13 4 -17z"/>
<path fill="#ffffff" stroke="none" d="M986 2378 c-1 -27 -26 -37 -26 -10 0
10 3 22 7 25 12 13 20 7 19 -15z"/>
<path fill="#ffffff" stroke="none" d="M2133 2051 c8 -6 16 -8 19 -5 3 3 23
-3 44 -12 33 -15 64 -18 191 -16 83 1 172 6 197 12 72 16 324 11 341 -7 50
-49 -87 -97 -324 -114 -75 -5 -206 -14 -291 -20 -350 -25 -1117 24 -1202 77
-16 10 5 30 35 34 43 6 166 5 368 -4 114 -5 180 -4 209 4 23 6 75 15 116 20
41 4 83 15 92 23 9 8 26 17 37 20 32 9 154 1 168 -12z"/>
<path fill="#ffffff" stroke="none" d="M917 1018 c-3 -8 -6 -5 -6 6 -1 11 2
17 5 13 3 -3 4 -12 1 -19z"/>
<path fill="#ffffff" stroke="none" d="M3070 985 c0 -19 -4 -35 -10 -35 -11 0
-13 30 -4 54 10 25 14 19 14 -19z"/>
</g>
</svg>
