<?xml version="1.0" standalone="no"?>
<!DOCTYPE svg PUBLIC "-//W3C//DTD SVG 20010904//EN"
 "http://www.w3.org/TR/2001/REC-SVG-20010904/DTD/svg10.dtd">
<svg version="1.0" xmlns="http://www.w3.org/2000/svg"
 width="32.000000pt" height="32.000000pt" viewBox="0 0 32.000000 32.000000"
 preserveAspectRatio="xMidYMid meet">
<metadata>
Created by potrace 1.16, written by Peter Selinger 2001-2019
</metadata>
<g transform="translate(0.000000,32.000000) scale(0.100000,-0.100000)"
fill="#000000" stroke="none">
<path fill="#000000" stroke="none" d="M38 264 c-8 -18 -9 -30 -1 -42 11 -19
51 -28 64 -15 4 4 35 6 68 5 44 -3 61 -8 61 -18 0 -8 4 -14 9 -14 5 0 17 -30
27 -67 10 -36 19 -62 21 -56 2 5 -7 43 -20 84 l-23 74 -62 3 c-57 3 -62 5 -62
25 0 50 -62 66 -82 21z"/>
<path fill="#000000" stroke="none" d="M60 166 c-15 -40 -32 -108 -27 -112 2
-2 12 24 21 58 10 35 23 66 29 70 9 6 9 8 -1 8 -7 0 -17 -11 -22 -24z"/>
<path fill="#000000" stroke="none" d="M150 144 c0 -14 4 -23 10 -19 6 3 10
15 10 26 0 10 -4 19 -10 19 -5 0 -10 -12 -10 -26z"/>
<path fill="#000000" stroke="none" d="M139 83 c-13 -16 -12 -17 4 -4 9 7 17
15 17 17 0 8 -8 3 -21 -13z"/>
<path fill="#000000" stroke="none" d="M115 51 c-6 -5 -28 -11 -50 -14 -22 -2
21 -3 95 -3 85 0 103 1 47 3 -53 2 -85 8 -82 13 8 13 2 13 -10 1z"/>
</g>
</svg>
