<?xml version="1.0" standalone="no"?>
<!DOCTYPE svg PUBLIC "-//W3C//DTD SVG 20010904//EN"
 "http://www.w3.org/TR/2001/REC-SVG-20010904/DTD/svg10.dtd">
<svg version="1.0" xmlns="http://www.w3.org/2000/svg"
 width="32.000000pt" height="32.000000pt" viewBox="0 0 32.000000 32.000000"
 preserveAspectRatio="xMidYMid meet">
<metadata>
Created by potrace 1.16, written by Peter Selinger 2001-2019
</metadata>
<g transform="translate(0.000000,32.000000) scale(0.100000,-0.100000)"
fill="#000000" stroke="none">
<path fill="#000000" stroke="none" d="M115 308 c-10 -6 -34 -25 -52 -41 -30
-28 -33 -35 -33 -89 0 -51 2 -58 20 -58 11 0 20 -4 20 -10 0 -5 -7 -7 -15 -4
-26 10 -31 -27 -7 -47 23 -18 29 -39 12 -39 -5 0 -10 -4 -10 -9 0 -6 53 -10
123 -10 l123 0 2 46 c1 35 -1 44 -12 40 -8 -3 -17 2 -21 11 -3 9 -1 18 4 20
14 5 14 39 -1 117 -10 59 -13 63 -42 69 -17 3 -44 8 -61 11 -16 3 -39 0 -50
-7z"/>
</g>
</svg>
