<?xml version="1.0" standalone="no"?>
<!DOCTYPE svg PUBLIC "-//W3C//DTD SVG 20010904//EN"
 "http://www.w3.org/TR/2001/REC-SVG-20010904/DTD/svg10.dtd">
<svg version="1.0" xmlns="http://www.w3.org/2000/svg"
 width="32.000000pt" height="32.000000pt" viewBox="0 0 32.000000 32.000000"
 preserveAspectRatio="xMidYMid meet">
<metadata>
Created by potrace 1.16, written by Peter Selinger 2001-2019
</metadata>
<g transform="translate(0.000000,32.000000) scale(0.100000,-0.100000)"
fill="#000000" stroke="none">
<path fill="#000000" stroke="none" d="M0 161 c0 -156 1 -161 21 -161 20 0 49
21 49 37 0 4 -9 14 -20 21 -22 13 -26 37 -9 48 6 3 16 1 22 -6 9 -10 8 -12 -4
-7 -9 3 -16 0 -16 -9 0 -22 41 8 44 32 3 18 2 18 -5 0 -8 -19 -9 -18 -15 5 -6
19 -9 21 -16 9 -6 -8 -13 -11 -18 -7 -4 5 -1 12 6 16 9 6 10 11 2 15 -6 4 -11
25 -11 46 0 34 6 43 44 74 56 47 69 47 18 0 -44 -39 -63 -94 -41 -120 15 -18
83 -19 76 -1 -3 8 3 14 14 14 13 1 17 -2 12 -10 -4 -8 -1 -7 10 1 12 10 20 11
34 2 15 -9 14 -10 -7 -4 -22 6 -23 5 -11 -10 15 -18 76 -22 86 -6 4 6 1 18 -7
27 -9 12 -9 15 0 9 17 -10 15 9 -3 24 -8 7 -12 16 -9 21 12 19 -9 48 -49 70
-29 15 -66 23 -119 27 l-78 5 0 -162z"/>
<path fill="#ffffff" stroke="none" d="M152 288 c-21 -21 -13 -32 11 -12 22
19 22 19 4 -2 -17 -21 -51 -29 -40 -10 11 19 25 36 31 36 3 0 1 -5 -6 -12z"/>
<path fill="#ffffff" stroke="none" d="M222 226 c7 4 8 2 4 -5 -9 -13 -26 -5
-25 12 0 9 2 8 6 -1 2 -6 10 -9 15 -6z"/>
<path fill="#ffffff" stroke="none" d="M95 209 c11 -16 1 -19 -13 -3 -7 8 -8
14 -3 14 5 0 13 -5 16 -11z"/>
<path fill="#ffffff" stroke="none" d="M190 206 c0 -2 -6 -9 -14 -15 -11 -9
-16 -9 -22 0 -4 7 -3 9 4 5 6 -3 13 -2 17 4 6 10 15 14 15 6z"/>
<path fill="#000000" stroke="none" d="M196 305 c10 -8 25 -15 31 -15 22 0 42
-44 49 -104 5 -40 3 -60 -5 -65 -16 -10 -3 -41 15 -34 17 6 19 -13 2 -23 -7
-4 -8 -3 -4 4 4 8 2 10 -8 6 -9 -4 -20 5 -30 23 -8 15 -15 22 -16 14 0 -11 -3
-11 -15 -1 -9 7 -18 10 -21 7 -8 -8 6 -86 16 -92 5 -3 4 11 -1 30 -13 46 -5
70 10 30 16 -44 26 -58 42 -63 9 -3 9 0 -3 9 -9 8 -20 28 -24 44 -6 29 -6 29
9 10 8 -11 13 -24 10 -29 -4 -5 -1 -6 5 -3 13 9 44 -2 37 -13 -7 -11 5 -40 16
-40 5 0 9 72 9 160 l0 160 -72 0 c-65 0 -70 -1 -52 -15z"/>
<path fill="#000000" stroke="none" d="M94 87 c-6 -30 -6 -44 1 -44 5 0 11 20
13 44 1 24 1 43 -1 43 -1 0 -7 -19 -13 -43z"/>
<path fill="#000000" stroke="none" d="M147 100 c4 -19 7 -45 8 -57 0 -25 15
-20 15 5 0 15 2 15 11 2 9 -12 10 -12 5 3 -3 10 -7 31 -7 45 -1 23 -3 22 -9
-8 -6 -28 -8 -30 -9 -10 -1 14 -6 32 -11 40 -7 10 -8 4 -3 -20z"/>
<path fill="#000000" stroke="none" d="M119 93 c-3 -18 -2 -30 3 -27 4 3 8 -3
8 -12 0 -10 2 -15 5 -12 3 3 2 23 -3 44 l-8 39 -5 -32z"/>
</g>
</svg>
