<?xml version="1.0" standalone="no"?>
<!DOCTYPE svg PUBLIC "-//W3C//DTD SVG 20010904//EN"
 "http://www.w3.org/TR/2001/REC-SVG-20010904/DTD/svg10.dtd">
<svg version="1.0" xmlns="http://www.w3.org/2000/svg"
 width="32.000000pt" height="32.000000pt" viewBox="0 0 32.000000 32.000000"
 preserveAspectRatio="xMidYMid meet">
<metadata>
Created by potrace 1.16, written by Peter Selinger 2001-2019
</metadata>
<g transform="translate(0.000000,32.000000) scale(0.100000,-0.100000)"
fill="#000000" stroke="none">
<path fill="#000000" stroke="none" d="M87 265 c-4 -8 -3 -16 1 -19 4 -3 9 4
9 15 2 23 -3 25 -10 4z"/>
<path fill="#000000" stroke="none" d="M175 250 c-3 -5 -13 -6 -22 -3 -10 4
-14 2 -10 -4 4 -6 -2 -18 -13 -28 -19 -17 -19 -17 -15 6 3 16 2 20 -7 11 -7
-7 -19 -7 -35 -1 -16 6 -22 5 -18 -1 3 -6 12 -10 18 -10 7 0 19 -9 27 -19 7
-11 18 -18 22 -15 5 3 15 0 23 -6 9 -7 22 -9 32 -4 10 4 30 8 46 8 25 1 26 0
10 -12 -16 -12 -16 -13 5 -18 12 -4 19 -11 15 -18 -4 -7 -1 -7 7 1 11 10 11
15 0 28 -7 8 -9 15 -5 15 4 0 2 6 -4 13 -6 8 -7 18 -3 22 4 5 1 4 -7 0 -11 -6
-13 -4 -8 8 3 10 3 17 -2 17 -5 0 -11 -10 -15 -22 -5 -19 -8 -20 -15 -8 -6 8
-6 17 -2 20 5 3 3 11 -5 17 -7 8 -15 9 -19 3z"/>
<path fill="#ffffff" stroke="none" d="M235 200 c3 -5 1 -10 -4 -10 -6 0 -11
5 -11 10 0 6 2 10 4 10 3 0 8 -4 11 -10z"/>
<path fill="#000000" stroke="none" d="M20 215 c-7 -9 -8 -15 -2 -15 5 0 12 7
16 15 7 19 2 19 -14 0z"/>
<path fill="#000000" stroke="none" d="M34 178 l-19 -23 23 19 c12 11 25 16
30 12 4 -4 -1 -13 -11 -20 -9 -7 -17 -17 -17 -21 0 -4 6 -2 14 4 8 6 18 11 22
10 20 -3 24 2 14 21 -14 26 -32 25 -56 -2z"/>
<path fill="#000000" stroke="none" d="M34 101 c8 -19 12 -21 14 -8 2 10 19
20 45 25 l42 10 -56 -2 c-56 -1 -56 -1 -45 -25z"/>
<path fill="#000000" stroke="none" d="M230 104 l-25 -15 35 6 c27 4 32 3 22
-7 -6 -6 -31 -14 -54 -18 -42 -5 -42 -6 -20 -19 31 -17 66 -7 79 21 10 23 7
48 -5 48 -4 -1 -18 -8 -32 -16z"/>
<path fill="#000000" stroke="none" d="M70 91 c0 -6 5 -13 12 -17 7 -5 8 -3 3
7 -6 10 -3 9 11 -2 26 -22 52 -30 59 -19 4 6 0 10 -8 10 -8 0 -20 7 -27 15
-14 16 -50 21 -50 6z"/>
</g>
</svg>
