<?xml version="1.0" standalone="no"?>
<!DOCTYPE svg PUBLIC "-//W3C//DTD SVG 20010904//EN"
 "http://www.w3.org/TR/2001/REC-SVG-20010904/DTD/svg10.dtd">
<svg version="1.0" xmlns="http://www.w3.org/2000/svg"
 width="32.000000pt" height="32.000000pt" viewBox="0 0 32.000000 32.000000"
 preserveAspectRatio="xMidYMid meet">
<metadata>
Created by potrace 1.16, written by Peter Selinger 2001-2019
</metadata>
<g transform="translate(0.000000,32.000000) scale(0.100000,-0.100000)"
fill="#000000" stroke="none">
<path fill="#000000" stroke="none" d="M0 160 l0 -160 160 0 160 0 0 160 0
160 -160 0 -160 0 0 -160z"/>
<path fill="#ffffff" stroke="none" d="M173 276 c26 -8 56 -12 67 -9 11 3 21
1 21 -3 5 -31 9 -65 13 -104 3 -25 8 -54 11 -65 8 -31 -7 -45 -66 -60 -73 -20
-108 -19 -146 5 -46 28 -56 52 -44 108 5 25 7 50 5 54 -10 16 8 47 39 67 38
25 41 25 100 7z"/>
<path fill="#000000" stroke="none" d="M93 273 c-7 -2 -13 -11 -13 -19 0 -9
-5 -12 -11 -8 -12 7 -29 -12 -29 -33 0 -8 9 -4 21 8 20 20 22 20 40 3 18 -17
18 -18 -11 -45 -16 -16 -34 -29 -40 -29 -5 0 -12 -11 -16 -25 -16 -64 71 -106
172 -84 62 14 79 29 69 61 -4 12 -9 40 -11 63 -3 22 -5 51 -7 65 -2 18 -8 24
-22 23 -11 -1 -39 5 -63 13 -44 15 -58 16 -79 7z"/>
<path fill="#ffffff" stroke="none" d="M144 249 c-3 -5 -10 -7 -15 -3 -5 3 -7
10 -3 15 3 5 10 7 15 3 5 -3 7 -10 3 -15z"/>
<path fill="#ffffff" stroke="none" d="M214 119 c-3 -5 -10 -7 -15 -3 -5 3 -7
10 -3 15 3 5 10 7 15 3 5 -3 7 -10 3 -15z"/>
<path fill="#ffffff" stroke="none" d="M104 79 c-3 -5 -10 -7 -15 -3 -5 3 -7
10 -3 15 3 5 10 7 15 3 5 -3 7 -10 3 -15z"/>
<path fill="#ffffff" stroke="none" d="M204 69 c-3 -5 -10 -7 -15 -3 -5 3 -7
10 -3 15 3 5 10 7 15 3 5 -3 7 -10 3 -15z"/>
<path fill="#ffffff" stroke="none" d="M264 69 c-3 -5 -10 -7 -15 -3 -5 3 -7
10 -3 15 3 5 10 7 15 3 5 -3 7 -10 3 -15z"/>
<path fill="#000000" stroke="none" d="M40 170 c0 -5 5 -10 10 -10 6 0 10 5
10 10 0 6 -4 10 -10 10 -5 0 -10 -4 -10 -10z"/>
</g>
</svg>
