<?xml version="1.0" standalone="no"?>
<!DOCTYPE svg PUBLIC "-//W3C//DTD SVG 20010904//EN"
 "http://www.w3.org/TR/2001/REC-SVG-20010904/DTD/svg10.dtd">
<svg version="1.0" xmlns="http://www.w3.org/2000/svg"
 width="32.000000pt" height="32.000000pt" viewBox="0 0 32.000000 32.000000"
 preserveAspectRatio="xMidYMid meet">
<metadata>
Created by potrace 1.16, written by Peter Selinger 2001-2019
</metadata>
<g transform="translate(0.000000,32.000000) scale(0.100000,-0.100000)"
fill="#000000" stroke="none">
<path fill="#000000" stroke="none" d="M0 160 l0 -160 160 0 160 0 0 160 0
160 -160 0 -160 0 0 -160z"/>
<path fill="#ffffff" stroke="none" d="M173 276 c26 -8 56 -12 67 -9 11 3 21
1 21 -3 5 -31 9 -65 13 -104 3 -25 8 -54 11 -65 8 -31 -7 -45 -66 -60 -73 -20
-108 -19 -146 5 -46 28 -56 52 -44 108 5 25 7 50 5 54 -10 16 8 47 39 67 38
25 41 25 100 7z"/>
<path fill="#000000" stroke="none" d="M115 227 c10 -14 11 -25 5 -33 -16 -18
0 -46 21 -41 11 3 17 1 13 -4 -9 -15 -32 -10 -43 9 -11 17 -13 13 -15 -25 -1
-13 -5 -22 -11 -21 -5 2 -9 9 -7 18 2 12 1 13 -7 1 -28 -41 33 -95 77 -68 6 5
17 5 23 1 8 -4 8 0 0 15 -7 11 -14 21 -17 21 -3 0 -3 -4 1 -9 3 -5 1 -12 -4
-15 -5 -4 -8 1 -7 11 2 10 14 18 30 20 20 3 26 0 20 -8 -4 -8 -3 -9 4 -5 7 4
12 1 12 -8 0 -8 7 -13 18 -11 9 2 19 4 21 4 2 1 -4 10 -14 21 -9 10 -20 18
-24 17 -3 -1 -6 3 -6 8 0 6 5 9 12 9 6 -1 14 5 17 13 4 9 0 13 -12 11 -18 -3
-25 28 -10 48 5 7 2 16 -6 23 -11 9 -16 9 -22 0 -5 -8 -3 -9 6 -4 9 6 11 4 6
-4 -6 -9 -13 -8 -28 6 -10 9 -30 18 -43 19 -22 1 -23 -1 -10 -19z"/>
<path fill="#ffffff" stroke="none" d="M152 225 c2 3 4 -5 3 -18 -2 -20 -14
-28 -16 -9 -1 4 -6 16 -12 27 -9 17 -8 18 5 8 8 -7 17 -11 20 -8z"/>
<path fill="#ffffff" stroke="none" d="M194 179 c-3 -5 -10 -7 -15 -3 -5 3 -7
10 -3 15 3 5 10 7 15 3 5 -3 7 -10 3 -15z"/>
<path fill="#ffffff" stroke="none" d="M174 119 c-3 -5 -10 -7 -15 -3 -5 3 -7
10 -3 15 3 5 10 7 15 3 5 -3 7 -10 3 -15z"/>
<path fill="#ffffff" stroke="none" d="M231 93 c13 -16 12 -17 -3 -4 -10 7
-18 15 -18 17 0 8 8 3 21 -13z"/>
<path fill="#ffffff" stroke="none" d="M124 91 c-2 -2 1 -9 6 -16 7 -8 5 -12
-5 -12 -8 0 -11 5 -8 10 4 6 0 8 -10 4 -8 -3 -20 0 -26 7 -7 9 -3 12 19 11 15
0 27 -2 24 -4z"/>
<path fill="#000000" stroke="none" d="M216 185 c4 -8 8 -15 10 -15 2 0 4 7 4
15 0 8 -4 15 -10 15 -5 0 -7 -7 -4 -15z"/>
</g>
</svg>
