<?xml version="1.0" standalone="no"?>
<!DOCTYPE svg PUBLIC "-//W3C//DTD SVG 20010904//EN"
 "http://www.w3.org/TR/2001/REC-SVG-20010904/DTD/svg10.dtd">
<svg version="1.0" xmlns="http://www.w3.org/2000/svg"
 width="32.000000pt" height="32.000000pt" viewBox="0 0 32.000000 32.000000"
 preserveAspectRatio="xMidYMid meet">
<metadata>
Created by potrace 1.16, written by Peter Selinger 2001-2019
</metadata>
<g transform="translate(0.000000,32.000000) scale(0.100000,-0.100000)"
fill="#000000" stroke="none">
<path fill="#000000" stroke="none" d="M76 271 c-30 -20 -52 -49 -43 -58 3 -2
8 5 12 16 7 22 20 27 29 12 3 -5 -1 -11 -9 -15 -10 -3 -14 -17 -13 -40 3 -37
17 -37 50 2 15 19 15 21 -3 38 -25 23 -24 39 4 52 12 6 18 11 12 11 -5 1 -23
-8 -39 -18z"/>
<path fill="#000000" stroke="none" d="M220 260 c-9 -6 -10 -10 -3 -10 6 0 15
5 18 10 8 12 4 12 -15 0z"/>
<path fill="#000000" stroke="none" d="M31 154 c0 -11 3 -14 6 -6 3 7 2 16 -1
19 -3 4 -6 -2 -5 -13z"/>
<path fill="#000000" stroke="none" d="M271 154 c0 -11 3 -14 6 -6 3 7 2 16
-1 19 -3 4 -6 -2 -5 -13z"/>
<path fill="#000000" stroke="none" d="M80 35 c14 -8 39 -14 55 -14 29 1 29 1
5 8 -14 4 -38 11 -55 14 l-30 7 25 -15z"/>
</g>
</svg>
