<?xml version="1.0" standalone="no"?>
<!DOCTYPE svg PUBLIC "-//W3C//DTD SVG 20010904//EN"
 "http://www.w3.org/TR/2001/REC-SVG-20010904/DTD/svg10.dtd">
<svg version="1.0" xmlns="http://www.w3.org/2000/svg"
 width="32.000000pt" height="32.000000pt" viewBox="0 0 32.000000 32.000000"
 preserveAspectRatio="xMidYMid meet">
<metadata>
Created by potrace 1.16, written by Peter Selinger 2001-2019
</metadata>
<g transform="translate(0.000000,32.000000) scale(0.100000,-0.100000)"
fill="#000000" stroke="none">
<path fill="#000000" stroke="none" d="M113 291 c-40 -19 -63 -45 -63 -74 0
-8 21 -32 48 -53 26 -21 37 -27 25 -13 -26 28 -27 37 -14 72 l10 25 50 -25
c28 -13 51 -26 51 -28 0 -8 -65 18 -82 33 -10 8 -18 11 -18 5 0 -5 17 -18 38
-29 20 -10 44 -25 54 -32 14 -12 17 -11 23 7 7 24 -19 69 -30 52 -3 -6 -11 -9
-16 -6 -5 4 -3 13 6 21 8 9 19 13 24 10 5 -4 12 0 15 6 3 7 2 0 -1 -16 -7 -36
9 -28 31 14 8 17 11 28 6 25 -4 -3 -21 2 -36 10 -38 20 -70 19 -121 -4z"/>
<path fill="#000000" stroke="none" d="M254 214 c3 -8 2 -24 -4 -33 -12 -24
-1 -34 18 -18 13 10 14 9 3 -10 -6 -13 -8 -23 -3 -23 12 0 37 30 26 30 -5 0
-2 5 6 10 11 7 11 10 2 10 -7 0 -11 4 -8 8 3 5 -4 16 -15 25 -24 21 -33 22
-25 1z"/>
<path fill="#000000" stroke="none" d="M19 137 c6 -6 6 -19 0 -35 -7 -17 -6
-29 1 -36 8 -8 10 -5 5 9 -5 17 -4 16 6 -2 14 -27 68 -41 80 -22 11 18 5 67
-10 82 -7 7 -30 12 -52 13 -24 0 -36 -3 -30 -9z"/>
<path fill="#ffffff" stroke="none" d="M101 73 c8 -10 9 -14 2 -10 -6 4 -15 2
-19 -4 -5 -8 -9 -7 -15 2 -17 28 11 39 32 12z"/>
<path fill="#000000" stroke="none" d="M220 137 c0 -25 -21 -35 -54 -26 -29 8
-30 7 -12 -6 11 -8 26 -15 34 -15 10 0 13 -8 10 -25 -4 -21 -3 -23 9 -13 11 9
16 9 24 -3 7 -12 9 -11 9 2 0 9 6 19 14 22 24 9 16 45 -9 40 -11 -2 -14 -1 -7
3 16 8 15 21 -3 28 -8 3 -15 0 -15 -7z"/>
<path fill="#000000" stroke="none" d="M283 83 c4 -3 0 -15 -10 -25 -18 -20
-11 -23 17 -8 20 10 17 40 -3 40 -6 0 -7 -3 -4 -7z"/>
</g>
</svg>
