<?xml version="1.0" standalone="no"?>
<!DOCTYPE svg PUBLIC "-//W3C//DTD SVG 20010904//EN"
 "http://www.w3.org/TR/2001/REC-SVG-20010904/DTD/svg10.dtd">
<svg version="1.0" xmlns="http://www.w3.org/2000/svg"
 width="32.000000pt" height="32.000000pt" viewBox="0 0 32.000000 32.000000"
 preserveAspectRatio="xMidYMid meet">
<metadata>
Created by potrace 1.16, written by Peter Selinger 2001-2019
</metadata>
<g transform="translate(0.000000,32.000000) scale(0.100000,-0.100000)"
fill="#000000" stroke="none">
<path fill="#000000" stroke="none" d="M123 295 c-24 -10 -33 -11 -33 -2 0 6
-9 -4 -19 -23 -12 -22 -26 -34 -37 -33 -16 1 -17 0 -4 -10 28 -22 55 -88 31
-72 -5 3 -13 0 -16 -6 -4 -5 -14 -8 -24 -4 -12 5 -13 3 -5 -5 9 -9 9 -19 1
-41 -10 -24 -8 -31 8 -44 11 -8 26 -12 32 -10 7 2 13 0 13 -5 0 -17 35 -11 51
8 20 23 16 47 -11 84 -21 29 -21 29 -1 16 12 -7 21 -16 21 -21 0 -4 12 -20 28
-34 15 -15 20 -23 12 -18 -8 4 -12 5 -8 0 4 -4 2 -15 -5 -24 -11 -14 -10 -14
6 -2 23 18 32 8 17 -21 l-12 -23 22 23 c16 17 25 20 30 12 5 -8 16 -3 35 17
22 23 25 24 16 5 -13 -25 -4 -28 24 -8 15 11 17 17 7 28 -6 8 -9 17 -6 21 3 3
-3 3 -14 0 -11 -2 -23 1 -27 9 -5 7 -5 10 0 6 13 -13 42 10 48 38 3 18 -2 33
-14 45 -25 25 -30 61 -10 77 15 12 14 13 -1 8 -10 -3 -30 1 -45 9 -35 18 -69
18 -110 0z"/>
<path fill="#ffffff" stroke="none" d="M201 237 c-10 -9 -11 -8 -5 6 3 10 9
15 12 12 3 -3 0 -11 -7 -18z"/>
<path fill="#ffffff" stroke="none" d="M161 197 c37 -20 44 -28 44 -53 0 -22
-5 -30 -20 -32 -26 -4 -88 69 -79 92 8 20 3 20 55 -7z"/>
<path fill="#ffffff" stroke="none" d="M207 204 c-3 -3 -12 -4 -19 -1 -8 3 -5
6 6 6 11 1 17 -2 13 -5z"/>
<path fill="#000000" stroke="none" d="M170 150 c-12 -8 -11 -10 8 -10 12 0
22 5 22 10 0 13 -11 13 -30 0z"/>
<path fill="#000000" stroke="none" d="M17 43 c-4 -3 -7 -11 -7 -17 0 -6 5 -5
12 2 6 6 9 14 7 17 -3 3 -9 2 -12 -2z"/>
</g>
</svg>
