<?xml version="1.0" standalone="no"?>
<!DOCTYPE svg PUBLIC "-//W3C//DTD SVG 20010904//EN"
 "http://www.w3.org/TR/2001/REC-SVG-20010904/DTD/svg10.dtd">
<svg version="1.0" xmlns="http://www.w3.org/2000/svg"
 width="32.000000pt" height="32.000000pt" viewBox="0 0 32.000000 32.000000"
 preserveAspectRatio="xMidYMid meet">
<metadata>
Created by potrace 1.16, written by Peter Selinger 2001-2019
</metadata>
<g transform="translate(0.000000,32.000000) scale(0.100000,-0.100000)"
fill="#000000" stroke="none">
<path fill="#000000" stroke="none" d="M52 313 c-33 -7 -56 -46 -42 -73 6 -11
8 -25 5 -30 -4 -6 1 -13 9 -16 9 -4 14 -14 12 -27 -3 -12 -5 -25 -5 -29 -1 -4
-7 -5 -15 -2 -11 4 -14 -10 -15 -67 -1 -57 2 -70 11 -61 7 7 20 12 29 12 10 0
21 4 24 10 4 6 -6 7 -25 4 -25 -5 -30 -3 -30 12 0 15 2 16 9 5 5 -8 16 -11 25
-8 18 7 22 27 6 27 -5 0 -10 5 -10 10 0 7 6 7 19 0 32 -17 61 -12 70 12 5 13
10 17 14 11 8 -12 -18 -43 -34 -43 -5 0 -14 -11 -21 -24 -7 -17 -21 -26 -42
-29 -17 -2 2 -5 42 -5 39 -1 72 2 72 7 0 15 33 22 41 9 6 -10 15 -10 45 1 30
11 38 11 45 0 8 -12 11 -11 19 1 12 18 11 160 -1 160 -5 0 -9 6 -9 14 0 17
-66 60 -79 52 -5 -4 -12 -2 -16 3 -3 5 3 14 12 20 16 9 14 10 -9 11 -15 0 -31
7 -36 16 -9 17 -77 27 -120 17z"/>
<path fill="#ffffff" stroke="none" d="M74 285 c-4 -15 -1 -32 7 -41 12 -14
14 -14 26 2 7 10 16 15 19 11 9 -9 -15 -37 -32 -37 -19 0 -18 -39 1 -46 8 -4
15 -10 15 -15 0 -5 -13 0 -29 12 -34 25 -59 95 -40 113 9 8 11 7 6 -6 -3 -10
-2 -20 3 -23 6 -4 10 5 10 18 0 21 7 37 17 37 2 0 1 -11 -3 -25z"/>
<path fill="#ffffff" stroke="none" d="M262 158 c31 -21 42 -49 33 -78 -9 -28
-23 -25 -18 4 3 13 -1 27 -8 31 -9 6 -10 3 -5 -10 7 -18 -18 -55 -37 -55 -6 0
-2 9 7 19 16 18 16 22 3 41 -15 21 -35 11 -22 -10 3 -5 2 -10 -3 -10 -20 0
-21 30 -1 43 16 12 17 16 5 26 -7 6 -21 9 -30 5 -16 -6 -22 6 -10 19 10 10 55
-3 86 -25z"/>
<path fill="#000000" stroke="none" d="M269 297 c5 -5 19 -7 32 -5 20 3 19 5
-9 9 -20 3 -29 2 -23 -4z"/>
<path fill="#000000" stroke="none" d="M0 165 c0 -8 5 -15 10 -15 6 0 10 7 10
15 0 8 -4 15 -10 15 -5 0 -10 -7 -10 -15z"/>
</g>
</svg>
