<?xml version="1.0" standalone="no"?>
<!DOCTYPE svg PUBLIC "-//W3C//DTD SVG 20010904//EN"
 "http://www.w3.org/TR/2001/REC-SVG-20010904/DTD/svg10.dtd">
<svg version="1.0" xmlns="http://www.w3.org/2000/svg"
 width="32.000000pt" height="32.000000pt" viewBox="0 0 32.000000 32.000000"
 preserveAspectRatio="xMidYMid meet">
<metadata>
Created by potrace 1.16, written by Peter Selinger 2001-2019
</metadata>
<g transform="translate(0.000000,32.000000) scale(0.100000,-0.100000)"
fill="#000000" stroke="none">
<path fill="#000000" stroke="none" d="M52 313 c-33 -7 -56 -46 -42 -73 6 -11
8 -25 5 -30 -3 -5 8 -16 25 -25 l31 -16 -13 23 c-7 13 -16 25 -20 28 -22 17
-6 76 23 83 15 4 19 2 15 -9 -3 -8 -1 -27 5 -42 9 -24 12 -25 20 -9 6 9 17 17
24 17 25 0 17 -18 -15 -32 -24 -10 -30 -19 -28 -40 2 -22 5 -25 19 -17 12 6
19 4 22 -5 6 -16 -30 -30 -39 -15 -3 5 -12 9 -20 9 -11 0 -13 -6 -9 -19 3 -11
1 -22 -5 -26 -5 -3 -10 1 -10 10 0 9 -5 13 -10 10 -6 -3 -10 -15 -10 -26 0
-10 -4 -19 -10 -19 -5 0 -10 -10 -10 -22 0 -17 3 -19 9 -9 6 9 11 10 15 2 4
-6 14 -11 22 -11 12 0 12 3 2 20 -10 16 -10 22 4 32 8 7 17 18 19 25 2 7 9 1
16 -13 10 -22 10 -25 -3 -20 -8 3 -14 -1 -14 -9 0 -9 10 -15 25 -15 22 0 29 8
27 31 0 3 8 10 18 17 18 11 18 10 4 -30 -17 -50 -18 -45 6 -51 11 -3 20 -1 20
4 0 5 -6 9 -12 10 -7 0 -1 5 14 10 21 8 26 15 22 34 -3 16 2 28 16 38 18 12
18 16 6 26 -11 9 -20 10 -35 2 -16 -9 -20 -8 -18 7 2 36 88 17 124 -28 18 -22
16 -65 -4 -81 -15 -13 -16 -11 -10 13 4 15 3 30 -3 33 -5 3 -7 0 -4 -8 3 -8
-10 -27 -30 -45 -41 -36 -38 -44 11 -30 26 7 38 7 43 -2 6 -9 11 -7 19 8 13
24 13 152 0 152 -5 0 -9 6 -9 14 0 21 -21 31 -30 15 -5 -7 -6 -17 -4 -21 3 -4
0 -8 -6 -8 -7 0 -9 8 -5 20 8 25 -15 36 -44 21 -17 -9 -22 -8 -31 9 -6 12 -7
20 -1 20 5 0 12 -6 14 -12 4 -10 6 -10 6 0 1 7 -10 24 -24 37 -13 14 -21 25
-17 25 4 0 0 5 -8 10 -15 10 -56 11 -98 3z"/>
<path fill="#ffffff" stroke="none" d="M164 268 c-3 -5 -12 -4 -20 3 -19 16
-18 18 6 12 11 -3 17 -9 14 -15z"/>
<path fill="#ffffff" stroke="none" d="M240 210 c0 -5 -4 -10 -10 -10 -5 0
-10 5 -10 10 0 6 5 10 10 10 6 0 10 -4 10 -10z"/>
<path fill="#ffffff" stroke="none" d="M205 150 c-3 -5 -12 -10 -18 -10 -7 0
-6 4 3 10 19 12 23 12 15 0z"/>
<path fill="#000000" stroke="none" d="M220 130 c-9 -40 -7 -60 5 -60 21 0 24
13 9 40 -7 14 -14 23 -14 20z"/>
<path fill="#000000" stroke="none" d="M88 36 c-6 -14 -20 -27 -32 -29 -11 -2
7 -5 42 -6 35 0 62 3 62 9 0 6 -9 10 -20 10 -13 0 -20 7 -20 20 0 28 -18 25
-32 -4z"/>
<path fill="#000000" stroke="none" d="M190 49 c0 -5 5 -7 10 -4 6 3 10 8 10
11 0 2 -4 4 -10 4 -5 0 -10 -5 -10 -11z"/>
<path fill="#000000" stroke="none" d="M0 18 c0 -12 3 -17 8 -12 4 5 11 12 15
15 5 3 2 9 -7 12 -12 5 -16 0 -16 -15z"/>
<path fill="#000000" stroke="none" d="M50 29 c0 -5 5 -7 10 -4 6 3 10 8 10
11 0 2 -4 4 -10 4 -5 0 -10 -5 -10 -11z"/>
</g>
</svg>
