<?xml version="1.0" standalone="no"?>
<!DOCTYPE svg PUBLIC "-//W3C//DTD SVG 20010904//EN"
 "http://www.w3.org/TR/2001/REC-SVG-20010904/DTD/svg10.dtd">
<svg version="1.0" xmlns="http://www.w3.org/2000/svg"
 width="32.000000pt" height="32.000000pt" viewBox="0 0 32.000000 32.000000"
 preserveAspectRatio="xMidYMid meet">
<metadata>
Created by potrace 1.16, written by Peter Selinger 2001-2019
</metadata>
<g transform="translate(0.000000,32.000000) scale(0.100000,-0.100000)"
fill="#000000" stroke="none">
<path fill="#000000" stroke="none" d="M0 160 l0 -160 160 0 160 0 0 160 0
160 -160 0 -160 0 0 -160z"/>
<path fill="#ffffff" stroke="none" d="M186 245 c12 -30 19 -35 47 -35 48 0
51 -9 16 -46 -30 -31 -31 -32 -14 -64 23 -45 7 -60 -34 -30 -17 12 -28 26 -25
32 9 13 -8 4 -54 -30 -43 -33 -61 -19 -37 28 17 32 16 33 -14 64 -35 37 -32
46 16 46 28 0 35 5 47 35 8 19 20 35 26 35 6 0 18 -16 26 -35z"/>
<path fill="#000000" stroke="none" d="M145 251 c-3 -10 -5 -23 -4 -27 3 -13
-13 -48 -25 -56 -8 -6 -7 -11 2 -17 18 -11 22 -43 8 -61 -10 -13 -9 -13 6 -1
10 7 16 17 13 21 -7 11 24 22 38 13 7 -3 9 -3 5 2 -4 4 2 16 13 26 11 9 20 21
19 26 -1 4 7 10 17 12 16 3 16 1 3 -15 -13 -17 -12 -16 9 1 l23 20 -33 3 c-19
2 -40 9 -48 15 -12 10 -12 9 -2 -10 16 -31 7 -29 -14 3 -9 15 -12 23 -6 20 6
-4 11 0 11 9 0 9 -4 13 -10 10 -6 -3 -7 1 -4 9 3 9 1 16 -4 16 -6 0 -13 -9
-17 -19z"/>
<path fill="#000000" stroke="none" d="M125 211 c-6 -5 -25 -11 -43 -13 l-34
-3 28 -25 c25 -21 26 -22 10 -2 -19 22 -10 32 11 11 7 -7 15 -2 27 15 17 27
17 33 1 17z"/>
<path fill="#000000" stroke="none" d="M97 105 c-10 -21 -16 -40 -13 -42 7 -7
38 56 34 68 -2 6 -11 -6 -21 -26z"/>
<path fill="#000000" stroke="none" d="M204 118 c3 -7 9 -21 12 -30 4 -10 10
-18 15 -18 5 0 3 14 -6 30 -15 28 -33 44 -21 18z"/>
</g>
</svg>
