<?xml version="1.0" standalone="no"?>
<!DOCTYPE svg PUBLIC "-//W3C//DTD SVG 20010904//EN"
 "http://www.w3.org/TR/2001/REC-SVG-20010904/DTD/svg10.dtd">
<svg version="1.0" xmlns="http://www.w3.org/2000/svg"
 width="32.000000pt" height="32.000000pt" viewBox="0 0 32.000000 32.000000"
 preserveAspectRatio="xMidYMid meet">
<metadata>
Created by potrace 1.16, written by Peter Selinger 2001-2019
</metadata>
<g transform="translate(0.000000,32.000000) scale(0.100000,-0.100000)"
fill="#000000" stroke="none">
<path fill="#000000" stroke="none" d="M22 163 l2 -138 3 132 4 132 132 4 132
3 -137 2 -138 2 2 -137z"/>
<path fill="#000000" stroke="none" d="M153 266 c-13 -7 -32 -21 -44 -32 l-21
-18 28 -8 c16 -4 33 -3 38 2 7 7 6 10 -2 10 -7 0 -12 5 -12 11 0 6 7 9 15 5
13 -5 17 0 14 20 0 4 5 11 13 15 20 13 -4 9 -29 -5z"/>
<path fill="#000000" stroke="none" d="M117 177 c-4 -10 -7 -26 -7 -35 1 -15
2 -15 11 1 6 10 9 25 7 35 -3 16 -4 15 -11 -1z"/>
<path fill="#000000" stroke="none" d="M140 159 c0 -11 5 -17 10 -14 6 3 10
13 10 21 0 8 -4 14 -10 14 -5 0 -10 -9 -10 -21z"/>
</g>
</svg>
