<?xml version="1.0" standalone="no"?>
<!DOCTYPE svg PUBLIC "-//W3C//DTD SVG 20010904//EN"
 "http://www.w3.org/TR/2001/REC-SVG-20010904/DTD/svg10.dtd">
<svg version="1.0" xmlns="http://www.w3.org/2000/svg"
 width="32.000000pt" height="32.000000pt" viewBox="0 0 32.000000 32.000000"
 preserveAspectRatio="xMidYMid meet">
<metadata>
Created by potrace 1.16, written by Peter Selinger 2001-2019
</metadata>
<g transform="translate(0.000000,32.000000) scale(0.100000,-0.100000)"
fill="#000000" stroke="none">
<path fill="#000000" stroke="none" d="M0 160 l0 -160 160 0 160 0 0 160 0
160 -160 0 -160 0 0 -160z"/>
<path fill="#ffffff" stroke="none" d="M168 293 l-137 -4 -4 -137 -3 -137 -2
143 -2 142 143 -2 142 -2 -137 -3z"/>
<path fill="#ffffff" stroke="none" d="M190 259 c0 -13 -4 -18 -12 -13 -10 6
-10 4 0 -8 9 -12 10 -18 2 -23 -6 -4 -9 -13 -6 -20 4 -10 -3 -11 -32 -3 -43
11 -64 28 -44 35 6 3 12 13 12 24 0 15 5 18 24 13 13 -3 27 -1 30 5 12 18 26
12 26 -10z"/>
<path fill="#ffffff" stroke="none" d="M93 249 c-8 -8 -13 -7 -18 2 -5 8 -4
10 3 5 7 -4 12 -2 12 5 0 7 3 9 7 6 4 -4 2 -12 -4 -18z"/>
<path fill="#ffffff" stroke="none" d="M260 233 c0 -7 -39 17 -46 28 -3 6 5 3
20 -6 14 -10 26 -19 26 -22z"/>
<path fill="#ffffff" stroke="none" d="M84 208 c18 -35 21 -58 7 -43 -14 15
-42 87 -31 80 5 -3 16 -19 24 -37z"/>
<path fill="#ffffff" stroke="none" d="M242 185 c-17 -37 -33 -32 -21 7 5 18
9 35 9 37 0 3 5 0 12 -7 9 -9 9 -18 0 -37z"/>
<path fill="#ffffff" stroke="none" d="M130 140 c0 -38 -4 -50 -15 -50 -11 0
-14 7 -10 25 3 14 7 36 10 50 8 40 15 29 15 -25z"/>
<path fill="#ffffff" stroke="none" d="M160 160 c0 -11 -4 -20 -10 -20 -5 0
-10 9 -10 20 0 11 5 20 10 20 6 0 10 -9 10 -20z"/>
<path fill="#ffffff" stroke="none" d="M215 113 c11 -37 -19 -28 -33 10 -7 18
-12 37 -12 42 0 16 38 -29 45 -52z"/>
<path fill="#ffffff" stroke="none" d="M160 60 c43 0 74 6 90 16 l25 16 -24
-21 c-19 -17 -37 -21 -91 -21 -54 0 -72 4 -91 21 l-24 21 25 -16 c16 -10 47
-16 90 -16z"/>
</g>
</svg>
