<?xml version="1.0" standalone="no"?>
<!DOCTYPE svg PUBLIC "-//W3C//DTD SVG 20010904//EN"
 "http://www.w3.org/TR/2001/REC-SVG-20010904/DTD/svg10.dtd">
<svg version="1.0" xmlns="http://www.w3.org/2000/svg"
 width="32.000000pt" height="32.000000pt" viewBox="0 0 32.000000 32.000000"
 preserveAspectRatio="xMidYMid meet">
<metadata>
Created by potrace 1.16, written by Peter Selinger 2001-2019
</metadata>
<g transform="translate(0.000000,32.000000) scale(0.100000,-0.100000)"
fill="#000000" stroke="none">
<path fill="#000000" stroke="none" d="M30 160 l0 -130 130 0 130 0 0 130 0
130 -130 0 -130 0 0 -130z"/>
<path fill="#ffffff" stroke="none" d="M101 264 l-24 -17 24 -13 24 -13 -25
-1 -25 -1 23 -13 c21 -11 22 -14 7 -26 -24 -20 -49 -1 -53 39 -4 36 18 60 53
61 18 0 17 -1 -4 -16z"/>
<path fill="#ffffff" stroke="none" d="M171 261 c-9 -6 -10 -11 -2 -15 14 -9
15 -36 1 -36 -5 0 -7 6 -4 14 3 8 0 17 -5 21 -13 8 -5 25 12 25 8 0 8 -3 -2
-9z"/>
<path fill="#ffffff" stroke="none" d="M256 192 c0 -34 -4 -62 -8 -62 -4 0 -8
5 -8 10 0 20 -16 9 -26 -17 -9 -26 -8 -28 13 -29 20 -2 22 0 11 14 -12 13 -10
14 10 3 33 -17 28 -47 -9 -60 -41 -14 -117 -14 -158 0 -36 13 -42 42 -12 59
28 15 38 12 16 -4 -19 -13 -18 -14 7 -13 14 1 24 7 21 12 -3 6 0 4 8 -2 20
-19 57 -16 68 6 9 17 7 19 -20 17 -38 -1 -60 25 -43 52 6 9 23 17 38 18 15 1
32 6 39 13 6 6 20 11 32 11 16 0 17 2 5 9 -8 6 -18 7 -22 5 -10 -6 -11 10 -1
20 4 4 14 5 23 4 11 -3 15 -18 16 -66z"/>
<path fill="#ffffff" stroke="none" d="M105 150 c5 -9 -8 -12 -31 -9 -4 0 -11
-5 -15 -13 -6 -9 -9 -9 -9 -1 0 11 27 32 42 33 4 0 10 -4 13 -10z"/>
<path fill="#000000" stroke="none" d="M180 80 c0 -5 12 -10 28 -9 24 0 25 1
7 9 -27 12 -35 12 -35 0z"/>
<path fill="#000000" stroke="none" d="M103 73 c9 -2 23 -2 30 0 6 3 -1 5 -18
5 -16 0 -22 -2 -12 -5z"/>
</g>
</svg>
