<?xml version="1.0" standalone="no"?>
<!DOCTYPE svg PUBLIC "-//W3C//DTD SVG 20010904//EN"
 "http://www.w3.org/TR/2001/REC-SVG-20010904/DTD/svg10.dtd">
<svg version="1.0" xmlns="http://www.w3.org/2000/svg"
 width="32.000000pt" height="32.000000pt" viewBox="0 0 32.000000 32.000000"
 preserveAspectRatio="xMidYMid meet">
<metadata>
Created by potrace 1.16, written by Peter Selinger 2001-2019
</metadata>
<g transform="translate(0.000000,32.000000) scale(0.100000,-0.100000)"
fill="#000000" stroke="none">
<path fill="#000000" stroke="none" d="M0 160 l0 -160 160 0 160 0 0 160 0
160 -160 0 -160 0 0 -160z"/>
<path fill="#ffffff" stroke="none" d="M300 160 l0 -140 -140 0 -140 0 0 140
0 140 140 0 140 0 0 -140z"/>
<path fill="#000000" stroke="none" d="M30 160 l0 -130 130 0 130 0 0 130 0
130 -130 0 -130 0 0 -130z"/>
<path fill="#ffffff" stroke="none" d="M255 236 c12 -12 11 -25 -12 -92 -14
-44 -30 -83 -34 -88 -13 -15 -11 6 6 54 8 24 13 45 10 48 -3 3 -5 0 -5 -7 0
-9 -5 -9 -21 -1 -15 8 -29 8 -51 1 -44 -16 -73 -14 -89 6 -10 12 -10 15 -1 9
7 -4 22 -4 33 -1 20 7 20 8 -7 36 -29 30 -27 37 4 18 14 -9 27 -7 58 9 46 25
90 28 109 8z"/>
</g>
</svg>
