<?xml version="1.0" standalone="no"?>
<!DOCTYPE svg PUBLIC "-//W3C//DTD SVG 20010904//EN"
 "http://www.w3.org/TR/2001/REC-SVG-20010904/DTD/svg10.dtd">
<svg version="1.0" xmlns="http://www.w3.org/2000/svg"
 width="32.000000pt" height="32.000000pt" viewBox="0 0 32.000000 32.000000"
 preserveAspectRatio="xMidYMid meet">
<metadata>
Created by potrace 1.16, written by Peter Selinger 2001-2019
</metadata>
<g transform="translate(0.000000,32.000000) scale(0.100000,-0.100000)"
fill="#000000" stroke="none">
<path fill="#000000" stroke="none" d="M22 163 l2 -138 3 132 4 132 132 4 132
3 -137 2 -138 2 2 -137z"/>
<path fill="#000000" stroke="none" d="M137 247 c-8 -7 -18 -22 -22 -34 -6
-21 -5 -22 24 -7 30 15 40 37 22 48 -4 3 -15 0 -24 -7z"/>
<path fill="#000000" stroke="none" d="M181 215 c0 -6 -11 -11 -22 -12 -29 -3
-31 -6 -16 -36 12 -28 32 -31 32 -6 0 8 4 17 8 20 5 4 7 15 4 25 -3 11 -5 14
-6 9z"/>
<path fill="#000000" stroke="none" d="M100 170 c0 -6 7 -18 15 -26 9 -10 15
-11 15 -4 0 6 -7 18 -15 26 -9 10 -15 11 -15 4z"/>
<path fill="#000000" stroke="none" d="M176 124 c-5 -14 -4 -15 9 -4 17 14 19
20 6 20 -5 0 -12 -7 -15 -16z"/>
</g>
</svg>
