<?xml version="1.0" standalone="no"?>
<!DOCTYPE svg PUBLIC "-//W3C//DTD SVG 20010904//EN"
 "http://www.w3.org/TR/2001/REC-SVG-20010904/DTD/svg10.dtd">
<svg version="1.0" xmlns="http://www.w3.org/2000/svg"
 width="32.000000pt" height="32.000000pt" viewBox="0 0 32.000000 32.000000"
 preserveAspectRatio="xMidYMid meet">
<metadata>
Created by potrace 1.16, written by Peter Selinger 2001-2019
</metadata>
<g transform="translate(0.000000,32.000000) scale(0.100000,-0.100000)"
fill="#000000" stroke="none">
<path fill="#000000" stroke="none" d="M0 160 l0 -160 160 0 160 0 0 160 0
160 -160 0 -160 0 0 -160z"/>
<path fill="#ffffff" stroke="none" d="M168 293 l-138 -4 0 -128 c0 -94 3
-131 13 -134 7 -3 5 -6 -5 -6 -16 -1 -18 12 -18 139 l0 140 143 -2 142 -2
-137 -3z"/>
<path fill="#ffffff" stroke="none" d="M189 261 c12 -7 11 -12 -1 -30 -13 -18
-17 -19 -21 -7 -4 9 -3 15 1 13 4 -1 8 3 10 8 5 15 -27 18 -43 5 -11 -9 -11
-16 -3 -29 8 -13 8 -26 0 -47 -11 -28 -11 -28 -6 7 4 23 1 39 -6 44 -8 5 -6
12 6 26 18 20 41 24 63 10z"/>
<path fill="#ffffff" stroke="none" d="M273 149 c-6 -6 -7 3 -4 23 4 28 6 29
9 9 2 -13 0 -27 -5 -32z"/>
<path fill="#ffffff" stroke="none" d="M56 171 c-4 -5 0 -12 6 -14 8 -3 6 -6
-4 -6 -18 -1 -24 10 -11 22 9 10 15 8 9 -2z"/>
<path fill="#ffffff" stroke="none" d="M160 65 c69 0 84 3 96 20 11 15 14 16
14 3 0 -21 -55 -43 -110 -43 -55 0 -110 22 -110 43 0 13 3 12 14 -3 12 -17 27
-20 96 -20z"/>
</g>
</svg>
