<?xml version="1.0" standalone="no"?>
<!DOCTYPE svg PUBLIC "-//W3C//DTD SVG 20010904//EN"
 "http://www.w3.org/TR/2001/REC-SVG-20010904/DTD/svg10.dtd">
<svg version="1.0" xmlns="http://www.w3.org/2000/svg"
 width="32.000000pt" height="32.000000pt" viewBox="0 0 32.000000 32.000000"
 preserveAspectRatio="xMidYMid meet">
<metadata>
Created by potrace 1.16, written by Peter Selinger 2001-2019
</metadata>
<g transform="translate(0.000000,32.000000) scale(0.100000,-0.100000)"
fill="#000000" stroke="none">
<path fill="#000000" stroke="none" d="M0 160 l0 -160 160 0 160 0 0 160 0
160 -160 0 -160 0 0 -160z"/>
<path fill="#ffffff" stroke="none" d="M300 160 l0 -140 -140 0 -140 0 0 140
0 140 140 0 140 0 0 -140z"/>
<path fill="#000000" stroke="none" d="M30 160 l0 -130 130 0 130 0 0 130 0
130 -130 0 -130 0 0 -130z"/>
<path fill="#ffffff" stroke="none" d="M126 265 c-4 -12 3 -15 34 -15 33 0 38
3 33 17 -4 11 -3 14 5 9 7 -4 12 -14 12 -22 0 -11 4 -12 19 -2 15 9 23 9 35
-1 9 -8 16 -19 15 -25 0 -7 -2 -6 -6 2 -7 17 -28 15 -44 -4 -11 -14 -10 -18 6
-30 10 -8 21 -11 24 -8 3 3 -1 9 -9 14 -11 7 -11 10 -2 10 17 0 27 -29 14 -42
-8 -8 -16 -7 -28 2 -24 21 -44 21 -44 -1 0 -14 -7 -19 -30 -19 -23 0 -30 5
-30 19 0 22 -20 22 -44 1 -12 -9 -20 -10 -28 -2 -13 13 -3 42 14 42 9 0 9 -3
-2 -10 -8 -5 -12 -11 -9 -14 3 -3 14 0 24 8 16 12 17 16 6 30 -16 19 -37 21
-44 4 -4 -8 -6 -9 -6 -2 -2 22 29 39 49 26 15 -9 19 -7 23 9 3 10 8 19 12 19
4 0 5 -7 1 -15z"/>
<path fill="#ffffff" stroke="none" d="M160 140 c17 0 34 8 43 20 14 20 14 19
36 -4 13 -14 20 -29 17 -35 -4 -5 -2 -12 4 -16 22 -13 10 -43 -21 -54 -71 -25
-189 -6 -189 29 0 11 5 22 10 25 6 4 8 11 4 16 -3 6 4 21 17 35 22 23 22 24
36 4 9 -12 26 -20 43 -20z"/>
<path fill="#000000" stroke="none" d="M148 193 c6 -2 18 -2 25 0 6 3 1 5 -13
5 -14 0 -19 -2 -12 -5z"/>
<path fill="#000000" stroke="none" d="M155 170 c-3 -5 -1 -10 4 -10 6 0 11 5
11 10 0 6 -2 10 -4 10 -3 0 -8 -4 -11 -10z"/>
<path fill="#000000" stroke="none" d="M110 121 c0 -6 -1 -14 -2 -18 -2 -3 5
-7 15 -9 21 -3 22 9 2 26 -10 9 -15 9 -15 1z"/>
<path fill="#000000" stroke="none" d="M192 118 c-17 -17 -15 -27 6 -24 9 2
16 6 15 10 -6 23 -9 26 -21 14z"/>
<path fill="#000000" stroke="none" d="M118 73 c7 -3 16 -2 19 1 4 3 -2 6 -13
5 -11 0 -14 -3 -6 -6z"/>
<path fill="#000000" stroke="none" d="M188 73 c7 -3 16 -2 19 1 4 3 -2 6 -13
5 -11 0 -14 -3 -6 -6z"/>
</g>
</svg>
