<?xml version="1.0" standalone="no"?>
<!DOCTYPE svg PUBLIC "-//W3C//DTD SVG 20010904//EN"
 "http://www.w3.org/TR/2001/REC-SVG-20010904/DTD/svg10.dtd">
<svg version="1.0" xmlns="http://www.w3.org/2000/svg"
 width="32.000000pt" height="32.000000pt" viewBox="0 0 32.000000 32.000000"
 preserveAspectRatio="xMidYMid meet">
<metadata>
Created by potrace 1.16, written by Peter Selinger 2001-2019
</metadata>
<g transform="translate(0.000000,32.000000) scale(0.100000,-0.100000)"
fill="#000000" stroke="none">
<path fill="#000000" stroke="none" d="M30 155 l0 -135 135 0 135 0 0 135 0
135 -135 0 -135 0 0 -135z"/>
<path fill="#ffffff" stroke="none" d="M188 254 c12 -8 22 -25 21 -37 -1 -21
-1 -21 -7 -2 -8 24 -32 31 -32 10 0 -8 -4 -15 -10 -15 -5 0 -10 7 -10 15 0 21
-24 14 -32 -10 -6 -19 -6 -19 -7 2 -1 19 31 53 49 53 3 0 16 -7 28 -16z"/>
<path fill="#ffffff" stroke="none" d="M87 201 c1 -11 -5 -22 -13 -25 -9 -3
-12 -11 -8 -17 4 -8 3 -9 -4 -5 -7 4 -12 2 -12 -5 0 -7 -3 -9 -7 -5 -7 7 26
76 36 76 4 0 7 -9 8 -19z"/>
<path fill="#ffffff" stroke="none" d="M265 185 c11 -19 16 -37 12 -41 -4 -4
-7 -2 -7 5 0 7 -5 9 -12 5 -7 -4 -8 -3 -4 5 4 6 1 14 -8 17 -14 5 -19 44 -5
44 3 0 14 -16 24 -35z"/>
<path fill="#ffffff" stroke="none" d="M170 185 c0 -8 -4 -15 -10 -15 -5 0
-10 7 -10 15 0 8 5 15 10 15 6 0 10 -7 10 -15z"/>
<path fill="#ffffff" stroke="none" d="M160 60 c43 0 74 6 90 16 l25 16 -24
-21 c-19 -17 -37 -21 -91 -21 -54 0 -72 4 -91 21 l-24 21 25 -16 c16 -10 47
-16 90 -16z"/>
</g>
</svg>
