<?xml version="1.0" standalone="no"?>
<!DOCTYPE svg PUBLIC "-//W3C//DTD SVG 20010904//EN"
 "http://www.w3.org/TR/2001/REC-SVG-20010904/DTD/svg10.dtd">
<svg version="1.0" xmlns="http://www.w3.org/2000/svg"
 width="32.000000pt" height="32.000000pt" viewBox="0 0 32.000000 32.000000"
 preserveAspectRatio="xMidYMid meet">
<metadata>
Created by potrace 1.16, written by Peter Selinger 2001-2019
</metadata>
<g transform="translate(0.000000,32.000000) scale(0.100000,-0.100000)"
fill="#000000" stroke="none">
<path fill="#000000" stroke="none" d="M0 160 l0 -160 160 0 160 0 0 160 0
160 -160 0 -160 0 0 -160z"/>
<path fill="#ffffff" stroke="none" d="M300 160 l0 -140 -140 0 -140 0 0 140
0 140 140 0 140 0 0 -140z"/>
<path fill="#000000" stroke="none" d="M30 160 l0 -130 130 0 130 0 0 130 0
130 -130 0 -130 0 0 -130z"/>
<path fill="#ffffff" stroke="none" d="M159 258 c1 7 5 11 10 8 5 -4 12 0 14
6 3 8 6 6 6 -5 1 -10 5 -16 10 -13 5 3 11 -2 13 -12 4 -15 -3 -17 -54 -17 -55
0 -58 1 -58 25 0 20 2 22 10 10 5 -8 10 -10 10 -5 0 6 5 3 10 -5 8 -12 10 -10
11 10 0 23 1 23 9 5 5 -11 9 -14 9 -7z"/>
<path fill="#ffffff" stroke="none" d="M239 208 c0 -27 -2 -29 -8 -13 -5 11
-6 26 -4 33 8 21 13 13 12 -20z"/>
<path fill="#ffffff" stroke="none" d="M93 200 c-7 -28 -13 -25 -13 6 0 14 4
23 9 20 5 -3 7 -15 4 -26z"/>
<path fill="#ffffff" stroke="none" d="M204 214 c20 -8 21 -38 0 -54 -8 -7
-14 -24 -12 -38 2 -19 10 -26 33 -28 28 -3 29 -2 11 12 -23 16 -14 19 15 4 30
-17 24 -46 -12 -59 -41 -14 -117 -14 -158 0 -36 13 -42 42 -12 59 29 15 38 12
15 -4 -18 -14 -17 -15 11 -12 23 2 31 9 33 28 2 14 -4 31 -12 38 -19 15 -21
46 -3 53 18 8 73 8 91 1z"/>
<path fill="#000000" stroke="none" d="M115 190 c-4 -6 0 -19 9 -29 9 -10 16
-30 16 -44 0 -20 5 -27 20 -27 15 0 20 7 20 27 0 14 7 34 16 44 23 25 8 45
-17 23 -18 -16 -20 -16 -38 0 -13 12 -21 14 -26 6z"/>
<path fill="#ffffff" stroke="none" d="M180 175 c11 10 20 13 20 8 0 -6 -7
-16 -15 -23 -8 -7 -15 -21 -15 -31 0 -11 -4 -19 -10 -19 -5 0 -10 8 -10 19 0
10 -7 24 -15 31 -8 7 -15 17 -15 23 0 5 9 2 20 -8 19 -17 21 -17 40 0z"/>
<path fill="#000000" stroke="none" d="M103 73 c9 -2 23 -2 30 0 6 3 -1 5 -18
5 -16 0 -22 -2 -12 -5z"/>
<path fill="#000000" stroke="none" d="M193 73 c9 -2 23 -2 30 0 6 3 -1 5 -18
5 -16 0 -22 -2 -12 -5z"/>
</g>
</svg>
