<?xml version="1.0" standalone="no"?>
<!DOCTYPE svg PUBLIC "-//W3C//DTD SVG 20010904//EN"
 "http://www.w3.org/TR/2001/REC-SVG-20010904/DTD/svg10.dtd">
<svg version="1.0" xmlns="http://www.w3.org/2000/svg"
 width="32.000000pt" height="32.000000pt" viewBox="0 0 32.000000 32.000000"
 preserveAspectRatio="xMidYMid meet">
<metadata>
Created by potrace 1.16, written by Peter Selinger 2001-2019
</metadata>
<g transform="translate(0.000000,32.000000) scale(0.100000,-0.100000)"
fill="#000000" stroke="none">
<path fill="#000000" stroke="none" d="M20 160 c0 -127 2 -140 18 -139 10 0
12 3 5 6 -10 3 -13 40 -13 134 l0 128 138 4 137 3 -142 2 -143 2 0 -140z"/>
<path fill="#000000" stroke="none" d="M115 263 c-31 -8 -38 -19 -20 -37 9 -9
13 -16 9 -16 -3 0 -1 -6 5 -14 9 -11 7 -12 -13 -9 -18 4 -25 0 -29 -18 -4 -13
-5 -25 -3 -27 8 -7 55 11 50 19 -3 5 -1 9 5 9 17 0 22 -18 7 -23 -9 -4 -12
-14 -9 -26 6 -25 11 -26 35 -4 18 16 18 16 12 0 -7 -20 4 -21 29 -3 21 16 23
38 2 30 -20 -8 -19 10 2 27 10 8 14 9 10 2 -8 -13 31 -45 45 -37 15 10 8 36
-11 41 -22 6 -17 33 6 33 10 0 13 6 9 16 -3 9 -6 19 -6 24 0 4 -10 10 -23 12
-21 4 -23 1 -22 -32 1 -23 -3 -37 -11 -37 -7 0 -11 8 -9 18 3 15 -1 16 -28 8
-17 -5 -33 -6 -36 -4 -2 3 0 5 5 5 6 0 10 11 10 25 0 14 0 24 0 24 -1 -1 -10
-3 -21 -6z"/>
<path fill="#ffffff" stroke="none" d="M173 176 c9 5 8 3 0 -6 -10 -11 -15
-11 -28 0 -8 7 -15 17 -15 22 0 5 7 2 16 -6 8 -9 21 -13 27 -10z"/>
<path fill="#000000" stroke="none" d="M50 88 c0 -21 55 -43 110 -43 55 0 110
22 110 43 0 13 -3 12 -14 -3 -12 -17 -27 -20 -96 -20 -69 0 -84 3 -96 20 -11
15 -14 16 -14 3z"/>
</g>
</svg>
