<?xml version="1.0" standalone="no"?>
<!DOCTYPE svg PUBLIC "-//W3C//DTD SVG 20010904//EN"
 "http://www.w3.org/TR/2001/REC-SVG-20010904/DTD/svg10.dtd">
<svg version="1.0" xmlns="http://www.w3.org/2000/svg"
 width="32.000000pt" height="32.000000pt" viewBox="0 0 32.000000 32.000000"
 preserveAspectRatio="xMidYMid meet">
<metadata>
Created by potrace 1.16, written by Peter Selinger 2001-2019
</metadata>
<g transform="translate(0.000000,32.000000) scale(0.100000,-0.100000)"
fill="#000000" stroke="none">
<path fill="#000000" stroke="none" d="M124 215 c-17 -13 -16 -13 13 -3 24 9
37 9 55 0 22 -11 22 -11 -4 -6 -16 4 -35 3 -45 0 -14 -6 -14 -9 6 -23 18 -12
28 -13 47 -4 29 13 31 27 5 41 -27 14 -54 13 -77 -5z"/>
<path fill="#000000" stroke="none" d="M64 175 c-19 -15 -19 -15 0 -30 25 -19
57 -19 82 0 19 15 19 15 0 30 -11 8 -29 15 -41 15 -12 0 -30 -7 -41 -15z"/>
<path fill="#ffffff" stroke="none" d="M140 170 c11 -7 6 -8 -17 -4 -20 4 -39
2 -48 -6 -9 -7 -15 -8 -15 -2 0 21 54 29 80 12z"/>
<path fill="#000000" stroke="none" d="M194 135 c-19 -15 -19 -15 0 -30 25
-19 57 -19 82 0 19 15 19 15 0 30 -25 19 -57 19 -82 0z"/>
<path fill="#ffffff" stroke="none" d="M270 130 c11 -7 6 -8 -17 -4 -20 4 -39
2 -48 -6 -9 -7 -15 -8 -15 -2 0 21 54 29 80 12z"/>
</g>
</svg>
