<?xml version="1.0" standalone="no"?>
<!DOCTYPE svg PUBLIC "-//W3C//DTD SVG 20010904//EN"
 "http://www.w3.org/TR/2001/REC-SVG-20010904/DTD/svg10.dtd">
<svg version="1.0" xmlns="http://www.w3.org/2000/svg"
 width="32.000000pt" height="32.000000pt" viewBox="0 0 32.000000 32.000000"
 preserveAspectRatio="xMidYMid meet">
<metadata>
Created by potrace 1.16, written by Peter Selinger 2001-2019
</metadata>
<g transform="translate(0.000000,32.000000) scale(0.100000,-0.100000)"
fill="#000000" stroke="none">
<path fill="#000000" stroke="none" d="M116 267 c-12 -9 -17 -23 -14 -47 4
-42 41 -61 83 -42 20 9 25 19 25 46 0 50 -52 74 -94 43z"/>
<path fill="#000000" stroke="none" d="M166 157 c-11 -8 -17 -20 -14 -28 3 -8
-6 -19 -24 -26 -35 -15 -36 -40 -3 -55 34 -15 80 0 80 27 0 12 11 25 28 32 32
14 35 38 8 53 -27 14 -54 13 -75 -3z"/>
</g>
</svg>
