<?xml version="1.0" standalone="no"?>
<!DOCTYPE svg PUBLIC "-//W3C//DTD SVG 20010904//EN"
 "http://www.w3.org/TR/2001/REC-SVG-20010904/DTD/svg10.dtd">
<svg version="1.0" xmlns="http://www.w3.org/2000/svg"
 width="32.000000pt" height="32.000000pt" viewBox="0 0 32.000000 32.000000"
 preserveAspectRatio="xMidYMid meet">
<metadata>
Created by potrace 1.16, written by Peter Selinger 2001-2019
</metadata>
<g transform="translate(0.000000,32.000000) scale(0.100000,-0.100000)"
fill="#000000" stroke="none">
<path fill="#000000" stroke="none" d="M0 160 l0 -160 160 0 160 0 0 160 0
160 -160 0 -160 0 0 -160z"/>
<path fill="#ffffff" stroke="none" d="M196 255 c17 -14 17 -16 3 -27 -9 -7
-15 -21 -13 -30 1 -11 -3 -15 -13 -11 -10 4 -11 8 -3 13 8 5 6 9 -6 14 -16 6
-16 7 1 25 16 19 16 20 -12 24 -27 4 -27 4 -2 6 14 0 34 -6 45 -14z"/>
<path fill="#ffffff" stroke="none" d="M126 235 c18 -14 18 -16 2 -28 -10 -8
-15 -16 -12 -19 2 -3 -6 -3 -20 -1 -13 3 -32 0 -43 -6 -15 -9 -12 -10 17 -6
30 4 31 3 10 -4 l-25 -9 25 -2 25 -2 -25 -8 -25 -8 25 -2 25 -2 -25 -8 -25 -8
25 -2 c17 -2 19 -4 8 -7 -9 -2 -25 0 -35 6 -24 12 -26 107 -3 121 22 14 54 12
76 -5z"/>
<path fill="#ffffff" stroke="none" d="M266 125 c19 -15 19 -15 0 -30 -11 -8
-29 -15 -41 -15 -12 0 -30 7 -41 15 -19 15 -19 15 0 30 25 19 57 19 82 0z"/>
<path fill="#000000" stroke="none" d="M170 235 c-14 -16 -10 -18 14 -9 9 3
16 10 16 15 0 14 -16 11 -30 -6z"/>
<path fill="#000000" stroke="none" d="M50 230 c-8 -5 -11 -12 -7 -16 3 -4 12
-3 20 2 7 5 4 0 -8 -10 -20 -19 -20 -19 0 -12 11 5 27 9 35 11 8 2 17 4 20 5
3 1 8 2 13 1 14 -2 7 17 -9 23 -22 9 -47 7 -64 -4z"/>
<path fill="#000000" stroke="none" d="M190 120 c-8 -5 -11 -12 -8 -16 11 -11
57 -13 64 -3 3 5 10 7 15 4 5 -4 9 -2 9 3 0 21 -54 29 -80 12z"/>
</g>
</svg>
