<?xml version="1.0" standalone="no"?>
<!DOCTYPE svg PUBLIC "-//W3C//DTD SVG 20010904//EN"
 "http://www.w3.org/TR/2001/REC-SVG-20010904/DTD/svg10.dtd">
<svg version="1.0" xmlns="http://www.w3.org/2000/svg"
 width="32.000000pt" height="32.000000pt" viewBox="0 0 32.000000 32.000000"
 preserveAspectRatio="xMidYMid meet">
<metadata>
Created by potrace 1.16, written by Peter Selinger 2001-2019
</metadata>
<g transform="translate(0.000000,32.000000) scale(0.100000,-0.100000)"
fill="#000000" stroke="none">
<path fill="#000000" stroke="none" d="M162 282 c-13 -13 -29 -18 -48 -15 -17
3 -37 -2 -49 -11 -20 -16 -20 -16 -1 -31 31 -24 65 -19 76 10 9 23 13 24 31
14 12 -6 36 -8 53 -5 19 4 26 3 17 -3 -11 -7 -11 -9 0 -14 8 -3 -4 -3 -26 -1
-36 3 -37 2 -10 -5 24 -7 25 -9 8 -10 -31 -2 -58 10 -43 19 8 5 8 9 -2 13 -11
4 -14 -4 -13 -31 1 -30 5 -38 27 -46 18 -6 35 -6 50 1 20 9 24 18 23 62 0 55
-12 71 -52 71 -13 0 -31 -8 -41 -18z"/>
<path fill="#ffffff" stroke="none" d="M240 280 c11 -7 6 -8 -17 -4 -20 4 -39
2 -48 -6 -9 -7 -15 -8 -15 -2 0 21 54 29 80 12z"/>
<path fill="#ffffff" stroke="none" d="M110 253 c-14 -3 -31 -10 -37 -15 -9
-7 -13 -7 -13 0 0 13 18 21 50 20 l25 -1 -25 -4z"/>
<path fill="#ffffff" stroke="none" d="M237 198 c-8 -5 -7 -8 3 -9 10 0 7 -4
-7 -11 -12 -6 -34 -7 -50 -3 -16 4 -22 10 -14 12 8 3 9 8 3 12 -6 3 9 6 33 6
24 0 38 -3 32 -7z"/>
<path fill="#000000" stroke="none" d="M193 183 c9 -2 23 -2 30 0 6 3 -1 5
-18 5 -16 0 -22 -2 -12 -5z"/>
<path fill="#000000" stroke="none" d="M38 158 c-19 -16 -18 -66 2 -78 8 -6
24 -9 35 -9 16 1 16 2 -5 9 l-25 8 25 1 c34 2 53 15 57 40 5 35 -56 55 -89 29z"/>
<path fill="#ffffff" stroke="none" d="M110 150 c11 -7 6 -8 -17 -4 -20 4 -39
2 -48 -6 -9 -7 -15 -8 -15 -2 0 21 54 29 80 12z"/>
<path fill="#ffffff" stroke="none" d="M107 109 c-7 -3 -28 -9 -47 -12 -19 -3
-29 -3 -21 0 8 3 9 8 3 12 -6 3 9 6 33 6 24 0 38 -3 32 -6z"/>
<path fill="#000000" stroke="none" d="M114 75 c-19 -15 -19 -15 0 -30 25 -19
57 -19 82 0 19 15 19 15 0 30 -25 19 -57 19 -82 0z"/>
<path fill="#ffffff" stroke="none" d="M190 70 c11 -7 6 -8 -17 -4 -20 4 -39
2 -48 -6 -9 -7 -15 -8 -15 -2 0 21 54 29 80 12z"/>
</g>
</svg>
