<?xml version="1.0" standalone="no"?>
<!DOCTYPE svg PUBLIC "-//W3C//DTD SVG 20010904//EN"
 "http://www.w3.org/TR/2001/REC-SVG-20010904/DTD/svg10.dtd">
<svg version="1.0" xmlns="http://www.w3.org/2000/svg"
 width="32.000000pt" height="32.000000pt" viewBox="0 0 32.000000 32.000000"
 preserveAspectRatio="xMidYMid meet">
<metadata>
Created by potrace 1.16, written by Peter Selinger 2001-2019
</metadata>
<g transform="translate(0.000000,32.000000) scale(0.100000,-0.100000)"
fill="#000000" stroke="none">
<path fill="#000000" stroke="none" d="M169 290 c-12 -7 -16 -23 -15 -60 2
-54 14 -70 51 -69 16 1 16 2 -5 9 l-25 8 25 2 25 2 -25 8 -25 8 25 2 25 2 -25
8 -25 8 25 2 25 2 -25 9 c-23 8 -22 8 7 5 18 -1 31 0 28 2 -3 3 3 11 13 19 16
12 16 14 -2 28 -22 17 -53 19 -77 5z"/>
<path fill="#ffffff" stroke="none" d="M240 280 c13 -9 13 -11 0 -20 -8 -5
-23 -10 -32 -10 -9 0 -22 -2 -30 -3 -7 -2 -9 -2 -4 1 4 2 2 8 -5 13 -12 8 -11
11 1 19 8 5 24 10 35 10 11 0 27 -5 35 -10z"/>
<path fill="#000000" stroke="none" d="M64 255 c-19 -15 -19 -15 0 -30 21 -16
62 -20 70 -7 3 5 -7 7 -22 5 -15 -2 -34 1 -42 7 -13 9 -13 11 0 20 8 6 27 9
42 7 15 -2 25 0 22 5 -8 13 -49 9 -70 -7z"/>
<path fill="#000000" stroke="none" d="M38 158 c-19 -16 -18 -66 2 -78 8 -6
24 -9 35 -9 16 1 16 2 -5 9 l-25 8 25 2 25 2 -25 9 c-23 8 -22 8 7 5 18 -1 31
0 28 2 -3 3 3 11 13 19 16 12 16 14 -2 28 -24 18 -57 19 -78 3z"/>
<path fill="#ffffff" stroke="none" d="M110 150 c13 -9 13 -11 0 -20 -8 -5
-23 -10 -32 -10 -9 0 -22 -2 -30 -3 -7 -2 -9 -2 -4 1 4 2 2 8 -5 13 -12 8 -11
11 1 19 8 5 24 10 35 10 11 0 27 -5 35 -10z"/>
<path fill="#000000" stroke="none" d="M114 75 c-19 -15 -19 -15 0 -30 25 -19
57 -19 82 0 19 15 19 15 0 30 -25 19 -57 19 -82 0z"/>
<path fill="#ffffff" stroke="none" d="M190 70 c13 -9 13 -11 0 -20 -19 -12
-51 -12 -70 0 -13 9 -13 11 0 20 19 12 51 12 70 0z"/>
</g>
</svg>
