<?xml version="1.0" standalone="no"?>
<!DOCTYPE svg PUBLIC "-//W3C//DTD SVG 20010904//EN"
 "http://www.w3.org/TR/2001/REC-SVG-20010904/DTD/svg10.dtd">
<svg version="1.0" xmlns="http://www.w3.org/2000/svg"
 width="32.000000pt" height="32.000000pt" viewBox="0 0 32.000000 32.000000"
 preserveAspectRatio="xMidYMid meet">
<metadata>
Created by potrace 1.16, written by Peter Selinger 2001-2019
</metadata>
<g transform="translate(0.000000,32.000000) scale(0.100000,-0.100000)"
fill="#000000" stroke="none">
<path fill="#000000" stroke="none" d="M161 281 c-12 -12 -28 -17 -44 -14 -30
6 -67 -12 -67 -32 0 -21 38 -38 71 -31 23 4 28 2 31 -17 4 -29 48 -45 83 -29
22 10 25 17 25 66 0 44 -4 57 -19 66 -30 15 -59 12 -80 -9z"/>
<path fill="#000000" stroke="none" d="M38 159 c-25 -14 -24 -75 1 -89 11 -5
27 -10 35 -10 9 0 25 -9 36 -20 22 -22 51 -26 81 -10 37 21 11 60 -40 60 -17
0 -21 6 -21 30 0 43 -49 64 -92 39z"/>
</g>
</svg>
