<?xml version="1.0" standalone="no"?>
<!DOCTYPE svg PUBLIC "-//W3C//DTD SVG 20010904//EN"
 "http://www.w3.org/TR/2001/REC-SVG-20010904/DTD/svg10.dtd">
<svg version="1.0" xmlns="http://www.w3.org/2000/svg"
 width="32.000000pt" height="32.000000pt" viewBox="0 0 32.000000 32.000000"
 preserveAspectRatio="xMidYMid meet">
<metadata>
Created by potrace 1.16, written by Peter Selinger 2001-2019
</metadata>
<g transform="translate(0.000000,32.000000) scale(0.100000,-0.100000)"
fill="#000000" stroke="none">
<path fill="#000000" stroke="none" d="M198 299 c-14 -8 -18 -23 -18 -64 0
-42 -4 -55 -15 -55 -8 0 -15 6 -15 13 0 19 -59 67 -82 67 -10 0 -28 -5 -39
-10 -17 -10 -19 -22 -19 -116 0 -102 1 -105 25 -116 18 -8 35 -9 53 -2 23 8
27 16 30 56 3 46 4 47 31 42 32 -7 71 10 71 29 0 7 15 17 33 22 30 10 32 13
35 65 3 43 -1 57 -14 67 -21 15 -52 16 -76 2z"/>
<path fill="#000000" stroke="none" d="M215 76 c-40 -29 20 -71 71 -47 29 13
31 36 5 51 -27 14 -54 13 -76 -4z"/>
</g>
</svg>
