<?xml version="1.0" standalone="no"?>
<!DOCTYPE svg PUBLIC "-//W3C//DTD SVG 20010904//EN"
 "http://www.w3.org/TR/2001/REC-SVG-20010904/DTD/svg10.dtd">
<svg version="1.0" xmlns="http://www.w3.org/2000/svg"
 width="32.000000pt" height="32.000000pt" viewBox="0 0 32.000000 32.000000"
 preserveAspectRatio="xMidYMid meet">
<metadata>
Created by potrace 1.16, written by Peter Selinger 2001-2019
</metadata>
<g transform="translate(0.000000,32.000000) scale(0.100000,-0.100000)"
fill="#000000" stroke="none">
<path fill="#000000" stroke="none" d="M90 301 c-8 -5 -28 -13 -45 -18 -28 -8
-30 -11 -30 -62 -1 -46 2 -55 23 -64 15 -7 32 -7 50 -1 22 8 26 16 27 46 1 27
-2 35 -13 31 -8 -4 -10 -8 -4 -12 6 -3 -10 -6 -34 -6 -24 0 -39 2 -33 4 7 2 7
6 -2 12 -9 6 -2 7 17 3 30 -6 74 9 74 24 0 12 -72 13 -86 1 -10 -8 -14 -8 -14
0 0 12 31 20 78 19 19 -1 32 -7 32 -15 0 -15 9 -16 30 -3 13 9 13 11 0 20 -8
6 -28 8 -43 5 -19 -3 -26 -1 -21 6 4 7 21 9 43 5 25 -4 31 -2 21 4 -18 12 -49
12 -70 1z"/>
<path fill="#ffffff" stroke="none" d="M100 200 c13 -9 13 -10 0 -10 -13 0
-13 -2 -1 -9 12 -8 9 -11 -11 -16 -34 -9 -77 3 -57 16 12 7 11 9 -1 9 -24 0
10 20 35 20 11 0 27 -5 35 -10z"/>
<path fill="#000000" stroke="none" d="M53 193 c9 -2 23 -2 30 0 6 3 -1 5 -18
5 -16 0 -22 -2 -12 -5z"/>
<path fill="#000000" stroke="none" d="M53 173 c9 -2 23 -2 30 0 6 3 -1 5 -18
5 -16 0 -22 -2 -12 -5z"/>
<path fill="#000000" stroke="none" d="M199 300 c-12 -7 -15 -24 -15 -70 2
-65 11 -79 56 -81 l25 -1 -25 -8 -25 -8 25 -2 25 -2 -25 -8 -25 -8 25 -2 25
-2 -25 -8 -25 -8 25 -2 25 -2 -25 -8 c-21 -7 -21 -8 -5 -9 44 -2 49 12 50 119
1 87 -2 103 -16 111 -22 11 -49 11 -70 -1z"/>
<path fill="#ffffff" stroke="none" d="M270 290 c11 -7 6 -8 -17 -4 -20 4 -39
2 -48 -6 -9 -7 -15 -8 -15 -2 0 21 54 29 80 12z"/>
<path fill="#ffffff" stroke="none" d="M269 251 c-7 -2 -7 -6 2 -12 12 -7 11
-9 -1 -9 -13 0 -13 -1 0 -10 13 -9 13 -10 0 -10 -13 0 -13 -1 0 -10 13 -9 13
-10 0 -10 -13 0 -13 -1 0 -10 13 -9 13 -10 0 -10 -13 0 -13 -1 0 -10 18 -12
-47 -2 -70 11 -13 7 -13 8 0 9 13 0 13 1 0 10 -13 9 -13 10 0 10 13 0 13 1 0
10 -13 9 -13 10 0 10 13 0 13 1 0 10 -13 9 -13 10 0 10 10 0 11 3 3 8 -6 4 9
7 33 7 24 0 39 -2 33 -4z"/>
<path fill="#000000" stroke="none" d="M223 233 c9 -2 23 -2 30 0 6 3 -1 5
-18 5 -16 0 -22 -2 -12 -5z"/>
<path fill="#000000" stroke="none" d="M223 213 c9 -2 23 -2 30 0 6 3 -1 5
-18 5 -16 0 -22 -2 -12 -5z"/>
<path fill="#000000" stroke="none" d="M223 193 c9 -2 23 -2 30 0 6 3 -1 5
-18 5 -16 0 -22 -2 -12 -5z"/>
<path fill="#000000" stroke="none" d="M223 173 c9 -2 23 -2 30 0 6 3 -1 5
-18 5 -16 0 -22 -2 -12 -5z"/>
<path fill="#000000" stroke="none" d="M140 240 c-13 -9 -13 -10 0 -10 13 0
13 -1 0 -10 -8 -5 -10 -10 -5 -10 6 0 17 5 25 10 13 9 13 10 0 10 -13 0 -13 1
0 10 8 5 11 10 5 10 -5 0 -17 -5 -25 -10z"/>
<path fill="#000000" stroke="none" d="M120 150 c-10 -6 -15 -26 -15 -61 -1
-44 3 -53 23 -62 15 -7 32 -7 49 -1 24 8 27 14 29 62 1 42 -3 55 -17 62 -22
13 -50 12 -69 0z"/>
<path fill="#ffffff" stroke="none" d="M190 140 c11 -7 6 -8 -17 -4 -20 4 -39
2 -48 -6 -9 -7 -15 -8 -15 -2 0 21 54 29 80 12z"/>
<path fill="#ffffff" stroke="none" d="M187 98 c-8 -5 -7 -8 3 -8 13 0 13 -1
0 -10 -13 -9 -13 -10 0 -10 13 0 13 -1 0 -10 -13 -9 -13 -10 0 -11 10 0 7 -4
-7 -11 -27 -13 -85 -2 -62 13 12 7 12 9 -1 9 -13 0 -13 1 0 10 13 9 13 10 0
11 -12 0 -12 2 -1 6 8 3 9 8 3 12 -6 3 9 6 33 6 24 0 38 -3 32 -7z"/>
<path fill="#000000" stroke="none" d="M143 83 c9 -2 23 -2 30 0 6 3 -1 5 -18
5 -16 0 -22 -2 -12 -5z"/>
<path fill="#000000" stroke="none" d="M143 63 c9 -2 23 -2 30 0 6 3 -1 5 -18
5 -16 0 -22 -2 -12 -5z"/>
<path fill="#000000" stroke="none" d="M143 43 c9 -2 23 -2 30 0 6 3 -1 5 -18
5 -16 0 -22 -2 -12 -5z"/>
</g>
</svg>
