<?xml version="1.0" standalone="no"?>
<!DOCTYPE svg PUBLIC "-//W3C//DTD SVG 20010904//EN"
 "http://www.w3.org/TR/2001/REC-SVG-20010904/DTD/svg10.dtd">
<svg version="1.0" xmlns="http://www.w3.org/2000/svg"
 width="32.000000pt" height="32.000000pt" viewBox="0 0 32.000000 32.000000"
 preserveAspectRatio="xMidYMid meet">
<metadata>
Created by potrace 1.16, written by Peter Selinger 2001-2019
</metadata>
<g transform="translate(0.000000,32.000000) scale(0.100000,-0.100000)"
fill="#000000" stroke="none">
<path fill="#000000" stroke="none" d="M0 160 l0 -160 160 0 160 0 0 160 0
160 -160 0 -160 0 0 -160z"/>
<path fill="#ffffff" stroke="none" d="M276 295 c18 -14 18 -16 2 -28 -10 -8
-16 -16 -13 -19 3 -2 -9 -3 -25 0 -25 3 -29 1 -24 -12 4 -10 0 -18 -10 -22 -9
-3 -14 -9 -11 -14 2 -4 -6 -5 -19 -3 -14 3 -32 0 -43 -6 -15 -9 -12 -10 17 -6
30 4 31 3 10 -4 l-25 -9 25 -2 25 -2 -25 -8 -25 -8 25 -2 25 -2 -25 -8 -25 -8
25 -2 25 -2 -25 -9 c-24 -8 -23 -8 6 -6 17 2 31 -2 31 -8 0 -6 -14 -10 -31 -8
-29 2 -30 2 -6 -6 l25 -9 -25 -2 -25 -2 25 -8 25 -8 -25 -2 -25 -2 25 -8 25
-8 -25 -2 -25 -2 25 -8 c21 -7 21 -8 5 -9 -44 -2 -49 12 -50 119 -1 109 4 120
55 120 13 0 19 4 14 12 -9 14 23 38 51 38 12 0 30 -7 41 -15z"/>
<path fill="#ffffff" stroke="none" d="M106 274 c10 -8 13 -13 6 -9 -15 8 -44
-13 -36 -26 3 -5 -5 -9 -18 -10 -23 -1 -23 -1 2 -9 l25 -8 -25 -2 c-23 -1 -23
-2 -5 -10 13 -6 15 -9 5 -9 -26 -1 -44 17 -46 46 -3 48 51 70 92 37z"/>
<path fill="#ffffff" stroke="none" d="M88 166 c-21 -16 -24 -30 -4 -23 9 4
13 0 12 -11 -2 -10 -16 -19 -35 -23 -35 -7 -48 -16 -38 -25 4 -4 15 -1 24 7
16 13 17 12 4 -4 -12 -15 -11 -17 7 -14 12 2 25 7 29 12 5 4 2 5 -6 0 -10 -6
-12 -4 -6 4 5 9 11 9 17 3 28 -28 -33 -44 -68 -17 -19 15 -19 15 0 30 11 8 31
15 45 15 24 0 24 0 5 15 -19 15 -19 15 0 30 11 8 22 15 25 15 3 0 -2 -7 -11
-14z"/>
<path fill="#ffffff" stroke="none" d="M267 156 c0 -8 -6 -12 -15 -9 -11 5
-11 7 0 14 7 5 13 9 14 9 0 0 1 -6 1 -14z"/>
<path fill="#000000" stroke="none" d="M200 290 c-8 -5 -11 -12 -7 -16 3 -4
12 -3 20 2 7 5 4 1 -6 -8 -11 -10 -29 -18 -41 -18 -26 0 -53 -16 -43 -26 3 -4
12 -3 20 2 7 5 4 0 -8 -10 -20 -19 -20 -19 0 -12 11 5 27 9 35 11 8 2 17 4 20
5 3 1 8 2 13 1 4 0 7 4 7 9 0 14 -13 13 -29 -2 -11 -11 -13 -10 -7 0 8 14 66
46 66 36 0 -4 6 -1 13 5 8 6 17 8 20 4 4 -3 7 -2 7 4 0 21 -53 30 -80 13z"/>
<path fill="#000000" stroke="none" d="M30 270 c-8 -5 -11 -12 -7 -16 3 -4 12
-3 20 2 7 5 4 1 -6 -8 -30 -28 -2 -21 30 7 l28 24 -25 1 c-14 0 -32 -4 -40
-10z"/>
</g>
</svg>
