<?xml version="1.0" standalone="no"?>
<!DOCTYPE svg PUBLIC "-//W3C//DTD SVG 20010904//EN"
 "http://www.w3.org/TR/2001/REC-SVG-20010904/DTD/svg10.dtd">
<svg version="1.0" xmlns="http://www.w3.org/2000/svg"
 width="32.000000pt" height="32.000000pt" viewBox="0 0 32.000000 32.000000"
 preserveAspectRatio="xMidYMid meet">
<metadata>
Created by potrace 1.16, written by Peter Selinger 2001-2019
</metadata>
<g transform="translate(0.000000,32.000000) scale(0.100000,-0.100000)"
fill="#000000" stroke="none">
<path fill="#000000" stroke="none" d="M0 160 c0 -130 3 -160 14 -160 8 0 16
7 20 15 3 8 1 15 -4 15 -13 0 -13 177 -1 184 5 3 7 15 4 26 -3 11 -1 20 4 20
5 0 8 14 5 30 -3 21 -10 30 -23 30 -18 0 -19 -10 -19 -160z"/>
<path fill="#000000" stroke="none" d="M278 290 c-3 -16 0 -30 5 -30 5 0 7 -9
4 -20 -3 -11 -1 -23 4 -26 12 -7 12 -184 -1 -184 -5 0 -7 -7 -4 -15 4 -8 12
-15 20 -15 11 0 14 30 14 160 0 150 -1 160 -19 160 -13 0 -20 -9 -23 -30z"/>
<path fill="#000000" stroke="none" d="M64 292 c12 -13 19 -13 28 -4 13 13 48
16 48 4 0 -4 -17 -16 -37 -27 -58 -32 -83 -65 -48 -65 8 0 15 6 15 13 0 8 4 7
10 -3 8 -12 10 -9 10 13 0 15 5 27 10 27 5 0 9 -3 9 -7 -4 -22 3 -33 19 -34
13 0 12 -2 -5 -9 -36 -15 -27 -18 17 -7 22 6 40 17 40 24 0 7 5 13 11 13 6 0
8 -8 5 -17 -6 -17 -5 -17 8 0 7 9 16 17 20 17 3 0 6 -8 6 -17 0 -15 2 -16 10
-3 6 10 10 11 10 3 0 -7 7 -13 16 -13 27 0 10 23 -39 55 -25 17 -46 33 -46 38
-1 12 34 8 47 -5 9 -9 16 -9 28 4 15 14 7 16 -96 16 -103 0 -111 -2 -96 -16z"/>
<path fill="#ffffff" stroke="none" d="M193 243 c-7 -2 -21 -2 -30 0 -10 3 -4
5 12 5 17 0 24 -2 18 -5z"/>
<path fill="#000000" stroke="none" d="M248 183 c-10 -2 -18 -8 -18 -13 0 -5
-7 -7 -15 -4 -11 5 -15 -1 -15 -25 0 -17 5 -31 10 -31 6 0 10 8 10 18 1 15 2
15 11 -2 9 -15 13 -16 20 -5 15 23 11 -13 -6 -61 -15 -43 -12 -67 5 -40 9 13
10 13 10 0 0 -11 4 -10 12 4 9 16 13 95 9 156 -1 10 -4 11 -33 3z"/>
<path fill="#000000" stroke="none" d="M105 130 c-4 -6 9 -10 32 -10 28 0 34
3 23 10 -20 13 -47 13 -55 0z"/>
<path fill="#000000" stroke="none" d="M115 100 c3 -5 18 -10 33 -10 21 0 24
2 12 10 -20 13 -53 13 -45 0z"/>
<path fill="#000000" stroke="none" d="M196 60 c2 -16 -1 -32 -6 -35 -12 -7
-13 -25 -2 -25 9 0 52 66 52 80 0 5 -11 10 -24 10 -20 0 -23 -4 -20 -30z"/>
<path fill="#000000" stroke="none" d="M65 70 c3 -5 11 -10 16 -10 6 0 7 5 4
10 -3 6 -11 10 -16 10 -6 0 -7 -4 -4 -10z"/>
<path fill="#000000" stroke="none" d="M103 43 c-13 -8 -23 -20 -23 -25 0 -13
79 -2 97 14 34 28 -35 39 -74 11z"/>
</g>
</svg>
