<?xml version="1.0" standalone="no"?>
<!DOCTYPE svg PUBLIC "-//W3C//DTD SVG 20010904//EN"
 "http://www.w3.org/TR/2001/REC-SVG-20010904/DTD/svg10.dtd">
<svg version="1.0" xmlns="http://www.w3.org/2000/svg"
 width="32.000000pt" height="32.000000pt" viewBox="0 0 32.000000 32.000000"
 preserveAspectRatio="xMidYMid meet">
<metadata>
Created by potrace 1.16, written by Peter Selinger 2001-2019
</metadata>
<g transform="translate(0.000000,32.000000) scale(0.100000,-0.100000)"
fill="#000000" stroke="none">
<path fill="#000000" stroke="none" d="M15 310 c13 -6 15 -9 5 -9 -13 -1 -15
-24 -15 -141 0 -105 3 -140 13 -140 6 0 12 -4 12 -10 0 -6 50 -10 130 -10 80
0 130 4 130 10 0 6 6 10 13 10 9 0 12 35 12 140 0 117 -2 140 -15 141 -10 0
-8 3 5 9 12 5 -44 9 -145 9 -101 0 -157 -4 -145 -9z"/>
<path fill="#ffffff" stroke="none" d="M120 306 c0 -2 -7 -7 -16 -10 -8 -3
-12 -2 -9 4 6 10 25 14 25 6z"/>
<path fill="#ffffff" stroke="none" d="M225 300 c3 -6 -1 -7 -9 -4 -18 7 -21
14 -7 14 6 0 13 -4 16 -10z"/>
<path fill="#ffffff" stroke="none" d="M152 241 c1 -17 5 -31 11 -31 5 0 7 14
5 30 -3 17 -1 33 4 36 4 3 8 -4 8 -15 0 -12 5 -21 11 -21 6 0 9 7 5 15 -3 8
-1 15 4 15 12 0 70 -50 70 -61 0 -5 -49 -9 -108 -9 -100 0 -110 2 -128 22 -13
16 -14 19 -2 10 12 -10 18 -10 23 -1 8 12 87 50 93 44 2 -1 4 -17 4 -34z"/>
<path fill="#ffffff" stroke="none" d="M150 156 c0 -30 -3 -34 -22 -30 -13 2
-16 1 -8 -2 23 -10 27 -22 26 -66 -1 -41 -25 -68 -27 -31 -1 16 -2 16 -6 0 -5
-19 -19 -22 -29 -6 -4 8 -9 7 -15 -2 -9 -14 -11 -9 -11 26 0 40 4 50 12 25 8
-24 8 -24 9 -2 1 12 7 22 16 22 9 0 15 -9 15 -22 0 -23 1 -23 13 2 12 24 12
25 -27 30 -33 4 -40 9 -42 30 -5 50 4 60 52 60 43 0 44 0 44 -34z"/>
<path fill="#ffffff" stroke="none" d="M263 173 c3 -10 4 -29 3 -43 -2 -22 -8
-26 -47 -30 -27 -3 -45 -11 -47 -19 -3 -12 0 -12 12 -1 13 10 16 10 17 -1 0
-10 2 -11 6 -1 7 18 33 15 34 -5 0 -15 2 -15 9 2 8 17 9 18 11 3 1 -10 2 -24
3 -30 4 -23 -7 -32 -15 -12 -7 17 -8 17 -8 2 -1 -20 -31 -25 -31 -5 0 6 -5 4
-11 -5 -5 -10 -16 -18 -23 -18 -11 0 -14 21 -14 90 l0 90 48 0 c38 0 50 -4 53
-17z"/>
<path fill="#000000" stroke="none" d="M120 250 c0 -5 5 -10 10 -10 6 0 10 5
10 10 0 6 -4 10 -10 10 -5 0 -10 -4 -10 -10z"/>
<path fill="#000000" stroke="none" d="M213 230 c-1 -11 2 -20 8 -20 5 0 9 9
9 20 0 11 -4 20 -8 20 -4 0 -8 -9 -9 -20z"/>
<path fill="#000000" stroke="none" d="M65 220 c-3 -5 -1 -10 4 -10 6 0 11 5
11 10 0 6 -2 10 -4 10 -3 0 -8 -4 -11 -10z"/>
<path fill="#000000" stroke="none" d="M90 220 c0 -5 5 -10 10 -10 6 0 10 5
10 10 0 6 -4 10 -10 10 -5 0 -10 -4 -10 -10z"/>
<path fill="#000000" stroke="none" d="M120 220 c0 -5 5 -10 10 -10 6 0 10 5
10 10 0 6 -4 10 -10 10 -5 0 -10 -4 -10 -10z"/>
<path fill="#000000" stroke="none" d="M180 220 c0 -5 5 -10 10 -10 6 0 10 5
10 10 0 6 -4 10 -10 10 -5 0 -10 -4 -10 -10z"/>
<path fill="#000000" stroke="none" d="M240 220 c0 -5 5 -10 11 -10 5 0 7 5 4
10 -3 6 -8 10 -11 10 -2 0 -4 -4 -4 -10z"/>
</g>
</svg>
