<?xml version="1.0" standalone="no"?>
<!DOCTYPE svg PUBLIC "-//W3C//DTD SVG 20010904//EN"
 "http://www.w3.org/TR/2001/REC-SVG-20010904/DTD/svg10.dtd">
<svg version="1.0" xmlns="http://www.w3.org/2000/svg"
 width="32.000000pt" height="32.000000pt" viewBox="0 0 32.000000 32.000000"
 preserveAspectRatio="xMidYMid meet">
<metadata>
Created by potrace 1.16, written by Peter Selinger 2001-2019
</metadata>
<g transform="translate(0.000000,32.000000) scale(0.100000,-0.100000)"
fill="#000000" stroke="none">
<path fill="#000000" stroke="none" d="M0 160 l0 -160 160 0 160 0 0 160 0
160 -160 0 -160 0 0 -160z"/>
<path fill="#ffffff" stroke="none" d="M310 160 l0 -151 -150 2 -150 1 0 149
0 149 150 0 150 0 0 -150z"/>
<path fill="#000000" stroke="none" d="M93 269 c-46 -29 -41 -36 5 -8 46 28
47 29 36 29 -5 0 -24 -10 -41 -21z"/>
<path fill="#000000" stroke="none" d="M210 269 c19 -12 43 -28 53 -37 9 -8
17 -12 17 -9 0 10 -81 67 -94 67 -6 0 5 -10 24 -21z"/>
<path fill="#000000" stroke="none" d="M34 216 c-3 -8 -4 -23 -2 -33 3 -11 6
-6 9 15 6 34 2 42 -7 18z"/>
<path fill="#000000" stroke="none" d="M33 125 c0 -22 2 -30 4 -17 2 12 2 30
0 40 -3 9 -5 -1 -4 -23z"/>
<path fill="#000000" stroke="none" d="M31 44 c0 -11 3 -14 6 -6 3 7 2 16 -1
19 -3 4 -6 -2 -5 -13z"/>
</g>
</svg>
