<?xml version="1.0" standalone="no"?>
<!DOCTYPE svg PUBLIC "-//W3C//DTD SVG 20010904//EN"
 "http://www.w3.org/TR/2001/REC-SVG-20010904/DTD/svg10.dtd">
<svg version="1.0" xmlns="http://www.w3.org/2000/svg"
 width="32.000000pt" height="32.000000pt" viewBox="0 0 32.000000 32.000000"
 preserveAspectRatio="xMidYMid meet">
<metadata>
Created by potrace 1.16, written by Peter Selinger 2001-2019
</metadata>
<g transform="translate(0.000000,32.000000) scale(0.100000,-0.100000)"
fill="#000000" stroke="none">
<path fill="#000000" stroke="none" d="M0 301 c0 -11 8 -22 18 -24 16 -4 16
-5 0 -6 -16 -1 -18 -15 -18 -136 l0 -135 160 0 160 0 0 160 0 160 -160 0
c-151 0 -160 -1 -160 -19z"/>
<path fill="#ffffff" stroke="none" d="M289 256 c-2 -30 -2 -30 -6 -3 -4 24
-9 27 -41 27 l-36 0 34 -35 c18 -19 37 -32 42 -29 4 3 8 0 8 -5 0 -19 -15 -12
-50 24 -19 19 -40 35 -47 35 -11 0 -11 3 -2 13 7 7 29 11 55 8 42 -3 44 -4 43
-35z"/>
<path fill="#ffffff" stroke="none" d="M158 273 c-10 -2 -26 -2 -35 0 -10 3
-2 5 17 5 19 0 27 -2 18 -5z"/>
<path fill="#ffffff" stroke="none" d="M158 174 l-3 -69 -5 77 c-3 42 -1 73 3
69 4 -4 7 -39 5 -77z"/>
<path fill="#ffffff" stroke="none" d="M73 39 c-4 -5 -6 42 -3 104 l5 112 3
-104 c1 -57 -1 -108 -5 -112z"/>
<path fill="#ffffff" stroke="none" d="M217 178 c-2 -13 -4 -5 -4 17 -1 22 1
32 4 23 2 -10 2 -28 0 -40z"/>
<path fill="#ffffff" stroke="none" d="M277 133 c-3 -10 -5 -4 -5 12 0 17 2
24 5 18 2 -7 2 -21 0 -30z"/>
<path fill="#ffffff" stroke="none" d="M217 78 c-2 -13 -4 -3 -4 22 0 25 2 35
4 23 2 -13 2 -33 0 -45z"/>
<path fill="#ffffff" stroke="none" d="M290 65 c0 -44 -1 -45 -32 -45 -39 0
-66 14 -49 24 6 4 11 2 11 -4 0 -6 12 -10 28 -8 23 3 27 8 30 41 4 51 12 47
12 -8z"/>
<path fill="#ffffff" stroke="none" d="M160 45 c0 -8 -4 -15 -10 -15 -5 0 -7
7 -4 15 4 8 8 15 10 15 2 0 4 -7 4 -15z"/>
</g>
</svg>
