<?xml version="1.0" standalone="no"?>
<!DOCTYPE svg PUBLIC "-//W3C//DTD SVG 20010904//EN"
 "http://www.w3.org/TR/2001/REC-SVG-20010904/DTD/svg10.dtd">
<svg version="1.0" xmlns="http://www.w3.org/2000/svg"
 width="32.000000pt" height="32.000000pt" viewBox="0 0 32.000000 32.000000"
 preserveAspectRatio="xMidYMid meet">
<metadata>
Created by potrace 1.16, written by Peter Selinger 2001-2019
</metadata>
<g transform="translate(0.000000,32.000000) scale(0.100000,-0.100000)"
fill="#000000" stroke="none">
<path fill="#000000" stroke="none" d="M0 160 c0 -153 1 -160 20 -160 11 0 20
4 20 10 0 5 -7 7 -15 4 -13 -5 -15 15 -15 145 l0 150 158 4 157 3 -162 2 -163
2 0 -160z"/>
<path fill="#000000" stroke="none" d="M96 271 c-28 -19 -30 -23 -27 -78 5
-105 31 -108 119 -17 l64 66 33 -32 c38 -37 44 -16 7 23 -24 26 -29 52 -9 44
8 -3 20 -1 28 4 9 5 -23 9 -86 9 -82 0 -105 -4 -129 -19z"/>
<path fill="#ffffff" stroke="none" d="M245 262 c3 -9 1 -18 -5 -20 -6 -2 -16
-11 -23 -19 -26 -32 -64 -73 -68 -73 -3 0 -6 12 -7 27 -1 15 -7 32 -13 38 -8
7 -10 -4 -7 -43 5 -49 4 -53 -16 -50 -18 3 -21 11 -24 61 -4 60 10 92 35 83 7
-3 13 -1 13 3 0 5 24 9 54 10 42 0 56 -4 61 -17z"/>
<path fill="#ffffff" stroke="none" d="M295 220 c10 -11 16 -20 13 -20 -3 0
-13 9 -23 20 -10 11 -16 20 -13 20 3 0 13 -9 23 -20z"/>
<path fill="#000000" stroke="none" d="M208 244 c-7 -9 -23 -27 -36 -41 -13
-14 -21 -27 -19 -29 2 -2 22 16 44 41 22 25 37 45 32 45 -5 0 -14 -7 -21 -16z"/>
<path fill="#000000" stroke="none" d="M97 147 c-3 -8 1 -14 8 -14 7 0 11 6 8
14 -3 7 -6 13 -8 13 -2 0 -5 -6 -8 -13z"/>
<path fill="#000000" stroke="none" d="M34 216 c-3 -8 -4 -23 -2 -33 3 -11 6
-6 9 15 6 34 2 42 -7 18z"/>
<path fill="#000000" stroke="none" d="M33 125 c0 -22 2 -30 4 -17 2 12 2 30
0 40 -3 9 -5 -1 -4 -23z"/>
<path fill="#000000" stroke="none" d="M183 100 c-37 -15 -26 -30 22 -30 25 0
45 -4 45 -10 0 -5 6 -10 14 -10 23 0 28 -17 6 -23 -11 -3 -18 0 -17 5 1 6 -7
12 -18 13 -11 1 -33 6 -50 10 -16 4 -50 8 -75 9 -35 1 -45 -3 -48 -16 -2 -12
6 -22 25 -29 36 -15 196 -22 188 -9 -3 6 1 10 10 10 9 0 13 -4 10 -10 -3 -5
-1 -10 5 -10 19 0 24 32 7 45 -10 7 -17 21 -17 33 0 31 -56 43 -107 22z"/>
<path fill="#ffffff" stroke="none" d="M250 90 c-8 -5 -31 -9 -50 -9 -29 0
-31 2 -15 9 11 5 34 9 50 9 23 1 26 -2 15 -9z"/>
<path fill="#ffffff" stroke="none" d="M165 47 c51 -14 51 -20 0 -31 -23 -5
-27 -4 -15 5 12 9 11 10 -8 6 -13 -3 -20 -1 -16 5 4 6 -4 8 -22 6 -16 -3 -22
-3 -14 0 12 4 11 6 -5 13 -34 13 23 11 80 -4z"/>
<path fill="#000000" stroke="none" d="M31 44 c0 -11 3 -14 6 -6 3 7 2 16 -1
19 -3 4 -6 -2 -5 -13z"/>
</g>
</svg>
