<?xml version="1.0" standalone="no"?>
<!DOCTYPE svg PUBLIC "-//W3C//DTD SVG 20010904//EN"
 "http://www.w3.org/TR/2001/REC-SVG-20010904/DTD/svg10.dtd">
<svg version="1.0" xmlns="http://www.w3.org/2000/svg"
 width="32.000000pt" height="32.000000pt" viewBox="0 0 32.000000 32.000000"
 preserveAspectRatio="xMidYMid meet">
<metadata>
Created by potrace 1.16, written by Peter Selinger 2001-2019
</metadata>
<g transform="translate(0.000000,32.000000) scale(0.100000,-0.100000)"
fill="#000000" stroke="none">
<path fill="#000000" stroke="none" d="M1 174 c-2 -140 4 -174 30 -174 5 0 9
38 9 85 l0 85 143 2 142 2 -140 6 -140 6 140 4 140 4 -140 6 c-109 5 -123 7
-65 9 41 2 103 4 137 4 l63 0 -2 54 -2 53 -157 0 -157 0 -1 -146z"/>
<path fill="#ffffff" stroke="none" d="M133 232 c-13 -2 -35 -2 -50 0 -27 4
-26 5 17 26 l45 21 6 -22 c4 -17 0 -23 -18 -25z"/>
<path fill="#ffffff" stroke="none" d="M192 240 c5 0 8 7 5 15 -4 8 -2 17 2
20 5 2 11 -6 13 -20 4 -21 1 -25 -17 -25 -22 0 -40 31 -26 45 3 4 7 -3 9 -14
2 -12 8 -21 14 -21z"/>
<path fill="#ffffff" stroke="none" d="M252 240 c5 0 8 7 5 15 -4 8 -2 17 2
20 5 2 11 -6 13 -20 4 -21 1 -25 -17 -25 -22 0 -40 31 -26 45 3 4 7 -3 9 -14
2 -12 8 -21 14 -21z"/>
<path fill="#ffffff" stroke="none" d="M302 255 c6 -29 -7 -34 -15 -6 -4 17 0
31 9 31 1 0 4 -11 6 -25z"/>
<path fill="#000000" stroke="none" d="M120 250 c0 -5 5 -10 10 -10 6 0 10 5
10 10 0 6 -4 10 -10 10 -5 0 -10 -4 -10 -10z"/>
</g>
</svg>
