<?xml version="1.0" standalone="no"?>
<!DOCTYPE svg PUBLIC "-//W3C//DTD SVG 20010904//EN"
 "http://www.w3.org/TR/2001/REC-SVG-20010904/DTD/svg10.dtd">
<svg version="1.0" xmlns="http://www.w3.org/2000/svg"
 width="32.000000pt" height="32.000000pt" viewBox="0 0 32.000000 32.000000"
 preserveAspectRatio="xMidYMid meet">
<metadata>
Created by potrace 1.16, written by Peter Selinger 2001-2019
</metadata>
<g transform="translate(0.000000,32.000000) scale(0.100000,-0.100000)"
fill="#000000" stroke="none">
<path fill="#000000" stroke="none" d="M15 310 c15 -7 16 -9 4 -9 -25 -1 -27
-136 -2 -145 23 -9 33 11 31 67 0 26 2 50 5 53 3 3 5 -18 5 -46 1 -61 10 -110
22 -110 15 0 33 31 39 68 6 34 9 36 43 38 24 2 37 -2 35 -9 -1 -7 5 -11 13
-10 10 2 21 -10 29 -33 7 -19 19 -38 27 -41 10 -4 14 -24 15 -72 0 -36 3 -60
6 -53 2 6 10 12 16 12 9 0 12 40 12 140 0 117 -2 140 -15 141 -10 0 -8 3 5 9
12 5 -44 9 -145 9 -101 0 -157 -4 -145 -9z"/>
<path fill="#ffffff" stroke="none" d="M120 306 c0 -2 -7 -7 -16 -10 -8 -3
-12 -2 -9 4 6 10 25 14 25 6z"/>
<path fill="#ffffff" stroke="none" d="M225 300 c3 -6 -1 -7 -9 -4 -18 7 -21
14 -7 14 6 0 13 -4 16 -10z"/>
<path fill="#ffffff" stroke="none" d="M33 250 c-3 -11 -9 -20 -15 -20 -5 0
-4 8 1 19 6 10 7 22 3 26 -4 5 -2 5 5 2 6 -4 9 -16 6 -27z"/>
<path fill="#ffffff" stroke="none" d="M93 250 c-7 -28 -13 -25 -13 6 0 14 4
23 9 20 5 -3 7 -15 4 -26z"/>
<path fill="#ffffff" stroke="none" d="M125 271 c3 -5 1 -12 -5 -16 -5 -3 -10
1 -10 9 0 18 6 21 15 7z"/>
<path fill="#ffffff" stroke="none" d="M153 250 c-7 -28 -13 -25 -13 6 0 14 4
23 9 20 5 -3 7 -15 4 -26z"/>
<path fill="#ffffff" stroke="none" d="M252 242 c4 -4 -7 -13 -25 -20 -27 -10
-29 -9 -14 2 21 16 22 30 2 22 -8 -3 -15 -1 -15 4 0 17 -18 11 -23 -7 -3 -10
-4 -6 -4 9 1 26 1 26 37 12 19 -8 38 -18 42 -22z"/>
<path fill="#ffffff" stroke="none" d="M127 234 c-3 -3 -12 -4 -19 -1 -8 3 -5
6 6 6 11 1 17 -2 13 -5z"/>
<path fill="#ffffff" stroke="none" d="M40 189 c0 -11 -4 -17 -10 -14 -5 3
-10 15 -10 26 0 11 5 17 10 14 6 -3 10 -15 10 -26z"/>
<path fill="#ffffff" stroke="none" d="M101 211 c6 10 9 4 9 -17 0 -17 -6 -37
-14 -43 -12 -10 -15 -6 -21 18 -7 32 4 68 13 42 4 -11 6 -11 13 0z"/>
<path fill="#ffffff" stroke="none" d="M276 187 c-3 -12 -5 -24 -6 -27 0 -3
-7 6 -15 20 -9 18 -10 27 -2 32 17 10 27 -1 23 -25z"/>
<path fill="#000000" stroke="none" d="M181 87 c-15 -19 -4 -27 40 -27 34 0
57 19 42 34 -12 11 -71 6 -82 -7z"/>
<path fill="#ffffff" stroke="none" d="M245 80 c-3 -5 -21 -10 -38 -10 -24 0
-28 3 -17 10 20 13 63 13 55 0z"/>
<path fill="#000000" stroke="none" d="M120 79 c0 -5 9 -9 20 -9 11 0 20 2 20
4 0 2 -9 6 -20 9 -11 3 -20 1 -20 -4z"/>
<path fill="#000000" stroke="none" d="M0 70 c0 -6 7 -10 15 -10 8 0 15 2 15
4 0 2 -7 6 -15 10 -8 3 -15 1 -15 -4z"/>
<path fill="#000000" stroke="none" d="M40 40 c0 -18 7 -20 54 -20 30 0 57 4
61 9 9 15 -29 31 -74 31 -34 0 -41 -3 -41 -20z"/>
<path fill="#ffffff" stroke="none" d="M141 39 c9 -6 0 -9 -26 -9 -22 0 -47 4
-55 10 -10 6 -2 9 27 8 22 0 47 -4 54 -9z"/>
<path fill="#000000" stroke="none" d="M217 44 c-14 -14 -7 -25 13 -22 12 2
21 8 21 13 0 12 -24 18 -34 9z"/>
</g>
</svg>
