<?xml version="1.0" standalone="no"?>
<!DOCTYPE svg PUBLIC "-//W3C//DTD SVG 20010904//EN"
 "http://www.w3.org/TR/2001/REC-SVG-20010904/DTD/svg10.dtd">
<svg version="1.0" xmlns="http://www.w3.org/2000/svg"
 width="32.000000pt" height="32.000000pt" viewBox="0 0 32.000000 32.000000"
 preserveAspectRatio="xMidYMid meet">
<metadata>
Created by potrace 1.16, written by Peter Selinger 2001-2019
</metadata>
<g transform="translate(0.000000,32.000000) scale(0.100000,-0.100000)"
fill="#000000" stroke="none">
<path fill="#000000" stroke="none" d="M2 286 c1 -14 6 -22 10 -20 5 3 6 10 3
15 -4 5 21 9 59 9 36 0 69 0 74 0 4 0 7 -13 7 -29 0 -16 3 -33 7 -37 4 -3 6 3
3 14 -2 12 1 24 6 28 6 3 5 12 -3 21 -11 14 -10 15 12 8 37 -11 71 -35 65 -45
-3 -5 -1 -11 3 -14 10 -6 10 -46 0 -61 -4 -7 -54 -10 -127 -10 -66 0 -118 -2
-115 -5 3 -3 60 -5 127 -5 l122 0 1 -25 c0 -14 -3 -30 -7 -35 -5 -6 -56 -10
-128 -10 -66 0 -118 -2 -115 -5 3 -3 60 -5 127 -5 l122 0 -1 -31 c0 -17 5 -31
11 -31 7 0 11 12 10 26 -3 35 4 44 21 30 12 -9 14 -5 14 30 0 24 -5 41 -11 41
-8 0 -9 -11 -5 -31 5 -26 3 -29 -7 -20 -16 13 -16 66 0 66 6 0 15 4 20 9 4 5
3 6 -3 3 -7 -4 -17 0 -24 8 -7 8 -9 15 -5 15 4 0 2 7 -5 15 -7 8 -9 15 -5 15
4 0 2 7 -5 15 -11 13 -9 15 8 12 12 -2 25 -7 29 -12 5 -4 2 -5 -5 -1 -14 8
-15 5 -6 -18 3 -9 10 -16 15 -16 11 0 0 81 -13 98 -8 8 -50 12 -149 12 l-139
0 2 -24z"/>
<path fill="#ffffff" stroke="none" d="M274 159 c-3 -5 -10 -7 -15 -3 -5 3 -7
10 -3 15 3 5 10 7 15 3 5 -3 7 -10 3 -15z"/>
<path fill="#ffffff" stroke="none" d="M274 79 c-3 -5 -10 -7 -15 -3 -5 3 -7
10 -3 15 3 5 10 7 15 3 5 -3 7 -10 3 -15z"/>
<path fill="#000000" stroke="none" d="M197 27 c-3 -8 1 -14 8 -14 7 0 11 6 8
14 -3 7 -6 13 -8 13 -2 0 -5 -6 -8 -13z"/>
</g>
</svg>
