<?xml version="1.0" standalone="no"?>
<!DOCTYPE svg PUBLIC "-//W3C//DTD SVG 20010904//EN"
 "http://www.w3.org/TR/2001/REC-SVG-20010904/DTD/svg10.dtd">
<svg version="1.0" xmlns="http://www.w3.org/2000/svg"
 width="32.000000pt" height="32.000000pt" viewBox="0 0 32.000000 32.000000"
 preserveAspectRatio="xMidYMid meet">
<metadata>
Created by potrace 1.16, written by Peter Selinger 2001-2019
</metadata>
<g transform="translate(0.000000,32.000000) scale(0.100000,-0.100000)"
fill="#000000" stroke="none">
<path fill="#000000" stroke="none" d="M0 258 l0 -62 30 29 c17 16 30 35 30
43 0 8 27 -14 60 -49 33 -35 60 -59 61 -54 0 6 4 0 9 -12 9 -21 24 -24 48 -10
7 5 12 28 12 54 0 39 2 44 15 33 12 -10 15 -37 15 -121 0 -102 1 -109 20 -109
19 0 20 7 20 160 l0 160 -160 0 -160 0 0 -62z"/>
<path fill="#000000" stroke="none" d="M52 103 c-10 -4 -10 -8 -1 -19 13 -16
95 -19 104 -4 12 19 -68 37 -103 23z"/>
<path fill="#000000" stroke="none" d="M148 57 c-51 -13 -61 -25 -35 -41 18
-12 137 22 140 39 3 14 -50 15 -105 2z"/>
<path fill="#000000" stroke="none" d="M25 46 c-19 -14 -19 -15 -1 -22 20 -8
52 7 49 22 -3 15 -27 15 -48 0z"/>
</g>
</svg>
