<?xml version="1.0" standalone="no"?>
<!DOCTYPE svg PUBLIC "-//W3C//DTD SVG 20010904//EN"
 "http://www.w3.org/TR/2001/REC-SVG-20010904/DTD/svg10.dtd">
<svg version="1.0" xmlns="http://www.w3.org/2000/svg"
 width="32.000000pt" height="32.000000pt" viewBox="0 0 32.000000 32.000000"
 preserveAspectRatio="xMidYMid meet">
<metadata>
Created by potrace 1.16, written by Peter Selinger 2001-2019
</metadata>
<g transform="translate(0.000000,32.000000) scale(0.100000,-0.100000)"
fill="#000000" stroke="none">
<path fill="#000000" stroke="none" d="M0 299 c0 -5 5 -7 10 -4 5 3 10 8 10
11 0 2 -4 4 -10 4 -5 0 -10 -5 -10 -11z"/>
<path fill="#000000" stroke="none" d="M30 302 c0 -12 68 -13 75 -2 4 6 -11
10 -34 10 -23 0 -41 -4 -41 -8z"/>
<path fill="#000000" stroke="none" d="M120 302 c0 -5 14 -9 30 -10 17 0 30 4
30 9 0 5 -13 9 -30 9 -16 0 -30 -4 -30 -8z"/>
<path fill="#000000" stroke="none" d="M190 306 c0 -2 17 -14 38 -26 l37 -21
-27 25 c-24 23 -48 34 -48 22z"/>
<path fill="#000000" stroke="none" d="M92 195 l-2 -40 63 1 c77 1 87 2 87 12
0 4 -31 6 -69 4 l-70 -4 -4 34 c-4 31 -4 31 -5 -7z"/>
<path fill="#000000" stroke="none" d="M252 193 c-2 -40 9 -56 23 -33 3 6 2
10 -4 10 -5 0 -12 15 -14 33 -3 28 -4 26 -5 -10z"/>
<path fill="#000000" stroke="none" d="M38 172 c-21 -2 -38 -7 -38 -13 0 -13
67 -11 75 2 9 14 6 15 -37 11z"/>
<path fill="#000000" stroke="none" d="M91 114 c0 -11 3 -14 6 -6 3 7 2 16 -1
19 -3 4 -6 -2 -5 -13z"/>
<path fill="#000000" stroke="none" d="M251 114 c0 -11 3 -14 6 -6 3 7 2 16
-1 19 -3 4 -6 -2 -5 -13z"/>
<path fill="#000000" stroke="none" d="M290 123 c0 -4 5 -15 10 -23 8 -13 10
-13 10 2 0 9 -4 20 -10 23 -5 3 -10 3 -10 -2z"/>
<path fill="#000000" stroke="none" d="M38 92 c-21 -2 -38 -7 -38 -11 0 -8 69
-5 78 4 9 8 -1 10 -40 7z"/>
<path fill="#000000" stroke="none" d="M163 92 c-40 -2 -73 -6 -73 -10 0 -9
138 -7 147 2 10 10 1 11 -74 8z"/>
<path fill="#000000" stroke="none" d="M250 80 c0 -5 4 -10 9 -10 6 0 13 5 16
10 3 6 -1 10 -9 10 -9 0 -16 -4 -16 -10z"/>
<path fill="#000000" stroke="none" d="M91 44 c0 -11 3 -14 6 -6 3 7 2 16 -1
19 -3 4 -6 -2 -5 -13z"/>
<path fill="#000000" stroke="none" d="M201 44 c0 -11 3 -14 6 -6 3 7 2 16 -1
19 -3 4 -6 -2 -5 -13z"/>
<path fill="#000000" stroke="none" d="M251 44 c0 -11 3 -14 6 -6 3 7 2 16 -1
19 -3 4 -6 -2 -5 -13z"/>
</g>
</svg>
