<?xml version="1.0" standalone="no"?>
<!DOCTYPE svg PUBLIC "-//W3C//DTD SVG 20010904//EN"
 "http://www.w3.org/TR/2001/REC-SVG-20010904/DTD/svg10.dtd">
<svg version="1.0" xmlns="http://www.w3.org/2000/svg"
 width="32.000000pt" height="32.000000pt" viewBox="0 0 32.000000 32.000000"
 preserveAspectRatio="xMidYMid meet">
<metadata>
Created by potrace 1.16, written by Peter Selinger 2001-2019
</metadata>
<g transform="translate(0.000000,32.000000) scale(0.100000,-0.100000)"
fill="#000000" stroke="none">
<path fill="#000000" stroke="none" d="M22 250 c0 -14 2 -19 5 -12 2 6 2 18 0
25 -3 6 -5 1 -5 -13z"/>
<path fill="#000000" stroke="none" d="M50 250 c0 -11 4 -20 9 -20 5 0 7 9 4
20 -3 11 -7 20 -9 20 -2 0 -4 -9 -4 -20z"/>
<path fill="#000000" stroke="none" d="M82 250 c0 -14 2 -19 5 -12 2 6 2 18 0
25 -3 6 -5 1 -5 -13z"/>
<path fill="#000000" stroke="none" d="M110 250 c0 -11 4 -20 9 -20 5 0 7 9 4
20 -3 11 -7 20 -9 20 -2 0 -4 -9 -4 -20z"/>
<path fill="#000000" stroke="none" d="M142 250 c0 -14 2 -19 5 -12 2 6 2 18
0 25 -3 6 -5 1 -5 -13z"/>
<path fill="#000000" stroke="none" d="M170 250 c0 -11 4 -20 9 -20 5 0 7 9 4
20 -3 11 -7 20 -9 20 -2 0 -4 -9 -4 -20z"/>
<path fill="#000000" stroke="none" d="M197 249 c6 -22 20 -26 20 -4 0 8 -6
16 -13 19 -7 3 -10 -2 -7 -15z"/>
<path fill="#000000" stroke="none" d="M230 240 c0 -5 5 -10 11 -10 5 0 7 5 4
10 -3 6 -8 10 -11 10 -2 0 -4 -4 -4 -10z"/>
<path fill="#000000" stroke="none" d="M7 203 c7 -2 19 -2 26 0 6 3 1 5 -13 5
-14 0 -19 -2 -13 -5z"/>
<path fill="#000000" stroke="none" d="M83 203 c20 -2 54 -2 75 0 20 2 3 4
-38 4 -41 0 -58 -2 -37 -4z"/>
<path fill="#000000" stroke="none" d="M83 183 c9 -2 25 -2 35 0 9 3 1 5 -18
5 -19 0 -27 -2 -17 -5z"/>
<path fill="#000000" stroke="none" d="M0 85 l0 -85 140 0 140 0 0 85 0 85
-140 0 -140 0 0 -85z"/>
</g>
</svg>
