<?xml version="1.0" standalone="no"?>
<!DOCTYPE svg PUBLIC "-//W3C//DTD SVG 20010904//EN"
 "http://www.w3.org/TR/2001/REC-SVG-20010904/DTD/svg10.dtd">
<svg version="1.0" xmlns="http://www.w3.org/2000/svg"
 width="32.000000pt" height="32.000000pt" viewBox="0 0 32.000000 32.000000"
 preserveAspectRatio="xMidYMid meet">
<metadata>
Created by potrace 1.16, written by Peter Selinger 2001-2019
</metadata>
<g transform="translate(0.000000,32.000000) scale(0.100000,-0.100000)"
fill="#000000" stroke="none">
<path fill="#000000" stroke="none" d="M65 279 c-49 -4 -22 -6 93 -7 104 -1
162 2 162 8 0 11 -121 10 -255 -1z"/>
<path fill="#000000" stroke="none" d="M65 145 c0 -63 3 -115 7 -115 11 0 18
80 14 150 -5 82 -5 80 -13 80 -5 0 -8 -52 -8 -115z"/>
<path fill="#000000" stroke="none" d="M145 145 c0 -67 4 -116 10 -119 6 -2
10 39 10 112 0 68 -4 117 -10 119 -6 2 -10 -40 -10 -112z"/>
<path fill="#000000" stroke="none" d="M225 145 c0 -78 4 -115 11 -115 8 0 10
28 8 89 -3 49 0 101 6 115 8 22 7 26 -8 26 -15 0 -17 -13 -17 -115z"/>
<path fill="#000000" stroke="none" d="M305 140 c0 -66 3 -120 8 -120 4 0 7
54 7 120 0 66 -3 120 -7 120 -5 0 -8 -54 -8 -120z"/>
<path fill="#000000" stroke="none" d="M1 164 c0 -11 3 -14 6 -6 3 7 2 16 -1
19 -3 4 -6 -2 -5 -13z"/>
<path fill="#000000" stroke="none" d="M3 70 c0 -25 2 -35 4 -22 2 12 2 32 0
45 -2 12 -4 2 -4 -23z"/>
</g>
</svg>
