<?xml version="1.0" standalone="no"?>
<!DOCTYPE svg PUBLIC "-//W3C//DTD SVG 20010904//EN"
 "http://www.w3.org/TR/2001/REC-SVG-20010904/DTD/svg10.dtd">
<svg version="1.0" xmlns="http://www.w3.org/2000/svg"
 width="32.000000pt" height="32.000000pt" viewBox="0 0 32.000000 32.000000"
 preserveAspectRatio="xMidYMid meet">
<metadata>
Created by potrace 1.16, written by Peter Selinger 2001-2019
</metadata>
<g transform="translate(0.000000,32.000000) scale(0.100000,-0.100000)"
fill="#000000" stroke="none">
<path fill="#000000" stroke="none" d="M0 301 c0 -11 8 -22 18 -24 16 -4 16
-5 0 -6 -16 -1 -18 -15 -18 -136 l0 -135 160 0 160 0 0 135 0 134 -67 4 -68 3
68 2 c60 2 67 4 67 22 0 19 -7 20 -160 20 -151 0 -160 -1 -160 -19z"/>
<path fill="#ffffff" stroke="none" d="M158 273 c-10 -2 -26 -2 -35 0 -10 3
-2 5 17 5 19 0 27 -2 18 -5z"/>
</g>
</svg>
