<?xml version="1.0" standalone="no"?>
<!DOCTYPE svg PUBLIC "-//W3C//DTD SVG 20010904//EN"
 "http://www.w3.org/TR/2001/REC-SVG-20010904/DTD/svg10.dtd">
<svg version="1.0" xmlns="http://www.w3.org/2000/svg"
 width="32.000000pt" height="32.000000pt" viewBox="0 0 32.000000 32.000000"
 preserveAspectRatio="xMidYMid meet">
<metadata>
Created by potrace 1.16, written by Peter Selinger 2001-2019
</metadata>
<g transform="translate(0.000000,32.000000) scale(0.100000,-0.100000)"
fill="#000000" stroke="none">
<path fill="#000000" stroke="none" d="M0 160 l0 -160 160 0 160 0 0 144 c0
128 -2 145 -18 151 -16 7 -15 8 3 15 12 5 -47 9 -142 9 l-163 1 0 -160z"/>
<path fill="#ffffff" stroke="none" d="M44 289 c-19 -22 -19 -22 4 -8 12 8 22
17 22 21 0 5 14 8 30 8 34 0 40 -15 10 -23 -13 -3 -18 -1 -13 6 11 18 -49 -31
-62 -51 -6 -9 -11 -30 -10 -45 1 -15 -2 -30 -7 -33 -4 -3 -8 29 -8 70 0 76 0
76 27 76 26 0 26 0 7 -21z"/>
<path fill="#ffffff" stroke="none" d="M205 300 c-3 -5 -17 -10 -30 -10 -13 0
-27 5 -30 10 -4 6 8 10 30 10 22 0 34 -4 30 -10z"/>
<path fill="#ffffff" stroke="none" d="M280 301 c0 -5 -13 -9 -30 -9 -16 1
-30 5 -30 10 0 4 14 8 30 8 17 0 30 -4 30 -9z"/>
<path fill="#ffffff" stroke="none" d="M29 70 c0 -23 -1 -23 -9 -5 -5 11 -9
29 -9 40 -1 17 1 17 9 5 5 -8 9 -26 9 -40z"/>
</g>
</svg>
