<?xml version="1.0" standalone="no"?>
<!DOCTYPE svg PUBLIC "-//W3C//DTD SVG 20010904//EN"
 "http://www.w3.org/TR/2001/REC-SVG-20010904/DTD/svg10.dtd">
<svg version="1.0" xmlns="http://www.w3.org/2000/svg"
 width="32.000000pt" height="32.000000pt" viewBox="0 0 32.000000 32.000000"
 preserveAspectRatio="xMidYMid meet">
<metadata>
Created by potrace 1.16, written by Peter Selinger 2001-2019
</metadata>
<g transform="translate(0.000000,32.000000) scale(0.100000,-0.100000)"
fill="#000000" stroke="none">
<path fill="#000000" stroke="none" d="M135 310 c-3 -5 -3 -10 0 -10 3 0 -1
-10 -9 -21 -14 -20 -13 -23 7 -40 l22 -19 -27 13 c-16 6 -28 15 -28 20 0 4
-12 7 -26 7 l-25 0 21 -30 c12 -16 32 -33 46 -36 13 -3 21 -10 18 -15 -3 -5 0
-9 5 -9 6 0 11 -8 11 -18 0 -24 -46 -50 -61 -35 -8 8 -5 14 11 23 12 6 19 14
16 17 -3 3 -26 -7 -51 -21 -25 -15 -50 -24 -55 -21 -6 4 -10 -17 -10 -54 l0
-61 76 0 c62 0 79 3 90 18 12 16 13 16 19 0 6 -14 19 -18 59 -18 36 0 47 3 36
10 -13 8 -13 10 1 10 13 0 18 11 20 44 2 24 1 42 -3 39 -5 -2 -8 19 -8 46 0
28 4 51 8 51 4 0 6 15 4 34 -2 18 1 37 7 40 6 4 11 16 11 27 0 17 -6 19 -42
15 -24 -2 -60 -7 -80 -11 -26 -5 -38 -4 -38 4 0 14 -17 14 -25 1z"/>
<path fill="#ffffff" stroke="none" d="M310 300 c0 -15 -42 -70 -53 -70 -5 0
-4 6 2 13 6 8 8 17 4 20 -7 8 25 47 39 47 4 0 8 -5 8 -10z"/>
<path fill="#ffffff" stroke="none" d="M188 263 c-10 -2 -26 -2 -35 0 -10 3
-2 5 17 5 19 0 27 -2 18 -5z"/>
<path fill="#ffffff" stroke="none" d="M250 215 c7 -9 8 -15 2 -15 -5 0 -12 7
-16 15 -3 8 -4 15 -2 15 2 0 9 -7 16 -15z"/>
<path fill="#ffffff" stroke="none" d="M240 186 c0 -2 -7 -7 -16 -10 -8 -3
-12 -2 -9 4 6 10 25 14 25 6z"/>
<path fill="#ffffff" stroke="none" d="M209 112 c-14 -5 -39 18 -39 35 0 11 7
9 25 -8 13 -13 20 -26 14 -27z"/>
<path fill="#ffffff" stroke="none" d="M260 136 c0 -2 -7 -7 -16 -10 -8 -3
-12 -2 -9 4 6 10 25 14 25 6z"/>
<path fill="#ffffff" stroke="none" d="M282 78 c-7 -7 -12 -8 -12 -2 0 14 12
26 19 19 2 -3 -1 -11 -7 -17z"/>
<path fill="#ffffff" stroke="none" d="M120 48 c17 -11 22 -10 30 2 5 8 12 11
16 7 6 -6 -33 -46 -47 -47 -8 0 -49 36 -49 44 0 10 29 7 50 -6z"/>
<path fill="#000000" stroke="none" d="M275 280 c-3 -5 -1 -10 4 -10 6 0 11 5
11 10 0 6 -2 10 -4 10 -3 0 -8 -4 -11 -10z"/>
<path fill="#000000" stroke="none" d="M0 286 c0 -19 94 -20 109 -2 8 10 -3
13 -49 15 -48 2 -60 -1 -60 -13z"/>
<path fill="#000000" stroke="none" d="M0 234 c0 -22 2 -25 15 -14 19 16 19
40 0 40 -10 0 -15 -10 -15 -26z"/>
<path fill="#000000" stroke="none" d="M58 189 c-9 -9 -13 -21 -10 -25 4 -4 0
-3 -8 2 -41 24 -55 6 -15 -20 22 -15 25 -15 34 2 5 9 13 15 18 13 11 -6 17 29
6 39 -4 4 -15 -1 -25 -11z"/>
<path fill="#000000" stroke="none" d="M311 44 c0 -11 3 -14 6 -6 3 7 2 16 -1
19 -3 4 -6 -2 -5 -13z"/>
</g>
</svg>
