<?xml version="1.0" standalone="no"?>
<!DOCTYPE svg PUBLIC "-//W3C//DTD SVG 20010904//EN"
 "http://www.w3.org/TR/2001/REC-SVG-20010904/DTD/svg10.dtd">
<svg version="1.0" xmlns="http://www.w3.org/2000/svg"
 width="32.000000pt" height="32.000000pt" viewBox="0 0 32.000000 32.000000"
 preserveAspectRatio="xMidYMid meet">
<metadata>
Created by potrace 1.16, written by Peter Selinger 2001-2019
</metadata>
<g transform="translate(0.000000,32.000000) scale(0.100000,-0.100000)"
fill="#000000" stroke="none">
<path fill="#000000" stroke="none" d="M9 311 c9 -6 10 -11 2 -15 -6 -4 -11
-34 -11 -68 l0 -60 40 4 c25 2 39 0 37 -7 -2 -5 -20 -11 -40 -13 -34 -3 -37
-6 -37 -34 0 -29 1 -30 40 -26 22 2 40 0 40 -4 0 -5 -8 -8 -17 -9 -59 -4 -58
-3 -61 -41 l-3 -38 160 0 161 0 0 160 0 160 -162 0 c-95 0 -157 -4 -149 -9z"/>
<path fill="#ffffff" stroke="none" d="M105 300 c-7 -11 -75 -10 -75 2 0 4 18
8 41 8 23 0 38 -4 34 -10z"/>
<path fill="#ffffff" stroke="none" d="M180 301 c0 -5 -13 -9 -30 -9 -16 1
-30 5 -30 10 0 4 14 8 30 8 17 0 30 -4 30 -9z"/>
<path fill="#ffffff" stroke="none" d="M238 284 l27 -25 -37 21 c-39 23 -46
30 -28 30 6 0 23 -12 38 -26z"/>
<path fill="#ffffff" stroke="none" d="M171 172 c38 2 69 0 69 -4 0 -10 -10
-11 -87 -12 l-63 -1 2 40 c1 38 1 38 5 7 l4 -34 70 4z"/>
<path fill="#ffffff" stroke="none" d="M271 170 c6 0 7 -4 4 -10 -14 -23 -25
-7 -23 33 1 36 2 38 5 10 2 -18 9 -33 14 -33z"/>
<path fill="#ffffff" stroke="none" d="M97 108 c-3 -8 -6 -5 -6 6 -1 11 2 17
5 13 3 -3 4 -12 1 -19z"/>
<path fill="#ffffff" stroke="none" d="M257 108 c-3 -8 -6 -5 -6 6 -1 11 2 17
5 13 3 -3 4 -12 1 -19z"/>
<path fill="#ffffff" stroke="none" d="M310 102 c0 -15 -2 -15 -10 -2 -13 20
-13 33 0 25 6 -3 10 -14 10 -23z"/>
<path fill="#ffffff" stroke="none" d="M237 84 c-9 -9 -147 -11 -147 -2 0 6
139 16 149 11 2 -2 2 -6 -2 -9z"/>
<path fill="#ffffff" stroke="none" d="M275 80 c-3 -5 -10 -10 -16 -10 -5 0
-9 5 -9 10 0 6 7 10 16 10 8 0 12 -4 9 -10z"/>
<path fill="#ffffff" stroke="none" d="M97 38 c-3 -8 -6 -5 -6 6 -1 11 2 17 5
13 3 -3 4 -12 1 -19z"/>
<path fill="#ffffff" stroke="none" d="M207 38 c-3 -8 -6 -5 -6 6 -1 11 2 17
5 13 3 -3 4 -12 1 -19z"/>
<path fill="#ffffff" stroke="none" d="M257 38 c-3 -8 -6 -5 -6 6 -1 11 2 17
5 13 3 -3 4 -12 1 -19z"/>
</g>
</svg>
