<?xml version="1.0" standalone="no"?>
<!DOCTYPE svg PUBLIC "-//W3C//DTD SVG 20010904//EN"
 "http://www.w3.org/TR/2001/REC-SVG-20010904/DTD/svg10.dtd">
<svg version="1.0" xmlns="http://www.w3.org/2000/svg"
 width="32.000000pt" height="32.000000pt" viewBox="0 0 32.000000 32.000000"
 preserveAspectRatio="xMidYMid meet">
<metadata>
Created by potrace 1.16, written by Peter Selinger 2001-2019
</metadata>
<g transform="translate(0.000000,32.000000) scale(0.100000,-0.100000)"
fill="#000000" stroke="none">
<path fill="#000000" stroke="none" d="M60 258 c0 -10 -6 -16 -12 -14 -7 1
-11 1 -8 -1 10 -6 -2 -73 -11 -67 -5 3 -9 14 -9 24 0 35 -15 28 -17 -8 -2 -24
0 -32 6 -23 6 9 11 10 15 2 12 -19 26 -2 27 32 1 28 2 27 10 -12 5 -25 12 -48
17 -53 13 -13 40 23 44 57 3 26 7 29 40 31 24 2 37 -2 35 -9 -1 -7 6 -11 15
-9 11 2 23 -9 32 -27 9 -16 21 -33 27 -36 6 -4 0 10 -14 31 -16 25 -32 38 -43
37 -18 -1 -18 -1 -1 11 23 18 22 24 -8 24 -14 0 -25 -6 -25 -12 0 -6 -5 -4
-10 4 -9 13 -11 13 -20 0 -6 -10 -10 -11 -10 -2 0 7 -12 12 -27 11 l-28 -1 25
-7 c17 -5 21 -9 12 -15 -6 -4 -12 -20 -12 -35 0 -25 -29 -68 -30 -45 -1 5 -5
28 -9 51 -5 23 -4 44 0 45 5 2 4 10 -1 18 -8 13 -10 13 -10 -2z"/>
<path fill="#000000" stroke="none" d="M181 87 c-6 -8 -8 -17 -4 -20 18 -19
100 4 88 24 -9 14 -71 11 -84 -4z"/>
<path fill="#ffffff" stroke="none" d="M250 80 c-20 -13 -73 -13 -65 0 3 6 23
10 43 10 28 0 33 -3 22 -10z"/>
<path fill="#000000" stroke="none" d="M40 50 c0 -15 36 -30 74 -30 41 0 55
15 27 29 -25 14 -101 14 -101 1z"/>
<path fill="#ffffff" stroke="none" d="M140 40 c11 -7 4 -10 -25 -10 -22 0
-47 5 -55 10 -11 7 -4 10 25 10 22 0 47 -5 55 -10z"/>
<path fill="#000000" stroke="none" d="M215 40 c-8 -12 20 -24 35 -15 6 3 8
11 5 16 -8 12 -32 12 -40 -1z"/>
<path fill="#ffffff" stroke="none" d="M247 34 c-3 -3 -12 -4 -19 -1 -8 3 -5
6 6 6 11 1 17 -2 13 -5z"/>
</g>
</svg>
