<?xml version="1.0" standalone="no"?>
<!DOCTYPE svg PUBLIC "-//W3C//DTD SVG 20010904//EN"
 "http://www.w3.org/TR/2001/REC-SVG-20010904/DTD/svg10.dtd">
<svg version="1.0" xmlns="http://www.w3.org/2000/svg"
 width="32.000000pt" height="32.000000pt" viewBox="0 0 32.000000 32.000000"
 preserveAspectRatio="xMidYMid meet">
<metadata>
Created by potrace 1.16, written by Peter Selinger 2001-2019
</metadata>
<g transform="translate(0.000000,32.000000) scale(0.100000,-0.100000)"
fill="#000000" stroke="none">
<path fill="#000000" stroke="none" d="M15 310 c17 -7 17 -9 3 -9 -19 -1 -24
-16 -9 -26 6 -3 6 -17 -1 -36 -8 -24 -7 -32 6 -42 8 -7 16 -29 18 -50 3 -50
22 -66 48 -42 11 10 20 28 20 40 0 12 3 25 8 29 14 15 8 56 -9 56 -12 0 -15 6
-11 25 2 14 8 22 13 20 4 -3 6 -12 2 -20 -3 -8 0 -15 6 -15 6 0 11 9 11 21 0
11 5 17 10 14 6 -4 8 -11 5 -16 -4 -5 -8 -18 -10 -29 -3 -17 0 -19 19 -14 28
7 40 -8 31 -37 -6 -17 -9 -19 -16 -8 -7 12 -9 12 -9 0 0 -11 -3 -11 -16 0 -14
12 -16 11 -13 -5 2 -10 11 -22 19 -26 8 -4 25 -12 38 -19 25 -13 61 0 63 22 0
7 4 1 10 -11 12 -31 35 -22 31 12 -1 14 2 26 7 26 20 0 33 40 22 70 -6 18 -6
32 0 35 15 10 10 25 -8 26 -15 0 -15 2 2 9 12 5 -44 9 -145 9 -101 0 -157 -4
-145 -9z"/>
<path fill="#ffffff" stroke="none" d="M120 306 c0 -2 -7 -7 -16 -10 -8 -3
-12 -2 -9 4 6 10 25 14 25 6z"/>
<path fill="#ffffff" stroke="none" d="M225 300 c3 -6 -1 -7 -9 -4 -18 7 -21
14 -7 14 6 0 13 -4 16 -10z"/>
<path fill="#ffffff" stroke="none" d="M45 250 c1 -11 -4 -20 -10 -20 -8 0
-10 10 -7 25 5 29 15 25 17 -5z"/>
<path fill="#ffffff" stroke="none" d="M75 270 c3 -5 1 -10 -4 -10 -6 0 -11 5
-11 10 0 6 2 10 4 10 3 0 8 -4 11 -10z"/>
<path fill="#ffffff" stroke="none" d="M165 270 c3 -5 1 -10 -4 -10 -6 0 -11
5 -11 10 0 6 2 10 4 10 3 0 8 -4 11 -10z"/>
<path fill="#ffffff" stroke="none" d="M214 228 c15 -10 -4 -9 -29 2 -11 5
-14 9 -6 9 7 1 11 7 8 15 -3 8 -3 17 1 21 4 4 9 -4 11 -17 1 -12 8 -26 15 -30z"/>
<path fill="#ffffff" stroke="none" d="M233 253 c5 -26 4 -26 -9 -9 -7 10 -11
23 -8 27 8 14 11 11 17 -18z"/>
<path fill="#ffffff" stroke="none" d="M260 264 c0 -8 -5 -12 -10 -9 -6 4 -8
11 -5 16 9 14 15 11 15 -7z"/>
<path fill="#ffffff" stroke="none" d="M287 274 c-3 -4 -2 -15 4 -25 7 -14 6
-19 -4 -19 -8 0 -13 9 -11 23 3 28 3 27 11 27 3 0 3 -3 0 -6z"/>
<path fill="#ffffff" stroke="none" d="M82 180 c-4 -33 -24 -64 -36 -53 -8 8
-8 56 0 76 3 8 13 14 22 12 13 -2 16 -10 14 -35z"/>
<path fill="#ffffff" stroke="none" d="M250 210 c5 8 15 10 26 6 13 -5 15 -9
6 -18 -7 -7 -12 -23 -13 -37 -1 -26 -1 -26 -14 4 -8 17 -14 24 -15 17 0 -7 -4
-10 -10 -7 -5 3 -10 0 -10 -8 0 -8 -7 -17 -15 -21 -12 -4 -15 3 -15 30 0 19 4
33 8 30 4 -2 14 -1 22 4 10 6 16 5 19 -1 2 -8 6 -7 11 1z"/>
<path fill="#000000" stroke="none" d="M228 76 c-20 -11 -36 -12 -60 -5 -46
13 -86 11 -95 -3 -4 -7 -19 -13 -33 -13 -18 0 -26 -6 -28 -20 -2 -17 3 -21 33
-23 29 -2 35 1 35 17 0 17 3 18 30 8 23 -9 27 -13 14 -17 -9 -4 20 -7 65 -8
74 -2 85 1 108 22 49 45 -3 76 -69 42z"/>
<path fill="#ffffff" stroke="none" d="M295 70 c-3 -5 -23 -10 -43 -9 -30 0
-33 2 -17 9 28 12 67 12 60 0z"/>
<path fill="#ffffff" stroke="none" d="M183 56 c32 -8 66 -13 75 -11 9 1 11 0
4 -2 -7 -3 -10 -9 -7 -14 9 -14 -56 -11 -113 6 -100 30 -68 47 41 21z"/>
<path fill="#ffffff" stroke="none" d="M58 32 c3 -9 -2 -13 -14 -10 -9 1 -19
9 -22 16 -3 9 2 13 14 10 9 -1 19 -9 22 -16z"/>
</g>
</svg>
