<?xml version="1.0" standalone="no"?>
<!DOCTYPE svg PUBLIC "-//W3C//DTD SVG 20010904//EN"
 "http://www.w3.org/TR/2001/REC-SVG-20010904/DTD/svg10.dtd">
<svg version="1.0" xmlns="http://www.w3.org/2000/svg"
 width="32.000000pt" height="32.000000pt" viewBox="0 0 32.000000 32.000000"
 preserveAspectRatio="xMidYMid meet">
<metadata>
Created by potrace 1.16, written by Peter Selinger 2001-2019
</metadata>
<g transform="translate(0.000000,32.000000) scale(0.100000,-0.100000)"
fill="#000000" stroke="none">
<path fill="#000000" stroke="none" d="M19 298 c8 -11 12 -34 9 -58 -2 -22 0
-40 4 -40 10 0 10 -87 1 -92 -5 -1 -6 -21 -2 -43 4 -33 7 -23 13 50 7 82 11
93 39 123 31 32 32 32 136 34 l106 2 -102 3 c-57 2 -103 7 -103 11 0 4 -18 6
-40 4 -24 -3 -47 1 -58 9 -15 13 -16 12 -3 -3z"/>
<path fill="#ffffff" stroke="none" d="M96 271 c-3 -5 -16 -7 -28 -3 -18 4
-20 2 -16 -16 4 -12 2 -25 -3 -28 -5 -3 -9 9 -9 25 0 28 3 31 31 31 16 0 28
-4 25 -9z"/>
<path fill="#000000" stroke="none" d="M148 220 c4 -35 2 -39 -13 -33 -13 4
-16 2 -13 -8 3 -8 11 -13 18 -11 8 2 11 -17 8 -68 -2 -38 0 -70 4 -70 8 0 14
126 10 188 -2 23 -6 42 -10 42 -4 0 -6 -18 -4 -40z"/>
<path fill="#000000" stroke="none" d="M228 184 c3 -53 0 -74 -7 -70 -6 4 -11
3 -11 -3 0 -5 5 -13 11 -17 6 -3 9 -19 7 -35 -3 -16 -1 -29 4 -29 4 0 8 45 8
99 0 55 3 106 6 115 4 10 1 16 -7 16 -11 0 -13 -17 -11 -76z"/>
<path fill="#000000" stroke="none" d="M307 178 c2 -57 0 -78 -7 -68 -8 13
-10 12 -10 -2 0 -10 5 -18 11 -18 7 0 10 -12 7 -30 -3 -16 -1 -30 4 -30 4 0 8
52 8 115 0 63 -3 115 -7 115 -5 0 -7 -37 -6 -82z"/>
<path fill="#000000" stroke="none" d="M90 208 c0 -6 -8 -20 -17 -30 -14 -15
-14 -19 -3 -16 12 2 15 -10 15 -65 0 -37 3 -67 8 -67 4 0 7 43 7 95 0 52 -2
95 -5 95 -3 0 -5 -5 -5 -12z"/>
<path fill="#000000" stroke="none" d="M201 177 c-8 -10 -7 -14 2 -14 8 0 14
6 14 14 0 7 -1 13 -2 13 -2 0 -8 -6 -14 -13z"/>
<path fill="#000000" stroke="none" d="M255 181 c-3 -5 -2 -12 3 -15 5 -3 9 1
9 9 0 17 -3 19 -12 6z"/>
<path fill="#000000" stroke="none" d="M280 174 c0 -8 5 -12 10 -9 6 4 8 11 5
16 -9 14 -15 11 -15 -7z"/>
<path fill="#000000" stroke="none" d="M67 113 c-4 -3 -7 -11 -7 -17 0 -6 5
-5 12 2 6 6 9 14 7 17 -3 3 -9 2 -12 -2z"/>
<path fill="#000000" stroke="none" d="M120 111 c0 -6 4 -12 8 -15 5 -3 9 1 9
9 0 8 -4 15 -9 15 -4 0 -8 -4 -8 -9z"/>
<path fill="#000000" stroke="none" d="M187 113 c-10 -9 -9 -23 1 -23 5 0 9 7
9 15 0 17 -1 18 -10 8z"/>
<path fill="#000000" stroke="none" d="M255 111 c-6 -11 9 -23 19 -14 9 9 7
23 -3 23 -6 0 -12 -4 -16 -9z"/>
</g>
</svg>
