<?xml version="1.0" standalone="no"?>
<!DOCTYPE svg PUBLIC "-//W3C//DTD SVG 20010904//EN"
 "http://www.w3.org/TR/2001/REC-SVG-20010904/DTD/svg10.dtd">
<svg version="1.0" xmlns="http://www.w3.org/2000/svg"
 width="32.000000pt" height="32.000000pt" viewBox="0 0 32.000000 32.000000"
 preserveAspectRatio="xMidYMid meet">
<metadata>
Created by potrace 1.16, written by Peter Selinger 2001-2019
</metadata>
<g transform="translate(0.000000,32.000000) scale(0.100000,-0.100000)"
fill="#000000" stroke="none">
<path fill="#000000" stroke="none" d="M248 258 c-4 -10 -4 -18 1 -18 5 0 5
-19 0 -42 -4 -24 -8 -47 -9 -52 -1 -23 -30 20 -30 45 0 15 -6 31 -12 35 -9 6
-5 10 12 15 l25 7 -27 1 c-16 1 -28 -4 -28 -11 0 -9 -4 -8 -10 2 -9 13 -11 13
-20 0 -5 -8 -10 -10 -10 -4 0 6 -11 12 -25 12 -30 0 -31 -6 -7 -24 16 -12 16
-12 -2 -11 -11 1 -27 -12 -43 -37 -14 -21 -20 -35 -14 -31 6 3 18 20 27 36 9
18 21 29 32 27 9 -2 16 2 15 9 -2 7 11 11 35 9 33 -2 37 -5 40 -31 4 -34 31
-70 44 -57 5 5 12 28 17 53 8 39 9 40 10 12 1 -34 15 -51 27 -32 4 8 9 7 15
-2 6 -9 8 -1 6 23 -2 36 -17 43 -17 8 0 -10 -4 -21 -9 -24 -9 -6 -21 61 -11
67 3 2 0 2 -7 1 -6 -2 -13 5 -15 14 -3 16 -4 16 -10 0z"/>
<path fill="#000000" stroke="none" d="M195 90 c-8 -12 20 -24 35 -15 6 3 8
11 5 16 -8 12 -32 12 -40 -1z"/>
<path fill="#ffffff" stroke="none" d="M227 84 c-3 -3 -12 -4 -19 -1 -8 3 -5
6 6 6 11 1 17 -2 13 -5z"/>
<path fill="#000000" stroke="none" d="M45 71 c-12 -20 70 -43 88 -24 4 3 2
12 -4 20 -13 15 -75 18 -84 4z"/>
<path fill="#ffffff" stroke="none" d="M125 60 c8 -13 -45 -13 -65 0 -11 7 -6
10 22 10 20 0 40 -4 43 -10z"/>
<path fill="#000000" stroke="none" d="M187 39 c-25 -15 -11 -29 29 -29 38 0
74 15 74 30 0 13 -80 12 -103 -1z"/>
<path fill="#ffffff" stroke="none" d="M270 30 c-8 -5 -33 -10 -55 -10 -29 0
-36 3 -25 10 8 5 33 10 55 10 29 0 36 -3 25 -10z"/>
</g>
</svg>
