<?xml version="1.0" standalone="no"?>
<!DOCTYPE svg PUBLIC "-//W3C//DTD SVG 20010904//EN"
 "http://www.w3.org/TR/2001/REC-SVG-20010904/DTD/svg10.dtd">
<svg version="1.0" xmlns="http://www.w3.org/2000/svg"
 width="32.000000pt" height="32.000000pt" viewBox="0 0 32.000000 32.000000"
 preserveAspectRatio="xMidYMid meet">
<metadata>
Created by potrace 1.16, written by Peter Selinger 2001-2019
</metadata>
<g transform="translate(0.000000,32.000000) scale(0.100000,-0.100000)"
fill="#000000" stroke="none">
<path fill="#000000" stroke="none" d="M248 314 c-7 -6 -84 -12 -180 -13 -53
-1 -68 -4 -68 -16 0 -12 14 -15 63 -16 34 -1 51 -4 37 -6 -14 -2 -30 -14 -35
-26 -14 -30 -47 -29 -56 3 -6 23 -7 22 -8 -7 -1 -25 3 -33 17 -34 9 0 46 -2
82 -4 36 -2 84 -2 108 2 38 5 41 7 30 22 -11 14 -11 14 3 3 13 -9 18 -38 24
-117 9 -129 24 -141 38 -28 2 18 0 33 -5 33 -4 0 -8 20 -8 45 0 25 3 45 8 45
4 0 7 25 7 55 0 46 -3 55 -20 59 -26 7 -30 7 -37 0z"/>
<path fill="#ffffff" stroke="none" d="M188 263 c-10 -2 -26 -2 -35 0 -10 3
-2 5 17 5 19 0 27 -2 18 -5z"/>
<path fill="#ffffff" stroke="none" d="M275 241 c-3 -6 -11 -11 -17 -11 -6 0
-6 6 2 15 14 17 26 13 15 -4z"/>
<path fill="#000000" stroke="none" d="M311 44 c0 -11 3 -14 6 -6 3 7 2 16 -1
19 -3 4 -6 -2 -5 -13z"/>
</g>
</svg>
