<?xml version="1.0" standalone="no"?>
<!DOCTYPE svg PUBLIC "-//W3C//DTD SVG 20010904//EN"
 "http://www.w3.org/TR/2001/REC-SVG-20010904/DTD/svg10.dtd">
<svg version="1.0" xmlns="http://www.w3.org/2000/svg"
 width="32.000000pt" height="32.000000pt" viewBox="0 0 32.000000 32.000000"
 preserveAspectRatio="xMidYMid meet">
<metadata>
Created by potrace 1.16, written by Peter Selinger 2001-2019
</metadata>
<g transform="translate(0.000000,32.000000) scale(0.100000,-0.100000)"
fill="#000000" stroke="none">
<path fill="#000000" stroke="none" d="M0 300 c0 -12 7 -20 18 -21 14 0 14 -2
2 -7 -17 -8 -22 -39 -14 -99 l5 -43 51 2 c30 2 52 8 55 15 3 7 10 13 16 13 6
0 23 12 38 26 l26 25 16 -39 c14 -36 19 -40 49 -38 34 2 40 13 55 103 l5 32
-68 4 -69 3 68 2 c53 2 67 5 67 17 0 21 -24 29 -49 15 -14 -7 -21 -7 -21 0 0
13 -45 13 -69 0 -12 -6 -29 -5 -50 3 -27 10 -33 9 -41 -3 -7 -12 -12 -12 -22
-2 -6 6 -25 12 -40 12 -21 0 -28 -5 -28 -20z"/>
<path fill="#ffffff" stroke="none" d="M158 273 c-10 -2 -26 -2 -35 0 -10 3
-2 5 17 5 19 0 27 -2 18 -5z"/>
<path fill="#ffffff" stroke="none" d="M78 214 c-3 -27 -4 -26 -9 8 -3 22 -1
34 4 29 5 -5 7 -21 5 -37z"/>
<path fill="#ffffff" stroke="none" d="M158 224 c-3 -14 -5 -12 -10 9 -3 19
-2 25 4 19 6 -6 8 -18 6 -28z"/>
<path fill="#ffffff" stroke="none" d="M239 208 c-1 -55 -5 -50 -11 15 -2 20
0 37 4 37 4 0 7 -24 7 -52z"/>
<path fill="#ffffff" stroke="none" d="M187 228 c-3 -8 -6 -5 -6 6 -1 11 2 17
5 13 3 -3 4 -12 1 -19z"/>
<path fill="#000000" stroke="none" d="M40 61 c0 -16 8 -19 60 -20 33 0 60 3
60 7 0 20 -28 32 -72 32 -40 0 -48 -3 -48 -19z"/>
<path fill="#000000" stroke="none" d="M217 54 c-18 -19 -5 -34 29 -34 28 0
35 3 32 18 -3 17 -48 29 -61 16z"/>
</g>
</svg>
