<?xml version="1.0" standalone="no"?>
<!DOCTYPE svg PUBLIC "-//W3C//DTD SVG 20010904//EN"
 "http://www.w3.org/TR/2001/REC-SVG-20010904/DTD/svg10.dtd">
<svg version="1.0" xmlns="http://www.w3.org/2000/svg"
 width="32.000000pt" height="32.000000pt" viewBox="0 0 32.000000 32.000000"
 preserveAspectRatio="xMidYMid meet">
<metadata>
Created by potrace 1.16, written by Peter Selinger 2001-2019
</metadata>
<g transform="translate(0.000000,32.000000) scale(0.100000,-0.100000)"
fill="#000000" stroke="none">
<path fill="#000000" stroke="none" d="M1 193 c1 -77 4 -116 9 -98 4 17 5 72
2 124 l-5 94 94 -5 c52 -3 108 -2 124 2 18 5 -21 8 -97 9 l-128 1 1 -127z"/>
<path fill="#000000" stroke="none" d="M290 310 c19 -13 30 -13 30 0 0 6 -10
10 -22 10 -19 0 -20 -2 -8 -10z"/>
<path fill="#000000" stroke="none" d="M85 228 l-40 -43 43 40 c39 36 47 45
39 45 -2 0 -21 -19 -42 -42z"/>
<path fill="#000000" stroke="none" d="M153 263 c9 -2 25 -2 35 0 9 3 1 5 -18
5 -19 0 -27 -2 -17 -5z"/>
<path fill="#000000" stroke="none" d="M267 252 c-23 -25 -22 -61 1 -57 9 1
23 -3 31 -9 11 -9 13 -3 10 32 -3 23 0 44 6 46 5 2 1 5 -11 5 -11 1 -28 -7
-37 -17z"/>
<path fill="#000000" stroke="none" d="M51 154 c0 -11 3 -14 6 -6 3 7 2 16 -1
19 -3 4 -6 -2 -5 -13z"/>
<path fill="#000000" stroke="none" d="M170 131 c0 -17 3 -21 13 -14 6 6 20 9
30 8 10 -2 17 3 17 14 0 12 -8 17 -30 16 -25 0 -30 -4 -30 -24z"/>
<path fill="#000000" stroke="none" d="M250 144 c0 -8 6 -11 15 -8 8 4 15 9
15 13 0 4 -7 8 -15 8 -8 0 -15 -6 -15 -13z"/>
<path fill="#000000" stroke="none" d="M112 69 c4 -44 32 -47 36 -4 2 17 0 27
-4 23 -4 -4 -14 -3 -21 4 -12 10 -14 6 -11 -23z"/>
<path fill="#000000" stroke="none" d="M170 74 c0 -8 5 -12 10 -9 6 4 8 11 5
16 -9 14 -15 11 -15 -7z"/>
<path fill="#000000" stroke="none" d="M250 78 c0 -4 4 -8 9 -8 6 0 12 4 15 8
3 5 -1 9 -9 9 -8 0 -15 -4 -15 -9z"/>
<path fill="#000000" stroke="none" d="M67 56 c-15 -23 -16 -26 -2 -26 17 0
29 22 23 41 -2 6 -12 0 -21 -15z"/>
<path fill="#000000" stroke="none" d="M205 50 c-17 -18 -17 -20 -1 -20 9 0
19 7 23 15 9 25 -2 27 -22 5z"/>
<path fill="#000000" stroke="none" d="M1 22 l-1 -23 160 2 c88 1 160 6 160
11 0 4 -69 8 -154 8 -114 0 -156 3 -159 13 -3 6 -6 2 -6 -11z"/>
</g>
</svg>
