<?xml version="1.0" standalone="no"?>
<!DOCTYPE svg PUBLIC "-//W3C//DTD SVG 20010904//EN"
 "http://www.w3.org/TR/2001/REC-SVG-20010904/DTD/svg10.dtd">
<svg version="1.0" xmlns="http://www.w3.org/2000/svg"
 width="32.000000pt" height="32.000000pt" viewBox="0 0 32.000000 32.000000"
 preserveAspectRatio="xMidYMid meet">
<metadata>
Created by potrace 1.16, written by Peter Selinger 2001-2019
</metadata>
<g transform="translate(0.000000,32.000000) scale(0.100000,-0.100000)"
fill="#000000" stroke="none">
<path fill="#000000" stroke="none" d="M65 279 c-49 -4 -22 -6 93 -7 104 -1
162 2 162 8 0 11 -121 10 -255 -1z"/>
<path fill="#000000" stroke="none" d="M65 228 c0 -28 -4 -33 -24 -33 -24 0
-51 -28 -39 -40 3 -4 15 -2 26 4 13 7 22 7 30 -1 19 -19 14 -35 -10 -34 -36 3
-48 -13 -47 -58 2 -30 3 -33 6 -13 2 15 7 28 11 28 48 9 54 6 50 -22 -6 -37 8
-38 15 -1 5 22 11 27 37 27 29 1 31 -2 28 -27 -3 -15 1 -29 8 -32 8 -3 10 12
6 60 -2 35 -1 64 4 65 53 6 64 5 64 -8 0 -12 -6 -15 -40 -17 -8 -1 -15 -10
-15 -21 0 -22 22 -27 44 -11 11 9 13 4 9 -27 -3 -26 0 -37 9 -37 8 0 11 9 7
29 -5 25 -3 28 18 26 12 -1 29 -3 37 -4 10 -1 12 -10 8 -31 -4 -17 -2 -30 3
-30 6 0 10 49 10 120 0 66 -4 120 -8 120 -5 0 -7 -13 -4 -30 3 -22 0 -30 -12
-31 -9 -1 -22 -2 -28 -3 -7 0 -15 -12 -16 -26 -3 -20 -2 -22 11 -12 11 9 17
10 22 2 3 -6 11 -8 16 -5 5 4 9 -5 9 -20 0 -22 -2 -24 -20 -15 -10 6 -25 9
-32 8 -17 -4 -23 64 -9 103 8 25 7 29 -7 29 -15 0 -17 -7 -13 -42 3 -35 1 -41
-10 -32 -8 6 -21 10 -29 10 -9 -1 -17 10 -20 28 -8 46 -26 42 -22 -5 4 -40 4
-41 -19 -29 -19 11 -25 10 -37 -6 -13 -18 -14 -16 -8 13 5 33 0 63 -13 63 -3
0 -6 -15 -6 -32z"/>
<path fill="#ffffff" stroke="none" d="M150 138 c0 -10 -7 -15 -17 -13 -10 1
-24 -2 -30 -8 -10 -7 -13 -4 -13 10 0 26 6 31 36 29 15 0 24 -7 24 -18z"/>
</g>
</svg>
