<?xml version="1.0" standalone="no"?>
<!DOCTYPE svg PUBLIC "-//W3C//DTD SVG 20010904//EN"
 "http://www.w3.org/TR/2001/REC-SVG-20010904/DTD/svg10.dtd">
<svg version="1.0" xmlns="http://www.w3.org/2000/svg"
 width="32.000000pt" height="32.000000pt" viewBox="0 0 32.000000 32.000000"
 preserveAspectRatio="xMidYMid meet">
<metadata>
Created by potrace 1.16, written by Peter Selinger 2001-2019
</metadata>
<g transform="translate(0.000000,32.000000) scale(0.100000,-0.100000)"
fill="#000000" stroke="none">
<path fill="#000000" stroke="none" d="M0 310 c0 -7 35 -10 97 -9 153 3 176
17 31 18 -82 1 -128 -3 -128 -9z"/>
<path fill="#000000" stroke="none" d="M290 310 c19 -13 30 -13 30 0 0 6 -10
10 -22 10 -19 0 -20 -2 -8 -10z"/>
<path fill="#000000" stroke="none" d="M5 264 c6 -2 9 -20 7 -40 -4 -33 -3
-35 15 -26 27 15 46 39 39 51 -4 5 8 12 26 14 18 2 4 4 -32 5 -36 0 -60 -2
-55 -4z"/>
<path fill="#000000" stroke="none" d="M153 263 c9 -2 25 -2 35 0 9 3 1 5 -18
5 -19 0 -27 -2 -17 -5z"/>
<path fill="#000000" stroke="none" d="M267 252 c-23 -25 -22 -61 1 -57 9 2
23 4 31 4 9 1 12 10 9 31 -2 16 0 32 6 34 6 2 2 5 -10 5 -11 1 -28 -7 -37 -17z"/>
<path fill="#000000" stroke="none" d="M215 201 c-3 -5 -1 -12 5 -16 5 -3 10
1 10 9 0 18 -6 21 -15 7z"/>
<path fill="#000000" stroke="none" d="M28 159 c-10 -5 -18 -14 -18 -19 0 -14
28 -1 34 16 6 16 6 16 -16 3z"/>
<path fill="#000000" stroke="none" d="M260 155 c-17 -21 -8 -28 15 -11 11 8
14 15 8 19 -6 4 -16 0 -23 -8z"/>
<path fill="#000000" stroke="none" d="M175 151 c-13 -12 -2 -28 18 -26 36 4
37 4 37 18 0 12 -45 19 -55 8z"/>
<path fill="#000000" stroke="none" d="M295 131 c-3 -5 -1 -12 5 -16 5 -3 10
1 10 9 0 18 -6 21 -15 7z"/>
<path fill="#000000" stroke="none" d="M92 60 c2 -19 9 -25 28 -25 19 0 26 6
28 25 3 23 -1 26 -28 25 -27 0 -30 -3 -28 -25z"/>
<path fill="#000000" stroke="none" d="M170 72 c0 -12 3 -12 15 -2 8 7 15 13
15 15 0 1 -7 2 -15 2 -8 0 -15 -7 -15 -15z"/>
<path fill="#000000" stroke="none" d="M255 80 c-3 -5 -2 -10 4 -10 5 0 13 5
16 10 3 6 2 10 -4 10 -5 0 -13 -4 -16 -10z"/>
<path fill="#000000" stroke="none" d="M205 50 c-17 -18 -17 -20 -1 -20 9 0
19 7 23 15 9 25 -2 27 -22 5z"/>
<path fill="#000000" stroke="none" d="M50 45 c-8 -9 -8 -15 -2 -15 12 0 26
19 19 26 -2 2 -10 -2 -17 -11z"/>
<path fill="#000000" stroke="none" d="M0 9 c0 -7 53 -9 160 -8 88 1 160 6
160 11 0 4 -72 8 -160 8 -105 0 -160 -4 -160 -11z"/>
</g>
</svg>
