<?xml version="1.0" standalone="no"?>
<!DOCTYPE svg PUBLIC "-//W3C//DTD SVG 20010904//EN"
 "http://www.w3.org/TR/2001/REC-SVG-20010904/DTD/svg10.dtd">
<svg version="1.0" xmlns="http://www.w3.org/2000/svg"
 width="32.000000pt" height="32.000000pt" viewBox="0 0 32.000000 32.000000"
 preserveAspectRatio="xMidYMid meet">
<metadata>
Created by potrace 1.16, written by Peter Selinger 2001-2019
</metadata>
<g transform="translate(0.000000,32.000000) scale(0.100000,-0.100000)"
fill="#000000" stroke="none">
<path fill="#000000" stroke="none" d="M0 306 c0 -18 18 -22 91 -18 62 4 77
17 33 28 -17 4 -29 2 -35 -7 -6 -11 -11 -11 -21 -1 -17 17 -68 16 -68 -2z"/>
<path fill="#000000" stroke="none" d="M177 309 c-9 -6 -15 -15 -12 -20 4 -5
10 -7 14 -5 4 3 38 6 74 7 37 1 67 6 67 11 0 15 -28 20 -49 8 -14 -7 -21 -7
-21 0 0 13 -50 13 -73 -1z"/>
<path fill="#000000" stroke="none" d="M23 270 c-20 -6 -25 -34 -17 -96 l5
-41 51 1 c30 1 53 7 56 14 2 7 9 12 16 12 21 0 61 49 50 60 -7 7 -17 3 -32
-10 -27 -26 -41 -26 -17 0 9 10 15 26 12 35 -4 9 -1 15 8 15 8 0 15 -5 15 -12
0 -9 3 -9 12 0 7 7 28 12 47 12 19 0 32 2 29 5 -7 7 -213 11 -235 5z"/>
<path fill="#ffffff" stroke="none" d="M90 249 c0 -8 6 -7 18 2 14 12 14 10
-2 -8 -12 -15 -17 -32 -14 -52 3 -21 1 -28 -9 -24 -7 3 -13 14 -13 26 0 20 -1
20 -25 -3 -14 -13 -25 -20 -25 -16 0 5 12 17 26 28 16 14 24 27 21 39 -3 12 0
19 9 19 8 0 14 -5 14 -11z"/>
<path fill="#000000" stroke="none" d="M263 255 c-7 -8 -13 -30 -13 -49 0 -19
-4 -38 -10 -41 -6 -4 -10 7 -10 25 0 17 -4 29 -9 26 -5 -4 -12 0 -14 6 -4 9
-6 7 -6 -3 -1 -9 6 -32 14 -52 12 -30 18 -34 47 -33 34 2 40 13 55 104 5 29 3
32 -18 32 -13 -1 -30 -7 -36 -15z"/>
<path fill="#000000" stroke="none" d="M40 71 c0 -17 23 -25 72 -28 49 -3 58
3 36 25 -14 14 -108 16 -108 3z"/>
<path fill="#000000" stroke="none" d="M217 54 c-18 -19 -5 -34 29 -34 28 0
35 3 32 18 -3 17 -48 29 -61 16z"/>
</g>
</svg>
