<?xml version="1.0" standalone="no"?>
<!DOCTYPE svg PUBLIC "-//W3C//DTD SVG 20010904//EN"
 "http://www.w3.org/TR/2001/REC-SVG-20010904/DTD/svg10.dtd">
<svg version="1.0" xmlns="http://www.w3.org/2000/svg"
 width="32.000000pt" height="32.000000pt" viewBox="0 0 32.000000 32.000000"
 preserveAspectRatio="xMidYMid meet">
<metadata>
Created by potrace 1.16, written by Peter Selinger 2001-2019
</metadata>
<g transform="translate(0.000000,32.000000) scale(0.100000,-0.100000)"
fill="#000000" stroke="none">
<path fill="#000000" stroke="none" d="M19 298 c8 -11 12 -34 9 -58 -2 -22 0
-40 4 -40 10 0 10 -87 1 -92 -5 -1 -6 -21 -2 -43 4 -33 7 -23 13 50 7 82 11
93 39 123 31 32 32 32 136 34 l106 2 -102 3 c-57 2 -103 7 -103 11 0 4 -18 6
-40 4 -24 -3 -47 1 -58 9 -15 13 -16 12 -3 -3z"/>
<path fill="#ffffff" stroke="none" d="M100 277 c0 -2 -13 -16 -30 -32 l-30
-29 0 32 c0 29 3 32 30 32 17 0 30 -1 30 -3z"/>
<path fill="#000000" stroke="none" d="M145 145 c0 -127 12 -157 17 -42 4 87
-1 157 -10 157 -4 0 -7 -52 -7 -115z"/>
<path fill="#000000" stroke="none" d="M225 145 c0 -63 3 -115 8 -115 4 0 7
45 7 99 0 55 3 106 6 115 4 10 1 16 -7 16 -11 0 -14 -25 -14 -115z"/>
<path fill="#000000" stroke="none" d="M305 145 c0 -63 3 -115 8 -115 4 0 7
52 7 115 0 63 -3 115 -7 115 -5 0 -8 -52 -8 -115z"/>
<path fill="#000000" stroke="none" d="M88 125 c-2 -52 0 -95 5 -95 4 0 7 43
7 95 0 52 -2 95 -4 95 -3 0 -6 -43 -8 -95z"/>
</g>
</svg>
