<?xml version="1.0" standalone="no"?>
<!DOCTYPE svg PUBLIC "-//W3C//DTD SVG 20010904//EN"
 "http://www.w3.org/TR/2001/REC-SVG-20010904/DTD/svg10.dtd">
<svg version="1.0" xmlns="http://www.w3.org/2000/svg"
 width="32.000000pt" height="32.000000pt" viewBox="0 0 32.000000 32.000000"
 preserveAspectRatio="xMidYMid meet">
<metadata>
Created by potrace 1.16, written by Peter Selinger 2001-2019
</metadata>
<g transform="translate(0.000000,32.000000) scale(0.100000,-0.100000)"
fill="#000000" stroke="none">
<path fill="#000000" stroke="none" d="M0 305 c0 -12 13 -15 56 -15 36 0 53
-4 49 -11 -4 -5 -17 -9 -28 -8 -37 2 -83 -3 -64 -8 21 -5 22 -17 3 -35 -15
-16 -20 -104 -6 -113 6 -3 23 2 40 11 26 16 28 20 16 34 -12 13 -12 18 -1 33
14 19 10 46 -9 59 -6 4 2 8 17 8 16 0 26 -4 22 -9 -3 -5 0 -13 6 -17 8 -5 8
-9 -1 -14 -15 -9 -21 -98 -8 -106 20 -13 56 18 60 51 3 26 0 31 -13 28 -22 -6
-32 12 -20 36 7 13 8 21 1 24 -6 3 -5 4 1 3 7 -1 13 -10 15 -20 1 -10 6 -21 9
-24 4 -4 6 0 5 8 -4 28 0 40 14 40 9 0 12 -7 9 -20 -5 -19 11 -50 27 -50 12 0
17 59 6 70 -5 5 -27 10 -49 10 -28 0 -36 3 -30 13 20 32 12 37 -58 37 -55 0
-69 -3 -69 -15z"/>
<path fill="#000000" stroke="none" d="M157 313 c-14 -13 -6 -23 18 -23 14 0
25 4 25 8 0 4 16 6 35 4 28 -3 33 -7 24 -18 -6 -7 -8 -17 -5 -23 3 -5 1 -11
-5 -13 -6 -2 -1 -12 10 -22 21 -19 21 -19 21 6 0 14 8 32 18 39 15 13 16 12 3
-3 -7 -10 -11 -29 -9 -43 3 -14 2 -25 -3 -25 -4 0 -7 -21 -6 -47 2 -32 7 -47
15 -45 10 2 10 -3 2 -17 -5 -11 -10 -31 -10 -45 0 -14 -4 -26 -10 -26 -5 0
-10 -4 -10 -10 0 -5 12 -10 26 -10 l25 0 -3 150 c-2 121 -6 153 -18 160 -17
11 -133 13 -143 3z"/>
<path fill="#000000" stroke="none" d="M230 214 c0 -23 -42 -68 -53 -57 -4 3
-7 0 -7 -8 0 -19 20 -39 39 -39 12 0 11 3 -3 18 -15 18 -15 20 2 36 17 15 20
15 32 1 7 -8 15 -15 19 -15 13 0 4 51 -12 68 -16 15 -17 15 -17 -4z"/>
<path fill="#000000" stroke="none" d="M235 130 c-3 -6 1 -7 9 -4 18 7 21 14
7 14 -6 0 -13 -4 -16 -10z"/>
<path fill="#000000" stroke="none" d="M277 93 c-4 -3 -7 -11 -7 -17 0 -6 5
-5 12 2 6 6 9 14 7 17 -3 3 -9 2 -12 -2z"/>
<path fill="#000000" stroke="none" d="M74 44 c3 -9 6 -20 6 -25 0 -5 3 -8 8
-8 4 1 9 0 12 -1 13 -5 90 -10 90 -5 0 4 -9 23 -27 54 -2 2 -10 -2 -18 -9 -12
-10 -19 -10 -27 -2 -18 18 -51 15 -44 -4z"/>
</g>
</svg>
