<?xml version="1.0" standalone="no"?>
<!DOCTYPE svg PUBLIC "-//W3C//DTD SVG 20010904//EN"
 "http://www.w3.org/TR/2001/REC-SVG-20010904/DTD/svg10.dtd">
<svg version="1.0" xmlns="http://www.w3.org/2000/svg"
 width="32.000000pt" height="32.000000pt" viewBox="0 0 32.000000 32.000000"
 preserveAspectRatio="xMidYMid meet">
<metadata>
Created by potrace 1.16, written by Peter Selinger 2001-2019
</metadata>
<g transform="translate(0.000000,32.000000) scale(0.100000,-0.100000)"
fill="#000000" stroke="none">
<path fill="#000000" stroke="none" d="M25 250 c0 -25 4 -48 9 -51 4 -4 24 11
43 32 23 25 45 39 62 40 23 2 24 2 4 6 -13 2 -23 7 -23 11 0 4 -21 7 -47 7
l-48 0 0 -45z"/>
<path fill="#ffffff" stroke="none" d="M110 277 c0 -2 -16 -18 -35 -37 l-35
-34 0 37 c0 36 1 37 35 37 19 0 35 -1 35 -3z"/>
<path fill="#000000" stroke="none" d="M192 284 c-10 -11 -10 -14 1 -14 7 0
28 -16 47 -35 35 -36 50 -43 50 -24 0 5 -4 8 -8 5 -9 -6 -79 62 -74 70 8 13
-4 11 -16 -2z"/>
<path fill="#000000" stroke="none" d="M41 164 c0 -11 3 -14 6 -6 3 7 2 16 -1
19 -3 4 -6 -2 -5 -13z"/>
<path fill="#000000" stroke="none" d="M72 164 c-7 -8 -8 -14 -3 -14 10 0 25
19 20 25 -2 1 -10 -3 -17 -11z"/>
<path fill="#000000" stroke="none" d="M60 136 c0 -2 7 -7 16 -10 8 -3 12 -2
9 4 -6 10 -25 14 -25 6z"/>
<path fill="#000000" stroke="none" d="M238 133 c7 -3 16 -2 19 1 4 3 -2 6
-13 5 -11 0 -14 -3 -6 -6z"/>
<path fill="#000000" stroke="none" d="M282 55 c0 -16 2 -22 5 -12 2 9 2 23 0
30 -3 6 -5 -1 -5 -18z"/>
</g>
</svg>
