<?xml version="1.0" standalone="no"?>
<!DOCTYPE svg PUBLIC "-//W3C//DTD SVG 20010904//EN"
 "http://www.w3.org/TR/2001/REC-SVG-20010904/DTD/svg10.dtd">
<svg version="1.0" xmlns="http://www.w3.org/2000/svg"
 width="32.000000pt" height="32.000000pt" viewBox="0 0 32.000000 32.000000"
 preserveAspectRatio="xMidYMid meet">
<metadata>
Created by potrace 1.16, written by Peter Selinger 2001-2019
</metadata>
<g transform="translate(0.000000,32.000000) scale(0.100000,-0.100000)"
fill="#000000" stroke="none">
<path fill="#000000" stroke="none" d="M0 160 l0 -160 160 0 160 0 0 160 0
160 -160 0 -160 0 0 -160z"/>
<path fill="#ffffff" stroke="none" d="M298 298 c12 -15 12 -98 -1 -98 -4 0
-5 -5 -1 -12 12 -19 17 -135 5 -118 -8 12 -11 6 -12 -25 -2 -37 -2 -38 -6 -7
l-4 32 -57 -2 -57 -2 53 -3 c38 -3 52 -8 52 -19 0 -8 -4 -12 -10 -9 -5 3 -10
1 -10 -5 0 -8 -6 -8 -20 0 -12 6 -20 7 -20 1 0 -5 -8 -8 -17 -7 -10 2 -21 -2
-25 -8 -4 -6 -8 9 -9 34 0 25 -3 39 -6 33 -3 -8 -25 -13 -59 -13 -53 0 -54 0
-54 29 0 17 5 33 11 37 8 4 7 9 -2 15 -11 6 -10 14 3 41 l16 33 10 -25 11 -25
1 30 1 30 14 -25 c14 -25 14 -25 16 15 2 35 3 36 7 10 4 -26 5 -28 12 -10 6
15 9 7 9 -27 1 -42 -2 -48 -20 -48 -11 0 -17 -5 -14 -10 4 -7 13 -7 26 0 16 9
19 22 19 73 1 57 2 60 15 43 8 -11 16 -31 16 -45 1 -21 3 -19 9 9 l6 35 8 -28
c8 -26 9 -26 22 -10 12 17 13 16 14 -7 0 -18 3 -21 9 -11 7 11 10 10 14 -5 3
-11 5 -6 6 14 1 22 5 31 13 26 7 -4 8 -3 4 5 -4 6 -11 9 -15 6 -4 -2 -23 7
-41 20 -40 30 -96 33 -147 9 -56 -27 -66 -52 -65 -159 1 -54 -2 -95 -8 -95 -5
0 -9 61 -9 145 l-1 145 139 0 c99 0 142 -4 149 -12z"/>
<path fill="#ffffff" stroke="none" d="M150 53 c0 -5 -4 -14 -9 -22 -6 -9 -10
-10 -16 -2 -5 9 -10 9 -21 0 -11 -9 -14 -8 -15 7 0 15 -2 16 -7 4 -10 -23 -32
-23 -32 0 0 17 7 20 50 20 28 0 50 -3 50 -7z"/>
<path fill="#000000" stroke="none" d="M75 140 c4 -6 11 -8 16 -5 14 9 11 15
-7 15 -8 0 -12 -5 -9 -10z"/>
<path fill="#000000" stroke="none" d="M238 143 c7 -3 16 -2 19 1 4 3 -2 6
-13 5 -11 0 -14 -3 -6 -6z"/>
</g>
</svg>
