<?xml version="1.0" standalone="no"?>
<!DOCTYPE svg PUBLIC "-//W3C//DTD SVG 20010904//EN"
 "http://www.w3.org/TR/2001/REC-SVG-20010904/DTD/svg10.dtd">
<svg version="1.0" xmlns="http://www.w3.org/2000/svg"
 width="32.000000pt" height="32.000000pt" viewBox="0 0 32.000000 32.000000"
 preserveAspectRatio="xMidYMid meet">
<metadata>
Created by potrace 1.16, written by Peter Selinger 2001-2019
</metadata>
<g transform="translate(0.000000,32.000000) scale(0.100000,-0.100000)"
fill="#000000" stroke="none">
<path fill="#000000" stroke="none" d="M19 298 c8 -11 12 -34 9 -58 -2 -22 -1
-40 2 -40 8 0 10 -73 1 -85 -9 -12 -7 -72 2 -82 4 -3 7 11 7 32 0 36 1 38 16
23 13 -13 21 -14 47 -4 18 6 35 16 39 21 4 6 8 -9 8 -32 0 -31 -4 -43 -17 -47
-11 -3 -7 -4 7 -3 24 2 25 4 22 58 l-4 55 45 3 c25 1 48 -2 51 -7 2 -4 -14 -8
-37 -8 -36 1 -42 -2 -42 -19 0 -17 7 -20 45 -20 41 0 45 -2 48 -27 3 -22 -1
-27 -25 -31 -22 -3 -20 -4 11 -6 l39 -1 -7 78 c-3 42 -2 104 2 137 l8 60 -48
0 c-26 0 -48 -3 -48 -7 0 -4 -18 -7 -40 -5 -22 1 -40 4 -40 7 0 3 -18 4 -40 2
-24 -3 -47 1 -58 9 -15 13 -16 12 -3 -3z"/>
<path fill="#ffffff" stroke="none" d="M100 277 c0 -2 -13 -16 -30 -32 l-30
-29 0 32 c0 29 3 32 30 32 17 0 30 -1 30 -3z"/>
<path fill="#ffffff" stroke="none" d="M280 260 c0 -8 -3 -40 -7 -70 -5 -42
-8 -49 -13 -30 -4 16 -14 26 -28 28 -12 2 -22 8 -22 14 0 6 -9 8 -20 5 -15 -4
-20 0 -20 13 0 10 -3 25 -6 34 -4 11 0 16 14 16 12 0 23 -4 27 -10 3 -5 20
-19 38 -31 l32 -22 -28 29 c-31 34 -30 39 7 39 17 0 26 -6 26 -15z"/>
<path fill="#ffffff" stroke="none" d="M150 236 c0 -33 -1 -34 -42 -33 -42 1
-43 0 -46 -34 l-3 -35 39 4 c22 2 42 0 45 -5 3 -4 -17 -8 -44 -8 l-49 0 0 40
c0 30 7 46 32 72 43 44 68 44 68 -1z"/>
</g>
</svg>
