<?xml version="1.0" standalone="no"?>
<!DOCTYPE svg PUBLIC "-//W3C//DTD SVG 20010904//EN"
 "http://www.w3.org/TR/2001/REC-SVG-20010904/DTD/svg10.dtd">
<svg version="1.0" xmlns="http://www.w3.org/2000/svg"
 width="32.000000pt" height="32.000000pt" viewBox="0 0 32.000000 32.000000"
 preserveAspectRatio="xMidYMid meet">
<metadata>
Created by potrace 1.16, written by Peter Selinger 2001-2019
</metadata>
<g transform="translate(0.000000,32.000000) scale(0.100000,-0.100000)"
fill="#000000" stroke="none">
<path fill="#000000" stroke="none" d="M0 160 l0 -160 160 0 160 0 0 160 0
160 -160 0 -160 0 0 -160z"/>
<path fill="#ffffff" stroke="none" d="M120 288 c0 -4 10 -9 23 -11 20 -4 19
-4 -4 -6 -17 -1 -39 -15 -62 -40 -19 -21 -39 -36 -43 -32 -5 3 -9 26 -9 51 l0
45 48 0 c26 0 47 -3 47 -7z"/>
<path fill="#ffffff" stroke="none" d="M208 286 c-5 -8 65 -76 74 -70 4 3 8 0
8 -5 0 -19 -15 -12 -50 24 -19 19 -40 35 -47 35 -11 0 -11 3 -1 14 12 13 24
15 16 2z"/>
<path fill="#ffffff" stroke="none" d="M150 152 c-8 -3 -9 -7 -2 -11 6 -3 -11
-6 -37 -6 -26 0 -48 5 -48 10 0 6 19 10 41 10 38 0 41 2 45 30 l5 30 4 -30 c2
-17 -1 -31 -8 -33z"/>
<path fill="#ffffff" stroke="none" d="M47 158 c-3 -8 -6 -5 -6 6 -1 11 2 17
5 13 3 -3 4 -12 1 -19z"/>
<path fill="#ffffff" stroke="none" d="M257 145 c0 -5 -19 -10 -42 -10 -23 0
-42 5 -42 10 0 6 19 10 42 10 23 0 42 -4 42 -10z"/>
<path fill="#ffffff" stroke="none" d="M290 50 c0 -25 -4 -30 -22 -29 -17 1
-19 2 -5 6 10 3 17 14 17 29 0 13 2 24 5 24 3 0 5 -13 5 -30z"/>
<path fill="#ffffff" stroke="none" d="M160 30 c0 -5 -5 -10 -11 -10 -5 0 -7
5 -4 10 3 6 8 10 11 10 2 0 4 -4 4 -10z"/>
<path fill="#000000" stroke="none" d="M40 243 l0 -37 35 34 c19 19 35 35 35
37 0 2 -16 3 -35 3 -34 0 -35 -1 -35 -37z"/>
</g>
</svg>
