<?xml version="1.0" standalone="no"?>
<!DOCTYPE svg PUBLIC "-//W3C//DTD SVG 20010904//EN"
 "http://www.w3.org/TR/2001/REC-SVG-20010904/DTD/svg10.dtd">
<svg version="1.0" xmlns="http://www.w3.org/2000/svg"
 width="32.000000pt" height="32.000000pt" viewBox="0 0 32.000000 32.000000"
 preserveAspectRatio="xMidYMid meet">
<metadata>
Created by potrace 1.16, written by Peter Selinger 2001-2019
</metadata>
<g transform="translate(0.000000,32.000000) scale(0.100000,-0.100000)"
fill="#000000" stroke="none">
<path fill="#000000" stroke="none" d="M0 160 l0 -160 160 0 160 0 0 160 0
160 -160 0 -160 0 0 -160z"/>
<path fill="#ffffff" stroke="none" d="M61 298 c0 -10 2 -10 6 0 5 14 63 17
63 3 0 -5 -9 -11 -20 -14 -13 -3 -18 -1 -13 6 11 18 -49 -31 -62 -51 -6 -9
-11 -30 -10 -45 1 -15 -2 -30 -7 -33 -4 -3 -8 29 -8 70 0 74 1 76 25 76 14 0
25 -6 26 -12z"/>
<path fill="#ffffff" stroke="none" d="M229 292 c11 -11 16 -10 30 2 20 18 41
4 41 -27 0 -14 -5 -17 -22 -11 -13 4 -32 13 -43 20 -11 8 -34 14 -52 14 -17 0
-35 4 -38 10 -9 14 68 7 84 -8z"/>
<path fill="#ffffff" stroke="none" d="M221 170 c42 0 51 3 59 23 7 18 9 15 9
-20 1 -23 6 -45 11 -48 6 -3 10 -14 10 -23 0 -15 -2 -15 -10 -2 -7 11 -10 7
-11 -20 -1 -19 -3 -27 -6 -17 -4 15 -13 17 -64 14 -49 -4 -59 -2 -59 12 0 14
-2 14 -10 1 -9 -14 -91 -22 -103 -10 -10 10 6 60 19 60 8 0 14 -5 14 -11 0 -8
6 -7 17 2 13 11 17 11 21 1 3 -10 7 -10 19 -1 11 10 19 10 34 1 11 -7 19 -8
19 -2 0 5 9 10 20 10 12 0 20 -7 20 -16 0 -13 2 -13 17 2 17 16 18 16 24 -7 6
-22 7 -21 8 7 l1 31 -60 -3 -60 -2 2 42 c1 37 2 37 5 9 4 -32 5 -33 54 -33z"/>
<path fill="#ffffff" stroke="none" d="M130 158 c-26 -10 -90 -3 -90 10 0 4
26 5 57 3 50 -3 54 -5 33 -13z"/>
<path fill="#ffffff" stroke="none" d="M29 70 c0 -23 -1 -23 -9 -5 -5 11 -9
29 -9 40 -1 17 1 17 9 5 5 -8 9 -26 9 -40z"/>
<path fill="#ffffff" stroke="none" d="M167 38 c-3 -8 -6 -5 -6 6 -1 11 2 17
5 13 3 -3 4 -12 1 -19z"/>
<path fill="#000000" stroke="none" d="M120 100 c0 -5 5 -10 11 -10 5 0 7 5 4
10 -3 6 -8 10 -11 10 -2 0 -4 -4 -4 -10z"/>
<path fill="#000000" stroke="none" d="M88 93 c7 -3 16 -2 19 1 4 3 -2 6 -13
5 -11 0 -14 -3 -6 -6z"/>
</g>
</svg>
