<?xml version="1.0" standalone="no"?>
<!DOCTYPE svg PUBLIC "-//W3C//DTD SVG 20010904//EN"
 "http://www.w3.org/TR/2001/REC-SVG-20010904/DTD/svg10.dtd">
<svg version="1.0" xmlns="http://www.w3.org/2000/svg"
 width="32.000000pt" height="32.000000pt" viewBox="0 0 32.000000 32.000000"
 preserveAspectRatio="xMidYMid meet">
<metadata>
Created by potrace 1.16, written by Peter Selinger 2001-2019
</metadata>
<g transform="translate(0.000000,32.000000) scale(0.100000,-0.100000)"
fill="#000000" stroke="none">
<path fill="#000000" stroke="none" d="M10 229 c0 -47 4 -78 9 -74 22 13 36
-49 17 -74 -8 -11 -8 -13 0 -8 7 4 10 -5 10 -25 -1 -21 4 -32 15 -33 9 -2 16
3 16 11 0 7 -4 11 -8 8 -16 -10 -18 14 -1 28 22 18 187 20 187 1 0 -6 3 -15 7
-19 4 -4 3 -12 -2 -19 -7 -8 -5 -12 4 -12 8 0 12 11 11 26 -3 35 4 44 21 30
12 -9 14 -5 14 30 0 24 -5 41 -11 41 -8 0 -9 -11 -5 -31 5 -26 3 -29 -7 -20
-16 13 -16 66 0 66 6 0 15 4 20 9 4 5 3 6 -3 3 -12 -7 -31 9 -34 28 -1 6 -4
12 -7 15 -4 3 -3 0 0 -6 16 -28 -76 -56 -95 -29 -5 7 -8 7 -8 -1 0 -6 -20 -10
-47 -9 -29 0 -48 5 -48 12 0 6 -3 15 -8 19 -4 4 7 24 25 43 l33 36 -36 -33
c-20 -18 -36 -42 -35 -52 0 -11 -3 -19 -9 -19 -13 0 -7 38 10 65 7 12 28 28
47 37 57 27 61 26 63 -15 1 -21 5 -41 9 -45 4 -4 5 5 2 20 -2 14 0 29 5 33 6
3 5 12 -3 21 -11 14 -10 15 12 8 36 -10 71 -35 65 -44 -2 -5 3 -15 13 -22 15
-13 16 -12 3 4 -12 15 -11 17 7 14 12 -2 25 -7 29 -12 5 -4 2 -5 -4 -1 -15 8
-16 5 -7 -18 3 -9 10 -16 15 -16 11 0 0 81 -13 98 -8 8 -49 12 -144 12 l-134
0 0 -81z"/>
<path fill="#ffffff" stroke="none" d="M274 159 c-3 -5 -10 -6 -16 -3 -7 5 -8
2 -2 -7 13 -20 12 -32 -2 -49 -10 -12 -32 -15 -91 -15 -51 1 -83 -3 -94 -12
-13 -11 -15 -9 -14 21 1 55 14 62 105 61 55 -1 84 3 92 12 11 14 32 7 22 -8z"/>
<path fill="#ffffff" stroke="none" d="M64 149 c-3 -5 -10 -7 -15 -3 -5 3 -7
10 -3 15 3 5 10 7 15 3 5 -3 7 -10 3 -15z"/>
<path fill="#ffffff" stroke="none" d="M274 79 c-3 -5 -10 -7 -15 -3 -5 3 -7
10 -3 15 3 5 10 7 15 3 5 -3 7 -10 3 -15z"/>
<path fill="#000000" stroke="none" d="M10 81 c0 -34 4 -61 9 -61 12 0 11 109
-1 116 -4 3 -8 -22 -8 -55z"/>
<path fill="#000000" stroke="none" d="M157 27 c-3 -8 1 -14 8 -14 7 0 11 6 8
14 -3 7 -6 13 -8 13 -2 0 -5 -6 -8 -13z"/>
</g>
</svg>
