<?xml version="1.0" standalone="no"?>
<!DOCTYPE svg PUBLIC "-//W3C//DTD SVG 20010904//EN"
 "http://www.w3.org/TR/2001/REC-SVG-20010904/DTD/svg10.dtd">
<svg version="1.0" xmlns="http://www.w3.org/2000/svg"
 width="32.000000pt" height="32.000000pt" viewBox="0 0 32.000000 32.000000"
 preserveAspectRatio="xMidYMid meet">
<metadata>
Created by potrace 1.16, written by Peter Selinger 2001-2019
</metadata>
<g transform="translate(0.000000,32.000000) scale(0.100000,-0.100000)"
fill="#000000" stroke="none">
<path fill="#000000" stroke="none" d="M10 160 c0 -87 4 -150 9 -150 6 0 12
15 14 33 l4 32 1 -32 2 -33 120 0 120 0 0 30 c0 17 4 30 8 30 5 0 7 -14 4 -30
-3 -18 0 -30 7 -30 8 0 11 46 11 150 l0 150 -150 0 -150 0 0 -150z"/>
<path fill="#ffffff" stroke="none" d="M147 284 c-3 -3 -12 -4 -19 -1 -8 3 -5
6 6 6 11 1 17 -2 13 -5z"/>
<path fill="#ffffff" stroke="none" d="M197 284 c-3 -3 -12 -4 -19 -1 -8 3 -5
6 6 6 11 1 17 -2 13 -5z"/>
<path fill="#ffffff" stroke="none" d="M62 237 c-12 -13 -23 -34 -23 -48 l-2
-24 -4 23 c-4 21 28 72 45 72 3 0 -4 -10 -16 -23z"/>
<path fill="#ffffff" stroke="none" d="M147 245 c-4 -8 -2 -17 3 -20 6 -4 9
-18 9 -33 l-1 -27 -8 30 c-4 17 -8 26 -10 20 -1 -5 -5 -1 -10 10 -8 17 -9 16
-9 -9 -1 -24 -3 -27 -16 -16 -12 10 -15 9 -15 -4 0 -10 -4 -15 -10 -11 -15 9
5 49 31 62 32 17 42 16 36 -2z"/>
<path fill="#ffffff" stroke="none" d="M210 250 c25 -13 47 -52 28 -48 -7 2
-12 -3 -10 -10 1 -8 -2 -11 -7 -8 -5 4 -8 15 -6 26 2 11 -1 23 -7 26 -6 4 -9
3 -6 -2 3 -5 2 -18 -3 -29 -7 -18 -8 -18 -8 -2 -1 10 -5 16 -9 13 -5 -3 -9 1
-9 9 0 8 5 11 11 8 6 -4 5 1 -3 10 -16 20 -1 23 29 7z"/>
<path fill="#ffffff" stroke="none" d="M289 191 l-2 -26 -4 25 c-3 14 -14 36
-26 50 l-22 25 28 -24 c17 -16 27 -34 26 -50z"/>
<path fill="#ffffff" stroke="none" d="M37 103 c-3 -10 -5 -2 -5 17 0 19 2 27
5 18 2 -10 2 -26 0 -35z"/>
<path fill="#ffffff" stroke="none" d="M159 118 c0 -30 -1 -31 -9 -10 -5 12
-12 22 -15 22 -4 0 -4 -4 0 -9 3 -5 1 -12 -5 -16 -5 -3 -10 1 -10 11 0 13 -3
14 -15 4 -8 -7 -12 -17 -8 -24 4 -6 0 -5 -9 2 -13 10 -16 26 -9 50 1 1 19 2
41 2 39 0 40 -1 39 -32z"/>
<path fill="#ffffff" stroke="none" d="M246 139 c3 -6 -1 -18 -10 -27 -15 -15
-16 -15 -16 2 0 19 -1 19 -22 0 -12 -10 -18 -14 -15 -7 4 6 3 14 -3 18 -5 3
-10 10 -10 16 0 13 67 11 76 -2z"/>
<path fill="#ffffff" stroke="none" d="M287 103 c-3 -10 -5 -2 -5 17 0 19 2
27 5 18 2 -10 2 -26 0 -35z"/>
<path fill="#ffffff" stroke="none" d="M160 50 c0 -11 -5 -20 -11 -20 -6 0 -9
6 -6 14 4 11 -4 16 -31 19 l-37 4 43 1 c36 2 42 -1 42 -18z"/>
<path fill="#ffffff" stroke="none" d="M228 63 c-10 -2 -28 -2 -40 0 -13 2 -5
4 17 4 22 1 32 -1 23 -4z"/>
</g>
</svg>
