<?xml version="1.0" standalone="no"?>
<!DOCTYPE svg PUBLIC "-//W3C//DTD SVG 20010904//EN"
 "http://www.w3.org/TR/2001/REC-SVG-20010904/DTD/svg10.dtd">
<svg version="1.0" xmlns="http://www.w3.org/2000/svg"
 width="32.000000pt" height="32.000000pt" viewBox="0 0 32.000000 32.000000"
 preserveAspectRatio="xMidYMid meet">
<metadata>
Created by potrace 1.16, written by Peter Selinger 2001-2019
</metadata>
<g transform="translate(0.000000,32.000000) scale(0.100000,-0.100000)"
fill="#000000" stroke="none">
<path fill="#000000" stroke="none" d="M0 160 l0 -160 160 0 160 0 0 160 c0
136 -2 160 -15 160 -13 0 -15 -22 -14 -142 0 -93 5 -148 12 -158 10 -13 10
-13 -5 -1 -11 8 -34 12 -58 9 -22 -2 -40 0 -40 4 0 5 -18 8 -40 8 -22 0 -40
-3 -40 -7 0 -5 -21 -8 -48 -8 l-48 0 7 55 c4 30 8 97 8 148 1 86 0 92 -19 92
-19 0 -20 -7 -20 -160z"/>
<path fill="#000000" stroke="none" d="M50 233 c0 -49 -3 -112 -7 -141 l-6
-54 84 7 c79 7 86 10 122 43 l37 36 0 98 0 98 -115 0 -115 0 0 -87z"/>
<path fill="#ffffff" stroke="none" d="M86 78 l29 -33 -32 29 c-18 17 -33 31
-33 33 0 8 8 1 36 -29z"/>
<path fill="#000000" stroke="none" d="M245 70 l-29 -30 32 0 c29 0 32 3 32
30 0 17 -1 30 -3 30 -2 0 -16 -13 -32 -30z"/>
</g>
</svg>
