<?xml version="1.0" standalone="no"?>
<!DOCTYPE svg PUBLIC "-//W3C//DTD SVG 20010904//EN"
 "http://www.w3.org/TR/2001/REC-SVG-20010904/DTD/svg10.dtd">
<svg version="1.0" xmlns="http://www.w3.org/2000/svg"
 width="32.000000pt" height="32.000000pt" viewBox="0 0 32.000000 32.000000"
 preserveAspectRatio="xMidYMid meet">
<metadata>
Created by potrace 1.16, written by Peter Selinger 2001-2019
</metadata>
<g transform="translate(0.000000,32.000000) scale(0.100000,-0.100000)"
fill="#000000" stroke="none">
<path fill="#000000" stroke="none" d="M40 145 c0 -14 -3 -25 -7 -25 -5 0 -8
-21 -8 -47 l0 -48 47 0 c26 0 50 5 52 10 2 6 -14 9 -42 6 l-45 -3 7 66 c4 36
4 66 1 66 -3 0 -5 -11 -5 -25z"/>
<path fill="#000000" stroke="none" d="M280 134 c0 -19 4 -33 8 -30 8 5 4 66
-4 66 -2 0 -4 -16 -4 -36z"/>
<path fill="#000000" stroke="none" d="M148 43 c7 -3 16 -2 19 1 4 3 -2 6 -13
5 -11 0 -14 -3 -6 -6z"/>
</g>
</svg>
