<?xml version="1.0" standalone="no"?>
<!DOCTYPE svg PUBLIC "-//W3C//DTD SVG 20010904//EN"
 "http://www.w3.org/TR/2001/REC-SVG-20010904/DTD/svg10.dtd">
<svg version="1.0" xmlns="http://www.w3.org/2000/svg"
 width="32.000000pt" height="32.000000pt" viewBox="0 0 32.000000 32.000000"
 preserveAspectRatio="xMidYMid meet">
<metadata>
Created by potrace 1.16, written by Peter Selinger 2001-2019
</metadata>
<g transform="translate(0.000000,32.000000) scale(0.100000,-0.100000)"
fill="#000000" stroke="none">
<path fill="#000000" stroke="none" d="M44 160 c0 -91 2 -128 3 -82 2 45 2
119 0 165 -1 45 -3 8 -3 -83z"/>
<path fill="#000000" stroke="none" d="M60 313 c0 -5 45 -8 100 -8 55 0 100 3
100 8 0 4 -45 7 -100 7 -55 0 -100 -3 -100 -7z"/>
<path fill="#000000" stroke="none" d="M284 160 c0 -91 2 -128 3 -82 2 45 2
119 0 165 -1 45 -3 8 -3 -83z"/>
<path fill="#000000" stroke="none" d="M143 243 c-46 -2 -83 -7 -83 -11 0 -4
45 -7 100 -7 95 0 119 5 84 19 -9 3 -16 5 -17 4 -1 -1 -39 -4 -84 -5z"/>
<path fill="#000000" stroke="none" d="M60 153 c0 -5 45 -8 100 -8 55 0 100 3
100 8 0 4 -45 7 -100 7 -55 0 -100 -3 -100 -7z"/>
<path fill="#000000" stroke="none" d="M60 79 c0 -11 22 -14 100 -14 55 0 100
3 100 8 0 4 -38 7 -84 7 -46 0 -91 3 -100 6 -10 4 -16 1 -16 -7z"/>
</g>
</svg>
