<?xml version="1.0" standalone="no"?>
<!DOCTYPE svg PUBLIC "-//W3C//DTD SVG 20010904//EN"
 "http://www.w3.org/TR/2001/REC-SVG-20010904/DTD/svg10.dtd">
<svg version="1.0" xmlns="http://www.w3.org/2000/svg"
 width="32.000000pt" height="32.000000pt" viewBox="0 0 32.000000 32.000000"
 preserveAspectRatio="xMidYMid meet">
<metadata>
Created by potrace 1.16, written by Peter Selinger 2001-2019
</metadata>
<g transform="translate(0.000000,32.000000) scale(0.100000,-0.100000)"
fill="#000000" stroke="none">
<path fill="#000000" stroke="none" d="M0 160 l0 -160 55 0 55 0 0 40 c0 22 3
40 8 40 4 0 6 -18 4 -40 -4 -40 -4 -40 32 -40 35 0 36 1 36 40 0 22 3 40 8 40
4 0 6 -18 4 -40 l-4 -40 61 0 61 0 0 160 0 160 -59 0 -60 0 -4 -32 -4 -33 -1
33 c-2 30 -5 32 -36 32 -32 0 -35 -3 -39 -32 l-4 -33 -1 33 -2 32 -55 0 -55 0
0 -160z"/>
<path fill="#ffffff" stroke="none" d="M117 133 c-2 -21 -4 -4 -4 37 0 41 2
58 4 38 2 -21 2 -55 0 -75z"/>
<path fill="#ffffff" stroke="none" d="M197 133 c-2 -21 -4 -4 -4 37 0 41 2
58 4 38 2 -21 2 -55 0 -75z"/>
</g>
</svg>
