<?xml version="1.0" standalone="no"?>
<!DOCTYPE svg PUBLIC "-//W3C//DTD SVG 20010904//EN"
 "http://www.w3.org/TR/2001/REC-SVG-20010904/DTD/svg10.dtd">
<svg version="1.0" xmlns="http://www.w3.org/2000/svg"
 width="32.000000pt" height="32.000000pt" viewBox="0 0 32.000000 32.000000"
 preserveAspectRatio="xMidYMid meet">
<metadata>
Created by potrace 1.16, written by Peter Selinger 2001-2019
</metadata>
<g transform="translate(0.000000,32.000000) scale(0.100000,-0.100000)"
fill="#000000" stroke="none">
<path fill="#000000" stroke="none" d="M40 313 c0 -5 54 -8 120 -8 66 0 120 3
120 8 0 4 -54 7 -120 7 -66 0 -120 -3 -120 -7z"/>
<path fill="#000000" stroke="none" d="M20 244 c0 -39 3 -45 16 -40 9 4 23 1
30 -5 10 -8 14 -8 14 0 0 6 5 11 10 11 6 0 10 -8 10 -17 0 -15 1 -15 12 -1 16
20 85 19 98 -2 8 -13 10 -12 10 3 0 9 5 17 10 17 6 0 10 -5 10 -11 0 -8 4 -8
14 0 7 6 21 9 30 5 13 -5 16 1 16 40 l0 46 -140 0 -140 0 0 -46z"/>
<path fill="#ffffff" stroke="none" d="M288 242 c3 -22 2 -22 -127 -22 -120 0
-131 1 -131 18 0 10 2 21 4 23 2 2 60 4 128 4 119 -1 123 -1 126 -23z"/>
<path fill="#000000" stroke="none" d="M289 178 c-6 -50 -5 -105 1 -117 4 -8
7 18 7 57 0 40 -2 72 -4 72 -1 0 -4 -6 -4 -12z"/>
<path fill="#000000" stroke="none" d="M21 115 c3 -58 16 -58 16 0 0 25 -4 45
-9 45 -5 0 -8 -20 -7 -45z"/>
<path fill="#000000" stroke="none" d="M100 150 c0 -5 5 -10 11 -10 5 0 7 5 4
10 -3 6 -8 10 -11 10 -2 0 -4 -4 -4 -10z"/>
<path fill="#000000" stroke="none" d="M205 150 c-3 -5 -1 -10 4 -10 6 0 11 5
11 10 0 6 -2 10 -4 10 -3 0 -8 -4 -11 -10z"/>
<path fill="#000000" stroke="none" d="M65 101 c-3 -5 -2 -12 3 -15 5 -3 9 1
9 9 0 17 -3 19 -12 6z"/>
<path fill="#000000" stroke="none" d="M103 89 c-2 -23 3 -25 10 -4 4 8 3 16
-1 19 -4 3 -9 -4 -9 -15z"/>
<path fill="#000000" stroke="none" d="M206 102 c-2 -4 -1 -14 4 -22 7 -11 9
-9 7 8 -1 24 -3 26 -11 14z"/>
<path fill="#000000" stroke="none" d="M243 95 c0 -8 4 -12 9 -9 5 3 6 10 3
15 -9 13 -12 11 -12 -6z"/>
<path fill="#000000" stroke="none" d="M20 47 c0 -10 8 -17 18 -17 9 0 13 4 7
8 -5 4 -13 11 -17 16 -5 5 -8 2 -8 -7z"/>
<path fill="#000000" stroke="none" d="M65 41 c-3 -5 -1 -12 5 -16 5 -3 10 1
10 9 0 18 -6 21 -15 7z"/>
<path fill="#000000" stroke="none" d="M100 40 c0 -5 5 -10 11 -10 5 0 7 5 4
10 -3 6 -8 10 -11 10 -2 0 -4 -4 -4 -10z"/>
<path fill="#000000" stroke="none" d="M205 40 c-3 -5 -1 -10 4 -10 6 0 11 5
11 10 0 6 -2 10 -4 10 -3 0 -8 -4 -11 -10z"/>
<path fill="#000000" stroke="none" d="M240 34 c0 -8 5 -12 10 -9 6 4 8 11 5
16 -9 14 -15 11 -15 -7z"/>
<path fill="#000000" stroke="none" d="M276 32 c6 -4 14 -14 17 -22 4 -10 6
-8 6 8 1 15 -5 22 -16 22 -11 0 -14 -3 -7 -8z"/>
</g>
</svg>
