<?xml version="1.0" standalone="no"?>
<!DOCTYPE svg PUBLIC "-//W3C//DTD SVG 20010904//EN"
 "http://www.w3.org/TR/2001/REC-SVG-20010904/DTD/svg10.dtd">
<svg version="1.0" xmlns="http://www.w3.org/2000/svg"
 width="32.000000pt" height="32.000000pt" viewBox="0 0 32.000000 32.000000"
 preserveAspectRatio="xMidYMid meet">
<metadata>
Created by potrace 1.16, written by Peter Selinger 2001-2019
</metadata>
<g transform="translate(0.000000,32.000000) scale(0.100000,-0.100000)"
fill="#000000" stroke="none">
<path fill="#000000" stroke="none" d="M39 263 c0 -32 -2 -95 -5 -139 -2 -45
0 -92 5 -105 7 -17 10 25 10 139 1 89 -1 162 -4 162 -3 0 -5 -26 -6 -57z"/>
<path fill="#000000" stroke="none" d="M60 311 c0 -5 8 -7 19 -4 10 3 21 -2
24 -10 10 -27 1 -52 -21 -55 -12 -2 -22 -7 -22 -11 0 -5 10 -6 23 -4 19 4 22
0 22 -26 1 -23 -4 -31 -22 -36 -31 -7 -30 -23 1 -18 20 4 24 1 22 -13 -4 -22
11 -44 30 -44 9 0 12 10 9 31 -3 24 0 30 13 27 10 -2 17 -13 17 -25 0 -12 3
-25 7 -29 12 -12 37 16 33 37 -5 23 21 25 49 4 13 -10 17 -21 12 -39 -5 -21
-10 -24 -29 -17 -12 5 -45 6 -74 4 -28 -3 -65 -1 -82 5 -27 10 -31 9 -31 -7 0
-12 7 -17 23 -17 18 1 22 -4 19 -27 -2 -19 2 -27 12 -27 18 0 40 36 31 50 -10
16 21 12 34 -4 8 -10 9 -16 1 -21 -15 -9 -2 -25 21 -25 17 0 19 5 15 31 -4 26
-2 30 17 27 13 -2 29 -17 39 -38 18 -35 18 -34 18 130 l-1 165 -20 -38 c-24
-46 -54 -48 -54 -4 -1 24 2 28 22 24 13 -2 23 0 23 4 0 5 -45 9 -100 9 -55 0
-100 -4 -100 -9z"/>
<path fill="#ffffff" stroke="none" d="M179 291 c8 -14 6 -22 -8 -35 -21 -19
-48 -22 -34 -3 5 6 8 22 7 35 -2 27 21 29 35 3z"/>
<path fill="#ffffff" stroke="none" d="M280 213 c0 -27 -5 -55 -10 -63 -6 -10
-10 -11 -10 -2 0 7 -15 12 -37 13 -52 1 -78 11 -78 29 1 8 -3 21 -9 28 -8 11
-5 13 14 10 19 -2 25 -9 25 -27 0 -13 5 -26 12 -28 15 -5 36 34 27 49 -5 7 1
9 20 6 20 -4 26 -1 26 13 0 11 5 19 10 19 6 0 10 -21 10 -47z"/>
</g>
</svg>
