<?xml version="1.0" standalone="no"?>
<!DOCTYPE svg PUBLIC "-//W3C//DTD SVG 20010904//EN"
 "http://www.w3.org/TR/2001/REC-SVG-20010904/DTD/svg10.dtd">
<svg version="1.0" xmlns="http://www.w3.org/2000/svg"
 width="32.000000pt" height="32.000000pt" viewBox="0 0 32.000000 32.000000"
 preserveAspectRatio="xMidYMid meet">
<metadata>
Created by potrace 1.16, written by Peter Selinger 2001-2019
</metadata>
<g transform="translate(0.000000,32.000000) scale(0.100000,-0.100000)"
fill="#000000" stroke="none">
<path fill="#000000" stroke="none" d="M11 157 c1 -89 4 -153 7 -142 6 16 16
20 50 21 26 0 38 -2 30 -7 -7 -5 -25 -9 -40 -9 -16 0 -28 -5 -28 -10 0 -7 49
-10 140 -9 l140 1 -1 161 c-1 97 -4 150 -9 132 -4 -16 -8 -24 -9 -17 -1 15
-52 16 -103 1 -47 -12 -48 -23 -5 -37 18 -7 21 -10 8 -7 l-24 4 21 -21 c18
-19 26 -20 59 -12 21 5 38 14 38 21 0 6 3 15 8 19 10 10 9 -28 -2 -45 -5 -8
-15 -11 -23 -8 -8 3 -21 1 -29 -5 -11 -8 -11 -9 3 -4 10 3 20 1 24 -5 3 -6 12
-8 20 -5 9 3 14 -2 14 -14 0 -24 -22 -26 -40 -5 -7 8 -22 15 -34 15 -27 0 -89
64 -84 87 4 21 58 42 111 42 20 1 37 6 37 11 0 7 -49 10 -140 9 l-140 -1 1
-161z"/>
<path fill="#ffffff" stroke="none" d="M27 263 c-3 -10 -5 -4 -5 12 0 17 2 24
5 18 2 -7 2 -21 0 -30z"/>
<path fill="#ffffff" stroke="none" d="M104 248 c8 -13 6 -21 -7 -36 -17 -19
-17 -20 3 -25 11 -3 23 -13 26 -24 4 -10 14 -26 22 -35 18 -22 9 -48 -17 -48
-25 0 -36 -16 -16 -24 8 -3 15 -12 15 -21 0 -12 -5 -10 -21 6 -15 15 -30 20
-54 17 l-33 -4 -1 86 c-1 59 2 80 9 70 8 -12 10 -10 10 11 0 46 40 64 64 27z"/>
<path fill="#ffffff" stroke="none" d="M260 125 c22 -24 25 -24 31 -8 4 11 7
1 7 -25 0 -36 -4 -43 -25 -48 -19 -5 -30 0 -53 27 -34 40 -37 54 -12 68 24 14
26 14 52 -14z"/>
<path fill="#000000" stroke="none" d="M53 245 c-8 -23 4 -30 24 -14 11 9 14
10 9 2 -4 -7 -2 -13 3 -13 14 0 14 13 -1 28 -16 16 -27 15 -35 -3z"/>
<path fill="#000000" stroke="none" d="M32 140 c-1 -51 0 -52 26 -47 87 18 87
18 47 3 -22 -9 -49 -16 -60 -17 -18 -1 -18 -2 -2 -6 22 -6 107 18 107 29 0 5
-15 18 -32 29 -18 12 -25 19 -15 15 15 -5 16 -3 7 14 -6 11 -16 20 -23 20 -7
0 -22 3 -34 6 -20 5 -21 2 -21 -46z"/>
<path fill="#000000" stroke="none" d="M215 132 c-13 -9 -18 -35 -6 -27 6 3
16 -3 23 -15 7 -11 20 -20 28 -21 10 0 8 -3 -5 -9 -19 -8 -19 -9 3 -9 20 -1
22 3 17 22 -9 30 -48 68 -60 59z"/>
</g>
</svg>
