<?xml version="1.0" standalone="no"?>
<!DOCTYPE svg PUBLIC "-//W3C//DTD SVG 20010904//EN"
 "http://www.w3.org/TR/2001/REC-SVG-20010904/DTD/svg10.dtd">
<svg version="1.0" xmlns="http://www.w3.org/2000/svg"
 width="32.000000pt" height="32.000000pt" viewBox="0 0 32.000000 32.000000"
 preserveAspectRatio="xMidYMid meet">
<metadata>
Created by potrace 1.16, written by Peter Selinger 2001-2019
</metadata>
<g transform="translate(0.000000,32.000000) scale(0.100000,-0.100000)"
fill="#000000" stroke="none">
<path fill="#000000" stroke="none" d="M1 158 c0 -101 4 -155 9 -143 7 17 9
17 9 3 1 -10 8 -18 17 -18 8 0 12 5 9 10 -4 6 8 11 27 11 30 2 31 2 6 6 -39 6
-35 23 5 24 27 2 28 2 7 6 -43 8 -43 21 -1 19 41 -1 41 -1 41 -40 0 -34 2 -37
13 -24 6 9 19 18 27 21 11 4 9 6 -5 7 l-20 1 20 9 c18 8 18 9 -5 10 -23 1 -23
2 -5 10 43 18 54 12 58 -32 l4 -43 1 43 c1 29 6 42 16 42 22 0 30 -20 9 -21
-13 -1 -11 -3 7 -9 14 -4 18 -9 10 -10 -9 -1 -5 -5 10 -11 20 -8 22 -12 10
-19 -11 -7 -8 -10 13 -10 l27 0 0 160 0 160 -160 0 -160 0 1 -162z"/>
<path fill="#ffffff" stroke="none" d="M288 298 c7 -7 12 -14 12 -17 0 -4 -57
-5 -126 -3 -84 2 -130 -1 -139 -8 -8 -7 -16 -36 -18 -68 -3 -47 -4 -42 -5 26
l-2 82 133 0 c90 0 137 -4 145 -12z"/>
<path fill="#ffffff" stroke="none" d="M130 260 c0 -12 -8 -12 -35 0 -18 8
-17 9 8 9 15 1 27 -3 27 -9z"/>
<path fill="#ffffff" stroke="none" d="M210 260 c0 -11 -14 -11 -50 0 -22 7
-21 8 13 9 20 1 37 -3 37 -9z"/>
<path fill="#ffffff" stroke="none" d="M255 260 c-27 -12 -35 -12 -35 0 0 6
12 10 28 9 24 0 25 -1 7 -9z"/>
<path fill="#ffffff" stroke="none" d="M130 165 l0 -74 -32 6 c-42 8 -48 13
-17 14 18 1 15 3 -11 9 l-35 7 40 3 c35 2 37 3 15 10 l-25 8 25 2 c21 2 19 4
-10 10 l-35 7 35 3 35 3 -35 7 c-35 7 -35 7 -10 17 l25 10 -25 9 c-26 9 -25 9
53 23 4 0 7 -33 7 -74z"/>
<path fill="#ffffff" stroke="none" d="M210 165 c0 -41 -4 -75 -9 -75 -20 0
-41 13 -35 21 3 5 -3 9 -12 9 -16 0 -16 1 1 20 10 11 15 20 10 20 -4 0 -1 7 6
16 12 15 11 16 -9 10 -26 -9 -27 -3 -6 29 9 14 25 25 35 25 17 0 19 -8 19 -75z"/>
<path fill="#ffffff" stroke="none" d="M270 230 c11 -7 11 -10 2 -10 -10 0
-10 -5 -2 -20 9 -17 8 -20 -12 -21 -22 -1 -22 -1 2 -8 24 -7 24 -7 5 -19 l-20
-11 20 -2 c17 -1 16 -2 -5 -9 -17 -5 -19 -8 -7 -9 9 -1 17 -6 17 -12 0 -5 -4
-8 -9 -4 -5 3 -12 1 -16 -5 -16 -26 -25 -4 -25 65 0 65 2 75 18 75 9 0 24 -5
32 -10z"/>
<path fill="#ffffff" stroke="none" d="M17 62 c-2 -15 -4 -2 -4 28 0 30 2 43
4 27 2 -15 2 -39 0 -55z"/>
<path fill="#ffffff" stroke="none" d="M307 78 c-2 -13 -4 -3 -4 22 0 25 2 35
4 23 2 -13 2 -33 0 -45z"/>
<path fill="#ffffff" stroke="none" d="M307 18 c-3 -8 -6 -5 -6 6 -1 11 2 17
5 13 3 -3 4 -12 1 -19z"/>
</g>
</svg>
