<?xml version="1.0" standalone="no"?>
<!DOCTYPE svg PUBLIC "-//W3C//DTD SVG 20010904//EN"
 "http://www.w3.org/TR/2001/REC-SVG-20010904/DTD/svg10.dtd">
<svg version="1.0" xmlns="http://www.w3.org/2000/svg"
 width="32.000000pt" height="32.000000pt" viewBox="0 0 32.000000 32.000000"
 preserveAspectRatio="xMidYMid meet">
<metadata>
Created by potrace 1.16, written by Peter Selinger 2001-2019
</metadata>
<g transform="translate(0.000000,32.000000) scale(0.100000,-0.100000)"
fill="#000000" stroke="none">
<path fill="#000000" stroke="none" d="M0 219 c0 -74 4 -104 15 -115 15 -15
14 -17 28 76 3 14 5 4 6 -21 1 -41 6 -51 40 -82 27 -24 36 -39 30 -48 -8 -12
-13 -6 -11 12 1 3 -15 21 -33 39 l-35 34 0 -38 c0 -31 3 -37 16 -32 15 6 15 4
0 -19 l-16 -25 59 0 c40 0 63 5 71 15 7 8 17 12 22 8 6 -3 9 0 6 7 -2 7 15 31
39 53 29 27 43 48 43 65 0 56 11 10 13 -54 l2 -69 -42 4 c-50 4 -58 -13 -12
-23 78 -15 79 -14 79 72 0 69 -3 83 -30 125 -31 49 -39 54 -58 35 -8 -8 -15
-8 -27 2 -13 11 -19 9 -40 -10 -22 -21 -25 -21 -47 -6 -12 9 -30 16 -40 16
-12 0 -18 8 -18 21 0 18 -2 19 -15 9 -13 -11 -14 -10 -9 4 3 9 10 16 15 16 5
0 9 7 9 15 0 10 -10 15 -30 15 l-30 0 0 -101z"/>
<path fill="#ffffff" stroke="none" d="M130 164 c0 -2 -16 -4 -35 -4 -19 0
-35 4 -35 8 0 4 16 6 35 4 19 -2 35 -6 35 -8z"/>
<path fill="#ffffff" stroke="none" d="M255 170 c-3 -5 -12 -10 -18 -10 -7 0
-6 4 3 10 19 12 23 12 15 0z"/>
<path fill="#ffffff" stroke="none" d="M198 163 c-10 -2 -26 -2 -35 0 -10 3
-2 5 17 5 19 0 27 -2 18 -5z"/>
<path fill="#ffffff" stroke="none" d="M235 108 c6 -4 -8 -7 -30 -6 -23 0 -30
3 -17 5 12 2 22 9 22 15 0 7 3 7 8 2 4 -5 12 -12 17 -16z"/>
<path fill="#ffffff" stroke="none" d="M148 103 c-10 -2 -28 -2 -40 0 -13 2
-5 4 17 4 22 1 32 -1 23 -4z"/>
<path fill="#ffffff" stroke="none" d="M167 44 c-3 -3 -12 -4 -19 -1 -8 3 -5
6 6 6 11 1 17 -2 13 -5z"/>
<path fill="#000000" stroke="none" d="M260 295 c0 -19 33 -82 56 -104 2 -2 4
12 4 33 0 33 -2 37 -20 31 -17 -5 -20 -2 -19 22 2 24 2 25 6 5 4 -19 7 -21 19
-11 8 6 14 20 14 30 0 14 -7 19 -30 19 -25 0 -30 -4 -30 -25z"/>
<path fill="#000000" stroke="none" d="M240 75 l-34 -35 37 0 c36 0 37 1 37
35 0 19 -1 35 -3 35 -2 0 -18 -16 -37 -35z"/>
<path fill="#000000" stroke="none" d="M12 48 c-16 -16 -15 -48 2 -48 17 0 25
20 17 43 -5 14 -9 15 -19 5z"/>
<path fill="#000000" stroke="none" d="M178 3 c7 -3 16 -2 19 1 4 3 -2 6 -13
5 -11 0 -14 -3 -6 -6z"/>
</g>
</svg>
