<?xml version="1.0" standalone="no"?>
<!DOCTYPE svg PUBLIC "-//W3C//DTD SVG 20010904//EN"
 "http://www.w3.org/TR/2001/REC-SVG-20010904/DTD/svg10.dtd">
<svg version="1.0" xmlns="http://www.w3.org/2000/svg"
 width="32.000000pt" height="32.000000pt" viewBox="0 0 32.000000 32.000000"
 preserveAspectRatio="xMidYMid meet">
<metadata>
Created by potrace 1.16, written by Peter Selinger 2001-2019
</metadata>
<g transform="translate(0.000000,32.000000) scale(0.100000,-0.100000)"
fill="#000000" stroke="none">
<path fill="#000000" stroke="none" d="M10 160 c0 -136 2 -160 15 -160 8 0 14
5 12 12 -1 6 6 14 16 16 11 2 17 -3 17 -14 0 -10 3 -14 7 -11 3 4 7 35 7 69 1
54 -2 65 -26 89 -32 31 -36 59 -10 59 14 0 14 2 3 9 -17 11 -23 39 -10 46 9 6
-11 45 -23 45 -5 0 -8 -72 -8 -160z"/>
<path fill="#ffffff" stroke="none" d="M70 119 c0 -10 -6 -19 -14 -19 -19 0
-30 31 -14 41 17 10 28 2 28 -22z"/>
<path fill="#ffffff" stroke="none" d="M68 65 c0 -28 -22 -34 -32 -9 -7 19 1
34 18 34 8 0 14 -11 14 -25z"/>
<path fill="#000000" stroke="none" d="M69 304 c0 -10 0 -45 1 -78 1 -44 -2
-56 -11 -51 -8 5 -10 4 -5 -3 4 -6 12 -9 19 -6 9 3 13 25 11 75 -1 39 -5 73
-8 76 -3 4 -6 -2 -7 -13z"/>
<path fill="#000000" stroke="none" d="M103 160 c0 -91 2 -157 4 -148 2 9 12
19 21 21 15 4 15 5 0 6 -12 1 -18 9 -18 25 0 15 7 26 18 29 16 4 16 5 0 6 -11
1 -18 9 -18 21 0 17 7 20 50 20 43 0 50 -3 50 -19 0 -11 -8 -22 -17 -24 -17
-4 -17 -5 0 -6 27 -2 23 -49 -5 -54 -23 -4 -23 -4 -1 -6 12 0 23 -9 26 -18 2
-10 4 56 4 147 0 91 -2 157 -4 148 -2 -9 -14 -19 -26 -21 l-22 -4 23 -2 c28
-1 32 -47 5 -54 -17 -4 -17 -5 0 -6 11 -1 17 -9 17 -26 0 -23 -3 -25 -50 -25
-46 0 -50 2 -50 24 0 15 7 26 18 29 16 4 16 5 0 6 -24 1 -24 48 0 54 15 4 15
5 0 6 -9 0 -18 9 -21 19 -2 9 -4 -57 -4 -148z"/>
<path fill="#ffffff" stroke="none" d="M188 153 c-16 -2 -40 -2 -55 0 -16 2
-3 4 27 4 30 0 43 -2 28 -4z"/>
<path fill="#000000" stroke="none" d="M239 309 c-5 -98 -3 -139 8 -143 7 -3
15 0 19 6 4 7 3 8 -5 4 -9 -6 -11 11 -10 63 1 40 -1 74 -5 78 -3 3 -6 0 -7 -8z"/>
<path fill="#000000" stroke="none" d="M283 300 c-7 -10 -9 -22 -4 -25 13 -7
7 -35 -10 -46 -11 -7 -11 -9 4 -9 25 0 21 -28 -10 -59 -25 -24 -28 -35 -27
-89 0 -34 4 -65 7 -69 4 -3 7 1 7 11 0 11 6 16 18 14 9 -2 16 -10 15 -16 -2
-7 4 -12 12 -12 13 0 15 24 15 160 0 88 -3 160 -8 160 -4 0 -13 -9 -19 -20z"/>
<path fill="#ffffff" stroke="none" d="M286 123 c-3 -8 -6 -17 -6 -19 0 -2 -7
-4 -15 -4 -15 0 -21 31 -9 43 11 11 35 -5 30 -20z"/>
<path fill="#ffffff" stroke="none" d="M284 81 c9 -14 -4 -41 -19 -41 -7 0
-12 11 -12 25 0 24 20 34 31 16z"/>
</g>
</svg>
