<?xml version="1.0" standalone="no"?>
<!DOCTYPE svg PUBLIC "-//W3C//DTD SVG 20010904//EN"
 "http://www.w3.org/TR/2001/REC-SVG-20010904/DTD/svg10.dtd">
<svg version="1.0" xmlns="http://www.w3.org/2000/svg"
 width="32.000000pt" height="32.000000pt" viewBox="0 0 32.000000 32.000000"
 preserveAspectRatio="xMidYMid meet">
<metadata>
Created by potrace 1.16, written by Peter Selinger 2001-2019
</metadata>
<g transform="translate(0.000000,32.000000) scale(0.100000,-0.100000)"
fill="#000000" stroke="none">
<path fill="#000000" stroke="none" d="M0 160 l0 -160 160 0 c89 0 160 4 160
9 0 5 -27 8 -60 8 -33 -1 -60 1 -60 6 0 4 -18 7 -40 7 -22 0 -40 -3 -40 -7 0
-5 -24 -8 -54 -8 -50 0 -53 1 -46 21 5 11 9 80 9 152 1 112 -1 132 -14 132
-13 0 -15 -24 -15 -160z"/>
<path fill="#000000" stroke="none" d="M50 222 l0 -98 38 -37 c53 -52 94 -51
145 1 l38 39 -3 96 -2 97 -108 0 -108 0 0 -98z"/>
<path fill="#000000" stroke="none" d="M290 220 c0 -55 3 -100 8 -100 4 0 6
-20 4 -45 -3 -28 0 -45 7 -45 7 0 11 46 11 145 0 122 -2 145 -15 145 -12 0
-15 -18 -15 -100z"/>
<path fill="#000000" stroke="none" d="M49 93 c-9 -50 -7 -53 29 -53 l36 0
-29 30 c-31 32 -34 34 -36 23z"/>
<path fill="#000000" stroke="none" d="M245 70 l-29 -30 32 0 c29 0 32 3 32
30 0 17 -1 30 -3 30 -2 0 -16 -13 -32 -30z"/>
</g>
</svg>
