<?xml version="1.0" standalone="no"?>
<!DOCTYPE svg PUBLIC "-//W3C//DTD SVG 20010904//EN"
 "http://www.w3.org/TR/2001/REC-SVG-20010904/DTD/svg10.dtd">
<svg version="1.0" xmlns="http://www.w3.org/2000/svg"
 width="32.000000pt" height="32.000000pt" viewBox="0 0 32.000000 32.000000"
 preserveAspectRatio="xMidYMid meet">
<metadata>
Created by potrace 1.16, written by Peter Selinger 2001-2019
</metadata>
<g transform="translate(0.000000,32.000000) scale(0.100000,-0.100000)"
fill="#000000" stroke="none">
<path fill="#000000" stroke="none" d="M0 160 c0 -130 3 -160 14 -160 11 0 14
22 15 100 1 55 -2 100 -6 100 -5 0 -8 24 -8 53 l0 52 53 0 c29 0 52 -5 52 -10
0 -6 18 -11 40 -12 25 -1 40 2 40 10 0 8 19 12 54 12 45 0 53 -2 46 -15 -5 -9
-9 -77 -9 -153 -1 -116 1 -137 14 -137 13 0 15 24 15 160 l0 160 -160 0 -160
0 0 -160z"/>
<path fill="#000000" stroke="none" d="M40 269 c0 -5 5 -7 10 -4 6 3 10 8 10
11 0 2 -4 4 -10 4 -5 0 -10 -5 -10 -11z"/>
<path fill="#000000" stroke="none" d="M155 262 c-17 -12 -17 -34 0 -30 9 2
15 7 15 12 -1 5 4 13 12 17 10 7 10 9 -2 9 -8 0 -19 -4 -25 -8z"/>
<path fill="#000000" stroke="none" d="M271 251 c-1 -8 -7 -11 -18 -7 -14 6
-14 3 3 -15 16 -18 19 -19 22 -5 2 9 1 22 -1 29 -4 9 -6 8 -6 -2z"/>
<path fill="#000000" stroke="none" d="M40 234 c0 -8 5 -12 10 -9 6 4 8 11 5
16 -9 14 -15 11 -15 -7z"/>
<path fill="#000000" stroke="none" d="M77 222 c-24 -25 -27 -35 -26 -93 1
-35 4 -50 6 -34 3 17 10 36 16 44 9 12 9 13 0 7 -8 -4 -13 -1 -13 8 0 10 9 16
26 16 14 0 23 4 19 9 -3 5 0 13 7 17 9 6 5 10 -12 15 l-25 6 24 10 c14 5 20
13 14 16 -5 3 -22 -6 -36 -21z"/>
<path fill="#000000" stroke="none" d="M234 223 c4 -8 2 -13 -6 -13 -8 0 -14
-9 -14 -20 0 -14 7 -20 22 -20 12 0 25 -6 27 -12 3 -7 6 -1 6 13 1 15 -8 34
-21 45 -12 10 -18 13 -14 7z"/>
<path fill="#000000" stroke="none" d="M149 148 c-1 -2 -2 -15 -3 -30 -2 -21
2 -28 15 -28 13 0 17 6 13 24 -3 17 1 26 13 29 11 3 8 5 -9 6 -16 0 -28 0 -29
-1z"/>
<path fill="#000000" stroke="none" d="M215 128 c1 -13 3 -26 4 -29 0 -4 12
-9 26 -11 20 -4 25 -1 25 16 0 26 -18 46 -41 46 -11 0 -16 -7 -14 -22z"/>
<path fill="#000000" stroke="none" d="M63 63 c-7 -2 -13 -17 -13 -32 0 -25 3
-28 25 -23 14 2 26 7 26 11 10 48 0 60 -38 44z"/>
<path fill="#000000" stroke="none" d="M145 40 c-1 -30 17 -41 31 -18 4 7 3 8
-4 4 -15 -9 -15 -1 -2 25 9 15 7 19 -7 19 -13 0 -18 -8 -18 -30z"/>
<path fill="#000000" stroke="none" d="M215 53 c1 -10 -2 -23 -7 -29 -6 -8 2
-13 27 -16 23 -3 35 0 35 8 0 7 -8 10 -20 7 -21 -5 -28 11 -10 22 17 10 11 25
-9 25 -13 0 -18 -6 -16 -17z"/>
</g>
</svg>
