<?xml version="1.0" standalone="no"?>
<!DOCTYPE svg PUBLIC "-//W3C//DTD SVG 20010904//EN"
 "http://www.w3.org/TR/2001/REC-SVG-20010904/DTD/svg10.dtd">
<svg version="1.0" xmlns="http://www.w3.org/2000/svg"
 width="32.000000pt" height="32.000000pt" viewBox="0 0 32.000000 32.000000"
 preserveAspectRatio="xMidYMid meet">
<metadata>
Created by potrace 1.16, written by Peter Selinger 2001-2019
</metadata>
<g transform="translate(0.000000,32.000000) scale(0.100000,-0.100000)"
fill="#000000" stroke="none">
<path fill="#000000" stroke="none" d="M40 313 c0 -5 54 -8 120 -8 66 0 120 3
120 8 0 4 -54 7 -120 7 -66 0 -120 -3 -120 -7z"/>
<path fill="#000000" stroke="none" d="M21 230 c2 -48 5 -60 16 -56 8 3 25 -1
38 -10 23 -15 24 -15 41 23 15 32 18 35 21 17 2 -12 13 -30 24 -40 19 -17 20
-17 31 14 14 35 28 42 28 14 0 -10 6 -26 13 -37 13 -17 15 -17 30 5 9 13 13
28 9 34 -4 7 -8 3 -10 -9 -2 -11 -8 -24 -12 -29 -11 -11 -25 38 -15 53 3 7 -2
11 -14 11 -11 0 -23 -4 -26 -10 -3 -5 -12 -10 -18 -9 -9 0 -8 2 1 6 6 2 9 10
6 15 -4 7 -2 8 4 4 7 -4 12 -3 12 3 0 6 8 8 18 5 13 -5 14 -4 3 4 -17 12 -63
5 -73 -11 -6 -9 -8 -9 -8 1 0 6 -5 12 -11 12 -5 0 -7 -4 -4 -10 3 -5 1 -10 -4
-10 -6 0 -11 5 -11 10 0 6 -11 10 -25 10 -14 0 -25 -4 -25 -10 0 -5 -7 -10
-16 -10 -10 0 -14 7 -12 22 3 22 7 23 103 23 55 0 108 -3 119 -8 13 -7 16 -6
11 3 -5 8 -3 11 6 8 8 -3 15 -15 17 -29 2 -17 0 -20 -6 -10 -8 11 -10 11 -15
0 -4 -10 -6 -10 -6 -1 -1 6 -6 12 -12 12 -16 0 -5 -25 12 -25 8 0 20 -4 27 -8
9 -6 12 3 12 37 l0 46 -140 0 -141 0 2 -60z"/>
<path fill="#ffffff" stroke="none" d="M74 218 c-6 -10 -4 -10 8 0 13 10 17
10 21 -2 3 -8 3 -23 0 -35 -5 -21 -10 -20 -53 8 -13 9 -12 12 5 25 25 19 28
20 19 4z"/>
<path fill="#ffffff" stroke="none" d="M166 215 c-3 -9 1 -18 9 -21 7 -3 11
-12 8 -20 -4 -11 -9 -12 -19 -3 -15 12 -19 41 -7 52 11 12 15 8 9 -8z"/>
<path fill="#000000" stroke="none" d="M285 181 c-3 -5 -1 -12 5 -16 5 -3 10
1 10 9 0 18 -6 21 -15 7z"/>
<path fill="#000000" stroke="none" d="M23 125 c0 -22 2 -30 4 -17 2 12 2 30
0 40 -3 9 -5 -1 -4 -23z"/>
<path fill="#000000" stroke="none" d="M265 123 c-32 -5 -82 -48 -66 -57 5 -3
30 -9 55 -12 41 -6 46 -5 46 12 0 15 -2 16 -9 5 -6 -10 -20 -11 -52 -6 l-44 8
29 12 c20 8 25 14 15 18 -8 3 0 6 18 6 17 1 34 -5 36 -11 3 -7 6 -3 6 10 1 12
0 21 -1 21 -2 -1 -16 -4 -33 -6z"/>
<path fill="#000000" stroke="none" d="M23 50 c0 -15 1 -18 4 -7 3 13 15 17
51 17 l47 0 -33 -20 c-18 -11 -41 -20 -52 -20 -36 0 -21 -15 15 -16 20 0 30 3
24 7 -8 4 0 13 21 24 39 20 30 32 -31 37 -42 3 -45 1 -46 -22z"/>
<path fill="#000000" stroke="none" d="M292 20 c0 -14 2 -19 5 -12 2 6 2 18 0
25 -3 6 -5 1 -5 -13z"/>
</g>
</svg>
