<?xml version="1.0" standalone="no"?>
<!DOCTYPE svg PUBLIC "-//W3C//DTD SVG 20010904//EN"
 "http://www.w3.org/TR/2001/REC-SVG-20010904/DTD/svg10.dtd">
<svg version="1.0" xmlns="http://www.w3.org/2000/svg"
 width="32.000000pt" height="32.000000pt" viewBox="0 0 32.000000 32.000000"
 preserveAspectRatio="xMidYMid meet">
<metadata>
Created by potrace 1.16, written by Peter Selinger 2001-2019
</metadata>
<g transform="translate(0.000000,32.000000) scale(0.100000,-0.100000)"
fill="#000000" stroke="none">
<path fill="#000000" stroke="none" d="M0 160 c0 -153 1 -160 20 -160 19 0 20
7 20 160 0 153 -1 160 -20 160 -19 0 -20 -7 -20 -160z"/>
<path fill="#000000" stroke="none" d="M50 160 l0 -160 115 0 115 0 0 160 0
160 -115 0 -115 0 0 -160z"/>
<path fill="#000000" stroke="none" d="M290 160 c0 -136 2 -160 15 -160 13 0
15 24 15 160 0 136 -2 160 -15 160 -13 0 -15 -24 -15 -160z"/>
</g>
</svg>
