<?xml version="1.0" standalone="no"?>
<!DOCTYPE svg PUBLIC "-//W3C//DTD SVG 20010904//EN"
 "http://www.w3.org/TR/2001/REC-SVG-20010904/DTD/svg10.dtd">
<svg version="1.0" xmlns="http://www.w3.org/2000/svg"
 width="32.000000pt" height="32.000000pt" viewBox="0 0 32.000000 32.000000"
 preserveAspectRatio="xMidYMid meet">
<metadata>
Created by potrace 1.16, written by Peter Selinger 2001-2019
</metadata>
<g transform="translate(0.000000,32.000000) scale(0.100000,-0.100000)"
fill="#000000" stroke="none">
<path fill="#000000" stroke="none" d="M0 248 c0 -39 3 -68 7 -65 3 4 5 33 4
65 l-2 57 55 0 c31 0 56 -4 56 -9 0 -9 43 -4 100 12 28 8 9 10 -92 11 l-128 1
0 -72z"/>
<path fill="#000000" stroke="none" d="M290 314 c11 -3 15 -19 15 -59 0 -30
-3 -55 -7 -55 -5 0 -8 -9 -8 -20 0 -13 5 -18 15 -14 11 5 15 24 15 80 0 70 -1
74 -22 73 -13 -1 -16 -3 -8 -5z"/>
<path fill="#000000" stroke="none" d="M56 272 c-7 -11 -8 -50 -7 -162 l1
-105 103 0 104 0 -1 92 c-1 50 -5 95 -9 100 -12 12 -91 11 -99 -2 -14 -18 -8
-21 44 -20 38 0 52 -4 53 -15 2 -13 -11 -16 -74 -15 -63 1 -78 -2 -90 -18 -7
-10 -10 -21 -6 -25 4 -4 43 -7 87 -7 65 0 82 -3 83 -15 2 -13 -13 -15 -89 -15
l-92 0 0 27 c1 14 4 30 9 34 10 10 9 26 -1 20 -4 -2 -8 6 -8 19 0 14 4 21 11
17 16 -10 49 -9 57 3 13 18 9 23 -22 20 -29 -2 -30 -1 -15 15 10 11 28 16 55
15 23 -1 40 3 40 9 0 6 5 4 10 -4 5 -8 10 -11 10 -6 0 5 11 -1 24 -13 29 -27
42 -22 41 16 0 24 -5 29 -30 31 l-30 4 30 -34 30 -33 -36 33 c-29 27 -40 31
-67 26 -17 -4 -39 -3 -49 1 -26 11 -62 15 -67 7z"/>
<path fill="#ffffff" stroke="none" d="M110 267 c0 -2 -15 -16 -32 -33 l-33
-29 29 33 c28 30 36 37 36 29z"/>
<path fill="#000000" stroke="none" d="M105 220 c-2 -3 25 -5 60 -5 35 0 61 2
59 5 -7 7 -115 7 -119 0z"/>
<path fill="#000000" stroke="none" d="M75 160 c4 -7 152 -7 159 0 2 3 -33 5
-79 5 -46 0 -82 -2 -80 -5z"/>
<path fill="#000000" stroke="none" d="M7 154 c-4 -4 -7 -14 -7 -23 0 -11 3
-12 11 -4 6 6 10 16 7 23 -2 6 -7 8 -11 4z"/>
<path fill="#000000" stroke="none" d="M290 114 c0 -22 2 -25 15 -14 8 7 15
19 15 26 0 8 -7 14 -15 14 -10 0 -15 -10 -15 -26z"/>
<path fill="#000000" stroke="none" d="M75 80 c4 -7 152 -7 159 0 2 3 -33 5
-79 5 -46 0 -82 -2 -80 -5z"/>
<path fill="#000000" stroke="none" d="M290 15 c0 -8 7 -15 15 -15 8 0 15 4
15 9 0 5 -7 11 -15 15 -9 3 -15 0 -15 -9z"/>
<path fill="#000000" stroke="none" d="M0 10 c0 -5 5 -10 10 -10 6 0 10 5 10
10 0 6 -4 10 -10 10 -5 0 -10 -4 -10 -10z"/>
</g>
</svg>
