<?xml version="1.0" standalone="no"?>
<!DOCTYPE svg PUBLIC "-//W3C//DTD SVG 20010904//EN"
 "http://www.w3.org/TR/2001/REC-SVG-20010904/DTD/svg10.dtd">
<svg version="1.0" xmlns="http://www.w3.org/2000/svg"
 width="32.000000pt" height="32.000000pt" viewBox="0 0 32.000000 32.000000"
 preserveAspectRatio="xMidYMid meet">
<metadata>
Created by potrace 1.16, written by Peter Selinger 2001-2019
</metadata>
<g transform="translate(0.000000,32.000000) scale(0.100000,-0.100000)"
fill="#000000" stroke="none">
<path fill="#000000" stroke="none" d="M42 153 c-1 -12 -5 -29 -9 -39 -4 -10
-2 -15 4 -11 9 6 72 -50 73 -65 0 -5 0 -11 0 -15 0 -5 4 -2 9 6 6 9 -3 24 -30
48 -25 23 -39 45 -42 66 -2 18 -4 23 -5 10z"/>
<path fill="#000000" stroke="none" d="M280 148 c0 -17 -14 -38 -44 -66 -24
-22 -41 -44 -37 -49 3 -4 26 -8 51 -8 l45 0 -2 69 c-2 64 -13 110 -13 54z"/>
<path fill="#ffffff" stroke="none" d="M280 75 c0 -34 -1 -35 -37 -35 l-37 0
34 35 c19 19 35 35 37 35 2 0 3 -16 3 -35z"/>
<path fill="#000000" stroke="none" d="M148 43 c7 -3 16 -2 19 1 4 3 -2 6 -13
5 -11 0 -14 -3 -6 -6z"/>
</g>
</svg>
