<?xml version="1.0" standalone="no"?>
<!DOCTYPE svg PUBLIC "-//W3C//DTD SVG 20010904//EN"
 "http://www.w3.org/TR/2001/REC-SVG-20010904/DTD/svg10.dtd">
<svg version="1.0" xmlns="http://www.w3.org/2000/svg"
 width="32.000000pt" height="32.000000pt" viewBox="0 0 32.000000 32.000000"
 preserveAspectRatio="xMidYMid meet">
<metadata>
Created by potrace 1.16, written by Peter Selinger 2001-2019
</metadata>
<g transform="translate(0.000000,32.000000) scale(0.100000,-0.100000)"
fill="#000000" stroke="none">
<path fill="#000000" stroke="none" d="M80 311 l35 -7 -28 -7 c-15 -4 -33 -5
-39 -1 -7 4 -8 3 -4 -4 4 -7 22 -12 39 -13 27 0 29 -2 12 -9 -11 -5 -15 -9 -8
-9 6 -1 18 -4 27 -7 13 -5 16 1 16 30 0 36 0 36 -42 35 l-43 -2 35 -6z"/>
<path fill="#000000" stroke="none" d="M160 310 c12 -8 12 -10 -5 -10 -20 -1
-20 -1 -1 -15 20 -15 20 -15 0 -16 -15 -1 -14 -3 6 -9 45 -14 50 -12 50 25 0
33 -2 35 -32 35 -25 0 -29 -3 -18 -10z"/>
<path fill="#000000" stroke="none" d="M220 283 c0 -28 3 -34 16 -29 9 3 20 6
25 6 6 0 8 4 5 9 -4 5 0 12 6 14 8 3 6 6 -5 6 -10 1 -16 5 -13 10 3 5 -3 11
-14 14 -17 4 -20 0 -20 -30z"/>
<path fill="#000000" stroke="none" d="M13 245 c0 -38 2 -53 4 -32 2 20 2 52
0 70 -2 17 -4 1 -4 -38z"/>
<path fill="#000000" stroke="none" d="M303 220 c0 -25 2 -35 4 -22 2 12 2 32
0 45 -2 12 -4 2 -4 -23z"/>
<path fill="#000000" stroke="none" d="M80 231 c-34 -7 -34 -7 -10 -15 l25 -9
-25 -10 c-25 -10 -25 -10 10 -17 l35 -7 -35 -3 -35 -3 35 -7 c29 -6 31 -8 10
-10 l-25 -2 25 -8 c22 -7 20 -8 -15 -10 l-40 -3 35 -7 c26 -6 29 -8 11 -9 -31
-1 -25 -6 17 -14 l32 -6 0 74 c0 41 -3 74 -7 74 -5 -1 -24 -5 -43 -8z"/>
<path fill="#000000" stroke="none" d="M156 215 c-21 -32 -20 -38 6 -29 20 6
21 5 9 -10 -7 -9 -10 -16 -6 -16 5 0 0 -9 -10 -20 -17 -19 -17 -20 -1 -20 9 0
15 -4 12 -9 -6 -8 15 -21 35 -21 5 0 9 34 9 75 0 67 -2 75 -19 75 -10 0 -26
-11 -35 -25z"/>
<path fill="#000000" stroke="none" d="M220 165 c0 -69 9 -91 25 -65 4 6 11 8
16 5 5 -4 9 -1 9 4 0 6 -8 11 -17 12 -12 1 -10 4 7 9 21 7 22 8 5 9 l-20 2 20
11 c19 12 19 12 -5 19 -24 7 -24 7 -2 8 20 1 21 4 12 21 -8 15 -8 20 2 20 20
0 -14 20 -34 20 -16 0 -18 -10 -18 -75z"/>
<path fill="#000000" stroke="none" d="M12 93 l-2 -83 133 0 c123 0 157 6 157
29 0 4 -57 5 -126 3 -84 -2 -130 1 -139 8 -8 7 -16 36 -18 68 -3 47 -4 42 -5
-25z"/>
<path fill="#000000" stroke="none" d="M55 70 c-3 -5 2 -10 12 -10 10 0 28 -3
41 -6 16 -5 22 -2 22 10 0 12 -9 16 -34 16 -19 0 -38 -4 -41 -10z"/>
<path fill="#000000" stroke="none" d="M156 71 c-3 -5 1 -12 10 -15 27 -10 44
-7 44 9 0 16 -45 21 -54 6z"/>
<path fill="#000000" stroke="none" d="M220 67 c0 -10 10 -12 32 -9 28 4 30 6
13 13 -30 12 -45 10 -45 -4z"/>
</g>
</svg>
