<?xml version="1.0" standalone="no"?>
<!DOCTYPE svg PUBLIC "-//W3C//DTD SVG 20010904//EN"
 "http://www.w3.org/TR/2001/REC-SVG-20010904/DTD/svg10.dtd">
<svg version="1.0" xmlns="http://www.w3.org/2000/svg"
 width="32.000000pt" height="32.000000pt" viewBox="0 0 32.000000 32.000000"
 preserveAspectRatio="xMidYMid meet">
<metadata>
Created by potrace 1.16, written by Peter Selinger 2001-2019
</metadata>
<g transform="translate(0.000000,32.000000) scale(0.100000,-0.100000)"
fill="#000000" stroke="none">
<path fill="#000000" stroke="none" d="M20 223 c-1 -54 -2 -124 -3 -157 l-2
-58 85 5 c47 3 106 3 131 -2 73 -12 87 -2 81 56 -2 26 -8 49 -13 51 -14 6 -11
156 4 171 10 11 10 13 0 7 -8 -4 -13 -1 -13 8 0 9 -7 16 -15 16 -12 0 -15 -18
-15 -103 0 -101 -1 -104 -29 -131 -19 -18 -42 -29 -67 -31 -34 -4 -44 1 -76
33 l-38 36 0 98 c0 80 -3 98 -15 98 -12 0 -15 -18 -15 -97z"/>
<path fill="#ffffff" stroke="none" d="M85 70 c18 -20 17 -20 -7 -20 -25 0
-43 21 -31 34 10 10 19 7 38 -14z"/>
<path fill="#ffffff" stroke="none" d="M273 71 c-3 -11 -13 -21 -24 -24 -23
-6 -24 1 -2 25 21 23 32 23 26 -1z"/>
</g>
</svg>
