<?xml version="1.0" standalone="no"?>
<!DOCTYPE svg PUBLIC "-//W3C//DTD SVG 20010904//EN"
 "http://www.w3.org/TR/2001/REC-SVG-20010904/DTD/svg10.dtd">
<svg version="1.0" xmlns="http://www.w3.org/2000/svg"
 width="32.000000pt" height="32.000000pt" viewBox="0 0 32.000000 32.000000"
 preserveAspectRatio="xMidYMid meet">
<metadata>
Created by potrace 1.16, written by Peter Selinger 2001-2019
</metadata>
<g transform="translate(0.000000,32.000000) scale(0.100000,-0.100000)"
fill="#000000" stroke="none">
<path fill="#000000" stroke="none" d="M93 280 c0 -25 2 -35 4 -22 2 12 2 32
0 45 -2 12 -4 2 -4 -23z"/>
<path fill="#000000" stroke="none" d="M223 280 c0 -25 2 -35 4 -22 2 12 2 32
0 45 -2 12 -4 2 -4 -23z"/>
<path fill="#000000" stroke="none" d="M65 220 c-3 -5 0 -7 9 -4 12 4 16 -5
19 -43 l3 -48 2 48 c1 34 6 46 14 41 7 -4 8 -3 4 4 -9 15 -43 16 -51 2z"/>
<path fill="#000000" stroke="none" d="M204 218 c-4 -6 -3 -8 4 -4 7 4 12 -10
15 -41 l3 -48 2 49 c2 39 5 47 18 42 8 -3 12 -2 9 4 -8 14 -42 13 -51 -2z"/>
<path fill="#000000" stroke="none" d="M50 80 c0 -11 2 -20 4 -20 2 0 6 9 9
20 3 11 1 20 -4 20 -5 0 -9 -9 -9 -20z"/>
<path fill="#000000" stroke="none" d="M82 80 c0 -14 2 -19 5 -12 2 6 2 18 0
25 -3 6 -5 1 -5 -13z"/>
<path fill="#000000" stroke="none" d="M110 80 c0 -11 2 -20 4 -20 2 0 6 9 9
20 3 11 1 20 -4 20 -5 0 -9 -9 -9 -20z"/>
<path fill="#000000" stroke="none" d="M142 80 c0 -14 2 -19 5 -12 2 6 2 18 0
25 -3 6 -5 1 -5 -13z"/>
<path fill="#000000" stroke="none" d="M170 80 c0 -11 2 -20 4 -20 2 0 6 9 9
20 3 11 1 20 -4 20 -5 0 -9 -9 -9 -20z"/>
<path fill="#000000" stroke="none" d="M202 80 c0 -14 2 -19 5 -12 2 6 2 18 0
25 -3 6 -5 1 -5 -13z"/>
<path fill="#000000" stroke="none" d="M230 80 c0 -11 2 -20 4 -20 2 0 6 9 9
20 3 11 1 20 -4 20 -5 0 -9 -9 -9 -20z"/>
<path fill="#000000" stroke="none" d="M262 80 c0 -14 2 -19 5 -12 2 6 2 18 0
25 -3 6 -5 1 -5 -13z"/>
</g>
</svg>
