<?xml version="1.0" standalone="no"?>
<!DOCTYPE svg PUBLIC "-//W3C//DTD SVG 20010904//EN"
 "http://www.w3.org/TR/2001/REC-SVG-20010904/DTD/svg10.dtd">
<svg version="1.0" xmlns="http://www.w3.org/2000/svg"
 width="32.000000pt" height="32.000000pt" viewBox="0 0 32.000000 32.000000"
 preserveAspectRatio="xMidYMid meet">
<metadata>
Created by potrace 1.16, written by Peter Selinger 2001-2019
</metadata>
<g transform="translate(0.000000,32.000000) scale(0.100000,-0.100000)"
fill="#000000" stroke="none">
<path fill="#000000" stroke="none" d="M9 185 c-1 -74 -2 -141 -3 -147 -3 -26
46 -38 154 -38 108 0 157 12 154 38 -1 6 -2 73 -3 147 -1 113 -3 135 -16 135
-8 0 -15 -7 -15 -15 0 -8 -7 -15 -15 -15 -8 0 -15 7 -15 17 0 32 -11 5 -15
-36 -2 -27 0 -41 8 -41 9 0 9 -2 0 -8 -14 -9 -11 -44 3 -49 6 -2 10 9 9 23 0
15 5 29 12 31 8 3 12 -13 12 -51 0 -42 -4 -56 -15 -56 -8 0 -14 10 -15 23 0
21 -1 21 -11 -3 -11 -25 -12 -25 -17 11 -5 31 -9 35 -26 28 -17 -6 -17 -8 -2
-8 11 -1 17 -9 17 -25 0 -21 -4 -23 -50 -23 -45 1 -50 3 -50 24 0 15 6 23 18
24 14 0 14 2 -3 8 -17 7 -21 3 -26 -28 -5 -36 -6 -36 -17 -11 -10 24 -11 24
-11 3 -1 -13 -7 -23 -15 -23 -11 0 -15 14 -15 56 0 38 4 54 12 51 7 -2 12 -16
12 -31 -1 -14 3 -25 9 -23 14 5 17 40 3 49 -9 6 -9 8 0 8 8 0 10 14 8 41 -4
41 -15 68 -15 36 0 -9 -7 -17 -15 -17 -8 0 -15 7 -15 15 0 8 -7 15 -15 15 -13
0 -15 -22 -16 -135z"/>
<path fill="#ffffff" stroke="none" d="M70 255 c0 -18 -4 -23 -15 -19 -16 6
-20 26 -8 37 13 14 23 6 23 -18z"/>
<path fill="#ffffff" stroke="none" d="M278 258 c2 -9 -4 -18 -13 -21 -11 -5
-15 0 -15 19 0 28 23 29 28 2z"/>
<path fill="#ffffff" stroke="none" d="M93 80 c3 -11 1 -23 -4 -26 -5 -3 -9 4
-9 15 0 12 -5 21 -11 21 -6 0 -9 -7 -6 -15 4 -8 2 -17 -3 -20 -6 -4 -10 4 -10
17 0 18 -2 20 -10 8 -5 -8 -10 -10 -10 -4 0 30 55 34 63 4z"/>
<path fill="#ffffff" stroke="none" d="M153 80 c3 -11 1 -23 -4 -26 -5 -3 -9
4 -9 15 0 12 -5 21 -11 21 -6 0 -9 -7 -6 -15 4 -8 2 -17 -2 -20 -5 -2 -11 6
-13 20 -4 21 -1 25 17 25 14 0 25 -7 28 -20z"/>
<path fill="#ffffff" stroke="none" d="M213 80 c3 -11 1 -23 -4 -26 -5 -3 -9
4 -9 15 0 12 -5 21 -11 21 -6 0 -9 -7 -6 -15 4 -8 2 -17 -2 -20 -5 -2 -11 6
-13 20 -4 21 -1 25 17 25 14 0 25 -7 28 -20z"/>
<path fill="#ffffff" stroke="none" d="M286 89 c3 -6 -1 -18 -10 -27 -15 -15
-16 -15 -16 6 0 12 -5 22 -11 22 -6 0 -9 -7 -6 -15 4 -8 2 -17 -2 -20 -5 -2
-11 6 -13 20 -5 22 -2 25 23 25 15 0 31 -5 35 -11z"/>
<path fill="#ffffff" stroke="none" d="M123 23 c-7 -2 -21 -2 -30 0 -10 3 -4
5 12 5 17 0 24 -2 18 -5z"/>
<path fill="#ffffff" stroke="none" d="M183 23 c-7 -2 -21 -2 -30 0 -10 3 -4
5 12 5 17 0 24 -2 18 -5z"/>
<path fill="#ffffff" stroke="none" d="M243 23 c-7 -2 -21 -2 -30 0 -10 3 -4
5 12 5 17 0 24 -2 18 -5z"/>
<path fill="#000000" stroke="none" d="M102 252 c3 -46 18 -65 24 -29 1 9 -2
17 -7 17 -13 0 -11 38 3 42 7 3 5 7 -6 11 -16 6 -17 2 -14 -41z"/>
<path fill="#000000" stroke="none" d="M200 290 c-10 -6 -11 -10 -2 -10 6 0
12 -9 12 -20 0 -11 -4 -20 -9 -20 -5 0 -8 -8 -7 -17 5 -34 21 -13 24 32 4 49
4 49 -18 35z"/>
</g>
</svg>
