<?xml version="1.0" standalone="no"?>
<!DOCTYPE svg PUBLIC "-//W3C//DTD SVG 20010904//EN"
 "http://www.w3.org/TR/2001/REC-SVG-20010904/DTD/svg10.dtd">
<svg version="1.0" xmlns="http://www.w3.org/2000/svg"
 width="32.000000pt" height="32.000000pt" viewBox="0 0 32.000000 32.000000"
 preserveAspectRatio="xMidYMid meet">
<metadata>
Created by potrace 1.16, written by Peter Selinger 2001-2019
</metadata>
<g transform="translate(0.000000,32.000000) scale(0.100000,-0.100000)"
fill="#000000" stroke="none">
<path fill="#000000" stroke="none" d="M2 158 l2 -163 3 158 4 157 149 0 149
0 4 -157 3 -158 2 163 2 162 -160 0 -160 0 2 -162z"/>
<path fill="#000000" stroke="none" d="M32 268 c-7 -7 -11 -26 -11 -42 2 -31
2 -31 8 4 l6 35 125 0 125 0 6 -35 c6 -35 6 -35 8 -4 0 16 -4 35 -11 42 -17
17 -239 17 -256 0z"/>
<path fill="#000000" stroke="none" d="M291 174 c0 -11 3 -14 6 -6 3 7 2 16
-1 19 -3 4 -6 -2 -5 -13z"/>
<path fill="#000000" stroke="none" d="M23 125 c0 -22 2 -30 4 -17 2 12 2 30
0 40 -3 9 -5 -1 -4 -23z"/>
<path fill="#000000" stroke="none" d="M292 110 c0 -14 2 -19 5 -12 2 6 2 18
0 25 -3 6 -5 1 -5 -13z"/>
<path fill="#000000" stroke="none" d="M22 52 c-2 -28 0 -27 16 4 8 16 8 21
-1 21 -7 0 -14 -12 -15 -25z"/>
<path fill="#000000" stroke="none" d="M291 64 c0 -11 3 -14 6 -6 3 7 2 16 -1
19 -3 4 -6 -2 -5 -13z"/>
<path fill="#000000" stroke="none" d="M292 20 c0 -14 2 -19 5 -12 2 6 2 18 0
25 -3 6 -5 1 -5 -13z"/>
</g>
</svg>
