<?xml version="1.0" standalone="no"?>
<!DOCTYPE svg PUBLIC "-//W3C//DTD SVG 20010904//EN"
 "http://www.w3.org/TR/2001/REC-SVG-20010904/DTD/svg10.dtd">
<svg version="1.0" xmlns="http://www.w3.org/2000/svg"
 width="32.000000pt" height="32.000000pt" viewBox="0 0 32.000000 32.000000"
 preserveAspectRatio="xMidYMid meet">
<metadata>
Created by potrace 1.16, written by Peter Selinger 2001-2019
</metadata>
<g transform="translate(0.000000,32.000000) scale(0.100000,-0.100000)"
fill="#000000" stroke="none">
<path fill="#000000" stroke="none" d="M0 172 c0 -102 4 -152 12 -160 17 -17
279 -17 296 0 8 8 12 58 12 160 l0 148 -40 0 c-25 0 -40 -5 -41 -12 -6 -54 -3
-75 10 -86 14 -11 14 -11 -1 -6 -15 5 -16 0 -12 -39 4 -27 2 -47 -5 -51 -7 -5
-11 10 -11 44 0 38 -3 49 -12 44 -10 -6 -10 -4 0 7 6 7 12 32 12 55 0 36 -3
43 -19 41 -11 0 -17 -5 -15 -9 3 -4 -9 -8 -26 -8 -18 0 -29 4 -25 10 3 6 -3
10 -14 10 -18 0 -21 -6 -21 -43 0 -24 6 -49 13 -56 10 -11 10 -13 0 -7 -10 5
-13 -6 -13 -44 0 -34 -4 -49 -11 -44 -7 4 -9 24 -5 51 4 39 3 44 -12 39 -15
-5 -15 -5 -1 6 13 11 16 32 10 86 -1 7 -16 12 -41 12 l-40 0 0 -148z"/>
<path fill="#ffffff" stroke="none" d="M185 266 c17 -12 16 -14 -13 -18 -34
-5 -65 15 -40 25 22 9 33 8 53 -7z"/>
<path fill="#ffffff" stroke="none" d="M172 223 c-10 -4 -9 -8 5 -19 10 -7 14
-14 8 -14 -5 -1 -18 -3 -27 -5 -21 -4 -33 11 -18 20 6 4 8 11 5 16 -4 5 4 9
17 8 13 0 17 -3 10 -6z"/>
<path fill="#ffffff" stroke="none" d="M185 161 c19 -8 19 -8 -2 -19 -17 -9
-28 -9 -49 0 l-27 13 24 6 c31 9 31 9 54 0z"/>
<path fill="#ffffff" stroke="none" d="M93 80 c3 -11 1 -23 -4 -26 -5 -3 -9 4
-9 15 0 12 -5 21 -11 21 -6 0 -9 -7 -6 -15 4 -8 2 -17 -3 -20 -6 -4 -10 4 -10
17 0 18 -2 20 -10 8 -5 -8 -10 -10 -10 -4 0 30 55 34 63 4z"/>
<path fill="#ffffff" stroke="none" d="M153 80 c3 -11 1 -23 -4 -26 -5 -3 -9
4 -9 15 0 12 -5 21 -11 21 -6 0 -9 -7 -6 -15 4 -8 2 -17 -2 -20 -5 -2 -11 6
-13 20 -4 21 -1 25 17 25 14 0 25 -7 28 -20z"/>
<path fill="#ffffff" stroke="none" d="M213 80 c3 -11 1 -23 -4 -26 -5 -3 -9
4 -9 15 0 12 -5 21 -11 21 -6 0 -9 -7 -6 -15 4 -8 2 -17 -2 -20 -5 -2 -11 6
-13 20 -4 21 -1 25 17 25 14 0 25 -7 28 -20z"/>
<path fill="#ffffff" stroke="none" d="M286 89 c3 -6 -1 -18 -10 -27 -15 -15
-16 -15 -16 6 0 12 -5 22 -11 22 -6 0 -9 -7 -6 -15 4 -8 2 -17 -2 -20 -5 -2
-11 6 -13 20 -5 22 -2 25 23 25 15 0 31 -5 35 -11z"/>
<path fill="#ffffff" stroke="none" d="M127 24 c-3 -3 -12 -4 -19 -1 -8 3 -5
6 6 6 11 1 17 -2 13 -5z"/>
<path fill="#ffffff" stroke="none" d="M183 23 c-7 -2 -21 -2 -30 0 -10 3 -4
5 12 5 17 0 24 -2 18 -5z"/>
</g>
</svg>
