<?xml version="1.0" standalone="no"?>
<!DOCTYPE svg PUBLIC "-//W3C//DTD SVG 20010904//EN"
 "http://www.w3.org/TR/2001/REC-SVG-20010904/DTD/svg10.dtd">
<svg version="1.0" xmlns="http://www.w3.org/2000/svg"
 width="32.000000pt" height="32.000000pt" viewBox="0 0 32.000000 32.000000"
 preserveAspectRatio="xMidYMid meet">
<metadata>
Created by potrace 1.16, written by Peter Selinger 2001-2019
</metadata>
<g transform="translate(0.000000,32.000000) scale(0.100000,-0.100000)"
fill="#000000" stroke="none">
<path fill="#000000" stroke="none" d="M0 161 l0 -161 160 0 160 0 0 160 c0
136 -2 160 -15 160 -9 0 -15 -9 -15 -24 0 -20 -6 -24 -42 -30 -22 -4 -45 -9
-50 -12 -16 -10 36 -54 65 -54 15 0 27 -4 27 -10 0 -6 -48 -10 -124 -10 -110
0 -125 -2 -129 -17 -3 -10 -5 6 -6 35 l-1 52 44 0 c25 0 47 4 50 9 7 11 -52
47 -93 56 l-31 7 0 -161z"/>
</g>
</svg>
