<?xml version="1.0" standalone="no"?>
<!DOCTYPE svg PUBLIC "-//W3C//DTD SVG 20010904//EN"
 "http://www.w3.org/TR/2001/REC-SVG-20010904/DTD/svg10.dtd">
<svg version="1.0" xmlns="http://www.w3.org/2000/svg"
 width="32.000000pt" height="32.000000pt" viewBox="0 0 32.000000 32.000000"
 preserveAspectRatio="xMidYMid meet">
<metadata>
Created by potrace 1.16, written by Peter Selinger 2001-2019
</metadata>
<g transform="translate(0.000000,32.000000) scale(0.100000,-0.100000)"
fill="#000000" stroke="none">
<path fill="#000000" stroke="none" d="M0 160 c0 -132 3 -160 14 -160 12 0 15
29 15 160 1 137 -1 160 -14 160 -13 0 -15 -23 -15 -160z"/>
<path fill="#000000" stroke="none" d="M51 160 l0 -160 108 0 107 0 0 160 0
160 -108 0 -108 0 1 -160z"/>
<path fill="#000000" stroke="none" d="M290 160 c0 -136 2 -160 15 -160 8 0
15 5 15 10 0 6 -4 10 -10 10 -14 0 -12 27 3 33 9 4 8 8 -3 17 -11 9 -12 13 -2
17 15 6 16 63 0 63 -9 0 -9 3 0 12 7 7 12 42 12 85 0 58 -3 73 -15 73 -13 0
-15 -24 -15 -160z"/>
</g>
</svg>
