<?xml version="1.0" standalone="no"?>
<!DOCTYPE svg PUBLIC "-//W3C//DTD SVG 20010904//EN"
 "http://www.w3.org/TR/2001/REC-SVG-20010904/DTD/svg10.dtd">
<svg version="1.0" xmlns="http://www.w3.org/2000/svg"
 width="32.000000pt" height="32.000000pt" viewBox="0 0 32.000000 32.000000"
 preserveAspectRatio="xMidYMid meet">
<metadata>
Created by potrace 1.16, written by Peter Selinger 2001-2019
</metadata>
<g transform="translate(0.000000,32.000000) scale(0.100000,-0.100000)"
fill="#000000" stroke="none">
<path fill="#000000" stroke="none" d="M0 160 l0 -160 160 0 160 0 0 60 c0 49
-3 58 -15 54 -8 -4 -15 -15 -15 -25 0 -26 -40 -41 -125 -45 -62 -3 -72 0 -83
17 -11 18 -9 21 18 33 17 7 27 15 24 19 -4 4 0 15 8 24 13 15 14 20 3 30 -11
10 -17 7 -30 -13 -12 -19 -21 -23 -38 -18 -28 8 -47 32 -47 58 1 16 4 13 15
-11 17 -40 34 -42 63 -8 26 30 28 45 7 45 -9 0 -18 7 -21 15 -8 20 -24 9 -24
-16 0 -13 4 -18 12 -13 10 5 10 3 0 -7 -11 -12 -14 -12 -22 1 -6 8 -8 21 -5
28 3 6 8 19 12 28 5 14 1 16 -20 12 -15 -3 -24 -1 -21 3 3 5 18 9 34 9 16 0
32 5 35 10 3 6 11 10 17 10 7 0 5 -7 -4 -17 -13 -16 -14 -53 -1 -53 10 0 68
44 85 64 14 17 20 18 40 8 l23 -11 -25 5 c-18 3 -29 -1 -38 -16 -11 -17 -10
-20 7 -20 10 0 31 -10 46 -22 22 -17 26 -27 22 -54 -5 -27 -1 -36 19 -49 14
-9 29 -13 34 -10 6 3 10 49 10 101 l0 94 -160 0 -160 0 0 -160z"/>
<path fill="#000000" stroke="none" d="M142 228 c-17 -17 -15 -33 2 -18 8 6
25 10 38 7 21 -3 20 -5 -9 -16 -36 -14 -42 -29 -15 -37 9 -3 24 -9 32 -13 18
-10 54 33 46 54 -5 15 -46 35 -70 35 -6 0 -17 -5 -24 -12z"/>
<path fill="#000000" stroke="none" d="M140 135 c-7 -9 -10 -18 -6 -22 8 -9
56 14 56 27 0 15 -36 12 -50 -5z"/>
<path fill="#000000" stroke="none" d="M210 124 c-19 -13 -44 -24 -55 -24 -28
0 -49 -15 -41 -29 4 -6 2 -11 -3 -11 -6 0 -11 5 -11 10 0 6 -5 10 -12 10 -8 0
-7 -5 3 -15 13 -13 20 -14 47 -2 18 7 30 15 28 18 -2 2 14 5 37 6 l41 1 -24
-19 c-29 -22 -20 -24 27 -7 26 9 33 18 33 38 0 42 -29 52 -70 24z"/>
<path fill="#ffffff" stroke="none" d="M234 108 c-3 -4 -9 -8 -15 -8 -5 0 -9
4 -9 8 0 5 7 9 15 9 8 0 12 -4 9 -9z"/>
</g>
</svg>
