<?xml version="1.0" standalone="no"?>
<!DOCTYPE svg PUBLIC "-//W3C//DTD SVG 20010904//EN"
 "http://www.w3.org/TR/2001/REC-SVG-20010904/DTD/svg10.dtd">
<svg version="1.0" xmlns="http://www.w3.org/2000/svg"
 width="32.000000pt" height="32.000000pt" viewBox="0 0 32.000000 32.000000"
 preserveAspectRatio="xMidYMid meet">
<metadata>
Created by potrace 1.16, written by Peter Selinger 2001-2019
</metadata>
<g transform="translate(0.000000,32.000000) scale(0.100000,-0.100000)"
fill="#000000" stroke="none">
<path fill="#000000" stroke="none" d="M1 158 c1 -149 2 -158 20 -158 23 0 24
8 2 32 -14 16 -15 23 -5 38 16 25 15 47 -1 53 -6 2 12 7 41 11 30 4 50 11 47
16 -4 6 -13 10 -21 10 -8 0 -14 7 -14 15 0 18 11 19 29 3 8 -7 11 -8 8 -2 -6
10 32 34 53 34 16 0 11 -40 -5 -46 -8 -4 -13 -10 -10 -14 3 -4 -21 -15 -53
-24 l-57 -16 53 4 c44 3 52 0 52 -14 0 -24 25 -43 48 -36 14 5 21 1 25 -15 3
-11 10 -18 15 -15 5 3 16 -2 23 -11 8 -10 9 -14 2 -10 -6 4 -14 4 -17 -1 -3
-5 15 -9 39 -9 47 0 52 6 35 38 -6 11 -7 19 -2 19 6 0 10 58 10 130 l0 130
-28 0 c-16 0 -32 -5 -35 -10 -4 -6 -1 -9 7 -8 7 2 13 -4 13 -12 0 -8 9 -23 20
-33 11 -10 14 -15 6 -11 -10 5 -12 3 -6 -5 4 -8 -2 -25 -14 -42 -16 -21 -18
-29 -8 -29 8 0 21 -7 28 -17 13 -15 12 -15 -9 -4 -12 7 -32 9 -43 6 -15 -5
-22 -2 -26 15 -5 20 -6 20 -26 3 -14 -12 -12 -6 7 19 37 49 32 80 -12 89 -34
7 -68 29 -45 29 7 0 15 -4 18 -10 3 -5 16 -10 29 -10 12 0 27 -5 33 -11 13
-13 25 3 17 24 -4 12 -27 15 -124 14 l-119 -1 0 -158z"/>
<path fill="#ffffff" stroke="none" d="M50 285 c-15 -16 -27 -44 -31 -73 l-6
-47 -2 42 c-1 31 5 49 25 72 14 17 28 31 32 31 3 0 -5 -11 -18 -25z"/>
<path fill="#ffffff" stroke="none" d="M120 210 c0 -5 -4 -10 -10 -10 -5 0
-10 5 -10 10 0 6 5 10 10 10 6 0 10 -4 10 -10z"/>
<path fill="#ffffff" stroke="none" d="M212 133 c16 -15 22 -15 40 -4 18 11
23 11 33 -3 7 -8 14 -14 16 -12 2 3 5 -6 5 -19 1 -13 -5 -26 -13 -29 -12 -5
-12 -8 1 -22 24 -23 9 -36 -20 -18 -14 9 -24 26 -24 39 0 32 -26 52 -50 37
-15 -9 -19 -7 -23 13 -7 38 6 45 35 18z"/>
<path fill="#000000" stroke="none" d="M260 120 c0 -5 5 -10 10 -10 6 0 10 5
10 10 0 6 -4 10 -10 10 -5 0 -10 -4 -10 -10z"/>
<path fill="#000000" stroke="none" d="M252 280 c-7 -11 -9 -20 -5 -19 22 4
22 -4 2 -33 -13 -17 -16 -28 -8 -23 12 8 12 6 0 -8 -11 -14 -11 -17 1 -17 8 0
19 5 26 12 16 16 16 41 0 32 -7 -4 -5 2 5 13 16 18 16 21 3 26 -9 4 -13 13
-10 22 9 21 1 19 -14 -5z"/>
<path fill="#000000" stroke="none" d="M30 75 c-12 -22 -11 -27 16 -52 l28
-28 -16 26 c-15 23 -15 28 -2 41 13 13 13 16 1 26 -11 9 -17 7 -27 -13z"/>
<path fill="#000000" stroke="none" d="M80 93 c0 -3 7 -15 16 -25 14 -14 14
-20 4 -33 -10 -12 -10 -15 3 -15 8 0 20 7 27 15 10 12 9 20 -4 40 -15 23 -46
35 -46 18z"/>
<path fill="#000000" stroke="none" d="M62 58 c-9 -9 -7 -17 10 -35 17 -18 32
-23 72 -23 56 0 89 13 62 23 -10 4 -13 12 -9 24 6 15 5 16 -9 3 -14 -13 -14
-16 1 -27 23 -17 -1 -16 -25 1 -16 13 -21 12 -36 -1 -22 -20 -56 -10 -38 12
21 25 -5 46 -28 23z"/>
</g>
</svg>
