<?xml version="1.0" standalone="no"?>
<!DOCTYPE svg PUBLIC "-//W3C//DTD SVG 20010904//EN"
 "http://www.w3.org/TR/2001/REC-SVG-20010904/DTD/svg10.dtd">
<svg version="1.0" xmlns="http://www.w3.org/2000/svg"
 width="32.000000pt" height="32.000000pt" viewBox="0 0 32.000000 32.000000"
 preserveAspectRatio="xMidYMid meet">
<metadata>
Created by potrace 1.16, written by Peter Selinger 2001-2019
</metadata>
<g transform="translate(0.000000,32.000000) scale(0.100000,-0.100000)"
fill="#000000" stroke="none">
<path fill="#000000" stroke="none" d="M0 160 l0 -160 53 1 c41 0 47 2 29 9
-12 5 -29 7 -37 4 -21 -9 -19 23 2 35 16 8 15 11 -8 21 -47 21 -32 125 16 107
18 -8 16 -67 -3 -67 -7 0 -10 5 -6 12 4 6 3 8 -4 4 -6 -3 -13 3 -15 16 -5 22
-5 22 -4 -1 1 -13 10 -29 20 -35 15 -9 23 -6 43 17 l24 28 0 -35 c0 -19 5 -38
11 -42 11 -6 9 8 -7 81 -3 11 1 28 8 38 12 16 13 14 10 -22 -2 -21 1 -48 7
-58 8 -14 11 -7 12 37 l2 55 7 -45 c5 -34 8 -41 14 -27 5 10 6 33 3 52 -5 28
-2 37 14 46 14 7 18 16 13 31 -5 17 -3 20 10 15 10 -4 15 -3 11 3 -7 11 -69 4
-95 -11 -11 -6 -6 -8 17 -9 33 0 53 -15 31 -23 -7 -2 -23 0 -35 4 -13 5 -22 5
-21 1 1 -4 -1 -14 -5 -22 -3 -8 -11 -32 -17 -53 -7 -21 -14 -36 -17 -33 -3 3
2 26 11 52 9 26 16 56 16 66 0 21 53 48 94 48 29 0 66 -42 66 -76 0 -13 -9
-33 -19 -43 -18 -18 -25 -75 -8 -64 5 3 6 12 3 20 -4 10 -2 13 8 10 8 -3 13 1
12 11 -2 31 29 18 32 -13 2 -16 8 -34 13 -39 5 -6 9 33 9 102 l0 112 -160 0
-160 0 0 -160z"/>
<path fill="#000000" stroke="none" d="M187 205 c3 -8 9 -12 14 -9 12 7 11 11
-5 17 -10 4 -13 1 -9 -8z"/>
<path fill="#000000" stroke="none" d="M276 157 c3 -10 9 -15 12 -12 3 3 0 11
-7 18 -10 9 -11 8 -5 -6z"/>
<path fill="#000000" stroke="none" d="M195 100 c-3 -5 1 -10 10 -10 9 0 13 5
10 10 -3 6 -8 10 -10 10 -2 0 -7 -4 -10 -10z"/>
<path fill="#000000" stroke="none" d="M249 75 c-1 -3 -3 -9 -4 -15 -1 -5 -3
-19 -4 -30 -1 -17 -6 -19 -26 -14 -14 3 -25 2 -25 -3 0 -4 29 -10 65 -11 l65
-3 0 37 0 36 -26 -17 c-21 -14 -28 -15 -35 -4 -4 7 -5 17 -3 21 3 4 3 8 0 8
-3 0 -7 -2 -7 -5z"/>
<path fill="#000000" stroke="none" d="M60 44 c-17 -9 -20 -14 -9 -14 9 0 22
7 29 15 15 18 13 18 -20 -1z"/>
</g>
</svg>
