<?xml version="1.0" standalone="no"?>
<!DOCTYPE svg PUBLIC "-//W3C//DTD SVG 20010904//EN"
 "http://www.w3.org/TR/2001/REC-SVG-20010904/DTD/svg10.dtd">
<svg version="1.0" xmlns="http://www.w3.org/2000/svg"
 width="32.000000pt" height="32.000000pt" viewBox="0 0 32.000000 32.000000"
 preserveAspectRatio="xMidYMid meet">
<metadata>
Created by potrace 1.16, written by Peter Selinger 2001-2019
</metadata>
<g transform="translate(0.000000,32.000000) scale(0.100000,-0.100000)"
fill="#000000" stroke="none">
<path fill="#000000" stroke="none" d="M143 285 c-21 -9 -33 -21 -33 -33 0
-10 -7 -41 -16 -68 -19 -55 -40 -86 -29 -42 5 21 3 29 -9 34 -26 10 -46 -15
-44 -56 1 -31 6 -41 27 -50 23 -10 24 -13 8 -21 -24 -14 -21 -37 6 -37 12 -1
48 -4 80 -8 42 -5 57 -3 57 6 0 8 8 10 24 6 19 -5 25 -1 28 19 3 13 0 26 -5
28 -6 2 -3 6 7 10 9 4 15 3 12 -1 -2 -4 -1 -14 3 -21 7 -11 14 -10 35 4 29 19
34 43 11 51 -10 4 -12 15 -9 34 7 30 -11 49 -29 31 -8 -8 -7 -14 2 -23 11 -11
13 -10 8 5 -4 11 -3 16 3 12 15 -9 12 -32 -5 -39 -8 -3 -14 0 -12 6 1 6 -4 13
-11 15 -8 3 -10 -1 -6 -11 8 -22 -13 -46 -41 -46 -28 0 -42 16 -48 55 -3 21
-4 17 -4 -13 1 -24 7 -48 14 -54 15 -12 17 -44 3 -53 -5 -3 -7 0 -4 9 3 8 -6
34 -21 58 -15 24 -24 34 -19 23 12 -33 11 -102 -2 -102 -7 0 -10 5 -8 11 2 6
0 38 -5 71 -5 33 -9 50 -10 38 0 -12 -10 -27 -21 -33 -30 -16 -60 4 -59 38 2
24 2 24 6 4 3 -13 9 -19 15 -16 7 4 8 2 4 -4 -10 -16 19 -15 32 1 5 6 18 38
28 69 9 31 21 55 26 52 4 -3 8 -1 8 5 0 5 -6 11 -12 14 -7 2 7 10 32 17 49 13
73 6 79 -26 3 -18 3 -18 -17 -1 -20 18 -20 18 -15 -2 3 -14 1 -21 -8 -21 -10
-1 -9 -5 4 -14 14 -11 15 -15 4 -25 -8 -6 -17 -8 -21 -3 -4 4 -6 -11 -4 -33 3
-35 6 -40 28 -40 20 0 25 5 23 23 -2 12 6 31 17 42 26 26 25 60 -1 94 -23 30
-56 33 -106 11z"/>
<path fill="#ffffff" stroke="none" d="M251 198 c-10 -11 -11 -9 -5 6 6 15 4
17 -6 11 -9 -6 -11 -4 -5 4 5 9 10 10 18 2 8 -8 7 -14 -2 -23z"/>
<path fill="#ffffff" stroke="none" d="M223 144 c11 -11 -3 -24 -18 -18 -8 4
-12 10 -9 15 6 11 18 12 27 3z"/>
<path fill="#ffffff" stroke="none" d="M70 85 c6 3 10 1 10 -4 0 -16 -23 -13
-46 5 -18 14 -18 15 4 4 12 -6 27 -8 32 -5z"/>
<path fill="#ffffff" stroke="none" d="M90 45 c-7 -8 -22 -15 -34 -14 -21 0
-21 0 1 11 13 6 26 20 30 32 6 19 7 19 11 3 2 -10 -2 -24 -8 -32z"/>
<path fill="#000000" stroke="none" d="M150 252 c0 -5 7 -9 15 -9 8 0 12 4 9
9 -3 4 -9 8 -15 8 -5 0 -9 -4 -9 -8z"/>
<path fill="#000000" stroke="none" d="M117 175 c-4 -8 -2 -17 3 -20 6 -4 10
3 10 14 0 25 -6 27 -13 6z"/>
</g>
</svg>
