<?xml version="1.0" standalone="no"?>
<!DOCTYPE svg PUBLIC "-//W3C//DTD SVG 20010904//EN"
 "http://www.w3.org/TR/2001/REC-SVG-20010904/DTD/svg10.dtd">
<svg version="1.0" xmlns="http://www.w3.org/2000/svg"
 width="32.000000pt" height="32.000000pt" viewBox="0 0 32.000000 32.000000"
 preserveAspectRatio="xMidYMid meet">
<metadata>
Created by potrace 1.16, written by Peter Selinger 2001-2019
</metadata>
<g transform="translate(0.000000,32.000000) scale(0.100000,-0.100000)"
fill="#000000" stroke="none">
<path fill="#000000" stroke="none" d="M100 262 c-26 -18 -32 -34 -16 -49 6
-5 6 -2 1 6 -6 11 -4 13 10 7 16 -6 16 -4 4 11 -12 15 -12 16 4 10 11 -4 16
-3 12 3 -4 6 4 14 17 19 13 6 16 10 8 10 -8 0 -26 -8 -40 -17z"/>
<path fill="#000000" stroke="none" d="M40 225 c-7 -9 -10 -18 -7 -21 3 -3 10
4 17 15 13 25 8 27 -10 6z"/>
<path fill="#000000" stroke="none" d="M47 193 c-4 -3 -7 -11 -7 -17 0 -6 5
-5 12 2 6 6 9 14 7 17 -3 3 -9 2 -12 -2z"/>
<path fill="#000000" stroke="none" d="M77 193 c-4 -3 -7 -11 -7 -17 0 -6 5
-5 12 2 6 6 9 14 7 17 -3 3 -9 2 -12 -2z"/>
<path fill="#000000" stroke="none" d="M97 163 c-4 -3 -7 -11 -7 -17 0 -6 5
-5 12 2 6 6 9 14 7 17 -3 3 -9 2 -12 -2z"/>
<path fill="#000000" stroke="none" d="M160 108 c-12 -22 -12 -22 6 -6 10 10
15 20 12 24 -4 3 -12 -5 -18 -18z"/>
<path fill="#000000" stroke="none" d="M150 69 c0 -5 5 -7 10 -4 6 3 10 8 10
11 0 2 -4 4 -10 4 -5 0 -10 -5 -10 -11z"/>
</g>
</svg>
