<?xml version="1.0" standalone="no"?>
<!DOCTYPE svg PUBLIC "-//W3C//DTD SVG 20010904//EN"
 "http://www.w3.org/TR/2001/REC-SVG-20010904/DTD/svg10.dtd">
<svg version="1.0" xmlns="http://www.w3.org/2000/svg"
 width="32.000000pt" height="32.000000pt" viewBox="0 0 32.000000 32.000000"
 preserveAspectRatio="xMidYMid meet">
<metadata>
Created by potrace 1.16, written by Peter Selinger 2001-2019
</metadata>
<g transform="translate(0.000000,32.000000) scale(0.100000,-0.100000)"
fill="#000000" stroke="none">
<path fill="#000000" stroke="none" d="M13 217 c-1 -56 17 -83 46 -67 17 9 21
8 21 -4 0 -8 -4 -18 -10 -21 -15 -9 -12 -45 5 -51 8 -4 15 -12 15 -19 0 -26
18 -25 67 1 33 18 59 24 83 21 61 -7 110 33 52 41 -23 3 -46 34 -35 46 4 3 14
-1 24 -10 34 -30 29 5 -6 41 -37 39 -46 41 -111 14 -40 -16 -64 -6 -64 26 0
25 -23 35 -35 15 -4 -7 -12 -7 -25 0 -27 14 -27 14 -27 -33z"/>
<path fill="#ffffff" stroke="none" d="M80 185 c0 -2 -10 -9 -22 -15 -22 -11
-22 -10 -4 4 21 17 26 19 26 11z"/>
<path fill="#ffffff" stroke="none" d="M246 178 c5 -7 3 -8 -6 -3 -10 6 -12 4
-6 -11 5 -14 4 -16 -5 -7 -6 6 -8 16 -5 22 9 14 13 14 22 -1z"/>
<path fill="#ffffff" stroke="none" d="M108 145 c-3 -3 -9 2 -12 12 -6 14 -5
15 5 6 7 -7 10 -15 7 -18z"/>
<path fill="#ffffff" stroke="none" d="M189 168 c-2 -2 -17 -14 -32 -28 -19
-16 -27 -20 -25 -10 4 19 28 39 47 40 8 0 12 -1 10 -2z"/>
<path fill="#ffffff" stroke="none" d="M179 99 c-8 -5 -21 -9 -29 -9 -10 1 -7
7 10 21 17 14 26 17 28 9 3 -7 -2 -16 -9 -21z"/>
<path fill="#ffffff" stroke="none" d="M245 120 c-3 -5 -12 -10 -18 -10 -7 0
-6 4 3 10 19 12 23 12 15 0z"/>
<path fill="#ffffff" stroke="none" d="M102 98 c-7 -7 -12 -8 -12 -2 0 14 12
26 19 19 2 -3 -1 -11 -7 -17z"/>
</g>
</svg>
