<?xml version="1.0" standalone="no"?>
<!DOCTYPE svg PUBLIC "-//W3C//DTD SVG 20010904//EN"
 "http://www.w3.org/TR/2001/REC-SVG-20010904/DTD/svg10.dtd">
<svg version="1.0" xmlns="http://www.w3.org/2000/svg"
 width="32.000000pt" height="32.000000pt" viewBox="0 0 32.000000 32.000000"
 preserveAspectRatio="xMidYMid meet">
<metadata>
Created by potrace 1.16, written by Peter Selinger 2001-2019
</metadata>
<g transform="translate(0.000000,32.000000) scale(0.100000,-0.100000)"
fill="#000000" stroke="none">
<path fill="#000000" stroke="none" d="M0 160 c0 -153 1 -160 20 -160 19 0 20
7 20 160 0 153 -1 160 -20 160 -19 0 -20 -7 -20 -160z"/>
<path fill="#000000" stroke="none" d="M245 311 c-44 -4 -60 -10 -60 -21 0
-11 14 -16 58 -18 l57 -3 0 -134 c0 -83 4 -135 10 -135 6 0 10 60 10 160 0 88
-3 159 -7 158 -5 -1 -35 -4 -68 -7z"/>
<path fill="#000000" stroke="none" d="M80 289 c0 -20 1 -21 18 -6 9 8 20 15
24 14 3 -1 9 0 12 3 3 3 -8 7 -24 8 -25 2 -30 -1 -30 -19z"/>
<path fill="#000000" stroke="none" d="M96 265 c-11 -8 -15 -15 -9 -15 6 0 16
7 23 15 16 19 11 19 -14 0z"/>
<path fill="#000000" stroke="none" d="M142 208 c-22 -37 -35 -107 -26 -133
11 -27 24 3 24 53 0 24 7 57 16 73 21 42 11 48 -14 7z"/>
<path fill="#000000" stroke="none" d="M80 190 c0 -18 4 -29 10 -25 6 3 10 15
10 25 0 10 -4 22 -10 25 -6 4 -10 -7 -10 -25z"/>
<path fill="#000000" stroke="none" d="M139 33 c-13 -16 -12 -17 4 -4 9 7 17
15 17 17 0 8 -8 3 -21 -13z"/>
<path fill="#000000" stroke="none" d="M202 24 c10 -10 20 -16 22 -13 3 3 -5
11 -17 18 -21 13 -21 12 -5 -5z"/>
</g>
</svg>
