<?xml version="1.0" standalone="no"?>
<!DOCTYPE svg PUBLIC "-//W3C//DTD SVG 20010904//EN"
 "http://www.w3.org/TR/2001/REC-SVG-20010904/DTD/svg10.dtd">
<svg version="1.0" xmlns="http://www.w3.org/2000/svg"
 width="32.000000pt" height="48.000000pt" viewBox="0 0 32.000000 48.000000"
 preserveAspectRatio="xMidYMid meet">
<metadata>
Created by potrace 1.16, written by Peter Selinger 2001-2019
</metadata>
<g transform="translate(0.000000,48.000000) scale(0.100000,-0.100000)"
fill="#000000" stroke="none">
<path fill="#000000" stroke="none" d="M4 246 l1 -231 40 -2 c22 -1 56 -5 76
-9 27 -4 38 -2 42 9 4 11 -5 18 -34 25 -41 10 -47 6 -26 -18 6 -8 0 -4 -15 9
-36 31 -28 42 19 25 21 -7 46 -13 57 -14 11 0 16 -5 13 -14 -4 -11 7 -13 54
-11 33 1 62 -1 65 -6 17 -27 21 14 23 232 l2 240 -159 -2 -158 -3 0 -230z"/>
<path fill="#ffffff" stroke="none" d="M40 466 c0 -2 -7 -7 -16 -10 -8 -3 -12
-2 -9 4 6 10 25 14 25 6z"/>
<path fill="#ffffff" stroke="none" d="M130 449 c14 -1 37 1 52 6 76 21 112
-25 123 -156 l7 -89 -42 -40 c-54 -52 -52 -87 3 -37 20 19 37 31 37 27 0 -5
-15 -20 -32 -35 -27 -21 -30 -27 -18 -35 42 -25 50 -38 12 -19 -66 33 -68 48
-16 99 36 35 44 50 44 79 -1 56 -29 85 -84 86 -36 0 -43 2 -31 11 24 17 18 34
-12 35 -22 0 -24 2 -10 8 22 8 19 25 -5 26 -10 1 -18 -5 -19 -14 0 -11 -2 -12
-6 -3 -3 7 1 19 7 27 11 13 6 15 -30 15 -33 0 -48 -6 -71 -29 -16 -16 -29 -26
-29 -21 0 5 5 12 11 16 8 4 7 9 -2 15 -11 7 -10 9 3 9 29 0 68 22 61 34 -5 7
-2 7 8 -1 8 -6 25 -12 39 -14z"/>
<path fill="#ffffff" stroke="none" d="M130 368 c30 -32 25 -69 -19 -134 -36
-55 -77 -175 -66 -194 3 -4 -4 -10 -14 -13 -17 -4 -17 -2 -4 23 7 16 20 63 28
105 8 42 19 85 25 95 17 31 11 35 -15 10 -20 -19 -27 -21 -40 -10 -24 20 -18
38 25 66 43 29 45 31 30 54 -8 13 -10 13 -10 -1 0 -24 -38 -55 -51 -42 -8 8
-6 11 7 10 11 -1 24 9 32 26 16 33 44 35 72 5z"/>
<path fill="#ffffff" stroke="none" d="M204 322 c3 -5 -1 -9 -9 -9 -8 0 -12 4
-9 9 3 4 7 8 9 8 2 0 6 -4 9 -8z"/>
<path fill="#ffffff" stroke="none" d="M218 283 c-9 -10 -18 -25 -22 -33 -3
-8 -4 -5 -2 8 3 15 -1 22 -12 23 -14 0 -13 2 3 9 11 5 26 9 34 9 12 1 11 -2
-1 -16z"/>
<path fill="#ffffff" stroke="none" d="M251 238 c-5 -13 -17 -30 -27 -38 -15
-13 -15 -9 4 23 12 20 19 45 16 55 -5 16 -5 16 5 0 7 -10 8 -25 2 -40z"/>
<path fill="#ffffff" stroke="none" d="M203 79 c8 -21 20 -32 39 -36 16 -3 28
-9 28 -14 0 -19 -62 15 -71 40 -6 14 -16 29 -22 33 -9 6 -8 8 1 8 8 0 19 -14
25 -31z"/>
<path fill="#000000" stroke="none" d="M164 435 c-14 -11 -15 -15 -4 -14 34 4
78 -22 83 -49 3 -15 15 -33 26 -40 19 -11 21 -10 21 18 0 81 -70 128 -126 85z"/>
<path fill="#000000" stroke="none" d="M207 375 c3 -14 11 -25 19 -25 10 0 11
6 5 22 -11 31 -29 34 -24 3z"/>
<path fill="#000000" stroke="none" d="M95 360 c5 -15 -3 -25 -34 -46 -23 -15
-41 -33 -41 -40 0 -24 21 -26 46 -3 32 30 40 19 20 -31 -21 -53 -12 -51 24 7
34 54 38 93 12 116 -25 22 -35 21 -27 -3z"/>
<path fill="#ffffff" stroke="none" d="M107 308 c-3 -8 -6 -5 -6 6 -1 11 2 17
5 13 3 -3 4 -12 1 -19z"/>
</g>
</svg>
