<?xml version="1.0" standalone="no"?>
<!DOCTYPE svg PUBLIC "-//W3C//DTD SVG 20010904//EN"
 "http://www.w3.org/TR/2001/REC-SVG-20010904/DTD/svg10.dtd">
<svg version="1.0" xmlns="http://www.w3.org/2000/svg"
 width="32.000000pt" height="48.000000pt" viewBox="0 0 32.000000 48.000000"
 preserveAspectRatio="xMidYMid meet">
<metadata>
Created by potrace 1.16, written by Peter Selinger 2001-2019
</metadata>
<g transform="translate(0.000000,48.000000) scale(0.100000,-0.100000)"
fill="#000000" stroke="none">
<path fill="#000000" stroke="none" d="M0 240 l0 -240 160 0 160 0 0 240 0
240 -160 0 -160 0 0 -240z"/>
<path fill="#ffffff" stroke="none" d="M157 362 c6 -11 8 -24 4 -30 -4 -7 -11
0 -18 18 -13 33 -4 40 14 12z"/>
<path fill="#ffffff" stroke="none" d="M114 312 c-1 -21 -9 -51 -18 -68 -10
-16 -14 -20 -11 -9 22 65 25 84 15 111 -9 24 -9 27 2 16 7 -7 12 -30 12 -50z"/>
<path fill="#ffffff" stroke="none" d="M258 345 c-3 -3 -9 2 -12 12 -6 14 -5
15 5 6 7 -7 10 -15 7 -18z"/>
<path fill="#ffffff" stroke="none" d="M240 286 c0 -2 -7 -7 -16 -10 -8 -3
-12 -2 -9 4 6 10 25 14 25 6z"/>
<path fill="#ffffff" stroke="none" d="M210 240 c8 -5 11 -10 5 -10 -5 0 -17
5 -25 10 -8 5 -10 10 -5 10 6 0 17 -5 25 -10z"/>
<path fill="#ffffff" stroke="none" d="M184 215 c-4 -8 -11 -15 -16 -15 -6 0
-5 6 2 15 7 8 14 15 16 15 2 0 1 -7 -2 -15z"/>
<path fill="#ffffff" stroke="none" d="M120 192 c-8 -3 -9 -7 -2 -11 19 -12
-4 -34 -27 -26 -24 7 -28 25 -5 25 8 0 12 5 9 10 -11 18 5 32 22 18 11 -9 12
-13 3 -16z"/>
<path fill="#ffffff" stroke="none" d="M214 175 c-8 -19 -44 -40 -44 -25 0 5
6 10 14 10 8 0 16 7 20 15 3 8 8 15 10 15 3 0 3 -7 0 -15z"/>
<path fill="#ffffff" stroke="none" d="M125 129 c5 -5 -5 -9 -28 -9 -27 0 -37
4 -37 16 0 13 6 15 28 9 15 -3 31 -11 37 -16z"/>
<path fill="#ffffff" stroke="none" d="M107 104 c13 -4 20 -10 17 -15 -8 -14
-40 -10 -54 6 -14 17 -3 20 37 9z"/>
<path fill="#ffffff" stroke="none" d="M60 19 c0 -4 -11 -6 -25 -6 -13 0 -22
3 -20 8 6 9 45 8 45 -2z"/>
<path fill="#ffffff" stroke="none" d="M95 20 c3 -5 1 -10 -4 -10 -6 0 -11 5
-11 10 0 6 2 10 4 10 3 0 8 -4 11 -10z"/>
<path fill="#ffffff" stroke="none" d="M190 20 c0 -5 -5 -10 -11 -10 -5 0 -7
5 -4 10 3 6 8 10 11 10 2 0 4 -4 4 -10z"/>
<path fill="#ffffff" stroke="none" d="M225 20 c3 -5 1 -10 -4 -10 -6 0 -11 5
-11 10 0 6 2 10 4 10 3 0 8 -4 11 -10z"/>
<path fill="#ffffff" stroke="none" d="M265 20 c3 -5 2 -10 -4 -10 -5 0 -13 5
-16 10 -3 6 -2 10 4 10 5 0 13 -4 16 -10z"/>
</g>
</svg>
