<?xml version="1.0" standalone="no"?>
<!DOCTYPE svg PUBLIC "-//W3C//DTD SVG 20010904//EN"
 "http://www.w3.org/TR/2001/REC-SVG-20010904/DTD/svg10.dtd">
<svg version="1.0" xmlns="http://www.w3.org/2000/svg"
 width="32.000000pt" height="32.000000pt" viewBox="0 0 32.000000 32.000000"
 preserveAspectRatio="xMidYMid meet">
<metadata>
Created by potrace 1.16, written by Peter Selinger 2001-2019
</metadata>
<g transform="translate(0.000000,32.000000) scale(0.100000,-0.100000)"
fill="#000000" stroke="none">
<path fill="#000000" stroke="none" d="M0 160 l0 -160 160 0 160 0 0 160 0
160 -160 0 -160 0 0 -160z"/>
<path fill="#ffffff" stroke="none" d="M199 286 c14 -15 19 -26 12 -30 -6 -4
6 -23 30 -46 32 -30 40 -44 37 -67 -2 -20 -8 -28 -23 -28 -15 0 -20 7 -20 29
0 16 -6 31 -12 33 -16 6 -17 -28 -1 -62 10 -22 16 -24 45 -19 25 5 34 2 39
-10 8 -21 -5 -36 -51 -60 -30 -16 -40 -18 -56 -8 -15 10 -28 10 -59 1 -48 -15
-74 -7 -61 18 17 33 43 114 38 119 -3 3 -17 -2 -31 -11 -33 -22 -71 -16 -71
10 0 15 6 20 26 18 18 -1 36 8 53 26 23 24 24 29 12 53 -13 24 -12 28 7 42 32
22 60 19 86 -8z"/>
<path fill="#000000" stroke="none" d="M133 288 c2 -7 12 -12 22 -10 11 2 14
-1 9 -9 -4 -8 -3 -10 5 -5 9 6 9 11 0 22 -14 17 -42 19 -36 2z"/>
<path fill="#000000" stroke="none" d="M100 276 c0 -2 7 -7 16 -10 8 -3 12 -2
9 4 -6 10 -25 14 -25 6z"/>
<path fill="#000000" stroke="none" d="M134 253 c-19 -6 -4 -43 17 -43 11 0
19 2 19 4 0 2 3 11 6 19 5 15 -21 27 -42 20z"/>
<path fill="#000000" stroke="none" d="M220 206 c0 -2 8 -10 18 -17 15 -13 16
-12 3 4 -13 16 -21 21 -21 13z"/>
<path fill="#000000" stroke="none" d="M104 192 c2 -4 -9 -15 -25 -24 -16 -10
-31 -13 -34 -7 -9 14 -25 11 -25 -6 0 -11 7 -14 24 -11 44 8 100 56 65 56 -5
0 -8 -3 -5 -8z"/>
<path fill="#000000" stroke="none" d="M138 181 c3 -9 10 -19 16 -23 7 -5 3
-8 -9 -8 -17 0 -17 -2 -5 -10 12 -8 12 -10 -5 -10 -17 0 -17 -2 -5 -10 20 -13
43 -13 35 1 -4 6 3 21 15 34 24 25 15 38 -27 41 -15 0 -20 -3 -15 -15z"/>
<path fill="#ffffff" stroke="none" d="M185 181 c3 -5 2 -12 -3 -15 -5 -3 -9
1 -9 9 0 17 3 19 12 6z"/>
<path fill="#000000" stroke="none" d="M253 143 c-17 -6 -17 -20 0 -20 8 0 14
6 14 14 0 7 -1 13 -1 12 -1 0 -7 -3 -13 -6z"/>
<path fill="#000000" stroke="none" d="M182 113 c16 -39 25 -47 33 -32 5 7 4
10 -3 5 -6 -3 -13 6 -17 24 -4 16 -11 30 -16 30 -5 0 -3 -12 3 -27z"/>
<path fill="#000000" stroke="none" d="M146 74 c-5 -12 -2 -15 10 -10 8 3 18
6 20 6 2 0 4 5 4 10 0 16 -27 11 -34 -6z"/>
<path fill="#000000" stroke="none" d="M200 53 c0 -13 14 -28 28 -31 10 -2 10
2 0 18 -13 20 -28 27 -28 13z"/>
<path fill="#000000" stroke="none" d="M100 35 c-17 -10 -20 -14 -9 -15 9 0
22 7 29 15 15 18 12 18 -20 0z"/>
</g>
</svg>
