<?xml version="1.0" standalone="no"?>
<!DOCTYPE svg PUBLIC "-//W3C//DTD SVG 20010904//EN"
 "http://www.w3.org/TR/2001/REC-SVG-20010904/DTD/svg10.dtd">
<svg version="1.0" xmlns="http://www.w3.org/2000/svg"
 width="32.000000pt" height="32.000000pt" viewBox="0 0 32.000000 32.000000"
 preserveAspectRatio="xMidYMid meet">
<metadata>
Created by potrace 1.16, written by Peter Selinger 2001-2019
</metadata>
<g transform="translate(0.000000,32.000000) scale(0.100000,-0.100000)"
fill="#000000" stroke="none">
<path fill="#000000" stroke="none" d="M180 305 c0 -9 9 -15 25 -15 14 0 25
-4 25 -10 0 -15 59 -12 74 3 22 21 -7 37 -69 37 -42 0 -55 -3 -55 -15z"/>
<path fill="#000000" stroke="none" d="M123 298 c-12 -20 -12 -37 -1 -45 6 -3
8 -1 4 5 -3 5 0 13 6 15 10 4 9 6 -1 6 -11 1 -11 4 -1 16 7 8 10 15 7 15 -3 0
-9 -6 -14 -12z"/>
<path fill="#000000" stroke="none" d="M155 291 c-3 -5 -2 -12 3 -15 5 -3 9 1
9 9 0 17 -3 19 -12 6z"/>
<path fill="#000000" stroke="none" d="M67 233 c-4 -3 -7 -11 -7 -17 0 -6 5
-5 12 2 6 6 9 14 7 17 -3 3 -9 2 -12 -2z"/>
<path fill="#000000" stroke="none" d="M175 201 c-3 -6 5 -15 17 -21 21 -10
21 -10 6 3 -10 8 -15 17 -11 20 3 4 4 7 0 7 -3 0 -8 -4 -12 -9z"/>
<path fill="#000000" stroke="none" d="M36 124 c-10 -25 1 -29 14 -5 6 12 7
21 1 21 -5 0 -12 -7 -15 -16z"/>
<path fill="#000000" stroke="none" d="M287 129 c6 -6 9 -18 6 -27 -4 -10 -2
-13 5 -8 18 11 14 33 -5 41 -14 5 -15 3 -6 -6z"/>
<path fill="#000000" stroke="none" d="M165 109 c-4 -6 -5 -12 -2 -15 2 -3 7
2 10 11 7 17 1 20 -8 4z"/>
<path fill="#000000" stroke="none" d="M43 13 c9 -2 25 -2 35 0 9 3 1 5 -18 5
-19 0 -27 -2 -17 -5z"/>
<path fill="#000000" stroke="none" d="M258 13 c6 -2 18 -2 25 0 6 3 1 5 -13
5 -14 0 -19 -2 -12 -5z"/>
</g>
</svg>
