<?xml version="1.0" standalone="no"?>
<!DOCTYPE svg PUBLIC "-//W3C//DTD SVG 20010904//EN"
 "http://www.w3.org/TR/2001/REC-SVG-20010904/DTD/svg10.dtd">
<svg version="1.0" xmlns="http://www.w3.org/2000/svg"
 width="32.000000pt" height="32.000000pt" viewBox="0 0 32.000000 32.000000"
 preserveAspectRatio="xMidYMid meet">
<metadata>
Created by potrace 1.16, written by Peter Selinger 2001-2019
</metadata>
<g transform="translate(0.000000,32.000000) scale(0.100000,-0.100000)"
fill="#000000" stroke="none">
<path fill="#000000" stroke="none" d="M132 298 c-8 -10 -8 -20 1 -38 11 -21
10 -27 -6 -43 -14 -14 -16 -21 -7 -27 9 -6 9 -16 -1 -48 -9 -33 -9 -47 1 -71
10 -25 10 -34 0 -46 -10 -13 -9 -15 9 -15 19 0 21 6 21 49 0 28 3 52 8 54 4 3
5 -15 3 -39 -3 -40 -1 -44 19 -44 19 0 21 2 10 15 -10 12 -10 21 -1 41 16 35
14 64 -6 88 -10 12 -4 9 13 -6 16 -16 33 -28 37 -28 15 0 6 23 -15 41 -14 11
-16 17 -7 14 9 -3 22 2 30 11 12 16 12 17 -1 9 -13 -7 -13 -6 -2 7 10 13 9 16
-7 21 -10 2 -25 17 -32 33 -16 32 -49 43 -67 22z"/>
<path fill="#ffffff" stroke="none" d="M176 233 c-10 -10 -19 5 -10 18 6 11 8
11 12 0 2 -7 1 -15 -2 -18z"/>
<path fill="#000000" stroke="none" d="M114 236 c-4 -10 -18 -16 -36 -16 -29
0 -30 -2 -24 -32 8 -41 10 -42 35 -26 29 18 26 29 -6 23 l-28 -5 25 10 c26 10
56 48 46 57 -3 3 -8 -2 -12 -11z"/>
<path fill="#000000" stroke="none" d="M202 95 c-16 -35 -16 -35 18 -35 27 0
30 3 30 30 0 38 -32 41 -48 5z"/>
</g>
</svg>
