<?xml version="1.0" standalone="no"?>
<!DOCTYPE svg PUBLIC "-//W3C//DTD SVG 20010904//EN"
 "http://www.w3.org/TR/2001/REC-SVG-20010904/DTD/svg10.dtd">
<svg version="1.0" xmlns="http://www.w3.org/2000/svg"
 width="32.000000pt" height="32.000000pt" viewBox="0 0 32.000000 32.000000"
 preserveAspectRatio="xMidYMid meet">
<metadata>
Created by potrace 1.16, written by Peter Selinger 2001-2019
</metadata>
<g transform="translate(0.000000,32.000000) scale(0.100000,-0.100000)"
fill="#000000" stroke="none">
<path fill="#000000" stroke="none" d="M106 297 c-21 -17 -27 -29 -23 -41 5
-12 -2 -28 -18 -47 -27 -33 -50 -103 -41 -126 4 -10 15 -14 32 -10 24 4 25 2
22 -32 l-3 -36 90 -3 c114 -4 133 1 133 32 0 14 -7 27 -14 30 -10 4 -11 12 -4
31 16 41 12 74 -12 108 -13 18 -21 39 -20 48 4 22 -57 69 -89 69 -13 0 -37
-11 -53 -23z"/>
<path fill="#ffffff" stroke="none" d="M110 130 c0 -5 -2 -10 -4 -10 -3 0 -8
5 -11 10 -3 6 -1 10 4 10 6 0 11 -4 11 -10z"/>
<path fill="#ffffff" stroke="none" d="M164 55 c-4 -8 -10 -12 -15 -9 -11 6
-2 24 11 24 5 0 7 -7 4 -15z"/>
</g>
</svg>
