<?xml version="1.0" standalone="no"?>
<!DOCTYPE svg PUBLIC "-//W3C//DTD SVG 20010904//EN"
 "http://www.w3.org/TR/2001/REC-SVG-20010904/DTD/svg10.dtd">
<svg version="1.0" xmlns="http://www.w3.org/2000/svg"
 width="32.000000pt" height="48.000000pt" viewBox="0 0 32.000000 48.000000"
 preserveAspectRatio="xMidYMid meet">
<metadata>
Created by potrace 1.16, written by Peter Selinger 2001-2019
</metadata>
<g transform="translate(0.000000,48.000000) scale(0.100000,-0.100000)"
fill="#000000" stroke="none">
<path fill="#000000" stroke="none" d="M0 240 l0 -240 160 0 160 0 0 240 0
240 -160 0 -160 0 0 -240z"/>
<path fill="#ffffff" stroke="none" d="M155 363 c11 -26 12 -64 2 -70 -5 -3
-3 -9 4 -14 11 -6 11 -11 2 -20 -20 -20 -32 -2 -20 31 8 22 8 38 0 60 -12 31
-1 43 12 13z"/>
<path fill="#ffffff" stroke="none" d="M114 312 c-1 -21 -9 -51 -18 -68 -10
-16 -14 -20 -11 -9 22 65 25 84 15 111 -9 24 -9 27 2 16 7 -7 12 -30 12 -50z"/>
<path fill="#ffffff" stroke="none" d="M258 345 c-3 -3 -9 2 -12 12 -6 14 -5
15 5 6 7 -7 10 -15 7 -18z"/>
<path fill="#ffffff" stroke="none" d="M233 283 c-7 -3 -13 -11 -13 -19 0 -8
-4 -14 -10 -14 -15 0 -12 11 7 32 9 10 19 15 22 12 3 -4 0 -9 -6 -11z"/>
<path fill="#ffffff" stroke="none" d="M148 232 c2 -7 -3 -12 -12 -12 -10 0
-13 -6 -10 -15 4 -9 0 -15 -7 -15 -10 0 -11 -2 -2 -8 20 -12 -2 -35 -26 -27
-24 7 -28 25 -5 25 8 0 12 4 9 10 -3 5 2 21 11 35 17 26 34 29 42 7z"/>
<path fill="#ffffff" stroke="none" d="M198 222 c-10 -2 -18 -8 -18 -13 0 -5
-5 -9 -12 -9 -6 0 -3 8 7 20 10 11 23 16 29 12 7 -4 5 -8 -6 -10z"/>
<path fill="#ffffff" stroke="none" d="M125 129 c5 -5 -5 -9 -28 -9 -27 0 -37
4 -37 16 0 13 6 15 28 9 15 -3 31 -11 37 -16z"/>
<path fill="#ffffff" stroke="none" d="M107 104 c13 -4 20 -10 17 -15 -8 -14
-40 -10 -54 6 -14 17 -3 20 37 9z"/>
<path fill="#ffffff" stroke="none" d="M60 19 c0 -4 -11 -6 -25 -6 -13 0 -22
3 -20 8 6 9 45 8 45 -2z"/>
<path fill="#ffffff" stroke="none" d="M95 20 c3 -5 1 -10 -4 -10 -6 0 -11 5
-11 10 0 6 2 10 4 10 3 0 8 -4 11 -10z"/>
<path fill="#ffffff" stroke="none" d="M190 20 c0 -5 -5 -10 -11 -10 -5 0 -7
5 -4 10 3 6 8 10 11 10 2 0 4 -4 4 -10z"/>
<path fill="#ffffff" stroke="none" d="M225 20 c3 -5 1 -10 -4 -10 -6 0 -11 5
-11 10 0 6 2 10 4 10 3 0 8 -4 11 -10z"/>
<path fill="#ffffff" stroke="none" d="M265 20 c3 -5 2 -10 -4 -10 -5 0 -13 5
-16 10 -3 6 -2 10 4 10 5 0 13 -4 16 -10z"/>
</g>
</svg>
