<?xml version="1.0" standalone="no"?>
<!DOCTYPE svg PUBLIC "-//W3C//DTD SVG 20010904//EN"
 "http://www.w3.org/TR/2001/REC-SVG-20010904/DTD/svg10.dtd">
<svg version="1.0" xmlns="http://www.w3.org/2000/svg"
 width="32.000000pt" height="32.000000pt" viewBox="0 0 32.000000 32.000000"
 preserveAspectRatio="xMidYMid meet">
<metadata>
Created by potrace 1.16, written by Peter Selinger 2001-2019
</metadata>
<g transform="translate(0.000000,32.000000) scale(0.100000,-0.100000)"
fill="#000000" stroke="none">
<path fill="#000000" stroke="none" d="M0 263 c0 -47 2 -54 14 -43 11 8 12 18
6 36 -7 18 -6 24 5 25 8 1 20 2 27 3 19 2 21 26 1 27 -10 0 -26 2 -35 4 -15 3
-18 -5 -18 -52z"/>
<path fill="#000000" stroke="none" d="M240 313 c-19 -3 -41 -9 -47 -15 -9 -7
-13 -7 -13 1 0 6 -10 11 -22 10 -15 0 -18 -2 -8 -6 8 -3 38 -29 67 -59 51 -51
72 -92 58 -113 -4 -7 0 -8 10 -5 10 4 14 14 10 28 -2 11 -2 15 1 9 8 -18 24
-16 24 3 0 11 -6 15 -20 11 -11 -3 -20 -1 -20 3 0 5 8 11 18 13 9 2 7 3 -5 2
-12 -1 -25 5 -28 13 -7 19 -4 21 28 24 25 2 27 6 27 45 0 47 3 46 -80 36z"/>
<path fill="#ffffff" stroke="none" d="M281 289 c-18 -17 -20 -24 -10 -35 10
-12 9 -13 -6 -8 -13 5 -16 4 -11 -4 5 -9 0 -9 -20 0 l-27 13 24 5 c13 3 24 12
24 20 0 12 16 22 44 29 3 1 -5 -8 -18 -20z"/>
<path fill="#000000" stroke="none" d="M71 281 c-14 -9 -7 -31 10 -31 6 0 7 5
3 12 -4 7 -3 8 4 4 6 -4 9 -13 6 -21 -4 -9 0 -12 14 -8 11 2 23 -1 27 -7 5 -9
2 -10 -12 -6 -13 4 -27 -2 -43 -19 -13 -14 -29 -25 -37 -25 -7 0 -13 -7 -13
-15 0 -8 4 -15 10 -15 17 0 79 47 72 55 -4 5 -2 5 4 2 16 -9 9 -68 -10 -79
-11 -6 -13 -14 -6 -32 5 -13 7 -26 4 -28 -2 -3 4 -5 14 -5 23 0 56 23 44 31
-6 3 -12 -1 -16 -9 -7 -20 -33 -9 -40 18 -5 21 -5 21 9 3 15 -20 15 -20 16 0
1 10 1 26 0 34 0 8 2 10 5 4 3 -7 13 -11 22 -9 9 1 11 0 5 -2 -7 -3 -13 -9
-13 -14 0 -6 6 -7 13 -3 6 4 9 4 5 -1 -4 -4 -3 -14 3 -22 16 -19 -7 -43 -42
-43 -30 0 -43 13 -44 45 0 11 -8 21 -20 23 -16 4 -17 2 -7 -10 9 -11 9 -17 0
-26 -9 -9 -8 -18 2 -37 19 -35 72 -44 118 -19 52 28 60 54 31 108 -13 25 -20
48 -16 52 10 11 37 -16 37 -37 0 -11 7 -19 15 -19 33 0 13 43 -46 101 -61 59
-93 72 -128 50z"/>
<path fill="#ffffff" stroke="none" d="M173 183 c-7 -2 -19 -2 -25 0 -7 3 -2
5 12 5 14 0 19 -2 13 -5z"/>
<path fill="#ffffff" stroke="none" d="M163 163 c-7 -2 -19 -2 -25 0 -7 3 -2
5 12 5 14 0 19 -2 13 -5z"/>
<path fill="#000000" stroke="none" d="M4 169 c-3 -6 0 -15 7 -20 10 -6 11 -9
2 -9 -9 0 -13 -21 -13 -70 l0 -70 48 0 47 1 -27 17 c-30 18 -36 49 -15 71 10
11 9 13 -4 8 -9 -3 -16 0 -17 6 -1 12 -9 48 -12 57 -1 3 -2 8 -1 13 2 11 -7 9
-15 -4z"/>
<path fill="#000000" stroke="none" d="M211 154 c0 -11 3 -14 6 -6 3 7 2 16
-1 19 -3 4 -6 -2 -5 -13z"/>
<path fill="#000000" stroke="none" d="M288 122 c-34 -21 -36 -32 -4 -32 19 0
26 -6 29 -27 2 -16 4 -4 4 25 1 28 0 52 0 51 -1 0 -14 -8 -29 -17z"/>
<path fill="#000000" stroke="none" d="M235 110 c3 -5 8 -10 11 -10 2 0 4 5 4
10 0 6 -5 10 -11 10 -5 0 -7 -4 -4 -10z"/>
<path fill="#000000" stroke="none" d="M230 20 l-55 -19 72 1 c66 1 71 3 62
20 -12 22 -10 22 -79 -2z"/>
</g>
</svg>
