<?xml version="1.0" standalone="no"?>
<!DOCTYPE svg PUBLIC "-//W3C//DTD SVG 20010904//EN"
 "http://www.w3.org/TR/2001/REC-SVG-20010904/DTD/svg10.dtd">
<svg version="1.0" xmlns="http://www.w3.org/2000/svg"
 width="32.000000pt" height="32.000000pt" viewBox="0 0 32.000000 32.000000"
 preserveAspectRatio="xMidYMid meet">
<metadata>
Created by potrace 1.16, written by Peter Selinger 2001-2019
</metadata>
<g transform="translate(0.000000,32.000000) scale(0.100000,-0.100000)"
fill="#000000" stroke="none">
<path fill="#000000" stroke="none" d="M0 160 l0 -160 160 0 160 0 0 139 c0
83 -4 142 -10 146 -5 3 -10 1 -10 -4 0 -6 -16 -11 -35 -11 -19 0 -35 5 -35 10
0 6 -11 10 -25 10 -16 0 -25 6 -25 15 0 12 -17 15 -90 15 l-90 0 0 -160z"/>
<path fill="#ffffff" stroke="none" d="M156 291 c19 15 18 0 -2 -40 -17 -34
-53 -54 -79 -45 -19 8 -20 33 -1 40 8 3 12 12 9 20 -3 8 1 14 10 14 8 0 21 7
28 17 13 15 14 15 17 -1 3 -14 7 -15 18 -5z"/>
<path fill="#ffffff" stroke="none" d="M184 258 c-6 -20 -5 -21 10 -9 9 8 16
9 16 3 0 -6 -7 -15 -16 -20 -14 -8 -14 -12 -3 -33 17 -31 18 -39 5 -64 -6 -11
-10 -24 -11 -28 0 -4 -7 -12 -15 -17 -10 -6 -21 -2 -37 15 -21 20 -22 26 -11
51 17 39 18 40 28 24 7 -11 10 -9 10 12 0 15 5 30 10 33 6 4 8 11 4 16 -6 11
2 39 11 39 4 0 3 -10 -1 -22z"/>
<path fill="#ffffff" stroke="none" d="M230 225 c-7 -9 -15 -13 -17 -11 -7 7
7 26 19 26 6 0 6 -6 -2 -15z"/>
<path fill="#ffffff" stroke="none" d="M245 200 c-3 -5 -12 -10 -18 -10 -7 0
-6 4 3 10 19 12 23 12 15 0z"/>
<path fill="#ffffff" stroke="none" d="M91 159 c-2 -8 -3 -22 -3 -31 0 -11 -5
-15 -14 -11 -8 3 -21 0 -29 -7 -12 -10 -15 -9 -15 5 0 9 9 19 21 22 16 4 17 8
7 14 -10 7 -9 9 5 9 11 0 15 5 11 11 -4 7 -1 10 7 7 8 -3 12 -12 10 -19z"/>
<path fill="#ffffff" stroke="none" d="M255 170 c-3 -5 -10 -10 -16 -10 -5 0
-9 5 -9 10 0 6 7 10 16 10 8 0 12 -4 9 -10z"/>
<path fill="#ffffff" stroke="none" d="M280 156 c0 -2 -7 -7 -16 -10 -8 -3
-12 -2 -9 4 6 10 25 14 25 6z"/>
<path fill="#ffffff" stroke="none" d="M307 124 c3 -8 1 -20 -4 -25 -7 -7 -12
-5 -17 6 -4 11 -2 14 7 9 8 -5 8 -3 -1 7 -11 12 -15 11 -28 -5 -11 -16 -14
-17 -14 -4 0 28 47 38 57 12z"/>
<path fill="#ffffff" stroke="none" d="M255 52 c2 -9 4 -20 4 -24 1 -3 9 -9
19 -11 13 -4 11 -5 -5 -6 -13 0 -23 4 -23 9 0 6 -5 10 -11 10 -5 0 -7 -4 -4
-10 3 -5 2 -10 -4 -10 -6 0 -8 12 -5 28 4 19 1 32 -10 41 -8 7 -12 19 -9 27 4
11 10 8 25 -11 11 -14 21 -33 23 -43z"/>
<path fill="#ffffff" stroke="none" d="M104 78 l-17 -33 21 18 c19 17 20 18
18 1 -2 -9 -10 -18 -18 -20 -9 -1 -26 -5 -39 -8 -13 -3 -18 -3 -11 0 6 3 12
10 12 15 0 15 31 59 41 59 5 0 2 -15 -7 -32z"/>
<path fill="#ffffff" stroke="none" d="M215 61 c3 -5 2 -12 -3 -15 -5 -3 -9 1
-9 9 0 17 3 19 12 6z"/>
<path fill="#ffffff" stroke="none" d="M78 13 c-10 -2 -26 -2 -35 0 -10 3 -2
5 17 5 19 0 27 -2 18 -5z"/>
<path fill="#000000" stroke="none" d="M115 259 c-4 -6 -4 -13 -1 -16 3 -4 6
-1 6 6 0 7 5 9 10 6 6 -3 10 -1 10 4 0 14 -17 14 -25 0z"/>
</g>
</svg>
