<?xml version="1.0" standalone="no"?>
<!DOCTYPE svg PUBLIC "-//W3C//DTD SVG 20010904//EN"
 "http://www.w3.org/TR/2001/REC-SVG-20010904/DTD/svg10.dtd">
<svg version="1.0" xmlns="http://www.w3.org/2000/svg"
 width="32.000000pt" height="32.000000pt" viewBox="0 0 32.000000 32.000000"
 preserveAspectRatio="xMidYMid meet">
<metadata>
Created by potrace 1.16, written by Peter Selinger 2001-2019
</metadata>
<g transform="translate(0.000000,32.000000) scale(0.100000,-0.100000)"
fill="#000000" stroke="none">
<path fill="#000000" stroke="none" d="M57 293 c-14 -13 -6 -43 14 -54 l21
-11 -23 -12 c-21 -10 -24 -20 -27 -75 -2 -46 2 -70 14 -88 13 -21 14 -27 3
-34 -8 -5 38 -9 111 -9 131 0 154 6 148 35 -2 13 -18 22 -58 29 -30 7 -61 15
-67 19 -18 11 -16 72 2 87 20 17 20 90 0 90 -8 0 -22 -14 -30 -30 l-16 -31 27
5 c21 4 25 3 15 -7 -6 -6 -17 -12 -24 -13 -7 0 -21 -2 -32 -3 -19 -1 -19 -3 4
-20 15 -12 21 -23 16 -31 -6 -10 -11 -9 -22 5 -17 24 -17 3 1 -47 8 -21 10
-35 5 -32 -8 4 -16 32 -33 108 -6 23 -11 27 -31 24 -14 -3 -22 -1 -18 5 3 5
25 7 49 3 41 -5 42 -5 31 17 -37 68 -61 89 -80 70z"/>
<path fill="#ffffff" stroke="none" d="M265 60 c5 0 5 -4 -1 -10 -7 -7 -22 -6
-47 5 -47 20 -47 25 1 14 20 -5 41 -9 47 -9z"/>
</g>
</svg>
