<?xml version="1.0" standalone="no"?>
<!DOCTYPE svg PUBLIC "-//W3C//DTD SVG 20010904//EN"
 "http://www.w3.org/TR/2001/REC-SVG-20010904/DTD/svg10.dtd">
<svg version="1.0" xmlns="http://www.w3.org/2000/svg"
 width="32.000000pt" height="32.000000pt" viewBox="0 0 32.000000 32.000000"
 preserveAspectRatio="xMidYMid meet">
<metadata>
Created by potrace 1.16, written by Peter Selinger 2001-2019
</metadata>
<g transform="translate(0.000000,32.000000) scale(0.100000,-0.100000)"
fill="#000000" stroke="none">
<path fill="#000000" stroke="none" d="M24 313 l28 -5 -28 -29 c-23 -24 -26
-33 -18 -47 6 -9 23 -17 37 -17 14 0 32 -6 39 -14 11 -12 10 -13 -3 -8 -17 6
-79 -49 -79 -70 0 -24 29 -35 62 -24 47 17 56 0 26 -47 -18 -27 -22 -39 -12
-39 7 0 11 3 9 7 -2 3 4 19 14 34 12 18 21 24 26 17 4 -7 -1 -23 -9 -36 -9
-14 -13 -25 -9 -26 5 0 16 -2 26 -4 11 -2 16 -1 13 2 -3 3 1 18 9 34 19 35 19
53 1 20 l-14 -25 -6 31 c-4 17 -14 34 -22 37 -17 6 -19 32 -3 42 6 3 16 0 21
-7 6 -10 7 -6 3 11 -4 14 -19 35 -33 47 -33 28 -25 38 16 18 22 -11 29 -21 26
-33 -4 -9 7 6 24 33 21 35 26 52 18 57 -8 6 -7 8 2 8 6 0 12 5 12 11 0 8 -5 8
-15 -1 -8 -7 -12 -16 -9 -21 4 -7 -56 -39 -72 -39 -12 0 -1 30 16 45 41 37
129 37 170 0 17 -15 28 -45 16 -45 -16 0 -76 32 -72 39 3 5 -1 14 -9 21 -9 8
-15 8 -15 2 0 -6 6 -13 13 -15 9 -4 9 -6 -1 -6 -7 -1 -10 -6 -6 -13 5 -7 3 -8
-6 -3 -9 5 -11 4 -6 -4 4 -6 0 -24 -9 -39 l-16 -27 23 27 c19 22 26 25 40 14
20 -14 8 -42 -15 -33 -20 8 -82 -57 -74 -78 11 -26 35 -28 78 -5 26 13 45 18
51 12 6 -6 -5 -15 -31 -23 l-41 -14 20 -33 c20 -33 40 -38 48 -13 3 9 -2 11
-17 6 -12 -4 -22 -2 -22 4 -1 6 -2 15 -3 21 -1 5 16 18 37 29 l37 19 0 -34 c0
-32 -2 -33 -20 -22 -14 9 -23 9 -30 2 -8 -8 -4 -10 12 -10 19 1 23 -4 23 -26
-1 -16 5 -28 12 -28 10 0 13 36 13 160 l0 160 -162 -1 c-90 -1 -150 -4 -134
-6z"/>
<path fill="#ffffff" stroke="none" d="M92 286 c-16 -18 -16 -18 6 -7 12 6 22
16 22 21 0 6 6 10 13 10 6 0 -1 -13 -18 -27 -16 -15 -29 -30 -27 -35 3 -12
-45 -29 -63 -22 -8 4 -15 11 -15 17 0 21 49 62 74 62 23 0 24 -1 8 -19z"/>
<path fill="#ffffff" stroke="none" d="M310 290 c0 -11 -2 -20 -3 -20 -2 0
-12 9 -22 20 -18 19 -17 20 3 20 15 0 22 -6 22 -20z"/>
<path fill="#ffffff" stroke="none" d="M175 241 c-6 -5 -21 -11 -35 -15 -21
-5 -20 -3 5 9 35 17 42 18 30 6z"/>
<path fill="#ffffff" stroke="none" d="M287 224 c-5 -5 -57 13 -57 20 0 3 14
0 31 -6 16 -6 28 -12 26 -14z"/>
<path fill="#ffffff" stroke="none" d="M310 190 c0 -30 -1 -30 -23 -15 -22 14
-25 14 -39 -2 -9 -10 -14 -26 -13 -36 2 -12 -5 -21 -21 -27 -26 -10 -54 -4
-54 13 0 20 52 66 68 60 8 -4 20 1 26 9 6 9 20 18 31 21 11 2 21 5 23 6 1 0 2
-13 2 -29z"/>
<path fill="#ffffff" stroke="none" d="M92 166 c-16 -18 -16 -18 8 -7 24 12
24 11 5 -4 -11 -9 -19 -21 -17 -26 3 -13 -44 -30 -63 -23 -8 4 -15 11 -15 17
0 21 49 62 74 62 23 0 24 -1 8 -19z"/>
<path fill="#ffffff" stroke="none" d="M300 155 c16 -19 3 -40 -15 -25 -8 7
-20 8 -26 4 -8 -4 -9 -3 -5 4 4 7 1 12 -6 12 -9 0 -9 3 2 10 21 14 36 12 50
-5z"/>
<path fill="#000000" stroke="none" d="M40 240 c-18 -12 -2 -12 25 0 13 6 15
9 5 9 -8 0 -22 -4 -30 -9z"/>
<path fill="#000000" stroke="none" d="M190 120 c-18 -12 -2 -12 25 0 13 6 15
9 5 9 -8 0 -22 -4 -30 -9z"/>
<path fill="#000000" stroke="none" d="M40 120 c-18 -12 -2 -12 25 0 13 6 15
9 5 9 -8 0 -22 -4 -30 -9z"/>
<path fill="#000000" stroke="none" d="M177 27 c-14 -21 -13 -23 7 -24 11 -1
15 1 9 4 -9 3 -10 10 -3 24 15 27 5 24 -13 -4z"/>
</g>
</svg>
