<?xml version="1.0" standalone="no"?>
<!DOCTYPE svg PUBLIC "-//W3C//DTD SVG 20010904//EN"
 "http://www.w3.org/TR/2001/REC-SVG-20010904/DTD/svg10.dtd">
<svg version="1.0" xmlns="http://www.w3.org/2000/svg"
 width="32.000000pt" height="32.000000pt" viewBox="0 0 32.000000 32.000000"
 preserveAspectRatio="xMidYMid meet">
<metadata>
Created by potrace 1.16, written by Peter Selinger 2001-2019
</metadata>
<g transform="translate(0.000000,32.000000) scale(0.100000,-0.100000)"
fill="#000000" stroke="none">
<path fill="#000000" stroke="none" d="M118 219 c5 -36 -11 -38 -26 -4 -13 29
-34 32 -53 8 -11 -15 -11 -16 1 -5 8 6 20 12 26 12 20 0 28 -39 11 -58 -8 -9
-18 -30 -21 -47 -4 -16 -15 -39 -24 -49 -14 -15 -14 -18 -2 -14 8 2 22 26 31
52 l16 47 16 -23 16 -23 1 25 2 25 8 -25 8 -25 7 23 c14 42 32 24 41 -40 6
-40 14 -63 24 -66 12 -4 13 -2 4 9 -7 8 -15 38 -19 67 -5 40 -13 57 -31 69
-14 9 -24 25 -24 39 0 12 -4 25 -8 28 -5 3 -6 -8 -4 -25z"/>
<path fill="#000000" stroke="none" d="M216 228 c-17 -9 -17 -12 -4 -22 8 -6
15 -15 15 -20 0 -10 21 -41 51 -75 20 -23 20 -22 -3 13 -29 46 -31 59 -8 77
15 13 15 12 3 -11 -12 -23 -12 -24 3 -11 22 18 21 38 -2 51 -24 12 -31 12 -55
-2z"/>
<path fill="#000000" stroke="none" d="M145 201 c-5 -10 22 -23 39 -18 17 4
45 -75 35 -98 -9 -19 -9 -19 4 -2 27 33 -14 127 -54 127 -10 0 -20 -4 -24 -9z"/>
</g>
</svg>
