<?xml version="1.0" standalone="no"?>
<!DOCTYPE svg PUBLIC "-//W3C//DTD SVG 20010904//EN"
 "http://www.w3.org/TR/2001/REC-SVG-20010904/DTD/svg10.dtd">
<svg version="1.0" xmlns="http://www.w3.org/2000/svg"
 width="32.000000pt" height="32.000000pt" viewBox="0 0 32.000000 32.000000"
 preserveAspectRatio="xMidYMid meet">
<metadata>
Created by potrace 1.16, written by Peter Selinger 2001-2019
</metadata>
<g transform="translate(0.000000,32.000000) scale(0.100000,-0.100000)"
fill="#000000" stroke="none">
<path fill="#000000" stroke="none" d="M3 145 c0 -82 1 -142 4 -132 3 10 9 14
16 10 8 -4 8 -2 -1 9 -8 10 -12 41 -10 84 1 38 3 61 6 52 2 -10 7 -18 12 -18
12 0 7 33 -7 45 -7 6 -14 30 -16 55 -2 25 -4 -22 -4 -105z"/>
<path fill="#000000" stroke="none" d="M206 269 c-9 -11 -16 -23 -16 -28 0
-14 -59 -5 -78 13 -23 20 -32 20 -32 1 0 -8 -8 -15 -18 -15 -20 0 -42 -18 -42
-35 0 -5 5 -2 11 8 5 9 21 17 34 17 16 0 25 6 25 16 0 8 4 13 10 9 5 -3 7 -13
4 -23 -4 -11 -3 -13 3 -5 6 8 12 4 19 -12 10 -20 8 -27 -7 -41 -10 -9 -24 -14
-32 -11 -8 3 -14 -1 -14 -9 0 -10 9 -12 29 -9 34 6 36 -5 4 -32 -22 -20 -25
-20 -41 -4 -11 10 -15 11 -10 2 6 -10 4 -12 -4 -7 -9 6 -9 11 0 22 9 11 7 14
-9 14 -19 0 -20 -3 -10 -30 7 -23 7 -34 -2 -45 -7 -9 -10 -18 -7 -21 3 -3 12
7 20 22 9 18 16 23 22 15 4 -7 0 -20 -9 -30 -24 -27 -19 -33 14 -16 38 19 61
20 54 0 -4 -8 -12 -15 -19 -15 -8 0 -16 -4 -19 -9 -7 -10 13 -9 31 2 6 4 16
21 22 37 5 17 6 28 2 25 -5 -2 -14 2 -22 11 -10 13 -9 19 9 37 l22 21 0 -22
c0 -16 -4 -21 -13 -16 -6 4 -1 -4 11 -19 17 -17 22 -32 17 -46 -3 -12 -10 -19
-14 -17 -4 3 -8 -1 -8 -9 0 -21 10 -19 37 10 24 26 70 34 70 13 0 -9 3 -9 8
-2 4 6 15 14 26 17 14 6 17 4 12 -8 -3 -9 -2 -13 3 -10 5 3 12 -5 14 -17 2
-13 4 45 4 127 0 83 -2 140 -4 127 -4 -18 -8 -21 -18 -12 -7 6 -26 15 -43 19
-23 7 -33 5 -46 -10z"/>
<path fill="#ffffff" stroke="none" d="M290 244 c13 -13 20 -30 17 -38 -7 -18
-28 -22 -24 -5 1 7 -13 16 -31 21 -18 5 -30 13 -27 18 3 6 -1 7 -10 3 -15 -5
-15 -3 -5 14 16 25 50 20 80 -13z"/>
<path fill="#ffffff" stroke="none" d="M183 215 c10 -10 29 -13 57 -10 23 2
40 1 36 -2 -3 -3 -1 -14 5 -25 12 -22 -3 -41 -40 -53 -22 -7 -23 -5 -17 19 8
31 -10 35 -19 5 -5 -16 -9 -18 -15 -9 -4 7 -12 10 -18 6 -14 -8 -34 18 -26 37
3 8 0 18 -5 22 -14 8 -4 25 14 25 7 0 20 -7 28 -15z"/>
<path fill="#ffffff" stroke="none" d="M225 220 c3 -5 -1 -10 -10 -10 -9 0
-13 5 -10 10 3 6 8 10 10 10 2 0 7 -4 10 -10z"/>
<path fill="#ffffff" stroke="none" d="M310 143 c0 -19 -3 -24 -10 -17 -6 6
-8 18 -4 27 9 24 14 21 14 -10z"/>
<path fill="#ffffff" stroke="none" d="M285 110 c-3 -5 -1 -11 5 -15 6 -4 8
-11 4 -16 -3 -5 -10 -7 -15 -3 -5 3 -7 10 -4 15 4 5 -3 9 -14 9 -12 0 -21 5
-21 11 0 5 4 8 9 4 5 -3 12 -1 16 5 4 6 11 8 16 4 5 -3 7 -9 4 -14z"/>
<path fill="#ffffff" stroke="none" d="M110 80 c0 -5 -8 -10 -17 -10 -15 0
-16 2 -3 10 19 12 20 12 20 0z"/>
<path fill="#000000" stroke="none" d="M182 178 c7 -15 15 -23 17 -17 2 6 -4
18 -13 27 -15 15 -15 15 -4 -10z"/>
<path fill="#000000" stroke="none" d="M69 193 c-13 -17 -13 -17 6 -3 11 8 22
16 24 17 2 2 0 3 -6 3 -6 0 -17 -8 -24 -17z"/>
</g>
</svg>
