<?xml version="1.0" standalone="no"?>
<!DOCTYPE svg PUBLIC "-//W3C//DTD SVG 20010904//EN"
 "http://www.w3.org/TR/2001/REC-SVG-20010904/DTD/svg10.dtd">
<svg version="1.0" xmlns="http://www.w3.org/2000/svg"
 width="32.000000pt" height="32.000000pt" viewBox="0 0 32.000000 32.000000"
 preserveAspectRatio="xMidYMid meet">
<metadata>
Created by potrace 1.16, written by Peter Selinger 2001-2019
</metadata>
<g transform="translate(0.000000,32.000000) scale(0.100000,-0.100000)"
fill="#000000" stroke="none">
<path fill="#000000" stroke="none" d="M0 160 l0 -160 160 0 160 0 0 130 c0
123 -1 130 -20 130 -27 0 -25 18 3 22 12 2 -8 8 -45 12 -38 5 -68 12 -68 17 0
5 -43 9 -95 9 l-95 0 0 -160z"/>
<path fill="#ffffff" stroke="none" d="M150 120 c0 -11 -9 -24 -21 -30 -26
-14 -35 -7 -14 10 8 7 15 21 15 32 0 10 5 16 10 13 6 -3 10 -15 10 -25z"/>
<path fill="#ffffff" stroke="none" d="M50 95 c-7 -8 -17 -15 -23 -15 -6 0 -2
7 9 15 25 19 30 19 14 0z"/>
</g>
</svg>
