<?xml version="1.0" standalone="no"?>
<!DOCTYPE svg PUBLIC "-//W3C//DTD SVG 20010904//EN"
 "http://www.w3.org/TR/2001/REC-SVG-20010904/DTD/svg10.dtd">
<svg version="1.0" xmlns="http://www.w3.org/2000/svg"
 width="32.000000pt" height="32.000000pt" viewBox="0 0 32.000000 32.000000"
 preserveAspectRatio="xMidYMid meet">
<metadata>
Created by potrace 1.16, written by Peter Selinger 2001-2019
</metadata>
<g transform="translate(0.000000,32.000000) scale(0.100000,-0.100000)"
fill="#000000" stroke="none">
<path fill="#000000" stroke="none" d="M90 305 c-8 -10 -10 -28 -6 -53 4 -20
8 -43 8 -50 1 -8 10 -4 24 9 13 12 21 25 19 30 -3 4 -1 10 5 14 5 3 10 11 10
18 0 6 -6 2 -14 -8 -18 -25 -49 -13 -44 17 4 33 48 31 65 -2 12 -25 39 -40 81
-45 31 -3 48 -20 31 -30 -8 -5 -10 -4 -5 3 5 8 0 11 -16 9 -13 -2 -29 -16 -37
-33 -13 -26 -12 -32 8 -69 l22 -40 -24 -20 -23 -21 22 -17 c26 -19 47 -21 73
-7 15 8 18 23 17 106 -2 110 -11 126 -85 138 -24 4 -41 12 -41 20 0 19 -33 46
-57 46 -11 0 -26 -7 -33 -15z"/>
<path fill="#ffffff" stroke="none" d="M127 234 c-3 -3 -12 -4 -19 -1 -8 3 -5
6 6 6 11 1 17 -2 13 -5z"/>
<path fill="#ffffff" stroke="none" d="M255 183 c9 4 13 3 10 -2 -3 -5 -1 -12
5 -16 13 -8 13 -85 0 -85 -16 0 -37 42 -44 85 -3 24 -2 35 3 26 5 -8 16 -11
26 -8z"/>
<path fill="#000000" stroke="none" d="M9 203 c-12 -32 -6 -51 18 -60 10 -4
24 -15 32 -26 7 -10 19 -16 27 -13 17 6 19 -10 3 -20 -6 -3 -9 -19 -6 -34 3
-15 2 -31 -4 -37 -5 -5 13 -9 48 -8 45 0 58 3 58 15 0 8 6 25 12 36 10 18 10
24 -3 35 -8 7 -12 19 -9 27 4 12 3 13 -9 3 -8 -7 -19 -10 -24 -7 -5 3 -9 -2
-9 -10 0 -9 6 -13 14 -10 9 4 11 1 7 -6 -5 -8 -2 -9 9 -5 9 3 19 2 22 -3 5 -8
-12 -7 -57 2 -27 6 -30 14 -16 37 11 17 10 23 -4 37 -15 15 -17 15 -28 -5 -6
-12 -16 -19 -21 -15 -6 4 -4 13 6 24 12 13 13 23 6 44 -6 14 -15 26 -21 26 -7
0 -8 -6 -1 -18 11 -21 -2 -48 -18 -38 -7 5 -9 1 -5 -8 4 -10 1 -16 -7 -16 -7
0 -9 3 -6 7 4 3 1 13 -6 21 -10 13 -9 14 2 8 10 -7 12 -3 7 15 -6 20 -5 21 4
7 16 -25 33 -23 20 2 -15 27 -29 25 -41 -7z"/>
<path fill="#ffffff" stroke="none" d="M110 140 c-7 -4 -10 -12 -7 -17 3 -5
-3 -9 -13 -10 -11 -1 -23 3 -26 9 -4 7 -2 8 4 4 6 -4 17 2 24 13 6 11 16 17
21 14 5 -3 4 -9 -3 -13z"/>
<path fill="#ffffff" stroke="none" d="M120 54 c12 -30 13 -40 3 -31 -3 4 -13
1 -22 -6 -14 -10 -14 -10 -4 3 8 10 9 21 3 30 -13 20 -12 30 0 30 6 0 15 -12
20 -26z"/>
</g>
</svg>
