<?xml version="1.0" standalone="no"?>
<!DOCTYPE svg PUBLIC "-//W3C//DTD SVG 20010904//EN"
 "http://www.w3.org/TR/2001/REC-SVG-20010904/DTD/svg10.dtd">
<svg version="1.0" xmlns="http://www.w3.org/2000/svg"
 width="32.000000pt" height="32.000000pt" viewBox="0 0 32.000000 32.000000"
 preserveAspectRatio="xMidYMid meet">
<metadata>
Created by potrace 1.16, written by Peter Selinger 2001-2019
</metadata>
<g transform="translate(0.000000,32.000000) scale(0.100000,-0.100000)"
fill="#000000" stroke="none">
<path fill="#000000" stroke="none" d="M87 280 c-10 -6 -31 -12 -48 -12 -33
-1 -46 -18 -33 -45 4 -10 6 -24 5 -31 -1 -8 5 -22 14 -32 18 -19 13 -58 -11
-98 -8 -12 -10 -22 -5 -22 9 0 26 38 37 84 4 16 15 31 26 34 15 3 16 7 7 13
-8 4 -19 3 -27 -3 -9 -8 -16 -8 -25 2 -9 9 -9 11 0 6 6 -3 14 -2 18 4 3 5 0
10 -8 10 -7 0 -14 6 -14 13 0 6 -3 22 -7 33 -6 21 -3 22 54 21 33 0 60 -4 60
-9 0 -4 -5 -8 -11 -8 -5 0 -7 -5 -3 -11 5 -8 10 -6 16 5 13 23 0 38 -25 30
-17 -5 -19 -3 -11 5 17 18 159 3 187 -19 19 -16 21 -28 22 -123 0 -58 3 -103
7 -101 3 2 5 50 4 105 -2 97 -3 102 -29 125 -16 13 -40 24 -55 24 -15 0 -49 3
-77 5 -28 3 -58 1 -68 -5z"/>
<path fill="#000000" stroke="none" d="M230 159 c-7 -11 -9 -23 -6 -27 3 -3 6
1 6 9 0 12 2 12 10 -1 16 -26 -8 -41 -48 -31 -2 1 4 11 12 23 25 35 22 38 -23
29 -2 -1 2 -7 8 -15 7 -8 8 -17 3 -20 -5 -3 -12 -18 -15 -34 -3 -16 -19 -43
-35 -60 -17 -18 -28 -32 -26 -32 2 0 24 7 50 16 26 9 60 13 76 10 32 -6 35 0
12 32 -10 14 -13 30 -8 40 13 29 14 63 2 56 -7 -5 -9 -1 -5 9 9 24 0 21 -13
-4z"/>
<path fill="#ffffff" stroke="none" d="M225 70 c0 -7 -10 -15 -23 -16 -20 -4
-21 -2 -12 17 12 22 35 21 35 -1z"/>
<path fill="#000000" stroke="none" d="M92 123 c1 -4 -6 -23 -16 -42 -15 -28
-15 -35 -4 -42 8 -6 17 -3 26 8 15 20 16 69 2 78 -6 4 -9 3 -8 -2z"/>
<path fill="#000000" stroke="none" d="M205 119 c-3 -4 2 -6 10 -5 21 3 28 13
10 13 -9 0 -18 -4 -20 -8z"/>
<path fill="#000000" stroke="none" d="M61 16 c-12 -14 -11 -16 7 -13 12 2 25
7 29 12 5 4 3 5 -4 2 -6 -4 -13 -2 -15 4 -2 7 -9 5 -17 -5z"/>
</g>
</svg>
