<?xml version="1.0" standalone="no"?>
<!DOCTYPE svg PUBLIC "-//W3C//DTD SVG 20010904//EN"
 "http://www.w3.org/TR/2001/REC-SVG-20010904/DTD/svg10.dtd">
<svg version="1.0" xmlns="http://www.w3.org/2000/svg"
 width="32.000000pt" height="32.000000pt" viewBox="0 0 32.000000 32.000000"
 preserveAspectRatio="xMidYMid meet">
<metadata>
Created by potrace 1.16, written by Peter Selinger 2001-2019
</metadata>
<g transform="translate(0.000000,32.000000) scale(0.100000,-0.100000)"
fill="#000000" stroke="none">
<path fill="#000000" stroke="none" d="M102 308 c-17 -17 -15 -53 3 -68 10 -8
29 -10 56 -6 26 4 46 2 55 -5 23 -19 16 -29 -12 -19 -44 17 -124 10 -124 -10
0 -10 20 -8 38 3 7 5 12 4 12 -2 0 -6 5 -11 11 -11 5 0 7 6 3 13 -5 8 -2 7 9
-2 10 -8 15 -16 12 -19 -8 -8 -48 -10 -60 -4 -17 11 -40 11 -54 2 -20 -12 -24
-80 -6 -106 12 -19 12 -24 0 -34 -26 -22 -16 -29 35 -27 35 1 49 6 45 15 -2 7
4 12 16 12 11 0 29 5 40 10 10 6 19 7 19 3 0 -5 -10 -13 -22 -18 -12 -6 -24
-16 -26 -23 -6 -19 31 -11 40 8 5 12 7 12 7 -2 1 -10 5 -18 11 -18 5 0 7 6 5
12 -7 20 9 81 22 85 15 5 9 -33 -8 -54 -10 -11 -9 -18 5 -31 16 -16 17 -16 11
0 -6 15 -2 16 29 11 38 -6 47 5 21 27 -11 9 -13 16 -5 24 15 15 12 53 -5 60
-11 4 -13 16 -9 50 6 41 4 48 -24 75 -31 31 -84 42 -97 21 -11 -18 -25 -11
-22 11 2 26 -14 34 -31 17z"/>
<path fill="#ffffff" stroke="none" d="M125 290 c-7 -23 22 -41 35 -21 5 10 9
9 13 -3 8 -21 -37 -33 -58 -16 -23 19 -18 60 7 60 5 0 6 -9 3 -20z"/>
<path fill="#ffffff" stroke="none" d="M212 265 c3 0 9 -3 13 -7 4 -3 0 -5 -9
-4 -9 1 -22 8 -29 16 -10 10 -9 11 3 4 8 -5 18 -9 22 -9z"/>
<path fill="#ffffff" stroke="none" d="M222 151 c12 -15 14 -22 5 -28 -14 -11
-37 -11 -37 0 0 4 0 16 0 27 0 25 11 25 32 1z"/>
<path fill="#ffffff" stroke="none" d="M132 127 c-8 -9 -8 -17 0 -27 8 -12 8
-11 3 5 -5 15 -3 17 6 8 15 -15 4 -32 -18 -29 -26 4 -26 56 0 56 15 0 17 -3 9
-13z"/>
<path fill="#ffffff" stroke="none" d="M70 84 c0 -8 -5 -12 -10 -9 -6 4 -8 11
-5 16 9 14 15 11 15 -7z"/>
<path fill="#ffffff" stroke="none" d="M60 30 c0 -5 -5 -10 -11 -10 -5 0 -7 5
-4 10 3 6 8 10 11 10 2 0 4 -4 4 -10z"/>
</g>
</svg>
