<?xml version="1.0" standalone="no"?>
<!DOCTYPE svg PUBLIC "-//W3C//DTD SVG 20010904//EN"
 "http://www.w3.org/TR/2001/REC-SVG-20010904/DTD/svg10.dtd">
<svg version="1.0" xmlns="http://www.w3.org/2000/svg"
 width="32.000000pt" height="32.000000pt" viewBox="0 0 32.000000 32.000000"
 preserveAspectRatio="xMidYMid meet">
<metadata>
Created by potrace 1.16, written by Peter Selinger 2001-2019
</metadata>
<g transform="translate(0.000000,32.000000) scale(0.100000,-0.100000)"
fill="#000000" stroke="none">
<path fill="#000000" stroke="none" d="M0 160 l0 -160 160 0 160 0 0 160 0
160 -160 0 -160 0 0 -160z"/>
<path fill="#ffffff" stroke="none" d="M116 262 c-9 -9 -37 8 -31 18 5 8 11 7
21 -1 8 -6 12 -14 10 -17z"/>
<path fill="#ffffff" stroke="none" d="M162 178 c-5 -22 -45 -59 -40 -38 2 8
11 23 20 34 12 13 14 23 8 31 -5 7 -7 15 -3 19 10 9 21 -24 15 -46z"/>
<path fill="#ffffff" stroke="none" d="M62 202 c-7 -2 -12 -11 -12 -20 0 -8
-3 -13 -6 -9 -10 10 7 48 19 40 8 -5 8 -8 -1 -11z"/>
<path fill="#ffffff" stroke="none" d="M30 159 c0 -5 -4 -9 -10 -9 -5 0 -10 7
-10 16 0 8 5 12 10 9 6 -3 10 -10 10 -16z"/>
</g>
</svg>
