<?xml version="1.0" standalone="no"?>
<!DOCTYPE svg PUBLIC "-//W3C//DTD SVG 20010904//EN"
 "http://www.w3.org/TR/2001/REC-SVG-20010904/DTD/svg10.dtd">
<svg version="1.0" xmlns="http://www.w3.org/2000/svg"
 width="32.000000pt" height="32.000000pt" viewBox="0 0 32.000000 32.000000"
 preserveAspectRatio="xMidYMid meet">
<metadata>
Created by potrace 1.16, written by Peter Selinger 2001-2019
</metadata>
<g transform="translate(0.000000,32.000000) scale(0.100000,-0.100000)"
fill="#000000" stroke="none">
<path fill="#000000" stroke="none" d="M124 248 c-16 -17 -23 -28 -16 -24 17
10 15 2 -8 -44 -11 -22 -20 -45 -20 -51 0 -7 12 12 28 42 15 30 23 56 19 58
-10 4 22 41 35 41 5 0 6 -5 2 -12 -4 -7 -3 -8 5 -4 11 7 6 26 -8 26 -4 0 -20
-14 -37 -32z"/>
<path fill="#000000" stroke="none" d="M49 203 c-6 -36 -5 -52 4 -46 6 4 8 0
4 -11 -4 -11 -3 -15 4 -11 5 4 8 12 6 18 -2 7 3 18 12 25 13 11 12 11 -7 2
-22 -11 -23 -10 -17 9 3 12 4 21 1 21 -3 0 -7 -3 -7 -7z"/>
<path fill="#000000" stroke="none" d="M302 182 c-11 -25 -11 -25 4 -10 9 9
15 21 13 27 -2 6 -10 -2 -17 -17z"/>
<path fill="#000000" stroke="none" d="M21 174 c0 -11 3 -14 6 -6 3 7 2 16 -1
19 -3 4 -6 -2 -5 -13z"/>
<path fill="#000000" stroke="none" d="M23 137 c0 -7 -3 -22 -7 -34 -5 -16 -2
-25 14 -33 12 -6 24 -9 28 -6 3 3 0 6 -7 6 -7 0 -9 5 -5 12 5 8 2 9 -9 5 -20
-7 -20 -6 -7 27 5 14 6 28 1 30 -4 3 -8 0 -8 -7z"/>
<path fill="#000000" stroke="none" d="M280 134 c-8 -9 -17 -11 -22 -6 -6 6
-19 5 -33 -2 l-23 -10 30 -19 c32 -19 49 -13 69 24 12 23 -5 34 -21 13z"/>
<path fill="#ffffff" stroke="none" d="M290 121 c-5 -11 -15 -23 -21 -27 -11
-7 -29 13 -28 31 0 6 3 4 6 -2 7 -18 30 -16 37 2 3 8 8 15 11 15 3 0 1 -9 -5
-19z"/>
<path fill="#000000" stroke="none" d="M152 101 c-8 -5 -12 -17 -11 -27 4 -23
-8 -44 -24 -44 -8 0 -8 3 1 12 17 17 15 48 -4 55 -8 3 -22 -2 -30 -11 -8 -9
-9 -11 -2 -6 30 25 55 -9 27 -37 -19 -19 11 -26 32 -7 12 11 17 24 13 37 -5
17 -1 16 30 -8 49 -37 69 -20 24 21 -18 16 -24 19 -14 7 11 -13 15 -23 10 -23
-14 0 -30 13 -35 27 -2 8 -9 9 -17 4z"/>
<path fill="#ffffff" stroke="none" d="M225 60 c3 -5 1 -10 -4 -10 -6 0 -11 5
-11 10 0 6 2 10 4 10 3 0 8 -4 11 -10z"/>
</g>
</svg>
