<?xml version="1.0" standalone="no"?>
<!DOCTYPE svg PUBLIC "-//W3C//DTD SVG 20010904//EN"
 "http://www.w3.org/TR/2001/REC-SVG-20010904/DTD/svg10.dtd">
<svg version="1.0" xmlns="http://www.w3.org/2000/svg"
 width="32.000000pt" height="32.000000pt" viewBox="0 0 32.000000 32.000000"
 preserveAspectRatio="xMidYMid meet">
<metadata>
Created by potrace 1.16, written by Peter Selinger 2001-2019
</metadata>
<g transform="translate(0.000000,32.000000) scale(0.100000,-0.100000)"
fill="#000000" stroke="none">
<path fill="#000000" stroke="none" d="M0 243 l0 -73 25 16 c20 13 28 14 40 4
12 -10 15 -7 20 12 3 13 1 36 -4 52 -8 19 -8 33 -1 44 9 14 10 12 5 -8 -6 -24
-5 -24 7 -5 17 27 59 26 76 0 13 -19 13 -19 9 3 -5 20 0 18 41 -17 26 -21 54
-47 63 -57 20 -23 35 -94 19 -94 -14 0 -13 -36 3 -61 10 -17 9 -22 -13 -39
l-25 -20 28 0 27 0 0 160 0 159 -160 -1 -160 -1 0 -74z"/>
<path fill="#000000" stroke="none" d="M109 289 c-8 -5 -10 -9 -5 -9 5 0 3 -7
-4 -16 -11 -12 -11 -18 2 -30 12 -12 17 -13 23 -3 5 7 4 10 -3 5 -6 -3 -13 -2
-17 4 -10 16 21 12 35 -5 10 -12 7 -15 -14 -21 -15 -3 -31 -15 -37 -25 -11
-21 -35 -25 -41 -8 -3 8 -10 6 -21 -5 -9 -10 -15 -21 -12 -26 3 -5 1 -11 -5
-15 -5 -3 -10 -35 -10 -71 l0 -64 65 2 c50 2 64 6 60 16 -2 7 0 10 5 7 6 -3
10 -1 10 5 0 6 6 8 13 4 6 -4 8 -3 4 1 -14 16 -38 14 -49 -5 -11 -17 -12 -17
-30 0 -16 14 -18 25 -12 56 7 37 6 38 -11 24 -13 -10 -16 -11 -11 -2 4 7 18
18 30 23 19 8 18 9 -6 6 -30 -4 -57 16 -38 28 6 4 9 1 8 -7 -3 -15 50 -12 70
4 10 9 10 14 0 27 -12 14 -11 14 5 2 9 -7 17 -20 17 -27 0 -23 27 -16 45 12
14 22 19 23 32 12 15 -11 16 -10 10 10 -5 23 -5 23 13 7 10 -9 16 -24 13 -33
-4 -13 -3 -14 5 -3 7 9 12 10 16 2 8 -13 26 -5 26 10 0 15 -92 99 -102 93 -4
-3 -8 -11 -8 -19 0 -8 -5 -17 -12 -21 -7 -4 -8 -3 -4 5 19 30 -24 70 -55 50z"/>
<path fill="#000000" stroke="none" d="M189 188 c-5 -18 -6 -38 -1 -34 7 8 12
36 6 36 -2 0 -4 -1 -5 -2z"/>
<path fill="#000000" stroke="none" d="M112 142 c-7 -2 -12 -8 -12 -14 0 -6 6
-6 15 2 10 9 15 9 15 1 0 -6 -4 -12 -10 -12 -5 -1 -15 -2 -21 -3 -13 -1 -27
-31 -28 -58 -1 -11 6 -18 18 -18 29 0 35 18 15 43 -15 18 -13 17 9 -3 25 -22
27 -22 22 -5 -5 17 -4 17 11 -2 18 -25 39 -31 31 -9 -3 7 1 23 9 34 11 16 11
22 1 30 -15 11 -58 20 -75 14z"/>
<path fill="#000000" stroke="none" d="M247 118 c7 -37 10 -44 19 -35 9 8 -6
67 -17 67 -4 0 -6 -15 -2 -32z"/>
<path fill="#000000" stroke="none" d="M203 125 c4 -8 2 -17 -3 -20 -15 -9
-12 -41 5 -55 8 -7 15 -21 15 -31 0 -11 7 -17 19 -16 12 1 17 7 13 19 -2 10
-9 18 -14 18 -5 0 -6 5 -3 10 4 6 1 18 -7 27 -9 12 -9 15 0 9 15 -9 15 -5 2
28 -5 14 -15 26 -21 26 -6 0 -9 -7 -6 -15z"/>
<path fill="#000000" stroke="none" d="M180 10 l-25 -8 28 -1 c15 -1 27 4 27
9 0 6 -1 10 -2 9 -2 -1 -14 -5 -28 -9z"/>
</g>
</svg>
