<?xml version="1.0" standalone="no"?>
<!DOCTYPE svg PUBLIC "-//W3C//DTD SVG 20010904//EN"
 "http://www.w3.org/TR/2001/REC-SVG-20010904/DTD/svg10.dtd">
<svg version="1.0" xmlns="http://www.w3.org/2000/svg"
 width="32.000000pt" height="32.000000pt" viewBox="0 0 32.000000 32.000000"
 preserveAspectRatio="xMidYMid meet">
<metadata>
Created by potrace 1.16, written by Peter Selinger 2001-2019
</metadata>
<g transform="translate(0.000000,32.000000) scale(0.100000,-0.100000)"
fill="#000000" stroke="none">
<path fill="#000000" stroke="none" d="M0 160 l0 -160 160 0 160 0 0 160 0
160 -160 0 -160 0 0 -160z"/>
<path fill="#ffffff" stroke="none" d="M215 253 c0 -7 5 -17 12 -24 9 -9 11
-6 7 12 -5 23 -4 23 20 -6 14 -16 23 -31 21 -33 -2 -3 2 -14 10 -25 10 -14 11
-26 4 -44 -11 -29 -49 -80 -49 -66 0 5 5 14 12 21 17 17 19 42 2 35 -8 -3 -17
2 -20 11 -8 21 -47 14 -50 -9 -1 -10 5 -30 13 -44 10 -15 3 -11 -16 11 -18 21
-40 42 -49 48 -14 9 -13 10 8 6 14 -3 19 -3 12 0 -10 5 -10 10 3 24 10 11 12
20 6 24 -5 4 -13 2 -16 -4 -5 -8 -11 -8 -20 0 -16 13 -39 4 -29 -11 3 -5 9 -7
13 -5 4 3 13 0 21 -5 12 -8 11 -9 -5 -7 -14 2 -19 -2 -17 -15 2 -10 -3 -16
-10 -15 -7 2 -12 -2 -11 -7 1 -6 -7 -22 -18 -35 -14 -18 -17 -19 -11 -5 6 11
10 25 10 30 -1 15 -36 37 -48 30 -18 -11 -10 37 11 72 15 24 27 33 40 30 10
-3 18 -2 17 2 -2 19 8 22 65 19 40 -2 62 -7 62 -15z"/>
<path fill="#ffffff" stroke="none" d="M120 98 c0 -16 -3 -19 -11 -11 -6 6 -8
16 -5 22 11 17 16 13 16 -11z"/>
<path fill="#ffffff" stroke="none" d="M175 69 c-10 -15 -25 -10 -19 6 4 8 10
12 15 9 5 -3 7 -10 4 -15z"/>
<path fill="#ffffff" stroke="none" d="M285 60 c-3 -5 -12 -10 -18 -10 -7 0
-6 4 3 10 19 12 23 12 15 0z"/>
<path fill="#ffffff" stroke="none" d="M85 50 c3 -5 2 -10 -4 -10 -5 0 -13 5
-16 10 -3 6 -2 10 4 10 5 0 13 -4 16 -10z"/>
<path fill="#ffffff" stroke="none" d="M190 51 c0 -5 -7 -12 -16 -15 -24 -9
-28 -7 -14 9 14 17 30 20 30 6z"/>
<path fill="#ffffff" stroke="none" d="M290 35 c-7 -8 -20 -15 -29 -15 -11 0
-8 5 9 14 33 19 35 19 20 1z"/>
<path fill="#ffffff" stroke="none" d="M75 20 c3 -5 1 -10 -4 -10 -6 0 -11 5
-11 10 0 6 2 10 4 10 3 0 8 -4 11 -10z"/>
<path fill="#ffffff" stroke="none" d="M200 20 c0 -5 -2 -10 -4 -10 -3 0 -8 5
-11 10 -3 6 -1 10 4 10 6 0 11 -4 11 -10z"/>
<path fill="#000000" stroke="none" d="M243 159 c-2 -23 3 -25 10 -4 4 8 3 16
-1 19 -4 3 -9 -4 -9 -15z"/>
</g>
</svg>
