<?xml version="1.0" standalone="no"?>
<!DOCTYPE svg PUBLIC "-//W3C//DTD SVG 20010904//EN"
 "http://www.w3.org/TR/2001/REC-SVG-20010904/DTD/svg10.dtd">
<svg version="1.0" xmlns="http://www.w3.org/2000/svg"
 width="32.000000pt" height="32.000000pt" viewBox="0 0 32.000000 32.000000"
 preserveAspectRatio="xMidYMid meet">
<metadata>
Created by potrace 1.16, written by Peter Selinger 2001-2019
</metadata>
<g transform="translate(0.000000,32.000000) scale(0.100000,-0.100000)"
fill="#000000" stroke="none">
<path fill="#000000" stroke="none" d="M207 292 c-10 -10 -17 -26 -17 -34 0
-16 -54 -68 -70 -68 -14 0 -32 29 -25 41 4 6 18 9 31 6 29 -5 32 13 6 36 -42
38 -89 10 -78 -45 4 -18 9 -56 11 -85 4 -48 2 -54 -26 -76 -28 -21 -28 -24 -9
-22 23 1 59 40 60 63 0 29 40 0 40 -30 0 -10 -11 -25 -25 -34 -14 -9 -25 -21
-25 -26 0 -6 6 -5 15 2 11 9 15 9 15 1 0 -31 34 21 54 82 3 9 17 22 31 27 32
12 23 32 -11 26 -48 -9 -55 4 -18 36 18 16 31 34 28 39 -3 5 -1 9 4 9 9 0 25
-63 27 -103 0 -10 6 -22 13 -26 9 -6 7 -12 -8 -26 -23 -21 -26 -34 -6 -31 22
3 46 27 46 45 0 9 -8 30 -18 46 -13 20 -16 37 -11 50 6 15 8 16 8 4 1 -19 31
-48 31 -30 0 6 -3 11 -7 11 -5 0 -8 20 -9 44 0 25 3 43 7 40 5 -3 5 -12 2 -21
-4 -10 -2 -14 4 -10 6 4 13 -6 17 -25 3 -17 9 -29 12 -26 2 3 0 26 -6 50 -8
32 -20 49 -40 61 -35 21 -33 21 -53 -1z"/>
<path fill="#ffffff" stroke="none" d="M248 255 c-3 -3 -9 2 -12 12 -6 14 -5
15 5 6 7 -7 10 -15 7 -18z"/>
<path fill="#ffffff" stroke="none" d="M190 227 c0 -2 -10 -12 -22 -23 l-23
-19 19 23 c18 21 26 27 26 19z"/>
</g>
</svg>
