<?xml version="1.0" standalone="no"?>
<!DOCTYPE svg PUBLIC "-//W3C//DTD SVG 20010904//EN"
 "http://www.w3.org/TR/2001/REC-SVG-20010904/DTD/svg10.dtd">
<svg version="1.0" xmlns="http://www.w3.org/2000/svg"
 width="32.000000pt" height="32.000000pt" viewBox="0 0 32.000000 32.000000"
 preserveAspectRatio="xMidYMid meet">
<metadata>
Created by potrace 1.16, written by Peter Selinger 2001-2019
</metadata>
<g transform="translate(0.000000,32.000000) scale(0.100000,-0.100000)"
fill="#000000" stroke="none">
<path fill="#000000" stroke="none" d="M0 160 l0 -160 160 0 160 0 0 160 0
160 -160 0 -160 0 0 -160z"/>
<path fill="#ffffff" stroke="none" d="M290 294 c0 -2 -9 -4 -21 -4 -11 0 -18
4 -14 10 5 8 35 3 35 -6z"/>
<path fill="#ffffff" stroke="none" d="M239 281 c4 -6 16 -9 27 -6 18 6 18 6
2 -8 -10 -8 -16 -17 -13 -20 3 -4 2 -5 -1 -2 -4 2 -18 -4 -32 -15 -13 -11 -28
-18 -32 -15 -5 3 -6 -5 -2 -17 5 -19 3 -21 -9 -11 -12 10 -14 7 -13 -15 0 -18
10 -32 29 -44 16 -9 32 -15 35 -13 4 2 7 -2 7 -9 0 -16 -49 -15 -54 1 -3 7
-10 10 -18 7 -8 -3 -11 -12 -8 -20 5 -15 -5 -18 -31 -8 -17 7 -10 34 9 34 8 0
17 4 20 10 3 6 -1 7 -10 4 -10 -4 -15 -2 -13 7 2 9 -4 13 -15 11 -19 -3 -64
24 -58 36 3 4 -4 9 -13 10 -11 2 -16 0 -12 -6 3 -6 3 -13 -2 -16 -11 -7 -13
34 -2 54 6 11 5 21 -1 27 -8 8 -7 13 0 18 6 3 10 1 9 -5 -2 -7 21 -26 51 -43
30 -17 52 -26 48 -20 -4 6 -4 25 -1 42 5 24 14 33 38 39 38 11 55 9 65 -7z"/>
<path fill="#ffffff" stroke="none" d="M125 140 c-3 -5 -14 -10 -23 -9 -14 0
-13 2 3 9 27 11 27 11 20 0z"/>
<path fill="#ffffff" stroke="none" d="M96 85 c-4 -14 -2 -25 4 -25 5 0 10 -5
10 -11 0 -5 -5 -7 -11 -3 -6 3 -15 0 -20 -7 -7 -12 -9 -12 -9 0 0 11 -3 11
-15 1 -9 -7 -15 -8 -15 -2 0 5 11 17 25 26 14 9 25 23 25 31 0 8 3 15 6 15 3
0 3 -11 0 -25z"/>
<path fill="#ffffff" stroke="none" d="M190 69 c0 -11 -4 -18 -8 -15 -5 3 -9
-1 -9 -8 0 -9 7 -12 16 -9 12 5 13 3 4 -7 -6 -7 -16 -9 -22 -6 -14 9 -14 56 0
56 5 0 7 5 3 12 -4 7 -3 8 4 4 7 -4 12 -16 12 -27z"/>
<path fill="#ffffff" stroke="none" d="M224 72 c3 -5 -1 -9 -9 -9 -8 0 -15 4
-15 9 0 10 17 10 24 0z"/>
<path fill="#000000" stroke="none" d="M210 277 c-16 -12 -20 -31 -9 -41 3 -4
12 1 20 11 9 11 10 14 2 9 -7 -4 -13 -3 -13 3 0 5 6 11 13 14 6 2 10 7 7 10
-3 3 -12 0 -20 -6z"/>
</g>
</svg>
