<?xml version="1.0" standalone="no"?>
<!DOCTYPE svg PUBLIC "-//W3C//DTD SVG 20010904//EN"
 "http://www.w3.org/TR/2001/REC-SVG-20010904/DTD/svg10.dtd">
<svg version="1.0" xmlns="http://www.w3.org/2000/svg"
 width="32.000000pt" height="32.000000pt" viewBox="0 0 32.000000 32.000000"
 preserveAspectRatio="xMidYMid meet">
<metadata>
Created by potrace 1.16, written by Peter Selinger 2001-2019
</metadata>
<g transform="translate(0.000000,32.000000) scale(0.100000,-0.100000)"
fill="#000000" stroke="none">
<path fill="#000000" stroke="none" d="M265 270 c-11 -5 -32 -9 -46 -9 -32 -1
-63 -34 -57 -59 5 -17 0 -19 -48 -18 -76 1 -109 -25 -109 -85 1 -41 3 -44 30
-47 17 -2 33 -9 37 -15 5 -8 8 -6 8 5 0 9 5 20 10 23 6 4 10 3 9 -2 -5 -26 4
-33 41 -33 26 0 40 -5 40 -13 0 -7 9 -13 20 -14 11 -1 20 4 20 10 0 8 3 8 8 2
13 -18 33 -16 59 5 19 15 22 20 9 20 -14 0 -15 2 -4 14 7 8 16 12 21 9 4 -2 7
25 7 61 0 55 -2 64 -16 59 -8 -3 -31 3 -50 13 l-35 19 43 10 c32 8 43 16 43
30 0 22 -13 27 -40 15z"/>
<path fill="#ffffff" stroke="none" d="M200 235 c-10 -12 -10 -18 0 -30 9 -11
10 -19 3 -26 -8 -8 -11 -6 -10 7 1 11 -3 18 -10 17 -16 -3 -10 27 8 38 20 13
23 11 9 -6z"/>
<path fill="#ffffff" stroke="none" d="M188 165 c29 -1 55 -5 59 -9 4 -4 -1
-4 -12 0 -17 7 -18 6 -7 -8 9 -12 10 -18 2 -23 -6 -4 -17 1 -24 10 -6 9 -16
15 -21 14 -18 -3 -75 13 -82 24 -4 7 0 8 13 2 10 -4 43 -9 72 -10z"/>
<path fill="#ffffff" stroke="none" d="M91 153 c11 -15 11 -16 -1 -5 -8 6 -21
12 -29 12 -14 0 -14 -1 -1 -10 13 -9 13 -10 0 -11 -8 -1 -19 -1 -24 0 -5 1
-13 -4 -17 -11 -6 -9 -9 -9 -9 -1 0 13 38 43 56 43 6 0 18 -8 25 -17z"/>
<path fill="#ffffff" stroke="none" d="M188 137 c6 3 12 0 12 -7 0 -6 -4 -9
-9 -6 -5 4 -12 0 -14 -6 -4 -10 -8 -9 -16 2 -6 8 -11 11 -11 7 0 -5 -5 -5 -10
-2 -17 11 0 26 18 16 9 -4 23 -6 30 -4z"/>
<path fill="#ffffff" stroke="none" d="M95 120 c-3 -5 -12 -10 -18 -10 -7 0
-6 4 3 10 19 12 23 12 15 0z"/>
<path fill="#ffffff" stroke="none" d="M280 96 c-13 -13 -35 7 -25 24 5 8 11
8 21 -1 10 -8 12 -15 4 -23z"/>
<path fill="#ffffff" stroke="none" d="M240 54 c0 -23 -19 -25 -30 -4 -14 26
-4 45 16 29 8 -6 14 -17 14 -25z"/>
</g>
</svg>
