<?xml version="1.0" standalone="no"?>
<!DOCTYPE svg PUBLIC "-//W3C//DTD SVG 20010904//EN"
 "http://www.w3.org/TR/2001/REC-SVG-20010904/DTD/svg10.dtd">
<svg version="1.0" xmlns="http://www.w3.org/2000/svg"
 width="32.000000pt" height="32.000000pt" viewBox="0 0 32.000000 32.000000"
 preserveAspectRatio="xMidYMid meet">
<metadata>
Created by potrace 1.16, written by Peter Selinger 2001-2019
</metadata>
<g transform="translate(0.000000,32.000000) scale(0.100000,-0.100000)"
fill="#000000" stroke="none">
<path fill="#000000" stroke="none" d="M0 160 l0 -160 160 0 160 0 0 160 0
160 -160 0 -160 0 0 -160z"/>
<path fill="#ffffff" stroke="none" d="M238 254 c37 -25 64 -88 52 -120 -6
-15 -7 -31 -2 -38 5 -6 12 -23 16 -38 5 -23 2 -27 -26 -37 -35 -12 -81 -14
-91 -4 -4 3 -1 13 6 21 10 13 9 14 -10 4 -34 -19 -41 -13 -13 10 24 20 24 20
3 14 -18 -6 -22 -4 -17 8 3 9 11 13 18 10 6 -3 -2 7 -19 22 l-30 27 -5 -29
c-4 -19 -8 -25 -13 -16 -5 6 -5 18 -1 25 6 9 3 8 -8 -1 -9 -8 -14 -20 -11 -28
3 -8 2 -14 -3 -13 -23 4 -26 -2 -8 -17 19 -15 19 -15 -2 -9 -14 3 -21 1 -21
-9 0 -9 4 -13 8 -10 4 2 10 0 14 -6 4 -6 -6 -10 -24 -10 -33 0 -39 8 -19 28 9
9 8 16 -4 29 -21 23 -22 107 -2 145 8 15 24 34 36 42 31 22 145 22 176 0z"/>
<path fill="#000000" stroke="none" d="M23 114 c-9 -23 11 -38 26 -20 13 16 7
36 -10 36 -5 0 -12 -7 -16 -16z"/>
<path fill="#000000" stroke="none" d="M202 118 c-16 -16 -15 -25 3 -32 18 -6
45 2 45 15 0 16 -36 29 -48 17z"/>
</g>
</svg>
