<?xml version="1.0" standalone="no"?>
<!DOCTYPE svg PUBLIC "-//W3C//DTD SVG 20010904//EN"
 "http://www.w3.org/TR/2001/REC-SVG-20010904/DTD/svg10.dtd">
<svg version="1.0" xmlns="http://www.w3.org/2000/svg"
 width="32.000000pt" height="32.000000pt" viewBox="0 0 32.000000 32.000000"
 preserveAspectRatio="xMidYMid meet">
<metadata>
Created by potrace 1.16, written by Peter Selinger 2001-2019
</metadata>
<g transform="translate(0.000000,32.000000) scale(0.100000,-0.100000)"
fill="#000000" stroke="none">
<path fill="#000000" stroke="none" d="M0 160 l0 -160 160 0 160 0 0 160 0
160 -160 0 -160 0 0 -160z"/>
<path fill="#ffffff" stroke="none" d="M98 263 c12 9 16 9 19 0 3 -7 17 -10
36 -7 58 9 110 -9 134 -45 28 -41 29 -70 5 -136 -15 -42 -22 -51 -46 -53 -25
-3 -27 -1 -21 20 4 13 9 30 11 40 6 21 -6 29 -34 21 -13 -3 -25 -16 -28 -32
-9 -35 -23 -51 -45 -51 -21 0 -24 10 -10 25 6 6 3 25 -8 50 l-18 40 -16 -40
c-24 -58 -32 -70 -51 -73 -14 -3 -16 3 -10 40 9 58 21 78 47 79 17 1 18 2 5 6
-10 2 -18 9 -18 14 0 6 -4 7 -10 4 -17 -10 -11 54 6 81 12 17 20 22 27 15 7
-7 15 -7 25 2z"/>
<path fill="#000000" stroke="none" d="M122 190 c-16 -21 -18 -28 -7 -24 16 7
40 43 33 50 -3 2 -14 -10 -26 -26z"/>
<path fill="#000000" stroke="none" d="M251 144 c0 -11 3 -14 6 -6 3 7 2 16
-1 19 -3 4 -6 -2 -5 -13z"/>
<path fill="#000000" stroke="none" d="M135 89 c-4 -6 -5 -12 -2 -15 2 -3 7 2
10 11 7 17 1 20 -8 4z"/>
</g>
</svg>
