<?xml version="1.0" standalone="no"?>
<!DOCTYPE svg PUBLIC "-//W3C//DTD SVG 20010904//EN"
 "http://www.w3.org/TR/2001/REC-SVG-20010904/DTD/svg10.dtd">
<svg version="1.0" xmlns="http://www.w3.org/2000/svg"
 width="32.000000pt" height="32.000000pt" viewBox="0 0 32.000000 32.000000"
 preserveAspectRatio="xMidYMid meet">
<metadata>
Created by potrace 1.16, written by Peter Selinger 2001-2019
</metadata>
<g transform="translate(0.000000,32.000000) scale(0.100000,-0.100000)"
fill="#000000" stroke="none">
<path fill="#000000" stroke="none" d="M60 291 c0 -15 18 -23 25 -11 3 5 12
10 18 10 7 0 6 -4 -3 -11 -12 -9 -12 -10 -1 -7 29 8 23 28 -8 28 -17 0 -31 -4
-31 -9z"/>
<path fill="#000000" stroke="none" d="M144 291 c5 -7 -5 -17 -26 -26 -18 -8
-27 -14 -20 -15 7 0 22 5 33 10 13 7 19 7 19 0 0 -5 4 -10 9 -10 14 0 7 43 -8
48 -8 3 -11 0 -7 -7z"/>
<path fill="#000000" stroke="none" d="M108 243 c-19 -5 -25 -33 -7 -33 5 0 8
3 6 8 -3 4 6 7 19 7 27 0 32 -13 9 -21 -8 -4 -15 -10 -15 -16 0 -5 4 -7 9 -4
5 4 22 1 37 -4 23 -9 25 -9 15 4 -26 31 9 24 45 -9 20 -19 43 -35 50 -35 17 0
27 17 15 24 -5 4 -13 1 -17 -5 -7 -12 -53 37 -54 57 0 16 -28 26 -35 14 -9
-15 -27 -12 -19 3 4 6 4 9 -1 5 -4 -4 -15 -4 -24 1 -9 4 -24 6 -33 4z"/>
<path fill="#000000" stroke="none" d="M34 168 c-4 -6 -3 -8 4 -4 5 3 13 0 15
-6 3 -8 6 -6 6 5 1 19 -14 23 -25 5z"/>
<path fill="#000000" stroke="none" d="M202 110 c-17 -28 -5 -52 20 -39 16 9
17 13 6 26 -7 9 -11 18 -10 20 2 3 2 6 0 8 -2 2 -9 -5 -16 -15z"/>
<path fill="#000000" stroke="none" d="M84 96 c-4 -11 -2 -21 7 -27 31 -19 38
-5 15 27 -14 18 -15 18 -22 0z"/>
<path fill="#000000" stroke="none" d="M98 13 c7 -3 16 -2 19 1 4 3 -2 6 -13
5 -11 0 -14 -3 -6 -6z"/>
<path fill="#000000" stroke="none" d="M258 13 c7 -3 16 -2 19 1 4 3 -2 6 -13
5 -11 0 -14 -3 -6 -6z"/>
</g>
</svg>
