<?xml version="1.0" standalone="no"?>
<!DOCTYPE svg PUBLIC "-//W3C//DTD SVG 20010904//EN"
 "http://www.w3.org/TR/2001/REC-SVG-20010904/DTD/svg10.dtd">
<svg version="1.0" xmlns="http://www.w3.org/2000/svg"
 width="32.000000pt" height="32.000000pt" viewBox="0 0 32.000000 32.000000"
 preserveAspectRatio="xMidYMid meet">
<metadata>
Created by potrace 1.16, written by Peter Selinger 2001-2019
</metadata>
<g transform="translate(0.000000,32.000000) scale(0.100000,-0.100000)"
fill="#000000" stroke="none">
<path fill="#000000" stroke="none" d="M113 294 c-19 -14 -20 -18 -7 -42 12
-24 11 -29 -12 -53 -17 -18 -35 -27 -53 -26 -20 2 -26 -3 -26 -18 0 -26 38
-32 71 -10 14 9 28 14 31 11 5 -5 -21 -86 -38 -119 -13 -25 13 -33 61 -18 31
9 44 9 59 -1 16 -10 26 -8 56 8 46 24 59 39 51 60 -5 12 -14 15 -39 10 -29 -5
-35 -3 -45 19 -16 34 -15 68 1 62 6 -2 12 -17 12 -33 0 -22 5 -29 20 -29 15 0
21 8 23 28 3 23 -5 37 -37 67 -24 23 -36 42 -30 46 16 9 -30 54 -55 53 -12 0
-31 -7 -43 -15z"/>
<path fill="#ffffff" stroke="none" d="M195 280 c10 -11 13 -20 7 -20 -20 0
-13 -28 8 -35 45 -14 83 -105 44 -105 -12 0 -15 6 -10 24 6 26 -15 52 -34 41
-14 -9 -12 -32 10 -99 24 -71 24 -66 2 -66 -13 0 -21 11 -28 38 -12 50 -44 52
-60 2 -8 -24 -19 -36 -33 -38 -19 -3 -21 -1 -12 15 5 10 17 40 26 66 21 58 10
79 -26 53 -31 -21 -69 -21 -69 0 0 12 6 15 23 10 18 -4 31 2 55 27 28 29 30
34 19 57 -11 21 -11 27 2 37 24 18 56 15 76 -7z"/>
<path fill="#ffffff" stroke="none" d="M180 80 c0 -5 -2 -10 -4 -10 -2 0 -12
-3 -20 -6 -12 -5 -15 -2 -10 10 7 17 34 22 34 6z"/>
</g>
</svg>
