<?xml version="1.0" standalone="no"?>
<!DOCTYPE svg PUBLIC "-//W3C//DTD SVG 20010904//EN"
 "http://www.w3.org/TR/2001/REC-SVG-20010904/DTD/svg10.dtd">
<svg version="1.0" xmlns="http://www.w3.org/2000/svg"
 width="32.000000pt" height="32.000000pt" viewBox="0 0 32.000000 32.000000"
 preserveAspectRatio="xMidYMid meet">
<metadata>
Created by potrace 1.16, written by Peter Selinger 2001-2019
</metadata>
<g transform="translate(0.000000,32.000000) scale(0.100000,-0.100000)"
fill="#000000" stroke="none">
<path fill="#000000" stroke="none" d="M75 280 c-20 -3 -31 -13 -36 -30 -6
-21 -14 -11 -10 12 0 4 -6 5 -15 1 -12 -4 -14 -14 -9 -37 3 -17 9 -73 12 -123
l5 -93 51 -2 c108 -4 212 4 227 18 9 8 16 33 18 61 2 52 -15 174 -26 185 -9 8
-179 15 -217 8z"/>
</g>
</svg>
