<?xml version="1.0" standalone="no"?>
<!DOCTYPE svg PUBLIC "-//W3C//DTD SVG 20010904//EN"
 "http://www.w3.org/TR/2001/REC-SVG-20010904/DTD/svg10.dtd">
<svg version="1.0" xmlns="http://www.w3.org/2000/svg"
 width="32.000000pt" height="32.000000pt" viewBox="0 0 32.000000 32.000000"
 preserveAspectRatio="xMidYMid meet">
<metadata>
Created by potrace 1.16, written by Peter Selinger 2001-2019
</metadata>
<g transform="translate(0.000000,32.000000) scale(0.100000,-0.100000)"
fill="#000000" stroke="none">
<path fill="#000000" stroke="none" d="M30 264 c-23 -54 -24 -70 -5 -104 19
-33 19 -70 -1 -98 -15 -21 -15 -25 2 -43 15 -16 31 -19 117 -19 126 0 178 14
174 46 -2 13 -6 26 -9 30 -4 3 -2 14 4 23 12 20 2 95 -11 86 -5 -2 -11 9 -15
26 -3 17 -10 28 -15 24 -5 -3 -14 3 -20 12 -8 15 -12 16 -23 5 -10 -10 -10
-17 -1 -31 10 -16 9 -18 -8 -14 -10 3 -25 0 -33 -6 -14 -12 -40 13 -89 83 -26
38 -45 32 -67 -20z"/>
</g>
</svg>
