<?xml version="1.0" standalone="no"?>
<!DOCTYPE svg PUBLIC "-//W3C//DTD SVG 20010904//EN"
 "http://www.w3.org/TR/2001/REC-SVG-20010904/DTD/svg10.dtd">
<svg version="1.0" xmlns="http://www.w3.org/2000/svg"
 width="32.000000pt" height="32.000000pt" viewBox="0 0 32.000000 32.000000"
 preserveAspectRatio="xMidYMid meet">
<metadata>
Created by potrace 1.16, written by Peter Selinger 2001-2019
</metadata>
<g transform="translate(0.000000,32.000000) scale(0.100000,-0.100000)"
fill="#000000" stroke="none">
<path fill="#000000" stroke="none" d="M70 306 c0 -8 5 -16 11 -18 12 -4 -46
-68 -61 -68 -5 0 -11 8 -13 18 -3 9 -5 -40 -6 -110 l-1 -128 160 0 160 0 0
160 c0 100 -4 160 -10 160 -5 0 -10 -9 -10 -20 0 -16 -7 -20 -30 -20 -20 0
-30 -5 -30 -15 0 -23 -87 -17 -93 6 0 2 5 14 12 27 11 21 10 22 -39 22 -36 0
-50 -4 -50 -14z"/>
<path fill="#ffffff" stroke="none" d="M146 263 c13 -13 28 -23 35 -23 11 0 9
-16 -6 -52 -6 -15 -2 -18 22 -18 16 0 38 -7 50 -15 17 -12 23 -12 32 -1 6 7 7
17 3 21 -4 5 -1 5 6 1 11 -6 10 -12 -3 -29 -26 -37 -36 -67 -26 -84 11 -21 2
-53 -15 -53 -10 0 -13 7 -9 23 3 15 -4 31 -23 52 -15 17 -23 25 -19 18 5 -7 6
-17 3 -22 -4 -5 -2 -12 4 -16 12 -7 13 -35 2 -35 -11 0 -32 46 -32 70 0 22 -7
24 -29 11 -14 -9 -12 -47 4 -84 5 -11 3 -17 -7 -17 -16 0 -38 54 -38 94 0 24
-2 26 -20 16 -20 -11 -21 -19 -3 -68 9 -24 -14 -12 -25 13 -18 40 -14 62 14
84 16 12 24 27 21 36 -5 13 -10 12 -36 -3 -35 -20 -55 -8 -25 16 12 9 24 25
28 35 3 11 15 21 27 24 16 4 20 12 16 29 -5 26 2 23 49 -23z"/>
<path fill="#ffffff" stroke="none" d="M260 200 c0 -17 -7 -20 -40 -20 -38 0
-40 2 -30 20 7 13 21 20 40 20 23 0 30 -4 30 -20z"/>
</g>
</svg>
