<?xml version="1.0" standalone="no"?>
<!DOCTYPE svg PUBLIC "-//W3C//DTD SVG 20010904//EN"
 "http://www.w3.org/TR/2001/REC-SVG-20010904/DTD/svg10.dtd">
<svg version="1.0" xmlns="http://www.w3.org/2000/svg"
 width="32.000000pt" height="32.000000pt" viewBox="0 0 32.000000 32.000000"
 preserveAspectRatio="xMidYMid meet">
<metadata>
Created by potrace 1.16, written by Peter Selinger 2001-2019
</metadata>
<g transform="translate(0.000000,32.000000) scale(0.100000,-0.100000)"
fill="#000000" stroke="none">
<path fill="#000000" stroke="none" d="M85 280 c-3 -5 1 -13 10 -16 22 -9 29
1 11 15 -10 8 -16 9 -21 1z"/>
<path fill="#000000" stroke="none" d="M147 224 c-4 -4 -2 -12 3 -19 6 -8 4
-18 -8 -31 -26 -30 -28 -53 -3 -30 12 11 21 25 21 33 0 7 6 13 13 13 8 0 9 3
1 8 -6 4 -13 13 -15 20 -3 7 -8 10 -12 6z"/>
<path fill="#000000" stroke="none" d="M46 204 c-9 -24 -7 -36 4 -29 6 4 8 10
5 15 -3 4 0 10 7 12 8 3 9 6 1 11 -6 4 -14 0 -17 -9z"/>
<path fill="#000000" stroke="none" d="M10 166 c0 -9 5 -16 10 -16 6 0 10 4
10 9 0 6 -4 13 -10 16 -5 3 -10 -1 -10 -9z"/>
</g>
</svg>
