<?xml version="1.0" standalone="no"?>
<!DOCTYPE svg PUBLIC "-//W3C//DTD SVG 20010904//EN"
 "http://www.w3.org/TR/2001/REC-SVG-20010904/DTD/svg10.dtd">
<svg version="1.0" xmlns="http://www.w3.org/2000/svg"
 width="32.000000pt" height="32.000000pt" viewBox="0 0 32.000000 32.000000"
 preserveAspectRatio="xMidYMid meet">
<metadata>
Created by potrace 1.16, written by Peter Selinger 2001-2019
</metadata>
<g transform="translate(0.000000,32.000000) scale(0.100000,-0.100000)"
fill="#000000" stroke="none">
<path fill="#000000" stroke="none" d="M65 200 c-3 -6 -3 -20 0 -33 4 -14 3
-18 -3 -9 -7 10 -11 10 -22 -3 -16 -19 -2 -37 32 -41 13 -1 26 -3 31 -3 11 -1
9 -39 -3 -46 -12 -7 -13 -25 -2 -25 5 0 15 11 22 25 11 20 11 27 0 40 -11 13
-10 19 4 33 14 14 17 14 14 2 -2 -8 2 -14 7 -13 15 2 10 -64 -6 -83 -13 -16
-12 -16 8 -6 16 9 21 20 20 40 -2 23 2 27 26 27 21 1 26 -3 22 -16 -3 -9 1
-22 10 -29 10 -8 15 -9 15 -1 0 6 -4 11 -10 11 -5 0 -10 5 -10 11 0 6 7 9 14
6 10 -4 18 2 22 16 4 12 12 25 18 29 7 5 4 8 -7 8 -14 0 -16 4 -8 18 8 14 5
23 -11 36 -23 20 -36 15 -14 -6 21 -21 7 -33 -39 -33 -29 0 -41 5 -43 16 -5
28 -74 51 -87 29z"/>
<path fill="#ffffff" stroke="none" d="M105 170 c-10 -11 -21 -18 -23 -15 -3
3 3 12 14 20 27 20 30 18 9 -5z"/>
</g>
</svg>
