<?xml version="1.0" standalone="no"?>
<!DOCTYPE svg PUBLIC "-//W3C//DTD SVG 20010904//EN"
 "http://www.w3.org/TR/2001/REC-SVG-20010904/DTD/svg10.dtd">
<svg version="1.0" xmlns="http://www.w3.org/2000/svg"
 width="32.000000pt" height="32.000000pt" viewBox="0 0 32.000000 32.000000"
 preserveAspectRatio="xMidYMid meet">
<metadata>
Created by potrace 1.16, written by Peter Selinger 2001-2019
</metadata>
<g transform="translate(0.000000,32.000000) scale(0.100000,-0.100000)"
fill="#000000" stroke="none">
<path fill="#000000" stroke="none" d="M0 160 l0 -160 160 0 160 0 0 160 0
160 -160 0 -160 0 0 -160z"/>
<path fill="#ffffff" stroke="none" d="M145 270 c-9 -16 -18 -30 -21 -30 -2 0
2 14 11 30 9 17 18 30 21 30 2 0 -2 -13 -11 -30z"/>
<path fill="#ffffff" stroke="none" d="M310 281 c0 -6 -5 -13 -12 -17 -7 -4
-8 -3 -4 4 11 18 -14 14 -54 -8 -25 -14 -30 -19 -16 -20 11 0 17 -3 13 -6 -7
-7 -87 -14 -87 -8 0 3 28 18 63 34 63 31 97 38 97 21z"/>
</g>
</svg>
