<?xml version="1.0" standalone="no"?>
<!DOCTYPE svg PUBLIC "-//W3C//DTD SVG 20010904//EN"
 "http://www.w3.org/TR/2001/REC-SVG-20010904/DTD/svg10.dtd">
<svg version="1.0" xmlns="http://www.w3.org/2000/svg"
 width="32.000000pt" height="32.000000pt" viewBox="0 0 32.000000 32.000000"
 preserveAspectRatio="xMidYMid meet">
<metadata>
Created by potrace 1.16, written by Peter Selinger 2001-2019
</metadata>
<g transform="translate(0.000000,32.000000) scale(0.100000,-0.100000)"
fill="#000000" stroke="none">
<path fill="#000000" stroke="none" d="M0 160 l0 -160 160 0 160 0 0 160 0
160 -160 0 -160 0 0 -160z"/>
<path fill="#ffffff" stroke="none" d="M194 246 c18 -16 24 -26 17 -31 -8 -4
0 -20 24 -47 38 -41 42 -70 12 -76 -11 -2 -21 6 -27 24 -13 33 -23 26 -14 -10
3 -14 12 -26 19 -26 26 0 28 -23 4 -41 -30 -23 -55 -24 -67 -3 -8 14 -10 14
-21 0 -8 -9 -24 -16 -37 -16 -23 0 -31 10 -18 23 4 3 7 24 8 46 2 39 2 39 -21
24 -12 -8 -30 -13 -38 -9 -23 8 -18 35 8 45 12 5 30 18 40 28 16 18 16 22 2
33 -21 18 -19 27 13 43 39 21 63 19 96 -7z"/>
<path fill="#000000" stroke="none" d="M108 247 c-34 -13 -34 -18 -6 -43 16
-13 19 -14 10 -2 -9 11 -10 18 -2 23 10 6 12 5 14 -17 1 -16 31 -17 31 -1 0 6
4 15 9 20 5 5 6 3 2 -4 -5 -9 -2 -11 10 -6 11 4 13 8 6 11 -7 2 -12 10 -12 18
0 16 -23 17 -62 1z"/>
<path fill="#000000" stroke="none" d="M156 184 c-5 -13 -9 -14 -21 -4 -11 9
-15 9 -15 1 0 -21 32 -25 46 -6 8 10 14 14 14 8 0 -5 -9 -18 -20 -28 -11 -10
-17 -22 -13 -28 3 -6 1 -7 -6 -3 -6 4 -9 11 -6 15 2 5 -4 16 -14 25 -17 15
-19 15 -36 -4 -10 -11 -26 -20 -37 -20 -11 0 -18 -7 -18 -17 0 -15 2 -16 10
-3 7 11 10 11 10 2 0 -8 8 -5 22 8 12 11 26 19 32 17 12 -4 17 -37 5 -37 -5 0
-8 -12 -6 -27 2 -16 -1 -34 -7 -42 -8 -10 -6 -12 9 -10 15 3 20 12 20 35 0 25
4 31 20 29 11 -1 26 -3 33 -4 7 0 10 -6 7 -11 -4 -6 -11 -8 -16 -5 -5 4 -5 -3
0 -17 4 -13 17 -24 27 -26 14 -2 16 -1 6 6 -9 6 -12 21 -9 41 5 27 3 31 -10
27 -13 -5 -14 -4 -3 9 10 12 10 15 -1 15 -10 1 -8 5 4 15 25 18 47 9 47 -21 0
-15 6 -24 16 -24 14 0 15 2 3 17 -12 14 -12 16 1 9 8 -4 -4 11 -27 33 -46 45
-58 49 -67 25z"/>
</g>
</svg>
