<?xml version="1.0" standalone="no"?>
<!DOCTYPE svg PUBLIC "-//W3C//DTD SVG 20010904//EN"
 "http://www.w3.org/TR/2001/REC-SVG-20010904/DTD/svg10.dtd">
<svg version="1.0" xmlns="http://www.w3.org/2000/svg"
 width="32.000000pt" height="32.000000pt" viewBox="0 0 32.000000 32.000000"
 preserveAspectRatio="xMidYMid meet">
<metadata>
Created by potrace 1.16, written by Peter Selinger 2001-2019
</metadata>
<g transform="translate(0.000000,32.000000) scale(0.100000,-0.100000)"
fill="#000000" stroke="none">
<path fill="#000000" stroke="none" d="M0 293 c0 -37 10 -73 20 -73 15 0 73
64 61 68 -6 2 -11 10 -11 18 0 9 -11 14 -35 14 -32 0 -35 -3 -35 -27z"/>
<path fill="#000000" stroke="none" d="M161 303 c-14 -27 -14 -35 1 -44 23
-15 78 -11 78 6 0 10 10 15 30 15 23 0 30 4 30 20 0 18 -7 20 -65 20 -51 0
-66 -4 -74 -17z"/>
<path fill="#000000" stroke="none" d="M72 248 c-7 -7 -12 -17 -12 -22 0 -6 5
-3 11 8 9 15 13 16 20 5 6 -9 9 -10 9 -2 0 18 -15 24 -28 11z"/>
<path fill="#000000" stroke="none" d="M140 239 c0 -5 5 -7 10 -4 6 3 10 -1
10 -10 0 -9 5 -13 10 -10 8 5 7 11 -1 21 -14 17 -29 18 -29 3z"/>
<path fill="#000000" stroke="none" d="M190 200 c-10 -18 -8 -20 30 -20 33 0
40 3 40 20 0 16 -7 20 -30 20 -19 0 -33 -7 -40 -20z"/>
</g>
</svg>
