<?xml version="1.0" standalone="no"?>
<!DOCTYPE svg PUBLIC "-//W3C//DTD SVG 20010904//EN"
 "http://www.w3.org/TR/2001/REC-SVG-20010904/DTD/svg10.dtd">
<svg version="1.0" xmlns="http://www.w3.org/2000/svg"
 width="32.000000pt" height="32.000000pt" viewBox="0 0 32.000000 32.000000"
 preserveAspectRatio="xMidYMid meet">
<metadata>
Created by potrace 1.16, written by Peter Selinger 2001-2019
</metadata>
<g transform="translate(0.000000,32.000000) scale(0.100000,-0.100000)"
fill="#000000" stroke="none">
<path fill="#000000" stroke="none" d="M132 290 l-33 -20 21 -30 c13 -18 20
-42 18 -62 -1 -29 -6 -33 -30 -35 -24 -2 -52 -16 -97 -49 -1 -2 0 -7 4 -13 4
-7 15 -5 33 5 25 15 25 15 8 0 -27 -22 -4 -20 34 2 23 14 27 21 18 30 -9 9 -9
12 -1 12 7 0 21 -14 33 -30 12 -17 17 -30 11 -30 -6 0 -11 -4 -11 -8 0 -5 7
-9 15 -9 20 0 19 36 -2 59 -15 16 -15 18 -1 13 9 -4 19 -1 24 6 5 8 3 10 -6 4
-9 -6 -11 -4 -6 4 5 7 14 10 21 7 8 -3 19 2 25 10 17 19 56 18 64 -3 4 -11 -4
-28 -25 -49 -31 -32 -32 -34 -15 -59 9 -14 19 -25 21 -25 3 0 -2 11 -11 25 -9
14 -12 25 -7 25 5 0 15 11 21 24 6 13 20 27 32 31 18 6 19 9 8 23 -11 13 -11
14 0 8 11 -7 11 -4 0 13 -17 28 -47 35 -83 20 -17 -7 -34 -11 -38 -10 -5 1 -6
-3 -3 -8 3 -5 -1 -11 -8 -14 -10 -4 -14 0 -11 11 1 10 -3 34 -10 55 -12 36
-12 37 9 31 47 -15 49 -14 11 6 -22 11 -32 18 -22 16 9 -3 17 -2 17 2 0 5 12
13 28 19 l27 11 -25 1 c-14 0 -40 -8 -58 -19z"/>
<path fill="#000000" stroke="none" d="M35 256 c-32 -32 -33 -56 -1 -56 32 0
42 17 16 25 -17 5 -19 9 -9 21 6 8 17 13 23 12 14 -4 21 15 7 20 -6 2 -22 -8
-36 -22z"/>
<path fill="#000000" stroke="none" d="M104 68 l-19 -23 23 19 c21 18 27 26
19 26 -2 0 -12 -10 -23 -22z"/>
</g>
</svg>
