<?xml version="1.0" standalone="no"?>
<!DOCTYPE svg PUBLIC "-//W3C//DTD SVG 20010904//EN"
 "http://www.w3.org/TR/2001/REC-SVG-20010904/DTD/svg10.dtd">
<svg version="1.0" xmlns="http://www.w3.org/2000/svg"
 width="32.000000pt" height="32.000000pt" viewBox="0 0 32.000000 32.000000"
 preserveAspectRatio="xMidYMid meet">
<metadata>
Created by potrace 1.16, written by Peter Selinger 2001-2019
</metadata>
<g transform="translate(0.000000,32.000000) scale(0.100000,-0.100000)"
fill="#000000" stroke="none">
<path fill="#000000" stroke="none" d="M72 297 c-12 -14 -5 -57 8 -57 5 0 11
6 13 13 4 10 6 10 6 0 1 -7 7 -13 15 -13 8 0 23 -11 34 -25 17 -21 21 -22 26
-9 9 24 7 36 -5 28 -6 -3 -24 6 -40 22 -29 28 -40 52 -16 37 6 -4 19 -8 27 -8
22 0 41 -15 35 -26 -4 -5 1 -9 9 -9 9 0 15 -5 14 -12 -2 -7 5 -12 15 -13 9 0
17 3 17 7 -1 19 -13 38 -25 38 -7 0 -18 7 -25 15 -7 9 -19 14 -27 11 -7 -3
-13 -2 -13 2 0 14 -57 13 -68 -1z"/>
<path fill="#000000" stroke="none" d="M45 260 c3 -5 8 -10 11 -10 2 0 4 5 4
10 0 6 -5 10 -11 10 -5 0 -7 -4 -4 -10z"/>
<path fill="#000000" stroke="none" d="M145 260 c3 -5 8 -10 11 -10 2 0 4 5 4
10 0 6 -5 10 -11 10 -5 0 -7 -4 -4 -10z"/>
<path fill="#000000" stroke="none" d="M266 231 c-3 -5 1 -14 9 -21 12 -10 15
-10 15 3 0 19 -16 31 -24 18z"/>
<path fill="#000000" stroke="none" d="M50 210 c-8 -5 -10 -10 -4 -10 7 0 15
-7 18 -16 5 -14 4 -15 -8 -4 -13 10 -15 7 -13 -18 1 -17 6 -27 12 -24 6 4 19
5 29 3 13 -2 17 2 14 11 -4 9 1 14 13 15 19 2 22 -16 4 -29 -5 -4 -21 -8 -35
-9 l-25 -1 25 -8 c14 -4 18 -9 10 -9 -13 -1 -13 -3 -1 -10 8 -5 24 -6 37 -1
12 5 25 6 30 2 4 -4 4 -2 0 5 -4 7 -13 10 -20 7 -8 -3 -17 -1 -21 5 -3 7 2 11
13 11 16 0 19 5 15 23 -5 22 -5 22 11 2 17 -20 17 -20 7 2 -8 15 -18 20 -36
19 -14 -2 -25 1 -25 7 0 6 -3 7 -7 4 -9 -9 -34 13 -27 24 7 11 3 11 -16 -1z"/>
<path fill="#000000" stroke="none" d="M203 185 c4 -22 0 -36 -16 -55 -12 -13
-14 -19 -5 -12 14 11 18 10 29 -10 11 -20 11 -22 -3 -10 -19 15 -31 3 -18 -18
7 -12 12 -11 29 4 11 10 17 24 14 32 -3 8 1 14 9 14 17 0 22 67 5 77 -6 4 -8
0 -4 -10 8 -22 -7 -22 -29 0 -16 17 -17 16 -11 -12z"/>
<path fill="#000000" stroke="none" d="M44 75 c-9 -21 -2 -26 13 -10 8 9 9 16
3 20 -6 3 -13 -1 -16 -10z"/>
<path fill="#000000" stroke="none" d="M120 46 c0 -2 7 -7 16 -10 8 -3 12 -2
9 4 -6 10 -25 14 -25 6z"/>
</g>
</svg>
