<?xml version="1.0" standalone="no"?>
<!DOCTYPE svg PUBLIC "-//W3C//DTD SVG 20010904//EN"
 "http://www.w3.org/TR/2001/REC-SVG-20010904/DTD/svg10.dtd">
<svg version="1.0" xmlns="http://www.w3.org/2000/svg"
 width="32.000000pt" height="32.000000pt" viewBox="0 0 32.000000 32.000000"
 preserveAspectRatio="xMidYMid meet">
<metadata>
Created by potrace 1.16, written by Peter Selinger 2001-2019
</metadata>
<g transform="translate(0.000000,32.000000) scale(0.100000,-0.100000)"
fill="#000000" stroke="none">
<path fill="#000000" stroke="none" d="M0 229 c0 -50 5 -99 10 -109 7 -13 7
-21 0 -25 -5 -3 -10 -26 -10 -51 0 -40 2 -44 24 -44 28 0 33 10 28 56 -4 30
-7 34 -26 29 -11 -3 -5 3 14 13 19 10 40 16 45 13 6 -3 13 -6 18 -7 4 -1 10
-3 15 -4 4 -1 14 -3 21 -4 8 0 22 -22 30 -49 12 -38 19 -47 37 -47 20 0 22 3
14 27 -5 16 -8 37 -8 48 1 11 1 35 0 53 -2 30 -5 33 -24 27 -23 -7 -23 -7 -3
9 11 8 16 16 11 16 -4 0 2 9 15 21 17 14 19 19 7 15 -12 -3 -15 -1 -11 9 3 9
-4 18 -18 24 -13 5 -21 10 -17 10 22 2 -31 41 -55 41 -35 0 -45 -25 -37 -91 6
-47 5 -50 -19 -56 -14 -3 -33 -11 -41 -17 -13 -10 -13 -9 -1 6 7 10 22 18 32
18 17 0 19 7 17 58 -3 69 10 92 56 92 25 0 43 -11 84 -53 29 -29 52 -58 52
-64 0 -6 11 -24 24 -40 13 -16 26 -42 29 -58 2 -17 5 27 6 98 l1 127 -160 0
-160 0 0 -91z"/>
<path fill="#ffffff" stroke="none" d="M138 223 c1 -15 -3 -21 -12 -17 -18 7
-31 -15 -17 -29 12 -12 15 -48 4 -46 -5 1 -10 0 -13 -1 -3 -1 -12 -3 -20 -5
-47 -12 -62 -14 -56 -8 4 4 12 8 19 9 50 8 81 34 57 49 -11 7 -14 58 -4 68 14
14 40 2 42 -20z"/>
<path fill="#000000" stroke="none" d="M100 230 c0 -5 7 -10 16 -10 8 0 12 5
9 10 -3 6 -10 10 -16 10 -5 0 -9 -4 -9 -10z"/>
<path fill="#000000" stroke="none" d="M218 188 c-3 -7 1 -19 9 -26 7 -8 10
-18 7 -24 -4 -7 -2 -8 4 -4 7 4 12 3 12 -2 0 -11 30 -25 38 -18 2 3 -7 19 -22
36 -14 17 -26 36 -26 41 0 13 -18 11 -22 -3z"/>
<path fill="#000000" stroke="none" d="M235 108 c1 -7 8 -12 15 -10 7 2 10 -3
7 -12 -5 -13 -1 -14 32 -7 2 1 -2 8 -9 16 -7 9 -19 14 -26 11 -7 -3 -15 -1
-18 5 -2 5 -3 4 -1 -3z"/>
<path fill="#000000" stroke="none" d="M67 93 c-13 -13 -7 -42 10 -45 16 -3
16 -4 0 -20 -24 -24 -21 -28 21 -27 20 0 32 3 26 5 -7 3 -10 14 -7 24 3 12 0
20 -7 20 -8 0 -10 9 -6 28 5 20 4 23 -4 12 -6 -10 -10 -11 -10 -2 0 13 -13 16
-23 5z"/>
<path fill="#000000" stroke="none" d="M133 70 c5 -31 17 -37 15 -7 -1 15 -6
27 -10 27 -4 0 -7 -9 -5 -20z"/>
</g>
</svg>
