<?xml version="1.0" standalone="no"?>
<!DOCTYPE svg PUBLIC "-//W3C//DTD SVG 20010904//EN"
 "http://www.w3.org/TR/2001/REC-SVG-20010904/DTD/svg10.dtd">
<svg version="1.0" xmlns="http://www.w3.org/2000/svg"
 width="32.000000pt" height="32.000000pt" viewBox="0 0 32.000000 32.000000"
 preserveAspectRatio="xMidYMid meet">
<metadata>
Created by potrace 1.16, written by Peter Selinger 2001-2019
</metadata>
<g transform="translate(0.000000,32.000000) scale(0.100000,-0.100000)"
fill="#000000" stroke="none">
<path fill="#000000" stroke="none" d="M232 290 c5 -32 -1 -37 -19 -19 -7 7
-17 8 -25 3 -7 -5 -25 -7 -41 -5 -17 1 -29 -3 -33 -13 -3 -9 -14 -16 -24 -16
-19 0 -30 -19 -30 -49 0 -10 -9 -26 -21 -37 -16 -15 -20 -27 -16 -55 3 -21 -1
-43 -9 -54 -17 -23 -18 -35 -3 -35 5 0 8 4 5 9 -3 4 1 16 8 26 12 17 13 17 19
1 5 -11 3 -15 -4 -10 -7 4 -10 1 -7 -6 5 -15 58 -23 58 -9 0 5 5 9 11 9 5 0 8
-4 5 -8 -3 -5 1 -9 9 -9 8 0 12 4 9 8 -6 10 17 59 27 59 16 0 19 -19 4 -33
-34 -34 -13 -47 35 -22 17 9 30 11 30 5 0 -22 22 -8 32 21 6 19 13 26 18 20 5
-8 14 -6 31 8 17 14 20 20 9 21 -11 0 -12 2 -3 8 9 6 11 30 6 92 -7 89 -23
120 -64 120 -18 0 -21 -5 -17 -30z"/>
<path fill="#ffffff" stroke="none" d="M115 150 c3 -5 3 -10 -2 -11 -42 -4
-54 -6 -59 -11 -3 -3 13 -5 35 -4 23 1 41 -1 41 -6 0 -4 -11 -8 -24 -8 -28 0
-53 -24 -36 -35 7 -4 17 -2 23 4 6 6 16 11 21 11 6 -1 0 -10 -13 -20 -28 -24
-56 -27 -47 -5 3 8 0 15 -6 15 -7 0 -3 7 8 15 18 14 18 14 -3 8 -18 -4 -23 -1
-23 15 0 33 68 59 85 32z"/>
<path fill="#ffffff" stroke="none" d="M255 122 c0 -18 -20 -15 -23 4 -3 10 1
15 10 12 7 -3 13 -10 13 -16z"/>
</g>
</svg>
