<?xml version="1.0" standalone="no"?>
<!DOCTYPE svg PUBLIC "-//W3C//DTD SVG 20010904//EN"
 "http://www.w3.org/TR/2001/REC-SVG-20010904/DTD/svg10.dtd">
<svg version="1.0" xmlns="http://www.w3.org/2000/svg"
 width="32.000000pt" height="32.000000pt" viewBox="0 0 32.000000 32.000000"
 preserveAspectRatio="xMidYMid meet">
<metadata>
Created by potrace 1.16, written by Peter Selinger 2001-2019
</metadata>
<g transform="translate(0.000000,32.000000) scale(0.100000,-0.100000)"
fill="#000000" stroke="none">
<path fill="#000000" stroke="none" d="M108 303 c-9 -10 -19 -28 -22 -40 -4
-11 -17 -28 -31 -37 -23 -15 -55 -99 -55 -144 0 -20 25 -37 40 -27 4 2 7 -7 7
-21 0 -17 -4 -24 -13 -20 -8 3 -14 1 -14 -4 0 -6 59 -10 149 -9 l149 1 0 82
c1 44 -1 89 -4 98 -3 9 -26 31 -52 48 -26 16 -54 43 -63 58 -19 34 -67 42 -91
15z"/>
<path fill="#ffffff" stroke="none" d="M147 18 c-3 -8 -6 -5 -6 6 -1 11 2 17
5 13 3 -3 4 -12 1 -19z"/>
</g>
</svg>
