<?xml version="1.0" standalone="no"?>
<!DOCTYPE svg PUBLIC "-//W3C//DTD SVG 20010904//EN"
 "http://www.w3.org/TR/2001/REC-SVG-20010904/DTD/svg10.dtd">
<svg version="1.0" xmlns="http://www.w3.org/2000/svg"
 width="32.000000pt" height="32.000000pt" viewBox="0 0 32.000000 32.000000"
 preserveAspectRatio="xMidYMid meet">
<metadata>
Created by potrace 1.16, written by Peter Selinger 2001-2019
</metadata>
<g transform="translate(0.000000,32.000000) scale(0.100000,-0.100000)"
fill="#000000" stroke="none">
<path fill="#000000" stroke="none" d="M0 245 c0 -49 4 -74 10 -70 11 7 8 -30
-3 -41 -11 -11 -8 -134 3 -134 6 0 10 25 10 56 0 30 4 53 9 50 5 -3 14 1 21 9
9 11 9 15 1 15 -7 0 -9 5 -6 10 4 6 1 9 -6 8 -8 -2 -13 21 -16 75 l-5 77 31 1
c59 3 69 4 76 10 3 4 -24 7 -60 8 l-65 1 0 -75z"/>
<path fill="#000000" stroke="none" d="M159 307 c6 -6 38 -9 71 -8 55 2 60 1
60 -18 0 -18 -3 -19 -25 -11 -13 5 -27 5 -30 1 -5 -10 11 -25 37 -34 19 -7 45
-110 28 -115 -5 -2 -10 -11 -10 -20 0 -15 2 -15 10 -2 8 13 10 12 10 -2 0 -10
-5 -18 -10 -18 -6 0 -5 -8 2 -20 10 -15 10 -22 0 -32 -16 -16 -15 -28 3 -28
13 0 15 25 15 161 l0 160 -86 -2 c-59 -1 -82 -5 -75 -12z"/>
<path fill="#000000" stroke="none" d="M105 280 c3 -5 12 -10 20 -10 8 0 17 5
20 10 4 6 -5 10 -20 10 -15 0 -24 -4 -20 -10z"/>
<path fill="#000000" stroke="none" d="M95 251 c-3 -5 0 -13 6 -17 7 -4 9 -3
5 4 -3 6 2 13 11 15 16 4 16 5 1 6 -9 0 -19 -3 -23 -8z"/>
<path fill="#000000" stroke="none" d="M190 246 c0 -2 7 -7 16 -10 8 -3 12 -2
9 4 -6 10 -25 14 -25 6z"/>
<path fill="#000000" stroke="none" d="M161 216 c-9 -10 -9 -16 -1 -21 13 -8
42 14 34 26 -8 13 -20 11 -33 -5z"/>
<path fill="#000000" stroke="none" d="M73 204 c-7 -20 12 -41 22 -23 6 8 4
10 -5 4 -9 -5 -10 -2 -5 14 7 24 -3 29 -12 5z"/>
<path fill="#000000" stroke="none" d="M115 200 c4 -6 11 -8 16 -5 14 9 11 15
-7 15 -8 0 -12 -5 -9 -10z"/>
<path fill="#000000" stroke="none" d="M243 179 c-2 -23 3 -25 10 -4 4 8 3 16
-1 19 -4 3 -9 -4 -9 -15z"/>
<path fill="#000000" stroke="none" d="M189 188 c-5 -18 -6 -38 -1 -34 7 8 12
36 6 36 -2 0 -4 -1 -5 -2z"/>
<path fill="#000000" stroke="none" d="M247 118 c7 -37 10 -44 19 -35 9 8 -6
67 -17 67 -4 0 -6 -15 -2 -32z"/>
<path fill="#000000" stroke="none" d="M86 85 c-18 -14 -16 -52 3 -41 6 4 23
57 17 56 0 0 -9 -7 -20 -15z"/>
<path fill="#000000" stroke="none" d="M197 87 c-3 -8 0 -21 8 -27 19 -15 27
3 11 25 -11 16 -14 16 -19 2z"/>
</g>
</svg>
