<?xml version="1.0" standalone="no"?>
<!DOCTYPE svg PUBLIC "-//W3C//DTD SVG 20010904//EN"
 "http://www.w3.org/TR/2001/REC-SVG-20010904/DTD/svg10.dtd">
<svg version="1.0" xmlns="http://www.w3.org/2000/svg"
 width="32.000000pt" height="32.000000pt" viewBox="0 0 32.000000 32.000000"
 preserveAspectRatio="xMidYMid meet">
<metadata>
Created by potrace 1.16, written by Peter Selinger 2001-2019
</metadata>
<g transform="translate(0.000000,32.000000) scale(0.100000,-0.100000)"
fill="#000000" stroke="none">
<path fill="#000000" stroke="none" d="M43 290 c-18 -11 -33 -27 -33 -37 0
-15 1 -15 14 2 14 20 53 14 40 -6 -5 -8 1 -10 20 -7 26 5 26 5 9 -16 -10 -11
-4 -9 13 7 17 15 33 25 36 21 4 -3 11 3 17 14 8 16 6 21 -15 31 -36 16 -65 14
-101 -9z"/>
<path fill="#ffffff" stroke="none" d="M114 292 c3 -5 -1 -9 -9 -9 -8 0 -12 4
-9 9 3 4 7 8 9 8 2 0 6 -4 9 -8z"/>
<path fill="#000000" stroke="none" d="M160 250 c0 -6 7 -18 15 -26 13 -14 15
-13 12 7 -4 24 -27 40 -27 19z"/>
<path fill="#000000" stroke="none" d="M259 258 c-1 -2 -3 -14 -4 -28 -4 -33
12 -60 33 -59 16 1 15 2 -1 6 -9 2 -15 9 -12 14 3 5 1 17 -5 28 -8 16 -6 22 7
30 17 10 17 10 1 11 -10 0 -19 -1 -19 -2z"/>
<path fill="#000000" stroke="none" d="M105 173 c-16 -20 -30 -42 -31 -50 -3
-20 17 -63 28 -63 5 0 6 5 3 10 -3 6 1 13 10 16 12 5 13 10 4 20 -6 8 -8 21
-5 30 5 13 9 14 21 4 7 -6 12 -17 10 -23 -7 -19 11 -41 28 -34 9 3 14 14 12
24 -2 10 -4 22 -4 27 -1 4 -7 6 -15 3 -21 -8 -42 19 -27 36 6 8 10 16 8 18 -1
2 2 1 8 -3 16 -14 28 -8 15 7 -18 22 -32 18 -65 -22z"/>
<path fill="#000000" stroke="none" d="M278 143 c7 -3 16 -2 19 1 4 3 -2 6
-13 5 -11 0 -14 -3 -6 -6z"/>
<path fill="#000000" stroke="none" d="M270 115 c7 -8 17 -15 22 -15 6 0 5 7
-2 15 -7 8 -17 15 -22 15 -6 0 -5 -7 2 -15z"/>
<path fill="#000000" stroke="none" d="M243 85 c10 -21 13 -22 19 -7 5 12 7
13 7 3 1 -8 4 -11 8 -7 5 4 -1 14 -11 22 -29 21 -36 17 -23 -11z"/>
<path fill="#000000" stroke="none" d="M34 66 c-19 -15 -19 -15 0 -12 11 2 22
8 24 14 5 16 0 15 -24 -2z"/>
<path fill="#000000" stroke="none" d="M165 44 c-17 -27 -13 -46 7 -26 8 8 17
8 32 1 17 -9 17 -7 -3 9 -17 14 -20 21 -10 24 9 3 9 7 2 11 -6 4 -18 -5 -28
-19z"/>
<path fill="#000000" stroke="none" d="M115 20 c-3 -5 -2 -10 4 -10 5 0 13 5
16 10 3 6 2 10 -4 10 -5 0 -13 -4 -16 -10z"/>
</g>
</svg>
