<?xml version="1.0" standalone="no"?>
<!DOCTYPE svg PUBLIC "-//W3C//DTD SVG 20010904//EN"
 "http://www.w3.org/TR/2001/REC-SVG-20010904/DTD/svg10.dtd">
<svg version="1.0" xmlns="http://www.w3.org/2000/svg"
 width="32.000000pt" height="32.000000pt" viewBox="0 0 32.000000 32.000000"
 preserveAspectRatio="xMidYMid meet">
<metadata>
Created by potrace 1.16, written by Peter Selinger 2001-2019
</metadata>
<g transform="translate(0.000000,32.000000) scale(0.100000,-0.100000)"
fill="#000000" stroke="none">
<path fill="#000000" stroke="none" d="M0 160 l0 -160 50 0 50 0 0 37 c0 20 6
44 14 52 8 9 12 27 9 42 -4 23 -10 27 -36 25 -26 -1 -32 3 -32 19 0 14 7 20
22 20 28 0 54 34 42 56 -12 24 10 46 55 54 32 5 38 4 33 -9 -3 -8 -2 -18 3
-21 5 -3 7 -12 4 -20 -4 -8 9 -27 30 -46 43 -37 48 -69 12 -69 -18 0 -26 6
-28 22 -2 12 -9 23 -15 25 -9 3 -9 -5 2 -31 8 -19 15 -54 15 -76 0 -39 1 -40
37 -40 46 0 37 -9 -24 -26 l-48 -13 63 0 62 -1 0 160 0 160 -160 0 -160 0 0
-160z"/>
<path fill="#000000" stroke="none" d="M173 284 c-3 -9 2 -23 13 -32 17 -16
17 -16 5 1 -11 14 -11 20 -1 32 9 11 9 15 1 15 -6 0 -14 -7 -18 -16z"/>
<path fill="#000000" stroke="none" d="M139 262 c9 -32 -36 -86 -62 -76 -12 4
-17 1 -17 -10 0 -12 8 -15 34 -13 19 1 32 5 30 9 -2 4 0 9 5 13 12 7 12 -74 0
-98 -11 -19 -9 -20 15 -11 19 7 21 45 4 63 -11 10 -9 11 7 5 34 -12 35 -15 25
-35 -11 -20 -4 -24 19 -10 14 9 12 47 -4 85 -6 14 -4 17 11 14 10 -2 23 -13
29 -26 12 -27 25 -29 25 -3 0 21 -44 61 -66 61 -13 0 -40 38 -37 51 1 3 -4 6
-11 6 -9 0 -11 -8 -7 -25z"/>
<path fill="#000000" stroke="none" d="M174 55 c1 -17 7 -25 19 -25 16 0 16 2
1 25 -20 31 -22 31 -20 0z"/>
<path fill="#000000" stroke="none" d="M140 56 c0 -8 5 -18 10 -21 6 -3 10 3
10 14 0 12 -4 21 -10 21 -5 0 -10 -6 -10 -14z"/>
<path fill="#000000" stroke="none" d="M120 60 c-10 -30 -5 -50 13 -50 14 0
17 3 10 13 -6 6 -13 19 -16 27 -3 8 -6 13 -7 10z"/>
</g>
</svg>
