<?xml version="1.0" standalone="no"?>
<!DOCTYPE svg PUBLIC "-//W3C//DTD SVG 20010904//EN"
 "http://www.w3.org/TR/2001/REC-SVG-20010904/DTD/svg10.dtd">
<svg version="1.0" xmlns="http://www.w3.org/2000/svg"
 width="32.000000pt" height="32.000000pt" viewBox="0 0 32.000000 32.000000"
 preserveAspectRatio="xMidYMid meet">
<metadata>
Created by potrace 1.16, written by Peter Selinger 2001-2019
</metadata>
<g transform="translate(0.000000,32.000000) scale(0.100000,-0.100000)"
fill="#000000" stroke="none">
<path fill="#000000" stroke="none" d="M2 168 l3 -153 44 1 c55 1 81 30 80 89
l-1 40 -11 -35 -11 -35 -4 33 c-4 39 1 47 24 38 14 -5 16 -16 11 -59 -3 -28
-7 -56 -9 -62 -4 -13 3 -15 48 -15 31 0 35 3 32 23 -2 12 -9 21 -15 20 -7 -2
-10 4 -7 12 4 11 11 8 29 -13 18 -21 26 -24 36 -15 9 9 6 18 -13 42 -14 16
-29 27 -33 23 -5 -4 -5 1 -2 11 4 10 2 28 -5 40 -11 21 -10 21 8 7 18 -15 18
-14 1 10 -9 14 -31 49 -48 78 -27 45 -35 52 -63 52 -18 0 -37 -5 -44 -12 -14
-14 -16 -117 -2 -138 7 -11 8 -5 5 20 -5 31 -4 32 6 13 14 -26 4 -86 -16 -103
-8 -7 -15 -21 -15 -31 0 -10 -4 -20 -9 -23 -14 -9 0 37 17 56 10 12 12 26 7
45 -4 15 -9 54 -12 86 -6 72 11 97 67 97 33 0 38 -4 57 -42 11 -24 37 -63 57
-87 28 -34 34 -46 25 -57 -16 -19 -4 -44 22 -44 21 0 21 0 -2 20 -13 11 -17
18 -9 16 8 -2 27 -7 43 -10 l27 -6 0 110 0 110 -160 0 -161 0 3 -152z"/>
<path fill="#ffffff" stroke="none" d="M70 248 c0 -16 -3 -19 -11 -11 -6 6 -8
16 -5 22 11 17 16 13 16 -11z"/>
<path fill="#ffffff" stroke="none" d="M130 241 c0 -5 3 -18 7 -28 6 -16 5
-16 -10 -4 -19 15 -23 41 -7 41 6 0 10 -4 10 -9z"/>
<path fill="#ffffff" stroke="none" d="M118 171 c3 -8 -1 -12 -9 -9 -7 2 -15
10 -17 17 -3 8 1 12 9 9 7 -2 15 -10 17 -17z"/>
<path fill="#ffffff" stroke="none" d="M94 90 c5 -48 3 -60 -4 -47 -6 9 -17
17 -25 17 -12 0 -12 4 1 28 7 15 14 38 14 51 0 43 7 18 14 -49z"/>
<path fill="#000000" stroke="none" d="M300 15 c-10 -12 -10 -15 4 -15 9 0 16
7 16 15 0 8 -2 15 -4 15 -2 0 -9 -7 -16 -15z"/>
<path fill="#000000" stroke="none" d="M228 3 c6 -2 18 -2 25 0 6 3 1 5 -13 5
-14 0 -19 -2 -12 -5z"/>
</g>
</svg>
