<?xml version="1.0" standalone="no"?>
<!DOCTYPE svg PUBLIC "-//W3C//DTD SVG 20010904//EN"
 "http://www.w3.org/TR/2001/REC-SVG-20010904/DTD/svg10.dtd">
<svg version="1.0" xmlns="http://www.w3.org/2000/svg"
 width="32.000000pt" height="32.000000pt" viewBox="0 0 32.000000 32.000000"
 preserveAspectRatio="xMidYMid meet">
<metadata>
Created by potrace 1.16, written by Peter Selinger 2001-2019
</metadata>
<g transform="translate(0.000000,32.000000) scale(0.100000,-0.100000)"
fill="#000000" stroke="none">
<path fill="#000000" stroke="none" d="M0 160 l0 -160 160 0 160 0 0 160 0
160 -160 0 -160 0 0 -160z"/>
<path fill="#ffffff" stroke="none" d="M168 298 c27 -27 4 -52 -37 -41 -11 3
-19 9 -16 13 3 5 1 11 -5 15 -5 3 -10 10 -10 16 0 13 54 11 68 -3z"/>
<path fill="#ffffff" stroke="none" d="M230 270 c0 -5 7 -7 15 -4 9 4 15 0 15
-8 0 -8 11 -29 25 -48 30 -41 33 -76 6 -83 -14 -3 -21 2 -25 19 -4 13 -11 24
-16 24 -6 0 -10 9 -10 21 0 12 -5 19 -12 16 -12 -3 -13 -31 -5 -94 2 -12 9
-29 16 -37 12 -14 10 -16 -7 -16 -11 0 -27 10 -36 22 -16 23 -17 23 -11 1 3
-12 1 -24 -5 -28 -5 -3 -10 1 -10 9 0 23 -50 17 -51 -6 -1 -10 -2 -24 -3 -30
0 -7 -15 -13 -33 -14 -26 -1 -31 2 -22 12 6 7 8 22 5 32 -4 11 0 24 8 31 8 7
17 22 20 34 3 12 18 30 33 40 l28 18 -32 -6 c-26 -5 -32 -3 -38 14 -6 18 -8
19 -21 7 -19 -19 -18 -43 2 -54 33 -18 -4 -73 -40 -59 -11 5 -16 19 -16 51 0
25 4 47 9 51 5 3 12 19 16 35 6 27 37 60 57 60 5 0 6 -12 2 -27 -3 -16 -2 -23
3 -17 12 15 83 13 83 -3 0 -8 -14 -13 -37 -13 -30 -1 -34 -3 -21 -11 21 -12
63 -2 80 19 8 9 8 13 1 9 -7 -5 -11 4 -10 27 1 30 3 33 19 25 10 -5 18 -14 18
-19z"/>
<path fill="#ffffff" stroke="none" d="M257 120 c-3 -11 -1 -18 4 -14 5 3 18
7 30 9 16 3 20 0 17 -18 -4 -30 -43 -35 -58 -7 -6 12 -9 28 -6 36 8 21 19 17
13 -6z"/>
<path fill="#000000" stroke="none" d="M185 170 c-16 -7 -17 -9 -3 -9 9 -1 20
4 23 9 7 11 7 11 -20 0z"/>
<path fill="#000000" stroke="none" d="M201 134 c0 -11 3 -14 6 -6 3 7 2 16
-1 19 -3 4 -6 -2 -5 -13z"/>
</g>
</svg>
