<?xml version="1.0" standalone="no"?>
<!DOCTYPE svg PUBLIC "-//W3C//DTD SVG 20010904//EN"
 "http://www.w3.org/TR/2001/REC-SVG-20010904/DTD/svg10.dtd">
<svg version="1.0" xmlns="http://www.w3.org/2000/svg"
 width="32.000000pt" height="32.000000pt" viewBox="0 0 32.000000 32.000000"
 preserveAspectRatio="xMidYMid meet">
<metadata>
Created by potrace 1.16, written by Peter Selinger 2001-2019
</metadata>
<g transform="translate(0.000000,32.000000) scale(0.100000,-0.100000)"
fill="#000000" stroke="none">
<path fill="#000000" stroke="none" d="M100 301 c0 -6 5 -13 10 -16 6 -4 8
-10 5 -15 -3 -4 5 -10 16 -13 41 -11 64 14 37 41 -14 14 -68 16 -68 3z"/>
<path fill="#000000" stroke="none" d="M194 262 c-1 -20 1 -29 3 -20 3 10 10
15 19 11 11 -4 9 -9 -9 -23 -32 -25 -64 -33 -84 -21 -15 8 -11 10 20 11 23 0
37 5 37 13 0 16 -71 18 -83 3 -5 -6 -6 1 -3 17 4 15 3 27 -2 27 -14 0 -52 -31
-52 -43 0 -7 -7 -25 -15 -41 -14 -25 -14 -27 0 -16 11 9 15 9 15 1 0 -6 -7
-14 -15 -17 -21 -9 -20 -73 1 -81 36 -14 73 41 40 59 -20 11 -21 35 -2 54 13
12 15 11 21 -6 6 -17 12 -20 41 -14 22 4 34 2 34 -5 0 -7 8 -8 28 -1 24 9 25
9 9 -4 -15 -12 -17 -18 -7 -36 16 -29 25 -17 25 33 0 23 5 42 13 44 7 3 12 -4
12 -16 0 -12 4 -21 10 -21 5 0 12 -11 16 -25 3 -14 10 -22 15 -19 5 3 7 10 4
15 -3 5 1 6 9 3 25 -10 20 27 -9 66 -14 19 -25 40 -25 48 0 8 -6 12 -15 8 -8
-3 -15 -1 -15 4 0 5 -8 14 -18 19 -16 8 -18 5 -18 -27z"/>
<path fill="#ffffff" stroke="none" d="M207 128 c-3 -8 -6 -5 -6 6 -1 11 2 17
5 13 3 -3 4 -12 1 -19z"/>
<path fill="#000000" stroke="none" d="M118 156 c-19 -14 -25 -32 -8 -21 6 3
10 -1 10 -10 0 -9 -4 -14 -8 -11 -13 8 -47 -37 -43 -57 1 -10 -2 -24 -8 -31
-7 -9 -3 -12 19 -14 16 -1 32 3 36 9 5 9 0 10 -15 6 -18 -4 -20 -3 -10 9 6 7
16 11 21 7 7 -3 9 5 6 25 -3 23 -1 29 11 24 10 -4 12 -1 6 8 -6 10 -4 12 11 6
46 -18 56 0 21 38 -28 30 -26 30 -49 12z"/>
<path fill="#000000" stroke="none" d="M244 126 c-3 -8 0 -24 6 -36 15 -28 54
-23 58 7 3 18 -1 21 -17 18 -12 -2 -25 -6 -30 -9 -5 -4 -7 3 -4 14 6 23 -5 27
-13 6z"/>
</g>
</svg>
