<?xml version="1.0" standalone="no"?>
<!DOCTYPE svg PUBLIC "-//W3C//DTD SVG 20010904//EN"
 "http://www.w3.org/TR/2001/REC-SVG-20010904/DTD/svg10.dtd">
<svg version="1.0" xmlns="http://www.w3.org/2000/svg"
 width="32.000000pt" height="32.000000pt" viewBox="0 0 32.000000 32.000000"
 preserveAspectRatio="xMidYMid meet">
<metadata>
Created by potrace 1.16, written by Peter Selinger 2001-2019
</metadata>
<g transform="translate(0.000000,32.000000) scale(0.100000,-0.100000)"
fill="#000000" stroke="none">
<path fill="#000000" stroke="none" d="M1 304 c0 -11 3 -14 6 -6 3 7 2 16 -1
19 -3 4 -6 -2 -5 -13z"/>
<path fill="#000000" stroke="none" d="M20 298 c0 -6 3 -8 7 -5 3 4 14 0 24
-9 16 -15 17 -14 12 5 -6 22 -43 30 -43 9z"/>
<path fill="#000000" stroke="none" d="M165 300 c3 -5 8 -10 11 -10 2 0 4 5 4
10 0 6 -5 10 -11 10 -5 0 -7 -4 -4 -10z"/>
<path fill="#000000" stroke="none" d="M95 277 c24 -14 79 -17 66 -4 -6 6 -27
11 -48 13 -33 2 -35 1 -18 -9z"/>
<path fill="#000000" stroke="none" d="M230 274 c0 -17 22 -14 28 4 2 7 -3 12
-12 12 -9 0 -16 -7 -16 -16z"/>
<path fill="#000000" stroke="none" d="M166 237 c3 -10 9 -15 12 -12 3 3 0 11
-7 18 -10 9 -11 8 -5 -6z"/>
<path fill="#000000" stroke="none" d="M0 224 c0 -8 5 -12 10 -9 6 3 10 10 10
16 0 5 -4 9 -10 9 -5 0 -10 -7 -10 -16z"/>
<path fill="#000000" stroke="none" d="M93 234 c4 -7 0 -17 -8 -24 -8 -7 -15
-17 -15 -22 0 -5 10 0 22 12 18 17 20 22 8 33 -7 7 -10 7 -7 1z"/>
<path fill="#000000" stroke="none" d="M268 233 c7 -3 16 -2 19 1 4 3 -2 6
-13 5 -11 0 -14 -3 -6 -6z"/>
<path fill="#000000" stroke="none" d="M220 200 c6 -11 15 -20 20 -20 6 0 2 9
-7 20 -10 11 -19 20 -21 20 -1 0 2 -9 8 -20z"/>
<path fill="#000000" stroke="none" d="M288 193 c6 -2 18 -2 25 0 6 3 1 5 -13
5 -14 0 -19 -2 -12 -5z"/>
<path fill="#000000" stroke="none" d="M137 179 c7 -7 15 -10 18 -7 3 3 -2 9
-12 12 -14 6 -15 5 -6 -5z"/>
<path fill="#000000" stroke="none" d="M5 169 c-4 -6 -5 -12 -2 -15 2 -3 7 2
10 11 7 17 1 20 -8 4z"/>
<path fill="#000000" stroke="none" d="M43 165 c0 -8 4 -12 9 -9 5 3 6 10 3
15 -9 13 -12 11 -12 -6z"/>
<path fill="#000000" stroke="none" d="M165 159 c-4 -6 -5 -12 -2 -15 2 -3 7
2 10 11 7 17 1 20 -8 4z"/>
<path fill="#000000" stroke="none" d="M251 154 c0 -11 3 -14 6 -6 3 7 2 16
-1 19 -3 4 -6 -2 -5 -13z"/>
<path fill="#000000" stroke="none" d="M305 160 c3 -5 8 -10 11 -10 2 0 4 5 4
10 0 6 -5 10 -11 10 -5 0 -7 -4 -4 -10z"/>
<path fill="#000000" stroke="none" d="M0 116 c0 -14 4 -27 9 -31 12 -7 25 31
16 45 -11 18 -25 10 -25 -14z"/>
<path fill="#000000" stroke="none" d="M275 121 c4 -8 2 -17 -6 -22 -10 -6 -6
-9 13 -9 21 0 27 -5 31 -27 2 -17 4 -10 4 15 0 29 -4 41 -12 38 -7 -2 -18 1
-25 7 -10 9 -11 9 -5 -2z"/>
<path fill="#000000" stroke="none" d="M70 106 c14 -17 13 -18 -5 -13 -30 9
-65 -25 -65 -62 0 -25 4 -31 21 -31 22 0 56 16 77 36 10 11 9 15 -8 24 -16 9
-19 15 -11 24 8 10 7 17 -6 27 -17 13 -17 13 -3 -5z"/>
<path fill="#ffffff" stroke="none" d="M56 74 c-4 -11 1 -18 14 -21 16 -4 18
-9 9 -19 -15 -18 -36 -7 -42 21 -4 26 0 35 16 35 5 0 6 -7 3 -16z"/>
<path fill="#000000" stroke="none" d="M204 109 c-3 -6 -2 -15 3 -20 5 -5 9
-1 9 11 0 23 -2 24 -12 9z"/>
<path fill="#000000" stroke="none" d="M147 86 c-4 -10 -1 -13 8 -9 8 3 12 9
9 14 -7 12 -11 11 -17 -5z"/>
<path fill="#000000" stroke="none" d="M153 53 c-20 -8 -15 -19 10 -20 12 0
16 1 9 4 -6 3 -10 9 -6 14 6 10 5 10 -13 2z"/>
<path fill="#000000" stroke="none" d="M210 14 c-22 -8 -28 -13 -15 -13 11 0
31 6 45 14 31 17 17 17 -30 -1z"/>
<path fill="#000000" stroke="none" d="M290 20 c-12 -8 -12 -10 3 -16 10 -3
21 -4 24 0 4 3 1 6 -6 6 -7 0 -9 5 -6 10 8 12 4 12 -15 0z"/>
</g>
</svg>
