<?xml version="1.0" standalone="no"?>
<!DOCTYPE svg PUBLIC "-//W3C//DTD SVG 20010904//EN"
 "http://www.w3.org/TR/2001/REC-SVG-20010904/DTD/svg10.dtd">
<svg version="1.0" xmlns="http://www.w3.org/2000/svg"
 width="32.000000pt" height="32.000000pt" viewBox="0 0 32.000000 32.000000"
 preserveAspectRatio="xMidYMid meet">
<metadata>
Created by potrace 1.16, written by Peter Selinger 2001-2019
</metadata>
<g transform="translate(0.000000,32.000000) scale(0.100000,-0.100000)"
fill="#000000" stroke="none">
<path fill="#000000" stroke="none" d="M0 160 c0 -157 0 -160 22 -160 20 0 20
1 4 19 -17 18 -17 21 -1 45 18 27 17 58 -5 112 -11 26 -10 37 5 78 23 60 41
68 71 30 73 -92 76 -95 90 -83 8 6 23 9 35 6 16 -4 18 -3 8 9 -12 15 -6 44 10
44 5 0 12 -7 15 -16 6 -15 4 -15 -11 -3 -15 12 -15 11 1 -13 17 -25 36 -42 21
-18 -3 6 -3 15 1 21 4 8 9 7 15 -2 12 -19 11 -52 -1 -44 -6 4 -7 -1 -3 -11 4
-11 -1 -22 -13 -32 -12 -9 -13 -13 -4 -10 8 3 21 18 29 33 13 27 15 28 22 10
5 -12 8 13 8 63 l1 82 -160 0 -160 0 0 -160z"/>
<path fill="#000000" stroke="none" d="M41 259 c-7 -23 -10 -44 -7 -47 3 -3 6
1 6 9 0 11 2 11 10 -1 8 -13 10 -12 11 5 1 11 2 26 2 33 -1 19 33 -13 69 -66
29 -43 50 -50 56 -19 2 10 -3 14 -15 11 -13 -3 -31 13 -63 55 -25 33 -48 60
-51 60 -3 1 -11 -17 -18 -40z"/>
<path fill="#000000" stroke="none" d="M115 180 c-3 -5 -1 -10 4 -10 6 0 11 5
11 10 0 6 -2 10 -4 10 -3 0 -8 -4 -11 -10z"/>
<path fill="#000000" stroke="none" d="M158 134 c-9 -8 32 -75 42 -69 5 3 3
20 -5 37 -13 33 -26 44 -37 32z"/>
<path fill="#000000" stroke="none" d="M305 91 c-3 -5 -1 -12 5 -16 5 -3 10 1
10 9 0 18 -6 21 -15 7z"/>
<path fill="#000000" stroke="none" d="M275 10 c-17 -7 -15 -9 13 -9 17 -1 32
4 32 9 0 12 -17 12 -45 0z"/>
</g>
</svg>
