<?xml version="1.0" standalone="no"?>
<!DOCTYPE svg PUBLIC "-//W3C//DTD SVG 20010904//EN"
 "http://www.w3.org/TR/2001/REC-SVG-20010904/DTD/svg10.dtd">
<svg version="1.0" xmlns="http://www.w3.org/2000/svg"
 width="32.000000pt" height="32.000000pt" viewBox="0 0 32.000000 32.000000"
 preserveAspectRatio="xMidYMid meet">
<metadata>
Created by potrace 1.16, written by Peter Selinger 2001-2019
</metadata>
<g transform="translate(0.000000,32.000000) scale(0.100000,-0.100000)"
fill="#000000" stroke="none">
<path fill="#000000" stroke="none" d="M0 160 l0 -160 160 0 160 0 0 46 0 45
-26 -20 c-32 -25 -115 -29 -134 -7 -6 8 -37 20 -68 27 -89 18 -90 18 -67 35
13 10 34 14 62 11 l41 -4 12 44 c7 24 11 46 8 48 -3 3 -19 0 -37 -6 -60 -21
-83 12 -35 50 34 27 74 27 108 0 27 -22 33 -50 17 -93 -10 -24 -9 -24 25 -19
27 4 42 1 65 -16 l29 -22 0 101 0 100 -160 0 -160 0 0 -160z"/>
<path fill="#000000" stroke="none" d="M82 264 c-12 -8 -22 -22 -22 -31 0 -12
7 -14 33 -8 59 13 62 12 63 -20 0 -16 -3 -35 -8 -41 -4 -6 -9 -23 -10 -37 -2
-23 -4 -25 -18 -12 -18 16 -57 19 -86 8 -12 -4 3 -11 46 -19 34 -7 70 -20 80
-29 25 -22 95 -20 120 5 26 26 25 36 -5 56 -21 14 -28 14 -42 3 -9 -8 -14 -9
-10 -2 5 7 0 9 -13 6 -11 -3 -20 -11 -20 -19 0 -13 33 -12 77 1 7 2 15 1 17
-4 3 -4 0 -8 -7 -9 -7 -1 -27 -5 -46 -8 -48 -9 -63 12 -45 64 19 54 17 79 -8
96 -29 20 -67 20 -96 0z"/>
</g>
</svg>
