<?xml version="1.0" standalone="no"?>
<!DOCTYPE svg PUBLIC "-//W3C//DTD SVG 20010904//EN"
 "http://www.w3.org/TR/2001/REC-SVG-20010904/DTD/svg10.dtd">
<svg version="1.0" xmlns="http://www.w3.org/2000/svg"
 width="32.000000pt" height="32.000000pt" viewBox="0 0 32.000000 32.000000"
 preserveAspectRatio="xMidYMid meet">
<metadata>
Created by potrace 1.16, written by Peter Selinger 2001-2019
</metadata>
<g transform="translate(0.000000,32.000000) scale(0.100000,-0.100000)"
fill="#000000" stroke="none">
<path fill="#000000" stroke="none" d="M0 161 l0 -162 60 3 c33 2 60 6 60 11
0 4 -8 7 -17 5 -14 -2 -19 5 -21 28 -3 27 -6 30 -27 26 -16 -3 -27 1 -31 11
-9 23 14 93 41 125 15 18 22 36 19 49 -7 27 27 52 61 45 34 -6 42 -22 11 -22
-31 0 -41 -14 -20 -30 12 -10 17 -11 27 -1 9 10 8 11 -4 6 -10 -4 -20 -1 -24
6 -6 8 1 10 22 7 22 -3 30 0 29 9 -4 27 -28 36 -106 41 l-80 5 0 -162z"/>
<path fill="#000000" stroke="none" d="M218 294 c18 -14 32 -34 30 -43 -1 -9
7 -30 20 -48 24 -34 28 -67 12 -108 -8 -20 -7 -27 4 -31 17 -6 17 -45 1 -56
-5 -4 0 -8 13 -8 22 0 22 1 22 160 l0 160 -67 0 -68 0 33 -26z"/>
<path fill="#000000" stroke="none" d="M216 211 c-4 -5 -2 -12 3 -15 5 -4 12
-2 15 3 4 5 2 12 -3 15 -5 4 -12 2 -15 -3z"/>
<path fill="#000000" stroke="none" d="M69 193 c-13 -16 -12 -17 4 -4 9 7 17
15 17 17 0 8 -8 3 -21 -13z"/>
<path fill="#000000" stroke="none" d="M125 191 c1 -9 6 -16 11 -16 5 0 16 -4
24 -10 13 -8 13 -7 1 8 -16 20 -2 23 19 5 12 -11 12 -10 2 3 -6 9 -9 19 -6 22
3 3 -7 5 -24 5 -21 -1 -29 -6 -27 -17z"/>
<path fill="#000000" stroke="none" d="M246 171 c-4 -5 -2 -12 3 -15 5 -4 12
-2 15 3 4 5 2 12 -3 15 -5 4 -12 2 -15 -3z"/>
<path fill="#000000" stroke="none" d="M214 139 c-4 -7 -3 -9 4 -5 5 3 12 0
15 -6 2 -7 7 -10 11 -7 4 3 0 12 -8 18 -11 9 -16 9 -22 0z"/>
<path fill="#000000" stroke="none" d="M36 123 c-9 -23 -7 -26 10 -9 8 9 21
13 27 9 7 -3 8 -2 4 2 -13 15 -35 14 -41 -2z"/>
<path fill="#000000" stroke="none" d="M95 130 c3 -5 8 -10 11 -10 2 0 4 5 4
10 0 6 -5 10 -11 10 -5 0 -7 -4 -4 -10z"/>
<path fill="#000000" stroke="none" d="M111 104 c-23 -30 -26 -40 -11 -49 9
-6 44 64 36 72 -2 2 -13 -8 -25 -23z"/>
<path fill="#000000" stroke="none" d="M165 120 c-7 -11 12 -50 25 -50 16 0
21 19 10 40 -12 22 -25 26 -35 10z"/>
<path fill="#000000" stroke="none" d="M145 61 c-3 -5 -1 -12 4 -15 5 -3 11 1
15 9 6 16 -9 21 -19 6z"/>
</g>
</svg>
