<?xml version="1.0" standalone="no"?>
<!DOCTYPE svg PUBLIC "-//W3C//DTD SVG 20010904//EN"
 "http://www.w3.org/TR/2001/REC-SVG-20010904/DTD/svg10.dtd">
<svg version="1.0" xmlns="http://www.w3.org/2000/svg"
 width="32.000000pt" height="32.000000pt" viewBox="0 0 32.000000 32.000000"
 preserveAspectRatio="xMidYMid meet">
<metadata>
Created by potrace 1.16, written by Peter Selinger 2001-2019
</metadata>
<g transform="translate(0.000000,32.000000) scale(0.100000,-0.100000)"
fill="#000000" stroke="none">
<path fill="#000000" stroke="none" d="M66 295 c-11 -8 -16 -15 -12 -15 4 0 0
-7 -8 -16 -25 -25 -19 -33 27 -36 23 -2 41 -7 40 -13 -3 -11 -23 -14 -38 -6
-25 14 -45 10 -45 -8 0 -11 -6 -21 -12 -24 -10 -3 -10 -7 1 -20 7 -10 10 -17
7 -17 -4 0 -2 -9 4 -20 6 -11 15 -20 21 -20 6 0 24 -10 41 -21 25 -18 33 -20
53 -9 17 9 28 9 44 1 18 -10 25 -8 46 13 19 19 25 35 25 71 0 34 4 45 16 45 9
0 14 7 12 18 -2 9 -12 16 -21 16 -10 -1 -30 9 -44 23 -14 15 -18 23 -9 20 9
-4 16 -2 16 2 0 10 -87 31 -123 31 -12 0 -31 -7 -41 -15z"/>
<path fill="#ffffff" stroke="none" d="M160 276 c0 -2 -7 -7 -16 -10 -8 -3
-12 -2 -9 4 6 10 25 14 25 6z"/>
<path fill="#ffffff" stroke="none" d="M196 183 c-11 -11 -17 4 -9 23 7 18 8
18 11 1 2 -10 1 -21 -2 -24z"/>
<path fill="#ffffff" stroke="none" d="M240 210 c0 -5 -5 -10 -11 -10 -5 0 -7
5 -4 10 3 6 8 10 11 10 2 0 4 -4 4 -10z"/>
<path fill="#ffffff" stroke="none" d="M150 189 c0 -5 -4 -9 -10 -9 -5 0 -10
7 -10 16 0 8 5 12 10 9 6 -3 10 -10 10 -16z"/>
<path fill="#ffffff" stroke="none" d="M180 134 c-18 -21 -24 -10 -8 15 7 12
14 17 16 11 2 -6 -2 -17 -8 -26z"/>
<path fill="#000000" stroke="none" d="M47 83 c-4 -3 -7 -12 -7 -20 0 -11 4
-11 20 -3 11 6 18 15 15 21 -7 11 -19 12 -28 2z"/>
<path fill="#000000" stroke="none" d="M170 60 c11 -7 6 -10 -20 -10 -28 -1
-32 -2 -18 -11 12 -7 24 -6 38 1 21 11 19 30 -3 30 -7 0 -6 -4 3 -10z"/>
</g>
</svg>
