<?xml version="1.0" standalone="no"?>
<!DOCTYPE svg PUBLIC "-//W3C//DTD SVG 20010904//EN"
 "http://www.w3.org/TR/2001/REC-SVG-20010904/DTD/svg10.dtd">
<svg version="1.0" xmlns="http://www.w3.org/2000/svg"
 width="32.000000pt" height="32.000000pt" viewBox="0 0 32.000000 32.000000"
 preserveAspectRatio="xMidYMid meet">
<metadata>
Created by potrace 1.16, written by Peter Selinger 2001-2019
</metadata>
<g transform="translate(0.000000,32.000000) scale(0.100000,-0.100000)"
fill="#000000" stroke="none">
<path fill="#000000" stroke="none" d="M1 316 c3 -3 39 -6 81 -7 43 -1 75 -6
72 -11 -3 -4 -9 -6 -14 -3 -4 3 -13 -2 -20 -10 -8 -10 -31 -15 -66 -15 l-54 0
0 -134 0 -134 160 0 160 -1 0 134 0 134 -57 3 c-44 2 -58 7 -58 18 0 11 16 17
60 21 38 3 -1 6 -104 7 -90 1 -162 0 -160 -2z"/>
<path fill="#ffffff" stroke="none" d="M130 265 c-7 -8 -17 -15 -23 -15 -6 0
-2 7 9 15 25 19 30 19 14 0z"/>
<path fill="#ffffff" stroke="none" d="M176 201 c-9 -16 -16 -49 -16 -73 0
-50 -13 -80 -24 -53 -9 26 4 96 26 133 25 41 35 35 14 -7z"/>
<path fill="#ffffff" stroke="none" d="M40 155 c-7 -8 -17 -15 -23 -15 -6 0
-2 7 9 15 25 19 30 19 14 0z"/>
<path fill="#ffffff" stroke="none" d="M120 130 c0 -5 -2 -10 -4 -10 -3 0 -8
5 -11 10 -3 6 -1 10 4 10 6 0 11 -4 11 -10z"/>
<path fill="#ffffff" stroke="none" d="M180 46 c0 -2 -8 -10 -17 -17 -16 -13
-17 -12 -4 4 13 16 21 21 21 13z"/>
<path fill="#ffffff" stroke="none" d="M244 11 c-2 -3 -12 3 -22 13 -16 17
-16 18 5 5 12 -7 20 -15 17 -18z"/>
</g>
</svg>
