<?xml version="1.0" standalone="no"?>
<!DOCTYPE svg PUBLIC "-//W3C//DTD SVG 20010904//EN"
 "http://www.w3.org/TR/2001/REC-SVG-20010904/DTD/svg10.dtd">
<svg version="1.0" xmlns="http://www.w3.org/2000/svg"
 width="32.000000pt" height="32.000000pt" viewBox="0 0 32.000000 32.000000"
 preserveAspectRatio="xMidYMid meet">
<metadata>
Created by potrace 1.16, written by Peter Selinger 2001-2019
</metadata>
<g transform="translate(0.000000,32.000000) scale(0.100000,-0.100000)"
fill="#000000" stroke="none">
<path fill="#000000" stroke="none" d="M57 263 c-3 -5 5 -8 18 -8 13 0 21 3
18 8 -2 4 -10 7 -18 7 -8 0 -16 -3 -18 -7z"/>
<path fill="#000000" stroke="none" d="M106 138 c3 -5 10 -6 15 -3 13 9 11 12
-6 12 -8 0 -12 -4 -9 -9z"/>
<path fill="#000000" stroke="none" d="M195 130 c-4 -6 -10 -8 -15 -5 -5 3
-11 1 -14 -4 -12 -19 12 -20 29 -1 10 11 15 20 12 20 -3 0 -9 -5 -12 -10z"/>
<path fill="#000000" stroke="none" d="M240 110 c-9 -6 -10 -10 -3 -10 6 0 15
5 18 10 8 12 4 12 -15 0z"/>
</g>
</svg>
