<?xml version="1.0" standalone="no"?>
<!DOCTYPE svg PUBLIC "-//W3C//DTD SVG 20010904//EN"
 "http://www.w3.org/TR/2001/REC-SVG-20010904/DTD/svg10.dtd">
<svg version="1.0" xmlns="http://www.w3.org/2000/svg"
 width="32.000000pt" height="32.000000pt" viewBox="0 0 32.000000 32.000000"
 preserveAspectRatio="xMidYMid meet">
<metadata>
Created by potrace 1.16, written by Peter Selinger 2001-2019
</metadata>
<g transform="translate(0.000000,32.000000) scale(0.100000,-0.100000)"
fill="#000000" stroke="none">
<path fill="#000000" stroke="none" d="M209 301 c-23 -19 -23 -19 -5 -40 20
-22 41 -18 32 6 -4 10 0 14 17 11 33 -5 26 -55 -13 -90 -36 -33 -50 -35 -50
-9 0 27 -39 54 -56 40 -7 -6 -18 -8 -24 -4 -5 3 -13 -1 -16 -10 -4 -8 -14 -14
-23 -13 -9 2 -15 -3 -14 -9 2 -7 -4 -13 -12 -13 -19 0 -48 -44 -43 -67 2 -12
11 -17 26 -15 24 4 30 -13 8 -21 -15 -6 -16 -23 -3 -44 20 -32 107 -3 107 35
0 7 4 12 8 12 18 0 7 27 -15 37 -13 6 -21 7 -18 3 10 -16 -35 -33 -50 -20 -20
17 1 48 29 43 31 -5 49 11 41 36 -10 31 -26 26 -19 -6 l6 -28 -14 25 c-12 21
-12 26 -1 33 7 4 17 6 22 2 5 -3 12 -1 16 5 3 5 12 10 18 10 8 0 8 -3 2 -8 -5
-4 -11 -20 -13 -37 -4 -36 14 -23 21 15 4 24 4 23 6 -4 1 -29 7 -30 54 -11 19
8 21 -14 2 -27 -5 -4 0 -8 11 -8 18 0 23 -7 26 -40 2 -22 0 -40 -4 -40 -5 0
-8 16 -8 35 0 28 -4 35 -20 35 -13 0 -20 -7 -20 -20 0 -13 5 -17 14 -14 10 4
16 -2 18 -18 5 -36 34 -30 30 6 -3 22 2 34 20 48 20 16 21 20 7 31 -13 10 -14
16 -3 42 7 17 13 44 14 61 0 58 -63 84 -111 45z"/>
<path fill="#ffffff" stroke="none" d="M265 300 c-4 -6 -9 -8 -13 -6 -4 2 -16
-2 -27 -10 -10 -8 -13 -14 -7 -14 7 0 12 -5 12 -11 0 -8 -5 -8 -15 1 -21 17
-19 29 8 40 30 12 49 12 42 0z"/>
<path fill="#ffffff" stroke="none" d="M306 273 c-4 -4 -11 -1 -16 7 -16 25
-11 35 7 17 9 -9 13 -20 9 -24z"/>
<path fill="#ffffff" stroke="none" d="M289 201 c-14 -26 -26 -38 -32 -32 -6
6 -2 20 12 37 11 15 21 34 21 42 0 12 3 13 11 5 8 -8 5 -22 -12 -52z"/>
<path fill="#ffffff" stroke="none" d="M100 155 c0 -18 -12 -19 -27 -4 -7 7
-15 0 -26 -23 -9 -18 -17 -26 -17 -18 -1 10 -4 9 -10 -5 -7 -16 -9 -17 -9 -3
-2 29 11 49 36 59 14 5 21 14 17 20 -4 8 0 8 15 0 11 -7 21 -18 21 -26z"/>
<path fill="#ffffff" stroke="none" d="M118 41 c-9 -14 -22 -21 -43 -20 l-30
1 30 8 c17 4 27 9 23 10 -17 5 -29 8 -50 9 -21 2 -22 2 -5 12 11 6 32 8 48 5
22 -4 28 -2 23 7 -5 9 -4 9 5 1 10 -9 10 -16 -1 -33z"/>
<path fill="#000000" stroke="none" d="M187 126 c4 -5 -4 -7 -18 -3 l-24 6 23
-19 c18 -15 22 -27 19 -52 l-4 -33 -1 33 c-1 17 -6 32 -11 32 -10 0 -2 -50 11
-67 6 -7 15 -10 22 -6 6 4 18 8 26 8 10 0 14 8 12 25 -2 14 -6 27 -9 30 -3 3
-3 -7 -1 -22 8 -46 -7 -31 -18 17 -6 25 -7 45 -2 45 4 0 8 4 8 8 0 4 -9 8 -19
8 -11 0 -17 -5 -14 -10z"/>
<path fill="#ffffff" stroke="none" d="M203 29 c-6 -6 -7 3 -4 23 4 28 6 29 9
9 2 -13 0 -27 -5 -32z"/>
</g>
</svg>
