<?xml version="1.0" standalone="no"?>
<!DOCTYPE svg PUBLIC "-//W3C//DTD SVG 20010904//EN"
 "http://www.w3.org/TR/2001/REC-SVG-20010904/DTD/svg10.dtd">
<svg version="1.0" xmlns="http://www.w3.org/2000/svg"
 width="32.000000pt" height="32.000000pt" viewBox="0 0 32.000000 32.000000"
 preserveAspectRatio="xMidYMid meet">
<metadata>
Created by potrace 1.16, written by Peter Selinger 2001-2019
</metadata>
<g transform="translate(0.000000,32.000000) scale(0.100000,-0.100000)"
fill="#000000" stroke="none">
<path fill="#000000" stroke="none" d="M0 293 c0 -37 10 -73 20 -73 15 0 73
64 61 68 -6 2 -11 10 -11 18 0 9 -11 14 -35 14 -32 0 -35 -3 -35 -27z"/>
<path fill="#000000" stroke="none" d="M161 303 c-14 -27 -14 -35 1 -44 23
-15 78 -11 78 6 0 10 10 15 30 15 23 0 30 4 30 20 0 18 -7 20 -65 20 -51 0
-66 -4 -74 -17z"/>
<path fill="#000000" stroke="none" d="M100 276 c0 -7 -9 -16 -20 -19 -11 -3
-23 -13 -26 -24 -4 -10 -16 -26 -28 -35 -11 -9 -17 -20 -13 -24 12 -12 57 14
57 33 1 11 7 5 15 -14 14 -33 45 -44 70 -25 12 9 35 48 35 61 0 10 -39 27 -52
23 -5 -1 -8 7 -8 18 0 11 -7 20 -15 20 -8 0 -15 -6 -15 -14z"/>
<path fill="#ffffff" stroke="none" d="M144 181 c4 -5 -1 -8 -9 -7 -21 3 -31
16 -12 16 9 0 18 -4 21 -9z"/>
<path fill="#000000" stroke="none" d="M190 200 c-10 -18 -8 -20 30 -20 33 0
40 3 40 20 0 16 -7 20 -30 20 -19 0 -33 -7 -40 -20z"/>
<path fill="#000000" stroke="none" d="M65 50 c-3 -5 -1 -10 4 -10 6 0 11 5
11 10 0 6 -2 10 -4 10 -3 0 -8 -4 -11 -10z"/>
<path fill="#000000" stroke="none" d="M125 20 c-3 -5 -1 -10 4 -10 6 0 11 5
11 10 0 6 -2 10 -4 10 -3 0 -8 -4 -11 -10z"/>
<path fill="#000000" stroke="none" d="M240 20 c0 -5 5 -10 11 -10 5 0 7 5 4
10 -3 6 -8 10 -11 10 -2 0 -4 -4 -4 -10z"/>
</g>
</svg>
