<?xml version="1.0" standalone="no"?>
<!DOCTYPE svg PUBLIC "-//W3C//DTD SVG 20010904//EN"
 "http://www.w3.org/TR/2001/REC-SVG-20010904/DTD/svg10.dtd">
<svg version="1.0" xmlns="http://www.w3.org/2000/svg"
 width="32.000000pt" height="32.000000pt" viewBox="0 0 32.000000 32.000000"
 preserveAspectRatio="xMidYMid meet">
<metadata>
Created by potrace 1.16, written by Peter Selinger 2001-2019
</metadata>
<g transform="translate(0.000000,32.000000) scale(0.100000,-0.100000)"
fill="#000000" stroke="none">
<path fill="#000000" stroke="none" d="M0 293 c0 -16 5 -35 11 -43 9 -13 10
-13 6 2 -4 12 3 18 36 23 57 9 130 10 199 1 55 -7 57 -9 61 -39 2 -19 4 -8 5
26 l2 57 -160 0 -160 0 0 -27z"/>
<path fill="#000000" stroke="none" d="M95 270 c-4 -6 4 -9 17 -7 18 1 23 -3
23 -19 1 -12 6 -28 13 -36 6 -8 9 -17 6 -20 -10 -11 65 1 88 13 20 10 21 10
11 -2 -9 -11 -8 -18 1 -31 7 -10 16 -15 20 -11 4 4 0 -10 -9 -30 -14 -34 -14
-38 0 -44 9 -3 20 -2 24 3 12 13 22 90 13 98 -4 4 -7 13 -7 19 -1 7 -6 11 -13
10 -7 -2 -9 4 -5 14 4 9 -1 21 -12 29 -24 18 -49 18 -39 2 6 -10 4 -10 -7 0
-20 18 -31 14 -19 -7 18 -35 11 -37 -10 -3 -16 26 -26 32 -54 32 -19 0 -38 -4
-41 -10z"/>
<path fill="#000000" stroke="none" d="M35 251 c-3 -5 -1 -13 5 -16 8 -5 7
-11 -1 -21 -9 -11 -15 -11 -25 -3 -12 10 -14 -3 -14 -75 0 -56 4 -85 10 -81 5
3 10 31 10 61 0 37 4 53 11 49 15 -10 39 26 33 48 -3 10 1 20 10 23 9 3 13 10
10 15 -7 12 -41 12 -49 0z"/>
<path fill="#ffffff" stroke="none" d="M45 182 c-12 -12 -35 -10 -35 3 0 8 7
11 20 8 12 -3 18 -8 15 -11z"/>
<path fill="#000000" stroke="none" d="M105 250 c-3 -5 -2 -10 4 -10 5 0 13 5
16 10 3 6 2 10 -4 10 -5 0 -13 -4 -16 -10z"/>
<path fill="#000000" stroke="none" d="M78 203 c6 -32 19 -37 32 -13 13 25 6
39 -18 37 -14 -1 -17 -7 -14 -24z"/>
<path fill="#000000" stroke="none" d="M210 145 c-15 -31 -15 -32 7 -30 12 0
28 7 35 14 11 11 10 12 -1 6 -10 -6 -12 -2 -6 16 4 17 3 20 -3 10 -8 -12 -11
-12 -13 1 -3 10 -10 4 -19 -17z"/>
<path fill="#ffffff" stroke="none" d="M233 137 c3 -8 -1 -14 -8 -14 -7 0 -11
6 -8 14 3 7 6 13 8 13 2 0 5 -6 8 -13z"/>
<path fill="#000000" stroke="none" d="M120 119 c6 -10 18 -19 26 -19 20 0 2
33 -20 36 -13 2 -14 -2 -6 -17z"/>
<path fill="#000000" stroke="none" d="M312 115 c0 -16 2 -22 5 -12 2 9 2 23
0 30 -3 6 -5 -1 -5 -18z"/>
<path fill="#000000" stroke="none" d="M31 74 c-7 -19 -17 -34 -22 -34 -5 0
-9 -9 -9 -20 0 -11 5 -20 10 -20 6 0 10 5 10 10 0 6 9 10 21 10 12 0 19 5 16
13 -2 6 -1 19 3 27 5 9 3 23 -4 32 -11 15 -14 13 -25 -18z"/>
<path fill="#000000" stroke="none" d="M110 84 c0 -9 -9 -31 -20 -49 -19 -31
-19 -33 -3 -30 10 2 20 4 23 5 3 1 8 2 12 1 4 0 17 17 28 38 20 40 20 40 0 36
-11 -2 -20 0 -20 6 0 5 -4 9 -10 9 -5 0 -10 -7 -10 -16z"/>
<path fill="#000000" stroke="none" d="M279 59 c-26 -14 -12 -59 17 -59 15 0
24 6 24 16 0 8 -5 12 -11 8 -7 -4 -9 0 -5 14 8 24 -3 34 -25 21z"/>
</g>
</svg>
