<?xml version="1.0" standalone="no"?>
<!DOCTYPE svg PUBLIC "-//W3C//DTD SVG 20010904//EN"
 "http://www.w3.org/TR/2001/REC-SVG-20010904/DTD/svg10.dtd">
<svg version="1.0" xmlns="http://www.w3.org/2000/svg"
 width="32.000000pt" height="32.000000pt" viewBox="0 0 32.000000 32.000000"
 preserveAspectRatio="xMidYMid meet">
<metadata>
Created by potrace 1.16, written by Peter Selinger 2001-2019
</metadata>
<g transform="translate(0.000000,32.000000) scale(0.100000,-0.100000)"
fill="#000000" stroke="none">
<path fill="#000000" stroke="none" d="M0 160 c0 -153 1 -160 20 -160 19 0 20
7 20 160 0 153 -1 160 -20 160 -19 0 -20 -7 -20 -160z"/>
<path fill="#000000" stroke="none" d="M240 310 c-36 -3 -85 -5 -110 -4 -44 3
-60 -6 -60 -35 0 -10 8 -7 27 10 l28 24 -22 -26 c-20 -22 -30 -49 -19 -49 14
0 77 32 72 37 -3 3 -1 12 5 20 10 11 14 10 25 -4 7 -10 14 -26 14 -35 0 -15 9
-18 50 -18 l50 0 0 -115 c0 -70 4 -115 10 -115 6 0 10 60 10 160 0 88 -3 159
-7 158 -5 0 -37 -4 -73 -8z"/>
<path fill="#000000" stroke="none" d="M176 253 c-4 -5 -11 -8 -14 -8 -20 -1
-64 -17 -60 -21 3 -2 17 0 31 5 l26 10 -19 -32 c-11 -18 -20 -40 -20 -50 0
-10 -4 -16 -9 -13 -5 3 -14 -1 -21 -9 -10 -12 -9 -16 3 -21 8 -3 18 -22 22
-42 l7 -37 14 25 c7 14 13 21 14 15 0 -5 -8 -24 -19 -41 l-18 -30 23 0 c12 0
21 3 19 7 -3 3 2 15 10 25 13 18 14 18 8 -3 -4 -17 0 -23 20 -28 46 -12 80 -2
87 25 6 23 4 26 -19 28 -20 1 -22 0 -11 -8 12 -8 13 -11 2 -22 -11 -11 -18 -8
-37 17 -14 16 -21 33 -16 38 13 13 1 49 -13 38 -15 -13 -19 64 -4 102 11 28 8
43 -6 30z"/>
<path fill="#000000" stroke="none" d="M61 142 c1 -61 0 -115 -4 -119 -14 -14
-6 -23 21 -22 15 0 21 3 15 6 -9 3 -9 10 3 28 20 30 9 54 -13 28 -13 -17 -13
-16 -4 4 8 16 8 29 -1 47 -9 21 -8 29 5 44 22 24 21 38 -4 70 l-21 27 3 -113z"/>
</g>
</svg>
