<?xml version="1.0" standalone="no"?>
<!DOCTYPE svg PUBLIC "-//W3C//DTD SVG 20010904//EN"
 "http://www.w3.org/TR/2001/REC-SVG-20010904/DTD/svg10.dtd">
<svg version="1.0" xmlns="http://www.w3.org/2000/svg"
 width="32.000000pt" height="32.000000pt" viewBox="0 0 32.000000 32.000000"
 preserveAspectRatio="xMidYMid meet">
<metadata>
Created by potrace 1.16, written by Peter Selinger 2001-2019
</metadata>
<g transform="translate(0.000000,32.000000) scale(0.100000,-0.100000)"
fill="#000000" stroke="none">
<path fill="#000000" stroke="none" d="M101 277 c-13 -6 -30 -28 -37 -47 -16
-43 -18 -110 -3 -110 5 0 8 -4 5 -9 -4 -5 8 -21 25 -35 17 -15 30 -28 28 -30
-2 -2 -22 -7 -43 -12 -22 -5 -41 -15 -44 -22 -3 -9 27 -12 122 -12 103 0 126
3 126 14 0 8 -9 18 -20 21 -16 5 -19 12 -14 28 3 12 12 27 20 33 9 7 14 32 14
71 0 47 -4 64 -20 78 -11 10 -20 15 -20 12 0 -4 -9 2 -20 13 -23 23 -81 27
-119 7z"/>
<path fill="#ffffff" stroke="none" d="M201 269 c11 -6 18 -17 15 -24 -3 -10
0 -12 11 -8 28 11 61 -65 35 -81 -5 -3 -7 8 -4 23 2 16 -1 32 -7 36 -18 10
-41 -14 -42 -44 0 -24 -1 -24 -10 -6 -7 16 -8 13 -5 -12 6 -37 -11 -54 -29
-30 -11 15 -13 15 -29 -1 -17 -16 -18 -16 -6 4 17 27 7 54 -20 54 -23 0 -28
-37 -7 -60 10 -12 9 -12 -6 0 -14 10 -17 23 -14 52 2 20 0 35 -5 32 -4 -3 -6
-9 -4 -13 3 -4 1 -13 -5 -21 -7 -12 -9 -10 -9 7 0 12 5 25 10 28 6 4 8 11 5
16 -3 5 1 6 9 3 9 -3 16 -14 17 -23 0 -13 2 -13 6 -1 3 8 12 23 21 32 12 14
12 20 2 33 -11 13 -8 15 19 15 18 0 41 -5 52 -11z"/>
<path fill="#ffffff" stroke="none" d="M220 116 c0 -2 -8 -10 -17 -17 -16 -13
-17 -12 -4 4 13 16 21 21 21 13z"/>
<path fill="#000000" stroke="none" d="M139 223 c-13 -16 -12 -17 4 -4 9 7 17
15 17 17 0 8 -8 3 -21 -13z"/>
</g>
</svg>
