<?xml version="1.0" standalone="no"?>
<!DOCTYPE svg PUBLIC "-//W3C//DTD SVG 20010904//EN"
 "http://www.w3.org/TR/2001/REC-SVG-20010904/DTD/svg10.dtd">
<svg version="1.0" xmlns="http://www.w3.org/2000/svg"
 width="32.000000pt" height="32.000000pt" viewBox="0 0 32.000000 32.000000"
 preserveAspectRatio="xMidYMid meet">
<metadata>
Created by potrace 1.16, written by Peter Selinger 2001-2019
</metadata>
<g transform="translate(0.000000,32.000000) scale(0.100000,-0.100000)"
fill="#000000" stroke="none">
<path fill="#000000" stroke="none" d="M0 160 l0 -160 160 0 160 0 0 160 0
160 -160 0 -160 0 0 -160z"/>
<path fill="#ffffff" stroke="none" d="M192 255 c8 -19 8 -31 0 -50 -11 -23
-10 -24 13 -13 13 6 22 15 19 20 -3 5 -2 8 3 7 20 -4 24 2 12 18 -12 14 -12
16 0 12 25 -9 23 -27 -3 -50 -19 -17 -23 -25 -14 -31 19 -12 62 -10 76 4 9 9
12 9 12 0 0 -18 -37 -33 -67 -27 -26 6 -26 5 -8 -6 11 -7 29 -13 39 -14 11 -1
22 -7 24 -14 3 -8 -4 -12 -20 -10 -14 2 -32 -4 -42 -14 -22 -22 -54 -22 -78 0
-29 26 -48 24 -66 -8 -10 -16 -23 -29 -31 -29 -9 0 -5 11 13 34 33 43 33 48 0
31 -46 -24 -73 1 -32 29 22 15 43 12 32 -5 -3 -5 -10 -6 -16 -3 -7 4 -8 2 -4
-5 6 -9 11 -9 22 0 13 10 9 18 -23 51 -41 42 -31 52 14 14 36 -30 68 -19 59
20 -14 55 43 89 66 39z"/>
<path fill="#000000" stroke="none" d="M188 123 c-10 -2 -18 -9 -18 -14 0 -6
-6 -7 -12 -3 -9 5 -9 2 1 -9 18 -22 34 -21 62 4 13 11 18 18 12 14 -7 -3 -13
-1 -13 4 0 11 -3 12 -32 4z"/>
<path fill="#ffffff" stroke="none" d="M205 100 c-3 -5 -14 -10 -23 -10 -15 0
-15 2 -2 10 20 13 33 13 25 0z"/>
</g>
</svg>
