<?xml version="1.0" standalone="no"?>
<!DOCTYPE svg PUBLIC "-//W3C//DTD SVG 20010904//EN"
 "http://www.w3.org/TR/2001/REC-SVG-20010904/DTD/svg10.dtd">
<svg version="1.0" xmlns="http://www.w3.org/2000/svg"
 width="32.000000pt" height="32.000000pt" viewBox="0 0 32.000000 32.000000"
 preserveAspectRatio="xMidYMid meet">
<metadata>
Created by potrace 1.16, written by Peter Selinger 2001-2019
</metadata>
<g transform="translate(0.000000,32.000000) scale(0.100000,-0.100000)"
fill="#000000" stroke="none">
<path fill="#000000" stroke="none" d="M0 159 l0 -160 43 3 c42 3 42 3 38 38
-1 19 -7 43 -12 52 -6 11 -5 19 1 23 8 5 8 11 0 20 -8 10 -5 20 14 41 25 28
25 28 26 7 0 -24 14 -31 25 -13 4 6 15 4 30 -6 22 -14 24 -14 35 6 9 18 14 19
26 9 9 -7 13 -21 10 -33 -3 -11 0 -26 6 -33 8 -11 14 -8 24 13 13 24 12 30 -6
60 -19 30 -53 51 -73 46 -4 -1 -3 7 3 17 6 13 17 18 28 15 10 -3 5 5 -12 19
-31 27 -72 37 -153 37 l-53 0 0 -161z"/>
<path fill="#ffffff" stroke="none" d="M159 294 c5 4 12 2 15 -3 4 -5 -6 -8
-20 -6 -29 3 -42 -18 -25 -39 10 -12 9 -13 -7 -9 -24 6 -67 -44 -82 -95 -9
-33 -8 -39 11 -55 l21 -17 -21 0 c-12 0 -24 6 -27 14 -9 22 14 93 41 124 15
18 22 36 19 49 -7 26 33 58 52 42 7 -6 18 -8 23 -5z"/>
<path fill="#ffffff" stroke="none" d="M174 262 c2 -4 -4 -8 -14 -9 -11 -1
-22 2 -25 8 -4 5 3 9 14 9 11 0 22 -4 25 -8z"/>
<path fill="#ffffff" stroke="none" d="M61 117 c-6 -8 -7 -18 -3 -22 4 -5 1
-5 -6 -1 -10 6 -10 11 -1 22 6 8 14 14 16 14 3 0 0 -6 -6 -13z"/>
<path fill="#000000" stroke="none" d="M104 285 c-10 -8 -14 -15 -8 -15 6 0
17 7 24 15 16 19 9 19 -16 0z"/>
<path fill="#000000" stroke="none" d="M218 294 c17 -14 32 -33 32 -42 0 -10
-3 -13 -8 -7 -9 13 -42 16 -42 4 0 -5 9 -9 19 -9 22 0 71 -58 71 -83 0 -9 -4
-19 -10 -22 -5 -3 -10 -11 -10 -16 0 -6 4 -8 9 -5 5 4 7 -3 4 -15 -4 -16 -8
-17 -14 -7 -5 7 -9 9 -9 4 0 -5 -8 -2 -18 7 -16 15 -19 15 -19 2 0 -8 7 -15
16 -15 14 0 14 -2 1 -11 -12 -8 -11 -9 5 -5 38 10 72 -45 41 -66 -6 -5 -1 -8
12 -8 22 0 22 1 22 160 l0 160 -67 0 -68 0 33 -26z"/>
<path fill="#000000" stroke="none" d="M79 158 c-11 -20 -11 -22 3 -10 10 8
19 9 22 3 3 -5 1 -11 -6 -13 -8 -3 -9 -6 -1 -11 17 -11 22 17 8 37 -13 17 -14
16 -26 -6z"/>
<path fill="#000000" stroke="none" d="M197 153 c-18 -24 -19 -24 -40 -6 -20
16 -21 17 -8 0 12 -15 12 -17 -1 -12 -33 13 -77 -82 -48 -100 8 -5 7 -11 -1
-21 -9 -11 -7 -14 9 -14 28 0 35 14 21 44 -9 20 -9 29 1 41 20 24 29 18 53
-35 14 -32 28 -50 40 -50 21 0 21 3 4 43 -30 72 -37 99 -22 93 8 -3 17 0 21 6
4 7 3 8 -4 4 -7 -4 -12 -3 -12 3 0 5 5 11 12 13 7 3 8 7 3 10 -6 3 -18 -5 -28
-19z"/>
<path fill="#000000" stroke="none" d="M134 79 c-3 -6 0 -18 8 -26 14 -13 16
-13 22 2 5 13 2 16 -10 11 -14 -5 -15 -4 -4 9 8 9 8 15 2 15 -6 0 -14 -5 -18
-11z"/>
</g>
</svg>
