<?xml version="1.0" standalone="no"?>
<!DOCTYPE svg PUBLIC "-//W3C//DTD SVG 20010904//EN"
 "http://www.w3.org/TR/2001/REC-SVG-20010904/DTD/svg10.dtd">
<svg version="1.0" xmlns="http://www.w3.org/2000/svg"
 width="32.000000pt" height="32.000000pt" viewBox="0 0 32.000000 32.000000"
 preserveAspectRatio="xMidYMid meet">
<metadata>
Created by potrace 1.16, written by Peter Selinger 2001-2019
</metadata>
<g transform="translate(0.000000,32.000000) scale(0.100000,-0.100000)"
fill="#000000" stroke="none">
<path fill="#000000" stroke="none" d="M74 267 c-35 -31 -27 -62 14 -54 15 3
34 8 43 12 12 4 18 -1 21 -19 3 -14 2 -23 -3 -21 -4 3 -10 -8 -14 -24 -6 -27
-8 -28 -48 -24 -28 3 -49 0 -62 -11 -23 -17 -22 -17 67 -35 31 -7 62 -19 68
-27 19 -22 102 -18 134 7 33 26 33 42 -1 69 -21 17 -37 21 -65 17 -36 -5 -36
-4 -27 20 16 42 10 70 -17 92 -35 28 -76 27 -110 -2z"/>
<path fill="#ffffff" stroke="none" d="M116 255 c-2 -14 -16 -22 -16 -10 0 3
0 10 0 15 0 6 4 10 9 10 5 0 8 -7 7 -15z"/>
<path fill="#ffffff" stroke="none" d="M191 221 c-6 -10 -7 -22 -3 -26 4 -5 2
-5 -5 -2 -13 8 -6 47 9 47 5 0 4 -8 -1 -19z"/>
<path fill="#ffffff" stroke="none" d="M166 125 c-1 -14 -6 -26 -10 -28 -10
-2 -17 32 -10 45 10 16 21 7 20 -17z"/>
<path fill="#ffffff" stroke="none" d="M85 121 c-9 -8 -36 -10 -30 -2 2 4 11
8 20 8 8 0 13 -3 10 -6z"/>
<path fill="#ffffff" stroke="none" d="M190 79 c0 -6 7 -9 15 -5 8 3 15 1 15
-4 0 -11 -21 -13 -44 -4 -9 3 -13 10 -10 15 7 13 24 11 24 -2z"/>
</g>
</svg>
