<?xml version="1.0" standalone="no"?>
<!DOCTYPE svg PUBLIC "-//W3C//DTD SVG 20010904//EN"
 "http://www.w3.org/TR/2001/REC-SVG-20010904/DTD/svg10.dtd">
<svg version="1.0" xmlns="http://www.w3.org/2000/svg"
 width="32.000000pt" height="32.000000pt" viewBox="0 0 32.000000 32.000000"
 preserveAspectRatio="xMidYMid meet">
<metadata>
Created by potrace 1.16, written by Peter Selinger 2001-2019
</metadata>
<g transform="translate(0.000000,32.000000) scale(0.100000,-0.100000)"
fill="#000000" stroke="none">
<path fill="#000000" stroke="none" d="M120 290 c0 -4 7 -13 15 -20 12 -10 15
-9 15 4 0 10 5 14 10 11 6 -4 8 -11 5 -16 -4 -5 1 -9 9 -9 21 0 20 16 -1 25
-25 11 -53 13 -53 5z"/>
<path fill="#000000" stroke="none" d="M33 265 c-3 -9 -3 -18 0 -21 8 -8 47
15 47 28 0 6 -10 3 -22 -8 -19 -17 -21 -17 -15 -1 4 9 4 17 1 17 -2 0 -7 -7
-11 -15z"/>
<path fill="#000000" stroke="none" d="M93 253 c0 -8 6 -12 13 -9 8 3 18 -3
23 -12 8 -14 12 -15 22 -4 11 10 10 12 -4 12 -10 0 -20 6 -23 13 -6 18 -31 18
-31 0z"/>
<path fill="#000000" stroke="none" d="M166 225 c-18 -17 -34 -24 -47 -20 -11
4 -19 2 -19 -4 0 -6 3 -11 8 -11 15 0 30 -48 19 -59 -6 -6 -7 -11 -1 -11 15 0
35 38 24 45 -16 10 -11 28 6 21 8 -3 12 -2 9 4 -3 6 1 10 10 10 9 0 14 4 10 9
-3 5 0 13 6 17 8 5 9 3 4 -7 -6 -11 -5 -12 6 -1 7 6 24 11 39 11 20 -1 21 -2
5 -6 -20 -5 -74 -43 -61 -43 4 0 20 7 36 15 17 9 41 13 55 11 13 -3 27 0 31 5
3 5 2 9 -3 8 -21 -4 -34 2 -27 12 5 8 -6 10 -35 7 -22 -2 -42 0 -44 5 -1 5
-15 -3 -31 -18z"/>
<path fill="#000000" stroke="none" d="M23 215 c-16 -17 -17 -35 -3 -35 6 0 9
6 8 13 -2 6 3 11 10 10 6 -2 12 2 12 8 0 6 7 9 15 6 8 -4 17 -2 20 3 10 16
-49 11 -62 -5z"/>
<path fill="#000000" stroke="none" d="M48 159 c-16 -17 -14 -29 4 -29 5 0 7
4 3 9 -3 5 5 11 17 13 17 2 19 5 7 14 -10 8 -18 6 -31 -7z"/>
<path fill="#000000" stroke="none" d="M97 160 c3 -11 9 -17 14 -15 10 7 1 35
-11 35 -5 0 -6 -9 -3 -20z"/>
<path fill="#000000" stroke="none" d="M217 163 c-11 -10 -8 -33 4 -33 6 0 9
6 6 14 -3 8 -1 17 6 20 7 3 8 5 1 5 -6 1 -14 -2 -17 -6z"/>
<path fill="#000000" stroke="none" d="M246 155 c-3 -9 0 -15 9 -15 16 0 20
16 6 24 -5 3 -11 -1 -15 -9z"/>
<path fill="#000000" stroke="none" d="M187 154 c-4 -4 -7 -14 -7 -23 0 -11 3
-12 11 -4 6 6 10 16 7 23 -2 6 -7 8 -11 4z"/>
<path fill="#000000" stroke="none" d="M283 135 c0 -8 4 -15 9 -15 4 0 8 -8 8
-17 0 -15 2 -16 10 -3 6 10 6 16 0 18 -6 2 -10 10 -10 18 0 8 -4 14 -8 14 -5
0 -9 -7 -9 -15z"/>
<path fill="#000000" stroke="none" d="M235 120 c-6 -10 1 -14 19 -11 4 1 6
-9 2 -22 -4 -16 -1 -24 8 -24 8 0 11 9 8 23 -5 29 -27 49 -37 34z"/>
<path fill="#000000" stroke="none" d="M20 106 c0 -9 5 -16 10 -16 6 0 10 4
10 9 0 6 -4 13 -10 16 -5 3 -10 -1 -10 -9z"/>
<path fill="#000000" stroke="none" d="M196 105 c-3 -8 -1 -15 4 -15 6 0 10 7
10 15 0 8 -2 15 -4 15 -2 0 -6 -7 -10 -15z"/>
<path fill="#000000" stroke="none" d="M125 100 c-3 -5 1 -10 9 -10 9 0 16 5
16 10 0 6 -4 10 -9 10 -6 0 -13 -4 -16 -10z"/>
<path fill="#000000" stroke="none" d="M130 70 c-13 -8 -12 -10 3 -10 9 0 17
5 17 10 0 12 -1 12 -20 0z"/>
<path fill="#000000" stroke="none" d="M207 73 c-4 -3 -7 -13 -7 -22 1 -13 3
-13 11 2 11 19 8 33 -4 20z"/>
<path fill="#000000" stroke="none" d="M121 38 c-1 -20 14 -24 25 -6 4 6 3 8
-4 4 -5 -3 -13 0 -15 6 -3 8 -6 6 -6 -4z"/>
<path fill="#000000" stroke="none" d="M257 33 c7 -17 23 -17 23 0 0 8 -6 14
-14 14 -8 0 -12 -6 -9 -14z"/>
<path fill="#000000" stroke="none" d="M210 30 c-8 -5 -11 -12 -7 -16 4 -4 13
-2 19 4 15 15 7 24 -12 12z"/>
</g>
</svg>
