<?xml version="1.0" standalone="no"?>
<!DOCTYPE svg PUBLIC "-//W3C//DTD SVG 20010904//EN"
 "http://www.w3.org/TR/2001/REC-SVG-20010904/DTD/svg10.dtd">
<svg version="1.0" xmlns="http://www.w3.org/2000/svg"
 width="32.000000pt" height="32.000000pt" viewBox="0 0 32.000000 32.000000"
 preserveAspectRatio="xMidYMid meet">
<metadata>
Created by potrace 1.16, written by Peter Selinger 2001-2019
</metadata>
<g transform="translate(0.000000,32.000000) scale(0.100000,-0.100000)"
fill="#000000" stroke="none">
<path fill="#000000" stroke="none" d="M209 301 c-23 -19 -23 -19 -5 -40 20
-22 41 -18 32 6 -4 10 0 14 17 11 33 -5 26 -55 -13 -90 -36 -33 -50 -35 -50
-9 0 27 -39 54 -56 40 -7 -6 -18 -8 -24 -4 -5 3 -13 -1 -16 -10 -4 -8 -14 -14
-23 -13 -9 2 -15 -3 -14 -9 2 -7 -4 -13 -12 -13 -19 0 -48 -44 -43 -67 2 -12
11 -17 26 -15 24 4 30 -13 8 -21 -15 -6 -16 -23 -3 -44 20 -32 107 -3 107 34
0 6 7 13 15 17 11 4 15 -1 15 -18 0 -27 25 -53 34 -37 4 6 13 8 20 5 19 -7 24
6 15 36 -9 25 -9 25 -5 -2 2 -16 -1 -28 -5 -28 -5 0 -10 12 -10 28 l-1 27 -9
-30 c-7 -25 -7 -23 -4 12 4 31 2 43 -8 43 -8 0 -12 -13 -11 -37 1 -24 0 -28
-3 -11 -2 16 -7 28 -11 28 -15 0 -34 -18 -46 -41 -13 -27 -70 -39 -90 -19 -8
9 -3 10 19 5 l30 -6 -30 14 c-29 13 -29 14 -8 21 19 6 21 10 10 27 -10 16 -9
21 3 29 9 6 10 10 3 10 -7 0 -17 -8 -22 -17 -8 -14 -11 -15 -11 -3 -1 10 -4 9
-10 -5 -8 -18 -9 -18 -9 -2 -1 26 17 57 33 57 8 0 19 -7 26 -15 25 -30 77 -12
65 24 -10 31 -26 26 -19 -6 l6 -28 -14 25 c-12 21 -12 26 -1 33 7 4 17 6 22 2
5 -3 12 -1 16 5 3 5 12 10 18 10 8 0 8 -3 2 -8 -5 -4 -11 -20 -13 -37 -4 -36
14 -23 21 15 4 24 4 24 6 -2 1 -31 11 -34 44 -17 47 26 78 89 56 115 -18 22
-55 14 -51 -11 3 -19 3 -19 -15 -2 -17 18 -17 19 1 33 24 17 68 18 84 2 26
-26 8 -110 -31 -140 -15 -12 -18 -20 -11 -25 13 -9 24 -83 12 -83 -4 0 -8 16
-8 35 0 28 -4 35 -20 35 -13 0 -20 -7 -20 -20 0 -13 5 -17 14 -14 10 4 16 -2
18 -18 5 -36 34 -30 30 6 -3 22 2 34 20 48 20 16 21 20 7 31 -13 10 -14 16 -3
42 7 17 13 44 14 61 0 58 -63 84 -111 45z"/>
<path fill="#ffffff" stroke="none" d="M100 155 c0 -30 -31 -10 -36 22 -2 9 3
10 17 3 10 -6 19 -17 19 -25z"/>
</g>
</svg>
