<?xml version="1.0" standalone="no"?>
<!DOCTYPE svg PUBLIC "-//W3C//DTD SVG 20010904//EN"
 "http://www.w3.org/TR/2001/REC-SVG-20010904/DTD/svg10.dtd">
<svg version="1.0" xmlns="http://www.w3.org/2000/svg"
 width="32.000000pt" height="32.000000pt" viewBox="0 0 32.000000 32.000000"
 preserveAspectRatio="xMidYMid meet">
<metadata>
Created by potrace 1.16, written by Peter Selinger 2001-2019
</metadata>
<g transform="translate(0.000000,32.000000) scale(0.100000,-0.100000)"
fill="#000000" stroke="none">
<path fill="#000000" stroke="none" d="M79 293 c-9 -10 -13 -36 -11 -75 2 -51
0 -58 -16 -58 -25 0 -55 -34 -50 -57 3 -12 11 -17 26 -16 18 2 22 -2 23 -30 1
-17 1 -39 0 -47 -1 -10 1 -11 6 -4 8 11 47 34 56 34 3 0 3 -9 0 -20 -5 -17 0
-20 27 -20 20 0 38 7 45 17 13 17 14 17 33 0 14 -13 32 -17 59 -15 l38 3 -3
59 c-2 45 -8 65 -27 88 -14 16 -25 35 -25 42 0 6 -24 35 -53 64 -57 56 -101
68 -128 35z"/>
<path fill="#ffffff" stroke="none" d="M163 280 c9 -11 13 -20 8 -20 -4 0 -6
-11 -3 -25 2 -14 9 -22 14 -19 5 3 7 12 4 20 -3 8 0 11 10 7 8 -3 13 -12 10
-19 -3 -9 0 -11 12 -7 15 6 15 5 3 -11 -8 -9 -20 -15 -27 -12 -8 3 -11 0 -7
-9 3 -9 -2 -18 -12 -21 -13 -5 -14 -9 -4 -15 8 -5 17 -3 22 4 5 8 7 4 5 -9 -2
-11 3 -28 10 -37 8 -9 11 -25 7 -37 -9 -30 -49 -23 -53 9 -2 15 0 21 7 17 6
-4 11 0 11 10 0 13 -3 14 -15 4 -25 -21 -45 -5 -43 35 1 20 5 38 10 41 12 8
10 74 -3 74 -5 0 -7 -5 -3 -11 4 -8 1 -8 -13 -1 -17 10 -19 7 -22 -30 -1 -22
3 -46 10 -54 9 -12 5 -16 -22 -26 -19 -7 -38 -11 -43 -10 -5 2 -13 -3 -17 -10
-6 -8 -9 -9 -9 -2 0 16 20 30 51 37 24 6 25 9 19 56 -8 66 2 91 37 91 16 0 36
-9 46 -20z"/>
<path fill="#ffffff" stroke="none" d="M240 179 c0 -11 -4 -17 -10 -14 -5 3
-10 13 -10 21 0 8 5 14 10 14 6 0 10 -9 10 -21z"/>
<path fill="#ffffff" stroke="none" d="M280 135 c7 -9 11 -18 8 -20 -9 -10
-38 7 -38 21 0 18 14 18 30 -1z"/>
<path fill="#ffffff" stroke="none" d="M112 117 c9 -15 -20 -67 -37 -67 -17 0
-20 36 -4 46 6 3 15 1 19 -6 5 -8 9 -7 14 6 4 10 4 15 0 11 -4 -4 -13 -2 -20
4 -8 7 -14 7 -19 -1 -3 -5 -12 -10 -18 -10 -19 1 20 27 40 27 10 0 21 -5 25
-10z"/>
<path fill="#ffffff" stroke="none" d="M259 105 c8 0 15 -7 16 -16 2 -9 -3
-16 -10 -16 -7 0 -11 7 -8 14 3 8 0 13 -7 11 -7 -2 -15 4 -17 12 -3 9 -1 11 4
5 4 -5 14 -10 22 -10z"/>
<path fill="#ffffff" stroke="none" d="M150 54 c0 -8 -5 -12 -10 -9 -6 4 -8
11 -5 16 9 14 15 11 15 -7z"/>
</g>
</svg>
