<?xml version="1.0" standalone="no"?>
<!DOCTYPE svg PUBLIC "-//W3C//DTD SVG 20010904//EN"
 "http://www.w3.org/TR/2001/REC-SVG-20010904/DTD/svg10.dtd">
<svg version="1.0" xmlns="http://www.w3.org/2000/svg"
 width="32.000000pt" height="32.000000pt" viewBox="0 0 32.000000 32.000000"
 preserveAspectRatio="xMidYMid meet">
<metadata>
Created by potrace 1.16, written by Peter Selinger 2001-2019
</metadata>
<g transform="translate(0.000000,32.000000) scale(0.100000,-0.100000)"
fill="#000000" stroke="none">
<path fill="#000000" stroke="none" d="M72 298 c-14 -14 2 -38 27 -38 14 1 13
3 -3 15 -19 14 -18 15 5 24 22 9 22 10 4 10 -12 1 -26 -4 -33 -11z"/>
<path fill="#000000" stroke="none" d="M165 287 c10 -8 15 -19 11 -25 -4 -7 1
-9 15 -7 17 3 19 1 9 -10 -14 -17 1 -27 17 -10 10 11 5 19 -22 39 -18 14 -37
26 -41 26 -4 0 0 -6 11 -13z"/>
<path fill="#000000" stroke="none" d="M45 260 c3 -5 8 -10 11 -10 2 0 4 5 4
10 0 6 -5 10 -11 10 -5 0 -7 -4 -4 -10z"/>
<path fill="#000000" stroke="none" d="M145 260 c3 -5 8 -10 11 -10 2 0 4 5 4
10 0 6 -5 10 -11 10 -5 0 -7 -4 -4 -10z"/>
<path fill="#000000" stroke="none" d="M140 236 c0 -2 7 -9 15 -16 9 -7 15 -8
15 -2 0 5 -7 12 -15 16 -8 3 -15 4 -15 2z"/>
<path fill="#000000" stroke="none" d="M201 200 c-1 -9 4 -21 11 -28 9 -9 9
-15 1 -23 -13 -13 -6 -39 9 -39 6 0 6 6 -1 14 -7 9 -8 17 -2 20 5 3 11 0 14
-6 4 -10 7 -11 18 0 11 10 10 12 -6 12 -18 0 -18 1 0 20 15 17 16 23 5 33 -10
10 -12 9 -7 -6 8 -22 -25 -20 -35 3 -6 13 -7 13 -7 0z"/>
<path fill="#000000" stroke="none" d="M44 168 c-3 -4 0 -8 7 -8 8 0 7 -5 -2
-17 -13 -16 -12 -17 3 -4 10 7 25 10 34 7 13 -5 14 -4 6 7 -7 8 -9 17 -6 20 4
3 -4 5 -16 4 -12 -1 -24 -5 -26 -9z"/>
<path fill="#000000" stroke="none" d="M94 113 c2 -10 6 -17 10 -16 15 3 16
11 2 22 -12 10 -14 9 -12 -6z"/>
<path fill="#000000" stroke="none" d="M193 84 c0 -16 13 -19 21 -5 3 5 0 11
-7 14 -8 3 -14 -1 -14 -9z"/>
</g>
</svg>
