<?xml version="1.0" standalone="no"?>
<!DOCTYPE svg PUBLIC "-//W3C//DTD SVG 20010904//EN"
 "http://www.w3.org/TR/2001/REC-SVG-20010904/DTD/svg10.dtd">
<svg version="1.0" xmlns="http://www.w3.org/2000/svg"
 width="32.000000pt" height="32.000000pt" viewBox="0 0 32.000000 32.000000"
 preserveAspectRatio="xMidYMid meet">
<metadata>
Created by potrace 1.16, written by Peter Selinger 2001-2019
</metadata>
<g transform="translate(0.000000,32.000000) scale(0.100000,-0.100000)"
fill="#000000" stroke="none">
<path fill="#000000" stroke="none" d="M0 160 l0 -160 73 1 c67 0 70 1 40 12
-17 7 -34 15 -38 18 -11 12 89 20 135 11 l45 -9 -35 -16 -35 -15 68 -1 67 -1
0 160 0 160 -160 0 -160 0 0 -160z"/>
<path fill="#ffffff" stroke="none" d="M72 283 c15 -16 30 -41 34 -57 7 -29 7
-29 16 -7 6 18 11 21 22 12 7 -6 20 -9 29 -5 10 3 17 -1 20 -13 3 -14 8 -10
20 17 21 47 61 84 83 76 15 -6 15 -9 -5 -30 -20 -21 -20 -24 -5 -30 15 -6 15
-8 0 -31 -9 -13 -13 -30 -10 -38 7 -20 -14 -31 -31 -17 -18 15 -19 6 -5 -21
18 -32 1 -43 -26 -18 -13 13 -25 17 -25 11 -1 -7 -2 -18 -3 -24 0 -7 -14 -13
-31 -13 -17 0 -31 6 -31 13 -1 6 -2 17 -3 24 0 6 -12 2 -25 -11 -27 -25 -42
-15 -31 20 5 14 3 19 -3 15 -16 -10 -24 11 -12 33 8 17 6 22 -11 31 -16 9 -18
14 -8 26 9 11 8 18 -5 32 -16 19 -13 32 9 32 6 0 23 -12 37 -27z"/>
</g>
</svg>
