<?xml version="1.0" standalone="no"?>
<!DOCTYPE svg PUBLIC "-//W3C//DTD SVG 20010904//EN"
 "http://www.w3.org/TR/2001/REC-SVG-20010904/DTD/svg10.dtd">
<svg version="1.0" xmlns="http://www.w3.org/2000/svg"
 width="32.000000pt" height="32.000000pt" viewBox="0 0 32.000000 32.000000"
 preserveAspectRatio="xMidYMid meet">
<metadata>
Created by potrace 1.16, written by Peter Selinger 2001-2019
</metadata>
<g transform="translate(0.000000,32.000000) scale(0.100000,-0.100000)"
fill="#000000" stroke="none">
<path fill="#000000" stroke="none" d="M30 264 c-23 -54 -24 -70 -5 -104 19
-33 19 -70 -1 -98 -15 -21 -15 -25 2 -43 15 -16 31 -19 117 -19 126 0 178 14
174 46 -2 13 -6 26 -9 30 -4 3 -2 14 4 23 13 21 2 95 -13 86 -5 -4 -9 -15 -9
-26 0 -11 -7 -22 -15 -25 -14 -6 -13 -8 1 -19 11 -8 13 -14 6 -19 -16 -9 -44
5 -38 20 3 7 0 15 -7 18 -7 2 -2 5 11 5 20 1 26 9 20 29 -1 4 -9 5 -17 4 -12
-3 -12 -1 -3 10 8 11 8 21 -3 42 -14 26 -14 27 1 15 9 -7 20 -24 25 -37 5 -14
12 -22 15 -19 10 9 -5 58 -16 52 -5 -3 -13 3 -19 12 -8 15 -12 16 -23 5 -10
-10 -10 -17 -1 -31 10 -16 9 -18 -8 -14 -10 3 -25 0 -33 -6 -14 -12 -40 13
-89 83 -26 38 -45 32 -67 -20z"/>
<path fill="#ffffff" stroke="none" d="M94 263 c31 -50 72 -87 85 -78 6 3 11
0 11 -7 0 -10 3 -9 10 2 8 12 10 12 16 -3 10 -26 -2 -48 -23 -40 -15 6 -16 4
-6 -8 7 -8 15 -35 18 -59 3 -25 2 -39 -1 -32 -3 6 -10 10 -15 6 -5 -3 -8 -2
-7 3 1 4 -2 18 -6 31 -7 20 -10 21 -24 10 -15 -12 -16 -11 -3 5 9 11 10 21 4
30 -5 6 -10 22 -11 35 -1 26 -46 84 -57 74 -5 -4 -5 -2 -1 5 3 6 2 14 -4 18
-25 15 -7 -23 22 -47 18 -14 29 -30 25 -35 -5 -4 -15 1 -23 11 -10 15 -14 16
-15 5 0 -8 -4 -6 -9 6 -6 14 -9 15 -10 5 0 -12 -2 -12 -11 2 -6 11 -16 15 -26
11 -13 -5 -15 -3 -9 13 5 10 13 31 18 47 13 36 23 34 52 -10z"/>
<path fill="#ffffff" stroke="none" d="M265 160 c-3 -5 -12 -10 -18 -10 -7 0
-6 4 3 10 19 12 23 12 15 0z"/>
</g>
</svg>
