<?xml version="1.0" standalone="no"?>
<!DOCTYPE svg PUBLIC "-//W3C//DTD SVG 20010904//EN"
 "http://www.w3.org/TR/2001/REC-SVG-20010904/DTD/svg10.dtd">
<svg version="1.0" xmlns="http://www.w3.org/2000/svg"
 width="32.000000pt" height="32.000000pt" viewBox="0 0 32.000000 32.000000"
 preserveAspectRatio="xMidYMid meet">
<metadata>
Created by potrace 1.16, written by Peter Selinger 2001-2019
</metadata>
<g transform="translate(0.000000,32.000000) scale(0.100000,-0.100000)"
fill="#000000" stroke="none">
<path fill="#000000" stroke="none" d="M0 305 c0 -9 9 -15 24 -15 13 0 29 7
36 15 11 13 7 15 -24 15 -25 0 -36 -4 -36 -15z"/>
<path fill="#000000" stroke="none" d="M310 285 c0 -8 -13 -30 -30 -48 -35
-41 -40 -63 -10 -47 27 15 25 -4 -2 -24 -13 -9 -17 -14 -10 -11 6 3 12 2 12
-2 0 -5 -6 -15 -12 -22 -11 -11 -9 -11 10 -2 29 15 29 -2 0 -23 -13 -9 -17
-14 -10 -11 7 4 12 0 12 -10 0 -9 5 -13 10 -10 24 15 7 -24 -20 -43 -36 -27
-40 -27 -40 -3 0 10 -7 22 -16 25 -10 4 -13 2 -8 -6 5 -8 2 -9 -9 -5 -11 4
-17 1 -17 -8 0 -9 6 -12 15 -9 8 4 15 1 15 -5 0 -7 -25 -11 -70 -11 -40 0 -70
4 -70 10 0 6 -13 10 -30 10 -20 0 -30 -5 -30 -15 0 -13 24 -15 160 -15 l160 0
0 150 c0 83 -2 150 -5 150 -3 0 -5 -7 -5 -15z"/>
<path fill="#ffffff" stroke="none" d="M310 208 c0 -30 -1 -31 -14 -12 -10 13
-11 23 -4 31 15 19 18 16 18 -19z"/>
<path fill="#ffffff" stroke="none" d="M310 160 c0 -5 -7 -10 -15 -10 -8 0
-15 5 -15 10 0 6 7 10 15 10 8 0 15 -4 15 -10z"/>
<path fill="#ffffff" stroke="none" d="M310 100 c0 -5 -7 -10 -15 -10 -8 0
-15 5 -15 10 0 6 7 10 15 10 8 0 15 -4 15 -10z"/>
<path fill="#000000" stroke="none" d="M187 279 c7 -7 15 -10 18 -7 3 3 -2 9
-12 12 -14 6 -15 5 -6 -5z"/>
<path fill="#000000" stroke="none" d="M108 150 c2 -16 6 -30 8 -30 2 0 4 14
4 30 0 17 -4 30 -8 30 -5 0 -7 -13 -4 -30z"/>
<path fill="#000000" stroke="none" d="M143 145 c0 -22 2 -30 4 -17 2 12 2 30
0 40 -3 9 -5 -1 -4 -23z"/>
<path fill="#000000" stroke="none" d="M172 155 c0 -16 2 -22 5 -12 2 9 2 23
0 30 -3 6 -5 -1 -5 -18z"/>
<path fill="#000000" stroke="none" d="M200 105 c0 -8 -4 -15 -10 -15 -5 0
-10 4 -10 10 0 8 -72 -19 -86 -33 -8 -8 18 -3 33 6 8 5 13 -3 16 -25 4 -32 4
-32 5 6 2 35 4 38 27 32 18 -5 27 -1 35 14 7 14 7 20 0 20 -5 0 -10 -7 -10
-15z"/>
<path fill="#000000" stroke="none" d="M111 34 c0 -11 3 -14 6 -6 3 7 2 16 -1
19 -3 4 -6 -2 -5 -13z"/>
</g>
</svg>
