<?xml version="1.0" standalone="no"?>
<!DOCTYPE svg PUBLIC "-//W3C//DTD SVG 20010904//EN"
 "http://www.w3.org/TR/2001/REC-SVG-20010904/DTD/svg10.dtd">
<svg version="1.0" xmlns="http://www.w3.org/2000/svg"
 width="32.000000pt" height="32.000000pt" viewBox="0 0 32.000000 32.000000"
 preserveAspectRatio="xMidYMid meet">
<metadata>
Created by potrace 1.16, written by Peter Selinger 2001-2019
</metadata>
<g transform="translate(0.000000,32.000000) scale(0.100000,-0.100000)"
fill="#000000" stroke="none">
<path fill="#000000" stroke="none" d="M32 292 c-29 -3 -32 -6 -32 -38 l0 -35
88 3 87 3 3 32 3 31 -49 -1 c-26 0 -53 2 -58 4 -5 2 -24 3 -42 1z"/>
<path fill="#000000" stroke="none" d="M74 141 c3 -13 0 -33 -5 -43 -18 -34
-5 -38 52 -14 49 20 57 21 69 7 13 -13 12 -14 -4 -8 -14 5 -17 2 -14 -15 2
-12 9 -23 15 -26 19 -6 28 28 13 51 -11 18 -9 23 10 37 17 13 20 19 10 25 -8
5 -11 4 -7 -2 9 -15 -63 -40 -97 -33 -16 3 -33 14 -38 25 -7 17 -8 17 -4 -4z"/>
<path fill="#ffffff" stroke="none" d="M115 100 c-28 -12 -37 -12 -30 0 3 6
16 10 28 9 21 0 21 -1 2 -9z"/>
<path fill="#000000" stroke="none" d="M10 50 c0 -5 7 -10 16 -10 8 0 12 5 9
10 -3 6 -10 10 -16 10 -5 0 -9 -4 -9 -10z"/>
<path fill="#000000" stroke="none" d="M77 53 c-13 -12 -7 -26 6 -15 6 5 23
12 37 15 22 4 21 4 -6 6 -17 0 -34 -2 -37 -6z"/>
</g>
</svg>
