<?xml version="1.0" standalone="no"?>
<!DOCTYPE svg PUBLIC "-//W3C//DTD SVG 20010904//EN"
 "http://www.w3.org/TR/2001/REC-SVG-20010904/DTD/svg10.dtd">
<svg version="1.0" xmlns="http://www.w3.org/2000/svg"
 width="32.000000pt" height="32.000000pt" viewBox="0 0 32.000000 32.000000"
 preserveAspectRatio="xMidYMid meet">
<metadata>
Created by potrace 1.16, written by Peter Selinger 2001-2019
</metadata>
<g transform="translate(0.000000,32.000000) scale(0.100000,-0.100000)"
fill="#000000" stroke="none">
<path fill="#000000" stroke="none" d="M0 306 c0 -14 39 -18 162 -17 11 0 17
-11 20 -37 l3 -37 -92 3 -93 3 0 -110 0 -111 160 0 160 0 0 160 0 160 -160 0
c-132 0 -160 -2 -160 -14z"/>
<path fill="#ffffff" stroke="none" d="M117 119 c27 -2 27 -2 3 -6 -14 -2 -30
-11 -36 -19 -9 -11 -11 -5 -11 28 0 34 1 38 8 20 6 -15 17 -22 36 -23z"/>
<path fill="#ffffff" stroke="none" d="M50 135 c0 -8 -7 -15 -15 -15 -8 0 -15
7 -15 15 0 8 7 15 15 15 8 0 15 -7 15 -15z"/>
<path fill="#ffffff" stroke="none" d="M50 95 c0 -8 -7 -15 -15 -15 -8 0 -15
7 -15 15 0 8 7 15 15 15 8 0 15 -7 15 -15z"/>
<path fill="#ffffff" stroke="none" d="M200 90 c0 -5 -4 -10 -10 -10 -5 0 -10
5 -10 10 0 6 5 10 10 10 6 0 10 -4 10 -10z"/>
<path fill="#ffffff" stroke="none" d="M120 52 c-14 -2 -31 -9 -37 -14 -9 -8
-13 -6 -13 4 0 22 7 25 42 19 30 -5 31 -6 8 -9z"/>
<path fill="#ffffff" stroke="none" d="M35 50 c3 -5 -1 -10 -9 -10 -9 0 -16 5
-16 10 0 6 4 10 9 10 6 0 13 -4 16 -10z"/>
<path fill="#000000" stroke="none" d="M15 270 c-3 -6 2 -13 11 -17 16 -6 16
-7 -2 -14 -16 -6 -16 -8 -2 -8 24 -1 33 18 12 26 -16 6 -16 7 2 14 16 6 16 8
2 8 -9 1 -20 -4 -23 -9z"/>
<path fill="#000000" stroke="none" d="M60 266 c0 -4 7 -14 15 -22 8 -9 15
-11 15 -6 0 5 -7 15 -15 22 -8 7 -15 9 -15 6z"/>
<path fill="#000000" stroke="none" d="M106 251 c-4 -5 -2 -12 3 -15 5 -4 12
-2 15 3 4 5 2 12 -3 15 -5 4 -12 2 -15 -3z"/>
<path fill="#000000" stroke="none" d="M140 244 c0 -8 6 -11 15 -8 8 4 15 9
15 13 0 4 -7 8 -15 8 -8 0 -15 -6 -15 -13z"/>
</g>
</svg>
