<?xml version="1.0" standalone="no"?>
<!DOCTYPE svg PUBLIC "-//W3C//DTD SVG 20010904//EN"
 "http://www.w3.org/TR/2001/REC-SVG-20010904/DTD/svg10.dtd">
<svg version="1.0" xmlns="http://www.w3.org/2000/svg"
 width="32.000000pt" height="32.000000pt" viewBox="0 0 32.000000 32.000000"
 preserveAspectRatio="xMidYMid meet">
<metadata>
Created by potrace 1.16, written by Peter Selinger 2001-2019
</metadata>
<g transform="translate(0.000000,32.000000) scale(0.100000,-0.100000)"
fill="#000000" stroke="none">
<path fill="#000000" stroke="none" d="M0 305 c0 -10 10 -15 30 -15 17 0 30 5
30 10 0 6 5 10 11 10 5 0 7 -4 4 -10 -4 -6 15 -10 49 -10 l56 0 0 -35 0 -35
-90 0 c-50 0 -90 -4 -90 -9 0 -4 16 -7 35 -4 19 2 35 -1 35 -6 0 -5 -15 -9
-33 -8 -30 2 -32 0 -34 -33 -1 -19 0 -29 3 -22 3 6 17 12 30 12 21 0 24 -4 24
-40 0 -23 -5 -40 -11 -40 -8 0 -8 -5 1 -15 10 -12 9 -15 -4 -16 -9 -1 -22 -2
-28 -3 -7 0 -14 -9 -16 -19 -3 -16 10 -17 157 -17 l161 0 0 160 0 160 -52 0
c-49 -1 -51 -2 -34 -15 16 -12 22 -12 34 -2 13 10 14 9 3 -13 l-12 -25 20 24
c22 25 28 13 10 -20 -5 -11 -14 -17 -19 -14 -5 3 -12 0 -16 -6 -4 -8 -3 -9 4
-5 7 4 12 2 12 -3 0 -6 -4 -12 -10 -12 -5 -1 -14 -2 -19 -3 -5 0 -13 -5 -18
-10 -5 -5 -2 -6 6 -1 9 5 12 3 9 -6 -3 -8 -12 -13 -21 -13 -9 1 -32 2 -49 4
l-33 2 33 9 c17 5 32 13 32 17 0 5 7 17 16 28 8 10 13 13 9 7 -4 -9 -1 -11 9
-7 9 3 16 10 16 16 0 5 -4 7 -9 4 -5 -3 -11 1 -15 9 -3 8 -11 15 -18 15 -9 0
-8 -3 2 -10 13 -8 13 -10 -1 -10 -23 0 -32 28 -11 33 9 3 -31 5 -90 6 -90 1
-108 -2 -108 -14z"/>
<path fill="#ffffff" stroke="none" d="M120 206 c0 -9 -30 -14 -35 -6 -4 6 3
10 14 10 12 0 21 -2 21 -4z"/>
<path fill="#ffffff" stroke="none" d="M74 168 c-3 -4 -1 -8 4 -8 6 0 9 -8 8
-17 -1 -22 25 -24 42 -3 10 12 12 5 10 -40 -3 -50 -5 -55 -26 -55 -12 0 -27
-7 -32 -15 -8 -12 -10 -11 -10 7 0 12 4 25 10 28 5 3 10 14 9 23 0 14 -2 13
-10 -3 -8 -18 -9 -18 -8 5 3 65 0 70 -31 70 -17 0 -30 4 -30 10 0 5 16 9 35 8
19 -1 32 -5 29 -10z"/>
<path fill="#ffffff" stroke="none" d="M238 168 c-6 -18 -25 -21 -31 -5 -3 8
3 13 15 14 10 1 18 -3 16 -9z"/>
<path fill="#ffffff" stroke="none" d="M170 102 c0 -20 -5 -44 -10 -52 -7 -11
-10 2 -10 43 0 36 4 56 10 52 6 -3 10 -23 10 -43z"/>
<path fill="#ffffff" stroke="none" d="M196 79 c-8 -52 -16 -45 -16 12 1 42 3
50 11 36 6 -9 8 -31 5 -48z"/>
<path fill="#ffffff" stroke="none" d="M227 118 c-3 -8 -6 -5 -6 6 -1 11 2 17
5 13 3 -3 4 -12 1 -19z"/>
<path fill="#ffffff" stroke="none" d="M227 58 c-3 -8 -6 -5 -6 6 -1 11 2 17
5 13 3 -3 4 -12 1 -19z"/>
<path fill="#ffffff" stroke="none" d="M247 28 c-3 -8 -6 -5 -6 6 -1 11 2 17
5 13 3 -3 4 -12 1 -19z"/>
<path fill="#000000" stroke="none" d="M112 85 c0 -16 2 -22 5 -12 2 9 2 23 0
30 -3 6 -5 -1 -5 -18z"/>
<path fill="#000000" stroke="none" d="M2 90 c0 -14 2 -19 5 -12 2 6 2 18 0
25 -3 6 -5 1 -5 -13z"/>
</g>
</svg>
