<?xml version="1.0" standalone="no"?>
<!DOCTYPE svg PUBLIC "-//W3C//DTD SVG 20010904//EN"
 "http://www.w3.org/TR/2001/REC-SVG-20010904/DTD/svg10.dtd">
<svg version="1.0" xmlns="http://www.w3.org/2000/svg"
 width="32.000000pt" height="32.000000pt" viewBox="0 0 32.000000 32.000000"
 preserveAspectRatio="xMidYMid meet">
<metadata>
Created by potrace 1.16, written by Peter Selinger 2001-2019
</metadata>
<g transform="translate(0.000000,32.000000) scale(0.100000,-0.100000)"
fill="#000000" stroke="none">
<path fill="#000000" stroke="none" d="M4 275 c-3 -7 -4 -22 -2 -32 3 -16 14
-18 88 -18 l85 0 3 31 3 31 -86 1 c-66 1 -87 -2 -91 -13z"/>
<path fill="#ffffff" stroke="none" d="M35 270 c-17 -7 -17 -9 -2 -9 9 -1 17
-8 17 -16 0 -9 -9 -15 -22 -14 -22 0 -22 1 -3 9 17 7 17 9 3 9 -10 1 -18 8
-18 16 0 9 9 15 23 14 21 0 21 -1 2 -9z"/>
<path fill="#ffffff" stroke="none" d="M90 238 c0 -10 -2 -10 -9 1 -7 11 -9
11 -14 0 -3 -8 -6 -1 -6 14 -1 25 1 27 14 13 8 -8 15 -21 15 -28z"/>
<path fill="#ffffff" stroke="none" d="M130 245 c0 -8 -7 -15 -15 -15 -8 0
-15 7 -15 15 0 8 7 15 15 15 8 0 15 -7 15 -15z"/>
<path fill="#ffffff" stroke="none" d="M170 251 c0 -5 -7 -11 -15 -15 -9 -3
-15 0 -15 9 0 8 7 15 15 15 8 0 15 -4 15 -9z"/>
<path fill="#000000" stroke="none" d="M210 150 c0 -5 -7 -10 -15 -10 -8 0
-15 -6 -15 -13 0 -23 43 -13 47 11 1 12 -2 22 -7 22 -6 0 -10 -4 -10 -10z"/>
<path fill="#000000" stroke="none" d="M270 130 c0 -5 5 -10 10 -10 6 0 10 5
10 10 0 6 -4 10 -10 10 -5 0 -10 -4 -10 -10z"/>
<path fill="#000000" stroke="none" d="M247 54 c-16 -8 -26 -21 -24 -27 5 -15
47 -22 48 -8 3 21 4 26 12 39 11 16 -1 15 -36 -4z"/>
<path fill="#000000" stroke="none" d="M191 34 c0 -11 3 -14 6 -6 3 7 2 16 -1
19 -3 4 -6 -2 -5 -13z"/>
</g>
</svg>
