<?xml version="1.0" standalone="no"?>
<!DOCTYPE svg PUBLIC "-//W3C//DTD SVG 20010904//EN"
 "http://www.w3.org/TR/2001/REC-SVG-20010904/DTD/svg10.dtd">
<svg version="1.0" xmlns="http://www.w3.org/2000/svg"
 width="32.000000pt" height="32.000000pt" viewBox="0 0 32.000000 32.000000"
 preserveAspectRatio="xMidYMid meet">
<metadata>
Created by potrace 1.16, written by Peter Selinger 2001-2019
</metadata>
<g transform="translate(0.000000,32.000000) scale(0.100000,-0.100000)"
fill="#000000" stroke="none">
<path fill="#000000" stroke="none" d="M0 305 c0 -12 17 -15 90 -15 l90 0 0
-35 0 -35 -90 0 -90 0 0 -110 0 -111 160 2 c159 2 160 2 160 24 0 18 -4 22
-20 18 -11 -3 -20 -10 -20 -15 0 -5 6 -6 13 -2 6 4 9 4 5 -1 -4 -4 -33 -9 -64
-12 l-57 -4 7 47 c3 26 6 60 6 75 0 19 5 29 15 29 8 0 15 9 15 20 0 29 36 60
70 60 28 0 30 2 30 40 l0 40 -160 0 c-136 0 -160 -2 -160 -15z"/>
<path fill="#000000" stroke="none" d="M313 125 c0 -22 2 -30 4 -17 2 12 2 30
0 40 -3 9 -5 -1 -4 -23z"/>
</g>
</svg>
