<?xml version="1.0" standalone="no"?>
<!DOCTYPE svg PUBLIC "-//W3C//DTD SVG 20010904//EN"
 "http://www.w3.org/TR/2001/REC-SVG-20010904/DTD/svg10.dtd">
<svg version="1.0" xmlns="http://www.w3.org/2000/svg"
 width="32.000000pt" height="32.000000pt" viewBox="0 0 32.000000 32.000000"
 preserveAspectRatio="xMidYMid meet">
<metadata>
Created by potrace 1.16, written by Peter Selinger 2001-2019
</metadata>
<g transform="translate(0.000000,32.000000) scale(0.100000,-0.100000)"
fill="#000000" stroke="none">
<path fill="#000000" stroke="none" d="M0 305 c0 -12 16 -15 78 -16 42 -1 83
-1 90 0 7 1 12 -11 12 -34 l0 -35 -90 0 -90 0 0 -110 0 -110 94 0 95 0 3 28
c4 36 41 38 48 2 4 -21 11 -26 43 -27 l37 -1 -1 81 c-1 73 -2 78 -11 45 -12
-46 -37 -57 -60 -28 -30 37 -15 77 18 49 15 -12 29 -6 29 14 1 7 6 11 13 10 9
-2 12 19 12 72 l0 75 -160 0 c-136 0 -160 -2 -160 -15z"/>
<path fill="#ffffff" stroke="none" d="M221 113 c0 -5 2 -16 4 -25 2 -10 -3
-18 -11 -18 -8 0 -14 10 -14 25 0 22 19 38 21 18z"/>
<path fill="#ffffff" stroke="none" d="M298 35 c6 11 12 15 12 8 0 -13 -17
-26 -38 -29 -8 -2 -11 3 -8 13 3 8 7 22 7 31 1 9 4 4 8 -13 6 -28 7 -29 19
-10z"/>
<path fill="#000000" stroke="none" d="M10 265 c0 -8 8 -15 18 -16 14 0 14 -2
-3 -9 -19 -8 -19 -9 3 -9 13 -1 22 5 22 14 0 8 -8 15 -17 16 -15 0 -15 2 2 9
19 8 19 9 -2 9 -14 1 -23 -5 -23 -14z"/>
<path fill="#000000" stroke="none" d="M61 253 c0 -15 3 -22 6 -14 5 11 7 11
14 0 7 -11 9 -11 9 -1 0 7 -7 20 -15 28 -13 14 -15 12 -14 -13z"/>
<path fill="#000000" stroke="none" d="M100 245 c0 -8 7 -15 15 -15 8 0 15 7
15 15 0 8 -7 15 -15 15 -8 0 -15 -7 -15 -15z"/>
<path fill="#000000" stroke="none" d="M140 245 c0 -9 6 -12 15 -9 8 4 15 10
15 15 0 5 -7 9 -15 9 -8 0 -15 -7 -15 -15z"/>
<path fill="#000000" stroke="none" d="M257 123 c-4 -3 -7 -11 -7 -17 0 -6 5
-5 12 2 6 6 9 14 7 17 -3 3 -9 2 -12 -2z"/>
<path fill="#000000" stroke="none" d="M200 13 c0 -7 7 -13 15 -13 8 0 15 6
15 13 0 8 -7 14 -15 14 -8 0 -15 -6 -15 -14z"/>
</g>
</svg>
