<?xml version="1.0" standalone="no"?>
<!DOCTYPE svg PUBLIC "-//W3C//DTD SVG 20010904//EN"
 "http://www.w3.org/TR/2001/REC-SVG-20010904/DTD/svg10.dtd">
<svg version="1.0" xmlns="http://www.w3.org/2000/svg"
 width="32.000000pt" height="32.000000pt" viewBox="0 0 32.000000 32.000000"
 preserveAspectRatio="xMidYMid meet">
<metadata>
Created by potrace 1.16, written by Peter Selinger 2001-2019
</metadata>
<g transform="translate(0.000000,32.000000) scale(0.100000,-0.100000)"
fill="#000000" stroke="none">
<path fill="#000000" stroke="none" d="M0 305 c0 -12 16 -15 78 -16 42 -1 83
-1 90 0 7 1 12 -11 12 -34 l0 -35 -90 0 -90 0 0 -110 0 -110 131 0 131 0 -6
27 c-3 16 -9 50 -13 77 -5 40 -8 45 -14 28 -4 -11 -6 -33 -3 -47 3 -19 1 -26
-8 -23 -18 6 -23 49 -7 59 7 4 13 23 13 43 1 37 16 52 16 15 0 -11 4 -18 9
-15 4 3 6 -6 3 -20 -4 -24 -2 -26 19 -19 22 7 23 6 6 -7 -15 -11 -17 -22 -11
-66 6 -46 9 -52 30 -52 l24 0 0 160 0 160 -160 0 c-136 0 -160 -2 -160 -15z"/>
<path fill="#ffffff" stroke="none" d="M304 55 c3 -25 3 -33 -3 -20 -15 36
-23 81 -13 70 5 -5 12 -28 16 -50z"/>
<path fill="#000000" stroke="none" d="M15 270 c-3 -6 2 -13 11 -17 16 -6 16
-7 -2 -14 -16 -6 -16 -8 -2 -8 24 -1 33 18 12 26 -16 6 -16 7 2 14 16 6 16 8
2 8 -9 1 -20 -4 -23 -9z"/>
<path fill="#000000" stroke="none" d="M60 266 c0 -4 7 -14 15 -22 8 -9 15
-11 15 -6 0 5 -7 15 -15 22 -8 7 -15 9 -15 6z"/>
<path fill="#000000" stroke="none" d="M106 251 c-4 -5 -2 -12 3 -15 5 -4 12
-2 15 3 4 5 2 12 -3 15 -5 4 -12 2 -15 -3z"/>
<path fill="#000000" stroke="none" d="M140 244 c0 -8 6 -11 15 -8 8 4 15 9
15 13 0 4 -7 8 -15 8 -8 0 -15 -6 -15 -13z"/>
</g>
</svg>
