<?xml version="1.0" standalone="no"?>
<!DOCTYPE svg PUBLIC "-//W3C//DTD SVG 20010904//EN"
 "http://www.w3.org/TR/2001/REC-SVG-20010904/DTD/svg10.dtd">
<svg version="1.0" xmlns="http://www.w3.org/2000/svg"
 width="32.000000pt" height="32.000000pt" viewBox="0 0 32.000000 32.000000"
 preserveAspectRatio="xMidYMid meet">
<metadata>
Created by potrace 1.16, written by Peter Selinger 2001-2019
</metadata>
<g transform="translate(0.000000,32.000000) scale(0.100000,-0.100000)"
fill="#000000" stroke="none">
<path fill="#000000" stroke="none" d="M1 160 l-1 -160 160 0 160 0 0 160 0
160 -159 0 -159 0 -1 -160z"/>
<path fill="#ffffff" stroke="none" d="M152 276 c5 -7 8 -6 8 4 0 13 1 13 10
0 5 -8 10 -22 10 -30 0 -11 -2 -12 -8 -3 -4 7 -17 14 -27 16 -11 1 -26 7 -34
11 -10 6 -12 5 -7 -2 5 -8 0 -12 -13 -12 -12 0 -21 6 -21 13 0 17 72 19 82 3z"/>
<path fill="#ffffff" stroke="none" d="M71 227 c-10 -9 -11 -8 -5 6 3 10 9 15
12 12 3 -3 0 -11 -7 -18z"/>
<path fill="#ffffff" stroke="none" d="M97 228 c-3 -8 -6 -5 -6 6 -1 11 2 17
5 13 3 -3 4 -12 1 -19z"/>
<path fill="#ffffff" stroke="none" d="M257 98 c-3 -7 -5 -2 -5 12 0 14 2 19
5 13 2 -7 2 -19 0 -25z"/>
</g>
</svg>
