<?xml version="1.0" standalone="no"?>
<!DOCTYPE svg PUBLIC "-//W3C//DTD SVG 20010904//EN"
 "http://www.w3.org/TR/2001/REC-SVG-20010904/DTD/svg10.dtd">
<svg version="1.0" xmlns="http://www.w3.org/2000/svg"
 width="32.000000pt" height="32.000000pt" viewBox="0 0 32.000000 32.000000"
 preserveAspectRatio="xMidYMid meet">
<metadata>
Created by potrace 1.16, written by Peter Selinger 2001-2019
</metadata>
<g transform="translate(0.000000,32.000000) scale(0.100000,-0.100000)"
fill="#000000" stroke="none">
<path fill="#000000" stroke="none" d="M241 126 c-7 -8 -21 -12 -33 -8 -18 4
-20 2 -14 -21 3 -14 2 -27 -4 -29 -7 -2 -6 -13 2 -30 13 -28 50 -39 63 -18 4
6 -1 7 -12 3 -15 -6 -16 -5 -3 9 8 9 17 12 18 7 2 -5 10 -9 18 -9 16 0 19 26
4 35 -6 4 -1 14 12 25 19 15 20 20 9 34 -17 20 -45 21 -60 2z"/>
<path fill="#ffffff" stroke="none" d="M295 110 c0 -10 -12 -15 -38 -15 -36
-2 -37 -1 -20 17 19 21 58 20 58 -2z"/>
</g>
</svg>
