<?xml version="1.0" standalone="no"?>
<!DOCTYPE svg PUBLIC "-//W3C//DTD SVG 20010904//EN"
 "http://www.w3.org/TR/2001/REC-SVG-20010904/DTD/svg10.dtd">
<svg version="1.0" xmlns="http://www.w3.org/2000/svg"
 width="32.000000pt" height="32.000000pt" viewBox="0 0 32.000000 32.000000"
 preserveAspectRatio="xMidYMid meet">
<metadata>
Created by potrace 1.16, written by Peter Selinger 2001-2019
</metadata>
<g transform="translate(0.000000,32.000000) scale(0.100000,-0.100000)"
fill="#000000" stroke="none">
<path fill="#000000" stroke="none" d="M275 120 c-10 -11 -22 -17 -27 -14 -4
3 -7 0 -6 -8 2 -7 -4 -12 -12 -10 -8 2 -12 0 -8 -4 11 -10 -12 -35 -26 -27 -6
3 -2 -3 8 -15 11 -12 21 -22 24 -22 3 0 2 3 -2 7 -3 4 9 23 27 42 29 31 54 71
43 71 -1 0 -11 -9 -21 -20z"/>
</g>
</svg>
