<?xml version="1.0" standalone="no"?>
<!DOCTYPE svg PUBLIC "-//W3C//DTD SVG 20010904//EN"
 "http://www.w3.org/TR/2001/REC-SVG-20010904/DTD/svg10.dtd">
<svg version="1.0" xmlns="http://www.w3.org/2000/svg"
 width="32.000000pt" height="32.000000pt" viewBox="0 0 32.000000 32.000000"
 preserveAspectRatio="xMidYMid meet">
<metadata>
Created by potrace 1.16, written by Peter Selinger 2001-2019
</metadata>
<g transform="translate(0.000000,32.000000) scale(0.100000,-0.100000)"
fill="#000000" stroke="none">
<path fill="#000000" stroke="none" d="M0 160 l0 -160 160 0 160 0 0 160 0
160 -160 0 -160 0 0 -160z"/>
<path fill="#ffffff" stroke="none" d="M287 129 c16 -16 4 -49 -21 -59 -11 -4
-25 -9 -30 -11 -17 -7 -16 44 0 63 19 21 35 23 51 7z"/>
<path fill="#ffffff" stroke="none" d="M200 25 c-7 -9 -15 -13 -19 -10 -3 3 1
10 9 15 21 14 24 12 10 -5z"/>
<path fill="#000000" stroke="none" d="M242 117 c-12 -14 -12 -58 0 -51 4 3 5
11 1 20 -3 9 0 14 8 12 8 -2 13 3 11 11 -2 9 3 11 13 7 9 -3 13 -2 10 4 -9 14
-31 12 -43 -3z"/>
</g>
</svg>
