<?xml version="1.0" standalone="no"?>
<!DOCTYPE svg PUBLIC "-//W3C//DTD SVG 20010904//EN"
 "http://www.w3.org/TR/2001/REC-SVG-20010904/DTD/svg10.dtd">
<svg version="1.0" xmlns="http://www.w3.org/2000/svg"
 width="32.000000pt" height="32.000000pt" viewBox="0 0 32.000000 32.000000"
 preserveAspectRatio="xMidYMid meet">
<metadata>
Created by potrace 1.16, written by Peter Selinger 2001-2019
</metadata>
<g transform="translate(0.000000,32.000000) scale(0.100000,-0.100000)"
fill="#000000" stroke="none">
<path fill="#000000" stroke="none" d="M216 105 c6 -14 4 -16 -7 -10 -11 7
-11 5 1 -10 8 -10 10 -16 3 -12 -6 4 -15 3 -18 -3 -4 -6 -1 -9 7 -8 7 2 12 -3
10 -10 -1 -8 2 -11 9 -6 8 4 9 -1 5 -17 l-6 -24 12 23 c6 13 17 21 24 18 8 -3
11 0 7 10 -4 10 0 13 13 8 15 -5 16 -4 4 4 -12 9 -11 14 5 34 11 13 13 17 5
11 -18 -17 -43 -17 -34 0 5 9 4 9 -6 0 -10 -9 -17 -10 -27 -1 -11 9 -12 7 -7
-7z"/>
</g>
</svg>
