<?xml version="1.0" standalone="no"?>
<!DOCTYPE svg PUBLIC "-//W3C//DTD SVG 20010904//EN"
 "http://www.w3.org/TR/2001/REC-SVG-20010904/DTD/svg10.dtd">
<svg version="1.0" xmlns="http://www.w3.org/2000/svg"
 width="32.000000pt" height="32.000000pt" viewBox="0 0 32.000000 32.000000"
 preserveAspectRatio="xMidYMid meet">
<metadata>
Created by potrace 1.16, written by Peter Selinger 2001-2019
</metadata>
<g transform="translate(0.000000,32.000000) scale(0.100000,-0.100000)"
fill="#000000" stroke="none">
<path fill="#000000" stroke="none" d="M242 128 c-6 -6 -12 -18 -12 -25 0 -7
-11 -20 -25 -29 -34 -22 -35 -64 0 -64 14 0 29 8 35 19 5 11 22 26 38 33 20
10 27 20 27 43 0 25 -5 31 -25 33 -14 2 -31 -3 -38 -10z"/>
<path fill="#ffffff" stroke="none" d="M298 107 c2 -11 -9 -24 -31 -37 -20
-12 -38 -27 -41 -35 -3 -8 -12 -15 -21 -15 -19 0 -20 29 0 36 8 3 23 21 35 41
21 36 52 42 58 10z"/>
<path fill="#000000" stroke="none" d="M250 101 c-5 -11 -6 -22 -2 -25 14 -8
46 20 38 32 -11 17 -24 15 -36 -7z"/>
<path fill="#000000" stroke="none" d="M200 40 c0 -5 5 -10 11 -10 5 0 7 5 4
10 -3 6 -8 10 -11 10 -2 0 -4 -4 -4 -10z"/>
</g>
</svg>
