<?xml version="1.0" standalone="no"?>
<!DOCTYPE svg PUBLIC "-//W3C//DTD SVG 20010904//EN"
 "http://www.w3.org/TR/2001/REC-SVG-20010904/DTD/svg10.dtd">
<svg version="1.0" xmlns="http://www.w3.org/2000/svg"
 width="32.000000pt" height="32.000000pt" viewBox="0 0 32.000000 32.000000"
 preserveAspectRatio="xMidYMid meet">
<metadata>
Created by potrace 1.16, written by Peter Selinger 2001-2019
</metadata>
<g transform="translate(0.000000,32.000000) scale(0.100000,-0.100000)"
fill="#000000" stroke="none">
<path fill="#000000" stroke="none" d="M200 85 l0 -45 40 0 c39 0 40 1 40 35
0 32 -2 35 -30 35 -25 0 -30 -4 -30 -25 0 -18 5 -25 20 -25 11 0 20 7 20 15 0
8 -5 15 -11 15 -5 0 -7 -4 -4 -10 3 -5 1 -10 -4 -10 -6 0 -11 7 -11 15 0 8 9
15 20 15 15 0 20 -7 20 -25 0 -21 -5 -25 -30 -25 -28 0 -30 3 -30 35 0 34 1
35 40 35 l40 0 0 -44 0 -45 -52 -4 -53 -3 58 -2 57 -2 0 55 0 55 -50 0 -50 0
0 -45z"/>
</g>
</svg>
