<?xml version="1.0" standalone="no"?>
<!DOCTYPE svg PUBLIC "-//W3C//DTD SVG 20010904//EN"
 "http://www.w3.org/TR/2001/REC-SVG-20010904/DTD/svg10.dtd">
<svg version="1.0" xmlns="http://www.w3.org/2000/svg"
 width="32.000000pt" height="32.000000pt" viewBox="0 0 32.000000 32.000000"
 preserveAspectRatio="xMidYMid meet">
<metadata>
Created by potrace 1.16, written by Peter Selinger 2001-2019
</metadata>
<g transform="translate(0.000000,32.000000) scale(0.100000,-0.100000)"
fill="#000000" stroke="none">
<path fill="#000000" stroke="none" d="M0 160 l0 -160 160 0 160 0 0 160 0
160 -160 0 -160 0 0 -160z"/>
<path fill="#ffffff" stroke="none" d="M248 288 c7 -7 12 -8 12 -4 0 5 7 3 15
-4 25 -21 18 -58 -13 -74 -42 -22 -118 -107 -131 -149 -16 -46 -41 -49 -82 -8
-41 41 -38 64 11 86 l40 18 -40 43 c-43 47 -53 80 -21 69 12 -3 21 0 25 10 8
23 26 18 26 -8 0 -28 26 -67 45 -67 17 0 45 50 45 80 0 15 6 20 28 20 15 0 33
-5 40 -12z"/>
<path fill="#000000" stroke="none" d="M184 258 c-6 -18 -13 -40 -15 -48 -5
-16 -47 -50 -102 -80 -43 -24 -46 -42 -12 -75 34 -35 51 -31 73 18 21 44 103
133 134 143 10 3 18 15 18 28 0 33 -11 38 -34 19 -15 -14 -18 -14 -8 -2 14 19
6 29 -22 29 -15 0 -24 -10 -32 -32z"/>
<path fill="#ffffff" stroke="none" d="M100 115 c-5 -6 -5 -16 0 -25 6 -8 10
-19 10 -25 0 -5 -8 4 -19 20 -20 33 -20 42 3 42 11 0 13 -4 6 -12z"/>
<path fill="#000000" stroke="none" d="M66 262 c-6 -19 -10 -21 -22 -11 -24
19 -16 -7 11 -40 14 -16 34 -29 45 -28 24 2 25 10 5 27 -8 7 -19 27 -23 44 -8
30 -9 30 -16 8z"/>
</g>
</svg>
