<?xml version="1.0" standalone="no"?>
<!DOCTYPE svg PUBLIC "-//W3C//DTD SVG 20010904//EN"
 "http://www.w3.org/TR/2001/REC-SVG-20010904/DTD/svg10.dtd">
<svg version="1.0" xmlns="http://www.w3.org/2000/svg"
 width="32.000000pt" height="32.000000pt" viewBox="0 0 32.000000 32.000000"
 preserveAspectRatio="xMidYMid meet">
<metadata>
Created by potrace 1.16, written by Peter Selinger 2001-2019
</metadata>
<g transform="translate(0.000000,32.000000) scale(0.100000,-0.100000)"
fill="#000000" stroke="none">
<path fill="#000000" stroke="none" d="M180 280 c0 -30 -28 -80 -45 -80 -19 0
-45 39 -45 67 0 26 -18 31 -26 8 -4 -10 -13 -13 -25 -10 -32 11 -22 -22 21
-69 l40 -43 -40 -18 c-49 -22 -52 -45 -11 -86 41 -41 66 -38 82 8 13 42 89
127 131 149 31 16 38 53 13 74 -8 7 -15 9 -15 4 0 -4 -5 -3 -12 4 -7 7 -25 12
-40 12 -22 0 -28 -5 -28 -20z"/>
<path fill="#ffffff" stroke="none" d="M243 283 c4 -3 1 -13 -5 -22 -10 -12
-7 -12 8 2 11 9 24 14 27 10 11 -10 8 -53 -4 -53 -21 0 -122 -106 -141 -147
-22 -49 -39 -53 -73 -18 -34 34 -31 51 13 74 49 25 111 93 119 131 4 22 11 30
28 30 12 0 25 -3 28 -7z"/>
<path fill="#ffffff" stroke="none" d="M111 204 c21 -22 21 -24 4 -30 -13 -5
-27 3 -52 29 -33 37 -47 71 -19 48 12 -10 16 -8 22 11 7 22 7 22 15 -6 4 -16
18 -39 30 -52z"/>
<path fill="#000000" stroke="none" d="M92 121 c-12 -7 -11 -13 2 -37 8 -16
15 -24 15 -19 1 6 -3 17 -9 25 -5 9 -5 19 2 27 12 15 9 16 -10 4z"/>
</g>
</svg>
