<?xml version="1.0" standalone="no"?>
<!DOCTYPE svg PUBLIC "-//W3C//DTD SVG 20010904//EN"
 "http://www.w3.org/TR/2001/REC-SVG-20010904/DTD/svg10.dtd">
<svg version="1.0" xmlns="http://www.w3.org/2000/svg"
 width="32.000000pt" height="32.000000pt" viewBox="0 0 32.000000 32.000000"
 preserveAspectRatio="xMidYMid meet">
<metadata>
Created by potrace 1.16, written by Peter Selinger 2001-2019
</metadata>
<g transform="translate(0.000000,32.000000) scale(0.100000,-0.100000)"
fill="#000000" stroke="none">
<path fill="#000000" stroke="none" d="M0 160 l0 -160 160 0 160 0 0 160 0
160 -160 0 -160 0 0 -160z"/>
<path fill="#ffffff" stroke="none" d="M132 288 c-5 -21 -4 -22 11 -9 14 11
20 11 34 0 15 -13 16 -11 10 10 -4 18 -3 21 6 12 9 -9 7 -18 -5 -38 -9 -15
-21 -29 -26 -31 -14 -4 -44 47 -38 64 9 22 15 16 8 -8z"/>
<path fill="#000000" stroke="none" d="M150 256 c7 -7 13 -7 20 0 6 6 3 10
-10 10 -13 0 -16 -4 -10 -10z"/>
</g>
</svg>
