<?xml version="1.0" standalone="no"?>
<!DOCTYPE svg PUBLIC "-//W3C//DTD SVG 20010904//EN"
 "http://www.w3.org/TR/2001/REC-SVG-20010904/DTD/svg10.dtd">
<svg version="1.0" xmlns="http://www.w3.org/2000/svg"
 width="32.000000pt" height="32.000000pt" viewBox="0 0 32.000000 32.000000"
 preserveAspectRatio="xMidYMid meet">
<metadata>
Created by potrace 1.16, written by Peter Selinger 2001-2019
</metadata>
<g transform="translate(0.000000,32.000000) scale(0.100000,-0.100000)"
fill="#000000" stroke="none">
<path fill="#000000" stroke="none" d="M0 160 l0 -160 160 0 160 0 0 160 0
160 -160 0 -160 0 0 -160z"/>
<path fill="#ffffff" stroke="none" d="M132 288 c-5 -20 -3 -21 10 -10 11 9
18 10 23 2 3 -5 -2 -10 -11 -10 -14 0 -15 -3 -6 -12 16 -16 45 9 39 34 -3 10
-1 16 4 12 15 -9 10 -30 -11 -49 -20 -18 -21 -18 -42 2 -12 13 -18 28 -15 37
9 24 16 19 9 -6z"/>
</g>
</svg>
