<?xml version="1.0" standalone="no"?>
<!DOCTYPE svg PUBLIC "-//W3C//DTD SVG 20010904//EN"
 "http://www.w3.org/TR/2001/REC-SVG-20010904/DTD/svg10.dtd">
<svg version="1.0" xmlns="http://www.w3.org/2000/svg"
 width="32.000000pt" height="32.000000pt" viewBox="0 0 32.000000 32.000000"
 preserveAspectRatio="xMidYMid meet">
<metadata>
Created by potrace 1.16, written by Peter Selinger 2001-2019
</metadata>
<g transform="translate(0.000000,32.000000) scale(0.100000,-0.100000)"
fill="#000000" stroke="none">
<path fill="#000000" stroke="none" d="M113 313 c-15 -6 -17 -29 -3 -38 6 -4
7 1 3 11 -4 12 -3 15 5 10 7 -4 12 -2 12 4 0 6 5 8 10 5 6 -4 8 -10 6 -14 -3
-3 4 -7 14 -7 10 0 17 4 14 7 -2 4 0 10 6 14 5 3 10 1 10 -5 0 -6 5 -8 12 -4
8 5 9 2 5 -10 -4 -10 -3 -15 3 -11 12 7 13 34 3 36 -26 5 -90 5 -100 2z"/>
</g>
</svg>
