<?xml version="1.0" standalone="no"?>
<!DOCTYPE svg PUBLIC "-//W3C//DTD SVG 20010904//EN"
 "http://www.w3.org/TR/2001/REC-SVG-20010904/DTD/svg10.dtd">
<svg version="1.0" xmlns="http://www.w3.org/2000/svg"
 width="32.000000pt" height="32.000000pt" viewBox="0 0 32.000000 32.000000"
 preserveAspectRatio="xMidYMid meet">
<metadata>
Created by potrace 1.16, written by Peter Selinger 2001-2019
</metadata>
<g transform="translate(0.000000,32.000000) scale(0.100000,-0.100000)"
fill="#000000" stroke="none">
<path fill="#000000" stroke="none" d="M0 160 l0 -160 160 0 160 0 0 160 0
160 -160 0 -160 0 0 -160z"/>
<path fill="#ffffff" stroke="none" d="M188 290 c31 -29 26 -52 -12 -58 -17
-3 -18 -2 -7 12 7 9 17 13 22 10 5 -3 6 2 2 12 -5 15 -7 15 -15 0 -11 -19 -29
-22 -24 -3 1 6 1 8 -2 3 -2 -4 -8 -3 -12 4 -5 8 -9 7 -13 -4 -4 -9 -1 -15 5
-13 6 1 13 -4 15 -11 3 -7 -1 -11 -9 -10 -14 3 -28 18 -28 30 0 9 41 48 50 48
3 0 16 -9 28 -20z"/>
</g>
</svg>
