<?xml version="1.0" standalone="no"?>
<!DOCTYPE svg PUBLIC "-//W3C//DTD SVG 20010904//EN"
 "http://www.w3.org/TR/2001/REC-SVG-20010904/DTD/svg10.dtd">
<svg version="1.0" xmlns="http://www.w3.org/2000/svg"
 width="32.000000pt" height="32.000000pt" viewBox="0 0 32.000000 32.000000"
 preserveAspectRatio="xMidYMid meet">
<metadata>
Created by potrace 1.16, written by Peter Selinger 2001-2019
</metadata>
<g transform="translate(0.000000,32.000000) scale(0.100000,-0.100000)"
fill="#000000" stroke="none">
<path fill="#000000" stroke="none" d="M0 160 l0 -160 160 0 160 0 0 160 0
160 -160 0 -160 0 0 -160z"/>
<path fill="#ffffff" stroke="none" d="M209 301 c2 -1 -2 -8 -9 -16 -15 -18
-66 -20 -76 -3 -4 6 -3 8 3 5 6 -4 16 0 23 8 10 12 21 13 59 6z"/>
<path fill="#000000" stroke="none" d="M165 290 c-3 -5 -1 -10 4 -10 6 0 11 5
11 10 0 6 -2 10 -4 10 -3 0 -8 -4 -11 -10z"/>
</g>
</svg>
