<?xml version="1.0" standalone="no"?>
<!DOCTYPE svg PUBLIC "-//W3C//DTD SVG 20010904//EN"
 "http://www.w3.org/TR/2001/REC-SVG-20010904/DTD/svg10.dtd">
<svg version="1.0" xmlns="http://www.w3.org/2000/svg"
 width="32.000000pt" height="32.000000pt" viewBox="0 0 32.000000 32.000000"
 preserveAspectRatio="xMidYMid meet">
<metadata>
Created by potrace 1.16, written by Peter Selinger 2001-2019
</metadata>
<g transform="translate(0.000000,32.000000) scale(0.100000,-0.100000)"
fill="#000000" stroke="none">
<path fill="#000000" stroke="none" d="M0 160 l0 -160 160 0 160 0 0 160 0
160 -160 0 -160 0 0 -160z"/>
<path fill="#ffffff" stroke="none" d="M209 301 c2 -1 -1 -7 -7 -14 -14 -17
-69 -21 -78 -6 -4 7 -3 9 3 6 6 -4 16 0 23 8 10 12 21 13 59 6z"/>
<path fill="#000000" stroke="none" d="M165 289 c-3 -4 2 -6 10 -5 21 3 28 13
10 13 -9 0 -18 -4 -20 -8z"/>
</g>
</svg>
