<?xml version="1.0" standalone="no"?>
<!DOCTYPE svg PUBLIC "-//W3C//DTD SVG 20010904//EN"
 "http://www.w3.org/TR/2001/REC-SVG-20010904/DTD/svg10.dtd">
<svg version="1.0" xmlns="http://www.w3.org/2000/svg"
 width="32.000000pt" height="32.000000pt" viewBox="0 0 32.000000 32.000000"
 preserveAspectRatio="xMidYMid meet">
<metadata>
Created by potrace 1.16, written by Peter Selinger 2001-2019
</metadata>
<g transform="translate(0.000000,32.000000) scale(0.100000,-0.100000)"
fill="#000000" stroke="none">
<path fill="#000000" stroke="none" d="M125 300 c-10 -17 5 -30 35 -30 33 0
48 16 31 33 -9 9 -11 8 -6 -4 5 -12 -1 -16 -25 -16 -22 0 -29 4 -26 14 6 15 0
18 -9 3z"/>
<path fill="#000000" stroke="none" d="M140 245 c0 -8 9 -15 20 -15 11 0 20 7
20 15 0 8 -9 15 -20 15 -11 0 -20 -7 -20 -15z"/>
</g>
</svg>
