<?xml version="1.0" standalone="no"?>
<!DOCTYPE svg PUBLIC "-//W3C//DTD SVG 20010904//EN"
 "http://www.w3.org/TR/2001/REC-SVG-20010904/DTD/svg10.dtd">
<svg version="1.0" xmlns="http://www.w3.org/2000/svg"
 width="32.000000pt" height="32.000000pt" viewBox="0 0 32.000000 32.000000"
 preserveAspectRatio="xMidYMid meet">
<metadata>
Created by potrace 1.16, written by Peter Selinger 2001-2019
</metadata>
<g transform="translate(0.000000,32.000000) scale(0.100000,-0.100000)"
fill="#000000" stroke="none">
<path fill="#000000" stroke="none" d="M125 300 c-18 -20 -18 -21 0 -38 18
-16 18 -16 6 0 -11 15 -10 20 2 33 9 8 23 15 32 15 9 0 23 -7 32 -15 12 -13
13 -18 2 -33 -12 -16 -12 -16 6 0 18 17 18 18 0 38 -10 11 -28 20 -40 20 -12
0 -30 -9 -40 -20z"/>
</g>
</svg>
