<?xml version="1.0" standalone="no"?>
<!DOCTYPE svg PUBLIC "-//W3C//DTD SVG 20010904//EN"
 "http://www.w3.org/TR/2001/REC-SVG-20010904/DTD/svg10.dtd">
<svg version="1.0" xmlns="http://www.w3.org/2000/svg"
 width="32.000000pt" height="32.000000pt" viewBox="0 0 32.000000 32.000000"
 preserveAspectRatio="xMidYMid meet">
<metadata>
Created by potrace 1.16, written by Peter Selinger 2001-2019
</metadata>
<g transform="translate(0.000000,32.000000) scale(0.100000,-0.100000)"
fill="#000000" stroke="none">
<path fill="#000000" stroke="none" d="M0 159 l0 -159 160 0 160 0 0 159 0
159 -160 0 -160 0 0 -159z"/>
<path fill="#ffffff" stroke="none" d="M130 290 c-12 -7 -12 -11 0 -27 13 -17
13 -17 -5 -1 -15 14 -16 20 -5 33 7 8 15 13 19 10 3 -3 -1 -10 -9 -15z"/>
<path fill="#ffffff" stroke="none" d="M205 263 c-18 -17 -18 -17 -4 1 11 15
11 20 2 23 -7 3 -13 10 -13 16 0 6 8 4 17 -6 16 -16 16 -18 -2 -34z"/>
</g>
</svg>
