<?xml version="1.0" standalone="no"?>
<!DOCTYPE svg PUBLIC "-//W3C//DTD SVG 20010904//EN"
 "http://www.w3.org/TR/2001/REC-SVG-20010904/DTD/svg10.dtd">
<svg version="1.0" xmlns="http://www.w3.org/2000/svg"
 width="32.000000pt" height="32.000000pt" viewBox="0 0 32.000000 32.000000"
 preserveAspectRatio="xMidYMid meet">
<metadata>
Created by potrace 1.16, written by Peter Selinger 2001-2019
</metadata>
<g transform="translate(0.000000,32.000000) scale(0.100000,-0.100000)"
fill="#000000" stroke="none">
<path fill="#000000" stroke="none" d="M0 160 l0 -160 160 0 160 0 0 160 0
160 -160 0 -160 0 0 -160z"/>
<path fill="#ffffff" stroke="none" d="M186 271 c7 -13 17 -28 23 -34 6 -6 11
-20 10 -31 0 -20 -1 -19 -9 2 -8 19 -13 21 -30 12 -14 -8 -26 -8 -40 0 -17 9
-22 7 -30 -12 -8 -22 -9 -22 -9 -2 -1 12 6 27 14 34 8 7 15 18 15 24 0 16 22
37 35 33 5 -2 15 -14 21 -26z"/>
<path fill="#000000" stroke="none" d="M143 264 c-8 -21 13 -42 28 -27 13 13
5 43 -11 43 -6 0 -13 -7 -17 -16z"/>
</g>
</svg>
