<?xml version="1.0" standalone="no"?>
<!DOCTYPE svg PUBLIC "-//W3C//DTD SVG 20010904//EN"
 "http://www.w3.org/TR/2001/REC-SVG-20010904/DTD/svg10.dtd">
<svg version="1.0" xmlns="http://www.w3.org/2000/svg"
 width="32.000000pt" height="32.000000pt" viewBox="0 0 32.000000 32.000000"
 preserveAspectRatio="xMidYMid meet">
<metadata>
Created by potrace 1.16, written by Peter Selinger 2001-2019
</metadata>
<g transform="translate(0.000000,32.000000) scale(0.100000,-0.100000)"
fill="#000000" stroke="none">
<path fill="#000000" stroke="none" d="M0 160 l0 -160 160 0 160 0 0 160 0
160 -160 0 -160 0 0 -160z"/>
<path fill="#ffffff" stroke="none" d="M179 264 c1 -10 10 -27 18 -36 14 -16
13 -18 -11 -29 -20 -10 -32 -10 -52 0 -25 11 -25 13 -10 30 9 10 16 24 16 33
0 33 32 35 39 2z"/>
<path fill="#000000" stroke="none" d="M150 260 c0 -11 5 -20 10 -20 6 0 10 9
10 20 0 11 -4 20 -10 20 -5 0 -10 -9 -10 -20z"/>
</g>
</svg>
