<?xml version="1.0" standalone="no"?>
<!DOCTYPE svg PUBLIC "-//W3C//DTD SVG 20010904//EN"
 "http://www.w3.org/TR/2001/REC-SVG-20010904/DTD/svg10.dtd">
<svg version="1.0" xmlns="http://www.w3.org/2000/svg"
 width="32.000000pt" height="32.000000pt" viewBox="0 0 32.000000 32.000000"
 preserveAspectRatio="xMidYMid meet">
<metadata>
Created by potrace 1.16, written by Peter Selinger 2001-2019
</metadata>
<g transform="translate(0.000000,32.000000) scale(0.100000,-0.100000)"
fill="#000000" stroke="none">
<path fill="#000000" stroke="none" d="M121 292 c-1 -17 29 -62 42 -62 5 0 2
9 -8 20 -16 18 -16 20 -2 20 10 0 17 5 17 10 0 14 -17 13 -26 -2 -5 -8 -10 -6
-15 8 -4 10 -8 13 -8 6z"/>
<path fill="#000000" stroke="none" d="M182 272 c-11 -25 -11 -25 4 -10 9 9
15 21 13 27 -2 6 -10 -2 -17 -17z"/>
</g>
</svg>
