<?xml version="1.0" standalone="no"?>
<!DOCTYPE svg PUBLIC "-//W3C//DTD SVG 20010904//EN"
 "http://www.w3.org/TR/2001/REC-SVG-20010904/DTD/svg10.dtd">
<svg version="1.0" xmlns="http://www.w3.org/2000/svg"
 width="32.000000pt" height="32.000000pt" viewBox="0 0 32.000000 32.000000"
 preserveAspectRatio="xMidYMid meet">
<metadata>
Created by potrace 1.16, written by Peter Selinger 2001-2019
</metadata>
<g transform="translate(0.000000,32.000000) scale(0.100000,-0.100000)"
fill="#000000" stroke="none">
<path fill="#000000" stroke="none" d="M0 160 l0 -160 160 0 160 0 0 160 0
160 -160 0 -160 0 0 -160z"/>
<path fill="#ffffff" stroke="none" d="M144 278 c9 15 26 16 26 2 0 -5 -7 -10
-17 -10 -14 0 -14 -2 2 -20 10 -11 13 -20 8 -20 -13 0 -43 45 -42 62 0 7 4 4
8 -6 5 -14 10 -16 15 -8z"/>
<path fill="#ffffff" stroke="none" d="M186 262 c-15 -15 -15 -15 -4 10 7 15
15 23 17 17 2 -6 -4 -18 -13 -27z"/>
</g>
</svg>
