<?xml version="1.0" standalone="no"?>
<!DOCTYPE svg PUBLIC "-//W3C//DTD SVG 20010904//EN"
 "http://www.w3.org/TR/2001/REC-SVG-20010904/DTD/svg10.dtd">
<svg version="1.0" xmlns="http://www.w3.org/2000/svg"
 width="32.000000pt" height="32.000000pt" viewBox="0 0 32.000000 32.000000"
 preserveAspectRatio="xMidYMid meet">
<metadata>
Created by potrace 1.16, written by Peter Selinger 2001-2019
</metadata>
<g transform="translate(0.000000,32.000000) scale(0.100000,-0.100000)"
fill="#000000" stroke="none">
<path fill="#000000" stroke="none" d="M0 160 l0 -160 160 0 160 0 0 160 0
160 -160 0 -160 0 0 -160z"/>
<path fill="#ffffff" stroke="none" d="M188 294 c10 -18 4 -61 -9 -70 -5 -3
-9 9 -9 25 0 17 -5 31 -11 31 -5 0 -7 -5 -4 -11 4 -5 -1 -19 -12 -31 -18 -20
-18 -20 -24 8 -3 16 -2 37 3 47 11 21 54 22 66 1z"/>
<path fill="#ffffff" stroke="none" d="M98 240 c0 -9 -3 -7 -8 5 -5 11 -8 29
-8 40 0 16 2 15 8 -5 4 -14 8 -32 8 -40z"/>
<path fill="#ffffff" stroke="none" d="M225 253 c-9 -15 -13 -19 -10 -8 4 11
10 29 13 40 3 11 7 14 9 8 3 -7 -3 -24 -12 -40z"/>
<path fill="#ffffff" stroke="none" d="M298 238 c7 -7 12 -16 12 -22 0 -5 -6
-1 -14 9 -20 28 -40 13 -63 -48 -18 -49 -18 -55 -4 -66 13 -9 12 -9 -6 -1
l-21 10 20 52 c29 78 48 94 76 66z"/>
<path fill="#ffffff" stroke="none" d="M47 185 c0 -6 -6 -12 -14 -12 -7 0 -13
6 -13 12 0 6 6 12 13 12 8 0 14 -6 14 -12z"/>
<path fill="#ffffff" stroke="none" d="M303 180 c-3 -12 -8 -19 -11 -16 -5 6
5 36 12 36 2 0 2 -9 -1 -20z"/>
<path fill="#ffffff" stroke="none" d="M150 150 c-19 -6 -21 -8 -6 -9 11 -1
17 -4 13 -7 -10 -10 -39 5 -32 16 3 5 16 10 28 9 20 -1 20 -2 -3 -9z"/>
<path fill="#ffffff" stroke="none" d="M304 135 c-4 -8 -10 -12 -15 -9 -11 6
-2 24 11 24 5 0 7 -7 4 -15z"/>
<path fill="#ffffff" stroke="none" d="M151 102 c-7 -2 -18 1 -23 6 -8 8 -4 9
13 5 13 -4 18 -8 10 -11z"/>
<path fill="#ffffff" stroke="none" d="M280 100 c0 -5 -8 -10 -17 -10 -15 0
-16 2 -3 10 19 12 20 12 20 0z"/>
<path fill="#ffffff" stroke="none" d="M151 62 c-7 -2 -18 1 -23 6 -8 8 -4 9
13 5 13 -4 18 -8 10 -11z"/>
</g>
</svg>
