<?xml version="1.0" standalone="no"?>
<!DOCTYPE svg PUBLIC "-//W3C//DTD SVG 20010904//EN"
 "http://www.w3.org/TR/2001/REC-SVG-20010904/DTD/svg10.dtd">
<svg version="1.0" xmlns="http://www.w3.org/2000/svg"
 width="32.000000pt" height="32.000000pt" viewBox="0 0 32.000000 32.000000"
 preserveAspectRatio="xMidYMid meet">
<metadata>
Created by potrace 1.16, written by Peter Selinger 2001-2019
</metadata>
<g transform="translate(0.000000,32.000000) scale(0.100000,-0.100000)"
fill="#000000" stroke="none">
<path fill="#000000" stroke="none" d="M122 294 c-4 -8 -6 -28 -4 -44 4 -28 5
-29 28 -13 22 14 24 14 24 -1 0 -10 4 -15 9 -12 13 9 19 52 9 70 -11 20 -54
21 -66 0z"/>
<path fill="#000000" stroke="none" d="M85 270 c3 -19 10 -39 15 -44 7 -7 7
-1 1 19 -17 54 -21 61 -16 25z"/>
<path fill="#000000" stroke="none" d="M218 260 c-9 -22 -15 -40 -13 -40 8 0
36 61 33 70 -2 5 -11 -9 -20 -30z"/>
<path fill="#000000" stroke="none" d="M252 238 c-6 -7 -19 -37 -30 -66 l-20
-52 21 -10 c18 -8 19 -8 6 1 -14 11 -14 17 4 66 23 61 43 76 63 48 8 -10 14
-14 14 -9 0 14 -21 34 -36 34 -6 0 -16 -6 -22 -12z"/>
<path fill="#000000" stroke="none" d="M124 195 c-4 -9 -4 -19 0 -22 3 -4 6 1
6 10 0 23 37 22 44 0 4 -14 4 -14 3 2 -3 25 -44 33 -53 10z"/>
<path fill="#000000" stroke="none" d="M20 185 c0 -8 7 -15 15 -15 8 0 15 7
15 15 0 8 -7 15 -15 15 -8 0 -15 -7 -15 -15z"/>
<path fill="#000000" stroke="none" d="M293 185 c-3 -9 -3 -18 -1 -21 3 -3 8
4 11 16 6 23 -1 27 -10 5z"/>
<path fill="#000000" stroke="none" d="M129 158 c0 -2 -2 -10 -4 -18 -2 -8
-10 -32 -19 -53 -17 -40 -14 -57 10 -57 17 0 18 21 2 40 -11 12 -10 12 4 1 10
-7 23 -11 30 -8 8 4 7 6 -4 6 -10 1 -18 7 -18 15 0 8 8 17 18 19 16 4 16 5 0
6 -23 1 -23 21 0 22 14 0 14 2 -3 8 -19 8 -18 9 5 13 23 5 23 5 3 7 -13 0 -23
0 -24 -1z"/>
<path fill="#000000" stroke="none" d="M280 135 c0 -8 4 -15 9 -15 5 0 11 7
15 15 3 9 0 15 -9 15 -8 0 -15 -7 -15 -15z"/>
<path fill="#000000" stroke="none" d="M174 98 c-4 -6 -2 -14 4 -16 8 -2 8 -9
-1 -24 -9 -16 -9 -22 1 -25 6 -3 9 -10 6 -15 -5 -7 -2 -8 7 -3 37 21 38 26 22
61 -18 36 -27 41 -39 22z"/>
<path fill="#000000" stroke="none" d="M260 100 c-13 -8 -12 -10 3 -10 9 0 17
5 17 10 0 12 -1 12 -20 0z"/>
</g>
</svg>
