<?xml version="1.0" standalone="no"?>
<!DOCTYPE svg PUBLIC "-//W3C//DTD SVG 20010904//EN"
 "http://www.w3.org/TR/2001/REC-SVG-20010904/DTD/svg10.dtd">
<svg version="1.0" xmlns="http://www.w3.org/2000/svg"
 width="32.000000pt" height="32.000000pt" viewBox="0 0 32.000000 32.000000"
 preserveAspectRatio="xMidYMid meet">
<metadata>
Created by potrace 1.16, written by Peter Selinger 2001-2019
</metadata>
<g transform="translate(0.000000,32.000000) scale(0.100000,-0.100000)"
fill="#000000" stroke="none">
<path fill="#000000" stroke="none" d="M122 294 c-4 -8 -6 -28 -4 -44 4 -28 5
-29 28 -13 22 14 24 14 24 -1 0 -10 4 -15 9 -12 13 9 19 52 9 70 -11 20 -54
21 -66 0z"/>
<path fill="#000000" stroke="none" d="M81 283 c0 -10 4 -27 8 -38 11 -27 -5
-45 -40 -45 -19 0 -29 -5 -29 -15 0 -8 5 -15 10 -15 6 0 11 -8 11 -17 1 -10 5
-4 9 12 4 17 8 22 9 12 1 -13 7 -16 25 -13 34 6 36 0 20 -46 -27 -79 -12 -108
56 -108 63 0 89 40 57 84 -12 16 -11 24 5 54 22 44 23 61 3 68 -13 5 -13 9 0
34 17 32 19 50 7 50 -5 0 -17 -19 -28 -42 -17 -39 -22 -43 -54 -42 -33 0 -35
3 -43 42 -8 41 -28 59 -26 25z"/>
<path fill="#ffffff" stroke="none" d="M165 190 c-4 -6 -11 -7 -17 -4 -6 4 -8
2 -4 -4 3 -6 2 -13 -4 -17 -5 -3 -10 3 -10 14 0 15 6 21 21 21 11 0 17 -5 14
-10z"/>
<path fill="#ffffff" stroke="none" d="M211 147 c-8 -8 -11 -7 -11 4 0 20 13
34 18 19 3 -7 -1 -17 -7 -23z"/>
<path fill="#ffffff" stroke="none" d="M160 120 c0 -5 -4 -10 -10 -10 -5 0
-10 5 -10 10 0 6 5 10 10 10 6 0 10 -4 10 -10z"/>
<path fill="#ffffff" stroke="none" d="M160 85 c0 -8 -4 -15 -10 -15 -5 0 -10
7 -10 15 0 8 5 15 10 15 6 0 10 -7 10 -15z"/>
<path fill="#ffffff" stroke="none" d="M160 40 c0 -11 -4 -20 -10 -20 -5 0
-10 9 -10 20 0 11 5 20 10 20 6 0 10 -9 10 -20z"/>
<path fill="#000000" stroke="none" d="M250 235 c-16 -19 -3 -40 16 -24 9 8
14 8 14 1 0 -6 -7 -15 -15 -19 -8 -5 -23 -25 -33 -45 l-19 -36 24 -11 c33 -15
43 -14 43 7 0 13 -2 14 -9 3 -7 -10 -12 -11 -27 -1 -17 10 -17 11 -1 6 12 -4
20 1 26 17 5 12 6 26 3 31 -3 5 0 6 6 3 5 -4 8 -16 5 -27 -3 -11 0 -20 6 -20
6 0 11 3 12 8 0 4 2 27 4 52 5 62 -24 92 -55 55z"/>
<path fill="#ffffff" stroke="none" d="M296 222 c1 -7 0 -8 -3 -2 -7 14 -33
13 -33 -2 0 -6 -3 -9 -6 -5 -3 3 -3 11 1 17 9 14 38 9 41 -8z"/>
</g>
</svg>
