<?xml version="1.0" standalone="no"?>
<!DOCTYPE svg PUBLIC "-//W3C//DTD SVG 20010904//EN"
 "http://www.w3.org/TR/2001/REC-SVG-20010904/DTD/svg10.dtd">
<svg version="1.0" xmlns="http://www.w3.org/2000/svg"
 width="32.000000pt" height="32.000000pt" viewBox="0 0 32.000000 32.000000"
 preserveAspectRatio="xMidYMid meet">
<metadata>
Created by potrace 1.16, written by Peter Selinger 2001-2019
</metadata>
<g transform="translate(0.000000,32.000000) scale(0.100000,-0.100000)"
fill="#000000" stroke="none">
<path fill="#000000" stroke="none" d="M0 191 l0 -129 35 11 c25 7 39 7 46 0
7 -7 -3 -13 -33 -18 l-43 -8 35 -10 c19 -6 37 -14 40 -18 8 -11 139 -5 132 6
-3 6 1 5 9 -1 10 -8 24 -7 54 7 l40 18 -44 7 c-34 5 -40 9 -27 16 11 6 28 6
47 -1 l29 -10 0 130 0 129 -160 0 -160 0 0 -129z"/>
<path fill="#ffffff" stroke="none" d="M187 295 c11 -19 4 -87 -8 -79 -5 3 -9
-2 -9 -12 0 -13 3 -14 15 -4 10 8 15 9 15 2 0 -6 -8 -16 -17 -21 -11 -6 -13
-11 -5 -11 7 0 10 -5 7 -10 -5 -8 -11 -8 -20 0 -10 8 -15 8 -21 -1 -4 -8 -3
-9 5 -5 6 4 14 0 17 -9 5 -13 9 -13 23 -3 11 8 10 5 -3 -10 -23 -26 -39 -28
-57 -5 -12 15 -12 16 1 8 32 -20 42 -13 14 10 -16 13 -24 24 -17 25 13 0 49
68 40 76 -3 3 -14 -5 -26 -17 -16 -17 -18 -26 -10 -36 6 -7 8 -13 4 -13 -4 0
-15 10 -26 23 -10 12 -18 17 -19 11 0 -7 -7 -15 -16 -18 -13 -5 -14 -4 -6 7 7
8 8 18 4 22 -4 5 -1 5 6 1 8 -5 12 -1 12 11 1 14 4 13 15 -7 15 -25 15 -25 13
15 -1 23 2 46 6 53 10 17 53 15 63 -3z"/>
<path fill="#ffffff" stroke="none" d="M219 219 c-19 -12 -24 -2 -8 17 9 11
14 13 17 4 3 -7 -2 -16 -9 -21z"/>
<path fill="#ffffff" stroke="none" d="M247 201 c-1 -14 -5 -17 -13 -11 -6 6
-13 9 -15 7 -2 -1 2 4 10 11 19 16 20 15 18 -7z"/>
<path fill="#ffffff" stroke="none" d="M50 185 c0 -8 -7 -15 -15 -15 -8 0 -15
7 -15 15 0 8 7 15 15 15 8 0 15 -7 15 -15z"/>
<path fill="#ffffff" stroke="none" d="M290 165 c0 -8 -7 -15 -15 -15 -8 0
-15 7 -15 15 0 8 7 15 15 15 8 0 15 -7 15 -15z"/>
<path fill="#000000" stroke="none" d="M0 10 c0 -5 17 -10 38 -9 33 1 34 2 12
9 -36 11 -50 11 -50 0z"/>
<path fill="#000000" stroke="none" d="M270 10 c-22 -7 -21 -8 13 -9 20 -1 37
4 37 9 0 11 -14 11 -50 0z"/>
</g>
</svg>
