<?xml version="1.0" standalone="no"?>
<!DOCTYPE svg PUBLIC "-//W3C//DTD SVG 20010904//EN"
 "http://www.w3.org/TR/2001/REC-SVG-20010904/DTD/svg10.dtd">
<svg version="1.0" xmlns="http://www.w3.org/2000/svg"
 width="32.000000pt" height="32.000000pt" viewBox="0 0 32.000000 32.000000"
 preserveAspectRatio="xMidYMid meet">
<metadata>
Created by potrace 1.16, written by Peter Selinger 2001-2019
</metadata>
<g transform="translate(0.000000,32.000000) scale(0.100000,-0.100000)"
fill="#000000" stroke="none">
<path fill="#000000" stroke="none" d="M0 160 l0 -160 160 0 160 0 0 160 0
160 -160 0 -160 0 0 -160z"/>
<path fill="#ffffff" stroke="none" d="M191 265 c3 -2 3 -20 1 -40 -5 -41 -22
-37 -22 6 0 16 -5 29 -11 29 -5 0 -7 -4 -4 -10 3 -5 -2 -22 -12 -37 l-18 -27
-6 34 c-3 19 -3 38 -1 43 3 8 66 10 73 2z"/>
<path fill="#ffffff" stroke="none" d="M279 234 c-9 -11 -15 -12 -25 -3 -11 9
-12 15 -3 25 9 11 15 12 25 3 11 -9 12 -15 3 -25z"/>
<path fill="#ffffff" stroke="none" d="M47 175 c0 -6 -6 -12 -14 -12 -7 0 -13
6 -13 12 0 6 6 12 13 12 8 0 14 -6 14 -12z"/>
<path fill="#ffffff" stroke="none" d="M290 155 c0 -2 -7 -5 -15 -9 -9 -3 -15
0 -15 9 0 9 6 12 15 9 8 -4 15 -7 15 -9z"/>
</g>
</svg>
