<?xml version="1.0" standalone="no"?>
<!DOCTYPE svg PUBLIC "-//W3C//DTD SVG 20010904//EN"
 "http://www.w3.org/TR/2001/REC-SVG-20010904/DTD/svg10.dtd">
<svg version="1.0" xmlns="http://www.w3.org/2000/svg"
 width="32.000000pt" height="32.000000pt" viewBox="0 0 32.000000 32.000000"
 preserveAspectRatio="xMidYMid meet">
<metadata>
Created by potrace 1.16, written by Peter Selinger 2001-2019
</metadata>
<g transform="translate(0.000000,32.000000) scale(0.100000,-0.100000)"
fill="#000000" stroke="none">
<path fill="#000000" stroke="none" d="M0 160 l0 -160 160 0 160 0 0 160 0
160 -160 0 -160 0 0 -160z"/>
<path fill="#ffffff" stroke="none" d="M188 294 c10 -18 4 -61 -9 -70 -5 -3
-9 2 -9 12 0 15 -2 15 -24 1 -23 -16 -24 -15 -28 13 -2 16 0 36 4 44 12 21 55
20 66 0z"/>
<path fill="#ffffff" stroke="none" d="M103 256 c12 -34 17 -39 50 -42 35 -3
38 -1 59 44 11 26 23 42 25 36 4 -13 -45 -121 -59 -130 -5 -3 2 -21 16 -39 38
-49 42 -79 15 -99 -31 -21 -82 -20 -102 2 -16 17 -16 22 1 73 21 61 13 115
-15 104 -12 -4 -13 -2 -6 7 6 8 7 22 2 33 -8 22 -12 61 -4 53 3 -2 11 -22 18
-42z"/>
<path fill="#ffffff" stroke="none" d="M298 237 c13 -16 7 -110 -8 -115 -5 -2
-10 -10 -10 -18 0 -18 -14 -18 -50 1 -29 15 -29 15 -14 51 8 20 12 44 9 52 -3
9 -3 13 1 9 4 -4 13 2 21 13 16 23 36 26 51 7z"/>
<path fill="#ffffff" stroke="none" d="M73 191 c17 -6 17 -8 3 -20 -14 -12
-16 -11 -17 5 0 11 -3 14 -6 7 -7 -18 -33 -16 -33 2 0 16 23 18 53 6z"/>
<path fill="#000000" stroke="none" d="M130 180 c0 -13 7 -20 20 -20 13 0 20
7 20 20 0 13 -7 20 -20 20 -13 0 -20 -7 -20 -20z"/>
<path fill="#000000" stroke="none" d="M138 143 c6 -2 18 -2 25 0 6 3 1 5 -13
5 -14 0 -19 -2 -12 -5z"/>
<path fill="#000000" stroke="none" d="M130 120 c0 -5 9 -10 20 -10 11 0 20 5
20 10 0 6 -9 10 -20 10 -11 0 -20 -4 -20 -10z"/>
<path fill="#000000" stroke="none" d="M130 85 c0 -8 9 -15 20 -15 11 0 20 7
20 15 0 8 -9 15 -20 15 -11 0 -20 -7 -20 -15z"/>
<path fill="#000000" stroke="none" d="M130 40 c0 -13 7 -20 20 -20 13 0 20 7
20 20 0 13 -7 20 -20 20 -13 0 -20 -7 -20 -20z"/>
<path fill="#000000" stroke="none" d="M256 232 c-2 -4 -13 -30 -24 -59 l-19
-51 24 -11 c13 -6 26 -11 28 -11 9 0 37 112 31 126 -6 15 -32 19 -40 6z"/>
</g>
</svg>
