<?xml version="1.0" standalone="no"?>
<!DOCTYPE svg PUBLIC "-//W3C//DTD SVG 20010904//EN"
 "http://www.w3.org/TR/2001/REC-SVG-20010904/DTD/svg10.dtd">
<svg version="1.0" xmlns="http://www.w3.org/2000/svg"
 width="32.000000pt" height="32.000000pt" viewBox="0 0 32.000000 32.000000"
 preserveAspectRatio="xMidYMid meet">
<metadata>
Created by potrace 1.16, written by Peter Selinger 2001-2019
</metadata>
<g transform="translate(0.000000,32.000000) scale(0.100000,-0.100000)"
fill="#000000" stroke="none">
<path fill="#000000" stroke="none" d="M10 160 l0 -160 143 0 c146 0 167 5
167 40 0 9 -9 26 -19 37 -12 13 -18 29 -14 42 4 16 1 21 -13 22 -16 0 -15 2 4
10 28 11 26 44 -3 44 -11 0 -28 9 -37 21 -14 17 -15 28 -8 55 6 19 10 37 10
41 0 5 -52 8 -115 8 l-115 0 0 -160z"/>
<path fill="#ffffff" stroke="none" d="M188 293 c5 -10 6 -31 2 -48 -5 -27 -7
-28 -16 -12 -10 17 -11 17 -34 -1 l-23 -18 28 -22 c39 -31 53 -27 24 6 l-24
27 27 -24 c17 -14 25 -30 23 -43 -6 -27 -8 -29 -25 -18 -12 8 -11 10 5 10 16
0 15 3 -10 18 -16 11 -36 26 -44 35 -7 9 -18 14 -24 10 -6 -3 -7 -1 -3 6 4 6
12 9 17 5 6 -3 9 8 7 28 -1 19 2 39 6 46 11 18 54 14 64 -5z"/>
<path fill="#ffffff" stroke="none" d="M50 185 c0 -8 -7 -15 -15 -15 -8 0 -15
7 -15 15 0 8 7 15 15 15 8 0 15 -7 15 -15z"/>
<path fill="#ffffff" stroke="none" d="M290 173 c0 -7 -7 -13 -15 -13 -8 0
-15 6 -15 13 0 8 7 14 15 14 8 0 15 -6 15 -14z"/>
<path fill="#ffffff" stroke="none" d="M143 110 c-3 -12 -8 -19 -11 -16 -5 6
5 36 12 36 2 0 2 -9 -1 -20z"/>
<path fill="#ffffff" stroke="none" d="M157 88 c-3 -8 -6 -5 -6 6 -1 11 2 17
5 13 3 -3 4 -12 1 -19z"/>
<path fill="#ffffff" stroke="none" d="M100 96 c0 -3 -4 -8 -10 -11 -5 -3 -10
-1 -10 4 0 6 5 11 10 11 6 0 10 -2 10 -4z"/>
<path fill="#ffffff" stroke="none" d="M105 20 c-3 -5 -13 -10 -21 -10 -8 0
-12 5 -9 10 3 6 13 10 21 10 8 0 12 -4 9 -10z"/>
<path fill="#ffffff" stroke="none" d="M225 20 c3 -6 -1 -10 -9 -10 -8 0 -18
5 -21 10 -3 6 1 10 9 10 8 0 18 -4 21 -10z"/>
</g>
</svg>
