<?xml version="1.0" standalone="no"?>
<!DOCTYPE svg PUBLIC "-//W3C//DTD SVG 20010904//EN"
 "http://www.w3.org/TR/2001/REC-SVG-20010904/DTD/svg10.dtd">
<svg version="1.0" xmlns="http://www.w3.org/2000/svg"
 width="32.000000pt" height="32.000000pt" viewBox="0 0 32.000000 32.000000"
 preserveAspectRatio="xMidYMid meet">
<metadata>
Created by potrace 1.16, written by Peter Selinger 2001-2019
</metadata>
<g transform="translate(0.000000,32.000000) scale(0.100000,-0.100000)"
fill="#000000" stroke="none">
<path fill="#000000" stroke="none" d="M0 191 l0 -130 30 11 c17 5 37 7 45 4
18 -6 50 48 38 67 -4 7 0 6 11 -2 17 -14 17 -13 0 22 -10 20 -21 37 -25 37 -4
0 -17 -12 -28 -27 -11 -16 -21 -22 -21 -15 0 6 -7 12 -15 12 -27 0 -16 29 13
32 16 2 26 8 24 16 -1 8 2 11 8 7 5 -3 10 2 11 12 0 10 3 13 6 6 9 -24 23 -13
21 15 -3 37 8 52 37 52 29 0 40 -15 37 -52 -2 -30 7 -35 26 -16 9 9 12 7 12
-11 0 -13 4 -20 11 -16 6 4 9 0 7 -11 -2 -13 4 -20 20 -22 27 -4 29 -28 2 -35
-21 -5 -54 28 -44 45 3 4 3 8 1 8 -3 0 -17 -17 -32 -37 -16 -21 -22 -32 -15
-26 11 10 17 5 32 -28 14 -32 22 -39 37 -34 10 3 30 1 45 -4 l26 -11 0 130 0
130 -160 0 -160 0 0 -129z"/>
<path fill="#000000" stroke="none" d="M146 234 c-22 -21 -20 -27 4 -14 11 6
20 15 20 20 0 14 -6 12 -24 -6z"/>
<path fill="#000000" stroke="none" d="M124 96 c-3 -14 -10 -24 -14 -21 -5 3
-11 1 -14 -4 -3 -4 -25 -12 -48 -16 l-43 -8 35 -10 c19 -6 38 -16 42 -21 5 -7
8 -7 8 2 0 9 6 10 18 4 19 -9 89 -8 99 1 3 4 11 3 17 -2 6 -5 27 -1 50 9 l39
18 -44 9 c-32 7 -53 6 -77 -4 -32 -13 -77 -9 -88 8 -3 5 1 6 9 3 10 -3 16 4
20 23 7 36 0 44 -9 9z"/>
<path fill="#000000" stroke="none" d="M175 100 c4 -14 12 -29 17 -35 7 -7 8
-2 3 15 -4 14 -12 30 -17 35 -7 7 -8 2 -3 -15z"/>
<path fill="#000000" stroke="none" d="M148 80 c-3 -19 0 -30 7 -30 7 0 10 11
7 30 -2 17 -5 30 -7 30 -2 0 -5 -14 -7 -30z"/>
<path fill="#000000" stroke="none" d="M0 10 c0 -5 17 -10 38 -9 33 1 34 2 12
9 -36 11 -50 11 -50 0z"/>
<path fill="#000000" stroke="none" d="M270 10 c-22 -7 -21 -8 13 -9 20 -1 37
4 37 9 0 11 -14 11 -50 0z"/>
</g>
</svg>
