<?xml version="1.0" standalone="no"?>
<!DOCTYPE svg PUBLIC "-//W3C//DTD SVG 20010904//EN"
 "http://www.w3.org/TR/2001/REC-SVG-20010904/DTD/svg10.dtd">
<svg version="1.0" xmlns="http://www.w3.org/2000/svg"
 width="32.000000pt" height="32.000000pt" viewBox="0 0 32.000000 32.000000"
 preserveAspectRatio="xMidYMid meet">
<metadata>
Created by potrace 1.16, written by Peter Selinger 2001-2019
</metadata>
<g transform="translate(0.000000,32.000000) scale(0.100000,-0.100000)"
fill="#000000" stroke="none">
<path fill="#000000" stroke="none" d="M0 160 l0 -160 160 0 160 0 0 160 0
160 -160 0 -160 0 0 -160z"/>
<path fill="#ffffff" stroke="none" d="M155 253 c-1 -10 -7 -17 -13 -16 -5 1
-8 -7 -5 -17 3 -11 0 -20 -6 -20 -15 0 -14 33 2 49 10 11 10 13 0 7 -7 -4 -13
-2 -13 3 0 6 9 11 19 11 13 0 18 -6 16 -17z"/>
<path fill="#ffffff" stroke="none" d="M191 257 c-1 -4 -1 -21 -1 -38 0 -17
-4 -28 -10 -24 -14 8 -13 78 1 73 6 -2 10 -7 10 -11z"/>
<path fill="#ffffff" stroke="none" d="M276 234 c-7 -7 -14 -8 -22 0 -7 7 -8
14 0 22 7 7 14 8 22 0 7 -7 8 -14 0 -22z"/>
</g>
</svg>
