<?xml version="1.0" standalone="no"?>
<!DOCTYPE svg PUBLIC "-//W3C//DTD SVG 20010904//EN"
 "http://www.w3.org/TR/2001/REC-SVG-20010904/DTD/svg10.dtd">
<svg version="1.0" xmlns="http://www.w3.org/2000/svg"
 width="32.000000pt" height="32.000000pt" viewBox="0 0 32.000000 32.000000"
 preserveAspectRatio="xMidYMid meet">
<metadata>
Created by potrace 1.16, written by Peter Selinger 2001-2019
</metadata>
<g transform="translate(0.000000,32.000000) scale(0.100000,-0.100000)"
fill="#000000" stroke="none">
<path fill="#000000" stroke="none" d="M0 160 l0 -160 160 0 160 0 0 160 0
160 -160 0 -160 0 0 -160z"/>
<path fill="#ffffff" stroke="none" d="M164 297 c36 -26 17 -147 -22 -144 -13
1 -18 6 -14 16 3 9 1 12 -6 7 -6 -3 -14 -1 -18 5 -4 8 -3 9 5 5 8 -5 10 -1 7
16 -9 42 -10 63 -2 86 8 25 24 28 50 9z"/>
<path fill="#ffffff" stroke="none" d="M227 293 c-4 -3 -2 -12 5 -20 6 -7 8
-17 4 -20 -4 -4 -11 -1 -16 7 -6 8 -10 10 -10 5 0 -6 5 -16 12 -23 9 -9 9 -12
0 -12 -19 0 -25 26 -12 49 6 12 14 21 17 21 3 0 3 -3 0 -7z"/>
<path fill="#ffffff" stroke="none" d="M280 265 c0 -12 -29 -3 -34 10 -4 13
-2 14 14 5 11 -6 20 -13 20 -15z"/>
<path fill="#ffffff" stroke="none" d="M302 243 c-6 -2 -10 -9 -6 -14 3 -5 -3
-9 -13 -9 -16 -1 -15 -3 6 -20 19 -17 20 -21 7 -26 -9 -3 -18 -24 -22 -51 -3
-24 -13 -47 -21 -50 -18 -7 -22 -3 -33 36 -7 24 -6 31 6 31 9 0 14 -11 14 -30
0 -16 4 -30 8 -30 5 0 9 17 8 38 0 36 -2 38 -30 34 -20 -3 -27 -1 -22 7 4 6
16 11 27 11 22 0 21 19 -1 37 -13 10 -13 12 2 18 10 4 15 11 12 16 -3 5 12 9
33 8 21 0 32 -3 25 -6z"/>
<path fill="#ffffff" stroke="none" d="M93 209 c-6 -6 -9 -29 -6 -52 2 -23 0
-48 -6 -56 -15 -23 -41 -5 -41 29 0 16 -4 30 -10 30 -24 0 -7 29 20 35 16 4
32 11 35 16 4 5 9 9 13 9 3 0 1 -5 -5 -11z"/>
<path fill="#ffffff" stroke="none" d="M173 133 c-21 -14 -34 -41 -14 -29 5 3
14 -1 21 -9 7 -8 9 -15 5 -15 -4 0 -2 -6 4 -14 10 -12 9 -14 -6 -12 -11 2 -18
11 -17 24 1 12 -2 19 -7 17 -4 -3 -6 -14 -4 -25 2 -11 0 -22 -6 -25 -5 -4 -10
13 -11 37 l-1 43 -6 -45 c-5 -34 -8 -41 -16 -30 -13 21 -15 39 -4 46 6 3 7 14
4 24 -6 18 -1 20 70 28 6 0 0 -6 -12 -15z"/>
<path fill="#ffffff" stroke="none" d="M111 25 c0 -6 -10 -12 -23 -13 -19 -4
-20 -2 -9 12 15 17 33 18 32 1z"/>
<path fill="#ffffff" stroke="none" d="M215 29 c10 -15 -1 -23 -20 -15 -9 3
-13 10 -10 16 8 13 22 13 30 -1z"/>
<path fill="#000000" stroke="none" d="M142 232 c-10 -3 -9 -7 4 -16 13 -10
14 -17 5 -34 -6 -12 -9 -22 -7 -22 3 0 10 9 16 19 12 24 0 60 -18 53z"/>
<path fill="#000000" stroke="none" d="M260 189 c0 -5 5 -7 10 -4 6 3 10 8 10
11 0 2 -4 4 -10 4 -5 0 -10 -5 -10 -11z"/>
<path fill="#000000" stroke="none" d="M53 148 c0 -27 4 -48 9 -48 10 0 9 37
-2 70 -7 20 -8 15 -7 -22z"/>
</g>
</svg>
