<?xml version="1.0" standalone="no"?>
<!DOCTYPE svg PUBLIC "-//W3C//DTD SVG 20010904//EN"
 "http://www.w3.org/TR/2001/REC-SVG-20010904/DTD/svg10.dtd">
<svg version="1.0" xmlns="http://www.w3.org/2000/svg"
 width="32.000000pt" height="32.000000pt" viewBox="0 0 32.000000 32.000000"
 preserveAspectRatio="xMidYMid meet">
<metadata>
Created by potrace 1.16, written by Peter Selinger 2001-2019
</metadata>
<g transform="translate(0.000000,32.000000) scale(0.100000,-0.100000)"
fill="#000000" stroke="none">
<path fill="#000000" stroke="none" d="M0 160 l0 -160 160 0 160 0 0 160 0
160 -160 0 -160 0 0 -160z"/>
<path fill="#ffffff" stroke="none" d="M196 298 c9 -14 7 -66 -3 -82 -4 -6
-10 -1 -13 14 l-6 24 -21 -23 -21 -22 -4 35 c-2 20 0 43 5 51 10 18 53 20 63
3z"/>
<path fill="#ffffff" stroke="none" d="M112 188 c-6 -6 -15 -7 -22 -3 -8 5 -6
13 7 27 16 18 18 19 21 3 2 -9 -1 -22 -6 -27z"/>
<path fill="#ffffff" stroke="none" d="M238 218 c15 -15 16 -41 0 -36 -13 5
-31 48 -20 48 5 0 13 -5 20 -12z"/>
</g>
</svg>
