<?xml version="1.0" standalone="no"?>
<!DOCTYPE svg PUBLIC "-//W3C//DTD SVG 20010904//EN"
 "http://www.w3.org/TR/2001/REC-SVG-20010904/DTD/svg10.dtd">
<svg version="1.0" xmlns="http://www.w3.org/2000/svg"
 width="32.000000pt" height="32.000000pt" viewBox="0 0 32.000000 32.000000"
 preserveAspectRatio="xMidYMid meet">
<metadata>
Created by potrace 1.16, written by Peter Selinger 2001-2019
</metadata>
<g transform="translate(0.000000,32.000000) scale(0.100000,-0.100000)"
fill="#000000" stroke="none">
<path fill="#000000" stroke="none" d="M134 298 c-5 -7 -7 -24 -6 -38 2 -30
-40 -65 -75 -62 -15 1 -23 -4 -23 -13 0 -8 7 -15 15 -15 8 0 15 -5 15 -11 0
-7 12 1 26 16 24 26 27 27 36 11 7 -13 6 -30 -6 -59 -19 -50 -14 -59 10 -18
20 35 50 41 58 13 7 -21 56 -71 56 -56 0 5 -11 30 -24 56 -12 26 -19 45 -14
42 4 -3 8 2 8 10 0 26 19 28 31 4 12 -27 59 -37 59 -13 0 8 -7 15 -15 15 -21
0 -88 68 -82 83 13 35 -50 66 -69 35z"/>
<path fill="#ffffff" stroke="none" d="M175 193 c-7 -47 -14 -46 -29 3 -4 14
-1 28 10 38 23 24 27 14 19 -41z"/>
<path fill="#000000" stroke="none" d="M295 229 c-4 -6 -5 -12 -2 -15 2 -3 7
2 10 11 7 17 1 20 -8 4z"/>
</g>
</svg>
