<?xml version="1.0" standalone="no"?>
<!DOCTYPE svg PUBLIC "-//W3C//DTD SVG 20010904//EN"
 "http://www.w3.org/TR/2001/REC-SVG-20010904/DTD/svg10.dtd">
<svg version="1.0" xmlns="http://www.w3.org/2000/svg"
 width="32.000000pt" height="32.000000pt" viewBox="0 0 32.000000 32.000000"
 preserveAspectRatio="xMidYMid meet">
<metadata>
Created by potrace 1.16, written by Peter Selinger 2001-2019
</metadata>
<g transform="translate(0.000000,32.000000) scale(0.100000,-0.100000)"
fill="#000000" stroke="none">
<path fill="#000000" stroke="none" d="M0 160 l0 -160 160 0 160 0 0 160 0
160 -160 0 -160 0 0 -160z"/>
<path fill="#ffffff" stroke="none" d="M166 286 c3 -8 13 -12 22 -10 15 5 15
4 0 -6 -10 -6 -18 -23 -18 -38 1 -25 1 -26 15 -8 13 18 15 17 46 -13 33 -33
34 -50 2 -33 -14 8 -24 4 -45 -20 -17 -18 -21 -28 -11 -24 9 4 20 1 25 -6 13
-21 10 -88 -4 -89 -7 0 -2 -5 12 -11 15 -6 20 -12 12 -15 -15 -6 -44 16 -37
27 3 5 1 11 -5 15 -5 3 -10 15 -10 26 0 29 -27 23 -38 -10 -6 -16 -8 -31 -6
-34 8 -8 -25 -29 -38 -24 -8 3 -3 9 12 15 14 6 19 11 13 11 -8 1 -13 15 -13
39 0 47 11 65 35 56 16 -6 15 -4 -3 14 -12 12 -22 26 -22 31 0 12 -33 9 -42
-4 -5 -6 -8 -5 -8 3 0 7 12 24 28 37 24 21 28 22 33 7 6 -16 7 -15 14 1 5 11
1 25 -11 39 -11 12 -14 18 -8 15 7 -4 14 0 18 8 7 19 25 19 32 1z"/>
<path fill="#ffffff" stroke="none" d="M50 185 c0 -8 -7 -15 -15 -15 -8 0 -15
7 -15 15 0 8 7 15 15 15 8 0 15 -7 15 -15z"/>
<path fill="#ffffff" stroke="none" d="M270 145 c0 -8 -7 -15 -15 -15 -8 0
-15 7 -15 15 0 8 7 15 15 15 8 0 15 -7 15 -15z"/>
</g>
</svg>
