<?xml version="1.0" standalone="no"?>
<!DOCTYPE svg PUBLIC "-//W3C//DTD SVG 20010904//EN"
 "http://www.w3.org/TR/2001/REC-SVG-20010904/DTD/svg10.dtd">
<svg version="1.0" xmlns="http://www.w3.org/2000/svg"
 width="32.000000pt" height="32.000000pt" viewBox="0 0 32.000000 32.000000"
 preserveAspectRatio="xMidYMid meet">
<metadata>
Created by potrace 1.16, written by Peter Selinger 2001-2019
</metadata>
<g transform="translate(0.000000,32.000000) scale(0.100000,-0.100000)"
fill="#000000" stroke="none">
<path fill="#000000" stroke="none" d="M134 286 c-3 -9 -11 -13 -18 -9 -6 3
-2 -3 8 -16 20 -23 32 -19 38 13 4 23 -20 34 -28 12z"/>
<path fill="#000000" stroke="none" d="M175 270 c-3 -6 1 -7 9 -4 18 7 21 14
7 14 -6 0 -13 -4 -16 -10z"/>
<path fill="#000000" stroke="none" d="M90 215 l-25 -27 25 4 c18 2 25 -2 28
-17 2 -11 11 -26 20 -34 15 -12 15 -12 -4 -7 -18 6 -22 2 -26 -24 -3 -16 -1
-30 4 -30 4 0 8 6 8 14 0 11 8 12 33 6 21 -4 37 -3 44 5 16 17 0 37 -22 29
-17 -7 -17 -6 1 12 10 11 27 31 37 44 10 14 15 20 12 13 -3 -6 -1 -14 5 -18
20 -13 9 24 -12 39 -19 14 -23 14 -34 -2 -13 -16 -13 -16 -14 1 0 16 -2 16
-24 2 -22 -15 -25 -15 -28 0 -2 14 -8 12 -28 -10z"/>
<path fill="#000000" stroke="none" d="M20 185 c0 -9 5 -15 11 -13 6 2 11 8
11 13 0 5 -5 11 -11 13 -6 2 -11 -4 -11 -13z"/>
<path fill="#000000" stroke="none" d="M242 149 c2 -6 8 -10 13 -10 5 0 11 4
13 10 2 6 -4 11 -13 11 -9 0 -15 -5 -13 -11z"/>
</g>
</svg>
