<?xml version="1.0" standalone="no"?>
<!DOCTYPE svg PUBLIC "-//W3C//DTD SVG 20010904//EN"
 "http://www.w3.org/TR/2001/REC-SVG-20010904/DTD/svg10.dtd">
<svg version="1.0" xmlns="http://www.w3.org/2000/svg"
 width="32.000000pt" height="32.000000pt" viewBox="0 0 32.000000 32.000000"
 preserveAspectRatio="xMidYMid meet">
<metadata>
Created by potrace 1.16, written by Peter Selinger 2001-2019
</metadata>
<g transform="translate(0.000000,32.000000) scale(0.100000,-0.100000)"
fill="#000000" stroke="none">
<path fill="#000000" stroke="none" d="M195 298 c-11 -7 -28 -20 -39 -29 -32
-30 -79 -49 -88 -36 -6 9 -13 7 -23 -7 -8 -11 -15 -15 -15 -9 0 5 9 18 20 28
11 10 20 13 20 7 0 -17 20 -15 26 3 3 8 -1 21 -9 30 -21 21 -67 1 -67 -29 0
-48 13 -126 21 -126 5 0 8 3 6 8 -2 8 6 12 25 12 6 0 3 -7 -8 -16 -19 -15 -19
-15 2 -9 14 4 24 0 27 -9 7 -18 -9 -31 -18 -16 -5 8 -12 7 -23 -2 -13 -11 -15
-10 -9 5 4 9 2 17 -4 17 -11 0 -9 -18 6 -67 5 -16 2 -23 -14 -28 -12 -3 -21
-11 -21 -16 0 -5 12 -2 26 7 18 12 24 24 22 39 -3 14 1 21 12 21 11 0 16 -9
16 -33 0 -43 10 -50 42 -31 18 11 27 26 28 45 2 37 14 73 26 73 5 0 6 -6 2
-12 -4 -7 -4 -10 1 -6 5 5 10 20 12 35 6 49 9 62 16 69 18 18 5 25 -15 8 -12
-10 -18 -13 -14 -6 4 6 3 12 -2 12 -6 0 -13 -7 -16 -16 -9 -22 -8 -24 9 -18
20 8 21 -39 1 -55 -11 -10 -16 -8 -20 7 -4 10 -14 19 -22 19 -14 0 -14 -2 2
-14 10 -7 16 -13 13 -14 -2 0 -15 -2 -28 -5 -18 -3 -22 -1 -17 11 3 10 2 13
-5 10 -7 -5 -9 5 -7 26 2 18 11 34 19 37 12 3 12 2 0 -6 -11 -8 -8 -10 12 -9
32 2 31 1 11 21 -17 17 -17 17 41 20 12 1 19 7 17 15 -2 8 3 18 10 22 21 14
48 10 48 -7 0 -9 5 -12 13 -8 7 4 9 3 4 -2 -5 -5 -14 -9 -19 -9 -6 0 -13 -5
-15 -12 -3 -8 3 -11 16 -8 14 2 21 -1 21 -11 0 -8 -5 -14 -11 -14 -7 0 -8 -11
-4 -29 5 -24 2 -33 -15 -43 -12 -7 -30 -32 -41 -56 -23 -49 -16 -66 26 -75 21
-3 23 -2 13 10 -9 11 -9 16 1 23 8 4 10 13 6 20 -5 8 -3 11 6 8 8 -3 15 -14
17 -26 2 -12 8 -22 13 -22 6 0 8 -4 5 -8 -3 -5 1 -9 9 -9 20 0 19 7 -2 23 -15
10 -16 15 -5 25 17 18 15 37 -7 65 -15 20 -17 31 -10 62 12 53 11 98 -3 110
-23 17 -53 22 -73 10z"/>
<path fill="#ffffff" stroke="none" d="M54 271 c-10 -10 -21 -16 -24 -14 -3 3
4 11 14 19 28 20 33 17 10 -5z"/>
<path fill="#ffffff" stroke="none" d="M51 183 c-12 -20 -14 -14 -5 12 4 9 9
14 11 11 3 -2 0 -13 -6 -23z"/>
<path fill="#ffffff" stroke="none" d="M150 110 c-20 -13 -30 -12 -30 1 0 5 4
8 9 4 5 -3 13 0 16 6 4 5 10 8 13 4 4 -3 0 -10 -8 -15z"/>
<path fill="#ffffff" stroke="none" d="M275 90 c4 0 3 5 -1 12 -4 7 -3 8 4 4
17 -10 15 -36 -2 -36 -21 0 -39 28 -31 47 6 16 8 16 16 -4 4 -13 11 -23 14
-23z"/>
<path fill="#ffffff" stroke="none" d="M120 79 c0 -5 4 -8 9 -4 5 3 13 0 17
-6 5 -8 3 -9 -6 -4 -9 5 -10 2 -5 -14 4 -15 1 -23 -10 -27 -23 -9 -34 6 -28
39 5 26 23 39 23 16z"/>
<path fill="#ffffff" stroke="none" d="M220 65 c9 6 5 -34 -5 -43 -12 -12 -24
15 -18 38 4 13 8 19 11 12 2 -7 8 -10 12 -7z"/>
<path fill="#000000" stroke="none" d="M230 271 c0 -7 -4 -9 -10 -6 -5 3 -10
1 -10 -4 0 -6 4 -11 9 -11 13 0 25 20 17 27 -3 4 -6 1 -6 -6z"/>
</g>
</svg>
