<?xml version="1.0" standalone="no"?>
<!DOCTYPE svg PUBLIC "-//W3C//DTD SVG 20010904//EN"
 "http://www.w3.org/TR/2001/REC-SVG-20010904/DTD/svg10.dtd">
<svg version="1.0" xmlns="http://www.w3.org/2000/svg"
 width="32.000000pt" height="32.000000pt" viewBox="0 0 32.000000 32.000000"
 preserveAspectRatio="xMidYMid meet">
<metadata>
Created by potrace 1.16, written by Peter Selinger 2001-2019
</metadata>
<g transform="translate(0.000000,32.000000) scale(0.100000,-0.100000)"
fill="#000000" stroke="none">
<path fill="#000000" stroke="none" d="M61 287 c-13 -13 -14 -46 -1 -67 5 -9
5 -19 -1 -27 -32 -37 -59 -113 -41 -113 15 0 36 19 29 27 -5 4 -12 1 -17 -7
-7 -11 -10 -11 -10 -2 0 7 6 15 14 18 8 3 12 12 10 19 -6 15 12 30 20 17 3 -5
1 -23 -3 -40 -10 -35 11 -77 35 -68 17 7 18 -6 2 -23 -11 -10 -10 -12 2 -9 8
2 18 7 22 12 4 6 12 5 21 -2 12 -10 18 -10 30 2 16 17 28 11 20 -9 -3 -9 2
-13 16 -12 19 1 19 3 5 22 -8 11 -17 28 -20 37 -9 25 -33 31 -29 7 3 -17 0
-19 -18 -13 -12 4 -31 8 -41 9 -23 2 -32 20 -15 31 8 4 9 3 5 -4 -4 -7 -3 -12
2 -12 6 0 12 7 16 15 3 8 0 14 -5 12 -6 -1 -13 9 -15 22 -3 18 -1 22 12 17 14
-5 15 -4 5 8 -16 19 0 28 49 28 28 -1 40 4 44 16 2 9 4 6 3 -8 -2 -27 -22 -33
-46 -16 -11 9 -13 7 -9 -4 2 -8 15 -16 27 -18 15 -2 21 -8 17 -18 -3 -8 -9
-21 -13 -31 -4 -11 -3 -14 5 -9 11 6 16 -5 13 -26 0 -4 6 -5 14 -2 11 5 13 2
8 -12 -6 -16 -4 -17 9 -7 8 7 18 10 21 6 4 -3 -1 -12 -11 -20 -9 -8 -11 -11
-3 -7 10 5 13 3 9 -8 -4 -9 0 -15 9 -15 12 0 14 9 10 46 -5 40 -4 42 5 18 5
-15 15 -26 21 -24 16 5 30 107 19 132 -5 11 -13 33 -18 50 -5 16 -19 34 -31
40 -11 6 -27 16 -34 21 -19 15 -153 16 -168 1z"/>
<path fill="#ffffff" stroke="none" d="M122 276 c-3 -6 -7 -27 -8 -46 -1 -26
-6 -36 -20 -37 -18 -3 -18 -2 1 6 11 5 14 10 7 10 -16 1 -48 31 -33 31 5 0 13
-6 17 -12 6 -9 10 -5 14 12 4 17 1 29 -9 37 -14 11 -12 12 11 11 15 -1 24 -7
20 -12z"/>
<path fill="#ffffff" stroke="none" d="M194 276 c-19 -15 -19 -15 1 -12 11 2
26 -1 33 -7 7 -5 15 -7 19 -3 9 9 43 -24 43 -42 0 -8 -8 -21 -17 -28 -16 -12
-16 -12 5 -7 22 5 24 3 25 -32 1 -53 -4 -88 -10 -81 -5 4 -9 12 -9 17 -1 5 -2
14 -3 19 0 6 -8 10 -16 10 -8 0 -19 9 -25 19 -13 26 -13 34 3 25 6 -4 5 1 -4
12 -19 23 -33 55 -30 69 2 5 -1 7 -4 3 -4 -4 -16 -3 -26 3 -11 5 -19 8 -19 5
0 -2 -3 -12 -6 -21 -7 -17 15 -18 27 -1 4 4 10 3 13 -3 9 -14 -18 -25 -39 -17
-23 8 -18 53 7 70 29 21 60 22 32 2z"/>
<path fill="#ffffff" stroke="none" d="M244 101 c3 -5 -1 -12 -10 -15 -20 -8
-29 -1 -19 13 8 13 22 14 29 2z"/>
<path fill="#000000" stroke="none" d="M276 131 c-4 -5 -2 -12 3 -15 5 -4 12
-2 15 3 4 5 2 12 -3 15 -5 4 -12 2 -15 -3z"/>
</g>
</svg>
