<?xml version="1.0" standalone="no"?>
<!DOCTYPE svg PUBLIC "-//W3C//DTD SVG 20010904//EN"
 "http://www.w3.org/TR/2001/REC-SVG-20010904/DTD/svg10.dtd">
<svg version="1.0" xmlns="http://www.w3.org/2000/svg"
 width="32.000000pt" height="32.000000pt" viewBox="0 0 32.000000 32.000000"
 preserveAspectRatio="xMidYMid meet">
<metadata>
Created by potrace 1.16, written by Peter Selinger 2001-2019
</metadata>
<g transform="translate(0.000000,32.000000) scale(0.100000,-0.100000)"
fill="#000000" stroke="none">
<path fill="#000000" stroke="none" d="M91 285 c-23 -24 -31 -40 -26 -54 3
-10 1 -22 -4 -26 -7 -4 -8 1 -4 11 4 12 3 15 -5 10 -7 -4 -12 -20 -12 -36 0
-16 -5 -32 -11 -36 -6 -3 -9 -18 -6 -32 3 -15 -1 -39 -9 -54 -8 -15 -11 -33
-8 -41 7 -19 45 -30 58 -17 6 6 19 10 31 10 12 0 27 6 35 13 8 6 6 1 -5 -12
l-20 -23 99 5 c107 6 124 13 107 45 -6 11 -8 28 -5 36 3 9 3 24 -1 33 -4 10
-9 29 -10 43 -2 14 -8 36 -14 50 -40 85 -61 103 -122 106 -28 2 -42 -5 -68
-31z"/>
<path fill="#ffffff" stroke="none" d="M186 260 c2 -37 -4 -42 -31 -24 -20 13
-23 20 -14 36 14 26 44 19 45 -12z"/>
<path fill="#ffffff" stroke="none" d="M127 234 c2 -5 -6 -10 -16 -11 -14 -1
-18 3 -14 13 6 16 25 14 30 -2z"/>
<path fill="#ffffff" stroke="none" d="M240 231 c0 -5 -6 -12 -12 -15 -7 -3
-4 -4 7 -3 14 1 21 -5 23 -20 2 -16 -2 -23 -12 -23 -9 0 -16 -5 -16 -12 0 -30
-14 7 -16 42 -2 29 2 40 12 40 8 0 14 -4 14 -9z"/>
<path fill="#ffffff" stroke="none" d="M118 180 c2 -23 1 -24 -11 -7 -8 9 -17
17 -20 17 -4 0 -4 -8 0 -17 4 -14 3 -15 -6 -7 -16 14 -3 46 18 42 9 -2 17 -14
19 -28z"/>
<path fill="#ffffff" stroke="none" d="M176 185 c-23 -18 -36 -19 -36 -4 0 5
4 8 9 4 5 -3 12 -1 16 5 3 5 12 10 18 10 7 0 3 -7 -7 -15z"/>
<path fill="#ffffff" stroke="none" d="M210 128 c0 -4 -12 -5 -26 -2 -18 3
-23 1 -18 -7 4 -8 3 -9 -4 -5 -18 11 -15 20 11 31 21 10 36 3 37 -17z"/>
<path fill="#ffffff" stroke="none" d="M50 135 c11 -13 10 -14 -4 -9 -9 3 -16
10 -16 15 0 13 6 11 20 -6z"/>
<path fill="#ffffff" stroke="none" d="M125 139 c9 -13 5 -16 -20 -21 -11 -1
-23 -10 -27 -18 -4 -9 -6 -5 -5 12 1 15 5 24 9 22 4 -3 8 0 8 5 0 14 27 14 35
0z"/>
<path fill="#ffffff" stroke="none" d="M280 100 c0 -11 -4 -20 -9 -20 -5 0 -7
9 -4 20 3 11 7 20 9 20 2 0 4 -9 4 -20z"/>
<path fill="#ffffff" stroke="none" d="M41 87 c-10 -9 -11 -8 -5 6 3 10 9 15
12 12 3 -3 0 -11 -7 -18z"/>
<path fill="#ffffff" stroke="none" d="M200 90 c0 -17 -5 -25 -12 -23 -16 6
-7 -10 18 -33 23 -23 24 -24 5 -24 -12 0 -21 4 -21 9 0 4 -13 22 -30 39 -16
18 -30 33 -30 35 0 2 16 4 35 5 19 1 35 -3 35 -8z"/>
<path fill="#ffffff" stroke="none" d="M246 75 c-1 -30 -2 -31 -17 -4 -8 15
-8 19 0 15 6 -4 11 -2 11 3 0 6 2 11 4 11 2 0 3 -11 2 -25z"/>
<path fill="#ffffff" stroke="none" d="M302 36 c7 4 8 2 4 -4 -10 -16 -36 -15
-36 1 0 21 15 31 18 13 2 -9 8 -13 14 -10z"/>
<path fill="#000000" stroke="none" d="M141 257 c2 -1 13 -9 24 -17 19 -14 19
-14 6 3 -7 9 -18 17 -24 17 -6 0 -8 -1 -6 -3z"/>
</g>
</svg>
