<?xml version="1.0" standalone="no"?>
<!DOCTYPE svg PUBLIC "-//W3C//DTD SVG 20010904//EN"
 "http://www.w3.org/TR/2001/REC-SVG-20010904/DTD/svg10.dtd">
<svg version="1.0" xmlns="http://www.w3.org/2000/svg"
 width="32.000000pt" height="32.000000pt" viewBox="0 0 32.000000 32.000000"
 preserveAspectRatio="xMidYMid meet">
<metadata>
Created by potrace 1.16, written by Peter Selinger 2001-2019
</metadata>
<g transform="translate(0.000000,32.000000) scale(0.100000,-0.100000)"
fill="#000000" stroke="none">
<path fill="#000000" stroke="none" d="M0 159 c0 -142 2 -159 15 -146 8 9 20
17 27 19 10 4 10 10 0 32 -14 32 -16 56 -2 56 5 0 6 -8 3 -18 -6 -14 -4 -15 9
-4 11 9 18 10 23 2 9 -15 25 -2 18 16 -3 9 -13 13 -27 9 -21 -6 -21 -6 -2 9
17 14 14 18 -11 15 -5 -1 -7 -5 -5 -10 1 -5 -2 -9 -7 -9 -8 0 -21 78 -21 126
0 30 46 50 67 29 8 -9 12 -22 9 -30 -6 -18 -26 -20 -26 -3 0 6 -9 3 -20 -7
-11 -10 -20 -23 -20 -28 0 -6 7 -2 15 9 10 14 17 16 23 7 9 -14 56 6 89 36 35
33 60 42 88 31 35 -13 40 -32 28 -102 -8 -52 -7 -63 9 -83 21 -27 23 -46 6
-63 -9 -9 -7 -16 10 -32 l22 -21 0 161 0 160 -160 0 -160 0 0 -161z"/>
<path fill="#000000" stroke="none" d="M44 276 c-10 -8 -17 -16 -14 -19 3 -2
14 4 24 14 23 22 18 25 -10 5z"/>
<path fill="#000000" stroke="none" d="M202 281 c-7 -4 -12 -14 -10 -21 2 -7
-4 -15 -12 -17 -13 -4 -13 -3 0 6 20 14 9 14 -28 -2 -29 -12 -30 -14 -12 -25
12 -7 21 -8 25 -2 9 15 27 12 19 -2 -4 -7 2 -4 14 6 20 17 33 10 15 -8 -14
-14 -23 -100 -12 -117 7 -12 9 -12 9 1 0 8 10 26 21 40 11 14 17 19 13 11 -5
-10 -3 -12 5 -7 8 5 10 19 6 37 -4 18 -3 29 4 29 6 0 11 6 11 14 0 10 -7 13
-21 11 -13 -3 -19 0 -16 8 2 7 9 12 15 12 5 0 14 4 19 9 5 5 3 6 -4 2 -8 -4
-13 -1 -13 8 0 17 -27 21 -48 7z"/>
<path fill="#ffffff" stroke="none" d="M235 261 c-8 -14 -25 -14 -25 0 0 5 5
7 10 4 6 -3 10 -1 10 6 0 7 3 10 6 6 3 -3 3 -10 -1 -16z"/>
<path fill="#000000" stroke="none" d="M46 195 c-9 -26 -7 -32 5 -12 6 10 9
21 6 23 -2 3 -7 -2 -11 -11z"/>
<path fill="#000000" stroke="none" d="M108 196 c-20 -15 -24 -36 -7 -36 6 0
9 -7 5 -15 -4 -11 0 -14 17 -11 12 3 24 5 26 5 3 1 -4 7 -15 15 -10 8 -16 18
-11 22 4 4 7 2 7 -5 0 -7 4 -10 9 -7 13 8 35 -50 24 -66 -4 -7 -8 -26 -8 -42
0 -16 -7 -32 -14 -34 -8 -3 -11 0 -7 6 7 12 -13 62 -26 62 -4 0 -8 -6 -8 -14
0 -8 -3 -22 -6 -31 -5 -11 0 -18 15 -22 11 -3 19 -8 17 -12 -2 -3 16 -6 40 -6
42 -1 43 0 23 18 -11 11 -16 23 -12 30 10 16 11 77 1 77 -4 0 -3 12 2 26 13
33 12 54 -1 31 -6 -9 -15 -15 -20 -12 -5 4 -6 11 -3 17 4 7 2 8 -4 4 -7 -4
-12 -2 -12 3 0 14 -11 13 -32 -3z"/>
<path fill="#000000" stroke="none" d="M145 121 c-3 -6 -11 -9 -16 -6 -5 4 -9
1 -9 -4 0 -13 10 -14 30 -1 8 5 12 12 8 15 -3 4 -9 1 -13 -4z"/>
<path fill="#000000" stroke="none" d="M245 117 c-8 -19 10 -47 31 -47 17 0
19 26 2 36 -7 4 -8 3 -4 -4 4 -7 5 -12 1 -12 -3 0 -10 10 -14 23 -8 20 -10 20
-16 4z"/>
<path fill="#000000" stroke="none" d="M58 57 c3 -13 -3 -26 -16 -36 -22 -16
-21 -16 12 -18 32 -2 33 -1 32 36 0 27 -5 37 -17 37 -11 0 -14 -6 -11 -19z"/>
<path fill="#000000" stroke="none" d="M197 60 c-6 -23 6 -50 18 -38 10 9 14
49 5 43 -4 -3 -10 0 -12 7 -3 7 -7 1 -11 -12z"/>
<path fill="#000000" stroke="none" d="M246 56 c4 -9 1 -16 -6 -16 -7 0 -10
-6 -7 -14 3 -8 1 -17 -6 -19 -7 -2 7 -3 31 -3 32 1 39 4 28 11 -7 6 -15 19
-17 29 -2 11 -10 21 -17 24 -7 2 -10 -2 -6 -12z"/>
</g>
</svg>
