<?xml version="1.0" standalone="no"?>
<!DOCTYPE svg PUBLIC "-//W3C//DTD SVG 20010904//EN"
 "http://www.w3.org/TR/2001/REC-SVG-20010904/DTD/svg10.dtd">
<svg version="1.0" xmlns="http://www.w3.org/2000/svg"
 width="32.000000pt" height="32.000000pt" viewBox="0 0 32.000000 32.000000"
 preserveAspectRatio="xMidYMid meet">
<metadata>
Created by potrace 1.16, written by Peter Selinger 2001-2019
</metadata>
<g transform="translate(0.000000,32.000000) scale(0.100000,-0.100000)"
fill="#000000" stroke="none">
<path fill="#000000" stroke="none" d="M0 231 c0 -96 6 -125 23 -114 6 4 8 0
4 -10 -3 -10 -4 -17 -1 -17 2 0 8 10 13 22 5 13 17 23 27 23 11 0 18 6 16 13
-1 8 2 11 10 6 17 -11 98 -22 92 -13 -2 4 0 10 6 14 6 4 8 9 6 13 -2 4 9 7 25
8 34 1 35 -1 9 -58 -23 -53 -43 -73 -65 -64 -9 3 -13 2 -10 -4 3 -5 -3 -9 -12
-9 -10 1 -29 -3 -42 -7 -17 -5 -22 -4 -17 4 4 7 2 12 -3 12 -6 0 -11 9 -11 19
0 15 11 21 47 27 25 5 48 15 49 22 1 7 0 8 -3 2 -3 -8 -9 -7 -19 1 -10 8 -14
8 -14 0 0 -6 -4 -11 -10 -11 -5 0 -10 7 -10 15 0 13 -4 14 -20 5 -11 -6 -25
-8 -30 -5 -6 3 -10 1 -10 -6 0 -7 10 -9 25 -7 13 3 22 1 19 -3 -3 -5 -11 -9
-19 -9 -14 0 -30 -28 -26 -45 2 -5 -9 1 -23 14 l-26 24 0 -46 0 -47 160 0 160
0 0 28 c0 20 -3 23 -10 12 -14 -23 -34 35 -34 105 -1 60 -1 60 -31 60 -22 0
-33 7 -42 26 -15 31 -59 52 -99 47 -27 -3 -29 -6 -30 -53 -2 -78 -2 -77 -23
-70 -13 4 -23 0 -31 -12 -6 -10 -10 -12 -7 -4 2 11 33 36 43 36 1 0 5 15 9 34
5 23 4 31 -4 27 -12 -8 -4 21 12 42 25 32 130 2 147 -43 7 -17 14 -22 30 -18
33 9 53 -16 47 -59 -4 -28 -2 -38 9 -38 11 0 14 21 14 100 l0 100 -160 0 -160
0 0 -89z"/>
<path fill="#ffffff" stroke="none" d="M121 250 c23 -13 25 -36 3 -44 -26 -10
-36 -7 -31 9 4 8 2 17 -3 20 -13 8 -13 25 1 25 6 0 19 -5 30 -10z"/>
<path fill="#ffffff" stroke="none" d="M157 208 c-3 -7 -5 -2 -5 12 0 14 2 19
5 13 2 -7 2 -19 0 -25z"/>
<path fill="#ffffff" stroke="none" d="M246 33 c-10 -10 -19 5 -10 18 6 11 8
11 12 0 2 -7 1 -15 -2 -18z"/>
<path fill="#ffffff" stroke="none" d="M277 38 c-3 -8 -6 -5 -6 6 -1 11 2 17
5 13 3 -3 4 -12 1 -19z"/>
<path fill="#000000" stroke="none" d="M218 163 c-10 -2 -18 -13 -18 -23 0
-14 5 -18 16 -13 13 5 13 7 2 14 -10 7 -9 9 5 9 9 0 17 5 17 10 0 6 -1 9 -2 9
-2 -1 -11 -3 -20 -6z"/>
</g>
</svg>
