<?xml version="1.0" standalone="no"?>
<!DOCTYPE svg PUBLIC "-//W3C//DTD SVG 20010904//EN"
 "http://www.w3.org/TR/2001/REC-SVG-20010904/DTD/svg10.dtd">
<svg version="1.0" xmlns="http://www.w3.org/2000/svg"
 width="32.000000pt" height="32.000000pt" viewBox="0 0 32.000000 32.000000"
 preserveAspectRatio="xMidYMid meet">
<metadata>
Created by potrace 1.16, written by Peter Selinger 2001-2019
</metadata>
<g transform="translate(0.000000,32.000000) scale(0.100000,-0.100000)"
fill="#000000" stroke="none">
<path fill="#000000" stroke="none" d="M104 299 c-3 -6 -17 -15 -31 -20 -15
-6 -23 -15 -20 -23 3 -8 -3 -22 -14 -32 -15 -13 -19 -26 -15 -46 3 -15 1 -30
-4 -33 -14 -9 -24 -95 -12 -107 10 -10 50 5 62 23 3 5 11 -1 18 -12 10 -16 10
-20 -3 -25 -39 -15 15 -26 79 -15 5 0 6 14 3 30 -5 23 -2 30 13 34 20 5 25 -6
22 -46 -2 -16 5 -18 58 -15 60 3 76 12 41 23 -13 4 -17 12 -13 32 4 19 2 24
-8 18 -9 -5 -11 -4 -6 4 4 6 2 19 -5 28 -11 13 -9 18 14 35 28 20 38 54 13 45
-14 -6 -15 5 -1 36 11 26 -1 47 -28 47 -14 0 -30 6 -36 14 -13 16 -118 20
-127 5z"/>
<path fill="#ffffff" stroke="none" d="M144 235 c-4 -8 -11 -12 -16 -9 -6 4
-5 10 3 15 19 12 19 11 13 -6z"/>
<path fill="#ffffff" stroke="none" d="M175 161 c-6 -5 -25 10 -25 20 0 5 6 4
14 -3 8 -7 12 -15 11 -17z"/>
<path fill="#ffffff" stroke="none" d="M191 123 c-12 -20 -14 -14 -5 12 4 9 9
14 11 11 3 -2 0 -13 -6 -23z"/>
<path fill="#ffffff" stroke="none" d="M80 99 c0 -6 -4 -7 -10 -4 -5 3 -10 11
-10 16 0 6 5 7 10 4 6 -3 10 -11 10 -16z"/>
</g>
</svg>
