<?xml version="1.0" standalone="no"?>
<!DOCTYPE svg PUBLIC "-//W3C//DTD SVG 20010904//EN"
 "http://www.w3.org/TR/2001/REC-SVG-20010904/DTD/svg10.dtd">
<svg version="1.0" xmlns="http://www.w3.org/2000/svg"
 width="32.000000pt" height="32.000000pt" viewBox="0 0 32.000000 32.000000"
 preserveAspectRatio="xMidYMid meet">
<metadata>
Created by potrace 1.16, written by Peter Selinger 2001-2019
</metadata>
<g transform="translate(0.000000,32.000000) scale(0.100000,-0.100000)"
fill="#000000" stroke="none">
<path fill="#000000" stroke="none" d="M0 223 c0 -95 0 -97 17 -73 10 14 17
29 15 34 -2 5 4 4 12 -4 13 -10 16 -10 16 1 0 8 3 25 7 38 4 17 3 22 -5 17
-13 -8 -6 20 11 42 25 32 130 2 147 -43 7 -17 14 -22 30 -18 33 9 53 -16 47
-59 -4 -28 -2 -38 9 -38 11 0 14 21 14 100 l0 100 -160 0 -160 0 0 -97z"/>
<path fill="#000000" stroke="none" d="M74 269 c-2 -4 4 -6 13 -4 10 1 24 -2
31 -8 7 -5 15 -7 19 -3 3 3 1 6 -6 6 -7 0 -10 4 -7 8 2 4 -7 8 -20 8 -14 0
-27 -3 -30 -7z"/>
<path fill="#000000" stroke="none" d="M74 209 c-3 -6 -1 -16 4 -21 8 -8 11
-5 9 11 -1 24 -3 25 -13 10z"/>
<path fill="#000000" stroke="none" d="M101 127 c0 -10 -9 -21 -18 -24 -23 -9
-43 -35 -36 -48 4 -5 -6 1 -20 14 l-27 24 0 -46 0 -47 160 0 160 0 -1 28 c0
15 -3 21 -6 15 -6 -15 -133 -18 -133 -3 0 9 -35 7 -79 -6 -17 -5 -22 -4 -17 4
4 7 2 12 -3 12 -6 0 -11 9 -11 19 0 15 11 21 47 27 25 5 48 15 49 22 1 7 0 8
-3 2 -3 -8 -9 -7 -19 1 -10 8 -14 8 -14 0 0 -18 -18 -13 -23 7 -4 16 -5 16 -6
-1z"/>
</g>
</svg>
