<?xml version="1.0" standalone="no"?>
<!DOCTYPE svg PUBLIC "-//W3C//DTD SVG 20010904//EN"
 "http://www.w3.org/TR/2001/REC-SVG-20010904/DTD/svg10.dtd">
<svg version="1.0" xmlns="http://www.w3.org/2000/svg"
 width="32.000000pt" height="32.000000pt" viewBox="0 0 32.000000 32.000000"
 preserveAspectRatio="xMidYMid meet">
<metadata>
Created by potrace 1.16, written by Peter Selinger 2001-2019
</metadata>
<g transform="translate(0.000000,32.000000) scale(0.100000,-0.100000)"
fill="#000000" stroke="none">
<path fill="#000000" stroke="none" d="M176 273 c-4 -4 -22 -6 -41 -5 -18 2
-36 -1 -39 -7 -4 -6 -27 -19 -51 -30 -52 -23 -55 -36 -26 -104 19 -45 19 -45
0 -63 -10 -9 -19 -20 -19 -24 0 -3 47 -6 105 -6 58 0 105 3 105 7 0 3 7 6 15
6 8 0 15 -4 15 -9 0 -12 54 -10 68 4 14 14 16 68 2 68 -5 0 -7 13 -4 28 5 24
-2 38 -43 85 -45 53 -70 67 -87 50z"/>
<path fill="#ffffff" stroke="none" d="M178 207 c4 -20 -25 -34 -40 -19 -15
15 -1 44 19 40 10 -2 19 -11 21 -21z"/>
<path fill="#ffffff" stroke="none" d="M126 94 c12 -10 11 -13 -8 -17 -28 -8
-27 -9 -20 33 4 24 7 29 10 15 2 -11 10 -25 18 -31z"/>
<path fill="#000000" stroke="none" d="M145 210 c-3 -5 -1 -10 4 -10 6 0 11 5
11 10 0 6 -2 10 -4 10 -3 0 -8 -4 -11 -10z"/>
</g>
</svg>
