<?xml version="1.0" standalone="no"?>
<!DOCTYPE svg PUBLIC "-//W3C//DTD SVG 20010904//EN"
 "http://www.w3.org/TR/2001/REC-SVG-20010904/DTD/svg10.dtd">
<svg version="1.0" xmlns="http://www.w3.org/2000/svg"
 width="32.000000pt" height="32.000000pt" viewBox="0 0 32.000000 32.000000"
 preserveAspectRatio="xMidYMid meet">
<metadata>
Created by potrace 1.16, written by Peter Selinger 2001-2019
</metadata>
<g transform="translate(0.000000,32.000000) scale(0.100000,-0.100000)"
fill="#000000" stroke="none">
<path fill="#000000" stroke="none" d="M13 304 c-2 -7 3 -26 11 -43 9 -16 16
-37 16 -47 0 -12 6 -15 25 -10 29 7 30 4 11 -27 -22 -33 -32 -152 -15 -163 30
-18 36 -12 34 35 -3 65 -5 69 -16 42 -6 -16 -6 -28 1 -35 14 -14 13 -29 -2
-20 -7 4 -8 3 -4 -4 4 -7 2 -12 -5 -12 -8 0 -9 18 -4 67 5 53 12 73 30 88 19
17 20 22 9 33 -8 7 -23 10 -34 7 -15 -5 -20 -2 -20 12 0 11 -5 24 -12 31 -10
10 -7 17 10 35 20 19 22 20 16 3 -6 -16 -4 -18 12 -13 18 7 18 6 2 -7 -10 -7
-18 -18 -18 -24 0 -18 20 -25 35 -12 17 14 38 3 31 -16 -3 -9 1 -14 13 -14 10
0 24 -7 31 -15 7 -8 20 -15 29 -15 9 0 22 -5 29 -12 9 -9 17 -8 37 2 20 10 28
11 37 2 9 -9 9 -15 -1 -25 -10 -8 -12 -8 -7 0 11 19 -14 26 -28 8 -9 -13 -19
-15 -36 -10 -28 9 -110 13 -127 7 -7 -2 -13 -10 -13 -18 0 -8 6 -11 15 -8 8 4
12 10 9 15 -9 15 23 10 36 -6 13 -15 35 -21 26 -7 -3 5 27 8 66 7 73 -2 93 10
68 40 -15 18 -47 20 -52 3 -5 -13 -38 -4 -38 11 0 6 7 8 15 5 23 -9 32 46 10
62 -10 7 -23 24 -29 36 -9 18 -20 23 -51 23 -35 0 -40 -3 -40 -22 0 -12 -10
-30 -23 -39 -29 -20 -41 -11 -19 14 21 23 22 36 3 29 -10 -4 -13 -1 -10 7 3 9
-5 13 -27 13 -17 0 -33 -6 -36 -13z"/>
<path fill="#ffffff" stroke="none" d="M32 288 c-7 -7 -12 -8 -12 -2 0 14 12
26 19 19 2 -3 -1 -11 -7 -17z"/>
<path fill="#ffffff" stroke="none" d="M170 299 c0 -8 5 -8 15 1 22 18 32 -15
11 -35 -20 -20 -21 -32 -1 -15 19 16 55 3 55 -20 0 -26 -17 -34 -29 -13 -9 16
-10 16 -11 -4 0 -31 -27 -30 -41 1 -6 13 -21 27 -33 30 -18 5 -19 8 -6 16 21
14 43 12 34 -2 -4 -7 3 -3 15 9 23 24 29 42 8 25 -10 -9 -27 -10 -55 -3 -2 1
0 6 3 11 8 14 35 13 35 -1z"/>
<path fill="#000000" stroke="none" d="M130 119 c0 -5 5 -7 10 -4 6 3 10 8 10
11 0 2 -4 4 -10 4 -5 0 -10 -5 -10 -11z"/>
<path fill="#000000" stroke="none" d="M197 123 c-4 -6 0 -16 9 -23 10 -9 13
-22 9 -40 -4 -19 -1 -31 12 -41 16 -12 17 -12 5 2 -7 9 -10 29 -6 45 6 31 -18
76 -29 57z"/>
<path fill="#000000" stroke="none" d="M146 103 c-4 -5 -13 -8 -19 -8 -14 0
-11 -61 4 -85 6 -10 7 -7 3 12 -4 21 -1 27 15 33 14 4 21 15 21 31 0 24 -10
31 -24 17z"/>
<path fill="#ffffff" stroke="none" d="M152 68 c-9 -9 -15 -9 -24 1 -9 10 -9
12 -1 7 6 -3 15 -1 18 5 4 5 10 8 13 4 3 -3 0 -11 -6 -17z"/>
<path fill="#000000" stroke="none" d="M181 50 c1 -42 1 -43 9 -16 6 17 5 36
0 45 -7 11 -9 3 -9 -29z"/>
</g>
</svg>
