<?xml version="1.0" standalone="no"?>
<!DOCTYPE svg PUBLIC "-//W3C//DTD SVG 20010904//EN"
 "http://www.w3.org/TR/2001/REC-SVG-20010904/DTD/svg10.dtd">
<svg version="1.0" xmlns="http://www.w3.org/2000/svg"
 width="32.000000pt" height="32.000000pt" viewBox="0 0 32.000000 32.000000"
 preserveAspectRatio="xMidYMid meet">
<metadata>
Created by potrace 1.16, written by Peter Selinger 2001-2019
</metadata>
<g transform="translate(0.000000,32.000000) scale(0.100000,-0.100000)"
fill="#000000" stroke="none">
<path fill="#000000" stroke="none" d="M0 293 c0 -20 3 -24 9 -14 5 8 16 11
25 8 10 -4 20 1 26 13 10 18 7 20 -25 20 -32 0 -35 -3 -35 -27z"/>
<path fill="#000000" stroke="none" d="M104 304 c3 -9 6 -24 6 -35 0 -10 6
-19 14 -19 8 0 16 -16 20 -42 l7 -43 19 25 c26 33 25 37 -9 55 -38 19 -44 30
-31 55 9 17 8 20 -11 20 -15 0 -19 -4 -15 -16z"/>
<path fill="#000000" stroke="none" d="M193 300 c-9 -13 -9 -21 -2 -26 13 -7
15 -5 23 24 9 27 -5 29 -21 2z"/>
<path fill="#000000" stroke="none" d="M304 296 c5 -19 0 -29 -16 -40 -12 -9
-17 -16 -11 -16 6 0 18 -3 27 -6 13 -5 16 2 16 40 0 27 -5 46 -11 46 -7 0 -9
-10 -5 -24z"/>
<path fill="#000000" stroke="none" d="M0 202 c0 -8 8 -10 27 -6 21 6 25 4 20
-9 -4 -11 -2 -14 9 -10 8 3 14 -1 14 -8 0 -9 5 -7 12 5 8 15 7 21 -8 29 -26
15 -74 14 -74 -1z"/>
<path fill="#000000" stroke="none" d="M0 79 c0 -70 19 -78 34 -13 5 21 14 42
20 46 8 6 -31 28 -50 28 -2 0 -4 -27 -4 -61z"/>
<path fill="#000000" stroke="none" d="M274 104 c24 -36 33 -64 21 -64 -4 0
-19 7 -35 15 -28 15 -30 14 -30 -4 0 -11 9 -22 20 -26 11 -3 20 -11 20 -16 0
-5 11 -9 25 -9 24 0 25 3 25 59 0 47 -3 60 -17 64 -10 2 -27 8 -37 12 -16 7
-15 2 8 -31z"/>
<path fill="#000000" stroke="none" d="M82 53 c-23 -41 -16 -53 33 -53 25 0
45 4 45 10 0 5 -7 7 -15 4 -9 -4 -15 0 -15 10 0 9 -6 13 -14 10 -10 -4 -16 2
-18 18 l-3 23 -13 -22z"/>
</g>
</svg>
