<?xml version="1.0" standalone="no"?>
<!DOCTYPE svg PUBLIC "-//W3C//DTD SVG 20010904//EN"
 "http://www.w3.org/TR/2001/REC-SVG-20010904/DTD/svg10.dtd">
<svg version="1.0" xmlns="http://www.w3.org/2000/svg"
 width="32.000000pt" height="32.000000pt" viewBox="0 0 32.000000 32.000000"
 preserveAspectRatio="xMidYMid meet">
<metadata>
Created by potrace 1.16, written by Peter Selinger 2001-2019
</metadata>
<g transform="translate(0.000000,32.000000) scale(0.100000,-0.100000)"
fill="#000000" stroke="none">
<path fill="#000000" stroke="none" d="M0 267 c0 -53 21 -100 37 -84 4 5 0 14
-10 22 -16 11 -15 14 15 25 18 7 41 20 50 27 9 8 29 14 45 12 15 -1 36 1 45 6
24 10 29 7 82 -54 40 -45 47 -59 42 -82 -3 -16 -1 -29 4 -29 6 0 10 43 10 105
l0 105 -160 0 -160 0 0 -53z"/>
<path fill="#000000" stroke="none" d="M184 261 c4 -5 0 -12 -6 -14 -7 -3 -3
-6 10 -6 13 -1 21 -5 17 -10 -3 -5 0 -13 7 -17 8 -5 6 -10 -8 -16 -15 -7 -13
-7 9 -4 34 4 42 -7 26 -36 -12 -23 -12 -23 10 -4 11 11 21 14 21 8 0 -7 4 -12
10 -12 11 0 8 36 -5 47 -4 5 -5 1 0 -7 4 -8 -8 3 -28 25 -20 22 -36 43 -37 48
0 4 -7 7 -16 7 -8 0 -13 -4 -10 -9z"/>
<path fill="#000000" stroke="none" d="M85 242 c-11 -9 -21 -24 -23 -33 -3
-18 25 -46 35 -35 3 3 0 6 -8 6 -8 1 -3 8 11 16 l25 15 -25 -5 c-24 -5 -24 -4
-6 9 15 11 16 15 5 16 -8 0 0 7 16 14 23 11 25 14 10 14 -11 0 -29 -7 -40 -17z"/>
<path fill="#000000" stroke="none" d="M134 215 c-4 -9 -2 -21 4 -27 15 -15
44 -1 40 19 -4 23 -36 29 -44 8z"/>
<path fill="#000000" stroke="none" d="M0 105 c0 -57 0 -58 19 -41 18 16 18
20 4 54 -22 53 -23 52 -23 -13z"/>
<path fill="#000000" stroke="none" d="M46 152 c-3 -5 -3 -25 1 -42 l6 -33 14
28 c13 24 13 29 0 42 -9 9 -17 11 -21 5z"/>
<path fill="#000000" stroke="none" d="M127 143 c-10 -9 -9 -23 1 -23 5 0 9 7
9 15 0 17 -1 18 -10 8z"/>
<path fill="#000000" stroke="none" d="M166 135 c-3 -8 -1 -15 4 -15 6 0 10 7
10 15 0 8 -2 15 -4 15 -2 0 -6 -7 -10 -15z"/>
<path fill="#000000" stroke="none" d="M98 110 c-7 -42 -8 -41 20 -33 19 4 20
7 8 17 -8 6 -16 20 -18 31 -3 14 -6 9 -10 -15z"/>
<path fill="#000000" stroke="none" d="M21 47 c-41 -44 -32 -47 139 -47 l160
0 0 27 c0 21 -3 24 -12 15 -14 -14 -68 -16 -68 -4 0 5 -7 9 -15 9 -8 0 -15 -3
-15 -6 0 -3 -43 -7 -95 -7 -52 -1 -92 3 -89 8 3 4 9 6 14 3 5 -3 11 -1 14 4
13 21 -12 19 -33 -2z"/>
</g>
</svg>
