<?xml version="1.0" standalone="no"?>
<!DOCTYPE svg PUBLIC "-//W3C//DTD SVG 20010904//EN"
 "http://www.w3.org/TR/2001/REC-SVG-20010904/DTD/svg10.dtd">
<svg version="1.0" xmlns="http://www.w3.org/2000/svg"
 width="32.000000pt" height="32.000000pt" viewBox="0 0 32.000000 32.000000"
 preserveAspectRatio="xMidYMid meet">
<metadata>
Created by potrace 1.16, written by Peter Selinger 2001-2019
</metadata>
<g transform="translate(0.000000,32.000000) scale(0.100000,-0.100000)"
fill="#000000" stroke="none">
<path fill="#000000" stroke="none" d="M0 160 l0 -160 160 0 160 0 0 160 0
160 -160 0 -160 0 0 -160z"/>
<path fill="#ffffff" stroke="none" d="M168 281 c6 -18 9 -18 32 -5 14 9 17
13 7 10 -11 -3 -15 -2 -12 4 11 17 34 11 51 -15 8 -13 13 -29 10 -34 -4 -5 -1
-13 5 -17 8 -4 9 -3 5 4 -4 7 -5 12 -2 12 8 0 36 -62 36 -82 0 -10 -7 -21 -15
-24 -21 -8 -19 -21 5 -27 15 -4 20 -14 20 -41 l0 -36 -131 0 c-114 0 -134 2
-145 17 -18 24 -17 68 1 83 10 8 15 30 15 61 0 27 5 49 10 49 6 0 10 7 10 15
0 16 45 44 73 45 10 0 21 -9 25 -19z"/>
<path fill="#000000" stroke="none" d="M110 280 c-24 -15 -7 -18 20 -3 14 7
18 13 10 13 -8 0 -22 -4 -30 -10z"/>
<path fill="#000000" stroke="none" d="M216 236 c21 -15 30 -14 19 3 -3 6 -14
11 -23 11 -13 0 -13 -2 4 -14z"/>
<path fill="#000000" stroke="none" d="M128 233 c6 -2 18 -2 25 0 6 3 1 5 -13
5 -14 0 -19 -2 -12 -5z"/>
<path fill="#000000" stroke="none" d="M187 200 c3 -11 9 -17 14 -15 10 7 1
35 -11 35 -5 0 -6 -9 -3 -20z"/>
</g>
</svg>
