<?xml version="1.0" standalone="no"?>
<!DOCTYPE svg PUBLIC "-//W3C//DTD SVG 20010904//EN"
 "http://www.w3.org/TR/2001/REC-SVG-20010904/DTD/svg10.dtd">
<svg version="1.0" xmlns="http://www.w3.org/2000/svg"
 width="32.000000pt" height="32.000000pt" viewBox="0 0 32.000000 32.000000"
 preserveAspectRatio="xMidYMid meet">
<metadata>
Created by potrace 1.16, written by Peter Selinger 2001-2019
</metadata>
<g transform="translate(0.000000,32.000000) scale(0.100000,-0.100000)"
fill="#000000" stroke="none">
<path fill="#000000" stroke="none" d="M61 287 c-13 -13 -14 -46 -1 -67 5 -9
5 -19 -1 -27 -17 -20 -49 -86 -49 -101 0 -8 7 -11 19 -7 13 4 23 -2 35 -21 10
-15 23 -23 32 -20 16 6 19 -5 4 -20 -7 -7 -6 -11 4 -11 8 0 13 4 11 8 -5 8 19
19 42 19 13 0 13 -3 3 -15 -11 -13 -10 -14 4 -9 9 3 16 10 16 16 0 5 4 7 10 3
5 -3 6 -13 3 -23 -4 -13 -3 -14 6 -6 9 8 8 18 -4 40 -8 16 -15 23 -15 17 0
-15 -38 -17 -60 -3 -9 6 -17 5 -22 -3 -12 -19 -28 13 -22 43 13 59 13 63 -4
30 -9 -19 -25 -36 -35 -36 -22 -2 -21 1 4 53 21 43 32 52 44 32 5 -7 13 -5 25
6 10 9 20 12 23 8 8 -12 67 -15 67 -3 0 5 -11 10 -24 10 -14 0 -28 5 -31 10
-5 7 -11 8 -19 1 -22 -18 -61 10 -61 44 0 28 2 30 40 30 30 0 39 -4 37 -15 -3
-11 1 -11 16 3 22 21 58 22 69 3 4 -8 17 -15 28 -17 11 -3 23 -16 28 -34 5
-17 13 -38 18 -48 11 -21 0 -129 -12 -121 -5 3 -9 12 -9 20 0 9 -10 24 -22 34
-13 10 -28 38 -34 62 l-12 43 -1 -36 c-1 -19 -7 -41 -13 -48 -11 -11 -9 -13 9
-8 29 7 39 -7 51 -73 8 -46 10 -49 11 -20 1 24 4 31 10 21 5 -7 13 -11 18 -8
14 9 25 113 14 134 -5 10 -13 31 -17 48 -5 16 -19 34 -31 40 -11 6 -27 16 -34
21 -19 15 -153 16 -168 1z"/>
<path fill="#ffffff" stroke="none" d="M107 194 c-3 -3 -12 -4 -19 -1 -8 3 -5
6 6 6 11 1 17 -2 13 -5z"/>
<path fill="#ffffff" stroke="none" d="M267 68 c-3 -8 -6 -5 -6 6 -1 11 2 17
5 13 3 -3 4 -12 1 -19z"/>
<path fill="#000000" stroke="none" d="M85 240 c3 -5 8 -10 11 -10 2 0 4 5 4
10 0 6 -5 10 -11 10 -5 0 -7 -4 -4 -10z"/>
</g>
</svg>
