<?xml version="1.0" standalone="no"?>
<!DOCTYPE svg PUBLIC "-//W3C//DTD SVG 20010904//EN"
 "http://www.w3.org/TR/2001/REC-SVG-20010904/DTD/svg10.dtd">
<svg version="1.0" xmlns="http://www.w3.org/2000/svg"
 width="32.000000pt" height="32.000000pt" viewBox="0 0 32.000000 32.000000"
 preserveAspectRatio="xMidYMid meet">
<metadata>
Created by potrace 1.16, written by Peter Selinger 2001-2019
</metadata>
<g transform="translate(0.000000,32.000000) scale(0.100000,-0.100000)"
fill="#000000" stroke="none">
<path fill="#000000" stroke="none" d="M0 304 c0 -14 3 -14 15 -4 19 16 19 20
0 20 -8 0 -15 -7 -15 -16z"/>
<path fill="#000000" stroke="none" d="M80 307 c0 -5 7 -7 15 -3 13 5 14 2 4
-15 -13 -26 7 -45 28 -27 12 10 44 8 91 -7 18 -6 22 -4 22 13 0 12 -5 24 -10
27 -6 4 -8 11 -4 16 4 6 -22 9 -70 8 -42 -1 -76 -6 -76 -12z"/>
<path fill="#000000" stroke="none" d="M238 314 c-4 -4 -4 -12 1 -18 4 -6 10
-23 13 -37 5 -26 4 -26 -26 -17 -51 17 -93 21 -100 9 -10 -16 -49 7 -42 25 6
16 -10 19 -19 3 -5 -7 -13 -5 -25 6 -25 22 -33 -3 -14 -41 20 -38 21 -39 41
-23 9 8 14 9 10 3 -4 -7 2 -14 16 -18 34 -9 37 -8 37 13 0 11 4 22 9 25 4 3 6
-5 4 -17 -2 -12 0 -33 5 -47 9 -24 10 -24 17 12 4 20 4 42 -1 49 -4 7 -3 10 3
6 16 -10 22 -58 12 -84 -8 -21 -7 -22 10 -14 10 6 21 18 25 27 9 22 8 26 -6
18 -7 -4 -8 -3 -4 5 11 17 28 2 21 -19 -3 -10 0 -22 7 -26 7 -4 10 -4 6 1 -4
4 -3 14 3 21 6 8 8 22 5 31 -6 15 -5 16 5 6 17 -17 24 -16 43 3 9 8 16 11 16
5 0 -5 -13 -19 -30 -31 -36 -26 -37 -34 -7 -70 12 -15 27 -36 34 -46 10 -16
12 -3 10 71 -2 80 -4 90 -20 89 -14 -2 -15 1 -6 12 7 8 9 17 6 21 -4 3 -2 12
3 18 7 9 6 16 -5 25 -10 9 -15 9 -15 1 0 -6 5 -11 12 -11 8 0 9 -3 2 -10 -14
-14 -42 -3 -46 17 -2 8 -6 11 -10 7z"/>
<path fill="#ffffff" stroke="none" d="M157 208 c-3 -8 -6 -5 -6 6 -1 11 2 17
5 13 3 -3 4 -12 1 -19z"/>
<path fill="#000000" stroke="none" d="M1 118 c1 -77 4 -110 8 -88 9 43 23 70
50 94 12 11 21 25 21 33 0 12 -65 83 -76 83 -2 0 -3 -55 -3 -122z"/>
<path fill="#000000" stroke="none" d="M90 195 c0 -14 20 -43 34 -48 21 -8 8
31 -15 44 -11 5 -19 7 -19 4z"/>
<path fill="#000000" stroke="none" d="M204 139 c-5 -9 3 -13 20 -10 5 1 4 -5
-3 -13 -11 -13 -10 -17 4 -22 20 -8 40 9 32 29 -6 17 -45 29 -53 16z"/>
<path fill="#000000" stroke="none" d="M75 130 c-3 -5 -3 -14 0 -20 4 -6 -1
-7 -11 -3 -14 5 -16 3 -11 -11 4 -9 3 -15 -2 -11 -5 3 -12 1 -15 -4 -4 -5 -1
-13 4 -16 7 -5 5 -11 -6 -20 -11 -8 -15 -18 -10 -31 6 -16 9 -16 16 -4 9 13
10 13 10 0 0 -13 1 -13 10 0 8 12 10 12 10 1 0 -11 3 -11 16 0 15 12 14 15 -6
31 -22 18 -22 19 3 22 6 0 12 8 12 16 0 8 8 18 19 23 15 6 16 10 6 22 -14 17
-36 20 -45 5z"/>
<path fill="#000000" stroke="none" d="M125 80 c-37 -39 -23 -60 23 -36 17 9
38 16 47 16 20 0 19 13 -3 33 -25 23 -34 22 -67 -13z"/>
<path fill="#000000" stroke="none" d="M245 84 c-18 -14 -18 -14 2 -14 23 0
39 15 26 23 -5 3 -17 -1 -28 -9z"/>
<path fill="#000000" stroke="none" d="M241 46 c-6 -7 -8 -21 -5 -31 5 -13 9
-14 15 -3 7 10 9 10 9 -2 0 -13 1 -13 10 0 9 13 10 13 11 0 0 -10 3 -8 8 5 15
36 -24 61 -48 31z"/>
<path fill="#000000" stroke="none" d="M145 15 c-30 -13 -29 -13 27 -14 47 -1
56 2 52 14 -7 18 -39 19 -79 0z"/>
</g>
</svg>
