<?xml version="1.0" standalone="no"?>
<!DOCTYPE svg PUBLIC "-//W3C//DTD SVG 20010904//EN"
 "http://www.w3.org/TR/2001/REC-SVG-20010904/DTD/svg10.dtd">
<svg version="1.0" xmlns="http://www.w3.org/2000/svg"
 width="32.000000pt" height="32.000000pt" viewBox="0 0 32.000000 32.000000"
 preserveAspectRatio="xMidYMid meet">
<metadata>
Created by potrace 1.16, written by Peter Selinger 2001-2019
</metadata>
<g transform="translate(0.000000,32.000000) scale(0.100000,-0.100000)"
fill="#000000" stroke="none">
<path fill="#000000" stroke="none" d="M63 298 c2 -7 14 -13 27 -13 17 0 26
-8 31 -28 4 -15 3 -30 -2 -33 -5 -3 -8 0 -7 7 5 22 -19 19 -46 -6 -23 -21 -28
-23 -33 -8 -4 9 1 21 12 29 14 11 15 14 4 14 -20 0 -39 -20 -39 -42 0 -22 45
-53 61 -42 9 5 10 2 6 -10 -4 -10 -7 -19 -7 -21 0 -3 -10 -9 -21 -16 -15 -8
-19 -8 -15 0 4 6 3 11 -3 11 -19 0 -24 -23 -7 -36 11 -8 13 -14 7 -19 -14 -8
-14 -42 0 -51 6 -3 16 -1 22 5 9 9 8 10 -7 5 -13 -5 -17 -3 -14 6 5 16 24 27
61 35 18 4 25 10 20 18 -4 7 0 6 11 -2 10 -8 15 -23 13 -33 -6 -22 6 -23 23
-2 19 22 50 37 50 24 0 -5 -8 -10 -17 -10 -13 0 -14 -3 -5 -12 19 -19 55 19
41 44 -6 11 -8 22 -5 25 11 11 24 -42 14 -54 -7 -9 -7 -13 1 -13 6 0 14 7 18
15 5 14 8 14 25 -2 19 -17 19 -18 1 -31 -17 -13 -17 -14 2 -10 28 5 31 36 4
64 -21 23 -20 39 4 39 5 0 12 5 14 12 3 7 -7 11 -27 11 -17 -1 -38 6 -46 14
-14 13 -12 18 10 46 18 21 32 29 46 25 11 -3 20 -1 20 4 0 13 -51 15 -66 3 -8
-8 -14 -8 -19 0 -3 5 -11 10 -17 10 -6 0 -5 -7 3 -17 13 -17 12 -17 -4 -4 -18
14 -18 15 -1 28 15 11 16 15 4 26 -7 6 -10 8 -7 2 2 -5 -6 -18 -19 -28 -22
-17 -24 -17 -34 4 -9 16 -19 20 -41 17 -16 -3 -29 -1 -29 4 0 4 -5 8 -11 8 -6
0 -9 -6 -6 -12z"/>
<path fill="#ffffff" stroke="none" d="M205 180 c16 -18 17 -22 4 -35 -13 -13
-15 -12 -14 12 0 23 -5 29 -30 34 -29 6 -29 7 -4 8 15 0 34 -8 44 -19z"/>
<path fill="#ffffff" stroke="none" d="M125 163 c0 -23 5 -29 30 -34 27 -6 27
-7 5 -7 -14 -1 -35 4 -47 11 -21 12 -22 14 -7 35 19 28 20 28 19 -5z"/>
<path fill="#ffffff" stroke="none" d="M170 160 c0 -5 -5 -10 -11 -10 -5 0 -7
5 -4 10 3 6 8 10 11 10 2 0 4 -4 4 -10z"/>
<path fill="#ffffff" stroke="none" d="M84 104 c5 -14 4 -15 -9 -4 -17 14 -19
20 -6 20 5 0 12 -7 15 -16z"/>
<path fill="#000000" stroke="none" d="M245 213 c3 -7 1 -13 -5 -13 -6 0 -8
-4 -5 -10 10 -16 42 -12 49 6 9 25 6 31 -5 11 -10 -18 -11 -18 -26 0 -8 10
-12 12 -8 6z"/>
<path fill="#000000" stroke="none" d="M95 70 c-4 -6 -1 -17 5 -25 6 -8 8 -19
4 -26 -4 -7 -2 -10 7 -7 18 6 21 68 3 68 -7 0 -16 -5 -19 -10z"/>
<path fill="#000000" stroke="none" d="M174 50 c1 -27 26 -46 50 -37 18 7 22
27 5 27 -5 0 -7 -4 -4 -10 14 -23 -15 -8 -33 17 -19 26 -19 26 -18 3z"/>
</g>
</svg>
