<?xml version="1.0" standalone="no"?>
<!DOCTYPE svg PUBLIC "-//W3C//DTD SVG 20010904//EN"
 "http://www.w3.org/TR/2001/REC-SVG-20010904/DTD/svg10.dtd">
<svg version="1.0" xmlns="http://www.w3.org/2000/svg"
 width="32.000000pt" height="32.000000pt" viewBox="0 0 32.000000 32.000000"
 preserveAspectRatio="xMidYMid meet">
<metadata>
Created by potrace 1.16, written by Peter Selinger 2001-2019
</metadata>
<g transform="translate(0.000000,32.000000) scale(0.100000,-0.100000)"
fill="#000000" stroke="none">
<path fill="#000000" stroke="none" d="M0 160 l0 -160 160 0 160 0 0 160 0
160 -160 0 -160 0 0 -160z"/>
<path fill="#ffffff" stroke="none" d="M123 303 c-13 -5 -19 -33 -7 -33 3 0
15 5 27 11 12 7 19 9 15 5 -3 -4 -3 -20 2 -36 5 -18 4 -32 -3 -40 -10 -10 -7
-10 10 -1 18 9 29 8 52 -4 16 -8 33 -19 36 -25 3 -5 11 -10 16 -10 6 0 7 5 4
10 -11 18 1 11 21 -12 12 -14 13 -18 3 -10 -9 6 -19 9 -22 5 -4 -3 -15 1 -25
10 -10 10 -22 14 -25 10 -4 -3 -7 -1 -7 5 0 7 -5 12 -10 12 -6 0 -10 -6 -9
-12 3 -25 -1 -38 -12 -38 -8 0 -8 4 -1 13 6 7 8 17 4 23 -10 15 -65 12 -75 -3
-4 -7 -15 -13 -24 -13 -14 0 -14 2 3 15 19 15 19 15 -1 9 -11 -4 -25 -13 -31
-21 -15 -18 -43 -6 -50 23 -6 25 1 44 18 44 7 0 6 -5 -2 -15 -15 -18 -6 -45
15 -45 8 0 20 8 26 19 7 10 20 16 29 14 18 -5 57 43 45 55 -3 4 -9 2 -13 -3
-12 -17 -29 -15 -29 3 -2 27 5 42 19 41 10 0 10 -2 1 -6z"/>
<path fill="#ffffff" stroke="none" d="M205 291 c-3 -6 -14 -10 -23 -10 -15 1
-15 2 1 6 9 2 17 9 17 15 0 6 3 9 6 5 3 -3 3 -10 -1 -16z"/>
<path fill="#ffffff" stroke="none" d="M271 294 c12 -14 10 -19 -14 -38 -15
-12 -36 -22 -48 -22 -19 0 -19 1 -3 13 10 7 26 13 35 13 27 0 34 21 14 37 -11
7 -14 13 -8 13 6 0 17 -7 24 -16z"/>
<path fill="#ffffff" stroke="none" d="M80 257 c11 -5 9 -6 -4 -4 -11 1 -21 9
-23 17 -3 10 -2 11 4 4 4 -6 15 -14 23 -17z"/>
<path fill="#ffffff" stroke="none" d="M120 230 c0 -5 -4 -10 -10 -10 -5 0
-10 5 -10 10 0 6 5 10 10 10 6 0 10 -4 10 -10z"/>
<path fill="#ffffff" stroke="none" d="M159 114 c11 -60 9 -86 -4 -72 -3 2 -7
28 -9 57 -3 29 -10 59 -17 67 -9 11 -8 14 4 14 11 0 18 -19 26 -66z"/>
<path fill="#ffffff" stroke="none" d="M124 144 c3 -8 2 -12 -4 -9 -6 3 -10
10 -10 16 0 14 7 11 14 -7z"/>
<path fill="#ffffff" stroke="none" d="M100 105 c0 -8 -2 -15 -4 -15 -2 0 -6
7 -10 15 -3 8 -1 15 4 15 6 0 10 -7 10 -15z"/>
</g>
</svg>
