<?xml version="1.0" standalone="no"?>
<!DOCTYPE svg PUBLIC "-//W3C//DTD SVG 20010904//EN"
 "http://www.w3.org/TR/2001/REC-SVG-20010904/DTD/svg10.dtd">
<svg version="1.0" xmlns="http://www.w3.org/2000/svg"
 width="32.000000pt" height="32.000000pt" viewBox="0 0 32.000000 32.000000"
 preserveAspectRatio="xMidYMid meet">
<metadata>
Created by potrace 1.16, written by Peter Selinger 2001-2019
</metadata>
<g transform="translate(0.000000,32.000000) scale(0.100000,-0.100000)"
fill="#000000" stroke="none">
<path fill="#000000" stroke="none" d="M0 160 l0 -160 160 0 160 0 0 160 0
160 -160 0 -160 0 0 -160z"/>
<path fill="#ffffff" stroke="none" d="M123 303 c-13 -5 -19 -33 -7 -33 3 0
15 5 27 11 12 7 19 9 15 5 -3 -4 -3 -20 2 -35 8 -30 -11 -68 -29 -56 -17 10
-13 -6 4 -19 19 -14 39 -116 25 -130 -7 -7 -10 -5 -11 4 -2 74 -10 106 -28
121 -11 9 -17 20 -13 23 3 4 -2 4 -13 0 -11 -4 -25 -13 -31 -21 -15 -18 -43
-6 -50 23 -6 25 1 44 18 44 7 0 6 -5 -2 -15 -15 -18 -6 -45 15 -45 8 0 20 8
26 19 7 10 20 16 29 14 10 -3 20 0 24 5 3 5 -2 9 -12 8 -10 0 -16 5 -13 14 2
8 3 22 3 30 -1 26 7 40 20 39 10 0 10 -2 1 -6z"/>
<path fill="#ffffff" stroke="none" d="M205 291 c-3 -6 -14 -10 -23 -10 -15 1
-15 2 1 6 9 2 17 9 17 15 0 6 3 9 6 5 3 -3 3 -10 -1 -16z"/>
<path fill="#ffffff" stroke="none" d="M271 294 c25 -31 -60 -79 -88 -49 -6 7
3 11 29 11 51 2 71 20 44 40 -11 8 -15 14 -9 14 6 0 17 -7 24 -16z"/>
<path fill="#ffffff" stroke="none" d="M80 257 c11 -5 9 -6 -4 -4 -11 1 -21 9
-23 17 -3 10 -2 11 4 4 4 -6 15 -14 23 -17z"/>
<path fill="#ffffff" stroke="none" d="M219 206 c15 -8 34 -23 42 -33 13 -17
13 -17 -7 0 -11 9 -24 14 -27 10 -4 -3 -7 -1 -7 5 0 7 -12 10 -30 8 -38 -4
-40 13 -2 23 2 1 15 -5 31 -13z"/>
<path fill="#ffffff" stroke="none" d="M295 170 c10 -11 16 -20 13 -20 -3 0
-13 9 -23 20 -10 11 -16 20 -13 20 3 0 13 -9 23 -20z"/>
<path fill="#ffffff" stroke="none" d="M204 165 c-4 -8 -11 -15 -16 -15 -6 0
-5 6 2 15 7 8 14 15 16 15 2 0 1 -7 -2 -15z"/>
<path fill="#ffffff" stroke="none" d="M124 144 c3 -8 2 -12 -4 -9 -6 3 -10
10 -10 16 0 14 7 11 14 -7z"/>
<path fill="#ffffff" stroke="none" d="M100 105 c0 -8 -2 -15 -4 -15 -2 0 -6
7 -10 15 -3 8 -1 15 4 15 6 0 10 -7 10 -15z"/>
<path fill="#000000" stroke="none" d="M130 259 c0 -5 -4 -7 -10 -4 -5 3 -10
1 -10 -5 0 -15 32 -9 38 8 2 6 -1 12 -7 12 -6 0 -11 -5 -11 -11z"/>
</g>
</svg>
