<?xml version="1.0" standalone="no"?>
<!DOCTYPE svg PUBLIC "-//W3C//DTD SVG 20010904//EN"
 "http://www.w3.org/TR/2001/REC-SVG-20010904/DTD/svg10.dtd">
<svg version="1.0" xmlns="http://www.w3.org/2000/svg"
 width="32.000000pt" height="32.000000pt" viewBox="0 0 32.000000 32.000000"
 preserveAspectRatio="xMidYMid meet">
<metadata>
Created by potrace 1.16, written by Peter Selinger 2001-2019
</metadata>
<g transform="translate(0.000000,32.000000) scale(0.100000,-0.100000)"
fill="#000000" stroke="none">
<path fill="#000000" stroke="none" d="M103 272 c0 -10 7 -19 14 -19 17 0 16
5 -1 23 -13 12 -15 12 -13 -4z"/>
<path fill="#000000" stroke="none" d="M256 265 c-11 -8 -15 -15 -9 -15 6 0
16 7 23 15 16 19 11 19 -14 0z"/>
<path fill="#000000" stroke="none" d="M196 241 c-4 -5 3 -7 14 -4 23 6 26 13
6 13 -8 0 -17 -4 -20 -9z"/>
<path fill="#000000" stroke="none" d="M15 229 c-4 -6 -5 -12 -2 -15 2 -3 7 2
10 11 7 17 1 20 -8 4z"/>
<path fill="#000000" stroke="none" d="M100 229 c0 -5 5 -7 10 -4 6 3 10 8 10
11 0 2 -4 4 -10 4 -5 0 -10 -5 -10 -11z"/>
<path fill="#000000" stroke="none" d="M115 212 c-6 -4 -11 -14 -13 -22 -3
-12 0 -12 14 2 18 18 17 33 -1 20z"/>
<path fill="#000000" stroke="none" d="M280 176 c0 -2 8 -10 18 -17 15 -13 16
-12 3 4 -13 16 -21 21 -21 13z"/>
</g>
</svg>
