<?xml version="1.0" standalone="no"?>
<!DOCTYPE svg PUBLIC "-//W3C//DTD SVG 20010904//EN"
 "http://www.w3.org/TR/2001/REC-SVG-20010904/DTD/svg10.dtd">
<svg version="1.0" xmlns="http://www.w3.org/2000/svg"
 width="32.000000pt" height="32.000000pt" viewBox="0 0 32.000000 32.000000"
 preserveAspectRatio="xMidYMid meet">
<metadata>
Created by potrace 1.16, written by Peter Selinger 2001-2019
</metadata>
<g transform="translate(0.000000,32.000000) scale(0.100000,-0.100000)"
fill="#000000" stroke="none">
<path fill="#000000" stroke="none" d="M0 160 l0 -160 160 0 160 0 0 160 0
160 -160 0 -160 0 0 -160z"/>
<path fill="#ffffff" stroke="none" d="M123 303 c-13 -5 -19 -33 -7 -33 3 0
15 5 27 11 l22 12 -20 -20 c-11 -11 -23 -19 -27 -16 -5 2 -8 -1 -8 -6 0 -6 6
-11 14 -11 8 0 16 -3 19 -7 2 -5 2 -3 1 4 -5 21 13 24 19 3 5 -20 -24 -55 -36
-43 -4 3 -7 2 -7 -4 0 -6 6 -13 14 -16 8 -3 21 -27 29 -54 7 -26 19 -47 25
-46 7 2 12 -4 12 -13 0 -10 -6 -14 -14 -11 -7 3 -19 0 -25 -6 -8 -8 -11 -7
-12 3 -3 86 -7 104 -27 120 -12 10 -18 21 -14 24 3 4 -2 4 -13 0 -11 -4 -26
-14 -32 -22 -11 -14 -15 -13 -33 3 -23 21 -23 56 0 63 13 5 13 3 1 -11 -16
-20 -8 -47 13 -47 21 0 59 57 58 88 0 32 5 42 21 41 9 0 9 -2 0 -6z"/>
<path fill="#ffffff" stroke="none" d="M205 291 c-3 -6 -14 -10 -23 -10 -15 1
-15 2 1 6 9 2 17 9 17 15 0 6 3 9 6 5 3 -3 3 -10 -1 -16z"/>
<path fill="#ffffff" stroke="none" d="M271 294 c25 -31 -60 -78 -88 -49 -6 7
2 10 28 10 50 0 72 20 45 41 -11 8 -15 14 -9 14 6 0 17 -7 24 -16z"/>
<path fill="#ffffff" stroke="none" d="M80 257 c11 -5 9 -6 -4 -4 -11 1 -21 9
-23 17 -3 10 -2 11 4 4 4 -6 15 -14 23 -17z"/>
<path fill="#ffffff" stroke="none" d="M219 206 c15 -8 20 -16 12 -20 -6 -4
-11 -2 -11 3 0 6 -7 11 -16 11 -9 0 -12 -5 -8 -12 6 -10 5 -10 -7 -1 -12 10
-18 10 -27 1 -9 -9 -12 -9 -12 0 0 10 27 31 40 31 3 0 16 -6 29 -13z"/>
<path fill="#ffffff" stroke="none" d="M295 170 c10 -11 16 -20 13 -20 -3 0
-13 9 -23 20 -10 11 -16 20 -13 20 3 0 13 -9 23 -20z"/>
<path fill="#ffffff" stroke="none" d="M124 144 c3 -8 2 -12 -4 -9 -6 3 -10
10 -10 16 0 14 7 11 14 -7z"/>
<path fill="#ffffff" stroke="none" d="M100 105 c0 -8 -2 -15 -4 -15 -2 0 -6
7 -10 15 -3 8 -1 15 4 15 6 0 10 -7 10 -15z"/>
</g>
</svg>
