<?xml version="1.0" standalone="no"?>
<!DOCTYPE svg PUBLIC "-//W3C//DTD SVG 20010904//EN"
 "http://www.w3.org/TR/2001/REC-SVG-20010904/DTD/svg10.dtd">
<svg version="1.0" xmlns="http://www.w3.org/2000/svg"
 width="32.000000pt" height="32.000000pt" viewBox="0 0 32.000000 32.000000"
 preserveAspectRatio="xMidYMid meet">
<metadata>
Created by potrace 1.16, written by Peter Selinger 2001-2019
</metadata>
<g transform="translate(0.000000,32.000000) scale(0.100000,-0.100000)"
fill="#000000" stroke="none">
<path fill="#000000" stroke="none" d="M0 160 l0 -160 160 0 160 0 0 160 0
160 -160 0 -160 0 0 -160z"/>
<path fill="#ffffff" stroke="none" d="M123 303 c-13 -5 -19 -33 -7 -33 3 0
15 5 27 11 12 7 19 9 15 5 -3 -4 -3 -20 2 -36 5 -18 4 -32 -3 -40 -10 -10 -7
-10 10 -1 18 9 29 9 49 -2 17 -9 23 -17 15 -21 -6 -4 -11 -2 -11 3 0 6 -5 11
-10 11 -6 0 -10 -6 -9 -12 3 -24 -1 -38 -10 -38 -5 0 -7 8 -4 19 5 21 -12 37
-22 21 -4 -7 -12 -7 -26 0 -11 6 -19 7 -19 1 0 -5 6 -11 14 -14 8 -3 21 -27
29 -54 7 -26 19 -47 25 -46 7 2 12 -4 12 -13 0 -10 -6 -14 -14 -11 -7 3 -19 0
-25 -6 -8 -8 -11 -7 -12 3 -2 74 -10 106 -28 121 -11 9 -17 20 -13 23 3 4 -2
4 -13 0 -11 -4 -25 -13 -31 -21 -15 -18 -43 -6 -50 23 -6 25 1 44 18 44 7 0 6
-5 -2 -15 -15 -18 -6 -45 14 -45 21 0 59 57 58 88 0 32 5 42 21 41 9 0 9 -2 0
-6z"/>
<path fill="#ffffff" stroke="none" d="M205 291 c-3 -6 -14 -10 -23 -10 -15 1
-15 2 1 6 9 2 17 9 17 15 0 6 3 9 6 5 3 -3 3 -10 -1 -16z"/>
<path fill="#ffffff" stroke="none" d="M271 294 c25 -31 -60 -78 -88 -49 -6 7
2 10 28 10 50 0 72 20 45 41 -11 8 -15 14 -9 14 6 0 17 -7 24 -16z"/>
<path fill="#ffffff" stroke="none" d="M80 257 c11 -5 9 -6 -4 -4 -11 1 -21 9
-23 17 -3 10 -2 11 4 4 4 -6 15 -14 23 -17z"/>
<path fill="#ffffff" stroke="none" d="M295 170 c10 -11 16 -20 13 -20 -3 0
-13 9 -23 20 -10 11 -16 20 -13 20 3 0 13 -9 23 -20z"/>
<path fill="#ffffff" stroke="none" d="M124 144 c3 -8 2 -12 -4 -9 -6 3 -10
10 -10 16 0 14 7 11 14 -7z"/>
<path fill="#ffffff" stroke="none" d="M100 105 c0 -8 -2 -15 -4 -15 -2 0 -6
7 -10 15 -3 8 -1 15 4 15 6 0 10 -7 10 -15z"/>
<path fill="#000000" stroke="none" d="M130 259 c0 -5 -4 -7 -10 -4 -5 3 -10
1 -10 -5 0 -15 32 -9 38 8 2 6 -1 12 -7 12 -6 0 -11 -5 -11 -11z"/>
</g>
</svg>
