<?xml version="1.0" standalone="no"?>
<!DOCTYPE svg PUBLIC "-//W3C//DTD SVG 20010904//EN"
 "http://www.w3.org/TR/2001/REC-SVG-20010904/DTD/svg10.dtd">
<svg version="1.0" xmlns="http://www.w3.org/2000/svg"
 width="32.000000pt" height="32.000000pt" viewBox="0 0 32.000000 32.000000"
 preserveAspectRatio="xMidYMid meet">
<metadata>
Created by potrace 1.16, written by Peter Selinger 2001-2019
</metadata>
<g transform="translate(0.000000,32.000000) scale(0.100000,-0.100000)"
fill="#000000" stroke="none">
<path fill="#000000" stroke="none" d="M100 276 c0 -2 7 -9 15 -16 9 -7 15 -8
15 -2 0 5 -7 12 -15 16 -8 3 -15 4 -15 2z"/>
<path fill="#000000" stroke="none" d="M96 241 c-4 -6 0 -14 8 -17 9 -3 16
-10 16 -16 0 -5 -5 -6 -12 -2 -7 4 -8 3 -4 -5 7 -11 26 -6 26 8 0 4 -6 15 -13
26 -10 12 -16 15 -21 6z"/>
</g>
</svg>
