<?xml version="1.0" standalone="no"?>
<!DOCTYPE svg PUBLIC "-//W3C//DTD SVG 20010904//EN"
 "http://www.w3.org/TR/2001/REC-SVG-20010904/DTD/svg10.dtd">
<svg version="1.0" xmlns="http://www.w3.org/2000/svg"
 width="32.000000pt" height="32.000000pt" viewBox="0 0 32.000000 32.000000"
 preserveAspectRatio="xMidYMid meet">
<metadata>
Created by potrace 1.16, written by Peter Selinger 2001-2019
</metadata>
<g transform="translate(0.000000,32.000000) scale(0.100000,-0.100000)"
fill="#000000" stroke="none">
<path fill="#000000" stroke="none" d="M0 160 l0 -160 160 0 160 0 0 160 0
160 -160 0 -160 0 0 -160z"/>
<path fill="#ffffff" stroke="none" d="M207 274 c33 -25 59 -32 47 -12 -4 7
-3 8 4 4 17 -10 15 -26 -2 -26 -8 0 -17 -6 -19 -12 -4 -8 -6 -7 -6 3 -1 9 -8
23 -18 30 -15 13 -15 11 1 -18 9 -18 21 -32 27 -30 19 4 28 -37 13 -63 l-14
-25 3 25 c2 22 -2 25 -25 23 -16 -1 -28 3 -28 9 0 6 -6 6 -15 -2 -8 -7 -15
-17 -15 -22 0 -6 6 -6 14 1 10 8 16 9 21 1 9 -14 -4 -32 -18 -24 -7 4 -8 3 -4
-2 4 -4 20 -9 35 -10 14 0 28 -6 29 -11 2 -6 14 -8 26 -6 13 3 28 -2 35 -10 9
-11 9 -14 -3 -14 -8 0 -12 4 -9 9 9 13 -34 9 -48 -5 -17 -17 -39 -11 -31 9 6
17 -8 19 -25 2 -9 -9 -13 -7 -17 8 -11 35 -21 47 -38 50 -9 1 -15 -2 -11 -7 3
-5 10 -7 15 -4 14 9 23 -25 10 -38 -9 -9 -11 -8 -6 4 4 10 0 16 -9 16 -8 0
-12 -5 -9 -10 3 -5 0 -7 -8 -5 -8 3 -13 10 -12 15 1 5 -4 10 -12 10 -9 0 -11
-5 -6 -16 5 -9 7 -26 6 -39 -1 -12 2 -22 7 -22 4 0 8 7 8 15 0 8 5 15 11 15 5
0 8 -4 5 -9 -4 -5 -1 -11 5 -13 8 -3 6 -9 -5 -20 -9 -9 -12 -18 -8 -21 4 -2 1
-2 -6 0 -8 1 -21 3 -30 3 -15 0 -15 2 -2 10 13 9 13 11 0 20 -10 6 -11 10 -2
10 6 0 12 4 12 10 0 5 -7 7 -16 3 -10 -4 -20 1 -26 11 -5 9 -15 13 -21 10 -9
-5 -9 -4 0 6 10 11 15 11 28 0 8 -7 16 -11 16 -9 10 32 5 67 -12 85 -19 20
-19 22 -3 28 22 9 44 -11 26 -23 -11 -6 -10 -10 4 -15 9 -3 19 -5 21 -2 6 6
-30 70 -50 91 -10 9 -14 22 -10 28 5 9 8 7 11 -3 1 -9 11 -21 22 -28 15 -9 18
-9 14 2 -6 15 12 32 41 38 27 6 44 0 82 -28z"/>
<path fill="#ffffff" stroke="none" d="M240 160 c0 -5 -9 -14 -21 -20 -19 -11
-20 -10 -9 9 11 22 30 29 30 11z"/>
<path fill="#ffffff" stroke="none" d="M150 59 c0 -10 -3 -19 -7 -19 -5 0 -8
11 -8 24 0 13 3 22 8 19 4 -2 7 -13 7 -24z"/>
<path fill="#ffffff" stroke="none" d="M184 21 c-7 -7 -12 3 -19 34 l-6 30 14
-30 c8 -16 13 -32 11 -34z"/>
<path fill="#ffffff" stroke="none" d="M224 39 c-7 -12 -21 -3 -35 22 -10 20
-10 20 15 4 14 -10 23 -21 20 -26z"/>
<path fill="#000000" stroke="none" d="M166 236 c3 -9 1 -16 -5 -16 -6 0 -11
6 -11 13 0 6 -5 4 -11 -5 -5 -10 -14 -18 -19 -18 -6 0 -10 8 -11 18 0 11 -2
12 -6 4 -3 -7 6 -24 20 -38 l25 -24 23 20 c13 10 19 19 12 20 -7 0 -10 6 -7
14 3 8 1 17 -5 21 -7 3 -8 0 -5 -9z"/>
<path fill="#ffffff" stroke="none" d="M157 194 c-9 -9 -28 6 -21 18 4 6 10 6
17 -1 6 -6 8 -13 4 -17z"/>
</g>
</svg>
