<?xml version="1.0" standalone="no"?>
<!DOCTYPE svg PUBLIC "-//W3C//DTD SVG 20010904//EN"
 "http://www.w3.org/TR/2001/REC-SVG-20010904/DTD/svg10.dtd">
<svg version="1.0" xmlns="http://www.w3.org/2000/svg"
 width="32.000000pt" height="32.000000pt" viewBox="0 0 32.000000 32.000000"
 preserveAspectRatio="xMidYMid meet">
<metadata>
Created by potrace 1.16, written by Peter Selinger 2001-2019
</metadata>
<g transform="translate(0.000000,32.000000) scale(0.100000,-0.100000)"
fill="#000000" stroke="none">
<path fill="#000000" stroke="none" d="M144 302 c4 -7 3 -12 -3 -12 -5 0 -17
-3 -27 -7 -13 -5 -15 -3 -9 8 6 11 5 12 -5 2 -11 -10 -11 -15 0 -28 15 -18 34
-20 24 -2 -5 8 -2 8 9 -2 14 -11 17 -11 17 0 0 16 30 -16 49 -53 8 -16 21 -28
30 -27 11 0 12 2 4 6 -7 2 -13 13 -13 22 0 10 -3 21 -7 25 -5 4 -9 12 -9 17
-1 5 -2 14 -3 19 0 6 -4 9 -8 9 -22 -4 -43 2 -38 10 3 5 0 13 -6 17 -8 4 -9 3
-5 -4z"/>
<path fill="#000000" stroke="none" d="M40 286 c0 -8 4 -17 9 -20 5 -4 7 3 4
14 -6 23 -13 26 -13 6z"/>
<path fill="#000000" stroke="none" d="M254 262 c3 -5 0 -13 -6 -15 -9 -4 -10
-6 -1 -6 17 -1 25 16 12 25 -7 4 -9 3 -5 -4z"/>
<path fill="#000000" stroke="none" d="M70 241 c0 -6 5 -13 10 -16 6 -3 10 1
10 9 0 9 -4 16 -10 16 -5 0 -10 -4 -10 -9z"/>
<path fill="#000000" stroke="none" d="M113 223 c-14 -30 -10 -58 9 -58 10 0
24 -9 33 -20 16 -20 16 -20 6 0 -5 11 -19 29 -30 39 -16 15 -18 22 -10 33 7 7
9 16 6 19 -3 3 -9 -3 -14 -13z"/>
<path fill="#000000" stroke="none" d="M46 198 c3 -5 10 -6 15 -3 13 9 11 12
-6 12 -8 0 -12 -4 -9 -9z"/>
<path fill="#000000" stroke="none" d="M72 164 c10 -10 20 -16 22 -13 3 3 -5
11 -17 18 -21 13 -21 12 -5 -5z"/>
<path fill="#000000" stroke="none" d="M214 104 c-2 -20 1 -24 15 -18 9 4 28
8 43 8 14 1 24 5 21 9 -3 5 -17 7 -31 4 -16 -3 -30 1 -37 9 -8 11 -10 9 -11
-12z"/>
<path fill="#000000" stroke="none" d="M35 100 c14 -15 21 -17 32 -9 7 6 13
16 13 22 0 6 -6 3 -13 -7 -12 -17 -14 -17 -20 -2 -4 9 -12 16 -18 16 -7 0 -5
-8 6 -20z"/>
</g>
</svg>
