<?xml version="1.0" standalone="no"?>
<!DOCTYPE svg PUBLIC "-//W3C//DTD SVG 20010904//EN"
 "http://www.w3.org/TR/2001/REC-SVG-20010904/DTD/svg10.dtd">
<svg version="1.0" xmlns="http://www.w3.org/2000/svg"
 width="32.000000pt" height="32.000000pt" viewBox="0 0 32.000000 32.000000"
 preserveAspectRatio="xMidYMid meet">
<metadata>
Created by potrace 1.16, written by Peter Selinger 2001-2019
</metadata>
<g transform="translate(0.000000,32.000000) scale(0.100000,-0.100000)"
fill="#000000" stroke="none">
<path fill="#000000" stroke="none" d="M0 160 l0 -160 160 0 160 0 0 160 0
160 -160 0 -160 0 0 -160z"/>
<path fill="#ffffff" stroke="none" d="M180 280 c0 -5 6 -7 13 -4 8 3 20 -2
27 -11 14 -17 45 -21 34 -3 -4 7 -3 8 4 4 17 -10 15 -26 -3 -26 -17 0 -20 -16
-5 -25 6 -3 9 -18 9 -33 -1 -20 -2 -22 -6 -7 -7 30 -32 83 -43 90 -12 7 -2
-22 17 -50 16 -24 17 -35 1 -35 -22 0 -41 -17 -33 -29 5 -9 11 -7 21 6 12 16
15 16 24 3 5 -8 10 -19 10 -25 0 -5 -4 -5 -8 2 -5 8 -13 9 -22 3 -8 -5 -22 -4
-33 1 -18 10 -18 12 -1 30 11 12 13 19 5 19 -7 0 -10 3 -8 8 2 4 -9 17 -24 30
-29 23 -29 23 -29 3 0 -12 -5 -21 -12 -21 -6 0 -4 -8 6 -19 10 -11 24 -17 31
-15 10 4 12 -1 8 -15 -5 -18 -8 -19 -21 -9 -8 7 -18 11 -21 10 -37 -22 -40
-22 -58 8 -9 16 -22 30 -28 30 -5 0 -2 5 8 11 22 13 51 -6 31 -19 -9 -5 -8
-10 2 -19 15 -15 29 0 20 22 -3 8 -1 15 4 15 16 0 11 32 -7 45 -15 11 -15 15
-4 29 8 9 20 15 27 12 7 -3 16 -1 19 4 7 12 45 -6 45 -20z"/>
<path fill="#ffffff" stroke="none" d="M78 254 c13 -12 20 -24 15 -27 -11 -7
-53 46 -52 65 0 9 3 8 6 -2 4 -8 17 -25 31 -36z"/>
<path fill="#ffffff" stroke="none" d="M160 199 c0 -5 -4 -9 -10 -9 -5 0 -10
7 -10 16 0 8 5 12 10 9 6 -3 10 -10 10 -16z"/>
<path fill="#ffffff" stroke="none" d="M136 137 c9 3 14 -1 13 -13 0 -12 -3
-14 -6 -6 -4 9 -8 10 -18 2 -16 -13 -30 4 -19 22 6 9 9 9 11 1 3 -7 11 -9 19
-6z"/>
<path fill="#ffffff" stroke="none" d="M173 115 c-7 -21 -13 -19 -13 6 0 11 4
18 10 14 5 -3 7 -12 3 -20z"/>
<path fill="#ffffff" stroke="none" d="M85 84 c-1 -15 3 -24 11 -24 8 0 11 7
8 18 -5 14 -4 15 5 2 16 -22 13 -40 -4 -34 -8 4 -15 1 -15 -5 0 -6 -8 -11 -17
-11 -11 0 -14 3 -8 8 17 11 17 55 0 48 -7 -2 -19 2 -25 9 -7 8 -17 12 -24 8
-6 -3 -6 0 2 8 9 10 15 10 24 1 17 -17 28 -15 28 6 0 13 2 14 9 3 5 -8 8 -24
6 -37z"/>
<path fill="#ffffff" stroke="none" d="M192 108 c-7 -7 -12 -8 -12 -2 0 14 12
26 19 19 2 -3 -1 -11 -7 -17z"/>
<path fill="#ffffff" stroke="none" d="M265 108 c12 2 27 -3 33 -11 9 -11 8
-14 -3 -14 -8 0 -11 5 -8 10 6 10 -27 6 -59 -8 -15 -6 -18 -2 -18 20 0 24 2
26 16 14 9 -8 27 -12 39 -11z"/>
<path fill="#ffffff" stroke="none" d="M148 54 c-3 -14 -5 -12 -10 9 -3 19 -2
25 4 19 6 -6 8 -18 6 -28z"/>
<path fill="#ffffff" stroke="none" d="M224 39 c-7 -12 -21 -3 -35 22 -10 20
-10 20 15 4 14 -10 23 -21 20 -26z"/>
<path fill="#ffffff" stroke="none" d="M184 21 c-6 -6 -11 1 -18 29 l-7 25 15
-25 c8 -14 12 -27 10 -29z"/>
<path fill="#000000" stroke="none" d="M160 241 c0 -5 5 -13 10 -16 6 -3 10
-2 10 4 0 5 -4 13 -10 16 -5 3 -10 2 -10 -4z"/>
</g>
</svg>
