<?xml version="1.0" standalone="no"?>
<!DOCTYPE svg PUBLIC "-//W3C//DTD SVG 20010904//EN"
 "http://www.w3.org/TR/2001/REC-SVG-20010904/DTD/svg10.dtd">
<svg version="1.0" xmlns="http://www.w3.org/2000/svg"
 width="32.000000pt" height="32.000000pt" viewBox="0 0 32.000000 32.000000"
 preserveAspectRatio="xMidYMid meet">
<metadata>
Created by potrace 1.16, written by Peter Selinger 2001-2019
</metadata>
<g transform="translate(0.000000,32.000000) scale(0.100000,-0.100000)"
fill="#000000" stroke="none">
<path fill="#000000" stroke="none" d="M135 300 c-3 -5 -12 -7 -19 -4 -7 3
-19 -3 -27 -12 -11 -14 -11 -18 4 -29 9 -7 17 -20 17 -29 0 -9 5 -16 10 -16 6
0 10 7 10 15 0 20 7 19 36 -4 l25 -19 -23 -16 c-21 -15 -24 -14 -51 12 -28 25
-29 26 -23 5 10 -31 -1 -47 -20 -29 -17 18 -19 30 -2 20 7 -5 9 -2 5 9 -3 9 1
18 11 22 14 5 12 9 -9 28 -14 12 -28 29 -32 37 -4 12 -6 12 -6 1 -1 -8 6 -22
15 -32 21 -23 10 -61 -14 -52 -15 6 -15 5 -2 -9 8 -9 28 -32 44 -52 24 -30 32
-34 45 -23 12 10 14 9 8 -6 -4 -11 -3 -16 3 -12 16 10 12 38 -4 32 -8 -3 -17
0 -19 8 -3 7 0 12 6 11 23 -3 37 -17 37 -36 0 -14 6 -18 25 -14 18 3 25 0 25
-11 0 -17 25 -21 35 -5 3 6 15 10 26 10 11 0 18 -4 15 -8 -3 -5 1 -9 9 -9 12
0 12 3 3 14 -7 8 -22 13 -34 10 -31 -6 -86 49 -64 63 24 16 50 12 50 -7 0 -12
-3 -14 -8 -6 -5 8 -13 9 -22 3 -13 -8 -13 -10 2 -10 9 0 18 -5 20 -11 2 -6 9
0 15 14 9 19 8 31 -3 52 -17 34 -17 35 1 35 18 0 20 16 3 26 -7 4 -8 3 -4 -4
4 -7 1 -12 -8 -12 -8 0 -17 4 -20 9 -11 17 -85 50 -91 41z"/>
<path fill="#ffffff" stroke="none" d="M234 228 c24 -47 13 -44 -14 4 -13 22
-18 38 -12 34 6 -3 18 -21 26 -38z"/>
<path fill="#ffffff" stroke="none" d="M180 229 c0 -6 -4 -7 -10 -4 -5 3 -10
11 -10 16 0 6 5 7 10 4 6 -3 10 -11 10 -16z"/>
<path fill="#ffffff" stroke="none" d="M186 171 c-16 -17 -15 -19 6 -34 19
-13 20 -15 4 -13 -26 3 -41 33 -26 52 7 7 17 14 23 14 5 0 3 -8 -7 -19z"/>
<path fill="#000000" stroke="none" d="M140 199 c0 -5 5 -7 10 -4 6 3 10 8 10
11 0 2 -4 4 -10 4 -5 0 -10 -5 -10 -11z"/>
<path fill="#000000" stroke="none" d="M70 118 c0 -21 -11 -23 -28 -6 -9 9
-15 9 -24 -1 -8 -8 -8 -11 -2 -8 7 4 17 0 24 -8 6 -7 18 -11 25 -9 17 7 17
-37 0 -48 -6 -5 -3 -8 7 -8 9 0 20 5 23 10 4 6 11 8 16 5 5 -4 9 1 9 9 0 8 -5
18 -12 22 -7 4 -8 3 -4 -4 4 -7 1 -12 -7 -12 -9 0 -13 9 -12 24 2 13 -1 29 -6
37 -7 11 -9 10 -9 -3z"/>
<path fill="#000000" stroke="none" d="M137 60 c-3 -11 -1 -20 4 -20 5 0 9 9
9 20 0 11 -2 20 -4 20 -2 0 -6 -9 -9 -20z"/>
<path fill="#000000" stroke="none" d="M166 50 c7 -28 12 -35 18 -29 2 2 -2
15 -10 29 l-15 25 7 -25z"/>
<path fill="#000000" stroke="none" d="M190 64 c0 -6 6 -17 14 -23 11 -9 16
-9 22 1 4 7 4 10 -1 6 -4 -4 -14 0 -21 10 -7 9 -14 12 -14 6z"/>
</g>
</svg>
