<?xml version="1.0" standalone="no"?>
<!DOCTYPE svg PUBLIC "-//W3C//DTD SVG 20010904//EN"
 "http://www.w3.org/TR/2001/REC-SVG-20010904/DTD/svg10.dtd">
<svg version="1.0" xmlns="http://www.w3.org/2000/svg"
 width="32.000000pt" height="32.000000pt" viewBox="0 0 32.000000 32.000000"
 preserveAspectRatio="xMidYMid meet">
<metadata>
Created by potrace 1.16, written by Peter Selinger 2001-2019
</metadata>
<g transform="translate(0.000000,32.000000) scale(0.100000,-0.100000)"
fill="#000000" stroke="none">
<path fill="#000000" stroke="none" d="M123 302 c-12 -2 -27 -10 -34 -19 -11
-13 -10 -17 4 -28 9 -7 17 -20 17 -29 0 -21 9 -20 26 2 8 10 13 12 14 5 0 -7
5 -13 11 -13 6 0 8 7 5 16 -3 9 -2 12 5 9 6 -4 8 -13 5 -21 -3 -8 0 -14 7 -14
7 -1 1 -10 -13 -21 -20 -17 -26 -18 -35 -7 -5 7 -19 20 -29 28 -18 14 -19 13
-12 -12 7 -31 -4 -36 -28 -12 -21 21 -20 30 1 13 15 -12 16 -12 11 3 -4 10 -1
19 10 23 15 6 14 9 -9 29 -14 12 -28 29 -31 36 -3 10 -6 11 -12 2 -4 -6 2 -19
14 -29 26 -22 26 -40 -1 -48 -21 -7 -21 -7 -1 -28 30 -34 34 -45 22 -67 -9
-17 -14 -19 -26 -9 -12 10 -17 9 -27 -1 -9 -10 -9 -11 0 -6 6 3 16 -1 21 -10
6 -10 16 -15 26 -11 9 4 16 2 16 -3 0 -6 -6 -10 -12 -10 -9 0 -8 -4 2 -10 13
-9 13 -11 0 -20 -13 -8 -13 -10 2 -10 9 0 22 -2 30 -3 7 -2 10 -2 6 0 -4 3 -1
12 8 21 11 11 13 17 5 20 -6 2 -9 8 -5 13 3 5 0 9 -5 9 -6 0 -11 -7 -11 -15 0
-8 -3 -15 -8 -15 -4 0 -7 15 -6 33 2 49 4 53 15 34 9 -15 13 -16 27 -5 14 11
15 10 9 -5 -4 -11 -3 -16 3 -12 16 10 12 38 -4 32 -8 -3 -17 0 -19 8 -7 18 25
13 34 -6 4 -8 10 -23 14 -33 4 -15 8 -17 17 -8 17 17 31 15 24 -4 -5 -13 -2
-15 16 -9 50 15 71 18 65 8 -3 -5 0 -10 8 -10 12 0 12 3 3 14 -7 8 -21 13 -33
11 -12 -3 -26 1 -33 8 -6 7 -21 11 -32 9 -26 -5 -47 30 -29 51 13 15 34 20 24
5 -3 -6 7 -9 21 -8 17 1 29 -4 31 -13 4 -13 3 -13 -6 0 -8 12 -13 12 -23 2 -9
-9 -9 -12 4 -12 9 0 18 -5 20 -11 2 -6 9 0 15 14 9 19 8 31 -3 52 -17 34 -17
35 1 35 18 0 20 16 3 26 -7 4 -8 3 -4 -4 4 -7 1 -12 -8 -12 -8 0 -17 4 -20 9
-11 17 -81 47 -103 43z"/>
<path fill="#ffffff" stroke="none" d="M234 228 c24 -47 13 -44 -14 4 -13 22
-18 38 -12 34 6 -3 18 -21 26 -38z"/>
<path fill="#000000" stroke="none" d="M140 200 c0 -5 5 -10 10 -10 6 0 10 5
10 10 0 6 -4 10 -10 10 -5 0 -10 -4 -10 -10z"/>
<path fill="#000000" stroke="none" d="M176 162 c-6 -10 5 -26 22 -30 10 -2
10 2 2 18 -12 22 -16 24 -24 12z"/>
<path fill="#000000" stroke="none" d="M135 64 c0 -13 3 -24 8 -24 9 0 9 37 0
43 -5 3 -8 -6 -8 -19z"/>
<path fill="#000000" stroke="none" d="M189 61 c14 -25 28 -34 35 -22 3 5 -6
16 -20 26 -25 16 -25 16 -15 -4z"/>
<path fill="#000000" stroke="none" d="M166 50 c7 -28 12 -35 18 -29 2 2 -2
15 -10 29 l-15 25 7 -25z"/>
</g>
</svg>
