<?xml version="1.0" standalone="no"?>
<!DOCTYPE svg PUBLIC "-//W3C//DTD SVG 20010904//EN"
 "http://www.w3.org/TR/2001/REC-SVG-20010904/DTD/svg10.dtd">
<svg version="1.0" xmlns="http://www.w3.org/2000/svg"
 width="32.000000pt" height="32.000000pt" viewBox="0 0 32.000000 32.000000"
 preserveAspectRatio="xMidYMid meet">
<metadata>
Created by potrace 1.16, written by Peter Selinger 2001-2019
</metadata>
<g transform="translate(0.000000,32.000000) scale(0.100000,-0.100000)"
fill="#000000" stroke="none">
<path fill="#000000" stroke="none" d="M0 160 l0 -160 160 0 160 0 0 160 0
160 -160 0 -160 0 0 -160z"/>
<path fill="#ffffff" stroke="none" d="M174 284 c3 -9 10 -12 16 -9 9 5 14 -8
8 -19 -2 -2 4 -12 13 -22 22 -26 31 -54 17 -54 -16 0 -48 31 -48 46 0 7 -5 16
-12 20 -8 5 -9 1 -5 -12 5 -14 2 -12 -13 6 -18 23 -20 24 -20 5 0 -12 -5 -26
-11 -32 -7 -7 -4 -16 13 -29 13 -11 27 -28 32 -39 4 -11 4 -16 0 -12 -4 4 -18
0 -30 -8 -25 -16 -45 -2 -25 18 8 8 11 8 11 -1 0 -6 7 -9 15 -6 8 4 15 10 15
15 0 13 -44 11 -57 -2 -8 -8 -14 -6 -22 9 -6 11 -19 28 -28 38 -17 17 -17 18
-1 11 10 -3 18 -2 18 4 0 6 5 7 10 4 6 -3 10 -11 10 -16 0 -6 -4 -7 -10 -4
-15 9 -12 -11 3 -24 19 -15 41 7 26 26 -8 9 -8 13 0 13 17 0 13 38 -6 49 -14
8 -15 12 -4 25 16 19 35 22 25 4 -4 -7 1 -5 11 4 19 18 40 15 49 -8z"/>
<path fill="#ffffff" stroke="none" d="M80 250 c11 -6 18 -16 14 -22 -8 -12
-53 40 -53 62 0 8 4 5 9 -7 5 -12 18 -27 30 -33z"/>
<path fill="#ffffff" stroke="none" d="M270 249 c0 -5 -7 -9 -16 -9 -10 0 -14
-5 -10 -16 3 -8 2 -13 -3 -10 -5 3 -11 14 -14 25 -3 15 0 17 16 13 15 -4 18
-2 12 8 -5 9 -4 11 3 6 7 -4 12 -11 12 -17z"/>
<path fill="#ffffff" stroke="none" d="M194 169 c-11 -18 44 -67 70 -62 12 3
27 -2 34 -10 9 -11 9 -14 -3 -14 -8 0 -12 4 -9 9 7 11 -19 10 -51 -2 -23 -9
-26 -8 -21 5 3 10 -4 25 -19 39 -18 17 -22 25 -13 34 15 15 21 15 12 1z"/>
<path fill="#ffffff" stroke="none" d="M237 154 c-3 -3 -12 -4 -19 -1 -8 3 -5
6 6 6 11 1 17 -2 13 -5z"/>
<path fill="#ffffff" stroke="none" d="M84 68 c-3 -4 2 -8 11 -8 10 0 13 5 9
12 -4 7 -3 8 4 4 18 -11 15 -36 -3 -30 -8 4 -15 1 -15 -5 0 -6 -4 -11 -9 -11
-4 0 -7 14 -5 31 3 24 0 30 -10 26 -8 -3 -20 1 -26 8 -7 8 -17 12 -24 8 -6 -3
-6 0 2 8 9 10 15 10 24 1 17 -17 28 -15 29 6 0 9 5 4 9 -12 5 -16 7 -33 4 -38z"/>
<path fill="#ffffff" stroke="none" d="M148 54 c-3 -14 -5 -12 -10 9 -3 19 -2
25 4 19 6 -6 8 -18 6 -28z"/>
<path fill="#ffffff" stroke="none" d="M179 40 c11 -24 11 -24 -3 -6 -9 11
-16 24 -16 30 0 12 5 7 19 -24z"/>
<path fill="#ffffff" stroke="none" d="M205 60 c3 -5 1 -10 -4 -10 -6 0 -11 5
-11 10 0 6 2 10 4 10 3 0 8 -4 11 -10z"/>
</g>
</svg>
