<?xml version="1.0" standalone="no"?>
<!DOCTYPE svg PUBLIC "-//W3C//DTD SVG 20010904//EN"
 "http://www.w3.org/TR/2001/REC-SVG-20010904/DTD/svg10.dtd">
<svg version="1.0" xmlns="http://www.w3.org/2000/svg"
 width="32.000000pt" height="32.000000pt" viewBox="0 0 32.000000 32.000000"
 preserveAspectRatio="xMidYMid meet">
<metadata>
Created by potrace 1.16, written by Peter Selinger 2001-2019
</metadata>
<g transform="translate(0.000000,32.000000) scale(0.100000,-0.100000)"
fill="#000000" stroke="none">
<path fill="#000000" stroke="none" d="M107 283 c-14 -4 -16 -8 -6 -19 14 -17
33 -19 23 -1 -5 8 -2 8 9 -2 14 -11 17 -11 17 0 0 16 33 -18 43 -43 3 -10 11
-18 17 -18 12 0 14 23 3 34 -5 4 -9 12 -9 17 -1 5 -2 13 -3 18 0 6 -10 8 -21
6 -11 -2 -22 0 -25 6 -6 9 -17 10 -48 2z"/>
<path fill="#000000" stroke="none" d="M253 255 c0 -8 4 -12 9 -9 5 3 6 10 3
15 -9 13 -12 11 -12 -6z"/>
<path fill="#000000" stroke="none" d="M70 241 c0 -5 5 -13 10 -16 6 -3 10 -2
10 4 0 5 -4 13 -10 16 -5 3 -10 2 -10 -4z"/>
<path fill="#000000" stroke="none" d="M112 223 c-6 -11 -7 -25 -2 -33 5 -8 6
-18 3 -24 -4 -5 1 -7 10 -3 10 4 20 0 26 -11 6 -9 11 -12 11 -6 0 6 -11 21
-25 34 -19 18 -22 26 -13 37 6 7 8 16 5 19 -3 3 -10 -3 -15 -13z"/>
<path fill="#000000" stroke="none" d="M46 198 c3 -5 10 -6 15 -3 13 9 11 12
-6 12 -8 0 -12 -4 -9 -9z"/>
<path fill="#000000" stroke="none" d="M72 164 c10 -10 20 -16 22 -13 3 3 -5
11 -17 18 -21 13 -21 12 -5 -5z"/>
<path fill="#000000" stroke="none" d="M217 112 c4 -16 13 -20 43 -18 21 0 36
5 33 9 -3 5 -15 7 -28 5 -12 -1 -29 3 -38 10 -13 11 -15 10 -10 -6z"/>
<path fill="#000000" stroke="none" d="M37 100 c13 -14 20 -17 30 -8 7 6 13
13 13 15 0 3 -6 0 -14 -6 -10 -9 -15 -8 -20 4 -3 8 -10 15 -16 15 -5 0 -2 -9
7 -20z"/>
</g>
</svg>
