<?xml version="1.0" standalone="no"?>
<!DOCTYPE svg PUBLIC "-//W3C//DTD SVG 20010904//EN"
 "http://www.w3.org/TR/2001/REC-SVG-20010904/DTD/svg10.dtd">
<svg version="1.0" xmlns="http://www.w3.org/2000/svg"
 width="32.000000pt" height="32.000000pt" viewBox="0 0 32.000000 32.000000"
 preserveAspectRatio="xMidYMid meet">
<metadata>
Created by potrace 1.16, written by Peter Selinger 2001-2019
</metadata>
<g transform="translate(0.000000,32.000000) scale(0.100000,-0.100000)"
fill="#000000" stroke="none">
<path fill="#000000" stroke="none" d="M0 160 l0 -160 160 0 160 0 0 160 0
160 -160 0 -160 0 0 -160z"/>
<path fill="#ffffff" stroke="none" d="M193 277 c4 3 7 1 7 -5 0 -22 2 -27 12
-39 6 -7 14 -11 18 -8 5 3 12 0 16 -6 5 -8 3 -9 -6 -4 -10 6 -12 3 -8 -13 5
-16 2 -22 -10 -22 -26 0 -38 13 -36 38 1 20 -7 27 -30 23 -4 -1 -14 6 -21 16
-12 16 -13 15 -8 -9 3 -14 0 -29 -7 -33 -8 -5 -7 -12 4 -24 14 -16 14 -19 0
-37 -8 -10 -12 -13 -8 -5 5 10 1 11 -13 7 -12 -4 -25 -1 -33 9 -8 10 -9 15 -1
15 6 0 11 -5 11 -12 0 -30 23 13 27 51 4 33 2 41 -11 41 -14 0 -15 4 -6 20 6
11 15 20 21 20 6 0 7 -6 3 -12 -4 -7 1 -5 12 4 17 17 19 17 39 -2 12 -11 25
-17 28 -13z"/>
<path fill="#ffffff" stroke="none" d="M53 280 c3 -11 1 -18 -4 -14 -5 3 -9
12 -9 20 0 20 7 17 13 -6z"/>
<path fill="#ffffff" stroke="none" d="M270 249 c0 -12 -37 -12 -44 0 -4 5 4
7 16 3 16 -4 19 -2 13 8 -5 9 -4 11 3 6 7 -4 12 -11 12 -17z"/>
<path fill="#ffffff" stroke="none" d="M91 237 c-1 -12 -15 -9 -19 4 -3 6 1
10 8 8 6 -3 11 -8 11 -12z"/>
<path fill="#ffffff" stroke="none" d="M77 203 c3 -9 -8 -10 -35 -4 -2 1 0 6
3 12 8 12 27 7 32 -8z"/>
<path fill="#ffffff" stroke="none" d="M160 199 c0 -5 -4 -9 -10 -9 -5 0 -10
7 -10 16 0 8 5 12 10 9 6 -3 10 -10 10 -16z"/>
<path fill="#ffffff" stroke="none" d="M155 170 c-3 -5 5 -21 19 -35 20 -20
22 -25 9 -23 -29 5 -53 68 -27 68 3 0 2 -4 -1 -10z"/>
<path fill="#ffffff" stroke="none" d="M240 160 c0 -6 -7 -13 -15 -17 -26 -9
9 -41 39 -36 13 3 26 1 29 -4 3 -4 -7 -8 -21 -9 -15 0 -35 -4 -46 -9 -15 -7
-17 -5 -12 13 4 11 2 23 -4 27 -7 4 -7 12 0 26 11 20 30 26 30 9z"/>
<path fill="#ffffff" stroke="none" d="M149 117 c0 -9 -2 -8 -6 1 -2 6 -10 9
-15 6 -7 -4 -8 -2 -4 5 9 13 26 5 25 -12z"/>
<path fill="#ffffff" stroke="none" d="M47 104 c6 -15 8 -15 20 2 7 10 13 16
14 13 0 -2 2 -15 5 -29 3 -17 1 -21 -5 -11 -5 7 -13 11 -19 8 -5 -4 -17 2 -27
13 -11 12 -13 20 -6 20 6 0 14 -7 18 -16z"/>
<path fill="#ffffff" stroke="none" d="M120 59 c0 -5 -4 -9 -8 -9 -5 0 -9 7
-9 15 0 8 4 12 9 9 4 -3 8 -9 8 -15z"/>
<path fill="#ffffff" stroke="none" d="M147 48 c-3 -7 -5 -2 -5 12 0 14 2 19
5 13 2 -7 2 -19 0 -25z"/>
</g>
</svg>
