<?xml version="1.0" standalone="no"?>
<!DOCTYPE svg PUBLIC "-//W3C//DTD SVG 20010904//EN"
 "http://www.w3.org/TR/2001/REC-SVG-20010904/DTD/svg10.dtd">
<svg version="1.0" xmlns="http://www.w3.org/2000/svg"
 width="32.000000pt" height="32.000000pt" viewBox="0 0 32.000000 32.000000"
 preserveAspectRatio="xMidYMid meet">
<metadata>
Created by potrace 1.16, written by Peter Selinger 2001-2019
</metadata>
<g transform="translate(0.000000,32.000000) scale(0.100000,-0.100000)"
fill="#000000" stroke="none">
<path fill="#000000" stroke="none" d="M42 298 c-9 -9 -6 -20 10 -47 12 -20
18 -33 13 -29 -4 4 -14 3 -22 -3 -16 -14 1 -41 22 -33 7 3 16 1 20 -5 3 -7 0
-8 -9 -5 -12 5 -14 -1 -11 -27 5 -40 -2 -54 -21 -38 -11 9 -17 9 -25 1 -5 -7
-6 -10 -2 -7 7 6 39 -36 36 -47 -2 -4 5 -4 14 -1 11 4 13 8 5 11 -7 2 -9 8 -6
14 4 6 10 5 15 -3 6 -10 9 -8 9 9 0 12 4 22 9 22 5 0 17 3 27 7 12 4 15 3 10
-6 -5 -8 0 -10 18 -7 15 3 24 1 21 -5 -4 -5 -2 -9 4 -9 5 0 12 6 14 13 3 7 6
6 6 -5 1 -26 18 -31 43 -14 28 20 49 21 42 2 -7 -17 12 -31 21 -16 10 16 -14
40 -41 40 -28 0 -29 3 -9 34 16 24 16 50 1 75 -5 8 -3 16 5 22 12 7 12 10 0
21 -10 10 -12 10 -7 1 4 -8 1 -13 -9 -13 -8 0 -18 7 -22 15 -8 21 -67 45 -95
38 -13 -3 -31 -12 -40 -20 -19 -17 -42 -8 -34 13 7 17 4 18 -12 2z"/>
<path fill="#ffffff" stroke="none" d="M174 195 c-7 -17 -30 -20 -39 -5 -3 6
1 7 9 4 19 -7 21 7 4 25 -11 11 -9 11 9 2 14 -7 20 -17 17 -26z"/>
<path fill="#ffffff" stroke="none" d="M230 130 c0 -5 -2 -10 -4 -10 -3 0 -8
5 -11 10 -3 6 -1 10 4 10 6 0 11 -4 11 -10z"/>
<path fill="#000000" stroke="none" d="M86 63 l-29 -36 26 5 c15 3 24 2 22 -2
-2 -4 9 -7 24 -7 23 0 27 4 24 21 -4 18 -3 17 9 -3 21 -40 38 -37 20 3 -9 19
-19 33 -24 30 -4 -3 -8 0 -8 5 0 6 -5 11 -11 11 -6 0 -9 -6 -6 -13 3 -8 1 -20
-5 -28 -8 -12 -9 -12 -5 1 2 8 1 23 -2 32 -5 15 -11 12 -35 -19z"/>
<path fill="#000000" stroke="none" d="M180 72 c0 -4 7 -18 16 -30 12 -18 18
-19 28 -9 8 6 12 15 10 19 -2 3 2 9 8 12 7 3 3 3 -9 1 -12 -3 -24 -1 -28 5 -7
12 -25 14 -25 2z"/>
</g>
</svg>
