<?xml version="1.0" standalone="no"?>
<!DOCTYPE svg PUBLIC "-//W3C//DTD SVG 20010904//EN"
 "http://www.w3.org/TR/2001/REC-SVG-20010904/DTD/svg10.dtd">
<svg version="1.0" xmlns="http://www.w3.org/2000/svg"
 width="32.000000pt" height="32.000000pt" viewBox="0 0 32.000000 32.000000"
 preserveAspectRatio="xMidYMid meet">
<metadata>
Created by potrace 1.16, written by Peter Selinger 2001-2019
</metadata>
<g transform="translate(0.000000,32.000000) scale(0.100000,-0.100000)"
fill="#000000" stroke="none">
<path fill="#000000" stroke="none" d="M165 270 c-4 -6 -2 -17 4 -24 8 -10 6
-18 -10 -32 -12 -10 -24 -17 -27 -14 -10 8 -50 -59 -47 -78 2 -9 4 -29 4 -43
1 -14 7 -34 15 -45 15 -19 15 -19 36 2 21 21 21 23 5 47 -23 35 -12 62 36 93
44 27 51 60 21 87 -22 20 -28 21 -37 7z"/>
<path fill="#ffffff" stroke="none" d="M198 258 c23 -23 14 -55 -23 -77 -49
-29 -63 -62 -40 -97 16 -24 16 -28 1 -43 -15 -14 -18 -14 -26 -1 -23 36 -4
150 25 150 7 0 23 8 35 18 19 16 21 22 11 40 -13 24 -3 30 17 10z"/>
</g>
</svg>
