<?xml version="1.0" standalone="no"?>
<!DOCTYPE svg PUBLIC "-//W3C//DTD SVG 20010904//EN"
 "http://www.w3.org/TR/2001/REC-SVG-20010904/DTD/svg10.dtd">
<svg version="1.0" xmlns="http://www.w3.org/2000/svg"
 width="32.000000pt" height="32.000000pt" viewBox="0 0 32.000000 32.000000"
 preserveAspectRatio="xMidYMid meet">
<metadata>
Created by potrace 1.16, written by Peter Selinger 2001-2019
</metadata>
<g transform="translate(0.000000,32.000000) scale(0.100000,-0.100000)"
fill="#000000" stroke="none">
<path fill="#000000" stroke="none" d="M0 160 l0 -160 160 0 160 0 -1 153 c0
137 -2 148 -13 112 -23 -73 -45 -105 -71 -105 -27 0 -55 24 -55 48 0 9 -3 27
-6 40 -4 13 -2 22 5 22 7 0 9 -4 6 -10 -3 -5 -1 -10 5 -10 6 0 8 -4 5 -10 -3
-5 -1 -10 5 -10 7 0 10 -7 6 -15 -3 -9 3 -19 16 -26 15 -8 18 -8 14 0 -4 6 -3
11 3 11 5 0 15 16 22 35 7 19 17 35 22 35 4 0 6 4 2 9 -3 5 -1 12 5 16 31 19
-3 25 -140 25 l-150 0 0 -160z"/>
</g>
</svg>
