<?xml version="1.0" standalone="no"?>
<!DOCTYPE svg PUBLIC "-//W3C//DTD SVG 20010904//EN"
 "http://www.w3.org/TR/2001/REC-SVG-20010904/DTD/svg10.dtd">
<svg version="1.0" xmlns="http://www.w3.org/2000/svg"
 width="32.000000pt" height="32.000000pt" viewBox="0 0 32.000000 32.000000"
 preserveAspectRatio="xMidYMid meet">
<metadata>
Created by potrace 1.16, written by Peter Selinger 2001-2019
</metadata>
<g transform="translate(0.000000,32.000000) scale(0.100000,-0.100000)"
fill="#000000" stroke="none">
<path fill="#000000" stroke="none" d="M107 268 c-19 -14 -42 -92 -32 -109 11
-17 25 -9 42 26 9 19 20 35 24 35 7 0 23 -34 17 -36 -2 0 3 -8 10 -17 8 -9 11
-21 8 -26 -4 -5 -2 -12 4 -16 5 -3 10 -21 10 -39 0 -46 21 -62 45 -36 14 16
16 23 7 32 -7 7 -12 28 -12 48 0 54 -49 144 -80 148 -14 2 -33 -3 -43 -10z"/>
<path fill="#ffffff" stroke="none" d="M195 218 c14 -29 25 -69 25 -88 0 -20
5 -41 12 -48 8 -8 8 -15 -2 -27 -19 -23 -29 -7 -32 52 -2 29 -5 53 -8 53 -4 0
-12 16 -19 35 -7 19 -17 35 -22 35 -6 0 -7 5 -3 11 4 8 1 8 -14 0 -13 -7 -19
-17 -16 -26 4 -8 1 -15 -6 -15 -6 0 -8 -4 -5 -10 3 -5 1 -10 -5 -10 -6 0 -8
-4 -5 -10 3 -5 1 -10 -6 -10 -7 0 -9 9 -5 23 3 12 6 30 6 39 0 24 28 48 56 48
20 0 30 -10 49 -52z"/>
</g>
</svg>
