<?xml version="1.0" standalone="no"?>
<!DOCTYPE svg PUBLIC "-//W3C//DTD SVG 20010904//EN"
 "http://www.w3.org/TR/2001/REC-SVG-20010904/DTD/svg10.dtd">
<svg version="1.0" xmlns="http://www.w3.org/2000/svg"
 width="32.000000pt" height="32.000000pt" viewBox="0 0 32.000000 32.000000"
 preserveAspectRatio="xMidYMid meet">
<metadata>
Created by potrace 1.16, written by Peter Selinger 2001-2019
</metadata>
<g transform="translate(0.000000,32.000000) scale(0.100000,-0.100000)"
fill="#000000" stroke="none">
<path fill="#000000" stroke="none" d="M30 305 c6 -8 9 -19 5 -25 -3 -5 -2
-10 2 -10 5 0 15 -16 22 -35 7 -19 17 -35 22 -35 6 0 7 -5 3 -11 -4 -8 -1 -8
14 0 13 7 19 17 16 26 -4 8 -1 15 6 15 6 0 8 5 5 10 -3 6 -1 10 5 10 6 0 8 5
5 10 -3 6 -1 10 6 10 7 0 9 -9 5 -22 -3 -13 -6 -31 -6 -40 0 -24 -28 -48 -56
-48 -26 0 -57 49 -73 117 -7 28 -9 -4 -10 -119 l-1 -158 160 0 160 0 0 160 0
160 -151 0 c-131 0 -150 -2 -139 -15z"/>
</g>
</svg>
