<?xml version="1.0" standalone="no"?>
<!DOCTYPE svg PUBLIC "-//W3C//DTD SVG 20010904//EN"
 "http://www.w3.org/TR/2001/REC-SVG-20010904/DTD/svg10.dtd">
<svg version="1.0" xmlns="http://www.w3.org/2000/svg"
 width="32.000000pt" height="32.000000pt" viewBox="0 0 32.000000 32.000000"
 preserveAspectRatio="xMidYMid meet">
<metadata>
Created by potrace 1.16, written by Peter Selinger 2001-2019
</metadata>
<g transform="translate(0.000000,32.000000) scale(0.100000,-0.100000)"
fill="#000000" stroke="none">
<path fill="#000000" stroke="none" d="M0 160 l0 -160 161 0 160 0 -2 160 c-2
88 -7 160 -11 160 -8 0 -41 -58 -36 -62 5 -5 -43 -68 -51 -68 -5 0 -11 12 -14
28 -8 33 -24 59 -32 51 -9 -10 12 -91 27 -100 35 -22 59 -10 83 44 14 28 25
46 25 39 0 -21 -40 -93 -55 -99 -23 -8 -63 5 -74 25 -5 10 -11 35 -13 57 -4
54 18 57 41 5 19 -42 19 -43 32 -19 7 13 14 26 14 29 0 3 9 20 18 38 l18 32
-146 0 -145 0 0 -160z"/>
</g>
</svg>
