<?xml version="1.0" standalone="no"?>
<!DOCTYPE svg PUBLIC "-//W3C//DTD SVG 20010904//EN"
 "http://www.w3.org/TR/2001/REC-SVG-20010904/DTD/svg10.dtd">
<svg version="1.0" xmlns="http://www.w3.org/2000/svg"
 width="32.000000pt" height="32.000000pt" viewBox="0 0 32.000000 32.000000"
 preserveAspectRatio="xMidYMid meet">
<metadata>
Created by potrace 1.16, written by Peter Selinger 2001-2019
</metadata>
<g transform="translate(0.000000,32.000000) scale(0.100000,-0.100000)"
fill="#000000" stroke="none">
<path fill="#000000" stroke="none" d="M0 160 l0 -160 160 0 160 0 0 160 0
160 -160 0 -160 0 0 -160z"/>
<path fill="#ffffff" stroke="none" d="M214 267 c18 -13 41 -92 31 -108 -12
-18 -26 -8 -44 31 l-18 41 -17 -26 c-9 -14 -14 -25 -10 -25 4 0 1 -7 -6 -15
-6 -8 -9 -19 -6 -24 4 -5 2 -12 -4 -16 -5 -3 -10 -21 -10 -39 0 -46 -21 -62
-45 -36 -14 16 -16 23 -7 32 7 7 12 28 12 47 0 35 29 110 52 138 13 17 49 17
72 0z"/>
</g>
</svg>
