<?xml version="1.0" standalone="no"?>
<!DOCTYPE svg PUBLIC "-//W3C//DTD SVG 20010904//EN"
 "http://www.w3.org/TR/2001/REC-SVG-20010904/DTD/svg10.dtd">
<svg version="1.0" xmlns="http://www.w3.org/2000/svg"
 width="32.000000pt" height="32.000000pt" viewBox="0 0 32.000000 32.000000"
 preserveAspectRatio="xMidYMid meet">
<metadata>
Created by potrace 1.16, written by Peter Selinger 2001-2019
</metadata>
<g transform="translate(0.000000,32.000000) scale(0.100000,-0.100000)"
fill="#000000" stroke="none">
<path fill="#000000" stroke="none" d="M0 160 l0 -160 160 0 160 0 0 160 0
160 -160 0 -160 0 0 -160z"/>
<path fill="#ffffff" stroke="none" d="M210 198 c0 -6 -6 -5 -15 2 -8 7 -15
14 -15 16 0 2 7 1 15 -2 8 -4 15 -11 15 -16z"/>
<path fill="#ffffff" stroke="none" d="M106 163 c-13 -25 -15 -26 -13 -5 1 12
5 22 9 22 4 0 8 8 9 18 0 9 3 12 5 5 3 -6 -1 -24 -10 -40z"/>
<path fill="#ffffff" stroke="none" d="M229 110 c-1 -3 3 -16 10 -29 9 -17 10
-22 1 -19 -6 2 -12 8 -12 13 0 6 -4 18 -10 29 -7 13 -7 17 2 14 6 -2 10 -6 9
-8z"/>
<path fill="#ffffff" stroke="none" d="M94 98 c-5 -8 -1 -9 12 -4 14 5 16 4 7
-5 -13 -13 -37 -3 -28 12 4 5 8 9 11 9 3 0 2 -5 -2 -12z"/>
<path fill="#ffffff" stroke="none" d="M104 38 c-3 -4 -9 -8 -15 -8 -5 0 -9 4
-9 8 0 5 7 9 15 9 8 0 12 -4 9 -9z"/>
<path fill="#ffffff" stroke="none" d="M250 20 c0 -5 -5 -10 -11 -10 -5 0 -7
5 -4 10 3 6 8 10 11 10 2 0 4 -4 4 -10z"/>
</g>
</svg>
