<?xml version="1.0" standalone="no"?>
<!DOCTYPE svg PUBLIC "-//W3C//DTD SVG 20010904//EN"
 "http://www.w3.org/TR/2001/REC-SVG-20010904/DTD/svg10.dtd">
<svg version="1.0" xmlns="http://www.w3.org/2000/svg"
 width="32.000000pt" height="32.000000pt" viewBox="0 0 32.000000 32.000000"
 preserveAspectRatio="xMidYMid meet">
<metadata>
Created by potrace 1.16, written by Peter Selinger 2001-2019
</metadata>
<g transform="translate(0.000000,32.000000) scale(0.100000,-0.100000)"
fill="#000000" stroke="none">
<path fill="#000000" stroke="none" d="M60 126 l0 -125 98 2 97 2 3 123 3 122
-101 0 -100 0 0 -124z"/>
<path fill="#ffffff" stroke="none" d="M131 226 c-6 -7 -12 -25 -13 -39 -1
-14 -6 -23 -10 -21 -4 3 -8 -2 -8 -11 0 -9 5 -13 10 -10 12 8 12 7 -1 -55 -6
-27 -15 -50 -20 -50 -5 0 -9 -8 -9 -17 0 -9 -3 -13 -6 -10 -9 9 15 152 29 180
19 34 28 47 34 47 3 0 0 -6 -6 -14z"/>
<path fill="#ffffff" stroke="none" d="M214 197 c15 -31 36 -133 36 -169 0
-11 -5 -16 -10 -13 -6 4 -8 11 -5 16 4 5 2 9 -3 9 -5 0 -12 13 -15 29 -3 16
-9 41 -13 56 -5 20 -4 26 5 21 6 -4 11 -1 11 9 0 9 -4 14 -8 11 -4 -2 -9 7
-10 21 -1 14 -8 33 -15 41 -9 12 -9 14 0 8 7 -4 19 -21 27 -39z"/>
<path fill="#ffffff" stroke="none" d="M178 48 c19 -19 14 -28 -18 -28 -16 0
-30 4 -30 8 0 9 21 32 30 32 3 0 11 -5 18 -12z"/>
</g>
</svg>
