<?xml version="1.0" standalone="no"?>
<!DOCTYPE svg PUBLIC "-//W3C//DTD SVG 20010904//EN"
 "http://www.w3.org/TR/2001/REC-SVG-20010904/DTD/svg10.dtd">
<svg version="1.0" xmlns="http://www.w3.org/2000/svg"
 width="32.000000pt" height="32.000000pt" viewBox="0 0 32.000000 32.000000"
 preserveAspectRatio="xMidYMid meet">
<metadata>
Created by potrace 1.16, written by Peter Selinger 2001-2019
</metadata>
<g transform="translate(0.000000,32.000000) scale(0.100000,-0.100000)"
fill="#000000" stroke="none">
<path fill="#000000" stroke="none" d="M92 158 c-7 -7 -12 -22 -12 -34 0 -12
-11 -32 -25 -45 -13 -13 -25 -35 -25 -48 l0 -24 123 7 c67 4 126 12 132 17 5
6 4 9 -4 9 -8 0 -11 6 -7 15 4 13 -10 15 -95 15 l-101 0 7 27 c9 38 20 43 94
43 55 0 62 2 51 15 -15 18 -120 21 -138 3z"/>
<path fill="#ffffff" stroke="none" d="M253 43 c-7 -2 -21 -2 -30 0 -10 3 -4
5 12 5 17 0 24 -2 18 -5z"/>
</g>
</svg>
