<?xml version="1.0" standalone="no"?>
<!DOCTYPE svg PUBLIC "-//W3C//DTD SVG 20010904//EN"
 "http://www.w3.org/TR/2001/REC-SVG-20010904/DTD/svg10.dtd">
<svg version="1.0" xmlns="http://www.w3.org/2000/svg"
 width="32.000000pt" height="32.000000pt" viewBox="0 0 32.000000 32.000000"
 preserveAspectRatio="xMidYMid meet">
<metadata>
Created by potrace 1.16, written by Peter Selinger 2001-2019
</metadata>
<g transform="translate(0.000000,32.000000) scale(0.100000,-0.100000)"
fill="#000000" stroke="none">
<path fill="#000000" stroke="none" d="M128 103 c6 -2 18 -2 25 0 6 3 1 5 -13
5 -14 0 -19 -2 -12 -5z"/>
<path fill="#000000" stroke="none" d="M60 70 c-13 -8 -12 -10 3 -10 9 0 17 5
17 10 0 12 -1 12 -20 0z"/>
<path fill="#000000" stroke="none" d="M260 70 c0 -5 5 -10 11 -10 5 0 7 5 4
10 -3 6 -8 10 -11 10 -2 0 -4 -4 -4 -10z"/>
<path fill="#000000" stroke="none" d="M56 35 c5 -11 2 -13 -10 -9 -9 3 -16 1
-16 -5 0 -7 26 -11 70 -11 54 0 72 4 76 15 4 10 11 12 18 7 6 -5 25 -9 41 -10
l30 -1 -30 13 c-34 15 -119 20 -111 7 9 -13 -37 -22 -49 -9 -7 8 -5 9 8 5 9
-4 17 -2 17 3 0 6 -11 10 -25 10 -18 0 -23 -4 -19 -15z"/>
<path fill="#000000" stroke="none" d="M267 35 c3 -8 9 -12 14 -9 12 7 11 11
-5 17 -10 4 -13 1 -9 -8z"/>
</g>
</svg>
