<?xml version="1.0" standalone="no"?>
<!DOCTYPE svg PUBLIC "-//W3C//DTD SVG 20010904//EN"
 "http://www.w3.org/TR/2001/REC-SVG-20010904/DTD/svg10.dtd">
<svg version="1.0" xmlns="http://www.w3.org/2000/svg"
 width="32.000000pt" height="32.000000pt" viewBox="0 0 32.000000 32.000000"
 preserveAspectRatio="xMidYMid meet">
<metadata>
Created by potrace 1.16, written by Peter Selinger 2001-2019
</metadata>
<g transform="translate(0.000000,32.000000) scale(0.100000,-0.100000)"
fill="#000000" stroke="none">
<path fill="#000000" stroke="none" d="M0 160 l0 -160 160 0 160 0 0 160 0
160 -160 0 -160 0 0 -160z"/>
<path fill="#ffffff" stroke="none" d="M100 39 c0 -6 10 -9 23 -6 12 3 31 1
42 -3 15 -7 10 -9 -22 -9 -23 -1 -45 3 -48 9 -3 6 -11 10 -16 10 -6 0 -8 -4
-5 -9 3 -5 -1 -12 -10 -15 -23 -9 -34 -7 -34 5 0 6 7 8 16 5 12 -4 15 -2 10 9
-4 11 1 15 19 15 14 0 25 -5 25 -11z"/>
<path fill="#ffffff" stroke="none" d="M278 25 c-3 -3 -9 2 -12 12 -6 14 -5
15 5 6 7 -7 10 -15 7 -18z"/>
<path fill="#ffffff" stroke="none" d="M234 32 c2 -4 -4 -8 -14 -9 -11 -1 -22
2 -25 8 -4 5 3 9 14 9 11 0 22 -4 25 -8z"/>
</g>
</svg>
