<?xml version="1.0" standalone="no"?>
<!DOCTYPE svg PUBLIC "-//W3C//DTD SVG 20010904//EN"
 "http://www.w3.org/TR/2001/REC-SVG-20010904/DTD/svg10.dtd">
<svg version="1.0" xmlns="http://www.w3.org/2000/svg"
 width="32.000000pt" height="32.000000pt" viewBox="0 0 32.000000 32.000000"
 preserveAspectRatio="xMidYMid meet">
<metadata>
Created by potrace 1.16, written by Peter Selinger 2001-2019
</metadata>
<g transform="translate(0.000000,32.000000) scale(0.100000,-0.100000)"
fill="#000000" stroke="none">
<path fill="#000000" stroke="none" d="M124 245 c-19 -29 -10 -68 14 -63 12 3
17 14 17 40 0 20 4 34 9 31 5 -4 6 -1 2 5 -11 18 -24 14 -42 -13z"/>
<path fill="#ffffff" stroke="none" d="M147 208 c-3 -8 -6 -5 -6 6 -1 11 2 17
5 13 3 -3 4 -12 1 -19z"/>
<path fill="#000000" stroke="none" d="M210 122 c0 -37 35 -42 38 -5 1 19 -2
24 -14 19 -8 -3 -12 -2 -9 4 3 6 1 10 -4 10 -6 0 -11 -13 -11 -28z"/>
</g>
</svg>
