<?xml version="1.0" standalone="no"?>
<!DOCTYPE svg PUBLIC "-//W3C//DTD SVG 20010904//EN"
 "http://www.w3.org/TR/2001/REC-SVG-20010904/DTD/svg10.dtd">
<svg version="1.0" xmlns="http://www.w3.org/2000/svg"
 width="32.000000pt" height="32.000000pt" viewBox="0 0 32.000000 32.000000"
 preserveAspectRatio="xMidYMid meet">
<metadata>
Created by potrace 1.16, written by Peter Selinger 2001-2019
</metadata>
<g transform="translate(0.000000,32.000000) scale(0.100000,-0.100000)"
fill="#000000" stroke="none">
<path fill="#000000" stroke="none" d="M178 243 c51 -3 62 -7 61 -21 0 -10 -3
-12 -6 -4 -3 8 -24 11 -61 10 l-57 -1 54 -6 c51 -6 55 -8 67 -41 15 -42 17
-80 5 -80 -5 0 -12 8 -14 18 -4 16 -5 16 -6 0 -2 -29 -29 -21 -34 10 l-4 27
-2 -27 c-2 -39 -38 -39 -44 0 l-4 27 -2 -27 c-1 -30 -26 -39 -34 -13 -4 11 -4
10 -3 -2 1 -16 13 -18 88 -21 l88 -3 -5 33 c-5 29 -4 29 8 -7 l13 -40 -106 -6
-105 -5 113 -2 c61 -1 112 1 111 6 0 4 -13 45 -28 92 l-27 85 -64 1 -65 0 63
-3z"/>
<path fill="#ffffff" stroke="none" d="M259 160 c0 -9 -4 -8 -9 5 -5 11 -9 27
-9 35 0 9 4 8 9 -5 5 -11 9 -27 9 -35z"/>
<path fill="#000000" stroke="none" d="M111 194 c0 -11 3 -14 6 -6 3 7 2 16
-1 19 -3 4 -6 -2 -5 -13z"/>
<path fill="#000000" stroke="none" d="M142 190 c0 -14 2 -19 5 -12 2 6 2 18
0 25 -3 6 -5 1 -5 -13z"/>
<path fill="#000000" stroke="none" d="M172 190 c0 -14 2 -19 5 -12 2 6 2 18
0 25 -3 6 -5 1 -5 -13z"/>
<path fill="#000000" stroke="none" d="M201 194 c0 -11 3 -14 6 -6 3 7 2 16
-1 19 -3 4 -6 -2 -5 -13z"/>
<path fill="#000000" stroke="none" d="M101 154 c0 -11 3 -14 6 -6 3 7 2 16
-1 19 -3 4 -6 -2 -5 -13z"/>
<path fill="#000000" stroke="none" d="M211 154 c0 -11 3 -14 6 -6 3 7 2 16
-1 19 -3 4 -6 -2 -5 -13z"/>
</g>
</svg>
