<?xml version="1.0" standalone="no"?>
<!DOCTYPE svg PUBLIC "-//W3C//DTD SVG 20010904//EN"
 "http://www.w3.org/TR/2001/REC-SVG-20010904/DTD/svg10.dtd">
<svg version="1.0" xmlns="http://www.w3.org/2000/svg"
 width="32.000000pt" height="32.000000pt" viewBox="0 0 32.000000 32.000000"
 preserveAspectRatio="xMidYMid meet">
<metadata>
Created by potrace 1.16, written by Peter Selinger 2001-2019
</metadata>
<g transform="translate(0.000000,32.000000) scale(0.100000,-0.100000)"
fill="#000000" stroke="none">
<path fill="#000000" stroke="none" d="M0 168 c0 -150 0 -151 20 -133 18 16
20 31 20 120 0 93 2 103 23 123 25 23 52 28 62 12 3 -6 -1 -13 -9 -16 -23 -9
-20 -34 4 -34 11 0 20 7 20 15 0 25 1 30 12 43 8 9 14 9 24 1 7 -6 13 -14 12
-17 -3 -27 5 -42 22 -42 24 0 27 25 4 34 -8 3 -12 10 -9 16 11 17 41 11 63
-13 20 -21 22 -34 22 -129 0 -82 3 -108 15 -118 13 -11 15 5 15 139 l0 151
-160 0 -160 0 0 -152z"/>
<path fill="#000000" stroke="none" d="M159 299 c-11 -60 -16 -69 -39 -69 -29
0 -38 30 -15 46 18 13 18 14 -2 14 -42 0 -53 -29 -53 -142 0 -76 3 -105 13
-107 42 -6 119 -5 124 2 2 4 11 3 19 -4 11 -9 21 -9 42 0 27 11 27 12 29 114
2 109 -8 137 -50 137 -20 0 -20 -1 -2 -14 23 -16 14 -46 -15 -46 -20 0 -29 12
-34 44 -2 15 -15 34 -17 25z"/>
</g>
</svg>
