<?xml version="1.0" standalone="no"?>
<!DOCTYPE svg PUBLIC "-//W3C//DTD SVG 20010904//EN"
 "http://www.w3.org/TR/2001/REC-SVG-20010904/DTD/svg10.dtd">
<svg version="1.0" xmlns="http://www.w3.org/2000/svg"
 width="32.000000pt" height="32.000000pt" viewBox="0 0 32.000000 32.000000"
 preserveAspectRatio="xMidYMid meet">
<metadata>
Created by potrace 1.16, written by Peter Selinger 2001-2019
</metadata>
<g transform="translate(0.000000,32.000000) scale(0.100000,-0.100000)"
fill="#000000" stroke="none">
<path fill="#000000" stroke="none" d="M77 313 c46 -2 120 -2 166 0 45 1 8 3
-83 3 -91 0 -128 -2 -83 -3z"/>
<path fill="#000000" stroke="none" d="M50 279 c0 -5 5 -7 10 -4 6 3 10 8 10
11 0 2 -4 4 -10 4 -5 0 -10 -5 -10 -11z"/>
<path fill="#000000" stroke="none" d="M117 276 c-23 -17 -22 -36 2 -36 10 0
21 9 24 20 7 26 -3 32 -26 16z"/>
<path fill="#000000" stroke="none" d="M187 284 c-3 -3 -3 -14 0 -25 6 -21 43
-27 43 -6 0 13 -35 39 -43 31z"/>
<path fill="#000000" stroke="none" d="M51 84 c0 -11 3 -14 6 -6 3 7 2 16 -1
19 -3 4 -6 -2 -5 -13z"/>
<path fill="#000000" stroke="none" d="M0 43 c0 -25 0 -26 20 -8 11 10 20 22
20 27 0 4 -9 8 -20 8 -15 0 -20 -7 -20 -27z"/>
<path fill="#000000" stroke="none" d="M290 56 c0 -7 7 -19 15 -26 13 -11 15
-8 15 14 0 16 -5 26 -15 26 -8 0 -15 -6 -15 -14z"/>
</g>
</svg>
