<?xml version="1.0" standalone="no"?>
<!DOCTYPE svg PUBLIC "-//W3C//DTD SVG 20010904//EN"
 "http://www.w3.org/TR/2001/REC-SVG-20010904/DTD/svg10.dtd">
<svg version="1.0" xmlns="http://www.w3.org/2000/svg"
 width="32.000000pt" height="32.000000pt" viewBox="0 0 32.000000 32.000000"
 preserveAspectRatio="xMidYMid meet">
<metadata>
Created by potrace 1.16, written by Peter Selinger 2001-2019
</metadata>
<g transform="translate(0.000000,32.000000) scale(0.100000,-0.100000)"
fill="#000000" stroke="none">
<path fill="#000000" stroke="none" d="M154 298 c-9 -14 -11 -19 -13 -43 -1
-19 -41 -20 -41 -1 0 8 7 17 16 20 8 3 12 10 9 16 -11 17 -41 11 -63 -13 -20
-21 -22 -34 -22 -124 0 -87 -3 -102 -20 -118 -11 -10 -20 -22 -20 -27 0 -4 72
-8 160 -8 88 0 160 4 160 9 0 5 -7 14 -15 21 -12 10 -15 37 -15 119 0 99 -2
109 -23 129 -25 23 -52 28 -62 12 -3 -6 1 -13 9 -16 9 -3 16 -12 16 -20 0 -19
-40 -18 -41 1 -3 30 -4 34 -15 45 -9 9 -14 8 -20 -2z"/>
<path fill="#ffffff" stroke="none" d="M176 274 c5 -32 14 -44 34 -44 29 0 38
30 15 46 -18 13 -18 14 2 14 42 0 52 -28 50 -137 -2 -102 -2 -103 -29 -114
-21 -9 -31 -9 -42 0 -8 7 -17 8 -19 4 -5 -7 -82 -8 -124 -2 -10 2 -13 31 -13
107 0 113 11 142 53 142 20 0 20 -1 2 -14 -23 -16 -14 -46 15 -46 23 0 28 9
39 69 2 9 15 -10 17 -25z"/>
</g>
</svg>
