<?xml version="1.0" standalone="no"?>
<!DOCTYPE svg PUBLIC "-//W3C//DTD SVG 20010904//EN"
 "http://www.w3.org/TR/2001/REC-SVG-20010904/DTD/svg10.dtd">
<svg version="1.0" xmlns="http://www.w3.org/2000/svg"
 width="32.000000pt" height="32.000000pt" viewBox="0 0 32.000000 32.000000"
 preserveAspectRatio="xMidYMid meet">
<metadata>
Created by potrace 1.16, written by Peter Selinger 2001-2019
</metadata>
<g transform="translate(0.000000,32.000000) scale(0.100000,-0.100000)"
fill="#000000" stroke="none">
<path fill="#000000" stroke="none" d="M156 301 c-3 -5 -22 -7 -41 -4 -28 4
-39 0 -55 -19 -16 -19 -19 -39 -20 -124 0 -88 -3 -103 -20 -119 -11 -10 -20
-22 -20 -27 0 -4 72 -8 160 -8 88 0 160 4 160 9 0 5 -7 14 -15 21 -11 10 -15
35 -15 110 0 54 -3 112 -6 129 -6 30 -8 31 -54 30 -26 -1 -52 1 -58 5 -6 3
-13 2 -16 -3z"/>
<path fill="#ffffff" stroke="none" d="M176 274 c6 -37 15 -46 39 -42 13 3 27
0 30 -6 2 -6 2 0 -1 14 -3 14 -13 31 -22 38 -14 11 -14 12 5 12 32 0 54 -32
47 -68 -4 -18 -10 -29 -15 -26 -12 7 -11 -23 1 -46 16 -30 1 -108 -22 -116
-11 -3 -24 -2 -30 4 -6 6 -24 6 -47 1 -21 -5 -49 -6 -62 -3 -13 3 -30 6 -36 6
-10 1 -13 29 -13 106 0 113 11 142 53 142 20 0 20 -1 2 -14 -23 -16 -14 -46
15 -46 23 0 28 9 39 69 2 9 15 -10 17 -25z"/>
<path fill="#ffffff" stroke="none" d="M143 260 c-6 -21 -43 -28 -43 -9 0 14
32 39 41 33 4 -2 5 -13 2 -24z"/>
<path fill="#ffffff" stroke="none" d="M230 253 c0 -21 -37 -15 -43 6 -3 11
-3 22 0 25 8 8 43 -18 43 -31z"/>
<path fill="#000000" stroke="none" d="M95 200 c-3 -5 0 -10 7 -10 11 0 11 -2
0 -9 -11 -6 -10 -10 1 -19 11 -9 13 -6 13 18 0 30 -9 39 -21 20z"/>
<path fill="#000000" stroke="none" d="M195 200 c4 -6 13 -9 20 -7 8 4 11 -3
9 -20 -2 -17 1 -22 8 -15 17 17 5 47 -21 50 -15 3 -21 0 -16 -8z"/>
<path fill="#000000" stroke="none" d="M131 163 c0 -11 3 -13 6 -5 2 6 9 10
14 6 5 -3 9 0 9 5 0 6 -7 11 -15 11 -8 0 -15 -8 -14 -17z"/>
<path fill="#000000" stroke="none" d="M180 165 c0 -8 2 -15 4 -15 2 0 6 7 10
15 3 8 1 15 -4 15 -6 0 -10 -7 -10 -15z"/>
<path fill="#000000" stroke="none" d="M134 125 c-4 -9 -4 -19 0 -22 3 -4 6 2
6 13 0 16 2 17 10 4 6 -9 10 -10 10 -3 0 19 -20 26 -26 8z"/>
<path fill="#000000" stroke="none" d="M93 117 c0 -8 6 -14 14 -14 7 0 13 6
13 14 0 7 -6 13 -13 13 -8 0 -14 -6 -14 -13z"/>
<path fill="#000000" stroke="none" d="M170 122 c0 -5 7 -9 15 -9 8 0 15 4 15
9 0 4 -7 8 -15 8 -8 0 -15 -4 -15 -8z"/>
<path fill="#000000" stroke="none" d="M210 120 c0 -5 7 -7 15 -4 8 4 15 8 15
10 0 2 -7 4 -15 4 -8 0 -15 -4 -15 -10z"/>
</g>
</svg>
