<?xml version="1.0" standalone="no"?>
<!DOCTYPE svg PUBLIC "-//W3C//DTD SVG 20010904//EN"
 "http://www.w3.org/TR/2001/REC-SVG-20010904/DTD/svg10.dtd">
<svg version="1.0" xmlns="http://www.w3.org/2000/svg"
 width="32.000000pt" height="32.000000pt" viewBox="0 0 32.000000 32.000000"
 preserveAspectRatio="xMidYMid meet">
<metadata>
Created by potrace 1.16, written by Peter Selinger 2001-2019
</metadata>
<g transform="translate(0.000000,32.000000) scale(0.100000,-0.100000)"
fill="#000000" stroke="none">
<path fill="#000000" stroke="none" d="M112 267 c-57 -58 -54 -73 3 -17 l45
44 45 -44 c25 -24 45 -40 45 -35 0 10 -80 95 -90 95 -3 0 -25 -19 -48 -43z"/>
<path fill="#000000" stroke="none" d="M115 62 l49 -52 43 42 c24 23 43 47 43
52 0 6 -20 -10 -45 -34 l-45 -44 -47 44 -48 45 50 -53z"/>
</g>
</svg>
