<?xml version="1.0" standalone="no"?>
<!DOCTYPE svg PUBLIC "-//W3C//DTD SVG 20010904//EN"
 "http://www.w3.org/TR/2001/REC-SVG-20010904/DTD/svg10.dtd">
<svg version="1.0" xmlns="http://www.w3.org/2000/svg"
 width="32.000000pt" height="32.000000pt" viewBox="0 0 32.000000 32.000000"
 preserveAspectRatio="xMidYMid meet">
<metadata>
Created by potrace 1.16, written by Peter Selinger 2001-2019
</metadata>
<g transform="translate(0.000000,32.000000) scale(0.100000,-0.100000)"
fill="#000000" stroke="none">
<path fill="#000000" stroke="none" d="M0 160 l0 -160 160 0 160 0 0 95 c0 80
-2 93 -15 89 -11 -5 -13 -2 -9 10 3 9 10 16 15 16 5 0 9 24 9 54 l0 54 -160 1
-160 2 0 -161z"/>
<path fill="#ffffff" stroke="none" d="M128 294 c17 -3 33 -12 36 -19 3 -10
-4 -11 -32 -4 -20 5 -55 9 -77 9 -30 0 -36 3 -25 10 17 11 54 13 98 4z"/>
<path fill="#ffffff" stroke="none" d="M310 296 c0 -3 -4 -8 -10 -11 -5 -3
-10 -1 -10 4 0 6 5 11 10 11 6 0 10 -2 10 -4z"/>
<path fill="#ffffff" stroke="none" d="M310 239 c0 -6 -4 -7 -10 -4 -5 3 -10
11 -10 16 0 6 5 7 10 4 6 -3 10 -11 10 -16z"/>
<path fill="#ffffff" stroke="none" d="M244 187 c-13 -16 -24 -33 -24 -38 0
-18 -22 -8 -60 29 l-39 37 73 0 74 0 -24 -28z"/>
<path fill="#ffffff" stroke="none" d="M133 143 c11 -19 14 -33 8 -33 -6 0
-11 7 -11 16 0 8 -5 12 -11 8 -7 -4 -6 -11 4 -22 14 -13 14 -17 0 -39 -12 -18
-19 -21 -29 -12 -7 6 -18 8 -24 4 -8 -5 -10 5 -8 31 3 34 6 39 31 42 16 2 27
8 24 15 -13 41 -93 -14 -84 -58 2 -14 0 -22 -5 -18 -6 3 -7 18 -4 34 3 15 1
31 -4 34 -6 3 -10 12 -10 19 0 9 16 13 52 12 48 -1 53 -4 71 -33z"/>
<path fill="#ffffff" stroke="none" d="M307 138 c-3 -8 -6 -5 -6 6 -1 11 2 17
5 13 3 -3 4 -12 1 -19z"/>
<path fill="#ffffff" stroke="none" d="M224 60 c8 0 20 8 26 18 7 10 10 11 7
3 -2 -8 -10 -19 -19 -25 -20 -12 -48 8 -47 33 0 11 3 9 9 -6 5 -13 16 -23 24
-23z"/>
<path fill="#ffffff" stroke="none" d="M161 45 c11 6 11 5 2 -5 -12 -14 -33
-6 -33 13 0 8 3 7 9 -2 5 -8 14 -10 22 -6z"/>
</g>
</svg>
