<?xml version="1.0" standalone="no"?>
<!DOCTYPE svg PUBLIC "-//W3C//DTD SVG 20010904//EN"
 "http://www.w3.org/TR/2001/REC-SVG-20010904/DTD/svg10.dtd">
<svg version="1.0" xmlns="http://www.w3.org/2000/svg"
 width="32.000000pt" height="32.000000pt" viewBox="0 0 32.000000 32.000000"
 preserveAspectRatio="xMidYMid meet">
<metadata>
Created by potrace 1.16, written by Peter Selinger 2001-2019
</metadata>
<g transform="translate(0.000000,32.000000) scale(0.100000,-0.100000)"
fill="#000000" stroke="none">
<path fill="#000000" stroke="none" d="M30 291 c-11 -8 -5 -11 25 -11 23 0 67
-7 98 -15 32 -8 61 -15 65 -15 11 0 -42 34 -58 38 -53 10 -117 11 -130 3z"/>
<path fill="#000000" stroke="none" d="M290 289 c0 -5 5 -7 10 -4 6 3 10 8 10
11 0 2 -4 4 -10 4 -5 0 -10 -5 -10 -11z"/>
<path fill="#000000" stroke="none" d="M290 251 c0 -5 5 -13 10 -16 6 -3 10
-2 10 4 0 5 -4 13 -10 16 -5 3 -10 2 -10 -4z"/>
<path fill="#000000" stroke="none" d="M152 187 c31 -26 32 -29 15 -41 -10 -8
-16 -20 -15 -27 2 -8 -4 -14 -12 -14 -8 0 -15 8 -16 18 -1 12 -1 13 3 2 2 -8
9 -15 15 -15 5 0 1 15 -9 33 -18 29 -23 32 -71 33 -36 1 -52 -3 -52 -12 0 -7
5 -16 10 -19 6 -3 7 -17 4 -31 -4 -16 -1 -31 9 -42 8 -9 18 -27 22 -40 4 -14
13 -22 23 -20 22 4 23 44 1 40 -25 -4 -52 33 -45 62 7 30 49 61 71 52 24 -9
17 -24 -12 -28 -25 -3 -28 -8 -31 -42 -3 -31 0 -38 12 -33 18 7 40 -18 32 -38
-4 -13 8 -15 78 -15 55 0 87 4 93 13 12 14 23 56 28 107 4 28 3 30 -3 10 -5
-17 -10 -21 -16 -12 -4 6 -16 12 -26 12 -33 0 -33 21 0 48 l32 27 -87 0 -87 0
34 -28z"/>
<path fill="#000000" stroke="none" d="M296 194 c-4 -10 -1 -14 6 -12 15 5 23
28 10 28 -5 0 -13 -7 -16 -16z"/>
</g>
</svg>
