<?xml version="1.0" standalone="no"?>
<!DOCTYPE svg PUBLIC "-//W3C//DTD SVG 20010904//EN"
 "http://www.w3.org/TR/2001/REC-SVG-20010904/DTD/svg10.dtd">
<svg version="1.0" xmlns="http://www.w3.org/2000/svg"
 width="32.000000pt" height="32.000000pt" viewBox="0 0 32.000000 32.000000"
 preserveAspectRatio="xMidYMid meet">
<metadata>
Created by potrace 1.16, written by Peter Selinger 2001-2019
</metadata>
<g transform="translate(0.000000,32.000000) scale(0.100000,-0.100000)"
fill="#000000" stroke="none">
<path fill="#000000" stroke="none" d="M61 294 c0 -11 3 -14 6 -6 3 7 2 16 -1
19 -3 4 -6 -2 -5 -13z"/>
<path fill="#000000" stroke="none" d="M115 220 c-4 -6 -11 -7 -17 -4 -7 4 -8
2 -4 -4 7 -12 36 -5 36 9 0 12 -7 11 -15 -1z"/>
<path fill="#000000" stroke="none" d="M145 210 c3 -5 8 -10 11 -10 2 0 4 5 4
10 0 6 -5 10 -11 10 -5 0 -7 -4 -4 -10z"/>
<path fill="#000000" stroke="none" d="M171 197 c-8 -10 -7 -14 4 -14 8 0 15
6 15 14 0 7 -2 13 -4 13 -2 0 -9 -6 -15 -13z"/>
<path fill="#000000" stroke="none" d="M295 161 c-3 -5 -2 -12 3 -15 5 -3 9 1
9 9 0 17 -3 19 -12 6z"/>
<path fill="#000000" stroke="none" d="M235 140 c-3 -5 -1 -10 4 -10 6 0 11 5
11 10 0 6 -2 10 -4 10 -3 0 -8 -4 -11 -10z"/>
<path fill="#000000" stroke="none" d="M181 124 c0 -11 3 -14 6 -6 3 7 2 16
-1 19 -3 4 -6 -2 -5 -13z"/>
<path fill="#000000" stroke="none" d="M287 119 c7 -7 15 -10 18 -7 3 3 -2 9
-12 12 -14 6 -15 5 -6 -5z"/>
<path fill="#000000" stroke="none" d="M200 109 c0 -5 5 -7 10 -4 6 3 10 8 10
11 0 2 -4 4 -10 4 -5 0 -10 -5 -10 -11z"/>
<path fill="#000000" stroke="none" d="M241 94 c0 -11 3 -14 6 -6 3 7 2 16 -1
19 -3 4 -6 -2 -5 -13z"/>
<path fill="#000000" stroke="none" d="M285 80 c-3 -6 1 -7 9 -4 18 7 21 14 7
14 -6 0 -13 -4 -16 -10z"/>
</g>
</svg>
