<?xml version="1.0" standalone="no"?>
<!DOCTYPE svg PUBLIC "-//W3C//DTD SVG 20010904//EN"
 "http://www.w3.org/TR/2001/REC-SVG-20010904/DTD/svg10.dtd">
<svg version="1.0" xmlns="http://www.w3.org/2000/svg"
 width="32.000000pt" height="32.000000pt" viewBox="0 0 32.000000 32.000000"
 preserveAspectRatio="xMidYMid meet">
<metadata>
Created by potrace 1.16, written by Peter Selinger 2001-2019
</metadata>
<g transform="translate(0.000000,32.000000) scale(0.100000,-0.100000)"
fill="#000000" stroke="none">
<path fill="#000000" stroke="none" d="M0 160 l0 -160 160 0 160 0 0 160 0
160 -160 0 -160 0 0 -160z"/>
<path fill="#ffffff" stroke="none" d="M171 276 c-13 -14 -20 -30 -16 -36 4
-7 1 -16 -6 -21 -11 -7 -9 -9 6 -10 l20 0 -20 -9 c-19 -8 -19 -9 1 -9 14 -1
24 7 27 20 3 12 11 19 19 17 7 -3 19 4 26 16 12 19 13 19 7 1 -17 -48 -17 -53
2 -58 10 -2 2 -5 -17 -5 -71 1 -80 -2 -80 -19 0 -14 2 -15 9 -4 7 11 10 10 14
-5 7 -23 1 -134 -8 -142 -4 -4 -5 4 -4 18 2 14 -3 57 -10 97 -8 39 -10 79 -6
90 4 10 9 23 9 28 2 19 27 55 38 55 6 0 1 -11 -11 -24z"/>
<path fill="#ffffff" stroke="none" d="M123 275 c-3 -9 -8 -14 -10 -11 -3 3
-2 9 2 15 9 16 15 13 8 -4z"/>
<path fill="#ffffff" stroke="none" d="M200 270 c0 -5 -4 -10 -10 -10 -5 0 -7
-6 -4 -14 3 -8 1 -17 -4 -20 -15 -9 -24 25 -11 40 13 16 29 18 29 4z"/>
<path fill="#ffffff" stroke="none" d="M257 204 c-3 -3 -12 -4 -19 -1 -8 3 -5
6 6 6 11 1 17 -2 13 -5z"/>
<path fill="#ffffff" stroke="none" d="M223 100 l6 -35 -14 40 c-14 37 -15 38
-10 8 6 -44 -4 -93 -21 -93 -13 0 -13 86 1 130 7 21 8 21 20 3 7 -10 15 -34
18 -53z"/>
<path fill="#ffffff" stroke="none" d="M241 134 c-5 -16 -10 -21 -10 -12 -1
18 10 51 15 45 2 -1 -1 -16 -5 -33z"/>
<path fill="#ffffff" stroke="none" d="M107 138 c-3 -8 -6 -5 -6 6 -1 11 2 17
5 13 3 -3 4 -12 1 -19z"/>
<path fill="#ffffff" stroke="none" d="M230 27 c0 -5 -4 -5 -10 -2 -5 3 -10
14 -10 23 0 15 2 15 10 2 5 -8 10 -19 10 -23z"/>
<path fill="#ffffff" stroke="none" d="M125 20 c3 -5 1 -10 -4 -10 -6 0 -11 5
-11 10 0 6 2 10 4 10 3 0 8 -4 11 -10z"/>
<path fill="#000000" stroke="none" d="M196 205 c-3 -8 -1 -15 4 -15 6 0 10 7
10 15 0 8 -2 15 -4 15 -2 0 -6 -7 -10 -15z"/>
<path fill="#000000" stroke="none" d="M152 125 c0 -16 2 -22 5 -12 2 9 2 23
0 30 -3 6 -5 -1 -5 -18z"/>
<path fill="#000000" stroke="none" d="M182 80 c0 -14 2 -19 5 -12 2 6 2 18 0
25 -3 6 -5 1 -5 -13z"/>
</g>
</svg>
