<?xml version="1.0" standalone="no"?>
<!DOCTYPE svg PUBLIC "-//W3C//DTD SVG 20010904//EN"
 "http://www.w3.org/TR/2001/REC-SVG-20010904/DTD/svg10.dtd">
<svg version="1.0" xmlns="http://www.w3.org/2000/svg"
 width="32.000000pt" height="32.000000pt" viewBox="0 0 32.000000 32.000000"
 preserveAspectRatio="xMidYMid meet">
<metadata>
Created by potrace 1.16, written by Peter Selinger 2001-2019
</metadata>
<g transform="translate(0.000000,32.000000) scale(0.100000,-0.100000)"
fill="#000000" stroke="none">
<path fill="#000000" stroke="none" d="M0 160 l0 -160 160 0 160 0 0 160 0
160 -160 0 -160 0 0 -160z"/>
<path fill="#ffffff" stroke="none" d="M202 298 c32 -18 48 -41 42 -57 -2 -8
1 -18 8 -22 10 -6 9 -23 -1 -81 -8 -40 -13 -85 -13 -100 1 -28 1 -28 -63 -28
-65 0 -65 0 -63 28 2 15 -3 60 -11 100 -10 52 -11 79 -4 95 6 12 15 34 22 50
12 30 45 36 83 15z"/>
</g>
</svg>
