<?xml version="1.0" standalone="no"?>
<!DOCTYPE svg PUBLIC "-//W3C//DTD SVG 20010904//EN"
 "http://www.w3.org/TR/2001/REC-SVG-20010904/DTD/svg10.dtd">
<svg version="1.0" xmlns="http://www.w3.org/2000/svg"
 width="32.000000pt" height="32.000000pt" viewBox="0 0 32.000000 32.000000"
 preserveAspectRatio="xMidYMid meet">
<metadata>
Created by potrace 1.16, written by Peter Selinger 2001-2019
</metadata>
<g transform="translate(0.000000,32.000000) scale(0.100000,-0.100000)"
fill="#000000" stroke="none">
<path fill="#000000" stroke="none" d="M0 160 l0 -160 160 0 160 0 0 160 0
160 -160 0 -160 0 0 -160z"/>
<path fill="#ffffff" stroke="none" d="M217 234 c-3 -3 -12 -4 -19 -1 -8 3 -5
6 6 6 11 1 17 -2 13 -5z"/>
<path fill="#ffffff" stroke="none" d="M87 205 c0 -8 -4 -12 -9 -9 -4 3 -8 0
-8 -7 0 -7 -3 -9 -6 -6 -4 4 -1 13 6 22 15 19 17 19 17 0z"/>
<path fill="#ffffff" stroke="none" d="M190 148 c0 -6 -3 -8 -7 -5 -3 4 -12 2
-20 -4 -13 -11 -19 2 -6 14 11 11 33 8 33 -5z"/>
<path fill="#ffffff" stroke="none" d="M201 77 c30 8 38 8 29 -1 -14 -14 -126
-14 -140 0 -9 9 -1 9 29 1 30 -8 52 -8 82 0z"/>
</g>
</svg>
