<?xml version="1.0" standalone="no"?>
<!DOCTYPE svg PUBLIC "-//W3C//DTD SVG 20010904//EN"
 "http://www.w3.org/TR/2001/REC-SVG-20010904/DTD/svg10.dtd">
<svg version="1.0" xmlns="http://www.w3.org/2000/svg"
 width="32.000000pt" height="32.000000pt" viewBox="0 0 32.000000 32.000000"
 preserveAspectRatio="xMidYMid meet">
<metadata>
Created by potrace 1.16, written by Peter Selinger 2001-2019
</metadata>
<g transform="translate(0.000000,32.000000) scale(0.100000,-0.100000)"
fill="#000000" stroke="none">
<path fill="#000000" stroke="none" d="M0 166 l0 -154 149 1 c148 1 150 1 156
24 3 13 -2 37 -11 54 -8 17 -11 28 -5 25 13 -8 13 -6 15 112 l2 92 -153 0
-153 0 0 -154z"/>
<path fill="#ffffff" stroke="none" d="M204 261 c3 -5 -1 -14 -8 -20 -12 -10
-14 -9 -11 6 2 10 4 19 4 21 2 5 10 2 15 -7z"/>
<path fill="#ffffff" stroke="none" d="M114 141 c3 -5 -1 -14 -8 -20 -12 -10
-14 -9 -11 6 2 10 4 19 4 21 2 5 10 2 15 -7z"/>
</g>
</svg>
