<?xml version="1.0" standalone="no"?>
<!DOCTYPE svg PUBLIC "-//W3C//DTD SVG 20010904//EN"
 "http://www.w3.org/TR/2001/REC-SVG-20010904/DTD/svg10.dtd">
<svg version="1.0" xmlns="http://www.w3.org/2000/svg"
 width="32.000000pt" height="32.000000pt" viewBox="0 0 32.000000 32.000000"
 preserveAspectRatio="xMidYMid meet">
<metadata>
Created by potrace 1.16, written by Peter Selinger 2001-2019
</metadata>
<g transform="translate(0.000000,32.000000) scale(0.100000,-0.100000)"
fill="#000000" stroke="none">
<path fill="#000000" stroke="none" d="M0 238 c0 -67 4 -90 21 -118 l21 -34
26 29 25 30 -17 -28 c-10 -16 -15 -31 -12 -34 3 -3 29 -11 58 -19 29 -7 44
-13 33 -13 -40 -2 -99 21 -127 49 l-28 28 0 -64 0 -64 160 0 160 0 0 160 0
160 -160 0 -160 0 0 -82z"/>
<path fill="#ffffff" stroke="none" d="M223 239 c22 -6 37 -12 35 -14 -2 -3
-21 0 -42 6 -21 6 -40 9 -42 6 -9 -9 10 -39 30 -47 16 -7 17 -9 4 -9 -9 -1
-24 9 -33 22 -13 18 -17 20 -25 7 -6 -9 -5 -17 3 -22 8 -5 6 -8 -7 -8 -10 0
-25 -8 -33 -17 -16 -20 -9 -5 26 50 25 41 29 42 84 26z"/>
<path fill="#ffffff" stroke="none" d="M107 234 c-3 -3 -12 -4 -19 -1 -8 3 -5
6 6 6 11 1 17 -2 13 -5z"/>
<path fill="#ffffff" stroke="none" d="M60 186 c0 -2 -9 -6 -20 -9 -11 -3 -20
-1 -20 4 0 5 9 9 20 9 11 0 20 -2 20 -4z"/>
<path fill="#ffffff" stroke="none" d="M300 181 c0 -10 -58 -36 -66 -29 -3 3
7 9 21 12 14 4 23 11 20 16 -3 6 1 10 9 10 9 0 16 -4 16 -9z"/>
<path fill="#ffffff" stroke="none" d="M215 140 c-3 -5 -14 -10 -23 -9 -14 0
-13 2 3 9 27 11 27 11 20 0z"/>
<path fill="#ffffff" stroke="none" d="M163 130 c7 0 6 -4 -3 -10 -19 -12 -33
-13 -26 -1 4 5 3 11 -1 14 -5 2 -2 2 5 0 8 -1 19 -3 25 -3z"/>
<path fill="#ffffff" stroke="none" d="M291 97 l-24 -22 19 27 c10 14 21 24
23 22 3 -3 -6 -15 -18 -27z"/>
<path fill="#ffffff" stroke="none" d="M257 84 c2 -6 -4 -14 -13 -18 -14 -5
-15 -4 -5 8 10 11 8 15 -6 20 -16 4 -16 5 1 3 11 -1 21 -7 23 -13z"/>
</g>
</svg>
