<?xml version="1.0" standalone="no"?>
<!DOCTYPE svg PUBLIC "-//W3C//DTD SVG 20010904//EN"
 "http://www.w3.org/TR/2001/REC-SVG-20010904/DTD/svg10.dtd">
<svg version="1.0" xmlns="http://www.w3.org/2000/svg"
 width="32.000000pt" height="32.000000pt" viewBox="0 0 32.000000 32.000000"
 preserveAspectRatio="xMidYMid meet">
<metadata>
Created by potrace 1.16, written by Peter Selinger 2001-2019
</metadata>
<g transform="translate(0.000000,32.000000) scale(0.100000,-0.100000)"
fill="#000000" stroke="none">
<path fill="#000000" stroke="none" d="M0 160 l0 -160 160 0 160 0 0 160 0
160 -160 0 -160 0 0 -160z"/>
<path fill="#ffffff" stroke="none" d="M70 285 c0 -14 -4 -25 -10 -25 -11 0
-14 33 -3 43 11 11 13 8 13 -18z"/>
<path fill="#ffffff" stroke="none" d="M270 290 c0 -5 -4 -10 -10 -10 -5 0
-10 5 -10 10 0 6 5 10 10 10 6 0 10 -4 10 -10z"/>
<path fill="#ffffff" stroke="none" d="M310 270 c0 -31 -15 -30 -16 1 -1 15 3
26 7 23 5 -3 9 -14 9 -24z"/>
<path fill="#ffffff" stroke="none" d="M160 190 c4 0 24 11 44 25 l36 24 0
-59 c0 -48 -3 -58 -14 -54 -8 3 -17 13 -19 22 -3 12 -5 10 -6 -5 -1 -27 -21
-31 -22 -5 0 11 -4 7 -11 -10 -7 -22 -12 -25 -22 -15 -8 6 -11 18 -9 24 3 7 0
13 -5 13 -6 0 -12 -6 -15 -12 -2 -7 -2 -3 0 10 2 12 -1 22 -7 22 -5 0 -10 -9
-10 -19 0 -11 -4 -23 -10 -26 -6 -4 -10 16 -10 54 l0 60 36 -24 c20 -14 40
-25 44 -25z"/>
<path fill="#ffffff" stroke="none" d="M100 42 c0 -15 2 -15 10 -2 6 10 10 11
10 3 0 -7 5 -13 11 -13 5 0 8 4 4 9 -8 14 32 24 52 12 13 -7 23 -5 35 6 17 15
18 14 18 -15 l0 -32 -80 0 -80 0 2 29 c2 31 18 33 18 3z"/>
</g>
</svg>
