<?xml version="1.0" standalone="no"?>
<!DOCTYPE svg PUBLIC "-//W3C//DTD SVG 20010904//EN"
 "http://www.w3.org/TR/2001/REC-SVG-20010904/DTD/svg10.dtd">
<svg version="1.0" xmlns="http://www.w3.org/2000/svg"
 width="32.000000pt" height="32.000000pt" viewBox="0 0 32.000000 32.000000"
 preserveAspectRatio="xMidYMid meet">
<metadata>
Created by potrace 1.16, written by Peter Selinger 2001-2019
</metadata>
<g transform="translate(0.000000,32.000000) scale(0.100000,-0.100000)"
fill="#000000" stroke="none">
<path fill="#000000" stroke="none" d="M166 293 c-11 -11 -6 -23 8 -23 8 0 17
4 20 9 7 10 -19 23 -28 14z"/>
<path fill="#000000" stroke="none" d="M115 279 c-4 -6 -5 -12 -2 -15 7 -7 37
7 37 17 0 13 -27 11 -35 -2z"/>
<path fill="#000000" stroke="none" d="M81 271 c-7 -5 -11 -14 -7 -20 4 -6 1
-9 -7 -5 -8 3 -17 -2 -21 -12 -11 -28 3 -29 30 -2 27 27 30 55 5 39z"/>
<path fill="#000000" stroke="none" d="M206 271 c-4 -6 3 -15 14 -21 23 -12
27 2 6 19 -9 8 -16 8 -20 2z"/>
<path fill="#000000" stroke="none" d="M250 208 c0 -36 4 -35 14 5 4 16 2 27
-4 27 -5 0 -10 -14 -10 -32z"/>
<path fill="#000000" stroke="none" d="M46 185 c-3 -8 -1 -15 4 -15 6 0 10 7
10 15 0 8 -2 15 -4 15 -2 0 -6 -7 -10 -15z"/>
<path fill="#000000" stroke="none" d="M251 154 c0 -11 3 -14 6 -6 3 7 2 16
-1 19 -3 4 -6 -2 -5 -13z"/>
<path fill="#000000" stroke="none" d="M40 120 c0 -11 4 -20 9 -20 5 0 7 9 4
20 -3 11 -7 20 -9 20 -2 0 -4 -9 -4 -20z"/>
<path fill="#000000" stroke="none" d="M40 75 c0 -8 5 -15 10 -15 6 0 10 7 10
15 0 8 -4 15 -10 15 -5 0 -10 -7 -10 -15z"/>
<path fill="#000000" stroke="none" d="M250 70 c0 -5 5 -10 10 -10 6 0 10 5
10 10 0 6 -4 10 -10 10 -5 0 -10 -4 -10 -10z"/>
<path fill="#000000" stroke="none" d="M250 35 c0 -8 5 -15 10 -15 6 0 10 7
10 15 0 8 -4 15 -10 15 -5 0 -10 -7 -10 -15z"/>
<path fill="#000000" stroke="none" d="M40 30 c0 -5 5 -10 10 -10 6 0 10 5 10
10 0 6 -4 10 -10 10 -5 0 -10 -4 -10 -10z"/>
</g>
</svg>
