<?xml version="1.0" standalone="no"?>
<!DOCTYPE svg PUBLIC "-//W3C//DTD SVG 20010904//EN"
 "http://www.w3.org/TR/2001/REC-SVG-20010904/DTD/svg10.dtd">
<svg version="1.0" xmlns="http://www.w3.org/2000/svg"
 width="32.000000pt" height="32.000000pt" viewBox="0 0 32.000000 32.000000"
 preserveAspectRatio="xMidYMid meet">
<metadata>
Created by potrace 1.16, written by Peter Selinger 2001-2019
</metadata>
<g transform="translate(0.000000,32.000000) scale(0.100000,-0.100000)"
fill="#000000" stroke="none">
<path fill="#000000" stroke="none" d="M1 273 c0 -39 2 -44 9 -25 5 12 13 22
19 22 5 0 11 9 14 19 3 12 16 21 33 24 17 2 8 5 -23 6 l-53 1 1 -47z"/>
<path fill="#000000" stroke="none" d="M250 313 c24 -9 50 -35 50 -50 0 -8 -5
-11 -12 -7 -7 4 -8 3 -4 -4 4 -7 14 -24 22 -40 13 -26 14 -24 14 41 l0 67 -42
-1 c-24 0 -36 -3 -28 -6z"/>
<path fill="#000000" stroke="none" d="M78 233 c7 -3 16 -2 19 1 4 3 -2 6 -13
5 -11 0 -14 -3 -6 -6z"/>
<path fill="#000000" stroke="none" d="M126 231 c-3 -5 2 -15 11 -22 14 -12
16 -12 8 1 -6 12 -5 12 4 4 16 -15 51 -6 51 12 0 16 -65 20 -74 5z"/>
<path fill="#000000" stroke="none" d="M7 183 c-11 -11 -8 -45 4 -38 6 4 8 13
5 20 -3 8 0 16 7 19 7 3 8 5 1 5 -6 1 -14 -2 -17 -6z"/>
<path fill="#000000" stroke="none" d="M202 105 c-10 -8 -23 -11 -27 -7 -5 4
-5 1 0 -7 6 -11 3 -13 -16 -7 -38 12 -88 16 -93 7 -9 -15 28 -80 48 -85 12 -3
40 -6 62 -6 33 0 43 4 47 20 3 12 0 20 -8 20 -16 0 -37 25 -28 33 3 4 13 1 21
-6 11 -8 14 -8 9 0 -4 7 2 18 13 26 16 11 18 16 7 20 -8 3 -24 -1 -35 -8z"/>
<path fill="#000000" stroke="none" d="M1 48 c-1 -46 0 -48 27 -48 15 0 33 4
41 9 10 7 4 9 -20 8 -32 -2 -34 0 -40 38 l-6 40 -2 -47z"/>
<path fill="#000000" stroke="none" d="M311 74 c0 -11 3 -14 6 -6 3 7 2 16 -1
19 -3 4 -6 -2 -5 -13z"/>
<path fill="#000000" stroke="none" d="M295 10 c-19 -8 -19 -9 3 -9 12 -1 22
4 22 9 0 6 -1 10 -2 9 -2 0 -12 -4 -23 -9z"/>
</g>
</svg>
