<?xml version="1.0" standalone="no"?>
<!DOCTYPE svg PUBLIC "-//W3C//DTD SVG 20010904//EN"
 "http://www.w3.org/TR/2001/REC-SVG-20010904/DTD/svg10.dtd">
<svg version="1.0" xmlns="http://www.w3.org/2000/svg"
 width="32.000000pt" height="32.000000pt" viewBox="0 0 32.000000 32.000000"
 preserveAspectRatio="xMidYMid meet">
<metadata>
Created by potrace 1.16, written by Peter Selinger 2001-2019
</metadata>
<g transform="translate(0.000000,32.000000) scale(0.100000,-0.100000)"
fill="#000000" stroke="none">
<path fill="#000000" stroke="none" d="M77 312 c-16 -2 -31 -11 -34 -20 -4 -9
-13 -22 -20 -27 -16 -12 -31 -91 -16 -82 11 7 11 -19 0 -43 -4 -9 -4 -40 0
-70 9 -60 21 -68 98 -68 26 1 31 2 13 5 -28 4 -43 27 -31 46 4 7 8 19 8 27 0
24 28 21 60 -6 17 -14 25 -24 20 -22 -6 2 -11 -1 -12 -7 -1 -5 11 -10 26 -9
23 1 28 -3 26 -18 -3 -14 2 -18 25 -18 16 0 39 4 53 9 22 9 24 14 24 93 1 50
-4 94 -12 110 -7 15 -11 36 -9 46 10 36 -30 56 -114 57 -42 0 -90 -1 -105 -3z"/>
<path fill="#ffffff" stroke="none" d="M230 105 c0 -2 -10 -10 -22 -16 -21
-11 -22 -11 -9 4 13 16 31 23 31 12z"/>
</g>
</svg>
