<?xml version="1.0" standalone="no"?>
<!DOCTYPE svg PUBLIC "-//W3C//DTD SVG 20010904//EN"
 "http://www.w3.org/TR/2001/REC-SVG-20010904/DTD/svg10.dtd">
<svg version="1.0" xmlns="http://www.w3.org/2000/svg"
 width="32.000000pt" height="32.000000pt" viewBox="0 0 32.000000 32.000000"
 preserveAspectRatio="xMidYMid meet">
<metadata>
Created by potrace 1.16, written by Peter Selinger 2001-2019
</metadata>
<g transform="translate(0.000000,32.000000) scale(0.100000,-0.100000)"
fill="#000000" stroke="none">
<path fill="#000000" stroke="none" d="M76 312 c-17 -2 -30 -11 -33 -22 -3
-10 -11 -21 -18 -24 -20 -7 -30 -73 -15 -91 10 -12 10 -18 1 -29 -9 -10 -10
-32 -4 -72 8 -55 10 -58 41 -66 48 -13 53 -8 32 36 -17 33 -18 42 -6 65 8 14
12 40 10 58 -2 21 1 33 11 37 8 3 15 12 15 21 0 10 10 15 29 15 16 0 36 3 45
6 12 5 16 0 16 -19 0 -13 7 -30 15 -37 8 -7 15 -25 15 -41 0 -15 5 -31 10 -34
14 -9 13 -62 -2 -71 -7 -5 -8 -3 -3 6 5 8 4 11 -2 7 -6 -4 -10 -17 -9 -29 1
-26 28 -34 67 -19 24 9 26 13 26 93 1 50 -4 94 -12 110 -7 15 -11 36 -9 46 10
36 -30 56 -114 57 -42 0 -90 -1 -106 -3z"/>
<path fill="#ffffff" stroke="none" d="M116 265 c-4 -11 -11 -11 -35 -2 -38
14 -40 35 -3 39 29 3 47 -14 38 -37z"/>
<path fill="#ffffff" stroke="none" d="M188 298 c9 -9 12 -9 12 0 0 7 9 12 20
12 16 0 20 -7 20 -30 0 -16 -5 -30 -11 -30 -6 0 -8 7 -5 16 6 15 4 15 -11 3
-11 -9 -14 -10 -9 -1 4 7 2 12 -8 12 -8 0 -17 6 -19 13 -4 7 -6 6 -6 -4 -1 -9
-8 -22 -16 -29 -12 -10 -16 -9 -21 4 -14 37 25 63 54 34z"/>
<path fill="#ffffff" stroke="none" d="M290 269 c0 -6 -5 -19 -10 -30 -8 -15
-7 -19 5 -19 8 0 15 -7 15 -15 0 -17 -35 -20 -45 -4 -11 18 5 79 20 79 8 0 15
-5 15 -11z"/>
<path fill="#ffffff" stroke="none" d="M50 247 c0 -7 -6 -19 -12 -26 -7 -8 -8
-11 -3 -8 6 3 17 2 24 -2 17 -11 5 -71 -15 -71 -20 0 -17 28 4 33 10 3 6 5
-10 6 -30 1 -31 3 -22 50 6 30 34 45 34 18z"/>
<path fill="#ffffff" stroke="none" d="M100 235 c0 -19 -13 -25 -29 -15 -19
11 -6 41 14 34 8 -3 15 -12 15 -19z"/>
<path fill="#ffffff" stroke="none" d="M240 230 c0 -5 -4 -10 -9 -10 -6 0 -13
5 -16 10 -3 6 1 10 9 10 9 0 16 -4 16 -10z"/>
<path fill="#ffffff" stroke="none" d="M308 157 c-2 -18 -8 -21 -33 -19 -36 5
-39 7 -32 25 3 8 19 14 37 15 27 1 31 -3 28 -21z"/>
<path fill="#ffffff" stroke="none" d="M30 116 c0 -8 -5 -18 -10 -21 -6 -3
-10 3 -10 14 0 12 5 21 10 21 6 0 10 -6 10 -14z"/>
<path fill="#ffffff" stroke="none" d="M280 120 c0 -5 -4 -10 -10 -10 -5 0
-10 5 -10 10 0 6 5 10 10 10 6 0 10 -4 10 -10z"/>
<path fill="#ffffff" stroke="none" d="M310 110 c0 -5 -4 -10 -10 -10 -5 0
-10 5 -10 10 0 6 5 10 10 10 6 0 10 -4 10 -10z"/>
<path fill="#ffffff" stroke="none" d="M55 89 c-5 -13 -2 -25 6 -29 10 -7 10
-11 0 -24 -22 -26 -41 -19 -41 14 0 17 5 30 10 30 6 0 9 3 9 8 -3 15 1 22 12
22 6 0 8 -9 4 -21z"/>
<path fill="#ffffff" stroke="none" d="M298 83 c2 -8 -5 -13 -17 -13 -12 0
-21 6 -21 16 0 18 31 15 38 -3z"/>
<path fill="#ffffff" stroke="none" d="M294 54 c23 -9 20 -34 -3 -34 -22 0
-35 15 -26 30 7 12 8 12 29 4z"/>
<path fill="#ffffff" stroke="none" d="M80 20 c0 -5 -4 -10 -10 -10 -5 0 -10
5 -10 10 0 6 5 10 10 10 6 0 10 -4 10 -10z"/>
<path fill="#ffffff" stroke="none" d="M260 20 c0 -5 -7 -10 -15 -10 -8 0 -15
5 -15 10 0 6 7 10 15 10 8 0 15 -4 15 -10z"/>
<path fill="#000000" stroke="none" d="M177 153 c-11 -10 -8 -53 3 -53 6 0 10
14 10 30 0 31 -2 35 -13 23z"/>
<path fill="#000000" stroke="none" d="M140 110 c0 -19 3 -21 12 -12 9 9 9 15
0 24 -9 9 -12 7 -12 -12z"/>
</g>
</svg>
