<?xml version="1.0" standalone="no"?>
<!DOCTYPE svg PUBLIC "-//W3C//DTD SVG 20010904//EN"
 "http://www.w3.org/TR/2001/REC-SVG-20010904/DTD/svg10.dtd">
<svg version="1.0" xmlns="http://www.w3.org/2000/svg"
 width="32.000000pt" height="32.000000pt" viewBox="0 0 32.000000 32.000000"
 preserveAspectRatio="xMidYMid meet">
<metadata>
Created by potrace 1.16, written by Peter Selinger 2001-2019
</metadata>
<g transform="translate(0.000000,32.000000) scale(0.100000,-0.100000)"
fill="#000000" stroke="none">
<path fill="#000000" stroke="none" d="M8 313 c7 -3 16 -2 19 1 4 3 -2 6 -13
5 -11 0 -14 -3 -6 -6z"/>
<path fill="#000000" stroke="none" d="M68 313 c6 -2 18 -2 25 0 6 3 1 5 -13
5 -14 0 -19 -2 -12 -5z"/>
<path fill="#000000" stroke="none" d="M174 311 c8 -13 -18 -21 -35 -10 -24
15 -31 10 -25 -15 3 -14 2 -28 -4 -31 -20 -12 -9 -25 20 -25 17 0 30 -5 30
-11 0 -5 -4 -7 -10 -4 -5 3 -10 2 -10 -4 0 -5 4 -12 8 -15 8 -5 24 19 35 54 4
12 6 11 6 -2 1 -10 6 -18 11 -18 7 0 7 6 1 18 -6 10 -8 28 -5 39 4 13 0 22
-11 27 -9 3 -14 2 -11 -3z"/>
<path fill="#ffffff" stroke="none" d="M174 292 c14 8 17 7 13 -3 -2 -8 -9
-13 -14 -12 -6 1 -8 -8 -6 -21 4 -20 2 -22 -26 -18 -17 2 -28 8 -25 13 3 5 9
7 14 4 4 -3 10 2 14 10 3 8 0 14 -6 12 -6 -1 -13 4 -15 11 -4 11 -1 12 14 4
12 -7 24 -7 37 0z"/>
<path fill="#000000" stroke="none" d="M217 300 c3 -11 14 -25 24 -31 17 -8
19 -6 19 21 0 25 -4 30 -24 30 -19 0 -23 -4 -19 -20z"/>
<path fill="#000000" stroke="none" d="M282 275 c-14 -31 -15 -38 -4 -31 12 7
9 -38 -3 -46 -6 -5 -5 -8 3 -8 7 0 11 -4 8 -8 -2 -4 -1 -14 5 -22 6 -10 9 0 9
33 0 26 5 47 10 47 6 0 10 14 10 30 0 37 -22 40 -38 5z"/>
<path fill="#000000" stroke="none" d="M10 198 c0 -36 3 -48 9 -38 6 8 8 17 5
21 -2 4 2 10 8 12 10 4 10 6 0 6 -8 1 -10 9 -6 26 4 15 2 25 -5 25 -7 0 -11
-21 -11 -52z"/>
<path fill="#000000" stroke="none" d="M55 240 c-3 -5 -2 -10 4 -10 5 0 13 5
16 10 3 6 2 10 -4 10 -5 0 -13 -4 -16 -10z"/>
<path fill="#000000" stroke="none" d="M3 70 c0 -41 2 -58 4 -38 2 21 2 55 0
76 -2 20 -4 3 -4 -38z"/>
<path fill="#000000" stroke="none" d="M273 64 c0 -17 2 -22 7 -13 5 6 6 18 3
26 -8 19 -10 16 -10 -13z"/>
<path fill="#000000" stroke="none" d="M113 23 c20 -2 54 -2 75 0 20 2 3 4
-38 4 -41 0 -58 -2 -37 -4z"/>
</g>
</svg>
