<?xml version="1.0" standalone="no"?>
<!DOCTYPE svg PUBLIC "-//W3C//DTD SVG 20010904//EN"
 "http://www.w3.org/TR/2001/REC-SVG-20010904/DTD/svg10.dtd">
<svg version="1.0" xmlns="http://www.w3.org/2000/svg"
 width="32.000000pt" height="32.000000pt" viewBox="0 0 32.000000 32.000000"
 preserveAspectRatio="xMidYMid meet">
<metadata>
Created by potrace 1.16, written by Peter Selinger 2001-2019
</metadata>
<g transform="translate(0.000000,32.000000) scale(0.100000,-0.100000)"
fill="#000000" stroke="none">
<path fill="#000000" stroke="none" d="M43 313 c9 -2 25 -2 35 0 9 3 1 5 -18
5 -19 0 -27 -2 -17 -5z"/>
<path fill="#000000" stroke="none" d="M141 311 c-8 -5 -12 -18 -8 -30 4 -15
-1 -25 -15 -32 -17 -9 -20 -9 -15 4 3 8 0 22 -6 30 -18 23 -57 4 -57 -26 0
-14 -6 -30 -14 -36 -12 -10 -15 -7 -19 16 -2 15 -5 2 -6 -29 -1 -47 2 -56 14
-52 8 4 15 1 15 -5 0 -6 11 -8 30 -4 26 5 30 3 30 -16 0 -11 5 -21 10 -21 6 0
5 -6 -2 -14 -7 -8 -15 -14 -18 -14 -26 1 -40 -4 -35 -12 7 -11 -12 -40 -26
-40 -4 0 -10 12 -12 28 -2 16 -4 10 -5 -18 0 -25 2 -39 5 -32 2 6 9 12 14 12
6 0 8 -4 5 -9 -3 -5 12 -8 34 -7 35 1 40 4 40 24 0 13 4 20 10 17 6 -4 8 -11
5 -16 -4 -5 -2 -9 4 -9 17 0 24 22 10 31 -11 7 -11 9 -1 9 7 0 10 5 7 10 -5 8
-11 7 -21 -1 -9 -7 -14 -8 -14 -1 0 6 9 14 20 17 11 4 18 10 15 15 -3 4 2 10
10 14 8 3 15 0 15 -7 0 -8 3 -7 9 2 8 12 12 12 25 2 9 -8 16 -9 16 -3 0 18
-26 31 -57 29 -17 -1 -29 -5 -26 -9 2 -5 -3 -8 -11 -8 -9 0 -16 2 -16 5 0 17
30 73 48 89 12 10 19 23 16 27 -10 16 9 9 21 -8 13 -17 40 -9 29 9 -4 6 -2 8
4 4 5 -3 12 0 15 6 8 25 -6 47 -35 57 -37 13 -39 13 -57 2z"/>
<path fill="#ffffff" stroke="none" d="M83 204 c7 -8 -3 -34 -13 -34 -4 0 -10
9 -13 20 -5 19 12 28 26 14z"/>
<path fill="#000000" stroke="none" d="M237 233 c-4 -3 -7 -18 -7 -32 0 -21
-2 -23 -12 -10 -7 8 -22 21 -33 29 -18 13 -18 12 2 -10 12 -14 27 -38 33 -54
12 -32 11 -114 -2 -122 -4 -3 -8 1 -8 8 0 10 -2 10 -9 -1 -5 -8 -16 -11 -29
-7 -19 6 -38 -15 -25 -28 11 -11 59 -6 72 7 11 10 13 10 7 0 -4 -7 -2 -13 3
-13 6 0 11 5 11 10 0 6 5 10 11 10 5 0 7 -5 3 -11 -4 -8 1 -9 17 -4 29 9 49
25 31 25 -9 0 -10 5 -2 19 7 15 5 25 -9 42 -16 20 -21 21 -35 10 -14 -12 -16
-11 -16 4 0 14 6 16 29 12 24 -5 31 -2 36 13 3 11 3 24 0 30 -3 5 -2 10 4 10
6 0 -5 16 -25 35 -38 38 -38 38 -47 28z"/>
</g>
</svg>
