<?xml version="1.0" standalone="no"?>
<!DOCTYPE svg PUBLIC "-//W3C//DTD SVG 20010904//EN"
 "http://www.w3.org/TR/2001/REC-SVG-20010904/DTD/svg10.dtd">
<svg version="1.0" xmlns="http://www.w3.org/2000/svg"
 width="32.000000pt" height="32.000000pt" viewBox="0 0 32.000000 32.000000"
 preserveAspectRatio="xMidYMid meet">
<metadata>
Created by potrace 1.16, written by Peter Selinger 2001-2019
</metadata>
<g transform="translate(0.000000,32.000000) scale(0.100000,-0.100000)"
fill="#000000" stroke="none">
<path fill="#000000" stroke="none" d="M114 287 c3 -14 2 -29 -4 -32 -15 -9
-12 -25 5 -25 8 0 19 -9 26 -21 l11 -21 22 21 c12 12 28 21 35 21 11 0 11 3 1
15 -11 13 -15 13 -23 3 -6 -9 -7 -7 -2 7 19 54 19 59 -1 50 -24 -9 -34 -9 -58
0 -17 7 -18 5 -12 -18z"/>
<path fill="#ffffff" stroke="none" d="M176 285 c-10 -7 -15 -19 -11 -24 9
-16 -4 -53 -17 -45 -6 4 -5 10 3 15 12 7 12 9 0 9 -8 0 -11 7 -8 20 3 11 1 18
-3 15 -5 -3 -12 0 -16 6 -5 8 -1 10 13 7 12 -3 27 -2 34 3 22 14 26 10 5 -6z"/>
<path fill="#000000" stroke="none" d="M17 282 c-13 -14 -16 -37 -7 -62 1 -3
2 -21 1 -40 0 -19 2 -29 5 -23 3 7 5 15 4 19 -1 4 4 11 12 15 10 7 10 9 0 9
-8 0 -10 5 -6 12 7 12 15 88 10 88 -2 0 -10 -8 -19 -18z"/>
<path fill="#000000" stroke="none" d="M264 274 c2 -10 8 -20 14 -22 17 -5 15
13 -2 27 -12 10 -14 9 -12 -5z"/>
<path fill="#000000" stroke="none" d="M291 246 c-8 -13 -11 -29 -7 -34 3 -6
0 -13 -6 -15 -10 -4 -10 -6 0 -6 7 -1 11 -5 8 -9 -2 -4 -1 -14 5 -22 6 -10 9
0 9 33 0 27 4 46 9 43 5 -4 7 3 4 14 -7 25 -7 25 -22 -4z"/>
<path fill="#000000" stroke="none" d="M55 240 c-3 -5 -2 -10 4 -10 5 0 13 5
16 10 3 6 2 10 -4 10 -5 0 -13 -4 -16 -10z"/>
<path fill="#000000" stroke="none" d="M160 175 c-7 -8 -17 -12 -24 -8 -6 3
-8 2 -3 -2 4 -5 -1 -18 -10 -29 -15 -18 -16 -19 -1 -8 14 11 18 10 27 -5 9
-16 10 -15 7 7 -2 14 3 33 12 43 8 9 13 17 10 17 -3 0 -11 -7 -18 -15z"/>
<path fill="#000000" stroke="none" d="M206 111 c-4 -5 -2 -12 3 -15 5 -4 12
-2 15 3 4 5 2 12 -3 15 -5 4 -12 2 -15 -3z"/>
<path fill="#000000" stroke="none" d="M273 64 c0 -17 2 -22 7 -13 5 6 6 18 3
26 -8 19 -10 16 -10 -13z"/>
<path fill="#000000" stroke="none" d="M113 23 c20 -2 54 -2 75 0 20 2 3 4
-38 4 -41 0 -58 -2 -37 -4z"/>
</g>
</svg>
