<?xml version="1.0" standalone="no"?>
<!DOCTYPE svg PUBLIC "-//W3C//DTD SVG 20010904//EN"
 "http://www.w3.org/TR/2001/REC-SVG-20010904/DTD/svg10.dtd">
<svg version="1.0" xmlns="http://www.w3.org/2000/svg"
 width="32.000000pt" height="32.000000pt" viewBox="0 0 32.000000 32.000000"
 preserveAspectRatio="xMidYMid meet">
<metadata>
Created by potrace 1.16, written by Peter Selinger 2001-2019
</metadata>
<g transform="translate(0.000000,32.000000) scale(0.100000,-0.100000)"
fill="#000000" stroke="none">
<path fill="#000000" stroke="none" d="M63 302 c-56 -29 -75 -95 -53 -187 6
-25 5 -44 0 -49 -6 -6 -10 -23 -10 -38 l0 -28 160 0 c154 0 160 1 160 20 0 11
-6 29 -12 40 -9 14 -10 23 -3 28 6 4 10 57 11 119 l1 111 -86 -1 c-47 -1 -91
-5 -98 -10 -6 -4 -14 -3 -18 3 -8 13 -13 12 -52 -8z"/>
</g>
</svg>
