<?xml version="1.0" standalone="no"?>
<!DOCTYPE svg PUBLIC "-//W3C//DTD SVG 20010904//EN"
 "http://www.w3.org/TR/2001/REC-SVG-20010904/DTD/svg10.dtd">
<svg version="1.0" xmlns="http://www.w3.org/2000/svg"
 width="32.000000pt" height="32.000000pt" viewBox="0 0 32.000000 32.000000"
 preserveAspectRatio="xMidYMid meet">
<metadata>
Created by potrace 1.16, written by Peter Selinger 2001-2019
</metadata>
<g transform="translate(0.000000,32.000000) scale(0.100000,-0.100000)"
fill="#000000" stroke="none">
<path fill="#000000" stroke="none" d="M115 300 c-3 -5 0 -19 8 -30 13 -18 15
-19 21 -5 3 10 11 13 18 9 7 -4 10 -4 6 1 -4 4 0 14 10 22 16 13 15 14 -3 4
-12 -6 -26 -6 -37 0 -10 6 -19 5 -23 -1z"/>
<path fill="#ffffff" stroke="none" d="M144 279 c-6 -11 -24 -2 -24 11 0 5 7
7 15 4 8 -4 12 -10 9 -15z"/>
<path fill="#000000" stroke="none" d="M77 293 c-10 -9 -9 -23 2 -23 5 0 11 7
15 15 5 15 -5 20 -17 8z"/>
<path fill="#000000" stroke="none" d="M6 225 c4 -8 10 -12 15 -9 11 6 2 24
-11 24 -5 0 -7 -7 -4 -15z"/>
<path fill="#000000" stroke="none" d="M128 233 c7 -3 16 -2 19 1 4 3 -2 6
-13 5 -11 0 -14 -3 -6 -6z"/>
<path fill="#000000" stroke="none" d="M150 210 c-9 -6 -10 -10 -3 -10 6 0 15
5 18 10 8 12 4 12 -15 0z"/>
<path fill="#000000" stroke="none" d="M18 193 c7 -3 16 -2 19 1 4 3 -2 6 -13
5 -11 0 -14 -3 -6 -6z"/>
<path fill="#000000" stroke="none" d="M278 193 c7 -3 16 -2 19 1 4 3 -2 6
-13 5 -11 0 -14 -3 -6 -6z"/>
<path fill="#000000" stroke="none" d="M10 169 c0 -5 5 -7 10 -4 6 3 10 8 10
11 0 2 -4 4 -10 4 -5 0 -10 -5 -10 -11z"/>
<path fill="#000000" stroke="none" d="M140 176 c0 -2 8 -10 18 -17 15 -13 16
-12 3 4 -13 16 -21 21 -21 13z"/>
<path fill="#000000" stroke="none" d="M285 170 c3 -5 8 -10 11 -10 2 0 4 5 4
10 0 6 -5 10 -11 10 -5 0 -7 -4 -4 -10z"/>
<path fill="#000000" stroke="none" d="M202 135 c4 -4 3 -14 -3 -21 -7 -8 -7
-14 1 -19 5 -3 10 -5 11 -3 6 27 5 39 -4 45 -7 3 -9 3 -5 -2z"/>
<path fill="#000000" stroke="none" d="M84 88 c-23 -26 -24 -28 -3 -11 20 19
28 20 39 10 12 -10 12 -9 2 4 -6 9 -9 19 -5 22 3 4 4 7 2 7 -3 0 -18 -15 -35
-32z"/>
<path fill="#000000" stroke="none" d="M305 47 c-4 -10 -5 -21 -1 -24 10 -10
18 4 13 24 -4 17 -4 17 -12 0z"/>
</g>
</svg>
