<?xml version="1.0" standalone="no"?>
<!DOCTYPE svg PUBLIC "-//W3C//DTD SVG 20010904//EN"
 "http://www.w3.org/TR/2001/REC-SVG-20010904/DTD/svg10.dtd">
<svg version="1.0" xmlns="http://www.w3.org/2000/svg"
 width="32.000000pt" height="32.000000pt" viewBox="0 0 32.000000 32.000000"
 preserveAspectRatio="xMidYMid meet">
<metadata>
Created by potrace 1.16, written by Peter Selinger 2001-2019
</metadata>
<g transform="translate(0.000000,32.000000) scale(0.100000,-0.100000)"
fill="#000000" stroke="none">
<path fill="#000000" stroke="none" d="M20 179 c0 -9 9 -19 19 -22 13 -3 18 0
16 12 -2 9 -4 19 -4 22 -2 14 -31 4 -31 -12z"/>
<path fill="#000000" stroke="none" d="M94 132 c2 -19 7 -36 10 -40 10 -10 6
42 -5 58 -7 11 -9 7 -5 -18z"/>
<path fill="#000000" stroke="none" d="M27 142 c-9 -14 -1 -66 10 -69 14 -5
25 25 12 33 -7 4 -6 10 1 19 8 9 7 14 -4 18 -9 4 -17 3 -19 -1z"/>
</g>
</svg>
