<?xml version="1.0" standalone="no"?>
<!DOCTYPE svg PUBLIC "-//W3C//DTD SVG 20010904//EN"
 "http://www.w3.org/TR/2001/REC-SVG-20010904/DTD/svg10.dtd">
<svg version="1.0" xmlns="http://www.w3.org/2000/svg"
 width="32.000000pt" height="32.000000pt" viewBox="0 0 32.000000 32.000000"
 preserveAspectRatio="xMidYMid meet">
<metadata>
Created by potrace 1.16, written by Peter Selinger 2001-2019
</metadata>
<g transform="translate(0.000000,32.000000) scale(0.100000,-0.100000)"
fill="#000000" stroke="none">
<path fill="#000000" stroke="none" d="M114 283 c4 -12 2 -25 -4 -28 -15 -9
-12 -25 5 -25 8 0 19 -9 26 -21 l11 -21 22 21 c12 12 28 21 35 21 11 0 11 3 1
15 -11 13 -15 13 -23 3 -6 -9 -7 -7 -2 7 18 51 18 51 -30 51 -43 0 -46 -2 -41
-23z"/>
<path fill="#ffffff" stroke="none" d="M175 284 c-9 -7 -14 -18 -10 -23 9 -16
-4 -53 -17 -45 -6 4 -5 10 3 15 12 7 12 9 0 9 -8 0 -11 7 -8 20 3 11 1 18 -3
15 -5 -3 -11 -1 -14 4 -6 10 13 16 47 17 17 0 17 -1 2 -12z"/>
<path fill="#000000" stroke="none" d="M17 282 c-13 -14 -16 -37 -7 -62 1 -3
2 -21 1 -40 0 -19 2 -29 5 -23 3 7 5 15 4 19 -1 4 4 11 12 15 10 7 10 9 0 9
-8 0 -10 5 -6 12 7 12 15 88 10 88 -2 0 -10 -8 -19 -18z"/>
<path fill="#000000" stroke="none" d="M291 246 c-8 -13 -10 -29 -7 -35 4 -6
1 -11 -6 -11 -10 0 -10 -2 0 -9 8 -4 13 -11 13 -15 -1 -3 0 -12 0 -18 1 -7 5
14 9 47 5 33 7 61 6 62 -2 2 -8 -8 -15 -21z"/>
<path fill="#000000" stroke="none" d="M55 240 c-3 -5 -2 -10 4 -10 5 0 13 5
16 10 3 6 2 10 -4 10 -5 0 -13 -4 -16 -10z"/>
<path fill="#000000" stroke="none" d="M81 186 c-19 -20 -20 -24 -6 -30 10 -3
14 -2 10 5 -9 13 14 41 28 32 6 -3 7 -1 3 5 -9 16 -9 16 -35 -12z"/>
<path fill="#000000" stroke="none" d="M213 196 c3 -7 2 -17 -3 -22 -4 -5 1
-18 11 -28 11 -11 19 -14 19 -8 0 6 -5 14 -10 17 -8 5 -7 11 0 20 13 15 6 35
-12 35 -5 0 -8 -6 -5 -14z"/>
<path fill="#000000" stroke="none" d="M60 141 c0 -6 4 -13 10 -16 6 -3 7 1 4
9 -7 18 -14 21 -14 7z"/>
<path fill="#000000" stroke="none" d="M186 84 c-8 -21 -8 -21 12 -29 13 -5
14 -3 5 6 -6 6 -9 18 -6 25 3 8 3 14 0 14 -3 0 -8 -7 -11 -16z"/>
<path fill="#000000" stroke="none" d="M273 64 c0 -17 2 -22 7 -13 5 6 6 18 3
26 -8 19 -10 16 -10 -13z"/>
<path fill="#000000" stroke="none" d="M300 60 c0 -16 5 -30 10 -30 6 0 10 14
10 30 0 17 -4 30 -10 30 -5 0 -10 -13 -10 -30z"/>
<path fill="#000000" stroke="none" d="M148 43 c7 -3 16 -2 19 1 4 3 -2 6 -13
5 -11 0 -14 -3 -6 -6z"/>
<path fill="#000000" stroke="none" d="M113 23 c20 -2 54 -2 75 0 20 2 3 4
-38 4 -41 0 -58 -2 -37 -4z"/>
</g>
</svg>
