<?xml version="1.0" standalone="no"?>
<!DOCTYPE svg PUBLIC "-//W3C//DTD SVG 20010904//EN"
 "http://www.w3.org/TR/2001/REC-SVG-20010904/DTD/svg10.dtd">
<svg version="1.0" xmlns="http://www.w3.org/2000/svg"
 width="32.000000pt" height="32.000000pt" viewBox="0 0 32.000000 32.000000"
 preserveAspectRatio="xMidYMid meet">
<metadata>
Created by potrace 1.16, written by Peter Selinger 2001-2019
</metadata>
<g transform="translate(0.000000,32.000000) scale(0.100000,-0.100000)"
fill="#000000" stroke="none">
<path fill="#000000" stroke="none" d="M114 287 c3 -14 2 -29 -4 -32 -15 -9
-12 -25 5 -25 8 0 19 -9 26 -21 l11 -21 22 21 c12 12 28 21 35 21 11 0 11 3 1
15 -11 13 -15 13 -23 3 -6 -9 -7 -7 -2 7 19 54 19 59 -1 50 -24 -9 -34 -9 -58
0 -17 7 -18 5 -12 -18z"/>
<path fill="#ffffff" stroke="none" d="M176 285 c-10 -7 -15 -19 -11 -24 9
-16 -4 -53 -17 -45 -6 4 -5 10 3 15 12 7 12 9 0 9 -8 0 -11 7 -8 20 3 11 1 18
-3 15 -5 -3 -12 0 -16 6 -5 8 -1 10 13 7 12 -3 27 -2 34 3 22 14 26 10 5 -6z"/>
<path fill="#000000" stroke="none" d="M10 198 c0 -36 3 -48 9 -38 6 8 7 18 5
22 -3 4 1 8 8 8 10 0 11 2 0 8 -7 5 -10 16 -7 24 4 9 2 19 -4 23 -7 4 -11 -12
-11 -47z"/>
<path fill="#000000" stroke="none" d="M55 240 c-3 -5 -2 -10 4 -10 5 0 13 5
16 10 3 6 2 10 -4 10 -5 0 -13 -4 -16 -10z"/>
<path fill="#000000" stroke="none" d="M284 235 c-3 -8 -3 -18 0 -24 3 -5 0
-12 -6 -14 -10 -4 -10 -6 0 -6 7 -1 11 -5 8 -9 -2 -4 -1 -14 5 -22 6 -10 9 2
9 38 0 52 -6 65 -16 37z"/>
<path fill="#000000" stroke="none" d="M81 173 c-1 -23 4 -33 14 -33 8 0 15 7
15 15 0 11 11 15 40 15 32 0 40 4 39 18 0 10 -3 12 -6 5 -2 -8 -22 -13 -44
-13 -30 0 -39 -4 -40 -17 -1 -10 -5 -4 -9 12 l-8 30 -1 -32z"/>
<path fill="#000000" stroke="none" d="M108 193 c7 -3 16 -2 19 1 4 3 -2 6
-13 5 -11 0 -14 -3 -6 -6z"/>
<path fill="#000000" stroke="none" d="M200 175 c0 -20 5 -25 23 -24 16 1 18
2 5 6 -21 5 -24 29 -5 36 7 3 5 6 -5 6 -13 1 -18 -7 -18 -24z"/>
<path fill="#000000" stroke="none" d="M61 143 c-1 -20 4 -23 34 -23 24 0 35
5 35 15 0 9 9 15 25 15 16 0 25 -6 25 -15 0 -8 -8 -15 -17 -15 -15 0 -16 2 -3
10 13 8 12 10 -2 10 -10 0 -18 -7 -18 -15 0 -9 9 -15 25 -15 20 0 25 5 25 25
0 22 -4 25 -35 25 -24 0 -35 -5 -35 -15 0 -22 -47 -19 -53 3 -4 13 -5 11 -6
-5z"/>
<path fill="#000000" stroke="none" d="M200 125 c0 -9 9 -15 23 -14 21 0 21 1
2 8 -19 8 -18 9 5 13 25 5 25 5 -2 7 -19 1 -28 -4 -28 -14z"/>
<path fill="#000000" stroke="none" d="M64 95 c8 -8 26 -15 40 -15 16 0 26 6
26 15 0 9 -9 15 -22 14 -22 0 -22 -1 -3 -9 19 -8 19 -9 -2 -9 -13 -1 -23 4
-23 9 0 6 -7 10 -16 10 -14 0 -14 -2 0 -15z"/>
<path fill="#000000" stroke="none" d="M140 88 c0 -4 8 -8 18 -9 10 0 12 -3 5
-6 -23 -9 -14 -33 12 -33 20 0 25 5 25 24 0 18 7 26 23 29 19 4 18 4 -5 6 -24
1 -28 -3 -28 -24 0 -17 -5 -25 -17 -24 -11 0 -13 3 -5 6 20 8 14 39 -8 39 -11
0 -20 -4 -20 -8z"/>
<path fill="#000000" stroke="none" d="M273 64 c0 -17 2 -22 7 -13 5 6 6 18 3
26 -8 19 -10 16 -10 -13z"/>
<path fill="#000000" stroke="none" d="M85 63 c22 -3 43 -10 47 -16 5 -8 8 -6
8 6 0 14 -8 17 -47 15 -48 -1 -48 -1 -8 -5z"/>
<path fill="#000000" stroke="none" d="M83 35 c0 -12 14 -15 71 -13 l71 2 -60
3 c-32 2 -64 8 -70 13 -8 7 -12 5 -12 -5z"/>
</g>
</svg>
