<?xml version="1.0" standalone="no"?>
<!DOCTYPE svg PUBLIC "-//W3C//DTD SVG 20010904//EN"
 "http://www.w3.org/TR/2001/REC-SVG-20010904/DTD/svg10.dtd">
<svg version="1.0" xmlns="http://www.w3.org/2000/svg"
 width="32.000000pt" height="32.000000pt" viewBox="0 0 32.000000 32.000000"
 preserveAspectRatio="xMidYMid meet">
<metadata>
Created by potrace 1.16, written by Peter Selinger 2001-2019
</metadata>
<g transform="translate(0.000000,32.000000) scale(0.100000,-0.100000)"
fill="#000000" stroke="none">
<path fill="#000000" stroke="none" d="M0 160 l0 -160 160 0 160 0 0 160 0
160 -160 0 -160 0 0 -160z"/>
<path fill="#ffffff" stroke="none" d="M83 245 c4 -7 20 -16 36 -20 16 -3 32
-13 35 -21 3 -8 17 -14 31 -14 23 0 30 -11 27 -41 -1 -3 10 -4 23 -2 16 4 27
-1 34 -16 13 -23 10 -73 -3 -69 -5 2 -12 -7 -17 -19 -5 -13 -13 -23 -19 -23
-6 0 -8 6 -4 12 5 10 4 10 -6 1 -11 -10 -17 -10 -30 2 -11 10 -20 11 -30 4
-12 -9 -11 -10 5 -4 15 5 17 3 8 -6 -13 -13 -33 -4 -33 17 0 18 -19 18 -26 0
-4 -11 -12 -13 -31 -5 -13 5 -29 7 -33 4 -12 -8 -30 29 -29 57 1 13 1 28 -1
33 -1 6 -2 39 -1 74 l1 63 28 -7 c15 -3 30 -13 35 -20z"/>
<path fill="#ffffff" stroke="none" d="M228 246 c-7 -8 -15 -12 -17 -11 -5 6
10 25 20 25 5 0 4 -6 -3 -14z"/>
<path fill="#ffffff" stroke="none" d="M294 224 c3 -8 2 -12 -4 -9 -6 3 -10
10 -10 16 0 14 7 11 14 -7z"/>
<path fill="#ffffff" stroke="none" d="M300 95 c0 -14 -4 -25 -9 -25 -4 0 -6
11 -3 25 2 14 6 25 8 25 2 0 4 -11 4 -25z"/>
<path fill="#000000" stroke="none" d="M73 215 c0 -8 4 -12 9 -9 5 3 6 10 3
15 -9 13 -12 11 -12 -6z"/>
<path fill="#000000" stroke="none" d="M144 160 c0 -16 3 -27 6 -25 8 5 6 42
-1 50 -3 2 -5 -8 -5 -25z"/>
<path fill="#000000" stroke="none" d="M217 113 c-6 -10 -2 -51 4 -58 3 -2 5
11 5 30 -1 36 -2 40 -9 28z"/>
<path fill="#000000" stroke="none" d="M145 91 c-3 -5 -2 -12 3 -15 5 -3 9 1
9 9 0 17 -3 19 -12 6z"/>
<path fill="#000000" stroke="none" d="M76 67 c3 -10 9 -15 12 -12 3 3 0 11
-7 18 -10 9 -11 8 -5 -6z"/>
</g>
</svg>
