<?xml version="1.0" standalone="no"?>
<!DOCTYPE svg PUBLIC "-//W3C//DTD SVG 20010904//EN"
 "http://www.w3.org/TR/2001/REC-SVG-20010904/DTD/svg10.dtd">
<svg version="1.0" xmlns="http://www.w3.org/2000/svg"
 width="32.000000pt" height="32.000000pt" viewBox="0 0 32.000000 32.000000"
 preserveAspectRatio="xMidYMid meet">
<metadata>
Created by potrace 1.16, written by Peter Selinger 2001-2019
</metadata>
<g transform="translate(0.000000,32.000000) scale(0.100000,-0.100000)"
fill="#000000" stroke="none">
<path fill="#000000" stroke="none" d="M284 283 c-12 -27 -13 -42 -5 -60 8
-17 8 -23 -2 -23 -9 0 -8 -3 1 -9 8 -4 13 -11 12 -15 -1 -4 1 -12 4 -19 3 -6
5 4 4 24 -1 20 3 43 10 51 9 11 8 19 -5 38 -9 13 -12 20 -6 17 6 -4 13 2 16
13 9 34 -13 22 -29 -17z"/>
<path fill="#000000" stroke="none" d="M114 287 c3 -14 2 -29 -4 -32 -19 -12
-10 -25 18 -24 l27 1 -25 7 c-17 5 -21 9 -12 15 6 4 12 4 12 -1 0 -4 5 0 11
10 9 15 13 16 27 6 14 -11 15 -11 4 1 -10 12 -8 17 10 28 18 11 19 12 3 6 -26
-8 -36 -8 -59 1 -17 7 -18 5 -12 -18z"/>
<path fill="#ffffff" stroke="none" d="M144 279 c-6 -11 -24 -2 -24 11 0 5 7
7 15 4 8 -4 12 -10 9 -15z"/>
<path fill="#000000" stroke="none" d="M16 254 c-10 -26 -7 -111 3 -94 6 8 8
17 5 21 -2 4 2 10 8 12 7 3 8 6 2 6 -6 1 -9 16 -8 36 3 38 0 44 -10 19z"/>
<path fill="#000000" stroke="none" d="M171 243 c-1 -6 -8 -19 -17 -27 -8 -9
-11 -16 -6 -16 15 0 34 28 29 42 -4 9 -6 9 -6 1z"/>
<path fill="#000000" stroke="none" d="M313 185 c0 -22 2 -30 4 -17 2 12 2 30
0 40 -3 9 -5 -1 -4 -23z"/>
<path fill="#000000" stroke="none" d="M73 193 c9 -2 25 -2 35 0 9 3 1 5 -18
5 -19 0 -27 -2 -17 -5z"/>
<path fill="#000000" stroke="none" d="M80 159 c0 -5 5 -7 10 -4 6 3 10 8 10
11 0 2 -4 4 -10 4 -5 0 -10 -5 -10 -11z"/>
<path fill="#000000" stroke="none" d="M210 129 c0 -7 -12 -10 -30 -7 -16 3
-30 1 -30 -4 0 -4 16 -8 35 -8 24 0 35 5 35 15 0 8 -2 15 -5 15 -3 0 -5 -5 -5
-11z"/>
<path fill="#000000" stroke="none" d="M160 79 c0 -5 5 -7 10 -4 6 3 10 8 10
11 0 2 -4 4 -10 4 -5 0 -10 -5 -10 -11z"/>
<path fill="#000000" stroke="none" d="M300 71 c0 -12 5 -21 10 -21 6 0 10 6
10 14 0 8 -4 18 -10 21 -5 3 -10 -3 -10 -14z"/>
<path fill="#000000" stroke="none" d="M130 51 c0 -6 -17 -12 -37 -14 l-38 -4
43 -1 c31 -2 42 2 42 13 0 8 -2 15 -5 15 -3 0 -5 -4 -5 -9z"/>
<path fill="#000000" stroke="none" d="M159 37 c5 -5 30 -7 57 -5 l49 3 -57 5
c-31 3 -53 1 -49 -3z"/>
</g>
</svg>
