<?xml version="1.0" standalone="no"?>
<!DOCTYPE svg PUBLIC "-//W3C//DTD SVG 20010904//EN"
 "http://www.w3.org/TR/2001/REC-SVG-20010904/DTD/svg10.dtd">
<svg version="1.0" xmlns="http://www.w3.org/2000/svg"
 width="32.000000pt" height="32.000000pt" viewBox="0 0 32.000000 32.000000"
 preserveAspectRatio="xMidYMid meet">
<metadata>
Created by potrace 1.16, written by Peter Selinger 2001-2019
</metadata>
<g transform="translate(0.000000,32.000000) scale(0.100000,-0.100000)"
fill="#000000" stroke="none">
<path fill="#000000" stroke="none" d="M12 302 c-9 -6 -11 -27 -6 -83 4 -41 9
-68 11 -62 3 7 4 15 3 19 -1 4 4 11 12 15 9 6 10 9 1 9 -7 0 -10 7 -7 15 4 8
1 22 -6 30 -6 8 -10 20 -7 27 4 8 6 7 6 -4 1 -24 40 -44 55 -27 8 9 7 11 -9 5
-15 -4 -13 -1 8 17 15 12 27 28 27 35 0 14 -67 16 -88 4z"/>
<path fill="#000000" stroke="none" d="M114 287 c3 -14 2 -29 -4 -32 -15 -9
-12 -25 5 -25 8 0 19 -9 26 -21 l11 -21 22 21 c12 12 28 21 35 21 11 0 11 3 1
15 -11 13 -15 13 -23 3 -6 -9 -7 -7 -2 7 19 54 19 59 -1 50 -24 -9 -34 -9 -58
0 -17 7 -18 5 -12 -18z"/>
<path fill="#ffffff" stroke="none" d="M176 285 c-10 -7 -15 -19 -11 -24 9
-16 -4 -53 -17 -45 -6 4 -5 10 3 15 12 7 12 9 0 9 -8 0 -11 7 -8 20 3 11 1 18
-3 15 -5 -3 -12 0 -16 6 -5 8 -1 10 13 7 12 -3 27 -2 34 3 22 14 26 10 5 -6z"/>
<path fill="#000000" stroke="none" d="M293 296 c4 -10 1 -13 -7 -10 -23 9
-28 -13 -12 -51 11 -26 12 -35 3 -35 -8 0 -8 -3 1 -9 8 -4 13 -11 12 -15 -1
-4 1 -12 4 -19 3 -6 5 4 5 23 -1 19 0 37 1 40 3 9 9 34 16 63 5 21 3 27 -11
27 -11 0 -15 -5 -12 -14z"/>
<path fill="#000000" stroke="none" d="M185 192 c-12 -9 -15 -53 -3 -46 13 8
39 -16 31 -29 -3 -6 -1 -7 5 -3 20 12 13 -5 -10 -23 -15 -13 -18 -20 -9 -25 7
-4 10 -2 9 5 -2 6 3 14 11 17 9 3 11 0 6 -9 -5 -8 -4 -10 0 -6 5 4 10 15 11
24 2 9 6 28 9 42 6 24 5 24 -7 8 -13 -18 -15 -17 -33 3 -15 17 -16 23 -6 29 7
5 9 11 4 14 -5 3 -13 3 -18 -1z"/>
<path fill="#000000" stroke="none" d="M95 180 c-4 -6 -11 -7 -17 -4 -7 4 -8
2 -4 -5 5 -8 12 -9 19 -3 7 5 19 12 27 15 12 4 12 6 -2 6 -9 1 -20 -4 -23 -9z"/>
<path fill="#000000" stroke="none" d="M145 160 c-3 -6 1 -7 9 -4 18 7 21 14
7 14 -6 0 -13 -4 -16 -10z"/>
<path fill="#000000" stroke="none" d="M312 145 c0 -16 2 -22 5 -12 2 9 2 23
0 30 -3 6 -5 -1 -5 -18z"/>
<path fill="#000000" stroke="none" d="M145 103 c-13 -31 -12 -51 2 -46 7 3
13 18 13 34 0 33 -5 37 -15 12z"/>
<path fill="#000000" stroke="none" d="M300 70 c0 -22 5 -40 10 -40 6 0 10 18
10 40 0 22 -4 40 -10 40 -5 0 -10 -18 -10 -40z"/>
<path fill="#000000" stroke="none" d="M3 65 c0 -22 2 -30 4 -17 2 12 2 30 0
40 -3 9 -5 -1 -4 -23z"/>
<path fill="#000000" stroke="none" d="M61 74 c0 -11 3 -14 6 -6 3 7 2 16 -1
19 -3 4 -6 -2 -5 -13z"/>
<path fill="#000000" stroke="none" d="M273 64 c0 -17 2 -22 7 -13 5 6 6 18 3
26 -8 19 -10 16 -10 -13z"/>
<path fill="#000000" stroke="none" d="M113 23 c20 -2 54 -2 75 0 20 2 3 4
-38 4 -41 0 -58 -2 -37 -4z"/>
</g>
</svg>
