<?xml version="1.0" standalone="no"?>
<!DOCTYPE svg PUBLIC "-//W3C//DTD SVG 20010904//EN"
 "http://www.w3.org/TR/2001/REC-SVG-20010904/DTD/svg10.dtd">
<svg version="1.0" xmlns="http://www.w3.org/2000/svg"
 width="32.000000pt" height="32.000000pt" viewBox="0 0 32.000000 32.000000"
 preserveAspectRatio="xMidYMid meet">
<metadata>
Created by potrace 1.16, written by Peter Selinger 2001-2019
</metadata>
<g transform="translate(0.000000,32.000000) scale(0.100000,-0.100000)"
fill="#000000" stroke="none">
<path fill="#000000" stroke="none" d="M48 308 c-8 -5 -4 -6 13 -2 42 9 45
-14 8 -48 -26 -23 -27 -25 -5 -9 31 23 51 28 40 9 -4 -7 -3 -8 4 -4 7 4 9 18
6 32 -7 28 3 30 35 7 14 -9 21 -12 18 -6 -4 6 0 14 9 17 24 9 27 8 21 -16 -4
-13 0 -29 10 -40 14 -16 14 -18 -10 -27 -14 -5 -28 -15 -32 -21 -5 -8 -12 -7
-23 3 -59 52 -96 16 -100 -95 l-3 -78 111 0 c107 0 110 1 110 23 1 12 2 49 4
81 3 56 1 62 -32 98 -40 44 -24 52 19 9 16 -16 29 -26 29 -21 0 13 -49 84 -63
91 -18 10 -153 8 -169 -3z"/>
<path fill="#ffffff" stroke="none" d="M190 135 c11 -13 7 -15 -30 -15 -37 0
-41 2 -30 15 16 19 44 19 60 0z"/>
<path fill="#000000" stroke="none" d="M146 263 c-11 -11 -6 -23 9 -23 8 0 15
4 15 9 0 13 -16 22 -24 14z"/>
<path fill="#000000" stroke="none" d="M5 161 c3 -35 5 -86 5 -112 l0 -49 148
0 149 0 6 107 c7 98 5 124 -8 112 -2 -3 -8 -51 -11 -106 l-7 -101 -133 -1
-134 -1 -1 57 c0 32 -5 81 -9 108 -9 48 -9 48 -5 -14z"/>
</g>
</svg>
