<?xml version="1.0" standalone="no"?>
<!DOCTYPE svg PUBLIC "-//W3C//DTD SVG 20010904//EN"
 "http://www.w3.org/TR/2001/REC-SVG-20010904/DTD/svg10.dtd">
<svg version="1.0" xmlns="http://www.w3.org/2000/svg"
 width="32.000000pt" height="32.000000pt" viewBox="0 0 32.000000 32.000000"
 preserveAspectRatio="xMidYMid meet">
<metadata>
Created by potrace 1.16, written by Peter Selinger 2001-2019
</metadata>
<g transform="translate(0.000000,32.000000) scale(0.100000,-0.100000)"
fill="#000000" stroke="none">
<path fill="#000000" stroke="none" d="M114 287 c3 -14 2 -29 -4 -32 -19 -12
-10 -25 18 -24 l27 1 -25 7 c-17 5 -21 9 -12 15 6 4 12 4 12 -1 0 -4 5 0 11
10 9 15 13 16 27 6 14 -11 15 -11 4 1 -10 12 -8 17 10 28 18 11 19 12 3 6 -26
-8 -36 -8 -59 1 -17 7 -18 5 -12 -18z"/>
<path fill="#ffffff" stroke="none" d="M144 279 c-6 -11 -24 -2 -24 11 0 5 7
7 15 4 8 -4 12 -10 9 -15z"/>
<path fill="#000000" stroke="none" d="M276 265 c-4 -14 -2 -34 4 -45 8 -15 8
-20 -2 -20 -10 0 -10 -2 0 -9 8 -4 13 -11 12 -15 -1 -4 1 -12 4 -19 3 -6 5 4
5 23 -1 19 0 37 1 40 9 26 7 50 -4 59 -11 9 -15 6 -20 -14z"/>
<path fill="#000000" stroke="none" d="M10 198 c0 -36 3 -48 9 -38 6 8 8 17 5
21 -2 4 2 10 8 12 9 4 9 6 1 6 -6 1 -9 9 -6 20 3 10 0 22 -6 25 -7 5 -11 -10
-11 -46z"/>
<path fill="#000000" stroke="none" d="M171 243 c-1 -6 -8 -19 -17 -27 -8 -9
-11 -16 -6 -16 15 0 34 28 29 42 -4 9 -6 9 -6 1z"/>
<path fill="#000000" stroke="none" d="M110 145 c0 -45 0 -45 35 -45 34 0 35
2 36 38 1 23 3 28 6 15 4 -23 33 -33 33 -12 0 5 -4 7 -10 4 -5 -3 -10 3 -10
14 0 12 -7 21 -15 21 -10 0 -15 -11 -15 -35 0 -31 -3 -35 -25 -35 -23 0 -25 4
-23 38 1 36 1 36 5 5 6 -45 33 -45 32 0 l-1 32 -8 -30 -8 -30 -1 33 c-1 21 -6
32 -16 32 -11 0 -15 -12 -15 -45z"/>
<path fill="#000000" stroke="none" d="M72 150 c0 -14 2 -19 5 -12 2 6 2 18 0
25 -3 6 -5 1 -5 -13z"/>
<path fill="#000000" stroke="none" d="M93 135 c0 -22 2 -30 4 -17 2 12 2 30
0 40 -3 9 -5 -1 -4 -23z"/>
<path fill="#000000" stroke="none" d="M190 103 c0 -11 3 -14 8 -7 4 6 14 14
22 17 10 4 8 6 -7 6 -16 1 -23 -5 -23 -16z"/>
<path fill="#000000" stroke="none" d="M133 83 c20 -2 35 -8 32 -13 -3 -4 4
-6 16 -3 32 9 1 23 -46 21 l-40 -1 38 -4z"/>
<path fill="#000000" stroke="none" d="M126 63 c5 -5 12 -12 16 -18 4 -6 8 -2
8 8 0 9 -7 17 -17 17 -9 0 -12 -3 -7 -7z"/>
</g>
</svg>
