<?xml version="1.0" standalone="no"?>
<!DOCTYPE svg PUBLIC "-//W3C//DTD SVG 20010904//EN"
 "http://www.w3.org/TR/2001/REC-SVG-20010904/DTD/svg10.dtd">
<svg version="1.0" xmlns="http://www.w3.org/2000/svg"
 width="32.000000pt" height="32.000000pt" viewBox="0 0 32.000000 32.000000"
 preserveAspectRatio="xMidYMid meet">
<metadata>
Created by potrace 1.16, written by Peter Selinger 2001-2019
</metadata>
<g transform="translate(0.000000,32.000000) scale(0.100000,-0.100000)"
fill="#000000" stroke="none">
<path fill="#000000" stroke="none" d="M19 309 c14 -5 37 -7 53 -4 37 9 37
-12 0 -42 -20 -18 -22 -21 -7 -17 16 6 18 4 8 -6 -10 -11 -15 -11 -28 0 -8 7
-18 10 -22 6 -3 -3 -1 -6 6 -6 9 0 9 -5 1 -20 -8 -15 -8 -20 2 -20 10 0 10 -2
0 -9 -8 -4 -13 -11 -13 -15 1 -3 0 -12 -1 -18 0 -7 -4 10 -8 37 -5 37 -7 19
-8 -72 l-2 -123 160 0 160 0 0 125 c0 77 -4 125 -10 125 -5 0 -9 -3 -9 -7 1
-5 0 -12 -1 -18 -1 -5 -2 -26 -1 -45 0 -19 -2 -29 -5 -23 -3 7 -5 15 -4 19 1
4 -4 11 -12 15 -10 7 -10 9 0 9 10 0 10 5 2 20 -6 12 -8 31 -5 43 5 17 4 19
-4 7 -12 -18 -24 -9 -16 12 4 9 21 20 38 26 25 8 -6 10 -133 10 -117 1 -158
-2 -141 -9z"/>
<path fill="#ffffff" stroke="none" d="M155 298 c6 0 19 3 29 7 16 7 18 5 13
-15 -3 -13 -2 -32 4 -42 6 -12 6 -18 -1 -18 -5 0 -10 8 -11 18 0 13 -2 14 -6
2 -11 -35 -27 -59 -35 -54 -4 3 -8 10 -8 15 0 6 5 7 10 4 6 -3 10 -1 10 4 0 6
-13 11 -30 11 -29 0 -40 13 -20 25 6 3 7 18 4 32 -6 23 -5 25 12 18 10 -4 24
-7 29 -7z"/>
<path fill="#ffffff" stroke="none" d="M283 77 c3 -8 2 -20 -3 -26 -5 -9 -7
-4 -7 13 0 29 2 32 10 13z"/>
<path fill="#ffffff" stroke="none" d="M188 23 c-21 -2 -55 -2 -75 0 -21 2 -4
4 37 4 41 0 58 -2 38 -4z"/>
<path fill="#000000" stroke="none" d="M123 288 c2 -7 9 -12 15 -11 6 2 9 -4
6 -12 -4 -8 -10 -13 -14 -10 -5 3 -11 1 -14 -4 -3 -5 8 -11 25 -13 28 -4 30
-2 26 18 -2 13 0 22 6 21 5 -1 12 4 14 12 4 10 1 11 -13 3 -13 -7 -25 -7 -37
0 -15 8 -18 7 -14 -4z"/>
</g>
</svg>
