<?xml version="1.0" standalone="no"?>
<!DOCTYPE svg PUBLIC "-//W3C//DTD SVG 20010904//EN"
 "http://www.w3.org/TR/2001/REC-SVG-20010904/DTD/svg10.dtd">
<svg version="1.0" xmlns="http://www.w3.org/2000/svg"
 width="32.000000pt" height="32.000000pt" viewBox="0 0 32.000000 32.000000"
 preserveAspectRatio="xMidYMid meet">
<metadata>
Created by potrace 1.16, written by Peter Selinger 2001-2019
</metadata>
<g transform="translate(0.000000,32.000000) scale(0.100000,-0.100000)"
fill="#000000" stroke="none">
<path fill="#000000" stroke="none" d="M114 286 c4 -16 0 -28 -12 -37 -15 -13
-16 -12 -4 3 12 14 11 16 -8 11 -11 -3 -29 -17 -40 -31 -20 -24 -20 -24 -20
-3 0 14 -5 21 -12 18 -7 -2 -12 -13 -11 -23 1 -10 5 -63 9 -116 l7 -97 135 2
134 2 -5 57 c-3 32 -1 61 4 64 5 3 9 22 9 43 0 21 3 41 7 45 12 12 9 40 -6 55
-12 13 -15 13 -27 -3 -7 -10 -10 -25 -7 -34 6 -15 4 -15 -14 1 -11 9 -23 14
-26 11 -6 -6 5 -22 53 -81 13 -16 13 -26 0 -18 -6 4 -10 -18 -10 -57 l0 -64
-40 1 c-22 0 -40 3 -40 8 0 4 9 7 21 7 11 0 27 7 35 15 14 13 14 15 0 15 -9 0
-16 -4 -16 -10 0 -5 -11 -10 -24 -10 -15 0 -26 -7 -29 -17 -4 -14 -5 -12 -6 5
-1 17 4 22 24 22 14 0 25 4 25 9 0 5 10 12 23 14 19 4 18 4 -5 6 -16 0 -28 -3
-28 -8 0 -6 -24 -7 -54 -4 l-55 6 -4 -34 -4 -34 -1 33 c-2 26 -6 32 -24 31
-17 -1 -19 -2 -5 -6 25 -7 23 -53 -3 -53 -18 0 -20 7 -20 66 0 41 -4 63 -10
59 -19 -11 -10 10 9 25 11 7 18 17 15 21 -7 13 33 30 53 22 10 -3 25 -12 35
-20 11 -10 18 -11 23 -3 4 6 18 16 32 21 24 9 24 11 10 27 -10 11 -14 26 -10
42 5 19 3 22 -11 17 -10 -4 -20 -7 -22 -7 -3 0 -2 -5 2 -12 4 -6 -3 -4 -17 5
-32 23 -42 21 -35 -7z"/>
<path fill="#ffffff" stroke="none" d="M170 249 c0 -5 -7 -9 -15 -9 -15 0 -20
12 -9 23 8 8 24 -1 24 -14z"/>
<path fill="#ffffff" stroke="none" d="M161 53 c-5 -26 -6 -26 -9 -5 -4 26
-29 30 -35 5 -4 -14 -5 -12 -6 5 -1 18 4 22 28 22 26 0 28 -3 22 -27z"/>
<path fill="#000000" stroke="none" d="M205 260 c3 -5 8 -10 11 -10 2 0 4 5 4
10 0 6 -5 10 -11 10 -5 0 -7 -4 -4 -10z"/>
<path fill="#000000" stroke="none" d="M88 203 c6 -2 18 -2 25 0 6 3 1 5 -13
5 -14 0 -19 -2 -12 -5z"/>
<path fill="#000000" stroke="none" d="M185 200 c-3 -5 -1 -10 4 -10 6 0 11 5
11 10 0 6 -2 10 -4 10 -3 0 -8 -4 -11 -10z"/>
<path fill="#000000" stroke="none" d="M209 173 c-1 -24 -3 -29 -6 -15 -7 37
-33 27 -33 -13 0 -31 -3 -35 -25 -35 -23 0 -25 4 -23 38 1 36 1 36 5 5 3 -20
10 -33 19 -33 9 0 14 10 13 33 l-1 32 -8 -30 -8 -30 -1 33 c-1 30 -3 32 -38
31 -24 -1 -29 -3 -15 -6 18 -4 22 -11 22 -44 0 -38 1 -39 35 -39 34 0 35 2 36
38 1 23 3 28 6 15 8 -41 33 -27 33 17 0 51 -10 53 -11 3z"/>
<path fill="#000000" stroke="none" d="M232 163 c-2 -36 -5 -43 -22 -43 -12 0
-20 -7 -20 -17 0 -11 3 -14 8 -7 4 6 20 14 36 18 17 4 25 10 19 14 -6 4 -13
23 -16 42 -4 33 -4 33 -5 -7z"/>
<path fill="#000000" stroke="none" d="M70 151 c0 -11 -6 -22 -12 -24 -8 -3
-7 -6 4 -6 10 -1 18 8 21 22 4 19 4 19 6 -5 1 -20 -4 -28 -21 -31 -20 -4 -19
-4 5 -6 25 -1 27 2 27 34 0 24 -5 35 -15 35 -8 0 -15 -9 -15 -19z"/>
</g>
</svg>
