<?xml version="1.0" standalone="no"?>
<!DOCTYPE svg PUBLIC "-//W3C//DTD SVG 20010904//EN"
 "http://www.w3.org/TR/2001/REC-SVG-20010904/DTD/svg10.dtd">
<svg version="1.0" xmlns="http://www.w3.org/2000/svg"
 width="32.000000pt" height="32.000000pt" viewBox="0 0 32.000000 32.000000"
 preserveAspectRatio="xMidYMid meet">
<metadata>
Created by potrace 1.16, written by Peter Selinger 2001-2019
</metadata>
<g transform="translate(0.000000,32.000000) scale(0.100000,-0.100000)"
fill="#000000" stroke="none">
<path fill="#000000" stroke="none" d="M0 280 c0 -31 3 -38 15 -34 11 4 15 0
15 -16 0 -23 0 -23 20 2 11 14 29 28 40 31 19 5 20 3 8 -11 -12 -15 -11 -16 4
-3 12 9 16 21 12 37 -7 28 3 30 35 7 14 -9 21 -12 18 -6 -4 6 0 14 9 17 24 9
27 8 21 -16 -4 -13 0 -29 10 -40 14 -16 14 -18 -10 -27 -14 -5 -28 -15 -32
-21 -5 -8 -12 -7 -23 3 -10 8 -25 17 -35 20 -20 8 -60 -9 -53 -22 3 -4 -4 -14
-15 -21 -19 -15 -28 -36 -9 -25 6 4 10 -18 10 -59 0 -59 2 -66 20 -66 26 0 28
46 3 53 -14 4 -13 5 4 6 17 1 23 -6 26 -31 l4 -33 1 34 2 34 55 -6 c31 -3 55
-2 55 4 0 5 12 8 28 8 23 -2 24 -2 5 -6 -13 -2 -23 -9 -23 -14 0 -5 -11 -9
-25 -9 -20 0 -25 -5 -24 -22 1 -17 2 -19 6 -5 3 10 14 17 29 17 13 0 24 5 24
10 0 6 7 10 16 10 14 0 14 -2 0 -15 -8 -8 -24 -15 -35 -15 -12 0 -21 -3 -21
-7 0 -5 18 -8 40 -8 l40 -1 0 64 c0 39 4 61 10 57 13 -8 13 2 0 18 -48 59 -59
75 -53 81 3 3 15 -2 26 -11 18 -16 20 -16 14 -1 -7 20 21 60 29 41 9 -22 24
-14 24 12 0 16 -6 25 -16 25 -9 0 -12 -5 -8 -12 6 -10 4 -10 -7 0 -9 8 -54 12
-151 12 l-138 0 0 -40z"/>
<path fill="#ffffff" stroke="none" d="M220 260 c0 -5 -2 -10 -4 -10 -3 0 -8
5 -11 10 -3 6 -1 10 4 10 6 0 11 -4 11 -10z"/>
<path fill="#ffffff" stroke="none" d="M113 203 c-7 -2 -19 -2 -25 0 -7 3 -2
5 12 5 14 0 19 -2 13 -5z"/>
<path fill="#ffffff" stroke="none" d="M200 200 c0 -5 -5 -10 -11 -10 -5 0 -7
5 -4 10 3 6 8 10 11 10 2 0 4 -4 4 -10z"/>
<path fill="#ffffff" stroke="none" d="M220 170 c0 -44 -25 -58 -33 -17 -3 13
-5 8 -6 -15 -1 -36 -2 -38 -36 -38 -34 0 -35 1 -35 39 0 33 -4 40 -22 44 -14
3 -9 5 15 6 35 1 37 -1 38 -31 l1 -33 8 30 8 30 1 -32 c1 -23 -4 -33 -13 -33
-9 0 -16 13 -19 33 -4 31 -4 31 -5 -5 -2 -34 0 -38 23 -38 22 0 25 4 25 35 0
40 26 50 33 13 3 -14 5 -9 6 15 1 50 11 48 11 -3z"/>
<path fill="#ffffff" stroke="none" d="M253 128 c6 -4 -2 -10 -19 -14 -16 -4
-32 -12 -36 -18 -5 -7 -8 -4 -8 7 0 10 8 17 20 17 17 0 20 7 22 43 1 40 1 40
5 7 3 -19 10 -38 16 -42z"/>
<path fill="#ffffff" stroke="none" d="M100 135 c0 -32 -2 -35 -27 -34 -24 2
-25 2 -5 6 17 3 22 11 21 31 -2 24 -2 24 -6 5 -3 -14 -11 -23 -21 -22 -11 0
-12 3 -4 6 6 2 12 13 12 24 0 10 7 19 15 19 10 0 15 -11 15 -35z"/>
<path fill="#000000" stroke="none" d="M146 263 c-11 -11 -6 -23 9 -23 8 0 15
4 15 9 0 13 -16 22 -24 14z"/>
<path fill="#000000" stroke="none" d="M307 223 c-4 -3 -7 -23 -7 -44 0 -21
-4 -40 -9 -43 -5 -3 -7 -32 -4 -64 l5 -57 -136 -2 -136 -2 -1 57 c0 31 -4 80
-9 107 -6 41 -8 31 -9 -62 l-1 -113 160 0 160 0 0 115 c0 63 -1 115 -3 115 -2
0 -7 -3 -10 -7z"/>
<path fill="#000000" stroke="none" d="M111 58 c1 -17 2 -19 6 -5 6 25 31 21
35 -5 3 -21 4 -21 9 5 6 24 4 27 -22 27 -24 0 -29 -4 -28 -22z"/>
</g>
</svg>
