<?xml version="1.0" standalone="no"?>
<!DOCTYPE svg PUBLIC "-//W3C//DTD SVG 20010904//EN"
 "http://www.w3.org/TR/2001/REC-SVG-20010904/DTD/svg10.dtd">
<svg version="1.0" xmlns="http://www.w3.org/2000/svg"
 width="32.000000pt" height="32.000000pt" viewBox="0 0 32.000000 32.000000"
 preserveAspectRatio="xMidYMid meet">
<metadata>
Created by potrace 1.16, written by Peter Selinger 2001-2019
</metadata>
<g transform="translate(0.000000,32.000000) scale(0.100000,-0.100000)"
fill="#000000" stroke="none">
<path fill="#000000" stroke="none" d="M0 225 c0 -57 4 -95 10 -95 6 0 10 31
10 73 0 43 5 78 12 85 16 16 26 15 30 -2 2 -11 12 -9 48 9 l45 24 -77 1 -78 0
0 -95z"/>
<path fill="#000000" stroke="none" d="M210 295 c36 -18 46 -20 48 -9 4 17 14
18 30 2 7 -7 12 -42 12 -85 0 -42 4 -73 10 -73 6 0 10 38 10 95 l0 95 -77 0
-78 -1 45 -24z"/>
<path fill="#000000" stroke="none" d="M0 45 c0 -22 4 -34 10 -30 13 8 13 52
0 60 -6 4 -10 -8 -10 -30z"/>
<path fill="#000000" stroke="none" d="M307 73 c-11 -10 -8 -51 3 -58 6 -4 10
8 10 29 0 37 -2 41 -13 29z"/>
<path fill="#000000" stroke="none" d="M70 26 c0 -8 4 -17 9 -20 10 -7 23 19
14 28 -11 11 -23 6 -23 -8z"/>
<path fill="#000000" stroke="none" d="M227 34 c-9 -9 4 -35 14 -28 5 3 9 12
9 20 0 14 -12 19 -23 8z"/>
</g>
</svg>
