<?xml version="1.0" standalone="no"?>
<!DOCTYPE svg PUBLIC "-//W3C//DTD SVG 20010904//EN"
 "http://www.w3.org/TR/2001/REC-SVG-20010904/DTD/svg10.dtd">
<svg version="1.0" xmlns="http://www.w3.org/2000/svg"
 width="32.000000pt" height="32.000000pt" viewBox="0 0 32.000000 32.000000"
 preserveAspectRatio="xMidYMid meet">
<metadata>
Created by potrace 1.16, written by Peter Selinger 2001-2019
</metadata>
<g transform="translate(0.000000,32.000000) scale(0.100000,-0.100000)"
fill="#000000" stroke="none">
<path fill="#000000" stroke="none" d="M0 293 c0 -25 1 -25 19 -9 18 17 19 16
17 -21 -1 -21 -5 -44 -10 -51 -4 -7 -2 -12 6 -12 10 0 10 -2 0 -9 -8 -4 -13
-11 -12 -15 1 -4 -1 -12 -4 -19 -3 -6 -5 5 -4 25 2 20 -1 40 -5 44 -4 4 -7
-45 -7 -109 l0 -117 160 0 160 0 -1 160 0 160 -160 0 -159 0 0 -27z"/>
<path fill="#ffffff" stroke="none" d="M155 298 c6 0 19 3 29 7 20 9 20 4 1
-50 -5 -14 -4 -16 2 -7 8 10 12 10 23 -3 10 -12 10 -15 -1 -15 -7 0 -23 -9
-35 -21 l-22 -21 -11 21 c-7 12 -18 21 -26 21 -17 0 -20 16 -5 25 6 3 7 18 4
32 -6 23 -5 25 12 18 10 -4 24 -7 29 -7z"/>
<path fill="#ffffff" stroke="none" d="M290 258 c0 -17 -23 -3 -26 16 -2 14 0
15 12 5 8 -6 14 -16 14 -21z"/>
<path fill="#ffffff" stroke="none" d="M300 205 c-4 -33 -8 -54 -9 -47 0 6 -1
15 0 18 0 4 -5 11 -13 15 -10 7 -10 9 0 9 7 0 10 5 6 11 -5 9 15 64 22 56 1
-1 -1 -29 -6 -62z"/>
<path fill="#ffffff" stroke="none" d="M75 240 c-3 -5 -11 -10 -16 -10 -6 0
-7 5 -4 10 3 6 11 10 16 10 6 0 7 -4 4 -10z"/>
<path fill="#ffffff" stroke="none" d="M168 173 c-9 -10 -14 -29 -12 -43 3
-22 2 -23 -7 -7 -9 15 -13 16 -27 5 -15 -11 -14 -10 1 8 9 11 14 24 10 29 -5
4 -3 5 3 2 7 -4 17 0 24 8 7 8 15 15 18 15 3 0 -2 -8 -10 -17z"/>
<path fill="#ffffff" stroke="none" d="M224 99 c-3 -5 -10 -7 -15 -3 -5 3 -7
10 -3 15 3 5 10 7 15 3 5 -3 7 -10 3 -15z"/>
<path fill="#ffffff" stroke="none" d="M283 77 c3 -8 2 -20 -3 -26 -5 -9 -7
-4 -7 13 0 29 2 32 10 13z"/>
<path fill="#ffffff" stroke="none" d="M188 23 c-21 -2 -55 -2 -75 0 -21 2 -4
4 37 4 41 0 58 -2 38 -4z"/>
<path fill="#000000" stroke="none" d="M171 291 c-7 -5 -22 -6 -34 -3 -14 3
-18 1 -13 -7 4 -6 11 -9 16 -6 4 3 6 -4 3 -15 -3 -13 0 -20 8 -20 12 0 12 -2
0 -9 -8 -5 -9 -11 -3 -15 13 -8 26 29 17 45 -4 5 1 17 11 24 21 16 17 20 -5 6z"/>
</g>
</svg>
