<?xml version="1.0" standalone="no"?>
<!DOCTYPE svg PUBLIC "-//W3C//DTD SVG 20010904//EN"
 "http://www.w3.org/TR/2001/REC-SVG-20010904/DTD/svg10.dtd">
<svg version="1.0" xmlns="http://www.w3.org/2000/svg"
 width="32.000000pt" height="32.000000pt" viewBox="0 0 32.000000 32.000000"
 preserveAspectRatio="xMidYMid meet">
<metadata>
Created by potrace 1.16, written by Peter Selinger 2001-2019
</metadata>
<g transform="translate(0.000000,32.000000) scale(0.100000,-0.100000)"
fill="#000000" stroke="none">
<path fill="#000000" stroke="none" d="M12 302 c-9 -6 -11 -27 -6 -83 4 -41 9
-68 11 -62 3 7 4 15 3 19 -1 4 4 11 12 15 9 6 10 9 1 9 -7 0 -10 7 -7 15 4 8
1 22 -6 30 -6 8 -10 20 -7 27 4 8 6 7 6 -4 2 -28 19 -30 51 -7 42 31 39 49 -7
49 -21 0 -44 -4 -51 -8z"/>
<path fill="#000000" stroke="none" d="M114 287 c3 -14 2 -29 -4 -32 -19 -12
-10 -25 18 -24 l27 1 -25 7 c-17 5 -21 9 -12 15 6 4 12 4 12 -1 0 -4 5 0 11
10 9 15 13 16 27 6 14 -11 15 -11 4 1 -10 12 -8 17 10 28 18 11 19 12 3 6 -26
-8 -36 -8 -59 1 -17 7 -18 5 -12 -18z"/>
<path fill="#ffffff" stroke="none" d="M144 279 c-6 -11 -24 -2 -24 11 0 5 7
7 15 4 8 -4 12 -10 9 -15z"/>
<path fill="#000000" stroke="none" d="M293 296 c4 -10 1 -13 -7 -10 -23 9
-28 -13 -12 -51 11 -26 12 -35 3 -35 -8 0 -8 -3 1 -9 8 -4 13 -11 12 -15 -1
-4 1 -12 4 -19 3 -6 5 4 5 23 -1 19 0 37 1 40 3 9 9 34 16 63 5 21 3 27 -11
27 -11 0 -15 -5 -12 -14z"/>
<path fill="#000000" stroke="none" d="M171 243 c-1 -6 -8 -19 -17 -27 -8 -9
-11 -16 -6 -16 15 0 34 28 29 42 -4 9 -6 9 -6 1z"/>
<path fill="#000000" stroke="none" d="M89 173 c-12 -16 -12 -17 1 -7 8 6 22
14 30 17 13 5 12 6 -1 6 -9 1 -23 -7 -30 -16z"/>
<path fill="#000000" stroke="none" d="M180 174 c0 -9 12 -25 26 -36 14 -12
23 -27 20 -35 -4 -8 -1 -11 5 -8 6 4 8 13 5 20 -2 7 1 19 7 26 10 11 9 11 -4
1 -13 -10 -19 -8 -35 9 -16 17 -16 22 -4 29 13 8 12 10 -2 10 -10 0 -18 -7
-18 -16z"/>
<path fill="#000000" stroke="none" d="M300 71 c0 -23 5 -41 10 -41 6 0 10 15
10 34 0 19 -4 38 -10 41 -6 4 -10 -10 -10 -34z"/>
<path fill="#000000" stroke="none" d="M3 65 c0 -22 2 -30 4 -17 2 12 2 30 0
40 -3 9 -5 -1 -4 -23z"/>
<path fill="#000000" stroke="none" d="M143 94 c3 -4 1 -16 -5 -28 -10 -19
-10 -20 5 -7 19 16 23 41 5 41 -6 0 -8 -3 -5 -6z"/>
<path fill="#000000" stroke="none" d="M61 74 c0 -11 3 -14 6 -6 3 7 2 16 -1
19 -3 4 -6 -2 -5 -13z"/>
</g>
</svg>
