<?xml version="1.0" standalone="no"?>
<!DOCTYPE svg PUBLIC "-//W3C//DTD SVG 20010904//EN"
 "http://www.w3.org/TR/2001/REC-SVG-20010904/DTD/svg10.dtd">
<svg version="1.0" xmlns="http://www.w3.org/2000/svg"
 width="32.000000pt" height="32.000000pt" viewBox="0 0 32.000000 32.000000"
 preserveAspectRatio="xMidYMid meet">
<metadata>
Created by potrace 1.16, written by Peter Selinger 2001-2019
</metadata>
<g transform="translate(0.000000,32.000000) scale(0.100000,-0.100000)"
fill="#000000" stroke="none">
<path fill="#000000" stroke="none" d="M20 301 c0 -7 -4 -10 -9 -6 -10 6 -10
-2 4 -182 l8 -102 135 2 134 2 -5 57 c-3 31 -1 60 3 65 13 14 20 132 8 139 -7
5 -9 1 -5 -9 3 -10 2 -17 -3 -17 -6 0 -10 -10 -10 -22 -1 -22 -1 -23 -13 -3
-6 11 -12 23 -13 28 -1 4 -2 10 -3 13 0 4 -8 1 -16 -6 -15 -13 -15 -14 45 -87
13 -16 13 -26 0 -18 -6 4 -11 -19 -11 -62 -1 -37 -4 -58 -6 -45 -4 18 -11 22
-43 22 -28 0 -40 -5 -43 -18 -4 -13 -5 -12 -6 5 -1 19 5 22 42 26 l42 4 -47 1
c-46 2 -47 1 -51 -31 l-4 -32 -1 33 c-2 27 -4 31 -16 20 -8 -7 -12 -16 -10
-20 2 -4 0 -10 -6 -13 -6 -4 -10 -3 -9 2 3 19 -2 25 -14 15 -8 -7 -18 -7 -27
-1 -13 8 -13 10 0 19 13 8 13 10 -2 10 -11 0 -18 -10 -21 -32 -2 -18 -5 -2 -5
35 -1 43 -6 66 -12 62 -15 -9 -12 5 5 22 10 9 20 12 28 6 17 -13 78 -1 69 13
-10 17 -49 26 -57 14 -3 -5 -12 -10 -18 -10 -7 0 -3 7 7 15 21 16 51 12 78
-12 11 -10 18 -11 23 -3 4 6 18 16 32 21 24 9 24 11 10 27 -10 11 -14 26 -10
42 5 19 3 22 -11 17 -10 -4 -20 -7 -22 -7 -3 0 -2 -5 2 -12 4 -6 -3 -4 -17 5
-32 23 -42 21 -35 -7 4 -16 0 -28 -12 -37 -15 -13 -16 -12 -3 4 12 16 12 17
-5 11 -10 -4 -26 -13 -34 -20 -13 -11 -15 -8 -17 18 -2 31 -23 66 -23 39z"/>
<path fill="#ffffff" stroke="none" d="M170 249 c0 -5 -7 -9 -15 -9 -15 0 -20
12 -9 23 8 8 24 -1 24 -14z"/>
<path fill="#000000" stroke="none" d="M214 282 c3 -5 1 -12 -6 -14 -8 -3 -9
-6 -1 -11 6 -4 13 0 17 8 3 8 0 17 -6 21 -6 4 -8 3 -4 -4z"/>
<path fill="#000000" stroke="none" d="M198 213 c-34 -9 -26 -28 13 -29 22 0
39 3 39 6 0 8 -23 30 -29 29 -4 -1 -13 -3 -23 -6z"/>
<path fill="#000000" stroke="none" d="M52 135 c-2 -19 2 -35 8 -35 5 0 10 16
10 35 0 46 -15 46 -18 0z"/>
<path fill="#000000" stroke="none" d="M80 138 l0 -33 75 -2 75 -2 -1 37 c0
20 -3 31 -6 25 -3 -8 -25 -13 -58 -13 -41 0 -56 -4 -64 -17 -9 -16 -10 -16
-11 4 0 15 7 23 23 26 19 4 18 4 -5 6 -25 1 -28 -2 -28 -31z"/>
<path fill="#000000" stroke="none" d="M240 143 c0 -14 3 -23 7 -19 10 10 11
46 1 46 -4 0 -8 -12 -8 -27z"/>
</g>
</svg>
