<?xml version="1.0" standalone="no"?>
<!DOCTYPE svg PUBLIC "-//W3C//DTD SVG 20010904//EN"
 "http://www.w3.org/TR/2001/REC-SVG-20010904/DTD/svg10.dtd">
<svg version="1.0" xmlns="http://www.w3.org/2000/svg"
 width="32.000000pt" height="32.000000pt" viewBox="0 0 32.000000 32.000000"
 preserveAspectRatio="xMidYMid meet">
<metadata>
Created by potrace 1.16, written by Peter Selinger 2001-2019
</metadata>
<g transform="translate(0.000000,32.000000) scale(0.100000,-0.100000)"
fill="#000000" stroke="none">
<path fill="#000000" stroke="none" d="M48 299 c-10 -5 -18 -21 -18 -33 0 -27
28 -43 44 -25 8 9 6 10 -9 5 -15 -4 -13 -1 8 17 15 12 27 28 27 35 0 15 -28
15 -52 1z"/>
<path fill="#000000" stroke="none" d="M114 287 c3 -14 2 -29 -4 -32 -15 -9
-12 -25 5 -25 8 0 19 -9 26 -21 l11 -21 22 21 c12 12 28 21 35 21 11 0 11 3 1
15 -11 13 -15 13 -23 3 -6 -9 -7 -7 -2 7 19 54 19 59 -1 50 -24 -9 -34 -9 -58
0 -17 7 -18 5 -12 -18z"/>
<path fill="#ffffff" stroke="none" d="M176 285 c-10 -7 -15 -19 -11 -24 9
-16 -4 -53 -17 -45 -6 4 -5 10 3 15 12 7 12 9 0 9 -8 0 -11 7 -8 20 3 11 1 18
-3 15 -5 -3 -12 0 -16 6 -5 8 -1 10 13 7 12 -3 27 -2 34 3 22 14 26 10 5 -6z"/>
<path fill="#000000" stroke="none" d="M303 269 c-4 -16 -8 -17 -14 -7 -5 8
-7 -2 -6 -24 2 -22 -1 -38 -7 -38 -6 0 -5 -4 2 -9 8 -4 13 -11 12 -15 -1 -4 1
-12 3 -19 3 -6 7 11 8 38 2 47 3 46 9 -20 l6 -70 2 93 c2 88 -4 115 -15 71z"/>
<path fill="#000000" stroke="none" d="M11 210 c-1 -43 2 -60 8 -50 6 8 7 18
5 22 -3 4 1 8 8 8 10 0 10 2 -1 9 -7 5 -11 13 -7 19 3 6 2 21 -3 34 -8 18 -10
9 -10 -42z"/>
<path fill="#000000" stroke="none" d="M67 184 c-4 -4 -7 -17 -7 -28 1 -19 1
-20 11 -3 11 19 8 43 -4 31z"/>
<path fill="#000000" stroke="none" d="M85 133 c-5 -14 -3 -15 6 -6 6 6 19 9
28 6 14 -4 14 -3 1 6 -21 15 -27 14 -35 -6z"/>
<path fill="#000000" stroke="none" d="M160 130 c0 -5 5 -10 11 -10 5 0 7 5 4
10 -3 6 -8 10 -11 10 -2 0 -4 -4 -4 -10z"/>
<path fill="#000000" stroke="none" d="M176 109 c-11 -11 -15 -19 -10 -19 6 0
15 5 21 11 8 8 13 8 17 0 10 -16 33 -13 40 4 3 9 0 15 -10 15 -9 0 -12 -5 -8
-12 4 -7 -1 -6 -12 3 -18 15 -20 15 -38 -2z"/>
<path fill="#000000" stroke="none" d="M3 65 c0 -22 2 -30 4 -17 2 12 2 30 0
40 -3 9 -5 -1 -4 -23z"/>
<path fill="#000000" stroke="none" d="M300 65 c0 -19 5 -35 10 -35 6 0 10 16
10 35 0 19 -4 35 -10 35 -5 0 -10 -16 -10 -35z"/>
<path fill="#000000" stroke="none" d="M273 64 c0 -17 2 -22 7 -13 5 6 6 18 3
26 -8 19 -10 16 -10 -13z"/>
<path fill="#000000" stroke="none" d="M100 71 c0 -6 4 -12 8 -15 5 -3 9 1 9
9 0 8 -4 15 -9 15 -4 0 -8 -4 -8 -9z"/>
<path fill="#000000" stroke="none" d="M145 70 c3 -5 -1 -11 -7 -13 -8 -3 -6
-6 5 -6 9 -1 17 5 17 12 1 7 6 5 14 -6 8 -10 17 -14 20 -9 3 6 -2 13 -12 17
-27 12 -43 14 -37 5z"/>
<path fill="#000000" stroke="none" d="M220 50 c0 -5 5 -10 11 -10 5 0 7 5 4
10 -3 6 -8 10 -11 10 -2 0 -4 -4 -4 -10z"/>
<path fill="#000000" stroke="none" d="M113 23 c20 -2 54 -2 75 0 20 2 3 4
-38 4 -41 0 -58 -2 -37 -4z"/>
</g>
</svg>
