<?xml version="1.0" standalone="no"?>
<!DOCTYPE svg PUBLIC "-//W3C//DTD SVG 20010904//EN"
 "http://www.w3.org/TR/2001/REC-SVG-20010904/DTD/svg10.dtd">
<svg version="1.0" xmlns="http://www.w3.org/2000/svg"
 width="32.000000pt" height="32.000000pt" viewBox="0 0 32.000000 32.000000"
 preserveAspectRatio="xMidYMid meet">
<metadata>
Created by potrace 1.16, written by Peter Selinger 2001-2019
</metadata>
<g transform="translate(0.000000,32.000000) scale(0.100000,-0.100000)"
fill="#000000" stroke="none">
<path fill="#000000" stroke="none" d="M156 302 c-2 -4 4 -8 14 -8 10 0 16 4
14 8 -3 4 -9 8 -14 8 -5 0 -11 -4 -14 -8z"/>
<path fill="#000000" stroke="none" d="M89 223 c-13 -16 -12 -17 4 -4 9 7 17
15 17 17 0 8 -8 3 -21 -13z"/>
<path fill="#000000" stroke="none" d="M270 151 c0 -6 4 -13 10 -16 6 -3 7 1
4 9 -7 18 -14 21 -14 7z"/>
<path fill="#000000" stroke="none" d="M52 70 c0 -14 2 -19 5 -12 2 6 2 18 0
25 -3 6 -5 1 -5 -13z"/>
<path fill="#000000" stroke="none" d="M230 56 c0 -19 -6 -36 -12 -39 -7 -3
-3 -4 10 -4 19 1 22 7 22 39 0 21 -4 38 -10 38 -5 0 -10 -15 -10 -34z"/>
<path fill="#000000" stroke="none" d="M290 45 c0 -14 5 -25 10 -25 6 0 10 11
10 25 0 14 -4 25 -10 25 -5 0 -10 -11 -10 -25z"/>
<path fill="#000000" stroke="none" d="M20 40 c0 -11 5 -20 10 -20 6 0 10 9
10 20 0 11 -4 20 -10 20 -5 0 -10 -9 -10 -20z"/>
<path fill="#000000" stroke="none" d="M260 36 c0 -8 5 -18 10 -21 6 -3 10 3
10 14 0 12 -4 21 -10 21 -5 0 -10 -6 -10 -14z"/>
<path fill="#000000" stroke="none" d="M50 28 c0 -16 10 -18 78 -16 l77 2 -70
3 c-39 2 -73 9 -77 16 -5 8 -8 6 -8 -5z"/>
</g>
</svg>
