<?xml version="1.0" standalone="no"?>
<!DOCTYPE svg PUBLIC "-//W3C//DTD SVG 20010904//EN"
 "http://www.w3.org/TR/2001/REC-SVG-20010904/DTD/svg10.dtd">
<svg version="1.0" xmlns="http://www.w3.org/2000/svg"
 width="32.000000pt" height="32.000000pt" viewBox="0 0 32.000000 32.000000"
 preserveAspectRatio="xMidYMid meet">
<metadata>
Created by potrace 1.16, written by Peter Selinger 2001-2019
</metadata>
<g transform="translate(0.000000,32.000000) scale(0.100000,-0.100000)"
fill="#000000" stroke="none">
<path fill="#000000" stroke="none" d="M138 273 c7 -3 16 -2 19 1 4 3 -2 6
-13 5 -11 0 -14 -3 -6 -6z"/>
<path fill="#000000" stroke="none" d="M254 195 c0 -49 1 -71 3 -48 2 23 2 64
0 90 -2 26 -3 8 -3 -42z"/>
<path fill="#000000" stroke="none" d="M273 200 c0 -36 2 -50 4 -32 2 17 2 47
0 65 -2 17 -4 3 -4 -33z"/>
<path fill="#000000" stroke="none" d="M60 225 c-7 -9 -11 -17 -9 -20 3 -2 10
5 17 15 14 24 10 26 -8 5z"/>
<path fill="#000000" stroke="none" d="M42 170 c0 -14 2 -19 5 -12 2 6 2 18 0
25 -3 6 -5 1 -5 -13z"/>
<path fill="#000000" stroke="none" d="M135 160 c3 -5 8 -10 11 -10 2 0 4 5 4
10 0 6 -5 10 -11 10 -5 0 -7 -4 -4 -10z"/>
</g>
</svg>
