<?xml version="1.0" standalone="no"?>
<!DOCTYPE svg PUBLIC "-//W3C//DTD SVG 20010904//EN"
 "http://www.w3.org/TR/2001/REC-SVG-20010904/DTD/svg10.dtd">
<svg version="1.0" xmlns="http://www.w3.org/2000/svg"
 width="32.000000pt" height="32.000000pt" viewBox="0 0 32.000000 32.000000"
 preserveAspectRatio="xMidYMid meet">
<metadata>
Created by potrace 1.16, written by Peter Selinger 2001-2019
</metadata>
<g transform="translate(0.000000,32.000000) scale(0.100000,-0.100000)"
fill="#000000" stroke="none">
<path fill="#000000" stroke="none" d="M38 313 c6 -2 18 -2 25 0 6 3 1 5 -13
5 -14 0 -19 -2 -12 -5z"/>
<path fill="#000000" stroke="none" d="M130 280 c0 -38 2 -40 30 -40 28 0 30
2 30 40 0 38 -2 40 -30 40 -28 0 -30 -2 -30 -40z"/>
<path fill="#ffffff" stroke="none" d="M180 303 c0 -3 -8 -15 -17 -26 -17 -19
-17 -20 0 -14 9 4 17 2 17 -3 0 -6 -9 -10 -20 -10 -25 0 -25 8 -2 33 16 19 16
20 0 14 -10 -4 -18 -2 -18 3 0 6 9 10 20 10 11 0 20 -3 20 -7z"/>
<path fill="#000000" stroke="none" d="M258 313 c6 -2 18 -2 25 0 6 3 1 5 -13
5 -14 0 -19 -2 -12 -5z"/>
<path fill="#000000" stroke="none" d="M86 282 l-27 -29 27 1 c22 2 28 8 31
29 5 34 3 34 -31 -1z"/>
<path fill="#000000" stroke="none" d="M203 283 c3 -21 9 -27 31 -29 l27 -1
-27 29 c-34 35 -36 35 -31 1z"/>
<path fill="#000000" stroke="none" d="M48 293 c7 -3 16 -2 19 1 4 3 -2 6 -13
5 -11 0 -14 -3 -6 -6z"/>
<path fill="#000000" stroke="none" d="M258 293 c7 -3 16 -2 19 1 4 3 -2 6
-13 5 -11 0 -14 -3 -6 -6z"/>
<path fill="#000000" stroke="none" d="M30 262 c0 -22 45 -68 54 -54 3 5 -3
17 -14 27 -11 10 -20 24 -20 32 0 7 -4 13 -10 13 -5 0 -10 -8 -10 -18z"/>
<path fill="#000000" stroke="none" d="M270 267 c0 -8 -9 -22 -20 -32 -11 -10
-17 -22 -14 -27 9 -14 54 32 54 54 0 10 -4 18 -10 18 -5 0 -10 -6 -10 -13z"/>
<path fill="#000000" stroke="none" d="M7 233 c-13 -12 -7 -40 10 -54 16 -13
17 -12 5 3 -15 19 -7 42 11 31 7 -4 6 0 -2 10 -15 19 -15 19 -24 10z"/>
<path fill="#000000" stroke="none" d="M292 228 c-7 -7 -12 -19 -12 -27 0 -8
-3 -11 -7 -8 -3 4 -12 2 -20 -4 -9 -8 -13 -38 -13 -100 l0 -89 40 0 c39 0 40
1 40 33 -1 32 -35 86 -47 73 -3 -3 1 -14 10 -24 23 -25 21 -42 -3 -42 -19 0
-21 5 -18 68 3 59 5 67 23 67 11 1 19 7 17 14 -1 7 2 19 8 26 14 17 -3 28 -18
13z"/>
<path fill="#ffffff" stroke="none" d="M293 23 c-7 -2 -19 -2 -25 0 -7 3 -2 5
12 5 14 0 19 -2 13 -5z"/>
<path fill="#000000" stroke="none" d="M46 191 c-4 -5 -2 -12 4 -16 5 -3 10
-35 10 -71 0 -57 -2 -64 -20 -64 -24 0 -26 17 -3 42 9 10 13 21 10 24 -12 13
-46 -41 -47 -73 0 -32 1 -33 40 -33 l40 0 0 89 c0 64 -4 92 -14 100 -9 8 -16
8 -20 2z"/>
<path fill="#ffffff" stroke="none" d="M53 23 c-7 -2 -19 -2 -25 0 -7 3 -2 5
12 5 14 0 19 -2 13 -5z"/>
<path fill="#000000" stroke="none" d="M0 159 c0 -5 11 -9 25 -9 32 0 32 6 0
12 -14 3 -25 1 -25 -3z"/>
<path fill="#000000" stroke="none" d="M290 160 l-25 -8 28 -1 c15 -1 27 4 27
9 0 6 -1 10 -2 9 -2 -1 -14 -5 -28 -9z"/>
<path fill="#000000" stroke="none" d="M18 123 c7 -3 16 -2 19 1 4 3 -2 6 -13
5 -11 0 -14 -3 -6 -6z"/>
<path fill="#000000" stroke="none" d="M288 123 c7 -3 16 -2 19 1 4 3 -2 6
-13 5 -11 0 -14 -3 -6 -6z"/>
</g>
</svg>
