<?xml version="1.0" standalone="no"?>
<!DOCTYPE svg PUBLIC "-//W3C//DTD SVG 20010904//EN"
 "http://www.w3.org/TR/2001/REC-SVG-20010904/DTD/svg10.dtd">
<svg version="1.0" xmlns="http://www.w3.org/2000/svg"
 width="32.000000pt" height="32.000000pt" viewBox="0 0 32.000000 32.000000"
 preserveAspectRatio="xMidYMid meet">
<metadata>
Created by potrace 1.16, written by Peter Selinger 2001-2019
</metadata>
<g transform="translate(0.000000,32.000000) scale(0.100000,-0.100000)"
fill="#000000" stroke="none">
<path fill="#000000" stroke="none" d="M0 160 l0 -160 160 0 160 0 0 160 0
160 -160 0 -160 0 0 -160z"/>
<path fill="#ffffff" stroke="none" d="M213 271 c48 -53 66 -91 72 -148 l5
-48 -13 55 c-14 61 -42 113 -82 150 l-27 25 -39 -44 c-38 -43 -54 -76 -24 -51
10 9 15 9 15 1 0 -6 -5 -11 -11 -11 -5 0 -7 -6 -3 -12 6 -10 3 -9 -8 0 -15 12
-18 9 -27 -25 -6 -21 -11 -62 -11 -90 l0 -53 79 0 c44 0 82 4 85 8 3 5 6 29 7
55 2 25 6 44 11 41 5 -3 8 -11 7 -17 -1 -7 -1 -27 0 -46 1 -33 2 -34 16 -15 8
10 15 15 15 9 0 -5 7 1 15 15 14 25 14 24 15 -17 l0 -41 -145 -1 -146 -2 3 40
c1 22 4 38 7 35 6 -6 7 -8 11 -46 2 -13 6 11 10 52 4 42 15 90 24 108 19 36
84 112 96 112 4 0 24 -18 43 -39z"/>
<path fill="#ffffff" stroke="none" d="M170 210 c0 -5 -2 -10 -4 -10 -3 0 -8
5 -11 10 -3 6 -1 10 4 10 6 0 11 -4 11 -10z"/>
<path fill="#ffffff" stroke="none" d="M230 200 c0 -5 -2 -10 -4 -10 -3 0 -8
5 -11 10 -3 6 -1 10 4 10 6 0 11 -4 11 -10z"/>
<path fill="#ffffff" stroke="none" d="M200 155 c-7 -9 -15 -13 -17 -11 -6 6
20 36 26 30 2 -2 -2 -10 -9 -19z"/>
</g>
</svg>
