<?xml version="1.0" standalone="no"?>
<!DOCTYPE svg PUBLIC "-//W3C//DTD SVG 20010904//EN"
 "http://www.w3.org/TR/2001/REC-SVG-20010904/DTD/svg10.dtd">
<svg version="1.0" xmlns="http://www.w3.org/2000/svg"
 width="32.000000pt" height="32.000000pt" viewBox="0 0 32.000000 32.000000"
 preserveAspectRatio="xMidYMid meet">
<metadata>
Created by potrace 1.16, written by Peter Selinger 2001-2019
</metadata>
<g transform="translate(0.000000,32.000000) scale(0.100000,-0.100000)"
fill="#000000" stroke="none">
<path fill="#000000" stroke="none" d="M0 160 l0 -160 114 0 c82 0 116 4 119
13 4 10 6 10 6 0 1 -8 16 -13 41 -13 l40 0 0 160 0 160 -160 0 -160 0 0 -160z"/>
<path fill="#ffffff" stroke="none" d="M83 241 c4 -1 7 -9 6 -18 0 -11 -3 -13
-6 -5 -2 6 -11 12 -18 12 -8 0 -16 4 -19 9 -4 5 2 8 11 6 10 -2 21 -4 26 -4z"/>
<path fill="#ffffff" stroke="none" d="M80 106 c0 -3 -7 -3 -15 0 -8 4 -15 13
-15 21 0 12 2 12 15 -1 8 -8 15 -17 15 -20z"/>
<path fill="#ffffff" stroke="none" d="M253 60 c10 -13 10 -13 -5 -1 -11 8
-17 25 -17 45 l2 31 4 -30 c3 -16 10 -37 16 -45z"/>
<path fill="#ffffff" stroke="none" d="M275 79 c11 -16 1 -19 -13 -3 -7 8 -8
14 -3 14 5 0 13 -5 16 -11z"/>
</g>
</svg>
