<?xml version="1.0" standalone="no"?>
<!DOCTYPE svg PUBLIC "-//W3C//DTD SVG 20010904//EN"
 "http://www.w3.org/TR/2001/REC-SVG-20010904/DTD/svg10.dtd">
<svg version="1.0" xmlns="http://www.w3.org/2000/svg"
 width="32.000000pt" height="32.000000pt" viewBox="0 0 32.000000 32.000000"
 preserveAspectRatio="xMidYMid meet">
<metadata>
Created by potrace 1.16, written by Peter Selinger 2001-2019
</metadata>
<g transform="translate(0.000000,32.000000) scale(0.100000,-0.100000)"
fill="#000000" stroke="none">
<path fill="#000000" stroke="none" d="M114 287 c3 -14 2 -29 -4 -32 -19 -12
-10 -25 18 -24 l27 1 -25 7 c-17 5 -21 9 -12 15 6 4 12 4 12 -1 0 -4 5 0 11
10 9 15 13 16 27 6 14 -11 15 -11 4 1 -10 12 -8 17 10 28 18 11 19 12 3 6 -26
-8 -36 -8 -59 1 -17 7 -18 5 -12 -18z"/>
<path fill="#ffffff" stroke="none" d="M144 279 c-6 -11 -24 -2 -24 11 0 5 7
7 15 4 8 -4 12 -10 9 -15z"/>
<path fill="#000000" stroke="none" d="M77 293 c-10 -9 -9 -23 2 -23 5 0 11 7
15 15 5 15 -5 20 -17 8z"/>
<path fill="#000000" stroke="none" d="M9 265 c-2 -16 -1 -50 2 -75 3 -25 7
-39 7 -32 1 6 2 15 1 18 0 4 5 11 13 15 11 7 11 9 -1 9 -7 0 -11 6 -8 13 3 8
2 29 -2 48 l-7 34 -5 -30z"/>
<path fill="#000000" stroke="none" d="M241 274 c0 -11 3 -14 6 -6 3 7 2 16
-1 19 -3 4 -6 -2 -5 -13z"/>
<path fill="#000000" stroke="none" d="M284 258 c3 -10 1 -18 -5 -18 -6 0 -6
-7 1 -19 7 -14 6 -21 -3 -24 -9 -4 -9 -6 1 -6 7 -1 11 -5 8 -9 -2 -4 -1 -14 5
-22 6 -10 9 1 9 35 0 28 -5 57 -11 65 -9 13 -10 12 -5 -2z"/>
<path fill="#000000" stroke="none" d="M171 243 c-1 -6 -8 -19 -17 -27 -8 -9
-11 -16 -6 -16 15 0 34 28 29 42 -4 9 -6 9 -6 1z"/>
<path fill="#000000" stroke="none" d="M140 176 c0 -2 8 -10 18 -17 15 -13 16
-12 3 4 -13 16 -21 21 -21 13z"/>
<path fill="#000000" stroke="none" d="M202 135 c4 -4 3 -14 -3 -21 -7 -8 -7
-14 1 -19 5 -3 10 -5 11 -3 6 27 5 39 -4 45 -7 3 -9 3 -5 -2z"/>
<path fill="#000000" stroke="none" d="M84 88 c-23 -26 -24 -28 -3 -11 20 19
28 20 39 10 12 -10 12 -9 2 4 -6 9 -9 19 -5 22 3 4 4 7 2 7 -3 0 -18 -15 -35
-32z"/>
<path fill="#000000" stroke="none" d="M305 47 c-4 -10 -5 -21 -1 -24 10 -10
18 4 13 24 -4 17 -4 17 -12 0z"/>
</g>
</svg>
