<?xml version="1.0" standalone="no"?>
<!DOCTYPE svg PUBLIC "-//W3C//DTD SVG 20010904//EN"
 "http://www.w3.org/TR/2001/REC-SVG-20010904/DTD/svg10.dtd">
<svg version="1.0" xmlns="http://www.w3.org/2000/svg"
 width="32.000000pt" height="32.000000pt" viewBox="0 0 32.000000 32.000000"
 preserveAspectRatio="xMidYMid meet">
<metadata>
Created by potrace 1.16, written by Peter Selinger 2001-2019
</metadata>
<g transform="translate(0.000000,32.000000) scale(0.100000,-0.100000)"
fill="#000000" stroke="none">
<path fill="#000000" stroke="none" d="M0 300 c0 -8 3 -32 6 -53 5 -30 9 -35
20 -26 8 6 14 22 14 36 0 30 39 49 57 26 6 -8 9 -22 6 -30 -5 -13 -2 -13 15
-4 14 7 19 17 15 32 -3 12 0 25 7 29 7 5 -21 7 -63 7 -61 -2 -77 -5 -77 -17z"/>
<path fill="#000000" stroke="none" d="M201 309 c27 -10 40 -33 32 -57 -3 -6
-10 -9 -15 -6 -6 4 -8 2 -4 -4 11 -18 -16 -26 -29 -9 -12 17 -31 24 -21 8 3
-4 -4 -17 -16 -27 -18 -16 -48 -72 -48 -89 0 -3 7 -5 16 -5 8 0 13 3 11 8 -3
4 9 8 26 9 31 2 57 -11 57 -29 0 -6 -7 -5 -16 3 -13 10 -17 10 -25 -2 -6 -9
-9 -10 -9 -2 0 7 -7 10 -15 7 -8 -4 -13 -10 -10 -14 3 -5 -4 -11 -15 -15 -11
-3 -20 -11 -20 -17 0 -7 5 -6 14 1 10 8 16 9 21 1 3 -5 0 -10 -7 -10 -10 0
-10 -2 1 -9 14 -9 7 -31 -10 -31 -6 0 -8 4 -4 9 3 5 1 12 -5 16 -6 4 -10 -5
-10 -19 0 -21 5 -26 25 -26 14 0 24 3 24 8 -4 25 2 33 22 27 14 -5 25 -2 30 6
7 11 9 11 9 1 0 -7 4 -11 8 -8 13 8 14 90 2 122 -6 16 -21 40 -33 54 -20 22
-20 23 -2 10 11 -8 26 -21 33 -29 10 -13 12 -11 12 11 0 40 17 43 47 9 15 -17
31 -31 35 -31 5 0 8 31 8 69 l0 69 -72 0 c-58 0 -68 -2 -47 -9z"/>
<path fill="#000000" stroke="none" d="M57 190 c6 -23 19 -26 26 -6 6 16 -1
26 -19 26 -7 0 -10 -8 -7 -20z"/>
<path fill="#000000" stroke="none" d="M305 160 c3 -6 3 -19 0 -30 -5 -15 -12
-18 -36 -13 -23 4 -29 2 -29 -12 0 -15 2 -16 16 -4 14 11 19 10 35 -10 14 -17
16 -28 9 -41 -7 -13 -6 -20 3 -23 7 -3 2 -9 -13 -15 l-25 -11 28 0 27 -1 0 85
c0 53 -4 85 -11 85 -5 0 -7 -5 -4 -10z"/>
<path fill="#000000" stroke="none" d="M5 149 c-9 -14 4 -119 14 -119 14 0 33
29 26 40 -5 8 9 13 35 12 3 0 11 6 18 14 7 8 8 14 2 14 -5 0 -10 10 -10 21 0
19 -4 21 -30 16 -17 -4 -30 -2 -30 3 0 13 -17 13 -25 -1z"/>
<path fill="#000000" stroke="none" d="M10 9 c0 -5 5 -7 10 -4 13 8 13 15 0
15 -5 0 -10 -5 -10 -11z"/>
<path fill="#000000" stroke="none" d="M240 9 c0 -5 5 -7 10 -4 6 3 10 8 10
11 0 2 -4 4 -10 4 -5 0 -10 -5 -10 -11z"/>
<path fill="#000000" stroke="none" d="M58 3 c6 -2 18 -2 25 0 6 3 1 5 -13 5
-14 0 -19 -2 -12 -5z"/>
</g>
</svg>
