<?xml version="1.0" standalone="no"?>
<!DOCTYPE svg PUBLIC "-//W3C//DTD SVG 20010904//EN"
 "http://www.w3.org/TR/2001/REC-SVG-20010904/DTD/svg10.dtd">
<svg version="1.0" xmlns="http://www.w3.org/2000/svg"
 width="32.000000pt" height="32.000000pt" viewBox="0 0 32.000000 32.000000"
 preserveAspectRatio="xMidYMid meet">
<metadata>
Created by potrace 1.16, written by Peter Selinger 2001-2019
</metadata>
<g transform="translate(0.000000,32.000000) scale(0.100000,-0.100000)"
fill="#000000" stroke="none">
<path fill="#000000" stroke="none" d="M0 160 l0 -160 160 0 160 0 0 160 0
160 -160 0 -160 0 0 -160z"/>
<path fill="#ffffff" stroke="none" d="M180 295 c7 -9 19 -14 26 -11 8 3 13 0
11 -7 -1 -7 6 -11 15 -11 10 1 15 -2 12 -7 -3 -5 6 -9 20 -9 14 0 28 5 32 12
4 7 3 8 -4 4 -7 -4 -12 -3 -12 3 0 5 5 13 10 16 17 11 23 -25 7 -43 -17 -20
-22 -184 -6 -214 9 -17 2 -18 -131 -18 -132 0 -140 1 -131 18 16 30 12 194 -6
214 -16 18 -10 54 7 43 5 -3 10 -11 10 -16 0 -6 -5 -7 -12 -3 -7 4 -8 3 -4 -4
4 -7 18 -12 32 -12 14 0 23 4 20 9 -3 5 2 8 12 7 9 0 16 4 15 11 -2 7 3 10 11
7 7 -3 19 2 26 11 7 8 16 15 20 15 4 0 13 -7 20 -15z"/>
<path fill="#000000" stroke="none" d="M113 213 c-15 -10 -23 -25 -22 -42 2
-25 2 -26 6 -2 3 13 15 32 26 42 27 22 20 24 -10 2z"/>
<path fill="#000000" stroke="none" d="M216 197 c3 -10 9 -15 12 -12 3 3 0 11
-7 18 -10 9 -11 8 -5 -6z"/>
<path fill="#000000" stroke="none" d="M93 85 c0 -22 2 -30 4 -17 2 12 2 30 0
40 -3 9 -5 -1 -4 -23z"/>
<path fill="#000000" stroke="none" d="M222 80 c0 -19 2 -27 5 -17 2 9 2 25 0
35 -3 9 -5 1 -5 -18z"/>
</g>
</svg>
