<?xml version="1.0" standalone="no"?>
<!DOCTYPE svg PUBLIC "-//W3C//DTD SVG 20010904//EN"
 "http://www.w3.org/TR/2001/REC-SVG-20010904/DTD/svg10.dtd">
<svg version="1.0" xmlns="http://www.w3.org/2000/svg"
 width="32.000000pt" height="32.000000pt" viewBox="0 0 32.000000 32.000000"
 preserveAspectRatio="xMidYMid meet">
<metadata>
Created by potrace 1.16, written by Peter Selinger 2001-2019
</metadata>
<g transform="translate(0.000000,32.000000) scale(0.100000,-0.100000)"
fill="#000000" stroke="none">
<path fill="#000000" stroke="none" d="M115 300 c-3 -5 0 -19 8 -30 13 -18 15
-19 21 -5 3 10 11 13 18 9 7 -4 10 -4 6 1 -4 4 0 14 10 22 16 13 15 14 -3 4
-12 -6 -26 -6 -37 0 -10 6 -19 5 -23 -1z"/>
<path fill="#ffffff" stroke="none" d="M144 279 c-6 -11 -24 -2 -24 11 0 5 7
7 15 4 8 -4 12 -10 9 -15z"/>
<path fill="#000000" stroke="none" d="M10 246 c0 -9 5 -16 10 -16 6 0 10 4
10 9 0 6 -4 13 -10 16 -5 3 -10 -1 -10 -9z"/>
<path fill="#000000" stroke="none" d="M284 239 c-3 -6 -2 -15 3 -20 5 -5 9
-1 10 11 2 22 -2 25 -13 9z"/>
<path fill="#000000" stroke="none" d="M128 233 c7 -3 16 -2 19 1 4 3 -2 6
-13 5 -11 0 -14 -3 -6 -6z"/>
<path fill="#000000" stroke="none" d="M150 210 c-9 -6 -10 -10 -3 -10 6 0 15
5 18 10 8 12 4 12 -15 0z"/>
<path fill="#000000" stroke="none" d="M18 193 c7 -3 16 -2 19 1 4 3 -2 6 -13
5 -11 0 -14 -3 -6 -6z"/>
<path fill="#000000" stroke="none" d="M278 193 c7 -3 16 -2 19 1 4 3 -2 6
-13 5 -11 0 -14 -3 -6 -6z"/>
<path fill="#000000" stroke="none" d="M10 169 c0 -5 5 -7 10 -4 6 3 10 8 10
11 0 2 -4 4 -10 4 -5 0 -10 -5 -10 -11z"/>
<path fill="#000000" stroke="none" d="M141 143 l2 -38 7 35 7 35 2 -32 c1
-22 6 -33 16 -33 9 0 15 9 14 23 0 21 -1 21 -9 2 -7 -18 -8 -17 -11 9 -6 46
-29 45 -28 -1z"/>
<path fill="#000000" stroke="none" d="M285 170 c3 -5 8 -10 11 -10 2 0 4 5 4
10 0 6 -5 10 -11 10 -5 0 -7 -4 -4 -10z"/>
<path fill="#000000" stroke="none" d="M122 128 c-2 -38 -2 -38 36 -36 36 1
36 1 5 5 -27 4 -32 9 -36 36 -4 31 -4 31 -5 -5z"/>
<path fill="#000000" stroke="none" d="M150 70 c0 -5 7 -7 15 -4 8 4 15 8 15
10 0 2 -7 4 -15 4 -8 0 -15 -4 -15 -10z"/>
</g>
</svg>
