<?xml version="1.0" standalone="no"?>
<!DOCTYPE svg PUBLIC "-//W3C//DTD SVG 20010904//EN"
 "http://www.w3.org/TR/2001/REC-SVG-20010904/DTD/svg10.dtd">
<svg version="1.0" xmlns="http://www.w3.org/2000/svg"
 width="32.000000pt" height="32.000000pt" viewBox="0 0 32.000000 32.000000"
 preserveAspectRatio="xMidYMid meet">
<metadata>
Created by potrace 1.16, written by Peter Selinger 2001-2019
</metadata>
<g transform="translate(0.000000,32.000000) scale(0.100000,-0.100000)"
fill="#000000" stroke="none">
<path fill="#000000" stroke="none" d="M0 160 l0 -160 160 0 160 0 0 160 0
160 -160 0 -160 0 0 -160z"/>
<path fill="#ffffff" stroke="none" d="M288 246 c2 -10 -1 -23 -6 -28 -14 -14
-102 1 -102 18 0 8 9 14 20 14 11 0 20 5 20 11 0 19 65 6 68 -15z"/>
<path fill="#ffffff" stroke="none" d="M60 235 c8 1 23 -2 32 -7 10 -5 18 -3
21 5 2 6 8 8 13 4 12 -12 -15 -25 -39 -19 -14 3 -18 1 -13 -6 6 -11 -6 -16
-26 -13 -21 3 -3 -28 35 -61 23 -21 34 -35 24 -32 -11 4 -23 0 -31 -12 -13
-17 -15 -16 -40 9 -32 32 -33 61 -2 92 23 22 23 24 4 28 -12 4 -17 10 -13 17
4 7 10 8 14 3 3 -5 13 -8 21 -8z"/>
<path fill="#ffffff" stroke="none" d="M170 230 c0 -5 -7 -10 -15 -10 -8 0
-15 5 -15 10 0 6 7 10 15 10 8 0 15 -4 15 -10z"/>
<path fill="#ffffff" stroke="none" d="M139 160 c26 -50 26 -50 -2 -42 -24 7
-83 50 -76 56 9 7 44 25 50 26 4 0 16 -18 28 -40z"/>
<path fill="#ffffff" stroke="none" d="M305 162 c-8 -8 -25 10 -19 20 4 6 9 5
15 -3 4 -7 6 -15 4 -17z"/>
<path fill="#ffffff" stroke="none" d="M187 128 c-2 -13 -4 -5 -4 17 -1 22 1
32 4 23 2 -10 2 -28 0 -40z"/>
<path fill="#ffffff" stroke="none" d="M295 116 c-15 -22 -35 -35 -35 -22 0 7
45 55 48 51 2 -2 -4 -15 -13 -29z"/>
<path fill="#ffffff" stroke="none" d="M117 73 c3 -7 -3 -9 -16 -6 -12 3 -21
10 -21 15 0 13 32 6 37 -9z"/>
<path fill="#ffffff" stroke="none" d="M160 70 c0 -5 -7 -10 -15 -10 -8 0 -15
5 -15 10 0 6 7 10 15 10 8 0 15 -4 15 -10z"/>
<path fill="#ffffff" stroke="none" d="M206 65 c4 -8 10 -12 15 -9 5 3 7 9 5
13 -3 4 6 8 19 9 13 1 27 -3 30 -8 4 -6 11 -8 16 -5 5 4 9 -3 9 -14 0 -39 -93
-43 -98 -4 -2 14 -8 20 -18 16 -8 -3 -14 0 -14 6 0 16 30 13 36 -4z"/>
<path fill="#000000" stroke="none" d="M224 249 c-11 -18 7 -30 24 -17 12 10
14 10 8 1 -5 -9 -2 -11 9 -7 9 4 14 12 12 18 -4 13 -45 17 -53 5z"/>
<path fill="#000000" stroke="none" d="M226 51 c-16 -18 -16 -19 16 -16 33 2
48 18 29 30 -6 3 -11 0 -11 -7 0 -10 -2 -10 -8 0 -7 10 -12 8 -26 -7z"/>
</g>
</svg>
