<?xml version="1.0" standalone="no"?>
<!DOCTYPE svg PUBLIC "-//W3C//DTD SVG 20010904//EN"
 "http://www.w3.org/TR/2001/REC-SVG-20010904/DTD/svg10.dtd">
<svg version="1.0" xmlns="http://www.w3.org/2000/svg"
 width="32.000000pt" height="32.000000pt" viewBox="0 0 32.000000 32.000000"
 preserveAspectRatio="xMidYMid meet">
<metadata>
Created by potrace 1.16, written by Peter Selinger 2001-2019
</metadata>
<g transform="translate(0.000000,32.000000) scale(0.100000,-0.100000)"
fill="#000000" stroke="none">
<path fill="#000000" stroke="none" d="M20 289 c0 -5 5 -7 10 -4 6 3 10 8 10
11 0 2 -4 4 -10 4 -5 0 -10 -5 -10 -11z"/>
<path fill="#000000" stroke="none" d="M280 289 c0 -5 5 -7 10 -4 6 3 10 8 10
11 0 2 -4 4 -10 4 -5 0 -10 -5 -10 -11z"/>
<path fill="#000000" stroke="none" d="M98 264 c-35 -18 -58 -62 -58 -108 0
-26 8 -44 31 -68 l31 -33 -26 33 c-31 40 -34 85 -6 130 24 39 62 56 110 48 24
-4 30 -3 20 4 -22 14 -71 11 -102 -6z"/>
<path fill="#000000" stroke="none" d="M252 169 c0 -63 3 -98 6 -79 4 29 6 32
12 15 6 -13 9 11 9 66 1 65 -3 90 -14 99 -13 11 -15 -1 -13 -101z"/>
<path fill="#000000" stroke="none" d="M97 170 c3 -11 7 -20 9 -20 2 0 4 9 4
20 0 11 -4 20 -9 20 -5 0 -7 -9 -4 -20z"/>
<path fill="#000000" stroke="none" d="M126 162 c7 -4 14 -16 17 -27 4 -15 5
-14 6 8 1 20 -4 27 -16 27 -12 0 -14 -3 -7 -8z"/>
<path fill="#000000" stroke="none" d="M166 142 c6 -4 14 -14 17 -22 4 -10 6
-8 6 8 1 15 -5 22 -16 22 -11 0 -14 -3 -7 -8z"/>
<path fill="#000000" stroke="none" d="M215 120 c3 -5 8 -10 11 -10 2 0 4 5 4
10 0 6 -5 10 -11 10 -5 0 -7 -4 -4 -10z"/>
<path fill="#000000" stroke="none" d="M143 43 c9 -2 25 -2 35 0 9 3 1 5 -18
5 -19 0 -27 -2 -17 -5z"/>
<path fill="#000000" stroke="none" d="M20 29 c0 -5 5 -7 10 -4 6 3 10 8 10
11 0 2 -4 4 -10 4 -5 0 -10 -5 -10 -11z"/>
</g>
</svg>
