<?xml version="1.0" standalone="no"?>
<!DOCTYPE svg PUBLIC "-//W3C//DTD SVG 20010904//EN"
 "http://www.w3.org/TR/2001/REC-SVG-20010904/DTD/svg10.dtd">
<svg version="1.0" xmlns="http://www.w3.org/2000/svg"
 width="32.000000pt" height="32.000000pt" viewBox="0 0 32.000000 32.000000"
 preserveAspectRatio="xMidYMid meet">
<metadata>
Created by potrace 1.16, written by Peter Selinger 2001-2019
</metadata>
<g transform="translate(0.000000,32.000000) scale(0.100000,-0.100000)"
fill="#000000" stroke="none">
<path fill="#000000" stroke="none" d="M120 270 c-18 -12 -2 -12 25 0 13 6 15
9 5 9 -8 0 -22 -4 -30 -9z"/>
<path fill="#000000" stroke="none" d="M56 218 c-9 -12 -16 -34 -15 -48 l1
-25 7 26 c5 14 14 35 20 47 15 29 7 28 -13 0z"/>
<path fill="#000000" stroke="none" d="M117 222 c-21 -23 -21 -32 -1 -32 8 0
12 -5 8 -11 -3 -6 -17 -8 -30 -5 -14 4 -24 2 -24 -4 0 -17 52 -11 66 8 15 19
19 62 6 62 -5 0 -16 -8 -25 -18z"/>
<path fill="#ffffff" stroke="none" d="M140 208 c0 -16 -3 -19 -11 -11 -6 6
-8 16 -5 22 11 17 16 13 16 -11z"/>
<path fill="#000000" stroke="none" d="M170 218 c0 -13 8 -32 17 -43 13 -16
15 -17 10 -2 -4 11 -1 17 8 17 20 0 19 13 -3 33 -25 23 -32 21 -32 -5z"/>
<path fill="#ffffff" stroke="none" d="M192 198 c-9 -9 -12 -7 -12 12 0 19 3
21 12 12 9 -9 9 -15 0 -24z"/>
<path fill="#000000" stroke="none" d="M258 223 c7 -3 16 -2 19 1 4 3 -2 6
-13 5 -11 0 -14 -3 -6 -6z"/>
<path fill="#000000" stroke="none" d="M80 143 c0 -5 13 -8 29 -8 16 0 27 3
24 8 -2 4 -15 7 -29 7 -13 0 -24 -3 -24 -7z"/>
<path fill="#000000" stroke="none" d="M258 113 c7 -3 16 -2 19 1 4 3 -2 6
-13 5 -11 0 -14 -3 -6 -6z"/>
</g>
</svg>
