<?xml version="1.0" standalone="no"?>
<!DOCTYPE svg PUBLIC "-//W3C//DTD SVG 20010904//EN"
 "http://www.w3.org/TR/2001/REC-SVG-20010904/DTD/svg10.dtd">
<svg version="1.0" xmlns="http://www.w3.org/2000/svg"
 width="32.000000pt" height="32.000000pt" viewBox="0 0 32.000000 32.000000"
 preserveAspectRatio="xMidYMid meet">
<metadata>
Created by potrace 1.16, written by Peter Selinger 2001-2019
</metadata>
<g transform="translate(0.000000,32.000000) scale(0.100000,-0.100000)"
fill="#000000" stroke="none">
<path fill="#000000" stroke="none" d="M0 160 l0 -160 160 0 160 0 0 160 0
160 -160 0 -160 0 0 -160z"/>
<path fill="#ffffff" stroke="none" d="M170 275 c0 -8 -4 -15 -10 -15 -5 0
-10 7 -10 15 0 8 5 15 10 15 6 0 10 -7 10 -15z"/>
<path fill="#ffffff" stroke="none" d="M185 121 c-9 -28 -41 -27 -49 2 -8 30
22 54 42 33 9 -8 11 -22 7 -35z"/>
<path fill="#ffffff" stroke="none" d="M198 43 c-21 -2 -55 -2 -75 0 -21 2 -4
4 37 4 41 0 58 -2 38 -4z"/>
<path fill="#ffffff" stroke="none" d="M240 20 c0 -6 -33 -10 -80 -10 -47 0
-80 4 -80 10 0 6 33 10 80 10 47 0 80 -4 80 -10z"/>
</g>
</svg>
