<?xml version="1.0" standalone="no"?>
<!DOCTYPE svg PUBLIC "-//W3C//DTD SVG 20010904//EN"
 "http://www.w3.org/TR/2001/REC-SVG-20010904/DTD/svg10.dtd">
<svg version="1.0" xmlns="http://www.w3.org/2000/svg"
 width="32.000000pt" height="32.000000pt" viewBox="0 0 32.000000 32.000000"
 preserveAspectRatio="xMidYMid meet">
<metadata>
Created by potrace 1.16, written by Peter Selinger 2001-2019
</metadata>
<g transform="translate(0.000000,32.000000) scale(0.100000,-0.100000)"
fill="#000000" stroke="none">
<path fill="#000000" stroke="none" d="M0 160 l0 -160 160 0 160 0 0 160 0
160 -160 0 -160 0 0 -160z"/>
<path fill="#ffffff" stroke="none" d="M212 295 c36 -15 63 -58 56 -91 -2 -10
7 -29 20 -43 17 -19 21 -31 16 -51 -8 -30 -8 -48 1 -75 5 -16 2 -21 -13 -21
-12 0 -18 5 -15 13 3 7 0 20 -7 28 -7 8 -9 15 -5 15 5 0 1 8 -8 18 -10 10 -14
21 -11 25 3 3 1 14 -6 24 -10 16 -10 16 -5 -3 5 -19 2 -21 -25 -18 -23 3 -30
0 -31 -14 0 -10 -3 -12 -6 -4 -2 6 -17 12 -32 12 -23 0 -31 -8 -51 -50 -13
-27 -25 -48 -27 -46 -3 2 5 23 17 45 11 23 18 47 14 53 -4 7 -3 8 5 4 6 -4 11
-4 10 1 -1 4 0 11 1 16 3 9 7 24 9 35 1 4 6 0 11 -8 9 -13 12 -13 23 0 6 9 20
14 30 12 25 -5 21 13 -7 26 -33 15 -62 9 -58 -13 2 -9 -1 -14 -7 -11 -6 4 -8
-2 -6 -13 2 -11 -3 -22 -11 -25 -8 -3 -14 -14 -12 -23 2 -10 -1 -18 -7 -18
-14 -1 -52 -24 -39 -25 5 0 16 6 24 12 8 7 5 2 -7 -12 -16 -18 -19 -30 -12
-42 7 -13 5 -16 -8 -14 -30 5 -27 51 6 110 17 29 31 60 31 68 0 8 15 31 33 50
17 20 38 43 45 52 16 20 21 20 64 1z"/>
<path fill="#ffffff" stroke="none" d="M158 188 c-6 -18 -25 -21 -31 -5 -3 8
3 13 15 14 10 1 18 -3 16 -9z"/>
<path fill="#ffffff" stroke="none" d="M177 18 c-3 -8 -6 -5 -6 6 -1 11 2 17
5 13 3 -3 4 -12 1 -19z"/>
<path fill="#ffffff" stroke="none" d="M117 14 c-3 -3 -12 -4 -19 -1 -8 3 -5
6 6 6 11 1 17 -2 13 -5z"/>
<path fill="#000000" stroke="none" d="M175 270 c-3 -5 1 -10 10 -10 9 0 13 5
10 10 -3 6 -8 10 -10 10 -2 0 -7 -4 -10 -10z"/>
<path fill="#000000" stroke="none" d="M161 237 c-11 -14 -5 -27 12 -27 5 0 6
7 3 16 -5 13 -4 14 7 6 8 -7 17 -9 21 -5 4 4 4 0 0 -10 -3 -10 -1 -17 6 -17 6
0 9 -4 5 -9 -3 -5 0 -13 6 -17 8 -4 9 3 4 27 -10 47 -40 64 -64 36z"/>
<path fill="#000000" stroke="none" d="M167 153 c-4 -3 -7 -11 -7 -17 0 -6 5
-5 12 2 6 6 9 14 7 17 -3 3 -9 2 -12 -2z"/>
<path fill="#000000" stroke="none" d="M193 146 c0 -8 6 -12 14 -9 7 3 13 9
13 14 0 5 -6 9 -13 9 -8 0 -14 -6 -14 -14z"/>
<path fill="#000000" stroke="none" d="M125 130 c-3 -5 -2 -10 4 -10 5 0 13 5
16 10 3 6 2 10 -4 10 -5 0 -13 -4 -16 -10z"/>
</g>
</svg>
