<?xml version="1.0" standalone="no"?>
<!DOCTYPE svg PUBLIC "-//W3C//DTD SVG 20010904//EN"
 "http://www.w3.org/TR/2001/REC-SVG-20010904/DTD/svg10.dtd">
<svg version="1.0" xmlns="http://www.w3.org/2000/svg"
 width="32.000000pt" height="32.000000pt" viewBox="0 0 32.000000 32.000000"
 preserveAspectRatio="xMidYMid meet">
<metadata>
Created by potrace 1.16, written by Peter Selinger 2001-2019
</metadata>
<g transform="translate(0.000000,32.000000) scale(0.100000,-0.100000)"
fill="#000000" stroke="none">
<path fill="#000000" stroke="none" d="M0 160 l0 -160 163 2 c97 0 144 4 117
8 l-45 6 35 5 35 4 1 75 c1 41 4 82 8 92 4 9 1 36 -7 60 l-15 43 -59 1 c-32 1
-96 2 -143 3 -59 1 -80 4 -70 11 13 8 12 10 -2 10 -16 0 -18 -14 -18 -160z"/>
<path fill="#ffffff" stroke="none" d="M70 147 c0 -117 0 -118 -22 -115 -22 3
-23 9 -28 108 -3 58 -4 111 -2 117 2 7 15 12 28 11 24 -2 24 -3 24 -121z"/>
<path fill="#ffffff" stroke="none" d="M140 132 c0 -110 -8 -138 -11 -38 -2
45 -4 54 -12 40 -6 -10 -11 -37 -11 -60 -1 -23 -4 -40 -8 -37 -5 2 -8 48 -8
102 0 98 0 99 25 99 l25 0 0 -106z"/>
<path fill="#000000" stroke="none" d="M298 313 c7 -3 16 -2 19 1 4 3 -2 6
-13 5 -11 0 -14 -3 -6 -6z"/>
</g>
</svg>
