<?xml version="1.0" standalone="no"?>
<!DOCTYPE svg PUBLIC "-//W3C//DTD SVG 20010904//EN"
 "http://www.w3.org/TR/2001/REC-SVG-20010904/DTD/svg10.dtd">
<svg version="1.0" xmlns="http://www.w3.org/2000/svg"
 width="32.000000pt" height="32.000000pt" viewBox="0 0 32.000000 32.000000"
 preserveAspectRatio="xMidYMid meet">
<metadata>
Created by potrace 1.16, written by Peter Selinger 2001-2019
</metadata>
<g transform="translate(0.000000,32.000000) scale(0.100000,-0.100000)"
fill="#000000" stroke="none">
<path fill="#000000" stroke="none" d="M0 160 l0 -160 160 0 160 0 0 160 0
160 -160 0 -160 0 0 -160z"/>
<path fill="#ffffff" stroke="none" d="M145 270 c-27 -12 -43 -12 -25 0 8 5
22 9 30 9 10 0 8 -3 -5 -9z"/>
<path fill="#ffffff" stroke="none" d="M69 218 c-6 -12 -15 -33 -20 -47 l-7
-26 -1 25 c-1 14 6 36 15 48 20 28 28 29 13 0z"/>
<path fill="#ffffff" stroke="none" d="M150 218 c0 -13 -7 -31 -14 -40 -14
-19 -66 -25 -66 -8 0 6 10 8 24 4 13 -3 27 -1 30 5 4 6 0 11 -8 11 -20 0 -20
9 1 32 22 24 33 23 33 -4z"/>
<path fill="#ffffff" stroke="none" d="M202 223 c22 -20 23 -33 3 -33 -9 0
-12 -6 -8 -17 5 -15 3 -14 -10 2 -16 20 -23 65 -10 65 3 0 15 -7 25 -17z"/>
<path fill="#ffffff" stroke="none" d="M277 224 c-3 -3 -12 -4 -19 -1 -8 3 -5
6 6 6 11 1 17 -2 13 -5z"/>
<path fill="#ffffff" stroke="none" d="M133 143 c3 -5 -8 -8 -24 -8 -16 0 -29
3 -29 8 0 4 11 7 24 7 14 0 27 -3 29 -7z"/>
<path fill="#ffffff" stroke="none" d="M277 114 c-3 -3 -12 -4 -19 -1 -8 3 -5
6 6 6 11 1 17 -2 13 -5z"/>
<path fill="#000000" stroke="none" d="M124 219 c-3 -6 -1 -16 5 -22 8 -8 11
-5 11 11 0 24 -5 28 -16 11z"/>
<path fill="#000000" stroke="none" d="M180 210 c0 -19 3 -21 12 -12 9 9 9 15
0 24 -9 9 -12 7 -12 -12z"/>
</g>
</svg>
