<?xml version="1.0" standalone="no"?>
<!DOCTYPE svg PUBLIC "-//W3C//DTD SVG 20010904//EN"
 "http://www.w3.org/TR/2001/REC-SVG-20010904/DTD/svg10.dtd">
<svg version="1.0" xmlns="http://www.w3.org/2000/svg"
 width="32.000000pt" height="32.000000pt" viewBox="0 0 32.000000 32.000000"
 preserveAspectRatio="xMidYMid meet">
<metadata>
Created by potrace 1.16, written by Peter Selinger 2001-2019
</metadata>
<g transform="translate(0.000000,32.000000) scale(0.100000,-0.100000)"
fill="#000000" stroke="none">
<path fill="#000000" stroke="none" d="M0 160 l0 -160 160 0 160 0 0 160 0
160 -160 0 -160 0 0 -160z"/>
<path fill="#ffffff" stroke="none" d="M51 191 c0 -3 2 -13 4 -22 2 -12 -3
-15 -16 -12 -22 6 -26 40 -4 40 8 0 15 -3 16 -6z"/>
<path fill="#ffffff" stroke="none" d="M110 111 c0 -34 -10 -20 -16 21 -4 25
-2 29 5 18 6 -8 11 -26 11 -39z"/>
<path fill="#ffffff" stroke="none" d="M50 125 c-7 -9 -8 -15 -1 -19 13 -8 2
-38 -12 -33 -11 3 -19 55 -10 69 2 4 10 5 19 1 11 -4 12 -9 4 -18z"/>
</g>
</svg>
