<?xml version="1.0" standalone="no"?>
<!DOCTYPE svg PUBLIC "-//W3C//DTD SVG 20010904//EN"
 "http://www.w3.org/TR/2001/REC-SVG-20010904/DTD/svg10.dtd">
<svg version="1.0" xmlns="http://www.w3.org/2000/svg"
 width="32.000000pt" height="32.000000pt" viewBox="0 0 32.000000 32.000000"
 preserveAspectRatio="xMidYMid meet">
<metadata>
Created by potrace 1.16, written by Peter Selinger 2001-2019
</metadata>
<g transform="translate(0.000000,32.000000) scale(0.100000,-0.100000)"
fill="#000000" stroke="none">
<path fill="#000000" stroke="none" d="M0 160 l0 -160 160 0 160 0 0 160 0
160 -160 0 -160 0 0 -160z"/>
<path fill="#ffffff" stroke="none" d="M192 284 c17 -14 37 -23 45 -20 8 4 11
1 7 -5 -4 -7 4 -9 22 -7 15 2 30 9 32 17 3 9 0 11 -8 6 -9 -6 -11 -4 -5 4 5 9
10 10 18 2 14 -14 -10 -41 -38 -41 -12 0 -39 11 -59 25 -27 18 -36 21 -36 10
0 -8 -4 -15 -10 -15 -5 0 -10 7 -10 15 0 11 -9 8 -36 -10 -20 -14 -47 -25 -59
-25 -28 0 -52 27 -38 41 8 8 13 7 18 -2 6 -8 4 -10 -5 -4 -8 5 -11 3 -8 -6 2
-8 17 -15 32 -17 18 -2 26 0 22 7 -4 6 -1 9 7 5 8 -3 27 6 43 20 16 14 31 26
33 26 2 0 17 -11 33 -26z"/>
<path fill="#ffffff" stroke="none" d="M54 202 c3 -5 -1 -9 -9 -9 -8 0 -12 4
-9 9 3 4 7 8 9 8 2 0 6 -4 9 -8z"/>
<path fill="#ffffff" stroke="none" d="M284 202 c3 -5 -1 -9 -9 -9 -8 0 -12 4
-9 9 3 4 7 8 9 8 2 0 6 -4 9 -8z"/>
<path fill="#ffffff" stroke="none" d="M195 115 c0 -34 -1 -35 -38 -35 -28 0
-36 3 -31 12 5 7 7 25 6 40 -1 17 4 31 15 37 26 14 48 -11 48 -54z"/>
<path fill="#ffffff" stroke="none" d="M70 144 c0 -8 -19 -13 -24 -6 -3 5 1 9
9 9 8 0 15 -2 15 -3z"/>
<path fill="#ffffff" stroke="none" d="M280 144 c0 -8 -19 -13 -24 -6 -3 5 1
9 9 9 8 0 15 -2 15 -3z"/>
<path fill="#ffffff" stroke="none" d="M275 80 c-13 -14 -14 -20 -5 -20 7 0
11 -3 7 -6 -3 -3 -11 -3 -17 1 -8 5 -6 13 6 26 9 10 19 19 22 19 3 0 -3 -9
-13 -20z"/>
<path fill="#ffffff" stroke="none" d="M55 80 c3 -6 -1 -7 -9 -4 -18 7 -21 14
-7 14 6 0 13 -4 16 -10z"/>
<path fill="#ffffff" stroke="none" d="M226 46 c9 -16 28 -26 47 -29 18 -2
-33 -4 -113 -4 -80 0 -131 2 -113 4 19 3 38 13 47 29 14 20 25 24 66 24 41 0
52 -4 66 -24z"/>
<path fill="#ffffff" stroke="none" d="M63 33 c-7 -2 -19 -2 -25 0 -7 3 -2 5
12 5 14 0 19 -2 13 -5z"/>
<path fill="#ffffff" stroke="none" d="M283 33 c-7 -2 -19 -2 -25 0 -7 3 -2 5
12 5 14 0 19 -2 13 -5z"/>
</g>
</svg>
