<?xml version="1.0" standalone="no"?>
<!DOCTYPE svg PUBLIC "-//W3C//DTD SVG 20010904//EN"
 "http://www.w3.org/TR/2001/REC-SVG-20010904/DTD/svg10.dtd">
<svg version="1.0" xmlns="http://www.w3.org/2000/svg"
 width="32.000000pt" height="32.000000pt" viewBox="0 0 32.000000 32.000000"
 preserveAspectRatio="xMidYMid meet">
<metadata>
Created by potrace 1.16, written by Peter Selinger 2001-2019
</metadata>
<g transform="translate(0.000000,32.000000) scale(0.100000,-0.100000)"
fill="#000000" stroke="none">
<path fill="#000000" stroke="none" d="M20 310 c-11 -7 10 -10 70 -11 219 -3
202 0 214 -39 l10 -35 4 39 c2 21 0 41 -3 45 -11 10 -279 12 -295 1z"/>
<path fill="#000000" stroke="none" d="M19 258 c-5 -75 0 -211 9 -220 5 -5 18
-8 28 -6 17 3 19 15 21 121 l2 117 -30 0 c-16 0 -29 -6 -30 -12z"/>
<path fill="#000000" stroke="none" d="M92 138 c3 -98 4 -103 26 -106 22 -3
22 -2 22 102 l0 106 -25 0 -26 0 3 -102z"/>
<path fill="#000000" stroke="none" d="M161 148 l0 -63 19 40 19 40 -2 -62
c-1 -34 2 -65 6 -69 4 -4 7 34 7 84 0 91 0 92 -25 92 -24 0 -25 -2 -24 -62z"/>
<path fill="#000000" stroke="none" d="M309 183 c-1 -5 -2 -42 -3 -83 l-1 -75
-35 -6 -35 -6 43 -2 42 -1 0 90 c0 50 -2 90 -5 90 -3 0 -6 -3 -6 -7z"/>
</g>
</svg>
