<?xml version="1.0" standalone="no"?>
<!DOCTYPE svg PUBLIC "-//W3C//DTD SVG 20010904//EN"
 "http://www.w3.org/TR/2001/REC-SVG-20010904/DTD/svg10.dtd">
<svg version="1.0" xmlns="http://www.w3.org/2000/svg"
 width="32.000000pt" height="32.000000pt" viewBox="0 0 32.000000 32.000000"
 preserveAspectRatio="xMidYMid meet">
<metadata>
Created by potrace 1.16, written by Peter Selinger 2001-2019
</metadata>
<g transform="translate(0.000000,32.000000) scale(0.100000,-0.100000)"
fill="#000000" stroke="none">
<path fill="#000000" stroke="none" d="M5 181 c0 -77 2 -142 5 -144 12 -12 75
10 78 26 3 13 -4 17 -27 17 -27 0 -31 3 -31 28 0 17 11 37 31 56 31 29 29 41
-6 48 -16 3 -19 10 -17 33 2 17 11 35 19 42 14 11 13 14 -11 23 -15 5 -31 10
-35 10 -4 0 -7 -63 -6 -139z"/>
<path fill="#ffffff" stroke="none" d="M65 190 c3 -5 1 -10 -4 -10 -6 0 -11 5
-11 10 0 6 2 10 4 10 3 0 8 -4 11 -10z"/>
<path fill="#000000" stroke="none" d="M120 295 c0 -14 -4 -25 -10 -25 -5 0
-10 -16 -10 -35 0 -19 5 -35 10 -35 6 0 10 7 10 15 0 8 6 12 14 9 8 -3 17 0
21 6 5 8 11 8 21 -1 12 -10 13 -9 8 4 -3 9 -15 15 -26 14 -16 -1 -22 5 -25 26
-3 22 -1 27 9 21 10 -6 10 -4 -1 9 -18 23 -21 22 -21 -8z"/>
<path fill="#000000" stroke="none" d="M184 313 c3 -4 12 -8 19 -9 7 -2 22 -6
35 -10 25 -7 31 10 6 20 -22 8 -69 8 -60 -1z"/>
<path fill="#000000" stroke="none" d="M282 313 c-10 -4 -8 -11 8 -28 22 -23
22 -23 2 -43 -12 -12 -17 -25 -12 -32 5 -8 -1 -29 -16 -51 -13 -21 -24 -47
-23 -56 0 -15 2 -14 11 4 l11 23 23 -31 c17 -24 21 -36 14 -50 -7 -12 -6 -19
3 -22 7 -3 2 -9 -13 -15 l-25 -11 28 0 27 -1 0 160 c0 164 -1 168 -38 153z"/>
<path fill="#000000" stroke="none" d="M212 224 c-2 -32 33 -92 41 -70 4 10
-1 20 -13 26 -16 8 -18 15 -10 34 6 17 5 26 -3 29 -8 3 -14 -5 -15 -19z"/>
<path fill="#000000" stroke="none" d="M142 207 c-24 -26 -42 -69 -41 -100 0
-12 3 -16 6 -10 3 9 10 10 24 3 10 -6 19 -8 19 -5 0 3 8 1 18 -4 13 -7 23 -6
30 1 9 9 12 9 12 0 0 -7 5 -12 10 -12 27 0 -1 100 -37 132 -19 17 -20 17 -41
-5z"/>
<path fill="#000000" stroke="none" d="M10 9 c0 -5 5 -7 10 -4 13 8 13 15 0
15 -5 0 -10 -5 -10 -11z"/>
<path fill="#000000" stroke="none" d="M60 10 c-12 -8 -11 -10 8 -10 12 0 22
5 22 10 0 13 -11 13 -30 0z"/>
<path fill="#000000" stroke="none" d="M240 9 c0 -5 5 -7 10 -4 6 3 10 8 10
11 0 2 -4 4 -10 4 -5 0 -10 -5 -10 -11z"/>
</g>
</svg>
