<?xml version="1.0" standalone="no"?>
<!DOCTYPE svg PUBLIC "-//W3C//DTD SVG 20010904//EN"
 "http://www.w3.org/TR/2001/REC-SVG-20010904/DTD/svg10.dtd">
<svg version="1.0" xmlns="http://www.w3.org/2000/svg"
 width="32.000000pt" height="32.000000pt" viewBox="0 0 32.000000 32.000000"
 preserveAspectRatio="xMidYMid meet">
<metadata>
Created by potrace 1.16, written by Peter Selinger 2001-2019
</metadata>
<g transform="translate(0.000000,32.000000) scale(0.100000,-0.100000)"
fill="#000000" stroke="none">
<path fill="#000000" stroke="none" d="M0 160 l0 -160 160 0 160 0 0 160 0
160 -160 0 -160 0 0 -160z"/>
<path fill="#ffffff" stroke="none" d="M40 290 c0 -5 -4 -10 -10 -10 -5 0 -10
5 -10 10 0 6 5 10 10 10 6 0 10 -4 10 -10z"/>
<path fill="#ffffff" stroke="none" d="M300 290 c0 -5 -4 -10 -10 -10 -5 0
-10 5 -10 10 0 6 5 10 10 10 6 0 10 -4 10 -10z"/>
<path fill="#ffffff" stroke="none" d="M221 260 l24 -21 -32 16 c-18 8 -42 15
-55 14 -18 -1 -17 -3 8 -8 43 -11 51 -17 68 -54 32 -67 -13 -137 -87 -137 -58
0 -103 78 -77 131 11 23 11 23 -5 4 -11 -14 -15 -31 -11 -55 12 -79 83 -119
152 -86 45 21 58 14 15 -8 -54 -28 -98 -21 -142 23 -44 43 -51 88 -24 141 30
58 120 79 166 40z"/>
<path fill="#ffffff" stroke="none" d="M294 215 c-4 -8 -17 -15 -30 -15 -15 0
-24 6 -24 15 0 10 10 15 30 15 22 0 28 -4 24 -15z"/>
<path fill="#ffffff" stroke="none" d="M277 143 c-3 -10 -5 -4 -5 12 0 17 2
24 5 18 2 -7 2 -21 0 -30z"/>
<path fill="#ffffff" stroke="none" d="M294 105 c-4 -8 -17 -15 -30 -15 -15 0
-24 6 -24 15 0 10 10 15 30 15 22 0 28 -4 24 -15z"/>
<path fill="#ffffff" stroke="none" d="M40 30 c0 -5 -4 -10 -10 -10 -5 0 -10
5 -10 10 0 6 5 10 10 10 6 0 10 -4 10 -10z"/>
<path fill="#ffffff" stroke="none" d="M300 30 c0 -5 -4 -10 -10 -10 -5 0 -10
5 -10 10 0 6 5 10 10 10 6 0 10 -4 10 -10z"/>
<path fill="#000000" stroke="none" d="M146 171 c-4 -5 -2 -12 3 -15 5 -4 12
-2 15 3 4 5 2 12 -3 15 -5 4 -12 2 -15 -3z"/>
</g>
</svg>
