<?xml version="1.0" standalone="no"?>
<!DOCTYPE svg PUBLIC "-//W3C//DTD SVG 20010904//EN"
 "http://www.w3.org/TR/2001/REC-SVG-20010904/DTD/svg10.dtd">
<svg version="1.0" xmlns="http://www.w3.org/2000/svg"
 width="32.000000pt" height="32.000000pt" viewBox="0 0 32.000000 32.000000"
 preserveAspectRatio="xMidYMid meet">
<metadata>
Created by potrace 1.16, written by Peter Selinger 2001-2019
</metadata>
<g transform="translate(0.000000,32.000000) scale(0.100000,-0.100000)"
fill="#000000" stroke="none">
<path fill="#000000" stroke="none" d="M5 261 c4 -31 11 -63 16 -71 7 -11 8
-9 4 8 -7 25 7 29 25 7 9 -10 9 -15 1 -15 -6 0 -11 -5 -11 -11 0 -5 4 -7 10
-4 6 3 10 -1 10 -9 0 -18 -25 -21 -36 -5 -13 22 -24 -16 -24 -88 l0 -73 46 0
c28 0 43 4 39 10 -4 6 -11 8 -16 5 -5 -4 -17 -1 -26 4 -15 8 -11 10 20 11 26
0 37 -4 37 -15 0 -12 14 -15 65 -15 65 0 65 0 65 28 0 15 6 34 13 41 10 11 10
13 0 7 -10 -5 -13 4 -13 32 0 25 -9 52 -25 75 -21 32 -22 35 -4 24 10 -6 22
-20 25 -29 6 -21 30 -24 37 -5 6 17 41 -5 45 -29 3 -16 1 -17 -8 -4 -9 12 -10
11 -5 -7 6 -23 -8 -32 -20 -13 -4 6 -11 7 -17 4 -6 -4 -8 -2 -4 4 3 6 2 13 -4
17 -6 4 -10 -7 -10 -26 0 -25 3 -29 13 -20 11 8 18 6 32 -9 18 -19 14 -57 -5
-45 -5 3 -10 -1 -10 -9 0 -9 -7 -16 -15 -16 -8 0 -15 -4 -15 -10 0 -5 18 -10
40 -10 l40 0 0 160 0 161 -161 -2 -161 -3 7 -55z"/>
<path fill="#ffffff" stroke="none" d="M180 298 c0 -9 3 -9 12 0 9 9 14 7 24
-6 18 -23 17 -42 -2 -42 -8 0 -12 -4 -9 -10 3 -5 -1 -10 -10 -10 -9 0 -13 5
-10 10 3 6 -1 10 -9 10 -9 0 -16 5 -16 10 0 6 5 10 11 10 5 0 7 5 3 11 -4 8
-11 3 -20 -12 -14 -26 -9 -43 9 -33 7 3 2 -3 -9 -13 -12 -11 -30 -36 -40 -56
-18 -35 -20 -36 -32 -17 -7 12 -8 20 -2 20 5 0 10 6 10 13 0 24 25 67 39 67 9
0 11 7 7 24 -3 12 -3 26 1 30 11 11 43 7 43 -6z"/>
<path fill="#ffffff" stroke="none" d="M100 250 c0 -30 -18 -46 -37 -34 -22
13 -29 54 -12 64 16 10 49 -10 49 -30z"/>
<path fill="#ffffff" stroke="none" d="M280 205 c0 -12 -21 -25 -41 -25 -10 0
-13 33 -3 42 9 10 44 -4 44 -17z"/>
<path fill="#ffffff" stroke="none" d="M88 67 c19 -13 14 -22 -12 -25 -16 -1
-25 5 -29 18 -5 20 14 23 41 7z"/>
<path fill="#000000" stroke="none" d="M96 173 c-6 -14 -5 -15 5 -6 7 7 10 15
7 18 -3 3 -9 -2 -12 -12z"/>
</g>
</svg>
