<?xml version="1.0" standalone="no"?>
<!DOCTYPE svg PUBLIC "-//W3C//DTD SVG 20010904//EN"
 "http://www.w3.org/TR/2001/REC-SVG-20010904/DTD/svg10.dtd">
<svg version="1.0" xmlns="http://www.w3.org/2000/svg"
 width="32.000000pt" height="32.000000pt" viewBox="0 0 32.000000 32.000000"
 preserveAspectRatio="xMidYMid meet">
<metadata>
Created by potrace 1.16, written by Peter Selinger 2001-2019
</metadata>
<g transform="translate(0.000000,32.000000) scale(0.100000,-0.100000)"
fill="#000000" stroke="none">
<path fill="#000000" stroke="none" d="M92 305 c-18 -8 -46 -29 -62 -47 -28
-30 -30 -38 -30 -111 0 -72 2 -82 28 -111 27 -31 29 -31 132 -34 73 -2 100 0
90 7 -12 8 -12 13 -2 23 9 9 12 9 12 0 0 -22 18 -12 39 22 30 48 29 141 -2
186 -43 65 -136 95 -205 65z"/>
<path fill="#ffffff" stroke="none" d="M155 290 c-3 -5 1 -10 9 -10 9 0 16 -4
16 -10 0 -5 -13 -10 -30 -10 -29 0 -29 1 -13 20 18 21 28 27 18 10z"/>
<path fill="#ffffff" stroke="none" d="M95 71 c3 -5 1 -12 -5 -16 -5 -3 -10 1
-10 9 0 18 6 21 15 7z"/>
</g>
</svg>
