<?xml version="1.0" standalone="no"?>
<!DOCTYPE svg PUBLIC "-//W3C//DTD SVG 20010904//EN"
 "http://www.w3.org/TR/2001/REC-SVG-20010904/DTD/svg10.dtd">
<svg version="1.0" xmlns="http://www.w3.org/2000/svg"
 width="32.000000pt" height="32.000000pt" viewBox="0 0 32.000000 32.000000"
 preserveAspectRatio="xMidYMid meet">
<metadata>
Created by potrace 1.16, written by Peter Selinger 2001-2019
</metadata>
<g transform="translate(0.000000,32.000000) scale(0.100000,-0.100000)"
fill="#000000" stroke="none">
<path fill="#000000" stroke="none" d="M0 160 l0 -160 160 0 160 0 0 160 0
160 -160 0 -160 0 0 -160z"/>
<path fill="#ffffff" stroke="none" d="M203 271 c47 -52 67 -91 71 -143 2 -24
2 -34 -1 -23 -14 62 -25 95 -31 93 -15 -3 -42 15 -42 29 0 8 5 11 10 8 21 -13
8 13 -20 40 l-30 29 -30 -29 c-29 -28 -41 -53 -19 -39 8 4 8 0 0 -15 -14 -25
-22 -28 -15 -3 5 14 3 14 -10 -3 -22 -27 -36 -81 -36 -142 l0 -52 103 -4 102
-3 -109 -2 -109 -2 5 78 c3 45 12 91 22 110 19 36 84 112 96 112 4 0 24 -18
43 -39z"/>
<path fill="#ffffff" stroke="none" d="M160 229 c0 -14 -17 -10 -23 5 -4 10
-1 13 9 9 7 -3 14 -9 14 -14z"/>
<path fill="#ffffff" stroke="none" d="M186 225 c1 -8 -2 -15 -6 -15 -5 0 -8
9 -7 20 1 21 10 18 13 -5z"/>
<path fill="#ffffff" stroke="none" d="M214 192 c3 -5 -4 -16 -14 -25 -21 -17
-36 -7 -26 18 6 16 32 20 40 7z"/>
<path fill="#ffffff" stroke="none" d="M100 150 c0 -5 -2 -10 -4 -10 -3 0 -8
5 -11 10 -3 6 -1 10 4 10 6 0 11 -4 11 -10z"/>
<path fill="#ffffff" stroke="none" d="M140 130 c0 -5 -2 -10 -4 -10 -3 0 -8
5 -11 10 -3 6 -1 10 4 10 6 0 11 -4 11 -10z"/>
<path fill="#ffffff" stroke="none" d="M280 30 c0 -11 -4 -20 -9 -20 -5 0 -7
9 -4 20 3 11 7 20 9 20 2 0 4 -9 4 -20z"/>
<path fill="#000000" stroke="none" d="M220 221 c0 -5 5 -13 10 -16 6 -3 10
-2 10 4 0 5 -4 13 -10 16 -5 3 -10 2 -10 -4z"/>
</g>
</svg>
