<?xml version="1.0" standalone="no"?>
<!DOCTYPE svg PUBLIC "-//W3C//DTD SVG 20010904//EN"
 "http://www.w3.org/TR/2001/REC-SVG-20010904/DTD/svg10.dtd">
<svg version="1.0" xmlns="http://www.w3.org/2000/svg"
 width="32.000000pt" height="32.000000pt" viewBox="0 0 32.000000 32.000000"
 preserveAspectRatio="xMidYMid meet">
<metadata>
Created by potrace 1.16, written by Peter Selinger 2001-2019
</metadata>
<g transform="translate(0.000000,32.000000) scale(0.100000,-0.100000)"
fill="#000000" stroke="none">
<path fill="#000000" stroke="none" d="M28 235 c-2 -41 0 -75 5 -75 4 0 7 34
7 75 0 41 -2 75 -4 75 -3 0 -6 -34 -8 -75z"/>
<path fill="#000000" stroke="none" d="M190 269 c0 -24 7 -42 22 -55 21 -18
21 -18 15 0 -4 10 -2 26 5 35 12 14 11 14 -4 2 -16 -12 -18 -11 -18 5 0 11 -5
26 -10 34 -7 11 -10 6 -10 -21z"/>
<path fill="#000000" stroke="none" d="M71 254 c0 -11 3 -14 6 -6 3 7 2 16 -1
19 -3 4 -6 -2 -5 -13z"/>
<path fill="#000000" stroke="none" d="M108 195 c-2 -41 0 -75 5 -75 4 0 7 34
7 75 0 41 -2 75 -4 75 -3 0 -6 -34 -8 -75z"/>
<path fill="#000000" stroke="none" d="M153 175 c0 -44 2 -61 4 -37 2 23 2 59
0 80 -2 20 -4 1 -4 -43z"/>
<path fill="#000000" stroke="none" d="M185 149 c0 -38 3 -69 8 -69 4 0 7 29
7 64 0 36 -3 67 -7 69 -5 3 -8 -26 -8 -64z"/>
<path fill="#000000" stroke="none" d="M272 128 c-1 -36 -5 -75 -8 -85 -5 -14
-4 -15 5 -7 8 7 11 36 8 85 l-3 74 -2 -67z"/>
<path fill="#000000" stroke="none" d="M231 144 c0 -11 3 -14 6 -6 3 7 2 16
-1 19 -3 4 -6 -2 -5 -13z"/>
<path fill="#000000" stroke="none" d="M23 127 c-14 -30 2 -64 22 -47 10 8 15
8 21 -1 4 -7 3 -9 -3 -6 -6 4 -14 -1 -17 -10 -4 -10 -4 -14 0 -10 4 4 14 1 22
-6 10 -8 13 -8 9 -1 -4 7 0 14 7 17 10 4 13 0 11 -14 -3 -15 0 -19 10 -16 7 3
16 0 18 -7 4 -9 30 -14 78 -15 41 -1 71 -1 69 1 -3 2 -14 10 -24 18 -15 11
-18 12 -12 1 6 -8 0 -7 -18 4 -24 16 -31 14 -27 -8 1 -5 -3 -6 -9 -2 -6 4 -7
12 -1 23 12 23 -32 47 -49 27 -5 -6 -9 -14 -7 -16 1 -2 -4 2 -10 10 -10 11
-10 18 -1 29 9 11 9 13 -3 11 -15 -3 -60 18 -70 33 -3 5 -10 -2 -16 -15z"/>
<path fill="#ffffff" stroke="none" d="M40 100 c0 -5 -2 -10 -4 -10 -3 0 -8 5
-11 10 -3 6 -1 10 4 10 6 0 11 -4 11 -10z"/>
</g>
</svg>
