<?xml version="1.0" standalone="no"?>
<!DOCTYPE svg PUBLIC "-//W3C//DTD SVG 20010904//EN"
 "http://www.w3.org/TR/2001/REC-SVG-20010904/DTD/svg10.dtd">
<svg version="1.0" xmlns="http://www.w3.org/2000/svg"
 width="32.000000pt" height="32.000000pt" viewBox="0 0 32.000000 32.000000"
 preserveAspectRatio="xMidYMid meet">
<metadata>
Created by potrace 1.16, written by Peter Selinger 2001-2019
</metadata>
<g transform="translate(0.000000,32.000000) scale(0.100000,-0.100000)"
fill="#000000" stroke="none">
<path fill="#000000" stroke="none" d="M0 160 l0 -160 160 0 160 0 0 160 0
160 -160 0 -160 0 0 -160z"/>
<path fill="#ffffff" stroke="none" d="M185 216 c9 4 16 -3 21 -20 3 -14 10
-26 15 -26 5 0 9 -7 9 -15 0 -8 -4 -15 -10 -15 -5 0 -12 -11 -16 -25 -5 -21
-12 -25 -46 -25 -23 0 -37 4 -33 10 3 5 -1 20 -9 31 -13 19 -13 25 1 55 9 18
20 31 24 28 4 -2 11 1 15 8 6 9 9 9 11 1 3 -7 11 -9 18 -7z"/>
<path fill="#ffffff" stroke="none" d="M307 148 c-2 -13 -4 -5 -4 17 -1 22 1
32 4 23 2 -10 2 -28 0 -40z"/>
<path fill="#ffffff" stroke="none" d="M250 36 c0 -2 -7 -7 -16 -10 -8 -3 -12
-2 -9 4 6 10 25 14 25 6z"/>
</g>
</svg>
