<?xml version="1.0" standalone="no"?>
<!DOCTYPE svg PUBLIC "-//W3C//DTD SVG 20010904//EN"
 "http://www.w3.org/TR/2001/REC-SVG-20010904/DTD/svg10.dtd">
<svg version="1.0" xmlns="http://www.w3.org/2000/svg"
 width="32.000000pt" height="32.000000pt" viewBox="0 0 32.000000 32.000000"
 preserveAspectRatio="xMidYMid meet">
<metadata>
Created by potrace 1.16, written by Peter Selinger 2001-2019
</metadata>
<g transform="translate(0.000000,32.000000) scale(0.100000,-0.100000)"
fill="#000000" stroke="none">
<path fill="#000000" stroke="none" d="M2 198 l2 -123 3 103 c4 112 13 127 54
98 17 -11 26 -13 36 -5 7 6 21 8 30 4 10 -5 29 -7 41 -6 14 2 34 -7 48 -20 13
-12 24 -19 24 -15 0 5 6 3 14 -3 10 -9 16 -8 26 4 13 15 30 12 30 -6 0 -6 -4
-8 -9 -4 -5 3 -13 0 -17 -6 -4 -8 -3 -9 4 -5 11 7 16 -5 13 -31 -1 -6 3 -14 9
-18 6 -4 10 22 10 74 l0 81 -160 0 -160 0 2 -122z"/>
<path fill="#000000" stroke="none" d="M186 175 c-3 -8 -1 -15 3 -15 10 0 9
-26 -1 -36 -4 -3 -3 -17 3 -31 5 -13 5 -22 1 -19 -4 2 -14 0 -22 -5 -12 -8 -9
-9 10 -7 23 3 25 7 28 66 3 58 -8 82 -22 47z"/>
<path fill="#000000" stroke="none" d="M235 153 c1 -16 -2 -33 -7 -40 -5 -7
-5 -14 2 -18 8 -5 7 -11 -2 -23 -11 -13 -11 -15 2 -8 8 4 6 0 -4 -8 -20 -16
-20 -16 0 -16 11 0 26 6 33 13 11 10 13 9 8 -5 -4 -13 1 -18 21 -21 15 -2 1
-5 -30 -6 -81 -2 -85 -21 -5 -21 l65 0 -5 67 c-6 82 -9 93 -26 93 -9 0 -13
-12 -12 -40 1 -23 -2 -43 -7 -46 -5 -3 -7 12 -5 33 4 38 -7 73 -22 73 -4 0 -7
-12 -6 -27z"/>
<path fill="#000000" stroke="none" d="M150 102 c0 -7 -7 -12 -15 -12 -18 0
-20 -16 -2 -26 6 -4 9 -4 5 1 -4 4 0 14 10 21 9 7 14 16 9 20 -4 4 -7 2 -7 -4z"/>
<path fill="#000000" stroke="none" d="M0 13 c0 -8 13 -13 33 -13 20 0 34 5
34 13 0 7 -14 12 -34 12 -20 0 -33 -5 -33 -12z"/>
<path fill="#000000" stroke="none" d="M85 10 c-4 -6 13 -10 45 -10 32 0 49 4
45 10 -8 13 -82 13 -90 0z"/>
</g>
</svg>
