<?xml version="1.0" standalone="no"?>
<!DOCTYPE svg PUBLIC "-//W3C//DTD SVG 20010904//EN"
 "http://www.w3.org/TR/2001/REC-SVG-20010904/DTD/svg10.dtd">
<svg version="1.0" xmlns="http://www.w3.org/2000/svg"
 width="32.000000pt" height="32.000000pt" viewBox="0 0 32.000000 32.000000"
 preserveAspectRatio="xMidYMid meet">
<metadata>
Created by potrace 1.16, written by Peter Selinger 2001-2019
</metadata>
<g transform="translate(0.000000,32.000000) scale(0.100000,-0.100000)"
fill="#000000" stroke="none">
<path fill="#000000" stroke="none" d="M148 294 c-7 -9 -28 -32 -45 -52 -18
-19 -33 -42 -33 -50 0 -8 -11 -34 -25 -58 -17 -28 -21 -45 -14 -49 13 -9 52
32 44 45 -3 6 1 10 10 10 13 0 16 8 13 38 -1 20 1 36 5 34 15 -6 66 32 69 51
2 11 11 21 21 23 13 2 17 -2 13 -12 -3 -8 0 -14 6 -14 6 0 8 -3 5 -7 -4 -3 -3
-11 3 -17 8 -11 25 -69 37 -128 4 -20 9 -25 22 -20 14 5 14 4 1 -14 -11 -15
-11 -16 0 -7 8 7 15 18 16 25 1 7 5 20 8 29 4 9 -3 26 -18 42 -15 16 -22 34
-19 45 6 23 -24 85 -37 77 -5 -3 -11 -1 -15 5 -4 6 -11 8 -16 5 -5 -4 -9 -1
-9 4 0 17 -28 13 -42 -5z"/>
<path fill="#000000" stroke="none" d="M163 178 c-10 -17 -33 -81 -25 -74 3 3
11 1 18 -5 8 -7 14 -7 19 1 4 6 12 7 24 0 16 -8 18 -5 14 27 -6 54 -31 79 -50
51z"/>
<path fill="#000000" stroke="none" d="M12 49 c1 -17 5 -32 9 -35 4 -2 6 4 4
13 -1 10 2 23 7 29 5 8 3 14 -7 18 -12 4 -15 -1 -13 -25z"/>
<path fill="#000000" stroke="none" d="M286 51 c-3 -5 1 -14 8 -20 12 -10 13
-8 9 8 -6 23 -9 25 -17 12z"/>
</g>
</svg>
