<?xml version="1.0" standalone="no"?>
<!DOCTYPE svg PUBLIC "-//W3C//DTD SVG 20010904//EN"
 "http://www.w3.org/TR/2001/REC-SVG-20010904/DTD/svg10.dtd">
<svg version="1.0" xmlns="http://www.w3.org/2000/svg"
 width="32.000000pt" height="32.000000pt" viewBox="0 0 32.000000 32.000000"
 preserveAspectRatio="xMidYMid meet">
<metadata>
Created by potrace 1.16, written by Peter Selinger 2001-2019
</metadata>
<g transform="translate(0.000000,32.000000) scale(0.100000,-0.100000)"
fill="#000000" stroke="none">
<path fill="#000000" stroke="none" d="M111 274 c-61 -65 -81 -115 -81 -201
l0 -73 130 0 130 0 0 73 c0 49 -6 85 -19 114 -19 40 -96 133 -111 133 -4 0
-26 -21 -49 -46z"/>
<path fill="#ffffff" stroke="none" d="M205 269 c54 -60 75 -112 75 -191 l0
-68 -120 0 -120 0 0 68 c0 44 7 81 19 108 19 41 86 124 101 124 4 0 24 -19 45
-41z"/>
<path fill="#000000" stroke="none" d="M142 288 c-7 -7 -12 -18 -12 -25 0 -7
-6 -13 -13 -13 -15 0 -47 -51 -47 -74 0 -9 7 -16 15 -16 11 0 15 -12 15 -52 0
-58 -12 -59 -14 -1 -1 27 -6 38 -16 38 -11 0 -16 -15 -18 -62 l-3 -62 111 0
110 -1 0 35 c0 57 -21 138 -46 175 -13 19 -24 30 -24 25 0 -6 -6 1 -13 14 -15
29 -29 35 -45 19z"/>
<path fill="#ffffff" stroke="none" d="M207 227 c4 -1 7 -11 5 -22 -1 -15 0
-16 7 -6 6 9 10 10 16 2 7 -12 -32 -50 -52 -51 -7 0 -16 7 -21 16 -5 9 -13 16
-18 16 -5 -1 -8 5 -6 13 2 10 -5 12 -23 9 -24 -4 -25 -3 -13 18 10 20 13 21
16 5 2 -9 8 -15 13 -11 5 3 7 10 3 15 -3 6 2 17 12 24 17 13 21 12 36 -6 9
-11 21 -21 25 -22z"/>
<path fill="#ffffff" stroke="none" d="M138 88 c-1 -48 -2 -49 -5 -13 -3 22
-9 45 -15 52 -8 10 -6 13 6 13 13 0 16 -10 14 -52z"/>
<path fill="#ffffff" stroke="none" d="M179 78 c0 -24 -3 -37 -6 -30 -2 6 -10
9 -16 5 -8 -4 -7 -1 1 9 14 17 13 39 -3 50 -6 4 -2 8 8 8 14 0 17 -8 16 -42z"/>
<path fill="#ffffff" stroke="none" d="M220 79 c0 -11 -5 -17 -10 -14 -6 4 -8
10 -5 15 3 4 -1 11 -7 13 -8 3 -6 6 5 6 11 1 17 -6 17 -20z"/>
<path fill="#ffffff" stroke="none" d="M260 69 c0 -11 -5 -17 -10 -14 -6 4 -8
10 -5 15 3 4 -1 11 -7 13 -8 3 -6 6 5 6 11 1 17 -6 17 -20z"/>
<path fill="#000000" stroke="none" d="M154 241 c4 -5 2 -20 -3 -33 -8 -21 -6
-24 16 -24 22 0 23 1 7 13 -13 9 -14 16 -6 26 12 14 7 27 -10 27 -5 0 -7 -4
-4 -9z"/>
</g>
</svg>
