<?xml version="1.0" standalone="no"?>
<!DOCTYPE svg PUBLIC "-//W3C//DTD SVG 20010904//EN"
 "http://www.w3.org/TR/2001/REC-SVG-20010904/DTD/svg10.dtd">
<svg version="1.0" xmlns="http://www.w3.org/2000/svg"
 width="32.000000pt" height="32.000000pt" viewBox="0 0 32.000000 32.000000"
 preserveAspectRatio="xMidYMid meet">
<metadata>
Created by potrace 1.16, written by Peter Selinger 2001-2019
</metadata>
<g transform="translate(0.000000,32.000000) scale(0.100000,-0.100000)"
fill="#000000" stroke="none">
<path fill="#000000" stroke="none" d="M64 294 c-59 -41 -63 -50 -64 -150 0
-82 2 -92 24 -113 l23 -22 5 93 c5 98 19 139 59 173 24 20 24 20 8 0 -38 -46
-49 -84 -48 -157 2 -78 4 -72 14 34 5 47 14 78 30 103 14 19 22 35 18 35 -3 0
0 7 7 15 22 26 -33 18 -76 -11z"/>
<path fill="#000000" stroke="none" d="M170 305 c7 -8 9 -15 5 -15 -3 0 3 -12
14 -26 20 -26 38 -94 44 -174 2 -30 4 -21 5 28 2 74 -9 111 -47 157 -16 20
-16 20 8 0 40 -34 54 -75 59 -174 l5 -95 28 32 c26 29 29 39 29 103 0 85 -16
120 -70 154 -45 29 -101 36 -80 10z"/>
<path fill="#000000" stroke="none" d="M121 194 c-19 -14 -22 -22 -17 -53 3
-20 8 -45 9 -56 2 -11 11 -20 20 -19 66 3 69 4 59 17 -8 10 -6 16 9 25 23 14
24 40 4 68 -8 12 -11 24 -8 28 14 14 -54 5 -76 -10z"/>
</g>
</svg>
