<?xml version="1.0" standalone="no"?>
<!DOCTYPE svg PUBLIC "-//W3C//DTD SVG 20010904//EN"
 "http://www.w3.org/TR/2001/REC-SVG-20010904/DTD/svg10.dtd">
<svg version="1.0" xmlns="http://www.w3.org/2000/svg"
 width="32.000000pt" height="32.000000pt" viewBox="0 0 32.000000 32.000000"
 preserveAspectRatio="xMidYMid meet">
<metadata>
Created by potrace 1.16, written by Peter Selinger 2001-2019
</metadata>
<g transform="translate(0.000000,32.000000) scale(0.100000,-0.100000)"
fill="#000000" stroke="none">
<path fill="#000000" stroke="none" d="M0 273 l0 -47 30 32 c16 18 44 39 62
47 l33 14 -62 1 -63 0 0 -47z"/>
<path fill="#000000" stroke="none" d="M230 298 c25 -13 55 -38 67 -57 l23
-34 0 57 0 56 -67 0 -67 0 44 -22z"/>
<path fill="#000000" stroke="none" d="M297 50 c-10 -16 -22 -30 -28 -30 -5 0
-9 -4 -9 -10 0 -5 14 -10 30 -10 28 0 30 2 30 40 0 22 -1 40 -3 40 -1 0 -11
-13 -20 -30z"/>
<path fill="#000000" stroke="none" d="M0 32 c0 -27 4 -32 25 -32 14 0 25 4
25 8 0 5 -11 19 -25 32 l-25 23 0 -31z"/>
</g>
</svg>
