<?xml version="1.0" standalone="no"?>
<!DOCTYPE svg PUBLIC "-//W3C//DTD SVG 20010904//EN"
 "http://www.w3.org/TR/2001/REC-SVG-20010904/DTD/svg10.dtd">
<svg version="1.0" xmlns="http://www.w3.org/2000/svg"
 width="32.000000pt" height="32.000000pt" viewBox="0 0 32.000000 32.000000"
 preserveAspectRatio="xMidYMid meet">
<metadata>
Created by potrace 1.16, written by Peter Selinger 2001-2019
</metadata>
<g transform="translate(0.000000,32.000000) scale(0.100000,-0.100000)"
fill="#000000" stroke="none">
<path fill="#000000" stroke="none" d="M95 273 c-15 -18 -33 -30 -39 -26 -7 4
-7 1 1 -7 12 -14 6 -43 -8 -35 -4 3 -2 -6 5 -20 15 -29 10 -68 -8 -58 -6 3 -6
0 1 -8 18 -19 16 -40 -3 -32 -16 6 -34 -12 -34 -34 0 -7 9 -13 19 -13 10 0 21
-7 25 -15 7 -20 42 -19 50 1 11 29 6 36 -24 32 -22 -3 -27 -2 -19 8 5 6 19 10
29 7 22 -6 23 -3 20 67 -1 25 -7 48 -13 52 -9 6 -9 8 1 8 6 0 12 6 12 13 0 8
15 27 33 44 26 24 35 27 45 17 7 -8 8 -15 2 -19 -14 -9 11 -45 32 -45 9 0 20
5 24 12 4 7 3 8 -4 4 -6 -4 -21 -2 -32 4 -17 9 -19 14 -9 26 10 13 15 12 31
-6 19 -20 21 -21 40 -4 16 16 21 16 28 4 8 -12 10 -10 10 8 0 24 -10 28 -26
12 -8 -8 -15 -6 -24 5 -10 12 -10 15 4 15 9 0 16 5 16 10 0 13 -13 13 -27 -1
-7 -7 -19 -8 -30 -3 -10 4 -36 8 -59 9 -33 0 -45 -5 -69 -32z"/>
<path fill="#ffffff" stroke="none" d="M244 268 c-3 -5 -11 -5 -18 1 -7 6 -17
7 -21 3 -5 -4 -5 -2 -2 5 4 6 16 9 27 6 11 -3 17 -9 14 -15z"/>
<path fill="#000000" stroke="none" d="M26 284 c-18 -17 -20 -30 -7 -38 5 -3
16 6 25 19 9 14 21 23 26 20 6 -4 10 -1 10 4 0 17 -37 13 -54 -5z"/>
<path fill="#000000" stroke="none" d="M260 225 c-7 -8 -12 -26 -12 -40 0 -25
-1 -25 -22 -8 -19 16 -19 16 2 -8 24 -27 30 -55 10 -43 -10 6 -10 4 0 -7 6 -7
12 -27 12 -43 l-1 -31 -16 30 c-21 40 -31 45 -78 44 -22 -1 -32 -3 -23 -6 15
-4 15 -6 -1 -22 -12 -12 -17 -28 -14 -45 5 -25 8 -26 74 -26 47 0 69 4 69 12
0 9 3 9 12 0 21 -21 40 -15 32 11 -4 12 -12 25 -18 29 -8 6 -8 8 0 8 7 0 12
21 12 55 0 41 -4 55 -17 58 -13 4 -12 5 3 6 12 1 16 6 12 17 -3 9 -6 18 -6 20
0 10 -18 3 -30 -11z"/>
<path fill="#000000" stroke="none" d="M196 153 c6 -4 14 -15 17 -23 5 -11 6
-9 4 4 -1 11 -9 21 -17 23 -10 3 -11 2 -4 -4z"/>
<path fill="#000000" stroke="none" d="M138 133 c7 -3 16 -2 19 1 4 3 -2 6
-13 5 -11 0 -14 -3 -6 -6z"/>
</g>
</svg>
