<?xml version="1.0" standalone="no"?>
<!DOCTYPE svg PUBLIC "-//W3C//DTD SVG 20010904//EN"
 "http://www.w3.org/TR/2001/REC-SVG-20010904/DTD/svg10.dtd">
<svg version="1.0" xmlns="http://www.w3.org/2000/svg"
 width="32.000000pt" height="32.000000pt" viewBox="0 0 32.000000 32.000000"
 preserveAspectRatio="xMidYMid meet">
<metadata>
Created by potrace 1.16, written by Peter Selinger 2001-2019
</metadata>
<g transform="translate(0.000000,32.000000) scale(0.100000,-0.100000)"
fill="#000000" stroke="none">
<path fill="#000000" stroke="none" d="M69 261 c-38 -37 -39 -41 -39 -106 0
-65 1 -69 39 -106 35 -35 44 -39 91 -39 47 0 56 4 91 39 38 37 39 41 39 106 0
65 -1 69 -39 106 -35 35 -44 39 -91 39 -47 0 -56 -4 -91 -39z"/>
<path fill="#ffffff" stroke="none" d="M184 254 c53 -18 66 -39 66 -109 0 -26
-7 -51 -18 -65 l-18 -23 -72 23 -72 23 0 53 c0 42 5 59 26 83 30 36 27 36 88
15z"/>
</g>
</svg>
