<?xml version="1.0" standalone="no"?>
<!DOCTYPE svg PUBLIC "-//W3C//DTD SVG 20010904//EN"
 "http://www.w3.org/TR/2001/REC-SVG-20010904/DTD/svg10.dtd">
<svg version="1.0" xmlns="http://www.w3.org/2000/svg"
 width="32.000000pt" height="32.000000pt" viewBox="0 0 32.000000 32.000000"
 preserveAspectRatio="xMidYMid meet">
<metadata>
Created by potrace 1.16, written by Peter Selinger 2001-2019
</metadata>
<g transform="translate(0.000000,32.000000) scale(0.100000,-0.100000)"
fill="#000000" stroke="none">
<path fill="#000000" stroke="none" d="M0 160 l0 -160 160 0 160 0 0 160 0
160 -160 0 -160 0 0 -160z"/>
<path fill="#ffffff" stroke="none" d="M95 300 c-3 -5 -13 -10 -21 -10 -8 0
-14 -6 -15 -12 0 -10 -2 -10 -6 0 -7 18 -31 15 -36 -5 -3 -11 -5 -7 -6 10 -1
26 1 27 45 27 27 0 43 -4 39 -10z"/>
<path fill="#ffffff" stroke="none" d="M220 301 c0 -4 -25 -7 -55 -9 -32 -2
-55 1 -55 7 0 6 24 9 55 9 30 -1 55 -4 55 -7z"/>
<path fill="#ffffff" stroke="none" d="M304 302 c2 -4 -13 -8 -35 -8 -21 -1
-36 2 -34 6 6 9 63 11 69 2z"/>
<path fill="#ffffff" stroke="none" d="M117 274 c-3 -3 -12 -4 -19 -1 -8 3 -5
6 6 6 11 1 17 -2 13 -5z"/>
<path fill="#ffffff" stroke="none" d="M57 238 c-3 -8 -6 -5 -6 6 -1 11 2 17
5 13 3 -3 4 -12 1 -19z"/>
<path fill="#ffffff" stroke="none" d="M17 117 c-2 -23 -3 -2 -3 48 0 50 1 68
3 42 2 -26 2 -67 0 -90z"/>
<path fill="#ffffff" stroke="none" d="M37 218 c-3 -7 -5 -2 -5 12 0 14 2 19
5 13 2 -7 2 -19 0 -25z"/>
<path fill="#ffffff" stroke="none" d="M160 220 c0 -5 -5 -10 -11 -10 -5 0 -7
5 -4 10 3 6 8 10 11 10 2 0 4 -4 4 -10z"/>
<path fill="#ffffff" stroke="none" d="M37 158 c-3 -7 -5 -2 -5 12 0 14 2 19
5 13 2 -7 2 -19 0 -25z"/>
</g>
</svg>
