<?xml version="1.0" standalone="no"?>
<!DOCTYPE svg PUBLIC "-//W3C//DTD SVG 20010904//EN"
 "http://www.w3.org/TR/2001/REC-SVG-20010904/DTD/svg10.dtd">
<svg version="1.0" xmlns="http://www.w3.org/2000/svg"
 width="32.000000pt" height="32.000000pt" viewBox="0 0 32.000000 32.000000"
 preserveAspectRatio="xMidYMid meet">
<metadata>
Created by potrace 1.16, written by Peter Selinger 2001-2019
</metadata>
<g transform="translate(0.000000,32.000000) scale(0.100000,-0.100000)"
fill="#000000" stroke="none">
<path fill="#000000" stroke="none" d="M37 313 c24 -2 62 -2 85 0 24 2 5 4
-42 4 -47 0 -66 -2 -43 -4z"/>
<path fill="#000000" stroke="none" d="M198 313 c6 -2 12 -11 12 -19 0 -8 -6
-14 -12 -14 -8 0 -13 -14 -13 -37 0 -27 -4 -38 -15 -38 -19 0 -39 -25 -33 -42
8 -21 26 -15 20 7 -3 11 -1 18 4 14 16 -9 10 -28 -16 -49 -33 -27 -19 -49 31
-48 54 2 83 21 90 60 7 39 19 49 39 33 13 -11 15 -2 15 64 l0 76 -67 -1 c-38
0 -62 -3 -55 -6z"/>
<path fill="#ffffff" stroke="none" d="M309 253 c-1 -32 -4 -46 -6 -30 -2 15
-9 27 -14 27 -6 0 -7 -4 -4 -10 15 -25 -12 -7 -30 20 -11 16 -23 30 -27 30 -5
0 -8 5 -8 10 0 6 20 10 45 10 l45 0 -1 -57z"/>
<path fill="#000000" stroke="none" d="M150 289 c0 -5 5 -7 10 -4 6 3 10 8 10
11 0 2 -4 4 -10 4 -5 0 -10 -5 -10 -11z"/>
<path fill="#000000" stroke="none" d="M116 264 c-15 -10 -17 -17 -9 -25 8 -8
14 -5 23 11 15 28 10 32 -14 14z"/>
<path fill="#000000" stroke="none" d="M280 135 c-8 -9 -8 -15 -2 -15 12 0 26
19 19 26 -2 2 -10 -2 -17 -11z"/>
<path fill="#000000" stroke="none" d="M8 3 c7 -3 16 -2 19 1 4 3 -2 6 -13 5
-11 0 -14 -3 -6 -6z"/>
</g>
</svg>
