<?xml version="1.0" standalone="no"?>
<!DOCTYPE svg PUBLIC "-//W3C//DTD SVG 20010904//EN"
 "http://www.w3.org/TR/2001/REC-SVG-20010904/DTD/svg10.dtd">
<svg version="1.0" xmlns="http://www.w3.org/2000/svg"
 width="32.000000pt" height="32.000000pt" viewBox="0 0 32.000000 32.000000"
 preserveAspectRatio="xMidYMid meet">
<metadata>
Created by potrace 1.16, written by Peter Selinger 2001-2019
</metadata>
<g transform="translate(0.000000,32.000000) scale(0.100000,-0.100000)"
fill="#000000" stroke="none">
<path fill="#000000" stroke="none" d="M145 308 c-11 -6 -28 -18 -38 -27 -11
-9 -26 -16 -35 -16 -28 0 -72 -101 -72 -165 0 -79 39 -128 66 -82 5 9 7 31 3
47 -5 25 -7 26 -8 7 0 -13 -6 -20 -11 -17 -6 3 -10 -1 -10 -10 0 -9 -4 -14 -8
-11 -5 3 -7 20 -6 38 3 30 3 31 -5 8 -8 -21 -9 -17 -10 23 -1 54 44 170 58
149 5 -9 13 -7 27 9 22 24 73 53 81 45 3 -3 -7 -25 -23 -50 -16 -24 -37 -59
-47 -76 -10 -18 -20 -30 -23 -27 -3 3 6 24 21 47 l26 41 -26 -17 c-20 -13 -25
-13 -25 -3 -1 12 -50 -96 -50 -108 0 -3 9 -1 20 2 17 5 21 1 26 -24 8 -38 51
-81 63 -62 6 9 11 10 15 2 4 -6 2 -11 -3 -11 -6 0 -11 -4 -11 -10 0 -5 22 -10
50 -10 46 0 51 2 66 32 21 42 21 41 33 33 7 -4 0 -17 -16 -33 l-27 -27 23 -3
c46 -7 50 2 50 94 -1 79 -4 90 -31 130 -16 24 -34 42 -39 39 -5 -4 -9 0 -9 8
0 7 -6 14 -14 14 -9 0 1 -18 26 -46 58 -66 66 -86 42 -112 -17 -19 -19 -19
-31 -3 -7 10 -13 23 -13 28 0 6 4 5 9 -3 10 -15 41 -8 41 9 0 6 -4 9 -9 5 -6
-3 -14 3 -20 12 -9 15 -12 15 -20 4 -7 -10 -10 -11 -16 -1 -6 10 -11 9 -22 -5
-11 -16 -13 -16 -13 -3 0 9 3 24 6 33 6 15 8 15 24 0 10 -9 21 -12 24 -7 3 5
-3 17 -14 27 -11 10 -20 14 -21 9 0 -5 -6 11 -12 36 -13 47 -29 57 -62 38z"/>
<path fill="#ffffff" stroke="none" d="M67 158 c-3 -8 -6 -5 -6 6 -1 11 2 17
5 13 3 -3 4 -12 1 -19z"/>
<path fill="#ffffff" stroke="none" d="M128 60 c-2 -5 -9 -6 -16 -1 -7 4 -10
15 -6 25 6 17 8 17 16 2 5 -9 8 -21 6 -26z"/>
<path fill="#ffffff" stroke="none" d="M270 86 c0 -21 -56 -76 -77 -75 -16 0
-16 1 3 11 12 5 28 25 37 44 17 34 37 46 37 20z"/>
<path fill="#ffffff" stroke="none" d="M200 56 c0 -5 -3 -6 -7 -3 -3 4 -12 2
-20 -4 -16 -14 -17 -5 -2 23 9 17 13 18 20 7 5 -8 9 -18 9 -23z"/>
<path fill="#000000" stroke="none" d="M74 19 c-3 -5 -4 -9 -2 -10 2 0 17 -3
33 -5 24 -4 28 -3 18 7 -16 16 -41 20 -49 8z"/>
</g>
</svg>
