<?xml version="1.0" standalone="no"?>
<!DOCTYPE svg PUBLIC "-//W3C//DTD SVG 20010904//EN"
 "http://www.w3.org/TR/2001/REC-SVG-20010904/DTD/svg10.dtd">
<svg version="1.0" xmlns="http://www.w3.org/2000/svg"
 width="32.000000pt" height="32.000000pt" viewBox="0 0 32.000000 32.000000"
 preserveAspectRatio="xMidYMid meet">
<metadata>
Created by potrace 1.16, written by Peter Selinger 2001-2019
</metadata>
<g transform="translate(0.000000,32.000000) scale(0.100000,-0.100000)"
fill="#000000" stroke="none">
<path fill="#000000" stroke="none" d="M0 267 c0 -101 12 -209 22 -195 7 9 8
6 5 -9 -6 -27 8 -39 27 -24 10 8 17 6 30 -7 9 -10 13 -22 9 -25 -3 -4 6 -7 20
-7 15 0 27 5 27 11 0 6 7 9 15 5 19 -7 19 8 0 24 -17 14 -38 4 -29 -13 4 -7
-5 -1 -19 12 -15 14 -27 32 -27 42 0 10 -7 24 -15 33 -17 17 -20 30 -5 21 6
-3 10 4 11 17 0 21 1 21 8 4 7 -19 8 -19 15 -1 6 16 9 17 16 5 7 -11 10 -8 10
13 0 15 7 42 17 60 15 29 17 30 23 12 4 -11 3 -25 -2 -32 -6 -7 -4 -19 4 -32
12 -19 10 -24 -14 -44 -36 -29 -24 -51 28 -50 54 2 83 21 90 60 7 39 19 49 39
33 13 -11 15 -2 15 64 l0 76 -64 0 c-59 0 -64 -2 -59 -20 3 -11 1 -20 -3 -20
-5 0 -9 -16 -9 -37 0 -24 -5 -38 -15 -40 -9 -3 -11 -1 -5 4 6 4 10 28 10 53 0
25 -4 48 -10 52 -5 4 -45 8 -87 8 l-78 0 0 -53z"/>
<path fill="#ffffff" stroke="none" d="M145 298 c-11 -6 -30 -20 -42 -30 -12
-11 -26 -17 -32 -14 -6 4 -21 -15 -36 -46 -13 -29 -24 -46 -24 -38 1 27 44 95
60 95 8 0 28 10 43 23 16 12 34 22 40 22 6 0 2 -6 -9 -12z"/>
<path fill="#ffffff" stroke="none" d="M279 236 c-3 -3 -11 5 -18 17 -13 21
-12 21 5 5 10 -10 16 -20 13 -22z"/>
<path fill="#000000" stroke="none" d="M134 190 c2 -14 5 -28 5 -32 1 -5 6 -8
11 -8 14 0 12 22 -6 45 -14 19 -14 19 -10 -5z"/>
<path fill="#000000" stroke="none" d="M277 154 c-3 -16 -1 -30 3 -32 5 -2 7
-9 4 -15 -2 -7 4 -24 14 -40 l19 -27 -1 34 c-1 19 -5 32 -9 29 -4 -2 -5 6 -2
19 3 13 0 31 -8 42 -13 18 -14 18 -20 -10z"/>
<path fill="#000000" stroke="none" d="M93 88 c-3 -32 16 -52 34 -37 10 9 18
8 33 -6 22 -20 44 -15 60 14 9 18 8 21 -10 21 -12 0 -30 -5 -41 -10 -13 -7
-19 -7 -19 0 0 5 -9 10 -20 10 -11 0 -20 7 -20 15 0 24 -16 17 -17 -7z"/>
<path fill="#000000" stroke="none" d="M232 67 c-7 -19 -22 -39 -35 -46 -22
-12 -22 -12 2 -7 14 3 31 1 37 -5 7 -6 28 -9 48 -7 l35 3 -23 45 c-28 56 -48
61 -64 17z"/>
<path fill="#ffffff" stroke="none" d="M253 25 c-3 -9 -8 -14 -10 -11 -3 3 -2
9 2 15 9 16 15 13 8 -4z"/>
<path fill="#000000" stroke="none" d="M0 22 c0 -14 6 -22 16 -22 14 0 15 3 3
18 -7 9 -15 19 -16 21 -2 2 -3 -5 -3 -17z"/>
<path fill="#000000" stroke="none" d="M57 24 c-8 -8 1 -24 14 -24 5 0 9 7 9
15 0 15 -12 20 -23 9z"/>
</g>
</svg>
