<?xml version="1.0" standalone="no"?>
<!DOCTYPE svg PUBLIC "-//W3C//DTD SVG 20010904//EN"
 "http://www.w3.org/TR/2001/REC-SVG-20010904/DTD/svg10.dtd">
<svg version="1.0" xmlns="http://www.w3.org/2000/svg"
 width="32.000000pt" height="32.000000pt" viewBox="0 0 32.000000 32.000000"
 preserveAspectRatio="xMidYMid meet">
<metadata>
Created by potrace 1.16, written by Peter Selinger 2001-2019
</metadata>
<g transform="translate(0.000000,32.000000) scale(0.100000,-0.100000)"
fill="#000000" stroke="none">
<path fill="#000000" stroke="none" d="M145 308 c-11 -6 -28 -18 -38 -27 -11
-9 -26 -16 -35 -16 -10 0 -28 -22 -44 -55 -45 -89 -36 -198 17 -206 9 -1 14 0
11 3 -3 4 0 13 6 22 10 13 10 14 -2 4 -17 -16 -41 2 -33 24 4 11 2 14 -5 9 -9
-5 -12 6 -12 39 0 53 44 160 61 149 6 -3 20 3 32 14 20 17 60 42 69 42 9 0 2
-96 -7 -103 -6 -5 -4 -7 5 -4 10 2 15 16 15 38 0 19 4 37 9 40 12 9 0 39 -16
39 -7 0 -22 -6 -33 -12z"/>
<path fill="#000000" stroke="none" d="M261 253 c7 -12 15 -20 18 -17 3 2 -3
12 -13 22 -17 16 -18 16 -5 -5z"/>
<path fill="#000000" stroke="none" d="M137 233 c-10 -18 -17 -45 -17 -60 0
-21 -3 -24 -10 -13 -7 12 -10 11 -16 -5 -7 -18 -8 -18 -15 1 -5 14 -7 11 -6
-13 0 -26 3 -31 13 -22 10 8 15 5 20 -15 4 -17 13 -26 26 -26 14 0 18 -5 14
-15 -5 -13 -2 -13 19 1 13 8 34 14 45 12 l22 -3 -22 -27 c-15 -20 -17 -26 -6
-22 8 3 21 21 28 40 16 45 36 41 63 -14 l21 -42 2 79 c1 57 -3 83 -13 91 -20
16 -32 6 -39 -33 -7 -39 -36 -58 -90 -60 -52 -1 -64 21 -28 50 24 20 26 25 14
44 -8 13 -10 25 -4 32 5 7 6 21 2 32 -6 18 -8 17 -23 -12z"/>
<path fill="#ffffff" stroke="none" d="M160 163 c0 -14 -19 -18 -21 -5 0 4 -3
18 -5 32 -4 24 -4 24 10 5 9 -11 16 -26 16 -32z"/>
<path fill="#ffffff" stroke="none" d="M306 108 c3 -49 2 -51 -12 -33 -8 11
-12 25 -10 32 3 6 1 13 -4 15 -4 2 -6 16 -3 31 9 44 26 16 29 -45z"/>
<path fill="#000000" stroke="none" d="M81 79 c-1 -9 9 -24 22 -35 22 -19 22
-19 6 1 -9 11 -19 27 -22 35 -5 13 -6 13 -6 -1z"/>
<path fill="#000000" stroke="none" d="M140 10 c0 -5 12 -10 28 -9 24 0 25 1
7 9 -27 12 -35 12 -35 0z"/>
<path fill="#000000" stroke="none" d="M205 9 c-4 -5 3 -9 14 -9 26 0 35 15
11 17 -11 1 -22 -2 -25 -8z"/>
</g>
</svg>
