<?xml version="1.0" standalone="no"?>
<!DOCTYPE svg PUBLIC "-//W3C//DTD SVG 20010904//EN"
 "http://www.w3.org/TR/2001/REC-SVG-20010904/DTD/svg10.dtd">
<svg version="1.0" xmlns="http://www.w3.org/2000/svg"
 width="32.000000pt" height="32.000000pt" viewBox="0 0 32.000000 32.000000"
 preserveAspectRatio="xMidYMid meet">
<metadata>
Created by potrace 1.16, written by Peter Selinger 2001-2019
</metadata>
<g transform="translate(0.000000,32.000000) scale(0.100000,-0.100000)"
fill="#000000" stroke="none">
<path fill="#000000" stroke="none" d="M75 240 l-79 -80 58 -59 c33 -33 64
-57 69 -54 6 3 7 1 4 -4 -4 -6 3 -19 14 -29 20 -18 21 -17 102 64 l82 82 -80
80 c-44 44 -82 80 -85 80 -3 0 -41 -36 -85 -80z"/>
<path fill="#ffffff" stroke="none" d="M178 292 c2 -7 -6 -12 -17 -12 -21 0
-27 11 -14 24 9 9 26 2 31 -12z"/>
<path fill="#ffffff" stroke="none" d="M99 224 c-23 -24 -46 -41 -51 -38 -4 3
-8 -6 -8 -20 0 -27 -14 -34 -26 -15 -8 13 105 130 119 122 5 -3 -10 -25 -34
-49z"/>
<path fill="#ffffff" stroke="none" d="M231 244 c29 -32 31 -35 9 -24 -36 18
-60 41 -54 51 7 12 6 13 45 -27z"/>
<path fill="#ffffff" stroke="none" d="M280 194 c0 -8 -19 -13 -24 -6 -3 5 1
9 9 9 8 0 15 -2 15 -3z"/>
<path fill="#ffffff" stroke="none" d="M297 160 c-1 -12 -5 -16 -10 -11 -5 5
-6 14 -3 20 11 16 15 13 13 -9z"/>
<path fill="#ffffff" stroke="none" d="M138 145 c3 -3 -10 -4 -31 -2 -20 2
-40 6 -43 10 -3 3 11 4 31 2 20 -2 39 -6 43 -10z"/>
<path fill="#ffffff" stroke="none" d="M114 120 c17 4 40 5 51 3 11 -2 27 -4
36 -5 13 -2 10 -9 -14 -35 -17 -18 -34 -33 -36 -33 -3 0 0 5 7 12 8 8 5 14
-15 25 -30 16 -47 17 -38 3 4 -6 10 -8 14 -6 4 3 8 -2 8 -10 0 -9 -14 -2 -37
21 -20 19 -40 32 -45 28 -4 -5 -5 -2 0 5 6 12 10 11 22 -1 10 -10 24 -12 47
-7z"/>
<path fill="#ffffff" stroke="none" d="M250 116 c0 -2 -8 -10 -17 -17 -16 -13
-17 -12 -4 4 13 16 21 21 21 13z"/>
<path fill="#ffffff" stroke="none" d="M174 32 c-5 -4 -12 -11 -15 -15 -3 -5
-9 -2 -12 5 -3 9 3 14 15 15 11 1 16 -1 12 -5z"/>
</g>
</svg>
