<?xml version="1.0" standalone="no"?>
<!DOCTYPE svg PUBLIC "-//W3C//DTD SVG 20010904//EN"
 "http://www.w3.org/TR/2001/REC-SVG-20010904/DTD/svg10.dtd">
<svg version="1.0" xmlns="http://www.w3.org/2000/svg"
 width="32.000000pt" height="32.000000pt" viewBox="0 0 32.000000 32.000000"
 preserveAspectRatio="xMidYMid meet">
<metadata>
Created by potrace 1.16, written by Peter Selinger 2001-2019
</metadata>
<g transform="translate(0.000000,32.000000) scale(0.100000,-0.100000)"
fill="#000000" stroke="none">
<path fill="#000000" stroke="none" d="M0 159 c0 -142 2 -160 15 -149 12 10
15 10 15 0 0 -9 7 -7 20 5 12 10 30 19 40 20 27 2 35 12 22 28 -7 8 -9 17 -5
20 3 4 0 7 -8 7 -8 0 -30 17 -50 39 l-37 39 72 71 73 72 69 -71 c38 -39 70
-75 72 -79 3 -9 -54 -61 -60 -55 -2 2 -5 -17 -7 -42 -2 -38 1 -45 13 -41 8 3
20 0 26 -8 6 -7 19 -12 28 -11 15 3 17 21 20 159 l3 157 -161 0 -160 0 0 -161z"/>
<path fill="#000000" stroke="none" d="M92 223 c-49 -51 -52 -57 -37 -72 14
-14 17 -14 25 -1 8 12 10 12 10 1 0 -11 3 -11 17 0 10 8 14 9 10 2 -13 -21 10
-23 28 -3 23 25 37 25 59 1 18 -20 48 -18 67 5 9 11 -1 25 -47 69 -32 30 -63
55 -69 55 -5 0 -34 -26 -63 -57z"/>
<path fill="#000000" stroke="none" d="M202 68 c2 -7 -3 -12 -10 -10 -8 1 -11
-2 -8 -7 4 -5 2 -12 -4 -16 -5 -3 -10 -11 -10 -17 0 -6 8 -4 18 5 10 10 22 14
25 10 4 -3 7 3 7 15 0 11 -5 24 -10 27 -6 4 -9 1 -8 -7z"/>
<path fill="#000000" stroke="none" d="M130 31 c0 -5 5 -13 10 -16 6 -3 10 -2
10 4 0 5 -4 13 -10 16 -5 3 -10 2 -10 -4z"/>
</g>
</svg>
