<?xml version="1.0" standalone="no"?>
<!DOCTYPE svg PUBLIC "-//W3C//DTD SVG 20010904//EN"
 "http://www.w3.org/TR/2001/REC-SVG-20010904/DTD/svg10.dtd">
<svg version="1.0" xmlns="http://www.w3.org/2000/svg"
 width="32.000000pt" height="32.000000pt" viewBox="0 0 32.000000 32.000000"
 preserveAspectRatio="xMidYMid meet">
<metadata>
Created by potrace 1.16, written by Peter Selinger 2001-2019
</metadata>
<g transform="translate(0.000000,32.000000) scale(0.100000,-0.100000)"
fill="#000000" stroke="none">
<path fill="#000000" stroke="none" d="M0 159 c0 -142 2 -160 15 -149 12 10
15 10 15 0 0 -9 7 -7 21 6 11 10 26 19 32 20 7 0 19 2 27 2 9 1 -9 26 -45 62
l-60 60 78 78 77 77 77 -77 77 -78 -42 -43 c-29 -30 -42 -51 -42 -71 0 -20 4
-27 14 -23 8 3 20 0 26 -8 6 -7 19 -12 28 -11 15 3 17 21 20 159 l3 157 -161
0 -160 0 0 -161z"/>
<path fill="#000000" stroke="none" d="M189 33 c-17 -20 -18 -23 -3 -10 11 9
24 14 27 10 4 -3 7 1 7 10 0 22 -2 22 -31 -10z"/>
</g>
</svg>
