<?xml version="1.0" standalone="no"?>
<!DOCTYPE svg PUBLIC "-//W3C//DTD SVG 20010904//EN"
 "http://www.w3.org/TR/2001/REC-SVG-20010904/DTD/svg10.dtd">
<svg version="1.0" xmlns="http://www.w3.org/2000/svg"
 width="32.000000pt" height="32.000000pt" viewBox="0 0 32.000000 32.000000"
 preserveAspectRatio="xMidYMid meet">
<metadata>
Created by potrace 1.16, written by Peter Selinger 2001-2019
</metadata>
<g transform="translate(0.000000,32.000000) scale(0.100000,-0.100000)"
fill="#000000" stroke="none">
<path fill="#000000" stroke="none" d="M119 284 c-33 -17 -54 -41 -71 -84 -13
-30 -13 -42 0 -85 27 -94 119 -130 181 -71 45 43 62 101 44 150 -16 47 -39 75
-73 88 -39 15 -53 16 -81 2z"/>
<path fill="#ffffff" stroke="none" d="M226 246 c31 -31 34 -40 34 -91 0 -51
-3 -60 -34 -91 -45 -45 -90 -47 -131 -4 -23 25 -30 41 -33 90 -4 57 -3 61 31
95 47 47 86 48 133 1z"/>
</g>
</svg>
