<?xml version="1.0" standalone="no"?>
<!DOCTYPE svg PUBLIC "-//W3C//DTD SVG 20010904//EN"
 "http://www.w3.org/TR/2001/REC-SVG-20010904/DTD/svg10.dtd">
<svg version="1.0" xmlns="http://www.w3.org/2000/svg"
 width="32.000000pt" height="32.000000pt" viewBox="0 0 32.000000 32.000000"
 preserveAspectRatio="xMidYMid meet">
<metadata>
Created by potrace 1.16, written by Peter Selinger 2001-2019
</metadata>
<g transform="translate(0.000000,32.000000) scale(0.100000,-0.100000)"
fill="#000000" stroke="none">
<path fill="#000000" stroke="none" d="M0 160 l0 -160 160 0 160 0 0 160 0
160 -160 0 -160 0 0 -160z"/>
<path fill="#ffffff" stroke="none" d="M31 293 c1 -17 2 -17 6 0 5 19 53 24
53 5 0 -6 -10 -22 -22 -35 -20 -21 -20 -23 -4 -17 14 5 17 4 12 -5 -5 -7 -14
-10 -22 -7 -8 3 -17 -1 -20 -9 -8 -19 -24 -19 -24 0 0 8 7 15 15 15 8 0 15 5
15 11 0 6 -7 9 -15 5 -11 -4 -15 2 -15 24 0 32 19 43 21 13z"/>
<path fill="#ffffff" stroke="none" d="M155 298 c6 0 19 3 30 6 16 6 15 5 -3
-6 -18 -11 -20 -16 -10 -28 11 -12 10 -12 -4 -1 -14 10 -18 9 -27 -6 -6 -10
-11 -14 -11 -10 0 5 -6 5 -12 1 -9 -6 -5 -10 12 -15 l25 -7 -27 -1 c-28 -1
-37 12 -18 24 6 3 7 18 4 32 -6 23 -5 25 12 18 10 -4 24 -7 29 -7z"/>
<path fill="#ffffff" stroke="none" d="M170 215 c-7 -8 -17 -15 -22 -15 -5 0
-2 7 6 16 9 8 16 21 17 27 0 8 2 8 6 -1 3 -7 -1 -19 -7 -27z"/>
<path fill="#ffffff" stroke="none" d="M307 148 c-3 -7 -5 -2 -5 12 0 14 2 19
5 13 2 -7 2 -19 0 -25z"/>
<path fill="#ffffff" stroke="none" d="M307 68 c-2 -13 -4 -5 -4 17 -1 22 1
32 4 23 2 -10 2 -28 0 -40z"/>
<path fill="#ffffff" stroke="none" d="M283 77 c3 -8 2 -20 -3 -26 -5 -9 -7
-4 -7 13 0 29 2 32 10 13z"/>
<path fill="#ffffff" stroke="none" d="M188 23 c-21 -2 -55 -2 -75 0 -21 2 -4
4 37 4 41 0 58 -2 38 -4z"/>
<path fill="#000000" stroke="none" d="M120 290 c0 -13 18 -22 24 -11 3 5 -1
11 -9 15 -8 3 -15 1 -15 -4z"/>
</g>
</svg>
