<?xml version="1.0" standalone="no"?>
<!DOCTYPE svg PUBLIC "-//W3C//DTD SVG 20010904//EN"
 "http://www.w3.org/TR/2001/REC-SVG-20010904/DTD/svg10.dtd">
<svg version="1.0" xmlns="http://www.w3.org/2000/svg"
 width="32.000000pt" height="32.000000pt" viewBox="0 0 32.000000 32.000000"
 preserveAspectRatio="xMidYMid meet">
<metadata>
Created by potrace 1.16, written by Peter Selinger 2001-2019
</metadata>
<g transform="translate(0.000000,32.000000) scale(0.100000,-0.100000)"
fill="#000000" stroke="none">
<path fill="#000000" stroke="none" d="M0 160 l0 -159 160 0 160 -1 0 160 0
160 -160 0 -160 0 0 -160z"/>
<path fill="#ffffff" stroke="none" d="M239 262 c14 -10 33 -38 41 -60 13 -37
13 -47 0 -84 -16 -43 -66 -90 -78 -72 -11 16 -34 10 -43 -11 -7 -19 -8 -19 -8
2 -1 22 -19 27 -33 9 -11 -16 -59 24 -75 62 -27 65 0 141 60 168 40 18 102 12
136 -14z"/>
<path fill="#000000" stroke="none" d="M120 245 c0 -8 5 -15 10 -15 6 0 10 7
10 15 0 8 -4 15 -10 15 -5 0 -10 -7 -10 -15z"/>
<path fill="#000000" stroke="none" d="M150 245 c0 -8 5 -15 10 -15 6 0 10 7
10 15 0 8 -4 15 -10 15 -5 0 -10 -7 -10 -15z"/>
<path fill="#000000" stroke="none" d="M180 245 c0 -8 5 -15 10 -15 6 0 10 7
10 15 0 8 -4 15 -10 15 -5 0 -10 -7 -10 -15z"/>
<path fill="#000000" stroke="none" d="M95 240 c-3 -5 -1 -10 4 -10 6 0 11 5
11 10 0 6 -2 10 -4 10 -3 0 -8 -4 -11 -10z"/>
<path fill="#000000" stroke="none" d="M210 240 c0 -5 5 -10 11 -10 5 0 7 5 4
10 -3 6 -8 10 -11 10 -2 0 -4 -4 -4 -10z"/>
<path fill="#000000" stroke="none" d="M64 195 c-9 -35 3 -89 24 -108 21 -18
88 -17 84 2 -1 7 2 10 7 6 6 -3 8 -12 4 -20 -4 -11 0 -14 13 -9 48 18 74 73
60 129 -6 24 -9 25 -96 25 -87 0 -90 -1 -96 -25z"/>
</g>
</svg>
