<?xml version="1.0" standalone="no"?>
<!DOCTYPE svg PUBLIC "-//W3C//DTD SVG 20010904//EN"
 "http://www.w3.org/TR/2001/REC-SVG-20010904/DTD/svg10.dtd">
<svg version="1.0" xmlns="http://www.w3.org/2000/svg"
 width="32.000000pt" height="32.000000pt" viewBox="0 0 32.000000 32.000000"
 preserveAspectRatio="xMidYMid meet">
<metadata>
Created by potrace 1.16, written by Peter Selinger 2001-2019
</metadata>
<g transform="translate(0.000000,32.000000) scale(0.100000,-0.100000)"
fill="#000000" stroke="none">
<path fill="#000000" stroke="none" d="M103 275 c-17 -7 -39 -25 -48 -38 -21
-33 -30 -93 -16 -110 6 -8 7 -18 3 -22 -4 -5 -1 -5 6 -1 6 4 12 3 12 -3 0 -10
61 -51 76 -51 5 0 -5 9 -23 20 -17 10 -37 28 -43 40 -15 29 -9 119 10 133 13
11 13 10 0 -8 -13 -17 -11 -17 14 3 101 78 227 -58 137 -149 -16 -16 -25 -29
-20 -29 6 0 7 -5 3 -12 -5 -7 -2 -8 7 -3 35 20 49 39 43 58 -3 11 -2 17 2 14
5 -3 7 16 6 41 -3 36 -11 55 -35 80 -17 17 -39 32 -50 32 -12 0 -16 4 -11 13
5 7 0 6 -11 -3 -11 -9 -16 -10 -11 -2 9 16 -10 15 -51 -3z"/>
<path fill="#ffffff" stroke="none" d="M250 75 c-7 -8 -17 -15 -23 -15 -5 0
-2 9 8 20 21 23 35 19 15 -5z"/>
<path fill="#000000" stroke="none" d="M173 170 c0 -41 2 -58 4 -37 2 20 2 54
0 75 -2 20 -4 3 -4 -38z"/>
<path fill="#000000" stroke="none" d="M83 175 c0 -22 2 -30 4 -17 2 12 2 30
0 40 -3 9 -5 -1 -4 -23z"/>
<path fill="#000000" stroke="none" d="M113 155 c0 -33 2 -45 4 -27 2 18 2 45
0 60 -2 15 -4 0 -4 -33z"/>
<path fill="#000000" stroke="none" d="M203 145 c0 -33 2 -45 4 -27 2 18 2 45
0 60 -2 15 -4 0 -4 -33z"/>
<path fill="#000000" stroke="none" d="M143 135 c0 -33 2 -45 4 -27 2 18 2 45
0 60 -2 15 -4 0 -4 -33z"/>
<path fill="#000000" stroke="none" d="M232 155 c0 -16 2 -22 5 -12 2 9 2 23
0 30 -3 6 -5 -1 -5 -18z"/>
<path fill="#000000" stroke="none" d="M158 53 c6 -2 18 -2 25 0 6 3 1 5 -13
5 -14 0 -19 -2 -12 -5z"/>
</g>
</svg>
