<?xml version="1.0" standalone="no"?>
<!DOCTYPE svg PUBLIC "-//W3C//DTD SVG 20010904//EN"
 "http://www.w3.org/TR/2001/REC-SVG-20010904/DTD/svg10.dtd">
<svg version="1.0" xmlns="http://www.w3.org/2000/svg"
 width="32.000000pt" height="32.000000pt" viewBox="0 0 32.000000 32.000000"
 preserveAspectRatio="xMidYMid meet">
<metadata>
Created by potrace 1.16, written by Peter Selinger 2001-2019
</metadata>
<g transform="translate(0.000000,32.000000) scale(0.100000,-0.100000)"
fill="#000000" stroke="none">
<path fill="#000000" stroke="none" d="M0 160 l0 -160 160 0 160 0 0 160 0
160 -160 0 -160 0 0 -160z"/>
<path fill="#ffffff" stroke="none" d="M239 262 c58 -43 64 -140 12 -193 -76
-75 -204 -30 -217 77 -14 110 115 183 205 116z"/>
<path fill="#000000" stroke="none" d="M120 160 c0 -60 4 -100 10 -100 6 0 10
40 10 100 0 60 -4 100 -10 100 -6 0 -10 -40 -10 -100z"/>
<path fill="#000000" stroke="none" d="M150 160 c0 -60 4 -100 10 -100 6 0 10
40 10 100 0 60 -4 100 -10 100 -6 0 -10 -40 -10 -100z"/>
<path fill="#000000" stroke="none" d="M180 160 c0 -60 4 -100 10 -100 6 0 10
40 10 100 0 60 -4 100 -10 100 -6 0 -10 -40 -10 -100z"/>
<path fill="#000000" stroke="none" d="M97 243 c-11 -10 -8 -161 3 -168 6 -4
10 27 10 84 0 91 -1 97 -13 84z"/>
<path fill="#000000" stroke="none" d="M210 160 c0 -58 4 -89 10 -85 13 8 13
162 0 170 -6 4 -10 -27 -10 -85z"/>
<path fill="#000000" stroke="none" d="M66 204 c-9 -24 -7 -77 4 -94 7 -11 10
3 10 48 0 63 -3 74 -14 46z"/>
<path fill="#000000" stroke="none" d="M240 160 c0 -46 3 -61 10 -50 5 8 10
31 10 50 0 19 -5 42 -10 50 -7 11 -10 -4 -10 -50z"/>
</g>
</svg>
