<?xml version="1.0" standalone="no"?>
<!DOCTYPE svg PUBLIC "-//W3C//DTD SVG 20010904//EN"
 "http://www.w3.org/TR/2001/REC-SVG-20010904/DTD/svg10.dtd">
<svg version="1.0" xmlns="http://www.w3.org/2000/svg"
 width="32.000000pt" height="32.000000pt" viewBox="0 0 32.000000 32.000000"
 preserveAspectRatio="xMidYMid meet">
<metadata>
Created by potrace 1.16, written by Peter Selinger 2001-2019
</metadata>
<g transform="translate(0.000000,32.000000) scale(0.100000,-0.100000)"
fill="#000000" stroke="none">
<path fill="#000000" stroke="none" d="M82 273 c6 -7 15 -10 21 -6 6 3 7 1 3
-6 -5 -8 0 -10 18 -7 14 3 30 7 35 10 5 4 13 1 16 -5 4 -5 14 -8 22 -5 8 4 11
1 7 -5 -4 -6 1 -9 12 -8 11 2 25 0 33 -5 10 -7 12 -5 6 5 -6 11 -5 11 5 2 19
-18 38 -5 32 23 -4 24 -5 24 -113 22 -86 -2 -106 -5 -97 -15z"/>
<path fill="#000000" stroke="none" d="M19 258 c-1 -13 -1 -81 1 -168 0 -56
11 -74 38 -66 18 6 22 17 25 74 l3 67 2 -72 c1 -40 5 -73 10 -73 4 0 17 3 30
6 22 6 23 10 20 108 l-3 101 -32 0 c-25 0 -33 4 -33 17 0 13 -8 18 -30 18 -17
0 -30 -5 -31 -12z"/>
<path fill="#000000" stroke="none" d="M160 114 c0 -84 2 -95 16 -90 9 3 20 6
25 6 5 0 9 40 9 90 0 89 0 90 -25 90 -25 0 -25 0 -25 -96z"/>
<path fill="#000000" stroke="none" d="M243 153 c-7 -3 -13 -17 -13 -31 l0
-27 15 29 c17 32 16 36 -2 29z"/>
<path fill="#000000" stroke="none" d="M273 125 c0 -22 2 -30 4 -17 2 12 2 30
0 40 -3 9 -5 -1 -4 -23z"/>
<path fill="#000000" stroke="none" d="M271 64 c0 -11 3 -14 6 -6 3 7 2 16 -1
19 -3 4 -6 -2 -5 -13z"/>
</g>
</svg>
