<?xml version="1.0" standalone="no"?>
<!DOCTYPE svg PUBLIC "-//W3C//DTD SVG 20010904//EN"
 "http://www.w3.org/TR/2001/REC-SVG-20010904/DTD/svg10.dtd">
<svg version="1.0" xmlns="http://www.w3.org/2000/svg"
 width="32.000000pt" height="32.000000pt" viewBox="0 0 32.000000 32.000000"
 preserveAspectRatio="xMidYMid meet">
<metadata>
Created by potrace 1.16, written by Peter Selinger 2001-2019
</metadata>
<g transform="translate(0.000000,32.000000) scale(0.100000,-0.100000)"
fill="#000000" stroke="none">
<path fill="#000000" stroke="none" d="M0 160 l0 -160 160 0 160 0 0 160 0
160 -160 0 -160 0 0 -160z"/>
<path fill="#ffffff" stroke="none" d="M62 273 c1 -21 0 -54 -1 -75 -1 -20 3
-39 8 -43 7 -4 11 16 11 60 0 63 1 66 23 63 21 -3 22 -8 23 -85 0 -45 3 -85 7
-89 4 -4 7 27 7 70 0 75 1 77 23 74 21 -3 22 -8 22 -85 0 -45 3 -85 8 -89 4
-4 7 25 7 64 0 64 2 72 19 72 25 0 33 -23 25 -79 -3 -25 -1 -57 5 -71 8 -21
10 -13 10 43 1 60 3 67 21 67 12 0 20 -7 20 -17 1 -10 2 -46 4 -81 1 -34 -1
-57 -5 -51 -4 7 -16 9 -28 6 -12 -3 -21 -1 -21 4 0 6 -15 16 -34 24 -19 8 -37
19 -41 25 -3 5 -17 10 -31 10 -15 0 -24 6 -24 15 0 8 -9 15 -19 15 -28 0 -52
11 -45 21 3 5 -6 9 -20 9 -26 0 -26 1 -26 80 0 79 0 80 25 80 22 0 25 -5 27
-37z"/>
</g>
</svg>
