<?xml version="1.0" standalone="no"?>
<!DOCTYPE svg PUBLIC "-//W3C//DTD SVG 20010904//EN"
 "http://www.w3.org/TR/2001/REC-SVG-20010904/DTD/svg10.dtd">
<svg version="1.0" xmlns="http://www.w3.org/2000/svg"
 width="32.000000pt" height="32.000000pt" viewBox="0 0 32.000000 32.000000"
 preserveAspectRatio="xMidYMid meet">
<metadata>
Created by potrace 1.16, written by Peter Selinger 2001-2019
</metadata>
<g transform="translate(0.000000,32.000000) scale(0.100000,-0.100000)"
fill="#000000" stroke="none">
<path fill="#000000" stroke="none" d="M0 300 c0 -12 10 -25 25 -32 14 -6 25
-15 25 -19 0 -15 -21 -20 -36 -8 -13 10 -14 -4 -13 -115 l1 -126 159 0 c137 0
159 2 159 16 0 8 -4 12 -10 9 -6 -4 -10 10 -10 35 0 23 4 39 9 36 5 -3 8 27 8
68 l-1 75 -31 6 c-39 7 -80 39 -71 54 4 6 12 9 17 6 5 -4 9 -1 9 4 0 7 -30 11
-80 11 -59 0 -80 -3 -79 -12 3 -26 -1 -39 -11 -33 -5 3 -10 15 -10 26 0 14 -7
19 -30 19 -23 0 -30 -4 -30 -20z"/>
<path fill="#ffffff" stroke="none" d="M155 298 c6 0 19 3 30 6 16 6 15 5 -3
-6 -18 -11 -20 -16 -10 -28 11 -12 10 -12 -4 -1 -14 10 -18 9 -27 -6 -6 -10
-11 -14 -11 -10 0 5 -6 5 -12 1 -9 -6 -5 -10 12 -15 l25 -7 -27 -1 c-28 -1
-37 12 -18 24 6 3 7 18 4 32 -6 23 -5 25 12 18 10 -4 24 -7 29 -7z"/>
<path fill="#ffffff" stroke="none" d="M170 215 c-7 -8 -17 -15 -22 -15 -5 0
-2 7 6 16 9 8 16 21 17 27 0 8 2 8 6 -1 3 -7 -1 -19 -7 -27z"/>
<path fill="#ffffff" stroke="none" d="M25 210 c-3 -5 0 -10 7 -11 10 0 10 -2
0 -6 -6 -2 -10 -8 -8 -12 3 -4 1 -13 -5 -21 -6 -11 -9 -4 -9 23 0 20 5 37 11
37 5 0 7 -4 4 -10z"/>
<path fill="#ffffff" stroke="none" d="M300 183 c0 -27 -3 -34 -9 -23 -6 8 -7
18 -5 22 3 4 -1 8 -8 9 -10 0 -10 2 0 6 6 2 10 9 6 14 -3 5 0 9 5 9 6 0 11
-17 11 -37z"/>
<path fill="#000000" stroke="none" d="M120 290 c0 -13 18 -22 24 -11 3 5 -1
11 -9 15 -8 3 -15 1 -15 -4z"/>
<path fill="#000000" stroke="none" d="M260 315 c0 -11 35 -45 47 -45 7 0 13
11 13 25 0 21 -5 25 -30 25 -16 0 -30 -2 -30 -5z"/>
</g>
</svg>
