<?xml version="1.0" standalone="no"?>
<!DOCTYPE svg PUBLIC "-//W3C//DTD SVG 20010904//EN"
 "http://www.w3.org/TR/2001/REC-SVG-20010904/DTD/svg10.dtd">
<svg version="1.0" xmlns="http://www.w3.org/2000/svg"
 width="32.000000pt" height="32.000000pt" viewBox="0 0 32.000000 32.000000"
 preserveAspectRatio="xMidYMid meet">
<metadata>
Created by potrace 1.16, written by Peter Selinger 2001-2019
</metadata>
<g transform="translate(0.000000,32.000000) scale(0.100000,-0.100000)"
fill="#000000" stroke="none">
<path fill="#000000" stroke="none" d="M80 310 c0 -6 47 -10 120 -10 73 0 120
4 120 10 0 6 -47 10 -120 10 -73 0 -120 -4 -120 -10z"/>
<path fill="#000000" stroke="none" d="M60 236 c0 -74 0 -75 -27 -79 -26 -4
-26 -4 5 -6 l32 -1 0 80 c0 44 -2 80 -5 80 -3 0 -5 -33 -5 -74z"/>
<path fill="#000000" stroke="none" d="M120 206 c0 -74 0 -75 -27 -79 -26 -4
-26 -4 5 -6 l32 -1 0 80 c0 44 -2 80 -5 80 -3 0 -5 -33 -5 -74z"/>
<path fill="#000000" stroke="none" d="M180 176 c0 -74 0 -75 -27 -79 -26 -4
-26 -4 5 -6 l32 -1 0 80 c0 44 -2 80 -5 80 -3 0 -5 -33 -5 -74z"/>
<path fill="#000000" stroke="none" d="M240 146 c0 -69 -2 -75 -22 -79 -20 -4
-19 -4 5 -6 l27 -1 0 80 c0 44 -2 80 -5 80 -3 0 -5 -33 -5 -74z"/>
<path fill="#000000" stroke="none" d="M300 111 c0 -68 -1 -70 -27 -74 -26 -4
-26 -4 5 -6 l32 -1 0 75 c0 41 -2 75 -5 75 -3 0 -5 -31 -5 -69z"/>
</g>
</svg>
