<?xml version="1.0" standalone="no"?>
<!DOCTYPE svg PUBLIC "-//W3C//DTD SVG 20010904//EN"
 "http://www.w3.org/TR/2001/REC-SVG-20010904/DTD/svg10.dtd">
<svg version="1.0" xmlns="http://www.w3.org/2000/svg"
 width="32.000000pt" height="32.000000pt" viewBox="0 0 32.000000 32.000000"
 preserveAspectRatio="xMidYMid meet">
<metadata>
Created by potrace 1.16, written by Peter Selinger 2001-2019
</metadata>
<g transform="translate(0.000000,32.000000) scale(0.100000,-0.100000)"
fill="#000000" stroke="none">
<path fill="#000000" stroke="none" d="M0 160 l0 -160 160 0 160 0 0 150 0
150 -120 0 c-73 0 -120 4 -120 10 0 6 -18 10 -40 10 l-40 0 0 -160z"/>
<path fill="#ffffff" stroke="none" d="M70 230 l0 -80 -32 1 c-31 2 -31 2 -5
6 27 4 27 5 27 79 0 41 2 74 5 74 3 0 5 -36 5 -80z"/>
<path fill="#ffffff" stroke="none" d="M130 200 l0 -80 -32 1 c-31 2 -31 2 -5
6 27 4 27 5 27 79 0 41 2 74 5 74 3 0 5 -36 5 -80z"/>
<path fill="#ffffff" stroke="none" d="M190 170 l0 -80 -32 1 c-31 2 -31 2 -5
6 27 4 27 5 27 79 0 41 2 74 5 74 3 0 5 -36 5 -80z"/>
<path fill="#ffffff" stroke="none" d="M250 140 l0 -80 -27 1 c-24 2 -25 2 -5
6 20 4 22 10 22 79 0 41 2 74 5 74 3 0 5 -36 5 -80z"/>
<path fill="#ffffff" stroke="none" d="M310 105 l0 -75 -32 1 c-31 2 -31 2 -5
6 26 4 27 6 27 74 0 38 2 69 5 69 3 0 5 -34 5 -75z"/>
</g>
</svg>
