<?xml version="1.0" standalone="no"?>
<!DOCTYPE svg PUBLIC "-//W3C//DTD SVG 20010904//EN"
 "http://www.w3.org/TR/2001/REC-SVG-20010904/DTD/svg10.dtd">
<svg version="1.0" xmlns="http://www.w3.org/2000/svg"
 width="32.000000pt" height="32.000000pt" viewBox="0 0 32.000000 32.000000"
 preserveAspectRatio="xMidYMid meet">
<metadata>
Created by potrace 1.16, written by Peter Selinger 2001-2019
</metadata>
<g transform="translate(0.000000,32.000000) scale(0.100000,-0.100000)"
fill="#000000" stroke="none">
<path fill="#000000" stroke="none" d="M0 160 l0 -160 160 0 160 0 0 160 0
160 -160 0 -160 0 0 -160z"/>
<path fill="#ffffff" stroke="none" d="M226 253 c13 -29 13 -41 3 -59 -6 -13
-17 -22 -23 -21 -6 1 -10 -4 -8 -11 1 -8 -2 -11 -8 -7 -5 3 -10 2 -10 -4 0 -5
6 -11 13 -14 6 -3 2 -4 -10 -4 -30 2 -29 15 3 42 21 18 25 29 22 61 -3 41 -17
48 -60 29 -13 -5 -18 -3 -18 9 0 12 10 16 41 16 37 0 41 -3 55 -37z"/>
<path fill="#ffffff" stroke="none" d="M103 222 c-7 -8 -11 -18 -8 -23 4 -5 0
-6 -8 -3 -18 6 -16 46 3 61 20 16 32 -16 13 -35z"/>
<path fill="#ffffff" stroke="none" d="M40 139 c0 -6 -4 -7 -10 -4 -5 3 -10
11 -10 16 0 6 5 7 10 4 6 -3 10 -11 10 -16z"/>
<path fill="#ffffff" stroke="none" d="M91 150 c10 -6 19 -20 19 -30 0 -22
-15 -27 -26 -8 -4 7 -3 8 4 4 7 -4 12 -1 12 9 0 12 -4 14 -19 6 -14 -8 -20 -7
-24 3 -10 25 4 31 34 16z"/>
<path fill="#ffffff" stroke="none" d="M240 140 c0 -5 -4 -10 -10 -10 -5 0
-10 5 -10 10 0 6 5 10 10 10 6 0 10 -4 10 -10z"/>
<path fill="#ffffff" stroke="none" d="M285 130 c3 -5 1 -10 -4 -10 -6 0 -11
5 -11 10 0 6 2 10 4 10 3 0 8 -4 11 -10z"/>
<path fill="#ffffff" stroke="none" d="M292 68 c-14 -14 -44 -20 -36 -7 3 5
10 7 15 4 5 -4 9 -1 9 4 0 6 5 11 12 11 9 0 9 -3 0 -12z"/>
<path fill="#ffffff" stroke="none" d="M137 45 c-7 -13 -14 -20 -15 -14 -2 5
2 16 8 24 18 21 20 18 7 -10z"/>
<path fill="#ffffff" stroke="none" d="M177 44 c-3 -3 -12 -4 -19 -1 -8 3 -5
6 6 6 11 1 17 -2 13 -5z"/>
<path fill="#ffffff" stroke="none" d="M254 25 c16 -13 14 -14 -23 -13 -39 0
-49 7 -34 21 10 11 37 7 57 -8z"/>
</g>
</svg>
