<?xml version="1.0" standalone="no"?>
<!DOCTYPE svg PUBLIC "-//W3C//DTD SVG 20010904//EN"
 "http://www.w3.org/TR/2001/REC-SVG-20010904/DTD/svg10.dtd">
<svg version="1.0" xmlns="http://www.w3.org/2000/svg"
 width="32.000000pt" height="32.000000pt" viewBox="0 0 32.000000 32.000000"
 preserveAspectRatio="xMidYMid meet">
<metadata>
Created by potrace 1.16, written by Peter Selinger 2001-2019
</metadata>
<g transform="translate(0.000000,32.000000) scale(0.100000,-0.100000)"
fill="#000000" stroke="none">
<path fill="#000000" stroke="none" d="M150 293 c-8 -3 -18 -11 -22 -17 -4 -6
-15 -11 -25 -11 -9 0 -22 -10 -29 -22 -6 -13 -14 -20 -19 -15 -5 4 -5 1 -1 -6
4 -6 -1 -24 -11 -40 -27 -39 -26 -165 0 -170 13 -3 18 2 17 15 -4 33 0 37 15
17 13 -18 14 -18 9 6 -5 24 -5 24 10 6 9 -11 16 -15 16 -9 0 7 -5 15 -10 18
-6 3 -10 13 -10 22 0 9 3 13 7 10 3 -4 12 -2 20 4 11 10 11 15 1 27 -11 13
-11 14 2 7 12 -6 13 -5 2 6 -6 7 -28 13 -49 13 -20 0 -31 2 -24 4 6 2 9 8 5
13 -3 5 4 9 15 9 11 0 23 -4 26 -10 3 -5 12 -10 18 -9 9 0 8 2 -1 6 -6 2 -10
9 -7 13 3 5 12 7 19 4 8 -3 17 -1 21 5 3 6 -1 11 -9 11 -19 0 -29 16 -20 32 5
7 11 5 21 -8 12 -16 15 -17 23 -4 6 8 8 21 5 28 -6 17 2 15 24 -7 16 -16 17
-20 5 -25 -8 -3 -14 -11 -14 -18 0 -9 3 -9 10 2 5 8 12 11 17 7 4 -4 -5 -18
-20 -31 -15 -13 -27 -32 -28 -42 -4 -34 1 -51 14 -51 6 0 19 -2 27 -4 8 -2 14
2 13 9 -2 6 4 12 12 12 13 0 14 -4 4 -22 -21 -39 -46 -61 -54 -47 -5 7 -4 10
3 5 6 -4 10 1 9 13 -1 16 -4 18 -16 8 -12 -9 -13 -9 -7 1 14 23 -19 12 -45
-16 l-26 -27 91 -3 91 -3 16 36 c9 19 13 38 8 40 -4 3 -5 20 -3 38 7 42 -33
120 -77 153 -34 25 -43 27 -69 17z"/>
<path fill="#ffffff" stroke="none" d="M254 168 c-5 -16 -3 -19 7 -12 12 6 12
5 0 -9 -7 -9 -9 -17 -4 -17 14 0 10 -63 -4 -67 -8 -3 -11 3 -8 16 2 11 0 23
-6 26 -6 4 -5 13 1 24 6 12 6 21 -1 28 -12 12 -1 45 12 37 6 -3 7 -15 3 -26z"/>
<path fill="#ffffff" stroke="none" d="M206 118 c-9 -5 -14 -13 -11 -19 4 -5
2 -9 -2 -9 -12 0 -33 22 -33 34 0 6 5 5 11 -1 13 -13 38 5 40 29 1 7 4 4 6 -6
3 -11 -2 -23 -11 -28z"/>
<path fill="#ffffff" stroke="none" d="M47 103 c-3 -10 -5 -4 -5 12 0 17 2 24
5 18 2 -7 2 -21 0 -30z"/>
<path fill="#ffffff" stroke="none" d="M70 80 c-8 -5 -19 -10 -25 -10 -5 0 -3
5 5 10 8 5 20 10 25 10 6 0 3 -5 -5 -10z"/>
<path fill="#ffffff" stroke="none" d="M141 37 c-10 -9 -11 -8 -5 6 3 10 9 15
12 12 3 -3 0 -11 -7 -18z"/>
</g>
</svg>
