<?xml version="1.0" standalone="no"?>
<!DOCTYPE svg PUBLIC "-//W3C//DTD SVG 20010904//EN"
 "http://www.w3.org/TR/2001/REC-SVG-20010904/DTD/svg10.dtd">
<svg version="1.0" xmlns="http://www.w3.org/2000/svg"
 width="32.000000pt" height="32.000000pt" viewBox="0 0 32.000000 32.000000"
 preserveAspectRatio="xMidYMid meet">
<metadata>
Created by potrace 1.16, written by Peter Selinger 2001-2019
</metadata>
<g transform="translate(0.000000,32.000000) scale(0.100000,-0.100000)"
fill="#000000" stroke="none">
<path fill="#000000" stroke="none" d="M0 160 l0 -160 160 0 160 0 0 160 0
160 -72 -1 c-62 0 -69 -2 -45 -11 17 -6 26 -15 23 -23 -2 -7 2 -16 11 -19 8
-4 13 -13 9 -21 -3 -8 -1 -17 5 -21 7 -4 6 -10 -1 -19 -8 -10 -8 -15 0 -20 8
-5 8 -11 0 -20 -7 -8 -9 -18 -6 -24 3 -5 -1 -11 -9 -15 -8 -3 -15 -12 -15 -20
0 -20 -47 -29 -81 -14 -29 13 -54 57 -52 91 5 56 85 78 91 25 4 -31 14 -35 31
-14 17 20 3 64 -25 83 -25 16 -73 11 -86 -10 -4 -6 -10 -8 -14 -4 -4 4 2 16
14 27 12 12 22 23 22 25 0 3 -27 5 -60 5 l-60 0 0 -160z"/>
<path fill="#ffffff" stroke="none" d="M48 196 c-4 -37 -22 -33 -21 4 2 44 2
45 14 33 6 -6 9 -23 7 -37z"/>
<path fill="#ffffff" stroke="none" d="M294 198 c0 -18 -5 -33 -10 -33 -11 0
-18 41 -10 61 9 25 21 8 20 -28z"/>
<path fill="#ffffff" stroke="none" d="M60 111 c0 -10 -7 -24 -15 -31 -18 -15
-20 -46 -2 -53 6 -3 3 -6 -8 -6 -16 -1 -20 5 -19 27 1 34 12 55 25 47 5 -4 9
1 9 9 0 8 -8 17 -17 19 -14 4 -12 5 5 6 15 1 22 -5 22 -18z"/>
<path fill="#ffffff" stroke="none" d="M288 123 c-10 -2 -18 -11 -18 -19 0 -8
4 -13 9 -9 13 8 24 -13 25 -47 1 -22 -3 -28 -19 -27 -11 0 -14 3 -7 6 17 7 15
38 -3 53 -24 20 -19 50 8 49 16 -1 18 -2 5 -6z"/>
<path fill="#ffffff" stroke="none" d="M226 46 c8 -8 14 -16 14 -18 0 -2 -36
-3 -80 -3 -44 0 -80 1 -80 3 0 31 118 45 146 18z"/>
<path fill="#000000" stroke="none" d="M133 43 c15 -2 39 -2 55 0 15 2 2 4
-28 4 -30 0 -43 -2 -27 -4z"/>
</g>
</svg>
