<?xml version="1.0" standalone="no"?>
<!DOCTYPE svg PUBLIC "-//W3C//DTD SVG 20010904//EN"
 "http://www.w3.org/TR/2001/REC-SVG-20010904/DTD/svg10.dtd">
<svg version="1.0" xmlns="http://www.w3.org/2000/svg"
 width="32.000000pt" height="32.000000pt" viewBox="0 0 32.000000 32.000000"
 preserveAspectRatio="xMidYMid meet">
<metadata>
Created by potrace 1.16, written by Peter Selinger 2001-2019
</metadata>
<g transform="translate(0.000000,32.000000) scale(0.100000,-0.100000)"
fill="#000000" stroke="none">
<path fill="#000000" stroke="none" d="M0 160 l0 -160 160 0 160 0 0 160 0
160 -160 0 -160 0 0 -160z"/>
<path fill="#ffffff" stroke="none" d="M50 199 c0 -17 -4 -28 -9 -25 -10 7
-20 53 -13 60 11 11 22 -7 22 -35z"/>
<path fill="#ffffff" stroke="none" d="M170 236 c0 -2 3 -12 7 -21 5 -14 2
-16 -16 -10 -26 8 -51 -10 -51 -37 0 -11 -5 -18 -12 -15 -18 6 -11 59 9 75 16
11 63 17 63 8z"/>
<path fill="#ffffff" stroke="none" d="M292 205 c-2 -14 -8 -28 -13 -31 -10
-6 -12 49 -3 59 13 12 21 -3 16 -28z"/>
<path fill="#ffffff" stroke="none" d="M136 125 c14 -13 13 -15 -4 -15 -11 0
-25 7 -32 15 -10 12 -9 15 4 15 10 0 24 -7 32 -15z"/>
<path fill="#ffffff" stroke="none" d="M51 87 c-10 -9 -11 -8 -5 6 3 10 9 15
12 12 3 -3 0 -11 -7 -18z"/>
<path fill="#ffffff" stroke="none" d="M274 94 c3 -8 2 -12 -4 -9 -6 3 -10 10
-10 16 0 14 7 11 14 -7z"/>
<path fill="#ffffff" stroke="none" d="M157 94 c-3 -3 -12 -4 -19 -1 -8 3 -5
6 6 6 11 1 17 -2 13 -5z"/>
<path fill="#ffffff" stroke="none" d="M193 53 c-18 -2 -48 -2 -65 0 -18 2 -4
4 32 4 36 0 50 -2 33 -4z"/>
<path fill="#ffffff" stroke="none" d="M173 33 c-7 -2 -19 -2 -25 0 -7 3 -2 5
12 5 14 0 19 -2 13 -5z"/>
</g>
</svg>
