<?xml version="1.0" standalone="no"?>
<!DOCTYPE svg PUBLIC "-//W3C//DTD SVG 20010904//EN"
 "http://www.w3.org/TR/2001/REC-SVG-20010904/DTD/svg10.dtd">
<svg version="1.0" xmlns="http://www.w3.org/2000/svg"
 width="32.000000pt" height="32.000000pt" viewBox="0 0 32.000000 32.000000"
 preserveAspectRatio="xMidYMid meet">
<metadata>
Created by potrace 1.16, written by Peter Selinger 2001-2019
</metadata>
<g transform="translate(0.000000,32.000000) scale(0.100000,-0.100000)"
fill="#000000" stroke="none">
<path fill="#000000" stroke="none" d="M118 313 c-10 -2 -18 -11 -18 -19 0 -8
-7 -17 -15 -20 -8 -4 -12 -10 -9 -15 3 -6 1 -16 -6 -24 -8 -9 -8 -15 0 -20 8
-5 8 -10 0 -20 -7 -9 -8 -15 -1 -19 6 -4 8 -13 5 -21 -4 -8 1 -17 9 -21 9 -3
13 -11 11 -19 -6 -14 44 -35 80 -35 24 0 71 45 62 59 -3 5 1 12 10 15 13 5 14
9 5 20 -9 10 -9 16 -1 21 8 5 8 10 0 20 -8 10 -8 15 0 20 7 5 5 11 -7 20 -10
7 -15 17 -11 21 5 4 -6 16 -22 26 -29 17 -56 21 -92 11z"/>
<path fill="#000000" stroke="none" d="M25 227 c-9 -22 -2 -62 10 -60 6 1 11
14 13 29 4 32 -14 56 -23 31z"/>
<path fill="#000000" stroke="none" d="M275 227 c-9 -22 -2 -62 10 -60 6 1 11
14 13 29 4 32 -14 56 -23 31z"/>
<path fill="#000000" stroke="none" d="M23 123 c21 -6 22 -17 2 -33 -8 -7 -15
-25 -15 -40 0 -28 1 -28 75 -35 41 -4 109 -4 150 0 74 7 75 7 75 35 0 15 -7
33 -15 40 -20 16 -19 27 3 33 10 3 6 5 -10 6 -21 1 -28 -4 -28 -18 0 -10 7
-24 15 -31 8 -7 15 -21 15 -31 0 -24 -42 -26 -64 -4 -20 20 -112 20 -132 0
-22 -22 -64 -20 -64 4 0 10 7 24 15 31 8 7 15 21 15 31 0 14 -7 19 -27 18 -17
-1 -21 -3 -10 -6z"/>
</g>
</svg>
