<?xml version="1.0" standalone="no"?>
<!DOCTYPE svg PUBLIC "-//W3C//DTD SVG 20010904//EN"
 "http://www.w3.org/TR/2001/REC-SVG-20010904/DTD/svg10.dtd">
<svg version="1.0" xmlns="http://www.w3.org/2000/svg"
 width="32.000000pt" height="32.000000pt" viewBox="0 0 32.000000 32.000000"
 preserveAspectRatio="xMidYMid meet">
<metadata>
Created by potrace 1.16, written by Peter Selinger 2001-2019
</metadata>
<g transform="translate(0.000000,32.000000) scale(0.100000,-0.100000)"
fill="#000000" stroke="none">
<path fill="#000000" stroke="none" d="M96 290 c-10 -10 -15 -23 -12 -28 3 -6
-1 -13 -10 -16 -12 -5 -13 -10 -5 -19 7 -10 7 -17 0 -24 -7 -7 -7 -13 -1 -17
6 -3 13 3 17 14 8 25 38 42 59 34 19 -7 19 -9 6 -34 -8 -15 -6 -21 9 -30 27
-14 47 -4 61 30 30 71 -70 144 -124 90z"/>
<path fill="#000000" stroke="none" d="M29 237 c-4 -33 -1 -67 7 -67 13 -1 17
51 5 63 -6 6 -11 8 -12 4z"/>
<path fill="#000000" stroke="none" d="M274 226 c-8 -20 -1 -61 10 -61 11 0
14 65 3 72 -4 2 -10 -2 -13 -11z"/>
<path fill="#000000" stroke="none" d="M66 161 c-3 -5 1 -11 9 -14 9 -4 12 -1
8 9 -6 16 -10 17 -17 5z"/>
<path fill="#000000" stroke="none" d="M33 123 c9 -2 17 -11 17 -19 0 -8 -4
-13 -9 -9 -13 8 -24 -13 -25 -47 -1 -22 3 -28 19 -27 11 0 14 3 8 6 -18 7 -16
38 2 53 24 20 19 50 -7 49 -17 -1 -19 -2 -5 -6z"/>
<path fill="#000000" stroke="none" d="M87 123 c-11 -10 51 -43 81 -42 25 1
24 2 -8 11 -19 5 -42 16 -51 24 -9 8 -19 11 -22 7z"/>
<path fill="#000000" stroke="none" d="M260 111 c0 -10 7 -24 15 -31 18 -15
20 -46 3 -53 -7 -3 -4 -6 7 -6 16 -1 20 5 19 27 -1 34 -12 55 -25 47 -5 -4 -9
1 -9 9 0 8 8 17 18 19 13 4 11 5 -5 6 -16 1 -23 -5 -23 -18z"/>
<path fill="#000000" stroke="none" d="M93 45 c-7 -8 -13 -15 -13 -17 0 -2 36
-3 80 -3 44 0 80 1 80 3 0 31 -123 45 -147 17z"/>
<path fill="#ffffff" stroke="none" d="M188 43 c-16 -2 -40 -2 -55 0 -16 2 -3
4 27 4 30 0 43 -2 28 -4z"/>
</g>
</svg>
