<?xml version="1.0" standalone="no"?>
<!DOCTYPE svg PUBLIC "-//W3C//DTD SVG 20010904//EN"
 "http://www.w3.org/TR/2001/REC-SVG-20010904/DTD/svg10.dtd">
<svg version="1.0" xmlns="http://www.w3.org/2000/svg"
 width="32.000000pt" height="32.000000pt" viewBox="0 0 32.000000 32.000000"
 preserveAspectRatio="xMidYMid meet">
<metadata>
Created by potrace 1.16, written by Peter Selinger 2001-2019
</metadata>
<g transform="translate(0.000000,32.000000) scale(0.100000,-0.100000)"
fill="#000000" stroke="none">
<path fill="#000000" stroke="none" d="M150 301 c0 -5 -21 -7 -47 -4 -36 3
-44 2 -33 -6 13 -9 12 -11 -3 -11 -10 0 -16 -4 -12 -9 3 -5 -3 -11 -12 -14
-10 -2 12 -7 50 -11 63 -8 223 3 184 11 -9 3 -15 9 -12 14 4 5 -2 9 -12 9 -15
0 -16 2 -3 11 11 8 3 9 -32 6 -27 -3 -48 -1 -48 4 0 5 -4 9 -10 9 -5 0 -10 -4
-10 -9z"/>
<path fill="#ffffff" stroke="none" d="M135 280 c3 -5 -1 -10 -9 -10 -8 0 -18
5 -21 10 -3 6 1 10 9 10 8 0 18 -4 21 -10z"/>
<path fill="#ffffff" stroke="none" d="M215 280 c-3 -5 -13 -10 -21 -10 -8 0
-12 5 -9 10 3 6 13 10 21 10 8 0 12 -4 9 -10z"/>
<path fill="#ffffff" stroke="none" d="M120 260 c12 -8 11 -10 -7 -10 -12 0
-25 5 -28 10 -8 13 15 13 35 0z"/>
<path fill="#ffffff" stroke="none" d="M235 260 c-3 -5 -16 -10 -28 -10 -18 0
-19 2 -7 10 20 13 43 13 35 0z"/>
<path fill="#000000" stroke="none" d="M62 218 c-7 -7 -12 -27 -12 -44 0 -18
-4 -36 -10 -39 -5 -3 -10 -24 -10 -45 0 -21 -5 -42 -10 -45 -6 -3 -10 -14 -9
-23 0 -14 2 -13 9 3 8 19 9 19 9 1 1 -11 4 -16 8 -13 3 4 6 33 6 64 0 58 0 58
6 13 l7 -45 5 45 6 45 1 -47 c1 -27 7 -48 15 -51 6 -2 2 -2 -10 0 -26 4 -30
-9 -8 -27 13 -10 19 -10 33 4 24 21 100 21 124 0 27 -25 44 -4 47 58 1 28 4
54 7 57 2 3 4 -21 3 -52 -1 -32 1 -60 4 -64 4 -3 7 2 8 13 0 18 1 18 9 -1 7
-16 9 -17 9 -3 1 9 -3 20 -9 23 -5 3 -10 24 -10 45 0 21 -4 42 -10 45 -6 3
-10 21 -10 39 0 20 -7 39 -17 47 -15 11 -16 11 -5 -1 6 -8 11 -30 10 -50 l-1
-35 -4 32 c-6 44 -24 55 -93 55 -69 0 -87 -11 -93 -55 l-4 -32 -1 36 c-1 19 3
40 10 47 7 7 10 12 7 12 -3 0 -10 -5 -17 -12z"/>
<path fill="#ffffff" stroke="none" d="M231 203 c5 -5 7 -40 3 -81 l-7 -72
-73 0 -74 0 -1 43 c-2 64 2 101 11 112 10 12 128 11 141 -2z"/>
<path fill="#ffffff" stroke="none" d="M262 106 c-7 -62 -12 -76 -30 -75 -10
0 -12 3 -4 6 7 3 12 24 12 52 0 33 4 48 13 48 9 0 12 -11 9 -31z"/>
<path fill="#000000" stroke="none" d="M90 130 l0 -70 65 0 65 0 0 60 0 60
-55 0 -55 0 0 -50 0 -50 45 0 45 0 0 40 c0 39 -1 40 -35 40 -32 0 -35 -2 -35
-30 0 -25 4 -30 25 -30 18 0 25 5 25 20 0 11 -7 20 -15 20 -8 0 -15 -5 -15
-11 0 -5 5 -7 10 -4 6 3 10 1 10 -4 0 -6 -7 -11 -15 -11 -8 0 -15 9 -15 20 0
15 7 20 25 20 21 0 25 -5 25 -30 0 -28 -3 -30 -35 -30 -34 0 -35 1 -35 40 l0
40 45 0 45 0 0 -50 0 -50 -55 0 -55 0 0 60 0 59 68 4 67 3 -72 2 -73 2 0 -70z"/>
<path fill="#000000" stroke="none" d="M133 13 c15 -2 39 -2 55 0 15 2 2 4
-28 4 -30 0 -43 -2 -27 -4z"/>
</g>
</svg>
