<?xml version="1.0" standalone="no"?>
<!DOCTYPE svg PUBLIC "-//W3C//DTD SVG 20010904//EN"
 "http://www.w3.org/TR/2001/REC-SVG-20010904/DTD/svg10.dtd">
<svg version="1.0" xmlns="http://www.w3.org/2000/svg"
 width="32.000000pt" height="32.000000pt" viewBox="0 0 32.000000 32.000000"
 preserveAspectRatio="xMidYMid meet">
<metadata>
Created by potrace 1.16, written by Peter Selinger 2001-2019
</metadata>
<g transform="translate(0.000000,32.000000) scale(0.100000,-0.100000)"
fill="#000000" stroke="none">
<path fill="#000000" stroke="none" d="M0 160 l0 -160 160 0 160 0 0 160 0
160 -160 0 -160 0 0 -160z"/>
<path fill="#ffffff" stroke="none" d="M209 273 c32 -19 35 -31 25 -95 -4 -22
-13 -39 -23 -41 -10 -3 -8 -5 7 -6 12 0 25 -8 28 -15 7 -17 -21 -58 -51 -76
-17 -11 -17 -10 3 12 27 30 30 71 5 66 -10 -2 -19 -14 -21 -28 -2 -14 -5 -32
-8 -40 -4 -13 -6 -13 -14 0 -8 13 -10 12 -10 -3 0 -17 -1 -17 -30 0 -39 22
-47 49 -23 75 10 12 13 18 7 15 -7 -4 -14 5 -18 24 -9 46 -7 81 3 74 5 -3 12
-1 16 5 4 6 11 7 17 4 7 -5 8 -2 4 5 -5 7 -15 10 -23 7 -8 -4 -11 -1 -7 5 18
30 72 35 113 12z"/>
<path fill="#000000" stroke="none" d="M155 261 c-6 -11 9 -23 19 -14 9 9 7
23 -3 23 -6 0 -12 -4 -16 -9z"/>
<path fill="#000000" stroke="none" d="M125 130 c8 -12 52 -13 59 -2 3 5 -11
9 -30 10 -20 1 -32 -3 -29 -8z"/>
<path fill="#000000" stroke="none" d="M106 103 c-8 -19 17 -48 33 -39 16 11
13 43 -5 50 -21 8 -21 8 -28 -11z"/>
</g>
</svg>
