<?xml version="1.0" standalone="no"?>
<!DOCTYPE svg PUBLIC "-//W3C//DTD SVG 20010904//EN"
 "http://www.w3.org/TR/2001/REC-SVG-20010904/DTD/svg10.dtd">
<svg version="1.0" xmlns="http://www.w3.org/2000/svg"
 width="32.000000pt" height="32.000000pt" viewBox="0 0 32.000000 32.000000"
 preserveAspectRatio="xMidYMid meet">
<metadata>
Created by potrace 1.16, written by Peter Selinger 2001-2019
</metadata>
<g transform="translate(0.000000,32.000000) scale(0.100000,-0.100000)"
fill="#000000" stroke="none">
<path fill="#000000" stroke="none" d="M235 310 c-3 -5 -17 -10 -31 -10 -15 0
-24 -6 -24 -15 0 -20 -10 -19 -27 3 -8 9 -12 12 -9 5 4 -6 1 -15 -5 -18 -5 -4
-8 -13 -5 -21 3 -9 -1 -14 -13 -14 -13 0 -21 -10 -25 -34 -4 -19 -12 -37 -19
-39 -9 -4 -9 -7 0 -18 10 -10 9 -17 -5 -33 -17 -21 -17 -21 5 -2 18 15 20 22
12 33 -8 9 -8 13 -1 13 6 0 14 16 18 35 5 26 11 35 26 35 14 0 18 5 13 19 -5
15 -1 18 20 13 18 -3 25 0 25 12 0 9 8 16 18 17 9 0 25 2 35 4 11 2 16 0 12
-3 -7 -7 -12 -8 -40 -11 -8 0 -15 -8 -15 -16 0 -8 -9 -15 -19 -15 -10 0 -21
-7 -25 -15 -3 -8 -12 -15 -20 -15 -9 0 -17 -15 -21 -42 -4 -24 -16 -53 -27
-65 -19 -21 -22 -21 -50 -7 -29 15 -30 15 -27 -8 1 -13 -2 -31 -6 -41 -5 -13
-1 -25 13 -40 18 -17 25 -19 44 -9 30 14 99 36 166 52 28 6 52 16 52 20 0 10
-29 22 -39 15 -5 -2 -6 7 -3 20 2 14 11 25 18 25 8 0 14 5 14 11 0 6 6 9 13 6
10 -4 14 6 14 36 0 23 -2 32 -4 20 -2 -13 -9 -23 -15 -23 -6 0 -9 -3 -5 -6 7
-7 -17 -34 -30 -34 -5 0 -13 -14 -18 -32 -10 -33 -30 -43 -104 -52 l-33 -5 22
24 c13 14 39 26 66 30 29 4 44 11 44 21 0 8 7 17 15 20 8 4 15 15 15 25 0 10
6 19 14 19 7 0 16 9 19 20 3 11 11 19 19 18 8 -2 14 8 16 25 2 19 -1 27 -12
27 -9 0 -16 7 -16 15 0 17 -45 21 -55 5z"/>
<path fill="#ffffff" stroke="none" d="M254 248 c-4 -7 -16 -19 -26 -26 -10
-7 -15 -18 -12 -24 5 -7 2 -8 -5 -4 -9 6 -8 13 6 29 28 33 51 49 37 25z"/>
<path fill="#ffffff" stroke="none" d="M40 90 c0 -5 -2 -10 -4 -10 -3 0 -8 5
-11 10 -3 6 -1 10 4 10 6 0 11 -4 11 -10z"/>
<path fill="#000000" stroke="none" d="M163 102 c-17 -2 -37 -11 -45 -20 -11
-15 -11 -15 2 -5 8 6 33 13 55 15 22 2 36 5 30 8 -5 3 -24 4 -42 2z"/>
</g>
</svg>
