<?xml version="1.0" standalone="no"?>
<!DOCTYPE svg PUBLIC "-//W3C//DTD SVG 20010904//EN"
 "http://www.w3.org/TR/2001/REC-SVG-20010904/DTD/svg10.dtd">
<svg version="1.0" xmlns="http://www.w3.org/2000/svg"
 width="32.000000pt" height="32.000000pt" viewBox="0 0 32.000000 32.000000"
 preserveAspectRatio="xMidYMid meet">
<metadata>
Created by potrace 1.16, written by Peter Selinger 2001-2019
</metadata>
<g transform="translate(0.000000,32.000000) scale(0.100000,-0.100000)"
fill="#000000" stroke="none">
<path fill="#000000" stroke="none" d="M0 260 l0 -59 23 23 c70 70 207 108
261 72 32 -21 36 -20 36 4 0 19 -7 20 -160 20 l-160 0 0 -60z"/>
<path fill="#000000" stroke="none" d="M174 261 c4 -5 -4 -7 -16 -3 -16 4 -19
2 -13 -8 5 -8 4 -11 -3 -6 -14 9 -84 -33 -75 -47 3 -6 1 -7 -5 -3 -13 8 -37
-27 -46 -66 -8 -36 41 -74 82 -62 15 4 35 6 45 5 9 -1 20 4 23 13 3 8 12 12
20 9 8 -3 26 6 41 21 14 14 30 26 34 26 5 0 18 19 30 42 l21 42 -28 23 c-20
16 -42 23 -72 23 -24 0 -41 -4 -38 -9z"/>
<path fill="#ffffff" stroke="none" d="M115 206 c0 -20 -3 -21 -18 -12 -16 10
-16 12 0 24 9 6 17 12 17 12 1 0 1 -11 1 -24z"/>
<path fill="#000000" stroke="none" d="M270 99 c-54 -48 -91 -65 -162 -74 -45
-6 -57 -4 -81 15 l-27 21 0 -30 0 -31 160 0 160 0 0 70 c0 39 -1 70 -2 70 -2
-1 -23 -19 -48 -41z"/>
</g>
</svg>
