<?xml version="1.0" standalone="no"?>
<!DOCTYPE svg PUBLIC "-//W3C//DTD SVG 20010904//EN"
 "http://www.w3.org/TR/2001/REC-SVG-20010904/DTD/svg10.dtd">
<svg version="1.0" xmlns="http://www.w3.org/2000/svg"
 width="32.000000pt" height="32.000000pt" viewBox="0 0 32.000000 32.000000"
 preserveAspectRatio="xMidYMid meet">
<metadata>
Created by potrace 1.16, written by Peter Selinger 2001-2019
</metadata>
<g transform="translate(0.000000,32.000000) scale(0.100000,-0.100000)"
fill="#000000" stroke="none">
<path fill="#000000" stroke="none" d="M188 293 c6 -2 9 -10 6 -15 -4 -7 -2
-8 5 -4 13 9 5 26 -12 25 -9 0 -8 -2 1 -6z"/>
<path fill="#000000" stroke="none" d="M158 273 c7 -3 16 -2 19 1 4 3 -2 6
-13 5 -11 0 -14 -3 -6 -6z"/>
<path fill="#000000" stroke="none" d="M142 225 c2 -28 -4 -41 -24 -58 -14
-12 -31 -32 -37 -44 -10 -19 -9 -23 4 -23 9 0 29 -7 45 -15 16 -8 35 -12 43
-9 14 5 19 34 6 34 -5 0 -6 7 -3 15 7 18 0 19 -29 4 -18 -9 -20 -9 -9 2 24 25
12 32 -15 8 l-27 -24 23 30 c12 16 30 30 39 30 11 0 19 11 23 30 7 40 1 55
-22 55 -16 0 -19 -6 -17 -35z"/>
<path fill="#ffffff" stroke="none" d="M170 240 c0 -5 -4 -10 -10 -10 -5 0
-10 5 -10 10 0 6 5 10 10 10 6 0 10 -4 10 -10z"/>
<path fill="#ffffff" stroke="none" d="M170 200 c0 -11 -4 -20 -9 -20 -6 0 -9
9 -8 20 1 11 5 20 9 20 4 0 8 -9 8 -20z"/>
<path fill="#000000" stroke="none" d="M85 81 c-9 -15 15 -25 28 -12 9 9 7 10
-7 5 -13 -5 -17 -4 -12 4 4 7 5 12 2 12 -3 0 -7 -4 -11 -9z"/>
<path fill="#000000" stroke="none" d="M130 52 c-14 -2 -29 -7 -33 -11 -4 -4
6 -6 22 -3 22 3 30 0 33 -15 2 -10 6 -13 9 -8 12 19 -6 40 -31 37z"/>
<path fill="#000000" stroke="none" d="M210 36 c0 -2 6 -9 14 -15 11 -9 16 -9
22 0 4 8 3 9 -4 5 -7 -4 -12 -2 -12 3 0 6 -4 11 -10 11 -5 0 -10 -2 -10 -4z"/>
</g>
</svg>
