<?xml version="1.0" standalone="no"?>
<!DOCTYPE svg PUBLIC "-//W3C//DTD SVG 20010904//EN"
 "http://www.w3.org/TR/2001/REC-SVG-20010904/DTD/svg10.dtd">
<svg version="1.0" xmlns="http://www.w3.org/2000/svg"
 width="32.000000pt" height="32.000000pt" viewBox="0 0 32.000000 32.000000"
 preserveAspectRatio="xMidYMid meet">
<metadata>
Created by potrace 1.16, written by Peter Selinger 2001-2019
</metadata>
<g transform="translate(0.000000,32.000000) scale(0.100000,-0.100000)"
fill="#000000" stroke="none">
<path fill="#000000" stroke="none" d="M262 268 c-9 -34 -7 -48 7 -48 4 0 8
18 9 40 2 48 -4 51 -16 8z"/>
<path fill="#000000" stroke="none" d="M148 239 c-21 -11 -38 -25 -39 -32 0
-6 -4 -1 -10 11 -12 30 -33 23 -37 -11 -6 -52 52 -40 109 22 32 35 29 36 -23
10z"/>
<path fill="#ffffff" stroke="none" d="M90 221 c0 -5 3 -16 6 -25 4 -11 1 -16
-10 -16 -10 0 -16 9 -16 25 0 14 5 25 10 25 6 0 10 -4 10 -9z"/>
<path fill="#ffffff" stroke="none" d="M147 213 c-9 -9 -20 -13 -24 -9 -4 4
-1 11 7 16 25 16 35 11 17 -7z"/>
<path fill="#000000" stroke="none" d="M186 205 c-9 -26 -7 -32 5 -12 6 10 9
21 6 23 -2 3 -7 -2 -11 -11z"/>
<path fill="#000000" stroke="none" d="M199 171 c-46 -45 -47 -46 -108 -44
-68 1 -71 -3 -48 -60 21 -48 39 -60 71 -46 15 7 29 23 32 36 4 12 10 21 14 18
11 -7 80 72 80 91 0 9 -5 12 -12 8 -7 -4 -8 -3 -4 5 6 9 11 9 24 -1 13 -11 15
-10 10 10 -5 19 -4 21 8 11 8 -7 14 -7 14 -1 0 8 -28 26 -33 20 -1 -1 -23 -22
-48 -47z"/>
<path fill="#ffffff" stroke="none" d="M223 145 c-3 -9 -8 -14 -10 -11 -3 3
-2 9 2 15 9 16 15 13 8 -4z"/>
<path fill="#ffffff" stroke="none" d="M185 102 c-10 -9 -15 -12 -11 -5 3 6 3
13 -1 16 -5 2 -2 2 5 1 6 -2 12 2 12 8 0 6 3 8 7 4 4 -3 -1 -14 -12 -24z"/>
<path fill="#ffffff" stroke="none" d="M58 113 c-4 -15 33 -74 42 -68 6 4 6
14 -1 26 -6 12 -8 23 -5 27 3 3 6 0 6 -7 0 -7 4 -9 10 -6 6 4 7 -1 4 -12 -5
-16 -4 -16 10 1 9 11 16 16 16 10 -1 -18 -50 -65 -61 -58 -16 9 -41 73 -34 84
7 12 16 13 13 3z"/>
<path fill="#ffffff" stroke="none" d="M107 114 c-3 -3 -12 -4 -19 -1 -8 3 -5
6 6 6 11 1 17 -2 13 -5z"/>
<path fill="#000000" stroke="none" d="M260 145 c-5 -14 -15 -25 -21 -25 -7 0
-9 -3 -6 -6 9 -10 34 13 40 36 7 28 -2 25 -13 -5z"/>
</g>
</svg>
