<?xml version="1.0" standalone="no"?>
<!DOCTYPE svg PUBLIC "-//W3C//DTD SVG 20010904//EN"
 "http://www.w3.org/TR/2001/REC-SVG-20010904/DTD/svg10.dtd">
<svg version="1.0" xmlns="http://www.w3.org/2000/svg"
 width="32.000000pt" height="32.000000pt" viewBox="0 0 32.000000 32.000000"
 preserveAspectRatio="xMidYMid meet">
<metadata>
Created by potrace 1.16, written by Peter Selinger 2001-2019
</metadata>
<g transform="translate(0.000000,32.000000) scale(0.100000,-0.100000)"
fill="#000000" stroke="none">
<path fill="#000000" stroke="none" d="M160 310 c0 -7 -8 -10 -20 -7 -11 3
-23 1 -26 -5 -3 -5 -15 -7 -27 -4 -11 3 -16 1 -11 -4 5 -5 37 -5 71 -1 33 4
72 3 85 -2 17 -6 20 -5 12 3 -6 6 -22 12 -35 12 -13 1 -30 6 -36 11 -9 6 -13
5 -13 -3z"/>
<path fill="#000000" stroke="none" d="M138 263 c7 -3 16 -2 19 1 4 3 -2 6
-13 5 -11 0 -14 -3 -6 -6z"/>
<path fill="#000000" stroke="none" d="M285 259 c-4 -6 -5 -12 -2 -15 2 -3 7
2 10 11 7 17 1 20 -8 4z"/>
<path fill="#000000" stroke="none" d="M80 199 c11 -20 30 -26 30 -9 0 6 10
10 22 10 31 0 19 6 -25 13 -34 5 -36 4 -27 -14z"/>
<path fill="#000000" stroke="none" d="M87 59 c7 -7 15 -10 18 -7 3 3 -2 9
-12 12 -14 6 -15 5 -6 -5z"/>
</g>
</svg>
