<?xml version="1.0" standalone="no"?>
<!DOCTYPE svg PUBLIC "-//W3C//DTD SVG 20010904//EN"
 "http://www.w3.org/TR/2001/REC-SVG-20010904/DTD/svg10.dtd">
<svg version="1.0" xmlns="http://www.w3.org/2000/svg"
 width="32.000000pt" height="32.000000pt" viewBox="0 0 32.000000 32.000000"
 preserveAspectRatio="xMidYMid meet">
<metadata>
Created by potrace 1.16, written by Peter Selinger 2001-2019
</metadata>
<g transform="translate(0.000000,32.000000) scale(0.100000,-0.100000)"
fill="#000000" stroke="none">
<path fill="#000000" stroke="none" d="M0 173 c1 -144 1 -147 18 -120 11 18
23 26 35 23 9 -2 15 -1 12 3 -2 5 2 17 10 27 22 29 18 41 -13 36 -18 -2 -33 2
-42 13 -12 14 -10 20 14 41 22 21 25 28 15 40 -19 23 1 34 43 25 41 -10 48 -6
48 21 0 22 23 24 40 3 11 -14 6 -23 -33 -63 -32 -33 -47 -56 -47 -74 0 -15 -5
-30 -10 -33 -6 -3 -10 -12 -10 -18 0 -8 3 -9 8 -1 4 5 25 11 47 13 22 1 43 5
47 9 4 4 -10 6 -32 4 -37 -4 -40 -2 -40 21 0 33 113 163 138 159 15 -2 15 -1
2 7 -24 17 -40 13 -50 -11 l-9 -23 0 23 c-1 21 -4 22 -96 22 l-95 0 0 -147z"/>
<path fill="#000000" stroke="none" d="M284 311 c11 -4 23 -16 27 -27 6 -16 8
-14 8 9 1 23 -3 27 -26 26 -23 0 -25 -2 -9 -8z"/>
<path fill="#000000" stroke="none" d="M305 231 c-3 -5 -1 -12 5 -16 5 -3 10
1 10 9 0 18 -6 21 -15 7z"/>
<path fill="#000000" stroke="none" d="M229 173 l-24 -28 30 25 c17 14 32 26
34 28 2 1 0 2 -6 2 -5 0 -20 -12 -34 -27z"/>
<path fill="#000000" stroke="none" d="M35 181 c-3 -5 -1 -12 5 -16 14 -9 52
4 45 16 -8 12 -42 12 -50 0z"/>
<path fill="#000000" stroke="none" d="M288 178 c18 -18 15 -38 -6 -38 -10 0
-26 -6 -35 -12 -15 -11 -11 -13 28 -13 l45 0 0 38 c0 31 -3 37 -22 37 -17 0
-19 -3 -10 -12z"/>
<path fill="#000000" stroke="none" d="M100 70 c-14 -10 -23 -21 -20 -23 3 -3
19 6 35 19 35 28 22 32 -15 4z"/>
<path fill="#000000" stroke="none" d="M304 69 c1 -29 -84 -64 -134 -54 -46 9
-78 7 -98 -5 -12 -6 25 -9 116 -10 l132 0 0 45 c0 25 -4 45 -8 45 -5 0 -8 -9
-8 -21z"/>
<path fill="#000000" stroke="none" d="M140 68 c-12 -4 -20 -13 -18 -20 6 -18
59 -32 77 -21 9 6 31 14 49 18 18 4 31 12 29 18 -4 13 -104 17 -137 5z"/>
<path fill="#000000" stroke="none" d="M40 61 c0 -6 4 -13 10 -16 6 -3 7 1 4
9 -7 18 -14 21 -14 7z"/>
<path fill="#000000" stroke="none" d="M20 40 c0 -5 5 -10 11 -10 5 0 7 5 4
10 -3 6 -8 10 -11 10 -2 0 -4 -4 -4 -10z"/>
</g>
</svg>
