<?xml version="1.0" standalone="no"?>
<!DOCTYPE svg PUBLIC "-//W3C//DTD SVG 20010904//EN"
 "http://www.w3.org/TR/2001/REC-SVG-20010904/DTD/svg10.dtd">
<svg version="1.0" xmlns="http://www.w3.org/2000/svg"
 width="32.000000pt" height="32.000000pt" viewBox="0 0 32.000000 32.000000"
 preserveAspectRatio="xMidYMid meet">
<metadata>
Created by potrace 1.16, written by Peter Selinger 2001-2019
</metadata>
<g transform="translate(0.000000,32.000000) scale(0.100000,-0.100000)"
fill="#000000" stroke="none">
<path fill="#000000" stroke="none" d="M134 299 c-15 -16 -16 -24 -6 -39 10
-16 7 -22 -15 -40 -15 -12 -34 -18 -45 -15 -25 9 -24 -21 2 -35 11 -6 20 -18
20 -28 1 -9 7 -28 14 -42 10 -17 11 -30 4 -43 -6 -13 -6 -23 4 -34 10 -12 25
-14 73 -9 33 3 61 11 63 16 2 6 14 7 26 4 30 -7 41 18 18 39 -17 15 -55 17
-68 4 -18 -18 -23 -4 -9 23 8 16 15 36 15 44 0 8 9 20 20 26 26 14 27 44 2 35
-11 -3 -30 3 -45 15 -22 18 -25 24 -15 40 10 15 9 23 -6 39 -11 12 -22 21 -26
21 -4 0 -15 -9 -26 -21z"/>
<path fill="#ffffff" stroke="none" d="M181 293 c10 -11 10 -14 2 -9 -8 4 -13
1 -13 -8 0 -9 -4 -16 -10 -16 -14 0 -12 27 3 33 9 4 9 6 -1 6 -22 2 -27 -31
-6 -47 10 -8 13 -12 5 -10 -25 7 -36 35 -22 52 17 20 25 20 42 -1z"/>
<path fill="#ffffff" stroke="none" d="M210 206 c14 -11 18 -16 8 -13 -13 5
-18 1 -18 -14 0 -20 0 -20 30 1 17 12 30 17 30 11 0 -5 -9 -13 -20 -16 -11 -4
-20 -15 -20 -26 0 -11 -7 -33 -15 -50 -11 -21 -13 -34 -6 -48 14 -24 5 -31
-40 -31 -42 0 -54 11 -40 37 6 13 5 26 -5 43 -7 14 -13 35 -14 47 0 13 -8 24
-20 28 -11 3 -20 10 -20 15 0 5 6 7 13 4 8 -3 24 4 37 14 29 24 67 23 100 -2z"/>
<path fill="#000000" stroke="none" d="M140 80 c0 -5 9 -10 20 -10 11 0 20 5
20 10 0 6 -9 10 -20 10 -11 0 -20 -4 -20 -10z"/>
<path fill="#000000" stroke="none" d="M168 53 c7 -3 16 -2 19 1 4 3 -2 6 -13
5 -11 0 -14 -3 -6 -6z"/>
<path fill="#000000" stroke="none" d="M178 33 c7 -3 16 -2 19 1 4 3 -2 6 -13
5 -11 0 -14 -3 -6 -6z"/>
</g>
</svg>
