<?xml version="1.0" standalone="no"?>
<!DOCTYPE svg PUBLIC "-//W3C//DTD SVG 20010904//EN"
 "http://www.w3.org/TR/2001/REC-SVG-20010904/DTD/svg10.dtd">
<svg version="1.0" xmlns="http://www.w3.org/2000/svg"
 width="32.000000pt" height="32.000000pt" viewBox="0 0 32.000000 32.000000"
 preserveAspectRatio="xMidYMid meet">
<metadata>
Created by potrace 1.16, written by Peter Selinger 2001-2019
</metadata>
<g transform="translate(0.000000,32.000000) scale(0.100000,-0.100000)"
fill="#000000" stroke="none">
<path fill="#000000" stroke="none" d="M78 277 c-40 -23 -68 -71 -68 -118 0
-38 33 -103 62 -123 27 -19 88 -21 88 -3 0 9 3 8 9 -2 6 -10 15 -5 37 23 16
20 36 36 45 36 41 0 60 73 34 129 -19 44 -83 82 -135 80 -19 -1 -51 -11 -72
-22z"/>
<path fill="#ffffff" stroke="none" d="M116 149 c22 -19 59 -19 94 0 l25 14
-19 -22 c-11 -11 -25 -21 -33 -21 -8 0 -13 -12 -13 -36 0 -21 -4 -33 -10 -29
-5 3 -10 19 -10 36 0 18 -5 29 -14 29 -18 0 -56 47 -55 69 0 12 2 11 8 -4 5
-11 17 -27 27 -36z"/>
<path fill="#000000" stroke="none" d="M300 102 c0 -6 -12 -25 -27 -44 -22
-27 -23 -29 -4 -13 27 23 45 54 37 63 -3 3 -6 0 -6 -6z"/>
<path fill="#000000" stroke="none" d="M226 23 c-4 -5 -35 -11 -69 -14 l-62
-6 56 -1 c35 -1 62 3 75 13 10 8 16 15 13 15 -3 0 -9 -3 -13 -7z"/>
</g>
</svg>
