<?xml version="1.0" standalone="no"?>
<!DOCTYPE svg PUBLIC "-//W3C//DTD SVG 20010904//EN"
 "http://www.w3.org/TR/2001/REC-SVG-20010904/DTD/svg10.dtd">
<svg version="1.0" xmlns="http://www.w3.org/2000/svg"
 width="32.000000pt" height="32.000000pt" viewBox="0 0 32.000000 32.000000"
 preserveAspectRatio="xMidYMid meet">
<metadata>
Created by potrace 1.16, written by Peter Selinger 2001-2019
</metadata>
<g transform="translate(0.000000,32.000000) scale(0.100000,-0.100000)"
fill="#000000" stroke="none">
<path fill="#000000" stroke="none" d="M0 173 c1 -144 1 -147 18 -121 9 16 22
28 28 28 18 0 40 41 48 89 4 24 16 55 26 69 11 13 20 33 20 43 0 21 20 25 38
7 9 -9 12 -7 12 10 0 21 -4 22 -95 22 l-95 0 0 -147z"/>
<path fill="#000000" stroke="none" d="M215 310 c4 -6 11 -8 16 -5 14 9 11 15
-7 15 -8 0 -12 -5 -9 -10z"/>
<path fill="#000000" stroke="none" d="M284 311 c11 -4 23 -16 27 -27 6 -16 8
-14 8 9 1 23 -3 27 -26 26 -23 0 -25 -2 -9 -8z"/>
<path fill="#000000" stroke="none" d="M305 231 c-3 -5 -1 -12 5 -16 5 -3 10
1 10 9 0 18 -6 21 -15 7z"/>
<path fill="#000000" stroke="none" d="M288 178 c18 -18 15 -38 -6 -38 -10 0
-26 -6 -36 -13 -15 -11 -11 -12 29 -12 l45 0 0 38 c0 31 -3 37 -22 37 -17 0
-19 -3 -10 -12z"/>
<path fill="#000000" stroke="none" d="M100 70 c-14 -10 -23 -21 -20 -23 3 -3
19 6 35 19 35 28 22 32 -15 4z"/>
<path fill="#000000" stroke="none" d="M305 80 c3 -5 -1 -10 -9 -10 -10 0 -13
-6 -10 -15 4 -10 0 -15 -12 -15 -48 0 -186 -20 -202 -29 -12 -7 21 -10 116
-11 l132 0 0 45 c0 25 -5 45 -11 45 -5 0 -7 -4 -4 -10z"/>
</g>
</svg>
