<?xml version="1.0" standalone="no"?>
<!DOCTYPE svg PUBLIC "-//W3C//DTD SVG 20010904//EN"
 "http://www.w3.org/TR/2001/REC-SVG-20010904/DTD/svg10.dtd">
<svg version="1.0" xmlns="http://www.w3.org/2000/svg"
 width="32.000000pt" height="32.000000pt" viewBox="0 0 32.000000 32.000000"
 preserveAspectRatio="xMidYMid meet">
<metadata>
Created by potrace 1.16, written by Peter Selinger 2001-2019
</metadata>
<g transform="translate(0.000000,32.000000) scale(0.100000,-0.100000)"
fill="#000000" stroke="none">
<path fill="#000000" stroke="none" d="M0 160 l0 -160 160 0 160 0 0 160 0
160 -120 0 -120 0 12 -25 c8 -17 19 -25 36 -25 47 0 103 -23 123 -51 16 -23
18 -34 10 -68 -5 -22 -19 -53 -32 -70 -20 -24 -32 -30 -65 -30 -47 -1 -88 25
-98 63 -4 18 -11 23 -26 19 -21 -6 -29 20 -10 32 19 12 41 78 30 89 -5 5 -10
23 -10 38 0 23 -4 28 -25 28 l-25 0 0 -160z"/>
<path fill="#000000" stroke="none" d="M155 240 c-3 -5 -2 -10 4 -10 5 0 13 5
16 10 3 6 2 10 -4 10 -5 0 -13 -4 -16 -10z"/>
<path fill="#000000" stroke="none" d="M200 210 c0 -6 -4 -8 -10 -5 -5 3 -10
1 -10 -6 0 -7 -3 -9 -7 -6 -10 10 -33 -13 -33 -34 0 -10 -5 -21 -10 -24 -6 -4
-10 -3 -9 2 4 22 -3 33 -20 33 -28 0 -33 -25 -10 -54 37 -47 108 -21 101 35
-1 4 8 5 18 2 20 -5 28 11 10 22 -5 3 -7 12 -4 19 3 8 1 17 -5 21 -6 3 -11 1
-11 -5z"/>
</g>
</svg>
