<?xml version="1.0" standalone="no"?>
<!DOCTYPE svg PUBLIC "-//W3C//DTD SVG 20010904//EN"
 "http://www.w3.org/TR/2001/REC-SVG-20010904/DTD/svg10.dtd">
<svg version="1.0" xmlns="http://www.w3.org/2000/svg"
 width="32.000000pt" height="32.000000pt" viewBox="0 0 32.000000 32.000000"
 preserveAspectRatio="xMidYMid meet">
<metadata>
Created by potrace 1.16, written by Peter Selinger 2001-2019
</metadata>
<g transform="translate(0.000000,32.000000) scale(0.100000,-0.100000)"
fill="#000000" stroke="none">
<path fill="#000000" stroke="none" d="M0 160 l0 -160 160 0 160 0 0 160 0
160 -160 0 -160 0 0 -160z"/>
<path fill="#ffffff" stroke="none" d="M201 283 l41 -18 -6 -59 c-3 -33 -12
-63 -19 -68 -8 -5 -7 -8 5 -8 9 0 20 -5 23 -10 10 -16 -17 -68 -38 -74 -12 -3
-17 -10 -14 -19 4 -10 0 -14 -11 -13 -9 2 -20 14 -23 27 -7 23 -7 23 -8 2 -1
-12 -6 -25 -13 -29 -6 -4 -8 -3 -4 4 3 5 -6 19 -21 30 -25 18 -27 25 -29 106
-2 54 0 84 6 81 6 -4 10 -1 10 4 0 6 -5 11 -12 11 -16 0 0 15 37 34 36 19 27
19 76 -1z"/>
<path fill="#000000" stroke="none" d="M165 259 c-4 -6 -5 -12 -2 -15 2 -3 7
2 10 11 7 17 1 20 -8 4z"/>
<path fill="#000000" stroke="none" d="M136 129 c6 -11 31 -12 37 -1 3 4 -6 8
-19 8 -13 1 -21 -2 -18 -7z"/>
<path fill="#000000" stroke="none" d="M106 103 c-8 -19 17 -48 33 -39 16 11
13 43 -5 50 -21 8 -21 8 -28 -11z"/>
<path fill="#000000" stroke="none" d="M187 114 c-4 -4 -7 -18 -7 -31 0 -18 5
-24 18 -21 10 2 17 12 17 27 0 24 -15 37 -28 25z"/>
<path fill="#000000" stroke="none" d="M171 34 c0 -11 3 -14 6 -6 3 7 2 16 -1
19 -3 4 -6 -2 -5 -13z"/>
</g>
</svg>
