<?xml version="1.0" standalone="no"?>
<!DOCTYPE svg PUBLIC "-//W3C//DTD SVG 20010904//EN"
 "http://www.w3.org/TR/2001/REC-SVG-20010904/DTD/svg10.dtd">
<svg version="1.0" xmlns="http://www.w3.org/2000/svg"
 width="32.000000pt" height="32.000000pt" viewBox="0 0 32.000000 32.000000"
 preserveAspectRatio="xMidYMid meet">
<metadata>
Created by potrace 1.16, written by Peter Selinger 2001-2019
</metadata>
<g transform="translate(0.000000,32.000000) scale(0.100000,-0.100000)"
fill="#000000" stroke="none">
<path fill="#000000" stroke="none" d="M0 160 l0 -160 160 0 160 0 0 160 0
160 -160 0 -160 0 0 -160z"/>
<path fill="#ffffff" stroke="none" d="M268 142 c-10 -18 -21 -26 -35 -25 -14
2 -35 -13 -62 -42 -71 -77 -98 -79 -128 -8 -22 54 -18 59 39 61 28 0 63 6 78
12 23 9 26 16 24 48 -1 20 -2 39 -3 41 -1 3 -11 -4 -23 -15 -60 -52 -104 -54
-96 -3 4 31 26 36 37 7 6 -12 10 -17 10 -10 1 7 21 22 46 34 l45 22 24 -23 25
-23 13 43 13 44 3 -68 c2 -42 -2 -78 -10 -95z"/>
<path fill="#000000" stroke="none" d="M180 241 c0 -6 5 -13 10 -16 6 -3 7
-17 4 -31 -7 -29 6 -31 31 -4 17 19 17 21 0 40 -19 21 -45 27 -45 11z"/>
<path fill="#000000" stroke="none" d="M70 205 c0 -16 6 -25 16 -25 11 0 14 5
10 16 -3 9 -6 20 -6 25 0 5 -4 9 -10 9 -5 0 -10 -11 -10 -25z"/>
<path fill="#000000" stroke="none" d="M130 220 c-8 -5 -11 -12 -7 -16 4 -4
15 0 24 9 18 18 8 23 -17 7z"/>
<path fill="#000000" stroke="none" d="M248 165 c-20 -27 -23 -45 -8 -45 11 0
33 48 28 61 -2 4 -11 -3 -20 -16z"/>
</g>
</svg>
