<?xml version="1.0" standalone="no"?>
<!DOCTYPE svg PUBLIC "-//W3C//DTD SVG 20010904//EN"
 "http://www.w3.org/TR/2001/REC-SVG-20010904/DTD/svg10.dtd">
<svg version="1.0" xmlns="http://www.w3.org/2000/svg"
 width="32.000000pt" height="32.000000pt" viewBox="0 0 32.000000 32.000000"
 preserveAspectRatio="xMidYMid meet">
<metadata>
Created by potrace 1.16, written by Peter Selinger 2001-2019
</metadata>
<g transform="translate(0.000000,32.000000) scale(0.100000,-0.100000)"
fill="#000000" stroke="none">
<path fill="#000000" stroke="none" d="M0 160 l0 -160 160 0 160 0 0 160 0
160 -160 0 -160 0 0 -160z"/>
<path fill="#ffffff" stroke="none" d="M284 275 c-4 -8 -11 -12 -16 -9 -6 4
-5 10 3 15 19 12 19 11 13 -6z"/>
<path fill="#ffffff" stroke="none" d="M143 265 c-3 -9 -8 -14 -10 -11 -3 3
-2 9 2 15 9 16 15 13 8 -4z"/>
<path fill="#ffffff" stroke="none" d="M198 223 c3 -42 10 -56 23 -48 5 4 9 1
9 -5 0 -6 -6 -10 -14 -8 -8 2 -15 -1 -15 -7 -1 -5 4 -10 11 -10 15 0 22 -21 9
-30 -7 -3 -8 0 -5 10 5 11 2 14 -10 9 -10 -4 -18 0 -22 10 -3 9 -10 13 -15 10
-14 -8 -11 63 3 86 18 29 24 25 26 -17z"/>
<path fill="#ffffff" stroke="none" d="M284 231 c4 -5 -3 -7 -14 -4 -23 6 -26
13 -6 13 8 0 17 -4 20 -9z"/>
<path fill="#ffffff" stroke="none" d="M123 215 c-3 -9 -8 -14 -10 -11 -3 3
-2 9 2 15 9 16 15 13 8 -4z"/>
<path fill="#ffffff" stroke="none" d="M227 198 c-3 -7 -5 -2 -5 12 0 14 2 19
5 13 2 -7 2 -19 0 -25z"/>
<path fill="#ffffff" stroke="none" d="M147 133 c-3 -2 -18 3 -34 11 l-28 16
28 -6 c26 -6 27 -4 29 32 l1 39 4 -44 c3 -23 2 -45 0 -48z"/>
<path fill="#ffffff" stroke="none" d="M261 177 c-10 -9 -11 -8 -5 6 3 10 9
15 12 12 3 -3 0 -11 -7 -18z"/>
<path fill="#ffffff" stroke="none" d="M175 110 c3 -6 -1 -7 -9 -4 -18 7 -21
14 -7 14 6 0 13 -4 16 -10z"/>
</g>
</svg>
