<?xml version="1.0" standalone="no"?>
<!DOCTYPE svg PUBLIC "-//W3C//DTD SVG 20010904//EN"
 "http://www.w3.org/TR/2001/REC-SVG-20010904/DTD/svg10.dtd">
<svg version="1.0" xmlns="http://www.w3.org/2000/svg"
 width="32.000000pt" height="32.000000pt" viewBox="0 0 32.000000 32.000000"
 preserveAspectRatio="xMidYMid meet">
<metadata>
Created by potrace 1.16, written by Peter Selinger 2001-2019
</metadata>
<g transform="translate(0.000000,32.000000) scale(0.100000,-0.100000)"
fill="#000000" stroke="none">
<path fill="#000000" stroke="none" d="M0 181 c0 -138 4 -171 21 -171 5 0 29
20 55 45 30 30 54 45 71 45 18 0 43 16 79 50 29 27 60 50 68 50 20 0 29 16 21
40 -8 24 -25 27 -25 4 0 -8 4 -13 8 -10 5 3 9 -1 9 -9 0 -11 -4 -12 -14 -4
-15 13 -18 49 -3 49 6 0 10 7 10 15 0 8 -7 15 -15 15 -8 0 -15 -4 -15 -10 0
-15 -36 -12 -49 3 -8 10 -7 14 4 14 8 0 12 -4 9 -9 -3 -4 2 -8 10 -8 23 0 20
17 -4 25 -24 8 -40 -1 -40 -21 0 -8 -23 -39 -50 -68 -34 -36 -50 -61 -50 -79
0 -17 -15 -41 -45 -71 -25 -26 -45 -43 -45 -39 1 13 27 43 37 43 17 0 39 42
47 89 4 24 16 55 26 69 11 13 20 33 20 43 0 21 20 25 38 7 9 -9 12 -7 12 10 0
21 -4 22 -95 22 l-95 0 0 -139z"/>
<path fill="#000000" stroke="none" d="M284 311 c11 -4 23 -16 27 -27 6 -16 8
-14 8 9 1 23 -3 27 -26 26 -23 0 -25 -2 -9 -8z"/>
<path fill="#000000" stroke="none" d="M150 276 c0 -7 -9 -25 -20 -39 -31 -40
-23 -44 14 -8 19 19 32 40 29 47 -7 18 -23 18 -23 0z"/>
<path fill="#000000" stroke="none" d="M288 178 c20 -20 13 -33 -25 -45 -34
-10 -36 -10 -19 3 11 8 26 14 33 14 17 0 17 16 -1 23 -7 3 -28 -9 -45 -27
l-32 -33 61 1 60 1 0 38 c0 31 -3 37 -22 37 -17 0 -19 -3 -10 -12z"/>
<path fill="#000000" stroke="none" d="M100 70 c-14 -10 -23 -21 -20 -23 3 -3
19 6 35 19 35 28 22 32 -15 4z"/>
<path fill="#000000" stroke="none" d="M305 80 c3 -5 -1 -10 -9 -10 -10 0 -13
-6 -10 -15 4 -10 0 -15 -12 -15 -48 0 -186 -20 -202 -29 -12 -7 21 -10 116
-11 l132 0 0 45 c0 25 -5 45 -11 45 -5 0 -7 -4 -4 -10z"/>
</g>
</svg>
