<?xml version="1.0" standalone="no"?>
<!DOCTYPE svg PUBLIC "-//W3C//DTD SVG 20010904//EN"
 "http://www.w3.org/TR/2001/REC-SVG-20010904/DTD/svg10.dtd">
<svg version="1.0" xmlns="http://www.w3.org/2000/svg"
 width="32.000000pt" height="32.000000pt" viewBox="0 0 32.000000 32.000000"
 preserveAspectRatio="xMidYMid meet">
<metadata>
Created by potrace 1.16, written by Peter Selinger 2001-2019
</metadata>
<g transform="translate(0.000000,32.000000) scale(0.100000,-0.100000)"
fill="#000000" stroke="none">
<path fill="#000000" stroke="none" d="M115 307 c-5 -12 -15 -17 -26 -14 -12
3 -19 0 -19 -9 0 -17 -12 -18 -29 -1 -11 10 -11 8 -2 -10 7 -14 8 -24 1 -28
-5 -3 -9 -23 -9 -43 l2 -37 6 39 c8 55 44 79 124 84 76 5 116 -19 118 -71 l1
-32 7 35 c4 20 11 42 16 50 6 12 5 13 -6 3 -20 -19 -32 -16 -26 8 4 16 3 18
-9 8 -11 -9 -15 -8 -20 5 -3 9 -10 14 -14 11 -5 -3 -12 0 -16 6 -5 8 -9 7 -14
-2 -7 -10 -11 -10 -24 0 -11 9 -16 10 -16 2 0 -15 -27 -14 -33 2 -3 8 -7 6
-12 -6z"/>
<path fill="#000000" stroke="none" d="M93 255 c-59 -25 -35 -75 36 -75 16 0
32 6 34 13 4 9 8 9 15 -2 8 -10 13 -11 23 -2 8 6 25 20 39 31 24 20 25 20 6
35 -25 19 -110 19 -153 0z"/>
<path fill="#ffffff" stroke="none" d="M240 250 c26 -18 -17 -40 -76 -40 -57
0 -84 7 -84 21 0 25 129 40 160 19z"/>
<path fill="#000000" stroke="none" d="M80 170 c8 -5 24 -10 34 -10 26 0 18 6
-19 14 -22 5 -26 4 -15 -4z"/>
<path fill="#000000" stroke="none" d="M74 66 c11 -9 36 -15 55 -15 l36 2 -40
6 c-22 4 -47 10 -55 15 -8 4 -6 0 4 -8z"/>
</g>
</svg>
