<?xml version="1.0" standalone="no"?>
<!DOCTYPE svg PUBLIC "-//W3C//DTD SVG 20010904//EN"
 "http://www.w3.org/TR/2001/REC-SVG-20010904/DTD/svg10.dtd">
<svg version="1.0" xmlns="http://www.w3.org/2000/svg"
 width="32.000000pt" height="32.000000pt" viewBox="0 0 32.000000 32.000000"
 preserveAspectRatio="xMidYMid meet">
<metadata>
Created by potrace 1.16, written by Peter Selinger 2001-2019
</metadata>
<g transform="translate(0.000000,32.000000) scale(0.100000,-0.100000)"
fill="#000000" stroke="none">
<path fill="#000000" stroke="none" d="M224 256 c-10 -26 4 -48 28 -44 17 2
23 10 23 28 0 18 -6 26 -23 28 -13 2 -25 -3 -28 -12z"/>
<path fill="#ffffff" stroke="none" d="M270 241 c0 -14 -18 -23 -30 -16 -6 4
-8 11 -5 16 8 12 35 12 35 0z"/>
<path fill="#000000" stroke="none" d="M182 199 c-13 -16 -31 -29 -41 -29 -27
0 -91 -72 -91 -103 0 -23 4 -27 28 -27 31 0 102 64 102 91 0 8 5 20 12 27 8 8
9 12 1 12 -6 0 -14 -5 -16 -10 -3 -6 -4 -5 -3 2 2 7 9 13 17 13 9 0 15 -14 17
-45 2 -25 7 -48 11 -53 4 -4 4 18 1 49 -5 41 -3 57 7 63 11 6 10 10 -4 23 -17
14 -20 13 -41 -13z"/>
<path fill="#ffffff" stroke="none" d="M161 145 c0 -6 -10 -12 -23 -13 -19 -4
-20 -2 -9 12 15 17 33 18 32 1z"/>
<path fill="#ffffff" stroke="none" d="M141 88 c-8 -10 -19 -18 -24 -18 -5 0
-4 7 3 15 20 24 5 18 -16 -7 -10 -12 -13 -18 -6 -14 6 4 12 2 12 -3 0 -15 -13
-14 -29 2 -11 10 -13 10 -7 0 4 -7 2 -13 -3 -13 -6 0 -11 5 -11 12 0 23 31 45
64 45 31 0 32 -1 17 -19z"/>
</g>
</svg>
