<?xml version="1.0" standalone="no"?>
<!DOCTYPE svg PUBLIC "-//W3C//DTD SVG 20010904//EN"
 "http://www.w3.org/TR/2001/REC-SVG-20010904/DTD/svg10.dtd">
<svg version="1.0" xmlns="http://www.w3.org/2000/svg"
 width="32.000000pt" height="32.000000pt" viewBox="0 0 32.000000 32.000000"
 preserveAspectRatio="xMidYMid meet">
<metadata>
Created by potrace 1.16, written by Peter Selinger 2001-2019
</metadata>
<g transform="translate(0.000000,32.000000) scale(0.100000,-0.100000)"
fill="#000000" stroke="none">
<path fill="#000000" stroke="none" d="M0 160 l0 -160 160 0 160 0 0 160 0
160 -160 0 -160 0 0 -160z"/>
<path fill="#ffffff" stroke="none" d="M180 284 c-25 -16 -56 -70 -62 -109 -2
-14 2 -20 15 -19 9 1 17 -2 17 -7 0 -19 -30 -8 -46 16 -17 26 -12 95 7 95 6 0
6 -7 -1 -19 -16 -30 -12 -36 10 -16 26 23 26 45 0 52 -34 9 -11 23 38 23 47
-1 47 -1 22 -16z"/>
<path fill="#ffffff" stroke="none" d="M61 242 c-6 -12 -11 -41 -11 -65 0 -36
-4 -46 -20 -50 -17 -4 -20 0 -20 29 0 35 24 93 44 106 16 10 19 2 7 -20z"/>
<path fill="#ffffff" stroke="none" d="M248 196 l-1 -41 -4 40 c-3 22 -12 49
-21 60 -17 20 -17 20 6 1 17 -15 22 -29 20 -60z"/>
<path fill="#ffffff" stroke="none" d="M77 183 c-3 -10 -5 -4 -5 12 0 17 2 24
5 18 2 -7 2 -21 0 -30z"/>
<path fill="#ffffff" stroke="none" d="M214 159 c-9 -10 -24 -19 -33 -18 -10
0 -7 4 7 10 13 5 27 19 30 31 3 13 7 17 10 10 2 -7 -4 -22 -14 -33z"/>
<path fill="#ffffff" stroke="none" d="M180 175 c0 -9 -6 -12 -15 -9 -8 4 -12
10 -9 15 8 14 24 10 24 -6z"/>
<path fill="#ffffff" stroke="none" d="M94 144 c3 -8 2 -12 -4 -9 -6 3 -10 10
-10 16 0 14 7 11 14 -7z"/>
<path fill="#ffffff" stroke="none" d="M240 146 c0 -2 -8 -10 -17 -17 -16 -13
-17 -12 -4 4 13 16 21 21 21 13z"/>
</g>
</svg>
