<?xml version="1.0" standalone="no"?>
<!DOCTYPE svg PUBLIC "-//W3C//DTD SVG 20010904//EN"
 "http://www.w3.org/TR/2001/REC-SVG-20010904/DTD/svg10.dtd">
<svg version="1.0" xmlns="http://www.w3.org/2000/svg"
 width="32.000000pt" height="32.000000pt" viewBox="0 0 32.000000 32.000000"
 preserveAspectRatio="xMidYMid meet">
<metadata>
Created by potrace 1.16, written by Peter Selinger 2001-2019
</metadata>
<g transform="translate(0.000000,32.000000) scale(0.100000,-0.100000)"
fill="#000000" stroke="none">
<path fill="#000000" stroke="none" d="M264 270 c-4 -16 -5 -32 -4 -36 1 -4
-22 -30 -52 -58 -55 -51 -55 -51 -116 -49 -69 1 -72 -3 -49 -60 21 -48 39 -60
71 -46 15 7 29 23 32 36 4 12 10 21 14 18 4 -3 24 14 44 38 20 23 45 51 54 62
12 13 19 40 21 73 2 57 -6 69 -15 22z"/>
<path fill="#ffffff" stroke="none" d="M57 114 c-3 -3 5 -24 19 -46 25 -39 26
-57 4 -43 -28 17 -46 95 -23 95 4 0 4 -3 0 -6z"/>
<path fill="#000000" stroke="none" d="M148 239 c-21 -11 -38 -25 -39 -32 0
-6 -4 -1 -10 11 -12 30 -33 23 -37 -11 -6 -52 52 -40 109 22 32 35 29 36 -23
10z"/>
<path fill="#ffffff" stroke="none" d="M90 221 c0 -5 3 -16 6 -25 4 -11 1 -16
-10 -16 -10 0 -16 9 -16 25 0 14 5 25 10 25 6 0 10 -4 10 -9z"/>
<path fill="#ffffff" stroke="none" d="M147 213 c-9 -9 -20 -13 -24 -9 -4 4
-1 11 7 16 25 16 35 11 17 -7z"/>
<path fill="#000000" stroke="none" d="M186 205 c-9 -26 -7 -32 5 -12 6 10 9
21 6 23 -2 3 -7 -2 -11 -11z"/>
<path fill="#000000" stroke="none" d="M260 145 c-5 -14 -15 -25 -21 -25 -7 0
-9 -3 -6 -6 9 -10 34 13 40 36 7 28 -2 25 -13 -5z"/>
</g>
</svg>
