<?xml version="1.0" standalone="no"?>
<!DOCTYPE svg PUBLIC "-//W3C//DTD SVG 20010904//EN"
 "http://www.w3.org/TR/2001/REC-SVG-20010904/DTD/svg10.dtd">
<svg version="1.0" xmlns="http://www.w3.org/2000/svg"
 width="32.000000pt" height="32.000000pt" viewBox="0 0 32.000000 32.000000"
 preserveAspectRatio="xMidYMid meet">
<metadata>
Created by potrace 1.16, written by Peter Selinger 2001-2019
</metadata>
<g transform="translate(0.000000,32.000000) scale(0.100000,-0.100000)"
fill="#000000" stroke="none">
<path fill="#000000" stroke="none" d="M139 294 c-14 -18 -3 -45 22 -51 8 -3
7 0 -3 7 -20 12 -24 35 -8 45 6 4 19 1 28 -7 15 -12 16 -11 3 5 -17 21 -25 21
-42 1z"/>
<path fill="#000000" stroke="none" d="M111 209 c-13 -11 -30 -18 -38 -15 -7
3 -13 1 -13 -4 0 -5 9 -12 20 -15 12 -4 20 -15 20 -28 1 -12 7 -33 14 -47 10
-17 11 -30 5 -43 -14 -26 -2 -37 40 -37 45 0 54 7 40 31 -7 14 -5 27 6 48 8
17 15 39 15 50 0 11 9 22 20 26 11 3 20 11 20 16 0 6 -13 1 -28 -10 l-28 -20
-13 36 c-9 23 -16 31 -21 23 -5 -9 -9 -9 -14 -1 -10 15 -17 14 -45 -10z"/>
<path fill="#ffffff" stroke="none" d="M188 168 c15 -15 15 -40 0 -73 -14 -32
-42 -32 -56 0 -22 47 -9 85 28 85 9 0 21 -5 28 -12z"/>
<path fill="#ffffff" stroke="none" d="M187 54 c-3 -3 -12 -4 -19 -1 -8 3 -5
6 6 6 11 1 17 -2 13 -5z"/>
<path fill="#ffffff" stroke="none" d="M197 34 c-3 -3 -12 -4 -19 -1 -8 3 -5
6 6 6 11 1 17 -2 13 -5z"/>
</g>
</svg>
