<?xml version="1.0" standalone="no"?>
<!DOCTYPE svg PUBLIC "-//W3C//DTD SVG 20010904//EN"
 "http://www.w3.org/TR/2001/REC-SVG-20010904/DTD/svg10.dtd">
<svg version="1.0" xmlns="http://www.w3.org/2000/svg"
 width="32.000000pt" height="32.000000pt" viewBox="0 0 32.000000 32.000000"
 preserveAspectRatio="xMidYMid meet">
<metadata>
Created by potrace 1.16, written by Peter Selinger 2001-2019
</metadata>
<g transform="translate(0.000000,32.000000) scale(0.100000,-0.100000)"
fill="#000000" stroke="none">
<path fill="#000000" stroke="none" d="M87 232 c-38 -40 -38 -104 0 -144 38
-40 108 -40 146 0 21 22 27 38 27 74 0 31 -5 50 -17 59 -11 9 -14 10 -9 2 4
-7 9 -33 12 -57 5 -39 2 -48 -20 -70 -17 -18 -36 -26 -61 -26 -33 0 -34 1 -17
18 15 16 18 16 29 2 10 -13 14 -12 37 9 14 14 26 35 26 48 0 19 -6 23 -32 24
-31 2 -31 2 -5 6 32 5 31 3 10 48 -15 32 -21 35 -58 35 -32 0 -47 -6 -68 -28z"/>
<path fill="#ffffff" stroke="none" d="M166 209 c3 -5 10 -7 15 -4 17 11 9 -2
-18 -26 -14 -13 -23 -18 -18 -10 6 10 2 11 -15 6 -18 -6 -22 -4 -17 8 4 11 2
14 -9 10 -13 -5 -20 8 -9 19 9 9 64 7 71 -3z"/>
<path fill="#000000" stroke="none" d="M62 38 c-31 -31 -14 -38 98 -38 112 0
129 7 98 38 -16 16 -180 16 -196 0z"/>
</g>
</svg>
