<?xml version="1.0" standalone="no"?>
<!DOCTYPE svg PUBLIC "-//W3C//DTD SVG 20010904//EN"
 "http://www.w3.org/TR/2001/REC-SVG-20010904/DTD/svg10.dtd">
<svg version="1.0" xmlns="http://www.w3.org/2000/svg"
 width="32.000000pt" height="32.000000pt" viewBox="0 0 32.000000 32.000000"
 preserveAspectRatio="xMidYMid meet">
<metadata>
Created by potrace 1.16, written by Peter Selinger 2001-2019
</metadata>
<g transform="translate(0.000000,32.000000) scale(0.100000,-0.100000)"
fill="#000000" stroke="none">
<path fill="#000000" stroke="none" d="M0 160 l0 -160 25 0 c14 0 25 5 25 10
0 6 -7 10 -15 10 -13 0 -15 22 -15 141 l0 140 53 -3 c30 -2 51 -7 50 -14 -1
-6 4 -11 12 -11 8 0 12 4 10 8 -8 12 24 19 91 19 l64 0 0 -140 c0 -118 -2
-140 -15 -140 -8 0 -15 -4 -15 -10 0 -5 11 -10 25 -10 l25 0 0 160 0 160 -160
0 -160 0 0 -160z"/>
<path fill="#000000" stroke="none" d="M57 263 c-12 -11 -8 -23 7 -23 8 0 16
-7 18 -16 3 -13 5 -13 23 1 17 14 17 16 3 11 -10 -3 -18 -1 -18 4 0 6 -8 10
-17 11 -12 1 -10 4 7 9 22 7 22 8 4 9 -11 1 -24 -2 -27 -6z"/>
<path fill="#000000" stroke="none" d="M125 199 c-12 -19 5 -23 22 -6 16 16
16 17 1 17 -9 0 -20 -5 -23 -11z"/>
</g>
</svg>
