<?xml version="1.0" standalone="no"?>
<!DOCTYPE svg PUBLIC "-//W3C//DTD SVG 20010904//EN"
 "http://www.w3.org/TR/2001/REC-SVG-20010904/DTD/svg10.dtd">
<svg version="1.0" xmlns="http://www.w3.org/2000/svg"
 width="32.000000pt" height="32.000000pt" viewBox="0 0 32.000000 32.000000"
 preserveAspectRatio="xMidYMid meet">
<metadata>
Created by potrace 1.16, written by Peter Selinger 2001-2019
</metadata>
<g transform="translate(0.000000,32.000000) scale(0.100000,-0.100000)"
fill="#000000" stroke="none">
<path fill="#000000" stroke="none" d="M0 160 l0 -160 24 0 c16 0 26 7 29 21
5 18 10 20 34 13 36 -11 110 -11 146 0 24 7 29 5 34 -13 3 -14 13 -21 29 -21
l24 0 0 160 0 160 -160 0 -160 0 0 -160z"/>
<path fill="#ffffff" stroke="none" d="M232 233 c23 -22 28 -35 28 -75 0 -45
-11 -61 -25 -38 -11 18 -45 10 -55 -12 -5 -13 -9 -17 -9 -10 -1 8 -7 6 -19 -5
-17 -17 -16 -18 8 -24 22 -6 20 -7 -11 -8 -81 -3 -122 109 -62 171 38 39 105
40 145 1z"/>
<path fill="#ffffff" stroke="none" d="M220 112 c0 -4 -5 -13 -12 -20 -14 -14
3 -16 20 -2 7 5 6 3 -2 -6 -8 -9 -19 -13 -25 -10 -16 11 -13 46 4 46 8 0 15
-4 15 -8z"/>
<path fill="#ffffff" stroke="none" d="M185 40 c-8 -13 -55 -13 -75 0 -11 7
-2 10 33 10 30 0 46 -4 42 -10z"/>
<path fill="#000000" stroke="none" d="M95 212 c-11 -11 -4 -24 9 -19 11 4 13
1 9 -10 -5 -12 -1 -14 17 -8 17 5 21 4 15 -6 -5 -8 4 -3 18 10 27 24 35 37 18
26 -5 -3 -12 -1 -15 4 -7 10 -62 12 -71 3z"/>
<path fill="#000000" stroke="none" d="M242 145 c0 -16 2 -22 5 -12 2 9 2 23
0 30 -3 6 -5 -1 -5 -18z"/>
</g>
</svg>
