<?xml version="1.0" standalone="no"?>
<!DOCTYPE svg PUBLIC "-//W3C//DTD SVG 20010904//EN"
 "http://www.w3.org/TR/2001/REC-SVG-20010904/DTD/svg10.dtd">
<svg version="1.0" xmlns="http://www.w3.org/2000/svg"
 width="32.000000pt" height="32.000000pt" viewBox="0 0 32.000000 32.000000"
 preserveAspectRatio="xMidYMid meet">
<metadata>
Created by potrace 1.16, written by Peter Selinger 2001-2019
</metadata>
<g transform="translate(0.000000,32.000000) scale(0.100000,-0.100000)"
fill="#000000" stroke="none">
<path fill="#000000" stroke="none" d="M122 237 c2 -21 5 -24 21 -16 21 12 18
33 -6 37 -13 3 -16 -3 -15 -21z"/>
<path fill="#000000" stroke="none" d="M165 233 c0 -19 5 -27 15 -25 9 2 6 -6
-9 -22 -24 -26 -37 -34 -27 -17 3 5 -9 8 -27 7 -26 -1 -33 3 -35 22 -6 39 -22
13 -22 -37 0 -64 36 -101 100 -101 63 0 100 37 100 99 0 35 -6 51 -27 73 -36
38 -69 38 -68 1z"/>
<path fill="#ffffff" stroke="none" d="M250 145 c0 -38 -42 -75 -85 -75 -33 0
-34 1 -17 18 15 16 18 16 29 2 10 -13 14 -12 37 9 14 14 26 35 26 48 0 13 2
23 5 23 3 0 5 -11 5 -25z"/>
<path fill="#000000" stroke="none" d="M62 38 c-31 -31 -14 -38 98 -38 112 0
129 7 98 38 -16 16 -180 16 -196 0z"/>
</g>
</svg>
