<?xml version="1.0" standalone="no"?>
<!DOCTYPE svg PUBLIC "-//W3C//DTD SVG 20010904//EN"
 "http://www.w3.org/TR/2001/REC-SVG-20010904/DTD/svg10.dtd">
<svg version="1.0" xmlns="http://www.w3.org/2000/svg"
 width="32.000000pt" height="32.000000pt" viewBox="0 0 32.000000 32.000000"
 preserveAspectRatio="xMidYMid meet">
<metadata>
Created by potrace 1.16, written by Peter Selinger 2001-2019
</metadata>
<g transform="translate(0.000000,32.000000) scale(0.100000,-0.100000)"
fill="#000000" stroke="none">
<path fill="#000000" stroke="none" d="M57 263 c-3 -5 -2 -15 2 -22 7 -10 10
-10 16 -1 4 6 3 16 -3 22 -5 5 -12 6 -15 1z"/>
<path fill="#000000" stroke="none" d="M253 256 c0 -8 6 -12 14 -9 7 3 10 9 7
14 -8 14 -21 11 -21 -5z"/>
<path fill="#000000" stroke="none" d="M87 232 c-38 -40 -38 -104 0 -144 22
-23 35 -28 74 -28 43 0 76 17 64 33 -3 4 -2 5 2 2 30 -22 48 100 18 125 -13
11 -14 8 -9 -19 6 -28 4 -31 -17 -30 -17 1 -19 3 -6 6 21 6 21 16 2 53 -14 26
-21 30 -58 30 -34 0 -49 -6 -70 -28z"/>
<path fill="#ffffff" stroke="none" d="M160 201 c0 -4 -12 -13 -26 -19 -26
-12 -26 -7 -1 25 9 13 27 9 27 -6z"/>
<path fill="#ffffff" stroke="none" d="M175 80 c3 -5 -1 -10 -10 -10 -9 0 -13
5 -10 10 3 6 8 10 10 10 2 0 7 -4 10 -10z"/>
<path fill="#000000" stroke="none" d="M52 36 l0 -36 108 0 107 0 7 32 c7 36
1 47 -16 30 -15 -15 -180 -16 -195 -1 -8 8 -11 1 -11 -25z"/>
</g>
</svg>
