<?xml version="1.0" standalone="no"?>
<!DOCTYPE svg PUBLIC "-//W3C//DTD SVG 20010904//EN"
 "http://www.w3.org/TR/2001/REC-SVG-20010904/DTD/svg10.dtd">
<svg version="1.0" xmlns="http://www.w3.org/2000/svg"
 width="32.000000pt" height="32.000000pt" viewBox="0 0 32.000000 32.000000"
 preserveAspectRatio="xMidYMid meet">
<metadata>
Created by potrace 1.16, written by Peter Selinger 2001-2019
</metadata>
<g transform="translate(0.000000,32.000000) scale(0.100000,-0.100000)"
fill="#000000" stroke="none">
<path fill="#000000" stroke="none" d="M0 160 l0 -160 25 0 c15 0 25 6 25 14
0 24 16 27 62 15 45 -12 123 -5 113 11 -3 4 5 6 16 3 12 -4 24 -14 26 -25 3
-11 14 -18 29 -18 l24 0 0 160 0 160 -160 0 -160 0 0 -160z"/>
<path fill="#ffffff" stroke="none" d="M232 233 c23 -22 28 -35 28 -76 0 -43
-2 -48 -19 -42 -13 4 -20 0 -24 -15 -5 -19 -3 -20 11 -8 15 12 16 11 3 -4 -17
-23 -41 -23 -41 0 0 14 -2 15 -10 2 -7 -11 -10 -11 -10 -2 0 10 -3 10 -14 0
-12 -11 -11 -14 8 -20 16 -4 13 -6 -15 -7 -81 -2 -122 109 -62 171 38 39 105
40 145 1z"/>
<path fill="#ffffff" stroke="none" d="M185 40 c-7 -12 -52 -12 -80 0 -15 6
-6 9 33 9 33 1 51 -3 47 -9z"/>
<path fill="#000000" stroke="none" d="M103 207 c-4 -6 -1 -7 7 -2 10 6 12 3
8 -11 -4 -16 0 -19 21 -18 14 1 27 3 29 3 2 1 -1 9 -6 18 -11 19 -50 25 -59
10z"/>
<path fill="#000000" stroke="none" d="M241 144 c0 -11 3 -14 6 -6 3 7 2 16
-1 19 -3 4 -6 -2 -5 -13z"/>
</g>
</svg>
