<?xml version="1.0" standalone="no"?>
<!DOCTYPE svg PUBLIC "-//W3C//DTD SVG 20010904//EN"
 "http://www.w3.org/TR/2001/REC-SVG-20010904/DTD/svg10.dtd">
<svg version="1.0" xmlns="http://www.w3.org/2000/svg"
 width="32.000000pt" height="32.000000pt" viewBox="0 0 32.000000 32.000000"
 preserveAspectRatio="xMidYMid meet">
<metadata>
Created by potrace 1.16, written by Peter Selinger 2001-2019
</metadata>
<g transform="translate(0.000000,32.000000) scale(0.100000,-0.100000)"
fill="#000000" stroke="none">
<path fill="#000000" stroke="none" d="M87 232 c-60 -62 -19 -174 62 -171 31
1 33 2 11 8 -24 6 -25 7 -8 24 12 11 18 13 19 5 0 -7 4 -3 9 10 10 22 44 30
55 12 14 -23 25 -7 25 38 0 40 -5 53 -28 75 -40 39 -107 38 -145 -1z"/>
<path fill="#ffffff" stroke="none" d="M166 209 c3 -5 10 -7 15 -4 17 11 9 -2
-18 -26 -14 -13 -23 -18 -18 -10 6 10 2 11 -15 6 -18 -6 -22 -4 -17 8 4 11 2
14 -9 10 -13 -5 -20 8 -9 19 9 9 64 7 71 -3z"/>
<path fill="#ffffff" stroke="none" d="M247 133 c-3 -10 -5 -4 -5 12 0 17 2
24 5 18 2 -7 2 -21 0 -30z"/>
<path fill="#000000" stroke="none" d="M190 101 c0 -28 19 -36 36 -17 8 9 9
11 2 6 -17 -14 -34 -12 -20 2 16 16 15 28 -3 28 -8 0 -15 -9 -15 -19z"/>
<path fill="#000000" stroke="none" d="M110 40 c20 -13 67 -13 75 0 4 6 -12
10 -42 10 -35 0 -44 -3 -33 -10z"/>
<path fill="#000000" stroke="none" d="M57 34 c-4 -4 -7 -13 -7 -21 0 -10 25
-13 111 -13 100 0 110 2 107 18 -3 12 -11 16 -28 14 -54 -7 -126 -6 -150 1
-14 5 -29 5 -33 1z"/>
</g>
</svg>
