<?xml version="1.0" standalone="no"?>
<!DOCTYPE svg PUBLIC "-//W3C//DTD SVG 20010904//EN"
 "http://www.w3.org/TR/2001/REC-SVG-20010904/DTD/svg10.dtd">
<svg version="1.0" xmlns="http://www.w3.org/2000/svg"
 width="32.000000pt" height="32.000000pt" viewBox="0 0 32.000000 32.000000"
 preserveAspectRatio="xMidYMid meet">
<metadata>
Created by potrace 1.16, written by Peter Selinger 2001-2019
</metadata>
<g transform="translate(0.000000,32.000000) scale(0.100000,-0.100000)"
fill="#000000" stroke="none">
<path fill="#000000" stroke="none" d="M55 260 c-3 -5 -2 -10 4 -10 5 0 13 5
16 10 3 6 2 10 -4 10 -5 0 -13 -4 -16 -10z"/>
<path fill="#000000" stroke="none" d="M90 229 c-19 -19 -25 -36 -25 -69 0
-60 36 -97 95 -97 59 0 95 37 95 97 0 62 -33 95 -95 95 -35 0 -50 -6 -70 -26z"/>
<path fill="#ffffff" stroke="none" d="M206 217 c23 -20 26 -28 20 -60 -4 -21
-15 -41 -26 -47 -26 -14 -30 -13 -31 8 -1 15 -2 15 -6 0 -6 -23 -39 -18 -65 9
-21 22 -19 53 3 53 9 0 9 -3 0 -14 -17 -20 47 -11 71 11 22 20 22 27 2 47 -24
25 2 19 32 -7z"/>
<path fill="#000000" stroke="none" d="M186 141 c-4 -5 -2 -12 3 -15 5 -4 12
-2 15 3 4 5 2 12 -3 15 -5 4 -12 2 -15 -3z"/>
<path fill="#000000" stroke="none" d="M26 218 c-10 -40 -6 -104 8 -123 11
-16 12 -11 3 32 -8 40 -7 55 6 81 12 25 13 32 2 32 -7 0 -15 -10 -19 -22z"/>
</g>
</svg>
