<?xml version="1.0" standalone="no"?>
<!DOCTYPE svg PUBLIC "-//W3C//DTD SVG 20010904//EN"
 "http://www.w3.org/TR/2001/REC-SVG-20010904/DTD/svg10.dtd">
<svg version="1.0" xmlns="http://www.w3.org/2000/svg"
 width="32.000000pt" height="32.000000pt" viewBox="0 0 32.000000 32.000000"
 preserveAspectRatio="xMidYMid meet">
<metadata>
Created by potrace 1.16, written by Peter Selinger 2001-2019
</metadata>
<g transform="translate(0.000000,32.000000) scale(0.100000,-0.100000)"
fill="#000000" stroke="none">
<path fill="#000000" stroke="none" d="M154 235 c-18 -7 -35 -18 -39 -24 -4
-7 -16 -9 -28 -6 -12 2 -16 2 -9 -1 6 -3 10 -9 7 -14 -9 -15 80 11 99 29 24
24 9 33 -30 16z"/>
<path fill="#ffffff" stroke="none" d="M180 225 c-7 -9 -15 -13 -18 -10 -3 3
-12 -1 -21 -8 -14 -11 -14 -10 -2 5 7 10 17 16 21 13 5 -3 11 -1 15 5 3 5 9
10 12 10 3 0 0 -7 -7 -15z"/>
<path fill="#000000" stroke="none" d="M223 233 c5 -7 -11 -33 -38 -63 -25
-28 -45 -59 -45 -70 0 -47 100 -65 139 -25 15 16 15 17 -9 3 -32 -19 -77 -16
-98 7 -13 13 -13 16 -2 9 13 -7 13 -5 2 8 -11 14 -7 21 27 49 23 18 39 35 36
37 -3 3 0 11 5 17 7 9 5 17 -7 26 -10 8 -14 9 -10 2z"/>
</g>
</svg>
