<?xml version="1.0" standalone="no"?>
<!DOCTYPE svg PUBLIC "-//W3C//DTD SVG 20010904//EN"
 "http://www.w3.org/TR/2001/REC-SVG-20010904/DTD/svg10.dtd">
<svg version="1.0" xmlns="http://www.w3.org/2000/svg"
 width="32.000000pt" height="32.000000pt" viewBox="0 0 32.000000 32.000000"
 preserveAspectRatio="xMidYMid meet">
<metadata>
Created by potrace 1.16, written by Peter Selinger 2001-2019
</metadata>
<g transform="translate(0.000000,32.000000) scale(0.100000,-0.100000)"
fill="#000000" stroke="none">
<path fill="#000000" stroke="none" d="M161 247 c-6 -6 -11 -8 -11 -4 0 10
-50 -23 -99 -65 -24 -21 -40 -41 -36 -48 4 -6 1 -17 -5 -25 -19 -23 5 -47 38
-38 16 4 23 2 19 -4 -8 -13 12 -29 33 -28 8 1 27 9 42 19 18 12 49 19 90 20
62 2 62 2 71 37 4 19 9 54 10 79 2 41 0 45 -20 42 -12 -2 -31 2 -42 8 -29 15
-78 19 -90 7z"/>
<path fill="#ffffff" stroke="none" d="M251 230 c16 -7 35 -10 44 -6 12 4 14
-2 12 -28 -1 -19 -5 -32 -8 -30 -11 7 -19 -25 -13 -54 5 -23 2 -28 -15 -29
-14 -1 -18 3 -14 13 5 13 -1 12 -36 -2 -23 -9 -50 -14 -60 -11 -13 3 -23 -3
-31 -17 -10 -19 -30 -25 -58 -17 -1 1 2 11 9 23 9 17 9 20 -2 16 -42 -16 -58
-18 -64 -8 -4 6 -1 17 5 25 6 8 9 19 5 24 -3 6 11 25 31 43 43 38 94 71 94 61
0 -4 5 -2 11 4 12 12 50 9 90 -7z"/>
<path fill="#000000" stroke="none" d="M36 141 c-4 -5 3 -7 14 -4 23 6 26 13
6 13 -8 0 -17 -4 -20 -9z"/>
</g>
</svg>
