<?xml version="1.0" standalone="no"?>
<!DOCTYPE svg PUBLIC "-//W3C//DTD SVG 20010904//EN"
 "http://www.w3.org/TR/2001/REC-SVG-20010904/DTD/svg10.dtd">
<svg version="1.0" xmlns="http://www.w3.org/2000/svg"
 width="32.000000pt" height="32.000000pt" viewBox="0 0 32.000000 32.000000"
 preserveAspectRatio="xMidYMid meet">
<metadata>
Created by potrace 1.16, written by Peter Selinger 2001-2019
</metadata>
<g transform="translate(0.000000,32.000000) scale(0.100000,-0.100000)"
fill="#000000" stroke="none">
<path fill="#000000" stroke="none" d="M161 247 c-6 -6 -11 -8 -11 -4 0 10
-50 -23 -99 -65 -24 -21 -40 -41 -36 -48 4 -6 1 -17 -5 -25 -19 -23 5 -47 38
-38 16 4 23 2 19 -4 -8 -13 12 -29 33 -28 8 1 27 9 42 19 18 12 49 19 90 20
60 2 63 3 69 32 4 16 10 38 14 48 6 14 5 17 -3 12 -9 -6 -9 -1 -1 18 14 31 5
58 -16 50 -8 -4 -28 -1 -44 6 -40 16 -78 19 -90 7z"/>
<path fill="#ffffff" stroke="none" d="M198 242 c13 11 14 11 10 -2 -2 -8 -11
-15 -19 -15 -8 0 -17 -4 -21 -10 -5 -6 -8 -3 -8 6 0 20 13 34 18 19 3 -7 9 -7
20 2z"/>
<path fill="#ffffff" stroke="none" d="M153 197 c-9 -16 -26 12 -18 30 7 17 8
17 15 -2 4 -11 5 -24 3 -28z"/>
<path fill="#ffffff" stroke="none" d="M214 205 c-9 -14 -21 -22 -26 -18 -6 3
-1 14 13 24 31 24 33 24 13 -6z"/>
<path fill="#ffffff" stroke="none" d="M310 214 c0 -8 -5 -12 -10 -9 -6 4 -8
11 -5 16 9 14 15 11 15 -7z"/>
<path fill="#ffffff" stroke="none" d="M145 150 c-5 -8 -11 -7 -21 1 -12 9
-12 15 -2 28 11 14 11 14 -3 4 -9 -7 -20 -10 -25 -6 -5 4 7 -9 25 -30 40 -43
52 -45 104 -17 49 26 47 17 -3 -16 -48 -32 -79 -27 -110 16 -12 17 -30 30 -43
30 -19 0 -17 3 13 29 l35 29 18 -29 c10 -15 16 -33 12 -39z"/>
<path fill="#ffffff" stroke="none" d="M222 179 c29 18 30 9 2 -16 -20 -18
-26 -19 -30 -8 -3 7 -12 11 -19 9 -16 -6 -29 12 -20 27 5 7 14 4 27 -7 16 -15
22 -16 40 -5z"/>
<path fill="#ffffff" stroke="none" d="M180 141 c0 -14 -18 -23 -30 -16 -6 4
-8 11 -5 16 8 12 35 12 35 0z"/>
<path fill="#ffffff" stroke="none" d="M77 124 c3 -9 -2 -23 -12 -32 -13 -13
-16 -13 -10 -2 6 10 2 9 -12 -3 -28 -24 -39 -6 -17 28 18 28 42 33 51 9z"/>
<path fill="#ffffff" stroke="none" d="M287 102 c1 -11 -6 -18 -19 -19 -19 -2
-19 -1 -3 18 22 23 20 23 22 1z"/>
<path fill="#ffffff" stroke="none" d="M135 82 c-7 -8 -35 7 -35 18 0 6 7 6
20 -2 10 -7 17 -14 15 -16z"/>
<path fill="#ffffff" stroke="none" d="M113 56 c3 -7 -2 -12 -11 -11 -17 1
-22 7 -22 25 0 13 27 2 33 -14z"/>
</g>
</svg>
