<?xml version="1.0" standalone="no"?>
<!DOCTYPE svg PUBLIC "-//W3C//DTD SVG 20010904//EN"
 "http://www.w3.org/TR/2001/REC-SVG-20010904/DTD/svg10.dtd">
<svg version="1.0" xmlns="http://www.w3.org/2000/svg"
 width="32.000000pt" height="32.000000pt" viewBox="0 0 32.000000 32.000000"
 preserveAspectRatio="xMidYMid meet">
<metadata>
Created by potrace 1.16, written by Peter Selinger 2001-2019
</metadata>
<g transform="translate(0.000000,32.000000) scale(0.100000,-0.100000)"
fill="#000000" stroke="none">
<path fill="#000000" stroke="none" d="M35 297 c-8 -12 -15 -29 -15 -39 0 -10
-4 -18 -9 -18 -5 0 -7 -15 -5 -32 1 -18 3 -46 4 -63 0 -21 3 -26 9 -17 5 8 17
12 27 10 26 -5 25 -34 -1 -31 -11 1 -15 0 -8 -3 7 -3 9 -12 6 -21 -4 -11 -2
-14 5 -9 7 4 10 2 7 -6 -3 -8 1 -22 10 -33 14 -19 15 -19 11 8 -4 25 -3 27 10
16 9 -7 13 -21 10 -34 -5 -19 -1 -21 43 -20 27 0 47 3 44 7 -3 7 36 11 63 7 4
0 11 5 15 13 5 7 9 8 9 3 0 -6 11 -12 24 -13 24 -2 24 -1 24 90 0 99 -13 142
-48 153 -11 3 -20 15 -20 26 0 21 -22 25 -38 7 -6 -7 -12 -26 -14 -43 l-3 -30
-48 44 c-55 51 -90 59 -112 28z"/>
<path fill="#ffffff" stroke="none" d="M74 275 c-4 -10 0 -15 10 -15 14 0 14
-2 4 -14 -7 -7 -19 -11 -27 -8 -8 3 -12 1 -8 -5 4 -6 -2 -13 -13 -16 -21 -5
-24 1 -14 27 3 8 11 13 19 10 7 -3 15 4 18 15 3 12 8 21 11 21 3 0 3 -7 0 -15z"/>
<path fill="#ffffff" stroke="none" d="M135 262 c-3 -3 -11 0 -18 7 -9 10 -8
11 6 5 10 -3 15 -9 12 -12z"/>
<path fill="#ffffff" stroke="none" d="M136 229 c19 -21 19 -21 -8 -8 -15 6
-25 16 -22 20 7 12 8 12 30 -12z"/>
<path fill="#ffffff" stroke="none" d="M160 156 c-1 -6 -8 2 -16 17 -8 16 -20
25 -26 21 -7 -5 -8 -2 -3 6 6 10 12 8 27 -9 10 -13 18 -28 18 -35z"/>
<path fill="#ffffff" stroke="none" d="M233 175 c15 1 25 -1 21 -4 -3 -3 -9
-6 -12 -6 -4 -1 -18 -5 -31 -9 -19 -6 -28 -4 -38 10 -20 27 -16 36 10 21 12
-8 34 -13 50 -12z"/>
<path fill="#ffffff" stroke="none" d="M47 167 c1 -11 1 -18 0 -16 -2 2 -8 11
-15 20 -9 12 -9 16 1 16 7 0 14 -9 14 -20z"/>
<path fill="#ffffff" stroke="none" d="M290 140 c0 -5 -5 -10 -11 -10 -5 0 -7
5 -4 10 3 6 8 10 11 10 2 0 4 -4 4 -10z"/>
<path fill="#ffffff" stroke="none" d="M245 111 c7 -12 -12 -24 -25 -16 -11 7
-4 25 10 25 5 0 11 -4 15 -9z"/>
<path fill="#ffffff" stroke="none" d="M165 36 c0 -14 -3 -22 -7 -20 -4 3 -8
13 -9 22 -1 11 -4 8 -9 -8 -7 -21 -8 -22 -9 -4 -1 20 18 48 28 39 2 -3 5 -16
6 -29z"/>
<path fill="#000000" stroke="none" d="M12 58 c-16 -16 -15 -41 1 -35 6 2 11
13 10 23 -1 10 0 13 3 7 8 -18 25 -16 18 2 -7 18 -16 19 -32 3z"/>
</g>
</svg>
