<?xml version="1.0" standalone="no"?>
<!DOCTYPE svg PUBLIC "-//W3C//DTD SVG 20010904//EN"
 "http://www.w3.org/TR/2001/REC-SVG-20010904/DTD/svg10.dtd">
<svg version="1.0" xmlns="http://www.w3.org/2000/svg"
 width="32.000000pt" height="32.000000pt" viewBox="0 0 32.000000 32.000000"
 preserveAspectRatio="xMidYMid meet">
<metadata>
Created by potrace 1.16, written by Peter Selinger 2001-2019
</metadata>
<g transform="translate(0.000000,32.000000) scale(0.100000,-0.100000)"
fill="#000000" stroke="none">
<path fill="#000000" stroke="none" d="M0 160 l0 -160 160 0 160 0 0 160 0
160 -160 0 -160 0 0 -160z"/>
<path fill="#ffffff" stroke="none" d="M67 278 c12 -13 27 -43 34 -67 l13 -44
12 34 c7 19 13 28 13 22 1 -7 7 -13 15 -13 8 0 16 6 19 13 2 6 7 -3 12 -22 l7
-34 23 47 c29 59 53 86 78 86 19 0 19 -1 4 -18 -10 -10 -17 -24 -17 -30 0 -7
-6 -12 -12 -12 -9 0 -9 -3 -2 -8 18 -12 10 -56 -13 -80 -13 -12 -23 -28 -23
-34 0 -8 -7 -5 -15 6 -13 18 -20 15 -16 -7 1 -4 -6 -10 -14 -13 -8 -3 -13 -9
-11 -13 3 -4 -6 -7 -19 -7 -14 0 -23 2 -21 3 2 2 -6 15 -17 27 -18 21 -23 22
-32 9 -9 -12 -13 -10 -24 14 -18 37 -21 86 -7 95 8 6 7 8 -1 8 -7 0 -13 5 -13
12 0 6 -7 20 -17 30 -15 17 -15 18 4 18 11 0 29 -10 40 -22z"/>
<path fill="#000000" stroke="none" d="M146 155 c-3 -9 0 -15 9 -15 9 0 12 6
9 15 -4 8 -7 15 -9 15 -2 0 -5 -7 -9 -15z"/>
</g>
</svg>
