<?xml version="1.0" standalone="no"?>
<!DOCTYPE svg PUBLIC "-//W3C//DTD SVG 20010904//EN"
 "http://www.w3.org/TR/2001/REC-SVG-20010904/DTD/svg10.dtd">
<svg version="1.0" xmlns="http://www.w3.org/2000/svg"
 width="32.000000pt" height="32.000000pt" viewBox="0 0 32.000000 32.000000"
 preserveAspectRatio="xMidYMid meet">
<metadata>
Created by potrace 1.16, written by Peter Selinger 2001-2019
</metadata>
<g transform="translate(0.000000,32.000000) scale(0.100000,-0.100000)"
fill="#000000" stroke="none">
<path fill="#000000" stroke="none" d="M0 160 l0 -160 160 0 160 0 0 160 0
160 -160 0 -160 0 0 -160z"/>
<path fill="#ffffff" stroke="none" d="M67 278 c30 -28 29 -38 -2 -38 -14 0
-25 5 -25 12 0 6 -7 20 -17 30 -15 17 -15 18 2 18 10 0 29 -10 42 -22z"/>
<path fill="#ffffff" stroke="none" d="M297 282 c-10 -10 -17 -24 -17 -30 0
-7 -11 -12 -25 -12 -14 0 -25 3 -25 7 0 15 45 53 63 53 19 0 19 -1 4 -18z"/>
<path fill="#ffffff" stroke="none" d="M94 222 c11 -19 16 -72 6 -72 -6 0 -14
-10 -19 -22 -7 -20 -9 -19 -21 13 -7 19 -14 46 -15 62 -2 22 1 27 21 27 12 0
25 -4 28 -8z"/>
<path fill="#ffffff" stroke="none" d="M156 210 c8 0 14 6 15 13 1 31 18 -33
18 -74 1 -46 1 -46 -31 -46 -42 1 -49 20 -36 83 6 27 13 43 15 37 3 -7 11 -13
19 -13z"/>
<path fill="#ffffff" stroke="none" d="M276 202 c0 -15 -11 -37 -24 -50 -12
-12 -22 -28 -22 -34 0 -7 -7 -1 -14 15 -25 46 -4 97 39 97 18 0 22 -5 21 -28z"/>
<path fill="#000000" stroke="none" d="M64 188 l-19 -23 23 19 c21 18 27 26
19 26 -2 0 -12 -10 -23 -22z"/>
<path fill="#000000" stroke="none" d="M133 175 c0 -8 5 -11 10 -8 6 4 8 0 4
-10 -4 -11 -1 -17 8 -17 9 0 12 6 8 17 -4 10 -2 14 4 10 5 -3 10 1 10 9 0 10
-4 11 -10 5 -7 -7 -15 -7 -22 -1 -8 7 -12 5 -12 -5z"/>
<path fill="#000000" stroke="none" d="M245 190 c10 -11 20 -20 23 -20 3 0 -3
9 -13 20 -10 11 -20 20 -23 20 -3 0 3 -9 13 -20z"/>
</g>
</svg>
