<?xml version="1.0" standalone="no"?>
<!DOCTYPE svg PUBLIC "-//W3C//DTD SVG 20010904//EN"
 "http://www.w3.org/TR/2001/REC-SVG-20010904/DTD/svg10.dtd">
<svg version="1.0" xmlns="http://www.w3.org/2000/svg"
 width="32.000000pt" height="32.000000pt" viewBox="0 0 32.000000 32.000000"
 preserveAspectRatio="xMidYMid meet">
<metadata>
Created by potrace 1.16, written by Peter Selinger 2001-2019
</metadata>
<g transform="translate(0.000000,32.000000) scale(0.100000,-0.100000)"
fill="#000000" stroke="none">
<path fill="#000000" stroke="none" d="M94 299 c-9 -10 -14 -22 -11 -25 4 -4
14 2 24 13 10 10 14 13 9 6 -5 -8 -4 -18 3 -27 9 -11 4 -23 -24 -56 -35 -42
-48 -73 -22 -51 8 6 17 8 20 4 4 -3 15 5 26 18 l19 23 -3 -27 c-2 -14 0 -26 3
-26 24 4 32 -4 32 -29 0 -29 -29 -63 -63 -75 -10 -4 -16 -11 -12 -16 6 -11 29
-5 60 16 12 8 14 13 6 13 -12 0 -11 3 1 18 8 9 18 25 21 34 10 29 27 21 27
-13 0 -17 4 -28 10 -24 17 10 11 -17 -7 -38 -16 -19 -17 -20 -1 -14 9 3 19 1
22 -6 3 -9 5 -8 5 1 1 8 6 10 14 6 9 -6 9 -5 0 7 -6 8 -14 32 -17 54 -4 27 -3
33 2 20 13 -30 22 92 9 128 -11 33 -31 31 -35 -4 -3 -22 -26 -49 -43 -49 -4 0
-7 15 -6 34 1 24 7 38 21 46 12 6 14 9 6 6 -9 -2 -20 7 -27 21 -12 24 -11 24
5 10 12 -11 22 -13 32 -7 8 5 11 10 5 11 -13 2 -29 5 -35 8 -25 11 -61 7 -76
-10z"/>
<path fill="#ffffff" stroke="none" d="M160 226 c0 -3 -4 -8 -10 -11 -5 -3
-10 -1 -10 4 0 6 5 11 10 11 6 0 10 -2 10 -4z"/>
<path fill="#000000" stroke="none" d="M252 298 c-7 -7 -12 -16 -12 -22 0 -5
6 -1 14 9 8 11 19 16 30 12 21 -8 21 -33 -1 -47 -11 -7 -12 -10 -4 -7 25 6 36
33 22 51 -16 19 -33 20 -49 4z"/>
<path fill="#000000" stroke="none" d="M58 233 c-28 -31 -48 -65 -48 -84 0 -6
9 0 20 14 11 14 20 30 20 36 0 6 3 11 8 11 10 1 45 50 34 50 -4 0 -20 -12 -34
-27z"/>
<path fill="#000000" stroke="none" d="M119 73 c-13 -16 -12 -17 4 -4 9 7 17
15 17 17 0 8 -8 3 -21 -13z"/>
</g>
</svg>
