<?xml version="1.0" standalone="no"?>
<!DOCTYPE svg PUBLIC "-//W3C//DTD SVG 20010904//EN"
 "http://www.w3.org/TR/2001/REC-SVG-20010904/DTD/svg10.dtd">
<svg version="1.0" xmlns="http://www.w3.org/2000/svg"
 width="32.000000pt" height="32.000000pt" viewBox="0 0 32.000000 32.000000"
 preserveAspectRatio="xMidYMid meet">
<metadata>
Created by potrace 1.16, written by Peter Selinger 2001-2019
</metadata>
<g transform="translate(0.000000,32.000000) scale(0.100000,-0.100000)"
fill="#000000" stroke="none">
<path fill="#000000" stroke="none" d="M0 160 l0 -160 160 0 160 0 0 160 0
160 -160 0 -160 0 0 -160z"/>
<path fill="#ffffff" stroke="none" d="M184 281 c11 -13 16 -32 14 -57 -3 -37
-1 -39 25 -39 15 0 27 4 26 9 0 5 5 13 13 17 9 6 6 9 -10 9 -27 0 -25 23 2 28
22 5 56 -25 56 -50 0 -28 -36 -58 -71 -58 l-32 0 27 -21 c14 -11 26 -29 26
-39 0 -31 -47 -60 -99 -60 -61 0 -95 18 -99 52 -2 15 -10 32 -18 38 -34 29 -2
77 59 87 24 4 39 12 43 25 10 32 -4 33 -34 5 -33 -32 -43 -33 -66 -8 -25 27
-17 41 34 61 60 24 83 24 104 1z"/>
<path fill="#000000" stroke="none" d="M154 262 c5 -7 5 -24 2 -37 -8 -31 -55
-87 -67 -79 -5 3 -9 2 -8 -3 1 -4 -1 -20 -5 -35 -5 -15 -3 -34 3 -45 9 -15 10
-14 5 10 -5 23 1 35 34 71 43 47 62 101 42 119 -10 9 -11 9 -6 -1z"/>
<path fill="#000000" stroke="none" d="M40 244 c0 -7 11 -9 28 -7 26 4 26 4 8
-11 -11 -9 -15 -16 -9 -16 11 0 50 39 40 41 -31 6 -67 2 -67 -7z"/>
<path fill="#000000" stroke="none" d="M150 80 c-11 -7 -5 -10 23 -10 20 0 37
5 37 10 0 13 -40 13 -60 0z"/>
</g>
</svg>
