<?xml version="1.0" standalone="no"?>
<!DOCTYPE svg PUBLIC "-//W3C//DTD SVG 20010904//EN"
 "http://www.w3.org/TR/2001/REC-SVG-20010904/DTD/svg10.dtd">
<svg version="1.0" xmlns="http://www.w3.org/2000/svg"
 width="32.000000pt" height="32.000000pt" viewBox="0 0 32.000000 32.000000"
 preserveAspectRatio="xMidYMid meet">
<metadata>
Created by potrace 1.16, written by Peter Selinger 2001-2019
</metadata>
<g transform="translate(0.000000,32.000000) scale(0.100000,-0.100000)"
fill="#000000" stroke="none">
<path fill="#000000" stroke="none" d="M0 160 l0 -160 160 0 160 0 0 160 0
160 -160 0 -160 0 0 -160z"/>
<path fill="#ffffff" stroke="none" d="M184 281 c11 -13 16 -32 14 -57 -3 -37
-1 -39 25 -39 15 0 27 4 26 9 0 5 5 13 13 17 9 6 6 9 -10 9 -27 0 -25 23 2 28
22 5 56 -25 56 -50 0 -28 -36 -58 -71 -58 l-32 0 27 -21 c14 -11 26 -29 26
-39 0 -31 -47 -60 -99 -60 -61 0 -95 18 -99 52 -2 15 -10 32 -18 38 -34 29 -2
77 59 87 24 4 39 12 43 25 10 32 -4 33 -34 5 -33 -32 -43 -33 -66 -8 -25 27
-17 41 34 61 60 24 83 24 104 1z"/>
<path fill="#000000" stroke="none" d="M149 262 c9 -6 11 -19 7 -35 -8 -34
-55 -89 -68 -80 -6 3 -8 1 -4 -5 3 -6 2 -13 -4 -17 -20 -13 -11 -64 15 -81 14
-9 28 -14 32 -10 3 3 1 6 -5 6 -6 0 -18 7 -27 16 -21 21 -12 48 37 103 30 35
38 52 36 75 -2 16 -10 31 -18 33 -12 4 -13 3 -1 -5z"/>
<path fill="#000000" stroke="none" d="M40 244 c0 -7 11 -9 28 -7 26 4 26 4 8
-11 -25 -20 -8 -20 18 -1 11 8 16 18 12 22 -12 12 -66 9 -66 -3z"/>
<path fill="#000000" stroke="none" d="M178 123 c7 -3 16 -2 19 1 4 3 -2 6
-13 5 -11 0 -14 -3 -6 -6z"/>
<path fill="#000000" stroke="none" d="M216 93 c2 -15 1 -22 -2 -15 -7 14 -43
16 -64 2 -11 -7 -5 -10 23 -10 20 0 40 -1 45 -2 11 -3 15 33 4 44 -6 6 -8 0
-6 -19z"/>
<path fill="#000000" stroke="none" d="M138 53 c12 -2 32 -2 45 0 12 2 2 4
-23 4 -25 0 -35 -2 -22 -4z"/>
</g>
</svg>
