<?xml version="1.0" standalone="no"?>
<!DOCTYPE svg PUBLIC "-//W3C//DTD SVG 20010904//EN"
 "http://www.w3.org/TR/2001/REC-SVG-20010904/DTD/svg10.dtd">
<svg version="1.0" xmlns="http://www.w3.org/2000/svg"
 width="32.000000pt" height="32.000000pt" viewBox="0 0 32.000000 32.000000"
 preserveAspectRatio="xMidYMid meet">
<metadata>
Created by potrace 1.16, written by Peter Selinger 2001-2019
</metadata>
<g transform="translate(0.000000,32.000000) scale(0.100000,-0.100000)"
fill="#000000" stroke="none">
<path fill="#000000" stroke="none" d="M0 296 c0 -14 5 -28 12 -32 7 -5 8 -3
3 6 -6 10 -4 11 6 4 8 -4 24 -7 36 -6 12 2 31 -2 43 -8 16 -8 20 -8 18 2 -2 7
4 13 12 14 8 0 37 4 63 9 39 6 51 4 67 -10 11 -10 20 -14 20 -9 0 5 9 -4 20
-21 l20 -30 0 53 0 52 -160 0 -160 0 0 -24z"/>
<path fill="#000000" stroke="none" d="M181 244 c6 -7 16 -11 21 -8 11 7 3 17
-18 20 -12 2 -13 -1 -3 -12z"/>
<path fill="#000000" stroke="none" d="M3 132 c0 -57 4 -105 9 -108 6 -4 5
-10 -3 -15 -9 -6 3 -8 33 -6 26 2 50 6 54 10 4 3 -3 4 -16 2 -19 -4 -20 -2 -8
12 12 15 10 16 -15 9 -19 -4 -27 -3 -22 4 4 6 1 9 -7 8 -10 -2 -14 21 -19 92
l-6 95 0 -103z"/>
<path fill="#000000" stroke="none" d="M33 208 c-1 -10 3 -18 9 -16 18 6 21
25 5 31 -8 3 -13 -3 -14 -15z"/>
<path fill="#000000" stroke="none" d="M21 126 c-2 -56 8 -59 13 -4 2 19 6 39
9 45 3 5 0 10 -7 10 -8 0 -13 -18 -15 -51z"/>
<path fill="#000000" stroke="none" d="M181 21 c-11 -7 -5 -11 21 -16 38 -7
104 2 93 13 -10 10 -36 11 -29 1 3 -5 0 -9 -5 -9 -6 0 -11 5 -11 10 0 12 -50
13 -69 1z"/>
</g>
</svg>
