<?xml version="1.0" standalone="no"?>
<!DOCTYPE svg PUBLIC "-//W3C//DTD SVG 20010904//EN"
 "http://www.w3.org/TR/2001/REC-SVG-20010904/DTD/svg10.dtd">
<svg version="1.0" xmlns="http://www.w3.org/2000/svg"
 width="32.000000pt" height="32.000000pt" viewBox="0 0 32.000000 32.000000"
 preserveAspectRatio="xMidYMid meet">
<metadata>
Created by potrace 1.16, written by Peter Selinger 2001-2019
</metadata>
<g transform="translate(0.000000,32.000000) scale(0.100000,-0.100000)"
fill="#000000" stroke="none">
<path fill="#000000" stroke="none" d="M2 175 c0 -90 3 -147 10 -151 6 -4 5
-10 -3 -15 -10 -6 -6 -9 12 -9 14 0 34 9 44 20 17 18 17 20 1 20 -13 0 -15 4
-7 18 6 12 5 23 -4 35 -12 16 -13 15 -20 -10 -5 -15 -7 -32 -6 -36 1 -5 -3 -6
-7 -3 -5 3 -3 26 6 51 13 41 13 47 -2 64 -22 24 -20 40 4 34 11 -3 17 -9 14
-14 -3 -5 -11 -6 -17 -3 -7 4 -6 1 1 -7 11 -12 16 -11 32 8 16 21 19 21 25 5
6 -16 8 -16 21 3 8 10 13 24 11 30 -5 13 -40 14 -49 0 -5 -6 -8 -6 -8 2 0 7 8
16 18 22 16 9 16 10 0 16 -27 11 -53 -2 -39 -19 8 -10 8 -16 -2 -25 -14 -11
-27 -6 -27 10 0 5 8 6 18 3 10 -4 13 -3 6 3 -14 11 -26 55 -12 47 15 -10 88
-12 94 -3 2 4 12 8 22 7 9 0 37 3 62 7 42 6 48 4 83 -28 l37 -35 0 49 0 49
-159 0 -158 0 -1 -145z"/>
<path fill="#000000" stroke="none" d="M174 273 c-12 -2 -26 -15 -32 -27 -9
-20 -7 -27 15 -47 13 -13 25 -23 26 -23 1 1 18 9 39 17 l36 15 -24 -35 c-26
-38 -23 -64 4 -40 36 30 42 29 26 -8 -13 -32 -13 -36 1 -42 9 -3 20 -2 24 3
12 13 22 90 13 98 -4 4 -7 13 -7 19 -1 7 -6 11 -12 10 -6 -1 -9 6 -6 16 9 35
-41 56 -103 44z"/>
<path fill="#000000" stroke="none" d="M110 255 c-7 -8 -8 -15 -2 -15 5 0 15
7 22 15 7 8 8 15 2 15 -5 0 -15 -7 -22 -15z"/>
<path fill="#000000" stroke="none" d="M186 161 c-4 -5 -2 -12 3 -15 5 -4 12
-2 15 3 4 5 2 12 -3 15 -5 4 -12 2 -15 -3z"/>
<path fill="#000000" stroke="none" d="M113 128 c1 -44 -6 -70 -27 -95 l-24
-28 47 -1 c25 0 40 1 34 3 -9 3 -7 15 7 43 l19 38 -24 26 c-27 29 -33 32 -32
14z"/>
<path fill="#000000" stroke="none" d="M186 62 c-3 -4 4 -9 15 -9 23 -2 25 3
4 10 -8 4 -16 3 -19 -1z"/>
<path fill="#000000" stroke="none" d="M278 59 c-10 -5 -15 -18 -13 -29 2 -11
0 -20 -6 -20 -5 0 -9 5 -9 10 0 12 -50 13 -68 1 -10 -6 -8 -10 10 -14 36 -10
135 -8 119 2 -8 5 -11 16 -7 29 8 25 -3 34 -26 21z"/>
</g>
</svg>
