<?xml version="1.0" standalone="no"?>
<!DOCTYPE svg PUBLIC "-//W3C//DTD SVG 20010904//EN"
 "http://www.w3.org/TR/2001/REC-SVG-20010904/DTD/svg10.dtd">
<svg version="1.0" xmlns="http://www.w3.org/2000/svg"
 width="32.000000pt" height="32.000000pt" viewBox="0 0 32.000000 32.000000"
 preserveAspectRatio="xMidYMid meet">
<metadata>
Created by potrace 1.16, written by Peter Selinger 2001-2019
</metadata>
<g transform="translate(0.000000,32.000000) scale(0.100000,-0.100000)"
fill="#000000" stroke="none">
<path fill="#000000" stroke="none" d="M80 280 c-24 -9 -46 -23 -48 -29 -5
-16 27 -51 47 -52 14 0 14 -1 1 -6 -45 -17 -64 -59 -36 -83 8 -6 16 -23 18
-38 4 -34 38 -52 99 -52 52 0 99 29 99 60 0 10 -12 28 -26 39 l-27 21 32 0
c35 0 71 30 71 58 0 25 -34 55 -56 50 -27 -5 -29 -28 -2 -28 16 0 19 -3 10 -9
-8 -4 -13 -12 -13 -17 1 -5 -11 -9 -26 -9 -26 0 -28 2 -25 39 4 44 -19 77 -52
75 -12 -1 -41 -9 -66 -19z"/>
<path fill="#ffffff" stroke="none" d="M181 274 c10 -12 10 -25 2 -55 -10 -39
-10 -39 22 -45 60 -11 103 35 53 56 -22 8 -22 9 -2 9 46 2 59 -49 19 -75 -18
-12 -39 -15 -75 -12 -43 4 -52 2 -72 -20 -23 -25 -23 -25 -1 -13 31 16 75 14
101 -5 50 -35 10 -84 -68 -84 -51 0 -90 22 -90 49 0 10 -7 24 -15 31 -34 28
-12 65 46 76 37 7 59 28 59 56 0 26 -23 22 -51 -9 l-24 -28 27 24 c31 27 43
24 33 -8 -7 -22 -23 -25 -63 -15 -21 6 -21 7 -5 21 17 13 16 14 -9 10 -43 -7
-33 17 15 35 56 21 82 21 98 2z"/>
<path fill="#000000" stroke="none" d="M75 149 c-12 -19 5 -23 22 -6 16 16 16
17 1 17 -9 0 -20 -5 -23 -11z"/>
<path fill="#000000" stroke="none" d="M121 92 c-21 -7 -22 -9 -8 -20 22 -18
102 -12 102 8 0 17 -53 23 -94 12z"/>
<path fill="#ffffff" stroke="none" d="M210 80 c0 -5 -17 -10 -37 -10 -28 0
-34 3 -23 10 20 13 60 13 60 0z"/>
</g>
</svg>
