<?xml version="1.0" standalone="no"?>
<!DOCTYPE svg PUBLIC "-//W3C//DTD SVG 20010904//EN"
 "http://www.w3.org/TR/2001/REC-SVG-20010904/DTD/svg10.dtd">
<svg version="1.0" xmlns="http://www.w3.org/2000/svg"
 width="32.000000pt" height="32.000000pt" viewBox="0 0 32.000000 32.000000"
 preserveAspectRatio="xMidYMid meet">
<metadata>
Created by potrace 1.16, written by Peter Selinger 2001-2019
</metadata>
<g transform="translate(0.000000,32.000000) scale(0.100000,-0.100000)"
fill="#000000" stroke="none">
<path fill="#000000" stroke="none" d="M0 160 l0 -160 160 0 160 0 0 25 c0 41
-27 94 -53 104 -13 5 -37 25 -54 44 -17 20 -34 33 -38 29 -3 -3 -3 1 1 11 6
15 9 14 28 -11 30 -41 53 -62 67 -62 7 0 21 -7 31 -17 17 -15 18 -12 18 90 l0
107 -160 0 -160 0 0 -160z"/>
<path fill="#ffffff" stroke="none" d="M166 267 c4 -4 18 -7 31 -7 13 0 23 -4
23 -10 0 -5 -11 -10 -25 -10 -14 0 -25 5 -25 11 0 5 -5 7 -11 3 -6 -4 -29 -8
-49 -9 -29 -2 -37 1 -33 11 3 8 1 14 -5 14 -15 0 -22 -41 -11 -62 7 -13 6 -29
-2 -52 -16 -44 -7 -64 37 -82 29 -12 39 -13 52 -2 9 7 5 -1 -8 -19 -15 -19
-34 -32 -48 -32 -13 -1 -21 3 -17 8 3 5 0 13 -5 16 -6 4 -16 18 -21 33 -7 18
-13 22 -20 15 -12 -12 -2 -56 11 -48 5 3 11 1 14 -4 4 -5 -2 -8 -11 -6 -10 2
-21 4 -25 4 -14 2 -8 48 7 61 11 9 15 33 15 84 0 40 5 77 11 83 12 12 103 12
115 0z"/>
<path fill="#ffffff" stroke="none" d="M200 170 c5 -9 5 -19 -2 -27 -16 -19
-25 -16 -32 12 -4 16 -11 23 -18 19 -6 -4 -8 -3 -5 3 9 15 46 10 57 -7z"/>
<path fill="#ffffff" stroke="none" d="M250 69 c14 -2 25 -11 25 -19 0 -8 5
-19 10 -23 6 -4 -23 -6 -62 -5 -40 2 -73 6 -73 11 0 4 7 7 15 7 8 0 22 11 32
24 10 13 20 20 23 16 3 -4 16 -10 30 -11z"/>
<path fill="#000000" stroke="none" d="M130 260 c0 -5 7 -7 15 -4 8 4 15 8 15
10 0 2 -7 4 -15 4 -8 0 -15 -4 -15 -10z"/>
<path fill="#000000" stroke="none" d="M51 184 c0 -11 3 -14 6 -6 3 7 2 16 -1
19 -3 4 -6 -2 -5 -13z"/>
<path fill="#000000" stroke="none" d="M67 69 c7 -7 15 -10 18 -7 3 3 -2 9
-12 12 -14 6 -15 5 -6 -5z"/>
</g>
</svg>
