<?xml version="1.0" standalone="no"?>
<!DOCTYPE svg PUBLIC "-//W3C//DTD SVG 20010904//EN"
 "http://www.w3.org/TR/2001/REC-SVG-20010904/DTD/svg10.dtd">
<svg version="1.0" xmlns="http://www.w3.org/2000/svg"
 width="32.000000pt" height="32.000000pt" viewBox="0 0 32.000000 32.000000"
 preserveAspectRatio="xMidYMid meet">
<metadata>
Created by potrace 1.16, written by Peter Selinger 2001-2019
</metadata>
<g transform="translate(0.000000,32.000000) scale(0.100000,-0.100000)"
fill="#000000" stroke="none">
<path fill="#000000" stroke="none" d="M0 160 l0 -160 160 0 160 0 0 160 0
160 -160 0 -160 0 0 -160z"/>
<path fill="#ffffff" stroke="none" d="M134 154 c21 -21 20 -41 -3 -54 -40
-21 -71 -7 -71 30 0 13 30 40 45 40 7 0 21 -7 29 -16z"/>
<path fill="#ffffff" stroke="none" d="M273 125 c27 -13 45 -61 30 -76 -9 -9
-11 -7 -7 9 8 27 -12 62 -36 62 -10 0 -31 -15 -45 -32 -15 -18 -24 -27 -20
-20 4 7 -1 25 -11 40 -17 27 -17 27 3 10 21 -19 38 -24 28 -9 -3 5 0 13 6 16
5 4 8 14 4 22 -5 14 -3 14 11 2 9 -7 26 -18 37 -24z"/>
</g>
</svg>
