<?xml version="1.0" standalone="no"?>
<!DOCTYPE svg PUBLIC "-//W3C//DTD SVG 20010904//EN"
 "http://www.w3.org/TR/2001/REC-SVG-20010904/DTD/svg10.dtd">
<svg version="1.0" xmlns="http://www.w3.org/2000/svg"
 width="32.000000pt" height="32.000000pt" viewBox="0 0 32.000000 32.000000"
 preserveAspectRatio="xMidYMid meet">
<metadata>
Created by potrace 1.16, written by Peter Selinger 2001-2019
</metadata>
<g transform="translate(0.000000,32.000000) scale(0.100000,-0.100000)"
fill="#000000" stroke="none">
<path fill="#000000" stroke="none" d="M51 267 c-6 -6 -11 -43 -11 -83 0 -51
-4 -75 -15 -84 -15 -13 -21 -59 -7 -61 4 0 15 -2 25 -4 9 -2 15 1 11 6 -3 5
-9 7 -14 4 -13 -8 -23 36 -11 48 7 7 13 3 20 -15 5 -15 15 -29 21 -33 5 -3 8
-11 5 -16 -4 -5 4 -9 17 -8 14 0 33 13 48 32 13 18 17 26 8 19 -13 -11 -23
-10 -52 2 -44 18 -53 38 -37 82 8 23 9 39 2 52 -11 21 -4 62 11 62 6 0 8 -6 5
-14 -4 -10 4 -13 33 -11 20 1 43 5 49 9 6 4 11 2 11 -3 0 -6 11 -11 25 -11 14
0 25 5 25 10 0 6 -10 10 -23 10 -13 0 -27 3 -31 7 -12 12 -103 12 -115 0z"/>
<path fill="#ffffff" stroke="none" d="M160 266 c0 -2 -7 -6 -15 -10 -8 -3
-15 -1 -15 4 0 6 7 10 15 10 8 0 15 -2 15 -4z"/>
<path fill="#ffffff" stroke="none" d="M57 178 c-3 -8 -6 -5 -6 6 -1 11 2 17
5 13 3 -3 4 -12 1 -19z"/>
<path fill="#ffffff" stroke="none" d="M85 62 c-3 -3 -11 0 -18 7 -9 10 -8 11
6 5 10 -3 15 -9 12 -12z"/>
<path fill="#000000" stroke="none" d="M176 213 c-4 -10 -4 -14 -1 -11 4 4 21
-9 38 -29 17 -19 41 -39 54 -44 13 -5 30 -24 38 -41 14 -32 14 -32 15 -7 0 27
-27 59 -49 59 -14 0 -37 21 -67 62 -19 25 -22 26 -28 11z"/>
<path fill="#000000" stroke="none" d="M143 177 c-3 -6 -1 -7 5 -3 7 4 14 -3
18 -19 7 -28 16 -31 32 -12 14 17 -1 42 -28 43 -11 1 -23 -3 -27 -9z"/>
<path fill="#000000" stroke="none" d="M197 64 c-10 -13 -24 -24 -32 -24 -8 0
-15 -3 -15 -7 0 -5 33 -9 73 -11 39 -1 68 1 62 5 -5 4 -10 15 -10 23 0 8 -11
17 -25 19 -14 1 -27 7 -30 11 -3 4 -13 -3 -23 -16z"/>
</g>
</svg>
