<?xml version="1.0" standalone="no"?>
<!DOCTYPE svg PUBLIC "-//W3C//DTD SVG 20010904//EN"
 "http://www.w3.org/TR/2001/REC-SVG-20010904/DTD/svg10.dtd">
<svg version="1.0" xmlns="http://www.w3.org/2000/svg"
 width="32.000000pt" height="32.000000pt" viewBox="0 0 32.000000 32.000000"
 preserveAspectRatio="xMidYMid meet">
<metadata>
Created by potrace 1.16, written by Peter Selinger 2001-2019
</metadata>
<g transform="translate(0.000000,32.000000) scale(0.100000,-0.100000)"
fill="#000000" stroke="none">
<path fill="#000000" stroke="none" d="M44 273 c-20 -4 -22 -12 -26 -116 -3
-62 -3 -118 0 -125 3 -9 39 -12 151 -10 l146 3 3 38 c4 43 -23 85 -50 79 -19
-4 -27 21 -25 80 0 21 -1 39 -4 42 -6 6 -169 14 -195 9z"/>
<path fill="#ffffff" stroke="none" d="M130 125 c0 -20 -5 -25 -25 -25 -20 0
-25 5 -25 25 0 20 5 25 25 25 20 0 25 -5 25 -25z"/>
<path fill="#ffffff" stroke="none" d="M231 97 c-10 -9 -11 -8 -5 6 3 10 9 15
12 12 3 -3 0 -11 -7 -18z"/>
<path fill="#ffffff" stroke="none" d="M285 80 c-3 -5 -1 -11 4 -15 6 -3 8
-12 4 -20 -9 -25 -18 -17 -21 21 -1 22 2 33 8 29 6 -4 8 -10 5 -15z"/>
<path fill="#000000" stroke="none" d="M260 225 c0 -8 5 -15 10 -15 6 0 10 7
10 15 0 8 -4 15 -10 15 -5 0 -10 -7 -10 -15z"/>
</g>
</svg>
