<?xml version="1.0" standalone="no"?>
<!DOCTYPE svg PUBLIC "-//W3C//DTD SVG 20010904//EN"
 "http://www.w3.org/TR/2001/REC-SVG-20010904/DTD/svg10.dtd">
<svg version="1.0" xmlns="http://www.w3.org/2000/svg"
 width="32.000000pt" height="32.000000pt" viewBox="0 0 32.000000 32.000000"
 preserveAspectRatio="xMidYMid meet">
<metadata>
Created by potrace 1.16, written by Peter Selinger 2001-2019
</metadata>
<g transform="translate(0.000000,32.000000) scale(0.100000,-0.100000)"
fill="#000000" stroke="none">
<path fill="#000000" stroke="none" d="M0 160 c0 -152 1 -160 20 -160 18 0 19
5 13 113 -5 93 -3 114 9 125 17 14 136 19 185 7 29 -7 32 -10 38 -64 3 -31 2
-75 -3 -98 -8 -36 -7 -42 9 -46 11 -3 19 -12 19 -21 0 -9 7 -16 15 -16 13 0
15 24 15 160 l0 160 -160 0 -160 0 0 -160z"/>
<path fill="#000000" stroke="none" d="M145 230 c-4 -6 -10 -8 -15 -5 -5 3
-24 -8 -42 -25 -23 -21 -27 -28 -13 -24 11 4 27 13 36 21 9 7 18 11 20 8 3 -2
10 5 17 15 7 11 10 20 8 20 -3 0 -8 -5 -11 -10z"/>
<path fill="#000000" stroke="none" d="M180 191 c-15 -29 -12 -33 10 -14 21
19 26 33 10 33 -5 0 -14 -9 -20 -19z"/>
<path fill="#000000" stroke="none" d="M207 175 c-10 -14 -13 -26 -7 -30 16
-10 30 4 23 22 -5 12 -2 15 10 10 11 -4 14 -2 10 9 -7 20 -15 17 -36 -11z"/>
</g>
</svg>
