<?xml version="1.0" standalone="no"?>
<!DOCTYPE svg PUBLIC "-//W3C//DTD SVG 20010904//EN"
 "http://www.w3.org/TR/2001/REC-SVG-20010904/DTD/svg10.dtd">
<svg version="1.0" xmlns="http://www.w3.org/2000/svg"
 width="32.000000pt" height="32.000000pt" viewBox="0 0 32.000000 32.000000"
 preserveAspectRatio="xMidYMid meet">
<metadata>
Created by potrace 1.16, written by Peter Selinger 2001-2019
</metadata>
<g transform="translate(0.000000,32.000000) scale(0.100000,-0.100000)"
fill="#000000" stroke="none">
<path fill="#000000" stroke="none" d="M0 160 l0 -160 43 1 c38 1 39 2 12 8
-43 9 -37 24 15 37 l45 12 -28 11 c-16 6 -32 11 -36 11 -11 0 -41 80 -41 111
0 14 5 30 12 37 6 6 12 26 12 44 l1 33 99 3 99 3 -24 -20 c-21 -17 -26 -18
-40 -5 -16 15 -41 18 -52 8 -3 -3 6 -17 21 -29 l27 -24 28 27 c26 25 27 25 27
4 0 -24 16 -38 23 -20 3 7 5 -25 6 -72 0 -56 -3 -78 -9 -65 -8 17 -9 16 -9 -9
-1 -19 -5 -26 -14 -23 -7 3 -26 -1 -42 -8 -30 -13 -30 -13 20 -14 28 -1 67 -5
87 -10 l38 -9 0 139 0 139 -160 0 -160 0 0 -160z"/>
<path fill="#000000" stroke="none" d="M46 291 c-3 -5 1 -15 10 -22 14 -11 14
-14 2 -23 -18 -14 -38 -50 -38 -70 0 -20 28 -46 48 -45 14 0 13 3 -5 16 -13 8
-23 20 -23 25 0 6 6 5 15 -2 18 -15 38 -3 31 19 -4 9 2 5 12 -8 l19 -23 22 30
21 30 -47 41 c-50 43 -58 47 -67 32z"/>
<path fill="#ffffff" stroke="none" d="M134 227 c8 -12 7 -20 -3 -29 -8 -7
-11 -8 -8 -2 4 7 0 17 -9 25 -8 7 -20 22 -26 33 -11 20 -10 20 12 5 13 -9 29
-23 34 -32z"/>
<path fill="#000000" stroke="none" d="M201 244 c0 -11 3 -14 6 -6 3 7 2 16
-1 19 -3 4 -6 -2 -5 -13z"/>
<path fill="#000000" stroke="none" d="M173 188 c-20 -26 -26 -41 -15 -34 12
7 36 46 29 46 -3 0 -9 -6 -14 -12z"/>
</g>
</svg>
