<?xml version="1.0" standalone="no"?>
<!DOCTYPE svg PUBLIC "-//W3C//DTD SVG 20010904//EN"
 "http://www.w3.org/TR/2001/REC-SVG-20010904/DTD/svg10.dtd">
<svg version="1.0" xmlns="http://www.w3.org/2000/svg"
 width="32.000000pt" height="32.000000pt" viewBox="0 0 32.000000 32.000000"
 preserveAspectRatio="xMidYMid meet">
<metadata>
Created by potrace 1.16, written by Peter Selinger 2001-2019
</metadata>
<g transform="translate(0.000000,32.000000) scale(0.100000,-0.100000)"
fill="#000000" stroke="none">
<path fill="#000000" stroke="none" d="M102 287 c-24 -25 -30 -62 -9 -52 6 4
-1 -5 -18 -19 -16 -14 -26 -28 -22 -32 4 -4 7 -2 7 4 0 7 5 12 10 12 18 0 -1
-54 -26 -73 -31 -24 -33 -81 -4 -97 27 -14 40 -5 34 25 -6 36 13 40 31 4 9
-17 19 -28 22 -25 3 3 12 -2 20 -12 9 -11 12 -11 7 -2 -6 12 -4 13 7 2 18 -16
40 -15 68 4 18 13 20 18 10 25 -11 7 -9 9 6 9 17 0 17 2 5 10 -12 8 -12 10 5
10 17 0 17 2 5 10 -12 7 -12 10 -1 10 18 0 7 44 -25 92 -24 37 -24 38 -4 48
46 24 3 70 -65 70 -30 0 -47 -6 -63 -23z"/>
<path fill="#ffffff" stroke="none" d="M195 221 c3 -5 1 -12 -4 -15 -5 -3 -11
1 -15 9 -6 16 9 21 19 6z"/>
<path fill="#ffffff" stroke="none" d="M117 174 c8 -21 -13 -42 -28 -27 -13
13 -5 43 11 43 6 0 13 -7 17 -16z"/>
<path fill="#ffffff" stroke="none" d="M173 181 c4 -1 15 -17 24 -36 13 -28
14 -39 5 -60 -16 -34 -29 -31 -46 9 -8 18 -18 36 -24 40 -16 10 -2 54 16 51
10 -2 20 -4 25 -4z"/>
<path fill="#000000" stroke="none" d="M146 163 c-6 -14 -5 -15 5 -6 7 7 10
15 7 18 -3 3 -9 -2 -12 -12z"/>
</g>
</svg>
