<?xml version="1.0" standalone="no"?>
<!DOCTYPE svg PUBLIC "-//W3C//DTD SVG 20010904//EN"
 "http://www.w3.org/TR/2001/REC-SVG-20010904/DTD/svg10.dtd">
<svg version="1.0" xmlns="http://www.w3.org/2000/svg"
 width="32.000000pt" height="32.000000pt" viewBox="0 0 32.000000 32.000000"
 preserveAspectRatio="xMidYMid meet">
<metadata>
Created by potrace 1.16, written by Peter Selinger 2001-2019
</metadata>
<g transform="translate(0.000000,32.000000) scale(0.100000,-0.100000)"
fill="#000000" stroke="none">
<path fill="#000000" stroke="none" d="M165 310 c-3 -5 -17 -10 -30 -10 -37 0
-75 -57 -75 -113 0 -25 5 -49 10 -52 15 -9 2 -25 -15 -19 -9 4 -21 -9 -35 -36
-12 -23 -17 -39 -11 -35 6 3 16 -5 23 -19 10 -23 17 -26 63 -26 28 0 57 6 63
12 9 9 15 10 20 2 8 -12 110 -12 130 0 19 12 14 46 -13 78 -14 16 -25 35 -25
41 0 7 9 -3 20 -20 11 -18 22 -33 24 -33 2 0 4 36 4 80 0 64 -4 86 -19 105
-35 43 -118 71 -134 45z"/>
<path fill="#ffffff" stroke="none" d="M232 297 c37 -19 58 -43 68 -77 7 -26
6 -29 -7 -22 -10 6 -22 2 -39 -15 -13 -13 -29 -21 -34 -18 -13 8 31 64 45 57
6 -3 4 1 -2 10 -7 8 -10 17 -7 20 3 3 -3 5 -13 5 -10 -1 -17 4 -15 11 2 10 -5
9 -27 -2 -33 -17 -44 -39 -29 -54 12 -12 2 -32 -17 -32 -21 0 -28 19 -14 36
10 12 9 16 -9 21 -12 3 -19 9 -16 14 3 5 -3 6 -12 2 -22 -8 -15 16 9 31 13 8
20 6 32 -9 9 -11 14 -14 10 -7 -9 17 12 42 35 42 10 0 29 -6 42 -13z"/>
<path fill="#ffffff" stroke="none" d="M118 212 c-2 -9 -11 -16 -21 -16 -21 2
-23 -15 -2 -22 8 -4 13 -9 10 -13 -5 -9 26 -8 42 2 6 4 19 4 29 0 11 -4 15 -3
10 5 -3 6 -1 14 6 18 7 4 10 4 6 -1 -4 -4 -3 -14 2 -21 8 -8 6 -16 -4 -27 -8
-8 -11 -18 -6 -23 19 -19 48 -101 36 -101 -7 0 -13 9 -13 20 -1 10 -11 36 -22
57 -15 29 -17 41 -8 51 10 10 9 11 -3 3 -8 -6 -32 -10 -52 -8 -26 1 -36 -2
-31 -10 4 -7 1 -6 -9 2 -11 9 -15 27 -13 65 3 64 1 60 26 47 11 -6 19 -19 17
-28z"/>
<path fill="#ffffff" stroke="none" d="M235 225 c0 -31 -49 -28 -53 3 -3 20 0
23 25 20 20 -2 28 -8 28 -23z"/>
<path fill="#ffffff" stroke="none" d="M133 176 c4 -10 1 -13 -8 -9 -8 3 -12
9 -9 14 7 12 11 11 17 -5z"/>
<path fill="#ffffff" stroke="none" d="M279 164 c-15 -18 -22 -13 -13 10 3 9
10 13 16 10 5 -3 4 -12 -3 -20z"/>
<path fill="#ffffff" stroke="none" d="M282 78 c10 -21 16 -38 13 -38 -7 0
-45 78 -44 92 0 9 2 8 6 -2 3 -8 14 -32 25 -52z"/>
<path fill="#ffffff" stroke="none" d="M152 115 c-2 -5 -11 -8 -20 -6 -15 3
-14 0 2 -18 11 -12 16 -24 12 -28 -4 -4 -11 -1 -17 7 -7 11 -8 8 -4 -11 4 -17
1 -30 -10 -39 -13 -11 -15 -10 -9 4 3 9 1 16 -5 16 -6 0 -10 4 -8 9 1 5 -2 8
-8 8 -5 -1 -9 -5 -8 -9 2 -5 -2 -8 -8 -8 -6 0 -8 -7 -4 -18 5 -13 4 -14 -6 -5
-21 21 0 87 29 91 12 2 22 8 22 13 0 6 10 9 23 7 12 -2 21 -7 19 -13z"/>
<path fill="#ffffff" stroke="none" d="M253 77 c14 -26 24 -47 22 -47 -8 0
-63 89 -57 94 3 3 6 5 7 4 1 -2 13 -24 28 -51z"/>
<path fill="#ffffff" stroke="none" d="M40 70 c-16 -31 -23 -18 -8 15 7 15 14
23 16 17 2 -6 -2 -21 -8 -32z"/>
<path fill="#ffffff" stroke="none" d="M181 76 c5 3 9 1 9 -5 0 -5 -4 -13 -10
-16 -5 -3 -10 -4 -10 -1 0 2 -2 10 -3 18 -2 7 -2 10 0 5 3 -4 9 -5 14 -1z"/>
</g>
</svg>
