<?xml version="1.0" standalone="no"?>
<!DOCTYPE svg PUBLIC "-//W3C//DTD SVG 20010904//EN"
 "http://www.w3.org/TR/2001/REC-SVG-20010904/DTD/svg10.dtd">
<svg version="1.0" xmlns="http://www.w3.org/2000/svg"
 width="32.000000pt" height="32.000000pt" viewBox="0 0 32.000000 32.000000"
 preserveAspectRatio="xMidYMid meet">
<metadata>
Created by potrace 1.16, written by Peter Selinger 2001-2019
</metadata>
<g transform="translate(0.000000,32.000000) scale(0.100000,-0.100000)"
fill="#000000" stroke="none">
<path fill="#000000" stroke="none" d="M0 183 l1 -138 20 38 c13 25 25 37 34
33 17 -6 30 10 15 19 -5 3 -10 29 -10 56 0 28 3 48 8 45 4 -2 6 13 4 34 l-4
39 54 4 c38 2 28 4 -34 5 l-88 2 0 -137z"/>
<path fill="#000000" stroke="none" d="M263 313 c30 -3 37 -8 37 -26 0 -12 5
-29 10 -37 7 -11 10 -4 10 28 l0 42 -47 -2 c-44 -1 -45 -2 -10 -5z"/>
<path fill="#000000" stroke="none" d="M311 164 c0 -11 3 -14 6 -6 3 7 2 16
-1 19 -3 4 -6 -2 -5 -13z"/>
<path fill="#000000" stroke="none" d="M8 33 c7 -3 16 -2 19 1 4 3 -2 6 -13 5
-11 0 -14 -3 -6 -6z"/>
<path fill="#000000" stroke="none" d="M0 10 c0 -6 7 -10 15 -10 8 0 15 2 15
4 0 2 -7 6 -15 10 -8 3 -15 1 -15 -4z"/>
<path fill="#000000" stroke="none" d="M290 10 l-25 -8 28 -1 c15 -1 27 4 27
9 0 6 -1 10 -2 9 -2 -1 -14 -5 -28 -9z"/>
</g>
</svg>
