<?xml version="1.0" standalone="no"?>
<!DOCTYPE svg PUBLIC "-//W3C//DTD SVG 20010904//EN"
 "http://www.w3.org/TR/2001/REC-SVG-20010904/DTD/svg10.dtd">
<svg version="1.0" xmlns="http://www.w3.org/2000/svg"
 width="32.000000pt" height="32.000000pt" viewBox="0 0 32.000000 32.000000"
 preserveAspectRatio="xMidYMid meet">
<metadata>
Created by potrace 1.16, written by Peter Selinger 2001-2019
</metadata>
<g transform="translate(0.000000,32.000000) scale(0.100000,-0.100000)"
fill="#000000" stroke="none">
<path fill="#000000" stroke="none" d="M0 160 l0 -160 160 0 160 0 0 160 0
160 -160 0 -160 0 0 -160z"/>
<path fill="#ffffff" stroke="none" d="M94 232 c2 -4 -4 -8 -14 -8 -10 0 -16
4 -14 8 3 4 9 8 14 8 5 0 11 -4 14 -8z"/>
<path fill="#ffffff" stroke="none" d="M86 155 c1 -8 -3 -18 -9 -22 -7 -3 -9
-3 -5 2 4 4 -2 15 -14 25 -12 9 -22 24 -24 33 -2 15 2 14 24 -3 14 -12 27 -28
28 -35z"/>
<path fill="#000000" stroke="none" d="M40 186 c0 -2 8 -10 18 -17 15 -13 16
-12 3 4 -13 16 -21 21 -21 13z"/>
</g>
</svg>
