<?xml version="1.0" standalone="no"?>
<!DOCTYPE svg PUBLIC "-//W3C//DTD SVG 20010904//EN"
 "http://www.w3.org/TR/2001/REC-SVG-20010904/DTD/svg10.dtd">
<svg version="1.0" xmlns="http://www.w3.org/2000/svg"
 width="32.000000pt" height="32.000000pt" viewBox="0 0 32.000000 32.000000"
 preserveAspectRatio="xMidYMid meet">
<metadata>
Created by potrace 1.16, written by Peter Selinger 2001-2019
</metadata>
<g transform="translate(0.000000,32.000000) scale(0.100000,-0.100000)"
fill="#000000" stroke="none">
<path fill="#000000" stroke="none" d="M0 160 l0 -160 160 0 160 0 0 160 0
160 -160 0 -160 0 0 -160z"/>
<path fill="#ffffff" stroke="none" d="M143 230 c79 -46 136 -100 143 -137 6
-28 3 -34 -26 -52 -38 -23 -138 -29 -107 -7 22 17 21 23 -1 35 -13 7 -31 3
-66 -15 -39 -20 -47 -21 -42 -8 4 12 2 15 -9 10 -24 -9 -17 2 13 19 15 9 19
14 10 11 -10 -3 -18 -1 -18 5 0 6 -5 7 -12 3 -7 -4 -8 -3 -4 4 4 7 14 12 22
12 26 0 27 29 0 61 -33 39 -33 55 2 73 36 20 35 20 95 -14z"/>
</g>
</svg>
