<?xml version="1.0" standalone="no"?>
<!DOCTYPE svg PUBLIC "-//W3C//DTD SVG 20010904//EN"
 "http://www.w3.org/TR/2001/REC-SVG-20010904/DTD/svg10.dtd">
<svg version="1.0" xmlns="http://www.w3.org/2000/svg"
 width="32.000000pt" height="32.000000pt" viewBox="0 0 32.000000 32.000000"
 preserveAspectRatio="xMidYMid meet">
<metadata>
Created by potrace 1.16, written by Peter Selinger 2001-2019
</metadata>
<g transform="translate(0.000000,32.000000) scale(0.100000,-0.100000)"
fill="#000000" stroke="none">
<path fill="#000000" stroke="none" d="M66 232 c-2 -4 4 -8 14 -8 10 0 16 4
14 8 -3 4 -9 8 -14 8 -5 0 -11 -4 -14 -8z"/>
<path fill="#000000" stroke="none" d="M34 193 c2 -9 12 -24 24 -33 12 -10 18
-21 14 -25 -4 -5 -2 -5 5 -2 17 11 10 34 -19 57 -22 17 -26 18 -24 3z"/>
<path fill="#ffffff" stroke="none" d="M61 173 c13 -16 12 -17 -3 -4 -17 13
-22 21 -14 21 2 0 10 -8 17 -17z"/>
</g>
</svg>
