<?xml version="1.0" standalone="no"?>
<!DOCTYPE svg PUBLIC "-//W3C//DTD SVG 20010904//EN"
 "http://www.w3.org/TR/2001/REC-SVG-20010904/DTD/svg10.dtd">
<svg version="1.0" xmlns="http://www.w3.org/2000/svg"
 width="32.000000pt" height="32.000000pt" viewBox="0 0 32.000000 32.000000"
 preserveAspectRatio="xMidYMid meet">
<metadata>
Created by potrace 1.16, written by Peter Selinger 2001-2019
</metadata>
<g transform="translate(0.000000,32.000000) scale(0.100000,-0.100000)"
fill="#000000" stroke="none">
<path fill="#000000" stroke="none" d="M122 308 c-7 -7 -12 -25 -12 -42 l0
-30 -30 29 c-37 36 -63 26 -68 -25 -3 -23 0 -30 9 -24 8 4 10 3 5 -4 -19 -31
72 -135 150 -173 71 -33 74 -34 74 -14 0 8 6 12 13 9 8 -3 20 2 27 10 10 13 9
17 -3 22 -9 3 -19 20 -22 37 -4 18 -14 43 -22 56 -11 17 -12 26 -4 34 21 21
12 67 -18 98 -31 31 -77 39 -99 17z"/>
<path fill="#ffffff" stroke="none" d="M215 285 c29 -28 33 -76 9 -96 -14 -11
-14 -13 0 -21 9 -5 21 -29 27 -54 7 -25 18 -48 25 -51 8 -3 11 -9 8 -14 -7
-12 -25 -11 -21 1 1 6 -9 16 -22 23 -13 6 -27 19 -31 27 -4 8 -13 27 -20 41
-7 15 -25 37 -41 48 -34 25 -37 23 -9 -9 23 -27 9 -46 -21 -29 -13 6 -17 5
-15 -6 1 -8 6 -18 11 -22 4 -4 5 -2 1 5 -4 6 -2 12 3 12 6 0 11 -12 11 -27 0
-20 3 -24 9 -14 7 11 9 11 14 0 4 -10 6 -9 6 4 1 9 -3 17 -9 17 -5 0 -10 5
-10 11 0 5 4 8 9 5 5 -4 11 -1 13 6 6 16 28 0 28 -20 -1 -17 -33 -62 -44 -62
-3 0 -3 7 0 15 4 10 0 13 -15 10 -11 -2 -24 1 -27 7 -4 7 -2 8 4 4 7 -4 12 -3
12 3 0 11 -20 26 -34 26 -5 0 -10 8 -12 19 -1 10 -8 24 -14 30 -8 8 -9 6 -4
-9 4 -11 3 -17 -1 -13 -5 5 -9 27 -11 50 -3 56 -3 55 -14 38 -8 -12 -10 -11
-10 8 0 37 28 38 66 1 l34 -33 0 40 c0 23 3 44 7 47 15 16 65 6 88 -18z"/>
<path fill="#ffffff" stroke="none" d="M243 34 c-7 -18 -6 -18 -45 7 -28 17
-29 19 -8 13 14 -4 31 -9 39 -12 9 -3 7 2 -5 14 -11 12 -27 18 -39 15 -18 -4
-18 -3 -6 13 13 16 16 15 42 -10 15 -14 25 -33 22 -40z"/>
<path fill="#000000" stroke="none" d="M140 289 c0 -5 5 -7 10 -4 6 3 10 8 10
11 0 2 -4 4 -10 4 -5 0 -10 -5 -10 -11z"/>
<path fill="#000000" stroke="none" d="M75 200 c-3 -5 -2 -18 4 -27 7 -14 9
-12 8 10 -2 30 -3 31 -12 17z"/>
</g>
</svg>
