<?xml version="1.0" standalone="no"?>
<!DOCTYPE svg PUBLIC "-//W3C//DTD SVG 20010904//EN"
 "http://www.w3.org/TR/2001/REC-SVG-20010904/DTD/svg10.dtd">
<svg version="1.0" xmlns="http://www.w3.org/2000/svg"
 width="32.000000pt" height="32.000000pt" viewBox="0 0 32.000000 32.000000"
 preserveAspectRatio="xMidYMid meet">
<metadata>
Created by potrace 1.16, written by Peter Selinger 2001-2019
</metadata>
<g transform="translate(0.000000,32.000000) scale(0.100000,-0.100000)"
fill="#000000" stroke="none">
<path fill="#000000" stroke="none" d="M0 160 l0 -160 160 0 160 0 0 160 0
160 -160 0 -160 0 0 -160z"/>
<path fill="#ffffff" stroke="none" d="M161 247 c-10 -9 -11 -8 -5 6 3 10 9
15 12 12 3 -3 0 -11 -7 -18z"/>
<path fill="#ffffff" stroke="none" d="M204 251 c3 -5 -5 -16 -19 -25 -21 -14
-24 -14 -19 -1 4 8 10 15 16 15 5 0 6 5 3 10 -3 6 -2 10 4 10 5 0 12 -4 15 -9z"/>
<path fill="#ffffff" stroke="none" d="M200 209 c-18 -15 -20 -19 -7 -15 12 4
17 2 15 -6 -3 -7 6 -21 19 -31 13 -10 23 -24 23 -30 0 -6 -7 -1 -16 11 -8 12
-25 22 -36 22 -12 0 -18 3 -15 7 4 3 2 12 -4 19 -7 9 -4 17 13 28 32 23 38 19
8 -5z"/>
<path fill="#ffffff" stroke="none" d="M91 193 c13 -16 12 -17 -3 -4 -10 7
-18 15 -18 17 0 8 8 3 21 -13z"/>
</g>
</svg>
