<?xml version="1.0" standalone="no"?>
<!DOCTYPE svg PUBLIC "-//W3C//DTD SVG 20010904//EN"
 "http://www.w3.org/TR/2001/REC-SVG-20010904/DTD/svg10.dtd">
<svg version="1.0" xmlns="http://www.w3.org/2000/svg"
 width="32.000000pt" height="32.000000pt" viewBox="0 0 32.000000 32.000000"
 preserveAspectRatio="xMidYMid meet">
<metadata>
Created by potrace 1.16, written by Peter Selinger 2001-2019
</metadata>
<g transform="translate(0.000000,32.000000) scale(0.100000,-0.100000)"
fill="#000000" stroke="none">
<path fill="#000000" stroke="none" d="M122 308 c-7 -7 -12 -23 -13 -37 0 -15
-5 -35 -10 -46 -9 -19 -9 -19 -5 2 5 31 -38 71 -62 57 -62 -39 27 -188 144
-245 69 -32 74 -34 74 -19 0 20 -68 82 -81 74 -8 -4 -9 -3 -5 5 4 6 0 14 -8
17 -9 3 -16 10 -16 16 0 5 4 7 9 4 5 -4 11 -1 13 6 6 18 28 0 28 -23 0 -16 2
-18 14 -7 12 11 8 18 -20 46 -37 36 -41 50 -21 72 10 12 9 12 -5 1 -16 -12
-18 -11 -18 7 0 11 7 25 16 33 22 18 46 1 60 -42 10 -28 9 -36 -5 -46 -11 -9
-12 -12 -3 -13 7 0 10 -5 6 -12 -4 -6 -3 -8 3 -5 16 10 36 -20 30 -43 -3 -11
-1 -18 4 -14 5 3 9 0 9 -5 0 -12 -23 -15 -33 -4 -4 3 -1 13 6 21 11 13 9 14
-10 1 l-23 -14 34 -34 c29 -29 37 -32 50 -22 16 14 13 31 -5 31 -6 0 -7 -6 -3
-12 4 -7 4 -10 -1 -6 -4 4 -9 24 -11 44 -2 20 -11 48 -20 61 -11 18 -13 28 -5
36 21 21 12 67 -18 98 -31 31 -77 39 -99 17z"/>
<path fill="#ffffff" stroke="none" d="M240 247 c0 -12 0 -11 -24 28 l-17 30
20 -24 c12 -13 21 -28 21 -34z"/>
<path fill="#ffffff" stroke="none" d="M82 225 c-5 -27 6 -32 27 -12 11 10 13
10 7 0 -4 -7 -3 -13 3 -13 5 0 11 3 14 8 2 4 2 1 0 -6 -3 -15 21 -44 31 -37 3
3 1 -1 -6 -8 -7 -6 -18 -18 -25 -26 -10 -11 -12 -10 -10 7 0 11 5 18 11 15 5
-3 6 -1 3 5 -9 14 -43 8 -39 -8 1 -6 -2 -9 -8 -5 -6 3 -8 10 -5 15 9 14 -6 40
-24 40 -14 0 -14 2 -1 10 8 5 10 10 4 10 -6 0 -11 7 -11 15 0 8 5 15 10 15 5
0 3 8 -4 18 -13 16 -12 16 7 -1 15 -12 20 -25 16 -42z"/>
<path fill="#ffffff" stroke="none" d="M235 30 c3 -5 2 -10 -4 -10 -5 0 -13 5
-16 10 -3 6 -2 10 4 10 5 0 13 -4 16 -10z"/>
</g>
</svg>
