<?xml version="1.0" standalone="no"?>
<!DOCTYPE svg PUBLIC "-//W3C//DTD SVG 20010904//EN"
 "http://www.w3.org/TR/2001/REC-SVG-20010904/DTD/svg10.dtd">
<svg version="1.0" xmlns="http://www.w3.org/2000/svg"
 width="32.000000pt" height="32.000000pt" viewBox="0 0 32.000000 32.000000"
 preserveAspectRatio="xMidYMid meet">
<metadata>
Created by potrace 1.16, written by Peter Selinger 2001-2019
</metadata>
<g transform="translate(0.000000,32.000000) scale(0.100000,-0.100000)"
fill="#000000" stroke="none">
<path fill="#000000" stroke="none" d="M124 295 c-4 -8 -4 -29 -2 -45 3 -17 2
-30 -1 -30 -3 0 -20 14 -37 31 -57 55 -86 10 -45 -69 22 -42 93 -122 109 -122
5 0 12 9 15 20 3 11 1 18 -3 15 -5 -3 -11 1 -14 7 -3 7 -4 2 -1 -12 3 -14 2
-19 -1 -12 -3 6 -9 10 -13 8 -4 -3 -5 8 -3 25 3 18 0 29 -7 29 -7 0 -10 -4 -6
-9 3 -5 1 -12 -4 -15 -5 -4 -12 -2 -15 3 -4 5 -2 12 3 16 6 3 2 14 -10 26 -22
22 -21 40 2 47 11 3 11 1 1 -6 -17 -12 -4 -44 17 -40 9 1 22 -1 29 -6 25 -15
23 2 -3 28 -14 14 -22 26 -17 26 17 0 82 -71 82 -89 0 -22 67 -84 81 -75 6 4
5 10 -5 17 -8 7 -20 31 -26 54 -6 23 -17 46 -26 51 -14 8 -14 10 0 21 24 20
20 68 -9 96 -28 29 -82 34 -91 10z"/>
<path fill="#ffffff" stroke="none" d="M81 143 c13 -16 12 -17 -3 -4 -17 13
-22 21 -14 21 2 0 10 -8 17 -17z"/>
<path fill="#000000" stroke="none" d="M130 145 c33 -45 60 -56 60 -26 0 23
-22 40 -28 22 -3 -9 -10 -7 -25 6 -21 18 -21 18 -7 -2z"/>
<path fill="#000000" stroke="none" d="M176 83 c-13 -13 -5 -29 25 -46 18 -10
34 -15 37 -12 7 7 -31 34 -40 29 -4 -3 -5 1 -2 9 6 16 -9 31 -20 20z"/>
</g>
</svg>
