<?xml version="1.0" standalone="no"?>
<!DOCTYPE svg PUBLIC "-//W3C//DTD SVG 20010904//EN"
 "http://www.w3.org/TR/2001/REC-SVG-20010904/DTD/svg10.dtd">
<svg version="1.0" xmlns="http://www.w3.org/2000/svg"
 width="32.000000pt" height="32.000000pt" viewBox="0 0 32.000000 32.000000"
 preserveAspectRatio="xMidYMid meet">
<metadata>
Created by potrace 1.16, written by Peter Selinger 2001-2019
</metadata>
<g transform="translate(0.000000,32.000000) scale(0.100000,-0.100000)"
fill="#000000" stroke="none">
<path fill="#000000" stroke="none" d="M124 295 c-4 -8 -4 -29 -2 -45 3 -17 2
-30 -1 -30 -3 0 -20 14 -37 31 -36 35 -64 34 -64 -3 0 -19 2 -20 10 -8 11 17
11 18 14 -38 2 -23 6 -45 11 -50 4 -4 5 2 1 13 -5 15 -4 17 4 9 6 -6 13 -20
14 -30 2 -11 7 -19 12 -19 14 0 34 -15 34 -26 0 -6 -5 -7 -12 -3 -6 4 -8 3 -4
-4 3 -6 16 -9 27 -7 15 3 19 0 15 -10 -3 -8 -2 -15 3 -15 5 0 11 9 14 20 3 11
1 18 -4 14 -5 -3 -9 1 -9 8 0 9 -3 9 -10 -2 -8 -12 -10 -9 -10 13 0 15 -5 27
-11 27 -5 0 -7 -5 -3 -12 5 -7 3 -8 -5 -4 -7 5 -10 10 -7 13 2 2 -5 14 -15 24
-22 22 -21 40 2 47 11 3 11 1 1 -6 -17 -12 -4 -44 17 -40 9 1 22 -1 29 -6 25
-15 23 2 -3 28 -14 14 -22 26 -17 26 17 0 82 -71 82 -89 0 -19 24 -44 53 -54
10 -4 15 -11 12 -17 -3 -5 -2 -10 4 -10 16 0 22 17 7 23 -7 3 -18 26 -25 51
-6 25 -18 49 -27 54 -14 8 -14 10 0 21 24 20 20 68 -9 96 -28 29 -82 34 -91
10z"/>
<path fill="#ffffff" stroke="none" d="M160 296 c0 -3 -4 -8 -10 -11 -5 -3
-10 -1 -10 4 0 6 5 11 10 11 6 0 10 -2 10 -4z"/>
<path fill="#000000" stroke="none" d="M130 145 c33 -45 60 -56 60 -26 0 23
-22 40 -28 22 -3 -9 -10 -7 -25 6 -21 18 -21 18 -7 -2z"/>
<path fill="#000000" stroke="none" d="M175 80 c-3 -5 1 -10 10 -10 9 0 13 5
10 10 -3 6 -8 10 -10 10 -2 0 -7 -4 -10 -10z"/>
<path fill="#000000" stroke="none" d="M198 40 c37 -22 42 -24 42 -11 0 5 -14
14 -31 20 -46 16 -48 14 -11 -9z"/>
</g>
</svg>
