<?xml version="1.0" standalone="no"?>
<!DOCTYPE svg PUBLIC "-//W3C//DTD SVG 20010904//EN"
 "http://www.w3.org/TR/2001/REC-SVG-20010904/DTD/svg10.dtd">
<svg version="1.0" xmlns="http://www.w3.org/2000/svg"
 width="32.000000pt" height="32.000000pt" viewBox="0 0 32.000000 32.000000"
 preserveAspectRatio="xMidYMid meet">
<metadata>
Created by potrace 1.16, written by Peter Selinger 2001-2019
</metadata>
<g transform="translate(0.000000,32.000000) scale(0.100000,-0.100000)"
fill="#000000" stroke="none">
<path fill="#000000" stroke="none" d="M0 160 l0 -160 160 0 160 0 0 160 0
160 -160 0 -160 0 0 -160z"/>
<path fill="#ffffff" stroke="none" d="M215 285 c29 -28 33 -76 9 -96 -14 -11
-14 -13 0 -21 9 -5 20 -28 26 -51 6 -23 18 -47 26 -54 10 -7 11 -13 5 -17 -14
-9 -81 52 -81 73 0 17 -22 45 -57 75 -28 24 -30 17 -3 -14 23 -27 9 -46 -21
-29 -15 7 -17 5 -14 -11 6 -29 -9 -32 -32 -7 -48 52 -69 132 -37 144 9 3 28
-7 50 -28 l34 -33 0 40 c0 23 3 44 7 47 15 16 65 6 88 -18z"/>
<path fill="#ffffff" stroke="none" d="M187 134 c3 -9 1 -25 -6 -35 -6 -11 -8
-18 -4 -17 9 3 66 -52 61 -57 -5 -6 -127 55 -134 66 -3 5 -1 16 5 23 6 7 8 16
4 20 -4 4 5 5 20 2 15 -2 27 0 27 5 0 15 20 10 27 -7z"/>
<path fill="#000000" stroke="none" d="M75 200 c-3 -5 -2 -18 4 -27 7 -14 9
-12 8 10 -2 30 -3 31 -12 17z"/>
</g>
</svg>
