<?xml version="1.0" standalone="no"?>
<!DOCTYPE svg PUBLIC "-//W3C//DTD SVG 20010904//EN"
 "http://www.w3.org/TR/2001/REC-SVG-20010904/DTD/svg10.dtd">
<svg version="1.0" xmlns="http://www.w3.org/2000/svg"
 width="32.000000pt" height="32.000000pt" viewBox="0 0 32.000000 32.000000"
 preserveAspectRatio="xMidYMid meet">
<metadata>
Created by potrace 1.16, written by Peter Selinger 2001-2019
</metadata>
<g transform="translate(0.000000,32.000000) scale(0.100000,-0.100000)"
fill="#000000" stroke="none">
<path fill="#000000" stroke="none" d="M0 160 l0 -160 160 0 160 0 0 160 0
160 -160 0 -160 0 0 -160z"/>
<path fill="#ffffff" stroke="none" d="M215 285 c29 -28 33 -76 9 -96 -14 -11
-14 -13 0 -21 9 -5 21 -29 27 -54 7 -25 18 -48 25 -51 15 -6 9 -23 -7 -23 -6
0 -7 5 -4 10 3 6 -2 13 -12 17 -29 10 -53 35 -53 54 0 29 -67 88 -98 86 -37
-3 -38 -23 -3 -54 17 -15 31 -34 31 -42 0 -15 -14 -6 -16 10 -1 5 -2 12 -3 15
0 4 -8 1 -16 -6 -8 -7 -15 -11 -16 -9 0 2 -2 12 -4 23 -2 10 -9 24 -15 30 -8
8 -9 6 -4 -9 4 -11 4 -17 -1 -13 -4 4 -9 27 -10 50 -1 27 -6 42 -13 40 -18 -3
-14 28 4 35 9 3 28 -6 48 -26 37 -36 46 -39 39 -11 -3 11 -2 31 1 45 9 34 57
35 91 0z"/>
<path fill="#ffffff" stroke="none" d="M125 176 c-5 -15 -4 -17 3 -7 7 9 12
10 16 2 13 -20 -4 -31 -27 -18 -43 24 -48 45 -12 45 21 0 25 -4 20 -22z"/>
<path fill="#ffffff" stroke="none" d="M188 114 c-10 -10 -28 6 -28 24 0 15 1
15 17 -1 9 -9 14 -19 11 -23z"/>
<path fill="#ffffff" stroke="none" d="M150 67 c-8 -9 -9 -7 -4 7 5 13 4 17
-4 12 -8 -5 -10 -2 -5 10 6 15 7 15 16 -1 6 -11 5 -21 -3 -28z"/>
<path fill="#ffffff" stroke="none" d="M195 80 c3 -5 -1 -10 -10 -10 -9 0 -13
5 -10 10 3 6 8 10 10 10 2 0 7 -4 10 -10z"/>
<path fill="#ffffff" stroke="none" d="M209 49 c17 -6 31 -15 31 -20 0 -13 -5
-11 -42 11 -37 23 -35 25 11 9z"/>
<path fill="#000000" stroke="none" d="M140 289 c0 -5 5 -7 10 -4 6 3 10 8 10
11 0 2 -4 4 -10 4 -5 0 -10 -5 -10 -11z"/>
<path fill="#000000" stroke="none" d="M192 276 c7 -8 15 -12 17 -11 5 6 -10
25 -20 25 -5 0 -4 -6 3 -14z"/>
</g>
</svg>
