<?xml version="1.0" standalone="no"?>
<!DOCTYPE svg PUBLIC "-//W3C//DTD SVG 20010904//EN"
 "http://www.w3.org/TR/2001/REC-SVG-20010904/DTD/svg10.dtd">
<svg version="1.0" xmlns="http://www.w3.org/2000/svg"
 width="32.000000pt" height="32.000000pt" viewBox="0 0 32.000000 32.000000"
 preserveAspectRatio="xMidYMid meet">
<metadata>
Created by potrace 1.16, written by Peter Selinger 2001-2019
</metadata>
<g transform="translate(0.000000,32.000000) scale(0.100000,-0.100000)"
fill="#000000" stroke="none">
<path fill="#000000" stroke="none" d="M153 253 c-5 -16 -6 -39 -2 -53 4 -14
7 -21 8 -16 1 6 7 1 15 -10 8 -10 22 -19 32 -19 9 0 19 -6 21 -13 3 -8 -2 -10
-14 -6 -15 5 -15 4 -3 -5 10 -7 11 -11 3 -11 -7 0 -13 -5 -13 -12 0 -6 8 -4
19 6 15 13 20 14 24 4 4 -9 6 -8 6 4 1 9 -10 26 -24 36 -15 12 -21 23 -16 27
16 9 6 64 -15 80 -26 20 -31 19 -41 -12z"/>
<path fill="#ffffff" stroke="none" d="M170 235 c0 -8 -4 -15 -10 -15 -5 0 -7
7 -4 15 4 8 8 15 10 15 2 0 4 -7 4 -15z"/>
<path fill="#ffffff" stroke="none" d="M200 226 c0 -3 -4 -8 -10 -11 -5 -3
-10 -1 -10 4 0 6 5 11 10 11 6 0 10 -2 10 -4z"/>
<path fill="#000000" stroke="none" d="M96 208 c3 -5 10 -6 15 -3 13 9 11 12
-6 12 -8 0 -12 -4 -9 -9z"/>
<path fill="#000000" stroke="none" d="M66 203 c6 -2 16 -14 22 -26 6 -13 11
-16 11 -7 1 10 6 7 17 -9 11 -15 20 -19 26 -13 6 6 7 16 3 22 -6 9 -10 9 -17
-1 -7 -10 -7 -7 -3 8 5 17 2 22 -12 22 -10 -1 -27 1 -38 4 -11 2 -15 2 -9 0z"/>
<path fill="#000000" stroke="none" d="M160 138 c0 -18 18 -34 28 -24 3 4 -2
14 -11 23 -16 16 -17 16 -17 1z"/>
</g>
</svg>
