<?xml version="1.0" standalone="no"?>
<!DOCTYPE svg PUBLIC "-//W3C//DTD SVG 20010904//EN"
 "http://www.w3.org/TR/2001/REC-SVG-20010904/DTD/svg10.dtd">
<svg version="1.0" xmlns="http://www.w3.org/2000/svg"
 width="32.000000pt" height="32.000000pt" viewBox="0 0 32.000000 32.000000"
 preserveAspectRatio="xMidYMid meet">
<metadata>
Created by potrace 1.16, written by Peter Selinger 2001-2019
</metadata>
<g transform="translate(0.000000,32.000000) scale(0.100000,-0.100000)"
fill="#000000" stroke="none">
<path fill="#000000" stroke="none" d="M0 160 l0 -160 160 0 160 0 0 160 0
160 -64 0 -64 0 29 -29 c30 -31 39 -77 18 -98 -8 -8 -7 -17 4 -34 8 -13 18
-37 21 -53 4 -17 14 -35 23 -41 13 -10 13 -13 -2 -25 -14 -11 -20 -9 -50 20
-33 32 -34 35 -18 52 16 18 17 18 29 -9 l13 -28 -6 30 c-8 40 -11 45 -27 39
-8 -3 -17 0 -22 7 -5 9 -2 10 12 6 18 -7 18 -6 1 7 -12 9 -14 16 -8 21 18 10
12 54 -9 75 -26 26 -38 25 -49 -3 -11 -29 -3 -79 12 -70 6 4 8 0 4 -11 -4 -9
-3 -15 2 -12 4 3 18 -6 29 -19 12 -14 18 -25 13 -25 -23 0 -18 -32 9 -59 17
-16 30 -34 30 -40 0 -14 -27 -14 -35 -1 -4 6 1 7 12 4 15 -5 15 -4 3 4 -8 6
-17 9 -21 6 -17 -10 -97 37 -130 78 -69 84 -86 147 -47 172 15 9 23 5 45 -19
16 -16 21 -23 11 -16 -9 7 -19 8 -22 3 -6 -11 29 -23 38 -14 3 3 6 17 6 32 0
14 5 31 12 38 9 9 -3 12 -55 12 l-67 0 0 -160z"/>
<path fill="#ffffff" stroke="none" d="M170 230 c0 -5 -5 -10 -11 -10 -5 0 -7
5 -4 10 3 6 8 10 11 10 2 0 4 -4 4 -10z"/>
<path fill="#000000" stroke="none" d="M216 275 c24 -39 24 -40 24 -28 0 6 -9
21 -21 34 l-20 24 17 -30z"/>
<path fill="#000000" stroke="none" d="M96 208 c3 -5 10 -6 15 -3 13 9 11 12
-6 12 -8 0 -12 -4 -9 -9z"/>
<path fill="#000000" stroke="none" d="M66 203 c6 -2 16 -14 22 -26 6 -13 11
-16 11 -7 1 10 6 7 17 -9 11 -15 20 -19 26 -13 6 6 7 16 3 22 -6 9 -10 9 -17
-1 -7 -10 -7 -7 -3 8 5 17 2 22 -12 22 -10 -1 -27 1 -38 4 -11 2 -15 2 -9 0z"/>
<path fill="#000000" stroke="none" d="M160 138 c0 -18 18 -34 28 -24 3 4 -2
14 -11 23 -16 16 -17 16 -17 1z"/>
</g>
</svg>
