<?xml version="1.0" standalone="no"?>
<!DOCTYPE svg PUBLIC "-//W3C//DTD SVG 20010904//EN"
 "http://www.w3.org/TR/2001/REC-SVG-20010904/DTD/svg10.dtd">
<svg version="1.0" xmlns="http://www.w3.org/2000/svg"
 width="32.000000pt" height="32.000000pt" viewBox="0 0 32.000000 32.000000"
 preserveAspectRatio="xMidYMid meet">
<metadata>
Created by potrace 1.16, written by Peter Selinger 2001-2019
</metadata>
<g transform="translate(0.000000,32.000000) scale(0.100000,-0.100000)"
fill="#000000" stroke="none">
<path fill="#000000" stroke="none" d="M122 308 c-7 -7 -12 -24 -12 -39 0 -20
-5 -27 -17 -25 -10 2 -18 9 -18 16 0 22 -31 36 -49 21 -52 -44 37 -187 150
-242 34 -16 65 -29 68 -29 15 0 4 24 -24 52 -29 28 -30 32 -15 48 9 10 13 20
8 22 -4 3 -2 3 5 2 14 -4 16 12 3 20 -5 4 -21 7 -34 8 -14 1 -23 6 -21 10 3 5
11 6 17 2 7 -3 3 2 -7 10 -11 9 -16 16 -11 16 5 0 2 6 -7 13 -14 10 -15 17 -5
41 12 28 12 28 35 9 24 -19 36 -69 20 -79 -5 -3 3 -15 17 -26 14 -10 25 -27
25 -36 0 -13 -2 -14 -8 -4 -7 10 -12 8 -25 -6 -16 -17 -15 -20 18 -52 30 -29
36 -31 50 -20 15 12 15 15 2 25 -9 6 -19 24 -23 41 -3 16 -13 40 -21 53 -11
17 -12 26 -4 34 21 21 12 67 -18 98 -31 31 -77 39 -99 17z"/>
<path fill="#ffffff" stroke="none" d="M91 193 c13 -16 12 -17 -3 -4 -10 7
-18 15 -18 17 0 8 8 3 21 -13z"/>
<path fill="#ffffff" stroke="none" d="M135 180 c10 -11 16 -20 13 -20 -3 0
-13 9 -23 20 -10 11 -16 20 -13 20 3 0 13 -9 23 -20z"/>
<path fill="#ffffff" stroke="none" d="M181 123 c13 -16 12 -17 -3 -4 -10 7
-18 15 -18 17 0 8 8 3 21 -13z"/>
<path fill="#000000" stroke="none" d="M160 240 c-12 -23 -5 -26 16 -6 8 9 10
17 5 21 -6 3 -15 -4 -21 -15z"/>
<path fill="#000000" stroke="none" d="M180 221 c0 -6 5 -13 12 -17 6 -4 8 -3
4 4 -3 5 0 13 6 15 8 3 6 6 -4 6 -10 1 -18 -3 -18 -8z"/>
</g>
</svg>
