<?xml version="1.0" standalone="no"?>
<!DOCTYPE svg PUBLIC "-//W3C//DTD SVG 20010904//EN"
 "http://www.w3.org/TR/2001/REC-SVG-20010904/DTD/svg10.dtd">
<svg version="1.0" xmlns="http://www.w3.org/2000/svg"
 width="32.000000pt" height="32.000000pt" viewBox="0 0 32.000000 32.000000"
 preserveAspectRatio="xMidYMid meet">
<metadata>
Created by potrace 1.16, written by Peter Selinger 2001-2019
</metadata>
<g transform="translate(0.000000,32.000000) scale(0.100000,-0.100000)"
fill="#000000" stroke="none">
<path fill="#000000" stroke="none" d="M108 293 c-14 -16 -31 -39 -39 -53
l-13 -25 -6 24 c-7 29 -30 40 -30 15 0 -10 -5 -33 -12 -51 -10 -27 -10 -38 1
-55 9 -14 10 -23 2 -31 -15 -15 -14 -30 2 -25 6 3 20 -3 29 -13 16 -17 16 -19
-1 -41 l-19 -23 36 -2 c20 -1 43 3 51 10 12 10 13 9 7 -1 -7 -12 -4 -12 14 -2
18 10 24 9 31 -1 4 -8 24 -14 43 -14 27 -1 33 2 24 12 -7 9 -6 14 7 19 9 4 20
1 25 -6 6 -9 9 -9 15 -1 5 9 10 9 20 1 22 -18 29 25 11 62 -14 28 -14 33 -1
48 20 23 19 43 -5 65 -11 10 -18 21 -15 23 3 3 -2 16 -11 29 -12 19 -13 27 -3
39 16 20 5 28 -19 15 -11 -6 -27 -8 -35 -5 -8 3 -18 1 -21 -4 -7 -12 -46 -4
-46 9 0 16 -16 9 -42 -18z"/>
<path fill="#ffffff" stroke="none" d="M245 290 c-3 -5 -11 -10 -17 -10 -6 0
-21 -8 -32 -17 -20 -17 -20 -17 -6 1 8 10 23 22 35 26 27 12 27 11 20 0z"/>
<path fill="#ffffff" stroke="none" d="M142 277 c-9 -10 -6 -23 8 -50 24 -44
25 -60 5 -77 -17 -15 -20 1 -4 17 9 9 8 18 -3 35 -9 13 -18 33 -21 43 -3 11
-5 3 -4 -18 1 -41 -14 -59 -48 -55 -11 2 -21 12 -23 23 -3 11 -1 17 4 12 4 -4
15 9 25 30 9 20 24 38 34 39 9 1 19 5 23 8 11 12 14 6 4 -7z"/>
<path fill="#ffffff" stroke="none" d="M168 260 c-7 -10 -14 -17 -17 -15 -4 4
18 35 25 35 2 0 -1 -9 -8 -20z"/>
<path fill="#ffffff" stroke="none" d="M37 221 c-3 -15 -1 -33 6 -40 8 -8 8
-11 0 -11 -6 0 -14 6 -16 13 -4 8 -6 9 -6 0 -1 -6 6 -18 14 -27 21 -21 19 -29
-5 -16 -23 12 -25 30 -8 77 15 41 22 43 15 4z"/>
<path fill="#ffffff" stroke="none" d="M211 182 c-7 -13 -6 -23 2 -32 10 -12
9 -12 -5 -1 -27 20 -23 41 10 50 1 1 -2 -7 -7 -17z"/>
<path fill="#ffffff" stroke="none" d="M120 145 c7 -8 9 -15 5 -15 -4 0 -3 -6
3 -12 13 -17 9 -61 -6 -66 -7 -2 -25 6 -40 17 -16 11 -32 18 -36 14 -3 -3 -6
-1 -6 5 0 18 14 15 44 -9 14 -11 32 -19 39 -16 6 2 -7 14 -31 26 -31 16 -42
27 -38 37 3 9 6 20 6 25 0 15 46 10 60 -6z"/>
<path fill="#ffffff" stroke="none" d="M40 116 c0 -2 -7 -7 -16 -10 -8 -3 -12
-2 -9 4 6 10 25 14 25 6z"/>
<path fill="#000000" stroke="none" d="M64 128 c-8 -13 16 -19 36 -8 11 6 20
12 20 13 0 5 -52 1 -56 -5z"/>
<path fill="#000000" stroke="none" d="M105 100 c3 -5 8 -10 11 -10 2 0 4 5 4
10 0 6 -5 10 -11 10 -5 0 -7 -4 -4 -10z"/>
</g>
</svg>
