<?xml version="1.0" standalone="no"?>
<!DOCTYPE svg PUBLIC "-//W3C//DTD SVG 20010904//EN"
 "http://www.w3.org/TR/2001/REC-SVG-20010904/DTD/svg10.dtd">
<svg version="1.0" xmlns="http://www.w3.org/2000/svg"
 width="32.000000pt" height="32.000000pt" viewBox="0 0 32.000000 32.000000"
 preserveAspectRatio="xMidYMid meet">
<metadata>
Created by potrace 1.16, written by Peter Selinger 2001-2019
</metadata>
<g transform="translate(0.000000,32.000000) scale(0.100000,-0.100000)"
fill="#000000" stroke="none">
<path fill="#000000" stroke="none" d="M270 241 c-11 -28 -50 -72 -50 -57 0 4
-12 -2 -26 -13 -15 -12 -39 -21 -55 -21 -16 0 -39 -10 -53 -24 -29 -26 -33
-38 -11 -30 8 4 23 3 32 -2 27 -11 37 -11 52 0 12 9 13 8 6 -4 -6 -12 -5 -13
5 -3 12 11 11 15 -6 27 -19 14 -19 15 1 21 11 4 29 11 40 17 18 10 18 9 7 -5
-8 -10 -9 -17 -3 -21 14 -9 54 33 47 49 -6 17 9 29 24 20 8 -5 7 -12 -2 -23
-12 -15 -11 -16 5 -3 13 10 15 17 6 27 -10 12 -6 18 12 16 3 -1 6 6 6 14 0 19
-7 18 -23 -3 -12 -16 -13 -14 -4 11 14 39 6 44 -10 7z"/>
<path fill="#000000" stroke="none" d="M80 246 c0 -2 8 -10 18 -17 15 -13 16
-12 3 4 -13 16 -21 21 -21 13z"/>
<path fill="#000000" stroke="none" d="M29 143 c-13 -17 -13 -17 6 -3 11 8 22
16 24 17 2 2 0 3 -6 3 -6 0 -17 -8 -24 -17z"/>
<path fill="#000000" stroke="none" d="M39 123 c-12 -16 -12 -17 1 -7 8 6 22
14 30 17 13 5 12 6 -1 6 -9 1 -23 -7 -30 -16z"/>
<path fill="#000000" stroke="none" d="M210 35 c13 -14 26 -25 28 -25 3 0 -5
11 -18 25 -13 14 -26 25 -28 25 -3 0 5 -11 18 -25z"/>
<path fill="#000000" stroke="none" d="M96 33 c-6 -14 -5 -15 5 -6 7 7 10 15
7 18 -3 3 -9 -2 -12 -12z"/>
</g>
</svg>
