<?xml version="1.0" standalone="no"?>
<!DOCTYPE svg PUBLIC "-//W3C//DTD SVG 20010904//EN"
 "http://www.w3.org/TR/2001/REC-SVG-20010904/DTD/svg10.dtd">
<svg version="1.0" xmlns="http://www.w3.org/2000/svg"
 width="32.000000pt" height="32.000000pt" viewBox="0 0 32.000000 32.000000"
 preserveAspectRatio="xMidYMid meet">
<metadata>
Created by potrace 1.16, written by Peter Selinger 2001-2019
</metadata>
<g transform="translate(0.000000,32.000000) scale(0.100000,-0.100000)"
fill="#000000" stroke="none">
<path fill="#000000" stroke="none" d="M0 160 l0 -160 160 0 160 0 0 160 0
160 -160 0 -160 0 0 -160z"/>
<path fill="#ffffff" stroke="none" d="M247 266 c46 -23 83 -112 54 -130 -4
-3 -6 7 -5 22 5 33 2 26 -26 -64 -22 -69 -24 -71 -56 -72 -35 -1 -48 20 -19
32 8 3 15 10 15 16 0 6 -11 5 -28 -4 -53 -27 -187 -34 -143 -7 10 7 9 10 -8
16 -11 3 -21 10 -21 14 0 4 29 26 65 49 35 23 72 53 81 67 16 24 16 27 -2 41
-13 10 -33 13 -64 10 l-45 -6 25 21 c21 18 34 21 85 16 34 -2 75 -12 92 -21z"/>
</g>
</svg>
