<?xml version="1.0" standalone="no"?>
<!DOCTYPE svg PUBLIC "-//W3C//DTD SVG 20010904//EN"
 "http://www.w3.org/TR/2001/REC-SVG-20010904/DTD/svg10.dtd">
<svg version="1.0" xmlns="http://www.w3.org/2000/svg"
 width="32.000000pt" height="32.000000pt" viewBox="0 0 32.000000 32.000000"
 preserveAspectRatio="xMidYMid meet">
<metadata>
Created by potrace 1.16, written by Peter Selinger 2001-2019
</metadata>
<g transform="translate(0.000000,32.000000) scale(0.100000,-0.100000)"
fill="#000000" stroke="none">
<path fill="#000000" stroke="none" d="M0 160 l0 -160 160 0 160 0 0 160 0
160 -160 0 -160 0 0 -160z"/>
<path fill="#ffffff" stroke="none" d="M144 275 c5 0 10 -7 11 -16 3 -15 0
-15 -23 -3 -17 9 -31 10 -43 3 -28 -15 -44 -12 -29 5 13 16 49 25 65 17 6 -3
14 -6 19 -6z"/>
<path fill="#ffffff" stroke="none" d="M245 264 c17 -8 38 -28 48 -45 18 -32
22 -54 9 -46 -4 3 -18 -30 -32 -72 -24 -76 -25 -78 -57 -79 -38 -2 -40 1 -15
25 25 24 34 51 20 59 -6 4 -8 3 -5 -3 3 -5 -14 -20 -40 -33 -52 -26 -133 -39
-133 -22 0 18 35 32 78 32 40 0 55 7 46 21 -3 5 -13 5 -22 0 -9 -5 -43 -12
-75 -16 -50 -6 -56 -5 -51 8 3 9 14 19 25 22 10 4 25 12 31 18 7 7 32 25 55
40 49 34 55 45 43 87 -9 31 -8 32 18 25 15 -4 41 -13 57 -21z"/>
</g>
</svg>
