<?xml version="1.0" standalone="no"?>
<!DOCTYPE svg PUBLIC "-//W3C//DTD SVG 20010904//EN"
 "http://www.w3.org/TR/2001/REC-SVG-20010904/DTD/svg10.dtd">
<svg version="1.0" xmlns="http://www.w3.org/2000/svg"
 width="32.000000pt" height="32.000000pt" viewBox="0 0 32.000000 32.000000"
 preserveAspectRatio="xMidYMid meet">
<metadata>
Created by potrace 1.16, written by Peter Selinger 2001-2019
</metadata>
<g transform="translate(0.000000,32.000000) scale(0.100000,-0.100000)"
fill="#000000" stroke="none">
<path fill="#000000" stroke="none" d="M165 240 c-7 -21 -26 -28 -21 -7 1 6 1
9 -1 4 -3 -4 -8 -5 -13 -2 -4 3 -6 -4 -3 -15 3 -11 10 -17 17 -13 6 3 6 0 -1
-8 -18 -18 -16 -25 5 -26 10 -1 19 4 19 10 0 7 3 27 7 45 8 35 1 44 -9 12z"/>
<path fill="#000000" stroke="none" d="M186 233 c-11 -34 -18 -98 -10 -90 4 4
8 17 9 30 1 12 8 22 15 22 7 0 17 11 21 25 8 22 8 23 -4 8 -15 -20 -29 -14
-20 8 3 8 3 14 0 14 -3 0 -8 -8 -11 -17z"/>
<path fill="#000000" stroke="none" d="M107 200 c3 -24 3 -24 -12 -6 -19 25
-19 9 0 -24 9 -15 15 -19 15 -10 0 8 12 -6 27 -33 18 -33 29 -43 35 -35 7 12
12 4 9 -15 -1 -4 8 -3 19 3 11 6 19 16 17 22 -1 7 5 12 13 13 9 0 14 8 12 20
-3 15 -1 17 11 7 11 -9 17 -8 30 6 14 15 14 19 0 37 -12 16 -14 16 -10 3 4
-11 2 -17 -6 -15 -7 1 -11 -3 -10 -9 3 -16 -25 -13 -32 4 -3 8 -3 17 0 20 3 3
5 0 5 -6 0 -7 4 -12 9 -12 5 0 7 10 5 23 -4 20 -4 21 5 2 11 -22 15 -6 5 19
-5 13 -9 12 -26 -9 -11 -14 -24 -22 -30 -19 -7 4 -8 2 -4 -4 4 -6 -3 -28 -14
-49 -13 -23 -19 -29 -17 -16 3 12 -1 30 -9 40 -11 14 -13 15 -14 3 0 -12 -3
-11 -11 3 -5 9 -7 22 -4 27 3 6 2 10 -4 10 -5 0 -11 6 -14 13 -2 6 -2 1 0 -13z"/>
<path fill="#ffffff" stroke="none" d="M290 166 c0 -2 -8 -10 -17 -17 -16 -13
-17 -12 -4 4 13 16 21 21 21 13z"/>
<path fill="#ffffff" stroke="none" d="M229 141 c8 -15 7 -18 -10 -17 -10 0
-19 4 -19 9 0 4 0 12 0 17 0 17 19 11 29 -9z"/>
<path fill="#ffffff" stroke="none" d="M155 140 c3 -5 1 -10 -4 -10 -6 0 -11
5 -11 10 0 6 2 10 4 10 3 0 8 -4 11 -10z"/>
<path fill="#ffffff" stroke="none" d="M206 93 c-7 -7 -26 7 -26 19 0 6 6 6
15 -2 9 -7 13 -15 11 -17z"/>
<path fill="#000000" stroke="none" d="M60 181 c0 -5 7 -15 17 -22 15 -13 15
-12 4 9 -12 23 -21 28 -21 13z"/>
<path fill="#000000" stroke="none" d="M50 153 c0 -13 17 -26 38 -29 6 -1 10
2 6 7 -3 5 -9 7 -14 4 -5 -3 -13 3 -19 12 -6 10 -11 13 -11 6z"/>
<path fill="#000000" stroke="none" d="M111 129 c-1 -9 -10 -19 -21 -22 -11
-3 -20 -11 -20 -19 0 -18 52 -18 58 1 3 10 -2 11 -19 6 -23 -7 -23 -6 -5 7 10
8 16 21 13 29 -4 11 -6 10 -6 -2z"/>
<path fill="#000000" stroke="none" d="M165 39 c-4 -6 -4 -13 -1 -16 3 -4 6
-1 6 6 0 7 5 9 12 5 7 -4 8 -3 4 4 -9 15 -13 15 -21 1z"/>
</g>
</svg>
