<?xml version="1.0" standalone="no"?>
<!DOCTYPE svg PUBLIC "-//W3C//DTD SVG 20010904//EN"
 "http://www.w3.org/TR/2001/REC-SVG-20010904/DTD/svg10.dtd">
<svg version="1.0" xmlns="http://www.w3.org/2000/svg"
 width="32.000000pt" height="32.000000pt" viewBox="0 0 32.000000 32.000000"
 preserveAspectRatio="xMidYMid meet">
<metadata>
Created by potrace 1.16, written by Peter Selinger 2001-2019
</metadata>
<g transform="translate(0.000000,32.000000) scale(0.100000,-0.100000)"
fill="#000000" stroke="none">
<path fill="#000000" stroke="none" d="M112 244 c-24 -16 -30 -54 -9 -54 8 0
7 -3 -3 -10 -9 -6 -20 -5 -30 3 -13 10 -13 10 -3 -4 7 -9 10 -19 6 -22 -3 -4
-12 1 -19 11 -11 16 -13 15 -22 -8 -5 -14 -12 -41 -16 -60 -5 -33 -5 -33 10 7
11 30 20 41 35 40 14 -1 19 -9 19 -29 0 -15 4 -29 9 -32 5 -3 7 11 4 32 -3 27
-1 33 6 22 6 -8 11 -26 12 -40 1 -23 2 -22 15 9 8 18 13 40 10 48 -3 8 -1 11
4 8 6 -3 10 2 10 11 0 19 10 13 13 -8 3 -17 22 -17 20 0 0 7 5 11 12 8 7 -2
19 7 26 21 12 23 11 27 -10 44 -28 23 -69 24 -99 3z"/>
<path fill="#000000" stroke="none" d="M240 186 c0 -8 71 -48 76 -43 3 2 -10
14 -29 26 -33 20 -47 25 -47 17z"/>
<path fill="#000000" stroke="none" d="M220 159 c0 -5 -4 -8 -9 -5 -5 3 -17
-6 -26 -21 -16 -24 -16 -26 -1 -20 12 5 22 -2 34 -24 32 -58 42 -64 24 -14
-26 71 -18 82 29 44 53 -42 60 -31 9 15 -41 36 -60 45 -60 25z"/>
<path fill="#000000" stroke="none" d="M140 118 c0 -4 5 -18 11 -32 9 -20 9
-29 -1 -41 -7 -8 -11 -18 -8 -20 3 -3 10 6 17 19 11 19 10 28 -3 52 -8 16 -15
26 -16 22z"/>
<path fill="#000000" stroke="none" d="M50 91 c-10 -20 0 -61 16 -61 2 0 0 9
-6 21 -9 15 -8 24 1 35 6 8 9 17 6 20 -3 3 -10 -4 -17 -15z"/>
</g>
</svg>
