<?xml version="1.0" standalone="no"?>
<!DOCTYPE svg PUBLIC "-//W3C//DTD SVG 20010904//EN"
 "http://www.w3.org/TR/2001/REC-SVG-20010904/DTD/svg10.dtd">
<svg version="1.0" xmlns="http://www.w3.org/2000/svg"
 width="32.000000pt" height="32.000000pt" viewBox="0 0 32.000000 32.000000"
 preserveAspectRatio="xMidYMid meet">
<metadata>
Created by potrace 1.16, written by Peter Selinger 2001-2019
</metadata>
<g transform="translate(0.000000,32.000000) scale(0.100000,-0.100000)"
fill="#000000" stroke="none">
<path fill="#000000" stroke="none" d="M91 308 c0 -9 -14 -28 -31 -41 -17 -15
-25 -27 -18 -29 9 -3 8 -14 -4 -39 -30 -65 -30 -73 3 -109 17 -19 28 -30 25
-24 -3 6 4 10 16 10 24 -1 44 25 35 48 -4 10 -18 16 -37 16 -16 0 -31 5 -31
10 -1 6 -2 16 -3 23 -3 19 13 47 27 44 7 -1 12 10 11 31 0 23 4 32 14 30 23
-5 39 -35 25 -49 -9 -9 -11 -7 -7 8 3 12 1 23 -4 27 -5 3 -9 -6 -9 -19 0 -25
10 -38 36 -41 7 -2 20 -12 28 -24 12 -17 18 -19 29 -9 13 10 18 6 15 -13 0 -5
3 -8 9 -8 17 0 11 -29 -10 -50 -20 -20 -56 -28 -45 -10 10 17 -4 11 -25 -10
-11 -11 -31 -20 -45 -20 -18 0 -25 -5 -25 -20 0 -23 15 -27 24 -5 8 22 36 18
36 -5 0 -28 13 -25 32 8 22 37 64 60 80 44 19 -19 25 -14 25 15 0 46 12 77 35
96 13 9 19 17 13 16 -21 -3 -35 1 -35 11 0 6 3 9 8 9 23 -4 24 4 2 16 -22 13
-23 14 -5 15 19 1 19 1 -3 19 -15 13 -18 21 -10 24 9 4 8 6 -3 6 -8 1 -24 -6
-35 -14 -25 -19 -40 -19 -25 -1 10 12 8 14 -13 12 -14 -1 -29 -6 -33 -9 -3 -4
-12 -2 -19 4 -8 7 -14 7 -19 -1 -10 -15 -23 -12 -28 8 -4 15 -5 15 -6 0z"/>
<path fill="#ffffff" stroke="none" d="M197 238 c-3 -8 -6 -5 -6 6 -1 11 2 17
5 13 3 -3 4 -12 1 -19z"/>
<path fill="#ffffff" stroke="none" d="M244 218 c0 -13 7 -23 14 -23 18 0 15
-18 -4 -21 -9 -1 -13 0 -10 3 3 3 -1 15 -9 25 -7 11 -11 27 -8 35 7 18 15 9
17 -19z"/>
<path fill="#000000" stroke="none" d="M130 141 c0 -14 18 -23 31 -15 8 4 7 9
-2 15 -18 11 -29 11 -29 0z"/>
</g>
</svg>
