<?xml version="1.0" standalone="no"?>
<!DOCTYPE svg PUBLIC "-//W3C//DTD SVG 20010904//EN"
 "http://www.w3.org/TR/2001/REC-SVG-20010904/DTD/svg10.dtd">
<svg version="1.0" xmlns="http://www.w3.org/2000/svg"
 width="32.000000pt" height="32.000000pt" viewBox="0 0 32.000000 32.000000"
 preserveAspectRatio="xMidYMid meet">
<metadata>
Created by potrace 1.16, written by Peter Selinger 2001-2019
</metadata>
<g transform="translate(0.000000,32.000000) scale(0.100000,-0.100000)"
fill="#000000" stroke="none">
<path fill="#000000" stroke="none" d="M57 273 c-12 -11 -8 -23 7 -23 8 0 16
7 20 15 5 15 -14 21 -27 8z"/>
<path fill="#000000" stroke="none" d="M157 273 c-4 -3 -7 -11 -7 -17 0 -6 5
-5 12 2 6 6 9 14 7 17 -3 3 -9 2 -12 -2z"/>
<path fill="#000000" stroke="none" d="M180 234 c-7 -16 -7 -32 0 -44 5 -10
10 -28 10 -40 0 -12 4 -18 10 -15 6 4 10 14 8 23 -1 10 1 22 5 29 4 7 1 23 -8
36 -8 13 -12 27 -8 30 3 4 3 7 -1 7 -3 0 -11 -12 -16 -26z"/>
<path fill="#000000" stroke="none" d="M129 123 l-11 -28 -13 25 c-14 25 -14
25 -15 3 0 -13 -5 -23 -11 -23 -6 0 -1 -9 12 -19 24 -19 24 -19 47 1 23 22 29
52 12 63 -6 3 -15 -6 -21 -22z"/>
<path fill="#000000" stroke="none" d="M12 106 c2 -18 12 -34 28 -43 22 -14
23 -14 7 0 -15 13 -16 15 -2 21 8 3 15 10 15 16 0 6 -5 8 -12 4 -6 -4 -17 2
-25 12 -14 18 -14 17 -11 -10z"/>
<path fill="#000000" stroke="none" d="M80 39 c0 -5 5 -7 10 -4 6 3 10 8 10
11 0 2 -4 4 -10 4 -5 0 -10 -5 -10 -11z"/>
<path fill="#000000" stroke="none" d="M240 39 c0 -5 5 -7 10 -4 6 3 10 8 10
11 0 2 -4 4 -10 4 -5 0 -10 -5 -10 -11z"/>
<path fill="#000000" stroke="none" d="M270 39 c0 -5 5 -7 10 -4 6 3 10 8 10
11 0 2 -4 4 -10 4 -5 0 -10 -5 -10 -11z"/>
<path fill="#000000" stroke="none" d="M150 19 c0 -5 5 -7 10 -4 6 3 10 8 10
11 0 2 -4 4 -10 4 -5 0 -10 -5 -10 -11z"/>
<path fill="#000000" stroke="none" d="M180 19 c0 -5 5 -7 10 -4 6 3 10 8 10
11 0 2 -4 4 -10 4 -5 0 -10 -5 -10 -11z"/>
</g>
</svg>
