<?xml version="1.0" standalone="no"?>
<!DOCTYPE svg PUBLIC "-//W3C//DTD SVG 20010904//EN"
 "http://www.w3.org/TR/2001/REC-SVG-20010904/DTD/svg10.dtd">
<svg version="1.0" xmlns="http://www.w3.org/2000/svg"
 width="32.000000pt" height="32.000000pt" viewBox="0 0 32.000000 32.000000"
 preserveAspectRatio="xMidYMid meet">
<metadata>
Created by potrace 1.16, written by Peter Selinger 2001-2019
</metadata>
<g transform="translate(0.000000,32.000000) scale(0.100000,-0.100000)"
fill="#000000" stroke="none">
<path fill="#000000" stroke="none" d="M0 160 l0 -160 160 0 160 0 0 160 0
160 -160 0 -160 0 0 -160z"/>
<path fill="#ffffff" stroke="none" d="M188 272 c24 -22 42 -48 42 -60 0 -25
-20 -72 -31 -72 -13 0 -31 70 -25 98 l6 27 -20 -24 c-12 -14 -18 -33 -16 -47
3 -16 -1 -27 -14 -34 -11 -6 -17 -17 -14 -25 3 -8 -8 -32 -26 -55 -25 -32 -34
-37 -45 -27 -7 6 -11 15 -8 19 2 5 -2 8 -9 8 -7 0 -2 7 10 16 18 12 21 23 19
54 -2 22 -7 43 -12 47 -4 5 -5 1 -1 -7 4 -8 0 -6 -8 4 -24 30 -19 61 15 90 45
39 86 35 137 -12z"/>
<path fill="#ffffff" stroke="none" d="M286 189 c1 -10 2 -20 4 -21 8 -11 6
-39 -3 -45 -18 -11 -36 -12 -43 -2 -3 5 -11 6 -17 3 -7 -4 -2 4 10 17 19 21
24 34 32 78 2 11 16 -13 17 -30z"/>
<path fill="#ffffff" stroke="none" d="M170 134 c0 -30 -20 -54 -47 -54 -25 0
-25 1 -10 18 10 10 17 26 17 35 0 10 8 17 20 17 11 0 20 -7 20 -16z"/>
<path fill="#ffffff" stroke="none" d="M205 69 c-2 -28 -6 -53 -10 -57 -9 -9
-25 19 -25 43 0 18 25 65 35 65 1 0 2 -23 0 -51z"/>
<path fill="#ffffff" stroke="none" d="M290 61 c0 -13 -7 -18 -25 -18 -14 0
-25 4 -25 9 0 7 26 22 48 27 1 1 2 -7 2 -18z"/>
<path fill="#ffffff" stroke="none" d="M100 40 c0 -5 -4 -10 -10 -10 -5 0 -10
5 -10 10 0 6 5 10 10 10 6 0 10 -4 10 -10z"/>
<path fill="#ffffff" stroke="none" d="M130 40 c0 -5 -4 -10 -10 -10 -5 0 -10
5 -10 10 0 6 5 10 10 10 6 0 10 -4 10 -10z"/>
<path fill="#ffffff" stroke="none" d="M170 20 c0 -5 -4 -10 -10 -10 -5 0 -10
5 -10 10 0 6 5 10 10 10 6 0 10 -4 10 -10z"/>
<path fill="#000000" stroke="none" d="M140 265 c-7 -9 -11 -17 -9 -20 3 -2
10 5 17 15 14 24 10 26 -8 5z"/>
<path fill="#000000" stroke="none" d="M94 199 c-3 -6 -1 -16 4 -21 13 -13 45
8 36 23 -7 12 -31 11 -40 -2z"/>
<path fill="#000000" stroke="none" d="M273 135 c0 -8 4 -12 9 -9 5 3 6 10 3
15 -9 13 -12 11 -12 -6z"/>
</g>
</svg>
