<?xml version="1.0" standalone="no"?>
<!DOCTYPE svg PUBLIC "-//W3C//DTD SVG 20010904//EN"
 "http://www.w3.org/TR/2001/REC-SVG-20010904/DTD/svg10.dtd">
<svg version="1.0" xmlns="http://www.w3.org/2000/svg"
 width="32.000000pt" height="32.000000pt" viewBox="0 0 32.000000 32.000000"
 preserveAspectRatio="xMidYMid meet">
<metadata>
Created by potrace 1.16, written by Peter Selinger 2001-2019
</metadata>
<g transform="translate(0.000000,32.000000) scale(0.100000,-0.100000)"
fill="#000000" stroke="none">
<path fill="#000000" stroke="none" d="M58 283 c-7 -29 3 -55 17 -49 10 3 12
0 8 -12 -4 -13 -2 -12 10 3 14 18 14 22 -4 41 -10 11 -16 24 -12 27 3 4 2 7
-4 7 -6 0 -13 -8 -15 -17z"/>
<path fill="#000000" stroke="none" d="M20 257 c0 -19 16 -31 24 -18 3 5 -1
14 -9 21 -12 10 -15 10 -15 -3z"/>
<path fill="#000000" stroke="none" d="M145 259 c-11 -16 -1 -19 13 -3 7 8 8
14 3 14 -5 0 -13 -5 -16 -11z"/>
<path fill="#000000" stroke="none" d="M176 224 c-3 -9 -2 -22 2 -30 7 -13 10
-13 20 -1 12 15 7 47 -8 47 -4 0 -11 -7 -14 -16z"/>
<path fill="#000000" stroke="none" d="M60 152 c0 -5 7 -9 15 -9 8 0 15 4 15
9 0 4 -7 8 -15 8 -8 0 -15 -4 -15 -8z"/>
<path fill="#000000" stroke="none" d="M128 128 c-2 -16 -17 -30 -48 -45 l-44
-23 36 0 c44 0 90 34 86 63 -4 29 -26 33 -30 5z"/>
<path fill="#000000" stroke="none" d="M235 40 c-3 -4 7 -7 20 -7 14 0 27 3
30 7 3 4 -7 8 -20 8 -14 0 -27 -4 -30 -8z"/>
<path fill="#000000" stroke="none" d="M145 20 c-3 -4 7 -7 20 -7 14 0 27 3
30 7 3 4 -7 8 -20 8 -14 0 -27 -4 -30 -8z"/>
</g>
</svg>
