<?xml version="1.0" standalone="no"?>
<!DOCTYPE svg PUBLIC "-//W3C//DTD SVG 20010904//EN"
 "http://www.w3.org/TR/2001/REC-SVG-20010904/DTD/svg10.dtd">
<svg version="1.0" xmlns="http://www.w3.org/2000/svg"
 width="32.000000pt" height="32.000000pt" viewBox="0 0 32.000000 32.000000"
 preserveAspectRatio="xMidYMid meet">
<metadata>
Created by potrace 1.16, written by Peter Selinger 2001-2019
</metadata>
<g transform="translate(0.000000,32.000000) scale(0.100000,-0.100000)"
fill="#000000" stroke="none">
<path fill="#000000" stroke="none" d="M0 297 c0 -2 7 -18 16 -36 12 -25 14
-38 5 -63 -14 -39 -14 -61 -1 -53 6 3 10 1 10 -6 0 -7 3 -9 7 -6 3 4 16 -17
27 -46 l21 -52 60 -3 c72 -3 119 18 152 67 13 19 23 37 23 41 0 18 -32 18 -81
0 -49 -18 -54 -18 -71 -4 -9 9 -20 25 -23 35 -4 11 -19 26 -35 34 -28 15 -29
16 -14 50 16 40 17 45 6 45 -5 0 -17 -19 -26 -42 l-18 -43 -21 43 c-11 23 -25
42 -29 42 -4 0 -8 -2 -8 -3z"/>
</g>
</svg>
