<?xml version="1.0" standalone="no"?>
<!DOCTYPE svg PUBLIC "-//W3C//DTD SVG 20010904//EN"
 "http://www.w3.org/TR/2001/REC-SVG-20010904/DTD/svg10.dtd">
<svg version="1.0" xmlns="http://www.w3.org/2000/svg"
 width="32.000000pt" height="32.000000pt" viewBox="0 0 32.000000 32.000000"
 preserveAspectRatio="xMidYMid meet">
<metadata>
Created by potrace 1.16, written by Peter Selinger 2001-2019
</metadata>
<g transform="translate(0.000000,32.000000) scale(0.100000,-0.100000)"
fill="#000000" stroke="none">
<path fill="#000000" stroke="none" d="M70 300 c-11 -7 -6 -10 22 -10 53 0 67
-8 60 -33 -4 -18 -3 -20 9 -10 12 9 14 4 14 -30 1 -81 25 -126 40 -74 3 12 11
32 17 44 9 19 6 28 -16 58 -15 19 -33 35 -40 35 -8 0 -19 7 -26 15 -14 17 -57
20 -80 5z"/>
<path fill="#000000" stroke="none" d="M40 255 c0 -14 7 -28 15 -31 18 -7 45
13 42 29 -1 7 6 11 15 9 9 -1 19 1 22 6 3 5 -17 10 -44 11 -47 1 -50 0 -50
-24z"/>
<path fill="#000000" stroke="none" d="M240 266 c0 -2 8 -10 18 -17 15 -13 16
-12 3 4 -13 16 -21 21 -21 13z"/>
<path fill="#000000" stroke="none" d="M12 220 c0 -14 2 -19 5 -12 2 6 2 18 0
25 -3 6 -5 1 -5 -13z"/>
<path fill="#000000" stroke="none" d="M85 220 c-4 -7 -16 -10 -26 -7 -23 6
-25 -8 -2 -17 17 -7 52 18 41 29 -3 4 -9 1 -13 -5z"/>
<path fill="#000000" stroke="none" d="M115 220 c3 -5 8 -10 11 -10 2 0 4 5 4
10 0 6 -5 10 -11 10 -5 0 -7 -4 -4 -10z"/>
<path fill="#000000" stroke="none" d="M275 210 c2 -27 15 -38 15 -12 0 11 -4
23 -8 26 -5 3 -8 -4 -7 -14z"/>
<path fill="#000000" stroke="none" d="M127 182 c-20 -22 -22 -36 -4 -29 10 4
13 -2 9 -19 -2 -13 -8 -27 -13 -30 -5 -3 -9 -2 -8 3 4 23 -3 33 -26 33 -29 0
-33 -15 -7 -29 10 -6 12 -11 4 -11 -7 0 -11 -4 -8 -9 3 -5 0 -11 -8 -14 -10
-4 -12 0 -8 15 4 16 2 19 -8 13 -8 -5 -18 -1 -27 10 -12 18 -13 17 -13 -7 0
-15 5 -30 10 -33 6 -4 8 -11 5 -16 -3 -5 1 -6 9 -3 10 4 16 1 16 -7 0 -7 9 -4
24 10 16 15 25 19 28 10 6 -18 34 -4 54 26 14 22 15 31 5 46 -6 11 -9 24 -6
29 4 6 1 10 -5 10 -6 0 -8 5 -5 10 10 16 -1 11 -18 -8z"/>
<path fill="#000000" stroke="none" d="M58 168 c2 -11 13 -18 26 -17 20 0 20
1 1 9 -11 5 -14 9 -7 9 20 1 14 17 -7 17 -12 0 -17 -6 -13 -18z"/>
<path fill="#000000" stroke="none" d="M256 146 c-8 -29 -7 -31 4 -31 6 0 10
5 11 10 1 6 5 17 9 26 6 11 5 16 -5 16 -7 0 -16 -10 -19 -21z"/>
<path fill="#000000" stroke="none" d="M245 49 c-4 -6 -4 -13 0 -17 3 -3 10 0
15 8 7 10 10 11 10 3 0 -7 5 -13 10 -13 6 0 10 7 10 15 0 17 -35 20 -45 4z"/>
<path fill="#000000" stroke="none" d="M80 40 c0 -5 5 -10 10 -10 6 0 10 5 10
10 0 6 -4 10 -10 10 -5 0 -10 -4 -10 -10z"/>
<path fill="#000000" stroke="none" d="M110 40 c0 -5 5 -10 10 -10 6 0 10 5
10 10 0 6 -4 10 -10 10 -5 0 -10 -4 -10 -10z"/>
<path fill="#000000" stroke="none" d="M160 30 c-8 -5 -11 -12 -7 -17 5 -4 12
-1 17 7 7 10 10 11 10 3 0 -7 5 -13 11 -13 13 0 7 22 -7 27 -5 1 -16 -2 -24
-7z"/>
</g>
</svg>
