<?xml version="1.0" standalone="no"?>
<!DOCTYPE svg PUBLIC "-//W3C//DTD SVG 20010904//EN"
 "http://www.w3.org/TR/2001/REC-SVG-20010904/DTD/svg10.dtd">
<svg version="1.0" xmlns="http://www.w3.org/2000/svg"
 width="32.000000pt" height="32.000000pt" viewBox="0 0 32.000000 32.000000"
 preserveAspectRatio="xMidYMid meet">
<metadata>
Created by potrace 1.16, written by Peter Selinger 2001-2019
</metadata>
<g transform="translate(0.000000,32.000000) scale(0.100000,-0.100000)"
fill="#000000" stroke="none">
<path fill="#000000" stroke="none" d="M0 160 l0 -160 160 0 160 0 0 160 0
160 -160 0 -160 0 0 -160z"/>
<path fill="#ffffff" stroke="none" d="M260 285 c11 -10 20 -25 20 -33 0 -9
-3 -12 -7 -9 -3 4 -13 -2 -20 -13 -8 -11 -19 -18 -24 -15 -5 4 -9 -1 -9 -10 0
-11 5 -15 15 -11 8 3 21 8 28 11 7 3 21 -2 32 -10 20 -16 20 -16 -1 -6 -14 7
-32 6 -59 -3 -42 -15 -32 -31 13 -21 18 3 34 0 47 -10 19 -16 19 -16 -3 -5
-14 7 -34 8 -55 2 -17 -5 -39 -7 -47 -4 -11 4 -11 2 2 -11 9 -10 22 -17 28
-17 6 0 24 -10 40 -22 38 -28 40 -65 4 -78 -39 -15 -53 -11 -21 6 15 8 27 21
27 29 0 19 -14 19 -30 0 -7 -9 -15 -13 -18 -10 -3 3 3 14 13 25 18 19 17 20
-18 35 -46 19 -43 19 -51 -7 -7 -22 -7 -22 -15 -3 l-8 20 -6 -20 -5 -20 -6 20
c-9 25 -68 32 -86 10 -10 -12 -10 -15 3 -15 8 0 20 -6 26 -14 9 -11 6 -12 -14
-8 -31 5 -33 -12 -3 -32 22 -15 22 -16 2 -16 -27 0 -44 19 -44 49 0 35 28 61
66 61 18 0 35 4 39 9 9 15 -32 23 -57 11 -22 -11 -22 -11 -3 5 12 9 29 14 43
10 12 -3 22 -1 22 4 0 15 -30 21 -53 10 -20 -9 -20 -9 -5 4 10 8 15 17 12 20
-3 3 3 10 13 15 13 7 24 6 37 -3 16 -12 26 -11 68 5 61 23 61 24 54 48 -9 28
-103 30 -136 2 -24 -21 -70 -27 -70 -9 0 5 4 8 9 5 5 -3 29 5 53 19 51 30 125
30 158 0z"/>
<path fill="#ffffff" stroke="none" d="M290 124 c16 -10 18 -13 5 -8 -11 4
-36 10 -55 14 -34 8 -34 8 -5 8 17 1 41 -6 55 -14z"/>
<path fill="#000000" stroke="none" d="M91 211 c-8 -5 -3 -11 13 -19 14 -6 27
-8 30 -4 7 12 -29 31 -43 23z"/>
</g>
</svg>
