<?xml version="1.0" standalone="no"?>
<!DOCTYPE svg PUBLIC "-//W3C//DTD SVG 20010904//EN"
 "http://www.w3.org/TR/2001/REC-SVG-20010904/DTD/svg10.dtd">
<svg version="1.0" xmlns="http://www.w3.org/2000/svg"
 width="32.000000pt" height="32.000000pt" viewBox="0 0 32.000000 32.000000"
 preserveAspectRatio="xMidYMid meet">
<metadata>
Created by potrace 1.16, written by Peter Selinger 2001-2019
</metadata>
<g transform="translate(0.000000,32.000000) scale(0.100000,-0.100000)"
fill="#000000" stroke="none">
<path fill="#000000" stroke="none" d="M0 160 l0 -160 160 0 160 0 0 160 0
160 -160 0 -160 0 0 -160z"/>
<path fill="#ffffff" stroke="none" d="M145 300 c-3 -5 -12 -10 -18 -10 -7 0
-6 4 3 10 19 12 23 12 15 0z"/>
<path fill="#ffffff" stroke="none" d="M180 306 c0 -3 -4 -8 -10 -11 -5 -3
-10 -1 -10 4 0 6 5 11 10 11 6 0 10 -2 10 -4z"/>
<path fill="#ffffff" stroke="none" d="M235 300 c13 -5 14 -9 5 -9 -8 0 -24 4
-35 9 -13 5 -14 9 -5 9 8 0 24 -4 35 -9z"/>
<path fill="#ffffff" stroke="none" d="M100 265 c-14 -17 -60 -21 -60 -5 0 5
6 7 14 4 8 -3 17 -1 21 5 3 6 13 11 22 11 13 0 13 -3 3 -15z"/>
<path fill="#ffffff" stroke="none" d="M270 266 c0 -8 -4 -18 -10 -21 -5 -3
-10 3 -10 14 0 12 5 21 10 21 6 0 10 -6 10 -14z"/>
<path fill="#ffffff" stroke="none" d="M219 212 c-13 -9 -32 -15 -43 -14 -16
3 -16 2 -5 -11 8 -8 19 -12 24 -9 6 3 6 1 2 -3 -4 -5 -20 -11 -35 -13 -37 -5
-41 -12 -6 -12 19 0 24 -3 16 -8 -7 -5 -10 -16 -6 -25 7 -20 -6 -22 -25 -4
-11 10 -13 10 -7 0 4 -7 2 -13 -3 -13 -20 0 -16 68 5 90 15 15 96 49 103 43 3
-2 -6 -11 -20 -21z"/>
<path fill="#ffffff" stroke="none" d="M73 123 c-28 -6 -53 -33 -29 -33 9 0
16 -4 16 -10 0 -5 -7 -10 -15 -10 -17 0 -20 -16 -5 -25 6 -4 8 -11 4 -16 -3
-5 -10 -7 -15 -3 -5 3 -7 9 -4 14 3 5 1 11 -5 15 -30 19 8 76 49 74 23 -2 23
-2 4 -6z"/>
<path fill="#ffffff" stroke="none" d="M270 76 c10 -20 11 -29 2 -38 -8 -8 -9
-5 -5 11 6 24 -9 28 -27 6 -7 -9 -15 -13 -18 -10 -3 3 3 14 13 25 18 20 18 21
-1 36 -18 15 -18 15 1 5 12 -5 27 -21 35 -35z"/>
</g>
</svg>
