<?xml version="1.0" standalone="no"?>
<!DOCTYPE svg PUBLIC "-//W3C//DTD SVG 20010904//EN"
 "http://www.w3.org/TR/2001/REC-SVG-20010904/DTD/svg10.dtd">
<svg version="1.0" xmlns="http://www.w3.org/2000/svg"
 width="32.000000pt" height="32.000000pt" viewBox="0 0 32.000000 32.000000"
 preserveAspectRatio="xMidYMid meet">
<metadata>
Created by potrace 1.16, written by Peter Selinger 2001-2019
</metadata>
<g transform="translate(0.000000,32.000000) scale(0.100000,-0.100000)"
fill="#000000" stroke="none">
<path fill="#000000" stroke="none" d="M0 160 l0 -160 160 0 160 0 0 160 0
160 -160 0 -160 0 0 -160z"/>
<path fill="#ffffff" stroke="none" d="M89 296 c44 -23 69 -100 35 -113 -10
-3 -27 7 -48 31 -19 20 -32 36 -29 36 2 0 -3 7 -11 16 -39 38 -3 58 53 30z"/>
<path fill="#ffffff" stroke="none" d="M307 243 c2 -6 -18 -18 -49 -27 -50
-16 -152 -65 -135 -66 4 0 -1 -10 -12 -22 -11 -11 -18 -26 -14 -31 3 -6 1 -7
-6 -3 -9 6 -9 11 0 22 6 8 8 14 5 14 -15 0 91 103 119 116 35 16 87 14 92 -3z"/>
<path fill="#ffffff" stroke="none" d="M82 176 c3 3 9 0 14 -7 4 -8 3 -10 -4
-5 -7 4 -12 2 -12 -6 0 -7 -7 -2 -16 10 -8 12 -20 19 -26 16 -7 -5 -8 -2 -4 5
6 9 12 9 25 -3 10 -9 20 -13 23 -10z"/>
<path fill="#ffffff" stroke="none" d="M233 148 l24 -23 -27 -2 c-16 -1 -34 4
-40 12 -7 8 -16 12 -21 9 -5 -3 -9 -3 -9 1 0 4 25 17 47 24 1 1 13 -9 26 -21z"/>
<path fill="#ffffff" stroke="none" d="M274 160 c14 -5 26 -17 26 -25 0 -9 -5
-13 -10 -10 -6 4 -7 11 -4 17 5 7 1 9 -9 5 -10 -3 -17 -2 -17 3 0 5 -8 11 -17
13 -10 3 -13 5 -6 6 6 0 23 -3 37 -9z"/>
<path fill="#ffffff" stroke="none" d="M146 113 c-10 -10 -19 5 -10 18 6 11 8
11 12 0 2 -7 1 -15 -2 -18z"/>
<path fill="#ffffff" stroke="none" d="M166 93 c-10 -10 -19 5 -10 18 6 11 8
11 12 0 2 -7 1 -15 -2 -18z"/>
<path fill="#ffffff" stroke="none" d="M190 82 c0 -10 -7 -19 -14 -19 -11 0
-13 5 -5 19 5 10 12 18 14 18 3 0 5 -8 5 -18z"/>
<path fill="#000000" stroke="none" d="M70 262 c0 -5 7 -15 15 -22 8 -7 15 -8
15 -2 0 5 -7 15 -15 22 -8 7 -15 8 -15 2z"/>
<path fill="#000000" stroke="none" d="M234 235 c-10 -8 -14 -15 -8 -15 6 0
17 7 24 15 16 19 9 19 -16 0z"/>
<path fill="#000000" stroke="none" d="M195 150 c-7 -11 22 -26 32 -16 4 3 -1
6 -11 6 -9 0 -14 5 -11 10 3 6 4 10 1 10 -3 0 -8 -5 -11 -10z"/>
</g>
</svg>
