<?xml version="1.0" standalone="no"?>
<!DOCTYPE svg PUBLIC "-//W3C//DTD SVG 20010904//EN"
 "http://www.w3.org/TR/2001/REC-SVG-20010904/DTD/svg10.dtd">
<svg version="1.0" xmlns="http://www.w3.org/2000/svg"
 width="32.000000pt" height="32.000000pt" viewBox="0 0 32.000000 32.000000"
 preserveAspectRatio="xMidYMid meet">
<metadata>
Created by potrace 1.16, written by Peter Selinger 2001-2019
</metadata>
<g transform="translate(0.000000,32.000000) scale(0.100000,-0.100000)"
fill="#000000" stroke="none">
<path fill="#000000" stroke="none" d="M71 256 c-24 -25 -34 -45 -36 -77 -4
-41 -1 -36 11 18 2 13 18 38 35 58 40 45 33 46 -10 1z"/>
<path fill="#000000" stroke="none" d="M131 235 c-17 -20 -31 -39 -31 -43 0
-4 12 8 26 25 14 18 33 37 42 43 9 5 12 10 6 10 -7 0 -26 -16 -43 -35z"/>
<path fill="#000000" stroke="none" d="M185 125 l-30 -14 29 4 c29 4 43 12 35
19 -2 2 -17 -2 -34 -9z"/>
</g>
</svg>
