<?xml version="1.0" standalone="no"?>
<!DOCTYPE svg PUBLIC "-//W3C//DTD SVG 20010904//EN"
 "http://www.w3.org/TR/2001/REC-SVG-20010904/DTD/svg10.dtd">
<svg version="1.0" xmlns="http://www.w3.org/2000/svg"
 width="32.000000pt" height="32.000000pt" viewBox="0 0 32.000000 32.000000"
 preserveAspectRatio="xMidYMid meet">
<metadata>
Created by potrace 1.16, written by Peter Selinger 2001-2019
</metadata>
<g transform="translate(0.000000,32.000000) scale(0.100000,-0.100000)"
fill="#000000" stroke="none">
<path fill="#000000" stroke="none" d="M28 283 c7 -3 16 -2 19 1 4 3 -2 6 -13
5 -11 0 -14 -3 -6 -6z"/>
<path fill="#000000" stroke="none" d="M22 253 c-16 -30 15 -83 47 -83 11 1 7
7 -12 22 -23 17 -27 25 -22 49 7 32 0 38 -13 12z"/>
<path fill="#000000" stroke="none" d="M185 239 c-12 -19 16 -49 45 -49 49 0
36 40 -17 53 -13 3 -25 1 -28 -4z"/>
<path fill="#000000" stroke="none" d="M106 181 c-7 -11 52 -26 62 -16 8 8
-18 25 -40 25 -9 0 -19 -4 -22 -9z"/>
<path fill="#000000" stroke="none" d="M105 150 c3 -5 8 -10 11 -10 2 0 4 5 4
10 0 6 -5 10 -11 10 -5 0 -7 -4 -4 -10z"/>
<path fill="#000000" stroke="none" d="M140 136 c0 -8 -6 -17 -12 -19 -8 -3
-8 -6 -2 -6 6 -1 19 8 29 19 16 18 16 20 2 20 -10 0 -17 -6 -17 -14z"/>
</g>
</svg>
