<?xml version="1.0" standalone="no"?>
<!DOCTYPE svg PUBLIC "-//W3C//DTD SVG 20010904//EN"
 "http://www.w3.org/TR/2001/REC-SVG-20010904/DTD/svg10.dtd">
<svg version="1.0" xmlns="http://www.w3.org/2000/svg"
 width="32.000000pt" height="32.000000pt" viewBox="0 0 32.000000 32.000000"
 preserveAspectRatio="xMidYMid meet">
<metadata>
Created by potrace 1.16, written by Peter Selinger 2001-2019
</metadata>
<g transform="translate(0.000000,32.000000) scale(0.100000,-0.100000)"
fill="#000000" stroke="none">
<path fill="#000000" stroke="none" d="M203 295 c-24 -17 -33 -42 -10 -28 15
9 34 14 67 16 14 1 25 7 25 12 0 17 -59 17 -82 0z"/>
<path fill="#000000" stroke="none" d="M185 230 c-3 -6 1 -7 9 -4 18 7 21 14
7 14 -6 0 -13 -4 -16 -10z"/>
<path fill="#000000" stroke="none" d="M20 195 c-9 -10 -9 -15 -1 -15 6 0 11
5 11 11 0 6 9 9 20 6 11 -3 18 -1 14 4 -8 14 -30 11 -44 -6z"/>
<path fill="#000000" stroke="none" d="M97 193 c-12 -15 -13 -20 -2 -30 13
-12 25 -7 25 9 0 5 -5 6 -12 2 -7 -4 -8 -3 -4 5 4 6 15 10 23 9 9 -2 18 3 20
10 7 18 -32 15 -50 -5z"/>
<path fill="#000000" stroke="none" d="M206 184 c-3 -8 -2 -12 4 -9 6 3 15 -6
20 -20 6 -15 19 -29 30 -32 18 -5 24 -14 22 -34 -1 -3 5 -6 13 -6 22 0 1 42
-23 45 -21 3 -38 34 -28 51 3 5 -1 12 -10 15 -21 8 -21 8 -28 -10z"/>
<path fill="#000000" stroke="none" d="M155 130 c-4 -12 -1 -28 6 -36 10 -12
8 -20 -9 -44 -25 -34 -27 -41 -10 -38 19 4 48 55 48 82 0 51 -23 74 -35 36z"/>
<path fill="#000000" stroke="none" d="M35 130 c-3 -5 -3 -10 1 -10 4 0 -1 -9
-11 -20 -15 -17 -16 -23 -5 -33 8 -7 11 -8 7 -1 -4 7 3 14 18 18 14 4 24 10
21 15 -3 4 5 6 18 4 33 -7 40 10 10 24 -16 7 -24 8 -24 1 0 -7 -5 -6 -14 1
-10 8 -16 9 -21 1z"/>
<path fill="#000000" stroke="none" d="M206 92 c-3 -5 1 -9 9 -9 8 0 15 4 15
9 0 4 -4 8 -9 8 -6 0 -12 -4 -15 -8z"/>
<path fill="#000000" stroke="none" d="M53 64 c-7 -7 -13 -19 -13 -26 0 -7 7
-2 16 10 18 26 16 37 -3 16z"/>
</g>
</svg>
