<?xml version="1.0" standalone="no"?>
<!DOCTYPE svg PUBLIC "-//W3C//DTD SVG 20010904//EN"
 "http://www.w3.org/TR/2001/REC-SVG-20010904/DTD/svg10.dtd">
<svg version="1.0" xmlns="http://www.w3.org/2000/svg"
 width="32.000000pt" height="32.000000pt" viewBox="0 0 32.000000 32.000000"
 preserveAspectRatio="xMidYMid meet">
<metadata>
Created by potrace 1.16, written by Peter Selinger 2001-2019
</metadata>
<g transform="translate(0.000000,32.000000) scale(0.100000,-0.100000)"
fill="#000000" stroke="none">
<path fill="#000000" stroke="none" d="M0 160 l0 -160 160 0 160 0 0 160 0
160 -160 0 -160 0 0 -160z"/>
<path fill="#ffffff" stroke="none" d="M285 295 c0 -5 -11 -11 -25 -12 -33 -2
-52 -7 -67 -16 -23 -14 -14 11 10 28 23 17 82 17 82 0z"/>
<path fill="#ffffff" stroke="none" d="M210 236 c0 -2 -7 -7 -16 -10 -8 -3
-12 -2 -9 4 6 10 25 14 25 6z"/>
<path fill="#ffffff" stroke="none" d="M64 201 c4 -5 -3 -7 -14 -4 -11 3 -20
0 -20 -6 0 -6 -5 -11 -11 -11 -8 0 -8 5 1 15 14 17 36 20 44 6z"/>
<path fill="#ffffff" stroke="none" d="M147 198 c-2 -7 -11 -12 -20 -10 -8 1
-19 -3 -23 -9 -4 -8 -3 -9 4 -5 7 4 12 3 12 -2 0 -16 -12 -21 -25 -9 -11 10
-10 15 2 30 18 20 57 23 50 5z"/>
<path fill="#ffffff" stroke="none" d="M234 194 c9 -3 13 -10 10 -15 -10 -17
7 -48 28 -51 24 -3 45 -45 23 -45 -8 0 -14 3 -13 6 2 20 -4 29 -22 34 -11 3
-24 17 -30 32 -5 14 -14 23 -20 20 -6 -3 -7 1 -4 9 7 18 7 18 28 10z"/>
<path fill="#ffffff" stroke="none" d="M184 134 c16 -41 -10 -115 -42 -122
-17 -3 -15 4 10 38 17 24 19 32 9 44 -13 15 -6 56 9 56 4 0 11 -7 14 -16z"/>
<path fill="#ffffff" stroke="none" d="M70 128 c0 7 8 6 24 -1 30 -14 23 -31
-10 -24 -13 2 -21 0 -18 -4 3 -5 -7 -11 -21 -15 -15 -4 -22 -11 -18 -18 4 -7
1 -6 -7 1 -11 10 -10 16 5 33 10 11 15 20 11 20 -4 0 -4 5 -1 10 5 8 11 7 21
-1 9 -7 14 -8 14 -1z"/>
<path fill="#ffffff" stroke="none" d="M230 92 c0 -5 -7 -9 -15 -9 -8 0 -12 4
-9 9 3 4 9 8 15 8 5 0 9 -4 9 -8z"/>
<path fill="#ffffff" stroke="none" d="M56 48 c-9 -12 -16 -17 -16 -10 0 14
23 42 29 37 1 -2 -4 -14 -13 -27z"/>
</g>
</svg>
