<?xml version="1.0" standalone="no"?>
<!DOCTYPE svg PUBLIC "-//W3C//DTD SVG 20010904//EN"
 "http://www.w3.org/TR/2001/REC-SVG-20010904/DTD/svg10.dtd">
<svg version="1.0" xmlns="http://www.w3.org/2000/svg"
 width="32.000000pt" height="32.000000pt" viewBox="0 0 32.000000 32.000000"
 preserveAspectRatio="xMidYMid meet">
<metadata>
Created by potrace 1.16, written by Peter Selinger 2001-2019
</metadata>
<g transform="translate(0.000000,32.000000) scale(0.100000,-0.100000)"
fill="#000000" stroke="none">
<path fill="#000000" stroke="none" d="M0 160 l0 -160 160 0 160 0 0 160 0
160 -160 0 -160 0 0 -160z"/>
<path fill="#ffffff" stroke="none" d="M303 268 c6 -8 7 -24 2 -34 -4 -11 -9
-45 -9 -77 -1 -37 -7 -63 -18 -73 -14 -14 -16 -12 -23 18 -4 18 -9 27 -12 20
-2 -6 -9 -10 -14 -6 -5 3 -9 -4 -9 -15 0 -11 -5 -32 -11 -48 l-11 -28 -10 27
c-11 31 -12 31 -85 28 -28 -1 -61 3 -72 9 -30 17 -27 49 6 57 23 6 24 8 9 19
-15 11 -14 14 6 28 13 8 38 29 55 46 41 39 105 43 147 10 21 -17 30 -19 39
-10 9 9 8 11 -5 6 -20 -8 -25 10 -7 21 8 4 7 9 -2 16 -12 8 -11 9 0 6 8 -2 19
-11 24 -20z"/>
<path fill="#ffffff" stroke="none" d="M100 66 c0 -3 -4 -8 -10 -11 -5 -3 -10
-1 -10 4 0 6 5 11 10 11 6 0 10 -2 10 -4z"/>
<path fill="#000000" stroke="none" d="M128 153 c6 -2 18 -2 25 0 6 3 1 5 -13
5 -14 0 -19 -2 -12 -5z"/>
</g>
</svg>
