<?xml version="1.0" standalone="no"?>
<!DOCTYPE svg PUBLIC "-//W3C//DTD SVG 20010904//EN"
 "http://www.w3.org/TR/2001/REC-SVG-20010904/DTD/svg10.dtd">
<svg version="1.0" xmlns="http://www.w3.org/2000/svg"
 width="32.000000pt" height="32.000000pt" viewBox="0 0 32.000000 32.000000"
 preserveAspectRatio="xMidYMid meet">
<metadata>
Created by potrace 1.16, written by Peter Selinger 2001-2019
</metadata>
<g transform="translate(0.000000,32.000000) scale(0.100000,-0.100000)"
fill="#000000" stroke="none">
<path fill="#000000" stroke="none" d="M0 160 l0 -160 160 0 160 0 0 160 0
160 -160 0 -160 0 0 -160z"/>
<path fill="#ffffff" stroke="none" d="M180 297 c0 -7 -7 -22 -15 -33 -25 -33
-17 -34 48 -4 63 30 97 38 97 21 0 -15 -91 -61 -121 -61 -27 0 -28 -2 -17 -25
6 -14 14 -25 17 -25 3 0 7 -24 8 -53 l2 -52 -14 48 c-20 71 -26 69 -19 -4 4
-35 4 -61 0 -58 -4 4 -8 39 -10 80 -2 48 -8 75 -16 77 -8 3 -10 0 -6 -7 4 -7
4 -20 0 -29 -4 -9 -6 -28 -5 -42 1 -24 0 -23 -12 5 -8 17 -11 32 -8 35 8 7 7
37 -2 46 -4 4 -7 1 -7 -6 0 -15 -29 -50 -42 -50 -12 0 -10 48 4 70 10 16 10
24 -1 43 -13 20 -13 21 2 8 10 -7 17 -22 17 -32 0 -34 32 -17 63 34 18 29 37
36 37 14z"/>
<path fill="#ffffff" stroke="none" d="M270 165 c7 -8 13 -29 14 -47 1 -26 -3
-33 -19 -35 l-20 -3 20 9 c19 9 19 10 1 10 -20 1 -20 1 0 16 18 13 18 14 -6 8
l-25 -6 20 24 c15 17 15 20 3 10 -21 -16 -48 -8 -48 14 0 20 43 20 60 0z"/>
<path fill="#ffffff" stroke="none" d="M270 67 c0 -2 -11 -14 -25 -27 l-25
-23 13 26 c6 15 18 27 25 27 6 0 12 -1 12 -3z"/>
</g>
</svg>
