<?xml version="1.0" standalone="no"?>
<!DOCTYPE svg PUBLIC "-//W3C//DTD SVG 20010904//EN"
 "http://www.w3.org/TR/2001/REC-SVG-20010904/DTD/svg10.dtd">
<svg version="1.0" xmlns="http://www.w3.org/2000/svg"
 width="32.000000pt" height="32.000000pt" viewBox="0 0 32.000000 32.000000"
 preserveAspectRatio="xMidYMid meet">
<metadata>
Created by potrace 1.16, written by Peter Selinger 2001-2019
</metadata>
<g transform="translate(0.000000,32.000000) scale(0.100000,-0.100000)"
fill="#000000" stroke="none">
<path fill="#000000" stroke="none" d="M264 259 c-3 -6 -1 -16 5 -22 15 -15
14 -40 -1 -31 -31 19 -245 46 -254 33 -13 -22 -13 -83 0 -98 26 -30 28 -59 7
-89 -15 -22 -17 -29 -6 -29 8 0 13 3 12 6 0 3 6 19 14 35 11 19 18 25 24 17 4
-7 0 -20 -9 -30 -24 -27 -19 -33 14 -16 38 19 61 20 54 0 -4 -8 -12 -15 -19
-15 -8 0 -16 -4 -19 -9 -4 -5 2 -8 11 -7 10 1 26 19 37 40 12 25 22 34 28 28
11 -11 1 -55 -11 -48 -4 3 -8 -1 -8 -9 0 -21 10 -19 37 10 24 26 70 34 70 13
0 -9 3 -9 8 -2 4 6 15 14 26 17 14 6 17 4 12 -9 -5 -14 -4 -15 9 -4 19 16 19
37 0 74 -14 26 -14 31 0 52 19 30 19 54 -1 82 -17 24 -29 28 -40 11z"/>
<path fill="#ffffff" stroke="none" d="M302 234 c10 -22 10 -28 -6 -39 -10 -8
-15 -19 -11 -25 4 -7 2 -16 -6 -20 -10 -7 -10 -11 0 -24 8 -9 10 -16 6 -16 -4
0 -2 -7 5 -15 12 -14 9 -18 -7 -12 -5 1 -7 6 -5 11 2 5 -8 6 -22 4 -14 -3 -23
-2 -21 3 3 4 0 11 -6 14 -6 4 -8 18 -4 32 4 18 2 24 -7 21 -7 -3 -13 -10 -13
-15 0 -18 -12 -25 -21 -12 -5 8 -3 10 6 4 9 -5 11 -4 6 4 -6 9 -11 9 -21 1 -9
-8 -15 -8 -20 0 -3 5 -11 10 -18 10 -8 0 -8 -3 1 -12 13 -13 16 -60 5 -71 -3
-4 -14 0 -24 9 -10 9 -30 17 -44 17 -14 0 -28 4 -32 10 -4 6 0 8 10 4 10 -3
17 -3 17 2 0 5 9 11 21 14 11 3 23 15 26 26 3 12 9 21 14 21 5 0 9 5 9 11 0 5
-5 7 -12 3 -6 -4 -17 1 -25 12 -12 17 -14 17 -30 1 -20 -20 -10 -35 12 -17 12
10 16 9 21 -4 3 -9 4 -22 1 -30 -8 -20 -64 -31 -82 -16 -16 13 -21 45 -6 35 5
-3 12 -1 16 5 3 5 1 10 -6 10 -10 0 -10 3 -1 12 7 7 12 17 12 22 0 6 -5 4 -10
-4 -8 -13 -10 -12 -10 4 0 18 1 18 48 -1 6 -3 12 0 12 6 0 15 15 14 32 -1 12
-12 40 -17 108 -19 14 0 33 -5 43 -10 21 -12 36 16 18 34 -14 14 -14 27 -1 27
6 0 16 -12 22 -26z"/>
<path fill="#ffffff" stroke="none" d="M110 80 c0 -5 -7 -10 -16 -10 -8 0 -12
5 -9 10 3 6 10 10 16 10 5 0 9 -4 9 -10z"/>
<path fill="#000000" stroke="none" d="M34 148 c10 -6 22 -6 26 -2 5 5 -3 10
-18 11 -22 1 -24 0 -8 -9z"/>
</g>
</svg>
