<?xml version="1.0" standalone="no"?>
<!DOCTYPE svg PUBLIC "-//W3C//DTD SVG 20010904//EN"
 "http://www.w3.org/TR/2001/REC-SVG-20010904/DTD/svg10.dtd">
<svg version="1.0" xmlns="http://www.w3.org/2000/svg"
 width="32.000000pt" height="32.000000pt" viewBox="0 0 32.000000 32.000000"
 preserveAspectRatio="xMidYMid meet">
<metadata>
Created by potrace 1.16, written by Peter Selinger 2001-2019
</metadata>
<g transform="translate(0.000000,32.000000) scale(0.100000,-0.100000)"
fill="#000000" stroke="none">
<path fill="#000000" stroke="none" d="M1 263 c0 -42 3 -52 9 -37 7 17 15 20
52 17 59 -4 192 -28 206 -37 16 -10 16 16 0 32 -19 19 6 40 27 22 8 -7 15 -17
15 -23 0 -6 -6 -2 -14 9 -8 10 -18 16 -22 12 -4 -4 -1 -14 6 -23 7 -8 10 -22
6 -30 -3 -8 -1 -15 5 -15 14 0 29 46 29 91 l0 39 -160 0 -160 0 1 -57z"/>
<path fill="#000000" stroke="none" d="M20 224 c0 -16 2 -17 10 -4 5 8 10 10
10 5 0 -6 -5 -16 -12 -23 -9 -9 -9 -12 1 -12 7 0 9 -5 6 -10 -5 -8 -11 -8 -19
-1 -9 8 -12 -12 -14 -85 l-1 -95 49 2 c27 2 47 6 44 11 -3 4 1 8 9 8 8 0 17 7
21 15 7 20 -16 19 -54 0 -33 -17 -38 -11 -14 16 9 10 13 23 9 30 -6 8 -13 2
-24 -17 -8 -16 -14 -33 -13 -37 1 -5 -2 -6 -8 -2 -7 4 -5 16 6 33 11 20 13 34
6 52 -15 40 -14 45 12 45 14 1 22 -3 19 -7 -2 -5 -14 -6 -26 -2 -17 5 -19 4
-10 -6 14 -15 72 -4 80 16 3 8 2 21 -1 30 -5 13 -9 14 -21 4 -22 -18 -32 -3
-12 17 16 16 18 16 30 -1 8 -11 19 -16 25 -12 7 4 12 2 12 -3 0 -6 -4 -11 -9
-11 -5 0 -11 -9 -14 -21 -3 -11 -15 -23 -26 -26 -12 -3 -21 -9 -21 -14 0 -5
-7 -5 -17 -2 -10 4 -14 2 -10 -4 4 -6 18 -11 32 -11 14 0 34 -7 44 -16 10 -9
21 -13 24 -9 11 11 8 58 -5 71 -9 9 -9 12 -1 12 7 0 15 -5 18 -10 5 -8 11 -8
20 0 10 8 15 8 21 -1 5 -8 3 -9 -6 -4 -9 6 -11 4 -6 -4 9 -13 21 -6 21 12 0 5
6 12 13 15 9 3 11 -3 7 -21 -4 -14 -2 -28 4 -32 6 -3 9 -10 6 -14 -2 -5 7 -6
21 -3 14 2 24 1 22 -4 -2 -5 0 -10 5 -12 16 -5 19 -1 7 13 -7 8 -9 15 -5 15 4
0 2 7 -6 16 -10 13 -10 17 0 23 15 10 -2 50 -22 53 -7 0 -23 3 -37 5 -14 2
-41 4 -60 6 -19 1 -41 8 -48 15 -17 15 -32 16 -32 1 0 -6 -7 -8 -15 -5 -8 3
-22 9 -30 12 -10 4 -15 0 -15 -12z"/>
<path fill="#000000" stroke="none" d="M300 161 c-7 -14 -6 -27 5 -48 l15 -28
0 48 c0 51 -4 57 -20 28z"/>
<path fill="#000000" stroke="none" d="M85 80 c-3 -5 1 -10 9 -10 9 0 16 5 16
10 0 6 -4 10 -9 10 -6 0 -13 -4 -16 -10z"/>
<path fill="#000000" stroke="none" d="M132 40 c-18 -36 -18 -41 -4 -37 10 2
16 9 14 16 -1 7 2 10 7 7 13 -8 25 34 13 46 -6 6 -17 -5 -30 -32z"/>
<path fill="#000000" stroke="none" d="M280 53 c-8 -3 -18 -11 -22 -17 -5 -8
-8 -7 -8 2 0 21 -46 13 -70 -13 l-23 -25 81 0 c82 0 82 0 82 26 0 23 -2 25
-15 14 -13 -11 -14 -10 -9 4 7 17 7 17 -16 9z"/>
</g>
</svg>
