<?xml version="1.0" standalone="no"?>
<!DOCTYPE svg PUBLIC "-//W3C//DTD SVG 20010904//EN"
 "http://www.w3.org/TR/2001/REC-SVG-20010904/DTD/svg10.dtd">
<svg version="1.0" xmlns="http://www.w3.org/2000/svg"
 width="32.000000pt" height="32.000000pt" viewBox="0 0 32.000000 32.000000"
 preserveAspectRatio="xMidYMid meet">
<metadata>
Created by potrace 1.16, written by Peter Selinger 2001-2019
</metadata>
<g transform="translate(0.000000,32.000000) scale(0.100000,-0.100000)"
fill="#000000" stroke="none">
<path fill="#000000" stroke="none" d="M264 259 c-3 -6 -1 -16 5 -22 15 -15
14 -40 -1 -31 -31 19 -245 46 -254 33 -13 -22 -13 -83 0 -98 26 -31 28 -59 6
-91 l-21 -30 23 0 c13 1 34 7 48 15 14 8 33 14 42 15 24 0 12 -26 -15 -36 -18
-6 -16 -8 17 -11 31 -4 44 1 65 21 27 26 71 35 71 16 0 -14 43 -13 58 2 16 16
15 37 -3 72 -14 26 -14 31 0 52 19 30 19 54 -1 82 -17 24 -29 28 -40 11z"/>
<path fill="#ffffff" stroke="none" d="M110 80 c0 -5 -7 -10 -16 -10 -8 0 -12
5 -9 10 3 6 10 10 16 10 5 0 9 -4 9 -10z"/>
</g>
</svg>
