<?xml version="1.0" standalone="no"?>
<!DOCTYPE svg PUBLIC "-//W3C//DTD SVG 20010904//EN"
 "http://www.w3.org/TR/2001/REC-SVG-20010904/DTD/svg10.dtd">
<svg version="1.0" xmlns="http://www.w3.org/2000/svg"
 width="32.000000pt" height="32.000000pt" viewBox="0 0 32.000000 32.000000"
 preserveAspectRatio="xMidYMid meet">
<metadata>
Created by potrace 1.16, written by Peter Selinger 2001-2019
</metadata>
<g transform="translate(0.000000,32.000000) scale(0.100000,-0.100000)"
fill="#000000" stroke="none">
<path fill="#000000" stroke="none" d="M102 308 c-17 -17 -15 -53 3 -68 10 -8
29 -10 56 -6 26 4 46 2 55 -5 23 -19 16 -29 -12 -19 -42 16 -99 12 -123 -9
-13 -11 -28 -22 -34 -24 -16 -5 -18 -79 -2 -103 12 -19 12 -24 0 -34 -26 -22
-16 -29 35 -27 27 1 50 6 50 10 0 5 -4 6 -9 2 -5 -3 -12 -1 -16 5 -4 6 -11 8
-16 5 -13 -8 -49 -15 -49 -9 0 3 10 8 21 12 20 8 20 9 4 26 -14 13 -15 22 -7
39 9 19 11 20 11 4 1 -11 10 -32 21 -47 18 -25 24 -27 54 -20 18 4 39 10 45
14 6 4 11 2 11 -3 0 -6 -7 -11 -16 -11 -8 0 -12 -5 -9 -10 4 -6 1 -9 -6 -8 -6
2 -13 -2 -16 -9 -2 -7 4 -11 16 -10 12 1 21 7 21 13 0 7 5 14 11 16 5 2 14 20
18 40 8 33 6 37 -13 40 -16 2 -20 9 -18 27 1 14 5 27 7 29 7 7 41 -26 43 -41
1 -6 4 -25 8 -40 4 -19 1 -33 -10 -46 -15 -16 -15 -19 -1 -31 13 -11 14 -10 9
3 -5 13 0 15 30 10 38 -6 47 5 21 27 -11 9 -13 16 -5 24 15 15 12 53 -5 60
-11 4 -13 16 -9 50 6 41 4 48 -24 75 -31 31 -84 42 -97 21 -11 -18 -25 -11
-22 11 2 26 -14 34 -31 17z"/>
<path fill="#ffffff" stroke="none" d="M127 288 c-1 -18 2 -22 18 -19 50 9 88
4 101 -14 21 -29 17 -37 -11 -19 -18 11 -35 14 -60 10 -49 -10 -75 0 -75 28 0
12 3 26 7 29 13 14 23 6 20 -15z"/>
<path fill="#ffffff" stroke="none" d="M167 164 c1 -23 -3 -49 -11 -60 -15
-19 -71 -29 -58 -10 3 6 5 19 4 29 -2 12 3 17 19 17 16 0 20 -5 16 -20 -7 -28
2 -25 13 5 14 37 4 51 -35 49 -19 -1 -35 1 -35 5 0 16 22 27 52 27 30 -1 32
-3 35 -42z"/>
<path fill="#ffffff" stroke="none" d="M66 144 c2 -12 -1 -13 -12 -3 -7 6 -11
16 -8 21 7 11 17 3 20 -18z"/>
<path fill="#ffffff" stroke="none" d="M284 90 c-6 -6 -10 -2 -11 12 -2 16 1
18 10 9 7 -7 8 -14 1 -21z"/>
<path fill="#ffffff" stroke="none" d="M177 64 c-8 -8 -48 -13 -43 -6 2 4 14
8 26 9 12 1 20 0 17 -3z"/>
<path fill="#ffffff" stroke="none" d="M296 38 c3 -4 -1 -5 -10 -4 -8 1 -18 5
-22 8 -3 4 1 5 10 4 8 -1 18 -5 22 -8z"/>
<path fill="#000000" stroke="none" d="M200 10 c0 -5 5 -10 11 -10 5 0 7 5 4
10 -3 6 -8 10 -11 10 -2 0 -4 -4 -4 -10z"/>
</g>
</svg>
