<?xml version="1.0" standalone="no"?>
<!DOCTYPE svg PUBLIC "-//W3C//DTD SVG 20010904//EN"
 "http://www.w3.org/TR/2001/REC-SVG-20010904/DTD/svg10.dtd">
<svg version="1.0" xmlns="http://www.w3.org/2000/svg"
 width="32.000000pt" height="32.000000pt" viewBox="0 0 32.000000 32.000000"
 preserveAspectRatio="xMidYMid meet">
<metadata>
Created by potrace 1.16, written by Peter Selinger 2001-2019
</metadata>
<g transform="translate(0.000000,32.000000) scale(0.100000,-0.100000)"
fill="#000000" stroke="none">
<path fill="#000000" stroke="none" d="M0 159 l0 -159 73 0 c61 0 74 3 85 20
7 11 19 20 27 20 8 0 15 5 15 10 0 7 -6 7 -19 0 -11 -5 -29 -10 -40 -10 -12 0
-18 -5 -16 -12 4 -9 -10 -14 -45 -15 -51 -2 -61 5 -35 27 12 10 12 15 0 34
-18 26 -14 94 6 106 14 9 37 9 54 -2 8 -4 41 -4 64 1 13 3 -23 28 -37 26 -9
-2 -17 -4 -17 -5 0 -1 -8 -3 -17 -5 -10 -2 -18 0 -18 5 0 20 80 27 124 10 28
-10 35 0 12 19 -9 7 -29 9 -55 5 -27 -4 -46 -2 -56 6 -16 13 -20 55 -6 64 4 3
6 -5 4 -17 -7 -33 19 -51 59 -41 18 5 41 8 50 7 10 0 15 4 12 8 -3 5 -9 7 -14
4 -5 -3 -11 -1 -15 4 -4 7 -15 6 -31 -1 -32 -15 -52 1 -35 29 11 16 11 16 6
-4 -6 -23 8 -32 20 -13 13 21 66 10 97 -21 28 -27 30 -34 24 -75 -4 -34 -2
-46 9 -50 17 -7 20 -45 5 -60 -8 -8 -6 -15 5 -24 26 -21 17 -33 -20 -27 -20 3
-35 2 -35 -4 0 -6 -5 -7 -10 -4 -7 5 -8 11 -1 19 16 18 22 68 8 63 -12 -4 -29
-65 -23 -83 2 -6 27 -12 55 -13 l51 -1 0 160 0 160 -160 -1 -160 0 0 -160z"/>
<path fill="#000000" stroke="none" d="M190 150 c0 -11 0 -23 0 -27 0 -11 23
-11 37 0 9 6 7 13 -5 28 -21 24 -32 24 -32 -1z"/>
<path fill="#000000" stroke="none" d="M105 123 c1 -10 -1 -23 -6 -29 -6 -7 0
-10 18 -9 28 1 42 18 24 30 -7 4 -9 -1 -5 -12 5 -15 4 -15 -4 -3 -8 10 -8 18
0 27 8 10 6 13 -10 13 -14 0 -19 -6 -17 -17z"/>
<path fill="#000000" stroke="none" d="M55 91 c-3 -5 -1 -12 5 -16 5 -3 10 1
10 9 0 18 -6 21 -15 7z"/>
<path fill="#000000" stroke="none" d="M45 29 c-3 -4 2 -6 10 -5 21 3 28 13
10 13 -9 0 -18 -4 -20 -8z"/>
<path fill="#000000" stroke="none" d="M191 14 c0 -11 3 -14 6 -6 3 7 2 16 -1
19 -3 4 -6 -2 -5 -13z"/>
</g>
</svg>
