<?xml version="1.0" standalone="no"?>
<!DOCTYPE svg PUBLIC "-//W3C//DTD SVG 20010904//EN"
 "http://www.w3.org/TR/2001/REC-SVG-20010904/DTD/svg10.dtd">
<svg version="1.0" xmlns="http://www.w3.org/2000/svg"
 width="32.000000pt" height="32.000000pt" viewBox="0 0 32.000000 32.000000"
 preserveAspectRatio="xMidYMid meet">
<metadata>
Created by potrace 1.16, written by Peter Selinger 2001-2019
</metadata>
<g transform="translate(0.000000,32.000000) scale(0.100000,-0.100000)"
fill="#000000" stroke="none">
<path fill="#000000" stroke="none" d="M102 308 c-17 -17 -15 -53 3 -68 10 -8
30 -10 58 -6 34 5 47 3 57 -9 7 -8 10 -18 7 -22 -4 -3 -1 -15 5 -26 15 -30 20
-114 7 -139 -8 -15 -8 -23 1 -32 8 -8 10 -7 5 6 -6 15 -2 16 29 11 38 -6 47 5
21 27 -11 9 -13 16 -5 24 15 15 12 53 -5 60 -11 4 -13 16 -9 50 6 41 4 48 -24
75 -31 31 -84 42 -97 21 -11 -18 -25 -11 -22 11 2 26 -14 34 -31 17z"/>
<path fill="#ffffff" stroke="none" d="M125 291 c-7 -23 12 -38 28 -22 17 17
62 13 88 -8 23 -18 35 -76 19 -86 -5 -3 -7 3 -5 14 6 34 -31 56 -93 56 -58 0
-73 13 -58 51 8 21 28 17 21 -5z"/>
<path fill="#ffffff" stroke="none" d="M290 101 c0 -9 -5 -22 -12 -29 -9 -9
-8 -15 8 -26 19 -15 19 -15 -1 -12 -15 2 -21 13 -26 47 -4 24 -4 48 -2 52 7
12 33 -13 33 -32z"/>
<path fill="#000000" stroke="none" d="M81 201 c-13 -11 -28 -22 -34 -24 -16
-5 -18 -79 -2 -103 12 -19 12 -24 0 -34 -26 -22 -16 -29 35 -27 27 1 50 5 50
9 0 4 -21 5 -47 2 -44 -3 -46 -2 -29 11 16 12 17 17 6 31 -19 22 -21 90 -4
105 12 9 14 5 14 -22 0 -19 9 -52 19 -75 17 -38 21 -41 52 -36 28 3 32 2 22
-9 -19 -19 -16 -28 7 -26 11 1 20 5 20 10 0 5 -7 6 -16 3 -8 -3 -12 -2 -9 4 3
6 13 10 20 10 21 0 34 31 24 58 -5 12 -11 22 -14 22 -4 0 -3 -5 1 -12 4 -7 3
-8 -4 -4 -7 4 -12 14 -12 22 0 8 -5 12 -11 9 -6 -4 -8 -13 -5 -21 3 -8 2 -13
-2 -13 -4 1 -9 0 -12 -1 -3 -1 -17 -3 -32 -4 -21 -2 -25 0 -18 9 7 9 6 16 -3
23 -17 14 -20 69 -5 79 18 11 91 12 105 1 7 -5 14 -5 17 0 16 27 -103 29 -133
3z"/>
<path fill="#ffffff" stroke="none" d="M191 69 c5 -8 9 -18 9 -22 0 -10 -69 2
-90 15 -12 8 -12 9 2 4 10 -3 23 1 30 8 16 17 37 14 49 -5z"/>
<path fill="#000000" stroke="none" d="M170 160 c6 -11 13 -20 16 -20 3 0 3 4
-1 9 -10 16 14 22 37 10 21 -11 22 -11 9 4 -7 10 -27 17 -43 17 -26 0 -28 -2
-18 -20z"/>
<path fill="#000000" stroke="none" d="M93 151 c1 -16 49 -22 55 -8 6 18 0 24
-27 24 -21 0 -29 -5 -28 -16z"/>
</g>
</svg>
