<?xml version="1.0" standalone="no"?>
<!DOCTYPE svg PUBLIC "-//W3C//DTD SVG 20010904//EN"
 "http://www.w3.org/TR/2001/REC-SVG-20010904/DTD/svg10.dtd">
<svg version="1.0" xmlns="http://www.w3.org/2000/svg"
 width="32.000000pt" height="32.000000pt" viewBox="0 0 32.000000 32.000000"
 preserveAspectRatio="xMidYMid meet">
<metadata>
Created by potrace 1.16, written by Peter Selinger 2001-2019
</metadata>
<g transform="translate(0.000000,32.000000) scale(0.100000,-0.100000)"
fill="#000000" stroke="none">
<path fill="#000000" stroke="none" d="M63 255 c-18 -8 -33 -21 -33 -30 0 -16
20 -16 32 0 5 6 8 6 8 -2 0 -7 9 -9 23 -5 20 5 21 4 8 -12 -8 -9 -20 -15 -28
-12 -7 3 -13 0 -13 -7 0 -8 -4 -7 -11 3 -9 13 -10 13 -6 0 5 -21 44 -24 73 -6
13 9 24 12 24 6 0 -5 -4 -10 -10 -10 -5 0 -8 -10 -6 -22 2 -13 0 -33 -5 -44
-4 -12 -3 -27 2 -33 6 -8 5 -8 -3 -1 -13 10 -48 -5 -48 -21 0 -6 5 -7 10 -4 6
3 10 1 10 -5 0 -22 41 11 58 48 9 20 21 40 25 43 5 3 8 9 8 13 -3 21 0 36 8
36 5 0 7 -10 3 -22 -3 -14 -2 -19 6 -14 8 4 16 -3 22 -18 5 -15 20 -28 35 -32
35 -9 45 4 19 25 -17 13 -19 20 -10 36 6 11 15 23 19 26 10 7 -48 57 -81 70
-14 6 -30 5 -42 -1 -24 -13 -43 -13 -35 0 9 14 -24 12 -62 -5z"/>
<path fill="#000000" stroke="none" d="M43 132 c-18 -9 -33 -20 -33 -24 0 -5
4 -7 9 -4 5 4 11 1 13 -4 2 -6 16 3 33 20 31 33 27 35 -22 12z"/>
<path fill="#000000" stroke="none" d="M277 66 c-19 -14 -14 -23 13 -22 8 1
16 9 18 19 4 20 -6 21 -31 3z"/>
</g>
</svg>
