<?xml version="1.0" standalone="no"?>
<!DOCTYPE svg PUBLIC "-//W3C//DTD SVG 20010904//EN"
 "http://www.w3.org/TR/2001/REC-SVG-20010904/DTD/svg10.dtd">
<svg version="1.0" xmlns="http://www.w3.org/2000/svg"
 width="32.000000pt" height="32.000000pt" viewBox="0 0 32.000000 32.000000"
 preserveAspectRatio="xMidYMid meet">
<metadata>
Created by potrace 1.16, written by Peter Selinger 2001-2019
</metadata>
<g transform="translate(0.000000,32.000000) scale(0.100000,-0.100000)"
fill="#000000" stroke="none">
<path fill="#000000" stroke="none" d="M0 160 l0 -160 160 0 160 0 0 160 0
160 -160 0 -160 0 0 -160z"/>
<path fill="#ffffff" stroke="none" d="M125 260 c-8 -13 11 -13 35 0 12 6 28
7 42 1 33 -13 91 -63 81 -70 -4 -3 -13 -15 -19 -26 -9 -16 -7 -23 10 -36 26
-21 16 -34 -19 -25 -15 4 -30 17 -35 32 -6 15 -14 22 -22 18 -8 -5 -9 0 -6 14
4 12 2 22 -3 22 -8 0 -11 -15 -8 -36 0 -4 -3 -10 -8 -13 -4 -3 -16 -23 -25
-43 -17 -37 -58 -70 -58 -48 0 6 -4 8 -10 5 -5 -3 -10 -2 -10 4 0 16 35 31 48
21 8 -7 9 -7 3 1 -5 6 -6 21 -2 33 5 11 7 31 5 44 -2 12 1 22 6 22 6 0 10 5
10 10 0 6 -11 3 -24 -6 -29 -18 -68 -15 -73 6 -4 13 -3 13 6 0 7 -10 11 -11
11 -3 0 7 6 10 13 7 8 -3 20 3 28 12 13 16 12 17 -8 12 -14 -4 -23 -2 -23 5 0
8 -3 8 -8 2 -12 -16 -32 -16 -32 0 0 9 15 22 33 30 38 17 71 19 62 5z"/>
<path fill="#ffffff" stroke="none" d="M65 120 c-17 -17 -31 -26 -33 -20 -2 5
-8 8 -13 4 -5 -3 -9 -1 -9 4 0 8 54 38 74 41 6 0 -3 -13 -19 -29z"/>
<path fill="#ffffff" stroke="none" d="M308 63 c-3 -17 -23 -24 -41 -15 -9 4
22 31 36 32 5 0 7 -8 5 -17z"/>
</g>
</svg>
