<?xml version="1.0" standalone="no"?>
<!DOCTYPE svg PUBLIC "-//W3C//DTD SVG 20010904//EN"
 "http://www.w3.org/TR/2001/REC-SVG-20010904/DTD/svg10.dtd">
<svg version="1.0" xmlns="http://www.w3.org/2000/svg"
 width="32.000000pt" height="32.000000pt" viewBox="0 0 32.000000 32.000000"
 preserveAspectRatio="xMidYMid meet">
<metadata>
Created by potrace 1.16, written by Peter Selinger 2001-2019
</metadata>
<g transform="translate(0.000000,32.000000) scale(0.100000,-0.100000)"
fill="#000000" stroke="none">
<path fill="#000000" stroke="none" d="M85 285 c-45 -28 -42 -30 21 -14 34 9
51 8 76 -2 l31 -13 -33 -11 c-39 -13 -57 -42 -19 -30 l24 7 -25 -23 c-14 -13
-27 -21 -28 -16 -2 4 -8 5 -13 1 -5 -3 -9 1 -9 8 0 9 -3 9 -10 -2 -5 -8 -10
-11 -10 -7 0 13 -30 -20 -30 -33 0 -8 10 -10 25 -8 13 3 22 1 19 -3 -3 -5 -12
-9 -21 -9 -12 0 -13 -3 -5 -13 9 -10 8 -19 -3 -34 -18 -26 -2 -26 35 0 13 9
30 17 36 17 15 0 26 -28 17 -42 -3 -7 -1 -8 5 -4 7 4 12 2 12 -4 0 -6 4 -9 9
-5 6 3 6 17 1 35 -8 26 -5 31 25 50 18 11 40 35 48 52 12 25 17 29 22 17 3 -9
5 -22 3 -29 -2 -7 3 -15 10 -17 11 -4 17 14 12 47 -3 29 -121 110 -159 110
-15 0 -44 -11 -66 -25z"/>
</g>
</svg>
