<?xml version="1.0" standalone="no"?>
<!DOCTYPE svg PUBLIC "-//W3C//DTD SVG 20010904//EN"
 "http://www.w3.org/TR/2001/REC-SVG-20010904/DTD/svg10.dtd">
<svg version="1.0" xmlns="http://www.w3.org/2000/svg"
 width="32.000000pt" height="32.000000pt" viewBox="0 0 32.000000 32.000000"
 preserveAspectRatio="xMidYMid meet">
<metadata>
Created by potrace 1.16, written by Peter Selinger 2001-2019
</metadata>
<g transform="translate(0.000000,32.000000) scale(0.100000,-0.100000)"
fill="#000000" stroke="none">
<path fill="#000000" stroke="none" d="M0 160 l0 -160 160 0 160 0 0 160 0
160 -160 0 -160 0 0 -160z"/>
<path fill="#ffffff" stroke="none" d="M170 306 c0 -11 -19 -15 -25 -6 -3 5 1
10 9 10 9 0 16 -2 16 -4z"/>
<path fill="#ffffff" stroke="none" d="M226 273 c14 -15 21 -29 15 -31 -6 -2
-9 -8 -5 -13 3 -5 0 -9 -6 -9 -6 0 -8 -5 -4 -12 4 -6 3 -8 -3 -5 -5 4 -16 -5
-23 -18 -13 -25 -40 -35 -40 -15 0 6 5 10 10 10 6 0 10 6 10 14 0 8 6 16 14
19 27 11 38 44 20 61 -9 9 -20 14 -25 11 -5 -4 -9 -1 -9 4 0 19 20 12 46 -16z"/>
<path fill="#ffffff" stroke="none" d="M75 270 c-3 -5 -12 -10 -18 -10 -7 0
-6 4 3 10 19 12 23 12 15 0z"/>
<path fill="#ffffff" stroke="none" d="M294 221 c11 -12 16 -30 13 -48 -4 -28
-4 -28 -6 4 0 20 -9 37 -23 47 -12 9 -18 16 -12 16 6 0 19 -9 28 -19z"/>
<path fill="#ffffff" stroke="none" d="M121 181 c7 11 9 11 9 1 0 -7 5 -10 10
-7 6 3 10 -1 10 -9 0 -9 5 -16 10 -16 6 0 10 -4 10 -8 0 -5 -7 -9 -15 -9 -8 0
-12 4 -10 8 3 3 -2 12 -9 18 -11 9 -16 9 -21 0 -6 -8 -10 -8 -15 2 -7 10 -11
10 -24 0 -20 -16 -21 -5 -2 14 7 8 16 11 20 8 3 -4 7 0 7 8 1 8 4 5 6 -5 4
-15 7 -16 14 -5z"/>
<path fill="#ffffff" stroke="none" d="M110 110 c5 8 9 7 13 -5 4 -9 3 -13 -3
-10 -6 3 -10 1 -10 -6 0 -7 -7 -4 -15 7 -8 10 -14 24 -14 29 0 6 4 2 10 -9 8
-13 13 -15 19 -6z"/>
<path fill="#ffffff" stroke="none" d="M193 47 c-7 -12 -9 -7 -16 33 l-6 35
14 -30 c7 -16 11 -34 8 -38z"/>
<path fill="#ffffff" stroke="none" d="M87 77 c0 -8 -6 -14 -14 -14 -9 0 -10
4 -2 14 6 7 12 13 14 13 1 0 2 -6 2 -13z"/>
</g>
</svg>
