<?xml version="1.0" standalone="no"?>
<!DOCTYPE svg PUBLIC "-//W3C//DTD SVG 20010904//EN"
 "http://www.w3.org/TR/2001/REC-SVG-20010904/DTD/svg10.dtd">
<svg version="1.0" xmlns="http://www.w3.org/2000/svg"
 width="32.000000pt" height="32.000000pt" viewBox="0 0 32.000000 32.000000"
 preserveAspectRatio="xMidYMid meet">
<metadata>
Created by potrace 1.16, written by Peter Selinger 2001-2019
</metadata>
<g transform="translate(0.000000,32.000000) scale(0.100000,-0.100000)"
fill="#000000" stroke="none">
<path fill="#000000" stroke="none" d="M0 160 l0 -160 160 0 160 0 0 160 0
160 -160 0 -160 0 0 -160z"/>
<path fill="#ffffff" stroke="none" d="M70 165 c-7 -8 -18 -15 -25 -15 -8 0
-15 -6 -18 -12 -2 -7 -8 -10 -12 -6 -10 9 16 34 41 41 10 2 21 5 23 6 2 0 -2
-6 -9 -14z"/>
<path fill="#ffffff" stroke="none" d="M243 154 c-4 -10 -9 -12 -15 -6 -12 12
-1 35 12 27 5 -3 6 -13 3 -21z"/>
<path fill="#ffffff" stroke="none" d="M110 139 c0 -6 -4 -7 -10 -4 -5 3 -10
11 -10 16 0 6 5 7 10 4 6 -3 10 -11 10 -16z"/>
<path fill="#ffffff" stroke="none" d="M196 148 c5 -7 3 -8 -5 -3 -7 4 -23 -3
-38 -16 -16 -16 -23 -19 -21 -9 7 32 50 51 64 28z"/>
<path fill="#ffffff" stroke="none" d="M256 55 c10 -26 -1 -35 -13 -10 -6 14
-7 25 -2 25 5 0 12 -7 15 -15z"/>
<path fill="#ffffff" stroke="none" d="M67 28 c-3 -7 -5 -2 -5 12 0 14 2 19 5
13 2 -7 2 -19 0 -25z"/>
</g>
</svg>
