<?xml version="1.0" standalone="no"?>
<!DOCTYPE svg PUBLIC "-//W3C//DTD SVG 20010904//EN"
 "http://www.w3.org/TR/2001/REC-SVG-20010904/DTD/svg10.dtd">
<svg version="1.0" xmlns="http://www.w3.org/2000/svg"
 width="32.000000pt" height="32.000000pt" viewBox="0 0 32.000000 32.000000"
 preserveAspectRatio="xMidYMid meet">
<metadata>
Created by potrace 1.16, written by Peter Selinger 2001-2019
</metadata>
<g transform="translate(0.000000,32.000000) scale(0.100000,-0.100000)"
fill="#000000" stroke="none">
<path fill="#000000" stroke="none" d="M152 243 c-10 -4 -10 -8 -1 -19 14 -17
29 -18 29 -3 0 5 -6 7 -12 3 -7 -4 -10 -3 -6 1 5 5 20 10 35 11 23 2 25 1 10
-7 -24 -14 -12 -29 19 -23 17 3 23 1 19 -7 -5 -8 -2 -8 11 -1 11 5 26 7 34 5
8 -2 -5 7 -30 21 -43 24 -80 30 -108 19z"/>
</g>
</svg>
