<?xml version="1.0" standalone="no"?>
<!DOCTYPE svg PUBLIC "-//W3C//DTD SVG 20010904//EN"
 "http://www.w3.org/TR/2001/REC-SVG-20010904/DTD/svg10.dtd">
<svg version="1.0" xmlns="http://www.w3.org/2000/svg"
 width="32.000000pt" height="32.000000pt" viewBox="0 0 32.000000 32.000000"
 preserveAspectRatio="xMidYMid meet">
<metadata>
Created by potrace 1.16, written by Peter Selinger 2001-2019
</metadata>
<g transform="translate(0.000000,32.000000) scale(0.100000,-0.100000)"
fill="#000000" stroke="none">
<path fill="#000000" stroke="none" d="M0 160 l0 -160 160 0 160 0 0 160 0
160 -160 0 -160 0 0 -160z"/>
<path fill="#ffffff" stroke="none" d="M260 224 c25 -14 38 -23 30 -21 -8 2
-23 0 -34 -5 -13 -7 -16 -7 -11 1 4 8 -2 10 -19 7 -31 -6 -43 9 -19 23 15 8
13 9 -10 7 -15 -1 -30 -6 -35 -11 -4 -4 -1 -5 6 -1 6 4 12 2 12 -3 0 -15 -15
-14 -29 3 -9 11 -9 15 1 19 28 11 65 5 108 -19z"/>
</g>
</svg>
