<?xml version="1.0" standalone="no"?>
<!DOCTYPE svg PUBLIC "-//W3C//DTD SVG 20010904//EN"
 "http://www.w3.org/TR/2001/REC-SVG-20010904/DTD/svg10.dtd">
<svg version="1.0" xmlns="http://www.w3.org/2000/svg"
 width="32.000000pt" height="32.000000pt" viewBox="0 0 32.000000 32.000000"
 preserveAspectRatio="xMidYMid meet">
<metadata>
Created by potrace 1.16, written by Peter Selinger 2001-2019
</metadata>
<g transform="translate(0.000000,32.000000) scale(0.100000,-0.100000)"
fill="#000000" stroke="none">
<path fill="#000000" stroke="none" d="M0 160 l0 -160 160 0 160 0 0 160 0
160 -160 0 -160 0 0 -160z"/>
<path fill="#ffffff" stroke="none" d="M187 297 c3 -4 11 -3 17 2 15 13 95
-61 98 -89 0 -11 1 -24 2 -30 1 -5 -3 -10 -9 -10 -5 0 -10 4 -10 10 0 5 -6 15
-12 22 -10 10 -13 7 -14 -12 -1 -14 0 -29 1 -35 8 -39 9 -95 1 -99 -5 -3 -7
-16 -4 -29 5 -18 3 -20 -7 -10 -9 8 -19 9 -31 3 -12 -7 -19 -6 -22 4 -6 16 16
40 26 29 4 -3 7 8 7 25 0 22 -6 32 -20 37 -11 4 -18 11 -15 16 4 5 -3 9 -14 9
-11 0 -23 -4 -26 -10 -3 -5 -1 -10 5 -10 6 0 8 -4 5 -10 -3 -5 -16 -9 -28 -9
-17 1 -18 2 -4 6 9 2 15 9 11 14 -3 5 -10 7 -15 4 -12 -8 -11 2 1 26 11 19 10
19 -22 -1 -34 -21 -73 -26 -82 -12 -9 15 38 72 64 78 14 3 36 11 50 19 66 36
8 53 -72 21 -32 -13 -58 -21 -58 -17 1 41 146 88 177 58z"/>
<path fill="#ffffff" stroke="none" d="M110 120 c0 -5 -4 -10 -10 -10 -5 0
-10 5 -10 10 0 6 5 10 10 10 6 0 10 -4 10 -10z"/>
<path fill="#ffffff" stroke="none" d="M73 113 c-7 -2 -21 -2 -30 0 -10 3 -4
5 12 5 17 0 24 -2 18 -5z"/>
<path fill="#ffffff" stroke="none" d="M83 84 c-7 -3 -10 -11 -7 -19 3 -7 1
-16 -5 -20 -7 -4 -8 1 -4 12 6 16 4 16 -16 -2 -16 -14 -22 -15 -19 -5 4 19 29
39 48 39 9 0 10 -2 3 -5z"/>
<path fill="#000000" stroke="none" d="M156 155 c-11 -8 -18 -17 -15 -19 2 -2
15 4 28 15 27 22 15 26 -13 4z"/>
</g>
</svg>
