<?xml version="1.0" standalone="no"?>
<!DOCTYPE svg PUBLIC "-//W3C//DTD SVG 20010904//EN"
 "http://www.w3.org/TR/2001/REC-SVG-20010904/DTD/svg10.dtd">
<svg version="1.0" xmlns="http://www.w3.org/2000/svg"
 width="32.000000pt" height="32.000000pt" viewBox="0 0 32.000000 32.000000"
 preserveAspectRatio="xMidYMid meet">
<metadata>
Created by potrace 1.16, written by Peter Selinger 2001-2019
</metadata>
<g transform="translate(0.000000,32.000000) scale(0.100000,-0.100000)"
fill="#000000" stroke="none">
<path fill="#000000" stroke="none" d="M0 160 l0 -160 160 0 160 0 0 159 0
160 -160 0 -160 0 0 -159z"/>
<path fill="#ffffff" stroke="none" d="M238 293 c38 -25 59 -53 66 -87 8 -36
-12 -62 -20 -28 -12 45 -20 20 -18 -60 1 -45 0 -87 -3 -94 -6 -15 -54 -13 -71
3 -10 10 -9 14 7 22 25 14 33 48 13 56 -8 3 -23 -2 -33 -11 -11 -9 -23 -13
-31 -8 -7 4 -22 9 -33 11 -30 5 -69 11 -80 13 -5 1 -1 5 10 10 19 8 19 9 -2 9
-29 1 -29 11 -1 47 29 37 38 44 65 44 25 0 50 35 33 45 -13 8 -67 -3 -103 -21
-24 -13 -27 -13 -27 1 0 9 22 26 52 40 64 30 137 33 176 8z"/>
<path fill="#ffffff" stroke="none" d="M84 68 c-9 -31 -14 -35 -23 -19 -6 9
-11 10 -15 2 -4 -6 -12 -8 -18 -5 -7 4 -1 14 13 25 34 26 52 25 43 -3z"/>
<path fill="#000000" stroke="none" d="M125 159 c-4 -6 -5 -12 -2 -15 2 -3 7
2 10 11 7 17 1 20 -8 4z"/>
<path fill="#000000" stroke="none" d="M86 134 c-11 -8 -16 -14 -10 -14 13 0
39 18 34 24 -3 2 -14 -2 -24 -10z"/>
<path fill="#000000" stroke="none" d="M128 129 c-21 -23 -23 -30 -5 -23 14 5
41 44 30 43 -5 0 -16 -9 -25 -20z"/>
<path fill="#000000" stroke="none" d="M167 110 c-9 -11 -13 -20 -7 -20 5 0
14 9 20 20 6 11 9 20 8 20 -2 0 -11 -9 -21 -20z"/>
</g>
</svg>
