<?xml version="1.0" standalone="no"?>
<!DOCTYPE svg PUBLIC "-//W3C//DTD SVG 20010904//EN"
 "http://www.w3.org/TR/2001/REC-SVG-20010904/DTD/svg10.dtd">
<svg version="1.0" xmlns="http://www.w3.org/2000/svg"
 width="32.000000pt" height="32.000000pt" viewBox="0 0 32.000000 32.000000"
 preserveAspectRatio="xMidYMid meet">
<metadata>
Created by potrace 1.16, written by Peter Selinger 2001-2019
</metadata>
<g transform="translate(0.000000,32.000000) scale(0.100000,-0.100000)"
fill="#000000" stroke="none">
<path fill="#000000" stroke="none" d="M0 160 l0 -160 160 0 160 0 0 160 0
160 -45 0 c-39 0 -44 -2 -33 -14 7 -8 16 -12 20 -10 7 4 21 -52 22 -86 1 -22
-33 -50 -62 -50 -25 0 -25 0 -7 23 10 12 -1 3 -23 -20 -23 -23 -42 -51 -42
-63 0 -26 40 -45 75 -36 52 13 39 66 -17 66 -17 0 -27 4 -23 10 9 15 58 12 83
-6 30 -20 30 -68 0 -88 -33 -23 -100 -20 -133 6 -29 22 -29 20 -9 126 6 28 3
34 -15 39 -11 3 -21 9 -21 14 0 5 -10 9 -22 10 l-23 0 22 9 c22 9 39 43 28 60
-3 5 -26 10 -51 10 l-44 0 0 -160z"/>
<path fill="#ffffff" stroke="none" d="M120 190 c0 -11 -6 -20 -14 -20 -9 0
-14 9 -13 20 1 11 7 20 14 20 7 0 13 -9 13 -20z"/>
<path fill="#ffffff" stroke="none" d="M74 161 c3 -5 -2 -8 -11 -7 -32 2 -27
-33 8 -48 20 -8 27 -16 20 -20 -19 -12 -61 22 -61 48 0 12 3 26 7 29 9 10 31
9 37 -2z"/>
</g>
</svg>
