<?xml version="1.0" standalone="no"?>
<!DOCTYPE svg PUBLIC "-//W3C//DTD SVG 20010904//EN"
 "http://www.w3.org/TR/2001/REC-SVG-20010904/DTD/svg10.dtd">
<svg version="1.0" xmlns="http://www.w3.org/2000/svg"
 width="32.000000pt" height="32.000000pt" viewBox="0 0 32.000000 32.000000"
 preserveAspectRatio="xMidYMid meet">
<metadata>
Created by potrace 1.16, written by Peter Selinger 2001-2019
</metadata>
<g transform="translate(0.000000,32.000000) scale(0.100000,-0.100000)"
fill="#000000" stroke="none">
<path fill="#000000" stroke="none" d="M0 280 l0 -40 29 30 c23 25 36 30 74
30 25 0 49 5 52 10 4 6 -23 10 -74 10 l-81 0 0 -40z"/>
<path fill="#000000" stroke="none" d="M190 309 c0 -8 19 -9 60 -4 l59 7 -6
-65 c-3 -39 -1 -71 5 -83 9 -15 11 0 12 69 l0 87 -65 0 c-41 0 -65 -4 -65 -11z"/>
<path fill="#000000" stroke="none" d="M34 209 c-3 -6 2 -18 12 -27 17 -16 17
-16 4 1 -12 16 -12 20 1 28 9 5 10 9 2 9 -6 0 -15 -5 -19 -11z"/>
<path fill="#000000" stroke="none" d="M0 70 c0 -58 3 -70 16 -70 9 0 23 8 30
18 16 20 18 62 4 62 -5 0 -10 7 -10 15 0 8 -4 15 -10 15 -5 0 -10 7 -10 15 0
8 -4 15 -10 15 -6 0 -10 -30 -10 -70z"/>
<path fill="#000000" stroke="none" d="M300 86 c0 -9 5 -16 10 -16 6 0 10 4
10 9 0 6 -4 13 -10 16 -5 3 -10 -1 -10 -9z"/>
<path fill="#000000" stroke="none" d="M215 70 c-3 -5 -1 -10 4 -10 6 0 11 5
11 10 0 6 -2 10 -4 10 -3 0 -8 -4 -11 -10z"/>
<path fill="#000000" stroke="none" d="M310 19 c0 -6 -7 -9 -15 -5 -8 3 -15 1
-15 -4 0 -6 9 -10 20 -10 11 0 20 7 20 15 0 8 -2 15 -5 15 -3 0 -5 -5 -5 -11z"/>
<path fill="#000000" stroke="none" d="M133 3 c20 -2 54 -2 75 0 20 2 3 4 -38
4 -41 0 -58 -2 -37 -4z"/>
</g>
</svg>
