<?xml version="1.0" standalone="no"?>
<!DOCTYPE svg PUBLIC "-//W3C//DTD SVG 20010904//EN"
 "http://www.w3.org/TR/2001/REC-SVG-20010904/DTD/svg10.dtd">
<svg version="1.0" xmlns="http://www.w3.org/2000/svg"
 width="32.000000pt" height="32.000000pt" viewBox="0 0 32.000000 32.000000"
 preserveAspectRatio="xMidYMid meet">
<metadata>
Created by potrace 1.16, written by Peter Selinger 2001-2019
</metadata>
<g transform="translate(0.000000,32.000000) scale(0.100000,-0.100000)"
fill="#000000" stroke="none">
<path fill="#000000" stroke="none" d="M0 160 l0 -160 160 0 160 0 0 160 0
160 -160 0 -160 0 0 -160z"/>
<path fill="#ffffff" stroke="none" d="M118 238 c9 -9 15 -9 24 0 17 17 33 15
19 -2 -9 -11 -8 -15 4 -20 26 -10 15 -50 -15 -54 -19 -2 -22 -1 -10 7 8 5 18
7 23 4 5 -3 7 3 5 13 -2 11 -12 20 -23 20 -52 4 -59 6 -47 11 10 4 10 8 1 19
-14 17 2 19 19 2z"/>
</g>
</svg>
