<?xml version="1.0" standalone="no"?>
<!DOCTYPE svg PUBLIC "-//W3C//DTD SVG 20010904//EN"
 "http://www.w3.org/TR/2001/REC-SVG-20010904/DTD/svg10.dtd">
<svg version="1.0" xmlns="http://www.w3.org/2000/svg"
 width="32.000000pt" height="32.000000pt" viewBox="0 0 32.000000 32.000000"
 preserveAspectRatio="xMidYMid meet">
<metadata>
Created by potrace 1.16, written by Peter Selinger 2001-2019
</metadata>
<g transform="translate(0.000000,32.000000) scale(0.100000,-0.100000)"
fill="#000000" stroke="none">
<path fill="#000000" stroke="none" d="M247 254 c-4 -4 -7 -16 -7 -26 0 -10
-5 -18 -11 -18 -5 0 -7 5 -4 10 3 6 2 10 -2 10 -5 0 -14 -13 -20 -29 -9 -25
-8 -31 6 -37 11 -4 12 -8 3 -11 -6 -3 -10 -9 -6 -14 9 -15 20 -10 21 11 1 11
-2 20 -8 20 -20 0 -7 16 26 34 35 19 49 41 18 29 -11 -4 -14 -3 -9 5 9 15 33
16 39 2 3 -6 4 -5 3 2 -3 14 -38 23 -49 12z"/>
<path fill="#000000" stroke="none" d="M99 236 c9 -10 8 -15 -4 -20 -20 -7
-19 -25 2 -48 15 -17 15 -18 -5 -18 -12 0 -22 -4 -22 -9 0 -5 8 -7 18 -4 12 3
23 -4 32 -21 17 -32 26 -27 10 6 -7 13 3 7 23 -16 23 -27 39 -37 50 -33 22 8
21 19 -5 53 -14 17 -21 38 -19 56 2 18 -3 30 -13 34 -13 5 -14 9 -5 20 14 17
-2 19 -19 2 -9 -9 -15 -9 -24 0 -17 17 -33 15 -19 -2z"/>
<path fill="#ffffff" stroke="none" d="M130 185 c0 -8 -4 -15 -10 -15 -5 0
-10 7 -10 15 0 8 5 15 10 15 6 0 10 -7 10 -15z"/>
<path fill="#000000" stroke="none" d="M4 229 c-4 -7 4 -20 17 -30 17 -13 26
-14 31 -6 5 8 8 6 8 -5 0 -10 5 -18 10 -18 7 0 7 7 0 20 -6 11 -16 20 -23 19
-24 -3 -37 1 -37 12 0 6 7 8 16 5 8 -3 12 -2 9 4 -8 13 -22 13 -31 -1z"/>
<path fill="#000000" stroke="none" d="M260 167 c27 -15 36 -14 25 2 -3 6 -16
11 -28 11 -21 0 -21 -1 3 -13z"/>
<path fill="#000000" stroke="none" d="M244 145 c-9 -21 -2 -26 13 -10 8 9 9
16 3 20 -6 3 -13 -1 -16 -10z"/>
<path fill="#000000" stroke="none" d="M90 121 c0 -6 4 -13 10 -16 6 -3 7 1 4
9 -7 18 -14 21 -14 7z"/>
</g>
</svg>
