<?xml version="1.0" standalone="no"?>
<!DOCTYPE svg PUBLIC "-//W3C//DTD SVG 20010904//EN"
 "http://www.w3.org/TR/2001/REC-SVG-20010904/DTD/svg10.dtd">
<svg version="1.0" xmlns="http://www.w3.org/2000/svg"
 width="32.000000pt" height="32.000000pt" viewBox="0 0 32.000000 32.000000"
 preserveAspectRatio="xMidYMid meet">
<metadata>
Created by potrace 1.16, written by Peter Selinger 2001-2019
</metadata>
<g transform="translate(0.000000,32.000000) scale(0.100000,-0.100000)"
fill="#000000" stroke="none">
<path fill="#000000" stroke="none" d="M159 310 c-1 -5 -2 -16 -3 -22 -1 -7
-7 -12 -14 -10 -7 1 -12 -2 -12 -8 0 -5 9 -10 20 -10 16 0 20 7 20 30 0 28 -8
43 -11 20z"/>
<path fill="#000000" stroke="none" d="M23 230 c0 -25 2 -35 4 -22 2 12 2 32
0 45 -2 12 -4 2 -4 -23z"/>
<path fill="#000000" stroke="none" d="M101 253 c-7 -8 -11 -16 -8 -19 2 -2
10 2 17 11 17 20 9 27 -9 8z"/>
<path fill="#000000" stroke="none" d="M60 248 c0 -7 5 -20 10 -28 8 -12 10
-9 10 13 0 15 -4 27 -10 27 -5 0 -10 -6 -10 -12z"/>
</g>
</svg>
