<?xml version="1.0" standalone="no"?>
<!DOCTYPE svg PUBLIC "-//W3C//DTD SVG 20010904//EN"
 "http://www.w3.org/TR/2001/REC-SVG-20010904/DTD/svg10.dtd">
<svg version="1.0" xmlns="http://www.w3.org/2000/svg"
 width="32.000000pt" height="32.000000pt" viewBox="0 0 32.000000 32.000000"
 preserveAspectRatio="xMidYMid meet">
<metadata>
Created by potrace 1.16, written by Peter Selinger 2001-2019
</metadata>
<g transform="translate(0.000000,32.000000) scale(0.100000,-0.100000)"
fill="#000000" stroke="none">
<path fill="#000000" stroke="none" d="M89 288 c-1 -24 -3 -27 -6 -10 -5 26
-23 30 -24 5 0 -15 -2 -15 -9 2 -7 16 -9 12 -11 -20 l-2 -40 -6 35 c-7 32 -8
30 -12 -25 -3 -33 -1 -67 3 -75 6 -11 7 -9 3 6 -6 23 17 50 34 40 5 -3 23 7
39 24 18 18 41 30 56 30 24 0 26 3 20 28 -8 33 -15 41 -21 25 -5 -15 -43 -17
-43 -3 0 6 -4 10 -10 10 -5 0 -11 -15 -11 -32z"/>
<path fill="#000000" stroke="none" d="M190 288 c0 -23 5 -38 16 -42 13 -5 14
-1 9 27 -10 48 -25 57 -25 15z"/>
<path fill="#000000" stroke="none" d="M233 254 c-3 -8 -1 -20 6 -27 8 -8 11
-4 11 16 0 30 -7 35 -17 11z"/>
<path fill="#000000" stroke="none" d="M271 211 c2 -59 9 -60 16 -2 3 22 0 42
-6 46 -8 4 -11 -10 -10 -44z"/>
<path fill="#000000" stroke="none" d="M144 241 c3 -5 -2 -15 -11 -22 -14 -12
-16 -12 -8 1 8 13 7 13 -8 1 -21 -17 -21 -25 -1 -46 15 -14 17 -14 31 2 8 10
12 13 9 8 -2 -6 -1 -17 5 -25 6 -11 9 -8 9 13 0 15 5 27 10 27 13 0 -10 38
-28 45 -7 2 -11 1 -8 -4z"/>
<path fill="#000000" stroke="none" d="M62 171 c-7 -4 -20 -21 -28 -37 -10
-18 -11 -24 -3 -16 7 6 20 12 28 12 13 0 13 -2 2 -9 -8 -5 -9 -11 -3 -15 11
-7 24 23 20 45 -2 8 3 13 10 11 8 -1 11 2 7 8 -7 12 -16 12 -33 1z"/>
</g>
</svg>
