<?xml version="1.0" standalone="no"?>
<!DOCTYPE svg PUBLIC "-//W3C//DTD SVG 20010904//EN"
 "http://www.w3.org/TR/2001/REC-SVG-20010904/DTD/svg10.dtd">
<svg version="1.0" xmlns="http://www.w3.org/2000/svg"
 width="32.000000pt" height="32.000000pt" viewBox="0 0 32.000000 32.000000"
 preserveAspectRatio="xMidYMid meet">
<metadata>
Created by potrace 1.16, written by Peter Selinger 2001-2019
</metadata>
<g transform="translate(0.000000,32.000000) scale(0.100000,-0.100000)"
fill="#000000" stroke="none">
<path fill="#000000" stroke="none" d="M0 160 l0 -160 160 0 160 0 0 160 0
160 -160 0 -160 0 0 -160z"/>
<path fill="#ffffff" stroke="none" d="M119 259 c18 1 22 -3 18 -18 -4 -15 2
-21 23 -26 24 -5 70 -52 70 -72 0 -5 10 -13 22 -18 29 -13 33 -35 13 -60 -16
-20 -16 -19 -6 2 6 12 11 26 11 31 0 16 -36 20 -55 6 -10 -7 -21 -11 -26 -9
-4 3 -11 1 -14 -5 -4 -6 -3 -10 2 -9 19 3 23 -2 13 -21 -6 -11 -18 -20 -27
-20 -12 0 -13 3 -3 15 6 8 8 20 4 27 -12 19 -13 37 -4 43 5 3 6 13 3 21 -6 16
-10 8 -41 -69 -7 -16 -19 -27 -29 -26 -16 0 -16 1 1 8 19 7 19 8 -1 13 -18 5
-33 40 -37 84 -1 6 -7 18 -13 26 -17 20 15 90 37 81 8 -3 26 -5 39 -4z"/>
<path fill="#000000" stroke="none" d="M82 140 c14 -22 24 -25 33 -10 3 6 -1
10 -10 10 -9 0 -13 5 -10 10 3 6 -1 10 -9 10 -14 0 -14 -3 -4 -20z"/>
</g>
</svg>
