<?xml version="1.0" standalone="no"?>
<!DOCTYPE svg PUBLIC "-//W3C//DTD SVG 20010904//EN"
 "http://www.w3.org/TR/2001/REC-SVG-20010904/DTD/svg10.dtd">
<svg version="1.0" xmlns="http://www.w3.org/2000/svg"
 width="32.000000pt" height="32.000000pt" viewBox="0 0 32.000000 32.000000"
 preserveAspectRatio="xMidYMid meet">
<metadata>
Created by potrace 1.16, written by Peter Selinger 2001-2019
</metadata>
<g transform="translate(0.000000,32.000000) scale(0.100000,-0.100000)"
fill="#000000" stroke="none">
<path fill="#000000" stroke="none" d="M181 269 c-24 -5 -47 -11 -50 -15 -3
-4 5 -4 19 -1 62 15 138 19 144 8 4 -6 2 -11 -3 -11 -6 0 -11 -6 -11 -13 0 -8
-9 -22 -20 -32 -21 -19 -20 -27 5 -31 18 -3 20 12 3 19 -10 4 -10 6 -1 6 7 1
20 -14 29 -31 10 -18 19 -27 21 -21 3 7 -2 19 -9 27 -15 14 -17 54 -4 74 19
31 -29 40 -123 21z"/>
<path fill="#000000" stroke="none" d="M78 221 c-12 -15 -28 -37 -35 -47 -11
-18 -12 -18 -12 3 -1 12 4 25 9 28 6 4 8 11 4 16 -9 16 -44 -21 -44 -46 0 -30
21 -46 49 -38 l22 6 -25 -38 c-14 -21 -26 -45 -25 -54 0 -14 1 -14 7 -1 9 20
112 27 112 7 0 -20 55 -48 89 -45 l31 2 -21 22 c-12 13 -18 28 -14 35 6 8 10
7 17 -5 5 -9 13 -16 18 -16 18 0 10 24 -18 58 l-27 32 -37 -20 c-46 -24 -48
-24 -48 -2 0 12 3 13 8 5 7 -10 12 -10 27 0 17 13 15 14 -15 20 -18 4 -38 3
-45 -3 -8 -6 -20 -6 -37 2 -24 12 -25 14 -11 35 19 28 53 30 60 4 10 -39 77
-36 93 3 7 17 9 18 9 4 1 -10 6 -18 11 -18 7 0 7 7 -1 21 l-11 21 -22 -21 -22
-21 -47 23 c-43 22 -45 25 -29 40 9 10 13 17 10 17 -3 0 -17 -13 -30 -29z"/>
<path fill="#ffffff" stroke="none" d="M32 208 c-15 -15 -16 -54 -2 -61 6 -3
5 -4 -2 -3 -26 5 -16 76 10 76 3 0 1 -5 -6 -12z"/>
<path fill="#ffffff" stroke="none" d="M145 94 c13 3 30 9 39 12 11 4 16 0 16
-14 0 -10 9 -32 21 -48 l21 -29 -25 27 c-14 15 -27 24 -30 22 -3 -3 -8 0 -13
7 -4 8 -3 10 4 5 7 -4 12 -1 12 8 0 13 -5 14 -27 5 -37 -14 -53 -5 -52 28 l2
28 4 -28 c4 -24 8 -28 28 -23z"/>
<path fill="#ffffff" stroke="none" d="M79 123 c-3 -20 2 -26 11 -13 8 13 10
13 10 -2 0 -21 -16 -32 -25 -18 -5 7 -12 5 -21 -7 -19 -25 -18 -3 2 25 15 22
25 28 23 15z"/>
<path fill="#000000" stroke="none" d="M193 152 c-17 -13 -16 -13 5 -10 16 2
33 -8 58 -37 24 -27 31 -31 20 -13 -15 26 -15 28 4 38 10 6 17 16 15 23 -7 16
-80 15 -102 -1z"/>
<path fill="#000000" stroke="none" d="M311 54 c0 -11 3 -14 6 -6 3 7 2 16 -1
19 -3 4 -6 -2 -5 -13z"/>
</g>
</svg>
