<?xml version="1.0" standalone="no"?>
<!DOCTYPE svg PUBLIC "-//W3C//DTD SVG 20010904//EN"
 "http://www.w3.org/TR/2001/REC-SVG-20010904/DTD/svg10.dtd">
<svg version="1.0" xmlns="http://www.w3.org/2000/svg"
 width="32.000000pt" height="32.000000pt" viewBox="0 0 32.000000 32.000000"
 preserveAspectRatio="xMidYMid meet">
<metadata>
Created by potrace 1.16, written by Peter Selinger 2001-2019
</metadata>
<g transform="translate(0.000000,32.000000) scale(0.100000,-0.100000)"
fill="#000000" stroke="none">
<path fill="#000000" stroke="none" d="M0 160 l0 -160 160 0 160 0 0 160 0
160 -160 0 -160 0 0 -160z"/>
<path fill="#ffffff" stroke="none" d="M300 295 c-7 -8 -9 -15 -5 -15 4 0 2
-6 -4 -14 -9 -11 -9 -15 1 -18 7 -3 -7 -15 -31 -27 -23 -12 -40 -17 -35 -10 5
9 1 10 -17 6 -13 -4 -33 -7 -43 -7 -11 0 -16 -3 -13 -6 3 -4 1 -16 -5 -27 -10
-20 -11 -20 -24 -2 -12 16 -16 17 -27 5 -9 -10 -9 -12 1 -6 18 10 15 1 -5 -15
-11 -10 -14 -10 -9 -1 4 7 2 12 -4 12 -6 0 -10 7 -8 16 2 8 8 15 13 15 6 0 20
10 33 22 22 20 23 20 16 2 -7 -18 -6 -18 9 -6 9 7 17 10 17 6 0 -5 9 0 20 10
20 18 21 18 14 -1 -6 -15 -5 -17 7 -8 8 6 24 10 36 8 12 -2 25 1 28 6 3 6 1
10 -6 10 -7 0 0 14 16 30 30 31 47 41 25 15z"/>
<path fill="#ffffff" stroke="none" d="M231 189 c16 -8 18 -13 8 -25 -9 -11
-9 -14 0 -14 7 0 9 -4 6 -10 -9 -14 18 -12 34 3 11 9 12 9 7 0 -4 -7 -3 -21 2
-30 10 -20 5 -43 -9 -43 -5 0 -9 11 -9 25 0 14 -6 25 -12 25 -21 0 -39 16 -42
36 -2 10 -9 18 -14 17 -6 -2 -9 4 -6 12 7 18 9 18 35 4z"/>
<path fill="#ffffff" stroke="none" d="M60 169 c0 -6 -4 -7 -10 -4 -5 3 -10
11 -10 16 0 6 5 7 10 4 6 -3 10 -11 10 -16z"/>
<path fill="#ffffff" stroke="none" d="M166 134 c-3 -7 0 -16 6 -20 7 -5 8 -2
3 6 -5 8 -4 11 3 6 6 -4 8 -14 5 -23 -5 -12 -3 -14 7 -8 8 5 4 -6 -9 -23 -12
-18 -19 -32 -15 -32 3 0 1 -7 -6 -15 -7 -8 -20 -15 -30 -15 -16 0 -17 3 -7 24
7 13 15 22 18 20 15 -9 18 30 4 46 -12 13 -12 19 -2 30 10 12 9 12 -5 1 -9 -7
-22 -10 -27 -7 -5 4 -12 2 -16 -3 -3 -5 -14 -8 -25 -6 -22 4 -26 -5 -10 -21 7
-7 4 -19 -10 -37 -22 -28 -45 -37 -37 -14 2 6 9 12 15 12 7 0 11 5 10 10 -2 6
-9 9 -15 9 -7 -1 -13 7 -13 17 0 11 7 19 15 19 8 0 14 5 12 12 -1 7 13 12 37
13 22 1 41 6 43 12 2 5 15 8 29 5 16 -3 23 -10 20 -18z"/>
<path fill="#ffffff" stroke="none" d="M109 99 c-22 -14 -33 -10 -19 6 7 8 17
12 22 9 6 -4 5 -10 -3 -15z"/>
</g>
</svg>
