<?xml version="1.0" standalone="no"?>
<!DOCTYPE svg PUBLIC "-//W3C//DTD SVG 20010904//EN"
 "http://www.w3.org/TR/2001/REC-SVG-20010904/DTD/svg10.dtd">
<svg version="1.0" xmlns="http://www.w3.org/2000/svg"
 width="32.000000pt" height="32.000000pt" viewBox="0 0 32.000000 32.000000"
 preserveAspectRatio="xMidYMid meet">
<metadata>
Created by potrace 1.16, written by Peter Selinger 2001-2019
</metadata>
<g transform="translate(0.000000,32.000000) scale(0.100000,-0.100000)"
fill="#000000" stroke="none">
<path fill="#000000" stroke="none" d="M0 160 l0 -160 160 0 160 0 0 160 0
160 -160 0 -160 0 0 -160z"/>
<path fill="#ffffff" stroke="none" d="M300 295 c-7 -8 -9 -15 -5 -15 4 0 2
-6 -4 -14 -9 -11 -9 -15 1 -18 7 -3 -1 -12 -20 -22 -24 -12 -37 -14 -46 -7 -7
6 -17 7 -21 3 -5 -4 -5 -2 -1 5 3 6 17 10 31 7 13 -2 27 0 30 6 3 5 1 10 -6
10 -7 0 0 14 16 30 30 31 47 41 25 15z"/>
<path fill="#ffffff" stroke="none" d="M193 230 c-3 -11 -9 -18 -13 -15 -4 2
-16 -3 -26 -11 -10 -9 -12 -12 -4 -8 10 4 8 0 -4 -12 -13 -14 -20 -15 -23 -6
-3 6 -9 12 -14 12 -6 0 -8 -4 -5 -9 3 -5 -2 -15 -12 -22 -16 -13 -16 -13 -2 5
14 18 13 19 -3 13 -14 -5 -18 -3 -15 11 2 9 6 15 10 12 3 -3 18 6 33 20 22 21
25 22 19 5 -7 -17 -5 -18 8 -8 8 7 17 11 20 8 3 -3 11 1 18 10 17 20 19 19 13
-5z"/>
<path fill="#ffffff" stroke="none" d="M229 164 c-10 -12 -6 -18 12 -16 3 1 6
-6 6 -14 0 -18 -2 -18 -22 2 -13 13 -13 19 -3 32 11 13 10 15 -10 10 -19 -5
-21 -4 -11 8 9 11 15 12 25 3 11 -9 11 -15 3 -25z"/>
<path fill="#ffffff" stroke="none" d="M60 169 c0 -6 -4 -7 -10 -4 -5 3 -10
11 -10 16 0 6 5 7 10 4 6 -3 10 -11 10 -16z"/>
<path fill="#ffffff" stroke="none" d="M160 133 c0 -3 -3 -3 -6 0 -4 3 -14 2
-24 -3 -22 -12 -33 -2 -17 15 12 12 47 3 47 -12z"/>
<path fill="#ffffff" stroke="none" d="M287 116 c2 -19 -2 -38 -7 -41 -7 -4
-9 3 -6 19 3 15 0 26 -6 26 -6 0 -6 6 2 15 7 8 13 15 14 15 0 0 2 -16 3 -34z"/>
<path fill="#ffffff" stroke="none" d="M74 121 c-3 -4 -7 -4 -9 -1 -2 3 -10
-3 -17 -12 -9 -13 -17 -15 -28 -8 -13 8 -12 10 3 10 10 0 16 4 13 8 -2 4 6 8
19 8 14 0 22 -2 19 -5z"/>
<path fill="#ffffff" stroke="none" d="M178 112 c16 11 16 11 0 -6 -17 -19
-44 -13 -31 7 5 8 8 8 11 -1 3 -10 7 -10 20 0z"/>
<path fill="#ffffff" stroke="none" d="M183 78 c-11 -13 -26 -33 -32 -45 -17
-33 -43 -31 -28 1 7 14 13 23 15 21 2 -1 15 8 29 21 33 30 43 31 16 2z"/>
<path fill="#ffffff" stroke="none" d="M60 70 c0 -5 -2 -10 -4 -10 -3 0 -8 5
-11 10 -3 6 -1 10 4 10 6 0 11 -4 11 -10z"/>
<path fill="#ffffff" stroke="none" d="M34 38 c-7 -10 -24 -10 -24 0 0 5 7 9
15 9 8 0 12 -4 9 -9z"/>
</g>
</svg>
