<?xml version="1.0" standalone="no"?>
<!DOCTYPE svg PUBLIC "-//W3C//DTD SVG 20010904//EN"
 "http://www.w3.org/TR/2001/REC-SVG-20010904/DTD/svg10.dtd">
<svg version="1.0" xmlns="http://www.w3.org/2000/svg"
 width="26.000000pt" height="26.000000pt" viewBox="0 0 26.000000 26.000000"
 preserveAspectRatio="xMidYMid meet">
<metadata>
Created by potrace 1.16, written by Peter Selinger 2001-2019
</metadata>
<g transform="translate(0.000000,26.000000) scale(0.100000,-0.100000)"
fill="#000000" stroke="none">
<path fill="#000000" stroke="none" d="M85 234 c-16 -17 -49 -75 -43 -78 2 -1
15 -8 31 -16 15 -7 27 -20 27 -29 0 -13 -1 -13 -12 1 -7 8 -21 18 -31 21 -14
5 -17 0 -17 -38 0 -35 5 -47 26 -64 35 -27 93 -27 127 -1 44 35 33 152 -18
204 -21 21 -69 21 -90 0z"/>
<path fill="#ffffff" stroke="none" d="M150 50 c0 -5 -4 -10 -10 -10 -5 0 -10
5 -10 10 0 6 5 10 10 10 6 0 10 -4 10 -10z"/>
</g>
</svg>
