<?xml version="1.0" standalone="no"?>
<!DOCTYPE svg PUBLIC "-//W3C//DTD SVG 20010904//EN"
 "http://www.w3.org/TR/2001/REC-SVG-20010904/DTD/svg10.dtd">
<svg version="1.0" xmlns="http://www.w3.org/2000/svg"
 width="26.000000pt" height="26.000000pt" viewBox="0 0 26.000000 26.000000"
 preserveAspectRatio="xMidYMid meet">
<metadata>
Created by potrace 1.16, written by Peter Selinger 2001-2019
</metadata>
<g transform="translate(0.000000,26.000000) scale(0.100000,-0.100000)"
fill="#000000" stroke="none">
<path fill="#000000" stroke="none" d="M84 225 c-14 -14 -23 -32 -20 -40 2 -7
0 -16 -7 -18 -19 -7 -5 -15 33 -19 29 -2 35 0 35 17 0 11 6 25 14 31 17 13 6
54 -15 54 -8 0 -26 -11 -40 -25z"/>
<path fill="#ffffff" stroke="none" d="M117 164 c-3 -3 -12 -4 -19 -1 -8 3 -5
6 6 6 11 1 17 -2 13 -5z"/>
<path fill="#000000" stroke="none" d="M155 230 c3 -5 11 -10 16 -10 6 0 7 5
4 10 -3 6 -11 10 -16 10 -6 0 -7 -4 -4 -10z"/>
<path fill="#000000" stroke="none" d="M153 193 c-7 -2 -13 -11 -13 -19 0 -17
26 -19 33 -1 4 10 6 10 6 0 1 -7 8 -13 16 -13 13 0 14 4 5 20 -11 20 -23 23
-47 13z"/>
<path fill="#000000" stroke="none" d="M125 139 c-4 -6 -13 -8 -21 -5 -12 4
-12 0 0 -27 8 -19 20 -31 29 -31 20 2 23 -26 5 -44 -22 -22 27 -14 56 9 43 34
31 69 -25 69 -11 0 -18 4 -14 9 5 10 37 7 55 -4 6 -3 10 4 10 16 0 18 -2 19
-15 9 -10 -9 -15 -9 -15 -1 0 14 -57 15 -65 0z"/>
<path fill="#ffffff" stroke="none" d="M190 90 c0 -5 -2 -10 -4 -10 -3 0 -8 5
-11 10 -3 6 -1 10 4 10 6 0 11 -4 11 -10z"/>
<path fill="#000000" stroke="none" d="M40 95 c0 -19 5 -35 10 -35 6 0 10 -7
10 -15 0 -23 36 -37 50 -20 12 14 10 24 -9 55 -5 8 -12 23 -15 33 -3 9 -15 17
-26 17 -16 0 -20 -6 -20 -35z"/>
<path fill="#ffffff" stroke="none" d="M70 75 c11 -13 10 -14 -4 -9 -9 3 -16
10 -16 15 0 13 6 11 20 -6z"/>
</g>
</svg>
