<?xml version="1.0" standalone="no"?>
<!DOCTYPE svg PUBLIC "-//W3C//DTD SVG 20010904//EN"
 "http://www.w3.org/TR/2001/REC-SVG-20010904/DTD/svg10.dtd">
<svg version="1.0" xmlns="http://www.w3.org/2000/svg"
 width="32.000000pt" height="32.000000pt" viewBox="0 0 32.000000 32.000000"
 preserveAspectRatio="xMidYMid meet">
<metadata>
Created by potrace 1.16, written by Peter Selinger 2001-2019
</metadata>
<g transform="translate(0.000000,32.000000) scale(0.100000,-0.100000)"
fill="#000000" stroke="none">
<path fill="#000000" stroke="none" d="M79 279 c-33 -36 -36 -49 -11 -49 14 0
15 -2 2 -10 -13 -8 -13 -10 1 -10 9 0 24 9 34 20 13 14 21 17 26 9 4 -7 -5
-22 -22 -36 -16 -14 -27 -29 -24 -34 4 -5 20 5 36 22 23 23 29 37 25 55 -5 17
-1 26 14 34 27 15 16 30 -22 30 -21 0 -39 -9 -59 -31z"/>
<path fill="#ffffff" stroke="none" d="M145 290 c-3 -5 -12 -10 -18 -10 -7 0
-6 4 3 10 19 12 23 12 15 0z"/>
<path fill="#ffffff" stroke="none" d="M110 261 c0 -12 -20 -25 -27 -18 -7 7
6 27 18 27 5 0 9 -4 9 -9z"/>
<path fill="#000000" stroke="none" d="M232 274 c-22 -15 -31 -64 -12 -64 6 0
10 -5 10 -11 0 -6 11 -25 26 -41 14 -17 23 -37 20 -44 -3 -8 1 -14 10 -14 21
0 10 33 -28 86 -17 23 -28 50 -26 60 4 25 44 26 42 2 -1 -10 2 -18 7 -18 15 0
10 26 -9 43 -16 15 -20 15 -40 1z"/>
<path fill="#000000" stroke="none" d="M146 148 c-20 -28 -20 -38 -2 -38 8 0
25 -12 37 -27 22 -29 23 -20 4 32 -7 16 -6 18 6 8 17 -17 39 -16 39 1 0 14
-41 46 -59 46 -5 0 -17 -10 -25 -22z"/>
<path fill="#000000" stroke="none" d="M46 138 c-21 -32 -9 -81 21 -92 12 -5
13 -3 6 6 -13 18 -14 58 -1 58 6 0 6 6 -2 15 -10 12 -9 15 4 15 10 0 14 5 11
10 -10 16 -23 12 -39 -12z"/>
<path fill="#000000" stroke="none" d="M110 86 c0 -15 18 -31 26 -23 7 7 -7
37 -17 37 -5 0 -9 -6 -9 -14z"/>
<path fill="#000000" stroke="none" d="M230 83 c0 -5 9 -14 20 -21 11 -7 20
-8 20 -2 0 5 -9 14 -20 20 -11 6 -20 7 -20 3z"/>
<path fill="#000000" stroke="none" d="M281 34 c0 -11 3 -14 6 -6 3 7 2 16 -1
19 -3 4 -6 -2 -5 -13z"/>
<path fill="#000000" stroke="none" d="M20 10 c-13 -8 -12 -10 3 -10 9 0 17 5
17 10 0 12 -1 12 -20 0z"/>
<path fill="#000000" stroke="none" d="M238 3 c7 -3 16 -2 19 1 4 3 -2 6 -13
5 -11 0 -14 -3 -6 -6z"/>
</g>
</svg>
