<?xml version="1.0" standalone="no"?>
<!DOCTYPE svg PUBLIC "-//W3C//DTD SVG 20010904//EN"
 "http://www.w3.org/TR/2001/REC-SVG-20010904/DTD/svg10.dtd">
<svg version="1.0" xmlns="http://www.w3.org/2000/svg"
 width="26.000000pt" height="26.000000pt" viewBox="0 0 26.000000 26.000000"
 preserveAspectRatio="xMidYMid meet">
<metadata>
Created by potrace 1.16, written by Peter Selinger 2001-2019
</metadata>
<g transform="translate(0.000000,26.000000) scale(0.100000,-0.100000)"
fill="#000000" stroke="none">
<path fill="#000000" stroke="none" d="M0 130 l0 -130 130 0 130 0 0 130 0
130 -130 0 -130 0 0 -130z"/>
<path fill="#ffffff" stroke="none" d="M146 225 c-3 -8 2 -18 10 -23 21 -12
25 -59 5 -67 -12 -5 -12 -8 -3 -14 16 -9 5 -41 -14 -41 -8 0 -14 -5 -14 -11 0
-6 -9 -9 -20 -6 -11 3 -20 0 -20 -6 0 -14 -15 2 -15 16 0 7 -9 11 -19 10 -16
-1 -18 4 -13 40 3 23 11 43 16 45 6 2 11 10 11 18 0 8 9 23 20 34 24 24 65 28
56 5z"/>
<path fill="#ffffff" stroke="none" d="M180 67 c0 -2 -10 -12 -22 -23 l-23
-19 19 23 c18 21 26 27 26 19z"/>
<path fill="#000000" stroke="none" d="M145 170 c3 -5 8 -10 11 -10 2 0 4 5 4
10 0 6 -5 10 -11 10 -5 0 -7 -4 -4 -10z"/>
<path fill="#000000" stroke="none" d="M57 121 c3 -12 9 -21 14 -21 14 0 11
16 -5 29 -12 10 -13 8 -9 -8z"/>
<path fill="#000000" stroke="none" d="M97 106 c-4 -10 -5 -21 -2 -24 9 -9 17
6 13 25 -3 17 -4 17 -11 -1z"/>
</g>
</svg>
