<?xml version="1.0" standalone="no"?>
<!DOCTYPE svg PUBLIC "-//W3C//DTD SVG 20010904//EN"
 "http://www.w3.org/TR/2001/REC-SVG-20010904/DTD/svg10.dtd">
<svg version="1.0" xmlns="http://www.w3.org/2000/svg"
 width="26.000000pt" height="26.000000pt" viewBox="0 0 26.000000 26.000000"
 preserveAspectRatio="xMidYMid meet">
<metadata>
Created by potrace 1.16, written by Peter Selinger 2001-2019
</metadata>
<g transform="translate(0.000000,26.000000) scale(0.100000,-0.100000)"
fill="#000000" stroke="none">
<path fill="#000000" stroke="none" d="M0 130 l0 -130 130 0 130 0 0 130 0
130 -130 0 -130 0 0 -130z"/>
<path fill="#ffffff" stroke="none" d="M172 238 c21 -17 58 -87 58 -110 0 -10
-6 -18 -12 -19 -10 0 -10 -2 0 -6 21 -8 13 -41 -15 -68 -39 -35 -107 -35 -146
0 -21 20 -27 35 -27 66 0 37 2 40 23 34 12 -4 28 -14 35 -23 11 -14 12 -14 12
0 0 9 -13 21 -30 28 -35 14 -36 21 -13 58 24 38 43 52 73 52 14 0 33 -6 42
-12z"/>
<path fill="#000000" stroke="none" d="M130 50 c0 -5 5 -10 10 -10 6 0 10 5
10 10 0 6 -4 10 -10 10 -5 0 -10 -4 -10 -10z"/>
</g>
</svg>
