<?xml version="1.0" standalone="no"?>
<!DOCTYPE svg PUBLIC "-//W3C//DTD SVG 20010904//EN"
 "http://www.w3.org/TR/2001/REC-SVG-20010904/DTD/svg10.dtd">
<svg version="1.0" xmlns="http://www.w3.org/2000/svg"
 width="32.000000pt" height="32.000000pt" viewBox="0 0 32.000000 32.000000"
 preserveAspectRatio="xMidYMid meet">
<metadata>
Created by potrace 1.16, written by Peter Selinger 2001-2019
</metadata>
<g transform="translate(0.000000,32.000000) scale(0.100000,-0.100000)"
fill="#000000" stroke="none">
<path fill="#000000" stroke="none" d="M110 297 c-14 -7 -25 -21 -25 -31 0
-27 21 -31 28 -6 4 17 10 20 29 15 34 -11 43 -22 30 -38 -7 -8 -10 -16 -7 -18
2 -3 -6 -5 -18 -5 -12 0 -25 5 -29 10 -5 7 -8 4 -8 -6 0 -10 5 -18 12 -18 18
0 0 -14 -24 -17 -18 -3 -19 -1 -7 14 11 16 11 16 -1 5 -8 -7 -15 -18 -15 -25
0 -7 -10 -11 -22 -11 -13 1 -20 -3 -17 -7 3 -5 11 -6 17 -2 8 5 8 2 0 -9 -7
-8 -10 -18 -6 -21 3 -4 0 -7 -7 -7 -7 0 -11 -3 -7 -6 3 -4 0 -13 -8 -21 -8 -8
-15 -21 -15 -29 0 -12 6 -11 30 6 17 12 37 19 45 16 8 -3 17 -1 20 4 3 5 19 8
34 7 16 -1 27 -6 23 -11 -3 -5 3 -6 13 -2 10 3 26 4 37 0 16 -5 17 -8 6 -22
-11 -15 -11 -15 3 -5 12 10 24 10 48 2 18 -6 34 -9 37 -6 7 7 -27 87 -36 87
-5 0 -2 -12 6 -27 17 -33 18 -43 4 -43 -5 0 -10 10 -10 23 0 13 -3 27 -7 31
-5 4 -8 13 -8 19 0 7 -10 11 -23 9 -12 -2 -22 2 -22 8 0 6 5 8 11 5 6 -4 5 3
-3 15 -11 18 -11 22 5 31 9 6 15 14 12 19 -3 5 0 12 6 15 16 11 -51 65 -80 65
-14 0 -37 -6 -51 -13z"/>
<path fill="#ffffff" stroke="none" d="M198 284 c13 -9 22 -26 22 -41 l0 -26
-22 29 c-13 16 -21 30 -20 33 2 2 -2 8 -10 12 -7 5 -8 9 -3 9 6 0 21 -7 33
-16z"/>
<path fill="#ffffff" stroke="none" d="M120 286 c0 -2 -7 -7 -16 -10 -8 -3
-12 -2 -9 4 6 10 25 14 25 6z"/>
<path fill="#ffffff" stroke="none" d="M210 110 c8 -5 11 -10 5 -10 -5 0 -17
5 -25 10 -8 5 -10 10 -5 10 6 0 17 -5 25 -10z"/>
<path fill="#000000" stroke="none" d="M285 180 c-4 -6 -11 -7 -17 -4 -7 4 -8
2 -4 -5 6 -9 11 -9 22 0 14 11 18 19 10 19 -3 0 -8 -5 -11 -10z"/>
<path fill="#000000" stroke="none" d="M34 44 c-18 -15 -18 -15 2 -5 12 6 25
7 29 3 5 -4 5 -1 1 6 -9 15 -8 15 -32 -4z"/>
</g>
</svg>
