<?xml version="1.0" standalone="no"?>
<!DOCTYPE svg PUBLIC "-//W3C//DTD SVG 20010904//EN"
 "http://www.w3.org/TR/2001/REC-SVG-20010904/DTD/svg10.dtd">
<svg version="1.0" xmlns="http://www.w3.org/2000/svg"
 width="32.000000pt" height="32.000000pt" viewBox="0 0 32.000000 32.000000"
 preserveAspectRatio="xMidYMid meet">
<metadata>
Created by potrace 1.16, written by Peter Selinger 2001-2019
</metadata>
<g transform="translate(0.000000,32.000000) scale(0.100000,-0.100000)"
fill="#000000" stroke="none">
<path fill="#000000" stroke="none" d="M0 160 l0 -160 160 0 160 0 0 160 0
160 -160 0 -160 0 0 -160z"/>
<path fill="#ffffff" stroke="none" d="M194 301 c4 -5 -3 -7 -14 -4 -23 6 -26
13 -6 13 8 0 17 -4 20 -9z"/>
<path fill="#ffffff" stroke="none" d="M164 290 c11 0 16 -3 13 -7 -4 -3 -2
-12 4 -19 6 -8 9 -21 5 -29 -3 -8 -1 -15 3 -15 5 0 12 6 14 13 3 6 6 1 6 -12
1 -13 -2 -21 -6 -18 -12 13 -33 -14 -24 -32 12 -21 -7 -47 -51 -70 -34 -17
-75 -18 -47 -1 10 7 10 12 0 23 -15 19 -2 28 27 20 21 -5 21 -6 5 -19 -16 -12
-16 -12 7 -7 48 12 55 48 8 38 -25 -5 -29 -4 -18 4 26 19 -4 12 -37 -8 -27
-17 -31 -17 -29 -4 2 9 13 17 25 18 13 1 26 7 31 14 9 16 21 16 30 2 4 -7 15
-2 30 14 13 14 19 25 13 25 -6 0 -13 -7 -17 -15 -3 -8 -11 -15 -18 -15 -6 0 1
14 17 30 30 32 28 42 -13 55 -19 5 -25 2 -29 -14 -3 -12 -9 -21 -13 -21 -5 0
-6 9 -3 20 3 11 10 20 17 20 6 0 4 5 -4 11 -12 8 -10 9 10 5 14 -3 34 -6 44
-6z"/>
<path fill="#ffffff" stroke="none" d="M231 272 c12 -14 13 -21 3 -29 -9 -9
-13 -5 -16 18 -3 16 -4 29 -3 29 0 0 8 -8 16 -18z"/>
<path fill="#ffffff" stroke="none" d="M220 174 c0 -2 -7 -4 -15 -4 -8 0 -15
4 -15 10 0 5 7 7 15 4 8 -4 15 -8 15 -10z"/>
<path fill="#ffffff" stroke="none" d="M215 140 c-3 -4 3 -7 12 -5 10 1 17 9
15 16 -2 8 0 10 4 6 13 -12 13 -37 1 -38 -16 -2 -39 1 -56 7 -10 3 -11 7 -1
19 12 15 35 11 25 -5z"/>
<path fill="#ffffff" stroke="none" d="M75 120 c3 -5 -1 -10 -10 -10 -9 0 -13
5 -10 10 3 6 8 10 10 10 2 0 7 -4 10 -10z"/>
<path fill="#ffffff" stroke="none" d="M232 97 c9 1 19 -5 22 -13 3 -9 15 -14
28 -12 11 2 23 -3 25 -9 7 -19 -12 -16 -58 8 -22 11 -50 19 -62 19 -12 -1 -29
-2 -37 -1 -13 1 -13 2 0 11 8 5 26 6 40 3 14 -4 33 -6 42 -6z"/>
<path fill="#ffffff" stroke="none" d="M54 91 c3 -4 -6 -13 -19 -19 -15 -7
-25 -8 -25 -2 0 6 5 10 11 10 5 0 7 5 4 10 -3 6 1 10 9 10 8 0 17 -4 20 -9z"/>
</g>
</svg>
