<?xml version="1.0" standalone="no"?>
<!DOCTYPE svg PUBLIC "-//W3C//DTD SVG 20010904//EN"
 "http://www.w3.org/TR/2001/REC-SVG-20010904/DTD/svg10.dtd">
<svg version="1.0" xmlns="http://www.w3.org/2000/svg"
 width="32.000000pt" height="32.000000pt" viewBox="0 0 32.000000 32.000000"
 preserveAspectRatio="xMidYMid meet">
<metadata>
Created by potrace 1.16, written by Peter Selinger 2001-2019
</metadata>
<g transform="translate(0.000000,32.000000) scale(0.100000,-0.100000)"
fill="#000000" stroke="none">
<path fill="#000000" stroke="none" d="M55 289 c44 -22 69 -29 93 -25 23 3 32
1 29 -7 -2 -7 -19 -11 -39 -9 -24 2 -40 -3 -53 -18 -24 -26 -39 -26 -23 1 11
18 10 23 -15 45 -15 13 -33 24 -40 24 -7 -1 -1 -7 13 -16 l25 -15 -25 6 -25 6
28 -22 c22 -17 25 -24 16 -35 -22 -26 5 -37 34 -14 l26 21 -2 -21 c-1 -20 -12
-25 -62 -32 -47 -7 -47 -50 1 -73 46 -22 53 -15 9 10 -56 30 -48 44 34 60 19
4 53 25 77 47 45 41 59 34 32 -15 -10 -20 -10 -21 5 -8 10 7 17 27 17 44 0 29
1 30 17 15 14 -15 15 -21 4 -44 -11 -24 -10 -26 3 -14 27 22 17 -5 -11 -31
-23 -21 -25 -22 -19 -4 7 19 7 19 -11 2 -17 -18 -17 -19 6 -35 46 -32 111
-107 96 -110 -27 -6 -76 30 -106 78 -17 28 -32 50 -33 50 -1 0 -2 -10 -2 -21
1 -27 -21 -37 -27 -12 -4 14 -5 14 -6 2 0 -9 -12 -21 -24 -28 -29 -15 -83 -11
-80 6 2 7 -2 13 -7 13 -6 0 -10 -12 -9 -27 0 -16 3 -23 5 -17 3 7 14 9 25 7
16 -5 18 -8 7 -14 -11 -7 -11 -9 1 -9 9 0 11 -8 6 -27 l-6 -26 132 7 c72 3
136 9 141 12 5 3 3 13 -7 24 -8 9 -13 24 -10 33 4 9 -3 21 -17 31 -22 15 -22
16 -2 16 28 0 36 10 23 27 -9 9 -8 13 0 13 6 0 11 12 11 26 0 23 -2 25 -15 14
-9 -7 -18 -10 -22 -6 -3 3 -1 6 6 6 8 0 7 8 -3 29 -18 33 -82 75 -99 64 -7 -4
-16 -8 -22 -8 -5 -1 -18 -5 -27 -9 -11 -5 -32 1 -61 18 -24 14 -50 26 -58 26
-8 0 13 -14 46 -31z"/>
<path fill="#ffffff" stroke="none" d="M205 280 c3 -5 1 -10 -4 -10 -6 0 -11
5 -11 10 0 6 2 10 4 10 3 0 8 -4 11 -10z"/>
<path fill="#ffffff" stroke="none" d="M127 234 c-3 -3 -12 -4 -19 -1 -8 3 -5
6 6 6 11 1 17 -2 13 -5z"/>
<path fill="#ffffff" stroke="none" d="M135 210 c-3 -5 -12 -10 -18 -10 -7 0
-6 4 3 10 19 12 23 12 15 0z"/>
<path fill="#ffffff" stroke="none" d="M285 150 c18 -19 17 -20 -2 -20 -11 0
-28 9 -38 20 -18 19 -17 20 2 20 11 0 28 -9 38 -20z"/>
<path fill="#ffffff" stroke="none" d="M74 45 c-4 -8 -8 -15 -10 -15 -2 0 -4
7 -4 15 0 8 4 15 10 15 5 0 7 -7 4 -15z"/>
<path fill="#000000" stroke="none" d="M0 20 c0 -5 5 -10 11 -10 5 0 7 5 4 10
-3 6 -8 10 -11 10 -2 0 -4 -4 -4 -10z"/>
</g>
</svg>
