<?xml version="1.0" standalone="no"?>
<!DOCTYPE svg PUBLIC "-//W3C//DTD SVG 20010904//EN"
 "http://www.w3.org/TR/2001/REC-SVG-20010904/DTD/svg10.dtd">
<svg version="1.0" xmlns="http://www.w3.org/2000/svg"
 width="32.000000pt" height="32.000000pt" viewBox="0 0 32.000000 32.000000"
 preserveAspectRatio="xMidYMid meet">
<metadata>
Created by potrace 1.16, written by Peter Selinger 2001-2019
</metadata>
<g transform="translate(0.000000,32.000000) scale(0.100000,-0.100000)"
fill="#000000" stroke="none">
<path fill="#000000" stroke="none" d="M135 270 c-9 -16 -13 -30 -11 -30 3 0
12 14 21 30 9 17 13 30 11 30 -3 0 -12 -13 -21 -30z"/>
<path fill="#000000" stroke="none" d="M213 260 c-35 -16 -63 -31 -63 -34 0
-6 80 1 87 8 4 3 -2 6 -13 6 -14 1 -9 6 16 20 40 22 65 26 54 8 -4 -7 -3 -8 4
-4 18 11 14 26 -5 26 -10 0 -46 -13 -80 -30z"/>
<path fill="#000000" stroke="none" d="M69 230 c0 -3 -2 -13 -4 -22 -4 -20 10
-24 21 -7 3 6 1 16 -5 22 -6 6 -11 9 -12 7z"/>
<path fill="#000000" stroke="none" d="M171 174 c0 -11 3 -14 6 -6 3 7 2 16
-1 19 -3 4 -6 -2 -5 -13z"/>
<path fill="#000000" stroke="none" d="M220 170 c0 -5 5 -10 11 -10 5 0 7 5 4
10 -3 6 -8 10 -11 10 -2 0 -4 -4 -4 -10z"/>
<path fill="#000000" stroke="none" d="M110 159 c0 -5 5 -7 10 -4 6 3 10 8 10
11 0 2 -4 4 -10 4 -5 0 -10 -5 -10 -11z"/>
<path fill="#000000" stroke="none" d="M152 150 c0 -14 2 -19 5 -12 2 6 2 18
0 25 -3 6 -5 1 -5 -13z"/>
<path fill="#000000" stroke="none" d="M181 134 c0 -11 3 -14 6 -6 3 7 2 16
-1 19 -3 4 -6 -2 -5 -13z"/>
<path fill="#000000" stroke="none" d="M121 124 c0 -11 3 -14 6 -6 3 7 2 16
-1 19 -3 4 -6 -2 -5 -13z"/>
<path fill="#000000" stroke="none" d="M163 85 c0 -22 2 -30 4 -17 2 12 2 30
0 40 -3 9 -5 -1 -4 -23z"/>
<path fill="#000000" stroke="none" d="M192 90 c0 -14 2 -19 5 -12 2 6 2 18 0
25 -3 6 -5 1 -5 -13z"/>
<path fill="#000000" stroke="none" d="M236 42 l-19 -27 26 24 c28 26 32 31
20 31 -5 0 -17 -13 -27 -28z"/>
</g>
</svg>
