<?xml version="1.0" standalone="no"?>
<!DOCTYPE svg PUBLIC "-//W3C//DTD SVG 20010904//EN"
 "http://www.w3.org/TR/2001/REC-SVG-20010904/DTD/svg10.dtd">
<svg version="1.0" xmlns="http://www.w3.org/2000/svg"
 width="32.000000pt" height="32.000000pt" viewBox="0 0 32.000000 32.000000"
 preserveAspectRatio="xMidYMid meet">
<metadata>
Created by potrace 1.16, written by Peter Selinger 2001-2019
</metadata>
<g transform="translate(0.000000,32.000000) scale(0.100000,-0.100000)"
fill="#000000" stroke="none">
<path fill="#000000" stroke="none" d="M80 275 c-14 -17 -2 -25 42 -25 35 0
37 -2 26 -19 -11 -18 -13 -18 -23 -4 -13 17 -35 10 -35 -11 0 -8 -6 -13 -14
-12 -7 0 -28 -17 -45 -39 -27 -33 -32 -46 -29 -84 3 -40 6 -45 31 -48 15 -2
36 1 46 7 14 7 22 7 26 -1 5 -6 12 -4 22 8 8 10 12 13 9 7 -3 -7 1 -14 9 -18
8 -3 15 0 15 6 0 9 3 9 12 0 17 -17 71 -15 113 5 31 15 35 21 35 55 0 21 -3
38 -7 38 -14 0 -31 48 -22 62 17 26 8 44 -32 61 -22 10 -44 15 -50 12 -5 -4
-9 -2 -9 3 0 13 -109 11 -120 -3z"/>
<path fill="#ffffff" stroke="none" d="M190 266 c0 -4 7 -6 15 -2 8 3 15 1 15
-5 0 -6 7 -9 15 -5 8 3 14 0 12 -7 -1 -7 5 -11 13 -10 21 4 19 -40 -2 -64 -10
-12 -13 -25 -8 -38 8 -22 -5 -45 -25 -45 -7 0 -15 -7 -19 -15 -3 -8 -13 -15
-21 -15 -9 0 -13 5 -10 10 3 5 2 10 -4 10 -5 0 -11 -5 -13 -11 -4 -13 -38 -1
-38 14 0 37 -71 62 -98 35 -9 -9 -12 -9 -12 0 0 7 11 24 25 38 14 14 25 30 26
37 0 9 2 9 6 0 9 -24 33 -14 34 15 l1 27 12 -27 c9 -22 15 -25 24 -16 7 7 12
18 12 26 0 7 5 10 11 7 6 -4 8 -13 5 -21 -3 -7 -1 -16 5 -19 5 -4 9 -3 8 2 -1
4 1 16 6 26 6 15 10 15 24 5 14 -12 14 -11 2 4 -7 10 -17 16 -21 13 -4 -3 -13
2 -20 10 -7 9 -29 15 -52 15 -21 0 -37 3 -35 8 7 10 107 9 107 -2z"/>
<path fill="#ffffff" stroke="none" d="M277 145 c-8 -9 -14 -10 -19 -2 -9 16
0 27 17 21 11 -5 12 -9 2 -19z"/>
<path fill="#ffffff" stroke="none" d="M98 108 c7 -7 12 -21 12 -32 0 -16 -3
-17 -12 -8 -15 15 -28 15 -28 1 0 -5 6 -7 13 -3 9 5 9 4 0 -6 -6 -7 -24 -13
-40 -15 -23 -2 -29 2 -31 19 -1 17 1 18 8 6 6 -9 10 -10 10 -3 0 6 -5 15 -10
18 -18 11 9 35 39 35 15 0 32 -5 39 -12z"/>
<path fill="#000000" stroke="none" d="M204 155 c3 -21 16 -31 16 -12 0 9 -4
18 -9 21 -5 4 -8 -1 -7 -9z"/>
<path fill="#000000" stroke="none" d="M153 153 c4 -3 1 -13 -6 -22 -11 -14
-10 -14 5 -2 16 12 16 31 1 31 -4 0 -3 -3 0 -7z"/>
</g>
</svg>
