<?xml version="1.0" standalone="no"?>
<!DOCTYPE svg PUBLIC "-//W3C//DTD SVG 20010904//EN"
 "http://www.w3.org/TR/2001/REC-SVG-20010904/DTD/svg10.dtd">
<svg version="1.0" xmlns="http://www.w3.org/2000/svg"
 width="32.000000pt" height="32.000000pt" viewBox="0 0 32.000000 32.000000"
 preserveAspectRatio="xMidYMid meet">
<metadata>
Created by potrace 1.16, written by Peter Selinger 2001-2019
</metadata>
<g transform="translate(0.000000,32.000000) scale(0.100000,-0.100000)"
fill="#000000" stroke="none">
<path fill="#000000" stroke="none" d="M0 160 l0 -160 160 0 160 0 0 160 0
160 -160 0 -160 0 0 -160z"/>
<path fill="#ffffff" stroke="none" d="M257 285 c9 -8 8 -16 -4 -34 -10 -15
-11 -21 -2 -16 7 5 10 4 6 -2 -9 -14 -57 -23 -57 -10 0 5 -6 5 -14 -2 -7 -6
-21 -8 -30 -5 -14 5 -14 9 -4 22 7 8 12 18 10 21 -1 3 5 14 13 24 17 19 60 20
82 2z"/>
<path fill="#ffffff" stroke="none" d="M140 246 c0 -2 -13 -3 -29 -2 -22 1
-27 4 -19 13 7 9 16 10 29 2 10 -5 19 -11 19 -13z"/>
<path fill="#ffffff" stroke="none" d="M120 226 c0 -9 -30 -14 -35 -6 -4 6 3
10 14 10 12 0 21 -2 21 -4z"/>
<path fill="#ffffff" stroke="none" d="M168 198 c8 -8 6 -18 -9 -40 -18 -24
-22 -26 -35 -14 -11 12 -12 20 -2 40 12 28 27 33 46 14z"/>
<path fill="#ffffff" stroke="none" d="M247 204 c12 -3 24 -12 27 -19 4 -11
-1 -11 -25 -3 -49 17 -51 35 -2 22z"/>
<path fill="#ffffff" stroke="none" d="M65 180 c-10 -11 -13 -20 -7 -20 7 0
11 -3 10 -7 -1 -5 4 -25 11 -46 7 -21 11 -40 8 -43 -2 -3 -8 7 -11 22 -4 15
-14 36 -21 47 -14 20 -14 20 -25 -4 l-11 -24 7 25 c3 14 6 33 7 42 1 9 5 14 9
12 4 -3 8 0 8 5 0 6 7 11 17 11 14 0 14 -2 -2 -20z"/>
<path fill="#ffffff" stroke="none" d="M246 136 c7 -20 9 -34 4 -31 -6 4 -10
12 -10 19 0 7 -11 23 -25 36 -31 29 -33 48 -3 28 12 -8 27 -31 34 -52z"/>
<path fill="#ffffff" stroke="none" d="M215 134 c10 -14 7 -25 -12 -60 -14
-24 -27 -44 -30 -44 -2 0 6 20 20 44 22 40 23 46 9 60 -9 9 -12 16 -8 16 5 0
14 -7 21 -16z"/>
<path fill="#ffffff" stroke="none" d="M169 99 c-7 -22 -25 -44 -53 -62 l-41
-28 37 35 c21 20 38 39 39 44 1 4 5 18 10 31 14 36 20 20 8 -20z"/>
</g>
</svg>
