<?xml version="1.0" standalone="no"?>
<!DOCTYPE svg PUBLIC "-//W3C//DTD SVG 20010904//EN"
 "http://www.w3.org/TR/2001/REC-SVG-20010904/DTD/svg10.dtd">
<svg version="1.0" xmlns="http://www.w3.org/2000/svg"
 width="32.000000pt" height="32.000000pt" viewBox="0 0 32.000000 32.000000"
 preserveAspectRatio="xMidYMid meet">
<metadata>
Created by potrace 1.16, written by Peter Selinger 2001-2019
</metadata>
<g transform="translate(0.000000,32.000000) scale(0.100000,-0.100000)"
fill="#000000" stroke="none">
<path fill="#000000" stroke="none" d="M158 290 c-36 -28 -41 -66 -12 -85 21
-13 23 -13 18 0 -4 8 -1 15 6 15 6 0 8 5 5 10 -3 6 -1 10 6 10 7 0 9 3 6 6 -9
9 32 44 50 44 8 0 11 5 8 10 -10 17 -61 11 -87 -10z"/>
<path fill="#000000" stroke="none" d="M260 290 c0 -5 5 -10 11 -10 5 0 7 5 4
10 -3 6 -8 10 -11 10 -2 0 -4 -4 -4 -10z"/>
<path fill="#000000" stroke="none" d="M10 280 c0 -5 5 -10 11 -10 5 0 8 -3 5
-8 -2 -4 2 -16 10 -27 17 -23 18 -18 3 24 -10 29 -29 43 -29 21z"/>
<path fill="#000000" stroke="none" d="M93 278 c7 -22 -20 -73 -39 -73 -10 0
-24 -11 -31 -24 -14 -29 -7 -47 12 -31 10 8 15 8 20 0 4 -6 16 -10 28 -8 16 2
22 -4 29 -29 12 -45 53 -76 92 -67 17 3 38 13 46 21 13 14 13 14 -7 4 -12 -6
-24 -11 -28 -11 -8 0 -78 72 -108 112 -24 31 -25 35 -11 67 17 40 18 51 3 51
-6 0 -9 -6 -6 -12z"/>
<path fill="#000000" stroke="none" d="M204 228 c-12 -35 -13 -48 -4 -48 12 0
30 59 20 65 -5 3 -12 -5 -16 -17z"/>
<path fill="#000000" stroke="none" d="M124 181 c11 -11 23 -21 28 -21 14 0
-1 19 -25 31 -22 12 -22 12 -3 -10z"/>
<path fill="#000000" stroke="none" d="M200 112 c6 -13 14 -21 18 -18 3 4 -2
14 -12 24 -18 16 -18 16 -6 -6z"/>
<path fill="#000000" stroke="none" d="M110 64 c19 -25 42 -44 53 -44 13 0
-23 39 -48 53 -19 9 -19 9 -5 -9z"/>
</g>
</svg>
