<?xml version="1.0" standalone="no"?>
<!DOCTYPE svg PUBLIC "-//W3C//DTD SVG 20010904//EN"
 "http://www.w3.org/TR/2001/REC-SVG-20010904/DTD/svg10.dtd">
<svg version="1.0" xmlns="http://www.w3.org/2000/svg"
 width="32.000000pt" height="32.000000pt" viewBox="0 0 32.000000 32.000000"
 preserveAspectRatio="xMidYMid meet">
<metadata>
Created by potrace 1.16, written by Peter Selinger 2001-2019
</metadata>
<g transform="translate(0.000000,32.000000) scale(0.100000,-0.100000)"
fill="#000000" stroke="none">
<path fill="#000000" stroke="none" d="M0 160 l0 -160 160 0 160 0 0 160 0
160 -160 0 -160 0 0 -160z"/>
<path fill="#ffffff" stroke="none" d="M205 266 c11 -8 16 -19 12 -30 -7 -17
-27 -22 -27 -6 0 6 5 10 12 10 9 0 9 3 0 12 -13 13 -92 19 -92 6 0 -5 -5 -6
-11 -2 -7 4 -10 1 -7 -7 3 -8 11 -13 17 -11 6 1 11 -2 11 -7 0 -5 14 -7 31 -6
19 2 33 -3 36 -11 3 -8 9 -12 13 -9 11 7 59 -51 66 -82 15 -59 -50 -110 -124
-98 -126 22 -145 60 -50 99 41 17 59 7 37 -22 -12 -16 -12 -16 5 -1 16 15 15
19 -18 77 -20 33 -36 65 -36 71 0 29 91 42 125 17z"/>
<path fill="#000000" stroke="none" d="M120 198 c14 -11 24 -25 23 -29 -2 -5
1 -9 6 -9 5 0 12 -11 15 -25 4 -17 13 -25 29 -25 22 1 22 1 -2 14 -23 13 -23
14 -5 18 17 5 17 6 -6 16 -14 6 -21 11 -17 11 11 1 -48 51 -59 51 -5 -1 2 -10
16 -22z"/>
<path fill="#000000" stroke="none" d="M190 190 c-13 -8 -12 -10 3 -10 9 0 17
5 17 10 0 12 -1 12 -20 0z"/>
<path fill="#000000" stroke="none" d="M145 84 c-14 -22 -14 -24 2 -24 10 0
25 -5 33 -11 11 -8 8 -9 -15 -4 -23 5 -27 4 -18 -6 7 -7 22 -9 40 -4 l28 7
-27 14 c-34 18 -36 31 -5 36 l22 3 -22 7 c-16 4 -26 0 -38 -18z"/>
</g>
</svg>
