<?xml version="1.0" standalone="no"?>
<!DOCTYPE svg PUBLIC "-//W3C//DTD SVG 20010904//EN"
 "http://www.w3.org/TR/2001/REC-SVG-20010904/DTD/svg10.dtd">
<svg version="1.0" xmlns="http://www.w3.org/2000/svg"
 width="32.000000pt" height="32.000000pt" viewBox="0 0 32.000000 32.000000"
 preserveAspectRatio="xMidYMid meet">
<metadata>
Created by potrace 1.16, written by Peter Selinger 2001-2019
</metadata>
<g transform="translate(0.000000,32.000000) scale(0.100000,-0.100000)"
fill="#000000" stroke="none">
<path fill="#000000" stroke="none" d="M120 272 c0 -5 7 -9 15 -9 8 0 15 4 15
9 0 4 -7 8 -15 8 -8 0 -15 -4 -15 -8z"/>
<path fill="#000000" stroke="none" d="M166 272 c-3 -5 1 -9 9 -9 8 0 12 4 9
9 -3 4 -7 8 -9 8 -2 0 -6 -4 -9 -8z"/>
<path fill="#000000" stroke="none" d="M130 220 c0 -9 23 -30 33 -30 4 0 5 5
2 10 -3 6 -1 10 4 10 6 0 11 4 11 8 0 4 -11 8 -25 8 -14 0 -25 -3 -25 -6z"/>
<path fill="#000000" stroke="none" d="M210 188 c0 -10 5 -18 10 -18 6 0 10
-7 10 -16 0 -8 4 -13 9 -10 5 4 8 -8 6 -26 -4 -48 -8 -61 -25 -76 -13 -11 -11
-11 8 -2 50 24 53 85 7 137 -19 22 -24 24 -25 11z"/>
<path fill="#000000" stroke="none" d="M141 138 c10 -19 8 -25 -17 -46 -18
-15 -21 -20 -8 -13 36 17 47 37 34 60 -6 12 -13 21 -16 21 -2 0 1 -10 7 -22z"/>
<path fill="#000000" stroke="none" d="M115 130 c-3 -5 -1 -10 4 -10 6 0 11 5
11 10 0 6 -2 10 -4 10 -3 0 -8 -4 -11 -10z"/>
<path fill="#000000" stroke="none" d="M80 110 c0 -5 10 -10 23 -10 18 0 19 2
7 10 -19 13 -30 13 -30 0z"/>
<path fill="#000000" stroke="none" d="M50 90 c0 -5 10 -10 23 -10 18 0 19 2
7 10 -19 13 -30 13 -30 0z"/>
</g>
</svg>
