<?xml version="1.0" standalone="no"?>
<!DOCTYPE svg PUBLIC "-//W3C//DTD SVG 20010904//EN"
 "http://www.w3.org/TR/2001/REC-SVG-20010904/DTD/svg10.dtd">
<svg version="1.0" xmlns="http://www.w3.org/2000/svg"
 width="32.000000pt" height="32.000000pt" viewBox="0 0 32.000000 32.000000"
 preserveAspectRatio="xMidYMid meet">
<metadata>
Created by potrace 1.16, written by Peter Selinger 2001-2019
</metadata>
<g transform="translate(0.000000,32.000000) scale(0.100000,-0.100000)"
fill="#000000" stroke="none">
<path fill="#000000" stroke="none" d="M0 160 l0 -160 160 0 160 0 0 160 0
160 -160 0 -160 0 0 -160z"/>
<path fill="#ffffff" stroke="none" d="M67 264 c24 -5 29 -10 26 -27 -2 -12 3
-31 11 -42 16 -20 16 -20 22 3 5 18 9 20 20 11 11 -9 17 -9 28 0 11 9 15 7 20
-11 6 -23 6 -23 22 -3 8 11 13 30 11 42 -3 17 2 22 26 27 50 10 61 8 48 -8 -8
-10 -9 -21 -3 -33 11 -22 -6 -67 -28 -71 -8 -2 -17 -8 -18 -13 -3 -6 -10 -5
-18 2 -18 15 -51 -8 -34 -25 22 -22 8 -28 -15 -6 l-25 23 -25 -23 c-23 -22
-37 -16 -15 6 17 17 -16 40 -34 25 -8 -7 -15 -8 -18 -2 -1 5 -10 11 -18 13
-22 4 -39 49 -28 71 6 12 5 23 -3 33 -13 16 -2 18 48 8z"/>
</g>
</svg>
