<?xml version="1.0" standalone="no"?>
<!DOCTYPE svg PUBLIC "-//W3C//DTD SVG 20010904//EN"
 "http://www.w3.org/TR/2001/REC-SVG-20010904/DTD/svg10.dtd">
<svg version="1.0" xmlns="http://www.w3.org/2000/svg"
 width="32.000000pt" height="32.000000pt" viewBox="0 0 32.000000 32.000000"
 preserveAspectRatio="xMidYMid meet">
<metadata>
Created by potrace 1.16, written by Peter Selinger 2001-2019
</metadata>
<g transform="translate(0.000000,32.000000) scale(0.100000,-0.100000)"
fill="#000000" stroke="none">
<path fill="#000000" stroke="none" d="M0 160 l0 -160 160 0 160 0 0 160 0
160 -160 0 -160 0 0 -160z"/>
<path fill="#ffffff" stroke="none" d="M45 270 c3 -5 26 -24 51 -41 l45 -30
35 31 c20 17 47 36 61 41 31 11 63 12 63 0 0 -13 -94 -71 -116 -71 -13 -1 -10
-5 12 -14 36 -16 77 -69 72 -94 -3 -18 -23 -15 -23 4 0 19 -27 44 -39 37 -6
-4 -4 2 4 12 8 10 9 16 3 11 -7 -4 -21 -2 -32 3 -14 8 -22 7 -31 -4 -9 -11
-16 -12 -30 -2 -14 8 -16 15 -9 24 8 9 0 17 -30 32 -35 18 -61 46 -61 65 0 10
18 7 25 -4z"/>
<path fill="#ffffff" stroke="none" d="M107 152 c18 -10 20 -18 14 -51 -1 -2
-9 3 -18 10 -9 8 -14 10 -11 4 3 -5 -5 -30 -18 -55 -27 -52 -32 -48 -7 5 13
27 14 38 5 47 -9 9 -8 16 6 32 9 11 12 16 5 13 -6 -4 -14 -3 -17 2 -8 12 13 8
41 -7z"/>
<path fill="#ffffff" stroke="none" d="M190 126 c0 -6 -4 -5 -9 3 -7 11 -10 9
-13 -8 -1 -12 -7 -21 -12 -21 -5 1 -13 -4 -18 -12 -5 -8 -6 -2 -2 17 10 43 23
58 40 44 8 -6 14 -17 14 -23z"/>
<path fill="#000000" stroke="none" d="M154 135 c-3 -8 -4 -20 -2 -27 3 -7 7
-1 10 15 6 29 1 36 -8 12z"/>
</g>
</svg>
