<?xml version="1.0" standalone="no"?>
<!DOCTYPE svg PUBLIC "-//W3C//DTD SVG 20010904//EN"
 "http://www.w3.org/TR/2001/REC-SVG-20010904/DTD/svg10.dtd">
<svg version="1.0" xmlns="http://www.w3.org/2000/svg"
 width="32.000000pt" height="32.000000pt" viewBox="0 0 32.000000 32.000000"
 preserveAspectRatio="xMidYMid meet">
<metadata>
Created by potrace 1.16, written by Peter Selinger 2001-2019
</metadata>
<g transform="translate(0.000000,32.000000) scale(0.100000,-0.100000)"
fill="#000000" stroke="none">
<path fill="#000000" stroke="none" d="M0 160 l0 -160 160 0 160 0 0 160 0
160 -160 0 -160 0 0 -160z"/>
<path fill="#ffffff" stroke="none" d="M250 268 c-1 -35 -3 -40 -11 -25 -10
17 -5 67 6 67 3 0 5 -19 5 -42z"/>
<path fill="#ffffff" stroke="none" d="M80 264 c0 -4 -7 -4 -15 0 -9 3 -15 0
-15 -10 0 -8 4 -12 10 -9 5 3 18 1 27 -4 10 -6 13 -11 6 -11 -7 0 -10 -7 -6
-17 4 -11 3 -14 -5 -9 -12 7 -13 6 -17 -31 -2 -22 1 -25 28 -27 6 -1 15 -5 20
-11 9 -12 28 15 20 29 -3 5 -1 6 6 2 6 -4 8 -13 5 -19 -4 -7 3 -2 15 11 12 12
19 28 15 35 -5 9 -4 9 6 0 9 -8 12 -36 11 -83 -1 -40 3 -77 8 -84 7 -9 4 -12
-14 -12 -23 0 -25 4 -25 48 l0 49 -37 -5 c-21 -2 -42 0 -48 4 -6 5 -10 -10
-10 -44 0 -47 -2 -52 -22 -52 -13 0 -23 6 -23 13 0 7 6 13 13 13 8 0 12 19 13
58 1 31 4 72 7 91 4 21 0 42 -10 57 -19 29 -9 48 18 34 10 -6 19 -13 19 -16z"/>
<path fill="#ffffff" stroke="none" d="M118 164 c1 -1 -6 -4 -18 -7 -15 -4
-20 0 -20 15 0 18 2 19 18 7 9 -7 18 -14 20 -15z"/>
<path fill="#ffffff" stroke="none" d="M248 135 c15 -33 15 -35 -2 -35 -8 0
-16 13 -18 30 -6 37 5 39 20 5z"/>
</g>
</svg>
