<?xml version="1.0" standalone="no"?>
<!DOCTYPE svg PUBLIC "-//W3C//DTD SVG 20010904//EN"
 "http://www.w3.org/TR/2001/REC-SVG-20010904/DTD/svg10.dtd">
<svg version="1.0" xmlns="http://www.w3.org/2000/svg"
 width="32.000000pt" height="32.000000pt" viewBox="0 0 32.000000 32.000000"
 preserveAspectRatio="xMidYMid meet">
<metadata>
Created by potrace 1.16, written by Peter Selinger 2001-2019
</metadata>
<g transform="translate(0.000000,32.000000) scale(0.100000,-0.100000)"
fill="#000000" stroke="none">
<path fill="#000000" stroke="none" d="M223 290 c-18 -11 -33 -24 -33 -30 0
-13 -27 -13 -33 0 -3 6 -4 5 -3 -2 1 -7 -8 -21 -20 -33 -27 -24 -37 -55 -24
-75 9 -13 11 -13 21 0 9 13 10 12 5 -2 -4 -14 0 -18 19 -18 13 0 27 5 30 11 4
6 13 8 21 5 8 -3 13 -2 12 2 -6 19 13 72 26 72 15 0 46 42 46 64 0 7 -7 17
-16 20 -20 8 -14 9 -51 -14z"/>
<path fill="#ffffff" stroke="none" d="M244 272 c3 -5 -1 -9 -9 -9 -8 0 -12 4
-9 9 3 4 7 8 9 8 2 0 6 -4 9 -8z"/>
<path fill="#ffffff" stroke="none" d="M210 200 c0 -5 -5 -10 -11 -10 -5 0 -7
5 -4 10 3 6 8 10 11 10 2 0 4 -4 4 -10z"/>
<path fill="#000000" stroke="none" d="M120 269 c0 -5 5 -7 10 -4 6 3 10 8 10
11 0 2 -4 4 -10 4 -5 0 -10 -5 -10 -11z"/>
<path fill="#000000" stroke="none" d="M90 259 c0 -5 5 -7 10 -4 6 3 10 8 10
11 0 2 -4 4 -10 4 -5 0 -10 -5 -10 -11z"/>
<path fill="#000000" stroke="none" d="M24 235 c-10 -8 -14 -14 -9 -15 15 0
40 18 34 24 -3 3 -14 -1 -25 -9z"/>
<path fill="#000000" stroke="none" d="M60 242 c0 -4 9 -13 20 -20 19 -12 20
-11 8 8 -13 20 -28 27 -28 12z"/>
<path fill="#000000" stroke="none" d="M44 192 c-16 -10 -37 -53 -30 -60 3 -3
6 0 6 6 0 7 9 21 21 33 17 17 23 18 37 7 15 -12 16 -11 3 5 -15 19 -21 20 -37
9z"/>
<path fill="#000000" stroke="none" d="M250 172 c0 -10 22 -32 32 -32 4 0 8 5
8 10 0 6 -7 10 -16 10 -8 0 -12 5 -9 10 3 6 1 10 -4 10 -6 0 -11 -4 -11 -8z"/>
<path fill="#000000" stroke="none" d="M77 152 c-9 -2 -17 -10 -17 -18 0 -12
4 -12 20 -4 16 9 22 8 26 -5 3 -8 3 -22 0 -31 -4 -11 -1 -14 12 -12 9 2 17 10
17 18 0 22 -38 56 -58 52z"/>
<path fill="#000000" stroke="none" d="M230 135 c0 -8 5 -15 10 -15 6 0 10 7
10 15 0 8 -4 15 -10 15 -5 0 -10 -7 -10 -15z"/>
<path fill="#000000" stroke="none" d="M196 115 c4 -8 10 -15 16 -15 5 0 6 -4
3 -10 -3 -5 -1 -10 4 -10 16 0 13 16 -5 34 -19 20 -25 20 -18 1z"/>
<path fill="#000000" stroke="none" d="M280 126 c0 -2 7 -9 15 -16 13 -11 14
-10 9 4 -5 14 -24 23 -24 12z"/>
<path fill="#000000" stroke="none" d="M156 106 c3 -9 11 -16 16 -16 13 0 5
23 -10 28 -7 2 -10 -2 -6 -12z"/>
<path fill="#000000" stroke="none" d="M250 86 c0 -2 7 -9 15 -16 13 -11 14
-10 9 4 -5 14 -24 23 -24 12z"/>
<path fill="#000000" stroke="none" d="M133 35 c-6 -14 -7 -23 -2 -19 13 8 31
44 22 44 -4 0 -13 -11 -20 -25z"/>
<path fill="#000000" stroke="none" d="M217 43 c-4 -3 -7 -11 -7 -17 0 -6 5
-5 12 2 6 6 9 14 7 17 -3 3 -9 2 -12 -2z"/>
</g>
</svg>
