<?xml version="1.0" standalone="no"?>
<!DOCTYPE svg PUBLIC "-//W3C//DTD SVG 20010904//EN"
 "http://www.w3.org/TR/2001/REC-SVG-20010904/DTD/svg10.dtd">
<svg version="1.0" xmlns="http://www.w3.org/2000/svg"
 width="32.000000pt" height="32.000000pt" viewBox="0 0 32.000000 32.000000"
 preserveAspectRatio="xMidYMid meet">
<metadata>
Created by potrace 1.16, written by Peter Selinger 2001-2019
</metadata>
<g transform="translate(0.000000,32.000000) scale(0.100000,-0.100000)"
fill="#000000" stroke="none">
<path fill="#000000" stroke="none" d="M209 274 c-15 -16 -31 -23 -42 -20 -11
2 -16 2 -13 -1 3 -4 -3 -13 -14 -20 -11 -8 -27 -30 -35 -49 -8 -19 -21 -34
-29 -34 -9 0 -16 -7 -16 -15 0 -13 3 -13 20 -3 11 7 22 20 25 29 3 8 20 29 37
45 l32 29 -32 -38 c-24 -28 -30 -42 -23 -51 6 -7 8 -15 6 -18 -10 -9 49 4 62
14 7 5 17 7 23 3 6 -4 9 -3 8 2 -4 17 13 83 21 79 5 -3 16 3 26 14 10 11 15
20 10 20 -4 0 -2 6 4 14 9 11 8 15 -5 20 -27 10 -40 7 -65 -20z"/>
<path fill="#ffffff" stroke="none" d="M240 255 c-27 -29 -37 -27 -20 4 6 12
18 21 27 21 13 0 12 -5 -7 -25z"/>
<path fill="#ffffff" stroke="none" d="M193 170 c-22 -20 -63 -35 -63 -23 0 4
17 23 37 41 30 26 39 29 41 16 2 -9 -5 -24 -15 -34z"/>
<path fill="#000000" stroke="none" d="M169 173 c-13 -16 -12 -17 4 -4 16 13
21 21 13 21 -2 0 -10 -8 -17 -17z"/>
<path fill="#000000" stroke="none" d="M120 269 c0 -5 5 -7 10 -4 6 3 10 8 10
11 0 2 -4 4 -10 4 -5 0 -10 -5 -10 -11z"/>
<path fill="#000000" stroke="none" d="M90 259 c0 -5 5 -7 10 -4 6 3 10 8 10
11 0 2 -4 4 -10 4 -5 0 -10 -5 -10 -11z"/>
<path fill="#000000" stroke="none" d="M60 239 c0 -5 5 -7 10 -4 6 3 10 8 10
11 0 2 -4 4 -10 4 -5 0 -10 -5 -10 -11z"/>
<path fill="#000000" stroke="none" d="M36 184 c-24 -23 -19 -27 9 -8 14 9 25
18 25 20 0 10 -20 3 -34 -12z"/>
<path fill="#000000" stroke="none" d="M250 169 c0 -5 5 -7 10 -4 6 3 10 8 10
11 0 2 -4 4 -10 4 -5 0 -10 -5 -10 -11z"/>
<path fill="#000000" stroke="none" d="M270 150 c0 -5 5 -10 10 -10 6 0 10 5
10 10 0 6 -4 10 -10 10 -5 0 -10 -4 -10 -10z"/>
<path fill="#000000" stroke="none" d="M230 129 c0 -5 5 -7 10 -4 6 3 10 8 10
11 0 2 -4 4 -10 4 -5 0 -10 -5 -10 -11z"/>
<path fill="#000000" stroke="none" d="M196 115 c4 -8 10 -15 16 -15 5 0 6 -4
3 -10 -3 -5 -1 -10 4 -10 16 0 13 16 -5 34 -19 20 -25 20 -18 1z"/>
<path fill="#000000" stroke="none" d="M280 126 c0 -2 7 -9 15 -16 13 -11 14
-10 9 4 -5 14 -24 23 -24 12z"/>
<path fill="#000000" stroke="none" d="M157 104 c3 -7 9 -14 14 -14 14 0 10
17 -5 23 -10 4 -13 1 -9 -9z"/>
<path fill="#000000" stroke="none" d="M106 95 c-3 -9 0 -15 9 -15 8 0 15 7
15 15 0 8 -4 15 -9 15 -5 0 -11 -7 -15 -15z"/>
<path fill="#000000" stroke="none" d="M250 86 c0 -2 7 -9 15 -16 13 -11 14
-10 9 4 -5 14 -24 23 -24 12z"/>
<path fill="#000000" stroke="none" d="M216 33 c-6 -14 -5 -15 5 -6 7 7 10 15
7 18 -3 3 -9 -2 -12 -12z"/>
<path fill="#000000" stroke="none" d="M129 23 c-13 -16 -12 -17 4 -4 16 13
21 21 13 21 -2 0 -10 -8 -17 -17z"/>
</g>
</svg>
