<?xml version="1.0" standalone="no"?>
<!DOCTYPE svg PUBLIC "-//W3C//DTD SVG 20010904//EN"
 "http://www.w3.org/TR/2001/REC-SVG-20010904/DTD/svg10.dtd">
<svg version="1.0" xmlns="http://www.w3.org/2000/svg"
 width="32.000000pt" height="32.000000pt" viewBox="0 0 32.000000 32.000000"
 preserveAspectRatio="xMidYMid meet">
<metadata>
Created by potrace 1.16, written by Peter Selinger 2001-2019
</metadata>
<g transform="translate(0.000000,32.000000) scale(0.100000,-0.100000)"
fill="#000000" stroke="none">
<path fill="#000000" stroke="none" d="M0 160 l0 -160 160 0 160 0 0 160 0
160 -160 0 -160 0 0 -160z"/>
<path fill="#ffffff" stroke="none" d="M285 210 c38 -42 16 -160 -30 -160 -7
0 -20 9 -30 20 -38 42 -16 160 30 160 7 0 20 -9 30 -20z"/>
<path fill="#000000" stroke="none" d="M236 212 c-3 -3 -1 -11 5 -19 9 -10 15
-11 26 -1 12 10 14 3 10 -43 -4 -67 -13 -85 -33 -68 -15 12 -9 33 7 24 5 -4 9
-1 9 4 0 15 -15 14 -29 -2 -8 -11 -6 -18 9 -32 19 -17 22 -18 37 -2 20 20 23
111 5 129 -13 13 -38 19 -46 10z"/>
<path fill="#ffffff" stroke="none" d="M270 204 c0 -8 -19 -13 -24 -6 -3 5 1
9 9 9 8 0 15 -2 15 -3z"/>
<path fill="#000000" stroke="none" d="M230 151 c0 -6 4 -13 10 -16 6 -3 7 1
4 9 -7 18 -14 21 -14 7z"/>
</g>
</svg>
