<?xml version="1.0" standalone="no"?>
<!DOCTYPE svg PUBLIC "-//W3C//DTD SVG 20010904//EN"
 "http://www.w3.org/TR/2001/REC-SVG-20010904/DTD/svg10.dtd">
<svg version="1.0" xmlns="http://www.w3.org/2000/svg"
 width="32.000000pt" height="32.000000pt" viewBox="0 0 32.000000 32.000000"
 preserveAspectRatio="xMidYMid meet">
<metadata>
Created by potrace 1.16, written by Peter Selinger 2001-2019
</metadata>
<g transform="translate(0.000000,32.000000) scale(0.100000,-0.100000)"
fill="#000000" stroke="none">
<path fill="#000000" stroke="none" d="M220 180 c-11 -11 -20 -27 -20 -35 0
-19 36 -55 55 -55 19 0 55 36 55 55 0 8 -9 24 -20 35 -11 11 -27 20 -35 20 -8
0 -24 -9 -35 -20z"/>
<path fill="#ffffff" stroke="none" d="M282 173 c23 -21 23 -36 -3 -59 -15
-13 -24 -16 -36 -8 -32 20 -38 41 -19 63 23 25 34 26 58 4z"/>
<path fill="#000000" stroke="none" d="M230 165 c-12 -14 -6 -54 7 -42 3 4 12
2 19 -4 9 -8 16 -5 25 12 10 19 9 25 -7 36 -23 17 -29 16 -44 -2z"/>
<path fill="#ffffff" stroke="none" d="M269 153 c14 10 14 10 4 -4 -7 -9 -10
-19 -6 -22 3 -4 4 -7 1 -7 -3 0 -13 10 -24 23 -10 12 -12 16 -4 10 11 -10 17
-10 29 0z"/>
</g>
</svg>
