<?xml version="1.0" standalone="no"?>
<!DOCTYPE svg PUBLIC "-//W3C//DTD SVG 20010904//EN"
 "http://www.w3.org/TR/2001/REC-SVG-20010904/DTD/svg10.dtd">
<svg version="1.0" xmlns="http://www.w3.org/2000/svg"
 width="32.000000pt" height="32.000000pt" viewBox="0 0 32.000000 32.000000"
 preserveAspectRatio="xMidYMid meet">
<metadata>
Created by potrace 1.16, written by Peter Selinger 2001-2019
</metadata>
<g transform="translate(0.000000,32.000000) scale(0.100000,-0.100000)"
fill="#000000" stroke="none">
<path fill="#000000" stroke="none" d="M0 160 l0 -160 160 0 160 0 0 160 0
160 -160 0 -160 0 0 -160z"/>
<path fill="#ffffff" stroke="none" d="M280 175 c17 -20 -1 -70 -25 -70 -24 0
-42 50 -25 70 7 8 18 15 25 15 7 0 18 -7 25 -15z"/>
<path fill="#000000" stroke="none" d="M230 154 c0 -3 6 -11 13 -18 10 -11 15
-10 26 1 7 8 10 17 6 21 -3 3 -10 0 -15 -8 -7 -10 -10 -11 -10 -2 0 6 -4 12
-10 12 -5 0 -10 -3 -10 -6z"/>
</g>
</svg>
