<?xml version="1.0" standalone="no"?>
<!DOCTYPE svg PUBLIC "-//W3C//DTD SVG 20010904//EN"
 "http://www.w3.org/TR/2001/REC-SVG-20010904/DTD/svg10.dtd">
<svg version="1.0" xmlns="http://www.w3.org/2000/svg"
 width="32.000000pt" height="32.000000pt" viewBox="0 0 32.000000 32.000000"
 preserveAspectRatio="xMidYMid meet">
<metadata>
Created by potrace 1.16, written by Peter Selinger 2001-2019
</metadata>
<g transform="translate(0.000000,32.000000) scale(0.100000,-0.100000)"
fill="#000000" stroke="none">
<path fill="#000000" stroke="none" d="M0 160 l0 -160 160 0 160 0 0 160 0
160 -160 0 -160 0 0 -160z"/>
<path fill="#ffffff" stroke="none" d="M290 180 c11 -11 20 -27 20 -35 0 -8
-9 -24 -20 -35 -11 -11 -27 -20 -35 -20 -19 0 -55 36 -55 55 0 8 9 24 20 35
11 11 27 20 35 20 8 0 24 -9 35 -20z"/>
<path fill="#000000" stroke="none" d="M226 174 c-9 -8 -16 -22 -16 -29 0 -18
27 -45 45 -45 18 0 45 27 45 45 0 18 -27 45 -45 45 -7 0 -21 -7 -29 -16z"/>
<path fill="#ffffff" stroke="none" d="M278 156 c5 -26 -17 -49 -34 -35 -14
12 -19 41 -8 51 11 12 39 1 42 -16z"/>
<path fill="#000000" stroke="none" d="M246 128 c3 -5 10 -6 15 -3 13 9 11 12
-6 12 -8 0 -12 -4 -9 -9z"/>
</g>
</svg>
