<?xml version="1.0" standalone="no"?>
<!DOCTYPE svg PUBLIC "-//W3C//DTD SVG 20010904//EN"
 "http://www.w3.org/TR/2001/REC-SVG-20010904/DTD/svg10.dtd">
<svg version="1.0" xmlns="http://www.w3.org/2000/svg"
 width="32.000000pt" height="32.000000pt" viewBox="0 0 32.000000 32.000000"
 preserveAspectRatio="xMidYMid meet">
<metadata>
Created by potrace 1.16, written by Peter Selinger 2001-2019
</metadata>
<g transform="translate(0.000000,32.000000) scale(0.100000,-0.100000)"
fill="#000000" stroke="none">
<path fill="#000000" stroke="none" d="M225 210 c-38 -42 -16 -160 30 -160 7
0 20 9 30 20 38 42 16 160 -30 160 -7 0 -20 -9 -30 -20z"/>
<path fill="#ffffff" stroke="none" d="M282 202 c18 -18 15 -109 -5 -129 -15
-16 -18 -15 -37 2 -15 14 -17 21 -9 32 14 16 29 17 29 2 0 -5 -4 -8 -9 -4 -16
9 -22 -12 -7 -24 20 -17 29 1 33 68 4 46 2 53 -10 43 -11 -10 -17 -9 -26 1
-20 25 17 33 41 9z"/>
<path fill="#ffffff" stroke="none" d="M244 144 c3 -8 2 -12 -4 -9 -6 3 -10
10 -10 16 0 14 7 11 14 -7z"/>
<path fill="#000000" stroke="none" d="M246 198 c3 -5 10 -6 15 -3 13 9 11 12
-6 12 -8 0 -12 -4 -9 -9z"/>
</g>
</svg>
