<?xml version="1.0" standalone="no"?>
<!DOCTYPE svg PUBLIC "-//W3C//DTD SVG 20010904//EN"
 "http://www.w3.org/TR/2001/REC-SVG-20010904/DTD/svg10.dtd">
<svg version="1.0" xmlns="http://www.w3.org/2000/svg"
 width="32.000000pt" height="32.000000pt" viewBox="0 0 32.000000 32.000000"
 preserveAspectRatio="xMidYMid meet">
<metadata>
Created by potrace 1.16, written by Peter Selinger 2001-2019
</metadata>
<g transform="translate(0.000000,32.000000) scale(0.100000,-0.100000)"
fill="#000000" stroke="none">
<path fill="#000000" stroke="none" d="M0 160 l0 -160 160 0 160 0 0 160 0
160 -160 0 -160 0 0 -160z"/>
<path fill="#ffffff" stroke="none" d="M276 204 c18 -14 18 -15 -3 -4 -30 14
-67 -4 -58 -28 5 -14 4 -15 -7 -4 -11 11 -9 17 11 33 28 23 32 23 57 3z"/>
<path fill="#ffffff" stroke="none" d="M214 138 c-4 -6 1 -17 11 -25 11 -7 14
-13 8 -13 -16 0 -36 28 -28 40 3 5 8 10 11 10 3 0 2 -5 -2 -12z"/>
</g>
</svg>
