<?xml version="1.0" standalone="no"?>
<!DOCTYPE svg PUBLIC "-//W3C//DTD SVG 20010904//EN"
 "http://www.w3.org/TR/2001/REC-SVG-20010904/DTD/svg10.dtd">
<svg version="1.0" xmlns="http://www.w3.org/2000/svg"
 width="32.000000pt" height="32.000000pt" viewBox="0 0 32.000000 32.000000"
 preserveAspectRatio="xMidYMid meet">
<metadata>
Created by potrace 1.16, written by Peter Selinger 2001-2019
</metadata>
<g transform="translate(0.000000,32.000000) scale(0.100000,-0.100000)"
fill="#000000" stroke="none">
<path fill="#000000" stroke="none" d="M150 256 c0 -4 9 -19 20 -33 13 -17 20
-20 20 -11 0 8 -9 23 -20 33 -11 10 -20 15 -20 11z"/>
<path fill="#000000" stroke="none" d="M90 186 c0 -2 8 -10 18 -17 15 -13 16
-12 3 4 -13 16 -21 21 -21 13z"/>
<path fill="#000000" stroke="none" d="M171 104 c13 -14 33 -31 44 -36 l20
-11 -20 24 c-25 30 -47 48 -59 49 -5 0 1 -12 15 -26z"/>
</g>
</svg>
