<?xml version="1.0" standalone="no"?>
<!DOCTYPE svg PUBLIC "-//W3C//DTD SVG 20010904//EN"
 "http://www.w3.org/TR/2001/REC-SVG-20010904/DTD/svg10.dtd">
<svg version="1.0" xmlns="http://www.w3.org/2000/svg"
 width="32.000000pt" height="32.000000pt" viewBox="0 0 32.000000 32.000000"
 preserveAspectRatio="xMidYMid meet">
<metadata>
Created by potrace 1.16, written by Peter Selinger 2001-2019
</metadata>
<g transform="translate(0.000000,32.000000) scale(0.100000,-0.100000)"
fill="#000000" stroke="none">
<path fill="#000000" stroke="none" d="M0 160 l0 -160 160 0 160 0 0 160 0
160 -160 0 -160 0 0 -160z"/>
<path fill="#ffffff" stroke="none" d="M190 213 c0 -17 -5 -16 -36 3 -19 13
-22 19 -13 31 10 11 15 11 30 -3 11 -10 19 -23 19 -31z"/>
<path fill="#ffffff" stroke="none" d="M228 69 c9 -23 -18 -4 -68 46 -30 30
-60 55 -67 55 -16 0 -17 12 -2 27 8 8 28 -6 73 -54 33 -36 63 -69 64 -74z"/>
</g>
</svg>
