<?xml version="1.0" standalone="no"?>
<!DOCTYPE svg PUBLIC "-//W3C//DTD SVG 20010904//EN"
 "http://www.w3.org/TR/2001/REC-SVG-20010904/DTD/svg10.dtd">
<svg version="1.0" xmlns="http://www.w3.org/2000/svg"
 width="32.000000pt" height="32.000000pt" viewBox="0 0 32.000000 32.000000"
 preserveAspectRatio="xMidYMid meet">
<metadata>
Created by potrace 1.16, written by Peter Selinger 2001-2019
</metadata>
<g transform="translate(0.000000,32.000000) scale(0.100000,-0.100000)"
fill="#000000" stroke="none">
<path fill="#000000" stroke="none" d="M63 204 c-2 -7 -3 -31 -1 -55 3 -39 6
-44 29 -47 34 -4 55 20 34 38 -28 23 -15 30 59 30 71 0 100 11 80 30 -15 13
-196 17 -201 4z"/>
<path fill="#ffffff" stroke="none" d="M181 200 c46 0 79 -4 79 -10 0 -6 -33
-10 -80 -10 -61 0 -80 -3 -80 -14 0 -7 7 -19 15 -26 19 -16 10 -30 -21 -30
-22 0 -24 4 -24 51 0 43 3 50 16 45 9 -3 51 -6 95 -6z"/>
</g>
</svg>
