<?xml version="1.0" standalone="no"?>
<!DOCTYPE svg PUBLIC "-//W3C//DTD SVG 20010904//EN"
 "http://www.w3.org/TR/2001/REC-SVG-20010904/DTD/svg10.dtd">
<svg version="1.0" xmlns="http://www.w3.org/2000/svg"
 width="32.000000pt" height="32.000000pt" viewBox="0 0 32.000000 32.000000"
 preserveAspectRatio="xMidYMid meet">
<metadata>
Created by potrace 1.16, written by Peter Selinger 2001-2019
</metadata>
<g transform="translate(0.000000,32.000000) scale(0.100000,-0.100000)"
fill="#000000" stroke="none">
<path fill="#000000" stroke="none" d="M123 228 c-7 -10 9 -31 59 -77 38 -35
71 -61 75 -57 4 4 -19 32 -50 64 -31 32 -57 63 -57 70 0 16 -15 15 -27 0z"/>
<path fill="#000000" stroke="none" d="M72 178 c-9 -9 -8 -16 5 -30 16 -18 43
-25 43 -10 0 4 -8 17 -18 30 -14 18 -20 20 -30 10z"/>
</g>
</svg>
