<?xml version="1.0" standalone="no"?>
<!DOCTYPE svg PUBLIC "-//W3C//DTD SVG 20010904//EN"
 "http://www.w3.org/TR/2001/REC-SVG-20010904/DTD/svg10.dtd">
<svg version="1.0" xmlns="http://www.w3.org/2000/svg"
 width="32.000000pt" height="32.000000pt" viewBox="0 0 32.000000 32.000000"
 preserveAspectRatio="xMidYMid meet">
<metadata>
Created by potrace 1.16, written by Peter Selinger 2001-2019
</metadata>
<g transform="translate(0.000000,32.000000) scale(0.100000,-0.100000)"
fill="#000000" stroke="none">
<path fill="#000000" stroke="none" d="M0 160 l0 -160 160 0 160 0 0 160 0
160 -160 0 -160 0 0 -160z"/>
<path fill="#ffffff" stroke="none" d="M200 249 l13 -30 30 28 30 28 -7 -28
c-9 -37 0 -50 25 -37 16 9 19 7 19 -10 0 -12 -7 -35 -16 -51 -9 -18 -13 -41
-9 -58 7 -32 -3 -43 -57 -58 -39 -11 -99 -3 -142 19 -47 24 -101 90 -61 74 26
-9 28 19 5 63 -11 23 -19 41 -17 41 2 0 18 -5 36 -11 41 -15 59 0 53 42 l-5
31 27 -17 c26 -18 27 -17 33 4 7 27 25 14 43 -30z"/>
</g>
</svg>
