<?xml version="1.0" standalone="no"?>
<!DOCTYPE svg PUBLIC "-//W3C//DTD SVG 20010904//EN"
 "http://www.w3.org/TR/2001/REC-SVG-20010904/DTD/svg10.dtd">
<svg version="1.0" xmlns="http://www.w3.org/2000/svg"
 width="32.000000pt" height="32.000000pt" viewBox="0 0 32.000000 32.000000"
 preserveAspectRatio="xMidYMid meet">
<metadata>
Created by potrace 1.16, written by Peter Selinger 2001-2019
</metadata>
<g transform="translate(0.000000,32.000000) scale(0.100000,-0.100000)"
fill="#000000" stroke="none">
<path fill="#000000" stroke="none" d="M157 278 c-6 -20 -7 -21 -33 -3 l-27
17 5 -31 c6 -42 -12 -57 -53 -42 -18 6 -34 11 -36 11 -2 0 6 -18 17 -41 23
-44 21 -72 -5 -63 -24 10 -18 -10 13 -37 35 -31 72 -52 72 -40 0 8 64 -9 75
-21 7 -7 75 12 93 25 8 7 11 21 7 38 -4 17 0 40 9 58 9 16 16 39 16 51 0 17
-3 19 -19 10 -25 -13 -34 0 -25 37 l6 28 -27 -29 -28 -29 -19 36 c-23 45 -34
52 -41 25z"/>
<path fill="#ffffff" stroke="none" d="M290 157 c0 -2 -10 -12 -21 -23 -22
-19 -22 -19 -10 4 10 18 31 31 31 19z"/>
<path fill="#ffffff" stroke="none" d="M193 70 c6 -23 3 -24 -24 -9 -11 5 -17
14 -14 20 10 16 32 10 38 -11z"/>
<path fill="#ffffff" stroke="none" d="M255 60 c-3 -5 -14 -10 -23 -10 -15 0
-15 2 -2 10 20 13 33 13 25 0z"/>
</g>
</svg>
