<?xml version="1.0" standalone="no"?>
<!DOCTYPE svg PUBLIC "-//W3C//DTD SVG 20010904//EN"
 "http://www.w3.org/TR/2001/REC-SVG-20010904/DTD/svg10.dtd">
<svg version="1.0" xmlns="http://www.w3.org/2000/svg"
 width="32.000000pt" height="32.000000pt" viewBox="0 0 32.000000 32.000000"
 preserveAspectRatio="xMidYMid meet">
<metadata>
Created by potrace 1.16, written by Peter Selinger 2001-2019
</metadata>
<g transform="translate(0.000000,32.000000) scale(0.100000,-0.100000)"
fill="#000000" stroke="none">
<path fill="#000000" stroke="none" d="M13 313 c9 -2 25 -2 35 0 9 3 1 5 -18
5 -19 0 -27 -2 -17 -5z"/>
<path fill="#000000" stroke="none" d="M95 308 c-4 -9 -20 -12 -53 -10 -49 4
-49 -5 -1 -25 23 -10 32 -8 64 14 20 13 39 22 42 19 4 -3 2 -6 -3 -6 -5 0 -20
-10 -34 -21 -24 -20 -24 -20 -2 -9 28 14 45 3 19 -11 -9 -6 -17 -19 -17 -30 0
-13 -4 -18 -12 -13 -8 5 -9 0 -6 -14 l6 -22 -30 21 c-41 30 -48 15 -10 -24 32
-33 41 -57 22 -57 -5 0 -7 6 -4 14 3 8 0 17 -6 21 -9 6 -10 -3 -5 -34 6 -34 4
-41 -9 -41 -35 0 -14 -44 29 -60 29 -11 29 -11 11 9 -18 20 -18 20 18 14 25
-4 36 -2 36 7 0 9 3 10 13 2 10 -9 19 -7 37 5 22 16 22 17 4 24 -10 3 -23 4
-29 1 -16 -10 -45 -12 -45 -4 0 4 14 13 30 19 27 10 34 9 59 -13 l28 -23 -2
23 c-4 37 10 53 31 35 15 -12 16 -12 10 8 -5 15 -1 25 15 36 13 9 19 22 16 34
-4 16 -6 15 -12 -4 -8 -24 -29 -31 -40 -13 -4 7 -14 5 -28 -5 -29 -21 -60 -20
-32 1 16 12 18 18 7 34 -8 13 -10 36 -6 63 7 48 -5 43 -34 -13 -20 -39 -37
-48 -46 -24 -5 14 -4 15 9 4 12 -10 16 -9 20 4 3 9 8 24 12 34 3 9 5 21 4 25
-1 5 4 5 11 1 7 -4 10 -3 5 1 -13 15 -87 17 -92 3z"/>
<path fill="#ffffff" stroke="none" d="M170 199 c-7 -11 -14 -18 -17 -15 -3 3
0 12 7 21 18 21 23 19 10 -6z"/>
<path fill="#ffffff" stroke="none" d="M244 148 c-1 -13 -3 -26 -3 -30 -2 -11
-41 4 -41 16 0 6 -5 4 -10 -4 -8 -13 -10 -12 -10 3 0 20 11 22 29 5 10 -9 12
-9 7 -1 -5 9 10 25 30 33 0 0 0 -10 -2 -22z"/>
<path fill="#ffffff" stroke="none" d="M110 95 c0 -8 -4 -15 -10 -15 -5 0 -7
7 -4 15 4 8 8 15 10 15 2 0 4 -7 4 -15z"/>
<path fill="#000000" stroke="none" d="M225 310 c-3 -5 -1 -19 5 -30 6 -11 7
-20 2 -20 -6 0 -12 -9 -15 -19 -3 -13 -1 -18 8 -15 7 3 15 -3 18 -13 2 -10 3
0 2 22 -1 22 2 45 6 50 4 6 1 16 -6 22 -9 8 -16 9 -20 3z"/>
<path fill="#000000" stroke="none" d="M298 313 c7 -3 16 -2 19 1 4 3 -2 6
-13 5 -11 0 -14 -3 -6 -6z"/>
<path fill="#000000" stroke="none" d="M289 298 c0 -2 -1 -22 -3 -45 -2 -38 0
-41 16 -32 23 12 23 45 1 59 -17 11 -17 11 0 6 9 -3 17 -1 17 4 0 8 -29 15
-31 8z"/>
<path fill="#000000" stroke="none" d="M0 250 c0 -24 4 -28 22 -25 12 3 25 10
29 16 5 8 9 3 12 -12 l4 -24 2 24 c1 21 3 22 18 10 14 -12 16 -12 11 1 -6 20
-38 20 -62 1 -18 -15 -18 -15 -8 5 10 19 8 23 -8 27 -17 4 -20 0 -20 -23z"/>
<path fill="#000000" stroke="none" d="M10 191 c0 -12 5 -21 10 -21 6 0 10 6
10 14 0 8 -4 18 -10 21 -5 3 -10 -3 -10 -14z"/>
<path fill="#000000" stroke="none" d="M20 105 c-15 -8 -19 -14 -10 -14 18 -1
46 16 40 23 -3 2 -16 -2 -30 -9z"/>
<path fill="#000000" stroke="none" d="M206 45 c-11 -8 -15 -15 -9 -15 6 0 16
7 23 15 16 19 11 19 -14 0z"/>
<path fill="#000000" stroke="none" d="M0 20 c0 -11 4 -20 9 -20 5 0 7 9 4 20
-3 11 -7 20 -9 20 -2 0 -4 -9 -4 -20z"/>
<path fill="#000000" stroke="none" d="M130 20 c-8 -5 -10 -10 -5 -10 6 0 17
5 25 10 8 5 11 10 5 10 -5 0 -17 -5 -25 -10z"/>
</g>
</svg>
