<?xml version="1.0" standalone="no"?>
<!DOCTYPE svg PUBLIC "-//W3C//DTD SVG 20010904//EN"
 "http://www.w3.org/TR/2001/REC-SVG-20010904/DTD/svg10.dtd">
<svg version="1.0" xmlns="http://www.w3.org/2000/svg"
 width="32.000000pt" height="32.000000pt" viewBox="0 0 32.000000 32.000000"
 preserveAspectRatio="xMidYMid meet">
<metadata>
Created by potrace 1.16, written by Peter Selinger 2001-2019
</metadata>
<g transform="translate(0.000000,32.000000) scale(0.100000,-0.100000)"
fill="#000000" stroke="none">
<path fill="#000000" stroke="none" d="M0 160 l0 -160 160 0 160 0 0 160 0
160 -160 0 -160 0 0 -160z"/>
<path fill="#ffffff" stroke="none" d="M170 289 c0 -5 6 -7 13 -3 6 3 0 -5
-15 -19 -18 -18 -25 -33 -21 -47 4 -14 1 -19 -8 -15 -8 3 -18 -4 -24 -17 -12
-27 -35 -35 -35 -13 0 10 5 15 14 12 9 -4 13 2 12 16 -3 27 13 49 27 40 6 -4
8 4 5 20 -5 24 2 34 25 36 4 1 7 -4 7 -10z"/>
<path fill="#ffffff" stroke="none" d="M212 232 c9 -9 9 -12 0 -12 -7 0 -12 5
-12 11 0 5 -4 8 -9 4 -5 -3 -12 -1 -15 4 -8 13 22 7 36 -7z"/>
<path fill="#ffffff" stroke="none" d="M177 205 c-4 -8 -1 -17 5 -21 7 -4 6
-9 -2 -14 -7 -4 -13 -19 -13 -34 -1 -16 -7 -24 -14 -21 -8 2 -13 -4 -13 -15 0
-11 -6 -20 -12 -20 -9 0 -8 -4 2 -10 12 -8 11 -10 -7 -10 -24 0 -31 14 -13 25
6 4 10 15 8 25 -2 11 6 25 16 33 15 11 16 16 6 22 -9 5 -11 4 -6 -3 4 -7 2
-12 -3 -12 -19 0 -12 17 14 34 14 9 23 21 20 26 -4 6 -1 10 5 10 7 0 10 -7 7
-15z"/>
<path fill="#ffffff" stroke="none" d="M230 146 c-14 -14 -24 0 -16 21 6 15 8
15 16 3 6 -9 5 -19 0 -24z"/>
<path fill="#ffffff" stroke="none" d="M191 107 c-10 -9 -11 -8 -5 6 3 10 9
15 12 12 3 -3 0 -11 -7 -18z"/>
<path fill="#ffffff" stroke="none" d="M220 71 c0 -4 -9 -7 -20 -8 -19 -2 -26
8 -14 20 7 7 34 -2 34 -12z"/>
<path fill="#ffffff" stroke="none" d="M227 43 c-9 -2 -15 -9 -12 -14 4 -5 -1
-9 -10 -9 -10 0 -13 5 -9 13 5 7 0 6 -11 -3 -11 -9 -16 -10 -11 -2 5 8 0 12
-16 12 -18 0 -20 -2 -8 -10 11 -7 7 -10 -18 -10 -20 0 -31 4 -27 10 3 6 -4 10
-17 10 -18 0 -20 -2 -8 -10 12 -8 11 -10 -7 -10 -14 0 -23 6 -23 15 0 12 17
15 98 14 53 -1 89 -3 79 -6z"/>
<path fill="#ffffff" stroke="none" d="M263 23 c-7 -2 -19 -2 -25 0 -7 3 -2 5
12 5 14 0 19 -2 13 -5z"/>
</g>
</svg>
