<?xml version="1.0" standalone="no"?>
<!DOCTYPE svg PUBLIC "-//W3C//DTD SVG 20010904//EN"
 "http://www.w3.org/TR/2001/REC-SVG-20010904/DTD/svg10.dtd">
<svg version="1.0" xmlns="http://www.w3.org/2000/svg"
 width="32.000000pt" height="32.000000pt" viewBox="0 0 32.000000 32.000000"
 preserveAspectRatio="xMidYMid meet">
<metadata>
Created by potrace 1.16, written by Peter Selinger 2001-2019
</metadata>
<g transform="translate(0.000000,32.000000) scale(0.100000,-0.100000)"
fill="#000000" stroke="none">
<path fill="#000000" stroke="none" d="M89 273 c-14 -37 -23 -101 -12 -88 4 6
17 17 27 25 18 13 19 13 11 0 -13 -20 -13 -32 -2 -47 6 -9 5 -13 -4 -13 -12 0
-12 -2 -1 -9 11 -6 10 -12 -4 -26 -17 -17 -17 -18 1 -31 17 -13 14 -19 -7 -15
-17 2 -6 -17 15 -27 12 -6 16 -11 10 -11 -18 -1 -16 -18 2 -18 21 0 19 24 -2
36 -17 10 -17 10 0 11 11 0 21 -9 24 -20 3 -11 9 -20 13 -20 4 0 10 9 13 20 3
11 13 20 24 20 17 -1 17 -1 1 -11 -22 -12 -24 -36 -3 -36 18 0 20 17 3 18 -7
0 -3 5 10 11 20 10 31 29 15 27 -22 -4 -25 2 -8 15 18 13 18 14 1 31 -14 14
-15 20 -4 26 11 7 11 9 0 9 -8 0 -10 5 -5 13 11 17 11 30 -1 47 -10 13 -9 13
9 0 11 -8 23 -19 27 -25 4 -5 8 -1 8 11 0 23 -19 84 -30 97 -9 10 -40 -2 -40
-15 0 -7 5 -6 13 1 10 8 14 7 14 -4 0 -8 -5 -11 -10 -8 -7 4 -8 -12 -5 -43 7
-63 2 -74 -32 -74 -34 0 -39 11 -32 74 3 31 2 47 -5 43 -5 -3 -10 0 -10 8 0
11 4 12 14 4 8 -7 13 -8 13 -1 0 8 -22 22 -36 22 -3 0 -9 -12 -15 -27z"/>
<path fill="#000000" stroke="none" d="M144 265 c-3 -20 -4 -39 0 -42 3 -3 1
-12 -5 -19 -14 -17 -3 -34 21 -34 24 0 35 17 21 34 -6 7 -8 16 -5 19 9 9 -5
77 -16 77 -5 0 -12 -16 -16 -35z"/>
<path fill="#000000" stroke="none" d="M44 77 c-3 -8 0 -25 5 -39 5 -14 8 -28
6 -30 -2 -2 6 -5 19 -6 22 -1 23 0 13 43 -10 44 -32 60 -43 32z"/>
<path fill="#000000" stroke="none" d="M233 46 c-10 -43 -9 -45 11 -44 12 1
23 9 24 18 8 50 6 65 -9 68 -11 2 -18 -10 -26 -42z"/>
</g>
</svg>
