<?xml version="1.0" standalone="no"?>
<!DOCTYPE svg PUBLIC "-//W3C//DTD SVG 20010904//EN"
 "http://www.w3.org/TR/2001/REC-SVG-20010904/DTD/svg10.dtd">
<svg version="1.0" xmlns="http://www.w3.org/2000/svg"
 width="32.000000pt" height="32.000000pt" viewBox="0 0 32.000000 32.000000"
 preserveAspectRatio="xMidYMid meet">
<metadata>
Created by potrace 1.16, written by Peter Selinger 2001-2019
</metadata>
<g transform="translate(0.000000,32.000000) scale(0.100000,-0.100000)"
fill="#000000" stroke="none">
<path fill="#000000" stroke="none" d="M0 160 l0 -160 160 0 160 0 0 160 0
160 -160 0 -160 0 0 -160z"/>
<path fill="#ffffff" stroke="none" d="M215 300 c-3 -5 -1 -10 5 -10 7 0 10
-6 7 -14 -3 -8 -1 -16 5 -18 6 -2 8 -13 4 -26 -4 -12 -11 -20 -16 -17 -5 3
-12 1 -15 -5 -4 -6 -1 -9 5 -8 7 2 17 -5 23 -14 9 -13 8 -20 -2 -30 -11 -11
-12 -10 -6 1 6 10 4 12 -4 7 -9 -6 -9 -11 0 -22 13 -16 5 -44 -13 -43 -10 0
-10 2 0 6 6 2 12 9 12 14 0 6 -5 7 -10 4 -6 -4 -9 -1 -8 6 2 6 -3 13 -10 15
-7 1 -9 0 -4 -2 5 -3 7 -16 4 -29 -4 -23 -1 -25 32 -25 25 0 36 -4 36 -15 0
-11 -18 -15 -82 -18 l-83 -3 93 -2 c74 -2 92 -5 92 -17 0 -12 -20 -15 -120
-15 -108 0 -120 2 -120 18 1 28 25 52 56 53 24 1 25 2 9 7 -32 10 -9 49 27 48
21 -1 24 1 16 12 -7 8 -15 9 -21 3 -15 -15 -37 -1 -37 25 0 12 8 28 18 33 9 6
11 11 5 11 -23 0 -14 38 13 59 27 21 101 30 89 11z"/>
<path fill="#000000" stroke="none" d="M148 223 c6 -2 18 -2 25 0 6 3 1 5 -13
5 -14 0 -19 -2 -12 -5z"/>
<path fill="#000000" stroke="none" d="M168 73 c6 -2 18 -2 25 0 6 3 1 5 -13
5 -14 0 -19 -2 -12 -5z"/>
<path fill="#000000" stroke="none" d="M218 73 c7 -3 16 -2 19 1 4 3 -2 6 -13
5 -11 0 -14 -3 -6 -6z"/>
<path fill="#000000" stroke="none" d="M148 33 c6 -2 18 -2 25 0 6 3 1 5 -13
5 -14 0 -19 -2 -12 -5z"/>
</g>
</svg>
