<?xml version="1.0" standalone="no"?>
<!DOCTYPE svg PUBLIC "-//W3C//DTD SVG 20010904//EN"
 "http://www.w3.org/TR/2001/REC-SVG-20010904/DTD/svg10.dtd">
<svg version="1.0" xmlns="http://www.w3.org/2000/svg"
 width="32.000000pt" height="32.000000pt" viewBox="0 0 32.000000 32.000000"
 preserveAspectRatio="xMidYMid meet">
<metadata>
Created by potrace 1.16, written by Peter Selinger 2001-2019
</metadata>
<g transform="translate(0.000000,32.000000) scale(0.100000,-0.100000)"
fill="#000000" stroke="none">
<path fill="#000000" stroke="none" d="M126 289 c-27 -21 -36 -59 -13 -59 6 0
4 -5 -5 -11 -19 -11 -25 -55 -8 -61 6 -2 4 -14 -5 -30 -13 -26 -12 -28 5 -28
24 0 35 17 22 33 -7 8 -6 17 2 29 11 15 13 15 25 -4 7 -11 8 -17 2 -13 -7 3
-11 -2 -11 -14 0 -11 -9 -26 -20 -34 -19 -13 -18 -14 19 -13 35 1 38 3 36 26
-3 27 12 53 26 45 4 -3 13 4 19 15 11 21 9 23 -28 20 -23 -2 -23 -1 -5 18 10
10 21 17 24 15 4 -1 9 4 13 12 6 17 -9 29 -26 19 -7 -4 -8 -3 -4 4 4 7 2 12
-5 12 -8 0 -9 3 0 13 26 32 -24 36 -63 6z"/>
<path fill="#ffffff" stroke="none" d="M173 223 c-7 -2 -19 -2 -25 0 -7 3 -2
5 12 5 14 0 19 -2 13 -5z"/>
<path fill="#000000" stroke="none" d="M210 110 c-9 -6 -10 -10 -3 -10 6 0 15
5 18 10 8 12 4 12 -15 0z"/>
<path fill="#000000" stroke="none" d="M60 80 c0 -5 7 -7 15 -4 8 4 15 8 15
10 0 2 -7 4 -15 4 -8 0 -15 -4 -15 -10z"/>
<path fill="#000000" stroke="none" d="M40 39 c0 -5 5 -7 10 -4 6 3 10 8 10
11 0 2 -4 4 -10 4 -5 0 -10 -5 -10 -11z"/>
<path fill="#000000" stroke="none" d="M78 43 c7 -3 16 -2 19 1 4 3 -2 6 -13
5 -11 0 -14 -3 -6 -6z"/>
<path fill="#000000" stroke="none" d="M118 43 c6 -2 18 -2 25 0 6 3 1 5 -13
5 -14 0 -19 -2 -12 -5z"/>
</g>
</svg>
