<?xml version="1.0" standalone="no"?>
<!DOCTYPE svg PUBLIC "-//W3C//DTD SVG 20010904//EN"
 "http://www.w3.org/TR/2001/REC-SVG-20010904/DTD/svg10.dtd">
<svg version="1.0" xmlns="http://www.w3.org/2000/svg"
 width="32.000000pt" height="32.000000pt" viewBox="0 0 32.000000 32.000000"
 preserveAspectRatio="xMidYMid meet">
<metadata>
Created by potrace 1.16, written by Peter Selinger 2001-2019
</metadata>
<g transform="translate(0.000000,32.000000) scale(0.100000,-0.100000)"
fill="#000000" stroke="none">
<path fill="#000000" stroke="none" d="M0 160 l0 -160 160 0 160 0 0 160 0
160 -160 0 -160 0 0 -160z"/>
<path fill="#ffffff" stroke="none" d="M103 243 c-5 -60 -13 -69 -13 -14 0 41
0 41 -20 24 -10 -10 -26 -34 -34 -53 -17 -39 -22 -16 -6 27 13 33 63 84 71 72
3 -5 4 -30 2 -56z"/>
<path fill="#ffffff" stroke="none" d="M97 102 c-2 -15 -4 -2 -4 28 0 30 2 43
4 27 2 -15 2 -39 0 -55z"/>
</g>
</svg>
