<?xml version="1.0" standalone="no"?>
<!DOCTYPE svg PUBLIC "-//W3C//DTD SVG 20010904//EN"
 "http://www.w3.org/TR/2001/REC-SVG-20010904/DTD/svg10.dtd">
<svg version="1.0" xmlns="http://www.w3.org/2000/svg"
 width="32.000000pt" height="32.000000pt" viewBox="0 0 32.000000 32.000000"
 preserveAspectRatio="xMidYMid meet">
<metadata>
Created by potrace 1.16, written by Peter Selinger 2001-2019
</metadata>
<g transform="translate(0.000000,32.000000) scale(0.100000,-0.100000)"
fill="#000000" stroke="none">
<path fill="#000000" stroke="none" d="M145 290 c-3 -5 -18 -10 -32 -10 -24 0
-25 -1 -11 -22 14 -21 68 -44 68 -29 0 4 11 13 25 19 14 6 25 16 25 22 0 13
-33 13 -47 -1 -6 -6 -16 -8 -23 -4 -8 5 -6 11 7 21 10 7 13 14 6 14 -6 0 -15
-4 -18 -10z"/>
<path fill="#000000" stroke="none" d="M64 266 c-8 -22 3 -33 18 -18 9 9 9 15
0 24 -9 9 -13 7 -18 -6z"/>
<path fill="#000000" stroke="none" d="M79 237 c-12 -9 -15 -27 -13 -74 2 -54
0 -63 -17 -68 -10 -4 -19 -13 -19 -21 0 -20 29 -29 43 -14 10 10 8 12 -8 6
-20 -6 -20 -6 -1 9 11 8 17 15 14 15 -4 0 -1 12 7 26 7 15 11 33 8 40 -3 8 2
26 12 40 14 22 15 28 3 40 -10 10 -17 10 -29 1z"/>
<path fill="#000000" stroke="none" d="M196 235 c-17 -13 -18 -18 -8 -40 16
-35 15 -42 -8 -65 -14 -14 -28 -18 -43 -15 -26 7 -63 -24 -39 -32 6 -3 12 -11
12 -19 0 -8 10 -14 23 -14 21 1 22 1 3 15 -15 11 -16 15 -5 16 8 1 21 2 29 3
8 0 22 16 31 33 9 18 19 30 22 26 4 -3 5 8 4 26 -1 17 -5 31 -9 31 -5 0 -8 5
-8 11 0 5 5 7 10 4 6 -3 10 3 10 14 0 25 0 24 -24 6z"/>
<path fill="#000000" stroke="none" d="M26 125 c-4 -13 -2 -14 14 -5 23 13 26
20 6 20 -8 0 -16 -7 -20 -15z"/>
<path fill="#000000" stroke="none" d="M215 100 c-3 -5 -1 -10 4 -10 6 0 11 5
11 10 0 6 -2 10 -4 10 -3 0 -8 -4 -11 -10z"/>
<path fill="#000000" stroke="none" d="M290 79 c0 -5 5 -7 10 -4 6 3 10 8 10
11 0 2 -4 4 -10 4 -5 0 -10 -5 -10 -11z"/>
<path fill="#000000" stroke="none" d="M225 70 c-9 -15 -1 -23 21 -18 15 3 16
4 1 16 -11 9 -17 10 -22 2z"/>
<path fill="#000000" stroke="none" d="M176 34 c-8 -21 -8 -24 4 -24 5 0 14 9
20 20 8 16 8 20 -4 20 -7 0 -17 -7 -20 -16z"/>
</g>
</svg>
