<?xml version="1.0" standalone="no"?>
<!DOCTYPE svg PUBLIC "-//W3C//DTD SVG 20010904//EN"
 "http://www.w3.org/TR/2001/REC-SVG-20010904/DTD/svg10.dtd">
<svg version="1.0" xmlns="http://www.w3.org/2000/svg"
 width="32.000000pt" height="32.000000pt" viewBox="0 0 32.000000 32.000000"
 preserveAspectRatio="xMidYMid meet">
<metadata>
Created by potrace 1.16, written by Peter Selinger 2001-2019
</metadata>
<g transform="translate(0.000000,32.000000) scale(0.100000,-0.100000)"
fill="#000000" stroke="none">
<path fill="#000000" stroke="none" d="M66 271 c-10 -15 -2 -60 9 -53 5 3 4
-1 -3 -10 -8 -10 -11 -31 -6 -59 4 -30 2 -40 -4 -30 -5 7 -16 11 -23 9 -10 -3
-8 -8 7 -16 33 -18 46 0 48 66 0 33 5 57 10 54 5 -3 6 0 2 7 -6 9 -11 9 -22 0
-9 -7 -14 -8 -14 -1 0 6 5 14 10 17 6 3 10 10 10 16 0 12 -17 12 -24 0z"/>
<path fill="#000000" stroke="none" d="M100 270 c0 -14 26 -38 46 -42 14 -4
26 1 35 13 7 11 19 19 26 19 7 0 13 4 13 8 0 5 -27 9 -60 9 -33 0 -60 -3 -60
-7z"/>
<path fill="#000000" stroke="none" d="M196 235 c-11 -8 -15 -15 -9 -15 6 0
16 7 23 15 16 19 11 19 -14 0z"/>
<path fill="#000000" stroke="none" d="M190 193 c6 -12 8 -37 5 -55 -6 -31 -6
-32 14 -14 12 11 21 14 26 7 3 -6 12 -11 18 -11 7 0 0 8 -15 18 -16 9 -28 21
-28 27 0 6 -7 20 -16 31 -15 18 -15 18 -4 -3z"/>
<path fill="#000000" stroke="none" d="M26 181 c-3 -5 1 -11 9 -15 9 -3 15 0
15 9 0 16 -16 20 -24 6z"/>
<path fill="#000000" stroke="none" d="M91 99 c-14 -11 -31 -17 -40 -14 -13 5
-13 4 -4 -6 10 -10 19 -8 43 10 17 12 38 20 48 17 9 -3 23 -2 29 2 8 5 0 8
-20 9 -18 0 -43 -7 -56 -18z"/>
<path fill="#000000" stroke="none" d="M170 69 c-17 -12 -20 -19 -10 -18 20 0
54 26 43 32 -5 3 -20 -3 -33 -14z"/>
<path fill="#000000" stroke="none" d="M100 55 c-16 -19 0 -19 26 0 16 12 16
14 3 15 -9 0 -22 -7 -29 -15z"/>
</g>
</svg>
