<?xml version="1.0" standalone="no"?>
<!DOCTYPE svg PUBLIC "-//W3C//DTD SVG 20010904//EN"
 "http://www.w3.org/TR/2001/REC-SVG-20010904/DTD/svg10.dtd">
<svg version="1.0" xmlns="http://www.w3.org/2000/svg"
 width="32.000000pt" height="32.000000pt" viewBox="0 0 32.000000 32.000000"
 preserveAspectRatio="xMidYMid meet">
<metadata>
Created by potrace 1.16, written by Peter Selinger 2001-2019
</metadata>
<g transform="translate(0.000000,32.000000) scale(0.100000,-0.100000)"
fill="#000000" stroke="none">
<path fill="#000000" stroke="none" d="M0 160 l0 -160 160 0 160 0 0 160 0
160 -160 0 -160 0 0 -160z"/>
<path fill="#ffffff" stroke="none" d="M157 286 c-13 -10 -15 -16 -7 -21 7 -4
17 -2 23 4 14 14 47 14 47 1 0 -6 -11 -16 -25 -22 -14 -6 -25 -15 -25 -19 0
-15 -54 8 -68 29 -14 21 -13 22 11 22 14 0 29 5 32 10 3 6 12 10 18 10 7 0 4
-7 -6 -14z"/>
<path fill="#ffffff" stroke="none" d="M82 248 c-15 -15 -26 -4 -18 18 5 13 9
15 18 6 9 -9 9 -15 0 -24z"/>
<path fill="#ffffff" stroke="none" d="M105 196 c-10 -14 -15 -32 -12 -40 3
-7 -1 -25 -8 -40 -8 -14 -11 -26 -7 -26 3 0 -3 -7 -14 -15 -19 -15 -19 -15 1
-9 16 6 18 4 8 -6 -14 -15 -43 -6 -43 14 0 8 9 17 19 21 17 5 19 14 17 68 -2
47 1 65 13 74 12 9 19 9 29 -1 12 -12 11 -18 -3 -40z"/>
<path fill="#ffffff" stroke="none" d="M220 229 c0 -11 -4 -17 -10 -14 -5 3
-10 1 -10 -4 0 -6 3 -11 8 -11 4 0 8 -14 9 -31 1 -18 0 -29 -4 -26 -3 4 -13
-8 -22 -26 -9 -17 -23 -33 -31 -33 -8 -1 -21 -2 -29 -3 -11 -1 -10 -5 5 -16
19 -14 18 -14 -3 -15 -13 0 -23 6 -23 14 0 8 -6 16 -12 19 -24 8 13 39 39 32
15 -3 29 1 43 15 23 23 24 30 8 65 -10 22 -9 27 8 40 24 18 24 19 24 -6z"/>
<path fill="#ffffff" stroke="none" d="M60 135 c0 -2 -9 -9 -20 -15 -16 -9
-18 -8 -14 5 5 13 34 22 34 10z"/>
<path fill="#ffffff" stroke="none" d="M230 100 c0 -5 -5 -10 -11 -10 -5 0 -7
5 -4 10 3 6 8 10 11 10 2 0 4 -4 4 -10z"/>
<path fill="#ffffff" stroke="none" d="M310 86 c0 -3 -4 -8 -10 -11 -5 -3 -10
-1 -10 4 0 6 5 11 10 11 6 0 10 -2 10 -4z"/>
<path fill="#ffffff" stroke="none" d="M246 52 c-22 -5 -30 3 -21 18 5 8 11 7
22 -2 15 -12 14 -13 -1 -16z"/>
<path fill="#ffffff" stroke="none" d="M200 30 c-9 -17 -30 -28 -30 -16 0 16
15 36 26 36 12 0 12 -4 4 -20z"/>
</g>
</svg>
