<?xml version="1.0" standalone="no"?>
<!DOCTYPE svg PUBLIC "-//W3C//DTD SVG 20010904//EN"
 "http://www.w3.org/TR/2001/REC-SVG-20010904/DTD/svg10.dtd">
<svg version="1.0" xmlns="http://www.w3.org/2000/svg"
 width="32.000000pt" height="32.000000pt" viewBox="0 0 32.000000 32.000000"
 preserveAspectRatio="xMidYMid meet">
<metadata>
Created by potrace 1.16, written by Peter Selinger 2001-2019
</metadata>
<g transform="translate(0.000000,32.000000) scale(0.100000,-0.100000)"
fill="#000000" stroke="none">
<path fill="#000000" stroke="none" d="M67 273 c-4 -3 -7 -15 -7 -27 0 -20 0
-20 15 0 8 10 15 22 15 27 0 9 -14 9 -23 0z"/>
<path fill="#000000" stroke="none" d="M100 270 c0 -3 6 -13 13 -22 13 -17 57
-31 57 -19 0 4 11 13 25 19 41 19 29 29 -35 29 -33 0 -60 -3 -60 -7z"/>
<path fill="#000000" stroke="none" d="M77 237 c-31 -47 -10 -182 25 -161 12
8 9 -11 -4 -24 -15 -15 -3 -15 24 -1 17 9 18 13 7 20 -10 6 -11 9 -1 10 6 1
17 3 22 4 6 1 14 3 18 4 5 0 9 7 9 14 0 18 -63 19 -78 1 -19 -24 -29 -16 -14
12 7 15 11 33 8 40 -3 8 2 24 10 37 12 19 13 27 3 46 l-13 23 -16 -25z"/>
<path fill="#000000" stroke="none" d="M196 235 c-16 -12 -17 -18 -7 -42 6
-15 9 -40 6 -55 -3 -16 -1 -29 5 -29 5 -1 14 -2 19 -3 5 0 13 -5 18 -10 5 -5
2 -6 -6 -1 -10 5 -12 4 -7 -4 4 -6 12 -9 17 -5 5 3 7 9 4 14 -3 4 1 10 7 13
18 6 -22 38 -40 32 -8 -3 -10 0 -5 7 10 18 11 48 1 48 -4 0 -8 5 -8 11 0 5 5
7 10 4 6 -3 10 3 10 14 0 25 0 24 -24 6z"/>
<path fill="#000000" stroke="none" d="M27 183 c-12 -11 -8 -23 8 -23 8 0 15
7 15 15 0 16 -12 20 -23 8z"/>
<path fill="#000000" stroke="none" d="M20 121 c0 -11 26 -22 34 -14 12 12 5
23 -14 23 -11 0 -20 -4 -20 -9z"/>
<path fill="#000000" stroke="none" d="M270 114 c0 -8 4 -13 9 -10 5 4 12 0
14 -6 4 -8 6 -7 6 3 1 9 -6 19 -14 23 -9 3 -15 0 -15 -10z"/>
<path fill="#000000" stroke="none" d="M20 84 c0 -20 22 -42 37 -37 12 5 14 3
9 -8 -4 -8 0 -5 8 6 15 18 15 20 -6 32 -24 13 -48 17 -48 7z"/>
<path fill="#ffffff" stroke="none" d="M48 55 c-3 -3 -9 2 -12 12 -6 14 -5 15
5 6 7 -7 10 -15 7 -18z"/>
<path fill="#000000" stroke="none" d="M170 70 c-21 -16 -23 -21 -11 -32 12
-11 13 -10 6 2 -8 13 -7 13 9 0 20 -16 49 -23 41 -10 -3 5 1 10 7 13 9 3 7 11
-7 25 -20 21 -20 21 -45 2z"/>
<path fill="#000000" stroke="none" d="M257 76 c-3 -8 1 -17 8 -20 20 -7 28 9
11 23 -10 9 -15 8 -19 -3z"/>
</g>
</svg>
