<?xml version="1.0" standalone="no"?>
<!DOCTYPE svg PUBLIC "-//W3C//DTD SVG 20010904//EN"
 "http://www.w3.org/TR/2001/REC-SVG-20010904/DTD/svg10.dtd">
<svg version="1.0" xmlns="http://www.w3.org/2000/svg"
 width="32.000000pt" height="32.000000pt" viewBox="0 0 32.000000 32.000000"
 preserveAspectRatio="xMidYMid meet">
<metadata>
Created by potrace 1.16, written by Peter Selinger 2001-2019
</metadata>
<g transform="translate(0.000000,32.000000) scale(0.100000,-0.100000)"
fill="#000000" stroke="none">
<path fill="#000000" stroke="none" d="M141 268 c-5 -13 -8 -25 -8 -28 0 -3
-5 -15 -11 -26 -9 -18 -8 -24 5 -35 10 -8 14 -9 10 -2 -4 6 -3 14 1 17 5 3 8
17 7 31 -2 14 1 23 6 19 5 -3 7 -10 4 -15 -4 -5 0 -9 7 -9 8 0 14 8 14 18 1 9
3 23 5 31 7 26 -30 25 -40 -1z"/>
<path fill="#ffffff" stroke="none" d="M172 273 c-6 -2 -9 -10 -6 -15 4 -7 2
-8 -5 -4 -13 9 -5 26 12 25 9 0 8 -2 -1 -6z"/>
<path fill="#000000" stroke="none" d="M197 233 c-6 -11 28 -64 36 -57 3 3 -3
15 -13 27 -11 11 -17 24 -14 29 3 4 3 8 0 8 -3 0 -7 -3 -9 -7z"/>
<path fill="#000000" stroke="none" d="M156 179 c2 -4 0 -10 -6 -14 -6 -4 -8
-11 -5 -16 4 -5 1 -9 -5 -9 -6 0 -9 -4 -5 -9 3 -5 1 -12 -4 -16 -6 -3 -7 -13
-4 -22 4 -10 2 -14 -4 -10 -6 4 -16 0 -22 -7 -9 -10 -9 -16 -1 -21 6 -4 9 -1
8 6 -2 7 4 13 12 14 8 0 15 7 15 15 1 17 24 59 26 48 1 -5 2 -14 3 -20 1 -7 7
-12 14 -11 7 2 12 -3 12 -11 0 -8 4 -17 9 -20 10 -6 10 11 0 29 -10 18 -3 40
11 37 11 -2 10 2 -2 11 -10 8 -18 19 -18 25 0 6 -9 10 -19 9 -11 0 -18 -4 -15
-8z"/>
<path fill="#ffffff" stroke="none" d="M184 140 c-8 -8 -15 -6 -25 6 -9 12
-10 15 -1 10 7 -4 12 -2 12 5 0 10 3 10 12 1 8 -8 9 -15 2 -22z"/>
<path fill="#000000" stroke="none" d="M36 31 c-4 -5 3 -7 14 -4 23 6 26 13 6
13 -8 0 -17 -4 -20 -9z"/>
</g>
</svg>
