<?xml version="1.0" standalone="no"?>
<!DOCTYPE svg PUBLIC "-//W3C//DTD SVG 20010904//EN"
 "http://www.w3.org/TR/2001/REC-SVG-20010904/DTD/svg10.dtd">
<svg version="1.0" xmlns="http://www.w3.org/2000/svg"
 width="32.000000pt" height="32.000000pt" viewBox="0 0 32.000000 32.000000"
 preserveAspectRatio="xMidYMid meet">
<metadata>
Created by potrace 1.16, written by Peter Selinger 2001-2019
</metadata>
<g transform="translate(0.000000,32.000000) scale(0.100000,-0.100000)"
fill="#000000" stroke="none">
<path fill="#000000" stroke="none" d="M0 160 l0 -160 160 0 160 0 0 160 0
160 -160 0 -160 0 0 -160z"/>
<path fill="#ffffff" stroke="none" d="M210 238 c14 -29 27 -57 29 -62 2 -5
-4 -6 -14 -2 -14 5 -16 2 -12 -16 3 -13 9 -40 12 -60 4 -20 13 -39 21 -42 8
-3 14 -10 14 -16 0 -6 -31 -10 -79 -10 -93 0 -101 9 -68 69 19 35 20 44 10 72
-11 27 -9 38 8 75 27 60 48 57 79 -8z"/>
<path fill="#ffffff" stroke="none" d="M70 30 c0 -5 -9 -10 -21 -10 -11 0 -17
5 -14 10 3 6 13 10 21 10 8 0 14 -4 14 -10z"/>
</g>
</svg>
