<?xml version="1.0" standalone="no"?>
<!DOCTYPE svg PUBLIC "-//W3C//DTD SVG 20010904//EN"
 "http://www.w3.org/TR/2001/REC-SVG-20010904/DTD/svg10.dtd">
<svg version="1.0" xmlns="http://www.w3.org/2000/svg"
 width="32.000000pt" height="32.000000pt" viewBox="0 0 32.000000 32.000000"
 preserveAspectRatio="xMidYMid meet">
<metadata>
Created by potrace 1.16, written by Peter Selinger 2001-2019
</metadata>
<g transform="translate(0.000000,32.000000) scale(0.100000,-0.100000)"
fill="#000000" stroke="none">
<path fill="#000000" stroke="none" d="M0 160 l0 -160 160 0 160 0 0 160 0
160 -160 0 -160 0 0 -160z"/>
<path fill="#ffffff" stroke="none" d="M200 292 c0 -5 -7 -17 -16 -28 -8 -10
-14 -14 -11 -9 2 6 7 18 10 28 7 17 17 23 17 9z"/>
<path fill="#ffffff" stroke="none" d="M130 205 c0 -16 2 -17 10 -5 5 8 11 12
14 10 2 -3 -3 -16 -13 -28 -15 -20 -17 -21 -18 -5 -1 10 -5 32 -8 48 -5 23 -4
26 4 15 6 -8 11 -24 11 -35z"/>
<path fill="#ffffff" stroke="none" d="M194 215 c-4 -8 -1 -15 6 -15 10 0 10
-3 0 -15 -7 -8 -16 -12 -21 -9 -5 3 -9 1 -9 -3 0 -5 -7 -18 -15 -29 -14 -18
-14 -17 -5 8 10 28 39 78 46 78 2 0 1 -7 -2 -15z"/>
<path fill="#ffffff" stroke="none" d="M290 155 c-7 -8 -18 -15 -24 -15 -6 0
-2 7 8 15 25 19 32 19 16 0z"/>
<path fill="#ffffff" stroke="none" d="M131 93 c-8 -15 -10 -15 -11 -2 0 17
10 32 18 25 2 -3 -1 -13 -7 -23z"/>
<path fill="#ffffff" stroke="none" d="M225 110 c3 -6 -1 -7 -9 -4 -18 7 -21
14 -7 14 6 0 13 -4 16 -10z"/>
</g>
</svg>
