<?xml version="1.0" standalone="no"?>
<!DOCTYPE svg PUBLIC "-//W3C//DTD SVG 20010904//EN"
 "http://www.w3.org/TR/2001/REC-SVG-20010904/DTD/svg10.dtd">
<svg version="1.0" xmlns="http://www.w3.org/2000/svg"
 width="32.000000pt" height="32.000000pt" viewBox="0 0 32.000000 32.000000"
 preserveAspectRatio="xMidYMid meet">
<metadata>
Created by potrace 1.16, written by Peter Selinger 2001-2019
</metadata>
<g transform="translate(0.000000,32.000000) scale(0.100000,-0.100000)"
fill="#000000" stroke="none">
<path fill="#000000" stroke="none" d="M0 160 l0 -160 160 0 160 0 0 160 0
160 -160 0 -160 0 0 -160z"/>
<path fill="#ffffff" stroke="none" d="M201 271 c-5 -4 -8 -17 -4 -29 3 -12
10 -19 16 -15 6 3 7 1 3 -6 -4 -6 -13 -9 -19 -5 -7 3 -4 -1 5 -9 17 -13 17
-15 -1 -31 -15 -13 -20 -14 -24 -4 -3 7 -6 -2 -6 -19 -1 -19 -10 -42 -21 -53
-11 -11 -20 -24 -20 -28 0 -12 43 -9 53 3 5 6 7 4 4 -5 -2 -10 -17 -15 -40
-16 -20 0 -34 3 -31 8 3 4 -5 7 -18 5 -19 -2 -24 3 -26 27 -2 17 0 26 7 22 5
-4 8 -13 4 -21 -3 -10 1 -15 12 -15 27 0 10 48 -31 90 -36 38 -48 65 -14 35
11 -10 20 -15 20 -10 0 4 6 2 13 -4 8 -6 18 -7 22 -3 5 4 6 0 3 -8 -3 -9 0
-29 6 -45 l12 -29 14 35 c7 19 19 41 25 49 7 8 16 26 20 40 6 19 1 16 -19 -13
-14 -21 -26 -45 -26 -54 0 -32 -19 2 -26 46 -5 32 -4 42 4 37 7 -4 12 -17 12
-29 0 -22 1 -22 20 3 11 14 23 34 26 45 4 11 12 26 18 34 9 12 12 11 14 -4 2
-10 -1 -21 -7 -24z"/>
<path fill="#ffffff" stroke="none" d="M242 253 c-6 -3 -9 -10 -6 -16 4 -7 1
-7 -7 1 -12 11 -12 14 1 22 8 5 17 6 20 3 3 -3 -1 -8 -8 -10z"/>
<path fill="#ffffff" stroke="none" d="M283 161 c22 13 22 6 -1 -15 -18 -15
-20 -15 -38 5 -19 22 -19 22 1 11 14 -7 26 -7 38 -1z"/>
<path fill="#ffffff" stroke="none" d="M226 97 c1 -9 -2 -15 -7 -11 -5 3 -7 9
-4 14 3 4 0 11 -5 13 -6 3 -5 4 1 3 7 -1 13 -10 15 -19z"/>
<path fill="#ffffff" stroke="none" d="M63 66 c6 -16 -2 -28 -14 -20 -12 7
-11 34 0 34 5 0 11 -6 14 -14z"/>
</g>
</svg>
