<?xml version="1.0" standalone="no"?>
<!DOCTYPE svg PUBLIC "-//W3C//DTD SVG 20010904//EN"
 "http://www.w3.org/TR/2001/REC-SVG-20010904/DTD/svg10.dtd">
<svg version="1.0" xmlns="http://www.w3.org/2000/svg"
 width="32.000000pt" height="32.000000pt" viewBox="0 0 32.000000 32.000000"
 preserveAspectRatio="xMidYMid meet">
<metadata>
Created by potrace 1.16, written by Peter Selinger 2001-2019
</metadata>
<g transform="translate(0.000000,32.000000) scale(0.100000,-0.100000)"
fill="#000000" stroke="none">
<path fill="#000000" stroke="none" d="M0 160 l0 -160 160 0 160 0 0 160 0
160 -160 0 -160 0 0 -160z"/>
<path fill="#ffffff" stroke="none" d="M192 280 c6 0 7 -7 4 -16 -9 -22 11
-44 40 -44 22 0 24 -4 24 -44 0 -25 -3 -47 -7 -49 -5 -3 -6 15 -4 39 3 39 1
44 -19 44 -19 0 -21 -5 -18 -47 3 -47 4 -48 33 -46 28 2 31 0 30 -25 0 -22 -5
-27 -24 -27 -15 0 -28 -9 -34 -23 -8 -18 -18 -22 -59 -22 -40 0 -48 3 -48 19
0 10 7 24 15 31 30 25 8 68 -33 61 -21 -3 -27 31 -8 45 10 7 15 17 12 22 -3 5
3 17 14 27 12 11 18 25 15 36 -6 18 17 30 43 23 8 -2 18 -4 24 -4z"/>
<path fill="#000000" stroke="none" d="M143 274 c-7 -3 -9 -12 -6 -20 3 -9 -3
-21 -14 -29 -22 -15 -24 -56 -3 -63 8 -3 10 0 5 8 -6 9 -4 11 4 5 9 -5 10 -10
2 -18 -15 -15 -14 -27 4 -27 8 0 15 -4 15 -10 0 -5 5 -10 10 -10 6 0 10 7 10
15 0 9 6 12 15 9 17 -7 20 7 4 23 -8 8 -8 13 0 17 14 9 14 56 0 56 -6 0 -9 9
-6 19 3 12 -1 22 -10 25 -8 3 -15 6 -16 5 -1 0 -7 -3 -14 -5z"/>
<path fill="#ffffff" stroke="none" d="M170 230 c0 -5 -4 -10 -10 -10 -5 0
-10 5 -10 10 0 6 5 10 10 10 6 0 10 -4 10 -10z"/>
<path fill="#000000" stroke="none" d="M80 155 c0 -9 5 -15 11 -13 6 2 11 8
11 13 0 5 -5 11 -11 13 -6 2 -11 -4 -11 -13z"/>
<path fill="#000000" stroke="none" d="M180 100 c0 -11 5 -20 12 -20 6 0 8 3
5 7 -4 3 -2 12 4 20 9 10 8 13 -5 13 -9 0 -16 -8 -16 -20z"/>
<path fill="#000000" stroke="none" d="M138 75 c-27 -36 -22 -45 22 -45 45 0
50 12 21 48 -23 27 -22 27 -43 -3z"/>
</g>
</svg>
