<?xml version="1.0" standalone="no"?>
<!DOCTYPE svg PUBLIC "-//W3C//DTD SVG 20010904//EN"
 "http://www.w3.org/TR/2001/REC-SVG-20010904/DTD/svg10.dtd">
<svg version="1.0" xmlns="http://www.w3.org/2000/svg"
 width="32.000000pt" height="32.000000pt" viewBox="0 0 32.000000 32.000000"
 preserveAspectRatio="xMidYMid meet">
<metadata>
Created by potrace 1.16, written by Peter Selinger 2001-2019
</metadata>
<g transform="translate(0.000000,32.000000) scale(0.100000,-0.100000)"
fill="#000000" stroke="none">
<path fill="#000000" stroke="none" d="M0 160 l0 -160 160 0 160 0 0 160 0
160 -160 0 -160 0 0 -160z"/>
<path fill="#ffffff" stroke="none" d="M192 280 c6 0 7 -7 4 -16 -9 -22 11
-44 40 -44 22 0 24 -4 24 -44 0 -25 -4 -47 -9 -50 -5 -4 -8 13 -5 39 3 39 1
45 -16 45 -17 0 -20 -7 -20 -45 0 -33 -4 -45 -15 -45 -8 0 -15 -9 -15 -20 0
-11 5 -20 11 -20 5 0 8 4 4 9 -7 13 14 25 50 28 28 2 31 -1 30 -25 0 -22 -5
-27 -24 -27 -15 0 -28 -9 -34 -23 -8 -18 -18 -22 -59 -22 -40 0 -48 3 -48 19
0 10 7 24 15 31 30 25 8 68 -33 61 -21 -3 -27 31 -8 45 10 7 15 17 12 22 -3 5
3 17 14 27 12 11 18 25 15 36 -6 18 17 30 43 23 8 -2 18 -4 24 -4z"/>
<path fill="#000000" stroke="none" d="M143 274 c-7 -3 -9 -12 -6 -20 3 -9 -3
-21 -14 -29 -11 -8 -19 -23 -18 -34 1 -22 15 -42 15 -22 0 7 5 9 11 5 8 -4 8
-9 0 -17 -16 -16 -13 -30 4 -23 9 3 15 0 15 -9 0 -8 5 -15 10 -15 6 0 10 9 10
20 0 12 5 17 13 14 8 -3 14 2 14 10 0 8 -4 13 -9 10 -4 -3 -8 0 -8 5 0 6 4 11
10 11 5 0 9 11 8 25 -1 14 -6 25 -11 25 -5 0 -7 9 -4 19 3 12 -1 22 -10 25 -8
3 -15 6 -16 5 -1 0 -7 -3 -14 -5z"/>
<path fill="#ffffff" stroke="none" d="M174 224 c3 -8 2 -13 -3 -9 -5 3 -12
-1 -14 -7 -3 -7 -6 -3 -6 10 -1 25 14 30 23 6z"/>
<path fill="#000000" stroke="none" d="M80 155 c0 -9 5 -15 11 -13 6 2 11 8
11 13 0 5 -5 11 -11 13 -6 2 -11 -4 -11 -13z"/>
<path fill="#000000" stroke="none" d="M138 75 c-27 -36 -22 -45 22 -45 45 0
50 12 21 48 -23 27 -22 27 -43 -3z"/>
</g>
</svg>
