<?xml version="1.0" standalone="no"?>
<!DOCTYPE svg PUBLIC "-//W3C//DTD SVG 20010904//EN"
 "http://www.w3.org/TR/2001/REC-SVG-20010904/DTD/svg10.dtd">
<svg version="1.0" xmlns="http://www.w3.org/2000/svg"
 width="32.000000pt" height="32.000000pt" viewBox="0 0 32.000000 32.000000"
 preserveAspectRatio="xMidYMid meet">
<metadata>
Created by potrace 1.16, written by Peter Selinger 2001-2019
</metadata>
<g transform="translate(0.000000,32.000000) scale(0.100000,-0.100000)"
fill="#000000" stroke="none">
<path fill="#000000" stroke="none" d="M62 280 c-1 -17 3 -30 9 -30 6 0 9 -10
6 -22 -3 -13 1 -41 9 -63 13 -38 13 -39 9 -6 -4 29 -3 32 10 21 12 -10 16 -9
21 5 5 12 9 13 14 4 5 -7 1 -27 -8 -46 -14 -30 -14 -35 -2 -43 21 -14 3 -12
-23 1 -18 10 -24 8 -44 -17 -13 -16 -23 -37 -23 -46 0 -16 12 -18 120 -18 100
0 120 3 120 15 0 12 -18 15 -92 17 l-93 2 83 3 c64 3 82 7 82 18 0 10 -11 15
-32 15 -26 0 -30 3 -18 10 13 9 13 12 -1 23 -9 6 -21 23 -28 37 l-12 25 19
-24 c28 -35 46 -18 25 22 -9 18 -17 37 -18 42 -3 26 -26 66 -37 63 -20 -7 -20
-25 0 -30 10 -3 19 -12 19 -21 0 -9 -4 -14 -9 -11 -5 3 -6 10 -3 15 12 19 -17
8 -34 -13 -23 -28 -45 -15 -37 23 3 15 1 31 -4 34 -6 4 -8 11 -5 16 4 5 0 9
-7 9 -8 0 -15 -13 -16 -30z"/>
<path fill="#ffffff" stroke="none" d="M187 94 c-3 -3 -12 -4 -19 -1 -8 3 -5
6 6 6 11 1 17 -2 13 -5z"/>
<path fill="#ffffff" stroke="none" d="M193 73 c-7 -2 -19 -2 -25 0 -7 3 -2 5
12 5 14 0 19 -2 13 -5z"/>
<path fill="#ffffff" stroke="none" d="M237 74 c-3 -3 -12 -4 -19 -1 -8 3 -5
6 6 6 11 1 17 -2 13 -5z"/>
<path fill="#ffffff" stroke="none" d="M173 33 c-7 -2 -19 -2 -25 0 -7 3 -2 5
12 5 14 0 19 -2 13 -5z"/>
</g>
</svg>
