<?xml version="1.0" standalone="no"?>
<!DOCTYPE svg PUBLIC "-//W3C//DTD SVG 20010904//EN"
 "http://www.w3.org/TR/2001/REC-SVG-20010904/DTD/svg10.dtd">
<svg version="1.0" xmlns="http://www.w3.org/2000/svg"
 width="32.000000pt" height="32.000000pt" viewBox="0 0 32.000000 32.000000"
 preserveAspectRatio="xMidYMid meet">
<metadata>
Created by potrace 1.16, written by Peter Selinger 2001-2019
</metadata>
<g transform="translate(0.000000,32.000000) scale(0.100000,-0.100000)"
fill="#000000" stroke="none">
<path fill="#000000" stroke="none" d="M0 160 l0 -160 160 0 160 0 0 160 0
160 -160 0 -160 0 0 -160z"/>
<path fill="#ffffff" stroke="none" d="M85 301 c-3 -5 -1 -12 5 -16 5 -3 7
-19 4 -34 -8 -40 11 -47 47 -17 22 19 26 26 14 26 -18 0 -16 21 2 27 19 7 25
-31 7 -44 -15 -11 -15 -13 0 -28 15 -16 21 -9 17 18 0 4 4 7 9 7 6 0 10 -6 8
-12 -1 -7 3 -23 10 -35 8 -15 9 -24 2 -28 -6 -4 -10 -3 -9 2 3 20 -2 27 -11
13 -5 -8 -10 -10 -10 -3 0 6 -9 9 -20 6 -13 -3 -20 0 -20 8 -1 9 -4 8 -11 -4
-8 -14 -14 -16 -25 -6 -12 10 -13 6 -9 -22 4 -33 4 -32 -9 6 -8 22 -11 53 -8
69 4 21 2 27 -7 22 -8 -5 -11 2 -9 23 1 18 8 31 16 31 7 0 11 -4 7 -9z"/>
<path fill="#ffffff" stroke="none" d="M166 162 c14 -9 14 -42 0 -43 -6 0 -2
-4 9 -9 16 -7 13 -9 -17 -9 -41 -1 -44 4 -26 44 12 27 17 29 34 17z"/>
<path fill="#ffffff" stroke="none" d="M225 150 c-3 -5 -12 -10 -18 -10 -7 0
-6 4 3 10 19 12 23 12 15 0z"/>
<path fill="#ffffff" stroke="none" d="M90 86 c0 -2 -7 -6 -15 -10 -8 -3 -15
-1 -15 4 0 6 7 10 15 10 8 0 15 -2 15 -4z"/>
<path fill="#ffffff" stroke="none" d="M60 46 c0 -3 -4 -8 -10 -11 -5 -3 -10
-1 -10 4 0 6 5 11 10 11 6 0 10 -2 10 -4z"/>
<path fill="#ffffff" stroke="none" d="M97 44 c-3 -3 -12 -4 -19 -1 -8 3 -5 6
6 6 11 1 17 -2 13 -5z"/>
<path fill="#ffffff" stroke="none" d="M143 43 c-7 -2 -19 -2 -25 0 -7 3 -2 5
12 5 14 0 19 -2 13 -5z"/>
</g>
</svg>
