<?xml version="1.0" standalone="no"?>
<!DOCTYPE svg PUBLIC "-//W3C//DTD SVG 20010904//EN"
 "http://www.w3.org/TR/2001/REC-SVG-20010904/DTD/svg10.dtd">
<svg version="1.0" xmlns="http://www.w3.org/2000/svg"
 width="32.000000pt" height="32.000000pt" viewBox="0 0 32.000000 32.000000"
 preserveAspectRatio="xMidYMid meet">
<metadata>
Created by potrace 1.16, written by Peter Selinger 2001-2019
</metadata>
<g transform="translate(0.000000,32.000000) scale(0.100000,-0.100000)"
fill="#000000" stroke="none">
<path fill="#000000" stroke="none" d="M0 273 c0 -37 3 -44 12 -35 17 17 58
15 79 -4 22 -20 49 -12 49 14 0 27 42 62 74 62 39 0 76 -41 76 -83 0 -46 -25
-74 -80 -90 -28 -8 -46 -19 -48 -30 -5 -24 29 -22 61 3 31 24 54 25 79 3 17
-15 18 -12 18 95 l0 112 -160 0 -160 0 0 -47z"/>
<path fill="#000000" stroke="none" d="M187 243 c-4 -3 -7 -14 -7 -23 0 -24
-42 -60 -71 -60 -14 0 -36 11 -48 24 -13 14 -32 24 -42 23 -17 -1 -19 -10 -19
-104 l0 -103 160 0 c157 0 160 0 160 22 0 21 0 21 -21 2 -15 -13 -24 -15 -36
-8 -18 11 -15 30 4 26 7 -2 13 6 13 18 0 26 -31 27 -55 0 -35 -39 -105 -14
-105 37 0 31 38 72 81 90 30 12 39 21 39 39 0 18 -5 24 -23 24 -13 0 -27 -3
-30 -7z"/>
</g>
</svg>
