<?xml version="1.0" standalone="no"?>
<!DOCTYPE svg PUBLIC "-//W3C//DTD SVG 20010904//EN"
 "http://www.w3.org/TR/2001/REC-SVG-20010904/DTD/svg10.dtd">
<svg version="1.0" xmlns="http://www.w3.org/2000/svg"
 width="32.000000pt" height="32.000000pt" viewBox="0 0 32.000000 32.000000"
 preserveAspectRatio="xMidYMid meet">
<metadata>
Created by potrace 1.16, written by Peter Selinger 2001-2019
</metadata>
<g transform="translate(0.000000,32.000000) scale(0.100000,-0.100000)"
fill="#000000" stroke="none">
<path fill="#000000" stroke="none" d="M238 284 c35 -24 30 -70 -10 -94 -18
-11 -28 -20 -21 -20 6 0 20 -3 30 -7 10 -3 15 -3 11 2 -4 4 -1 17 7 29 20 28
19 70 -3 89 -10 10 -23 17 -28 17 -4 0 2 -7 14 -16z"/>
<path fill="#000000" stroke="none" d="M151 248 c-1 -9 -11 -24 -23 -33 l-23
-17 23 7 c14 4 22 2 22 -6 0 -9 3 -10 10 -3 6 6 6 21 1 39 -5 17 -10 22 -10
13z"/>
<path fill="#000000" stroke="none" d="M17 233 c-14 -13 -7 -25 8 -13 8 7 26
10 40 8 13 -3 22 -1 19 3 -6 11 -58 12 -67 2z"/>
<path fill="#000000" stroke="none" d="M221 100 c-27 -23 -51 -25 -71 -7 -12
10 -12 9 0 -6 9 -12 23 -17 44 -14 43 5 67 17 59 30 -4 6 2 8 15 5 12 -4 20
-2 16 3 -9 15 -37 10 -63 -11z"/>
</g>
</svg>
