<?xml version="1.0" standalone="no"?>
<!DOCTYPE svg PUBLIC "-//W3C//DTD SVG 20010904//EN"
 "http://www.w3.org/TR/2001/REC-SVG-20010904/DTD/svg10.dtd">
<svg version="1.0" xmlns="http://www.w3.org/2000/svg"
 width="32.000000pt" height="32.000000pt" viewBox="0 0 32.000000 32.000000"
 preserveAspectRatio="xMidYMid meet">
<metadata>
Created by potrace 1.16, written by Peter Selinger 2001-2019
</metadata>
<g transform="translate(0.000000,32.000000) scale(0.100000,-0.100000)"
fill="#000000" stroke="none">
<path fill="#000000" stroke="none" d="M122 251 c-19 -12 -42 -60 -36 -75 6
-15 -13 -32 -24 -21 -3 3 0 10 8 15 13 8 12 10 -2 10 -13 0 -18 -8 -18 -25 0
-17 6 -25 17 -25 15 0 15 -1 0 -18 -21 -23 -22 -46 -1 -63 11 -9 18 -9 22 -2
6 10 41 17 66 14 5 -1 3 -8 -4 -16 -7 -9 -10 -18 -7 -21 3 -3 25 13 48 37 39
40 41 45 31 73 -9 24 -9 33 3 46 20 22 19 36 -5 60 -27 27 -36 25 -36 -7 1
-37 -35 -40 -41 -4 -4 31 -6 32 -21 22z"/>
<path fill="#ffffff" stroke="none" d="M130 230 c0 -5 -4 -10 -10 -10 -5 0
-10 5 -10 10 0 6 5 10 10 10 6 0 10 -4 10 -10z"/>
<path fill="#ffffff" stroke="none" d="M220 230 c0 -5 -4 -10 -10 -10 -5 0
-10 5 -10 10 0 6 5 10 10 10 6 0 10 -4 10 -10z"/>
<path fill="#ffffff" stroke="none" d="M131 157 c-10 -9 -11 -8 -5 6 3 10 9
15 12 12 3 -3 0 -11 -7 -18z"/>
<path fill="#ffffff" stroke="none" d="M197 158 c-3 -8 -6 -5 -6 6 -1 11 2 17
5 13 3 -3 4 -12 1 -19z"/>
<path fill="#000000" stroke="none" d="M158 213 c7 -3 16 -2 19 1 4 3 -2 6
-13 5 -11 0 -14 -3 -6 -6z"/>
</g>
</svg>
