<?xml version="1.0" standalone="no"?>
<!DOCTYPE svg PUBLIC "-//W3C//DTD SVG 20010904//EN"
 "http://www.w3.org/TR/2001/REC-SVG-20010904/DTD/svg10.dtd">
<svg version="1.0" xmlns="http://www.w3.org/2000/svg"
 width="32.000000pt" height="32.000000pt" viewBox="0 0 32.000000 32.000000"
 preserveAspectRatio="xMidYMid meet">
<metadata>
Created by potrace 1.16, written by Peter Selinger 2001-2019
</metadata>
<g transform="translate(0.000000,32.000000) scale(0.100000,-0.100000)"
fill="#000000" stroke="none">
<path fill="#000000" stroke="none" d="M117 157 c-7 -33 -4 -42 18 -69 18 -22
23 -34 16 -41 -18 -18 -12 -28 8 -18 10 6 29 27 41 48 19 32 21 43 12 78 l-11
40 3 -42 c3 -40 -12 -71 -27 -57 -4 4 -5 -3 -2 -15 2 -11 1 -21 -3 -21 -15 0
-37 47 -42 90 l-5 45 -8 -38z"/>
</g>
</svg>
