<?xml version="1.0" standalone="no"?>
<!DOCTYPE svg PUBLIC "-//W3C//DTD SVG 20010904//EN"
 "http://www.w3.org/TR/2001/REC-SVG-20010904/DTD/svg10.dtd">
<svg version="1.0" xmlns="http://www.w3.org/2000/svg"
 width="32.000000pt" height="32.000000pt" viewBox="0 0 32.000000 32.000000"
 preserveAspectRatio="xMidYMid meet">
<metadata>
Created by potrace 1.16, written by Peter Selinger 2001-2019
</metadata>
<g transform="translate(0.000000,32.000000) scale(0.100000,-0.100000)"
fill="#000000" stroke="none">
<path fill="#000000" stroke="none" d="M0 160 l0 -160 160 0 160 0 0 160 0
160 -160 0 -160 0 0 -160z"/>
<path fill="#ffffff" stroke="none" d="M129 247 c-8 -7 -18 -23 -22 -37 -6
-24 -6 -24 9 -5 14 19 16 19 25 3 13 -23 35 -23 48 0 9 16 11 16 25 -3 15 -19
15 -19 9 5 -4 14 -14 31 -22 38 -14 11 -13 12 6 3 30 -15 39 -48 19 -70 -13
-14 -14 -23 -4 -47 10 -28 8 -33 -31 -73 -23 -24 -45 -40 -48 -37 -4 3 2 14
11 25 17 18 16 19 -21 14 -21 -3 -41 -10 -45 -16 -4 -7 -11 -7 -22 2 -17 15
-21 47 -7 55 5 4 7 -4 4 -16 -3 -13 -3 -21 0 -18 3 3 8 18 11 33 3 19 0 27
-10 27 -8 0 -14 4 -14 9 0 5 8 7 19 4 20 -5 39 26 21 37 -18 11 26 80 50 80 3
-1 -2 -6 -11 -13z"/>
<path fill="#000000" stroke="none" d="M127 170 c-3 -8 -8 -24 -13 -34 -7 -19
-7 -19 13 0 11 10 17 24 14 29 -2 6 2 4 10 -2 12 -10 18 -10 29 0 7 6 10 7 7
2 -3 -6 2 -19 10 -30 14 -18 15 -18 9 -2 -3 10 -6 26 -6 35 0 23 -67 24 -73 2z"/>
</g>
</svg>
