<?xml version="1.0" standalone="no"?>
<!DOCTYPE svg PUBLIC "-//W3C//DTD SVG 20010904//EN"
 "http://www.w3.org/TR/2001/REC-SVG-20010904/DTD/svg10.dtd">
<svg version="1.0" xmlns="http://www.w3.org/2000/svg"
 width="32.000000pt" height="32.000000pt" viewBox="0 0 32.000000 32.000000"
 preserveAspectRatio="xMidYMid meet">
<metadata>
Created by potrace 1.16, written by Peter Selinger 2001-2019
</metadata>
<g transform="translate(0.000000,32.000000) scale(0.100000,-0.100000)"
fill="#000000" stroke="none">
<path fill="#000000" stroke="none" d="M113 75 c1 -42 6 -65 14 -65 16 0 27
38 14 53 -6 8 -6 18 -1 27 7 12 13 11 33 -8 l23 -22 2 40 3 40 -46 0 -45 0 3
-65z"/>
<path fill="#000000" stroke="none" d="M192 33 c5 -25 28 -28 28 -4 0 12 -6
21 -16 21 -9 0 -14 -7 -12 -17z"/>
</g>
</svg>
