<?xml version="1.0" standalone="no"?>
<!DOCTYPE svg PUBLIC "-//W3C//DTD SVG 20010904//EN"
 "http://www.w3.org/TR/2001/REC-SVG-20010904/DTD/svg10.dtd">
<svg version="1.0" xmlns="http://www.w3.org/2000/svg"
 width="32.000000pt" height="32.000000pt" viewBox="0 0 32.000000 32.000000"
 preserveAspectRatio="xMidYMid meet">
<metadata>
Created by potrace 1.16, written by Peter Selinger 2001-2019
</metadata>
<g transform="translate(0.000000,32.000000) scale(0.100000,-0.100000)"
fill="#000000" stroke="none">
<path fill="#000000" stroke="none" d="M0 160 l0 -160 160 0 160 0 0 160 0
160 -160 0 -160 0 0 -160z"/>
<path fill="#ffffff" stroke="none" d="M198 231 c-1 -5 -12 -3 -23 6 -16 13
-17 15 -2 10 10 -4 17 -1 18 6 0 9 2 9 6 0 2 -7 3 -17 1 -22z"/>
<path fill="#ffffff" stroke="none" d="M187 188 c-3 -8 -6 -5 -6 6 -1 11 2 17
5 13 3 -3 4 -12 1 -19z"/>
<path fill="#ffffff" stroke="none" d="M203 139 c-4 -15 -8 -17 -14 -8 -6 11
4 28 18 29 0 0 -1 -9 -4 -21z"/>
<path fill="#ffffff" stroke="none" d="M163 143 c-7 -2 -14 -17 -14 -31 -1
-18 -3 -21 -6 -9 -6 24 3 47 19 46 10 0 10 -2 1 -6z"/>
</g>
</svg>
