<?xml version="1.0" standalone="no"?>
<!DOCTYPE svg PUBLIC "-//W3C//DTD SVG 20010904//EN"
 "http://www.w3.org/TR/2001/REC-SVG-20010904/DTD/svg10.dtd">
<svg version="1.0" xmlns="http://www.w3.org/2000/svg"
 width="32.000000pt" height="32.000000pt" viewBox="0 0 32.000000 32.000000"
 preserveAspectRatio="xMidYMid meet">
<metadata>
Created by potrace 1.16, written by Peter Selinger 2001-2019
</metadata>
<g transform="translate(0.000000,32.000000) scale(0.100000,-0.100000)"
fill="#000000" stroke="none">
<path fill="#000000" stroke="none" d="M50 312 c0 -7 11 -25 25 -40 14 -15 25
-21 25 -15 0 16 -49 71 -50 55z"/>
<path fill="#000000" stroke="none" d="M103 313 c10 -16 16 -93 6 -87 -5 3 -7
9 -5 13 3 3 -4 7 -14 7 -11 0 -16 -6 -13 -16 3 -8 -5 -4 -16 9 -12 13 -24 21
-28 18 -3 -3 9 -18 26 -32 43 -37 39 -48 -14 -43 -31 2 -45 -1 -45 -9 0 -7 8
-13 17 -13 13 0 14 -3 5 -12 -18 -18 -15 -25 13 -32 14 -4 23 -11 20 -16 -3
-6 2 -10 12 -10 13 0 7 -11 -24 -40 -35 -34 -39 -40 -22 -40 12 0 30 12 41 26
16 20 23 23 29 12 6 -9 9 -7 9 10 0 12 5 22 10 22 6 0 10 -8 10 -19 0 -10 7
-24 16 -32 13 -10 17 -10 25 2 7 12 9 11 9 -3 0 -9 5 -20 12 -24 8 -5 9 5 5
35 -5 42 -5 42 14 25 19 -17 20 -17 14 2 -6 17 -5 17 12 -2 10 -12 23 -30 28
-39 6 -10 17 -16 24 -14 8 3 4 14 -13 34 -14 17 -21 32 -16 33 6 2 8 8 4 13
-7 12 23 11 47 -1 19 -11 28 3 9 15 -6 4 -6 15 1 32 5 14 6 29 2 32 -4 3 -8
13 -8 21 0 8 -10 20 -23 26 -20 10 -21 12 -7 24 9 7 21 23 27 34 7 14 -2 9
-26 -13 -20 -19 -36 -29 -36 -22 0 9 -8 11 -21 8 -18 -5 -20 -2 -16 19 2 13 0
27 -4 30 -5 3 -9 -9 -9 -25 0 -17 -4 -31 -10 -31 -5 0 -10 6 -10 13 0 8 -3 7
-10 -3 -11 -18 -14 -14 -26 29 -5 19 -15 36 -23 39 -8 3 -11 0 -8 -5z"/>
<path fill="#000000" stroke="none" d="M10 100 c-8 -5 -11 -12 -7 -16 4 -4 13
-2 19 4 15 15 7 24 -12 12z"/>
</g>
</svg>
