<?xml version="1.0" standalone="no"?>
<!DOCTYPE svg PUBLIC "-//W3C//DTD SVG 20010904//EN"
 "http://www.w3.org/TR/2001/REC-SVG-20010904/DTD/svg10.dtd">
<svg version="1.0" xmlns="http://www.w3.org/2000/svg"
 width="32.000000pt" height="32.000000pt" viewBox="0 0 32.000000 32.000000"
 preserveAspectRatio="xMidYMid meet">
<metadata>
Created by potrace 1.16, written by Peter Selinger 2001-2019
</metadata>
<g transform="translate(0.000000,32.000000) scale(0.100000,-0.100000)"
fill="#000000" stroke="none">
<path fill="#000000" stroke="none" d="M0 248 l0 -73 54 3 c59 4 63 12 27 57
-12 15 -9 14 11 -3 22 -20 29 -22 47 -11 11 8 22 20 25 29 3 11 4 10 5 -4 1
-10 6 -16 14 -13 6 3 20 8 30 12 19 8 25 -19 7 -30 -6 -4 -8 -11 -5 -16 4 -5
-2 -12 -12 -16 -10 -4 -25 -15 -34 -25 -9 -10 -21 -18 -28 -18 -6 0 -11 -5
-11 -11 0 -8 -5 -7 -15 1 -13 10 -24 11 -56 1 -46 -14 -64 -6 -35 15 19 14 19
14 -1 14 -20 0 -21 -5 -22 -80 l0 -80 159 0 160 0 -1 78 c-1 42 -3 69 -6 60
-2 -9 -19 -20 -36 -24 -18 -3 -41 -11 -52 -17 -24 -13 -105 -19 -105 -7 0 4
-14 6 -31 4 -21 -3 -29 0 -26 9 2 8 23 12 60 11 31 -1 54 2 51 7 -3 5 2 6 10
3 11 -4 16 0 16 10 0 9 5 16 11 16 5 0 7 5 4 10 -3 6 -1 10 6 10 6 0 9 -8 6
-20 -6 -22 5 -26 21 -7 15 18 15 29 0 38 -10 7 -10 12 5 26 13 14 21 15 35 7
9 -6 17 -18 17 -27 0 -9 4 -19 8 -23 4 -4 7 29 7 74 l0 82 -129 0 c-94 0 -131
-3 -134 -12 -4 -10 -6 -10 -6 0 -1 6 -12 12 -26 12 -24 0 -25 -2 -25 -72z"/>
<path fill="#000000" stroke="none" d="M58 153 c6 -2 18 -2 25 0 6 3 1 5 -13
5 -14 0 -19 -2 -12 -5z"/>
</g>
</svg>
