<?xml version="1.0" standalone="no"?>
<!DOCTYPE svg PUBLIC "-//W3C//DTD SVG 20010904//EN"
 "http://www.w3.org/TR/2001/REC-SVG-20010904/DTD/svg10.dtd">
<svg version="1.0" xmlns="http://www.w3.org/2000/svg"
 width="32.000000pt" height="32.000000pt" viewBox="0 0 32.000000 32.000000"
 preserveAspectRatio="xMidYMid meet">
<metadata>
Created by potrace 1.16, written by Peter Selinger 2001-2019
</metadata>
<g transform="translate(0.000000,32.000000) scale(0.100000,-0.100000)"
fill="#000000" stroke="none">
<path fill="#000000" stroke="none" d="M0 261 c0 -52 2 -59 22 -65 50 -13 59
-8 33 19 -35 34 -31 65 4 33 12 -11 13 -9 6 7 -4 11 -10 30 -12 43 -4 15 -13
22 -29 22 -23 0 -24 -4 -24 -59z"/>
<path fill="#000000" stroke="none" d="M146 293 c9 -39 14 -41 31 -15 20 29
36 28 31 -3 -8 -37 28 -32 76 10 l39 35 -92 0 -91 0 6 -27z"/>
<path fill="#000000" stroke="none" d="M293 246 c-22 -22 -22 -22 -2 -35 12
-7 18 -19 15 -27 -3 -8 -1 -14 4 -14 6 0 10 23 10 50 0 28 -1 50 -2 49 -2 -1
-13 -11 -25 -23z"/>
<path fill="#000000" stroke="none" d="M0 123 c0 -14 3 -23 7 -19 10 10 11 46
1 46 -4 0 -8 -12 -8 -27z"/>
<path fill="#000000" stroke="none" d="M311 134 c0 -11 3 -14 6 -6 3 7 2 16
-1 19 -3 4 -6 -2 -5 -13z"/>
<path fill="#000000" stroke="none" d="M260 88 c1 -7 7 -24 15 -38 8 -14 14
-28 15 -32 0 -15 -27 -8 -45 12 -25 28 -43 26 -37 -5 4 -23 9 -25 58 -25 l54
0 0 42 c0 23 -3 38 -7 35 -3 -4 -17 0 -30 8 -17 12 -23 12 -23 3z"/>
<path fill="#000000" stroke="none" d="M12 81 c-8 -4 -12 -18 -10 -29 3 -20 5
-20 38 8 34 29 34 29 10 30 -14 0 -31 -4 -38 -9z"/>
<path fill="#000000" stroke="none" d="M78 31 c-13 -11 -37 -21 -53 -24 -17
-2 8 -5 54 -6 l84 -1 -23 25 c-28 30 -31 30 -62 6z"/>
</g>
</svg>
