<?xml version="1.0" standalone="no"?>
<!DOCTYPE svg PUBLIC "-//W3C//DTD SVG 20010904//EN"
 "http://www.w3.org/TR/2001/REC-SVG-20010904/DTD/svg10.dtd">
<svg version="1.0" xmlns="http://www.w3.org/2000/svg"
 width="32.000000pt" height="32.000000pt" viewBox="0 0 32.000000 32.000000"
 preserveAspectRatio="xMidYMid meet">
<metadata>
Created by potrace 1.16, written by Peter Selinger 2001-2019
</metadata>
<g transform="translate(0.000000,32.000000) scale(0.100000,-0.100000)"
fill="#000000" stroke="none">
<path fill="#000000" stroke="none" d="M0 160 l0 -160 160 0 160 0 0 160 0
160 -160 0 -160 0 0 -160z"/>
<path fill="#ffffff" stroke="none" d="M167 238 c-3 -8 -6 -5 -6 6 -1 11 2 17
5 13 3 -3 4 -12 1 -19z"/>
<path fill="#ffffff" stroke="none" d="M230 241 c0 -11 -19 -26 -45 -35 -17
-6 -17 -4 4 18 25 26 41 33 41 17z"/>
<path fill="#ffffff" stroke="none" d="M135 210 c5 8 13 6 25 -5 10 -9 24 -14
29 -10 6 3 11 1 11 -4 0 -6 -9 -11 -20 -11 -11 0 -19 -5 -17 -11 1 -6 -8 -15
-21 -20 -24 -9 -27 -6 -35 44 -3 21 -1 25 8 17 9 -8 15 -8 20 0z"/>
<path fill="#ffffff" stroke="none" d="M297 208 c5 -7 10 -30 12 -50 1 -33 -1
-38 -21 -38 -13 0 -34 -3 -48 -5 -22 -5 -22 -4 -5 4 11 5 16 10 11 10 -5 1 -3
8 4 16 6 8 9 23 5 34 -11 36 20 57 42 29z"/>
<path fill="#ffffff" stroke="none" d="M56 135 c-22 -16 -46 -20 -46 -7 0 15
13 22 39 22 25 -1 25 -1 7 -15z"/>
<path fill="#ffffff" stroke="none" d="M157 105 c0 -18 -23 -20 -33 -3 -4 6
-3 8 4 4 6 -3 13 -2 17 4 9 14 12 13 12 -5z"/>
<path fill="#ffffff" stroke="none" d="M204 95 c-3 -7 -12 -11 -20 -8 -17 6
-18 20 -1 26 18 6 27 -1 21 -18z"/>
<path fill="#ffffff" stroke="none" d="M90 106 c0 -2 -7 -7 -16 -10 -8 -3 -12
-2 -9 4 6 10 25 14 25 6z"/>
</g>
</svg>
