<?xml version="1.0" standalone="no"?>
<!DOCTYPE svg PUBLIC "-//W3C//DTD SVG 20010904//EN"
 "http://www.w3.org/TR/2001/REC-SVG-20010904/DTD/svg10.dtd">
<svg version="1.0" xmlns="http://www.w3.org/2000/svg"
 width="32.000000pt" height="32.000000pt" viewBox="0 0 32.000000 32.000000"
 preserveAspectRatio="xMidYMid meet">
<metadata>
Created by potrace 1.16, written by Peter Selinger 2001-2019
</metadata>
<g transform="translate(0.000000,32.000000) scale(0.100000,-0.100000)"
fill="#000000" stroke="none">
<path fill="#000000" stroke="none" d="M0 160 l0 -160 160 0 160 0 0 160 0
160 -160 0 -160 0 0 -160z"/>
<path fill="#ffffff" stroke="none" d="M46 245 c2 -19 1 -35 -2 -35 -10 0 -23
50 -17 65 8 22 15 11 19 -30z"/>
<path fill="#ffffff" stroke="none" d="M166 278 c4 -6 3 -8 -4 -4 -5 3 -12 1
-14 -6 -3 -8 -7 -6 -11 5 -7 20 17 24 29 5z"/>
<path fill="#ffffff" stroke="none" d="M200 228 c0 -11 -43 -38 -59 -38 -15 0
-51 28 -51 40 0 3 25 6 55 6 30 -1 55 -4 55 -8z"/>
<path fill="#ffffff" stroke="none" d="M252 208 c6 -15 -1 -38 -11 -38 -3 0
-8 11 -9 25 -2 26 12 35 20 13z"/>
<path fill="#ffffff" stroke="none" d="M215 201 c3 -5 2 -12 -3 -15 -5 -3 -9
1 -9 9 0 17 3 19 12 6z"/>
<path fill="#ffffff" stroke="none" d="M153 173 c-7 -2 -19 -2 -25 0 -7 3 -2
5 12 5 14 0 19 -2 13 -5z"/>
<path fill="#ffffff" stroke="none" d="M200 153 c0 -1 -13 -9 -29 -17 -26 -14
-30 -14 -44 2 -14 16 -12 17 29 17 24 0 44 -1 44 -2z"/>
<path fill="#ffffff" stroke="none" d="M100 80 c0 -5 -2 -10 -4 -10 -3 0 -8 5
-11 10 -3 6 -1 10 4 10 6 0 11 -4 11 -10z"/>
</g>
</svg>
