<?xml version="1.0" standalone="no"?>
<!DOCTYPE svg PUBLIC "-//W3C//DTD SVG 20010904//EN"
 "http://www.w3.org/TR/2001/REC-SVG-20010904/DTD/svg10.dtd">
<svg version="1.0" xmlns="http://www.w3.org/2000/svg"
 width="32.000000pt" height="32.000000pt" viewBox="0 0 32.000000 32.000000"
 preserveAspectRatio="xMidYMid meet">
<metadata>
Created by potrace 1.16, written by Peter Selinger 2001-2019
</metadata>
<g transform="translate(0.000000,32.000000) scale(0.100000,-0.100000)"
fill="#000000" stroke="none">
<path fill="#000000" stroke="none" d="M81 225 c-35 -32 -41 -43 -41 -77 0
-52 31 -83 93 -92 26 -4 52 -4 59 0 8 5 9 0 6 -14 -4 -12 -2 -20 3 -16 5 3 9
11 9 19 0 16 28 28 43 18 7 -4 6 1 -2 10 -13 17 -11 19 19 21 11 1 16 15 18
48 3 40 -1 51 -26 79 -24 27 -37 33 -84 37 -53 4 -57 2 -97 -33z"/>
</g>
</svg>
