<?xml version="1.0" standalone="no"?>
<!DOCTYPE svg PUBLIC "-//W3C//DTD SVG 20010904//EN"
 "http://www.w3.org/TR/2001/REC-SVG-20010904/DTD/svg10.dtd">
<svg version="1.0" xmlns="http://www.w3.org/2000/svg"
 width="32.000000pt" height="32.000000pt" viewBox="0 0 32.000000 32.000000"
 preserveAspectRatio="xMidYMid meet">
<metadata>
Created by potrace 1.16, written by Peter Selinger 2001-2019
</metadata>
<g transform="translate(0.000000,32.000000) scale(0.100000,-0.100000)"
fill="#000000" stroke="none">
<path fill="#000000" stroke="none" d="M0 160 l0 -160 160 0 160 0 0 160 0
160 -160 0 -160 0 0 -160z"/>
<path fill="#ffffff" stroke="none" d="M262 221 c25 -28 29 -39 26 -79 -2 -33
-7 -47 -18 -48 -30 -2 -32 -4 -19 -21 8 -9 9 -14 2 -10 -15 10 -43 -2 -43 -18
0 -8 -4 -16 -9 -19 -5 -4 -7 4 -3 16 3 14 2 19 -6 14 -7 -4 -33 -4 -59 0 -62
9 -93 40 -93 92 0 34 6 45 41 77 40 35 44 37 97 33 47 -4 60 -10 84 -37z"/>
</g>
</svg>
