<?xml version="1.0" standalone="no"?>
<!DOCTYPE svg PUBLIC "-//W3C//DTD SVG 20010904//EN"
 "http://www.w3.org/TR/2001/REC-SVG-20010904/DTD/svg10.dtd">
<svg version="1.0" xmlns="http://www.w3.org/2000/svg"
 width="32.000000pt" height="32.000000pt" viewBox="0 0 32.000000 32.000000"
 preserveAspectRatio="xMidYMid meet">
<metadata>
Created by potrace 1.16, written by Peter Selinger 2001-2019
</metadata>
<g transform="translate(0.000000,32.000000) scale(0.100000,-0.100000)"
fill="#000000" stroke="none">
<path fill="#000000" stroke="none" d="M176 264 c-5 -14 -4 -15 9 -4 17 14 19
20 6 20 -5 0 -12 -7 -15 -16z"/>
<path fill="#000000" stroke="none" d="M131 256 c-7 -8 -8 -17 -3 -20 6 -3 15
1 21 8 7 8 8 17 3 20 -6 3 -15 -1 -21 -8z"/>
<path fill="#000000" stroke="none" d="M229 253 c-13 -16 -12 -17 4 -4 9 7 17
15 17 17 0 8 -8 3 -21 -13z"/>
<path fill="#000000" stroke="none" d="M115 211 c-3 -2 -5 -16 -6 -30 0 -25
-1 -25 -9 -5 -12 29 -28 38 -44 24 -23 -18 -8 -50 23 -48 15 1 31 -1 37 -5 6
-3 20 0 30 8 18 15 18 16 -5 35 -13 11 -18 20 -13 20 6 0 14 -5 17 -10 4 -6
22 -17 41 -25 l35 -14 -15 -35 c-15 -37 -11 -53 10 -35 8 7 11 21 8 35 -5 20
-1 24 30 30 20 3 38 10 41 14 9 14 -90 50 -133 48 -24 -1 -45 -4 -47 -7z"/>
<path fill="#ffffff" stroke="none" d="M86 163 c-10 -10 -19 5 -10 18 6 11 8
11 12 0 2 -7 1 -15 -2 -18z"/>
<path fill="#ffffff" stroke="none" d="M211 97 c-10 -9 -11 -8 -5 6 3 10 9 15
12 12 3 -3 0 -11 -7 -18z"/>
<path fill="#000000" stroke="none" d="M166 154 c-4 -9 -4 -19 -1 -22 2 -3 7
3 11 12 4 9 4 19 1 22 -2 3 -7 -3 -11 -12z"/>
<path fill="#000000" stroke="none" d="M191 153 c-1 -6 -4 -20 -7 -30 -5 -17
-5 -17 6 0 6 10 9 23 6 30 -3 9 -5 9 -5 0z"/>
</g>
</svg>
