<?xml version="1.0" standalone="no"?>
<!DOCTYPE svg PUBLIC "-//W3C//DTD SVG 20010904//EN"
 "http://www.w3.org/TR/2001/REC-SVG-20010904/DTD/svg10.dtd">
<svg version="1.0" xmlns="http://www.w3.org/2000/svg"
 width="32.000000pt" height="32.000000pt" viewBox="0 0 32.000000 32.000000"
 preserveAspectRatio="xMidYMid meet">
<metadata>
Created by potrace 1.16, written by Peter Selinger 2001-2019
</metadata>
<g transform="translate(0.000000,32.000000) scale(0.100000,-0.100000)"
fill="#000000" stroke="none">
<path fill="#000000" stroke="none" d="M0 160 l0 -160 160 0 160 0 0 160 0
160 -160 0 -160 0 0 -160z"/>
<path fill="#ffffff" stroke="none" d="M214 264 c5 -12 9 -14 20 -5 10 8 16 8
25 -3 9 -11 9 -16 0 -22 -9 -5 -7 -11 6 -21 30 -21 6 -15 -32 8 -27 17 -39 19
-57 11 -30 -14 -62 3 -45 24 9 11 15 11 25 3 11 -9 15 -7 20 5 3 9 12 16 19
16 7 0 16 -7 19 -16z"/>
<path fill="#ffffff" stroke="none" d="M88 227 c9 10 14 14 10 9 -11 -14 -10
-46 1 -46 5 0 11 6 14 14 9 22 86 19 139 -6 52 -23 54 -32 7 -42 -27 -5 -30
-9 -25 -28 3 -13 0 -34 -6 -48 l-11 -26 -28 25 c-16 14 -29 33 -29 43 0 10 -5
18 -10 18 -6 0 -8 -12 -5 -27 l5 -28 -15 30 -15 30 5 -35 5 -35 -18 40 -19 40
-11 -30 c-9 -27 -11 -27 -11 -7 -1 13 -5 21 -10 18 -12 -8 -22 33 -15 61 4 13
2 29 -2 36 -5 7 -1 4 9 -6 17 -19 17 -19 35 0z"/>
<path fill="#ffffff" stroke="none" d="M260 135 c-7 -9 -15 -13 -17 -11 -7 7
7 26 19 26 6 0 6 -6 -2 -15z"/>
<path fill="#ffffff" stroke="none" d="M97 98 c-3 -7 -5 -2 -5 12 0 14 2 19 5
13 2 -7 2 -19 0 -25z"/>
</g>
</svg>
