<?xml version="1.0" standalone="no"?>
<!DOCTYPE svg PUBLIC "-//W3C//DTD SVG 20010904//EN"
 "http://www.w3.org/TR/2001/REC-SVG-20010904/DTD/svg10.dtd">
<svg version="1.0" xmlns="http://www.w3.org/2000/svg"
 width="32.000000pt" height="32.000000pt" viewBox="0 0 32.000000 32.000000"
 preserveAspectRatio="xMidYMid meet">
<metadata>
Created by potrace 1.16, written by Peter Selinger 2001-2019
</metadata>
<g transform="translate(0.000000,32.000000) scale(0.100000,-0.100000)"
fill="#000000" stroke="none">
<path fill="#000000" stroke="none" d="M219 78 c-1 -7 -1 -16 0 -20 2 -12 -24
-9 -38 5 -11 10 -12 9 -6 -2 6 -11 4 -13 -9 -8 -10 4 -15 3 -11 -3 11 -17 58
-10 105 15 25 13 41 24 35 24 -5 0 -21 -6 -35 -14 -32 -18 -41 -18 -34 0 4 8
3 15 0 15 -3 0 -7 -6 -7 -12z"/>
<path fill="#000000" stroke="none" d="M55 68 c21 -12 23 -12 28 -1 1 3 -9 8
-23 9 -23 4 -24 3 -5 -8z"/>
</g>
</svg>
