<?xml version="1.0" standalone="no"?>
<!DOCTYPE svg PUBLIC "-//W3C//DTD SVG 20010904//EN"
 "http://www.w3.org/TR/2001/REC-SVG-20010904/DTD/svg10.dtd">
<svg version="1.0" xmlns="http://www.w3.org/2000/svg"
 width="32.000000pt" height="32.000000pt" viewBox="0 0 32.000000 32.000000"
 preserveAspectRatio="xMidYMid meet">
<metadata>
Created by potrace 1.16, written by Peter Selinger 2001-2019
</metadata>
<g transform="translate(0.000000,32.000000) scale(0.100000,-0.100000)"
fill="#000000" stroke="none">
<path fill="#000000" stroke="none" d="M0 160 l0 -160 160 0 160 0 0 160 0
160 -160 0 -160 0 0 -160z"/>
<path fill="#ffffff" stroke="none" d="M260 195 c25 -13 41 -24 35 -24 -5 0
-21 6 -35 14 -33 19 -40 18 -34 -2 5 -15 4 -15 -4 -3 -6 8 -8 18 -6 22 8 13
-21 9 -35 -4 -11 -11 -12 -10 -6 1 6 11 4 13 -9 8 -10 -4 -15 -3 -11 3 11 17
58 10 105 -15z"/>
<path fill="#ffffff" stroke="none" d="M85 192 c-3 -3 -15 -7 -28 -9 -21 -4
-21 -3 -2 11 18 13 44 12 30 -2z"/>
</g>
</svg>
