<?xml version="1.0" standalone="no"?>
<!DOCTYPE svg PUBLIC "-//W3C//DTD SVG 20010904//EN"
 "http://www.w3.org/TR/2001/REC-SVG-20010904/DTD/svg10.dtd">
<svg version="1.0" xmlns="http://www.w3.org/2000/svg"
 width="32.000000pt" height="32.000000pt" viewBox="0 0 32.000000 32.000000"
 preserveAspectRatio="xMidYMid meet">
<metadata>
Created by potrace 1.16, written by Peter Selinger 2001-2019
</metadata>
<g transform="translate(0.000000,32.000000) scale(0.100000,-0.100000)"
fill="#000000" stroke="none">
<path fill="#000000" stroke="none" d="M0 160 l0 -160 160 0 160 0 0 160 0
160 -160 0 -160 0 0 -160z"/>
<path fill="#ffffff" stroke="none" d="M155 180 c4 -6 11 -8 16 -5 5 4 9 -1 9
-10 0 -10 5 -13 12 -9 7 4 8 3 4 -4 -4 -7 0 -22 8 -34 24 -34 20 -46 -19 -46
-29 0 -37 5 -50 31 -12 23 -12 33 -4 41 9 8 10 7 4 -4 -6 -12 -5 -13 6 -2 10
9 10 15 1 24 -7 7 -12 16 -12 20 0 11 18 10 25 -2z"/>
<path fill="#ffffff" stroke="none" d="M230 140 c0 -5 -2 -10 -4 -10 -3 0 -8
5 -11 10 -3 6 -1 10 4 10 6 0 11 -4 11 -10z"/>
<path fill="#ffffff" stroke="none" d="M258 107 c6 -7 8 -18 4 -24 -5 -7 -11
-3 -19 13 -12 26 -3 33 15 11z"/>
</g>
</svg>
