<?xml version="1.0" standalone="no"?>
<!DOCTYPE svg PUBLIC "-//W3C//DTD SVG 20010904//EN"
 "http://www.w3.org/TR/2001/REC-SVG-20010904/DTD/svg10.dtd">
<svg version="1.0" xmlns="http://www.w3.org/2000/svg"
 width="32.000000pt" height="32.000000pt" viewBox="0 0 32.000000 32.000000"
 preserveAspectRatio="xMidYMid meet">
<metadata>
Created by potrace 1.16, written by Peter Selinger 2001-2019
</metadata>
<g transform="translate(0.000000,32.000000) scale(0.100000,-0.100000)"
fill="#000000" stroke="none">
<path fill="#000000" stroke="none" d="M157 236 c-4 -9 -2 -18 3 -21 6 -4 10
-12 10 -18 0 -8 -3 -8 -9 1 -8 14 -12 6 -38 -74 -14 -42 -1 -64 27 -46 16 10
20 10 20 0 0 -7 9 -2 20 12 11 14 18 31 15 38 -3 7 0 10 6 6 6 -3 8 -17 4 -31
-5 -22 -3 -25 14 -20 12 3 21 1 21 -4 0 -4 6 -6 13 -3 11 4 10 17 -7 67 -28
83 -33 89 -55 77 -15 -7 -18 -6 -17 7 1 21 -20 28 -27 9z"/>
<path fill="#000000" stroke="none" d="M83 176 c-6 -10 -8 -27 -6 -37 3 -11 1
-19 -4 -19 -5 0 -9 -9 -10 -20 -2 -28 2 -25 28 18 24 39 33 65 19 57 -5 -3
-10 0 -12 7 -3 8 -8 6 -15 -6z"/>
</g>
</svg>
