<?xml version="1.0" standalone="no"?>
<!DOCTYPE svg PUBLIC "-//W3C//DTD SVG 20010904//EN"
 "http://www.w3.org/TR/2001/REC-SVG-20010904/DTD/svg10.dtd">
<svg version="1.0" xmlns="http://www.w3.org/2000/svg"
 width="32.000000pt" height="32.000000pt" viewBox="0 0 32.000000 32.000000"
 preserveAspectRatio="xMidYMid meet">
<metadata>
Created by potrace 1.16, written by Peter Selinger 2001-2019
</metadata>
<g transform="translate(0.000000,32.000000) scale(0.100000,-0.100000)"
fill="#000000" stroke="none">
<path fill="#000000" stroke="none" d="M0 270 c0 -33 5 -50 15 -53 8 -4 17 -2
20 3 3 4 0 10 -7 12 -18 6 1 28 25 28 38 0 51 14 36 38 -10 15 -23 21 -51 20
l-38 0 0 -48z"/>
<path fill="#000000" stroke="none" d="M149 315 c0 -5 -2 -17 -4 -25 -1 -8 4
-21 11 -28 15 -14 19 -6 14 28 -3 22 17 0 23 -25 4 -19 5 -19 6 1 0 12 -6 27
-14 34 -8 7 -15 9 -15 4 0 -5 -5 -2 -10 6 -5 8 -10 11 -11 5z"/>
<path fill="#000000" stroke="none" d="M214 305 c11 -8 16 -21 13 -30 -5 -10
0 -15 13 -15 10 0 21 -4 24 -9 4 -5 -2 -7 -12 -4 -11 2 -35 -2 -54 -10 -30
-13 -38 -13 -62 0 -31 16 -51 7 -36 -17 8 -13 10 -12 10 2 0 11 5 15 15 12 8
-4 12 -10 9 -15 -3 -5 2 -6 10 -3 19 7 22 -16 4 -34 -9 -9 -16 -8 -32 5 -12
10 -5 1 13 -20 l35 -37 33 32 c21 20 33 27 33 17 0 -12 2 -12 9 1 6 8 8 17 5
21 -2 4 0 10 5 13 5 4 12 2 15 -3 4 -5 2 -12 -4 -16 -15 -9 -12 -71 4 -84 10
-9 17 -7 27 5 12 15 14 14 20 -3 4 -10 5 5 2 32 -6 51 -19 79 -33 70 -5 -3
-11 -1 -14 4 -4 5 -2 12 4 16 5 3 10 24 10 46 l0 39 -42 0 c-39 -1 -41 -2 -24
-15z"/>
<path fill="#ffffff" stroke="none" d="M247 222 c-10 -10 -14 -22 -10 -27 5
-4 3 -5 -3 -2 -6 3 -24 -7 -39 -23 -22 -23 -31 -27 -42 -18 -21 17 4 43 26 26
13 -10 14 -10 4 2 -18 19 -16 37 3 44 15 6 15 4 3 -11 -11 -14 -7 -13 21 4 44
27 58 28 37 5z"/>
<path fill="#ffffff" stroke="none" d="M297 166 c-4 -38 -15 -58 -28 -51 -12
8 -11 39 2 69 16 33 30 23 26 -18z"/>
<path fill="#000000" stroke="none" d="M40 185 c-30 -32 -24 -39 12 -14 l31
23 -5 -22 c-4 -12 -2 -20 3 -17 13 9 7 52 -8 52 -7 0 -22 -10 -33 -22z"/>
<path fill="#000000" stroke="none" d="M176 124 c-11 -8 -15 -14 -9 -14 7 0
15 5 18 10 4 6 11 8 16 4 6 -4 6 -11 -1 -19 -8 -10 -6 -24 10 -55 20 -40 22
-41 40 -25 17 15 19 15 29 -2 6 -10 11 -14 11 -10 0 12 -54 88 -76 109 -17 14
-21 15 -38 2z"/>
<path fill="#ffffff" stroke="none" d="M240 80 c18 -26 20 -33 9 -46 -11 -14
-15 -11 -31 21 -16 30 -17 55 -3 55 2 0 13 -14 25 -30z"/>
<path fill="#000000" stroke="none" d="M8 123 c7 -3 16 -2 19 1 4 3 -2 6 -13
5 -11 0 -14 -3 -6 -6z"/>
<path fill="#000000" stroke="none" d="M107 112 c-10 -10 -17 -30 -17 -45 0
-14 -4 -29 -10 -32 -5 -3 -10 -12 -10 -18 0 -7 5 -4 11 6 6 9 15 15 21 11 6
-4 5 -10 -3 -15 -10 -7 -9 -8 6 -6 11 1 26 6 33 10 17 11 15 62 -3 77 -8 7
-12 16 -9 21 9 15 -2 10 -19 -9z"/>
<path fill="#ffffff" stroke="none" d="M140 60 c0 -33 -13 -46 -27 -27 -13 16
-14 59 -2 52 5 -4 9 -1 9 5 0 6 5 8 10 5 6 -3 10 -19 10 -35z"/>
</g>
</svg>
