<?xml version="1.0" standalone="no"?>
<!DOCTYPE svg PUBLIC "-//W3C//DTD SVG 20010904//EN"
 "http://www.w3.org/TR/2001/REC-SVG-20010904/DTD/svg10.dtd">
<svg version="1.0" xmlns="http://www.w3.org/2000/svg"
 width="32.000000pt" height="32.000000pt" viewBox="0 0 32.000000 32.000000"
 preserveAspectRatio="xMidYMid meet">
<metadata>
Created by potrace 1.16, written by Peter Selinger 2001-2019
</metadata>
<g transform="translate(0.000000,32.000000) scale(0.100000,-0.100000)"
fill="#000000" stroke="none">
<path fill="#000000" stroke="none" d="M74 289 c-9 -10 -23 -19 -30 -19 -7 0
-16 -5 -19 -10 -7 -12 16 -70 28 -70 5 0 5 -6 0 -12 -4 -7 -8 -50 -9 -96 l0
-82 119 0 c125 0 157 8 157 40 0 15 -7 20 -29 20 -35 0 -61 9 -61 21 0 5 10 9
23 10 12 0 16 3 9 6 -10 4 -10 8 0 21 8 10 9 13 1 9 -19 -12 -24 10 -6 24 12
10 14 10 9 2 -4 -7 -2 -13 3 -13 16 0 13 43 -3 65 -10 14 -11 24 -3 36 22 35
-5 54 -70 52 -7 -1 -13 3 -13 7 0 5 -20 8 -44 8 -31 0 -50 -5 -62 -19z"/>
<path fill="#ffffff" stroke="none" d="M270 181 c0 -5 -7 -12 -16 -15 -15 -6
-15 -4 -3 11 12 15 12 16 -2 11 -9 -4 -16 -1 -16 7 0 10 5 11 19 4 10 -5 18
-14 18 -18z"/>
<path fill="#ffffff" stroke="none" d="M137 54 c-3 -3 -12 -4 -19 -1 -8 3 -5
6 6 6 11 1 17 -2 13 -5z"/>
</g>
</svg>
