<?xml version="1.0" standalone="no"?>
<!DOCTYPE svg PUBLIC "-//W3C//DTD SVG 20010904//EN"
 "http://www.w3.org/TR/2001/REC-SVG-20010904/DTD/svg10.dtd">
<svg version="1.0" xmlns="http://www.w3.org/2000/svg"
 width="32.000000pt" height="32.000000pt" viewBox="0 0 32.000000 32.000000"
 preserveAspectRatio="xMidYMid meet">
<metadata>
Created by potrace 1.16, written by Peter Selinger 2001-2019
</metadata>
<g transform="translate(0.000000,32.000000) scale(0.100000,-0.100000)"
fill="#000000" stroke="none">
<path fill="#000000" stroke="none" d="M0 160 c0 -150 1 -160 19 -160 25 0 28
11 25 95 -1 39 3 76 8 83 6 6 6 12 2 12 -13 0 -37 58 -29 70 3 5 12 10 19 10
7 0 21 9 30 19 12 14 31 19 62 19 24 0 44 -3 44 -8 0 -4 6 -8 13 -7 65 2 92
-17 70 -52 -8 -12 -7 -22 3 -36 16 -22 19 -65 3 -65 -5 0 -7 6 -3 13 5 8 3 8
-9 -2 -18 -14 -13 -36 6 -24 8 4 7 1 -1 -9 -10 -13 -10 -17 0 -21 7 -3 3 -6
-9 -6 -13 -1 -23 -5 -23 -10 0 -12 26 -21 61 -21 l29 0 0 130 0 130 -160 0
-160 0 0 -160z"/>
<path fill="#000000" stroke="none" d="M233 195 c0 -8 7 -11 16 -7 14 5 14 4
2 -11 -12 -15 -12 -17 3 -11 21 8 20 21 -2 33 -14 7 -19 6 -19 -4z"/>
<path fill="#000000" stroke="none" d="M118 53 c7 -3 16 -2 19 1 4 3 -2 6 -13
5 -11 0 -14 -3 -6 -6z"/>
<path fill="#000000" stroke="none" d="M300 10 c-13 -8 -12 -10 3 -10 9 0 17
5 17 10 0 12 -1 12 -20 0z"/>
</g>
</svg>
