<?xml version="1.0" standalone="no"?>
<!DOCTYPE svg PUBLIC "-//W3C//DTD SVG 20010904//EN"
 "http://www.w3.org/TR/2001/REC-SVG-20010904/DTD/svg10.dtd">
<svg version="1.0" xmlns="http://www.w3.org/2000/svg"
 width="32.000000pt" height="32.000000pt" viewBox="0 0 32.000000 32.000000"
 preserveAspectRatio="xMidYMid meet">
<metadata>
Created by potrace 1.16, written by Peter Selinger 2001-2019
</metadata>
<g transform="translate(0.000000,32.000000) scale(0.100000,-0.100000)"
fill="#000000" stroke="none">
<path fill="#000000" stroke="none" d="M78 293 c-6 -8 -23 -19 -36 -24 -23 -9
-28 -46 -5 -42 6 1 9 -6 5 -19 -3 -14 -1 -19 6 -14 13 8 16 -6 5 -18 -5 -4 -9
-36 -9 -71 -1 -54 1 -62 15 -57 14 5 14 3 -1 -15 -10 -11 -18 -22 -18 -25 0
-3 36 -6 81 -7 51 -1 78 2 74 9 -3 5 -8 19 -10 29 -3 15 1 18 13 15 13 -4 12
-2 -3 11 -16 13 -17 17 -6 24 10 6 20 2 32 -12 12 -16 14 -24 6 -29 -7 -4 -12
-16 -13 -26 -1 -14 7 -19 33 -20 42 -3 73 13 73 38 0 15 -7 20 -29 20 -42 0
-61 9 -61 30 0 21 -27 35 -33 17 -3 -9 -8 -9 -20 1 -13 11 -15 10 -10 -6 6
-26 -23 -37 -37 -14 -11 16 -11 16 -6 0 4 -14 0 -18 -19 -18 -28 0 -36 10 -37
50 -1 17 -5 33 -11 37 -5 3 -4 9 3 13 8 5 10 15 5 26 -4 11 -7 27 -6 38 2 10
-2 15 -7 12 -6 -4 -13 -2 -17 4 -3 5 -1 10 6 10 7 0 21 8 31 17 22 19 48 26
48 12 0 -6 6 -7 13 -2 17 11 37 13 37 3 0 -4 11 -7 24 -6 13 0 22 5 19 9 -3 5
-11 6 -19 3 -8 -3 -14 -1 -14 3 0 16 -88 11 -102 -6z"/>
<path fill="#ffffff" stroke="none" d="M100 43 c0 -13 -17 -26 -38 -29 -10 -2
-9 3 3 17 16 17 16 19 1 25 -9 3 -13 10 -10 15 7 11 44 -12 44 -28z"/>
<path fill="#ffffff" stroke="none" d="M165 60 c-3 -5 -18 -10 -33 -9 l-27 1
25 8 c35 11 42 11 35 0z"/>
<path fill="#000000" stroke="none" d="M143 196 c-17 -19 -17 -20 -1 -7 10 7
24 11 31 8 8 -3 14 0 14 7 0 20 -25 15 -44 -8z"/>
<path fill="#000000" stroke="none" d="M272 165 c0 -16 2 -22 5 -12 2 9 2 23
0 30 -3 6 -5 -1 -5 -18z"/>
<path fill="#000000" stroke="none" d="M195 170 c-13 -6 -15 -9 -5 -9 8 0 22
4 30 9 18 12 2 12 -25 0z"/>
<path fill="#000000" stroke="none" d="M143 158 c-12 -16 -13 -49 -1 -42 5 3
6 10 2 15 -3 5 0 16 6 24 7 8 10 15 7 15 -2 0 -9 -6 -14 -12z"/>
</g>
</svg>
