<?xml version="1.0" standalone="no"?>
<!DOCTYPE svg PUBLIC "-//W3C//DTD SVG 20010904//EN"
 "http://www.w3.org/TR/2001/REC-SVG-20010904/DTD/svg10.dtd">
<svg version="1.0" xmlns="http://www.w3.org/2000/svg"
 width="32.000000pt" height="32.000000pt" viewBox="0 0 32.000000 32.000000"
 preserveAspectRatio="xMidYMid meet">
<metadata>
Created by potrace 1.16, written by Peter Selinger 2001-2019
</metadata>
<g transform="translate(0.000000,32.000000) scale(0.100000,-0.100000)"
fill="#000000" stroke="none">
<path fill="#000000" stroke="none" d="M74 289 c-9 -10 -23 -19 -30 -19 -7 0
-16 -5 -19 -10 -7 -12 16 -70 28 -70 5 0 5 -6 0 -12 -4 -7 -8 -40 -9 -74 l-1
-61 28 2 c32 2 37 -6 14 -25 -14 -12 -20 -7 -16 14 1 5 -5 4 -13 -4 -9 -7 -16
-16 -16 -20 0 -12 241 -10 263 1 9 6 17 19 17 29 0 15 -7 20 -29 20 -35 0 -61
9 -61 21 0 5 10 9 23 9 16 0 18 3 8 9 -9 6 -10 11 -2 15 6 4 9 12 6 17 -4 5
-1 9 4 9 16 0 13 43 -3 65 -10 14 -11 24 -3 36 22 35 -5 54 -70 52 -7 -1 -13
3 -13 7 0 5 -20 8 -44 8 -31 0 -50 -5 -62 -19z"/>
<path fill="#ffffff" stroke="none" d="M120 288 c0 -5 6 -6 13 -1 18 11 37 12
37 2 0 -5 8 -8 18 -7 38 3 60 -3 66 -17 3 -8 0 -14 -7 -12 -7 1 -11 -4 -9 -11
1 -6 -1 -11 -5 -11 -31 5 -32 -4 -3 -19 34 -17 50 -55 28 -68 -4 -3 -6 -10 -3
-15 9 -13 -6 -10 -35 7 l-25 15 27 -5 c15 -4 30 -2 33 4 3 5 1 10 -6 10 -9 0
-9 3 0 14 10 12 8 13 -9 9 -14 -4 -20 -1 -18 8 2 8 -4 13 -14 13 -10 -1 -16 2
-13 6 3 5 -1 10 -7 13 -9 3 -6 8 7 13 11 4 27 15 35 23 13 13 12 14 -8 9 -12
-3 -20 -2 -16 3 7 12 2 11 -39 -6 -20 -8 -42 -15 -49 -14 -7 0 3 7 22 15 31
13 32 13 5 7 -16 -3 -40 -7 -52 -7 -27 -1 -31 -16 -5 -16 15 0 17 -6 14 -35
-4 -37 -11 -42 -30 -23 -17 17 -15 68 3 88 16 18 45 23 45 8z"/>
<path fill="#ffffff" stroke="none" d="M164 232 c3 -5 -1 -9 -9 -9 -8 0 -12 4
-9 9 3 4 7 8 9 8 2 0 6 -4 9 -8z"/>
<path fill="#ffffff" stroke="none" d="M205 179 c15 -14 -7 -10 -35 7 l-25 15
25 -7 c14 -3 29 -10 35 -15z"/>
<path fill="#ffffff" stroke="none" d="M110 143 c0 -35 -34 -27 -38 9 -3 22 0
26 17 21 14 -4 21 -14 21 -30z"/>
<path fill="#ffffff" stroke="none" d="M200 117 c0 -6 -9 -2 -20 8 -11 10 -20
23 -20 28 0 6 9 2 20 -8 11 -10 20 -23 20 -28z"/>
<path fill="#ffffff" stroke="none" d="M110 89 c0 -11 -3 -19 -7 -19 -5 0 -19
-3 -32 -7 -17 -4 -22 -3 -17 6 4 6 11 9 15 6 5 -2 6 6 4 20 -4 20 -2 23 16 18
12 -3 21 -13 21 -24z"/>
<path fill="#ffffff" stroke="none" d="M160 88 c0 -6 -6 -5 -15 2 -8 7 -15 14
-15 16 0 2 7 1 15 -2 8 -4 15 -11 15 -16z"/>
<path fill="#ffffff" stroke="none" d="M229 66 c9 -11 7 -15 -10 -19 -18 -5
-20 -9 -11 -20 9 -11 8 -14 -3 -14 -20 0 -28 27 -10 34 12 4 13 9 4 19 -9 11
-8 14 4 14 8 0 20 -6 26 -14z"/>
<path fill="#ffffff" stroke="none" d="M137 54 c-3 -3 -12 -4 -19 -1 -8 3 -5
6 6 6 11 1 17 -2 13 -5z"/>
</g>
</svg>
