<?xml version="1.0" standalone="no"?>
<!DOCTYPE svg PUBLIC "-//W3C//DTD SVG 20010904//EN"
 "http://www.w3.org/TR/2001/REC-SVG-20010904/DTD/svg10.dtd">
<svg version="1.0" xmlns="http://www.w3.org/2000/svg"
 width="32.000000pt" height="32.000000pt" viewBox="0 0 32.000000 32.000000"
 preserveAspectRatio="xMidYMid meet">
<metadata>
Created by potrace 1.16, written by Peter Selinger 2001-2019
</metadata>
<g transform="translate(0.000000,32.000000) scale(0.100000,-0.100000)"
fill="#000000" stroke="none">
<path fill="#000000" stroke="none" d="M69 284 c-18 -20 -19 -28 -12 -118 6
-60 5 -100 -1 -103 -5 -4 -6 0 -1 8 5 8 4 10 0 6 -12 -10 -15 -38 -4 -31 5 3
9 1 9 -5 0 -5 -4 -13 -10 -16 -27 -16 -3 -25 70 -25 76 0 80 1 71 19 -6 10 -7
21 -4 25 3 3 -14 6 -38 7 l-44 1 33 9 c24 7 38 7 48 -2 8 -6 12 -14 10 -17
-14 -13 16 -38 48 -40 45 -3 76 13 76 38 0 17 -7 20 -39 20 -45 0 -55 10 -56
61 -1 29 2 35 19 35 31 -1 32 32 2 45 -20 9 -26 20 -28 53 -2 28 -8 41 -18 42
-8 1 -17 3 -20 4 -3 1 -24 3 -48 4 -32 1 -47 -3 -63 -20z"/>
<path fill="#ffffff" stroke="none" d="M120 288 c0 -5 6 -6 13 -1 18 11 37 12
37 1 0 -5 9 -6 20 -3 11 3 20 4 20 1 0 -3 -27 -15 -60 -27 -57 -21 -60 -23
-60 -55 0 -20 5 -34 13 -35 10 0 10 -2 0 -6 -16 -6 -17 -53 -3 -53 6 0 5 -6
-2 -14 -7 -8 -15 -12 -17 -10 -2 2 -6 36 -8 76 -2 40 -6 79 -8 87 -3 8 1 21
10 31 16 18 45 23 45 8z"/>
<path fill="#ffffff" stroke="none" d="M173 237 c3 -8 -1 -14 -8 -14 -7 0 -11
6 -8 14 6 16 10 16 16 0z"/>
<path fill="#ffffff" stroke="none" d="M240 185 c0 -8 -4 -15 -10 -15 -5 0
-10 7 -10 15 0 8 5 15 10 15 6 0 10 -7 10 -15z"/>
<path fill="#ffffff" stroke="none" d="M257 168 c-3 -8 -6 -5 -6 6 -1 11 2 17
5 13 3 -3 4 -12 1 -19z"/>
<path fill="#ffffff" stroke="none" d="M150 164 c0 -8 -5 -12 -10 -9 -6 4 -8
11 -5 16 9 14 15 11 15 -7z"/>
<path fill="#ffffff" stroke="none" d="M173 155 c-3 -9 -8 -14 -10 -11 -3 3
-2 9 2 15 9 16 15 13 8 -4z"/>
<path fill="#ffffff" stroke="none" d="M225 60 c3 -5 2 -10 -4 -10 -5 0 -13 5
-16 10 -3 6 -2 10 4 10 5 0 13 -4 16 -10z"/>
<path fill="#ffffff" stroke="none" d="M84 27 c-3 -8 -11 -14 -19 -14 -11 0
-12 4 -4 14 6 7 15 13 20 13 5 0 6 -6 3 -13z"/>
<path fill="#000000" stroke="none" d="M80 275 c-21 -25 -3 -30 48 -12 44 16
29 16 -28 0 -22 -6 -24 -5 -11 10 7 9 11 17 8 17 -2 0 -10 -7 -17 -15z"/>
</g>
</svg>
