<?xml version="1.0" standalone="no"?>
<!DOCTYPE svg PUBLIC "-//W3C//DTD SVG 20010904//EN"
 "http://www.w3.org/TR/2001/REC-SVG-20010904/DTD/svg10.dtd">
<svg version="1.0" xmlns="http://www.w3.org/2000/svg"
 width="32.000000pt" height="32.000000pt" viewBox="0 0 32.000000 32.000000"
 preserveAspectRatio="xMidYMid meet">
<metadata>
Created by potrace 1.16, written by Peter Selinger 2001-2019
</metadata>
<g transform="translate(0.000000,32.000000) scale(0.100000,-0.100000)"
fill="#000000" stroke="none">
<path fill="#000000" stroke="none" d="M150 298 c0 -23 -43 -68 -66 -69 -11 0
-14 -3 -6 -6 6 -2 9 -10 5 -16 -4 -7 1 -6 10 2 9 7 24 11 32 7 13 -5 12 -12
-5 -56 -11 -28 -20 -71 -20 -96 0 -33 -3 -43 -12 -38 -9 5 -8 2 1 -9 19 -23
21 -19 25 46 2 31 10 73 17 94 10 32 13 35 20 18 8 -20 8 -20 9 0 1 15 4 12
11 -10 5 -18 5 -31 0 -33 -5 -2 -3 -19 5 -37 19 -47 18 -56 -10 -51 -25 4 -55
-18 -42 -31 3 -4 27 -7 52 -8 52 -1 73 15 47 36 -16 13 -17 12 -5 -3 8 -10 9
-18 3 -23 -6 -3 -13 7 -17 22 -3 15 -8 37 -11 48 -4 11 -7 34 -9 52 -1 17 -5
41 -9 52 -4 15 -1 23 10 28 12 4 28 -6 51 -31 19 -20 34 -32 34 -26 0 6 -12
23 -26 37 -18 18 -22 28 -14 33 7 4 -1 10 -20 13 -22 5 -35 15 -45 39 -8 18
-14 25 -15 16z"/>
<path fill="#000000" stroke="none" d="M70 170 c0 -11 2 -20 4 -20 2 0 6 9 9
20 3 11 1 20 -4 20 -5 0 -9 -9 -9 -20z"/>
</g>
</svg>
