<?xml version="1.0" standalone="no"?>
<!DOCTYPE svg PUBLIC "-//W3C//DTD SVG 20010904//EN"
 "http://www.w3.org/TR/2001/REC-SVG-20010904/DTD/svg10.dtd">
<svg version="1.0" xmlns="http://www.w3.org/2000/svg"
 width="32.000000pt" height="32.000000pt" viewBox="0 0 32.000000 32.000000"
 preserveAspectRatio="xMidYMid meet">
<metadata>
Created by potrace 1.16, written by Peter Selinger 2001-2019
</metadata>
<g transform="translate(0.000000,32.000000) scale(0.100000,-0.100000)"
fill="#000000" stroke="none">
<path fill="#000000" stroke="none" d="M0 160 l0 -160 160 0 160 0 0 160 0
160 -160 0 -160 0 0 -160z"/>
<path fill="#ffffff" stroke="none" d="M232 238 c21 -32 17 -76 -7 -94 -14
-10 -22 -11 -32 -3 -10 9 -13 8 -13 -4 0 -9 10 -23 22 -31 12 -9 19 -16 14
-16 -5 0 -1 -9 9 -20 18 -20 17 -20 -9 -20 -19 0 -25 -4 -21 -12 4 -7 -7 2
-24 20 -17 18 -31 27 -31 20 0 -9 -3 -8 -10 2 -13 20 -13 63 0 55 6 -3 10 1
10 10 0 12 -5 15 -17 10 -10 -4 -22 -8 -28 -9 -5 -1 -16 -5 -22 -9 -8 -5 -13
-3 -13 3 0 6 -6 8 -12 4 -7 -4 -5 1 4 12 13 15 15 23 6 32 -8 8 -4 13 15 18
15 3 24 10 21 15 -3 5 2 9 11 9 24 0 56 -20 50 -31 -10 -15 11 -10 25 6 6 8 9
19 5 25 -3 5 -1 10 5 10 7 0 10 7 6 15 -9 25 18 12 36 -17z"/>
</g>
</svg>
