<?xml version="1.0" standalone="no"?>
<!DOCTYPE svg PUBLIC "-//W3C//DTD SVG 20010904//EN"
 "http://www.w3.org/TR/2001/REC-SVG-20010904/DTD/svg10.dtd">
<svg version="1.0" xmlns="http://www.w3.org/2000/svg"
 width="32.000000pt" height="32.000000pt" viewBox="0 0 32.000000 32.000000"
 preserveAspectRatio="xMidYMid meet">
<metadata>
Created by potrace 1.16, written by Peter Selinger 2001-2019
</metadata>
<g transform="translate(0.000000,32.000000) scale(0.100000,-0.100000)"
fill="#000000" stroke="none">
<path fill="#000000" stroke="none" d="M0 160 l0 -160 160 0 160 0 0 160 0
160 -160 0 -160 0 0 -160z"/>
<path fill="#ffffff" stroke="none" d="M147 189 c7 -7 18 -9 25 -7 37 15 48
-9 13 -28 -11 -6 -18 -17 -16 -25 2 -8 6 -23 9 -33 3 -13 1 -17 -6 -12 -7 4
-12 16 -12 27 0 11 -4 18 -9 15 -5 -4 -7 3 -4 14 4 14 -1 22 -18 29 -13 5 -19
10 -14 11 6 0 3 5 -5 10 -12 8 -11 10 6 10 11 0 25 -5 31 -11z"/>
</g>
</svg>
