<?xml version="1.0" standalone="no"?>
<!DOCTYPE svg PUBLIC "-//W3C//DTD SVG 20010904//EN"
 "http://www.w3.org/TR/2001/REC-SVG-20010904/DTD/svg10.dtd">
<svg version="1.0" xmlns="http://www.w3.org/2000/svg"
 width="32.000000pt" height="32.000000pt" viewBox="0 0 32.000000 32.000000"
 preserveAspectRatio="xMidYMid meet">
<metadata>
Created by potrace 1.16, written by Peter Selinger 2001-2019
</metadata>
<g transform="translate(0.000000,32.000000) scale(0.100000,-0.100000)"
fill="#000000" stroke="none">
<path fill="#000000" stroke="none" d="M0 160 c0 -140 2 -160 16 -160 9 0 24
10 33 22 14 17 18 18 18 5 0 -9 -5 -13 -10 -10 -6 3 -7 1 -3 -5 10 -17 178
-11 184 7 3 10 0 12 -11 8 -9 -3 -19 -2 -23 4 -3 6 4 13 15 16 17 4 19 8 10
19 -6 8 -18 14 -26 14 -12 0 -13 -3 -4 -14 9 -10 8 -15 -4 -19 -8 -4 -12 -13
-9 -22 5 -12 -4 -15 -52 -15 -45 0 -55 3 -46 12 19 19 14 25 -18 23 -30 -2
-41 17 -19 31 8 5 10 35 5 99 -6 86 -5 92 16 111 20 18 63 23 103 14 6 -1 17
-3 25 -4 10 -1 16 -14 18 -41 2 -33 9 -43 34 -58 26 -15 28 -20 17 -33 -7 -8
-20 -13 -29 -11 -13 3 -16 -3 -15 -32 1 -51 11 -61 56 -61 l39 0 0 130 0 130
-160 0 -160 0 0 -160z"/>
<path fill="#000000" stroke="none" d="M75 280 c-13 -15 -15 -33 -8 -113 5
-53 5 -93 2 -91 -4 2 -10 1 -12 -3 -3 -5 24 -8 59 -8 35 0 56 3 46 6 -12 4 -7
9 21 20 35 12 38 16 33 43 -3 15 -6 57 -6 93 0 60 -1 64 -20 58 -11 -3 -20 -2
-20 3 0 11 -19 10 -37 -1 -7 -5 -13 -4 -13 1 0 15 -29 10 -45 -8z"/>
<path fill="#ffffff" stroke="none" d="M200 250 c0 -5 -2 -10 -4 -10 -3 0 -8
5 -11 10 -3 6 -1 10 4 10 6 0 11 -4 11 -10z"/>
<path fill="#ffffff" stroke="none" d="M140 236 c0 -3 -4 -8 -10 -11 -5 -3
-10 -1 -10 4 0 6 5 11 10 11 6 0 10 -2 10 -4z"/>
<path fill="#ffffff" stroke="none" d="M118 165 c-3 -3 -9 2 -12 12 -6 14 -5
15 5 6 7 -7 10 -15 7 -18z"/>
<path fill="#ffffff" stroke="none" d="M186 148 c4 -7 3 -8 -4 -4 -7 4 -12 3
-12 -2 0 -5 -7 -9 -16 -9 -14 0 -14 2 2 14 22 16 21 16 30 1z"/>
<path fill="#ffffff" stroke="none" d="M210 120 c0 -5 -5 -10 -11 -10 -5 0 -7
5 -4 10 3 6 8 10 11 10 2 0 4 -4 4 -10z"/>
<path fill="#000000" stroke="none" d="M220 186 c0 -16 27 -29 42 -20 7 5 4
12 -7 21 -24 17 -35 17 -35 -1z"/>
<path fill="#000000" stroke="none" d="M300 10 c-13 -8 -12 -10 3 -10 9 0 17
5 17 10 0 12 -1 12 -20 0z"/>
</g>
</svg>
