<?xml version="1.0" standalone="no"?>
<!DOCTYPE svg PUBLIC "-//W3C//DTD SVG 20010904//EN"
 "http://www.w3.org/TR/2001/REC-SVG-20010904/DTD/svg10.dtd">
<svg version="1.0" xmlns="http://www.w3.org/2000/svg"
 width="32.000000pt" height="32.000000pt" viewBox="0 0 32.000000 32.000000"
 preserveAspectRatio="xMidYMid meet">
<metadata>
Created by potrace 1.16, written by Peter Selinger 2001-2019
</metadata>
<g transform="translate(0.000000,32.000000) scale(0.100000,-0.100000)"
fill="#000000" stroke="none">
<path fill="#000000" stroke="none" d="M0 295 c0 -14 12 -35 27 -50 15 -14 25
-25 21 -25 -4 0 -3 -11 2 -25 9 -23 8 -24 -20 -18 -26 5 -30 3 -30 -17 0 -20
3 -22 35 -16 31 6 36 4 44 -16 11 -27 -14 -63 -27 -41 -4 7 -17 10 -30 6 -18
-4 -22 -12 -22 -49 0 -38 3 -44 20 -44 12 0 33 11 48 25 19 18 28 21 34 12 4
-7 8 3 8 23 0 20 -4 40 -9 45 -5 6 -17 45 -26 88 -19 86 -12 115 21 82 16 -16
74 -45 89 -45 15 0 2 18 -21 29 -21 9 -25 17 -21 36 4 23 1 25 -35 25 -22 0
-37 -4 -33 -9 3 -5 1 -12 -5 -16 -6 -3 -13 1 -16 9 -3 9 -17 16 -30 16 -19 0
-24 -5 -24 -25z"/>
<path fill="#000000" stroke="none" d="M230 306 c0 -8 -3 -21 -6 -30 -9 -23
19 -20 41 4 26 29 35 25 35 -15 0 -28 -4 -35 -20 -35 -23 0 -27 -15 -5 -24 8
-3 15 -12 15 -19 0 -8 7 -14 15 -14 12 0 15 15 15 74 l0 73 -45 0 c-32 0 -45
-4 -45 -14z"/>
<path fill="#000000" stroke="none" d="M113 237 c4 -12 108 -50 115 -42 7 7 4
9 -61 32 -32 12 -56 16 -54 10z"/>
<path fill="#000000" stroke="none" d="M200 236 c0 -9 5 -16 10 -16 6 0 10 4
10 9 0 6 -4 13 -10 16 -5 3 -10 -1 -10 -9z"/>
<path fill="#000000" stroke="none" d="M0 211 c0 -11 4 -21 9 -21 18 0 21 18
6 30 -13 10 -15 9 -15 -9z"/>
<path fill="#000000" stroke="none" d="M184 147 c-33 -30 -36 -38 -38 -89 l-2
-56 88 -1 88 -1 0 54 c0 48 -2 55 -20 53 -13 -1 -16 -5 -10 -11 18 -18 10 -28
-17 -21 -23 5 -26 4 -15 -6 17 -18 15 -25 -7 -25 -11 0 -17 4 -15 8 3 4 0 8
-5 8 -6 0 -11 -9 -11 -20 0 -32 -18 -23 -25 12 -5 21 -4 33 4 36 9 3 9 7 0 18
-9 11 -6 14 16 14 15 0 38 9 52 20 l26 20 -27 0 c-14 0 -26 5 -26 10 0 18 -20
10 -56 -23z"/>
<path fill="#000000" stroke="none" d="M305 150 c3 -5 8 -10 11 -10 2 0 4 5 4
10 0 6 -5 10 -11 10 -5 0 -7 -4 -4 -10z"/>
<path fill="#000000" stroke="none" d="M85 21 c-9 -8 7 -21 26 -21 10 0 19 6
19 14 0 13 -34 19 -45 7z"/>
</g>
</svg>
