<?xml version="1.0" standalone="no"?>
<!DOCTYPE svg PUBLIC "-//W3C//DTD SVG 20010904//EN"
 "http://www.w3.org/TR/2001/REC-SVG-20010904/DTD/svg10.dtd">
<svg version="1.0" xmlns="http://www.w3.org/2000/svg"
 width="32.000000pt" height="32.000000pt" viewBox="0 0 32.000000 32.000000"
 preserveAspectRatio="xMidYMid meet">
<metadata>
Created by potrace 1.16, written by Peter Selinger 2001-2019
</metadata>
<g transform="translate(0.000000,32.000000) scale(0.100000,-0.100000)"
fill="#000000" stroke="none">
<path fill="#000000" stroke="none" d="M1 160 l1 -160 159 0 159 0 0 53 c0 46
-3 56 -22 65 l-23 11 23 7 c21 6 22 12 22 95 l0 89 -160 0 -160 0 1 -160z"/>
<path fill="#ffffff" stroke="none" d="M135 250 c13 0 36 -5 52 -12 15 -6 31
-11 36 -10 11 3 8 -13 -5 -26 -9 -9 -9 -12 0 -12 7 0 12 5 12 10 0 14 37 13
46 -1 3 -6 -1 -18 -10 -27 -15 -15 -18 -15 -26 -2 -8 12 -18 7 -55 -32 -37
-39 -44 -52 -39 -73 5 -20 3 -25 -14 -25 -14 0 -20 7 -19 23 0 12 -10 59 -23
104 -25 88 -23 127 6 99 8 -9 26 -16 39 -16z"/>
<path fill="#ffffff" stroke="none" d="M210 120 c0 -5 -5 -10 -11 -10 -5 0 -7
5 -4 10 3 6 8 10 11 10 2 0 4 -4 4 -10z"/>
<path fill="#000000" stroke="none" d="M180 210 c0 -5 5 -10 11 -10 5 0 7 5 4
10 -3 6 -8 10 -11 10 -2 0 -4 -4 -4 -10z"/>
</g>
</svg>
