<?xml version="1.0" standalone="no"?>
<!DOCTYPE svg PUBLIC "-//W3C//DTD SVG 20010904//EN"
 "http://www.w3.org/TR/2001/REC-SVG-20010904/DTD/svg10.dtd">
<svg version="1.0" xmlns="http://www.w3.org/2000/svg"
 width="32.000000pt" height="32.000000pt" viewBox="0 0 32.000000 32.000000"
 preserveAspectRatio="xMidYMid meet">
<metadata>
Created by potrace 1.16, written by Peter Selinger 2001-2019
</metadata>
<g transform="translate(0.000000,32.000000) scale(0.100000,-0.100000)"
fill="#000000" stroke="none">
<path fill="#000000" stroke="none" d="M70 251 c0 -5 11 -48 25 -97 14 -48 23
-94 20 -101 -3 -10 1 -13 13 -11 12 2 16 11 14 30 -3 20 7 38 38 72 l41 45
-56 17 c-31 10 -61 26 -66 36 -10 19 -29 25 -29 9z"/>
<path fill="#ffffff" stroke="none" d="M168 187 l23 -13 -21 -19 c-23 -21 -26
-20 -35 18 -8 30 -1 33 33 14z"/>
<path fill="#000000" stroke="none" d="M242 196 c1 -10 8 -17 13 -17 15 1 12
24 -3 29 -9 3 -13 -2 -10 -12z"/>
<path fill="#000000" stroke="none" d="M287 134 c-9 -10 2 -24 19 -24 8 0 14
7 14 15 0 15 -21 21 -33 9z"/>
<path fill="#000000" stroke="none" d="M27 123 c-15 -2 -27 -10 -27 -18 0 -11
5 -11 30 1 17 9 30 17 30 20 0 2 -1 3 -2 3 -2 -1 -15 -4 -31 -6z"/>
</g>
</svg>
