<?xml version="1.0" standalone="no"?>
<!DOCTYPE svg PUBLIC "-//W3C//DTD SVG 20010904//EN"
 "http://www.w3.org/TR/2001/REC-SVG-20010904/DTD/svg10.dtd">
<svg version="1.0" xmlns="http://www.w3.org/2000/svg"
 width="32.000000pt" height="32.000000pt" viewBox="0 0 32.000000 32.000000"
 preserveAspectRatio="xMidYMid meet">
<metadata>
Created by potrace 1.16, written by Peter Selinger 2001-2019
</metadata>
<g transform="translate(0.000000,32.000000) scale(0.100000,-0.100000)"
fill="#000000" stroke="none">
<path fill="#000000" stroke="none" d="M0 300 c0 -22 25 -18 34 6 3 9 -1 14
-14 14 -13 0 -20 -7 -20 -20z"/>
<path fill="#000000" stroke="none" d="M84 308 c-4 -6 -2 -14 4 -16 7 -2 10
-7 7 -11 -2 -5 7 -13 20 -19 21 -10 25 -9 25 4 0 8 -4 12 -10 9 -5 -3 -12 6
-16 20 -7 27 -18 32 -30 13z"/>
<path fill="#000000" stroke="none" d="M120 305 c0 -8 5 -15 10 -15 6 0 10 7
10 15 0 8 -4 15 -10 15 -5 0 -10 -7 -10 -15z"/>
<path fill="#000000" stroke="none" d="M233 303 c-3 -10 -8 -21 -10 -25 -5
-10 26 -3 38 9 12 12 4 33 -12 33 -5 0 -12 -8 -16 -17z"/>
<path fill="#ffffff" stroke="none" d="M253 295 c-3 -9 -8 -14 -10 -11 -3 3
-2 9 2 15 9 16 15 13 8 -4z"/>
<path fill="#000000" stroke="none" d="M295 300 c10 -11 20 -20 22 -20 1 0 3
9 3 20 0 14 -7 20 -22 20 -20 0 -21 -1 -3 -20z"/>
<path fill="#000000" stroke="none" d="M32 271 c-9 -6 -7 -12 8 -26 15 -14 20
-15 20 -4 0 23 -15 38 -28 30z"/>
<path fill="#000000" stroke="none" d="M285 230 l-20 -9 20 0 c12 -1 16 -4 9
-9 -9 -5 -8 -10 1 -19 10 -10 14 -9 19 3 15 40 7 49 -29 34z"/>
<path fill="#000000" stroke="none" d="M3 162 c-1 -15 4 -18 23 -14 13 2 21 8
18 13 -3 5 -10 7 -15 4 -5 -4 -9 -1 -9 4 0 19 -16 12 -17 -7z"/>
<path fill="#000000" stroke="none" d="M180 128 c-38 -36 -42 -43 -26 -46 15
-3 16 -6 5 -13 -8 -5 -9 -9 -3 -9 6 0 19 10 30 22 15 19 16 20 2 9 -24 -18
-23 0 2 26 13 14 27 20 42 16 14 -3 18 -1 12 4 -6 4 -13 13 -15 20 -2 8 -22
-4 -49 -29z"/>
<path fill="#000000" stroke="none" d="M297 104 c-8 -8 1 -24 14 -24 5 0 9 7
9 15 0 15 -12 20 -23 9z"/>
<path fill="#000000" stroke="none" d="M75 88 c-22 -12 -35 -28 -35 -42 0 -5
10 0 23 11 12 11 28 19 35 17 7 -1 8 0 2 3 -5 2 -8 9 -4 14 7 11 4 11 -21 -3z"/>
<path fill="#000000" stroke="none" d="M0 79 c0 -5 5 -7 10 -4 5 3 10 8 10 11
0 2 -4 4 -10 4 -5 0 -10 -5 -10 -11z"/>
<path fill="#000000" stroke="none" d="M270 60 c0 -6 7 -10 15 -10 8 0 15 2
15 4 0 2 -7 6 -15 10 -8 3 -15 1 -15 -4z"/>
<path fill="#000000" stroke="none" d="M155 39 c-4 -6 -5 -12 -2 -15 2 -3 7 2
10 11 7 17 1 20 -8 4z"/>
<path fill="#000000" stroke="none" d="M192 20 c0 -14 2 -19 5 -12 2 6 2 18 0
25 -3 6 -5 1 -5 -13z"/>
<path fill="#000000" stroke="none" d="M300 10 c-13 -8 -12 -10 3 -10 9 0 17
5 17 10 0 12 -1 12 -20 0z"/>
</g>
</svg>
