<?xml version="1.0" standalone="no"?>
<!DOCTYPE svg PUBLIC "-//W3C//DTD SVG 20010904//EN"
 "http://www.w3.org/TR/2001/REC-SVG-20010904/DTD/svg10.dtd">
<svg version="1.0" xmlns="http://www.w3.org/2000/svg"
 width="32.000000pt" height="32.000000pt" viewBox="0 0 32.000000 32.000000"
 preserveAspectRatio="xMidYMid meet">
<metadata>
Created by potrace 1.16, written by Peter Selinger 2001-2019
</metadata>
<g transform="translate(0.000000,32.000000) scale(0.100000,-0.100000)"
fill="#000000" stroke="none">
<path fill="#000000" stroke="none" d="M22 296 c-17 -19 -22 -36 -22 -80 0
-54 1 -56 28 -57 27 -1 27 -1 3 -8 -17 -4 -26 -15 -28 -34 -2 -16 1 -27 8 -27
8 0 8 -4 0 -14 -7 -8 -11 -27 -9 -43 l3 -28 89 -3 c65 -2 92 1 98 10 6 10 8
10 8 1 0 -16 73 -17 101 -3 25 14 26 65 2 75 -16 6 -16 8 -3 18 16 12 26 98
12 96 -25 -4 -32 1 -20 15 7 8 16 12 21 9 4 -2 7 9 7 25 0 39 -43 80 -65 62
-8 -7 -15 -17 -15 -23 0 -6 7 -2 16 9 15 18 15 18 6 0 -5 -11 -17 -21 -25 -22
-13 -2 -14 3 -7 22 9 24 8 24 -45 24 -37 0 -55 -4 -55 -12 0 -9 -4 -8 -11 2
-8 12 -10 9 -6 -13 3 -22 2 -25 -9 -16 -7 6 -12 16 -11 22 4 23 -47 18 -71 -7z"/>
<path fill="#ffffff" stroke="none" d="M56 243 c-3 -3 -13 0 -21 7 -13 10 -13
15 -3 21 13 8 35 -17 24 -28z"/>
<path fill="#ffffff" stroke="none" d="M195 210 c3 -5 2 -10 -4 -10 -5 0 -13
5 -16 10 -3 6 -2 10 4 10 5 0 13 -4 16 -10z"/>
<path fill="#ffffff" stroke="none" d="M230 200 c0 -5 -5 -10 -11 -10 -5 0 -7
5 -4 10 3 6 8 10 11 10 2 0 4 -4 4 -10z"/>
<path fill="#ffffff" stroke="none" d="M240 172 c0 -14 -86 -103 -93 -96 -10
10 19 60 49 83 28 22 44 27 44 13z"/>
<path fill="#ffffff" stroke="none" d="M70 65 c-7 -9 -15 -13 -18 -10 -3 2 1
11 8 20 7 9 15 13 18 10 3 -2 -1 -11 -8 -20z"/>
</g>
</svg>
