<?xml version="1.0" standalone="no"?>
<!DOCTYPE svg PUBLIC "-//W3C//DTD SVG 20010904//EN"
 "http://www.w3.org/TR/2001/REC-SVG-20010904/DTD/svg10.dtd">
<svg version="1.0" xmlns="http://www.w3.org/2000/svg"
 width="32.000000pt" height="32.000000pt" viewBox="0 0 32.000000 32.000000"
 preserveAspectRatio="xMidYMid meet">
<metadata>
Created by potrace 1.16, written by Peter Selinger 2001-2019
</metadata>
<g transform="translate(0.000000,32.000000) scale(0.100000,-0.100000)"
fill="#000000" stroke="none">
<path fill="#000000" stroke="none" d="M50 311 c0 -5 5 -13 10 -16 6 -4 7 -11
4 -17 -5 -7 -2 -8 7 -3 11 7 12 6 2 -6 -11 -14 -3 -95 13 -120 3 -6 0 -9 -7
-7 -22 5 -79 -23 -79 -39 0 -16 30 -11 65 12 29 18 48 -5 43 -54 -2 -28 0 -37
9 -34 7 3 13 -2 13 -12 0 -9 4 -14 9 -10 5 3 8 24 7 47 -3 37 1 45 38 79 35
33 42 36 48 21 4 -9 7 -11 7 -4 1 6 13 12 29 12 26 -1 26 -1 8 -15 -19 -15
-19 -15 -1 -29 11 -8 25 -12 32 -9 17 7 17 30 1 36 -10 4 -9 8 2 16 13 9 13
11 -2 11 -10 0 -18 5 -18 11 0 7 -8 17 -17 24 -15 11 -15 15 -4 29 11 13 11
16 0 16 -8 0 -3 9 11 20 14 10 21 22 17 26 -4 4 -17 -3 -28 -15 -13 -14 -29
-21 -40 -18 -10 3 -20 0 -23 -7 -3 -7 -5 -7 -5 2 -1 6 -11 12 -23 12 -17 0
-19 3 -10 9 8 4 24 7 38 5 21 -2 22 0 14 17 -12 21 -25 24 -35 9 -4 -6 -11 -8
-16 -5 -5 4 -12 -7 -15 -24 -4 -17 -12 -31 -20 -31 -15 0 -71 49 -66 58 2 4
-1 8 -7 10 -6 2 -11 -1 -11 -7z"/>
<path fill="#ffffff" stroke="none" d="M250 230 c0 -5 -5 -10 -11 -10 -5 0 -7
5 -4 10 3 6 8 10 11 10 2 0 4 -4 4 -10z"/>
<path fill="#000000" stroke="none" d="M0 258 c0 -9 5 -20 11 -23 17 -11 18
-2 3 19 -12 17 -14 17 -14 4z"/>
<path fill="#000000" stroke="none" d="M7 183 c7 -2 19 -2 26 0 6 3 1 5 -13 5
-14 0 -19 -2 -13 -5z"/>
<path fill="#000000" stroke="none" d="M190 119 c0 -8 16 -24 36 -37 20 -13
33 -19 29 -12 -5 7 2 9 20 4 21 -5 27 -4 23 7 -9 27 -108 62 -108 38z"/>
<path fill="#000000" stroke="none" d="M67 103 c-4 -3 -7 -11 -7 -17 0 -6 5
-5 12 2 6 6 9 14 7 17 -3 3 -9 2 -12 -2z"/>
<path fill="#000000" stroke="none" d="M190 75 c0 -16 16 -20 24 -6 3 5 -1 11
-9 15 -9 3 -15 0 -15 -9z"/>
<path fill="#000000" stroke="none" d="M60 10 c0 -5 5 -10 10 -10 6 0 10 5 10
10 0 6 -4 10 -10 10 -5 0 -10 -4 -10 -10z"/>
</g>
</svg>
