<?xml version="1.0" standalone="no"?>
<!DOCTYPE svg PUBLIC "-//W3C//DTD SVG 20010904//EN"
 "http://www.w3.org/TR/2001/REC-SVG-20010904/DTD/svg10.dtd">
<svg version="1.0" xmlns="http://www.w3.org/2000/svg"
 width="32.000000pt" height="32.000000pt" viewBox="0 0 32.000000 32.000000"
 preserveAspectRatio="xMidYMid meet">
<metadata>
Created by potrace 1.16, written by Peter Selinger 2001-2019
</metadata>
<g transform="translate(0.000000,32.000000) scale(0.100000,-0.100000)"
fill="#000000" stroke="none">
<path fill="#000000" stroke="none" d="M55 278 c3 -24 9 -59 15 -78 13 -46 13
-58 -2 -57 -7 0 -26 -1 -43 -2 -23 -1 -27 -3 -15 -11 10 -6 11 -10 3 -10 -7 0
-13 -7 -13 -15 0 -18 14 -19 40 -5 16 8 18 8 14 -5 -7 -17 11 -21 21 -5 11 18
25 11 25 -12 -1 -26 -22 -58 -39 -58 -6 0 -11 -4 -11 -10 0 -15 27 -12 33 4 7
17 39 15 45 -2 5 -17 22 -4 22 16 0 10 9 25 19 34 19 16 20 15 26 -13 4 -16
11 -29 17 -29 6 0 8 10 4 24 -8 32 2 38 33 18 25 -16 25 -16 12 1 -13 17 -12
18 12 12 29 -8 35 3 15 24 -7 7 -8 12 -3 11 33 -7 51 22 23 33 -10 4 -9 8 2
16 13 10 13 11 0 11 -8 0 -21 12 -28 28 -11 23 -10 29 5 39 16 12 16 13 -1 13
-16 0 -16 1 -2 16 34 33 15 46 -20 13 -16 -15 -29 -19 -41 -14 -10 4 -13 9 -7
12 22 8 3 43 -23 43 -17 0 -22 -4 -17 -12 5 -9 2 -9 -9 1 -17 13 -19 11 -21
-19 -2 -25 -32 -22 -57 4 -33 35 -38 33 -34 -16z"/>
<path fill="#ffffff" stroke="none" d="M240 173 c0 -10 -82 -93 -92 -93 -5 0
-2 13 6 29 21 39 86 88 86 64z"/>
<path fill="#ffffff" stroke="none" d="M270 140 c-14 -10 -27 -17 -29 -15 -8
8 22 35 38 35 12 0 10 -5 -9 -20z"/>
<path fill="#000000" stroke="none" d="M0 258 c0 -6 8 -20 17 -31 17 -18 17
-19 0 -32 -17 -13 -17 -14 3 -20 23 -7 44 4 23 12 -9 3 -10 10 -4 22 7 12 3
22 -15 38 -13 12 -24 17 -24 11z"/>
</g>
</svg>
