<?xml version="1.0" standalone="no"?>
<!DOCTYPE svg PUBLIC "-//W3C//DTD SVG 20010904//EN"
 "http://www.w3.org/TR/2001/REC-SVG-20010904/DTD/svg10.dtd">
<svg version="1.0" xmlns="http://www.w3.org/2000/svg"
 width="32.000000pt" height="32.000000pt" viewBox="0 0 32.000000 32.000000"
 preserveAspectRatio="xMidYMid meet">
<metadata>
Created by potrace 1.16, written by Peter Selinger 2001-2019
</metadata>
<g transform="translate(0.000000,32.000000) scale(0.100000,-0.100000)"
fill="#000000" stroke="none">
<path fill="#000000" stroke="none" d="M0 160 l0 -160 160 0 160 0 0 160 0
160 -160 0 -160 0 0 -160z"/>
<path fill="#ffffff" stroke="none" d="M55 290 c3 -5 1 -10 -4 -10 -6 0 -11 5
-11 10 0 6 2 10 4 10 3 0 8 -4 11 -10z"/>
<path fill="#ffffff" stroke="none" d="M120 290 c0 -5 -5 -10 -11 -10 -5 0 -7
5 -4 10 3 6 8 10 11 10 2 0 4 -4 4 -10z"/>
<path fill="#ffffff" stroke="none" d="M170 288 c0 -7 -4 -19 -9 -26 -7 -11
-10 -10 -15 3 -3 9 -4 21 0 26 8 13 24 11 24 -3z"/>
<path fill="#ffffff" stroke="none" d="M310 272 c0 -4 -13 -7 -29 -7 -16 -1
-27 3 -25 7 3 5 9 6 14 3 5 -3 11 -1 15 5 6 11 25 5 25 -8z"/>
<path fill="#ffffff" stroke="none" d="M120 236 c0 -3 -4 -8 -10 -11 -5 -3
-10 -1 -10 4 0 6 5 11 10 11 6 0 10 -2 10 -4z"/>
<path fill="#ffffff" stroke="none" d="M210 221 c0 -6 -4 -13 -10 -16 -5 -3
-10 1 -10 9 0 9 5 16 10 16 6 0 10 -4 10 -9z"/>
<path fill="#ffffff" stroke="none" d="M175 210 c-3 -5 -11 -10 -16 -10 -6 0
-7 5 -4 10 3 6 11 10 16 10 6 0 7 -4 4 -10z"/>
<path fill="#ffffff" stroke="none" d="M88 178 c-8 -12 -20 -23 -27 -24 -6 -1
-7 0 -1 3 5 2 7 10 4 15 -4 7 -2 8 4 4 7 -4 12 -1 12 8 0 9 5 16 11 16 7 0 6
-8 -3 -22z"/>
<path fill="#ffffff" stroke="none" d="M197 168 c-8 -13 -20 -22 -26 -20 -6 1
-11 -2 -11 -8 0 -5 -10 -10 -22 -10 -22 1 -22 1 3 15 15 8 29 21 33 30 3 8 13
15 22 15 15 0 15 -2 1 -22z"/>
<path fill="#ffffff" stroke="none" d="M107 126 c0 -8 -6 -12 -14 -9 -7 3 -10
9 -7 14 8 14 21 11 21 -5z"/>
<path fill="#ffffff" stroke="none" d="M185 100 c3 -5 1 -10 -4 -10 -6 0 -11
5 -11 10 0 6 2 10 4 10 3 0 8 -4 11 -10z"/>
<path fill="#ffffff" stroke="none" d="M120 86 c0 -3 -4 -8 -10 -11 -5 -3 -10
-1 -10 4 0 6 5 11 10 11 6 0 10 -2 10 -4z"/>
</g>
</svg>
