<?xml version="1.0" standalone="no"?>
<!DOCTYPE svg PUBLIC "-//W3C//DTD SVG 20010904//EN"
 "http://www.w3.org/TR/2001/REC-SVG-20010904/DTD/svg10.dtd">
<svg version="1.0" xmlns="http://www.w3.org/2000/svg"
 width="32.000000pt" height="32.000000pt" viewBox="0 0 32.000000 32.000000"
 preserveAspectRatio="xMidYMid meet">
<metadata>
Created by potrace 1.16, written by Peter Selinger 2001-2019
</metadata>
<g transform="translate(0.000000,32.000000) scale(0.100000,-0.100000)"
fill="#000000" stroke="none">
<path fill="#000000" stroke="none" d="M62 239 c2 -7 10 -15 17 -17 8 -3 12 1
9 9 -2 7 -10 15 -17 17 -8 3 -12 -1 -9 -9z"/>
<path fill="#000000" stroke="none" d="M102 206 c4 -19 0 -26 -19 -31 -13 -3
-33 0 -46 6 -20 11 -21 11 -8 -4 7 -10 19 -17 25 -17 6 0 17 -9 24 -20 7 -11
18 -20 26 -20 7 0 16 -9 19 -19 3 -15 -1 -21 -17 -23 -12 -2 -4 -6 20 -9 26
-3 46 0 53 8 9 10 6 13 -16 13 l-28 1 37 34 c20 19 33 37 27 41 -6 4 -5 12 3
22 11 13 10 15 -9 10 -19 -5 -23 -2 -23 15 -1 22 -1 22 -16 2 -14 -19 -16 -19
-28 -2 -19 24 -29 21 -24 -7z"/>
</g>
</svg>
