<?xml version="1.0" standalone="no"?>
<!DOCTYPE svg PUBLIC "-//W3C//DTD SVG 20010904//EN"
 "http://www.w3.org/TR/2001/REC-SVG-20010904/DTD/svg10.dtd">
<svg version="1.0" xmlns="http://www.w3.org/2000/svg"
 width="32.000000pt" height="32.000000pt" viewBox="0 0 32.000000 32.000000"
 preserveAspectRatio="xMidYMid meet">
<metadata>
Created by potrace 1.16, written by Peter Selinger 2001-2019
</metadata>
<g transform="translate(0.000000,32.000000) scale(0.100000,-0.100000)"
fill="#000000" stroke="none">
<path fill="#000000" stroke="none" d="M135 240 c-3 -5 -14 -10 -25 -10 -25 0
-34 -29 -12 -37 14 -6 13 -8 -8 -13 -37 -9 -30 -30 20 -62 68 -42 67 -42 107
-17 20 13 31 25 25 27 -7 2 -19 -4 -28 -12 -18 -18 -24 -19 -43 -7 -10 7 -4
16 29 40 24 17 36 31 28 31 -11 0 -14 8 -12 28 2 15 1 19 -2 10 -8 -27 -41
-22 -48 7 -7 26 -20 32 -31 15z"/>
<path fill="#000000" stroke="none" d="M118 73 c6 -2 18 -2 25 0 6 3 1 5 -13
5 -14 0 -19 -2 -12 -5z"/>
</g>
</svg>
