<?xml version="1.0" standalone="no"?>
<!DOCTYPE svg PUBLIC "-//W3C//DTD SVG 20010904//EN"
 "http://www.w3.org/TR/2001/REC-SVG-20010904/DTD/svg10.dtd">
<svg version="1.0" xmlns="http://www.w3.org/2000/svg"
 width="32.000000pt" height="32.000000pt" viewBox="0 0 32.000000 32.000000"
 preserveAspectRatio="xMidYMid meet">
<metadata>
Created by potrace 1.16, written by Peter Selinger 2001-2019
</metadata>
<g transform="translate(0.000000,32.000000) scale(0.100000,-0.100000)"
fill="#000000" stroke="none">
<path fill="#000000" stroke="none" d="M0 160 l0 -160 160 0 160 0 0 160 0
160 -160 0 -160 0 0 -160z"/>
<path fill="#ffffff" stroke="none" d="M183 198 c6 -4 17 -2 24 4 29 24 6 -34
-25 -61 -17 -16 -28 -32 -25 -35 13 -13 51 -5 68 14 10 11 23 20 29 20 6 0 -4
-14 -22 -30 -32 -30 -92 -42 -92 -20 0 6 -12 16 -27 23 -31 14 -73 47 -73 59
0 5 14 8 30 8 20 0 30 5 30 15 0 8 -7 15 -15 15 -8 0 -15 7 -15 15 0 13 7 15
34 10 22 -5 36 -3 42 6 5 9 10 5 16 -12 5 -13 14 -27 21 -31z"/>
</g>
</svg>
