<?xml version="1.0" standalone="no"?>
<!DOCTYPE svg PUBLIC "-//W3C//DTD SVG 20010904//EN"
 "http://www.w3.org/TR/2001/REC-SVG-20010904/DTD/svg10.dtd">
<svg version="1.0" xmlns="http://www.w3.org/2000/svg"
 width="32.000000pt" height="32.000000pt" viewBox="0 0 32.000000 32.000000"
 preserveAspectRatio="xMidYMid meet">
<metadata>
Created by potrace 1.16, written by Peter Selinger 2001-2019
</metadata>
<g transform="translate(0.000000,32.000000) scale(0.100000,-0.100000)"
fill="#000000" stroke="none">
<path fill="#000000" stroke="none" d="M0 160 l0 -160 160 0 160 0 0 160 0
160 -160 0 -160 0 0 -160z"/>
<path fill="#ffffff" stroke="none" d="M166 225 c4 -16 13 -25 25 -25 10 0 19
-4 19 -10 0 -5 8 -10 18 -10 13 0 11 -4 -9 -18 -14 -9 -33 -24 -42 -34 -14
-14 -14 -17 -2 -22 18 -6 45 3 45 15 0 5 7 9 16 9 13 0 11 -4 -7 -18 -43 -33
-57 -33 -106 0 -27 17 -52 35 -57 39 -14 12 13 39 32 33 15 -5 15 -4 0 6 -21
13 -13 40 12 40 11 0 22 5 25 10 11 17 24 11 31 -15z"/>
<path fill="#ffffff" stroke="none" d="M137 74 c-3 -3 -12 -4 -19 -1 -8 3 -5
6 6 6 11 1 17 -2 13 -5z"/>
</g>
</svg>
