<?xml version="1.0" standalone="no"?>
<!DOCTYPE svg PUBLIC "-//W3C//DTD SVG 20010904//EN"
 "http://www.w3.org/TR/2001/REC-SVG-20010904/DTD/svg10.dtd">
<svg version="1.0" xmlns="http://www.w3.org/2000/svg"
 width="32.000000pt" height="32.000000pt" viewBox="0 0 32.000000 32.000000"
 preserveAspectRatio="xMidYMid meet">
<metadata>
Created by potrace 1.16, written by Peter Selinger 2001-2019
</metadata>
<g transform="translate(0.000000,32.000000) scale(0.100000,-0.100000)"
fill="#000000" stroke="none">
<path fill="#000000" stroke="none" d="M0 160 l0 -160 160 0 160 0 0 160 0
160 -160 0 -160 0 0 -160z"/>
<path fill="#ffffff" stroke="none" d="M170 193 c27 2 36 -1 29 -9 -5 -6 -6
-14 -3 -17 4 -3 -8 -18 -25 -32 -36 -31 -39 -45 -11 -45 12 0 17 -5 14 -13 -3
-8 -18 -11 -47 -8 -27 3 -34 6 -19 9 35 5 24 30 -29 67 l-46 31 54 -2 c45 -2
52 0 42 12 -6 7 -14 12 -18 10 -4 -3 -8 5 -8 16 l-2 21 15 -21 c11 -16 24 -20
54 -19z"/>
</g>
</svg>
