<?xml version="1.0" standalone="no"?>
<!DOCTYPE svg PUBLIC "-//W3C//DTD SVG 20010904//EN"
 "http://www.w3.org/TR/2001/REC-SVG-20010904/DTD/svg10.dtd">
<svg version="1.0" xmlns="http://www.w3.org/2000/svg"
 width="32.000000pt" height="32.000000pt" viewBox="0 0 32.000000 32.000000"
 preserveAspectRatio="xMidYMid meet">
<metadata>
Created by potrace 1.16, written by Peter Selinger 2001-2019
</metadata>
<g transform="translate(0.000000,32.000000) scale(0.100000,-0.100000)"
fill="#000000" stroke="none">
<path fill="#000000" stroke="none" d="M0 160 l0 -160 160 0 160 0 0 160 0
160 -160 0 -160 0 0 -160z"/>
<path fill="#ffffff" stroke="none" d="M135 272 c-3 -3 -11 0 -18 7 -9 10 -8
11 6 5 10 -3 15 -9 12 -12z"/>
<path fill="#ffffff" stroke="none" d="M117 232 c29 -10 32 -9 36 11 3 18 5
17 12 -10 8 -37 9 -37 36 -23 22 12 24 7 8 -22 -8 -15 -8 -22 1 -28 9 -6 7
-10 -6 -14 -11 -4 -27 -18 -37 -31 -18 -24 -17 -25 3 -25 12 0 18 -4 15 -10
-3 -5 2 -10 11 -10 10 0 15 -3 12 -6 -10 -9 -118 7 -112 17 3 5 11 6 17 2 7
-4 6 0 -2 10 -7 9 -20 17 -27 17 -8 0 -14 9 -14 21 0 11 -4 18 -9 15 -5 -3
-17 6 -26 21 -17 25 -17 26 1 19 22 -9 23 -9 47 -7 26 2 21 30 -8 41 -17 6
-23 14 -19 25 4 10 10 12 18 7 6 -5 25 -14 43 -20z"/>
<path fill="#ffffff" stroke="none" d="M235 110 c-3 -5 -11 -10 -16 -10 -6 0
-7 5 -4 10 3 6 11 10 16 10 6 0 7 -4 4 -10z"/>
</g>
</svg>
