<?xml version="1.0" standalone="no"?>
<!DOCTYPE svg PUBLIC "-//W3C//DTD SVG 20010904//EN"
 "http://www.w3.org/TR/2001/REC-SVG-20010904/DTD/svg10.dtd">
<svg version="1.0" xmlns="http://www.w3.org/2000/svg"
 width="32.000000pt" height="32.000000pt" viewBox="0 0 32.000000 32.000000"
 preserveAspectRatio="xMidYMid meet">
<metadata>
Created by potrace 1.16, written by Peter Selinger 2001-2019
</metadata>
<g transform="translate(0.000000,32.000000) scale(0.100000,-0.100000)"
fill="#000000" stroke="none">
<path fill="#000000" stroke="none" d="M93 259 c-18 -11 -35 -30 -39 -42 -4
-12 -11 -25 -16 -28 -17 -11 2 -48 33 -66 34 -20 39 -44 7 -35 -14 3 -19 2
-14 -6 11 -18 103 -14 142 4 33 16 74 61 74 83 0 5 -11 -1 -25 -14 -24 -25
-55 -33 -55 -15 0 6 15 19 33 30 28 17 30 25 5 21 -13 -2 -9 17 4 21 7 3 5 13
-7 31 -22 35 -33 34 -29 0 2 -16 1 -22 -2 -15 -3 6 -11 12 -17 12 -7 0 -18 9
-25 20 -15 25 -29 25 -69 -1z"/>
<path fill="#ffffff" stroke="none" d="M200 110 c0 -5 -7 -7 -15 -4 -8 4 -15
8 -15 10 0 2 7 4 15 4 8 0 15 -4 15 -10z"/>
</g>
</svg>
