<?xml version="1.0" standalone="no"?>
<!DOCTYPE svg PUBLIC "-//W3C//DTD SVG 20010904//EN"
 "http://www.w3.org/TR/2001/REC-SVG-20010904/DTD/svg10.dtd">
<svg version="1.0" xmlns="http://www.w3.org/2000/svg"
 width="32.000000pt" height="32.000000pt" viewBox="0 0 32.000000 32.000000"
 preserveAspectRatio="xMidYMid meet">
<metadata>
Created by potrace 1.16, written by Peter Selinger 2001-2019
</metadata>
<g transform="translate(0.000000,32.000000) scale(0.100000,-0.100000)"
fill="#000000" stroke="none">
<path fill="#000000" stroke="none" d="M117 273 c-12 -11 -8 -21 11 -27 9 -3
0 -3 -21 0 -35 5 -38 3 -43 -25 -4 -16 -12 -32 -20 -35 -25 -9 20 -75 52 -76
5 0 19 -7 30 -16 16 -13 16 -15 2 -10 -10 3 -20 1 -24 -5 -4 -7 13 -8 48 -4
41 4 60 13 83 35 16 17 24 30 17 30 -6 0 -21 -9 -32 -20 -20 -20 -41 -26 -53
-14 -6 6 24 38 66 69 16 12 17 15 5 11 -13 -4 -18 0 -18 15 0 11 -4 18 -9 15
-14 -9 -41 5 -41 21 0 27 -37 53 -53 36z"/>
</g>
</svg>
