<?xml version="1.0" standalone="no"?>
<!DOCTYPE svg PUBLIC "-//W3C//DTD SVG 20010904//EN"
 "http://www.w3.org/TR/2001/REC-SVG-20010904/DTD/svg10.dtd">
<svg version="1.0" xmlns="http://www.w3.org/2000/svg"
 width="32.000000pt" height="32.000000pt" viewBox="0 0 32.000000 32.000000"
 preserveAspectRatio="xMidYMid meet">
<metadata>
Created by potrace 1.16, written by Peter Selinger 2001-2019
</metadata>
<g transform="translate(0.000000,32.000000) scale(0.100000,-0.100000)"
fill="#000000" stroke="none">
<path fill="#000000" stroke="none" d="M135 240 c-4 -6 -10 -8 -14 -6 -12 8
-27 -7 -44 -42 -21 -43 -14 -57 34 -76 44 -18 50 -32 17 -39 -13 -3 -4 -3 19
-2 28 2 55 12 78 29 39 30 48 54 13 34 -13 -7 -27 -11 -31 -10 -5 1 -6 -2 -2
-8 3 -5 -3 -10 -14 -10 -18 0 -19 3 -10 19 7 10 24 25 38 34 14 9 20 17 13 17
-8 0 -10 8 -6 24 3 13 1 27 -4 30 -5 3 -12 -3 -15 -14 -7 -28 -34 -25 -41 5
-7 26 -20 32 -31 15z"/>
</g>
</svg>
