<?xml version="1.0" standalone="no"?>
<!DOCTYPE svg PUBLIC "-//W3C//DTD SVG 20010904//EN"
 "http://www.w3.org/TR/2001/REC-SVG-20010904/DTD/svg10.dtd">
<svg version="1.0" xmlns="http://www.w3.org/2000/svg"
 width="32.000000pt" height="32.000000pt" viewBox="0 0 32.000000 32.000000"
 preserveAspectRatio="xMidYMid meet">
<metadata>
Created by potrace 1.16, written by Peter Selinger 2001-2019
</metadata>
<g transform="translate(0.000000,32.000000) scale(0.100000,-0.100000)"
fill="#000000" stroke="none">
<path fill="#000000" stroke="none" d="M0 160 l0 -160 160 0 160 0 0 160 0
160 -160 0 -160 0 0 -160z"/>
<path fill="#ffffff" stroke="none" d="M117 223 c-12 -12 27 -32 40 -21 9 7
13 7 13 -2 0 -7 8 -10 20 -7 11 3 20 1 20 -4 0 -5 -6 -9 -12 -9 -10 0 -10 -2
0 -8 10 -7 6 -13 -13 -28 -35 -26 -33 -47 5 -42 36 5 39 1 8 -11 -17 -6 -31
-2 -55 17 -18 13 -33 22 -33 18 0 -3 -8 2 -18 12 -18 16 -17 17 5 30 26 14 31
32 8 32 -16 0 -20 12 -8 23 3 4 11 7 16 7 6 0 7 -3 4 -7z"/>
</g>
</svg>
