<?xml version="1.0" standalone="no"?>
<!DOCTYPE svg PUBLIC "-//W3C//DTD SVG 20010904//EN"
 "http://www.w3.org/TR/2001/REC-SVG-20010904/DTD/svg10.dtd">
<svg version="1.0" xmlns="http://www.w3.org/2000/svg"
 width="32.000000pt" height="32.000000pt" viewBox="0 0 32.000000 32.000000"
 preserveAspectRatio="xMidYMid meet">
<metadata>
Created by potrace 1.16, written by Peter Selinger 2001-2019
</metadata>
<g transform="translate(0.000000,32.000000) scale(0.100000,-0.100000)"
fill="#000000" stroke="none">
<path fill="#000000" stroke="none" d="M146 224 c5 -19 4 -25 -5 -20 -6 4 -9
12 -6 17 4 5 -3 9 -14 9 -25 0 -38 -20 -20 -31 7 -4 10 -12 5 -16 -7 -8 -11
-9 -37 -12 -18 -2 10 -31 60 -61 45 -28 71 -29 93 -2 12 13 11 14 -8 2 -12 -7
-29 -10 -39 -6 -17 6 -16 8 5 31 23 25 39 72 21 61 -12 -8 -41 21 -41 40 0 8
-5 14 -10 14 -6 0 -8 -11 -4 -26z"/>
</g>
</svg>
