<?xml version="1.0" standalone="no"?>
<!DOCTYPE svg PUBLIC "-//W3C//DTD SVG 20010904//EN"
 "http://www.w3.org/TR/2001/REC-SVG-20010904/DTD/svg10.dtd">
<svg version="1.0" xmlns="http://www.w3.org/2000/svg"
 width="32.000000pt" height="32.000000pt" viewBox="0 0 32.000000 32.000000"
 preserveAspectRatio="xMidYMid meet">
<metadata>
Created by potrace 1.16, written by Peter Selinger 2001-2019
</metadata>
<g transform="translate(0.000000,32.000000) scale(0.100000,-0.100000)"
fill="#000000" stroke="none">
<path fill="#000000" stroke="none" d="M136 303 c-4 -5 -11 -8 -14 -8 -18 0
-82 -60 -82 -76 0 -11 -6 -19 -14 -19 -21 0 -8 -38 26 -80 16 -19 34 -41 39
-48 6 -7 17 -11 25 -8 8 3 25 1 38 -4 13 -5 33 -6 45 -3 l21 5 -21 19 c-12 11
-20 19 -18 20 28 5 69 2 69 -6 0 -5 5 -4 11 2 8 8 8 16 0 30 -6 10 -11 13 -11
8 0 -6 -11 -12 -25 -13 -14 -1 -25 2 -25 6 1 14 51 44 65 38 16 -6 28 8 32 37
3 16 1 16 -19 -3 -25 -23 -50 -27 -42 -6 3 8 -3 24 -14 36 -18 20 -20 20 -27
3 -5 -14 -9 -10 -20 21 -15 44 -28 60 -39 49z"/>
<path fill="#ffffff" stroke="none" d="M120 255 c7 -9 8 -15 2 -15 -5 0 -12 7
-16 15 -3 8 -4 15 -2 15 2 0 9 -7 16 -15z"/>
<path fill="#000000" stroke="none" d="M180 307 c0 -3 12 -12 26 -22 15 -9 23
-12 20 -6 -7 11 -46 35 -46 28z"/>
<path fill="#000000" stroke="none" d="M30 101 c0 -10 19 -25 25 -20 1 2 -3
10 -11 17 -8 7 -14 8 -14 3z"/>
</g>
</svg>
