<?xml version="1.0" standalone="no"?>
<!DOCTYPE svg PUBLIC "-//W3C//DTD SVG 20010904//EN"
 "http://www.w3.org/TR/2001/REC-SVG-20010904/DTD/svg10.dtd">
<svg version="1.0" xmlns="http://www.w3.org/2000/svg"
 width="32.000000pt" height="32.000000pt" viewBox="0 0 32.000000 32.000000"
 preserveAspectRatio="xMidYMid meet">
<metadata>
Created by potrace 1.16, written by Peter Selinger 2001-2019
</metadata>
<g transform="translate(0.000000,32.000000) scale(0.100000,-0.100000)"
fill="#000000" stroke="none">
<path fill="#000000" stroke="none" d="M0 160 l0 -160 160 0 160 0 0 160 0
160 -160 0 -160 0 0 -160z"/>
<path fill="#ffffff" stroke="none" d="M101 235 c19 -8 30 -14 26 -15 -5 0 -5
-5 -2 -11 5 -7 14 -4 26 7 18 16 19 16 19 -5 0 -18 3 -20 19 -11 18 9 20 7 18
-17 -1 -16 -14 -38 -29 -51 -33 -28 -35 -39 -8 -44 13 -2 17 -7 12 -15 -6 -9
-20 -10 -52 -4 -25 5 -35 9 -23 10 29 1 19 37 -13 45 -13 4 -24 11 -24 16 0 6
-6 10 -13 10 -7 0 -18 9 -25 20 -13 21 -3 27 15 9 5 -5 21 -7 35 -4 30 8 28
40 -3 48 -10 3 -19 10 -19 16 0 14 1 14 41 -4z"/>
</g>
</svg>
