<?xml version="1.0" standalone="no"?>
<!DOCTYPE svg PUBLIC "-//W3C//DTD SVG 20010904//EN"
 "http://www.w3.org/TR/2001/REC-SVG-20010904/DTD/svg10.dtd">
<svg version="1.0" xmlns="http://www.w3.org/2000/svg"
 width="32.000000pt" height="32.000000pt" viewBox="0 0 32.000000 32.000000"
 preserveAspectRatio="xMidYMid meet">
<metadata>
Created by potrace 1.16, written by Peter Selinger 2001-2019
</metadata>
<g transform="translate(0.000000,32.000000) scale(0.100000,-0.100000)"
fill="#000000" stroke="none">
<path fill="#000000" stroke="none" d="M84 287 c-47 -32 -78 -95 -70 -139 4
-24 3 -37 -5 -40 -6 -2 7 -16 30 -31 22 -15 41 -24 41 -21 0 4 6 1 13 -5 8 -6
17 -8 21 -4 4 4 31 8 59 8 43 0 57 5 85 29 23 21 31 37 30 55 -2 18 1 25 11
23 10 -2 12 4 7 20 -3 13 -6 31 -6 42 0 14 -6 17 -25 14 -13 -3 -24 -2 -23 1
7 64 -100 95 -168 48z"/>
<path fill="#ffffff" stroke="none" d="M195 279 c11 -17 -1 -21 -15 -4 -8 9
-8 15 -2 15 6 0 14 -5 17 -11z"/>
<path fill="#ffffff" stroke="none" d="M270 206 c0 -3 -4 -8 -10 -11 -5 -3
-10 -1 -10 4 0 6 5 11 10 11 6 0 10 -2 10 -4z"/>
<path fill="#000000" stroke="none" d="M165 20 c-18 -8 -18 -9 5 -9 14 0 34 4
45 9 18 8 18 9 -5 9 -14 0 -34 -4 -45 -9z"/>
</g>
</svg>
