<?xml version="1.0" standalone="no"?>
<!DOCTYPE svg PUBLIC "-//W3C//DTD SVG 20010904//EN"
 "http://www.w3.org/TR/2001/REC-SVG-20010904/DTD/svg10.dtd">
<svg version="1.0" xmlns="http://www.w3.org/2000/svg"
 width="32.000000pt" height="32.000000pt" viewBox="0 0 32.000000 32.000000"
 preserveAspectRatio="xMidYMid meet">
<metadata>
Created by potrace 1.16, written by Peter Selinger 2001-2019
</metadata>
<g transform="translate(0.000000,32.000000) scale(0.100000,-0.100000)"
fill="#000000" stroke="none">
<path fill="#000000" stroke="none" d="M0 160 l0 -160 160 0 160 0 0 160 0
160 -160 0 -160 0 0 -160z"/>
<path fill="#ffffff" stroke="none" d="M175 254 c11 -31 15 -35 20 -21 7 17 9
17 27 -3 11 -12 17 -28 14 -36 -8 -21 17 -17 42 6 20 19 22 19 19 3 -4 -29
-16 -43 -32 -37 -14 6 -64 -24 -65 -38 0 -4 11 -7 25 -6 14 1 25 7 25 13 0 5
5 2 11 -8 8 -14 8 -22 0 -30 -6 -6 -11 -7 -11 -2 0 8 -41 11 -69 6 -2 -1 6 -9
18 -20 l21 -19 -21 -5 c-12 -3 -32 -2 -45 3 -13 5 -30 7 -38 4 -8 -3 -19 1
-25 8 -5 7 -23 29 -39 48 -34 42 -47 80 -26 80 8 0 14 8 14 19 0 16 64 76 82
76 3 0 10 3 14 8 11 11 24 -5 39 -49z"/>
<path fill="#ffffff" stroke="none" d="M226 279 c3 -6 -5 -3 -20 6 -14 10 -26
19 -26 22 0 7 39 -17 46 -28z"/>
<path fill="#ffffff" stroke="none" d="M55 81 c-6 -5 -25 10 -25 20 0 5 6 4
14 -3 8 -7 12 -15 11 -17z"/>
<path fill="#000000" stroke="none" d="M106 255 c4 -8 11 -15 16 -15 6 0 5 6
-2 15 -7 8 -14 15 -16 15 -2 0 -1 -7 2 -15z"/>
</g>
</svg>
