<?xml version="1.0" standalone="no"?>
<!DOCTYPE svg PUBLIC "-//W3C//DTD SVG 20010904//EN"
 "http://www.w3.org/TR/2001/REC-SVG-20010904/DTD/svg10.dtd">
<svg version="1.0" xmlns="http://www.w3.org/2000/svg"
 width="32.000000pt" height="32.000000pt" viewBox="0 0 32.000000 32.000000"
 preserveAspectRatio="xMidYMid meet">
<metadata>
Created by potrace 1.16, written by Peter Selinger 2001-2019
</metadata>
<g transform="translate(0.000000,32.000000) scale(0.100000,-0.100000)"
fill="#000000" stroke="none">
<path fill="#000000" stroke="none" d="M113 287 c5 -15 37 -22 37 -9 0 5 -9
12 -21 15 -13 3 -19 1 -16 -6z"/>
<path fill="#000000" stroke="none" d="M190 296 c0 -2 7 -7 16 -10 8 -3 12 -2
9 4 -6 10 -25 14 -25 6z"/>
<path fill="#000000" stroke="none" d="M54 246 c-8 -20 3 -36 19 -30 7 2 13
-4 14 -16 2 -18 -2 -20 -33 -14 -36 7 -44 -4 -21 -28 8 -7 19 -23 26 -35 7
-15 17 -20 28 -16 13 5 15 2 11 -14 -5 -19 0 -22 49 -28 30 -4 57 -4 61 -1 3
3 -2 6 -12 6 -9 0 -14 5 -11 10 3 6 -1 10 -9 10 -9 0 -16 5 -16 10 0 6 7 10
15 10 8 0 15 6 15 13 0 7 12 20 28 29 20 13 22 18 10 18 -10 0 -18 7 -18 16 0
8 4 12 10 9 5 -3 7 0 4 9 -3 8 -14 13 -25 11 -13 -3 -21 3 -25 21 -7 27 -19
31 -28 8 -4 -11 -13 -13 -28 -8 -13 4 -25 9 -28 13 -10 13 -31 11 -36 -3z"/>
<path fill="#000000" stroke="none" d="M275 190 c-3 -5 -1 -10 4 -10 6 0 11 5
11 10 0 6 -2 10 -4 10 -3 0 -8 -4 -11 -10z"/>
<path fill="#000000" stroke="none" d="M210 110 c-12 -8 -11 -10 8 -10 12 0
22 5 22 10 0 13 -11 13 -30 0z"/>
</g>
</svg>
