<?xml version="1.0" standalone="no"?>
<!DOCTYPE svg PUBLIC "-//W3C//DTD SVG 20010904//EN"
 "http://www.w3.org/TR/2001/REC-SVG-20010904/DTD/svg10.dtd">
<svg version="1.0" xmlns="http://www.w3.org/2000/svg"
 width="32.000000pt" height="32.000000pt" viewBox="0 0 32.000000 32.000000"
 preserveAspectRatio="xMidYMid meet">
<metadata>
Created by potrace 1.16, written by Peter Selinger 2001-2019
</metadata>
<g transform="translate(0.000000,32.000000) scale(0.100000,-0.100000)"
fill="#000000" stroke="none">
<path fill="#000000" stroke="none" d="M1 215 c0 -66 4 -105 10 -105 7 0 8 14
4 39 -5 31 -2 45 19 75 14 21 36 46 51 57 37 30 31 39 -30 39 l-54 0 0 -105z"/>
<path fill="#000000" stroke="none" d="M120 312 c0 -5 14 -7 30 -4 40 6 87
-15 97 -42 8 -24 8 -21 -1 -59 -6 -26 -5 -27 14 -15 11 7 18 17 16 23 -2 6 2
15 9 22 10 9 14 5 17 -23 2 -19 1 -34 -4 -34 -4 0 -12 -10 -19 -21 -8 -16 -8
-23 1 -29 8 -5 2 -18 -21 -41 -31 -31 -38 -34 -99 -34 -36 -1 -71 4 -79 10 -8
5 -16 9 -18 7 -2 -1 -17 5 -33 13 l-30 16 0 -51 0 -50 75 0 c43 0 75 4 75 10
0 6 8 10 18 10 14 0 15 -2 2 -10 -10 -7 11 -10 68 -10 l82 0 0 160 0 160 -100
0 c-55 0 -100 -4 -100 -8z"/>
<path fill="#000000" stroke="none" d="M172 278 c6 -18 28 -21 28 -4 0 9 -7
16 -16 16 -9 0 -14 -5 -12 -12z"/>
<path fill="#000000" stroke="none" d="M226 145 c-16 -12 -17 -15 -4 -15 8 0
21 7 28 15 16 19 1 19 -24 0z"/>
<path fill="#000000" stroke="none" d="M30 121 c0 -5 5 -13 10 -16 6 -3 10 -2
10 4 0 5 -4 13 -10 16 -5 3 -10 2 -10 -4z"/>
<path fill="#000000" stroke="none" d="M220 90 c-9 -6 -10 -10 -3 -10 6 0 15
5 18 10 8 12 4 12 -15 0z"/>
</g>
</svg>
