<?xml version="1.0" standalone="no"?>
<!DOCTYPE svg PUBLIC "-//W3C//DTD SVG 20010904//EN"
 "http://www.w3.org/TR/2001/REC-SVG-20010904/DTD/svg10.dtd">
<svg version="1.0" xmlns="http://www.w3.org/2000/svg"
 width="32.000000pt" height="32.000000pt" viewBox="0 0 32.000000 32.000000"
 preserveAspectRatio="xMidYMid meet">
<metadata>
Created by potrace 1.16, written by Peter Selinger 2001-2019
</metadata>
<g transform="translate(0.000000,32.000000) scale(0.100000,-0.100000)"
fill="#000000" stroke="none">
<path fill="#000000" stroke="none" d="M113 287 c2 -7 14 -14 26 -15 28 -4 20
13 -9 21 -14 3 -20 1 -17 -6z"/>
<path fill="#000000" stroke="none" d="M190 296 c0 -2 7 -7 16 -10 8 -3 12 -2
9 4 -6 10 -25 14 -25 6z"/>
<path fill="#000000" stroke="none" d="M54 245 c-7 -17 4 -37 17 -30 5 4 9 4
9 1 0 -2 3 -12 6 -21 6 -14 2 -15 -30 -10 -29 6 -36 4 -36 -8 0 -9 6 -20 14
-24 7 -4 18 -18 25 -30 6 -13 17 -22 24 -20 7 1 11 -6 11 -15 -1 -13 6 -18 23
-18 13 0 32 -4 41 -8 9 -5 28 -6 42 -1 25 7 25 7 2 8 -13 1 -20 6 -17 11 3 6
-1 10 -9 10 -9 0 -16 5 -16 10 0 6 7 10 15 10 8 0 15 6 15 13 0 8 11 20 25 27
21 11 23 15 10 22 -8 5 -15 14 -15 19 0 6 4 7 10 4 5 -3 7 0 4 9 -3 8 -14 13
-25 11 -13 -3 -21 3 -25 21 -7 27 -19 31 -28 8 -4 -11 -13 -13 -28 -8 -13 3
-24 11 -26 15 -6 14 -32 10 -38 -6z"/>
<path fill="#000000" stroke="none" d="M275 190 c-3 -5 -1 -10 4 -10 6 0 11 5
11 10 0 6 -2 10 -4 10 -3 0 -8 -4 -11 -10z"/>
<path fill="#000000" stroke="none" d="M210 110 c-12 -8 -11 -10 8 -10 12 0
22 5 22 10 0 13 -11 13 -30 0z"/>
</g>
</svg>
