<?xml version="1.0" standalone="no"?>
<!DOCTYPE svg PUBLIC "-//W3C//DTD SVG 20010904//EN"
 "http://www.w3.org/TR/2001/REC-SVG-20010904/DTD/svg10.dtd">
<svg version="1.0" xmlns="http://www.w3.org/2000/svg"
 width="32.000000pt" height="32.000000pt" viewBox="0 0 32.000000 32.000000"
 preserveAspectRatio="xMidYMid meet">
<metadata>
Created by potrace 1.16, written by Peter Selinger 2001-2019
</metadata>
<g transform="translate(0.000000,32.000000) scale(0.100000,-0.100000)"
fill="#000000" stroke="none">
<path fill="#000000" stroke="none" d="M75 230 c-4 -6 3 -10 14 -10 31 0 28
-38 -3 -46 -14 -3 -30 -3 -35 1 -6 3 -11 4 -11 1 0 -2 17 -15 38 -27 20 -13
47 -33 59 -46 26 -27 42 -29 69 -8 18 14 17 14 -10 5 -21 -8 -32 -7 -43 1 -12
11 -11 15 9 33 13 12 29 32 37 46 9 17 9 21 1 13 -16 -15 -40 -6 -40 16 0 14
-2 14 -10 1 -9 -13 -12 -13 -23 1 -16 20 -45 31 -52 19z"/>
</g>
</svg>
