<?xml version="1.0" standalone="no"?>
<!DOCTYPE svg PUBLIC "-//W3C//DTD SVG 20010904//EN"
 "http://www.w3.org/TR/2001/REC-SVG-20010904/DTD/svg10.dtd">
<svg version="1.0" xmlns="http://www.w3.org/2000/svg"
 width="32.000000pt" height="32.000000pt" viewBox="0 0 32.000000 32.000000"
 preserveAspectRatio="xMidYMid meet">
<metadata>
Created by potrace 1.16, written by Peter Selinger 2001-2019
</metadata>
<g transform="translate(0.000000,32.000000) scale(0.100000,-0.100000)"
fill="#000000" stroke="none">
<path fill="#000000" stroke="none" d="M140 240 c0 -5 -9 -10 -19 -10 -25 0
-38 -20 -20 -31 7 -4 10 -12 5 -16 -7 -8 -11 -9 -37 -12 -18 -2 10 -31 60 -61
45 -28 71 -29 93 -2 12 13 11 14 -8 2 -12 -7 -29 -10 -39 -6 -17 6 -16 8 5 31
23 25 39 72 21 61 -12 -8 -41 21 -41 40 0 8 -4 14 -10 14 -5 0 -10 -4 -10 -10z"/>
<path fill="#ffffff" stroke="none" d="M150 215 c0 -9 -6 -12 -16 -8 -13 5
-13 7 -2 14 17 11 18 11 18 -6z"/>
</g>
</svg>
