<?xml version="1.0" standalone="no"?>
<!DOCTYPE svg PUBLIC "-//W3C//DTD SVG 20010904//EN"
 "http://www.w3.org/TR/2001/REC-SVG-20010904/DTD/svg10.dtd">
<svg version="1.0" xmlns="http://www.w3.org/2000/svg"
 width="32.000000pt" height="32.000000pt" viewBox="0 0 32.000000 32.000000"
 preserveAspectRatio="xMidYMid meet">
<metadata>
Created by potrace 1.16, written by Peter Selinger 2001-2019
</metadata>
<g transform="translate(0.000000,32.000000) scale(0.100000,-0.100000)"
fill="#000000" stroke="none">
<path fill="#000000" stroke="none" d="M134 298 c-3 -5 -10 -6 -15 -2 -6 3
-17 -3 -25 -15 -8 -12 -21 -21 -28 -21 -31 0 -29 -55 2 -64 10 -2 0 -2 -20 1
-49 7 -50 -12 -7 -62 31 -34 34 -56 7 -39 -7 5 -19 9 -26 10 -10 2 -10 -1 -1
-12 26 -31 188 -49 213 -24 8 8 6 9 -5 5 -10 -4 -20 -2 -23 4 -7 11 29 25 43
16 6 -3 15 4 21 16 8 15 9 19 1 15 -17 -11 -13 6 9 34 11 14 20 36 20 49 l0
24 -21 -27 c-31 -40 -44 -33 -47 27 -2 34 -8 56 -19 65 -18 13 -71 13 -79 0z"/>
<path fill="#ffffff" stroke="none" d="M203 282 c10 -10 14 -22 10 -26 -5 -4
-8 -13 -8 -18 0 -6 -6 -13 -12 -15 -8 -3 -13 4 -13 16 0 11 -4 23 -10 26 -15
9 -12 35 3 35 8 0 21 -8 30 -18z"/>
<path fill="#ffffff" stroke="none" d="M136 257 c8 3 14 0 14 -6 0 -18 -37
-13 -45 7 -5 13 -3 14 6 5 6 -6 18 -9 25 -6z"/>
<path fill="#ffffff" stroke="none" d="M260 163 c0 -15 -35 -43 -54 -43 -19 0
-18 3 9 25 30 25 45 31 45 18z"/>
</g>
</svg>
