<?xml version="1.0" standalone="no"?>
<!DOCTYPE svg PUBLIC "-//W3C//DTD SVG 20010904//EN"
 "http://www.w3.org/TR/2001/REC-SVG-20010904/DTD/svg10.dtd">
<svg version="1.0" xmlns="http://www.w3.org/2000/svg"
 width="32.000000pt" height="32.000000pt" viewBox="0 0 32.000000 32.000000"
 preserveAspectRatio="xMidYMid meet">
<metadata>
Created by potrace 1.16, written by Peter Selinger 2001-2019
</metadata>
<g transform="translate(0.000000,32.000000) scale(0.100000,-0.100000)"
fill="#000000" stroke="none">
<path fill="#000000" stroke="none" d="M140 245 c-19 -7 -53 -14 -75 -15 -22
-1 -33 -4 -25 -7 8 -2 24 -8 35 -13 11 -4 28 -11 38 -14 30 -10 18 -26 -20
-27 l-38 -1 47 -12 c86 -20 82 -44 -9 -65 l-38 -9 45 -1 c26 -1 55 6 67 14 12
9 48 19 80 23 l58 7 -72 14 c-71 14 -89 30 -35 32 26 0 25 1 -8 14 l-35 13 28
11 c16 6 49 11 75 12 l47 1 -30 13 c-49 21 -97 25 -135 10z"/>
<path fill="#000000" stroke="none" d="M235 190 c11 -5 34 -9 50 -9 23 -1 26
2 15 9 -8 5 -31 9 -50 9 -29 0 -31 -2 -15 -9z"/>
<path fill="#000000" stroke="none" d="M15 120 c7 -12 52 -12 80 0 15 6 6 9
-33 9 -33 1 -51 -3 -47 -9z"/>
<path fill="#000000" stroke="none" d="M200 80 c-11 -7 1 -10 40 -10 39 0 51
3 40 10 -8 5 -26 10 -40 10 -14 0 -32 -5 -40 -10z"/>
</g>
</svg>
