<?xml version="1.0" standalone="no"?>
<!DOCTYPE svg PUBLIC "-//W3C//DTD SVG 20010904//EN"
 "http://www.w3.org/TR/2001/REC-SVG-20010904/DTD/svg10.dtd">
<svg version="1.0" xmlns="http://www.w3.org/2000/svg"
 width="32.000000pt" height="32.000000pt" viewBox="0 0 32.000000 32.000000"
 preserveAspectRatio="xMidYMid meet">
<metadata>
Created by potrace 1.16, written by Peter Selinger 2001-2019
</metadata>
<g transform="translate(0.000000,32.000000) scale(0.100000,-0.100000)"
fill="#000000" stroke="none">
<path fill="#000000" stroke="none" d="M110 306 c-6 -8 -10 -25 -8 -38 2 -15
-2 -22 -11 -20 -21 4 -53 -29 -41 -43 6 -7 5 -24 -2 -48 -16 -52 0 -123 27
-119 15 3 17 1 7 -11 -19 -22 -4 -27 85 -27 l83 0 15 36 c19 46 19 144 1 188
-9 21 -23 36 -39 40 -13 3 -32 17 -41 31 -18 28 -57 33 -76 11z"/>
<path fill="#ffffff" stroke="none" d="M105 89 c-26 -33 -31 -29 -12 9 8 17
13 43 11 59 -4 25 -3 24 9 -7 12 -32 11 -38 -8 -61z"/>
<path fill="#ffffff" stroke="none" d="M230 119 c0 -26 -2 -30 -15 -19 -11 9
-12 16 -2 31 16 25 17 24 17 -12z"/>
<path fill="#ffffff" stroke="none" d="M170 66 c0 -2 -7 -7 -16 -10 -8 -3 -12
-2 -9 4 6 10 25 14 25 6z"/>
</g>
</svg>
