<?xml version="1.0" standalone="no"?>
<!DOCTYPE svg PUBLIC "-//W3C//DTD SVG 20010904//EN"
 "http://www.w3.org/TR/2001/REC-SVG-20010904/DTD/svg10.dtd">
<svg version="1.0" xmlns="http://www.w3.org/2000/svg"
 width="32.000000pt" height="32.000000pt" viewBox="0 0 32.000000 32.000000"
 preserveAspectRatio="xMidYMid meet">
<metadata>
Created by potrace 1.16, written by Peter Selinger 2001-2019
</metadata>
<g transform="translate(0.000000,32.000000) scale(0.100000,-0.100000)"
fill="#000000" stroke="none">
<path fill="#000000" stroke="none" d="M83 296 c-4 -7 -18 -18 -30 -25 -14 -7
-22 -20 -21 -34 1 -12 -6 -44 -15 -70 -21 -60 -22 -101 -1 -121 19 -20 38 -21
31 -2 -3 8 -1 17 6 19 9 3 9 7 0 18 -9 11 -7 23 6 53 21 45 35 35 21 -15 -13
-43 -13 -86 -1 -94 6 -3 7 9 4 31 -5 29 -3 36 8 32 8 -3 16 -20 19 -39 3 -22
8 -30 13 -21 14 20 45 14 50 -10 2 -13 5 -5 6 18 1 33 5 43 22 47 20 5 21 3
15 -40 -6 -44 -5 -45 12 -30 23 21 33 22 26 2 -11 -27 24 -16 46 15 21 30 21
31 4 107 -9 43 -17 89 -18 102 -1 18 -9 27 -31 34 -16 6 -35 17 -41 25 -11 16
-70 9 -60 -7 3 -4 -1 -8 -9 -8 -8 0 -12 4 -10 8 5 7 -18 19 -35 19 -5 0 -13
-6 -17 -14z"/>
<path fill="#ffffff" stroke="none" d="M107 260 c-10 -35 -9 -42 11 -63 24
-26 29 -42 10 -31 -10 6 -10 4 0 -7 18 -19 15 -32 -8 -26 -18 5 -18 4 -3 -20
16 -24 16 -25 -3 -21 -14 2 -19 12 -19 33 0 17 -13 49 -28 72 -31 49 -33 59
-12 67 11 4 15 -1 15 -19 0 -13 4 -26 9 -29 5 -4 7 3 4 14 -7 28 5 70 21 70
11 0 11 -8 3 -40z"/>
<path fill="#ffffff" stroke="none" d="M216 273 c9 -44 12 -50 13 -25 1 19 5
22 24 16 32 -9 33 -12 17 -38 -30 -47 -80 -96 -99 -96 -32 0 -32 28 -1 64 33
37 38 67 14 90 -14 15 -14 16 5 16 14 0 22 -8 27 -27z"/>
<path fill="#ffffff" stroke="none" d="M165 235 c0 -25 -4 -30 -25 -30 -16 0
-26 6 -28 18 -6 30 6 49 30 45 18 -2 23 -9 23 -33z"/>
<path fill="#ffffff" stroke="none" d="M60 191 c11 -21 10 -23 -5 -17 -14 5
-16 4 -6 -7 8 -11 8 -21 -3 -43 -11 -20 -12 -31 -4 -41 8 -9 7 -13 -2 -13 -7
0 -10 -7 -6 -16 5 -14 4 -15 -9 -4 -8 7 -15 25 -15 40 0 25 30 134 35 128 1
-2 8 -14 15 -27z"/>
<path fill="#ffffff" stroke="none" d="M299 99 c1 -34 -18 -89 -32 -89 -6 0
-7 3 -4 7 4 3 3 11 -3 18 -5 6 -7 21 -3 33 4 18 8 20 19 11 10 -8 9 -3 -2 20
-13 25 -13 35 -3 47 6 8 9 17 5 21 -3 3 -6 1 -6 -5 0 -7 -4 -12 -10 -12 -14 0
-13 26 3 51 11 18 13 16 24 -28 6 -26 12 -60 12 -74z"/>
<path fill="#ffffff" stroke="none" d="M260 104 c0 -7 -6 -14 -14 -17 -10 -4
-15 5 -19 31 -2 20 -2 41 1 47 6 9 31 -39 32 -61z"/>
<path fill="#ffffff" stroke="none" d="M217 106 c-3 -7 -18 -16 -34 -19 -15
-3 -37 -9 -47 -13 -14 -5 -17 -4 -12 4 4 7 15 12 24 12 9 0 28 12 42 26 23 25
38 19 27 -10z"/>
<path fill="#ffffff" stroke="none" d="M170 109 c0 -5 -9 -9 -20 -9 -19 0 -26
11 -14 23 8 8 34 -3 34 -14z"/>
<path fill="#000000" stroke="none" d="M126 231 c-4 -5 -2 -12 3 -15 5 -4 12
-2 15 3 4 5 2 12 -3 15 -5 4 -12 2 -15 -3z"/>
</g>
</svg>
