<?xml version="1.0" standalone="no"?>
<!DOCTYPE svg PUBLIC "-//W3C//DTD SVG 20010904//EN"
 "http://www.w3.org/TR/2001/REC-SVG-20010904/DTD/svg10.dtd">
<svg version="1.0" xmlns="http://www.w3.org/2000/svg"
 width="32.000000pt" height="32.000000pt" viewBox="0 0 32.000000 32.000000"
 preserveAspectRatio="xMidYMid meet">
<metadata>
Created by potrace 1.16, written by Peter Selinger 2001-2019
</metadata>
<g transform="translate(0.000000,32.000000) scale(0.100000,-0.100000)"
fill="#000000" stroke="none">
<path fill="#000000" stroke="none" d="M83 296 c-4 -7 -18 -18 -31 -25 -19
-10 -22 -18 -18 -56 2 -25 0 -48 -5 -51 -5 -3 -6 3 -3 13 5 17 5 17 -6 1 -6
-10 -13 -40 -17 -66 -4 -37 -2 -52 12 -65 20 -21 39 -22 31 -2 -3 8 -1 15 4
15 5 0 7 12 4 28 -3 15 1 40 10 56 10 20 12 35 5 47 -15 29 -11 43 8 28 13
-11 15 -11 9 -1 -10 17 2 82 15 82 6 0 6 -7 -1 -19 -16 -30 -12 -56 12 -87 12
-16 15 -23 6 -16 -17 14 -30 4 -34 -28 -17 -121 -17 -119 1 -126 10 -4 26 -2
36 4 29 19 49 14 50 -10 0 -13 3 -17 6 -11 3 9 10 10 23 3 13 -7 21 -5 30 5
16 19 31 19 24 0 -11 -27 24 -16 46 15 21 30 21 31 4 107 -9 43 -17 89 -18
102 -1 18 -9 27 -31 34 -16 6 -35 17 -42 26 -9 13 -17 14 -41 5 -17 -7 -36 -8
-43 -3 -20 13 -37 11 -46 -5z"/>
<path fill="#ffffff" stroke="none" d="M210 279 c16 -29 6 -60 -32 -94 l-32
-30 27 33 c28 35 35 80 15 100 -9 9 -9 12 0 12 6 0 16 -9 22 -21z"/>
<path fill="#ffffff" stroke="none" d="M67 245 c-4 -8 -11 -15 -17 -15 -14 0
-13 27 3 33 16 6 21 1 14 -18z"/>
<path fill="#ffffff" stroke="none" d="M152 258 c-8 -8 -8 -15 -2 -23 7 -9 5
-17 -7 -26 -16 -13 -17 -12 -5 3 10 12 10 18 1 23 -6 4 -15 1 -20 -6 -7 -12
-9 -11 -9 2 0 19 19 39 39 39 11 0 12 -3 3 -12z"/>
<path fill="#ffffff" stroke="none" d="M264 261 c17 -6 17 -8 3 -14 -8 -3 -21
1 -27 9 -13 15 -6 17 24 5z"/>
<path fill="#ffffff" stroke="none" d="M265 170 c3 -5 1 -10 -4 -10 -6 0 -11
5 -11 10 0 6 2 10 4 10 3 0 8 -4 11 -10z"/>
<path fill="#ffffff" stroke="none" d="M260 104 c0 -7 -6 -14 -14 -17 -10 -4
-15 5 -19 31 -2 20 -2 41 1 47 6 9 31 -39 32 -61z"/>
<path fill="#ffffff" stroke="none" d="M290 156 c0 -2 -8 -10 -17 -17 -16 -13
-17 -12 -4 4 13 16 21 21 21 13z"/>
<path fill="#ffffff" stroke="none" d="M35 141 c3 -5 1 -12 -5 -16 -5 -3 -10
1 -10 9 0 18 6 21 15 7z"/>
<path fill="#ffffff" stroke="none" d="M115 109 c11 -17 -1 -21 -15 -4 -8 9
-8 15 -2 15 6 0 14 -5 17 -11z"/>
<path fill="#ffffff" stroke="none" d="M205 110 c-3 -5 -12 -10 -18 -10 -7 0
-6 4 3 10 19 12 23 12 15 0z"/>
<path fill="#ffffff" stroke="none" d="M287 101 c0 -11 -5 -18 -9 -15 -4 3 -5
11 -1 19 7 21 12 19 10 -4z"/>
<path fill="#ffffff" stroke="none" d="M35 82 c-3 -3 -11 0 -18 7 -9 10 -8 11
6 5 10 -3 15 -9 12 -12z"/>
<path fill="#ffffff" stroke="none" d="M155 80 c-28 -12 -37 -12 -30 0 3 6 16
10 28 9 21 0 21 -1 2 -9z"/>
<path fill="#ffffff" stroke="none" d="M215 51 c0 -23 -22 -24 -28 -1 -4 16
-1 20 11 18 9 -2 17 -10 17 -17z"/>
<path fill="#ffffff" stroke="none" d="M280 44 c0 -12 -2 -12 -14 -2 -8 7 -12
16 -9 21 7 11 23 -2 23 -19z"/>
<path fill="#ffffff" stroke="none" d="M104 48 c-7 -10 -24 -10 -24 0 0 5 7 9
15 9 8 0 12 -4 9 -9z"/>
</g>
</svg>
