<?xml version="1.0" standalone="no"?>
<!DOCTYPE svg PUBLIC "-//W3C//DTD SVG 20010904//EN"
 "http://www.w3.org/TR/2001/REC-SVG-20010904/DTD/svg10.dtd">
<svg version="1.0" xmlns="http://www.w3.org/2000/svg"
 width="32.000000pt" height="32.000000pt" viewBox="0 0 32.000000 32.000000"
 preserveAspectRatio="xMidYMid meet">
<metadata>
Created by potrace 1.16, written by Peter Selinger 2001-2019
</metadata>
<g transform="translate(0.000000,32.000000) scale(0.100000,-0.100000)"
fill="#000000" stroke="none">
<path fill="#000000" stroke="none" d="M0 160 l0 -160 42 0 c23 0 38 3 35 7
-4 3 -1 13 5 20 10 12 8 14 -7 11 -27 -4 -43 67 -27 119 7 24 8 41 2 48 -12
14 20 47 41 43 9 -2 13 5 11 20 -2 13 2 30 8 38 11 12 3 14 -49 14 l-61 0 0
-160z"/>
<path fill="#000000" stroke="none" d="M186 295 c9 -14 28 -28 41 -31 16 -4
30 -19 39 -40 18 -44 18 -142 -1 -188 l-15 -36 35 0 35 0 0 160 0 160 -75 0
-75 0 16 -25z"/>
<path fill="#000000" stroke="none" d="M104 157 c2 -16 -3 -42 -11 -59 -19
-38 -14 -42 12 -9 19 23 20 29 8 61 -12 31 -13 32 -9 7z"/>
<path fill="#000000" stroke="none" d="M213 131 c-10 -15 -9 -22 2 -31 13 -11
15 -7 15 19 0 36 -1 37 -17 12z"/>
<path fill="#000000" stroke="none" d="M145 60 c-3 -6 1 -7 9 -4 18 7 21 14 7
14 -6 0 -13 -4 -16 -10z"/>
</g>
</svg>
