<?xml version="1.0" standalone="no"?>
<!DOCTYPE svg PUBLIC "-//W3C//DTD SVG 20010904//EN"
 "http://www.w3.org/TR/2001/REC-SVG-20010904/DTD/svg10.dtd">
<svg version="1.0" xmlns="http://www.w3.org/2000/svg"
 width="32.000000pt" height="32.000000pt" viewBox="0 0 32.000000 32.000000"
 preserveAspectRatio="xMidYMid meet">
<metadata>
Created by potrace 1.16, written by Peter Selinger 2001-2019
</metadata>
<g transform="translate(0.000000,32.000000) scale(0.100000,-0.100000)"
fill="#000000" stroke="none">
<path fill="#000000" stroke="none" d="M112 308 c-15 -15 -16 -45 -2 -53 6 -4
4 -16 -6 -31 -13 -19 -20 -22 -30 -13 -17 14 -8 33 12 25 7 -3 16 -2 18 3 9
14 -29 9 -46 -7 -16 -13 -16 -17 -3 -35 8 -12 15 -26 15 -32 0 -5 -4 -4 -9 4
-14 23 -25 -51 -14 -96 7 -29 13 -37 28 -35 15 3 17 1 7 -11 -19 -22 -4 -27
85 -27 l83 0 15 36 c19 46 19 144 1 188 -9 21 -23 36 -39 40 -13 3 -32 17 -41
31 -18 27 -54 33 -74 13z"/>
<path fill="#ffffff" stroke="none" d="M150 303 c-8 -3 -21 -12 -27 -21 -11
-14 -13 -14 -13 -1 0 21 10 29 34 28 14 0 16 -2 6 -6z"/>
<path fill="#ffffff" stroke="none" d="M137 268 c-3 -8 -6 -5 -6 6 -1 11 2 17
5 13 3 -3 4 -12 1 -19z"/>
<path fill="#ffffff" stroke="none" d="M165 194 c-8 -6 -12 -14 -8 -17 3 -4 3
-7 -1 -7 -3 0 -10 10 -15 23 -6 16 -4 24 8 28 22 8 34 -13 16 -27z"/>
<path fill="#ffffff" stroke="none" d="M210 210 c0 -5 -2 -10 -4 -10 -3 0 -8
5 -11 10 -3 6 -1 10 4 10 6 0 11 -4 11 -10z"/>
<path fill="#ffffff" stroke="none" d="M246 188 c4 -7 3 -8 -4 -4 -7 4 -12 2
-12 -5 0 -7 -3 -10 -6 -6 -6 5 3 27 11 27 2 0 7 -5 11 -12z"/>
<path fill="#ffffff" stroke="none" d="M105 89 c-26 -33 -31 -29 -12 9 8 17
13 43 11 59 -4 25 -3 24 9 -7 12 -32 11 -38 -8 -61z"/>
<path fill="#ffffff" stroke="none" d="M230 119 c0 -26 -2 -30 -15 -19 -11 9
-12 16 -2 31 16 25 17 24 17 -12z"/>
<path fill="#ffffff" stroke="none" d="M170 66 c0 -2 -7 -7 -16 -10 -8 -3 -12
-2 -9 4 6 10 25 14 25 6z"/>
</g>
</svg>
