<?xml version="1.0" standalone="no"?>
<!DOCTYPE svg PUBLIC "-//W3C//DTD SVG 20010904//EN"
 "http://www.w3.org/TR/2001/REC-SVG-20010904/DTD/svg10.dtd">
<svg version="1.0" xmlns="http://www.w3.org/2000/svg"
 width="32.000000pt" height="32.000000pt" viewBox="0 0 32.000000 32.000000"
 preserveAspectRatio="xMidYMid meet">
<metadata>
Created by potrace 1.16, written by Peter Selinger 2001-2019
</metadata>
<g transform="translate(0.000000,32.000000) scale(0.100000,-0.100000)"
fill="#000000" stroke="none">
<path fill="#000000" stroke="none" d="M170 248 c-14 -6 -36 -15 -50 -21 -14
-6 -28 -10 -31 -9 -4 1 -6 -24 -6 -54 -1 -30 2 -52 5 -50 3 3 10 2 16 -3 6 -5
30 -16 54 -24 32 -11 40 -12 32 -2 -13 16 8 26 38 18 11 -2 23 0 26 6 4 6 1 9
-7 5 -19 -7 -30 12 -30 51 0 39 11 58 30 51 8 -4 11 -1 7 5 -3 6 -15 8 -26 6
-31 -8 -51 2 -37 19 13 16 12 16 -21 2z"/>
<path fill="#ffffff" stroke="none" d="M188 208 c16 -16 16 -70 0 -86 -16 -16
-70 -16 -86 0 -7 7 -12 26 -12 43 0 39 16 55 55 55 17 0 36 -5 43 -12z"/>
<path fill="#000000" stroke="none" d="M114 186 c-12 -31 0 -51 31 -51 27 0
30 3 30 30 0 25 -4 30 -28 33 -17 2 -29 -2 -33 -12z"/>
<path fill="#ffffff" stroke="none" d="M170 165 c0 -20 -5 -25 -25 -25 -20 0
-25 5 -25 25 0 20 5 25 25 25 20 0 25 -5 25 -25z"/>
</g>
</svg>
