<?xml version="1.0" standalone="no"?>
<!DOCTYPE svg PUBLIC "-//W3C//DTD SVG 20010904//EN"
 "http://www.w3.org/TR/2001/REC-SVG-20010904/DTD/svg10.dtd">
<svg version="1.0" xmlns="http://www.w3.org/2000/svg"
 width="32.000000pt" height="32.000000pt" viewBox="0 0 32.000000 32.000000"
 preserveAspectRatio="xMidYMid meet">
<metadata>
Created by potrace 1.16, written by Peter Selinger 2001-2019
</metadata>
<g transform="translate(0.000000,32.000000) scale(0.100000,-0.100000)"
fill="#000000" stroke="none">
<path fill="#000000" stroke="none" d="M0 160 l0 -160 160 0 160 0 0 160 0
160 -160 0 -160 0 0 -160z"/>
<path fill="#ffffff" stroke="none" d="M145 300 c4 -7 13 -6 26 1 15 7 24 7
35 -2 21 -17 17 -31 -6 -24 -12 4 -27 1 -35 -5 -8 -7 -21 -10 -29 -7 -8 3 -29
-10 -50 -30 -36 -36 -61 -39 -72 -8 -9 23 31 62 75 73 49 13 49 13 56 2z"/>
<path fill="#ffffff" stroke="none" d="M208 238 c7 -7 12 -20 12 -31 0 -11 4
-15 11 -11 12 7 29 -12 29 -34 0 -18 -80 -92 -100 -92 -9 0 -28 8 -41 18 -13
9 -33 22 -44 28 -43 24 -20 72 50 103 17 7 37 17 45 22 21 11 24 11 38 -3z"/>
<path fill="#ffffff" stroke="none" d="M304 98 c8 -13 5 -22 -13 -42 -25 -27
-100 -51 -115 -36 -5 5 -17 5 -28 -1 -14 -7 -23 -7 -34 2 -21 17 -17 31 6 24
12 -4 27 -1 35 5 8 7 21 10 29 7 8 -3 28 9 48 29 35 36 54 40 72 12z"/>
<path fill="#000000" stroke="none" d="M70 280 c-9 -6 -10 -10 -3 -10 6 0 15
5 18 10 8 12 4 12 -15 0z"/>
<path fill="#000000" stroke="none" d="M32 239 c2 -6 8 -10 13 -10 5 0 11 4
13 10 2 6 -4 11 -13 11 -9 0 -15 -5 -13 -11z"/>
<path fill="#000000" stroke="none" d="M116 185 c-23 -34 -20 -71 6 -89 30
-21 43 -20 78 6 30 22 38 42 21 52 -5 4 -7 -3 -4 -14 3 -11 1 -20 -5 -20 -5 0
-9 15 -7 33 3 41 -10 57 -45 57 -18 0 -33 -8 -44 -25z"/>
<path fill="#ffffff" stroke="none" d="M144 134 c4 -10 1 -14 -6 -12 -15 5
-23 28 -10 28 5 0 13 -7 16 -16z"/>
<path fill="#ffffff" stroke="none" d="M188 108 c-6 -18 -38 -22 -52 -8 -8 9
-6 11 12 5 13 -4 22 -2 22 4 0 6 5 11 11 11 6 0 9 -6 7 -12z"/>
<path fill="#000000" stroke="none" d="M266 93 c-11 -11 -6 -23 9 -23 8 0 15
4 15 9 0 13 -16 22 -24 14z"/>
<path fill="#000000" stroke="none" d="M235 40 c-3 -6 1 -7 9 -4 18 7 21 14 7
14 -6 0 -13 -4 -16 -10z"/>
</g>
</svg>
