<?xml version="1.0" standalone="no"?>
<!DOCTYPE svg PUBLIC "-//W3C//DTD SVG 20010904//EN"
 "http://www.w3.org/TR/2001/REC-SVG-20010904/DTD/svg10.dtd">
<svg version="1.0" xmlns="http://www.w3.org/2000/svg"
 width="32.000000pt" height="32.000000pt" viewBox="0 0 32.000000 32.000000"
 preserveAspectRatio="xMidYMid meet">
<metadata>
Created by potrace 1.16, written by Peter Selinger 2001-2019
</metadata>
<g transform="translate(0.000000,32.000000) scale(0.100000,-0.100000)"
fill="#000000" stroke="none">
<path fill="#000000" stroke="none" d="M0 160 l0 -160 160 0 160 0 0 160 0
160 -160 0 -160 0 0 -160z"/>
<path fill="#ffffff" stroke="none" d="M145 300 c4 -7 13 -6 26 1 15 7 24 7
35 -2 21 -17 17 -31 -6 -24 -12 4 -27 1 -35 -5 -8 -7 -21 -10 -29 -7 -8 3 -29
-10 -50 -30 -36 -36 -61 -39 -72 -8 -9 23 31 62 75 73 49 13 49 13 56 2z"/>
<path fill="#ffffff" stroke="none" d="M208 238 c7 -7 12 -20 12 -31 0 -11 4
-15 11 -11 12 7 29 -12 29 -34 0 -18 -80 -92 -100 -92 -9 0 -28 8 -41 18 -13
9 -33 22 -44 28 -43 24 -20 72 50 103 17 7 37 17 45 22 21 11 24 11 38 -3z"/>
<path fill="#ffffff" stroke="none" d="M304 98 c8 -13 5 -22 -13 -42 -25 -27
-100 -51 -115 -36 -5 5 -17 5 -28 -1 -14 -7 -23 -7 -34 2 -21 17 -17 31 6 24
12 -4 27 -1 35 5 8 7 21 10 29 7 8 -3 28 9 48 29 35 36 54 40 72 12z"/>
<path fill="#000000" stroke="none" d="M90 288 c-40 -11 -70 -35 -70 -55 0
-29 30 -24 65 10 23 22 42 33 54 30 10 -3 22 1 26 8 5 7 4 10 -3 5 -6 -3 -13
-2 -17 4 -7 12 -8 12 -55 -2z"/>
<path fill="#000000" stroke="none" d="M170 230 c-8 -5 -30 -15 -48 -22 -29
-12 -32 -16 -26 -43 6 -30 6 -30 -15 -11 -21 19 -21 19 -21 -3 0 -12 8 -25 18
-28 9 -4 28 -15 41 -25 13 -10 30 -18 38 -18 19 0 73 41 73 56 0 7 5 14 12 16
7 3 9 12 4 23 -6 16 -9 17 -16 5 -6 -10 -11 -5 -17 20 -10 36 -20 44 -43 30z"/>
<path fill="#000000" stroke="none" d="M232 75 c-21 -21 -39 -31 -51 -28 -10
3 -22 -1 -26 -9 -5 -7 -5 -10 0 -6 4 4 13 4 19 -2 16 -13 91 8 112 31 18 20
13 49 -8 48 -7 0 -28 -15 -46 -34z"/>
</g>
</svg>
