<?xml version="1.0" standalone="no"?>
<!DOCTYPE svg PUBLIC "-//W3C//DTD SVG 20010904//EN"
 "http://www.w3.org/TR/2001/REC-SVG-20010904/DTD/svg10.dtd">
<svg version="1.0" xmlns="http://www.w3.org/2000/svg"
 width="32.000000pt" height="32.000000pt" viewBox="0 0 32.000000 32.000000"
 preserveAspectRatio="xMidYMid meet">
<metadata>
Created by potrace 1.16, written by Peter Selinger 2001-2019
</metadata>
<g transform="translate(0.000000,32.000000) scale(0.100000,-0.100000)"
fill="#000000" stroke="none">
<path fill="#000000" stroke="none" d="M174 272 c3 -5 -5 -8 -17 -7 -20 1 -87
-31 -87 -42 0 -2 5 -1 12 3 6 4 4 -3 -5 -15 -8 -13 -13 -30 -10 -39 4 -9 2
-13 -4 -9 -15 9 -21 -13 -12 -43 4 -14 7 -19 8 -12 1 7 6 10 12 7 6 -4 8 -13
5 -20 -2 -7 5 -21 16 -32 21 -18 21 -18 8 7 l-13 25 29 -26 c16 -14 36 -25 44
-24 8 1 25 3 38 3 12 1 22 9 22 17 0 9 6 12 17 8 11 -4 14 -3 9 5 -4 7 -1 15
8 18 9 4 13 14 10 31 -3 13 -1 22 3 20 4 -3 9 6 10 20 1 19 -1 22 -8 12 -7
-11 -9 -10 -9 4 0 23 -30 68 -41 62 -4 -3 -13 4 -19 15 -6 11 -15 20 -21 20
-6 0 -8 -4 -5 -8z"/>
</g>
</svg>
