<?xml version="1.0" standalone="no"?>
<!DOCTYPE svg PUBLIC "-//W3C//DTD SVG 20010904//EN"
 "http://www.w3.org/TR/2001/REC-SVG-20010904/DTD/svg10.dtd">
<svg version="1.0" xmlns="http://www.w3.org/2000/svg"
 width="32.000000pt" height="32.000000pt" viewBox="0 0 32.000000 32.000000"
 preserveAspectRatio="xMidYMid meet">
<metadata>
Created by potrace 1.16, written by Peter Selinger 2001-2019
</metadata>
<g transform="translate(0.000000,32.000000) scale(0.100000,-0.100000)"
fill="#000000" stroke="none">
<path fill="#000000" stroke="none" d="M0 160 l0 -160 160 0 160 0 0 160 0
160 -160 0 -160 0 0 -160z"/>
<path fill="#ffffff" stroke="none" d="M166 205 c1 -8 -2 -12 -8 -9 -6 4 -25
7 -42 6 -22 -1 -26 2 -16 8 13 8 13 10 1 10 -8 0 -12 2 -9 5 3 3 18 1 34 -5
l28 -11 -19 22 -20 23 24 -17 c14 -9 26 -23 27 -32z"/>
<path fill="#ffffff" stroke="none" d="M220 205 c1 18 2 18 10 -3 9 -22 4 -51
-9 -53 -3 0 -14 -2 -24 -4 -17 -3 -17 -1 -4 18 13 20 12 25 -11 57 l-24 35 30
-35 c27 -30 32 -32 32 -15z"/>
<path fill="#ffffff" stroke="none" d="M115 181 c-3 -5 -1 -12 4 -15 9 -6 8
-52 -2 -62 -3 -3 -8 8 -12 25 -4 17 -11 33 -16 36 -16 11 -10 25 12 25 11 0
18 -4 14 -9z"/>
<path fill="#ffffff" stroke="none" d="M99 117 c0 -9 -2 -8 -6 1 -2 6 -10 9
-15 6 -7 -4 -8 -2 -4 5 9 13 26 5 25 -12z"/>
<path fill="#ffffff" stroke="none" d="M190 114 c-6 -6 -6 -15 -2 -20 4 -4 -1
-2 -10 5 -24 18 -23 30 1 28 14 -1 17 -5 11 -13z"/>
<path fill="#ffffff" stroke="none" d="M230 121 c0 -5 -7 -11 -14 -14 -10 -4
-13 -1 -9 9 6 15 23 19 23 5z"/>
<path fill="#ffffff" stroke="none" d="M160 100 c8 -16 8 -20 -2 -18 -23 5
-39 38 -18 38 5 0 14 -9 20 -20z"/>
<path fill="#000000" stroke="none" d="M211 167 c-13 -21 -12 -21 5 -5 10 10
16 20 13 22 -3 3 -11 -5 -18 -17z"/>
<path fill="#000000" stroke="none" d="M90 176 c0 -2 8 -10 18 -17 15 -13 16
-12 3 4 -13 16 -21 21 -21 13z"/>
</g>
</svg>
