<?xml version="1.0" standalone="no"?>
<!DOCTYPE svg PUBLIC "-//W3C//DTD SVG 20010904//EN"
 "http://www.w3.org/TR/2001/REC-SVG-20010904/DTD/svg10.dtd">
<svg version="1.0" xmlns="http://www.w3.org/2000/svg"
 width="32.000000pt" height="32.000000pt" viewBox="0 0 32.000000 32.000000"
 preserveAspectRatio="xMidYMid meet">
<metadata>
Created by potrace 1.16, written by Peter Selinger 2001-2019
</metadata>
<g transform="translate(0.000000,32.000000) scale(0.100000,-0.100000)"
fill="#000000" stroke="none">
<path fill="#000000" stroke="none" d="M159 246 c12 -14 12 -16 -2 -10 -9 3
-32 -2 -51 -11 -37 -18 -61 -40 -30 -28 13 5 15 3 9 -7 -4 -7 -9 -31 -11 -53
-3 -37 -2 -39 10 -21 14 18 15 18 21 -9 4 -15 10 -25 13 -22 3 3 14 -3 25 -12
19 -17 20 -17 14 -1 -3 10 -1 20 5 24 6 4 8 3 5 -3 -4 -6 0 -14 9 -17 22 -8
26 -8 19 4 -3 6 2 10 12 10 15 0 16 2 3 10 -13 8 -13 10 2 10 11 0 15 5 12 15
-4 10 0 15 12 16 12 0 14 3 6 6 -10 4 -10 8 0 21 10 12 10 14 1 8 -13 -7 -17
4 -14 33 2 7 -2 10 -7 7 -5 -3 -12 4 -15 16 -4 12 -9 19 -13 15 -4 -3 -16 -1
-28 5 -19 10 -20 10 -7 -6z"/>
<path fill="#ffffff" stroke="none" d="M185 182 c0 -6 3 -14 8 -18 13 -13 8
-22 -21 -37 -23 -11 -30 -11 -40 0 -7 7 -10 13 -6 13 3 0 1 7 -6 16 -8 8 -9
14 -4 12 5 -2 9 2 9 7 0 6 -4 9 -8 7 -5 -1 -6 2 -3 7 8 12 71 6 71 -7z"/>
</g>
</svg>
