<?xml version="1.0" standalone="no"?>
<!DOCTYPE svg PUBLIC "-//W3C//DTD SVG 20010904//EN"
 "http://www.w3.org/TR/2001/REC-SVG-20010904/DTD/svg10.dtd">
<svg version="1.0" xmlns="http://www.w3.org/2000/svg"
 width="32.000000pt" height="32.000000pt" viewBox="0 0 32.000000 32.000000"
 preserveAspectRatio="xMidYMid meet">
<metadata>
Created by potrace 1.16, written by Peter Selinger 2001-2019
</metadata>
<g transform="translate(0.000000,32.000000) scale(0.100000,-0.100000)"
fill="#000000" stroke="none">
<path fill="#000000" stroke="none" d="M172 294 c-7 -8 -11 -18 -8 -22 3 -5
-1 -9 -8 -9 -8 0 -12 6 -9 13 8 21 -15 26 -42 8 -24 -16 -27 -16 -44 0 -13 12
-21 14 -26 6 -4 -6 -5 -13 -3 -15 9 -9 78 -13 83 -4 4 5 11 9 16 9 6 0 8 -4 4
-9 -3 -5 -1 -12 5 -16 6 -4 8 -11 5 -16 -4 -5 1 -9 10 -9 9 0 14 4 10 9 -3 5
-1 12 5 16 6 4 8 11 4 16 -3 6 4 7 19 4 15 -4 28 -2 32 6 6 8 4 10 -4 5 -7 -5
-17 -1 -24 7 -10 14 -14 14 -25 1z"/>
<path fill="#000000" stroke="none" d="M272 288 c-8 -10 -4 -13 14 -14 14 -1
23 3 21 9 -5 17 -23 19 -35 5z"/>
<path fill="#000000" stroke="none" d="M90 234 c0 -8 32 -33 43 -34 4 0 7 5 7
10 0 6 -7 10 -16 10 -8 0 -12 5 -9 10 3 6 -1 10 -9 10 -9 0 -16 -3 -16 -6z"/>
<path fill="#000000" stroke="none" d="M186 224 c-3 -8 -10 -13 -15 -9 -5 3
-12 1 -16 -5 -5 -9 8 -9 69 -1 10 1 -13 31 -24 31 -4 0 -11 -7 -14 -16z"/>
<path fill="#000000" stroke="none" d="M80 184 c0 -8 -4 -13 -9 -9 -5 3 -13 0
-17 -6 -3 -6 -1 -15 6 -19 6 -4 12 -11 13 -16 2 -8 32 -9 84 -3 12 2 19 7 16
12 -5 8 -56 3 -91 -10 -15 -6 -15 -5 -3 10 7 9 10 17 5 17 -4 0 -3 5 4 12 15
15 16 28 2 28 -5 0 -10 -7 -10 -16z"/>
<path fill="#000000" stroke="none" d="M175 179 c-4 -6 -4 -13 -1 -16 8 -8 36
5 36 17 0 13 -27 13 -35 -1z"/>
<path fill="#000000" stroke="none" d="M170 100 c0 -5 5 -10 10 -10 6 0 10 5
10 10 0 6 -4 10 -10 10 -5 0 -10 -4 -10 -10z"/>
<path fill="#000000" stroke="none" d="M105 90 c-3 -5 -2 -17 3 -26 8 -14 10
-12 10 9 0 29 -3 33 -13 17z"/>
<path fill="#000000" stroke="none" d="M247 75 c3 -8 9 -12 14 -9 12 7 11 11
-5 17 -10 4 -13 1 -9 -8z"/>
<path fill="#000000" stroke="none" d="M186 67 c3 -10 9 -15 12 -12 3 3 0 11
-7 18 -10 9 -11 8 -5 -6z"/>
</g>
</svg>
