<?xml version="1.0" standalone="no"?>
<!DOCTYPE svg PUBLIC "-//W3C//DTD SVG 20010904//EN"
 "http://www.w3.org/TR/2001/REC-SVG-20010904/DTD/svg10.dtd">
<svg version="1.0" xmlns="http://www.w3.org/2000/svg"
 width="32.000000pt" height="32.000000pt" viewBox="0 0 32.000000 32.000000"
 preserveAspectRatio="xMidYMid meet">
<metadata>
Created by potrace 1.16, written by Peter Selinger 2001-2019
</metadata>
<g transform="translate(0.000000,32.000000) scale(0.100000,-0.100000)"
fill="#000000" stroke="none">
<path fill="#000000" stroke="none" d="M0 160 l0 -160 160 0 160 0 0 160 0
160 -160 0 -160 0 0 -160z"/>
<path fill="#ffffff" stroke="none" d="M102 291 c34 19 104 21 118 4 14 -17 5
-35 -18 -35 -13 0 -14 -2 -4 -9 9 -6 26 3 50 25 21 19 42 32 47 31 14 -5 18
-74 6 -122 l-9 -40 -1 46 c-1 52 -5 59 -29 52 -18 -5 -77 -113 -62 -113 4 0 8
-19 8 -42 0 -24 1 -49 3 -57 2 -7 -4 -15 -14 -16 -10 -2 -16 2 -14 8 2 7 -2
25 -10 40 -8 16 -12 35 -9 43 4 10 -2 14 -21 14 -20 0 -23 -3 -14 -13 6 -8 8
-17 4 -21 -4 -3 -7 -21 -7 -39 -1 -26 -5 -32 -24 -33 -21 -1 -22 0 -7 16 11
12 13 20 6 25 -6 3 -11 16 -12 28 0 21 -1 21 -9 2 -6 -14 -9 -15 -10 -5 0 11
-4 10 -12 -4 -10 -18 -12 -15 -24 24 -13 44 -12 179 1 200 5 8 13 6 25 -5 15
-14 22 -15 42 -4z"/>
<path fill="#ffffff" stroke="none" d="M257 153 c-3 -10 -5 -2 -5 17 0 19 2
27 5 18 2 -10 2 -26 0 -35z"/>
<path fill="#ffffff" stroke="none" d="M289 103 c1 -18 -3 -33 -9 -33 -5 0
-10 -10 -10 -22 0 -22 0 -22 -25 4 -15 16 -25 39 -25 56 0 37 10 46 26 24 11
-15 13 -14 20 13 6 26 8 27 15 10 4 -11 8 -35 8 -52z"/>
<path fill="#000000" stroke="none" d="M90 245 c-11 -13 -15 -13 -22 -3 -12
20 -28 -9 -28 -52 l0 -35 31 48 c20 33 35 47 45 43 9 -3 12 -1 9 4 -9 14 -21
12 -35 -5z"/>
<path fill="#ffffff" stroke="none" d="M57 208 c-3 -8 -6 -5 -6 6 -1 11 2 17
5 13 3 -3 4 -12 1 -19z"/>
<path fill="#000000" stroke="none" d="M101 166 c-8 -10 -9 -16 -1 -21 5 -3
10 -5 11 -3 4 18 7 38 4 38 -1 0 -8 -6 -14 -14z"/>
</g>
</svg>
