<?xml version="1.0" standalone="no"?>
<!DOCTYPE svg PUBLIC "-//W3C//DTD SVG 20010904//EN"
 "http://www.w3.org/TR/2001/REC-SVG-20010904/DTD/svg10.dtd">
<svg version="1.0" xmlns="http://www.w3.org/2000/svg"
 width="32.000000pt" height="32.000000pt" viewBox="0 0 32.000000 32.000000"
 preserveAspectRatio="xMidYMid meet">
<metadata>
Created by potrace 1.16, written by Peter Selinger 2001-2019
</metadata>
<g transform="translate(0.000000,32.000000) scale(0.100000,-0.100000)"
fill="#000000" stroke="none">
<path fill="#000000" stroke="none" d="M36 281 c-4 -5 -2 -12 3 -15 5 -4 12
-2 15 3 4 5 2 12 -3 15 -5 4 -12 2 -15 -3z"/>
<path fill="#000000" stroke="none" d="M113 230 c-34 -20 -37 -27 -27 -53 4
-11 16 -14 44 -11 21 3 41 0 45 -6 11 -18 24 -11 41 26 17 35 17 37 -1 50 -26
20 -65 17 -102 -6z"/>
<path fill="#000000" stroke="none" d="M215 151 c-3 -5 -1 -12 5 -16 5 -3 10
1 10 9 0 18 -6 21 -15 7z"/>
<path fill="#000000" stroke="none" d="M195 110 c3 -5 8 -10 11 -10 2 0 4 5 4
10 0 6 -5 10 -11 10 -5 0 -7 -4 -4 -10z"/>
</g>
</svg>
