<?xml version="1.0" standalone="no"?>
<!DOCTYPE svg PUBLIC "-//W3C//DTD SVG 20010904//EN"
 "http://www.w3.org/TR/2001/REC-SVG-20010904/DTD/svg10.dtd">
<svg version="1.0" xmlns="http://www.w3.org/2000/svg"
 width="32.000000pt" height="32.000000pt" viewBox="0 0 32.000000 32.000000"
 preserveAspectRatio="xMidYMid meet">
<metadata>
Created by potrace 1.16, written by Peter Selinger 2001-2019
</metadata>
<g transform="translate(0.000000,32.000000) scale(0.100000,-0.100000)"
fill="#000000" stroke="none">
<path fill="#000000" stroke="none" d="M109 297 c-15 -12 -35 -47 -45 -77 -10
-30 -29 -65 -41 -77 -28 -27 -33 -117 -8 -127 13 -4 13 -2 5 14 -13 24 -13 80
0 100 17 27 44 -2 50 -53 3 -25 2 -43 -3 -40 -5 3 -7 -3 -5 -13 3 -16 14 -19
71 -22 65 -3 68 -2 58 17 -14 24 -14 81 -1 101 7 12 13 13 27 4 14 -9 18 -25
18 -68 l-1 -56 43 0 c36 0 43 3 43 20 0 11 -4 20 -10 20 -6 0 -7 17 -4 43 6
41 5 43 -30 59 -27 13 -36 24 -36 42 0 39 -38 128 -52 120 -4 -3 -8 0 -8 5 0
19 -44 12 -71 -12z"/>
<path fill="#ffffff" stroke="none" d="M178 298 c9 -9 9 -15 -1 -26 -10 -13
-9 -14 8 -4 18 9 20 7 20 -14 -1 -13 -9 -30 -19 -37 -16 -12 -16 -13 3 -13 11
0 17 5 14 11 -4 7 -3 7 4 0 15 -14 27 -89 14 -80 -15 9 -47 -3 -49 -18 0 -6
-2 -27 -3 -45 -2 -35 -18 -48 -45 -38 -14 5 -14 9 -3 24 13 15 12 16 -3 4 -9
-8 -22 -11 -28 -7 -14 9 -13 48 3 64 10 10 9 11 -4 6 -9 -3 -21 1 -28 8 -9 12
-7 28 10 78 28 84 73 121 107 87z"/>
<path fill="#ffffff" stroke="none" d="M276 132 c18 -12 24 -45 15 -77 -9 -29
-10 -29 -17 -7 -5 18 -9 21 -16 10 -7 -9 -8 -8 -4 5 3 10 1 27 -4 38 -16 29 0
48 26 31z"/>
<path fill="#ffffff" stroke="none" d="M110 36 c0 -3 -4 -8 -10 -11 -5 -3 -10
-1 -10 4 0 6 5 11 10 11 6 0 10 -2 10 -4z"/>
</g>
</svg>
