<?xml version="1.0" standalone="no"?>
<!DOCTYPE svg PUBLIC "-//W3C//DTD SVG 20010904//EN"
 "http://www.w3.org/TR/2001/REC-SVG-20010904/DTD/svg10.dtd">
<svg version="1.0" xmlns="http://www.w3.org/2000/svg"
 width="32.000000pt" height="32.000000pt" viewBox="0 0 32.000000 32.000000"
 preserveAspectRatio="xMidYMid meet">
<metadata>
Created by potrace 1.16, written by Peter Selinger 2001-2019
</metadata>
<g transform="translate(0.000000,32.000000) scale(0.100000,-0.100000)"
fill="#000000" stroke="none">
<path fill="#000000" stroke="none" d="M73 313 l-63 -4 0 -54 c0 -48 2 -55 20
-55 28 0 25 -28 -5 -56 -19 -18 -25 -33 -25 -68 0 -79 -6 -76 166 -76 147 0
154 1 154 20 0 11 -4 20 -8 20 -5 0 -8 19 -8 42 0 24 0 85 -2 136 l-2 94 -60
-4 c-33 -1 -60 0 -60 5 0 4 -10 6 -22 5 -13 -1 -51 -3 -85 -5z"/>
<path fill="#ffffff" stroke="none" d="M165 300 c8 -13 -42 -43 -61 -36 -14 5
-13 9 7 26 26 21 45 25 54 10z"/>
<path fill="#ffffff" stroke="none" d="M155 250 c-3 -5 0 -10 7 -10 7 -1 3 -9
-11 -20 -12 -11 -27 -17 -32 -14 -11 6 -11 6 0 -34 7 -23 6 -32 -2 -32 -7 -1
0 -8 16 -16 15 -8 27 -17 27 -20 0 -2 -9 0 -20 6 -11 6 -26 8 -32 4 -7 -5 -8
-3 -3 6 6 10 3 12 -11 7 -18 -7 -18 -6 -1 7 9 7 17 23 17 35 0 18 -3 20 -19
11 -11 -5 -22 -6 -25 -2 -8 13 9 33 25 30 8 -2 13 3 11 10 -1 8 2 11 6 8 5 -3
17 3 27 14 19 21 30 27 20 10z"/>
<path fill="#ffffff" stroke="none" d="M172 172 c-12 -8 -22 -21 -22 -28 0 -8
-4 -14 -9 -14 -13 0 -1 43 17 57 8 7 20 9 25 6 6 -4 2 -12 -11 -21z"/>
<path fill="#ffffff" stroke="none" d="M53 126 c3 -7 -1 -25 -9 -40 -8 -14
-14 -28 -14 -31 0 -3 -3 -6 -7 -7 -13 -5 -15 50 -3 72 12 23 26 26 33 6z"/>
<path fill="#ffffff" stroke="none" d="M234 104 c8 -20 -12 -66 -26 -62 -23 8
-32 35 -20 62 12 27 36 27 46 0z"/>
<path fill="#ffffff" stroke="none" d="M288 84 c-4 -3 -12 5 -18 18 -12 22
-12 22 6 6 10 -10 15 -20 12 -24z"/>
<path fill="#ffffff" stroke="none" d="M165 39 c-9 -13 -42 -11 -51 3 -5 8 -2
9 9 5 9 -3 19 -2 22 4 4 5 11 7 16 3 5 -3 7 -10 4 -15z"/>
<path fill="#000000" stroke="none" d="M129 223 c-13 -16 -12 -17 4 -4 9 7 17
15 17 17 0 8 -8 3 -21 -13z"/>
</g>
</svg>
