<?xml version="1.0" standalone="no"?>
<!DOCTYPE svg PUBLIC "-//W3C//DTD SVG 20010904//EN"
 "http://www.w3.org/TR/2001/REC-SVG-20010904/DTD/svg10.dtd">
<svg version="1.0" xmlns="http://www.w3.org/2000/svg"
 width="32.000000pt" height="32.000000pt" viewBox="0 0 32.000000 32.000000"
 preserveAspectRatio="xMidYMid meet">
<metadata>
Created by potrace 1.16, written by Peter Selinger 2001-2019
</metadata>
<g transform="translate(0.000000,32.000000) scale(0.100000,-0.100000)"
fill="#000000" stroke="none">
<path fill="#000000" stroke="none" d="M102 262 c-23 -4 -82 -74 -82 -98 0 -7
9 -16 20 -19 14 -4 20 -15 20 -35 0 -29 19 -44 45 -34 8 4 15 1 15 -5 0 -19
37 -12 43 8 4 15 12 18 46 15 43 -4 58 13 20 23 -16 4 -17 8 -7 14 11 7 10 9
-1 9 -10 0 -7 8 9 25 25 27 37 60 17 48 -16 -10 -37 -13 -36 -5 1 4 1 18 0 31
-1 19 -4 21 -15 12 -10 -8 -16 -9 -21 -1 -3 6 -11 8 -16 4 -5 -3 -15 -2 -22 3
-7 5 -22 7 -35 5z"/>
</g>
</svg>
