<?xml version="1.0" standalone="no"?>
<!DOCTYPE svg PUBLIC "-//W3C//DTD SVG 20010904//EN"
 "http://www.w3.org/TR/2001/REC-SVG-20010904/DTD/svg10.dtd">
<svg version="1.0" xmlns="http://www.w3.org/2000/svg"
 width="32.000000pt" height="32.000000pt" viewBox="0 0 32.000000 32.000000"
 preserveAspectRatio="xMidYMid meet">
<metadata>
Created by potrace 1.16, written by Peter Selinger 2001-2019
</metadata>
<g transform="translate(0.000000,32.000000) scale(0.100000,-0.100000)"
fill="#000000" stroke="none">
<path fill="#000000" stroke="none" d="M0 160 l0 -160 160 0 160 0 0 160 0
160 -160 0 -160 0 0 -160z"/>
<path fill="#ffffff" stroke="none" d="M157 215 c-9 -23 13 -29 29 -9 15 18
15 18 11 -3 -4 -17 0 -23 11 -24 12 0 11 -3 -6 -11 -18 -9 -22 -17 -17 -36 5
-21 3 -23 -22 -20 -24 3 -28 0 -26 -22 1 -20 -2 -18 -16 14 -17 34 -20 36 -29
20 -14 -24 -27 -12 -14 13 7 12 7 25 0 37 -11 20 3 36 34 36 9 0 20 5 23 10
10 16 28 12 22 -5z"/>
</g>
</svg>
