<?xml version="1.0" standalone="no"?>
<!DOCTYPE svg PUBLIC "-//W3C//DTD SVG 20010904//EN"
 "http://www.w3.org/TR/2001/REC-SVG-20010904/DTD/svg10.dtd">
<svg version="1.0" xmlns="http://www.w3.org/2000/svg"
 width="32.000000pt" height="32.000000pt" viewBox="0 0 32.000000 32.000000"
 preserveAspectRatio="xMidYMid meet">
<metadata>
Created by potrace 1.16, written by Peter Selinger 2001-2019
</metadata>
<g transform="translate(0.000000,32.000000) scale(0.100000,-0.100000)"
fill="#000000" stroke="none">
<path fill="#000000" stroke="none" d="M0 160 l0 -160 160 0 160 0 0 160 0
160 -160 0 -160 0 0 -160z"/>
<path fill="#ffffff" stroke="none" d="M166 297 c4 -4 12 -2 19 3 8 7 24 0 53
-22 35 -27 39 -34 30 -51 -7 -14 -7 -17 1 -13 17 11 13 -5 -6 -27 -10 -11 -12
-17 -5 -13 10 6 12 0 7 -28 -6 -27 -4 -36 6 -36 9 -1 6 -8 -8 -19 -13 -11 -31
-17 -43 -14 -22 6 -28 -12 -7 -20 6 -3 -15 -4 -48 -3 -33 2 -69 7 -79 11 -15
7 -17 5 -11 -6 4 -8 -6 -1 -23 15 -46 43 -50 83 -15 148 36 66 101 104 129 75z"/>
<path fill="#ffffff" stroke="none" d="M160 20 c18 -12 2 -12 -25 0 -13 6 -15
9 -5 9 8 0 22 -4 30 -9z"/>
<path fill="#000000" stroke="none" d="M40 101 c0 -5 5 -13 10 -16 6 -3 10 -2
10 4 0 5 -4 13 -10 16 -5 3 -10 2 -10 -4z"/>
</g>
</svg>
