<?xml version="1.0" standalone="no"?>
<!DOCTYPE svg PUBLIC "-//W3C//DTD SVG 20010904//EN"
 "http://www.w3.org/TR/2001/REC-SVG-20010904/DTD/svg10.dtd">
<svg version="1.0" xmlns="http://www.w3.org/2000/svg"
 width="32.000000pt" height="32.000000pt" viewBox="0 0 32.000000 32.000000"
 preserveAspectRatio="xMidYMid meet">
<metadata>
Created by potrace 1.16, written by Peter Selinger 2001-2019
</metadata>
<g transform="translate(0.000000,32.000000) scale(0.100000,-0.100000)"
fill="#000000" stroke="none">
<path fill="#000000" stroke="none" d="M0 160 l0 -160 160 0 160 0 0 160 0
160 -160 0 -160 0 0 -160z"/>
<path fill="#ffffff" stroke="none" d="M159 254 c5 4 13 2 16 -4 5 -8 11 -7
21 1 11 9 14 7 15 -12 1 -13 1 -27 0 -31 -1 -8 20 -5 36 5 20 12 8 -21 -17
-48 -16 -17 -19 -25 -9 -25 11 0 12 -2 1 -9 -10 -6 -9 -10 7 -14 38 -10 23
-27 -20 -23 -34 3 -42 0 -46 -15 -6 -20 -43 -27 -43 -8 0 6 -7 9 -15 5 -26
-10 -45 5 -45 34 0 20 -6 31 -20 35 -27 9 -25 25 10 73 29 40 64 56 87 39 7
-5 17 -6 22 -3z"/>
</g>
</svg>
