<?xml version="1.0" standalone="no"?>
<!DOCTYPE svg PUBLIC "-//W3C//DTD SVG 20010904//EN"
 "http://www.w3.org/TR/2001/REC-SVG-20010904/DTD/svg10.dtd">
<svg version="1.0" xmlns="http://www.w3.org/2000/svg"
 width="32.000000pt" height="32.000000pt" viewBox="0 0 32.000000 32.000000"
 preserveAspectRatio="xMidYMid meet">
<metadata>
Created by potrace 1.16, written by Peter Selinger 2001-2019
</metadata>
<g transform="translate(0.000000,32.000000) scale(0.100000,-0.100000)"
fill="#000000" stroke="none">
<path fill="#000000" stroke="none" d="M0 160 l0 -160 160 0 160 0 0 160 0
160 -160 0 -160 0 0 -160z"/>
<path fill="#ffffff" stroke="none" d="M194 259 c3 -3 -4 -5 -17 -5 -17 1 -23
-5 -25 -26 -4 -30 6 -36 26 -16 9 9 12 8 12 -7 1 -18 4 -17 25 8 14 15 25 24
25 20 0 -5 -5 -14 -12 -21 -18 -18 -5 -23 30 -12 20 5 30 5 27 -1 -4 -5 -12
-9 -19 -9 -17 0 -49 -47 -41 -60 4 -6 10 -8 15 -5 5 3 9 -3 9 -12 -1 -10 2
-28 6 -40 10 -31 -14 -30 -43 0 -16 17 -30 22 -52 19 -32 -5 -38 6 -17 27 10
10 8 12 -8 9 -14 -2 -19 2 -17 13 1 8 -16 30 -38 48 -26 21 -40 40 -40 56 0
23 2 23 74 21 41 -1 77 -4 80 -7z"/>
<path fill="#000000" stroke="none" d="M60 237 c0 -6 22 -35 49 -62 38 -39 47
-53 38 -63 -9 -11 -6 -13 15 -11 18 3 35 -4 52 -20 34 -32 47 -19 15 15 -16
17 -23 34 -20 52 2 21 0 24 -11 15 -10 -9 -24 0 -63 38 -49 48 -75 61 -75 36z"/>
</g>
</svg>
