<?xml version="1.0" standalone="no"?>
<!DOCTYPE svg PUBLIC "-//W3C//DTD SVG 20010904//EN"
 "http://www.w3.org/TR/2001/REC-SVG-20010904/DTD/svg10.dtd">
<svg version="1.0" xmlns="http://www.w3.org/2000/svg"
 width="32.000000pt" height="32.000000pt" viewBox="0 0 32.000000 32.000000"
 preserveAspectRatio="xMidYMid meet">
<metadata>
Created by potrace 1.16, written by Peter Selinger 2001-2019
</metadata>
<g transform="translate(0.000000,32.000000) scale(0.100000,-0.100000)"
fill="#000000" stroke="none">
<path fill="#000000" stroke="none" d="M40 246 c0 -12 14 -35 31 -52 31 -29
51 -65 53 -94 1 -17 56 -24 56 -7 0 5 12 -2 26 -17 42 -41 69 -32 44 15 -8 14
-7 19 2 19 7 0 2 9 -12 20 -14 11 -19 20 -12 20 6 0 12 7 12 15 0 9 11 20 25
25 36 14 31 20 -7 9 -35 -10 -48 -5 -30 13 7 7 12 16 12 21 0 5 -9 -1 -20 -14
-12 -15 -23 -20 -27 -14 -5 6 -15 10 -23 10 -8 0 -15 9 -15 20 0 14 6 20 22
19 13 0 20 2 17 5 -3 3 -39 6 -80 7 -70 2 -74 1 -74 -20z"/>
<path fill="#ffffff" stroke="none" d="M135 201 c39 -38 53 -47 63 -38 11 9
13 6 11 -15 -3 -18 4 -35 20 -52 14 -14 21 -29 18 -33 -4 -3 -19 4 -33 18 -17
16 -34 23 -52 20 -21 -2 -24 0 -15 11 9 10 0 24 -38 63 -27 27 -49 56 -49 62
0 25 26 12 75 -36z"/>
</g>
</svg>
