<?xml version="1.0" standalone="no"?>
<!DOCTYPE svg PUBLIC "-//W3C//DTD SVG 20010904//EN"
 "http://www.w3.org/TR/2001/REC-SVG-20010904/DTD/svg10.dtd">
<svg version="1.0" xmlns="http://www.w3.org/2000/svg"
 width="32.000000pt" height="32.000000pt" viewBox="0 0 32.000000 32.000000"
 preserveAspectRatio="xMidYMid meet">
<metadata>
Created by potrace 1.16, written by Peter Selinger 2001-2019
</metadata>
<g transform="translate(0.000000,32.000000) scale(0.100000,-0.100000)"
fill="#000000" stroke="none">
<path fill="#000000" stroke="none" d="M123 273 c-7 -2 -13 -18 -13 -34 0 -17
-6 -32 -15 -35 -8 -4 -15 -16 -15 -29 0 -16 -7 -25 -24 -29 -29 -7 -37 -26
-29 -66 7 -37 20 -38 35 -3 l11 28 8 -29 c10 -34 6 -41 -24 -41 -11 0 -22 -6
-25 -14 -4 -11 8 -13 57 -9 33 2 63 7 66 10 4 3 1 15 -7 27 -9 15 -9 24 -2 31
8 8 17 1 32 -24 17 -29 27 -36 52 -36 16 0 30 5 30 11 0 7 6 17 14 23 8 6 16
31 18 56 3 39 1 45 -17 45 -13 0 -21 8 -23 22 -2 12 -12 25 -22 28 -10 3 -20
16 -22 28 -2 16 -9 21 -26 20 -14 -2 -22 3 -22 12 0 15 -14 18 -37 8z"/>
<path fill="#ffffff" stroke="none" d="M154 255 c3 -9 14 -15 23 -13 12 2 19
-4 21 -18 2 -12 11 -24 22 -27 10 -2 20 -15 22 -28 2 -18 9 -24 26 -23 19 1
22 -3 18 -20 -3 -12 -6 -32 -7 -46 l-1 -25 -7 24 c-3 13 -15 29 -26 35 -11 6
-23 15 -27 21 -4 5 -10 6 -14 3 -9 -9 16 -69 26 -63 8 5 20 -17 20 -36 0 -5
-9 -9 -20 -9 -12 0 -20 7 -20 18 0 14 -2 15 -10 2 -9 -13 -10 -13 -10 0 0 8
-8 24 -16 35 -15 20 -15 20 -35 -5 -19 -22 -19 -25 -4 -36 14 -11 14 -12 -1
-18 -8 -3 -25 -6 -36 -6 -16 0 -18 3 -9 14 6 7 8 21 5 30 -4 11 2 26 17 42 22
24 22 25 5 42 -17 15 -18 15 -13 1 3 -11 -5 -24 -24 -38 -16 -12 -29 -29 -30
-39 0 -9 -5 -4 -9 12 -11 35 -6 44 26 56 15 6 24 18 24 30 0 11 7 23 15 26 8
4 15 18 15 33 0 40 22 57 34 26z"/>
<path fill="#ffffff" stroke="none" d="M110 115 c-7 -8 -17 -15 -23 -15 -6 0
-2 7 9 15 25 19 30 19 14 0z"/>
<path fill="#ffffff" stroke="none" d="M258 79 c2 -13 2 -22 0 -19 -1 3 -14
18 -28 33 l-24 28 24 -9 c15 -6 26 -19 28 -33z"/>
</g>
</svg>
