<?xml version="1.0" standalone="no"?>
<!DOCTYPE svg PUBLIC "-//W3C//DTD SVG 20010904//EN"
 "http://www.w3.org/TR/2001/REC-SVG-20010904/DTD/svg10.dtd">
<svg version="1.0" xmlns="http://www.w3.org/2000/svg"
 width="32.000000pt" height="32.000000pt" viewBox="0 0 32.000000 32.000000"
 preserveAspectRatio="xMidYMid meet">
<metadata>
Created by potrace 1.16, written by Peter Selinger 2001-2019
</metadata>
<g transform="translate(0.000000,32.000000) scale(0.100000,-0.100000)"
fill="#000000" stroke="none">
<path fill="#000000" stroke="none" d="M0 300 c0 -22 25 -18 34 6 3 9 -1 14
-14 14 -13 0 -20 -7 -20 -20z"/>
<path fill="#000000" stroke="none" d="M295 300 c10 -11 20 -20 22 -20 1 0 3
9 3 20 0 14 -7 20 -22 20 -20 0 -21 -1 -3 -20z"/>
<path fill="#000000" stroke="none" d="M70 293 c-36 -13 -41 -25 -24 -51 10
-14 25 -61 35 -105 9 -43 19 -80 21 -81 1 -2 18 -6 36 -9 25 -5 32 -3 32 9 0
8 -5 12 -10 9 -6 -3 -13 1 -16 9 -7 18 14 54 52 89 l26 24 -33 12 c-40 14 -52
14 -44 1 3 -5 15 -10 26 -10 25 0 24 -12 -2 -36 -17 -16 -22 -16 -29 -4 -9 14
-14 36 -11 52 0 5 -8 17 -19 28 -27 27 -25 40 8 40 l27 0 -29 15 c-15 8 -29
15 -30 14 0 0 -8 -3 -16 -6z"/>
<path fill="#000000" stroke="none" d="M240 208 c0 -24 12 -58 20 -58 4 0 11
11 14 25 4 14 14 25 24 26 14 0 14 2 -3 9 -30 13 -55 12 -55 -2z"/>
<path fill="#000000" stroke="none" d="M297 104 c-8 -8 1 -24 14 -24 5 0 9 7
9 15 0 15 -12 20 -23 9z"/>
<path fill="#000000" stroke="none" d="M0 79 c0 -5 5 -7 10 -4 5 3 10 8 10 11
0 2 -4 4 -10 4 -5 0 -10 -5 -10 -11z"/>
<path fill="#000000" stroke="none" d="M55 69 c-4 -6 -5 -12 -2 -15 2 -3 7 2
10 11 7 17 1 20 -8 4z"/>
<path fill="#000000" stroke="none" d="M300 10 c-13 -8 -12 -10 3 -10 9 0 17
5 17 10 0 12 -1 12 -20 0z"/>
</g>
</svg>
