<?xml version="1.0" standalone="no"?>
<!DOCTYPE svg PUBLIC "-//W3C//DTD SVG 20010904//EN"
 "http://www.w3.org/TR/2001/REC-SVG-20010904/DTD/svg10.dtd">
<svg version="1.0" xmlns="http://www.w3.org/2000/svg"
 width="32.000000pt" height="32.000000pt" viewBox="0 0 32.000000 32.000000"
 preserveAspectRatio="xMidYMid meet">
<metadata>
Created by potrace 1.16, written by Peter Selinger 2001-2019
</metadata>
<g transform="translate(0.000000,32.000000) scale(0.100000,-0.100000)"
fill="#000000" stroke="none">
<path fill="#000000" stroke="none" d="M0 300 c0 -22 25 -18 34 6 3 9 -1 14
-14 14 -13 0 -20 -7 -20 -20z"/>
<path fill="#000000" stroke="none" d="M295 300 c10 -11 20 -20 22 -20 1 0 3
9 3 20 0 14 -7 20 -22 20 -20 0 -21 -1 -3 -20z"/>
<path fill="#000000" stroke="none" d="M52 265 c-10 -12 -9 -16 6 -24 10 -5
23 -31 30 -58 6 -26 15 -59 18 -72 6 -19 4 -23 -7 -17 -8 4 -6 1 4 -7 9 -8 17
-19 17 -26 0 -6 5 -11 10 -11 6 0 10 13 10 28 0 15 5 33 12 40 8 8 9 12 1 12
-10 0 -27 46 -28 75 0 6 -13 21 -28 34 -22 18 -25 26 -15 32 10 7 10 9 -2 8
-8 0 -21 -6 -28 -14z"/>
<path fill="#000000" stroke="none" d="M158 198 c5 -5 16 -8 23 -6 8 3 3 7
-10 11 -17 4 -21 3 -13 -5z"/>
<path fill="#000000" stroke="none" d="M240 196 c0 -21 16 -28 29 -12 9 11 8
15 -5 20 -22 8 -24 8 -24 -8z"/>
<path fill="#000000" stroke="none" d="M297 104 c-8 -8 1 -24 14 -24 5 0 9 7
9 15 0 15 -12 20 -23 9z"/>
<path fill="#000000" stroke="none" d="M0 79 c0 -5 5 -7 10 -4 5 3 10 8 10 11
0 2 -4 4 -10 4 -5 0 -10 -5 -10 -11z"/>
<path fill="#000000" stroke="none" d="M300 10 c-13 -8 -12 -10 3 -10 9 0 17
5 17 10 0 12 -1 12 -20 0z"/>
</g>
</svg>
