<?xml version="1.0" standalone="no"?>
<!DOCTYPE svg PUBLIC "-//W3C//DTD SVG 20010904//EN"
 "http://www.w3.org/TR/2001/REC-SVG-20010904/DTD/svg10.dtd">
<svg version="1.0" xmlns="http://www.w3.org/2000/svg"
 width="32.000000pt" height="32.000000pt" viewBox="0 0 32.000000 32.000000"
 preserveAspectRatio="xMidYMid meet">
<metadata>
Created by potrace 1.16, written by Peter Selinger 2001-2019
</metadata>
<g transform="translate(0.000000,32.000000) scale(0.100000,-0.100000)"
fill="#000000" stroke="none">
<path fill="#000000" stroke="none" d="M0 296 c0 -13 9 -35 21 -50 11 -14 16
-26 10 -26 -6 0 -11 5 -11 11 0 5 -5 7 -10 4 -14 -9 -12 -46 3 -44 23 3 37 -1
37 -10 0 -5 -11 -8 -25 -5 -20 3 -25 0 -25 -16 0 -16 7 -20 35 -20 24 0 35 -5
37 -15 0 -8 1 -19 2 -25 1 -5 -3 -9 -9 -7 -5 1 -9 5 -8 9 2 4 -11 2 -27 -4
-17 -5 -30 -17 -30 -25 0 -13 3 -13 15 -3 12 10 16 9 21 -6 13 -37 25 -45 42
-32 13 11 14 10 8 -7 -5 -17 -1 -21 19 -23 14 -1 25 2 25 8 0 15 -18 21 -23 8
-3 -7 -6 -8 -6 -3 -1 20 16 36 32 30 9 -4 14 -15 12 -26 -3 -17 2 -19 53 -18
51 0 59 3 81 30 26 33 26 33 -9 44 -22 7 -23 6 -12 -8 11 -13 10 -15 -5 -11
-19 5 -48 42 -40 51 3 2 14 5 26 6 11 1 21 7 21 14 0 7 7 13 16 13 11 0 15 6
11 19 -3 14 0 17 14 14 17 -5 19 1 19 71 l0 76 -51 0 c-46 0 -51 -2 -46 -20 3
-11 1 -20 -5 -20 -5 0 -7 -4 -4 -9 8 -13 -18 -21 -44 -14 -15 4 -20 11 -17 24
3 11 1 17 -4 13 -5 -3 -9 -1 -9 5 0 5 6 12 13 15 6 3 -8 5 -33 4 -25 -1 -49
-7 -53 -13 -6 -7 -10 -6 -14 3 -2 6 -16 12 -29 12 -19 0 -24 -5 -24 -24z"/>
<path fill="#ffffff" stroke="none" d="M33 285 c-3 -9 -8 -14 -10 -11 -3 3 -2
9 2 15 9 16 15 13 8 -4z"/>
<path fill="#ffffff" stroke="none" d="M308 280 c3 -7 1 -10 -4 -7 -5 2 -16
-2 -23 -11 -13 -14 -13 -15 6 -10 14 4 20 2 17 -6 -5 -13 -74 -17 -74 -4 0 13
53 58 64 55 6 -2 12 -9 14 -17z"/>
<path fill="#ffffff" stroke="none" d="M142 236 c-3 -5 5 -7 16 -4 12 4 22 2
22 -3 0 -5 11 -11 25 -15 14 -3 25 -10 25 -15 0 -12 -9 -11 -63 7 -55 19 -81
43 -43 40 13 0 22 -5 18 -10z"/>
<path fill="#ffffff" stroke="none" d="M169 164 c-14 -17 -25 -11 -32 15 -4
17 -2 18 19 9 18 -9 21 -14 13 -24z"/>
<path fill="#ffffff" stroke="none" d="M240 170 c0 -12 -81 -100 -92 -100 -19
0 -6 33 28 70 34 38 64 52 64 30z"/>
<path fill="#ffffff" stroke="none" d="M218 50 c1 -16 -2 -30 -8 -30 -5 0 -10
6 -10 14 0 8 -3 21 -6 30 -4 10 -1 16 8 16 8 0 15 -12 16 -30z"/>
<path fill="#000000" stroke="none" d="M300 150 c0 -5 5 -10 10 -10 6 0 10 5
10 10 0 6 -4 10 -10 10 -5 0 -10 -4 -10 -10z"/>
<path fill="#000000" stroke="none" d="M296 85 c20 -31 24 -31 24 0 0 18 -5
25 -20 25 -20 0 -20 -1 -4 -25z"/>
<path fill="#000000" stroke="none" d="M1 28 c-1 -16 3 -28 8 -28 17 0 41 12
41 21 0 14 -30 11 -31 -3 -1 -7 -5 -2 -9 12 l-8 25 -1 -27z"/>
<path fill="#000000" stroke="none" d="M292 28 c-18 -18 -15 -28 8 -28 13 0
20 7 20 20 0 23 -10 26 -28 8z"/>
</g>
</svg>
