<?xml version="1.0" standalone="no"?>
<!DOCTYPE svg PUBLIC "-//W3C//DTD SVG 20010904//EN"
 "http://www.w3.org/TR/2001/REC-SVG-20010904/DTD/svg10.dtd">
<svg version="1.0" xmlns="http://www.w3.org/2000/svg"
 width="32.000000pt" height="32.000000pt" viewBox="0 0 32.000000 32.000000"
 preserveAspectRatio="xMidYMid meet">
<metadata>
Created by potrace 1.16, written by Peter Selinger 2001-2019
</metadata>
<g transform="translate(0.000000,32.000000) scale(0.100000,-0.100000)"
fill="#000000" stroke="none">
<path fill="#000000" stroke="none" d="M22 296 c-19 -21 -22 -34 -22 -115 0
-61 4 -91 11 -91 8 0 8 -4 0 -14 -7 -8 -11 -27 -9 -43 l3 -28 138 -3 c83 -1
145 2 157 8 26 14 27 65 3 75 -16 6 -16 8 -2 18 11 9 16 33 18 91 2 69 -1 81
-20 102 -21 23 -29 24 -138 24 -109 0 -117 -2 -139 -24z"/>
<path fill="#ffffff" stroke="none" d="M129 172 c16 -47 17 -122 1 -122 -4 0
-17 41 -29 91 -13 51 -25 99 -28 108 -4 12 0 10 17 -5 12 -12 30 -44 39 -72z"/>
<path fill="#ffffff" stroke="none" d="M268 189 c-2 -6 -8 -10 -13 -10 -5 0
-11 4 -13 10 -2 6 4 11 13 11 9 0 15 -5 13 -11z"/>
</g>
</svg>
