<?xml version="1.0" standalone="no"?>
<!DOCTYPE svg PUBLIC "-//W3C//DTD SVG 20010904//EN"
 "http://www.w3.org/TR/2001/REC-SVG-20010904/DTD/svg10.dtd">
<svg version="1.0" xmlns="http://www.w3.org/2000/svg"
 width="32.000000pt" height="32.000000pt" viewBox="0 0 32.000000 32.000000"
 preserveAspectRatio="xMidYMid meet">
<metadata>
Created by potrace 1.16, written by Peter Selinger 2001-2019
</metadata>
<g transform="translate(0.000000,32.000000) scale(0.100000,-0.100000)"
fill="#000000" stroke="none">
<path fill="#000000" stroke="none" d="M0 160 l0 -160 160 0 160 0 0 160 0
160 -160 0 -160 0 0 -160z"/>
<path fill="#ffffff" stroke="none" d="M174 277 c-5 -15 -1 -17 19 -11 14 3
34 1 44 -5 17 -11 17 -11 -2 -9 -28 4 -45 -10 -38 -30 3 -9 -5 -1 -18 18 -27
39 -68 53 -65 23 1 -14 -6 -18 -26 -16 -23 1 -26 -2 -25 -25 2 -20 -2 -27 -16
-26 -26 3 -21 -32 9 -55 15 -12 38 -21 51 -21 l25 0 -23 19 c-19 15 -21 22
-12 32 9 9 19 4 45 -22 18 -18 24 -25 12 -16 -11 9 -27 17 -35 17 -10 -1 -9
-3 4 -11 26 -15 20 -29 -12 -29 -39 0 -91 44 -91 77 0 20 4 23 21 18 19 -6 20
-4 14 25 -7 32 -7 32 25 25 29 -6 32 -5 26 11 -8 21 6 31 45 30 23 -1 28 -5
23 -19z"/>
<path fill="#ffffff" stroke="none" d="M173 200 l14 -20 18 20 c10 11 22 20
26 20 4 0 -3 -11 -17 -25 -15 -15 -30 -22 -42 -18 -13 5 -11 0 7 -20 14 -15
30 -27 37 -27 6 0 14 -9 17 -21 4 -14 -12 -3 -50 34 -30 31 -52 61 -48 67 10
15 22 12 38 -10z"/>
</g>
</svg>
