<?xml version="1.0" standalone="no"?>
<!DOCTYPE svg PUBLIC "-//W3C//DTD SVG 20010904//EN"
 "http://www.w3.org/TR/2001/REC-SVG-20010904/DTD/svg10.dtd">
<svg version="1.0" xmlns="http://www.w3.org/2000/svg"
 width="32.000000pt" height="32.000000pt" viewBox="0 0 32.000000 32.000000"
 preserveAspectRatio="xMidYMid meet">
<metadata>
Created by potrace 1.16, written by Peter Selinger 2001-2019
</metadata>
<g transform="translate(0.000000,32.000000) scale(0.100000,-0.100000)"
fill="#000000" stroke="none">
<path fill="#000000" stroke="none" d="M20 289 c0 -4 9 -23 20 -42 12 -20 18
-42 14 -52 -5 -13 -2 -16 17 -15 40 4 49 1 49 -15 0 -8 6 -15 13 -15 8 0 40
-27 71 -60 32 -33 64 -60 72 -60 19 0 18 36 -2 44 -10 4 -13 13 -9 25 5 15 2
18 -13 14 -25 -6 -38 15 -19 30 8 7 17 21 21 32 6 19 6 19 -8 1 -9 -11 -21
-16 -32 -12 -14 5 -15 9 -2 29 8 12 18 33 21 47 6 24 5 23 -19 -5 -24 -29 -25
-29 -19 -5 l6 25 -18 -22 c-15 -18 -20 -20 -31 -7 -18 20 -18 19 -3 38 13 15
12 16 -13 6 -30 -11 -50 -5 -43 14 3 7 -9 12 -34 12 -22 1 -39 -2 -39 -7z"/>
<path fill="#ffffff" stroke="none" d="M74 269 c19 -11 41 -17 47 -13 9 5 10
0 6 -15 -5 -19 9 -38 71 -103 123 -128 112 -139 -16 -16 -65 62 -84 76 -103
71 -15 -4 -20 -3 -15 6 4 6 -2 28 -13 47 -31 52 -29 54 23 23z"/>
</g>
</svg>
