<?xml version="1.0" standalone="no"?>
<!DOCTYPE svg PUBLIC "-//W3C//DTD SVG 20010904//EN"
 "http://www.w3.org/TR/2001/REC-SVG-20010904/DTD/svg10.dtd">
<svg version="1.0" xmlns="http://www.w3.org/2000/svg"
 width="32.000000pt" height="32.000000pt" viewBox="0 0 32.000000 32.000000"
 preserveAspectRatio="xMidYMid meet">
<metadata>
Created by potrace 1.16, written by Peter Selinger 2001-2019
</metadata>
<g transform="translate(0.000000,32.000000) scale(0.100000,-0.100000)"
fill="#000000" stroke="none">
<path fill="#000000" stroke="none" d="M0 160 l0 -160 160 0 160 0 0 160 0
160 -160 0 -160 0 0 -160z"/>
<path fill="#ffffff" stroke="none" d="M169 270 c4 0 7 -10 8 -22 2 -20 1 -21
-8 -6 -5 10 -17 22 -27 28 -16 11 -16 11 1 6 10 -3 22 -6 26 -6z"/>
<path fill="#ffffff" stroke="none" d="M127 244 c-3 -3 -12 -4 -19 -1 -8 3 -5
6 6 6 11 1 17 -2 13 -5z"/>
<path fill="#ffffff" stroke="none" d="M53 210 c-3 -12 -8 -19 -11 -16 -5 6 5
36 12 36 2 0 2 -9 -1 -20z"/>
<path fill="#ffffff" stroke="none" d="M138 200 c-7 -10 -14 -17 -17 -15 -4 4
18 35 25 35 2 0 -1 -9 -8 -20z"/>
<path fill="#ffffff" stroke="none" d="M187 202 c-22 -24 -21 -31 6 -42 13 -5
16 -9 6 -9 -8 -1 -24 6 -35 14 -19 15 -19 15 5 35 29 25 40 26 18 2z"/>
<path fill="#ffffff" stroke="none" d="M117 145 c0 -11 -4 -12 -14 -4 -7 6
-13 13 -13 15 0 2 6 4 13 4 8 0 14 -7 14 -15z"/>
</g>
</svg>
