<?xml version="1.0" standalone="no"?>
<!DOCTYPE svg PUBLIC "-//W3C//DTD SVG 20010904//EN"
 "http://www.w3.org/TR/2001/REC-SVG-20010904/DTD/svg10.dtd">
<svg version="1.0" xmlns="http://www.w3.org/2000/svg"
 width="32.000000pt" height="32.000000pt" viewBox="0 0 32.000000 32.000000"
 preserveAspectRatio="xMidYMid meet">
<metadata>
Created by potrace 1.16, written by Peter Selinger 2001-2019
</metadata>
<g transform="translate(0.000000,32.000000) scale(0.100000,-0.100000)"
fill="#000000" stroke="none">
<path fill="#000000" stroke="none" d="M0 160 l0 -160 160 0 160 0 0 160 0
160 -160 0 -160 0 0 -160z"/>
<path fill="#ffffff" stroke="none" d="M33 280 c-3 -12 4 -27 19 -42 13 -13
17 -17 8 -10 -9 6 -22 12 -28 12 -7 0 -12 14 -12 30 0 17 4 30 9 30 5 0 7 -9
4 -20z"/>
<path fill="#ffffff" stroke="none" d="M140 255 c0 -10 -41 -11 -49 -1 -8 10
-3 11 19 8 17 -2 30 -5 30 -7z"/>
<path fill="#ffffff" stroke="none" d="M183 193 c-7 -2 -19 -2 -25 0 -7 3 -2
5 12 5 14 0 19 -2 13 -5z"/>
</g>
</svg>
