<?xml version="1.0" standalone="no"?>
<!DOCTYPE svg PUBLIC "-//W3C//DTD SVG 20010904//EN"
 "http://www.w3.org/TR/2001/REC-SVG-20010904/DTD/svg10.dtd">
<svg version="1.0" xmlns="http://www.w3.org/2000/svg"
 width="32.000000pt" height="32.000000pt" viewBox="0 0 32.000000 32.000000"
 preserveAspectRatio="xMidYMid meet">
<metadata>
Created by potrace 1.16, written by Peter Selinger 2001-2019
</metadata>
<g transform="translate(0.000000,32.000000) scale(0.100000,-0.100000)"
fill="#000000" stroke="none">
<path fill="#000000" stroke="none" d="M0 160 l0 -160 160 0 160 0 0 160 0
160 -160 0 -160 0 0 -160z"/>
<path fill="#ffffff" stroke="none" d="M140 285 c-13 -15 -4 -39 11 -29 15 9
69 23 69 18 0 -2 -12 -9 -26 -14 -25 -10 -29 -38 -4 -32 9 2 10 -5 6 -23 -5
-20 -3 -25 13 -25 11 0 25 8 30 18 10 16 10 16 11 0 0 -10 -9 -22 -20 -28 -11
-6 -20 -20 -20 -30 0 -21 15 -27 25 -10 12 20 26 10 15 -10 -8 -16 -8 -20 3
-20 14 0 27 -28 27 -57 0 -14 -28 -17 -54 -7 -9 3 -16 13 -16 22 0 19 -49 72
-67 72 -7 0 -13 4 -13 9 0 4 -11 6 -25 3 -19 -3 -25 0 -25 13 0 9 -9 19 -19
22 -15 4 -19 14 -18 49 0 41 5 48 33 45 6 -1 24 6 40 14 36 19 40 19 24 0z"/>
<path fill="#000000" stroke="none" d="M53 227 c0 -18 10 -39 24 -53 26 -26
43 -31 43 -13 0 6 23 -11 50 -37 28 -26 50 -54 50 -62 0 -7 5 -10 10 -7 5 3
10 1 10 -4 0 -6 7 -11 15 -11 8 0 15 7 15 15 0 8 -5 15 -11 15 -5 0 -7 5 -4
10 3 6 0 10 -7 10 -8 0 -36 23 -62 50 -26 28 -43 50 -37 50 18 0 13 17 -13 43
-14 14 -35 24 -53 24 -26 0 -30 -4 -30 -30z"/>
</g>
</svg>
