<?xml version="1.0" standalone="no"?>
<!DOCTYPE svg PUBLIC "-//W3C//DTD SVG 20010904//EN"
 "http://www.w3.org/TR/2001/REC-SVG-20010904/DTD/svg10.dtd">
<svg version="1.0" xmlns="http://www.w3.org/2000/svg"
 width="32.000000pt" height="32.000000pt" viewBox="0 0 32.000000 32.000000"
 preserveAspectRatio="xMidYMid meet">
<metadata>
Created by potrace 1.16, written by Peter Selinger 2001-2019
</metadata>
<g transform="translate(0.000000,32.000000) scale(0.100000,-0.100000)"
fill="#000000" stroke="none">
<path fill="#000000" stroke="none" d="M0 160 l0 -160 160 0 160 0 0 160 0
160 -160 0 -160 0 0 -160z"/>
<path fill="#ffffff" stroke="none" d="M161 296 c-14 -17 6 -27 37 -19 11 2
23 0 26 -6 4 -6 1 -9 -7 -5 -19 7 -38 -18 -27 -36 6 -10 12 -11 22 -3 18 14
59 24 52 12 -3 -5 -12 -9 -19 -9 -8 0 -19 -10 -26 -22 -10 -18 -9 -20 7 -14
16 5 16 3 -3 -12 -28 -24 -16 -50 16 -33 14 8 21 8 21 1 0 -5 -4 -10 -10 -10
-20 0 -10 -42 11 -47 28 -8 22 -47 -8 -51 -14 -2 -23 2 -23 9 0 16 -40 59 -54
59 -6 0 -17 9 -24 20 -15 25 -32 18 -25 -10 3 -11 9 -18 13 -15 17 11 3 -28
-15 -41 -24 -18 -49 -18 -65 1 -15 18 -3 42 13 26 16 -16 27 -14 27 5 0 9 -14
32 -31 52 -25 28 -30 41 -25 66 10 46 37 67 125 95 2 0 -2 -5 -8 -13z"/>
<path fill="#000000" stroke="none" d="M71 257 c-6 -8 -14 -27 -17 -44 -5 -24
0 -37 25 -65 17 -20 31 -43 31 -52 0 -22 -29 -33 -42 -15 -8 12 -9 11 -5 -1 2
-8 15 -15 28 -15 36 0 39 52 4 85 -40 38 -27 100 21 100 28 0 43 -25 25 -43
-21 -21 -11 -40 51 -98 61 -58 78 -68 78 -50 0 10 -71 81 -105 105 -16 12 -18
17 -7 27 15 16 16 51 0 67 -16 16 -73 15 -87 -1z"/>
<path fill="#000000" stroke="none" d="M86 224 c-3 -9 -6 -23 -6 -31 0 -12 3
-13 14 -4 12 10 13 8 9 -8 -3 -12 -1 -21 6 -21 6 0 11 9 11 19 0 11 5 23 10
26 6 3 10 13 10 21 0 19 -46 18 -54 -2z"/>
</g>
</svg>
