<?xml version="1.0" standalone="no"?>
<!DOCTYPE svg PUBLIC "-//W3C//DTD SVG 20010904//EN"
 "http://www.w3.org/TR/2001/REC-SVG-20010904/DTD/svg10.dtd">
<svg version="1.0" xmlns="http://www.w3.org/2000/svg"
 width="32.000000pt" height="32.000000pt" viewBox="0 0 32.000000 32.000000"
 preserveAspectRatio="xMidYMid meet">
<metadata>
Created by potrace 1.16, written by Peter Selinger 2001-2019
</metadata>
<g transform="translate(0.000000,32.000000) scale(0.100000,-0.100000)"
fill="#000000" stroke="none">
<path fill="#000000" stroke="none" d="M0 160 l0 -160 160 0 160 0 0 160 0
160 -160 0 -160 0 0 -160z"/>
<path fill="#ffffff" stroke="none" d="M67 295 c36 -10 40 -56 7 -69 -22 -8
-54 12 -54 34 0 10 -3 26 -7 35 -5 13 -2 16 13 12 10 -3 29 -8 41 -12z"/>
<path fill="#ffffff" stroke="none" d="M305 288 c-4 -13 -9 -30 -11 -40 -9
-31 -56 -33 -68 -2 -9 24 12 52 41 57 16 2 32 5 36 6 5 0 5 -9 2 -21z"/>
<path fill="#ffffff" stroke="none" d="M196 258 c-4 6 -3 12 2 12 6 0 13 -11
16 -24 3 -14 15 -28 26 -31 11 -3 20 -11 20 -16 0 -12 -17 -4 -46 22 -18 17
-22 18 -40 3 -18 -15 -18 -15 0 -6 20 10 33 2 66 -42 14 -18 14 -19 -7 -8 -35
19 -41 14 -8 -8 17 -11 24 -20 18 -20 -7 0 -13 -5 -13 -11 0 -6 7 -9 15 -5 8
3 15 1 15 -4 0 -5 -9 -12 -20 -15 -11 -3 -23 -17 -26 -31 -8 -30 -22 -32 -20
-2 3 32 -4 41 -20 27 -11 -9 -21 -9 -39 -1 -23 11 -24 10 -15 -13 6 -15 6 -25
0 -25 -5 0 -12 9 -15 20 -3 11 -17 23 -31 26 -24 6 -35 26 -11 22 6 -2 11 3 9
10 -1 8 6 11 25 7 16 -3 22 -2 15 1 -6 3 -10 10 -6 15 3 5 1 9 -5 9 -6 0 -8 6
-5 14 4 9 -2 13 -20 11 -33 -4 -34 11 -2 19 14 3 28 15 31 26 3 11 11 20 16
20 6 0 6 -7 -1 -19 -16 -31 -12 -36 9 -12 11 12 22 22 25 22 21 -3 26 1 20 12
-5 7 0 6 11 -3 11 -9 16 -10 11 -2z"/>
<path fill="#ffffff" stroke="none" d="M84 84 c9 -8 16 -19 16 -24 0 -13 -30
-40 -45 -40 -7 0 -20 -3 -29 -6 -13 -5 -15 0 -10 27 6 31 27 59 45 59 4 0 15
-7 23 -16z"/>
<path fill="#ffffff" stroke="none" d="M284 84 c9 -8 16 -21 16 -29 0 -7 3
-20 6 -29 5 -13 0 -15 -27 -10 -31 6 -59 27 -59 45 0 10 30 39 40 39 5 0 16
-7 24 -16z"/>
<path fill="#000000" stroke="none" d="M155 110 c-3 -5 -1 -10 4 -10 6 0 11 5
11 10 0 6 -2 10 -4 10 -3 0 -8 -4 -11 -10z"/>
</g>
</svg>
