<?xml version="1.0" standalone="no"?>
<!DOCTYPE svg PUBLIC "-//W3C//DTD SVG 20010904//EN"
 "http://www.w3.org/TR/2001/REC-SVG-20010904/DTD/svg10.dtd">
<svg version="1.0" xmlns="http://www.w3.org/2000/svg"
 width="32.000000pt" height="32.000000pt" viewBox="0 0 32.000000 32.000000"
 preserveAspectRatio="xMidYMid meet">
<metadata>
Created by potrace 1.16, written by Peter Selinger 2001-2019
</metadata>
<g transform="translate(0.000000,32.000000) scale(0.100000,-0.100000)"
fill="#000000" stroke="none">
<path fill="#000000" stroke="none" d="M248 293 c-20 -5 -23 -18 -8 -28 6 -4
7 -12 4 -18 -4 -7 4 -1 19 12 l26 23 -5 -23 c-4 -22 -4 -22 5 -4 20 42 10 52
-41 38z"/>
<path fill="#000000" stroke="none" d="M24 274 c3 -9 6 -19 6 -24 0 -4 11 -7
24 -6 l25 1 -21 23 c-25 26 -43 29 -34 6z"/>
<path fill="#000000" stroke="none" d="M25 59 c-9 -39 -3 -44 32 -30 22 9 23
10 4 7 l-23 -5 23 26 c13 15 18 23 12 19 -7 -4 -13 -2 -13 3 0 25 -29 8 -35
-20z"/>
<path fill="#000000" stroke="none" d="M244 56 c-1 -17 5 -26 19 -30 32 -8 34
2 6 29 l-24 25 -1 -24z"/>
</g>
</svg>
