<?xml version="1.0" standalone="no"?>
<!DOCTYPE svg PUBLIC "-//W3C//DTD SVG 20010904//EN"
 "http://www.w3.org/TR/2001/REC-SVG-20010904/DTD/svg10.dtd">
<svg version="1.0" xmlns="http://www.w3.org/2000/svg"
 width="32.000000pt" height="32.000000pt" viewBox="0 0 32.000000 32.000000"
 preserveAspectRatio="xMidYMid meet">
<metadata>
Created by potrace 1.16, written by Peter Selinger 2001-2019
</metadata>
<g transform="translate(0.000000,32.000000) scale(0.100000,-0.100000)"
fill="#000000" stroke="none">
<path fill="#000000" stroke="none" d="M0 160 l0 -160 160 0 160 0 0 160 0
160 -160 0 -160 0 0 -160z"/>
<path fill="#ffffff" stroke="none" d="M67 295 c36 -10 40 -56 7 -69 -22 -8
-54 12 -54 34 0 10 -3 26 -7 35 -5 13 -2 16 13 12 10 -3 29 -8 41 -12z"/>
<path fill="#ffffff" stroke="none" d="M305 288 c-4 -13 -9 -30 -11 -40 -9
-31 -56 -33 -68 -2 -9 24 12 52 41 57 16 2 32 5 36 6 5 0 5 -9 2 -21z"/>
<path fill="#ffffff" stroke="none" d="M132 242 c-7 -2 -12 -15 -12 -29 l0
-24 29 20 c16 12 37 21 47 21 16 0 16 -2 -2 -22 -10 -13 -12 -17 -4 -11 13 9
19 5 38 -23 12 -19 18 -34 13 -34 -6 0 -14 7 -19 16 -6 10 -14 14 -22 9 -7 -5
-8 -10 -2 -14 12 -7 -3 -51 -18 -51 -5 0 -10 5 -10 10 0 6 6 10 13 10 9 0 9 2
-1 9 -17 11 -66 -35 -58 -55 12 -30 -11 -12 -26 21 -15 33 -15 34 4 24 13 -7
24 -7 30 -1 7 7 1 15 -18 23 -15 8 -30 21 -32 29 -4 10 0 9 13 -4 15 -14 20
-16 24 -5 2 7 -1 15 -7 17 -15 5 -15 24 -1 56 7 14 17 22 22 19 8 -5 7 -8 -1
-11z"/>
<path fill="#ffffff" stroke="none" d="M250 210 c8 -5 12 -11 9 -14 -3 -3 -14
1 -25 9 -21 16 -8 20 16 5z"/>
<path fill="#ffffff" stroke="none" d="M83 203 c-7 -2 -19 -2 -25 0 -7 3 -2 5
12 5 14 0 19 -2 13 -5z"/>
<path fill="#ffffff" stroke="none" d="M260 121 c0 -5 -7 -12 -16 -15 -14 -5
-15 -4 -4 9 14 17 20 19 20 6z"/>
<path fill="#ffffff" stroke="none" d="M214 75 c-5 -19 -9 -23 -15 -14 -4 7
-3 21 3 32 13 26 21 15 12 -18z"/>
<path fill="#ffffff" stroke="none" d="M84 84 c9 -8 16 -19 16 -24 0 -13 -30
-40 -45 -40 -7 0 -20 -3 -29 -6 -13 -5 -15 0 -10 27 6 31 27 59 45 59 4 0 15
-7 23 -16z"/>
<path fill="#ffffff" stroke="none" d="M284 84 c9 -8 16 -21 16 -29 0 -7 3
-20 6 -29 5 -13 0 -15 -27 -10 -31 6 -59 27 -59 45 0 10 30 39 40 39 5 0 16
-7 24 -16z"/>
</g>
</svg>
