<?xml version="1.0" standalone="no"?>
<!DOCTYPE svg PUBLIC "-//W3C//DTD SVG 20010904//EN"
 "http://www.w3.org/TR/2001/REC-SVG-20010904/DTD/svg10.dtd">
<svg version="1.0" xmlns="http://www.w3.org/2000/svg"
 width="32.000000pt" height="32.000000pt" viewBox="0 0 32.000000 32.000000"
 preserveAspectRatio="xMidYMid meet">
<metadata>
Created by potrace 1.16, written by Peter Selinger 2001-2019
</metadata>
<g transform="translate(0.000000,32.000000) scale(0.100000,-0.100000)"
fill="#000000" stroke="none">
<path fill="#000000" stroke="none" d="M0 160 l0 -160 160 0 160 0 0 160 0
160 -160 0 -160 0 0 -160z"/>
<path fill="#ffffff" stroke="none" d="M290 292 c0 -5 -9 -17 -20 -27 -11 -10
-20 -16 -20 -12 0 3 -3 12 -6 20 -3 10 2 17 13 20 29 8 33 7 33 -1z"/>
<path fill="#ffffff" stroke="none" d="M54 271 c16 -17 16 -19 0 -25 -20 -8
-19 -8 -28 22 -9 27 5 29 28 3z"/>
<path fill="#ffffff" stroke="none" d="M58 72 c9 -7 8 -13 -8 -27 -24 -22 -31
-17 -23 13 6 24 11 26 31 14z"/>
<path fill="#ffffff" stroke="none" d="M289 26 c-3 -3 -14 -3 -26 0 -14 4 -20
13 -19 30 l1 24 24 -25 c14 -13 23 -27 20 -29z"/>
</g>
</svg>
