<?xml version="1.0" standalone="no"?>
<!DOCTYPE svg PUBLIC "-//W3C//DTD SVG 20010904//EN"
 "http://www.w3.org/TR/2001/REC-SVG-20010904/DTD/svg10.dtd">
<svg version="1.0" xmlns="http://www.w3.org/2000/svg"
 width="32.000000pt" height="32.000000pt" viewBox="0 0 32.000000 32.000000"
 preserveAspectRatio="xMidYMid meet">
<metadata>
Created by potrace 1.16, written by Peter Selinger 2001-2019
</metadata>
<g transform="translate(0.000000,32.000000) scale(0.100000,-0.100000)"
fill="#000000" stroke="none">
<path fill="#000000" stroke="none" d="M0 160 l0 -160 160 0 160 0 0 160 0
160 -160 0 -160 0 0 -160z"/>
<path fill="#ffffff" stroke="none" d="M67 295 c36 -10 40 -56 7 -69 -22 -8
-54 12 -54 34 0 10 -3 26 -7 35 -5 13 -2 16 13 12 10 -3 29 -8 41 -12z"/>
<path fill="#ffffff" stroke="none" d="M305 288 c-4 -13 -9 -30 -11 -40 -9
-31 -56 -33 -68 -2 -9 24 12 52 41 57 16 2 32 5 36 6 5 0 5 -9 2 -21z"/>
<path fill="#ffffff" stroke="none" d="M109 219 c-7 -14 -7 -25 -1 -31 7 -7
15 -1 23 18 8 15 21 30 29 32 10 4 9 0 -4 -13 -13 -14 -15 -20 -6 -23 7 -3 15
1 19 7 6 9 32 10 84 2 4 0 7 -6 7 -12 0 -5 -4 -7 -10 -4 -5 3 -10 0 -11 -7 0
-10 -2 -10 -6 0 -2 6 -16 12 -30 12 l-24 0 20 -29 c22 -31 26 -73 10 -106 -7
-15 -8 -12 -5 17 3 27 0 40 -12 49 -14 11 -15 11 -5 0 10 -11 4 -20 -29 -43
-32 -24 -42 -27 -49 -16 -12 18 -11 28 1 28 6 0 10 -7 10 -15 0 -12 5 -10 20
5 12 12 18 26 14 31 -4 7 -9 8 -13 1 -7 -12 -51 3 -51 18 0 5 5 10 10 10 6 0
10 -6 10 -12 0 -10 2 -10 9 0 9 16 -27 57 -56 65 -14 4 -13 5 5 6 12 0 25 8
28 16 4 8 10 15 15 15 6 0 5 -9 -2 -21z"/>
<path fill="#ffffff" stroke="none" d="M260 121 c0 -5 -7 -12 -16 -15 -14 -5
-15 -4 -4 9 14 17 20 19 20 6z"/>
<path fill="#ffffff" stroke="none" d="M77 114 c-3 -3 -12 -4 -19 -1 -8 3 -5
6 6 6 11 1 17 -2 13 -5z"/>
<path fill="#ffffff" stroke="none" d="M84 84 c9 -8 16 -19 16 -24 0 -13 -30
-40 -45 -40 -7 0 -20 -3 -29 -6 -13 -5 -15 0 -10 27 6 31 27 59 45 59 4 0 15
-7 23 -16z"/>
<path fill="#ffffff" stroke="none" d="M284 84 c9 -8 16 -21 16 -29 0 -7 3
-20 6 -29 5 -13 0 -15 -27 -10 -31 6 -59 27 -59 45 0 10 30 39 40 39 5 0 16
-7 24 -16z"/>
</g>
</svg>
