<?xml version="1.0" standalone="no"?>
<!DOCTYPE svg PUBLIC "-//W3C//DTD SVG 20010904//EN"
 "http://www.w3.org/TR/2001/REC-SVG-20010904/DTD/svg10.dtd">
<svg version="1.0" xmlns="http://www.w3.org/2000/svg"
 width="32.000000pt" height="32.000000pt" viewBox="0 0 32.000000 32.000000"
 preserveAspectRatio="xMidYMid meet">
<metadata>
Created by potrace 1.16, written by Peter Selinger 2001-2019
</metadata>
<g transform="translate(0.000000,32.000000) scale(0.100000,-0.100000)"
fill="#000000" stroke="none">
<path fill="#000000" stroke="none" d="M267 303 c-29 -5 -50 -33 -41 -57 12
-31 59 -29 68 2 2 10 7 27 11 40 3 12 3 21 -2 21 -4 -1 -20 -4 -36 -6z"/>
<path fill="#000000" stroke="none" d="M24 268 c8 -39 15 -47 25 -29 5 7 13
11 19 7 5 -3 15 1 22 9 10 12 8 14 -8 10 -12 -2 -26 2 -32 10 -9 11 -7 13 12
9 21 -4 21 -4 3 5 -38 18 -48 13 -41 -21z"/>
<path fill="#000000" stroke="none" d="M140 200 c0 -32 -16 -41 -23 -12 -4 14
-5 14 -6 1 0 -9 6 -22 14 -29 21 -17 19 -28 -7 -33 -21 -4 -21 -4 3 -6 14 0
31 5 37 11 10 10 15 10 23 -2 9 -13 10 -12 5 3 -3 9 0 17 6 17 7 0 6 5 -2 15
-6 8 -9 19 -5 26 5 8 1 9 -15 4 -20 -6 -22 -4 -17 14 3 11 1 21 -4 21 -5 0 -9
-13 -9 -30z"/>
<path fill="#000000" stroke="none" d="M238 203 c7 -3 16 -2 19 1 4 3 -2 6
-13 5 -11 0 -14 -3 -6 -6z"/>
<path fill="#000000" stroke="none" d="M38 88 c-8 -7 -18 -28 -22 -47 -5 -27
-3 -32 10 -27 9 3 22 6 29 6 15 0 45 27 45 40 0 10 -29 40 -39 40 -4 0 -14 -6
-23 -12z"/>
<path fill="#000000" stroke="none" d="M107 80 c3 -11 9 -20 15 -20 5 0 4 9
-2 20 -6 11 -12 20 -14 20 -2 0 -2 -9 1 -20z"/>
<path fill="#000000" stroke="none" d="M249 88 c-1 -7 -1 -19 0 -25 1 -7 -3
-13 -9 -13 -23 0 -8 -19 21 -25 39 -9 44 -3 30 32 -8 21 -10 22 -7 5 4 -19 2
-21 -9 -12 -8 6 -12 20 -10 31 2 10 0 19 -6 19 -5 0 -10 -6 -10 -12z"/>
</g>
</svg>
