<?xml version="1.0" standalone="no"?>
<!DOCTYPE svg PUBLIC "-//W3C//DTD SVG 20010904//EN"
 "http://www.w3.org/TR/2001/REC-SVG-20010904/DTD/svg10.dtd">
<svg version="1.0" xmlns="http://www.w3.org/2000/svg"
 width="32.000000pt" height="32.000000pt" viewBox="0 0 32.000000 32.000000"
 preserveAspectRatio="xMidYMid meet">
<metadata>
Created by potrace 1.16, written by Peter Selinger 2001-2019
</metadata>
<g transform="translate(0.000000,32.000000) scale(0.100000,-0.100000)"
fill="#000000" stroke="none">
<path fill="#000000" stroke="none" d="M149 301 c11 -7 9 -10 -9 -16 -15 -5
-19 -10 -10 -15 6 -4 12 -11 12 -15 0 -4 -6 -11 -12 -15 -9 -5 -5 -10 11 -15
23 -8 23 -8 4 -16 l-20 -8 20 0 c16 -1 17 -3 5 -11 -8 -5 -26 -7 -40 -4 -22 4
-22 3 -5 -5 14 -7 15 -10 5 -10 -12 -1 -12 -3 -1 -10 10 -7 8 -12 -10 -25 -15
-10 -18 -16 -9 -16 13 0 13 -2 0 -10 -13 -9 -13 -10 0 -10 13 0 13 -1 0 -10
-8 -5 -10 -10 -4 -10 6 0 11 -7 11 -15 0 -8 -5 -15 -11 -15 -6 0 -4 -5 4 -10
13 -9 13 -10 0 -10 -11 -1 -11 -3 3 -11 10 -6 21 -8 24 -5 4 3 0 6 -8 6 -11 0
-11 2 1 10 13 9 13 10 0 10 -13 0 -13 1 0 10 13 9 13 10 0 10 -13 0 -13 1 0
10 13 9 13 10 0 10 -13 0 -13 1 0 10 9 5 19 5 27 -1 8 -7 18 -7 33 1 15 8 25
8 38 -2 21 -16 27 -38 9 -38 -8 0 -7 -4 3 -10 13 -9 13 -10 0 -10 -11 -1 -11
-3 3 -11 10 -6 21 -8 24 -5 4 3 0 6 -8 6 -11 0 -11 2 1 10 13 9 13 10 0 10
-13 0 -13 1 0 10 13 9 13 10 0 10 -13 0 -13 1 0 10 13 9 13 10 0 10 -13 0 -13
1 0 10 13 8 13 10 1 10 -11 0 -9 4 5 15 19 14 16 17 -21 19 -14 1 -20 8 -20
24 0 12 -5 26 -11 30 -5 4 -10 24 -9 45 1 25 -4 41 -14 47 -14 8 -14 9 -1 10
13 0 13 1 0 10 -8 5 -19 10 -25 10 -5 0 -4 -4 4 -9z"/>
<path fill="#ffffff" stroke="none" d="M170 270 c13 -9 13 -10 0 -10 -13 0
-13 -1 0 -10 13 -9 13 -10 0 -10 -13 0 -13 -1 0 -10 8 -5 11 -10 5 -10 -5 0
-17 5 -25 10 -13 9 -13 10 0 10 13 0 13 1 0 10 -13 9 -13 10 0 10 13 0 13 1 0
10 -8 5 -10 10 -5 10 6 0 17 -5 25 -10z"/>
<path fill="#ffffff" stroke="none" d="M190 180 c13 -9 13 -10 0 -10 -13 0
-13 -1 0 -10 13 -8 13 -10 0 -10 -10 0 -8 -5 7 -15 12 -8 30 -12 40 -9 10 3 7
-2 -7 -10 -14 -8 -19 -15 -11 -16 8 0 11 -3 8 -6 -4 -4 -13 -1 -21 5 -11 10
-20 10 -36 1 -15 -8 -25 -9 -32 -2 -6 6 -18 8 -27 5 -13 -4 -14 -3 -1 5 8 6
18 8 24 5 5 -3 6 -1 2 5 -5 8 -1 10 11 6 15 -5 15 -4 3 5 -9 6 -18 7 -24 1
-16 -16 -29 -11 -16 5 8 9 21 13 34 10 19 -5 19 -5 -2 8 l-23 13 23 12 c29 14
30 14 48 2z"/>
<path fill="#000000" stroke="none" d="M152 171 c-11 -6 -10 -10 4 -15 9 -3
19 -4 22 -1 3 3 -1 5 -9 5 -11 0 -11 2 1 10 8 5 11 10 5 10 -5 0 -16 -4 -23
-9z"/>
<path fill="#000000" stroke="none" d="M169 133 c10 -4 8 -9 -10 -20 -16 -10
-18 -12 -4 -7 11 4 28 7 38 8 17 0 17 1 1 13 -10 7 -23 13 -28 12 -6 0 -5 -3
3 -6z"/>
<path fill="#000000" stroke="none" d="M71 251 c-27 -15 -30 -19 -16 -24 21
-9 48 6 51 27 1 9 2 16 1 16 -1 -1 -17 -9 -36 -19z"/>
<path fill="#ffffff" stroke="none" d="M90 240 c-8 -5 -19 -10 -25 -10 -5 0
-3 5 5 10 8 5 20 10 25 10 6 0 3 -5 -5 -10z"/>
<path fill="#000000" stroke="none" d="M224 253 c3 -21 33 -36 51 -25 12 6 8
11 -19 24 -30 15 -34 15 -32 1z"/>
<path fill="#ffffff" stroke="none" d="M260 240 c8 -5 11 -10 5 -10 -5 0 -17
5 -25 10 -8 5 -10 10 -5 10 6 0 17 -5 25 -10z"/>
<path fill="#000000" stroke="none" d="M40 210 c8 -5 20 -10 25 -10 6 0 3 5
-5 10 -8 5 -19 10 -25 10 -5 0 -3 -5 5 -10z"/>
<path fill="#000000" stroke="none" d="M270 210 c-8 -5 -10 -10 -5 -10 6 0 17
5 25 10 8 5 11 10 5 10 -5 0 -17 -5 -25 -10z"/>
<path fill="#000000" stroke="none" d="M30 190 c13 -9 13 -10 0 -10 -13 0 -13
-1 0 -10 8 -5 20 -10 25 -10 6 0 3 5 -5 10 -13 9 -13 10 0 10 13 0 13 1 0 10
-8 5 -19 10 -25 10 -5 0 -3 -5 5 -10z"/>
<path fill="#000000" stroke="none" d="M280 190 c-13 -9 -13 -10 0 -10 13 0
13 -1 0 -10 -8 -5 -10 -10 -5 -10 6 0 17 5 25 10 13 9 13 10 0 10 -13 0 -13 1
0 10 8 5 11 10 5 10 -5 0 -17 -5 -25 -10z"/>
</g>
</svg>
