<?xml version="1.0" standalone="no"?>
<!DOCTYPE svg PUBLIC "-//W3C//DTD SVG 20010904//EN"
 "http://www.w3.org/TR/2001/REC-SVG-20010904/DTD/svg10.dtd">
<svg version="1.0" xmlns="http://www.w3.org/2000/svg"
 width="32.000000pt" height="32.000000pt" viewBox="0 0 32.000000 32.000000"
 preserveAspectRatio="xMidYMid meet">
<metadata>
Created by potrace 1.16, written by Peter Selinger 2001-2019
</metadata>
<g transform="translate(0.000000,32.000000) scale(0.100000,-0.100000)"
fill="#000000" stroke="none">
<path fill="#000000" stroke="none" d="M109 291 c-26 -26 -28 -35 -26 -88 1
-32 6 -64 10 -71 5 -7 9 -32 10 -56 1 -24 5 -39 9 -33 8 12 0 74 -11 92 -3 6
-7 36 -8 68 -2 50 1 62 22 83 31 31 59 31 90 0 22 -22 24 -32 21 -83 -1 -32
-6 -66 -10 -75 -4 -9 -6 -25 -3 -35 3 -12 5 -10 6 8 0 14 4 29 8 33 4 4 9 34
10 68 2 54 0 62 -26 89 -37 37 -65 37 -102 0z"/>
<path fill="#000000" stroke="none" d="M120 271 c-13 -25 -13 -71 0 -71 6 0
10 7 10 16 0 8 5 12 10 9 6 -4 8 -11 5 -16 -11 -16 7 -9 21 9 13 16 13 16 14
-1 0 -28 23 -15 27 15 7 50 -64 81 -87 39z"/>
<path fill="#ffffff" stroke="none" d="M173 263 c3 -5 -5 -8 -18 -8 -13 0 -21
3 -18 8 2 4 10 7 18 7 8 0 16 -3 18 -7z"/>
<path fill="#000000" stroke="none" d="M116 165 c-3 -11 -1 -24 4 -29 6 -6 10
-21 10 -34 0 -15 4 -21 12 -16 7 4 8 3 4 -5 -4 -6 -2 -20 5 -29 7 -9 10 -14 5
-10 -8 7 -36 -14 -36 -27 0 -3 17 -5 38 -3 25 2 37 8 37 18 0 8 -6 14 -13 12
-8 -1 -11 2 -7 8 3 5 8 26 10 46 1 20 8 40 14 43 5 4 8 16 5 27 -8 30 -80 29
-88 -1z"/>
<path fill="#ffffff" stroke="none" d="M180 145 c0 -7 -30 -13 -34 -7 -3 4 4
9 15 9 10 1 19 0 19 -2z"/>
<path fill="#ffffff" stroke="none" d="M175 110 c3 -5 -1 -10 -10 -10 -9 0
-13 5 -10 10 3 6 8 10 10 10 2 0 7 -4 10 -10z"/>
</g>
</svg>
