<?xml version="1.0" standalone="no"?>
<!DOCTYPE svg PUBLIC "-//W3C//DTD SVG 20010904//EN"
 "http://www.w3.org/TR/2001/REC-SVG-20010904/DTD/svg10.dtd">
<svg version="1.0" xmlns="http://www.w3.org/2000/svg"
 width="32.000000pt" height="32.000000pt" viewBox="0 0 32.000000 32.000000"
 preserveAspectRatio="xMidYMid meet">
<metadata>
Created by potrace 1.16, written by Peter Selinger 2001-2019
</metadata>
<g transform="translate(0.000000,32.000000) scale(0.100000,-0.100000)"
fill="#000000" stroke="none">
<path fill="#000000" stroke="none" d="M115 300 c3 -5 8 -10 11 -10 2 0 4 5 4
10 0 6 -5 10 -11 10 -5 0 -7 -4 -4 -10z"/>
<path fill="#000000" stroke="none" d="M40 292 c0 -5 7 -15 15 -22 8 -7 15 -8
15 -2 0 5 -7 15 -15 22 -8 7 -15 8 -15 2z"/>
<path fill="#000000" stroke="none" d="M160 290 c0 -5 5 -10 11 -10 5 0 7 5 4
10 -3 6 -8 10 -11 10 -2 0 -4 -4 -4 -10z"/>
<path fill="#000000" stroke="none" d="M262 279 c-18 -12 -31 -24 -28 -26 2
-3 15 3 29 12 20 13 26 13 30 3 3 -7 4 -3 4 10 -1 12 -1 22 -2 22 0 0 -15 -10
-33 -21z"/>
<path fill="#000000" stroke="none" d="M90 224 c0 -14 3 -14 15 -4 8 7 15 14
15 16 0 2 -7 4 -15 4 -8 0 -15 -7 -15 -16z"/>
<path fill="#000000" stroke="none" d="M185 220 c-3 -6 -10 -8 -15 -5 -5 3
-11 1 -15 -5 -4 -6 7 -9 27 -7 18 1 32 7 31 12 -2 14 -20 18 -28 5z"/>
<path fill="#000000" stroke="none" d="M115 210 c3 -5 10 -10 16 -10 5 0 9 5
9 10 0 6 -7 10 -16 10 -8 0 -12 -4 -9 -10z"/>
<path fill="#000000" stroke="none" d="M80 185 c0 -8 -5 -14 -11 -12 -6 1 -14
-4 -16 -10 -3 -7 0 -13 7 -13 6 0 8 -5 4 -12 -5 -9 -3 -9 9 1 9 7 15 17 12 21
-3 5 -1 11 5 15 13 8 13 25 0 25 -5 0 -10 -7 -10 -15z"/>
<path fill="#000000" stroke="none" d="M172 175 c-8 -16 -23 -26 -47 -31 -49
-9 -58 -27 -9 -19 22 3 40 10 42 15 2 5 9 7 16 4 7 -3 17 6 24 20 8 19 8 25
-2 29 -8 3 -18 -5 -24 -18z"/>
<path fill="#000000" stroke="none" d="M170 99 c0 -5 5 -7 10 -4 6 3 10 8 10
11 0 2 -4 4 -10 4 -5 0 -10 -5 -10 -11z"/>
<path fill="#000000" stroke="none" d="M105 90 c-3 -5 -1 -10 4 -10 6 0 11 5
11 10 0 6 -2 10 -4 10 -3 0 -8 -4 -11 -10z"/>
<path fill="#000000" stroke="none" d="M255 69 c-4 -6 -5 -12 -2 -15 2 -3 7 2
10 11 7 17 1 20 -8 4z"/>
</g>
</svg>
