<?xml version="1.0" standalone="no"?>
<!DOCTYPE svg PUBLIC "-//W3C//DTD SVG 20010904//EN"
 "http://www.w3.org/TR/2001/REC-SVG-20010904/DTD/svg10.dtd">
<svg version="1.0" xmlns="http://www.w3.org/2000/svg"
 width="32.000000pt" height="32.000000pt" viewBox="0 0 32.000000 32.000000"
 preserveAspectRatio="xMidYMid meet">
<metadata>
Created by potrace 1.16, written by Peter Selinger 2001-2019
</metadata>
<g transform="translate(0.000000,32.000000) scale(0.100000,-0.100000)"
fill="#000000" stroke="none">
<path fill="#000000" stroke="none" d="M0 160 l0 -160 160 0 160 0 0 160 0
160 -160 0 -160 0 0 -160z"/>
<path fill="#ffffff" stroke="none" d="M241 291 c-8 -5 -21 -7 -29 -3 -10 3
-13 1 -8 -6 4 -7 -3 -10 -21 -9 -17 1 -27 -3 -26 -9 1 -7 -5 -10 -16 -7 -9 2
-24 -3 -32 -13 -13 -15 -12 -16 11 -10 19 5 21 5 9 -3 -9 -6 -26 -9 -37 -6
-11 2 -26 -3 -33 -11 -8 -10 -8 -14 0 -14 6 0 11 5 11 11 0 5 5 7 11 3 8 -4 2
-12 -15 -21 -34 -18 -43 -11 -28 22 16 34 123 82 187 84 21 0 26 -2 16 -8z"/>
<path fill="#ffffff" stroke="none" d="M121 114 c-18 -13 -20 -18 -9 -31 10
-13 8 -18 -11 -34 -17 -14 -19 -19 -8 -19 9 0 19 5 22 10 4 6 10 8 15 5 5 -3
11 -1 15 5 3 5 1 10 -5 10 -6 0 -8 5 -4 11 4 8 10 6 17 -6 7 -14 6 -21 -6 -30
-17 -12 -117 -21 -117 -10 0 15 22 45 29 41 5 -3 23 13 41 35 17 22 35 38 38
34 3 -3 -4 -13 -17 -21z"/>
</g>
</svg>
