<?xml version="1.0" standalone="no"?>
<!DOCTYPE svg PUBLIC "-//W3C//DTD SVG 20010904//EN"
 "http://www.w3.org/TR/2001/REC-SVG-20010904/DTD/svg10.dtd">
<svg version="1.0" xmlns="http://www.w3.org/2000/svg"
 width="32.000000pt" height="32.000000pt" viewBox="0 0 32.000000 32.000000"
 preserveAspectRatio="xMidYMid meet">
<metadata>
Created by potrace 1.16, written by Peter Selinger 2001-2019
</metadata>
<g transform="translate(0.000000,32.000000) scale(0.100000,-0.100000)"
fill="#000000" stroke="none">
<path fill="#000000" stroke="none" d="M137 272 c-15 -17 -15 -19 2 -34 16
-14 20 -14 40 1 18 14 20 19 9 28 -28 21 -36 22 -51 5z"/>
<path fill="#ffffff" stroke="none" d="M180 266 c0 -3 -4 -8 -10 -11 -5 -3
-10 -1 -10 4 0 6 5 11 10 11 6 0 10 -2 10 -4z"/>
<path fill="#000000" stroke="none" d="M112 198 c-7 -7 -12 -18 -12 -24 0 -7
-10 -15 -22 -17 -21 -4 -21 -4 2 -6 20 -1 28 6 37 29 13 34 12 35 -5 18z"/>
<path fill="#000000" stroke="none" d="M257 168 c12 -13 23 -32 26 -43 5 -19
5 -19 6 1 1 19 -31 64 -46 64 -4 0 3 -10 14 -22z"/>
<path fill="#000000" stroke="none" d="M30 165 c0 -8 4 -15 8 -15 5 0 9 7 9
15 0 8 -4 15 -9 15 -4 0 -8 -7 -8 -15z"/>
<path fill="#000000" stroke="none" d="M178 133 c7 -3 16 -2 19 1 4 3 -2 6
-13 5 -11 0 -14 -3 -6 -6z"/>
<path fill="#000000" stroke="none" d="M197 109 c7 -7 15 -10 18 -7 3 3 -2 9
-12 12 -14 6 -15 5 -6 -5z"/>
<path fill="#000000" stroke="none" d="M260 88 c0 -4 7 -8 15 -8 8 0 15 4 15
8 0 5 -7 9 -15 9 -8 0 -15 -4 -15 -9z"/>
<path fill="#000000" stroke="none" d="M163 73 c9 -2 25 -2 35 0 9 3 1 5 -18
5 -19 0 -27 -2 -17 -5z"/>
<path fill="#000000" stroke="none" d="M115 51 c-3 -11 -14 -22 -23 -24 -9 -3
-6 -4 8 -4 20 1 26 7 28 24 2 28 -4 30 -13 4z"/>
<path fill="#000000" stroke="none" d="M218 48 c8 -8 8 -15 1 -24 -7 -9 -6
-12 5 -10 9 1 18 5 22 9 8 8 -14 37 -29 37 -7 0 -7 -4 1 -12z"/>
</g>
</svg>
