<?xml version="1.0" standalone="no"?>
<!DOCTYPE svg PUBLIC "-//W3C//DTD SVG 20010904//EN"
 "http://www.w3.org/TR/2001/REC-SVG-20010904/DTD/svg10.dtd">
<svg version="1.0" xmlns="http://www.w3.org/2000/svg"
 width="32.000000pt" height="32.000000pt" viewBox="0 0 32.000000 32.000000"
 preserveAspectRatio="xMidYMid meet">
<metadata>
Created by potrace 1.16, written by Peter Selinger 2001-2019
</metadata>
<g transform="translate(0.000000,32.000000) scale(0.100000,-0.100000)"
fill="#000000" stroke="none">
<path fill="#000000" stroke="none" d="M0 160 c0 -100 4 -160 10 -160 6 0 10
60 10 160 0 100 -4 160 -10 160 -6 0 -10 -60 -10 -160z"/>
<path fill="#000000" stroke="none" d="M97 305 c6 -17 25 -15 31 3 2 7 -5 12
-17 12 -14 0 -19 -5 -14 -15z"/>
<path fill="#000000" stroke="none" d="M300 213 l0 -108 -32 -1 c-18 -1 -34
-7 -36 -13 -3 -9 -7 -9 -17 -1 -8 6 -11 18 -9 25 4 10 0 12 -15 8 -12 -3 -21
-12 -21 -21 0 -8 3 -12 7 -8 4 4 15 -13 24 -36 12 -32 23 -44 40 -46 l24 -2
-25 14 c-14 9 -19 15 -11 16 11 0 11 3 1 15 -10 12 -8 16 15 25 36 14 55 -2
55 -46 0 -19 5 -34 10 -34 6 0 10 60 10 160 0 100 -4 160 -10 160 -6 0 -10
-43 -10 -107z"/>
<path fill="#000000" stroke="none" d="M120 285 c-7 -8 -10 -18 -6 -22 3 -3 6
-1 6 5 0 7 5 12 11 12 19 0 -9 -27 -35 -34 -18 -4 -23 -11 -19 -26 4 -14 0
-20 -10 -20 -9 0 -14 -7 -13 -17 2 -10 -4 -23 -13 -29 -12 -10 -13 -16 -3 -35
l12 -24 -6 24 c-4 15 -2 21 5 17 6 -4 13 4 17 19 3 13 10 22 16 19 5 -3 8 0 7
7 -4 18 19 59 33 59 7 0 7 -4 -1 -13 -6 -8 -8 -16 -6 -19 12 -12 14 -53 2 -67
-10 -12 -9 -13 3 -6 8 4 3 -3 -12 -18 -26 -24 -38 -57 -20 -57 4 0 20 14 35
31 15 17 27 25 27 18 0 -8 5 -6 12 6 6 11 17 24 25 28 7 4 13 13 13 19 0 7 -5
6 -14 -1 -12 -10 -13 -8 -9 10 5 17 3 20 -8 14 -8 -5 -6 1 4 12 11 13 14 23 8
27 -5 4 -15 -3 -21 -14 -6 -11 -15 -18 -21 -14 -6 3 1 16 16 30 31 29 31 67
-1 72 -11 2 -27 -4 -34 -13z"/>
<path fill="#ffffff" stroke="none" d="M170 276 c0 -3 -4 -8 -10 -11 -5 -3
-10 -1 -10 4 0 6 5 11 10 11 6 0 10 -2 10 -4z"/>
<path fill="#ffffff" stroke="none" d="M158 148 c-7 -19 -21 -12 -23 9 -1 18
1 20 12 11 8 -6 12 -15 11 -20z"/>
<path fill="#000000" stroke="none" d="M193 253 c-7 -2 -13 -9 -13 -14 0 -6 5
-7 10 -4 6 3 10 0 10 -8 0 -8 13 -31 30 -52 16 -20 27 -41 24 -46 -3 -5 0 -9
5 -9 6 0 11 6 11 13 0 8 4 7 10 -3 7 -11 10 -11 10 -2 0 7 -12 29 -26 47 -14
19 -27 40 -28 47 -4 32 -18 42 -43 31z"/>
<path fill="#ffffff" stroke="none" d="M220 240 c0 -5 -2 -10 -4 -10 -3 0 -8
5 -11 10 -3 6 -1 10 4 10 6 0 11 -4 11 -10z"/>
<path fill="#ffffff" stroke="none" d="M235 200 c3 -5 1 -10 -4 -10 -6 0 -11
5 -11 10 0 6 2 10 4 10 3 0 8 -4 11 -10z"/>
<path fill="#000000" stroke="none" d="M85 45 c-29 -23 -29 -24 -7 -25 12 0
22 4 22 9 0 5 7 11 15 13 8 2 11 8 7 15 -6 9 -16 6 -37 -12z"/>
</g>
</svg>
