<?xml version="1.0" standalone="no"?>
<!DOCTYPE svg PUBLIC "-//W3C//DTD SVG 20010904//EN"
 "http://www.w3.org/TR/2001/REC-SVG-20010904/DTD/svg10.dtd">
<svg version="1.0" xmlns="http://www.w3.org/2000/svg"
 width="32.000000pt" height="32.000000pt" viewBox="0 0 32.000000 32.000000"
 preserveAspectRatio="xMidYMid meet">
<metadata>
Created by potrace 1.16, written by Peter Selinger 2001-2019
</metadata>
<g transform="translate(0.000000,32.000000) scale(0.100000,-0.100000)"
fill="#000000" stroke="none">
<path fill="#000000" stroke="none" d="M0 160 c0 -100 4 -160 10 -160 6 0 10
60 10 160 0 100 -4 160 -10 160 -6 0 -10 -60 -10 -160z"/>
<path fill="#000000" stroke="none" d="M100 304 c0 -9 5 -14 12 -12 18 6 21
28 4 28 -9 0 -16 -7 -16 -16z"/>
<path fill="#000000" stroke="none" d="M300 209 c0 -102 -1 -110 -18 -105 -10
4 -27 -1 -38 -9 -18 -14 -18 -14 4 -10 39 7 52 -4 52 -46 0 -21 5 -39 10 -39
6 0 10 60 10 160 0 100 -4 160 -10 160 -6 0 -10 -44 -10 -111z"/>
<path fill="#000000" stroke="none" d="M120 285 c-7 -8 -10 -18 -6 -22 3 -3 6
-1 6 5 0 7 5 12 11 12 19 0 -9 -27 -35 -34 -18 -4 -23 -11 -19 -26 4 -14 0
-20 -11 -20 -10 0 -13 -6 -9 -15 3 -9 -2 -22 -13 -29 -15 -12 -16 -17 -6 -37
l12 -24 -6 24 c-4 15 -2 21 5 17 6 -4 13 4 17 19 3 13 10 22 16 19 5 -3 8 0 7
7 -4 18 19 59 32 59 6 0 8 -9 4 -20 -4 -14 2 -29 23 -51 27 -28 29 -29 43 -13
8 10 9 15 3 11 -16 -9 -25 28 -10 43 8 10 7 11 -4 8 -8 -3 -14 -12 -14 -21 1
-9 -4 -13 -12 -10 -8 3 -11 10 -7 16 4 6 1 7 -8 2 -8 -4 -3 3 11 16 26 26 50
27 50 3 0 -7 14 -29 31 -48 17 -20 28 -40 24 -46 -3 -5 -1 -10 4 -10 6 0 11 6
11 13 0 8 4 7 10 -3 7 -12 10 -12 10 -1 0 7 -14 31 -31 52 -17 21 -28 43 -25
48 9 13 -19 32 -37 25 -11 -4 -16 1 -19 18 -4 28 -39 36 -58 13z"/>
<path fill="#ffffff" stroke="none" d="M170 276 c0 -3 -4 -8 -10 -11 -5 -3
-10 -1 -10 4 0 6 5 11 10 11 6 0 10 -2 10 -4z"/>
<path fill="#ffffff" stroke="none" d="M225 241 c3 -5 1 -12 -4 -15 -5 -3 -11
1 -15 9 -6 16 9 21 19 6z"/>
<path fill="#ffffff" stroke="none" d="M245 183 l18 -28 -21 19 c-12 11 -22
23 -22 28 0 14 7 9 25 -19z"/>
<path fill="#000000" stroke="none" d="M119 143 c-12 -15 -12 -16 1 -9 8 4 5
-1 -6 -11 -27 -22 -43 -68 -23 -61 8 3 13 15 13 27 -1 15 3 20 13 17 8 -4 17
3 23 17 7 18 9 19 9 4 1 -10 6 -15 11 -12 6 3 10 -1 10 -10 0 -13 4 -14 20 -5
11 6 20 16 20 22 0 9 -3 9 -12 0 -9 -9 -18 -6 -38 13 -25 24 -28 25 -41 8z"/>
<path fill="#000000" stroke="none" d="M194 74 c3 -9 6 -18 6 -20 0 -3 5 -2
11 1 6 4 10 1 8 -6 -4 -30 2 -39 24 -39 22 1 22 1 -3 15 -15 9 -19 15 -10 15
11 0 9 6 -8 19 -15 13 -18 21 -10 24 8 3 5 6 -6 6 -13 1 -16 -4 -12 -15z"/>
<path fill="#000000" stroke="none" d="M76 35 c-3 -9 0 -15 9 -15 8 0 15 7 15
15 0 19 -16 19 -24 0z"/>
</g>
</svg>
