<?xml version="1.0" standalone="no"?>
<!DOCTYPE svg PUBLIC "-//W3C//DTD SVG 20010904//EN"
 "http://www.w3.org/TR/2001/REC-SVG-20010904/DTD/svg10.dtd">
<svg version="1.0" xmlns="http://www.w3.org/2000/svg"
 width="32.000000pt" height="32.000000pt" viewBox="0 0 32.000000 32.000000"
 preserveAspectRatio="xMidYMid meet">
<metadata>
Created by potrace 1.16, written by Peter Selinger 2001-2019
</metadata>
<g transform="translate(0.000000,32.000000) scale(0.100000,-0.100000)"
fill="#000000" stroke="none">
<path fill="#000000" stroke="none" d="M0 160 l0 -160 23 0 c13 0 35 6 50 13
21 9 27 19 27 44 0 25 5 33 30 41 16 6 32 7 35 2 3 -5 -3 -11 -14 -15 -19 -6
-36 -58 -25 -76 8 -13 118 -11 131 2 13 13 -3 58 -25 72 -10 7 -8 14 12 34 15
15 22 31 19 40 -5 12 -3 14 7 8 8 -5 11 -4 7 3 -10 14 -49 2 -43 -13 2 -7 2
-16 -2 -20 -4 -4 -7 -10 -7 -13 -1 -4 -6 -17 -13 -30 -14 -25 -27 -22 -35 7
-3 15 0 18 17 14 17 -4 18 -3 6 6 -8 6 -25 11 -37 11 -33 0 -54 27 -51 66 2
29 5 33 21 28 13 -4 17 -2 13 5 -12 18 -39 12 -63 -13 -24 -25 -73 -32 -73
-10 0 7 5 16 10 19 5 3 10 13 10 22 0 8 10 27 21 41 21 25 22 26 16 5 -3 -13
-1 -23 3 -23 5 0 16 10 26 23 l16 22 -5 -22 c-3 -13 -1 -24 4 -24 5 -1 14 -3
19 -4 6 -1 14 -3 19 -4 5 0 17 -8 25 -17 15 -14 16 -14 16 1 0 9 -5 25 -11 37
-15 28 -7 31 38 18 59 -18 87 -65 87 -147 1 -54 -2 -66 -16 -69 -10 -1 -15 3
-11 12 2 7 2 18 -2 25 -12 18 -22 -7 -17 -42 3 -19 7 -26 12 -19 5 8 10 3 14
-13 3 -14 13 -27 21 -31 13 -5 15 16 15 149 l0 155 -160 0 -160 0 0 -160z"/>
<path fill="#ffffff" stroke="none" d="M131 287 c-10 -9 -11 -8 -5 6 3 10 9
15 12 12 3 -3 0 -11 -7 -18z"/>
<path fill="#ffffff" stroke="none" d="M82 159 c-12 -9 -18 -19 -15 -23 4 -3
0 -6 -7 -6 -11 0 -11 -3 -2 -12 18 -18 14 -32 -5 -17 -15 12 -16 12 -11 -3 5
-11 2 -15 -10 -14 -27 4 -24 28 8 66 18 20 30 28 31 20 0 -8 5 -4 11 10 7 18
12 21 16 11 2 -8 -5 -22 -16 -32z"/>
<path fill="#ffffff" stroke="none" d="M83 46 c4 -10 1 -13 -8 -9 -8 3 -12 9
-9 14 7 12 11 11 17 -5z"/>
<path fill="#ffffff" stroke="none" d="M184 45 c-8 -19 -24 -19 -24 0 0 8 7
15 15 15 9 0 12 -6 9 -15z"/>
<path fill="#ffffff" stroke="none" d="M150 30 c0 -5 -4 -10 -10 -10 -5 0 -10
5 -10 10 0 6 5 10 10 10 6 0 10 -4 10 -10z"/>
<path fill="#000000" stroke="none" d="M207 270 c7 -25 20 -34 53 -36 23 -1
23 0 -10 27 -41 34 -50 36 -43 9z"/>
<path fill="#ffffff" stroke="none" d="M254 252 c3 -5 -1 -9 -9 -9 -8 0 -12 4
-9 9 3 4 7 8 9 8 2 0 6 -4 9 -8z"/>
<path fill="#000000" stroke="none" d="M55 250 c-3 -6 1 -7 9 -4 18 7 21 14 7
14 -6 0 -13 -4 -16 -10z"/>
<path fill="#000000" stroke="none" d="M252 203 c5 -7 14 -10 19 -8 4 3 13 -3
19 -12 11 -17 11 -17 6 0 -3 10 -6 22 -6 26 0 4 -11 7 -25 7 -18 0 -22 -3 -13
-13z"/>
</g>
</svg>
