<?xml version="1.0" standalone="no"?>
<!DOCTYPE svg PUBLIC "-//W3C//DTD SVG 20010904//EN"
 "http://www.w3.org/TR/2001/REC-SVG-20010904/DTD/svg10.dtd">
<svg version="1.0" xmlns="http://www.w3.org/2000/svg"
 width="32.000000pt" height="32.000000pt" viewBox="0 0 32.000000 32.000000"
 preserveAspectRatio="xMidYMid meet">
<metadata>
Created by potrace 1.16, written by Peter Selinger 2001-2019
</metadata>
<g transform="translate(0.000000,32.000000) scale(0.100000,-0.100000)"
fill="#000000" stroke="none">
<path fill="#000000" stroke="none" d="M81 304 c-43 -30 -69 -141 -38 -161 6
-4 12 -15 12 -23 0 -8 6 -14 13 -12 8 1 11 -2 7 -8 -8 -13 40 -13 68 1 21 10
21 10 3 -5 -24 -19 -67 -21 -85 -3 -11 10 -12 8 -6 -13 4 -14 8 -36 8 -50 2
-22 7 -25 47 -28 87 -5 183 71 110 88 l-25 6 33 29 c29 25 32 34 32 82 0 47
-4 59 -29 84 -25 24 -38 29 -78 29 -29 0 -58 -7 -72 -16z"/>
<path fill="#ffffff" stroke="none" d="M121 293 c12 -16 12 -17 -2 -6 -9 7
-20 9 -24 5 -5 -4 -5 -1 -1 6 9 16 11 15 27 -5z"/>
<path fill="#ffffff" stroke="none" d="M165 294 c6 0 17 -2 25 -2 17 -2 40
-54 40 -89 0 -23 -34 -58 -49 -49 -5 4 -13 1 -17 -5 -5 -8 -9 -8 -14 2 -5 7
-3 21 3 31 10 16 8 22 -8 35 -17 13 -17 15 -2 9 11 -3 16 -2 12 4 -3 6 -13 10
-21 10 -8 0 -14 7 -14 15 0 8 -6 12 -13 9 -8 -3 -20 3 -28 13 -12 16 -12 17 1
8 24 -16 55 -12 54 8 -1 10 3 14 10 10 6 -4 16 -8 21 -9z"/>
<path fill="#ffffff" stroke="none" d="M244 244 c3 -8 2 -12 -4 -9 -6 3 -10
10 -10 16 0 14 7 11 14 -7z"/>
<path fill="#ffffff" stroke="none" d="M106 238 c5 -7 3 -8 -6 -3 -10 6 -12 4
-6 -11 5 -14 4 -16 -5 -7 -6 6 -8 16 -5 22 9 14 13 14 22 -1z"/>
<path fill="#ffffff" stroke="none" d="M110 162 c0 -15 -2 -15 -10 -2 -13 20
-13 33 0 25 6 -3 10 -14 10 -23z"/>
<path fill="#ffffff" stroke="none" d="M184 105 c-9 -14 -18 -25 -21 -25 -5 0
5 18 20 38 17 22 18 13 1 -13z"/>
<path fill="#000000" stroke="none" d="M170 196 c0 -26 14 -41 29 -32 10 7 -9
56 -21 56 -5 0 -8 -11 -8 -24z"/>
</g>
</svg>
