<?xml version="1.0" standalone="no"?>
<!DOCTYPE svg PUBLIC "-//W3C//DTD SVG 20010904//EN"
 "http://www.w3.org/TR/2001/REC-SVG-20010904/DTD/svg10.dtd">
<svg version="1.0" xmlns="http://www.w3.org/2000/svg"
 width="32.000000pt" height="32.000000pt" viewBox="0 0 32.000000 32.000000"
 preserveAspectRatio="xMidYMid meet">
<metadata>
Created by potrace 1.16, written by Peter Selinger 2001-2019
</metadata>
<g transform="translate(0.000000,32.000000) scale(0.100000,-0.100000)"
fill="#000000" stroke="none">
<path fill="#000000" stroke="none" d="M119 274 c-10 -13 -13 -44 -12 -121 2
-102 2 -103 -23 -109 -19 -5 -23 -9 -14 -18 14 -14 217 -13 231 1 7 7 -5 14
-40 23 -36 8 -52 18 -58 33 -6 20 -7 20 -14 -8 l-7 -30 -1 32 c0 17 -4 39 -8
49 -5 14 -2 16 14 12 18 -5 21 0 27 41 3 25 2 60 -2 76 -7 25 -14 30 -44 33
-23 2 -39 -3 -49 -14z"/>
<path fill="#ffffff" stroke="none" d="M163 103 c4 -21 2 -42 -3 -47 -7 -7
-10 3 -10 27 0 27 -4 37 -16 37 -8 0 -12 5 -9 10 14 22 33 8 38 -27z"/>
<path fill="#ffffff" stroke="none" d="M136 63 c-10 -26 -18 -8 -9 23 5 21 8
24 11 11 2 -10 1 -25 -2 -34z"/>
</g>
</svg>
