<?xml version="1.0" standalone="no"?>
<!DOCTYPE svg PUBLIC "-//W3C//DTD SVG 20010904//EN"
 "http://www.w3.org/TR/2001/REC-SVG-20010904/DTD/svg10.dtd">
<svg version="1.0" xmlns="http://www.w3.org/2000/svg"
 width="32.000000pt" height="32.000000pt" viewBox="0 0 32.000000 32.000000"
 preserveAspectRatio="xMidYMid meet">
<metadata>
Created by potrace 1.16, written by Peter Selinger 2001-2019
</metadata>
<g transform="translate(0.000000,32.000000) scale(0.100000,-0.100000)"
fill="#000000" stroke="none">
<path fill="#000000" stroke="none" d="M140 255 c0 -14 5 -25 10 -25 6 0 10
11 10 25 0 14 -4 25 -10 25 -5 0 -10 -11 -10 -25z"/>
<path fill="#000000" stroke="none" d="M115 188 c0 -20 5 -28 17 -28 9 0 20 5
23 10 3 6 0 10 -7 10 -9 0 -10 2 -1 8 8 5 5 11 -10 17 -20 10 -22 8 -22 -17z"/>
</g>
</svg>
