<?xml version="1.0" standalone="no"?>
<!DOCTYPE svg PUBLIC "-//W3C//DTD SVG 20010904//EN"
 "http://www.w3.org/TR/2001/REC-SVG-20010904/DTD/svg10.dtd">
<svg version="1.0" xmlns="http://www.w3.org/2000/svg"
 width="32.000000pt" height="32.000000pt" viewBox="0 0 32.000000 32.000000"
 preserveAspectRatio="xMidYMid meet">
<metadata>
Created by potrace 1.16, written by Peter Selinger 2001-2019
</metadata>
<g transform="translate(0.000000,32.000000) scale(0.100000,-0.100000)"
fill="#000000" stroke="none">
<path fill="#000000" stroke="none" d="M104 311 c3 -5 -2 -8 -12 -7 -9 0 -16
-5 -14 -11 1 -7 -4 -12 -10 -10 -7 1 -12 -6 -12 -15 1 -10 -2 -16 -6 -13 -4 3
-10 -5 -14 -18 -10 -37 -7 -86 7 -94 6 -4 12 -15 12 -23 0 -8 6 -14 13 -12 8
1 11 -2 7 -8 -8 -13 40 -13 68 1 21 10 21 10 3 -5 -24 -19 -67 -21 -85 -3 -11
10 -12 8 -6 -13 4 -14 8 -36 8 -50 2 -22 7 -25 47 -28 87 -5 183 71 110 88
l-25 6 33 29 c29 25 32 34 32 82 0 47 -4 59 -29 84 -25 24 -37 29 -81 29 -28
0 -49 -4 -46 -9z"/>
<path fill="#ffffff" stroke="none" d="M120 275 c-7 -8 -17 -15 -23 -15 -6 0
-2 7 9 15 25 19 30 19 14 0z"/>
<path fill="#ffffff" stroke="none" d="M186 281 c-3 -5 1 -11 9 -15 21 -8 19
-23 -5 -29 -13 -3 -24 1 -30 13 -13 25 -13 28 8 33 9 3 18 5 20 6 2 0 1 -3 -2
-8z"/>
<path fill="#ffffff" stroke="none" d="M246 238 c4 -7 3 -8 -4 -4 -7 4 -12 0
-12 -10 0 -10 -3 -15 -6 -11 -7 6 2 37 10 37 3 0 8 -5 12 -12z"/>
<path fill="#ffffff" stroke="none" d="M207 215 c0 -8 -4 -12 -9 -9 -5 3 -6
10 -3 15 9 13 12 11 12 -6z"/>
<path fill="#ffffff" stroke="none" d="M171 87 c-10 -9 -11 -8 -5 6 3 10 9 15
12 12 3 -3 0 -11 -7 -18z"/>
</g>
</svg>
