<?xml version="1.0" standalone="no"?>
<!DOCTYPE svg PUBLIC "-//W3C//DTD SVG 20010904//EN"
 "http://www.w3.org/TR/2001/REC-SVG-20010904/DTD/svg10.dtd">
<svg version="1.0" xmlns="http://www.w3.org/2000/svg"
 width="32.000000pt" height="32.000000pt" viewBox="0 0 32.000000 32.000000"
 preserveAspectRatio="xMidYMid meet">
<metadata>
Created by potrace 1.16, written by Peter Selinger 2001-2019
</metadata>
<g transform="translate(0.000000,32.000000) scale(0.100000,-0.100000)"
fill="#000000" stroke="none">
<path fill="#000000" stroke="none" d="M115 306 c-12 -9 -16 -20 -12 -35 6
-26 -1 -51 -14 -51 -5 0 -18 9 -30 21 -16 16 -23 18 -35 8 -17 -14 -18 -108
-1 -189 12 -54 13 -55 51 -58 29 -3 36 0 30 10 -6 10 -5 11 7 1 13 -10 16 -10
16 5 0 9 -4 23 -10 29 -6 9 -6 13 3 13 6 0 14 -9 17 -20 3 -11 9 -18 13 -15 5
3 12 0 16 -6 4 -7 3 -9 -4 -5 -6 3 -13 2 -17 -4 -4 -6 5 -10 21 -10 21 0 25 4
21 20 -3 11 -1 23 4 26 5 3 9 0 9 -6 0 -6 4 -9 9 -5 5 3 13 0 17 -6 4 -7 3 -9
-3 -6 -6 4 -13 1 -16 -6 -10 -27 50 -18 82 12 30 28 31 31 26 97 -3 38 -7 89
-8 114 -2 43 -3 45 -32 44 -19 0 -30 -5 -30 -15 -1 -21 -15 -40 -26 -34 -5 4
-9 19 -9 35 0 30 -14 47 -25 30 -4 -6 -14 -4 -29 5 -19 13 -25 13 -41 1z"/>
<path fill="#ffffff" stroke="none" d="M137 278 c-3 -7 -5 -2 -5 12 0 14 2 19
5 13 2 -7 2 -19 0 -25z"/>
<path fill="#ffffff" stroke="none" d="M117 278 c-3 -8 -6 -5 -6 6 -1 11 2 17
5 13 3 -3 4 -12 1 -19z"/>
<path fill="#ffffff" stroke="none" d="M157 278 c-3 -8 -6 -5 -6 6 -1 11 2 17
5 13 3 -3 4 -12 1 -19z"/>
<path fill="#ffffff" stroke="none" d="M192 258 c-6 -6 -7 0 -4 19 5 21 7 23
10 9 2 -10 0 -22 -6 -28z"/>
<path fill="#ffffff" stroke="none" d="M284 266 c-4 10 -4 16 0 13 4 -4 9 -19
12 -35 3 -19 1 -24 -4 -16 -5 8 -13 13 -18 12 -4 -1 -12 9 -16 21 -9 23 -9 23
12 4 20 -19 21 -19 14 1z"/>
<path fill="#ffffff" stroke="none" d="M170 251 c0 -37 -32 -55 -44 -25 -10
27 -7 34 19 34 14 0 25 -4 25 -9z"/>
<path fill="#ffffff" stroke="none" d="M42 218 c-15 -15 -26 -4 -18 18 5 13 9
15 18 6 9 -9 9 -15 0 -24z"/>
<path fill="#ffffff" stroke="none" d="M117 193 c1 -24 0 -25 -6 -8 -7 17 -6
35 2 35 2 0 3 -12 4 -27z"/>
<path fill="#ffffff" stroke="none" d="M194 201 c-10 -10 -21 -16 -24 -14 -3
3 4 11 14 19 28 20 33 17 10 -5z"/>
<path fill="#ffffff" stroke="none" d="M42 100 c4 -63 3 -82 -3 -55 -8 39 -12
162 -5 154 2 -2 6 -47 8 -99z"/>
<path fill="#ffffff" stroke="none" d="M157 164 c-3 -3 -12 -4 -19 -1 -8 3 -5
6 6 6 11 1 17 -2 13 -5z"/>
<path fill="#ffffff" stroke="none" d="M176 145 c-3 -15 -22 -47 -30 -48 -8
-2 -29 30 -32 48 -1 6 13 10 31 10 18 0 32 -4 31 -10z"/>
<path fill="#ffffff" stroke="none" d="M77 28 c-3 -7 -5 -2 -5 12 0 14 2 19 5
13 2 -7 2 -19 0 -25z"/>
<path fill="#000000" stroke="none" d="M136 128 c3 -5 10 -6 15 -3 13 9 11 12
-6 12 -8 0 -12 -4 -9 -9z"/>
</g>
</svg>
