<?xml version="1.0" standalone="no"?>
<!DOCTYPE svg PUBLIC "-//W3C//DTD SVG 20010904//EN"
 "http://www.w3.org/TR/2001/REC-SVG-20010904/DTD/svg10.dtd">
<svg version="1.0" xmlns="http://www.w3.org/2000/svg"
 width="32.000000pt" height="32.000000pt" viewBox="0 0 32.000000 32.000000"
 preserveAspectRatio="xMidYMid meet">
<metadata>
Created by potrace 1.16, written by Peter Selinger 2001-2019
</metadata>
<g transform="translate(0.000000,32.000000) scale(0.100000,-0.100000)"
fill="#000000" stroke="none">
<path fill="#000000" stroke="none" d="M0 160 l0 -160 160 0 160 0 0 160 0
160 -160 0 -160 0 0 -160z"/>
<path fill="#ffffff" stroke="none" d="M171 258 c38 -24 46 -34 38 -45 -6 -7
-8 -13 -3 -13 5 0 1 -7 -9 -14 -16 -13 -15 -16 18 -45 20 -17 45 -31 55 -31
11 0 20 -4 20 -10 0 -22 -34 -8 -76 33 -41 38 -44 45 -35 69 8 21 6 29 -7 41
-18 15 -57 37 -66 37 -14 0 -26 -41 -17 -57 5 -10 15 -38 21 -63 25 -93 32
-110 41 -110 5 0 9 -8 9 -17 0 -16 -2 -15 -20 2 -19 20 -50 119 -50 162 0 12
-4 25 -10 28 -24 15 -3 65 28 65 8 0 36 -14 63 -32z"/>
<path fill="#ffffff" stroke="none" d="M125 250 c3 -5 2 -10 -4 -10 -5 0 -13
5 -16 10 -3 6 -2 10 4 10 5 0 13 -4 16 -10z"/>
</g>
</svg>
