<?xml version="1.0" standalone="no"?>
<!DOCTYPE svg PUBLIC "-//W3C//DTD SVG 20010904//EN"
 "http://www.w3.org/TR/2001/REC-SVG-20010904/DTD/svg10.dtd">
<svg version="1.0" xmlns="http://www.w3.org/2000/svg"
 width="32.000000pt" height="32.000000pt" viewBox="0 0 32.000000 32.000000"
 preserveAspectRatio="xMidYMid meet">
<metadata>
Created by potrace 1.16, written by Peter Selinger 2001-2019
</metadata>
<g transform="translate(0.000000,32.000000) scale(0.100000,-0.100000)"
fill="#000000" stroke="none">
<path fill="#000000" stroke="none" d="M0 160 l0 -160 160 0 160 0 0 160 0
160 -80 0 c-67 0 -78 -2 -74 -15 5 -12 10 -13 20 -4 16 14 44 -10 44 -38 0
-10 14 -25 33 -34 17 -9 31 -22 30 -28 -2 -6 2 -11 7 -11 7 0 7 -6 0 -19 -5
-11 -10 -34 -10 -51 l0 -30 -26 16 -26 17 16 -39 16 -39 -21 24 c-11 14 -30
26 -42 28 -17 2 -19 1 -7 -6 8 -5 17 -8 20 -6 4 2 7 -2 7 -9 0 -9 -7 -12 -16
-8 -14 5 -14 4 -1 -13 13 -16 10 -16 -16 3 -17 12 -35 18 -39 14 -4 -4 -5 3
-2 16 3 12 1 20 -3 17 -5 -3 -12 -1 -15 5 -10 16 -35 -8 -36 -34 0 -21 0 -21
-9 -1 -5 11 -18 31 -29 45 -17 20 -23 22 -30 11 -7 -11 -10 -10 -14 5 -9 29
-2 109 9 109 5 0 8 -10 6 -22 -2 -20 0 -21 33 -10 24 7 35 16 35 29 0 26 19
60 29 53 5 -3 11 2 15 10 4 12 -7 15 -69 15 l-75 0 0 -160z"/>
<path fill="#000000" stroke="none" d="M135 253 c11 -3 23 -10 27 -17 6 -8 8
-7 8 2 0 9 7 11 23 7 17 -5 19 -4 7 4 -8 6 -31 10 -50 10 -22 -1 -27 -3 -15
-6z"/>
</g>
</svg>
