<?xml version="1.0" standalone="no"?>
<!DOCTYPE svg PUBLIC "-//W3C//DTD SVG 20010904//EN"
 "http://www.w3.org/TR/2001/REC-SVG-20010904/DTD/svg10.dtd">
<svg version="1.0" xmlns="http://www.w3.org/2000/svg"
 width="32.000000pt" height="32.000000pt" viewBox="0 0 32.000000 32.000000"
 preserveAspectRatio="xMidYMid meet">
<metadata>
Created by potrace 1.16, written by Peter Selinger 2001-2019
</metadata>
<g transform="translate(0.000000,32.000000) scale(0.100000,-0.100000)"
fill="#000000" stroke="none">
<path fill="#000000" stroke="none" d="M147 295 c-4 -9 -11 -14 -16 -11 -7 5
-21 -14 -21 -28 0 -1 15 0 34 2 18 2 43 -1 55 -7 18 -10 21 -9 21 9 0 12 -4
18 -10 15 -5 -3 -10 1 -10 11 0 13 -3 14 -14 5 -11 -10 -16 -9 -24 5 -8 15 -9
15 -15 -1z"/>
<path fill="#000000" stroke="none" d="M19 258 c-5 -17 -6 -107 -2 -122 4 -16
7 -15 24 10 10 16 19 23 19 15 0 -11 3 -11 15 -1 8 6 19 9 25 5 12 -8 13 24 1
44 -7 11 -15 11 -41 3 -31 -11 -32 -11 -26 13 3 13 2 27 -4 30 -5 3 -10 5 -11
3z"/>
<path fill="#ffffff" stroke="none" d="M45 180 c-3 -5 -12 -10 -18 -10 -7 0
-6 4 3 10 19 12 23 12 15 0z"/>
<path fill="#000000" stroke="none" d="M136 225 c-4 -10 1 -15 14 -15 13 0 18
5 14 15 -4 8 -10 15 -14 15 -4 0 -10 -7 -14 -15z"/>
<path fill="#000000" stroke="none" d="M215 203 c-14 -21 -15 -25 -2 -20 8 3
20 0 26 -6 8 -8 11 -8 11 1 0 7 8 12 18 11 9 0 12 -3 5 -5 -7 -3 -9 -13 -6
-22 3 -10 1 -13 -4 -7 -4 6 -17 11 -28 13 -18 2 -18 1 4 -18 26 -22 41 -19 41
11 0 11 4 18 9 14 5 -3 13 0 17 6 5 8 3 9 -6 4 -10 -6 -12 -4 -7 9 5 12 -1 19
-19 26 -36 14 -40 13 -59 -17z"/>
<path fill="#000000" stroke="none" d="M160 190 c-13 -8 -12 -10 3 -10 9 0 17
5 17 10 0 12 -1 12 -20 0z"/>
<path fill="#000000" stroke="none" d="M155 160 c-11 -5 -14 -9 -7 -9 7 -1 10
-5 7 -11 -3 -5 -1 -10 4 -10 6 0 11 8 12 18 0 13 3 12 11 -5 13 -26 25 -30 25
-8 0 8 -4 15 -9 15 -5 0 -6 5 -3 10 7 12 -12 12 -40 0z"/>
<path fill="#000000" stroke="none" d="M276 107 c3 -10 9 -15 12 -12 3 3 0 11
-7 18 -10 9 -11 8 -5 -6z"/>
<path fill="#000000" stroke="none" d="M91 94 c0 -11 3 -14 6 -6 3 7 2 16 -1
19 -3 4 -6 -2 -5 -13z"/>
<path fill="#000000" stroke="none" d="M150 78 c0 -6 3 -8 7 -5 3 4 12 2 20
-4 8 -7 13 -8 13 -1 0 5 -7 13 -16 16 -22 8 -24 8 -24 -6z"/>
</g>
</svg>
