<?xml version="1.0" standalone="no"?>
<!DOCTYPE svg PUBLIC "-//W3C//DTD SVG 20010904//EN"
 "http://www.w3.org/TR/2001/REC-SVG-20010904/DTD/svg10.dtd">
<svg version="1.0" xmlns="http://www.w3.org/2000/svg"
 width="32.000000pt" height="32.000000pt" viewBox="0 0 32.000000 32.000000"
 preserveAspectRatio="xMidYMid meet">
<metadata>
Created by potrace 1.16, written by Peter Selinger 2001-2019
</metadata>
<g transform="translate(0.000000,32.000000) scale(0.100000,-0.100000)"
fill="#000000" stroke="none">
<path fill="#000000" stroke="none" d="M0 308 c0 -6 3 -9 6 -6 3 4 19 2 35 -2
16 -5 27 -5 24 0 -3 4 1 11 7 13 7 3 -6 6 -29 6 -27 1 -43 -3 -43 -11z"/>
<path fill="#000000" stroke="none" d="M300 306 c0 -8 5 -18 10 -21 6 -3 10 3
10 14 0 12 -4 21 -10 21 -5 0 -10 -6 -10 -14z"/>
<path fill="#000000" stroke="none" d="M120 235 c-18 -47 -20 -75 -4 -75 8 0
14 7 14 15 0 9 10 15 26 15 14 0 23 4 19 9 -3 5 -1 12 5 16 5 3 10 12 10 18 0
7 -4 6 -11 -3 -9 -12 -10 -11 -6 8 8 34 -40 31 -53 -3z"/>
<path fill="#000000" stroke="none" d="M30 195 c0 -5 5 -17 10 -25 5 -8 10
-10 10 -5 0 6 -5 17 -10 25 -5 8 -10 11 -10 5z"/>
<path fill="#000000" stroke="none" d="M162 183 c-12 -2 -20 -8 -17 -13 3 -5
13 -6 23 -3 15 6 15 5 3 -11 -10 -12 -23 -16 -41 -13 -14 3 -32 1 -40 -4 -11
-7 2 -9 43 -6 32 2 52 0 45 -4 -7 -5 -23 -9 -35 -9 -14 0 -23 -6 -23 -15 0
-21 23 -19 53 5 15 12 24 27 20 35 -3 8 0 15 6 15 6 0 11 7 11 15 0 15 -6 16
-48 8z"/>
<path fill="#000000" stroke="none" d="M1 108 c-1 -29 2 -36 14 -32 8 4 15 1
15 -5 0 -6 8 -11 18 -11 14 1 12 5 -9 23 -15 12 -29 31 -32 42 -3 11 -5 4 -6
-17z"/>
<path fill="#000000" stroke="none" d="M300 129 c0 -5 5 -7 10 -4 6 3 10 8 10
11 0 2 -4 4 -10 4 -5 0 -10 -5 -10 -11z"/>
<path fill="#000000" stroke="none" d="M305 100 c3 -5 8 -10 11 -10 2 0 4 5 4
10 0 6 -5 10 -11 10 -5 0 -7 -4 -4 -10z"/>
<path fill="#000000" stroke="none" d="M180 95 c0 -2 7 -8 15 -15 12 -10 15
-10 15 2 0 8 -7 15 -15 15 -8 0 -15 -1 -15 -2z"/>
<path fill="#000000" stroke="none" d="M99 36 c15 -17 65 -15 86 5 12 12 -25
12 -44 0 -9 -6 -23 -5 -35 1 -19 10 -20 10 -7 -6z"/>
<path fill="#000000" stroke="none" d="M3 23 c0 -11 7 -20 14 -20 10 0 10 4 1
16 -7 9 -13 18 -15 20 -1 2 -1 -5 0 -16z"/>
<path fill="#000000" stroke="none" d="M185 20 c-3 -5 -1 -10 4 -10 6 0 11 5
11 10 0 6 -2 10 -4 10 -3 0 -8 -4 -11 -10z"/>
</g>
</svg>
