<?xml version="1.0" standalone="no"?>
<!DOCTYPE svg PUBLIC "-//W3C//DTD SVG 20010904//EN"
 "http://www.w3.org/TR/2001/REC-SVG-20010904/DTD/svg10.dtd">
<svg version="1.0" xmlns="http://www.w3.org/2000/svg"
 width="32.000000pt" height="32.000000pt" viewBox="0 0 32.000000 32.000000"
 preserveAspectRatio="xMidYMid meet">
<metadata>
Created by potrace 1.16, written by Peter Selinger 2001-2019
</metadata>
<g transform="translate(0.000000,32.000000) scale(0.100000,-0.100000)"
fill="#000000" stroke="none">
<path fill="#000000" stroke="none" d="M10 160 l0 -150 150 0 150 0 0 150 0
150 -150 0 -150 0 0 -150z"/>
<path fill="#ffffff" stroke="none" d="M194 273 c0 -16 5 -23 17 -23 10 0 31
-11 47 -25 25 -21 30 -32 29 -67 -2 -30 -6 -42 -19 -44 -12 -1 -15 3 -10 14 5
15 4 16 -13 2 -17 -13 -18 -13 -10 0 4 8 15 23 24 33 15 18 14 20 -8 38 -31
25 -38 24 -45 -7 -5 -17 0 -37 14 -61 23 -39 25 -59 8 -66 -10 -4 -9 -8 2 -16
12 -9 10 -11 -12 -11 -31 0 -36 11 -13 30 14 12 13 16 -7 37 l-23 24 -17 -21
c-10 -12 -18 -35 -18 -50 0 -26 -15 -40 -43 -40 -7 0 -4 5 6 11 13 8 17 18 12
37 -3 17 2 41 15 65 23 43 20 64 -13 95 -20 19 -26 20 -42 8 -17 -12 -18 -16
-5 -32 14 -18 14 -18 -4 -4 -18 14 -19 13 -13 -5 l7 -20 -16 20 c-16 20 -16
20 -11 -3 3 -12 1 -20 -4 -16 -14 9 -11 29 11 57 27 34 67 43 93 20 19 -18 19
-17 13 4 -9 30 1 45 27 41 16 -2 22 -10 21 -25z"/>
</g>
</svg>
