<?xml version="1.0" standalone="no"?>
<!DOCTYPE svg PUBLIC "-//W3C//DTD SVG 20010904//EN"
 "http://www.w3.org/TR/2001/REC-SVG-20010904/DTD/svg10.dtd">
<svg version="1.0" xmlns="http://www.w3.org/2000/svg"
 width="32.000000pt" height="32.000000pt" viewBox="0 0 32.000000 32.000000"
 preserveAspectRatio="xMidYMid meet">
<metadata>
Created by potrace 1.16, written by Peter Selinger 2001-2019
</metadata>
<g transform="translate(0.000000,32.000000) scale(0.100000,-0.100000)"
fill="#000000" stroke="none">
<path fill="#000000" stroke="none" d="M112 271 c-11 -7 -11 -9 2 -14 9 -4 16
-11 16 -17 0 -6 -5 -8 -12 -4 -7 4 -8 3 -4 -4 5 -9 13 -9 27 -2 10 6 19 13 19
16 0 3 -4 3 -9 -1 -5 -3 -13 0 -17 6 -3 6 0 15 7 20 12 7 11 9 -1 9 -8 0 -21
-4 -28 -9z"/>
<path fill="#000000" stroke="none" d="M273 155 c0 -8 4 -12 9 -9 4 3 8 9 8
15 0 5 -4 9 -8 9 -5 0 -9 -7 -9 -15z"/>
<path fill="#000000" stroke="none" d="M20 151 c0 -6 4 -12 8 -15 5 -3 9 1 9
9 0 8 -4 15 -9 15 -4 0 -8 -4 -8 -9z"/>
<path fill="#000000" stroke="none" d="M175 100 c-3 -6 1 -7 9 -4 18 7 21 14
7 14 -6 0 -13 -4 -16 -10z"/>
<path fill="#000000" stroke="none" d="M85 40 c-4 -6 5 -10 20 -10 15 0 24 4
20 10 -3 6 -12 10 -20 10 -8 0 -17 -4 -20 -10z"/>
<path fill="#000000" stroke="none" d="M215 20 c4 -6 11 -8 16 -5 14 9 11 15
-7 15 -8 0 -12 -5 -9 -10z"/>
</g>
</svg>
