<?xml version="1.0" standalone="no"?>
<!DOCTYPE svg PUBLIC "-//W3C//DTD SVG 20010904//EN"
 "http://www.w3.org/TR/2001/REC-SVG-20010904/DTD/svg10.dtd">
<svg version="1.0" xmlns="http://www.w3.org/2000/svg"
 width="32.000000pt" height="32.000000pt" viewBox="0 0 32.000000 32.000000"
 preserveAspectRatio="xMidYMid meet">
<metadata>
Created by potrace 1.16, written by Peter Selinger 2001-2019
</metadata>
<g transform="translate(0.000000,32.000000) scale(0.100000,-0.100000)"
fill="#000000" stroke="none">
<path fill="#000000" stroke="none" d="M122 200 c0 -14 2 -19 5 -12 2 6 2 18
0 25 -3 6 -5 1 -5 -13z"/>
<path fill="#000000" stroke="none" d="M141 194 c0 -11 3 -14 6 -6 3 7 2 16
-1 19 -3 4 -6 -2 -5 -13z"/>
<path fill="#000000" stroke="none" d="M298 105 c2 -14 6 -25 8 -25 2 0 4 11
4 25 0 14 -4 25 -9 25 -4 0 -6 -11 -3 -25z"/>
<path fill="#000000" stroke="none" d="M267 83 c8 -50 13 -55 13 -10 0 20 -4
38 -9 42 -6 3 -7 -10 -4 -32z"/>
<path fill="#000000" stroke="none" d="M20 80 c0 -39 6 -39 12 0 3 16 1 30 -4
30 -4 0 -8 -13 -8 -30z"/>
<path fill="#000000" stroke="none" d="M232 75 c0 -16 2 -22 5 -12 2 9 2 23 0
30 -3 6 -5 -1 -5 -18z"/>
<path fill="#000000" stroke="none" d="M40 60 c0 -39 6 -39 12 0 3 17 1 30 -4
30 -4 0 -8 -13 -8 -30z"/>
</g>
</svg>
