<?xml version="1.0" standalone="no"?>
<!DOCTYPE svg PUBLIC "-//W3C//DTD SVG 20010904//EN"
 "http://www.w3.org/TR/2001/REC-SVG-20010904/DTD/svg10.dtd">
<svg version="1.0" xmlns="http://www.w3.org/2000/svg"
 width="32.000000pt" height="32.000000pt" viewBox="0 0 32.000000 32.000000"
 preserveAspectRatio="xMidYMid meet">
<metadata>
Created by potrace 1.16, written by Peter Selinger 2001-2019
</metadata>
<g transform="translate(0.000000,32.000000) scale(0.100000,-0.100000)"
fill="#000000" stroke="none">
<path fill="#000000" stroke="none" d="M186 291 c-9 -9 -16 -23 -16 -30 0 -7
-4 -10 -10 -6 -5 3 -7 12 -3 20 3 8 1 15 -5 15 -17 0 -33 -27 -25 -45 4 -12 3
-16 -5 -11 -13 8 -26 -11 -29 -39 0 -11 -4 -29 -8 -40 -9 -28 29 -75 61 -75
14 0 40 15 61 34 30 27 35 37 26 48 -8 9 -9 19 -3 28 8 12 10 12 10 -3 0 -22
19 -18 34 6 13 21 1 33 -18 18 -23 -19 -25 19 -3 51 11 14 16 31 12 38 -11 17
-47 -20 -42 -42 3 -10 0 -21 -5 -25 -8 -4 -9 6 -5 30 7 43 -4 54 -27 28z"/>
<path fill="#ffffff" stroke="none" d="M197 245 c-6 -39 6 -54 23 -28 10 16
11 15 6 -4 -3 -13 -9 -33 -13 -45 -4 -15 -3 -19 5 -14 25 15 10 -13 -19 -38
-39 -33 -74 -34 -95 -1 -13 21 -15 31 -6 50 6 14 9 31 6 39 -3 8 -1 17 5 21 6
3 11 0 11 -7 0 -9 3 -9 10 2 5 8 7 23 4 34 -4 12 -2 16 5 12 6 -4 11 -14 11
-23 0 -13 3 -13 15 -3 8 7 15 19 15 26 0 8 5 14 11 14 8 0 10 -12 6 -35z"/>
<path fill="#ffffff" stroke="none" d="M270 196 c0 -3 -4 -8 -10 -11 -5 -3
-10 -1 -10 4 0 6 5 11 10 11 6 0 10 -2 10 -4z"/>
<path fill="#000000" stroke="none" d="M135 181 c-6 -11 9 -23 19 -14 9 9 7
23 -3 23 -6 0 -12 -4 -16 -9z"/>
<path fill="#000000" stroke="none" d="M114 146 c-9 -24 12 -44 28 -28 10 9 8
16 -5 29 -15 15 -17 15 -23 -1z"/>
<path fill="#000000" stroke="none" d="M162 146 c1 -10 8 -17 13 -17 15 1 12
24 -3 29 -9 3 -13 -2 -10 -12z"/>
<path fill="#000000" stroke="none" d="M105 36 c-18 -13 -18 -14 3 -25 28 -15
74 -14 97 3 18 13 18 14 -3 25 -28 15 -74 14 -97 -3z"/>
</g>
</svg>
