<?xml version="1.0" standalone="no"?>
<!DOCTYPE svg PUBLIC "-//W3C//DTD SVG 20010904//EN"
 "http://www.w3.org/TR/2001/REC-SVG-20010904/DTD/svg10.dtd">
<svg version="1.0" xmlns="http://www.w3.org/2000/svg"
 width="32.000000pt" height="32.000000pt" viewBox="0 0 32.000000 32.000000"
 preserveAspectRatio="xMidYMid meet">
<metadata>
Created by potrace 1.16, written by Peter Selinger 2001-2019
</metadata>
<g transform="translate(0.000000,32.000000) scale(0.100000,-0.100000)"
fill="#000000" stroke="none">
<path fill="#000000" stroke="none" d="M0 160 l0 -160 160 0 160 0 0 160 0
160 -160 0 -160 0 0 -160z"/>
<path fill="#ffffff" stroke="none" d="M154 259 c-4 -13 -6 -38 -5 -56 2 -27
-4 -36 -40 -62 -46 -34 -73 -42 -43 -12 10 10 21 17 23 15 9 -8 51 40 51 59 0
15 -3 17 -13 8 -10 -8 -14 -7 -14 4 0 8 3 12 7 10 7 -5 30 38 30 57 0 7 -5 6
-15 -2 -9 -8 -15 -8 -15 -2 0 14 23 22 33 12 5 -5 5 -19 1 -31z"/>
<path fill="#ffffff" stroke="none" d="M199 246 c-1 -20 -2 -20 -6 -1 -3 11
-10 27 -17 35 -10 13 -9 13 7 1 9 -7 16 -23 16 -35z"/>
<path fill="#ffffff" stroke="none" d="M130 250 c0 -5 -9 -6 -20 -3 -14 4 -20
0 -20 -11 0 -9 -8 -20 -17 -23 -10 -4 -21 -11 -25 -17 -11 -16 -9 37 2 54 5 8
10 11 10 7 0 -5 10 -1 22 7 21 15 48 7 48 -14z"/>
<path fill="#ffffff" stroke="none" d="M244 214 c2 -12 0 -27 -5 -35 -7 -12
-9 -12 -10 1 0 10 -3 8 -9 -5 -8 -18 -9 -18 -9 -2 -1 10 -5 16 -10 13 -5 -3
-16 5 -25 19 -11 17 -13 26 -4 31 6 4 9 3 5 -2 -3 -5 1 -18 9 -29 10 -13 14
-15 14 -4 0 12 2 12 10 -1 5 -8 10 -13 11 -10 0 3 2 14 4 25 2 10 -1 26 -8 35
-9 13 -9 13 6 -1 10 -8 19 -24 21 -35z"/>
<path fill="#ffffff" stroke="none" d="M231 45 c10 -20 10 -20 -5 -1 -16 20
-16 20 -17 0 0 -18 -1 -18 -9 1 l-9 20 -1 -20 c-1 -11 -4 -14 -7 -7 -2 6 -9
10 -14 6 -5 -3 -9 -1 -9 5 0 26 58 23 71 -4z"/>
</g>
</svg>
