<?xml version="1.0" standalone="no"?>
<!DOCTYPE svg PUBLIC "-//W3C//DTD SVG 20010904//EN"
 "http://www.w3.org/TR/2001/REC-SVG-20010904/DTD/svg10.dtd">
<svg version="1.0" xmlns="http://www.w3.org/2000/svg"
 width="32.000000pt" height="32.000000pt" viewBox="0 0 32.000000 32.000000"
 preserveAspectRatio="xMidYMid meet">
<metadata>
Created by potrace 1.16, written by Peter Selinger 2001-2019
</metadata>
<g transform="translate(0.000000,32.000000) scale(0.100000,-0.100000)"
fill="#000000" stroke="none">
<path fill="#000000" stroke="none" d="M0 264 c0 -50 2 -55 16 -43 9 7 29 32
45 56 l30 43 -46 0 -45 0 0 -56z"/>
<path fill="#000000" stroke="none" d="M250 305 c7 -9 26 -25 42 -36 l28 -20
0 35 c0 35 -1 36 -41 36 -36 0 -40 -2 -29 -15z"/>
<path fill="#000000" stroke="none" d="M135 272 c8 -15 -38 -69 -70 -82 -28
-11 -31 -67 -6 -100 l20 -25 10 28 c6 16 11 38 10 50 -1 13 -6 3 -14 -23 l-13
-45 -2 35 c-1 29 -3 32 -10 15 -7 -16 -9 -12 -8 18 1 20 7 37 13 37 6 0 29 18
50 40 32 33 37 42 26 52 -11 11 -12 10 -6 0z"/>
<path fill="#000000" stroke="none" d="M186 264 c-3 -9 -6 -17 -6 -18 0 -1 22
-12 49 -25 53 -23 53 -24 32 -101 -9 -34 -11 -31 -16 25 -5 47 -6 50 -14 30
-9 -22 10 -90 25 -90 9 0 24 53 27 94 2 20 -7 29 -43 47 -28 15 -44 29 -42 39
4 20 -4 19 -12 -1z"/>
<path fill="#000000" stroke="none" d="M200 185 c-1 -5 -3 -35 -4 -65 -3 -67
-14 -103 -28 -94 -7 5 -8 2 -3 -5 5 -9 11 -9 17 -3 16 16 35 124 27 152 -4 14
-8 21 -9 15z"/>
<path fill="#000000" stroke="none" d="M110 143 c0 -18 0 -35 0 -38 0 -3 3 -5
6 -4 4 0 15 -12 25 -28 10 -15 19 -23 19 -18 -1 6 -7 19 -15 29 -8 11 -15 29
-15 40 0 12 -5 28 -10 36 -7 11 -10 7 -10 -17z"/>
<path fill="#000000" stroke="none" d="M0 39 l0 -39 56 0 c34 0 53 4 49 10 -3
6 -15 10 -26 10 -11 0 -34 13 -50 29 l-29 29 0 -39z"/>
<path fill="#000000" stroke="none" d="M275 35 l-40 -34 43 -1 c41 0 42 0 42
35 0 19 -1 35 -2 35 -2 0 -21 -16 -43 -35z"/>
</g>
</svg>
