<?xml version="1.0" standalone="no"?>
<!DOCTYPE svg PUBLIC "-//W3C//DTD SVG 20010904//EN"
 "http://www.w3.org/TR/2001/REC-SVG-20010904/DTD/svg10.dtd">
<svg version="1.0" xmlns="http://www.w3.org/2000/svg"
 width="32.000000pt" height="32.000000pt" viewBox="0 0 32.000000 32.000000"
 preserveAspectRatio="xMidYMid meet">
<metadata>
Created by potrace 1.16, written by Peter Selinger 2001-2019
</metadata>
<g transform="translate(0.000000,32.000000) scale(0.100000,-0.100000)"
fill="#000000" stroke="none">
<path fill="#000000" stroke="none" d="M0 264 c0 -50 2 -55 16 -43 9 7 29 32
45 56 l30 43 -46 0 -45 0 0 -56z"/>
<path fill="#000000" stroke="none" d="M250 305 c7 -9 26 -25 42 -36 l28 -20
0 35 c0 35 -1 36 -41 36 -36 0 -40 -2 -29 -15z"/>
<path fill="#000000" stroke="none" d="M0 39 l0 -39 56 0 c34 0 53 4 49 10 -3
6 -15 10 -26 10 -11 0 -34 13 -50 29 l-29 29 0 -39z"/>
<path fill="#000000" stroke="none" d="M275 35 l-40 -34 43 -1 c41 0 42 0 42
35 0 19 -1 35 -2 35 -2 0 -21 -16 -43 -35z"/>
</g>
</svg>
