<?xml version="1.0" standalone="no"?>
<!DOCTYPE svg PUBLIC "-//W3C//DTD SVG 20010904//EN"
 "http://www.w3.org/TR/2001/REC-SVG-20010904/DTD/svg10.dtd">
<svg version="1.0" xmlns="http://www.w3.org/2000/svg"
 width="32.000000pt" height="32.000000pt" viewBox="0 0 32.000000 32.000000"
 preserveAspectRatio="xMidYMid meet">
<metadata>
Created by potrace 1.16, written by Peter Selinger 2001-2019
</metadata>
<g transform="translate(0.000000,32.000000) scale(0.100000,-0.100000)"
fill="#000000" stroke="none">
<path fill="#000000" stroke="none" d="M106 292 c-7 -11 42 -38 51 -29 3 4 -2
7 -11 7 -12 0 -16 5 -12 15 6 16 -19 22 -28 7z"/>
<path fill="#000000" stroke="none" d="M110 250 c0 -6 7 -10 15 -10 8 0 15 2
15 4 0 2 -7 6 -15 10 -8 3 -15 1 -15 -4z"/>
<path fill="#000000" stroke="none" d="M174 219 c-11 -12 -26 -18 -38 -15 -14
4 -16 2 -8 -6 9 -9 19 -8 39 1 l28 12 -25 -20 c-16 -13 -25 -31 -27 -54 -2
-35 7 -41 35 -24 6 5 18 5 25 2 6 -4 4 0 -6 8 -11 9 -15 21 -11 32 6 15 4 16
-17 5 -20 -11 -18 -8 8 19 19 18 30 38 26 46 -7 19 -6 19 -29 -6z"/>
<path fill="#000000" stroke="none" d="M271 213 c0 -11 3 -13 6 -5 2 6 9 10
14 6 5 -3 9 0 9 5 0 6 -7 11 -15 11 -8 0 -15 -8 -14 -17z"/>
<path fill="#000000" stroke="none" d="M24 159 c-4 -7 -3 -9 4 -5 5 3 13 0 15
-6 4 -9 6 -10 6 -1 1 17 -16 25 -25 12z"/>
<path fill="#000000" stroke="none" d="M126 79 c2 -4 -2 -10 -8 -12 -8 -4 -9
-6 -2 -6 6 -1 17 5 23 12 8 10 7 14 -4 14 -8 0 -12 -4 -9 -8z"/>
<path fill="#000000" stroke="none" d="M206 63 c-6 -14 -5 -15 5 -6 7 7 10 15
7 18 -3 3 -9 -2 -12 -12z"/>
<path fill="#000000" stroke="none" d="M90 35 c-10 -13 -9 -15 9 -15 12 0 21
6 21 15 0 8 -4 15 -9 15 -5 0 -14 -7 -21 -15z"/>
<path fill="#000000" stroke="none" d="M205 30 c-3 -5 1 -13 10 -16 22 -9 29
1 11 15 -10 8 -16 9 -21 1z"/>
</g>
</svg>
