<?xml version="1.0" standalone="no"?>
<!DOCTYPE svg PUBLIC "-//W3C//DTD SVG 20010904//EN"
 "http://www.w3.org/TR/2001/REC-SVG-20010904/DTD/svg10.dtd">
<svg version="1.0" xmlns="http://www.w3.org/2000/svg"
 width="32.000000pt" height="32.000000pt" viewBox="0 0 32.000000 32.000000"
 preserveAspectRatio="xMidYMid meet">
<metadata>
Created by potrace 1.16, written by Peter Selinger 2001-2019
</metadata>
<g transform="translate(0.000000,32.000000) scale(0.100000,-0.100000)"
fill="#000000" stroke="none">
<path fill="#000000" stroke="none" d="M100 275 c-16 -19 -9 -37 18 -41 15 -3
20 0 16 11 -4 8 -1 15 6 15 6 0 8 -4 5 -10 -10 -17 12 -11 26 7 8 9 9 14 3 10
-7 -4 -14 0 -18 8 -7 19 -40 19 -56 0z"/>
<path fill="#ffffff" stroke="none" d="M122 260 c-10 -12 -18 -16 -21 -9 -2 6
3 15 10 20 24 15 29 10 11 -11z"/>
<path fill="#000000" stroke="none" d="M171 220 c-30 -64 -30 -65 -9 -68 13
-2 28 4 35 14 12 16 11 20 -4 26 -17 6 -17 7 0 7 20 1 23 21 5 39 -9 9 -9 12
0 12 15 0 45 -102 36 -124 -8 -20 22 -56 45 -56 15 1 15 1 0 10 -12 7 -15 24
-15 72 1 58 -1 66 -31 98 l-32 34 -30 -64z"/>
<path fill="#000000" stroke="none" d="M145 227 c-12 -9 -14 -16 -7 -21 6 -3
16 3 22 14 13 24 10 25 -15 7z"/>
<path fill="#000000" stroke="none" d="M20 180 c0 -5 5 -10 11 -10 5 0 7 5 4
10 -3 6 -8 10 -11 10 -2 0 -4 -4 -4 -10z"/>
<path fill="#000000" stroke="none" d="M56 167 c3 -10 9 -15 12 -12 3 3 0 11
-7 18 -10 9 -11 8 -5 -6z"/>
<path fill="#000000" stroke="none" d="M28 153 c7 -3 16 -2 19 1 4 3 -2 6 -13
5 -11 0 -14 -3 -6 -6z"/>
<path fill="#000000" stroke="none" d="M223 59 c9 -5 17 -14 17 -19 0 -6 -8
-10 -17 -11 -11 0 -13 -2 -5 -6 7 -3 19 -2 28 1 20 8 0 46 -24 46 -16 -1 -16
-1 1 -11z"/>
<path fill="#000000" stroke="none" d="M143 45 c0 -8 4 -12 9 -9 5 3 6 10 3
15 -9 13 -12 11 -12 -6z"/>
<path fill="#000000" stroke="none" d="M110 30 c-13 -8 -12 -10 3 -10 9 0 17
5 17 10 0 12 -1 12 -20 0z"/>
</g>
</svg>
