<?xml version="1.0" standalone="no"?>
<!DOCTYPE svg PUBLIC "-//W3C//DTD SVG 20010904//EN"
 "http://www.w3.org/TR/2001/REC-SVG-20010904/DTD/svg10.dtd">
<svg version="1.0" xmlns="http://www.w3.org/2000/svg"
 width="32.000000pt" height="32.000000pt" viewBox="0 0 32.000000 32.000000"
 preserveAspectRatio="xMidYMid meet">
<metadata>
Created by potrace 1.16, written by Peter Selinger 2001-2019
</metadata>
<g transform="translate(0.000000,32.000000) scale(0.100000,-0.100000)"
fill="#000000" stroke="none">
<path fill="#000000" stroke="none" d="M0 160 l0 -160 160 0 160 0 0 160 0
160 -160 0 -160 0 0 -160z"/>
<path fill="#ffffff" stroke="none" d="M156 275 c4 -8 11 -12 18 -8 6 4 5 -1
-3 -10 -14 -18 -36 -24 -26 -7 3 6 1 10 -5 10 -7 0 -10 -7 -6 -15 4 -11 -1
-14 -16 -11 -27 4 -34 22 -18 41 16 19 49 19 56 0z"/>
<path fill="#ffffff" stroke="none" d="M264 152 c0 -48 3 -65 15 -72 15 -9 15
-9 0 -10 -23 0 -53 36 -45 56 9 22 -21 124 -36 124 -9 0 -9 -3 0 -12 18 -18
15 -38 -5 -39 -17 0 -17 -1 0 -7 15 -6 16 -10 4 -26 -7 -10 -22 -16 -35 -14
-21 3 -21 4 9 68 l30 64 32 -34 c30 -32 32 -40 31 -98z"/>
<path fill="#ffffff" stroke="none" d="M160 220 c-6 -11 -16 -17 -22 -14 -7 5
-5 12 7 21 25 18 28 17 15 -7z"/>
<path fill="#ffffff" stroke="none" d="M35 180 c3 -5 1 -10 -4 -10 -6 0 -11 5
-11 10 0 6 2 10 4 10 3 0 8 -4 11 -10z"/>
<path fill="#ffffff" stroke="none" d="M68 155 c-3 -3 -9 2 -12 12 -6 14 -5
15 5 6 7 -7 10 -15 7 -18z"/>
<path fill="#ffffff" stroke="none" d="M47 154 c-3 -3 -12 -4 -19 -1 -8 3 -5
6 6 6 11 1 17 -2 13 -5z"/>
<path fill="#ffffff" stroke="none" d="M250 50 c9 -16 8 -22 -4 -26 -9 -3 -21
-4 -28 -1 -8 4 -6 6 5 6 9 1 17 5 17 11 0 5 -8 14 -17 19 -17 10 -17 10 -1 11
10 0 22 -9 28 -20z"/>
<path fill="#ffffff" stroke="none" d="M155 51 c3 -5 2 -12 -3 -15 -5 -3 -9 1
-9 9 0 17 3 19 12 6z"/>
<path fill="#ffffff" stroke="none" d="M130 30 c0 -5 -8 -10 -17 -10 -15 0
-16 2 -3 10 19 12 20 12 20 0z"/>
<path fill="#000000" stroke="none" d="M111 271 c-7 -5 -12 -14 -10 -20 3 -7
11 -3 21 9 18 21 13 26 -11 11z"/>
</g>
</svg>
