<?xml version="1.0" standalone="no"?>
<!DOCTYPE svg PUBLIC "-//W3C//DTD SVG 20010904//EN"
 "http://www.w3.org/TR/2001/REC-SVG-20010904/DTD/svg10.dtd">
<svg version="1.0" xmlns="http://www.w3.org/2000/svg"
 width="32.000000pt" height="32.000000pt" viewBox="0 0 32.000000 32.000000"
 preserveAspectRatio="xMidYMid meet">
<metadata>
Created by potrace 1.16, written by Peter Selinger 2001-2019
</metadata>
<g transform="translate(0.000000,32.000000) scale(0.100000,-0.100000)"
fill="#000000" stroke="none">
<path fill="#000000" stroke="none" d="M26 301 c-10 -11 -16 -28 -15 -38 2
-10 0 -24 -5 -31 -4 -7 -3 -19 4 -27 7 -8 10 -21 7 -29 -8 -19 3 -28 19 -15 8
6 14 6 18 0 4 -5 1 -13 -5 -16 -14 -9 29 -55 51 -55 23 0 72 39 65 51 -8 12 2
11 28 -2 19 -11 14 -15 -56 -49 -115 -55 -144 -90 -76 -90 28 0 170 66 177 82
2 5 14 5 26 2 26 -6 44 12 48 47 3 21 -1 24 -24 21 -29 -3 -88 22 -88 37 0 5
15 13 33 16 44 10 48 14 37 34 -7 15 -4 20 17 30 25 11 25 12 8 31 -17 18 -20
19 -36 4 -9 -8 -41 -28 -71 -43 -29 -16 -52 -34 -50 -41 3 -11 0 -11 -13 0
-14 12 -14 15 0 30 20 22 19 33 -4 54 -24 21 -41 14 -34 -14 4 -15 0 -20 -17
-20 -16 0 -20 4 -15 19 8 27 -9 34 -29 12z"/>
</g>
</svg>
