<?xml version="1.0" standalone="no"?>
<!DOCTYPE svg PUBLIC "-//W3C//DTD SVG 20010904//EN"
 "http://www.w3.org/TR/2001/REC-SVG-20010904/DTD/svg10.dtd">
<svg version="1.0" xmlns="http://www.w3.org/2000/svg"
 width="32.000000pt" height="32.000000pt" viewBox="0 0 32.000000 32.000000"
 preserveAspectRatio="xMidYMid meet">
<metadata>
Created by potrace 1.16, written by Peter Selinger 2001-2019
</metadata>
<g transform="translate(0.000000,32.000000) scale(0.100000,-0.100000)"
fill="#000000" stroke="none">
<path fill="#000000" stroke="none" d="M38 308 c9 -9 15 -9 24 0 9 9 7 12 -12
12 -19 0 -21 -3 -12 -12z"/>
<path fill="#000000" stroke="none" d="M103 277 c14 -29 34 -51 59 -66 36 -21
38 -21 38 -3 0 32 38 72 69 72 15 0 32 -5 39 -12 9 -9 12 -5 12 20 l0 32 -118
0 -119 0 20 -43z"/>
<path fill="#000000" stroke="none" d="M1 212 c0 -51 2 -54 11 -29 9 24 12 26
26 15 12 -9 11 -6 -2 9 -15 18 -16 26 -7 37 9 11 7 15 -9 19 -18 5 -20 1 -19
-51z"/>
<path fill="#000000" stroke="none" d="M265 261 c18 -8 17 -9 -10 -12 -17 -2
-29 -9 -27 -16 1 -7 -2 -13 -7 -13 -6 0 -9 -12 -8 -27 2 -21 8 -28 22 -28 12
0 19 6 17 15 -1 9 6 6 18 -9 11 -13 20 -32 20 -43 0 -12 4 -17 12 -12 7 4 8 3
4 -5 -4 -6 -13 -8 -19 -4 -18 11 -36 12 -43 2 -3 -5 -10 -6 -16 -3 -7 5 -8 2
-4 -5 5 -7 14 -10 21 -7 8 3 16 -6 21 -22 16 -60 16 -64 -13 -60 -22 2 -29 11
-43 52 -15 45 -17 47 -30 30 -8 -11 -10 -16 -5 -11 4 4 16 -10 25 -30 l17 -38
-46 -6 c-33 -4 -19 -6 52 -7 80 -2 97 1 97 13 0 8 -4 15 -10 15 -11 0 -40 52
-40 72 0 10 2 10 9 -1 5 -8 16 -11 26 -8 20 8 15 31 -21 96 -22 40 -23 43 -4
26 16 -15 20 -15 20 -3 0 8 -3 18 -7 22 -5 4 -8 13 -8 19 0 7 -9 13 -20 14
l-20 3 20 -9z"/>
<path fill="#000000" stroke="none" d="M127 206 c-9 -24 -9 -28 3 -21 6 4 9 1
8 -7 -2 -7 3 -12 11 -10 11 2 10 -2 -3 -22 -23 -36 -19 -56 5 -26 12 14 25 25
30 25 9 0 10 11 2 32 -3 7 -9 10 -14 7 -5 -3 -9 2 -9 11 0 9 -4 14 -9 11 -5
-4 -11 -1 -13 6 -3 7 -7 5 -11 -6z"/>
<path fill="#000000" stroke="none" d="M44 142 c5 -43 -8 -78 -19 -51 -3 9 -5
20 -4 25 1 5 1 16 0 24 -2 28 -21 -12 -21 -45 0 -21 3 -26 9 -16 6 9 10 10 16
2 4 -7 2 -17 -3 -24 -5 -7 -13 -22 -17 -35 -6 -22 -4 -23 35 -20 34 2 44 7 56
30 17 32 18 60 4 74 -8 8 -6 15 5 24 18 15 20 36 4 46 -6 4 -9 -1 -7 -12 4
-27 -15 -31 -27 -5 -17 36 -36 26 -31 -17z"/>
<path fill="#ffffff" stroke="none" d="M100 85 c0 -6 -5 -25 -10 -42 -9 -25
-15 -29 -41 -25 -21 3 -29 9 -27 21 2 9 10 16 18 16 10 0 14 11 14 36 0 36 0
37 23 22 13 -9 23 -21 23 -28z"/>
<path fill="#000000" stroke="none" d="M140 70 c0 -5 5 -10 10 -10 6 0 10 5
10 10 0 6 -4 10 -10 10 -5 0 -10 -4 -10 -10z"/>
</g>
</svg>
