<?xml version="1.0" standalone="no"?>
<!DOCTYPE svg PUBLIC "-//W3C//DTD SVG 20010904//EN"
 "http://www.w3.org/TR/2001/REC-SVG-20010904/DTD/svg10.dtd">
<svg version="1.0" xmlns="http://www.w3.org/2000/svg"
 width="32.000000pt" height="32.000000pt" viewBox="0 0 32.000000 32.000000"
 preserveAspectRatio="xMidYMid meet">
<metadata>
Created by potrace 1.16, written by Peter Selinger 2001-2019
</metadata>
<g transform="translate(0.000000,32.000000) scale(0.100000,-0.100000)"
fill="#000000" stroke="none">
<path fill="#000000" stroke="none" d="M7 313 c-13 -13 -7 -44 11 -51 9 -4 18
-13 20 -20 1 -8 -2 -11 -8 -7 -16 10 -12 -6 7 -29 15 -17 15 -19 1 -8 -14 11
-18 8 -28 -22 -9 -29 -8 -39 6 -60 15 -24 15 -28 0 -51 -9 -13 -16 -30 -16
-37 0 -7 12 10 26 37 15 28 28 51 29 53 2 2 2 -12 0 -30 -1 -20 -8 -33 -16
-33 -8 0 -15 -8 -17 -18 -3 -13 3 -17 23 -17 14 0 24 -4 21 -9 -3 -4 9 -7 27
-6 18 1 53 2 79 3 l47 2 -17 39 c-9 22 -21 36 -27 33 -5 -3 -3 2 5 12 13 17
15 14 30 -30 14 -41 21 -50 43 -52 29 -4 29 0 13 60 -5 16 -13 25 -21 22 -7
-3 -16 0 -21 7 -4 7 -3 10 4 5 6 -3 13 -2 16 3 7 10 25 9 43 -2 18 -12 27 13
30 82 4 72 -6 91 -47 91 -32 0 -70 -40 -70 -72 0 -18 -2 -17 -40 4 -22 13 -43
32 -46 43 -3 11 -13 30 -21 43 -12 19 -17 21 -29 11 -11 -9 -18 -9 -26 -1 -14
14 -22 15 -31 5z"/>
<path fill="#ffffff" stroke="none" d="M285 253 c0 -6 3 -15 8 -19 4 -4 7 -14
7 -22 0 -12 -4 -12 -20 3 -18 16 -17 11 6 -28 16 -30 23 -54 19 -65 -6 -14 -9
-11 -16 14 -9 32 -43 72 -37 43 2 -8 -5 -14 -17 -14 -14 0 -20 7 -22 28 -1 15
2 27 8 27 5 0 8 6 7 13 -2 7 10 14 27 16 27 3 28 4 10 12 l-20 9 20 -3 c11 -1
20 -7 20 -14z"/>
<path fill="#ffffff" stroke="none" d="M151 206 c5 3 9 -2 9 -11 0 -9 4 -14 9
-11 5 3 11 0 14 -7 8 -21 7 -32 -2 -32 -5 0 -18 -11 -30 -25 -24 -30 -28 -10
-5 26 13 20 14 24 3 22 -8 -2 -13 3 -11 10 1 8 -2 11 -8 7 -12 -7 -12 -3 -3
21 4 11 8 13 11 6 2 -7 8 -10 13 -6z"/>
<path fill="#ffffff" stroke="none" d="M28 163 c-1 -10 2 -19 7 -20 6 -1 9 7
7 17 -4 27 21 26 33 -1 12 -26 31 -22 27 5 -2 11 1 16 7 12 16 -10 14 -31 -4
-46 -11 -9 -13 -16 -5 -24 14 -14 12 -47 -6 -76 -11 -18 -13 -19 -9 -5 16 51
18 78 5 70 -8 -5 -11 -4 -7 1 3 6 -3 15 -14 22 -16 10 -21 10 -25 -3 -6 -14
-8 -13 -20 3 -7 10 -10 29 -7 40 6 26 16 29 11 5z"/>
<path fill="#ffffff" stroke="none" d="M93 160 c3 -11 1 -18 -4 -14 -5 3 -9
12 -9 20 0 20 7 17 13 -6z"/>
<path fill="#ffffff" stroke="none" d="M160 70 c0 -5 -4 -10 -10 -10 -5 0 -10
5 -10 10 0 6 5 10 10 10 6 0 10 -4 10 -10z"/>
<path fill="#000000" stroke="none" d="M275 90 c4 -14 7 -32 8 -41 1 -8 9 -16
19 -16 14 -1 18 6 18 32 0 27 -3 33 -16 28 -9 -3 -20 0 -26 8 -7 10 -8 7 -3
-11z"/>
</g>
</svg>
