<?xml version="1.0" standalone="no"?>
<!DOCTYPE svg PUBLIC "-//W3C//DTD SVG 20010904//EN"
 "http://www.w3.org/TR/2001/REC-SVG-20010904/DTD/svg10.dtd">
<svg version="1.0" xmlns="http://www.w3.org/2000/svg"
 width="32.000000pt" height="32.000000pt" viewBox="0 0 32.000000 32.000000"
 preserveAspectRatio="xMidYMid meet">
<metadata>
Created by potrace 1.16, written by Peter Selinger 2001-2019
</metadata>
<g transform="translate(0.000000,32.000000) scale(0.100000,-0.100000)"
fill="#000000" stroke="none">
<path fill="#000000" stroke="none" d="M38 308 c9 -9 15 -9 24 0 9 9 7 12 -12
12 -19 0 -21 -3 -12 -12z"/>
<path fill="#000000" stroke="none" d="M103 277 c12 -25 34 -51 51 -61 29 -17
31 -17 41 -1 28 47 48 65 74 65 15 0 32 -5 39 -12 9 -9 12 -5 12 20 l0 32
-118 0 -119 0 20 -43z"/>
<path fill="#000000" stroke="none" d="M0 212 c1 -56 1 -56 14 -27 7 17 11 34
9 38 -3 4 0 14 6 21 9 10 7 15 -9 19 -18 5 -20 1 -20 -51z"/>
<path fill="#000000" stroke="none" d="M42 150 c1 -17 3 -28 6 -25 3 3 11 0
19 -6 10 -9 18 -8 33 6 22 20 26 40 9 51 -6 4 -9 -1 -7 -12 4 -27 -15 -31 -27
-5 -14 31 -34 26 -33 -9z"/>
<path fill="#000000" stroke="none" d="M1 98 c0 -18 3 -27 6 -20 2 6 8 10 13
7 4 -3 6 4 3 15 -9 34 -23 33 -22 -2z"/>
<path fill="#000000" stroke="none" d="M276 107 c3 -10 9 -15 12 -12 3 3 0 11
-7 18 -10 9 -11 8 -5 -6z"/>
<path fill="#000000" stroke="none" d="M140 70 c0 -5 5 -10 10 -10 6 0 10 5
10 10 0 6 -4 10 -10 10 -5 0 -10 -4 -10 -10z"/>
<path fill="#000000" stroke="none" d="M298 23 c7 -3 16 -2 19 1 4 3 -2 6 -13
5 -11 0 -14 -3 -6 -6z"/>
<path fill="#000000" stroke="none" d="M0 10 c0 -13 57 -13 65 0 4 6 -8 10
-29 10 -20 0 -36 -4 -36 -10z"/>
<path fill="#000000" stroke="none" d="M178 3 c29 -2 74 -2 100 0 26 2 2 3
-53 3 -55 0 -76 -1 -47 -3z"/>
</g>
</svg>
