<?xml version="1.0" standalone="no"?>
<!DOCTYPE svg PUBLIC "-//W3C//DTD SVG 20010904//EN"
 "http://www.w3.org/TR/2001/REC-SVG-20010904/DTD/svg10.dtd">
<svg version="1.0" xmlns="http://www.w3.org/2000/svg"
 width="32.000000pt" height="32.000000pt" viewBox="0 0 32.000000 32.000000"
 preserveAspectRatio="xMidYMid meet">
<metadata>
Created by potrace 1.16, written by Peter Selinger 2001-2019
</metadata>
<g transform="translate(0.000000,32.000000) scale(0.100000,-0.100000)"
fill="#000000" stroke="none">
<path fill="#000000" stroke="none" d="M90 265 c-10 -12 -10 -21 -1 -42 6 -14
10 -26 9 -27 -2 -1 -16 -8 -31 -16 l-28 -14 23 -9 c18 -6 20 -10 8 -17 -11 -7
-8 -11 13 -19 16 -6 32 -11 36 -11 5 0 14 -7 21 -15 17 -20 31 -19 23 2 -5 13
-2 15 11 10 25 -10 39 2 22 18 -16 17 -16 30 3 64 8 14 9 21 2 17 -6 -4 -11 0
-11 9 0 9 -6 15 -12 12 -7 -2 -12 -10 -10 -16 1 -7 -1 -10 -5 -8 -5 3 -17 -1
-28 -9 -10 -8 -14 -14 -9 -14 6 0 10 -11 10 -25 0 -28 0 -29 -27 -15 -16 9
-17 14 -6 32 6 12 18 29 25 36 17 19 11 66 -9 70 -9 2 -22 -4 -29 -13z"/>
<path fill="#000000" stroke="none" d="M231 170 c-11 -6 -12 -16 -5 -42 11
-38 42 -45 55 -12 10 27 -28 68 -50 54z"/>
<path fill="#000000" stroke="none" d="M61 76 c-15 -18 -4 -46 18 -46 20 0 64
43 54 53 -11 12 -60 7 -72 -7z"/>
</g>
</svg>
