<?xml version="1.0" standalone="no"?>
<!DOCTYPE svg PUBLIC "-//W3C//DTD SVG 20010904//EN"
 "http://www.w3.org/TR/2001/REC-SVG-20010904/DTD/svg10.dtd">
<svg version="1.0" xmlns="http://www.w3.org/2000/svg"
 width="32.000000pt" height="32.000000pt" viewBox="0 0 32.000000 32.000000"
 preserveAspectRatio="xMidYMid meet">
<metadata>
Created by potrace 1.16, written by Peter Selinger 2001-2019
</metadata>
<g transform="translate(0.000000,32.000000) scale(0.100000,-0.100000)"
fill="#000000" stroke="none">
<path fill="#000000" stroke="none" d="M23 308 c-18 -9 -23 -19 -22 -47 1 -20
3 -28 6 -18 2 9 9 17 14 17 5 0 2 -16 -6 -36 -17 -40 -20 -124 -5 -124 16 0
33 -41 22 -52 -5 -5 -7 -18 -5 -29 5 -17 16 -19 128 -19 97 0 125 3 135 15 10
12 10 18 1 29 -13 16 1 56 19 56 15 0 12 84 -5 124 -8 20 -11 36 -6 36 5 0 12
-8 14 -17 3 -10 5 -2 6 18 1 29 -4 38 -24 47 -32 15 -35 15 -35 2 0 -5 5 -9
11 -7 6 1 14 -4 16 -10 7 -19 -14 -16 -29 5 -11 14 -29 17 -98 17 -69 0 -87
-3 -98 -17 -15 -21 -36 -24 -29 -5 2 6 10 11 16 10 6 -2 11 2 11 7 0 12 -8 12
-37 -2z"/>
<path fill="#ffffff" stroke="none" d="M177 274 c3 -9 1 -26 -6 -36 -10 -16
-10 -18 0 -13 8 5 10 4 5 -3 -20 -33 -57 14 -42 53 7 20 35 19 43 -1z"/>
<path fill="#ffffff" stroke="none" d="M99 257 c8 -10 7 -14 -2 -14 -8 0 -14
6 -14 14 0 7 1 13 2 13 2 0 8 -6 14 -13z"/>
<path fill="#ffffff" stroke="none" d="M237 257 c0 -8 -6 -14 -14 -14 -9 0
-10 4 -2 14 6 7 12 13 14 13 1 0 2 -6 2 -13z"/>
<path fill="#ffffff" stroke="none" d="M253 183 c8 -40 -5 -43 -22 -6 -10 21
-9 28 1 34 15 10 14 11 21 -28z"/>
<path fill="#ffffff" stroke="none" d="M108 185 c3 -11 0 -15 -7 -10 -13 7
-43 -13 -36 -24 2 -4 -3 -8 -11 -8 -11 0 -10 5 6 22 11 12 20 27 20 34 0 19
24 7 28 -14z"/>
<path fill="#ffffff" stroke="none" d="M202 185 c0 -5 -5 -11 -11 -13 -6 -2
-11 4 -11 13 0 9 5 15 11 13 6 -2 11 -8 11 -13z"/>
<path fill="#ffffff" stroke="none" d="M170 186 c0 -11 -19 -15 -25 -6 -3 5 1
10 9 10 9 0 16 -2 16 -4z"/>
<path fill="#ffffff" stroke="none" d="M31 123 c6 -7 6 -13 1 -17 -11 -6 -22
28 -21 59 1 15 3 14 6 -5 3 -14 9 -30 14 -37z"/>
<path fill="#ffffff" stroke="none" d="M306 135 c-4 -21 -11 -33 -17 -29 -7 4
-7 10 0 17 6 6 11 22 11 36 0 13 3 22 6 18 4 -3 3 -22 0 -42z"/>
<path fill="#ffffff" stroke="none" d="M126 135 c-11 -8 -25 -15 -30 -15 -6 0
-2 7 8 15 11 8 25 15 30 15 6 0 2 -7 -8 -15z"/>
<path fill="#ffffff" stroke="none" d="M221 134 c12 -14 11 -16 -5 -13 -11 2
-21 10 -24 17 -5 17 13 15 29 -4z"/>
<path fill="#ffffff" stroke="none" d="M125 99 c-8 -12 -35 -12 -35 0 0 11 22
20 33 14 4 -2 5 -9 2 -14z"/>
<path fill="#ffffff" stroke="none" d="M211 102 c-7 -2 -18 1 -23 6 -8 8 -4 9
13 5 13 -4 18 -8 10 -11z"/>
<path fill="#ffffff" stroke="none" d="M170 89 c0 -6 -4 -7 -10 -4 -5 3 -10
11 -10 16 0 6 5 7 10 4 6 -3 10 -11 10 -16z"/>
<path fill="#ffffff" stroke="none" d="M102 85 c20 0 34 -2 32 -4 -2 -2 1 -10
8 -18 16 -20 0 -32 -53 -39 l-46 -6 3 33 c4 55 4 55 12 44 4 -6 23 -11 44 -10z"/>
<path fill="#ffffff" stroke="none" d="M260 91 c0 11 2 11 8 1 5 -7 7 -23 6
-35 -1 -12 -3 -25 -3 -29 -1 -5 -6 -8 -12 -8 -7 0 -9 9 -6 21 3 12 0 28 -9 36
-12 13 -14 12 -14 -1 0 -9 -7 -16 -15 -16 -21 0 -19 28 3 32 9 3 23 0 30 -5 8
-6 12 -5 12 4z"/>
<path fill="#ffffff" stroke="none" d="M235 22 c-4 -4 -10 -1 -12 6 -3 6 -10
10 -16 6 -7 -3 -3 2 8 11 18 15 20 15 23 0 2 -9 1 -20 -3 -23z"/>
<path fill="#000000" stroke="none" d="M54 58 c0 -17 1 -18 12 -3 7 9 15 12
18 7 3 -5 17 -12 31 -14 13 -3 22 -1 19 3 -3 5 -13 9 -23 9 -10 0 -21 3 -25 7
-14 15 -32 10 -32 -9z"/>
</g>
</svg>
