<?xml version="1.0" standalone="no"?>
<!DOCTYPE svg PUBLIC "-//W3C//DTD SVG 20010904//EN"
 "http://www.w3.org/TR/2001/REC-SVG-20010904/DTD/svg10.dtd">
<svg version="1.0" xmlns="http://www.w3.org/2000/svg"
 width="32.000000pt" height="32.000000pt" viewBox="0 0 32.000000 32.000000"
 preserveAspectRatio="xMidYMid meet">
<metadata>
Created by potrace 1.16, written by Peter Selinger 2001-2019
</metadata>
<g transform="translate(0.000000,32.000000) scale(0.100000,-0.100000)"
fill="#000000" stroke="none">
<path fill="#000000" stroke="none" d="M170 303 c-25 -7 -52 -10 -60 -7 -38
17 -100 -13 -100 -49 0 -26 37 -63 60 -61 8 1 21 2 29 3 11 1 10 5 -4 21 -22
24 -33 18 -15 -7 7 -10 0 -5 -15 12 -27 28 -27 28 -20 5 7 -22 6 -23 -9 -11
-19 16 -21 56 -3 68 6 4 37 8 67 9 30 0 69 4 85 9 29 7 29 7 10 -8 -19 -15
-19 -16 -2 -23 10 -3 29 -2 43 4 13 7 24 8 24 3 0 -5 -7 -12 -16 -15 -14 -5
-14 -7 0 -22 16 -15 21 -34 11 -34 -3 0 -21 6 -40 14 -36 15 -79 11 -68 -7 4
-6 -8 0 -26 13 -33 23 -33 23 -22 1 14 -25 57 -45 79 -36 11 4 12 8 2 20 -16
19 -11 19 35 -1 43 -18 63 -8 46 23 -7 14 -7 23 1 31 17 17 0 34 -22 22 -10
-5 -26 -10 -35 -10 -14 0 -13 4 6 18 30 25 13 32 -41 15z"/>
<path fill="#000000" stroke="none" d="M45 260 c-3 -5 -2 -10 4 -10 5 0 13 5
16 10 3 6 2 10 -4 10 -5 0 -13 -4 -16 -10z"/>
<path fill="#000000" stroke="none" d="M129 253 c-13 -17 -13 -17 6 -3 11 8
22 16 24 17 2 2 0 3 -6 3 -6 0 -17 -8 -24 -17z"/>
<path fill="#000000" stroke="none" d="M102 154 c-18 -14 -32 -22 -32 -19 0 4
-6 2 -14 -4 -11 -10 -17 -7 -30 11 -9 12 -16 17 -16 10 0 -7 8 -19 19 -28 10
-9 17 -24 14 -33 -7 -27 24 -47 77 -51 10 0 7 -5 -9 -14 -20 -11 -21 -14 -6
-19 30 -12 169 -7 194 7 l24 13 -22 13 c-13 6 -47 10 -77 8 l-53 -3 29 23 c35
27 64 78 54 93 -4 6 -15 2 -31 -12 -13 -13 -36 -24 -51 -25 -15 -1 -26 -7 -24
-13 1 -6 -2 -11 -7 -11 -19 0 -22 20 -6 44 23 34 5 39 -33 10z"/>
<path fill="#ffffff" stroke="none" d="M134 156 c-7 -18 -54 -50 -54 -37 0 7
47 49 57 51 1 0 0 -6 -3 -14z"/>
<path fill="#ffffff" stroke="none" d="M236 121 c-9 -17 -32 -41 -51 -54 -19
-13 -32 -27 -27 -32 4 -4 -8 0 -26 9 -19 10 -36 15 -39 12 -10 -10 -43 15 -43
32 0 15 2 15 10 2 8 -13 10 -13 10 2 0 11 5 15 15 12 8 -4 15 -1 15 6 0 9 6 8
18 -3 23 -21 46 -22 38 -2 -4 12 -2 14 11 7 12 -7 24 -3 47 19 37 34 43 31 22
-10z"/>
<path fill="#000000" stroke="none" d="M272 76 c16 -19 38 -15 38 7 0 8 -4 7
-9 -2 -8 -13 -12 -13 -28 -1 -17 13 -17 13 -1 -4z"/>
</g>
</svg>
