<?xml version="1.0" standalone="no"?>
<!DOCTYPE svg PUBLIC "-//W3C//DTD SVG 20010904//EN"
 "http://www.w3.org/TR/2001/REC-SVG-20010904/DTD/svg10.dtd">
<svg version="1.0" xmlns="http://www.w3.org/2000/svg"
 width="32.000000pt" height="32.000000pt" viewBox="0 0 32.000000 32.000000"
 preserveAspectRatio="xMidYMid meet">
<metadata>
Created by potrace 1.16, written by Peter Selinger 2001-2019
</metadata>
<g transform="translate(0.000000,32.000000) scale(0.100000,-0.100000)"
fill="#000000" stroke="none">
<path fill="#000000" stroke="none" d="M0 310 c0 -5 7 -10 17 -10 15 0 15 -1
0 -18 -14 -15 -17 -38 -16 -118 1 -78 3 -90 9 -54 4 24 5 54 2 65 -5 18 -3 18
20 -5 27 -25 27 -46 1 -36 -11 5 -13 2 -9 -10 3 -8 6 -33 6 -55 0 -21 3 -38 8
-38 25 4 62 -2 58 -10 -10 -15 21 -21 102 -21 45 1 87 6 101 14 24 13 24 14 3
25 -11 6 -33 11 -48 11 -26 0 -27 1 -12 17 14 13 20 14 32 4 17 -14 36 -7 36
13 0 8 -8 20 -18 27 -15 13 -16 12 -4 -3 9 -11 10 -18 2 -23 -5 -3 -13 1 -17
11 -4 12 2 25 20 40 29 25 36 50 12 40 -8 -3 -15 -1 -15 4 0 6 5 10 10 10 6 0
10 25 10 56 0 45 -3 55 -15 51 -8 -4 -17 -2 -20 3 -3 5 5 11 17 13 13 2 -19 5
-70 6 -60 1 -91 -3 -87 -9 3 -5 2 -10 -4 -10 -5 0 -13 5 -16 10 -3 6 -31 10
-61 10 -30 0 -54 -4 -54 -10z"/>
<path fill="#ffffff" stroke="none" d="M297 238 c-3 -8 -6 -5 -6 6 -1 11 2 17
5 13 3 -3 4 -12 1 -19z"/>
<path fill="#ffffff" stroke="none" d="M45 210 c10 -11 16 -20 13 -20 -3 0
-13 9 -23 20 -10 11 -16 20 -13 20 3 0 13 -9 23 -20z"/>
<path fill="#ffffff" stroke="none" d="M75 210 c10 -11 16 -20 13 -20 -3 0
-13 9 -23 20 -10 11 -16 20 -13 20 3 0 13 -9 23 -20z"/>
<path fill="#ffffff" stroke="none" d="M211 150 c-23 -20 -41 -26 -41 -14 0
11 34 33 50 33 10 0 8 -6 -9 -19z"/>
<path fill="#ffffff" stroke="none" d="M120 99 c0 -6 -4 -7 -10 -4 -5 3 -10
11 -10 16 0 6 5 7 10 4 6 -3 10 -11 10 -16z"/>
<path fill="#ffffff" stroke="none" d="M84 94 c3 -8 2 -12 -4 -9 -6 3 -10 10
-10 16 0 14 7 11 14 -7z"/>
</g>
</svg>
