<?xml version="1.0" standalone="no"?>
<!DOCTYPE svg PUBLIC "-//W3C//DTD SVG 20010904//EN"
 "http://www.w3.org/TR/2001/REC-SVG-20010904/DTD/svg10.dtd">
<svg version="1.0" xmlns="http://www.w3.org/2000/svg"
 width="32.000000pt" height="32.000000pt" viewBox="0 0 32.000000 32.000000"
 preserveAspectRatio="xMidYMid meet">
<metadata>
Created by potrace 1.16, written by Peter Selinger 2001-2019
</metadata>
<g transform="translate(0.000000,32.000000) scale(0.100000,-0.100000)"
fill="#000000" stroke="none">
<path fill="#000000" stroke="none" d="M0 310 c0 -5 10 -10 23 -11 l22 0 -23
-16 c-20 -14 -22 -22 -21 -117 1 -79 3 -91 9 -56 4 24 5 54 2 65 -5 18 -3 18
20 -5 27 -25 27 -46 1 -36 -11 5 -13 2 -9 -10 3 -8 6 -33 6 -55 0 -21 3 -38 8
-38 25 4 62 -2 58 -10 -10 -15 21 -21 102 -21 45 1 87 6 101 14 24 13 24 14 3
25 -11 6 -33 11 -48 11 -26 0 -27 1 -12 17 14 13 20 14 32 4 17 -14 36 -7 36
13 0 8 -8 20 -18 27 -15 13 -16 12 -4 -3 9 -11 10 -18 2 -23 -13 -8 -24 20
-14 37 13 20 11 56 -3 51 -8 -3 -12 5 -10 26 1 17 4 31 7 31 11 0 27 -16 33
-30 3 -8 5 5 5 30 0 29 -2 38 -6 24 -6 -19 -9 -20 -20 -8 -7 8 -10 14 -6 14 3
0 1 7 -6 15 -9 11 -9 15 -1 15 7 0 10 4 6 9 -3 5 5 12 17 14 13 2 -19 5 -70 6
-60 1 -91 -3 -87 -9 3 -5 2 -10 -4 -10 -5 0 -13 5 -16 10 -3 6 -31 10 -61 10
-30 0 -54 -4 -54 -10z"/>
<path fill="#ffffff" stroke="none" d="M260 306 c0 -11 -19 -15 -25 -6 -3 5 1
10 9 10 9 0 16 -2 16 -4z"/>
<path fill="#ffffff" stroke="none" d="M45 210 c10 -11 16 -20 13 -20 -3 0
-13 9 -23 20 -10 11 -16 20 -13 20 3 0 13 -9 23 -20z"/>
<path fill="#ffffff" stroke="none" d="M75 210 c10 -11 16 -20 13 -20 -3 0
-13 9 -23 20 -10 11 -16 20 -13 20 3 0 13 -9 23 -20z"/>
<path fill="#ffffff" stroke="none" d="M218 150 c-15 -24 -35 -33 -44 -19 -7
11 24 38 44 39 10 0 10 -4 0 -20z"/>
<path fill="#ffffff" stroke="none" d="M100 156 c0 -2 -8 -10 -17 -17 -16 -13
-17 -12 -4 4 13 16 21 21 21 13z"/>
<path fill="#ffffff" stroke="none" d="M120 99 c0 -6 -4 -7 -10 -4 -5 3 -10
11 -10 16 0 6 5 7 10 4 6 -3 10 -11 10 -16z"/>
<path fill="#ffffff" stroke="none" d="M84 94 c3 -8 2 -12 -4 -9 -6 3 -10 10
-10 16 0 14 7 11 14 -7z"/>
</g>
</svg>
