<?xml version="1.0" standalone="no"?>
<!DOCTYPE svg PUBLIC "-//W3C//DTD SVG 20010904//EN"
 "http://www.w3.org/TR/2001/REC-SVG-20010904/DTD/svg10.dtd">
<svg version="1.0" xmlns="http://www.w3.org/2000/svg"
 width="32.000000pt" height="32.000000pt" viewBox="0 0 32.000000 32.000000"
 preserveAspectRatio="xMidYMid meet">
<metadata>
Created by potrace 1.16, written by Peter Selinger 2001-2019
</metadata>
<g transform="translate(0.000000,32.000000) scale(0.100000,-0.100000)"
fill="#000000" stroke="none">
<path fill="#000000" stroke="none" d="M76 298 c-20 -28 -20 -48 -1 -84 21
-41 19 -48 -22 -75 -52 -35 -63 -56 -38 -78 11 -9 25 -26 31 -36 10 -18 24
-20 141 -23 l130 -3 2 155 c2 154 2 154 -21 155 -13 0 -48 2 -78 3 -30 2 -63
-1 -72 -7 -12 -6 -21 -6 -30 3 -17 17 -25 15 -42 -10z"/>
</g>
</svg>
