<?xml version="1.0" standalone="no"?>
<!DOCTYPE svg PUBLIC "-//W3C//DTD SVG 20010904//EN"
 "http://www.w3.org/TR/2001/REC-SVG-20010904/DTD/svg10.dtd">
<svg version="1.0" xmlns="http://www.w3.org/2000/svg"
 width="32.000000pt" height="32.000000pt" viewBox="0 0 32.000000 32.000000"
 preserveAspectRatio="xMidYMid meet">
<metadata>
Created by potrace 1.16, written by Peter Selinger 2001-2019
</metadata>
<g transform="translate(0.000000,32.000000) scale(0.100000,-0.100000)"
fill="#000000" stroke="none">
<path fill="#000000" stroke="none" d="M0 208 l0 -111 23 20 c22 21 66 47 79
48 4 0 13 6 20 13 11 11 10 13 -1 10 -8 -2 -20 7 -26 20 -7 13 -16 23 -21 22
-16 -2 -16 41 0 66 l16 24 -45 0 -45 0 0 -112z"/>
<path fill="#000000" stroke="none" d="M115 310 c3 -5 12 -10 20 -10 8 0 17 5
20 10 4 6 -5 10 -20 10 -15 0 -24 -4 -20 -10z"/>
<path fill="#000000" stroke="none" d="M193 313 c9 -2 25 -2 35 0 9 3 1 5 -18
5 -19 0 -27 -2 -17 -5z"/>
<path fill="#000000" stroke="none" d="M273 309 c11 -7 23 -7 35 0 14 9 11 10
-18 10 -29 0 -32 -1 -17 -10z"/>
<path fill="#000000" stroke="none" d="M130 219 c0 -5 5 -7 10 -4 6 3 10 8 10
11 0 2 -4 4 -10 4 -5 0 -10 -5 -10 -11z"/>
<path fill="#000000" stroke="none" d="M116 131 c-21 -23 -9 -32 22 -16 19 10
20 14 9 24 -11 8 -18 7 -31 -8z"/>
<path fill="#000000" stroke="none" d="M215 130 c-10 -11 -13 -20 -7 -20 6 0
16 9 22 20 6 11 9 20 7 20 -2 0 -12 -9 -22 -20z"/>
<path fill="#000000" stroke="none" d="M117 66 c-15 -11 -15 -15 -3 -25 10 -8
16 -9 21 -1 3 6 11 7 17 4 7 -5 8 -2 3 6 -6 10 -4 12 8 7 10 -3 17 -2 17 2 0
8 -24 21 -38 21 -4 0 -15 -7 -25 -14z"/>
<path fill="#000000" stroke="none" d="M0 35 c0 -32 3 -35 29 -35 27 0 28 2
18 24 -6 13 -20 29 -29 35 -16 10 -18 7 -18 -24z"/>
</g>
</svg>
