<?xml version="1.0" standalone="no"?>
<!DOCTYPE svg PUBLIC "-//W3C//DTD SVG 20010904//EN"
 "http://www.w3.org/TR/2001/REC-SVG-20010904/DTD/svg10.dtd">
<svg version="1.0" xmlns="http://www.w3.org/2000/svg"
 width="32.000000pt" height="32.000000pt" viewBox="0 0 32.000000 32.000000"
 preserveAspectRatio="xMidYMid meet">
<metadata>
Created by potrace 1.16, written by Peter Selinger 2001-2019
</metadata>
<g transform="translate(0.000000,32.000000) scale(0.100000,-0.100000)"
fill="#000000" stroke="none">
<path fill="#000000" stroke="none" d="M101 291 c-8 -14 -7 -20 4 -25 8 -3 17
-1 20 4 8 13 25 13 25 0 0 -5 -7 -10 -15 -10 -8 0 -15 -5 -15 -11 0 -5 -4 -7
-10 -4 -5 3 -10 0 -10 -7 0 -9 -3 -9 -10 2 -5 8 -10 10 -10 4 0 -6 3 -13 6
-17 8 -7 57 11 65 25 4 6 10 1 14 -12 5 -15 13 -20 26 -17 14 4 18 0 16 -14
-2 -10 -6 -22 -10 -25 -4 -4 -7 -11 -7 -16 0 -5 12 5 26 22 15 17 24 34 20 37
-3 4 -6 0 -6 -8 -1 -10 -4 -9 -11 4 -5 9 -7 23 -3 30 4 6 -2 4 -14 -7 -21 -18
-21 -18 -33 8 -7 14 -22 33 -35 41 -21 14 -24 13 -33 -4z"/>
<path fill="#000000" stroke="none" d="M264 295 c-4 -9 -4 -19 0 -22 3 -4 6 2
7 13 0 18 1 18 9 -1 7 -16 9 -17 9 -3 1 23 -18 33 -25 13z"/>
<path fill="#000000" stroke="none" d="M259 259 c-10 -6 -10 -9 -1 -9 6 0 13
-10 13 -22 1 -21 2 -21 6 -3 3 11 10 23 15 26 5 4 3 9 -5 12 -7 3 -20 1 -28
-4z"/>
<path fill="#000000" stroke="none" d="M140 210 c-9 -6 -10 -10 -3 -10 6 0 15
5 18 10 8 12 4 12 -15 0z"/>
<path fill="#000000" stroke="none" d="M90 199 c0 -5 -6 -7 -12 -3 -9 5 -9 3
1 -9 15 -19 33 -13 24 8 -6 17 -13 20 -13 4z"/>
<path fill="#000000" stroke="none" d="M257 155 c-5 -10 0 -15 14 -15 12 0 19
5 17 12 -6 18 -25 20 -31 3z"/>
<path fill="#000000" stroke="none" d="M20 144 c0 -17 22 -18 38 -2 9 9 12 9
12 -1 0 -7 5 -9 10 -6 17 11 2 22 -30 23 -20 0 -30 -4 -30 -14z"/>
<path fill="#000000" stroke="none" d="M110 153 c0 -7 5 -15 11 -18 7 -5 4
-14 -8 -28 -16 -19 -16 -20 0 -8 15 12 17 10 17 -22 0 -33 12 -47 41 -47 5 0
9 21 9 46 0 39 2 45 14 34 13 -10 13 -8 3 14 -7 15 -13 20 -15 12 -4 -17 -42
-10 -59 12 -7 9 -13 11 -13 5z"/>
<path fill="#ffffff" stroke="none" d="M170 79 c0 -52 -24 -48 -28 4 -2 28 1
37 12 37 12 0 16 -11 16 -41z"/>
<path fill="#000000" stroke="none" d="M87 43 c-14 -13 -6 -23 18 -23 18 0 23
4 19 15 -6 16 -26 20 -37 8z"/>
<path fill="#000000" stroke="none" d="M190 25 c0 -10 10 -15 28 -15 26 1 26
1 8 15 -25 19 -36 19 -36 0z"/>
</g>
</svg>
