<?xml version="1.0" standalone="no"?>
<!DOCTYPE svg PUBLIC "-//W3C//DTD SVG 20010904//EN"
 "http://www.w3.org/TR/2001/REC-SVG-20010904/DTD/svg10.dtd">
<svg version="1.0" xmlns="http://www.w3.org/2000/svg"
 width="32.000000pt" height="32.000000pt" viewBox="0 0 32.000000 32.000000"
 preserveAspectRatio="xMidYMid meet">
<metadata>
Created by potrace 1.16, written by Peter Selinger 2001-2019
</metadata>
<g transform="translate(0.000000,32.000000) scale(0.100000,-0.100000)"
fill="#000000" stroke="none">
<path fill="#000000" stroke="none" d="M73 308 c-2 -5 -15 -8 -29 -8 -23 0
-24 -3 -26 -77 -4 -115 1 -178 12 -181 5 -2 10 -12 10 -23 0 -18 8 -19 126
-19 90 0 129 4 139 13 15 15 20 167 6 167 -6 0 -6 12 -1 32 10 34 3 79 -14 90
-21 14 -27 8 -15 -14 16 -29 22 -78 10 -78 -14 0 -24 20 -31 60 -5 29 -10 35
-28 33 -12 -2 -22 1 -22 6 0 10 -130 9 -137 -1z"/>
<path fill="#ffffff" stroke="none" d="M173 283 c-4 -10 -2 -14 5 -10 6 4 25
-7 44 -24 23 -22 26 -28 11 -20 -13 7 -23 15 -23 20 0 4 -6 8 -14 8 -16 0 -15
-22 2 -39 17 -17 15 -33 -5 -49 -15 -11 -16 -11 -5 1 18 21 15 34 -5 19 -15
-11 -16 -11 -5 1 22 25 13 34 -11 12 -13 -12 -31 -22 -39 -22 -20 0 -62 56
-49 64 5 4 12 2 15 -3 7 -11 25 -9 44 3 10 6 13 3 10 -10 -2 -12 -11 -19 -26
-18 -25 2 -30 -14 -6 -23 23 -9 47 21 50 64 2 43 2 43 9 43 2 0 1 -7 -2 -17z"/>
</g>
</svg>
