<?xml version="1.0" standalone="no"?>
<!DOCTYPE svg PUBLIC "-//W3C//DTD SVG 20010904//EN"
 "http://www.w3.org/TR/2001/REC-SVG-20010904/DTD/svg10.dtd">
<svg version="1.0" xmlns="http://www.w3.org/2000/svg"
 width="32.000000pt" height="32.000000pt" viewBox="0 0 32.000000 32.000000"
 preserveAspectRatio="xMidYMid meet">
<metadata>
Created by potrace 1.16, written by Peter Selinger 2001-2019
</metadata>
<g transform="translate(0.000000,32.000000) scale(0.100000,-0.100000)"
fill="#000000" stroke="none">
<path fill="#000000" stroke="none" d="M74 308 c-3 -5 -16 -8 -30 -8 -23 0
-24 -3 -26 -77 -4 -115 1 -178 12 -181 5 -2 10 -12 10 -23 0 -21 23 -25 64 -9
17 6 26 6 26 0 0 -6 23 -10 51 -10 37 0 48 3 43 13 -6 10 -4 10 7 0 17 -17 57
-16 74 0 15 15 20 167 6 167 -6 0 -6 12 0 32 12 43 12 45 -6 45 -10 0 -13 -7
-9 -24 4 -13 2 -23 -4 -23 -15 0 -25 19 -31 59 -4 19 -12 36 -20 39 -8 3 -11
0 -7 -7 10 -16 0 -14 -19 5 -21 22 -28 13 -15 -21 9 -23 13 -25 25 -15 12 10
15 9 15 -7 0 -10 7 -28 15 -39 25 -33 16 -37 -21 -9 l-35 27 6 -34 c6 -36 -6
-65 -24 -54 -6 4 -9 11 -6 16 3 5 1 11 -4 14 -5 4 -12 2 -16 -4 -11 -17 -44
-11 -55 10 -6 11 -17 20 -24 20 -13 0 -30 -34 -27 -53 1 -5 -3 -6 -8 -3 -12 8
6 78 23 88 6 4 18 5 26 3 8 -2 22 0 30 6 13 9 12 10 -2 5 -12 -3 -18 0 -18 10
0 8 5 12 10 9 6 -4 17 -1 25 5 8 7 15 9 15 6 0 -4 7 -1 15 8 8 8 15 16 15 18
0 7 -102 3 -106 -4z"/>
<path fill="#ffffff" stroke="none" d="M86 295 c-1 -8 -8 -21 -16 -28 -7 -6
-11 -7 -8 -2 3 6 8 18 11 28 8 21 16 23 13 2z"/>
<path fill="#ffffff" stroke="none" d="M291 167 c-1 -12 -15 -9 -19 4 -3 6 1
10 8 8 6 -3 11 -8 11 -12z"/>
<path fill="#ffffff" stroke="none" d="M294 121 c-2 -2 1 -10 8 -18 8 -10 8
-17 0 -25 -9 -9 -12 -9 -13 0 -1 7 -2 18 -3 25 0 6 -13 12 -28 11 -15 0 -25 3
-23 7 3 4 18 6 34 5 16 0 28 -3 25 -5z"/>
<path fill="#ffffff" stroke="none" d="M119 79 c-17 -25 -23 -28 -36 -17 -13
11 -12 15 12 35 35 31 51 19 24 -18z"/>
<path fill="#ffffff" stroke="none" d="M218 90 c6 -16 7 -32 2 -35 -11 -7 -42
43 -35 55 11 18 23 11 33 -20z"/>
<path fill="#000000" stroke="none" d="M276 295 c4 -8 8 -15 10 -15 2 0 4 7 4
15 0 8 -4 15 -10 15 -5 0 -7 -7 -4 -15z"/>
<path fill="#000000" stroke="none" d="M149 263 c-1 -4 -2 -17 -3 -28 -1 -14
-8 -20 -23 -19 -26 2 -31 -14 -8 -23 25 -9 66 59 44 73 -5 3 -9 2 -10 -3z"/>
</g>
</svg>
