<?xml version="1.0" standalone="no"?>
<!DOCTYPE svg PUBLIC "-//W3C//DTD SVG 20010904//EN"
 "http://www.w3.org/TR/2001/REC-SVG-20010904/DTD/svg10.dtd">
<svg version="1.0" xmlns="http://www.w3.org/2000/svg"
 width="32.000000pt" height="32.000000pt" viewBox="0 0 32.000000 32.000000"
 preserveAspectRatio="xMidYMid meet">
<metadata>
Created by potrace 1.16, written by Peter Selinger 2001-2019
</metadata>
<g transform="translate(0.000000,32.000000) scale(0.100000,-0.100000)"
fill="#000000" stroke="none">
<path fill="#000000" stroke="none" d="M135 274 c-16 -17 -13 -46 8 -73 6 -7
12 -31 13 -53 2 -43 18 -66 52 -73 18 -3 22 2 28 31 8 44 -9 66 -45 59 -25 -5
-26 -5 -2 5 15 6 21 16 17 25 -3 8 0 27 6 40 13 29 6 39 -34 49 -18 4 -32 1
-43 -10z"/>
<path fill="#ffffff" stroke="none" d="M178 228 c-3 -7 -13 -14 -24 -15 -17
-2 -17 -1 1 4 l20 6 -20 8 c-19 7 -18 8 3 8 15 1 22 -4 20 -11z"/>
<path fill="#ffffff" stroke="none" d="M210 140 c-6 -11 -16 -20 -23 -20 -7 0
-6 4 3 10 12 8 12 10 -5 11 -17 1 -16 2 5 9 14 4 26 8 28 9 1 1 -2 -8 -8 -19z"/>
<path fill="#000000" stroke="none" d="M225 211 c-3 -5 -2 -12 3 -15 5 -3 9 1
9 9 0 17 -3 19 -12 6z"/>
<path fill="#000000" stroke="none" d="M251 217 c2 -1 12 -9 22 -16 15 -12 17
-12 11 3 -3 9 -13 16 -22 16 -8 0 -13 -1 -11 -3z"/>
<path fill="#000000" stroke="none" d="M45 200 c-7 -11 31 -80 44 -80 7 0 35
30 39 43 1 4 -7 16 -18 27 -21 21 -55 26 -65 10z"/>
</g>
</svg>
