<?xml version="1.0" standalone="no"?>
<!DOCTYPE svg PUBLIC "-//W3C//DTD SVG 20010904//EN"
 "http://www.w3.org/TR/2001/REC-SVG-20010904/DTD/svg10.dtd">
<svg version="1.0" xmlns="http://www.w3.org/2000/svg"
 width="32.000000pt" height="32.000000pt" viewBox="0 0 32.000000 32.000000"
 preserveAspectRatio="xMidYMid meet">
<metadata>
Created by potrace 1.16, written by Peter Selinger 2001-2019
</metadata>
<g transform="translate(0.000000,32.000000) scale(0.100000,-0.100000)"
fill="#000000" stroke="none">
<path fill="#000000" stroke="none" d="M29 283 c-10 -11 -10 -14 -1 -9 6 4 12
2 12 -3 0 -20 16 -11 17 9 2 24 -10 26 -28 3z"/>
<path fill="#000000" stroke="none" d="M74 282 c4 -3 14 -7 22 -8 9 -1 13 0
10 4 -4 3 -14 7 -22 8 -9 1 -13 0 -10 -4z"/>
<path fill="#000000" stroke="none" d="M48 243 c6 -3 9 -9 6 -15 -4 -6 -1 -9
6 -6 23 7 21 24 -2 25 -13 0 -17 -1 -10 -4z"/>
<path fill="#000000" stroke="none" d="M81 189 c-19 -16 -26 -17 -39 -7 -13
11 -12 8 1 -13 18 -27 56 -49 84 -49 12 0 14 7 9 32 -10 50 -26 61 -55 37z"/>
<path fill="#ffffff" stroke="none" d="M114 164 c9 -22 8 -23 -14 -21 -11 1
-20 2 -20 3 0 11 14 34 20 34 4 0 11 -7 14 -16z"/>
<path fill="#000000" stroke="none" d="M16 104 c-4 -9 -4 -19 -1 -22 2 -3 7 3
11 12 4 9 4 19 1 22 -2 3 -7 -3 -11 -12z"/>
<path fill="#000000" stroke="none" d="M46 55 c8 -19 14 -19 14 0 0 8 -4 15
-10 15 -5 0 -7 -7 -4 -15z"/>
</g>
</svg>
