<?xml version="1.0" standalone="no"?>
<!DOCTYPE svg PUBLIC "-//W3C//DTD SVG 20010904//EN"
 "http://www.w3.org/TR/2001/REC-SVG-20010904/DTD/svg10.dtd">
<svg version="1.0" xmlns="http://www.w3.org/2000/svg"
 width="32.000000pt" height="32.000000pt" viewBox="0 0 32.000000 32.000000"
 preserveAspectRatio="xMidYMid meet">
<metadata>
Created by potrace 1.16, written by Peter Selinger 2001-2019
</metadata>
<g transform="translate(0.000000,32.000000) scale(0.100000,-0.100000)"
fill="#000000" stroke="none">
<path fill="#000000" stroke="none" d="M0 160 l0 -160 160 0 160 0 0 160 0
160 -160 0 -160 0 0 -160z"/>
<path fill="#ffffff" stroke="none" d="M75 300 c4 -6 11 -8 16 -5 5 4 9 2 9
-4 0 -6 8 -8 18 -4 14 5 14 3 -3 -10 -17 -13 -17 -17 -6 -33 8 -11 -1 -3 -19
16 -18 19 -31 27 -27 18 3 -9 3 -19 -1 -21 -4 -2 -1 -2 6 0 8 2 12 -4 10 -15
-2 -9 -13 -17 -26 -18 -25 -1 -26 3 -12 42 10 25 9 26 -7 13 -15 -12 -15 -10
1 9 21 24 32 27 41 12z"/>
<path fill="#ffffff" stroke="none" d="M141 252 c-7 -2 -18 1 -23 6 -8 8 -4 9
13 5 13 -4 18 -8 10 -11z"/>
<path fill="#ffffff" stroke="none" d="M79 194 c19 23 36 20 49 -9 20 -43 15
-65 -12 -65 -23 0 -86 51 -86 69 0 17 14 20 25 5 10 -14 12 -14 24 0z"/>
<path fill="#ffffff" stroke="none" d="M26 94 c-4 -9 -9 -15 -11 -12 -3 3 -3
13 1 22 4 9 9 15 11 12 3 -3 3 -13 -1 -22z"/>
<path fill="#ffffff" stroke="none" d="M104 49 c-3 -5 0 -9 7 -9 7 0 9 -3 6
-7 -11 -11 -47 29 -47 51 1 20 1 20 20 -3 11 -12 17 -27 14 -32z"/>
<path fill="#ffffff" stroke="none" d="M60 52 c0 -7 -4 -10 -10 -7 -5 3 -10
16 -10 28 0 18 2 19 10 7 5 -8 10 -21 10 -28z"/>
<path fill="#000000" stroke="none" d="M92 167 c-10 -12 -9 -16 4 -21 21 -8
23 -6 15 17 -6 17 -9 17 -19 4z"/>
</g>
</svg>
