<?xml version="1.0" standalone="no"?>
<!DOCTYPE svg PUBLIC "-//W3C//DTD SVG 20010904//EN"
 "http://www.w3.org/TR/2001/REC-SVG-20010904/DTD/svg10.dtd">
<svg version="1.0" xmlns="http://www.w3.org/2000/svg"
 width="32.000000pt" height="32.000000pt" viewBox="0 0 32.000000 32.000000"
 preserveAspectRatio="xMidYMid meet">
<metadata>
Created by potrace 1.16, written by Peter Selinger 2001-2019
</metadata>
<g transform="translate(0.000000,32.000000) scale(0.100000,-0.100000)"
fill="#000000" stroke="none">
<path fill="#000000" stroke="none" d="M38 293 c-9 -10 -13 -23 -11 -30 2 -6
-1 -14 -6 -18 -6 -3 -11 -12 -11 -18 0 -7 4 -6 10 3 6 10 10 11 10 3 0 -14 46
-18 54 -5 3 5 20 7 38 5 18 -1 27 0 19 3 -10 5 -6 11 15 20 18 9 21 12 7 8
-13 -3 -31 -1 -40 5 -17 10 -17 10 2 11 12 1 4 7 -20 15 -50 18 -49 18 -67 -2z"/>
<path fill="#000000" stroke="none" d="M81 203 c-10 -12 -15 -12 -21 -3 -4 7
-13 9 -19 6 -14 -9 -14 -36 0 -36 5 0 8 -4 5 -9 -8 -13 39 -41 69 -41 27 0 32
19 16 63 -12 31 -32 39 -50 20z"/>
<path fill="#ffffff" stroke="none" d="M113 156 c4 -10 1 -13 -8 -9 -8 3 -12
9 -9 14 7 12 11 11 17 -5z"/>
<path fill="#000000" stroke="none" d="M206 137 c3 -10 9 -15 12 -12 3 3 0 11
-7 18 -10 9 -11 8 -5 -6z"/>
<path fill="#000000" stroke="none" d="M15 101 c-11 -23 -12 -31 -3 -29 13 3
31 48 23 56 -2 2 -11 -10 -20 -27z"/>
<path fill="#000000" stroke="none" d="M60 89 c0 -18 57 -69 77 -68 15 0 14 2
-4 9 -13 5 -23 12 -23 14 0 3 8 2 17 -1 9 -4 1 8 -17 25 -34 33 -50 40 -50 21z"/>
<path fill="#000000" stroke="none" d="M40 73 c0 -12 5 -25 10 -28 13 -8 13
15 0 35 -8 12 -10 11 -10 -7z"/>
<path fill="#000000" stroke="none" d="M137 69 c7 -7 15 -10 18 -7 3 3 -2 9
-12 12 -14 6 -15 5 -6 -5z"/>
</g>
</svg>
