<?xml version="1.0" standalone="no"?>
<!DOCTYPE svg PUBLIC "-//W3C//DTD SVG 20010904//EN"
 "http://www.w3.org/TR/2001/REC-SVG-20010904/DTD/svg10.dtd">
<svg version="1.0" xmlns="http://www.w3.org/2000/svg"
 width="32.000000pt" height="32.000000pt" viewBox="0 0 32.000000 32.000000"
 preserveAspectRatio="xMidYMid meet">
<metadata>
Created by potrace 1.16, written by Peter Selinger 2001-2019
</metadata>
<g transform="translate(0.000000,32.000000) scale(0.100000,-0.100000)"
fill="#000000" stroke="none">
<path fill="#000000" stroke="none" d="M20 231 c0 -72 3 -90 16 -95 8 -3 14
-14 12 -23 -2 -12 6 -21 26 -28 38 -13 50 -41 13 -32 -20 6 -26 3 -31 -16 -3
-12 -6 -25 -6 -28 0 -4 56 -7 125 -8 l125 -1 0 160 0 160 -140 0 -140 0 0 -89z"/>
<path fill="#ffffff" stroke="none" d="M195 300 c4 -6 11 -8 16 -5 14 9 11 -3
-6 -22 -20 -24 -15 -37 13 -37 18 -1 27 -10 38 -41 17 -48 18 -95 3 -95 -7 0
-9 12 -5 33 5 26 2 38 -12 51 -17 14 -21 15 -31 2 -9 -11 -10 -20 -2 -35 6
-11 11 -35 11 -54 0 -19 7 -40 15 -47 19 -16 15 -32 -9 -36 -12 -2 -14 1 -7 9
13 17 -18 53 -52 59 -30 6 -36 1 -39 -34 -2 -18 -8 -24 -28 -25 -14 -1 -18 1
-10 4 21 8 30 24 30 54 0 15 9 37 19 50 18 24 18 25 0 47 l-18 23 -7 -25 c-5
-22 -12 -26 -45 -26 -28 0 -39 4 -39 15 0 17 16 20 25 5 9 -15 42 -12 48 4 3
8 3 24 0 36 -4 16 0 23 15 26 13 4 18 12 15 25 -3 10 -9 19 -14 19 -5 0 -9 5
-9 11 0 5 4 8 9 4 5 -3 12 -1 16 5 3 5 17 10 30 10 13 0 27 -5 30 -10z"/>
</g>
</svg>
