<?xml version="1.0" standalone="no"?>
<!DOCTYPE svg PUBLIC "-//W3C//DTD SVG 20010904//EN"
 "http://www.w3.org/TR/2001/REC-SVG-20010904/DTD/svg10.dtd">
<svg version="1.0" xmlns="http://www.w3.org/2000/svg"
 width="32.000000pt" height="32.000000pt" viewBox="0 0 32.000000 32.000000"
 preserveAspectRatio="xMidYMid meet">
<metadata>
Created by potrace 1.16, written by Peter Selinger 2001-2019
</metadata>
<g transform="translate(0.000000,32.000000) scale(0.100000,-0.100000)"
fill="#000000" stroke="none">
<path fill="#000000" stroke="none" d="M20 232 c0 -56 4 -92 12 -100 10 -10
10 -17 0 -33 -16 -25 -8 -37 13 -19 12 10 21 10 40 2 33 -15 33 -36 1 -28 -19
5 -29 0 -40 -16 -8 -12 -13 -25 -10 -30 3 -4 63 -8 135 -8 l129 0 0 160 0 160
-140 0 -140 0 0 -88z"/>
<path fill="#ffffff" stroke="none" d="M195 300 c4 -6 11 -8 16 -5 13 9 11 -4
-3 -20 -41 -42 -47 -53 -32 -59 8 -3 13 -2 10 3 -7 10 43 25 52 16 14 -14 9
-35 -9 -35 -10 0 -19 -4 -19 -10 0 -5 -8 -10 -17 -10 -16 -1 -16 -2 -2 -13 20
-15 31 -58 19 -77 -7 -12 -13 -12 -33 -1 -14 7 -30 11 -35 7 -22 -13 -19 10 5
39 14 17 22 25 19 18 -4 -7 1 -11 14 -10 20 1 20 2 4 14 -10 7 -23 13 -30 13
-7 0 -17 8 -23 17 -8 16 -10 14 -16 -10 -6 -24 -12 -27 -46 -27 -28 0 -39 4
-39 15 0 8 5 15 10 15 6 0 10 -4 10 -10 0 -16 47 -12 53 5 4 8 4 23 2 34 -5
25 11 37 30 21 12 -10 12 -7 2 19 -6 17 -15 31 -19 31 -4 0 -8 5 -8 11 0 5 4
8 9 4 5 -3 12 -1 16 5 3 5 17 10 30 10 13 0 27 -5 30 -10z"/>
<path fill="#ffffff" stroke="none" d="M264 174 c10 -25 7 -74 -4 -74 -6 0 -8
13 -5 31 3 17 0 37 -6 45 -7 9 -7 14 -1 14 5 0 13 -7 16 -16z"/>
<path fill="#ffffff" stroke="none" d="M128 52 c-2 -22 -7 -28 -27 -29 -15 0
-18 1 -9 4 10 2 21 15 24 29 8 32 15 30 12 -4z"/>
<path fill="#ffffff" stroke="none" d="M235 50 c19 -21 15 -32 -12 -36 -11 -2
-13 0 -4 9 8 8 6 16 -6 29 -9 10 -12 18 -6 18 5 0 18 -9 28 -20z"/>
<path fill="#000000" stroke="none" d="M149 202 c11 -8 11 -10 0 -15 -10 -4
-8 -6 4 -6 21 -1 18 21 -4 27 -12 3 -12 2 0 -6z"/>
</g>
</svg>
