<?xml version="1.0" standalone="no"?>
<!DOCTYPE svg PUBLIC "-//W3C//DTD SVG 20010904//EN"
 "http://www.w3.org/TR/2001/REC-SVG-20010904/DTD/svg10.dtd">
<svg version="1.0" xmlns="http://www.w3.org/2000/svg"
 width="32.000000pt" height="32.000000pt" viewBox="0 0 32.000000 32.000000"
 preserveAspectRatio="xMidYMid meet">
<metadata>
Created by potrace 1.16, written by Peter Selinger 2001-2019
</metadata>
<g transform="translate(0.000000,32.000000) scale(0.100000,-0.100000)"
fill="#000000" stroke="none">
<path fill="#000000" stroke="none" d="M0 160 c0 -100 4 -160 10 -160 6 0 10
11 10 25 0 16 4 23 13 19 8 -3 14 2 14 10 0 8 -6 12 -14 9 -11 -4 -14 3 -12
28 6 79 -2 229 -11 229 -6 0 -10 -60 -10 -160z"/>
<path fill="#000000" stroke="none" d="M300 160 c0 -100 4 -160 10 -160 6 0
10 60 10 160 0 100 -4 160 -10 160 -6 0 -10 -60 -10 -160z"/>
<path fill="#000000" stroke="none" d="M145 300 c-3 -5 -3 -14 0 -20 3 -5 2
-10 -4 -10 -6 0 -8 -7 -4 -16 7 -20 45 -14 49 9 1 9 -2 15 -7 11 -5 -3 -7 -9
-5 -13 3 -4 -1 -8 -8 -8 -11 0 -12 5 -4 23 6 13 15 21 21 17 6 -3 7 -1 3 5 -9
15 -33 16 -41 2z"/>
<path fill="#000000" stroke="none" d="M215 230 c3 -5 11 -10 16 -10 6 0 7 5
4 10 -3 6 -11 10 -16 10 -6 0 -7 -4 -4 -10z"/>
<path fill="#000000" stroke="none" d="M160 180 c-13 -8 -13 -10 2 -10 9 0 20
5 23 10 8 13 -5 13 -25 0z"/>
<path fill="#000000" stroke="none" d="M180 145 c-10 -12 -10 -18 0 -30 17
-20 33 -9 20 14 -5 10 -6 21 -3 25 3 3 4 6 1 6 -3 0 -11 -7 -18 -15z"/>
<path fill="#000000" stroke="none" d="M115 51 c-3 -11 -14 -22 -23 -24 -9 -3
-6 -4 8 -4 20 1 26 7 28 24 2 28 -4 30 -13 4z"/>
<path fill="#000000" stroke="none" d="M218 48 c8 -8 8 -15 1 -24 -7 -9 -6
-12 5 -10 9 1 18 5 22 9 8 8 -14 37 -29 37 -7 0 -7 -4 1 -12z"/>
</g>
</svg>
