<?xml version="1.0" standalone="no"?>
<!DOCTYPE svg PUBLIC "-//W3C//DTD SVG 20010904//EN"
 "http://www.w3.org/TR/2001/REC-SVG-20010904/DTD/svg10.dtd">
<svg version="1.0" xmlns="http://www.w3.org/2000/svg"
 width="32.000000pt" height="32.000000pt" viewBox="0 0 32.000000 32.000000"
 preserveAspectRatio="xMidYMid meet">
<metadata>
Created by potrace 1.16, written by Peter Selinger 2001-2019
</metadata>
<g transform="translate(0.000000,32.000000) scale(0.100000,-0.100000)"
fill="#000000" stroke="none">
<path fill="#000000" stroke="none" d="M22 190 c2 -102 5 -129 15 -126 7 3 13
-1 13 -9 0 -8 -4 -15 -9 -15 -5 0 -8 -8 -7 -18 3 -15 18 -17 134 -20 l132 -3
0 161 0 160 -140 0 -141 0 3 -130z"/>
<path fill="#ffffff" stroke="none" d="M186 298 c4 -6 3 -8 -3 -5 -6 4 -16 -6
-22 -21 -13 -27 -13 -27 8 -8 17 16 21 16 21 4 0 -9 -7 -21 -16 -28 -12 -11
-18 -10 -32 5 -13 13 -14 19 -4 22 6 3 10 9 6 14 -7 12 4 29 21 29 8 0 17 -5
21 -12z"/>
<path fill="#ffffff" stroke="none" d="M235 230 c3 -5 2 -10 -4 -10 -5 0 -13
5 -16 10 -3 6 -2 10 4 10 5 0 13 -4 16 -10z"/>
<path fill="#ffffff" stroke="none" d="M185 220 c-3 -5 0 -10 7 -10 9 0 9 -3
-2 -10 -13 -8 -12 -10 5 -11 18 -1 18 -2 2 -6 -14 -4 -16 -8 -6 -19 6 -8 8
-14 5 -14 -4 0 -2 -9 4 -19 12 -24 -3 -36 -20 -16 -10 12 -10 18 0 30 10 12
10 16 -1 19 -43 14 -44 14 -26 15 24 1 21 20 -5 32 l-23 10 22 -5 c13 -2 26 0
29 5 3 5 7 9 10 9 3 0 2 -4 -1 -10z"/>
<path fill="#ffffff" stroke="none" d="M157 194 c-3 -3 -12 -4 -19 -1 -8 3 -5
6 6 6 11 1 17 -2 13 -5z"/>
<path fill="#ffffff" stroke="none" d="M113 170 c-4 -14 -13 -20 -32 -19 -21
1 -22 2 -6 6 11 3 24 11 28 19 11 20 16 17 10 -6z"/>
<path fill="#ffffff" stroke="none" d="M266 165 c4 -14 4 -29 0 -32 -3 -4 -6
3 -6 13 0 11 -5 25 -12 32 -9 9 -9 12 0 12 6 0 14 -11 18 -25z"/>
<path fill="#ffffff" stroke="none" d="M47 165 c0 -8 -4 -15 -9 -15 -4 0 -8 7
-8 15 0 8 4 15 8 15 5 0 9 -7 9 -15z"/>
<path fill="#ffffff" stroke="none" d="M270 110 c0 -5 -5 -10 -11 -10 -5 0 -7
5 -4 10 3 6 8 10 11 10 2 0 4 -4 4 -10z"/>
<path fill="#ffffff" stroke="none" d="M85 70 c10 -11 16 -20 13 -20 -3 0 -13
9 -23 20 -10 11 -16 20 -13 20 3 0 13 -9 23 -20z"/>
<path fill="#ffffff" stroke="none" d="M128 47 c-2 -17 -8 -23 -28 -24 -14 0
-17 1 -8 4 9 2 20 13 23 24 9 26 15 24 13 -4z"/>
<path fill="#ffffff" stroke="none" d="M240 45 c14 -17 8 -28 -16 -31 -11 -2
-12 1 -5 10 7 9 7 16 -1 24 -8 8 -8 12 -1 12 6 0 16 -7 23 -15z"/>
</g>
</svg>
