<?xml version="1.0" standalone="no"?>
<!DOCTYPE svg PUBLIC "-//W3C//DTD SVG 20010904//EN"
 "http://www.w3.org/TR/2001/REC-SVG-20010904/DTD/svg10.dtd">
<svg version="1.0" xmlns="http://www.w3.org/2000/svg"
 width="32.000000pt" height="32.000000pt" viewBox="0 0 32.000000 32.000000"
 preserveAspectRatio="xMidYMid meet">
<metadata>
Created by potrace 1.16, written by Peter Selinger 2001-2019
</metadata>
<g transform="translate(0.000000,32.000000) scale(0.100000,-0.100000)"
fill="#000000" stroke="none">
<path fill="#000000" stroke="none" d="M0 160 c0 -89 4 -160 9 -160 12 0 17
80 13 213 -5 168 -22 127 -22 -53z"/>
<path fill="#000000" stroke="none" d="M300 160 c0 -100 4 -160 10 -160 6 0
10 60 10 160 0 100 -4 160 -10 160 -6 0 -10 -60 -10 -160z"/>
<path fill="#000000" stroke="none" d="M143 274 c-19 -8 -3 -34 20 -34 11 0
17 3 14 7 -4 3 -1 13 5 22 8 9 3 8 -10 -3 -19 -17 -22 -17 -16 -3 6 18 6 18
-13 11z"/>
<path fill="#000000" stroke="none" d="M160 180 c-13 -8 -13 -10 2 -10 9 0 20
5 23 10 8 13 -5 13 -25 0z"/>
<path fill="#000000" stroke="none" d="M115 51 c-3 -11 -14 -22 -23 -24 -9 -3
-6 -4 8 -4 20 1 26 7 28 24 2 28 -4 30 -13 4z"/>
<path fill="#000000" stroke="none" d="M218 48 c8 -8 8 -15 1 -24 -7 -9 -6
-12 5 -10 9 1 18 5 22 9 8 8 -14 37 -29 37 -7 0 -7 -4 1 -12z"/>
</g>
</svg>
