<?xml version="1.0" standalone="no"?>
<!DOCTYPE svg PUBLIC "-//W3C//DTD SVG 20010904//EN"
 "http://www.w3.org/TR/2001/REC-SVG-20010904/DTD/svg10.dtd">
<svg version="1.0" xmlns="http://www.w3.org/2000/svg"
 width="32.000000pt" height="32.000000pt" viewBox="0 0 32.000000 32.000000"
 preserveAspectRatio="xMidYMid meet">
<metadata>
Created by potrace 1.16, written by Peter Selinger 2001-2019
</metadata>
<g transform="translate(0.000000,32.000000) scale(0.100000,-0.100000)"
fill="#000000" stroke="none">
<path fill="#000000" stroke="none" d="M191 296 c-6 -7 -7 -17 -3 -21 4 -5 1
-5 -5 -1 -8 4 -13 1 -13 -9 0 -9 -4 -13 -10 -10 -5 3 -10 -2 -10 -11 0 -16 1
-16 19 0 19 17 39 7 26 -14 -11 -18 6 -32 23 -18 14 11 15 10 8 -7 -17 -42
-19 -58 -8 -51 25 15 10 -13 -19 -38 -39 -33 -74 -34 -95 -1 -13 21 -15 31 -6
50 6 14 9 31 6 39 -3 8 -1 17 5 21 6 3 11 0 11 -7 1 -7 10 5 20 26 22 43 20
56 -5 36 -9 -8 -13 -20 -9 -33 4 -12 2 -17 -4 -13 -13 8 -26 -11 -29 -39 0
-11 -4 -29 -8 -40 -9 -28 29 -75 61 -75 34 0 103 64 87 81 -8 8 -9 18 -2 31 5
10 9 24 7 31 -1 6 6 24 16 39 10 15 15 32 11 38 -11 17 -47 -20 -42 -42 3 -10
0 -21 -5 -25 -8 -4 -9 6 -5 30 6 39 -4 55 -22 33z"/>
<path fill="#000000" stroke="none" d="M252 208 c-14 -14 -16 -38 -4 -38 12 0
32 23 32 37 0 16 -12 17 -28 1z"/>
<path fill="#000000" stroke="none" d="M105 36 c-18 -13 -18 -14 3 -25 28 -15
74 -14 97 3 18 13 18 14 -3 25 -28 15 -74 14 -97 -3z"/>
</g>
</svg>
