<?xml version="1.0" standalone="no"?>
<!DOCTYPE svg PUBLIC "-//W3C//DTD SVG 20010904//EN"
 "http://www.w3.org/TR/2001/REC-SVG-20010904/DTD/svg10.dtd">
<svg version="1.0" xmlns="http://www.w3.org/2000/svg"
 width="32.000000pt" height="32.000000pt" viewBox="0 0 32.000000 32.000000"
 preserveAspectRatio="xMidYMid meet">
<metadata>
Created by potrace 1.16, written by Peter Selinger 2001-2019
</metadata>
<g transform="translate(0.000000,32.000000) scale(0.100000,-0.100000)"
fill="#000000" stroke="none">
<path fill="#000000" stroke="none" d="M50 292 l-33 -29 11 -71 c7 -39 12 -95
12 -125 0 -41 4 -56 16 -61 9 -3 66 -6 129 -6 90 0 115 3 126 16 11 13 10 19
0 37 -10 15 -11 22 -2 25 14 5 15 59 1 67 -7 4 -7 12 0 25 13 25 13 87 -1 96
-8 4 -8 9 0 17 19 19 12 37 -12 37 -28 0 -57 -28 -57 -56 0 -10 -5 -26 -11
-34 -8 -11 -9 -7 -5 18 6 37 -11 72 -36 72 -9 0 -30 -11 -46 -25 -36 -30 -39
-31 -38 -4 1 32 -16 33 -54 1z"/>
<path fill="#ffffff" stroke="none" d="M78 233 c-5 -24 -36 -25 -44 0 -9 27
25 56 39 32 4 -9 7 -23 5 -32z"/>
<path fill="#ffffff" stroke="none" d="M180 260 c24 -24 24 -30 7 -54 -21 -28
-61 -17 -65 17 -3 28 12 57 29 57 5 0 18 -9 29 -20z"/>
<path fill="#ffffff" stroke="none" d="M300 206 c-16 -20 -34 -20 -50 -1 -10
13 -9 19 5 36 19 20 19 20 39 0 16 -17 17 -23 6 -35z"/>
<path fill="#000000" stroke="none" d="M139 258 c-8 -26 -5 -38 9 -38 15 0 15
-2 2 -10 -9 -6 -10 -10 -3 -10 15 0 36 37 28 50 -5 9 -34 14 -36 8z"/>
<path fill="#000000" stroke="none" d="M285 220 c-4 -6 -11 -7 -17 -4 -7 4 -8
2 -4 -4 10 -16 23 -15 30 3 6 17 0 20 -9 5z"/>
</g>
</svg>
