<?xml version="1.0" standalone="no"?>
<!DOCTYPE svg PUBLIC "-//W3C//DTD SVG 20010904//EN"
 "http://www.w3.org/TR/2001/REC-SVG-20010904/DTD/svg10.dtd">
<svg version="1.0" xmlns="http://www.w3.org/2000/svg"
 width="32.000000pt" height="32.000000pt" viewBox="0 0 32.000000 32.000000"
 preserveAspectRatio="xMidYMid meet">
<metadata>
Created by potrace 1.16, written by Peter Selinger 2001-2019
</metadata>
<g transform="translate(0.000000,32.000000) scale(0.100000,-0.100000)"
fill="#000000" stroke="none">
<path fill="#000000" stroke="none" d="M0 160 l0 -160 160 0 160 0 0 160 0
160 -160 0 -160 0 0 -160z"/>
<path fill="#ffffff" stroke="none" d="M66 275 c0 -19 -3 -22 -13 -13 -17 14
-17 49 0 42 7 -2 13 -16 13 -29z"/>
<path fill="#ffffff" stroke="none" d="M87 273 c-3 -10 -5 -4 -5 12 0 17 2 24
5 18 2 -7 2 -21 0 -30z"/>
<path fill="#ffffff" stroke="none" d="M192 236 c12 -18 9 -26 -9 -26 -14 0
-15 2 -5 9 11 7 11 9 -2 14 -11 4 -16 1 -17 -11 -1 -16 -2 -16 -6 1 -2 9 -9
15 -14 11 -5 -3 -7 -10 -4 -15 4 -5 1 -9 -4 -9 -14 0 -14 6 0 31 7 15 16 18
32 13 12 -4 25 -12 29 -18z"/>
<path fill="#ffffff" stroke="none" d="M40 175 c12 -36 25 -65 28 -65 4 0 7
-11 7 -24 0 -15 -5 -22 -12 -19 -13 5 -17 16 -14 39 1 6 -8 37 -19 69 -22 63
-22 65 -16 65 2 0 14 -29 26 -65z"/>
<path fill="#ffffff" stroke="none" d="M275 230 c3 -5 2 -17 -3 -26 -8 -14
-11 -14 -18 -3 -14 22 -13 39 1 39 8 0 17 -4 20 -10z"/>
<path fill="#ffffff" stroke="none" d="M79 183 c9 -17 8 -21 -4 -19 -22 3 -28
13 -21 32 7 19 9 18 25 -13z"/>
<path fill="#ffffff" stroke="none" d="M173 170 l-3 -25 20 24 c19 22 20 22
20 3 0 -12 -9 -23 -21 -27 -16 -5 -18 -10 -8 -21 11 -13 8 -17 -8 -11 -5 1 -7
4 -6 7 2 8 -21 25 -36 25 -7 0 -17 10 -22 23 -5 12 -5 22 0 22 4 0 13 -10 19
-22 11 -21 11 -21 5 5 -5 26 -3 28 18 25 19 -2 23 -9 22 -28z"/>
<path fill="#ffffff" stroke="none" d="M300 145 c0 -8 -13 -29 -29 -47 -29
-32 -29 -32 -50 -14 -11 10 -18 22 -16 26 7 12 45 0 45 -14 1 -15 39 36 40 52
0 17 10 15 10 -3z"/>
<path fill="#ffffff" stroke="none" d="M235 140 c3 -5 -1 -10 -10 -10 -9 0
-13 5 -10 10 3 6 8 10 10 10 2 0 7 -4 10 -10z"/>
<path fill="#ffffff" stroke="none" d="M230 56 c0 -2 -12 -11 -27 -20 l-28
-17 24 20 c23 21 31 25 31 17z"/>
<path fill="#000000" stroke="none" d="M146 182 c-3 -5 1 -17 8 -27 12 -17 13
-17 11 3 -2 26 -11 37 -19 24z"/>
</g>
</svg>
