<?xml version="1.0" standalone="no"?>
<!DOCTYPE svg PUBLIC "-//W3C//DTD SVG 20010904//EN"
 "http://www.w3.org/TR/2001/REC-SVG-20010904/DTD/svg10.dtd">
<svg version="1.0" xmlns="http://www.w3.org/2000/svg"
 width="32.000000pt" height="32.000000pt" viewBox="0 0 32.000000 32.000000"
 preserveAspectRatio="xMidYMid meet">
<metadata>
Created by potrace 1.16, written by Peter Selinger 2001-2019
</metadata>
<g transform="translate(0.000000,32.000000) scale(0.100000,-0.100000)"
fill="#000000" stroke="none">
<path fill="#000000" stroke="none" d="M40 291 c0 -10 6 -23 13 -29 10 -9 13
-6 13 13 0 13 -6 27 -13 29 -8 3 -13 -2 -13 -13z"/>
<path fill="#000000" stroke="none" d="M82 285 c0 -16 2 -22 5 -12 2 9 2 23 0
30 -3 6 -5 -1 -5 -18z"/>
<path fill="#000000" stroke="none" d="M131 241 c-14 -25 -14 -31 0 -31 5 0 8
4 4 9 -3 5 -1 12 4 15 5 4 12 -2 14 -11 4 -17 5 -17 6 -1 1 12 6 15 17 11 13
-5 13 -7 2 -14 -10 -7 -9 -9 5 -9 31 0 16 33 -20 44 -16 5 -25 2 -32 -13z"/>
<path fill="#000000" stroke="none" d="M10 237 c0 -2 9 -30 20 -62 11 -32 20
-63 19 -69 -3 -23 1 -34 14 -39 7 -3 12 4 12 19 0 13 -3 24 -7 24 -3 0 -16 29
-28 65 -18 54 -30 79 -30 62z"/>
<path fill="#000000" stroke="none" d="M244 228 c1 -7 5 -19 10 -27 7 -11 10
-11 18 3 5 9 6 21 3 26 -9 14 -34 12 -31 -2z"/>
<path fill="#000000" stroke="none" d="M54 196 c-7 -19 -1 -29 21 -32 12 -2
13 2 4 19 -16 31 -18 32 -25 13z"/>
<path fill="#000000" stroke="none" d="M133 173 c6 -26 6 -26 -5 -5 -6 12 -15
22 -19 22 -5 0 -5 -10 0 -22 5 -13 15 -23 22 -23 15 0 38 -17 36 -25 -1 -3 1
-6 6 -7 16 -6 19 -2 8 11 -10 11 -8 16 8 21 12 4 21 15 21 27 0 19 -1 19 -20
-3 l-20 -24 3 25 c1 19 -3 26 -22 28 -21 3 -23 1 -18 -25z"/>
<path fill="#ffffff" stroke="none" d="M165 158 c2 -20 1 -20 -11 -3 -7 10
-11 22 -8 27 8 13 17 2 19 -24z"/>
<path fill="#000000" stroke="none" d="M290 148 c-1 -16 -39 -67 -40 -52 0 14
-38 26 -45 14 -2 -4 5 -16 16 -26 21 -18 21 -18 50 14 16 18 29 39 29 47 0 18
-10 20 -10 3z"/>
<path fill="#000000" stroke="none" d="M215 140 c-3 -5 1 -10 10 -10 9 0 13 5
10 10 -3 6 -8 10 -10 10 -2 0 -7 -4 -10 -10z"/>
<path fill="#000000" stroke="none" d="M199 39 l-24 -20 28 17 c15 9 27 18 27
20 0 8 -8 4 -31 -17z"/>
</g>
</svg>
