<?xml version="1.0" standalone="no"?>
<!DOCTYPE svg PUBLIC "-//W3C//DTD SVG 20010904//EN"
 "http://www.w3.org/TR/2001/REC-SVG-20010904/DTD/svg10.dtd">
<svg version="1.0" xmlns="http://www.w3.org/2000/svg"
 width="32.000000pt" height="32.000000pt" viewBox="0 0 32.000000 32.000000"
 preserveAspectRatio="xMidYMid meet">
<metadata>
Created by potrace 1.16, written by Peter Selinger 2001-2019
</metadata>
<g transform="translate(0.000000,32.000000) scale(0.100000,-0.100000)"
fill="#000000" stroke="none">
<path fill="#000000" stroke="none" d="M133 308 c-6 -7 -14 -34 -18 -61 -4
-26 -11 -50 -16 -53 -5 -3 -9 -10 -9 -17 0 -22 22 10 30 45 l8 33 1 -29 c1
-18 -8 -39 -21 -53 -17 -18 -19 -26 -10 -35 9 -9 12 -9 12 3 0 7 10 -2 21 -21
24 -39 23 -44 -6 -47 -11 -1 -14 1 -7 3 6 3 12 13 11 22 0 12 -2 13 -6 4 -3
-9 -11 -3 -24 17 -12 20 -24 29 -34 25 -10 -4 -15 0 -15 15 0 15 5 19 18 15
14 -5 15 -4 2 5 -8 5 -19 6 -23 2 -14 -14 -3 -46 16 -45 11 1 17 -5 17 -18 0
-10 11 -30 25 -44 29 -29 31 -40 10 -48 -17 -6 -20 -26 -4 -26 5 0 8 4 5 9 -3
5 1 12 9 15 9 3 18 0 21 -7 3 -9 27 -14 72 -15 90 -2 102 3 102 39 0 25 -4 29
-29 29 -28 0 -29 1 -35 73 -9 92 -48 170 -87 175 -14 2 -31 -3 -36 -10z"/>
<path fill="#ffffff" stroke="none" d="M203 263 c14 -27 27 -73 30 -103 4 -35
3 -46 -3 -30 -7 21 -8 18 -10 -20 -1 -35 -3 -40 -10 -25 -7 16 -9 14 -9 -15
-1 -23 2 -30 8 -22 7 11 9 11 14 -1 7 -19 -21 -16 -34 4 -8 11 -9 10 -7 -6 2
-10 14 -22 28 -27 23 -6 23 -7 -5 -5 l-30 2 1 67 c2 58 0 66 -15 61 -13 -4
-13 -3 -2 5 9 6 11 19 7 35 -3 14 -2 29 4 32 5 3 10 11 10 18 0 6 -6 2 -14 -9
-14 -18 -15 -18 -25 9 -20 52 -13 77 20 77 12 0 27 -17 42 -47z"/>
<path fill="#000000" stroke="none" d="M201 124 c0 -11 3 -14 6 -6 3 7 2 16
-1 19 -3 4 -6 -2 -5 -13z"/>
</g>
</svg>
