<?xml version="1.0" standalone="no"?>
<!DOCTYPE svg PUBLIC "-//W3C//DTD SVG 20010904//EN"
 "http://www.w3.org/TR/2001/REC-SVG-20010904/DTD/svg10.dtd">
<svg version="1.0" xmlns="http://www.w3.org/2000/svg"
 width="32.000000pt" height="32.000000pt" viewBox="0 0 32.000000 32.000000"
 preserveAspectRatio="xMidYMid meet">
<metadata>
Created by potrace 1.16, written by Peter Selinger 2001-2019
</metadata>
<g transform="translate(0.000000,32.000000) scale(0.100000,-0.100000)"
fill="#000000" stroke="none">
<path fill="#000000" stroke="none" d="M10 165 l0 -155 155 0 155 0 0 155 0
155 -56 0 c-34 0 -53 -4 -49 -10 3 -5 1 -10 -4 -10 -6 0 -11 5 -11 10 0 6 -38
10 -95 10 l-95 0 0 -155z"/>
<path fill="#ffffff" stroke="none" d="M165 280 c-3 -5 -1 -10 5 -10 7 0 10
-6 8 -12 -8 -22 -33 -14 -34 10 -1 13 5 22 13 22 8 0 11 -4 8 -10z"/>
<path fill="#ffffff" stroke="none" d="M105 220 c-10 -11 -25 -20 -34 -19 -11
0 -9 3 5 9 12 5 25 13 29 19 3 6 9 11 12 11 3 0 -2 -9 -12 -20z"/>
<path fill="#ffffff" stroke="none" d="M166 205 c0 -14 -4 -25 -8 -25 -4 0 -8
11 -8 25 0 14 4 25 8 25 4 0 8 -11 8 -25z"/>
<path fill="#ffffff" stroke="none" d="M268 185 c-3 -3 -9 2 -12 12 -6 14 -5
15 5 6 7 -7 10 -15 7 -18z"/>
<path fill="#ffffff" stroke="none" d="M70 175 c0 -8 -4 -15 -10 -15 -5 0 -10
7 -10 15 0 8 5 15 10 15 6 0 10 -7 10 -15z"/>
<path fill="#ffffff" stroke="none" d="M260 154 c0 -8 -5 -12 -10 -9 -6 4 -8
11 -5 16 9 14 15 11 15 -7z"/>
</g>
</svg>
