<?xml version="1.0" standalone="no"?>
<!DOCTYPE svg PUBLIC "-//W3C//DTD SVG 20010904//EN"
 "http://www.w3.org/TR/2001/REC-SVG-20010904/DTD/svg10.dtd">
<svg version="1.0" xmlns="http://www.w3.org/2000/svg"
 width="32.000000pt" height="32.000000pt" viewBox="0 0 32.000000 32.000000"
 preserveAspectRatio="xMidYMid meet">
<metadata>
Created by potrace 1.16, written by Peter Selinger 2001-2019
</metadata>
<g transform="translate(0.000000,32.000000) scale(0.100000,-0.100000)"
fill="#000000" stroke="none">
<path fill="#000000" stroke="none" d="M102 283 c-16 -17 -20 -28 -12 -33 14
-9 -24 -76 -52 -91 -28 -15 -21 -63 10 -67 30 -5 50 -52 27 -64 -35 -20 -8
-26 115 -27 124 -1 130 0 130 19 0 11 -5 20 -12 20 -9 0 -9 3 0 12 7 7 12 21
12 32 0 10 -3 16 -7 13 -3 -4 -11 -2 -18 3 -6 5 -22 11 -36 13 -21 4 -24 9
-22 39 2 26 -4 41 -21 57 -14 13 -22 30 -19 41 15 56 -54 81 -95 33z"/>
<path fill="#ffffff" stroke="none" d="M151 269 c-2 -8 -4 -28 -4 -44 -1 -22
-5 -31 -18 -31 -16 0 -19 12 -7 31 3 6 5 23 3 38 -3 22 0 27 13 24 9 -2 15
-10 13 -18z"/>
<path fill="#ffffff" stroke="none" d="M77 144 c-9 -9 -28 6 -21 18 4 6 10 6
17 -1 6 -6 8 -13 4 -17z"/>
<path fill="#ffffff" stroke="none" d="M197 145 c2 -6 -6 -11 -17 -11 -11 0
-20 6 -20 14 0 15 32 13 37 -3z"/>
<path fill="#ffffff" stroke="none" d="M55 125 c0 -10 -7 -20 -15 -22 -13 -4
-13 -3 0 6 10 7 11 11 3 11 -7 0 -13 7 -13 16 0 9 6 14 13 12 6 -3 12 -13 12
-23z"/>
</g>
</svg>
