<?xml version="1.0" standalone="no"?>
<!DOCTYPE svg PUBLIC "-//W3C//DTD SVG 20010904//EN"
 "http://www.w3.org/TR/2001/REC-SVG-20010904/DTD/svg10.dtd">
<svg version="1.0" xmlns="http://www.w3.org/2000/svg"
 width="32.000000pt" height="32.000000pt" viewBox="0 0 32.000000 32.000000"
 preserveAspectRatio="xMidYMid meet">
<metadata>
Created by potrace 1.16, written by Peter Selinger 2001-2019
</metadata>
<g transform="translate(0.000000,32.000000) scale(0.100000,-0.100000)"
fill="#000000" stroke="none">
<path fill="#000000" stroke="none" d="M0 160 l0 -160 25 0 c38 0 67 34 55 64
-5 14 -19 26 -32 28 -31 4 -38 52 -10 67 28 15 66 82 52 91 -19 11 33 60 63
60 29 0 52 -31 44 -60 -3 -11 5 -28 19 -41 17 -16 23 -31 21 -57 -2 -30 1 -35
22 -39 14 -2 30 -8 36 -13 21 -17 25 1 25 112 l0 108 -160 0 -160 0 0 -160z"/>
<path fill="#000000" stroke="none" d="M125 260 c4 -6 11 -8 16 -5 14 9 11 15
-7 15 -8 0 -12 -5 -9 -10z"/>
<path fill="#000000" stroke="none" d="M31 134 c0 -11 3 -14 6 -6 3 7 2 16 -1
19 -3 4 -6 -2 -5 -13z"/>
<path fill="#000000" stroke="none" d="M40 110 c-9 -6 -10 -10 -3 -10 6 0 15
5 18 10 8 12 4 12 -15 0z"/>
<path fill="#000000" stroke="none" d="M305 50 c-3 -5 -1 -10 4 -10 6 0 11 5
11 10 0 6 -2 10 -4 10 -3 0 -8 -4 -11 -10z"/>
</g>
</svg>
