<?xml version="1.0" standalone="no"?>
<!DOCTYPE svg PUBLIC "-//W3C//DTD SVG 20010904//EN"
 "http://www.w3.org/TR/2001/REC-SVG-20010904/DTD/svg10.dtd">
<svg version="1.0" xmlns="http://www.w3.org/2000/svg"
 width="32.000000pt" height="32.000000pt" viewBox="0 0 32.000000 32.000000"
 preserveAspectRatio="xMidYMid meet">
<metadata>
Created by potrace 1.16, written by Peter Selinger 2001-2019
</metadata>
<g transform="translate(0.000000,32.000000) scale(0.100000,-0.100000)"
fill="#000000" stroke="none">
<path fill="#000000" stroke="none" d="M0 160 l0 -160 160 0 160 0 0 160 0
160 -160 0 -160 0 0 -160z"/>
<path fill="#ffffff" stroke="none" d="M148 285 c-2 -6 -7 -9 -12 -7 -5 2 -4
-3 3 -12 7 -8 8 -17 3 -20 -11 -7 -24 33 -16 46 8 12 26 5 22 -7z"/>
<path fill="#ffffff" stroke="none" d="M128 218 c-2 -7 6 -13 17 -13 11 0 19
6 17 13 -1 8 2 11 7 8 8 -5 8 -27 1 -46 -1 -3 -2 -9 -1 -13 1 -5 -3 -6 -9 -2
-6 3 -7 12 -3 18 4 7 0 6 -10 -2 -9 -7 -18 -11 -18 -7 -1 3 -2 10 -3 15 -3 21
-14 20 -30 -4 -9 -14 -21 -25 -26 -25 -6 0 4 16 21 35 35 38 40 41 37 23z"/>
<path fill="#ffffff" stroke="none" d="M290 197 c10 -4 8 -6 -7 -6 -16 -1 -23
5 -23 17 0 10 3 13 8 6 4 -6 14 -14 22 -17z"/>
<path fill="#ffffff" stroke="none" d="M225 180 c10 -11 14 -20 8 -20 -5 0
-18 9 -28 20 -10 11 -14 20 -8 20 5 0 18 -9 28 -20z"/>
<path fill="#ffffff" stroke="none" d="M50 165 c0 -8 -4 -15 -10 -15 -5 0 -10
7 -10 15 0 8 5 15 10 15 6 0 10 -7 10 -15z"/>
<path fill="#ffffff" stroke="none" d="M307 165 c0 -8 -4 -15 -8 -15 -4 0 -9
7 -13 15 -3 9 0 15 8 15 7 0 13 -7 13 -15z"/>
<path fill="#ffffff" stroke="none" d="M270 155 c0 -8 -4 -15 -10 -15 -5 0
-10 7 -10 15 0 8 5 15 10 15 6 0 10 -7 10 -15z"/>
<path fill="#ffffff" stroke="none" d="M175 141 c-3 -5 -1 -12 5 -16 6 -4 8
-11 4 -16 -3 -5 -2 -16 3 -22 4 -7 1 -6 -7 3 -9 9 -23 16 -33 14 -9 -1 -16 1
-16 4 3 19 -3 22 -22 12 -13 -8 -18 -17 -14 -28 5 -14 4 -15 -7 -4 -11 11 -9
17 10 32 12 10 31 17 42 15 11 -2 22 0 25 6 4 5 8 9 11 9 3 0 3 -4 -1 -9z"/>
<path fill="#ffffff" stroke="none" d="M304 133 c-5 -5 -12 -12 -16 -18 -4 -6
-8 -2 -8 8 0 9 7 17 17 17 9 0 12 -3 7 -7z"/>
<path fill="#ffffff" stroke="none" d="M250 109 c0 -6 -4 -7 -10 -4 -5 3 -10
11 -10 16 0 6 5 7 10 4 6 -3 10 -11 10 -16z"/>
<path fill="#ffffff" stroke="none" d="M267 98 c-3 -8 -6 -5 -6 6 -1 11 2 17
5 13 3 -3 4 -12 1 -19z"/>
<path fill="#ffffff" stroke="none" d="M157 68 c-3 -8 -6 -5 -6 6 -1 11 2 17
5 13 3 -3 4 -12 1 -19z"/>
<path fill="#000000" stroke="none" d="M144 122 c4 -3 14 -7 22 -8 9 -1 13 0
10 4 -4 3 -14 7 -22 8 -9 1 -13 0 -10 -4z"/>
</g>
</svg>
