<?xml version="1.0" standalone="no"?>
<!DOCTYPE svg PUBLIC "-//W3C//DTD SVG 20010904//EN"
 "http://www.w3.org/TR/2001/REC-SVG-20010904/DTD/svg10.dtd">
<svg version="1.0" xmlns="http://www.w3.org/2000/svg"
 width="32.000000pt" height="32.000000pt" viewBox="0 0 32.000000 32.000000"
 preserveAspectRatio="xMidYMid meet">
<metadata>
Created by potrace 1.16, written by Peter Selinger 2001-2019
</metadata>
<g transform="translate(0.000000,32.000000) scale(0.100000,-0.100000)"
fill="#000000" stroke="none">
<path fill="#000000" stroke="none" d="M244 275 c-4 -9 -2 -21 4 -27 15 -15
44 -1 40 19 -4 23 -36 29 -44 8z"/>
<path fill="#000000" stroke="none" d="M206 253 c1 -22 -13 -43 -69 -100 -40
-40 -76 -73 -82 -73 -6 0 -11 -9 -11 -20 0 -15 21 1 86 64 75 75 89 84 118 82
20 -1 32 2 32 10 0 7 -8 10 -20 7 -14 -4 -22 1 -29 18 -5 13 -7 27 -4 32 2 4
-2 7 -9 7 -9 0 -13 -10 -12 -27z"/>
</g>
</svg>
