<?xml version="1.0" standalone="no"?>
<!DOCTYPE svg PUBLIC "-//W3C//DTD SVG 20010904//EN"
 "http://www.w3.org/TR/2001/REC-SVG-20010904/DTD/svg10.dtd">
<svg version="1.0" xmlns="http://www.w3.org/2000/svg"
 width="32.000000pt" height="32.000000pt" viewBox="0 0 32.000000 32.000000"
 preserveAspectRatio="xMidYMid meet">
<metadata>
Created by potrace 1.16, written by Peter Selinger 2001-2019
</metadata>
<g transform="translate(0.000000,32.000000) scale(0.100000,-0.100000)"
fill="#000000" stroke="none">
<path fill="#000000" stroke="none" d="M220 235 c0 -14 2 -25 4 -25 2 0 6 11
8 25 3 14 1 25 -3 25 -5 0 -9 -11 -9 -25z"/>
<path fill="#000000" stroke="none" d="M181 203 c1 -22 2 -23 6 -8 3 11 10 23
17 27 7 5 5 8 -6 8 -13 0 -18 -7 -17 -27z"/>
<path fill="#000000" stroke="none" d="M161 180 c-1 -8 -22 -37 -48 -65 l-48
-50 54 51 c31 30 51 57 48 65 -4 11 -6 11 -6 -1z"/>
<path fill="#000000" stroke="none" d="M42 60 c0 -14 2 -19 5 -12 2 6 2 18 0
25 -3 6 -5 1 -5 -13z"/>
</g>
</svg>
