<?xml version="1.0" standalone="no"?>
<!DOCTYPE svg PUBLIC "-//W3C//DTD SVG 20010904//EN"
 "http://www.w3.org/TR/2001/REC-SVG-20010904/DTD/svg10.dtd">
<svg version="1.0" xmlns="http://www.w3.org/2000/svg"
 width="32.000000pt" height="32.000000pt" viewBox="0 0 32.000000 32.000000"
 preserveAspectRatio="xMidYMid meet">
<metadata>
Created by potrace 1.16, written by Peter Selinger 2001-2019
</metadata>
<g transform="translate(0.000000,32.000000) scale(0.100000,-0.100000)"
fill="#000000" stroke="none">
<path fill="#000000" stroke="none" d="M223 306 c-15 -7 -23 -20 -23 -38 0
-14 -3 -34 -7 -44 -4 -12 -3 -15 5 -10 7 4 12 22 12 39 0 21 7 36 20 45 13 7
20 8 20 2 0 -6 -7 -13 -15 -16 -18 -7 -20 -64 -2 -65 6 0 -1 -5 -17 -11 -21
-8 -25 -13 -15 -19 11 -7 11 -9 -2 -9 -9 0 -43 -28 -76 -63 -47 -49 -65 -61
-79 -56 -14 6 -15 8 -4 8 37 2 175 171 139 171 -5 0 -9 -10 -9 -22 0 -24 -105
-138 -127 -138 -22 0 -24 -19 -6 -40 19 -19 19 -19 58 0 22 11 65 26 95 33 51
13 71 29 52 41 -4 2 -39 -6 -78 -20 l-69 -25 50 50 c32 33 58 51 73 51 17 0
23 4 18 15 -4 11 2 15 27 15 25 0 35 6 44 26 11 24 9 30 -21 60 -19 19 -36 33
-37 33 -2 -1 -14 -6 -26 -13z"/>
<path fill="#ffffff" stroke="none" d="M288 267 c2 -11 -6 -21 -24 -27 -34
-13 -37 -10 -24 24 11 31 42 33 48 3z"/>
</g>
</svg>
