<?xml version="1.0" standalone="no"?>
<!DOCTYPE svg PUBLIC "-//W3C//DTD SVG 20010904//EN"
 "http://www.w3.org/TR/2001/REC-SVG-20010904/DTD/svg10.dtd">
<svg version="1.0" xmlns="http://www.w3.org/2000/svg"
 width="32.000000pt" height="32.000000pt" viewBox="0 0 32.000000 32.000000"
 preserveAspectRatio="xMidYMid meet">
<metadata>
Created by potrace 1.16, written by Peter Selinger 2001-2019
</metadata>
<g transform="translate(0.000000,32.000000) scale(0.100000,-0.100000)"
fill="#000000" stroke="none">
<path fill="#000000" stroke="none" d="M110 258 c-13 -5 -28 -14 -31 -20 -8
-12 0 -42 9 -33 3 3 16 -2 29 -10 21 -14 25 -14 40 0 14 15 13 15 -10 10 -20
-5 -25 -3 -23 9 1 8 6 19 11 23 4 5 4 1 0 -7 -7 -13 -6 -13 7 -2 8 7 23 10 32
6 10 -4 16 -1 16 7 0 7 -3 9 -7 6 -3 -4 -16 -1 -27 7 -15 9 -28 11 -46 4z"/>
<path fill="#000000" stroke="none" d="M197 224 c-3 -4 -2 -14 3 -24 5 -10 6
-21 2 -26 -4 -5 1 -2 10 5 14 10 15 18 7 32 -11 21 -13 22 -22 13z"/>
<path fill="#000000" stroke="none" d="M91 126 c-9 -11 -9 -16 1 -22 7 -4 10
-4 6 1 -4 4 -3 14 3 22 6 7 9 13 6 13 -2 0 -10 -6 -16 -14z"/>
<path fill="#000000" stroke="none" d="M197 126 c-7 -18 17 -28 32 -13 16 16
13 27 -8 27 -10 0 -21 -6 -24 -14z"/>
<path fill="#000000" stroke="none" d="M258 123 c6 -2 12 -11 12 -19 0 -9 5
-12 10 -9 13 8 -6 35 -24 34 -7 0 -6 -2 2 -6z"/>
</g>
</svg>
