<?xml version="1.0" standalone="no"?>
<!DOCTYPE svg PUBLIC "-//W3C//DTD SVG 20010904//EN"
 "http://www.w3.org/TR/2001/REC-SVG-20010904/DTD/svg10.dtd">
<svg version="1.0" xmlns="http://www.w3.org/2000/svg"
 width="32.000000pt" height="32.000000pt" viewBox="0 0 32.000000 32.000000"
 preserveAspectRatio="xMidYMid meet">
<metadata>
Created by potrace 1.16, written by Peter Selinger 2001-2019
</metadata>
<g transform="translate(0.000000,32.000000) scale(0.100000,-0.100000)"
fill="#000000" stroke="none">
<path fill="#000000" stroke="none" d="M0 160 l0 -160 160 0 160 0 0 160 0
160 -160 0 -160 0 0 -160z"/>
<path fill="#ffffff" stroke="none" d="M217 248 c8 -9 16 -30 16 -48 2 -32 0
-34 -57 -51 -32 -10 -63 -22 -69 -28 -16 -16 15 -23 49 -11 l29 10 -25 -20
c-25 -20 -58 -18 -72 4 -14 21 -6 31 52 54 24 10 23 11 -12 11 -63 1 -86 43
-47 82 18 18 30 21 71 17 27 -3 56 -12 65 -20z"/>
<path fill="#ffffff" stroke="none" d="M274 134 c9 -3 16 -17 16 -31 0 -21 -4
-24 -22 -19 -13 3 -35 6 -50 6 -20 0 -28 5 -28 18 0 10 3 22 7 25 8 9 56 9 77
1z"/>
<path fill="#ffffff" stroke="none" d="M307 93 c-3 -10 -5 -4 -5 12 0 17 2 24
5 18 2 -7 2 -21 0 -30z"/>
<path fill="#ffffff" stroke="none" d="M233 70 c-36 -15 -27 -21 22 -16 25 3
47 1 50 -4 7 -11 -22 -33 -48 -37 -20 -2 -20 -2 -4 8 27 16 20 29 -12 23 -17
-4 -32 -1 -36 6 -8 14 11 30 35 29 8 0 5 -4 -7 -9z"/>
<path fill="#ffffff" stroke="none" d="M186 52 c-3 -5 -16 -12 -28 -15 -22 -6
-22 -6 2 13 25 19 37 20 26 2z"/>
<path fill="#000000" stroke="none" d="M279 33 c-13 -16 -12 -17 4 -4 9 7 17
15 17 17 0 8 -8 3 -21 -13z"/>
</g>
</svg>
