<?xml version="1.0" standalone="no"?>
<!DOCTYPE svg PUBLIC "-//W3C//DTD SVG 20010904//EN"
 "http://www.w3.org/TR/2001/REC-SVG-20010904/DTD/svg10.dtd">
<svg version="1.0" xmlns="http://www.w3.org/2000/svg"
 width="32.000000pt" height="32.000000pt" viewBox="0 0 32.000000 32.000000"
 preserveAspectRatio="xMidYMid meet">
<metadata>
Created by potrace 1.16, written by Peter Selinger 2001-2019
</metadata>
<g transform="translate(0.000000,32.000000) scale(0.100000,-0.100000)"
fill="#000000" stroke="none">
<path fill="#000000" stroke="none" d="M0 160 l0 -160 90 0 90 0 0 34 c0 40
16 56 59 59 26 2 28 4 16 13 -26 19 -17 31 23 31 l37 -1 3 92 3 92 -161 0
-160 0 0 -160z"/>
<path fill="#000000" stroke="none" d="M268 118 c7 -7 12 -21 12 -31 0 -15 -3
-17 -13 -9 -8 7 -24 8 -43 3 -25 -6 -29 -13 -30 -42 -1 -31 2 -34 27 -34 25 0
26 1 12 17 -19 21 -7 41 20 34 11 -3 28 -1 38 4 14 8 16 6 12 -12 -4 -11 -14
-23 -25 -25 -29 -8 -21 -23 13 -23 l32 0 -7 56 c-8 68 -11 74 -39 74 -16 0
-18 -3 -9 -12z"/>
<path fill="#000000" stroke="none" d="M230 42 c0 -4 14 -8 30 -9 17 -1 30 1
30 5 0 4 -14 8 -30 9 -17 1 -30 -1 -30 -5z"/>
</g>
</svg>
