<?xml version="1.0" standalone="no"?>
<!DOCTYPE svg PUBLIC "-//W3C//DTD SVG 20010904//EN"
 "http://www.w3.org/TR/2001/REC-SVG-20010904/DTD/svg10.dtd">
<svg version="1.0" xmlns="http://www.w3.org/2000/svg"
 width="32.000000pt" height="32.000000pt" viewBox="0 0 32.000000 32.000000"
 preserveAspectRatio="xMidYMid meet">
<metadata>
Created by potrace 1.16, written by Peter Selinger 2001-2019
</metadata>
<g transform="translate(0.000000,32.000000) scale(0.100000,-0.100000)"
fill="#000000" stroke="none">
<path fill="#000000" stroke="none" d="M0 160 l0 -160 90 0 c94 0 94 0 90 48
-1 13 7 30 17 39 10 8 12 12 5 8 -16 -8 -28 23 -14 37 8 8 15 8 27 -2 10 -8
15 -9 15 -1 0 6 9 11 20 11 11 0 20 -6 20 -13 0 -8 7 -14 15 -14 8 0 12 4 9 9
-3 4 2 11 10 14 13 5 16 24 16 95 l0 89 -160 0 -160 0 0 -160z"/>
<path fill="#000000" stroke="none" d="M237 94 c-3 -3 -3 -13 0 -22 5 -11 3
-13 -8 -7 -11 7 -12 6 -2 -7 7 -8 9 -18 5 -23 -4 -4 3 -3 15 4 15 7 20 17 16
28 -5 12 -3 14 8 8 12 -8 12 -6 0 8 -14 18 -24 21 -34 11z"/>
</g>
</svg>
