<?xml version="1.0" standalone="no"?>
<!DOCTYPE svg PUBLIC "-//W3C//DTD SVG 20010904//EN"
 "http://www.w3.org/TR/2001/REC-SVG-20010904/DTD/svg10.dtd">
<svg version="1.0" xmlns="http://www.w3.org/2000/svg"
 width="32.000000pt" height="32.000000pt" viewBox="0 0 32.000000 32.000000"
 preserveAspectRatio="xMidYMid meet">
<metadata>
Created by potrace 1.16, written by Peter Selinger 2001-2019
</metadata>
<g transform="translate(0.000000,32.000000) scale(0.100000,-0.100000)"
fill="#000000" stroke="none">
<path fill="#000000" stroke="none" d="M210 95 c0 -24 -5 -35 -15 -35 -9 0
-15 -9 -15 -25 0 -19 5 -25 23 -25 12 0 39 -3 60 -6 35 -6 37 -5 37 20 0 14 5
26 10 26 6 0 10 11 10 25 0 21 -5 25 -30 25 -18 0 -33 6 -36 15 -4 8 -15 15
-25 15 -15 0 -19 -7 -19 -35z"/>
<path fill="#ffffff" stroke="none" d="M274 65 c-7 -18 -28 -25 -43 -16 -10 6
-9 12 4 24 18 18 46 12 39 -8z"/>
</g>
</svg>
