<?xml version="1.0" standalone="no"?>
<!DOCTYPE svg PUBLIC "-//W3C//DTD SVG 20010904//EN"
 "http://www.w3.org/TR/2001/REC-SVG-20010904/DTD/svg10.dtd">
<svg version="1.0" xmlns="http://www.w3.org/2000/svg"
 width="32.000000pt" height="32.000000pt" viewBox="0 0 32.000000 32.000000"
 preserveAspectRatio="xMidYMid meet">
<metadata>
Created by potrace 1.16, written by Peter Selinger 2001-2019
</metadata>
<g transform="translate(0.000000,32.000000) scale(0.100000,-0.100000)"
fill="#000000" stroke="none">
<path fill="#000000" stroke="none" d="M211 98 c-1 -26 -6 -38 -18 -41 -17 -4
-17 -5 0 -6 21 -1 30 18 24 56 -3 24 -4 23 -6 -9z"/>
<path fill="#000000" stroke="none" d="M230 122 c0 -18 26 -32 60 -30 l35 1
-33 4 c-18 3 -36 11 -39 19 -5 15 -23 20 -23 6z"/>
<path fill="#000000" stroke="none" d="M287 73 c-11 -10 -8 -73 3 -73 6 0 10
11 10 25 0 14 5 25 10 25 6 0 10 7 10 15 0 15 -21 21 -33 8z"/>
<path fill="#000000" stroke="none" d="M180 26 c0 -9 15 -15 43 -18 50 -6 54
-4 37 17 -16 19 -80 20 -80 1z"/>
</g>
</svg>
