<?xml version="1.0" standalone="no"?>
<!DOCTYPE svg PUBLIC "-//W3C//DTD SVG 20010904//EN"
 "http://www.w3.org/TR/2001/REC-SVG-20010904/DTD/svg10.dtd">
<svg version="1.0" xmlns="http://www.w3.org/2000/svg"
 width="32.000000pt" height="32.000000pt" viewBox="0 0 32.000000 32.000000"
 preserveAspectRatio="xMidYMid meet">
<metadata>
Created by potrace 1.16, written by Peter Selinger 2001-2019
</metadata>
<g transform="translate(0.000000,32.000000) scale(0.100000,-0.100000)"
fill="#000000" stroke="none">
<path fill="#000000" stroke="none" d="M206 111 c-19 -21 -21 -87 -4 -97 28
-18 72 -14 95 8 25 24 32 79 11 95 -22 17 -85 13 -102 -6z"/>
<path fill="#ffffff" stroke="none" d="M218 101 c-10 -16 -9 -23 3 -38 27 -31
29 -50 6 -48 -17 1 -22 9 -25 39 -2 20 2 44 8 52 18 20 22 17 8 -5z"/>
<path fill="#ffffff" stroke="none" d="M308 67 c-2 -17 -12 -36 -26 -45 -21
-14 -22 -13 -16 4 4 11 14 27 23 37 13 16 13 21 1 40 -12 20 -12 21 4 8 11 -9
16 -25 14 -44z"/>
<path fill="#ffffff" stroke="none" d="M276 99 c3 -6 1 -16 -5 -22 -6 -6 -12
-20 -12 -31 -1 -21 -1 -21 -6 -1 -3 11 -10 25 -15 32 -5 7 -7 17 -3 23 8 13
32 13 41 -1z"/>
</g>
</svg>
