<?xml version="1.0" standalone="no"?>
<!DOCTYPE svg PUBLIC "-//W3C//DTD SVG 20010904//EN"
 "http://www.w3.org/TR/2001/REC-SVG-20010904/DTD/svg10.dtd">
<svg version="1.0" xmlns="http://www.w3.org/2000/svg"
 width="32.000000pt" height="32.000000pt" viewBox="0 0 32.000000 32.000000"
 preserveAspectRatio="xMidYMid meet">
<metadata>
Created by potrace 1.16, written by Peter Selinger 2001-2019
</metadata>
<g transform="translate(0.000000,32.000000) scale(0.100000,-0.100000)"
fill="#000000" stroke="none">
<path fill="#000000" stroke="none" d="M183 124 c-2 -7 0 -21 5 -31 5 -10 7
-24 5 -31 -3 -7 3 -24 12 -38 14 -22 22 -25 63 -22 l47 3 3 40 c2 26 -3 47
-13 60 -9 11 -14 13 -10 5 4 -8 -2 -5 -12 7 -13 16 -28 21 -57 20 -21 0 -40
-7 -43 -13z"/>
<path fill="#ffffff" stroke="none" d="M280 95 c13 -14 21 -25 18 -25 -2 0
-15 11 -28 25 -13 14 -21 25 -18 25 2 0 15 -11 28 -25z"/>
<path fill="#ffffff" stroke="none" d="M271 59 c10 -19 9 -20 -10 -10 -11 7
-25 21 -32 32 -10 19 -9 20 10 10 11 -7 25 -21 32 -32z"/>
<path fill="#ffffff" stroke="none" d="M241 33 c13 -16 12 -17 -3 -4 -10 7
-18 15 -18 17 0 8 8 3 21 -13z"/>
</g>
</svg>
