<?xml version="1.0" standalone="no"?>
<!DOCTYPE svg PUBLIC "-//W3C//DTD SVG 20010904//EN"
 "http://www.w3.org/TR/2001/REC-SVG-20010904/DTD/svg10.dtd">
<svg version="1.0" xmlns="http://www.w3.org/2000/svg"
 width="32.000000pt" height="32.000000pt" viewBox="0 0 32.000000 32.000000"
 preserveAspectRatio="xMidYMid meet">
<metadata>
Created by potrace 1.16, written by Peter Selinger 2001-2019
</metadata>
<g transform="translate(0.000000,32.000000) scale(0.100000,-0.100000)"
fill="#000000" stroke="none">
<path fill="#000000" stroke="none" d="M0 160 l0 -160 88 0 89 0 9 58 c6 40
14 57 24 57 8 0 20 4 27 8 6 4 23 3 38 -3 14 -5 31 -10 36 -10 5 0 9 47 9 105
l0 105 -160 0 -160 0 0 -160z"/>
<path fill="#000000" stroke="none" d="M222 99 c-27 -24 -27 -32 -4 -50 15
-12 16 -12 5 2 -10 12 -9 20 4 38 12 18 17 20 24 10 6 -10 9 -10 9 -2 0 22
-17 23 -38 2z"/>
<path fill="#000000" stroke="none" d="M286 87 c3 -10 9 -15 12 -12 3 3 0 11
-7 18 -10 9 -11 8 -5 -6z"/>
</g>
</svg>
