<?xml version="1.0" standalone="no"?>
<!DOCTYPE svg PUBLIC "-//W3C//DTD SVG 20010904//EN"
 "http://www.w3.org/TR/2001/REC-SVG-20010904/DTD/svg10.dtd">
<svg version="1.0" xmlns="http://www.w3.org/2000/svg"
 width="32.000000pt" height="32.000000pt" viewBox="0 0 32.000000 32.000000"
 preserveAspectRatio="xMidYMid meet">
<metadata>
Created by potrace 1.16, written by Peter Selinger 2001-2019
</metadata>
<g transform="translate(0.000000,32.000000) scale(0.100000,-0.100000)"
fill="#000000" stroke="none">
<path fill="#000000" stroke="none" d="M132 304 c-20 -14 -23 -21 -17 -58 8
-44 22 -69 36 -61 4 3 12 -3 18 -12 6 -11 11 -13 11 -5 0 7 4 11 8 8 4 -2 8 3
8 12 0 14 -7 17 -32 14 -30 -4 -31 -2 -38 39 -8 49 8 69 52 69 37 0 58 -16 76
-60 18 -46 20 -64 6 -55 -13 8 -13 -1 2 -24 9 -15 7 -25 -11 -54 -20 -33 -43
-45 -98 -52 -12 -2 -27 -6 -32 -10 -6 -3 -11 -2 -11 3 0 12 29 24 40 17 5 -3
12 0 15 6 5 7 -2 10 -21 7 -16 -1 -34 -12 -41 -23 -12 -19 -12 -19 -13 7 0 15
5 30 11 34 16 9 -17 27 -34 19 -6 -4 -3 1 7 9 11 9 34 19 53 22 18 3 33 10 33
15 0 4 -18 2 -41 -6 -23 -8 -45 -12 -50 -10 -16 11 -22 -45 -6 -58 8 -7 17
-21 19 -32 2 -15 10 -19 28 -17 14 1 32 2 40 2 58 -4 81 -2 95 10 9 8 12 16 6
19 -6 4 -6 12 -1 21 7 11 10 12 10 2 0 -7 5 -10 10 -7 15 9 12 111 -5 151 -8
19 -14 38 -13 42 1 11 -44 32 -72 32 -14 0 -36 -7 -48 -16z"/>
<path fill="#ffffff" stroke="none" d="M235 70 c-3 -5 -14 -10 -23 -9 -14 0
-13 2 3 9 27 11 27 11 20 0z"/>
<path fill="#000000" stroke="none" d="M195 263 c0 -29 11 -46 33 -51 8 -1 5
12 -8 38 -11 22 -21 40 -23 40 -1 0 -2 -12 -2 -27z"/>
<path fill="#000000" stroke="none" d="M35 22 c-3 -8 -5 -16 -5 -18 0 -7 214
-2 245 6 17 4 28 9 25 10 -3 1 -62 5 -132 8 -102 6 -129 4 -133 -6z"/>
</g>
</svg>
