<?xml version="1.0" standalone="no"?>
<!DOCTYPE svg PUBLIC "-//W3C//DTD SVG 20010904//EN"
 "http://www.w3.org/TR/2001/REC-SVG-20010904/DTD/svg10.dtd">
<svg version="1.0" xmlns="http://www.w3.org/2000/svg"
 width="32.000000pt" height="32.000000pt" viewBox="0 0 32.000000 32.000000"
 preserveAspectRatio="xMidYMid meet">
<metadata>
Created by potrace 1.16, written by Peter Selinger 2001-2019
</metadata>
<g transform="translate(0.000000,32.000000) scale(0.100000,-0.100000)"
fill="#000000" stroke="none">
<path fill="#000000" stroke="none" d="M0 159 l0 -162 53 7 c136 18 130 17
108 33 -12 8 -21 21 -21 30 0 13 -3 13 -15 3 -8 -7 -12 -16 -9 -21 3 -5 -1 -9
-9 -9 -16 0 -57 41 -57 57 0 16 26 23 39 10 9 -9 14 -8 21 3 11 18 -10 53 -35
59 -17 3 -39 -21 -40 -43 0 -5 -6 -11 -13 -14 -16 -5 -12 56 7 102 9 22 9 31
0 37 -15 9 -4 26 35 50 l31 19 -47 0 -48 0 0 -161z"/>
<path fill="#000000" stroke="none" d="M121 306 c-8 -10 -9 -16 -1 -21 10 -6
14 1 10 20 -1 6 4 4 11 -2 10 -10 10 -16 1 -25 -19 -19 -14 -28 16 -28 15 0
43 -4 61 -10 46 -13 53 -3 18 24 -15 12 -24 25 -21 29 17 16 54 5 78 -24 l26
-31 0 41 0 41 -94 0 c-68 0 -97 -4 -105 -14z"/>
<path fill="#000000" stroke="none" d="M253 272 c10 -10 17 -23 17 -29 0 -5 6
-10 14 -10 19 0 14 24 -10 42 -27 20 -40 19 -21 -3z"/>
<path fill="#000000" stroke="none" d="M60 243 c0 -13 29 -38 35 -31 3 3 -4
13 -15 23 -11 10 -20 13 -20 8z"/>
<path fill="#000000" stroke="none" d="M195 220 c-3 -5 1 -20 9 -32 18 -25 21
-17 6 13 -6 10 -7 19 -2 19 13 0 33 -25 27 -32 -3 -3 6 -3 19 -1 14 3 30 11
36 18 9 11 4 13 -24 9 -19 -2 -38 0 -41 6 -8 13 -22 13 -30 0z"/>
<path fill="#000000" stroke="none" d="M50 211 c0 -4 7 -14 15 -21 8 -7 15 -9
15 -5 0 4 6 2 13 -4 10 -8 14 -7 14 4 0 8 -3 13 -5 10 -3 -3 -16 2 -29 10 -13
9 -23 11 -23 6z"/>
<path fill="#000000" stroke="none" d="M146 211 c-4 -5 3 -7 14 -4 23 6 26 13
6 13 -8 0 -17 -4 -20 -9z"/>
<path fill="#000000" stroke="none" d="M162 188 c3 -7 13 -15 22 -16 12 -3 17
1 14 10 -3 7 -13 15 -22 16 -12 3 -17 -1 -14 -10z"/>
<path fill="#000000" stroke="none" d="M307 193 c-5 -7 -19 -13 -33 -13 -18 0
-24 -5 -24 -20 0 -24 -29 -84 -37 -77 -2 3 0 16 7 29 9 19 7 18 -10 -5 -12
-15 -25 -25 -30 -22 -4 3 -10 -1 -13 -8 -3 -8 0 -14 6 -14 7 0 19 -3 27 -5 8
-3 12 -3 8 -1 -17 10 -6 21 15 16 31 -8 47 -23 47 -44 0 -16 36 -37 46 -26 3
2 3 49 2 103 -2 55 -7 93 -11 87z"/>
<path fill="#000000" stroke="none" d="M143 170 c5 -28 24 -47 37 -34 7 7 2
17 -15 32 -24 21 -25 21 -22 2z"/>
<path fill="#000000" stroke="none" d="M200 150 c0 -5 5 -10 10 -10 6 0 10 5
10 10 0 6 -4 10 -10 10 -5 0 -10 -4 -10 -10z"/>
<path fill="#000000" stroke="none" d="M129 103 c-13 -16 -12 -17 4 -4 16 13
21 21 13 21 -2 0 -10 -8 -17 -17z"/>
<path fill="#000000" stroke="none" d="M195 30 c-3 -5 -2 -10 4 -10 5 0 13 5
16 10 3 6 2 10 -4 10 -5 0 -13 -4 -16 -10z"/>
</g>
</svg>
