<?xml version="1.0" standalone="no"?>
<!DOCTYPE svg PUBLIC "-//W3C//DTD SVG 20010904//EN"
 "http://www.w3.org/TR/2001/REC-SVG-20010904/DTD/svg10.dtd">
<svg version="1.0" xmlns="http://www.w3.org/2000/svg"
 width="32.000000pt" height="32.000000pt" viewBox="0 0 32.000000 32.000000"
 preserveAspectRatio="xMidYMid meet">
<metadata>
Created by potrace 1.16, written by Peter Selinger 2001-2019
</metadata>
<g transform="translate(0.000000,32.000000) scale(0.100000,-0.100000)"
fill="#000000" stroke="none">
<path fill="#000000" stroke="none" d="M135 280 c-3 -6 1 -7 9 -4 18 7 21 14
7 14 -6 0 -13 -4 -16 -10z"/>
<path fill="#000000" stroke="none" d="M283 215 c0 -8 4 -12 9 -9 5 3 6 10 3
15 -9 13 -12 11 -12 -6z"/>
<path fill="#000000" stroke="none" d="M141 196 c-18 -21 23 -43 46 -25 13 12
13 14 -3 26 -23 17 -29 16 -43 -1z"/>
<path fill="#ffffff" stroke="none" d="M179 191 c8 -5 9 -11 3 -15 -14 -8 -43
4 -36 15 7 11 15 11 33 0z"/>
<path fill="#000000" stroke="none" d="M266 161 c-16 -17 -28 -33 -25 -35 7
-7 61 44 57 55 -2 5 -16 -4 -32 -20z"/>
<path fill="#000000" stroke="none" d="M24 168 c-27 -43 -9 -68 75 -108 28
-13 51 -27 51 -32 0 -4 16 9 35 31 42 46 47 66 7 28 -20 -19 -31 -24 -42 -17
-13 8 -13 10 2 10 9 0 20 4 23 10 4 7 -3 7 -20 0 -21 -8 -36 -5 -80 18 -57 28
-66 39 -44 53 8 4 11 11 7 14 -3 4 -10 0 -14 -7z"/>
</g>
</svg>
