<?xml version="1.0" standalone="no"?>
<!DOCTYPE svg PUBLIC "-//W3C//DTD SVG 20010904//EN"
 "http://www.w3.org/TR/2001/REC-SVG-20010904/DTD/svg10.dtd">
<svg version="1.0" xmlns="http://www.w3.org/2000/svg"
 width="32.000000pt" height="32.000000pt" viewBox="0 0 32.000000 32.000000"
 preserveAspectRatio="xMidYMid meet">
<metadata>
Created by potrace 1.16, written by Peter Selinger 2001-2019
</metadata>
<g transform="translate(0.000000,32.000000) scale(0.100000,-0.100000)"
fill="#000000" stroke="none">
<path fill="#000000" stroke="none" d="M160 300 c13 -9 13 -10 0 -10 -8 -1
-35 -24 -60 -52 -25 -29 -39 -48 -31 -44 10 7 12 2 6 -23 -4 -20 -3 -31 4 -31
6 0 11 9 11 20 0 26 21 35 55 23 l26 -8 -21 -23 c-24 -26 -6 -30 22 -5 18 16
18 16 12 -2 -10 -26 -44 -58 -44 -42 0 9 -2 9 -9 -1 -6 -11 -18 -9 -55 10 -42
20 -46 25 -41 48 6 22 5 23 -9 10 -21 -22 -25 -82 -6 -85 9 -2 42 -16 74 -32
l59 -30 75 76 c45 46 76 85 76 99 1 12 -2 22 -6 22 -4 0 -7 5 -6 11 3 12 -109
79 -132 79 -13 0 -13 -1 0 -10z"/>
<path fill="#ffffff" stroke="none" d="M242 263 c28 -15 45 -29 40 -31 -7 -2
-8 -12 -2 -28 9 -24 3 -30 -25 -24 -5 1 -7 -2 -2 -6 8 -8 -51 -74 -67 -74 -5
0 3 14 20 32 16 17 23 28 17 24 -16 -9 -17 6 -2 21 6 6 8 16 5 22 -9 14 -36
14 -36 0 0 -5 6 -7 13 -3 9 5 9 4 1 -5 -9 -9 -17 -10 -33 -2 -55 29 -59 29
-70 18 -6 -6 -13 -8 -16 -5 -7 7 81 88 96 88 6 0 34 -12 61 -27z"/>
<path fill="#000000" stroke="none" d="M141 246 c-14 -15 -19 -26 -12 -31 6
-3 11 -1 11 4 0 6 5 11 11 11 5 0 7 -4 4 -10 -9 -15 17 -11 39 5 10 8 23 12
28 8 6 -3 6 3 0 14 -15 27 -55 27 -81 -1z"/>
<path fill="#ffffff" stroke="none" d="M187 244 c-3 -3 -12 -4 -19 -1 -8 3 -5
6 6 6 11 1 17 -2 13 -5z"/>
<path fill="#000000" stroke="none" d="M107 143 c3 -7 6 -13 8 -13 2 0 5 6 8
13 3 8 -1 14 -8 14 -7 0 -11 -6 -8 -14z"/>
</g>
</svg>
