<?xml version="1.0" standalone="no"?>
<!DOCTYPE svg PUBLIC "-//W3C//DTD SVG 20010904//EN"
 "http://www.w3.org/TR/2001/REC-SVG-20010904/DTD/svg10.dtd">
<svg version="1.0" xmlns="http://www.w3.org/2000/svg"
 width="32.000000pt" height="32.000000pt" viewBox="0 0 32.000000 32.000000"
 preserveAspectRatio="xMidYMid meet">
<metadata>
Created by potrace 1.16, written by Peter Selinger 2001-2019
</metadata>
<g transform="translate(0.000000,32.000000) scale(0.100000,-0.100000)"
fill="#000000" stroke="none">
<path fill="#000000" stroke="none" d="M100 281 c0 -15 -5 -18 -22 -14 -13 3
-20 2 -16 -2 10 -10 -17 -61 -37 -68 -8 -4 -15 -11 -15 -17 0 -19 31 -10 57
18 15 15 23 21 19 15 -4 -8 3 -23 16 -36 13 -13 21 -32 19 -42 -3 -20 -3 -20
18 -1 11 10 18 22 16 26 -3 4 5 10 16 13 13 4 18 10 13 18 -4 7 0 17 10 25 16
11 15 13 -6 28 -12 9 -30 16 -40 16 -11 0 -18 8 -18 20 0 11 -7 20 -15 20 -8
0 -15 -9 -15 -19z"/>
<path fill="#000000" stroke="none" d="M175 275 c52 -19 68 -19 31 0 -15 8
-38 15 -50 15 -13 -1 -7 -6 19 -15z"/>
<path fill="#000000" stroke="none" d="M73 150 c-13 -5 -23 -14 -23 -20 0 -6
11 -3 25 6 14 9 25 18 25 20 0 5 0 5 -27 -6z"/>
<path fill="#000000" stroke="none" d="M100 96 c0 -8 4 -17 9 -20 5 -4 7 3 4
14 -6 23 -13 26 -13 6z"/>
<path fill="#000000" stroke="none" d="M65 50 c-3 -5 -1 -10 4 -10 6 0 11 5
11 10 0 6 -2 10 -4 10 -3 0 -8 -4 -11 -10z"/>
<path fill="#000000" stroke="none" d="M195 40 c-3 -5 -1 -10 4 -10 6 0 11 5
11 10 0 6 -2 10 -4 10 -3 0 -8 -4 -11 -10z"/>
<path fill="#000000" stroke="none" d="M125 20 c-3 -5 -1 -10 4 -10 6 0 11 5
11 10 0 6 -2 10 -4 10 -3 0 -8 -4 -11 -10z"/>
<path fill="#000000" stroke="none" d="M240 20 c0 -5 5 -10 10 -10 6 0 10 5
10 10 0 6 -4 10 -10 10 -5 0 -10 -4 -10 -10z"/>
</g>
</svg>
