<?xml version="1.0" standalone="no"?>
<!DOCTYPE svg PUBLIC "-//W3C//DTD SVG 20010904//EN"
 "http://www.w3.org/TR/2001/REC-SVG-20010904/DTD/svg10.dtd">
<svg version="1.0" xmlns="http://www.w3.org/2000/svg"
 width="32.000000pt" height="32.000000pt" viewBox="0 0 32.000000 32.000000"
 preserveAspectRatio="xMidYMid meet">
<metadata>
Created by potrace 1.16, written by Peter Selinger 2001-2019
</metadata>
<g transform="translate(0.000000,32.000000) scale(0.100000,-0.100000)"
fill="#000000" stroke="none">
<path fill="#000000" stroke="none" d="M110 295 c0 -8 5 -15 10 -15 6 0 10 7
10 15 0 8 -4 15 -10 15 -5 0 -10 -7 -10 -15z"/>
<path fill="#000000" stroke="none" d="M53 266 c7 -14 17 -26 24 -26 7 0 17
-9 23 -20 9 -16 8 -22 -5 -26 -8 -3 -15 -14 -14 -23 0 -10 2 -11 6 -3 2 6 9
10 14 6 5 -3 9 -1 9 4 0 5 12 14 26 20 14 7 22 16 19 22 -3 5 -1 18 4 28 13
25 5 33 -25 22 -16 -7 -24 -6 -24 1 0 7 -9 9 -22 6 -12 -4 -28 -2 -34 4 -10 8
-10 5 -1 -15z"/>
<path fill="#ffffff" stroke="none" d="M125 239 c11 -17 -13 -17 -30 1 -16 18
-16 18 4 13 12 -3 24 -9 26 -14z"/>
<path fill="#000000" stroke="none" d="M60 209 c0 -5 5 -7 10 -4 6 3 10 8 10
11 0 2 -4 4 -10 4 -5 0 -10 -5 -10 -11z"/>
<path fill="#000000" stroke="none" d="M46 164 c-4 -14 -5 -28 -3 -31 3 -2 8
8 11 23 4 14 5 28 3 31 -3 2 -8 -8 -11 -23z"/>
<path fill="#000000" stroke="none" d="M160 165 c13 -14 26 -25 28 -25 3 0 -5
11 -18 25 -13 14 -26 25 -28 25 -3 0 5 -11 18 -25z"/>
</g>
</svg>
