<?xml version="1.0" standalone="no"?>
<!DOCTYPE svg PUBLIC "-//W3C//DTD SVG 20010904//EN"
 "http://www.w3.org/TR/2001/REC-SVG-20010904/DTD/svg10.dtd">
<svg version="1.0" xmlns="http://www.w3.org/2000/svg"
 width="32.000000pt" height="32.000000pt" viewBox="0 0 32.000000 32.000000"
 preserveAspectRatio="xMidYMid meet">
<metadata>
Created by potrace 1.16, written by Peter Selinger 2001-2019
</metadata>
<g transform="translate(0.000000,32.000000) scale(0.100000,-0.100000)"
fill="#000000" stroke="none">
<path fill="#000000" stroke="none" d="M0 160 l0 -160 160 0 160 0 0 160 0
160 -160 0 -160 0 0 -160z"/>
<path fill="#ffffff" stroke="none" d="M70 275 c27 -14 30 -14 30 0 0 8 7 15
15 15 8 0 15 -7 15 -15 0 -17 25 -20 35 -5 9 15 27 1 21 -16 -3 -8 3 -23 14
-34 11 -11 20 -22 20 -24 0 -3 -16 -10 -36 -16 -25 -8 -32 -15 -24 -20 10 -6
10 -12 -3 -25 -10 -9 -17 -13 -17 -9 0 3 -7 1 -15 -6 -10 -8 -13 -21 -9 -34 5
-17 4 -19 -7 -8 -11 10 -11 19 -1 44 10 26 9 34 -8 56 -11 13 -17 29 -14 36 4
6 -5 -1 -20 -16 -26 -27 -56 -37 -56 -19 0 5 10 15 22 23 21 14 21 16 5 38
-33 47 -19 62 33 35z"/>
<path fill="#ffffff" stroke="none" d="M78 135 c-19 -16 -26 -30 -22 -42 5
-15 4 -16 -5 -3 -6 8 -11 19 -11 23 0 14 51 60 58 52 4 -4 -5 -17 -20 -30z"/>
<path fill="#ffffff" stroke="none" d="M248 126 c4 -17 2 -17 -22 -1 -32 21
-34 37 -3 26 12 -5 24 -16 25 -25z"/>
<path fill="#ffffff" stroke="none" d="M227 98 c-3 -8 -6 -5 -6 6 -1 11 2 17
5 13 3 -3 4 -12 1 -19z"/>
<path fill="#ffffff" stroke="none" d="M80 50 c0 -5 -5 -10 -11 -10 -5 0 -7 5
-4 10 3 6 8 10 11 10 2 0 4 -4 4 -10z"/>
<path fill="#ffffff" stroke="none" d="M210 40 c0 -5 -5 -10 -11 -10 -5 0 -7
5 -4 10 3 6 8 10 11 10 2 0 4 -4 4 -10z"/>
<path fill="#ffffff" stroke="none" d="M140 20 c0 -5 -5 -10 -11 -10 -5 0 -7
5 -4 10 3 6 8 10 11 10 2 0 4 -4 4 -10z"/>
<path fill="#ffffff" stroke="none" d="M260 20 c0 -5 -4 -10 -10 -10 -5 0 -10
5 -10 10 0 6 5 10 10 10 6 0 10 -4 10 -10z"/>
<path fill="#000000" stroke="none" d="M30 273 c0 -5 5 -15 10 -23 7 -12 12
-12 22 -2 10 10 10 15 -2 22 -18 12 -30 13 -30 3z"/>
<path fill="#000000" stroke="none" d="M180 199 c0 -5 5 -7 10 -4 6 3 10 8 10
11 0 2 -4 4 -10 4 -5 0 -10 -5 -10 -11z"/>
</g>
</svg>
