<?xml version="1.0" standalone="no"?>
<!DOCTYPE svg PUBLIC "-//W3C//DTD SVG 20010904//EN"
 "http://www.w3.org/TR/2001/REC-SVG-20010904/DTD/svg10.dtd">
<svg version="1.0" xmlns="http://www.w3.org/2000/svg"
 width="32.000000pt" height="32.000000pt" viewBox="0 0 32.000000 32.000000"
 preserveAspectRatio="xMidYMid meet">
<metadata>
Created by potrace 1.16, written by Peter Selinger 2001-2019
</metadata>
<g transform="translate(0.000000,32.000000) scale(0.100000,-0.100000)"
fill="#000000" stroke="none">
<path fill="#000000" stroke="none" d="M20 276 c0 -8 4 -18 10 -21 6 -3 7 1 4
9 -7 18 4 20 25 7 12 -7 12 -14 0 -39 -7 -17 -22 -35 -33 -40 -14 -6 -16 -11
-8 -16 7 -4 23 4 37 18 30 30 43 33 41 9 -1 -14 9 -17 51 -19 33 -1 56 3 63
11 8 9 7 14 -4 18 -11 4 -13 1 -9 -10 4 -11 2 -14 -8 -11 -8 3 -14 15 -14 27
0 27 -23 43 -46 30 -12 -6 -22 -5 -31 4 -17 17 -53 37 -67 37 -6 0 -11 -6 -11
-14z"/>
<path fill="#ffffff" stroke="none" d="M152 215 c4 -5 4 -13 1 -18 -3 -5 -9
-3 -13 4 -7 10 -11 10 -24 0 -17 -14 -19 -11 -10 12 6 16 35 18 46 2z"/>
<path fill="#000000" stroke="none" d="M100 276 c0 -9 7 -16 16 -16 9 0 14 5
12 12 -6 18 -28 21 -28 4z"/>
<path fill="#000000" stroke="none" d="M65 50 c-3 -5 -1 -10 4 -10 6 0 11 5
11 10 0 6 -2 10 -4 10 -3 0 -8 -4 -11 -10z"/>
</g>
</svg>
