<?xml version="1.0" standalone="no"?>
<!DOCTYPE svg PUBLIC "-//W3C//DTD SVG 20010904//EN"
 "http://www.w3.org/TR/2001/REC-SVG-20010904/DTD/svg10.dtd">
<svg version="1.0" xmlns="http://www.w3.org/2000/svg"
 width="32.000000pt" height="32.000000pt" viewBox="0 0 32.000000 32.000000"
 preserveAspectRatio="xMidYMid meet">
<metadata>
Created by potrace 1.16, written by Peter Selinger 2001-2019
</metadata>
<g transform="translate(0.000000,32.000000) scale(0.100000,-0.100000)"
fill="#000000" stroke="none">
<path fill="#000000" stroke="none" d="M0 160 l0 -160 160 0 160 0 0 160 0
160 -160 0 -160 0 0 -160z"/>
<path fill="#ffffff" stroke="none" d="M144 288 c18 -20 19 -20 32 -4 21 30
37 9 17 -24 -9 -16 -21 -26 -27 -23 -5 4 -7 -1 -3 -11 4 -11 1 -19 -11 -23 -9
-4 -28 -15 -41 -25 -18 -14 -26 -16 -32 -6 -5 8 -11 4 -20 -15 -6 -14 -16 -24
-20 -21 -5 3 -3 13 3 24 9 14 9 27 0 57 -7 21 -11 48 -10 60 2 20 4 21 18 8
19 -17 60 -9 60 11 0 20 13 17 34 -8z"/>
<path fill="#ffffff" stroke="none" d="M221 116 c4 -4 9 -2 12 5 3 9 6 10 6 2
2 -20 -15 -23 -35 -5 -21 19 -90 24 -87 6 1 -6 -5 -11 -13 -11 -8 0 -14 4 -14
9 0 18 2 23 11 21 5 -2 8 0 8 5 -3 19 3 21 24 7 30 -19 42 -8 20 19 -10 12 0
5 22 -14 22 -19 43 -39 46 -44z"/>
<path fill="#ffffff" stroke="none" d="M220 160 c8 -5 11 -12 8 -16 -4 -3 -14
1 -23 10 -18 17 -9 21 15 6z"/>
<path fill="#ffffff" stroke="none" d="M270 70 c6 -11 7 -20 2 -20 -6 0 -12 9
-15 20 -3 11 -3 20 -1 20 2 0 8 -9 14 -20z"/>
<path fill="#000000" stroke="none" d="M43 259 c4 -13 7 -27 7 -31 0 -5 7 -8
16 -8 10 0 14 -6 10 -15 -5 -15 14 -21 27 -9 10 10 -16 42 -30 37 -8 -3 -13 2
-13 15 0 12 -5 24 -12 28 -8 5 -9 0 -5 -17z"/>
<path fill="#000000" stroke="none" d="M105 230 c3 -5 8 -10 11 -10 2 0 4 5 4
10 0 6 -5 10 -11 10 -5 0 -7 -4 -4 -10z"/>
</g>
</svg>
