<?xml version="1.0" standalone="no"?>
<!DOCTYPE svg PUBLIC "-//W3C//DTD SVG 20010904//EN"
 "http://www.w3.org/TR/2001/REC-SVG-20010904/DTD/svg10.dtd">
<svg version="1.0" xmlns="http://www.w3.org/2000/svg"
 width="32.000000pt" height="32.000000pt" viewBox="0 0 32.000000 32.000000"
 preserveAspectRatio="xMidYMid meet">
<metadata>
Created by potrace 1.16, written by Peter Selinger 2001-2019
</metadata>
<g transform="translate(0.000000,32.000000) scale(0.100000,-0.100000)"
fill="#000000" stroke="none">
<path fill="#000000" stroke="none" d="M48 278 c24 -12 27 -21 12 -47 -8 -16
-5 -18 20 -17 17 1 30 5 30 9 0 5 5 5 10 2 6 -4 17 -2 24 4 11 9 13 5 10 -19
-4 -38 12 -40 19 -3 7 39 0 46 -39 40 -22 -4 -36 -1 -41 7 -9 14 -46 36 -60
35 -4 0 2 -5 15 -11z"/>
<path fill="#000000" stroke="none" d="M103 275 c0 -8 7 -15 15 -15 7 0 12 5
10 12 -6 18 -25 21 -25 3z"/>
<path fill="#000000" stroke="none" d="M197 209 c7 -7 15 -10 18 -7 3 3 -2 9
-12 12 -14 6 -15 5 -6 -5z"/>
<path fill="#000000" stroke="none" d="M111 196 c-10 -11 -9 -14 1 -12 14 2
23 15 15 22 -2 2 -10 -2 -16 -10z"/>
<path fill="#000000" stroke="none" d="M15 180 c3 -5 8 -10 11 -10 2 0 4 5 4
10 0 6 -5 10 -11 10 -5 0 -7 -4 -4 -10z"/>
</g>
</svg>
