<?xml version="1.0" standalone="no"?>
<!DOCTYPE svg PUBLIC "-//W3C//DTD SVG 20010904//EN"
 "http://www.w3.org/TR/2001/REC-SVG-20010904/DTD/svg10.dtd">
<svg version="1.0" xmlns="http://www.w3.org/2000/svg"
 width="32.000000pt" height="32.000000pt" viewBox="0 0 32.000000 32.000000"
 preserveAspectRatio="xMidYMid meet">
<metadata>
Created by potrace 1.16, written by Peter Selinger 2001-2019
</metadata>
<g transform="translate(0.000000,32.000000) scale(0.100000,-0.100000)"
fill="#000000" stroke="none">
<path fill="#000000" stroke="none" d="M190 310 c0 -6 28 -10 65 -10 37 0 65
4 65 10 0 6 -28 10 -65 10 -37 0 -65 -4 -65 -10z"/>
<path fill="#000000" stroke="none" d="M87 303 c-2 -4 -3 -19 -2 -31 1 -13 -4
-26 -12 -29 -7 -3 -10 -10 -6 -16 3 -6 1 -7 -5 -3 -7 4 -12 1 -12 -8 0 -8 -10
-22 -22 -30 -17 -12 -20 -18 -10 -28 9 -9 12 -9 12 2 0 10 4 9 18 -3 10 -10
26 -17 35 -17 10 0 14 -5 11 -14 -3 -8 -13 -12 -22 -10 -14 5 -13 3 2 -10 21
-17 41 -12 30 7 -4 7 -3 9 1 4 12 -10 56 33 48 47 -3 6 0 5 7 -1 12 -11 9 -18
-13 -41 -29 -31 -32 -43 -17 -73 10 -18 12 -18 38 9 34 35 61 46 77 32 7 -6
18 -9 25 -8 7 2 15 -4 17 -12 4 -13 3 -13 -6 0 -6 8 -11 13 -12 10 -1 -5 -5
-22 -14 -60 -5 -19 -4 -22 4 -10 10 13 11 13 11 0 1 -15 27 48 37 87 3 11 0
29 -7 40 -11 17 -11 17 -6 -1 5 -15 4 -17 -7 -8 -8 7 -17 9 -20 5 -4 -3 -7 -3
-7 1 0 4 10 16 22 26 21 17 21 17 2 28 -11 6 -36 13 -57 17 -30 6 -37 4 -37
-8 0 -9 -4 -18 -8 -21 -4 -2 -8 8 -7 22 0 20 -5 27 -17 26 -10 -1 -15 2 -12 7
3 5 1 9 -5 9 -5 0 -11 15 -13 32 -3 31 -29 51 -41 31z"/>
<path fill="#ffffff" stroke="none" d="M149 196 c10 -12 8 -13 -8 -9 -12 3
-18 9 -15 14 7 12 10 11 23 -5z"/>
<path fill="#ffffff" stroke="none" d="M75 190 c-4 -6 -1 -17 5 -25 13 -16 10
-18 -14 -9 -12 5 -13 10 -5 25 5 10 12 19 15 19 3 0 2 -5 -1 -10z"/>
<path fill="#ffffff" stroke="none" d="M128 160 c-7 -10 -14 -17 -17 -15 -4 4
18 35 25 35 2 0 -1 -9 -8 -20z"/>
<path fill="#000000" stroke="none" d="M23 285 c-15 -17 -17 -95 -3 -95 6 0
15 11 20 25 5 14 16 28 23 31 20 7 9 54 -12 54 -9 -1 -22 -7 -28 -15z"/>
<path fill="#000000" stroke="none" d="M140 277 c0 -28 31 -48 95 -63 28 -6
57 -13 65 -16 8 -3 12 -3 8 -1 -5 3 -8 11 -8 18 0 19 -34 37 -55 29 -23 -9
-65 16 -65 38 0 11 -7 18 -20 18 -14 0 -20 -7 -20 -23z"/>
<path fill="#000000" stroke="none" d="M1 63 c-1 -36 3 -63 9 -63 6 0 10 16
10 35 0 19 5 35 10 35 6 0 10 8 11 18 1 17 1 17 15 -28 5 -13 6 -13 14 0 8 13
10 13 10 -1 0 -9 -7 -22 -15 -29 -8 -7 -15 -18 -15 -24 0 -6 5 -4 10 4 9 13
10 13 10 0 0 -9 8 -3 19 14 l19 28 -36 32 c-23 20 -37 27 -40 18 -6 -18 -20
-15 -25 6 -3 9 -5 -11 -6 -45z"/>
<path fill="#000000" stroke="none" d="M203 54 c-8 -18 -7 -21 5 -20 19 3 36
43 18 43 -7 0 -17 -10 -23 -23z"/>
<path fill="#000000" stroke="none" d="M148 26 c-16 -22 -16 -24 -1 -22 9 2
20 12 24 24 11 29 -2 27 -23 -2z"/>
</g>
</svg>
