<?xml version="1.0" standalone="no"?>
<!DOCTYPE svg PUBLIC "-//W3C//DTD SVG 20010904//EN"
 "http://www.w3.org/TR/2001/REC-SVG-20010904/DTD/svg10.dtd">
<svg version="1.0" xmlns="http://www.w3.org/2000/svg"
 width="32.000000pt" height="32.000000pt" viewBox="0 0 32.000000 32.000000"
 preserveAspectRatio="xMidYMid meet">
<metadata>
Created by potrace 1.16, written by Peter Selinger 2001-2019
</metadata>
<g transform="translate(0.000000,32.000000) scale(0.100000,-0.100000)"
fill="#000000" stroke="none">
<path fill="#000000" stroke="none" d="M190 310 c0 -6 28 -10 65 -10 37 0 65
4 65 10 0 6 -28 10 -65 10 -37 0 -65 -4 -65 -10z"/>
<path fill="#000000" stroke="none" d="M23 285 c-15 -17 -17 -95 -3 -95 6 0
15 11 20 25 5 14 16 28 23 31 20 7 9 54 -12 54 -9 -1 -22 -7 -28 -15z"/>
<path fill="#000000" stroke="none" d="M86 284 c-8 -22 -8 -24 8 -24 21 0 26
13 11 27 -10 10 -14 9 -19 -3z"/>
<path fill="#000000" stroke="none" d="M140 277 c0 -28 31 -48 95 -63 28 -6
57 -13 65 -16 8 -3 12 -3 8 -1 -5 3 -8 11 -8 18 0 19 -34 37 -55 29 -23 -9
-65 16 -65 38 0 11 -7 18 -20 18 -14 0 -20 -7 -20 -23z"/>
<path fill="#000000" stroke="none" d="M88 238 c9 -9 15 -9 24 0 9 9 7 12 -12
12 -19 0 -21 -3 -12 -12z"/>
<path fill="#000000" stroke="none" d="M50 216 c0 -9 -9 -21 -20 -28 -21 -13
-27 -38 -10 -38 6 0 10 5 10 11 0 5 5 7 12 3 8 -5 9 -2 5 9 -4 11 -1 17 8 17
17 0 20 26 5 35 -5 3 -10 -1 -10 -9z"/>
<path fill="#000000" stroke="none" d="M146 221 c-4 -5 -4 -16 -1 -23 3 -8 -1
-21 -10 -28 -18 -15 -20 -43 -2 -37 6 2 12 10 12 18 0 8 6 18 13 22 7 5 10 12
7 17 -3 5 -1 11 5 15 11 7 4 25 -10 25 -5 0 -11 -4 -14 -9z"/>
<path fill="#000000" stroke="none" d="M194 196 c-11 -27 6 -39 29 -19 14 12
18 13 12 3 -6 -12 -5 -13 5 -3 16 15 13 18 -18 27 -15 5 -24 3 -28 -8z"/>
<path fill="#000000" stroke="none" d="M30 126 c0 -8 5 -18 10 -21 6 -3 10
-15 10 -26 0 -24 15 -25 25 -1 13 29 12 49 -1 49 -7 0 -11 -4 -8 -8 2 -4 0
-10 -6 -14 -5 -3 -10 3 -10 14 0 12 -4 21 -10 21 -5 0 -10 -6 -10 -14z"/>
<path fill="#000000" stroke="none" d="M0 60 c0 -33 4 -60 10 -60 6 0 10 27
10 60 0 33 -4 60 -10 60 -6 0 -10 -27 -10 -60z"/>
<path fill="#000000" stroke="none" d="M116 111 c-5 -9 11 -48 23 -55 14 -9
24 12 17 38 -5 20 -32 32 -40 17z"/>
</g>
</svg>
