<?xml version="1.0" standalone="no"?>
<!DOCTYPE svg PUBLIC "-//W3C//DTD SVG 20010904//EN"
 "http://www.w3.org/TR/2001/REC-SVG-20010904/DTD/svg10.dtd">
<svg version="1.0" xmlns="http://www.w3.org/2000/svg"
 width="32.000000pt" height="32.000000pt" viewBox="0 0 32.000000 32.000000"
 preserveAspectRatio="xMidYMid meet">
<metadata>
Created by potrace 1.16, written by Peter Selinger 2001-2019
</metadata>
<g transform="translate(0.000000,32.000000) scale(0.100000,-0.100000)"
fill="#000000" stroke="none">
<path fill="#000000" stroke="none" d="M0 258 c0 -74 8 -110 23 -105 19 6 19
27 0 27 -17 1 -17 1 0 11 13 8 17 23 17 69 0 53 -2 60 -20 60 -18 0 -20 -7
-20 -62z"/>
<path fill="#ffffff" stroke="none" d="M30 290 c0 -5 -4 -10 -10 -10 -5 0 -10
5 -10 10 0 6 5 10 10 10 6 0 10 -4 10 -10z"/>
<path fill="#000000" stroke="none" d="M170 281 c0 -35 3 -39 31 -45 37 -7 90
-7 72 1 -7 2 -13 10 -13 16 0 6 -7 19 -17 29 -15 17 -14 18 30 18 26 0 47 5
47 10 0 6 -32 10 -75 10 l-75 0 0 -39z"/>
<path fill="#000000" stroke="none" d="M84 267 c1 -31 27 -50 40 -28 4 5 -3 7
-16 4 -21 -5 -21 -4 -7 8 27 24 29 45 4 47 -19 1 -22 -3 -21 -31z"/>
<path fill="#000000" stroke="none" d="M146 221 c-3 -5 -1 -22 4 -37 13 -32
34 -20 28 17 -3 24 -22 36 -32 20z"/>
<path fill="#000000" stroke="none" d="M190 195 c0 -19 0 -38 -1 -42 0 -4 5
-9 13 -12 7 -2 10 0 6 4 -5 5 2 13 15 19 12 7 23 22 23 34 1 12 -1 21 -3 18
-3 -3 -16 -1 -29 4 -22 9 -24 7 -24 -25z"/>
<path fill="#ffffff" stroke="none" d="M234 178 c-3 -4 -11 -5 -19 -1 -21 7
-19 12 4 10 11 0 18 -5 15 -9z"/>
<path fill="#000000" stroke="none" d="M50 205 c0 -8 5 -15 10 -15 6 0 10 7
10 15 0 8 -4 15 -10 15 -5 0 -10 -7 -10 -15z"/>
<path fill="#000000" stroke="none" d="M120 145 c0 -9 5 -15 11 -13 6 2 11 8
11 13 0 5 -5 11 -11 13 -6 2 -11 -4 -11 -13z"/>
<path fill="#000000" stroke="none" d="M0 119 c0 -6 7 -9 15 -5 8 3 15 1 15
-4 0 -6 5 -10 10 -10 6 0 10 7 10 15 0 9 -9 15 -25 15 -14 0 -25 -5 -25 -11z"/>
<path fill="#000000" stroke="none" d="M56 108 c-8 -32 -7 -48 3 -48 12 0 22
53 12 63 -5 5 -11 -2 -15 -15z"/>
<path fill="#000000" stroke="none" d="M116 112 c-7 -11 17 -55 29 -54 19 2
16 41 -4 51 -11 6 -22 7 -25 3z"/>
<path fill="#000000" stroke="none" d="M210 66 c0 -8 5 -18 10 -21 6 -3 10 1
10 9 0 8 -4 18 -10 21 -5 3 -10 -1 -10 -9z"/>
<path fill="#000000" stroke="none" d="M266 71 c-4 -6 -5 -11 -1 -11 3 0 1 -8
-4 -18 -7 -14 -6 -19 4 -19 18 0 27 25 16 44 -6 11 -10 12 -15 4z"/>
<path fill="#000000" stroke="none" d="M80 56 c0 -7 -7 -19 -15 -26 -8 -7 -15
-18 -15 -24 0 -6 4 -5 9 3 6 9 10 10 12 2 3 -7 12 1 22 18 15 25 15 30 2 35
-9 3 -15 0 -15 -8z"/>
<path fill="#000000" stroke="none" d="M148 26 c-16 -22 -16 -24 -1 -22 9 2
20 12 24 24 11 29 -2 27 -23 -2z"/>
</g>
</svg>
