<?xml version="1.0" standalone="no"?>
<!DOCTYPE svg PUBLIC "-//W3C//DTD SVG 20010904//EN"
 "http://www.w3.org/TR/2001/REC-SVG-20010904/DTD/svg10.dtd">
<svg version="1.0" xmlns="http://www.w3.org/2000/svg"
 width="32.000000pt" height="32.000000pt" viewBox="0 0 32.000000 32.000000"
 preserveAspectRatio="xMidYMid meet">
<metadata>
Created by potrace 1.16, written by Peter Selinger 2001-2019
</metadata>
<g transform="translate(0.000000,32.000000) scale(0.100000,-0.100000)"
fill="#000000" stroke="none">
<path fill="#000000" stroke="none" d="M190 310 c0 -6 28 -10 65 -10 37 0 65
4 65 10 0 6 -28 10 -65 10 -37 0 -65 -4 -65 -10z"/>
<path fill="#000000" stroke="none" d="M180 242 c0 -13 13 -20 53 -28 28 -6
59 -13 67 -16 8 -2 12 -3 8 -1 -5 3 -8 11 -8 18 0 20 -31 34 -61 28 -15 -3
-30 0 -33 6 -11 17 -26 13 -26 -7z"/>
<path fill="#000000" stroke="none" d="M139 163 c-13 -16 -12 -17 4 -4 9 7 17
15 17 17 0 8 -8 3 -21 -13z"/>
<path fill="#000000" stroke="none" d="M89 113 c-13 -16 -12 -17 4 -4 9 7 17
15 17 17 0 8 -8 3 -21 -13z"/>
<path fill="#000000" stroke="none" d="M1 63 c-1 -36 3 -63 9 -63 6 0 10 16
10 35 0 19 5 35 10 35 6 0 10 5 10 10 0 6 -6 10 -14 10 -8 0 -17 8 -19 18 -3
9 -5 -11 -6 -45z"/>
<path fill="#000000" stroke="none" d="M126 101 c-4 -5 -2 -12 4 -16 6 -4 7
-11 4 -17 -4 -6 -2 -8 4 -5 10 7 11 32 0 42 -3 4 -9 2 -12 -4z"/>
<path fill="#000000" stroke="none" d="M53 85 c0 -8 4 -12 9 -9 5 3 6 10 3 15
-9 13 -12 11 -12 -6z"/>
</g>
</svg>
