<?xml version="1.0" standalone="no"?>
<!DOCTYPE svg PUBLIC "-//W3C//DTD SVG 20010904//EN"
 "http://www.w3.org/TR/2001/REC-SVG-20010904/DTD/svg10.dtd">
<svg version="1.0" xmlns="http://www.w3.org/2000/svg"
 width="32.000000pt" height="32.000000pt" viewBox="0 0 32.000000 32.000000"
 preserveAspectRatio="xMidYMid meet">
<metadata>
Created by potrace 1.16, written by Peter Selinger 2001-2019
</metadata>
<g transform="translate(0.000000,32.000000) scale(0.100000,-0.100000)"
fill="#000000" stroke="none">
<path fill="#000000" stroke="none" d="M0 169 c0 -97 4 -148 10 -144 5 3 10 2
10 -4 0 -5 -6 -12 -12 -15 -7 -3 60 -5 150 -4 l162 1 0 158 0 159 -160 0 -160
0 0 -151z"/>
<path fill="#ffffff" stroke="none" d="M195 160 c-4 -6 -10 -8 -14 -5 -11 6
-73 -50 -64 -58 3 -4 -1 -7 -10 -7 -9 0 -19 5 -22 10 -3 6 -1 10 6 10 6 0 27
14 46 30 32 28 71 42 58 20z"/>
<path fill="#ffffff" stroke="none" d="M246 88 c5 4 3 0 -4 -9 -10 -14 -8 -19
15 -35 16 -10 32 -17 36 -16 5 1 6 -2 2 -8 -8 -14 -47 13 -79 55 -27 35 -22
60 5 26 9 -11 20 -17 25 -13z"/>
<path fill="#ffffff" stroke="none" d="M66 86 c-2 -15 -36 -52 -36 -39 0 9 29
53 35 53 2 0 2 -6 1 -14z"/>
</g>
</svg>
