<?xml version="1.0" standalone="no"?>
<!DOCTYPE svg PUBLIC "-//W3C//DTD SVG 20010904//EN"
 "http://www.w3.org/TR/2001/REC-SVG-20010904/DTD/svg10.dtd">
<svg version="1.0" xmlns="http://www.w3.org/2000/svg"
 width="32.000000pt" height="32.000000pt" viewBox="0 0 32.000000 32.000000"
 preserveAspectRatio="xMidYMid meet">
<metadata>
Created by potrace 1.16, written by Peter Selinger 2001-2019
</metadata>
<g transform="translate(0.000000,32.000000) scale(0.100000,-0.100000)"
fill="#000000" stroke="none">
<path fill="#000000" stroke="none" d="M0 160 l0 -160 145 0 c80 0 145 2 145
5 0 2 -23 16 -50 30 -59 30 -68 44 -45 79 26 39 16 69 -24 77 -18 4 -37 13
-42 21 -6 9 -9 9 -9 1 0 -7 18 -26 40 -44 33 -26 38 -35 29 -51 -9 -17 -11
-17 -44 8 -34 25 -35 28 -32 89 1 35 5 58 9 51 4 -6 8 -6 8 -1 0 6 3 20 6 33
6 21 4 22 -65 22 l-71 0 0 -160z"/>
<path fill="#000000" stroke="none" d="M176 278 c-8 -47 -1 -58 46 -67 26 -5
34 -12 36 -33 2 -15 -4 -38 -13 -52 -22 -34 -15 -49 34 -73 l41 -20 0 143 0
144 -69 0 -68 0 -7 -42z"/>
</g>
</svg>
