<?xml version="1.0" standalone="no"?>
<!DOCTYPE svg PUBLIC "-//W3C//DTD SVG 20010904//EN"
 "http://www.w3.org/TR/2001/REC-SVG-20010904/DTD/svg10.dtd">
<svg version="1.0" xmlns="http://www.w3.org/2000/svg"
 width="32.000000pt" height="32.000000pt" viewBox="0 0 32.000000 32.000000"
 preserveAspectRatio="xMidYMid meet">
<metadata>
Created by potrace 1.16, written by Peter Selinger 2001-2019
</metadata>
<g transform="translate(0.000000,32.000000) scale(0.100000,-0.100000)"
fill="#000000" stroke="none">
<path fill="#000000" stroke="none" d="M138 141 c-18 -15 -43 -31 -55 -35 -22
-7 -88 -94 -79 -103 9 -9 37 7 31 17 -3 5 -2 10 3 10 5 0 14 10 21 23 8 15 21
23 34 22 23 -2 52 21 52 39 0 6 7 11 15 11 8 0 14 -6 13 -12 -2 -7 2 -13 7
-13 6 0 33 -22 61 -50 27 -27 56 -50 64 -50 23 0 18 13 -17 44 -18 15 -33 35
-34 43 -2 9 -13 26 -26 37 -13 12 -17 17 -8 11 10 -6 8 -2 -4 13 -25 29 -39
28 -78 -7z"/>
</g>
</svg>
