<?xml version="1.0" standalone="no"?>
<!DOCTYPE svg PUBLIC "-//W3C//DTD SVG 20010904//EN"
 "http://www.w3.org/TR/2001/REC-SVG-20010904/DTD/svg10.dtd">
<svg version="1.0" xmlns="http://www.w3.org/2000/svg"
 width="32.000000pt" height="32.000000pt" viewBox="0 0 32.000000 32.000000"
 preserveAspectRatio="xMidYMid meet">
<metadata>
Created by potrace 1.16, written by Peter Selinger 2001-2019
</metadata>
<g transform="translate(0.000000,32.000000) scale(0.100000,-0.100000)"
fill="#000000" stroke="none">
<path fill="#000000" stroke="none" d="M46 199 c2 -4 -7 -10 -21 -13 -16 -4
-25 -13 -25 -26 0 -19 4 -20 79 -14 62 5 88 3 124 -11 38 -14 51 -15 81 -5 24
8 36 18 36 30 0 17 -6 18 -47 13 -33 -3 -59 0 -83 11 -19 9 -26 13 -15 10 11
-4 43 -8 70 -11 43 -4 47 -2 30 8 -21 13 -237 20 -229 8z"/>
</g>
</svg>
