<?xml version="1.0" standalone="no"?>
<!DOCTYPE svg PUBLIC "-//W3C//DTD SVG 20010904//EN"
 "http://www.w3.org/TR/2001/REC-SVG-20010904/DTD/svg10.dtd">
<svg version="1.0" xmlns="http://www.w3.org/2000/svg"
 width="32.000000pt" height="32.000000pt" viewBox="0 0 32.000000 32.000000"
 preserveAspectRatio="xMidYMid meet">
<metadata>
Created by potrace 1.16, written by Peter Selinger 2001-2019
</metadata>
<g transform="translate(0.000000,32.000000) scale(0.100000,-0.100000)"
fill="#000000" stroke="none">
<path fill="#000000" stroke="none" d="M0 310 c0 -8 36 -34 50 -35 31 -2 75
-69 79 -121 0 -9 6 -12 13 -8 7 4 8 3 4 -4 -4 -7 -3 -12 3 -12 5 0 13 -9 16
-20 4 -11 11 -18 16 -15 5 3 6 -2 2 -11 -4 -11 -2 -15 4 -11 6 4 18 -2 28 -13
10 -11 21 -17 25 -15 4 3 24 -6 44 -20 l36 -24 0 159 0 160 -160 0 c-96 0
-160 -4 -160 -10z"/>
<path fill="#ffffff" stroke="none" d="M231 113 c13 -16 12 -17 -3 -4 -10 7
-18 15 -18 17 0 8 8 3 21 -13z"/>
<path fill="#000000" stroke="none" d="M0 144 l0 -144 145 0 c80 0 145 2 145
5 0 3 -24 16 -54 29 -44 19 -62 35 -89 78 -20 29 -38 67 -42 85 -7 35 -18 46
-70 73 l-35 18 0 -144z"/>
<path fill="#ffffff" stroke="none" d="M51 246 c5 3 16 -2 25 -10 8 -9 12 -16
8 -16 -3 0 0 -8 7 -17 8 -9 -3 -4 -23 11 -21 16 -38 33 -37 40 0 7 2 6 6 -2 2
-6 9 -10 14 -6z"/>
</g>
</svg>
