<?xml version="1.0" standalone="no"?>
<!DOCTYPE svg PUBLIC "-//W3C//DTD SVG 20010904//EN"
 "http://www.w3.org/TR/2001/REC-SVG-20010904/DTD/svg10.dtd">
<svg version="1.0" xmlns="http://www.w3.org/2000/svg"
 width="32.000000pt" height="32.000000pt" viewBox="0 0 32.000000 32.000000"
 preserveAspectRatio="xMidYMid meet">
<metadata>
Created by potrace 1.16, written by Peter Selinger 2001-2019
</metadata>
<g transform="translate(0.000000,32.000000) scale(0.100000,-0.100000)"
fill="#000000" stroke="none">
<path fill="#000000" stroke="none" d="M90 200 c-27 -27 -25 -62 6 -99 14 -17
28 -46 31 -66 4 -25 11 -35 24 -35 26 0 24 27 -6 84 -42 78 -32 96 40 71 25
-8 66 -15 90 -15 39 0 45 3 45 21 0 18 -4 20 -42 14 -35 -5 -52 -1 -91 19 -58
31 -71 32 -97 6z"/>
</g>
</svg>
