<?xml version="1.0" standalone="no"?>
<!DOCTYPE svg PUBLIC "-//W3C//DTD SVG 20010904//EN"
 "http://www.w3.org/TR/2001/REC-SVG-20010904/DTD/svg10.dtd">
<svg version="1.0" xmlns="http://www.w3.org/2000/svg"
 width="32.000000pt" height="32.000000pt" viewBox="0 0 32.000000 32.000000"
 preserveAspectRatio="xMidYMid meet">
<metadata>
Created by potrace 1.16, written by Peter Selinger 2001-2019
</metadata>
<g transform="translate(0.000000,32.000000) scale(0.100000,-0.100000)"
fill="#000000" stroke="none">
<path fill="#000000" stroke="none" d="M0 160 l0 -160 66 0 67 0 -6 35 c-3 20
-17 49 -31 66 -31 37 -33 72 -6 99 26 26 38 25 98 -6 41 -21 58 -25 91 -19
l41 7 0 69 0 69 -160 0 -160 0 0 -160z"/>
<path fill="#000000" stroke="none" d="M123 154 c-3 -8 6 -39 21 -67 14 -29
26 -60 26 -70 0 -15 10 -17 75 -17 l75 0 0 70 0 70 -47 0 c-27 1 -66 7 -88 15
-50 18 -54 18 -62 -1z"/>
</g>
</svg>
