<?xml version="1.0" standalone="no"?>
<!DOCTYPE svg PUBLIC "-//W3C//DTD SVG 20010904//EN"
 "http://www.w3.org/TR/2001/REC-SVG-20010904/DTD/svg10.dtd">
<svg version="1.0" xmlns="http://www.w3.org/2000/svg"
 width="32.000000pt" height="32.000000pt" viewBox="0 0 32.000000 32.000000"
 preserveAspectRatio="xMidYMid meet">
<metadata>
Created by potrace 1.16, written by Peter Selinger 2001-2019
</metadata>
<g transform="translate(0.000000,32.000000) scale(0.100000,-0.100000)"
fill="#000000" stroke="none">
<path fill="#000000" stroke="none" d="M0 160 l0 -160 160 0 160 0 0 70 c0 43
-4 70 -11 70 -5 0 -7 5 -3 11 8 13 -27 -4 -69 -33 -15 -11 -34 -21 -41 -22 -8
-1 -21 -7 -29 -14 -19 -16 -41 -7 -57 23 -12 22 -10 31 14 79 23 45 27 63 21
96 l-7 40 -69 0 -69 0 0 -160z"/>
<path fill="#000000" stroke="none" d="M167 313 c-4 -3 -2 -12 4 -19 6 -7 7
-19 3 -26 -5 -7 -7 -24 -5 -37 1 -13 -1 -21 -6 -18 -5 3 -9 -4 -10 -16 -1 -12
-4 -32 -8 -44 -11 -36 31 -40 90 -9 26 14 56 26 66 26 17 0 19 9 19 75 l0 75
-73 0 c-41 0 -77 -3 -80 -7z"/>
<path fill="#000000" stroke="none" d="M137 89 c7 -7 15 -10 18 -7 3 3 -2 9
-12 12 -14 6 -15 5 -6 -5z"/>
</g>
</svg>
