<?xml version="1.0" standalone="no"?>
<!DOCTYPE svg PUBLIC "-//W3C//DTD SVG 20010904//EN"
 "http://www.w3.org/TR/2001/REC-SVG-20010904/DTD/svg10.dtd">
<svg version="1.0" xmlns="http://www.w3.org/2000/svg"
 width="32.000000pt" height="32.000000pt" viewBox="0 0 32.000000 32.000000"
 preserveAspectRatio="xMidYMid meet">
<metadata>
Created by potrace 1.16, written by Peter Selinger 2001-2019
</metadata>
<g transform="translate(0.000000,32.000000) scale(0.100000,-0.100000)"
fill="#000000" stroke="none">
<path fill="#000000" stroke="none" d="M145 278 c5 -35 1 -52 -19 -91 -31 -58
-32 -71 -6 -97 27 -27 62 -25 99 6 17 14 46 28 66 31 25 4 35 11 35 24 0 26
-27 24 -84 -6 -78 -42 -96 -32 -71 40 8 25 15 66 15 90 0 39 -3 45 -21 45 -18
0 -20 -4 -14 -42z"/>
</g>
</svg>
