<?xml version="1.0" standalone="no"?>
<!DOCTYPE svg PUBLIC "-//W3C//DTD SVG 20010904//EN"
 "http://www.w3.org/TR/2001/REC-SVG-20010904/DTD/svg10.dtd">
<svg version="1.0" xmlns="http://www.w3.org/2000/svg"
 width="32.000000pt" height="32.000000pt" viewBox="0 0 32.000000 32.000000"
 preserveAspectRatio="xMidYMid meet">
<metadata>
Created by potrace 1.16, written by Peter Selinger 2001-2019
</metadata>
<g transform="translate(0.000000,32.000000) scale(0.100000,-0.100000)"
fill="#000000" stroke="none">
<path fill="#000000" stroke="none" d="M90 200 c-27 -27 -25 -62 6 -99 14 -17
28 -47 31 -66 4 -24 9 -32 14 -24 4 7 4 20 -1 30 -5 9 -7 18 -5 21 2 2 -9 18
-24 36 -24 26 -32 55 -21 70 2 1 3 8 4 15 1 6 8 11 15 9 7 -1 10 2 6 8 -10 16
33 6 55 -13 11 -9 20 -15 20 -12 0 2 18 -2 40 -10 22 -8 40 -10 40 -5 0 6 -8
10 -19 10 -10 0 -39 11 -65 25 -57 30 -70 31 -96 5z"/>
<path fill="#000000" stroke="none" d="M298 173 c7 -3 16 -2 19 1 4 3 -2 6
-13 5 -11 0 -14 -3 -6 -6z"/>
</g>
</svg>
