<?xml version="1.0" standalone="no"?>
<!DOCTYPE svg PUBLIC "-//W3C//DTD SVG 20010904//EN"
 "http://www.w3.org/TR/2001/REC-SVG-20010904/DTD/svg10.dtd">
<svg version="1.0" xmlns="http://www.w3.org/2000/svg"
 width="32.000000pt" height="32.000000pt" viewBox="0 0 32.000000 32.000000"
 preserveAspectRatio="xMidYMid meet">
<metadata>
Created by potrace 1.16, written by Peter Selinger 2001-2019
</metadata>
<g transform="translate(0.000000,32.000000) scale(0.100000,-0.100000)"
fill="#000000" stroke="none">
<path fill="#000000" stroke="none" d="M0 249 c0 -69 1 -71 22 -65 79 22 96
17 107 -35 8 -40 38 -50 77 -24 35 23 49 15 83 -52 l30 -58 1 153 0 152 -160
0 -160 0 0 -71z"/>
<path fill="#000000" stroke="none" d="M27 143 c-26 -4 -27 -6 -27 -74 l0 -69
144 0 143 0 -20 41 c-24 49 -39 56 -73 34 -39 -26 -77 -16 -85 21 -11 55 -14
57 -82 47z"/>
</g>
</svg>
