<?xml version="1.0" standalone="no"?>
<!DOCTYPE svg PUBLIC "-//W3C//DTD SVG 20010904//EN"
 "http://www.w3.org/TR/2001/REC-SVG-20010904/DTD/svg10.dtd">
<svg version="1.0" xmlns="http://www.w3.org/2000/svg"
 width="32.000000pt" height="32.000000pt" viewBox="0 0 32.000000 32.000000"
 preserveAspectRatio="xMidYMid meet">
<metadata>
Created by potrace 1.16, written by Peter Selinger 2001-2019
</metadata>
<g transform="translate(0.000000,32.000000) scale(0.100000,-0.100000)"
fill="#000000" stroke="none">
<path fill="#000000" stroke="none" d="M61 145 c-8 -24 -18 -35 -32 -35 -16 0
-20 -6 -17 -27 2 -21 9 -29 28 -31 14 -1 32 2 40 8 13 9 13 12 -2 24 -13 10
-15 15 -6 24 7 7 9 12 4 12 -4 0 0 7 9 16 16 17 16 35 -1 41 -5 2 -16 -13 -23
-32z"/>
<path fill="#ffffff" stroke="none" d="M67 64 c-3 -3 -12 -4 -19 -1 -8 3 -5 6
6 6 11 1 17 -2 13 -5z"/>
</g>
</svg>
