<?xml version="1.0" standalone="no"?>
<!DOCTYPE svg PUBLIC "-//W3C//DTD SVG 20010904//EN"
 "http://www.w3.org/TR/2001/REC-SVG-20010904/DTD/svg10.dtd">
<svg version="1.0" xmlns="http://www.w3.org/2000/svg"
 width="32.000000pt" height="32.000000pt" viewBox="0 0 32.000000 32.000000"
 preserveAspectRatio="xMidYMid meet">
<metadata>
Created by potrace 1.16, written by Peter Selinger 2001-2019
</metadata>
<g transform="translate(0.000000,32.000000) scale(0.100000,-0.100000)"
fill="#000000" stroke="none">
<path fill="#000000" stroke="none" d="M0 160 l0 -160 160 0 160 0 0 160 0
160 -160 0 -160 0 0 -160z"/>
<path fill="#ffffff" stroke="none" d="M58 208 c-2 -3 8 -19 22 -35 l25 -28
-25 22 c-24 21 -27 22 -43 6 -15 -15 -17 -15 -23 0 -8 21 13 49 33 45 8 -2 13
-6 11 -10z"/>
<path fill="#000000" stroke="none" d="M23 195 c-9 -25 2 -27 22 -5 17 18 17
20 1 20 -9 0 -19 -7 -23 -15z"/>
</g>
</svg>
