<?xml version="1.0" standalone="no"?>
<!DOCTYPE svg PUBLIC "-//W3C//DTD SVG 20010904//EN"
 "http://www.w3.org/TR/2001/REC-SVG-20010904/DTD/svg10.dtd">
<svg version="1.0" xmlns="http://www.w3.org/2000/svg"
 width="32.000000pt" height="32.000000pt" viewBox="0 0 32.000000 32.000000"
 preserveAspectRatio="xMidYMid meet">
<metadata>
Created by potrace 1.16, written by Peter Selinger 2001-2019
</metadata>
<g transform="translate(0.000000,32.000000) scale(0.100000,-0.100000)"
fill="#000000" stroke="none">
<path fill="#000000" stroke="none" d="M0 160 l0 -160 160 0 160 0 0 160 0
160 -160 0 -160 0 0 -160z"/>
<path fill="#ffffff" stroke="none" d="M49 194 c-11 -14 -14 -13 -22 1 -5 10
-4 21 4 31 11 14 14 13 22 -1 5 -10 4 -21 -4 -31z"/>
<path fill="#ffffff" stroke="none" d="M104 197 c-5 -13 -10 -15 -19 -7 -10 8
-14 7 -18 -7 -2 -10 -4 -4 -3 14 0 17 4 29 9 26 4 -2 7 2 7 9 0 9 4 8 15 -3 9
-9 13 -23 9 -32z"/>
<path fill="#ffffff" stroke="none" d="M67 98 c-3 -8 -6 -5 -6 6 -1 11 2 17 5
13 3 -3 4 -12 1 -19z"/>
<path fill="#ffffff" stroke="none" d="M53 65 c-8 -14 -11 -14 -21 -2 -7 8 -9
22 -6 32 6 15 8 15 21 2 11 -10 12 -20 6 -32z"/>
<path fill="#ffffff" stroke="none" d="M96 62 c-11 -11 -16 -12 -16 -4 0 8 -5
10 -12 6 -12 -7 -5 8 15 34 9 11 12 10 20 -3 6 -12 4 -22 -7 -33z"/>
</g>
</svg>
