<?xml version="1.0" standalone="no"?>
<!DOCTYPE svg PUBLIC "-//W3C//DTD SVG 20010904//EN"
 "http://www.w3.org/TR/2001/REC-SVG-20010904/DTD/svg10.dtd">
<svg version="1.0" xmlns="http://www.w3.org/2000/svg"
 width="32.000000pt" height="32.000000pt" viewBox="0 0 32.000000 32.000000"
 preserveAspectRatio="xMidYMid meet">
<metadata>
Created by potrace 1.16, written by Peter Selinger 2001-2019
</metadata>
<g transform="translate(0.000000,32.000000) scale(0.100000,-0.100000)"
fill="#000000" stroke="none">
<path fill="#000000" stroke="none" d="M35 300 c-3 -5 -12 -7 -18 -3 -7 4 -6
0 2 -10 9 -11 10 -17 2 -17 -12 0 -15 -29 -5 -54 5 -13 9 -12 25 7 18 22 18
21 16 -73 0 -54 3 -93 8 -90 5 3 8 45 7 95 -1 89 -1 90 17 68 16 -19 20 -20
25 -7 9 25 7 54 -5 54 -5 0 -8 4 -5 9 3 5 0 14 -8 20 -11 9 -15 8 -21 -6 -6
-17 -7 -17 -20 0 -8 12 -15 14 -20 7z"/>
</g>
</svg>
