<?xml version="1.0" standalone="no"?>
<!DOCTYPE svg PUBLIC "-//W3C//DTD SVG 20010904//EN"
 "http://www.w3.org/TR/2001/REC-SVG-20010904/DTD/svg10.dtd">
<svg version="1.0" xmlns="http://www.w3.org/2000/svg"
 width="32.000000pt" height="32.000000pt" viewBox="0 0 32.000000 32.000000"
 preserveAspectRatio="xMidYMid meet">
<metadata>
Created by potrace 1.16, written by Peter Selinger 2001-2019
</metadata>
<g transform="translate(0.000000,32.000000) scale(0.100000,-0.100000)"
fill="#000000" stroke="none">
<path fill="#000000" stroke="none" d="M0 160 l0 -160 160 0 160 0 0 160 0
160 -160 0 -160 0 0 -160z"/>
<path fill="#ffffff" stroke="none" d="M45 192 c-6 -16 -7 -16 -16 1 -8 13 -7
23 3 34 12 15 13 15 16 -1 2 -9 1 -25 -3 -34z"/>
<path fill="#ffffff" stroke="none" d="M104 197 c-9 -24 -24 -11 -24 21 0 24
2 25 15 11 9 -9 13 -23 9 -32z"/>
<path fill="#ffffff" stroke="none" d="M50 72 c0 -24 -2 -25 -15 -11 -9 9 -13
23 -9 32 9 24 24 11 24 -21z"/>
<path fill="#ffffff" stroke="none" d="M96 62 c-15 -15 -16 -14 -16 9 0 33 11
44 23 23 6 -11 4 -21 -7 -32z"/>
</g>
</svg>
