<?xml version="1.0" standalone="no"?>
<!DOCTYPE svg PUBLIC "-//W3C//DTD SVG 20010904//EN"
 "http://www.w3.org/TR/2001/REC-SVG-20010904/DTD/svg10.dtd">
<svg version="1.0" xmlns="http://www.w3.org/2000/svg"
 width="32.000000pt" height="32.000000pt" viewBox="0 0 32.000000 32.000000"
 preserveAspectRatio="xMidYMid meet">
<metadata>
Created by potrace 1.16, written by Peter Selinger 2001-2019
</metadata>
<g transform="translate(0.000000,32.000000) scale(0.100000,-0.100000)"
fill="#000000" stroke="none">
<path fill="#000000" stroke="none" d="M17 303 c-12 -11 -7 -50 7 -62 12 -10
13 -6 6 23 -4 19 -5 37 -2 40 3 4 3 6 0 6 -2 0 -8 -3 -11 -7z"/>
<path fill="#000000" stroke="none" d="M98 285 c2 -14 -2 -33 -9 -43 -13 -15
-12 -16 4 -3 18 14 23 56 8 65 -4 3 -6 -6 -3 -19z"/>
</g>
</svg>
