<?xml version="1.0" standalone="no"?>
<!DOCTYPE svg PUBLIC "-//W3C//DTD SVG 20010904//EN"
 "http://www.w3.org/TR/2001/REC-SVG-20010904/DTD/svg10.dtd">
<svg version="1.0" xmlns="http://www.w3.org/2000/svg"
 width="32.000000pt" height="32.000000pt" viewBox="0 0 32.000000 32.000000"
 preserveAspectRatio="xMidYMid meet">
<metadata>
Created by potrace 1.16, written by Peter Selinger 2001-2019
</metadata>
<g transform="translate(0.000000,32.000000) scale(0.100000,-0.100000)"
fill="#000000" stroke="none">
<path fill="#000000" stroke="none" d="M0 160 l0 -160 160 0 160 0 0 160 0
160 -160 0 -160 0 0 -160z"/>
<path fill="#ffffff" stroke="none" d="M28 298 c-2 -7 3 -12 11 -10 12 3 12 1
0 -14 -9 -12 -9 -15 -1 -10 6 4 12 2 12 -3 0 -6 -5 -11 -11 -11 -5 0 -7 -6 -3
-12 5 -9 2 -9 -9 1 -17 13 -23 52 -10 64 10 10 13 8 11 -5z"/>
<path fill="#ffffff" stroke="none" d="M110 276 c0 -13 -6 -29 -13 -35 -11 -9
-13 -5 -11 17 1 15 3 29 4 32 1 3 2 9 1 13 -1 5 3 6 9 2 5 -3 10 -17 10 -29z"/>
<path fill="#ffffff" stroke="none" d="M67 258 c-3 -7 -5 -2 -5 12 0 14 2 19
5 13 2 -7 2 -19 0 -25z"/>
<path fill="#ffffff" stroke="none" d="M77 174 c-3 -3 -12 -4 -19 -1 -8 3 -5
6 6 6 11 1 17 -2 13 -5z"/>
<path fill="#ffffff" stroke="none" d="M77 114 c-3 -3 -12 -4 -19 -1 -8 3 -5
6 6 6 11 1 17 -2 13 -5z"/>
</g>
</svg>
