<?xml version="1.0" standalone="no"?>
<!DOCTYPE svg PUBLIC "-//W3C//DTD SVG 20010904//EN"
 "http://www.w3.org/TR/2001/REC-SVG-20010904/DTD/svg10.dtd">
<svg version="1.0" xmlns="http://www.w3.org/2000/svg"
 width="32.000000pt" height="32.000000pt" viewBox="0 0 32.000000 32.000000"
 preserveAspectRatio="xMidYMid meet">
<metadata>
Created by potrace 1.16, written by Peter Selinger 2001-2019
</metadata>
<g transform="translate(0.000000,32.000000) scale(0.100000,-0.100000)"
fill="#000000" stroke="none">
<path fill="#000000" stroke="none" d="M74 235 c-7 -19 -14 -45 -13 -57 1 -15
4 -9 10 15 5 21 14 47 19 58 6 10 8 19 5 19 -3 0 -13 -16 -21 -35z"/>
<path fill="#000000" stroke="none" d="M65 96 c2 -22 9 -44 15 -50 7 -7 8 -2
1 19 -5 17 -12 39 -15 50 -3 11 -3 2 -1 -19z"/>
</g>
</svg>
