<?xml version="1.0" standalone="no"?>
<!DOCTYPE svg PUBLIC "-//W3C//DTD SVG 20010904//EN"
 "http://www.w3.org/TR/2001/REC-SVG-20010904/DTD/svg10.dtd">
<svg version="1.0" xmlns="http://www.w3.org/2000/svg"
 width="32.000000pt" height="32.000000pt" viewBox="0 0 32.000000 32.000000"
 preserveAspectRatio="xMidYMid meet">
<metadata>
Created by potrace 1.16, written by Peter Selinger 2001-2019
</metadata>
<g transform="translate(0.000000,32.000000) scale(0.100000,-0.100000)"
fill="#000000" stroke="none">
<path fill="#000000" stroke="none" d="M0 159 l0 -159 160 0 160 0 0 160 0
160 -110 0 -109 0 -4 -72 -3 -73 -2 70 -2 71 -45 0 -45 1 0 -158z"/>
<path fill="#ffffff" stroke="none" d="M70 275 c6 34 7 28 9 -32 1 -59 -2 -73
-14 -73 -12 0 -15 14 -13 73 1 53 3 61 6 32 l6 -40 6 40z"/>
<path fill="#ffffff" stroke="none" d="M100 128 c0 -37 -1 -38 -35 -38 -34 0
-35 1 -35 38 0 37 1 38 35 38 34 0 35 -1 35 -38z"/>
<path fill="#000000" stroke="none" d="M56 108 c3 -5 10 -6 15 -3 13 9 11 12
-6 12 -8 0 -12 -4 -9 -9z"/>
</g>
</svg>
