<?xml version="1.0" standalone="no"?>
<!DOCTYPE svg PUBLIC "-//W3C//DTD SVG 20010904//EN"
 "http://www.w3.org/TR/2001/REC-SVG-20010904/DTD/svg10.dtd">
<svg version="1.0" xmlns="http://www.w3.org/2000/svg"
 width="32.000000pt" height="32.000000pt" viewBox="0 0 32.000000 32.000000"
 preserveAspectRatio="xMidYMid meet">
<metadata>
Created by potrace 1.16, written by Peter Selinger 2001-2019
</metadata>
<g transform="translate(0.000000,32.000000) scale(0.100000,-0.100000)"
fill="#000000" stroke="none">
<path fill="#000000" stroke="none" d="M30 200 l0 -121 25 4 c13 1 28 6 32 11
4 4 1 6 -7 4 -12 -2 -14 9 -13 57 1 36 -3 64 -10 70 -17 14 -16 47 2 65 14 13
18 13 31 0 19 -19 20 -52 3 -63 -16 -10 -17 -49 -1 -65 8 -8 8 -15 -1 -26 -10
-11 -9 -19 1 -35 21 -35 28 -24 28 45 0 55 -3 65 -15 60 -8 -3 -15 -1 -15 3 0
5 5 11 12 13 6 2 13 25 15 51 l4 47 -46 0 -45 0 0 -120z"/>
</g>
</svg>
