<?xml version="1.0" standalone="no"?>
<!DOCTYPE svg PUBLIC "-//W3C//DTD SVG 20010904//EN"
 "http://www.w3.org/TR/2001/REC-SVG-20010904/DTD/svg10.dtd">
<svg version="1.0" xmlns="http://www.w3.org/2000/svg"
 width="32.000000pt" height="32.000000pt" viewBox="0 0 32.000000 32.000000"
 preserveAspectRatio="xMidYMid meet">
<metadata>
Created by potrace 1.16, written by Peter Selinger 2001-2019
</metadata>
<g transform="translate(0.000000,32.000000) scale(0.100000,-0.100000)"
fill="#000000" stroke="none">
<path fill="#000000" stroke="none" d="M50 290 c-16 -17 -23 -60 -9 -60 5 0 9
6 9 13 0 8 4 7 10 -3 8 -12 10 -11 10 7 0 12 8 24 18 26 15 4 15 5 0 6 -9 0
-18 7 -20 14 -2 9 -7 9 -18 -3z"/>
<path fill="#000000" stroke="none" d="M190 260 c-16 -17 -23 -60 -9 -60 5 0
9 6 9 13 0 8 4 7 10 -3 8 -12 10 -11 10 7 0 12 8 24 18 26 15 4 15 5 0 6 -9 0
-18 7 -20 14 -2 9 -7 9 -18 -3z"/>
<path fill="#000000" stroke="none" d="M55 170 c-3 -5 1 -10 10 -10 9 0 13 5
10 10 -3 6 -8 10 -10 10 -2 0 -7 -4 -10 -10z"/>
<path fill="#000000" stroke="none" d="M195 140 c-3 -5 1 -10 10 -10 9 0 13 5
10 10 -3 6 -8 10 -10 10 -2 0 -7 -4 -10 -10z"/>
<path fill="#000000" stroke="none" d="M57 116 c-3 -8 -2 -18 3 -21 13 -8 20
9 11 24 -6 10 -10 9 -14 -3z"/>
<path fill="#000000" stroke="none" d="M197 86 c-3 -8 -2 -18 3 -21 13 -8 20
9 11 24 -6 10 -10 9 -14 -3z"/>
</g>
</svg>
