<?xml version="1.0" standalone="no"?>
<!DOCTYPE svg PUBLIC "-//W3C//DTD SVG 20010904//EN"
 "http://www.w3.org/TR/2001/REC-SVG-20010904/DTD/svg10.dtd">
<svg version="1.0" xmlns="http://www.w3.org/2000/svg"
 width="32.000000pt" height="32.000000pt" viewBox="0 0 32.000000 32.000000"
 preserveAspectRatio="xMidYMid meet">
<metadata>
Created by potrace 1.16, written by Peter Selinger 2001-2019
</metadata>
<g transform="translate(0.000000,32.000000) scale(0.100000,-0.100000)"
fill="#000000" stroke="none">
<path fill="#000000" stroke="none" d="M4 223 c2 -54 5 -99 5 -100 1 -2 9 -3
19 -3 14 0 14 2 3 9 -18 12 -21 98 -4 112 8 7 20 -4 41 -35 17 -25 24 -42 16
-39 -8 3 -22 -1 -31 -8 -15 -12 -16 -12 -10 4 17 41 19 52 9 38 -8 -11 -11
-11 -16 0 -3 8 -5 5 -2 -7 2 -12 -1 -29 -7 -39 -7 -13 -6 -16 2 -11 16 11 25
-22 11 -39 -10 -12 -16 -13 -26 -4 -12 9 -14 2 -14 -45 l0 -56 160 0 160 0 0
160 0 160 -160 0 -161 0 5 -97z"/>
<path fill="#ffffff" stroke="none" d="M86 125 c-3 -9 0 -15 10 -15 9 0 12 5
8 12 -5 7 -3 8 5 3 18 -10 -3 -29 -23 -22 -14 6 -13 37 1 37 3 0 3 -7 -1 -15z"/>
<path fill="#000000" stroke="none" d="M26 231 c-3 -5 1 -11 9 -15 8 -3 15 -1
15 4 0 13 -18 22 -24 11z"/>
</g>
</svg>
