<?xml version="1.0" standalone="no"?>
<!DOCTYPE svg PUBLIC "-//W3C//DTD SVG 20010904//EN"
 "http://www.w3.org/TR/2001/REC-SVG-20010904/DTD/svg10.dtd">
<svg version="1.0" xmlns="http://www.w3.org/2000/svg"
 width="32.000000pt" height="32.000000pt" viewBox="0 0 32.000000 32.000000"
 preserveAspectRatio="xMidYMid meet">
<metadata>
Created by potrace 1.16, written by Peter Selinger 2001-2019
</metadata>
<g transform="translate(0.000000,32.000000) scale(0.100000,-0.100000)"
fill="#000000" stroke="none">
<path fill="#000000" stroke="none" d="M50 280 c8 -5 20 -10 25 -10 6 0 3 5
-5 10 -8 5 -19 10 -25 10 -5 0 -3 -5 5 -10z"/>
<path fill="#000000" stroke="none" d="M34 259 c-3 -6 -2 -15 4 -21 6 -6 8
-18 5 -27 -4 -13 -3 -13 5 -2 5 8 11 9 13 3 2 -6 10 -3 18 5 12 14 12 15 0 11
-17 -6 -43 18 -34 32 3 5 4 10 1 10 -3 0 -8 -5 -12 -11z"/>
</g>
</svg>
