<?xml version="1.0" standalone="no"?>
<!DOCTYPE svg PUBLIC "-//W3C//DTD SVG 20010904//EN"
 "http://www.w3.org/TR/2001/REC-SVG-20010904/DTD/svg10.dtd">
<svg version="1.0" xmlns="http://www.w3.org/2000/svg"
 width="32.000000pt" height="32.000000pt" viewBox="0 0 32.000000 32.000000"
 preserveAspectRatio="xMidYMid meet">
<metadata>
Created by potrace 1.16, written by Peter Selinger 2001-2019
</metadata>
<g transform="translate(0.000000,32.000000) scale(0.100000,-0.100000)"
fill="#000000" stroke="none">
<path fill="#000000" stroke="none" d="M51 282 c3 -21 -2 -32 -13 -27 -7 4 -6
0 4 -7 10 -9 13 -19 8 -28 -5 -9 -2 -20 6 -28 13 -11 14 -10 10 12 -3 16 0 26
7 26 7 0 7 4 -2 9 -12 8 -12 13 -3 24 10 12 9 16 -3 20 -8 4 -14 3 -14 -1z"/>
<path fill="#000000" stroke="none" d="M61 114 c0 -11 3 -14 6 -6 3 7 2 16 -1
19 -3 4 -6 -2 -5 -13z"/>
</g>
</svg>
