<?xml version="1.0" standalone="no"?>
<!DOCTYPE svg PUBLIC "-//W3C//DTD SVG 20010904//EN"
 "http://www.w3.org/TR/2001/REC-SVG-20010904/DTD/svg10.dtd">
<svg version="1.0" xmlns="http://www.w3.org/2000/svg"
 width="32.000000pt" height="32.000000pt" viewBox="0 0 32.000000 32.000000"
 preserveAspectRatio="xMidYMid meet">
<metadata>
Created by potrace 1.16, written by Peter Selinger 2001-2019
</metadata>
<g transform="translate(0.000000,32.000000) scale(0.100000,-0.100000)"
fill="#000000" stroke="none">
<path fill="#000000" stroke="none" d="M40 270 c-20 -40 -29 -90 -11 -60 6 8
8 17 5 21 -2 4 3 10 12 13 8 3 13 2 10 -2 -2 -4 -1 -14 5 -22 7 -12 9 -11 9 5
0 12 -6 27 -12 33 -8 8 -9 15 -3 20 6 4 11 13 13 20 4 24 -8 12 -28 -28z"/>
</g>
</svg>
