<?xml version="1.0" standalone="no"?>
<!DOCTYPE svg PUBLIC "-//W3C//DTD SVG 20010904//EN"
 "http://www.w3.org/TR/2001/REC-SVG-20010904/DTD/svg10.dtd">
<svg version="1.0" xmlns="http://www.w3.org/2000/svg"
 width="32.000000pt" height="32.000000pt" viewBox="0 0 32.000000 32.000000"
 preserveAspectRatio="xMidYMid meet">
<metadata>
Created by potrace 1.16, written by Peter Selinger 2001-2019
</metadata>
<g transform="translate(0.000000,32.000000) scale(0.100000,-0.100000)"
fill="#000000" stroke="none">
<path fill="#000000" stroke="none" d="M0 160 l0 -160 160 0 160 0 0 160 0
160 -160 0 -160 0 0 -160z"/>
<path fill="#ffffff" stroke="none" d="M39 235 l-1 -30 -13 35 c-7 19 -14 44
-14 55 0 18 1 17 14 -5 8 -14 14 -38 14 -55z"/>
<path fill="#ffffff" stroke="none" d="M80 255 c0 -24 4 -55 10 -69 9 -25 8
-26 -25 -26 -33 0 -34 1 -25 26 6 14 10 45 10 68 0 23 3 46 6 49 14 14 24 -6
24 -48z"/>
<path fill="#ffffff" stroke="none" d="M262 220 c3 -59 1 -65 -17 -65 -18 0
-20 5 -16 65 2 36 5 69 8 73 11 19 21 -11 25 -73z"/>
<path fill="#ffffff" stroke="none" d="M80 86 c0 -11 -19 -15 -25 -6 -3 5 1
10 9 10 9 0 16 -2 16 -4z"/>
<path fill="#000000" stroke="none" d="M51 184 c0 -11 3 -14 6 -6 3 7 2 16 -1
19 -3 4 -6 -2 -5 -13z"/>
<path fill="#000000" stroke="none" d="M71 184 c0 -11 3 -14 6 -6 3 7 2 16 -1
19 -3 4 -6 -2 -5 -13z"/>
<path fill="#000000" stroke="none" d="M240 249 c0 -24 -3 -54 -6 -66 -5 -17
-2 -23 9 -23 12 0 14 11 10 63 -7 74 -13 87 -13 26z"/>
</g>
</svg>
