<?xml version="1.0" standalone="no"?>
<!DOCTYPE svg PUBLIC "-//W3C//DTD SVG 20010904//EN"
 "http://www.w3.org/TR/2001/REC-SVG-20010904/DTD/svg10.dtd">
<svg version="1.0" xmlns="http://www.w3.org/2000/svg"
 width="32.000000pt" height="32.000000pt" viewBox="0 0 32.000000 32.000000"
 preserveAspectRatio="xMidYMid meet">
<metadata>
Created by potrace 1.16, written by Peter Selinger 2001-2019
</metadata>
<g transform="translate(0.000000,32.000000) scale(0.100000,-0.100000)"
fill="#000000" stroke="none">
<path fill="#000000" stroke="none" d="M11 295 c0 -11 7 -36 14 -55 l13 -35 1
30 c0 17 -6 41 -14 55 -13 22 -14 23 -14 5z"/>
<path fill="#000000" stroke="none" d="M56 303 c-3 -3 -6 -26 -6 -49 0 -23 -4
-54 -10 -68 -9 -25 -8 -26 25 -26 33 0 34 1 25 26 -6 14 -10 45 -10 69 0 42
-10 62 -24 48z"/>
<path fill="#ffffff" stroke="none" d="M57 178 c-3 -8 -6 -5 -6 6 -1 11 2 17
5 13 3 -3 4 -12 1 -19z"/>
<path fill="#ffffff" stroke="none" d="M77 178 c-3 -8 -6 -5 -6 6 -1 11 2 17
5 13 3 -3 4 -12 1 -19z"/>
<path fill="#000000" stroke="none" d="M237 293 c-3 -4 -6 -37 -8 -73 -4 -60
-2 -65 16 -65 18 0 20 6 17 65 -4 62 -14 92 -25 73z"/>
<path fill="#ffffff" stroke="none" d="M253 223 c4 -52 2 -63 -10 -63 -11 0
-14 6 -9 23 3 12 6 42 6 66 0 61 6 48 13 -26z"/>
<path fill="#000000" stroke="none" d="M55 80 c4 -6 11 -8 16 -5 14 9 11 15
-7 15 -8 0 -12 -5 -9 -10z"/>
</g>
</svg>
