<?xml version="1.0" standalone="no"?>
<!DOCTYPE svg PUBLIC "-//W3C//DTD SVG 20010904//EN"
 "http://www.w3.org/TR/2001/REC-SVG-20010904/DTD/svg10.dtd">
<svg version="1.0" xmlns="http://www.w3.org/2000/svg"
 width="32.000000pt" height="32.000000pt" viewBox="0 0 32.000000 32.000000"
 preserveAspectRatio="xMidYMid meet">
<metadata>
Created by potrace 1.16, written by Peter Selinger 2001-2019
</metadata>
<g transform="translate(0.000000,32.000000) scale(0.100000,-0.100000)"
fill="#000000" stroke="none">
<path fill="#000000" stroke="none" d="M46 273 c-14 -19 -15 -27 -7 -36 9 -9
11 -8 6 4 -4 10 -2 20 4 24 7 4 12 -12 13 -47 l1 -53 6 55 c4 33 9 50 14 43 5
-7 5 -19 1 -25 -5 -10 -4 -10 6 -1 10 9 9 16 -6 36 l-19 24 -19 -24z"/>
<path fill="#000000" stroke="none" d="M63 65 c0 -33 2 -45 4 -27 2 18 2 45 0
60 -2 15 -4 0 -4 -33z"/>
</g>
</svg>
