<?xml version="1.0" standalone="no"?>
<!DOCTYPE svg PUBLIC "-//W3C//DTD SVG 20010904//EN"
 "http://www.w3.org/TR/2001/REC-SVG-20010904/DTD/svg10.dtd">
<svg version="1.0" xmlns="http://www.w3.org/2000/svg"
 width="32.000000pt" height="32.000000pt" viewBox="0 0 32.000000 32.000000"
 preserveAspectRatio="xMidYMid meet">
<metadata>
Created by potrace 1.16, written by Peter Selinger 2001-2019
</metadata>
<g transform="translate(0.000000,32.000000) scale(0.100000,-0.100000)"
fill="#000000" stroke="none">
<path fill="#000000" stroke="none" d="M0 160 l0 -160 160 0 160 0 0 160 0
160 -160 0 -160 0 0 -160z"/>
<path fill="#ffffff" stroke="none" d="M39 235 l-1 -30 -13 35 c-7 19 -14 44
-14 55 0 18 1 17 14 -5 8 -14 14 -38 14 -55z"/>
<path fill="#ffffff" stroke="none" d="M83 213 c1 -45 6 -85 10 -89 10 -11 9
-24 -3 -24 -5 0 -11 8 -11 18 -1 9 -5 4 -10 -13 -8 -29 -8 -29 -6 7 2 23 -2
39 -10 42 -9 4 -11 22 -7 68 7 78 12 94 24 82 5 -5 11 -46 13 -91z"/>
<path fill="#ffffff" stroke="none" d="M263 218 c6 -67 0 -81 -30 -71 -9 3
-11 22 -7 66 10 113 28 116 37 5z"/>
<path fill="#ffffff" stroke="none" d="M247 83 c-3 -10 -5 -2 -5 17 0 19 2 27
5 18 2 -10 2 -26 0 -35z"/>
<path fill="#ffffff" stroke="none" d="M67 23 c-3 -10 -5 -2 -5 17 0 19 2 27
5 18 2 -10 2 -26 0 -35z"/>
</g>
</svg>
