<?xml version="1.0" standalone="no"?>
<!DOCTYPE svg PUBLIC "-//W3C//DTD SVG 20010904//EN"
 "http://www.w3.org/TR/2001/REC-SVG-20010904/DTD/svg10.dtd">
<svg version="1.0" xmlns="http://www.w3.org/2000/svg"
 width="32.000000pt" height="32.000000pt" viewBox="0 0 32.000000 32.000000"
 preserveAspectRatio="xMidYMid meet">
<metadata>
Created by potrace 1.16, written by Peter Selinger 2001-2019
</metadata>
<g transform="translate(0.000000,32.000000) scale(0.100000,-0.100000)"
fill="#000000" stroke="none">
<path fill="#000000" stroke="none" d="M0 248 c0 -79 9 -104 34 -95 9 4 16 4
16 1 0 -2 -11 -9 -25 -14 -23 -9 -25 -14 -25 -75 l0 -65 160 0 160 0 0 160 0
160 -160 0 -160 0 0 -72z"/>
<path fill="#ffffff" stroke="none" d="M79 193 c0 -11 -3 -13 -6 -6 -4 10 -10
10 -26 -2 -12 -8 -26 -15 -32 -15 -11 0 45 38 58 39 4 1 7 -7 6 -16z"/>
</g>
</svg>
