<?xml version="1.0" standalone="no"?>
<!DOCTYPE svg PUBLIC "-//W3C//DTD SVG 20010904//EN"
 "http://www.w3.org/TR/2001/REC-SVG-20010904/DTD/svg10.dtd">
<svg version="1.0" xmlns="http://www.w3.org/2000/svg"
 width="32.000000pt" height="32.000000pt" viewBox="0 0 32.000000 32.000000"
 preserveAspectRatio="xMidYMid meet">
<metadata>
Created by potrace 1.16, written by Peter Selinger 2001-2019
</metadata>
<g transform="translate(0.000000,32.000000) scale(0.100000,-0.100000)"
fill="#000000" stroke="none">
<path fill="#000000" stroke="none" d="M2 243 c2 -44 8 -78 14 -80 6 -2 22 6
35 17 l24 22 -25 -16 c-13 -9 -29 -16 -35 -16 -5 0 5 9 23 20 18 11 35 20 37
20 3 0 5 -18 5 -40 0 -22 -3 -39 -7 -39 -5 1 -23 1 -40 0 l-33 -1 0 -65 0 -65
160 0 160 0 0 160 0 160 -160 0 -161 0 3 -77z"/>
</g>
</svg>
