<?xml version="1.0" standalone="no"?>
<!DOCTYPE svg PUBLIC "-//W3C//DTD SVG 20010904//EN"
 "http://www.w3.org/TR/2001/REC-SVG-20010904/DTD/svg10.dtd">
<svg version="1.0" xmlns="http://www.w3.org/2000/svg"
 width="32.000000pt" height="32.000000pt" viewBox="0 0 32.000000 32.000000"
 preserveAspectRatio="xMidYMid meet">
<metadata>
Created by potrace 1.16, written by Peter Selinger 2001-2019
</metadata>
<g transform="translate(0.000000,32.000000) scale(0.100000,-0.100000)"
fill="#000000" stroke="none">
<path fill="#000000" stroke="none" d="M37 303 c-4 -6 0 -24 8 -39 20 -39 20
-169 0 -208 -11 -20 -12 -33 -5 -40 7 -7 10 -6 10 2 0 7 7 12 15 12 8 0 15 -5
15 -12 0 -8 3 -9 10 -2 7 7 6 20 -5 40 -20 39 -20 169 0 208 11 20 12 33 5 40
-7 7 -10 6 -10 -2 0 -16 -27 -16 -32 0 -3 8 -6 9 -11 1z"/>
</g>
</svg>
