<?xml version="1.0" standalone="no"?>
<!DOCTYPE svg PUBLIC "-//W3C//DTD SVG 20010904//EN"
 "http://www.w3.org/TR/2001/REC-SVG-20010904/DTD/svg10.dtd">
<svg version="1.0" xmlns="http://www.w3.org/2000/svg"
 width="32.000000pt" height="32.000000pt" viewBox="0 0 32.000000 32.000000"
 preserveAspectRatio="xMidYMid meet">
<metadata>
Created by potrace 1.16, written by Peter Selinger 2001-2019
</metadata>
<g transform="translate(0.000000,32.000000) scale(0.100000,-0.100000)"
fill="#000000" stroke="none">
<path fill="#000000" stroke="none" d="M36 301 c-5 -7 -1 -19 7 -29 9 -9 17
-33 20 -52 l4 -35 1 34 c1 19 10 43 19 53 13 14 14 21 5 30 -9 9 -12 9 -12 0
0 -16 -27 -16 -32 0 -3 9 -6 9 -12 -1z"/>
<path fill="#000000" stroke="none" d="M61 164 c0 -11 3 -14 6 -6 3 7 2 16 -1
19 -3 4 -6 -2 -5 -13z"/>
<path fill="#000000" stroke="none" d="M62 106 c-1 -22 -10 -48 -19 -58 -13
-14 -14 -21 -5 -30 9 -9 12 -9 12 0 0 7 7 12 15 12 8 0 15 -5 15 -12 0 -9 3
-9 12 0 9 9 8 16 -4 29 -9 10 -18 36 -21 58 l-4 40 -1 -39z"/>
</g>
</svg>
