<?xml version="1.0" standalone="no"?>
<!DOCTYPE svg PUBLIC "-//W3C//DTD SVG 20010904//EN"
 "http://www.w3.org/TR/2001/REC-SVG-20010904/DTD/svg10.dtd">
<svg version="1.0" xmlns="http://www.w3.org/2000/svg"
 width="32.000000pt" height="32.000000pt" viewBox="0 0 32.000000 32.000000"
 preserveAspectRatio="xMidYMid meet">
<metadata>
Created by potrace 1.16, written by Peter Selinger 2001-2019
</metadata>
<g transform="translate(0.000000,32.000000) scale(0.100000,-0.100000)"
fill="#000000" stroke="none">
<path fill="#000000" stroke="none" d="M0 160 l0 -160 160 0 160 0 0 160 0
160 -160 0 -160 0 0 -160z"/>
<path fill="#ffffff" stroke="none" d="M45 300 c-4 -6 5 -10 20 -10 18 0 24 4
19 13 -5 9 -4 9 6 0 7 -6 10 -16 6 -21 -7 -12 -54 -13 -62 -1 -5 9 3 29 12 29
3 0 2 -4 -1 -10z"/>
<path fill="#ffffff" stroke="none" d="M96 38 c4 -5 1 -15 -6 -21 -10 -9 -11
-9 -6 1 5 8 -1 12 -19 12 -18 0 -24 -4 -19 -12 5 -10 4 -10 -6 -1 -7 6 -10 16
-6 21 7 12 55 12 62 0z"/>
</g>
</svg>
