<?xml version="1.0" standalone="no"?>
<!DOCTYPE svg PUBLIC "-//W3C//DTD SVG 20010904//EN"
 "http://www.w3.org/TR/2001/REC-SVG-20010904/DTD/svg10.dtd">
<svg version="1.0" xmlns="http://www.w3.org/2000/svg"
 width="32.000000pt" height="32.000000pt" viewBox="0 0 32.000000 32.000000"
 preserveAspectRatio="xMidYMid meet">
<metadata>
Created by potrace 1.16, written by Peter Selinger 2001-2019
</metadata>
<g transform="translate(0.000000,32.000000) scale(0.100000,-0.100000)"
fill="#000000" stroke="none">
<path fill="#000000" stroke="none" d="M41 238 c1 -24 -1 -50 -4 -58 -5 -13
-5 -50 1 -127 2 -19 8 -23 37 -23 l35 0 0 125 0 125 -36 0 c-35 0 -36 0 -33
-42z"/>
<path fill="#ffffff" stroke="none" d="M90 196 c0 -6 -4 -5 -9 3 -7 11 -9 11
-14 0 -2 -8 -4 -2 -3 14 1 24 2 25 14 10 6 -9 12 -22 12 -27z"/>
<path fill="#ffffff" stroke="none" d="M60 148 c0 -19 -16 -5 -17 14 -2 18 0
20 7 8 5 -8 10 -18 10 -22z"/>
</g>
</svg>
