<?xml version="1.0" standalone="no"?>
<!DOCTYPE svg PUBLIC "-//W3C//DTD SVG 20010904//EN"
 "http://www.w3.org/TR/2001/REC-SVG-20010904/DTD/svg10.dtd">
<svg version="1.0" xmlns="http://www.w3.org/2000/svg"
 width="32.000000pt" height="32.000000pt" viewBox="0 0 32.000000 32.000000"
 preserveAspectRatio="xMidYMid meet">
<metadata>
Created by potrace 1.16, written by Peter Selinger 2001-2019
</metadata>
<g transform="translate(0.000000,32.000000) scale(0.100000,-0.100000)"
fill="#000000" stroke="none">
<path fill="#000000" stroke="none" d="M0 160 l0 -160 160 0 160 0 0 160 0
160 -160 0 -160 0 0 -160z"/>
<path fill="#ffffff" stroke="none" d="M99 265 c10 3 8 -2 -5 -13 -20 -17 -22
-29 -22 -121 -1 -57 -3 -106 -6 -109 -6 -6 -9 54 -7 147 1 49 0 53 -16 40 -17
-12 -17 -12 -1 6 16 17 15 19 -5 36 -15 13 -17 17 -5 13 11 -4 19 2 24 18 l7
23 10 -23 c7 -15 16 -21 26 -17z"/>
</g>
</svg>
