<?xml version="1.0" standalone="no"?>
<!DOCTYPE svg PUBLIC "-//W3C//DTD SVG 20010904//EN"
 "http://www.w3.org/TR/2001/REC-SVG-20010904/DTD/svg10.dtd">
<svg version="1.0" xmlns="http://www.w3.org/2000/svg"
 width="32.000000pt" height="32.000000pt" viewBox="0 0 32.000000 32.000000"
 preserveAspectRatio="xMidYMid meet">
<metadata>
Created by potrace 1.16, written by Peter Selinger 2001-2019
</metadata>
<g transform="translate(0.000000,32.000000) scale(0.100000,-0.100000)"
fill="#000000" stroke="none">
<path fill="#000000" stroke="none" d="M0 160 l0 -160 160 0 160 0 0 160 0
160 -160 0 -160 0 0 -160z"/>
<path fill="#ffffff" stroke="none" d="M95 274 c6 2 12 -2 12 -9 0 -8 -3 -14
-6 -13 -29 3 -33 -3 -15 -24 15 -18 16 -20 2 -9 -17 12 -18 9 -16 -53 1 -36
-1 -69 -5 -72 -8 -9 -10 3 -8 80 1 55 0 58 -16 45 -15 -11 -15 -10 1 9 18 21
14 27 -15 24 -3 -1 -6 5 -6 13 0 7 6 11 13 8 7 -2 16 6 20 19 l7 23 10 -23 c6
-13 16 -21 22 -18z"/>
<path fill="#ffffff" stroke="none" d="M67 48 c-3 -7 -5 -2 -5 12 0 14 2 19 5
13 2 -7 2 -19 0 -25z"/>
<path fill="#ffffff" stroke="none" d="M78 22 c-8 -9 -14 -9 -24 -1 -18 15
-18 14 10 14 18 0 22 -3 14 -13z"/>
</g>
</svg>
