<?xml version="1.0" standalone="no"?>
<!DOCTYPE svg PUBLIC "-//W3C//DTD SVG 20010904//EN"
 "http://www.w3.org/TR/2001/REC-SVG-20010904/DTD/svg10.dtd">
<svg version="1.0" xmlns="http://www.w3.org/2000/svg"
 width="32.000000pt" height="32.000000pt" viewBox="0 0 32.000000 32.000000"
 preserveAspectRatio="xMidYMid meet">
<metadata>
Created by potrace 1.16, written by Peter Selinger 2001-2019
</metadata>
<g transform="translate(0.000000,32.000000) scale(0.100000,-0.100000)"
fill="#000000" stroke="none">
<path fill="#000000" stroke="none" d="M40 271 c0 -25 5 -59 12 -78 l12 -33
13 31 c13 32 18 128 6 115 -4 -4 -10 -28 -14 -54 l-6 -47 -2 40 c-2 59 -21 82
-21 26z"/>
<path fill="#000000" stroke="none" d="M59 72 c-2 -38 0 -62 6 -62 6 0 9 20 7
48 -5 77 -8 81 -13 14z"/>
</g>
</svg>
