<?xml version="1.0" standalone="no"?>
<!DOCTYPE svg PUBLIC "-//W3C//DTD SVG 20010904//EN"
 "http://www.w3.org/TR/2001/REC-SVG-20010904/DTD/svg10.dtd">
<svg version="1.0" xmlns="http://www.w3.org/2000/svg"
 width="32.000000pt" height="32.000000pt" viewBox="0 0 32.000000 32.000000"
 preserveAspectRatio="xMidYMid meet">
<metadata>
Created by potrace 1.16, written by Peter Selinger 2001-2019
</metadata>
<g transform="translate(0.000000,32.000000) scale(0.100000,-0.100000)"
fill="#000000" stroke="none">
<path fill="#000000" stroke="none" d="M62 248 c-1 -23 -7 -38 -14 -38 -9 0
-10 -2 -2 -8 7 -4 14 -16 17 -27 4 -18 5 -18 6 3 0 12 7 22 14 22 9 0 9 2 0 8
-6 4 -13 23 -16 42 l-4 35 -1 -37z"/>
<path fill="#000000" stroke="none" d="M63 70 c0 -36 2 -50 4 -32 2 17 2 47 0
65 -2 17 -4 3 -4 -33z"/>
</g>
</svg>
