<?xml version="1.0" standalone="no"?>
<!DOCTYPE svg PUBLIC "-//W3C//DTD SVG 20010904//EN"
 "http://www.w3.org/TR/2001/REC-SVG-20010904/DTD/svg10.dtd">
<svg version="1.0" xmlns="http://www.w3.org/2000/svg"
 width="32.000000pt" height="32.000000pt" viewBox="0 0 32.000000 32.000000"
 preserveAspectRatio="xMidYMid meet">
<metadata>
Created by potrace 1.16, written by Peter Selinger 2001-2019
</metadata>
<g transform="translate(0.000000,32.000000) scale(0.100000,-0.100000)"
fill="#000000" stroke="none">
<path fill="#000000" stroke="none" d="M41 282 c0 -7 4 -33 10 -58 9 -33 9
-48 -1 -59 -14 -17 0 -47 24 -51 9 -1 14 2 10 7 -3 5 -9 7 -14 4 -4 -3 -11 2
-14 11 -8 22 -8 24 8 24 8 0 18 5 22 12 4 6 3 8 -3 5 -13 -8 -24 43 -18 86 4
27 3 28 -4 7 l-8 -25 -5 25 c-3 14 -6 19 -7 12z"/>
</g>
</svg>
