<?xml version="1.0" standalone="no"?>
<!DOCTYPE svg PUBLIC "-//W3C//DTD SVG 20010904//EN"
 "http://www.w3.org/TR/2001/REC-SVG-20010904/DTD/svg10.dtd">
<svg version="1.0" xmlns="http://www.w3.org/2000/svg"
 width="32.000000pt" height="32.000000pt" viewBox="0 0 32.000000 32.000000"
 preserveAspectRatio="xMidYMid meet">
<metadata>
Created by potrace 1.16, written by Peter Selinger 2001-2019
</metadata>
<g transform="translate(0.000000,32.000000) scale(0.100000,-0.100000)"
fill="#000000" stroke="none">
<path fill="#000000" stroke="none" d="M2 161 l0 -159 159 -1 159 -2 0 161 0
160 -160 0 -159 0 1 -159z"/>
<path fill="#ffffff" stroke="none" d="M66 195 c9 -14 14 -28 10 -32 -3 -3 -6
0 -6 8 0 12 -2 11 -10 -1 -8 -12 -10 -9 -8 10 2 17 -2 25 -12 25 -9 0 -16 -10
-16 -23 -1 -18 -1 -19 3 -2 2 11 9 20 15 20 6 0 7 -7 3 -17 -16 -40 -16 -54
-1 -100 17 -48 12 -64 -19 -69 -13 -2 -14 1 -5 11 7 8 9 19 5 26 -4 6 -9 41
-10 78 -4 89 18 116 51 66z"/>
<path fill="#000000" stroke="none" d="M26 85 c4 -16 7 -38 8 -47 0 -10 4 -14
8 -10 5 5 1 26 -7 48 -11 28 -13 31 -9 9z"/>
</g>
</svg>
