<?xml version="1.0" standalone="no"?>
<!DOCTYPE svg PUBLIC "-//W3C//DTD SVG 20010904//EN"
 "http://www.w3.org/TR/2001/REC-SVG-20010904/DTD/svg10.dtd">
<svg version="1.0" xmlns="http://www.w3.org/2000/svg"
 width="32.000000pt" height="32.000000pt" viewBox="0 0 32.000000 32.000000"
 preserveAspectRatio="xMidYMid meet">
<metadata>
Created by potrace 1.16, written by Peter Selinger 2001-2019
</metadata>
<g transform="translate(0.000000,32.000000) scale(0.100000,-0.100000)"
fill="#000000" stroke="none">
<path fill="#000000" stroke="none" d="M0 160 l0 -160 160 0 160 0 0 160 0
160 -160 0 -160 0 0 -160z"/>
<path fill="#ffffff" stroke="none" d="M62 301 c3 9 6 8 11 -5 4 -9 3 -15 -3
-11 -5 3 -18 -4 -29 -16 -14 -16 -17 -27 -11 -43 4 -11 13 -20 19 -19 6 2 8
-4 5 -11 -3 -9 2 -16 13 -18 16 -3 15 -5 -6 -17 -14 -8 -21 -9 -17 -2 4 6 -2
23 -13 37 -25 32 -27 62 -5 93 12 16 19 19 24 11 6 -9 9 -9 12 1z"/>
</g>
</svg>
