<?xml version="1.0" standalone="no"?>
<!DOCTYPE svg PUBLIC "-//W3C//DTD SVG 20010904//EN"
 "http://www.w3.org/TR/2001/REC-SVG-20010904/DTD/svg10.dtd">
<svg version="1.0" xmlns="http://www.w3.org/2000/svg"
 width="32.000000pt" height="32.000000pt" viewBox="0 0 32.000000 32.000000"
 preserveAspectRatio="xMidYMid meet">
<metadata>
Created by potrace 1.16, written by Peter Selinger 2001-2019
</metadata>
<g transform="translate(0.000000,32.000000) scale(0.100000,-0.100000)"
fill="#000000" stroke="none">
<path fill="#000000" stroke="none" d="M24 302 c-9 -5 -6 -26 11 -77 13 -38
23 -65 24 -59 1 6 -6 31 -14 54 -20 57 -9 71 53 64 46 -5 46 -5 22 10 -27 16
-77 21 -96 8z"/>
<path fill="#000000" stroke="none" d="M61 120 c0 -8 6 -37 13 -65 8 -27 15
-43 15 -35 0 8 -6 38 -13 65 -8 28 -15 43 -15 35z"/>
</g>
</svg>
