<?xml version="1.0" standalone="no"?>
<!DOCTYPE svg PUBLIC "-//W3C//DTD SVG 20010904//EN"
 "http://www.w3.org/TR/2001/REC-SVG-20010904/DTD/svg10.dtd">
<svg version="1.0" xmlns="http://www.w3.org/2000/svg"
 width="32.000000pt" height="32.000000pt" viewBox="0 0 32.000000 32.000000"
 preserveAspectRatio="xMidYMid meet">
<metadata>
Created by potrace 1.16, written by Peter Selinger 2001-2019
</metadata>
<g transform="translate(0.000000,32.000000) scale(0.100000,-0.100000)"
fill="#000000" stroke="none">
<path fill="#000000" stroke="none" d="M0 160 l0 -160 160 0 160 0 0 160 0
160 -160 0 -160 0 0 -160z"/>
<path fill="#ffffff" stroke="none" d="M65 214 c-9 -18 -15 -23 -15 -12 0 9 5
20 11 23 6 4 8 14 4 24 -4 11 -3 13 5 5 8 -8 6 -19 -5 -40z"/>
<path fill="#ffffff" stroke="none" d="M74 60 c10 -13 9 -13 -6 -1 -10 7 -18
21 -17 30 0 13 1 14 6 1 3 -8 11 -22 17 -30z"/>
</g>
</svg>
