<?xml version="1.0" standalone="no"?>
<!DOCTYPE svg PUBLIC "-//W3C//DTD SVG 20010904//EN"
 "http://www.w3.org/TR/2001/REC-SVG-20010904/DTD/svg10.dtd">
<svg version="1.0" xmlns="http://www.w3.org/2000/svg"
 width="32.000000pt" height="32.000000pt" viewBox="0 0 32.000000 32.000000"
 preserveAspectRatio="xMidYMid meet">
<metadata>
Created by potrace 1.16, written by Peter Selinger 2001-2019
</metadata>
<g transform="translate(0.000000,32.000000) scale(0.100000,-0.100000)"
fill="#000000" stroke="none">
<path fill="#000000" stroke="none" d="M13 285 c-6 -17 23 -55 41 -55 6 0 0 7
-12 16 -24 17 -29 40 -9 47 9 4 9 6 -1 6 -7 1 -15 -6 -19 -14z"/>
<path fill="#000000" stroke="none" d="M71 233 c0 -12 -4 -30 -7 -40 -5 -17
-5 -17 6 0 6 10 9 28 7 40 -4 22 -4 22 -6 0z"/>
<path fill="#000000" stroke="none" d="M50 91 c-9 -22 -9 -34 0 -48 10 -16 10
-16 5 4 -3 12 -1 32 5 43 7 12 10 24 7 26 -2 3 -10 -9 -17 -25z"/>
</g>
</svg>
