<?xml version="1.0" standalone="no"?>
<!DOCTYPE svg PUBLIC "-//W3C//DTD SVG 20010904//EN"
 "http://www.w3.org/TR/2001/REC-SVG-20010904/DTD/svg10.dtd">
<svg version="1.0" xmlns="http://www.w3.org/2000/svg"
 width="32.000000pt" height="32.000000pt" viewBox="0 0 32.000000 32.000000"
 preserveAspectRatio="xMidYMid meet">
<metadata>
Created by potrace 1.16, written by Peter Selinger 2001-2019
</metadata>
<g transform="translate(0.000000,32.000000) scale(0.100000,-0.100000)"
fill="#000000" stroke="none">
<path fill="#000000" stroke="none" d="M42 278 c-8 -8 -9 -15 0 -25 6 -7 14
-28 19 -46 8 -31 8 -31 4 -2 -2 17 -5 39 -7 50 -2 13 4 21 17 23 18 4 18 3 5
-14 -14 -17 -14 -18 2 -5 10 7 15 17 12 22 -8 13 -38 11 -52 -3z"/>
<path fill="#000000" stroke="none" d="M63 60 c0 -30 2 -43 4 -28 2 16 2 40 0
55 -2 16 -4 3 -4 -27z"/>
</g>
</svg>
