<?xml version="1.0" standalone="no"?>
<!DOCTYPE svg PUBLIC "-//W3C//DTD SVG 20010904//EN"
 "http://www.w3.org/TR/2001/REC-SVG-20010904/DTD/svg10.dtd">
<svg version="1.0" xmlns="http://www.w3.org/2000/svg"
 width="32.000000pt" height="32.000000pt" viewBox="0 0 32.000000 32.000000"
 preserveAspectRatio="xMidYMid meet">
<metadata>
Created by potrace 1.16, written by Peter Selinger 2001-2019
</metadata>
<g transform="translate(0.000000,32.000000) scale(0.100000,-0.100000)"
fill="#000000" stroke="none">
<path fill="#000000" stroke="none" d="M45 300 c-3 -5 -8 -38 -12 -72 -4 -50
-2 -66 9 -76 21 -17 48 -5 49 22 1 11 3 43 5 71 3 48 -5 64 -33 65 -6 0 -14
-4 -18 -10z"/>
<path fill="#ffffff" stroke="none" d="M85 252 c0 -22 -4 -38 -9 -35 -5 3 -7
-8 -4 -26 5 -35 3 -37 -18 -16 -10 10 -11 15 -3 15 9 0 9 3 -1 15 -8 9 -9 25
-4 47 4 18 7 36 6 40 -1 3 6 5 16 4 13 -2 17 -13 17 -44z"/>
<path fill="#000000" stroke="none" d="M67 273 c-2 -10 -8 -26 -12 -35 -4 -10
-3 -18 3 -18 5 0 12 14 16 32 7 34 2 50 -7 21z"/>
<path fill="#000000" stroke="none" d="M46 84 c-8 -63 -8 -84 3 -84 4 0 6 10
4 22 -2 13 0 41 5 63 l8 40 5 -32 c3 -18 2 -30 -3 -27 -4 3 -8 -8 -8 -25 0
-53 18 -43 26 15 5 43 3 58 -7 65 -23 14 -26 11 -33 -37z"/>
</g>
</svg>
