<?xml version="1.0" standalone="no"?>
<!DOCTYPE svg PUBLIC "-//W3C//DTD SVG 20010904//EN"
 "http://www.w3.org/TR/2001/REC-SVG-20010904/DTD/svg10.dtd">
<svg version="1.0" xmlns="http://www.w3.org/2000/svg"
 width="32.000000pt" height="32.000000pt" viewBox="0 0 32.000000 32.000000"
 preserveAspectRatio="xMidYMid meet">
<metadata>
Created by potrace 1.16, written by Peter Selinger 2001-2019
</metadata>
<g transform="translate(0.000000,32.000000) scale(0.100000,-0.100000)"
fill="#000000" stroke="none">
<path fill="#000000" stroke="none" d="M0 160 l0 -160 160 0 160 0 0 160 0
160 -160 0 -160 0 0 -160z"/>
<path fill="#ffffff" stroke="none" d="M78 290 c26 -24 26 -26 10 -85 -14 -51
-33 -62 -24 -12 5 27 2 34 -16 42 -12 6 -26 18 -32 28 -9 14 -7 21 8 33 25 18
28 18 54 -6z"/>
<path fill="#ffffff" stroke="none" d="M73 108 c-4 -13 -8 -40 -7 -61 0 -38 0
-38 -14 -12 -11 21 -11 32 -1 60 7 19 17 35 22 35 4 0 5 -10 0 -22z"/>
<path fill="#000000" stroke="none" d="M45 250 c-3 -6 1 -7 9 -4 18 7 21 14 7
14 -6 0 -13 -4 -16 -10z"/>
</g>
</svg>
