<?xml version="1.0" standalone="no"?>
<!DOCTYPE svg PUBLIC "-//W3C//DTD SVG 20010904//EN"
 "http://www.w3.org/TR/2001/REC-SVG-20010904/DTD/svg10.dtd">
<svg version="1.0" xmlns="http://www.w3.org/2000/svg"
 width="32.000000pt" height="32.000000pt" viewBox="0 0 32.000000 32.000000"
 preserveAspectRatio="xMidYMid meet">
<metadata>
Created by potrace 1.16, written by Peter Selinger 2001-2019
</metadata>
<g transform="translate(0.000000,32.000000) scale(0.100000,-0.100000)"
fill="#000000" stroke="none">
<path fill="#000000" stroke="none" d="M0 160 c0 -150 1 -160 19 -160 16 0 20
10 26 65 7 66 10 71 34 56 10 -7 12 -22 7 -65 l-7 -56 120 0 121 0 0 160 0
160 -160 0 -160 0 0 -160z"/>
<path fill="#ffffff" stroke="none" d="M84 304 c27 -10 17 -148 -11 -159 -33
-12 -46 16 -40 83 8 83 13 90 51 76z"/>
<path fill="#000000" stroke="none" d="M76 287 c3 -10 9 -15 12 -12 3 3 0 11
-7 18 -10 9 -11 8 -5 -6z"/>
<path fill="#000000" stroke="none" d="M50 271 c0 -5 7 -11 14 -14 10 -4 13
-1 9 9 -6 15 -23 19 -23 5z"/>
<path fill="#000000" stroke="none" d="M41 239 c-1 -9 7 -23 17 -30 15 -12 16
-12 6 1 -6 8 -14 22 -17 30 -5 13 -6 12 -6 -1z"/>
<path fill="#000000" stroke="none" d="M40 186 c0 -2 7 -7 16 -10 8 -3 12 -2
9 4 -6 10 -25 14 -25 6z"/>
<path fill="#000000" stroke="none" d="M53 65 c-3 -9 -3 -18 -1 -21 3 -3 8 4
11 16 6 23 -1 27 -10 5z"/>
</g>
</svg>
