<?xml version="1.0" standalone="no"?>
<!DOCTYPE svg PUBLIC "-//W3C//DTD SVG 20010904//EN"
 "http://www.w3.org/TR/2001/REC-SVG-20010904/DTD/svg10.dtd">
<svg version="1.0" xmlns="http://www.w3.org/2000/svg"
 width="32.000000pt" height="32.000000pt" viewBox="0 0 32.000000 32.000000"
 preserveAspectRatio="xMidYMid meet">
<metadata>
Created by potrace 1.16, written by Peter Selinger 2001-2019
</metadata>
<g transform="translate(0.000000,32.000000) scale(0.100000,-0.100000)"
fill="#000000" stroke="none">
<path fill="#000000" stroke="none" d="M53 303 c-3 -10 -13 -26 -21 -35 -13
-15 -13 -21 2 -52 9 -19 16 -43 16 -55 0 -12 3 -21 8 -21 17 1 29 18 41 62 12
42 11 52 -3 83 -19 38 -33 45 -43 18z"/>
<path fill="#ffffff" stroke="none" d="M92 256 c4 4 2 -4 -4 -18 -15 -31 -31
-31 -45 -1 -6 13 -7 21 -3 18 5 -3 12 9 16 27 l7 33 11 -33 c6 -18 15 -30 18
-26z"/>
<path fill="#000000" stroke="none" d="M56 238 c3 -5 10 -6 15 -3 13 9 11 12
-6 12 -8 0 -12 -4 -9 -9z"/>
<path fill="#000000" stroke="none" d="M50 65 c0 -58 2 -65 20 -65 18 0 20 7
20 59 0 55 -8 71 -36 71 -2 0 -4 -29 -4 -65z"/>
<path fill="#ffffff" stroke="none" d="M67 53 c-3 -10 -5 -4 -5 12 0 17 2 24
5 18 2 -7 2 -21 0 -30z"/>
</g>
</svg>
