<?xml version="1.0" standalone="no"?>
<!DOCTYPE svg PUBLIC "-//W3C//DTD SVG 20010904//EN"
 "http://www.w3.org/TR/2001/REC-SVG-20010904/DTD/svg10.dtd">
<svg version="1.0" xmlns="http://www.w3.org/2000/svg"
 width="32.000000pt" height="32.000000pt" viewBox="0 0 32.000000 32.000000"
 preserveAspectRatio="xMidYMid meet">
<metadata>
Created by potrace 1.16, written by Peter Selinger 2001-2019
</metadata>
<g transform="translate(0.000000,32.000000) scale(0.100000,-0.100000)"
fill="#000000" stroke="none">
<path fill="#000000" stroke="none" d="M42 278 c-9 -9 -9 -15 0 -26 7 -7 15
-32 19 -55 l8 -42 -4 40 c-2 22 -5 49 -7 59 -1 10 3 21 11 24 10 3 12 0 7 -13
-5 -15 -4 -16 9 -5 8 7 12 16 9 21 -8 13 -38 11 -52 -3z"/>
<path fill="#000000" stroke="none" d="M63 70 c0 -36 2 -50 4 -32 2 17 2 47 0
65 -2 17 -4 3 -4 -33z"/>
</g>
</svg>
