<?xml version="1.0" standalone="no"?>
<!DOCTYPE svg PUBLIC "-//W3C//DTD SVG 20010904//EN"
 "http://www.w3.org/TR/2001/REC-SVG-20010904/DTD/svg10.dtd">
<svg version="1.0" xmlns="http://www.w3.org/2000/svg"
 width="32.000000pt" height="32.000000pt" viewBox="0 0 32.000000 32.000000"
 preserveAspectRatio="xMidYMid meet">
<metadata>
Created by potrace 1.16, written by Peter Selinger 2001-2019
</metadata>
<g transform="translate(0.000000,32.000000) scale(0.100000,-0.100000)"
fill="#000000" stroke="none">
<path fill="#000000" stroke="none" d="M14 285 c-4 -10 1 -25 14 -38 22 -22
40 -18 26 5 -12 18 -14 38 -4 38 13 0 22 -54 16 -97 l-5 -38 10 38 c15 52 1
101 -29 105 -13 2 -25 -3 -28 -13z"/>
<path fill="#ffffff" stroke="none" d="M44 250 c10 -13 9 -13 -6 -1 -10 7 -18
21 -17 30 0 13 1 14 6 1 3 -8 11 -22 17 -30z"/>
<path fill="#000000" stroke="none" d="M51 95 c-10 -29 -10 -39 3 -62 8 -15
15 -24 16 -20 0 5 -4 17 -10 27 -6 12 -6 28 1 50 6 17 9 33 7 35 -2 3 -10 -11
-17 -30z"/>
</g>
</svg>
