<?xml version="1.0" standalone="no"?>
<!DOCTYPE svg PUBLIC "-//W3C//DTD SVG 20010904//EN"
 "http://www.w3.org/TR/2001/REC-SVG-20010904/DTD/svg10.dtd">
<svg version="1.0" xmlns="http://www.w3.org/2000/svg"
 width="32.000000pt" height="32.000000pt" viewBox="0 0 32.000000 32.000000"
 preserveAspectRatio="xMidYMid meet">
<metadata>
Created by potrace 1.16, written by Peter Selinger 2001-2019
</metadata>
<g transform="translate(0.000000,32.000000) scale(0.100000,-0.100000)"
fill="#000000" stroke="none">
<path fill="#000000" stroke="none" d="M0 160 l0 -160 160 0 160 0 0 160 0
160 -160 0 -160 0 0 -160z"/>
<path fill="#ffffff" stroke="none" d="M77 250 c4 -12 7 -11 13 5 8 18 9 18 9
-5 1 -23 -3 -26 -34 -26 -31 0 -35 3 -34 26 1 17 3 19 6 7 6 -25 23 -11 24 21
1 20 2 22 6 7 2 -11 7 -27 10 -35z"/>
<path fill="#ffffff" stroke="none" d="M67 173 c-3 -10 -5 -4 -5 12 0 17 2 24
5 18 2 -7 2 -21 0 -30z"/>
<path fill="#ffffff" stroke="none" d="M67 52 c-2 -15 -4 -2 -4 28 0 30 2 43
4 27 2 -15 2 -39 0 -55z"/>
</g>
</svg>
