<?xml version="1.0" standalone="no"?>
<!DOCTYPE svg PUBLIC "-//W3C//DTD SVG 20010904//EN"
 "http://www.w3.org/TR/2001/REC-SVG-20010904/DTD/svg10.dtd">
<svg version="1.0" xmlns="http://www.w3.org/2000/svg"
 width="32.000000pt" height="32.000000pt" viewBox="0 0 32.000000 32.000000"
 preserveAspectRatio="xMidYMid meet">
<metadata>
Created by potrace 1.16, written by Peter Selinger 2001-2019
</metadata>
<g transform="translate(0.000000,32.000000) scale(0.100000,-0.100000)"
fill="#000000" stroke="none">
<path fill="#000000" stroke="none" d="M41 293 c-1 -12 4 -25 9 -28 7 -4 6
-13 -1 -26 -7 -15 -7 -28 3 -49 16 -38 28 -29 21 16 -3 20 0 45 7 59 7 12 10
29 7 37 -3 7 -6 2 -7 -12 l-2 -25 -8 25 -8 25 -2 -25 -2 -25 -8 25 c-7 23 -8
23 -9 3z"/>
<path fill="#ffffff" stroke="none" d="M57 208 c-3 -8 -6 -5 -6 6 -1 11 2 17
5 13 3 -3 4 -12 1 -19z"/>
<path fill="#000000" stroke="none" d="M44 119 c-3 -6 -1 -22 7 -35 10 -19 10
-27 1 -36 -7 -7 -12 -17 -12 -23 0 -5 5 -3 10 5 8 12 10 12 11 -5 0 -15 3 -13
9 8 9 31 2 97 -11 97 -4 0 -11 -5 -15 -11z"/>
<path fill="#ffffff" stroke="none" d="M57 98 c-3 -8 -6 -5 -6 6 -1 11 2 17 5
13 3 -3 4 -12 1 -19z"/>
</g>
</svg>
