<?xml version="1.0" standalone="no"?>
<!DOCTYPE svg PUBLIC "-//W3C//DTD SVG 20010904//EN"
 "http://www.w3.org/TR/2001/REC-SVG-20010904/DTD/svg10.dtd">
<svg version="1.0" xmlns="http://www.w3.org/2000/svg"
 width="32.000000pt" height="32.000000pt" viewBox="0 0 32.000000 32.000000"
 preserveAspectRatio="xMidYMid meet">
<metadata>
Created by potrace 1.16, written by Peter Selinger 2001-2019
</metadata>
<g transform="translate(0.000000,32.000000) scale(0.100000,-0.100000)"
fill="#000000" stroke="none">
<path fill="#000000" stroke="none" d="M14 275 c5 -30 4 -36 -4 -25 -9 12 -10
10 -4 -10 14 -53 22 -51 19 4 -2 32 -7 61 -11 64 -3 4 -4 -11 0 -33z"/>
<path fill="#000000" stroke="none" d="M63 265 c0 -27 2 -38 4 -22 2 15 2 37
0 50 -2 12 -4 0 -4 -28z"/>
<path fill="#000000" stroke="none" d="M43 245 c0 -27 2 -38 4 -22 2 15 2 37
0 50 -2 12 -4 0 -4 -28z"/>
<path fill="#000000" stroke="none" d="M83 245 c0 -27 2 -38 4 -22 2 15 2 37
0 50 -2 12 -4 0 -4 -28z"/>
<path fill="#000000" stroke="none" d="M58 163 c7 -3 16 -2 19 1 4 3 -2 6 -13
5 -11 0 -14 -3 -6 -6z"/>
</g>
</svg>
