<?xml version="1.0" standalone="no"?>
<!DOCTYPE svg PUBLIC "-//W3C//DTD SVG 20010904//EN"
 "http://www.w3.org/TR/2001/REC-SVG-20010904/DTD/svg10.dtd">
<svg version="1.0" xmlns="http://www.w3.org/2000/svg"
 width="32.000000pt" height="32.000000pt" viewBox="0 0 32.000000 32.000000"
 preserveAspectRatio="xMidYMid meet">
<metadata>
Created by potrace 1.16, written by Peter Selinger 2001-2019
</metadata>
<g transform="translate(0.000000,32.000000) scale(0.100000,-0.100000)"
fill="#000000" stroke="none">
<path fill="#000000" stroke="none" d="M72 281 c-1 -13 -5 -21 -9 -18 -8 8
-43 -42 -43 -61 0 -7 10 -1 23 14 l23 27 -4 -35 c-2 -20 1 -38 6 -42 14 -8 18
21 11 84 -3 30 -6 44 -7 31z"/>
<path fill="#000000" stroke="none" d="M90 268 c0 -9 5 -20 10 -23 13 -8 13 5
0 25 -8 13 -10 13 -10 -2z"/>
<path fill="#000000" stroke="none" d="M68 114 c-5 -4 -8 -19 -8 -33 0 -18 3
-22 11 -14 6 6 9 21 7 33 -1 12 -6 18 -10 14z"/>
</g>
</svg>
