<?xml version="1.0" standalone="no"?>
<!DOCTYPE svg PUBLIC "-//W3C//DTD SVG 20010904//EN"
 "http://www.w3.org/TR/2001/REC-SVG-20010904/DTD/svg10.dtd">
<svg version="1.0" xmlns="http://www.w3.org/2000/svg"
 width="32.000000pt" height="32.000000pt" viewBox="0 0 32.000000 32.000000"
 preserveAspectRatio="xMidYMid meet">
<metadata>
Created by potrace 1.16, written by Peter Selinger 2001-2019
</metadata>
<g transform="translate(0.000000,32.000000) scale(0.100000,-0.100000)"
fill="#000000" stroke="none">
<path fill="#000000" stroke="none" d="M0 161 l0 -160 160 0 160 -1 0 160 0
160 -160 0 -160 0 0 -159z"/>
<path fill="#ffffff" stroke="none" d="M68 298 c7 -7 11 -37 10 -77 l-2 -66
-5 60 -5 60 -6 -60 -7 -60 -2 65 c-2 41 -5 56 -9 42 -9 -31 -26 -33 -30 -4 -6
41 30 66 56 40z"/>
<path fill="#ffffff" stroke="none" d="M78 68 l-1 -63 -7 55 -6 55 -5 -55 -5
-55 -2 63 c-2 49 1 62 13 62 12 0 15 -13 13 -62z"/>
<path fill="#000000" stroke="none" d="M27 293 c-4 -3 -7 -18 -6 -32 l1 -26 7
25 c4 14 13 24 19 23 7 -2 12 2 12 7 0 11 -23 14 -33 3z"/>
</g>
</svg>
