<?xml version="1.0" standalone="no"?>
<!DOCTYPE svg PUBLIC "-//W3C//DTD SVG 20010904//EN"
 "http://www.w3.org/TR/2001/REC-SVG-20010904/DTD/svg10.dtd">
<svg version="1.0" xmlns="http://www.w3.org/2000/svg"
 width="32.000000pt" height="32.000000pt" viewBox="0 0 32.000000 32.000000"
 preserveAspectRatio="xMidYMid meet">
<metadata>
Created by potrace 1.16, written by Peter Selinger 2001-2019
</metadata>
<g transform="translate(0.000000,32.000000) scale(0.100000,-0.100000)"
fill="#000000" stroke="none">
<path fill="#000000" stroke="none" d="M0 160 l0 -160 160 0 160 0 0 160 0
160 -160 0 -160 0 0 -160z"/>
<path fill="#ffffff" stroke="none" d="M300 160 l0 -140 -140 0 -140 0 0 140
0 140 140 0 140 0 0 -140z"/>
<path fill="#000000" stroke="none" d="M30 235 c0 -51 10 -69 25 -45 4 6 10 8
15 5 4 -3 14 3 21 13 12 15 12 15 -1 6 -21 -17 -43 6 -23 24 8 8 13 9 13 2 0
-5 7 -10 16 -10 9 0 12 5 8 13 -4 6 1 5 12 -4 20 -17 50 -19 73 -4 10 5 12 4
7 -3 -4 -7 -2 -12 4 -12 6 0 13 6 16 14 5 12 9 11 23 -3 10 -10 21 -25 24 -35
12 -31 27 -6 27 45 l0 49 -130 0 -130 0 0 -55z"/>
<path fill="#000000" stroke="none" d="M30 85 l0 -55 130 0 130 0 0 50 c0 28
-4 50 -10 50 -17 0 -49 -33 -43 -44 4 -6 -4 -2 -17 9 -17 15 -22 16 -18 5 8
-21 -17 -57 -25 -37 -3 8 -16 14 -29 13 -13 -2 -36 9 -53 24 -55 49 -65 47
-65 -15z"/>
</g>
</svg>
