<?xml version="1.0" standalone="no"?>
<!DOCTYPE svg PUBLIC "-//W3C//DTD SVG 20010904//EN"
 "http://www.w3.org/TR/2001/REC-SVG-20010904/DTD/svg10.dtd">
<svg version="1.0" xmlns="http://www.w3.org/2000/svg"
 width="32.000000pt" height="32.000000pt" viewBox="0 0 32.000000 32.000000"
 preserveAspectRatio="xMidYMid meet">
<metadata>
Created by potrace 1.16, written by Peter Selinger 2001-2019
</metadata>
<g transform="translate(0.000000,32.000000) scale(0.100000,-0.100000)"
fill="#000000" stroke="none">
<path fill="#000000" stroke="none" d="M22 158 l2 -143 3 137 4 137 137 4 137
3 -142 2 -143 2 2 -142z"/>
<path fill="#000000" stroke="none" d="M219 223 c-1 -4 -1 -16 0 -25 2 -13 -4
-16 -20 -13 -12 3 -27 9 -33 15 -6 6 -15 5 -25 -3 -10 -8 -12 -8 -8 -1 16 27
-22 20 -42 -7 -19 -25 -28 -44 -18 -36 2 1 11 -4 20 -12 10 -7 17 -10 17 -5 0
4 6 -1 14 -11 13 -18 14 -18 52 0 22 10 47 19 56 20 28 3 33 13 14 34 -10 11
-15 24 -12 30 4 5 2 12 -4 16 -5 3 -11 3 -11 -2z"/>
<path fill="#000000" stroke="none" d="M176 91 c-4 -5 -2 -12 3 -15 5 -4 12
-2 15 3 4 5 2 12 -3 15 -5 4 -12 2 -15 -3z"/>
</g>
</svg>
