<?xml version="1.0" standalone="no"?>
<!DOCTYPE svg PUBLIC "-//W3C//DTD SVG 20010904//EN"
 "http://www.w3.org/TR/2001/REC-SVG-20010904/DTD/svg10.dtd">
<svg version="1.0" xmlns="http://www.w3.org/2000/svg"
 width="32.000000pt" height="32.000000pt" viewBox="0 0 32.000000 32.000000"
 preserveAspectRatio="xMidYMid meet">
<metadata>
Created by potrace 1.16, written by Peter Selinger 2001-2019
</metadata>
<g transform="translate(0.000000,32.000000) scale(0.100000,-0.100000)"
fill="#000000" stroke="none">
<path fill="#000000" stroke="none" d="M0 160 l0 -160 160 0 160 0 0 160 0
160 -160 0 -160 0 0 -160z"/>
<path fill="#ffffff" stroke="none" d="M168 293 l-137 -4 -4 -137 -3 -137 -2
143 -2 142 143 -2 142 -2 -137 -3z"/>
<path fill="#ffffff" stroke="none" d="M220 218 c-21 -35 -18 -48 11 -48 24 0
25 -18 2 -27 -28 -10 -32 -24 -16 -50 9 -13 11 -23 5 -23 -6 0 -14 5 -17 10
-5 8 -11 7 -21 -1 -12 -10 -13 -9 -9 4 4 8 1 18 -5 22 -8 5 -4 15 12 32 23 24
23 25 4 39 -23 16 -54 18 -76 4 -8 -5 -13 -10 -10 -11 3 0 13 -2 22 -4 10 -2
20 1 24 6 3 5 10 9 16 9 6 0 1 -12 -13 -27 l-24 -28 26 23 c39 34 47 26 10
-12 -33 -34 -33 -34 -10 -38 21 -4 20 -6 -16 -22 -22 -9 -48 -21 -57 -26 -47
-26 -51 12 -9 75 26 39 28 45 16 78 l-12 36 26 -20 26 -21 5 24 c6 22 6 22 17
3 11 -20 12 -20 50 2 21 13 39 23 40 23 2 0 -6 -14 -17 -32z"/>
<path fill="#000000" stroke="none" d="M95 149 c-3 -4 2 -6 10 -5 21 3 28 13
10 13 -9 0 -18 -4 -20 -8z"/>
</g>
</svg>
