<?xml version="1.0" standalone="no"?>
<!DOCTYPE svg PUBLIC "-//W3C//DTD SVG 20010904//EN"
 "http://www.w3.org/TR/2001/REC-SVG-20010904/DTD/svg10.dtd">
<svg version="1.0" xmlns="http://www.w3.org/2000/svg"
 width="32.000000pt" height="32.000000pt" viewBox="0 0 32.000000 32.000000"
 preserveAspectRatio="xMidYMid meet">
<metadata>
Created by potrace 1.16, written by Peter Selinger 2001-2019
</metadata>
<g transform="translate(0.000000,32.000000) scale(0.100000,-0.100000)"
fill="#000000" stroke="none">
<path fill="#000000" stroke="none" d="M22 163 l2 -138 3 132 4 132 132 4 132
3 -137 2 -138 2 2 -137z"/>
<path fill="#000000" stroke="none" d="M130 217 c0 -9 -7 -17 -15 -17 -8 0
-15 -4 -15 -8 0 -4 15 -6 33 -4 18 2 40 -3 52 -12 17 -13 18 -18 8 -35 -19
-31 -16 -37 6 -13 10 12 25 22 32 23 8 0 4 4 -8 9 -26 10 -28 22 -12 51 10 20
10 20 -22 3 -31 -15 -33 -15 -46 2 -12 16 -13 16 -13 1z"/>
</g>
</svg>
