<?xml version="1.0" standalone="no"?>
<!DOCTYPE svg PUBLIC "-//W3C//DTD SVG 20010904//EN"
 "http://www.w3.org/TR/2001/REC-SVG-20010904/DTD/svg10.dtd">
<svg version="1.0" xmlns="http://www.w3.org/2000/svg"
 width="32.000000pt" height="32.000000pt" viewBox="0 0 32.000000 32.000000"
 preserveAspectRatio="xMidYMid meet">
<metadata>
Created by potrace 1.16, written by Peter Selinger 2001-2019
</metadata>
<g transform="translate(0.000000,32.000000) scale(0.100000,-0.100000)"
fill="#000000" stroke="none">
<path fill="#000000" stroke="none" d="M0 160 l0 -160 160 0 160 0 0 160 0
160 -160 0 -160 0 0 -160z"/>
<path fill="#ffffff" stroke="none" d="M296 157 l0 -133 -125 1 c-69 1 -129 3
-133 3 -5 1 -8 60 -8 132 l0 130 133 0 133 0 0 -133z"/>
<path fill="#000000" stroke="none" d="M82 263 c-29 -6 -45 -37 -37 -73 4 -16
8 -49 9 -74 1 -25 9 -52 16 -61 12 -15 14 -15 23 0 8 15 10 15 26 1 20 -18
114 -12 131 10 17 20 23 184 8 188 -21 7 -151 13 -176 9z"/>
<path fill="#ffffff" stroke="none" d="M141 197 c-10 -9 -11 -8 -5 6 3 10 9
15 12 12 3 -3 0 -11 -7 -18z"/>
<path fill="#ffffff" stroke="none" d="M225 200 c-3 -5 -12 -10 -18 -10 -7 0
-6 4 3 10 19 12 23 12 15 0z"/>
<path fill="#ffffff" stroke="none" d="M204 158 c6 -4 -4 -8 -21 -8 -20 0 -33
-5 -33 -12 0 -9 -2 -10 -8 -2 -4 7 -16 14 -27 17 -11 2 -1 5 23 6 33 1 42 5
43 19 0 13 2 14 6 2 3 -8 11 -18 17 -22z"/>
</g>
</svg>
