<?xml version="1.0" standalone="no"?>
<!DOCTYPE svg PUBLIC "-//W3C//DTD SVG 20010904//EN"
 "http://www.w3.org/TR/2001/REC-SVG-20010904/DTD/svg10.dtd">
<svg version="1.0" xmlns="http://www.w3.org/2000/svg"
 width="32.000000pt" height="32.000000pt" viewBox="0 0 32.000000 32.000000"
 preserveAspectRatio="xMidYMid meet">
<metadata>
Created by potrace 1.16, written by Peter Selinger 2001-2019
</metadata>
<g transform="translate(0.000000,32.000000) scale(0.100000,-0.100000)"
fill="#000000" stroke="none">
<path fill="#000000" stroke="none" d="M30 160 l0 -130 130 0 130 0 0 130 0
130 -130 0 -130 0 0 -130z"/>
<path fill="#ffffff" stroke="none" d="M201 240 c11 0 18 4 15 9 -4 5 3 7 14
4 14 -4 20 -14 20 -34 0 -16 5 -29 13 -29 6 0 4 -5 -6 -11 -13 -8 -15 -14 -7
-29 14 -27 12 -40 -6 -40 -10 0 -14 -6 -11 -14 4 -10 1 -13 -9 -9 -8 3 -14 -1
-14 -10 0 -8 -7 -17 -14 -20 -10 -4 -13 -1 -9 9 5 15 -12 20 -21 6 -8 -14 -76
-1 -76 14 0 8 -4 14 -10 14 -5 0 -10 9 -10 20 0 11 -6 20 -12 20 -7 0 -5 5 5
11 10 6 17 22 17 39 0 30 12 43 45 47 11 2 24 10 30 18 8 13 11 13 18 0 4 -8
17 -15 28 -15z"/>
<path fill="#000000" stroke="none" d="M175 218 c-4 -11 -15 -15 -31 -12 -19
3 -24 0 -24 -16 0 -12 -7 -20 -17 -20 -16 -1 -16 -2 -2 -13 9 -7 14 -17 12
-24 -9 -26 50 -38 83 -16 28 18 29 25 4 78 -14 31 -19 36 -25 23z"/>
</g>
</svg>
