<?xml version="1.0" standalone="no"?>
<!DOCTYPE svg PUBLIC "-//W3C//DTD SVG 20010904//EN"
 "http://www.w3.org/TR/2001/REC-SVG-20010904/DTD/svg10.dtd">
<svg version="1.0" xmlns="http://www.w3.org/2000/svg"
 width="32.000000pt" height="32.000000pt" viewBox="0 0 32.000000 32.000000"
 preserveAspectRatio="xMidYMid meet">
<metadata>
Created by potrace 1.16, written by Peter Selinger 2001-2019
</metadata>
<g transform="translate(0.000000,32.000000) scale(0.100000,-0.100000)"
fill="#000000" stroke="none">
<path fill="#000000" stroke="none" d="M20 159 c0 -77 4 -138 8 -135 5 3 7 18
4 34 -3 20 1 31 12 35 9 4 16 2 16 -2 0 -5 -6 -11 -13 -14 -21 -8 7 -42 39
-45 28 -4 28 -3 11 15 -20 23 -23 40 -3 24 7 -6 22 -8 31 -4 11 4 16 2 12 -3
-3 -6 -2 -16 4 -24 7 -13 9 -13 9 0 0 13 1 13 10 0 7 -12 10 -8 10 15 l1 30
13 -24 c7 -13 15 -19 17 -12 2 6 22 13 44 14 37 2 40 4 40 32 l0 30 -85 0
c-77 0 -85 -2 -83 -19 1 -13 -2 -15 -10 -7 -8 8 -8 14 1 23 9 9 7 14 -6 25
-16 12 -16 14 0 26 13 11 15 16 6 25 -9 9 -9 15 -1 23 8 8 11 6 10 -7 -2 -17
6 -19 83 -19 l85 0 0 30 c0 28 -3 30 -40 32 -22 1 -42 8 -44 14 -2 7 -10 1
-17 -12 l-13 -24 -1 27 c0 26 1 27 61 27 33 0 63 2 67 5 3 3 -58 6 -136 6
l-142 0 0 -141z"/>
<path fill="#ffffff" stroke="none" d="M48 269 c-10 -17 -10 -23 0 -26 6 -3
12 -9 12 -14 0 -4 -7 -6 -15 -3 -15 6 -21 45 -8 57 15 15 22 5 11 -14z"/>
<path fill="#ffffff" stroke="none" d="M137 270 c-1 -13 -6 -19 -15 -15 -8 3
-21 0 -28 -6 -19 -16 -17 1 3 23 21 24 42 23 40 -2z"/>
<path fill="#ffffff" stroke="none" d="M279 208 c1 -5 -3 -8 -9 -8 -5 0 -10
12 -9 28 0 24 1 25 9 7 5 -11 9 -23 9 -27z"/>
<path fill="#ffffff" stroke="none" d="M45 161 c0 -16 -3 -27 -7 -24 -13 7 -7
53 6 53 1 0 1 -13 1 -29z"/>
<path fill="#ffffff" stroke="none" d="M80 158 c0 -16 -3 -19 -11 -11 -6 6 -8
16 -5 22 11 17 16 13 16 -11z"/>
<path fill="#ffffff" stroke="none" d="M279 113 c0 -5 -4 -17 -9 -28 -8 -18
-9 -17 -9 8 -1 15 4 27 9 27 6 0 10 -3 9 -7z"/>
</g>
</svg>
