<?xml version="1.0" standalone="no"?>
<!DOCTYPE svg PUBLIC "-//W3C//DTD SVG 20010904//EN"
 "http://www.w3.org/TR/2001/REC-SVG-20010904/DTD/svg10.dtd">
<svg version="1.0" xmlns="http://www.w3.org/2000/svg"
 width="32.000000pt" height="32.000000pt" viewBox="0 0 32.000000 32.000000"
 preserveAspectRatio="xMidYMid meet">
<metadata>
Created by potrace 1.16, written by Peter Selinger 2001-2019
</metadata>
<g transform="translate(0.000000,32.000000) scale(0.100000,-0.100000)"
fill="#000000" stroke="none">
<path fill="#000000" stroke="none" d="M20 165 c0 -74 3 -135 8 -135 4 0 6 18
4 40 -5 45 4 49 45 23 l26 -17 -24 42 -24 42 24 42 24 42 -26 -17 c-39 -26
-49 -22 -45 21 l3 37 59 3 c41 2 62 -1 67 -10 6 -9 9 -10 9 -1 0 8 23 13 63
16 34 2 0 4 -75 5 l-138 2 0 -135z"/>
<path fill="#ffffff" stroke="none" d="M55 161 c0 -27 -4 -37 -12 -34 -7 3
-13 18 -13 33 0 16 6 31 13 33 6 3 12 6 12 6 0 1 0 -16 0 -38z"/>
<path fill="#000000" stroke="none" d="M63 265 c-9 -25 4 -29 17 -6 7 15 7 21
0 21 -6 0 -13 -7 -17 -15z"/>
<path fill="#000000" stroke="none" d="M156 224 c-3 -8 -11 -12 -17 -8 -7 4
-10 1 -7 -7 4 -13 16 -14 70 -6 10 2 20 6 24 10 4 3 -3 5 -15 2 -11 -2 -27 3
-35 10 -12 13 -15 12 -20 -1z"/>
<path fill="#000000" stroke="none" d="M254 215 c1 -28 30 -25 34 3 2 19 1 19
-4 2 -7 -25 -21 -26 -27 -2 -3 13 -4 12 -3 -3z"/>
<path fill="#000000" stroke="none" d="M92 188 c-16 -16 -15 -43 2 -57 11 -9
16 -9 22 0 4 7 3 9 -3 6 -6 -4 -13 0 -17 8 -7 20 4 46 17 38 6 -3 7 -1 3 5 -9
15 -9 15 -24 0z"/>
<path fill="#000000" stroke="none" d="M136 122 c-10 -9 -6 -23 4 -17 6 3 13
-1 16 -9 5 -13 8 -14 20 -1 8 7 23 12 34 10 12 -2 18 0 14 6 -3 6 -8 8 -11 6
-2 -3 -19 -1 -38 3 -19 4 -36 5 -39 2z"/>
<path fill="#000000" stroke="none" d="M254 116 c-3 -8 -4 -21 -1 -28 3 -7 6
-3 6 10 1 12 5 22 10 22 5 0 12 -10 14 -22 5 -21 5 -21 4 1 -2 28 -24 40 -33
17z"/>
<path fill="#000000" stroke="none" d="M60 68 c0 -9 5 -20 11 -23 17 -11 20 0
4 21 -13 17 -14 17 -15 2z"/>
</g>
</svg>
