<?xml version="1.0" standalone="no"?>
<!DOCTYPE svg PUBLIC "-//W3C//DTD SVG 20010904//EN"
 "http://www.w3.org/TR/2001/REC-SVG-20010904/DTD/svg10.dtd">
<svg version="1.0" xmlns="http://www.w3.org/2000/svg"
 width="32.000000pt" height="32.000000pt" viewBox="0 0 32.000000 32.000000"
 preserveAspectRatio="xMidYMid meet">
<metadata>
Created by potrace 1.16, written by Peter Selinger 2001-2019
</metadata>
<g transform="translate(0.000000,32.000000) scale(0.100000,-0.100000)"
fill="#000000" stroke="none">
<path fill="#000000" stroke="none" d="M0 160 l0 -160 160 0 160 0 0 160 0
160 -160 0 -160 0 0 -160z"/>
<path fill="#ffffff" stroke="none" d="M273 293 c-19 -2 -33 -10 -33 -17 0
-17 48 -27 53 -12 3 6 3 -3 2 -20 -3 -50 -10 -54 -94 -54 -53 0 -83 -5 -97
-15 -19 -15 -19 -15 0 -30 14 -10 44 -15 97 -15 50 0 81 -4 85 -12 9 -14 12
-57 4 -56 -29 2 -50 -5 -50 -16 0 -8 -4 -17 -9 -20 -5 -4 -7 3 -4 14 4 14 0
20 -11 20 -9 0 -16 -6 -16 -12 0 -10 -3 -9 -9 1 -11 17 -25 -4 -15 -21 5 -9 2
-9 -9 1 -14 11 -17 11 -17 0 -1 -10 -4 -8 -11 4 -5 9 -7 22 -3 29 5 8 2 9 -11
5 -9 -4 -24 -2 -31 4 -21 17 -17 -2 6 -26 19 -21 19 -21 -5 -20 -13 1 -31 7
-39 14 -18 15 -21 41 -6 41 6 0 10 4 10 10 0 5 -7 7 -15 4 -18 -7 -20 -45 -3
-62 9 -9 8 -12 -5 -12 -15 0 -17 15 -17 140 l0 140 143 -2 c78 0 127 -3 110
-5z"/>
<path fill="#000000" stroke="none" d="M37 283 c-13 -12 -7 -51 8 -57 8 -3 15
-1 15 3 0 5 -6 11 -12 14 -10 3 -10 9 0 26 11 19 4 29 -11 14z"/>
<path fill="#000000" stroke="none" d="M97 272 c-20 -22 -22 -39 -3 -23 7 6
20 9 28 6 9 -4 14 1 14 15 0 25 -18 26 -39 2z"/>
<path fill="#000000" stroke="none" d="M170 281 c0 -16 18 -22 23 -9 4 10 6
10 6 1 1 -18 31 -16 31 2 0 10 -10 15 -30 15 -16 0 -30 -4 -30 -9z"/>
<path fill="#000000" stroke="none" d="M261 228 c-1 -16 4 -28 9 -28 12 0 12
8 0 35 -8 18 -9 17 -9 -7z"/>
<path fill="#000000" stroke="none" d="M37 183 c-9 -9 -9 -41 1 -46 4 -3 7 8
7 24 0 16 0 29 -1 29 0 0 -4 -3 -7 -7z"/>
<path fill="#000000" stroke="none" d="M64 169 c-3 -6 -1 -16 5 -22 8 -8 11
-5 11 11 0 24 -5 28 -16 11z"/>
<path fill="#000000" stroke="none" d="M261 93 c0 -25 1 -26 9 -8 12 27 12 35
0 35 -5 0 -10 -12 -9 -27z"/>
</g>
</svg>
