<?xml version="1.0" standalone="no"?>
<!DOCTYPE svg PUBLIC "-//W3C//DTD SVG 20010904//EN"
 "http://www.w3.org/TR/2001/REC-SVG-20010904/DTD/svg10.dtd">
<svg version="1.0" xmlns="http://www.w3.org/2000/svg"
 width="32.000000pt" height="32.000000pt" viewBox="0 0 32.000000 32.000000"
 preserveAspectRatio="xMidYMid meet">
<metadata>
Created by potrace 1.16, written by Peter Selinger 2001-2019
</metadata>
<g transform="translate(0.000000,32.000000) scale(0.100000,-0.100000)"
fill="#000000" stroke="none">
<path fill="#000000" stroke="none" d="M2 158 l2 -163 3 158 4 157 144 0 c80
0 145 -4 145 -9 0 -13 -28 -22 -35 -11 -4 6 -20 10 -38 10 -31 0 -31 0 -9 -16
12 -8 26 -13 31 -10 5 4 7 -4 4 -15 -4 -15 0 -27 12 -35 10 -8 20 -30 22 -50
l4 -37 -37 37 c-29 29 -39 34 -50 25 -10 -8 -14 -8 -14 0 0 6 -9 11 -20 11
-11 0 -20 -5 -20 -11 0 -5 -5 -7 -10 -4 -6 3 -14 -4 -19 -17 -9 -21 -10 -21
-11 -3 -1 11 -4 14 -7 8 -2 -7 -13 -13 -24 -13 -10 0 -19 -5 -19 -12 0 -6 -9
-3 -20 7 -19 17 -20 17 -20 -1 0 -10 4 -24 8 -31 4 -7 5 -40 2 -73 l-6 -61
144 3 144 3 2 157 1 158 -157 0 -158 0 2 -162z"/>
<path fill="#000000" stroke="none" d="M27 293 c-4 -3 -7 -22 -6 -42 l1 -36
12 40 c7 22 16 39 20 37 3 -2 12 -1 19 1 6 3 0 6 -14 6 -14 1 -29 -2 -32 -6z"/>
<path fill="#000000" stroke="none" d="M95 290 c4 -6 11 -8 16 -5 14 9 11 15
-7 15 -8 0 -12 -5 -9 -10z"/>
<path fill="#000000" stroke="none" d="M138 288 c5 -5 19 -5 33 1 22 8 22 9
-9 9 -19 -1 -29 -5 -24 -10z"/>
<path fill="#000000" stroke="none" d="M260 195 c0 -8 2 -15 4 -15 2 0 6 7 10
15 3 8 1 15 -4 15 -6 0 -10 -7 -10 -15z"/>
</g>
</svg>
