<?xml version="1.0" standalone="no"?>
<!DOCTYPE svg PUBLIC "-//W3C//DTD SVG 20010904//EN"
 "http://www.w3.org/TR/2001/REC-SVG-20010904/DTD/svg10.dtd">
<svg version="1.0" xmlns="http://www.w3.org/2000/svg"
 width="32.000000pt" height="32.000000pt" viewBox="0 0 32.000000 32.000000"
 preserveAspectRatio="xMidYMid meet">
<metadata>
Created by potrace 1.16, written by Peter Selinger 2001-2019
</metadata>
<g transform="translate(0.000000,32.000000) scale(0.100000,-0.100000)"
fill="#000000" stroke="none">
<path fill="#000000" stroke="none" d="M22 158 l2 -143 3 137 4 137 137 4 137
3 -142 2 -143 2 2 -142z"/>
<path fill="#000000" stroke="none" d="M66 261 c-4 -5 -2 -12 3 -15 5 -4 12
-2 15 3 4 5 2 12 -3 15 -5 4 -12 2 -15 -3z"/>
<path fill="#000000" stroke="none" d="M143 244 c-8 -21 13 -42 28 -27 13 13
5 43 -11 43 -6 0 -13 -7 -17 -16z"/>
<path fill="#000000" stroke="none" d="M118 197 c-7 -7 -19 -12 -26 -9 -8 2
-10 -2 -6 -13 6 -14 8 -14 27 2 14 13 21 15 24 6 3 -7 13 -13 23 -13 10 0 20
6 23 13 3 9 10 7 24 -6 19 -16 21 -16 27 -2 4 11 2 15 -6 13 -7 -3 -19 2 -26
9 -11 10 -17 11 -28 2 -11 -9 -17 -9 -28 0 -11 9 -17 8 -28 -2z"/>
<path fill="#000000" stroke="none" d="M129 143 c-13 -16 -12 -17 4 -4 15 12
17 11 17 -3 0 -9 5 -16 10 -16 6 0 10 7 10 16 0 14 2 15 18 3 15 -13 16 -12 3
4 -7 9 -21 17 -31 17 -10 0 -24 -8 -31 -17z"/>
<path fill="#000000" stroke="none" d="M111 90 c-21 -29 -21 -30 -2 -30 12 0
21 9 25 26 10 37 3 38 -23 4z"/>
<path fill="#000000" stroke="none" d="M185 95 c8 -36 9 -38 28 -33 12 2 10 9
-10 33 l-25 30 7 -30z"/>
</g>
</svg>
