<?xml version="1.0" standalone="no"?>
<!DOCTYPE svg PUBLIC "-//W3C//DTD SVG 20010904//EN"
 "http://www.w3.org/TR/2001/REC-SVG-20010904/DTD/svg10.dtd">
<svg version="1.0" xmlns="http://www.w3.org/2000/svg"
 width="32.000000pt" height="32.000000pt" viewBox="0 0 32.000000 32.000000"
 preserveAspectRatio="xMidYMid meet">
<metadata>
Created by potrace 1.16, written by Peter Selinger 2001-2019
</metadata>
<g transform="translate(0.000000,32.000000) scale(0.100000,-0.100000)"
fill="#000000" stroke="none">
<path fill="#000000" stroke="none" d="M20 160 c0 -127 2 -140 18 -139 10 0
12 3 5 6 -10 3 -13 40 -13 134 l0 128 138 4 137 3 -142 2 -143 2 0 -140z"/>
<path fill="#000000" stroke="none" d="M72 267 c-6 -7 -8 -18 -4 -24 12 -20 6
-144 -7 -153 -9 -5 -8 -9 4 -14 9 -3 21 -3 27 0 5 3 22 0 38 -6 85 -35 165 67
115 144 -20 31 -67 50 -101 42 -18 -5 -32 -2 -44 9 -14 13 -19 13 -28 2z"/>
<path fill="#ffffff" stroke="none" d="M196 235 c15 -11 16 -15 4 -16 -8 0
-27 -3 -42 -5 -34 -6 -46 13 -16 25 31 13 32 13 54 -4z"/>
<path fill="#ffffff" stroke="none" d="M106 183 c-2 -9 -9 -19 -16 -21 -9 -3
-11 1 -7 12 4 10 7 22 7 27 0 6 4 8 9 5 5 -4 8 -14 7 -23z"/>
<path fill="#ffffff" stroke="none" d="M250 161 c0 -9 -4 -22 -9 -29 -6 -10
-10 -10 -21 3 -10 12 -10 18 1 32 11 13 11 17 1 20 -6 3 -9 10 -6 15 8 13 34
-19 34 -41z"/>
<path fill="#ffffff" stroke="none" d="M117 134 c-3 -4 -2 -15 4 -25 6 -13 6
-19 0 -19 -9 0 -31 31 -31 44 0 3 8 6 17 6 9 0 13 -3 10 -6z"/>
<path fill="#ffffff" stroke="none" d="M180 98 c0 6 7 12 16 12 9 0 14 -6 12
-12 -5 -15 -68 -24 -68 -9 0 14 24 20 32 7 5 -8 8 -7 8 2z"/>
<path fill="#000000" stroke="none" d="M45 219 c-10 -15 3 -25 16 -12 7 7 7
13 1 17 -6 3 -14 1 -17 -5z"/>
<path fill="#000000" stroke="none" d="M241 76 c-9 -11 -8 -15 5 -20 22 -8 24
-8 24 8 0 21 -16 28 -29 12z"/>
</g>
</svg>
