<?xml version="1.0" standalone="no"?>
<!DOCTYPE svg PUBLIC "-//W3C//DTD SVG 20010904//EN"
 "http://www.w3.org/TR/2001/REC-SVG-20010904/DTD/svg10.dtd">
<svg version="1.0" xmlns="http://www.w3.org/2000/svg"
 width="32.000000pt" height="32.000000pt" viewBox="0 0 32.000000 32.000000"
 preserveAspectRatio="xMidYMid meet">
<metadata>
Created by potrace 1.16, written by Peter Selinger 2001-2019
</metadata>
<g transform="translate(0.000000,32.000000) scale(0.100000,-0.100000)"
fill="#000000" stroke="none">
<path fill="#000000" stroke="none" d="M22 158 l2 -143 3 137 4 137 137 4 137
3 -142 2 -143 2 2 -142z"/>
<path fill="#000000" stroke="none" d="M71 266 c-9 -10 -8 -16 3 -25 10 -9 16
-8 25 3 9 10 8 16 -3 25 -10 9 -16 8 -25 -3z"/>
<path fill="#000000" stroke="none" d="M96 219 c-31 -37 -33 -78 -5 -110 l21
-24 -16 25 c-25 39 -16 113 12 96 14 -8 9 -36 -9 -47 -11 -7 -9 -9 9 -9 17 0
22 -6 22 -25 0 -26 9 -32 26 -15 6 6 25 7 42 4 29 -6 31 -9 20 -23 -7 -10 -1
-4 15 11 37 39 36 78 -4 120 l-31 33 26 -33 c26 -33 33 -75 17 -100 -6 -10
-12 -7 -24 11 -10 16 -12 28 -6 34 5 5 7 17 3 27 -5 14 -14 16 -43 12 -20 -4
-43 -2 -51 4 -13 9 -12 12 4 25 11 8 15 15 9 15 -6 0 -23 -14 -37 -31z"/>
<path fill="#000000" stroke="none" d="M66 91 c-4 -5 -2 -12 3 -15 5 -4 12 -2
15 3 4 5 2 12 -3 15 -5 4 -12 2 -15 -3z"/>
<path fill="#000000" stroke="none" d="M246 71 c-4 -5 -2 -12 3 -15 5 -4 12
-2 15 3 4 5 2 12 -3 15 -5 4 -12 2 -15 -3z"/>
</g>
</svg>
