<?xml version="1.0" standalone="no"?>
<!DOCTYPE svg PUBLIC "-//W3C//DTD SVG 20010904//EN"
 "http://www.w3.org/TR/2001/REC-SVG-20010904/DTD/svg10.dtd">
<svg version="1.0" xmlns="http://www.w3.org/2000/svg"
 width="32.000000pt" height="32.000000pt" viewBox="0 0 32.000000 32.000000"
 preserveAspectRatio="xMidYMid meet">
<metadata>
Created by potrace 1.16, written by Peter Selinger 2001-2019
</metadata>
<g transform="translate(0.000000,32.000000) scale(0.100000,-0.100000)"
fill="#000000" stroke="none">
<path fill="#000000" stroke="none" d="M22 163 l2 -138 3 132 4 132 132 4 132
3 -137 2 -138 2 2 -137z"/>
<path fill="#000000" stroke="none" d="M66 261 c-4 -5 -2 -12 3 -15 5 -4 12
-2 15 3 4 5 2 12 -3 15 -5 4 -12 2 -15 -3z"/>
<path fill="#000000" stroke="none" d="M123 203 c-7 -3 -13 -9 -13 -14 0 -4 7
-6 15 -3 8 4 15 1 15 -5 0 -6 9 -11 20 -11 11 0 20 5 20 11 0 6 7 9 15 5 8 -3
15 -1 15 3 0 14 -27 20 -38 9 -8 -8 -15 -8 -24 -1 -7 6 -19 8 -25 6z"/>
<path fill="#000000" stroke="none" d="M129 143 c-13 -16 -12 -17 4 -4 15 12
17 11 17 -3 0 -9 5 -16 10 -16 6 0 10 7 10 16 0 14 2 15 18 3 15 -13 16 -12 3
4 -7 9 -21 17 -31 17 -10 0 -24 -8 -31 -17z"/>
</g>
</svg>
