<?xml version="1.0" standalone="no"?>
<!DOCTYPE svg PUBLIC "-//W3C//DTD SVG 20010904//EN"
 "http://www.w3.org/TR/2001/REC-SVG-20010904/DTD/svg10.dtd">
<svg version="1.0" xmlns="http://www.w3.org/2000/svg"
 width="32.000000pt" height="32.000000pt" viewBox="0 0 32.000000 32.000000"
 preserveAspectRatio="xMidYMid meet">
<metadata>
Created by potrace 1.16, written by Peter Selinger 2001-2019
</metadata>
<g transform="translate(0.000000,32.000000) scale(0.100000,-0.100000)"
fill="#000000" stroke="none">
<path fill="#000000" stroke="none" d="M0 160 l0 -160 160 0 160 0 0 160 0
160 -160 0 -160 0 0 -160z"/>
<path fill="#ffffff" stroke="none" d="M163 293 l-132 -4 -4 -132 -3 -132 -2
138 -2 137 138 -2 137 -2 -132 -3z"/>
<path fill="#ffffff" stroke="none" d="M193 220 l-7 -25 -6 25 c-8 28 -2 46
11 33 5 -5 5 -20 2 -33z"/>
<path fill="#ffffff" stroke="none" d="M141 223 c-8 -15 -10 -15 -11 -2 0 17
10 32 18 25 2 -3 -1 -13 -7 -23z"/>
<path fill="#ffffff" stroke="none" d="M170 185 c0 -33 18 -41 29 -13 9 20 10
18 10 -18 1 -44 -13 -64 -44 -63 -11 0 -14 3 -7 6 26 10 6 63 -24 63 -7 0 -15
-8 -17 -17 -3 -10 -5 -3 -6 16 -1 26 2 32 15 27 11 -4 18 1 21 14 7 26 23 16
23 -15z"/>
</g>
</svg>
