<?xml version="1.0" standalone="no"?>
<!DOCTYPE svg PUBLIC "-//W3C//DTD SVG 20010904//EN"
 "http://www.w3.org/TR/2001/REC-SVG-20010904/DTD/svg10.dtd">
<svg version="1.0" xmlns="http://www.w3.org/2000/svg"
 width="32.000000pt" height="32.000000pt" viewBox="0 0 32.000000 32.000000"
 preserveAspectRatio="xMidYMid meet">
<metadata>
Created by potrace 1.16, written by Peter Selinger 2001-2019
</metadata>
<g transform="translate(0.000000,32.000000) scale(0.100000,-0.100000)"
fill="#000000" stroke="none">
<path fill="#000000" stroke="none" d="M0 160 l0 -160 160 0 160 0 0 160 0
160 -160 0 -160 0 0 -160z"/>
<path fill="#ffffff" stroke="none" d="M168 293 l-137 -4 -4 -137 -3 -137 -2
143 -2 142 143 -2 142 -2 -137 -3z"/>
<path fill="#ffffff" stroke="none" d="M193 220 l-7 -25 -6 25 c-8 28 -2 46
11 33 5 -5 5 -20 2 -33z"/>
<path fill="#ffffff" stroke="none" d="M141 223 c-8 -15 -10 -15 -11 -2 0 17
10 32 18 25 2 -3 -1 -13 -7 -23z"/>
<path fill="#ffffff" stroke="none" d="M172 180 c4 -31 21 -30 29 2 4 15 7 4
10 -34 2 -31 1 -54 -2 -52 -4 2 -12 -3 -19 -11 -14 -17 -46 -20 -54 -6 -4 5 4
7 16 4 19 -4 20 -3 8 6 -10 7 -11 11 -2 11 15 0 16 32 0 48 -24 24 -41 14 -34
-20 4 -24 3 -29 -4 -18 -5 8 -10 32 -10 54 0 34 2 37 16 26 13 -11 16 -10 21
9 7 26 20 16 25 -19z"/>
<path fill="#ffffff" stroke="none" d="M99 116 c10 -12 8 -13 -8 -9 -12 3 -18
9 -15 14 7 12 10 11 23 -5z"/>
<path fill="#ffffff" stroke="none" d="M215 60 c3 -6 -1 -7 -9 -4 -18 7 -21
14 -7 14 6 0 13 -4 16 -10z"/>
</g>
</svg>
