<?xml version="1.0" standalone="no"?>
<!DOCTYPE svg PUBLIC "-//W3C//DTD SVG 20010904//EN"
 "http://www.w3.org/TR/2001/REC-SVG-20010904/DTD/svg10.dtd">
<svg version="1.0" xmlns="http://www.w3.org/2000/svg"
 width="32.000000pt" height="32.000000pt" viewBox="0 0 32.000000 32.000000"
 preserveAspectRatio="xMidYMid meet">
<metadata>
Created by potrace 1.16, written by Peter Selinger 2001-2019
</metadata>
<g transform="translate(0.000000,32.000000) scale(0.100000,-0.100000)"
fill="#000000" stroke="none">
<path fill="#000000" stroke="none" d="M188 303 c7 -3 16 -2 19 1 4 3 -2 6
-13 5 -11 0 -14 -3 -6 -6z"/>
<path fill="#000000" stroke="none" d="M134 274 c-21 -8 -40 -14 -41 -14 -1 0
-7 -10 -14 -21 -12 -23 -1 -20 31 7 8 7 40 14 70 16 54 3 54 3 24 14 -23 9
-39 9 -70 -2z"/>
<path fill="#000000" stroke="none" d="M160 246 c0 -2 11 -6 25 -8 13 -3 22
-1 19 3 -5 9 -44 13 -44 5z"/>
<path fill="#000000" stroke="none" d="M271 205 c0 -11 4 -29 9 -40 8 -18 9
-18 9 5 0 14 -4 32 -9 40 -8 12 -10 12 -9 -5z"/>
<path fill="#000000" stroke="none" d="M67 49 c7 -7 15 -10 18 -7 3 3 -2 9
-12 12 -14 6 -15 5 -6 -5z"/>
<path fill="#000000" stroke="none" d="M170 44 c-32 -12 -32 -13 -9 -13 14 -1
34 6 45 14 23 17 11 17 -36 -1z"/>
</g>
</svg>
