<?xml version="1.0" standalone="no"?>
<!DOCTYPE svg PUBLIC "-//W3C//DTD SVG 20010904//EN"
 "http://www.w3.org/TR/2001/REC-SVG-20010904/DTD/svg10.dtd">
<svg version="1.0" xmlns="http://www.w3.org/2000/svg"
 width="32.000000pt" height="32.000000pt" viewBox="0 0 32.000000 32.000000"
 preserveAspectRatio="xMidYMid meet">
<metadata>
Created by potrace 1.16, written by Peter Selinger 2001-2019
</metadata>
<g transform="translate(0.000000,32.000000) scale(0.100000,-0.100000)"
fill="#000000" stroke="none">
<path fill="#000000" stroke="none" d="M42 310 c-32 -14 -42 -49 -42 -153 1
-64 5 -100 16 -117 15 -24 15 -24 11 22 -3 26 -1 45 4 42 5 -3 9 -12 9 -20 0
-8 11 -26 25 -39 l24 -25 -22 -1 -22 0 23 -9 c29 -12 220 -11 228 1 3 5 -23 9
-58 10 -57 1 -60 2 -33 11 39 14 74 38 56 38 -11 0 -10 4 3 19 9 10 21 32 26
47 7 24 9 17 10 -36 2 -59 3 -62 11 -30 12 52 5 230 -11 240 -18 11 -230 11
-258 0z"/>
<path fill="#ffffff" stroke="none" d="M64 285 c-18 -15 -17 -16 16 -9 l35 6
-28 -26 c-15 -14 -37 -45 -47 -68 l-19 -43 6 70 c6 69 14 85 42 85 11 0 9 -4
-5 -15z"/>
<path fill="#ffffff" stroke="none" d="M133 293 c-7 -2 -21 -2 -30 0 -10 3 -4
5 12 5 17 0 24 -2 18 -5z"/>
<path fill="#ffffff" stroke="none" d="M300 243 c-1 -37 -3 -44 -10 -31 -6 9
-27 31 -47 47 l-38 31 48 0 47 0 0 -47z"/>
<path fill="#ffffff" stroke="none" d="M110 225 c-8 -9 -9 -15 -2 -15 6 0 14
5 17 10 8 13 75 13 95 0 9 -6 17 -5 22 3 9 15 28 -34 28 -73 0 -52 -102 -117
-162 -103 -19 5 -68 48 -68 59 0 20 45 116 58 124 24 13 26 12 12 -5z"/>
<path fill="#000000" stroke="none" d="M113 193 c-10 -10 -13 -14 -5 -9 7 5
30 13 50 17 37 7 37 7 6 8 -18 0 -40 -7 -51 -16z"/>
<path fill="#000000" stroke="none" d="M115 150 c-3 -6 1 -7 9 -4 18 7 21 14
7 14 -6 0 -13 -4 -16 -10z"/>
</g>
</svg>
