<?xml version="1.0" standalone="no"?>
<!DOCTYPE svg PUBLIC "-//W3C//DTD SVG 20010904//EN"
 "http://www.w3.org/TR/2001/REC-SVG-20010904/DTD/svg10.dtd">
<svg version="1.0" xmlns="http://www.w3.org/2000/svg"
 width="32.000000pt" height="32.000000pt" viewBox="0 0 32.000000 32.000000"
 preserveAspectRatio="xMidYMid meet">
<metadata>
Created by potrace 1.16, written by Peter Selinger 2001-2019
</metadata>
<g transform="translate(0.000000,32.000000) scale(0.100000,-0.100000)"
fill="#000000" stroke="none">
<path fill="#000000" stroke="none" d="M25 295 c-24 -23 -25 -31 -25 -133 0
-156 1 -157 162 -157 67 0 124 4 125 9 1 5 7 12 15 17 9 6 13 43 15 143 2 158
16 146 -155 146 -107 0 -114 -1 -137 -25z"/>
<path fill="#ffffff" stroke="none" d="M43 270 c-4 -16 -2 -19 12 -14 15 6 16
4 6 -12 -28 -50 -31 -50 -31 -1 0 26 4 47 9 47 5 0 7 -9 4 -20z"/>
<path fill="#ffffff" stroke="none" d="M300 279 c0 -6 -7 -9 -15 -5 -14 5 -14
2 0 -24 21 -41 19 -41 -19 -6 -27 26 -30 32 -17 38 25 10 51 9 51 -3z"/>
<path fill="#ffffff" stroke="none" d="M221 211 c16 -15 18 -59 4 -71 -17 -14
-21 -35 -5 -25 19 12 10 -12 -12 -31 -13 -10 -18 -12 -12 -4 12 17 13 59 1 77
-4 6 -3 14 3 18 5 3 10 1 10 -6 0 -7 3 -9 7 -6 8 9 -26 47 -43 47 -7 0 -16 4
-19 10 -6 10 55 2 66 -9z"/>
<path fill="#ffffff" stroke="none" d="M90 179 c-7 -11 -14 -18 -17 -15 -3 3
0 12 7 21 18 21 23 19 10 -6z"/>
<path fill="#ffffff" stroke="none" d="M184 194 c9 -3 13 -10 10 -15 -3 -5
-15 -4 -27 2 -22 10 -22 10 1 -8 14 -12 21 -27 20 -45 -1 -15 -4 -25 -6 -23
-6 5 -47 -39 -44 -47 5 -17 -39 -6 -58 14 -20 22 -29 64 -10 53 5 -3 12 6 16
20 9 37 61 63 98 49z"/>
<path fill="#ffffff" stroke="none" d="M263 142 c-3 -12 -9 -22 -14 -22 -5 0
-3 11 3 25 13 30 20 28 11 -3z"/>
<path fill="#ffffff" stroke="none" d="M296 68 c-1 -26 -7 -34 -28 -42 -15 -5
-31 -7 -35 -3 -9 10 10 27 33 32 11 2 21 4 23 4 2 1 -2 7 -8 15 -9 11 -9 15 1
19 7 3 13 6 14 6 1 1 1 -14 0 -31z"/>
<path fill="#ffffff" stroke="none" d="M66 23 c-11 -11 -36 13 -36 36 l0 26
20 -30 c10 -16 18 -31 16 -32z"/>
<path fill="#000000" stroke="none" d="M109 143 c-13 -15 -12 -15 10 -3 21 11
26 10 38 -6 7 -10 13 -13 13 -8 0 14 -21 34 -36 34 -6 0 -18 -7 -25 -17z"/>
</g>
</svg>
