<?xml version="1.0" standalone="no"?>
<!DOCTYPE svg PUBLIC "-//W3C//DTD SVG 20010904//EN"
 "http://www.w3.org/TR/2001/REC-SVG-20010904/DTD/svg10.dtd">
<svg version="1.0" xmlns="http://www.w3.org/2000/svg"
 width="32.000000pt" height="32.000000pt" viewBox="0 0 32.000000 32.000000"
 preserveAspectRatio="xMidYMid meet">
<metadata>
Created by potrace 1.16, written by Peter Selinger 2001-2019
</metadata>
<g transform="translate(0.000000,32.000000) scale(0.100000,-0.100000)"
fill="#000000" stroke="none">
<path fill="#000000" stroke="none" d="M25 295 c-24 -23 -25 -31 -25 -133 0
-155 0 -155 163 -160 123 -4 125 -4 138 19 9 16 14 69 16 155 2 156 15 144
-155 144 -107 0 -114 -1 -137 -25z"/>
<path fill="#ffffff" stroke="none" d="M42 268 c-3 -14 -2 -19 6 -14 16 9 15
-5 -1 -26 -11 -14 -13 -11 -14 23 -1 21 2 39 7 39 4 0 6 -10 2 -22z"/>
<path fill="#ffffff" stroke="none" d="M278 252 c20 -30 11 -28 -19 4 -13 15
-18 25 -10 22 8 -2 21 -14 29 -26z"/>
<path fill="#ffffff" stroke="none" d="M225 210 c4 -6 -6 -7 -27 -3 -44 8 -48
13 -10 13 17 0 34 -4 37 -10z"/>
<path fill="#ffffff" stroke="none" d="M175 190 c3 -6 -1 -7 -9 -4 -18 7 -21
14 -7 14 6 0 13 -4 16 -10z"/>
<path fill="#ffffff" stroke="none" d="M125 180 c-3 -5 4 -11 17 -11 19 -1 17
-3 -7 -8 -20 -4 -31 -13 -32 -26 -2 -11 0 -14 3 -7 6 12 36 17 47 6 8 -8 -3
-34 -15 -34 -5 0 -6 6 -2 13 5 9 3 9 -7 -1 -12 -11 -12 -14 0 -21 11 -7 9 -11
-7 -20 -11 -6 -25 -11 -31 -11 -15 0 -14 27 2 34 6 3 3 4 -7 3 -10 -1 -21 5
-24 13 -3 8 -1 12 3 7 5 -4 19 11 32 33 13 22 26 40 29 40 3 0 2 -4 -1 -10z"/>
<path fill="#ffffff" stroke="none" d="M223 139 c-6 -6 -7 3 -4 23 4 28 6 29
9 9 2 -13 0 -27 -5 -32z"/>
<path fill="#ffffff" stroke="none" d="M60 39 c0 -5 -7 -9 -15 -9 -9 0 -12 6
-9 15 6 15 24 11 24 -6z"/>
<path fill="#ffffff" stroke="none" d="M290 39 c0 -5 -14 -9 -31 -9 -16 0 -28
4 -25 9 3 5 17 9 31 9 14 0 25 -4 25 -9z"/>
</g>
</svg>
