<?xml version="1.0" standalone="no"?>
<!DOCTYPE svg PUBLIC "-//W3C//DTD SVG 20010904//EN"
 "http://www.w3.org/TR/2001/REC-SVG-20010904/DTD/svg10.dtd">
<svg version="1.0" xmlns="http://www.w3.org/2000/svg"
 width="32.000000pt" height="32.000000pt" viewBox="0 0 32.000000 32.000000"
 preserveAspectRatio="xMidYMid meet">
<metadata>
Created by potrace 1.16, written by Peter Selinger 2001-2019
</metadata>
<g transform="translate(0.000000,32.000000) scale(0.100000,-0.100000)"
fill="#000000" stroke="none">
<path fill="#000000" stroke="none" d="M22 158 l2 -143 3 137 4 137 137 4 137
3 -142 2 -143 2 2 -142z"/>
<path fill="#000000" stroke="none" d="M113 220 c-22 -26 -26 -85 -7 -101 8
-6 14 -20 14 -30 0 -11 5 -19 10 -19 6 0 10 6 10 13 0 8 4 7 10 -3 9 -13 11
-13 20 0 7 11 10 11 10 2 0 -7 5 -10 10 -7 6 3 10 15 10 26 0 10 4 19 9 19 13
0 22 30 14 43 -4 7 -6 19 -5 28 4 21 -15 35 -56 42 -25 5 -36 2 -49 -13z"/>
<path fill="#ffffff" stroke="none" d="M207 148 c-2 -7 -12 -12 -21 -12 -9 1
-16 -3 -16 -8 0 -12 -41 0 -60 18 -12 12 -6 14 44 14 42 0 56 -3 53 -12z"/>
<path fill="#000000" stroke="none" d="M246 201 c-4 -5 -2 -12 3 -15 5 -4 12
-2 15 3 4 5 2 12 -3 15 -5 4 -12 2 -15 -3z"/>
<path fill="#000000" stroke="none" d="M56 152 c-2 -4 -1 -14 3 -21 6 -10 10
-9 14 3 6 16 -8 32 -17 18z"/>
</g>
</svg>
