<?xml version="1.0" standalone="no"?>
<!DOCTYPE svg PUBLIC "-//W3C//DTD SVG 20010904//EN"
 "http://www.w3.org/TR/2001/REC-SVG-20010904/DTD/svg10.dtd">
<svg version="1.0" xmlns="http://www.w3.org/2000/svg"
 width="32.000000pt" height="32.000000pt" viewBox="0 0 32.000000 32.000000"
 preserveAspectRatio="xMidYMid meet">
<metadata>
Created by potrace 1.16, written by Peter Selinger 2001-2019
</metadata>
<g transform="translate(0.000000,32.000000) scale(0.100000,-0.100000)"
fill="#000000" stroke="none">
<path fill="#000000" stroke="none" d="M22 163 l2 -138 3 132 4 132 132 4 132
3 -137 2 -138 2 2 -137z"/>
<path fill="#000000" stroke="none" d="M115 210 c-14 -15 -15 -20 -4 -20 12 0
11 -2 -1 -10 -12 -8 -12 -10 2 -15 9 -4 22 -6 29 -4 56 7 96 -16 49 -28 -21
-6 -24 -12 -14 -38 7 -16 13 -10 40 43 10 19 -23 79 -48 86 -32 8 -33 8 -53
-14z"/>
<path fill="#000000" stroke="none" d="M90 153 c0 -6 7 -18 15 -27 8 -8 15
-22 15 -32 0 -13 3 -14 15 -4 11 9 15 9 15 1 0 -7 5 -9 12 -5 8 5 6 11 -5 19
-9 7 -14 15 -10 18 3 4 -3 7 -15 7 -11 0 -26 8 -31 18 -6 9 -11 12 -11 5z"/>
</g>
</svg>
