<?xml version="1.0" standalone="no"?>
<!DOCTYPE svg PUBLIC "-//W3C//DTD SVG 20010904//EN"
 "http://www.w3.org/TR/2001/REC-SVG-20010904/DTD/svg10.dtd">
<svg version="1.0" xmlns="http://www.w3.org/2000/svg"
 width="32.000000pt" height="32.000000pt" viewBox="0 0 32.000000 32.000000"
 preserveAspectRatio="xMidYMid meet">
<metadata>
Created by potrace 1.16, written by Peter Selinger 2001-2019
</metadata>
<g transform="translate(0.000000,32.000000) scale(0.100000,-0.100000)"
fill="#000000" stroke="none">
<path fill="#000000" stroke="none" d="M0 160 l0 -160 160 0 160 0 0 160 0
160 -160 0 -160 0 0 -160z"/>
<path fill="#ffffff" stroke="none" d="M168 293 l-137 -4 -4 -137 -3 -137 -2
143 -2 142 143 -2 142 -2 -137 -3z"/>
<path fill="#ffffff" stroke="none" d="M216 231 c18 15 32 3 16 -13 -8 -8 -9
-15 -1 -25 9 -10 8 -13 -4 -13 -9 0 -19 -10 -22 -21 -5 -16 -9 -18 -15 -8 -6
9 -20 3 -57 -27 l-48 -39 29 40 c17 22 35 43 40 48 7 4 6 10 -4 17 -13 8 -13
10 2 10 10 0 23 9 30 20 7 11 15 15 16 10 3 -7 9 -7 18 1z"/>
</g>
</svg>
