<?xml version="1.0" standalone="no"?>
<!DOCTYPE svg PUBLIC "-//W3C//DTD SVG 20010904//EN"
 "http://www.w3.org/TR/2001/REC-SVG-20010904/DTD/svg10.dtd">
<svg version="1.0" xmlns="http://www.w3.org/2000/svg"
 width="32.000000pt" height="32.000000pt" viewBox="0 0 32.000000 32.000000"
 preserveAspectRatio="xMidYMid meet">
<metadata>
Created by potrace 1.16, written by Peter Selinger 2001-2019
</metadata>
<g transform="translate(0.000000,32.000000) scale(0.100000,-0.100000)"
fill="#000000" stroke="none">
<path fill="#000000" stroke="none" d="M0 160 l0 -160 160 0 160 0 0 160 0
160 -160 0 -160 0 0 -160z"/>
<path fill="#ffffff" stroke="none" d="M203 296 c-8 -4 -34 -5 -58 -2 -53 8
-69 -8 -35 -36 12 -10 18 -18 13 -18 -6 0 -18 9 -28 20 -28 31 -6 47 64 46 38
-1 54 -4 44 -10z"/>
<path fill="#ffffff" stroke="none" d="M282 263 c22 -20 23 -46 1 -64 -15 -13
-15 -12 -2 9 25 41 -30 84 -61 47 -7 -8 -17 -15 -22 -15 -16 0 35 39 51 40 8
0 23 -7 33 -17z"/>
<path fill="#ffffff" stroke="none" d="M180 239 c0 -5 -4 -7 -10 -4 -5 3 -10
4 -10 1 0 -9 62 -36 71 -30 5 3 9 0 9 -5 0 -14 -37 -14 -45 -1 -8 14 -31 -9
-31 -30 0 -10 6 -16 13 -13 8 3 13 -3 13 -18 0 -31 -11 -46 -32 -46 -13 0 -15
4 -7 13 6 8 6 14 0 18 -5 3 -11 0 -14 -6 -3 -7 -4 -2 -3 12 1 14 6 31 10 38
12 20 -3 33 -25 22 -20 -11 -39 -6 -39 11 0 6 4 8 9 5 14 -9 58 18 53 32 -2 7
5 12 17 12 12 0 21 -5 21 -11z"/>
<path fill="#ffffff" stroke="none" d="M130 170 c-6 -11 -16 -18 -21 -14 -6 3
-3 12 8 20 24 18 26 17 13 -6z"/>
<path fill="#ffffff" stroke="none" d="M214 161 c-2 -3 -12 3 -22 13 -16 17
-16 18 5 5 12 -7 20 -15 17 -18z"/>
<path fill="#ffffff" stroke="none" d="M27 90 c-14 -38 -1 -64 37 -68 30 -4
48 24 25 39 -10 6 -11 9 -1 9 19 0 26 -28 12 -45 -16 -20 -49 -19 -72 2 -20
18 -23 45 -8 74 16 29 20 23 7 -11z"/>
</g>
</svg>
