<?xml version="1.0" standalone="no"?>
<!DOCTYPE svg PUBLIC "-//W3C//DTD SVG 20010904//EN"
 "http://www.w3.org/TR/2001/REC-SVG-20010904/DTD/svg10.dtd">
<svg version="1.0" xmlns="http://www.w3.org/2000/svg"
 width="32.000000pt" height="32.000000pt" viewBox="0 0 32.000000 32.000000"
 preserveAspectRatio="xMidYMid meet">
<metadata>
Created by potrace 1.16, written by Peter Selinger 2001-2019
</metadata>
<g transform="translate(0.000000,32.000000) scale(0.100000,-0.100000)"
fill="#000000" stroke="none">
<path fill="#000000" stroke="none" d="M0 160 l0 -160 160 0 160 0 0 160 0
160 -160 0 -160 0 0 -160z"/>
<path fill="#ffffff" stroke="none" d="M289 286 c40 -36 14 -106 -39 -106 -8
0 -4 6 10 13 29 14 37 41 20 62 -16 19 -44 19 -60 0 -7 -8 -20 -15 -29 -15
-11 0 -8 5 9 15 47 27 53 28 72 16 11 -7 22 -10 25 -7 3 2 -6 11 -19 19 -32
21 -183 18 -183 -3 0 -8 11 -20 25 -27 16 -8 19 -13 9 -13 -9 0 -24 9 -34 20
-31 34 -7 46 89 46 68 -1 88 -5 105 -20z"/>
<path fill="#ffffff" stroke="none" d="M177 234 c13 -13 14 -20 5 -34 -9 -14
-7 -21 9 -36 11 -10 19 -12 19 -6 0 7 -5 12 -11 12 -5 0 -7 5 -4 10 14 22 35
10 35 -20 0 -30 -21 -42 -35 -20 -4 6 -11 7 -17 4 -6 -4 -6 -10 1 -17 20 -20
12 -37 -19 -37 -30 0 -39 17 -20 36 7 7 4 16 -10 29 -11 10 -20 13 -20 7 0 -7
5 -12 11 -12 5 0 7 -4 4 -10 -14 -22 -35 -10 -35 20 0 30 17 39 36 20 7 -7 16
-4 29 10 10 11 13 20 7 20 -6 0 -12 -6 -15 -12 -3 -9 -7 -8 -12 4 -4 10 -1 24
7 32 16 19 16 19 35 0z"/>
<path fill="#ffffff" stroke="none" d="M61 126 c-31 -32 -24 -62 12 -58 32 3
46 -20 27 -43 -28 -34 -90 -4 -90 42 0 14 13 38 29 54 35 35 54 39 22 5z"/>
<path fill="#000000" stroke="none" d="M150 160 c0 -5 5 -10 10 -10 6 0 10 5
10 10 0 6 -4 10 -10 10 -5 0 -10 -4 -10 -10z"/>
<path fill="#000000" stroke="none" d="M20 63 c0 -43 71 -60 78 -19 3 15 0 18
-19 13 -15 -4 -30 0 -41 10 -17 15 -18 15 -18 -4z"/>
</g>
</svg>
