<?xml version="1.0" standalone="no"?>
<!DOCTYPE svg PUBLIC "-//W3C//DTD SVG 20010904//EN"
 "http://www.w3.org/TR/2001/REC-SVG-20010904/DTD/svg10.dtd">
<svg version="1.0" xmlns="http://www.w3.org/2000/svg"
 width="32.000000pt" height="32.000000pt" viewBox="0 0 32.000000 32.000000"
 preserveAspectRatio="xMidYMid meet">
<metadata>
Created by potrace 1.16, written by Peter Selinger 2001-2019
</metadata>
<g transform="translate(0.000000,32.000000) scale(0.100000,-0.100000)"
fill="#000000" stroke="none">
<path fill="#000000" stroke="none" d="M89 293 c-9 -10 -8 -18 6 -33 10 -11
25 -20 34 -20 10 0 7 5 -9 13 -44 22 -32 42 22 39 27 -2 54 1 62 5 9 5 -9 8
-45 9 -39 1 -63 -3 -70 -13z"/>
<path fill="#000000" stroke="none" d="M220 265 c-7 -8 -20 -15 -29 -16 -11 0
-12 -2 -3 -6 7 -3 22 3 32 12 38 34 87 -5 61 -47 -13 -21 -13 -22 2 -9 22 18
21 44 -1 64 -23 21 -46 22 -62 2z"/>
<path fill="#000000" stroke="none" d="M142 234 c-8 -8 -11 -22 -7 -32 5 -12
9 -13 12 -4 3 6 9 12 15 12 6 0 3 -9 -7 -20 -13 -14 -22 -17 -29 -10 -19 19
-36 10 -36 -20 0 -30 21 -42 35 -20 3 6 1 10 -4 10 -6 0 -11 5 -11 12 0 6 9 3
20 -7 14 -13 17 -22 10 -29 -19 -19 -10 -36 20 -36 31 0 39 17 19 37 -7 7 -7
13 -1 17 6 3 13 2 17 -4 14 -22 35 -10 35 20 0 30 -21 42 -35 20 -3 -5 -1 -10
4 -10 6 0 11 -5 11 -12 0 -6 -8 -4 -19 6 -16 15 -18 22 -9 36 9 14 8 21 -5 34
-19 19 -19 19 -35 0z"/>
<path fill="#ffffff" stroke="none" d="M170 160 c0 -5 -4 -10 -10 -10 -5 0
-10 5 -10 10 0 6 5 10 10 10 6 0 10 -4 10 -10z"/>
<path fill="#000000" stroke="none" d="M20 101 c-15 -29 -12 -56 8 -74 23 -21
56 -22 72 -2 14 17 7 45 -12 45 -10 0 -9 -3 1 -9 23 -15 5 -43 -25 -39 -38 4
-51 30 -37 68 13 34 9 40 -7 11z"/>
</g>
</svg>
