<?xml version="1.0" standalone="no"?>
<!DOCTYPE svg PUBLIC "-//W3C//DTD SVG 20010904//EN"
 "http://www.w3.org/TR/2001/REC-SVG-20010904/DTD/svg10.dtd">
<svg version="1.0" xmlns="http://www.w3.org/2000/svg"
 width="32.000000pt" height="32.000000pt" viewBox="0 0 32.000000 32.000000"
 preserveAspectRatio="xMidYMid meet">
<metadata>
Created by potrace 1.16, written by Peter Selinger 2001-2019
</metadata>
<g transform="translate(0.000000,32.000000) scale(0.100000,-0.100000)"
fill="#000000" stroke="none">
<path fill="#000000" stroke="none" d="M0 160 l0 -160 160 0 160 0 0 160 0
160 -160 0 -160 0 0 -160z"/>
<path fill="#ffffff" stroke="none" d="M149 301 c10 -7 4 -9 -20 -8 -28 2 -34
-2 -32 -17 1 -13 -2 -15 -10 -7 -7 7 -6 15 3 26 14 17 38 19 59 6z"/>
<path fill="#ffffff" stroke="none" d="M282 263 c10 -9 18 -21 18 -27 0 -6 -7
0 -16 13 -12 16 -23 22 -40 18 -13 -2 -21 0 -18 4 8 14 36 10 56 -8z"/>
<path fill="#ffffff" stroke="none" d="M137 244 c-3 -3 -12 -4 -19 -1 -8 3 -5
6 6 6 11 1 17 -2 13 -5z"/>
<path fill="#ffffff" stroke="none" d="M207 244 c-3 -3 -12 -4 -19 -1 -8 3 -5
6 6 6 11 1 17 -2 13 -5z"/>
<path fill="#ffffff" stroke="none" d="M119 199 c-6 -12 -9 -38 -5 -58 4 -25
2 -31 -4 -21 -5 8 -10 25 -10 38 0 23 16 62 26 62 2 0 0 -10 -7 -21z"/>
<path fill="#ffffff" stroke="none" d="M219 156 c-1 -31 -1 -31 -8 4 -4 20
-11 42 -15 50 -4 8 0 6 8 -4 9 -11 15 -34 15 -50z"/>
<path fill="#ffffff" stroke="none" d="M160 190 c0 -5 -4 -10 -10 -10 -5 0
-10 5 -10 10 0 6 5 10 10 10 6 0 10 -4 10 -10z"/>
<path fill="#ffffff" stroke="none" d="M140 155 c0 -8 -4 -15 -10 -15 -5 0
-10 7 -10 15 0 8 5 15 10 15 6 0 10 -7 10 -15z"/>
<path fill="#ffffff" stroke="none" d="M53 11 c-4 -6 -43 30 -43 40 0 5 10 -2
23 -14 13 -12 22 -24 20 -26z"/>
</g>
</svg>
