<?xml version="1.0" standalone="no"?>
<!DOCTYPE svg PUBLIC "-//W3C//DTD SVG 20010904//EN"
 "http://www.w3.org/TR/2001/REC-SVG-20010904/DTD/svg10.dtd">
<svg version="1.0" xmlns="http://www.w3.org/2000/svg"
 width="32.000000pt" height="32.000000pt" viewBox="0 0 32.000000 32.000000"
 preserveAspectRatio="xMidYMid meet">
<metadata>
Created by potrace 1.16, written by Peter Selinger 2001-2019
</metadata>
<g transform="translate(0.000000,32.000000) scale(0.100000,-0.100000)"
fill="#000000" stroke="none">
<path fill="#000000" stroke="none" d="M90 295 c-9 -11 -10 -19 -3 -26 8 -8
11 -6 10 7 -2 15 4 19 32 17 24 -1 30 1 20 8 -21 13 -45 11 -59 -6z"/>
<path fill="#000000" stroke="none" d="M226 271 c-3 -4 5 -6 18 -4 17 4 28 -2
40 -18 9 -13 16 -19 16 -13 0 28 -61 57 -74 35z"/>
<path fill="#000000" stroke="none" d="M118 243 c7 -3 16 -2 19 1 4 3 -2 6
-13 5 -11 0 -14 -3 -6 -6z"/>
<path fill="#000000" stroke="none" d="M188 243 c7 -3 16 -2 19 1 4 3 -2 6
-13 5 -11 0 -14 -3 -6 -6z"/>
<path fill="#000000" stroke="none" d="M110 201 c-13 -24 -13 -61 0 -81 6 -10
8 -4 4 21 -4 20 -1 46 5 58 7 11 9 21 7 21 -3 0 -10 -9 -16 -19z"/>
<path fill="#000000" stroke="none" d="M196 210 c4 -8 11 -30 15 -50 7 -35 7
-35 8 -4 0 16 -6 39 -15 50 -8 10 -12 12 -8 4z"/>
<path fill="#000000" stroke="none" d="M140 190 c0 -5 5 -10 10 -10 6 0 10 5
10 10 0 6 -4 10 -10 10 -5 0 -10 -4 -10 -10z"/>
<path fill="#000000" stroke="none" d="M120 155 c0 -8 5 -15 10 -15 6 0 10 7
10 15 0 8 -4 15 -10 15 -5 0 -10 -7 -10 -15z"/>
<path fill="#000000" stroke="none" d="M10 51 c0 -10 39 -46 43 -40 2 2 -7 14
-20 26 -13 12 -23 19 -23 14z"/>
</g>
</svg>
