<?xml version="1.0" standalone="no"?>
<!DOCTYPE svg PUBLIC "-//W3C//DTD SVG 20010904//EN"
 "http://www.w3.org/TR/2001/REC-SVG-20010904/DTD/svg10.dtd">
<svg version="1.0" xmlns="http://www.w3.org/2000/svg"
 width="32.000000pt" height="32.000000pt" viewBox="0 0 32.000000 32.000000"
 preserveAspectRatio="xMidYMid meet">
<metadata>
Created by potrace 1.16, written by Peter Selinger 2001-2019
</metadata>
<g transform="translate(0.000000,32.000000) scale(0.100000,-0.100000)"
fill="#000000" stroke="none">
<path fill="#000000" stroke="none" d="M88 292 c-10 -11 -7 -19 14 -37 23 -20
25 -25 13 -35 -35 -29 3 -160 45 -160 43 0 80 131 45 160 -13 11 -11 15 10 32
29 22 53 21 69 -5 14 -22 -2 -49 -35 -58 -21 -6 -21 -7 -4 -8 57 -3 86 67 44
105 -17 15 -37 19 -105 20 -62 0 -88 -4 -96 -14z"/>
<path fill="#ffffff" stroke="none" d="M287 278 c10 -10 12 -18 6 -18 -7 0
-15 5 -18 10 -10 16 -34 12 -66 -12 -26 -19 -31 -20 -40 -8 -8 13 -10 13 -18
1 -8 -12 -13 -12 -35 3 -25 16 -31 27 -21 37 2 3 43 5 89 5 67 -1 89 -5 103
-18z"/>
<path fill="#ffffff" stroke="none" d="M205 210 c3 -5 -1 -10 -9 -10 -9 0 -16
5 -16 10 0 6 4 10 9 10 6 0 13 -4 16 -10z"/>
<path fill="#ffffff" stroke="none" d="M141 147 c-8 -8 -14 -7 -23 2 -11 10
-9 15 7 27 18 13 20 13 23 -2 2 -9 -1 -21 -7 -27z"/>
<path fill="#ffffff" stroke="none" d="M200 175 c9 -11 10 -19 2 -27 -14 -14
-32 -1 -32 23 0 23 13 25 30 4z"/>
<path fill="#ffffff" stroke="none" d="M188 103 c-6 -7 -18 -13 -28 -13 -10 0
-22 6 -28 13 -8 9 -2 12 28 12 30 0 36 -3 28 -12z"/>
<path fill="#000000" stroke="none" d="M120 159 c0 -5 5 -7 10 -4 6 3 10 8 10
11 0 2 -4 4 -10 4 -5 0 -10 -5 -10 -11z"/>
<path fill="#000000" stroke="none" d="M180 159 c0 -5 5 -7 10 -4 6 3 10 8 10
11 0 2 -4 4 -10 4 -5 0 -10 -5 -10 -11z"/>
<path fill="#000000" stroke="none" d="M39 121 c-16 -16 -29 -40 -29 -54 0
-46 62 -76 90 -42 19 23 5 46 -27 43 -40 -4 -44 32 -7 61 15 11 21 21 15 21
-7 0 -26 -13 -42 -29z"/>
<path fill="#ffffff" stroke="none" d="M79 57 c19 5 22 2 19 -13 -7 -41 -78
-24 -78 19 0 19 1 19 18 4 11 -10 26 -14 41 -10z"/>
</g>
</svg>
