<?xml version="1.0" standalone="no"?>
<!DOCTYPE svg PUBLIC "-//W3C//DTD SVG 20010904//EN"
 "http://www.w3.org/TR/2001/REC-SVG-20010904/DTD/svg10.dtd">
<svg version="1.0" xmlns="http://www.w3.org/2000/svg"
 width="32.000000pt" height="32.000000pt" viewBox="0 0 32.000000 32.000000"
 preserveAspectRatio="xMidYMid meet">
<metadata>
Created by potrace 1.16, written by Peter Selinger 2001-2019
</metadata>
<g transform="translate(0.000000,32.000000) scale(0.100000,-0.100000)"
fill="#000000" stroke="none">
<path fill="#000000" stroke="none" d="M0 160 l0 -160 160 0 160 0 0 160 0
160 -160 0 -160 0 0 -160z"/>
<path fill="#ffffff" stroke="none" d="M289 286 c28 -25 27 -70 -1 -90 -12 -9
-27 -16 -32 -16 -6 0 0 7 12 16 24 17 29 43 10 63 -11 10 -9 11 7 6 18 -6 18
-5 -2 13 -19 17 -35 20 -105 18 -74 -2 -83 -4 -83 -21 0 -21 -20 -31 -30 -16
-4 7 0 8 11 4 12 -4 15 -3 10 6 -17 26 13 37 98 37 68 -1 88 -5 105 -20z"/>
<path fill="#ffffff" stroke="none" d="M255 271 c7 -12 -12 -24 -25 -16 -11 7
-4 25 10 25 5 0 11 -4 15 -9z"/>
<path fill="#ffffff" stroke="none" d="M130 239 c0 -11 -7 -19 -16 -19 -11 0
-14 5 -10 16 3 9 6 20 6 25 0 6 5 7 10 4 6 -3 10 -15 10 -26z"/>
<path fill="#ffffff" stroke="none" d="M219 228 c1 -5 -6 -8 -14 -8 -15 0 -21
31 -8 44 7 6 20 -17 22 -36z"/>
<path fill="#ffffff" stroke="none" d="M181 230 c6 -17 16 -27 22 -23 6 4 8
-2 4 -17 -6 -23 -6 -23 19 3 32 35 37 34 16 -3 -9 -16 -23 -30 -30 -30 -8 0
-12 -6 -9 -12 2 -7 11 -12 20 -12 9 1 14 -2 11 -7 -3 -5 -12 -9 -21 -9 -10 0
-13 -6 -9 -17 5 -15 4 -15 -9 1 -15 19 -15 19 -15 -5 0 -19 -2 -21 -10 -9 -9
13 -11 13 -20 0 -8 -12 -10 -10 -10 9 0 24 0 24 -15 5 -13 -16 -14 -16 -9 -1
4 11 1 17 -9 17 -9 0 -18 4 -21 9 -3 5 2 8 11 7 9 0 18 5 20 12 3 6 -1 12 -9
12 -7 0 -21 14 -30 30 -21 37 -16 38 16 3 25 -26 25 -26 19 -3 -4 15 -2 21 4
17 6 -4 16 6 22 23 13 38 29 38 42 0z"/>
<path fill="#ffffff" stroke="none" d="M56 121 c-26 -29 -17 -57 17 -53 32 3
46 -20 27 -43 -27 -33 -90 -4 -90 40 0 25 35 75 52 75 6 0 3 -9 -6 -19z"/>
<path fill="#000000" stroke="none" d="M140 182 c0 -14 11 -21 26 -15 21 8 17
23 -6 23 -11 0 -20 -4 -20 -8z"/>
<path fill="#000000" stroke="none" d="M20 63 c0 -43 71 -60 78 -19 3 15 0 18
-19 13 -15 -4 -30 0 -41 10 -17 15 -18 15 -18 -4z"/>
</g>
</svg>
