<?xml version="1.0" standalone="no"?>
<!DOCTYPE svg PUBLIC "-//W3C//DTD SVG 20010904//EN"
 "http://www.w3.org/TR/2001/REC-SVG-20010904/DTD/svg10.dtd">
<svg version="1.0" xmlns="http://www.w3.org/2000/svg"
 width="32.000000pt" height="32.000000pt" viewBox="0 0 32.000000 32.000000"
 preserveAspectRatio="xMidYMid meet">
<metadata>
Created by potrace 1.16, written by Peter Selinger 2001-2019
</metadata>
<g transform="translate(0.000000,32.000000) scale(0.100000,-0.100000)"
fill="#000000" stroke="none">
<path fill="#000000" stroke="none" d="M0 160 l0 -160 160 0 160 0 0 160 0
160 -160 0 -160 0 0 -160z"/>
<path fill="#ffffff" stroke="none" d="M168 293 l-138 -4 0 -128 c0 -94 3
-131 13 -134 7 -3 5 -6 -5 -6 -16 -1 -18 12 -18 139 l0 140 143 -2 142 -2
-137 -3z"/>
<path fill="#ffffff" stroke="none" d="M135 220 c-21 -22 -41 -38 -43 -35 -6
6 60 74 73 74 5 1 -8 -17 -30 -39z"/>
<path fill="#ffffff" stroke="none" d="M211 201 c17 -39 17 -40 -10 -65 -15
-14 -30 -26 -34 -26 -4 0 -15 17 -26 38 -11 20 -20 33 -21 29 0 -4 7 -21 15
-37 9 -17 13 -30 11 -30 -3 0 -13 14 -22 31 -15 31 -15 32 17 65 18 19 38 34
43 34 6 0 18 -18 27 -39z"/>
<path fill="#ffffff" stroke="none" d="M260 170 c0 -3 -25 -30 -55 -60 l-56
-55 -47 25 c-49 26 -66 61 -41 84 9 8 11 7 6 -6 -5 -14 5 -24 45 -44 l51 -26
43 43 c41 41 42 42 27 68 l-15 26 21 -25 c11 -14 21 -27 21 -30z"/>
</g>
</svg>
