<?xml version="1.0" standalone="no"?>
<!DOCTYPE svg PUBLIC "-//W3C//DTD SVG 20010904//EN"
 "http://www.w3.org/TR/2001/REC-SVG-20010904/DTD/svg10.dtd">
<svg version="1.0" xmlns="http://www.w3.org/2000/svg"
 width="32.000000pt" height="32.000000pt" viewBox="0 0 32.000000 32.000000"
 preserveAspectRatio="xMidYMid meet">
<metadata>
Created by potrace 1.16, written by Peter Selinger 2001-2019
</metadata>
<g transform="translate(0.000000,32.000000) scale(0.100000,-0.100000)"
fill="#000000" stroke="none">
<path fill="#000000" stroke="none" d="M191 269 c0 -8 -16 -30 -34 -47 l-33
-32 -22 23 c-19 20 -20 26 -9 35 8 7 18 8 22 4 5 -4 5 -1 1 6 -6 10 -11 10
-21 2 -8 -7 -19 -9 -25 -5 -21 13 -9 -12 20 -40 28 -27 29 -29 14 -54 -9 -15
-29 -34 -45 -43 -31 -18 -39 -54 -17 -76 18 -18 33 -15 18 3 -16 19 3 70 22
59 7 -5 8 -3 4 5 -5 8 0 14 13 18 11 3 23 14 26 24 6 17 17 19 90 19 80 0 83
1 78 21 -5 18 -7 19 -15 5 -11 -20 -123 -23 -134 -3 -4 6 -3 9 1 4 5 -4 24 7
43 25 19 18 33 26 30 18 -4 -11 2 -15 18 -15 20 0 22 2 10 11 -11 7 -12 14 -5
21 8 8 7 13 -2 18 -7 5 -10 4 -5 -3 3 -6 2 -13 -4 -17 -5 -3 -10 0 -10 7 0 10
-2 10 -9 -1 -7 -11 -10 -10 -14 5 -3 13 -5 14 -6 3z"/>
<path fill="#ffffff" stroke="none" d="M200 247 c0 -2 -12 -14 -27 -28 l-28
-24 24 28 c23 25 31 32 31 24z"/>
<path fill="#000000" stroke="none" d="M138 253 c7 -3 16 -2 19 1 4 3 -2 6
-13 5 -11 0 -14 -3 -6 -6z"/>
</g>
</svg>
