<?xml version="1.0" standalone="no"?>
<!DOCTYPE svg PUBLIC "-//W3C//DTD SVG 20010904//EN"
 "http://www.w3.org/TR/2001/REC-SVG-20010904/DTD/svg10.dtd">
<svg version="1.0" xmlns="http://www.w3.org/2000/svg"
 width="32.000000pt" height="32.000000pt" viewBox="0 0 32.000000 32.000000"
 preserveAspectRatio="xMidYMid meet">
<metadata>
Created by potrace 1.16, written by Peter Selinger 2001-2019
</metadata>
<g transform="translate(0.000000,32.000000) scale(0.100000,-0.100000)"
fill="#000000" stroke="none">
<path fill="#000000" stroke="none" d="M203 265 c-17 -12 -31 -13 -63 -6 -25
6 -42 5 -46 -1 -3 -5 -12 -7 -20 -4 -23 9 -16 -6 18 -41 l32 -33 -47 -43 c-46
-42 -56 -67 -38 -96 14 -21 37 -6 44 27 7 33 49 80 55 62 2 -6 -2 -18 -10 -27
-10 -13 -10 -15 0 -9 14 8 37 55 34 69 -1 4 29 7 67 7 61 0 69 2 65 18 -3 9
-21 28 -40 41 -34 23 -44 41 -23 41 5 0 7 -5 3 -12 -4 -7 -3 -8 5 -4 11 7 6
26 -7 26 -4 0 -17 -7 -29 -15z"/>
<path fill="#ffffff" stroke="none" d="M145 234 c14 -6 14 -8 -1 -25 -16 -18
-18 -18 -36 -3 -10 10 -18 21 -18 26 0 9 31 11 55 2z"/>
<path fill="#ffffff" stroke="none" d="M231 210 c9 0 22 -7 29 -15 11 -13 5
-15 -44 -15 -39 0 -55 4 -50 11 3 6 16 8 28 5 19 -5 19 -4 4 8 -10 7 -15 16
-11 20 4 3 11 2 17 -4 5 -5 18 -10 27 -10z"/>
</g>
</svg>
