<?xml version="1.0" standalone="no"?>
<!DOCTYPE svg PUBLIC "-//W3C//DTD SVG 20010904//EN"
 "http://www.w3.org/TR/2001/REC-SVG-20010904/DTD/svg10.dtd">
<svg version="1.0" xmlns="http://www.w3.org/2000/svg"
 width="32.000000pt" height="32.000000pt" viewBox="0 0 32.000000 32.000000"
 preserveAspectRatio="xMidYMid meet">
<metadata>
Created by potrace 1.16, written by Peter Selinger 2001-2019
</metadata>
<g transform="translate(0.000000,32.000000) scale(0.100000,-0.100000)"
fill="#000000" stroke="none">
<path fill="#000000" stroke="none" d="M203 265 c-17 -12 -31 -13 -63 -6 -25
6 -42 5 -46 -1 -3 -5 -12 -7 -20 -4 -23 9 -16 -6 18 -41 l32 -33 -47 -43 c-46
-42 -56 -67 -38 -96 13 -21 38 -6 46 27 6 31 41 70 51 59 4 -4 1 -14 -7 -24
-11 -13 -11 -15 -1 -9 14 8 37 55 34 69 -1 4 29 7 67 7 61 0 69 2 65 18 -3 9
-21 28 -40 41 -34 23 -44 41 -23 41 5 0 7 -5 3 -12 -4 -7 -3 -8 5 -4 11 7 6
26 -7 26 -4 0 -17 -7 -29 -15z"/>
<path fill="#ffffff" stroke="none" d="M145 234 c14 -6 14 -8 -1 -25 -16 -18
-18 -18 -36 -3 -10 10 -18 21 -18 26 0 9 31 11 55 2z"/>
<path fill="#ffffff" stroke="none" d="M260 195 c11 -13 6 -15 -39 -15 -35 0
-50 4 -46 11 4 6 13 8 21 5 8 -3 14 -1 14 4 0 15 36 12 50 -5z"/>
</g>
</svg>
