<?xml version="1.0" standalone="no"?>
<!DOCTYPE svg PUBLIC "-//W3C//DTD SVG 20010904//EN"
 "http://www.w3.org/TR/2001/REC-SVG-20010904/DTD/svg10.dtd">
<svg version="1.0" xmlns="http://www.w3.org/2000/svg"
 width="32.000000pt" height="32.000000pt" viewBox="0 0 32.000000 32.000000"
 preserveAspectRatio="xMidYMid meet">
<metadata>
Created by potrace 1.16, written by Peter Selinger 2001-2019
</metadata>
<g transform="translate(0.000000,32.000000) scale(0.100000,-0.100000)"
fill="#000000" stroke="none">
<path fill="#000000" stroke="none" d="M68 223 c-60 -9 -23 -39 54 -45 32 -3
61 -8 65 -11 3 -4 -2 -22 -12 -41 -19 -36 -15 -66 9 -66 23 0 116 95 116 118
0 40 -116 63 -232 45z"/>
<path fill="#ffffff" stroke="none" d="M240 211 c40 -11 35 -59 -10 -89 -19
-13 -35 -28 -35 -34 0 -6 -6 -13 -12 -15 -16 -6 -16 2 -1 30 18 33 21 69 6 78
-7 5 -26 9 -41 9 -19 0 -26 4 -21 12 5 8 2 9 -12 4 -23 -9 -24 -9 -49 -6 -32
4 44 17 100 18 28 0 61 -3 75 -7z"/>
</g>
</svg>
