<?xml version="1.0" standalone="no"?>
<!DOCTYPE svg PUBLIC "-//W3C//DTD SVG 20010904//EN"
 "http://www.w3.org/TR/2001/REC-SVG-20010904/DTD/svg10.dtd">
<svg version="1.0" xmlns="http://www.w3.org/2000/svg"
 width="32.000000pt" height="32.000000pt" viewBox="0 0 32.000000 32.000000"
 preserveAspectRatio="xMidYMid meet">
<metadata>
Created by potrace 1.16, written by Peter Selinger 2001-2019
</metadata>
<g transform="translate(0.000000,32.000000) scale(0.100000,-0.100000)"
fill="#000000" stroke="none">
<path fill="#000000" stroke="none" d="M0 160 l0 -160 160 0 160 0 0 160 0
160 -160 0 -160 0 0 -160z"/>
<path fill="#ffffff" stroke="none" d="M260 214 c28 -11 40 -22 40 -36 0 -23
-93 -118 -116 -118 -24 0 -28 30 -9 66 10 19 15 37 12 41 -4 3 -33 8 -65 11
-55 4 -82 15 -82 33 0 21 167 24 220 3z"/>
<path fill="#000000" stroke="none" d="M237 179 c3 -11 12 -19 19 -19 21 0 17
27 -5 33 -14 3 -17 0 -14 -14z"/>
<path fill="#000000" stroke="none" d="M221 146 c-9 -10 -6 -12 14 -8 29 5 31
8 11 15 -8 3 -19 0 -25 -7z"/>
</g>
</svg>
