<?xml version="1.0" standalone="no"?>
<!DOCTYPE svg PUBLIC "-//W3C//DTD SVG 20010904//EN"
 "http://www.w3.org/TR/2001/REC-SVG-20010904/DTD/svg10.dtd">
<svg version="1.0" xmlns="http://www.w3.org/2000/svg"
 width="32.000000pt" height="32.000000pt" viewBox="0 0 32.000000 32.000000"
 preserveAspectRatio="xMidYMid meet">
<metadata>
Created by potrace 1.16, written by Peter Selinger 2001-2019
</metadata>
<g transform="translate(0.000000,32.000000) scale(0.100000,-0.100000)"
fill="#000000" stroke="none">
<path fill="#000000" stroke="none" d="M210 285 c-7 -8 -19 -15 -27 -15 -9 0
-11 -5 -7 -12 5 -8 1 -7 -10 2 -16 13 -20 12 -31 -3 -7 -9 -20 -17 -29 -17
-11 0 -16 -9 -16 -30 0 -25 -4 -30 -25 -30 -26 0 -26 2 -29 -115 l-1 -30 83
-9 c54 -6 86 -5 90 1 4 5 15 12 25 16 9 3 17 13 17 22 0 8 5 15 10 15 6 0 10
-13 10 -30 0 -23 4 -30 20 -30 17 0 20 7 20 50 0 49 -1 50 -30 50 -28 0 -30 2
-30 41 0 22 4 38 8 35 4 -2 9 20 10 50 2 51 1 54 -22 54 -13 0 -29 -7 -36 -15z"/>
<path fill="#ffffff" stroke="none" d="M230 133 c0 -7 -4 -13 -10 -13 -5 0
-10 12 -10 28 0 21 2 24 10 12 5 -8 10 -21 10 -27z"/>
</g>
</svg>
