<?xml version="1.0" standalone="no"?>
<!DOCTYPE svg PUBLIC "-//W3C//DTD SVG 20010904//EN"
 "http://www.w3.org/TR/2001/REC-SVG-20010904/DTD/svg10.dtd">
<svg version="1.0" xmlns="http://www.w3.org/2000/svg"
 width="32.000000pt" height="32.000000pt" viewBox="0 0 32.000000 32.000000"
 preserveAspectRatio="xMidYMid meet">
<metadata>
Created by potrace 1.16, written by Peter Selinger 2001-2019
</metadata>
<g transform="translate(0.000000,32.000000) scale(0.100000,-0.100000)"
fill="#000000" stroke="none">
<path fill="#000000" stroke="none" d="M0 160 l0 -160 160 0 160 0 0 160 0
160 -160 0 -160 0 0 -160z"/>
<path fill="#ffffff" stroke="none" d="M309 226 c-19 -18 -109 -63 -109 -55 0
8 -5 7 -15 -1 -9 -7 -18 -11 -21 -8 -6 6 115 66 135 67 8 1 12 -1 10 -3z"/>
<path fill="#ffffff" stroke="none" d="M144 145 c-3 -8 -9 -14 -12 -13 -4 1
-23 -6 -42 -14 -70 -31 -83 -28 -25 5 67 39 87 44 79 22z"/>
</g>
</svg>
