<?xml version="1.0" standalone="no"?>
<!DOCTYPE svg PUBLIC "-//W3C//DTD SVG 20010904//EN"
 "http://www.w3.org/TR/2001/REC-SVG-20010904/DTD/svg10.dtd">
<svg version="1.0" xmlns="http://www.w3.org/2000/svg"
 width="32.000000pt" height="32.000000pt" viewBox="0 0 32.000000 32.000000"
 preserveAspectRatio="xMidYMid meet">
<metadata>
Created by potrace 1.16, written by Peter Selinger 2001-2019
</metadata>
<g transform="translate(0.000000,32.000000) scale(0.100000,-0.100000)"
fill="#000000" stroke="none">
<path fill="#000000" stroke="none" d="M248 206 c-26 -13 -50 -20 -53 -17 -3
3 -3 -3 1 -13 5 -12 9 -14 14 -6 4 6 29 22 56 35 27 13 45 24 39 24 -5 0 -31
-10 -57 -23z"/>
<path fill="#000000" stroke="none" d="M65 123 c-33 -18 -55 -32 -50 -33 6 0
33 13 62 29 34 19 54 25 57 17 3 -8 5 -8 5 1 2 22 -14 19 -74 -14z"/>
</g>
</svg>
