<?xml version="1.0" standalone="no"?>
<!DOCTYPE svg PUBLIC "-//W3C//DTD SVG 20010904//EN"
 "http://www.w3.org/TR/2001/REC-SVG-20010904/DTD/svg10.dtd">
<svg version="1.0" xmlns="http://www.w3.org/2000/svg"
 width="32.000000pt" height="32.000000pt" viewBox="0 0 32.000000 32.000000"
 preserveAspectRatio="xMidYMid meet">
<metadata>
Created by potrace 1.16, written by Peter Selinger 2001-2019
</metadata>
<g transform="translate(0.000000,32.000000) scale(0.100000,-0.100000)"
fill="#000000" stroke="none">
<path fill="#000000" stroke="none" d="M150 163 l-135 -138 138 135 c127 125
142 140 134 140 -1 0 -63 -62 -137 -137z"/>
<path fill="#000000" stroke="none" d="M229 163 l-24 -28 28 24 c25 23 32 31
24 31 -2 0 -14 -12 -28 -27z"/>
<path fill="#000000" stroke="none" d="M149 83 l-24 -28 28 24 c15 14 27 26
27 28 0 8 -8 1 -31 -24z"/>
</g>
</svg>
