<?xml version="1.0" standalone="no"?>
<!DOCTYPE svg PUBLIC "-//W3C//DTD SVG 20010904//EN"
 "http://www.w3.org/TR/2001/REC-SVG-20010904/DTD/svg10.dtd">
<svg version="1.0" xmlns="http://www.w3.org/2000/svg"
 width="32.000000pt" height="32.000000pt" viewBox="0 0 32.000000 32.000000"
 preserveAspectRatio="xMidYMid meet">
<metadata>
Created by potrace 1.16, written by Peter Selinger 2001-2019
</metadata>
<g transform="translate(0.000000,32.000000) scale(0.100000,-0.100000)"
fill="#000000" stroke="none">
<path fill="#000000" stroke="none" d="M0 160 l0 -160 160 0 160 0 0 160 0
160 -160 0 -160 0 0 -160z"/>
<path fill="#ffffff" stroke="none" d="M302 301 c-12 -7 -12 -12 0 -30 11 -18
10 -27 -10 -64 -12 -23 -22 -51 -22 -61 0 -16 -3 -17 -12 -8 -16 16 -21 15
-44 -5 -40 -37 -47 -52 -34 -68 10 -12 9 -15 -6 -15 -11 0 -38 -10 -61 -22
-37 -20 -46 -21 -64 -10 -18 12 -23 12 -30 0 -5 -7 -9 -8 -9 -3 0 6 28 37 62
70 55 52 57 53 14 8 -46 -49 -53 -73 -19 -73 20 0 83 47 83 63 0 15 71 87 87
87 16 0 63 62 63 83 0 34 -24 27 -73 -19 -45 -43 -44 -41 8 14 33 34 64 62 70
62 5 0 4 -4 -3 -9z"/>
<path fill="#ffffff" stroke="none" d="M170 176 c0 -2 -8 -10 -17 -17 -16 -13
-17 -12 -4 4 13 16 21 21 21 13z"/>
</g>
</svg>
