<?xml version="1.0" standalone="no"?>
<!DOCTYPE svg PUBLIC "-//W3C//DTD SVG 20010904//EN"
 "http://www.w3.org/TR/2001/REC-SVG-20010904/DTD/svg10.dtd">
<svg version="1.0" xmlns="http://www.w3.org/2000/svg"
 width="32.000000pt" height="32.000000pt" viewBox="0 0 32.000000 32.000000"
 preserveAspectRatio="xMidYMid meet">
<metadata>
Created by potrace 1.16, written by Peter Selinger 2001-2019
</metadata>
<g transform="translate(0.000000,32.000000) scale(0.100000,-0.100000)"
fill="#000000" stroke="none">
<path fill="#000000" stroke="none" d="M0 160 l0 -160 160 0 160 0 0 160 0
160 -160 0 -160 0 0 -160z"/>
<path fill="#ffffff" stroke="none" d="M310 272 c0 -29 -9 -48 -41 -87 -23
-28 -44 -48 -47 -47 -2 2 -9 -2 -13 -10 -5 -7 -9 -8 -9 -2 0 5 16 26 36 45 42
40 64 79 64 111 0 18 -28 -5 -140 -117 -77 -77 -135 -142 -130 -143 25 -9 65
12 112 56 28 26 49 40 47 30 -2 -9 -26 -34 -54 -57 -39 -32 -58 -41 -87 -41
-21 0 -38 3 -38 7 0 10 283 293 292 293 5 0 8 -17 8 -38z"/>
</g>
</svg>
