<?xml version="1.0" standalone="no"?>
<!DOCTYPE svg PUBLIC "-//W3C//DTD SVG 20010904//EN"
 "http://www.w3.org/TR/2001/REC-SVG-20010904/DTD/svg10.dtd">
<svg version="1.0" xmlns="http://www.w3.org/2000/svg"
 width="32.000000pt" height="32.000000pt" viewBox="0 0 32.000000 32.000000"
 preserveAspectRatio="xMidYMid meet">
<metadata>
Created by potrace 1.16, written by Peter Selinger 2001-2019
</metadata>
<g transform="translate(0.000000,32.000000) scale(0.100000,-0.100000)"
fill="#000000" stroke="none">
<path fill="#000000" stroke="none" d="M233 300 c4 -16 0 -20 -19 -20 -15 0
-24 -6 -24 -15 0 -18 12 -19 28 -3 7 7 12 8 12 4 0 -5 8 -2 17 5 11 10 14 10
9 2 -4 -7 -2 -13 3 -13 6 0 11 -7 11 -15 0 -13 -4 -14 -20 -5 -11 6 -21 8 -21
5 -1 -3 -3 -9 -4 -15 -1 -5 -3 -21 -4 -35 -1 -19 -8 -26 -33 -33 -24 -6 -33
-14 -34 -30 -2 -28 -3 -29 -39 -33 -42 -4 -58 -18 -44 -35 9 -11 8 -14 -4 -14
-20 0 -31 16 -17 25 6 4 8 10 5 15 -3 5 -1 11 5 15 15 9 12 25 -5 25 -9 0 -15
-9 -15 -24 0 -19 -4 -23 -20 -19 -26 7 -27 -23 -1 -54 18 -21 25 -23 101 -18
46 3 91 10 101 15 10 6 27 10 38 10 24 0 61 29 61 48 0 7 -8 16 -17 19 -10 4
-21 11 -25 17 -13 19 -8 64 8 70 8 3 12 2 9 -4 -3 -6 1 -10 9 -10 12 0 16 10
16 40 0 22 -3 40 -7 40 -5 0 -16 14 -25 30 -20 36 -64 43 -55 10z"/>
<path fill="#ffffff" stroke="none" d="M300 225 c0 -8 -7 -15 -15 -15 -13 0
-14 3 -3 15 16 18 18 18 18 0z"/>
<path fill="#ffffff" stroke="none" d="M256 132 c1 -7 0 -8 -3 -2 -2 5 -17 8
-31 5 -23 -4 -24 -4 -7 4 24 11 38 9 41 -7z"/>
<path fill="#ffffff" stroke="none" d="M186 96 c-4 -15 -1 -26 7 -29 9 -4 9
-6 0 -6 -6 -1 -14 3 -17 7 -6 9 4 52 11 52 3 0 2 -11 -1 -24z"/>
<path fill="#ffffff" stroke="none" d="M234 111 c3 -5 -3 -11 -15 -14 -16 -4
-18 -3 -8 9 13 16 16 17 23 5z"/>
<path fill="#ffffff" stroke="none" d="M110 35 c0 -8 -7 -15 -15 -15 -13 0
-14 3 -3 15 16 18 18 18 18 0z"/>
<path fill="#000000" stroke="none" d="M140 173 c-47 -48 -78 -81 -69 -75 9 7
18 10 20 7 3 -2 34 25 69 60 36 36 61 65 56 65 -5 0 -3 7 4 15 32 39 -3 7 -80
-72z"/>
<path fill="#ffffff" stroke="none" d="M210 227 c0 -1 -28 -29 -62 -62 l-63
-60 60 63 c55 58 65 67 65 59z"/>
</g>
</svg>
