<?xml version="1.0" standalone="no"?>
<!DOCTYPE svg PUBLIC "-//W3C//DTD SVG 20010904//EN"
 "http://www.w3.org/TR/2001/REC-SVG-20010904/DTD/svg10.dtd">
<svg version="1.0" xmlns="http://www.w3.org/2000/svg"
 width="32.000000pt" height="32.000000pt" viewBox="0 0 32.000000 32.000000"
 preserveAspectRatio="xMidYMid meet">
<metadata>
Created by potrace 1.16, written by Peter Selinger 2001-2019
</metadata>
<g transform="translate(0.000000,32.000000) scale(0.100000,-0.100000)"
fill="#000000" stroke="none">
<path fill="#000000" stroke="none" d="M1 160 c3 -146 5 -160 21 -160 23 0 23
19 0 37 -15 13 -15 13 4 4 12 -6 24 -17 28 -26 3 -8 11 -15 18 -14 10 0 10 2
1 6 -27 10 -11 18 35 16 26 -1 37 1 24 4 -37 8 -19 28 28 31 35 3 42 1 37 -12
-4 -9 -2 -16 3 -16 18 0 11 38 -7 42 -15 3 -12 10 17 38 28 29 35 32 38 18 4
-19 42 -26 42 -8 0 5 -7 7 -16 3 -13 -5 -15 2 -12 37 3 47 23 65 31 28 3 -13
5 -2 4 25 -2 45 6 61 16 35 4 -10 6 -10 6 0 1 7 -6 15 -14 18 -9 4 -20 16 -26
28 -9 19 -9 19 4 4 19 -23 37 -23 37 1 0 17 -11 18 -161 20 l-160 2 2 -161z"/>
<path fill="#ffffff" stroke="none" d="M270 279 c16 -29 12 -56 -10 -62 -14
-3 -20 -14 -20 -32 0 -20 -7 -29 -28 -37 -17 -7 -33 -23 -40 -40 -8 -21 -17
-28 -37 -28 -18 0 -29 -6 -32 -20 -9 -33 -65 -24 -84 13 -10 17 -9 19 9 15 27
-7 209 173 204 202 -4 25 24 17 38 -11z"/>
<path fill="#000000" stroke="none" d="M147 172 c-59 -59 -105 -111 -101 -115
14 -14 44 -7 37 8 -3 10 0 15 8 13 8 -2 13 3 11 11 -2 10 5 12 27 9 22 -3 28
-1 23 11 -3 8 -1 12 5 8 6 -4 8 3 5 20 -4 23 -2 25 21 21 17 -3 24 -1 20 5 -4
6 0 8 8 5 12 -5 14 1 11 23 -3 22 -1 29 9 27 8 -2 13 3 11 11 -2 8 3 11 13 8
9 -4 15 -1 15 8 0 8 -5 15 -11 15 -5 0 -7 5 -4 10 14 22 -5 5 -108 -98z"/>
<path fill="#ffffff" stroke="none" d="M241 247 c-6 -8 -7 -18 -3 -22 4 -5 2
-5 -4 -2 -12 7 -147 -125 -139 -136 3 -4 2 -5 -2 -2 -3 3 -16 -3 -27 -12 -12
-9 24 29 79 85 89 91 129 127 96 89z"/>
<path fill="#000000" stroke="none" d="M271 168 c-1 -29 2 -36 14 -32 9 4 15
0 15 -9 0 -9 5 -19 10 -22 18 -11 11 34 -9 52 -10 10 -21 25 -24 33 -3 8 -6
-2 -6 -22z"/>
<path fill="#000000" stroke="none" d="M211 106 c-10 -12 -8 -13 8 -9 12 3 21
9 21 14 0 14 -16 11 -29 -5z"/>
<path fill="#000000" stroke="none" d="M298 56 c-8 -7 -28 -16 -46 -20 -18 -3
-46 -9 -63 -12 -50 -10 -14 -24 64 -24 l67 0 0 35 c0 39 -2 41 -22 21z"/>
</g>
</svg>
