<?xml version="1.0" standalone="no"?>
<!DOCTYPE svg PUBLIC "-//W3C//DTD SVG 20010904//EN"
 "http://www.w3.org/TR/2001/REC-SVG-20010904/DTD/svg10.dtd">
<svg version="1.0" xmlns="http://www.w3.org/2000/svg"
 width="32.000000pt" height="32.000000pt" viewBox="0 0 32.000000 32.000000"
 preserveAspectRatio="xMidYMid meet">
<metadata>
Created by potrace 1.16, written by Peter Selinger 2001-2019
</metadata>
<g transform="translate(0.000000,32.000000) scale(0.100000,-0.100000)"
fill="#000000" stroke="none">
<path fill="#000000" stroke="none" d="M0 201 c0 -114 1 -119 20 -114 18 5 20
14 20 99 l0 94 94 0 c85 0 94 2 99 20 5 19 0 20 -114 20 l-119 0 0 -119z"/>
<path fill="#000000" stroke="none" d="M282 300 c7 -11 18 -20 25 -20 7 0 13
9 13 20 0 15 -7 20 -25 20 -23 0 -24 -2 -13 -20z"/>
<path fill="#000000" stroke="none" d="M145 168 l-90 -93 93 90 c50 49 92 91
92 92 0 8 -12 -4 -95 -89z"/>
<path fill="#000000" stroke="none" d="M312 120 c0 -14 2 -19 5 -12 2 6 2 18
0 25 -3 6 -5 1 -5 -13z"/>
<path fill="#000000" stroke="none" d="M310 40 c0 -29 0 -29 -67 -33 l-68 -3
73 -2 72 -2 0 35 c0 19 -2 35 -5 35 -3 0 -5 -13 -5 -30z"/>
<path fill="#000000" stroke="none" d="M2 25 c2 -17 8 -25 20 -25 24 0 23 22
-2 38 -18 11 -20 10 -18 -13z"/>
</g>
</svg>
