<?xml version="1.0" standalone="no"?>
<!DOCTYPE svg PUBLIC "-//W3C//DTD SVG 20010904//EN"
 "http://www.w3.org/TR/2001/REC-SVG-20010904/DTD/svg10.dtd">
<svg version="1.0" xmlns="http://www.w3.org/2000/svg"
 width="32.000000pt" height="32.000000pt" viewBox="0 0 32.000000 32.000000"
 preserveAspectRatio="xMidYMid meet">
<metadata>
Created by potrace 1.16, written by Peter Selinger 2001-2019
</metadata>
<g transform="translate(0.000000,32.000000) scale(0.100000,-0.100000)"
fill="#000000" stroke="none">
<path fill="#000000" stroke="none" d="M114 302 c-6 -4 -11 -34 -11 -67 0 -57
0 -58 6 -15 l6 45 23 -32 c16 -23 27 -30 43 -26 23 6 15 19 -16 25 -11 2 -19
10 -18 16 2 7 -4 12 -13 12 -11 0 -14 5 -10 16 3 9 6 18 6 20 0 3 4 3 9 -1 5
-3 12 -1 16 5 7 11 -24 13 -41 2z"/>
<path fill="#000000" stroke="none" d="M162 160 c0 -19 2 -27 5 -17 2 9 2 25
0 35 -3 9 -5 1 -5 -18z"/>
<path fill="#000000" stroke="none" d="M103 90 c0 -30 4 -61 10 -67 11 -15 51
-18 42 -3 -4 6 -10 8 -15 5 -4 -3 -11 2 -14 11 -9 22 -8 24 9 24 8 0 14 5 12
12 -1 6 7 14 18 16 31 6 39 19 16 25 -16 4 -27 -3 -43 -26 l-23 -32 -6 45 -7
45 1 -55z"/>
</g>
</svg>
