<?xml version="1.0" standalone="no"?>
<!DOCTYPE svg PUBLIC "-//W3C//DTD SVG 20010904//EN"
 "http://www.w3.org/TR/2001/REC-SVG-20010904/DTD/svg10.dtd">
<svg version="1.0" xmlns="http://www.w3.org/2000/svg"
 width="32.000000pt" height="32.000000pt" viewBox="0 0 32.000000 32.000000"
 preserveAspectRatio="xMidYMid meet">
<metadata>
Created by potrace 1.16, written by Peter Selinger 2001-2019
</metadata>
<g transform="translate(0.000000,32.000000) scale(0.100000,-0.100000)"
fill="#000000" stroke="none">
<path fill="#000000" stroke="none" d="M230 212 c0 -15 -121 -67 -150 -64 -15
2 -31 -1 -35 -7 -3 -6 -1 -11 5 -11 8 0 7 -6 -1 -21 -8 -17 -8 -20 1 -14 7 4
16 2 20 -6 7 -10 11 -10 25 1 9 7 14 19 11 25 -4 13 101 68 129 68 8 0 22 9
32 19 15 17 15 18 -10 18 -15 0 -27 -4 -27 -8z"/>
</g>
</svg>
