<?xml version="1.0" standalone="no"?>
<!DOCTYPE svg PUBLIC "-//W3C//DTD SVG 20010904//EN"
 "http://www.w3.org/TR/2001/REC-SVG-20010904/DTD/svg10.dtd">
<svg version="1.0" xmlns="http://www.w3.org/2000/svg"
 width="32.000000pt" height="32.000000pt" viewBox="0 0 32.000000 32.000000"
 preserveAspectRatio="xMidYMid meet">
<metadata>
Created by potrace 1.16, written by Peter Selinger 2001-2019
</metadata>
<g transform="translate(0.000000,32.000000) scale(0.100000,-0.100000)"
fill="#000000" stroke="none">
<path fill="#000000" stroke="none" d="M215 210 c-13 -21 -102 -59 -124 -53
-17 4 -24 1 -28 -16 -3 -11 -9 -21 -14 -21 -5 0 -9 -4 -9 -8 0 -4 16 -8 36 -9
27 -1 38 4 41 16 4 17 81 61 107 61 7 0 21 9 31 20 18 20 17 20 -8 20 -14 0
-29 -5 -32 -10z"/>
</g>
</svg>
