<?xml version="1.0" standalone="no"?>
<!DOCTYPE svg PUBLIC "-//W3C//DTD SVG 20010904//EN"
 "http://www.w3.org/TR/2001/REC-SVG-20010904/DTD/svg10.dtd">
<svg version="1.0" xmlns="http://www.w3.org/2000/svg"
 width="32.000000pt" height="32.000000pt" viewBox="0 0 32.000000 32.000000"
 preserveAspectRatio="xMidYMid meet">
<metadata>
Created by potrace 1.16, written by Peter Selinger 2001-2019
</metadata>
<g transform="translate(0.000000,32.000000) scale(0.100000,-0.100000)"
fill="#000000" stroke="none">
<path fill="#000000" stroke="none" d="M248 206 c-26 -13 -50 -20 -53 -17 -3
3 -3 -3 1 -13 4 -10 10 -13 13 -8 3 5 29 21 56 35 62 32 47 35 -17 3z"/>
<path fill="#000000" stroke="none" d="M65 123 c-69 -37 -66 -43 6 -12 27 12
49 27 49 33 0 6 5 4 10 -4 6 -9 10 -10 10 -3 0 22 -15 19 -75 -14z"/>
</g>
</svg>
