<?xml version="1.0" standalone="no"?>
<!DOCTYPE svg PUBLIC "-//W3C//DTD SVG 20010904//EN"
 "http://www.w3.org/TR/2001/REC-SVG-20010904/DTD/svg10.dtd">
<svg version="1.0" xmlns="http://www.w3.org/2000/svg"
 width="32.000000pt" height="32.000000pt" viewBox="0 0 32.000000 32.000000"
 preserveAspectRatio="xMidYMid meet">
<metadata>
Created by potrace 1.16, written by Peter Selinger 2001-2019
</metadata>
<g transform="translate(0.000000,32.000000) scale(0.100000,-0.100000)"
fill="#000000" stroke="none">
<path fill="#000000" stroke="none" d="M0 160 l0 -160 160 0 160 0 0 160 0
160 -160 0 -160 0 0 -160z"/>
<path fill="#ffffff" stroke="none" d="M173 275 c-3 -9 -8 -14 -10 -11 -3 3
-2 9 2 15 9 16 15 13 8 -4z"/>
<path fill="#ffffff" stroke="none" d="M117 244 c-3 -3 -12 -4 -19 -1 -8 3 -5
6 6 6 11 1 17 -2 13 -5z"/>
<path fill="#ffffff" stroke="none" d="M65 227 c-17 -13 -17 -15 6 -46 20 -27
21 -35 11 -51 -10 -17 -9 -23 7 -39 11 -11 22 -17 24 -14 3 3 3 -4 0 -16 -9
-36 -72 -18 -92 26 -10 21 -7 27 21 53 31 29 31 30 13 49 -14 17 -15 23 -5 36
7 8 17 15 23 15 6 0 3 -6 -8 -13z"/>
<path fill="#ffffff" stroke="none" d="M205 212 c-3 -3 -11 0 -18 7 -9 10 -8
11 6 5 10 -3 15 -9 12 -12z"/>
<path fill="#ffffff" stroke="none" d="M257 178 c-3 -7 -5 -2 -5 12 0 14 2 19
5 13 2 -7 2 -19 0 -25z"/>
<path fill="#ffffff" stroke="none" d="M240 162 c0 -5 -16 -16 -35 -25 -31
-15 -41 -32 -36 -61 2 -12 -20 -36 -33 -36 -6 0 -3 5 7 11 9 5 17 15 17 21 0
5 -8 7 -17 4 -17 -6 -17 -5 0 8 9 7 17 18 17 24 0 7 17 23 38 36 43 29 42 28
42 18z"/>
<path fill="#000000" stroke="none" d="M61 146 c-8 -10 -9 -16 -1 -21 5 -3 13
1 16 10 9 22 -1 29 -15 11z"/>
<path fill="#000000" stroke="none" d="M48 83 c7 -3 16 -2 19 1 4 3 -2 6 -13
5 -11 0 -14 -3 -6 -6z"/>
</g>
</svg>
