<?xml version="1.0" standalone="no"?>
<!DOCTYPE svg PUBLIC "-//W3C//DTD SVG 20010904//EN"
 "http://www.w3.org/TR/2001/REC-SVG-20010904/DTD/svg10.dtd">
<svg version="1.0" xmlns="http://www.w3.org/2000/svg"
 width="32.000000pt" height="32.000000pt" viewBox="0 0 32.000000 32.000000"
 preserveAspectRatio="xMidYMid meet">
<metadata>
Created by potrace 1.16, written by Peter Selinger 2001-2019
</metadata>
<g transform="translate(0.000000,32.000000) scale(0.100000,-0.100000)"
fill="#000000" stroke="none">
<path fill="#000000" stroke="none" d="M160 275 c0 -8 2 -15 4 -15 2 0 6 7 10
15 3 8 1 15 -4 15 -6 0 -10 -7 -10 -15z"/>
<path fill="#000000" stroke="none" d="M220 259 c0 -5 5 -7 10 -4 6 3 10 8 10
11 0 2 -4 4 -10 4 -5 0 -10 -5 -10 -11z"/>
<path fill="#000000" stroke="none" d="M98 243 c7 -3 16 -2 19 1 4 3 -2 6 -13
5 -11 0 -14 -3 -6 -6z"/>
<path fill="#000000" stroke="none" d="M50 225 c-10 -13 -9 -19 5 -35 18 -20
18 -21 -13 -53 -18 -18 -32 -38 -32 -44 0 -7 16 -24 35 -39 36 -27 61 -27 72
2 5 15 1 21 -36 43 -11 7 -11 12 0 29 12 19 10 25 -10 53 -23 31 -23 33 -6 46
11 7 14 13 8 13 -6 0 -16 -7 -23 -15z"/>
<path fill="#ffffff" stroke="none" d="M76 135 c-3 -9 -11 -13 -16 -10 -8 5
-7 11 1 21 14 18 24 11 15 -11z"/>
<path fill="#000000" stroke="none" d="M188 218 c5 -5 16 -8 23 -6 8 3 3 7
-10 11 -17 4 -21 3 -13 -5z"/>
<path fill="#000000" stroke="none" d="M252 190 c0 -14 2 -19 5 -12 2 6 2 18
0 25 -3 6 -5 1 -5 -13z"/>
<path fill="#000000" stroke="none" d="M198 144 c-21 -13 -38 -29 -38 -36 0
-6 -8 -17 -17 -24 -17 -13 -17 -14 0 -8 22 8 22 -12 0 -25 -10 -6 -13 -11 -7
-11 13 0 35 24 33 36 -5 29 5 46 36 61 19 9 35 20 35 25 0 10 1 11 -42 -18z"/>
</g>
</svg>
