<?xml version="1.0" standalone="no"?>
<!DOCTYPE svg PUBLIC "-//W3C//DTD SVG 20010904//EN"
 "http://www.w3.org/TR/2001/REC-SVG-20010904/DTD/svg10.dtd">
<svg version="1.0" xmlns="http://www.w3.org/2000/svg"
 width="32.000000pt" height="32.000000pt" viewBox="0 0 32.000000 32.000000"
 preserveAspectRatio="xMidYMid meet">
<metadata>
Created by potrace 1.16, written by Peter Selinger 2001-2019
</metadata>
<g transform="translate(0.000000,32.000000) scale(0.100000,-0.100000)"
fill="#000000" stroke="none">
<path fill="#000000" stroke="none" d="M160 275 c0 -10 -14 -17 -41 -21 -22
-4 -50 -14 -61 -24 -20 -16 -20 -18 -4 -42 17 -26 17 -27 -13 -49 -40 -29 -39
-52 3 -84 26 -20 40 -24 67 -19 44 9 59 21 59 49 0 24 18 43 63 65 37 18 35
63 -3 68 -38 5 -47 20 -16 28 14 3 26 10 26 15 0 12 -4 11 -35 -3 -34 -15 -28
-41 10 -48 42 -7 38 -29 -12 -63 -24 -15 -43 -35 -43 -43 0 -8 -7 -14 -15 -14
-8 0 -15 -4 -15 -10 0 -5 7 -7 15 -4 8 4 15 1 15 -4 0 -25 -21 -19 -61 18 -36
33 -41 42 -30 52 12 11 13 10 7 -7 -6 -16 -5 -17 5 -8 10 10 9 20 -5 50 -17
35 -17 38 0 50 10 7 27 13 39 13 11 0 31 7 43 16 23 16 29 34 12 34 -5 0 -10
-7 -10 -15z"/>
</g>
</svg>
