<?xml version="1.0" standalone="no"?>
<!DOCTYPE svg PUBLIC "-//W3C//DTD SVG 20010904//EN"
 "http://www.w3.org/TR/2001/REC-SVG-20010904/DTD/svg10.dtd">
<svg version="1.0" xmlns="http://www.w3.org/2000/svg"
 width="32.000000pt" height="32.000000pt" viewBox="0 0 32.000000 32.000000"
 preserveAspectRatio="xMidYMid meet">
<metadata>
Created by potrace 1.16, written by Peter Selinger 2001-2019
</metadata>
<g transform="translate(0.000000,32.000000) scale(0.100000,-0.100000)"
fill="#000000" stroke="none">
<path fill="#000000" stroke="none" d="M230 205 c-14 -8 -20 -14 -15 -14 6 0
21 6 35 14 14 8 21 14 15 14 -5 0 -21 -6 -35 -14z"/>
<path fill="#000000" stroke="none" d="M111 151 c-41 -21 -69 -41 -63 -44 5
-4 12 -3 14 2 1 5 35 25 73 44 39 20 66 36 60 36 -5 0 -43 -17 -84 -38z"/>
</g>
</svg>
