<?xml version="1.0" standalone="no"?>
<!DOCTYPE svg PUBLIC "-//W3C//DTD SVG 20010904//EN"
 "http://www.w3.org/TR/2001/REC-SVG-20010904/DTD/svg10.dtd">
<svg version="1.0" xmlns="http://www.w3.org/2000/svg"
 width="32.000000pt" height="32.000000pt" viewBox="0 0 32.000000 32.000000"
 preserveAspectRatio="xMidYMid meet">
<metadata>
Created by potrace 1.16, written by Peter Selinger 2001-2019
</metadata>
<g transform="translate(0.000000,32.000000) scale(0.100000,-0.100000)"
fill="#000000" stroke="none">
<path fill="#000000" stroke="none" d="M186 233 c-10 -3 -48 -25 -83 -49 -35
-24 -71 -44 -79 -44 -8 0 -14 -4 -14 -10 0 -16 14 -12 50 15 18 14 36 23 38
20 9 -9 -20 -35 -54 -47 -19 -6 -34 -16 -34 -20 0 -12 5 -10 44 12 19 12 37
17 40 12 3 -5 -12 -16 -34 -25 -39 -15 -50 -30 -31 -41 5 -3 23 1 40 10 18 9
35 14 38 11 5 -6 -61 -37 -78 -37 -5 0 -9 -5 -9 -11 0 -6 3 -9 8 -7 73 37 111
48 162 48 48 0 64 5 89 26 38 31 41 72 9 108 -23 25 -68 38 -102 29z"/>
<path fill="#ffffff" stroke="none" d="M233 224 c21 -8 10 -47 -18 -60 -20
-10 -24 -8 -28 7 -3 11 -2 19 2 19 4 0 16 7 27 16 18 14 18 15 -4 4 -27 -13
-45 -4 -22 10 18 11 23 12 43 4z"/>
<path fill="#ffffff" stroke="none" d="M179 159 c1 -16 -37 -39 -64 -39 -27 0
-15 21 20 36 41 17 48 28 8 13 -18 -7 -29 -6 -35 1 -4 5 -5 8 -2 6 3 -3 18 6
33 20 l26 24 7 -22 c3 -13 6 -30 7 -39z"/>
<path fill="#ffffff" stroke="none" d="M275 187 c-20 -11 -29 -3 -21 19 5 13
9 14 22 3 14 -11 14 -13 -1 -22z"/>
<path fill="#ffffff" stroke="none" d="M300 161 c0 -24 -40 -36 -41 -13 0 13
-2 12 -9 -4 -11 -27 -39 -38 -47 -18 -7 19 0 25 40 40 47 17 57 16 57 -5z"/>
<path fill="#ffffff" stroke="none" d="M157 103 l-42 -12 48 6 c32 4 47 2 47
-6 0 -15 -92 -11 -97 4 -4 15 70 44 79 31 5 -7 -9 -16 -35 -23z"/>
<path fill="#ffffff" stroke="none" d="M295 120 c-3 -5 -10 -10 -16 -10 -5 0
-9 5 -9 10 0 6 7 10 16 10 8 0 12 -4 9 -10z"/>
<path fill="#ffffff" stroke="none" d="M266 109 c7 -12 -12 -29 -33 -29 -28 0
-11 36 19 39 4 1 10 -4 14 -10z"/>
<path fill="#ffffff" stroke="none" d="M100 95 c0 -8 -52 -26 -58 -20 -3 2 6
9 19 14 28 11 39 13 39 6z"/>
</g>
</svg>
