<?xml version="1.0" standalone="no"?>
<!DOCTYPE svg PUBLIC "-//W3C//DTD SVG 20010904//EN"
 "http://www.w3.org/TR/2001/REC-SVG-20010904/DTD/svg10.dtd">
<svg version="1.0" xmlns="http://www.w3.org/2000/svg"
 width="32.000000pt" height="32.000000pt" viewBox="0 0 32.000000 32.000000"
 preserveAspectRatio="xMidYMid meet">
<metadata>
Created by potrace 1.16, written by Peter Selinger 2001-2019
</metadata>
<g transform="translate(0.000000,32.000000) scale(0.100000,-0.100000)"
fill="#000000" stroke="none">
<path fill="#000000" stroke="none" d="M0 160 l0 -160 160 0 160 0 0 160 0
160 -160 0 -160 0 0 -160z"/>
<path fill="#ffffff" stroke="none" d="M261 217 c-6 -8 -9 -16 -6 -19 3 -3 -4
-13 -15 -23 -11 -10 -20 -15 -20 -10 0 4 -7 2 -15 -5 -32 -27 -13 9 20 39 37
32 56 41 36 18z"/>
<path fill="#ffffff" stroke="none" d="M85 160 c-13 -6 1 -7 37 -3 48 5 59 3
64 -11 5 -13 9 -14 21 -5 11 9 17 9 26 -1 9 -10 9 -11 -1 -5 -7 4 -21 0 -30
-8 -11 -10 -24 -12 -37 -7 -11 5 -14 9 -7 9 26 2 10 16 -21 18 -19 2 -27 -1
-19 -5 9 -6 6 -12 -12 -21 -14 -8 -30 -10 -38 -5 -9 6 -5 10 17 15 l30 7 -27
1 c-18 1 -28 7 -28 16 0 9 9 15 23 14 21 0 21 -1 2 -9z"/>
<path fill="#ffffff" stroke="none" d="M203 100 c7 0 7 -4 -2 -9 -16 -10 -41
-4 -41 11 0 6 7 7 16 4 9 -3 21 -6 27 -6z"/>
<path fill="#ffffff" stroke="none" d="M85 90 c3 -5 2 -10 -4 -10 -5 0 -13 5
-16 10 -3 6 -2 10 4 10 5 0 13 -4 16 -10z"/>
<path fill="#ffffff" stroke="none" d="M130 80 c0 -5 -5 -10 -11 -10 -5 0 -7
5 -4 10 3 6 8 10 11 10 2 0 4 -4 4 -10z"/>
<path fill="#ffffff" stroke="none" d="M90 60 c13 -8 13 -10 -2 -10 -9 0 -20
5 -23 10 -8 13 5 13 25 0z"/>
<path fill="#ffffff" stroke="none" d="M201 61 c-8 -5 -20 -7 -28 -4 -21 8
-15 13 15 13 20 0 23 -3 13 -9z"/>
<path fill="#ffffff" stroke="none" d="M201 31 c-8 -5 -20 -7 -28 -4 -21 8
-15 13 15 13 20 0 23 -3 13 -9z"/>
<path fill="#000000" stroke="none" d="M229 183 c-13 -16 -12 -17 4 -4 9 7 17
15 17 17 0 8 -8 3 -21 -13z"/>
</g>
</svg>
