<?xml version="1.0" standalone="no"?>
<!DOCTYPE svg PUBLIC "-//W3C//DTD SVG 20010904//EN"
 "http://www.w3.org/TR/2001/REC-SVG-20010904/DTD/svg10.dtd">
<svg version="1.0" xmlns="http://www.w3.org/2000/svg"
 width="32.000000pt" height="32.000000pt" viewBox="0 0 32.000000 32.000000"
 preserveAspectRatio="xMidYMid meet">
<metadata>
Created by potrace 1.16, written by Peter Selinger 2001-2019
</metadata>
<g transform="translate(0.000000,32.000000) scale(0.100000,-0.100000)"
fill="#000000" stroke="none">
<path fill="#000000" stroke="none" d="M0 160 l0 -160 65 0 c50 0 65 3 65 14
0 12 -12 13 -57 9 -51 -6 -56 -5 -50 12 4 10 3 23 -2 29 -13 17 10 106 28 106
8 0 26 11 40 24 15 13 53 30 86 38 48 12 61 19 63 36 2 12 7 22 11 22 18 0 28
-27 29 -77 1 -38 6 -59 21 -75 l21 -22 0 102 0 102 -160 0 -160 0 0 -160z"/>
<path fill="#000000" stroke="none" d="M232 107 c2 -14 10 -22 22 -22 29 0 29
18 0 32 -23 11 -25 10 -22 -10z"/>
<path fill="#000000" stroke="none" d="M125 82 c-23 -5 -45 -21 -45 -33 0 -10
50 -1 64 11 14 13 3 26 -19 22z"/>
<path fill="#000000" stroke="none" d="M300 53 c-8 -2 -31 -12 -50 -21 -19 -8
-48 -19 -65 -23 -21 -5 -4 -7 53 -8 l82 -1 0 30 c0 17 -1 30 -2 29 -2 0 -10
-3 -18 -6z"/>
</g>
</svg>
