<?xml version="1.0" standalone="no"?>
<!DOCTYPE svg PUBLIC "-//W3C//DTD SVG 20010904//EN"
 "http://www.w3.org/TR/2001/REC-SVG-20010904/DTD/svg10.dtd">
<svg version="1.0" xmlns="http://www.w3.org/2000/svg"
 width="32.000000pt" height="32.000000pt" viewBox="0 0 32.000000 32.000000"
 preserveAspectRatio="xMidYMid meet">
<metadata>
Created by potrace 1.16, written by Peter Selinger 2001-2019
</metadata>
<g transform="translate(0.000000,32.000000) scale(0.100000,-0.100000)"
fill="#000000" stroke="none">
<path fill="#000000" stroke="none" d="M0 208 c0 -107 9 -152 27 -135 4 5 3
11 -2 15 -6 4 -11 36 -13 71 -3 70 13 101 53 101 12 0 30 9 41 21 12 14 27 19
43 16 13 -3 36 -1 52 3 16 5 30 4 33 -1 2 -5 3 -4 2 3 -2 10 -35 14 -119 16
l-117 3 0 -113z"/>
<path fill="#000000" stroke="none" d="M250 301 c0 -12 11 -25 28 -33 21 -10
28 -23 33 -53 5 -32 6 -25 8 33 l1 72 -35 0 c-28 0 -35 -4 -35 -19z"/>
<path fill="#000000" stroke="none" d="M182 283 c-6 -2 -9 -9 -6 -15 4 -6 -2
-8 -16 -3 -14 4 -20 3 -16 -3 3 -5 -4 -10 -17 -10 -79 -2 -106 -15 -107 -50 0
-7 11 -1 23 14 16 18 26 24 31 16 4 -7 1 -12 -7 -12 -8 0 -18 -7 -21 -16 -7
-19 12 -47 25 -38 5 3 9 0 9 -7 0 -8 13 -10 40 -6 35 4 40 3 40 -15 0 -10 5
-16 10 -13 6 3 10 15 10 26 0 10 4 19 9 19 5 0 7 -8 4 -19 -3 -10 0 -22 6 -25
6 -4 11 -16 11 -27 0 -10 4 -19 10 -19 5 0 7 -7 4 -15 -4 -8 -10 -13 -14 -10
-4 2 -7 -7 -7 -20 0 -14 3 -25 8 -25 5 0 9 7 9 15 0 8 5 15 11 15 5 0 7 -5 3
-11 -9 -16 15 -29 54 -29 31 0 32 1 32 40 l0 41 -35 -35 -35 -35 0 29 c0 16 5
32 10 35 6 3 10 15 10 26 0 11 -4 18 -9 14 -5 -3 -12 -1 -16 5 -3 5 -1 10 5
10 12 0 10 28 -6 110 -9 45 -26 58 -62 43z"/>
<path fill="#ffffff" stroke="none" d="M210 252 c0 -13 -12 -22 -22 -16 -10 6
-1 24 13 24 5 0 9 -4 9 -8z"/>
<path fill="#ffffff" stroke="none" d="M100 206 c0 -3 -4 -8 -10 -11 -5 -3
-10 -1 -10 4 0 6 5 11 10 11 6 0 10 -2 10 -4z"/>
<path fill="#000000" stroke="none" d="M256 251 c-3 -5 -2 -20 3 -33 6 -13 10
-17 11 -8 1 10 4 9 10 -5 8 -19 8 -19 16 -1 11 29 -25 72 -40 47z"/>
<path fill="#000000" stroke="none" d="M289 163 c0 -5 -2 -18 -5 -30 -2 -15 1
-23 9 -23 8 0 14 12 14 30 0 17 -4 30 -9 30 -4 0 -8 -3 -9 -7z"/>
<path fill="#000000" stroke="none" d="M40 130 c0 -9 5 -21 12 -28 8 -8 8 -12
1 -12 -8 0 -10 -21 -4 -51 0 -4 8 -10 17 -13 24 -9 60 18 67 51 4 15 10 39 13
52 5 17 4 22 -5 17 -6 -4 -8 -13 -4 -19 5 -9 3 -9 -8 -1 -8 7 -31 14 -51 16
-30 3 -38 1 -38 -12z"/>
<path fill="#ffffff" stroke="none" d="M130 100 c0 -5 -7 -10 -16 -10 -8 0
-12 5 -9 10 3 6 10 10 16 10 5 0 9 -4 9 -10z"/>
<path fill="#ffffff" stroke="none" d="M87 64 c-3 -3 -12 -4 -19 -1 -8 3 -5 6
6 6 11 1 17 -2 13 -5z"/>
<path fill="#000000" stroke="none" d="M165 100 c-3 -5 -2 -10 4 -10 5 0 13 5
16 10 3 6 2 10 -4 10 -5 0 -13 -4 -16 -10z"/>
<path fill="#000000" stroke="none" d="M0 30 l0 -30 80 0 c53 0 80 4 80 11 0
8 -16 10 -50 5 -45 -6 -51 -5 -66 19 -23 35 -44 32 -44 -5z"/>
<path fill="#000000" stroke="none" d="M166 42 c-7 -12 12 -38 21 -28 4 5 2
11 -5 13 -6 3 -10 9 -6 14 3 5 3 9 0 9 -3 0 -7 -4 -10 -8z"/>
</g>
</svg>
