<?xml version="1.0" standalone="no"?>
<!DOCTYPE svg PUBLIC "-//W3C//DTD SVG 20010904//EN"
 "http://www.w3.org/TR/2001/REC-SVG-20010904/DTD/svg10.dtd">
<svg version="1.0" xmlns="http://www.w3.org/2000/svg"
 width="32.000000pt" height="32.000000pt" viewBox="0 0 32.000000 32.000000"
 preserveAspectRatio="xMidYMid meet">
<metadata>
Created by potrace 1.16, written by Peter Selinger 2001-2019
</metadata>
<g transform="translate(0.000000,32.000000) scale(0.100000,-0.100000)"
fill="#000000" stroke="none">
<path fill="#000000" stroke="none" d="M238 268 c-2 -17 -15 -24 -63 -36 -33
-8 -71 -25 -86 -38 -14 -13 -32 -24 -40 -24 -9 0 -18 -17 -25 -47 -10 -40 -9
-52 5 -72 9 -15 11 -22 4 -18 -8 5 -13 3 -13 -4 0 -8 16 -10 55 -6 44 4 55 3
55 -9 0 -18 54 -11 115 16 22 10 48 20 58 24 24 8 22 57 -4 84 -15 16 -20 37
-21 75 -1 50 -11 77 -29 77 -4 0 -9 -10 -11 -22z"/>
<path fill="#ffffff" stroke="none" d="M250 215 c10 -12 10 -15 -1 -15 -12 0
-12 -2 -1 -9 8 -4 12 -11 10 -14 -1 -4 5 -16 15 -28 10 -11 16 -23 13 -26 -11
-11 -48 10 -56 33 -10 26 -29 31 -47 13 -8 -8 -8 -21 2 -48 11 -31 10 -43 -1
-69 -7 -18 -20 -32 -30 -32 -16 0 -16 1 -1 18 20 22 22 43 6 59 -7 7 -12 24
-13 39 -1 18 -7 28 -19 30 -22 3 -36 14 -18 14 7 0 10 4 7 9 -6 10 65 38 100
40 12 0 27 -6 34 -14z"/>
<path fill="#ffffff" stroke="none" d="M107 130 c2 -24 -2 -31 -22 -36 -14 -3
-23 -9 -21 -13 2 -3 -6 -6 -18 -6 -17 0 -22 5 -18 18 2 9 8 17 12 17 4 0 7 7
6 16 0 11 7 18 21 19 13 1 26 5 30 8 3 4 7 7 7 7 1 0 2 -13 3 -30z"/>
<path fill="#ffffff" stroke="none" d="M284 94 c2 -6 -7 -11 -22 -10 -20 1
-28 7 -30 23 -3 20 -1 21 22 10 14 -7 28 -17 30 -23z"/>
<path fill="#ffffff" stroke="none" d="M144 60 c-14 -12 -64 -21 -64 -11 0 12
22 28 45 33 22 4 33 -9 19 -22z"/>
<path fill="#000000" stroke="none" d="M65 110 c-3 -5 -2 -10 4 -10 5 0 13 5
16 10 3 6 2 10 -4 10 -5 0 -13 -4 -16 -10z"/>
</g>
</svg>
