<?xml version="1.0" standalone="no"?>
<!DOCTYPE svg PUBLIC "-//W3C//DTD SVG 20010904//EN"
 "http://www.w3.org/TR/2001/REC-SVG-20010904/DTD/svg10.dtd">
<svg version="1.0" xmlns="http://www.w3.org/2000/svg"
 width="32.000000pt" height="32.000000pt" viewBox="0 0 32.000000 32.000000"
 preserveAspectRatio="xMidYMid meet">
<metadata>
Created by potrace 1.16, written by Peter Selinger 2001-2019
</metadata>
<g transform="translate(0.000000,32.000000) scale(0.100000,-0.100000)"
fill="#000000" stroke="none">
<path fill="#000000" stroke="none" d="M0 160 l0 -160 65 0 c50 0 65 3 65 14
0 12 -11 13 -55 9 -39 -4 -55 -2 -55 6 0 7 5 9 13 4 7 -4 5 3 -4 18 -14 20
-15 32 -5 72 7 30 16 47 25 47 8 0 26 11 40 24 15 13 53 30 86 38 48 12 61 19
63 36 2 12 7 22 11 22 18 0 28 -27 29 -77 1 -38 6 -59 21 -75 l21 -22 0 102 0
102 -160 0 -160 0 0 -160z"/>
<path fill="#000000" stroke="none" d="M152 213 c-23 -8 -39 -19 -36 -24 3 -5
0 -9 -7 -9 -18 0 -4 -11 18 -14 12 -2 18 -12 19 -30 1 -15 6 -32 13 -39 16
-16 14 -37 -6 -59 -15 -17 -15 -18 1 -18 10 0 23 14 30 32 11 26 12 38 1 69
-10 27 -10 40 -2 48 18 18 37 13 47 -13 8 -23 45 -44 56 -33 3 3 -3 15 -13 26
-10 12 -16 24 -15 28 2 3 -2 10 -10 14 -11 7 -11 9 1 9 11 0 11 3 1 15 -15 18
-41 17 -98 -2z"/>
<path fill="#000000" stroke="none" d="M97 153 c-4 -3 -17 -7 -30 -8 -14 -1
-21 -8 -21 -19 1 -9 -2 -16 -6 -16 -4 0 -10 -8 -12 -17 -4 -13 1 -18 18 -18
12 0 20 3 18 6 -2 4 7 10 21 13 20 5 24 12 22 36 -1 17 -2 30 -3 30 0 0 -4 -3
-7 -7z"/>
<path fill="#ffffff" stroke="none" d="M85 110 c-3 -5 -11 -10 -16 -10 -6 0
-7 5 -4 10 3 6 11 10 16 10 6 0 7 -4 4 -10z"/>
<path fill="#000000" stroke="none" d="M232 107 c2 -16 10 -22 30 -23 32 -1
28 16 -8 33 -23 11 -25 10 -22 -10z"/>
<path fill="#000000" stroke="none" d="M125 82 c-23 -5 -45 -21 -45 -33 0 -10
50 -1 64 11 14 13 3 26 -19 22z"/>
<path fill="#000000" stroke="none" d="M300 53 c-8 -2 -31 -12 -50 -21 -19 -8
-48 -19 -65 -23 -21 -5 -4 -7 53 -8 l82 -1 0 30 c0 17 -1 30 -2 29 -2 0 -10
-3 -18 -6z"/>
</g>
</svg>
