<?xml version="1.0" standalone="no"?>
<!DOCTYPE svg PUBLIC "-//W3C//DTD SVG 20010904//EN"
 "http://www.w3.org/TR/2001/REC-SVG-20010904/DTD/svg10.dtd">
<svg version="1.0" xmlns="http://www.w3.org/2000/svg"
 width="32.000000pt" height="32.000000pt" viewBox="0 0 32.000000 32.000000"
 preserveAspectRatio="xMidYMid meet">
<metadata>
Created by potrace 1.16, written by Peter Selinger 2001-2019
</metadata>
<g transform="translate(0.000000,32.000000) scale(0.100000,-0.100000)"
fill="#000000" stroke="none">
<path fill="#000000" stroke="none" d="M0 204 c0 -80 3 -113 11 -108 7 4 8 27
4 66 -8 66 8 98 50 98 12 0 30 9 39 19 12 14 30 19 62 18 25 0 50 5 56 11 9 9
-16 12 -105 12 l-117 0 0 -116z"/>
<path fill="#000000" stroke="none" d="M250 301 c0 -12 11 -25 28 -33 21 -10
28 -23 33 -53 5 -32 6 -25 8 33 l1 72 -35 0 c-28 0 -35 -4 -35 -19z"/>
<path fill="#000000" stroke="none" d="M280 41 l-35 -36 33 -3 c42 -4 44 -2
40 40 l-3 34 -35 -35z"/>
<path fill="#000000" stroke="none" d="M0 30 l0 -30 80 0 c53 0 80 4 80 11 0
8 -16 10 -50 5 -45 -6 -51 -5 -66 19 -23 35 -44 32 -44 -5z"/>
</g>
</svg>
