<?xml version="1.0" standalone="no"?>
<!DOCTYPE svg PUBLIC "-//W3C//DTD SVG 20010904//EN"
 "http://www.w3.org/TR/2001/REC-SVG-20010904/DTD/svg10.dtd">
<svg version="1.0" xmlns="http://www.w3.org/2000/svg"
 width="32.000000pt" height="32.000000pt" viewBox="0 0 32.000000 32.000000"
 preserveAspectRatio="xMidYMid meet">
<metadata>
Created by potrace 1.16, written by Peter Selinger 2001-2019
</metadata>
<g transform="translate(0.000000,32.000000) scale(0.100000,-0.100000)"
fill="#000000" stroke="none">
<path fill="#000000" stroke="none" d="M0 160 l0 -160 65 0 c50 0 65 3 65 14
0 12 -12 13 -57 9 -51 -6 -56 -5 -50 12 4 10 3 23 -2 29 -5 7 -5 29 2 57 l11
46 43 -1 c24 -1 43 -4 43 -7 0 -4 -18 -6 -41 -5 -37 1 -40 -1 -36 -21 2 -12 0
-20 -4 -17 -5 3 -9 1 -9 -5 0 -5 -3 -16 -6 -25 -15 -39 61 -17 99 29 5 6 7 3
3 -7 -3 -10 -1 -18 4 -18 6 0 10 8 10 17 0 14 3 13 16 -5 14 -20 14 -25 0 -52
-13 -28 -13 -30 4 -30 21 0 42 52 34 84 -8 32 20 54 44 34 9 -8 25 -18 36 -22
11 -4 16 -12 12 -21 -3 -9 0 -15 8 -15 18 0 26 45 26 151 l0 89 -160 0 -160 0
0 -160z"/>
<path fill="#ffffff" stroke="none" d="M267 278 c6 -7 11 -37 11 -66 1 -33 7
-58 16 -68 22 -21 20 -27 -4 -12 -20 13 -26 45 -21 110 1 14 -3 29 -8 33 -6 3
-11 -2 -11 -14 0 -11 -8 -22 -17 -24 -10 -3 -40 -11 -68 -17 -27 -7 -61 -22
-75 -34 l-25 -20 25 26 c16 17 47 31 85 40 48 12 61 19 63 36 4 25 15 28 29
10z"/>
<path fill="#ffffff" stroke="none" d="M90 116 c0 -2 -7 -7 -16 -10 -8 -3 -12
-2 -9 4 6 10 25 14 25 6z"/>
<path fill="#000000" stroke="none" d="M201 123 c0 -4 4 -17 9 -28 8 -19 9
-19 9 2 1 12 -3 25 -9 28 -5 3 -10 3 -9 -2z"/>
<path fill="#000000" stroke="none" d="M232 107 c2 -14 10 -22 22 -22 29 0 29
18 0 32 -23 11 -25 10 -22 -10z"/>
<path fill="#000000" stroke="none" d="M125 82 c-23 -5 -45 -21 -45 -33 0 -10
50 -1 64 11 14 13 3 26 -19 22z"/>
<path fill="#000000" stroke="none" d="M300 53 c-8 -2 -31 -12 -50 -21 -19 -8
-48 -19 -65 -23 -21 -5 -4 -7 53 -8 l82 -1 0 30 c0 17 -1 30 -2 29 -2 0 -10
-3 -18 -6z"/>
<path fill="#000000" stroke="none" d="M35 40 c-3 -5 3 -10 14 -10 12 0 21 5
21 10 0 6 -6 10 -14 10 -8 0 -18 -4 -21 -10z"/>
</g>
</svg>
