<?xml version="1.0" standalone="no"?>
<!DOCTYPE svg PUBLIC "-//W3C//DTD SVG 20010904//EN"
 "http://www.w3.org/TR/2001/REC-SVG-20010904/DTD/svg10.dtd">
<svg version="1.0" xmlns="http://www.w3.org/2000/svg"
 width="32.000000pt" height="32.000000pt" viewBox="0 0 32.000000 32.000000"
 preserveAspectRatio="xMidYMid meet">
<metadata>
Created by potrace 1.16, written by Peter Selinger 2001-2019
</metadata>
<g transform="translate(0.000000,32.000000) scale(0.100000,-0.100000)"
fill="#000000" stroke="none">
<path fill="#000000" stroke="none" d="M0 160 l0 -160 160 0 160 0 0 160 0
160 -160 0 -160 0 0 -160z"/>
<path fill="#ffffff" stroke="none" d="M120 198 c0 -20 15 -24 25 -8 8 14 58
13 90 -2 28 -12 30 -19 14 -35 -14 -14 7 -50 33 -56 10 -3 18 -9 18 -14 0 -12
-45 -33 -71 -33 -11 0 -34 -7 -50 -16 -43 -22 -74 -15 -74 16 0 29 -25 70 -42
70 -17 0 -33 33 -33 67 0 27 2 28 45 28 36 0 45 -3 45 -17z"/>
<path fill="#000000" stroke="none" d="M50 192 c0 -14 11 -21 26 -15 21 8 17
23 -6 23 -11 0 -20 -4 -20 -8z"/>
<path fill="#000000" stroke="none" d="M155 177 c-10 -8 -15 -19 -11 -25 3 -5
0 -13 -6 -15 -10 -4 -9 -6 1 -6 10 -1 11 -4 2 -15 -8 -9 -8 -21 -2 -37 l10
-24 2 25 c1 14 2 33 2 43 0 9 3 17 8 17 13 0 39 31 34 41 -8 12 -18 11 -40 -4z"/>
<path fill="#000000" stroke="none" d="M73 163 c-23 -4 -30 -17 -14 -27 4 -3
16 3 26 14 10 11 16 19 14 19 -2 -1 -14 -4 -26 -6z"/>
<path fill="#000000" stroke="none" d="M206 152 c-7 -12 12 -38 21 -29 4 5 1
12 -6 16 -11 7 -11 10 0 14 9 3 10 6 2 6 -6 1 -14 -3 -17 -7z"/>
<path fill="#000000" stroke="none" d="M236 97 c3 -10 9 -15 12 -12 3 3 0 11
-7 18 -10 9 -11 8 -5 -6z"/>
</g>
</svg>
