<?xml version="1.0" standalone="no"?>
<!DOCTYPE svg PUBLIC "-//W3C//DTD SVG 20010904//EN"
 "http://www.w3.org/TR/2001/REC-SVG-20010904/DTD/svg10.dtd">
<svg version="1.0" xmlns="http://www.w3.org/2000/svg"
 width="32.000000pt" height="32.000000pt" viewBox="0 0 32.000000 32.000000"
 preserveAspectRatio="xMidYMid meet">
<metadata>
Created by potrace 1.16, written by Peter Selinger 2001-2019
</metadata>
<g transform="translate(0.000000,32.000000) scale(0.100000,-0.100000)"
fill="#000000" stroke="none">
<path fill="#000000" stroke="none" d="M12 308 c-17 -17 -15 -25 7 -31 13 -3
21 -16 24 -38 l4 -34 1 32 c1 22 -4 36 -18 46 -27 19 -15 27 36 27 32 0 50 -6
71 -26 l28 -26 -36 21 c-20 12 -49 21 -64 21 -26 0 -27 -1 -13 -17 9 -10 18
-27 21 -38 l5 -20 1 20 c1 15 3 17 10 6 6 -9 11 -10 15 -2 4 6 -4 16 -21 22
-17 7 -23 13 -15 16 7 3 24 -5 37 -17 23 -22 55 -24 62 -5 1 6 -12 20 -30 33
-37 24 -105 30 -125 10z"/>
</g>
</svg>
