<?xml version="1.0" standalone="no"?>
<!DOCTYPE svg PUBLIC "-//W3C//DTD SVG 20010904//EN"
 "http://www.w3.org/TR/2001/REC-SVG-20010904/DTD/svg10.dtd">
<svg version="1.0" xmlns="http://www.w3.org/2000/svg"
 width="32.000000pt" height="32.000000pt" viewBox="0 0 32.000000 32.000000"
 preserveAspectRatio="xMidYMid meet">
<metadata>
Created by potrace 1.16, written by Peter Selinger 2001-2019
</metadata>
<g transform="translate(0.000000,32.000000) scale(0.100000,-0.100000)"
fill="#000000" stroke="none">
<path fill="#000000" stroke="none" d="M0 160 l0 -160 160 0 160 0 0 160 0
160 -160 0 -160 0 0 -160z"/>
<path fill="#ffffff" stroke="none" d="M158 298 c16 -16 15 -28 -2 -28 -8 0
-16 -5 -18 -11 -3 -9 -10 -8 -28 1 -21 11 -22 13 -6 22 10 6 26 8 37 5 10 -3
17 -1 13 4 -9 15 -57 10 -87 -9 l-27 -19 22 -19 c21 -18 21 -18 15 0 -6 16 -4
17 15 11 13 -4 31 -7 41 -8 24 -2 21 -12 -8 -25 -18 -8 -26 -8 -31 0 -5 7 -3
8 6 3 9 -5 11 -4 6 4 -12 18 -27 2 -21 -22 6 -21 6 -21 -6 -2 -6 11 -21 30
-32 42 -11 13 -19 24 -16 25 66 41 105 48 127 26z"/>
</g>
</svg>
