<?xml version="1.0" standalone="no"?>
<!DOCTYPE svg PUBLIC "-//W3C//DTD SVG 20010904//EN"
 "http://www.w3.org/TR/2001/REC-SVG-20010904/DTD/svg10.dtd">
<svg version="1.0" xmlns="http://www.w3.org/2000/svg"
 width="32.000000pt" height="32.000000pt" viewBox="0 0 32.000000 32.000000"
 preserveAspectRatio="xMidYMid meet">
<metadata>
Created by potrace 1.16, written by Peter Selinger 2001-2019
</metadata>
<g transform="translate(0.000000,32.000000) scale(0.100000,-0.100000)"
fill="#000000" stroke="none">
<path fill="#000000" stroke="none" d="M65 292 c-16 -9 -32 -18 -34 -20 -3 -1
5 -12 16 -25 11 -12 25 -31 31 -42 6 -11 12 -15 12 -8 0 6 -11 25 -24 40 l-25
29 29 17 c30 18 75 23 84 8 3 -5 -1 -12 -10 -15 -9 -3 -14 -12 -11 -20 3 -7 0
-19 -6 -25 -9 -9 -8 -11 6 -5 12 4 16 13 12 25 -4 13 -1 19 9 19 19 0 21 11 4
28 -17 17 -58 14 -93 -6z"/>
</g>
</svg>
