<?xml version="1.0" standalone="no"?>
<!DOCTYPE svg PUBLIC "-//W3C//DTD SVG 20010904//EN"
 "http://www.w3.org/TR/2001/REC-SVG-20010904/DTD/svg10.dtd">
<svg version="1.0" xmlns="http://www.w3.org/2000/svg"
 width="32.000000pt" height="32.000000pt" viewBox="0 0 32.000000 32.000000"
 preserveAspectRatio="xMidYMid meet">
<metadata>
Created by potrace 1.16, written by Peter Selinger 2001-2019
</metadata>
<g transform="translate(0.000000,32.000000) scale(0.100000,-0.100000)"
fill="#000000" stroke="none">
<path fill="#000000" stroke="none" d="M0 160 l0 -160 65 0 c53 0 65 3 65 16
0 13 -6 15 -27 10 -83 -21 -83 -21 -77 12 4 17 1 32 -5 36 -16 10 -15 139 1
134 7 -3 28 6 47 19 31 21 43 23 128 20 51 -2 95 -6 98 -8 2 -3 8 -34 13 -69
l10 -65 1 108 1 107 -160 0 -160 0 0 -160z"/>
<path fill="#000000" stroke="none" d="M130 220 c14 -4 19 -8 13 -9 -18 -1
-16 -28 3 -35 14 -5 14 -8 -1 -22 -15 -16 -15 -18 3 -37 24 -23 46 -14 36 15
-4 13 -2 18 4 14 20 -12 40 5 38 34 -1 16 -5 32 -9 37 -5 4 -5 -1 -1 -12 7
-19 7 -19 -13 -2 -11 9 -23 14 -26 10 -4 -3 -7 -1 -7 5 0 7 -14 12 -32 11 -31
-1 -32 -1 -8 -9z"/>
<path fill="#000000" stroke="none" d="M241 213 c7 -12 18 -19 24 -16 5 4 2
-3 -9 -15 -18 -21 -18 -22 5 -41 13 -11 25 -18 27 -16 8 7 10 45 2 40 -5 -3
-10 4 -12 16 -2 12 -14 29 -27 38 -23 15 -24 15 -10 -6z"/>
<path fill="#000000" stroke="none" d="M44 189 c-9 -16 18 -30 33 -17 7 6 10
14 7 19 -7 13 -31 11 -40 -2z"/>
<path fill="#000000" stroke="none" d="M35 121 c-2 -4 12 -7 30 -7 19 0 32 3
29 5 -7 8 -54 9 -59 2z"/>
<path fill="#000000" stroke="none" d="M130 110 c0 -5 5 -10 11 -10 5 0 7 5 4
10 -3 6 -8 10 -11 10 -2 0 -4 -4 -4 -10z"/>
<path fill="#000000" stroke="none" d="M175 77 c-14 -11 -15 -16 -5 -22 11 -7
29 9 30 28 0 10 -3 9 -25 -6z"/>
<path fill="#000000" stroke="none" d="M249 43 c-15 -2 -35 -13 -45 -24 -17
-19 -16 -19 49 -19 59 0 67 2 67 19 0 14 -6 17 -26 13 -19 -3 -25 -1 -20 7 4
6 6 10 4 10 -2 -1 -15 -4 -29 -6z"/>
</g>
</svg>
