<?xml version="1.0" standalone="no"?>
<!DOCTYPE svg PUBLIC "-//W3C//DTD SVG 20010904//EN"
 "http://www.w3.org/TR/2001/REC-SVG-20010904/DTD/svg10.dtd">
<svg version="1.0" xmlns="http://www.w3.org/2000/svg"
 width="32.000000pt" height="32.000000pt" viewBox="0 0 32.000000 32.000000"
 preserveAspectRatio="xMidYMid meet">
<metadata>
Created by potrace 1.16, written by Peter Selinger 2001-2019
</metadata>
<g transform="translate(0.000000,32.000000) scale(0.100000,-0.100000)"
fill="#000000" stroke="none">
<path fill="#000000" stroke="none" d="M120 145 c-7 -8 -20 -15 -29 -15 -35 0
-42 -14 -25 -48 15 -31 46 -43 59 -22 9 15 25 12 25 -5 0 -19 46 -20 53 -1 3
8 18 16 33 18 15 2 32 11 38 20 8 13 5 22 -17 42 -22 21 -38 26 -76 26 -31 0
-53 -5 -61 -15z"/>
<path fill="#ffffff" stroke="none" d="M213 134 c9 -4 17 -10 17 -15 0 -5 7
-9 16 -9 8 0 13 -4 10 -9 -4 -5 -20 -3 -37 6 -38 19 -54 7 -40 -29 7 -19 6
-25 -4 -25 -16 0 -28 24 -19 38 9 16 -5 10 -26 -11 -27 -27 -52 -26 -48 3 2
15 10 22 25 22 11 0 25 4 30 9 4 5 3 6 -4 2 -7 -4 -13 -5 -13 -2 0 10 55 35
65 31 6 -3 18 -8 28 -11z"/>
</g>
</svg>
