<?xml version="1.0" standalone="no"?>
<!DOCTYPE svg PUBLIC "-//W3C//DTD SVG 20010904//EN"
 "http://www.w3.org/TR/2001/REC-SVG-20010904/DTD/svg10.dtd">
<svg version="1.0" xmlns="http://www.w3.org/2000/svg"
 width="32.000000pt" height="32.000000pt" viewBox="0 0 32.000000 32.000000"
 preserveAspectRatio="xMidYMid meet">
<metadata>
Created by potrace 1.16, written by Peter Selinger 2001-2019
</metadata>
<g transform="translate(0.000000,32.000000) scale(0.100000,-0.100000)"
fill="#000000" stroke="none">
<path fill="#000000" stroke="none" d="M238 268 c-2 -17 -15 -24 -63 -36 -33
-8 -71 -25 -86 -38 -14 -13 -32 -24 -40 -24 -18 0 -41 -89 -28 -106 5 -6 6
-19 2 -29 -6 -17 -1 -18 50 -12 46 4 57 3 57 -9 0 -18 54 -11 115 16 22 10 48
20 58 24 24 8 22 57 -4 84 -15 16 -20 37 -21 75 -1 50 -11 77 -29 77 -4 0 -9
-10 -11 -22z"/>
<path fill="#ffffff" stroke="none" d="M270 254 c0 -8 -4 -12 -10 -9 -5 3 -10
13 -10 21 0 8 5 12 10 9 6 -3 10 -13 10 -21z"/>
<path fill="#ffffff" stroke="none" d="M258 218 c7 -7 12 -26 12 -43 0 -19 7
-36 20 -45 23 -17 27 -50 5 -50 -9 0 -12 6 -9 15 4 9 -1 17 -12 21 -11 4 -31
18 -45 31 -25 23 -28 24 -37 7 -6 -11 -7 -27 -1 -42 13 -33 -9 -92 -33 -92
-17 0 -18 1 -2 25 14 22 15 29 4 51 -9 17 -16 21 -21 12 -4 -7 -10 3 -14 25
-5 23 -13 37 -22 37 -29 0 -6 25 38 41 54 20 101 23 117 7z"/>
<path fill="#ffffff" stroke="none" d="M113 135 c11 -26 -38 -68 -68 -59 -16
4 -17 3 -5 -5 9 -7 10 -11 3 -11 -6 0 -14 4 -17 8 -7 12 5 53 14 47 4 -2 5 6
3 18 -4 19 0 22 29 22 24 0 35 -6 41 -20z"/>
<path fill="#ffffff" stroke="none" d="M277 95 c-7 -20 -42 -10 -45 12 -3 20
-1 21 22 10 14 -7 24 -16 23 -22z"/>
<path fill="#ffffff" stroke="none" d="M144 60 c-14 -12 -64 -21 -64 -11 0 12
22 28 45 33 22 4 33 -9 19 -22z"/>
<path fill="#ffffff" stroke="none" d="M65 40 c-3 -5 -13 -10 -21 -10 -8 0
-12 5 -9 10 3 6 13 10 21 10 8 0 12 -4 9 -10z"/>
<path fill="#000000" stroke="none" d="M65 110 c-3 -6 1 -7 9 -4 18 7 21 14 7
14 -6 0 -13 -4 -16 -10z"/>
</g>
</svg>
