<?xml version="1.0" standalone="no"?>
<!DOCTYPE svg PUBLIC "-//W3C//DTD SVG 20010904//EN"
 "http://www.w3.org/TR/2001/REC-SVG-20010904/DTD/svg10.dtd">
<svg version="1.0" xmlns="http://www.w3.org/2000/svg"
 width="32.000000pt" height="32.000000pt" viewBox="0 0 32.000000 32.000000"
 preserveAspectRatio="xMidYMid meet">
<metadata>
Created by potrace 1.16, written by Peter Selinger 2001-2019
</metadata>
<g transform="translate(0.000000,32.000000) scale(0.100000,-0.100000)"
fill="#000000" stroke="none">
<path fill="#000000" stroke="none" d="M120 145 c-7 -8 -20 -15 -29 -15 -35 0
-42 -14 -25 -48 15 -31 46 -43 59 -22 9 15 25 12 25 -5 0 -19 46 -20 53 -1 3
8 18 16 33 18 15 2 32 11 38 20 8 13 5 22 -17 42 -22 21 -38 26 -76 26 -31 0
-53 -5 -61 -15z"/>
<path fill="#ffffff" stroke="none" d="M182 118 c-6 -6 -19 -7 -29 -3 -17 7
-17 8 2 15 24 9 41 2 27 -12z"/>
<path fill="#ffffff" stroke="none" d="M224 122 c3 -5 -1 -9 -9 -9 -8 0 -15 4
-15 9 0 10 17 10 24 0z"/>
<path fill="#ffffff" stroke="none" d="M140 92 c0 -11 -48 -37 -56 -29 -2 1
-1 12 2 22 6 22 54 29 54 7z"/>
<path fill="#ffffff" stroke="none" d="M179 72 c7 -14 6 -19 -3 -19 -6 0 -13
9 -13 19 -1 10 0 18 2 18 2 0 9 -8 14 -18z"/>
</g>
</svg>
