<?xml version="1.0" standalone="no"?>
<!DOCTYPE svg PUBLIC "-//W3C//DTD SVG 20010904//EN"
 "http://www.w3.org/TR/2001/REC-SVG-20010904/DTD/svg10.dtd">
<svg version="1.0" xmlns="http://www.w3.org/2000/svg"
 width="32.000000pt" height="32.000000pt" viewBox="0 0 32.000000 32.000000"
 preserveAspectRatio="xMidYMid meet">
<metadata>
Created by potrace 1.16, written by Peter Selinger 2001-2019
</metadata>
<g transform="translate(0.000000,32.000000) scale(0.100000,-0.100000)"
fill="#000000" stroke="none">
<path fill="#000000" stroke="none" d="M0 160 l0 -160 160 0 160 0 0 160 0
160 -160 0 -160 0 0 -160z"/>
<path fill="#ffffff" stroke="none" d="M257 134 c22 -20 25 -29 17 -42 -6 -9
-23 -18 -38 -20 -15 -2 -30 -10 -33 -18 -7 -19 -53 -18 -53 1 0 17 -16 20 -25
5 -13 -21 -44 -9 -59 22 -17 34 -10 48 25 48 9 0 22 7 29 15 8 10 30 15 61 15
38 0 54 -5 76 -26z"/>
<path fill="#000000" stroke="none" d="M130 135 c0 -15 -3 -16 -39 -19 -21 -1
-42 -16 -23 -16 7 0 12 -9 12 -20 0 -23 29 -27 49 -8 10 11 15 10 25 -5 19
-25 38 -22 30 7 -7 27 17 41 45 26 26 -13 35 1 11 17 -11 8 -18 19 -15 24 4 5
-16 9 -44 9 -39 0 -51 -4 -51 -15z"/>
</g>
</svg>
