<?xml version="1.0" standalone="no"?>
<!DOCTYPE svg PUBLIC "-//W3C//DTD SVG 20010904//EN"
 "http://www.w3.org/TR/2001/REC-SVG-20010904/DTD/svg10.dtd">
<svg version="1.0" xmlns="http://www.w3.org/2000/svg"
 width="32.000000pt" height="32.000000pt" viewBox="0 0 32.000000 32.000000"
 preserveAspectRatio="xMidYMid meet">
<metadata>
Created by potrace 1.16, written by Peter Selinger 2001-2019
</metadata>
<g transform="translate(0.000000,32.000000) scale(0.100000,-0.100000)"
fill="#000000" stroke="none">
<path fill="#000000" stroke="none" d="M0 208 c0 -62 4 -120 10 -128 16 -26
19 -6 8 68 -10 65 -10 74 7 92 10 11 28 20 40 20 12 0 30 9 41 21 12 14 27 19
43 16 13 -3 38 -1 54 4 22 6 28 6 20 -2 -6 -6 -32 -12 -57 -13 -25 0 -45 -4
-44 -8 5 -13 -40 -38 -56 -32 -9 3 -23 1 -31 -6 -16 -13 -21 -65 -6 -74 4 -3
7 7 5 22 -3 22 -2 20 7 -7 l10 -33 56 4 55 5 -6 -39 c-5 -29 -3 -38 8 -38 19
0 40 26 26 35 -5 3 -10 11 -10 18 0 6 6 2 14 -9 17 -24 8 -86 -14 -92 -13 -3
-13 -2 0 7 9 7 10 11 3 11 -6 0 -14 -4 -17 -8 -9 -15 9 -29 39 -30 17 -1 49
-5 72 -8 l43 -6 0 41 0 42 -35 -35 c-34 -34 -35 -35 -35 -11 0 13 5 27 10 30
7 4 8 28 4 66 -6 56 -5 59 15 59 17 0 21 6 21 30 0 23 -6 33 -25 40 -14 5 -30
21 -35 35 -9 25 -11 25 -125 25 l-115 0 0 -112z"/>
<path fill="#000000" stroke="none" d="M250 301 c0 -12 11 -25 28 -33 36 -17
44 -78 13 -100 -22 -15 -19 -58 4 -58 13 0 25 71 25 158 l0 52 -35 0 c-28 0
-35 -4 -35 -19z"/>
<path fill="#000000" stroke="none" d="M40 130 c0 -9 6 -22 13 -29 10 -11 10
-13 0 -7 -18 10 -17 -35 0 -58 28 -38 79 5 91 74 l6 35 -55 0 c-43 0 -55 -3
-55 -15z"/>
<path fill="#ffffff" stroke="none" d="M130 102 c0 -5 -7 -9 -15 -9 -8 0 -12
4 -9 9 7 10 24 10 24 0z"/>
<path fill="#000000" stroke="none" d="M0 30 l0 -30 80 0 c53 0 80 4 80 11 0
8 -16 10 -50 5 -45 -6 -51 -5 -66 19 -23 35 -44 32 -44 -5z"/>
</g>
</svg>
