<?xml version="1.0" standalone="no"?>
<!DOCTYPE svg PUBLIC "-//W3C//DTD SVG 20010904//EN"
 "http://www.w3.org/TR/2001/REC-SVG-20010904/DTD/svg10.dtd">
<svg version="1.0" xmlns="http://www.w3.org/2000/svg"
 width="32.000000pt" height="32.000000pt" viewBox="0 0 32.000000 32.000000"
 preserveAspectRatio="xMidYMid meet">
<metadata>
Created by potrace 1.16, written by Peter Selinger 2001-2019
</metadata>
<g transform="translate(0.000000,32.000000) scale(0.100000,-0.100000)"
fill="#000000" stroke="none">
<path fill="#000000" stroke="none" d="M4 171 c4 -36 13 -51 32 -51 12 0 14 7
9 33 -9 41 -13 47 -30 47 -10 0 -14 -9 -11 -29z"/>
<path fill="#ffffff" stroke="none" d="M35 151 c4 -15 3 -21 -3 -17 -5 3 -12
17 -15 32 -5 30 8 20 18 -15z"/>
<path fill="#000000" stroke="none" d="M156 169 c-13 -26 -13 -29 -1 -19 8 7
15 19 15 26 0 8 4 14 9 14 13 0 1 -52 -17 -75 l-16 -20 21 20 c26 25 39 85 18
85 -7 0 -20 -14 -29 -31z"/>
</g>
</svg>
