<?xml version="1.0" standalone="no"?>
<!DOCTYPE svg PUBLIC "-//W3C//DTD SVG 20010904//EN"
 "http://www.w3.org/TR/2001/REC-SVG-20010904/DTD/svg10.dtd">
<svg version="1.0" xmlns="http://www.w3.org/2000/svg"
 width="32.000000pt" height="32.000000pt" viewBox="0 0 32.000000 32.000000"
 preserveAspectRatio="xMidYMid meet">
<metadata>
Created by potrace 1.16, written by Peter Selinger 2001-2019
</metadata>
<g transform="translate(0.000000,32.000000) scale(0.100000,-0.100000)"
fill="#000000" stroke="none">
<path fill="#000000" stroke="none" d="M0 260 c0 -46 3 -60 14 -60 18 0 22 -6
31 -48 5 -25 3 -32 -9 -32 -8 0 -20 8 -25 18 -8 12 -10 -3 -11 -60 l0 -78 160
0 160 0 0 160 0 160 -160 0 -160 0 0 -60z"/>
<path fill="#ffffff" stroke="none" d="M194 168 c-4 -18 -14 -41 -23 -51 -15
-16 -19 -16 -36 -2 -19 14 -19 15 -2 26 10 6 22 22 27 35 5 13 16 24 25 24 11
0 13 -8 9 -32z"/>
</g>
</svg>
