<?xml version="1.0" standalone="no"?>
<!DOCTYPE svg PUBLIC "-//W3C//DTD SVG 20010904//EN"
 "http://www.w3.org/TR/2001/REC-SVG-20010904/DTD/svg10.dtd">
<svg version="1.0" xmlns="http://www.w3.org/2000/svg"
 width="32.000000pt" height="32.000000pt" viewBox="0 0 32.000000 32.000000"
 preserveAspectRatio="xMidYMid meet">
<metadata>
Created by potrace 1.16, written by Peter Selinger 2001-2019
</metadata>
<g transform="translate(0.000000,32.000000) scale(0.100000,-0.100000)"
fill="#000000" stroke="none">
<path fill="#000000" stroke="none" d="M0 160 l0 -160 160 0 160 0 0 160 0
160 -160 0 -160 0 0 -160z"/>
<path fill="#ffffff" stroke="none" d="M200 242 c0 -5 -7 -9 -15 -9 -8 0 -12
4 -9 9 3 4 9 8 15 8 5 0 9 -4 9 -8z"/>
<path fill="#ffffff" stroke="none" d="M249 224 c24 -31 27 -46 7 -38 -8 3
-25 0 -38 -7 -20 -11 -21 -10 -11 3 7 8 9 19 5 23 -4 5 1 5 10 2 10 -3 20 -2
23 4 4 5 3 8 -2 7 -4 -2 -9 1 -10 6 -1 5 -7 13 -15 17 -9 6 -9 9 -1 9 6 0 21
-12 32 -26z"/>
<path fill="#ffffff" stroke="none" d="M150 232 c0 -5 -7 -9 -15 -9 -8 0 -12
4 -9 9 3 4 9 8 15 8 5 0 9 -4 9 -8z"/>
<path fill="#ffffff" stroke="none" d="M110 216 c0 -3 -11 -17 -25 -32 -19
-20 -25 -23 -25 -10 0 9 6 16 14 16 8 0 16 7 20 15 5 14 16 21 16 11z"/>
<path fill="#ffffff" stroke="none" d="M36 155 c1 -14 -2 -22 -7 -19 -11 6
-12 44 -1 44 4 0 8 -11 8 -25z"/>
<path fill="#ffffff" stroke="none" d="M147 152 c0 -10 -7 -19 -14 -19 -9 0
-10 4 -2 13 7 8 6 14 -3 17 -9 4 -7 6 4 6 10 1 16 -6 15 -17z"/>
<path fill="#ffffff" stroke="none" d="M285 152 c-3 -3 -11 0 -18 7 -9 10 -8
11 6 5 10 -3 15 -9 12 -12z"/>
<path fill="#ffffff" stroke="none" d="M250 118 c0 -5 -4 -8 -10 -8 -5 0 -10
10 -10 23 0 18 2 19 10 7 5 -8 10 -18 10 -22z"/>
</g>
</svg>
