<?xml version="1.0" standalone="no"?>
<!DOCTYPE svg PUBLIC "-//W3C//DTD SVG 20010904//EN"
 "http://www.w3.org/TR/2001/REC-SVG-20010904/DTD/svg10.dtd">
<svg version="1.0" xmlns="http://www.w3.org/2000/svg"
 width="32.000000pt" height="32.000000pt" viewBox="0 0 32.000000 32.000000"
 preserveAspectRatio="xMidYMid meet">
<metadata>
Created by potrace 1.16, written by Peter Selinger 2001-2019
</metadata>
<g transform="translate(0.000000,32.000000) scale(0.100000,-0.100000)"
fill="#000000" stroke="none">
<path fill="#000000" stroke="none" d="M0 270 c0 -29 5 -50 11 -50 5 0 7 -5 4
-10 -4 -6 -1 -18 6 -26 10 -12 9 -13 -5 -8 -13 5 -16 0 -16 -27 0 -18 3 -29 7
-26 6 6 32 -21 33 -34 0 -4 -7 -10 -16 -13 -13 -5 -14 -4 -6 7 7 8 9 17 6 20
-15 14 -24 -7 -24 -54 l0 -49 160 0 160 0 -1 85 c-1 47 -6 88 -11 91 -4 3 -8
0 -8 -7 0 -7 -3 -9 -6 -6 -10 9 -46 -12 -39 -23 3 -6 -7 -8 -25 -6 -24 3 -28
1 -19 -10 6 -7 8 -17 5 -23 -3 -5 0 -11 6 -14 7 -2 9 -8 5 -13 -4 -5 -12 -2
-17 6 -9 14 -14 7 -11 -13 1 -4 -9 -2 -21 5 -13 7 -26 11 -30 10 -3 -1 -11 5
-17 12 -10 12 -6 13 23 6 46 -10 62 1 36 25 -16 14 -17 20 -8 27 7 4 22 5 33
1 18 -5 18 -4 6 11 -13 15 -12 17 13 12 23 -4 25 -2 16 9 -9 11 -6 13 19 9 21
-4 31 -1 31 8 0 9 3 9 10 -2 7 -11 10 5 10 53 l0 67 -160 0 -160 0 0 -50z"/>
<path fill="#ffffff" stroke="none" d="M230 269 c0 -4 8 -10 18 -12 13 -4 11
-5 -5 -6 -13 0 -23 2 -23 7 0 9 -57 8 -67 -1 -3 -4 -11 -7 -17 -7 -5 0 -2 6 8
13 19 14 86 18 86 6z"/>
<path fill="#ffffff" stroke="none" d="M120 258 c0 -6 -3 -8 -7 -5 -3 4 -12 2
-20 -4 -7 -6 -13 -8 -13 -4 0 5 -9 0 -20 -10 -11 -10 -20 -25 -20 -33 0 -9 -3
-13 -6 -9 -13 12 8 46 39 61 39 19 47 20 47 4z"/>
<path fill="#ffffff" stroke="none" d="M150 201 c0 -11 5 -23 10 -26 14 -9 5
-21 -19 -28 -15 -3 -19 0 -18 14 1 11 5 19 10 19 5 0 7 9 4 20 -3 11 -1 20 4
20 5 0 9 -9 9 -19z"/>
<path fill="#ffffff" stroke="none" d="M295 120 c3 -5 2 -10 -4 -10 -5 0 -13
5 -16 10 -3 6 -2 10 4 10 5 0 13 -4 16 -10z"/>
<path fill="#ffffff" stroke="none" d="M67 52 c1 -10 -5 -19 -13 -19 -16 0
-16 0 -8 21 8 22 19 20 21 -2z"/>
</g>
</svg>
