<?xml version="1.0" standalone="no"?>
<!DOCTYPE svg PUBLIC "-//W3C//DTD SVG 20010904//EN"
 "http://www.w3.org/TR/2001/REC-SVG-20010904/DTD/svg10.dtd">
<svg version="1.0" xmlns="http://www.w3.org/2000/svg"
 width="32.000000pt" height="32.000000pt" viewBox="0 0 32.000000 32.000000"
 preserveAspectRatio="xMidYMid meet">
<metadata>
Created by potrace 1.16, written by Peter Selinger 2001-2019
</metadata>
<g transform="translate(0.000000,32.000000) scale(0.100000,-0.100000)"
fill="#000000" stroke="none">
<path fill="#000000" stroke="none" d="M0 274 c0 -51 24 -89 35 -55 3 10 21
26 39 35 42 20 46 20 46 2 0 -22 -19 -30 -35 -16 -18 15 -20 -1 -3 -18 16 -16
-4 -16 -21 1 -11 10 -13 10 -7 0 4 -7 3 -13 -3 -13 -5 0 -12 -9 -16 -19 -4
-12 -12 -18 -21 -14 -10 4 -14 -3 -14 -28 0 -18 3 -29 7 -26 6 6 32 -21 33
-34 0 -4 -6 -9 -14 -12 -10 -4 -12 0 -8 15 3 14 1 19 -6 14 -7 -4 -12 -29 -12
-57 l0 -49 160 0 160 0 0 53 c0 62 -5 70 -32 54 -16 -10 -22 -8 -36 10 -9 12
-21 19 -27 15 -13 -9 -16 -42 -4 -42 5 0 9 -5 9 -11 0 -6 -7 -9 -14 -6 -9 4
-17 -2 -21 -14 -4 -10 -10 -17 -15 -14 -5 3 -14 -3 -20 -12 -11 -17 -11 -17
-6 0 3 10 6 21 6 23 0 2 8 4 17 4 15 0 14 2 -2 14 -11 8 -23 12 -26 10 -4 -2
-14 5 -23 15 -13 14 -14 24 -7 45 9 22 8 26 -7 27 -12 0 -10 3 7 10 15 6 21
15 17 24 -3 8 -1 15 4 15 6 0 10 -8 10 -18 0 -19 18 -42 33 -42 4 0 5 5 2 10
-3 6 0 11 7 12 7 0 18 2 23 3 6 2 15 3 20 4 6 1 -3 12 -20 26 -16 14 -23 23
-15 20 11 -4 16 1 17 16 2 17 -1 18 -13 9 -11 -10 -17 -10 -29 0 -15 12 -16
11 -19 -12 -2 -17 -23 -21 -23 -4 0 8 7 18 16 22 24 10 81 12 81 2 0 -4 8 -8
18 -9 14 0 14 -2 -3 -9 -19 -8 -19 -9 -1 -9 15 -1 16 -4 7 -15 -9 -11 -8 -15
5 -20 22 -8 26 -8 19 3 -3 5 -1 13 5 16 6 4 9 3 8 -2 -2 -4 1 -9 6 -10 5 -1
13 -7 17 -15 5 -8 9 14 9 55 l0 67 -160 0 -160 0 0 -46z"/>
<path fill="#ffffff" stroke="none" d="M70 50 c0 -15 -7 -20 -25 -20 -24 0
-24 1 -7 19 22 25 32 26 32 1z"/>
<path fill="#000000" stroke="none" d="M300 161 c0 -5 -6 -8 -12 -7 -7 0 -14
-3 -16 -8 -1 -5 9 -10 23 -12 19 -2 25 2 25 17 0 10 -4 19 -10 19 -5 0 -10 -4
-10 -9z"/>
<path fill="#000000" stroke="none" d="M133 130 c4 -28 14 -35 30 -22 8 7 18
8 23 4 5 -4 0 3 -10 16 -24 27 -47 29 -43 2z"/>
</g>
</svg>
