<?xml version="1.0" standalone="no"?>
<!DOCTYPE svg PUBLIC "-//W3C//DTD SVG 20010904//EN"
 "http://www.w3.org/TR/2001/REC-SVG-20010904/DTD/svg10.dtd">
<svg version="1.0" xmlns="http://www.w3.org/2000/svg"
 width="32.000000pt" height="32.000000pt" viewBox="0 0 32.000000 32.000000"
 preserveAspectRatio="xMidYMid meet">
<metadata>
Created by potrace 1.16, written by Peter Selinger 2001-2019
</metadata>
<g transform="translate(0.000000,32.000000) scale(0.100000,-0.100000)"
fill="#000000" stroke="none">
<path fill="#000000" stroke="none" d="M42 215 c1 -14 7 -25 13 -25 5 0 5 -4
-2 -8 -8 -5 -9 -13 -3 -22 8 -13 10 -13 10 -1 0 8 3 11 7 8 7 -8 33 11 33 24
0 4 -10 9 -22 11 -22 3 -39 28 -18 28 6 0 8 -5 4 -12 -4 -7 -3 -8 4 -4 19 11
14 26 -8 26 -15 0 -19 -6 -18 -25z"/>
<path fill="#000000" stroke="none" d="M215 230 c-3 -6 1 -13 9 -16 9 -3 13
-10 10 -15 -3 -5 -10 -7 -15 -4 -5 3 -6 -2 -2 -11 5 -13 3 -15 -8 -9 -9 5 -7
1 3 -11 14 -16 15 -23 5 -33 -17 -18 22 -3 46 17 25 22 21 33 -8 26 -26 -7
-33 4 -14 23 9 9 8 16 -4 27 -10 10 -18 12 -22 6z"/>
<path fill="#ffffff" stroke="none" d="M258 152 c-8 -9 -14 -9 -24 -1 -18 15
-18 14 10 14 18 0 22 -3 14 -13z"/>
<path fill="#000000" stroke="none" d="M12 155 c-11 -12 -10 -15 3 -15 8 0 15
7 15 15 0 18 -2 18 -18 0z"/>
<path fill="#000000" stroke="none" d="M178 138 c8 -9 11 -22 7 -28 -3 -5 -1
-10 4 -10 17 0 13 26 -6 41 -16 13 -17 12 -5 -3z"/>
<path fill="#000000" stroke="none" d="M0 116 c0 -2 7 -9 15 -16 13 -11 14
-10 9 4 -5 14 -24 23 -24 12z"/>
<path fill="#000000" stroke="none" d="M156 103 c-6 -14 -5 -15 5 -6 7 7 10
15 7 18 -3 3 -9 -2 -12 -12z"/>
<path fill="#000000" stroke="none" d="M203 98 c-25 -32 -26 -40 -4 -26 12 7
21 18 21 25 0 16 -5 16 -17 1z"/>
</g>
</svg>
