<?xml version="1.0" standalone="no"?>
<!DOCTYPE svg PUBLIC "-//W3C//DTD SVG 20010904//EN"
 "http://www.w3.org/TR/2001/REC-SVG-20010904/DTD/svg10.dtd">
<svg version="1.0" xmlns="http://www.w3.org/2000/svg"
 width="32.000000pt" height="32.000000pt" viewBox="0 0 32.000000 32.000000"
 preserveAspectRatio="xMidYMid meet">
<metadata>
Created by potrace 1.16, written by Peter Selinger 2001-2019
</metadata>
<g transform="translate(0.000000,32.000000) scale(0.100000,-0.100000)"
fill="#000000" stroke="none">
<path fill="#000000" stroke="none" d="M0 235 c0 -63 4 -86 15 -92 15 -9 10
-53 -6 -53 -5 0 -9 -20 -9 -45 l0 -45 160 0 160 0 0 160 0 160 -160 0 -160 0
0 -85z"/>
<path fill="#ffffff" stroke="none" d="M247 187 c18 -21 19 -26 5 -43 -14 -18
-14 -18 -9 4 4 18 1 22 -19 22 -22 0 -23 2 -12 20 7 11 13 20 14 20 0 0 10
-11 21 -23z"/>
<path fill="#ffffff" stroke="none" d="M173 110 c-3 -11 -10 -17 -17 -13 -6 3
-2 -4 9 -17 l20 -23 -25 8 c-29 8 -59 24 -47 25 17 0 23 4 35 21 17 25 31 24
25 -1z"/>
</g>
</svg>
