<?xml version="1.0" standalone="no"?>
<!DOCTYPE svg PUBLIC "-//W3C//DTD SVG 20010904//EN"
 "http://www.w3.org/TR/2001/REC-SVG-20010904/DTD/svg10.dtd">
<svg version="1.0" xmlns="http://www.w3.org/2000/svg"
 width="32.000000pt" height="32.000000pt" viewBox="0 0 32.000000 32.000000"
 preserveAspectRatio="xMidYMid meet">
<metadata>
Created by potrace 1.16, written by Peter Selinger 2001-2019
</metadata>
<g transform="translate(0.000000,32.000000) scale(0.100000,-0.100000)"
fill="#000000" stroke="none">
<path fill="#000000" stroke="none" d="M0 160 l0 -160 160 0 160 0 0 158 0
158 -160 2 -160 2 0 -160z"/>
<path fill="#ffffff" stroke="none" d="M184 298 c-4 -7 -16 -24 -28 -36 l-21
-24 25 4 c17 2 26 10 28 26 4 27 28 40 44 24 8 -8 5 -9 -11 -5 -16 4 -21 1
-21 -14 0 -24 -19 -43 -41 -43 -30 0 -30 16 -1 48 29 33 37 40 26 20z"/>
<path fill="#ffffff" stroke="none" d="M279 276 c-3 -3 -11 5 -18 17 -13 21
-12 21 5 5 10 -10 16 -20 13 -22z"/>
</g>
</svg>
