<?xml version="1.0" standalone="no"?>
<!DOCTYPE svg PUBLIC "-//W3C//DTD SVG 20010904//EN"
 "http://www.w3.org/TR/2001/REC-SVG-20010904/DTD/svg10.dtd">
<svg version="1.0" xmlns="http://www.w3.org/2000/svg"
 width="32.000000pt" height="32.000000pt" viewBox="0 0 32.000000 32.000000"
 preserveAspectRatio="xMidYMid meet">
<metadata>
Created by potrace 1.16, written by Peter Selinger 2001-2019
</metadata>
<g transform="translate(0.000000,32.000000) scale(0.100000,-0.100000)"
fill="#000000" stroke="none">
<path fill="#000000" stroke="none" d="M260 241 c0 -6 5 -13 10 -16 6 -3 10
-17 10 -31 0 -17 -8 -28 -27 -35 -50 -20 -58 -26 -71 -53 -16 -32 -9 -45 13
-26 10 8 15 9 15 1 0 -23 26 -9 67 36 48 52 55 88 23 116 -22 19 -40 22 -40 8z"/>
</g>
</svg>
