<?xml version="1.0" standalone="no"?>
<!DOCTYPE svg PUBLIC "-//W3C//DTD SVG 20010904//EN"
 "http://www.w3.org/TR/2001/REC-SVG-20010904/DTD/svg10.dtd">
<svg version="1.0" xmlns="http://www.w3.org/2000/svg"
 width="32.000000pt" height="32.000000pt" viewBox="0 0 32.000000 32.000000"
 preserveAspectRatio="xMidYMid meet">
<metadata>
Created by potrace 1.16, written by Peter Selinger 2001-2019
</metadata>
<g transform="translate(0.000000,32.000000) scale(0.100000,-0.100000)"
fill="#000000" stroke="none">
<path fill="#000000" stroke="none" d="M248 253 c-24 -6 -23 -20 3 -34 14 -7
19 -17 16 -30 -3 -10 0 -19 6 -19 6 0 2 -6 -8 -14 -11 -8 -24 -12 -29 -9 -5 4
-6 1 -2 -5 8 -14 35 -3 56 23 10 12 11 26 4 52 -9 38 -17 44 -46 36z"/>
<path fill="#ffffff" stroke="none" d="M285 214 c3 -20 4 -38 2 -40 -2 -3 -7
9 -10 26 -4 20 -13 30 -24 30 -15 0 -16 2 -3 10 24 15 27 12 35 -26z"/>
</g>
</svg>
