<?xml version="1.0" standalone="no"?>
<!DOCTYPE svg PUBLIC "-//W3C//DTD SVG 20010904//EN"
 "http://www.w3.org/TR/2001/REC-SVG-20010904/DTD/svg10.dtd">
<svg version="1.0" xmlns="http://www.w3.org/2000/svg"
 width="32.000000pt" height="32.000000pt" viewBox="0 0 32.000000 32.000000"
 preserveAspectRatio="xMidYMid meet">
<metadata>
Created by potrace 1.16, written by Peter Selinger 2001-2019
</metadata>
<g transform="translate(0.000000,32.000000) scale(0.100000,-0.100000)"
fill="#000000" stroke="none">
<path fill="#000000" stroke="none" d="M0 160 l0 -160 160 0 160 0 0 82 0 81
-43 -46 c-41 -45 -67 -59 -67 -36 0 8 -5 7 -15 -1 -22 -19 -29 -6 -13 26 13
27 21 33 71 53 19 7 27 18 27 35 0 14 -4 28 -10 31 -15 9 -12 25 5 25 8 0 15
-4 15 -9 0 -5 7 -11 15 -15 12 -4 15 4 15 44 l0 50 -160 0 -160 0 0 -160z"/>
</g>
</svg>
