<?xml version="1.0" standalone="no"?>
<!DOCTYPE svg PUBLIC "-//W3C//DTD SVG 20010904//EN"
 "http://www.w3.org/TR/2001/REC-SVG-20010904/DTD/svg10.dtd">
<svg version="1.0" xmlns="http://www.w3.org/2000/svg"
 width="32.000000pt" height="32.000000pt" viewBox="0 0 32.000000 32.000000"
 preserveAspectRatio="xMidYMid meet">
<metadata>
Created by potrace 1.16, written by Peter Selinger 2001-2019
</metadata>
<g transform="translate(0.000000,32.000000) scale(0.100000,-0.100000)"
fill="#000000" stroke="none">
<path fill="#000000" stroke="none" d="M0 160 l0 -160 160 0 160 0 0 158 0
158 -160 2 -160 2 0 -160z"/>
<path fill="#ffffff" stroke="none" d="M246 301 c7 12 34 -8 34 -25 0 -8 -2
-8 -8 0 -4 6 -22 11 -39 12 -25 0 -33 -4 -33 -17 0 -22 -19 -41 -41 -41 -30 0
-30 16 -2 47 23 25 32 29 55 22 16 -4 30 -3 34 2z"/>
<path fill="#000000" stroke="none" d="M161 269 l-24 -31 23 4 c17 2 24 11 27
31 5 33 4 33 -26 -4z"/>
</g>
</svg>
