<?xml version="1.0" standalone="no"?>
<!DOCTYPE svg PUBLIC "-//W3C//DTD SVG 20010904//EN"
 "http://www.w3.org/TR/2001/REC-SVG-20010904/DTD/svg10.dtd">
<svg version="1.0" xmlns="http://www.w3.org/2000/svg"
 width="32.000000pt" height="32.000000pt" viewBox="0 0 32.000000 32.000000"
 preserveAspectRatio="xMidYMid meet">
<metadata>
Created by potrace 1.16, written by Peter Selinger 2001-2019
</metadata>
<g transform="translate(0.000000,32.000000) scale(0.100000,-0.100000)"
fill="#000000" stroke="none">
<path fill="#000000" stroke="none" d="M1 283 c0 -35 1 -36 10 -14 5 14 15 31
21 38 8 10 6 13 -11 13 -18 0 -21 -6 -20 -37z"/>
<path fill="#000000" stroke="none" d="M60 309 c0 -5 5 -7 10 -4 6 3 17 -1 25
-9 14 -14 14 -18 0 -40 -13 -19 -13 -25 -3 -29 8 -3 -2 -19 -31 -45 -24 -22
-41 -45 -37 -51 4 -6 3 -11 -3 -11 -5 0 -12 6 -14 13 -3 6 -6 -21 -6 -60 l-1
-73 160 0 160 0 0 103 -1 102 -19 -36 c-22 -41 -78 -99 -97 -99 -10 0 -12 10
-7 39 5 34 3 43 -19 65 -26 26 -14 38 13 14 12 -11 12 -10 1 5 -7 9 -20 17
-27 17 -8 0 -14 5 -14 10 0 6 9 10 20 10 21 0 29 33 10 45 -22 14 -9 26 20 20
23 -5 30 -3 30 9 0 13 -14 16 -85 16 -53 0 -85 -4 -85 -11z"/>
<path fill="#000000" stroke="none" d="M260 300 c6 -11 13 -20 15 -20 3 0 5 9
5 20 0 11 -7 20 -15 20 -13 0 -14 -4 -5 -20z"/>
<path fill="#000000" stroke="none" d="M306 305 c4 -8 8 -15 10 -15 2 0 4 7 4
15 0 8 -4 15 -10 15 -5 0 -7 -7 -4 -15z"/>
<path fill="#000000" stroke="none" d="M253 245 c0 -8 4 -12 9 -9 5 3 6 10 3
15 -9 13 -12 11 -12 -6z"/>
<path fill="#000000" stroke="none" d="M284 216 c-3 -8 -6 -20 -8 -28 -1 -7
-5 -20 -10 -28 -8 -13 -7 -13 7 0 9 8 18 27 21 43 5 29 -1 37 -10 13z"/>
<path fill="#000000" stroke="none" d="M56 212 c-3 -5 1 -9 9 -9 8 0 12 4 9 9
-3 4 -7 8 -9 8 -2 0 -6 -4 -9 -8z"/>
<path fill="#000000" stroke="none" d="M210 101 c-7 -15 -7 -21 0 -21 12 0 25
28 17 36 -3 3 -10 -4 -17 -15z"/>
</g>
</svg>
