<?xml version="1.0" standalone="no"?>
<!DOCTYPE svg PUBLIC "-//W3C//DTD SVG 20010904//EN"
 "http://www.w3.org/TR/2001/REC-SVG-20010904/DTD/svg10.dtd">
<svg version="1.0" xmlns="http://www.w3.org/2000/svg"
 width="32.000000pt" height="32.000000pt" viewBox="0 0 32.000000 32.000000"
 preserveAspectRatio="xMidYMid meet">
<metadata>
Created by potrace 1.16, written by Peter Selinger 2001-2019
</metadata>
<g transform="translate(0.000000,32.000000) scale(0.100000,-0.100000)"
fill="#000000" stroke="none">
<path fill="#000000" stroke="none" d="M0 160 l0 -160 160 0 160 0 0 160 0
160 -160 0 -160 0 0 -160z"/>
<path fill="#ffffff" stroke="none" d="M280 261 c0 -5 -7 -14 -16 -22 -11 -9
-14 -22 -10 -41 5 -26 3 -28 -18 -22 -15 3 -34 -1 -50 -11 -23 -15 -26 -15
-26 -2 0 9 4 27 10 42 7 17 7 24 0 20 -6 -3 -10 -2 -10 2 0 5 24 16 53 24 65
21 67 21 67 10z"/>
</g>
</svg>
