<?xml version="1.0" standalone="no"?>
<!DOCTYPE svg PUBLIC "-//W3C//DTD SVG 20010904//EN"
 "http://www.w3.org/TR/2001/REC-SVG-20010904/DTD/svg10.dtd">
<svg version="1.0" xmlns="http://www.w3.org/2000/svg"
 width="32.000000pt" height="32.000000pt" viewBox="0 0 32.000000 32.000000"
 preserveAspectRatio="xMidYMid meet">
<metadata>
Created by potrace 1.16, written by Peter Selinger 2001-2019
</metadata>
<g transform="translate(0.000000,32.000000) scale(0.100000,-0.100000)"
fill="#000000" stroke="none">
<path fill="#000000" stroke="none" d="M125 313 c-11 -3 -27 -11 -35 -18 -8
-7 -28 -15 -44 -17 -36 -4 -58 -34 -36 -48 10 -6 11 -10 3 -10 -7 0 -13 -11
-13 -25 0 -14 4 -25 10 -25 5 0 7 -13 4 -30 -4 -19 -2 -30 5 -30 11 0 16 26
12 68 -1 15 8 33 26 49 l28 25 -27 -5 c-15 -2 -25 -1 -23 3 3 4 28 11 57 14
57 8 94 28 83 45 -6 11 -16 12 -50 4z"/>
<path fill="#000000" stroke="none" d="M245 240 c-3 -11 -12 -20 -19 -20 -25
0 -56 -45 -56 -83 0 -20 5 -39 10 -42 6 -3 10 -10 10 -16 0 -13 -27 -11 -34 4
-3 6 -4 0 -1 -15 4 -20 -1 -31 -17 -42 -26 -18 -18 -32 10 -17 11 6 22 7 26 4
3 -4 28 -8 55 -10 43 -2 51 1 66 24 13 20 15 31 6 49 -7 16 -7 25 0 30 6 3 9
23 8 45 -2 21 0 41 4 45 12 13 7 36 -10 50 -26 19 -51 17 -58 -6z"/>
<path fill="#000000" stroke="none" d="M58 133 c-9 -2 -16 -13 -15 -24 1 -16
9 -19 47 -18 25 0 39 3 31 6 -11 4 -11 7 0 14 7 4 11 10 9 12 -9 8 -55 14 -72
10z"/>
<path fill="#000000" stroke="none" d="M11 76 c-10 -24 -9 -32 3 -45 21 -21
25 -13 17 34 l-8 40 -12 -29z"/>
</g>
</svg>
