<?xml version="1.0" standalone="no"?>
<!DOCTYPE svg PUBLIC "-//W3C//DTD SVG 20010904//EN"
 "http://www.w3.org/TR/2001/REC-SVG-20010904/DTD/svg10.dtd">
<svg version="1.0" xmlns="http://www.w3.org/2000/svg"
 width="32.000000pt" height="32.000000pt" viewBox="0 0 32.000000 32.000000"
 preserveAspectRatio="xMidYMid meet">
<metadata>
Created by potrace 1.16, written by Peter Selinger 2001-2019
</metadata>
<g transform="translate(0.000000,32.000000) scale(0.100000,-0.100000)"
fill="#000000" stroke="none">
<path fill="#000000" stroke="none" d="M0 160 l0 -160 48 0 c43 0 49 3 65 33
17 32 17 32 -2 10 -21 -26 -41 -29 -59 -11 -17 17 -15 31 3 24 12 -4 14 0 9
18 -7 29 11 43 32 25 13 -11 18 -10 25 4 13 22 39 22 39 0 0 -15 2 -15 19 1
15 13 20 14 25 4 3 -7 4 -4 1 8 -3 12 1 26 9 33 22 18 56 -3 56 -34 0 -28 7
-30 33 -11 14 11 17 30 17 115 l0 101 -160 0 -160 0 0 -160z"/>
<path fill="#ffffff" stroke="none" d="M56 175 c1 -8 -2 -15 -7 -15 -5 0 -9
10 -9 22 0 23 12 17 16 -7z"/>
<path fill="#ffffff" stroke="none" d="M93 180 c-7 -25 -23 -27 -18 -2 2 9 4
18 4 20 1 1 5 2 10 2 5 0 7 -9 4 -20z"/>
<path fill="#000000" stroke="none" d="M183 75 c-7 -21 2 -29 24 -21 14 6 15
9 4 15 -11 7 -11 9 0 14 10 4 8 6 -4 6 -10 1 -20 -6 -24 -14z"/>
<path fill="#000000" stroke="none" d="M305 70 c-4 -6 -16 -8 -26 -5 -14 5
-28 -1 -46 -19 -25 -26 -53 -34 -53 -17 0 14 -38 1 -44 -15 -4 -11 12 -14 89
-14 l95 0 0 40 c0 41 -4 48 -15 30z"/>
</g>
</svg>
