<?xml version="1.0" standalone="no"?>
<!DOCTYPE svg PUBLIC "-//W3C//DTD SVG 20010904//EN"
 "http://www.w3.org/TR/2001/REC-SVG-20010904/DTD/svg10.dtd">
<svg version="1.0" xmlns="http://www.w3.org/2000/svg"
 width="32.000000pt" height="32.000000pt" viewBox="0 0 32.000000 32.000000"
 preserveAspectRatio="xMidYMid meet">
<metadata>
Created by potrace 1.16, written by Peter Selinger 2001-2019
</metadata>
<g transform="translate(0.000000,32.000000) scale(0.100000,-0.100000)"
fill="#000000" stroke="none">
<path fill="#000000" stroke="none" d="M0 160 l0 -160 160 0 160 0 0 160 0
160 -160 0 -160 0 0 -160z"/>
<path fill="#ffffff" stroke="none" d="M128 153 c-10 -2 -18 -9 -18 -15 0 -6
-3 -9 -6 -5 -10 10 6 27 24 26 15 -1 15 -2 0 -6z"/>
<path fill="#ffffff" stroke="none" d="M56 118 c-19 -11 -19 -11 -1 -24 18
-13 17 -14 -8 -14 -15 0 -27 3 -27 7 0 11 33 43 44 43 6 0 2 -6 -8 -12z"/>
<path fill="#ffffff" stroke="none" d="M183 36 c31 -5 34 1 10 21 -16 13 -16
13 5 3 33 -16 29 -40 -8 -36 -33 4 -60 22 -60 40 0 6 6 3 14 -6 7 -9 24 -19
39 -22z"/>
</g>
</svg>
