<?xml version="1.0" standalone="no"?>
<!DOCTYPE svg PUBLIC "-//W3C//DTD SVG 20010904//EN"
 "http://www.w3.org/TR/2001/REC-SVG-20010904/DTD/svg10.dtd">
<svg version="1.0" xmlns="http://www.w3.org/2000/svg"
 width="32.000000pt" height="32.000000pt" viewBox="0 0 32.000000 32.000000"
 preserveAspectRatio="xMidYMid meet">
<metadata>
Created by potrace 1.16, written by Peter Selinger 2001-2019
</metadata>
<g transform="translate(0.000000,32.000000) scale(0.100000,-0.100000)"
fill="#000000" stroke="none">
<path fill="#000000" stroke="none" d="M0 185 l0 -135 37 0 c20 0 45 7 55 17
20 18 34 12 25 -12 -4 -8 -16 -15 -28 -15 -15 0 -19 -5 -15 -15 6 -18 2 -18
-42 -6 -25 8 -32 7 -32 -5 0 -12 28 -14 160 -14 l160 0 0 25 0 25 -35 -20
c-35 -19 -96 -30 -67 -11 22 13 -16 23 -40 10 -15 -8 -19 -8 -14 0 4 6 3 11
-2 11 -6 0 -12 -7 -16 -15 -6 -16 -46 -21 -46 -6 0 5 14 14 30 21 30 12 39 33
20 45 -5 3 -10 17 -10 31 0 17 8 27 27 35 34 13 44 2 50 -55 3 -26 9 -49 14
-52 16 -10 89 19 89 35 0 12 -3 12 -12 3 -7 -7 -21 -12 -33 -12 -12 0 -26 -5
-33 -12 -9 -9 -10 -5 -3 19 5 16 7 42 4 56 -4 21 0 29 21 38 20 9 29 9 41 -1
13 -11 15 -3 15 69 l0 81 -160 0 -160 0 0 -135z"/>
<path fill="#ffffff" stroke="none" d="M88 141 c6 -1 12 -6 12 -12 0 -5 -5 -7
-12 -3 -7 5 -9 2 -6 -8 4 -8 1 -15 -7 -15 -7 0 -10 8 -7 21 4 21 4 21 -11 1
-16 -20 -16 -20 -14 1 1 14 7 21 17 19 8 -2 21 -4 28 -4z"/>
<path fill="#000000" stroke="none" d="M250 149 c0 -17 33 -69 44 -69 5 0 2 8
-7 18 -10 10 -17 28 -17 40 0 12 -4 22 -10 22 -5 0 -10 -5 -10 -11z"/>
<path fill="#000000" stroke="none" d="M170 125 c0 -3 6 -14 12 -25 10 -16 10
-24 -1 -43 -13 -19 -12 -21 1 -10 8 7 17 11 19 8 9 -9 8 39 -2 57 -9 16 -29
25 -29 13z"/>
</g>
</svg>
