<?xml version="1.0" standalone="no"?>
<!DOCTYPE svg PUBLIC "-//W3C//DTD SVG 20010904//EN"
 "http://www.w3.org/TR/2001/REC-SVG-20010904/DTD/svg10.dtd">
<svg version="1.0" xmlns="http://www.w3.org/2000/svg"
 width="32.000000pt" height="32.000000pt" viewBox="0 0 32.000000 32.000000"
 preserveAspectRatio="xMidYMid meet">
<metadata>
Created by potrace 1.16, written by Peter Selinger 2001-2019
</metadata>
<g transform="translate(0.000000,32.000000) scale(0.100000,-0.100000)"
fill="#000000" stroke="none">
<path fill="#000000" stroke="none" d="M52 153 l-2 -152 110 0 c106 1 110 2
109 23 -1 16 -2 17 -6 3 -2 -9 -8 -17 -12 -17 -20 0 -52 107 -47 155 4 33 7
34 35 6 17 -17 18 -20 4 -26 -9 -3 -20 0 -25 7 -6 10 -8 10 -8 1 0 -13 30 -33
49 -33 7 0 10 32 9 93 -2 82 -2 84 -5 25 -2 -38 -7 -68 -11 -68 -12 0 -41 63
-44 95 -3 28 -6 30 -43 30 -37 0 -40 -3 -45 -30 -6 -32 -40 -95 -52 -95 -4 0
-9 30 -11 68 -2 37 -4 -1 -5 -85z"/>
<path fill="#ffffff" stroke="none" d="M192 275 c4 -5 0 -18 -9 -27 -15 -16
-15 -18 0 -18 26 0 29 -18 7 -40 -11 -11 -20 -23 -20 -27 0 -5 -4 -8 -10 -8
-5 0 -10 3 -10 8 0 4 -9 16 -20 27 -22 22 -19 40 7 40 13 0 13 2 2 16 -12 15
-11 16 6 11 11 -4 27 -2 35 4 13 9 12 10 -2 5 -19 -6 -48 2 -48 13 0 11 54 7
62 -4z"/>
<path fill="#ffffff" stroke="none" d="M116 163 c5 -48 -28 -153 -48 -153 -4
0 -8 24 -8 53 0 44 3 54 22 62 12 6 23 17 26 25 3 11 1 12 -6 2 -5 -7 -16 -10
-24 -7 -13 5 -12 10 6 30 24 27 28 25 32 -12z"/>
<path fill="#ffffff" stroke="none" d="M141 79 c-3 -17 -11 -30 -16 -29 -10 1
-10 42 0 69 10 26 23 -6 16 -40z"/>
<path fill="#ffffff" stroke="none" d="M202 83 c2 -18 -1 -33 -7 -34 -11 -3
-24 49 -17 69 7 21 21 0 24 -35z"/>
<path fill="#ffffff" stroke="none" d="M190 13 c0 -2 -11 -3 -25 -3 -28 0 -31
15 -13 55 l11 25 14 -37 c7 -21 13 -39 13 -40z"/>
<path fill="#ffffff" stroke="none" d="M120 19 c0 -5 -7 -9 -15 -9 -15 0 -20
12 -9 23 8 8 24 -1 24 -14z"/>
<path fill="#ffffff" stroke="none" d="M230 19 c0 -5 -7 -9 -15 -9 -15 0 -20
12 -9 23 8 8 24 -1 24 -14z"/>
<path fill="#000000" stroke="none" d="M261 94 c0 -11 3 -14 6 -6 3 7 2 16 -1
19 -3 4 -6 -2 -5 -13z"/>
</g>
</svg>
