<?xml version="1.0" standalone="no"?>
<!DOCTYPE svg PUBLIC "-//W3C//DTD SVG 20010904//EN"
 "http://www.w3.org/TR/2001/REC-SVG-20010904/DTD/svg10.dtd">
<svg version="1.0" xmlns="http://www.w3.org/2000/svg"
 width="32.000000pt" height="32.000000pt" viewBox="0 0 32.000000 32.000000"
 preserveAspectRatio="xMidYMid meet">
<metadata>
Created by potrace 1.16, written by Peter Selinger 2001-2019
</metadata>
<g transform="translate(0.000000,32.000000) scale(0.100000,-0.100000)"
fill="#000000" stroke="none">
<path fill="#000000" stroke="none" d="M0 271 c0 -59 7 -81 25 -75 7 3 19 -2
28 -10 8 -8 17 -13 20 -10 3 4 11 3 17 -1 8 -5 8 -10 0 -20 -11 -14 -3 -68 9
-60 4 2 8 -2 8 -10 0 -8 -5 -15 -10 -15 -5 0 -7 -11 -5 -25 3 -14 1 -28 -4
-31 -4 -3 -7 -1 -6 4 2 5 -9 21 -25 35 -24 23 -27 24 -27 7 0 -35 43 -57 112
-57 35 1 51 3 36 5 -18 2 -28 9 -28 20 0 14 2 14 9 3 8 -12 13 -12 35 3 26 16
27 16 35 -7 8 -19 17 -24 48 -24 21 0 30 2 21 4 -10 2 -18 9 -18 14 0 6 5 7
11 3 17 -10 -10 36 -42 74 -35 40 -40 69 -9 50 11 -7 20 -16 20 -21 0 -4 4 -6
9 -3 5 3 11 -4 14 -15 6 -21 5 -21 -19 2 -36 34 -29 9 9 -31 19 -19 37 -42 40
-50 3 -8 5 -2 4 15 -1 17 -8 36 -14 43 -7 7 -13 18 -13 23 0 6 6 7 13 3 6 -4
-14 17 -45 47 -32 30 -58 63 -58 73 0 16 3 15 30 -4 32 -23 60 -21 60 3 0 8
-7 20 -15 27 -8 7 -15 22 -16 34 0 11 -3 16 -5 10 -3 -7 -15 -9 -26 -6 -21 5
-21 6 -2 13 16 6 16 8 2 8 -9 1 -22 -7 -27 -16 -6 -10 -11 -14 -11 -9 0 23
-30 -20 -30 -44 0 -32 -23 -55 -45 -46 -19 7 -19 30 1 50 14 15 13 16 -16 16
-22 0 -41 -9 -61 -29 -16 -16 -29 -26 -29 -21 0 18 63 60 89 60 37 0 44 -10
24 -32 -12 -13 -13 -22 -6 -29 12 -12 33 -4 33 13 0 6 -7 5 -17 -3 -17 -13
-17 -13 0 7 9 11 17 24 17 29 0 5 10 19 22 32 l21 23 -96 0 -97 0 0 -49z"/>
<path fill="#ffffff" stroke="none" d="M144 133 c-1 -21 -5 -37 -10 -35 -5 1
-9 6 -9 11 0 5 -3 13 -8 17 -5 5 18 44 27 44 1 0 1 -17 0 -37z"/>
<path fill="#000000" stroke="none" d="M272 295 c-1 -16 6 -30 18 -37 26 -17
25 -32 -4 -47 -20 -11 -28 -10 -51 5 -28 18 -28 18 -16 -3 13 -25 72 -73 89
-73 15 0 16 26 2 35 -5 3 -10 14 -10 23 0 15 2 15 10 2 7 -11 10 5 10 53 0 63
-1 67 -23 67 -17 0 -23 -6 -25 -25z"/>
<path fill="#000000" stroke="none" d="M12 178 c-13 -13 -17 -118 -4 -118 4 0
15 14 24 31 18 30 43 33 31 3 -5 -13 -8 -13 -15 -2 -7 9 -8 8 -4 -5 3 -10 6
-21 6 -23 0 -8 29 -4 34 5 3 5 1 23 -5 40 -9 24 -8 35 2 48 12 15 12 16 -3 10
-9 -3 -22 1 -28 9 -15 17 -22 18 -38 2z"/>
<path fill="#000000" stroke="none" d="M5 10 c-4 -6 6 -10 22 -10 22 0 25 2
13 10 -19 12 -27 12 -35 0z"/>
</g>
</svg>
