<?xml version="1.0" standalone="no"?>
<!DOCTYPE svg PUBLIC "-//W3C//DTD SVG 20010904//EN"
 "http://www.w3.org/TR/2001/REC-SVG-20010904/DTD/svg10.dtd">
<svg version="1.0" xmlns="http://www.w3.org/2000/svg"
 width="32.000000pt" height="32.000000pt" viewBox="0 0 32.000000 32.000000"
 preserveAspectRatio="xMidYMid meet">
<metadata>
Created by potrace 1.16, written by Peter Selinger 2001-2019
</metadata>
<g transform="translate(0.000000,32.000000) scale(0.100000,-0.100000)"
fill="#000000" stroke="none">
<path fill="#000000" stroke="none" d="M1 293 c2 -24 2 -25 6 -5 3 16 11 22
31 22 25 0 25 -1 6 -16 -18 -15 -18 -15 3 -5 12 6 34 12 50 12 23 1 21 3 -12
10 -73 15 -85 12 -84 -18z"/>
<path fill="#000000" stroke="none" d="M170 310 c0 -5 -8 -7 -17 -3 -10 3 -15
3 -11 -1 3 -4 39 -9 80 -10 40 -2 67 -1 60 2 -6 2 -10 7 -8 10 2 4 -20 8 -50
10 -31 1 -54 -2 -54 -8z"/>
<path fill="#000000" stroke="none" d="M290 316 c0 -2 7 -6 15 -10 8 -3 15 -1
15 4 0 6 -7 10 -15 10 -8 0 -15 -2 -15 -4z"/>
<path fill="#000000" stroke="none" d="M76 233 c-6 -14 -5 -15 5 -6 7 7 10 15
7 18 -3 3 -9 -2 -12 -12z"/>
<path fill="#000000" stroke="none" d="M130 246 c0 -2 8 -10 18 -17 15 -13 16
-12 3 4 -13 16 -21 21 -21 13z"/>
<path fill="#000000" stroke="none" d="M201 247 c2 -1 11 -8 20 -15 14 -10 18
-10 23 3 4 11 -1 15 -21 15 -14 0 -24 -1 -22 -3z"/>
<path fill="#000000" stroke="none" d="M4 145 c0 -55 1 -76 3 -47 2 29 2 74 0
100 -2 26 -3 2 -3 -53z"/>
<path fill="#000000" stroke="none" d="M196 222 c-3 -6 -1 -14 5 -17 14 -9 20
-2 10 14 -6 8 -11 9 -15 3z"/>
<path fill="#000000" stroke="none" d="M250 214 c0 -8 5 -12 10 -9 6 4 8 11 5
16 -9 14 -15 11 -15 -7z"/>
<path fill="#000000" stroke="none" d="M314 135 c0 -55 1 -76 3 -47 2 29 2 74
0 100 -2 26 -3 2 -3 -53z"/>
<path fill="#000000" stroke="none" d="M40 183 c0 -14 8 -36 18 -47 16 -20 16
-20 -1 -7 -14 11 -20 12 -30 2 -9 -10 -8 -11 7 -5 15 6 17 4 11 -6 -6 -9 -4
-11 5 -5 10 6 12 3 7 -11 -7 -18 -7 -18 8 0 8 11 15 28 15 39 0 10 5 28 11 39
10 18 9 20 -5 15 -8 -3 -18 -2 -21 3 -12 19 -25 10 -25 -17z"/>
<path fill="#000000" stroke="none" d="M100 171 c-15 -29 -12 -46 9 -65 23
-21 43 -13 34 12 -6 15 -5 15 10 4 33 -28 36 0 3 34 -38 40 -42 40 -56 15z"/>
<path fill="#000000" stroke="none" d="M265 178 c-3 -7 -1 -26 4 -43 9 -29 9
-29 10 13 1 41 -5 54 -14 30z"/>
<path fill="#000000" stroke="none" d="M190 150 c0 -6 7 -13 15 -16 8 -4 12
-11 8 -17 -3 -6 -1 -7 5 -3 9 5 9 13 2 27 -11 20 -30 26 -30 9z"/>
<path fill="#000000" stroke="none" d="M240 136 c0 -8 5 -18 10 -21 6 -3 10 1
10 9 0 8 -4 18 -10 21 -5 3 -10 -1 -10 -9z"/>
<path fill="#000000" stroke="none" d="M110 40 c-23 -5 -23 -7 -6 -13 11 -4
24 -3 30 3 14 14 5 18 -24 10z"/>
<path fill="#000000" stroke="none" d="M0 20 c0 -4 7 -11 16 -14 19 -7 89 -8
82 -1 -9 9 -98 23 -98 15z"/>
<path fill="#000000" stroke="none" d="M290 20 l-25 -8 28 -1 c15 -1 27 4 27
9 0 6 -1 10 -2 9 -2 -1 -14 -5 -28 -9z"/>
</g>
</svg>
