<?xml version="1.0" standalone="no"?>
<!DOCTYPE svg PUBLIC "-//W3C//DTD SVG 20010904//EN"
 "http://www.w3.org/TR/2001/REC-SVG-20010904/DTD/svg10.dtd">
<svg version="1.0" xmlns="http://www.w3.org/2000/svg"
 width="32.000000pt" height="32.000000pt" viewBox="0 0 32.000000 32.000000"
 preserveAspectRatio="xMidYMid meet">
<metadata>
Created by potrace 1.16, written by Peter Selinger 2001-2019
</metadata>
<g transform="translate(0.000000,32.000000) scale(0.100000,-0.100000)"
fill="#000000" stroke="none">
<path fill="#000000" stroke="none" d="M105 307 c-49 -4 -91 -9 -92 -11 -2 -2
-5 -68 -6 -147 l-2 -144 158 -1 c86 -1 157 3 157 7 0 5 -6 9 -12 9 -8 0 -14
16 -16 40 -2 38 10 55 21 28 3 -7 6 2 6 20 1 20 -3 31 -9 27 -6 -4 -7 -12 -3
-18 4 -7 0 -7 -10 1 -9 8 -20 11 -25 9 -4 -3 -13 3 -20 14 -13 21 -3 26 16 7
6 -6 14 -9 18 -6 8 9 8 157 0 165 -10 10 -77 10 -181 0z"/>
<path fill="#ffffff" stroke="none" d="M251 262 c-13 -4 -22 -3 -18 2 1 2 -7
14 -18 27 -20 22 -19 22 13 -2 18 -13 29 -25 23 -27z"/>
<path fill="#ffffff" stroke="none" d="M194 281 c3 -4 -3 -16 -14 -26 -20 -18
-25 -11 -14 19 7 18 20 21 28 7z"/>
<path fill="#ffffff" stroke="none" d="M90 263 c-8 -3 -24 -10 -35 -15 -20 -9
-20 -9 -1 6 11 9 27 16 35 15 14 0 14 -1 1 -6z"/>
<path fill="#ffffff" stroke="none" d="M85 220 c-9 -16 -18 -30 -21 -30 -2 0
2 14 11 30 9 17 18 30 21 30 2 0 -2 -13 -11 -30z"/>
<path fill="#ffffff" stroke="none" d="M287 234 c2 -6 -3 -11 -10 -11 -8 0
-14 6 -14 14 0 15 19 12 24 -3z"/>
<path fill="#ffffff" stroke="none" d="M222 187 c10 -19 9 -20 -4 -10 -12 10
-15 10 -15 -2 0 -8 3 -15 7 -15 4 0 7 -7 8 -15 1 -8 3 -22 4 -30 1 -8 9 -17
19 -20 23 -8 52 -52 39 -60 -13 -8 -32 4 -25 15 8 13 -25 34 -53 35 -24 0 -27
4 -26 33 1 30 0 31 -18 15 -16 -14 -18 -15 -18 0 0 9 5 19 10 22 6 3 10 13 10
22 0 13 -3 13 -15 3 -9 -7 -19 -10 -23 -6 -11 12 22 31 56 33 24 2 35 -3 44
-20z"/>
<path fill="#ffffff" stroke="none" d="M110 130 c8 -16 8 -20 -2 -18 -17 4
-28 20 -22 30 8 12 12 10 24 -12z"/>
<path fill="#ffffff" stroke="none" d="M123 87 c4 3 10 -2 13 -11 9 -24 -21
-55 -38 -38 -8 8 -8 15 0 25 9 10 8 17 -1 27 -10 12 -9 12 4 2 9 -6 19 -9 22
-5z"/>
<path fill="#ffffff" stroke="none" d="M46 70 c0 -12 -4 -16 -9 -11 -5 5 -6
14 -3 20 10 15 12 14 12 -9z"/>
<path fill="#ffffff" stroke="none" d="M213 63 c-7 -2 -21 -2 -30 0 -10 3 -4
5 12 5 17 0 24 -2 18 -5z"/>
<path fill="#ffffff" stroke="none" d="M197 44 c-3 -3 -12 -4 -19 -1 -8 3 -5
6 6 6 11 1 17 -2 13 -5z"/>
</g>
</svg>
