<?xml version="1.0" standalone="no"?>
<!DOCTYPE svg PUBLIC "-//W3C//DTD SVG 20010904//EN"
 "http://www.w3.org/TR/2001/REC-SVG-20010904/DTD/svg10.dtd">
<svg version="1.0" xmlns="http://www.w3.org/2000/svg"
 width="32.000000pt" height="32.000000pt" viewBox="0 0 32.000000 32.000000"
 preserveAspectRatio="xMidYMid meet">
<metadata>
Created by potrace 1.16, written by Peter Selinger 2001-2019
</metadata>
<g transform="translate(0.000000,32.000000) scale(0.100000,-0.100000)"
fill="#000000" stroke="none">
<path fill="#000000" stroke="none" d="M0 296 c0 -14 5 -28 10 -31 8 -5 8 -11
0 -20 -15 -18 -11 -227 4 -237 6 -4 29 -7 51 -7 27 0 34 3 22 8 -10 4 -18 10
-18 14 1 4 -6 18 -15 32 -10 15 -13 32 -9 46 6 17 4 21 -9 16 -21 -8 -29 8
-11 23 24 20 47 -4 33 -35 -21 -47 44 -102 89 -76 14 8 15 11 3 11 -10 1 -9 4
5 10 l20 9 -20 1 -20 1 20 9 c17 7 17 9 3 9 -11 1 -15 6 -12 16 5 12 10 13 20
4 7 -6 18 -8 24 -4 16 10 12 36 -8 42 -10 2 -23 18 -29 34 -13 33 -37 38 -53
10 -16 -30 -12 -66 11 -95 32 -41 10 -61 -31 -28 -24 19 -23 31 11 120 7 16 5
22 -4 21 -31 -3 -55 14 -59 43 -7 46 21 59 126 56 74 -1 86 -4 81 -17 -3 -11
0 -10 10 3 13 18 16 18 40 2 14 -9 25 -15 26 -14 9 34 7 48 -7 48 -10 0 -14
-6 -11 -14 4 -10 1 -13 -8 -9 -8 3 -13 8 -11 12 2 3 -20 7 -50 9 -31 1 -54 -2
-54 -8 0 -5 -6 -8 -12 -5 -7 2 -46 6 -85 10 -73 6 -73 6 -73 -19z"/>
<path fill="#ffffff" stroke="none" d="M59 307 c-2 -1 -15 -11 -29 -22 l-25
-20 19 23 c11 12 24 22 29 22 6 0 8 -1 6 -3z"/>
<path fill="#000000" stroke="none" d="M61 266 c-8 -10 -8 -20 4 -42 8 -17 15
-22 15 -13 0 9 10 29 22 45 l22 29 -22 -19 c-19 -17 -22 -17 -16 -3 7 20 -9
23 -25 3z"/>
<path fill="#000000" stroke="none" d="M180 258 c6 -7 6 -16 -1 -24 -16 -19 7
-54 36 -54 37 0 55 10 55 32 0 11 -5 18 -12 15 -7 -2 -12 -9 -11 -14 1 -5 -5
-10 -13 -10 -11 0 -10 5 6 22 22 23 30 59 8 37 -15 -15 -50 -16 -66 -2 -9 7
-9 7 -2 -2z"/>
<path fill="#000000" stroke="none" d="M129 243 c12 -24 31 -39 31 -25 0 5
-10 17 -21 28 -22 19 -22 19 -10 -3z"/>
<path fill="#000000" stroke="none" d="M301 243 c-1 -13 -9 -32 -18 -43 -13
-14 -18 -40 -19 -90 l-2 -70 29 0 29 0 -1 93 c0 50 -4 101 -9 112 -8 19 -9 19
-9 -2z"/>
<path fill="#000000" stroke="none" d="M180 164 c0 -3 9 -17 19 -30 12 -16 22
-21 26 -14 4 6 -1 20 -11 31 -17 18 -34 25 -34 13z"/>
<path fill="#000000" stroke="none" d="M238 164 c-3 -5 -1 -20 5 -34 8 -20 11
-22 14 -8 5 20 -12 55 -19 42z"/>
<path fill="#000000" stroke="none" d="M26 132 c-2 -4 4 -8 14 -8 10 0 16 4
14 8 -3 4 -9 8 -14 8 -5 0 -11 -4 -14 -8z"/>
<path fill="#000000" stroke="none" d="M196 81 c-4 -5 -2 -12 3 -15 5 -4 12
-2 15 3 4 5 2 12 -3 15 -5 4 -12 2 -15 -3z"/>
<path fill="#000000" stroke="none" d="M280 20 c-12 -8 -9 -10 13 -10 15 0 27
5 27 10 0 13 -20 13 -40 0z"/>
</g>
</svg>
