<?xml version="1.0" standalone="no"?>
<!DOCTYPE svg PUBLIC "-//W3C//DTD SVG 20010904//EN"
 "http://www.w3.org/TR/2001/REC-SVG-20010904/DTD/svg10.dtd">
<svg version="1.0" xmlns="http://www.w3.org/2000/svg"
 width="32.000000pt" height="32.000000pt" viewBox="0 0 32.000000 32.000000"
 preserveAspectRatio="xMidYMid meet">
<metadata>
Created by potrace 1.16, written by Peter Selinger 2001-2019
</metadata>
<g transform="translate(0.000000,32.000000) scale(0.100000,-0.100000)"
fill="#000000" stroke="none">
<path fill="#000000" stroke="none" d="M2 263 c2 -57 2 -57 5 -10 l4 47 84 0
c46 0 87 5 90 10 4 6 -28 10 -89 10 l-96 0 2 -57z"/>
<path fill="#000000" stroke="none" d="M204 308 c-4 -6 0 -16 8 -22 8 -6 16
-14 16 -18 1 -5 4 -8 7 -8 3 0 9 0 13 0 4 0 8 12 9 28 0 15 -1 19 -4 10 -5
-22 -17 -23 -32 -4 -10 11 -8 15 6 19 16 4 16 5 1 6 -9 0 -20 -4 -24 -11z"/>
<path fill="#000000" stroke="none" d="M282 306 c11 -8 19 -31 22 -60 7 -72
16 -68 16 7 0 66 0 67 -27 67 -25 -1 -26 -2 -11 -14z"/>
<path fill="#000000" stroke="none" d="M30 271 c0 -27 10 -30 45 -15 17 7 24
13 17 14 -7 0 -23 -5 -35 -11 -21 -10 -21 -10 -3 5 21 17 71 21 80 7 3 -5 -1
-14 -9 -21 -8 -7 -15 -17 -15 -23 0 -16 37 22 43 44 5 17 -1 19 -59 19 -57 0
-64 -2 -64 -19z"/>
<path fill="#000000" stroke="none" d="M166 274 c-11 -30 -6 -37 14 -19 11 10
17 22 14 26 -8 14 -21 11 -28 -7z"/>
<path fill="#000000" stroke="none" d="M270 281 c0 -6 5 -13 10 -16 6 -3 10 1
10 9 0 9 -4 16 -10 16 -5 0 -10 -4 -10 -9z"/>
<path fill="#000000" stroke="none" d="M59 221 c-24 -24 -29 -38 -29 -76 0
-40 2 -46 14 -36 21 17 27 0 9 -29 -10 -17 -12 -19 -8 -5 5 15 3 17 -6 8 -16
-16 -3 -32 21 -26 28 7 31 16 19 52 -9 24 -8 35 2 48 12 15 12 16 -3 10 -9 -3
-22 1 -28 9 -11 13 -7 18 12 15 4 0 15 13 23 29 20 38 12 38 -26 1z"/>
<path fill="#000000" stroke="none" d="M265 240 c5 -9 1 -10 -16 -5 -19 5 -21
4 -9 -4 20 -14 53 -14 48 1 -2 6 -10 14 -18 16 -8 3 -10 0 -5 -8z"/>
<path fill="#000000" stroke="none" d="M218 215 c10 -20 36 -46 60 -59 8 -5
12 2 12 23 0 22 -4 29 -14 25 -8 -3 -27 3 -42 12 -26 18 -27 18 -16 -1z"/>
<path fill="#000000" stroke="none" d="M131 193 c-9 -6 -13 -15 -9 -19 4 -4
14 -1 23 6 12 10 15 10 15 -3 0 -9 -4 -19 -10 -22 -5 -3 -10 -13 -10 -22 0
-15 2 -14 18 0 18 16 19 15 18 -15 -1 -29 2 -33 26 -33 28 -1 61 -22 53 -35
-7 -11 12 -23 25 -15 13 8 -16 52 -39 60 -10 3 -18 12 -19 20 -1 8 -3 22 -4
30 -1 8 -4 15 -8 15 -4 0 -7 7 -7 15 0 12 3 12 15 2 13 -10 14 -9 4 10 -13 24
-61 28 -91 6z"/>
<path fill="#000000" stroke="none" d="M303 160 c1 -11 5 -20 9 -20 11 0 10
28 -1 35 -6 3 -9 -4 -8 -15z"/>
<path fill="#000000" stroke="none" d="M3 115 c0 -33 2 -45 4 -27 2 18 2 45 0
60 -2 15 -4 0 -4 -33z"/>
<path fill="#000000" stroke="none" d="M248 148 c18 -18 14 -32 -5 -17 -15 13
-15 12 -6 -6 17 -30 56 -64 53 -45 -4 29 0 41 13 35 6 -4 -1 5 -18 19 -30 26
-60 37 -37 14z"/>
<path fill="#ffffff" stroke="none" d="M284 115 c-4 -8 -10 -12 -15 -9 -11 6
-2 24 11 24 5 0 7 -7 4 -15z"/>
<path fill="#000000" stroke="none" d="M87 144 c-3 -6 -2 -16 4 -24 5 -8 9
-11 9 -7 0 4 10 2 23 -4 19 -10 20 -9 7 2 -8 8 -19 20 -26 28 -6 8 -13 10 -17
5z"/>
<path fill="#000000" stroke="none" d="M97 90 c9 -10 10 -17 1 -27 -8 -10 -8
-17 0 -25 17 -17 47 14 38 38 -3 9 -9 14 -13 11 -3 -4 -13 -1 -22 5 -13 10
-14 10 -4 -2z"/>
<path fill="#000000" stroke="none" d="M301 68 c0 -7 4 -22 9 -33 7 -16 8 -14
7 12 -1 18 -5 33 -9 33 -5 0 -8 -6 -7 -12z"/>
<path fill="#000000" stroke="none" d="M183 63 c9 -2 23 -2 30 0 6 3 -1 5 -18
5 -16 0 -22 -2 -12 -5z"/>
<path fill="#000000" stroke="none" d="M178 43 c7 -3 16 -2 19 1 4 3 -2 6 -13
5 -11 0 -14 -3 -6 -6z"/>
</g>
</svg>
