<?xml version="1.0" standalone="no"?>
<!DOCTYPE svg PUBLIC "-//W3C//DTD SVG 20010904//EN"
 "http://www.w3.org/TR/2001/REC-SVG-20010904/DTD/svg10.dtd">
<svg version="1.0" xmlns="http://www.w3.org/2000/svg"
 width="32.000000pt" height="32.000000pt" viewBox="0 0 32.000000 32.000000"
 preserveAspectRatio="xMidYMid meet">
<metadata>
Created by potrace 1.16, written by Peter Selinger 2001-2019
</metadata>
<g transform="translate(0.000000,32.000000) scale(0.100000,-0.100000)"
fill="#000000" stroke="none">
<path fill="#000000" stroke="none" d="M0 271 c0 -56 9 -89 19 -72 5 7 14 4
28 -8 21 -20 21 -20 28 7 6 23 8 25 16 9 6 -9 7 -23 3 -30 -5 -7 0 -6 12 3 14
10 13 8 -4 -11 -17 -20 -21 -33 -16 -53 3 -14 9 -24 13 -21 4 2 8 -2 8 -10 0
-8 -5 -15 -10 -15 -5 0 -7 -11 -5 -25 3 -14 1 -28 -5 -32 -5 -3 -7 -1 -3 5 3
5 -6 19 -20 29 -24 17 -25 22 -15 44 11 23 11 23 -3 5 -41 -52 2 -93 96 -93
35 1 51 3 36 5 -26 3 -41 32 -17 32 5 0 7 -5 4 -10 -4 -6 4 -5 19 1 14 7 23
16 20 20 -3 5 -1 9 4 9 6 0 14 -13 20 -28 8 -25 15 -29 48 -29 22 0 31 2 22 4
-10 2 -18 9 -18 14 0 6 5 7 11 3 17 -10 -10 36 -42 74 -35 40 -40 69 -9 50 11
-7 20 -16 20 -21 0 -4 4 -6 9 -3 5 3 11 -4 14 -15 6 -21 5 -21 -19 2 -36 34
-29 9 9 -31 19 -19 37 -42 40 -50 3 -8 5 -2 4 15 -1 17 -8 36 -14 43 -7 7 -13
18 -13 23 0 6 6 7 13 3 6 -4 -19 22 -56 58 -42 41 -63 68 -55 71 7 2 26 -5 41
-15 43 -31 82 -1 42 32 -8 7 -15 22 -16 34 0 11 -3 16 -5 10 -3 -7 -15 -9 -26
-6 -21 5 -21 6 -2 13 16 6 16 8 2 8 -9 1 -22 -7 -27 -16 -6 -10 -11 -14 -11
-9 0 23 -30 -20 -30 -44 0 -32 -23 -55 -45 -46 -19 7 -19 30 1 50 14 15 13 16
-16 16 -18 0 -29 -4 -25 -10 3 -6 -1 -7 -10 -4 -10 4 -14 2 -10 -8 3 -8 -1
-21 -10 -28 -15 -13 -21 -2 -7 16 4 5 -1 0 -12 -11 -19 -20 -19 -20 -11 5 4
14 8 25 9 25 0 1 14 6 29 13 51 22 98 13 76 -15 -9 -10 -8 -13 1 -13 9 0 9 -4
-1 -17 -12 -14 -12 -16 1 -11 8 2 15 17 15 31 1 15 12 38 25 52 l23 25 -96 0
-97 0 0 -49z"/>
<path fill="#ffffff" stroke="none" d="M144 133 c-1 -21 -5 -37 -10 -35 -5 1
-9 6 -9 11 0 5 -3 13 -8 17 -5 5 18 44 27 44 1 0 1 -17 0 -37z"/>
<path fill="#ffffff" stroke="none" d="M182 72 c-7 -2 -10 -8 -6 -13 3 -5 0
-9 -5 -9 -6 0 -11 9 -11 20 0 14 5 18 17 13 11 -4 13 -8 5 -11z"/>
<path fill="#000000" stroke="none" d="M272 295 c-1 -16 6 -30 18 -37 27 -17
25 -32 -5 -48 -20 -11 -27 -11 -40 0 -12 10 -15 10 -15 -3 0 -17 59 -67 78
-67 15 0 16 26 2 35 -5 3 -10 14 -10 23 0 15 2 15 10 2 7 -11 10 5 10 53 0 63
-1 67 -23 67 -17 0 -23 -6 -25 -25z"/>
<path fill="#000000" stroke="none" d="M7 173 c-11 -10 -8 -113 3 -113 6 0 10
27 10 60 0 61 -1 65 -13 53z"/>
<path fill="#000000" stroke="none" d="M5 10 c-4 -6 6 -10 22 -10 22 0 25 2
13 10 -19 12 -27 12 -35 0z"/>
</g>
</svg>
