<?xml version="1.0" standalone="no"?>
<!DOCTYPE svg PUBLIC "-//W3C//DTD SVG 20010904//EN"
 "http://www.w3.org/TR/2001/REC-SVG-20010904/DTD/svg10.dtd">
<svg version="1.0" xmlns="http://www.w3.org/2000/svg"
 width="32.000000pt" height="32.000000pt" viewBox="0 0 32.000000 32.000000"
 preserveAspectRatio="xMidYMid meet">
<metadata>
Created by potrace 1.16, written by Peter Selinger 2001-2019
</metadata>
<g transform="translate(0.000000,32.000000) scale(0.100000,-0.100000)"
fill="#000000" stroke="none">
<path fill="#000000" stroke="none" d="M0 159 l0 -161 57 4 c35 2 57 8 59 16
1 7 0 8 -3 2 -2 -5 -18 4 -35 21 -24 24 -32 42 -36 82 -3 31 -11 57 -21 63
-26 19 0 61 48 75 52 15 89 5 109 -31 15 -26 21 -29 47 -24 17 4 32 10 33 15
2 5 8 6 14 3 6 -4 6 2 -1 14 -7 13 -17 19 -26 16 -20 -8 -31 22 -15 41 18 22
47 18 64 -7 10 -16 14 -53 14 -126 0 -56 2 -106 6 -109 3 -3 6 55 6 130 l0
137 -160 0 -160 0 0 -161z"/>
<path fill="#000000" stroke="none" d="M239 298 c-10 -33 1 -52 16 -28 3 6 1
10 -5 10 -6 0 -8 5 -5 10 3 6 4 10 1 10 -3 0 -6 -1 -7 -2z"/>
<path fill="#000000" stroke="none" d="M129 203 c-13 -17 -13 -17 6 -3 11 8
22 16 24 17 2 2 0 3 -6 3 -6 0 -17 -8 -24 -17z"/>
<path fill="#000000" stroke="none" d="M75 199 c-4 -6 -4 -13 -1 -16 3 -4 6
-1 6 5 0 6 8 13 18 15 15 4 15 5 0 6 -9 0 -20 -4 -23 -10z"/>
<path fill="#000000" stroke="none" d="M105 170 c-19 -8 -19 -9 3 -9 12 -1 22
4 22 9 0 6 -1 10 -2 9 -2 0 -12 -4 -23 -9z"/>
<path fill="#000000" stroke="none" d="M261 63 c7 -12 15 -20 18 -17 3 2 -3
12 -13 22 -17 16 -18 16 -5 -5z"/>
<path fill="#000000" stroke="none" d="M157 35 c-4 -8 -3 -16 1 -19 4 -3 9 4
9 15 2 23 -3 25 -10 4z"/>
</g>
</svg>
