<?xml version="1.0" standalone="no"?>
<!DOCTYPE svg PUBLIC "-//W3C//DTD SVG 20010904//EN"
 "http://www.w3.org/TR/2001/REC-SVG-20010904/DTD/svg10.dtd">
<svg version="1.0" xmlns="http://www.w3.org/2000/svg"
 width="32.000000pt" height="32.000000pt" viewBox="0 0 32.000000 32.000000"
 preserveAspectRatio="xMidYMid meet">
<metadata>
Created by potrace 1.16, written by Peter Selinger 2001-2019
</metadata>
<g transform="translate(0.000000,32.000000) scale(0.100000,-0.100000)"
fill="#000000" stroke="none">
<path fill="#000000" stroke="none" d="M230 295 c-16 -19 -5 -47 16 -43 9 2
18 -1 20 -7 6 -17 -10 -32 -41 -39 -26 -5 -32 -2 -47 24 -20 36 -57 46 -109
31 -48 -14 -74 -56 -48 -75 10 -6 18 -32 21 -63 4 -41 11 -59 32 -78 15 -14
24 -30 21 -35 -7 -11 182 -14 209 -4 16 6 22 35 10 47 -4 3 -6 53 -6 109 0 73
-4 110 -14 126 -17 25 -46 29 -64 7z"/>
<path fill="#ffffff" stroke="none" d="M245 290 c-3 -5 -1 -10 5 -10 6 0 8 -4
5 -10 -10 -16 -23 -11 -20 8 5 23 4 22 11 22 3 0 2 -4 -1 -10z"/>
</g>
</svg>
