<?xml version="1.0" standalone="no"?>
<!DOCTYPE svg PUBLIC "-//W3C//DTD SVG 20010904//EN"
 "http://www.w3.org/TR/2001/REC-SVG-20010904/DTD/svg10.dtd">
<svg version="1.0" xmlns="http://www.w3.org/2000/svg"
 width="32.000000pt" height="32.000000pt" viewBox="0 0 32.000000 32.000000"
 preserveAspectRatio="xMidYMid meet">
<metadata>
Created by potrace 1.16, written by Peter Selinger 2001-2019
</metadata>
<g transform="translate(0.000000,32.000000) scale(0.100000,-0.100000)"
fill="#000000" stroke="none">
<path fill="#000000" stroke="none" d="M230 295 c-16 -19 -5 -47 16 -43 9 2
18 -1 20 -7 6 -17 -10 -32 -41 -39 -26 -5 -32 -2 -47 24 -20 36 -57 46 -109
31 -48 -14 -74 -56 -48 -75 10 -6 18 -32 21 -63 4 -41 11 -59 32 -78 16 -15
24 -30 20 -38 -5 -9 -4 -9 6 0 11 10 11 18 1 39 -6 15 -9 29 -7 32 6 6 26 -43
26 -64 0 -11 18 -14 84 -14 46 0 91 3 100 6 16 6 22 35 10 47 -4 3 -6 53 -6
109 0 73 -4 110 -14 126 -17 25 -46 29 -64 7z"/>
<path fill="#ffffff" stroke="none" d="M278 283 c14 -27 25 -81 13 -64 -7 12
-10 11 -14 -5 -2 -10 -2 -5 0 12 5 40 -5 64 -26 63 -10 0 -11 -2 -3 -6 13 -5
7 -23 -8 -23 -6 0 -7 17 -1 38 3 10 32 -1 39 -15z"/>
<path fill="#ffffff" stroke="none" d="M165 208 c12 -12 -5 -67 -20 -62 -7 3
-16 1 -19 -5 -8 -13 -56 31 -56 52 0 8 5 17 10 19 18 6 78 3 85 -4z"/>
<path fill="#ffffff" stroke="none" d="M268 100 c-3 -17 -1 -30 4 -30 13 0 9
-25 -8 -46 -14 -18 -15 -18 -4 5 9 18 9 25 0 31 -8 5 -10 18 -5 39 8 40 19 41
13 1z"/>
<path fill="#ffffff" stroke="none" d="M175 60 c4 -6 2 -17 -4 -24 -6 -7 -8
-16 -4 -19 3 -4 1 -7 -5 -7 -6 0 -10 13 -9 30 2 31 11 38 22 20z"/>
<path fill="#ffffff" stroke="none" d="M221 27 c-10 -9 -11 -8 -5 6 3 10 9 15
12 12 3 -3 0 -11 -7 -18z"/>
<path fill="#000000" stroke="none" d="M145 201 c-3 -5 -1 -12 5 -16 5 -3 10
1 10 9 0 18 -6 21 -15 7z"/>
<path fill="#000000" stroke="none" d="M86 191 c-4 -5 -2 -12 3 -15 5 -4 12
-2 15 3 4 5 2 12 -3 15 -5 4 -12 2 -15 -3z"/>
<path fill="#000000" stroke="none" d="M130 170 c0 -5 5 -10 11 -10 5 0 7 5 4
10 -3 6 -8 10 -11 10 -2 0 -4 -4 -4 -10z"/>
</g>
</svg>
