<?xml version="1.0" standalone="no"?>
<!DOCTYPE svg PUBLIC "-//W3C//DTD SVG 20010904//EN"
 "http://www.w3.org/TR/2001/REC-SVG-20010904/DTD/svg10.dtd">
<svg version="1.0" xmlns="http://www.w3.org/2000/svg"
 width="32.000000pt" height="32.000000pt" viewBox="0 0 32.000000 32.000000"
 preserveAspectRatio="xMidYMid meet">
<metadata>
Created by potrace 1.16, written by Peter Selinger 2001-2019
</metadata>
<g transform="translate(0.000000,32.000000) scale(0.100000,-0.100000)"
fill="#000000" stroke="none">
<path fill="#000000" stroke="none" d="M230 295 c-16 -19 -5 -49 15 -41 9 3
19 -3 26 -16 7 -12 7 -18 1 -14 -6 3 -12 2 -14 -3 -1 -5 -16 -11 -33 -15 -26
-5 -32 -2 -47 24 -20 36 -57 46 -109 31 -48 -14 -74 -56 -48 -75 10 -6 18 -32
21 -63 4 -41 11 -59 32 -78 15 -14 25 -29 22 -34 -7 -10 182 -15 207 -5 17 6
23 35 11 47 -4 3 -6 53 -6 109 0 73 -4 110 -14 126 -17 25 -46 29 -64 7z"/>
<path fill="#ffffff" stroke="none" d="M245 290 c-3 -5 -1 -10 5 -10 6 0 8 -4
5 -10 -10 -16 -23 -11 -20 8 5 23 4 22 11 22 3 0 2 -4 -1 -10z"/>
<path fill="#ffffff" stroke="none" d="M159 217 c-2 -1 -13 -9 -24 -17 -19
-14 -19 -14 -6 3 7 9 18 17 24 17 6 0 8 -1 6 -3z"/>
<path fill="#ffffff" stroke="none" d="M98 203 c-10 -2 -18 -9 -18 -15 0 -6
-3 -9 -6 -5 -10 10 6 27 24 26 15 -1 15 -2 0 -6z"/>
<path fill="#ffffff" stroke="none" d="M130 170 c0 -5 -10 -10 -22 -9 -22 0
-22 1 -3 9 11 5 21 9 23 9 1 1 2 -3 2 -9z"/>
<path fill="#ffffff" stroke="none" d="M279 46 c-3 -3 -11 5 -18 17 -13 21
-12 21 5 5 10 -10 16 -20 13 -22z"/>
<path fill="#ffffff" stroke="none" d="M167 31 c0 -11 -5 -18 -9 -15 -4 3 -5
11 -1 19 7 21 12 19 10 -4z"/>
</g>
</svg>
