<?xml version="1.0" standalone="no"?>
<!DOCTYPE svg PUBLIC "-//W3C//DTD SVG 20010904//EN"
 "http://www.w3.org/TR/2001/REC-SVG-20010904/DTD/svg10.dtd">
<svg version="1.0" xmlns="http://www.w3.org/2000/svg"
 width="32.000000pt" height="32.000000pt" viewBox="0 0 32.000000 32.000000"
 preserveAspectRatio="xMidYMid meet">
<metadata>
Created by potrace 1.16, written by Peter Selinger 2001-2019
</metadata>
<g transform="translate(0.000000,32.000000) scale(0.100000,-0.100000)"
fill="#000000" stroke="none">
<path fill="#000000" stroke="none" d="M0 160 l0 -161 61 2 61 2 -6 31 c-4 17
-11 35 -18 41 -8 7 -9 5 -3 -10 21 -56 19 -60 -15 -27 -27 27 -34 44 -38 85
-3 31 -11 57 -21 63 -26 19 0 61 48 75 52 15 89 5 109 -31 15 -26 21 -29 47
-24 31 7 47 22 41 39 -2 6 -11 9 -20 7 -21 -4 -32 24 -16 43 31 37 85 -6 78
-62 -3 -26 -4 -25 -18 17 -10 29 -21 45 -33 46 -10 1 -12 0 -3 -3 20 -6 27
-30 20 -69 -4 -22 -10 -31 -20 -27 -14 5 -19 -8 -7 -20 10 -11 33 14 34 37 1
18 3 16 15 -9 7 -17 13 -56 12 -87 -1 -32 2 -61 5 -65 4 -3 7 55 7 130 l0 137
-160 0 -160 0 0 -160z"/>
<path fill="#000000" stroke="none" d="M233 274 c0 -16 13 -19 21 -5 3 5 0 11
-7 14 -8 3 -14 -1 -14 -9z"/>
<path fill="#000000" stroke="none" d="M85 236 c31 -14 45 -12 45 5 0 5 -17 9
-37 9 l-38 -1 30 -13z"/>
<path fill="#000000" stroke="none" d="M80 212 c-5 -2 -10 -11 -10 -19 0 -21
48 -65 56 -52 3 6 12 8 19 5 15 -5 32 50 20 62 -7 7 -67 10 -85 4z"/>
<path fill="#ffffff" stroke="none" d="M160 194 c0 -8 -5 -12 -10 -9 -6 4 -8
11 -5 16 9 14 15 11 15 -7z"/>
<path fill="#ffffff" stroke="none" d="M104 179 c-3 -5 -10 -7 -15 -3 -5 3 -7
10 -3 15 3 5 10 7 15 3 5 -3 7 -10 3 -15z"/>
<path fill="#ffffff" stroke="none" d="M145 170 c3 -5 1 -10 -4 -10 -6 0 -11
5 -11 10 0 6 2 10 4 10 3 0 8 -4 11 -10z"/>
<path fill="#000000" stroke="none" d="M186 181 c-4 -5 -1 -11 6 -13 6 -2 17
-20 24 -39 12 -34 12 -34 13 -6 1 47 -27 84 -43 58z"/>
<path fill="#000000" stroke="none" d="M51 148 c0 -7 4 -22 9 -33 8 -18 9 -17
9 7 1 15 -3 30 -9 33 -5 3 -10 0 -9 -7z"/>
<path fill="#000000" stroke="none" d="M176 144 c-4 -9 -4 -19 -1 -22 2 -3 7
3 11 12 4 9 4 19 1 22 -2 3 -7 -3 -11 -12z"/>
<path fill="#000000" stroke="none" d="M255 99 c-5 -21 -3 -34 5 -39 9 -6 9
-13 0 -31 -11 -23 -10 -23 4 -5 17 21 21 46 8 46 -5 0 -7 13 -4 30 6 40 -5 39
-13 -1z"/>
<path fill="#000000" stroke="none" d="M153 40 c-1 -17 3 -30 9 -30 6 0 8 3 5
7 -4 3 -2 12 4 19 6 7 8 18 4 24 -11 18 -20 11 -22 -20z"/>
<path fill="#000000" stroke="none" d="M216 33 c-6 -14 -5 -15 5 -6 7 7 10 15
7 18 -3 3 -9 -2 -12 -12z"/>
</g>
</svg>
