<?xml version="1.0" standalone="no"?>
<!DOCTYPE svg PUBLIC "-//W3C//DTD SVG 20010904//EN"
 "http://www.w3.org/TR/2001/REC-SVG-20010904/DTD/svg10.dtd">
<svg version="1.0" xmlns="http://www.w3.org/2000/svg"
 width="32.000000pt" height="32.000000pt" viewBox="0 0 32.000000 32.000000"
 preserveAspectRatio="xMidYMid meet">
<metadata>
Created by potrace 1.16, written by Peter Selinger 2001-2019
</metadata>
<g transform="translate(0.000000,32.000000) scale(0.100000,-0.100000)"
fill="#000000" stroke="none">
<path fill="#000000" stroke="none" d="M0 160 l0 -160 85 0 86 0 -16 30 c-8
16 -14 31 -13 33 2 2 -2 10 -9 18 -10 13 -7 14 23 11 20 -3 42 2 52 9 15 12
16 12 5 -2 -7 -9 -10 -19 -6 -22 3 -4 2 -7 -3 -7 -5 0 -10 -16 -11 -35 l-2
-35 65 0 64 0 0 160 0 160 -160 0 -160 0 0 -160z"/>
<path fill="#ffffff" stroke="none" d="M174 291 c3 -5 -1 -11 -9 -15 -15 -6
-29 7 -18 18 9 9 21 8 27 -3z"/>
<path fill="#ffffff" stroke="none" d="M177 257 c-5 -15 -29 -16 -34 -2 -2 6
6 11 18 12 12 1 19 -3 16 -10z"/>
<path fill="#ffffff" stroke="none" d="M270 160 c0 -5 -4 -10 -10 -10 -5 0
-10 5 -10 10 0 6 5 10 10 10 6 0 10 -4 10 -10z"/>
<path fill="#ffffff" stroke="none" d="M60 145 c0 -8 -4 -15 -10 -15 -5 0 -10
7 -10 15 0 8 5 15 10 15 6 0 10 -7 10 -15z"/>
</g>
</svg>
