<?xml version="1.0" standalone="no"?>
<!DOCTYPE svg PUBLIC "-//W3C//DTD SVG 20010904//EN"
 "http://www.w3.org/TR/2001/REC-SVG-20010904/DTD/svg10.dtd">
<svg version="1.0" xmlns="http://www.w3.org/2000/svg"
 width="32.000000pt" height="32.000000pt" viewBox="0 0 32.000000 32.000000"
 preserveAspectRatio="xMidYMid meet">
<metadata>
Created by potrace 1.16, written by Peter Selinger 2001-2019
</metadata>
<g transform="translate(0.000000,32.000000) scale(0.100000,-0.100000)"
fill="#000000" stroke="none">
<path fill="#000000" stroke="none" d="M0 160 l0 -160 96 0 c76 0 94 3 86 13
-10 12 -13 97 -3 97 3 0 14 -7 24 -14 15 -12 16 -18 7 -35 -20 -38 3 -61 60
-61 l50 0 0 160 0 160 -160 0 -160 0 0 -160z"/>
<path fill="#ffffff" stroke="none" d="M202 296 c16 -9 30 -11 33 -5 7 10 48
12 58 2 9 -8 -32 -53 -48 -53 -6 0 -18 -11 -25 -25 -9 -17 -17 -22 -25 -15 -8
7 -12 5 -12 -5 0 -8 8 -15 18 -15 10 0 23 -8 28 -17 6 -10 11 -13 11 -6 0 6
-4 15 -10 18 -19 12 -10 35 13 35 34 0 50 -15 53 -52 2 -18 6 -49 9 -69 5 -25
3 -39 -6 -44 -7 -5 -10 -4 -6 2 3 5 -1 22 -8 37 -8 16 -13 32 -10 36 3 5 -4 6
-15 3 -11 -3 -20 0 -20 6 0 6 -5 11 -12 11 -9 0 -9 -3 0 -12 19 -19 14 -30
-10 -26 -13 2 -22 9 -20 16 2 10 -2 10 -18 2 -23 -12 -35 -49 -25 -78 3 -11 1
-23 -4 -27 -7 -3 -8 0 -5 9 7 18 -7 21 -23 5 -7 -7 -12 -6 -17 6 -3 9 -2 14 3
11 4 -3 6 6 3 19 -2 14 -8 28 -13 31 -5 3 -6 -3 -2 -12 4 -10 0 -20 -11 -26
-13 -8 -15 -13 -5 -24 9 -11 8 -14 -4 -14 -21 0 -32 37 -17 55 9 11 9 15 1 15
-12 0 -15 32 -4 43 3 4 12 2 18 -3 8 -7 18 -3 31 13 19 22 19 22 -2 5 -16 -14
-23 -15 -33 -5 -10 9 -15 8 -25 -5 -34 -47 -35 40 -1 98 40 68 99 90 157 60z"/>
<path fill="#ffffff" stroke="none" d="M274 64 c-4 -14 -1 -31 6 -39 10 -12
10 -15 -3 -15 -21 0 -35 21 -35 55 0 39 7 49 24 34 8 -7 12 -20 8 -35z"/>
<path fill="#000000" stroke="none" d="M195 269 c-4 -6 -5 -12 -2 -15 2 -3 7
2 10 11 7 17 1 20 -8 4z"/>
</g>
</svg>
