<?xml version="1.0" standalone="no"?>
<!DOCTYPE svg PUBLIC "-//W3C//DTD SVG 20010904//EN"
 "http://www.w3.org/TR/2001/REC-SVG-20010904/DTD/svg10.dtd">
<svg version="1.0" xmlns="http://www.w3.org/2000/svg"
 width="32.000000pt" height="32.000000pt" viewBox="0 0 32.000000 32.000000"
 preserveAspectRatio="xMidYMid meet">
<metadata>
Created by potrace 1.16, written by Peter Selinger 2001-2019
</metadata>
<g transform="translate(0.000000,32.000000) scale(0.100000,-0.100000)"
fill="#000000" stroke="none">
<path fill="#000000" stroke="none" d="M0 160 l0 -159 160 0 160 0 0 159 0
160 -160 0 -160 0 0 -160z"/>
<path fill="#ffffff" stroke="none" d="M196 300 c15 -6 24 -13 20 -17 -3 -3
-17 -1 -30 7 -23 12 -27 10 -58 -25 -39 -44 -57 -74 -58 -95 0 -8 -9 -21 -20
-28 -18 -11 -20 -10 -20 13 0 14 12 44 26 66 14 23 20 38 13 34 -8 -6 -10 -4
-4 4 11 18 67 51 87 51 9 0 29 -5 44 -10z"/>
<path fill="#ffffff" stroke="none" d="M295 290 c3 -6 -1 -7 -9 -4 -18 7 -21
14 -7 14 6 0 13 -4 16 -10z"/>
<path fill="#ffffff" stroke="none" d="M243 248 c-14 -15 -30 -25 -35 -22 -13
8 25 52 44 51 15 -1 13 -6 -9 -29z"/>
<path fill="#ffffff" stroke="none" d="M136 202 c-31 -61 -51 -78 -43 -36 11
57 13 63 32 84 32 35 39 7 11 -48z"/>
<path fill="#ffffff" stroke="none" d="M196 218 c5 -7 3 -8 -6 -3 -10 6 -12 4
-7 -8 4 -11 -1 -20 -12 -27 -22 -11 -35 8 -20 31 5 8 9 10 9 5 0 -6 5 -5 12 2
15 15 15 15 24 0z"/>
<path fill="#ffffff" stroke="none" d="M295 185 c0 -5 -10 -11 -23 -13 -12 -2
-20 -7 -17 -12 3 -5 13 -6 22 -3 10 4 14 2 11 -7 -8 -25 -27 -21 -42 9 -22 41
-21 43 17 39 17 -2 32 -7 32 -13z"/>
<path fill="#ffffff" stroke="none" d="M195 163 c-2 -10 -4 -19 -4 -21 -1 -2
-6 0 -11 3 -8 5 -7 11 1 21 15 18 18 18 14 -3z"/>
<path fill="#ffffff" stroke="none" d="M180 121 c0 -3 -5 -13 -10 -21 -7 -11
-12 -12 -21 -3 -6 6 -9 15 -6 20 7 10 37 13 37 4z"/>
<path fill="#ffffff" stroke="none" d="M305 111 c3 -5 1 -12 -5 -16 -5 -3 -10
1 -10 9 0 18 6 21 15 7z"/>
<path fill="#ffffff" stroke="none" d="M205 80 c3 -5 -1 -10 -9 -10 -9 0 -16
5 -16 10 0 6 4 10 9 10 6 0 13 -4 16 -10z"/>
<path fill="#ffffff" stroke="none" d="M303 65 c4 -8 3 -16 -1 -19 -4 -3 -9 4
-9 15 -2 23 3 25 10 4z"/>
<path fill="#ffffff" stroke="none" d="M142 30 c-20 -19 -33 -14 -14 4 4 4 8
12 8 17 1 5 2 12 3 16 0 4 6 2 13 -5 9 -9 7 -16 -10 -32z"/>
<path fill="#000000" stroke="none" d="M224 248 l-19 -23 23 19 c21 18 27 26
19 26 -2 0 -12 -10 -23 -22z"/>
</g>
</svg>
