<?xml version="1.0" standalone="no"?>
<!DOCTYPE svg PUBLIC "-//W3C//DTD SVG 20010904//EN"
 "http://www.w3.org/TR/2001/REC-SVG-20010904/DTD/svg10.dtd">
<svg version="1.0" xmlns="http://www.w3.org/2000/svg"
 width="32.000000pt" height="32.000000pt" viewBox="0 0 32.000000 32.000000"
 preserveAspectRatio="xMidYMid meet">
<metadata>
Created by potrace 1.16, written by Peter Selinger 2001-2019
</metadata>
<g transform="translate(0.000000,32.000000) scale(0.100000,-0.100000)"
fill="#000000" stroke="none">
<path fill="#000000" stroke="none" d="M114 281 c-18 -11 -35 -25 -39 -32 -6
-8 -4 -10 4 -4 7 4 1 -11 -13 -34 -28 -43 -35 -85 -13 -79 6 3 20 22 30 44 24
50 57 85 71 77 6 -4 5 0 -2 9 -11 14 -10 17 8 23 12 4 27 1 35 -5 8 -7 20 -10
27 -7 15 5 -34 27 -60 27 -9 0 -31 -9 -48 -19z"/>
<path fill="#000000" stroke="none" d="M280 286 c0 -2 7 -7 16 -10 8 -3 12 -2
9 4 -6 10 -25 14 -25 6z"/>
<path fill="#000000" stroke="none" d="M245 259 c-3 -4 2 -6 10 -5 21 3 28 13
10 13 -9 0 -18 -4 -20 -8z"/>
<path fill="#000000" stroke="none" d="M22 230 c0 -14 2 -19 5 -12 2 6 2 18 0
25 -3 6 -5 1 -5 -13z"/>
<path fill="#000000" stroke="none" d="M129 233 c-13 -15 -16 -23 -26 -77 -8
-41 12 -25 42 34 20 39 22 49 10 53 -7 3 -19 -1 -26 -10z"/>
<path fill="#000000" stroke="none" d="M182 208 c-7 -7 -12 -8 -12 -2 0 5 -4
3 -9 -5 -5 -8 -7 -20 -4 -27 7 -19 33 -5 33 18 0 12 4 17 12 12 7 -4 8 -3 4 4
-9 15 -9 15 -24 0z"/>
<path fill="#000000" stroke="none" d="M255 180 c-8 -12 20 -24 35 -15 6 3 8
11 5 16 -8 12 -32 12 -40 -1z"/>
<path fill="#000000" stroke="none" d="M271 141 c-10 -7 -10 -10 -1 -16 6 -4
16 -3 22 3 13 13 -4 23 -21 13z"/>
<path fill="#000000" stroke="none" d="M165 119 c-6 -8 -4 -10 5 -4 10 6 12 4
6 -11 -6 -15 -5 -17 5 -6 9 9 10 15 2 23 -8 8 -13 7 -18 -2z"/>
<path fill="#000000" stroke="none" d="M96 67 c3 -10 9 -15 12 -12 3 3 0 11
-7 18 -10 9 -11 8 -5 -6z"/>
<path fill="#000000" stroke="none" d="M180 76 c0 -2 7 -7 16 -10 8 -3 12 -2
9 4 -6 10 -25 14 -25 6z"/>
</g>
</svg>
