<?xml version="1.0" standalone="no"?>
<!DOCTYPE svg PUBLIC "-//W3C//DTD SVG 20010904//EN"
 "http://www.w3.org/TR/2001/REC-SVG-20010904/DTD/svg10.dtd">
<svg version="1.0" xmlns="http://www.w3.org/2000/svg"
 width="32.000000pt" height="32.000000pt" viewBox="0 0 32.000000 32.000000"
 preserveAspectRatio="xMidYMid meet">
<metadata>
Created by potrace 1.16, written by Peter Selinger 2001-2019
</metadata>
<g transform="translate(0.000000,32.000000) scale(0.100000,-0.100000)"
fill="#000000" stroke="none">
<path fill="#000000" stroke="none" d="M0 160 l0 -160 160 0 160 0 0 160 0
160 -160 0 -160 0 0 -160z"/>
<path fill="#ffffff" stroke="none" d="M197 299 c16 -7 23 -13 15 -16 -7 -3
-19 0 -27 7 -8 6 -23 9 -35 5 -18 -6 -19 -9 -8 -23 7 -9 8 -13 2 -9 -14 8 -47
-27 -71 -77 -10 -22 -24 -41 -30 -44 -22 -6 -15 36 13 79 14 23 20 38 13 34
-8 -6 -10 -4 -4 4 11 18 67 51 87 51 9 0 29 -5 45 -11z"/>
<path fill="#ffffff" stroke="none" d="M295 290 c3 -6 -1 -7 -9 -4 -18 7 -21
14 -7 14 6 0 13 -4 16 -10z"/>
<path fill="#ffffff" stroke="none" d="M265 271 c-9 -8 -36 -10 -30 -2 2 4 11
8 20 8 8 0 13 -3 10 -6z"/>
<path fill="#ffffff" stroke="none" d="M135 200 c-13 -26 -22 -50 -20 -52 3
-3 -2 -5 -11 -5 -15 0 -16 7 -2 68 6 27 28 48 43 42 12 -4 10 -14 -10 -53z"/>
<path fill="#ffffff" stroke="none" d="M196 218 c4 -7 3 -8 -4 -4 -8 5 -12 0
-12 -12 0 -23 -26 -37 -33 -18 -3 7 -1 19 4 27 5 8 9 10 9 5 0 -6 5 -5 12 2
15 15 15 15 24 0z"/>
<path fill="#ffffff" stroke="none" d="M285 191 c3 -5 1 -13 -5 -16 -15 -9
-43 3 -35 15 8 13 32 13 40 1z"/>
<path fill="#ffffff" stroke="none" d="M215 142 c-3 -3 -11 0 -18 7 -9 10 -8
11 6 5 10 -3 15 -9 12 -12z"/>
<path fill="#ffffff" stroke="none" d="M285 139 c-4 -5 1 -9 9 -9 9 0 16 -4
16 -8 0 -4 -9 -8 -19 -8 -11 0 -18 3 -15 7 2 4 -4 10 -13 13 -15 6 -15 9 -3
16 16 10 33 3 25 -11z"/>
<path fill="#ffffff" stroke="none" d="M203 99 c16 -13 17 -18 6 -24 -8 -5
-11 -5 -7 0 4 4 -4 16 -17 27 -14 11 -22 25 -18 31 4 7 8 6 11 -3 2 -8 13 -22
25 -31z"/>
<path fill="#ffffff" stroke="none" d="M24 114 c3 -8 2 -12 -4 -9 -6 3 -10 10
-10 16 0 14 7 11 14 -7z"/>
<path fill="#ffffff" stroke="none" d="M140 95 c-9 -11 -22 -14 -43 -9 -20 4
-27 3 -23 -5 4 -6 2 -11 -4 -11 -7 0 -10 6 -7 13 2 6 16 12 30 12 14 0 31 6
38 12 18 18 25 7 9 -12z"/>
<path fill="#ffffff" stroke="none" d="M151 57 c-8 -8 -14 -8 -23 2 -11 10
-10 11 5 6 12 -5 17 -2 18 11 0 12 2 14 6 6 3 -8 0 -19 -6 -25z"/>
<path fill="#ffffff" stroke="none" d="M300 55 c-7 -8 -16 -15 -21 -15 -5 0
-1 8 9 18 20 22 31 19 12 -3z"/>
<path fill="#ffffff" stroke="none" d="M48 45 c13 5 14 3 5 -6 -14 -14 -33 -3
-32 19 1 15 2 14 6 -1 3 -12 10 -16 21 -12z"/>
<path fill="#ffffff" stroke="none" d="M120 24 c0 -8 -5 -14 -11 -14 -5 0 -7
5 -4 10 4 6 1 19 -7 28 -12 15 -11 16 5 3 9 -7 17 -20 17 -27z"/>
<path fill="#ffffff" stroke="none" d="M201 23 c13 -16 12 -17 -3 -4 -10 7
-18 15 -18 17 0 8 8 3 21 -13z"/>
<path fill="#ffffff" stroke="none" d="M240 30 c0 -5 -2 -10 -4 -10 -3 0 -8 5
-11 10 -3 6 -1 10 4 10 6 0 11 -4 11 -10z"/>
</g>
</svg>
