<?xml version="1.0" standalone="no"?>
<!DOCTYPE svg PUBLIC "-//W3C//DTD SVG 20010904//EN"
 "http://www.w3.org/TR/2001/REC-SVG-20010904/DTD/svg10.dtd">
<svg version="1.0" xmlns="http://www.w3.org/2000/svg"
 width="32.000000pt" height="32.000000pt" viewBox="0 0 32.000000 32.000000"
 preserveAspectRatio="xMidYMid meet">
<metadata>
Created by potrace 1.16, written by Peter Selinger 2001-2019
</metadata>
<g transform="translate(0.000000,32.000000) scale(0.100000,-0.100000)"
fill="#000000" stroke="none">
<path fill="#000000" stroke="none" d="M129 279 c-5 -9 -5 -29 0 -47 8 -26 5
-35 -20 -64 -15 -18 -29 -44 -30 -58 -1 -24 -2 -23 -8 4 -3 16 -14 34 -23 40
-29 18 -39 -4 -32 -66 8 -68 8 -68 155 -68 113 0 148 11 136 45 -5 13 -15 16
-37 13 -35 -5 -36 12 -1 27 29 13 26 66 -4 75 -16 4 -21 15 -24 55 -1 28 -5
52 -7 54 -3 3 -25 5 -50 6 -33 0 -48 -4 -55 -16z"/>
<path fill="#000000" stroke="none" d="M60 161 c0 -6 4 -13 10 -16 6 -3 7 1 4
9 -7 18 -14 21 -14 7z"/>
</g>
</svg>
