<?xml version="1.0" standalone="no"?>
<!DOCTYPE svg PUBLIC "-//W3C//DTD SVG 20010904//EN"
 "http://www.w3.org/TR/2001/REC-SVG-20010904/DTD/svg10.dtd">
<svg version="1.0" xmlns="http://www.w3.org/2000/svg"
 width="32.000000pt" height="32.000000pt" viewBox="0 0 32.000000 32.000000"
 preserveAspectRatio="xMidYMid meet">
<metadata>
Created by potrace 1.16, written by Peter Selinger 2001-2019
</metadata>
<g transform="translate(0.000000,32.000000) scale(0.100000,-0.100000)"
fill="#000000" stroke="none">
<path fill="#000000" stroke="none" d="M153 295 c-21 -9 -33 -21 -33 -33 0
-10 -7 -41 -16 -68 -19 -55 -40 -86 -29 -42 5 21 3 29 -9 34 -26 10 -46 -15
-44 -56 1 -31 6 -41 27 -50 23 -10 24 -13 8 -21 -9 -6 -17 -16 -17 -23 0 -9
26 -13 98 -14 53 0 91 1 84 4 -23 10 7 34 36 28 15 -2 35 2 45 10 16 12 18 22
10 67 -4 30 -14 54 -22 57 -9 3 -11 0 -6 -8 6 -9 4 -11 -5 -5 -10 6 -12 4 -7
-8 4 -12 2 -14 -10 -10 -12 5 -14 3 -8 -7 5 -9 4 -11 -3 -6 -17 10 -15 23 8
46 26 26 25 60 -1 94 -23 30 -56 33 -106 11z"/>
<path fill="#ffffff" stroke="none" d="M200 275 c10 -12 7 -13 -17 -6 -15 4
-35 6 -43 4 -11 -3 -11 -2 -3 4 20 14 51 13 63 -2z"/>
<path fill="#ffffff" stroke="none" d="M163 208 c-3 -16 -10 -28 -15 -28 -5 0
-6 -5 -2 -12 4 -7 3 -8 -4 -4 -9 5 -9 13 -2 26 14 26 13 43 -2 34 -9 -5 -8 -2
1 10 18 22 31 8 24 -26z"/>
<path fill="#ffffff" stroke="none" d="M182 178 c-9 -9 -12 -7 -12 12 0 19 3
21 12 12 9 -9 9 -15 0 -24z"/>
<path fill="#ffffff" stroke="none" d="M146 114 c-5 -13 -10 -14 -18 -6 -6 6
-8 18 -4 28 5 13 10 14 18 6 6 -6 8 -18 4 -28z"/>
</g>
</svg>
