<?xml version="1.0" standalone="no"?>
<!DOCTYPE svg PUBLIC "-//W3C//DTD SVG 20010904//EN"
 "http://www.w3.org/TR/2001/REC-SVG-20010904/DTD/svg10.dtd">
<svg version="1.0" xmlns="http://www.w3.org/2000/svg"
 width="32.000000pt" height="32.000000pt" viewBox="0 0 32.000000 32.000000"
 preserveAspectRatio="xMidYMid meet">
<metadata>
Created by potrace 1.16, written by Peter Selinger 2001-2019
</metadata>
<g transform="translate(0.000000,32.000000) scale(0.100000,-0.100000)"
fill="#000000" stroke="none">
<path fill="#000000" stroke="none" d="M0 160 l0 -160 160 0 160 0 0 35 c0 34
-12 46 -26 24 -3 -6 -19 -9 -34 -5 -31 6 -62 -17 -38 -28 7 -3 -31 -4 -84 -4
-72 1 -98 5 -98 14 0 7 8 17 17 23 16 8 15 11 -8 21 -48 22 -31 125 17 106 12
-5 14 -13 9 -34 -11 -44 10 -13 29 42 9 27 16 58 16 68 0 21 53 48 94 48 29 0
66 -42 66 -76 0 -13 -9 -33 -20 -44 -23 -23 -25 -36 -8 -46 7 -5 8 -3 3 6 -6
10 -4 12 8 7 12 -4 14 -2 10 10 -5 12 -3 14 7 8 9 -6 11 -4 5 5 -5 8 -3 11 6
8 8 -3 17 -20 20 -39 4 -20 7 8 8 69 l1 102 -160 0 -160 0 0 -160z"/>
<path fill="#000000" stroke="none" d="M137 277 c-8 -6 -8 -7 3 -4 8 2 28 0
43 -4 24 -7 27 -6 17 6 -12 15 -43 16 -63 2z"/>
<path fill="#000000" stroke="none" d="M139 234 c-9 -12 -10 -15 -1 -10 15 9
16 -8 2 -34 -7 -13 -7 -21 2 -26 7 -4 8 -3 4 4 -4 7 -3 12 2 12 12 0 23 53 13
63 -4 4 -14 0 -22 -9z"/>
<path fill="#000000" stroke="none" d="M170 190 c0 -19 3 -21 12 -12 9 9 9 15
0 24 -9 9 -12 7 -12 -12z"/>
<path fill="#000000" stroke="none" d="M124 136 c-4 -10 -2 -22 4 -28 8 -8 13
-7 18 6 4 10 2 22 -4 28 -8 8 -13 7 -18 -6z"/>
</g>
</svg>
