<?xml version="1.0" standalone="no"?>
<!DOCTYPE svg PUBLIC "-//W3C//DTD SVG 20010904//EN"
 "http://www.w3.org/TR/2001/REC-SVG-20010904/DTD/svg10.dtd">
<svg version="1.0" xmlns="http://www.w3.org/2000/svg"
 width="32.000000pt" height="32.000000pt" viewBox="0 0 32.000000 32.000000"
 preserveAspectRatio="xMidYMid meet">
<metadata>
Created by potrace 1.16, written by Peter Selinger 2001-2019
</metadata>
<g transform="translate(0.000000,32.000000) scale(0.100000,-0.100000)"
fill="#000000" stroke="none">
<path fill="#000000" stroke="none" d="M0 160 l0 -160 160 0 c88 0 160 4 160
9 0 4 -35 7 -77 5 -107 -4 -167 4 -152 22 6 7 8 22 4 33 -3 11 1 34 10 51 9
18 14 34 11 38 -3 3 -6 0 -6 -7 0 -7 -4 -10 -9 -6 -5 3 -12 1 -16 -5 -3 -5
-13 -10 -21 -10 -21 0 -17 43 6 63 11 9 20 24 20 32 0 8 9 20 20 27 11 7 20
20 20 28 0 9 5 21 12 28 9 9 -5 12 -65 12 l-77 0 0 -160z"/>
<path fill="#000000" stroke="none" d="M188 308 c7 -7 12 -19 12 -28 0 -8 9
-21 21 -28 12 -8 18 -19 15 -28 -4 -10 -2 -12 6 -8 7 5 9 2 5 -9 -3 -9 0 -18
9 -21 8 -3 14 -13 14 -23 0 -10 12 -26 25 -36 l25 -18 0 106 0 105 -72 0 c-56
0 -69 -3 -60 -12z"/>
</g>
</svg>
