<?xml version="1.0" standalone="no"?>
<!DOCTYPE svg PUBLIC "-//W3C//DTD SVG 20010904//EN"
 "http://www.w3.org/TR/2001/REC-SVG-20010904/DTD/svg10.dtd">
<svg version="1.0" xmlns="http://www.w3.org/2000/svg"
 width="32.000000pt" height="32.000000pt" viewBox="0 0 32.000000 32.000000"
 preserveAspectRatio="xMidYMid meet">
<metadata>
Created by potrace 1.16, written by Peter Selinger 2001-2019
</metadata>
<g transform="translate(0.000000,32.000000) scale(0.100000,-0.100000)"
fill="#000000" stroke="none">
<path fill="#000000" stroke="none" d="M142 298 c-7 -7 -12 -19 -12 -28 0 -8
-9 -21 -20 -28 -11 -7 -20 -19 -20 -27 0 -8 -9 -23 -21 -34 -26 -24 -22 -63 8
-71 17 -4 20 -9 13 -20 -5 -8 -10 -30 -10 -47 l0 -33 111 0 c109 0 110 0 107
23 -2 15 -11 23 -29 25 -16 2 -30 12 -37 27 -10 21 -8 24 10 27 26 4 37 55 14
64 -9 3 -12 12 -9 21 4 11 2 14 -5 9 -8 -4 -10 -2 -6 8 3 9 -3 20 -15 28 -12
7 -21 20 -21 28 0 18 -19 40 -35 40 -6 0 -16 -5 -23 -12z"/>
<path fill="#ffffff" stroke="none" d="M174 282 c2 -4 0 -14 -5 -22 -8 -13
-10 -13 -18 0 -10 15 -6 30 9 30 5 0 11 -4 14 -8z"/>
<path fill="#ffffff" stroke="none" d="M157 203 c0 -8 -7 -12 -16 -10 -9 2
-15 8 -14 15 2 7 -4 9 -15 5 -15 -6 -15 -5 -4 10 11 12 18 14 31 5 10 -6 18
-17 18 -25z"/>
<path fill="#ffffff" stroke="none" d="M211 223 c12 -15 12 -16 -4 -10 -10 4
-16 3 -12 -2 7 -13 -12 -24 -26 -16 -7 5 -4 14 7 26 21 23 18 23 35 2z"/>
<path fill="#ffffff" stroke="none" d="M114 179 c-3 -5 -10 -7 -15 -3 -5 3 -7
10 -3 15 3 5 10 7 15 3 5 -3 7 -10 3 -15z"/>
<path fill="#ffffff" stroke="none" d="M224 179 c-3 -5 -10 -7 -15 -3 -5 3 -7
10 -3 15 3 5 10 7 15 3 5 -3 7 -10 3 -15z"/>
<path fill="#ffffff" stroke="none" d="M115 140 c-3 -5 -12 -10 -18 -10 -7 0
-6 4 3 10 19 12 23 12 15 0z"/>
<path fill="#ffffff" stroke="none" d="M225 132 c-3 -3 -11 0 -18 7 -9 10 -8
11 6 5 10 -3 15 -9 12 -12z"/>
<path fill="#ffffff" stroke="none" d="M123 59 c-17 -17 -37 -1 -22 17 8 10
15 12 23 4 7 -7 7 -13 -1 -21z"/>
<path fill="#ffffff" stroke="none" d="M220 56 c-13 -13 -35 7 -25 24 5 8 11
8 21 -1 10 -8 12 -15 4 -23z"/>
</g>
</svg>
