<?xml version="1.0" standalone="no"?>
<!DOCTYPE svg PUBLIC "-//W3C//DTD SVG 20010904//EN"
 "http://www.w3.org/TR/2001/REC-SVG-20010904/DTD/svg10.dtd">
<svg version="1.0" xmlns="http://www.w3.org/2000/svg"
 width="32.000000pt" height="32.000000pt" viewBox="0 0 32.000000 32.000000"
 preserveAspectRatio="xMidYMid meet">
<metadata>
Created by potrace 1.16, written by Peter Selinger 2001-2019
</metadata>
<g transform="translate(0.000000,32.000000) scale(0.100000,-0.100000)"
fill="#000000" stroke="none">
<path fill="#000000" stroke="none" d="M142 298 c-7 -7 -12 -19 -12 -28 0 -8
-9 -21 -20 -28 -11 -7 -20 -19 -20 -27 0 -8 -9 -23 -20 -32 -27 -23 -27 -63 0
-63 11 0 20 4 20 10 0 5 7 7 15 4 8 -4 13 -10 10 -14 -3 -5 0 -21 6 -37 7 -15
11 -38 10 -50 -3 -30 35 -42 55 -16 14 18 34 77 34 101 0 8 8 10 25 6 22 -5
25 -3 25 20 0 15 -6 29 -14 32 -9 3 -12 12 -9 21 4 11 2 14 -5 9 -8 -4 -10 -2
-6 8 3 9 -3 20 -15 28 -12 7 -21 20 -21 28 0 18 -19 40 -35 40 -6 0 -16 -5
-23 -12z"/>
</g>
</svg>
