<?xml version="1.0" standalone="no"?>
<!DOCTYPE svg PUBLIC "-//W3C//DTD SVG 20010904//EN"
 "http://www.w3.org/TR/2001/REC-SVG-20010904/DTD/svg10.dtd">
<svg version="1.0" xmlns="http://www.w3.org/2000/svg"
 width="32.000000pt" height="32.000000pt" viewBox="0 0 32.000000 32.000000"
 preserveAspectRatio="xMidYMid meet">
<metadata>
Created by potrace 1.16, written by Peter Selinger 2001-2019
</metadata>
<g transform="translate(0.000000,32.000000) scale(0.100000,-0.100000)"
fill="#000000" stroke="none">
<path fill="#000000" stroke="none" d="M0 261 c0 -35 5 -63 12 -67 6 -4 8 -3
5 3 -4 6 1 14 11 18 16 6 16 7 -2 21 -17 12 -18 16 -6 27 8 7 10 8 7 1 -4 -7
0 -15 9 -18 11 -4 14 0 12 14 -2 10 0 18 3 17 4 -1 16 7 28 17 20 18 27 13 22
-16 0 -5 4 -8 10 -8 5 0 7 -5 3 -12 -5 -7 -3 -8 5 -4 7 5 10 11 7 14 -3 3 1
14 11 24 9 11 11 18 5 18 -7 0 -12 -5 -12 -11 0 -5 -5 -7 -10 -4 -6 4 -8 11
-5 16 4 5 -20 9 -54 9 l-61 0 0 -59z"/>
<path fill="#000000" stroke="none" d="M210 294 c30 -26 31 -26 46 -8 9 11 13
14 10 8 -3 -7 1 -15 10 -18 8 -3 13 -2 10 2 -3 5 1 9 9 9 11 0 12 -5 3 -20 -7
-14 -7 -17 1 -13 7 5 11 -3 11 -23 0 -37 -9 -62 -21 -55 -5 3 -9 -2 -9 -10 0
-8 7 -19 16 -24 13 -7 14 -13 5 -31 -7 -11 -17 -21 -23 -21 -7 0 -6 5 2 15 7
9 11 18 8 20 -3 3 -10 -1 -17 -8 -13 -16 -4 -50 11 -41 6 4 6 -2 -1 -14 -8
-15 -7 -23 3 -31 9 -8 13 -7 13 4 0 8 -4 12 -9 9 -13 -8 -9 3 6 15 11 9 13 6
11 -19 -1 -17 1 -33 6 -36 5 -3 9 66 9 155 l0 161 -71 0 -71 0 32 -26z"/>
<path fill="#000000" stroke="none" d="M175 270 c9 -17 13 -36 9 -43 -4 -7 2
-3 13 8 22 22 17 37 -19 56 -18 10 -19 9 -3 -21z"/>
<path fill="#000000" stroke="none" d="M80 280 c0 -5 0 -12 0 -15 0 -12 14 -4
16 10 1 8 -2 15 -7 15 -5 0 -9 -4 -9 -10z"/>
<path fill="#000000" stroke="none" d="M275 231 c3 -5 1 -12 -5 -16 -5 -3 -10
-12 -10 -18 0 -7 7 -3 15 7 18 23 19 36 4 36 -5 0 -8 -4 -4 -9z"/>
<path fill="#000000" stroke="none" d="M128 200 c5 -13 4 -13 -13 0 -17 14
-18 14 -6 -7 6 -13 17 -23 23 -23 7 0 3 -7 -8 -15 -10 -8 -15 -15 -10 -15 4 0
-8 -18 -28 -40 -38 -43 -39 -54 -6 -63 17 -4 18 -2 9 14 -15 29 28 69 70 64
34 -4 40 5 16 25 -8 7 -12 17 -8 23 13 22 10 45 -5 39 -9 -3 -13 -1 -9 4 3 5
-3 10 -13 10 -12 0 -16 -5 -12 -16z"/>
<path fill="#000000" stroke="none" d="M28 183 c-14 -17 -34 -72 -21 -59 4 3
12 1 18 -4 9 -8 14 -6 19 5 3 8 1 15 -4 15 -14 0 -12 34 2 48 7 7 10 12 7 12
-3 0 -13 -8 -21 -17z"/>
<path fill="#000000" stroke="none" d="M60 175 c-12 -15 -6 -35 12 -35 6 0 6
6 -2 15 -11 13 -10 14 4 9 9 -3 16 -1 16 4 0 18 -17 22 -30 7z"/>
<path fill="#000000" stroke="none" d="M196 183 c-11 -12 -6 -20 19 -31 24
-11 25 -10 15 8 -12 23 -25 32 -34 23z"/>
<path fill="#000000" stroke="none" d="M206 96 c3 -9 11 -16 16 -16 6 0 8 -11
5 -25 -4 -24 -3 -25 17 -12 28 19 25 28 -13 50 -27 16 -30 17 -25 3z"/>
<path fill="#000000" stroke="none" d="M0 81 c0 -11 4 -21 9 -21 18 0 21 18 6
30 -13 10 -15 9 -15 -9z"/>
<path fill="#000000" stroke="none" d="M146 81 c-18 -7 -18 -8 4 -14 27 -7 39
-1 24 12 -5 5 -18 5 -28 2z"/>
<path fill="#000000" stroke="none" d="M142 51 c-11 -6 -9 -9 6 -13 15 -4 19
-2 15 8 -6 16 -4 16 -21 5z"/>
<path fill="#000000" stroke="none" d="M0 10 c0 -6 7 -10 15 -10 8 0 15 2 15
4 0 2 -7 6 -15 10 -8 3 -15 1 -15 -4z"/>
<path fill="#000000" stroke="none" d="M255 10 c-3 -5 3 -10 15 -10 12 0 18 5
15 10 -3 6 -10 10 -15 10 -5 0 -12 -4 -15 -10z"/>
</g>
</svg>
