<?xml version="1.0" standalone="no"?>
<!DOCTYPE svg PUBLIC "-//W3C//DTD SVG 20010904//EN"
 "http://www.w3.org/TR/2001/REC-SVG-20010904/DTD/svg10.dtd">
<svg version="1.0" xmlns="http://www.w3.org/2000/svg"
 width="32.000000pt" height="32.000000pt" viewBox="0 0 32.000000 32.000000"
 preserveAspectRatio="xMidYMid meet">
<metadata>
Created by potrace 1.16, written by Peter Selinger 2001-2019
</metadata>
<g transform="translate(0.000000,32.000000) scale(0.100000,-0.100000)"
fill="#000000" stroke="none">
<path fill="#000000" stroke="none" d="M115 311 c-3 -5 -1 -12 5 -16 5 -3 10
-1 10 4 0 6 5 11 12 11 7 0 5 -7 -5 -17 -8 -10 -16 -22 -17 -28 -1 -5 -4 -12
-7 -15 -4 -3 -3 1 1 8 4 6 2 12 -3 12 -6 0 -10 3 -10 8 5 28 -1 35 -18 19 -10
-8 -22 -16 -28 -17 -5 0 -9 -10 -7 -20 2 -14 -1 -18 -12 -14 -9 3 -13 11 -9
18 3 7 1 6 -7 -1 -12 -11 -11 -15 5 -27 18 -13 18 -14 -4 -25 -18 -10 -22 -20
-20 -59 1 -26 9 -55 17 -64 13 -16 13 -18 -2 -24 -22 -8 -20 -41 3 -54 28 -14
101 -13 101 3 0 9 2 9 8 0 9 -14 112 -15 130 -1 9 8 16 8 24 0 19 -19 24 -14
24 22 0 27 -3 33 -13 24 -14 -12 -18 -22 -5 -14 5 3 9 -1 9 -9 0 -11 -4 -12
-13 -4 -10 8 -11 16 -3 31 7 12 7 18 1 14 -15 -9 -24 25 -11 41 7 7 14 11 17
8 3 -2 -1 -11 -8 -20 -8 -10 -9 -15 -2 -15 6 0 16 10 23 21 9 18 8 24 -5 31
-9 5 -16 16 -16 24 0 8 4 13 9 9 13 -8 22 26 19 72 -2 23 -8 40 -15 40 -7 0
-10 -4 -7 -9 3 -4 -2 -5 -10 -2 -9 3 -13 11 -10 18 3 6 -1 3 -10 -8 -15 -18
-16 -18 -46 8 -31 26 -83 35 -95 17z"/>
<path fill="#ffffff" stroke="none" d="M207 268 c8 -9 5 -18 -10 -33 -11 -11
-17 -15 -13 -8 4 7 0 26 -9 43 -16 30 -15 31 3 21 10 -5 23 -16 29 -23z"/>
<path fill="#ffffff" stroke="none" d="M96 275 c-2 -14 -16 -22 -16 -10 0 3 0
10 0 15 0 6 4 10 9 10 5 0 8 -7 7 -15z"/>
<path fill="#ffffff" stroke="none" d="M290 232 c0 -13 -29 -48 -30 -35 0 6 5
15 10 18 6 4 8 11 5 16 -4 5 -1 9 4 9 6 0 11 -4 11 -8z"/>
<path fill="#ffffff" stroke="none" d="M153 206 c-4 -5 0 -7 9 -4 15 6 18 -17
5 -39 -4 -6 0 -16 8 -23 24 -20 18 -29 -16 -25 -42 5 -85 -35 -70 -64 9 -16 8
-18 -9 -14 -33 9 -32 20 6 63 20 22 32 40 28 40 -5 0 0 7 10 15 11 8 15 15 8
15 -6 0 -17 10 -23 23 -12 21 -11 21 6 7 17 -13 18 -13 13 0 -4 11 0 16 12 16
10 0 16 -5 13 -10z"/>
<path fill="#ffffff" stroke="none" d="M42 188 c-14 -14 -16 -48 -2 -48 5 0 7
-7 4 -15 -8 -19 -34 -1 -34 23 0 15 27 52 39 52 3 0 0 -5 -7 -12z"/>
<path fill="#ffffff" stroke="none" d="M90 168 c0 -5 -7 -7 -16 -4 -14 5 -15
4 -4 -9 8 -9 8 -15 2 -15 -18 0 -24 20 -12 35 13 15 30 11 30 -7z"/>
<path fill="#ffffff" stroke="none" d="M230 160 c10 -18 9 -19 -15 -8 -25 11
-30 19 -19 31 9 9 22 0 34 -23z"/>
<path fill="#ffffff" stroke="none" d="M264 66 c1 -5 -9 -15 -20 -23 -20 -13
-21 -12 -17 12 3 14 1 25 -5 25 -5 0 -13 7 -16 16 -5 14 -2 13 25 -3 18 -10
33 -22 33 -27z"/>
<path fill="#ffffff" stroke="none" d="M179 66 c-3 -3 -16 -2 -29 1 -22 6 -22
7 -4 14 18 6 43 -5 33 -15z"/>
<path fill="#ffffff" stroke="none" d="M163 46 c4 -10 0 -12 -15 -8 -15 4 -17
7 -6 13 17 11 15 11 21 -5z"/>
</g>
</svg>
