<?xml version="1.0" standalone="no"?>
<!DOCTYPE svg PUBLIC "-//W3C//DTD SVG 20010904//EN"
 "http://www.w3.org/TR/2001/REC-SVG-20010904/DTD/svg10.dtd">
<svg version="1.0" xmlns="http://www.w3.org/2000/svg"
 width="32.000000pt" height="32.000000pt" viewBox="0 0 32.000000 32.000000"
 preserveAspectRatio="xMidYMid meet">
<metadata>
Created by potrace 1.16, written by Peter Selinger 2001-2019
</metadata>
<g transform="translate(0.000000,32.000000) scale(0.100000,-0.100000)"
fill="#000000" stroke="none">
<path fill="#000000" stroke="none" d="M120 311 c0 -4 11 -6 25 -3 19 3 33 -4
61 -32 34 -34 35 -37 21 -59 -12 -19 -12 -26 -2 -40 16 -22 29 -22 21 0 -4 10
-4 14 0 10 11 -11 31 35 26 61 -2 12 -11 22 -19 22 -8 0 -28 11 -45 25 -28 24
-88 35 -88 16z"/>
<path fill="#000000" stroke="none" d="M80 295 c-7 -8 -15 -13 -19 -11 -4 3
-8 -5 -8 -16 -3 -28 -10 -33 -28 -18 -8 7 -15 9 -15 5 0 -4 8 -14 18 -22 12
-10 14 -16 5 -19 -7 -3 -13 -10 -13 -15 0 -6 16 2 35 16 19 15 39 24 46 19 8
-5 9 -3 4 6 -4 7 -2 15 5 20 8 5 8 9 -4 13 -8 3 -18 1 -22 -5 -5 -7 -2 -8 6
-3 9 5 11 4 6 -4 -4 -6 -12 -9 -17 -6 -12 8 -12 11 7 30 9 9 14 18 12 21 -3 2
-11 -2 -18 -11z"/>
<path fill="#000000" stroke="none" d="M134 289 c-15 -24 -14 -47 2 -53 8 -3
12 -2 9 4 -9 14 9 12 23 -2 20 -20 14 13 -7 41 -14 19 -20 21 -27 10z"/>
<path fill="#000000" stroke="none" d="M285 239 c3 -10 1 -26 -5 -36 -5 -10
-14 -30 -20 -45 -11 -33 -30 -36 -54 -9 -14 15 -15 24 -7 39 10 19 6 32 -10
32 -4 0 -5 -8 -2 -19 2 -10 -2 -24 -9 -32 -12 -12 -6 -21 41 -58 32 -26 51
-37 47 -26 -8 22 10 46 30 38 21 -8 17 10 -6 25 -12 7 -18 17 -15 22 4 6 10 8
15 5 10 -6 20 19 20 54 0 18 -5 28 -15 28 -10 0 -13 -6 -10 -18z"/>
<path fill="#ffffff" stroke="none" d="M300 200 c0 -5 -5 -10 -11 -10 -5 0 -7
5 -4 10 3 6 8 10 11 10 2 0 4 -4 4 -10z"/>
<path fill="#000000" stroke="none" d="M206 241 c-4 -5 -2 -12 3 -15 5 -4 12
-2 15 3 4 5 2 12 -3 15 -5 4 -12 2 -15 -3z"/>
<path fill="#000000" stroke="none" d="M51 184 c-25 -31 -26 -44 -6 -44 8 0
12 6 9 13 -3 8 2 20 10 27 13 10 17 9 23 -5 4 -11 0 -22 -10 -30 -9 -7 -14
-15 -10 -19 4 -4 -1 -4 -11 0 -16 6 -18 4 -13 -15 5 -22 5 -22 -14 -5 -25 23
-37 10 -14 -16 16 -18 16 -20 1 -26 -22 -8 -20 -41 3 -54 25 -13 101 -13 101
0 0 6 -3 9 -7 8 -5 -1 -20 6 -34 15 -33 22 -29 47 13 82 24 20 26 25 11 26
-10 0 -13 3 -5 6 6 2 10 9 6 14 -3 5 0 9 5 9 6 0 2 9 -9 20 -25 25 -24 25 -49
-6z"/>
<path fill="#000000" stroke="none" d="M3 165 c0 -22 2 -30 4 -17 2 12 2 30 0
40 -3 9 -5 -1 -4 -23z"/>
<path fill="#000000" stroke="none" d="M105 86 c-17 -25 -10 -62 9 -48 25 20
43 19 55 -1 11 -18 11 -20 0 -9 -14 13 -49 17 -49 5 1 -22 20 -31 70 -31 30
-1 60 4 68 10 9 8 16 8 24 0 7 -7 16 -12 22 -12 6 0 5 5 -2 12 -9 9 -9 15 1
27 11 14 10 14 -5 2 -15 -11 -19 -11 -24 3 -6 15 -10 14 -35 -10 -22 -21 -29
-24 -29 -11 0 8 5 19 10 22 18 11 11 23 -26 44 -46 27 -70 27 -89 -3z"/>
<path fill="#ffffff" stroke="none" d="M180 69 c0 -5 -10 -7 -22 -5 -34 7 -34
7 -13 15 22 9 35 5 35 -10z"/>
</g>
</svg>
