<?xml version="1.0" standalone="no"?>
<!DOCTYPE svg PUBLIC "-//W3C//DTD SVG 20010904//EN"
 "http://www.w3.org/TR/2001/REC-SVG-20010904/DTD/svg10.dtd">
<svg version="1.0" xmlns="http://www.w3.org/2000/svg"
 width="32.000000pt" height="32.000000pt" viewBox="0 0 32.000000 32.000000"
 preserveAspectRatio="xMidYMid meet">
<metadata>
Created by potrace 1.16, written by Peter Selinger 2001-2019
</metadata>
<g transform="translate(0.000000,32.000000) scale(0.100000,-0.100000)"
fill="#000000" stroke="none">
<path fill="#000000" stroke="none" d="M0 249 l0 -70 42 25 c23 14 50 32 61
41 36 31 117 6 117 -36 0 -13 5 -16 17 -12 9 4 14 2 11 -3 -3 -5 3 -18 13 -28
18 -19 25 -13 20 17 -1 4 7 7 16 5 16 -3 18 6 21 65 l3 67 -161 0 -160 0 0
-71z"/>
<path fill="#ffffff" stroke="none" d="M244 264 c9 -24 7 -34 -8 -34 -14 0
-28 34 -18 44 10 10 20 6 26 -10z"/>
<path fill="#ffffff" stroke="none" d="M310 215 c0 -8 -4 -15 -9 -15 -5 0 -16
-2 -24 -5 -8 -4 -14 0 -14 9 0 8 6 12 15 8 10 -3 13 -1 8 6 -4 7 -1 12 8 12 9
0 16 -7 16 -15z"/>
<path fill="#000000" stroke="none" d="M147 227 c4 -7 -1 -8 -13 -3 -10 4 -15
4 -11 0 4 -4 -1 -13 -11 -20 -16 -12 -16 -12 3 -11 13 1 20 -4 19 -14 -1 -9 5
-16 12 -16 7 0 11 4 8 9 -10 16 7 30 22 17 8 -7 14 -7 14 -1 0 5 -7 13 -16 16
-9 3 -14 12 -11 19 3 8 -1 14 -9 14 -7 0 -10 -5 -7 -10z"/>
<path fill="#000000" stroke="none" d="M53 172 c10 -10 14 -22 10 -27 -5 -4
-2 -5 5 -1 14 9 -2 46 -20 46 -6 0 -4 -8 5 -18z"/>
<path fill="#000000" stroke="none" d="M10 157 c0 -19 16 -31 24 -18 3 5 -1
14 -9 21 -12 10 -15 10 -15 -3z"/>
<path fill="#000000" stroke="none" d="M226 162 c-5 -9 14 -31 42 -46 19 -11
14 0 -12 29 -13 14 -27 22 -30 17z"/>
<path fill="#000000" stroke="none" d="M0 89 c0 -33 3 -40 12 -31 18 18 37 14
31 -7 -3 -11 2 -21 13 -25 14 -5 15 -4 5 8 -7 8 -10 20 -7 25 4 5 2 12 -3 15
-5 3 -7 16 -3 28 3 15 2 19 -7 14 -6 -4 -18 -2 -26 4 -13 11 -15 6 -15 -31z"/>
<path fill="#000000" stroke="none" d="M168 124 c-3 -5 -4 -21 -2 -37 2 -19
-3 -30 -17 -37 -10 -6 -19 -15 -19 -20 0 -18 29 -10 43 11 12 17 19 19 35 10
27 -14 69 -10 69 6 0 9 -4 10 -13 3 -18 -16 -59 7 -76 43 -8 17 -17 26 -20 21z"/>
<path fill="#000000" stroke="none" d="M83 83 c18 -21 51 -21 63 -1 10 15 -4
22 -20 9 -12 -10 -20 -10 -38 0 -23 12 -23 12 -5 -8z"/>
<path fill="#000000" stroke="none" d="M306 15 c-3 -8 -1 -15 4 -15 6 0 10 7
10 15 0 8 -2 15 -4 15 -2 0 -6 -7 -10 -15z"/>
</g>
</svg>
