<?xml version="1.0" standalone="no"?>
<!DOCTYPE svg PUBLIC "-//W3C//DTD SVG 20010904//EN"
 "http://www.w3.org/TR/2001/REC-SVG-20010904/DTD/svg10.dtd">
<svg version="1.0" xmlns="http://www.w3.org/2000/svg"
 width="32.000000pt" height="32.000000pt" viewBox="0 0 32.000000 32.000000"
 preserveAspectRatio="xMidYMid meet">
<metadata>
Created by potrace 1.16, written by Peter Selinger 2001-2019
</metadata>
<g transform="translate(0.000000,32.000000) scale(0.100000,-0.100000)"
fill="#000000" stroke="none">
<path fill="#000000" stroke="none" d="M2 237 c4 -85 12 -112 29 -101 6 4 6
11 -2 20 -6 8 -8 14 -3 14 5 0 2 5 -6 10 -9 6 -10 10 -3 10 14 0 40 -51 49
-96 6 -31 9 -34 43 -34 42 -1 25 -16 -24 -22 -24 -2 -30 1 -31 17 -3 59 -5 66
-14 60 -6 -4 -17 -1 -25 5 -13 11 -15 6 -15 -31 0 -33 3 -40 12 -31 17 17 39
15 32 -2 -3 -8 -1 -24 6 -35 8 -16 20 -21 55 -21 25 0 45 4 45 8 0 18 50 33
71 21 21 -11 59 -3 71 15 4 6 8 21 8 33 0 12 6 23 13 26 6 2 -2 11 -19 20 -17
9 -37 23 -45 33 -13 16 -12 16 9 5 12 -6 27 -9 32 -6 6 3 7 -1 4 -9 -3 -9 -2
-16 4 -16 12 0 22 58 22 133 l0 57 -161 0 -162 0 5 -83z"/>
<path fill="#ffffff" stroke="none" d="M210 229 c7 -12 9 -37 5 -59 -4 -23 -2
-46 5 -57 10 -16 10 -15 5 4 -5 18 -3 22 10 17 33 -13 43 -65 12 -63 -9 0 -9
2 1 6 21 8 13 20 -12 16 -28 -6 -39 9 -38 49 l1 29 -18 -22 c-14 -17 -18 -19
-18 -6 0 9 3 14 7 12 4 -2 13 7 20 20 10 19 11 31 2 50 -14 30 2 34 18 4z"/>
<path fill="#ffffff" stroke="none" d="M150 139 c0 -5 -8 -5 -17 -2 -16 6 -16
4 -5 -9 11 -14 10 -18 -6 -27 -15 -8 -23 -7 -32 4 -7 9 -10 18 -6 22 3 3 6 1
6 -5 0 -7 5 -12 10 -12 6 0 10 11 10 24 0 19 4 23 20 19 11 -3 20 -9 20 -14z"/>
<path fill="#000000" stroke="none" d="M306 15 c-3 -8 -1 -15 4 -15 6 0 10 7
10 15 0 8 -2 15 -4 15 -2 0 -6 -7 -10 -15z"/>
</g>
</svg>
