<?xml version="1.0" standalone="no"?>
<!DOCTYPE svg PUBLIC "-//W3C//DTD SVG 20010904//EN"
 "http://www.w3.org/TR/2001/REC-SVG-20010904/DTD/svg10.dtd">
<svg version="1.0" xmlns="http://www.w3.org/2000/svg"
 width="32.000000pt" height="32.000000pt" viewBox="0 0 32.000000 32.000000"
 preserveAspectRatio="xMidYMid meet">
<metadata>
Created by potrace 1.16, written by Peter Selinger 2001-2019
</metadata>
<g transform="translate(0.000000,32.000000) scale(0.100000,-0.100000)"
fill="#000000" stroke="none">
<path fill="#000000" stroke="none" d="M0 160 l0 -160 160 0 160 0 0 160 0
160 -160 0 -160 0 0 -160z"/>
<path fill="#ffffff" stroke="none" d="M243 301 c9 0 17 -7 17 -15 0 -8 7 -17
16 -20 20 -8 14 -51 -7 -51 -9 0 -24 -6 -33 -14 -13 -11 -16 -11 -16 0 0 10
-3 10 -12 1 -20 -20 6 -39 29 -21 16 13 17 12 4 -3 -12 -16 -11 -18 3 -18 9 0
16 -7 16 -16 0 -11 -5 -14 -17 -9 -10 3 -22 7 -28 8 -5 1 -13 6 -16 11 -12 15
-29 -4 -20 -22 5 -9 16 -34 25 -55 11 -26 21 -37 31 -33 8 3 17 0 21 -7 4 -7
4 -9 -1 -5 -4 4 -14 3 -20 -2 -8 -7 -18 -4 -30 10 -21 23 -48 10 -38 -18 6
-15 5 -15 -11 -3 -9 8 -15 20 -12 28 4 11 1 11 -14 3 -11 -6 -20 -15 -20 -19
0 -5 -6 -11 -14 -14 -12 -5 -12 -2 -1 20 8 14 18 29 23 32 5 3 12 24 16 46 l6
40 -25 -30 c-14 -16 -23 -22 -19 -12 5 13 1 17 -15 17 -12 0 -21 6 -21 16 0
11 6 14 20 9 29 -9 51 11 41 38 -5 14 -17 22 -35 23 -23 1 -55 27 -56 46 0 4
10 15 23 25 22 17 90 22 190 14z"/>
<path fill="#000000" stroke="none" d="M137 244 c-14 -19 -15 -28 -7 -42 10
-15 10 -15 5 4 -7 29 19 52 30 27 5 -10 7 -24 6 -30 -1 -7 3 -13 9 -13 6 0 9
4 5 9 -3 5 -1 12 5 16 15 9 12 25 -3 19 -8 -3 -18 4 -23 15 -9 19 -10 19 -27
-5z"/>
</g>
</svg>
