<?xml version="1.0" standalone="no"?>
<!DOCTYPE svg PUBLIC "-//W3C//DTD SVG 20010904//EN"
 "http://www.w3.org/TR/2001/REC-SVG-20010904/DTD/svg10.dtd">
<svg version="1.0" xmlns="http://www.w3.org/2000/svg"
 width="32.000000pt" height="32.000000pt" viewBox="0 0 32.000000 32.000000"
 preserveAspectRatio="xMidYMid meet">
<metadata>
Created by potrace 1.16, written by Peter Selinger 2001-2019
</metadata>
<g transform="translate(0.000000,32.000000) scale(0.100000,-0.100000)"
fill="#000000" stroke="none">
<path fill="#000000" stroke="none" d="M0 160 l0 -160 55 0 c32 0 55 4 55 11
0 5 -3 8 -8 5 -4 -2 -6 14 -5 37 4 65 7 76 15 71 4 -3 8 0 8 5 0 19 -17 12
-34 -14 -9 -14 -14 -30 -11 -35 3 -6 1 -10 -5 -10 -6 0 -8 -4 -5 -10 3 -5 1
-10 -4 -10 -7 0 -11 44 -11 125 l0 125 39 0 c37 0 52 -12 55 -45 1 -5 8 -10
16 -10 8 0 15 5 15 10 1 15 24 52 25 38 0 -7 10 -13 21 -13 35 0 48 -29 49
-105 1 -38 6 -79 11 -90 7 -16 8 -12 6 17 -4 49 11 35 17 -16 10 -80 16 -44
16 92 l0 142 -160 0 -160 0 0 -160z"/>
<path fill="#ffffff" stroke="none" d="M174 292 c2 -4 -4 -8 -14 -8 -10 0 -16
4 -14 8 3 4 9 8 14 8 5 0 11 -4 14 -8z"/>
<path fill="#ffffff" stroke="none" d="M78 28 c-6 -18 -28 -21 -28 -4 0 9 7
16 16 16 9 0 14 -5 12 -12z"/>
<path fill="#000000" stroke="none" d="M117 213 c-4 -3 -7 -16 -6 -27 0 -20 1
-20 9 2 10 24 22 30 18 10 -2 -8 7 -13 22 -13 15 0 24 5 23 13 -5 20 7 14 17
-10 l9 -23 0 22 c1 28 -16 38 -35 22 -11 -9 -18 -9 -26 -1 -14 14 -22 15 -31
5z"/>
<path fill="#000000" stroke="none" d="M61 144 c0 -11 3 -14 6 -6 3 7 2 16 -1
19 -3 4 -6 -2 -5 -13z"/>
<path fill="#000000" stroke="none" d="M80 149 c0 -5 5 -7 10 -4 6 3 10 8 10
11 0 2 -4 4 -10 4 -5 0 -10 -5 -10 -11z"/>
<path fill="#000000" stroke="none" d="M225 150 c3 -5 8 -10 11 -10 2 0 4 5 4
10 0 6 -5 10 -11 10 -5 0 -7 -4 -4 -10z"/>
<path fill="#000000" stroke="none" d="M251 144 c0 -11 3 -14 6 -6 3 7 2 16
-1 19 -3 4 -6 -2 -5 -13z"/>
<path fill="#000000" stroke="none" d="M127 131 c-8 -30 18 -47 47 -31 13 7
30 9 38 5 7 -3 6 -1 -3 7 -9 7 -14 19 -12 26 6 15 -9 16 -25 0 -8 -8 -15 -8
-25 1 -12 9 -16 7 -20 -8z"/>
<path fill="#000000" stroke="none" d="M244 100 c0 -11 6 -20 13 -20 11 0 11
5 3 20 -6 11 -12 20 -13 20 -2 0 -3 -9 -3 -20z"/>
<path fill="#000000" stroke="none" d="M110 76 c0 -9 5 -16 10 -16 6 0 10 4
10 9 0 6 -4 13 -10 16 -5 3 -10 -1 -10 -9z"/>
<path fill="#000000" stroke="none" d="M180 77 c0 -19 16 -31 24 -18 3 5 -1
14 -9 21 -12 10 -15 10 -15 -3z"/>
<path fill="#000000" stroke="none" d="M146 72 c-2 -4 -1 -14 4 -22 7 -11 9
-9 7 8 -1 24 -3 26 -11 14z"/>
<path fill="#000000" stroke="none" d="M278 43 c7 -3 16 -2 19 1 4 3 -2 6 -13
5 -11 0 -14 -3 -6 -6z"/>
</g>
</svg>
