<?xml version="1.0" standalone="no"?>
<!DOCTYPE svg PUBLIC "-//W3C//DTD SVG 20010904//EN"
 "http://www.w3.org/TR/2001/REC-SVG-20010904/DTD/svg10.dtd">
<svg version="1.0" xmlns="http://www.w3.org/2000/svg"
 width="32.000000pt" height="32.000000pt" viewBox="0 0 32.000000 32.000000"
 preserveAspectRatio="xMidYMid meet">
<metadata>
Created by potrace 1.16, written by Peter Selinger 2001-2019
</metadata>
<g transform="translate(0.000000,32.000000) scale(0.100000,-0.100000)"
fill="#000000" stroke="none">
<path fill="#000000" stroke="none" d="M0 160 l0 -160 160 0 160 0 0 160 0
160 -160 0 -160 0 0 -160z"/>
<path fill="#ffffff" stroke="none" d="M178 278 c9 -9 9 -15 0 -26 -10 -11 -8
-17 9 -30 11 -10 26 -27 32 -39 7 -13 18 -23 26 -23 8 0 15 -7 15 -15 0 -22
-18 -18 -45 9 -14 14 -27 22 -29 18 -5 -9 21 -121 34 -145 8 -13 7 -17 -5 -17
-8 0 -22 21 -32 50 -10 28 -20 50 -23 50 -3 0 -13 -22 -23 -50 -10 -29 -24
-50 -32 -50 -12 0 -13 4 -5 18 13 23 39 135 34 144 -2 4 -15 -4 -29 -18 -27
-27 -45 -31 -45 -9 0 8 7 15 15 15 8 0 19 10 26 23 6 12 21 29 32 39 17 13 19
19 9 30 -9 11 -9 17 0 26 7 7 15 12 18 12 3 0 11 -5 18 -12z"/>
</g>
</svg>
