<?xml version="1.0" standalone="no"?>
<!DOCTYPE svg PUBLIC "-//W3C//DTD SVG 20010904//EN"
 "http://www.w3.org/TR/2001/REC-SVG-20010904/DTD/svg10.dtd">
<svg version="1.0" xmlns="http://www.w3.org/2000/svg"
 width="32.000000pt" height="32.000000pt" viewBox="0 0 32.000000 32.000000"
 preserveAspectRatio="xMidYMid meet">
<metadata>
Created by potrace 1.16, written by Peter Selinger 2001-2019
</metadata>
<g transform="translate(0.000000,32.000000) scale(0.100000,-0.100000)"
fill="#000000" stroke="none">
<path fill="#000000" stroke="none" d="M0 160 l0 -160 160 0 160 0 0 160 0
160 -160 0 -160 0 0 -160z"/>
<path fill="#ffffff" stroke="none" d="M180 272 c0 -22 19 -53 65 -104 17 -20
20 -38 5 -38 -10 0 -21 11 -45 45 -14 19 -14 19 -15 -6 0 -15 3 -40 6 -57 6
-31 7 -31 36 -16 16 9 32 13 36 10 3 -3 -9 -11 -26 -17 -32 -11 -44 -41 -22
-54 15 -9 12 -25 -4 -25 -13 0 -26 26 -41 78 -3 12 -10 22 -15 22 -5 0 -12
-10 -15 -22 -15 -52 -28 -78 -41 -78 -16 0 -18 11 -5 25 11 13 31 97 31 132
-1 27 -1 27 -15 8 -24 -34 -35 -45 -45 -45 -15 0 -12 18 5 38 46 51 65 82 65
104 0 17 6 24 20 24 14 0 20 -7 20 -24z"/>
</g>
</svg>
