<?xml version="1.0" standalone="no"?>
<!DOCTYPE svg PUBLIC "-//W3C//DTD SVG 20010904//EN"
 "http://www.w3.org/TR/2001/REC-SVG-20010904/DTD/svg10.dtd">
<svg version="1.0" xmlns="http://www.w3.org/2000/svg"
 width="32.000000pt" height="32.000000pt" viewBox="0 0 32.000000 32.000000"
 preserveAspectRatio="xMidYMid meet">
<metadata>
Created by potrace 1.16, written by Peter Selinger 2001-2019
</metadata>
<g transform="translate(0.000000,32.000000) scale(0.100000,-0.100000)"
fill="#000000" stroke="none">
<path fill="#000000" stroke="none" d="M0 160 l0 -160 81 0 81 0 -21 35 c-18
32 -19 35 -3 36 13 0 11 3 -5 9 -28 11 -26 42 5 70 12 12 22 17 22 13 0 -5 10
-13 23 -18 24 -11 29 -32 13 -53 -6 -8 -11 -32 -12 -53 l-2 -39 69 0 69 0 0
160 0 160 -160 0 -160 0 0 -160z"/>
<path fill="#ffffff" stroke="none" d="M170 280 c0 -5 -7 -10 -16 -10 -8 0
-12 5 -9 10 3 6 10 10 16 10 5 0 9 -4 9 -10z"/>
<path fill="#ffffff" stroke="none" d="M170 251 c0 -17 -18 -21 -24 -6 -3 9 0
15 9 15 8 0 15 -4 15 -9z"/>
<path fill="#ffffff" stroke="none" d="M217 185 l15 -30 -25 30 c-21 25 -25
27 -24 10 2 -15 -4 -20 -23 -20 -18 1 -25 6 -24 18 2 14 -1 15 -12 6 -7 -6
-16 -19 -19 -30 -4 -10 -10 -19 -15 -19 -5 0 -1 15 10 33 17 29 24 33 61 32
35 -1 43 -5 56 -30z"/>
<path fill="#ffffff" stroke="none" d="M67 138 c-3 -8 -6 -5 -6 6 -1 11 2 17
5 13 3 -3 4 -12 1 -19z"/>
<path fill="#ffffff" stroke="none" d="M247 138 c-3 -8 -6 -5 -6 6 -1 11 2 17
5 13 3 -3 4 -12 1 -19z"/>
</g>
</svg>
