<?xml version="1.0" standalone="no"?>
<!DOCTYPE svg PUBLIC "-//W3C//DTD SVG 20010904//EN"
 "http://www.w3.org/TR/2001/REC-SVG-20010904/DTD/svg10.dtd">
<svg version="1.0" xmlns="http://www.w3.org/2000/svg"
 width="32.000000pt" height="32.000000pt" viewBox="0 0 32.000000 32.000000"
 preserveAspectRatio="xMidYMid meet">
<metadata>
Created by potrace 1.16, written by Peter Selinger 2001-2019
</metadata>
<g transform="translate(0.000000,32.000000) scale(0.100000,-0.100000)"
fill="#000000" stroke="none">
<path fill="#000000" stroke="none" d="M145 280 c-3 -5 1 -10 9 -10 9 0 16 5
16 10 0 6 -4 10 -9 10 -6 0 -13 -4 -16 -10z"/>
<path fill="#000000" stroke="none" d="M142 248 c2 -6 10 -14 16 -16 7 -2 10
2 6 12 -7 18 -28 22 -22 4z"/>
<path fill="#000000" stroke="none" d="M102 193 c-30 -42 -28 -54 4 -20 14 15
24 33 22 39 -2 6 -14 -2 -26 -19z"/>
<path fill="#000000" stroke="none" d="M150 204 c0 -8 5 -12 10 -9 6 3 10 10
10 16 0 5 -4 9 -10 9 -5 0 -10 -7 -10 -16z"/>
<path fill="#000000" stroke="none" d="M190 212 c0 -7 9 -22 20 -34 11 -12 20
-17 20 -11 0 16 -39 60 -40 45z"/>
<path fill="#000000" stroke="none" d="M61 144 c0 -11 3 -14 6 -6 3 7 2 16 -1
19 -3 4 -6 -2 -5 -13z"/>
<path fill="#000000" stroke="none" d="M241 144 c0 -11 3 -14 6 -6 3 7 2 16
-1 19 -3 4 -6 -2 -5 -13z"/>
<path fill="#000000" stroke="none" d="M119 135 c-5 0 -6 -42 -1 -49 4 -6 7
-13 7 -16 2 -14 37 -70 44 -70 11 0 24 48 16 60 -4 6 -1 10 5 10 6 0 9 4 5 9
-3 5 -1 12 4 15 5 4 8 13 7 22 -2 15 -21 19 -87 19z"/>
</g>
</svg>
