<?xml version="1.0" standalone="no"?>
<!DOCTYPE svg PUBLIC "-//W3C//DTD SVG 20010904//EN"
 "http://www.w3.org/TR/2001/REC-SVG-20010904/DTD/svg10.dtd">
<svg version="1.0" xmlns="http://www.w3.org/2000/svg"
 width="32.000000pt" height="32.000000pt" viewBox="0 0 32.000000 32.000000"
 preserveAspectRatio="xMidYMid meet">
<metadata>
Created by potrace 1.16, written by Peter Selinger 2001-2019
</metadata>
<g transform="translate(0.000000,32.000000) scale(0.100000,-0.100000)"
fill="#000000" stroke="none">
<path fill="#000000" stroke="none" d="M119 135 c-5 0 -6 -42 -1 -49 4 -6 7
-13 7 -16 2 -14 37 -70 44 -70 11 0 24 48 16 60 -4 6 -1 10 5 10 6 0 9 4 5 9
-3 5 -1 12 4 15 5 4 8 13 7 22 -2 15 -21 19 -87 19z"/>
</g>
</svg>
