<?xml version="1.0" standalone="no"?>
<!DOCTYPE svg PUBLIC "-//W3C//DTD SVG 20010904//EN"
 "http://www.w3.org/TR/2001/REC-SVG-20010904/DTD/svg10.dtd">
<svg version="1.0" xmlns="http://www.w3.org/2000/svg"
 width="32.000000pt" height="32.000000pt" viewBox="0 0 32.000000 32.000000"
 preserveAspectRatio="xMidYMid meet">
<metadata>
Created by potrace 1.16, written by Peter Selinger 2001-2019
</metadata>
<g transform="translate(0.000000,32.000000) scale(0.100000,-0.100000)"
fill="#000000" stroke="none">
<path fill="#000000" stroke="none" d="M128 300 c-9 -6 -15 -17 -12 -25 4 -8
1 -15 -5 -15 -6 0 -11 9 -11 20 0 15 -7 20 -25 20 l-25 0 0 -150 0 -150 110 0
110 0 0 150 0 150 -34 0 c-18 0 -46 2 -62 5 -16 3 -37 1 -46 -5z"/>
<path fill="#ffffff" stroke="none" d="M182 277 c-15 -7 -29 -7 -44 0 -19 8
-16 10 22 10 38 0 41 -2 22 -10z"/>
<path fill="#ffffff" stroke="none" d="M170 250 c0 -5 -4 -10 -10 -10 -5 0
-10 5 -10 10 0 6 5 10 10 10 6 0 10 -4 10 -10z"/>
<path fill="#ffffff" stroke="none" d="M198 212 c2 -7 -5 -12 -15 -12 -15 0
-16 -2 -3 -10 8 -5 10 -10 4 -10 -13 0 -13 -42 -1 -51 10 -8 26 -66 20 -73
-12 -11 -23 6 -24 37 -1 18 -3 24 -6 15 -6 -23 -20 -23 -26 0 -3 9 -5 3 -6
-14 -1 -33 -9 -47 -22 -39 -8 6 6 65 18 74 12 9 12 51 -1 51 -6 0 -4 5 4 10
13 8 12 10 -2 10 -17 0 -24 11 -14 21 9 9 70 1 74 -9z"/>
<path fill="#ffffff" stroke="none" d="M96 158 c-18 -26 -22 -17 -5 14 6 11
13 17 16 15 3 -3 -2 -16 -11 -29z"/>
<path fill="#ffffff" stroke="none" d="M240 146 c0 -5 -7 -1 -15 10 -8 10 -14
24 -14 29 0 6 6 1 14 -9 8 -11 15 -24 15 -30z"/>
<path fill="#ffffff" stroke="none" d="M120 22 c0 -5 -7 -9 -15 -9 -8 0 -12 4
-9 9 7 10 24 10 24 0z"/>
<path fill="#ffffff" stroke="none" d="M230 22 c0 -5 -7 -9 -15 -9 -8 0 -15 4
-15 9 0 4 7 8 15 8 8 0 15 -4 15 -8z"/>
</g>
</svg>
