<?xml version="1.0" standalone="no"?>
<!DOCTYPE svg PUBLIC "-//W3C//DTD SVG 20010904//EN"
 "http://www.w3.org/TR/2001/REC-SVG-20010904/DTD/svg10.dtd">
<svg version="1.0" xmlns="http://www.w3.org/2000/svg"
 width="32.000000pt" height="32.000000pt" viewBox="0 0 32.000000 32.000000"
 preserveAspectRatio="xMidYMid meet">
<metadata>
Created by potrace 1.16, written by Peter Selinger 2001-2019
</metadata>
<g transform="translate(0.000000,32.000000) scale(0.100000,-0.100000)"
fill="#000000" stroke="none">
<path fill="#000000" stroke="none" d="M0 160 l0 -160 25 0 25 0 2 153 c1 83
3 122 5 85 2 -38 8 -68 13 -68 6 0 10 4 10 9 0 5 12 24 27 41 22 27 25 35 14
51 -17 28 -8 35 44 36 47 1 53 -5 33 -36 -10 -16 -7 -24 15 -51 15 -17 27 -36
27 -41 0 -5 4 -9 10 -9 5 0 11 30 13 68 3 50 3 44 3 -22 -1 -97 -10 -112 -45
-77 -24 24 -26 14 -10 -41 5 -21 14 -38 20 -38 5 0 9 6 7 13 -2 6 1 13 6 14 5
1 13 7 17 15 5 8 9 -9 9 -44 0 -55 1 -58 25 -58 l25 0 0 160 0 160 -160 0
-160 0 0 -160z"/>
<path fill="#000000" stroke="none" d="M123 290 c1 -3 9 -17 16 -32 18 -35 24
-35 42 0 7 15 15 29 16 32 2 3 -15 5 -37 5 -22 0 -39 -2 -37 -5z"/>
<path fill="#000000" stroke="none" d="M113 215 c-10 -15 -26 -35 -35 -46 -20
-21 -23 -39 -8 -39 9 0 16 7 49 49 l18 25 -2 -25 c-2 -32 -25 -130 -36 -151
-10 -19 8 -25 58 -20 l33 4 -23 18 c-21 18 -22 18 -35 -3 -12 -19 -12 -19 -6
-2 3 11 10 34 14 50 6 21 8 24 9 9 1 -11 7 -28 14 -38 12 -16 13 -13 11 20 -2
22 -1 30 2 19 17 -65 44 -95 71 -76 14 9 15 69 2 77 -8 5 -9 3 -4 -6 5 -8 1
-18 -10 -26 -16 -12 -17 -14 -2 -20 9 -3 14 -10 11 -16 -14 -22 -55 88 -59
161 l-2 25 18 -25 c33 -42 40 -49 49 -49 15 0 12 18 -7 39 -10 11 -26 31 -36
46 -15 21 -22 24 -33 14 -11 -9 -17 -9 -28 0 -11 10 -18 7 -33 -14z"/>
<path fill="#000000" stroke="none" d="M110 151 c0 -6 -11 -17 -25 -23 -22
-10 -25 -17 -25 -65 0 -55 7 -65 26 -36 15 24 38 123 30 130 -3 4 -6 1 -6 -6z"/>
</g>
</svg>
