<?xml version="1.0" standalone="no"?>
<!DOCTYPE svg PUBLIC "-//W3C//DTD SVG 20010904//EN"
 "http://www.w3.org/TR/2001/REC-SVG-20010904/DTD/svg10.dtd">
<svg version="1.0" xmlns="http://www.w3.org/2000/svg"
 width="32.000000pt" height="32.000000pt" viewBox="0 0 32.000000 32.000000"
 preserveAspectRatio="xMidYMid meet">
<metadata>
Created by potrace 1.16, written by Peter Selinger 2001-2019
</metadata>
<g transform="translate(0.000000,32.000000) scale(0.100000,-0.100000)"
fill="#000000" stroke="none">
<path fill="#000000" stroke="none" d="M114 299 c-2 -4 1 -11 7 -15 8 -5 9 -3
4 6 -5 9 -4 11 3 6 9 -5 9 -13 1 -28 -9 -16 -8 -19 3 -12 7 4 0 -8 -17 -27
l-30 -34 -3 52 c-2 38 -7 53 -17 53 -13 0 -15 -26 -15 -149 l0 -150 90 0 c58
0 89 3 85 9 -4 6 -11 8 -16 5 -5 -4 -9 -1 -9 4 0 17 27 13 34 -4 3 -8 12 -15
21 -15 12 0 15 12 15 55 0 36 -4 55 -12 55 -9 0 -9 3 0 12 7 7 12 44 12 95 0
66 -3 83 -15 83 -10 0 -15 -15 -17 -53 l-3 -52 -30 34 c-16 19 -24 31 -17 27
11 -7 12 -4 3 12 -8 15 -8 23 1 28 7 5 8 3 3 -6 -5 -9 -4 -11 3 -6 24 15 11
24 -33 23 -25 0 -48 -4 -51 -8z"/>
<path fill="#ffffff" stroke="none" d="M170 280 c0 -5 -4 -10 -10 -10 -5 0
-10 5 -10 10 0 6 5 10 10 10 6 0 10 -4 10 -10z"/>
<path fill="#ffffff" stroke="none" d="M170 250 c0 -5 -4 -10 -10 -10 -5 0
-10 5 -10 10 0 6 5 10 10 10 6 0 10 -4 10 -10z"/>
<path fill="#ffffff" stroke="none" d="M173 219 c8 6 17 8 20 4 15 -14 5 -20
-33 -20 -38 0 -48 6 -33 20 3 4 12 2 20 -4 9 -8 17 -8 26 0z"/>
<path fill="#ffffff" stroke="none" d="M96 158 c-18 -26 -22 -17 -5 14 6 11
13 17 16 15 3 -3 -2 -16 -11 -29z"/>
<path fill="#ffffff" stroke="none" d="M240 146 c0 -5 -7 -1 -15 10 -8 10 -14
24 -14 29 0 6 6 1 14 -9 8 -11 15 -24 15 -30z"/>
<path fill="#ffffff" stroke="none" d="M109 95 c-15 -68 -29 -81 -29 -26 0 26
-5 41 -12 41 -7 1 -1 8 15 16 15 8 27 20 27 26 0 6 3 9 6 5 3 -3 0 -31 -7 -62z"/>
<path fill="#ffffff" stroke="none" d="M238 91 c-1 -42 -15 -39 -27 7 -16 55
-14 65 8 43 12 -12 19 -32 19 -50z"/>
<path fill="#ffffff" stroke="none" d="M132 58 c-16 -16 -20 5 -8 42 l10 35 4
-34 c2 -18 -1 -38 -6 -43z"/>
<path fill="#ffffff" stroke="none" d="M202 83 c1 -12 -1 -23 -7 -25 -5 -2
-11 15 -13 37 -2 42 13 32 20 -12z"/>
<path fill="#ffffff" stroke="none" d="M160 35 c10 -13 9 -15 -8 -15 -15 0
-20 5 -16 15 4 8 7 15 9 15 1 0 8 -7 15 -15z"/>
<path fill="#ffffff" stroke="none" d="M120 22 c0 -5 -7 -9 -15 -9 -8 0 -12 4
-9 9 7 10 24 10 24 0z"/>
</g>
</svg>
