<?xml version="1.0" standalone="no"?>
<!DOCTYPE svg PUBLIC "-//W3C//DTD SVG 20010904//EN"
 "http://www.w3.org/TR/2001/REC-SVG-20010904/DTD/svg10.dtd">
<svg version="1.0" xmlns="http://www.w3.org/2000/svg"
 width="32.000000pt" height="32.000000pt" viewBox="0 0 32.000000 32.000000"
 preserveAspectRatio="xMidYMid meet">
<metadata>
Created by potrace 1.16, written by Peter Selinger 2001-2019
</metadata>
<g transform="translate(0.000000,32.000000) scale(0.100000,-0.100000)"
fill="#000000" stroke="none">
<path fill="#000000" stroke="none" d="M0 160 l0 -160 160 0 160 0 0 160 0
160 -160 0 -160 0 0 -160z"/>
<path fill="#ffffff" stroke="none" d="M178 261 c2 -12 14 -33 27 -47 46 -53
55 -64 55 -74 0 -17 -20 -11 -45 15 -24 23 -25 23 -25 4 0 -29 21 -112 31
-124 13 -14 11 -25 -6 -25 -8 0 -22 21 -32 50 -10 28 -20 50 -23 50 -3 0 -13
-22 -23 -50 -10 -29 -24 -50 -32 -50 -17 0 -19 11 -6 25 10 12 31 95 31 124 0
19 -1 19 -25 -4 -25 -26 -45 -32 -45 -15 0 10 9 22 56 74 13 15 24 35 24 45 0
38 33 40 38 2z"/>
</g>
</svg>
