<?xml version="1.0" standalone="no"?>
<!DOCTYPE svg PUBLIC "-//W3C//DTD SVG 20010904//EN"
 "http://www.w3.org/TR/2001/REC-SVG-20010904/DTD/svg10.dtd">
<svg version="1.0" xmlns="http://www.w3.org/2000/svg"
 width="32.000000pt" height="32.000000pt" viewBox="0 0 32.000000 32.000000"
 preserveAspectRatio="xMidYMid meet">
<metadata>
Created by potrace 1.16, written by Peter Selinger 2001-2019
</metadata>
<g transform="translate(0.000000,32.000000) scale(0.100000,-0.100000)"
fill="#000000" stroke="none">
<path fill="#000000" stroke="none" d="M140 285 c-7 -8 -10 -24 -7 -34 3 -12
-1 -22 -9 -25 -8 -3 -19 -16 -25 -30 -6 -13 -20 -27 -30 -29 -21 -6 -26 -32
-8 -43 6 -3 24 3 39 15 l29 21 -11 -30 c-5 -17 -8 -39 -5 -50 3 -11 1 -18 -4
-14 -5 3 -9 -3 -9 -13 0 -11 -5 -24 -12 -31 -9 -9 -7 -13 7 -18 21 -8 49 22
40 44 -2 7 0 10 5 7 6 -3 10 1 10 9 0 9 5 16 10 16 6 0 10 -7 10 -16 0 -8 4
-12 10 -9 5 3 7 0 5 -7 -9 -22 19 -52 40 -44 14 5 16 9 7 18 -7 7 -12 20 -12
31 0 11 -4 15 -12 11 -7 -5 -8 -3 -4 5 5 7 5 28 1 47 -8 47 -29 33 -21 -15 5
-31 4 -33 -6 -13 -6 12 -14 22 -18 22 -4 0 -12 -10 -18 -22 -8 -19 -9 -14 -6
27 1 27 -2 55 -8 62 -25 30 36 53 65 24 9 -10 8 -15 -5 -25 -21 -15 -24 -28
-5 -24 6 1 24 -6 39 -16 15 -10 32 -15 38 -11 17 10 11 36 -9 42 -10 2 -24 16
-30 29 -6 14 -17 27 -25 30 -8 3 -12 13 -9 25 5 19 -12 49 -27 49 -4 0 -13 -7
-20 -15z"/>
</g>
</svg>
