<?xml version="1.0" standalone="no"?>
<!DOCTYPE svg PUBLIC "-//W3C//DTD SVG 20010904//EN"
 "http://www.w3.org/TR/2001/REC-SVG-20010904/DTD/svg10.dtd">
<svg version="1.0" xmlns="http://www.w3.org/2000/svg"
 width="32.000000pt" height="32.000000pt" viewBox="0 0 32.000000 32.000000"
 preserveAspectRatio="xMidYMid meet">
<metadata>
Created by potrace 1.16, written by Peter Selinger 2001-2019
</metadata>
<g transform="translate(0.000000,32.000000) scale(0.100000,-0.100000)"
fill="#000000" stroke="none">
<path fill="#000000" stroke="none" d="M142 288 c-7 -7 -12 -18 -12 -26 0 -13
-30 -55 -65 -93 -34 -36 -5 -62 31 -28 13 12 24 17 24 10 0 -23 -23 -106 -32
-118 -12 -15 -2 -33 17 -33 16 0 45 49 45 75 0 8 5 15 10 15 6 0 10 -7 10 -15
0 -26 29 -75 45 -75 19 0 29 18 17 33 -9 12 -32 95 -32 118 0 7 11 2 24 -10
36 -34 65 -8 31 28 -35 38 -65 80 -65 93 0 14 -19 38 -30 38 -3 0 -11 -5 -18
-12z"/>
<path fill="#ffffff" stroke="none" d="M189 215 c18 -19 20 -25 7 -25 -10 0
-13 -5 -9 -17 5 -13 2 -15 -13 -10 -18 7 -18 7 0 -7 24 -20 14 -48 -16 -44
-19 2 -24 10 -26 41 -2 20 -8 37 -14 37 -5 0 0 11 13 25 13 13 26 25 29 25 3
0 16 -12 29 -25z"/>
<path fill="#ffffff" stroke="none" d="M137 78 c-3 -8 -6 -5 -6 6 -1 11 2 17
5 13 3 -3 4 -12 1 -19z"/>
<path fill="#ffffff" stroke="none" d="M187 78 c-3 -8 -6 -5 -6 6 -1 11 2 17
5 13 3 -3 4 -12 1 -19z"/>
<path fill="#ffffff" stroke="none" d="M133 45 c-3 -9 -8 -14 -10 -11 -3 3 -2
9 2 15 9 16 15 13 8 -4z"/>
<path fill="#ffffff" stroke="none" d="M198 35 c-3 -3 -9 2 -12 12 -6 14 -5
15 5 6 7 -7 10 -15 7 -18z"/>
</g>
</svg>
