<?xml version="1.0" standalone="no"?>
<!DOCTYPE svg PUBLIC "-//W3C//DTD SVG 20010904//EN"
 "http://www.w3.org/TR/2001/REC-SVG-20010904/DTD/svg10.dtd">
<svg version="1.0" xmlns="http://www.w3.org/2000/svg"
 width="32.000000pt" height="32.000000pt" viewBox="0 0 32.000000 32.000000"
 preserveAspectRatio="xMidYMid meet">
<metadata>
Created by potrace 1.16, written by Peter Selinger 2001-2019
</metadata>
<g transform="translate(0.000000,32.000000) scale(0.100000,-0.100000)"
fill="#000000" stroke="none">
<path fill="#000000" stroke="none" d="M140 285 c-7 -8 -10 -24 -7 -34 3 -12
-1 -22 -9 -25 -8 -3 -19 -16 -25 -30 -6 -13 -20 -27 -30 -29 -21 -6 -26 -32
-8 -43 6 -3 23 3 38 14 l27 20 -13 -57 c-8 -31 -18 -64 -24 -74 -7 -13 -5 -19
7 -24 19 -7 41 18 51 54 7 29 19 29 26 1 10 -37 32 -62 51 -55 12 5 14 11 7
24 -6 10 -16 43 -24 74 l-13 57 27 -20 c15 -11 32 -17 38 -14 18 11 13 37 -8
43 -10 2 -24 16 -30 29 -6 14 -17 27 -25 30 -8 3 -12 13 -9 25 5 19 -12 49
-27 49 -4 0 -13 -7 -20 -15z"/>
<path fill="#ffffff" stroke="none" d="M185 200 c-3 -5 -15 -10 -25 -10 -10 0
-22 5 -25 10 -4 6 7 10 25 10 18 0 29 -4 25 -10z"/>
<path fill="#ffffff" stroke="none" d="M141 93 c-12 -20 -14 -14 -5 12 4 9 9
14 11 11 3 -2 0 -13 -6 -23z"/>
<path fill="#ffffff" stroke="none" d="M190 85 c0 -5 -5 -3 -10 5 -5 8 -10 20
-10 25 0 6 5 3 10 -5 5 -8 10 -19 10 -25z"/>
</g>
</svg>
