<?xml version="1.0" standalone="no"?>
<!DOCTYPE svg PUBLIC "-//W3C//DTD SVG 20010904//EN"
 "http://www.w3.org/TR/2001/REC-SVG-20010904/DTD/svg10.dtd">
<svg version="1.0" xmlns="http://www.w3.org/2000/svg"
 width="32.000000pt" height="32.000000pt" viewBox="0 0 32.000000 32.000000"
 preserveAspectRatio="xMidYMid meet">
<metadata>
Created by potrace 1.16, written by Peter Selinger 2001-2019
</metadata>
<g transform="translate(0.000000,32.000000) scale(0.100000,-0.100000)"
fill="#000000" stroke="none">
<path fill="#000000" stroke="none" d="M0 161 l0 -159 160 0 160 0 0 159 0
159 -160 0 -160 0 0 -159z"/>
<path fill="#ffffff" stroke="none" d="M180 285 c7 -8 10 -24 7 -34 -3 -12 1
-22 9 -25 8 -3 19 -16 25 -30 6 -13 20 -27 30 -29 20 -6 26 -32 9 -42 -6 -4
-22 1 -35 9 -14 9 -25 14 -25 12 0 -21 25 -114 33 -126 9 -13 9 -13 -3 -2 -15
13 -51 141 -44 154 3 4 15 -4 29 -18 27 -27 45 -31 45 -9 0 8 -7 15 -15 15 -8
0 -21 13 -30 29 -8 16 -20 31 -27 33 -7 3 -12 18 -13 34 0 19 -5 29 -15 29
-10 0 -15 -10 -15 -29 -1 -16 -6 -31 -13 -34 -7 -2 -19 -17 -27 -33 -9 -16
-22 -29 -30 -29 -8 0 -15 -7 -15 -15 0 -22 18 -18 45 9 14 14 26 22 29 18 7
-13 -29 -141 -44 -154 -12 -11 -12 -11 -3 2 8 12 33 105 33 126 0 2 -11 -3
-25 -12 -13 -8 -29 -13 -35 -9 -17 10 -11 36 9 42 10 2 24 16 30 29 6 14 17
27 25 30 8 3 12 13 9 25 -5 19 12 49 27 49 4 0 13 -7 20 -15z"/>
<path fill="#ffffff" stroke="none" d="M182 63 c9 -26 15 -49 13 -51 -2 -2 -9
13 -16 32 -7 20 -16 36 -19 36 -3 0 -12 -16 -19 -36 -7 -19 -14 -34 -16 -32
-5 5 28 98 35 98 3 0 13 -21 22 -47z"/>
</g>
</svg>
