<?xml version="1.0" standalone="no"?>
<!DOCTYPE svg PUBLIC "-//W3C//DTD SVG 20010904//EN"
 "http://www.w3.org/TR/2001/REC-SVG-20010904/DTD/svg10.dtd">
<svg version="1.0" xmlns="http://www.w3.org/2000/svg"
 width="32.000000pt" height="32.000000pt" viewBox="0 0 32.000000 32.000000"
 preserveAspectRatio="xMidYMid meet">
<metadata>
Created by potrace 1.16, written by Peter Selinger 2001-2019
</metadata>
<g transform="translate(0.000000,32.000000) scale(0.100000,-0.100000)"
fill="#000000" stroke="none">
<path fill="#000000" stroke="none" d="M138 257 c-31 -56 -61 -97 -69 -97 -5
0 -9 -7 -9 -15 0 -8 4 -15 9 -15 12 0 38 25 44 42 2 7 8 10 13 5 9 -9 -13
-127 -27 -142 -13 -13 -11 -25 5 -25 13 0 26 26 41 78 3 12 10 22 15 22 5 0
12 -10 15 -22 15 -52 28 -78 41 -78 16 0 18 11 5 25 -10 12 -31 96 -31 127 0
23 0 23 25 -5 29 -30 45 -35 45 -12 0 8 -4 15 -9 15 -8 0 -38 41 -69 97 -7 13
-17 23 -22 23 -5 0 -15 -10 -22 -23z"/>
</g>
</svg>
