<?xml version="1.0" standalone="no"?>
<!DOCTYPE svg PUBLIC "-//W3C//DTD SVG 20010904//EN"
 "http://www.w3.org/TR/2001/REC-SVG-20010904/DTD/svg10.dtd">
<svg version="1.0" xmlns="http://www.w3.org/2000/svg"
 width="32.000000pt" height="32.000000pt" viewBox="0 0 32.000000 32.000000"
 preserveAspectRatio="xMidYMid meet">
<metadata>
Created by potrace 1.16, written by Peter Selinger 2001-2019
</metadata>
<g transform="translate(0.000000,32.000000) scale(0.100000,-0.100000)"
fill="#000000" stroke="none">
<path fill="#000000" stroke="none" d="M0 160 l0 -160 160 0 160 0 0 160 0
160 -160 0 -160 0 0 -160z"/>
<path fill="#ffffff" stroke="none" d="M141 223 c-11 -5 -11 -7 0 -15 11 -8
10 -9 -3 -4 -13 4 -22 -3 -33 -24 -15 -29 -25 -38 -25 -22 0 20 42 72 57 71
13 0 14 -2 4 -6z"/>
<path fill="#ffffff" stroke="none" d="M217 187 c13 -20 19 -37 13 -37 -6 0
-16 13 -23 28 -7 16 -18 28 -25 26 -8 -2 -8 0 -1 3 8 4 7 8 -2 15 -12 8 -12 9
0 6 8 -2 25 -21 38 -41z"/>
<path fill="#ffffff" stroke="none" d="M67 138 c-3 -8 -6 -5 -6 6 -1 11 2 17
5 13 3 -3 4 -12 1 -19z"/>
<path fill="#ffffff" stroke="none" d="M257 138 c-3 -8 -6 -5 -6 6 -1 11 2 17
5 13 3 -3 4 -12 1 -19z"/>
<path fill="#ffffff" stroke="none" d="M140 100 c0 -22 -30 -80 -41 -80 -8 0
-8 4 -1 13 5 6 13 27 17 45 6 29 25 46 25 22z"/>
<path fill="#ffffff" stroke="none" d="M213 33 c5 -8 4 -13 -2 -13 -15 0 -31
35 -30 67 1 27 1 27 13 -7 6 -19 15 -41 19 -47z"/>
</g>
</svg>
