<?xml version="1.0" standalone="no"?>
<!DOCTYPE svg PUBLIC "-//W3C//DTD SVG 20010904//EN"
 "http://www.w3.org/TR/2001/REC-SVG-20010904/DTD/svg10.dtd">
<svg version="1.0" xmlns="http://www.w3.org/2000/svg"
 width="32.000000pt" height="32.000000pt" viewBox="0 0 32.000000 32.000000"
 preserveAspectRatio="xMidYMid meet">
<metadata>
Created by potrace 1.16, written by Peter Selinger 2001-2019
</metadata>
<g transform="translate(0.000000,32.000000) scale(0.100000,-0.100000)"
fill="#000000" stroke="none">
<path fill="#000000" stroke="none" d="M114 309 c-3 -6 -1 -21 6 -34 11 -21
10 -28 -14 -57 -14 -18 -33 -41 -42 -50 -17 -18 -13 -48 6 -48 6 0 23 12 37
27 19 20 24 23 19 9 -3 -10 -11 -39 -18 -65 -6 -25 -15 -51 -20 -58 -12 -15
-2 -33 17 -33 16 0 45 49 45 75 0 8 5 15 10 15 6 0 10 -7 10 -15 0 -26 29 -75
45 -75 19 0 29 18 17 33 -5 7 -14 33 -20 58 -7 26 -15 55 -18 65 -5 14 0 11
19 -8 14 -16 31 -28 37 -28 19 0 23 30 6 48 -9 9 -28 32 -42 50 -24 30 -25 36
-14 58 11 20 11 27 1 37 -11 9 -14 9 -18 0 -6 -15 -43 -17 -43 -3 0 13 -17 13
-26 -1z"/>
<path fill="#ffffff" stroke="none" d="M140 289 c0 -5 -4 -9 -10 -9 -5 0 -10
7 -10 16 0 8 5 12 10 9 6 -3 10 -10 10 -16z"/>
<path fill="#ffffff" stroke="none" d="M196 283 c-10 -10 -19 5 -10 18 6 11 8
11 12 0 2 -7 1 -15 -2 -18z"/>
<path fill="#ffffff" stroke="none" d="M180 264 c5 -21 34 -64 63 -95 19 -21
22 -39 7 -39 -10 0 -21 11 -45 45 -13 19 -14 19 -21 -12 -9 -45 -39 -45 -48 0
-7 31 -8 31 -21 12 -34 -48 -55 -59 -55 -30 0 8 4 15 9 15 8 0 17 12 60 80 5
8 12 23 15 33 7 23 29 17 36 -9z"/>
<path fill="#ffffff" stroke="none" d="M140 90 c0 -37 -19 -80 -37 -80 -15 0
-18 16 -4 24 5 4 12 24 16 46 8 47 25 54 25 10z"/>
<path fill="#ffffff" stroke="none" d="M170 110 c0 -5 -4 -10 -10 -10 -5 0
-10 5 -10 10 0 6 5 10 10 10 6 0 10 -4 10 -10z"/>
<path fill="#ffffff" stroke="none" d="M205 80 c4 -22 11 -42 16 -46 14 -8 11
-24 -4 -24 -18 0 -37 43 -37 80 0 44 17 37 25 -10z"/>
</g>
</svg>
