<?xml version="1.0" standalone="no"?>
<!DOCTYPE svg PUBLIC "-//W3C//DTD SVG 20010904//EN"
 "http://www.w3.org/TR/2001/REC-SVG-20010904/DTD/svg10.dtd">
<svg version="1.0" xmlns="http://www.w3.org/2000/svg"
 width="32.000000pt" height="32.000000pt" viewBox="0 0 32.000000 32.000000"
 preserveAspectRatio="xMidYMid meet">
<metadata>
Created by potrace 1.16, written by Peter Selinger 2001-2019
</metadata>
<g transform="translate(0.000000,32.000000) scale(0.100000,-0.100000)"
fill="#000000" stroke="none">
<path fill="#000000" stroke="none" d="M0 161 l0 -159 160 0 160 0 0 159 0
159 -58 0 c-53 0 -82 -11 -82 -32 0 -4 5 -8 10 -8 6 0 10 7 10 17 0 9 3 13 7
10 3 -4 0 -18 -7 -31 -11 -22 -10 -28 14 -58 14 -18 33 -41 42 -50 17 -18 13
-48 -6 -48 -6 0 -23 12 -37 28 -19 19 -24 22 -19 8 3 -10 11 -39 18 -65 6 -25
15 -50 19 -55 5 -6 9 -15 9 -20 0 -23 -29 32 -35 67 -4 20 -12 37 -17 37 -11
0 -7 -60 6 -95 5 -13 2 -11 -8 5 -8 14 -15 33 -16 43 0 9 -4 17 -10 17 -5 0
-10 -8 -10 -17 -1 -10 -8 -29 -16 -43 -10 -16 -13 -18 -8 -5 13 35 17 95 6 95
-5 0 -13 -17 -17 -37 -6 -35 -35 -90 -35 -67 0 5 4 14 9 19 4 6 13 31 19 56 7
26 15 55 18 65 5 14 0 11 -19 -8 -14 -16 -31 -28 -37 -28 -19 0 -23 30 -6 48
9 9 28 32 42 50 24 30 25 36 14 58 -7 13 -10 27 -7 31 4 3 7 -1 7 -10 0 -10 5
-17 10 -17 6 0 10 4 10 8 0 21 -29 32 -82 32 l-58 0 0 -159z"/>
<path fill="#000000" stroke="none" d="M140 310 c0 -5 9 -10 20 -10 11 0 20 5
20 10 0 6 -9 10 -20 10 -11 0 -20 -4 -20 -10z"/>
<path fill="#000000" stroke="none" d="M144 273 c-3 -10 -10 -25 -15 -33 -43
-68 -52 -80 -60 -80 -5 0 -9 -7 -9 -15 0 -29 21 -18 55 30 13 19 14 19 21 -12
9 -45 39 -45 48 0 7 31 8 31 21 12 24 -34 35 -45 45 -45 15 0 12 18 -7 39 -29
31 -58 74 -63 95 -7 26 -29 32 -36 9z"/>
<path fill="#000000" stroke="none" d="M150 110 c0 -5 5 -10 10 -10 6 0 10 5
10 10 0 6 -4 10 -10 10 -5 0 -10 -4 -10 -10z"/>
</g>
</svg>
