<?xml version="1.0" standalone="no"?>
<!DOCTYPE svg PUBLIC "-//W3C//DTD SVG 20010904//EN"
 "http://www.w3.org/TR/2001/REC-SVG-20010904/DTD/svg10.dtd">
<svg version="1.0" xmlns="http://www.w3.org/2000/svg"
 width="32.000000pt" height="32.000000pt" viewBox="0 0 32.000000 32.000000"
 preserveAspectRatio="xMidYMid meet">
<metadata>
Created by potrace 1.16, written by Peter Selinger 2001-2019
</metadata>
<g transform="translate(0.000000,32.000000) scale(0.100000,-0.100000)"
fill="#000000" stroke="none">
<path fill="#000000" stroke="none" d="M0 160 l0 -160 38 0 c43 0 58 17 68 80
4 23 10 36 14 30 4 -6 1 -28 -6 -48 -8 -26 -9 -41 -2 -49 13 -16 80 -17 95 -2
11 11 5 59 -8 59 -5 0 -6 7 -3 15 4 8 1 15 -5 15 -6 0 -11 -9 -11 -20 0 -11 3
-20 8 -20 4 0 7 -12 8 -28 1 -25 0 -24 -15 10 -9 21 -18 38 -21 38 -3 0 -12
-17 -21 -38 -15 -34 -16 -35 -15 -10 1 16 4 28 8 28 3 0 4 12 1 28 -2 15 -5
36 -6 48 -2 21 -2 21 -29 1 -14 -11 -31 -16 -37 -13 -17 11 -13 37 7 43 19 5
62 66 62 88 0 8 -4 17 -10 20 -5 3 -9 14 -9 23 1 15 2 15 6 0 4 -18 23 -25 23
-10 0 21 -29 32 -82 32 l-58 0 0 -160z"/>
<path fill="#000000" stroke="none" d="M140 310 c0 -5 9 -10 20 -10 11 0 20 5
20 10 0 6 -9 10 -20 10 -11 0 -20 -4 -20 -10z"/>
<path fill="#000000" stroke="none" d="M192 308 c-14 -14 -16 -28 -3 -28 5 0
12 8 14 18 4 15 5 15 6 0 0 -9 -3 -20 -9 -23 -5 -3 -10 -12 -10 -20 0 -22 43
-83 63 -88 19 -6 23 -32 6 -43 -6 -3 -23 2 -37 13 l-27 20 0 -23 c0 -12 3 -20
6 -18 7 4 24 -83 20 -99 -1 -5 3 -6 9 -2 5 3 10 1 10 -4 0 -6 18 -11 40 -11
l40 0 0 160 0 160 -58 0 c-32 0 -63 -5 -70 -12z"/>
<path fill="#000000" stroke="none" d="M143 245 c0 -6 8 -11 17 -11 9 0 17 5
17 11 0 6 -8 11 -17 11 -9 0 -17 -5 -17 -11z"/>
<path fill="#000000" stroke="none" d="M101 185 c-11 -19 -16 -35 -11 -35 5 0
12 9 15 20 3 11 11 20 16 20 6 0 7 5 3 12 -4 7 -3 8 4 4 6 -4 9 -13 5 -21 -3
-8 0 -15 6 -15 6 0 8 -6 6 -12 -7 -19 11 -42 25 -33 6 4 10 16 7 26 -3 11 -1
19 5 19 6 0 8 7 5 15 -4 8 -1 17 5 21 6 4 8 3 5 -3 -4 -6 5 -21 19 -34 l26
-24 -22 38 c-19 32 -27 37 -60 37 -33 0 -41 -5 -59 -35z"/>
</g>
</svg>
