<?xml version="1.0" standalone="no"?>
<!DOCTYPE svg PUBLIC "-//W3C//DTD SVG 20010904//EN"
 "http://www.w3.org/TR/2001/REC-SVG-20010904/DTD/svg10.dtd">
<svg version="1.0" xmlns="http://www.w3.org/2000/svg"
 width="32.000000pt" height="32.000000pt" viewBox="0 0 32.000000 32.000000"
 preserveAspectRatio="xMidYMid meet">
<metadata>
Created by potrace 1.16, written by Peter Selinger 2001-2019
</metadata>
<g transform="translate(0.000000,32.000000) scale(0.100000,-0.100000)"
fill="#000000" stroke="none">
<path fill="#000000" stroke="none" d="M114 309 c-3 -6 -1 -21 6 -34 11 -21
10 -28 -14 -57 -14 -18 -33 -41 -42 -50 -17 -18 -13 -48 6 -48 6 0 21 11 34
25 l23 25 1 -28 c0 -15 3 -39 5 -55 3 -15 1 -27 -4 -27 -6 0 -8 -4 -5 -9 9
-14 -3 -38 -19 -38 -8 0 -15 4 -15 9 0 4 5 8 10 8 6 0 10 10 10 23 0 13 4 27
10 33 5 5 5 15 1 23 -6 9 -11 1 -16 -26 -4 -21 -11 -43 -17 -50 -12 -15 -2
-33 17 -33 16 0 45 49 45 75 0 8 5 15 10 15 6 0 10 -7 10 -15 0 -26 29 -75 45
-75 19 0 29 18 17 33 -6 7 -13 29 -17 49 -4 21 -10 36 -14 34 -3 -2 -6 9 -7
25 l-1 29 23 -25 c13 -14 28 -25 34 -25 19 0 23 30 6 48 -9 9 -28 32 -42 50
-24 30 -25 36 -14 58 11 20 11 27 1 37 -11 9 -14 9 -18 0 -6 -15 -43 -17 -43
-3 0 13 -17 13 -26 -1z"/>
<path fill="#ffffff" stroke="none" d="M160 280 c7 0 19 8 26 18 12 16 13 16
14 0 0 -9 -9 -20 -20 -23 -28 -9 -60 3 -60 23 1 16 2 16 14 0 7 -10 19 -18 26
-18z"/>
<path fill="#ffffff" stroke="none" d="M177 244 c0 -7 -6 -10 -13 -7 -6 2 -15
-1 -19 -7 -5 -8 3 -11 26 -8 28 3 36 -2 52 -30 11 -18 16 -36 13 -40 -4 -3 -9
3 -12 14 -5 19 -46 53 -43 37 1 -5 1 -23 0 -40 -1 -26 -5 -33 -20 -33 -16 0
-20 8 -23 42 -3 40 -4 41 -21 24 -10 -10 -20 -16 -23 -13 -3 3 7 18 23 33 15
16 27 31 26 34 -1 3 6 6 16 6 10 0 18 -6 18 -12z"/>
<path fill="#ffffff" stroke="none" d="M100 166 c0 -3 -4 -8 -10 -11 -5 -3
-10 -1 -10 4 0 6 5 11 10 11 6 0 10 -2 10 -4z"/>
<path fill="#ffffff" stroke="none" d="M196 84 c-3 -8 -2 -12 4 -9 6 3 10 -5
10 -19 0 -14 5 -26 10 -26 6 0 10 -4 10 -8 0 -5 -7 -9 -15 -9 -16 0 -28 24
-19 38 3 5 0 9 -5 9 -6 0 -11 9 -11 20 0 11 5 20 11 20 6 0 8 -7 5 -16z"/>
</g>
</svg>
