<?xml version="1.0" standalone="no"?>
<!DOCTYPE svg PUBLIC "-//W3C//DTD SVG 20010904//EN"
 "http://www.w3.org/TR/2001/REC-SVG-20010904/DTD/svg10.dtd">
<svg version="1.0" xmlns="http://www.w3.org/2000/svg"
 width="32.000000pt" height="32.000000pt" viewBox="0 0 32.000000 32.000000"
 preserveAspectRatio="xMidYMid meet">
<metadata>
Created by potrace 1.16, written by Peter Selinger 2001-2019
</metadata>
<g transform="translate(0.000000,32.000000) scale(0.100000,-0.100000)"
fill="#000000" stroke="none">
<path fill="#000000" stroke="none" d="M113 304 c-3 -8 -1 -20 6 -27 6 -6 11
-17 11 -23 0 -21 -44 -82 -62 -87 -20 -6 -24 -32 -8 -42 6 -4 23 1 37 10 25
17 26 17 20 -6 -3 -13 -9 -41 -12 -62 -4 -20 -11 -40 -16 -43 -16 -10 -9 -24
12 -24 14 0 25 12 37 40 9 22 19 40 22 40 3 0 13 -18 22 -40 12 -28 23 -40 37
-40 21 0 28 14 12 24 -5 3 -12 23 -16 43 -3 21 -9 49 -12 62 -6 23 -5 23 20 6
14 -9 31 -14 37 -10 16 10 12 36 -7 42 -18 5 -63 65 -63 84 0 5 6 18 12 29 10
16 10 22 -1 32 -11 10 -14 10 -18 1 -6 -15 -43 -17 -43 -3 0 16 -20 12 -27 -6z"/>
</g>
</svg>
