<?xml version="1.0" standalone="no"?>
<!DOCTYPE svg PUBLIC "-//W3C//DTD SVG 20010904//EN"
 "http://www.w3.org/TR/2001/REC-SVG-20010904/DTD/svg10.dtd">
<svg version="1.0" xmlns="http://www.w3.org/2000/svg"
 width="32.000000pt" height="32.000000pt" viewBox="0 0 32.000000 32.000000"
 preserveAspectRatio="xMidYMid meet">
<metadata>
Created by potrace 1.16, written by Peter Selinger 2001-2019
</metadata>
<g transform="translate(0.000000,32.000000) scale(0.100000,-0.100000)"
fill="#000000" stroke="none">
<path fill="#000000" stroke="none" d="M113 304 c-3 -8 -1 -20 6 -27 6 -6 11
-17 11 -23 0 -21 -44 -82 -62 -87 -20 -6 -24 -32 -7 -43 6 -3 23 2 37 13 27
20 27 20 29 -1 1 -12 4 -33 6 -49 3 -15 1 -27 -4 -27 -6 0 -7 -4 -4 -10 3 -5
2 -17 -3 -26 -16 -28 -21 -1 -8 38 7 20 10 42 6 48 -4 7 -10 -8 -14 -34 -4
-25 -11 -48 -17 -51 -16 -11 -10 -25 12 -25 14 0 25 12 37 40 9 22 19 40 22
40 3 0 13 -18 22 -40 12 -28 23 -40 37 -40 22 0 28 14 12 25 -6 3 -13 26 -17
50 -3 25 -9 43 -13 41 -3 -2 -6 6 -6 18 l0 23 27 -20 c14 -11 31 -16 37 -13
17 11 13 37 -6 43 -18 5 -63 65 -63 84 0 5 6 18 12 29 10 16 10 22 -1 32 -11
10 -14 10 -18 1 -6 -15 -43 -17 -43 -3 0 16 -20 12 -27 -6z"/>
<path fill="#ffffff" stroke="none" d="M140 289 c0 -5 -4 -9 -10 -9 -5 0 -10
7 -10 16 0 8 5 12 10 9 6 -3 10 -10 10 -16z"/>
<path fill="#ffffff" stroke="none" d="M196 283 c-10 -10 -19 5 -10 18 6 11 8
11 12 0 2 -7 1 -15 -2 -18z"/>
<path fill="#ffffff" stroke="none" d="M177 245 c0 -6 -8 -11 -17 -11 -9 0
-17 5 -17 11 0 6 8 11 17 11 9 0 17 -5 17 -11z"/>
<path fill="#ffffff" stroke="none" d="M220 183 l22 -38 -26 24 c-14 13 -23
28 -19 34 3 6 1 7 -5 3 -6 -4 -9 -13 -5 -21 3 -8 1 -15 -5 -15 -6 0 -8 -8 -5
-19 3 -10 -1 -22 -7 -26 -14 -9 -32 14 -25 33 2 6 0 12 -6 12 -6 0 -9 7 -6 15
4 8 1 17 -5 21 -7 4 -8 3 -4 -4 4 -7 3 -12 -3 -12 -5 0 -13 -9 -16 -20 -3 -11
-10 -20 -15 -20 -5 0 0 16 11 35 18 30 26 35 59 35 33 0 41 -5 60 -37z"/>
<path fill="#ffffff" stroke="none" d="M196 85 c-3 -8 -1 -15 4 -15 6 0 10 -8
10 -18 0 -10 5 -23 10 -28 7 -7 6 -11 -4 -11 -17 0 -29 24 -20 38 3 5 0 9 -5
9 -6 0 -11 9 -11 20 0 11 5 20 11 20 6 0 9 -7 5 -15z"/>
</g>
</svg>
