<?xml version="1.0" standalone="no"?>
<!DOCTYPE svg PUBLIC "-//W3C//DTD SVG 20010904//EN"
 "http://www.w3.org/TR/2001/REC-SVG-20010904/DTD/svg10.dtd">
<svg version="1.0" xmlns="http://www.w3.org/2000/svg"
 width="32.000000pt" height="32.000000pt" viewBox="0 0 32.000000 32.000000"
 preserveAspectRatio="xMidYMid meet">
<metadata>
Created by potrace 1.16, written by Peter Selinger 2001-2019
</metadata>
<g transform="translate(0.000000,32.000000) scale(0.100000,-0.100000)"
fill="#000000" stroke="none">
<path fill="#000000" stroke="none" d="M0 160 l0 -160 46 0 c29 0 43 4 39 10
-4 6 -2 16 3 23 5 7 14 33 20 58 7 26 15 55 18 65 5 14 0 11 -19 -8 -14 -16
-31 -28 -37 -28 -19 0 -23 30 -6 48 9 9 28 32 42 50 24 29 25 36 14 57 -7 13
-9 28 -6 34 5 8 -12 11 -53 11 l-61 0 0 -160z"/>
<path fill="#000000" stroke="none" d="M140 310 c0 -5 9 -10 20 -10 11 0 20 5
20 10 0 6 -9 10 -20 10 -11 0 -20 -4 -20 -10z"/>
<path fill="#000000" stroke="none" d="M206 309 c3 -6 1 -21 -6 -34 -11 -21
-10 -28 14 -57 14 -18 33 -41 42 -50 17 -18 13 -48 -6 -48 -6 0 -23 12 -37 27
-19 20 -24 23 -19 9 3 -10 11 -39 18 -65 6 -25 15 -51 20 -58 5 -7 7 -17 3
-23 -4 -6 10 -10 39 -10 l46 0 0 160 0 160 -61 0 c-41 0 -58 -3 -53 -11z"/>
<path fill="#000000" stroke="none" d="M150 75 c0 -9 -7 -29 -15 -45 l-16 -30
41 0 41 0 -16 30 c-8 16 -15 36 -15 45 0 8 -4 15 -10 15 -5 0 -10 -7 -10 -15z"/>
</g>
</svg>
