<?xml version="1.0" standalone="no"?>
<!DOCTYPE svg PUBLIC "-//W3C//DTD SVG 20010904//EN"
 "http://www.w3.org/TR/2001/REC-SVG-20010904/DTD/svg10.dtd">
<svg version="1.0" xmlns="http://www.w3.org/2000/svg"
 width="32.000000pt" height="32.000000pt" viewBox="0 0 32.000000 32.000000"
 preserveAspectRatio="xMidYMid meet">
<metadata>
Created by potrace 1.16, written by Peter Selinger 2001-2019
</metadata>
<g transform="translate(0.000000,32.000000) scale(0.100000,-0.100000)"
fill="#000000" stroke="none">
<path fill="#000000" stroke="none" d="M114 309 c-3 -6 -1 -21 6 -34 11 -21
10 -28 -14 -57 -14 -18 -33 -41 -42 -50 -17 -18 -13 -48 6 -48 6 0 23 12 37
27 19 20 24 23 19 9 -3 -10 -11 -39 -18 -65 -6 -25 -15 -51 -20 -58 -12 -15
-2 -33 17 -33 16 0 45 49 45 75 0 8 5 15 10 15 6 0 10 -7 10 -15 0 -26 29 -75
45 -75 19 0 29 18 17 33 -5 7 -14 33 -20 58 -7 26 -15 55 -18 65 -5 14 0 11
19 -8 14 -16 31 -28 37 -28 19 0 23 30 6 48 -9 9 -28 32 -42 50 -24 30 -25 36
-14 58 11 20 11 27 1 37 -11 9 -14 9 -18 0 -6 -15 -43 -17 -43 -3 0 13 -17 13
-26 -1z"/>
<path fill="#ffffff" stroke="none" d="M140 289 c0 -5 -4 -9 -10 -9 -5 0 -10
7 -10 16 0 8 5 12 10 9 6 -3 10 -10 10 -16z"/>
<path fill="#ffffff" stroke="none" d="M196 283 c-10 -10 -19 5 -10 18 6 11 8
11 12 0 2 -7 1 -15 -2 -18z"/>
<path fill="#ffffff" stroke="none" d="M174 281 c4 -5 7 -21 8 -34 1 -14 6
-23 10 -21 4 3 17 -11 29 -30 12 -20 25 -36 30 -36 5 0 9 -7 9 -15 0 -17 -2
-18 -24 -9 -9 3 -13 10 -10 15 3 5 0 9 -6 9 -7 0 -10 6 -7 13 3 8 -1 14 -10
14 -8 0 -17 -13 -20 -29 -6 -32 -43 -41 -43 -10 0 10 -7 27 -15 38 -8 10 -15
15 -14 9 4 -29 -20 -65 -42 -65 -18 0 -9 29 11 35 11 4 18 10 15 14 -2 5 7 21
20 37 14 16 25 36 25 45 0 26 23 39 34 20z"/>
<path fill="#ffffff" stroke="none" d="M137 83 c-6 -50 -16 -73 -33 -73 -16 0
-17 4 -5 28 16 28 24 56 22 70 -1 6 3 12 9 12 7 0 9 -14 7 -37z"/>
<path fill="#ffffff" stroke="none" d="M196 95 c-2 -13 1 -22 5 -19 5 3 9 -4
9 -15 0 -11 5 -23 10 -26 14 -9 12 -25 -3 -25 -8 0 -19 11 -25 25 -14 31 -16
85 -3 85 5 0 8 -11 7 -25z"/>
</g>
</svg>
