<?xml version="1.0" standalone="no"?>
<!DOCTYPE svg PUBLIC "-//W3C//DTD SVG 20010904//EN"
 "http://www.w3.org/TR/2001/REC-SVG-20010904/DTD/svg10.dtd">
<svg version="1.0" xmlns="http://www.w3.org/2000/svg"
 width="32.000000pt" height="32.000000pt" viewBox="0 0 32.000000 32.000000"
 preserveAspectRatio="xMidYMid meet">
<metadata>
Created by potrace 1.16, written by Peter Selinger 2001-2019
</metadata>
<g transform="translate(0.000000,32.000000) scale(0.100000,-0.100000)"
fill="#000000" stroke="none">
<path fill="#000000" stroke="none" d="M147 283 c-13 -13 -7 -43 9 -43 14 0
15 2 3 17 -12 15 -12 16 3 10 12 -4 15 -2 11 9 -6 15 -16 18 -26 7z"/>
<path fill="#000000" stroke="none" d="M100 197 c-25 -40 -26 -60 -1 -28 13
17 29 24 59 25 34 2 42 -2 52 -22 6 -14 13 -22 17 -19 3 3 -3 21 -14 39 -15
26 -26 33 -56 35 -33 2 -40 -2 -57 -30z"/>
<path fill="#000000" stroke="none" d="M61 144 c0 -11 3 -14 6 -6 3 7 2 16 -1
19 -3 4 -6 -2 -5 -13z"/>
<path fill="#000000" stroke="none" d="M241 144 c0 -11 3 -14 6 -6 3 7 2 16
-1 19 -3 4 -6 -2 -5 -13z"/>
<path fill="#000000" stroke="none" d="M115 78 c-4 -18 -12 -39 -17 -45 -7 -9
-7 -13 0 -13 6 0 15 8 20 18 15 29 23 72 13 72 -5 0 -13 -15 -16 -32z"/>
<path fill="#000000" stroke="none" d="M181 87 c-1 -32 15 -67 30 -67 6 0 7 5
2 13 -4 6 -13 28 -19 47 -12 34 -12 34 -13 7z"/>
</g>
</svg>
