<?xml version="1.0" standalone="no"?>
<!DOCTYPE svg PUBLIC "-//W3C//DTD SVG 20010904//EN"
 "http://www.w3.org/TR/2001/REC-SVG-20010904/DTD/svg10.dtd">
<svg version="1.0" xmlns="http://www.w3.org/2000/svg"
 width="32.000000pt" height="32.000000pt" viewBox="0 0 32.000000 32.000000"
 preserveAspectRatio="xMidYMid meet">
<metadata>
Created by potrace 1.16, written by Peter Selinger 2001-2019
</metadata>
<g transform="translate(0.000000,32.000000) scale(0.100000,-0.100000)"
fill="#000000" stroke="none">
<path fill="#000000" stroke="none" d="M142 278 c-7 -7 -8 -17 -1 -30 7 -14 6
-18 -6 -18 -9 0 -25 -16 -36 -35 -12 -19 -25 -35 -30 -35 -5 0 -9 -8 -9 -17 0
-15 2 -16 10 -3 5 8 10 11 10 5 0 -5 12 4 25 20 l25 30 0 -27 c0 -30 13 -43
37 -34 12 5 13 9 3 21 -11 13 -10 14 5 8 14 -5 17 -3 12 10 -10 25 10 20 24
-5 19 -37 49 -51 49 -23 0 8 -4 15 -9 15 -5 0 -18 16 -30 35 -11 19 -27 35
-36 35 -12 0 -13 4 -6 18 9 18 -2 42 -19 42 -3 0 -11 -5 -18 -12z"/>
<path fill="#000000" stroke="none" d="M115 79 c-4 -22 -4 -43 0 -47 10 -10
25 20 25 50 0 43 -18 42 -25 -3z"/>
<path fill="#000000" stroke="none" d="M177 112 c-9 -13 12 -82 25 -82 7 0 8
13 5 37 -7 39 -21 61 -30 45z"/>
</g>
</svg>
