<?xml version="1.0" standalone="no"?>
<!DOCTYPE svg PUBLIC "-//W3C//DTD SVG 20010904//EN"
 "http://www.w3.org/TR/2001/REC-SVG-20010904/DTD/svg10.dtd">
<svg version="1.0" xmlns="http://www.w3.org/2000/svg"
 width="32.000000pt" height="32.000000pt" viewBox="0 0 32.000000 32.000000"
 preserveAspectRatio="xMidYMid meet">
<metadata>
Created by potrace 1.16, written by Peter Selinger 2001-2019
</metadata>
<g transform="translate(0.000000,32.000000) scale(0.100000,-0.100000)"
fill="#000000" stroke="none">
<path fill="#000000" stroke="none" d="M0 160 l0 -160 25 0 c24 0 25 2 25 66
0 43 4 63 10 59 6 -4 23 1 37 11 15 9 43 17 63 17 20 0 48 -8 63 -17 14 -10
31 -15 37 -11 6 4 10 -16 10 -59 0 -64 1 -66 25 -66 l25 0 0 160 0 160 -160 0
-160 0 0 -160z"/>
<path fill="#ffffff" stroke="none" d="M270 230 c0 -62 -2 -68 -19 -63 -10 2
-24 16 -30 29 -6 14 -17 27 -25 30 -8 3 -12 12 -9 20 3 8 2 21 -1 29 -5 13
-10 14 -27 4 -17 -9 -20 -8 -14 2 6 8 4 10 -4 4 -7 -4 -11 -17 -9 -30 3 -14
-2 -26 -14 -34 -12 -7 -17 -19 -14 -27 4 -10 2 -12 -6 -8 -7 5 -9 2 -6 -7 4
-10 -2 -14 -18 -14 -23 0 -24 3 -24 67 l0 67 110 0 110 0 0 -69z"/>
<path fill="#ffffff" stroke="none" d="M140 216 c0 -2 -7 -7 -16 -10 -8 -3
-12 -2 -9 4 6 10 25 14 25 6z"/>
<path fill="#ffffff" stroke="none" d="M182 185 c-3 -14 -45 -12 -49 2 -3 8 6
11 24 10 15 -1 27 -7 25 -12z"/>
<path fill="#000000" stroke="none" d="M115 118 c-4 -20 -4 -42 1 -49 4 -8 3
-10 -4 -5 -8 5 -12 0 -12 -13 0 -11 -5 -23 -10 -26 -14 -8 -3 -25 16 -25 9 0
23 18 32 40 19 45 27 49 35 18 10 -38 32 -62 52 -55 12 5 14 11 7 20 -5 6 -15
39 -22 72 l-12 59 -19 -23 -19 -23 -19 23 -19 24 -7 -37z"/>
<path fill="#ffffff" stroke="none" d="M127 98 c-3 -8 -6 -5 -6 6 -1 11 2 17
5 13 3 -3 4 -12 1 -19z"/>
<path fill="#ffffff" stroke="none" d="M187 98 c-3 -8 -6 -5 -6 6 -1 11 2 17
5 13 3 -3 4 -12 1 -19z"/>
</g>
</svg>
