<?xml version="1.0" standalone="no"?>
<!DOCTYPE svg PUBLIC "-//W3C//DTD SVG 20010904//EN"
 "http://www.w3.org/TR/2001/REC-SVG-20010904/DTD/svg10.dtd">
<svg version="1.0" xmlns="http://www.w3.org/2000/svg"
 width="32.000000pt" height="32.000000pt" viewBox="0 0 32.000000 32.000000"
 preserveAspectRatio="xMidYMid meet">
<metadata>
Created by potrace 1.16, written by Peter Selinger 2001-2019
</metadata>
<g transform="translate(0.000000,32.000000) scale(0.100000,-0.100000)"
fill="#000000" stroke="none">
<path fill="#000000" stroke="none" d="M0 160 l0 -160 160 0 160 0 0 160 0
160 -160 0 -160 0 0 -160z"/>
<path fill="#ffffff" stroke="none" d="M137 268 c-3 -8 -6 -5 -6 6 -1 11 2 17
5 13 3 -3 4 -12 1 -19z"/>
<path fill="#ffffff" stroke="none" d="M187 268 c-3 -8 -6 -5 -6 6 -1 11 2 17
5 13 3 -3 4 -12 1 -19z"/>
<path fill="#ffffff" stroke="none" d="M170 261 c0 -6 -4 -13 -10 -16 -5 -3
-10 1 -10 9 0 9 5 16 10 16 6 0 10 -4 10 -9z"/>
<path fill="#ffffff" stroke="none" d="M114 176 c-26 -40 -36 -31 -12 11 12
20 24 31 26 25 2 -6 -4 -22 -14 -36z"/>
<path fill="#ffffff" stroke="none" d="M224 151 c-7 -9 -24 13 -24 32 0 21 1
21 13 -3 8 -14 12 -27 11 -29z"/>
<path fill="#ffffff" stroke="none" d="M161 167 c-1 -12 -15 -9 -19 4 -3 6 1
10 8 8 6 -3 11 -8 11 -12z"/>
<path fill="#ffffff" stroke="none" d="M67 138 c-3 -8 -6 -5 -6 6 -1 11 2 17
5 13 3 -3 4 -12 1 -19z"/>
<path fill="#ffffff" stroke="none" d="M247 138 c-3 -8 -6 -5 -6 6 -1 11 2 17
5 13 3 -3 4 -12 1 -19z"/>
<path fill="#ffffff" stroke="none" d="M136 93 c-13 -54 -29 -83 -45 -83 -15
1 -15 1 0 10 9 5 20 27 24 47 7 40 13 53 22 53 3 0 2 -12 -1 -27z"/>
<path fill="#ffffff" stroke="none" d="M212 23 c6 -8 7 -13 1 -13 -15 0 -33
47 -32 83 1 29 2 27 11 -13 6 -25 15 -51 20 -57z"/>
</g>
</svg>
