<?xml version="1.0" standalone="no"?>
<!DOCTYPE svg PUBLIC "-//W3C//DTD SVG 20010904//EN"
 "http://www.w3.org/TR/2001/REC-SVG-20010904/DTD/svg10.dtd">
<svg version="1.0" xmlns="http://www.w3.org/2000/svg"
 width="32.000000pt" height="32.000000pt" viewBox="0 0 32.000000 32.000000"
 preserveAspectRatio="xMidYMid meet">
<metadata>
Created by potrace 1.16, written by Peter Selinger 2001-2019
</metadata>
<g transform="translate(0.000000,32.000000) scale(0.100000,-0.100000)"
fill="#000000" stroke="none">
<path fill="#000000" stroke="none" d="M134 267 c5 -19 -11 -46 -59 -99 -17
-20 -20 -38 -5 -38 10 0 21 11 45 45 14 19 14 19 15 -5 0 -14 5 -32 10 -40 14
-22 44 0 50 36 l6 29 13 -25 c14 -25 30 -40 44 -40 12 0 8 19 -8 38 -48 53
-64 80 -59 99 5 16 0 19 -26 19 -26 0 -31 -3 -26 -19z"/>
<path fill="#000000" stroke="none" d="M115 83 c-4 -21 -14 -46 -22 -55 -15
-17 -14 -18 4 -18 21 0 40 34 45 79 5 40 -19 35 -27 -6z"/>
<path fill="#000000" stroke="none" d="M176 111 c-5 -8 3 -45 19 -83 4 -10 16
-18 28 -18 18 0 19 1 4 18 -8 9 -18 34 -22 55 -7 36 -18 47 -29 28z"/>
</g>
</svg>
