<?xml version="1.0" standalone="no"?>
<!DOCTYPE svg PUBLIC "-//W3C//DTD SVG 20010904//EN"
 "http://www.w3.org/TR/2001/REC-SVG-20010904/DTD/svg10.dtd">
<svg version="1.0" xmlns="http://www.w3.org/2000/svg"
 width="32.000000pt" height="32.000000pt" viewBox="0 0 32.000000 32.000000"
 preserveAspectRatio="xMidYMid meet">
<metadata>
Created by potrace 1.16, written by Peter Selinger 2001-2019
</metadata>
<g transform="translate(0.000000,32.000000) scale(0.100000,-0.100000)"
fill="#000000" stroke="none">
<path fill="#000000" stroke="none" d="M0 160 l0 -160 160 0 160 0 0 160 0
160 -160 0 -160 0 0 -160z"/>
<path fill="#ffffff" stroke="none" d="M186 267 c-5 -19 11 -46 59 -99 16 -19
20 -38 8 -38 -14 0 -30 15 -44 40 l-13 25 -6 -29 c-6 -36 -36 -58 -50 -36 -5
8 -10 26 -10 40 -1 24 -1 24 -15 5 -24 -34 -35 -45 -45 -45 -15 0 -12 18 5 38
48 53 64 80 59 99 -5 16 0 19 26 19 26 0 31 -3 26 -19z"/>
<path fill="#ffffff" stroke="none" d="M142 89 c-5 -45 -24 -79 -45 -79 -18 0
-19 1 -4 18 8 9 18 34 22 55 8 41 32 46 27 6z"/>
<path fill="#ffffff" stroke="none" d="M205 83 c4 -21 14 -46 22 -55 15 -17
14 -18 -4 -18 -12 0 -24 8 -28 18 -16 38 -24 75 -19 83 11 19 22 8 29 -28z"/>
</g>
</svg>
