<?xml version="1.0" standalone="no"?>
<!DOCTYPE svg PUBLIC "-//W3C//DTD SVG 20010904//EN"
 "http://www.w3.org/TR/2001/REC-SVG-20010904/DTD/svg10.dtd">
<svg version="1.0" xmlns="http://www.w3.org/2000/svg"
 width="32.000000pt" height="32.000000pt" viewBox="0 0 32.000000 32.000000"
 preserveAspectRatio="xMidYMid meet">
<metadata>
Created by potrace 1.16, written by Peter Selinger 2001-2019
</metadata>
<g transform="translate(0.000000,32.000000) scale(0.100000,-0.100000)"
fill="#000000" stroke="none">
<path fill="#000000" stroke="none" d="M0 160 l0 -160 46 0 c29 0 43 4 39 10
-4 6 -2 16 3 23 5 7 13 28 17 47 4 19 12 40 17 47 18 22 -2 33 -22 13 -11 -11
-25 -20 -30 -20 -19 0 -23 31 -6 48 37 39 66 81 66 95 0 25 27 42 45 27 8 -7
15 -19 15 -27 0 -14 29 -56 66 -95 17 -17 13 -48 -6 -48 -5 0 -19 9 -29 19
-19 19 -20 19 -37 0 -9 -10 -24 -19 -33 -19 -11 0 -12 -3 -3 -12 9 -9 16 -7
31 6 21 20 26 16 36 -34 4 -19 12 -40 17 -47 5 -7 7 -17 3 -23 -4 -6 10 -10
39 -10 l46 0 0 160 0 160 -160 0 -160 0 0 -160z"/>
<path fill="#000000" stroke="none" d="M150 75 c0 -9 -7 -29 -15 -45 l-16 -30
41 0 41 0 -16 30 c-8 16 -15 36 -15 45 0 8 -4 15 -10 15 -5 0 -10 -7 -10 -15z"/>
</g>
</svg>
