<?xml version="1.0" standalone="no"?>
<!DOCTYPE svg PUBLIC "-//W3C//DTD SVG 20010904//EN"
 "http://www.w3.org/TR/2001/REC-SVG-20010904/DTD/svg10.dtd">
<svg version="1.0" xmlns="http://www.w3.org/2000/svg"
 width="32.000000pt" height="32.000000pt" viewBox="0 0 32.000000 32.000000"
 preserveAspectRatio="xMidYMid meet">
<metadata>
Created by potrace 1.16, written by Peter Selinger 2001-2019
</metadata>
<g transform="translate(0.000000,32.000000) scale(0.100000,-0.100000)"
fill="#000000" stroke="none">
<path fill="#000000" stroke="none" d="M0 160 l0 -160 160 0 160 0 0 160 0
160 -160 0 -160 0 0 -160z"/>
<path fill="#ffffff" stroke="none" d="M175 257 c-1 -17 6 -29 16 -32 9 -3 21
-17 27 -30 7 -14 19 -28 27 -31 17 -7 21 -34 5 -34 -6 0 -22 11 -35 24 l-25
25 -12 -27 c-15 -32 -43 -36 -44 -7 -2 34 -3 35 -29 10 -13 -14 -29 -25 -35
-25 -16 0 -12 27 5 34 8 3 20 17 27 31 6 13 19 27 29 30 11 4 16 12 12 21 -7
20 5 46 20 41 6 -2 12 -16 12 -30z"/>
<path fill="#ffffff" stroke="none" d="M142 89 c-4 -40 -24 -79 -39 -79 -12 0
-13 3 -5 13 6 7 14 32 18 55 7 45 31 54 26 11z"/>
<path fill="#ffffff" stroke="none" d="M204 78 c4 -23 12 -48 18 -55 8 -10 7
-13 -5 -13 -8 0 -18 8 -22 18 -16 38 -24 75 -19 83 11 19 22 7 28 -33z"/>
</g>
</svg>
