<?xml version="1.0" standalone="no"?>
<!DOCTYPE svg PUBLIC "-//W3C//DTD SVG 20010904//EN"
 "http://www.w3.org/TR/2001/REC-SVG-20010904/DTD/svg10.dtd">
<svg version="1.0" xmlns="http://www.w3.org/2000/svg"
 width="32.000000pt" height="32.000000pt" viewBox="0 0 32.000000 32.000000"
 preserveAspectRatio="xMidYMid meet">
<metadata>
Created by potrace 1.16, written by Peter Selinger 2001-2019
</metadata>
<g transform="translate(0.000000,32.000000) scale(0.100000,-0.100000)"
fill="#000000" stroke="none">
<path fill="#000000" stroke="none" d="M137 292 c-10 -10 -17 -24 -17 -31 0
-7 -19 -36 -42 -63 -33 -40 -39 -53 -31 -67 6 -9 21 -15 33 -13 21 2 22 -1 15
-35 -3 -21 -11 -42 -16 -48 -12 -12 -12 -35 1 -35 5 0 6 7 3 17 -4 11 -3 14 5
9 7 -4 20 -2 29 3 10 6 15 11 10 11 -4 0 -1 13 7 29 14 26 14 30 1 41 -8 7
-15 21 -15 31 0 18 -1 18 -20 -1 -24 -24 -42 -26 -34 -5 4 8 10 13 15 10 4 -3
13 2 18 12 26 46 29 47 45 34 12 -10 19 -11 30 -2 10 9 16 8 26 -3 6 -9 9 -20
5 -26 -8 -13 13 -109 27 -127 5 -7 7 -17 3 -23 -3 -5 -1 -10 4 -10 13 0 14 23
2 35 -5 6 -13 27 -16 48 -7 34 -6 37 15 35 12 -2 27 4 33 13 8 14 2 27 -31 67
-23 27 -42 56 -42 64 0 14 -30 48 -42 48 -3 0 -12 -8 -21 -18z"/>
<path fill="#ffffff" stroke="none" d="M178 288 c7 -7 12 -18 12 -26 0 -13 30
-56 66 -94 21 -22 13 -43 -17 -43 -18 -1 -25 5 -26 20 -1 11 1 14 4 7 3 -6 9
-10 14 -6 11 6 -12 53 -39 77 -28 26 -69 13 -94 -29 -11 -19 -24 -34 -29 -34
-5 0 -9 -8 -10 -17 0 -12 -2 -13 -6 -5 -3 7 2 21 11 30 36 38 66 81 66 94 0
14 19 38 30 38 3 0 11 -5 18 -12z"/>
<path fill="#ffffff" stroke="none" d="M115 81 c-4 -20 -11 -40 -15 -45 -5 -5
-5 8 1 28 6 21 8 44 5 52 -4 9 -2 12 5 8 7 -4 8 -20 4 -43z"/>
<path fill="#000000" stroke="none" d="M145 271 c-7 -12 12 -24 25 -16 11 7 4
25 -10 25 -5 0 -11 -4 -15 -9z"/>
<path fill="#000000" stroke="none" d="M251 144 c0 -11 3 -14 6 -6 3 7 2 16
-1 19 -3 4 -6 -2 -5 -13z"/>
<path fill="#000000" stroke="none" d="M133 167 c4 -13 46 -16 50 -3 1 5 -11
10 -26 12 -18 2 -27 -1 -24 -9z"/>
<path fill="#000000" stroke="none" d="M177 103 c-7 -12 17 -76 30 -80 9 -3 9
4 2 29 -6 18 -11 39 -12 46 0 13 -13 16 -20 5z"/>
</g>
</svg>
