<?xml version="1.0" standalone="no"?>
<!DOCTYPE svg PUBLIC "-//W3C//DTD SVG 20010904//EN"
 "http://www.w3.org/TR/2001/REC-SVG-20010904/DTD/svg10.dtd">
<svg version="1.0" xmlns="http://www.w3.org/2000/svg"
 width="32.000000pt" height="32.000000pt" viewBox="0 0 32.000000 32.000000"
 preserveAspectRatio="xMidYMid meet">
<metadata>
Created by potrace 1.16, written by Peter Selinger 2001-2019
</metadata>
<g transform="translate(0.000000,32.000000) scale(0.100000,-0.100000)"
fill="#000000" stroke="none">
<path fill="#000000" stroke="none" d="M0 160 l0 -160 33 0 c38 0 51 17 66 87
8 40 8 42 -11 32 -38 -20 -65 27 -30 53 23 18 62 74 62 91 0 8 9 22 20 32 19
17 21 17 40 0 11 -10 20 -24 20 -32 0 -17 39 -73 62 -91 35 -26 8 -73 -30 -53
-19 10 -19 8 -11 -32 15 -70 28 -87 66 -87 l33 0 0 160 0 160 -160 0 -160 0 0
-160z"/>
<path fill="#000000" stroke="none" d="M120 143 c0 -5 9 -18 20 -28 20 -18 21
-18 42 3 27 27 16 42 -13 16 -20 -18 -21 -18 -35 1 -8 10 -14 14 -14 8z"/>
<path fill="#000000" stroke="none" d="M150 75 c0 -9 -7 -29 -15 -45 l-16 -30
41 0 41 0 -16 30 c-8 16 -15 36 -15 45 0 8 -4 15 -10 15 -5 0 -10 -7 -10 -15z"/>
</g>
</svg>
