<?xml version="1.0" standalone="no"?>
<!DOCTYPE svg PUBLIC "-//W3C//DTD SVG 20010904//EN"
 "http://www.w3.org/TR/2001/REC-SVG-20010904/DTD/svg10.dtd">
<svg version="1.0" xmlns="http://www.w3.org/2000/svg"
 width="32.000000pt" height="32.000000pt" viewBox="0 0 32.000000 32.000000"
 preserveAspectRatio="xMidYMid meet">
<metadata>
Created by potrace 1.16, written by Peter Selinger 2001-2019
</metadata>
<g transform="translate(0.000000,32.000000) scale(0.100000,-0.100000)"
fill="#000000" stroke="none">
<path fill="#000000" stroke="none" d="M0 160 l0 -160 160 0 160 0 0 160 0
160 -160 0 -160 0 0 -160z"/>
<path fill="#ffffff" stroke="none" d="M175 257 c-1 -18 6 -29 18 -33 14 -5
16 -9 6 -20 -10 -12 -9 -13 6 -8 11 5 16 4 12 -3 -3 -5 5 -16 18 -23 14 -7 25
-19 25 -27 0 -19 -12 -16 -42 12 -16 14 -30 21 -33 15 -4 -6 -12 -7 -18 -3 -7
4 -7 0 1 -10 15 -18 8 -37 -13 -37 -20 0 -29 19 -16 34 21 25 -14 25 -38 0
-24 -25 -41 -31 -41 -14 0 13 53 65 63 62 5 -1 6 2 2 8 -3 5 0 13 9 16 8 3 12
12 9 20 -7 20 5 46 20 41 6 -2 12 -16 12 -30z"/>
<path fill="#ffffff" stroke="none" d="M144 111 c11 -17 -25 -101 -42 -101
-15 1 -15 2 -2 13 14 11 20 34 21 80 0 18 14 23 23 8z"/>
<path fill="#ffffff" stroke="none" d="M200 95 c0 -38 0 -39 16 -62 11 -18 12
-23 1 -23 -7 0 -21 21 -30 48 -21 57 -21 62 -2 62 9 0 15 -9 15 -25z"/>
</g>
</svg>
