<?xml version="1.0" standalone="no"?>
<!DOCTYPE svg PUBLIC "-//W3C//DTD SVG 20010904//EN"
 "http://www.w3.org/TR/2001/REC-SVG-20010904/DTD/svg10.dtd">
<svg version="1.0" xmlns="http://www.w3.org/2000/svg"
 width="32.000000pt" height="32.000000pt" viewBox="0 0 32.000000 32.000000"
 preserveAspectRatio="xMidYMid meet">
<metadata>
Created by potrace 1.16, written by Peter Selinger 2001-2019
</metadata>
<g transform="translate(0.000000,32.000000) scale(0.100000,-0.100000)"
fill="#000000" stroke="none">
<path fill="#000000" stroke="none" d="M0 160 l0 -160 160 0 160 0 0 160 0
160 -160 0 -160 0 0 -160z"/>
<path fill="#ffffff" stroke="none" d="M171 247 c-5 -5 -14 -6 -19 -3 -9 5 -9
15 -2 46 0 3 7 -4 15 -14 9 -12 11 -24 6 -29z"/>
<path fill="#ffffff" stroke="none" d="M213 192 c11 -18 17 -36 14 -39 -4 -3
-11 5 -17 19 -10 20 -18 24 -52 22 -30 -1 -46 -8 -59 -25 -25 -32 -24 -12 1
28 17 28 24 32 57 30 30 -2 41 -9 56 -35z"/>
<path fill="#ffffff" stroke="none" d="M67 138 c-3 -8 -6 -5 -6 6 -1 11 2 17
5 13 3 -3 4 -12 1 -19z"/>
<path fill="#ffffff" stroke="none" d="M247 138 c-3 -8 -6 -5 -6 6 -1 11 2 17
5 13 3 -3 4 -12 1 -19z"/>
<path fill="#ffffff" stroke="none" d="M164 112 c13 -21 13 -62 1 -72 -17 -14
-53 -21 -59 -11 -7 11 43 33 57 24 7 -3 3 4 -8 17 -12 14 -14 20 -5 15 12 -6
13 -5 3 6 -7 7 -13 17 -13 21 0 10 17 10 24 0z"/>
<path fill="#ffffff" stroke="none" d="M86 66 c0 -14 -5 -21 -9 -17 -4 4 -5
15 -1 24 9 24 12 21 10 -7z"/>
</g>
</svg>
