<?xml version="1.0" standalone="no"?>
<!DOCTYPE svg PUBLIC "-//W3C//DTD SVG 20010904//EN"
 "http://www.w3.org/TR/2001/REC-SVG-20010904/DTD/svg10.dtd">
<svg version="1.0" xmlns="http://www.w3.org/2000/svg"
 width="32.000000pt" height="32.000000pt" viewBox="0 0 32.000000 32.000000"
 preserveAspectRatio="xMidYMid meet">
<metadata>
Created by potrace 1.16, written by Peter Selinger 2001-2019
</metadata>
<g transform="translate(0.000000,32.000000) scale(0.100000,-0.100000)"
fill="#000000" stroke="none">
<path fill="#000000" stroke="none" d="M144 276 c-3 -9 -4 -23 0 -31 3 -9 0
-15 -10 -15 -8 0 -24 -16 -35 -35 -12 -19 -25 -35 -30 -35 -5 0 -9 -7 -9 -15
0 -29 21 -18 55 30 14 20 14 20 15 -2 0 -27 10 -34 38 -26 14 3 22 13 22 27 1
21 1 21 15 1 34 -48 55 -59 55 -30 0 8 -4 15 -9 15 -5 0 -18 16 -30 35 -11 19
-26 35 -34 35 -7 0 -13 11 -12 27 0 29 -22 43 -31 19z"/>
<path fill="#000000" stroke="none" d="M115 81 c-4 -23 -11 -43 -16 -47 -14
-8 -11 -24 5 -24 25 0 52 99 29 107 -6 2 -14 -12 -18 -36z"/>
<path fill="#000000" stroke="none" d="M176 111 c-5 -8 3 -45 19 -83 4 -10 13
-18 21 -18 16 0 19 16 5 24 -5 4 -12 24 -16 46 -6 38 -18 50 -29 31z"/>
</g>
</svg>
