<?xml version="1.0" standalone="no"?>
<!DOCTYPE svg PUBLIC "-//W3C//DTD SVG 20010904//EN"
 "http://www.w3.org/TR/2001/REC-SVG-20010904/DTD/svg10.dtd">
<svg version="1.0" xmlns="http://www.w3.org/2000/svg"
 width="32.000000pt" height="32.000000pt" viewBox="0 0 32.000000 32.000000"
 preserveAspectRatio="xMidYMid meet">
<metadata>
Created by potrace 1.16, written by Peter Selinger 2001-2019
</metadata>
<g transform="translate(0.000000,32.000000) scale(0.100000,-0.100000)"
fill="#000000" stroke="none">
<path fill="#000000" stroke="none" d="M144 276 c-3 -8 -2 -22 3 -31 9 -15 11
-15 22 -1 11 14 11 16 -5 17 -11 0 -14 3 -6 6 15 6 16 23 2 23 -6 0 -13 -6
-16 -14z"/>
<path fill="#000000" stroke="none" d="M101 185 c-11 -19 -16 -35 -11 -35 5 0
14 9 20 20 15 29 80 28 98 -1 20 -32 26 -15 7 20 -13 27 -21 31 -54 31 -34 0
-42 -5 -60 -35z"/>
<path fill="#000000" stroke="none" d="M149 176 c-1 -3 -2 -9 -3 -13 -1 -5 -7
-17 -13 -28 -5 -11 -13 -38 -17 -60 l-7 -40 16 29 c8 15 15 39 15 52 0 13 4
24 9 24 13 0 22 28 11 35 -6 4 -11 4 -11 1z"/>
<path fill="#000000" stroke="none" d="M61 144 c0 -11 3 -14 6 -6 3 7 2 16 -1
19 -3 4 -6 -2 -5 -13z"/>
<path fill="#000000" stroke="none" d="M241 144 c0 -11 3 -14 6 -6 3 7 2 16
-1 19 -3 4 -6 -2 -5 -13z"/>
<path fill="#000000" stroke="none" d="M178 134 c-10 -9 19 -96 38 -113 14
-12 15 -13 7 -1 -6 8 -14 33 -18 55 -9 47 -19 68 -27 59z"/>
</g>
</svg>
