<?xml version="1.0" standalone="no"?>
<!DOCTYPE svg PUBLIC "-//W3C//DTD SVG 20010904//EN"
 "http://www.w3.org/TR/2001/REC-SVG-20010904/DTD/svg10.dtd">
<svg version="1.0" xmlns="http://www.w3.org/2000/svg"
 width="32.000000pt" height="32.000000pt" viewBox="0 0 32.000000 32.000000"
 preserveAspectRatio="xMidYMid meet">
<metadata>
Created by potrace 1.16, written by Peter Selinger 2001-2019
</metadata>
<g transform="translate(0.000000,32.000000) scale(0.100000,-0.100000)"
fill="#000000" stroke="none">
<path fill="#000000" stroke="none" d="M113 215 c-10 -15 -26 -35 -35 -46 -10
-10 -18 -23 -18 -29 0 -17 18 -11 40 12 l21 23 6 -23 c8 -31 58 -31 66 0 l6
23 21 -23 c24 -26 40 -28 40 -7 0 8 -4 15 -10 15 -5 0 -17 14 -25 30 -14 26
-18 29 -36 19 -25 -13 -81 -3 -59 11 8 5 12 12 8 15 -3 4 -14 -6 -25 -20z"/>
<path fill="#000000" stroke="none" d="M90 22 c0 -5 7 -9 15 -9 8 0 15 4 15 9
0 4 -7 8 -15 8 -8 0 -15 -4 -15 -8z"/>
<path fill="#000000" stroke="none" d="M200 22 c0 -5 7 -9 15 -9 8 0 15 4 15
9 0 4 -7 8 -15 8 -8 0 -15 -4 -15 -8z"/>
</g>
</svg>
