<?xml version="1.0" standalone="no"?>
<!DOCTYPE svg PUBLIC "-//W3C//DTD SVG 20010904//EN"
 "http://www.w3.org/TR/2001/REC-SVG-20010904/DTD/svg10.dtd">
<svg version="1.0" xmlns="http://www.w3.org/2000/svg"
 width="32.000000pt" height="32.000000pt" viewBox="0 0 32.000000 32.000000"
 preserveAspectRatio="xMidYMid meet">
<metadata>
Created by potrace 1.16, written by Peter Selinger 2001-2019
</metadata>
<g transform="translate(0.000000,32.000000) scale(0.100000,-0.100000)"
fill="#000000" stroke="none">
<path fill="#000000" stroke="none" d="M92 185 c-6 -14 -16 -25 -22 -25 -5 0
-10 -7 -10 -15 0 -23 16 -18 37 11 18 24 21 25 35 10 9 -9 27 -16 40 -16 18 0
20 2 8 10 -13 8 -13 10 2 10 9 0 19 6 21 13 4 8 6 6 6 -4 1 -16 31 -49 44 -49
4 0 7 7 7 15 0 8 -7 15 -15 15 -8 0 -15 4 -15 8 0 5 -6 16 -13 26 -12 16 -16
17 -35 5 -18 -11 -26 -11 -42 -1 -28 17 -35 15 -48 -13z"/>
<path fill="#000000" stroke="none" d="M115 82 c-4 -20 -12 -43 -17 -50 -19
-22 -1 -25 21 -3 21 21 29 75 12 85 -5 3 -12 -11 -16 -32z"/>
<path fill="#000000" stroke="none" d="M176 112 c-10 -16 15 -82 34 -92 20
-11 30 3 11 14 -5 3 -12 21 -15 41 -7 35 -20 52 -30 37z"/>
</g>
</svg>
