<?xml version="1.0" standalone="no"?>
<!DOCTYPE svg PUBLIC "-//W3C//DTD SVG 20010904//EN"
 "http://www.w3.org/TR/2001/REC-SVG-20010904/DTD/svg10.dtd">
<svg version="1.0" xmlns="http://www.w3.org/2000/svg"
 width="32.000000pt" height="32.000000pt" viewBox="0 0 32.000000 32.000000"
 preserveAspectRatio="xMidYMid meet">
<metadata>
Created by potrace 1.16, written by Peter Selinger 2001-2019
</metadata>
<g transform="translate(0.000000,32.000000) scale(0.100000,-0.100000)"
fill="#000000" stroke="none">
<path fill="#000000" stroke="none" d="M0 160 l0 -160 160 0 160 0 0 160 0
160 -160 0 -160 0 0 -160z"/>
<path fill="#ffffff" stroke="none" d="M138 198 c17 -17 15 -30 -6 -26 -10 1
-29 -7 -42 -20 -30 -28 -40 -12 -11 17 12 12 21 26 21 31 0 14 23 13 38 -2z"/>
<path fill="#ffffff" stroke="none" d="M221 188 c7 -13 18 -27 26 -31 7 -5 11
-13 7 -18 -9 -15 -44 20 -44 44 0 19 -1 20 -20 2 -11 -10 -23 -15 -27 -12 -6
7 25 36 39 37 4 0 13 -10 19 -22z"/>
<path fill="#ffffff" stroke="none" d="M180 144 c0 -2 -12 -4 -26 -4 -14 0
-23 4 -20 9 6 8 46 4 46 -5z"/>
</g>
</svg>
