<?xml version="1.0" standalone="no"?>
<!DOCTYPE svg PUBLIC "-//W3C//DTD SVG 20010904//EN"
 "http://www.w3.org/TR/2001/REC-SVG-20010904/DTD/svg10.dtd">
<svg version="1.0" xmlns="http://www.w3.org/2000/svg"
 width="32.000000pt" height="32.000000pt" viewBox="0 0 32.000000 32.000000"
 preserveAspectRatio="xMidYMid meet">
<metadata>
Created by potrace 1.16, written by Peter Selinger 2001-2019
</metadata>
<g transform="translate(0.000000,32.000000) scale(0.100000,-0.100000)"
fill="#000000" stroke="none">
<path fill="#000000" stroke="none" d="M0 160 l0 -160 25 0 25 0 0 150 0 150
110 0 110 0 0 -150 0 -150 25 0 25 0 0 160 0 160 -160 0 -160 0 0 -160z"/>
<path fill="#000000" stroke="none" d="M145 280 c-3 -5 3 -10 15 -10 12 0 18
5 15 10 -3 6 -10 10 -15 10 -5 0 -12 -4 -15 -10z"/>
<path fill="#000000" stroke="none" d="M148 253 c6 -2 18 -2 25 0 6 3 1 5 -13
5 -14 0 -19 -2 -12 -5z"/>
<path fill="#000000" stroke="none" d="M112 214 c-7 -8 -9 -14 -5 -14 4 0 1
-5 -7 -10 -13 -9 -13 -10 0 -10 12 0 12 -2 1 -9 -9 -6 -10 -11 -2 -15 10 -7
16 6 12 27 -1 5 12 6 29 2 19 -4 36 -2 45 5 12 10 17 6 28 -21 11 -27 14 -30
20 -16 5 12 3 16 -5 11 -7 -5 -9 -2 -5 8 3 9 -2 23 -12 33 -17 14 -20 14 -34
0 -17 -16 -42 -21 -33 -6 11 17 -18 30 -32 15z"/>
<path fill="#000000" stroke="none" d="M130 160 c0 -5 8 -14 18 -19 15 -9 15
-10 1 -11 -9 0 -19 -6 -22 -14 -4 -10 5 -13 34 -13 27 0 37 3 30 10 -5 5 -7
16 -4 23 3 9 -2 14 -13 15 -18 0 -17 1 1 9 17 7 15 9 -12 9 -18 1 -33 -3 -33
-9z"/>
<path fill="#000000" stroke="none" d="M120 80 c0 -5 5 -10 10 -10 6 0 10 5
10 10 0 6 -4 10 -10 10 -5 0 -10 -4 -10 -10z"/>
<path fill="#000000" stroke="none" d="M180 80 c0 -5 5 -10 10 -10 6 0 10 5
10 10 0 6 -4 10 -10 10 -5 0 -10 -4 -10 -10z"/>
<path fill="#000000" stroke="none" d="M106 45 c-3 -9 0 -15 10 -15 8 0 13 4
10 9 -4 5 0 12 6 14 8 4 7 6 -3 6 -9 1 -19 -6 -23 -14z"/>
<path fill="#000000" stroke="none" d="M186 45 c4 -8 14 -15 23 -14 10 0 11 2
3 6 -6 2 -10 9 -6 14 3 5 -2 9 -10 9 -10 0 -13 -6 -10 -15z"/>
</g>
</svg>
