<?xml version="1.0" standalone="no"?>
<!DOCTYPE svg PUBLIC "-//W3C//DTD SVG 20010904//EN"
 "http://www.w3.org/TR/2001/REC-SVG-20010904/DTD/svg10.dtd">
<svg version="1.0" xmlns="http://www.w3.org/2000/svg"
 width="32.000000pt" height="32.000000pt" viewBox="0 0 32.000000 32.000000"
 preserveAspectRatio="xMidYMid meet">
<metadata>
Created by potrace 1.16, written by Peter Selinger 2001-2019
</metadata>
<g transform="translate(0.000000,32.000000) scale(0.100000,-0.100000)"
fill="#000000" stroke="none">
<path fill="#000000" stroke="none" d="M0 160 l0 -160 25 0 25 0 0 150 0 150
110 0 110 0 0 -150 0 -150 25 0 25 0 0 160 0 160 -160 0 -160 0 0 -160z"/>
<path fill="#000000" stroke="none" d="M144 273 c-3 -10 -10 -25 -15 -33 -43
-68 -52 -80 -60 -80 -5 0 -9 -7 -9 -15 0 -20 12 -19 44 6 22 17 26 18 26 4 0
-26 -22 -109 -31 -120 -13 -14 -11 -25 5 -25 12 0 22 19 40 73 7 22 25 22 32
0 18 -54 28 -73 40 -73 16 0 18 11 5 25 -9 11 -31 94 -31 120 0 14 4 13 26 -4
43 -34 62 -21 27 18 -29 31 -58 74 -63 95 -7 26 -29 32 -36 9z"/>
</g>
</svg>
