<?xml version="1.0" standalone="no"?>
<!DOCTYPE svg PUBLIC "-//W3C//DTD SVG 20010904//EN"
 "http://www.w3.org/TR/2001/REC-SVG-20010904/DTD/svg10.dtd">
<svg version="1.0" xmlns="http://www.w3.org/2000/svg"
 width="32.000000pt" height="32.000000pt" viewBox="0 0 32.000000 32.000000"
 preserveAspectRatio="xMidYMid meet">
<metadata>
Created by potrace 1.16, written by Peter Selinger 2001-2019
</metadata>
<g transform="translate(0.000000,32.000000) scale(0.100000,-0.100000)"
fill="#000000" stroke="none">
<path fill="#000000" stroke="none" d="M50 150 l0 -150 110 0 110 0 0 150 0
150 -110 0 -110 0 0 -150z"/>
<path fill="#ffffff" stroke="none" d="M175 280 c3 -5 -3 -10 -15 -10 -12 0
-18 5 -15 10 3 6 10 10 15 10 5 0 12 -4 15 -10z"/>
<path fill="#ffffff" stroke="none" d="M173 253 c-7 -2 -19 -2 -25 0 -7 3 -2
5 12 5 14 0 19 -2 13 -5z"/>
<path fill="#ffffff" stroke="none" d="M144 199 c-9 -15 16 -10 33 6 14 14 17
14 34 0 10 -10 15 -24 12 -33 -4 -10 -2 -13 5 -8 8 5 10 1 5 -11 -6 -14 -9
-11 -20 16 -11 27 -16 31 -28 21 -9 -7 -26 -9 -45 -5 -17 4 -30 3 -29 -2 4
-21 -2 -34 -12 -27 -8 4 -7 9 2 15 11 7 11 9 -1 9 -13 0 -13 1 0 10 8 5 11 10
7 10 -4 0 -2 6 5 14 14 15 43 2 32 -15z"/>
<path fill="#ffffff" stroke="none" d="M175 160 c-18 -8 -19 -9 -1 -9 11 -1
16 -6 13 -15 -3 -7 -1 -18 4 -23 7 -7 -3 -10 -30 -10 -29 0 -38 3 -34 13 3 8
13 14 22 14 14 1 14 2 -1 11 -28 16 -21 29 15 28 27 0 29 -2 12 -9z"/>
<path fill="#ffffff" stroke="none" d="M140 80 c0 -5 -4 -10 -10 -10 -5 0 -10
5 -10 10 0 6 5 10 10 10 6 0 10 -4 10 -10z"/>
<path fill="#ffffff" stroke="none" d="M200 80 c0 -5 -4 -10 -10 -10 -5 0 -10
5 -10 10 0 6 5 10 10 10 6 0 10 -4 10 -10z"/>
<path fill="#ffffff" stroke="none" d="M132 53 c-6 -2 -10 -9 -6 -14 3 -5 -2
-9 -10 -9 -10 0 -13 6 -10 15 4 8 14 15 23 14 10 0 11 -2 3 -6z"/>
<path fill="#ffffff" stroke="none" d="M206 51 c-4 -5 0 -12 6 -14 8 -4 7 -6
-3 -6 -9 -1 -19 6 -23 14 -3 9 0 15 10 15 8 0 13 -4 10 -9z"/>
</g>
</svg>
