<?xml version="1.0" standalone="no"?>
<!DOCTYPE svg PUBLIC "-//W3C//DTD SVG 20010904//EN"
 "http://www.w3.org/TR/2001/REC-SVG-20010904/DTD/svg10.dtd">
<svg version="1.0" xmlns="http://www.w3.org/2000/svg"
 width="32.000000pt" height="32.000000pt" viewBox="0 0 32.000000 32.000000"
 preserveAspectRatio="xMidYMid meet">
<metadata>
Created by potrace 1.16, written by Peter Selinger 2001-2019
</metadata>
<g transform="translate(0.000000,32.000000) scale(0.100000,-0.100000)"
fill="#000000" stroke="none">
<path fill="#000000" stroke="none" d="M134 276 c-3 -9 -4 -23 0 -31 3 -9 0
-15 -10 -15 -8 0 -24 -16 -35 -35 -12 -19 -25 -35 -30 -35 -5 0 -9 -8 -9 -17
0 -15 2 -16 10 -3 5 8 10 11 10 5 0 -5 12 4 25 20 20 24 25 26 25 12 0 -23 26
-50 40 -42 8 5 7 11 -1 21 -10 12 -9 13 6 7 14 -5 17 -3 12 10 -10 25 10 20
24 -5 19 -37 49 -51 49 -23 0 8 -4 15 -9 15 -5 0 -18 16 -30 35 -11 19 -26 35
-34 35 -7 0 -13 11 -12 27 0 29 -22 43 -31 19z"/>
<path fill="#000000" stroke="none" d="M124 125 c5 -11 9 -25 9 -31 0 -12 22
-13 33 -1 14 14 24 6 33 -25 5 -18 10 -25 10 -15 2 31 -29 79 -46 73 -9 -4
-23 -1 -31 6 -14 11 -15 10 -8 -7z"/>
<path fill="#ffffff" stroke="none" d="M180 116 c0 -2 -7 -9 -15 -16 -13 -11
-14 -10 -9 4 5 14 24 23 24 12z"/>
<path fill="#000000" stroke="none" d="M68 98 c-21 -18 -29 -46 -15 -55 16
-11 79 -13 96 -3 10 5 6 9 -12 14 -16 4 -27 14 -29 28 -4 26 -19 32 -40 16z"/>
<path fill="#ffffff" stroke="none" d="M100 70 c12 -23 7 -25 -21 -9 -11 5
-17 14 -14 20 10 15 23 11 35 -11z"/>
<path fill="#000000" stroke="none" d="M256 93 c3 -12 1 -24 -5 -27 -14 -9
-14 -26 -1 -26 6 0 9 3 8 8 0 4 2 15 7 25 4 11 3 23 -3 29 -8 8 -9 5 -6 -9z"/>
</g>
</svg>
