<?xml version="1.0" standalone="no"?>
<!DOCTYPE svg PUBLIC "-//W3C//DTD SVG 20010904//EN"
 "http://www.w3.org/TR/2001/REC-SVG-20010904/DTD/svg10.dtd">
<svg version="1.0" xmlns="http://www.w3.org/2000/svg"
 width="32.000000pt" height="32.000000pt" viewBox="0 0 32.000000 32.000000"
 preserveAspectRatio="xMidYMid meet">
<metadata>
Created by potrace 1.16, written by Peter Selinger 2001-2019
</metadata>
<g transform="translate(0.000000,32.000000) scale(0.100000,-0.100000)"
fill="#000000" stroke="none">
<path fill="#000000" stroke="none" d="M0 160 l0 -160 160 0 160 0 0 160 0
160 -160 0 -160 0 0 -160z"/>
<path fill="#ffffff" stroke="none" d="M170 264 c5 -21 34 -64 63 -95 18 -20
23 -39 10 -39 -14 0 -30 15 -43 40 l-13 25 -8 -28 c-5 -20 -2 -37 11 -60 14
-24 17 -40 12 -62 -8 -27 -13 -30 -53 -33 -43 -3 -43 -3 -21 13 20 15 34 73
14 61 -5 -3 -9 0 -9 7 0 7 -4 21 -8 32 -7 20 -6 20 9 1 9 -11 16 -15 16 -9 0
7 -7 18 -15 27 -8 8 -15 23 -15 33 -1 17 -2 16 -15 -2 -34 -48 -55 -59 -55
-30 0 8 4 15 9 15 8 0 17 12 60 80 5 8 12 23 15 33 7 23 29 17 36 -9z"/>
<path fill="#ffffff" stroke="none" d="M81 91 l-24 -19 22 -12 c12 -6 30 -9
39 -5 12 4 14 3 6 -5 -18 -18 -61 -21 -74 -5 -9 11 -7 19 14 40 14 14 29 25
33 25 4 0 -3 -9 -16 -19z"/>
<path fill="#ffffff" stroke="none" d="M270 85 c0 -8 -3 -16 -7 -18 -5 -3 -8
5 -8 18 0 13 3 21 8 18 4 -2 7 -10 7 -18z"/>
</g>
</svg>
