<?xml version="1.0" standalone="no"?>
<!DOCTYPE svg PUBLIC "-//W3C//DTD SVG 20010904//EN"
 "http://www.w3.org/TR/2001/REC-SVG-20010904/DTD/svg10.dtd">
<svg version="1.0" xmlns="http://www.w3.org/2000/svg"
 width="32.000000pt" height="32.000000pt" viewBox="0 0 32.000000 32.000000"
 preserveAspectRatio="xMidYMid meet">
<metadata>
Created by potrace 1.16, written by Peter Selinger 2001-2019
</metadata>
<g transform="translate(0.000000,32.000000) scale(0.100000,-0.100000)"
fill="#000000" stroke="none">
<path fill="#000000" stroke="none" d="M30 227 c0 -46 5 -80 13 -92 13 -17 15
-17 48 1 19 10 36 20 38 21 1 1 0 6 -3 12 -4 5 -17 -1 -31 -15 -27 -27 -45
-31 -45 -9 0 8 7 15 15 15 8 0 21 13 30 29 8 16 20 31 27 33 7 3 12 18 13 34
0 19 5 29 15 29 10 0 15 -10 15 -29 1 -16 6 -31 13 -34 7 -2 19 -17 27 -33 9
-16 22 -29 30 -29 8 0 15 -7 15 -15 0 -22 -18 -18 -45 9 -14 14 -27 20 -31 15
-3 -6 -4 -11 -3 -12 2 -1 19 -11 38 -21 31 -18 35 -18 46 -2 7 9 20 16 29 16
13 0 16 12 16 75 l0 75 -135 0 -135 0 0 -73z"/>
</g>
</svg>
