<?xml version="1.0" standalone="no"?>
<!DOCTYPE svg PUBLIC "-//W3C//DTD SVG 20010904//EN"
 "http://www.w3.org/TR/2001/REC-SVG-20010904/DTD/svg10.dtd">
<svg version="1.0" xmlns="http://www.w3.org/2000/svg"
 width="32.000000pt" height="32.000000pt" viewBox="0 0 32.000000 32.000000"
 preserveAspectRatio="xMidYMid meet">
<metadata>
Created by potrace 1.16, written by Peter Selinger 2001-2019
</metadata>
<g transform="translate(0.000000,32.000000) scale(0.100000,-0.100000)"
fill="#000000" stroke="none">
<path fill="#000000" stroke="none" d="M0 160 c0 -136 2 -160 15 -160 13 0 15
23 15 150 l0 150 135 0 135 0 0 -89 c0 -65 -4 -90 -13 -94 -9 -3 -12 -16 -9
-37 3 -23 7 -28 13 -19 6 9 9 1 9 -23 0 -21 5 -38 10 -38 6 0 10 60 10 160 l0
160 -160 0 -160 0 0 -160z"/>
<path fill="#000000" stroke="none" d="M137 284 c-4 -4 -7 -14 -7 -22 0 -13
-25 -49 -65 -95 -9 -10 -18 -31 -21 -47 l-6 -29 36 17 c19 9 35 23 36 30 0 9
-7 8 -25 -4 -14 -9 -28 -14 -31 -11 -3 3 3 8 14 11 10 4 25 19 32 34 12 24 14
25 18 8 2 -11 10 -26 18 -34 8 -7 14 -18 14 -25 0 -6 -7 -2 -16 9 -15 19 -16
19 -9 -1 4 -11 8 -25 8 -32 0 -7 4 -10 9 -7 20 12 6 -46 -14 -61 -22 -16 -22
-16 21 -13 40 3 45 6 53 33 5 22 2 38 -12 62 -13 23 -16 40 -11 60 l8 28 13
-25 c13 -25 29 -40 43 -40 13 0 8 19 -10 39 -29 31 -58 74 -63 95 -6 21 -22
31 -33 20z"/>
<path fill="#000000" stroke="none" d="M190 146 c0 -17 27 -58 47 -71 19 -13
24 -13 29 -2 3 8 4 18 3 23 -1 5 1 17 6 27 11 25 -3 34 -19 12 -13 -18 -15
-18 -40 -2 -14 10 -26 15 -26 13z"/>
<path fill="#ffffff" stroke="none" d="M258 93 c2 -20 -1 -24 -9 -16 -7 7 -9
19 -6 27 9 23 12 20 15 -11z"/>
<path fill="#000000" stroke="none" d="M64 85 c-21 -21 -23 -29 -14 -40 13
-16 56 -13 74 5 8 8 6 9 -6 5 -9 -4 -27 -1 -39 5 l-22 12 24 19 c13 10 20 19
16 19 -4 0 -19 -11 -33 -25z"/>
</g>
</svg>
