<?xml version="1.0" standalone="no"?>
<!DOCTYPE svg PUBLIC "-//W3C//DTD SVG 20010904//EN"
 "http://www.w3.org/TR/2001/REC-SVG-20010904/DTD/svg10.dtd">
<svg version="1.0" xmlns="http://www.w3.org/2000/svg"
 width="32.000000pt" height="32.000000pt" viewBox="0 0 32.000000 32.000000"
 preserveAspectRatio="xMidYMid meet">
<metadata>
Created by potrace 1.16, written by Peter Selinger 2001-2019
</metadata>
<g transform="translate(0.000000,32.000000) scale(0.100000,-0.100000)"
fill="#000000" stroke="none">
<path fill="#000000" stroke="none" d="M134 276 c-3 -9 -4 -23 0 -31 3 -9 0
-15 -10 -15 -8 0 -24 -16 -35 -35 -12 -19 -25 -35 -30 -35 -5 0 -9 -8 -9 -17
0 -15 2 -16 10 -3 5 8 10 11 10 5 0 -5 12 4 25 20 l25 30 0 -30 c0 -16 3 -46
6 -66 7 -41 -13 -57 -47 -38 -19 10 -18 29 2 29 6 0 7 -5 3 -12 -4 -7 -3 -8 5
-4 6 4 8 12 5 18 -5 8 -1 9 10 5 10 -4 15 -3 11 3 -10 16 -33 12 -55 -10 -28
-28 -25 -54 6 -69 22 -10 31 -9 50 4 13 8 23 21 21 28 -1 6 4 11 12 9 12 -3
12 0 2 12 -9 10 -9 16 -1 21 6 4 9 13 6 21 -3 7 -1 16 5 20 6 4 6 11 -2 20
-10 12 -9 13 6 7 14 -5 17 -3 12 10 -10 25 10 20 24 -5 19 -37 49 -51 49 -23
0 8 -4 15 -9 15 -5 0 -18 16 -30 35 -11 19 -26 35 -34 35 -7 0 -13 11 -12 27
0 29 -22 43 -31 19z"/>
<path fill="#000000" stroke="none" d="M168 123 c10 -4 9 -10 -5 -26 -17 -21
-17 -21 0 -7 16 12 20 12 28 -1 5 -8 8 -28 6 -46 -1 -17 1 -29 5 -27 24 15 -3
115 -31 113 -11 0 -12 -2 -3 -6z"/>
<path fill="#000000" stroke="none" d="M254 88 c1 -15 -4 -23 -15 -22 -9 1
-16 -4 -16 -11 0 -20 41 -1 45 20 2 9 0 21 -5 26 -6 6 -9 1 -9 -13z"/>
</g>
</svg>
