<?xml version="1.0" standalone="no"?>
<!DOCTYPE svg PUBLIC "-//W3C//DTD SVG 20010904//EN"
 "http://www.w3.org/TR/2001/REC-SVG-20010904/DTD/svg10.dtd">
<svg version="1.0" xmlns="http://www.w3.org/2000/svg"
 width="32.000000pt" height="32.000000pt" viewBox="0 0 32.000000 32.000000"
 preserveAspectRatio="xMidYMid meet">
<metadata>
Created by potrace 1.16, written by Peter Selinger 2001-2019
</metadata>
<g transform="translate(0.000000,32.000000) scale(0.100000,-0.100000)"
fill="#000000" stroke="none">
<path fill="#000000" stroke="none" d="M0 160 l0 -160 160 0 160 0 0 160 0
160 -160 0 -160 0 0 -160z"/>
<path fill="#ffffff" stroke="none" d="M165 255 c1 -16 6 -30 13 -33 7 -2 19
-17 27 -33 9 -16 22 -29 30 -29 8 0 15 -7 15 -15 0 -22 -18 -18 -46 10 -21 21
-26 22 -31 9 -3 -9 2 -29 11 -45 41 -69 27 -109 -37 -109 -31 0 -38 3 -27 10
8 5 10 10 5 10 -6 0 -16 14 -22 31 -10 25 -16 30 -35 24 -22 -6 -22 -6 -3 10
23 19 39 15 44 -11 6 -35 41 -46 41 -13 0 13 -4 18 -12 13 -8 -5 -7 0 2 11 8
10 10 16 4 12 -7 -4 -15 0 -18 9 -4 12 -2 15 9 10 14 -5 14 -2 0 24 l-15 29
-25 -24 c-27 -28 -45 -32 -45 -10 0 8 7 15 15 15 8 0 21 13 29 29 9 16 22 31
30 34 9 4 13 13 10 22 -8 21 3 48 19 42 6 -2 12 -17 12 -32z"/>
<path fill="#ffffff" stroke="none" d="M268 85 c-3 -3 -9 2 -12 12 -6 14 -5
15 5 6 7 -7 10 -15 7 -18z"/>
<path fill="#ffffff" stroke="none" d="M81 60 c24 -13 25 -27 2 -27 -23 0 -45
16 -37 28 7 11 11 11 35 -1z"/>
<path fill="#ffffff" stroke="none" d="M257 55 c0 -8 -4 -15 -9 -15 -10 0 -11
14 -1 23 9 10 10 9 10 -8z"/>
</g>
</svg>
