<?xml version="1.0" standalone="no"?>
<!DOCTYPE svg PUBLIC "-//W3C//DTD SVG 20010904//EN"
 "http://www.w3.org/TR/2001/REC-SVG-20010904/DTD/svg10.dtd">
<svg version="1.0" xmlns="http://www.w3.org/2000/svg"
 width="32.000000pt" height="32.000000pt" viewBox="0 0 32.000000 32.000000"
 preserveAspectRatio="xMidYMid meet">
<metadata>
Created by potrace 1.16, written by Peter Selinger 2001-2019
</metadata>
<g transform="translate(0.000000,32.000000) scale(0.100000,-0.100000)"
fill="#000000" stroke="none">
<path fill="#000000" stroke="none" d="M0 160 l0 -160 160 0 160 0 0 160 0
160 -160 0 -160 0 0 -160z"/>
<path fill="#ffffff" stroke="none" d="M160 280 c0 -5 -7 -10 -16 -10 -8 0
-12 5 -9 10 3 6 10 10 16 10 5 0 9 -4 9 -10z"/>
<path fill="#ffffff" stroke="none" d="M168 233 c32 -30 57 -71 48 -80 -3 -3
-10 5 -16 19 -10 20 -18 24 -52 22 -30 -1 -46 -8 -59 -25 -25 -32 -24 -12 1
29 11 17 27 32 36 32 10 0 14 5 10 15 -8 21 -1 19 32 -12z"/>
<path fill="#ffffff" stroke="none" d="M57 138 c-3 -8 -6 -5 -6 6 -1 11 2 17
5 13 3 -3 4 -12 1 -19z"/>
<path fill="#ffffff" stroke="none" d="M237 138 c-3 -8 -6 -5 -6 6 -1 11 2 17
5 13 3 -3 4 -12 1 -19z"/>
<path fill="#ffffff" stroke="none" d="M146 107 c1 -9 -3 -20 -9 -24 -7 -3 -9
-3 -5 2 4 4 3 17 -3 27 -8 16 -8 19 2 16 7 -2 13 -12 15 -21z"/>
<path fill="#ffffff" stroke="none" d="M97 98 c0 -7 -12 -14 -26 -15 -24 -1
-25 -1 -6 13 23 17 32 18 32 2z"/>
<path fill="#ffffff" stroke="none" d="M268 85 c-3 -3 -9 2 -12 12 -6 14 -5
15 5 6 7 -7 10 -15 7 -18z"/>
<path fill="#ffffff" stroke="none" d="M204 84 c3 -8 2 -12 -4 -9 -6 3 -10 10
-10 16 0 14 7 11 14 -7z"/>
<path fill="#ffffff" stroke="none" d="M81 60 c24 -13 25 -27 2 -27 -23 0 -45
16 -37 28 7 11 11 11 35 -1z"/>
<path fill="#ffffff" stroke="none" d="M132 45 c0 -5 -5 -11 -11 -13 -6 -2
-11 4 -11 13 0 9 5 15 11 13 6 -2 11 -8 11 -13z"/>
<path fill="#000000" stroke="none" d="M132 222 c-8 -6 -2 -9 18 -9 20 0 26 3
18 9 -7 4 -15 8 -18 8 -3 0 -11 -4 -18 -8z"/>
</g>
</svg>
