<?xml version="1.0" standalone="no"?>
<!DOCTYPE svg PUBLIC "-//W3C//DTD SVG 20010904//EN"
 "http://www.w3.org/TR/2001/REC-SVG-20010904/DTD/svg10.dtd">
<svg version="1.0" xmlns="http://www.w3.org/2000/svg"
 width="32.000000pt" height="32.000000pt" viewBox="0 0 32.000000 32.000000"
 preserveAspectRatio="xMidYMid meet">
<metadata>
Created by potrace 1.16, written by Peter Selinger 2001-2019
</metadata>
<g transform="translate(0.000000,32.000000) scale(0.100000,-0.100000)"
fill="#000000" stroke="none">
<path fill="#000000" stroke="none" d="M134 276 c-3 -9 -3 -23 0 -31 3 -9 -1
-18 -10 -22 -8 -3 -21 -18 -30 -34 -8 -16 -21 -29 -29 -29 -8 0 -15 -7 -15
-15 0 -22 18 -18 45 10 l25 24 15 -29 c14 -27 14 -29 -2 -24 -17 5 -17 5 0 -6
19 -12 24 -74 7 -85 -6 -4 -9 -1 -8 6 2 6 -3 14 -9 16 -7 3 -13 -2 -13 -11 0
-9 5 -16 11 -16 5 0 7 -5 3 -11 -3 -6 5 -4 18 5 14 9 29 13 33 9 5 -5 4 -1 -2
7 -15 20 -14 32 3 52 13 13 13 20 3 36 -7 11 -9 27 -6 36 5 14 10 12 31 -9 28
-28 46 -32 46 -10 0 8 -7 15 -15 15 -8 0 -21 13 -30 29 -8 16 -20 31 -27 33
-7 3 -12 17 -13 33 0 31 -22 46 -31 21z"/>
<path fill="#000000" stroke="none" d="M67 98 c-16 -12 -15 -13 6 -13 13 0 24
6 24 13 0 6 -3 12 -7 12 -3 0 -14 -6 -23 -12z"/>
<path fill="#000000" stroke="none" d="M64 52 c4 -3 14 -7 22 -8 9 -1 13 0 10
4 -4 3 -14 7 -22 8 -9 1 -13 0 -10 -4z"/>
</g>
</svg>
