<?xml version="1.0" standalone="no"?>
<!DOCTYPE svg PUBLIC "-//W3C//DTD SVG 20010904//EN"
 "http://www.w3.org/TR/2001/REC-SVG-20010904/DTD/svg10.dtd">
<svg version="1.0" xmlns="http://www.w3.org/2000/svg"
 width="32.000000pt" height="32.000000pt" viewBox="0 0 32.000000 32.000000"
 preserveAspectRatio="xMidYMid meet">
<metadata>
Created by potrace 1.16, written by Peter Selinger 2001-2019
</metadata>
<g transform="translate(0.000000,32.000000) scale(0.100000,-0.100000)"
fill="#000000" stroke="none">
<path fill="#000000" stroke="none" d="M0 160 l0 -160 160 0 160 0 0 160 0
160 -160 0 -160 0 0 -160z"/>
<path fill="#ffffff" stroke="none" d="M165 255 c1 -16 6 -30 13 -33 7 -2 19
-17 27 -33 9 -16 22 -29 30 -29 8 0 15 -7 15 -15 0 -22 -18 -18 -46 10 -21 21
-26 23 -31 9 -3 -9 -1 -25 6 -36 10 -16 10 -23 -3 -36 -17 -20 -18 -32 -3 -52
6 -8 7 -12 2 -7 -4 4 -19 0 -33 -9 -13 -9 -21 -11 -18 -5 4 6 2 11 -3 11 -6 0
-11 7 -11 16 0 9 6 14 13 11 6 -2 11 -10 9 -16 -1 -7 2 -10 8 -6 17 11 12 73
-7 85 -17 11 -17 11 0 6 16 -5 16 -3 2 24 l-15 29 -25 -24 c-27 -28 -45 -32
-45 -10 0 8 7 15 15 15 8 0 21 13 29 29 9 16 22 31 30 34 9 4 13 13 10 22 -8
21 3 48 19 42 6 -2 12 -17 12 -32z"/>
<path fill="#ffffff" stroke="none" d="M97 98 c0 -7 -11 -13 -24 -13 -21 0
-22 1 -6 13 9 6 20 12 23 12 4 0 7 -6 7 -12z"/>
<path fill="#ffffff" stroke="none" d="M96 48 c3 -4 -1 -5 -10 -4 -8 1 -18 5
-22 8 -3 4 1 5 10 4 8 -1 18 -5 22 -8z"/>
</g>
</svg>
