<?xml version="1.0" standalone="no"?>
<!DOCTYPE svg PUBLIC "-//W3C//DTD SVG 20010904//EN"
 "http://www.w3.org/TR/2001/REC-SVG-20010904/DTD/svg10.dtd">
<svg version="1.0" xmlns="http://www.w3.org/2000/svg"
 width="32.000000pt" height="32.000000pt" viewBox="0 0 32.000000 32.000000"
 preserveAspectRatio="xMidYMid meet">
<metadata>
Created by potrace 1.16, written by Peter Selinger 2001-2019
</metadata>
<g transform="translate(0.000000,32.000000) scale(0.100000,-0.100000)"
fill="#000000" stroke="none">
<path fill="#000000" stroke="none" d="M0 160 l0 -160 160 0 160 0 0 160 0
160 -160 0 -160 0 0 -160z"/>
<path fill="#ffffff" stroke="none" d="M165 255 c1 -16 6 -30 13 -33 7 -2 19
-17 27 -33 9 -16 22 -29 30 -29 8 0 15 -7 15 -15 0 -22 -18 -18 -46 10 -21 21
-26 22 -31 9 -3 -8 -1 -25 4 -37 43 -92 37 -117 -30 -117 -40 0 -41 0 -19 16
28 19 31 77 5 94 -17 11 -17 11 0 6 16 -5 16 -3 2 24 l-15 29 -25 -24 c-27
-28 -45 -32 -45 -10 0 8 7 15 15 15 8 0 21 13 29 29 9 16 22 31 30 34 9 4 13
13 10 22 -8 21 3 48 19 42 6 -2 12 -17 12 -32z"/>
<path fill="#ffffff" stroke="none" d="M97 98 c0 -7 -11 -13 -24 -13 -21 0
-22 1 -6 13 9 6 20 12 23 12 4 0 7 -6 7 -12z"/>
<path fill="#ffffff" stroke="none" d="M96 48 c3 -4 -1 -5 -10 -4 -8 1 -18 5
-22 8 -3 4 1 5 10 4 8 -1 18 -5 22 -8z"/>
<path fill="#ffffff" stroke="none" d="M132 45 c0 -5 -5 -11 -11 -13 -6 -2
-11 4 -11 13 0 9 5 15 11 13 6 -2 11 -8 11 -13z"/>
</g>
</svg>
