<?xml version="1.0" standalone="no"?>
<!DOCTYPE svg PUBLIC "-//W3C//DTD SVG 20010904//EN"
 "http://www.w3.org/TR/2001/REC-SVG-20010904/DTD/svg10.dtd">
<svg version="1.0" xmlns="http://www.w3.org/2000/svg"
 width="32.000000pt" height="32.000000pt" viewBox="0 0 32.000000 32.000000"
 preserveAspectRatio="xMidYMid meet">
<metadata>
Created by potrace 1.16, written by Peter Selinger 2001-2019
</metadata>
<g transform="translate(0.000000,32.000000) scale(0.100000,-0.100000)"
fill="#000000" stroke="none">
<path fill="#000000" stroke="none" d="M30 151 l0 -148 135 -2 135 -2 0 38 c0
25 -3 33 -9 24 -6 -9 -10 -4 -13 19 -3 21 0 34 9 37 9 4 13 29 13 94 l0 89
-135 0 -135 0 0 -149z"/>
<path fill="#ffffff" stroke="none" d="M165 255 c1 -16 6 -30 13 -33 7 -2 19
-17 27 -33 9 -16 22 -29 30 -29 8 0 15 -7 15 -15 0 -22 -18 -18 -46 10 -34 34
-42 10 -14 -38 13 -22 20 -48 18 -69 l-3 -33 -80 -1 -81 -1 -2 28 c-3 33 28
69 58 69 25 0 27 -35 3 -49 -10 -6 -13 -11 -7 -11 22 0 32 25 30 72 -1 26 -5
51 -9 54 -4 4 -7 2 -7 -4 0 -7 -15 -21 -32 -32 -18 -11 -28 -20 -23 -20 6 0
21 7 33 16 17 11 22 12 22 2 -1 -7 -16 -20 -35 -29 -37 -17 -40 -14 -29 29 4
12 12 22 20 22 7 0 20 13 28 29 9 16 22 31 30 34 9 4 13 13 10 22 -8 21 3 48
19 42 6 -2 12 -17 12 -32z"/>
<path fill="#ffffff" stroke="none" d="M217 133 c24 -16 26 -16 39 2 16 22 30
14 19 -12 -4 -10 -8 -31 -9 -47 -1 -17 -10 -34 -23 -43 -22 -15 -23 -14 -23
10 0 17 5 24 18 23 12 -1 17 7 18 26 1 15 -3 25 -8 22 -6 -4 -8 -14 -5 -24 8
-29 -19 -13 -42 26 -23 39 -21 41 16 17z"/>
</g>
</svg>
