<?xml version="1.0" standalone="no"?>
<!DOCTYPE svg PUBLIC "-//W3C//DTD SVG 20010904//EN"
 "http://www.w3.org/TR/2001/REC-SVG-20010904/DTD/svg10.dtd">
<svg version="1.0" xmlns="http://www.w3.org/2000/svg"
 width="32.000000pt" height="32.000000pt" viewBox="0 0 32.000000 32.000000"
 preserveAspectRatio="xMidYMid meet">
<metadata>
Created by potrace 1.16, written by Peter Selinger 2001-2019
</metadata>
<g transform="translate(0.000000,32.000000) scale(0.100000,-0.100000)"
fill="#000000" stroke="none">
<path fill="#000000" stroke="none" d="M134 276 c-3 -9 -4 -23 0 -31 3 -9 0
-15 -10 -15 -8 0 -24 -16 -35 -35 -12 -19 -25 -35 -30 -35 -5 0 -9 -8 -9 -17
0 -15 2 -16 10 -3 5 8 10 11 10 5 0 -5 12 4 25 20 20 24 25 26 25 12 0 -10 7
-25 15 -33 21 -21 19 -93 -2 -117 -18 -20 -18 -20 8 -4 14 10 29 14 34 10 4
-5 4 -1 -1 7 -14 24 -13 38 2 51 12 10 12 16 -5 45 -17 28 -17 32 -4 27 12 -5
15 -2 10 10 -10 25 10 20 24 -5 19 -37 49 -51 49 -23 0 8 -4 15 -9 15 -5 0
-18 16 -30 35 -11 19 -26 35 -34 35 -7 0 -13 11 -12 27 0 29 -22 43 -31 19z"/>
<path fill="#000000" stroke="none" d="M65 90 c-3 -6 1 -7 9 -4 18 7 21 14 7
14 -6 0 -13 -4 -16 -10z"/>
<path fill="#000000" stroke="none" d="M64 52 c4 -3 14 -7 22 -8 9 -1 13 0 10
4 -4 3 -14 7 -22 8 -9 1 -13 0 -10 -4z"/>
</g>
</svg>
