<?xml version="1.0" standalone="no"?>
<!DOCTYPE svg PUBLIC "-//W3C//DTD SVG 20010904//EN"
 "http://www.w3.org/TR/2001/REC-SVG-20010904/DTD/svg10.dtd">
<svg version="1.0" xmlns="http://www.w3.org/2000/svg"
 width="32.000000pt" height="32.000000pt" viewBox="0 0 32.000000 32.000000"
 preserveAspectRatio="xMidYMid meet">
<metadata>
Created by potrace 1.16, written by Peter Selinger 2001-2019
</metadata>
<g transform="translate(0.000000,32.000000) scale(0.100000,-0.100000)"
fill="#000000" stroke="none">
<path fill="#000000" stroke="none" d="M135 280 c-3 -5 1 -10 9 -10 9 0 16 5
16 10 0 6 -4 10 -9 10 -6 0 -13 -4 -16 -10z"/>
<path fill="#000000" stroke="none" d="M136 245 c4 -10 0 -15 -10 -15 -9 0
-25 -15 -36 -32 -25 -41 -26 -61 -1 -29 13 17 29 24 59 25 34 2 42 -2 52 -22
6 -14 13 -22 16 -19 9 9 -16 50 -48 80 -33 31 -40 33 -32 12z"/>
<path fill="#ffffff" stroke="none" d="M168 222 c8 -6 2 -9 -18 -9 -20 0 -26
3 -18 9 7 4 15 8 18 8 3 0 11 -4 18 -8z"/>
<path fill="#000000" stroke="none" d="M51 144 c0 -11 3 -14 6 -6 3 7 2 16 -1
19 -3 4 -6 -2 -5 -13z"/>
<path fill="#000000" stroke="none" d="M231 144 c0 -11 3 -14 6 -6 3 7 2 16
-1 19 -3 4 -6 -2 -5 -13z"/>
<path fill="#000000" stroke="none" d="M129 112 c6 -10 7 -23 3 -27 -4 -5 -2
-5 5 -2 14 9 10 40 -6 45 -10 3 -10 0 -2 -16z"/>
<path fill="#000000" stroke="none" d="M65 96 c-19 -14 -18 -14 6 -13 14 1 26
8 26 15 0 16 -9 15 -32 -2z"/>
<path fill="#000000" stroke="none" d="M256 97 c3 -10 9 -15 12 -12 3 3 0 11
-7 18 -10 9 -11 8 -5 -6z"/>
<path fill="#000000" stroke="none" d="M190 91 c0 -6 4 -13 10 -16 6 -3 7 1 4
9 -7 18 -14 21 -14 7z"/>
<path fill="#000000" stroke="none" d="M46 61 c-8 -12 14 -28 37 -28 23 0 22
14 -2 27 -24 12 -28 12 -35 1z"/>
<path fill="#000000" stroke="none" d="M110 45 c0 -9 5 -15 11 -13 6 2 11 8
11 13 0 5 -5 11 -11 13 -6 2 -11 -4 -11 -13z"/>
</g>
</svg>
