<?xml version="1.0" standalone="no"?>
<!DOCTYPE svg PUBLIC "-//W3C//DTD SVG 20010904//EN"
 "http://www.w3.org/TR/2001/REC-SVG-20010904/DTD/svg10.dtd">
<svg version="1.0" xmlns="http://www.w3.org/2000/svg"
 width="32.000000pt" height="32.000000pt" viewBox="0 0 32.000000 32.000000"
 preserveAspectRatio="xMidYMid meet">
<metadata>
Created by potrace 1.16, written by Peter Selinger 2001-2019
</metadata>
<g transform="translate(0.000000,32.000000) scale(0.100000,-0.100000)"
fill="#000000" stroke="none">
<path fill="#000000" stroke="none" d="M134 273 c-3 -10 -10 -25 -15 -33 -43
-68 -52 -80 -60 -80 -5 0 -9 -7 -9 -15 0 -28 29 -14 51 25 13 24 14 23 21 -34
8 -59 0 -86 -26 -86 -6 0 -3 5 7 11 24 14 22 49 -3 49 -26 0 -60 -34 -60 -60
0 -29 33 -41 103 -38 l62 3 3 33 c2 19 -4 46 -15 65 -12 20 -17 41 -13 57 l6
25 14 -25 c13 -25 29 -40 43 -40 13 0 8 19 -10 39 -29 31 -58 74 -63 95 -7 26
-29 32 -36 9z"/>
<path fill="#000000" stroke="none" d="M254 88 c1 -16 -4 -23 -16 -22 -13 1
-18 -6 -18 -23 0 -24 1 -25 23 -11 24 16 35 54 20 69 -6 6 -9 1 -9 -13z"/>
</g>
</svg>
