<?xml version="1.0" standalone="no"?>
<!DOCTYPE svg PUBLIC "-//W3C//DTD SVG 20010904//EN"
 "http://www.w3.org/TR/2001/REC-SVG-20010904/DTD/svg10.dtd">
<svg version="1.0" xmlns="http://www.w3.org/2000/svg"
 width="32.000000pt" height="32.000000pt" viewBox="0 0 32.000000 32.000000"
 preserveAspectRatio="xMidYMid meet">
<metadata>
Created by potrace 1.16, written by Peter Selinger 2001-2019
</metadata>
<g transform="translate(0.000000,32.000000) scale(0.100000,-0.100000)"
fill="#000000" stroke="none">
<path fill="#000000" stroke="none" d="M134 276 c-3 -9 -4 -23 0 -31 3 -9 0
-15 -10 -15 -8 0 -24 -16 -35 -35 -12 -19 -25 -35 -30 -35 -5 0 -9 -7 -9 -15
0 -29 21 -18 55 30 13 18 14 19 15 2 0 -10 7 -25 15 -34 19 -19 45 -2 45 31 1
21 1 21 15 1 34 -48 55 -59 55 -30 0 8 -4 15 -9 15 -5 0 -18 16 -30 35 -11 19
-26 35 -34 35 -7 0 -13 11 -12 27 0 29 -22 43 -31 19z"/>
<path fill="#000000" stroke="none" d="M125 125 c4 -11 8 -25 8 -31 0 -12 22
-13 33 -1 13 12 22 8 29 -14 4 -11 9 -18 12 -16 7 7 -26 67 -37 67 -5 0 -12
-5 -15 -11 -5 -6 -12 -4 -22 8 -14 17 -14 17 -8 -2z"/>
<path fill="#ffffff" stroke="none" d="M180 116 c0 -2 -7 -9 -15 -16 -13 -11
-14 -10 -9 4 5 14 24 23 24 12z"/>
<path fill="#000000" stroke="none" d="M64 85 c-21 -21 -23 -29 -14 -40 13
-16 56 -13 74 5 8 8 6 9 -6 5 -9 -4 -27 -1 -39 5 l-22 12 24 19 c13 10 20 19
16 19 -4 0 -19 -11 -33 -25z"/>
<path fill="#000000" stroke="none" d="M255 85 c0 -13 3 -21 8 -18 4 2 7 10 7
18 0 8 -3 16 -7 18 -5 3 -8 -5 -8 -18z"/>
</g>
</svg>
