<?xml version="1.0" standalone="no"?>
<!DOCTYPE svg PUBLIC "-//W3C//DTD SVG 20010904//EN"
 "http://www.w3.org/TR/2001/REC-SVG-20010904/DTD/svg10.dtd">
<svg version="1.0" xmlns="http://www.w3.org/2000/svg"
 width="32.000000pt" height="32.000000pt" viewBox="0 0 32.000000 32.000000"
 preserveAspectRatio="xMidYMid meet">
<metadata>
Created by potrace 1.16, written by Peter Selinger 2001-2019
</metadata>
<g transform="translate(0.000000,32.000000) scale(0.100000,-0.100000)"
fill="#000000" stroke="none">
<path fill="#000000" stroke="none" d="M0 160 l0 -160 160 0 160 0 0 160 0
160 -160 0 -160 0 0 -160z"/>
<path fill="#ffffff" stroke="none" d="M166 265 c2 -11 -2 -25 -8 -33 -6 -7
-7 -12 -2 -11 23 4 35 -3 49 -31 9 -16 22 -30 30 -30 8 0 15 -7 15 -15 0 -24
-19 -18 -50 15 -28 30 -70 41 -70 18 0 -6 -3 -9 -6 -6 -3 3 -16 -5 -29 -18
-27 -27 -45 -31 -45 -9 0 8 7 15 15 15 8 0 21 13 29 29 9 16 22 31 30 34 9 4
13 13 10 22 -8 20 3 48 18 43 6 -2 13 -13 14 -23z"/>
<path fill="#ffffff" stroke="none" d="M160 159 c0 -5 -7 -9 -15 -9 -15 0 -20
12 -9 23 8 8 24 -1 24 -14z"/>
</g>
</svg>
