<?xml version="1.0" standalone="no"?>
<!DOCTYPE svg PUBLIC "-//W3C//DTD SVG 20010904//EN"
 "http://www.w3.org/TR/2001/REC-SVG-20010904/DTD/svg10.dtd">
<svg version="1.0" xmlns="http://www.w3.org/2000/svg"
 width="32.000000pt" height="32.000000pt" viewBox="0 0 32.000000 32.000000"
 preserveAspectRatio="xMidYMid meet">
<metadata>
Created by potrace 1.16, written by Peter Selinger 2001-2019
</metadata>
<g transform="translate(0.000000,32.000000) scale(0.100000,-0.100000)"
fill="#000000" stroke="none">
<path fill="#000000" stroke="none" d="M0 160 l0 -160 160 0 160 0 0 160 0
160 -160 0 -160 0 0 -160z"/>
<path fill="#ffffff" stroke="none" d="M160 280 c0 -5 -7 -10 -16 -10 -8 0
-12 5 -9 10 3 6 10 10 16 10 5 0 9 -4 9 -10z"/>
<path fill="#ffffff" stroke="none" d="M160 251 c0 -17 -18 -21 -24 -6 -3 9 0
15 9 15 8 0 15 -4 15 -9z"/>
<path fill="#ffffff" stroke="none" d="M140 210 c13 -7 21 -7 25 0 10 16 24
12 35 -12 10 -21 10 -21 -3 -5 -15 18 -32 24 -22 7 4 -7 -7 -9 -30 -7 -31 4
-38 1 -47 -19 -6 -13 -15 -24 -19 -24 -5 0 1 16 12 35 23 39 23 39 49 25z"/>
<path fill="#ffffff" stroke="none" d="M163 138 c-9 -15 -23 -8 -23 12 0 17 2
19 14 8 8 -7 12 -16 9 -20z"/>
<path fill="#ffffff" stroke="none" d="M57 138 c-3 -8 -6 -5 -6 6 -1 11 2 17
5 13 3 -3 4 -12 1 -19z"/>
<path fill="#ffffff" stroke="none" d="M237 138 c-3 -8 -6 -5 -6 6 -1 11 2 17
5 13 3 -3 4 -12 1 -19z"/>
<path fill="#ffffff" stroke="none" d="M187 115 c2 -6 -6 -16 -17 -23 -11 -7
-19 -8 -18 -3 2 5 -6 16 -17 24 -18 14 -17 15 15 13 18 -1 35 -6 37 -11z"/>
<path fill="#ffffff" stroke="none" d="M108 82 c2 -14 13 -24 29 -28 18 -5 21
-9 11 -15 -23 -15 -33 -10 -45 22 -10 25 -16 30 -35 24 -22 -6 -22 -6 -3 10
24 19 39 15 43 -13z"/>
<path fill="#ffffff" stroke="none" d="M96 48 c3 -4 -1 -5 -10 -4 -8 1 -18 5
-22 8 -3 4 1 5 10 4 8 -1 18 -5 22 -8z"/>
<path fill="#ffffff" stroke="none" d="M255 50 c3 -5 1 -10 -4 -10 -6 0 -11 5
-11 10 0 6 2 10 4 10 3 0 8 -4 11 -10z"/>
<path fill="#000000" stroke="none" d="M160 109 c0 -5 5 -7 10 -4 6 3 10 8 10
11 0 2 -4 4 -10 4 -5 0 -10 -5 -10 -11z"/>
</g>
</svg>
