<?xml version="1.0" standalone="no"?>
<!DOCTYPE svg PUBLIC "-//W3C//DTD SVG 20010904//EN"
 "http://www.w3.org/TR/2001/REC-SVG-20010904/DTD/svg10.dtd">
<svg version="1.0" xmlns="http://www.w3.org/2000/svg"
 width="32.000000pt" height="32.000000pt" viewBox="0 0 32.000000 32.000000"
 preserveAspectRatio="xMidYMid meet">
<metadata>
Created by potrace 1.16, written by Peter Selinger 2001-2019
</metadata>
<g transform="translate(0.000000,32.000000) scale(0.100000,-0.100000)"
fill="#000000" stroke="none">
<path fill="#000000" stroke="none" d="M150 301 c0 -6 4 -13 10 -16 6 -3 7 1
4 9 -7 18 -14 21 -14 7z"/>
<path fill="#000000" stroke="none" d="M129 255 c-1 -5 -1 -13 0 -17 0 -5 -3
-8 -9 -8 -5 0 -7 -8 -4 -17 5 -16 5 -16 -5 -1 -14 21 -50 12 -48 -12 1 -10 4
-17 8 -14 4 2 10 0 13 -5 10 -16 46 0 46 21 0 17 3 18 15 8 8 -7 15 -9 15 -5
0 3 12 -3 27 -14 28 -23 44 -21 24 3 -10 12 -8 14 11 10 22 -4 22 -4 2 5 -11
5 -28 20 -37 34 -16 25 -56 33 -58 12z"/>
<path fill="#ffffff" stroke="none" d="M170 240 c0 -5 -7 -10 -16 -10 -8 0
-12 5 -9 10 3 6 10 10 16 10 5 0 9 -4 9 -10z"/>
<path fill="#000000" stroke="none" d="M262 211 c7 -9 13 -18 15 -20 1 -2 1 5
0 16 0 11 -7 20 -14 20 -10 0 -10 -4 -1 -16z"/>
<path fill="#000000" stroke="none" d="M25 199 c-11 -17 1 -21 15 -4 8 9 8 15
2 15 -6 0 -14 -5 -17 -11z"/>
<path fill="#000000" stroke="none" d="M154 186 c-7 -8 -8 -19 -3 -29 6 -10 5
-18 -1 -22 -5 -3 -10 -11 -10 -17 0 -6 9 -3 20 7 19 17 25 14 20 -10 -8 -37
-8 -45 -2 -45 4 0 12 12 19 26 10 21 10 31 -2 53 -26 47 -29 50 -41 37z"/>
<path fill="#ffffff" stroke="none" d="M183 156 c4 -10 1 -13 -8 -9 -8 3 -12
9 -9 14 7 12 11 11 17 -5z"/>
<path fill="#000000" stroke="none" d="M260 171 c0 -6 4 -13 10 -16 6 -3 7 1
4 9 -7 18 -14 21 -14 7z"/>
<path fill="#000000" stroke="none" d="M50 120 c6 -11 13 -20 16 -20 2 0 0 9
-6 20 -6 11 -13 20 -16 20 -2 0 0 -9 6 -20z"/>
<path fill="#000000" stroke="none" d="M280 130 c0 -5 5 -10 11 -10 5 0 7 5 4
10 -3 6 -8 10 -11 10 -2 0 -4 -4 -4 -10z"/>
<path fill="#000000" stroke="none" d="M110 110 c-9 -6 -10 -10 -3 -10 6 0 15
5 18 10 8 12 4 12 -15 0z"/>
<path fill="#000000" stroke="none" d="M127 73 c4 -11 8 -12 13 -3 6 9 9 9 13
1 4 -8 5 -8 3 0 -1 7 -9 13 -18 15 -11 1 -15 -3 -11 -13z"/>
<path fill="#000000" stroke="none" d="M253 83 c-7 -2 -13 -9 -13 -15 0 -7 5
-7 13 1 8 6 18 7 22 3 5 -4 5 -1 1 6 -4 6 -8 12 -9 11 -1 0 -8 -3 -14 -6z"/>
<path fill="#000000" stroke="none" d="M40 48 c13 -15 40 -19 40 -6 0 6 -6 8
-14 5 -7 -3 -19 -1 -25 4 -8 6 -8 5 -1 -3z"/>
<path fill="#000000" stroke="none" d="M210 49 c0 -5 5 -7 10 -4 6 3 10 8 10
11 0 2 -4 4 -10 4 -5 0 -10 -5 -10 -11z"/>
<path fill="#000000" stroke="none" d="M175 40 c-3 -6 1 -7 9 -4 18 7 21 14 7
14 -6 0 -13 -4 -16 -10z"/>
</g>
</svg>
