<?xml version="1.0" standalone="no"?>
<!DOCTYPE svg PUBLIC "-//W3C//DTD SVG 20010904//EN"
 "http://www.w3.org/TR/2001/REC-SVG-20010904/DTD/svg10.dtd">
<svg version="1.0" xmlns="http://www.w3.org/2000/svg"
 width="32.000000pt" height="32.000000pt" viewBox="0 0 32.000000 32.000000"
 preserveAspectRatio="xMidYMid meet">
<metadata>
Created by potrace 1.16, written by Peter Selinger 2001-2019
</metadata>
<g transform="translate(0.000000,32.000000) scale(0.100000,-0.100000)"
fill="#000000" stroke="none">
<path fill="#000000" stroke="none" d="M0 160 l0 -160 45 0 c25 0 44 3 43 8 0
4 1 14 5 22 7 20 27 106 27 119 0 6 -9 2 -20 -9 -11 -11 -25 -20 -30 -20 -19
0 -23 31 -6 48 39 41 64 79 68 102 5 36 51 36 56 0 4 -23 29 -61 68 -102 17
-17 13 -48 -6 -48 -5 0 -19 9 -30 20 -11 11 -20 15 -20 9 0 -13 20 -99 27
-119 4 -8 5 -18 5 -23 -1 -4 18 -7 43 -7 l45 0 0 160 0 160 -160 0 -160 0 0
-160z"/>
<path fill="#000000" stroke="none" d="M138 40 l-17 -40 39 0 39 0 -17 40 c-9
22 -19 40 -22 40 -3 0 -13 -18 -22 -40z"/>
</g>
</svg>
