<?xml version="1.0" standalone="no"?>
<!DOCTYPE svg PUBLIC "-//W3C//DTD SVG 20010904//EN"
 "http://www.w3.org/TR/2001/REC-SVG-20010904/DTD/svg10.dtd">
<svg version="1.0" xmlns="http://www.w3.org/2000/svg"
 width="32.000000pt" height="32.000000pt" viewBox="0 0 32.000000 32.000000"
 preserveAspectRatio="xMidYMid meet">
<metadata>
Created by potrace 1.16, written by Peter Selinger 2001-2019
</metadata>
<g transform="translate(0.000000,32.000000) scale(0.100000,-0.100000)"
fill="#000000" stroke="none">
<path fill="#000000" stroke="none" d="M0 160 l0 -160 44 0 c30 0 48 6 57 18
13 16 13 16 -5 2 -18 -14 -18 -14 -8 5 10 19 32 103 32 124 0 6 -9 2 -20 -9
-11 -11 -25 -20 -30 -20 -19 0 -23 31 -6 48 39 41 64 79 68 102 5 36 51 36 56
0 4 -22 28 -60 67 -101 17 -18 19 -35 5 -44 -12 -7 -50 12 -50 26 0 6 5 7 10
4 15 -9 12 7 -8 40 -16 25 -25 30 -57 30 -33 0 -41 -5 -57 -34 -23 -41 -17
-53 8 -16 16 25 19 26 24 9 4 -10 1 -43 -7 -72 -16 -62 -12 -90 7 -49 15 31
46 36 55 8 3 -11 15 -31 26 -45 17 -21 29 -26 65 -26 l44 0 0 160 0 160 -160
0 -160 0 0 -160z"/>
<path fill="#ffffff" stroke="none" d="M205 160 c-8 -13 14 -120 29 -140 10
-13 9 -13 -6 -1 -10 7 -18 21 -18 30 0 30 -21 92 -30 86 -4 -3 -3 11 3 30 8
28 13 33 19 20 5 -8 6 -20 3 -25z"/>
<path fill="#000000" stroke="none" d="M146 282 c-8 -13 0 -46 12 -50 7 -2 10
2 6 11 -3 8 0 18 5 22 6 3 9 11 6 16 -8 11 -22 12 -29 1z"/>
<path fill="#000000" stroke="none" d="M61 144 c0 -11 3 -14 6 -6 3 7 2 16 -1
19 -3 4 -6 -2 -5 -13z"/>
<path fill="#000000" stroke="none" d="M241 144 c0 -11 3 -14 6 -6 3 7 2 16
-1 19 -3 4 -6 -2 -5 -13z"/>
<path fill="#000000" stroke="none" d="M138 40 l-17 -40 39 0 39 0 -17 40 c-9
22 -19 40 -22 40 -3 0 -13 -18 -22 -40z"/>
</g>
</svg>
