<?xml version="1.0" standalone="no"?>
<!DOCTYPE svg PUBLIC "-//W3C//DTD SVG 20010904//EN"
 "http://www.w3.org/TR/2001/REC-SVG-20010904/DTD/svg10.dtd">
<svg version="1.0" xmlns="http://www.w3.org/2000/svg"
 width="32.000000pt" height="32.000000pt" viewBox="0 0 32.000000 32.000000"
 preserveAspectRatio="xMidYMid meet">
<metadata>
Created by potrace 1.16, written by Peter Selinger 2001-2019
</metadata>
<g transform="translate(0.000000,32.000000) scale(0.100000,-0.100000)"
fill="#000000" stroke="none">
<path fill="#000000" stroke="none" d="M0 161 l0 -159 160 0 160 0 0 159 0
159 -160 0 -160 0 0 -159z"/>
<path fill="#ffffff" stroke="none" d="M188 270 c4 -23 29 -61 68 -102 17 -17
13 -48 -6 -48 -5 0 -19 9 -30 20 -11 11 -20 15 -20 9 0 -21 22 -105 32 -124
10 -17 9 -18 -4 -7 -9 7 -19 33 -22 57 -4 25 -10 44 -14 44 -19 -3 -23 2 -12
16 7 8 10 21 7 30 -10 24 11 27 24 3 12 -23 28 -38 42 -38 12 0 8 19 -8 38
-44 50 -65 82 -65 101 0 14 -6 21 -20 21 -14 0 -20 -7 -20 -21 0 -19 -21 -51
-65 -101 -17 -20 -20 -38 -5 -38 10 0 21 11 45 45 14 19 14 19 15 -7 0 -14 3
-34 7 -44 4 -11 3 -15 -5 -10 -7 4 -13 -9 -17 -38 -4 -25 -14 -51 -23 -58 -13
-11 -14 -10 -4 7 10 19 32 103 32 124 0 6 -9 2 -20 -9 -11 -11 -25 -20 -30
-20 -19 0 -23 31 -6 48 40 42 66 81 66 99 0 26 10 34 35 31 13 -2 21 -12 23
-28z"/>
<path fill="#ffffff" stroke="none" d="M181 70 c4 -14 9 -34 13 -45 3 -11 -2
-3 -12 17 -9 21 -19 38 -22 38 -3 0 -13 -17 -22 -38 -10 -20 -15 -28 -12 -17
4 11 9 32 11 46 6 34 36 33 44 -1z"/>
</g>
</svg>
