<?xml version="1.0" standalone="no"?>
<!DOCTYPE svg PUBLIC "-//W3C//DTD SVG 20010904//EN"
 "http://www.w3.org/TR/2001/REC-SVG-20010904/DTD/svg10.dtd">
<svg version="1.0" xmlns="http://www.w3.org/2000/svg"
 width="32.000000pt" height="32.000000pt" viewBox="0 0 32.000000 32.000000"
 preserveAspectRatio="xMidYMid meet">
<metadata>
Created by potrace 1.16, written by Peter Selinger 2001-2019
</metadata>
<g transform="translate(0.000000,32.000000) scale(0.100000,-0.100000)"
fill="#000000" stroke="none">
<path fill="#000000" stroke="none" d="M137 294 c-4 -4 -7 -16 -7 -27 0 -18
-26 -57 -66 -99 -17 -17 -13 -48 6 -48 5 0 19 9 30 20 11 11 20 15 20 9 0 -20
-21 -104 -31 -122 -7 -13 -5 -19 7 -24 19 -7 41 18 51 55 3 12 9 22 13 22 4 0
10 -10 13 -22 10 -38 32 -62 51 -55 11 4 14 11 9 19 -4 7 -13 33 -20 58 l-12
45 6 -45 c3 -25 10 -51 17 -59 8 -12 8 -13 -2 -7 -6 4 -19 21 -27 37 -14 26
-14 34 -1 74 21 59 14 72 -34 69 -28 -1 -46 -9 -60 -25 -24 -29 -25 -15 -1 26
15 25 24 30 56 30 32 0 41 -5 57 -30 20 -33 23 -49 8 -40 -5 3 -10 2 -10 -4 0
-14 38 -33 50 -26 14 9 12 26 -5 44 -39 41 -63 79 -67 101 -3 25 -35 39 -51
24z"/>
<path fill="#ffffff" stroke="none" d="M175 281 c3 -5 0 -13 -6 -16 -5 -4 -8
-14 -5 -22 4 -9 1 -13 -6 -11 -12 4 -20 37 -12 50 7 11 21 10 29 -1z"/>
<path fill="#ffffff" stroke="none" d="M180 155 c0 -9 -7 -18 -16 -22 -18 -7
-39 11 -30 26 11 17 46 13 46 -4z"/>
<path fill="#ffffff" stroke="none" d="M67 138 c-3 -8 -6 -5 -6 6 -1 11 2 17
5 13 3 -3 4 -12 1 -19z"/>
<path fill="#ffffff" stroke="none" d="M247 138 c-3 -8 -6 -5 -6 6 -1 11 2 17
5 13 3 -3 4 -12 1 -19z"/>
<path fill="#ffffff" stroke="none" d="M131 63 c-16 -35 -24 -23 -15 22 6 31
8 35 16 20 7 -11 6 -26 -1 -42z"/>
</g>
</svg>
