<?xml version="1.0" standalone="no"?>
<!DOCTYPE svg PUBLIC "-//W3C//DTD SVG 20010904//EN"
 "http://www.w3.org/TR/2001/REC-SVG-20010904/DTD/svg10.dtd">
<svg version="1.0" xmlns="http://www.w3.org/2000/svg"
 width="32.000000pt" height="32.000000pt" viewBox="0 0 32.000000 32.000000"
 preserveAspectRatio="xMidYMid meet">
<metadata>
Created by potrace 1.16, written by Peter Selinger 2001-2019
</metadata>
<g transform="translate(0.000000,32.000000) scale(0.100000,-0.100000)"
fill="#000000" stroke="none">
<path fill="#000000" stroke="none" d="M0 160 l0 -160 160 0 160 0 0 160 0
160 -160 0 -160 0 0 -160z"/>
<path fill="#ffffff" stroke="none" d="M180 275 c9 -11 9 -15 1 -15 -7 0 -10
-4 -7 -8 2 -4 -4 -8 -14 -8 -10 0 -16 4 -14 8 3 4 0 8 -7 8 -8 0 -8 4 1 15 7
8 16 15 20 15 4 0 13 -7 20 -15z"/>
<path fill="#ffffff" stroke="none" d="M193 216 c9 -7 17 -20 17 -28 0 -18 24
-41 33 -31 4 3 7 -1 7 -11 0 -15 -2 -15 -25 0 -14 9 -25 22 -25 28 0 7 -7 21
-16 32 -14 18 -15 18 -4 -3 7 -16 7 -23 0 -23 -5 0 -9 -3 -9 -7 5 -28 -2 -42
-18 -36 -11 4 -14 3 -9 -5 4 -7 16 -12 26 -12 24 0 30 -10 19 -35 -7 -19 -8
-19 -8 3 -1 28 -18 28 -44 0 l-20 -23 8 40 c8 46 13 57 24 51 4 -3 8 1 8 8 0
9 -7 12 -15 8 -12 -4 -14 -1 -9 14 5 13 0 11 -16 -8 -29 -36 -43 -36 -20 0 33
52 62 63 96 38z"/>
<path fill="#ffffff" stroke="none" d="M67 138 c-3 -8 -6 -5 -6 6 -1 11 2 17
5 13 3 -3 4 -12 1 -19z"/>
<path fill="#000000" stroke="none" d="M146 207 c3 -10 9 -15 12 -12 3 3 0 11
-7 18 -10 9 -11 8 -5 -6z"/>
</g>
</svg>
