<?xml version="1.0" standalone="no"?>
<!DOCTYPE svg PUBLIC "-//W3C//DTD SVG 20010904//EN"
 "http://www.w3.org/TR/2001/REC-SVG-20010904/DTD/svg10.dtd">
<svg version="1.0" xmlns="http://www.w3.org/2000/svg"
 width="32.000000pt" height="32.000000pt" viewBox="0 0 32.000000 32.000000"
 preserveAspectRatio="xMidYMid meet">
<metadata>
Created by potrace 1.16, written by Peter Selinger 2001-2019
</metadata>
<g transform="translate(0.000000,32.000000) scale(0.100000,-0.100000)"
fill="#000000" stroke="none">
<path fill="#000000" stroke="none" d="M0 160 l0 -160 160 0 160 0 0 160 0
160 -160 0 -160 0 0 -160z"/>
<path fill="#ffffff" stroke="none" d="M177 278 c4 -7 8 -17 8 -23 0 -11 31
-57 58 -86 19 -21 22 -39 7 -39 -10 0 -21 11 -45 45 -14 19 -14 19 -15 -10 0
-17 4 -45 9 -63 8 -25 7 -32 -4 -32 -8 0 -17 9 -20 20 -3 11 -10 20 -15 20 -5
0 -12 -9 -15 -20 -3 -11 -12 -20 -20 -20 -11 0 -12 7 -4 32 5 18 9 46 9 63 -1
29 -1 29 -15 10 -24 -34 -35 -45 -45 -45 -15 0 -12 18 8 39 26 29 57 75 57 86
1 15 15 35 25 35 5 0 12 -6 17 -12z"/>
<path fill="#ffffff" stroke="none" d="M119 256 c9 -11 9 -16 1 -21 -7 -4 -20
-21 -30 -38 l-19 -30 -6 37 c-11 54 25 87 54 52z"/>
<path fill="#ffffff" stroke="none" d="M250 255 c8 -10 10 -28 5 -51 l-6 -37
-19 30 c-10 17 -23 34 -30 38 -8 5 -8 10 1 21 15 18 33 18 49 -1z"/>
<path fill="#ffffff" stroke="none" d="M101 107 c-20 -20 -21 -20 -21 -3 0 10
8 25 18 32 26 19 28 -4 3 -29z"/>
<path fill="#ffffff" stroke="none" d="M240 106 c0 -18 -1 -19 -20 -1 -11 10
-20 24 -20 32 0 11 4 11 20 1 11 -7 20 -21 20 -32z"/>
<path fill="#ffffff" stroke="none" d="M137 54 c-3 -3 -12 -4 -19 -1 -8 3 -5
6 6 6 11 1 17 -2 13 -5z"/>
<path fill="#ffffff" stroke="none" d="M207 54 c-3 -3 -12 -4 -19 -1 -8 3 -5
6 6 6 11 1 17 -2 13 -5z"/>
<path fill="#ffffff" stroke="none" d="M127 34 c-3 -3 -12 -4 -19 -1 -8 3 -5
6 6 6 11 1 17 -2 13 -5z"/>
<path fill="#ffffff" stroke="none" d="M217 34 c-3 -3 -12 -4 -19 -1 -8 3 -5
6 6 6 11 1 17 -2 13 -5z"/>
</g>
</svg>
