<?xml version="1.0" standalone="no"?>
<!DOCTYPE svg PUBLIC "-//W3C//DTD SVG 20010904//EN"
 "http://www.w3.org/TR/2001/REC-SVG-20010904/DTD/svg10.dtd">
<svg version="1.0" xmlns="http://www.w3.org/2000/svg"
 width="32.000000pt" height="32.000000pt" viewBox="0 0 32.000000 32.000000"
 preserveAspectRatio="xMidYMid meet">
<metadata>
Created by potrace 1.16, written by Peter Selinger 2001-2019
</metadata>
<g transform="translate(0.000000,32.000000) scale(0.100000,-0.100000)"
fill="#000000" stroke="none">
<path fill="#000000" stroke="none" d="M148 262 c-4 -12 1 -18 13 -18 12 0 15
4 9 12 -6 6 -7 14 -3 17 3 4 2 7 -4 7 -6 0 -13 -8 -15 -18z"/>
<path fill="#000000" stroke="none" d="M150 221 c0 -6 4 -12 8 -15 5 -3 9 1 9
9 0 8 -4 15 -9 15 -4 0 -8 -4 -8 -9z"/>
<path fill="#000000" stroke="none" d="M119 203 c-34 -41 -41 -53 -31 -53 5 0
19 16 31 35 22 38 22 45 0 18z"/>
<path fill="#000000" stroke="none" d="M191 203 c7 -12 15 -20 18 -17 3 2 -3
12 -13 22 -17 16 -18 16 -5 -5z"/>
<path fill="#000000" stroke="none" d="M140 179 c0 -5 5 -7 10 -4 6 3 10 -1
10 -10 0 -9 5 -13 10 -10 6 4 8 10 5 15 -3 4 1 11 7 13 7 3 1 6 -14 6 -16 1
-28 -4 -28 -10z"/>
<path fill="#000000" stroke="none" d="M200 166 c0 -2 7 -7 16 -10 8 -3 12 -2
9 4 -6 10 -25 14 -25 6z"/>
<path fill="#000000" stroke="none" d="M61 144 c0 -11 3 -14 6 -6 3 7 2 16 -1
19 -3 4 -6 -2 -5 -13z"/>
<path fill="#000000" stroke="none" d="M241 144 c0 -11 3 -14 6 -6 3 7 2 16
-1 19 -3 4 -6 -2 -5 -13z"/>
<path fill="#000000" stroke="none" d="M125 111 c-8 -27 -2 -36 13 -18 6 7 7
18 3 26 -7 10 -10 8 -16 -8z"/>
</g>
</svg>
