<?xml version="1.0" standalone="no"?>
<!DOCTYPE svg PUBLIC "-//W3C//DTD SVG 20010904//EN"
 "http://www.w3.org/TR/2001/REC-SVG-20010904/DTD/svg10.dtd">
<svg version="1.0" xmlns="http://www.w3.org/2000/svg"
 width="32.000000pt" height="32.000000pt" viewBox="0 0 32.000000 32.000000"
 preserveAspectRatio="xMidYMid meet">
<metadata>
Created by potrace 1.16, written by Peter Selinger 2001-2019
</metadata>
<g transform="translate(0.000000,32.000000) scale(0.100000,-0.100000)"
fill="#000000" stroke="none">
<path fill="#000000" stroke="none" d="M150 265 c0 -8 5 -15 10 -15 6 0 10 7
10 15 0 8 -4 15 -10 15 -5 0 -10 -7 -10 -15z"/>
<path fill="#000000" stroke="none" d="M130 220 c-11 -7 -11 -10 -2 -10 7 0
10 -5 7 -10 -4 -6 -1 -9 7 -8 7 2 12 -3 11 -9 -2 -7 2 -13 7 -13 15 0 12 16
-6 34 -14 15 -14 16 0 16 9 0 16 -7 16 -15 0 -8 5 -15 10 -15 6 0 10 5 10 11
0 5 5 7 12 3 7 -4 8 -3 4 5 -4 6 -12 9 -17 6 -5 -4 -9 -1 -9 4 0 14 -30 14
-50 1z"/>
<path fill="#000000" stroke="none" d="M104 202 c3 -5 0 -13 -6 -15 -9 -4 -10
-6 -1 -6 17 -1 25 16 12 25 -7 4 -9 3 -5 -4z"/>
<path fill="#000000" stroke="none" d="M210 169 c7 -11 14 -19 16 -16 7 7 -7
37 -17 37 -6 0 -5 -9 1 -21z"/>
<path fill="#000000" stroke="none" d="M61 144 c0 -11 3 -14 6 -6 3 7 2 16 -1
19 -3 4 -6 -2 -5 -13z"/>
<path fill="#000000" stroke="none" d="M241 144 c0 -11 3 -14 6 -6 3 7 2 16
-1 19 -3 4 -6 -2 -5 -13z"/>
<path fill="#000000" stroke="none" d="M118 95 c-4 -20 -2 -23 8 -14 7 6 10
17 7 25 -7 20 -10 18 -15 -11z"/>
<path fill="#000000" stroke="none" d="M182 90 c0 -14 2 -19 5 -12 2 6 2 18 0
25 -3 6 -5 1 -5 -13z"/>
</g>
</svg>
