<?xml version="1.0" standalone="no"?>
<!DOCTYPE svg PUBLIC "-//W3C//DTD SVG 20010904//EN"
 "http://www.w3.org/TR/2001/REC-SVG-20010904/DTD/svg10.dtd">
<svg version="1.0" xmlns="http://www.w3.org/2000/svg"
 width="32.000000pt" height="32.000000pt" viewBox="0 0 32.000000 32.000000"
 preserveAspectRatio="xMidYMid meet">
<metadata>
Created by potrace 1.16, written by Peter Selinger 2001-2019
</metadata>
<g transform="translate(0.000000,32.000000) scale(0.100000,-0.100000)"
fill="#000000" stroke="none">
<path fill="#000000" stroke="none" d="M48 211 c-2 -47 -2 -114 0 -148 l3 -63
109 0 109 0 3 63 c2 34 2 101 0 148 l-3 86 -109 0 -109 1 -3 -87z"/>
<path fill="#ffffff" stroke="none" d="M130 273 c0 -3 -8 -2 -17 1 -17 6 -17
5 0 -8 23 -18 21 -26 -7 -26 -17 0 -23 5 -22 18 0 9 5 20 10 24 9 6 36 0 36
-9z"/>
<path fill="#ffffff" stroke="none" d="M154 278 c-5 -7 -2 -9 8 -6 11 5 15 0
13 -20 -3 -43 -4 -45 -19 -33 -9 8 -16 8 -20 2 -4 -5 2 -14 11 -20 10 -6 13
-11 6 -11 -6 0 -14 4 -18 10 -3 5 -13 6 -23 3 -11 -4 -8 2 8 16 14 13 26 31
26 42 2 26 3 29 10 29 3 0 2 -5 -2 -12z"/>
<path fill="#ffffff" stroke="none" d="M234 249 c-6 -10 -44 -12 -44 -3 0 4 8
13 18 20 16 13 16 14 -3 8 -16 -5 -17 -4 -5 5 11 8 18 7 27 -6 7 -9 10 -20 7
-24z"/>
<path fill="#ffffff" stroke="none" d="M173 135 c-6 -18 -34 -16 -41 3 -2 7 6
12 22 12 19 0 24 -4 19 -15z"/>
<path fill="#ffffff" stroke="none" d="M135 91 c3 -5 2 -12 -3 -15 -5 -3 -9 1
-9 9 0 17 3 19 12 6z"/>
</g>
</svg>
