<?xml version="1.0" standalone="no"?>
<!DOCTYPE svg PUBLIC "-//W3C//DTD SVG 20010904//EN"
 "http://www.w3.org/TR/2001/REC-SVG-20010904/DTD/svg10.dtd">
<svg version="1.0" xmlns="http://www.w3.org/2000/svg"
 width="32.000000pt" height="32.000000pt" viewBox="0 0 32.000000 32.000000"
 preserveAspectRatio="xMidYMid meet">
<metadata>
Created by potrace 1.16, written by Peter Selinger 2001-2019
</metadata>
<g transform="translate(0.000000,32.000000) scale(0.100000,-0.100000)"
fill="#000000" stroke="none">
<path fill="#000000" stroke="none" d="M151 306 c9 -8 119 -55 119 -51 0 7
-98 55 -111 55 -7 0 -10 -2 -8 -4z"/>
<path fill="#000000" stroke="none" d="M107 251 c-21 -21 -39 -45 -40 -52 -2
-8 -6 -20 -11 -27 -5 -8 -4 -18 2 -24 6 -6 12 -6 17 3 6 8 4 10 -5 4 -9 -6
-11 -4 -6 4 6 9 12 9 25 -3 10 -9 20 -14 23 -11 3 3 13 -5 24 -17 12 -14 13
-18 3 -10 -9 6 -20 8 -24 4 -5 -4 -5 0 0 8 5 8 5 12 0 8 -4 -4 -15 -2 -24 4
-10 8 -9 4 3 -9 10 -13 22 -20 27 -18 4 3 11 1 14 -5 5 -8 11 -7 21 1 13 10
18 6 15 -13 -2 -13 6 -9 20 9 12 15 12 16 -1 8 -9 -5 -8 0 4 13 11 12 21 20
23 18 8 -8 70 59 66 71 -3 7 -8 11 -12 8 -4 -2 -22 5 -39 16 -36 21 -57 25
-46 7 4 -7 3 -8 -5 -4 -6 4 -9 12 -6 17 4 5 0 9 -7 9 -7 0 -18 -8 -25 -19 -13
-20 -73 -67 -73 -56 0 4 21 26 46 51 26 24 43 44 38 43 -5 0 -26 -17 -47 -38z"/>
<path fill="#000000" stroke="none" d="M230 125 l-63 -64 -79 40 c-59 30 -78
36 -78 24 0 -8 5 -15 11 -15 5 0 7 -5 4 -10 -4 -6 -12 -7 -18 -4 -7 4 -8 3 -4
-2 5 -5 12 -9 16 -9 5 0 36 -13 70 -30 l62 -29 76 77 c43 42 75 79 72 81 -3 3
-34 -23 -69 -59z"/>
<path fill="#000000" stroke="none" d="M19 163 c-13 -16 -12 -17 4 -4 16 13
21 21 13 21 -2 0 -10 -8 -17 -17z"/>
</g>
</svg>
