<?xml version="1.0" standalone="no"?>
<!DOCTYPE svg PUBLIC "-//W3C//DTD SVG 20010904//EN"
 "http://www.w3.org/TR/2001/REC-SVG-20010904/DTD/svg10.dtd">
<svg version="1.0" xmlns="http://www.w3.org/2000/svg"
 width="32.000000pt" height="32.000000pt" viewBox="0 0 32.000000 32.000000"
 preserveAspectRatio="xMidYMid meet">
<metadata>
Created by potrace 1.16, written by Peter Selinger 2001-2019
</metadata>
<g transform="translate(0.000000,32.000000) scale(0.100000,-0.100000)"
fill="#000000" stroke="none">
<path fill="#000000" stroke="none" d="M0 212 c0 -73 4 -112 13 -121 9 -11 9
-13 0 -7 -10 5 -13 -5 -13 -38 l0 -46 160 0 160 0 0 160 0 160 -160 0 -160 0
0 -108z"/>
<path fill="#ffffff" stroke="none" d="M218 286 c26 -14 56 -32 67 -41 13 -11
7 -9 -15 4 -20 11 -56 29 -80 40 -25 11 -39 20 -32 20 7 1 34 -10 60 -23z"/>
<path fill="#ffffff" stroke="none" d="M138 267 c-44 -44 -73 -61 -33 -20 22
23 44 42 48 42 4 1 -2 -9 -15 -22z"/>
<path fill="#ffffff" stroke="none" d="M190 200 c17 -33 28 -60 25 -60 -2 0
-18 26 -34 58 -38 72 -40 62 -4 -13 25 -51 26 -56 11 -71 -15 -15 -19 -12 -47
45 -17 33 -29 61 -26 61 2 0 18 -26 34 -57 37 -72 41 -63 4 11 -22 46 -24 57
-14 70 8 9 15 16 17 16 2 0 17 -27 34 -60z"/>
<path fill="#ffffff" stroke="none" d="M230 105 l-73 -74 -69 35 c-61 31 -89
56 -76 69 2 3 38 -13 79 -35 l75 -39 64 64 c35 35 66 62 69 59 3 -2 -28 -38
-69 -79z"/>
<path fill="#ffffff" stroke="none" d="M40 176 c0 -2 -8 -10 -17 -17 -16 -13
-17 -12 -4 4 13 16 21 21 21 13z"/>
</g>
</svg>
