<?xml version="1.0" standalone="no"?>
<!DOCTYPE svg PUBLIC "-//W3C//DTD SVG 20010904//EN"
 "http://www.w3.org/TR/2001/REC-SVG-20010904/DTD/svg10.dtd">
<svg version="1.0" xmlns="http://www.w3.org/2000/svg"
 width="32.000000pt" height="32.000000pt" viewBox="0 0 32.000000 32.000000"
 preserveAspectRatio="xMidYMid meet">
<metadata>
Created by potrace 1.16, written by Peter Selinger 2001-2019
</metadata>
<g transform="translate(0.000000,32.000000) scale(0.100000,-0.100000)"
fill="#000000" stroke="none">
<path fill="#000000" stroke="none" d="M1 160 l0 -160 160 0 159 0 0 160 0
160 -160 0 -160 0 1 -160z"/>
<path fill="#ffffff" stroke="none" d="M218 286 c26 -14 56 -32 67 -41 11 -9
-5 -2 -36 15 -31 16 -61 30 -68 30 -6 0 -31 -18 -55 -40 l-44 -41 29 -52 c16
-29 29 -56 28 -62 0 -5 -13 16 -30 48 -16 32 -34 55 -39 52 -23 -14 -7 9 34
50 24 25 50 45 57 45 11 0 11 2 -1 10 -31 20 11 10 58 -14z"/>
<path fill="#ffffff" stroke="none" d="M237 217 c24 -47 25 -48 44 -31 15 13
19 14 19 3 0 -8 -34 -48 -75 -89 l-74 -74 -62 30 c-35 16 -65 28 -69 27 -14
-4 -10 74 5 87 17 14 21 0 4 -17 -9 -9 4 -19 49 -42 34 -17 64 -27 67 -21 3 5
-6 32 -20 61 l-27 51 33 34 c46 48 74 43 106 -19z"/>
<path fill="#000000" stroke="none" d="M200 257 c0 -4 10 -26 21 -49 l21 -42
-46 -44 c-26 -24 -44 -47 -41 -50 3 -3 27 16 54 43 l48 50 -28 50 c-16 28 -29
46 -29 42z"/>
</g>
</svg>
