<?xml version="1.0" standalone="no"?>
<!DOCTYPE svg PUBLIC "-//W3C//DTD SVG 20010904//EN"
 "http://www.w3.org/TR/2001/REC-SVG-20010904/DTD/svg10.dtd">
<svg version="1.0" xmlns="http://www.w3.org/2000/svg"
 width="32.000000pt" height="32.000000pt" viewBox="0 0 32.000000 32.000000"
 preserveAspectRatio="xMidYMid meet">
<metadata>
Created by potrace 1.16, written by Peter Selinger 2001-2019
</metadata>
<g transform="translate(0.000000,32.000000) scale(0.100000,-0.100000)"
fill="#000000" stroke="none">
<path fill="#000000" stroke="none" d="M106 249 c-52 -51 -36 -51 20 1 24 22
38 40 31 39 -6 0 -30 -18 -51 -40z"/>
<path fill="#000000" stroke="none" d="M139 244 c-10 -13 -8 -24 14 -70 37
-74 33 -83 -4 -11 -16 31 -32 57 -34 57 -3 0 9 -28 26 -61 28 -57 32 -60 47
-45 15 15 14 20 -11 71 -36 75 -34 85 4 13 16 -32 32 -58 34 -58 3 0 -8 27
-25 60 -17 33 -32 60 -34 60 -2 0 -9 -7 -17 -16z"/>
<path fill="#000000" stroke="none" d="M229 134 l-66 -66 -73 37 c-54 27 -70
39 -61 48 17 17 13 31 -4 17 -8 -7 -15 -24 -15 -39 0 -23 10 -31 74 -63 l73
-36 73 73 c40 40 71 78 69 84 -2 6 -34 -19 -70 -55z"/>
</g>
</svg>
