<?xml version="1.0" standalone="no"?>
<!DOCTYPE svg PUBLIC "-//W3C//DTD SVG 20010904//EN"
 "http://www.w3.org/TR/2001/REC-SVG-20010904/DTD/svg10.dtd">
<svg version="1.0" xmlns="http://www.w3.org/2000/svg"
 width="32.000000pt" height="32.000000pt" viewBox="0 0 32.000000 32.000000"
 preserveAspectRatio="xMidYMid meet">
<metadata>
Created by potrace 1.16, written by Peter Selinger 2001-2019
</metadata>
<g transform="translate(0.000000,32.000000) scale(0.100000,-0.100000)"
fill="#000000" stroke="none">
<path fill="#000000" stroke="none" d="M151 306 c9 -8 119 -55 119 -51 0 7
-98 55 -111 55 -7 0 -10 -2 -8 -4z"/>
<path fill="#000000" stroke="none" d="M135 280 c-3 -6 1 -7 9 -4 18 7 21 14
7 14 -6 0 -13 -4 -16 -10z"/>
<path fill="#000000" stroke="none" d="M84 228 l-19 -23 23 19 c21 18 27 26
19 26 -2 0 -12 -10 -23 -22z"/>
<path fill="#000000" stroke="none" d="M196 241 c-4 -5 -2 -12 3 -15 5 -4 12
-2 15 3 4 5 2 12 -3 15 -5 4 -12 2 -15 -3z"/>
<path fill="#000000" stroke="none" d="M97 200 c-23 -22 -35 -39 -27 -38 8 2
14 -2 13 -9 -3 -12 14 -12 34 0 6 4 15 3 18 -3 5 -8 11 -8 19 -1 9 8 13 7 13
-3 0 -15 -14 -15 -37 -1 -12 7 -13 6 -3 -7 7 -8 10 -17 7 -21 -13 -12 23 0 53
19 18 12 30 24 26 28 -4 4 1 4 12 0 14 -6 17 -4 12 9 -4 12 -2 14 10 10 13 -5
15 -2 10 11 -6 14 -3 17 8 12 9 -3 13 -2 10 4 -3 6 -14 10 -24 10 -20 0 -44
-23 -36 -33 3 -4 2 -5 -1 -3 -3 2 -6 8 -6 13 1 16 -31 43 -50 43 -10 0 -38
-18 -61 -40z"/>
<path fill="#ffffff" stroke="none" d="M139 187 c8 -10 7 -14 -2 -14 -8 0 -14
6 -14 14 0 7 1 13 2 13 2 0 8 -6 14 -13z"/>
<path fill="#ffffff" stroke="none" d="M195 171 c3 -5 2 -12 -3 -15 -5 -3 -9
1 -9 9 0 17 3 19 12 6z"/>
<path fill="#000000" stroke="none" d="M230 125 l-63 -64 -79 40 c-59 30 -78
36 -78 24 0 -8 5 -15 11 -15 5 0 7 -5 4 -10 -4 -6 -11 -7 -17 -4 -7 4 -8 2 -4
-5 4 -6 11 -9 16 -6 5 3 37 -8 71 -26 l62 -31 76 76 c41 41 73 78 70 80 -3 3
-34 -23 -69 -59z"/>
<path fill="#000000" stroke="none" d="M19 163 c-13 -16 -12 -17 4 -4 16 13
21 21 13 21 -2 0 -10 -8 -17 -17z"/>
</g>
</svg>
