<?xml version="1.0" standalone="no"?>
<!DOCTYPE svg PUBLIC "-//W3C//DTD SVG 20010904//EN"
 "http://www.w3.org/TR/2001/REC-SVG-20010904/DTD/svg10.dtd">
<svg version="1.0" xmlns="http://www.w3.org/2000/svg"
 width="32.000000pt" height="32.000000pt" viewBox="0 0 32.000000 32.000000"
 preserveAspectRatio="xMidYMid meet">
<metadata>
Created by potrace 1.16, written by Peter Selinger 2001-2019
</metadata>
<g transform="translate(0.000000,32.000000) scale(0.100000,-0.100000)"
fill="#000000" stroke="none">
<path fill="#000000" stroke="none" d="M1 160 l0 -160 160 0 159 0 0 160 0
160 -160 0 -160 0 1 -160z"/>
<path fill="#ffffff" stroke="none" d="M220 285 c28 -14 50 -27 50 -30 0 -4
-110 43 -119 51 -15 13 28 0 69 -21z"/>
<path fill="#ffffff" stroke="none" d="M218 265 c30 -14 59 -22 65 -18 5 3 7
1 4 -4 -4 -6 -1 -13 6 -16 7 -3 12 -17 12 -31 -1 -19 -23 -49 -75 -101 l-73
-74 -67 34 c-37 19 -69 32 -72 30 -2 -2 -5 12 -6 32 -3 33 4 43 65 105 37 37
72 68 78 68 5 0 34 -11 63 -25z"/>
</g>
</svg>
