<?xml version="1.0" standalone="no"?>
<!DOCTYPE svg PUBLIC "-//W3C//DTD SVG 20010904//EN"
 "http://www.w3.org/TR/2001/REC-SVG-20010904/DTD/svg10.dtd">
<svg version="1.0" xmlns="http://www.w3.org/2000/svg"
 width="32.000000pt" height="32.000000pt" viewBox="0 0 32.000000 32.000000"
 preserveAspectRatio="xMidYMid meet">
<metadata>
Created by potrace 1.16, written by Peter Selinger 2001-2019
</metadata>
<g transform="translate(0.000000,32.000000) scale(0.100000,-0.100000)"
fill="#000000" stroke="none">
<path fill="#000000" stroke="none" d="M133 226 c-3 -6 -3 -8 2 -4 4 4 13 3
20 -2 8 -7 12 -5 12 3 0 16 -25 18 -34 3z"/>
<path fill="#000000" stroke="none" d="M231 207 c-8 -10 -7 -14 2 -14 8 0 14
6 14 14 0 7 -1 13 -2 13 -2 0 -8 -6 -14 -13z"/>
<path fill="#000000" stroke="none" d="M101 197 c-8 -10 -7 -14 2 -14 8 0 14
6 14 14 0 7 -1 13 -2 13 -2 0 -8 -6 -14 -13z"/>
<path fill="#000000" stroke="none" d="M137 200 c7 -8 20 -15 29 -16 9 -1 13
1 9 4 -4 4 -10 7 -13 7 -4 0 -14 4 -22 9 -12 7 -13 6 -3 -4z"/>
<path fill="#000000" stroke="none" d="M136 158 c3 -5 10 -6 15 -3 13 9 11 12
-6 12 -8 0 -12 -4 -9 -9z"/>
<path fill="#000000" stroke="none" d="M30 108 c0 -8 30 -28 66 -46 84 -41 80
-19 -4 26 -42 22 -62 29 -62 20z"/>
</g>
</svg>
