<?xml version="1.0" standalone="no"?>
<!DOCTYPE svg PUBLIC "-//W3C//DTD SVG 20010904//EN"
 "http://www.w3.org/TR/2001/REC-SVG-20010904/DTD/svg10.dtd">
<svg version="1.0" xmlns="http://www.w3.org/2000/svg"
 width="32.000000pt" height="32.000000pt" viewBox="0 0 32.000000 32.000000"
 preserveAspectRatio="xMidYMid meet">
<metadata>
Created by potrace 1.16, written by Peter Selinger 2001-2019
</metadata>
<g transform="translate(0.000000,32.000000) scale(0.100000,-0.100000)"
fill="#000000" stroke="none">
<path fill="#000000" stroke="none" d="M196 241 c-4 -5 -2 -12 3 -15 5 -4 12
-2 15 3 4 5 2 12 -3 15 -5 4 -12 2 -15 -3z"/>
<path fill="#000000" stroke="none" d="M129 233 c-1 -5 -1 -12 0 -16 1 -5 -2
-6 -7 -3 -5 3 -22 -8 -38 -25 -17 -18 -23 -29 -14 -27 8 2 14 -2 13 -9 -3 -12
14 -12 34 0 6 4 15 3 18 -3 5 -8 11 -8 19 -1 9 8 13 7 13 -3 0 -15 -14 -15
-37 -1 -12 7 -13 6 -3 -7 7 -8 10 -17 7 -21 -13 -12 23 0 53 19 18 12 30 24
26 28 -4 4 1 4 12 0 14 -6 17 -4 12 9 -4 12 -2 14 10 10 13 -5 15 -2 10 11 -6
14 -3 17 8 12 9 -3 13 -2 10 4 -3 6 -14 10 -24 10 -22 0 -44 -23 -33 -35 4 -5
1 -5 -6 -1 -7 5 -11 11 -8 14 11 10 -27 42 -51 42 -12 0 -24 -3 -24 -7z"/>
<path fill="#ffffff" stroke="none" d="M139 187 c8 -10 7 -14 -2 -14 -8 0 -14
6 -14 14 0 7 1 13 2 13 2 0 8 -6 14 -13z"/>
<path fill="#ffffff" stroke="none" d="M195 171 c3 -5 2 -12 -3 -15 -5 -3 -9
1 -9 9 0 17 3 19 12 6z"/>
<path fill="#000000" stroke="none" d="M30 105 c0 -8 27 -28 60 -45 69 -35 70
-35 70 -15 0 8 -27 28 -60 45 -69 35 -70 35 -70 15z"/>
</g>
</svg>
