<?xml version="1.0" standalone="no"?>
<!DOCTYPE svg PUBLIC "-//W3C//DTD SVG 20010904//EN"
 "http://www.w3.org/TR/2001/REC-SVG-20010904/DTD/svg10.dtd">
<svg version="1.0" xmlns="http://www.w3.org/2000/svg"
 width="32.000000pt" height="32.000000pt" viewBox="0 0 32.000000 32.000000"
 preserveAspectRatio="xMidYMid meet">
<metadata>
Created by potrace 1.16, written by Peter Selinger 2001-2019
</metadata>
<g transform="translate(0.000000,32.000000) scale(0.100000,-0.100000)"
fill="#000000" stroke="none">
<path fill="#000000" stroke="none" d="M134 236 c-3 -8 2 -28 10 -45 14 -26
23 -56 25 -85 1 -5 10 -1 21 9 17 16 18 20 5 45 -8 15 -11 30 -8 34 4 3 1 6
-5 6 -7 0 -11 3 -11 8 5 29 -27 54 -37 28z"/>
<path fill="#000000" stroke="none" d="M190 235 c0 -5 5 -17 10 -25 5 -8 10
-10 10 -5 0 6 -5 17 -10 25 -5 8 -10 11 -10 5z"/>
<path fill="#000000" stroke="none" d="M90 184 c0 -6 7 -19 16 -30 14 -18 14
-18 3 6 -14 31 -19 36 -19 24z"/>
<path fill="#000000" stroke="none" d="M20 123 c0 -18 15 -30 71 -59 85 -42
89 -23 5 22 -32 17 -62 37 -67 45 -6 11 -9 8 -9 -8z"/>
</g>
</svg>
