<?xml version="1.0" standalone="no"?>
<!DOCTYPE svg PUBLIC "-//W3C//DTD SVG 20010904//EN"
 "http://www.w3.org/TR/2001/REC-SVG-20010904/DTD/svg10.dtd">
<svg version="1.0" xmlns="http://www.w3.org/2000/svg"
 width="32.000000pt" height="32.000000pt" viewBox="0 0 32.000000 32.000000"
 preserveAspectRatio="xMidYMid meet">
<metadata>
Created by potrace 1.16, written by Peter Selinger 2001-2019
</metadata>
<g transform="translate(0.000000,32.000000) scale(0.100000,-0.100000)"
fill="#000000" stroke="none">
<path fill="#000000" stroke="none" d="M1 160 l0 -160 160 0 159 0 0 160 0
160 -160 0 -160 0 1 -160z"/>
<path fill="#ffffff" stroke="none" d="M176 291 c-7 -10 18 -33 27 -25 3 3 17
-17 31 -45 15 -28 24 -51 21 -51 -2 0 -16 21 -29 48 -31 59 -34 49 -4 -13 l22
-45 -42 -43 c-50 -50 -63 -46 -103 31 -14 28 -30 48 -35 44 -4 -4 5 9 21 29
35 42 109 99 91 70z"/>
<path fill="#ffffff" stroke="none" d="M227 103 l-76 -77 -62 29 c-35 17 -65
29 -68 28 -3 -1 -6 13 -5 30 0 18 5 32 10 32 5 0 8 -3 7 -7 -2 -4 28 -23 65
-42 l69 -35 63 64 c35 36 66 62 69 59 3 -2 -29 -39 -72 -81z"/>
<path fill="#000000" stroke="none" d="M99 223 l-24 -28 28 24 c25 23 32 31
24 31 -2 0 -14 -12 -28 -27z"/>
</g>
</svg>
