<?xml version="1.0" standalone="no"?>
<!DOCTYPE svg PUBLIC "-//W3C//DTD SVG 20010904//EN"
 "http://www.w3.org/TR/2001/REC-SVG-20010904/DTD/svg10.dtd">
<svg version="1.0" xmlns="http://www.w3.org/2000/svg"
 width="32.000000pt" height="32.000000pt" viewBox="0 0 32.000000 32.000000"
 preserveAspectRatio="xMidYMid meet">
<metadata>
Created by potrace 1.16, written by Peter Selinger 2001-2019
</metadata>
<g transform="translate(0.000000,32.000000) scale(0.100000,-0.100000)"
fill="#000000" stroke="none">
<path fill="#000000" stroke="none" d="M0 212 c0 -73 4 -112 13 -121 9 -11 9
-13 0 -7 -10 5 -13 -5 -13 -38 l0 -46 160 0 160 0 0 160 0 160 -160 0 -160 0
0 -108z"/>
<path fill="#ffffff" stroke="none" d="M218 286 c26 -14 56 -32 67 -41 13 -11
7 -9 -15 4 -20 11 -56 29 -80 40 -25 11 -39 20 -32 20 7 1 34 -10 60 -23z"/>
<path fill="#ffffff" stroke="none" d="M155 49 c10 -16 -8 -10 -69 24 -33 18
-61 37 -63 44 -4 12 123 -52 132 -68z"/>
</g>
</svg>
