<?xml version="1.0" standalone="no"?>
<!DOCTYPE svg PUBLIC "-//W3C//DTD SVG 20010904//EN"
 "http://www.w3.org/TR/2001/REC-SVG-20010904/DTD/svg10.dtd">
<svg version="1.0" xmlns="http://www.w3.org/2000/svg"
 width="32.000000pt" height="32.000000pt" viewBox="0 0 32.000000 32.000000"
 preserveAspectRatio="xMidYMid meet">
<metadata>
Created by potrace 1.16, written by Peter Selinger 2001-2019
</metadata>
<g transform="translate(0.000000,32.000000) scale(0.100000,-0.100000)"
fill="#000000" stroke="none">
<path fill="#000000" stroke="none" d="M0 160 l0 -160 160 0 160 0 0 160 0
160 -160 0 -160 0 0 -160z"/>
<path fill="#ffffff" stroke="none" d="M220 285 c0 -10 -10 -15 -27 -16 -16 0
-23 -2 -18 -5 6 -2 9 -43 8 -96 -1 -88 -3 -93 -25 -100 -13 -5 -1 -6 30 -3 46
4 52 2 52 -15 0 -18 -7 -20 -80 -20 -72 0 -80 2 -80 19 0 11 11 28 25 39 22
18 25 27 25 90 0 49 -5 75 -15 86 -28 27 -17 36 45 36 47 0 60 -3 60 -15z"/>
<path fill="#000000" stroke="none" d="M158 283 c7 -3 16 -2 19 1 4 3 -2 6
-13 5 -11 0 -14 -3 -6 -6z"/>
<path fill="#000000" stroke="none" d="M101 77 c-8 -10 -7 -14 2 -14 8 0 14 6
14 14 0 7 -1 13 -2 13 -2 0 -8 -6 -14 -13z"/>
<path fill="#000000" stroke="none" d="M198 43 c7 -3 16 -2 19 1 4 3 -2 6 -13
5 -11 0 -14 -3 -6 -6z"/>
</g>
</svg>
