<?xml version="1.0" standalone="no"?>
<!DOCTYPE svg PUBLIC "-//W3C//DTD SVG 20010904//EN"
 "http://www.w3.org/TR/2001/REC-SVG-20010904/DTD/svg10.dtd">
<svg version="1.0" xmlns="http://www.w3.org/2000/svg"
 width="32.000000pt" height="32.000000pt" viewBox="0 0 32.000000 32.000000"
 preserveAspectRatio="xMidYMid meet">
<metadata>
Created by potrace 1.16, written by Peter Selinger 2001-2019
</metadata>
<g transform="translate(0.000000,32.000000) scale(0.100000,-0.100000)"
fill="#000000" stroke="none">
<path fill="#000000" stroke="none" d="M130 173 c0 -46 -1 -86 -2 -90 -2 -5 6
-9 18 -11 18 -3 21 2 20 30 -1 18 2 44 7 57 7 21 6 22 -8 11 -14 -12 -15 -10
-11 17 4 18 0 37 -9 49 -13 17 -14 11 -15 -63z"/>
<path fill="#000000" stroke="none" d="M80 45 c0 -11 10 -15 33 -14 l32 2 -30
6 c-26 4 -24 6 20 11 l50 7 -52 1 c-41 2 -53 -1 -53 -13z"/>
</g>
</svg>
