<?xml version="1.0" standalone="no"?>
<!DOCTYPE svg PUBLIC "-//W3C//DTD SVG 20010904//EN"
 "http://www.w3.org/TR/2001/REC-SVG-20010904/DTD/svg10.dtd">
<svg version="1.0" xmlns="http://www.w3.org/2000/svg"
 width="32.000000pt" height="32.000000pt" viewBox="0 0 32.000000 32.000000"
 preserveAspectRatio="xMidYMid meet">
<metadata>
Created by potrace 1.16, written by Peter Selinger 2001-2019
</metadata>
<g transform="translate(0.000000,32.000000) scale(0.100000,-0.100000)"
fill="#000000" stroke="none">
<path fill="#000000" stroke="none" d="M0 160 l0 -160 160 0 160 0 0 160 0
160 -160 0 -160 0 0 -160z"/>
<path fill="#ffffff" stroke="none" d="M159 155 c9 5 11 -6 10 -40 -2 -38 -6
-45 -21 -43 -10 2 -19 6 -18 11 0 4 0 26 0 50 0 28 3 37 9 28 5 -7 14 -10 20
-6z"/>
<path fill="#ffffff" stroke="none" d="M106 97 c4 -4 -1 -15 -10 -26 -10 -10
-16 -27 -14 -38 2 -13 -2 -17 -17 -15 -11 2 -28 3 -37 3 -23 0 -23 11 0 40 15
17 21 19 27 9 5 -8 4 -11 -3 -6 -6 4 -16 -4 -23 -16 -11 -20 -10 -21 3 -11 11
10 17 10 28 0 9 -8 11 -9 6 0 -3 6 -2 14 4 18 5 3 7 17 4 30 -4 18 -2 23 10
21 8 -1 19 -5 22 -9z"/>
<path fill="#ffffff" stroke="none" d="M168 53 c-10 -2 -28 -2 -40 0 -13 2 -5
4 17 4 22 1 32 -1 23 -4z"/>
<path fill="#ffffff" stroke="none" d="M137 34 c-3 -3 -12 -4 -19 -1 -8 3 -5
6 6 6 11 1 17 -2 13 -5z"/>
</g>
</svg>
