<?xml version="1.0" standalone="no"?>
<!DOCTYPE svg PUBLIC "-//W3C//DTD SVG 20010904//EN"
 "http://www.w3.org/TR/2001/REC-SVG-20010904/DTD/svg10.dtd">
<svg version="1.0" xmlns="http://www.w3.org/2000/svg"
 width="32.000000pt" height="32.000000pt" viewBox="0 0 32.000000 32.000000"
 preserveAspectRatio="xMidYMid meet">
<metadata>
Created by potrace 1.16, written by Peter Selinger 2001-2019
</metadata>
<g transform="translate(0.000000,32.000000) scale(0.100000,-0.100000)"
fill="#000000" stroke="none">
<path fill="#000000" stroke="none" d="M130 179 c0 -64 -3 -73 -25 -91 -14
-11 -25 -28 -25 -39 0 -17 8 -19 80 -19 73 0 80 2 80 20 0 17 -6 19 -52 15
-33 -3 -44 -2 -29 3 21 6 24 14 23 50 -1 61 -1 64 -10 58 -4 -2 -9 5 -9 17 -2
15 0 18 6 9 6 -11 10 -10 15 4 5 12 1 23 -10 31 -36 27 -44 17 -44 -58z"/>
<path fill="#ffffff" stroke="none" d="M117 77 c0 -8 -6 -14 -14 -14 -9 0 -10
4 -2 14 6 7 12 13 14 13 1 0 2 -6 2 -13z"/>
<path fill="#ffffff" stroke="none" d="M217 44 c-3 -3 -12 -4 -19 -1 -8 3 -5
6 6 6 11 1 17 -2 13 -5z"/>
</g>
</svg>
