<?xml version="1.0" standalone="no"?>
<!DOCTYPE svg PUBLIC "-//W3C//DTD SVG 20010904//EN"
 "http://www.w3.org/TR/2001/REC-SVG-20010904/DTD/svg10.dtd">
<svg version="1.0" xmlns="http://www.w3.org/2000/svg"
 width="32.000000pt" height="32.000000pt" viewBox="0 0 32.000000 32.000000"
 preserveAspectRatio="xMidYMid meet">
<metadata>
Created by potrace 1.16, written by Peter Selinger 2001-2019
</metadata>
<g transform="translate(0.000000,32.000000) scale(0.100000,-0.100000)"
fill="#000000" stroke="none">
<path fill="#000000" stroke="none" d="M85 199 c-31 -60 -53 -114 -50 -119 9
-14 225 -13 225 0 0 6 -7 24 -15 40 -9 17 -13 30 -9 30 4 0 1 6 -5 14 -8 9 -9
16 -2 21 7 3 2 22 -11 50 -18 37 -26 44 -45 41 -13 -3 -23 0 -23 5 0 5 6 9 14
7 8 -2 16 1 18 6 2 5 -7 11 -19 12 -20 3 -30 -10 -78 -107z"/>
<path fill="#ffffff" stroke="none" d="M143 245 c-3 -9 -8 -14 -10 -11 -3 3
-2 9 2 15 9 16 15 13 8 -4z"/>
<path fill="#ffffff" stroke="none" d="M123 177 c-3 -7 3 -4 14 6 22 19 28 15
52 -30 11 -23 11 -23 -45 -23 -49 0 -55 2 -44 15 7 8 17 12 23 8 6 -4 7 -1 1
8 -12 20 -14 40 -3 33 5 -3 6 -11 2 -17z"/>
<path fill="#000000" stroke="none" d="M251 145 c12 -19 23 -35 25 -35 2 0 -4
16 -13 35 -9 19 -20 35 -25 35 -4 0 2 -16 13 -35z"/>
<path fill="#000000" stroke="none" d="M26 63 c-3 -3 -6 -15 -6 -25 0 -17 11
-18 140 -18 118 0 140 2 140 15 0 12 -20 15 -112 17 -130 1 -129 1 -144 10 -6
4 -14 5 -18 1z"/>
<path fill="#ffffff" stroke="none" d="M173 33 c-7 -2 -19 -2 -25 0 -7 3 -2 5
12 5 14 0 19 -2 13 -5z"/>
<path fill="#ffffff" stroke="none" d="M243 33 c-7 -2 -19 -2 -25 0 -7 3 -2 5
12 5 14 0 19 -2 13 -5z"/>
</g>
</svg>
