<?xml version="1.0" standalone="no"?>
<!DOCTYPE svg PUBLIC "-//W3C//DTD SVG 20010904//EN"
 "http://www.w3.org/TR/2001/REC-SVG-20010904/DTD/svg10.dtd">
<svg version="1.0" xmlns="http://www.w3.org/2000/svg"
 width="32.000000pt" height="32.000000pt" viewBox="0 0 32.000000 32.000000"
 preserveAspectRatio="xMidYMid meet">
<metadata>
Created by potrace 1.16, written by Peter Selinger 2001-2019
</metadata>
<g transform="translate(0.000000,32.000000) scale(0.100000,-0.100000)"
fill="#000000" stroke="none">
<path fill="#000000" stroke="none" d="M0 160 l0 -160 160 0 160 0 0 160 0
160 -160 0 -160 0 0 -160z"/>
<path fill="#ffffff" stroke="none" d="M200 290 c0 -11 20 -61 45 -111 25 -49
43 -94 40 -99 -8 -13 -242 -13 -250 0 -3 5 19 59 50 120 52 103 57 110 85 110
23 0 30 -4 30 -20z"/>
<path fill="#ffffff" stroke="none" d="M298 41 c3 -20 -1 -21 -137 -21 -130 0
-141 1 -141 18 0 10 2 21 4 23 2 2 64 3 138 2 126 -2 133 -3 136 -22z"/>
<path fill="#000000" stroke="none" d="M137 165 l-17 -35 40 0 41 0 -16 29
c-22 43 -30 44 -48 6z"/>
</g>
</svg>
