<?xml version="1.0" standalone="no"?>
<!DOCTYPE svg PUBLIC "-//W3C//DTD SVG 20010904//EN"
 "http://www.w3.org/TR/2001/REC-SVG-20010904/DTD/svg10.dtd">
<svg version="1.0" xmlns="http://www.w3.org/2000/svg"
 width="32.000000pt" height="32.000000pt" viewBox="0 0 32.000000 32.000000"
 preserveAspectRatio="xMidYMid meet">
<metadata>
Created by potrace 1.16, written by Peter Selinger 2001-2019
</metadata>
<g transform="translate(0.000000,32.000000) scale(0.100000,-0.100000)"
fill="#000000" stroke="none">
<path fill="#000000" stroke="none" d="M0 160 l0 -160 160 0 160 0 0 160 0
160 -160 0 -160 0 0 -160z"/>
<path fill="#ffffff" stroke="none" d="M183 276 c-1 -16 -5 -31 -7 -34 -8 -7
-36 6 -36 18 0 6 4 9 8 6 4 -2 14 0 22 5 13 8 13 9 0 7 -9 -2 -17 0 -18 5 -6
19 0 28 16 25 12 -2 16 -12 15 -32z"/>
<path fill="#ffffff" stroke="none" d="M60 281 c0 -11 -4 -22 -10 -26 -5 -3
-7 -11 -5 -18 2 -7 6 -50 8 -97 l5 -85 -12 62 c-7 35 -11 76 -8 92 2 16 -1 32
-7 35 -6 4 -11 14 -11 22 0 8 4 13 9 9 5 -3 13 0 17 6 4 7 3 9 -4 5 -6 -3 -13
-2 -17 4 -3 5 3 10 14 10 14 0 21 -6 21 -19z"/>
<path fill="#ffffff" stroke="none" d="M147 196 c-3 -8 6 -12 27 -13 20 0 23
1 9 4 -25 5 -32 33 -8 33 8 0 15 5 15 12 0 6 3 8 7 4 5 -4 -1 -14 -11 -22 -16
-11 -17 -14 -4 -14 8 0 23 10 32 23 l17 22 -13 -25 c-7 -14 -12 -28 -13 -32 0
-3 -3 -10 -8 -14 -8 -9 1 -70 15 -96 5 -12 5 -18 -1 -18 -6 0 -15 17 -20 38
-19 73 -20 77 -16 35 3 -23 8 -48 11 -57 3 -9 2 -16 -4 -16 -5 0 -15 21 -20
48 l-11 47 4 -50 c4 -43 3 -46 -6 -20 -5 17 -7 42 -5 56 3 15 2 30 -1 33 -4 4
-8 21 -9 39 -2 26 -1 29 7 14 6 -10 9 -24 6 -31z"/>
<path fill="#ffffff" stroke="none" d="M107 183 c-3 -10 -5 -4 -5 12 0 17 2
24 5 18 2 -7 2 -21 0 -30z"/>
<path fill="#ffffff" stroke="none" d="M248 190 c-14 -22 -24 -19 -15 5 4 8
11 15 17 15 6 0 6 -7 -2 -20z"/>
<path fill="#ffffff" stroke="none" d="M81 143 c-9 -15 -10 -13 -11 13 0 17 3
34 8 38 11 12 14 -32 3 -51z"/>
<path fill="#ffffff" stroke="none" d="M270 159 c0 -5 -4 -9 -10 -9 -5 0 -10
7 -10 16 0 8 5 12 10 9 6 -3 10 -10 10 -16z"/>
<path fill="#ffffff" stroke="none" d="M65 54 c6 0 61 -2 123 -2 92 -2 112 -5
112 -17 0 -13 -22 -15 -140 -15 -129 0 -140 1 -140 18 0 24 10 33 24 24 6 -3
16 -7 21 -8z"/>
<path fill="#000000" stroke="none" d="M148 33 c6 -2 18 -2 25 0 6 3 1 5 -13
5 -14 0 -19 -2 -12 -5z"/>
<path fill="#000000" stroke="none" d="M218 33 c6 -2 18 -2 25 0 6 3 1 5 -13
5 -14 0 -19 -2 -12 -5z"/>
</g>
</svg>
