<?xml version="1.0" standalone="no"?>
<!DOCTYPE svg PUBLIC "-//W3C//DTD SVG 20010904//EN"
 "http://www.w3.org/TR/2001/REC-SVG-20010904/DTD/svg10.dtd">
<svg version="1.0" xmlns="http://www.w3.org/2000/svg"
 width="32.000000pt" height="32.000000pt" viewBox="0 0 32.000000 32.000000"
 preserveAspectRatio="xMidYMid meet">
<metadata>
Created by potrace 1.16, written by Peter Selinger 2001-2019
</metadata>
<g transform="translate(0.000000,32.000000) scale(0.100000,-0.100000)"
fill="#000000" stroke="none">
<path fill="#000000" stroke="none" d="M0 160 l0 -160 160 0 160 0 0 160 0
160 -160 0 -160 0 0 -160z"/>
<path fill="#ffffff" stroke="none" d="M198 266 c21 -13 -4 -34 -47 -38 -37
-3 -38 -2 -28 19 5 12 13 20 18 18 4 -3 10 -1 13 4 7 10 25 9 44 -3z"/>
<path fill="#ffffff" stroke="none" d="M212 231 c-11 -7 -10 -9 3 -15 9 -3 14
-10 10 -16 -3 -5 3 -18 14 -29 14 -14 17 -22 9 -27 -6 -4 -20 4 -31 17 -12 14
-18 17 -14 7 3 -10 -3 -28 -16 -44 -12 -16 -15 -24 -8 -19 10 5 12 4 7 -3 -10
-17 -36 -15 -42 3 -4 8 -9 13 -13 10 -4 -2 -8 1 -9 8 0 7 -3 26 -7 43 -4 22
-1 35 12 45 9 8 14 9 10 3 -4 -7 0 -17 7 -23 12 -10 19 -6 37 18 13 17 28 31
33 31 6 0 5 -4 -2 -9z"/>
<path fill="#ffffff" stroke="none" d="M100 154 c0 -8 -5 -12 -10 -9 -6 4 -8
11 -5 16 9 14 15 11 15 -7z"/>
<path fill="#ffffff" stroke="none" d="M212 118 c-7 -7 -12 -8 -12 -2 0 14 12
26 19 19 2 -3 -1 -11 -7 -17z"/>
<path fill="#ffffff" stroke="none" d="M35 111 c-7 -13 31 -25 75 -24 19 1 41
-4 48 -9 8 -7 17 -6 30 3 16 12 16 12 -1 -6 -15 -17 -20 -18 -37 -7 -12 7 -20
8 -20 2 0 -5 -5 -10 -11 -10 -5 0 -7 5 -4 10 4 7 -7 9 -29 6 -20 -3 -36 0 -36
5 0 6 -4 7 -10 4 -6 -3 -10 -4 -10 -1 0 2 -3 11 -6 20 -3 9 -1 16 6 16 6 0 9
-4 5 -9z"/>
<path fill="#ffffff" stroke="none" d="M310 113 c0 -12 -20 -39 -20 -28 0 6
-4 4 -9 -4 -5 -8 -11 -9 -15 -3 -3 6 3 13 14 17 11 4 18 11 15 16 -4 5 -1 9 4
9 6 0 11 -3 11 -7z"/>
<path fill="#ffffff" stroke="none" d="M60 61 c0 10 3 10 12 1 8 -8 49 -12
120 -12 89 0 108 -3 108 -15 0 -13 -22 -15 -140 -15 -129 0 -140 1 -140 18 0
26 11 34 27 21 10 -9 13 -8 13 2z"/>
<path fill="#000000" stroke="none" d="M148 33 c6 -2 18 -2 25 0 6 3 1 5 -13
5 -14 0 -19 -2 -12 -5z"/>
<path fill="#000000" stroke="none" d="M218 33 c6 -2 18 -2 25 0 6 3 1 5 -13
5 -14 0 -19 -2 -12 -5z"/>
</g>
</svg>
