<?xml version="1.0" standalone="no"?>
<!DOCTYPE svg PUBLIC "-//W3C//DTD SVG 20010904//EN"
 "http://www.w3.org/TR/2001/REC-SVG-20010904/DTD/svg10.dtd">
<svg version="1.0" xmlns="http://www.w3.org/2000/svg"
 width="32.000000pt" height="32.000000pt" viewBox="0 0 32.000000 32.000000"
 preserveAspectRatio="xMidYMid meet">
<metadata>
Created by potrace 1.16, written by Peter Selinger 2001-2019
</metadata>
<g transform="translate(0.000000,32.000000) scale(0.100000,-0.100000)"
fill="#000000" stroke="none">
<path fill="#000000" stroke="none" d="M154 269 c-3 -5 -9 -7 -14 -4 -9 6 -25
-33 -22 -52 3 -13 -66 -88 -87 -95 -11 -3 -12 -8 -3 -24 6 -10 12 -14 12 -9 0
6 5 3 10 -5 7 -12 12 -7 24 22 19 46 36 57 43 29 3 -12 10 -21 15 -21 5 0 6
-4 3 -10 -3 -5 -16 -10 -29 -10 -12 0 -28 -6 -34 -12 -7 -7 -20 -13 -30 -13
-10 0 -18 -9 -20 -22 -3 -23 -3 -23 138 -23 141 0 141 0 138 23 -2 12 -6 20
-9 17 -4 -3 -16 3 -28 14 -12 11 -29 16 -41 13 -21 -5 -29 16 -10 28 6 4 8 16
4 28 -6 20 -5 20 10 8 9 -8 24 -30 32 -50 12 -28 17 -33 24 -21 5 8 10 11 10
5 0 -5 6 -1 12 9 9 16 8 21 -2 24 -22 8 -81 72 -75 81 3 6 1 12 -5 16 -6 4 -8
11 -5 16 4 5 1 9 -5 9 -6 0 -9 4 -5 9 6 10 -11 24 -32 27 -7 1 -15 -2 -19 -7z"/>
</g>
</svg>
