<?xml version="1.0" standalone="no"?>
<!DOCTYPE svg PUBLIC "-//W3C//DTD SVG 20010904//EN"
 "http://www.w3.org/TR/2001/REC-SVG-20010904/DTD/svg10.dtd">
<svg version="1.0" xmlns="http://www.w3.org/2000/svg"
 width="32.000000pt" height="32.000000pt" viewBox="0 0 32.000000 32.000000"
 preserveAspectRatio="xMidYMid meet">
<metadata>
Created by potrace 1.16, written by Peter Selinger 2001-2019
</metadata>
<g transform="translate(0.000000,32.000000) scale(0.100000,-0.100000)"
fill="#000000" stroke="none">
<path fill="#000000" stroke="none" d="M0 160 l0 -160 160 0 160 0 0 160 0
160 -160 0 -160 0 0 -160z"/>
<path fill="#ffffff" stroke="none" d="M207 293 c0 -10 -4 -23 -9 -29 -5 -8
-1 -14 14 -18 35 -9 37 -8 30 16 -3 14 -2 19 6 14 7 -4 12 -16 12 -27 0 -11 4
-18 9 -15 4 3 17 -2 27 -10 18 -15 18 -15 -8 -9 -27 5 -28 4 -28 -42 0 -30 -4
-43 -9 -35 -4 7 -6 24 -3 38 3 19 1 23 -12 18 -21 -8 -21 12 0 24 14 8 14 10
-4 14 -16 4 -19 2 -15 -10 5 -11 3 -13 -6 -7 -10 5 -11 2 -6 -14 5 -16 3 -20
-8 -15 -8 3 -18 0 -23 -7 -4 -7 -3 -10 4 -5 14 8 54 -44 47 -61 -3 -8 0 -11 6
-7 7 4 9 -3 7 -17 -3 -22 -7 -24 -70 -24 -36 0 -64 3 -62 7 3 5 10 5 16 2 7
-4 8 -2 4 5 -4 6 -11 9 -16 6 -5 -3 -11 -1 -14 4 -3 4 17 11 45 13 27 3 56 11
62 17 9 9 8 11 -6 6 -13 -6 -21 1 -33 30 -16 40 -12 70 8 60 7 -4 4 1 -6 9
-17 14 -21 14 -36 1 -27 -25 -43 -19 -37 14 6 27 4 29 -40 40 -25 7 -44 14
-41 16 2 3 21 0 42 -6 21 -6 44 -8 51 -5 8 3 18 -1 25 -8 8 -10 6 -15 -6 -20
-9 -4 -14 -9 -11 -12 3 -3 17 2 31 12 15 9 24 19 21 22 -7 7 15 32 30 32 6 0
12 -8 12 -17z"/>
<path fill="#ffffff" stroke="none" d="M130 161 c6 -12 6 -22 1 -26 -11 -6
-24 11 -17 24 3 4 -6 6 -19 3 -14 -2 -22 -8 -19 -13 3 -5 1 -9 -5 -9 -14 0
-23 18 -16 30 11 18 64 11 75 -9z"/>
<path fill="#ffffff" stroke="none" d="M80 80 c11 -7 11 -10 2 -10 -7 0 -10
-4 -7 -10 4 -6 53 -10 116 -10 90 0 109 -3 109 -15 0 -13 -22 -15 -140 -15
-124 0 -140 2 -140 17 0 16 27 53 39 53 3 0 13 -5 21 -10z"/>
<path fill="#000000" stroke="none" d="M41 67 c-8 -10 -7 -14 2 -14 8 0 14 6
14 14 0 7 -1 13 -2 13 -2 0 -8 -6 -14 -13z"/>
<path fill="#000000" stroke="none" d="M148 33 c6 -2 18 -2 25 0 6 3 1 5 -13
5 -14 0 -19 -2 -12 -5z"/>
<path fill="#000000" stroke="none" d="M218 33 c6 -2 18 -2 25 0 6 3 1 5 -13
5 -14 0 -19 -2 -12 -5z"/>
</g>
</svg>
