<?xml version="1.0" standalone="no"?>
<!DOCTYPE svg PUBLIC "-//W3C//DTD SVG 20010904//EN"
 "http://www.w3.org/TR/2001/REC-SVG-20010904/DTD/svg10.dtd">
<svg version="1.0" xmlns="http://www.w3.org/2000/svg"
 width="32.000000pt" height="32.000000pt" viewBox="0 0 32.000000 32.000000"
 preserveAspectRatio="xMidYMid meet">
<metadata>
Created by potrace 1.16, written by Peter Selinger 2001-2019
</metadata>
<g transform="translate(0.000000,32.000000) scale(0.100000,-0.100000)"
fill="#000000" stroke="none">
<path fill="#000000" stroke="none" d="M185 292 c-3 -8 -13 -12 -25 -9 -11 3
-18 0 -17 -7 1 -7 -11 -10 -32 -8 -28 2 -32 0 -22 -11 9 -11 8 -17 -4 -27 -23
-19 -18 -28 13 -23 l27 4 -22 -19 c-24 -21 -21 -32 11 -32 21 -1 21 -1 -1 -19
-12 -10 -20 -21 -17 -24 3 -3 -4 -8 -15 -12 -12 -3 -21 -13 -21 -20 0 -8 -5
-17 -12 -21 -7 -5 -8 -3 -3 7 8 12 6 12 -8 0 -9 -7 -17 -22 -17 -32 0 -18 10
-19 140 -19 132 0 140 1 140 19 0 11 -5 23 -12 27 -7 4 -8 3 -4 -4 5 -9 -14
-12 -70 -12 -85 0 -94 5 -24 13 25 3 53 9 63 12 15 6 16 9 3 19 -22 17 -45 81
-35 97 7 12 9 11 10 -1 0 -8 5 -4 9 10 13 42 12 53 -7 46 -13 -6 -12 -1 5 17
18 20 20 26 9 35 -18 15 -55 11 -62 -6z"/>
</g>
</svg>
