<?xml version="1.0" standalone="no"?>
<!DOCTYPE svg PUBLIC "-//W3C//DTD SVG 20010904//EN"
 "http://www.w3.org/TR/2001/REC-SVG-20010904/DTD/svg10.dtd">
<svg version="1.0" xmlns="http://www.w3.org/2000/svg"
 width="32.000000pt" height="32.000000pt" viewBox="0 0 32.000000 32.000000"
 preserveAspectRatio="xMidYMid meet">
<metadata>
Created by potrace 1.16, written by Peter Selinger 2001-2019
</metadata>
<g transform="translate(0.000000,32.000000) scale(0.100000,-0.100000)"
fill="#000000" stroke="none">
<path fill="#000000" stroke="none" d="M0 160 l0 -160 160 0 160 0 0 160 0
160 -160 0 -160 0 0 -160z"/>
<path fill="#ffffff" stroke="none" d="M88 280 c3 -8 0 -10 -8 -5 -7 4 -16 2
-21 -6 -7 -12 -9 -12 -9 0 0 9 -4 10 -13 5 -7 -5 -4 -1 7 9 21 19 37 18 44 -3z"/>
<path fill="#ffffff" stroke="none" d="M239 277 c0 -9 -2 -8 -6 1 -2 6 -10 9
-15 6 -7 -4 -8 -2 -4 5 9 13 26 5 25 -12z"/>
<path fill="#ffffff" stroke="none" d="M166 233 c-2 -9 -9 -19 -16 -21 -9 -3
-11 1 -6 14 4 12 -3 8 -19 -11 -15 -16 -24 -25 -21 -18 4 6 2 14 -4 18 -15 9
-2 25 14 19 8 -3 17 -1 21 5 10 17 33 13 31 -6z"/>
<path fill="#ffffff" stroke="none" d="M144 179 c-3 -5 -10 -7 -15 -3 -5 3 -7
10 -3 15 3 5 10 7 15 3 5 -3 7 -10 3 -15z"/>
<path fill="#ffffff" stroke="none" d="M115 141 c3 -6 -3 -15 -14 -20 -18 -10
-21 -3 -12 27 2 6 20 1 26 -7z"/>
<path fill="#ffffff" stroke="none" d="M234 132 c3 -5 -1 -9 -9 -9 -8 0 -12 4
-9 9 3 4 7 8 9 8 2 0 6 -4 9 -8z"/>
<path fill="#ffffff" stroke="none" d="M95 91 c3 -5 0 -13 -6 -17 -8 -5 -9 -3
-4 6 6 10 4 12 -9 7 -10 -4 -15 -3 -11 3 8 13 22 13 30 1z"/>
<path fill="#ffffff" stroke="none" d="M40 46 c0 -3 -4 -8 -10 -11 -5 -3 -10
-1 -10 4 0 6 5 11 10 11 6 0 10 -2 10 -4z"/>
<path fill="#ffffff" stroke="none" d="M77 44 c-3 -3 -12 -4 -19 -1 -8 3 -5 6
6 6 11 1 17 -2 13 -5z"/>
<path fill="#ffffff" stroke="none" d="M147 44 c-3 -3 -12 -4 -19 -1 -8 3 -5
6 6 6 11 1 17 -2 13 -5z"/>
</g>
</svg>
