<?xml version="1.0" standalone="no"?>
<!DOCTYPE svg PUBLIC "-//W3C//DTD SVG 20010904//EN"
 "http://www.w3.org/TR/2001/REC-SVG-20010904/DTD/svg10.dtd">
<svg version="1.0" xmlns="http://www.w3.org/2000/svg"
 width="32.000000pt" height="32.000000pt" viewBox="0 0 32.000000 32.000000"
 preserveAspectRatio="xMidYMid meet">
<metadata>
Created by potrace 1.16, written by Peter Selinger 2001-2019
</metadata>
<g transform="translate(0.000000,32.000000) scale(0.100000,-0.100000)"
fill="#000000" stroke="none">
<path fill="#000000" stroke="none" d="M0 160 l0 -160 160 0 160 0 0 160 0
160 -160 0 -160 0 0 -160z"/>
<path fill="#ffffff" stroke="none" d="M291 293 c8 -9 9 -14 2 -10 -7 4 -15
-5 -22 -26 -6 -17 -21 -39 -33 -48 -20 -15 -20 -19 -8 -48 7 -18 26 -50 41
-71 50 -69 47 -70 -111 -70 -129 0 -140 1 -140 18 0 11 9 27 21 38 18 16 59
92 59 109 0 14 -47 74 -53 68 -4 -3 -7 -1 -7 6 0 7 -4 9 -10 6 -5 -3 -10 -2
-10 4 0 17 40 33 66 27 13 -4 23 -10 22 -14 -5 -25 15 -37 60 -37 42 1 47 4
47 23 0 40 51 56 76 25z"/>
<path fill="#000000" stroke="none" d="M138 126 c-33 -25 -22 -42 23 -38 32 3
40 1 34 -8 -5 -9 -4 -11 3 -6 17 10 15 31 -6 49 -22 20 -31 21 -54 3z"/>
</g>
</svg>
