<?xml version="1.0" standalone="no"?>
<!DOCTYPE svg PUBLIC "-//W3C//DTD SVG 20010904//EN"
 "http://www.w3.org/TR/2001/REC-SVG-20010904/DTD/svg10.dtd">
<svg version="1.0" xmlns="http://www.w3.org/2000/svg"
 width="32.000000pt" height="32.000000pt" viewBox="0 0 32.000000 32.000000"
 preserveAspectRatio="xMidYMid meet">
<metadata>
Created by potrace 1.16, written by Peter Selinger 2001-2019
</metadata>
<g transform="translate(0.000000,32.000000) scale(0.100000,-0.100000)"
fill="#000000" stroke="none">
<path fill="#000000" stroke="none" d="M140 303 c-14 -3 -32 -11 -41 -19 -9
-8 -20 -11 -24 -7 -5 5 -4 1 3 -9 17 -21 -3 -35 -24 -17 -12 10 -17 10 -27 -1
-8 -8 -8 -11 -1 -7 7 4 17 0 24 -8 11 -13 10 -14 -2 -10 -22 9 -45 -22 -29
-38 7 -7 11 -7 9 -2 -5 17 6 19 28 5 25 -16 21 -48 -13 -102 -34 -55 -31 -70
14 -67 21 1 48 -1 61 -5 27 -9 84 2 77 15 -4 5 0 6 8 4 33 -13 69 73 43 104
-8 12 -8 13 2 7 6 -4 12 -5 12 -2 0 3 -13 12 -30 21 -16 8 -31 16 -33 18 -2 1
-12 -5 -22 -13 -15 -13 -19 -12 -31 5 -17 23 -2 44 18 27 18 -15 18 39 -1 61
-11 14 -11 20 -1 32 7 8 11 14 9 14 -2 -1 -15 -4 -29 -6z"/>
<path fill="#ffffff" stroke="none" d="M123 275 c-3 -9 -8 -14 -10 -11 -3 3
-2 9 2 15 9 16 15 13 8 -4z"/>
<path fill="#ffffff" stroke="none" d="M164 244 c5 -12 2 -15 -10 -10 -8 3
-18 6 -20 6 -3 0 -2 5 1 10 9 15 22 12 29 -6z"/>
<path fill="#ffffff" stroke="none" d="M148 117 c37 25 57 22 82 -10 19 -23
19 -28 6 -33 -9 -3 -14 -10 -11 -14 3 -5 -18 -7 -47 -5 -50 4 -52 3 -33 -12
19 -15 19 -15 -7 -9 -14 3 -34 9 -44 13 -10 4 -15 2 -11 -4 3 -5 0 -10 -7 -10
-8 0 -12 6 -9 14 3 7 16 13 30 13 13 0 22 3 19 8 -2 4 17 8 42 9 34 1 41 -1
27 -7 -19 -8 -19 -9 3 -9 13 -1 22 5 22 14 0 12 -15 15 -76 15 -54 0 -73 -3
-68 -12 4 -7 3 -8 -5 -4 -14 9 -5 26 15 26 8 0 12 5 9 10 -13 21 7 31 22 11
14 -21 15 -21 41 -4z"/>
<path fill="#000000" stroke="none" d="M252 279 c-7 -11 -10 -24 -7 -29 3 -5
-3 -14 -14 -20 -12 -6 -25 -19 -31 -30 -10 -18 -9 -19 14 -9 13 6 27 20 29 31
3 11 10 17 16 13 6 -3 21 1 33 9 12 9 17 16 11 16 -7 0 -15 -4 -18 -10 -3 -5
-11 -10 -17 -10 -7 0 1 15 18 33 l29 32 -32 -29 c-30 -27 -48 -25 -21 2 6 6
10 14 7 16 -3 3 -10 -4 -17 -15z"/>
<path fill="#000000" stroke="none" d="M275 41 c3 -5 -3 -12 -12 -14 -11 -3
-8 -5 10 -6 18 -1 27 4 27 14 0 8 -7 15 -16 15 -8 0 -13 -4 -9 -9z"/>
</g>
</svg>
