<?xml version="1.0" standalone="no"?>
<!DOCTYPE svg PUBLIC "-//W3C//DTD SVG 20010904//EN"
 "http://www.w3.org/TR/2001/REC-SVG-20010904/DTD/svg10.dtd">
<svg version="1.0" xmlns="http://www.w3.org/2000/svg"
 width="32.000000pt" height="32.000000pt" viewBox="0 0 32.000000 32.000000"
 preserveAspectRatio="xMidYMid meet">
<metadata>
Created by potrace 1.16, written by Peter Selinger 2001-2019
</metadata>
<g transform="translate(0.000000,32.000000) scale(0.100000,-0.100000)"
fill="#000000" stroke="none">
<path fill="#000000" stroke="none" d="M0 160 l0 -160 160 0 160 0 0 160 0
160 -160 0 -160 0 0 -160z"/>
<path fill="#ffffff" stroke="none" d="M75 300 c-3 -5 1 -10 9 -10 8 0 26 -15
40 -32 20 -26 28 -30 38 -20 18 18 52 15 82 -9 14 -11 26 -17 26 -12 1 11 40
-37 40 -48 0 -15 -27 -10 -40 7 -8 8 -21 19 -31 24 -26 14 -19 -10 14 -49 48
-57 28 -116 -42 -123 -23 -2 -39 1 -38 7 1 5 -6 9 -15 9 -10 -1 -15 3 -12 8 4
5 -6 8 -22 6 -18 -2 -29 -9 -29 -18 0 -8 7 -14 15 -12 11 3 12 1 3 -8 -17 -18
-36 -1 -30 26 2 13 0 24 -4 24 -8 0 -13 -23 -10 -43 0 -4 -10 -7 -24 -7 -32 0
-34 29 -3 56 12 10 19 14 15 9 -12 -21 66 -9 83 13 10 12 20 18 24 15 3 -3 1
-12 -4 -18 -7 -9 -6 -16 5 -25 12 -10 16 -9 21 4 3 9 3 24 -2 34 -4 9 -6 21
-5 25 2 11 -33 -9 -49 -27 -7 -9 -24 -16 -39 -16 -27 0 -91 43 -80 55 9 9 60
-5 54 -15 -8 -12 11 -21 28 -14 22 8 29 34 15 51 -9 11 -9 16 2 23 8 5 18 6
24 3 5 -3 6 -1 2 5 -8 14 -35 3 -56 -22 -12 -15 -40 -22 -40 -11 0 10 30 65
36 65 3 0 2 -4 -1 -10 -3 -5 -1 -10 5 -10 17 0 24 29 10 45 -8 9 -22 12 -41 8
-37 -7 -38 11 -1 31 33 18 35 19 27 6z"/>
<path fill="#ffffff" stroke="none" d="M247 288 c7 -6 12 -21 11 -35 l-3 -25
-21 28 c-21 25 -24 26 -53 14 -39 -16 -50 -7 -26 19 13 15 25 19 49 14 17 -3
37 -10 43 -15z"/>
<path fill="#ffffff" stroke="none" d="M300 35 c0 -9 -9 -15 -22 -14 -18 1
-19 2 -5 6 9 2 15 9 12 14 -4 5 -1 9 4 9 6 0 11 -7 11 -15z"/>
<path fill="#000000" stroke="none" d="M232 118 c-6 -17 -9 -35 -5 -41 3 -5
-1 -14 -8 -19 -12 -8 -11 -9 1 -5 8 2 22 17 32 33 14 24 14 32 4 46 -11 15
-13 13 -24 -14z"/>
<path fill="#000000" stroke="none" d="M36 62 c-3 -5 1 -9 9 -9 8 0 12 4 9 9
-3 4 -7 8 -9 8 -2 0 -6 -4 -9 -8z"/>
</g>
</svg>
