<?xml version="1.0" standalone="no"?>
<!DOCTYPE svg PUBLIC "-//W3C//DTD SVG 20010904//EN"
 "http://www.w3.org/TR/2001/REC-SVG-20010904/DTD/svg10.dtd">
<svg version="1.0" xmlns="http://www.w3.org/2000/svg"
 width="32.000000pt" height="32.000000pt" viewBox="0 0 32.000000 32.000000"
 preserveAspectRatio="xMidYMid meet">
<metadata>
Created by potrace 1.16, written by Peter Selinger 2001-2019
</metadata>
<g transform="translate(0.000000,32.000000) scale(0.100000,-0.100000)"
fill="#000000" stroke="none">
<path fill="#000000" stroke="none" d="M0 160 l0 -160 160 0 160 0 0 160 0
160 -160 0 -160 0 0 -160z"/>
<path fill="#ffffff" stroke="none" d="M153 286 c23 -17 22 -37 -4 -70 -11
-14 -18 -30 -15 -34 3 -5 -1 -9 -9 -9 -8 0 -12 5 -9 11 8 16 -26 -26 -36 -45
-17 -30 29 -53 78 -40 2 1 -6 14 -17 30 -13 18 -16 29 -9 27 20 -3 38 -16 38
-27 0 -6 -5 -7 -12 -3 -7 5 -8 3 -3 -5 13 -22 47 22 48 63 1 20 3 36 6 36 21
-1 51 -14 51 -22 0 -6 -8 -7 -17 -4 -10 4 -14 4 -10 0 4 -4 2 -13 -5 -21 -6
-7 -8 -16 -5 -20 4 -3 -1 -12 -11 -20 -11 -9 -11 -12 -2 -7 12 5 12 4 3 -6 -6
-7 -9 -19 -6 -26 6 -17 -9 -18 -25 -2 -9 9 -16 8 -29 -4 -11 -10 -31 -15 -51
-13 -39 3 -38 2 -46 41 -5 22 -2 36 14 54 24 27 23 23 9 52 -24 55 27 100 74
64z"/>
<path fill="#ffffff" stroke="none" d="M247 76 c-5 -15 -24 -18 -24 -3 0 8 6
14 14 14 7 0 12 -5 10 -11z"/>
<path fill="#ffffff" stroke="none" d="M120 40 c-60 -3 -84 -7 -65 -11 l30 -6
-32 -2 c-23 -1 -33 3 -33 14 0 12 17 15 98 13 l97 -2 -95 -6z"/>
<path fill="#ffffff" stroke="none" d="M127 24 c-3 -3 -12 -4 -19 -1 -8 3 -5
6 6 6 11 1 17 -2 13 -5z"/>
<path fill="#000000" stroke="none" d="M107 273 c-10 -10 -8 -51 2 -58 14 -8
32 30 25 49 -7 17 -16 20 -27 9z"/>
</g>
</svg>
