<?xml version="1.0" standalone="no"?>
<!DOCTYPE svg PUBLIC "-//W3C//DTD SVG 20010904//EN"
 "http://www.w3.org/TR/2001/REC-SVG-20010904/DTD/svg10.dtd">
<svg version="1.0" xmlns="http://www.w3.org/2000/svg"
 width="32.000000pt" height="32.000000pt" viewBox="0 0 32.000000 32.000000"
 preserveAspectRatio="xMidYMid meet">
<metadata>
Created by potrace 1.16, written by Peter Selinger 2001-2019
</metadata>
<g transform="translate(0.000000,32.000000) scale(0.100000,-0.100000)"
fill="#000000" stroke="none">
<path fill="#000000" stroke="none" d="M0 160 l0 -160 160 0 160 0 0 160 0
160 -160 0 -160 0 0 -160z"/>
<path fill="#ffffff" stroke="none" d="M247 298 c11 -9 9 -15 -9 -35 -17 -18
-18 -23 -5 -17 19 7 20 -4 7 -46 -4 -14 -9 -18 -9 -10 -1 12 -3 13 -10 1 -10
-16 13 -80 35 -97 13 -10 12 -13 -3 -19 -10 -3 -38 -9 -63 -12 -70 -8 -61 -13
24 -13 56 0 75 3 70 12 -4 7 -3 8 4 4 7 -4 12 -16 12 -27 0 -18 -8 -19 -140
-19 -130 0 -140 1 -140 19 0 10 8 25 17 32 14 12 16 12 8 0 -5 -10 -4 -12 3
-7 7 4 12 13 12 21 0 7 9 17 21 20 11 4 18 9 15 12 -3 3 5 14 17 24 22 18 22
18 1 19 -32 0 -35 11 -11 32 l22 19 -27 -4 c-31 -5 -36 4 -13 23 12 10 13 16
4 27 -10 11 -6 13 22 11 21 -2 33 1 32 8 -1 7 6 10 17 7 12 -3 22 1 25 9 7 17
44 21 62 6z"/>
</g>
</svg>
