<?xml version="1.0" standalone="no"?>
<!DOCTYPE svg PUBLIC "-//W3C//DTD SVG 20010904//EN"
 "http://www.w3.org/TR/2001/REC-SVG-20010904/DTD/svg10.dtd">
<svg version="1.0" xmlns="http://www.w3.org/2000/svg"
 width="32.000000pt" height="32.000000pt" viewBox="0 0 32.000000 32.000000"
 preserveAspectRatio="xMidYMid meet">
<metadata>
Created by potrace 1.16, written by Peter Selinger 2001-2019
</metadata>
<g transform="translate(0.000000,32.000000) scale(0.100000,-0.100000)"
fill="#000000" stroke="none">
<path fill="#000000" stroke="none" d="M0 160 l0 -160 160 0 160 0 0 160 0
160 -160 0 -160 0 0 -160z"/>
<path fill="#ffffff" stroke="none" d="M246 297 c4 -4 -5 -7 -20 -7 -15 0 -25
-4 -21 -10 4 -6 -1 -7 -11 -3 -11 4 -13 8 -6 11 7 2 10 7 7 11 -5 10 41 8 51
-2z"/>
<path fill="#ffffff" stroke="none" d="M190 260 c0 -9 -23 -30 -32 -30 -5 0
-5 8 1 17 7 12 5 21 -7 30 -14 11 -13 11 11 2 15 -7 27 -15 27 -19z"/>
<path fill="#ffffff" stroke="none" d="M237 266 c-3 -7 -1 -18 4 -23 6 -6 0
-18 -16 -33 -20 -19 -27 -21 -40 -10 -8 7 -12 16 -9 22 3 5 11 4 19 -2 10 -9
16 -6 25 9 8 16 8 21 -1 21 -8 0 -8 4 1 15 16 19 24 19 17 1z"/>
<path fill="#ffffff" stroke="none" d="M115 260 c4 -6 12 -8 18 -4 7 3 4 -1
-6 -9 -16 -13 -16 -16 -2 -30 8 -9 12 -18 8 -20 -12 -7 -30 17 -27 36 1 9 -5
21 -14 27 -16 9 -16 9 0 10 9 0 20 -5 23 -10z"/>
<path fill="#ffffff" stroke="none" d="M169 174 c-14 -17 2 -19 19 -2 9 9 15
9 25 -1 10 -10 9 -11 -5 -6 -11 5 -18 2 -18 -5 0 -8 -8 -10 -24 -6 -20 5 -23
2 -22 -22 0 -15 -3 -27 -9 -28 -22 -2 -45 -17 -39 -26 3 -5 12 -4 22 4 13 11
16 11 20 -1 3 -10 9 -7 19 10 8 14 12 16 9 6 -3 -10 -6 -23 -6 -28 0 -5 -7 -9
-15 -9 -8 0 -15 6 -15 13 0 8 -3 8 -9 -2 -8 -12 -14 -12 -38 4 l-28 19 30 9
c17 5 35 9 42 9 7 1 10 5 8 9 -3 4 -15 5 -28 2 -20 -5 -20 -4 6 16 15 13 25
26 22 31 -7 11 26 30 38 23 4 -3 3 -11 -4 -19z"/>
<path fill="#ffffff" stroke="none" d="M215 141 c3 -5 2 -12 -3 -15 -5 -3 -9
1 -9 9 0 17 3 19 12 6z"/>
<path fill="#ffffff" stroke="none" d="M217 78 c-24 -15 -37 -8 -19 10 11 11
20 14 24 8 4 -6 2 -14 -5 -18z"/>
<path fill="#ffffff" stroke="none" d="M120 40 c-60 -3 -84 -7 -65 -11 l30 -6
-32 -2 c-23 -1 -33 3 -33 14 0 12 17 15 98 13 l97 -2 -95 -6z"/>
<path fill="#ffffff" stroke="none" d="M127 24 c-3 -3 -12 -4 -19 -1 -8 3 -5
6 6 6 11 1 17 -2 13 -5z"/>
</g>
</svg>
