<?xml version="1.0" standalone="no"?>
<!DOCTYPE svg PUBLIC "-//W3C//DTD SVG 20010904//EN"
 "http://www.w3.org/TR/2001/REC-SVG-20010904/DTD/svg10.dtd">
<svg version="1.0" xmlns="http://www.w3.org/2000/svg"
 width="32.000000pt" height="32.000000pt" viewBox="0 0 32.000000 32.000000"
 preserveAspectRatio="xMidYMid meet">
<metadata>
Created by potrace 1.16, written by Peter Selinger 2001-2019
</metadata>
<g transform="translate(0.000000,32.000000) scale(0.100000,-0.100000)"
fill="#000000" stroke="none">
<path fill="#000000" stroke="none" d="M0 160 l0 -160 160 0 160 0 0 160 0
160 -160 0 -160 0 0 -160z"/>
<path fill="#ffffff" stroke="none" d="M131 298 c0 -10 2 -10 6 0 6 16 43 16
43 0 0 -9 3 -9 9 1 7 11 15 8 37 -14 19 -18 25 -29 17 -32 -15 -6 -17 -39 -3
-48 5 -3 7 -12 4 -19 -3 -7 2 -33 10 -57 18 -51 11 -62 -39 -64 -62 -3 -51
-15 14 -15 44 0 60 3 55 12 -4 7 -3 8 4 4 7 -4 12 -16 12 -27 0 -18 -8 -19
-140 -19 -130 0 -140 1 -140 19 0 10 8 25 17 32 15 12 16 12 8 -1 -5 -9 -5
-12 1 -7 5 5 9 12 10 15 0 4 6 20 13 37 19 46 24 127 9 136 -10 6 -7 14 12 33
28 28 40 32 41 14z"/>
<path fill="#000000" stroke="none" d="M130 56 c0 -2 7 -7 16 -10 8 -3 12 -2
9 4 -6 10 -25 14 -25 6z"/>
</g>
</svg>
