<?xml version="1.0" standalone="no"?>
<!DOCTYPE svg PUBLIC "-//W3C//DTD SVG 20010904//EN"
 "http://www.w3.org/TR/2001/REC-SVG-20010904/DTD/svg10.dtd">
<svg version="1.0" xmlns="http://www.w3.org/2000/svg"
 width="32.000000pt" height="32.000000pt" viewBox="0 0 32.000000 32.000000"
 preserveAspectRatio="xMidYMid meet">
<metadata>
Created by potrace 1.16, written by Peter Selinger 2001-2019
</metadata>
<g transform="translate(0.000000,32.000000) scale(0.100000,-0.100000)"
fill="#000000" stroke="none">
<path fill="#000000" stroke="none" d="M175 299 c4 -6 -1 -17 -11 -25 -17 -12
-17 -13 -1 -8 18 6 24 -10 7 -21 -5 -3 -7 -13 -4 -23 5 -14 3 -14 -10 2 -15
19 -20 36 -17 61 1 14 -40 17 -56 3 -8 -6 -9 -16 -4 -27 11 -22 -1 -56 -19
-56 -12 0 -14 -13 -12 -73 3 -55 0 -72 -10 -70 -7 2 -14 -7 -16 -19 -3 -23 -3
-23 137 -23 133 0 141 1 141 19 0 11 -5 23 -12 27 -7 4 -8 3 -4 -4 5 -9 -14
-12 -70 -12 -86 0 -97 7 -19 11 56 3 66 11 58 50 -6 31 12 96 34 121 10 11 11
18 4 23 -6 3 -11 14 -10 23 0 14 2 13 9 -3 8 -19 9 -19 9 2 1 12 -3 24 -8 27
-11 7 -23 -21 -25 -58 -1 -36 -21 -45 -36 -16 -9 18 -8 26 7 43 16 18 16 20 1
14 -9 -3 -22 1 -28 9 -14 16 -45 19 -35 3z"/>
<path fill="#ffffff" stroke="none" d="M163 130 c-3 -17 -9 -33 -14 -35 -17
-11 -21 68 -4 95 13 20 26 -23 18 -60z"/>
<path fill="#ffffff" stroke="none" d="M80 164 c-7 -8 -8 -19 -3 -31 12 -23
11 -33 -5 -58 -10 -17 -12 -10 -10 47 1 52 4 65 15 61 10 -4 11 -9 3 -19z"/>
<path fill="#ffffff" stroke="none" d="M241 157 c-10 -9 -11 -8 -5 6 3 10 9
15 12 12 3 -3 0 -11 -7 -18z"/>
</g>
</svg>
