<?xml version="1.0" standalone="no"?>
<!DOCTYPE svg PUBLIC "-//W3C//DTD SVG 20010904//EN"
 "http://www.w3.org/TR/2001/REC-SVG-20010904/DTD/svg10.dtd">
<svg version="1.0" xmlns="http://www.w3.org/2000/svg"
 width="32.000000pt" height="32.000000pt" viewBox="0 0 32.000000 32.000000"
 preserveAspectRatio="xMidYMid meet">
<metadata>
Created by potrace 1.16, written by Peter Selinger 2001-2019
</metadata>
<g transform="translate(0.000000,32.000000) scale(0.100000,-0.100000)"
fill="#000000" stroke="none">
<path fill="#000000" stroke="none" d="M98 285 c-40 -27 -68 -89 -50 -107 6
-6 8 -17 5 -25 -3 -8 4 -27 16 -43 15 -22 17 -28 6 -24 -20 8 -55 -23 -55 -48
0 -17 11 -18 140 -18 132 0 140 1 140 19 0 11 -5 23 -12 27 -7 4 -8 3 -4 -4 5
-9 -14 -12 -71 -11 -43 1 -66 4 -50 6 15 2 25 8 23 12 -3 4 4 8 16 8 11 1 31
9 45 18 23 15 24 19 10 32 -13 14 -18 13 -46 -3 -26 -16 -36 -17 -63 -6 -17 6
-34 9 -38 7 -4 -2 -7 2 -7 9 0 8 9 11 22 8 64 -12 148 44 130 85 -5 10 -9 24
-11 31 -4 20 -25 42 -34 37 -5 -3 -11 -1 -15 5 -11 18 -59 11 -97 -15z"/>
<path fill="#ffffff" stroke="none" d="M198 242 c6 -9 12 -23 12 -31 -1 -13
-2 -13 -11 2 -21 36 -98 5 -100 -40 0 -15 -2 -15 -9 2 -8 21 9 59 38 83 19 14
52 7 70 -16z"/>
<path fill="#000000" stroke="none" d="M249 73 c-13 -16 -12 -17 4 -4 9 7 17
15 17 17 0 8 -8 3 -21 -13z"/>
</g>
</svg>
