<?xml version="1.0" standalone="no"?>
<!DOCTYPE svg PUBLIC "-//W3C//DTD SVG 20010904//EN"
 "http://www.w3.org/TR/2001/REC-SVG-20010904/DTD/svg10.dtd">
<svg version="1.0" xmlns="http://www.w3.org/2000/svg"
 width="32.000000pt" height="32.000000pt" viewBox="0 0 32.000000 32.000000"
 preserveAspectRatio="xMidYMid meet">
<metadata>
Created by potrace 1.16, written by Peter Selinger 2001-2019
</metadata>
<g transform="translate(0.000000,32.000000) scale(0.100000,-0.100000)"
fill="#000000" stroke="none">
<path fill="#000000" stroke="none" d="M0 160 l0 -160 160 0 160 0 0 160 0
160 -160 0 -160 0 0 -160z"/>
<path fill="#ffffff" stroke="none" d="M115 289 c-4 -12 -17 -36 -30 -55 -13
-19 -26 -48 -30 -64 -4 -17 -10 -28 -15 -25 -5 3 -11 -3 -13 -12 -3 -10 -5 -2
-6 17 -1 37 29 112 56 142 23 26 46 23 38 -3z"/>
<path fill="#ffffff" stroke="none" d="M233 272 c15 -16 32 -44 37 -63 13 -44
13 -116 0 -124 -6 -4 -10 6 -10 22 0 16 -6 35 -12 42 -10 11 -10 13 0 7 8 -5
12 0 12 16 0 22 -1 21 -20 -7 l-20 -30 0 25 c0 14 -4 31 -9 39 -8 13 -12 13
-27 0 -16 -12 -17 -12 -10 1 4 8 -4 0 -19 -17 -22 -27 -30 -31 -46 -23 -23 13
-27 78 -4 86 8 3 17 14 20 25 8 25 35 24 42 -1 3 -11 9 -17 15 -14 5 3 6 14 3
25 -9 29 17 24 48 -9z"/>
<path fill="#ffffff" stroke="none" d="M167 163 c-4 -3 0 -14 9 -24 9 -10 14
-25 11 -33 -4 -9 -1 -18 5 -22 6 -4 8 -3 4 4 -3 6 1 9 11 8 23 -4 19 -21 -4
-21 -10 1 -21 -4 -25 -9 -4 -5 -24 -4 -52 4 -47 13 -63 10 -51 -9 9 -15 28
-14 19 2 -6 9 -4 9 7 -1 8 -8 45 -12 106 -12 76 0 93 -3 93 -15 0 -13 -22 -15
-140 -15 -129 0 -140 1 -140 18 0 20 28 51 45 51 10 -1 20 14 29 44 4 13 12
17 26 12 13 -4 22 -1 26 9 3 9 11 16 17 16 6 0 7 -3 4 -7z"/>
<path fill="#000000" stroke="none" d="M129 257 c-9 -20 -10 -30 -1 -39 8 -8
9 -5 5 11 -4 17 -2 20 11 15 18 -7 20 3 7 25 -8 12 -12 10 -22 -12z"/>
<path fill="#000000" stroke="none" d="M41 67 c-8 -10 -7 -14 2 -14 8 0 14 6
14 14 0 7 -1 13 -2 13 -2 0 -8 -6 -14 -13z"/>
<path fill="#000000" stroke="none" d="M148 33 c6 -2 18 -2 25 0 6 3 1 5 -13
5 -14 0 -19 -2 -12 -5z"/>
<path fill="#000000" stroke="none" d="M218 33 c6 -2 18 -2 25 0 6 3 1 5 -13
5 -14 0 -19 -2 -12 -5z"/>
</g>
</svg>
