<?xml version="1.0" standalone="no"?>
<!DOCTYPE svg PUBLIC "-//W3C//DTD SVG 20010904//EN"
 "http://www.w3.org/TR/2001/REC-SVG-20010904/DTD/svg10.dtd">
<svg version="1.0" xmlns="http://www.w3.org/2000/svg"
 width="32.000000pt" height="32.000000pt" viewBox="0 0 32.000000 32.000000"
 preserveAspectRatio="xMidYMid meet">
<metadata>
Created by potrace 1.16, written by Peter Selinger 2001-2019
</metadata>
<g transform="translate(0.000000,32.000000) scale(0.100000,-0.100000)"
fill="#000000" stroke="none">
<path fill="#000000" stroke="none" d="M0 160 l0 -160 160 0 160 0 0 160 0
160 -160 0 -160 0 0 -160z"/>
<path fill="#ffffff" stroke="none" d="M53 294 c9 -9 -12 -46 -23 -39 -12 8
-8 45 5 45 7 0 15 -3 18 -6z"/>
<path fill="#ffffff" stroke="none" d="M166 278 c-9 -5 -16 -14 -16 -21 0 -8
3 -8 9 2 5 8 11 9 15 3 8 -13 -10 -26 -24 -17 -8 5 -8 31 -1 52 1 1 8 0 17 -4
15 -5 15 -7 0 -15z"/>
<path fill="#ffffff" stroke="none" d="M48 193 c-1 -10 2 -45 5 -78 l6 -60
-13 65 c-7 36 -10 71 -8 78 6 17 11 15 10 -5z"/>
<path fill="#ffffff" stroke="none" d="M120 40 c-60 -3 -84 -7 -65 -11 l30 -6
-32 -2 c-23 -1 -33 3 -33 14 0 12 17 15 98 13 l97 -2 -95 -6z"/>
<path fill="#ffffff" stroke="none" d="M127 24 c-3 -3 -12 -4 -19 -1 -8 3 -5
6 6 6 11 1 17 -2 13 -5z"/>
<path fill="#000000" stroke="none" d="M35 279 c-4 -6 -5 -12 -2 -15 2 -3 7 2
10 11 7 17 1 20 -8 4z"/>
</g>
</svg>
