<?xml version="1.0" standalone="no"?>
<!DOCTYPE svg PUBLIC "-//W3C//DTD SVG 20010904//EN"
 "http://www.w3.org/TR/2001/REC-SVG-20010904/DTD/svg10.dtd">
<svg version="1.0" xmlns="http://www.w3.org/2000/svg"
 width="32.000000pt" height="32.000000pt" viewBox="0 0 32.000000 32.000000"
 preserveAspectRatio="xMidYMid meet">
<metadata>
Created by potrace 1.16, written by Peter Selinger 2001-2019
</metadata>
<g transform="translate(0.000000,32.000000) scale(0.100000,-0.100000)"
fill="#000000" stroke="none">
<path fill="#000000" stroke="none" d="M46 285 c-18 -14 -14 -15 45 -14 35 1
52 4 36 6 -17 3 -25 9 -21 16 5 8 3 8 -7 0 -16 -15 -33 -17 -24 -3 9 15 -7 12
-29 -5z"/>
<path fill="#000000" stroke="none" d="M203 253 c-1 -19 1 -22 8 -12 11 17 12
39 2 39 -5 0 -9 -12 -10 -27z"/>
</g>
</svg>
