<?xml version="1.0" standalone="no"?>
<!DOCTYPE svg PUBLIC "-//W3C//DTD SVG 20010904//EN"
 "http://www.w3.org/TR/2001/REC-SVG-20010904/DTD/svg10.dtd">
<svg version="1.0" xmlns="http://www.w3.org/2000/svg"
 width="32.000000pt" height="32.000000pt" viewBox="0 0 32.000000 32.000000"
 preserveAspectRatio="xMidYMid meet">
<metadata>
Created by potrace 1.16, written by Peter Selinger 2001-2019
</metadata>
<g transform="translate(0.000000,32.000000) scale(0.100000,-0.100000)"
fill="#000000" stroke="none">
<path fill="#000000" stroke="none" d="M140 303 c-14 -3 -32 -11 -41 -19 -9
-8 -20 -11 -24 -7 -5 5 -4 1 3 -9 17 -21 -3 -35 -24 -17 -12 10 -17 10 -27 -1
-8 -8 -8 -11 -1 -7 7 4 17 0 24 -8 11 -13 10 -14 -2 -10 -8 3 -21 -1 -28 -10
-11 -13 -11 -18 0 -28 9 -9 11 -9 6 0 -9 16 6 24 24 13 9 -5 20 -4 29 3 12 10
14 9 8 -6 -4 -11 -10 -31 -14 -45 -3 -15 -12 -36 -19 -47 -24 -33 -17 -45 24
-43 36 1 36 1 5 5 -63 8 -33 18 49 17 l83 -1 -80 7 c-44 3 -71 8 -60 9 11 1
15 5 9 7 -16 7 17 99 36 100 36 2 41 5 38 16 -6 16 -37 17 -58 3 -13 -9 -13
-8 -1 8 7 9 10 17 7 17 -4 0 -2 9 4 20 6 11 16 20 22 20 7 0 7 -4 -1 -14 -8
-9 -8 -16 -2 -20 5 -4 16 7 24 24 9 16 15 29 14 29 -1 -1 -13 -4 -27 -6z"/>
<path fill="#000000" stroke="none" d="M254 283 c-13 -30 -12 -50 2 -50 8 0
12 3 9 5 -3 3 7 19 22 36 l28 31 -32 -29 c-30 -27 -48 -25 -21 2 6 6 9 14 6
17 -3 3 -9 -2 -14 -12z"/>
<path fill="#000000" stroke="none" d="M166 247 c3 -10 9 -15 12 -12 3 3 0 11
-7 18 -10 9 -11 8 -5 -6z"/>
<path fill="#000000" stroke="none" d="M199 197 c-13 -18 -23 -36 -21 -40 1
-5 -7 -5 -19 -2 -18 6 -21 4 -16 -9 6 -14 4 -14 -19 1 -25 16 -26 16 -22 -3 4
-23 34 -25 68 -4 13 8 24 15 25 14 0 0 10 -6 23 -13 12 -7 20 -16 17 -21 -3
-5 -1 -11 4 -14 8 -5 8 15 1 34 -1 3 -2 9 -1 13 1 5 -3 6 -8 3 -5 -4 -12 -2
-16 3 -3 6 -13 7 -23 4 -15 -6 -15 -4 2 15 11 12 25 22 33 22 14 0 18 16 5 24
-5 3 -20 -9 -33 -27z"/>
<path fill="#000000" stroke="none" d="M150 45 l25 -16 -30 4 c-16 2 -39 7
-50 11 -17 7 -17 5 4 -13 27 -25 63 -27 85 -6 8 9 19 16 23 16 13 1 14 6 1 6
-7 0 -29 3 -48 7 l-35 7 25 -16z"/>
<path fill="#000000" stroke="none" d="M20 35 c0 -11 10 -15 33 -14 l32 2 -30
5 -30 5 25 7 25 8 -27 1 c-19 1 -28 -4 -28 -14z"/>
</g>
</svg>
