<?xml version="1.0" standalone="no"?>
<!DOCTYPE svg PUBLIC "-//W3C//DTD SVG 20010904//EN"
 "http://www.w3.org/TR/2001/REC-SVG-20010904/DTD/svg10.dtd">
<svg version="1.0" xmlns="http://www.w3.org/2000/svg"
 width="32.000000pt" height="32.000000pt" viewBox="0 0 32.000000 32.000000"
 preserveAspectRatio="xMidYMid meet">
<metadata>
Created by potrace 1.16, written by Peter Selinger 2001-2019
</metadata>
<g transform="translate(0.000000,32.000000) scale(0.100000,-0.100000)"
fill="#000000" stroke="none">
<path fill="#000000" stroke="none" d="M17 296 c-12 -30 -8 -70 9 -94 24 -35
34 -26 19 17 -12 34 -12 39 0 35 8 -3 17 -16 20 -27 13 -48 27 -65 49 -61 11
2 15 2 8 -2 -6 -3 -9 -10 -6 -16 4 -6 1 -14 -7 -18 -10 -7 -10 -11 0 -24 14
-17 10 -19 -27 -16 -28 2 -62 -26 -62 -52 0 -17 11 -18 140 -18 118 0 140 2
140 15 0 12 -19 15 -109 15 -101 0 -143 9 -106 24 8 3 17 1 20 -4 7 -11 54 -3
70 12 7 6 7 9 0 8 -19 -4 -38 0 -32 7 4 3 1 13 -6 21 -8 11 -8 14 0 9 6 -4 14
-3 18 3 3 5 1 10 -5 10 -7 0 -10 13 -8 33 2 18 -1 31 -7 30 -17 -3 -56 32 -59
52 -2 11 1 25 6 31 6 9 1 11 -17 10 -14 0 -25 -5 -26 -11 0 -5 -4 -1 -8 9 -7
18 -8 18 -14 2z"/>
<path fill="#ffffff" stroke="none" d="M57 67 c0 -8 -6 -14 -14 -14 -9 0 -10
4 -2 14 6 7 12 13 14 13 1 0 2 -6 2 -13z"/>
<path fill="#ffffff" stroke="none" d="M173 33 c-7 -2 -19 -2 -25 0 -7 3 -2 5
12 5 14 0 19 -2 13 -5z"/>
<path fill="#ffffff" stroke="none" d="M243 33 c-7 -2 -19 -2 -25 0 -7 3 -2 5
12 5 14 0 19 -2 13 -5z"/>
<path fill="#000000" stroke="none" d="M126 262 c-3 -5 4 -21 14 -37 12 -18
17 -38 14 -52 -4 -13 -2 -23 4 -23 16 0 34 28 26 42 -6 11 -5 11 8 0 10 -8 18
-9 22 -3 4 6 13 8 21 5 19 -8 32 23 16 39 -8 8 -11 6 -11 -8 0 -18 -2 -18 -18
3 -14 18 -26 23 -48 21 -19 -3 -28 0 -26 9 2 13 -14 17 -22 4z"/>
<path fill="#ffffff" stroke="none" d="M205 210 c3 -6 -1 -7 -9 -4 -18 7 -21
14 -7 14 6 0 13 -4 16 -10z"/>
<path fill="#000000" stroke="none" d="M205 170 c-14 -6 -15 -9 -5 -10 10 0 7
-5 -8 -13 -12 -7 -19 -16 -16 -20 4 -4 -1 -7 -11 -7 -15 0 -16 -3 -7 -12 9 -9
16 -8 29 4 10 9 26 14 35 13 21 -4 33 11 18 20 -7 5 -5 12 7 21 17 13 17 13
-2 13 -11 0 -29 -4 -40 -9z"/>
<path fill="#000000" stroke="none" d="M196 103 c-12 -30 -6 -43 19 -43 14 0
25 5 25 10 0 6 -5 10 -11 10 -8 0 -8 4 0 14 9 11 7 15 -8 19 -12 3 -22 -1 -25
-10z"/>
</g>
</svg>
