<?xml version="1.0" standalone="no"?>
<!DOCTYPE svg PUBLIC "-//W3C//DTD SVG 20010904//EN"
 "http://www.w3.org/TR/2001/REC-SVG-20010904/DTD/svg10.dtd">
<svg version="1.0" xmlns="http://www.w3.org/2000/svg"
 width="32.000000pt" height="32.000000pt" viewBox="0 0 32.000000 32.000000"
 preserveAspectRatio="xMidYMid meet">
<metadata>
Created by potrace 1.16, written by Peter Selinger 2001-2019
</metadata>
<g transform="translate(0.000000,32.000000) scale(0.100000,-0.100000)"
fill="#000000" stroke="none">
<path fill="#000000" stroke="none" d="M60 283 c-11 -15 -18 -33 -15 -40 2 -8
1 -12 -4 -9 -13 9 -31 -51 -30 -98 1 -36 2 -34 9 17 4 32 11 61 15 65 4 4 4
-7 1 -25 -7 -28 -5 -31 13 -26 14 3 21 1 21 -8 0 -8 6 -3 13 10 6 14 19 27 27
29 13 5 13 3 1 -12 -18 -22 -8 -31 13 -11 9 9 16 12 16 6 0 -5 -5 -13 -10 -16
-8 -5 -8 -11 0 -20 8 -10 6 -17 -11 -28 -12 -9 -27 -13 -34 -11 -15 6 -55 -46
-55 -70 0 -14 18 -16 130 -16 117 0 130 2 130 18 0 15 -10 17 -72 16 -69 -1
-70 0 -10 3 65 4 79 17 45 44 -11 10 -14 10 -9 2 5 -9 0 -13 -15 -13 -12 0
-19 3 -16 7 4 3 -2 13 -14 21 -15 10 -17 17 -9 27 8 9 8 15 0 20 -5 3 -10 11
-10 16 0 6 7 3 16 -6 20 -20 32 -11 14 10 -11 13 -10 18 6 29 22 16 32 13 17
-6 -6 -9 -6 -21 2 -36 8 -15 14 -19 17 -11 7 22 37 1 47 -33 l9 -33 1 45 c1
67 -62 190 -86 167 -3 -4 1 -9 9 -12 20 -8 11 -52 -14 -70 -27 -18 -56 -8 -31
11 15 11 16 16 5 34 -7 11 -10 26 -6 33 5 9 4 9 -6 0 -11 -10 -11 -15 -1 -27
16 -19 6 -36 -19 -36 -25 0 -35 17 -19 36 10 12 10 17 -1 27 -10 9 -11 9 -6 0
4 -7 1 -22 -6 -33 -11 -18 -10 -23 5 -34 26 -20 -4 -29 -32 -10 -23 17 -28 53
-9 72 8 8 9 12 1 12 -6 0 -21 -12 -33 -27z"/>
<path fill="#ffffff" stroke="none" d="M175 149 c1 -8 6 -24 13 -36 12 -21 11
-23 -10 -23 -19 0 -20 2 -8 11 12 8 9 10 -12 6 -28 -4 -37 6 -18 18 6 4 8 11
5 16 -8 13 4 31 18 26 7 -2 12 -10 12 -18z"/>
</g>
</svg>
