<?xml version="1.0" standalone="no"?>
<!DOCTYPE svg PUBLIC "-//W3C//DTD SVG 20010904//EN"
 "http://www.w3.org/TR/2001/REC-SVG-20010904/DTD/svg10.dtd">
<svg version="1.0" xmlns="http://www.w3.org/2000/svg"
 width="32.000000pt" height="32.000000pt" viewBox="0 0 32.000000 32.000000"
 preserveAspectRatio="xMidYMid meet">
<metadata>
Created by potrace 1.16, written by Peter Selinger 2001-2019
</metadata>
<g transform="translate(0.000000,32.000000) scale(0.100000,-0.100000)"
fill="#000000" stroke="none">
<path fill="#000000" stroke="none" d="M33 303 c-16 -6 -17 -49 -2 -58 6 -4 9
-21 8 -39 -3 -53 1 -87 10 -82 4 3 6 -7 3 -22 -3 -15 -11 -31 -18 -35 -8 -4
-14 -17 -14 -27 0 -19 8 -20 140 -20 129 0 140 1 140 18 0 23 -30 52 -54 52
-13 0 -16 -5 -12 -17 5 -15 4 -15 -9 1 -8 11 -15 29 -15 40 0 12 -3 31 -6 44
-5 16 -2 22 10 22 9 0 16 -8 17 -17 0 -14 2 -13 9 5 5 12 15 22 22 22 9 0 10
-2 2 -8 -15 -9 -29 -72 -16 -72 5 0 17 9 27 20 14 15 15 23 6 33 -6 8 -8 16
-5 19 3 3 -13 21 -35 40 -22 18 -43 46 -46 61 -11 43 -64 31 -57 -13 3 -20
-63 -84 -77 -76 -14 9 -15 66 -1 66 14 0 12 26 -2 37 -7 6 -19 8 -25 6z"/>
<path fill="#ffffff" stroke="none" d="M129 128 c-1 -40 -3 -65 -6 -56 -2 10
-9 18 -14 18 -12 0 -12 37 1 45 6 3 10 19 10 36 0 16 2 29 5 29 3 0 4 -33 4
-72z"/>
</g>
</svg>
