<?xml version="1.0" standalone="no"?>
<!DOCTYPE svg PUBLIC "-//W3C//DTD SVG 20010904//EN"
 "http://www.w3.org/TR/2001/REC-SVG-20010904/DTD/svg10.dtd">
<svg version="1.0" xmlns="http://www.w3.org/2000/svg"
 width="32.000000pt" height="32.000000pt" viewBox="0 0 32.000000 32.000000"
 preserveAspectRatio="xMidYMid meet">
<metadata>
Created by potrace 1.16, written by Peter Selinger 2001-2019
</metadata>
<g transform="translate(0.000000,32.000000) scale(0.100000,-0.100000)"
fill="#000000" stroke="none">
<path fill="#000000" stroke="none" d="M23 305 c-19 -21 -17 -85 2 -85 9 0 15
-9 15 -24 0 -13 3 -37 6 -54 6 -28 4 -29 -20 -25 -28 6 -36 -11 -10 -21 15 -6
15 -8 -1 -25 -9 -11 -15 -28 -13 -38 3 -16 17 -18 156 -21 l152 -3 0 25 c0 14
-5 28 -11 32 -7 4 -10 41 -8 108 l4 101 -38 3 c-21 2 -45 -2 -53 -9 -11 -9
-14 -8 -15 7 -1 11 -1 25 0 32 1 7 -10 12 -28 12 -32 0 -58 -30 -45 -52 4 -6
1 -9 -7 -6 -8 3 -15 15 -17 27 -2 15 -9 21 -18 17 -8 -3 -14 -1 -14 4 0 15
-23 11 -37 -5z"/>
<path fill="#ffffff" stroke="none" d="M64 261 c17 -54 20 -78 5 -46 -7 16 -8
13 -5 -12 3 -18 1 -35 -4 -38 -6 -4 -10 9 -10 29 0 25 -4 36 -15 36 -10 0 -15
10 -15 33 l1 32 14 -30 13 -30 -5 38 c-8 52 2 46 21 -12z"/>
<path fill="#ffffff" stroke="none" d="M179 303 c-5 -31 4 -56 21 -60 11 -3
20 -12 20 -20 0 -9 -6 -13 -15 -9 -8 3 -15 1 -15 -4 0 -5 -8 -6 -17 -3 -13 5
-12 1 5 -17 19 -21 20 -26 8 -38 -20 -20 -65 -8 -61 15 1 10 8 17 16 15 9 -2
9 1 2 10 -5 7 -13 23 -15 35 -5 20 -3 21 23 16 24 -5 28 -3 23 11 -7 19 -24
21 -24 4 -1 -8 -6 -5 -15 5 -18 25 -9 47 21 47 13 0 23 -3 23 -7z"/>
<path fill="#ffffff" stroke="none" d="M90 258 c0 -5 -4 -8 -10 -8 -5 0 -10
10 -10 23 0 18 2 19 10 7 5 -8 10 -18 10 -22z"/>
<path fill="#ffffff" stroke="none" d="M283 183 c-3 -49 -7 -90 -9 -92 -2 -2
-4 37 -4 87 0 51 4 92 9 92 5 0 6 -39 4 -87z"/>
<path fill="#ffffff" stroke="none" d="M256 245 c-1 -8 -9 -21 -16 -28 -8 -6
-12 -8 -8 -3 4 5 3 17 -3 27 -8 16 -6 19 10 19 11 0 18 -6 17 -15z"/>
<path fill="#ffffff" stroke="none" d="M120 225 c0 -8 -7 -15 -15 -15 -8 0
-15 7 -15 15 0 8 7 15 15 15 8 0 15 -7 15 -15z"/>
<path fill="#ffffff" stroke="none" d="M260 186 c0 -3 -4 -8 -10 -11 -5 -3
-10 -1 -10 4 0 6 5 11 10 11 6 0 10 -2 10 -4z"/>
<path fill="#ffffff" stroke="none" d="M106 138 c-3 -13 -6 -27 -7 -33 -1 -12
-17 25 -18 43 -1 6 6 12 15 12 12 0 15 -6 10 -22z"/>
<path fill="#ffffff" stroke="none" d="M79 95 c1 -17 -1 -17 -9 -5 -5 8 -9 26
-9 40 0 23 1 23 9 5 5 -11 9 -29 9 -40z"/>
<path fill="#ffffff" stroke="none" d="M170 110 c0 -5 -4 -10 -10 -10 -5 0
-10 5 -10 10 0 6 5 10 10 10 6 0 10 -4 10 -10z"/>
<path fill="#ffffff" stroke="none" d="M127 92 c-10 -10 -14 -22 -10 -25 3 -4
-1 -7 -9 -7 -14 0 -14 4 -5 25 7 14 18 25 26 25 11 0 11 -4 -2 -18z"/>
<path fill="#ffffff" stroke="none" d="M210 90 c0 -11 5 -20 11 -20 5 0 7 -4
4 -10 -3 -6 -1 -10 4 -10 6 0 11 5 11 10 0 6 5 10 11 10 5 0 7 -4 4 -10 -3 -5
-2 -10 4 -10 5 0 13 5 16 10 9 15 25 2 25 -21 0 -18 -8 -19 -140 -19 -118 0
-140 2 -140 15 0 11 11 15 43 15 55 0 88 10 80 23 -4 6 -1 7 8 1 8 -4 22 -10
31 -11 15 -2 16 1 8 22 -7 20 -6 25 5 25 8 0 15 -9 15 -20z"/>
<path fill="#000000" stroke="none" d="M78 33 c6 -2 18 -2 25 0 6 3 1 5 -13 5
-14 0 -19 -2 -12 -5z"/>
<path fill="#000000" stroke="none" d="M148 33 c6 -2 18 -2 25 0 6 3 1 5 -13
5 -14 0 -19 -2 -12 -5z"/>
</g>
</svg>
