<?xml version="1.0" standalone="no"?>
<!DOCTYPE svg PUBLIC "-//W3C//DTD SVG 20010904//EN"
 "http://www.w3.org/TR/2001/REC-SVG-20010904/DTD/svg10.dtd">
<svg version="1.0" xmlns="http://www.w3.org/2000/svg"
 width="32.000000pt" height="32.000000pt" viewBox="0 0 32.000000 32.000000"
 preserveAspectRatio="xMidYMid meet">
<metadata>
Created by potrace 1.16, written by Peter Selinger 2001-2019
</metadata>
<g transform="translate(0.000000,32.000000) scale(0.100000,-0.100000)"
fill="#000000" stroke="none">
<path fill="#000000" stroke="none" d="M0 160 l0 -160 160 0 160 0 0 160 0
160 -160 0 -160 0 0 -160z"/>
<path fill="#ffffff" stroke="none" d="M130 300 c0 -5 -17 -10 -37 -10 -28 0
-34 3 -23 10 20 13 60 13 60 0z"/>
<path fill="#ffffff" stroke="none" d="M210 290 c49 -25 60 -45 63 -112 1 -41
-1 -53 -13 -53 -17 0 -25 60 -10 70 15 9 13 48 -2 39 -7 -4 -10 -3 -5 1 8 10
-20 45 -37 45 -12 1 -54 30 -43 30 5 0 25 -9 47 -20z"/>
<path fill="#ffffff" stroke="none" d="M184 276 c42 -17 71 -69 50 -87 -10 -8
-11 -15 -4 -24 8 -10 8 -15 -1 -21 -8 -4 -9 -3 -5 4 4 7 3 12 -2 12 -6 0 -13
-8 -17 -17 -6 -17 -7 -17 -21 1 -8 11 -14 29 -14 40 0 13 -3 16 -8 10 -4 -6
-14 -14 -22 -17 -12 -4 -11 -6 3 -6 24 -1 22 -43 -3 -66 -16 -15 -22 -15 -35
-5 -8 7 -15 8 -15 2 0 -14 -35 -21 -51 -11 -8 5 -10 9 -4 9 5 0 4 5 -3 12 -7
7 -12 21 -12 32 0 17 4 15 21 -12 12 -17 25 -32 31 -32 5 0 6 6 1 13 -12 19
-14 47 -3 47 6 0 11 -10 11 -22 1 -21 2 -21 6 -3 7 28 23 43 23 21 0 -9 5 -14
10 -11 8 5 7 12 -1 22 -10 12 -10 17 2 25 11 7 11 11 2 15 -15 6 -18 53 -3 53
6 0 9 -3 9 -7 -3 -20 2 -33 14 -33 8 0 14 7 14 15 0 8 -3 15 -7 15 -3 0 -6 9
-6 20 0 24 -2 23 40 6z"/>
<path fill="#ffffff" stroke="none" d="M116 268 c-9 -5 -16 -20 -16 -32 0 -30
-30 -43 -47 -20 -10 14 -11 37 -4 61 1 2 19 2 42 1 29 -1 36 -4 25 -10z"/>
<path fill="#ffffff" stroke="none" d="M43 190 c10 -13 10 -13 -5 -1 -11 8
-17 25 -17 45 l2 31 4 -30 c3 -16 10 -37 16 -45z"/>
<path fill="#ffffff" stroke="none" d="M100 179 c0 -5 -9 -9 -20 -9 -22 0 -27
16 -7 23 15 5 27 -1 27 -14z"/>
<path fill="#ffffff" stroke="none" d="M207 109 c-9 -6 -15 -14 -12 -20 4 -5
2 -9 -4 -9 -6 0 -8 -7 -5 -15 4 -8 2 -15 -4 -15 -14 0 -22 24 -15 48 3 12 11
18 18 16 7 -3 16 0 20 6 4 6 10 8 13 5 4 -4 -1 -11 -11 -16z"/>
<path fill="#ffffff" stroke="none" d="M120 70 c8 -5 11 -13 6 -17 -5 -4 -11
-2 -13 5 -4 10 -8 10 -19 1 -14 -11 -20 1 -7 14 8 9 15 9 33 -3z"/>
<path fill="#ffffff" stroke="none" d="M158 55 c-3 -3 -9 2 -12 12 -6 14 -5
15 5 6 7 -7 10 -15 7 -18z"/>
<path fill="#ffffff" stroke="none" d="M270 67 c0 -7 -9 -13 -20 -14 -20 -2
-26 8 -13 20 11 12 33 8 33 -6z"/>
<path fill="#ffffff" stroke="none" d="M190 40 c91 0 110 -3 110 -15 0 -13
-22 -15 -140 -15 -129 0 -140 1 -140 18 0 26 11 34 27 20 8 -6 13 -7 12 -2 -4
21 2 28 12 12 9 -15 26 -18 119 -18z"/>
<path fill="#000000" stroke="none" d="M148 23 c6 -2 18 -2 25 0 6 3 1 5 -13
5 -14 0 -19 -2 -12 -5z"/>
<path fill="#000000" stroke="none" d="M218 23 c6 -2 18 -2 25 0 6 3 1 5 -13
5 -14 0 -19 -2 -12 -5z"/>
</g>
</svg>
