<?xml version="1.0" standalone="no"?>
<!DOCTYPE svg PUBLIC "-//W3C//DTD SVG 20010904//EN"
 "http://www.w3.org/TR/2001/REC-SVG-20010904/DTD/svg10.dtd">
<svg version="1.0" xmlns="http://www.w3.org/2000/svg"
 width="32.000000pt" height="32.000000pt" viewBox="0 0 32.000000 32.000000"
 preserveAspectRatio="xMidYMid meet">
<metadata>
Created by potrace 1.16, written by Peter Selinger 2001-2019
</metadata>
<g transform="translate(0.000000,32.000000) scale(0.100000,-0.100000)"
fill="#000000" stroke="none">
<path fill="#000000" stroke="none" d="M95 227 c-9 -34 10 -60 20 -28 3 11 2
28 -4 38 -8 16 -10 14 -16 -10z"/>
<path fill="#000000" stroke="none" d="M217 230 c-3 -13 -2 -31 3 -39 8 -15 9
-15 15 0 3 8 2 26 -3 39 l-9 24 -6 -24z"/>
<path fill="#000000" stroke="none" d="M130 221 c0 -11 4 -22 9 -25 11 -7 23
22 15 35 -9 16 -24 10 -24 -10z"/>
<path fill="#000000" stroke="none" d="M176 231 c-4 -6 -3 -18 2 -27 6 -11 11
-13 16 -5 4 6 3 18 -2 27 -6 11 -11 13 -16 5z"/>
<path fill="#000000" stroke="none" d="M65 211 c-3 -5 -1 -12 5 -16 5 -3 10 1
10 9 0 18 -6 21 -15 7z"/>
<path fill="#000000" stroke="none" d="M250 204 c0 -8 5 -12 10 -9 6 4 8 11 5
16 -9 14 -15 11 -15 -7z"/>
<path fill="#000000" stroke="none" d="M85 130 c-3 -5 -1 -10 4 -10 6 0 11 5
11 10 0 6 -2 10 -4 10 -3 0 -8 -4 -11 -10z"/>
<path fill="#000000" stroke="none" d="M230 130 c0 -5 5 -10 11 -10 5 0 7 5 4
10 -3 6 -8 10 -11 10 -2 0 -4 -4 -4 -10z"/>
<path fill="#000000" stroke="none" d="M136 121 c-4 -7 -5 -15 -2 -18 9 -9 19
4 14 18 -4 11 -6 11 -12 0z"/>
<path fill="#000000" stroke="none" d="M180 116 c0 -9 5 -16 10 -16 6 0 10 4
10 9 0 6 -4 13 -10 16 -5 3 -10 -1 -10 -9z"/>
<path fill="#000000" stroke="none" d="M94 99 c-19 -22 -19 -22 4 -8 12 8 22
17 22 21 0 12 -6 9 -26 -13z"/>
<path fill="#000000" stroke="none" d="M210 111 c0 -5 5 -13 10 -16 6 -3 10
-2 10 4 0 5 -4 13 -10 16 -5 3 -10 2 -10 -4z"/>
<path fill="#000000" stroke="none" d="M40 80 c0 -5 7 -7 15 -4 8 4 15 8 15
10 0 2 -7 4 -15 4 -8 0 -15 -4 -15 -10z"/>
<path fill="#000000" stroke="none" d="M20 39 c0 -5 5 -7 10 -4 6 3 10 8 10
11 0 2 -4 4 -10 4 -5 0 -10 -5 -10 -11z"/>
<path fill="#000000" stroke="none" d="M58 43 c7 -3 16 -2 19 1 4 3 -2 6 -13
5 -11 0 -14 -3 -6 -6z"/>
<path fill="#000000" stroke="none" d="M128 43 c7 -3 16 -2 19 1 4 3 -2 6 -13
5 -11 0 -14 -3 -6 -6z"/>
</g>
</svg>
