<?xml version="1.0" standalone="no"?>
<!DOCTYPE svg PUBLIC "-//W3C//DTD SVG 20010904//EN"
 "http://www.w3.org/TR/2001/REC-SVG-20010904/DTD/svg10.dtd">
<svg version="1.0" xmlns="http://www.w3.org/2000/svg"
 width="32.000000pt" height="32.000000pt" viewBox="0 0 32.000000 32.000000"
 preserveAspectRatio="xMidYMid meet">
<metadata>
Created by potrace 1.16, written by Peter Selinger 2001-2019
</metadata>
<g transform="translate(0.000000,32.000000) scale(0.100000,-0.100000)"
fill="#000000" stroke="none">
<path fill="#000000" stroke="none" d="M92 286 c-26 -25 -20 -36 17 -36 21 0
23 2 11 10 -10 6 -11 10 -2 10 6 0 12 9 12 20 0 25 -9 25 -38 -4z"/>
<path fill="#000000" stroke="none" d="M145 300 c-3 -5 3 -10 15 -10 12 0 18
5 15 10 -3 6 -10 10 -15 10 -5 0 -12 -4 -15 -10z"/>
<path fill="#000000" stroke="none" d="M194 292 c0 -10 8 -19 18 -19 10 -1 18
3 18 8 0 6 -4 7 -10 4 -5 -3 -10 1 -10 9 0 9 -4 16 -8 16 -4 0 -8 -8 -8 -18z"/>
<path fill="#000000" stroke="none" d="M215 260 l-30 -8 27 -1 c15 0 30 4 33
9 3 6 5 9 3 9 -2 -1 -16 -5 -33 -9z"/>
<path fill="#000000" stroke="none" d="M145 240 c4 -6 1 -17 -5 -25 -10 -12
-10 -15 0 -15 9 0 10 -10 6 -34 -4 -21 -2 -37 4 -41 8 -5 8 -11 0 -20 -16 -20
16 -65 44 -64 l21 2 -21 4 c-24 4 -39 42 -24 57 5 5 5 16 0 27 -7 12 -6 20 0
24 6 4 8 15 5 26 -4 11 -2 19 5 19 7 0 8 6 1 19 -6 10 -7 21 -4 25 3 3 -4 6
-16 6 -13 0 -19 -4 -16 -10z"/>
<path fill="#000000" stroke="none" d="M90 220 c-8 -16 -8 -18 4 -14 17 6 30
34 16 34 -5 0 -14 -9 -20 -20z"/>
<path fill="#000000" stroke="none" d="M213 169 c2 -48 8 -73 18 -80 12 -7 12
-9 0 -9 -8 0 -12 -2 -9 -5 3 -3 13 -3 22 1 15 6 15 7 0 19 -13 9 -14 14 -5 19
8 5 9 12 3 19 -5 7 -9 19 -9 27 -1 8 -4 24 -9 35 -7 18 -6 19 11 5 18 -15 18
-14 1 13 -10 15 -20 27 -22 27 -2 0 -2 -32 -1 -71z"/>
<path fill="#000000" stroke="none" d="M95 188 c-17 -46 -32 -108 -27 -112 10
-10 29 -6 31 7 1 6 3 36 5 65 3 51 0 65 -9 40z"/>
<path fill="#000000" stroke="none" d="M20 35 c0 -11 10 -15 33 -14 l32 2 -30
6 c-23 4 -15 7 35 11 l65 7 -67 1 c-55 2 -68 -1 -68 -13z"/>
<path fill="#000000" stroke="none" d="M108 23 c7 -3 16 -2 19 1 4 3 -2 6 -13
5 -11 0 -14 -3 -6 -6z"/>
</g>
</svg>
