<?xml version="1.0" standalone="no"?>
<!DOCTYPE svg PUBLIC "-//W3C//DTD SVG 20010904//EN"
 "http://www.w3.org/TR/2001/REC-SVG-20010904/DTD/svg10.dtd">
<svg version="1.0" xmlns="http://www.w3.org/2000/svg"
 width="32.000000pt" height="32.000000pt" viewBox="0 0 32.000000 32.000000"
 preserveAspectRatio="xMidYMid meet">
<metadata>
Created by potrace 1.16, written by Peter Selinger 2001-2019
</metadata>
<g transform="translate(0.000000,32.000000) scale(0.100000,-0.100000)"
fill="#000000" stroke="none">
<path fill="#000000" stroke="none" d="M0 160 l0 -160 160 0 160 0 0 160 0
160 -160 0 -160 0 0 -160z"/>
<path fill="#ffffff" stroke="none" d="M160 295 c-10 -13 -10 -19 4 -33 19
-22 21 -36 4 -26 -7 4 -5 -2 5 -14 21 -23 14 -50 -8 -32 -17 14 -32 -7 -16
-23 7 -7 16 -6 29 6 17 15 20 15 50 -3 18 -11 32 -23 33 -27 6 -48 3 -68 -14
-89 -13 -17 -26 -24 -38 -21 -11 3 -17 1 -14 -4 8 -13 -41 -22 -73 -14 -15 4
-44 7 -65 6 -44 -3 -47 10 -17 62 12 20 25 48 29 64 7 25 5 32 -13 43 -22 14
-33 12 -28 -5 2 -5 -2 -5 -9 2 -16 16 7 47 29 38 12 -4 13 -3 2 10 -7 8 -17
12 -24 8 -7 -4 -7 -1 1 7 10 11 15 11 27 1 21 -18 41 -4 24 17 -7 10 -8 14 -3
9 4 -4 15 -1 24 7 9 8 27 16 41 19 14 2 27 5 29 6 2 0 -2 -6 -9 -14z"/>
<path fill="#ffffff" stroke="none" d="M262 278 c-27 -27 -9 -29 21 -2 l32 29
-29 -32 c-17 -18 -25 -33 -18 -33 6 0 14 5 17 10 3 6 11 10 18 10 6 0 1 -7
-11 -16 -12 -8 -27 -12 -33 -9 -6 4 -13 -2 -16 -13 -3 -11 -12 -23 -20 -27
-27 -10 -29 6 -3 27 14 11 25 25 25 32 2 19 17 47 23 41 3 -3 0 -11 -6 -17z"/>
<path fill="#ffffff" stroke="none" d="M300 40 c0 -15 -7 -20 -27 -20 l-28 1
24 19 c29 25 31 25 31 0z"/>
<path fill="#000000" stroke="none" d="M83 116 c4 -10 1 -16 -8 -16 -7 0 -17
-5 -21 -12 -4 -6 -3 -8 4 -4 6 3 41 7 78 7 46 1 62 4 53 11 -12 8 -11 9 1 5 8
-2 16 -14 18 -26 3 -21 1 -22 -42 -16 -32 5 -46 4 -46 -4 0 -7 -9 -9 -25 -5
-26 6 -35 -9 -13 -22 7 -4 8 -3 4 4 -5 8 2 10 25 5 23 -4 30 -3 25 6 -5 8 4
11 36 9 38 -3 43 0 46 20 2 13 -2 29 -8 37 -9 11 -17 11 -47 -1 -31 -14 -37
-13 -60 2 -24 15 -26 15 -20 0z"/>
</g>
</svg>
