<?xml version="1.0" standalone="no"?>
<!DOCTYPE svg PUBLIC "-//W3C//DTD SVG 20010904//EN"
 "http://www.w3.org/TR/2001/REC-SVG-20010904/DTD/svg10.dtd">
<svg version="1.0" xmlns="http://www.w3.org/2000/svg"
 width="32.000000pt" height="32.000000pt" viewBox="0 0 32.000000 32.000000"
 preserveAspectRatio="xMidYMid meet">
<metadata>
Created by potrace 1.16, written by Peter Selinger 2001-2019
</metadata>
<g transform="translate(0.000000,32.000000) scale(0.100000,-0.100000)"
fill="#000000" stroke="none">
<path fill="#000000" stroke="none" d="M0 160 l0 -160 160 0 160 0 0 160 0
160 -160 0 -160 0 0 -160z"/>
<path fill="#ffffff" stroke="none" d="M239 256 c21 -22 26 -36 26 -77 0 -45
-4 -54 -33 -80 -18 -16 -28 -29 -23 -29 6 0 13 5 16 10 16 26 75 -6 75 -42 0
-17 -11 -18 -140 -18 -129 0 -140 1 -140 18 0 27 35 56 61 49 21 -6 21 -5 -2
19 -18 20 -24 37 -24 74 0 50 20 84 60 101 35 15 96 3 124 -25z"/>
</g>
</svg>
