<?xml version="1.0" standalone="no"?>
<!DOCTYPE svg PUBLIC "-//W3C//DTD SVG 20010904//EN"
 "http://www.w3.org/TR/2001/REC-SVG-20010904/DTD/svg10.dtd">
<svg version="1.0" xmlns="http://www.w3.org/2000/svg"
 width="32.000000pt" height="32.000000pt" viewBox="0 0 32.000000 32.000000"
 preserveAspectRatio="xMidYMid meet">
<metadata>
Created by potrace 1.16, written by Peter Selinger 2001-2019
</metadata>
<g transform="translate(0.000000,32.000000) scale(0.100000,-0.100000)"
fill="#000000" stroke="none">
<path fill="#000000" stroke="none" d="M44 302 c4 -7 3 -19 -4 -27 -6 -8 -10
-26 -8 -42 4 -35 57 -55 92 -33 20 12 20 12 6 -6 -14 -18 -14 -18 3 -5 12 10
15 17 7 25 -16 16 -12 30 5 16 11 -9 15 -9 15 -1 0 6 -11 16 -25 23 -21 9 -23
14 -13 32 10 19 10 20 -5 7 -19 -16 -23 -41 -5 -41 6 0 9 -3 5 -6 -10 -10 -48
7 -41 18 5 7 2 8 -5 4 -9 -6 -8 -12 4 -26 16 -17 16 -18 -2 -16 -13 2 -18 12
-18 39 0 19 -4 39 -9 44 -5 5 -6 3 -2 -5z"/>
<path fill="#000000" stroke="none" d="M162 305 c4 -4 3 -14 -2 -20 -14 -16
12 -66 28 -56 9 5 9 12 -2 26 -8 11 -12 25 -9 31 2 7 -2 15 -9 20 -7 4 -10 4
-6 -1z"/>
<path fill="#000000" stroke="none" d="M236 278 c-3 -7 -9 -27 -14 -45 -6 -17
-8 -34 -5 -37 11 -10 33 16 33 39 0 29 10 37 28 22 13 -10 15 -9 9 6 -4 10 -7
21 -7 23 0 10 -41 3 -44 -8z"/>
<path fill="#000000" stroke="none" d="M35 180 c-3 -5 0 -7 9 -4 11 4 13 0 9
-18 -6 -20 -5 -22 10 -9 14 11 21 11 42 -3 l26 -17 -21 -26 c-11 -14 -18 -28
-15 -31 6 -6 40 27 44 43 4 13 13 23 10 10 -5 -23 15 -67 35 -75 15 -6 1 -8
-44 -8 -36 1 -51 3 -35 5 35 5 51 18 36 27 -6 4 -11 2 -11 -3 0 -6 -15 -10
-34 -8 -19 1 -32 5 -29 10 2 4 0 7 -5 7 -14 0 -42 -35 -42 -53 0 -15 16 -17
140 -17 118 0 140 2 140 15 0 11 -12 15 -46 15 -26 0 -43 4 -39 10 3 5 13 6
22 3 9 -4 6 3 -8 18 -26 27 -40 30 -19 4 11 -13 9 -15 -14 -15 -24 0 -25 2
-14 20 11 18 10 23 -12 40 -13 10 -27 17 -31 14 -9 -5 -30 21 -22 29 6 7 -5
12 -49 21 -15 3 -30 2 -33 -4z"/>
<path fill="#ffffff" stroke="none" d="M173 23 c-7 -2 -19 -2 -25 0 -7 3 -2 5
12 5 14 0 19 -2 13 -5z"/>
<path fill="#000000" stroke="none" d="M206 135 c-4 -10 3 -19 19 -27 21 -9
28 -8 45 7 11 10 20 23 20 28 0 6 -6 3 -13 -7 -13 -18 -15 -18 -39 -2 -23 15
-26 15 -32 1z"/>
<path fill="#000000" stroke="none" d="M50 115 c-11 -13 -10 -14 4 -9 9 3 16
10 16 15 0 13 -6 11 -20 -6z"/>
</g>
</svg>
