<?xml version="1.0" standalone="no"?>
<!DOCTYPE svg PUBLIC "-//W3C//DTD SVG 20010904//EN"
 "http://www.w3.org/TR/2001/REC-SVG-20010904/DTD/svg10.dtd">
<svg version="1.0" xmlns="http://www.w3.org/2000/svg"
 width="32.000000pt" height="32.000000pt" viewBox="0 0 32.000000 32.000000"
 preserveAspectRatio="xMidYMid meet">
<metadata>
Created by potrace 1.16, written by Peter Selinger 2001-2019
</metadata>
<g transform="translate(0.000000,32.000000) scale(0.100000,-0.100000)"
fill="#000000" stroke="none">
<path fill="#000000" stroke="none" d="M125 267 c6 -29 2 -38 -24 -63 -32 -30
-38 -52 -21 -84 8 -15 7 -18 -4 -14 -15 6 -56 -44 -56 -70 0 -14 18 -16 140
-16 127 0 140 2 140 18 0 15 -10 17 -77 16 -75 -1 -76 0 -10 3 70 4 84 16 50
44 -11 10 -14 10 -9 2 5 -9 -1 -13 -18 -13 -14 0 -26 5 -26 11 0 6 7 9 15 5 8
-3 14 -2 13 2 -1 4 2 15 7 25 4 10 2 23 -4 31 -6 7 -9 21 -5 30 3 9 1 16 -4
16 -20 0 -25 -22 -11 -47 11 -20 11 -26 -1 -33 -20 -13 -53 -13 -45 -1 3 6 8
47 11 92 4 72 3 81 -10 70 -11 -9 -20 -10 -36 -1 -20 11 -21 10 -15 -23z"/>
<path fill="#ffffff" stroke="none" d="M193 93 c-7 -2 -19 -2 -25 0 -7 3 -2 5
12 5 14 0 19 -2 13 -5z"/>
</g>
</svg>
