<?xml version="1.0" standalone="no"?>
<!DOCTYPE svg PUBLIC "-//W3C//DTD SVG 20010904//EN"
 "http://www.w3.org/TR/2001/REC-SVG-20010904/DTD/svg10.dtd">
<svg version="1.0" xmlns="http://www.w3.org/2000/svg"
 width="32.000000pt" height="32.000000pt" viewBox="0 0 32.000000 32.000000"
 preserveAspectRatio="xMidYMid meet">
<metadata>
Created by potrace 1.16, written by Peter Selinger 2001-2019
</metadata>
<g transform="translate(0.000000,32.000000) scale(0.100000,-0.100000)"
fill="#000000" stroke="none">
<path fill="#000000" stroke="none" d="M0 160 l0 -160 160 0 160 0 0 160 0
160 -160 0 -160 0 0 -160z"/>
<path fill="#ffffff" stroke="none" d="M180 306 c0 -2 -11 -6 -25 -8 -13 -3
-22 -1 -19 3 5 9 44 13 44 5z"/>
<path fill="#ffffff" stroke="none" d="M62 224 c-6 -35 -11 -25 -16 32 -4 46
-4 47 8 20 7 -15 11 -39 8 -52z"/>
<path fill="#ffffff" stroke="none" d="M174 282 c3 -5 8 -23 11 -40 4 -27 2
-32 -15 -32 -11 0 -23 0 -27 0 -11 0 -12 31 -2 58 8 22 24 29 33 14z"/>
<path fill="#ffffff" stroke="none" d="M33 260 c3 -11 1 -23 -4 -26 -5 -3 -9
6 -9 20 0 31 6 34 13 6z"/>
<path fill="#ffffff" stroke="none" d="M84 264 c3 -8 2 -12 -4 -9 -6 3 -10 10
-10 16 0 14 7 11 14 -7z"/>
<path fill="#ffffff" stroke="none" d="M281 219 l-9 -44 -1 41 c-1 22 2 44 6
47 12 12 13 1 4 -44z"/>
<path fill="#ffffff" stroke="none" d="M114 225 c-6 -16 -24 -21 -24 -7 0 11
11 22 21 22 5 0 6 -7 3 -15z"/>
<path fill="#ffffff" stroke="none" d="M220 219 c0 -5 -4 -9 -10 -9 -5 0 -10
7 -10 16 0 8 5 12 10 9 6 -3 10 -10 10 -16z"/>
<path fill="#ffffff" stroke="none" d="M176 170 c1 -18 -3 -30 -11 -30 -8 0
-12 12 -11 30 0 17 5 30 11 30 6 0 11 -13 11 -30z"/>
<path fill="#ffffff" stroke="none" d="M70 180 c0 -5 -5 -10 -11 -10 -5 0 -7
5 -4 10 3 6 8 10 11 10 2 0 4 -4 4 -10z"/>
<path fill="#ffffff" stroke="none" d="M79 90 c0 -9 -4 -8 -9 5 -5 11 -9 27
-9 35 0 9 4 8 9 -5 5 -11 9 -27 9 -35z"/>
<path fill="#ffffff" stroke="none" d="M130 100 c0 -5 -5 -10 -11 -10 -5 0 -7
5 -4 10 3 6 8 10 11 10 2 0 4 -4 4 -10z"/>
<path fill="#ffffff" stroke="none" d="M210 89 c0 -6 -4 -7 -10 -4 -5 3 -10
11 -10 16 0 6 5 7 10 4 6 -3 10 -11 10 -16z"/>
<path fill="#ffffff" stroke="none" d="M227 64 c-3 -3 -12 -4 -19 -1 -8 3 -5
6 6 6 11 1 17 -2 13 -5z"/>
<path fill="#ffffff" stroke="none" d="M300 35 c0 -11 -10 -15 -32 -14 l-33 2
30 6 c19 4 -5 8 -65 11 l-95 6 98 2 c80 2 97 -1 97 -13z"/>
<path fill="#ffffff" stroke="none" d="M217 24 c-3 -3 -12 -4 -19 -1 -8 3 -5
6 6 6 11 1 17 -2 13 -5z"/>
<path fill="#000000" stroke="none" d="M147 255 c-7 -16 8 -29 23 -20 10 6 2
35 -10 35 -4 0 -10 -7 -13 -15z"/>
</g>
</svg>
