<?xml version="1.0" standalone="no"?>
<!DOCTYPE svg PUBLIC "-//W3C//DTD SVG 20010904//EN"
 "http://www.w3.org/TR/2001/REC-SVG-20010904/DTD/svg10.dtd">
<svg version="1.0" xmlns="http://www.w3.org/2000/svg"
 width="32.000000pt" height="32.000000pt" viewBox="0 0 32.000000 32.000000"
 preserveAspectRatio="xMidYMid meet">
<metadata>
Created by potrace 1.16, written by Peter Selinger 2001-2019
</metadata>
<g transform="translate(0.000000,32.000000) scale(0.100000,-0.100000)"
fill="#000000" stroke="none">
<path fill="#000000" stroke="none" d="M0 160 l0 -160 160 0 160 0 0 160 0
160 -160 0 -160 0 0 -160z"/>
<path fill="#ffffff" stroke="none" d="M76 253 c-2 -21 2 -44 8 -52 9 -12 8
-13 -3 -7 -15 9 -15 9 13 -46 13 -25 28 -38 45 -41 14 -3 7 -4 -17 -4 -33 1
-46 6 -57 24 -10 15 -11 22 -4 21 6 -2 13 2 16 8 4 13 -28 15 -44 2 -8 -6 -11
2 -10 29 0 21 -4 49 -8 62 -6 17 -5 22 3 17 7 -4 12 -16 12 -26 0 -13 5 -17
15 -14 8 4 15 16 15 28 0 20 7 36 16 36 2 0 2 -17 0 -37z"/>
<path fill="#ffffff" stroke="none" d="M215 266 c24 -17 28 -71 8 -88 -20 -16
-51 -20 -58 -7 -10 15 3 56 19 62 17 7 30 -19 14 -29 -7 -4 -8 -3 -4 4 4 7 2
12 -4 12 -6 0 -10 -8 -8 -17 6 -31 33 -21 33 11 0 24 -5 31 -27 37 -31 8 -42
-2 -44 -38 0 -12 -7 -30 -15 -40 -9 -11 -10 -14 -1 -9 6 4 12 2 12 -3 0 -6 -6
-11 -12 -11 -9 0 -8 -3 2 -10 9 -5 19 -5 27 2 10 8 13 7 13 -4 0 -10 -9 -14
-27 -13 -19 1 -28 7 -28 17 0 9 -3 19 -7 23 -9 9 11 77 30 98 18 21 51 22 77
3z"/>
<path fill="#ffffff" stroke="none" d="M135 80 c-64 -4 -80 -7 -55 -11 l35 -6
-37 -1 c-28 -2 -38 2 -38 13 0 12 16 15 93 13 l92 -2 -90 -6z"/>
<path fill="#ffffff" stroke="none" d="M120 40 c-60 -3 -84 -7 -65 -11 l30 -6
-32 -2 c-23 -1 -33 3 -33 14 0 12 17 15 98 13 l97 -2 -95 -6z"/>
<path fill="#ffffff" stroke="none" d="M127 24 c-3 -3 -12 -4 -19 -1 -8 3 -5
6 6 6 11 1 17 -2 13 -5z"/>
</g>
</svg>
