<?xml version="1.0" standalone="no"?>
<!DOCTYPE svg PUBLIC "-//W3C//DTD SVG 20010904//EN"
 "http://www.w3.org/TR/2001/REC-SVG-20010904/DTD/svg10.dtd">
<svg version="1.0" xmlns="http://www.w3.org/2000/svg"
 width="32.000000pt" height="32.000000pt" viewBox="0 0 32.000000 32.000000"
 preserveAspectRatio="xMidYMid meet">
<metadata>
Created by potrace 1.16, written by Peter Selinger 2001-2019
</metadata>
<g transform="translate(0.000000,32.000000) scale(0.100000,-0.100000)"
fill="#000000" stroke="none">
<path fill="#000000" stroke="none" d="M0 160 l0 -160 160 0 160 0 0 160 0
160 -160 0 -160 0 0 -160z"/>
<path fill="#ffffff" stroke="none" d="M131 298 c0 -10 2 -10 6 0 6 16 43 16
43 0 0 -9 3 -9 9 1 7 11 15 8 37 -14 19 -18 25 -29 17 -32 -16 -6 -17 -39 -3
-48 6 -4 8 -10 5 -15 -9 -15 13 -85 35 -113 42 -53 34 -57 -120 -57 -129 0
-140 1 -140 18 0 11 10 27 21 38 27 24 39 55 45 118 3 34 1 52 -8 57 -10 6 -7
14 12 33 28 28 40 32 41 14z"/>
</g>
</svg>
