<?xml version="1.0" standalone="no"?>
<!DOCTYPE svg PUBLIC "-//W3C//DTD SVG 20010904//EN"
 "http://www.w3.org/TR/2001/REC-SVG-20010904/DTD/svg10.dtd">
<svg version="1.0" xmlns="http://www.w3.org/2000/svg"
 width="32.000000pt" height="32.000000pt" viewBox="0 0 32.000000 32.000000"
 preserveAspectRatio="xMidYMid meet">
<metadata>
Created by potrace 1.16, written by Peter Selinger 2001-2019
</metadata>
<g transform="translate(0.000000,32.000000) scale(0.100000,-0.100000)"
fill="#000000" stroke="none">
<path fill="#000000" stroke="none" d="M0 160 l0 -160 160 0 160 0 0 160 0
160 -160 0 -160 0 0 -160z"/>
<path fill="#ffffff" stroke="none" d="M183 293 c3 -5 -8 -8 -23 -8 -15 0 -26
3 -23 8 2 4 13 7 23 7 10 0 21 -3 23 -7z"/>
<path fill="#ffffff" stroke="none" d="M61 273 c13 -16 12 -17 -3 -4 -17 13
-22 21 -14 21 2 0 10 -8 17 -17z"/>
<path fill="#ffffff" stroke="none" d="M123 271 c4 -4 0 -8 -10 -8 -10 0 -24
7 -32 15 -13 13 -12 14 9 7 14 -4 29 -10 33 -14z"/>
<path fill="#ffffff" stroke="none" d="M235 274 c-9 -9 -19 -13 -23 -10 -3 4
0 11 8 16 24 15 33 11 15 -6z"/>
<path fill="#ffffff" stroke="none" d="M280 286 c0 -2 -8 -10 -17 -17 -16 -13
-17 -12 -4 4 13 16 21 21 21 13z"/>
<path fill="#ffffff" stroke="none" d="M175 260 c3 -6 -1 -7 -9 -4 -10 4 -16
1 -16 -7 0 -7 -3 -10 -6 -6 -7 7 4 27 16 27 5 0 12 -4 15 -10z"/>
<path fill="#ffffff" stroke="none" d="M92 212 c-7 -2 -9 -9 -5 -15 4 -7 0 -6
-10 1 -9 8 -22 10 -28 6 -8 -5 -9 -3 -5 5 5 7 14 10 22 7 8 -3 14 -1 14 5 0 6
5 7 12 3 9 -6 9 -9 0 -12z"/>
<path fill="#ffffff" stroke="none" d="M147 223 c-4 -3 -2 -12 5 -20 8 -11 7
-12 -6 -7 -9 3 -16 9 -16 13 0 9 11 21 18 21 3 0 2 -3 -1 -7z"/>
<path fill="#ffffff" stroke="none" d="M190 209 c0 -5 -4 -9 -8 -9 -5 0 -9 7
-9 15 0 8 4 12 9 9 4 -3 8 -9 8 -15z"/>
<path fill="#ffffff" stroke="none" d="M255 216 c7 3 16 0 21 -7 4 -8 3 -10
-5 -5 -6 4 -19 2 -28 -6 -12 -9 -15 -9 -9 0 4 7 2 12 -4 12 -6 0 -8 5 -4 12 6
9 9 9 11 1 3 -7 10 -10 18 -7z"/>
<path fill="#ffffff" stroke="none" d="M101 167 c-10 -9 -11 -8 -5 6 3 10 9
15 12 12 3 -3 0 -11 -7 -18z"/>
<path fill="#ffffff" stroke="none" d="M224 174 c3 -8 2 -12 -4 -9 -6 3 -10
10 -10 16 0 14 7 11 14 -7z"/>
<path fill="#ffffff" stroke="none" d="M67 128 c-3 -8 -6 -5 -6 6 -1 11 2 17
5 13 3 -3 4 -12 1 -19z"/>
<path fill="#ffffff" stroke="none" d="M170 136 c-7 -7 -13 -7 -20 0 -6 6 -3
10 10 10 13 0 16 -4 10 -10z"/>
<path fill="#ffffff" stroke="none" d="M257 128 c-3 -8 -6 -5 -6 6 -1 11 2 17
5 13 3 -3 4 -12 1 -19z"/>
<path fill="#ffffff" stroke="none" d="M40 46 c0 -3 -4 -8 -10 -11 -5 -3 -10
-1 -10 4 0 6 5 11 10 11 6 0 10 -2 10 -4z"/>
<path fill="#ffffff" stroke="none" d="M77 44 c-3 -3 -12 -4 -19 -1 -8 3 -5 6
6 6 11 1 17 -2 13 -5z"/>
<path fill="#ffffff" stroke="none" d="M147 44 c-3 -3 -12 -4 -19 -1 -8 3 -5
6 6 6 11 1 17 -2 13 -5z"/>
</g>
</svg>
