<?xml version="1.0" standalone="no"?>
<!DOCTYPE svg PUBLIC "-//W3C//DTD SVG 20010904//EN"
 "http://www.w3.org/TR/2001/REC-SVG-20010904/DTD/svg10.dtd">
<svg version="1.0" xmlns="http://www.w3.org/2000/svg"
 width="32.000000pt" height="32.000000pt" viewBox="0 0 32.000000 32.000000"
 preserveAspectRatio="xMidYMid meet">
<metadata>
Created by potrace 1.16, written by Peter Selinger 2001-2019
</metadata>
<g transform="translate(0.000000,32.000000) scale(0.100000,-0.100000)"
fill="#000000" stroke="none">
<path fill="#000000" stroke="none" d="M0 160 l0 -160 160 0 160 0 0 160 0
160 -160 0 -160 0 0 -160z"/>
<path fill="#ffffff" stroke="none" d="M112 279 c11 -6 18 -4 22 6 3 8 15 15
26 15 11 0 23 -7 26 -15 4 -10 11 -12 22 -6 20 10 102 23 102 16 0 -8 -54 -33
-82 -36 -16 -2 -34 4 -47 15 -21 19 -21 19 -42 0 -13 -11 -31 -17 -47 -15 -28
3 -82 28 -82 36 0 7 82 -6 102 -16z"/>
<path fill="#ffffff" stroke="none" d="M177 249 c5 -26 9 -30 29 -25 34 9 71
-9 89 -43 19 -37 19 -42 -1 -34 -8 3 -13 12 -10 20 3 8 1 11 -4 8 -6 -3 -13 1
-16 9 -3 9 -11 13 -17 9 -5 -3 -16 2 -24 12 -12 17 -13 17 -13 1 0 -9 11 -28
25 -42 26 -26 32 -44 15 -44 -5 0 -10 5 -10 11 0 6 -11 24 -25 41 -20 24 -26
27 -31 14 -8 -21 -40 -21 -48 0 -5 13 -11 10 -31 -14 -14 -17 -25 -35 -25 -41
0 -6 -4 -11 -10 -11 -17 0 -11 18 15 44 14 14 25 33 25 42 0 16 -1 16 -13 -1
-8 -10 -19 -15 -24 -12 -6 4 -14 0 -17 -9 -3 -8 -10 -12 -16 -9 -5 3 -7 0 -4
-8 3 -8 -2 -17 -10 -20 -20 -8 -20 -3 -1 34 18 34 55 52 89 43 20 -5 24 -1 29
25 4 17 11 31 17 31 6 0 13 -14 17 -31z"/>
<path fill="#ffffff" stroke="none" d="M108 119 c-10 -28 -53 -67 -63 -57 -5
4 62 88 70 88 2 0 -1 -14 -7 -31z"/>
<path fill="#ffffff" stroke="none" d="M176 138 c-9 -5 -23 -5 -32 0 -12 6 -7
9 16 9 23 0 28 -3 16 -9z"/>
<path fill="#ffffff" stroke="none" d="M275 62 c-11 -11 -53 29 -64 60 l-11
33 40 -44 c22 -24 38 -46 35 -49z"/>
<path fill="#ffffff" stroke="none" d="M160 80 c5 0 11 8 13 18 4 13 5 11 6
-5 1 -17 -5 -23 -19 -23 -14 0 -20 6 -19 23 1 16 2 18 6 5 2 -10 8 -18 13 -18z"/>
<path fill="#ffffff" stroke="none" d="M120 40 c-60 -3 -84 -7 -65 -11 l30 -6
-32 -2 c-23 -1 -33 3 -33 14 0 12 17 15 98 13 l97 -2 -95 -6z"/>
<path fill="#ffffff" stroke="none" d="M127 24 c-3 -3 -12 -4 -19 -1 -8 3 -5
6 6 6 11 1 17 -2 13 -5z"/>
<path fill="#000000" stroke="none" d="M150 225 c0 -14 5 -25 10 -25 6 0 10
11 10 25 0 14 -4 25 -10 25 -5 0 -10 -11 -10 -25z"/>
</g>
</svg>
