<?xml version="1.0" standalone="no"?>
<!DOCTYPE svg PUBLIC "-//W3C//DTD SVG 20010904//EN"
 "http://www.w3.org/TR/2001/REC-SVG-20010904/DTD/svg10.dtd">
<svg version="1.0" xmlns="http://www.w3.org/2000/svg"
 width="32.000000pt" height="32.000000pt" viewBox="0 0 32.000000 32.000000"
 preserveAspectRatio="xMidYMid meet">
<metadata>
Created by potrace 1.16, written by Peter Selinger 2001-2019
</metadata>
<g transform="translate(0.000000,32.000000) scale(0.100000,-0.100000)"
fill="#000000" stroke="none">
<path fill="#000000" stroke="none" d="M92 293 c-22 -3 -30 -8 -25 -16 17 -26
31 -77 19 -70 -32 18 -37 26 -24 35 9 7 7 8 -7 6 -31 -5 -24 -31 14 -50 l34
-17 -26 -10 c-33 -13 -34 -26 -4 -42 33 -19 68 -20 91 -3 21 15 20 15 -5 9
-16 -4 -30 -1 -37 8 -10 12 -1 15 58 21 92 8 147 33 107 49 -7 3 -24 -1 -38
-9 -33 -18 -39 -17 -74 12 l-30 25 30 -11 c24 -9 36 -8 67 7 21 10 36 23 35
28 -8 26 -95 39 -185 28z"/>
<path fill="#ffffff" stroke="none" d="M100 155 c0 -9 -9 -15 -22 -15 -22 1
-23 1 -4 15 25 19 26 19 26 0z"/>
<path fill="#000000" stroke="none" d="M222 120 c2 -7 -17 -18 -42 -26 -51
-16 -71 -18 -52 -5 11 7 10 10 -3 15 -23 9 -25 8 -25 -9 0 -16 -27 -20 -49 -6
-8 5 -10 14 -6 22 7 12 6 12 -6 1 -12 -11 -11 -15 3 -26 10 -7 15 -16 11 -20
-4 -4 -1 -5 7 -2 8 3 31 1 50 -4 35 -9 35 -9 -10 -6 -25 1 -50 5 -56 9 -14 8
-24 -1 -24 -25 0 -17 11 -18 140 -18 118 0 140 2 140 15 0 12 -15 15 -75 15
-60 0 -75 3 -75 15 0 10 10 15 29 15 41 0 83 18 78 33 -5 16 -38 22 -35 7z"/>
<path fill="#ffffff" stroke="none" d="M173 33 c-7 -2 -19 -2 -25 0 -7 3 -2 5
12 5 14 0 19 -2 13 -5z"/>
<path fill="#ffffff" stroke="none" d="M243 33 c-7 -2 -19 -2 -25 0 -7 3 -2 5
12 5 14 0 19 -2 13 -5z"/>
</g>
</svg>
