<?xml version="1.0" standalone="no"?>
<!DOCTYPE svg PUBLIC "-//W3C//DTD SVG 20010904//EN"
 "http://www.w3.org/TR/2001/REC-SVG-20010904/DTD/svg10.dtd">
<svg version="1.0" xmlns="http://www.w3.org/2000/svg"
 width="32.000000pt" height="32.000000pt" viewBox="0 0 32.000000 32.000000"
 preserveAspectRatio="xMidYMid meet">
<metadata>
Created by potrace 1.16, written by Peter Selinger 2001-2019
</metadata>
<g transform="translate(0.000000,32.000000) scale(0.100000,-0.100000)"
fill="#000000" stroke="none">
<path fill="#000000" stroke="none" d="M0 160 l0 -160 160 0 160 0 0 160 0
160 -160 0 -160 0 0 -160z"/>
<path fill="#ffffff" stroke="none" d="M123 270 c9 0 19 5 22 10 12 19 45 11
45 -11 0 -21 1 -20 21 5 26 33 49 34 49 2 0 -87 -28 -151 -32 -73 -1 21 -4 12
-8 -23 -5 -45 -7 -48 -8 -18 -2 43 -17 58 -26 24 -6 -23 18 -84 37 -98 6 -3
19 -5 30 -3 15 3 17 1 7 -10 -6 -8 -21 -16 -33 -18 -12 -2 -3 -5 21 -6 30 -1
41 2 36 11 -4 7 -3 8 4 4 7 -4 12 -16 12 -27 0 -18 -8 -19 -140 -19 -124 0
-140 2 -140 17 0 19 28 53 43 53 6 0 2 -7 -9 -16 -13 -11 -9 -10 14 3 39 21
48 34 57 87 5 26 4 37 -3 32 -6 -3 -13 0 -15 6 -3 7 -6 -5 -8 -27 -1 -25 -3
-31 -6 -17 -2 12 -8 20 -12 17 -10 -6 -22 90 -14 111 5 13 7 13 23 -1 9 -8 24
-15 33 -15z"/>
<path fill="#000000" stroke="none" d="M154 246 c-3 -14 -2 -35 2 -48 l8 -23
7 25 c11 37 10 70 -1 70 -5 0 -12 -11 -16 -24z"/>
<path fill="#000000" stroke="none" d="M148 53 c6 -2 18 -2 25 0 6 3 1 5 -13
5 -14 0 -19 -2 -12 -5z"/>
</g>
</svg>
