<?xml version="1.0" standalone="no"?>
<!DOCTYPE svg PUBLIC "-//W3C//DTD SVG 20010904//EN"
 "http://www.w3.org/TR/2001/REC-SVG-20010904/DTD/svg10.dtd">
<svg version="1.0" xmlns="http://www.w3.org/2000/svg"
 width="32.000000pt" height="32.000000pt" viewBox="0 0 32.000000 32.000000"
 preserveAspectRatio="xMidYMid meet">
<metadata>
Created by potrace 1.16, written by Peter Selinger 2001-2019
</metadata>
<g transform="translate(0.000000,32.000000) scale(0.100000,-0.100000)"
fill="#000000" stroke="none">
<path fill="#000000" stroke="none" d="M230 300 c-8 -5 -15 -19 -15 -32 0 -19
-5 -22 -47 -23 -45 0 -65 12 -60 37 1 4 -9 10 -22 14 -26 6 -66 -10 -66 -27 0
-6 5 -7 10 -4 6 3 10 1 10 -6 0 -7 3 -9 7 -6 6 6 53 -54 53 -68 0 -17 -41 -93
-59 -109 -12 -11 -21 -27 -21 -38 0 -17 11 -18 140 -18 158 0 161 1 111 70
-15 21 -34 53 -41 71 -12 29 -12 33 8 48 12 9 27 31 33 48 7 21 15 30 22 26 7
-4 6 1 -2 10 -15 19 -38 22 -61 7z"/>
<path fill="#ffffff" stroke="none" d="M192 123 c21 -18 23 -39 6 -49 -7 -5
-8 -3 -3 6 6 9 -2 11 -34 8 -45 -4 -56 13 -23 38 23 18 32 17 54 -3z"/>
</g>
</svg>
