<?xml version="1.0" standalone="no"?>
<!DOCTYPE svg PUBLIC "-//W3C//DTD SVG 20010904//EN"
 "http://www.w3.org/TR/2001/REC-SVG-20010904/DTD/svg10.dtd">
<svg version="1.0" xmlns="http://www.w3.org/2000/svg"
 width="32.000000pt" height="32.000000pt" viewBox="0 0 32.000000 32.000000"
 preserveAspectRatio="xMidYMid meet">
<metadata>
Created by potrace 1.16, written by Peter Selinger 2001-2019
</metadata>
<g transform="translate(0.000000,32.000000) scale(0.100000,-0.100000)"
fill="#000000" stroke="none">
<path fill="#000000" stroke="none" d="M0 160 l0 -160 160 0 160 0 0 160 0
160 -160 0 -160 0 0 -160z"/>
<path fill="#ffffff" stroke="none" d="M100 298 c-22 -10 -23 -12 -6 -16 12
-2 25 3 33 14 10 14 16 15 25 6 7 -7 9 -12 4 -12 -4 0 0 -7 8 -16 22 -21 20
-32 -6 -36 -21 -3 -21 -4 -4 -20 10 -10 26 -18 37 -18 27 0 83 -56 75 -75 -3
-8 -10 -15 -16 -15 -6 0 -8 5 -5 10 4 6 4 18 1 27 -6 15 -8 14 -19 -1 -7 -10
-13 -32 -12 -49 0 -30 -3 -32 -40 -38 -30 -5 -21 -6 38 -7 57 -2 76 1 71 10
-4 7 -3 8 4 4 7 -4 12 -16 12 -27 0 -18 -8 -19 -140 -19 -124 0 -140 2 -140
17 0 9 7 25 17 35 18 20 73 25 73 6 0 -7 6 -4 13 7 16 28 17 73 1 79 -9 3 -14
-1 -14 -12 0 -25 -16 -46 -29 -37 -9 5 -9 10 -1 20 7 8 9 19 5 25 -4 6 1 17
10 24 16 11 16 13 1 13 -8 0 -18 -9 -22 -19 -5 -18 -16 -23 -26 -12 -10 9 26
64 39 60 6 -3 14 2 17 11 4 9 5 16 4 17 -2 1 -13 7 -26 14 -26 15 -46 7 -38
-15 3 -8 1 -11 -4 -8 -27 17 17 65 58 64 l27 0 -25 -11z"/>
<path fill="#ffffff" stroke="none" d="M258 73 c-12 -15 -22 -18 -13 -4 3 5
-3 12 -12 14 -10 3 -6 4 9 4 21 -1 24 -4 16 -14z"/>
<path fill="#000000" stroke="none" d="M160 160 c-1 -3 -3 -21 -4 -41 -2 -28
1 -36 13 -35 24 2 32 19 17 36 -7 8 -16 22 -19 30 -3 8 -6 13 -7 10z"/>
</g>
</svg>
