<?xml version="1.0" standalone="no"?>
<!DOCTYPE svg PUBLIC "-//W3C//DTD SVG 20010904//EN"
 "http://www.w3.org/TR/2001/REC-SVG-20010904/DTD/svg10.dtd">
<svg version="1.0" xmlns="http://www.w3.org/2000/svg"
 width="32.000000pt" height="32.000000pt" viewBox="0 0 32.000000 32.000000"
 preserveAspectRatio="xMidYMid meet">
<metadata>
Created by potrace 1.16, written by Peter Selinger 2001-2019
</metadata>
<g transform="translate(0.000000,32.000000) scale(0.100000,-0.100000)"
fill="#000000" stroke="none">
<path fill="#000000" stroke="none" d="M172 297 c-8 -9 -6 -16 7 -24 18 -12
31 -8 31 8 0 5 -8 6 -17 2 -15 -5 -14 -3 2 10 17 14 17 16 4 17 -9 0 -21 -6
-27 -13z"/>
<path fill="#000000" stroke="none" d="M100 265 c-11 -30 -6 -60 9 -51 4 3 6
17 3 32 -4 20 -1 25 9 22 8 -3 13 -10 12 -16 -2 -6 6 -13 16 -17 14 -4 17 -13
15 -36 -3 -27 -2 -29 11 -19 8 6 19 9 25 5 5 -3 10 -1 10 4 0 6 -6 11 -14 11
-8 0 -18 5 -22 12 -5 7 -3 8 6 3 8 -5 17 -2 24 7 10 14 17 14 51 2 48 -17 63
-18 49 -4 -6 6 -21 13 -35 15 -76 14 -126 29 -141 43 -16 13 -18 12 -28 -13z"/>
<path fill="#ffffff" stroke="none" d="M189 241 c7 -5 9 -11 4 -14 -4 -3 -17
1 -28 9 -21 16 0 20 24 5z"/>
<path fill="#000000" stroke="none" d="M246 267 c3 -10 9 -15 12 -12 3 3 0 11
-7 18 -10 9 -11 8 -5 -6z"/>
<path fill="#000000" stroke="none" d="M253 170 c0 -25 2 -35 4 -22 2 12 2 32
0 45 -2 12 -4 2 -4 -23z"/>
<path fill="#000000" stroke="none" d="M55 169 c-11 -17 -2 -18 19 -3 17 12
17 14 4 14 -9 0 -20 -5 -23 -11z"/>
<path fill="#000000" stroke="none" d="M171 161 c-10 -7 -8 -13 9 -29 l22 -20
-34 -8 c-18 -4 -37 -7 -42 -5 -5 1 -4 -5 4 -14 9 -10 16 -12 25 -5 6 5 16 6
20 2 5 -4 5 -1 0 7 -5 9 -3 12 6 9 8 -3 13 -12 11 -19 -3 -11 -1 -11 9 -2 16
16 21 43 8 43 -6 0 -7 5 -3 12 5 7 3 8 -6 3 -10 -6 -12 -4 -7 8 7 20 -4 29
-22 18z"/>
<path fill="#000000" stroke="none" d="M220 70 c-9 -6 -10 -10 -3 -10 6 0 15
5 18 10 8 12 4 12 -15 0z"/>
<path fill="#000000" stroke="none" d="M20 35 c0 -11 10 -15 33 -14 l32 2 -30
6 c-19 4 5 8 65 11 l95 6 -97 2 c-81 2 -98 -1 -98 -13z"/>
<path fill="#000000" stroke="none" d="M108 23 c7 -3 16 -2 19 1 4 3 -2 6 -13
5 -11 0 -14 -3 -6 -6z"/>
</g>
</svg>
