<?xml version="1.0" standalone="no"?>
<!DOCTYPE svg PUBLIC "-//W3C//DTD SVG 20010904//EN"
 "http://www.w3.org/TR/2001/REC-SVG-20010904/DTD/svg10.dtd">
<svg version="1.0" xmlns="http://www.w3.org/2000/svg"
 width="32.000000pt" height="32.000000pt" viewBox="0 0 32.000000 32.000000"
 preserveAspectRatio="xMidYMid meet">
<metadata>
Created by potrace 1.16, written by Peter Selinger 2001-2019
</metadata>
<g transform="translate(0.000000,32.000000) scale(0.100000,-0.100000)"
fill="#000000" stroke="none">
<path fill="#000000" stroke="none" d="M0 160 l0 -160 160 0 160 0 0 160 0
160 -160 0 -160 0 0 -160z"/>
<path fill="#ffffff" stroke="none" d="M167 264 c7 -20 -2 -28 -23 -20 -13 5
-14 10 -6 18 8 8 7 15 -6 25 -15 13 -14 13 6 3 13 -6 26 -18 29 -26z"/>
<path fill="#ffffff" stroke="none" d="M135 209 c-4 -5 0 -11 7 -14 8 -3 14
-14 15 -25 2 -17 0 -18 -17 -3 -11 9 -17 20 -14 25 3 4 1 8 -5 8 -6 0 -8 7 -5
15 4 8 10 12 15 9 5 -3 7 -10 4 -15z"/>
<path fill="#ffffff" stroke="none" d="M102 182 c-7 -2 -10 -7 -7 -12 3 -4 -2
-13 -10 -20 -11 -9 -15 -10 -15 -1 0 23 21 52 33 44 8 -5 8 -8 -1 -11z"/>
<path fill="#ffffff" stroke="none" d="M105 141 c-3 -6 3 -14 12 -20 10 -6 13
-11 7 -11 -15 0 -36 25 -27 33 10 10 15 8 8 -2z"/>
<path fill="#ffffff" stroke="none" d="M70 86 c0 -2 -7 -6 -15 -10 -8 -3 -15
-1 -15 4 0 6 7 10 15 10 8 0 15 -2 15 -4z"/>
<path fill="#ffffff" stroke="none" d="M113 83 c-7 -2 -19 -2 -25 0 -7 3 -2 5
12 5 14 0 19 -2 13 -5z"/>
<path fill="#ffffff" stroke="none" d="M40 46 c0 -3 -4 -8 -10 -11 -5 -3 -10
-1 -10 4 0 6 5 11 10 11 6 0 10 -2 10 -4z"/>
<path fill="#ffffff" stroke="none" d="M77 44 c-3 -3 -12 -4 -19 -1 -8 3 -5 6
6 6 11 1 17 -2 13 -5z"/>
<path fill="#ffffff" stroke="none" d="M147 44 c-3 -3 -12 -4 -19 -1 -8 3 -5
6 6 6 11 1 17 -2 13 -5z"/>
</g>
</svg>
