<?xml version="1.0" standalone="no"?>
<!DOCTYPE svg PUBLIC "-//W3C//DTD SVG 20010904//EN"
 "http://www.w3.org/TR/2001/REC-SVG-20010904/DTD/svg10.dtd">
<svg version="1.0" xmlns="http://www.w3.org/2000/svg"
 width="32.000000pt" height="32.000000pt" viewBox="0 0 32.000000 32.000000"
 preserveAspectRatio="xMidYMid meet">
<metadata>
Created by potrace 1.16, written by Peter Selinger 2001-2019
</metadata>
<g transform="translate(0.000000,32.000000) scale(0.100000,-0.100000)"
fill="#000000" stroke="none">
<path fill="#000000" stroke="none" d="M0 160 l0 -160 160 0 160 0 0 160 0
160 -160 0 -160 0 0 -160z"/>
<path fill="#ffffff" stroke="none" d="M255 122 c20 4 23 3 14 -8 -6 -8 -8
-26 -4 -44 5 -24 3 -31 -12 -37 -10 -3 -21 -11 -25 -17 -4 -6 -6 13 -3 42 4
41 2 54 -10 58 -8 4 -15 11 -15 16 0 6 6 5 15 -2 8 -7 26 -10 40 -8z"/>
<path fill="#ffffff" stroke="none" d="M300 116 c0 -2 -8 -10 -17 -17 -16 -13
-17 -12 -4 4 13 16 21 21 21 13z"/>
<path fill="#ffffff" stroke="none" d="M216 71 c-4 -6 -14 -11 -22 -11 -12 0
-12 3 -2 20 7 11 16 16 21 11 5 -5 6 -14 3 -20z"/>
</g>
</svg>
