<?xml version="1.0" standalone="no"?>
<!DOCTYPE svg PUBLIC "-//W3C//DTD SVG 20010904//EN"
 "http://www.w3.org/TR/2001/REC-SVG-20010904/DTD/svg10.dtd">
<svg version="1.0" xmlns="http://www.w3.org/2000/svg"
 width="32.000000pt" height="32.000000pt" viewBox="0 0 32.000000 32.000000"
 preserveAspectRatio="xMidYMid meet">
<metadata>
Created by potrace 1.16, written by Peter Selinger 2001-2019
</metadata>
<g transform="translate(0.000000,32.000000) scale(0.100000,-0.100000)"
fill="#000000" stroke="none">
<path fill="#000000" stroke="none" d="M0 160 l0 -160 89 0 c73 0 90 3 95 16
4 9 1 23 -6 31 -10 13 -7 20 16 40 19 16 37 23 53 20 13 -2 26 0 29 4 9 16 26
9 20 -7 -4 -9 -1 -23 6 -31 10 -13 7 -20 -15 -39 -29 -25 -61 -31 -72 -14 -4
6 -11 8 -16 4 -22 -13 6 -24 62 -24 l59 0 0 160 0 160 -160 0 -160 0 0 -160z"/>
<path fill="#000000" stroke="none" d="M276 101 c-3 -4 -16 -7 -28 -4 -13 2
-34 -5 -48 -17 l-25 -20 25 -20 c32 -25 49 -25 80 0 23 19 24 21 8 33 -13 11
-15 16 -6 25 7 7 9 12 6 12 -4 0 -9 -4 -12 -9z"/>
<path fill="#ffffff" stroke="none" d="M270 75 c15 -18 -2 -45 -30 -45 -28 0
-45 27 -30 45 7 8 20 15 30 15 10 0 23 -7 30 -15z"/>
<path fill="#000000" stroke="none" d="M223 65 c-3 -9 -3 -18 0 -22 10 -10 37
6 37 22 0 20 -29 20 -37 0z"/>
</g>
</svg>
