<?xml version="1.0" standalone="no"?>
<!DOCTYPE svg PUBLIC "-//W3C//DTD SVG 20010904//EN"
 "http://www.w3.org/TR/2001/REC-SVG-20010904/DTD/svg10.dtd">
<svg version="1.0" xmlns="http://www.w3.org/2000/svg"
 width="32.000000pt" height="32.000000pt" viewBox="0 0 32.000000 32.000000"
 preserveAspectRatio="xMidYMid meet">
<metadata>
Created by potrace 1.16, written by Peter Selinger 2001-2019
</metadata>
<g transform="translate(0.000000,32.000000) scale(0.100000,-0.100000)"
fill="#000000" stroke="none">
<path fill="#000000" stroke="none" d="M75 309 c-3 -4 2 -6 10 -5 21 3 28 13
10 13 -9 0 -18 -4 -20 -8z"/>
<path fill="#000000" stroke="none" d="M116 279 c2 -3 -3 -15 -11 -25 -12 -15
-14 -15 -9 -2 6 17 -10 19 -32 5 -18 -10 -23 -44 -8 -44 7 0 11 4 8 8 -2 4 0
10 5 13 10 6 9 -12 -1 -29 -3 -5 -4 -27 -2 -48 2 -27 0 -36 -9 -30 -8 5 -8 2
1 -9 9 -12 10 -18 2 -23 -8 -5 -8 -11 1 -21 6 -7 15 -11 21 -8 5 4 5 11 -1 18
-6 7 -7 16 -3 20 7 7 8 12 11 39 1 6 13 17 27 24 l26 12 -18 -22 c-11 -12 -23
-25 -28 -28 -4 -4 -3 -10 3 -14 9 -5 9 -10 1 -20 -7 -9 -6 -16 5 -25 12 -10
15 -10 15 4 0 9 5 16 10 16 6 0 10 -5 10 -12 0 -6 13 0 28 15 21 21 31 24 40
15 9 -9 14 -6 21 13 5 13 7 27 5 30 -2 3 3 6 10 6 7 0 13 -14 14 -32 2 -31 1
-32 -38 -31 -36 1 -39 0 -24 -11 16 -12 15 -13 -9 -13 -15 0 -27 -4 -27 -9 0
-5 16 -9 35 -9 19 0 32 4 29 9 -3 5 -2 8 3 7 29 -8 60 21 64 57 0 6 6 17 12
25 10 13 10 13 -5 1 -10 -7 -15 -18 -11 -24 3 -6 1 -7 -6 -3 -6 4 -9 11 -6 15
6 10 -29 43 -37 35 -3 -3 -9 -1 -12 4 -3 5 1 16 10 23 12 10 15 10 12 0 -2 -8
5 -15 14 -16 16 -3 16 -1 3 24 -14 28 -45 59 -45 46 0 -4 -8 -1 -17 6 -15 11
-16 11 -6 0 12 -14 7 -41 -9 -41 -5 0 -7 4 -3 9 3 5 0 13 -6 17 -7 4 -9 3 -5
-4 3 -6 2 -13 -3 -16 -5 -4 -12 -2 -16 4 -4 6 -10 8 -15 5 -5 -3 -11 -1 -15 5
-3 5 5 14 18 19 38 15 39 27 2 26 -18 0 -31 -3 -29 -6z"/>
<path fill="#ffffff" stroke="none" d="M145 220 c-3 -5 -12 -10 -18 -10 -7 0
-6 4 3 10 19 12 23 12 15 0z"/>
<path fill="#ffffff" stroke="none" d="M93 195 c-3 -9 -8 -14 -10 -11 -3 3 -2
9 2 15 9 16 15 13 8 -4z"/>
<path fill="#ffffff" stroke="none" d="M200 200 c0 -5 -2 -10 -4 -10 -3 0 -8
5 -11 10 -3 6 -1 10 4 10 6 0 11 -4 11 -10z"/>
<path fill="#000000" stroke="none" d="M247 269 c7 -9 11 -18 8 -20 -2 -3 5
-10 16 -17 18 -12 19 -11 10 6 -6 11 -7 23 -3 28 4 5 3 6 -2 2 -5 -4 -16 -2
-25 5 -14 10 -14 10 -4 -4z"/>
<path fill="#000000" stroke="none" d="M19 233 c-13 -16 -12 -17 4 -4 16 13
21 21 13 21 -2 0 -10 -8 -17 -17z"/>
<path fill="#000000" stroke="none" d="M29 155 c-1 -11 -3 -30 -4 -42 -3 -30
11 -20 19 13 4 15 2 32 -3 37 -8 8 -11 5 -12 -8z"/>
<path fill="#000000" stroke="none" d="M29 67 c7 -10 20 -17 27 -17 8 0 14 -4
14 -8 0 -4 9 -8 19 -8 15 0 17 3 9 13 -6 8 -13 11 -16 9 -2 -3 -19 2 -36 11
-29 15 -30 15 -17 0z"/>
<path fill="#000000" stroke="none" d="M270 70 c-8 -26 -7 -41 2 -32 6 6 8 16
5 24 -3 7 -6 11 -7 8z"/>
<path fill="#000000" stroke="none" d="M229 44 c-7 -9 -22 -20 -34 -24 -20 -9
-20 -9 0 -9 26 -1 48 13 51 33 3 20 0 20 -17 0z"/>
</g>
</svg>
