<?xml version="1.0" standalone="no"?>
<!DOCTYPE svg PUBLIC "-//W3C//DTD SVG 20010904//EN"
 "http://www.w3.org/TR/2001/REC-SVG-20010904/DTD/svg10.dtd">
<svg version="1.0" xmlns="http://www.w3.org/2000/svg"
 width="32.000000pt" height="32.000000pt" viewBox="0 0 32.000000 32.000000"
 preserveAspectRatio="xMidYMid meet">
<metadata>
Created by potrace 1.16, written by Peter Selinger 2001-2019
</metadata>
<g transform="translate(0.000000,32.000000) scale(0.100000,-0.100000)"
fill="#000000" stroke="none">
<path fill="#000000" stroke="none" d="M75 309 c-3 -4 2 -6 10 -5 21 3 28 13
10 13 -9 0 -18 -4 -20 -8z"/>
<path fill="#000000" stroke="none" d="M135 290 c-3 -6 -11 -7 -17 -4 -7 4 -8
2 -4 -4 4 -7 1 -13 -8 -13 -9 -1 -21 -2 -28 -3 -15 -1 -39 -46 -31 -58 2 -5
12 -3 21 4 15 11 15 11 4 -3 -23 -29 -9 -93 21 -94 4 0 7 -3 7 -7 0 -7 -5 -10
-12 -7 -23 7 -38 5 -38 -5 0 -18 21 -35 36 -29 8 3 22 -1 31 -8 14 -12 15 -11
8 11 -7 21 -6 23 7 13 8 -7 18 -9 22 -5 4 4 6 0 4 -8 -2 -10 7 -15 30 -17 35
-1 59 -13 28 -13 -11 0 -15 -4 -10 -12 6 -10 5 -10 -7 -1 -13 10 -16 10 -16
-2 0 -10 9 -14 29 -13 25 2 32 9 30 29 -1 3 5 6 13 6 8 0 11 -5 8 -11 -4 -6 3
-2 15 8 12 11 20 21 17 24 -3 3 1 12 8 21 11 14 10 14 -5 2 -10 -7 -16 -17
-13 -20 2 -4 -2 -8 -10 -8 -19 0 -19 2 7 32 11 13 22 39 24 57 3 30 2 31 -7 9
-7 -18 -12 -21 -23 -12 -8 7 -13 17 -12 24 7 31 20 48 33 43 9 -4 11 -2 6 7
-4 6 -8 21 -8 32 -1 11 -7 19 -13 17 -7 -1 -22 2 -32 8 -19 10 -19 9 1 -27
l21 -38 -26 24 c-14 14 -26 21 -26 16 0 -5 -5 -4 -12 3 -17 17 -33 15 -18 -3
9 -11 9 -15 1 -15 -7 0 -9 -5 -5 -12 4 -7 3 -8 -5 -4 -6 4 -8 13 -5 19 4 7 -6
1 -22 -13 -15 -14 -22 -17 -15 -7 12 15 11 17 -3 17 -10 0 -14 5 -11 10 4 6
10 8 14 5 5 -2 17 5 27 18 10 12 15 19 10 15 -5 -4 -15 -3 -22 3 -8 7 -14 7
-19 -1z"/>
<path fill="#ffffff" stroke="none" d="M287 255 c0 -8 -4 -12 -9 -9 -5 3 -6
10 -3 15 9 13 12 11 12 -6z"/>
<path fill="#ffffff" stroke="none" d="M93 195 c-3 -9 -8 -14 -10 -11 -3 3 -2
9 2 15 9 16 15 13 8 -4z"/>
<path fill="#ffffff" stroke="none" d="M200 200 c0 -5 -2 -10 -4 -10 -3 0 -8
5 -11 10 -3 6 -1 10 4 10 6 0 11 -4 11 -10z"/>
<path fill="#ffffff" stroke="none" d="M241 197 c-6 -8 -7 -18 -3 -22 4 -5 1
-5 -6 -1 -10 6 -10 11 -1 22 6 8 14 14 16 14 3 0 0 -6 -6 -13z"/>
<path fill="#ffffff" stroke="none" d="M140 177 c0 -2 -12 -14 -26 -28 -16
-15 -24 -18 -22 -9 2 8 12 20 23 26 24 15 25 15 25 11z"/>
<path fill="#ffffff" stroke="none" d="M259 105 c1 -6 -13 -11 -30 -11 -29 -2
-29 -1 -10 13 12 8 21 22 22 31 0 14 2 13 9 -3 5 -11 9 -25 9 -30z"/>
<path fill="#ffffff" stroke="none" d="M210 74 c0 -2 -9 -4 -21 -4 -11 0 -18
4 -14 10 5 8 35 3 35 -6z"/>
<path fill="#000000" stroke="none" d="M20 235 c-11 -13 -10 -14 4 -9 9 3 16
10 16 15 0 13 -6 11 -20 -6z"/>
<path fill="#000000" stroke="none" d="M25 119 c2 -53 7 -75 20 -87 17 -16 17
-16 12 1 -4 9 -2 17 3 17 6 0 10 -4 10 -8 0 -4 9 -8 20 -9 11 -1 20 2 20 8 0
5 -4 9 -10 9 -39 0 -60 18 -60 50 0 16 4 31 9 34 9 6 -9 56 -20 56 -3 0 -5
-32 -4 -71z"/>
<path fill="#000000" stroke="none" d="M0 51 c0 -5 7 -15 17 -22 15 -13 15
-12 4 9 -12 23 -21 28 -21 13z"/>
</g>
</svg>
