<?xml version="1.0" standalone="no"?>
<!DOCTYPE svg PUBLIC "-//W3C//DTD SVG 20010904//EN"
 "http://www.w3.org/TR/2001/REC-SVG-20010904/DTD/svg10.dtd">
<svg version="1.0" xmlns="http://www.w3.org/2000/svg"
 width="32.000000pt" height="32.000000pt" viewBox="0 0 32.000000 32.000000"
 preserveAspectRatio="xMidYMid meet">
<metadata>
Created by potrace 1.16, written by Peter Selinger 2001-2019
</metadata>
<g transform="translate(0.000000,32.000000) scale(0.100000,-0.100000)"
fill="#000000" stroke="none">
<path fill="#000000" stroke="none" d="M0 160 l0 -160 160 0 160 0 0 160 0
160 -160 0 -160 0 0 -160z"/>
<path fill="#ffffff" stroke="none" d="M295 120 c17 -19 17 -20 0 -20 -10 0
-15 3 -12 7 4 3 2 12 -4 20 -18 21 -4 15 16 -7z"/>
<path fill="#ffffff" stroke="none" d="M310 47 c0 -2 -10 -12 -22 -23 -14 -12
-18 -13 -10 -3 6 9 9 19 5 22 -3 4 1 7 10 7 10 0 17 -2 17 -3z"/>
</g>
</svg>
