<?xml version="1.0" standalone="no"?>
<!DOCTYPE svg PUBLIC "-//W3C//DTD SVG 20010904//EN"
 "http://www.w3.org/TR/2001/REC-SVG-20010904/DTD/svg10.dtd">
<svg version="1.0" xmlns="http://www.w3.org/2000/svg"
 width="32.000000pt" height="32.000000pt" viewBox="0 0 32.000000 32.000000"
 preserveAspectRatio="xMidYMid meet">
<metadata>
Created by potrace 1.16, written by Peter Selinger 2001-2019
</metadata>
<g transform="translate(0.000000,32.000000) scale(0.100000,-0.100000)"
fill="#000000" stroke="none">
<path fill="#000000" stroke="none" d="M0 160 l0 -160 160 0 160 0 0 160 0
160 -160 0 -160 0 0 -160z"/>
<path fill="#ffffff" stroke="none" d="M260 121 c-15 -28 -13 -30 20 -26 26 4
30 1 30 -20 0 -14 -4 -25 -10 -25 -5 0 -10 5 -10 12 0 7 -16 -4 -36 -23 -26
-24 -33 -28 -25 -12 16 31 15 32 -19 28 -26 -4 -30 -1 -30 20 0 14 5 25 10 25
6 0 10 -6 10 -12 0 -7 15 2 32 20 38 37 43 39 28 13z"/>
</g>
</svg>
