<?xml version="1.0" standalone="no"?>
<!DOCTYPE svg PUBLIC "-//W3C//DTD SVG 20010904//EN"
 "http://www.w3.org/TR/2001/REC-SVG-20010904/DTD/svg10.dtd">
<svg version="1.0" xmlns="http://www.w3.org/2000/svg"
 width="32.000000pt" height="32.000000pt" viewBox="0 0 32.000000 32.000000"
 preserveAspectRatio="xMidYMid meet">
<metadata>
Created by potrace 1.16, written by Peter Selinger 2001-2019
</metadata>
<g transform="translate(0.000000,32.000000) scale(0.100000,-0.100000)"
fill="#000000" stroke="none">
<path fill="#000000" stroke="none" d="M0 160 l0 -160 160 0 160 0 0 160 0
160 -160 0 -160 0 0 -160z"/>
<path fill="#ffffff" stroke="none" d="M255 113 c-8 -16 -17 -37 -20 -48 -5
-16 -8 -17 -15 -5 -7 11 -11 11 -24 1 -14 -12 -16 -10 -16 13 0 14 5 26 10 26
6 0 10 -6 10 -12 0 -7 15 2 32 20 18 17 34 32 35 32 1 0 -4 -12 -12 -27z"/>
<path fill="#ffffff" stroke="none" d="M305 52 c-4 -4 -10 -1 -12 6 -4 10 -16
4 -41 -20 -27 -25 -31 -27 -19 -8 10 13 17 32 17 42 0 24 42 28 54 6 5 -10 6
-22 1 -26z"/>
</g>
</svg>
