<?xml version="1.0" standalone="no"?>
<!DOCTYPE svg PUBLIC "-//W3C//DTD SVG 20010904//EN"
 "http://www.w3.org/TR/2001/REC-SVG-20010904/DTD/svg10.dtd">
<svg version="1.0" xmlns="http://www.w3.org/2000/svg"
 width="32.000000pt" height="32.000000pt" viewBox="0 0 32.000000 32.000000"
 preserveAspectRatio="xMidYMid meet">
<metadata>
Created by potrace 1.16, written by Peter Selinger 2001-2019
</metadata>
<g transform="translate(0.000000,32.000000) scale(0.100000,-0.100000)"
fill="#000000" stroke="none">
<path fill="#000000" stroke="none" d="M215 141 c-3 -6 -4 -15 -1 -20 3 -5 -2
-11 -13 -14 -17 -4 -31 -44 -31 -88 0 -17 8 -19 75 -19 83 0 83 0 69 70 -5 21
-15 35 -30 41 -13 4 -24 14 -24 21 0 9 3 9 11 -2 9 -13 10 -13 6 0 -4 18 -52
26 -62 11z"/>
<path fill="#ffffff" stroke="none" d="M246 125 c-4 -11 3 -17 24 -21 24 -5
30 -12 35 -46 4 -22 5 -41 2 -44 -2 -3 -7 13 -11 36 -3 22 -11 40 -16 40 -6 0
-8 -16 -4 -40 l7 -40 -52 0 c-55 0 -56 2 -45 59 5 22 12 31 26 31 15 0 18 5
13 20 -5 15 -2 20 10 20 11 0 15 -5 11 -15z"/>
</g>
</svg>
