<?xml version="1.0" standalone="no"?>
<!DOCTYPE svg PUBLIC "-//W3C//DTD SVG 20010904//EN"
 "http://www.w3.org/TR/2001/REC-SVG-20010904/DTD/svg10.dtd">
<svg version="1.0" xmlns="http://www.w3.org/2000/svg"
 width="32.000000pt" height="32.000000pt" viewBox="0 0 32.000000 32.000000"
 preserveAspectRatio="xMidYMid meet">
<metadata>
Created by potrace 1.16, written by Peter Selinger 2001-2019
</metadata>
<g transform="translate(0.000000,32.000000) scale(0.100000,-0.100000)"
fill="#000000" stroke="none">
<path fill="#000000" stroke="none" d="M0 160 l0 -160 160 0 160 0 0 160 0
160 -160 0 -160 0 0 -160z"/>
<path fill="#ffffff" stroke="none" d="M271 113 c0 -5 2 -16 4 -25 2 -10 -1
-18 -6 -18 -6 0 -7 -4 -4 -10 4 -6 -8 -10 -30 -10 -22 0 -34 4 -30 10 3 6 2
10 -4 10 -5 0 -8 8 -6 18 2 9 4 20 4 25 1 4 17 7 36 7 19 0 35 -3 36 -7z"/>
</g>
</svg>
