<?xml version="1.0" standalone="no"?>
<!DOCTYPE svg PUBLIC "-//W3C//DTD SVG 20010904//EN"
 "http://www.w3.org/TR/2001/REC-SVG-20010904/DTD/svg10.dtd">
<svg version="1.0" xmlns="http://www.w3.org/2000/svg"
 width="32.000000pt" height="32.000000pt" viewBox="0 0 32.000000 32.000000"
 preserveAspectRatio="xMidYMid meet">
<metadata>
Created by potrace 1.16, written by Peter Selinger 2001-2019
</metadata>
<g transform="translate(0.000000,32.000000) scale(0.100000,-0.100000)"
fill="#000000" stroke="none">
<path fill="#000000" stroke="none" d="M0 160 l0 -160 160 0 160 0 0 160 0
160 -160 0 -160 0 0 -160z"/>
<path fill="#ffffff" stroke="none" d="M256 98 c-9 -5 -24 -7 -33 -4 -12 5
-13 9 -3 21 9 11 17 12 33 4 19 -11 19 -12 3 -21z"/>
<path fill="#ffffff" stroke="none" d="M235 70 c-3 -5 -10 -10 -16 -10 -5 0
-9 5 -9 10 0 6 7 10 16 10 8 0 12 -4 9 -10z"/>
<path fill="#ffffff" stroke="none" d="M280 70 c0 -5 -4 -10 -9 -10 -6 0 -13
5 -16 10 -3 6 1 10 9 10 9 0 16 -4 16 -10z"/>
<path fill="#ffffff" stroke="none" d="M268 35 c4 -20 4 -20 -11 -1 -14 19
-14 19 -25 0 -9 -15 -11 -16 -12 -3 0 35 42 38 48 4z"/>
</g>
</svg>
