<?xml version="1.0" standalone="no"?>
<!DOCTYPE svg PUBLIC "-//W3C//DTD SVG 20010904//EN"
 "http://www.w3.org/TR/2001/REC-SVG-20010904/DTD/svg10.dtd">
<svg version="1.0" xmlns="http://www.w3.org/2000/svg"
 width="32.000000pt" height="32.000000pt" viewBox="0 0 32.000000 32.000000"
 preserveAspectRatio="xMidYMid meet">
<metadata>
Created by potrace 1.16, written by Peter Selinger 2001-2019
</metadata>
<g transform="translate(0.000000,32.000000) scale(0.100000,-0.100000)"
fill="#000000" stroke="none">
<path fill="#000000" stroke="none" d="M268 131 l24 -6 -21 -19 c-29 -27 -26
-36 12 -35 23 1 26 3 9 6 -12 2 -20 8 -17 13 3 5 13 7 23 4 13 -5 14 -4 3 4
-9 7 -10 12 -2 16 21 14 11 26 -21 25 -29 -1 -30 -2 -10 -8z"/>
<path fill="#000000" stroke="none" d="M209 81 c9 -6 10 -11 2 -15 -19 -12
-12 -26 12 -26 16 0 18 3 8 9 -9 6 -10 11 -2 15 19 12 12 26 -11 26 -17 0 -19
-3 -9 -9z"/>
<path fill="#000000" stroke="none" d="M278 53 c6 -2 18 -2 25 0 6 3 1 5 -13
5 -14 0 -19 -2 -12 -5z"/>
<path fill="#000000" stroke="none" d="M180 20 c0 -5 5 -10 10 -10 6 0 10 5
10 10 0 6 -4 10 -10 10 -5 0 -10 -4 -10 -10z"/>
</g>
</svg>
