<?xml version="1.0" standalone="no"?>
<!DOCTYPE svg PUBLIC "-//W3C//DTD SVG 20010904//EN"
 "http://www.w3.org/TR/2001/REC-SVG-20010904/DTD/svg10.dtd">
<svg version="1.0" xmlns="http://www.w3.org/2000/svg"
 width="32.000000pt" height="32.000000pt" viewBox="0 0 32.000000 32.000000"
 preserveAspectRatio="xMidYMid meet">
<metadata>
Created by potrace 1.16, written by Peter Selinger 2001-2019
</metadata>
<g transform="translate(0.000000,32.000000) scale(0.100000,-0.100000)"
fill="#000000" stroke="none">
<path fill="#000000" stroke="none" d="M145 295 c-3 -8 -7 -22 -10 -31 -3 -8
-10 -12 -16 -8 -7 4 -9 3 -6 -4 4 -5 17 -8 30 -5 18 4 19 3 7 -6 -8 -6 -10
-11 -4 -11 6 0 17 7 24 15 10 12 10 15 -1 15 -10 1 -8 5 5 15 10 7 15 18 11
24 -9 16 -35 13 -40 -4z"/>
<path fill="#000000" stroke="none" d="M269 268 c-11 -17 -12 -29 -5 -45 14
-29 28 -29 42 1 9 19 8 28 -6 46 l-16 22 -15 -24z"/>
<path fill="#000000" stroke="none" d="M98 273 c7 -3 16 -2 19 1 4 3 -2 6 -13
5 -11 0 -14 -3 -6 -6z"/>
<path fill="#000000" stroke="none" d="M218 273 c6 -2 18 -2 25 0 6 3 1 5 -13
5 -14 0 -19 -2 -12 -5z"/>
<path fill="#000000" stroke="none" d="M128 179 c-48 -27 8 -62 62 -39 38 16
38 23 -3 38 -39 14 -37 14 -59 1z"/>
<path fill="#000000" stroke="none" d="M260 159 c0 -5 5 -7 10 -4 6 3 10 8 10
11 0 2 -4 4 -10 4 -5 0 -10 -5 -10 -11z"/>
<path fill="#000000" stroke="none" d="M70 149 c0 -5 5 -7 10 -4 6 3 10 8 10
11 0 2 -4 4 -10 4 -5 0 -10 -5 -10 -11z"/>
<path fill="#000000" stroke="none" d="M187 129 c-9 -6 -17 -19 -17 -29 0 -23
8 -25 33 -6 30 23 17 53 -16 35z"/>
<path fill="#000000" stroke="none" d="M110 117 c0 -8 7 -21 16 -28 14 -11 15
-10 12 11 -3 26 -28 41 -28 17z"/>
<path fill="#000000" stroke="none" d="M152 100 c0 -14 2 -19 5 -12 2 6 2 18
0 25 -3 6 -5 1 -5 -13z"/>
<path fill="#000000" stroke="none" d="M105 60 c4 -6 1 -18 -6 -26 -6 -8 -9
-17 -6 -20 9 -9 27 5 27 22 0 8 5 14 11 14 5 0 7 5 4 10 -3 6 -13 10 -21 10
-8 0 -12 -5 -9 -10z"/>
<path fill="#000000" stroke="none" d="M195 60 c-3 -5 -1 -10 4 -10 6 0 11 -6
11 -14 0 -17 18 -31 27 -22 3 3 0 12 -6 20 -7 8 -10 20 -6 26 3 5 -1 10 -9 10
-8 0 -18 -4 -21 -10z"/>
</g>
</svg>
