<?xml version="1.0" standalone="no"?>
<!DOCTYPE svg PUBLIC "-//W3C//DTD SVG 20010904//EN"
 "http://www.w3.org/TR/2001/REC-SVG-20010904/DTD/svg10.dtd">
<svg version="1.0" xmlns="http://www.w3.org/2000/svg"
 width="32.000000pt" height="32.000000pt" viewBox="0 0 32.000000 32.000000"
 preserveAspectRatio="xMidYMid meet">
<metadata>
Created by potrace 1.16, written by Peter Selinger 2001-2019
</metadata>
<g transform="translate(0.000000,32.000000) scale(0.100000,-0.100000)"
fill="#000000" stroke="none">
<path fill="#000000" stroke="none" d="M120 295 c-7 -8 -19 -15 -28 -15 -13 0
-13 -3 2 -19 11 -12 26 -17 39 -14 20 4 20 4 -2 -9 -14 -7 -32 -26 -41 -43 -9
-16 -26 -34 -38 -40 -12 -5 -22 -15 -22 -22 0 -16 6 -16 31 -3 14 8 19 7 19
-2 0 -7 5 -5 11 5 6 10 9 24 6 31 -7 18 15 51 38 54 11 2 22 8 24 14 2 6 7 5
12 -3 7 -12 10 -12 21 0 10 10 10 12 1 7 -27 -15 -11 3 20 23 l32 21 -26 0
c-15 0 -32 7 -39 15 -16 19 -44 19 -60 0z"/>
<path fill="#ffffff" stroke="none" d="M130 270 c0 -5 -2 -10 -4 -10 -3 0 -8
5 -11 10 -3 6 -1 10 4 10 6 0 11 -4 11 -10z"/>
<path fill="#ffffff" stroke="none" d="M175 270 c-3 -5 -11 -10 -16 -10 -6 0
-7 5 -4 10 3 6 11 10 16 10 6 0 7 -4 4 -10z"/>
<path fill="#000000" stroke="none" d="M276 238 c3 -4 11 -5 19 -1 21 7 19 12
-4 10 -11 0 -18 -5 -15 -9z"/>
<path fill="#000000" stroke="none" d="M148 213 c-16 -4 -17 -7 -3 -34 9 -16
17 -29 18 -29 1 0 2 16 2 35 0 19 0 34 0 34 0 -1 -8 -3 -17 -6z"/>
<path fill="#000000" stroke="none" d="M200 200 c0 -5 5 -10 11 -10 5 0 7 5 4
10 -3 6 -8 10 -11 10 -2 0 -4 -4 -4 -10z"/>
<path fill="#000000" stroke="none" d="M210 164 c0 -10 3 -14 7 -11 3 4 13 1
21 -5 12 -10 14 -9 11 7 -5 25 -39 33 -39 9z"/>
<path fill="#000000" stroke="none" d="M260 135 c0 -8 5 -15 10 -15 6 0 10 7
10 15 0 8 -4 15 -10 15 -5 0 -10 -7 -10 -15z"/>
<path fill="#000000" stroke="none" d="M113 93 c-3 -10 -8 -21 -10 -25 -2 -5
-2 -8 2 -8 3 0 10 10 15 23 l9 22 0 -23 c1 -12 -6 -25 -15 -29 -12 -4 -13 -8
-3 -14 19 -12 29 -1 29 31 0 34 -17 49 -27 23z"/>
<path fill="#000000" stroke="none" d="M170 82 c0 -33 7 -43 25 -36 10 4 10
12 2 35 -14 37 -27 37 -27 1z"/>
<path fill="#000000" stroke="none" d="M150 72 c0 -17 4 -34 10 -37 6 -4 7 6
3 27 -8 44 -13 48 -13 10z"/>
<path fill="#000000" stroke="none" d="M241 44 c0 -11 3 -14 6 -6 3 7 2 16 -1
19 -3 4 -6 -2 -5 -13z"/>
</g>
</svg>
