<?xml version="1.0" standalone="no"?>
<!DOCTYPE svg PUBLIC "-//W3C//DTD SVG 20010904//EN"
 "http://www.w3.org/TR/2001/REC-SVG-20010904/DTD/svg10.dtd">
<svg version="1.0" xmlns="http://www.w3.org/2000/svg"
 width="32.000000pt" height="32.000000pt" viewBox="0 0 32.000000 32.000000"
 preserveAspectRatio="xMidYMid meet">
<metadata>
Created by potrace 1.16, written by Peter Selinger 2001-2019
</metadata>
<g transform="translate(0.000000,32.000000) scale(0.100000,-0.100000)"
fill="#000000" stroke="none">
<path fill="#000000" stroke="none" d="M0 160 c0 -159 0 -160 23 -160 12 0 28
9 35 21 8 12 9 18 3 14 -7 -4 -11 6 -11 28 0 27 -5 36 -21 40 -31 8 -23 61 11
65 31 4 36 10 44 45 5 20 3 27 -8 27 -8 0 -17 -8 -20 -17 -2 -10 -5 -2 -4 17
0 77 -1 80 -27 80 l-25 0 0 -160z"/>
<path fill="#000000" stroke="none" d="M90 310 c0 -5 5 -10 10 -10 6 0 10 5
10 10 0 6 -4 10 -10 10 -5 0 -10 -4 -10 -10z"/>
<path fill="#000000" stroke="none" d="M238 278 c-3 -42 16 -93 32 -83 4 2 13
-7 20 -20 10 -18 10 -34 2 -64 -5 -23 -6 -38 -1 -35 5 3 9 13 10 22 1 11 4 8
9 -8 5 -16 8 23 9 103 l1 127 -39 0 c-40 0 -40 0 -43 -42z"/>
<path fill="#000000" stroke="none" d="M119 298 c-1 -7 0 -20 1 -27 1 -12 -1
-13 -14 -2 -8 7 -21 11 -28 8 -8 -3 -6 -6 5 -6 12 -1 16 -6 11 -13 -4 -7 -4
-10 0 -7 4 4 23 3 42 -1 27 -6 37 -5 41 6 3 9 11 13 18 10 6 -2 18 0 26 5 10
6 7 9 -12 9 -15 0 -32 7 -39 15 -15 18 -50 20 -51 3z"/>
<path fill="#ffffff" stroke="none" d="M162 268 c-9 -9 -15 -9 -24 0 -9 9 -7
12 12 12 19 0 21 -3 12 -12z"/>
<path fill="#000000" stroke="none" d="M116 228 c3 -4 12 -8 20 -8 8 0 14 4
14 8 0 4 -9 8 -19 8 -11 0 -17 -4 -15 -8z"/>
<path fill="#000000" stroke="none" d="M197 209 c3 -10 9 -19 13 -19 11 0 34
30 24 31 -5 0 -16 2 -25 4 -12 2 -15 -3 -12 -16z"/>
<path fill="#000000" stroke="none" d="M142 209 c-13 -5 -20 -14 -17 -19 10
-16 38 -8 41 13 1 9 2 17 1 16 -1 0 -12 -4 -25 -10z"/>
<path fill="#ffffff" stroke="none" d="M157 194 c-3 -3 -12 -4 -19 -1 -8 3 -5
6 6 6 11 1 17 -2 13 -5z"/>
<path fill="#000000" stroke="none" d="M230 190 c-19 -12 0 -34 24 -28 14 2
15 6 4 20 -9 13 -17 15 -28 8z"/>
<path fill="#000000" stroke="none" d="M72 168 c-18 -18 -14 -27 8 -21 21 6
26 18 12 27 -5 3 -14 0 -20 -6z"/>
<path fill="#000000" stroke="none" d="M138 163 c7 -3 16 -2 19 1 4 3 -2 6
-13 5 -11 0 -14 -3 -6 -6z"/>
<path fill="#000000" stroke="none" d="M21 144 c0 -11 3 -14 6 -6 3 7 2 16 -1
19 -3 4 -6 -2 -5 -13z"/>
<path fill="#000000" stroke="none" d="M240 140 c0 -6 -4 -8 -10 -5 -5 3 -10
4 -10 1 0 -3 9 -10 19 -16 24 -12 34 0 15 18 -9 8 -14 9 -14 2z"/>
<path fill="#000000" stroke="none" d="M150 100 c-13 -8 -12 -10 3 -10 9 0 17
5 17 10 0 12 -1 12 -20 0z"/>
<path fill="#000000" stroke="none" d="M67 94 c-15 -15 -7 -45 11 -42 9 2 17
12 17 22 0 20 -16 31 -28 20z"/>
<path fill="#000000" stroke="none" d="M227 83 c6 -15 43 -18 43 -3 0 5 -7 6
-17 3 -10 -4 -14 -2 -10 4 3 5 0 10 -7 10 -8 0 -12 -6 -9 -14z"/>
<path fill="#000000" stroke="none" d="M175 81 c-8 -15 3 -31 21 -31 9 0 14 7
12 17 -4 20 -24 28 -33 14z"/>
<path fill="#000000" stroke="none" d="M128 53 c6 -2 18 -2 25 0 6 3 1 5 -13
5 -14 0 -19 -2 -12 -5z"/>
<path fill="#000000" stroke="none" d="M70 10 c0 -5 5 -10 11 -10 5 0 7 5 4
10 -3 6 -8 10 -11 10 -2 0 -4 -4 -4 -10z"/>
<path fill="#000000" stroke="none" d="M140 10 c-12 -8 -11 -10 8 -10 12 0 22
5 22 10 0 13 -11 13 -30 0z"/>
</g>
</svg>
