<?xml version="1.0" standalone="no"?>
<!DOCTYPE svg PUBLIC "-//W3C//DTD SVG 20010904//EN"
 "http://www.w3.org/TR/2001/REC-SVG-20010904/DTD/svg10.dtd">
<svg version="1.0" xmlns="http://www.w3.org/2000/svg"
 width="32.000000pt" height="32.000000pt" viewBox="0 0 32.000000 32.000000"
 preserveAspectRatio="xMidYMid meet">
<metadata>
Created by potrace 1.16, written by Peter Selinger 2001-2019
</metadata>
<g transform="translate(0.000000,32.000000) scale(0.100000,-0.100000)"
fill="#000000" stroke="none">
<path fill="#000000" stroke="none" d="M136 301 c-4 -5 -3 -17 0 -28 6 -15 4
-16 -7 -5 -7 6 -20 12 -28 12 -11 0 -11 -4 3 -19 10 -11 26 -17 39 -15 22 5
22 4 0 -5 -13 -6 -23 -14 -23 -19 0 -22 23 -71 35 -76 12 -4 12 0 3 22 -7 15
-15 31 -20 36 -12 15 -10 26 5 20 7 -2 26 7 41 21 15 14 31 23 35 21 4 -3 13
-1 21 5 11 6 9 9 -11 9 -15 0 -32 7 -39 15 -14 17 -46 20 -54 6z"/>
<path fill="#ffffff" stroke="none" d="M185 270 c-3 -5 -11 -10 -16 -10 -6 0
-7 5 -4 10 3 6 11 10 16 10 6 0 7 -4 4 -10z"/>
<path fill="#000000" stroke="none" d="M236 228 c-8 -13 -18 -35 -21 -50 -4
-16 -11 -25 -16 -22 -5 3 -6 11 -3 17 4 8 2 7 -7 -1 -12 -11 -12 -14 1 -22 12
-8 12 -10 -3 -16 -10 -3 -29 -4 -42 -2 -20 4 -23 3 -14 -8 16 -19 -16 -88 -37
-80 -25 10 -15 -3 16 -19 34 -17 58 -19 94 -5 24 9 25 11 11 37 -18 34 -19 57
-2 50 44 -16 53 -15 70 8 10 14 14 25 9 25 -6 0 -6 16 0 40 16 62 -24 96 -56
48z"/>
<path fill="#ffffff" stroke="none" d="M286 226 c3 -8 -1 -40 -10 -70 -16 -53
-17 -55 -42 -46 -35 14 -46 4 -38 -35 8 -42 -7 -72 -17 -35 -13 46 -10 80 6
80 15 0 19 7 49 83 15 38 42 49 52 23z"/>
<path fill="#ffffff" stroke="none" d="M163 21 c-1 -2 -13 -1 -27 3 -22 5 -23
8 -13 30 7 13 15 22 19 20 5 -3 9 7 10 23 0 15 4 6 7 -22 4 -27 5 -52 4 -54z"/>
<path fill="#000000" stroke="none" d="M177 209 c-10 -11 -17 -25 -15 -30 2
-6 14 4 26 20 25 34 17 41 -11 10z"/>
<path fill="#000000" stroke="none" d="M53 153 c-7 -2 -13 -12 -13 -20 0 -13
2 -13 17 -2 9 8 19 13 22 11 3 -2 7 1 9 7 4 11 -13 13 -35 4z"/>
</g>
</svg>
