<?xml version="1.0" standalone="no"?>
<!DOCTYPE svg PUBLIC "-//W3C//DTD SVG 20010904//EN"
 "http://www.w3.org/TR/2001/REC-SVG-20010904/DTD/svg10.dtd">
<svg version="1.0" xmlns="http://www.w3.org/2000/svg"
 width="32.000000pt" height="32.000000pt" viewBox="0 0 32.000000 32.000000"
 preserveAspectRatio="xMidYMid meet">
<metadata>
Created by potrace 1.16, written by Peter Selinger 2001-2019
</metadata>
<g transform="translate(0.000000,32.000000) scale(0.100000,-0.100000)"
fill="#000000" stroke="none">
<path fill="#000000" stroke="none" d="M132 298 c-9 -9 -9 -15 0 -27 10 -13
10 -14 -2 -3 -8 6 -21 12 -29 12 -11 0 -11 -4 3 -19 10 -11 26 -17 39 -14 14
2 11 -1 -9 -10 -17 -8 -36 -28 -43 -45 -7 -17 -22 -34 -32 -37 -23 -8 -26 -35
-4 -35 9 0 28 12 42 26 l26 26 -7 -39 c-4 -21 -14 -48 -22 -60 -15 -24 -11
-49 9 -51 7 -1 26 -4 42 -8 17 -3 43 -1 59 5 26 10 28 14 22 46 -7 34 -6 35
17 30 34 -9 52 20 52 85 0 40 -4 55 -18 64 -15 9 -22 7 -37 -11 -16 -20 -19
-21 -30 -8 -7 9 -11 17 -9 19 2 1 15 10 29 19 l24 17 -26 0 c-14 0 -31 7 -38
15 -15 18 -42 19 -58 3z"/>
<path fill="#ffffff" stroke="none" d="M185 270 c-3 -5 -12 -10 -18 -10 -7 0
-6 4 3 10 19 12 23 12 15 0z"/>
<path fill="#ffffff" stroke="none" d="M260 206 c0 -2 -8 -10 -17 -17 -16 -13
-17 -12 -4 4 13 16 21 21 21 13z"/>
</g>
</svg>
