<?xml version="1.0" standalone="no"?>
<!DOCTYPE svg PUBLIC "-//W3C//DTD SVG 20010904//EN"
 "http://www.w3.org/TR/2001/REC-SVG-20010904/DTD/svg10.dtd">
<svg version="1.0" xmlns="http://www.w3.org/2000/svg"
 width="32.000000pt" height="32.000000pt" viewBox="0 0 32.000000 32.000000"
 preserveAspectRatio="xMidYMid meet">
<metadata>
Created by potrace 1.16, written by Peter Selinger 2001-2019
</metadata>
<g transform="translate(0.000000,32.000000) scale(0.100000,-0.100000)"
fill="#000000" stroke="none">
<path fill="#000000" stroke="none" d="M0 160 l0 -160 160 0 160 0 0 160 0
160 -160 0 -160 0 0 -160z"/>
<path fill="#ffffff" stroke="none" d="M296 234 c-7 -7 -14 -8 -22 0 -7 7 -8
14 0 22 7 7 14 8 22 0 7 -7 8 -14 0 -22z"/>
<path fill="#ffffff" stroke="none" d="M209 165 c9 -10 -30 -35 -55 -35 -29 0
-48 22 -31 39 12 12 72 9 86 -4z"/>
<path fill="#ffffff" stroke="none" d="M140 98 c0 -17 -3 -18 -14 -8 -8 6 -12
18 -9 26 7 19 23 7 23 -18z"/>
<path fill="#ffffff" stroke="none" d="M210 117 c0 -14 -20 -37 -32 -37 -10 0
-11 34 -1 43 11 12 33 8 33 -6z"/>
<path fill="#ffffff" stroke="none" d="M157 88 c-3 -7 -5 -2 -5 12 0 14 2 19
5 13 2 -7 2 -19 0 -25z"/>
</g>
</svg>
