<?xml version="1.0" standalone="no"?>
<!DOCTYPE svg PUBLIC "-//W3C//DTD SVG 20010904//EN"
 "http://www.w3.org/TR/2001/REC-SVG-20010904/DTD/svg10.dtd">
<svg version="1.0" xmlns="http://www.w3.org/2000/svg"
 width="32.000000pt" height="32.000000pt" viewBox="0 0 32.000000 32.000000"
 preserveAspectRatio="xMidYMid meet">
<metadata>
Created by potrace 1.16, written by Peter Selinger 2001-2019
</metadata>
<g transform="translate(0.000000,32.000000) scale(0.100000,-0.100000)"
fill="#000000" stroke="none">
<path fill="#000000" stroke="none" d="M0 160 l0 -160 160 0 160 0 0 160 0
160 -160 0 -160 0 0 -160z"/>
<path fill="#ffffff" stroke="none" d="M180 295 c7 -8 24 -15 39 -15 l26 0
-32 -21 c-31 -20 -47 -38 -20 -23 9 5 9 3 -1 -7 -11 -12 -14 -12 -21 0 -5 8
-10 9 -12 3 -2 -6 -13 -12 -24 -14 -23 -3 -45 -36 -38 -54 3 -7 0 -21 -6 -31
-6 -10 -11 -12 -11 -5 0 9 -5 10 -19 2 -25 -13 -31 -13 -31 3 0 7 10 17 22 22
12 6 29 24 38 40 9 17 27 36 41 43 22 13 22 13 2 9 -13 -3 -28 2 -39 14 -15
16 -15 19 -2 19 9 0 21 7 28 15 16 19 44 19 60 0z"/>
<path fill="#ffffff" stroke="none" d="M310 245 c0 -7 -30 -13 -34 -7 -3 4 4
9 15 9 10 1 19 0 19 -2z"/>
<path fill="#ffffff" stroke="none" d="M165 185 c0 -19 -1 -35 -2 -35 -1 0 -9
13 -18 29 -14 27 -13 30 3 34 9 3 17 5 17 6 0 0 0 -15 0 -34z"/>
<path fill="#ffffff" stroke="none" d="M215 200 c3 -5 1 -10 -4 -10 -6 0 -11
5 -11 10 0 6 2 10 4 10 3 0 8 -4 11 -10z"/>
<path fill="#ffffff" stroke="none" d="M249 155 c3 -16 1 -17 -11 -7 -8 6 -18
9 -21 5 -4 -3 -7 1 -7 11 0 24 34 16 39 -9z"/>
<path fill="#ffffff" stroke="none" d="M280 135 c0 -8 -4 -15 -10 -15 -5 0
-10 7 -10 15 0 8 5 15 10 15 6 0 10 -7 10 -15z"/>
<path fill="#ffffff" stroke="none" d="M140 70 c0 -32 -10 -43 -29 -31 -10 6
-9 10 3 14 9 4 16 17 15 29 l0 23 -9 -22 c-5 -13 -12 -23 -15 -23 -4 0 -4 3
-2 8 2 4 7 15 10 25 10 26 27 11 27 -23z"/>
<path fill="#ffffff" stroke="none" d="M197 81 c8 -23 8 -31 -2 -35 -18 -7
-25 3 -25 36 0 36 13 36 27 -1z"/>
<path fill="#ffffff" stroke="none" d="M163 62 c4 -21 3 -31 -3 -27 -6 3 -10
20 -10 37 0 38 5 34 13 -10z"/>
<path fill="#ffffff" stroke="none" d="M247 38 c-3 -8 -6 -5 -6 6 -1 11 2 17
5 13 3 -3 4 -12 1 -19z"/>
<path fill="#000000" stroke="none" d="M115 270 c3 -5 8 -10 11 -10 2 0 4 5 4
10 0 6 -5 10 -11 10 -5 0 -7 -4 -4 -10z"/>
<path fill="#000000" stroke="none" d="M155 270 c-3 -5 -2 -10 4 -10 5 0 13 5
16 10 3 6 2 10 -4 10 -5 0 -13 -4 -16 -10z"/>
</g>
</svg>
