<?xml version="1.0" standalone="no"?>
<!DOCTYPE svg PUBLIC "-//W3C//DTD SVG 20010904//EN"
 "http://www.w3.org/TR/2001/REC-SVG-20010904/DTD/svg10.dtd">
<svg version="1.0" xmlns="http://www.w3.org/2000/svg"
 width="32.000000pt" height="32.000000pt" viewBox="0 0 32.000000 32.000000"
 preserveAspectRatio="xMidYMid meet">
<metadata>
Created by potrace 1.16, written by Peter Selinger 2001-2019
</metadata>
<g transform="translate(0.000000,32.000000) scale(0.100000,-0.100000)"
fill="#000000" stroke="none">
<path fill="#000000" stroke="none" d="M0 160 l0 -160 35 0 c28 0 33 3 28 17
-4 11 -3 14 5 9 8 -5 8 1 0 24 -8 23 -7 35 1 43 18 18 12 28 -14 21 -18 -4
-27 -1 -31 11 -8 20 6 35 33 38 20 1 24 12 11 32 -6 11 7 55 17 55 4 0 4 -4 1
-9 -4 -5 2 -8 11 -7 10 2 16 7 13 12 -3 5 -8 8 -12 7 -3 -1 -12 4 -18 12 -10
12 -8 16 13 24 50 19 40 31 -27 31 l-66 0 0 -160z"/>
<path fill="#000000" stroke="none" d="M190 305 c7 -8 23 -15 36 -15 33 0 38
-15 11 -33 -21 -14 -36 -54 -15 -41 5 3 6 9 3 14 -3 5 -1 11 4 15 8 4 45 -48
40 -57 0 -2 5 -15 12 -30 9 -21 9 -31 0 -42 -9 -11 -8 -15 4 -20 21 -8 19 -33
-4 -45 -10 -6 -21 -20 -24 -31 -4 -17 0 -20 29 -20 l34 0 0 160 0 160 -71 0
c-62 0 -70 -2 -59 -15z"/>
<path fill="#000000" stroke="none" d="M120 195 c0 -10 29 -24 34 -17 3 6 -3
12 -14 15 -11 3 -20 4 -20 2z"/>
<path fill="#000000" stroke="none" d="M226 130 c9 -16 19 -30 24 -30 5 0 1
13 -8 30 -22 39 -35 39 -16 0z"/>
<path fill="#000000" stroke="none" d="M141 114 c0 -11 3 -14 6 -6 3 7 2 16
-1 19 -3 4 -6 -2 -5 -13z"/>
<path fill="#000000" stroke="none" d="M214 79 c-3 -6 -2 -15 3 -20 5 -5 9 -1
9 11 0 23 -2 24 -12 9z"/>
<path fill="#000000" stroke="none" d="M135 15 l-30 -13 52 -1 c43 -1 51 2 47
14 -7 18 -29 18 -69 0z"/>
</g>
</svg>
