<?xml version="1.0" standalone="no"?>
<!DOCTYPE svg PUBLIC "-//W3C//DTD SVG 20010904//EN"
 "http://www.w3.org/TR/2001/REC-SVG-20010904/DTD/svg10.dtd">
<svg version="1.0" xmlns="http://www.w3.org/2000/svg"
 width="32.000000pt" height="32.000000pt" viewBox="0 0 32.000000 32.000000"
 preserveAspectRatio="xMidYMid meet">
<metadata>
Created by potrace 1.16, written by Peter Selinger 2001-2019
</metadata>
<g transform="translate(0.000000,32.000000) scale(0.100000,-0.100000)"
fill="#000000" stroke="none">
<path fill="#000000" stroke="none" d="M0 160 l0 -160 160 0 160 0 0 160 0
160 -160 0 -160 0 0 -160z"/>
<path fill="#ffffff" stroke="none" d="M190 295 c7 -8 24 -15 38 -15 l26 0
-24 -17 c-14 -9 -27 -18 -29 -19 -2 -2 2 -10 9 -19 11 -13 14 -12 30 8 15 18
22 20 37 11 23 -14 25 -97 4 -136 -12 -22 -20 -26 -39 -21 -22 5 -23 3 -17
-18 3 -13 9 -31 11 -40 4 -14 -7 -16 -70 -16 -66 -1 -75 1 -79 19 -3 11 0 30
8 42 7 11 16 36 20 55 l7 34 -27 -21 c-15 -12 -34 -22 -41 -22 -21 0 -17 28 4
34 10 4 26 22 35 41 9 19 22 35 29 35 6 0 1 11 -12 25 -18 19 -20 25 -8 25 9
0 21 7 28 15 7 8 20 15 30 15 10 0 23 -7 30 -15z"/>
</g>
</svg>
