<?xml version="1.0" standalone="no"?>
<!DOCTYPE svg PUBLIC "-//W3C//DTD SVG 20010904//EN"
 "http://www.w3.org/TR/2001/REC-SVG-20010904/DTD/svg10.dtd">
<svg version="1.0" xmlns="http://www.w3.org/2000/svg"
 width="32.000000pt" height="32.000000pt" viewBox="0 0 32.000000 32.000000"
 preserveAspectRatio="xMidYMid meet">
<metadata>
Created by potrace 1.16, written by Peter Selinger 2001-2019
</metadata>
<g transform="translate(0.000000,32.000000) scale(0.100000,-0.100000)"
fill="#000000" stroke="none">
<path fill="#000000" stroke="none" d="M0 160 l0 -160 160 0 160 0 0 160 0
160 -160 0 -160 0 0 -160z"/>
<path fill="#ffffff" stroke="none" d="M180 295 c7 -8 24 -15 39 -15 20 0 22
-3 11 -9 -8 -6 -18 -7 -23 -4 -4 3 -14 -2 -20 -10 -21 -26 -65 -49 -72 -37 -3
5 4 15 17 20 22 10 22 10 1 6 -13 -2 -29 4 -39 15 -14 15 -14 19 -3 19 8 0 21
-6 28 -12 11 -11 13 -10 7 5 -3 11 -4 23 0 28 8 14 40 11 54 -6z"/>
<path fill="#ffffff" stroke="none" d="M278 248 c15 -15 16 -53 2 -79 -8 -14
-7 -19 1 -19 8 0 6 -7 -4 -18 -10 -10 -17 -24 -17 -30 0 -7 -2 -12 -5 -12 -9
0 -75 29 -75 32 0 2 9 27 19 56 29 79 51 98 79 70z"/>
<path fill="#ffffff" stroke="none" d="M168 210 c-7 -10 -14 -17 -17 -15 -4 4
18 35 25 35 2 0 -1 -9 -8 -20z"/>
<path fill="#ffffff" stroke="none" d="M77 156 c-7 -14 -14 -23 -16 -20 -2 2
-10 -1 -18 -7 -10 -9 -13 -8 -13 2 0 11 13 23 57 48 0 1 -4 -10 -10 -23z"/>
<path fill="#ffffff" stroke="none" d="M170 136 c-14 -14 -12 -93 3 -100 6 -3
1 -4 -13 -3 -16 1 -26 9 -27 22 l-3 20 9 -20 c8 -16 10 -10 9 25 0 37 -1 41
-8 20 l-8 -25 -1 26 c-1 14 -5 30 -11 35 -7 7 2 10 25 10 23 0 32 -3 25 -10z"/>
<path fill="#ffffff" stroke="none" d="M205 42 c-9 -9 -23 11 -30 43 l-7 30
22 -34 c11 -18 19 -36 15 -39z"/>
<path fill="#ffffff" stroke="none" d="M105 50 c3 -6 -1 -7 -9 -4 -18 7 -21
14 -7 14 6 0 13 -4 16 -10z"/>
<path fill="#000000" stroke="none" d="M155 270 c-3 -5 -2 -10 4 -10 5 0 13 5
16 10 3 6 2 10 -4 10 -5 0 -13 -4 -16 -10z"/>
<path fill="#000000" stroke="none" d="M232 198 c-25 -38 -20 -63 9 -45 12 8
19 23 19 44 0 18 -2 33 -4 33 -2 0 -13 -14 -24 -32z"/>
<path fill="#ffffff" stroke="none" d="M241 167 c-8 -8 -11 -7 -11 4 0 9 3 19
7 23 4 4 9 2 11 -4 3 -7 -1 -17 -7 -23z"/>
</g>
</svg>
