<?xml version="1.0" standalone="no"?>
<!DOCTYPE svg PUBLIC "-//W3C//DTD SVG 20010904//EN"
 "http://www.w3.org/TR/2001/REC-SVG-20010904/DTD/svg10.dtd">
<svg version="1.0" xmlns="http://www.w3.org/2000/svg"
 width="32.000000pt" height="32.000000pt" viewBox="0 0 32.000000 32.000000"
 preserveAspectRatio="xMidYMid meet">
<metadata>
Created by potrace 1.16, written by Peter Selinger 2001-2019
</metadata>
<g transform="translate(0.000000,32.000000) scale(0.100000,-0.100000)"
fill="#000000" stroke="none">
<path fill="#000000" stroke="none" d="M125 309 c-4 -5 -18 -15 -32 -20 -20
-7 -23 -12 -14 -23 17 -20 45 -13 49 13 4 26 29 38 45 22 8 -8 6 -15 -9 -26
-13 -9 -14 -14 -5 -15 11 0 11 -3 1 -15 -7 -8 -18 -15 -24 -15 -6 0 -4 5 4 10
11 8 8 10 -13 7 -28 -3 -71 -52 -61 -69 3 -4 -7 -13 -21 -18 -32 -12 -31 -45
2 -44 18 0 19 -2 9 -18 -9 -16 -8 -22 7 -32 10 -8 16 -24 15 -37 -4 -30 28
-37 70 -15 26 14 31 14 36 1 3 -8 15 -15 26 -15 30 0 80 28 80 45 0 18 -27 45
-46 45 -28 0 -14 26 29 53 28 18 35 41 15 53 -6 4 -8 3 -5 -3 3 -5 -2 -9 -13
-8 -44 3 -72 58 -39 76 17 9 19 7 14 -14 -8 -31 17 -54 35 -32 10 12 10 21 1
41 -6 14 -15 23 -20 19 -5 -3 -12 -1 -16 5 -3 5 -17 10 -29 10 -13 0 -29 7
-36 15 -14 17 -46 20 -55 4z"/>
<path fill="#ffffff" stroke="none" d="M107 274 c-3 -3 -12 -4 -19 -1 -8 3 -5
6 6 6 11 1 17 -2 13 -5z"/>
<path fill="#ffffff" stroke="none" d="M233 273 c-7 -2 -19 -2 -25 0 -7 3 -2
5 12 5 14 0 19 -2 13 -5z"/>
<path fill="#ffffff" stroke="none" d="M275 232 c-8 -8 -25 10 -19 20 4 6 9 5
15 -3 4 -7 6 -15 4 -17z"/>
<path fill="#ffffff" stroke="none" d="M177 178 c41 -15 41 -22 3 -38 -54 -23
-110 12 -62 39 22 13 20 13 59 -1z"/>
<path fill="#ffffff" stroke="none" d="M270 166 c0 -3 -4 -8 -10 -11 -5 -3
-10 -1 -10 4 0 6 5 11 10 11 6 0 10 -2 10 -4z"/>
<path fill="#ffffff" stroke="none" d="M80 156 c0 -3 -4 -8 -10 -11 -5 -3 -10
-1 -10 4 0 6 5 11 10 11 6 0 10 -2 10 -4z"/>
<path fill="#ffffff" stroke="none" d="M210 118 c0 -11 -29 -37 -42 -38 -16 0
-8 39 9 49 19 10 33 6 33 -11z"/>
<path fill="#ffffff" stroke="none" d="M128 100 c3 -21 2 -22 -12 -11 -19 16
-21 44 -3 39 6 -3 14 -15 15 -28z"/>
<path fill="#ffffff" stroke="none" d="M147 88 c-3 -7 -5 -2 -5 12 0 14 2 19
5 13 2 -7 2 -19 0 -25z"/>
<path fill="#ffffff" stroke="none" d="M125 60 c3 -5 1 -10 -4 -10 -6 0 -11
-6 -11 -14 0 -17 -18 -31 -27 -22 -3 3 0 12 6 20 7 8 10 20 6 26 -3 5 1 10 9
10 8 0 18 -4 21 -10z"/>
<path fill="#ffffff" stroke="none" d="M215 60 c-4 -6 -1 -18 6 -26 6 -8 9
-17 6 -20 -9 -9 -27 5 -27 22 0 8 -5 14 -11 14 -5 0 -7 5 -4 10 3 6 13 10 21
10 8 0 12 -5 9 -10z"/>
</g>
</svg>
