<?xml version="1.0" standalone="no"?>
<!DOCTYPE svg PUBLIC "-//W3C//DTD SVG 20010904//EN"
 "http://www.w3.org/TR/2001/REC-SVG-20010904/DTD/svg10.dtd">
<svg version="1.0" xmlns="http://www.w3.org/2000/svg"
 width="32.000000pt" height="32.000000pt" viewBox="0 0 32.000000 32.000000"
 preserveAspectRatio="xMidYMid meet">
<metadata>
Created by potrace 1.16, written by Peter Selinger 2001-2019
</metadata>
<g transform="translate(0.000000,32.000000) scale(0.100000,-0.100000)"
fill="#000000" stroke="none">
<path fill="#000000" stroke="none" d="M110 300 c-75 -25 -101 -59 -93 -120 6
-47 23 -79 23 -44 1 39 29 -29 30 -71 0 -27 6 -43 17 -50 14 -8 88 -11 135 -6
13 2 78 63 78 74 0 6 -8 19 -17 29 -15 17 -15 19 -1 31 9 6 19 30 23 52 5 36
3 43 -27 72 -32 30 -76 53 -101 53 -7 -1 -37 -9 -67 -20z"/>
<path fill="#ffffff" stroke="none" d="M213 121 c-9 -12 -25 20 -18 36 7 16 9
15 15 -7 4 -14 5 -27 3 -29z"/>
<path fill="#ffffff" stroke="none" d="M127 128 c-3 -7 -5 -2 -5 12 0 14 2 19
5 13 2 -7 2 -19 0 -25z"/>
<path fill="#ffffff" stroke="none" d="M255 140 c3 -5 1 -10 -4 -10 -6 0 -11
5 -11 10 0 6 2 10 4 10 3 0 8 -4 11 -10z"/>
<path fill="#ffffff" stroke="none" d="M146 72 c-18 -16 -18 -16 -6 6 6 13 14
21 18 18 3 -4 -2 -14 -12 -24z"/>
</g>
</svg>
