<?xml version="1.0" standalone="no"?>
<!DOCTYPE svg PUBLIC "-//W3C//DTD SVG 20010904//EN"
 "http://www.w3.org/TR/2001/REC-SVG-20010904/DTD/svg10.dtd">
<svg version="1.0" xmlns="http://www.w3.org/2000/svg"
 width="32.000000pt" height="32.000000pt" viewBox="0 0 32.000000 32.000000"
 preserveAspectRatio="xMidYMid meet">
<metadata>
Created by potrace 1.16, written by Peter Selinger 2001-2019
</metadata>
<g transform="translate(0.000000,32.000000) scale(0.100000,-0.100000)"
fill="#000000" stroke="none">
<path fill="#000000" stroke="none" d="M85 291 c-63 -29 -77 -50 -73 -112 2
-37 7 -53 16 -51 7 1 17 -9 22 -23 5 -14 12 -25 15 -25 2 0 0 12 -5 26 -6 14
-10 40 -11 57 l-1 32 -11 -35 -12 -35 -3 54 c-4 63 9 82 75 107 33 13 49 14
67 6 16 -7 27 -7 34 0 12 12 42 4 76 -23 26 -21 32 -50 20 -96 -8 -27 -24 -20
-25 10 0 13 -7 0 -17 -28 -15 -48 -16 -49 -21 -20 -5 29 -5 29 -11 -10 l-7
-40 -8 45 -9 45 -7 -33 c-9 -45 -3 -63 33 -91 l30 -24 31 31 c26 26 28 33 17
46 -7 9 -21 16 -31 16 -13 0 -16 5 -12 16 3 8 12 13 20 10 16 -7 33 31 33 74
0 45 -84 106 -113 81 -8 -6 -18 -6 -27 -1 -22 14 -40 12 -85 -9z"/>
<path fill="#000000" stroke="none" d="M72 140 c0 -19 2 -27 5 -17 2 9 2 25 0
35 -3 9 -5 1 -5 -18z"/>
<path fill="#000000" stroke="none" d="M100 133 c-8 -16 -15 -31 -17 -35 -2
-4 8 -5 23 -2 18 3 25 1 21 -8 -2 -7 -12 -12 -21 -11 -10 0 -15 -2 -12 -5 3
-3 -2 -14 -11 -26 -12 -12 -4 -9 20 8 20 16 37 29 37 30 0 0 -6 18 -13 39
l-13 37 -14 -27z"/>
<path fill="#ffffff" stroke="none" d="M107 108 c-3 -8 -6 -5 -6 6 -1 11 2 17
5 13 3 -3 4 -12 1 -19z"/>
<path fill="#000000" stroke="none" d="M187 44 l18 -27 -28 18 c-15 10 -30 15
-34 11 -3 -3 -1 -6 5 -6 7 0 12 -5 12 -11 0 -5 -4 -8 -9 -4 -5 3 -12 2 -15 -3
-4 -6 73 -9 93 -3 7 2 -22 32 -41 42 -19 10 -19 10 -1 -17z"/>
<path fill="#000000" stroke="none" d="M101 36 c-7 -8 -8 -17 -3 -20 6 -3 15
1 21 8 7 8 8 17 3 20 -6 3 -15 -1 -21 -8z"/>
</g>
</svg>
