<?xml version="1.0" standalone="no"?>
<!DOCTYPE svg PUBLIC "-//W3C//DTD SVG 20010904//EN"
 "http://www.w3.org/TR/2001/REC-SVG-20010904/DTD/svg10.dtd">
<svg version="1.0" xmlns="http://www.w3.org/2000/svg"
 width="32.000000pt" height="32.000000pt" viewBox="0 0 32.000000 32.000000"
 preserveAspectRatio="xMidYMid meet">
<metadata>
Created by potrace 1.16, written by Peter Selinger 2001-2019
</metadata>
<g transform="translate(0.000000,32.000000) scale(0.100000,-0.100000)"
fill="#000000" stroke="none">
<path fill="#000000" stroke="none" d="M85 291 c-63 -29 -77 -50 -73 -112 2
-37 7 -53 16 -51 7 1 17 -9 22 -23 11 -29 36 -24 51 9 9 21 10 21 5 -1 -2 -14
2 -23 13 -26 9 -3 1 -5 -16 -6 -29 -1 -33 -4 -33 -29 0 -36 23 -48 91 -46 63
1 82 10 123 53 24 25 27 33 16 46 -7 8 -21 15 -31 15 -13 0 -16 5 -12 16 3 8
12 13 20 10 16 -7 33 31 33 74 0 45 -84 106 -113 81 -8 -6 -18 -6 -27 -1 -22
14 -40 12 -85 -9z"/>
<path fill="#ffffff" stroke="none" d="M145 270 c3 -5 1 -10 -4 -10 -6 0 -11
5 -11 10 0 6 2 10 4 10 3 0 8 -4 11 -10z"/>
<path fill="#ffffff" stroke="none" d="M111 247 c-13 -13 -26 -3 -16 12 3 6
11 8 17 5 6 -4 6 -10 -1 -17z"/>
<path fill="#ffffff" stroke="none" d="M71 241 c-6 -10 -8 -20 -6 -23 2 -2 -4
-4 -15 -4 -28 0 -6 36 28 45 1 1 -2 -7 -7 -18z"/>
</g>
</svg>
