<?xml version="1.0" standalone="no"?>
<!DOCTYPE svg PUBLIC "-//W3C//DTD SVG 20010904//EN"
 "http://www.w3.org/TR/2001/REC-SVG-20010904/DTD/svg10.dtd">
<svg version="1.0" xmlns="http://www.w3.org/2000/svg"
 width="32.000000pt" height="32.000000pt" viewBox="0 0 32.000000 32.000000"
 preserveAspectRatio="xMidYMid meet">
<metadata>
Created by potrace 1.16, written by Peter Selinger 2001-2019
</metadata>
<g transform="translate(0.000000,32.000000) scale(0.100000,-0.100000)"
fill="#000000" stroke="none">
<path fill="#000000" stroke="none" d="M0 160 l0 -160 53 0 c45 1 50 2 35 14
-10 7 -18 25 -18 40 0 22 4 26 33 27 17 1 25 3 16 6 -11 3 -15 12 -13 26 5 22
4 22 -5 1 -15 -33 -40 -38 -51 -9 -5 14 -15 24 -22 23 -9 -2 -14 14 -16 51 -3
44 1 58 19 77 33 35 104 60 133 46 16 -7 27 -7 34 0 26 26 112 -38 112 -82 0
-43 -17 -81 -33 -74 -8 3 -17 -2 -20 -10 -4 -11 -1 -16 12 -16 10 0 24 -7 31
-15 11 -13 9 -20 -11 -42 -13 -14 -37 -34 -54 -44 l-30 -19 58 0 57 0 0 160 0
160 -160 0 -160 0 0 -160z"/>
<path fill="#000000" stroke="none" d="M130 270 c0 -5 5 -10 11 -10 5 0 7 5 4
10 -3 6 -8 10 -11 10 -2 0 -4 -4 -4 -10z"/>
<path fill="#000000" stroke="none" d="M95 259 c-10 -15 3 -25 16 -12 7 7 7
13 1 17 -6 3 -14 1 -17 -5z"/>
<path fill="#000000" stroke="none" d="M62 253 c-7 -2 -16 -12 -21 -22 -7 -13
-5 -17 9 -17 11 0 17 2 15 4 -2 3 0 13 6 23 5 11 8 19 7 18 -2 0 -9 -3 -16 -6z"/>
<path fill="#000000" stroke="none" d="M128 3 c6 -2 18 -2 25 0 6 3 1 5 -13 5
-14 0 -19 -2 -12 -5z"/>
<path fill="#000000" stroke="none" d="M178 3 c7 -3 16 -2 19 1 4 3 -2 6 -13
5 -11 0 -14 -3 -6 -6z"/>
</g>
</svg>
