<?xml version="1.0" standalone="no"?>
<!DOCTYPE svg PUBLIC "-//W3C//DTD SVG 20010904//EN"
 "http://www.w3.org/TR/2001/REC-SVG-20010904/DTD/svg10.dtd">
<svg version="1.0" xmlns="http://www.w3.org/2000/svg"
 width="32.000000pt" height="32.000000pt" viewBox="0 0 32.000000 32.000000"
 preserveAspectRatio="xMidYMid meet">
<metadata>
Created by potrace 1.16, written by Peter Selinger 2001-2019
</metadata>
<g transform="translate(0.000000,32.000000) scale(0.100000,-0.100000)"
fill="#000000" stroke="none">
<path fill="#000000" stroke="none" d="M90 299 c-54 -24 -90 -56 -90 -80 0
-20 57 -72 70 -64 5 3 11 1 14 -4 4 -5 2 -12 -4 -16 -15 -9 -12 -41 5 -55 11
-9 12 -17 3 -33 -8 -16 -3 -13 20 8 26 26 28 32 17 44 -12 12 -17 12 -29 1
-14 -10 -16 -9 -16 8 0 32 19 36 46 11 l24 -22 0 25 c0 26 -12 40 -42 51 -13
4 -16 2 -12 -11 5 -15 4 -15 -9 1 -11 14 -16 15 -20 5 -3 -8 -6 -5 -6 7 -1 17
-3 17 -11 5 -8 -13 -10 -12 -10 3 0 9 -5 16 -12 15 -17 -4 -22 30 -6 49 17 20
107 63 133 63 34 0 127 -48 119 -61 -4 -8 -3 -9 4 -5 6 3 16 -3 22 -14 12 -22
5 -44 -11 -35 -5 4 -9 -2 -9 -12 0 -15 -2 -16 -10 -3 -8 12 -10 10 -10 -10 -1
-22 -2 -23 -11 -7 -20 34 -41 13 -53 -53 l-7 -35 16 28 c16 27 26 33 39 20 4
-4 -3 -14 -14 -23 -24 -18 -20 -39 12 -59 18 -11 24 -10 46 12 29 30 24 53
-14 68 l-27 10 36 37 c21 21 37 45 37 53 0 24 -42 58 -99 79 -64 25 -75 25
-131 -1z"/>
<path fill="#ffffff" stroke="none" d="M232 139 c-23 -9 -27 -3 -12 16 11 13
15 13 21 3 5 -8 2 -15 -9 -19z"/>
<path fill="#ffffff" stroke="none" d="M135 149 c11 -17 -1 -21 -15 -4 -8 9
-8 15 -2 15 6 0 14 -5 17 -11z"/>
<path fill="#ffffff" stroke="none" d="M124 91 c3 -5 -1 -11 -9 -15 -8 -3 -17
0 -21 6 -4 7 -3 8 4 4 7 -4 12 -2 12 3 0 13 7 14 14 2z"/>
<path fill="#000000" stroke="none" d="M109 38 c-12 -23 -12 -23 10 -4 23 21
26 26 11 26 -5 0 -15 -10 -21 -22z"/>
<path fill="#000000" stroke="none" d="M141 36 c-19 -23 4 -28 24 -6 15 17 16
20 3 20 -9 0 -21 -6 -27 -14z"/>
<path fill="#000000" stroke="none" d="M200 42 c0 -16 28 -34 34 -23 4 6 -3
15 -14 21 -11 6 -20 7 -20 2z"/>
<path fill="#000000" stroke="none" d="M176 22 c-3 -5 1 -9 9 -9 8 0 12 4 9 9
-3 4 -7 8 -9 8 -2 0 -6 -4 -9 -8z"/>
</g>
</svg>
