<?xml version="1.0" standalone="no"?>
<!DOCTYPE svg PUBLIC "-//W3C//DTD SVG 20010904//EN"
 "http://www.w3.org/TR/2001/REC-SVG-20010904/DTD/svg10.dtd">
<svg version="1.0" xmlns="http://www.w3.org/2000/svg"
 width="32.000000pt" height="32.000000pt" viewBox="0 0 32.000000 32.000000"
 preserveAspectRatio="xMidYMid meet">
<metadata>
Created by potrace 1.16, written by Peter Selinger 2001-2019
</metadata>
<g transform="translate(0.000000,32.000000) scale(0.100000,-0.100000)"
fill="#000000" stroke="none">
<path fill="#000000" stroke="none" d="M0 160 l0 -160 53 0 c45 1 50 2 35 14
-12 8 -18 27 -18 52 -1 41 -29 108 -30 70 0 -35 -17 -3 -23 44 -8 61 18 95 93
120 l55 19 -82 1 -83 0 0 -160z"/>
<path fill="#000000" stroke="none" d="M220 309 c14 -6 40 -24 58 -42 30 -29
32 -36 27 -72 -4 -22 -14 -46 -23 -52 -14 -12 -14 -14 1 -31 9 -10 17 -23 17
-28 0 -12 -46 -57 -75 -72 -17 -9 -10 -11 38 -12 l57 0 0 160 0 160 -62 -1
c-52 0 -59 -2 -38 -10z"/>
<path fill="#000000" stroke="none" d="M195 157 c-4 -11 -3 -23 4 -30 15 -15
19 -7 11 23 -6 22 -8 23 -15 7z"/>
<path fill="#000000" stroke="none" d="M122 140 c0 -14 2 -19 5 -12 2 6 2 18
0 25 -3 6 -5 1 -5 -13z"/>
<path fill="#000000" stroke="none" d="M240 140 c0 -5 5 -10 11 -10 5 0 7 5 4
10 -3 6 -8 10 -11 10 -2 0 -4 -4 -4 -10z"/>
<path fill="#000000" stroke="none" d="M128 3 c6 -2 18 -2 25 0 6 3 1 5 -13 5
-14 0 -19 -2 -12 -5z"/>
<path fill="#000000" stroke="none" d="M178 3 c7 -3 16 -2 19 1 4 3 -2 6 -13
5 -11 0 -14 -3 -6 -6z"/>
</g>
</svg>
