<?xml version="1.0" standalone="no"?>
<!DOCTYPE svg PUBLIC "-//W3C//DTD SVG 20010904//EN"
 "http://www.w3.org/TR/2001/REC-SVG-20010904/DTD/svg10.dtd">
<svg version="1.0" xmlns="http://www.w3.org/2000/svg"
 width="32.000000pt" height="32.000000pt" viewBox="0 0 32.000000 32.000000"
 preserveAspectRatio="xMidYMid meet">
<metadata>
Created by potrace 1.16, written by Peter Selinger 2001-2019
</metadata>
<g transform="translate(0.000000,32.000000) scale(0.100000,-0.100000)"
fill="#000000" stroke="none">
<path fill="#000000" stroke="none" d="M110 300 c-75 -25 -101 -59 -93 -120 8
-62 21 -73 17 -13 -5 63 22 112 60 109 15 0 29 -8 32 -19 6 -19 44 -44 44 -28
0 21 -13 41 -22 35 -6 -4 -14 0 -19 7 -13 21 -11 32 6 26 8 -4 17 -2 20 3 10
17 45 12 39 -5 -6 -15 11 -22 19 -7 2 4 2 1 0 -7 -2 -7 5 -20 14 -28 10 -8 12
-12 6 -8 -7 3 -13 1 -13 -4 0 -6 -7 -11 -16 -11 -8 0 -13 -4 -9 -9 3 -5 -4
-12 -15 -16 -11 -3 -20 -13 -20 -21 0 -19 -16 -18 -24 2 -3 8 -2 12 4 9 6 -3
10 -1 10 4 0 6 -4 11 -10 11 -5 0 -10 6 -10 14 0 8 -5 18 -12 22 -6 4 -8 3 -4
-4 3 -6 2 -13 -3 -16 -5 -4 -8 -21 -5 -38 3 -30 3 -31 -11 -11 -8 11 -12 30
-10 42 2 11 -1 21 -7 21 -5 0 -7 -7 -4 -16 5 -13 2 -15 -13 -11 -18 4 -19 1
-15 -27 10 -63 27 -104 40 -99 16 6 13 -19 -6 -43 -13 -17 -12 -17 10 1 14 10
39 35 57 55 l32 35 1 -28 c0 -18 11 -37 33 -56 l32 -30 28 27 c32 30 33 39 10
64 -15 17 -15 19 -1 31 9 6 19 30 23 52 5 36 3 43 -27 72 -32 30 -76 53 -101
53 -7 -1 -37 -9 -67 -20z"/>
<path fill="#ffffff" stroke="none" d="M207 184 c-3 -3 -12 -4 -19 -1 -8 3 -5
6 6 6 11 1 17 -2 13 -5z"/>
<path fill="#ffffff" stroke="none" d="M77 138 c-3 -7 -5 -2 -5 12 0 14 2 19
5 13 2 -7 2 -19 0 -25z"/>
<path fill="#ffffff" stroke="none" d="M217 140 c-2 -11 -6 -22 -9 -25 -9 -9
-21 33 -13 45 10 16 25 1 22 -20z"/>
<path fill="#ffffff" stroke="none" d="M140 135 c1 11 4 15 6 8 6 -15 -23 -73
-37 -73 -6 0 -6 6 1 19 5 11 10 32 11 48 l1 28 8 -25 c7 -21 8 -22 10 -5z"/>
<path fill="#ffffff" stroke="none" d="M256 133 c-10 -10 -19 5 -10 18 6 11 8
11 12 0 2 -7 1 -15 -2 -18z"/>
<path fill="#ffffff" stroke="none" d="M97 113 c-3 -10 -5 -4 -5 12 0 17 2 24
5 18 2 -7 2 -21 0 -30z"/>
<path fill="#000000" stroke="none" d="M140 46 c0 -7 -8 -20 -17 -27 -16 -12
-17 -12 -6 2 16 20 5 33 -14 18 -20 -17 3 -42 27 -29 9 5 21 6 25 2 5 -4 5 -1
0 7 -6 10 -4 12 6 5 18 -11 58 -13 64 -4 6 10 -34 45 -41 37 -4 -4 -1 -15 7
-24 7 -10 2 -8 -12 5 -29 25 -39 28 -39 8z"/>
</g>
</svg>
