<?xml version="1.0" standalone="no"?>
<!DOCTYPE svg PUBLIC "-//W3C//DTD SVG 20010904//EN"
 "http://www.w3.org/TR/2001/REC-SVG-20010904/DTD/svg10.dtd">
<svg version="1.0" xmlns="http://www.w3.org/2000/svg"
 width="32.000000pt" height="32.000000pt" viewBox="0 0 32.000000 32.000000"
 preserveAspectRatio="xMidYMid meet">
<metadata>
Created by potrace 1.16, written by Peter Selinger 2001-2019
</metadata>
<g transform="translate(0.000000,32.000000) scale(0.100000,-0.100000)"
fill="#000000" stroke="none">
<path fill="#000000" stroke="none" d="M0 160 l0 -160 28 0 c27 0 44 13 81 63
12 15 12 17 -3 11 -12 -5 -19 0 -23 14 -3 15 -12 21 -27 19 -18 -2 -21 4 -24
38 -2 22 -8 44 -13 49 -14 15 -11 79 7 104 14 21 14 22 -5 22 -20 0 -21 -5
-21 -160z"/>
<path fill="#000000" stroke="none" d="M130 300 c33 -25 72 -25 88 0 12 19 10
20 -50 20 l-63 0 25 -20z"/>
<path fill="#000000" stroke="none" d="M290 316 c0 -2 7 -9 15 -16 12 -10 15
-10 15 4 0 9 -7 16 -15 16 -8 0 -15 -2 -15 -4z"/>
<path fill="#000000" stroke="none" d="M36 294 c-20 -19 -20 -25 -2 -18 8 3
17 12 20 20 7 18 1 18 -18 -2z"/>
<path fill="#000000" stroke="none" d="M236 291 c-4 -5 -2 -12 3 -15 5 -4 12
-2 15 3 4 5 2 12 -3 15 -5 4 -12 2 -15 -3z"/>
<path fill="#000000" stroke="none" d="M165 260 c-3 -6 1 -7 9 -4 18 7 21 14
7 14 -6 0 -13 -4 -16 -10z"/>
<path fill="#000000" stroke="none" d="M283 259 c-9 -9 -7 -21 8 -50 20 -41
25 -94 9 -104 -6 -4 -7 1 -3 12 4 13 3 15 -6 7 -14 -13 -4 -44 15 -44 21 0 20
158 -1 166 -8 4 -12 10 -9 15 7 13 0 11 -13 -2z"/>
<path fill="#000000" stroke="none" d="M64 239 c-13 -14 -13 -18 0 -28 9 -8
24 -10 38 -5 13 4 26 7 29 6 3 0 4 10 2 22 -6 28 -46 31 -69 5z"/>
<path fill="#ffffff" stroke="none" d="M90 246 c0 -2 -8 -10 -17 -17 -16 -13
-17 -12 -4 4 13 16 21 21 21 13z"/>
<path fill="#000000" stroke="none" d="M199 233 c-13 -16 -12 -17 4 -4 16 13
21 21 13 21 -2 0 -10 -8 -17 -17z"/>
<path fill="#000000" stroke="none" d="M206 201 c-4 -5 -2 -12 3 -15 5 -4 12
-2 15 3 4 5 2 12 -3 15 -5 4 -12 2 -15 -3z"/>
<path fill="#000000" stroke="none" d="M89 173 c-13 -16 -12 -17 4 -4 9 7 17
15 17 17 0 8 -8 3 -21 -13z"/>
<path fill="#000000" stroke="none" d="M268 144 c-18 -34 -18 -34 2 -24 12 6
20 21 20 35 0 32 -2 31 -22 -11z"/>
<path fill="#000000" stroke="none" d="M131 133 c-13 -13 -20 -23 -14 -23 11
0 49 38 42 43 -2 2 -15 -7 -28 -20z"/>
<path fill="#000000" stroke="none" d="M212 78 c-19 -19 -14 -30 8 -18 11 6
20 15 20 20 0 14 -14 12 -28 -2z"/>
<path fill="#000000" stroke="none" d="M250 81 c0 -5 5 -13 10 -16 6 -3 10 -2
10 4 0 5 -4 13 -10 16 -5 3 -10 2 -10 -4z"/>
<path fill="#000000" stroke="none" d="M250 20 c-15 -15 -13 -16 17 -16 18 0
28 3 22 7 -6 4 -14 11 -18 16 -3 5 -13 2 -21 -7z"/>
</g>
</svg>
