<?xml version="1.0" standalone="no"?>
<!DOCTYPE svg PUBLIC "-//W3C//DTD SVG 20010904//EN"
 "http://www.w3.org/TR/2001/REC-SVG-20010904/DTD/svg10.dtd">
<svg version="1.0" xmlns="http://www.w3.org/2000/svg"
 width="32.000000pt" height="32.000000pt" viewBox="0 0 32.000000 32.000000"
 preserveAspectRatio="xMidYMid meet">
<metadata>
Created by potrace 1.16, written by Peter Selinger 2001-2019
</metadata>
<g transform="translate(0.000000,32.000000) scale(0.100000,-0.100000)"
fill="#000000" stroke="none">
<path fill="#000000" stroke="none" d="M0 160 l0 -160 160 0 160 0 0 160 0
160 -160 0 -160 0 0 -160z"/>
<path fill="#ffffff" stroke="none" d="M198 290 c3 -8 0 -10 -8 -5 -10 6 -12
3 -6 -10 5 -14 4 -15 -7 -7 -7 6 -22 9 -32 8 -32 -5 -40 6 -14 20 28 15 61 12
67 -6z"/>
<path fill="#ffffff" stroke="none" d="M143 227 c-3 -4 -11 -3 -18 3 -7 6 -21
8 -31 4 -11 -3 -6 3 11 15 28 19 30 19 36 3 4 -9 4 -21 2 -25z"/>
<path fill="#ffffff" stroke="none" d="M197 223 c0 -9 -4 -10 -14 -2 -7 6 -13
12 -13 14 0 1 6 2 13 2 8 0 14 -6 14 -14z"/>
<path fill="#ffffff" stroke="none" d="M256 204 c2 -12 -1 -13 -12 -3 -7 6
-11 16 -8 21 7 11 17 3 20 -18z"/>
<path fill="#ffffff" stroke="none" d="M80 208 c0 -6 -3 -8 -7 -5 -3 4 -13 1
-22 -6 -14 -11 -14 -10 -2 6 15 20 31 22 31 5z"/>
</g>
</svg>
