<?xml version="1.0" standalone="no"?>
<!DOCTYPE svg PUBLIC "-//W3C//DTD SVG 20010904//EN"
 "http://www.w3.org/TR/2001/REC-SVG-20010904/DTD/svg10.dtd">
<svg version="1.0" xmlns="http://www.w3.org/2000/svg"
 width="32.000000pt" height="32.000000pt" viewBox="0 0 32.000000 32.000000"
 preserveAspectRatio="xMidYMid meet">
<metadata>
Created by potrace 1.16, written by Peter Selinger 2001-2019
</metadata>
<g transform="translate(0.000000,32.000000) scale(0.100000,-0.100000)"
fill="#000000" stroke="none">
<path fill="#000000" stroke="none" d="M0 160 l0 -160 46 0 c35 0 50 5 65 23
24 29 24 37 -1 37 -14 0 -20 7 -20 23 0 13 -9 26 -22 32 -36 17 -45 41 -23 65
18 20 18 21 -3 43 -12 13 -22 28 -22 33 0 19 46 55 62 49 9 -4 19 -2 23 4 4 7
-13 11 -49 11 l-56 0 0 -160z"/>
<path fill="#000000" stroke="none" d="M135 309 c14 -21 49 -27 68 -11 16 14
20 13 45 -9 15 -14 37 -33 50 -43 l22 -19 0 46 0 47 -96 0 c-65 0 -93 -3 -89
-11z"/>
<path fill="#000000" stroke="none" d="M155 220 c-3 -5 -1 -10 4 -10 6 0 11 5
11 10 0 6 -2 10 -4 10 -3 0 -8 -4 -11 -10z"/>
<path fill="#000000" stroke="none" d="M80 203 c0 -6 8 -17 18 -24 16 -13 16
-13 2 6 -8 11 -16 22 -17 24 -2 2 -3 0 -3 -6z"/>
<path fill="#000000" stroke="none" d="M299 181 c-8 -9 -13 -23 -11 -30 5 -16
-48 -73 -63 -67 -6 2 -17 -4 -23 -15 -16 -25 6 -39 24 -14 10 13 23 16 53 13
l41 -4 0 68 c0 38 -1 68 -2 67 -2 0 -10 -8 -19 -18z"/>
<path fill="#000000" stroke="none" d="M298 3 c7 -3 16 -2 19 1 4 3 -2 6 -13
5 -11 0 -14 -3 -6 -6z"/>
</g>
</svg>
