<?xml version="1.0" standalone="no"?>
<!DOCTYPE svg PUBLIC "-//W3C//DTD SVG 20010904//EN"
 "http://www.w3.org/TR/2001/REC-SVG-20010904/DTD/svg10.dtd">
<svg version="1.0" xmlns="http://www.w3.org/2000/svg"
 width="32.000000pt" height="32.000000pt" viewBox="0 0 32.000000 32.000000"
 preserveAspectRatio="xMidYMid meet">
<metadata>
Created by potrace 1.16, written by Peter Selinger 2001-2019
</metadata>
<g transform="translate(0.000000,32.000000) scale(0.100000,-0.100000)"
fill="#000000" stroke="none">
<path fill="#000000" stroke="none" d="M159 296 c-18 -9 -32 -10 -44 -4 -26
15 -43 -7 -26 -33 9 -15 10 -24 2 -32 -6 -6 -11 -19 -11 -28 0 -10 -7 -16 -17
-15 -31 2 -27 -39 5 -65 27 -23 28 -25 13 -52 -9 -15 -23 -29 -33 -32 -9 -3
-19 -12 -22 -20 -5 -13 17 -15 140 -15 94 0 143 4 139 10 -3 6 -1 10 4 10 6 0
11 15 11 33 0 31 -2 33 -35 34 -24 1 -35 -3 -35 -13 0 -9 -11 -14 -32 -13 -23
1 -26 3 -11 6 22 4 73 62 73 83 0 6 9 29 21 52 16 32 19 48 12 72 -11 37 -34
41 -44 6 -4 -15 -7 -18 -8 -8 -1 23 -19 32 -35 19 -10 -9 -15 -8 -20 4 -7 18
-14 19 -47 1z"/>
<path fill="#ffffff" stroke="none" d="M223 233 c7 -9 5 -13 -7 -13 -11 0 -16
8 -15 28 0 15 3 21 6 12 3 -8 10 -21 16 -27z"/>
<path fill="#ffffff" stroke="none" d="M105 152 c-3 -3 -11 0 -18 7 -9 10 -8
11 6 5 10 -3 15 -9 12 -12z"/>
<path fill="#ffffff" stroke="none" d="M160 140 c0 -5 -7 -7 -15 -4 -8 4 -15
8 -15 10 0 2 7 4 15 4 8 0 15 -4 15 -10z"/>
</g>
</svg>
