<?xml version="1.0" standalone="no"?>
<!DOCTYPE svg PUBLIC "-//W3C//DTD SVG 20010904//EN"
 "http://www.w3.org/TR/2001/REC-SVG-20010904/DTD/svg10.dtd">
<svg version="1.0" xmlns="http://www.w3.org/2000/svg"
 width="32.000000pt" height="32.000000pt" viewBox="0 0 32.000000 32.000000"
 preserveAspectRatio="xMidYMid meet">
<metadata>
Created by potrace 1.16, written by Peter Selinger 2001-2019
</metadata>
<g transform="translate(0.000000,32.000000) scale(0.100000,-0.100000)"
fill="#000000" stroke="none">
<path fill="#000000" stroke="none" d="M0 161 c0 -152 1 -160 19 -158 11 0 18
4 15 8 -2 4 4 14 13 21 10 7 25 24 34 38 15 23 14 25 -13 48 -29 25 -37 56
-16 68 7 4 18 -2 26 -14 8 -12 19 -22 25 -22 5 0 3 8 -6 18 -20 22 -22 48 -5
58 6 4 8 3 5 -3 -4 -6 2 -18 12 -27 11 -10 22 -13 25 -8 3 5 -3 12 -13 15 -14
3 -19 12 -17 31 2 14 -1 23 -5 20 -13 -8 -23 26 -11 38 7 7 16 6 30 -1 14 -7
23 -8 27 -1 3 5 14 10 23 10 14 0 13 -3 -5 -21 -20 -21 -21 -21 -49 -3 l-29
18 25 -25 c25 -25 25 -25 46 -6 17 14 23 15 27 5 4 -7 4 -1 2 15 -4 33 7 35
27 5 11 -17 16 -19 23 -8 6 9 4 11 -6 5 -11 -6 -11 -5 -2 5 14 15 33 5 34 -18
1 -10 4 -7 8 7 9 33 29 38 40 9 10 -23 10 -23 10 5 l1 27 -160 0 -160 0 0
-159z"/>
<path fill="#000000" stroke="none" d="M201 248 c-1 -20 4 -28 15 -28 12 0 14
4 7 13 -6 6 -13 19 -16 27 -3 9 -6 3 -6 -12z"/>
<path fill="#000000" stroke="none" d="M285 249 c-4 -6 -16 -14 -28 -18 -11
-4 -16 -11 -10 -14 5 -4 21 5 33 18 13 14 21 25 17 25 -3 0 -9 -5 -12 -11z"/>
<path fill="#000000" stroke="none" d="M298 196 c-10 -20 -18 -41 -18 -47 0
-20 -52 -78 -73 -82 -15 -3 -12 -5 11 -6 23 -1 32 3 32 15 0 12 6 15 23 11 40
-11 48 4 45 78 l-3 68 -17 -37z"/>
<path fill="#000000" stroke="none" d="M166 201 c-3 -5 10 -11 30 -13 40 -5
55 7 21 16 -31 8 -45 7 -51 -3z"/>
<path fill="#000000" stroke="none" d="M50 175 c0 -6 5 -16 12 -23 7 -7 8 -12
4 -12 -5 0 -3 -7 4 -15 7 -8 18 -15 24 -15 6 0 4 5 -4 11 -12 8 -8 9 15 5 l30
-5 -32 14 c-17 8 -36 23 -42 32 -6 10 -11 13 -11 8z"/>
<path fill="#000000" stroke="none" d="M180 146 c0 -22 19 -29 36 -15 17 14
12 22 -16 26 -12 2 -20 -3 -20 -11z"/>
<path fill="#000000" stroke="none" d="M130 146 c0 -2 7 -6 15 -10 8 -3 15 -1
15 4 0 6 -7 10 -15 10 -8 0 -15 -2 -15 -4z"/>
<path fill="#000000" stroke="none" d="M115 87 c-19 -19 -35 -41 -35 -48 0 -8
9 -3 21 11 11 14 18 20 15 14 -8 -17 22 -40 35 -27 7 7 4 14 -6 23 -15 13 -15
15 6 30 15 12 18 19 10 24 -7 4 -26 -7 -46 -27z"/>
<path fill="#000000" stroke="none" d="M305 10 c3 -5 8 -10 11 -10 2 0 4 5 4
10 0 6 -5 10 -11 10 -5 0 -7 -4 -4 -10z"/>
</g>
</svg>
