<?xml version="1.0" standalone="no"?>
<!DOCTYPE svg PUBLIC "-//W3C//DTD SVG 20010904//EN"
 "http://www.w3.org/TR/2001/REC-SVG-20010904/DTD/svg10.dtd">
<svg version="1.0" xmlns="http://www.w3.org/2000/svg"
 width="32.000000pt" height="32.000000pt" viewBox="0 0 32.000000 32.000000"
 preserveAspectRatio="xMidYMid meet">
<metadata>
Created by potrace 1.16, written by Peter Selinger 2001-2019
</metadata>
<g transform="translate(0.000000,32.000000) scale(0.100000,-0.100000)"
fill="#000000" stroke="none">
<path fill="#000000" stroke="none" d="M0 160 l0 -160 38 0 c31 0 41 5 52 25
16 30 1 92 -30 120 -22 20 -26 50 -8 61 6 4 18 -2 26 -12 12 -16 14 -16 9 -2
-3 10 -2 20 3 23 6 4 11 1 11 -4 1 -6 2 -15 3 -20 0 -5 5 -13 10 -18 5 -5 6
-2 1 6 -5 9 -4 12 3 7 7 -4 12 -24 12 -44 -1 -33 -2 -35 -12 -17 -14 25 -68
77 -68 65 0 -5 5 -12 10 -15 6 -4 8 -11 4 -16 -3 -5 0 -8 7 -7 6 2 22 -23 35
-55 22 -56 22 -57 3 -68 -19 -10 -18 -29 2 -29 6 0 7 5 3 11 -5 8 3 10 27 5
19 -3 54 -8 79 -9 l45 -4 -33 14 c-51 21 -74 112 -27 105 16 -2 17 -1 5 7 -12
9 -13 11 -1 11 8 0 12 3 8 6 -3 3 -14 1 -24 -4 -16 -10 -19 -5 -29 45 -13 63
-10 83 15 83 14 0 14 -2 1 -10 -13 -8 -13 -10 2 -10 10 0 16 7 15 19 -1 21
-27 22 -43 1 -10 -12 -16 -9 -39 18 -23 27 -34 32 -71 32 l-44 0 0 -160z"/>
<path fill="#ffffff" stroke="none" d="M126 234 l5 -39 -36 40 c-23 25 -31 30
-20 13 9 -14 12 -29 7 -32 -5 -3 -15 6 -22 20 -19 34 1 55 28 31 15 -14 19
-14 19 -3 0 8 -5 14 -11 13 -5 -1 -12 7 -14 18 -4 20 -3 20 17 -1 12 -11 24
-38 27 -60z"/>
<path fill="#000000" stroke="none" d="M125 300 c13 -15 21 -17 31 -9 7 6 18
8 23 5 5 -4 12 -2 16 4 10 17 34 11 45 -10 9 -18 7 -23 -19 -38 -17 -9 -31
-21 -31 -26 0 -6 5 -5 12 2 15 15 59 16 56 1 -2 -6 3 -14 10 -16 20 -8 14 15
-9 30 -13 10 -17 17 -10 22 6 3 8 11 5 17 -4 6 -1 9 7 6 14 -5 31 -56 24 -75
-3 -8 -15 -11 -34 -7 -23 5 -32 2 -40 -14 -15 -27 -14 -29 9 -35 11 -3 20 -12
20 -21 0 -8 -9 -20 -20 -26 -15 -8 -20 -8 -20 1 0 7 -2 10 -5 7 -10 -10 15
-58 30 -58 8 0 15 5 15 10 0 6 6 10 13 8 6 -1 24 1 40 5 l27 7 0 115 0 115
-107 0 c-105 0 -106 0 -88 -20z"/>
<path fill="#000000" stroke="none" d="M210 293 c5 -2 8 -9 4 -14 -3 -5 0 -9
6 -9 15 0 7 23 -8 26 -7 1 -8 0 -2 -3z"/>
<path fill="#000000" stroke="none" d="M166 230 c5 -8 7 -24 6 -35 -2 -19 -2
-19 9 -1 9 14 8 21 -6 35 -14 12 -16 12 -9 1z"/>
<path fill="#000000" stroke="none" d="M200 209 c-16 -30 -8 -31 13 -3 10 13
13 24 8 24 -6 0 -15 -9 -21 -21z"/>
<path fill="#000000" stroke="none" d="M290 10 c-12 -8 -11 -10 8 -10 12 0 22
5 22 10 0 13 -11 13 -30 0z"/>
<path fill="#000000" stroke="none" d="M138 3 c7 -3 16 -2 19 1 4 3 -2 6 -13
5 -11 0 -14 -3 -6 -6z"/>
</g>
</svg>
