<?xml version="1.0" standalone="no"?>
<!DOCTYPE svg PUBLIC "-//W3C//DTD SVG 20010904//EN"
 "http://www.w3.org/TR/2001/REC-SVG-20010904/DTD/svg10.dtd">
<svg version="1.0" xmlns="http://www.w3.org/2000/svg"
 width="32.000000pt" height="32.000000pt" viewBox="0 0 32.000000 32.000000"
 preserveAspectRatio="xMidYMid meet">
<metadata>
Created by potrace 1.16, written by Peter Selinger 2001-2019
</metadata>
<g transform="translate(0.000000,32.000000) scale(0.100000,-0.100000)"
fill="#000000" stroke="none">
<path fill="#000000" stroke="none" d="M125 291 c-3 -6 -16 -9 -28 -5 -19 4
-26 -2 -40 -34 -9 -21 -17 -43 -17 -49 0 -6 -7 -14 -16 -17 -8 -3 -12 -10 -9
-16 8 -13 72 -13 80 0 3 6 12 10 18 10 7 0 0 -8 -15 -18 -16 -9 -28 -20 -28
-24 0 -16 27 -7 49 16 13 14 32 24 42 23 17 -1 17 -3 2 -19 -8 -10 -21 -15
-27 -11 -6 3 -2 -5 10 -18 12 -13 24 -30 28 -36 10 -18 -10 -50 -41 -66 -25
-14 -25 -14 -4 -20 11 -3 24 -1 27 4 8 13 48 11 63 -4 10 -10 11 -8 5 6 -5 15
-3 16 21 7 37 -14 40 -13 16 7 -14 12 -22 32 -23 60 -2 22 -6 39 -10 36 -5 -2
-8 0 -8 5 0 11 -43 10 -51 -2 -4 -4 -10 -3 -13 3 -4 6 -1 11 6 12 7 1 21 2 30
3 10 0 18 4 18 9 0 4 0 12 0 18 0 5 -5 7 -12 3 -7 -4 -8 -3 -4 4 5 9 12 9 26
0 10 -7 16 -16 14 -20 -7 -12 42 -32 60 -25 25 10 19 27 -14 38 -25 9 -28 13
-17 29 6 11 14 15 17 10 3 -5 11 -5 18 -1 11 6 11 13 0 37 -17 39 -15 38 -51
40 -18 0 -51 4 -73 8 -27 5 -44 4 -49 -3z"/>
</g>
</svg>
