<?xml version="1.0" standalone="no"?>
<!DOCTYPE svg PUBLIC "-//W3C//DTD SVG 20010904//EN"
 "http://www.w3.org/TR/2001/REC-SVG-20010904/DTD/svg10.dtd">
<svg version="1.0" xmlns="http://www.w3.org/2000/svg"
 width="32.000000pt" height="32.000000pt" viewBox="0 0 32.000000 32.000000"
 preserveAspectRatio="xMidYMid meet">
<metadata>
Created by potrace 1.16, written by Peter Selinger 2001-2019
</metadata>
<g transform="translate(0.000000,32.000000) scale(0.100000,-0.100000)"
fill="#000000" stroke="none">
<path fill="#000000" stroke="none" d="M128 276 c-3 -15 -1 -26 6 -26 6 0 3
-7 -7 -15 -11 -7 -26 -11 -35 -7 -16 5 -16 5 -1 -11 25 -24 86 -9 75 19 -3 7
-1 16 5 19 5 4 8 1 7 -6 -2 -7 9 -17 24 -22 22 -9 31 -6 57 15 25 22 28 28 16
38 -14 12 -55 -2 -55 -19 0 -4 -7 -8 -15 -8 -11 0 -12 4 -3 14 14 17 11 20
-33 28 -33 6 -37 5 -41 -19z"/>
<path fill="#000000" stroke="none" d="M66 273 c-10 -24 8 -37 34 -23 17 9 19
14 9 26 -15 19 -35 18 -43 -3z"/>
<path fill="#000000" stroke="none" d="M45 229 c-4 -6 -4 -13 -1 -16 3 -4 -1
-14 -10 -24 -17 -19 -5 -33 20 -23 13 5 14 9 5 20 -11 13 -6 18 14 15 4 -1 3
8 -3 19 -12 23 -16 24 -25 9z"/>
<path fill="#000000" stroke="none" d="M219 189 l-24 -20 30 17 c39 24 40 24
28 24 -6 0 -21 -9 -34 -21z"/>
<path fill="#000000" stroke="none" d="M126 172 c-3 -5 1 -9 9 -9 8 0 12 4 9
9 -3 4 -7 8 -9 8 -2 0 -6 -4 -9 -8z"/>
<path fill="#000000" stroke="none" d="M160 176 c0 -2 8 -10 18 -17 15 -13 16
-12 3 4 -13 16 -21 21 -21 13z"/>
<path fill="#000000" stroke="none" d="M92 154 c-7 -8 -8 -14 -3 -14 10 0 25
19 20 25 -2 1 -10 -3 -17 -11z"/>
<path fill="#000000" stroke="none" d="M275 160 c-3 -6 -3 -10 2 -9 20 4 27
-2 13 -12 -13 -9 -13 -10 0 -6 18 4 20 29 3 34 -6 2 -14 -1 -18 -7z"/>
<path fill="#000000" stroke="none" d="M189 99 c0 -2 -2 -11 -4 -20 -1 -9 3
-16 10 -16 7 0 12 6 11 13 -2 13 -15 31 -17 23z"/>
</g>
</svg>
