<?xml version="1.0" standalone="no"?>
<!DOCTYPE svg PUBLIC "-//W3C//DTD SVG 20010904//EN"
 "http://www.w3.org/TR/2001/REC-SVG-20010904/DTD/svg10.dtd">
<svg version="1.0" xmlns="http://www.w3.org/2000/svg"
 width="32.000000pt" height="32.000000pt" viewBox="0 0 32.000000 32.000000"
 preserveAspectRatio="xMidYMid meet">
<metadata>
Created by potrace 1.16, written by Peter Selinger 2001-2019
</metadata>
<g transform="translate(0.000000,32.000000) scale(0.100000,-0.100000)"
fill="#000000" stroke="none">
<path fill="#000000" stroke="none" d="M0 160 l0 -160 69 0 c67 0 68 1 64 24
-4 18 -10 22 -24 19 -13 -4 -19 -1 -17 8 2 10 -5 13 -21 11 -16 -3 -21 0 -15
9 5 8 2 11 -8 7 -18 -7 -18 23 1 46 11 13 11 16 1 16 -9 0 -7 7 5 20 10 11 14
20 10 20 -5 0 1 10 13 23 11 12 22 27 22 32 1 6 15 26 31 45 28 34 29 34 41
15 6 -11 29 -36 49 -56 35 -34 37 -37 21 -53 -11 -12 -13 -16 -4 -14 8 2 21
-7 29 -19 14 -21 14 -23 0 -23 -9 0 -19 -4 -22 -10 -3 -5 0 -7 8 -4 8 3 20 -2
27 -11 11 -14 10 -17 -8 -22 -12 -3 -19 -9 -16 -14 3 -5 -5 -9 -18 -9 -28 0
-53 -17 -61 -42 -6 -16 2 -18 68 -18 l75 0 0 160 0 160 -160 0 -160 0 0 -160z"/>
</g>
</svg>
