<?xml version="1.0" standalone="no"?>
<!DOCTYPE svg PUBLIC "-//W3C//DTD SVG 20010904//EN"
 "http://www.w3.org/TR/2001/REC-SVG-20010904/DTD/svg10.dtd">
<svg version="1.0" xmlns="http://www.w3.org/2000/svg"
 width="32.000000pt" height="32.000000pt" viewBox="0 0 32.000000 32.000000"
 preserveAspectRatio="xMidYMid meet">
<metadata>
Created by potrace 1.16, written by Peter Selinger 2001-2019
</metadata>
<g transform="translate(0.000000,32.000000) scale(0.100000,-0.100000)"
fill="#000000" stroke="none">
<path fill="#000000" stroke="none" d="M149 297 c-22 -18 -47 -52 -31 -43 7 4
12 1 12 -9 0 -9 5 -13 10 -10 14 9 12 -8 -4 -30 -17 -24 -10 -51 10 -35 9 8
18 8 32 1 16 -8 21 -7 26 5 3 8 2 13 -3 10 -5 -3 -15 2 -22 11 -10 12 -10 14
-1 9 6 -4 12 -3 12 3 0 5 3 17 7 27 5 13 3 15 -7 9 -8 -5 -11 -4 -7 2 4 6 1
23 -6 37 -11 21 -16 23 -28 13z"/>
<path fill="#000000" stroke="none" d="M89 193 c-13 -16 -12 -17 4 -4 9 7 17
15 17 17 0 8 -8 3 -21 -13z"/>
<path fill="#000000" stroke="none" d="M86 137 c-16 -12 -16 -14 -2 -26 13
-11 19 -11 32 -1 12 11 15 11 12 -1 -2 -10 8 -13 40 -12 24 0 46 4 49 7 4 3 1
6 -5 6 -7 0 -12 5 -12 11 0 5 4 8 9 5 5 -3 11 0 14 7 4 10 -5 12 -31 10 -20
-1 -38 -7 -40 -13 -3 -8 -8 -8 -17 0 -9 7 -16 6 -25 -5 -7 -8 -17 -12 -22 -9
-5 3 -1 12 9 20 10 7 15 14 12 14 -3 0 -13 -6 -23 -13z"/>
<path fill="#000000" stroke="none" d="M54 79 c0 -13 3 -15 13 -7 16 13 16 15
0 21 -7 3 -13 -3 -13 -14z"/>
<path fill="#000000" stroke="none" d="M223 92 c-9 -5 -6 -12 10 -21 19 -13
21 -12 10 1 -7 8 -10 18 -6 21 9 9 1 8 -14 -1z"/>
<path fill="#000000" stroke="none" d="M94 68 c-4 -7 -4 -10 1 -6 4 4 13 4 19
-1 21 -16 71 -20 89 -6 16 11 13 13 -25 10 -24 -2 -51 1 -60 6 -11 6 -19 5
-24 -3z"/>
<path fill="#000000" stroke="none" d="M140 20 c0 -13 18 -22 24 -11 3 5 -1
11 -9 15 -8 3 -15 1 -15 -4z"/>
</g>
</svg>
