<?xml version="1.0" standalone="no"?>
<!DOCTYPE svg PUBLIC "-//W3C//DTD SVG 20010904//EN"
 "http://www.w3.org/TR/2001/REC-SVG-20010904/DTD/svg10.dtd">
<svg version="1.0" xmlns="http://www.w3.org/2000/svg"
 width="32.000000pt" height="32.000000pt" viewBox="0 0 32.000000 32.000000"
 preserveAspectRatio="xMidYMid meet">
<metadata>
Created by potrace 1.16, written by Peter Selinger 2001-2019
</metadata>
<g transform="translate(0.000000,32.000000) scale(0.100000,-0.100000)"
fill="#000000" stroke="none">
<path fill="#000000" stroke="none" d="M126 284 c-5 -13 -9 -15 -18 -6 -7 7
-17 12 -23 12 -11 0 -45 -66 -45 -87 0 -6 -7 -14 -16 -17 -24 -9 -6 -26 28
-26 22 0 29 4 25 15 -7 17 9 30 18 16 3 -6 12 -8 20 -4 11 4 13 1 9 -11 -3 -9
-10 -13 -15 -10 -5 3 -9 0 -9 -5 0 -6 -8 -11 -17 -11 -13 0 -14 -3 -5 -12 9
-9 17 -7 34 9 21 18 55 22 44 4 -3 -3 8 -6 22 -5 16 0 27 7 27 15 0 8 7 14 16
14 19 0 49 23 49 37 0 5 -4 6 -10 3 -5 -3 -10 -4 -10 -1 0 3 9 10 20 16 11 6
19 7 18 1 -2 -5 0 -9 5 -10 10 -1 10 0 2 32 -7 27 -10 29 -55 32 -14 1 -44 5
-66 9 -34 6 -42 4 -48 -10z"/>
<path fill="#ffffff" stroke="none" d="M212 206 c5 4 4 -4 -3 -17 -7 -13 -12
-28 -11 -32 1 -5 -3 -5 -10 -1 -7 5 -19 9 -26 10 -8 2 -16 5 -19 8 -8 7 7 27
17 21 4 -3 14 2 21 11 8 10 15 12 17 5 2 -6 8 -8 14 -5z"/>
<path fill="#ffffff" stroke="none" d="M245 201 c3 -5 2 -12 -3 -15 -5 -3 -9
1 -9 9 0 17 3 19 12 6z"/>
<path fill="#000000" stroke="none" d="M255 155 c-11 -9 -14 -14 -7 -10 6 3
12 1 12 -5 0 -6 10 -10 23 -8 25 3 30 31 7 36 -9 1 -24 -5 -35 -13z"/>
<path fill="#000000" stroke="none" d="M179 106 c0 -1 -2 -14 -3 -29 -1 -16
-8 -32 -16 -37 -8 -6 -11 -10 -6 -10 5 0 3 -8 -4 -18 -7 -9 2 -1 19 18 19 21
31 28 31 19 0 -8 7 -24 16 -35 15 -18 15 -18 5 3 -14 28 -14 56 -1 48 6 -4 6
3 -1 18 -8 18 -31 31 -40 23z"/>
<path fill="#000000" stroke="none" d="M120 20 c-9 -6 -10 -10 -3 -10 6 0 15
5 18 10 8 12 4 12 -15 0z"/>
</g>
</svg>
