<?xml version="1.0" standalone="no"?>
<!DOCTYPE svg PUBLIC "-//W3C//DTD SVG 20010904//EN"
 "http://www.w3.org/TR/2001/REC-SVG-20010904/DTD/svg10.dtd">
<svg version="1.0" xmlns="http://www.w3.org/2000/svg"
 width="32.000000pt" height="32.000000pt" viewBox="0 0 32.000000 32.000000"
 preserveAspectRatio="xMidYMid meet">
<metadata>
Created by potrace 1.16, written by Peter Selinger 2001-2019
</metadata>
<g transform="translate(0.000000,32.000000) scale(0.100000,-0.100000)"
fill="#000000" stroke="none">
<path fill="#000000" stroke="none" d="M0 160 l0 -160 160 0 160 0 0 160 0
160 -160 0 -160 0 0 -160z"/>
<path fill="#ffffff" stroke="none" d="M192 275 c3 -14 1 -25 -6 -25 -6 0 -3
-7 7 -15 11 -7 26 -11 35 -7 16 5 16 5 1 -11 -25 -24 -86 -9 -75 19 3 7 1 16
-5 19 -5 4 -8 1 -7 -6 2 -7 -9 -17 -24 -23 -23 -8 -32 -6 -52 13 -23 22 -25
22 -35 4 -6 -10 -11 -13 -11 -7 0 7 8 22 18 34 16 19 22 21 40 11 12 -6 22
-15 22 -20 0 -4 7 -8 15 -8 11 0 12 4 5 11 -16 16 -12 24 13 29 47 9 55 7 59
-18z"/>
<path fill="#ffffff" stroke="none" d="M254 273 c10 -24 -8 -37 -34 -23 -17 9
-19 14 -9 26 15 19 35 18 43 -3z"/>
<path fill="#ffffff" stroke="none" d="M276 215 c-3 -8 2 -19 10 -26 18 -15 4
-32 -20 -23 -13 5 -14 9 -5 20 11 13 6 18 -14 15 -4 -1 -3 8 3 19 12 22 35 17
26 -5z"/>
<path fill="#ffffff" stroke="none" d="M101 189 l24 -20 -30 17 c-39 24 -40
24 -28 24 6 0 21 -9 34 -21z"/>
<path fill="#ffffff" stroke="none" d="M160 176 c0 -2 -8 -10 -17 -17 -16 -13
-17 -12 -4 4 13 16 21 21 21 13z"/>
<path fill="#ffffff" stroke="none" d="M194 172 c3 -5 -1 -9 -9 -9 -8 0 -12 4
-9 9 3 4 7 8 9 8 2 0 6 -4 9 -8z"/>
<path fill="#ffffff" stroke="none" d="M136 76 c1 -7 -4 -13 -11 -13 -7 0 -11
7 -10 16 2 9 4 18 4 20 2 8 15 -10 17 -23z"/>
</g>
</svg>
