<?xml version="1.0" standalone="no"?>
<!DOCTYPE svg PUBLIC "-//W3C//DTD SVG 20010904//EN"
 "http://www.w3.org/TR/2001/REC-SVG-20010904/DTD/svg10.dtd">
<svg version="1.0" xmlns="http://www.w3.org/2000/svg"
 width="32.000000pt" height="32.000000pt" viewBox="0 0 32.000000 32.000000"
 preserveAspectRatio="xMidYMid meet">
<metadata>
Created by potrace 1.16, written by Peter Selinger 2001-2019
</metadata>
<g transform="translate(0.000000,32.000000) scale(0.100000,-0.100000)"
fill="#000000" stroke="none">
<path fill="#000000" stroke="none" d="M130 307 c-40 -11 -45 -15 -43 -39 1
-18 -3 -25 -11 -22 -19 7 -66 -14 -66 -30 0 -8 12 -29 27 -47 18 -21 29 -49
33 -78 4 -33 10 -45 20 -43 10 3 9 -2 -4 -17 -11 -12 -24 -21 -29 -21 -6 0 -2
7 9 16 18 14 18 15 -3 4 -13 -6 -23 -15 -23 -20 0 -13 217 -13 225 0 3 5 17
10 31 10 21 0 24 5 24 35 0 28 -4 35 -20 35 -10 0 -28 -10 -39 -22 -22 -23
-78 -31 -85 -12 -2 6 3 11 12 10 13 -1 17 8 17 39 0 39 1 40 31 37 40 -5 55
15 60 77 3 45 0 52 -27 75 -34 29 -67 32 -139 13z"/>
<path fill="#ffffff" stroke="none" d="M246 289 c18 -15 12 -22 -23 -24 -16
-1 -35 -3 -43 -6 -10 -3 -14 2 -12 14 3 17 1 17 -29 2 -17 -9 -28 -12 -25 -7
3 6 0 12 -6 15 -17 6 70 24 100 21 13 -1 30 -8 38 -15z"/>
<path fill="#ffffff" stroke="none" d="M65 221 c7 -12 -12 -24 -25 -16 -11 7
-4 25 10 25 5 0 11 -4 15 -9z"/>
<path fill="#ffffff" stroke="none" d="M169 183 c-5 -13 -7 -30 -3 -36 3 -7
-1 -3 -10 7 -8 10 -14 28 -11 40 2 12 4 25 4 30 1 5 8 3 15 -4 11 -9 12 -18 5
-37z"/>
<path fill="#ffffff" stroke="none" d="M105 163 c19 -45 4 -68 -17 -26 -12 25
-14 63 -2 63 2 0 11 -17 19 -37z"/>
<path fill="#ffffff" stroke="none" d="M245 182 c-3 -3 -11 0 -18 7 -9 10 -8
11 6 5 10 -3 15 -9 12 -12z"/>
<path fill="#ffffff" stroke="none" d="M146 63 c-1 -21 -4 -36 -7 -33 -3 3
-12 0 -20 -7 -12 -9 -14 -5 -15 22 0 19 3 32 8 29 4 -3 8 0 8 6 0 6 5 8 10 5
6 -3 10 -1 10 4 0 6 2 11 4 11 2 0 3 -17 2 -37z"/>
</g>
</svg>
