<?xml version="1.0" standalone="no"?>
<!DOCTYPE svg PUBLIC "-//W3C//DTD SVG 20010904//EN"
 "http://www.w3.org/TR/2001/REC-SVG-20010904/DTD/svg10.dtd">
<svg version="1.0" xmlns="http://www.w3.org/2000/svg"
 width="32.000000pt" height="32.000000pt" viewBox="0 0 32.000000 32.000000"
 preserveAspectRatio="xMidYMid meet">
<metadata>
Created by potrace 1.16, written by Peter Selinger 2001-2019
</metadata>
<g transform="translate(0.000000,32.000000) scale(0.100000,-0.100000)"
fill="#000000" stroke="none">
<path fill="#000000" stroke="none" d="M58 290 c-44 -24 -55 -39 -37 -51 8 -5
10 -9 5 -9 -5 0 -3 -6 3 -14 9 -11 8 -15 -5 -20 -26 -10 -10 -31 24 -31 17 -1
28 3 26 7 -7 11 18 10 36 -2 10 -6 20 -4 32 7 17 15 18 15 18 0 0 -23 20 -21
50 4 14 11 19 18 13 14 -9 -4 -11 -1 -7 10 5 12 9 13 20 4 12 -10 12 -14 -2
-30 -20 -22 -32 -153 -13 -147 7 2 12 26 13 62 1 52 3 57 21 52 17 -4 18 -3 4
7 -9 7 -14 18 -11 25 3 10 7 10 20 0 10 -7 7 -1 -5 13 -17 19 -20 28 -11 37 9
9 7 13 -6 18 -10 4 -21 2 -25 -3 -3 -7 -15 -7 -28 -2 -28 10 -30 19 -4 12 31
-8 34 15 3 31 -49 26 -94 28 -134 6z"/>
<path fill="#000000" stroke="none" d="M223 275 c16 -14 32 -23 37 -20 4 3 7
-6 6 -20 -4 -31 21 -56 35 -34 11 18 7 59 -6 61 -5 0 -16 9 -23 19 -8 12 -25
19 -45 19 l-32 -1 28 -24z"/>
<path fill="#000000" stroke="none" d="M110 61 c0 -27 5 -53 11 -57 8 -4 9 3
4 26 -5 23 -4 30 4 26 6 -4 11 -3 11 3 0 5 -5 13 -10 16 -6 4 -8 10 -5 15 3 5
1 11 -5 15 -6 4 -10 -12 -10 -44z"/>
</g>
</svg>
