<?xml version="1.0" standalone="no"?>
<!DOCTYPE svg PUBLIC "-//W3C//DTD SVG 20010904//EN"
 "http://www.w3.org/TR/2001/REC-SVG-20010904/DTD/svg10.dtd">
<svg version="1.0" xmlns="http://www.w3.org/2000/svg"
 width="32.000000pt" height="32.000000pt" viewBox="0 0 32.000000 32.000000"
 preserveAspectRatio="xMidYMid meet">
<metadata>
Created by potrace 1.16, written by Peter Selinger 2001-2019
</metadata>
<g transform="translate(0.000000,32.000000) scale(0.100000,-0.100000)"
fill="#000000" stroke="none">
<path fill="#000000" stroke="none" d="M55 287 c-43 -25 -54 -48 -32 -68 12
-12 12 -15 -2 -26 -20 -15 -2 -37 25 -31 11 2 25 -3 32 -12 7 -8 11 -10 10 -5
-2 6 1 10 7 10 5 0 11 -29 13 -64 3 -50 0 -67 -12 -76 -12 -9 -8 -11 24 -11
24 1 35 5 30 11 -4 6 -11 33 -15 61 l-6 51 51 33 c33 21 49 38 46 47 -3 8 -2
12 2 9 4 -2 14 0 22 5 13 8 11 13 -10 29 -71 58 -129 70 -185 37z"/>
<path fill="#ffffff" stroke="none" d="M160 161 c0 -14 -29 -21 -36 -9 -4 7
-3 8 4 4 7 -4 12 -2 12 3 0 6 5 11 10 11 6 0 10 -4 10 -9z"/>
<path fill="#000000" stroke="none" d="M223 275 c16 -14 34 -22 40 -19 7 4 9
4 5 -1 -4 -4 -3 -17 3 -28 9 -15 8 -18 -3 -12 -7 4 -5 -1 5 -11 15 -17 19 -17
27 -4 12 18 9 60 -5 62 -5 0 -16 9 -23 19 -8 12 -25 19 -45 19 l-32 -1 28 -24z"/>
<path fill="#000000" stroke="none" d="M243 203 c4 -3 0 -14 -9 -24 -20 -22
-32 -153 -13 -147 7 2 12 26 13 62 1 52 3 57 21 52 17 -4 18 -3 4 7 -9 7 -14
18 -11 25 3 10 7 10 20 0 12 -9 11 -6 -2 10 -11 12 -21 22 -24 22 -3 0 -2 -3
1 -7z"/>
</g>
</svg>
