<?xml version="1.0" standalone="no"?>
<!DOCTYPE svg PUBLIC "-//W3C//DTD SVG 20010904//EN"
 "http://www.w3.org/TR/2001/REC-SVG-20010904/DTD/svg10.dtd">
<svg version="1.0" xmlns="http://www.w3.org/2000/svg"
 width="32.000000pt" height="32.000000pt" viewBox="0 0 32.000000 32.000000"
 preserveAspectRatio="xMidYMid meet">
<metadata>
Created by potrace 1.16, written by Peter Selinger 2001-2019
</metadata>
<g transform="translate(0.000000,32.000000) scale(0.100000,-0.100000)"
fill="#000000" stroke="none">
<path fill="#000000" stroke="none" d="M133 311 c-56 -3 -104 -8 -107 -11 -4
-4 -9 -225 -7 -287 1 -10 36 -13 140 -13 159 0 152 -4 148 87 -2 42 -6 53 -18
53 -9 0 -20 8 -24 17 -5 15 -4 16 6 6 7 -7 19 -13 26 -13 11 0 12 16 7 78 -7
79 -14 93 -49 90 -11 -1 -66 -4 -122 -7z"/>
</g>
</svg>
