<?xml version="1.0" standalone="no"?>
<!DOCTYPE svg PUBLIC "-//W3C//DTD SVG 20010904//EN"
 "http://www.w3.org/TR/2001/REC-SVG-20010904/DTD/svg10.dtd">
<svg version="1.0" xmlns="http://www.w3.org/2000/svg"
 width="32.000000pt" height="32.000000pt" viewBox="0 0 32.000000 32.000000"
 preserveAspectRatio="xMidYMid meet">
<metadata>
Created by potrace 1.16, written by Peter Selinger 2001-2019
</metadata>
<g transform="translate(0.000000,32.000000) scale(0.100000,-0.100000)"
fill="#000000" stroke="none">
<path fill="#000000" stroke="none" d="M4 288 c-3 -4 3 -20 13 -35 11 -17 13
-24 5 -19 -10 6 -13 3 -10 -10 3 -14 11 -18 30 -16 19 2 27 -3 31 -19 4 -14
11 -20 21 -16 8 3 20 -1 26 -8 7 -8 17 -12 23 -8 6 3 7 1 3 -5 -4 -6 -13 -9
-21 -6 -18 7 -32 -23 -17 -38 15 -15 -3 -48 -27 -48 -20 0 -34 -14 -44 -43 -6
-16 -4 -16 23 -2 17 9 30 18 30 21 0 2 -10 0 -21 -7 -17 -9 -20 -8 -17 3 3 7
14 14 27 16 12 2 29 15 38 29 14 21 15 28 3 46 -12 20 -12 21 3 9 13 -11 17
-10 26 6 8 15 5 24 -17 46 -16 14 -32 26 -38 26 -5 0 -2 -5 6 -11 13 -9 13
-10 0 -6 -8 2 -15 12 -15 22 0 12 -10 22 -25 26 -21 6 -22 7 -5 9 16 1 13 5
-12 16 -38 16 -45 28 -9 14 16 -6 27 -5 35 3 7 7 11 8 10 2 -8 -28 72 -107 86
-85 3 6 -7 18 -23 27 -17 10 -37 29 -46 44 -13 22 -23 27 -52 26 -19 -1 -37
-4 -40 -9z"/>
<path fill="#ffffff" stroke="none" d="M131 173 c13 -16 12 -17 -3 -4 -10 7
-18 15 -18 17 0 8 8 3 21 -13z"/>
<path fill="#000000" stroke="none" d="M116 293 c-13 -13 -5 -33 19 -49 28
-19 39 -15 29 10 -3 9 -11 13 -17 9 -5 -3 -7 -1 -3 5 3 6 -2 13 -11 15 -16 4
-16 5 -1 6 9 0 20 -4 23 -9 5 -8 11 -7 21 1 8 6 14 10 15 8 6 -33 6 -38 -3
-32 -8 4 -9 -4 -5 -24 3 -17 1 -35 -5 -41 -7 -7 -8 -15 -4 -19 4 -5 19 5 33
21 19 23 22 31 11 37 -10 7 -10 9 2 9 12 0 12 2 2 9 -11 6 -10 10 4 15 9 3 19
4 22 1 3 -3 0 -5 -7 -5 -7 0 -10 -4 -7 -9 3 -4 17 -6 31 -3 24 4 25 6 9 23
-12 13 -21 16 -34 9 -11 -6 -21 -5 -29 3 -12 12 -84 20 -95 10z"/>
<path fill="#000000" stroke="none" d="M285 270 c18 -20 18 -21 -3 -27 -12 -3
-19 -10 -16 -15 4 -6 -1 -6 -13 0 -15 9 -20 8 -20 -4 0 -8 11 -14 26 -15 25
-1 25 -1 -5 -10 -17 -5 -38 -17 -48 -28 -17 -18 -17 -19 5 -26 17 -6 19 -9 8
-16 -8 -5 -18 -9 -24 -9 -5 0 -3 5 5 10 10 7 11 10 2 10 -7 0 -15 -7 -18 -15
-4 -8 -10 -13 -14 -10 -5 3 -7 -3 -5 -12 2 -10 4 -22 4 -26 1 -5 5 -5 11 -2 6
4 7 -1 3 -11 -5 -15 -7 -15 -15 0 -5 9 -14 14 -19 10 -13 -8 8 -34 27 -34 13
0 21 -3 75 -31 19 -9 21 -9 16 6 -4 9 -3 14 3 10 16 -10 40 21 40 50 0 22 -3
26 -17 20 -33 -14 -73 -18 -73 -6 0 6 7 8 15 5 22 -9 30 24 10 45 -16 18 -15
20 5 26 12 4 27 2 33 -4 20 -20 28 -12 25 28 -2 29 -7 37 -18 33 -11 -4 -10 0
4 16 15 18 16 24 6 37 -7 8 -17 15 -23 15 -5 0 -2 -9 8 -20z"/>
<path fill="#ffffff" stroke="none" d="M240 170 c-14 -10 -27 -16 -30 -13 -6
6 30 33 44 33 6 0 0 -9 -14 -20z"/>
<path fill="#ffffff" stroke="none" d="M195 100 c-3 -5 -12 -10 -18 -10 -7 0
-6 4 3 10 19 12 23 12 15 0z"/>
<path fill="#000000" stroke="none" d="M98 25 l-27 -23 24 2 c13 0 21 3 19 5
-2 2 1 10 8 18 19 23 4 22 -24 -2z"/>
<path fill="#000000" stroke="none" d="M137 23 c-13 -12 -7 -22 12 -20 15 1
17 4 9 14 -12 15 -13 15 -21 6z"/>
<path fill="#000000" stroke="none" d="M180 15 c7 -8 24 -15 39 -15 l26 0 -29
15 c-36 19 -52 19 -36 0z"/>
</g>
</svg>
