<?xml version="1.0" standalone="no"?>
<!DOCTYPE svg PUBLIC "-//W3C//DTD SVG 20010904//EN"
 "http://www.w3.org/TR/2001/REC-SVG-20010904/DTD/svg10.dtd">
<svg version="1.0" xmlns="http://www.w3.org/2000/svg"
 width="32.000000pt" height="32.000000pt" viewBox="0 0 32.000000 32.000000"
 preserveAspectRatio="xMidYMid meet">
<metadata>
Created by potrace 1.16, written by Peter Selinger 2001-2019
</metadata>
<g transform="translate(0.000000,32.000000) scale(0.100000,-0.100000)"
fill="#000000" stroke="none">
<path fill="#000000" stroke="none" d="M0 160 c0 -133 2 -160 14 -160 22 0 66
63 72 102 5 28 1 38 -25 62 -17 17 -31 38 -31 47 0 10 -4 21 -10 24 -15 10
-12 46 7 67 15 17 15 18 -5 18 -22 0 -22 -3 -22 -160z"/>
<path fill="#000000" stroke="none" d="M188 313 c6 -2 18 -2 25 0 6 3 1 5 -13
5 -14 0 -19 -2 -12 -5z"/>
<path fill="#000000" stroke="none" d="M295 300 c10 -11 15 -28 12 -40 -3 -11
-1 -20 4 -20 5 0 9 18 9 40 0 34 -3 40 -22 40 -20 0 -20 -1 -3 -20z"/>
<path fill="#000000" stroke="none" d="M304 129 c-4 -7 -21 -9 -45 -5 -38 6
-39 5 -27 -14 10 -16 10 -24 1 -40 -11 -17 -10 -18 5 -13 9 3 23 10 29 16 7 5
22 7 33 4 17 -4 20 0 20 29 0 36 -4 42 -16 23z"/>
</g>
</svg>
