<?xml version="1.0" standalone="no"?>
<!DOCTYPE svg PUBLIC "-//W3C//DTD SVG 20010904//EN"
 "http://www.w3.org/TR/2001/REC-SVG-20010904/DTD/svg10.dtd">
<svg version="1.0" xmlns="http://www.w3.org/2000/svg"
 width="32.000000pt" height="32.000000pt" viewBox="0 0 32.000000 32.000000"
 preserveAspectRatio="xMidYMid meet">
<metadata>
Created by potrace 1.16, written by Peter Selinger 2001-2019
</metadata>
<g transform="translate(0.000000,32.000000) scale(0.100000,-0.100000)"
fill="#000000" stroke="none">
<path fill="#000000" stroke="none" d="M178 304 c-4 -3 -30 -6 -59 -7 -46 -2
-55 -6 -66 -27 -19 -38 -16 -110 7 -148 26 -42 26 -78 0 -92 -43 -23 -17 -30
114 -30 146 0 146 0 146 61 0 22 -5 29 -19 29 -11 0 -23 -5 -26 -10 -3 -6 -11
-10 -16 -10 -6 0 3 13 19 29 30 31 42 67 42 128 0 27 -3 34 -15 29 -10 -3 -20
5 -30 24 -17 33 -30 38 -43 14 -8 -14 -10 -14 -21 0 -14 17 -24 20 -33 10z"/>
</g>
</svg>
