<?xml version="1.0" standalone="no"?>
<!DOCTYPE svg PUBLIC "-//W3C//DTD SVG 20010904//EN"
 "http://www.w3.org/TR/2001/REC-SVG-20010904/DTD/svg10.dtd">
<svg version="1.0" xmlns="http://www.w3.org/2000/svg"
 width="32.000000pt" height="32.000000pt" viewBox="0 0 32.000000 32.000000"
 preserveAspectRatio="xMidYMid meet">
<metadata>
Created by potrace 1.16, written by Peter Selinger 2001-2019
</metadata>
<g transform="translate(0.000000,32.000000) scale(0.100000,-0.100000)"
fill="#000000" stroke="none">
<path fill="#000000" stroke="none" d="M87 303 c-4 -3 -4 -17 -1 -30 5 -17 2
-23 -7 -21 -8 2 -12 -3 -10 -12 2 -8 6 -33 8 -55 l4 -40 -24 29 c-33 40 -42
18 -11 -28 22 -32 24 -42 15 -67 -5 -16 -23 -40 -38 -53 l-28 -24 112 0 c71 0
120 4 136 13 14 7 38 11 53 9 24 -4 26 -3 9 5 -14 7 -16 10 -5 10 9 1 16 10
16 21 0 12 -4 16 -10 10 -5 -5 -22 -6 -39 -3 -20 4 -28 3 -24 -4 9 -14 -53
-26 -87 -17 -27 6 -33 18 -16 29 6 4 8 11 4 16 -3 5 -10 7 -15 4 -16 -11 -9 4
12 24 13 12 17 21 10 26 -16 9 -13 25 5 25 8 0 12 -4 9 -10 -11 -18 5 -32 22
-18 13 10 14 9 11 -10 -1 -11 1 -21 5 -21 5 0 14 -7 21 -17 10 -12 15 -14 20
-5 4 6 2 18 -4 26 -7 8 -10 22 -6 30 4 12 -4 20 -29 31 -19 8 -35 17 -35 20 0
3 4 3 9 -1 17 -10 21 12 6 25 -20 17 -19 30 3 30 18 -1 47 -19 53 -35 2 -5 7
-9 11 -8 3 1 9 -4 12 -13 3 -8 2 -12 -4 -9 -6 3 -10 2 -10 -4 0 -20 19 -21 30
0 10 17 8 25 -11 45 -22 24 -22 24 -1 24 11 0 24 5 27 10 10 16 -26 24 -47 11
-17 -11 -24 -9 -43 9 l-23 21 -17 -23 c-16 -22 -17 -22 -11 -1 8 25 -4 36 -24
23 -8 -5 -19 -5 -26 0 -6 6 -14 7 -17 3z"/>
</g>
</svg>
