<?xml version="1.0" standalone="no"?>
<!DOCTYPE svg PUBLIC "-//W3C//DTD SVG 20010904//EN"
 "http://www.w3.org/TR/2001/REC-SVG-20010904/DTD/svg10.dtd">
<svg version="1.0" xmlns="http://www.w3.org/2000/svg"
 width="32.000000pt" height="32.000000pt" viewBox="0 0 32.000000 32.000000"
 preserveAspectRatio="xMidYMid meet">
<metadata>
Created by potrace 1.16, written by Peter Selinger 2001-2019
</metadata>
<g transform="translate(0.000000,32.000000) scale(0.100000,-0.100000)"
fill="#000000" stroke="none">
<path fill="#000000" stroke="none" d="M1 158 c1 -90 4 -152 6 -138 10 62 25
89 60 110 21 12 44 18 57 15 19 -5 19 -5 3 5 -10 7 -25 9 -32 6 -8 -3 -19 3
-25 14 -5 10 -20 20 -32 22 -14 2 -24 11 -26 24 -3 21 15 36 96 81 36 19 165
12 191 -11 21 -19 21 -19 21 7 l0 27 -160 0 -160 0 1 -162z"/>
<path fill="#000000" stroke="none" d="M126 288 c3 -4 -4 -8 -15 -8 -22 0 -90
-40 -91 -54 0 -5 13 -6 28 -3 15 3 34 1 42 -5 13 -8 12 -9 -2 -5 -9 3 -29 2
-45 -4 -27 -9 -27 -9 5 -4 18 3 31 1 28 -4 -8 -13 20 -33 49 -35 33 -1 29 -30
-5 -34 -49 -6 -79 -24 -89 -54 -14 -40 -14 -78 0 -78 6 0 8 9 4 20 -8 24 43
80 71 80 16 0 16 -1 -1 -14 -11 -8 -23 -13 -26 -10 -3 2 -4 -8 -1 -21 2 -14 8
-25 12 -25 5 0 6 8 3 18 -3 12 4 22 21 30 33 15 33 9 0 -34 -37 -48 -23 -54
22 -10 20 20 46 36 56 36 27 0 80 -28 100 -54 l17 -21 -6 23 c-3 12 -9 25 -14
27 -4 3 -5 13 -2 21 5 14 9 12 20 -7 10 -17 12 -18 7 -4 -3 11 -9 30 -11 41
-6 27 -44 48 -72 39 -29 -9 -16 -27 14 -19 17 4 26 0 33 -13 15 -26 0 -49 -18
-28 -7 8 -24 15 -39 15 -18 0 -22 3 -12 9 9 6 10 11 2 15 -6 4 -11 17 -11 30
0 12 -5 27 -11 33 -9 9 -7 11 8 7 11 -3 26 1 34 9 8 7 20 12 27 9 6 -2 12 0
12 5 0 17 -13 23 -25 13 -7 -6 -20 -7 -30 -4 -14 6 -8 11 26 21 49 14 75 16
44 3 -18 -8 -18 -9 5 -10 14 -2 18 -4 9 -7 -8 -2 -23 -17 -33 -33 -9 -17 -23
-30 -29 -29 -9 0 -9 2 1 6 6 2 12 9 12 14 0 5 -10 4 -22 -2 -14 -8 -18 -14
-10 -17 6 -2 10 -7 8 -11 -3 -4 8 -5 25 -3 16 2 29 0 29 -6 0 -5 9 -12 20 -15
18 -5 20 0 20 44 0 58 -22 106 -53 118 -29 11 -148 10 -141 -1z"/>
<path fill="#ffffff" stroke="none" d="M155 219 c-10 -15 -25 -10 -19 6 4 8
10 12 15 9 5 -3 7 -10 4 -15z"/>
<path fill="#000000" stroke="none" d="M250 95 c7 -8 16 -15 21 -15 5 0 6 7 3
15 -4 8 -13 15 -21 15 -13 0 -13 -3 -3 -15z"/>
<path fill="#000000" stroke="none" d="M51 52 c-7 -14 -6 -19 3 -19 6 0 13 9
13 19 1 10 0 18 -2 18 -2 0 -9 -8 -14 -18z"/>
<path fill="#000000" stroke="none" d="M160 45 c-8 -9 -8 -15 -2 -15 12 0 26
19 19 26 -2 2 -10 -2 -17 -11z"/>
<path fill="#000000" stroke="none" d="M190 51 c0 -6 4 -13 10 -16 6 -3 7 1 4
9 -7 18 -14 21 -14 7z"/>
<path fill="#000000" stroke="none" d="M131 14 c0 -11 3 -14 6 -6 3 7 2 16 -1
19 -3 4 -6 -2 -5 -13z"/>
<path fill="#000000" stroke="none" d="M239 13 c-13 -15 -12 -15 11 -3 34 17
36 20 18 20 -9 0 -22 -7 -29 -17z"/>
</g>
</svg>
