<?xml version="1.0" standalone="no"?>
<!DOCTYPE svg PUBLIC "-//W3C//DTD SVG 20010904//EN"
 "http://www.w3.org/TR/2001/REC-SVG-20010904/DTD/svg10.dtd">
<svg version="1.0" xmlns="http://www.w3.org/2000/svg"
 width="32.000000pt" height="32.000000pt" viewBox="0 0 32.000000 32.000000"
 preserveAspectRatio="xMidYMid meet">
<metadata>
Created by potrace 1.16, written by Peter Selinger 2001-2019
</metadata>
<g transform="translate(0.000000,32.000000) scale(0.100000,-0.100000)"
fill="#000000" stroke="none">
<path fill="#000000" stroke="none" d="M37 292 c-30 -32 -34 -54 -12 -72 8 -7
15 -19 15 -26 0 -7 11 -21 25 -30 18 -12 25 -25 25 -48 0 -18 6 -38 13 -45 10
-10 7 -17 -16 -35 -31 -25 -34 -36 -9 -36 13 0 14 2 3 9 -11 7 -9 10 7 15 12
4 27 22 34 42 12 34 28 46 28 22 1 -7 8 0 16 16 12 22 14 34 5 52 -8 18 -8 24
2 24 26 0 34 -17 32 -62 -2 -53 9 -56 19 -5 4 20 17 42 34 54 15 11 33 31 41
46 12 23 11 28 -14 61 -19 24 -35 35 -53 35 -15 0 -59 3 -97 6 -68 5 -72 4
-98 -23z"/>
<path fill="#ffffff" stroke="none" d="M198 296 c20 -12 14 -36 -12 -46 -13
-5 -27 -14 -31 -19 -10 -18 -25 -12 -19 7 5 14 4 15 -5 2 -8 -11 -7 -18 3 -25
17 -13 28 -107 12 -102 -6 2 -11 9 -11 15 0 5 -3 14 -7 18 -7 6 -13 -45 -9
-69 1 -5 -2 -6 -7 -3 -14 8 -21 130 -8 157 6 14 3 15 -28 5 -36 -11 -39 -32
-3 -22 14 3 17 2 9 -6 -6 -6 -8 -17 -5 -24 3 -8 -1 -14 -8 -14 -7 0 -9 3 -6 7
4 3 -3 17 -15 30 -29 32 -31 53 -6 80 19 20 30 22 83 20 34 -2 67 -7 73 -11z"/>
<path fill="#ffffff" stroke="none" d="M273 266 c30 -39 33 -46 15 -46 -6 0
-9 3 -5 6 9 9 -25 43 -38 37 -15 -5 -29 13 -20 27 10 16 18 12 48 -24z"/>
<path fill="#ffffff" stroke="none" d="M260 249 c0 -3 -21 -13 -47 -22 -27 -9
-37 -14 -23 -13 14 2 33 6 43 11 13 5 24 2 35 -9 16 -16 15 -19 -13 -41 -32
-27 -37 -26 -40 8 -2 12 -8 21 -15 19 -7 -1 -21 0 -32 4 -19 6 -19 6 -1 19 10
7 21 11 24 9 4 -2 9 2 12 9 4 12 57 18 57 6z"/>
<path fill="#000000" stroke="none" d="M240 189 c-22 -18 -22 -19 -3 -10 12 6
25 16 28 21 9 15 3 12 -25 -11z"/>
<path fill="#000000" stroke="none" d="M182 93 c0 -39 13 -59 48 -76 24 -12
36 -13 60 -4 25 9 30 17 30 44 0 23 -5 33 -15 33 -8 0 -15 -8 -15 -17 -1 -17
-1 -17 -14 0 -16 21 -36 22 -36 1 0 -26 -45 -13 -46 14 -2 33 -11 38 -12 5z"/>
<path fill="#000000" stroke="none" d="M126 21 c-3 -5 1 -11 9 -15 9 -3 15 0
15 9 0 16 -16 20 -24 6z"/>
<path fill="#000000" stroke="none" d="M170 8 c0 -4 14 -8 30 -8 17 0 30 2 30
4 0 2 -13 6 -30 8 -16 3 -30 1 -30 -4z"/>
</g>
</svg>
