<?xml version="1.0" standalone="no"?>
<!DOCTYPE svg PUBLIC "-//W3C//DTD SVG 20010904//EN"
 "http://www.w3.org/TR/2001/REC-SVG-20010904/DTD/svg10.dtd">
<svg version="1.0" xmlns="http://www.w3.org/2000/svg"
 width="32.000000pt" height="32.000000pt" viewBox="0 0 32.000000 32.000000"
 preserveAspectRatio="xMidYMid meet">
<metadata>
Created by potrace 1.16, written by Peter Selinger 2001-2019
</metadata>
<g transform="translate(0.000000,32.000000) scale(0.100000,-0.100000)"
fill="#000000" stroke="none">
<path fill="#000000" stroke="none" d="M133 293 c-25 -5 -29 -13 -13 -29 7 -7
6 -11 -5 -11 -8 0 -15 4 -15 8 0 5 -10 14 -22 20 -18 10 -24 8 -40 -11 -10
-12 -18 -27 -18 -34 0 -6 5 -3 11 7 10 18 12 18 35 -4 20 -19 29 -21 52 -13
15 6 26 16 24 23 -1 7 2 10 7 6 6 -3 8 -12 5 -19 -11 -28 50 -43 75 -19 15 16
15 16 -1 11 -9 -4 -24 0 -35 7 -10 8 -13 15 -7 15 7 0 9 11 6 25 -4 25 -12 27
-59 18z"/>
<path fill="#000000" stroke="none" d="M211 276 c-10 -12 -8 -17 9 -26 26 -14
44 -1 34 23 -8 21 -28 22 -43 3z"/>
<path fill="#000000" stroke="none" d="M250 220 c-6 -11 -7 -20 -3 -19 20 3
25 -2 14 -15 -9 -11 -8 -15 5 -20 24 -9 38 8 20 23 -8 7 -13 18 -10 26 9 22
-14 27 -26 5z"/>
<path fill="#000000" stroke="none" d="M61 207 c2 -2 18 -11 34 -21 l30 -17
-24 20 c-13 12 -28 21 -34 21 -6 0 -8 -1 -6 -3z"/>
<path fill="#000000" stroke="none" d="M139 163 c-13 -16 -12 -17 4 -4 9 7 17
15 17 17 0 8 -8 3 -21 -13z"/>
<path fill="#000000" stroke="none" d="M176 172 c-3 -5 1 -9 9 -9 8 0 12 4 9
9 -3 4 -7 8 -9 8 -2 0 -6 -4 -9 -8z"/>
<path fill="#000000" stroke="none" d="M101 83 c-7 -15 -7 -22 -1 -18 13 8 13
-20 -1 -48 -10 -21 -10 -21 5 -3 9 11 16 27 16 35 0 9 12 2 31 -19 17 -19 26
-27 19 -17 -7 9 -9 17 -4 17 5 0 2 4 -6 10 -8 5 -15 21 -15 36 -2 35 -29 40
-44 7z"/>
<path fill="#000000" stroke="none" d="M187 19 c7 -7 15 -10 18 -7 3 3 -2 9
-12 12 -14 6 -15 5 -6 -5z"/>
</g>
</svg>
