<?xml version="1.0" standalone="no"?>
<!DOCTYPE svg PUBLIC "-//W3C//DTD SVG 20010904//EN"
 "http://www.w3.org/TR/2001/REC-SVG-20010904/DTD/svg10.dtd">
<svg version="1.0" xmlns="http://www.w3.org/2000/svg"
 width="32.000000pt" height="32.000000pt" viewBox="0 0 32.000000 32.000000"
 preserveAspectRatio="xMidYMid meet">
<metadata>
Created by potrace 1.16, written by Peter Selinger 2001-2019
</metadata>
<g transform="translate(0.000000,32.000000) scale(0.100000,-0.100000)"
fill="#000000" stroke="none">
<path fill="#000000" stroke="none" d="M0 160 l0 -160 75 0 c62 0 73 2 69 15
-5 11 -2 13 10 9 9 -3 13 -10 10 -15 -3 -5 31 -9 75 -9 l81 0 0 160 0 160
-160 0 -160 0 0 -160z"/>
<path fill="#ffffff" stroke="none" d="M183 247 c-4 -6 -1 -7 7 -2 10 6 12 4
7 -9 -4 -10 -7 -22 -7 -27 0 -6 -6 -7 -12 -3 -9 5 -9 3 1 -9 7 -9 17 -14 22
-11 5 3 6 -2 3 -10 -5 -12 -10 -13 -26 -5 -14 7 -23 7 -32 -1 -20 -16 -27 11
-10 35 16 22 18 39 4 30 -5 -3 -10 1 -10 10 0 10 -5 13 -12 9 -16 -9 9 25 31
43 12 10 17 8 28 -13 7 -14 10 -31 6 -37z"/>
<path fill="#ffffff" stroke="none" d="M110 206 c0 -2 -8 -10 -17 -17 -16 -13
-17 -12 -4 4 13 16 21 21 21 13z"/>
<path fill="#ffffff" stroke="none" d="M97 136 c-10 -8 -14 -17 -9 -20 5 -3
15 1 22 9 9 11 16 12 25 5 9 -8 14 -8 17 0 2 6 20 12 40 13 26 2 35 0 31 -10
-3 -7 -9 -10 -14 -7 -5 3 -9 0 -9 -5 0 -6 5 -11 12 -11 6 0 9 -3 5 -6 -3 -3
-25 -7 -49 -7 -32 -1 -42 2 -40 12 3 12 0 12 -12 1 -13 -10 -19 -10 -32 1 -14
12 -14 14 2 26 10 7 20 13 23 13 3 0 -2 -7 -12 -14z"/>
<path fill="#ffffff" stroke="none" d="M80 85 c0 -1 -6 -7 -13 -13 -10 -8 -13
-6 -13 7 0 11 6 17 13 14 7 -3 13 -6 13 -8z"/>
<path fill="#ffffff" stroke="none" d="M237 93 c-4 -3 -1 -13 6 -21 11 -13 9
-14 -10 -1 -16 9 -19 16 -10 21 15 9 23 10 14 1z"/>
<path fill="#ffffff" stroke="none" d="M178 65 c38 3 41 1 25 -10 -18 -14 -68
-10 -89 6 -6 5 -15 5 -19 1 -5 -4 -5 -1 -1 6 5 8 13 9 24 3 9 -5 36 -8 60 -6z"/>
</g>
</svg>
