<?xml version="1.0" standalone="no"?>
<!DOCTYPE svg PUBLIC "-//W3C//DTD SVG 20010904//EN"
 "http://www.w3.org/TR/2001/REC-SVG-20010904/DTD/svg10.dtd">
<svg version="1.0" xmlns="http://www.w3.org/2000/svg"
 width="32.000000pt" height="32.000000pt" viewBox="0 0 32.000000 32.000000"
 preserveAspectRatio="xMidYMid meet">
<metadata>
Created by potrace 1.16, written by Peter Selinger 2001-2019
</metadata>
<g transform="translate(0.000000,32.000000) scale(0.100000,-0.100000)"
fill="#000000" stroke="none">
<path fill="#000000" stroke="none" d="M0 160 l0 -161 40 3 c22 1 38 4 35 6
-2 3 8 20 22 38 19 25 21 33 9 28 -12 -5 -19 0 -23 14 -3 15 -12 21 -27 19
-18 -2 -21 4 -24 38 -2 22 -8 44 -13 49 -14 16 -11 80 7 102 14 18 15 18 4 -4
-16 -33 -6 -38 21 -11 22 22 22 23 3 30 -54 21 -54 22 -54 -151z"/>
<path fill="#000000" stroke="none" d="M130 300 c33 -25 72 -25 88 0 12 19 10
20 -50 20 l-63 0 25 -20z"/>
<path fill="#000000" stroke="none" d="M290 316 c0 -2 7 -9 15 -16 12 -10 15
-10 15 4 0 9 -7 16 -15 16 -8 0 -15 -2 -15 -4z"/>
<path fill="#000000" stroke="none" d="M231 296 c-9 -10 -8 -16 3 -25 10 -9
16 -8 25 3 9 10 8 16 -3 25 -10 9 -16 8 -25 -3z"/>
<path fill="#000000" stroke="none" d="M150 256 c4 -4 16 -4 26 2 16 9 14 10
-8 9 -15 -1 -23 -6 -18 -11z"/>
<path fill="#000000" stroke="none" d="M283 259 c-6 -6 -9 -18 -6 -25 4 -12 8
-12 22 -2 14 11 14 11 3 -4 -10 -12 -11 -22 -3 -37 14 -25 14 -78 1 -86 -6 -4
-7 1 -3 12 4 13 3 15 -6 7 -14 -13 -4 -44 15 -44 21 0 20 158 -1 166 -8 4 -12
10 -9 15 7 12 0 11 -13 -2z"/>
<path fill="#000000" stroke="none" d="M64 239 c-13 -14 -13 -18 0 -28 9 -8
24 -10 38 -5 13 4 26 7 29 6 3 0 4 10 2 22 -6 28 -46 31 -69 5z"/>
<path fill="#ffffff" stroke="none" d="M90 246 c0 -2 -8 -10 -17 -17 -16 -13
-17 -12 -4 4 13 16 21 21 21 13z"/>
<path fill="#000000" stroke="none" d="M199 233 c-13 -16 -12 -17 4 -4 16 13
21 21 13 21 -2 0 -10 -8 -17 -17z"/>
<path fill="#000000" stroke="none" d="M151 206 c-9 -10 -8 -15 4 -20 10 -4
15 1 15 14 0 24 -4 25 -19 6z"/>
<path fill="#000000" stroke="none" d="M205 200 c-11 -19 5 -30 25 -18 14 9
16 14 7 20 -16 10 -25 10 -32 -2z"/>
<path fill="#000000" stroke="none" d="M83 175 c-9 -25 2 -27 22 -5 17 18 17
20 1 20 -9 0 -19 -7 -23 -15z"/>
<path fill="#000000" stroke="none" d="M268 144 c-18 -34 -18 -34 2 -24 12 6
20 21 20 35 0 32 -2 31 -22 -11z"/>
<path fill="#000000" stroke="none" d="M131 133 c-13 -13 -20 -23 -14 -23 11
0 49 38 42 43 -2 2 -15 -7 -28 -20z"/>
<path fill="#000000" stroke="none" d="M157 98 c-8 -27 9 -31 26 -5 13 21 13
23 -4 23 -10 0 -20 -8 -22 -18z"/>
<path fill="#000000" stroke="none" d="M212 78 c-19 -19 -14 -30 8 -18 11 6
20 15 20 20 0 14 -14 12 -28 -2z"/>
<path fill="#000000" stroke="none" d="M250 81 c0 -5 5 -13 10 -16 6 -3 10 -2
10 4 0 5 -4 13 -10 16 -5 3 -10 2 -10 -4z"/>
<path fill="#000000" stroke="none" d="M106 35 c-19 -28 -15 -32 8 -9 14 13
16 14 16 0 0 -8 4 -17 9 -20 4 -3 6 6 3 19 -6 36 -17 39 -36 10z"/>
<path fill="#000000" stroke="none" d="M250 20 c-15 -15 -13 -16 17 -16 18 0
28 3 22 7 -6 4 -14 11 -18 16 -3 5 -13 2 -21 -7z"/>
</g>
</svg>
