<?xml version="1.0" standalone="no"?>
<!DOCTYPE svg PUBLIC "-//W3C//DTD SVG 20010904//EN"
 "http://www.w3.org/TR/2001/REC-SVG-20010904/DTD/svg10.dtd">
<svg version="1.0" xmlns="http://www.w3.org/2000/svg"
 width="31.000000pt" height="32.000000pt" viewBox="0 0 31.000000 32.000000"
 preserveAspectRatio="xMidYMid meet">
<metadata>
Created by potrace 1.16, written by Peter Selinger 2001-2019
</metadata>
<g transform="translate(0.000000,32.000000) scale(0.100000,-0.100000)"
fill="#000000" stroke="none">
<path fill="#000000" stroke="none" d="M0 160 l0 -160 33 0 c22 0 42 10 64 31
33 30 46 53 18 29 -13 -11 -15 -6 -15 38 0 31 -5 52 -12 55 -10 3 -8 10 5 23
16 18 17 17 17 -24 0 -23 0 -45 1 -49 1 -15 21 -33 29 -28 5 3 12 0 16 -6 4
-8 3 -9 -4 -5 -16 10 -15 -25 2 -46 10 -14 28 -18 85 -18 l71 0 0 160 0 160
-155 0 -155 0 0 -160z"/>
<path fill="#ffffff" stroke="none" d="M158 290 c22 -11 47 -20 55 -20 13 0
57 -83 57 -107 0 -21 -29 -21 -56 0 -16 12 -25 16 -21 10 9 -14 -9 -27 -23
-18 -8 5 -8 11 0 19 7 10 5 20 -10 39 -11 14 -20 37 -20 50 0 46 -17 38 -24
-12 -5 -37 -12 -51 -31 -61 -18 -10 -22 -17 -16 -29 14 -23 -6 -56 -24 -41
-10 9 -11 18 -4 37 8 22 7 24 -4 15 -8 -7 -17 -9 -20 -5 -14 13 -6 35 20 59
15 14 19 22 10 18 -24 -9 -22 15 5 43 26 28 52 29 106 3z"/>
<path fill="#ffffff" stroke="none" d="M162 191 c2 -7 -4 -15 -13 -16 -12 -2
-16 6 -17 28 -1 26 1 28 13 16 8 -8 15 -20 17 -28z"/>
<path fill="#ffffff" stroke="none" d="M190 118 c0 -15 -30 -21 -45 -8 -11 9
-12 17 -4 32 10 19 11 19 30 2 10 -9 19 -21 19 -26z"/>
<path fill="#ffffff" stroke="none" d="M235 138 c29 -13 32 -23 9 -32 -19 -7
-57 21 -48 35 7 11 8 11 39 -3z"/>
<path fill="#000000" stroke="none" d="M97 17 c-3 -8 4 -14 19 -15 27 -2 32
13 8 22 -21 8 -21 8 -27 -7z"/>
</g>
</svg>
