<?xml version="1.0" standalone="no"?>
<!DOCTYPE svg PUBLIC "-//W3C//DTD SVG 20010904//EN"
 "http://www.w3.org/TR/2001/REC-SVG-20010904/DTD/svg10.dtd">
<svg version="1.0" xmlns="http://www.w3.org/2000/svg"
 width="32.000000pt" height="32.000000pt" viewBox="0 0 32.000000 32.000000"
 preserveAspectRatio="xMidYMid meet">
<metadata>
Created by potrace 1.16, written by Peter Selinger 2001-2019
</metadata>
<g transform="translate(0.000000,32.000000) scale(0.100000,-0.100000)"
fill="#000000" stroke="none">
<path fill="#000000" stroke="none" d="M152 300 c-18 -4 -42 -16 -54 -26 -20
-19 -21 -19 -13 5 5 17 4 22 -6 19 -41 -13 -52 -121 -19 -176 26 -42 26 -78 0
-92 -11 -6 -20 -16 -19 -23 0 -9 2 -9 6 1 2 6 9 12 14 12 6 0 7 -5 3 -11 -3
-6 8 -4 24 5 30 16 49 60 41 97 -2 8 5 27 15 42 11 15 25 56 31 90 l13 62 1
-55 c0 -30 -5 -67 -13 -82 -9 -17 -11 -28 -4 -30 6 -2 10 -17 10 -33 0 -36 35
-77 58 -70 9 3 28 -4 42 -15 23 -17 27 -18 32 -4 3 9 6 29 6 45 0 22 -5 29
-19 29 -11 0 -23 -5 -26 -10 -3 -6 -11 -10 -16 -10 -6 0 3 13 19 29 16 17 32
44 36 62 9 46 7 99 -3 99 -5 0 -8 -6 -8 -12 3 -32 -16 -98 -35 -118 -11 -12
-22 -20 -24 -18 -1 2 10 32 26 65 l30 62 -21 36 c-24 41 -36 44 -48 13 l-8
-22 -12 22 c-6 12 -15 22 -19 21 -4 -1 -22 -5 -40 -9z"/>
<path fill="#ffffff" stroke="none" d="M266 221 c-4 -14 -9 -37 -11 -50 -2
-13 -9 -27 -16 -31 -8 -5 -10 -21 -6 -44 3 -20 2 -36 -2 -36 -4 0 -8 19 -10
42 -1 23 -5 46 -8 51 -3 4 5 19 17 32 19 20 22 31 16 72 l-6 48 16 -29 c10
-17 13 -38 10 -55z"/>
<path fill="#ffffff" stroke="none" d="M69 250 c-7 -30 -5 -49 5 -75 17 -40 5
-57 -13 -19 -14 31 -14 74 -1 108 14 39 19 31 9 -14z"/>
<path fill="#ffffff" stroke="none" d="M166 259 c-3 -17 -6 -39 -6 -49 0 -9
-11 -34 -25 -54 -17 -26 -25 -50 -25 -81 0 -25 -2 -45 -4 -45 -2 0 -13 -3 -23
-7 -15 -6 -16 -4 -6 8 16 19 18 117 4 153 -6 16 -9 37 -6 47 8 25 53 59 78 59
17 0 19 -5 13 -31z"/>
<path fill="#ffffff" stroke="none" d="M240 225 c0 -12 -9 -30 -20 -40 -11
-10 -20 -32 -21 -49 -1 -30 -1 -30 -8 -6 -4 14 -4 35 1 48 4 13 8 42 8 64 0
40 0 41 20 23 11 -10 20 -28 20 -40z"/>
<path fill="#ffffff" stroke="none" d="M300 142 c0 -12 -39 -52 -51 -52 -6 0
2 13 18 30 31 32 33 34 33 22z"/>
<path fill="#ffffff" stroke="none" d="M207 85 c0 -8 -4 -12 -9 -9 -4 3 -8 9
-8 15 0 5 4 9 8 9 5 0 9 -7 9 -15z"/>
<path fill="#000000" stroke="none" d="M225 160 c-3 -6 1 -7 9 -4 18 7 21 14
7 14 -6 0 -13 -4 -16 -10z"/>
<path fill="#000000" stroke="none" d="M178 18 c6 -6 22 -13 34 -15 22 -3 22
-2 -2 12 -30 17 -48 19 -32 3z"/>
<path fill="#000000" stroke="none" d="M135 10 c-19 -8 -19 -9 3 -9 12 -1 22
4 22 9 0 6 -1 10 -2 9 -2 0 -12 -4 -23 -9z"/>
<path fill="#000000" stroke="none" d="M245 10 c3 -5 10 -10 16 -10 5 0 9 5 9
10 0 6 -7 10 -16 10 -8 0 -12 -4 -9 -10z"/>
</g>
</svg>
