<?xml version="1.0" standalone="no"?>
<!DOCTYPE svg PUBLIC "-//W3C//DTD SVG 20010904//EN"
 "http://www.w3.org/TR/2001/REC-SVG-20010904/DTD/svg10.dtd">
<svg version="1.0" xmlns="http://www.w3.org/2000/svg"
 width="32.000000pt" height="32.000000pt" viewBox="0 0 32.000000 32.000000"
 preserveAspectRatio="xMidYMid meet">
<metadata>
Created by potrace 1.16, written by Peter Selinger 2001-2019
</metadata>
<g transform="translate(0.000000,32.000000) scale(0.100000,-0.100000)"
fill="#000000" stroke="none">
<path fill="#000000" stroke="none" d="M122 290 c-18 -4 -41 -6 -50 -4 -22 5
-35 -5 -50 -40 -11 -24 -11 -31 0 -37 7 -4 15 -4 18 1 3 5 11 0 18 -10 7 -12
8 -20 2 -20 -5 0 -10 5 -10 11 0 5 -4 7 -10 4 -5 -3 -10 -15 -10 -25 0 -23 38
-37 54 -20 8 10 8 11 -1 6 -6 -3 -15 -1 -19 6 -4 7 -3 10 1 5 5 -4 19 0 31 8
17 11 25 12 30 3 4 -7 3 -8 -4 -4 -7 4 -12 2 -12 -3 0 -6 0 -14 0 -18 0 -5 8
-9 18 -9 9 -1 23 -2 30 -3 7 -1 10 -6 6 -12 -3 -6 -9 -7 -13 -3 -8 12 -51 13
-51 2 0 -5 -3 -7 -7 -5 -5 3 -9 -14 -11 -36 -1 -28 -9 -48 -23 -59 -24 -21
-21 -22 16 -8 24 9 26 8 21 -7 -6 -14 -5 -16 5 -5 15 14 55 16 63 3 3 -5 16
-7 27 -4 21 6 21 6 -4 20 -42 22 -53 51 -30 82 11 14 28 26 39 27 60 3 61 3
29 24 -16 11 -25 20 -18 20 6 0 15 -4 18 -10 8 -13 72 -13 80 0 3 6 -1 13 -9
16 -9 3 -16 11 -16 17 0 6 -8 28 -17 49 -14 32 -21 38 -40 34 -12 -4 -25 -2
-28 4 -7 11 -25 11 -73 0z"/>
<path fill="#ffffff" stroke="none" d="M188 167 c6 -5 12 -13 12 -17 0 -13
-30 -7 -45 10 -14 15 -13 17 2 17 10 0 24 -4 31 -10z"/>
</g>
</svg>
