<?xml version="1.0" standalone="no"?>
<!DOCTYPE svg PUBLIC "-//W3C//DTD SVG 20010904//EN"
 "http://www.w3.org/TR/2001/REC-SVG-20010904/DTD/svg10.dtd">
<svg version="1.0" xmlns="http://www.w3.org/2000/svg"
 width="32.000000pt" height="32.000000pt" viewBox="0 0 32.000000 32.000000"
 preserveAspectRatio="xMidYMid meet">
<metadata>
Created by potrace 1.16, written by Peter Selinger 2001-2019
</metadata>
<g transform="translate(0.000000,32.000000) scale(0.100000,-0.100000)"
fill="#000000" stroke="none">
<path fill="#000000" stroke="none" d="M142 294 c-6 -11 -11 -13 -16 -5 -12
19 -69 12 -100 -13 l-29 -24 17 -36 c9 -20 21 -36 26 -36 4 0 6 -9 3 -20 -4
-14 4 -29 21 -47 23 -23 30 -25 46 -15 11 6 22 8 25 3 9 -16 -6 -40 -41 -62
-55 -34 -43 -41 69 -36 152 7 151 7 155 45 l3 33 -38 -7 c-21 -4 -41 -11 -44
-16 -8 -13 -21 21 -13 34 4 5 1 21 -7 34 -17 33 -4 41 32 20 37 -22 45 -15 53
47 7 43 5 48 -16 56 -13 5 -32 18 -43 30 -13 15 -26 20 -41 17 -13 -4 -26 -2
-29 4 -9 15 -23 12 -33 -6z"/>
</g>
</svg>
