<?xml version="1.0" standalone="no"?>
<!DOCTYPE svg PUBLIC "-//W3C//DTD SVG 20010904//EN"
 "http://www.w3.org/TR/2001/REC-SVG-20010904/DTD/svg10.dtd">
<svg version="1.0" xmlns="http://www.w3.org/2000/svg"
 width="32.000000pt" height="32.000000pt" viewBox="0 0 32.000000 32.000000"
 preserveAspectRatio="xMidYMid meet">
<metadata>
Created by potrace 1.16, written by Peter Selinger 2001-2019
</metadata>
<g transform="translate(0.000000,32.000000) scale(0.100000,-0.100000)"
fill="#000000" stroke="none">
<path fill="#000000" stroke="none" d="M75 296 c-28 -12 -29 -13 -10 -23 11
-6 32 -9 48 -7 15 1 25 -1 22 -6 -3 -5 9 -2 26 7 22 11 28 18 20 26 -16 16
-71 17 -106 3z"/>
<path fill="#000000" stroke="none" d="M183 257 c-14 -22 -13 -39 2 -27 9 8
15 8 20 0 3 -5 11 -10 16 -10 6 0 7 4 4 10 -3 5 0 7 8 4 8 -3 18 -1 22 5 3 6
5 11 3 11 -2 0 -18 4 -35 9 -23 7 -35 6 -40 -2z"/>
<path fill="#000000" stroke="none" d="M46 221 c-15 -16 -24 -31 -19 -34 15
-9 36 10 28 23 -5 8 -4 11 3 6 6 -3 13 -2 17 4 4 6 12 7 18 3 7 -4 6 0 -2 10
-7 9 -14 17 -15 17 -1 0 -15 -13 -30 -29z"/>
<path fill="#000000" stroke="none" d="M139 233 c-13 -16 -12 -17 4 -4 9 7 17
15 17 17 0 8 -8 3 -21 -13z"/>
<path fill="#000000" stroke="none" d="M113 180 c8 -19 12 -52 11 -72 -2 -21
1 -38 5 -38 5 0 5 -16 1 -35 -7 -30 -5 -35 10 -35 16 0 18 7 14 52 -3 29 -7
55 -10 57 -2 2 3 15 11 28 12 17 12 23 3 21 -14 -3 -14 5 -2 37 8 19 7 19 -10
2 -18 -17 -19 -17 -32 0 -13 16 -13 13 -1 -17z"/>
<path fill="#000000" stroke="none" d="M200 165 c0 -7 30 -13 34 -7 3 4 -4 9
-15 9 -10 1 -19 0 -19 -2z"/>
</g>
</svg>
