<?xml version="1.0" standalone="no"?>
<!DOCTYPE svg PUBLIC "-//W3C//DTD SVG 20010904//EN"
 "http://www.w3.org/TR/2001/REC-SVG-20010904/DTD/svg10.dtd">
<svg version="1.0" xmlns="http://www.w3.org/2000/svg"
 width="32.000000pt" height="32.000000pt" viewBox="0 0 32.000000 32.000000"
 preserveAspectRatio="xMidYMid meet">
<metadata>
Created by potrace 1.16, written by Peter Selinger 2001-2019
</metadata>
<g transform="translate(0.000000,32.000000) scale(0.100000,-0.100000)"
fill="#000000" stroke="none">
<path fill="#000000" stroke="none" d="M40 246 c19 -51 51 -106 61 -106 6 0 9
-12 7 -27 -2 -19 -11 -29 -35 -37 -33 -11 -62 -41 -63 -63 0 -7 5 -13 10 -13
6 0 10 6 9 12 -4 25 13 47 41 53 42 9 53 28 45 75 -4 22 -10 38 -14 36 -4 -3
-17 16 -29 42 -15 30 -17 40 -6 27 l16 -20 -4 20 c-2 12 -13 21 -26 23 -20 3
-21 1 -12 -22z"/>
<path fill="#000000" stroke="none" d="M133 251 c-4 -16 -9 -19 -18 -11 -19
16 -40 -14 -26 -37 9 -16 10 -14 11 11 l0 29 25 -23 c14 -13 23 -30 20 -38 -4
-12 -3 -13 10 -2 8 7 12 17 8 24 -4 8 -3 8 6 0 7 -6 13 -21 14 -33 1 -20 3
-20 13 -6 10 13 8 25 -9 58 -26 47 -46 58 -54 28z"/>
<path fill="#ffffff" stroke="none" d="M159 242 c8 -14 5 -18 -11 -19 -15 -2
-17 1 -9 11 6 7 8 16 4 19 -3 4 -3 7 0 7 3 0 11 -8 16 -18z"/>
<path fill="#000000" stroke="none" d="M219 218 c-5 -9 -10 -70 -10 -107 0
-36 6 -49 33 -75 28 -26 37 -30 56 -21 15 7 22 18 22 37 0 25 -2 26 -39 23
-33 -3 -40 -1 -49 21 -9 19 -8 31 5 58 16 34 13 66 -7 66 -5 0 -11 -1 -11 -2z"/>
<path fill="#ffffff" stroke="none" d="M225 153 c-9 -16 -13 -19 -9 -8 4 11 7
31 7 45 -1 20 0 21 8 7 7 -11 5 -25 -6 -44z"/>
<path fill="#000000" stroke="none" d="M190 53 c0 -13 50 -56 57 -49 3 3 0 6
-8 6 -11 0 -11 2 1 10 13 8 13 10 -2 10 -9 0 -24 7 -32 16 -9 8 -16 12 -16 7z"/>
<path fill="#000000" stroke="none" d="M45 31 c-4 -7 1 -8 12 -4 15 6 16 4 6
-8 -10 -13 -10 -16 2 -16 8 0 15 7 15 16 1 14 2 14 13 1 17 -21 36 -22 33 -2
-3 19 -70 30 -81 13z"/>
<path fill="#000000" stroke="none" d="M178 8 c5 -5 16 -8 23 -6 8 3 3 7 -10
11 -17 4 -21 3 -13 -5z"/>
</g>
</svg>
