<?xml version="1.0" standalone="no"?>
<!DOCTYPE svg PUBLIC "-//W3C//DTD SVG 20010904//EN"
 "http://www.w3.org/TR/2001/REC-SVG-20010904/DTD/svg10.dtd">
<svg version="1.0" xmlns="http://www.w3.org/2000/svg"
 width="32.000000pt" height="32.000000pt" viewBox="0 0 32.000000 32.000000"
 preserveAspectRatio="xMidYMid meet">
<metadata>
Created by potrace 1.16, written by Peter Selinger 2001-2019
</metadata>
<g transform="translate(0.000000,32.000000) scale(0.100000,-0.100000)"
fill="#000000" stroke="none">
<path fill="#000000" stroke="none" d="M68 298 c-38 -18 -68 -61 -68 -97 0
-24 44 -60 82 -68 16 -3 31 -10 34 -15 3 -4 0 -7 -8 -6 -8 2 -14 -7 -15 -22 0
-14 -1 -30 -2 -36 -1 -7 -10 -14 -22 -17 -12 -3 -19 -12 -17 -19 3 -10 36 -14
123 -16 127 -3 145 3 145 45 0 22 -4 25 -30 21 -33 -5 -47 14 -24 32 19 16 18
42 -3 79 -19 32 -16 41 14 45 11 2 18 11 18 26 0 59 -143 89 -227 48z"/>
<path fill="#ffffff" stroke="none" d="M242 285 c42 -28 43 -30 26 -41 -7 -4
-8 -3 -4 4 9 15 1 15 -26 1 -11 -6 -31 -8 -45 -4 -20 5 -22 9 -13 20 9 11 4
11 -34 0 -28 -9 -48 -10 -51 -4 -4 5 -11 9 -18 9 -8 0 -8 -3 1 -12 20 -20 14
-37 -10 -31 -23 5 -23 5 -3 -10 20 -16 20 -16 -2 -39 -18 -17 -25 -20 -35 -10
-32 32 -11 96 41 120 58 28 128 27 173 -3z"/>
<path fill="#ffffff" stroke="none" d="M104 169 c-3 -5 -10 -7 -15 -3 -5 3 -7
10 -3 15 3 5 10 7 15 3 5 -3 7 -10 3 -15z"/>
<path fill="#ffffff" stroke="none" d="M202 172 c3 8 6 9 11 1 4 -6 -2 -22
-13 -34 -14 -17 -18 -19 -14 -6 3 9 0 25 -7 35 -13 15 -12 16 3 4 13 -10 17
-10 20 0z"/>
<path fill="#ffffff" stroke="none" d="M264 135 c2 -7 -3 -19 -12 -27 -11 -9
-14 -10 -8 0 4 6 3 12 -3 12 -5 0 -9 9 -8 19 1 20 22 18 31 -4z"/>
<path fill="#ffffff" stroke="none" d="M175 130 c-3 -5 -1 -11 5 -15 7 -4 7
-13 0 -26 -6 -11 -8 -24 -5 -29 3 -5 1 -11 -4 -14 -5 -4 -13 -1 -16 4 -5 8
-12 7 -23 -3 -10 -8 -28 -20 -42 -26 l-25 -12 26 23 c14 13 34 28 45 34 10 6
19 23 20 40 2 43 3 46 14 39 6 -4 8 -10 5 -15z"/>
<path fill="#ffffff" stroke="none" d="M150 101 c0 -12 -20 -25 -27 -18 -7 7
6 27 18 27 5 0 9 -4 9 -9z"/>
<path fill="#ffffff" stroke="none" d="M220 86 c0 -3 -4 -8 -10 -11 -5 -3 -10
-1 -10 4 0 6 5 11 10 11 6 0 10 -2 10 -4z"/>
<path fill="#ffffff" stroke="none" d="M240 60 c0 -13 -28 -25 -38 -16 -3 4 0
11 8 16 20 13 30 12 30 0z"/>
<path fill="#ffffff" stroke="none" d="M185 20 c-3 -5 -14 -10 -23 -10 -15 0
-15 2 -2 10 20 13 33 13 25 0z"/>
<path fill="#000000" stroke="none" d="M27 179 c7 -7 15 -10 18 -7 3 3 -2 9
-12 12 -14 6 -15 5 -6 -5z"/>
</g>
</svg>
