<?xml version="1.0" standalone="no"?>
<!DOCTYPE svg PUBLIC "-//W3C//DTD SVG 20010904//EN"
 "http://www.w3.org/TR/2001/REC-SVG-20010904/DTD/svg10.dtd">
<svg version="1.0" xmlns="http://www.w3.org/2000/svg"
 width="32.000000pt" height="32.000000pt" viewBox="0 0 32.000000 32.000000"
 preserveAspectRatio="xMidYMid meet">
<metadata>
Created by potrace 1.16, written by Peter Selinger 2001-2019
</metadata>
<g transform="translate(0.000000,32.000000) scale(0.100000,-0.100000)"
fill="#000000" stroke="none">
<path fill="#000000" stroke="none" d="M105 309 c-4 -6 -14 -8 -23 -4 -16 6
-62 -30 -62 -49 0 -5 10 -20 22 -33 21 -22 21 -23 3 -43 -22 -24 -13 -48 23
-65 13 -6 22 -19 22 -32 0 -16 6 -23 20 -23 24 0 26 -13 5 -30 -29 -24 -14
-30 73 -30 116 0 134 6 130 39 -3 22 -8 26 -41 29 -28 2 -42 -2 -51 -14 -18
-24 -40 -10 -24 15 6 11 17 17 23 15 15 -6 68 51 63 67 -2 7 4 21 14 31 27 27
22 41 -33 87 -45 39 -52 42 -67 28 -18 -15 -53 -9 -67 12 -8 14 -22 14 -30 0z"/>
<path fill="#ffffff" stroke="none" d="M120 290 c0 -5 -5 -10 -11 -10 -5 0 -7
5 -4 10 3 6 8 10 11 10 2 0 4 -4 4 -10z"/>
<path fill="#ffffff" stroke="none" d="M70 270 c0 -5 -5 -10 -11 -10 -5 0 -7
5 -4 10 3 6 8 10 11 10 2 0 4 -4 4 -10z"/>
<path fill="#ffffff" stroke="none" d="M162 245 c3 3 8 -3 11 -15 6 -24 -2
-30 -28 -19 -11 4 -14 8 -7 8 6 1 12 6 12 12 0 5 -4 8 -8 5 -5 -3 -9 1 -9 9 0
10 4 12 12 5 7 -5 14 -7 17 -5z"/>
<path fill="#ffffff" stroke="none" d="M280 230 c0 -5 -5 -10 -11 -10 -5 0 -7
5 -4 10 3 6 8 10 11 10 2 0 4 -4 4 -10z"/>
<path fill="#ffffff" stroke="none" d="M100 185 c14 -19 14 -19 -2 -6 -10 7
-18 18 -18 24 0 6 1 8 3 6 1 -2 9 -13 17 -24z"/>
<path fill="#ffffff" stroke="none" d="M70 164 c0 -8 -5 -12 -10 -9 -6 4 -8
11 -5 16 9 14 15 11 15 -7z"/>
<path fill="#ffffff" stroke="none" d="M233 165 c9 -21 -9 -27 -24 -8 -10 12
-10 14 -1 9 6 -4 12 -2 12 3 0 16 7 13 13 -4z"/>
</g>
</svg>
