<?xml version="1.0" standalone="no"?>
<!DOCTYPE svg PUBLIC "-//W3C//DTD SVG 20010904//EN"
 "http://www.w3.org/TR/2001/REC-SVG-20010904/DTD/svg10.dtd">
<svg version="1.0" xmlns="http://www.w3.org/2000/svg"
 width="32.000000pt" height="32.000000pt" viewBox="0 0 32.000000 32.000000"
 preserveAspectRatio="xMidYMid meet">
<metadata>
Created by potrace 1.16, written by Peter Selinger 2001-2019
</metadata>
<g transform="translate(0.000000,32.000000) scale(0.100000,-0.100000)"
fill="#000000" stroke="none">
<path fill="#000000" stroke="none" d="M0 285 c0 -23 5 -35 14 -35 7 0 19 -7
26 -15 15 -18 -1 -20 -18 -3 -14 14 -25 -9 -20 -44 2 -18 9 -23 31 -21 16 1
25 -2 22 -8 -4 -5 -12 -9 -18 -8 -32 4 -38 -2 -35 -33 3 -29 6 -33 31 -31 16
1 25 -2 22 -8 -4 -5 -12 -9 -18 -8 -30 4 -37 -3 -37 -36 l0 -35 160 0 160 0 0
161 0 160 -37 -3 c-29 -2 -37 -7 -35 -20 1 -9 -3 -20 -9 -24 -7 -4 -9 -3 -6 4
13 20 -5 42 -34 42 -27 0 -35 -11 -30 -42 0 -5 -4 -8 -9 -8 -6 0 -10 6 -9 13
4 29 -3 37 -31 37 -19 0 -30 -5 -30 -14 0 -15 -29 -30 -39 -20 -3 4 0 9 7 11
25 9 11 23 -23 23 -33 0 -35 -2 -35 -35z"/>
<path fill="#ffffff" stroke="none" d="M120 255 c11 -13 10 -14 -4 -9 -9 3
-16 10 -16 15 0 13 6 11 20 -6z"/>
<path fill="#ffffff" stroke="none" d="M214 242 c3 -5 -1 -9 -9 -9 -8 0 -12 4
-9 9 3 4 7 8 9 8 2 0 6 -4 9 -8z"/>
<path fill="#ffffff" stroke="none" d="M74 194 c3 -8 2 -12 -4 -9 -6 3 -10 10
-10 16 0 14 7 11 14 -7z"/>
<path fill="#ffffff" stroke="none" d="M244 194 c3 -8 2 -12 -4 -9 -6 3 -10
10 -10 16 0 14 7 11 14 -7z"/>
<path fill="#ffffff" stroke="none" d="M90 118 c0 -12 -3 -18 -7 -14 -11 10
-12 36 -2 36 5 0 9 -10 9 -22z"/>
</g>
</svg>
