<?xml version="1.0" standalone="no"?>
<!DOCTYPE svg PUBLIC "-//W3C//DTD SVG 20010904//EN"
 "http://www.w3.org/TR/2001/REC-SVG-20010904/DTD/svg10.dtd">
<svg version="1.0" xmlns="http://www.w3.org/2000/svg"
 width="32.000000pt" height="32.000000pt" viewBox="0 0 32.000000 32.000000"
 preserveAspectRatio="xMidYMid meet">
<metadata>
Created by potrace 1.16, written by Peter Selinger 2001-2019
</metadata>
<g transform="translate(0.000000,32.000000) scale(0.100000,-0.100000)"
fill="#000000" stroke="none">
<path fill="#000000" stroke="none" d="M0 286 c0 -33 20 -53 40 -41 5 3 12 0
15 -6 5 -7 -2 -10 -21 -7 l-29 3 0 -75 0 -75 28 2 c15 1 25 -2 22 -7 -4 -6
-17 -10 -31 -10 -21 0 -24 -5 -24 -35 l0 -35 160 0 160 0 0 161 0 160 -37 -3
c-27 -2 -37 -7 -35 -18 2 -11 -1 -11 -11 3 -11 13 -29 17 -81 17 -59 0 -66 -2
-66 -20 0 -11 -4 -20 -10 -20 -5 0 -10 9 -10 20 0 16 -7 20 -35 20 -33 0 -35
-2 -35 -34z"/>
<path fill="#ffffff" stroke="none" d="M130 244 c0 -8 -19 -13 -24 -6 -3 5 1
9 9 9 8 0 15 -2 15 -3z"/>
<path fill="#ffffff" stroke="none" d="M285 240 c3 -6 -1 -7 -9 -4 -18 7 -21
14 -7 14 6 0 13 -4 16 -10z"/>
<path fill="#ffffff" stroke="none" d="M220 195 c-7 -9 -15 -13 -19 -10 -3 3
1 10 9 15 21 14 24 12 10 -5z"/>
<path fill="#ffffff" stroke="none" d="M90 126 c0 -8 -4 -17 -9 -21 -6 -3 -9
4 -8 15 1 23 17 28 17 6z"/>
<path fill="#ffffff" stroke="none" d="M257 129 c-9 -6 -14 -15 -11 -21 4 -7
2 -8 -5 -4 -14 9 3 36 23 36 6 0 3 -5 -7 -11z"/>
<path fill="#ffffff" stroke="none" d="M210 86 c0 -2 -7 -7 -16 -10 -8 -3 -12
-2 -9 4 6 10 25 14 25 6z"/>
<path fill="#ffffff" stroke="none" d="M165 62 c-3 -3 -11 0 -18 7 -9 10 -8
11 6 5 10 -3 15 -9 12 -12z"/>
<path fill="#ffffff" stroke="none" d="M245 51 c3 -5 2 -12 -3 -15 -5 -3 -9 1
-9 9 0 17 3 19 12 6z"/>
</g>
</svg>
