<?xml version="1.0" standalone="no"?>
<!DOCTYPE svg PUBLIC "-//W3C//DTD SVG 20010904//EN"
 "http://www.w3.org/TR/2001/REC-SVG-20010904/DTD/svg10.dtd">
<svg version="1.0" xmlns="http://www.w3.org/2000/svg"
 width="32.000000pt" height="32.000000pt" viewBox="0 0 32.000000 32.000000"
 preserveAspectRatio="xMidYMid meet">
<metadata>
Created by potrace 1.16, written by Peter Selinger 2001-2019
</metadata>
<g transform="translate(0.000000,32.000000) scale(0.100000,-0.100000)"
fill="#000000" stroke="none">
<path fill="#000000" stroke="none" d="M4 283 c1 -30 4 -33 33 -33 31 0 33 2
33 34 0 32 -2 34 -33 33 -31 -1 -34 -3 -33 -34z"/>
<path fill="#000000" stroke="none" d="M90 287 c0 -41 -15 -57 -55 -57 -28 0
-32 -3 -32 -30 0 -27 3 -30 34 -30 29 0 33 3 33 26 0 31 16 48 53 58 21 5 27
12 27 34 0 24 -4 28 -30 30 -28 2 -30 0 -30 -31z"/>
<path fill="#000000" stroke="none" d="M170 289 c0 -26 15 -39 46 -39 9 0 14
11 14 34 0 31 -2 34 -30 32 -25 -1 -30 -5 -30 -27z"/>
<path fill="#000000" stroke="none" d="M250 285 c0 -17 -5 -36 -12 -43 -8 -8
-8 -12 -1 -12 6 0 13 -13 17 -30 4 -24 11 -30 31 -30 14 0 25 -4 25 -10 0 -5
-11 -10 -24 -10 -18 0 -26 -7 -31 -27 -4 -16 -11 -34 -17 -40 -12 -15 -68 -17
-68 -3 0 6 10 10 21 10 18 0 19 2 9 15 -16 19 -5 34 12 17 18 -18 28 -15 38
14 8 19 6 29 -5 40 -8 9 -15 20 -15 26 0 6 -6 6 -15 -2 -18 -15 -34 -5 -17 12
8 8 5 16 -14 30 -22 18 -25 18 -40 4 -8 -9 -21 -16 -27 -16 -8 0 -8 -3 0 -11
6 -6 9 -18 6 -26 -4 -11 -8 -10 -19 4 -13 17 -13 17 -14 -2 0 -30 -19 -45 -55
-45 -27 0 -31 -4 -33 -30 -2 -28 0 -30 33 -30 32 0 35 2 35 30 0 17 5 30 10
30 6 0 10 -9 10 -20 0 -17 3 -18 19 -9 11 7 26 9 37 4 18 -8 18 -8 -1 -13 -34
-7 -41 -22 -11 -22 15 0 25 -4 21 -10 -9 -14 -65 -12 -65 2 0 9 -3 9 -12 0 -7
-7 -26 -12 -43 -12 -29 0 -31 -3 -32 -35 l-1 -35 159 0 159 0 0 159 0 159 -35
-1 c-32 -1 -35 -3 -35 -32z"/>
<path fill="#ffffff" stroke="none" d="M310 240 c0 -5 -13 -10 -30 -10 -16 0
-30 5 -30 10 0 6 14 10 30 10 17 0 30 -4 30 -10z"/>
<path fill="#ffffff" stroke="none" d="M310 80 c0 -5 -13 -10 -30 -10 -27 0
-30 -3 -30 -30 0 -17 -4 -30 -10 -30 -14 0 -12 48 3 65 14 16 67 20 67 5z"/>
<path fill="#ffffff" stroke="none" d="M90 40 c0 -17 -4 -30 -10 -30 -5 0 -10
13 -10 30 0 17 5 30 10 30 6 0 10 -13 10 -30z"/>
<path fill="#ffffff" stroke="none" d="M170 40 c0 -17 -4 -30 -10 -30 -5 0
-10 13 -10 30 0 17 5 30 10 30 6 0 10 -13 10 -30z"/>
</g>
</svg>
