<?xml version="1.0" standalone="no"?>
<!DOCTYPE svg PUBLIC "-//W3C//DTD SVG 20010904//EN"
 "http://www.w3.org/TR/2001/REC-SVG-20010904/DTD/svg10.dtd">
<svg version="1.0" xmlns="http://www.w3.org/2000/svg"
 width="32.000000pt" height="32.000000pt" viewBox="0 0 32.000000 32.000000"
 preserveAspectRatio="xMidYMid meet">
<metadata>
Created by potrace 1.16, written by Peter Selinger 2001-2019
</metadata>
<g transform="translate(0.000000,32.000000) scale(0.100000,-0.100000)"
fill="#000000" stroke="none">
<path fill="#000000" stroke="none" d="M290 305 c-19 -10 -27 -10 -32 -2 -4 7
-8 -3 -8 -20 0 -31 2 -33 35 -33 33 0 35 2 35 35 0 19 -1 35 -2 35 -2 -1 -14
-7 -28 -15z"/>
<path fill="#000000" stroke="none" d="M41 305 c-1 -6 5 -17 12 -24 10 -10 9
-11 -5 -6 -11 4 -18 2 -18 -5 0 -6 -4 -8 -10 -5 -6 3 -10 1 -10 -4 0 -6 13
-11 29 -11 27 0 30 3 29 31 -1 17 -4 25 -8 18 -6 -8 -9 -8 -13 2 -3 8 -6 9 -6
4z"/>
<path fill="#000000" stroke="none" d="M90 278 c0 -36 4 -35 14 5 4 16 2 27
-4 27 -5 0 -10 -14 -10 -32z"/>
<path fill="#000000" stroke="none" d="M116 295 c-8 -23 -8 -27 4 -20 6 3 10
2 10 -4 0 -5 -6 -11 -12 -14 -7 -3 -4 -5 7 -4 15 1 21 8 20 26 0 28 -20 39
-29 16z"/>
<path fill="#000000" stroke="none" d="M170 280 c0 -27 3 -30 30 -30 27 0 30
3 30 30 0 32 -9 37 -28 18 -9 -9 -12 -9 -12 0 0 7 -4 12 -10 12 -5 0 -10 -13
-10 -30z"/>
<path fill="#000000" stroke="none" d="M88 205 c3 -23 9 -30 27 -31 19 -2 21
1 12 11 -7 7 -15 11 -19 8 -5 -2 -8 0 -8 5 0 6 7 13 16 16 23 9 24 8 17 -11
-4 -11 -3 -14 5 -9 23 14 12 34 -21 38 -31 3 -32 2 -29 -27z"/>
<path fill="#000000" stroke="none" d="M168 203 c4 -29 8 -33 33 -33 25 0 29
4 29 29 0 25 -4 29 -33 33 -31 3 -32 2 -29 -29z"/>
<path fill="#ffffff" stroke="none" d="M215 210 c-3 -5 -12 -7 -20 -3 -21 7
-19 13 6 13 11 0 18 -4 14 -10z"/>
<path fill="#ffffff" stroke="none" d="M205 190 c3 -5 2 -10 -4 -10 -5 0 -13
5 -16 10 -3 6 -2 10 4 10 5 0 13 -4 16 -10z"/>
<path fill="#000000" stroke="none" d="M248 203 c2 -18 8 -30 14 -27 5 3 7 12
4 19 -2 7 2 16 9 19 11 4 12 0 5 -19 -9 -22 -7 -25 15 -25 21 0 25 5 25 29 0
26 -4 29 -38 32 -37 4 -37 4 -34 -28z"/>
<path fill="#000000" stroke="none" d="M15 220 c4 -6 11 -8 16 -5 5 4 9 0 9
-7 0 -10 3 -9 11 2 8 12 9 10 4 -7 -3 -12 -1 -24 5 -28 6 -4 10 6 10 24 0 28
-3 31 -31 31 -18 0 -28 -4 -24 -10z"/>
<path fill="#000000" stroke="none" d="M10 185 c0 -8 9 -15 20 -15 13 0 18 5
14 15 -4 8 -12 15 -20 15 -8 0 -14 -7 -14 -15z"/>
<path fill="#000000" stroke="none" d="M88 123 c3 -23 9 -33 21 -32 10 0 11 2
4 6 -18 7 -16 43 2 43 8 0 12 -6 9 -13 -3 -8 1 -14 8 -14 8 0 14 8 14 18 0 12
-10 18 -31 21 -29 3 -30 2 -27 -29z"/>
<path fill="#000000" stroke="none" d="M168 123 c4 -29 8 -33 33 -33 25 0 29
4 29 29 0 25 -4 29 -33 33 -31 3 -32 2 -29 -29z"/>
<path fill="#000000" stroke="none" d="M248 123 c4 -30 7 -33 38 -33 31 0 34
3 34 29 0 26 -4 29 -38 32 -37 4 -37 4 -34 -28z"/>
<path fill="#000000" stroke="none" d="M13 123 c2 -22 8 -29 30 -31 24 -3 27
0 27 27 0 28 -3 31 -29 31 -26 0 -30 -3 -28 -27z"/>
<path fill="#ffffff" stroke="none" d="M43 120 c-10 -11 -18 -20 -20 -20 -1 0
-1 9 0 20 1 12 8 20 19 20 17 0 17 -1 1 -20z"/>
<path fill="#000000" stroke="none" d="M89 38 c3 -34 6 -38 32 -38 21 0 29 5
29 17 0 13 -3 14 -12 5 -15 -15 -38 -16 -38 0 0 6 3 8 7 5 7 -7 43 21 43 33 0
5 -15 10 -33 12 -32 3 -32 3 -28 -34z"/>
<path fill="#ffffff" stroke="none" d="M130 52 c0 -5 -7 -9 -15 -9 -8 0 -12 4
-9 9 7 10 24 10 24 0z"/>
<path fill="#000000" stroke="none" d="M169 38 c3 -34 6 -38 32 -38 26 0 29 3
29 34 0 31 -3 34 -33 38 -32 3 -32 3 -28 -34z"/>
<path fill="#ffffff" stroke="none" d="M210 55 c0 -2 -6 -8 -13 -14 -10 -8
-14 -7 -14 2 0 8 6 14 14 14 7 0 13 -1 13 -2z"/>
<path fill="#000000" stroke="none" d="M249 38 c3 -36 5 -38 37 -38 32 0 34 2
34 34 0 32 -2 34 -38 37 l-37 4 4 -37z"/>
<path fill="#ffffff" stroke="none" d="M283 39 c-8 -8 -13 -7 -18 2 -5 8 -4
10 3 5 7 -4 12 -2 12 5 0 7 3 9 7 6 4 -4 2 -12 -4 -18z"/>
<path fill="#000000" stroke="none" d="M10 59 c0 -5 4 -8 9 -5 5 4 12 0 14 -6
4 -10 8 -9 16 2 8 12 10 10 8 -8 -1 -14 -6 -21 -15 -17 -7 2 -10 1 -7 -4 3 -5
-5 -12 -17 -14 -15 -3 -9 -5 15 -6 36 -1 37 0 37 34 0 32 -2 35 -30 35 -17 0
-30 -5 -30 -11z"/>
</g>
</svg>
