<?xml version="1.0" standalone="no"?>
<!DOCTYPE svg PUBLIC "-//W3C//DTD SVG 20010904//EN"
 "http://www.w3.org/TR/2001/REC-SVG-20010904/DTD/svg10.dtd">
<svg version="1.0" xmlns="http://www.w3.org/2000/svg"
 width="32.000000pt" height="32.000000pt" viewBox="0 0 32.000000 32.000000"
 preserveAspectRatio="xMidYMid meet">
<metadata>
Created by potrace 1.16, written by Peter Selinger 2001-2019
</metadata>
<g transform="translate(0.000000,32.000000) scale(0.100000,-0.100000)"
fill="#000000" stroke="none">
<path fill="#000000" stroke="none" d="M4 283 c1 -18 6 -33 12 -33 6 0 17 -7
25 -16 11 -13 9 -14 -13 -9 -22 6 -25 3 -25 -24 0 -29 3 -31 34 -31 30 0 33 3
28 20 -3 11 -2 20 3 20 15 0 21 -37 9 -49 -6 -6 -25 -11 -42 -11 -27 0 -31 -4
-33 -30 -2 -28 0 -30 33 -30 32 0 35 2 35 30 0 17 5 30 10 30 14 0 12 -54 -2
-68 -7 -7 -26 -12 -43 -12 -29 0 -31 -3 -32 -35 l-1 -35 159 0 159 0 0 159 0
159 -35 -1 c-32 -1 -35 -3 -35 -32 0 -17 -5 -36 -12 -43 -14 -14 -68 -16 -68
-2 0 6 14 10 30 10 27 0 30 3 30 34 0 31 -2 34 -30 32 -27 -1 -30 -4 -30 -32
0 -41 -21 -59 -49 -44 -12 6 -21 15 -21 20 0 13 17 13 25 0 13 -20 25 -9 25
23 0 29 -3 33 -30 35 -20 2 -30 -2 -30 -11 0 -8 -11 -19 -25 -25 -20 -9 -23
-9 -18 3 3 8 9 15 14 15 5 0 9 4 9 9 0 5 -15 9 -33 8 -31 -1 -34 -3 -33 -34z"/>
<path fill="#ffffff" stroke="none" d="M310 240 c0 -5 -13 -10 -30 -10 -27 0
-30 -3 -30 -29 0 -17 -4 -33 -10 -36 -15 -9 -12 53 3 70 14 16 67 20 67 5z"/>
<path fill="#ffffff" stroke="none" d="M310 160 c0 -5 -13 -10 -30 -10 -26 0
-30 -4 -30 -28 0 -15 -5 -33 -12 -40 -14 -14 -68 -16 -68 -2 0 6 14 10 30 10
25 0 30 4 30 25 0 14 6 32 13 40 14 16 67 20 67 5z"/>
<path fill="#ffffff" stroke="none" d="M155 80 c-3 -5 -19 -10 -36 -10 -26 0
-29 -3 -29 -30 0 -17 -4 -30 -10 -30 -14 0 -12 48 3 65 14 16 82 21 72 5z"/>
<path fill="#ffffff" stroke="none" d="M310 80 c0 -5 -13 -10 -30 -10 -27 0
-30 -3 -30 -30 0 -17 -4 -30 -10 -30 -14 0 -12 48 3 65 14 16 67 20 67 5z"/>
<path fill="#ffffff" stroke="none" d="M170 40 c0 -17 -4 -30 -10 -30 -5 0
-10 13 -10 30 0 17 5 30 10 30 6 0 10 -13 10 -30z"/>
</g>
</svg>
