<?xml version="1.0" standalone="no"?>
<!DOCTYPE svg PUBLIC "-//W3C//DTD SVG 20010904//EN"
 "http://www.w3.org/TR/2001/REC-SVG-20010904/DTD/svg10.dtd">
<svg version="1.0" xmlns="http://www.w3.org/2000/svg"
 width="32.000000pt" height="32.000000pt" viewBox="0 0 32.000000 32.000000"
 preserveAspectRatio="xMidYMid meet">
<metadata>
Created by potrace 1.16, written by Peter Selinger 2001-2019
</metadata>
<g transform="translate(0.000000,32.000000) scale(0.100000,-0.100000)"
fill="#000000" stroke="none">
<path fill="#000000" stroke="none" d="M0 280 c0 -39 1 -39 25 -28 18 8 25 19
25 40 0 23 -4 28 -25 28 -22 0 -25 -4 -25 -40z"/>
<path fill="#000000" stroke="none" d="M62 295 c0 -16 2 -22 5 -12 2 9 2 23 0
30 -3 6 -5 -1 -5 -18z"/>
<path fill="#000000" stroke="none" d="M183 313 c-7 -2 -13 -11 -13 -19 0 -7
-13 -23 -30 -36 -21 -15 -30 -30 -29 -47 l2 -26 4 24 c3 13 14 32 26 42 19 15
25 15 49 3 19 -10 28 -23 29 -42 2 -26 2 -26 6 -2 3 13 12 30 21 38 15 11 14
12 -8 2 -22 -10 -23 -10 -7 3 9 8 17 26 17 41 0 22 -4 26 -27 25 -16 0 -34 -3
-40 -6z"/>
<path fill="#000000" stroke="none" d="M260 295 c0 -17 9 -29 30 -40 l30 -16
0 41 c0 38 -2 40 -30 40 -25 0 -30 -4 -30 -25z"/>
<path fill="#000000" stroke="none" d="M27 244 c-35 -19 -35 -49 0 -68 37 -19
73 -3 73 34 0 37 -36 53 -73 34z"/>
<path fill="#000000" stroke="none" d="M288 172 c-37 -22 -37 -57 0 -76 15 -8
23 -15 19 -16 -5 0 -17 5 -28 10 -13 8 -25 7 -39 0 -26 -14 -27 -65 -2 -75 28
-12 82 -16 82 -6 0 5 -10 7 -22 4 -22 -5 -22 -5 -5 9 14 10 20 33 24 91 3 42
4 77 2 76 -2 0 -16 -8 -31 -17z"/>
<path fill="#000000" stroke="none" d="M0 130 c0 -49 0 -49 25 -38 35 16 35
60 0 76 -25 11 -25 11 -25 -38z"/>
<path fill="#000000" stroke="none" d="M83 167 c-32 -14 -31 -60 1 -75 18 -8
28 -7 45 4 47 33 6 95 -46 71z"/>
<path fill="#000000" stroke="none" d="M193 158 c-13 -6 -23 -17 -23 -24 0 -7
-13 -24 -30 -37 -19 -16 -30 -34 -29 -49 1 -20 2 -21 6 -3 3 11 14 30 25 42
19 20 23 21 47 9 36 -19 64 0 59 41 -3 31 -21 38 -55 21z"/>
<path fill="#000000" stroke="none" d="M27 84 c-35 -19 -35 -50 1 -66 29 -15
71 -18 72 -5 1 55 -2 65 -23 74 -17 8 -30 7 -50 -3z"/>
<path fill="#000000" stroke="none" d="M0 10 c0 -6 7 -10 15 -10 8 0 15 2 15
4 0 2 -7 6 -15 10 -8 3 -15 1 -15 -4z"/>
<path fill="#000000" stroke="none" d="M218 3 c7 -3 16 -2 19 1 4 3 -2 6 -13
5 -11 0 -14 -3 -6 -6z"/>
</g>
</svg>
