<?xml version="1.0" standalone="no"?>
<!DOCTYPE svg PUBLIC "-//W3C//DTD SVG 20010904//EN"
 "http://www.w3.org/TR/2001/REC-SVG-20010904/DTD/svg10.dtd">
<svg version="1.0" xmlns="http://www.w3.org/2000/svg"
 width="32.000000pt" height="32.000000pt" viewBox="0 0 32.000000 32.000000"
 preserveAspectRatio="xMidYMid meet">
<metadata>
Created by potrace 1.16, written by Peter Selinger 2001-2019
</metadata>
<g transform="translate(0.000000,32.000000) scale(0.100000,-0.100000)"
fill="#000000" stroke="none">
<path fill="#000000" stroke="none" d="M0 285 c0 -33 2 -35 20 -25 12 6 20 21
20 35 0 18 -5 25 -20 25 -16 0 -20 -7 -20 -35z"/>
<path fill="#000000" stroke="none" d="M260 295 c0 -23 24 -45 49 -45 6 0 11
16 11 35 0 32 -2 35 -30 35 -25 0 -30 -4 -30 -25z"/>
<path fill="#000000" stroke="none" d="M241 294 c0 -11 -10 -29 -21 -39 -18
-16 -22 -16 -42 -3 -21 14 -26 14 -46 0 -30 -20 -30 -65 1 -79 27 -12 67 10
67 37 0 10 12 28 26 39 18 14 24 27 21 43 -4 21 -4 21 -6 2z"/>
<path fill="#000000" stroke="none" d="M27 244 c-32 -17 -35 -49 -6 -65 29
-15 65 2 71 34 7 35 -27 50 -65 31z"/>
<path fill="#000000" stroke="none" d="M301 213 c-1 -13 -5 -23 -9 -23 -5 0
-17 -7 -28 -15 -17 -14 -15 -14 16 0 31 14 33 14 16 0 -11 -8 -23 -15 -28 -15
-4 0 -8 -11 -8 -25 0 -16 9 -29 28 -39 15 -8 23 -15 19 -16 -5 0 -17 5 -28 10
-29 16 -59 -4 -59 -39 0 -17 7 -31 15 -35 22 -8 65 14 65 35 0 10 5 21 10 24
12 7 12 99 0 135 -8 24 -8 24 -9 3z"/>
<path fill="#000000" stroke="none" d="M0 134 c0 -41 2 -44 19 -35 30 16 32
57 4 70 -22 10 -23 9 -23 -35z"/>
<path fill="#000000" stroke="none" d="M83 167 c-16 -7 -23 -19 -23 -38 0 -51
72 -47 82 5 6 31 -26 48 -59 33z"/>
<path fill="#000000" stroke="none" d="M187 164 c-34 -18 -35 -51 -2 -66 30
-13 50 0 58 38 6 34 -19 47 -56 28z"/>
<path fill="#000000" stroke="none" d="M27 84 c-31 -17 -35 -48 -9 -64 16 -11
16 -11 0 -6 -10 3 -18 1 -18 -4 0 -29 86 11 92 43 7 35 -27 50 -65 31z"/>
<path fill="#000000" stroke="none" d="M295 10 c-19 -8 -19 -9 3 -9 12 -1 22
4 22 9 0 6 -1 10 -2 9 -2 0 -12 -4 -23 -9z"/>
</g>
</svg>
