<?xml version="1.0" standalone="no"?>
<!DOCTYPE svg PUBLIC "-//W3C//DTD SVG 20010904//EN"
 "http://www.w3.org/TR/2001/REC-SVG-20010904/DTD/svg10.dtd">
<svg version="1.0" xmlns="http://www.w3.org/2000/svg"
 width="32.000000pt" height="32.000000pt" viewBox="0 0 32.000000 32.000000"
 preserveAspectRatio="xMidYMid meet">
<metadata>
Created by potrace 1.16, written by Peter Selinger 2001-2019
</metadata>
<g transform="translate(0.000000,32.000000) scale(0.100000,-0.100000)"
fill="#000000" stroke="none">
<path fill="#000000" stroke="none" d="M0 285 c0 -32 2 -35 19 -26 10 6 21 22
23 36 4 21 1 25 -18 25 -21 0 -24 -5 -24 -35z"/>
<path fill="#000000" stroke="none" d="M62 295 c0 -16 2 -22 5 -12 2 9 2 23 0
30 -3 6 -5 -1 -5 -18z"/>
<path fill="#000000" stroke="none" d="M260 295 c0 -17 9 -29 30 -40 l30 -16
0 41 c0 38 -2 40 -30 40 -25 0 -30 -4 -30 -25z"/>
<path fill="#000000" stroke="none" d="M241 296 c0 -11 -7 -27 -14 -35 -9 -10
-11 -26 -6 -46 6 -26 7 -27 8 -6 0 13 7 29 14 35 9 7 11 21 6 41 -4 18 -7 22
-8 11z"/>
<path fill="#ffffff" stroke="none" d="M250 256 c0 -2 -7 -7 -16 -10 -8 -3
-12 -2 -9 4 6 10 25 14 25 6z"/>
<path fill="#000000" stroke="none" d="M133 253 c-15 -10 -23 -25 -22 -42 2
-25 2 -26 6 -2 3 13 15 32 26 42 27 22 20 24 -10 2z"/>
<path fill="#000000" stroke="none" d="M27 244 c-32 -17 -35 -49 -6 -65 29
-15 65 2 71 34 7 35 -27 50 -65 31z"/>
<path fill="#000000" stroke="none" d="M288 170 c-37 -20 -37 -55 0 -74 15 -8
23 -15 19 -16 -5 0 -17 5 -28 10 -13 8 -26 7 -41 0 -21 -10 -22 -10 -5 4 12 9
17 23 14 38 -4 21 -4 21 -6 2 0 -12 -7 -26 -14 -32 -17 -14 -10 -79 9 -86 21
-8 64 15 64 34 0 9 5 21 11 27 5 5 9 32 7 60 l-3 49 -27 -16z"/>
<path fill="#000000" stroke="none" d="M0 134 c0 -41 2 -44 19 -35 30 16 32
57 4 70 -22 10 -23 9 -23 -35z"/>
<path fill="#000000" stroke="none" d="M83 167 c-16 -7 -23 -19 -23 -38 0 -51
72 -47 82 5 6 31 -26 48 -59 33z"/>
<path fill="#000000" stroke="none" d="M133 91 c-13 -11 -22 -29 -22 -43 1
-20 2 -20 6 -3 3 11 14 30 26 43 25 27 20 28 -10 3z"/>
<path fill="#000000" stroke="none" d="M27 84 c-31 -17 -35 -48 -9 -64 16 -11
16 -11 0 -6 -10 3 -18 1 -18 -4 0 -29 86 11 92 43 7 35 -27 50 -65 31z"/>
<path fill="#000000" stroke="none" d="M90 10 c-9 -6 -10 -10 -3 -10 6 0 15 5
18 10 8 12 4 12 -15 0z"/>
<path fill="#000000" stroke="none" d="M295 10 c-19 -8 -19 -9 3 -9 12 -1 22
4 22 9 0 6 -1 10 -2 9 -2 0 -12 -4 -23 -9z"/>
</g>
</svg>
