<?xml version="1.0" standalone="no"?>
<!DOCTYPE svg PUBLIC "-//W3C//DTD SVG 20010904//EN"
 "http://www.w3.org/TR/2001/REC-SVG-20010904/DTD/svg10.dtd">
<svg version="1.0" xmlns="http://www.w3.org/2000/svg"
 width="32.000000pt" height="32.000000pt" viewBox="0 0 32.000000 32.000000"
 preserveAspectRatio="xMidYMid meet">
<metadata>
Created by potrace 1.16, written by Peter Selinger 2001-2019
</metadata>
<g transform="translate(0.000000,32.000000) scale(0.100000,-0.100000)"
fill="#000000" stroke="none">
<path fill="#000000" stroke="none" d="M51 294 c-1 -23 -8 -34 -26 -42 -17 -8
-25 -19 -24 -34 1 -15 3 -17 6 -7 5 21 50 41 74 34 13 -4 19 -16 19 -34 0 -38
-35 -54 -75 -34 -27 13 -28 13 -11 -1 11 -9 23 -16 28 -16 4 0 8 -13 8 -28 0
-21 -7 -32 -25 -40 -17 -8 -25 -19 -24 -34 1 -15 3 -17 6 -7 5 21 50 41 74 34
27 -9 26 -59 -2 -71 -17 -8 -11 -10 28 -11 41 -1 45 0 26 9 -30 14 -30 54 -1
77 20 17 24 17 50 2 36 -20 39 -63 6 -79 -18 -8 -10 -10 43 -8 79 3 89 9 89
46 0 23 -7 33 -30 45 -40 21 -40 54 0 77 41 23 41 62 1 83 -19 10 -31 24 -34
42 l-4 28 -2 -29 c-2 -42 -28 -58 -63 -40 -27 14 -29 39 -4 56 6 4 -17 8 -51
8 -62 0 -63 -1 -64 -27 l-1 -28 -8 30 -8 30 -1 -31z"/>
<path fill="#ffffff" stroke="none" d="M185 248 c35 -16 35 -60 -1 -76 -18 -9
-31 -9 -44 -2 -25 13 -67 -12 -73 -43 -4 -20 -4 -19 -6 3 -1 18 7 30 29 42 19
11 30 25 30 39 0 12 8 28 18 35 21 16 16 16 47 2z"/>
<path fill="#ffffff" stroke="none" d="M248 247 c-9 -7 -18 -24 -21 -37 -4
-25 -4 -24 -6 2 0 16 6 31 17 37 24 14 30 13 10 -2z"/>
<path fill="#ffffff" stroke="none" d="M252 125 c2 -22 -1 -39 -8 -43 -7 -4
-14 -18 -17 -32 -4 -25 -4 -25 -6 2 -1 20 -10 32 -31 43 -38 20 -39 50 -3 69
37 19 60 5 65 -39z"/>
<path fill="#000000" stroke="none" d="M225 90 c-3 -6 1 -7 9 -4 18 7 21 14 7
14 -6 0 -13 -4 -16 -10z"/>
<path fill="#000000" stroke="none" d="M14 16 c11 -9 24 -16 30 -16 12 0 7 5
-24 19 -24 11 -24 11 -6 -3z"/>
</g>
</svg>
