<?xml version="1.0" standalone="no"?>
<!DOCTYPE svg PUBLIC "-//W3C//DTD SVG 20010904//EN"
 "http://www.w3.org/TR/2001/REC-SVG-20010904/DTD/svg10.dtd">
<svg version="1.0" xmlns="http://www.w3.org/2000/svg"
 width="32.000000pt" height="32.000000pt" viewBox="0 0 32.000000 32.000000"
 preserveAspectRatio="xMidYMid meet">
<metadata>
Created by potrace 1.16, written by Peter Selinger 2001-2019
</metadata>
<g transform="translate(0.000000,32.000000) scale(0.100000,-0.100000)"
fill="#000000" stroke="none">
<path fill="#000000" stroke="none" d="M0 285 c0 -33 2 -35 20 -25 12 6 20 21
20 35 0 18 -5 25 -20 25 -16 0 -20 -7 -20 -35z"/>
<path fill="#000000" stroke="none" d="M260 295 c0 -23 24 -45 49 -45 6 0 11
16 11 35 0 32 -2 35 -30 35 -25 0 -30 -4 -30 -25z"/>
<path fill="#000000" stroke="none" d="M241 294 c0 -11 -10 -29 -21 -39 -18
-16 -22 -16 -42 -3 -21 14 -26 14 -46 0 -30 -20 -30 -65 1 -79 27 -12 67 10
67 37 0 10 12 28 26 39 18 14 24 27 21 43 -4 21 -4 21 -6 2z"/>
<path fill="#000000" stroke="none" d="M90 211 c0 -28 -45 -54 -70 -41 -19 10
-20 8 -20 -35 0 -43 1 -45 20 -35 11 6 20 20 20 31 0 12 12 27 30 37 19 11 30
25 30 40 0 12 -2 22 -5 22 -3 0 -5 -8 -5 -19z"/>
<path fill="#000000" stroke="none" d="M288 172 c-38 -23 -37 -57 2 -77 l30
-16 0 56 c0 30 -1 55 -2 54 -2 0 -15 -8 -30 -17z"/>
<path fill="#000000" stroke="none" d="M241 134 c0 -11 -10 -29 -21 -39 -18
-16 -22 -16 -43 -2 -21 13 -25 13 -45 -3 -21 -18 -32 -68 -12 -55 6 3 10 0 10
-9 0 -8 6 -16 13 -19 18 -6 57 23 57 43 0 10 12 28 26 39 18 14 24 27 21 43
-4 21 -4 21 -6 2z"/>
<path fill="#000000" stroke="none" d="M90 51 c0 -10 -10 -26 -22 -35 -23 -16
-23 -16 5 -4 18 8 27 19 27 35 0 12 -2 23 -5 23 -3 0 -5 -8 -5 -19z"/>
<path fill="#000000" stroke="none" d="M0 10 c0 -6 7 -10 15 -10 8 0 15 2 15
4 0 2 -7 6 -15 10 -8 3 -15 1 -15 -4z"/>
<path fill="#000000" stroke="none" d="M295 10 c-19 -8 -19 -9 3 -9 12 -1 22
4 22 9 0 6 -1 10 -2 9 -2 0 -12 -4 -23 -9z"/>
</g>
</svg>
