<?xml version="1.0" standalone="no"?>
<!DOCTYPE svg PUBLIC "-//W3C//DTD SVG 20010904//EN"
 "http://www.w3.org/TR/2001/REC-SVG-20010904/DTD/svg10.dtd">
<svg version="1.0" xmlns="http://www.w3.org/2000/svg"
 width="32.000000pt" height="32.000000pt" viewBox="0 0 32.000000 32.000000"
 preserveAspectRatio="xMidYMid meet">
<metadata>
Created by potrace 1.16, written by Peter Selinger 2001-2019
</metadata>
<g transform="translate(0.000000,32.000000) scale(0.100000,-0.100000)"
fill="#000000" stroke="none">
<path fill="#000000" stroke="none" d="M51 293 c0 -18 -5 -33 -9 -33 -5 0 -17
-7 -28 -16 -17 -14 -16 -14 11 -1 40 20 75 4 75 -33 0 -37 -35 -53 -75 -33
-27 13 -28 13 -11 -1 11 -9 23 -16 28 -16 4 0 8 -13 8 -30 0 -16 -4 -30 -8
-30 -5 0 -17 -7 -28 -16 -17 -14 -16 -14 11 -1 22 11 35 12 52 4 31 -14 32
-60 1 -74 -18 -8 0 -10 75 -10 78 1 96 3 83 13 -22 16 -20 61 3 74 14 7 27 7
45 -2 36 -16 35 -53 -1 -72 -32 -17 -26 -20 11 -6 39 14 36 64 -4 85 -40 21
-40 54 0 77 41 23 41 62 1 83 -19 10 -31 24 -34 42 l-4 28 -2 -29 c-2 -42 -28
-58 -63 -40 -27 14 -29 39 -4 56 6 4 -17 8 -51 8 -62 0 -63 -1 -64 -27 l-1
-28 -8 30 -8 30 -1 -32z"/>
<path fill="#ffffff" stroke="none" d="M185 248 c35 -16 35 -60 0 -76 -38 -18
-73 2 -67 36 3 15 12 32 21 39 20 15 15 15 46 1z"/>
<path fill="#ffffff" stroke="none" d="M248 247 c-9 -7 -18 -24 -21 -37 -4
-25 -4 -24 -6 2 0 16 6 31 17 37 24 14 30 13 10 -2z"/>
<path fill="#ffffff" stroke="none" d="M250 133 c0 -39 -27 -55 -62 -37 -36
19 -36 49 -1 68 36 18 63 5 63 -31z"/>
<path fill="#ffffff" stroke="none" d="M136 162 c19 -12 20 -58 2 -79 -9 -10
-18 -27 -21 -38 -3 -15 -5 -13 -6 8 -1 19 -9 31 -25 38 -17 8 -22 17 -19 33 9
36 43 55 69 38z"/>
<path fill="#000000" stroke="none" d="M126 95 c-11 -8 -15 -15 -9 -15 6 0 16
7 23 15 16 19 11 19 -14 0z"/>
<path fill="#000000" stroke="none" d="M14 16 c11 -9 24 -16 30 -16 12 0 7 5
-24 19 -24 11 -24 11 -6 -3z"/>
</g>
</svg>
