<?xml version="1.0" standalone="no"?>
<!DOCTYPE svg PUBLIC "-//W3C//DTD SVG 20010904//EN"
 "http://www.w3.org/TR/2001/REC-SVG-20010904/DTD/svg10.dtd">
<svg version="1.0" xmlns="http://www.w3.org/2000/svg"
 width="32.000000pt" height="32.000000pt" viewBox="0 0 32.000000 32.000000"
 preserveAspectRatio="xMidYMid meet">
<metadata>
Created by potrace 1.16, written by Peter Selinger 2001-2019
</metadata>
<g transform="translate(0.000000,32.000000) scale(0.100000,-0.100000)"
fill="#000000" stroke="none">
<path fill="#000000" stroke="none" d="M63 303 c9 -2 23 -2 30 0 6 3 -1 5 -18
5 -16 0 -22 -2 -12 -5z"/>
<path fill="#000000" stroke="none" d="M158 303 c12 -2 32 -2 45 0 12 2 2 4
-23 4 -25 0 -35 -2 -22 -4z"/>
<path fill="#000000" stroke="none" d="M116 222 c-2 -4 -1 -14 3 -21 6 -10 10
-9 14 3 6 16 -8 32 -17 18z"/>
<path fill="#000000" stroke="none" d="M176 214 c-3 -8 2 -10 16 -6 11 3 24
-1 29 -9 7 -11 9 -11 9 -1 0 7 5 10 12 6 6 -4 8 -3 5 3 -10 16 -65 21 -71 7z"/>
<path fill="#000000" stroke="none" d="M22 180 c0 -14 2 -19 5 -12 2 6 2 18 0
25 -3 6 -5 1 -5 -13z"/>
<path fill="#000000" stroke="none" d="M87 113 c-3 -5 18 -9 46 -9 35 -1 45 1
32 7 -26 10 -73 11 -78 2z"/>
<path fill="#000000" stroke="none" d="M106 75 c-3 -9 0 -15 9 -15 9 0 12 6 9
15 -4 8 -7 15 -9 15 -2 0 -5 -7 -9 -15z"/>
<path fill="#000000" stroke="none" d="M103 33 c9 -2 25 -2 35 0 9 3 1 5 -18
5 -19 0 -27 -2 -17 -5z"/>
<path fill="#000000" stroke="none" d="M198 33 c6 -2 18 -2 25 0 6 3 1 5 -13
5 -14 0 -19 -2 -12 -5z"/>
</g>
</svg>
