<?xml version="1.0" standalone="no"?>
<!DOCTYPE svg PUBLIC "-//W3C//DTD SVG 20010904//EN"
 "http://www.w3.org/TR/2001/REC-SVG-20010904/DTD/svg10.dtd">
<svg version="1.0" xmlns="http://www.w3.org/2000/svg"
 width="32.000000pt" height="32.000000pt" viewBox="0 0 32.000000 32.000000"
 preserveAspectRatio="xMidYMid meet">
<metadata>
Created by potrace 1.16, written by Peter Selinger 2001-2019
</metadata>
<g transform="translate(0.000000,32.000000) scale(0.100000,-0.100000)"
fill="#000000" stroke="none">
<path fill="#000000" stroke="none" d="M1 160 c-1 -106 3 -160 10 -160 5 0 7
6 3 13 -6 8 -3 8 9 -1 20 -17 37 -8 37 21 0 12 4 18 8 12 4 -5 13 -10 20 -10
6 0 12 -4 11 -10 0 -5 -7 -9 -14 -9 -8 1 -13 -2 -10 -6 3 -4 59 -9 125 -9
l120 -2 -1 156 0 155 -24 0 c-27 0 -44 -19 -27 -29 6 -4 10 -27 9 -53 -2 -40
-4 -45 -19 -37 -12 7 -18 6 -18 -2 0 -8 -5 -7 -17 2 -15 13 -15 12 -4 -8 10
-20 9 -23 -14 -29 -20 -5 -23 -9 -15 -20 7 -7 21 -14 33 -17 12 -2 -4 -4 -36
-5 -32 -1 -55 2 -53 7 3 5 18 6 32 3 19 -3 25 -1 20 7 -4 6 -12 8 -18 5 -7 -5
-8 -2 -3 6 6 10 4 12 -9 7 -10 -4 -26 -7 -37 -7 -10 0 -19 -5 -19 -11 0 -5 5
-7 12 -3 7 4 8 3 4 -4 -4 -7 -16 -12 -27 -12 -15 0 -19 7 -19 35 0 19 -4 35
-9 35 -5 0 -4 11 2 25 12 24 23 29 59 26 10 -1 34 3 55 8 30 9 42 7 61 -5 14
-9 22 -11 18 -6 -3 6 0 13 6 16 10 5 10 7 1 12 -7 3 -13 12 -13 19 0 7 -12 18
-27 24 l-28 11 28 -4 c15 -2 29 0 31 3 3 4 -45 7 -105 7 l-109 1 -6 -26 c-3
-14 -7 -32 -10 -39 -2 -7 3 -15 11 -18 23 -9 18 -23 -5 -17 -18 5 -20 11 -14
48 3 26 2 45 -4 49 -8 4 -11 -45 -11 -154z"/>
<path fill="#ffffff" stroke="none" d="M304 206 c-5 -14 -9 -15 -15 -5 -5 8
-3 17 4 21 15 9 19 4 11 -16z"/>
<path fill="#ffffff" stroke="none" d="M45 152 c-19 -14 -15 -33 10 -42 22 -8
24 -12 13 -24 -7 -8 -15 -10 -18 -6 -3 4 -12 9 -20 12 -8 2 -15 17 -15 34 -1
23 4 30 20 32 11 0 15 -2 10 -6z"/>
<path fill="#ffffff" stroke="none" d="M290 146 c0 -3 -4 -8 -10 -11 -5 -3
-10 -1 -10 4 0 6 5 11 10 11 6 0 10 -2 10 -4z"/>
<path fill="#ffffff" stroke="none" d="M185 86 c-17 -12 -18 -17 -7 -40 7 -15
16 -25 21 -21 5 3 12 1 15 -3 3 -5 -4 -9 -16 -8 -11 0 -25 8 -31 17 -14 22 0
69 20 69 15 0 14 -2 -2 -14z"/>
<path fill="#ffffff" stroke="none" d="M260 20 c0 -5 -2 -10 -4 -10 -3 0 -8 5
-11 10 -3 6 -1 10 4 10 6 0 11 -4 11 -10z"/>
<path fill="#000000" stroke="none" d="M140 190 c0 -5 0 -13 0 -17 0 -5 11 -8
25 -9 29 -1 30 0 9 20 -18 18 -34 21 -34 6z"/>
</g>
</svg>
