<?xml version="1.0" standalone="no"?>
<!DOCTYPE svg PUBLIC "-//W3C//DTD SVG 20010904//EN"
 "http://www.w3.org/TR/2001/REC-SVG-20010904/DTD/svg10.dtd">
<svg version="1.0" xmlns="http://www.w3.org/2000/svg"
 width="32.000000pt" height="32.000000pt" viewBox="0 0 32.000000 32.000000"
 preserveAspectRatio="xMidYMid meet">
<metadata>
Created by potrace 1.16, written by Peter Selinger 2001-2019
</metadata>
<g transform="translate(0.000000,32.000000) scale(0.100000,-0.100000)"
fill="#000000" stroke="none">
<path fill="#000000" stroke="none" d="M4 303 c0 -10 6 -21 11 -25 6 -5 5 -11
-3 -16 -9 -7 -13 -35 -11 -105 1 -79 4 -94 16 -90 12 5 12 7 1 14 -10 7 -9 9
4 9 11 0 20 -10 24 -25 8 -33 -2 -43 -26 -27 -18 11 -20 9 -20 -13 l0 -25 160
0 160 0 0 141 c0 86 -4 138 -9 134 -6 -3 -15 3 -20 14 -9 16 -7 20 12 24 12 2
-51 5 -139 6 -148 1 -162 0 -160 -16z"/>
<path fill="#ffffff" stroke="none" d="M90 291 c0 -5 -7 -11 -15 -15 -8 -3
-15 -13 -15 -23 -1 -17 -1 -17 -11 0 -8 13 -7 22 1 33 14 15 40 19 40 5z"/>
<path fill="#ffffff" stroke="none" d="M201 285 c19 -8 27 -15 19 -15 -25 -3
-54 -8 -80 -16 -23 -7 -24 -6 -10 11 13 17 13 18 0 10 -13 -8 -13 -7 -1 8 17
21 29 21 72 2z"/>
<path fill="#ffffff" stroke="none" d="M220 220 c0 -5 -5 -10 -11 -10 -5 0 -7
5 -4 10 3 6 8 10 11 10 2 0 4 -4 4 -10z"/>
<path fill="#ffffff" stroke="none" d="M30 216 c0 -3 -4 -8 -10 -11 -5 -3 -10
-1 -10 4 0 6 5 11 10 11 6 0 10 -2 10 -4z"/>
<path fill="#ffffff" stroke="none" d="M156 194 c-5 -14 -4 -15 9 -4 8 7 15
11 16 9 7 -34 6 -37 -9 -32 -11 5 -13 3 -7 -8 7 -11 5 -11 -11 1 -10 8 -26 21
-34 29 -13 13 -13 14 2 8 10 -3 20 -2 23 3 10 16 18 11 11 -6z"/>
<path fill="#ffffff" stroke="none" d="M260 180 c0 -5 -5 -10 -11 -10 -5 0 -7
5 -4 10 3 6 8 10 11 10 2 0 4 -4 4 -10z"/>
<path fill="#ffffff" stroke="none" d="M98 140 c3 -9 -1 -11 -12 -7 -10 4 -15
3 -11 -3 3 -6 -1 -10 -10 -10 -13 0 -14 4 -5 21 12 22 31 21 38 -1z"/>
<path fill="#ffffff" stroke="none" d="M285 111 c6 -1 3 -6 -5 -12 -12 -8 -10
-9 8 -4 26 8 30 -11 7 -41 -11 -15 -14 -16 -15 -3 0 8 -5 20 -11 26 -15 15
-39 5 -33 -12 3 -7 0 -16 -7 -21 -8 -4 -10 -3 -5 5 4 6 3 18 -3 25 -25 30 6
47 64 37z"/>
<path fill="#ffffff" stroke="none" d="M147 94 c-3 -3 -12 -4 -19 -1 -8 3 -5
6 6 6 11 1 17 -2 13 -5z"/>
<path fill="#ffffff" stroke="none" d="M100 75 c0 -9 6 -12 15 -9 8 4 15 1 15
-6 0 -8 -8 -10 -22 -6 -13 3 -29 6 -37 6 -11 0 -11 3 -1 15 16 19 30 19 30 0z"/>
</g>
</svg>
