<?xml version="1.0" standalone="no"?>
<!DOCTYPE svg PUBLIC "-//W3C//DTD SVG 20010904//EN"
 "http://www.w3.org/TR/2001/REC-SVG-20010904/DTD/svg10.dtd">
<svg version="1.0" xmlns="http://www.w3.org/2000/svg"
 width="32.000000pt" height="32.000000pt" viewBox="0 0 32.000000 32.000000"
 preserveAspectRatio="xMidYMid meet">
<metadata>
Created by potrace 1.16, written by Peter Selinger 2001-2019
</metadata>
<g transform="translate(0.000000,32.000000) scale(0.100000,-0.100000)"
fill="#000000" stroke="none">
<path fill="#000000" stroke="none" d="M58 303 c15 -27 16 -56 2 -48 -6 4 -9
1 -8 -6 2 -7 -6 -15 -17 -17 -37 -7 -35 -18 3 -15 20 2 31 0 25 -3 -7 -3 -13
-12 -13 -20 0 -8 -5 -14 -12 -14 -6 0 -8 -3 -5 -7 4 -3 16 2 26 11 29 26 55
17 59 -20 3 -27 -1 -33 -25 -39 -48 -14 -57 -14 -64 -3 -4 6 -12 7 -18 4 -41
-25 58 -36 105 -11 26 13 29 12 42 -7 13 -18 16 -19 24 -4 5 9 22 16 38 16 16
0 32 4 35 10 4 6 -5 7 -24 4 -29 -6 -30 -5 -22 22 4 16 6 34 4 39 -1 6 19 11
46 13 47 3 50 2 54 -25 3 -23 4 -21 6 10 1 31 -2 38 -16 35 -10 -1 -24 2 -32
7 -10 5 -16 4 -19 -3 -2 -7 -9 -12 -17 -12 -19 0 -38 27 -31 45 4 12 11 13 32
5 21 -9 25 -8 21 4 -7 18 10 33 43 39 21 4 20 4 -7 6 -21 1 -35 -5 -41 -16 -9
-15 -12 -15 -45 0 -39 19 -112 23 -122 7 -5 -8 -12 -7 -23 2 -13 12 -14 10 -4
-9z"/>
<path fill="#ffffff" stroke="none" d="M182 302 c16 -6 16 -10 2 -39 -9 -17
-24 -39 -34 -48 -17 -15 -20 -15 -44 0 -19 13 -26 26 -26 49 0 18 3 36 7 39 8
9 73 8 95 -1z"/>
<path fill="#ffffff" stroke="none" d="M197 185 c1 -30 -2 -36 -24 -41 -44
-11 -56 31 -15 52 12 6 19 14 15 17 -3 4 0 7 8 7 9 0 15 -12 16 -35z"/>
<path fill="#000000" stroke="none" d="M270 132 c-29 -24 -20 -40 20 -34 24 3
30 9 30 28 0 29 -19 31 -50 6z"/>
<path fill="#ffffff" stroke="none" d="M310 136 c0 -2 -7 -9 -15 -16 -13 -11
-14 -10 -9 4 5 14 24 23 24 12z"/>
<path fill="#000000" stroke="none" d="M216 71 c-16 -3 -31 -13 -33 -21 -3
-10 -2 -11 4 -3 5 6 29 13 55 14 26 2 45 6 42 11 -6 9 -25 9 -68 -1z"/>
<path fill="#000000" stroke="none" d="M287 30 c-4 -17 -13 -20 -60 -20 -32 0
-57 5 -59 11 -2 7 -9 5 -17 -5 -12 -14 -7 -16 57 -16 39 0 74 5 77 10 4 6 10
8 15 5 15 -9 20 12 6 24 -11 9 -15 7 -19 -9z"/>
<path fill="#000000" stroke="none" d="M10 26 c0 -8 4 -17 9 -20 5 -4 7 3 4
14 -6 23 -13 26 -13 6z"/>
</g>
</svg>
