<?xml version="1.0" standalone="no"?>
<!DOCTYPE svg PUBLIC "-//W3C//DTD SVG 20010904//EN"
 "http://www.w3.org/TR/2001/REC-SVG-20010904/DTD/svg10.dtd">
<svg version="1.0" xmlns="http://www.w3.org/2000/svg"
 width="32.000000pt" height="32.000000pt" viewBox="0 0 32.000000 32.000000"
 preserveAspectRatio="xMidYMid meet">
<metadata>
Created by potrace 1.16, written by Peter Selinger 2001-2019
</metadata>
<g transform="translate(0.000000,32.000000) scale(0.100000,-0.100000)"
fill="#000000" stroke="none">
<path fill="#000000" stroke="none" d="M22 298 c-7 -7 -12 -23 -12 -37 0 -24
0 -24 20 -6 14 13 19 14 15 4 -4 -10 3 -15 24 -15 20 -1 28 2 24 11 -2 8 6 19
19 25 22 11 22 10 4 -4 -11 -9 -15 -16 -9 -16 16 0 36 28 28 40 -9 15 -38 13
-29 -2 6 -10 4 -10 -7 0 -17 15 -61 16 -77 0z"/>
<path fill="#000000" stroke="none" d="M156 288 c3 -13 11 -30 16 -38 7 -11 8
-10 5 8 -3 12 -1 20 4 16 5 -3 9 -11 9 -17 0 -8 14 -13 34 -13 29 0 33 3 31
23 -1 13 0 21 3 18 3 -2 10 0 17 5 8 7 12 5 12 -5 0 -8 -4 -15 -9 -15 -4 0 -8
-6 -8 -14 0 -11 5 -12 24 -3 19 9 22 15 13 25 -8 10 -7 16 4 23 9 5 -17 9 -74
9 -87 0 -88 0 -81 -22z"/>
<path fill="#000000" stroke="none" d="M0 220 c0 -5 4 -10 9 -10 6 0 8 -9 6
-20 -2 -13 2 -20 11 -20 9 0 12 5 8 12 -5 8 -2 9 10 5 14 -6 17 -3 12 9 -5 14
-4 15 9 4 8 -7 12 -17 8 -23 -3 -6 -1 -7 6 -3 6 4 9 12 6 17 -8 12 9 11 22 -2
7 -7 10 -4 9 13 -1 21 -6 23 -58 26 -36 2 -58 -1 -58 -8z"/>
<path fill="#ffffff" stroke="none" d="M104 211 c4 -5 -3 -7 -14 -4 -23 6 -26
13 -6 13 8 0 17 -4 20 -9z"/>
<path fill="#000000" stroke="none" d="M142 218 c-14 -14 -16 -52 -2 -43 5 3
7 13 4 23 -5 14 -4 14 4 3 6 -8 7 -21 4 -30 -5 -14 -3 -14 11 -3 9 8 22 10 29
6 10 -6 11 -5 1 8 -15 17 -7 29 13 21 8 -3 11 -10 7 -16 -3 -6 -1 -7 5 -3 9 5
9 13 2 27 -12 22 -59 26 -78 7z"/>
<path fill="#000000" stroke="none" d="M241 193 c0 -21 3 -32 6 -25 2 6 9 10
14 6 5 -3 8 0 7 6 -2 7 5 14 14 15 12 2 15 -2 10 -13 -5 -15 -4 -15 11 -3 9 7
17 22 17 32 0 15 -8 19 -40 19 -40 0 -40 0 -39 -37z"/>
<path fill="#000000" stroke="none" d="M14 136 c-9 -23 -1 -49 16 -53 11 -3
12 -2 3 4 -9 6 -7 12 7 21 17 10 18 9 14 -6 -5 -14 -4 -15 5 -2 9 13 11 12 11
-5 0 -15 2 -17 9 -7 5 9 0 22 -16 38 -27 27 -41 30 -49 10z"/>
<path fill="#000000" stroke="none" d="M80 145 c0 -2 9 -19 21 -37 13 -20 18
-25 14 -12 -4 16 0 23 15 27 33 8 23 27 -15 27 -19 0 -35 -2 -35 -5z"/>
<path fill="#000000" stroke="none" d="M172 138 c-18 -18 -16 -59 3 -52 8 4
13 10 10 15 -3 4 5 6 17 4 13 -3 25 -10 26 -15 4 -12 31 19 31 35 0 6 -6 1
-14 -9 -11 -15 -15 -16 -15 -5 0 8 5 20 12 27 9 9 4 12 -23 12 -19 0 -40 -5
-47 -12z"/>
<path fill="#000000" stroke="none" d="M260 141 c0 -6 5 -13 10 -16 6 -4 7
-12 3 -18 -4 -7 4 -5 17 4 36 24 36 39 1 39 -17 0 -31 -4 -31 -9z"/>
<path fill="#000000" stroke="none" d="M2 43 c2 -21 9 -28 26 -29 27 -2 27 0
-1 26 l-22 21 27 -10 c15 -6 30 -7 32 -2 9 13 -5 21 -36 21 -26 0 -29 -3 -26
-27z"/>
<path fill="#000000" stroke="none" d="M86 55 c-9 -24 -7 -55 3 -55 15 0 33
28 29 46 -4 23 -24 29 -32 9z"/>
<path fill="#000000" stroke="none" d="M136 62 c-3 -5 -1 -22 4 -38 7 -24 8
-25 9 -6 1 24 11 28 28 11 8 -8 13 -8 18 0 3 6 2 10 -3 9 -9 -3 -12 2 -12 17
0 3 9 1 19 -4 14 -8 22 -7 31 4 11 13 5 15 -38 15 -28 0 -53 -4 -56 -8z"/>
<path fill="#000000" stroke="none" d="M262 38 c3 -32 19 -42 26 -16 2 9 0 8
-7 -2 -6 -8 -11 -10 -11 -4 0 18 13 24 27 13 7 -6 13 -10 14 -8 9 49 9 49 -22
49 -28 0 -30 -2 -27 -32z"/>
</g>
</svg>
