<?xml version="1.0" standalone="no"?>
<!DOCTYPE svg PUBLIC "-//W3C//DTD SVG 20010904//EN"
 "http://www.w3.org/TR/2001/REC-SVG-20010904/DTD/svg10.dtd">
<svg version="1.0" xmlns="http://www.w3.org/2000/svg"
 width="32.000000pt" height="32.000000pt" viewBox="0 0 32.000000 32.000000"
 preserveAspectRatio="xMidYMid meet">
<metadata>
Created by potrace 1.16, written by Peter Selinger 2001-2019
</metadata>
<g transform="translate(0.000000,32.000000) scale(0.100000,-0.100000)"
fill="#000000" stroke="none">
<path fill="#000000" stroke="none" d="M1 160 l-2 -160 161 0 161 0 -2 160 -2
160 -157 0 -158 0 -1 -160z"/>
<path fill="#ffffff" stroke="none" d="M188 231 c1 -17 -2 -31 -7 -31 -6 0 -8
8 -6 19 3 14 -3 18 -28 19 -22 1 -27 -2 -17 -8 19 -12 8 -22 -14 -14 -11 4
-13 10 -7 18 5 6 9 15 9 21 0 5 6 11 14 13 9 2 8 0 -2 -8 -13 -9 -12 -10 5 -7
11 2 19 9 17 16 -2 8 3 9 16 2 10 -5 19 -23 20 -40z"/>
<path fill="#ffffff" stroke="none" d="M92 183 c-3 -16 -7 -22 -10 -15 -4 13
4 42 11 42 2 0 2 -12 -1 -27z"/>
<path fill="#ffffff" stroke="none" d="M155 178 c-6 -16 -4 -20 8 -15 11 4 14
2 10 -9 -6 -16 -22 -18 -43 -4 -13 9 -13 11 0 20 8 5 11 10 7 10 -12 0 2 20
14 20 6 0 7 -9 4 -22z"/>
<path fill="#ffffff" stroke="none" d="M220 172 c0 -10 6 -27 14 -38 8 -11 14
-36 13 -57 -1 -40 -16 -52 -19 -14 -3 50 -7 74 -17 105 -6 19 -6 30 0 27 5 -4
9 -14 9 -23z"/>
<path fill="#ffffff" stroke="none" d="M90 120 c2 29 4 30 7 10 2 -14 -2 -38
-10 -53 -14 -27 -14 -26 -14 25 0 48 0 50 7 18 l7 -35 3 35z"/>
<path fill="#ffffff" stroke="none" d="M103 60 c-3 -12 -8 -19 -11 -16 -5 6 5
36 12 36 2 0 2 -9 -1 -20z"/>
<path fill="#ffffff" stroke="none" d="M217 48 c-3 -8 -6 -5 -6 6 -1 11 2 17
5 13 3 -3 4 -12 1 -19z"/>
<path fill="#000000" stroke="none" d="M155 250 c-3 -6 1 -7 9 -4 18 7 21 14
7 14 -6 0 -13 -4 -16 -10z"/>
<path fill="#000000" stroke="none" d="M231 104 c0 -11 3 -14 6 -6 3 7 2 16
-1 19 -3 4 -6 -2 -5 -13z"/>
</g>
</svg>
