<?xml version="1.0" standalone="no"?>
<!DOCTYPE svg PUBLIC "-//W3C//DTD SVG 20010904//EN"
 "http://www.w3.org/TR/2001/REC-SVG-20010904/DTD/svg10.dtd">
<svg version="1.0" xmlns="http://www.w3.org/2000/svg"
 width="32.000000pt" height="32.000000pt" viewBox="0 0 32.000000 32.000000"
 preserveAspectRatio="xMidYMid meet">
<metadata>
Created by potrace 1.16, written by Peter Selinger 2001-2019
</metadata>
<g transform="translate(0.000000,32.000000) scale(0.100000,-0.100000)"
fill="#000000" stroke="none">
<path fill="#000000" stroke="none" d="M1 160 l-2 -160 161 0 161 0 -2 160 -2
160 -157 0 -158 0 -1 -160z"/>
<path fill="#ffffff" stroke="none" d="M257 114 c-15 -13 -33 -24 -40 -24 -7
0 3 9 21 20 17 11 32 25 32 32 0 6 3 8 8 4 4 -4 -6 -19 -21 -32z"/>
<path fill="#ffffff" stroke="none" d="M109 94 c14 -12 -19 -1 -35 12 -18 14
-18 14 6 3 14 -6 27 -13 29 -15z"/>
</g>
</svg>
