<?xml version="1.0" standalone="no"?>
<!DOCTYPE svg PUBLIC "-//W3C//DTD SVG 20010904//EN"
 "http://www.w3.org/TR/2001/REC-SVG-20010904/DTD/svg10.dtd">
<svg version="1.0" xmlns="http://www.w3.org/2000/svg"
 width="32.000000pt" height="32.000000pt" viewBox="0 0 32.000000 32.000000"
 preserveAspectRatio="xMidYMid meet">
<metadata>
Created by potrace 1.16, written by Peter Selinger 2001-2019
</metadata>
<g transform="translate(0.000000,32.000000) scale(0.100000,-0.100000)"
fill="#000000" stroke="none">
<path fill="#000000" stroke="none" d="M18 313 c27 -5 28 -13 2 -41 -18 -19
-20 -35 -20 -147 l0 -125 160 0 160 0 0 130 c0 121 -2 132 -22 152 l-22 22 24
7 c14 4 -49 7 -140 7 -91 -1 -155 -3 -142 -5z"/>
<path fill="#ffffff" stroke="none" d="M249 296 c10 -12 8 -13 -8 -9 -12 3
-28 0 -36 -7 -8 -7 -15 -9 -15 -5 0 8 31 34 41 35 4 0 12 -6 18 -14z"/>
<path fill="#ffffff" stroke="none" d="M160 290 c0 -5 -6 -10 -14 -10 -8 0
-22 -7 -30 -16 -9 -9 -16 -11 -16 -4 0 6 -5 8 -11 5 -6 -4 -5 2 3 14 13 22 68
30 68 11z"/>
<path fill="#ffffff" stroke="none" d="M190 215 c-14 -16 -60 -21 -60 -6 0 9
22 16 59 20 11 1 11 -2 1 -14z"/>
<path fill="#ffffff" stroke="none" d="M40 216 c0 -2 -7 -6 -15 -10 -8 -3 -15
-1 -15 4 0 6 7 10 15 10 8 0 15 -2 15 -4z"/>
<path fill="#ffffff" stroke="none" d="M263 190 c-20 -23 -43 -26 -43 -6 0 15
15 24 42 25 17 1 17 0 1 -19z"/>
<path fill="#ffffff" stroke="none" d="M174 181 c3 -4 -6 -13 -19 -19 -20 -9
-25 -9 -25 2 0 20 34 34 44 17z"/>
<path fill="#ffffff" stroke="none" d="M116 133 c-3 -4 6 -13 21 -20 l28 -13
-27 4 c-31 4 -45 -9 -59 -51 -8 -25 -9 -24 -5 10 4 29 2 36 -7 29 -22 -17 -57
-21 -57 -6 0 9 11 14 28 14 15 0 38 9 52 20 24 19 40 27 26 13z"/>
<path fill="#ffffff" stroke="none" d="M253 105 c9 -21 -9 -28 -32 -13 -23 14
-40 3 -23 -14 7 -7 12 -16 12 -21 0 -5 -7 -2 -15 7 -8 8 -15 24 -15 35 0 17 6
21 34 21 21 0 36 -6 39 -15z"/>
<path fill="#ffffff" stroke="none" d="M310 92 c0 -14 -11 -21 -26 -15 -21 8
-17 23 6 23 11 0 20 -4 20 -8z"/>
<path fill="#ffffff" stroke="none" d="M55 60 c3 -5 1 -10 -4 -10 -6 0 -11 -8
-11 -17 -1 -17 -1 -17 -11 0 -15 26 10 53 26 27z"/>
</g>
</svg>
