<?xml version="1.0" standalone="no"?>
<!DOCTYPE svg PUBLIC "-//W3C//DTD SVG 20010904//EN"
 "http://www.w3.org/TR/2001/REC-SVG-20010904/DTD/svg10.dtd">
<svg version="1.0" xmlns="http://www.w3.org/2000/svg"
 width="32.000000pt" height="32.000000pt" viewBox="0 0 32.000000 32.000000"
 preserveAspectRatio="xMidYMid meet">
<metadata>
Created by potrace 1.16, written by Peter Selinger 2001-2019
</metadata>
<g transform="translate(0.000000,32.000000) scale(0.100000,-0.100000)"
fill="#000000" stroke="none">
<path fill="#000000" stroke="none" d="M59 301 c10 -18 10 -25 1 -31 -6 -4
-11 -10 -11 -14 3 -20 -1 -26 -18 -26 -11 0 -22 -4 -25 -9 -4 -5 2 -7 12 -4
15 4 20 -5 28 -48 5 -32 15 -54 24 -57 13 -3 13 -2 0 7 -12 8 -10 12 11 19 25
10 84 16 127 13 21 -1 22 -2 8 -17 -31 -31 -11 -28 26 3 11 10 18 11 23 4 3
-6 0 -11 -7 -11 -10 0 -10 -2 1 -9 7 -5 11 -13 7 -19 -4 -6 2 -8 15 -5 19 5
19 7 5 15 -9 5 -13 14 -9 21 11 18 13 38 2 31 -5 -3 -9 6 -9 20 0 27 15 35 23
14 4 -10 6 -10 6 0 1 7 5 10 11 7 6 -3 7 1 4 9 -3 9 -11 14 -17 13 -7 -1 -13
14 -15 36 -3 31 -8 40 -30 48 -20 8 -32 7 -47 -2 -14 -8 -20 -9 -23 0 -5 14
-89 15 -97 1 -5 -8 -12 -7 -23 2 -14 12 -14 10 -3 -11z"/>
<path fill="#ffffff" stroke="none" d="M177 299 c8 -8 17 -8 33 1 18 10 25 9
37 -3 13 -12 5 -15 -67 -21 -81 -8 -110 0 -96 23 9 14 79 14 93 0z"/>
<path fill="#ffffff" stroke="none" d="M150 203 c2 -2 -1 -8 -9 -12 -7 -5 -12
-12 -12 -17 1 -5 -5 -9 -11 -9 -7 0 -13 12 -14 28 -1 23 2 26 20 21 12 -4 23
-8 26 -11z"/>
<path fill="#ffffff" stroke="none" d="M210 185 c-7 -9 -15 -13 -17 -11 -7 7
7 26 19 26 6 0 6 -6 -2 -15z"/>
<path fill="#000000" stroke="none" d="M130 123 c0 -5 12 -13 26 -20 26 -12
26 -12 9 7 -18 20 -35 26 -35 13z"/>
<path fill="#000000" stroke="none" d="M18 103 c6 -2 18 -2 25 0 6 3 1 5 -13
5 -14 0 -19 -2 -12 -5z"/>
<path fill="#000000" stroke="none" d="M157 36 l-29 -23 27 -7 c16 -4 32 -3
38 3 8 8 7 11 -2 11 -8 0 -10 7 -6 20 8 25 7 25 -28 -4z"/>
<path fill="#000000" stroke="none" d="M60 20 c0 -12 28 -25 36 -17 3 3 -4 10
-15 17 -15 7 -21 7 -21 0z"/>
<path fill="#000000" stroke="none" d="M255 10 c-3 -5 -1 -10 4 -10 6 0 11 5
11 10 0 6 -2 10 -4 10 -3 0 -8 -4 -11 -10z"/>
</g>
</svg>
