<?xml version="1.0" standalone="no"?>
<!DOCTYPE svg PUBLIC "-//W3C//DTD SVG 20010904//EN"
 "http://www.w3.org/TR/2001/REC-SVG-20010904/DTD/svg10.dtd">
<svg version="1.0" xmlns="http://www.w3.org/2000/svg"
 width="32.000000pt" height="32.000000pt" viewBox="0 0 32.000000 32.000000"
 preserveAspectRatio="xMidYMid meet">
<metadata>
Created by potrace 1.16, written by Peter Selinger 2001-2019
</metadata>
<g transform="translate(0.000000,32.000000) scale(0.100000,-0.100000)"
fill="#000000" stroke="none">
<path fill="#000000" stroke="none" d="M0 270 c0 -36 3 -49 11 -44 7 4 21 7
33 8 17 1 21 7 20 37 -1 21 3 36 10 36 6 0 11 -16 11 -36 0 -20 4 -37 8 -38 5
-1 15 -10 22 -20 13 -17 14 -17 34 1 12 11 21 23 21 28 0 5 7 16 15 24 32 32
15 39 -112 50 l-73 5 0 -51z"/>
<path fill="#000000" stroke="none" d="M204 305 c27 -14 31 -14 45 0 14 13 11
15 -29 15 l-45 0 29 -15z"/>
<path fill="#000000" stroke="none" d="M261 296 c-8 -9 -8 -21 -2 -39 5 -14 8
-27 5 -30 -3 -2 7 -3 21 -2 14 2 25 -1 25 -5 0 -5 -19 -10 -42 -12 -39 -3 -44
-6 -54 -38 -10 -30 -10 -36 4 -39 9 -2 18 1 20 7 2 6 10 8 18 5 9 -3 26 0 39
7 21 11 23 20 24 86 1 72 0 74 -23 74 -13 0 -29 -6 -35 -14z"/>
<path fill="#000000" stroke="none" d="M201 266 c-6 -7 -6 -17 -1 -26 6 -8 10
-10 10 -5 0 6 4 4 9 -4 13 -20 41 -6 34 17 -6 24 -38 35 -52 18z"/>
<path fill="#000000" stroke="none" d="M7 213 c-4 -3 -7 -26 -7 -49 0 -34 3
-42 15 -38 8 4 15 2 15 -3 0 -10 32 -9 68 2 19 6 22 14 20 39 -4 37 -30 46
-59 20 -10 -9 -22 -14 -26 -11 -3 4 -2 7 4 7 6 0 13 9 16 20 4 16 0 20 -17 20
-13 0 -26 -3 -29 -7z"/>
<path fill="#000000" stroke="none" d="M165 210 c-3 -5 -3 -10 2 -11 4 0 -2
-4 -14 -9 -43 -17 -23 -57 23 -46 20 5 24 13 24 41 0 34 -20 49 -35 25z"/>
<path fill="#000000" stroke="none" d="M300 142 c0 -7 -6 -12 -14 -12 -8 0
-18 -4 -21 -10 -9 -15 8 -12 31 4 10 8 16 18 11 22 -4 4 -7 2 -7 -4z"/>
<path fill="#000000" stroke="none" d="M112 114 c-15 -11 -38 -15 -68 -12
l-44 3 0 -52 c0 -29 4 -53 9 -53 5 0 7 10 5 23 l-5 22 10 -22 c9 -20 18 -23
64 -23 56 0 79 13 69 38 -4 12 -1 14 12 9 13 -5 17 -3 13 7 -4 10 5 15 31 18
20 3 43 7 51 9 7 2 16 -2 18 -8 3 -9 -8 -13 -40 -13 -37 0 -46 -4 -55 -25 -11
-25 -11 -25 32 -25 24 0 58 -3 75 -6 19 -4 31 -2 31 4 0 6 -8 9 -18 7 -15 -3
-18 2 -14 21 4 23 5 23 18 7 12 -16 13 -14 14 20 0 36 -1 37 -35 37 -19 0 -35
5 -35 10 0 17 -58 11 -68 -6 -6 -11 -11 -13 -16 -5 -4 6 -1 11 6 12 7 0 4 4
-7 9 -28 12 -28 12 -53 -6z"/>
</g>
</svg>
