<?xml version="1.0" standalone="no"?>
<!DOCTYPE svg PUBLIC "-//W3C//DTD SVG 20010904//EN"
 "http://www.w3.org/TR/2001/REC-SVG-20010904/DTD/svg10.dtd">
<svg version="1.0" xmlns="http://www.w3.org/2000/svg"
 width="32.000000pt" height="32.000000pt" viewBox="0 0 32.000000 32.000000"
 preserveAspectRatio="xMidYMid meet">
<metadata>
Created by potrace 1.16, written by Peter Selinger 2001-2019
</metadata>
<g transform="translate(0.000000,32.000000) scale(0.100000,-0.100000)"
fill="#000000" stroke="none">
<path fill="#000000" stroke="none" d="M60 300 c12 -22 10 -26 -24 -56 -26
-22 -31 -31 -18 -27 16 4 20 1 18 -14 -2 -10 -1 -12 1 -5 5 13 21 12 76 -4 12
-4 17 0 17 17 0 17 -3 19 -13 10 -18 -14 -37 5 -37 39 0 41 13 52 56 48 39 -3
39 -3 36 -40 -2 -24 1 -38 8 -38 6 0 8 6 5 13 -3 6 2 2 11 -10 12 -17 27 -23
55 -23 37 0 51 -12 29 -25 -6 -4 -8 -10 -5 -15 8 -13 -36 -40 -65 -40 -14 0
-20 4 -14 8 6 4 14 21 17 37 6 29 6 30 -6 5 -14 -30 -51 -73 -42 -50 4 11 -1
16 -15 17 -30 3 -33 -13 -5 -31 15 -10 26 -12 30 -6 9 15 72 12 78 -4 4 -9 15
-12 31 -9 29 6 46 23 23 23 -8 0 -21 8 -28 17 -9 10 -9 14 -2 10 8 -5 14 4 19
29 5 25 9 32 15 22 6 -9 9 -4 9 16 0 23 -3 26 -14 17 -11 -9 -15 -4 -20 29 -5
32 -12 43 -34 51 -20 8 -32 7 -47 -2 -14 -8 -20 -9 -23 0 -5 14 -89 15 -97 1
-5 -8 -12 -7 -23 2 -14 12 -14 10 -2 -12z"/>
<path fill="#ffffff" stroke="none" d="M251 294 c14 -13 15 -21 7 -45 -5 -16
-14 -29 -20 -29 -5 0 -7 4 -4 9 3 5 -2 15 -11 22 -14 12 -16 12 -8 -1 8 -13 7
-13 -11 0 -10 8 -20 15 -22 16 -5 3 37 44 45 44 3 0 14 -7 24 -16z"/>
<path fill="#ffffff" stroke="none" d="M64 245 c-4 -8 -11 -15 -16 -15 -6 0
-5 6 2 15 7 8 14 15 16 15 2 0 1 -7 -2 -15z"/>
<path fill="#000000" stroke="none" d="M120 170 c0 -5 5 -10 11 -10 5 0 7 5 4
10 -3 6 -8 10 -11 10 -2 0 -4 -4 -4 -10z"/>
<path fill="#000000" stroke="none" d="M62 143 c10 -12 4 -17 -15 -14 -5 1 -6
-3 -3 -8 4 -5 -4 -12 -16 -14 -17 -3 -14 -5 10 -6 17 0 32 3 32 8 0 5 10 11
22 14 17 5 19 9 9 21 -7 8 -21 14 -31 13 -14 -1 -16 -4 -8 -14z"/>
<path fill="#000000" stroke="none" d="M135 90 c3 -5 11 -10 16 -10 6 0 7 5 4
10 -3 6 -11 10 -16 10 -6 0 -7 -4 -4 -10z"/>
<path fill="#000000" stroke="none" d="M180 90 c-8 -5 -10 -10 -5 -10 6 0 4
-4 -4 -9 -12 -8 -13 -12 -1 -25 18 -22 6 -31 -14 -11 -15 15 -17 15 -22 0 -10
-25 2 -29 84 -33 42 -2 73 1 67 5 -5 4 -12 19 -13 33 -5 36 -10 37 -22 5 -6
-15 -13 -25 -17 -21 -3 3 -13 0 -21 -7 -13 -10 -15 -9 -10 9 3 12 1 29 -4 39
-8 13 -7 16 3 12 8 -2 13 -9 12 -15 -1 -5 5 -16 15 -24 15 -12 16 -11 3 5 -7
9 -10 17 -7 17 4 0 2 9 -4 20 -12 22 -18 24 -40 10z"/>
<path fill="#000000" stroke="none" d="M286 41 c-3 -5 1 -14 8 -20 10 -9 16
-9 21 -1 4 6 1 9 -7 8 -7 -2 -12 3 -10 10 2 14 -4 16 -12 3z"/>
<path fill="#000000" stroke="none" d="M60 19 c0 -12 25 -22 41 -17 6 2 0 9
-15 16 -16 7 -26 8 -26 1z"/>
</g>
</svg>
