<?xml version="1.0" standalone="no"?>
<!DOCTYPE svg PUBLIC "-//W3C//DTD SVG 20010904//EN"
 "http://www.w3.org/TR/2001/REC-SVG-20010904/DTD/svg10.dtd">
<svg version="1.0" xmlns="http://www.w3.org/2000/svg"
 width="32.000000pt" height="32.000000pt" viewBox="0 0 32.000000 32.000000"
 preserveAspectRatio="xMidYMid meet">
<metadata>
Created by potrace 1.16, written by Peter Selinger 2001-2019
</metadata>
<g transform="translate(0.000000,32.000000) scale(0.100000,-0.100000)"
fill="#000000" stroke="none">
<path fill="#000000" stroke="none" d="M4 157 c0 -89 1 -154 3 -144 3 9 13 17
24 17 14 0 19 7 19 25 0 16 -6 25 -15 25 -24 0 -17 28 8 33 18 4 17 5 -7 6
-24 1 -27 4 -22 24 3 12 6 27 6 34 0 6 8 14 18 16 13 4 11 5 -5 6 -37 2 -28
31 10 32 30 2 30 2 5 6 -29 4 -38 27 -16 36 8 3 6 6 -4 6 -10 1 -18 7 -18 15
0 18 91 20 102 3 6 -9 8 -9 8 1 0 16 47 16 53 0 4 -10 6 -10 6 0 1 17 51 16
51 -2 0 -8 -6 -17 -12 -19 -10 -4 -10 -6 0 -6 8 -1 16 8 19 18 4 15 16 21 47
24 22 2 -31 4 -120 4 l-160 2 0 -162z"/>
<path fill="#ffffff" stroke="none" d="M40 55 c0 -8 -7 -15 -15 -15 -8 0 -15
7 -15 15 0 8 7 15 15 15 8 0 15 -7 15 -15z"/>
<path fill="#000000" stroke="none" d="M82 266 c7 -8 15 -11 18 -7 3 3 9 9 14
14 5 4 -3 7 -18 7 -22 0 -25 -2 -14 -14z"/>
<path fill="#000000" stroke="none" d="M150 273 c14 -3 28 -9 31 -15 4 -6 8
-4 12 4 3 10 -5 14 -32 15 -24 0 -28 -1 -11 -4z"/>
<path fill="#000000" stroke="none" d="M268 273 c12 -2 22 -11 22 -18 0 -7
-10 -16 -22 -18 -20 -4 -19 -4 5 -6 20 -1 27 4 27 18 0 11 6 22 13 24 6 3 -6
5 -28 5 -22 0 -30 -3 -17 -5z"/>
<path fill="#000000" stroke="none" d="M148 233 c6 -2 18 -2 25 0 6 3 1 5 -13
5 -14 0 -19 -2 -12 -5z"/>
<path fill="#000000" stroke="none" d="M221 224 c-1 -28 -37 -38 -51 -16 -5
10 -10 12 -10 5 0 -6 -8 -14 -17 -17 -11 -3 -7 -4 7 -3 19 2 25 -3 25 -18 0
-14 -6 -19 -20 -17 -11 2 -23 9 -27 15 -6 9 -8 9 -8 0 0 -15 -57 -18 -62 -4
-2 5 -9 3 -16 -5 -11 -12 -7 -14 22 -14 19 0 37 -6 39 -12 4 -10 6 -10 6 0 1
18 51 15 51 -3 0 -8 -9 -15 -19 -15 -14 0 -18 -5 -14 -20 5 -18 -4 -25 -28
-22 -4 1 -5 -7 -2 -17 3 -12 -2 -20 -16 -24 -12 -3 -21 -13 -20 -24 1 -15 2
-15 6 -2 8 32 54 31 65 -1 3 -10 6 -8 10 7 3 12 3 22 -1 21 -20 -2 -31 4 -31
17 0 11 9 15 33 13 35 -2 57 7 57 23 0 6 -7 4 -15 -5 -18 -17 -45 -11 -45 10
0 14 11 18 40 15 12 -2 13 0 1 7 -24 17 -7 37 30 36 26 -1 28 0 7 3 -39 6 -37
33 2 33 17 0 30 -5 30 -12 0 -9 2 -10 8 -2 4 7 16 14 27 17 12 3 5 5 -17 6
-30 1 -37 5 -41 24 -4 21 -4 21 -6 1z"/>
<path fill="#000000" stroke="none" d="M72 204 c-7 -8 -8 -14 -3 -14 10 0 25
19 20 25 -2 1 -10 -3 -17 -11z"/>
<path fill="#000000" stroke="none" d="M273 153 c9 -2 23 -2 30 0 6 3 -1 5
-18 5 -16 0 -22 -2 -12 -5z"/>
<path fill="#000000" stroke="none" d="M220 120 c-6 -4 5 -7 25 -8 19 -1 35 0
35 2 0 8 -49 13 -60 6z"/>
<path fill="#000000" stroke="none" d="M88 113 c7 -3 16 -2 19 1 4 3 -2 6 -13
5 -11 0 -14 -3 -6 -6z"/>
<path fill="#000000" stroke="none" d="M60 85 c0 -8 4 -15 10 -15 5 0 7 7 4
15 -4 8 -8 15 -10 15 -2 0 -4 -7 -4 -15z"/>
<path fill="#000000" stroke="none" d="M271 81 c-7 -4 -24 -6 -39 -3 -15 3
-24 1 -20 -3 7 -8 77 -10 84 -2 9 9 -12 16 -25 8z"/>
<path fill="#000000" stroke="none" d="M167 39 c7 -7 15 -10 18 -7 3 3 -2 9
-12 12 -14 6 -15 5 -6 -5z"/>
<path fill="#000000" stroke="none" d="M259 37 c5 -5 21 -7 37 -5 27 3 26 4
-8 9 -22 3 -34 1 -29 -4z"/>
<path fill="#000000" stroke="none" d="M217 34 c12 -3 24 -13 27 -22 3 -12 4
-11 3 3 -2 14 -10 21 -27 22 -21 1 -21 1 -3 -3z"/>
</g>
</svg>
