<?xml version="1.0" standalone="no"?>
<!DOCTYPE svg PUBLIC "-//W3C//DTD SVG 20010904//EN"
 "http://www.w3.org/TR/2001/REC-SVG-20010904/DTD/svg10.dtd">
<svg version="1.0" xmlns="http://www.w3.org/2000/svg"
 width="32.000000pt" height="32.000000pt" viewBox="0 0 32.000000 32.000000"
 preserveAspectRatio="xMidYMid meet">
<metadata>
Created by potrace 1.16, written by Peter Selinger 2001-2019
</metadata>
<g transform="translate(0.000000,32.000000) scale(0.100000,-0.100000)"
fill="#000000" stroke="none">
<path fill="#000000" stroke="none" d="M4 303 c0 -10 6 -22 11 -26 6 -6 6 -10
-2 -14 -9 -3 -13 -32 -13 -92 l0 -88 25 5 c22 4 25 1 25 -27 0 -32 -16 -41
-38 -19 -9 9 -12 6 -12 -15 l0 -27 160 0 160 0 0 141 c0 86 -4 138 -9 134 -6
-3 -15 3 -20 14 -9 16 -7 20 12 24 12 2 -51 5 -139 6 -148 1 -162 0 -160 -16z"/>
<path fill="#ffffff" stroke="none" d="M90 290 c0 -5 -5 -10 -11 -10 -5 0 -7
-4 -4 -10 3 -5 1 -10 -5 -10 -6 0 -8 -4 -5 -10 3 -5 2 -10 -3 -10 -16 0 -23
31 -11 46 13 16 39 19 39 4z"/>
<path fill="#ffffff" stroke="none" d="M201 286 l34 -14 -40 -7 c-22 -3 -48
-8 -57 -10 -21 -4 -24 15 -6 33 16 16 28 15 69 -2z"/>
<path fill="#ffffff" stroke="none" d="M40 216 c0 -2 -7 -6 -15 -10 -8 -3 -15
-1 -15 4 0 6 7 10 15 10 8 0 15 -2 15 -4z"/>
<path fill="#ffffff" stroke="none" d="M187 184 c4 -11 8 -12 13 -4 9 15 30 4
30 -15 0 -26 -17 -24 -44 5 -14 17 -21 30 -16 30 6 0 13 -7 17 -16z"/>
<path fill="#ffffff" stroke="none" d="M162 132 c-8 -2 -11 -11 -8 -19 4 -11
2 -13 -9 -9 -8 3 -15 0 -16 -7 0 -9 -2 -9 -5 0 -3 7 -11 10 -17 7 -8 -3 -13 5
-14 18 0 13 1 17 4 11 3 -7 9 -13 14 -13 4 0 5 8 2 18 -6 15 -5 16 12 2 17
-14 18 -13 13 13 l-5 27 21 -22 c15 -17 17 -24 8 -26z"/>
<path fill="#ffffff" stroke="none" d="M57 128 c-3 -8 -6 -5 -6 6 -1 11 2 17
5 13 3 -3 4 -12 1 -19z"/>
<path fill="#ffffff" stroke="none" d="M294 105 c17 -13 18 -18 7 -42 l-13
-28 -14 25 c-15 27 -18 60 -6 60 4 0 16 -7 26 -15z"/>
<path fill="#ffffff" stroke="none" d="M232 98 c-7 -7 -16 -7 -28 0 -14 8 -13
10 10 10 18 0 24 -4 18 -10z"/>
<path fill="#ffffff" stroke="none" d="M253 71 c-5 -3 -15 -15 -21 -26 -11
-20 -11 -20 -12 0 0 17 -7 21 -35 23 -24 2 -35 -2 -35 -11 0 -12 -8 -12 -45
-4 -25 6 -42 13 -39 16 7 7 175 18 188 12 4 -2 4 -6 -1 -10z"/>
</g>
</svg>
