<?xml version="1.0" standalone="no"?>
<!DOCTYPE svg PUBLIC "-//W3C//DTD SVG 20010904//EN"
 "http://www.w3.org/TR/2001/REC-SVG-20010904/DTD/svg10.dtd">
<svg version="1.0" xmlns="http://www.w3.org/2000/svg"
 width="32.000000pt" height="32.000000pt" viewBox="0 0 32.000000 32.000000"
 preserveAspectRatio="xMidYMid meet">
<metadata>
Created by potrace 1.16, written by Peter Selinger 2001-2019
</metadata>
<g transform="translate(0.000000,32.000000) scale(0.100000,-0.100000)"
fill="#000000" stroke="none">
<path fill="#000000" stroke="none" d="M0 160 l0 -160 160 0 160 0 0 160 0
160 -160 0 -160 0 0 -160z"/>
<path fill="#ffffff" stroke="none" d="M175 224 c0 -10 -3 -27 -8 -38 -6 -12
-5 -22 4 -30 9 -8 10 -8 4 4 -8 13 -6 13 7 2 23 -18 11 -52 -18 -52 -27 0 -30
10 -11 29 10 10 9 11 -3 8 -8 -2 -12 -2 -7 0 4 3 7 13 7 22 0 10 3 21 7 25 11
11 10 40 -2 49 -6 5 -4 7 5 4 8 -2 15 -12 15 -23z"/>
</g>
</svg>
