<?xml version="1.0" standalone="no"?>
<!DOCTYPE svg PUBLIC "-//W3C//DTD SVG 20010904//EN"
 "http://www.w3.org/TR/2001/REC-SVG-20010904/DTD/svg10.dtd">
<svg version="1.0" xmlns="http://www.w3.org/2000/svg"
 width="32.000000pt" height="32.000000pt" viewBox="0 0 32.000000 32.000000"
 preserveAspectRatio="xMidYMid meet">
<metadata>
Created by potrace 1.16, written by Peter Selinger 2001-2019
</metadata>
<g transform="translate(0.000000,32.000000) scale(0.100000,-0.100000)"
fill="#000000" stroke="none">
<path fill="#000000" stroke="none" d="M161 278 c-1 -12 -7 -16 -18 -12 -16 5
-16 4 0 -9 17 -14 17 -17 2 -47 -12 -23 -14 -35 -6 -40 7 -3 9 -14 5 -23 -4
-11 0 -19 11 -23 19 -8 36 12 28 33 -3 7 0 13 7 13 8 0 9 6 5 18 -4 9 -8 26
-10 37 -3 30 -24 74 -24 53z"/>
</g>
</svg>
