<?xml version="1.0" standalone="no"?>
<!DOCTYPE svg PUBLIC "-//W3C//DTD SVG 20010904//EN"
 "http://www.w3.org/TR/2001/REC-SVG-20010904/DTD/svg10.dtd">
<svg version="1.0" xmlns="http://www.w3.org/2000/svg"
 width="32.000000pt" height="32.000000pt" viewBox="0 0 32.000000 32.000000"
 preserveAspectRatio="xMidYMid meet">
<metadata>
Created by potrace 1.16, written by Peter Selinger 2001-2019
</metadata>
<g transform="translate(0.000000,32.000000) scale(0.100000,-0.100000)"
fill="#000000" stroke="none">
<path fill="#000000" stroke="none" d="M14 288 c-1 -18 -4 -42 -8 -54 -7 -18
-4 -20 28 -18 27 2 34 0 29 -11 -3 -8 -9 -13 -14 -10 -9 6 -35 -34 -31 -48 1
-4 -2 -17 -8 -27 -9 -17 -7 -20 15 -26 14 -3 25 -11 25 -16 0 -5 7 -2 16 6 8
9 26 16 39 16 13 0 31 3 40 7 15 5 16 3 6 -15 -7 -14 -7 -22 0 -24 5 -2 11
-13 12 -26 0 -12 10 -25 20 -28 29 -9 34 6 8 27 -13 10 -20 19 -16 19 4 0 1 8
-6 17 -11 13 -11 15 -1 9 8 -5 22 0 35 12 28 26 68 31 85 12 11 -13 12 -12 4
5 -5 13 -4 35 3 60 8 26 14 35 18 25 5 -10 6 -9 4 5 -1 11 -9 20 -17 20 -9 0
-14 -7 -11 -20 3 -20 3 -20 -18 -1 -22 20 -28 32 -11 21 16 -10 24 26 11 48
-15 22 -6 33 29 40 21 4 20 4 -7 6 -17 0 -34 -3 -38 -8 -3 -6 -18 -6 -38 0
-17 5 -48 8 -67 8 -33 -2 -33 -2 -5 -6 17 -2 47 -8 68 -14 31 -8 38 -14 34
-29 -3 -14 -1 -17 12 -13 13 5 14 3 4 -7 -10 -10 -15 -11 -27 -1 -12 10 -21 9
-45 -3 -16 -9 -42 -16 -57 -16 -23 0 -26 3 -21 28 l6 27 -12 -28 c-10 -24 -16
-27 -48 -25 -20 1 -36 7 -34 12 12 42 13 76 2 76 -7 0 -12 -14 -13 -32z"/>
<path fill="#ffffff" stroke="none" d="M232 204 c-4 -23 -6 -24 -20 -11 -16
16 -9 37 12 37 9 0 12 -9 8 -26z"/>
<path fill="#ffffff" stroke="none" d="M204 191 c12 -14 14 -21 6 -26 -7 -4
-10 -18 -7 -31 2 -14 0 -27 -4 -30 -5 -3 -9 -1 -9 3 0 8 -52 43 -63 43 -3 0
-4 -8 -3 -17 1 -15 -8 -18 -52 -19 -50 -2 -52 -1 -38 15 9 9 14 26 12 37 -3
15 1 19 18 19 12 -1 29 -5 37 -10 11 -6 12 -5 2 6 -22 23 -14 29 35 29 35 0
54 -5 66 -19z"/>
<path fill="#ffffff" stroke="none" d="M276 154 c-3 -11 -16 -20 -31 -20 -30
-2 -30 -1 -8 37 15 25 19 27 31 15 8 -8 11 -22 8 -32z"/>
<path fill="#000000" stroke="none" d="M72 30 c-10 -17 -10 -21 3 -27 25 -9
42 14 24 32 -13 13 -16 12 -27 -5z"/>
<path fill="#000000" stroke="none" d="M220 10 c0 -5 5 -10 10 -10 6 0 10 5
10 10 0 6 -4 10 -10 10 -5 0 -10 -4 -10 -10z"/>
</g>
</svg>
