<?xml version="1.0" standalone="no"?>
<!DOCTYPE svg PUBLIC "-//W3C//DTD SVG 20010904//EN"
 "http://www.w3.org/TR/2001/REC-SVG-20010904/DTD/svg10.dtd">
<svg version="1.0" xmlns="http://www.w3.org/2000/svg"
 width="32.000000pt" height="32.000000pt" viewBox="0 0 32.000000 32.000000"
 preserveAspectRatio="xMidYMid meet">
<metadata>
Created by potrace 1.16, written by Peter Selinger 2001-2019
</metadata>
<g transform="translate(0.000000,32.000000) scale(0.100000,-0.100000)"
fill="#000000" stroke="none">
<path fill="#000000" stroke="none" d="M13 303 c13 -13 20 -14 29 -5 7 7 25
12 41 12 28 0 29 -1 22 -37 -9 -48 -12 -51 -31 -27 -8 10 -13 13 -9 7 4 -8 0
-13 -9 -13 -30 0 -17 -36 19 -53 35 -17 46 -12 23 11 -9 9 -7 12 10 12 22 0
31 15 12 22 -6 2 -8 16 -4 35 5 27 12 34 39 39 19 3 46 0 68 -10 30 -12 38
-13 44 -1 5 7 19 15 33 17 14 2 -49 5 -140 6 -156 2 -164 1 -147 -15z"/>
<path fill="#000000" stroke="none" d="M53 285 c0 -6 9 -12 19 -12 10 -1 18 4
18 12 0 8 -8 13 -18 12 -10 0 -19 -6 -19 -12z"/>
<path fill="#000000" stroke="none" d="M287 294 c-3 -3 0 -15 6 -26 9 -16 9
-22 0 -25 -7 -3 -13 -12 -13 -21 0 -15 -2 -15 -11 -2 -8 12 -9 10 -7 -9 2 -20
-5 -28 -38 -45 -26 -13 -39 -26 -36 -35 3 -10 -1 -12 -17 -8 -15 3 -21 1 -21
-10 0 -9 6 -13 14 -10 15 6 26 -12 26 -45 0 -11 5 -18 13 -15 6 2 12 19 12 38
0 30 3 34 29 37 16 2 33 -1 39 -7 13 -13 37 -14 37 -2 0 5 -9 11 -19 14 -17 4
-18 9 -8 46 8 28 14 37 20 28 5 -7 7 5 4 32 -3 24 -11 47 -17 51 -9 6 -9 9 1
13 8 3 9 6 3 6 -6 1 -13 -2 -17 -5z"/>
<path fill="#ffffff" stroke="none" d="M280 173 c0 -16 -16 -30 -37 -37 -32
-10 -29 6 5 26 33 20 32 20 32 11z"/>
<path fill="#000000" stroke="none" d="M185 244 c18 -18 19 -46 3 -62 -16 -16
11 -16 44 -1 19 8 23 16 20 42 -3 30 -7 33 -43 34 -35 1 -37 0 -24 -13z"/>
<path fill="#000000" stroke="none" d="M2 220 c0 -14 2 -19 5 -12 2 6 2 18 0
25 -3 6 -5 1 -5 -13z"/>
<path fill="#000000" stroke="none" d="M25 201 c4 -20 3 -31 -2 -28 -5 4 -10
0 -10 -8 0 -8 5 -11 11 -8 6 4 3 -3 -6 -14 -25 -27 -22 -42 7 -49 14 -3 25
-11 25 -16 0 -5 7 -2 16 7 10 9 25 14 35 12 10 -3 24 2 31 11 11 13 10 15 -4
9 -9 -3 -19 -1 -22 6 -3 9 -5 9 -5 0 -1 -7 -14 -13 -30 -13 -31 0 -49 14 -32
25 13 7 10 45 -7 75 -13 24 -13 24 -7 -9z"/>
<path fill="#000000" stroke="none" d="M80 55 c7 -8 16 -12 21 -9 13 8 1 24
-18 24 -13 0 -13 -3 -3 -15z"/>
<path fill="#000000" stroke="none" d="M133 63 c-7 -2 -13 -16 -13 -29 0 -25
-15 -33 -23 -11 -4 9 -7 9 -15 -1 -10 -14 -62 -7 -62 9 0 18 -16 8 -17 -11 -2
-19 4 -20 158 -20 127 0 159 3 159 14 0 9 -8 12 -26 8 -18 -3 -25 -1 -20 6 9
14 -3 42 -19 42 -8 0 -10 -9 -7 -27 4 -23 2 -25 -17 -20 -11 3 -24 1 -27 -4
-10 -17 -23 -9 -26 18 -3 27 -20 37 -45 26z"/>
<path fill="#ffffff" stroke="none" d="M160 38 c0 -18 -2 -20 -9 -8 -6 8 -7
18 -5 22 9 14 14 9 14 -14z"/>
</g>
</svg>
