<?xml version="1.0" standalone="no"?>
<!DOCTYPE svg PUBLIC "-//W3C//DTD SVG 20010904//EN"
 "http://www.w3.org/TR/2001/REC-SVG-20010904/DTD/svg10.dtd">
<svg version="1.0" xmlns="http://www.w3.org/2000/svg"
 width="32.000000pt" height="32.000000pt" viewBox="0 0 32.000000 32.000000"
 preserveAspectRatio="xMidYMid meet">
<metadata>
Created by potrace 1.16, written by Peter Selinger 2001-2019
</metadata>
<g transform="translate(0.000000,32.000000) scale(0.100000,-0.100000)"
fill="#000000" stroke="none">
<path fill="#000000" stroke="none" d="M55 311 c3 -3 53 -6 111 -7 57 0 102 2
98 5 -3 3 -52 6 -110 7 -57 1 -102 -1 -99 -5z"/>
<path fill="#000000" stroke="none" d="M278 282 l-28 -3 0 -109 c0 -98 -10
-142 -23 -108 -4 11 -6 11 -6 0 -1 -10 -5 -10 -21 0 -17 11 -22 10 -30 -2 -7
-10 -12 -12 -17 -4 -10 14 -56 11 -61 -4 -2 -7 1 -12 7 -12 6 0 11 -5 11 -11
0 -7 -10 -9 -25 -7 -25 5 -34 -5 -15 -17 16 -10 50 5 50 21 0 8 4 14 10 14 5
0 7 -6 4 -14 -3 -9 4 -16 21 -20 30 -8 45 -1 45 20 0 8 6 14 14 14 19 0 32
-20 14 -21 -7 0 -2 -5 11 -10 18 -7 26 -5 37 8 8 11 9 22 3 28 -15 15 -11 55
6 55 12 0 13 5 7 18 -5 9 -8 22 -7 27 2 6 6 23 9 38 4 15 11 25 16 22 6 -3 7
1 4 9 -3 9 -10 13 -15 10 -5 -3 -9 6 -9 20 0 13 6 26 13 29 20 7 4 13 -25 9z"/>
<path fill="#ffffff" stroke="none" d="M290 201 c0 -6 -4 -13 -10 -16 -5 -3
-10 1 -10 9 0 9 5 16 10 16 6 0 10 -4 10 -9z"/>
<path fill="#000000" stroke="none" d="M48 273 c6 -2 9 -10 6 -15 -4 -7 -2 -8
4 -4 18 11 14 26 -5 25 -11 0 -13 -3 -5 -6z"/>
<path fill="#000000" stroke="none" d="M40 232 c-14 -2 -29 -8 -34 -12 -5 -5
0 -6 13 -3 18 5 21 1 21 -25 0 -16 7 -35 15 -42 9 -8 15 -9 15 -2 0 6 -4 14
-10 17 -14 8 -13 42 2 47 21 7 3 23 -22 20z"/>
<path fill="#000000" stroke="none" d="M89 224 c-11 -14 -9 -19 11 -34 14 -10
28 -16 32 -14 3 2 10 -1 14 -7 5 -9 0 -10 -14 -7 -25 7 -27 1 -7 -26 8 -10 13
-22 11 -25 -2 -3 9 -6 24 -6 15 0 26 3 24 6 -2 3 3 15 11 25 20 27 18 33 -7
26 -14 -3 -19 -2 -14 7 4 6 11 9 14 7 4 -2 19 4 32 14 24 19 25 19 6 37 -18
17 -18 17 -13 1 7 -19 6 -20 -53 -20 -59 0 -60 1 -54 17 8 20 0 19 -17 -1z"/>
<path fill="#ffffff" stroke="none" d="M170 140 c0 -5 -4 -10 -10 -10 -5 0
-10 5 -10 10 0 6 5 10 10 10 6 0 10 -4 10 -10z"/>
<path fill="#000000" stroke="none" d="M23 103 c9 -2 25 -2 35 0 9 3 1 5 -18
5 -19 0 -27 -2 -17 -5z"/>
</g>
</svg>
