<?xml version="1.0" standalone="no"?>
<!DOCTYPE svg PUBLIC "-//W3C//DTD SVG 20010904//EN"
 "http://www.w3.org/TR/2001/REC-SVG-20010904/DTD/svg10.dtd">
<svg version="1.0" xmlns="http://www.w3.org/2000/svg"
 width="32.000000pt" height="32.000000pt" viewBox="0 0 32.000000 32.000000"
 preserveAspectRatio="xMidYMid meet">
<metadata>
Created by potrace 1.16, written by Peter Selinger 2001-2019
</metadata>
<g transform="translate(0.000000,32.000000) scale(0.100000,-0.100000)"
fill="#000000" stroke="none">
<path fill="#000000" stroke="none" d="M61 298 c12 -21 12 -51 0 -44 -5 3 -14
-1 -21 -10 -7 -8 -18 -13 -25 -10 -6 2 -12 -2 -12 -9 0 -7 8 -10 19 -7 14 3
17 0 12 -14 -4 -14 -3 -15 4 -6 11 16 62 6 80 -16 11 -14 12 -13 12 5 0 11 -8
27 -17 34 -14 12 -16 12 -9 0 6 -9 4 -12 -5 -9 -19 6 -25 78 -7 89 19 12 72
11 85 -2 8 -8 17 -8 33 1 16 9 25 9 36 0 7 -7 11 -16 8 -21 -2 -5 2 -21 10
-37 9 -17 11 -34 6 -42 -4 -7 -6 -20 -2 -28 6 -17 -23 -42 -51 -42 -14 0 -17
5 -13 18 5 15 4 15 -7 2 -14 -18 -37 -24 -37 -10 0 5 -14 8 -30 6 -22 -2 -35
2 -45 17 l-15 21 0 -21 c0 -12 -4 -25 -10 -28 -5 -3 -7 0 -4 9 7 18 -30 11
-47 -10 -13 -16 -6 -30 21 -37 11 -3 18 -1 14 4 -3 5 -12 9 -20 9 -8 0 -14 5
-14 10 0 7 6 7 18 1 19 -10 69 -4 78 10 5 9 58 -14 66 -28 3 -5 3 -2 2 5 -5
18 72 16 79 -2 4 -9 14 -12 26 -9 12 3 17 11 14 19 -3 8 -10 11 -17 7 -6 -4
-5 1 3 10 7 9 10 17 5 17 -4 0 -3 5 4 12 7 7 12 21 12 32 0 17 2 18 10 6 7
-11 10 -4 9 25 0 29 -3 35 -8 21 -8 -22 -15 -15 -25 27 -9 38 -44 49 -148 45
-77 -3 -85 -5 -77 -20z"/>
<path fill="#ffffff" stroke="none" d="M60 240 c0 -5 -5 -10 -11 -10 -5 0 -7
5 -4 10 3 6 8 10 11 10 2 0 4 -4 4 -10z"/>
<path fill="#000000" stroke="none" d="M215 236 c-6 -6 -11 -24 -13 -41 l-3
-30 21 23 c11 12 26 22 33 23 7 0 3 4 -8 9 -11 5 -14 9 -7 9 6 1 12 5 12 9 0
12 -24 11 -35 -2z"/>
<path fill="#000000" stroke="none" d="M145 230 c-3 -6 1 -7 9 -4 18 7 21 14
7 14 -6 0 -13 -4 -16 -10z"/>
<path fill="#000000" stroke="none" d="M66 94 c-20 -19 -20 -19 0 -50 15 -22
15 -24 0 -18 -9 3 -16 1 -16 -5 0 -15 35 -22 95 -19 47 3 50 4 52 33 2 25 -1
30 -21 30 -13 0 -22 -5 -19 -11 2 -6 -3 -14 -11 -17 -10 -4 -13 -1 -9 9 3 8
-2 23 -11 33 -9 10 -13 21 -9 24 3 4 -3 7 -15 7 -11 0 -28 -7 -36 -16z"/>
<path fill="#ffffff" stroke="none" d="M103 68 c3 -12 1 -29 -4 -37 -9 -13
-10 -12 -6 5 2 12 0 29 -5 38 -5 10 -5 16 0 16 5 0 12 -10 15 -22z"/>
<path fill="#000000" stroke="none" d="M260 63 c0 -7 -9 -22 -21 -34 l-21 -21
22 7 c15 5 20 4 16 -4 -4 -6 -2 -11 4 -11 6 0 8 11 4 28 -4 21 -3 24 5 12 13
-19 14 0 1 20 -6 10 -10 11 -10 3z"/>
</g>
</svg>
