<?xml version="1.0" standalone="no"?>
<!DOCTYPE svg PUBLIC "-//W3C//DTD SVG 20010904//EN"
 "http://www.w3.org/TR/2001/REC-SVG-20010904/DTD/svg10.dtd">
<svg version="1.0" xmlns="http://www.w3.org/2000/svg"
 width="32.000000pt" height="32.000000pt" viewBox="0 0 32.000000 32.000000"
 preserveAspectRatio="xMidYMid meet">
<metadata>
Created by potrace 1.16, written by Peter Selinger 2001-2019
</metadata>
<g transform="translate(0.000000,32.000000) scale(0.100000,-0.100000)"
fill="#000000" stroke="none">
<path fill="#000000" stroke="none" d="M0 160 l0 -160 160 0 160 0 0 160 0
160 -160 0 -160 0 0 -160z"/>
<path fill="#ffffff" stroke="none" d="M180 154 c0 -12 8 -25 17 -28 15 -6 15
-8 3 -17 -13 -8 -13 -10 -1 -18 23 -15 -32 -25 -66 -13 -19 7 -22 11 -10 11
14 1 17 6 12 21 -3 11 -2 20 3 20 5 0 13 17 17 37 5 27 9 33 16 22 5 -8 9 -24
9 -35z"/>
</g>
</svg>
