<?xml version="1.0" standalone="no"?>
<!DOCTYPE svg PUBLIC "-//W3C//DTD SVG 20010904//EN"
 "http://www.w3.org/TR/2001/REC-SVG-20010904/DTD/svg10.dtd">
<svg version="1.0" xmlns="http://www.w3.org/2000/svg"
 width="32.000000pt" height="32.000000pt" viewBox="0 0 32.000000 32.000000"
 preserveAspectRatio="xMidYMid meet">
<metadata>
Created by potrace 1.16, written by Peter Selinger 2001-2019
</metadata>
<g transform="translate(0.000000,32.000000) scale(0.100000,-0.100000)"
fill="#000000" stroke="none">
<path fill="#000000" stroke="none" d="M145 191 c-3 -5 -1 -12 3 -15 14 -8 2
-57 -12 -49 -8 4 -7 2 1 -7 6 -7 9 -19 6 -27 -4 -11 0 -14 18 -11 13 1 24 8
24 13 0 6 4 16 9 24 6 9 5 12 -2 7 -7 -4 -15 9 -22 34 -11 42 -15 46 -25 31z"/>
</g>
</svg>
