<?xml version="1.0" standalone="no"?>
<!DOCTYPE svg PUBLIC "-//W3C//DTD SVG 20010904//EN"
 "http://www.w3.org/TR/2001/REC-SVG-20010904/DTD/svg10.dtd">
<svg version="1.0" xmlns="http://www.w3.org/2000/svg"
 width="32.000000pt" height="32.000000pt" viewBox="0 0 32.000000 32.000000"
 preserveAspectRatio="xMidYMid meet">
<metadata>
Created by potrace 1.16, written by Peter Selinger 2001-2019
</metadata>
<g transform="translate(0.000000,32.000000) scale(0.100000,-0.100000)"
fill="#000000" stroke="none">
<path fill="#000000" stroke="none" d="M81 296 c-10 -12 -8 -14 12 -12 12 2
32 8 43 14 17 10 16 11 -12 12 -17 0 -37 -6 -43 -14z"/>
<path fill="#000000" stroke="none" d="M177 303 c-4 -3 -7 -15 -7 -25 0 -15 3
-17 20 -8 11 6 17 16 14 25 -7 16 -17 19 -27 8z"/>
<path fill="#ffffff" stroke="none" d="M195 290 c3 -5 1 -10 -4 -10 -6 0 -11
5 -11 10 0 6 2 10 4 10 3 0 8 -4 11 -10z"/>
<path fill="#000000" stroke="none" d="M215 299 c3 -4 13 -5 22 -2 10 4 14 2
9 -5 -3 -6 -2 -14 4 -17 6 -4 9 -1 8 6 -2 7 10 16 27 19 24 6 19 7 -22 8 -29
0 -51 -4 -48 -9z"/>
<path fill="#000000" stroke="none" d="M13 265 c-9 -24 1 -27 15 -5 8 13 8 20
2 20 -6 0 -13 -7 -17 -15z"/>
<path fill="#000000" stroke="none" d="M53 265 c0 -8 4 -12 9 -9 5 3 6 10 3
15 -9 13 -12 11 -12 -6z"/>
<path fill="#000000" stroke="none" d="M16 205 c-20 -31 -18 -31 24 0 29 21
31 25 13 25 -11 0 -28 -11 -37 -25z"/>
<path fill="#000000" stroke="none" d="M97 224 c-4 -4 -7 -19 -7 -33 l0 -25
16 23 c15 21 7 51 -9 35z"/>
<path fill="#000000" stroke="none" d="M173 215 c-3 -9 -3 -18 -1 -21 3 -3 8
4 11 16 6 23 -1 27 -10 5z"/>
<path fill="#000000" stroke="none" d="M266 222 c-10 -9 -7 -32 5 -32 5 0 7 5
3 12 -5 7 -2 9 8 6 8 -4 21 -2 29 3 8 5 10 9 4 10 -5 0 -18 2 -27 4 -9 2 -19
0 -22 -3z"/>
<path fill="#000000" stroke="none" d="M17 143 c-4 -3 -7 -18 -6 -32 1 -26 1
-25 10 3 9 31 7 41 -4 29z"/>
<path fill="#000000" stroke="none" d="M37 130 c-3 -11 -3 -20 -1 -20 2 0 8 9
14 20 6 11 7 20 2 20 -6 0 -12 -9 -15 -20z"/>
<path fill="#000000" stroke="none" d="M70 139 c0 -5 4 -8 9 -4 5 3 12 1 15
-4 9 -14 39 -7 44 10 3 11 1 11 -7 -1 -7 -10 -11 -11 -11 -2 0 6 -11 12 -25
12 -14 0 -25 -5 -25 -11z"/>
<path fill="#000000" stroke="none" d="M175 142 c-3 -3 -5 -16 -5 -29 0 -20 2
-22 14 -11 10 9 11 15 2 20 -6 4 -8 8 -3 9 24 5 33 4 39 -6 5 -6 8 -4 8 5 0
13 1 13 10 0 5 -8 10 -10 10 -4 0 7 11 9 25 6 14 -2 25 0 25 6 0 10 -115 14
-125 4z"/>
<path fill="#000000" stroke="none" d="M40 61 c0 -5 7 -12 16 -15 14 -5 15 -4
4 9 -14 17 -20 19 -20 6z"/>
<path fill="#000000" stroke="none" d="M102 58 c-7 -7 -11 -23 -11 -37 2 -25
2 -25 6 -3 4 18 8 21 18 12 10 -8 13 -7 11 6 0 9 5 19 13 22 10 3 11 0 5 -9
-7 -12 -5 -12 9 0 22 17 22 16 -11 19 -15 1 -33 -3 -40 -10z"/>
<path fill="#000000" stroke="none" d="M196 61 c-4 -5 -2 -12 3 -15 5 -4 12
-2 15 3 4 5 2 12 -3 15 -5 4 -12 2 -15 -3z"/>
<path fill="#000000" stroke="none" d="M263 63 c-7 -2 -13 -14 -13 -24 0 -11
5 -17 10 -14 6 4 8 10 5 15 -3 5 0 12 6 16 7 4 9 3 5 -4 -3 -6 1 -9 11 -7 10
2 21 4 26 4 4 1 7 5 7 9 0 9 -39 12 -57 5z"/>
<path fill="#000000" stroke="none" d="M3 35 c0 -8 4 -12 9 -9 5 3 6 10 3 15
-9 13 -12 11 -12 -6z"/>
</g>
</svg>
