<?xml version="1.0" standalone="no"?>
<!DOCTYPE svg PUBLIC "-//W3C//DTD SVG 20010904//EN"
 "http://www.w3.org/TR/2001/REC-SVG-20010904/DTD/svg10.dtd">
<svg version="1.0" xmlns="http://www.w3.org/2000/svg"
 width="32.000000pt" height="32.000000pt" viewBox="0 0 32.000000 32.000000"
 preserveAspectRatio="xMidYMid meet">
<metadata>
Created by potrace 1.16, written by Peter Selinger 2001-2019
</metadata>
<g transform="translate(0.000000,32.000000) scale(0.100000,-0.100000)"
fill="#000000" stroke="none">
<path fill="#000000" stroke="none" d="M0 160 l0 -160 160 0 160 0 0 160 0
160 -160 0 -160 0 0 -160z"/>
<path fill="#ffffff" stroke="none" d="M170 180 c7 -27 15 -38 23 -33 9 5 9 3
0 -9 -7 -8 -10 -18 -6 -21 3 -4 -6 -7 -22 -7 -16 0 -25 3 -22 7 4 3 1 13 -6
21 -7 10 -8 13 -1 9 7 -4 14 3 17 18 2 14 0 28 -5 31 -8 5 -2 24 7 24 2 0 9
-18 15 -40z"/>
</g>
</svg>
