<?xml version="1.0" standalone="no"?>
<!DOCTYPE svg PUBLIC "-//W3C//DTD SVG 20010904//EN"
 "http://www.w3.org/TR/2001/REC-SVG-20010904/DTD/svg10.dtd">
<svg version="1.0" xmlns="http://www.w3.org/2000/svg"
 width="32.000000pt" height="32.000000pt" viewBox="0 0 32.000000 32.000000"
 preserveAspectRatio="xMidYMid meet">
<metadata>
Created by potrace 1.16, written by Peter Selinger 2001-2019
</metadata>
<g transform="translate(0.000000,32.000000) scale(0.100000,-0.100000)"
fill="#000000" stroke="none">
<path fill="#000000" stroke="none" d="M0 276 c0 -41 17 -50 46 -24 30 27 21
58 -17 58 -26 0 -29 -3 -29 -34z"/>
<path fill="#000000" stroke="none" d="M92 298 c-20 -20 -15 -79 7 -85 14 -3
20 -16 23 -43 2 -21 0 -36 -4 -34 -3 2 -9 0 -13 -6 -3 -5 -15 -10 -26 -10 -11
0 -18 4 -15 9 3 5 -1 14 -9 21 -8 7 -15 25 -15 41 0 36 -27 40 -36 5 -10 -43
-1 -71 23 -69 11 1 27 -4 33 -12 11 -13 7 -15 -24 -15 -36 0 -37 -1 -35 -38 2
-30 7 -38 23 -40 11 0 24 4 28 11 6 9 10 8 18 -3 8 -12 10 -10 10 10 0 14 4
31 9 39 7 11 14 8 35 -15 l25 -29 -22 -17 c-22 -17 -21 -18 26 -18 26 0 47 5
47 10 0 6 -7 10 -15 10 -22 0 -18 23 5 38 17 10 18 16 10 32 -9 17 -8 20 10
20 16 0 21 -9 26 -42 7 -39 8 -40 16 -17 8 22 10 22 19 6 6 -9 14 -15 19 -12
5 3 12 0 16 -6 4 -7 3 -9 -4 -5 -6 3 -13 2 -16 -3 -4 -5 2 -8 11 -7 13 2 19
14 21 40 3 37 3 38 -28 34 -17 -1 -34 2 -38 9 -4 6 -18 13 -32 15 -23 3 -22 4
7 9 19 3 30 2 26 -4 -3 -6 -1 -7 5 -3 7 4 12 18 12 31 0 13 5 27 10 30 22 13
8 25 -29 25 -22 0 -43 5 -46 10 -4 7 3 8 21 4 23 -6 26 -4 21 10 -4 10 -3 15
3 11 16 -10 12 41 -4 54 -16 13 -56 -1 -56 -19 0 -6 -4 -10 -9 -10 -5 0 -8 8
-7 18 1 13 -8 18 -34 20 -19 2 -41 -3 -48 -10z"/>
<path fill="#ffffff" stroke="none" d="M25 171 c3 -5 2 -12 -3 -15 -5 -3 -9 1
-9 9 0 17 3 19 12 6z"/>
<path fill="#000000" stroke="none" d="M279 288 c5 -13 12 -32 16 -43 l7 -20
8 20 c5 11 9 30 9 43 1 17 -5 22 -24 22 -21 0 -23 -3 -16 -22z"/>
<path fill="#000000" stroke="none" d="M49 243 c-13 -16 -12 -17 4 -4 16 13
21 21 13 21 -2 0 -10 -8 -17 -17z"/>
<path fill="#000000" stroke="none" d="M50 192 c0 -11 9 -27 21 -38 17 -16 22
-16 29 -4 16 25 11 40 -16 50 -33 13 -34 13 -34 -8z"/>
<path fill="#000000" stroke="none" d="M296 178 c-9 -49 -8 -53 8 -56 12 -3
16 5 16 30 0 50 -16 68 -24 26z"/>
</g>
</svg>
