<?xml version="1.0" standalone="no"?>
<!DOCTYPE svg PUBLIC "-//W3C//DTD SVG 20010904//EN"
 "http://www.w3.org/TR/2001/REC-SVG-20010904/DTD/svg10.dtd">
<svg version="1.0" xmlns="http://www.w3.org/2000/svg"
 width="32.000000pt" height="32.000000pt" viewBox="0 0 32.000000 32.000000"
 preserveAspectRatio="xMidYMid meet">
<metadata>
Created by potrace 1.16, written by Peter Selinger 2001-2019
</metadata>
<g transform="translate(0.000000,32.000000) scale(0.100000,-0.100000)"
fill="#000000" stroke="none">
<path fill="#000000" stroke="none" d="M17 303 c-4 -3 -7 -19 -7 -34 0 -26 2
-27 48 -25 26 1 53 6 61 10 10 6 12 5 7 -2 -4 -7 -1 -12 8 -12 19 0 30 17 16
25 -7 4 -7 12 0 26 10 18 7 19 -41 19 -45 0 -50 -2 -44 -17 17 -42 16 -46 -4
-15 -21 32 -32 38 -44 25z"/>
<path fill="#000000" stroke="none" d="M170 296 c0 -8 14 -26 31 -40 29 -24
31 -25 55 -9 22 14 23 18 11 37 -18 26 -97 36 -97 12z"/>
<path fill="#000000" stroke="none" d="M270 307 c0 -9 32 -67 36 -67 3 0 3 4
-1 9 -3 5 -1 13 5 16 8 5 7 12 -2 23 -10 12 -10 14 0 8 6 -4 12 -2 12 3 0 6
-11 11 -25 11 -14 0 -25 -2 -25 -3z"/>
<path fill="#000000" stroke="none" d="M2 197 c2 -31 5 -33 34 -33 18 1 31 3
28 5 -2 2 2 11 9 20 11 14 10 15 -8 1 -19 -14 -20 -14 -2 6 21 25 14 34 -30
34 -32 0 -34 -2 -31 -33z"/>
<path fill="#000000" stroke="none" d="M105 207 c-25 -36 -19 -47 25 -45 22 1
40 6 40 12 0 7 3 8 8 1 8 -12 19 -12 44 -1 30 14 4 64 -27 52 -11 -4 -15 -12
-11 -24 6 -16 5 -16 -8 1 -21 27 -53 29 -71 4z"/>
<path fill="#000000" stroke="none" d="M254 216 c-12 -31 0 -51 31 -51 27 0
30 4 33 33 3 30 1 32 -28 32 -17 0 -33 -6 -36 -14z"/>
<path fill="#000000" stroke="none" d="M13 134 c-9 -24 10 -49 42 -52 19 -3
25 0 20 9 -6 8 -4 10 4 5 7 -5 20 -1 29 8 12 10 22 12 32 6 13 -9 13 -10 0
-11 -8 -1 -19 -1 -25 1 -5 1 -4 -4 3 -11 10 -11 15 -10 27 2 13 13 13 17 -1
37 -12 18 -25 22 -70 22 -41 0 -56 -4 -61 -16z"/>
<path fill="#000000" stroke="none" d="M177 143 c-4 -3 -7 -19 -7 -35 0 -22 4
-28 23 -28 30 0 87 36 87 55 0 11 -12 15 -48 15 -27 0 -52 -3 -55 -7z"/>
<path fill="#000000" stroke="none" d="M290 125 c-5 -14 -14 -25 -20 -25 -5 0
-10 -4 -10 -10 0 -5 5 -9 12 -7 18 4 48 36 48 52 0 24 -20 17 -30 -10z"/>
<path fill="#000000" stroke="none" d="M0 34 c0 -30 3 -34 14 -25 7 6 11 22 8
36 -7 38 -22 30 -22 -11z"/>
<path fill="#000000" stroke="none" d="M30 66 c0 -1 5 -16 10 -33 11 -29 37
-42 37 -17 0 7 -4 11 -9 8 -4 -3 -8 -1 -8 5 0 5 5 11 12 13 17 6 0 28 -23 28
-10 0 -19 -2 -19 -4z"/>
<path fill="#000000" stroke="none" d="M97 63 c-4 -3 -7 -20 -7 -36 0 -22 4
-28 16 -23 9 3 22 6 29 6 18 0 28 30 14 46 -12 15 -41 19 -52 7z"/>
<path fill="#000000" stroke="none" d="M163 35 c-1 -31 0 -34 17 -25 25 13 33
13 24 -2 -4 -7 2 -4 13 7 26 26 13 55 -25 55 -24 0 -27 -4 -29 -35z"/>
<path fill="#000000" stroke="none" d="M267 52 c-10 -10 -17 -24 -17 -30 0
-17 19 -25 33 -14 7 6 17 10 22 9 6 -1 11 10 13 26 3 21 -1 27 -16 27 -10 0
-26 -8 -35 -18z"/>
</g>
</svg>
