<?xml version="1.0" standalone="no"?>
<!DOCTYPE svg PUBLIC "-//W3C//DTD SVG 20010904//EN"
 "http://www.w3.org/TR/2001/REC-SVG-20010904/DTD/svg10.dtd">
<svg version="1.0" xmlns="http://www.w3.org/2000/svg"
 width="32.000000pt" height="32.000000pt" viewBox="0 0 32.000000 32.000000"
 preserveAspectRatio="xMidYMid meet">
<metadata>
Created by potrace 1.16, written by Peter Selinger 2001-2019
</metadata>
<g transform="translate(0.000000,32.000000) scale(0.100000,-0.100000)"
fill="#000000" stroke="none">
<path fill="#000000" stroke="none" d="M62 292 c15 -38 5 -62 -26 -62 -14 0
-27 -3 -30 -8 -2 -4 13 -6 34 -4 38 4 39 5 42 46 3 46 19 54 85 41 28 -5 33
-10 28 -23 -4 -9 -8 -24 -9 -32 0 -8 -8 -18 -16 -22 -11 -5 -9 -7 8 -7 16 -1
22 -7 23 -23 1 -19 2 -20 6 -5 4 16 13 18 58 15 33 -2 51 1 49 7 -3 6 -24 9
-48 8 -53 -3 -87 17 -67 40 7 9 19 13 27 10 9 -3 21 3 30 15 8 11 27 23 42 25
25 4 25 4 -5 6 -21 0 -35 -5 -41 -16 -9 -15 -12 -15 -45 0 -39 19 -112 23
-122 7 -5 -8 -11 -7 -20 0 -12 10 -12 6 -3 -18z"/>
<path fill="#000000" stroke="none" d="M53 194 c-14 -13 -21 -24 -16 -24 6 0
16 7 24 16 7 9 22 14 36 11 28 -5 31 9 3 16 -14 3 -30 -3 -47 -19z"/>
<path fill="#000000" stroke="none" d="M135 199 c-11 -17 1 -21 15 -4 8 9 8
15 2 15 -6 0 -14 -5 -17 -11z"/>
<path fill="#000000" stroke="none" d="M299 127 c-15 -20 -19 -20 -41 -8 -14
7 -34 11 -44 8 -13 -3 -11 -5 9 -6 15 0 27 -5 27 -11 0 -5 16 -10 35 -10 31 0
35 3 35 25 0 30 -1 30 -21 2z"/>
<path fill="#000000" stroke="none" d="M108 132 c-10 -2 -18 -8 -18 -13 0 -13
-58 -11 -62 3 -2 6 -10 8 -16 4 -22 -13 -2 -26 41 -26 23 0 51 7 61 15 22 17
19 23 -6 17z"/>
<path fill="#000000" stroke="none" d="M230 78 c0 -4 -12 -9 -27 -9 l-28 -1
30 -8 c23 -6 14 -8 -38 -9 -43 -1 -66 3 -62 9 3 6 -1 10 -11 10 -12 0 -15 -7
-12 -29 4 -26 2 -29 -19 -25 -13 3 -23 0 -23 -6 0 -6 47 -10 125 -10 81 0 125
4 125 11 0 5 4 8 9 4 21 -12 19 13 -3 40 -21 26 -66 42 -66 23z"/>
<path fill="#ffffff" stroke="none" d="M285 35 c0 -27 -31 -32 -38 -6 -6 24 1
33 23 29 8 -2 15 -12 15 -23z"/>
<path fill="#ffffff" stroke="none" d="M224 28 c-3 -4 -9 -6 -14 -3 -5 3 -11
1 -15 -5 -8 -13 -56 -9 -80 7 -18 12 -12 14 47 12 37 -1 65 -6 62 -11z"/>
<path fill="#000000" stroke="none" d="M10 26 c0 -8 4 -17 9 -20 5 -4 7 3 4
14 -6 23 -13 26 -13 6z"/>
</g>
</svg>
