<?xml version="1.0" standalone="no"?>
<!DOCTYPE svg PUBLIC "-//W3C//DTD SVG 20010904//EN"
 "http://www.w3.org/TR/2001/REC-SVG-20010904/DTD/svg10.dtd">
<svg version="1.0" xmlns="http://www.w3.org/2000/svg"
 width="32.000000pt" height="32.000000pt" viewBox="0 0 32.000000 32.000000"
 preserveAspectRatio="xMidYMid meet">
<metadata>
Created by potrace 1.16, written by Peter Selinger 2001-2019
</metadata>
<g transform="translate(0.000000,32.000000) scale(0.100000,-0.100000)"
fill="#000000" stroke="none">
<path fill="#000000" stroke="none" d="M4 303 c0 -10 6 -22 11 -26 6 -6 6 -10
-2 -14 -9 -3 -13 -32 -13 -92 l0 -88 25 5 c22 4 25 1 25 -27 0 -32 -16 -41
-38 -19 -9 9 -12 6 -12 -15 l0 -27 160 0 160 0 0 141 c0 86 -4 138 -9 134 -6
-3 -15 3 -20 14 -9 16 -7 20 12 24 12 2 -51 5 -139 6 -148 1 -162 0 -160 -16z"/>
<path fill="#ffffff" stroke="none" d="M90 290 c0 -5 -5 -10 -11 -10 -5 0 -7
-4 -4 -10 3 -5 1 -10 -5 -10 -6 0 -8 -4 -5 -10 3 -5 2 -10 -3 -10 -16 0 -23
31 -11 46 13 16 39 19 39 4z"/>
<path fill="#ffffff" stroke="none" d="M197 288 l33 -12 -48 -18 c-26 -10 -50
-18 -54 -18 -12 0 -9 35 4 48 15 15 23 15 65 0z"/>
<path fill="#ffffff" stroke="none" d="M220 220 c0 -5 -5 -10 -11 -10 -5 0 -7
5 -4 10 3 6 8 10 11 10 2 0 4 -4 4 -10z"/>
<path fill="#ffffff" stroke="none" d="M40 216 c0 -2 -7 -6 -15 -10 -8 -3 -15
-1 -15 4 0 6 7 10 15 10 8 0 15 -2 15 -4z"/>
<path fill="#ffffff" stroke="none" d="M200 193 c2 -2 -2 -8 -10 -13 -8 -6
-11 -10 -5 -10 5 0 4 -5 -2 -11 -9 -9 -20 -5 -44 12 l-33 23 24 7 c23 6 59 2
70 -8z"/>
<path fill="#ffffff" stroke="none" d="M260 175 c-7 -9 -15 -13 -17 -11 -7 7
7 26 19 26 6 0 6 -6 -2 -15z"/>
<path fill="#ffffff" stroke="none" d="M103 153 c11 -10 -13 -33 -34 -33 -18
0 -26 20 -12 33 8 9 38 9 46 0z"/>
<path fill="#ffffff" stroke="none" d="M240 146 c0 -3 -4 -8 -10 -11 -5 -3
-10 -1 -10 4 0 6 5 11 10 11 6 0 10 -2 10 -4z"/>
<path fill="#ffffff" stroke="none" d="M294 105 c17 -13 18 -18 7 -42 l-13
-28 -11 22 c-13 24 -27 20 -45 -12 -11 -20 -11 -20 -12 2 0 12 -5 25 -12 29
-7 5 -8 3 -3 -6 5 -9 4 -11 -3 -6 -9 5 -7 14 4 32 19 28 58 32 88 9z"/>
<path fill="#ffffff" stroke="none" d="M150 90 c0 -5 -4 -10 -9 -10 -6 0 -13
5 -16 10 -3 6 1 10 9 10 9 0 16 -4 16 -10z"/>
<path fill="#ffffff" stroke="none" d="M100 80 c0 -5 11 -10 25 -10 14 0 25
-6 25 -14 0 -11 -9 -11 -45 -3 -36 8 -42 13 -34 24 13 15 29 17 29 3z"/>
</g>
</svg>
