<?xml version="1.0" standalone="no"?>
<!DOCTYPE svg PUBLIC "-//W3C//DTD SVG 20010904//EN"
 "http://www.w3.org/TR/2001/REC-SVG-20010904/DTD/svg10.dtd">
<svg version="1.0" xmlns="http://www.w3.org/2000/svg"
 width="32.000000pt" height="32.000000pt" viewBox="0 0 32.000000 32.000000"
 preserveAspectRatio="xMidYMid meet">
<metadata>
Created by potrace 1.16, written by Peter Selinger 2001-2019
</metadata>
<g transform="translate(0.000000,32.000000) scale(0.100000,-0.100000)"
fill="#000000" stroke="none">
<path fill="#000000" stroke="none" d="M89 224 c-11 -14 -9 -19 11 -34 14 -10
28 -16 32 -14 3 2 10 -1 14 -7 5 -9 0 -10 -14 -7 -25 7 -27 1 -7 -26 8 -10 13
-22 11 -25 -2 -3 9 -6 24 -6 15 0 26 3 24 6 -2 3 3 15 11 25 20 27 18 33 -7
26 -14 -3 -19 -2 -14 7 4 6 11 9 14 7 4 -2 19 4 32 14 24 19 25 19 6 37 -18
17 -18 17 -13 1 7 -19 6 -20 -53 -20 -59 0 -60 1 -54 17 8 20 0 19 -17 -1z"/>
<path fill="#ffffff" stroke="none" d="M170 140 c0 -5 -4 -10 -10 -10 -5 0
-10 5 -10 10 0 6 5 10 10 10 6 0 10 -4 10 -10z"/>
</g>
</svg>
