<?xml version="1.0" standalone="no"?>
<!DOCTYPE svg PUBLIC "-//W3C//DTD SVG 20010904//EN"
 "http://www.w3.org/TR/2001/REC-SVG-20010904/DTD/svg10.dtd">
<svg version="1.0" xmlns="http://www.w3.org/2000/svg"
 width="32.000000pt" height="32.000000pt" viewBox="0 0 32.000000 32.000000"
 preserveAspectRatio="xMidYMid meet">
<metadata>
Created by potrace 1.16, written by Peter Selinger 2001-2019
</metadata>
<g transform="translate(0.000000,32.000000) scale(0.100000,-0.100000)"
fill="#000000" stroke="none">
<path fill="#000000" stroke="none" d="M0 285 c0 -29 8 -32 26 -7 19 24 17 32
-6 32 -15 0 -20 -7 -20 -25z"/>
<path fill="#000000" stroke="none" d="M208 296 c-10 -7 -18 -17 -18 -21 0 -4
7 -2 15 5 8 7 22 9 31 6 10 -4 14 -1 12 6 -6 17 -21 19 -40 4z"/>
<path fill="#000000" stroke="none" d="M290 290 c6 -11 15 -20 20 -20 6 0 10
9 10 20 0 13 -7 20 -20 20 -18 0 -19 -3 -10 -20z"/>
<path fill="#000000" stroke="none" d="M93 281 c-13 -21 -12 -21 40 -6 35 9
35 25 -1 25 -16 0 -32 -8 -39 -19z"/>
<path fill="#000000" stroke="none" d="M153 223 c-13 -2 -23 -9 -23 -14 0 -15
53 -7 58 9 2 6 0 11 -5 11 -4 -1 -18 -4 -30 -6z"/>
<path fill="#000000" stroke="none" d="M10 209 c0 -5 5 -7 10 -4 6 3 10 8 10
11 0 2 -4 4 -10 4 -5 0 -10 -5 -10 -11z"/>
<path fill="#000000" stroke="none" d="M234 202 c-5 -4 -10 -17 -10 -29 0 -18
3 -20 14 -10 10 8 11 12 3 15 -9 3 -9 7 0 18 13 15 10 18 -7 6z"/>
<path fill="#000000" stroke="none" d="M86 188 c3 -5 10 -6 15 -3 13 9 11 12
-6 12 -8 0 -12 -4 -9 -9z"/>
<path fill="#000000" stroke="none" d="M150 180 c0 -5 7 -10 16 -10 8 0 12 5
9 10 -3 6 -10 10 -16 10 -5 0 -9 -4 -9 -10z"/>
<path fill="#000000" stroke="none" d="M137 109 c7 -7 15 -10 18 -7 3 3 -2 9
-12 12 -14 6 -15 5 -6 -5z"/>
<path fill="#000000" stroke="none" d="M180 106 c0 -9 7 -12 20 -9 11 3 20 9
20 14 0 5 -9 9 -20 9 -11 0 -20 -6 -20 -14z"/>
<path fill="#000000" stroke="none" d="M227 105 c-7 -16 8 -29 23 -20 10 6 2
35 -10 35 -4 0 -10 -7 -13 -15z"/>
<path fill="#000000" stroke="none" d="M10 84 c0 -8 5 -12 10 -9 6 3 10 10 10
16 0 5 -4 9 -10 9 -5 0 -10 -7 -10 -16z"/>
<path fill="#000000" stroke="none" d="M44 86 c-3 -8 -1 -22 4 -32 7 -13 9
-10 8 15 -1 34 -4 38 -12 17z"/>
<path fill="#000000" stroke="none" d="M270 91 c0 -11 26 -22 34 -14 12 12 5
23 -14 23 -11 0 -20 -4 -20 -9z"/>
</g>
</svg>
