<?xml version="1.0" standalone="no"?>
<!DOCTYPE svg PUBLIC "-//W3C//DTD SVG 20010904//EN"
 "http://www.w3.org/TR/2001/REC-SVG-20010904/DTD/svg10.dtd">
<svg version="1.0" xmlns="http://www.w3.org/2000/svg"
 width="32.000000pt" height="32.000000pt" viewBox="0 0 32.000000 32.000000"
 preserveAspectRatio="xMidYMid meet">
<metadata>
Created by potrace 1.16, written by Peter Selinger 2001-2019
</metadata>
<g transform="translate(0.000000,32.000000) scale(0.100000,-0.100000)"
fill="#000000" stroke="none">
<path fill="#000000" stroke="none" d="M18 313 c27 -5 28 -13 2 -41 -18 -19
-20 -35 -20 -147 l0 -125 160 0 160 0 0 135 c0 123 -6 155 -25 125 -3 -5 -10
-10 -15 -10 -10 0 -8 19 3 38 5 6 5 12 0 13 -4 1 3 5 17 9 15 5 -44 8 -140 8
-91 -1 -155 -3 -142 -5z"/>
<path fill="#ffffff" stroke="none" d="M147 265 c-11 -35 -21 -43 -32 -25 -4
6 -11 8 -16 5 -5 -4 -9 3 -9 14 0 21 24 40 52 41 14 0 15 -5 5 -35z"/>
<path fill="#ffffff" stroke="none" d="M235 260 c-27 -12 -35 -12 -35 0 0 6
12 10 28 9 24 0 25 -1 7 -9z"/>
<path fill="#ffffff" stroke="none" d="M40 216 c0 -2 -7 -6 -15 -10 -8 -3 -15
-1 -15 4 0 6 7 10 15 10 8 0 15 -2 15 -4z"/>
<path fill="#ffffff" stroke="none" d="M263 190 c-20 -23 -43 -26 -43 -6 0 15
15 24 42 25 17 1 17 0 1 -19z"/>
<path fill="#ffffff" stroke="none" d="M110 191 c0 -6 -4 -12 -9 -15 -13 -8
-42 4 -35 15 7 12 44 12 44 0z"/>
<path fill="#ffffff" stroke="none" d="M145 110 c-3 -5 -12 -10 -19 -10 -7 0
-26 -11 -42 -25 -63 -55 -69 -57 -60 -19 5 17 3 23 -4 19 -5 -3 -10 1 -10 9 0
12 11 16 44 16 25 0 48 5 51 10 3 6 15 10 26 10 11 0 17 -4 14 -10z"/>
<path fill="#ffffff" stroke="none" d="M230 111 c0 -14 -28 -33 -39 -27 -16
10 -1 36 20 36 10 0 19 -4 19 -9z"/>
<path fill="#ffffff" stroke="none" d="M308 81 c3 -8 -1 -12 -9 -9 -7 2 -15
10 -17 17 -3 8 1 12 9 9 7 -2 15 -10 17 -17z"/>
<path fill="#ffffff" stroke="none" d="M245 43 c-11 -3 -26 -10 -32 -15 -8 -6
-13 -7 -13 -1 0 16 12 23 39 22 21 -1 22 -2 6 -6z"/>
</g>
</svg>
