<?xml version="1.0" standalone="no"?>
<!DOCTYPE svg PUBLIC "-//W3C//DTD SVG 20010904//EN"
 "http://www.w3.org/TR/2001/REC-SVG-20010904/DTD/svg10.dtd">
<svg version="1.0" xmlns="http://www.w3.org/2000/svg"
 width="32.000000pt" height="32.000000pt" viewBox="0 0 32.000000 32.000000"
 preserveAspectRatio="xMidYMid meet">
<metadata>
Created by potrace 1.16, written by Peter Selinger 2001-2019
</metadata>
<g transform="translate(0.000000,32.000000) scale(0.100000,-0.100000)"
fill="#000000" stroke="none">
<path fill="#000000" stroke="none" d="M59 302 c10 -19 10 -26 -1 -40 -11 -13
-11 -15 2 -7 13 8 13 7 1 -9 -9 -11 -24 -16 -38 -13 -14 3 -23 -1 -23 -8 0 -9
8 -11 22 -7 16 4 19 2 13 -9 -8 -12 -6 -12 8 0 10 8 20 11 24 7 3 -3 2 -6 -3
-6 -6 0 -11 -17 -12 -37 -2 -25 -10 -44 -25 -55 l-22 -18 23 0 c15 0 22 -6 22
-19 0 -25 18 -37 33 -21 9 10 9 14 -1 17 -10 4 -8 9 5 19 11 8 13 13 6 14 -21
0 -15 20 6 20 11 0 26 -9 35 -21 11 -16 20 -19 38 -14 20 7 21 6 10 -8 -11
-13 -10 -17 6 -26 16 -8 25 -6 45 9 13 11 27 16 31 13 3 -3 6 -2 6 4 0 6 10
13 22 16 l21 6 -24 21 c-13 12 -19 19 -12 15 8 -3 14 7 19 30 3 19 10 32 15
29 5 -3 6 2 3 10 -3 9 -11 14 -17 13 -7 -1 -13 14 -15 36 -3 31 -8 40 -30 48
-20 8 -32 7 -47 -2 -14 -8 -20 -9 -23 0 -5 14 -89 15 -97 1 -5 -8 -12 -7 -23
2 -14 12 -14 10 -3 -10z"/>
<path fill="#ffffff" stroke="none" d="M177 299 c8 -8 17 -8 33 1 19 10 26 9
43 -9 18 -17 19 -24 9 -46 -13 -28 -39 -33 -48 -10 -9 24 -41 38 -47 21 -4
-10 0 -12 14 -9 13 4 19 0 19 -11 0 -14 -9 -17 -57 -14 -55 3 -58 4 -61 31 -2
16 -1 35 2 43 6 17 77 19 93 3z"/>
<path fill="#ffffff" stroke="none" d="M290 191 c0 -11 -6 -23 -12 -27 -7 -4
-10 -4 -6 1 4 4 3 16 -3 26 -7 15 -6 19 6 19 8 0 15 -9 15 -19z"/>
<path fill="#ffffff" stroke="none" d="M135 150 c19 -8 19 -9 -2 -9 -12 -1
-25 4 -28 9 -7 12 2 12 30 0z"/>
<path fill="#ffffff" stroke="none" d="M215 130 c-3 -5 -11 -10 -16 -10 -6 0
-7 5 -4 10 3 6 11 10 16 10 6 0 7 -4 4 -10z"/>
<path fill="#ffffff" stroke="none" d="M224 83 c-5 -5 -12 -12 -16 -18 -4 -6
-8 -2 -8 8 0 9 7 17 17 17 9 0 12 -3 7 -7z"/>
<path fill="#000000" stroke="none" d="M125 70 c-4 -7 1 -14 14 -17 12 -3 21
-10 21 -16 0 -6 -3 -7 -7 -4 -3 4 -12 -1 -19 -11 -7 -9 -14 -12 -14 -5 0 6 -9
9 -21 6 -12 -3 -24 0 -29 6 -5 9 -9 6 -13 -8 -5 -20 -2 -21 64 -20 38 1 71 5
74 9 2 4 -11 21 -29 39 -23 22 -36 29 -41 21z"/>
<path fill="#000000" stroke="none" d="M255 37 c-10 -8 -15 -19 -11 -26 11
-18 29 -8 33 17 3 26 3 26 -22 9z"/>
<path fill="#000000" stroke="none" d="M10 16 c0 -2 7 -6 15 -10 8 -3 15 -1
15 4 0 6 -7 10 -15 10 -8 0 -15 -2 -15 -4z"/>
</g>
</svg>
