<?xml version="1.0" standalone="no"?>
<!DOCTYPE svg PUBLIC "-//W3C//DTD SVG 20010904//EN"
 "http://www.w3.org/TR/2001/REC-SVG-20010904/DTD/svg10.dtd">
<svg version="1.0" xmlns="http://www.w3.org/2000/svg"
 width="32.000000pt" height="32.000000pt" viewBox="0 0 32.000000 32.000000"
 preserveAspectRatio="xMidYMid meet">
<metadata>
Created by potrace 1.16, written by Peter Selinger 2001-2019
</metadata>
<g transform="translate(0.000000,32.000000) scale(0.100000,-0.100000)"
fill="#000000" stroke="none">
<path fill="#000000" stroke="none" d="M1 160 l-2 -160 161 0 161 0 -2 160 -2
160 -157 0 -158 0 -1 -160z"/>
<path fill="#ffffff" stroke="none" d="M146 285 c-3 -8 -1 -15 3 -15 5 0 12 6
14 13 3 7 6 4 6 -6 1 -10 5 -16 10 -13 5 3 11 -5 13 -19 3 -14 1 -25 -4 -25
-5 0 -4 -9 2 -19 16 -30 12 -66 -9 -86 -19 -17 -21 -16 -40 16 -13 21 -17 38
-11 48 4 9 6 29 3 45 -5 23 -3 27 8 21 11 -7 12 -6 3 6 -21 27 -24 49 -8 49
10 0 14 -6 10 -15z"/>
<path fill="#ffffff" stroke="none" d="M244 196 c-10 -8 -21 -12 -24 -10 -5 6
21 24 34 24 6 0 1 -6 -10 -14z"/>
</g>
</svg>
