<?xml version="1.0" standalone="no"?>
<!DOCTYPE svg PUBLIC "-//W3C//DTD SVG 20010904//EN"
 "http://www.w3.org/TR/2001/REC-SVG-20010904/DTD/svg10.dtd">
<svg version="1.0" xmlns="http://www.w3.org/2000/svg"
 width="32.000000pt" height="32.000000pt" viewBox="0 0 32.000000 32.000000"
 preserveAspectRatio="xMidYMid meet">
<metadata>
Created by potrace 1.16, written by Peter Selinger 2001-2019
</metadata>
<g transform="translate(0.000000,32.000000) scale(0.100000,-0.100000)"
fill="#000000" stroke="none">
<path fill="#000000" stroke="none" d="M1 216 l0 -104 61 0 c52 1 61 4 66 21
5 19 7 19 28 -8 27 -35 50 -28 57 17 8 48 -24 75 -82 70 -31 -3 -41 -8 -37
-18 4 -9 -2 -14 -17 -14 -13 0 -29 -6 -36 -12 -10 -11 -12 -9 -9 7 2 11 10 20
17 20 8 0 16 6 19 13 2 7 -2 13 -9 11 -45 -6 -50 0 -44 45 4 27 3 46 -4 50 -7
5 -10 -27 -10 -98z"/>
<path fill="#ffffff" stroke="none" d="M40 136 c0 -11 -19 -15 -25 -6 -3 5 1
10 9 10 9 0 16 -2 16 -4z"/>
<path fill="#000000" stroke="none" d="M36 301 c-16 -62 -16 -71 1 -71 10 0
28 -3 41 -6 18 -5 22 -2 23 17 1 17 3 19 6 7 5 -19 22 -22 60 -12 14 4 20 11
16 18 -4 6 1 5 10 -3 11 -9 17 -10 17 -2 0 6 5 11 11 11 5 0 7 -4 4 -10 -3 -5
3 -10 14 -10 11 0 23 5 27 12 4 7 3 8 -5 4 -6 -4 -11 -4 -10 1 4 22 -3 32 -29
42 l-27 11 28 -4 c15 -2 29 0 31 3 3 4 -45 7 -105 7 -92 1 -109 -1 -113 -15z"/>
<path fill="#000000" stroke="none" d="M265 300 c-4 -6 -1 -17 5 -25 7 -8 9
-26 5 -44 -4 -18 -2 -32 5 -36 8 -5 10 -1 6 12 -4 14 -2 20 9 20 18 0 18 3 1
-38 -7 -19 -12 -42 -11 -51 3 -14 -4 -18 -28 -18 -36 -1 -84 -37 -84 -63 0 -9
4 -17 8 -17 4 0 11 -9 14 -20 5 -17 15 -20 66 -20 l59 0 -1 155 0 155 -24 0
c-13 0 -27 -5 -30 -10z"/>
<path fill="#000000" stroke="none" d="M206 222 c-3 -5 1 -18 9 -28 13 -17 14
-18 15 -1 0 9 0 20 1 24 1 11 -18 15 -25 5z"/>
<path fill="#000000" stroke="none" d="M233 163 c-15 -32 -13 -36 19 -28 18 5
25 13 24 28 -1 32 -29 32 -43 0z"/>
<path fill="#000000" stroke="none" d="M131 101 c-7 -5 -21 -7 -31 -4 -9 3
-24 -3 -33 -11 -8 -9 -17 -12 -19 -7 -2 4 -13 12 -25 15 -22 7 -23 5 -23 -43
0 -29 5 -51 11 -51 5 0 7 6 3 13 -6 10 -4 10 7 0 7 -7 22 -13 33 -13 12 0 16
3 10 8 -6 4 -4 13 7 24 15 14 20 14 29 3 8 -10 7 -16 -7 -24 -15 -9 -11 -10
20 -11 21 0 36 4 33 9 -3 5 0 11 7 14 14 5 16 79 2 84 -6 1 -16 -1 -24 -6z"/>
<path fill="#000000" stroke="none" d="M160 9 c0 -5 5 -7 10 -4 6 3 10 8 10
11 0 2 -4 4 -10 4 -5 0 -10 -5 -10 -11z"/>
</g>
</svg>
