<?xml version="1.0" standalone="no"?>
<!DOCTYPE svg PUBLIC "-//W3C//DTD SVG 20010904//EN"
 "http://www.w3.org/TR/2001/REC-SVG-20010904/DTD/svg10.dtd">
<svg version="1.0" xmlns="http://www.w3.org/2000/svg"
 width="32.000000pt" height="32.000000pt" viewBox="0 0 32.000000 32.000000"
 preserveAspectRatio="xMidYMid meet">
<metadata>
Created by potrace 1.16, written by Peter Selinger 2001-2019
</metadata>
<g transform="translate(0.000000,32.000000) scale(0.100000,-0.100000)"
fill="#000000" stroke="none">
<path fill="#000000" stroke="none" d="M290 290 c12 -22 30 -18 30 6 0 8 -9
14 -20 14 -18 0 -19 -3 -10 -20z"/>
<path fill="#000000" stroke="none" d="M51 286 c-12 -15 -5 -46 11 -46 5 0 6
5 3 10 -3 6 -1 10 5 10 6 0 8 5 5 10 -3 6 -1 10 4 10 6 0 11 5 11 10 0 15 -26
12 -39 -4z"/>
<path fill="#000000" stroke="none" d="M132 288 c-13 -13 -16 -48 -4 -48 4 0
28 8 54 18 l48 18 -33 12 c-42 15 -50 15 -65 0z"/>
<path fill="#000000" stroke="none" d="M0 270 c0 -5 5 -10 10 -10 6 0 10 5 10
10 0 6 -4 10 -10 10 -5 0 -10 -4 -10 -10z"/>
<path fill="#000000" stroke="none" d="M205 220 c-3 -5 -1 -10 4 -10 6 0 11 5
11 10 0 6 -2 10 -4 10 -3 0 -8 -4 -11 -10z"/>
<path fill="#000000" stroke="none" d="M10 210 c0 -5 7 -7 15 -4 8 4 15 8 15
10 0 2 -7 4 -15 4 -8 0 -15 -4 -15 -10z"/>
<path fill="#000000" stroke="none" d="M110 181 c0 -28 25 -45 47 -32 14 8 15
10 3 11 -13 0 -13 1 0 10 13 9 13 11 0 20 -25 16 -50 12 -50 -9z"/>
<path fill="#ffffff" stroke="none" d="M140 170 c0 -5 -4 -10 -10 -10 -5 0
-10 5 -10 10 0 6 5 10 10 10 6 0 10 -4 10 -10z"/>
<path fill="#000000" stroke="none" d="M245 179 c-11 -17 1 -21 15 -4 8 9 8
15 2 15 -6 0 -14 -5 -17 -11z"/>
<path fill="#000000" stroke="none" d="M57 153 c-17 -16 -6 -35 18 -31 13 3
24 2 23 -1 0 -3 1 -9 2 -13 1 -5 3 -14 4 -20 0 -8 15 -13 36 -13 22 0 34 5 32
13 -1 6 2 12 8 12 5 0 10 -7 10 -15 0 -8 16 -32 35 -52 21 -22 35 -31 35 -23
0 13 2 13 10 0 7 -11 10 -11 10 -2 0 8 5 10 13 6 7 -4 9 -3 4 2 -5 5 -13 10
-18 10 -5 1 -11 3 -14 4 -3 1 -8 3 -12 4 -14 2 -51 44 -57 64 -8 23 -39 39
-44 23 -5 -14 -32 -14 -32 0 0 5 6 7 13 4 6 -4 1 3 -13 14 -25 21 -51 27 -63
14z"/>
<path fill="#000000" stroke="none" d="M220 139 c0 -5 5 -7 10 -4 6 3 10 8 10
11 0 2 -4 4 -10 4 -5 0 -10 -5 -10 -11z"/>
<path fill="#000000" stroke="none" d="M220 111 c0 -14 30 -42 40 -36 4 3 10
-2 14 -10 8 -21 24 -19 31 6 5 14 1 25 -12 34 -20 16 -73 20 -73 6z"/>
<path fill="#000000" stroke="none" d="M76 90 c-5 -14 -9 -28 -11 -32 -6 -19
-7 -23 -7 -29 1 -3 -6 -6 -14 -6 -8 0 -14 4 -14 9 0 4 5 8 10 8 6 0 10 12 10
26 0 21 -4 25 -22 22 -24 -3 -31 -24 -15 -46 6 -7 5 -17 -2 -25 -9 -11 -5 -14
17 -12 21 1 31 9 45 39 10 21 17 45 15 54 -3 13 -6 10 -12 -8z"/>
<path fill="#000000" stroke="none" d="M126 63 c-4 -5 -13 -8 -19 -8 -7 0 -13
-7 -14 -15 -4 -20 14 -47 24 -37 4 5 1 13 -7 18 -11 8 -8 8 10 3 14 -4 27 -9
30 -13 3 -3 17 -8 33 -9 19 -3 27 1 27 13 0 12 -4 13 -17 7 -25 -13 -43 -4
-36 16 6 15 4 15 -9 4 -14 -11 -16 -10 -11 7 6 22 2 26 -11 14z"/>
</g>
</svg>
