<?xml version="1.0" standalone="no"?>
<!DOCTYPE svg PUBLIC "-//W3C//DTD SVG 20010904//EN"
 "http://www.w3.org/TR/2001/REC-SVG-20010904/DTD/svg10.dtd">
<svg version="1.0" xmlns="http://www.w3.org/2000/svg"
 width="32.000000pt" height="32.000000pt" viewBox="0 0 32.000000 32.000000"
 preserveAspectRatio="xMidYMid meet">
<metadata>
Created by potrace 1.16, written by Peter Selinger 2001-2019
</metadata>
<g transform="translate(0.000000,32.000000) scale(0.100000,-0.100000)"
fill="#000000" stroke="none">
<path fill="#000000" stroke="none" d="M62 292 c16 -43 4 -65 -32 -60 -20 3
-30 0 -30 -8 0 -7 8 -10 20 -7 16 4 20 0 20 -19 0 -35 22 -78 41 -78 40 0 60
74 28 104 -9 8 -10 7 -4 -4 8 -13 7 -13 -9 -1 -12 10 -16 25 -14 50 3 36 4 36
48 36 38 0 45 -3 46 -20 0 -11 -6 -28 -14 -37 -14 -16 -13 -18 7 -18 14 0 20
4 16 13 -3 6 2 2 11 -10 12 -17 27 -23 55 -23 44 0 44 -1 24 -39 -8 -16 -13
-30 -10 -32 2 -2 -13 -5 -33 -6 -29 -1 -33 0 -17 7 11 5 14 9 7 9 -7 1 -10 6
-7 11 3 6 2 10 -4 10 -5 0 -13 -9 -16 -20 -4 -11 -15 -20 -26 -20 -11 0 -18 4
-15 9 4 5 -1 8 -9 7 -27 -4 -28 -15 -1 -27 16 -8 25 -18 22 -26 -4 -8 -1 -11
5 -8 6 4 8 13 5 21 -4 11 4 14 33 14 23 0 41 -5 44 -13 3 -9 16 -12 36 -9 35
5 41 17 12 25 -16 4 -22 30 -11 45 3 3 7 19 9 35 1 8 4 7 11 -3 8 -13 10 -12
10 4 0 10 -7 24 -15 30 -8 6 -17 21 -20 34 -6 32 -12 39 -41 46 -16 4 -32 2
-42 -6 -12 -10 -16 -10 -19 0 -6 15 -89 17 -98 2 -5 -8 -11 -7 -20 0 -12 10
-12 6 -3 -18z"/>
<path fill="#ffffff" stroke="none" d="M257 280 c16 -33 7 -53 -20 -39 -17 10
-19 9 -13 -7 5 -15 1 -14 -14 5 -25 29 -25 47 -2 60 23 14 35 9 49 -19z"/>
<path fill="#ffffff" stroke="none" d="M74 204 c9 -3 13 -11 9 -17 -4 -6 0 -8
9 -5 8 4 15 1 15 -6 0 -7 -12 -12 -26 -11 -19 1 -27 7 -29 23 -4 24 -2 25 22
16z"/>
<path fill="#000000" stroke="none" d="M20 110 c-11 -7 -7 -10 18 -10 20 0 31
4 27 10 -8 13 -26 13 -45 0z"/>
<path fill="#000000" stroke="none" d="M175 60 c-11 -5 -15 -9 -10 -10 6 0 -1
-9 -14 -19 l-24 -18 27 -7 c31 -8 55 2 36 14 -9 6 -9 13 -1 29 7 11 10 21 9
20 -2 0 -12 -4 -23 -9z"/>
<path fill="#000000" stroke="none" d="M246 34 c-5 -14 -4 -15 9 -4 17 14 19
20 6 20 -5 0 -12 -7 -15 -16z"/>
<path fill="#000000" stroke="none" d="M63 25 c2 -20 37 -35 37 -16 0 6 -6 11
-14 11 -8 0 -17 6 -20 13 -3 6 -5 3 -3 -8z"/>
<path fill="#000000" stroke="none" d="M255 10 c-3 -5 -1 -10 4 -10 6 0 11 5
11 10 0 6 -2 10 -4 10 -3 0 -8 -4 -11 -10z"/>
</g>
</svg>
