<?xml version="1.0" standalone="no"?>
<!DOCTYPE svg PUBLIC "-//W3C//DTD SVG 20010904//EN"
 "http://www.w3.org/TR/2001/REC-SVG-20010904/DTD/svg10.dtd">
<svg version="1.0" xmlns="http://www.w3.org/2000/svg"
 width="32.000000pt" height="32.000000pt" viewBox="0 0 32.000000 32.000000"
 preserveAspectRatio="xMidYMid meet">
<metadata>
Created by potrace 1.16, written by Peter Selinger 2001-2019
</metadata>
<g transform="translate(0.000000,32.000000) scale(0.100000,-0.100000)"
fill="#000000" stroke="none">
<path fill="#000000" stroke="none" d="M0 285 c0 -29 8 -32 26 -7 19 24 17 32
-6 32 -15 0 -20 -7 -20 -25z"/>
<path fill="#000000" stroke="none" d="M281 303 c1 -5 0 -10 -1 -13 -6 -17 -7
-40 -2 -40 4 0 15 7 25 14 23 18 22 46 -3 46 -11 0 -19 -3 -19 -7z"/>
<path fill="#000000" stroke="none" d="M108 289 c-26 -14 -22 -36 7 -41 13 -3
22 -1 19 3 -3 5 -1 9 4 9 5 0 12 9 15 20 6 22 -15 27 -45 9z"/>
<path fill="#000000" stroke="none" d="M200 260 c0 -12 8 -12 35 0 18 8 17 9
-7 9 -16 1 -28 -3 -28 -9z"/>
<path fill="#000000" stroke="none" d="M10 210 c0 -5 7 -7 15 -4 8 4 15 8 15
10 0 2 -7 4 -15 4 -8 0 -15 -4 -15 -10z"/>
<path fill="#000000" stroke="none" d="M110 108 c0 -5 9 -8 19 -8 11 0 25 -2
33 -5 7 -3 21 0 31 7 15 11 10 13 -33 13 -27 0 -50 -3 -50 -7z"/>
<path fill="#000000" stroke="none" d="M10 84 c0 -9 5 -12 10 -9 7 4 9 -2 4
-19 -7 -30 -2 -32 25 -9 17 14 18 18 5 28 -12 9 -10 11 12 13 45 4 39 10 -10
10 -34 0 -46 -4 -46 -14z"/>
<path fill="#000000" stroke="none" d="M282 88 c5 -15 28 -23 28 -10 0 5 -7
13 -16 16 -10 4 -14 1 -12 -6z"/>
<path fill="#000000" stroke="none" d="M205 79 c-16 -6 -14 -8 13 -8 33 -1 41
4 20 12 -7 2 -22 1 -33 -4z"/>
<path fill="#000000" stroke="none" d="M98 73 c12 -2 30 -2 40 0 9 3 -1 5 -23
4 -22 0 -30 -2 -17 -4z"/>
<path fill="#000000" stroke="none" d="M205 39 c-11 -17 1 -21 15 -4 8 9 8 15
2 15 -6 0 -14 -5 -17 -11z"/>
</g>
</svg>
