<?xml version="1.0" standalone="no"?>
<!DOCTYPE svg PUBLIC "-//W3C//DTD SVG 20010904//EN"
 "http://www.w3.org/TR/2001/REC-SVG-20010904/DTD/svg10.dtd">
<svg version="1.0" xmlns="http://www.w3.org/2000/svg"
 width="32.000000pt" height="32.000000pt" viewBox="0 0 32.000000 32.000000"
 preserveAspectRatio="xMidYMid meet">
<metadata>
Created by potrace 1.16, written by Peter Selinger 2001-2019
</metadata>
<g transform="translate(0.000000,32.000000) scale(0.100000,-0.100000)"
fill="#000000" stroke="none">
<path fill="#000000" stroke="none" d="M59 298 c7 -19 6 -30 -7 -44 -16 -17
-16 -17 1 -5 12 9 17 10 17 2 0 -6 -14 -14 -30 -18 -17 -3 -33 -9 -35 -13 -3
-5 4 -6 15 -3 16 4 20 0 20 -21 0 -14 6 -35 12 -46 10 -16 10 -22 -1 -32 -11
-11 -12 -10 -6 1 6 11 4 13 -9 8 -10 -4 -20 -7 -22 -7 -2 0 -4 -4 -4 -10 0 -5
13 -10 30 -10 17 0 30 5 30 10 0 6 6 10 14 10 20 0 38 26 42 62 4 35 21 51 43
43 8 -3 18 0 23 7 5 9 8 10 8 1 0 -6 -5 -15 -11 -18 -7 -5 -5 -13 6 -25 18
-20 12 -45 -8 -34 -9 5 -9 4 0 -6 7 -8 8 -22 3 -41 -5 -16 -7 -29 -4 -29 3 0
0 -9 -6 -20 -6 -11 -18 -20 -28 -20 -14 0 -13 2 4 14 11 8 21 27 22 45 2 25
-3 33 -20 40 -26 10 -41 5 -32 -11 3 -5 15 -7 26 -5 14 4 18 2 14 -10 -3 -8
-6 -17 -6 -19 0 -2 -10 -5 -22 -5 -19 -1 -20 -2 -5 -6 17 -4 17 -6 -3 -20 -17
-12 -19 -18 -9 -24 10 -6 10 -10 0 -23 -12 -14 -9 -16 28 -16 47 0 51 5 54 73
2 41 5 47 23 47 12 0 24 -6 27 -13 6 -16 67 -11 67 5 0 5 -4 7 -9 4 -10 -7
-28 14 -26 29 5 33 18 64 26 59 5 -3 9 7 9 23 0 20 -3 24 -9 14 -13 -21 -31
-4 -31 30 0 22 -6 32 -26 39 -34 13 -161 13 -169 0 -5 -8 -11 -7 -21 1 -12 10
-13 8 -5 -13z"/>
<path fill="#ffffff" stroke="none" d="M190 298 c0 -4 -8 -8 -17 -9 -11 0 -13
-3 -5 -6 23 -9 12 -33 -27 -52 -29 -15 -41 -17 -50 -8 -12 12 -15 69 -4 81 10
9 103 4 103 -6z"/>
<path fill="#ffffff" stroke="none" d="M254 289 c27 -40 -4 -79 -38 -47 -15
14 -17 22 -8 25 6 3 12 9 12 14 0 6 -4 7 -10 4 -5 -3 -10 -2 -10 4 0 9 15 18
32 20 4 1 14 -9 22 -20z"/>
<path fill="#ffffff" stroke="none" d="M70 200 c0 -6 7 -10 16 -8 10 2 19 -3
21 -9 3 -7 0 -13 -7 -13 -6 0 -8 -4 -5 -10 11 -18 -7 -10 -26 12 -21 23 -24
38 -9 38 6 0 10 -5 10 -10z"/>
<path fill="#ffffff" stroke="none" d="M290 195 c0 -8 -5 -15 -11 -15 -7 0 -9
-9 -6 -21 3 -12 3 -18 0 -15 -4 3 -13 1 -20 -6 -11 -9 -16 -9 -23 2 -6 9 -4
17 3 22 9 6 9 8 0 8 -7 0 -13 6 -13 14 0 16 15 24 48 25 13 1 22 -5 22 -14z"/>
<path fill="#000000" stroke="none" d="M247 41 c-8 -17 -14 -31 -12 -31 2 0
11 -3 20 -6 12 -5 16 -2 13 12 -2 10 2 19 9 19 6 0 15 4 20 9 4 5 3 6 -4 2 -6
-3 -16 1 -21 10 -8 14 -12 12 -25 -15z"/>
<path fill="#000000" stroke="none" d="M54 28 c-7 -11 13 -28 34 -28 16 0 15
3 -8 22 -13 12 -22 14 -26 6z"/>
</g>
</svg>
