<?xml version="1.0" standalone="no"?>
<!DOCTYPE svg PUBLIC "-//W3C//DTD SVG 20010904//EN"
 "http://www.w3.org/TR/2001/REC-SVG-20010904/DTD/svg10.dtd">
<svg version="1.0" xmlns="http://www.w3.org/2000/svg"
 width="32.000000pt" height="32.000000pt" viewBox="0 0 32.000000 32.000000"
 preserveAspectRatio="xMidYMid meet">
<metadata>
Created by potrace 1.16, written by Peter Selinger 2001-2019
</metadata>
<g transform="translate(0.000000,32.000000) scale(0.100000,-0.100000)"
fill="#000000" stroke="none">
<path fill="#000000" stroke="none" d="M155 243 c12 -9 13 -38 2 -49 -4 -4 -7
-15 -7 -25 0 -9 -3 -19 -7 -22 -5 -2 -1 -2 7 0 12 3 13 2 3 -8 -19 -19 -16
-29 11 -29 29 0 41 34 18 52 -13 11 -15 11 -7 -2 6 -12 5 -12 -4 -4 -9 8 -10
18 -4 30 13 28 10 57 -7 61 -9 3 -11 1 -5 -4z"/>
</g>
</svg>
