<?xml version="1.0" standalone="no"?>
<!DOCTYPE svg PUBLIC "-//W3C//DTD SVG 20010904//EN"
 "http://www.w3.org/TR/2001/REC-SVG-20010904/DTD/svg10.dtd">
<svg version="1.0" xmlns="http://www.w3.org/2000/svg"
 width="32.000000pt" height="32.000000pt" viewBox="0 0 32.000000 32.000000"
 preserveAspectRatio="xMidYMid meet">
<metadata>
Created by potrace 1.16, written by Peter Selinger 2001-2019
</metadata>
<g transform="translate(0.000000,32.000000) scale(0.100000,-0.100000)"
fill="#000000" stroke="none">
<path fill="#000000" stroke="none" d="M40 311 c26 -4 40 -9 33 -14 -6 -4 -10
-16 -8 -26 2 -13 -3 -18 -18 -18 -39 -1 -47 -3 -47 -13 0 -5 9 -10 20 -10 13
0 18 -5 14 -15 -4 -8 -10 -13 -14 -10 -5 3 -6 -5 -3 -17 4 -19 3 -20 -6 -8 -8
11 -11 0 -11 -47 l0 -63 35 0 36 0 -23 -30 c-12 -17 -27 -30 -32 -30 -6 0 -5
4 2 9 11 7 11 9 0 14 -9 3 -14 -2 -15 -14 -2 -16 5 -19 38 -19 38 0 39 1 39
35 l0 35 54 0 c51 0 55 -2 51 -22 -3 -12 -9 -26 -14 -31 -11 -11 -31 -1 -31
17 0 7 -7 13 -15 13 -11 0 -12 -4 -4 -13 12 -14 -5 -29 -21 -19 -5 3 -10 1
-10 -4 0 -7 40 -11 114 -11 96 0 114 2 112 15 -1 8 -8 21 -16 28 -12 10 -12 9
-2 -4 6 -9 9 -19 5 -22 -14 -15 -23 -6 -23 23 0 23 4 30 20 30 17 0 20 7 20
51 l0 51 -30 -7 c-29 -6 -30 -5 -30 29 0 33 2 36 30 36 29 0 30 2 30 45 l0 45
-162 -2 c-90 0 -143 -4 -118 -7z"/>
<path fill="#ffffff" stroke="none" d="M176 295 c-3 -8 -1 -15 3 -15 5 0 12
-8 15 -17 4 -10 4 -14 0 -10 -4 4 -13 2 -21 -4 -10 -9 -13 -4 -13 25 0 20 5
36 11 36 6 0 9 -7 5 -15z"/>
<path fill="#ffffff" stroke="none" d="M300 299 c0 -5 -6 -7 -12 -3 -9 6 -9 3
0 -9 14 -17 9 -37 -10 -37 -6 0 -17 8 -25 18 -8 9 -12 12 -9 6 13 -27 -21 -19
-36 7 l-17 29 54 0 c32 0 55 -4 55 -11z"/>
<path fill="#ffffff" stroke="none" d="M135 272 c-2 -27 -14 -42 -36 -42 -14
0 -19 7 -19 30 0 26 4 30 28 30 21 0 28 -5 27 -18z"/>
<path fill="#ffffff" stroke="none" d="M220 230 c0 -5 -5 -10 -11 -10 -5 0 -7
-5 -4 -10 4 -6 10 -8 14 -6 3 3 7 -3 7 -13 0 -13 -8 -17 -34 -16 -25 2 -32 -1
-28 -12 3 -8 1 -11 -4 -8 -6 3 -10 15 -10 26 0 19 -1 19 -16 4 -12 -11 -20
-13 -27 -6 -15 15 -1 27 48 45 48 18 65 19 65 6z"/>
<path fill="#ffffff" stroke="none" d="M85 200 c-3 -5 -10 -10 -16 -10 -5 0
-9 5 -9 10 0 6 7 10 16 10 8 0 12 -4 9 -10z"/>
<path fill="#ffffff" stroke="none" d="M70 173 c0 -14 -19 -38 -25 -32 -8 8 5
39 16 39 5 0 9 -3 9 -7z"/>
<path fill="#ffffff" stroke="none" d="M104 132 c-12 -9 -24 -24 -27 -32 -3
-8 -6 0 -6 18 -1 29 2 32 27 32 l27 0 -21 -18z"/>
<path fill="#ffffff" stroke="none" d="M303 139 c-6 -6 -9 -19 -6 -28 4 -13 3
-14 -5 -1 -6 8 -8 18 -6 22 3 4 0 8 -5 8 -6 0 -11 -4 -11 -10 0 -5 -7 -7 -16
-3 -9 3 -20 0 -25 -8 -6 -11 -9 -8 -9 9 0 20 5 22 47 22 35 0 44 -3 36 -11z"/>
<path fill="#ffffff" stroke="none" d="M210 131 c0 -11 -26 -22 -34 -14 -12
12 -5 23 14 23 11 0 20 -4 20 -9z"/>
<path fill="#ffffff" stroke="none" d="M46 118 c-3 -19 -16 -38 -27 -38 -10 0
-12 33 -2 43 11 12 31 8 29 -5z"/>
<path fill="#ffffff" stroke="none" d="M165 111 c3 -6 -4 -15 -15 -21 -22 -12
-23 -10 -14 14 7 18 20 21 29 7z"/>
<path fill="#ffffff" stroke="none" d="M200 96 c0 -3 -4 -8 -10 -11 -5 -3 -10
-1 -10 4 0 6 5 11 10 11 6 0 10 -2 10 -4z"/>
<path fill="#ffffff" stroke="none" d="M266 63 c-4 -4 -17 -8 -28 -8 -12 0
-23 -6 -26 -13 -2 -7 0 -12 5 -11 4 1 15 1 23 0 13 -1 13 -2 0 -11 -27 -17
-40 -11 -40 20 0 28 3 30 37 30 20 0 33 -3 29 -7z"/>
<path fill="#ffffff" stroke="none" d="M57 18 c-3 -8 -6 -5 -6 6 -1 11 2 17 5
13 3 -3 4 -12 1 -19z"/>
<path fill="#000000" stroke="none" d="M107 255 c3 -8 9 -12 14 -9 12 7 11 11
-5 17 -10 4 -13 1 -9 -8z"/>
<path fill="#000000" stroke="none" d="M160 196 c0 -7 40 -14 44 -7 3 4 -6 8
-20 9 -13 1 -24 0 -24 -2z"/>
<path fill="#000000" stroke="none" d="M35 270 c3 -5 8 -10 11 -10 2 0 4 5 4
10 0 6 -5 10 -11 10 -5 0 -7 -4 -4 -10z"/>
<path fill="#000000" stroke="none" d="M291 196 c-10 -11 -9 -14 1 -12 14 2
23 15 15 22 -2 2 -10 -2 -16 -10z"/>
</g>
</svg>
