<?xml version="1.0" standalone="no"?>
<!DOCTYPE svg PUBLIC "-//W3C//DTD SVG 20010904//EN"
 "http://www.w3.org/TR/2001/REC-SVG-20010904/DTD/svg10.dtd">
<svg version="1.0" xmlns="http://www.w3.org/2000/svg"
 width="32.000000pt" height="32.000000pt" viewBox="0 0 32.000000 32.000000"
 preserveAspectRatio="xMidYMid meet">
<metadata>
Created by potrace 1.16, written by Peter Selinger 2001-2019
</metadata>
<g transform="translate(0.000000,32.000000) scale(0.100000,-0.100000)"
fill="#000000" stroke="none">
<path fill="#000000" stroke="none" d="M1 235 c0 -57 4 -85 12 -85 8 0 8 -3
-1 -12 -7 -7 -12 -39 -12 -75 l0 -63 160 0 160 0 0 109 c0 78 -4 111 -13 114
-9 4 -9 6 1 6 8 1 12 17 12 46 l0 45 -160 0 -159 0 0 -85z"/>
</g>
</svg>
