<?xml version="1.0" standalone="no"?>
<!DOCTYPE svg PUBLIC "-//W3C//DTD SVG 20010904//EN"
 "http://www.w3.org/TR/2001/REC-SVG-20010904/DTD/svg10.dtd">
<svg version="1.0" xmlns="http://www.w3.org/2000/svg"
 width="32.000000pt" height="32.000000pt" viewBox="0 0 32.000000 32.000000"
 preserveAspectRatio="xMidYMid meet">
<metadata>
Created by potrace 1.16, written by Peter Selinger 2001-2019
</metadata>
<g transform="translate(0.000000,32.000000) scale(0.100000,-0.100000)"
fill="#000000" stroke="none">
<path fill="#000000" stroke="none" d="M0 280 l0 -41 43 6 c23 4 44 9 46 11 2
2 10 -1 17 -7 15 -12 24 0 29 40 l4 27 -70 2 -69 2 0 -40z"/>
<path fill="#000000" stroke="none" d="M150 273 c0 -43 -1 -45 -26 -40 -14 2
-31 -2 -40 -10 -8 -8 -14 -10 -14 -4 0 6 -11 11 -25 11 -14 0 -25 -6 -25 -12
1 -17 26 -49 36 -47 5 1 17 -1 26 -5 15 -7 15 -10 3 -22 -15 -16 -29 -19 -21
-5 7 11 -16 20 -40 17 -25 -4 -34 -76 -10 -76 9 0 16 9 16 20 0 12 7 20 18 20
13 0 14 -2 4 -9 -7 -4 -12 -14 -10 -22 2 -8 -7 -15 -19 -17 -18 -3 -23 -10
-23 -32 0 -37 33 -47 54 -16 9 11 15 17 15 11 -4 -37 3 -41 48 -24 l28 10 -25
20 c-22 18 -23 20 -5 17 11 -2 24 -13 29 -24 7 -15 19 -21 43 -22 20 -1 31 3
28 8 -3 6 -1 10 4 10 6 0 11 -6 11 -14 0 -13 14 -15 78 -7 6 0 12 14 12 31 0
17 -6 30 -12 31 -34 3 -74 -4 -80 -15 -6 -8 -8 -8 -8 0 0 7 -10 15 -22 19 -22
7 -21 8 7 14 17 4 35 3 42 -1 13 -10 27 7 18 22 -3 6 -2 10 3 10 6 0 13 -7 16
-16 5 -12 8 -13 20 -2 9 8 11 17 5 25 -7 7 -5 13 3 16 7 3 3 6 -9 6 -28 1 -31
21 -3 21 16 0 20 7 20 30 0 17 -4 30 -9 30 -10 0 -9 19 2 37 4 6 3 14 -2 18
-6 3 -8 12 -4 20 4 11 -2 15 -19 15 -32 0 -41 -10 -25 -29 10 -14 10 -14 -4
-3 -14 10 -19 9 -32 -11 -12 -18 -13 -27 -5 -35 9 -9 2 -11 -26 -10 -22 1 -32
4 -24 9 6 4 15 6 18 5 3 -2 15 12 27 30 l22 34 -22 4 c-61 11 -67 8 -67 -41z"/>
<path fill="#ffffff" stroke="none" d="M293 238 c-2 -5 -13 -8 -23 -8 -10 0
-21 -8 -23 -17 -3 -11 -5 -6 -6 11 -1 24 2 27 19 23 15 -4 20 0 21 16 0 21 1
21 8 2 5 -11 7 -23 4 -27z"/>
<path fill="#ffffff" stroke="none" d="M259 154 c4 3 8 -1 8 -9 0 -8 -4 -15
-9 -15 -4 0 -8 5 -8 10 0 6 -11 10 -25 10 -14 0 -25 5 -25 11 0 6 9 9 20 6 10
-3 19 -2 18 2 -2 19 5 22 9 3 2 -12 8 -20 12 -18z"/>
<path fill="#ffffff" stroke="none" d="M190 158 c0 -4 -4 -8 -10 -8 -5 0 -10
-7 -10 -15 0 -8 -4 -15 -10 -15 -5 0 -7 7 -4 15 5 11 -1 15 -21 15 -14 0 -24
3 -21 8 6 10 76 10 76 0z"/>
<path fill="#ffffff" stroke="none" d="M167 92 c1 -16 -7 -19 -53 -21 -36 -1
-53 2 -49 9 3 5 24 10 46 10 21 0 39 5 39 10 0 18 16 10 17 -8z"/>
<path fill="#000000" stroke="none" d="M1 199 c-1 -26 3 -36 14 -36 8 0 15 6
15 14 0 7 -4 13 -9 13 -5 0 -12 10 -14 23 -3 14 -5 9 -6 -14z"/>
</g>
</svg>
