<?xml version="1.0" standalone="no"?>
<!DOCTYPE svg PUBLIC "-//W3C//DTD SVG 20010904//EN"
 "http://www.w3.org/TR/2001/REC-SVG-20010904/DTD/svg10.dtd">
<svg version="1.0" xmlns="http://www.w3.org/2000/svg"
 width="32.000000pt" height="32.000000pt" viewBox="0 0 32.000000 32.000000"
 preserveAspectRatio="xMidYMid meet">
<metadata>
Created by potrace 1.16, written by Peter Selinger 2001-2019
</metadata>
<g transform="translate(0.000000,32.000000) scale(0.100000,-0.100000)"
fill="#000000" stroke="none">
<path fill="#000000" stroke="none" d="M12 301 c9 -15 9 -25 0 -45 -11 -24
-10 -26 13 -26 14 0 25 -6 25 -12 -1 -18 -26 -49 -33 -41 -12 11 -8 25 5 17 7
-4 8 -3 4 5 -11 17 -24 5 -24 -24 0 -22 5 -25 35 -25 31 0 33 -2 23 -20 -6
-11 -15 -18 -20 -15 -6 4 -7 -1 -3 -11 4 -11 2 -15 -4 -11 -6 4 -16 0 -23 -8
-10 -13 -9 -15 9 -15 26 0 27 -10 0 -44 l-20 -26 65 0 66 0 0 35 0 35 50 0
c48 0 51 -1 47 -25 -2 -14 -7 -24 -12 -23 -6 2 -9 10 -7 18 2 13 1 13 -7 1 -5
-8 -22 -20 -38 -27 -26 -12 -25 -12 32 -13 l61 -1 -4 35 c-4 30 -1 35 17 35
24 0 25 -7 11 -44 -9 -24 -7 -26 16 -26 14 0 23 4 19 10 -4 6 -11 7 -17 4 -7
-4 -7 0 0 12 5 11 7 25 5 32 -3 6 0 12 7 12 7 0 10 21 9 60 -2 45 -5 57 -14
50 -9 -7 -17 -5 -26 7 -12 16 -12 17 2 6 13 -10 16 -10 16 1 0 7 -9 13 -20 12
-11 -1 -22 5 -24 12 -3 8 7 12 31 12 36 0 36 0 36 45 l0 45 -160 0 c-156 0
-160 -1 -148 -19z"/>
<path fill="#ffffff" stroke="none" d="M70 300 c0 -13 -11 -13 -30 0 -12 8
-11 10 8 10 12 0 22 -4 22 -10z"/>
<path fill="#ffffff" stroke="none" d="M104 283 c-7 -35 -6 -35 -43 -31 -31 3
-31 3 -10 16 11 8 18 9 14 3 -3 -6 -4 -11 0 -11 3 0 10 11 15 25 13 34 30 32
24 -2z"/>
<path fill="#ffffff" stroke="none" d="M227 293 c0 -21 -15 -43 -29 -43 -6 0
-8 6 -5 13 3 8 -1 14 -9 14 -8 0 -13 -6 -10 -14 4 -9 -4 -13 -24 -13 -27 0
-30 3 -30 30 0 30 1 30 53 30 44 0 54 -3 54 -17z"/>
<path fill="#ffffff" stroke="none" d="M302 280 c-4 -25 -9 -30 -33 -30 -26 0
-29 4 -29 30 0 27 3 30 33 30 32 0 33 -2 29 -30z"/>
<path fill="#ffffff" stroke="none" d="M105 198 c2 -20 -4 -27 -22 -31 -20 -4
-23 -1 -23 30 0 30 3 34 22 31 16 -2 22 -10 23 -30z"/>
<path fill="#ffffff" stroke="none" d="M187 211 c0 -11 -5 -17 -9 -15 -5 3 -5
11 -1 17 4 7 -1 6 -11 -2 -15 -12 -19 -12 -34 2 -15 16 -14 17 20 17 30 0 36
-3 35 -19z"/>
<path fill="#ffffff" stroke="none" d="M226 221 c-4 -5 -2 -11 2 -13 4 -1 2
-14 -5 -28 -12 -25 -13 -24 -13 13 0 20 5 37 11 37 5 0 8 -4 5 -9z"/>
<path fill="#ffffff" stroke="none" d="M170 184 c0 -8 -19 -13 -24 -6 -3 5 1
9 9 9 8 0 15 -2 15 -3z"/>
<path fill="#ffffff" stroke="none" d="M264 181 c4 -5 -1 -8 -9 -7 -21 3 -31
16 -12 16 9 0 18 -4 21 -9z"/>
<path fill="#ffffff" stroke="none" d="M176 138 c4 -7 3 -8 -4 -4 -7 4 -12 2
-12 -4 0 -6 -4 -8 -10 -5 -5 3 -10 10 -10 16 0 13 27 11 36 -3z"/>
<path fill="#ffffff" stroke="none" d="M262 135 c-2 -5 -9 -9 -16 -7 -8 1 -16
-7 -19 -18 -8 -31 -27 -24 -27 11 0 28 2 30 33 27 17 -2 31 -7 29 -13z"/>
<path fill="#ffffff" stroke="none" d="M304 135 c-4 -8 -10 -12 -15 -9 -11 6
-2 24 11 24 5 0 7 -7 4 -15z"/>
<path fill="#ffffff" stroke="none" d="M172 98 c-7 -7 -12 -8 -12 -2 0 14 12
26 19 19 2 -3 -1 -11 -7 -17z"/>
<path fill="#ffffff" stroke="none" d="M275 101 c-9 -8 -36 -10 -30 -2 2 4 11
8 20 8 8 0 13 -3 10 -6z"/>
<path fill="#ffffff" stroke="none" d="M112 40 c-3 -21 -10 -30 -23 -30 -11 0
-19 5 -19 10 0 6 5 10 12 10 9 0 9 3 0 12 -9 9 -15 9 -24 -1 -10 -11 -10 -12
-1 -7 9 5 11 2 7 -8 -3 -9 -14 -16 -23 -16 -14 0 -14 2 -1 10 8 5 11 10 7 10
-4 0 -3 9 3 20 7 13 21 20 39 20 25 0 27 -3 23 -30z"/>
<path fill="#000000" stroke="none" d="M75 200 c-3 -5 1 -10 10 -10 9 0 13 5
10 10 -3 6 -8 10 -10 10 -2 0 -7 -4 -10 -10z"/>
<path fill="#000000" stroke="none" d="M165 40 c-4 -6 -11 -7 -17 -4 -7 4 -8
2 -4 -5 6 -9 11 -9 22 0 14 11 18 19 10 19 -3 0 -8 -5 -11 -10z"/>
</g>
</svg>
