<?xml version="1.0" standalone="no"?>
<!DOCTYPE svg PUBLIC "-//W3C//DTD SVG 20010904//EN"
 "http://www.w3.org/TR/2001/REC-SVG-20010904/DTD/svg10.dtd">
<svg version="1.0" xmlns="http://www.w3.org/2000/svg"
 width="32.000000pt" height="32.000000pt" viewBox="0 0 32.000000 32.000000"
 preserveAspectRatio="xMidYMid meet">
<metadata>
Created by potrace 1.16, written by Peter Selinger 2001-2019
</metadata>
<g transform="translate(0.000000,32.000000) scale(0.100000,-0.100000)"
fill="#000000" stroke="none">
<path fill="#000000" stroke="none" d="M107 180 c3 -11 9 -20 15 -20 5 0 4 9
-2 20 -6 11 -12 20 -14 20 -2 0 -2 -9 1 -20z"/>
<path fill="#000000" stroke="none" d="M36 152 c-2 -4 -1 -14 4 -22 7 -11 9
-9 7 8 -1 24 -3 26 -11 14z"/>
<path fill="#000000" stroke="none" d="M135 149 c-11 -17 1 -21 15 -4 8 9 8
15 2 15 -6 0 -14 -5 -17 -11z"/>
<path fill="#000000" stroke="none" d="M0 131 c0 -5 7 -11 14 -14 10 -4 13 -1
9 9 -6 15 -23 19 -23 5z"/>
<path fill="#000000" stroke="none" d="M80 120 c0 -6 7 -10 15 -10 8 0 15 2
15 4 0 2 -7 6 -15 10 -8 3 -15 1 -15 -4z"/>
<path fill="#000000" stroke="none" d="M80 34 c0 -8 5 -12 10 -9 6 4 8 11 5
16 -9 14 -15 11 -15 -7z"/>
</g>
</svg>
