<?xml version="1.0" standalone="no"?>
<!DOCTYPE svg PUBLIC "-//W3C//DTD SVG 20010904//EN"
 "http://www.w3.org/TR/2001/REC-SVG-20010904/DTD/svg10.dtd">
<svg version="1.0" xmlns="http://www.w3.org/2000/svg"
 width="32.000000pt" height="32.000000pt" viewBox="0 0 32.000000 32.000000"
 preserveAspectRatio="xMidYMid meet">
<metadata>
Created by potrace 1.16, written by Peter Selinger 2001-2019
</metadata>
<g transform="translate(0.000000,32.000000) scale(0.100000,-0.100000)"
fill="#000000" stroke="none">
<path fill="#000000" stroke="none" d="M69 311 c71 -6 74 -7 57 -23 -14 -15
-21 -16 -39 -6 -32 17 -47 18 -47 2 0 -7 -9 -18 -20 -24 -31 -17 -24 -30 16
-30 33 0 36 -2 30 -22 -3 -13 -6 -27 -6 -31 0 -5 -5 -5 -10 -2 -6 4 -7 11 -4
17 4 6 2 8 -4 4 -6 -3 -13 -2 -17 4 -13 22 -22 -2 -24 -65 l-2 -65 31 0 c27 0
29 -2 21 -19 -6 -10 -7 -22 -3 -26 4 -5 2 -5 -5 -1 -6 3 -14 2 -18 -4 -4 -6
-11 -8 -16 -5 -5 4 -9 1 -9 -4 0 -7 41 -11 115 -11 l115 0 0 35 c0 35 0 35 45
35 l45 0 0 59 c0 51 -3 62 -22 76 -16 10 -24 12 -27 4 -4 -14 19 -30 33 -22 5
3 6 1 3 -4 -4 -6 -18 -13 -32 -15 -23 -5 -25 -2 -25 28 0 32 2 34 35 34 35 0
35 0 35 45 l0 45 -162 -2 c-119 -1 -143 -3 -89 -7z"/>
<path fill="#ffffff" stroke="none" d="M282 293 c24 -22 23 -43 -3 -43 -11 0
-18 4 -15 9 3 5 -3 11 -15 14 -16 4 -18 3 -9 -8 9 -10 2 -14 -35 -17 -32 -2
-45 1 -45 10 0 7 5 10 10 7 6 -3 10 -1 10 5 0 6 4 9 9 5 5 -3 13 0 17 6 4 8 3
9 -4 5 -13 -8 -17 6 -5 17 12 13 67 7 85 -10z"/>
<path fill="#ffffff" stroke="none" d="M158 206 c-4 -18 -1 -22 12 -19 10 3
20 -2 23 -10 5 -12 0 -13 -28 -6 -21 6 -42 6 -59 -1 -14 -5 -26 -6 -26 -2 1
19 51 61 74 62 4 0 6 -11 4 -24z"/>
<path fill="#ffffff" stroke="none" d="M232 205 c-5 -31 -18 -40 -26 -19 -4
10 -2 13 6 8 7 -4 8 -3 4 4 -4 6 -13 9 -21 5 -9 -3 -15 1 -15 11 0 11 9 16 29
16 25 0 28 -3 23 -25z"/>
<path fill="#ffffff" stroke="none" d="M150 130 c-6 -11 -7 -20 -3 -20 4 0 2
-5 -5 -12 -8 -8 -15 -8 -28 3 -12 9 -15 10 -10 2 5 -9 -1 -13 -19 -13 -17 0
-24 4 -19 11 3 6 -5 3 -20 -6 -31 -21 -34 -8 -5 29 17 22 28 26 70 26 47 0 49
-1 39 -20z"/>
<path fill="#ffffff" stroke="none" d="M273 143 c6 -9 -13 -27 -31 -30 -7 -2
-12 2 -12 9 0 6 -3 8 -6 5 -4 -4 -1 -14 7 -23 12 -15 12 -17 -1 -12 -8 3 -25
1 -37 -3 -21 -8 -23 -6 -23 26 l0 35 49 0 c28 0 52 -3 54 -7z"/>
<path fill="#ffffff" stroke="none" d="M310 146 c0 -3 -4 -8 -10 -11 -5 -3
-10 -1 -10 4 0 6 5 11 10 11 6 0 10 -2 10 -4z"/>
<path fill="#ffffff" stroke="none" d="M290 100 c-24 -15 -36 -11 -14 4 10 8
21 12 24 10 2 -3 -2 -9 -10 -14z"/>
<path fill="#ffffff" stroke="none" d="M93 57 c-4 -6 0 -8 10 -4 9 3 19 1 23
-6 4 -7 4 -9 -1 -5 -5 5 -14 -1 -22 -12 -20 -28 -33 -25 -33 8 0 18 5 29 15
29 8 0 11 -5 8 -10z"/>
<path fill="#ffffff" stroke="none" d="M210 55 c0 -8 -4 -15 -10 -15 -5 0 -10
5 -10 11 0 6 -8 8 -19 4 -11 -3 -22 -1 -26 5 -4 6 7 10 29 10 25 0 36 -4 36
-15z"/>
<path fill="#000000" stroke="none" d="M15 291 c-3 -5 -2 -12 3 -15 5 -3 9 1
9 9 0 17 -3 19 -12 6z"/>
<path fill="#000000" stroke="none" d="M270 35 c-11 -13 -10 -14 4 -9 9 3 16
10 16 15 0 13 -6 11 -20 -6z"/>
<path fill="#000000" stroke="none" d="M258 3 c12 -2 32 -2 45 0 12 2 2 4 -23
4 -25 0 -35 -2 -22 -4z"/>
</g>
</svg>
