<?xml version="1.0" standalone="no"?>
<!DOCTYPE svg PUBLIC "-//W3C//DTD SVG 20010904//EN"
 "http://www.w3.org/TR/2001/REC-SVG-20010904/DTD/svg10.dtd">
<svg version="1.0" xmlns="http://www.w3.org/2000/svg"
 width="32.000000pt" height="32.000000pt" viewBox="0 0 32.000000 32.000000"
 preserveAspectRatio="xMidYMid meet">
<metadata>
Created by potrace 1.16, written by Peter Selinger 2001-2019
</metadata>
<g transform="translate(0.000000,32.000000) scale(0.100000,-0.100000)"
fill="#000000" stroke="none">
<path fill="#000000" stroke="none" d="M37 313 c39 -4 42 -6 33 -28 -5 -12 -6
-26 -2 -31 4 -4 1 -4 -5 0 -7 4 -13 14 -13 22 0 8 -5 12 -11 9 -6 -4 -8 -9 -5
-12 7 -7 -17 -32 -26 -26 -5 2 -8 -1 -8 -6 0 -6 9 -11 19 -11 18 0 19 -3 9
-31 -8 -23 -13 -27 -19 -17 -6 9 -9 7 -9 -9 0 -20 6 -22 61 -25 l61 -3 -19
-24 c-11 -14 -30 -25 -42 -26 -20 -2 -20 -1 -4 17 9 10 23 16 30 14 7 -3 13
-1 13 4 0 13 -27 13 -35 0 -4 -6 -12 -7 -18 -4 -7 4 -9 4 -5 -1 4 -4 -5 -19
-20 -31 l-27 -24 37 0 c31 0 35 -3 31 -20 -4 -15 -9 -18 -18 -10 -9 8 -15 8
-20 0 -3 -6 -12 -7 -18 -3 -7 4 -5 -2 3 -12 9 -11 10 -16 3 -11 -7 4 -13 2
-13 -3 0 -7 36 -11 100 -11 l100 0 0 35 c0 33 2 35 35 35 26 0 33 -3 29 -15
-7 -17 -24 -20 -24 -4 0 5 -5 7 -11 3 -8 -4 -4 -13 12 -24 l23 -18 -25 -5
c-13 -2 -1 -5 28 -6 51 -1 59 6 40 36 -5 8 -3 13 4 13 7 0 10 3 6 6 -12 12
-28 -7 -18 -20 6 -7 8 -16 4 -19 -14 -15 -23 -6 -23 23 0 23 4 30 20 30 17 0
20 7 20 51 l0 51 -30 -7 c-29 -6 -30 -5 -30 29 0 33 2 36 30 36 29 0 30 2 30
45 l0 45 -162 -2 c-90 -1 -144 -3 -121 -5z"/>
<path fill="#ffffff" stroke="none" d="M144 295 c-4 -8 -10 -15 -15 -15 -5 0
-9 -5 -9 -11 0 -5 5 -7 12 -3 7 4 8 3 4 -5 -6 -9 -11 -9 -21 -1 -10 8 -14 7
-18 -2 -3 -7 -6 2 -6 20 -1 29 2 32 29 32 22 0 28 -4 24 -15z"/>
<path fill="#ffffff" stroke="none" d="M305 288 c-1 -13 -3 -26 -4 -30 -2 -15
-34 -8 -47 10 -12 15 -13 15 -8 0 4 -12 1 -16 -13 -14 -10 2 -30 0 -45 -5 -27
-7 -28 -6 -28 27 l0 34 74 0 c70 0 73 -1 71 -22z"/>
<path fill="#ffffff" stroke="none" d="M100 221 c0 -6 -4 -12 -10 -16 -5 -3
-7 -12 -4 -20 4 -9 -1 -13 -15 -12 -16 1 -21 8 -21 29 0 23 4 28 25 28 14 0
25 -4 25 -9z"/>
<path fill="#ffffff" stroke="none" d="M241 203 c-4 -15 -12 -28 -19 -31 -8
-2 -10 3 -6 15 6 16 5 16 -9 -2 -13 -15 -16 -16 -17 -5 0 13 -2 13 -9 1 -5 -8
-18 -12 -30 -8 -12 3 -21 1 -21 -4 0 -5 -4 -9 -10 -9 -5 0 -10 16 -10 35 l0
35 69 0 69 0 -7 -27z"/>
<path fill="#ffffff" stroke="none" d="M200 130 c-6 -11 -8 -25 -5 -30 3 -6
-3 -10 -14 -10 -10 0 -26 -3 -35 -6 -13 -5 -16 1 -16 30 0 35 1 36 40 36 38 0
40 -1 30 -20z"/>
<path fill="#ffffff" stroke="none" d="M300 141 c0 -5 -10 -7 -22 -3 -13 3
-19 1 -15 -5 5 -7 -1 -9 -15 -5 -18 4 -20 2 -16 -16 4 -12 2 -20 -3 -16 -5 3
-9 16 -9 30 0 21 4 24 40 24 22 0 40 -4 40 -9z"/>
<path fill="#ffffff" stroke="none" d="M175 50 c-2 -27 -20 -46 -30 -31 -3 6
-3 10 2 9 4 -2 8 2 8 7 0 6 -4 9 -8 7 -5 -1 -6 2 -2 8 3 5 1 10 -4 10 -6 0
-11 -5 -11 -11 0 -8 -4 -8 -14 0 -12 10 -14 9 -11 -6 1 -10 8 -17 15 -15 6 1
9 -2 6 -7 -4 -5 -15 -9 -26 -8 -15 1 -20 9 -20 29 0 27 2 28 48 28 43 0 48 -3
47 -20z"/>
<path fill="#000000" stroke="none" d="M159 113 c-13 -16 -12 -17 4 -4 16 13
21 21 13 21 -2 0 -10 -8 -17 -17z"/>
<path fill="#000000" stroke="none" d="M285 189 c-3 -4 2 -6 10 -5 21 3 28 13
10 13 -9 0 -18 -4 -20 -8z"/>
</g>
</svg>
