<?xml version="1.0" standalone="no"?>
<!DOCTYPE svg PUBLIC "-//W3C//DTD SVG 20010904//EN"
 "http://www.w3.org/TR/2001/REC-SVG-20010904/DTD/svg10.dtd">
<svg version="1.0" xmlns="http://www.w3.org/2000/svg"
 width="32.000000pt" height="32.000000pt" viewBox="0 0 32.000000 32.000000"
 preserveAspectRatio="xMidYMid meet">
<metadata>
Created by potrace 1.16, written by Peter Selinger 2001-2019
</metadata>
<g transform="translate(0.000000,32.000000) scale(0.100000,-0.100000)"
fill="#000000" stroke="none">
<path fill="#000000" stroke="none" d="M0 139 c0 -5 5 -7 10 -4 5 3 10 8 10
11 0 2 -4 4 -10 4 -5 0 -10 -5 -10 -11z"/>
<path fill="#000000" stroke="none" d="M107 134 c-4 -4 -7 -11 -7 -15 0 -10
24 -5 28 6 4 12 -12 18 -21 9z"/>
<path fill="#000000" stroke="none" d="M150 130 c0 -5 11 -9 24 -8 14 1 22 6
20 10 -7 12 -44 10 -44 -2z"/>
<path fill="#000000" stroke="none" d="M70 79 c0 -5 5 -7 10 -4 6 3 10 8 10
11 0 2 -4 4 -10 4 -5 0 -10 -5 -10 -11z"/>
<path fill="#000000" stroke="none" d="M130 84 c0 -17 27 -37 34 -25 4 5 2 12
-4 16 -5 3 -10 3 -10 -2 0 -4 -5 -1 -10 7 -5 8 -10 10 -10 4z"/>
<path fill="#000000" stroke="none" d="M190 70 c0 -5 5 -10 10 -10 6 0 10 5
10 10 0 6 -4 10 -10 10 -5 0 -10 -4 -10 -10z"/>
</g>
</svg>
