<?xml version="1.0" standalone="no"?>
<!DOCTYPE svg PUBLIC "-//W3C//DTD SVG 20010904//EN"
 "http://www.w3.org/TR/2001/REC-SVG-20010904/DTD/svg10.dtd">
<svg version="1.0" xmlns="http://www.w3.org/2000/svg"
 width="32.000000pt" height="32.000000pt" viewBox="0 0 32.000000 32.000000"
 preserveAspectRatio="xMidYMid meet">
<metadata>
Created by potrace 1.16, written by Peter Selinger 2001-2019
</metadata>
<g transform="translate(0.000000,32.000000) scale(0.100000,-0.100000)"
fill="#000000" stroke="none">
<path fill="#000000" stroke="none" d="M2 235 l-2 -85 30 0 c34 0 40 -15 10
-23 -13 -3 -18 -1 -14 6 4 7 1 7 -7 -1 -11 -11 -12 -14 -1 -21 11 -7 10 -9 -2
-14 -25 -10 -19 -27 10 -27 16 0 24 -5 21 -12 -2 -7 -14 -12 -25 -10 -18 3
-22 -2 -22 -22 l0 -26 160 0 160 0 0 110 0 110 -31 0 c-28 0 -31 -2 -25 -25 4
-14 2 -25 -4 -25 -5 0 -10 14 -10 30 0 28 3 30 35 30 35 0 35 0 35 45 l0 45
-157 0 -158 0 -3 -85z"/>
<path fill="#ffffff" stroke="none" d="M117 303 c-10 -3 -14 -9 -10 -16 4 -7
-1 -6 -10 2 -23 18 -22 21 11 20 17 -1 20 -3 9 -6z"/>
<path fill="#ffffff" stroke="none" d="M223 293 c-4 -11 -8 -12 -11 -5 -5 16
-32 15 -32 0 0 -9 -4 -8 -10 2 -9 13 -10 13 -10 0 0 -9 5 -21 12 -28 9 -9 8
-12 -5 -12 -12 0 -17 8 -17 30 0 28 2 30 40 30 33 0 38 -3 33 -17z"/>
<path fill="#ffffff" stroke="none" d="M300 301 c0 -6 -5 -13 -12 -17 -6 -4
-8 -3 -4 4 3 6 -2 13 -11 15 -14 4 -13 5 5 6 12 0 22 -3 22 -8z"/>
<path fill="#ffffff" stroke="none" d="M58 219 c-2 -6 -8 -10 -13 -10 -5 0
-11 4 -13 10 -2 6 4 11 13 11 9 0 15 -5 13 -11z"/>
<path fill="#ffffff" stroke="none" d="M218 223 c-17 -4 -23 -16 -18 -38 1 -5
-2 -7 -6 -3 -4 4 -12 4 -18 -2 -8 -6 -12 -3 -12 10 0 10 4 16 8 14 4 -3 8 0 8
5 0 6 -13 11 -29 11 -20 0 -35 -8 -49 -26 l-19 -27 -1 32 -1 31 77 -1 c42 -1
69 -3 60 -6z"/>
<path fill="#ffffff" stroke="none" d="M146 143 c-10 -11 -36 -12 -36 -2 0 5
10 9 22 9 12 0 18 -3 14 -7z"/>
<path fill="#ffffff" stroke="none" d="M200 131 c-14 -27 -29 -35 -25 -14 2
10 4 21 4 26 1 4 8 7 16 7 12 0 14 -4 5 -19z"/>
<path fill="#ffffff" stroke="none" d="M81 38 c-3 -21 -6 -26 -9 -15 -3 17 3
47 11 47 2 0 1 -15 -2 -32z"/>
<path fill="#ffffff" stroke="none" d="M165 60 c-3 -5 -12 -7 -20 -3 -21 7
-19 13 6 13 11 0 18 -4 14 -10z"/>
<path fill="#ffffff" stroke="none" d="M300 63 c-8 -3 -21 -11 -29 -17 -12 -9
-13 -8 -7 3 6 9 5 12 -5 9 -7 -2 -16 -15 -20 -29 -6 -21 -7 -21 -8 9 -1 31 0
32 42 31 23 0 35 -3 27 -6z"/>
</g>
</svg>
