<?xml version="1.0" standalone="no"?>
<!DOCTYPE svg PUBLIC "-//W3C//DTD SVG 20010904//EN"
 "http://www.w3.org/TR/2001/REC-SVG-20010904/DTD/svg10.dtd">
<svg version="1.0" xmlns="http://www.w3.org/2000/svg"
 width="32.000000pt" height="32.000000pt" viewBox="0 0 32.000000 32.000000"
 preserveAspectRatio="xMidYMid meet">
<metadata>
Created by potrace 1.16, written by Peter Selinger 2001-2019
</metadata>
<g transform="translate(0.000000,32.000000) scale(0.100000,-0.100000)"
fill="#000000" stroke="none">
<path fill="#000000" stroke="none" d="M27 303 c3 -10 12 -23 20 -30 15 -12 1
-29 -16 -19 -5 3 -14 -1 -21 -9 -8 -9 -8 -15 -2 -15 6 0 12 5 14 10 2 7 11 5
23 -5 18 -13 18 -16 4 -27 -9 -7 -14 -19 -12 -25 3 -7 -2 -13 -11 -13 -21 0
-20 -17 2 -29 22 -12 28 -61 8 -61 -8 0 -17 8 -19 17 -4 14 -5 12 -6 -4 -1
-17 5 -23 20 -23 16 0 20 -5 17 -27 -1 -16 -7 -31 -13 -35 -5 -4 45 -8 113 -8
122 0 123 0 122 23 -3 38 -1 47 15 47 8 0 15 4 15 10 0 5 -5 9 -11 7 -21 -4
-20 20 1 44 l21 24 -5 -30 c-2 -17 0 -37 5 -45 6 -11 9 0 7 35 -3 46 -5 50
-26 48 -21 -3 -23 1 -20 30 2 24 8 33 26 35 19 3 22 9 22 48 0 24 -4 44 -9 44
-4 0 -8 -10 -8 -22 -1 -43 -3 -48 -22 -48 -14 0 -18 6 -15 26 1 15 9 31 16 35
9 6 7 9 -7 9 -14 0 -24 -10 -32 -31 -10 -26 -15 -29 -31 -20 -28 15 -98 17
-115 3 -11 -10 -17 -9 -27 3 -7 8 -16 12 -21 9 -14 -8 -10 3 7 20 14 15 13 16
-10 16 -20 0 -24 -4 -19 -17z"/>
<path fill="#ffffff" stroke="none" d="M135 260 c3 -5 1 -10 -4 -10 -6 0 -11
5 -11 10 0 6 2 10 4 10 3 0 8 -4 11 -10z"/>
<path fill="#ffffff" stroke="none" d="M200 258 c0 -12 -38 -10 -45 2 -4 6 5
9 19 8 15 -1 26 -6 26 -10z"/>
<path fill="#ffffff" stroke="none" d="M251 219 c6 -11 8 -23 5 -26 -3 -3 -8
2 -12 11 -3 9 -10 16 -16 16 -5 0 -6 -6 -2 -12 5 -8 0 -7 -11 2 -10 8 -16 10
-12 4 4 -7 0 -15 -9 -18 -23 -9 -24 -8 -24 17 0 20 5 24 35 25 26 1 37 -4 46
-19z"/>
<path fill="#ffffff" stroke="none" d="M95 190 c3 -5 1 -10 -4 -10 -6 0 -11 5
-11 10 0 6 2 10 4 10 3 0 8 -4 11 -10z"/>
<path fill="#ffffff" stroke="none" d="M200 155 c0 -27 -10 -31 -41 -15 -13 7
-19 7 -19 0 0 -5 -4 -10 -9 -10 -5 0 -8 11 -8 25 0 22 4 25 38 25 35 0 39 -3
39 -25z"/>
<path fill="#ffffff" stroke="none" d="M260 170 c0 -5 -6 -10 -12 -10 -10 0
-10 -2 0 -9 10 -6 7 -10 -12 -13 -22 -4 -26 -2 -26 18 0 19 5 24 25 24 14 0
25 -4 25 -10z"/>
<path fill="#ffffff" stroke="none" d="M100 151 c0 -11 -6 -18 -15 -17 -20 3
-28 13 -20 25 11 18 35 12 35 -8z"/>
<path fill="#ffffff" stroke="none" d="M100 100 c6 -12 7 -20 1 -20 -5 0 -12
6 -14 13 -3 7 -6 5 -6 -5 -1 -10 -5 -18 -11 -18 -5 0 -9 11 -8 25 3 30 23 33
38 5z"/>
<path fill="#ffffff" stroke="none" d="M155 96 c0 -29 -20 -30 -33 -1 -8 17
-6 21 12 23 16 1 21 -4 21 -22z"/>
<path fill="#ffffff" stroke="none" d="M251 106 c-6 -7 -8 -15 -6 -18 10 -10
-32 -16 -46 -7 -12 7 -12 9 0 9 8 0 11 3 8 6 -4 4 -13 1 -22 -6 -13 -10 -15
-9 -15 8 0 17 6 20 46 20 35 0 43 -2 35 -12z"/>
<path fill="#ffffff" stroke="none" d="M196 38 c0 -20 -5 -23 -38 -23 -33 0
-38 3 -38 23 0 19 5 22 38 22 33 0 38 -3 38 -22z"/>
<path fill="#ffffff" stroke="none" d="M252 48 c-6 -7 -10 -17 -9 -23 1 -5 -6
-11 -15 -13 -14 -3 -18 3 -18 22 0 21 5 26 26 26 20 0 24 -3 16 -12z"/>
<path fill="#000000" stroke="none" d="M170 149 c0 -5 5 -7 10 -4 6 3 10 8 10
11 0 2 -4 4 -10 4 -5 0 -10 -5 -10 -11z"/>
<path fill="#000000" stroke="none" d="M108 313 c17 -2 47 -2 65 0 17 2 3 4
-33 4 -36 0 -50 -2 -32 -4z"/>
</g>
</svg>
