<?xml version="1.0" standalone="no"?>
<!DOCTYPE svg PUBLIC "-//W3C//DTD SVG 20010904//EN"
 "http://www.w3.org/TR/2001/REC-SVG-20010904/DTD/svg10.dtd">
<svg version="1.0" xmlns="http://www.w3.org/2000/svg"
 width="32.000000pt" height="32.000000pt" viewBox="0 0 32.000000 32.000000"
 preserveAspectRatio="xMidYMid meet">
<metadata>
Created by potrace 1.16, written by Peter Selinger 2001-2019
</metadata>
<g transform="translate(0.000000,32.000000) scale(0.100000,-0.100000)"
fill="#000000" stroke="none">
<path fill="#000000" stroke="none" d="M0 274 c0 -29 3 -34 13 -26 7 6 22 10
32 8 11 -2 30 4 43 12 28 18 92 24 109 10 7 -6 22 -8 33 -5 12 3 24 -1 29 -11
13 -22 46 -4 47 27 1 21 -2 21 -152 21 l-154 0 0 -36z"/>
<path fill="#ffffff" stroke="none" d="M47 268 c-3 -8 -6 -5 -6 6 -1 11 2 17
5 13 3 -3 4 -12 1 -19z"/>
<path fill="#000000" stroke="none" d="M88 222 c-3 -11 0 -19 8 -19 8 0 12 3
9 5 -3 3 0 11 6 19 9 10 8 13 -4 13 -8 0 -17 -8 -19 -18z"/>
<path fill="#000000" stroke="none" d="M0 215 c0 -8 4 -15 10 -15 5 0 7 -7 4
-15 -5 -11 -2 -13 10 -9 9 3 16 10 16 14 0 5 3 15 6 24 5 12 0 16 -20 16 -16
0 -26 -6 -26 -15z"/>
<path fill="#000000" stroke="none" d="M264 214 c3 -9 6 -21 6 -28 0 -8 10
-13 22 -12 15 1 22 9 25 29 3 24 1 27 -28 27 -24 0 -30 -3 -25 -16z"/>
<path fill="#ffffff" stroke="none" d="M307 193 c0 -9 -4 -10 -14 -2 -7 6 -13
12 -13 14 0 1 6 2 13 2 8 0 14 -6 14 -14z"/>
<path fill="#000000" stroke="none" d="M170 199 c0 -5 5 -7 10 -4 6 3 10 8 10
11 0 2 -4 4 -10 4 -5 0 -10 -5 -10 -11z"/>
<path fill="#000000" stroke="none" d="M165 170 c3 -5 8 -10 11 -10 2 0 4 5 4
10 0 6 -5 10 -11 10 -5 0 -7 -4 -4 -10z"/>
<path fill="#000000" stroke="none" d="M0 115 c0 -24 5 -35 14 -35 18 0 23 8
30 43 4 23 1 27 -20 27 -21 0 -24 -5 -24 -35z"/>
<path fill="#000000" stroke="none" d="M270 123 c0 -22 2 -25 10 -13 8 12 10
12 10 1 0 -8 3 -11 6 -8 4 4 1 14 -7 24 -8 9 -9 14 -2 10 6 -4 14 -3 18 3 3 5
-3 10 -14 10 -16 0 -21 -6 -21 -27z"/>
<path fill="#000000" stroke="none" d="M4 45 c2 -34 15 -43 32 -21 21 29 17
46 -9 46 -19 0 -24 -5 -23 -25z"/>
<path fill="#ffffff" stroke="none" d="M34 35 c-4 -8 -11 -15 -16 -15 -6 0 -5
6 2 15 16 19 21 19 14 0z"/>
<path fill="#000000" stroke="none" d="M270 35 c0 -32 2 -35 19 -26 10 6 20 8
23 6 2 -3 4 9 4 25 0 25 -4 30 -23 30 -20 0 -23 -5 -23 -35z"/>
<path fill="#ffffff" stroke="none" d="M304 42 c3 -5 -1 -9 -9 -9 -8 0 -12 4
-9 9 3 4 7 8 9 8 2 0 6 -4 9 -8z"/>
<path fill="#000000" stroke="none" d="M148 53 c7 -3 16 -2 19 1 4 3 -2 6 -13
5 -11 0 -14 -3 -6 -6z"/>
</g>
</svg>
