<?xml version="1.0" standalone="no"?>
<!DOCTYPE svg PUBLIC "-//W3C//DTD SVG 20010904//EN"
 "http://www.w3.org/TR/2001/REC-SVG-20010904/DTD/svg10.dtd">
<svg version="1.0" xmlns="http://www.w3.org/2000/svg"
 width="32.000000pt" height="32.000000pt" viewBox="0 0 32.000000 32.000000"
 preserveAspectRatio="xMidYMid meet">
<metadata>
Created by potrace 1.16, written by Peter Selinger 2001-2019
</metadata>
<g transform="translate(0.000000,32.000000) scale(0.100000,-0.100000)"
fill="#000000" stroke="none">
<path fill="#000000" stroke="none" d="M10 312 c-14 -5 -12 -69 3 -75 10 -4
10 -6 0 -6 -8 -1 -13 -15 -13 -35 0 -29 3 -33 19 -29 17 4 32 29 35 58 1 6 13
20 27 33 33 27 96 30 142 5 18 -9 37 -16 44 -15 6 1 14 -2 18 -8 3 -5 -1 -10
-10 -10 -10 0 -15 -5 -12 -14 4 -10 -4 -12 -31 -9 -46 5 -55 13 -14 13 18 0
32 5 32 11 0 6 -6 9 -12 6 -7 -2 -19 3 -26 12 -8 9 -10 10 -7 3 5 -9 1 -12
-11 -10 -12 2 -19 -3 -18 -12 1 -9 -8 -17 -18 -17 -16 -2 -17 1 -8 13 10 11
10 14 0 14 -7 0 -10 7 -6 15 4 10 -1 15 -14 15 -11 0 -20 -7 -20 -16 0 -8 4
-13 8 -10 4 2 8 -4 8 -15 0 -10 -6 -19 -13 -19 -7 0 -10 7 -7 15 4 10 0 15
-15 15 -23 0 -27 -10 -10 -27 5 -5 9 -34 7 -64 -3 -46 -6 -54 -23 -54 -15 0
-20 6 -19 27 1 23 -3 28 -22 28 -21 0 -24 -5 -24 -34 0 -29 3 -33 19 -29 11 3
30 -2 43 -11 12 -9 17 -16 10 -16 -7 0 -12 -13 -12 -29 l0 -28 98 2 97 2 3 26
c3 28 -7 32 -63 28 -17 -2 -17 0 -5 8 8 6 23 8 33 5 9 -3 17 -1 17 5 0 14
-133 12 -142 -2 -5 -8 -8 -6 -8 6 0 9 5 17 11 17 5 0 8 4 5 9 -3 4 5 7 17 6
12 0 30 3 41 8 13 6 16 6 12 -2 -4 -6 0 -11 9 -11 23 0 41 45 26 64 -9 11 -9
16 0 21 10 7 23 -5 32 -30 3 -5 8 -6 13 -2 5 4 2 12 -6 17 -13 8 -12 10 3 10
13 0 17 -9 17 -43 0 -24 -5 -48 -11 -54 -7 -7 -4 -10 12 -9 15 1 27 11 36 34
13 32 9 38 -20 33 -5 -1 -5 3 -2 9 4 6 13 9 21 6 10 -4 14 4 14 29 0 19 -4 35
-8 35 -5 0 -7 19 -6 43 l3 42 -145 0 c-79 0 -149 -1 -154 -3z"/>
<path fill="#ffffff" stroke="none" d="M188 156 c-2 -1 -10 -7 -19 -14 -14
-10 -18 -10 -22 2 -4 10 -1 13 9 9 7 -3 14 0 14 7 0 6 5 8 11 5 6 -4 9 -8 7
-9z"/>
<path fill="#ffffff" stroke="none" d="M143 63 c-7 -2 -19 -2 -25 0 -7 3 -2 5
12 5 14 0 19 -2 13 -5z"/>
<path fill="#000000" stroke="none" d="M160 260 c0 -5 4 -10 9 -10 6 0 13 5
16 10 3 6 -1 10 -9 10 -9 0 -16 -4 -16 -10z"/>
<path fill="#000000" stroke="none" d="M60 200 c0 -5 5 -10 10 -10 6 0 10 5
10 10 0 6 -4 10 -10 10 -5 0 -10 -4 -10 -10z"/>
<path fill="#000000" stroke="none" d="M60 169 c0 -5 5 -7 10 -4 6 3 10 8 10
11 0 2 -4 4 -10 4 -5 0 -10 -5 -10 -11z"/>
<path fill="#000000" stroke="none" d="M60 139 c0 -5 5 -7 10 -4 6 3 10 8 10
11 0 2 -4 4 -10 4 -5 0 -10 -5 -10 -11z"/>
<path fill="#000000" stroke="none" d="M240 139 c0 -5 5 -7 10 -4 6 3 10 8 10
11 0 2 -4 4 -10 4 -5 0 -10 -5 -10 -11z"/>
<path fill="#000000" stroke="none" d="M235 110 c-3 -5 1 -10 9 -10 9 0 16 5
16 10 0 6 -4 10 -9 10 -6 0 -13 -4 -16 -10z"/>
<path fill="#000000" stroke="none" d="M304 85 c-4 -8 -12 -15 -20 -15 -9 0
-14 -12 -14 -34 0 -30 3 -34 25 -32 24 1 26 4 24 49 -3 50 -6 57 -15 32z"/>
<path fill="#000000" stroke="none" d="M0 39 c0 -26 3 -30 23 -27 16 2 23 11
25 31 3 23 0 27 -22 27 -22 0 -26 -4 -26 -31z"/>
</g>
</svg>
