<?xml version="1.0" standalone="no"?>
<!DOCTYPE svg PUBLIC "-//W3C//DTD SVG 20010904//EN"
 "http://www.w3.org/TR/2001/REC-SVG-20010904/DTD/svg10.dtd">
<svg version="1.0" xmlns="http://www.w3.org/2000/svg"
 width="32.000000pt" height="32.000000pt" viewBox="0 0 32.000000 32.000000"
 preserveAspectRatio="xMidYMid meet">
<metadata>
Created by potrace 1.16, written by Peter Selinger 2001-2019
</metadata>
<g transform="translate(0.000000,32.000000) scale(0.100000,-0.100000)"
fill="#000000" stroke="none">
<path fill="#000000" stroke="none" d="M0 280 c0 -16 2 -30 4 -30 15 0 35 13
31 20 -3 5 -1 11 5 15 5 3 10 -1 10 -9 0 -8 4 -17 9 -21 6 -3 8 6 5 21 -4 25
-4 25 12 9 12 -11 20 -13 27 -6 13 13 84 15 91 2 9 -13 56 -20 50 -7 -3 6 1 3
10 -8 19 -24 42 -15 48 18 l5 26 -153 0 -154 0 0 -30z"/>
<path fill="#ffffff" stroke="none" d="M278 265 c-3 -3 -9 2 -12 12 -6 14 -5
15 5 6 7 -7 10 -15 7 -18z"/>
<path fill="#000000" stroke="none" d="M88 222 c-3 -11 0 -19 8 -19 8 0 12 3
9 5 -3 3 0 11 6 19 9 10 8 13 -4 13 -8 0 -17 -8 -19 -18z"/>
<path fill="#000000" stroke="none" d="M218 233 c7 -3 16 -2 19 1 4 3 -2 6
-13 5 -11 0 -14 -3 -6 -6z"/>
<path fill="#000000" stroke="none" d="M0 214 c0 -8 5 -12 10 -9 6 3 10 2 10
-4 0 -5 -6 -12 -12 -14 -7 -3 -3 -6 10 -6 12 -1 22 3 22 8 0 5 3 16 6 25 5 12
0 16 -20 16 -17 0 -26 -5 -26 -16z"/>
<path fill="#000000" stroke="none" d="M263 218 c2 -7 13 -12 25 -12 12 1 20
-2 17 -5 -2 -4 0 -13 4 -20 5 -7 8 -1 9 18 1 28 -2 31 -30 31 -19 0 -28 -4
-25 -12z"/>
<path fill="#000000" stroke="none" d="M170 199 c0 -5 5 -7 10 -4 6 3 10 8 10
11 0 2 -4 4 -10 4 -5 0 -10 -5 -10 -11z"/>
<path fill="#000000" stroke="none" d="M276 193 c-11 -11 -6 -23 9 -23 8 0 15
4 15 9 0 13 -16 22 -24 14z"/>
<path fill="#000000" stroke="none" d="M165 170 c3 -5 8 -10 11 -10 2 0 4 5 4
10 0 6 -5 10 -11 10 -5 0 -7 -4 -4 -10z"/>
<path fill="#000000" stroke="none" d="M0 115 c0 -24 5 -35 14 -35 18 0 23 8
30 43 4 23 1 27 -20 27 -21 0 -24 -5 -24 -35z"/>
<path fill="#000000" stroke="none" d="M106 135 c-23 -23 -20 -33 9 -27 27 5
29 10 16 30 -6 11 -11 10 -25 -3z"/>
<path fill="#000000" stroke="none" d="M146 142 c-3 -5 3 -15 13 -23 15 -14
18 -13 27 6 9 18 7 21 -12 23 -13 1 -25 -2 -28 -6z"/>
<path fill="#000000" stroke="none" d="M270 120 c0 -20 5 -30 15 -30 18 0 20
21 3 39 -9 10 -9 12 -1 7 6 -3 14 -2 18 4 3 5 -3 10 -14 10 -17 0 -21 -6 -21
-30z"/>
<path fill="#000000" stroke="none" d="M193 100 c0 -36 -9 -48 -25 -32 -9 9
-9 12 0 12 10 0 10 3 0 14 -15 16 -38 10 -38 -11 0 -8 5 -11 12 -7 7 4 8 3 4
-4 -4 -7 -18 -11 -31 -10 -13 1 -21 6 -18 11 5 8 -14 26 -27 27 -3 0 -5 -11
-5 -25 0 -14 4 -25 8 -25 5 0 6 -8 3 -18 -5 -13 0 -18 19 -20 14 -1 25 4 25
11 0 7 3 8 8 2 10 -14 132 -19 132 -5 0 5 -9 10 -20 10 -11 0 -20 4 -20 10 0
5 6 7 14 4 8 -3 17 -1 21 5 4 7 -3 11 -18 11 -14 0 -27 7 -31 15 -3 8 -1 15 5
15 6 0 7 5 4 10 -3 6 -1 10 4 10 6 0 11 -7 11 -15 0 -8 5 -15 10 -15 16 0 7
24 -15 37 -29 18 -32 16 -32 -17z"/>
<path fill="#ffffff" stroke="none" d="M155 40 c3 -5 1 -10 -4 -10 -6 0 -11 5
-11 10 0 6 2 10 4 10 3 0 8 -4 11 -10z"/>
<path fill="#000000" stroke="none" d="M4 45 c2 -34 15 -43 32 -21 21 29 17
46 -9 46 -19 0 -24 -5 -23 -25z"/>
<path fill="#ffffff" stroke="none" d="M33 35 c-3 -9 -8 -14 -10 -11 -3 3 -2
9 2 15 9 16 15 13 8 -4z"/>
<path fill="#000000" stroke="none" d="M270 34 c0 -36 1 -36 23 -22 31 21 32
58 1 58 -21 0 -24 -5 -24 -36z"/>
</g>
</svg>
