<?xml version="1.0" standalone="no"?>
<!DOCTYPE svg PUBLIC "-//W3C//DTD SVG 20010904//EN"
 "http://www.w3.org/TR/2001/REC-SVG-20010904/DTD/svg10.dtd">
<svg version="1.0" xmlns="http://www.w3.org/2000/svg"
 width="32.000000pt" height="32.000000pt" viewBox="0 0 32.000000 32.000000"
 preserveAspectRatio="xMidYMid meet">
<metadata>
Created by potrace 1.16, written by Peter Selinger 2001-2019
</metadata>
<g transform="translate(0.000000,32.000000) scale(0.100000,-0.100000)"
fill="#000000" stroke="none">
<path fill="#000000" stroke="none" d="M0 313 c0 -5 48 -7 107 -5 193 4 211 8
51 10 -87 1 -158 -1 -158 -5z"/>
<path fill="#000000" stroke="none" d="M185 240 c-4 -6 8 -10 29 -10 19 0 38
-5 41 -10 8 -13 25 -3 25 14 0 16 -86 21 -95 6z"/>
<path fill="#000000" stroke="none" d="M3 195 c0 -22 2 -30 4 -17 2 12 2 30 0
40 -3 9 -5 -1 -4 -23z"/>
</g>
</svg>
