<?xml version="1.0" standalone="no"?>
<!DOCTYPE svg PUBLIC "-//W3C//DTD SVG 20010904//EN"
 "http://www.w3.org/TR/2001/REC-SVG-20010904/DTD/svg10.dtd">
<svg version="1.0" xmlns="http://www.w3.org/2000/svg"
 width="32.000000pt" height="32.000000pt" viewBox="0 0 32.000000 32.000000"
 preserveAspectRatio="xMidYMid meet">
<metadata>
Created by potrace 1.16, written by Peter Selinger 2001-2019
</metadata>
<g transform="translate(0.000000,32.000000) scale(0.100000,-0.100000)"
fill="#000000" stroke="none">
<path fill="#000000" stroke="none" d="M309 243 c0 -38 -3 -62 -6 -55 -9 23
-23 1 -23 -38 0 -31 3 -38 15 -34 9 4 15 0 15 -10 0 -9 -7 -16 -15 -16 -9 0
-15 -10 -15 -26 0 -18 -5 -25 -17 -23 -40 4 -53 -2 -53 -21 0 -18 7 -20 55
-20 l55 0 0 155 c0 85 -2 155 -5 155 -3 0 -5 -30 -6 -67z"/>
<path fill="#000000" stroke="none" d="M50 280 c-6 -11 -18 -20 -27 -20 -14 0
-14 -2 3 -15 10 -9 13 -14 5 -13 -17 4 -20 -13 -25 -134 l-5 -98 44 0 c24 0
47 5 50 10 3 6 28 10 56 10 27 0 49 5 49 10 0 6 -26 10 -57 10 -41 0 -54 3
-43 10 8 5 36 10 63 10 26 0 47 4 47 9 0 16 -62 62 -76 57 -26 -10 -14 3 18
18 39 20 35 21 53 -14 9 -18 23 -30 35 -30 17 0 20 7 20 40 0 29 -4 38 -14 34
-7 -3 -16 2 -19 10 -8 20 -37 21 -37 1 0 -8 -6 -15 -14 -15 -21 0 -29 17 -11
24 8 3 15 11 14 18 0 10 -2 10 -6 1 -7 -18 -21 -16 -25 3 -3 14 -6 13 -29 -4
-28 -23 -43 -18 -53 16 -7 20 -4 22 26 24 18 1 54 0 79 -1 26 -2 50 2 53 8 5
8 -20 11 -79 11 -73 0 -86 2 -81 15 8 22 -1 18 -14 -5z"/>
<path fill="#ffffff" stroke="none" d="M75 50 c3 -5 1 -10 -4 -10 -6 0 -11 5
-11 10 0 6 2 10 4 10 3 0 8 -4 11 -10z"/>
<path fill="#000000" stroke="none" d="M100 290 c0 -5 5 -10 11 -10 5 0 7 5 4
10 -3 6 -8 10 -11 10 -2 0 -4 -4 -4 -10z"/>
<path fill="#000000" stroke="none" d="M245 260 c-3 -5 1 -10 10 -10 9 0 13 5
10 10 -3 6 -8 10 -10 10 -2 0 -7 -4 -10 -10z"/>
<path fill="#000000" stroke="none" d="M245 70 c-3 -5 -1 -10 4 -10 6 0 11 5
11 10 0 6 -2 10 -4 10 -3 0 -8 -4 -11 -10z"/>
</g>
</svg>
