<?xml version="1.0" standalone="no"?>
<!DOCTYPE svg PUBLIC "-//W3C//DTD SVG 20010904//EN"
 "http://www.w3.org/TR/2001/REC-SVG-20010904/DTD/svg10.dtd">
<svg version="1.0" xmlns="http://www.w3.org/2000/svg"
 width="32.000000pt" height="32.000000pt" viewBox="0 0 32.000000 32.000000"
 preserveAspectRatio="xMidYMid meet">
<metadata>
Created by potrace 1.16, written by Peter Selinger 2001-2019
</metadata>
<g transform="translate(0.000000,32.000000) scale(0.100000,-0.100000)"
fill="#000000" stroke="none">
<path fill="#000000" stroke="none" d="M1 218 c1 -107 5 -120 12 -33 2 37 7
49 18 47 9 -1 7 3 -5 13 -16 12 -17 15 -4 15 8 0 23 10 32 23 10 14 14 16 10
5 -6 -16 2 -18 81 -18 59 0 84 -3 79 -11 -3 -6 -27 -10 -53 -8 -25 1 -61 2
-79 1 -30 -2 -33 -4 -26 -24 10 -34 25 -39 53 -16 23 17 26 18 29 4 4 -19 18
-21 25 -3 4 9 6 9 6 -1 1 -7 -6 -15 -14 -18 -18 -7 -10 -24 11 -24 8 0 14 7
14 15 0 20 29 19 37 -1 3 -8 12 -13 19 -10 10 4 14 -5 14 -34 0 -33 -3 -40
-20 -40 -12 0 -26 12 -35 30 -18 35 -14 34 -53 14 -32 -15 -44 -28 -18 -18 14
5 76 -41 76 -57 0 -5 -21 -9 -47 -9 -27 0 -55 -5 -63 -10 -11 -7 2 -10 43 -10
31 0 57 -4 57 -10 0 -5 -22 -10 -49 -10 -28 0 -53 -5 -56 -10 -4 -6 17 -10 54
-10 54 0 61 2 61 20 0 19 13 25 53 21 12 -2 17 5 17 23 0 16 6 26 15 26 8 0
15 7 15 16 0 10 -6 14 -15 10 -12 -4 -15 3 -15 34 0 38 14 62 23 38 2 -7 6 20
8 60 l4 72 -157 0 -158 0 1 -102z"/>
<path fill="#ffffff" stroke="none" d="M115 290 c3 -5 1 -10 -4 -10 -6 0 -11
5 -11 10 0 6 2 10 4 10 3 0 8 -4 11 -10z"/>
<path fill="#ffffff" stroke="none" d="M265 260 c3 -5 -1 -10 -10 -10 -9 0
-13 5 -10 10 3 6 8 10 10 10 2 0 7 -4 10 -10z"/>
<path fill="#ffffff" stroke="none" d="M260 70 c0 -5 -5 -10 -11 -10 -5 0 -7
5 -4 10 3 6 8 10 11 10 2 0 4 -4 4 -10z"/>
<path fill="#000000" stroke="none" d="M60 50 c0 -5 5 -10 11 -10 5 0 7 5 4
10 -3 6 -8 10 -11 10 -2 0 -4 -4 -4 -10z"/>
</g>
</svg>
