<?xml version="1.0" standalone="no"?>
<!DOCTYPE svg PUBLIC "-//W3C//DTD SVG 20010904//EN"
 "http://www.w3.org/TR/2001/REC-SVG-20010904/DTD/svg10.dtd">
<svg version="1.0" xmlns="http://www.w3.org/2000/svg"
 width="32.000000pt" height="32.000000pt" viewBox="0 0 32.000000 32.000000"
 preserveAspectRatio="xMidYMid meet">
<metadata>
Created by potrace 1.16, written by Peter Selinger 2001-2019
</metadata>
<g transform="translate(0.000000,32.000000) scale(0.100000,-0.100000)"
fill="#000000" stroke="none">
<path fill="#000000" stroke="none" d="M310 150 l0 -139 -142 -4 -143 -3 148
-2 147 -2 0 145 c0 80 -2 145 -5 145 -3 0 -5 -63 -5 -140z"/>
<path fill="#000000" stroke="none" d="M128 203 c7 -3 16 -2 19 1 4 3 -2 6
-13 5 -11 0 -14 -3 -6 -6z"/>
<path fill="#000000" stroke="none" d="M110 182 c0 -4 16 -6 35 -4 19 2 35 6
35 8 0 2 -16 4 -35 4 -19 0 -35 -4 -35 -8z"/>
<path fill="#000000" stroke="none" d="M137 163 c-10 -10 -8 -33 3 -33 5 0 7
7 4 15 -5 11 -2 13 10 9 9 -3 16 -1 16 5 0 12 -23 15 -33 4z"/>
<path fill="#000000" stroke="none" d="M176 145 c-3 -8 -1 -15 4 -15 6 0 10 7
10 15 0 8 -2 15 -4 15 -2 0 -6 -7 -10 -15z"/>
<path fill="#000000" stroke="none" d="M143 113 c9 -2 23 -2 30 0 6 3 -1 5
-18 5 -16 0 -22 -2 -12 -5z"/>
</g>
</svg>
