<?xml version="1.0" standalone="no"?>
<!DOCTYPE svg PUBLIC "-//W3C//DTD SVG 20010904//EN"
 "http://www.w3.org/TR/2001/REC-SVG-20010904/DTD/svg10.dtd">
<svg version="1.0" xmlns="http://www.w3.org/2000/svg"
 width="32.000000pt" height="32.000000pt" viewBox="0 0 32.000000 32.000000"
 preserveAspectRatio="xMidYMid meet">
<metadata>
Created by potrace 1.16, written by Peter Selinger 2001-2019
</metadata>
<g transform="translate(0.000000,32.000000) scale(0.100000,-0.100000)"
fill="#000000" stroke="none">
<path fill="#000000" stroke="none" d="M5 157 l0 -157 158 0 157 0 0 158 0
157 -157 0 -158 0 0 -158z"/>
<path fill="#ffffff" stroke="none" d="M130 265 c0 -11 -12 -15 -42 -17 l-43
-1 45 -7 45 -7 -47 -1 c-37 -2 -48 2 -48 13 0 11 12 15 43 16 l42 2 -35 7 -35
7 38 2 c27 1 37 -3 37 -14z"/>
<path fill="#ffffff" stroke="none" d="M210 245 l0 -35 -79 0 c-54 0 -81 -4
-84 -12 -3 -8 -6 -6 -6 5 -1 15 9 17 79 17 79 0 80 0 80 25 0 20 -5 25 -25 25
-16 0 -25 -6 -25 -15 0 -8 8 -15 18 -15 14 0 15 2 2 10 -13 8 -12 10 3 10 9 0
17 -7 17 -15 0 -9 -9 -15 -25 -15 -20 0 -25 5 -25 25 0 22 4 25 35 25 33 0 35
-2 35 -35z"/>
<path fill="#ffffff" stroke="none" d="M258 273 c-27 -4 -28 -7 -28 -59 0 -40
-4 -54 -14 -54 -8 0 -17 8 -19 18 -3 9 -5 2 -6 -15 l-1 -33 -75 0 c-69 0 -75
2 -75 21 0 11 7 27 15 35 13 14 15 14 15 0 0 -9 -4 -16 -10 -16 -5 0 -10 -7
-10 -15 0 -12 14 -15 65 -15 l65 0 0 30 c0 33 25 43 33 13 3 -10 5 8 6 40 l1
57 33 -1 c30 -2 30 -2 5 -6z"/>
<path fill="#ffffff" stroke="none" d="M255 250 c-3 -5 -2 -10 4 -10 5 0 12 6
14 13 3 7 6 5 6 -5 1 -12 -6 -18 -19 -18 -11 0 -20 7 -20 15 0 8 5 15 11 15 5
0 7 -4 4 -10z"/>
<path fill="#ffffff" stroke="none" d="M265 210 l-20 -9 20 -1 20 -1 -20 -9
-20 -9 20 -1 20 -1 -20 -9 c-17 -7 -17 -9 -2 -9 10 -1 17 -9 17 -21 0 -15 -7
-20 -25 -20 -14 0 -25 -5 -25 -11 0 -7 -18 -8 -55 -4 -51 7 -55 6 -55 -14 0
-14 6 -21 18 -20 10 0 12 3 5 6 -21 8 -15 20 10 18 13 -1 23 -9 25 -21 3 -16
1 -16 -7 -4 -7 10 -11 11 -11 3 0 -7 -11 -13 -25 -13 -21 0 -25 5 -25 31 l0
32 55 -6 c31 -3 55 -2 55 4 0 5 11 9 25 9 14 0 25 5 25 10 0 13 -52 1 -62 -14
-5 -7 -8 -4 -8 7 0 10 8 17 20 17 16 0 20 7 20 35 0 30 3 35 23 34 21 0 21 -1
2 -9z"/>
<path fill="#ffffff" stroke="none" d="M170 185 c0 -10 -11 -15 -32 -16 l-33
-2 35 -7 35 -7 -37 -2 c-49 -1 -53 26 -5 32 31 4 31 4 -5 5 -32 2 -38 -1 -38
-18 0 -13 -6 -20 -17 -19 -11 0 -13 3 -5 6 6 2 12 13 12 24 0 16 7 19 45 19
33 0 45 -4 45 -15z"/>
<path fill="#ffffff" stroke="none" d="M100 85 c0 -35 0 -35 45 -35 38 0 45 3
45 20 0 15 7 20 25 20 14 0 25 5 25 10 0 6 9 10 20 10 15 0 20 -7 20 -27 0
-21 -3 -24 -9 -13 -6 8 -7 18 -5 22 3 4 0 8 -5 8 -6 0 -11 -4 -11 -10 0 -5
-11 -10 -25 -10 -18 0 -25 -5 -25 -20 0 -18 -7 -20 -55 -20 l-55 0 0 35 c0 28
-4 35 -19 35 -14 0 -21 -8 -24 -27 -4 -26 -4 -26 -6 5 -1 29 2 32 29 32 28 0
30 -3 30 -35z"/>
<path fill="#ffffff" stroke="none" d="M80 70 c0 -25 -4 -30 -22 -29 -18 0
-19 2 -7 7 9 4 15 17 14 30 -1 12 2 22 7 22 4 0 8 -13 8 -30z"/>
<path fill="#ffffff" stroke="none" d="M240 61 l-25 -8 25 -5 c25 -5 25 -5 -2
-7 -19 -1 -28 4 -28 14 0 10 9 15 28 14 l27 -1 -25 -7z"/>
</g>
</svg>
