<?xml version="1.0" standalone="no"?>
<!DOCTYPE svg PUBLIC "-//W3C//DTD SVG 20010904//EN"
 "http://www.w3.org/TR/2001/REC-SVG-20010904/DTD/svg10.dtd">
<svg version="1.0" xmlns="http://www.w3.org/2000/svg"
 width="32.000000pt" height="32.000000pt" viewBox="0 0 32.000000 32.000000"
 preserveAspectRatio="xMidYMid meet">
<metadata>
Created by potrace 1.16, written by Peter Selinger 2001-2019
</metadata>
<g transform="translate(0.000000,32.000000) scale(0.100000,-0.100000)"
fill="#000000" stroke="none">
<path fill="#000000" stroke="none" d="M23 297 c-12 -19 -12 -36 -1 -43 7 -4
6 -9 -2 -14 -9 -5 -8 -9 2 -13 9 -3 14 2 15 14 1 10 -4 19 -10 19 -7 1 6 10
27 20 45 23 50 24 41 10 -9 -14 39 -12 53 2 9 9 12 5 13 -17 1 -24 3 -26 6 -7
2 12 8 20 13 17 4 -3 13 1 19 9 10 12 -3 14 -78 14 -59 0 -93 -4 -98 -11z"/>
<path fill="#ffffff" stroke="none" d="M137 294 c-3 -3 -12 -4 -19 -1 -8 3 -5
6 6 6 11 1 17 -2 13 -5z"/>
<path fill="#000000" stroke="none" d="M213 295 c-23 -25 -16 -55 12 -55 14 0
25 -4 25 -10 0 -22 16 -8 18 15 1 21 -2 25 -26 24 l-27 -1 25 -8 25 -8 -27 -1
c-19 -1 -28 4 -28 14 0 10 11 15 35 15 33 0 35 -2 35 -35 0 -28 -4 -35 -20
-35 -11 0 -20 5 -20 10 0 6 -11 10 -24 10 -18 0 -26 7 -29 23 -4 19 -4 19 -6
-5 0 -16 -8 -28 -18 -31 -10 -2 1 -2 25 1 27 3 42 0 42 -7 0 -6 11 -11 25 -11
18 0 25 -5 25 -20 0 -11 -7 -20 -15 -20 -9 0 -15 -9 -15 -25 0 -14 4 -25 9
-25 6 0 8 9 6 20 -2 11 0 20 6 20 5 0 9 -11 9 -25 0 -18 -5 -25 -20 -25 -16 0
-20 7 -20 35 0 28 -4 35 -20 35 -12 0 -20 7 -20 18 0 10 3 13 8 6 10 -15 62
-27 62 -14 0 5 -11 10 -24 10 -13 0 -26 4 -28 9 -1 5 -27 6 -55 4 l-53 -6 0
-38 c0 -28 -4 -39 -15 -39 -8 0 -15 9 -15 20 0 13 -6 20 -17 19 -11 0 -13 -3
-5 -6 6 -2 12 -12 11 -21 0 -11 -2 -12 -6 -4 -2 6 -9 12 -14 12 -4 0 -6 -7 -3
-15 4 -9 19 -15 40 -15 33 0 34 1 34 40 0 39 1 40 35 40 34 0 35 -2 36 -37 1
-24 3 -29 6 -15 2 12 11 22 19 22 10 0 14 -14 14 -55 0 -48 2 -55 20 -55 11 0
20 7 20 15 0 8 -5 15 -11 15 -5 0 -7 -4 -4 -10 3 -5 1 -10 -4 -10 -6 0 -11 7
-11 15 0 8 9 15 20 15 15 0 20 -7 20 -25 0 -21 -5 -25 -30 -25 -30 0 -30 1
-31 58 -1 31 -4 47 -6 35 -7 -38 -33 -28 -33 12 0 31 -3 35 -25 35 -23 0 -25
-4 -23 -37 1 -37 1 -37 5 -5 6 45 33 43 33 -3 0 -28 4 -35 20 -35 16 0 20 -7
20 -30 0 -28 -3 -30 -35 -30 -28 0 -35 4 -35 20 0 15 -6 20 -27 19 -24 -2 -25
-2 -5 -6 32 -6 28 -33 -5 -32 l-28 1 25 8 c24 8 24 8 3 9 -40 2 -28 31 12 31
28 0 35 -4 35 -20 0 -11 7 -20 15 -20 8 0 15 5 15 11 0 5 -4 7 -10 4 -5 -3
-10 -1 -10 4 0 18 28 12 33 -6 4 -14 5 -12 6 5 1 16 -5 22 -19 22 -16 0 -20 7
-22 38 -1 36 -1 36 -5 5 -4 -33 -5 -33 -59 -33 -44 0 -54 3 -56 18 -4 50 -3
72 5 72 4 0 5 5 2 10 -4 6 -10 8 -15 5 -4 -3 -10 1 -13 7 -2 7 -5 -35 -6 -95
l-2 -107 151 0 150 0 0 150 0 150 -42 0 c-24 -1 -49 -7 -55 -15z"/>
<path fill="#ffffff" stroke="none" d="M60 80 c-10 -6 -11 -10 -2 -10 6 0 12
-7 12 -15 0 -8 -8 -15 -17 -15 -15 0 -16 2 -3 10 10 6 11 10 3 10 -7 0 -13 7
-13 15 0 8 8 15 18 15 14 0 15 -2 2 -10z"/>
<path fill="#000000" stroke="none" d="M58 245 c-3 -14 -1 -28 3 -31 5 -3 9 9
9 25 0 38 -6 40 -12 6z"/>
<path fill="#000000" stroke="none" d="M105 259 c-4 -6 -4 -13 -1 -16 3 -4 6
-1 6 5 0 16 27 15 33 0 3 -8 6 -6 6 5 1 19 -33 24 -44 6z"/>
<path fill="#000000" stroke="none" d="M81 234 c0 -11 3 -14 6 -6 3 7 2 16 -1
19 -3 4 -6 -2 -5 -13z"/>
<path fill="#000000" stroke="none" d="M122 230 c0 -14 2 -19 5 -12 2 6 2 18
0 25 -3 6 -5 1 -5 -13z"/>
<path fill="#000000" stroke="none" d="M88 155 c2 -14 6 -25 8 -25 2 0 4 11 4
25 0 14 -4 25 -9 25 -4 0 -6 -11 -3 -25z"/>
</g>
</svg>
