<?xml version="1.0" standalone="no"?>
<!DOCTYPE svg PUBLIC "-//W3C//DTD SVG 20010904//EN"
 "http://www.w3.org/TR/2001/REC-SVG-20010904/DTD/svg10.dtd">
<svg version="1.0" xmlns="http://www.w3.org/2000/svg"
 width="32.000000pt" height="32.000000pt" viewBox="0 0 32.000000 32.000000"
 preserveAspectRatio="xMidYMid meet">
<metadata>
Created by potrace 1.16, written by Peter Selinger 2001-2019
</metadata>
<g transform="translate(0.000000,32.000000) scale(0.100000,-0.100000)"
fill="#000000" stroke="none">
<path fill="#000000" stroke="none" d="M158 303 c6 -2 18 -2 25 0 6 3 1 5 -13
5 -14 0 -19 -2 -12 -5z"/>
<path fill="#000000" stroke="none" d="M228 303 c7 -3 16 -2 19 1 4 3 -2 6
-13 5 -11 0 -14 -3 -6 -6z"/>
<path fill="#000000" stroke="none" d="M310 289 c0 -14 -5 -19 -14 -16 -11 4
-16 -3 -18 -25 -2 -17 -10 -34 -18 -36 -13 -5 -13 -3 0 13 9 11 10 16 3 11 -7
-4 -13 -2 -13 4 0 7 -26 10 -77 8 l-78 -3 -6 -40 -5 -40 -6 40 c-4 37 -5 36
-7 -15 l-2 -55 -18 22 c-12 14 -17 32 -14 45 4 19 3 20 -6 8 -9 -13 -11 -13
-11 1 0 8 5 20 12 27 9 9 9 12 0 12 -6 0 -14 -10 -16 -22 -6 -34 -3 -78 6 -78
4 0 3 -11 -2 -25 -7 -18 -6 -24 3 -22 7 1 10 -5 8 -13 -2 -8 -5 -28 -7 -43 -2
-24 1 -28 17 -24 10 3 19 1 19 -5 0 -6 -13 -8 -29 -6 -17 2 -28 1 -25 -4 3 -4
75 -8 160 -8 l154 0 0 155 c0 85 -2 155 -5 155 -3 0 -5 -9 -5 -21z"/>
<path fill="#ffffff" stroke="none" d="M299 196 c-4 -17 -12 -44 -17 -61 l-10
-30 -1 33 c-1 17 4 32 9 32 6 0 10 19 10 43 0 27 3 37 9 28 5 -7 5 -27 0 -45z"/>
<path fill="#ffffff" stroke="none" d="M240 165 c0 -69 -2 -76 -22 -85 -22 -8
-22 -9 4 -9 23 -1 27 4 31 32 4 31 4 31 5 -6 2 -39 2 -39 -35 -36 -21 1 -56 1
-78 -1 -36 -2 -37 -3 -15 -10 20 -6 14 -8 -25 -8 -37 -1 -45 2 -30 8 17 7 17
9 3 9 -18 1 -22 10 -19 43 2 12 -3 16 -13 12 -10 -4 -16 -1 -16 8 0 24 11 28
28 11 14 -14 17 -14 23 3 5 14 7 9 6 -14 0 -22 -3 -29 -8 -20 -7 10 -9 8 -9
-6 0 -12 5 -16 16 -12 9 3 45 6 80 6 l64 0 0 70 0 70 -61 0 -61 0 4 -65 c1
-36 0 -65 -4 -65 -5 0 -8 32 -8 70 l0 70 70 0 70 0 0 -75z"/>
<path fill="#ffffff" stroke="none" d="M220 212 c0 -4 -20 -6 -45 -4 l-45 4 0
-41 c0 -39 2 -41 29 -41 16 0 32 6 34 13 3 7 6 5 6 -5 1 -14 -7 -18 -39 -18
l-40 0 0 50 0 50 50 0 c28 0 50 -3 50 -8z"/>
<path fill="#ffffff" stroke="none" d="M199 178 c-1 -17 -2 -19 -6 -5 -6 24
-43 22 -43 -3 0 -11 5 -20 11 -20 6 0 9 7 5 15 -3 8 -1 15 4 15 6 0 10 -9 10
-20 0 -13 -7 -20 -20 -20 -16 0 -20 7 -20 30 0 27 3 30 30 30 25 0 30 -4 29
-22z"/>
<path fill="#ffffff" stroke="none" d="M262 175 c-2 -14 -6 -25 -8 -25 -2 0
-4 11 -4 25 0 14 4 25 9 25 4 0 6 -11 3 -25z"/>
<path fill="#ffffff" stroke="none" d="M220 145 l0 -45 -42 2 -43 1 38 4 c36
4 37 5 37 44 0 21 2 39 5 39 3 0 5 -20 5 -45z"/>
<path fill="#ffffff" stroke="none" d="M307 121 c-1 -22 -6 -36 -11 -31 -7 7
0 70 9 70 2 0 2 -18 2 -39z"/>
<path fill="#ffffff" stroke="none" d="M277 58 c-3 -7 -5 -2 -5 12 0 14 2 19
5 13 2 -7 2 -19 0 -25z"/>
<path fill="#ffffff" stroke="none" d="M310 40 c0 -29 -1 -30 -52 -30 -58 0
-58 13 0 14 31 1 38 5 40 24 5 32 12 27 12 -8z"/>
<path fill="#ffffff" stroke="none" d="M166 35 c-3 -9 0 -15 10 -15 10 0 14 6
10 15 -4 11 1 15 17 14 12 0 16 -3 10 -6 -7 -2 -13 -11 -13 -19 0 -10 -13 -13
-50 -13 -53 2 -82 19 -31 19 16 0 33 5 36 10 10 15 18 12 11 -5z"/>
<path fill="#000000" stroke="none" d="M123 73 c9 -2 25 -2 35 0 9 3 1 5 -18
5 -19 0 -27 -2 -17 -5z"/>
<path fill="#000000" stroke="none" d="M113 283 c9 -2 23 -2 30 0 6 3 -1 5
-18 5 -16 0 -22 -2 -12 -5z"/>
<path fill="#000000" stroke="none" d="M188 283 c7 -3 16 -2 19 1 4 3 -2 6
-13 5 -11 0 -14 -3 -6 -6z"/>
<path fill="#000000" stroke="none" d="M118 263 c6 -2 18 -2 25 0 6 3 1 5 -13
5 -14 0 -19 -2 -12 -5z"/>
<path fill="#000000" stroke="none" d="M190 266 c0 -2 18 -6 39 -8 22 -2 37 0
35 4 -5 8 -74 11 -74 4z"/>
<path fill="#000000" stroke="none" d="M51 234 c0 -11 3 -14 6 -6 3 7 2 16 -1
19 -3 4 -6 -2 -5 -13z"/>
<path fill="#000000" stroke="none" d="M0 51 c0 -6 4 -13 10 -16 6 -3 7 1 4 9
-7 18 -14 21 -14 7z"/>
</g>
</svg>
