<?xml version="1.0" standalone="no"?>
<!DOCTYPE svg PUBLIC "-//W3C//DTD SVG 20010904//EN"
 "http://www.w3.org/TR/2001/REC-SVG-20010904/DTD/svg10.dtd">
<svg version="1.0" xmlns="http://www.w3.org/2000/svg"
 width="32.000000pt" height="32.000000pt" viewBox="0 0 32.000000 32.000000"
 preserveAspectRatio="xMidYMid meet">
<metadata>
Created by potrace 1.16, written by Peter Selinger 2001-2019
</metadata>
<g transform="translate(0.000000,32.000000) scale(0.100000,-0.100000)"
fill="#000000" stroke="none">
<path fill="#000000" stroke="none" d="M4 158 l0 -158 158 0 158 0 0 159 0
158 -157 -1 -158 -1 -1 -157z"/>
<path fill="#ffffff" stroke="none" d="M180 186 c0 -8 6 -17 13 -19 7 -3 5 -6
-5 -6 -10 -1 -18 6 -18 14 0 8 -7 15 -15 15 -11 0 -15 -11 -15 -36 0 -38 -23
-45 -27 -8 -3 18 -2 18 6 -1 8 -17 10 -16 10 11 1 17 4 34 8 37 12 13 43 7 43
-7z"/>
<path fill="#ffffff" stroke="none" d="M178 147 c12 -3 10 -5 -5 -6 -18 -1
-23 4 -22 22 1 15 3 17 6 5 2 -9 12 -19 21 -21z"/>
<path fill="#ffffff" stroke="none" d="M180 119 c0 -5 -4 -8 -9 -5 -5 4 -12 0
-14 -6 -3 -8 -6 -6 -6 5 -1 9 6 17 14 17 8 0 15 -5 15 -11z"/>
</g>
</svg>
