<?xml version="1.0" standalone="no"?>
<!DOCTYPE svg PUBLIC "-//W3C//DTD SVG 20010904//EN"
 "http://www.w3.org/TR/2001/REC-SVG-20010904/DTD/svg10.dtd">
<svg version="1.0" xmlns="http://www.w3.org/2000/svg"
 width="32.000000pt" height="32.000000pt" viewBox="0 0 32.000000 32.000000"
 preserveAspectRatio="xMidYMid meet">
<metadata>
Created by potrace 1.16, written by Peter Selinger 2001-2019
</metadata>
<g transform="translate(0.000000,32.000000) scale(0.100000,-0.100000)"
fill="#000000" stroke="none">
<path fill="#000000" stroke="none" d="M0 163 l0 -158 152 3 c84 2 154 5 155
5 0 1 3 71 5 155 l3 152 -157 0 -158 0 0 -157z"/>
<path fill="#ffffff" stroke="none" d="M142 175 c-2 -19 -6 -35 -8 -35 -2 0
-4 16 -4 35 0 19 4 35 8 35 4 0 6 -16 4 -35z"/>
<path fill="#ffffff" stroke="none" d="M117 178 c-3 -8 -6 -5 -6 6 -1 11 2 17
5 13 3 -3 4 -12 1 -19z"/>
<path fill="#ffffff" stroke="none" d="M190 180 c0 -5 -7 -7 -15 -4 -11 5 -13
2 -9 -10 3 -9 1 -16 -5 -16 -12 0 -15 23 -4 33 10 10 33 8 33 -3z"/>
<path fill="#ffffff" stroke="none" d="M207 153 c-3 -10 -5 -4 -5 12 0 17 2
24 5 18 2 -7 2 -21 0 -30z"/>
<path fill="#ffffff" stroke="none" d="M190 140 c0 -5 -8 -10 -17 -10 -15 0
-16 2 -3 10 19 12 20 12 20 0z"/>
</g>
</svg>
