<?xml version="1.0" standalone="no"?>
<!DOCTYPE svg PUBLIC "-//W3C//DTD SVG 20010904//EN"
 "http://www.w3.org/TR/2001/REC-SVG-20010904/DTD/svg10.dtd">
<svg version="1.0" xmlns="http://www.w3.org/2000/svg"
 width="32.000000pt" height="32.000000pt" viewBox="0 0 32.000000 32.000000"
 preserveAspectRatio="xMidYMid meet">
<metadata>
Created by potrace 1.16, written by Peter Selinger 2001-2019
</metadata>
<g transform="translate(0.000000,32.000000) scale(0.100000,-0.100000)"
fill="#000000" stroke="none">
<path fill="#000000" stroke="none" d="M63 313 c9 -2 23 -2 30 0 6 3 -1 5 -18
5 -16 0 -22 -2 -12 -5z"/>
<path fill="#000000" stroke="none" d="M133 313 c15 -2 37 -2 50 0 12 2 0 4
-28 4 -27 0 -38 -2 -22 -4z"/>
<path fill="#000000" stroke="none" d="M2 250 c0 -14 2 -19 5 -12 2 6 2 18 0
25 -3 6 -5 1 -5 -13z"/>
<path fill="#000000" stroke="none" d="M193 250 c2 -8 12 -16 23 -17 13 -2 15
-1 4 4 -8 3 -19 11 -23 17 -6 7 -7 6 -4 -4z"/>
<path fill="#000000" stroke="none" d="M142 235 c-11 -12 -10 -15 3 -15 8 0
15 7 15 15 0 18 -2 18 -18 0z"/>
<path fill="#000000" stroke="none" d="M177 221 c2 -10 -6 -12 -32 -9 -19 2
-35 0 -35 -4 0 -11 72 -10 90 2 13 8 13 10 -2 10 -9 0 -18 3 -21 8 -2 4 -2 1
0 -7z"/>
<path fill="#000000" stroke="none" d="M2 200 c0 -14 2 -19 5 -12 2 6 2 18 0
25 -3 6 -5 1 -5 -13z"/>
<path fill="#000000" stroke="none" d="M200 187 c0 -10 8 -17 18 -17 9 0 13 4
7 8 -5 4 -13 11 -17 16 -5 5 -8 2 -8 -7z"/>
<path fill="#000000" stroke="none" d="M87 182 c6 -4 13 -21 16 -37 4 -27 4
-27 6 8 1 29 -3 37 -16 37 -12 0 -14 -3 -6 -8z"/>
<path fill="#000000" stroke="none" d="M120 151 c0 -29 -5 -41 -17 -44 -10 -3
-4 -5 14 -6 29 -1 32 2 36 32 4 31 4 31 5 -5 2 -30 6 -38 21 -38 11 0 22 -6
24 -12 4 -10 6 -10 6 0 1 8 -8 16 -19 19 -15 4 -20 14 -20 39 0 45 -27 47 -33
2 -4 -32 -4 -32 -5 5 -2 33 0 37 23 37 22 0 25 -4 25 -35 0 -24 5 -35 15 -35
9 0 15 9 15 23 0 18 2 19 10 7 8 -13 10 -12 10 3 0 25 -28 21 -33 -5 -3 -14
-5 -9 -6 15 -1 35 -2 37 -36 37 -34 0 -35 -1 -35 -39z"/>
<path fill="#000000" stroke="none" d="M3 120 c0 -25 2 -35 4 -22 2 12 2 32 0
45 -2 12 -4 2 -4 -23z"/>
<path fill="#000000" stroke="none" d="M98 83 c7 -3 16 -2 19 1 4 3 -2 6 -13
5 -11 0 -14 -3 -6 -6z"/>
</g>
</svg>
