<?xml version="1.0" standalone="no"?>
<!DOCTYPE svg PUBLIC "-//W3C//DTD SVG 20010904//EN"
 "http://www.w3.org/TR/2001/REC-SVG-20010904/DTD/svg10.dtd">
<svg version="1.0" xmlns="http://www.w3.org/2000/svg"
 width="32.000000pt" height="32.000000pt" viewBox="0 0 32.000000 32.000000"
 preserveAspectRatio="xMidYMid meet">
<metadata>
Created by potrace 1.16, written by Peter Selinger 2001-2019
</metadata>
<g transform="translate(0.000000,32.000000) scale(0.100000,-0.100000)"
fill="#000000" stroke="none">
<path fill="#000000" stroke="none" d="M167 180 c3 -11 12 -20 19 -20 11 0 10
5 -3 20 -10 11 -18 20 -19 20 -1 0 0 -9 3 -20z"/>
<path fill="#000000" stroke="none" d="M132 155 c0 -16 2 -22 5 -12 2 9 2 23
0 30 -3 6 -5 -1 -5 -18z"/>
<path fill="#000000" stroke="none" d="M151 163 c-1 -19 4 -23 27 -22 22 1 23
2 5 6 -12 2 -24 12 -26 21 -3 12 -5 10 -6 -5z"/>
</g>
</svg>
