<?xml version="1.0" standalone="no"?>
<!DOCTYPE svg PUBLIC "-//W3C//DTD SVG 20010904//EN"
 "http://www.w3.org/TR/2001/REC-SVG-20010904/DTD/svg10.dtd">
<svg version="1.0" xmlns="http://www.w3.org/2000/svg"
 width="32.000000pt" height="32.000000pt" viewBox="0 0 32.000000 32.000000"
 preserveAspectRatio="xMidYMid meet">
<metadata>
Created by potrace 1.16, written by Peter Selinger 2001-2019
</metadata>
<g transform="translate(0.000000,32.000000) scale(0.100000,-0.100000)"
fill="#000000" stroke="none">
<path fill="#000000" stroke="none" d="M44 309 c52 -13 59 -21 16 -19 -19 1
-41 2 -47 1 -16 -1 -17 -31 -2 -31 5 0 8 4 4 9 -3 5 -1 12 5 16 16 10 12 -28
-7 -55 -16 -22 -16 -23 0 -17 12 5 17 1 17 -13 0 -11 -6 -19 -12 -18 -10 2
-14 -22 -16 -90 l-3 -92 160 0 161 0 -1 163 c-1 94 -5 145 -9 122 -5 -30 -8
-36 -14 -23 -4 9 -5 21 -2 27 4 6 -7 8 -29 4 -20 -3 -35 -1 -35 4 0 6 14 10
31 11 17 0 34 4 38 8 3 3 -20 4 -52 2 -33 -3 -62 -11 -67 -18 -5 -8 -15 -10
-26 -5 -23 9 -44 13 -104 19 l-45 5 39 -10z"/>
<path fill="#ffffff" stroke="none" d="M54 265 c-4 -8 -8 -15 -10 -15 -2 0 -4
7 -4 15 0 8 4 15 10 15 5 0 7 -7 4 -15z"/>
<path fill="#ffffff" stroke="none" d="M268 273 c-10 -2 -28 -2 -40 0 -13 2
-5 4 17 4 22 1 32 -1 23 -4z"/>
<path fill="#ffffff" stroke="none" d="M117 234 c-3 -3 -12 -4 -19 -1 -8 3 -5
6 6 6 11 1 17 -2 13 -5z"/>
<path fill="#ffffff" stroke="none" d="M217 234 c-3 -3 -12 -4 -19 -1 -8 3 -5
6 6 6 11 1 17 -2 13 -5z"/>
<path fill="#ffffff" stroke="none" d="M277 218 c-3 -8 -6 -5 -6 6 -1 11 2 17
5 13 3 -3 4 -12 1 -19z"/>
<path fill="#ffffff" stroke="none" d="M297 208 c-3 -8 -6 -5 -6 6 -1 11 2 17
5 13 3 -3 4 -12 1 -19z"/>
<path fill="#ffffff" stroke="none" d="M188 213 c-16 -2 -40 -2 -55 0 -16 2
-3 4 27 4 30 0 43 -2 28 -4z"/>
<path fill="#ffffff" stroke="none" d="M178 193 c-10 -2 -26 -2 -35 0 -10 3
-2 5 17 5 19 0 27 -2 18 -5z"/>
<path fill="#ffffff" stroke="none" d="M164 173 c-5 -5 -12 -12 -16 -18 -4 -6
-8 -2 -8 8 0 9 7 17 17 17 9 0 12 -3 7 -7z"/>
<path fill="#ffffff" stroke="none" d="M180 150 c0 -5 -5 -10 -11 -10 -5 0 -7
5 -4 10 3 6 8 10 11 10 2 0 4 -4 4 -10z"/>
<path fill="#ffffff" stroke="none" d="M47 118 c-3 -8 -6 -5 -6 6 -1 11 2 17
5 13 3 -3 4 -12 1 -19z"/>
<path fill="#ffffff" stroke="none" d="M197 124 c-3 -3 -12 -4 -19 -1 -8 3 -5
6 6 6 11 1 17 -2 13 -5z"/>
<path fill="#ffffff" stroke="none" d="M17 18 c-3 -7 -5 -2 -5 12 0 14 2 19 5
13 2 -7 2 -19 0 -25z"/>
<path fill="#ffffff" stroke="none" d="M75 32 c-3 -3 -11 0 -18 7 -9 10 -8 11
6 5 10 -3 15 -9 12 -12z"/>
<path fill="#ffffff" stroke="none" d="M60 17 c10 -4 8 -6 -7 -6 -16 -1 -23 5
-23 17 0 10 3 13 8 6 4 -6 14 -14 22 -17z"/>
<path fill="#ffffff" stroke="none" d="M310 20 c0 -5 -8 -10 -17 -10 -15 0
-16 2 -3 10 19 12 20 12 20 0z"/>
</g>
</svg>
