<?xml version="1.0" standalone="no"?>
<!DOCTYPE svg PUBLIC "-//W3C//DTD SVG 20010904//EN"
 "http://www.w3.org/TR/2001/REC-SVG-20010904/DTD/svg10.dtd">
<svg version="1.0" xmlns="http://www.w3.org/2000/svg"
 width="32.000000pt" height="32.000000pt" viewBox="0 0 32.000000 32.000000"
 preserveAspectRatio="xMidYMid meet">
<metadata>
Created by potrace 1.16, written by Peter Selinger 2001-2019
</metadata>
<g transform="translate(0.000000,32.000000) scale(0.100000,-0.100000)"
fill="#000000" stroke="none">
<path fill="#000000" stroke="none" d="M1 162 l3 -158 35 5 c30 3 33 5 16 12
-19 7 -19 8 2 8 12 1 25 -3 28 -9 12 -19 22 -10 23 21 0 23 -4 33 -19 36 -17
5 -19 14 -18 87 1 51 5 74 10 61 4 -11 8 -14 8 -7 1 8 22 12 70 12 64 0 70 -2
74 -22 4 -20 4 -19 6 5 1 20 -4 27 -17 27 -10 0 -22 4 -28 9 -5 5 -27 11 -49
14 -22 2 -3 4 43 5 l82 2 0 -60 c0 -33 4 -60 10 -60 6 0 10 -19 10 -42 0 -28
3 -38 9 -29 5 7 5 28 1 47 -4 19 -4 34 0 34 5 0 7 18 5 39 -1 22 1 58 5 80 l7
41 -159 0 -159 0 2 -158z"/>
<path fill="#ffffff" stroke="none" d="M93 303 c-7 -2 -19 -2 -25 0 -7 3 -2 5
12 5 14 0 19 -2 13 -5z"/>
<path fill="#ffffff" stroke="none" d="M98 283 c-53 -4 -57 -6 -61 -31 -4 -25
-4 -24 -6 6 l-1 32 63 -2 62 -2 -57 -3z"/>
<path fill="#ffffff" stroke="none" d="M286 227 l1 -57 -4 54 -4 55 -40 4 -39
4 42 -1 43 -1 1 -58z"/>
<path fill="#ffffff" stroke="none" d="M80 263 c-8 -3 -18 -11 -22 -17 -5 -7
-8 -4 -8 7 0 11 7 17 23 16 15 0 17 -2 7 -6z"/>
<path fill="#ffffff" stroke="none" d="M158 243 c-10 -2 -26 -2 -35 0 -10 3
-2 5 17 5 19 0 27 -2 18 -5z"/>
<path fill="#ffffff" stroke="none" d="M57 208 c-3 -8 -6 -5 -6 6 -1 11 2 17
5 13 3 -3 4 -12 1 -19z"/>
<path fill="#ffffff" stroke="none" d="M47 160 c-8 -12 -13 -31 -10 -43 4 -18
3 -19 -6 -7 -9 13 -11 13 -11 -1 0 -8 5 -20 12 -27 9 -9 9 -12 0 -12 -13 0
-21 30 -19 73 1 24 8 32 30 28 4 0 7 4 7 11 0 6 3 9 6 5 3 -3 -1 -15 -9 -27z"/>
<path fill="#ffffff" stroke="none" d="M80 58 c0 14 20 17 20 3 0 -9 -30 -24
-36 -19 -1 2 -5 17 -8 33 l-6 30 14 -30 c9 -16 15 -24 16 -17z"/>
<path fill="#000000" stroke="none" d="M222 253 c22 -3 28 -10 31 -36 4 -31 4
-31 5 6 2 36 1 37 -30 36 -30 -2 -30 -2 -6 -6z"/>
<path fill="#000000" stroke="none" d="M102 178 l1 -43 4 38 4 37 49 0 c45 0
49 -2 53 -27 4 -26 4 -26 6 5 l1 32 -60 0 -60 0 2 -42z"/>
<path fill="#000000" stroke="none" d="M81 184 c0 -11 3 -14 6 -6 3 7 2 16 -1
19 -3 4 -6 -2 -5 -13z"/>
<path fill="#000000" stroke="none" d="M122 153 l1 -48 4 43 c4 39 6 42 33 42
15 0 31 -6 33 -12 3 -8 6 -6 6 5 1 13 -7 17 -39 17 l-40 0 2 -47z"/>
<path fill="#000000" stroke="none" d="M140 150 c0 -27 3 -30 30 -30 25 0 30
4 29 23 -1 16 -2 18 -6 5 -6 -25 -43 -23 -43 2 0 11 5 20 11 20 6 0 9 -7 5
-15 -3 -8 -1 -15 4 -15 6 0 10 9 10 20 0 13 -7 20 -20 20 -16 0 -20 -7 -20
-30z"/>
<path fill="#000000" stroke="none" d="M250 145 c0 -14 4 -25 9 -25 4 0 6 11
3 25 -2 14 -6 25 -8 25 -2 0 -4 -11 -4 -25z"/>
<path fill="#000000" stroke="none" d="M82 130 c0 -14 2 -19 5 -12 2 6 2 18 0
25 -3 6 -5 1 -5 -13z"/>
<path fill="#000000" stroke="none" d="M231 124 c0 -11 3 -14 6 -6 3 7 2 16
-1 19 -3 4 -6 -2 -5 -13z"/>
<path fill="#000000" stroke="none" d="M251 103 c3 -21 -3 -32 -18 -36 -13 -4
-12 -5 5 -6 12 0 25 -8 28 -16 4 -8 14 -16 23 -16 9 -1 3 -5 -14 -9 l-30 -8
33 -1 c26 -1 32 3 32 20 0 14 -5 19 -15 16 -14 -6 -28 7 -31 31 -1 6 2 12 7
12 6 0 7 5 4 10 -7 12 -26 14 -24 3z"/>
<path fill="#000000" stroke="none" d="M148 83 c7 -3 16 -2 19 1 4 3 -2 6 -13
5 -11 0 -14 -3 -6 -6z"/>
<path fill="#000000" stroke="none" d="M146 44 c3 -18 0 -24 -13 -25 -10 0
-13 -3 -6 -5 6 -3 23 2 38 12 21 13 31 15 50 6 15 -7 26 -8 30 -2 4 6 3 10 -2
10 -4 0 -29 7 -55 14 l-46 15 4 -25z"/>
</g>
</svg>
