<?xml version="1.0" standalone="no"?>
<!DOCTYPE svg PUBLIC "-//W3C//DTD SVG 20010904//EN"
 "http://www.w3.org/TR/2001/REC-SVG-20010904/DTD/svg10.dtd">
<svg version="1.0" xmlns="http://www.w3.org/2000/svg"
 width="32.000000pt" height="32.000000pt" viewBox="0 0 32.000000 32.000000"
 preserveAspectRatio="xMidYMid meet">
<metadata>
Created by potrace 1.16, written by Peter Selinger 2001-2019
</metadata>
<g transform="translate(0.000000,32.000000) scale(0.100000,-0.100000)"
fill="#000000" stroke="none">
<path fill="#000000" stroke="none" d="M0 160 l0 -160 160 0 160 0 0 160 0
160 -160 0 -160 0 0 -160z"/>
<path fill="#ffffff" stroke="none" d="M199 294 c-6 -8 -15 -12 -19 -9 -5 3
-11 -5 -13 -17 -3 -19 -5 -17 -6 7 -1 22 -4 26 -13 17 -14 -14 -62 -16 -53 -2
9 14 4 13 -41 -10 -21 -10 -34 -19 -27 -20 6 0 11 -9 10 -19 -1 -12 -6 -17
-15 -14 -10 4 -11 8 -2 13 8 5 9 10 2 14 -11 7 -11 24 1 43 5 7 39 11 98 11
75 0 88 -2 78 -14z"/>
<path fill="#ffffff" stroke="none" d="M310 160 l0 -150 -150 0 -151 0 2 107
c1 60 4 102 6 95 3 -6 9 -10 13 -7 5 3 11 1 15 -5 3 -5 2 -10 -2 -10 -8 0 -9
-22 -5 -72 2 -15 12 -18 56 -18 54 0 55 0 59 33 4 31 4 31 5 -5 2 -31 6 -38
22 -38 14 0 20 -6 19 -22 -1 -17 -2 -19 -6 -5 -5 18 -33 24 -33 6 0 -5 5 -7
10 -4 6 3 10 1 10 -4 0 -6 -7 -11 -15 -11 -8 0 -15 9 -15 20 0 16 -7 20 -35
20 -40 0 -52 -29 -12 -31 21 -1 21 -1 -3 -9 l-25 -8 28 -1 c33 -1 37 26 5 32
-20 4 -19 4 5 6 21 1 27 -4 27 -19 0 -16 7 -20 35 -20 32 0 35 2 35 30 0 23
-4 30 -20 30 -16 0 -20 7 -20 35 0 46 -27 48 -33 3 -4 -32 -4 -32 -5 5 -2 33
0 37 23 37 22 0 25 -4 25 -35 0 -40 26 -50 33 -12 2 12 5 -4 6 -35 1 -57 1
-58 31 -58 25 0 30 4 30 25 0 18 -5 25 -20 25 -11 0 -20 -7 -20 -15 0 -8 5
-15 11 -15 5 0 7 5 4 10 -3 6 -1 10 4 10 6 0 11 -7 11 -15 0 -8 -9 -15 -20
-15 -18 0 -20 7 -20 55 0 41 -4 55 -14 55 -8 0 -17 -10 -19 -22 -3 -14 -5 -9
-6 15 -1 35 -2 37 -36 37 -34 0 -35 -1 -35 -40 0 -39 -1 -40 -34 -40 -21 0
-36 6 -40 15 -3 8 -1 15 3 15 5 0 12 -6 14 -12 4 -8 6 -7 6 4 1 9 -5 19 -11
21 -8 3 -6 6 5 6 11 1 17 -6 17 -19 0 -11 7 -20 15 -20 11 0 15 11 15 39 l0
38 53 6 c28 2 54 1 55 -4 2 -5 15 -9 28 -9 13 0 24 -5 24 -10 0 -13 -52 -1
-62 14 -5 7 -8 4 -8 -6 0 -11 8 -18 20 -18 16 0 20 -7 20 -35 0 -28 4 -35 20
-35 15 0 20 7 20 25 0 14 -4 25 -9 25 -6 0 -8 -9 -6 -20 2 -11 0 -20 -6 -20
-5 0 -9 11 -9 25 0 16 6 25 15 25 8 0 15 9 15 20 0 15 -7 20 -25 20 -14 0 -25
5 -25 11 0 7 -15 10 -42 7 -24 -3 -35 -3 -25 -1 10 3 18 15 18 31 2 24 2 24 6
5 3 -16 11 -23 29 -23 13 0 24 -4 24 -10 0 -5 9 -10 20 -10 16 0 20 7 20 35 0
33 -2 35 -35 35 -24 0 -35 -5 -35 -15 0 -10 9 -15 28 -14 l27 1 -25 8 -25 8
27 1 c24 1 27 -3 26 -24 -2 -23 -18 -37 -18 -15 0 6 -11 10 -25 10 -19 0 -25
5 -25 20 0 33 22 49 68 50 l42 0 0 -150z"/>
<path fill="#ffffff" stroke="none" d="M70 239 c0 -16 -4 -28 -9 -25 -8 5 -3
56 5 56 2 0 4 -14 4 -31z"/>
<path fill="#ffffff" stroke="none" d="M149 253 c0 -11 -3 -13 -6 -5 -6 15
-33 16 -33 0 0 -6 -3 -9 -6 -5 -10 10 6 27 27 27 12 0 19 -7 18 -17z"/>
<path fill="#ffffff" stroke="none" d="M87 228 c-3 -8 -6 -5 -6 6 -1 11 2 17
5 13 3 -3 4 -12 1 -19z"/>
<path fill="#ffffff" stroke="none" d="M127 218 c-3 -7 -5 -2 -5 12 0 14 2 19
5 13 2 -7 2 -19 0 -25z"/>
<path fill="#ffffff" stroke="none" d="M100 155 c0 -14 -2 -25 -4 -25 -2 0 -6
11 -8 25 -3 14 -1 25 3 25 5 0 9 -11 9 -25z"/>
<path fill="#000000" stroke="none" d="M118 293 c7 -3 16 -2 19 1 4 3 -2 6
-13 5 -11 0 -14 -3 -6 -6z"/>
<path fill="#000000" stroke="none" d="M40 75 c0 -8 6 -15 13 -15 8 0 7 -4 -3
-10 -13 -8 -12 -10 3 -10 9 0 17 7 17 15 0 8 -6 15 -12 15 -9 0 -8 4 2 10 13
8 12 10 -2 10 -10 0 -18 -7 -18 -15z"/>
</g>
</svg>
