<?xml version="1.0" standalone="no"?>
<!DOCTYPE svg PUBLIC "-//W3C//DTD SVG 20010904//EN"
 "http://www.w3.org/TR/2001/REC-SVG-20010904/DTD/svg10.dtd">
<svg version="1.0" xmlns="http://www.w3.org/2000/svg"
 width="32.000000pt" height="32.000000pt" viewBox="0 0 32.000000 32.000000"
 preserveAspectRatio="xMidYMid meet">
<metadata>
Created by potrace 1.16, written by Peter Selinger 2001-2019
</metadata>
<g transform="translate(0.000000,32.000000) scale(0.100000,-0.100000)"
fill="#000000" stroke="none">
<path fill="#000000" stroke="none" d="M88 313 c34 -2 90 -2 125 0 34 2 6 3
-63 3 -69 0 -97 -1 -62 -3z"/>
<path fill="#000000" stroke="none" d="M4 175 c0 -66 1 -92 3 -57 2 34 2 88 0
120 -2 31 -3 3 -3 -63z"/>
<path fill="#000000" stroke="none" d="M127 273 c-4 -3 -7 -17 -7 -29 0 -17
-7 -24 -27 -27 -26 -4 -26 -4 5 -6 29 -1 32 2 32 29 0 23 4 30 20 30 15 0 19
-6 18 -25 -1 -14 -6 -25 -11 -25 -5 0 -7 9 -4 20 3 11 1 20 -4 20 -5 0 -9 -11
-9 -25 0 -18 5 -25 20 -25 16 0 20 7 20 35 0 30 -3 35 -23 35 -13 0 -27 -3
-30 -7z"/>
<path fill="#000000" stroke="none" d="M195 233 c0 -48 1 -48 35 -49 26 -1 28
-1 8 3 -25 4 -28 8 -28 44 0 24 4 38 10 34 6 -3 10 -1 10 4 0 6 -8 11 -18 11
-15 0 -18 -8 -17 -47z"/>
<path fill="#000000" stroke="none" d="M92 245 c-11 -12 -10 -15 3 -15 8 0 15
7 15 15 0 18 -2 18 -18 0z"/>
<path fill="#000000" stroke="none" d="M221 228 c-1 -24 3 -28 27 -27 22 1 23
2 5 6 -13 2 -24 13 -26 26 -4 18 -5 17 -6 -5z"/>
<path fill="#000000" stroke="none" d="M58 193 c6 -2 18 -2 25 0 6 3 1 5 -13
5 -14 0 -19 -2 -12 -5z"/>
<path fill="#000000" stroke="none" d="M108 190 c-2 -6 -18 -11 -36 -13 -28
-2 -30 -4 -16 -14 9 -7 14 -18 11 -26 -3 -8 -1 -20 4 -28 6 -10 9 -2 9 24 0
30 4 37 20 37 11 0 20 7 20 15 0 17 -7 20 -12 5z"/>
<path fill="#000000" stroke="none" d="M129 163 c-1 -21 -3 -30 -6 -20 -2 9
-11 17 -19 17 -10 0 -14 -12 -12 -47 l1 -48 7 45 c4 25 8 37 8 28 1 -10 9 -18
17 -18 10 0 15 11 15 35 0 24 5 35 15 35 8 0 15 -6 15 -14 0 -8 10 -17 23 -19
19 -4 19 -4 -5 -6 -18 -1 -28 5 -31 17 -4 13 -5 11 -6 -5 -1 -20 4 -23 34 -23
24 0 35 5 35 15 0 8 -9 15 -20 15 -11 0 -20 7 -20 15 0 9 -9 15 -25 15 -22 0
-25 -4 -26 -37z"/>
<path fill="#000000" stroke="none" d="M271 168 c-1 -10 -5 -18 -11 -18 -16 0
-11 -27 6 -34 13 -5 14 -4 6 7 -8 10 -8 17 -1 24 6 6 9 17 6 25 -4 9 -6 7 -6
-4z"/>
<path fill="#000000" stroke="none" d="M230 150 c0 -13 -7 -20 -20 -20 -11 0
-20 -7 -20 -15 0 -10 10 -15 33 -14 l32 1 -30 8 c-24 6 -26 8 -7 9 15 1 22 7
22 20 0 11 6 22 13 24 7 3 5 6 -5 6 -12 1 -18 -6 -18 -19z"/>
<path fill="#000000" stroke="none" d="M150 120 c0 -5 -9 -10 -20 -10 -17 0
-20 -6 -18 -37 1 -37 1 -37 5 -5 3 24 9 32 24 32 10 0 19 6 19 13 0 8 4 7 10
-3 8 -13 10 -12 10 3 0 9 -7 17 -15 17 -8 0 -15 -4 -15 -10z"/>
<path fill="#000000" stroke="none" d="M130 75 c0 -8 8 -15 18 -15 14 0 15 2
2 10 -13 8 -12 10 3 10 25 0 21 -28 -5 -33 -20 -4 -19 -4 5 -6 23 -1 27 3 27
24 0 20 -5 25 -25 25 -16 0 -25 -6 -25 -15z"/>
<path fill="#000000" stroke="none" d="M203 83 c9 -2 23 -2 30 0 6 3 -1 5 -18
5 -16 0 -22 -2 -12 -5z"/>
<path fill="#000000" stroke="none" d="M190 53 c0 -10 4 -14 8 -8 4 6 11 13
16 18 5 4 2 7 -7 7 -10 0 -17 -8 -17 -17z"/>
</g>
</svg>
