<?xml version="1.0" standalone="no"?>
<!DOCTYPE svg PUBLIC "-//W3C//DTD SVG 20010904//EN"
 "http://www.w3.org/TR/2001/REC-SVG-20010904/DTD/svg10.dtd">
<svg version="1.0" xmlns="http://www.w3.org/2000/svg"
 width="32.000000pt" height="32.000000pt" viewBox="0 0 32.000000 32.000000"
 preserveAspectRatio="xMidYMid meet">
<metadata>
Created by potrace 1.16, written by Peter Selinger 2001-2019
</metadata>
<g transform="translate(0.000000,32.000000) scale(0.100000,-0.100000)"
fill="#000000" stroke="none">
<path fill="#000000" stroke="none" d="M121 218 c-1 -19 24 -25 34 -8 4 6 12
7 18 4 9 -5 9 -3 0 6 -10 10 -15 11 -27 1 -11 -9 -15 -9 -19 1 -4 8 -6 7 -6
-4z"/>
<path fill="#000000" stroke="none" d="M70 201 c-15 -29 -12 -46 9 -65 14 -13
21 -14 26 -5 5 6 1 16 -8 21 -12 6 -15 17 -10 38 6 34 -1 39 -17 11z"/>
<path fill="#000000" stroke="none" d="M235 193 c3 -24 0 -35 -13 -42 -9 -6
-12 -11 -6 -11 23 0 34 25 24 56 l-10 29 5 -32z"/>
<path fill="#000000" stroke="none" d="M120 144 c0 -10 8 -10 38 -2 49 13 50
15 2 15 -26 0 -40 -4 -40 -13z"/>
</g>
</svg>
