<?xml version="1.0" standalone="no"?>
<!DOCTYPE svg PUBLIC "-//W3C//DTD SVG 20010904//EN"
 "http://www.w3.org/TR/2001/REC-SVG-20010904/DTD/svg10.dtd">
<svg version="1.0" xmlns="http://www.w3.org/2000/svg"
 width="32.000000pt" height="32.000000pt" viewBox="0 0 32.000000 32.000000"
 preserveAspectRatio="xMidYMid meet">
<metadata>
Created by potrace 1.16, written by Peter Selinger 2001-2019
</metadata>
<g transform="translate(0.000000,32.000000) scale(0.100000,-0.100000)"
fill="#000000" stroke="none">
<path fill="#000000" stroke="none" d="M309 258 c-1 -35 0 -76 1 -92 1 -21 -2
-26 -12 -20 -11 6 -11 5 0 -8 18 -23 14 -128 -5 -128 -8 0 -12 4 -9 8 3 5 -1
9 -9 9 -8 0 -12 -4 -9 -9 3 -4 1 -8 -5 -8 -5 0 -13 5 -16 10 -4 6 -13 7 -23 1
-22 -11 -132 -11 -153 0 -9 4 -20 4 -25 0 -5 -5 -18 -11 -29 -14 -11 -3 53 -5
143 -6 l162 -1 0 160 c0 88 -2 160 -5 160 -3 0 -5 -28 -6 -62z"/>
<path fill="#000000" stroke="none" d="M28 298 c9 -9 15 -9 24 0 9 9 7 12 -12
12 -19 0 -21 -3 -12 -12z"/>
<path fill="#000000" stroke="none" d="M83 275 c0 -14 2 -24 5 -21 2 3 14 0
26 -6 19 -10 19 -8 -4 18 -14 16 -26 30 -26 32 -1 2 -1 -9 -1 -23z"/>
<path fill="#000000" stroke="none" d="M226 291 c-4 -5 -2 -12 3 -15 5 -4 12
-2 15 3 4 5 2 12 -3 15 -5 4 -12 2 -15 -3z"/>
<path fill="#000000" stroke="none" d="M120 282 c0 -6 5 -12 12 -14 7 -3 9
-12 5 -22 -5 -13 -11 -15 -26 -7 -15 8 -25 5 -47 -16 -26 -24 -29 -34 -33
-105 -3 -71 -1 -78 15 -77 11 0 14 3 7 6 -21 8 -16 45 5 41 10 -2 17 -12 16
-26 0 -18 5 -22 32 -22 18 0 35 4 38 8 2 4 -7 8 -21 7 -32 0 -44 40 -15 49 14
5 17 14 14 43 -4 32 -3 36 10 25 8 -6 18 -9 21 -6 3 4 5 -3 4 -14 0 -12 -6
-18 -14 -15 -9 4 -11 0 -7 -11 3 -9 9 -14 13 -12 6 4 11 -14 14 -56 1 -13 10
-18 29 -18 21 0 26 4 21 16 -3 9 0 20 8 25 22 14 29 11 29 -12 0 -13 -4 -18
-12 -13 -7 4 -8 3 -4 -4 11 -18 46 -15 46 4 0 8 -4 12 -10 9 -5 -3 -10 -1 -10
4 0 6 5 11 10 11 21 0 10 39 -12 42 -23 3 -39 -14 -54 -54 -8 -22 -20 -23 -28
-3 -3 8 -1 15 3 15 5 0 12 7 15 16 3 8 2 13 -3 10 -5 -3 -11 3 -14 13 -4 17 0
19 39 16 29 -2 42 1 37 8 -4 6 0 8 10 4 14 -5 17 0 17 29 0 28 -3 35 -15 30
-9 -3 -18 1 -22 9 -4 13 -8 13 -21 3 -13 -11 -14 -10 -10 2 3 8 15 15 26 14
17 0 19 2 11 13 -13 15 -43 18 -34 3 3 -6 0 -13 -8 -16 -9 -3 -13 -13 -10 -25
3 -11 0 -19 -6 -19 -7 0 -9 5 -6 10 3 6 1 10 -5 10 -7 0 -10 -6 -7 -12 2 -7
13 -12 23 -10 48 8 59 6 62 -10 2 -13 -3 -18 -17 -18 -12 0 -21 6 -21 13 0 8
-4 7 -10 -3 -5 -8 -10 -11 -10 -6 0 5 -7 3 -16 -4 -8 -8 -14 -9 -12 -4 4 14
-21 54 -35 54 -8 0 -7 -4 3 -11 12 -9 12 -10 1 -7 -24 7 -24 25 0 31 13 4 18
10 13 18 -5 9 -2 10 9 6 10 -3 17 -2 17 3 0 6 -4 10 -10 10 -5 0 -10 5 -10 10
0 19 19 10 26 -12 6 -19 7 -20 16 -4 13 23 8 27 -41 33 -25 4 -41 2 -41 -5z"/>
<path fill="#ffffff" stroke="none" d="M113 174 c-9 -23 -28 -10 -29 20 -1 25
0 25 17 10 10 -9 15 -22 12 -30z"/>
<path fill="#ffffff" stroke="none" d="M70 170 c0 -11 -7 -20 -15 -20 -15 0
-21 21 -8 33 12 13 23 7 23 -13z"/>
<path fill="#ffffff" stroke="none" d="M103 133 c-4 -10 -9 -11 -18 -3 -11 9
-12 7 -8 -9 4 -16 1 -21 -16 -21 -26 0 -29 37 -3 42 34 7 50 4 45 -9z"/>
<path fill="#000000" stroke="none" d="M30 226 c7 -7 13 -7 20 0 6 6 3 10 -10
10 -13 0 -16 -4 -10 -10z"/>
<path fill="#000000" stroke="none" d="M122 101 c-10 -6 -10 -10 2 -20 10 -9
16 -9 21 -1 10 16 -7 31 -23 21z"/>
</g>
</svg>
