<?xml version="1.0" standalone="no"?>
<!DOCTYPE svg PUBLIC "-//W3C//DTD SVG 20010904//EN"
 "http://www.w3.org/TR/2001/REC-SVG-20010904/DTD/svg10.dtd">
<svg version="1.0" xmlns="http://www.w3.org/2000/svg"
 width="32.000000pt" height="32.000000pt" viewBox="0 0 32.000000 32.000000"
 preserveAspectRatio="xMidYMid meet">
<metadata>
Created by potrace 1.16, written by Peter Selinger 2001-2019
</metadata>
<g transform="translate(0.000000,32.000000) scale(0.100000,-0.100000)"
fill="#000000" stroke="none">
<path fill="#000000" stroke="none" d="M0 167 c0 -130 2 -154 15 -154 8 0 15
5 15 10 0 5 12 7 28 3 27 -5 27 -5 -3 8 -16 8 -33 12 -36 10 -3 -2 -6 30 -5
70 0 41 3 73 6 71 3 -1 11 3 17 11 9 9 10 15 2 20 -6 3 -15 0 -20 -7 -7 -11
-9 -11 -9 2 0 9 7 22 15 29 8 7 15 9 15 6 0 -4 9 -2 20 4 11 6 19 14 19 18 -1
4 -1 16 0 27 2 19 2 19 14 -2 12 -22 13 -22 24 -4 11 18 63 27 63 11 0 -14 33
-21 41 -9 4 7 18 14 30 16 57 9 21 13 -109 13 l-142 0 0 -153z"/>
<path fill="#ffffff" stroke="none" d="M70 296 c0 -10 -7 -13 -21 -11 -16 3
-19 0 -15 -13 5 -14 3 -13 -9 2 -22 29 -19 36 15 36 19 0 30 -5 30 -14z"/>
<path fill="#000000" stroke="none" d="M271 297 c-28 -14 -39 -37 -19 -37 19
0 42 -44 33 -62 -3 -7 1 -4 9 6 16 20 23 106 9 106 -5 0 -19 -6 -32 -13z"/>
<path fill="#000000" stroke="none" d="M75 219 c2 -11 0 -19 -4 -19 -4 0 -8
-12 -9 -27 -3 -58 -7 -74 -22 -83 -10 -6 -3 -8 25 -6 23 3 43 0 47 -7 5 -9 10
-9 20 1 14 14 32 16 23 2 -3 -5 0 -10 8 -10 8 0 17 7 21 15 7 19 26 19 26 0 0
-8 5 -15 11 -15 6 0 8 8 4 19 -5 16 -2 18 16 14 15 -4 20 -3 15 5 -5 8 1 12
16 12 20 0 18 3 -12 18 -23 11 -29 18 -18 20 9 2 18 12 21 23 4 14 -1 21 -18
25 -13 3 -29 3 -35 -1 -6 -3 -10 -3 -9 2 3 20 -2 29 -21 30 -11 1 -20 -2 -20
-7 0 -5 -7 -7 -15 -4 -9 4 -15 0 -15 -7 0 -9 -3 -10 -8 -3 -4 6 -17 13 -29 16
-17 5 -21 2 -18 -13z"/>
<path fill="#ffffff" stroke="none" d="M130 94 c0 -14 -3 -14 -15 -4 -8 7 -15
14 -15 16 0 2 7 4 15 4 8 0 15 -7 15 -16z"/>
<path fill="#000000" stroke="none" d="M283 154 c0 -7 6 -10 14 -7 7 3 13 8
13 12 0 4 -6 8 -13 8 -8 0 -14 -6 -14 -13z"/>
<path fill="#000000" stroke="none" d="M281 100 c3 -41 -2 -60 -16 -60 -8 0
-15 -4 -15 -9 0 -5 9 -7 20 -4 11 3 20 13 20 22 0 14 2 14 10 1 7 -11 10 -7
10 18 0 18 -4 31 -9 28 -5 -4 -12 0 -15 6 -4 9 -5 8 -5 -2z"/>
<path fill="#000000" stroke="none" d="M151 53 c-1 -7 -9 -13 -20 -13 -10 0
-24 -7 -31 -15 -10 -12 -10 -15 4 -15 9 0 16 5 16 10 0 13 57 13 65 0 7 -12
25 -4 25 11 0 5 -11 9 -24 9 -13 0 -27 6 -29 13 -4 10 -6 10 -6 0z"/>
</g>
</svg>
