<?xml version="1.0" standalone="no"?>
<!DOCTYPE svg PUBLIC "-//W3C//DTD SVG 20010904//EN"
 "http://www.w3.org/TR/2001/REC-SVG-20010904/DTD/svg10.dtd">
<svg version="1.0" xmlns="http://www.w3.org/2000/svg"
 width="32.000000pt" height="32.000000pt" viewBox="0 0 32.000000 32.000000"
 preserveAspectRatio="xMidYMid meet">
<metadata>
Created by potrace 1.16, written by Peter Selinger 2001-2019
</metadata>
<g transform="translate(0.000000,32.000000) scale(0.100000,-0.100000)"
fill="#000000" stroke="none">
<path fill="#000000" stroke="none" d="M1 235 c1 -46 5 -82 10 -79 4 2 5 12 2
21 -4 10 -2 14 4 10 6 -4 14 0 17 9 9 22 -3 32 -15 14 -8 -12 -10 -12 -7 4 3
19 17 30 51 40 10 3 17 15 17 28 0 13 -3 18 -8 12 -4 -6 -15 -10 -25 -8 -14 2
-17 -2 -13 -14 5 -13 2 -12 -9 3 -9 11 -13 25 -11 32 3 7 1 13 -5 13 -6 0 -9
-33 -8 -85z"/>
<path fill="#000000" stroke="none" d="M38 313 c7 -3 16 -2 19 1 4 3 -2 6 -13
5 -11 0 -14 -3 -6 -6z"/>
<path fill="#000000" stroke="none" d="M100 311 c0 -15 18 -22 25 -10 4 5 13
8 19 6 7 -3 19 -1 27 4 9 6 0 9 -28 9 -24 0 -43 -4 -43 -9z"/>
<path fill="#000000" stroke="none" d="M290 300 c0 -5 5 -10 11 -10 5 0 7 5 4
10 -3 6 -8 10 -11 10 -2 0 -4 -4 -4 -10z"/>
<path fill="#000000" stroke="none" d="M273 280 c19 -87 23 -94 33 -57 4 19 0
34 -16 54 l-23 28 6 -25z"/>
<path fill="#000000" stroke="none" d="M235 281 c-6 -11 9 -23 19 -14 9 9 7
23 -3 23 -6 0 -12 -4 -16 -9z"/>
<path fill="#000000" stroke="none" d="M122 240 c5 -16 30 -21 49 -9 11 7 11
9 -3 9 -9 0 -24 3 -34 7 -11 4 -15 2 -12 -7z"/>
<path fill="#000000" stroke="none" d="M90 210 c-8 -26 -7 -41 2 -32 6 6 8 16
5 24 -3 7 -6 11 -7 8z"/>
<path fill="#000000" stroke="none" d="M107 183 c-12 -11 -8 -30 7 -30 8 0 11
8 8 19 -5 20 -6 21 -15 11z"/>
<path fill="#000000" stroke="none" d="M160 148 c0 -10 2 -18 5 -18 2 0 9 8
14 18 8 14 6 19 -5 19 -7 0 -14 -9 -14 -19z"/>
<path fill="#000000" stroke="none" d="M50 150 c0 -5 5 -10 11 -10 5 0 7 5 4
10 -3 6 -8 10 -11 10 -2 0 -4 -4 -4 -10z"/>
<path fill="#000000" stroke="none" d="M0 79 c0 -52 3 -66 15 -66 8 0 15 6 15
14 0 7 -5 13 -10 13 -7 0 -9 16 -6 39 2 21 0 44 -5 52 -5 9 -9 -10 -9 -52z"/>
<path fill="#000000" stroke="none" d="M208 126 c-16 -12 -16 -15 -2 -32 9
-10 12 -13 9 -6 -4 7 1 22 11 33 19 22 8 25 -18 5z"/>
<path fill="#000000" stroke="none" d="M86 88 c10 -14 21 -24 23 -22 3 3 -6
15 -18 27 l-24 22 19 -27z"/>
<path fill="#000000" stroke="none" d="M281 105 c-1 -6 5 -17 12 -24 10 -11
10 -13 0 -7 -9 5 -13 0 -13 -13 0 -12 -8 -21 -22 -24 -20 -4 -19 -4 5 -6 19
-1 27 4 27 17 0 14 2 15 10 2 7 -11 10 -7 10 18 0 18 -4 31 -9 28 -5 -4 -12 0
-14 6 -3 7 -6 8 -6 3z"/>
<path fill="#000000" stroke="none" d="M165 70 c-3 -5 -1 -10 4 -10 6 0 11 5
11 10 0 6 -2 10 -4 10 -3 0 -8 -4 -11 -10z"/>
<path fill="#000000" stroke="none" d="M83 33 c9 -2 15 -9 12 -14 -4 -5 1 -9
9 -9 9 0 16 5 16 10 0 13 57 13 65 0 7 -12 25 -4 25 11 0 5 -33 8 -72 8 -40
-1 -65 -3 -55 -6z"/>
</g>
</svg>
