<?xml version="1.0" standalone="no"?>
<!DOCTYPE svg PUBLIC "-//W3C//DTD SVG 20010904//EN"
 "http://www.w3.org/TR/2001/REC-SVG-20010904/DTD/svg10.dtd">
<svg version="1.0" xmlns="http://www.w3.org/2000/svg"
 width="32.000000pt" height="32.000000pt" viewBox="0 0 32.000000 32.000000"
 preserveAspectRatio="xMidYMid meet">
<metadata>
Created by potrace 1.16, written by Peter Selinger 2001-2019
</metadata>
<g transform="translate(0.000000,32.000000) scale(0.100000,-0.100000)"
fill="#000000" stroke="none">
<path fill="#000000" stroke="none" d="M14 309 c-3 -5 0 -18 6 -29 12 -23 22
-27 14 -5 -4 10 0 13 15 10 13 -2 21 1 21 9 0 15 -48 28 -56 15z"/>
<path fill="#000000" stroke="none" d="M225 308 c-12 -29 4 -42 27 -21 19 17
20 17 39 -6 21 -25 25 -56 9 -66 -6 -4 -15 7 -21 24 -9 26 -15 29 -40 26 -17
-2 -38 -10 -47 -17 -15 -11 -15 -10 0 8 17 19 17 21 0 35 -23 20 -52 20 -74 2
-14 -13 -18 -12 -27 4 -11 17 -12 17 -9 -2 2 -12 12 -21 26 -23 12 -2 22 -7
22 -11 0 -5 13 -22 30 -39 17 -18 30 -33 30 -35 0 -2 -16 -4 -35 -5 -33 -1
-41 6 -36 32 1 5 -4 13 -11 17 -10 7 -10 9 2 9 12 1 11 4 -4 15 -16 12 -22 12
-42 -2 -13 -8 -24 -12 -24 -8 0 4 -6 2 -14 -5 -11 -9 -14 -34 -13 -105 0 -52
4 -92 7 -91 3 2 14 0 25 -5 17 -6 17 -8 3 -8 -10 -1 -18 -6 -18 -12 0 -5 -4
-8 -9 -4 -5 3 -12 1 -16 -5 -4 -7 48 -10 154 -10 l161 0 0 160 c0 173 1 171
-54 151 -17 -7 -26 -7 -29 2 -3 8 -7 6 -12 -5z"/>
<path fill="#ffffff" stroke="none" d="M91 208 c6 -13 8 -20 4 -16 -4 4 -14 0
-21 -10 -11 -14 -14 -14 -14 -2 -1 10 -4 9 -10 -5 -8 -18 -9 -18 -9 5 -1 20
-3 22 -11 10 -8 -13 -10 -13 -10 1 0 24 11 30 27 13 17 -17 37 -9 29 12 -9 22
2 16 15 -8z"/>
<path fill="#ffffff" stroke="none" d="M283 185 c-3 -9 -8 -14 -10 -11 -3 3
-2 9 2 15 9 16 15 13 8 -4z"/>
<path fill="#ffffff" stroke="none" d="M243 177 c3 10 4 7 4 -9 -1 -15 -4 -25
-8 -22 -4 2 -9 -1 -11 -8 -5 -14 -38 -4 -38 12 0 5 7 10 16 10 11 0 14 6 10
18 -5 15 -5 15 8 -1 14 -18 14 -18 19 0z"/>
<path fill="#ffffff" stroke="none" d="M105 170 c-3 -5 -12 -10 -18 -10 -7 0
-6 4 3 10 19 12 23 12 15 0z"/>
<path fill="#ffffff" stroke="none" d="M162 138 c-7 -7 -12 -8 -12 -2 0 5 -5
2 -10 -6 -9 -13 -11 -13 -20 0 -15 24 -12 29 16 24 19 -3 24 -1 18 8 -5 10 -4
11 7 1 10 -10 10 -16 1 -25z"/>
<path fill="#ffffff" stroke="none" d="M290 137 c0 -11 -1 -18 -3 -16 -1 2 -8
11 -15 20 -9 13 -9 16 3 16 8 0 15 -9 15 -20z"/>
<path fill="#ffffff" stroke="none" d="M106 84 c1 -40 11 -54 24 -34 8 13 10
13 10 1 0 -8 3 -11 6 -8 4 4 1 14 -6 22 -11 13 -11 18 0 28 7 7 10 7 7 1 -4
-6 5 -21 18 -32 14 -12 25 -18 25 -14 0 4 8 8 18 9 10 1 19 -4 19 -11 0 -18
-34 -39 -42 -26 -7 12 -65 13 -65 2 0 -5 -7 -9 -15 -9 -8 0 -12 4 -9 8 2 4 -3
9 -13 11 -15 3 -15 4 2 21 17 18 17 18 -1 15 -13 -2 -20 4 -22 20 -2 15 2 22
12 22 9 0 16 5 16 12 0 28 15 -7 16 -38z"/>
<path fill="#ffffff" stroke="none" d="M230 105 c0 13 3 16 10 9 15 -15 1 -46
-19 -42 -9 2 -17 14 -19 28 -2 24 -2 24 13 6 15 -19 15 -19 15 -1z"/>
<path fill="#ffffff" stroke="none" d="M183 95 c7 -16 -8 -29 -23 -20 -10 6
-2 35 10 35 4 0 10 -7 13 -15z"/>
<path fill="#ffffff" stroke="none" d="M310 66 c0 -24 -3 -27 -10 -16 -8 13
-10 12 -10 -2 0 -11 -7 -18 -17 -18 -14 0 -15 2 -5 9 7 4 14 22 14 39 1 41 28
31 28 -12z"/>
<path fill="#ffffff" stroke="none" d="M263 65 c-3 -9 -8 -14 -10 -11 -3 3 -2
9 2 15 9 16 15 13 8 -4z"/>
<path fill="#000000" stroke="none" d="M127 215 c-4 -8 -3 -16 1 -19 4 -3 9 4
9 15 2 23 -3 25 -10 4z"/>
</g>
</svg>
