<?xml version="1.0" standalone="no"?>
<!DOCTYPE svg PUBLIC "-//W3C//DTD SVG 20010904//EN"
 "http://www.w3.org/TR/2001/REC-SVG-20010904/DTD/svg10.dtd">
<svg version="1.0" xmlns="http://www.w3.org/2000/svg"
 width="32.000000pt" height="32.000000pt" viewBox="0 0 32.000000 32.000000"
 preserveAspectRatio="xMidYMid meet">
<metadata>
Created by potrace 1.16, written by Peter Selinger 2001-2019
</metadata>
<g transform="translate(0.000000,32.000000) scale(0.100000,-0.100000)"
fill="#000000" stroke="none">
<path fill="#000000" stroke="none" d="M225 308 c-7 -19 -45 -25 -45 -9 0 14
-43 10 -62 -6 -14 -13 -17 -12 -26 3 -8 14 -10 13 -16 -9 -3 -14 -18 -32 -33
-39 -15 -7 -29 -22 -31 -33 -3 -17 -1 -17 7 -5 9 12 11 11 11 -8 0 -13 -4 -20
-10 -17 -13 8 -13 -1 1 -27 7 -12 7 -18 1 -14 -17 10 -20 -18 -3 -32 13 -11
13 -12 1 -6 -12 6 -13 4 -3 -7 15 -16 17 -33 3 -24 -5 3 -10 -3 -10 -13 0 -18
8 -20 97 -21 54 -1 99 -4 102 -7 3 -2 0 -9 -6 -15 -8 -8 -13 -8 -17 0 -9 14
-66 15 -66 1 0 -5 -7 -10 -16 -10 -8 0 -12 5 -9 10 4 6 -8 10 -29 10 -20 0
-36 -5 -36 -11 0 -5 -4 -8 -9 -4 -5 3 -12 1 -16 -5 -4 -7 48 -10 154 -10 l161
0 0 160 c0 173 1 171 -54 151 -17 -7 -26 -7 -29 2 -3 8 -7 6 -12 -5z"/>
<path fill="#ffffff" stroke="none" d="M300 294 c0 -9 -5 -12 -12 -8 -7 4 -5
-2 5 -13 19 -22 21 -41 8 -62 -7 -11 -12 -6 -19 20 -5 19 -14 33 -20 32 -5 -1
-9 5 -8 14 2 13 18 25 44 32 1 1 2 -6 2 -15z"/>
<path fill="#ffffff" stroke="none" d="M205 247 c6 2 11 -7 12 -19 0 -13 -1
-17 -4 -10 -3 6 -9 12 -14 12 -4 0 -5 -8 -2 -17 6 -16 5 -17 -12 -3 -17 14
-18 13 -13 -13 l5 -27 -21 22 c-15 17 -17 24 -8 26 8 2 11 11 8 19 -5 11 -2
13 10 9 12 -5 15 -2 10 11 -5 16 -5 16 6 2 7 -9 18 -14 23 -12z"/>
<path fill="#ffffff" stroke="none" d="M120 245 c0 -2 -9 -3 -19 -2 -11 0 -18
5 -15 9 4 6 34 0 34 -7z"/>
<path fill="#ffffff" stroke="none" d="M151 148 c8 -14 6 -16 -8 -11 -17 7
-17 6 0 -20 9 -14 17 -30 17 -34 0 -4 -5 0 -11 9 -5 10 -17 15 -27 12 -10 -4
-13 -2 -7 3 6 4 9 15 9 23 -1 8 -2 24 -3 35 -1 17 -3 17 -11 5 -13 -20 -35 2
-26 26 6 15 9 15 32 -7 14 -13 30 -32 35 -41z"/>
<path fill="#ffffff" stroke="none" d="M258 177 c2 -12 -3 -17 -17 -17 -15 0
-21 6 -21 21 0 25 33 22 38 -4z"/>
<path fill="#ffffff" stroke="none" d="M66 163 c-10 -10 -19 5 -10 18 6 11 8
11 12 0 2 -7 1 -15 -2 -18z"/>
<path fill="#ffffff" stroke="none" d="M301 100 c5 0 9 -15 9 -32 0 -25 -3
-29 -10 -18 -8 13 -10 12 -10 -2 0 -13 -8 -18 -27 -17 -24 2 -25 2 -5 6 23 4
23 7 24 88 1 36 2 36 5 8 2 -18 8 -33 14 -33z"/>
<path fill="#ffffff" stroke="none" d="M83 120 c-3 -12 -12 -20 -22 -18 -23 5
-26 35 -4 40 26 6 32 1 26 -22z"/>
<path fill="#ffffff" stroke="none" d="M228 117 c4 -20 -25 -34 -40 -19 -15
15 -1 44 19 40 10 -2 19 -11 21 -21z"/>
<path fill="#ffffff" stroke="none" d="M127 75 c3 -9 3 -18 1 -21 -9 -9 -35 7
-35 21 0 20 26 19 34 0z"/>
<path fill="#ffffff" stroke="none" d="M250 71 c0 -11 -6 -18 -15 -17 -23 3
-31 16 -15 26 22 14 30 12 30 -9z"/>
<path fill="#ffffff" stroke="none" d="M75 70 c3 -5 1 -10 -4 -10 -6 0 -11 5
-11 10 0 6 2 10 4 10 3 0 8 -4 11 -10z"/>
<path fill="#ffffff" stroke="none" d="M200 76 c0 -3 -4 -8 -10 -11 -5 -3 -10
-1 -10 4 0 6 5 11 10 11 6 0 10 -2 10 -4z"/>
<path fill="#ffffff" stroke="none" d="M170 60 c0 -5 -4 -10 -10 -10 -5 0 -10
5 -10 10 0 6 5 10 10 10 6 0 10 -4 10 -10z"/>
<path fill="#000000" stroke="none" d="M10 302 c0 -5 7 -17 15 -28 12 -15 14
-16 9 -2 -4 13 -1 16 15 13 14 -2 21 1 21 11 0 9 -11 14 -30 14 -17 0 -30 -4
-30 -8z"/>
</g>
</svg>
