<?xml version="1.0" standalone="no"?>
<!DOCTYPE svg PUBLIC "-//W3C//DTD SVG 20010904//EN"
 "http://www.w3.org/TR/2001/REC-SVG-20010904/DTD/svg10.dtd">
<svg version="1.0" xmlns="http://www.w3.org/2000/svg"
 width="32.000000pt" height="32.000000pt" viewBox="0 0 32.000000 32.000000"
 preserveAspectRatio="xMidYMid meet">
<metadata>
Created by potrace 1.16, written by Peter Selinger 2001-2019
</metadata>
<g transform="translate(0.000000,32.000000) scale(0.100000,-0.100000)"
fill="#000000" stroke="none">
<path fill="#000000" stroke="none" d="M20 310 c0 -15 21 -23 32 -12 6 6 2 11
-11 15 -12 3 -21 1 -21 -3z"/>
<path fill="#000000" stroke="none" d="M300 313 c13 -6 13 -110 0 -118 -5 -3
-10 -11 -10 -16 0 -6 5 -7 10 -4 6 3 10 -3 10 -15 0 -12 -4 -18 -10 -15 -5 3
-10 -1 -10 -10 0 -9 5 -13 11 -10 7 5 9 -13 8 -54 -2 -44 -6 -61 -16 -61 -8 0
-12 4 -9 8 8 13 -55 14 -70 1 -11 -9 -21 -9 -40 0 -20 9 -30 9 -40 0 -8 -6
-28 -9 -46 -5 -18 3 -46 2 -63 -3 -21 -7 19 -10 133 -10 l163 -1 -3 157 c-2
117 -6 157 -16 159 -7 1 -8 0 -2 -3z"/>
<path fill="#000000" stroke="none" d="M118 268 c-2 -15 -10 -24 -23 -24 -11
-1 -25 -2 -31 -3 -14 -1 -25 -39 -14 -46 5 -3 11 4 15 15 8 24 25 27 25 4 0
-12 6 -9 21 10 11 14 25 23 30 20 6 -3 2 -12 -8 -20 -20 -15 -11 -17 25 -8 17
5 20 10 12 19 -9 10 -7 13 7 10 10 -1 17 -7 16 -12 -1 -5 7 -14 17 -21 16 -10
18 -9 15 7 -2 10 3 30 10 45 8 14 10 26 4 26 -5 0 -9 -5 -9 -11 0 -6 -7 -9
-15 -5 -8 3 -15 1 -15 -4 0 -6 -13 -10 -30 -10 -20 0 -30 5 -30 15 0 24 -18
17 -22 -7z"/>
<path fill="#000000" stroke="none" d="M56 105 c-3 -9 0 -15 9 -15 16 0 20 16
6 24 -5 3 -11 -1 -15 -9z"/>
<path fill="#000000" stroke="none" d="M30 63 c0 -23 2 -23 124 -23 123 0 124
0 118 22 -4 17 -7 19 -11 6 -5 -12 -25 -16 -104 -17 -85 -2 -101 0 -113 16
-13 17 -13 17 -14 -4z"/>
</g>
</svg>
