<?xml version="1.0" standalone="no"?>
<!DOCTYPE svg PUBLIC "-//W3C//DTD SVG 20010904//EN"
 "http://www.w3.org/TR/2001/REC-SVG-20010904/DTD/svg10.dtd">
<svg version="1.0" xmlns="http://www.w3.org/2000/svg"
 width="32.000000pt" height="32.000000pt" viewBox="0 0 32.000000 32.000000"
 preserveAspectRatio="xMidYMid meet">
<metadata>
Created by potrace 1.16, written by Peter Selinger 2001-2019
</metadata>
<g transform="translate(0.000000,32.000000) scale(0.100000,-0.100000)"
fill="#000000" stroke="none">
<path fill="#000000" stroke="none" d="M14 309 c-3 -5 0 -18 6 -29 12 -23 22
-27 14 -5 -4 10 0 13 15 10 13 -2 21 1 21 9 0 15 -48 28 -56 15z"/>
<path fill="#000000" stroke="none" d="M262 309 c-13 -5 -27 -7 -32 -4 -4 3
-10 -1 -13 -8 -7 -18 -57 -20 -63 -2 -8 20 -33 19 -41 -1 -6 -15 -8 -15 -20 2
-12 17 -13 17 -13 -2 0 -11 4 -24 10 -30 6 -6 -1 -11 -22 -12 -17 -2 -38 -8
-45 -14 -17 -14 -17 -39 0 -32 9 3 13 -3 12 -17 -1 -13 -7 -25 -13 -27 -15 -5
-16 -39 -1 -48 6 -3 15 0 20 7 10 18 23 5 15 -16 -4 -12 -10 -13 -24 -6 -17 9
-19 6 -20 -25 -1 -18 3 -34 8 -34 6 0 10 -7 10 -16 0 -8 -4 -13 -9 -9 -5 3
-12 1 -16 -5 -4 -7 48 -10 154 -10 l161 0 0 160 c0 175 1 173 -58 149z"/>
<path fill="#ffffff" stroke="none" d="M291 278 c18 -23 24 -49 13 -61 -7 -7
-42 26 -37 35 2 4 -3 5 -11 2 -19 -7 -22 16 -4 34 16 16 17 16 39 -10z"/>
<path fill="#ffffff" stroke="none" d="M77 198 c-3 -8 -6 -5 -6 6 -1 11 2 17
5 13 3 -3 4 -12 1 -19z"/>
<path fill="#ffffff" stroke="none" d="M183 188 c-2 -5 -10 -8 -18 -8 -8 0
-16 3 -18 8 -3 4 5 7 18 7 13 0 21 -3 18 -7z"/>
<path fill="#ffffff" stroke="none" d="M274 163 c-17 -17 -44 -16 -44 2 0 20
31 35 45 22 9 -9 9 -14 -1 -24z"/>
<path fill="#ffffff" stroke="none" d="M116 174 c-3 -8 -2 -13 3 -10 13 9 18
-15 10 -49 -6 -28 -7 -28 -9 -5 -1 14 -4 19 -7 12 -8 -21 5 -42 22 -36 12 5
14 16 11 46 -5 36 -3 40 14 35 11 -3 23 -1 26 4 11 18 30 8 41 -21 7 -19 8
-32 1 -36 -5 -3 -2 -14 8 -25 16 -18 16 -19 -2 -19 -10 -1 -56 -2 -102 -3 -51
-1 -81 2 -78 8 2 6 10 9 19 9 17 -2 17 40 -1 58 -7 7 -5 16 7 28 20 23 45 26
37 4z"/>
<path fill="#ffffff" stroke="none" d="M310 66 c0 -21 -3 -27 -9 -17 -7 11 -9
11 -14 0 -3 -8 -6 3 -6 23 -1 29 2 36 14 32 9 -4 15 -19 15 -38z"/>
<path fill="#ffffff" stroke="none" d="M162 33 c-30 -2 -50 -8 -47 -14 4 -5
-1 -9 -10 -9 -9 0 -14 4 -10 9 3 5 -3 12 -12 14 -10 3 16 4 57 4 57 -1 63 -2
22 -4z"/>
<path fill="#000000" stroke="none" d="M160 106 c0 -9 7 -16 16 -16 17 0 14
22 -4 28 -7 2 -12 -3 -12 -12z"/>
<path fill="#000000" stroke="none" d="M160 300 c0 -5 5 -10 10 -10 6 0 10 5
10 10 0 6 -4 10 -10 10 -5 0 -10 -4 -10 -10z"/>
<path fill="#000000" stroke="none" d="M10 180 c0 -5 5 -10 11 -10 5 0 7 5 4
10 -3 6 -8 10 -11 10 -2 0 -4 -4 -4 -10z"/>
</g>
</svg>
