<?xml version="1.0" standalone="no"?>
<!DOCTYPE svg PUBLIC "-//W3C//DTD SVG 20010904//EN"
 "http://www.w3.org/TR/2001/REC-SVG-20010904/DTD/svg10.dtd">
<svg version="1.0" xmlns="http://www.w3.org/2000/svg"
 width="32.000000pt" height="32.000000pt" viewBox="0 0 32.000000 32.000000"
 preserveAspectRatio="xMidYMid meet">
<metadata>
Created by potrace 1.16, written by Peter Selinger 2001-2019
</metadata>
<g transform="translate(0.000000,32.000000) scale(0.100000,-0.100000)"
fill="#000000" stroke="none">
<path fill="#000000" stroke="none" d="M1 174 c-1 -98 2 -151 10 -160 17 -20
281 -20 298 0 8 9 11 62 10 160 l-1 146 -158 0 -158 0 -1 -146z"/>
<path fill="#ffffff" stroke="none" d="M135 200 c3 -5 1 -10 -4 -10 -6 0 -11
5 -11 10 0 6 2 10 4 10 3 0 8 -4 11 -10z"/>
<path fill="#ffffff" stroke="none" d="M170 189 c0 -5 -4 -9 -10 -9 -5 0 -10
7 -10 16 0 8 5 12 10 9 6 -3 10 -10 10 -16z"/>
<path fill="#ffffff" stroke="none" d="M140 145 c0 -19 -4 -35 -10 -35 -5 0
-10 16 -10 35 0 19 5 35 10 35 6 0 10 -16 10 -35z"/>
<path fill="#ffffff" stroke="none" d="M219 163 c0 -10 -4 -27 -9 -38 -7 -19
-8 -19 -15 -1 -5 11 -3 21 6 27 10 6 10 9 2 9 -7 0 -13 5 -13 10 0 6 7 10 15
10 8 0 15 -8 14 -17z"/>
<path fill="#ffffff" stroke="none" d="M173 148 c7 -27 -2 -45 -14 -27 -11 18
-11 49 0 49 5 0 11 -10 14 -22z"/>
<path fill="#ffffff" stroke="none" d="M110 150 c0 -5 -5 -10 -11 -10 -5 0 -7
5 -4 10 3 6 8 10 11 10 2 0 4 -4 4 -10z"/>
<path fill="#ffffff" stroke="none" d="M113 116 c3 -8 16 -17 29 -19 13 -3 7
-4 -12 -3 -24 2 -36 8 -38 19 -4 21 14 23 21 3z"/>
<path fill="#ffffff" stroke="none" d="M203 93 c-7 -2 -19 -2 -25 0 -7 3 -2 5
12 5 14 0 19 -2 13 -5z"/>
<path fill="#ffffff" stroke="none" d="M127 24 c-3 -3 -12 -4 -19 -1 -8 3 -5
6 6 6 11 1 17 -2 13 -5z"/>
<path fill="#ffffff" stroke="none" d="M183 23 c-7 -2 -21 -2 -30 0 -10 3 -4
5 12 5 17 0 24 -2 18 -5z"/>
</g>
</svg>
