<?xml version="1.0" standalone="no"?>
<!DOCTYPE svg PUBLIC "-//W3C//DTD SVG 20010904//EN"
 "http://www.w3.org/TR/2001/REC-SVG-20010904/DTD/svg10.dtd">
<svg version="1.0" xmlns="http://www.w3.org/2000/svg"
 width="32.000000pt" height="32.000000pt" viewBox="0 0 32.000000 32.000000"
 preserveAspectRatio="xMidYMid meet">
<metadata>
Created by potrace 1.16, written by Peter Selinger 2001-2019
</metadata>
<g transform="translate(0.000000,32.000000) scale(0.100000,-0.100000)"
fill="#000000" stroke="none">
<path fill="#000000" stroke="none" d="M15 310 c13 -6 15 -9 5 -9 -13 -1 -15
-23 -15 -138 0 -168 -5 -163 155 -163 160 0 155 -5 155 163 0 115 -2 137 -15
138 -10 0 -8 3 5 9 12 5 -44 9 -145 9 -101 0 -157 -4 -145 -9z"/>
<path fill="#ffffff" stroke="none" d="M120 306 c0 -2 -7 -7 -16 -10 -8 -3
-12 -2 -9 4 6 10 25 14 25 6z"/>
<path fill="#ffffff" stroke="none" d="M225 300 c3 -6 -1 -7 -9 -4 -18 7 -21
14 -7 14 6 0 13 -4 16 -10z"/>
<path fill="#ffffff" stroke="none" d="M165 239 c-3 -3 8 -4 23 -1 24 5 25 3
14 -11 -11 -13 -10 -16 10 -20 l23 -4 -24 -8 c-23 -8 -24 -9 -5 -16 16 -6 14
-8 -11 -9 -16 -1 -25 -4 -18 -6 17 -8 4 -34 -17 -34 -21 0 -35 27 -17 33 7 2
-4 14 -23 25 -30 19 -32 22 -13 22 16 0 21 4 17 15 -4 9 0 15 10 15 9 0 16 8
16 18 0 14 2 15 9 2 6 -8 8 -17 6 -21z"/>
<path fill="#ffffff" stroke="none" d="M237 144 c-3 -3 -12 -4 -19 -1 -8 3 -5
6 6 6 11 1 17 -2 13 -5z"/>
<path fill="#ffffff" stroke="none" d="M123 23 c-7 -2 -21 -2 -30 0 -10 3 -4
5 12 5 17 0 24 -2 18 -5z"/>
<path fill="#ffffff" stroke="none" d="M183 23 c-7 -2 -21 -2 -30 0 -10 3 -4
5 12 5 17 0 24 -2 18 -5z"/>
<path fill="#ffffff" stroke="none" d="M243 23 c-7 -2 -21 -2 -30 0 -10 3 -4
5 12 5 17 0 24 -2 18 -5z"/>
</g>
</svg>
