<?xml version="1.0" standalone="no"?>
<!DOCTYPE svg PUBLIC "-//W3C//DTD SVG 20010904//EN"
 "http://www.w3.org/TR/2001/REC-SVG-20010904/DTD/svg10.dtd">
<svg version="1.0" xmlns="http://www.w3.org/2000/svg"
 width="32.000000pt" height="32.000000pt" viewBox="0 0 32.000000 32.000000"
 preserveAspectRatio="xMidYMid meet">
<metadata>
Created by potrace 1.16, written by Peter Selinger 2001-2019
</metadata>
<g transform="translate(0.000000,32.000000) scale(0.100000,-0.100000)"
fill="#000000" stroke="none">
<path fill="#000000" stroke="none" d="M0 160 l0 -160 26 0 c17 0 23 4 18 13
-6 9 -4 9 8 -1 13 -10 17 -10 21 0 4 10 6 10 6 1 1 -18 171 -18 171 -1 0 9 3
9 12 0 7 -7 22 -12 35 -12 l23 0 0 160 c0 150 -1 160 -19 160 -13 0 -20 -9
-23 -30 -2 -16 0 -31 6 -33 5 -2 7 -11 3 -21 -7 -17 -9 -16 -26 5 -12 15 -24
20 -36 15 -17 -6 -17 -7 1 -29 10 -12 1 -6 -21 13 -22 19 -32 26 -22 14 25
-31 21 -36 -23 -29 -36 6 -40 5 -46 -19 -3 -14 -10 -26 -15 -26 -6 0 -5 8 1
19 14 26 13 27 -13 27 -13 0 -24 -6 -24 -13 0 -9 4 -10 14 -2 18 16 16 5 -6
-32 -10 -17 -20 -26 -22 -20 -2 6 -5 -13 -5 -42 -1 -47 0 -49 8 -19 5 17 13
32 19 32 6 0 8 4 5 9 -3 4 7 6 21 3 24 -5 25 -6 7 -12 -29 -11 -46 -36 -42
-62 3 -22 7 -23 101 -26 l97 -3 0 29 c0 27 -21 58 -31 47 -3 -2 -6 10 -7 28
-2 17 -8 35 -15 39 -8 5 -7 8 6 8 9 0 17 -4 17 -9 0 -5 6 -16 14 -24 8 -7 18
-34 24 -58 l9 -44 -1 56 c0 32 -4 53 -7 48 -3 -5 -11 2 -17 16 -8 16 -8 25 -1
25 6 0 7 5 4 10 -4 6 3 9 17 7 22 -4 23 -9 26 -95 l3 -92 -141 0 -140 0 0 89
c0 50 4 92 9 95 5 3 7 15 4 26 -3 11 -1 20 4 20 5 0 8 14 5 30 -3 21 -10 30
-23 30 -18 0 -19 -10 -19 -160z"/>
<path fill="#ffffff" stroke="none" d="M147 143 c-3 -10 -5 -4 -5 12 0 17 2
24 5 18 2 -7 2 -21 0 -30z"/>
<path fill="#ffffff" stroke="none" d="M190 144 c0 -8 -4 -12 -10 -9 -5 3 -10
10 -10 16 0 5 5 9 10 9 6 0 10 -7 10 -16z"/>
<path fill="#ffffff" stroke="none" d="M104 81 c4 -5 -3 -7 -14 -4 -23 6 -26
13 -6 13 8 0 17 -4 20 -9z"/>
<path fill="#ffffff" stroke="none" d="M231 65 c11 4 19 2 19 -4 0 -7 -33 -11
-90 -11 -57 0 -90 4 -90 11 0 6 8 8 18 5 9 -3 31 -2 47 3 17 4 41 4 54 -1 13
-5 32 -6 42 -3z"/>
<path fill="#000000" stroke="none" d="M64 292 c12 -13 19 -13 28 -4 14 14 52
16 43 2 -3 -5 -2 -10 4 -10 5 0 12 6 15 13 5 10 7 10 12 0 3 -7 10 -13 15 -13
6 0 7 5 4 10 -9 14 29 12 43 -2 9 -9 16 -9 28 4 15 14 7 16 -96 16 -103 0
-111 -2 -96 -16z"/>
<path fill="#000000" stroke="none" d="M120 260 c16 -10 8 -14 -25 -10 -11 1
-16 -2 -12 -6 14 -14 35 -12 51 5 14 15 13 17 -7 18 -17 2 -19 0 -7 -7z"/>
</g>
</svg>
