<?xml version="1.0" standalone="no"?>
<!DOCTYPE svg PUBLIC "-//W3C//DTD SVG 20010904//EN"
 "http://www.w3.org/TR/2001/REC-SVG-20010904/DTD/svg10.dtd">
<svg version="1.0" xmlns="http://www.w3.org/2000/svg"
 width="32.000000pt" height="32.000000pt" viewBox="0 0 32.000000 32.000000"
 preserveAspectRatio="xMidYMid meet">
<metadata>
Created by potrace 1.16, written by Peter Selinger 2001-2019
</metadata>
<g transform="translate(0.000000,32.000000) scale(0.100000,-0.100000)"
fill="#000000" stroke="none">
<path fill="#000000" stroke="none" d="M160 180 c0 -5 5 -10 10 -10 6 0 10 5
10 10 0 6 -4 10 -10 10 -5 0 -10 -4 -10 -10z"/>
<path fill="#000000" stroke="none" d="M200 176 c0 -18 17 -29 30 -21 8 5 7
11 -1 21 -15 18 -29 18 -29 0z"/>
<path fill="#000000" stroke="none" d="M95 170 c-3 -5 1 -10 9 -10 9 0 16 5
16 10 0 6 -4 10 -9 10 -6 0 -13 -4 -16 -10z"/>
<path fill="#000000" stroke="none" d="M135 170 c-3 -5 -1 -10 4 -10 6 0 11 5
11 10 0 6 -2 10 -4 10 -3 0 -8 -4 -11 -10z"/>
<path fill="#000000" stroke="none" d="M170 153 c0 -6 7 -16 15 -23 19 -16 20
-34 1 -27 -10 4 -13 1 -9 -9 7 -19 19 -18 27 2 3 9 -3 27 -14 41 -11 14 -20
21 -20 16z"/>
<path fill="#000000" stroke="none" d="M103 123 c13 -28 42 -27 42 2 0 15 -7
20 -27 21 -24 1 -25 -1 -15 -23z"/>
<path fill="#000000" stroke="none" d="M80 85 c0 -28 4 -44 10 -40 6 3 10 21
10 40 0 19 -4 37 -10 40 -6 4 -10 -12 -10 -40z"/>
<path fill="#000000" stroke="none" d="M134 63 c2 -10 6 -17 9 -15 4 1 12 2
18 2 8 0 8 5 -1 15 -17 20 -29 19 -26 -2z"/>
<path fill="#000000" stroke="none" d="M108 23 c7 -3 16 -2 19 1 4 3 -2 6 -13
5 -11 0 -14 -3 -6 -6z"/>
<path fill="#000000" stroke="none" d="M153 23 c9 -2 23 -2 30 0 6 3 -1 5 -18
5 -16 0 -22 -2 -12 -5z"/>
<path fill="#000000" stroke="none" d="M208 23 c7 -3 16 -2 19 1 4 3 -2 6 -13
5 -11 0 -14 -3 -6 -6z"/>
<path fill="#000000" stroke="none" d="M0 10 c0 -5 5 -10 11 -10 5 0 7 5 4 10
-3 6 -8 10 -11 10 -2 0 -4 -4 -4 -10z"/>
<path fill="#000000" stroke="none" d="M305 10 c-3 -5 -1 -10 4 -10 6 0 11 5
11 10 0 6 -2 10 -4 10 -3 0 -8 -4 -11 -10z"/>
</g>
</svg>
