<?xml version="1.0" standalone="no"?>
<!DOCTYPE svg PUBLIC "-//W3C//DTD SVG 20010904//EN"
 "http://www.w3.org/TR/2001/REC-SVG-20010904/DTD/svg10.dtd">
<svg version="1.0" xmlns="http://www.w3.org/2000/svg"
 width="32.000000pt" height="32.000000pt" viewBox="0 0 32.000000 32.000000"
 preserveAspectRatio="xMidYMid meet">
<metadata>
Created by potrace 1.16, written by Peter Selinger 2001-2019
</metadata>
<g transform="translate(0.000000,32.000000) scale(0.100000,-0.100000)"
fill="#000000" stroke="none">
<path fill="#000000" stroke="none" d="M15 310 c13 -6 15 -9 5 -9 -13 -1 -15
-23 -15 -138 0 -168 -6 -162 156 -161 160 1 154 -6 154 161 0 115 -2 137 -15
138 -10 0 -8 3 5 9 12 5 -44 9 -145 9 -101 0 -157 -4 -145 -9z"/>
<path fill="#ffffff" stroke="none" d="M120 306 c0 -2 -7 -7 -16 -10 -8 -3
-12 -2 -9 4 6 10 25 14 25 6z"/>
<path fill="#ffffff" stroke="none" d="M225 300 c3 -6 -1 -7 -9 -4 -18 7 -21
14 -7 14 6 0 13 -4 16 -10z"/>
<path fill="#ffffff" stroke="none" d="M180 218 c0 -4 -5 -8 -12 -8 -6 0 -8
-3 -4 -7 4 -5 15 1 23 12 12 15 14 16 10 3 -3 -9 -1 -19 6 -21 7 -3 -1 -4 -17
-3 -29 1 -48 33 -20 33 8 0 14 -4 14 -9z"/>
<path fill="#ffffff" stroke="none" d="M231 163 c0 -5 2 -16 4 -25 2 -11 -3
-18 -11 -18 -9 0 -13 4 -10 9 4 5 1 11 -6 13 -6 2 -8 10 -4 16 8 13 26 16 27
5z"/>
<path fill="#ffffff" stroke="none" d="M180 152 c0 -5 -11 -14 -25 -20 -21
-10 -25 -9 -25 4 0 10 6 14 15 10 8 -3 15 -1 15 4 0 6 5 10 10 10 6 0 10 -4
10 -8z"/>
<path fill="#ffffff" stroke="none" d="M115 125 c0 -11 8 -21 18 -23 9 -2 17
-8 17 -13 0 -6 4 -8 9 -5 5 4 4 -5 -2 -18 -7 -13 -15 -22 -19 -19 -5 2 -6 9
-3 14 4 5 0 9 -7 9 -9 0 -9 3 2 10 13 9 13 10 0 11 -8 1 -20 1 -27 0 -15 -2
-36 36 -28 50 11 17 40 5 40 -16z"/>
<path fill="#ffffff" stroke="none" d="M213 115 c18 -13 18 -14 -1 -24 -21
-11 -42 2 -42 26 0 17 20 16 43 -2z"/>
<path fill="#ffffff" stroke="none" d="M113 23 c-7 -2 -19 -2 -25 0 -7 3 -2 5
12 5 14 0 19 -2 13 -5z"/>
<path fill="#ffffff" stroke="none" d="M180 26 c0 -9 -30 -14 -35 -6 -4 6 3
10 14 10 12 0 21 -2 21 -4z"/>
<path fill="#ffffff" stroke="none" d="M247 24 c-3 -3 -12 -4 -19 -1 -8 3 -5
6 6 6 11 1 17 -2 13 -5z"/>
<path fill="#000000" stroke="none" d="M90 110 c0 -5 5 -10 11 -10 5 0 7 5 4
10 -3 6 -8 10 -11 10 -2 0 -4 -4 -4 -10z"/>
</g>
</svg>
