<?xml version="1.0" standalone="no"?>
<!DOCTYPE svg PUBLIC "-//W3C//DTD SVG 20010904//EN"
 "http://www.w3.org/TR/2001/REC-SVG-20010904/DTD/svg10.dtd">
<svg version="1.0" xmlns="http://www.w3.org/2000/svg"
 width="32.000000pt" height="32.000000pt" viewBox="0 0 32.000000 32.000000"
 preserveAspectRatio="xMidYMid meet">
<metadata>
Created by potrace 1.16, written by Peter Selinger 2001-2019
</metadata>
<g transform="translate(0.000000,32.000000) scale(0.100000,-0.100000)"
fill="#000000" stroke="none">
<path fill="#000000" stroke="none" d="M0 178 c1 -97 5 -148 13 -159 10 -13
35 -16 157 -15 l145 1 0 158 0 157 -157 0 -158 0 0 -142z"/>
<path fill="#ffffff" stroke="none" d="M156 174 c-3 -9 -19 -13 -43 -12 l-38
1 38 4 37 4 2 57 2 57 3 -49 c2 -27 2 -55 -1 -62z"/>
<path fill="#ffffff" stroke="none" d="M298 163 c-10 -2 -28 -2 -40 0 -13 2
-5 4 17 4 22 1 32 -1 23 -4z"/>
<path fill="#ffffff" stroke="none" d="M220 148 c0 -11 -28 -10 -35 1 -3 6 4
9 15 8 11 -1 20 -5 20 -9z"/>
<path fill="#ffffff" stroke="none" d="M157 38 c-2 -18 -4 -6 -4 27 0 33 2 48
4 33 2 -15 2 -42 0 -60z"/>
</g>
</svg>
