<?xml version="1.0" standalone="no"?>
<!DOCTYPE svg PUBLIC "-//W3C//DTD SVG 20010904//EN"
 "http://www.w3.org/TR/2001/REC-SVG-20010904/DTD/svg10.dtd">
<svg version="1.0" xmlns="http://www.w3.org/2000/svg"
 width="32.000000pt" height="32.000000pt" viewBox="0 0 32.000000 32.000000"
 preserveAspectRatio="xMidYMid meet">
<metadata>
Created by potrace 1.16, written by Peter Selinger 2001-2019
</metadata>
<g transform="translate(0.000000,32.000000) scale(0.100000,-0.100000)"
fill="#000000" stroke="none">
<path fill="#000000" stroke="none" d="M0 160 l0 -160 160 0 160 0 0 160 0
160 -160 0 -160 0 0 -160z"/>
<path fill="#ffffff" stroke="none" d="M292 293 c15 -14 18 -32 18 -131 0
-154 2 -152 -148 -152 -154 0 -152 -2 -152 148 0 154 -2 152 148 152 93 0 119
-3 134 -17z"/>
<path fill="#000000" stroke="none" d="M57 264 c-4 -4 -7 -17 -7 -28 0 -20 1
-19 16 3 13 18 18 20 26 10 8 -11 9 -11 5 1 -4 16 -29 25 -40 14z"/>
<path fill="#000000" stroke="none" d="M117 253 c6 -15 19 -17 28 -3 11 18 27
10 22 -11 -3 -13 -1 -19 6 -16 7 2 12 10 12 18 0 8 7 17 15 21 8 4 -8 7 -37 6
-38 -1 -50 -5 -46 -15z"/>
<path fill="#000000" stroke="none" d="M52 178 c-1 -28 1 -30 15 -15 14 14 14
17 1 31 -13 13 -15 11 -16 -16z"/>
<path fill="#000000" stroke="none" d="M222 150 c5 -16 48 -23 48 -8 0 6 -6 8
-14 5 -7 -3 -19 0 -26 6 -10 9 -11 9 -8 -3z"/>
<path fill="#000000" stroke="none" d="M65 140 c-3 -5 1 -10 9 -10 9 0 16 5
16 10 0 6 -4 10 -9 10 -6 0 -13 -4 -16 -10z"/>
<path fill="#000000" stroke="none" d="M50 85 c0 -8 7 -15 16 -15 14 0 14 3 4
15 -7 8 -14 15 -16 15 -2 0 -4 -7 -4 -15z"/>
<path fill="#000000" stroke="none" d="M153 74 c-12 -13 -18 -24 -14 -24 10 0
45 39 40 44 -2 3 -14 -6 -26 -20z"/>
<path fill="#000000" stroke="none" d="M95 60 c3 -5 8 -10 11 -10 2 0 4 5 4
10 0 6 -5 10 -11 10 -5 0 -7 -4 -4 -10z"/>
<path fill="#000000" stroke="none" d="M190 60 c-12 -8 -10 -9 7 -7 12 2 26 6
29 10 11 11 -19 8 -36 -3z"/>
</g>
</svg>
