<?xml version="1.0" standalone="no"?>
<!DOCTYPE svg PUBLIC "-//W3C//DTD SVG 20010904//EN"
 "http://www.w3.org/TR/2001/REC-SVG-20010904/DTD/svg10.dtd">
<svg version="1.0" xmlns="http://www.w3.org/2000/svg"
 width="32.000000pt" height="32.000000pt" viewBox="0 0 32.000000 32.000000"
 preserveAspectRatio="xMidYMid meet">
<metadata>
Created by potrace 1.16, written by Peter Selinger 2001-2019
</metadata>
<g transform="translate(0.000000,32.000000) scale(0.100000,-0.100000)"
fill="#000000" stroke="none">
<path fill="#000000" stroke="none" d="M310 211 c0 -40 0 -40 -42 -44 l-43 -4
48 -1 47 -2 0 45 c0 25 -2 45 -5 45 -3 0 -5 -18 -5 -39z"/>
<path fill="#000000" stroke="none" d="M150 206 c0 -34 -1 -35 -42 -39 l-43
-4 48 -1 47 -2 0 40 c0 22 -2 40 -5 40 -3 0 -5 -15 -5 -34z"/>
<path fill="#000000" stroke="none" d="M150 51 c0 -40 0 -40 -42 -44 l-43 -4
48 -1 47 -2 0 45 c0 25 -2 45 -5 45 -3 0 -5 -18 -5 -39z"/>
<path fill="#000000" stroke="none" d="M310 51 c0 -40 0 -40 -42 -44 l-43 -4
48 -1 47 -2 0 45 c0 25 -2 45 -5 45 -3 0 -5 -18 -5 -39z"/>
</g>
</svg>
