<?xml version="1.0" standalone="no"?>
<!DOCTYPE svg PUBLIC "-//W3C//DTD SVG 20010904//EN"
 "http://www.w3.org/TR/2001/REC-SVG-20010904/DTD/svg10.dtd">
<svg version="1.0" xmlns="http://www.w3.org/2000/svg"
 width="32.000000pt" height="32.000000pt" viewBox="0 0 32.000000 32.000000"
 preserveAspectRatio="xMidYMid meet">
<metadata>
Created by potrace 1.16, written by Peter Selinger 2001-2019
</metadata>
<g transform="translate(0.000000,32.000000) scale(0.100000,-0.100000)"
fill="#000000" stroke="none">
<path fill="#000000" stroke="none" d="M0 160 l0 -160 160 0 160 0 0 160 0
160 -160 0 -160 0 0 -160z"/>
<path fill="#ffffff" stroke="none" d="M58 303 c-33 -4 -37 -8 -41 -36 -4 -31
-4 -31 -5 6 l-2 37 43 -2 42 -1 -37 -4z"/>
<path fill="#ffffff" stroke="none" d="M280 303 c-19 -3 -38 -10 -42 -16 -5
-8 -8 -6 -8 6 0 14 8 17 43 15 40 -1 40 -1 7 -5z"/>
<path fill="#ffffff" stroke="none" d="M117 173 c-3 -10 -5 -2 -5 17 0 19 2
27 5 18 2 -10 2 -26 0 -35z"/>
<path fill="#ffffff" stroke="none" d="M220 180 c0 -5 -16 -10 -35 -10 -19 0
-35 5 -35 10 0 6 16 10 35 10 19 0 35 -4 35 -10z"/>
<path fill="#ffffff" stroke="none" d="M90 146 c0 -8 -48 -12 -66 -5 -13 5 -7
8 24 8 23 1 42 -1 42 -3z"/>
<path fill="#ffffff" stroke="none" d="M293 143 c-13 -2 -33 -2 -45 0 -13 2
-3 4 22 4 25 0 35 -2 23 -4z"/>
<path fill="#ffffff" stroke="none" d="M141 38 c5 -10 6 -18 1 -18 -5 0 -14
11 -20 25 -22 49 -11 44 19 -7z"/>
</g>
</svg>
