<?xml version="1.0" standalone="no"?>
<!DOCTYPE svg PUBLIC "-//W3C//DTD SVG 20010904//EN"
 "http://www.w3.org/TR/2001/REC-SVG-20010904/DTD/svg10.dtd">
<svg version="1.0" xmlns="http://www.w3.org/2000/svg"
 width="32.000000pt" height="32.000000pt" viewBox="0 0 32.000000 32.000000"
 preserveAspectRatio="xMidYMid meet">
<metadata>
Created by potrace 1.16, written by Peter Selinger 2001-2019
</metadata>
<g transform="translate(0.000000,32.000000) scale(0.100000,-0.100000)"
fill="#000000" stroke="none">
<path fill="#000000" stroke="none" d="M0 160 l0 -160 160 1 160 1 0 159 0
159 -160 0 -160 0 0 -160z"/>
<path fill="#ffffff" stroke="none" d="M58 303 l-38 -4 0 -64 c0 -35 5 -66 10
-68 6 -3 5 -4 -2 -3 -9 2 -14 26 -16 74 l-3 72 43 -2 43 -1 -37 -4z"/>
<path fill="#ffffff" stroke="none" d="M193 303 c-18 -2 -48 -2 -65 0 -18 2
-4 4 32 4 36 0 50 -2 33 -4z"/>
<path fill="#ffffff" stroke="none" d="M310 293 c0 -14 -2 -15 -9 -4 -6 9 -10
10 -16 2 -5 -9 -11 -9 -23 1 -13 11 -15 10 -10 -14 3 -15 1 -25 -3 -22 -5 3
-9 -10 -9 -28 0 -25 3 -29 10 -18 8 12 10 12 11 -5 l0 -20 8 20 c6 14 4 22 -8
27 -13 6 -12 7 4 5 13 -2 19 -9 17 -22 -3 -20 -2 -20 13 0 15 19 15 19 12 -5
-3 -20 -9 -25 -33 -24 -16 1 -32 -3 -36 -10 -4 -6 -8 22 -8 62 l0 72 40 0 c31
0 40 -4 40 -17z"/>
<path fill="#ffffff" stroke="none" d="M44 254 c3 -8 2 -12 -4 -9 -6 3 -10 10
-10 16 0 14 7 11 14 -7z"/>
<path fill="#ffffff" stroke="none" d="M131 213 c1 -32 3 -50 6 -41 2 9 11 18
19 20 12 3 12 7 1 28 -14 26 -12 50 3 50 4 0 11 -11 14 -24 3 -13 15 -26 26
-29 15 -4 20 -13 20 -36 l0 -31 -60 0 -60 0 0 60 c0 47 3 60 15 60 11 0 15
-14 16 -57z"/>
<path fill="#ffffff" stroke="none" d="M78 181 c11 -6 10 -10 -5 -16 -17 -7
-17 -8 2 -15 19 -8 19 -9 -2 -9 -12 -1 -24 -7 -26 -13 -4 -10 -8 -9 -16 2 -9
12 -11 8 -9 -17 1 -18 8 -33 15 -33 18 0 23 -14 11 -30 -8 -12 -9 -12 -4 3 4
12 0 17 -13 17 -14 0 -18 9 -19 40 -2 34 1 40 18 40 13 0 20 7 20 20 0 22 7
25 28 11z"/>
<path fill="#ffffff" stroke="none" d="M310 140 c0 -5 -14 -7 -31 -5 -24 3
-32 -1 -39 -18 -8 -21 -9 -20 -9 6 -1 25 2 27 39 27 22 0 40 -4 40 -10z"/>
<path fill="#ffffff" stroke="none" d="M88 75 c-1 -28 -6 -46 -16 -50 -11 -4
-13 0 -7 17 4 13 8 37 9 55 1 17 4 29 9 26 4 -2 6 -24 5 -48z"/>
<path fill="#ffffff" stroke="none" d="M121 73 l2 -58 9 58 c10 57 27 78 29
35 0 -13 4 -32 9 -43 7 -16 9 -13 15 23 9 52 20 54 29 5 13 -82 13 -83 -54
-83 l-60 0 0 60 c0 77 20 79 21 3z"/>
<path fill="#ffffff" stroke="none" d="M260 44 c0 -18 -17 -26 -26 -13 -5 8
-3 9 6 4 10 -6 12 -4 7 8 -19 46 -19 53 -3 33 9 -11 16 -25 16 -32z"/>
</g>
</svg>
