<?xml version="1.0" standalone="no"?>
<!DOCTYPE svg PUBLIC "-//W3C//DTD SVG 20010904//EN"
 "http://www.w3.org/TR/2001/REC-SVG-20010904/DTD/svg10.dtd">
<svg version="1.0" xmlns="http://www.w3.org/2000/svg"
 width="32.000000pt" height="32.000000pt" viewBox="0 0 32.000000 32.000000"
 preserveAspectRatio="xMidYMid meet">
<metadata>
Created by potrace 1.16, written by Peter Selinger 2001-2019
</metadata>
<g transform="translate(0.000000,32.000000) scale(0.100000,-0.100000)"
fill="#000000" stroke="none">
<path fill="#000000" stroke="none" d="M98 310 c-15 -4 -29 -6 -32 -3 -2 3 -3
-2 -2 -11 1 -8 6 -19 11 -23 4 -4 5 -3 1 4 -3 6 -2 14 3 17 5 4 7 -8 4 -26 -3
-20 -20 -48 -41 -70 l-36 -38 59 -1 c34 -1 51 -4 40 -7 -14 -5 -21 -17 -23
-42 -2 -24 -14 -46 -39 -72 l-37 -38 77 0 77 0 0 160 c0 176 3 170 -62 150z"/>
<path fill="#000000" stroke="none" d="M258 310 c-15 -4 -29 -6 -32 -3 -2 3
-3 -2 -2 -11 1 -8 6 -19 11 -23 4 -4 5 -3 1 4 -3 6 -2 14 3 17 5 4 7 -8 4 -26
-3 -20 -20 -48 -41 -70 l-36 -38 59 -1 c34 -1 51 -4 40 -7 -14 -5 -21 -17 -23
-42 -2 -24 -14 -46 -39 -72 l-37 -38 77 0 77 0 0 160 c0 176 3 170 -62 150z"/>
<path fill="#000000" stroke="none" d="M64 136 c1 -8 5 -18 8 -22 4 -3 5 1 4
10 -1 8 -5 18 -8 22 -4 3 -5 -1 -4 -10z"/>
<path fill="#000000" stroke="none" d="M224 136 c1 -8 5 -18 8 -22 4 -3 5 1 4
10 -1 8 -5 18 -8 22 -4 3 -5 -1 -4 -10z"/>
</g>
</svg>
