<?xml version="1.0" standalone="no"?>
<!DOCTYPE svg PUBLIC "-//W3C//DTD SVG 20010904//EN"
 "http://www.w3.org/TR/2001/REC-SVG-20010904/DTD/svg10.dtd">
<svg version="1.0" xmlns="http://www.w3.org/2000/svg"
 width="32.000000pt" height="32.000000pt" viewBox="0 0 32.000000 32.000000"
 preserveAspectRatio="xMidYMid meet">
<metadata>
Created by potrace 1.16, written by Peter Selinger 2001-2019
</metadata>
<g transform="translate(0.000000,32.000000) scale(0.100000,-0.100000)"
fill="#000000" stroke="none">
<path fill="#000000" stroke="none" d="M0 158 l0 -162 40 39 c22 21 40 47 40
56 0 9 7 20 16 23 13 5 14 9 4 20 -9 12 -5 15 22 19 18 2 -1 5 -42 5 l-74 2
37 38 c20 21 37 45 37 54 0 9 7 19 16 22 13 5 14 9 4 20 -9 12 -5 15 22 19 18
2 -2 5 -44 5 l-78 2 0 -162z"/>
<path fill="#000000" stroke="none" d="M160 158 l0 -162 40 39 c22 21 40 47
40 56 0 9 7 20 16 23 13 5 14 9 4 20 -9 12 -5 15 22 19 18 2 -1 5 -42 5 l-74
2 37 38 c20 21 37 45 37 54 0 9 7 19 16 22 13 5 14 9 4 20 -9 12 -5 15 22 19
18 2 -2 5 -44 5 l-78 2 0 -162z"/>
</g>
</svg>
