<?xml version="1.0" standalone="no"?>
<!DOCTYPE svg PUBLIC "-//W3C//DTD SVG 20010904//EN"
 "http://www.w3.org/TR/2001/REC-SVG-20010904/DTD/svg10.dtd">
<svg version="1.0" xmlns="http://www.w3.org/2000/svg"
 width="32.000000pt" height="32.000000pt" viewBox="0 0 32.000000 32.000000"
 preserveAspectRatio="xMidYMid meet">
<metadata>
Created by potrace 1.16, written by Peter Selinger 2001-2019
</metadata>
<g transform="translate(0.000000,32.000000) scale(0.100000,-0.100000)"
fill="#000000" stroke="none">
<path fill="#000000" stroke="none" d="M26 291 c-24 -27 -23 -241 2 -264 17
-15 96 -22 87 -7 -3 5 7 13 22 18 28 10 28 10 -9 11 -31 1 -36 -2 -32 -17 5
-14 3 -14 -12 3 -14 16 -16 17 -11 3 7 -19 -15 -21 -41 -4 -11 6 -10 11 2 25
11 12 16 44 18 111 3 90 4 95 26 98 17 3 20 6 10 16 -24 22 -46 25 -62 7z"/>
<path fill="#000000" stroke="none" d="M269 299 c17 -7 21 -13 13 -22 -14 -17
-10 -213 5 -210 12 3 12 -15 -1 -35 -6 -11 -12 -10 -26 3 -20 18 -87 18 -82 0
2 -5 -7 -13 -20 -17 -13 -3 7 -6 48 -7 99 -1 104 6 104 140 0 68 -4 109 -12
117 -7 7 -8 12 -4 12 5 0 3 7 -4 15 -7 8 -20 15 -29 14 -10 0 -8 -4 8 -10z"/>
<path fill="#ffffff" stroke="none" d="M235 30 c-3 -5 -14 -10 -23 -9 -14 0
-13 2 3 9 27 11 27 11 20 0z"/>
<path fill="#000000" stroke="none" d="M198 278 c-9 -5 -6 -8 9 -8 12 0 24 4
27 8 7 11 -19 11 -36 0z"/>
<path fill="#000000" stroke="none" d="M206 225 c-5 -13 -16 -16 -51 -13 -38
3 -43 1 -29 -9 9 -7 21 -10 27 -6 6 3 7 1 3 -6 -4 -6 -13 -8 -19 -5 -9 5 -9 4
-1 -5 9 -10 17 -9 38 4 14 10 32 15 41 12 21 -9 30 12 13 30 -14 13 -16 13
-22 -2z"/>
<path fill="#000000" stroke="none" d="M112 148 c1 -20 5 -35 9 -33 7 5 3 54
-6 63 -3 3 -5 -10 -3 -30z"/>
<path fill="#000000" stroke="none" d="M195 170 c-11 -18 -7 -61 7 -75 8 -7 9
-6 3 4 -6 10 -2 11 16 6 23 -7 23 -7 7 11 -9 11 -18 30 -20 44 -2 20 -5 22
-13 10z"/>
</g>
</svg>
