<?xml version="1.0" standalone="no"?>
<!DOCTYPE svg PUBLIC "-//W3C//DTD SVG 20010904//EN"
 "http://www.w3.org/TR/2001/REC-SVG-20010904/DTD/svg10.dtd">
<svg version="1.0" xmlns="http://www.w3.org/2000/svg"
 width="32.000000pt" height="32.000000pt" viewBox="0 0 32.000000 32.000000"
 preserveAspectRatio="xMidYMid meet">
<metadata>
Created by potrace 1.16, written by Peter Selinger 2001-2019
</metadata>
<g transform="translate(0.000000,32.000000) scale(0.100000,-0.100000)"
fill="#000000" stroke="none">
<path fill="#000000" stroke="none" d="M0 160 l0 -160 160 0 160 0 0 160 0
160 -160 0 -160 0 0 -160z"/>
<path fill="#ffffff" stroke="none" d="M85 301 c-3 -5 0 -13 7 -17 9 -6 5 -10
-12 -14 -24 -6 -25 -9 -28 -100 -2 -70 -7 -99 -20 -115 -9 -11 -10 -14 -2 -8
8 7 19 13 24 13 6 0 3 -5 -7 -11 -9 -6 -15 -15 -11 -20 4 -7 12 -5 22 4 23 18
102 23 102 6 0 -10 3 -10 12 -1 15 15 72 16 98 2 24 -13 35 3 15 20 -19 16
-22 199 -3 218 9 9 7 12 -11 12 -12 0 -19 -4 -16 -10 4 -6 -12 -10 -42 -9 -44
1 -46 1 -20 11 15 5 27 14 27 19 0 5 5 9 11 9 5 0 7 -5 4 -11 -4 -6 2 -5 13 2
18 11 24 10 41 -5 19 -17 21 -31 21 -134 0 -154 2 -152 -148 -152 -154 0 -152
-2 -152 148 0 93 3 119 17 134 16 18 69 26 58 9z"/>
<path fill="#ffffff" stroke="none" d="M210 306 c0 -11 -19 -15 -25 -6 -3 5 1
10 9 10 9 0 16 -2 16 -4z"/>
<path fill="#ffffff" stroke="none" d="M140 286 c0 -2 -7 -7 -16 -10 -8 -3
-12 -2 -9 4 6 10 25 14 25 6z"/>
<path fill="#ffffff" stroke="none" d="M227 243 c-4 -3 1 -11 10 -18 15 -11
14 -14 -5 -33 -25 -25 -29 -60 -7 -68 18 -7 20 -31 3 -36 -7 -3 -27 4 -44 14
-32 19 -32 19 -55 -4 -12 -13 -19 -18 -15 -11 3 6 -1 16 -10 21 -11 6 -13 11
-5 16 14 9 15 46 0 46 -5 0 -7 5 -4 10 4 6 2 16 -4 23 -5 7 -6 19 -2 26 6 10
10 10 16 2 3 -7 15 -9 26 -6 11 4 19 2 19 -4 0 -18 36 -12 55 9 10 11 20 20
23 20 3 0 2 -3 -1 -7z"/>
</g>
</svg>
