<?xml version="1.0" standalone="no"?>
<!DOCTYPE svg PUBLIC "-//W3C//DTD SVG 20010904//EN"
 "http://www.w3.org/TR/2001/REC-SVG-20010904/DTD/svg10.dtd">
<svg version="1.0" xmlns="http://www.w3.org/2000/svg"
 width="32.000000pt" height="32.000000pt" viewBox="0 0 32.000000 32.000000"
 preserveAspectRatio="xMidYMid meet">
<metadata>
Created by potrace 1.16, written by Peter Selinger 2001-2019
</metadata>
<g transform="translate(0.000000,32.000000) scale(0.100000,-0.100000)"
fill="#000000" stroke="none">
<path fill="#000000" stroke="none" d="M305 300 c-3 -5 -5 -40 -5 -77 1 -58
-2 -90 -10 -113 -1 -3 -1 -19 0 -37 2 -34 2 -33 -72 -47 -12 -3 -21 8 -32 35
-15 38 -15 39 10 64 14 15 29 23 33 20 3 -4 -7 -18 -22 -31 -22 -19 -25 -25
-13 -30 8 -3 24 0 36 6 20 11 21 10 11 -9 -9 -16 -9 -19 2 -15 8 3 14 15 14
27 1 55 4 67 17 67 8 0 17 4 20 9 7 10 -68 -5 -95 -20 -11 -5 -19 -13 -19 -17
0 -5 -9 -18 -19 -29 -19 -20 -19 -21 5 -42 14 -12 22 -26 19 -31 -3 -6 -42
-10 -85 -10 -43 0 -82 -5 -85 -10 -4 -7 48 -10 149 -10 l156 0 -1 155 c0 85
-2 155 -4 155 -2 0 -7 -4 -10 -10z"/>
<path fill="#000000" stroke="none" d="M40 164 c0 -74 4 -113 10 -109 6 3 10
50 10 106 l0 99 98 0 c53 0 104 5 112 10 10 7 -25 10 -107 10 l-123 0 0 -116z"/>
<path fill="#000000" stroke="none" d="M90 159 c0 -44 4 -68 10 -64 6 3 10 31
10 61 l0 54 54 0 c30 0 58 5 61 10 4 6 -20 10 -64 10 l-71 0 0 -71z"/>
</g>
</svg>
