<?xml version="1.0" standalone="no"?>
<!DOCTYPE svg PUBLIC "-//W3C//DTD SVG 20010904//EN"
 "http://www.w3.org/TR/2001/REC-SVG-20010904/DTD/svg10.dtd">
<svg version="1.0" xmlns="http://www.w3.org/2000/svg"
 width="32.000000pt" height="32.000000pt" viewBox="0 0 32.000000 32.000000"
 preserveAspectRatio="xMidYMid meet">
<metadata>
Created by potrace 1.16, written by Peter Selinger 2001-2019
</metadata>
<g transform="translate(0.000000,32.000000) scale(0.100000,-0.100000)"
fill="#000000" stroke="none">
<path fill="#000000" stroke="none" d="M296 278 c-17 -34 -22 -62 -6 -38 13
20 13 4 -1 -21 -7 -14 -7 -24 0 -32 6 -8 6 -18 1 -27 -6 -8 -10 -39 -10 -67
l0 -53 -46 0 c-25 0 -54 -5 -65 -10 -14 -8 -19 -7 -19 2 0 9 -3 9 -11 -2 -8
-11 -12 -12 -16 -2 -2 6 -9 12 -14 12 -6 0 -7 -4 -4 -10 3 -5 1 -10 -4 -10 -6
0 -11 5 -11 11 0 5 -4 7 -10 4 -5 -3 -20 -8 -32 -10 -12 -3 -26 -9 -32 -15 -7
-7 40 -10 147 -10 l157 0 0 155 c0 85 -2 155 -4 155 -3 0 -12 -14 -20 -32z"/>
<path fill="#000000" stroke="none" d="M40 158 c0 -95 3 -119 12 -110 8 8 12
46 13 103 0 64 4 92 14 98 12 8 101 6 154 -2 12 -2 30 4 40 15 16 17 13 18
-108 18 l-125 0 0 -122z"/>
<path fill="#000000" stroke="none" d="M90 159 c0 -59 2 -69 14 -60 7 6 12 28
12 49 -2 49 8 62 47 56 20 -4 39 0 52 10 19 14 15 15 -52 16 l-73 0 0 -71z"/>
<path fill="#000000" stroke="none" d="M199 195 c-1 -3 -2 -15 -3 -27 -1 -15
-7 -22 -16 -20 -8 2 -11 0 -7 -4 4 -4 -3 -14 -15 -21 -22 -12 -22 -12 12 -13
35 0 35 0 37 45 0 25 -1 45 -3 45 -2 0 -5 -2 -5 -5z"/>
<path fill="#000000" stroke="none" d="M250 185 c0 -8 -4 -15 -9 -15 -10 0 -9
-25 1 -35 13 -13 -5 -44 -31 -53 -30 -11 -70 -10 -88 1 -9 5 -11 3 -7 -6 3 -9
25 -14 75 -14 l69 -1 -1 69 c-1 38 -3 69 -5 69 -2 0 -4 -7 -4 -15z"/>
<path fill="#000000" stroke="none" d="M80 76 c0 -2 7 -7 16 -10 8 -3 12 -2 9
4 -6 10 -25 14 -25 6z"/>
</g>
</svg>
