<?xml version="1.0" standalone="no"?>
<!DOCTYPE svg PUBLIC "-//W3C//DTD SVG 20010904//EN"
 "http://www.w3.org/TR/2001/REC-SVG-20010904/DTD/svg10.dtd">
<svg version="1.0" xmlns="http://www.w3.org/2000/svg"
 width="32.000000pt" height="32.000000pt" viewBox="0 0 32.000000 32.000000"
 preserveAspectRatio="xMidYMid meet">
<metadata>
Created by potrace 1.16, written by Peter Selinger 2001-2019
</metadata>
<g transform="translate(0.000000,32.000000) scale(0.100000,-0.100000)"
fill="#000000" stroke="none">
<path fill="#000000" stroke="none" d="M0 160 l0 -160 160 0 160 0 0 160 0
160 -160 0 -160 0 0 -160z"/>
<path fill="#ffffff" stroke="none" d="M70 294 c0 4 6 1 14 -6 12 -11 11 -14
-8 -18 -19 -5 -21 -13 -24 -100 -2 -67 -7 -99 -18 -111 -12 -14 -13 -19 -2
-25 26 -17 48 -15 41 4 -5 14 -3 13 11 -3 15 -17 17 -17 12 -3 -4 15 1 18 32
17 32 0 34 -1 15 -9 -13 -5 -23 -13 -23 -18 0 -6 -18 -10 -39 -10 -62 -1 -69
14 -67 149 1 123 13 162 42 138 8 -6 14 -8 14 -5z"/>
<path fill="#ffffff" stroke="none" d="M287 298 c11 -18 12 -30 19 -146 8
-134 2 -142 -100 -141 -41 1 -61 4 -48 7 13 4 22 12 20 17 -5 17 62 18 82 0
14 -13 19 -13 29 -2 9 11 8 17 -4 27 -13 11 -16 33 -14 109 1 53 6 102 11 108
8 9 4 15 -13 22 -17 7 -19 10 -7 10 9 1 20 -5 25 -11z"/>
<path fill="#ffffff" stroke="none" d="M234 278 c-3 -4 -15 -8 -27 -8 -15 0
-18 3 -9 8 17 11 43 11 36 0z"/>
<path fill="#ffffff" stroke="none" d="M225 241 c-3 -6 2 -14 11 -19 16 -9 15
-11 -4 -23 -26 -16 -29 -60 -7 -79 12 -10 13 -16 4 -27 -10 -11 -14 -11 -29 2
-9 8 -23 15 -31 16 -10 0 -10 2 -1 6 6 2 12 9 12 14 0 5 -10 4 -22 -3 -29 -16
-73 -19 -58 -4 14 14 13 59 -2 50 -7 -5 -8 -3 -2 7 14 23 14 41 -1 35 -9 -3
-12 0 -8 10 4 11 9 12 19 3 8 -6 11 -16 7 -23 -3 -6 3 -2 15 8 12 11 22 14 22
8 0 -19 35 -14 55 8 19 21 30 27 20 11z"/>
<path fill="#000000" stroke="none" d="M280 81 c0 -5 5 -13 10 -16 6 -3 10 -2
10 4 0 5 -4 13 -10 16 -5 3 -10 2 -10 -4z"/>
<path fill="#000000" stroke="none" d="M170 165 c-8 -9 -8 -15 -2 -15 12 0 26
19 19 26 -2 2 -10 -2 -17 -11z"/>
</g>
</svg>
