<?xml version="1.0" standalone="no"?>
<!DOCTYPE svg PUBLIC "-//W3C//DTD SVG 20010904//EN"
 "http://www.w3.org/TR/2001/REC-SVG-20010904/DTD/svg10.dtd">
<svg version="1.0" xmlns="http://www.w3.org/2000/svg"
 width="32.000000pt" height="32.000000pt" viewBox="0 0 32.000000 32.000000"
 preserveAspectRatio="xMidYMid meet">
<metadata>
Created by potrace 1.16, written by Peter Selinger 2001-2019
</metadata>
<g transform="translate(0.000000,32.000000) scale(0.100000,-0.100000)"
fill="#000000" stroke="none">
<path fill="#000000" stroke="none" d="M27 292 c-14 -15 -17 -41 -17 -134 0
-150 -2 -148 152 -148 150 0 148 -2 148 152 0 150 2 148 -152 148 -99 0 -117
-3 -131 -18z"/>
<path fill="#ffffff" stroke="none" d="M78 263 c-10 -2 -18 -14 -19 -26 0 -12
-3 -16 -6 -9 -8 20 5 42 24 41 17 -1 17 -2 1 -6z"/>
<path fill="#ffffff" stroke="none" d="M193 263 c-13 -2 -33 -2 -45 0 -13 2
-3 4 22 4 25 0 35 -2 23 -4z"/>
<path fill="#ffffff" stroke="none" d="M57 158 c-3 -8 -6 -5 -6 6 -1 11 2 17
5 13 3 -3 4 -12 1 -19z"/>
<path fill="#ffffff" stroke="none" d="M57 78 c-3 -8 -6 -5 -6 6 -1 11 2 17 5
13 3 -3 4 -12 1 -19z"/>
</g>
</svg>
