<?xml version="1.0" standalone="no"?>
<!DOCTYPE svg PUBLIC "-//W3C//DTD SVG 20010904//EN"
 "http://www.w3.org/TR/2001/REC-SVG-20010904/DTD/svg10.dtd">
<svg version="1.0" xmlns="http://www.w3.org/2000/svg"
 width="32.000000pt" height="32.000000pt" viewBox="0 0 32.000000 32.000000"
 preserveAspectRatio="xMidYMid meet">
<metadata>
Created by potrace 1.16, written by Peter Selinger 2001-2019
</metadata>
<g transform="translate(0.000000,32.000000) scale(0.100000,-0.100000)"
fill="#000000" stroke="none">
<path fill="#000000" stroke="none" d="M27 292 c-12 -13 -16 -44 -16 -133 -1
-98 1 -118 16 -131 24 -22 84 -20 114 3 l24 19 -34 0 c-21 0 -39 -7 -47 -18
-13 -16 -14 -16 -7 3 7 19 6 19 -11 2 -14 -14 -21 -15 -32 -6 -13 10 -12 14 0
28 11 12 16 45 18 111 3 90 4 95 26 98 17 3 20 6 10 16 -23 22 -46 25 -61 8z"/>
<path fill="#000000" stroke="none" d="M269 299 c17 -7 21 -13 13 -22 -14 -17
-10 -213 5 -210 13 3 11 -23 -4 -38 -7 -7 -14 -5 -23 6 -15 19 -76 20 -87 1
-4 -7 -15 -16 -23 -19 -8 -3 17 -6 56 -6 99 -1 104 6 104 140 0 68 -4 109 -12
117 -7 7 -8 12 -4 12 5 0 3 7 -4 15 -7 8 -20 15 -29 14 -10 0 -8 -4 8 -10z"/>
<path fill="#000000" stroke="none" d="M198 278 c-9 -5 -6 -8 9 -8 12 0 24 4
27 8 7 11 -19 11 -36 0z"/>
<path fill="#000000" stroke="none" d="M205 230 c-19 -21 -55 -27 -55 -10 0 5
-7 7 -15 4 -8 -4 -21 -1 -29 5 -10 9 -15 8 -20 -4 -3 -9 -2 -14 3 -11 14 9 21
-20 8 -34 -9 -10 -9 -11 1 -6 15 9 17 -35 2 -50 -7 -7 4 -10 35 -10 28 -1 52
-7 63 -18 16 -14 21 -14 31 -3 9 11 8 17 -4 27 -21 18 -19 54 5 75 18 16 19
20 5 28 -8 4 -13 12 -10 18 10 16 -1 10 -20 -11z"/>
</g>
</svg>
