<?xml version="1.0" standalone="no"?>
<!DOCTYPE svg PUBLIC "-//W3C//DTD SVG 20010904//EN"
 "http://www.w3.org/TR/2001/REC-SVG-20010904/DTD/svg10.dtd">
<svg version="1.0" xmlns="http://www.w3.org/2000/svg"
 width="32.000000pt" height="32.000000pt" viewBox="0 0 32.000000 32.000000"
 preserveAspectRatio="xMidYMid meet">
<metadata>
Created by potrace 1.16, written by Peter Selinger 2001-2019
</metadata>
<g transform="translate(0.000000,32.000000) scale(0.100000,-0.100000)"
fill="#000000" stroke="none">
<path fill="#000000" stroke="none" d="M120 313 c-19 -3 -41 -10 -49 -16 -12
-10 -13 -9 -6 3 4 8 -5 3 -21 -12 -21 -20 -31 -39 -32 -65 -2 -21 -5 -45 -7
-53 -4 -13 8 -15 73 -14 42 1 61 0 42 -3 -19 -3 -41 -10 -49 -16 -12 -10 -13
-9 -6 3 4 8 -5 3 -21 -12 -23 -21 -31 -38 -33 -70 -1 -23 -4 -45 -7 -50 -3 -4
67 -8 155 -8 l161 0 0 158 0 158 -37 -4 c-21 -2 -44 -9 -52 -16 -12 -9 -13 -8
-6 4 4 8 -5 3 -21 -12 -23 -21 -31 -38 -33 -70 -1 -23 -4 -45 -7 -48 -3 -3 -4
30 -2 73 1 42 1 76 -2 75 -3 0 -21 -3 -40 -5z"/>
<path fill="#ffffff" stroke="none" d="M280 153 c-19 -3 -41 -10 -49 -16 -12
-10 -13 -9 -6 3 4 8 -5 3 -21 -12 -23 -21 -31 -38 -33 -70 -4 -69 -11 -57 -11
19 0 38 3 73 7 76 3 4 38 6 77 5 39 0 55 -3 36 -5z"/>
</g>
</svg>
