<?xml version="1.0" standalone="no"?>
<!DOCTYPE svg PUBLIC "-//W3C//DTD SVG 20010904//EN"
 "http://www.w3.org/TR/2001/REC-SVG-20010904/DTD/svg10.dtd">
<svg version="1.0" xmlns="http://www.w3.org/2000/svg"
 width="32.000000pt" height="32.000000pt" viewBox="0 0 32.000000 32.000000"
 preserveAspectRatio="xMidYMid meet">
<metadata>
Created by potrace 1.16, written by Peter Selinger 2001-2019
</metadata>
<g transform="translate(0.000000,32.000000) scale(0.100000,-0.100000)"
fill="#000000" stroke="none">
<path fill="#000000" stroke="none" d="M258 303 c7 -3 16 -2 19 1 4 3 -2 6
-13 5 -11 0 -14 -3 -6 -6z"/>
<path fill="#000000" stroke="none" d="M46 283 c-3 -3 -5 -54 -4 -112 l2 -106
3 94 c2 52 8 100 14 107 10 13 -3 29 -15 17z"/>
<path fill="#000000" stroke="none" d="M10 158 c0 -67 3 -118 7 -114 10 10 12
236 1 236 -4 0 -8 -55 -8 -122z"/>
<path fill="#000000" stroke="none" d="M198 273 c6 -2 18 -2 25 0 6 3 1 5 -13
5 -14 0 -19 -2 -12 -5z"/>
<path fill="#000000" stroke="none" d="M276 271 c-2 -3 -4 -51 -5 -106 -2
-108 9 -127 14 -23 4 96 8 93 15 -12 l6 -95 2 121 c2 103 0 121 -13 121 -9 0
-17 -3 -19 -6z"/>
<path fill="#ffffff" stroke="none" d="M300 243 c0 -19 -13 -9 -16 12 -1 8 2
13 7 9 5 -3 9 -12 9 -21z"/>
<path fill="#000000" stroke="none" d="M86 223 c-6 -14 -5 -15 5 -6 7 7 10 15
7 18 -3 3 -9 -2 -12 -12z"/>
<path fill="#000000" stroke="none" d="M206 231 c-4 -6 -2 -11 3 -11 6 0 11
-8 11 -17 0 -13 3 -14 12 -5 10 10 9 16 -4 28 -11 11 -18 12 -22 5z"/>
<path fill="#000000" stroke="none" d="M134 222 c-6 -4 -12 -28 -13 -54 -1
-36 2 -48 13 -48 20 0 29 17 12 23 -10 4 -12 16 -6 46 4 23 7 41 6 41 0 0 -6
-4 -12 -8z"/>
<path fill="#000000" stroke="none" d="M166 195 c-3 -8 -1 -15 4 -15 6 0 10
-15 10 -34 0 -19 5 -38 10 -41 10 -6 11 -5 15 35 5 49 -25 91 -39 55z"/>
<path fill="#000000" stroke="none" d="M220 104 c0 -8 5 -12 10 -9 6 4 8 11 5
16 -9 14 -15 11 -15 -7z"/>
<path fill="#000000" stroke="none" d="M108 43 c12 -2 30 -2 40 0 9 3 -1 5
-23 4 -22 0 -30 -2 -17 -4z"/>
<path fill="#000000" stroke="none" d="M198 43 c12 -2 30 -2 40 0 9 3 -1 5
-23 4 -22 0 -30 -2 -17 -4z"/>
<path fill="#000000" stroke="none" d="M48 13 c6 -2 18 -2 25 0 6 3 1 5 -13 5
-14 0 -19 -2 -12 -5z"/>
<path fill="#000000" stroke="none" d="M98 13 c7 -3 16 -2 19 1 4 3 -2 6 -13
5 -11 0 -14 -3 -6 -6z"/>
<path fill="#000000" stroke="none" d="M173 13 c20 -2 54 -2 75 0 20 2 3 4
-38 4 -41 0 -58 -2 -37 -4z"/>
</g>
</svg>
