<?xml version="1.0" standalone="no"?>
<!DOCTYPE svg PUBLIC "-//W3C//DTD SVG 20010904//EN"
 "http://www.w3.org/TR/2001/REC-SVG-20010904/DTD/svg10.dtd">
<svg version="1.0" xmlns="http://www.w3.org/2000/svg"
 width="32.000000pt" height="32.000000pt" viewBox="0 0 32.000000 32.000000"
 preserveAspectRatio="xMidYMid meet">
<metadata>
Created by potrace 1.16, written by Peter Selinger 2001-2019
</metadata>
<g transform="translate(0.000000,32.000000) scale(0.100000,-0.100000)"
fill="#000000" stroke="none">
<path fill="#000000" stroke="none" d="M12 238 c2 -48 7 -72 16 -74 7 -1 8 0
2 3 -5 2 -10 33 -10 68 l0 64 38 4 37 4 -43 1 -43 2 3 -72z"/>
<path fill="#000000" stroke="none" d="M128 303 c17 -2 47 -2 65 0 17 2 3 4
-33 4 -36 0 -50 -2 -32 -4z"/>
<path fill="#000000" stroke="none" d="M230 238 c0 -46 4 -67 9 -58 5 8 8 38
7 66 0 33 3 50 10 47 6 -2 21 1 35 6 21 9 19 10 -18 10 l-43 1 0 -72z"/>
<path fill="#000000" stroke="none" d="M285 277 c-20 -25 -36 -59 -26 -52 13
8 14 -1 2 -23 -7 -14 -4 -17 18 -19 20 -1 27 3 28 18 1 10 -2 19 -8 19 -5 0
-8 -3 -6 -7 1 -5 -1 -9 -5 -10 -17 -6 -20 -2 -8 12 7 8 10 22 6 30 -3 9 0 15
9 15 8 0 15 7 15 15 0 18 -11 19 -25 2z"/>
<path fill="#000000" stroke="none" d="M30 261 c0 -6 4 -13 10 -16 6 -3 7 1 4
9 -7 18 -14 21 -14 7z"/>
<path fill="#000000" stroke="none" d="M145 239 c-16 -6 -14 -8 13 -8 33 -1
41 4 20 12 -7 2 -22 1 -33 -4z"/>
<path fill="#000000" stroke="none" d="M110 210 c0 -5 20 -10 45 -10 25 0 45
5 45 10 0 6 -20 10 -45 10 -25 0 -45 -4 -45 -10z"/>
<path fill="#000000" stroke="none" d="M50 170 c0 -13 -7 -20 -20 -20 -17 0
-20 -6 -18 -40 1 -21 5 -37 11 -33 5 3 7 18 5 34 -3 19 -1 26 6 20 6 -4 22 -2
36 5 22 12 23 14 5 14 -19 1 -19 1 -2 14 16 12 16 14 1 20 -23 9 -24 8 -24
-14z"/>
<path fill="#000000" stroke="none" d="M106 174 c-3 -9 -6 -18 -6 -20 0 -2 27
-4 60 -4 53 0 60 2 60 20 0 18 -7 20 -54 20 -40 0 -55 -4 -60 -16z"/>
<path fill="#ffffff" stroke="none" d="M183 163 c-13 -2 -35 -2 -50 0 -16 2
-5 4 22 4 28 0 40 -2 28 -4z"/>
<path fill="#000000" stroke="none" d="M231 123 c0 -26 1 -27 9 -6 7 17 15 21
39 18 17 -2 31 0 31 5 0 6 -18 10 -40 10 -37 0 -40 -2 -39 -27z"/>
<path fill="#000000" stroke="none" d="M65 116 c-21 -26 -37 -58 -24 -50 9 5
10 2 6 -10 -4 -10 -3 -15 3 -11 6 3 13 -1 16 -9 9 -22 19 -20 21 5 1 12 -3 19
-10 16 -7 -3 -12 5 -12 19 0 13 6 24 13 24 6 0 12 4 12 9 0 16 -14 20 -25 7z"/>
<path fill="#000000" stroke="none" d="M100 70 l0 -60 60 0 61 0 -3 60 c-2 39
-7 60 -15 60 -7 0 -10 -6 -8 -12 3 -7 1 -33 -4 -58 -6 -31 -9 -37 -11 -20 l-2
25 -8 -25 c-6 -19 -8 -11 -9 33 -1 31 -5 57 -11 57 -5 0 -11 -26 -11 -57 l-2
-58 -9 58 c-6 31 -14 57 -19 57 -5 0 -9 -27 -9 -60z"/>
<path fill="#000000" stroke="none" d="M234 78 c3 -10 9 -25 13 -35 5 -12 3
-14 -7 -8 -9 5 -11 4 -6 -4 9 -13 26 -5 26 13 0 7 -7 21 -16 32 -13 16 -15 16
-10 2z"/>
<path fill="#000000" stroke="none" d="M15 40 c-3 -5 -1 -10 4 -10 6 0 11 5
11 10 0 6 -2 10 -4 10 -3 0 -8 -4 -11 -10z"/>
</g>
</svg>
