<?xml version="1.0" standalone="no"?>
<!DOCTYPE svg PUBLIC "-//W3C//DTD SVG 20010904//EN"
 "http://www.w3.org/TR/2001/REC-SVG-20010904/DTD/svg10.dtd">
<svg version="1.0" xmlns="http://www.w3.org/2000/svg"
 width="32.000000pt" height="32.000000pt" viewBox="0 0 32.000000 32.000000"
 preserveAspectRatio="xMidYMid meet">
<metadata>
Created by potrace 1.16, written by Peter Selinger 2001-2019
</metadata>
<g transform="translate(0.000000,32.000000) scale(0.100000,-0.100000)"
fill="#000000" stroke="none">
<path fill="#000000" stroke="none" d="M0 160 l0 -160 160 0 160 0 0 160 0
160 -160 0 -160 0 0 -160z"/>
<path fill="#ffffff" stroke="none" d="M88 284 c10 -10 7 -13 -10 -16 -22 -3
-23 -8 -26 -98 -2 -67 -7 -99 -18 -111 -12 -14 -13 -19 -2 -25 26 -17 48 -15
41 4 -5 14 -3 13 11 -3 15 -17 17 -17 12 -3 -4 15 1 18 32 17 37 -1 37 -1 9
-11 -15 -5 -25 -13 -22 -18 9 -15 -70 -8 -87 7 -25 23 -26 237 -2 264 16 18
38 15 62 -7z"/>
<path fill="#ffffff" stroke="none" d="M290 295 c7 -8 9 -15 4 -15 -4 0 -3 -5
4 -12 8 -8 12 -49 12 -117 0 -134 -5 -141 -104 -140 -41 1 -61 4 -48 7 13 4
22 12 20 17 -5 18 62 18 82 0 14 -13 20 -14 26 -3 13 20 13 38 1 35 -15 -3
-19 193 -5 210 8 9 4 15 -13 22 -16 6 -18 10 -8 10 9 1 22 -6 29 -14z"/>
<path fill="#ffffff" stroke="none" d="M234 278 c-3 -4 -15 -8 -27 -8 -15 0
-18 3 -9 8 17 11 43 11 36 0z"/>
<path fill="#ffffff" stroke="none" d="M236 201 c-4 -5 -13 -8 -21 -4 -9 3
-27 -2 -41 -12 -21 -13 -29 -14 -38 -4 -8 9 -8 10 1 5 6 -3 15 -1 19 5 4 7 3
9 -3 6 -6 -4 -18 -1 -27 6 -14 10 -9 12 29 9 35 -3 46 0 51 13 6 15 8 15 22 2
8 -8 11 -20 8 -26z"/>
<path fill="#ffffff" stroke="none" d="M124 146 c2 -15 0 -28 -3 -31 -4 -2 -8
13 -9 33 -3 40 8 39 12 -2z"/>
<path fill="#ffffff" stroke="none" d="M228 116 c16 -18 16 -18 -7 -11 -18 5
-22 4 -16 -6 6 -10 5 -11 -3 -4 -14 14 -18 57 -7 75 8 12 11 10 13 -10 2 -14
11 -33 20 -44z"/>
<path fill="#000000" stroke="none" d="M215 30 c-16 -7 -17 -9 -3 -9 9 -1 20
4 23 9 7 11 7 11 -20 0z"/>
</g>
</svg>
