<?xml version="1.0" standalone="no"?>
<!DOCTYPE svg PUBLIC "-//W3C//DTD SVG 20010904//EN"
 "http://www.w3.org/TR/2001/REC-SVG-20010904/DTD/svg10.dtd">
<svg version="1.0" xmlns="http://www.w3.org/2000/svg"
 width="32.000000pt" height="32.000000pt" viewBox="0 0 32.000000 32.000000"
 preserveAspectRatio="xMidYMid meet">
<metadata>
Created by potrace 1.16, written by Peter Selinger 2001-2019
</metadata>
<g transform="translate(0.000000,32.000000) scale(0.100000,-0.100000)"
fill="#000000" stroke="none">
<path fill="#000000" stroke="none" d="M35 310 c-4 -6 17 -10 57 -9 44 0 57 3
43 9 -28 12 -93 12 -100 0z"/>
<path fill="#000000" stroke="none" d="M5 278 c-6 -26 -2 -95 7 -103 3 -3 6
24 7 60 1 66 -4 83 -14 43z"/>
<path fill="#000000" stroke="none" d="M267 103 c-4 -3 -7 -15 -7 -25 0 -11
-7 -18 -19 -18 -11 0 -23 -5 -26 -10 -3 -6 1 -10 9 -10 20 0 56 35 56 55 0 16
-3 18 -13 8z"/>
</g>
</svg>
