<?xml version="1.0" standalone="no"?>
<!DOCTYPE svg PUBLIC "-//W3C//DTD SVG 20010904//EN"
 "http://www.w3.org/TR/2001/REC-SVG-20010904/DTD/svg10.dtd">
<svg version="1.0" xmlns="http://www.w3.org/2000/svg"
 width="32.000000pt" height="32.000000pt" viewBox="0 0 32.000000 32.000000"
 preserveAspectRatio="xMidYMid meet">
<metadata>
Created by potrace 1.16, written by Peter Selinger 2001-2019
</metadata>
<g transform="translate(0.000000,32.000000) scale(0.100000,-0.100000)"
fill="#000000" stroke="none">
<path fill="#000000" stroke="none" d="M32 288 c-8 -8 -12 -52 -12 -126 0
-101 2 -113 15 -102 11 9 15 35 15 104 0 51 5 97 10 102 8 8 7 14 -3 22 -10 9
-16 9 -25 0z"/>
<path fill="#000000" stroke="none" d="M283 259 c-8 -8 -13 -41 -12 -88 0 -50
3 -69 9 -56 7 18 8 16 11 -10 8 -59 14 1 9 83 -4 67 -7 81 -17 71z"/>
<path fill="#ffffff" stroke="none" d="M287 178 c-3 -8 -6 -5 -6 6 -1 11 2 17
5 13 3 -3 4 -12 1 -19z"/>
</g>
</svg>
