<?xml version="1.0" standalone="no"?>
<!DOCTYPE svg PUBLIC "-//W3C//DTD SVG 20010904//EN"
 "http://www.w3.org/TR/2001/REC-SVG-20010904/DTD/svg10.dtd">
<svg version="1.0" xmlns="http://www.w3.org/2000/svg"
 width="32.000000pt" height="32.000000pt" viewBox="0 0 32.000000 32.000000"
 preserveAspectRatio="xMidYMid meet">
<metadata>
Created by potrace 1.16, written by Peter Selinger 2001-2019
</metadata>
<g transform="translate(0.000000,32.000000) scale(0.100000,-0.100000)"
fill="#000000" stroke="none">
<path fill="#000000" stroke="none" d="M28 293 c-9 -11 -13 -52 -15 -135 -1
-117 -1 -119 18 -102 16 14 19 31 19 111 0 86 2 94 21 101 21 8 21 8 -4 25
-23 15 -26 15 -39 0z"/>
<path fill="#000000" stroke="none" d="M277 273 c-9 -14 -5 -203 4 -209 5 -3
9 0 9 6 0 6 5 8 11 5 7 -5 9 22 5 90 -4 90 -15 130 -29 108z"/>
<path fill="#ffffff" stroke="none" d="M287 178 c-3 -8 -6 -5 -6 6 -1 11 2 17
5 13 3 -3 4 -12 1 -19z"/>
<path fill="#ffffff" stroke="none" d="M287 108 c-3 -8 -6 -5 -6 6 -1 11 2 17
5 13 3 -3 4 -12 1 -19z"/>
<path fill="#000000" stroke="none" d="M206 225 c-5 -13 -16 -16 -51 -13 -38
3 -43 1 -29 -9 9 -7 21 -10 27 -6 6 3 7 1 3 -6 -4 -6 -13 -8 -19 -5 -9 5 -8 3
0 -6 10 -11 16 -10 32 4 12 11 29 16 41 13 26 -7 37 11 18 30 -14 13 -16 13
-22 -2z"/>
<path fill="#000000" stroke="none" d="M112 148 c1 -20 5 -35 9 -33 7 5 3 54
-6 63 -3 3 -5 -10 -3 -30z"/>
<path fill="#000000" stroke="none" d="M193 169 c-7 -9 -8 -20 -3 -28 4 -8 6
-20 3 -27 -2 -6 1 -15 8 -20 8 -5 10 -3 4 6 -6 9 -2 10 16 5 23 -7 23 -7 7 11
-9 11 -18 30 -20 43 -2 20 -5 22 -15 10z"/>
<path fill="#000000" stroke="none" d="M105 40 c4 -6 11 -8 16 -5 14 9 11 15
-7 15 -8 0 -12 -5 -9 -10z"/>
<path fill="#000000" stroke="none" d="M185 40 c3 -5 13 -10 21 -10 8 0 12 4
9 10 -3 6 -13 10 -21 10 -8 0 -12 -4 -9 -10z"/>
<path fill="#000000" stroke="none" d="M234 32 c0 -19 37 -25 53 -8 4 5 3 6
-3 3 -7 -4 -17 0 -24 8 -17 20 -26 19 -26 -3z"/>
<path fill="#000000" stroke="none" d="M175 20 c-4 -6 3 -10 14 -10 25 0 27 6
6 13 -8 4 -17 2 -20 -3z"/>
</g>
</svg>
