<?xml version="1.0" standalone="no"?>
<!DOCTYPE svg PUBLIC "-//W3C//DTD SVG 20010904//EN"
 "http://www.w3.org/TR/2001/REC-SVG-20010904/DTD/svg10.dtd">
<svg version="1.0" xmlns="http://www.w3.org/2000/svg"
 width="32.000000pt" height="32.000000pt" viewBox="0 0 32.000000 32.000000"
 preserveAspectRatio="xMidYMid meet">
<metadata>
Created by potrace 1.16, written by Peter Selinger 2001-2019
</metadata>
<g transform="translate(0.000000,32.000000) scale(0.100000,-0.100000)"
fill="#000000" stroke="none">
<path fill="#000000" stroke="none" d="M0 160 l0 -160 160 0 160 0 0 160 0
160 -160 0 -160 0 0 -160z"/>
<path fill="#ffffff" stroke="none" d="M69 286 c9 -10 8 -15 -4 -20 -12 -4
-15 -24 -15 -99 0 -69 -4 -98 -14 -106 -8 -7 -16 -8 -18 -4 -9 17 -1 124 10
135 14 14 16 42 3 34 -5 -3 -11 7 -14 22 -8 44 26 69 52 38z"/>
<path fill="#ffffff" stroke="none" d="M292 258 c-14 -14 -16 -32 -3 -24 5 3
11 -1 15 -9 3 -8 1 -17 -4 -20 -6 -4 -10 -1 -10 5 0 6 -4 8 -10 5 -14 -9 -12
29 2 43 7 7 14 12 17 12 3 0 0 -5 -7 -12z"/>
<path fill="#ffffff" stroke="none" d="M291 175 c5 4 6 -1 3 -9 -3 -9 -2 -16
4 -16 14 0 12 -48 -3 -53 -8 -4 -11 3 -8 21 4 21 2 24 -6 12 -8 -12 -11 -6
-10 25 0 22 3 34 6 27 2 -6 9 -10 14 -7z"/>
</g>
</svg>
