<?xml version="1.0" standalone="no"?>
<!DOCTYPE svg PUBLIC "-//W3C//DTD SVG 20010904//EN"
 "http://www.w3.org/TR/2001/REC-SVG-20010904/DTD/svg10.dtd">
<svg version="1.0" xmlns="http://www.w3.org/2000/svg"
 width="32.000000pt" height="32.000000pt" viewBox="0 0 32.000000 32.000000"
 preserveAspectRatio="xMidYMid meet">
<metadata>
Created by potrace 1.16, written by Peter Selinger 2001-2019
</metadata>
<g transform="translate(0.000000,32.000000) scale(0.100000,-0.100000)"
fill="#000000" stroke="none">
<path fill="#000000" stroke="none" d="M47 273 c-4 -3 -7 -20 -6 -37 l1 -31
11 28 c6 15 18 27 26 27 9 0 23 5 31 10 11 7 6 10 -21 10 -20 0 -39 -3 -42 -7z"/>
<path fill="#000000" stroke="none" d="M205 270 c-3 -5 1 -10 10 -10 9 0 13 5
10 10 -3 6 -8 10 -10 10 -2 0 -7 -4 -10 -10z"/>
<path fill="#000000" stroke="none" d="M40 170 c0 -8 5 -22 10 -30 9 -13 10
-13 10 0 0 8 -5 22 -10 30 -9 13 -10 13 -10 0z"/>
<path fill="#000000" stroke="none" d="M40 109 c0 -5 5 -7 10 -4 6 3 10 8 10
11 0 2 -4 4 -10 4 -5 0 -10 -5 -10 -11z"/>
<path fill="#000000" stroke="none" d="M305 57 c-6 -28 -13 -36 -43 -44 l-37
-10 48 -2 47 -1 0 45 c0 53 -7 58 -15 12z"/>
<path fill="#000000" stroke="none" d="M165 10 c-3 -5 -2 -10 4 -10 5 0 13 5
16 10 3 6 2 10 -4 10 -5 0 -13 -4 -16 -10z"/>
</g>
</svg>
