<?xml version="1.0" standalone="no"?>
<!DOCTYPE svg PUBLIC "-//W3C//DTD SVG 20010904//EN"
 "http://www.w3.org/TR/2001/REC-SVG-20010904/DTD/svg10.dtd">
<svg version="1.0" xmlns="http://www.w3.org/2000/svg"
 width="32.000000pt" height="32.000000pt" viewBox="0 0 32.000000 32.000000"
 preserveAspectRatio="xMidYMid meet">
<metadata>
Created by potrace 1.16, written by Peter Selinger 2001-2019
</metadata>
<g transform="translate(0.000000,32.000000) scale(0.100000,-0.100000)"
fill="#000000" stroke="none">
<path fill="#000000" stroke="none" d="M0 160 l0 -160 160 0 160 0 0 160 0
160 -160 0 -160 0 0 -160z"/>
<path fill="#ffffff" stroke="none" d="M292 293 c15 -14 18 -32 18 -131 0
-154 2 -152 -148 -152 -154 0 -152 -2 -152 148 0 154 -2 152 148 152 93 0 119
-3 134 -17z"/>
<path fill="#000000" stroke="none" d="M57 263 c-3 -4 -5 -32 -4 -61 0 -49 1
-52 16 -37 11 11 13 18 5 23 -13 8 -12 40 0 61 7 11 10 11 18 0 8 -11 9 -11 5
1 -4 17 -32 26 -40 13z"/>
<path fill="#000000" stroke="none" d="M114 249 c0 -17 2 -17 23 -4 30 20 36
19 30 -6 -3 -13 -1 -19 6 -16 7 2 12 10 12 18 0 8 7 17 15 21 8 4 -8 7 -35 6
-42 -1 -51 -5 -51 -19z"/>
<path fill="#000000" stroke="none" d="M74 145 c-16 -12 -17 -14 -3 -15 9 0
19 7 23 15 7 19 5 19 -20 0z"/>
<path fill="#000000" stroke="none" d="M223 147 c4 -14 47 -19 47 -6 0 5 -3 9
-7 10 -5 0 -16 2 -26 4 -11 2 -16 -2 -14 -8z"/>
<path fill="#000000" stroke="none" d="M50 85 c0 -8 7 -15 15 -15 19 0 19 16
0 24 -9 3 -15 0 -15 -9z"/>
<path fill="#000000" stroke="none" d="M153 74 c-12 -13 -18 -24 -14 -24 10 0
45 39 40 44 -2 3 -14 -6 -26 -20z"/>
<path fill="#000000" stroke="none" d="M195 64 c-19 -14 -19 -15 2 -11 26 4
38 13 26 20 -4 3 -17 -1 -28 -9z"/>
<path fill="#000000" stroke="none" d="M95 60 c4 -6 11 -8 16 -5 14 9 11 15
-7 15 -8 0 -12 -5 -9 -10z"/>
</g>
</svg>
