<?xml version="1.0" standalone="no"?>
<!DOCTYPE svg PUBLIC "-//W3C//DTD SVG 20010904//EN"
 "http://www.w3.org/TR/2001/REC-SVG-20010904/DTD/svg10.dtd">
<svg version="1.0" xmlns="http://www.w3.org/2000/svg"
 width="32.000000pt" height="32.000000pt" viewBox="0 0 32.000000 32.000000"
 preserveAspectRatio="xMidYMid meet">
<metadata>
Created by potrace 1.16, written by Peter Selinger 2001-2019
</metadata>
<g transform="translate(0.000000,32.000000) scale(0.100000,-0.100000)"
fill="#000000" stroke="none">
<path fill="#000000" stroke="none" d="M17 302 c-19 -20 -23 -67 -7 -77 6 -4
10 10 10 34 l0 41 83 1 c45 1 86 0 92 -1 5 -1 6 2 2 6 -4 5 -43 10 -85 12 -66
3 -80 1 -95 -16z"/>
<path fill="#000000" stroke="none" d="M201 289 c-10 -23 -11 -33 -2 -42 9 -9
11 -8 5 6 -3 9 -1 24 6 32 6 8 10 19 8 25 -1 5 -9 -4 -17 -21z"/>
<path fill="#000000" stroke="none" d="M3 155 c0 -19 4 -32 9 -29 4 3 8 14 8
25 0 22 4 23 31 9 10 -6 19 -8 19 -6 0 5 -54 36 -63 36 -2 0 -4 -16 -4 -35z"/>
<path fill="#000000" stroke="none" d="M0 95 c0 -8 2 -15 4 -15 2 0 6 7 10 15
3 8 1 15 -4 15 -6 0 -10 -7 -10 -15z"/>
</g>
</svg>
