<?xml version="1.0" standalone="no"?>
<!DOCTYPE svg PUBLIC "-//W3C//DTD SVG 20010904//EN"
 "http://www.w3.org/TR/2001/REC-SVG-20010904/DTD/svg10.dtd">
<svg version="1.0" xmlns="http://www.w3.org/2000/svg"
 width="32.000000pt" height="32.000000pt" viewBox="0 0 32.000000 32.000000"
 preserveAspectRatio="xMidYMid meet">
<metadata>
Created by potrace 1.16, written by Peter Selinger 2001-2019
</metadata>
<g transform="translate(0.000000,32.000000) scale(0.100000,-0.100000)"
fill="#000000" stroke="none">
<path fill="#000000" stroke="none" d="M0 245 c0 -70 9 -91 26 -63 4 6 3 8 -4
4 -7 -4 -10 7 -9 32 1 28 6 39 17 38 11 -1 14 7 12 26 -3 23 1 27 30 31 23 3
18 4 -19 5 l-53 2 0 -75z"/>
<path fill="#000000" stroke="none" d="M160 245 c0 -41 2 -75 3 -75 19 0 66
35 70 53 6 22 6 22 -11 2 -9 -12 -25 -27 -34 -34 -15 -11 -17 -9 -16 18 1 19
5 28 12 24 6 -4 5 0 -2 9 -11 14 -10 16 6 11 25 -6 37 13 21 33 -10 13 -10 17
2 25 10 6 5 9 -18 9 l-33 0 0 -75z"/>
<path fill="#000000" stroke="none" d="M240 316 c0 -2 7 -7 16 -10 8 -3 12 -2
9 4 -6 10 -25 14 -25 6z"/>
<path fill="#000000" stroke="none" d="M75 228 l-30 -31 33 22 c17 12 32 27
32 32 0 12 0 12 -35 -23z"/>
<path fill="#000000" stroke="none" d="M0 111 c0 -28 4 -52 9 -55 4 -3 7 5 6
18 -2 19 1 22 21 18 13 -2 27 -9 30 -14 3 -5 -6 -7 -21 -4 -21 4 -24 2 -16 -8
6 -8 9 -20 5 -29 -3 -8 0 -18 7 -23 8 -5 10 -3 4 5 -4 7 2 22 16 37 l23 24
-22 30 c-12 16 -22 31 -22 34 0 3 15 7 33 9 22 3 15 4 -20 5 l-53 2 0 -49z"/>
<path fill="#000000" stroke="none" d="M210 132 c-14 -14 -19 -21 -11 -17 10
6 12 4 6 -5 -6 -10 -12 -8 -27 9 -18 23 -18 23 -18 -43 0 -36 4 -66 8 -66 4 0
23 15 41 34 29 30 32 36 21 57 -11 20 -10 25 10 41 12 10 16 18 9 17 -8 -1
-25 -13 -39 -27z"/>
<path fill="#ffffff" stroke="none" d="M223 81 c2 -3 -9 -19 -24 -35 l-28 -29
2 40 c1 35 4 39 24 35 13 -2 25 -7 26 -11z"/>
<path fill="#000000" stroke="none" d="M186 68 c3 -5 10 -6 15 -3 13 9 11 12
-6 12 -8 0 -12 -4 -9 -9z"/>
</g>
</svg>
