<?xml version="1.0" standalone="no"?>
<!DOCTYPE svg PUBLIC "-//W3C//DTD SVG 20010904//EN"
 "http://www.w3.org/TR/2001/REC-SVG-20010904/DTD/svg10.dtd">
<svg version="1.0" xmlns="http://www.w3.org/2000/svg"
 width="32.000000pt" height="32.000000pt" viewBox="0 0 32.000000 32.000000"
 preserveAspectRatio="xMidYMid meet">
<metadata>
Created by potrace 1.16, written by Peter Selinger 2001-2019
</metadata>
<g transform="translate(0.000000,32.000000) scale(0.100000,-0.100000)"
fill="#000000" stroke="none">
<path fill="#000000" stroke="none" d="M113 314 c4 -4 47 -8 97 -9 67 -1 94
-5 101 -16 7 -11 9 -9 9 9 0 21 -3 22 -107 22 -58 0 -103 -3 -100 -6z"/>
<path fill="#000000" stroke="none" d="M121 284 c-1 -16 6 -23 24 -26 14 -3
25 -1 25 3 0 5 -9 9 -19 9 -11 0 -22 8 -24 18 -4 13 -5 13 -6 -4z"/>
<path fill="#000000" stroke="none" d="M2 270 c0 -14 2 -19 5 -12 2 6 2 18 0
25 -3 6 -5 1 -5 -13z"/>
<path fill="#000000" stroke="none" d="M309 213 c-1 -57 -8 -115 -14 -122 -9
-8 -85 -8 -85 1 0 4 -4 8 -10 8 -5 0 -10 -12 -9 -27 0 -16 3 -22 6 -15 3 7 25
12 62 12 l57 0 2 90 c2 50 0 90 -3 90 -3 0 -5 -17 -6 -37z"/>
<path fill="#000000" stroke="none" d="M4 165 c0 -30 4 -55 8 -55 5 0 8 15 7
33 -3 50 0 57 19 57 14 0 15 2 2 10 -28 18 -35 10 -36 -45z"/>
<path fill="#000000" stroke="none" d="M254 202 c-9 -5 -8 -11 2 -20 12 -11
14 -9 14 8 0 22 0 23 -16 12z"/>
<path fill="#000000" stroke="none" d="M159 184 c-7 -8 -1 -13 21 -16 23 -3
30 -1 30 12 0 18 -36 22 -51 4z"/>
<path fill="#000000" stroke="none" d="M64 111 c3 -5 15 -7 26 -4 28 7 25 13
-6 13 -14 0 -23 -4 -20 -9z"/>
<path fill="#000000" stroke="none" d="M2 50 c0 -14 2 -19 5 -12 2 6 2 18 0
25 -3 6 -5 1 -5 -13z"/>
<path fill="#000000" stroke="none" d="M99 20 c-9 -5 -35 -8 -58 -5 -22 2 -41
0 -41 -5 0 -6 35 -10 78 -10 63 0 79 3 79 15 0 12 -3 12 -16 2 -12 -9 -13 -9
-7 1 9 14 -12 16 -35 2z"/>
<path fill="#000000" stroke="none" d="M310 19 c0 -6 -22 -9 -60 -8 -33 1 -63
-1 -67 -4 -3 -4 26 -7 65 -7 57 0 72 3 72 15 0 8 -2 15 -5 15 -3 0 -5 -5 -5
-11z"/>
</g>
</svg>
