<?xml version="1.0" standalone="no"?>
<!DOCTYPE svg PUBLIC "-//W3C//DTD SVG 20010904//EN"
 "http://www.w3.org/TR/2001/REC-SVG-20010904/DTD/svg10.dtd">
<svg version="1.0" xmlns="http://www.w3.org/2000/svg"
 width="32.000000pt" height="32.000000pt" viewBox="0 0 32.000000 32.000000"
 preserveAspectRatio="xMidYMid meet">
<metadata>
Created by potrace 1.16, written by Peter Selinger 2001-2019
</metadata>
<g transform="translate(0.000000,32.000000) scale(0.100000,-0.100000)"
fill="#000000" stroke="none">
<path fill="#000000" stroke="none" d="M10 301 c0 -5 6 -11 13 -14 10 -4 10
-7 0 -18 -17 -17 -17 -86 0 -92 9 -3 9 -8 -2 -21 -11 -13 -11 -20 -3 -28 9 -9
12 -8 12 3 0 8 9 20 20 27 16 10 18 16 10 32 -12 23 -13 33 -1 26 5 -3 11 1
15 9 3 8 15 15 26 15 13 0 20 7 20 20 0 23 -18 27 -26 5 -9 -23 -19 -18 -20
11 -2 33 -12 42 -25 24 -8 -11 -12 -12 -16 -2 -5 14 -23 16 -23 3z"/>
<path fill="#000000" stroke="none" d="M103 302 c-36 -5 -27 -18 14 -19 20 -1
32 2 27 6 -5 3 -11 9 -14 12 -3 2 -15 3 -27 1z"/>
<path fill="#000000" stroke="none" d="M163 291 c-3 -12 -9 -21 -14 -21 -5 0
-9 -8 -9 -18 0 -22 -35 -56 -48 -48 -6 3 -8 -2 -5 -13 3 -13 11 -17 26 -14 22
4 22 4 3 -11 -23 -19 -17 -20 18 -5 19 9 27 22 32 55 3 24 10 41 15 38 5 -3 7
-10 4 -15 -4 -5 -1 -9 6 -9 10 0 10 -3 1 -12 -7 -7 -12 -20 -12 -30 0 -15 4
-17 19 -9 10 6 22 7 26 3 5 -4 5 -1 1 6 -4 6 -2 12 4 12 7 0 9 -12 6 -34 -4
-26 -2 -36 11 -40 9 -4 20 -1 25 6 6 10 8 9 8 -4 0 -10 5 -15 13 -12 10 3 14
-6 15 -32 1 -20 4 -39 7 -42 3 -3 5 55 5 129 l0 134 -76 3 c-69 3 -76 2 -81
-17z"/>
<path fill="#ffffff" stroke="none" d="M185 290 c3 -5 1 -10 -4 -10 -6 0 -11
5 -11 10 0 6 2 10 4 10 3 0 8 -4 11 -10z"/>
<path fill="#ffffff" stroke="none" d="M237 268 c-3 -7 -5 -2 -5 12 0 14 2 19
5 13 2 -7 2 -19 0 -25z"/>
<path fill="#ffffff" stroke="none" d="M304 266 c-3 -9 -12 -16 -19 -16 -17 0
-7 -40 12 -47 12 -5 12 -7 1 -14 -10 -7 -10 -9 0 -9 6 0 12 -7 12 -15 0 -17
-35 -21 -45 -5 -3 6 -2 10 3 10 6 0 6 15 1 41 -8 36 -7 42 13 59 26 21 31 20
22 -4z"/>
<path fill="#ffffff" stroke="none" d="M210 203 c-11 -17 -11 -17 -6 0 3 10 6
24 7 30 0 9 2 9 5 0 3 -7 0 -20 -6 -30z"/>
<path fill="#000000" stroke="none" d="M36 93 c-6 -13 -9 -14 -15 -5 -5 9 -8
2 -9 -17 -1 -27 1 -29 18 -19 10 7 16 16 13 20 -2 5 1 15 7 23 7 9 8 15 2 15
-5 0 -13 -8 -16 -17z"/>
<path fill="#000000" stroke="none" d="M153 88 c-13 -6 -23 -17 -23 -23 0 -7
-7 -15 -15 -19 -8 -3 -15 -13 -16 -23 0 -16 -1 -16 -8 1 -4 11 -15 20 -24 22
-10 1 -14 -2 -11 -8 4 -6 0 -14 -7 -19 -8 -4 -16 -4 -20 2 -4 7 -9 4 -12 -5
-6 -14 11 -16 148 -16 131 0 155 2 155 15 0 8 -5 15 -11 15 -5 0 -7 -4 -4 -10
3 -5 -1 -10 -9 -10 -9 0 -16 4 -16 9 0 5 -22 14 -50 21 -27 7 -50 16 -50 20 0
4 -9 6 -20 3 -32 -8 -23 7 13 22 17 8 25 14 17 14 -8 0 -25 -5 -37 -11z"/>
<path fill="#000000" stroke="none" d="M250 69 c0 -5 5 -7 10 -4 6 3 10 8 10
11 0 2 -4 4 -10 4 -5 0 -10 -5 -10 -11z"/>
</g>
</svg>
