<?xml version="1.0" standalone="no"?>
<!DOCTYPE svg PUBLIC "-//W3C//DTD SVG 20010904//EN"
 "http://www.w3.org/TR/2001/REC-SVG-20010904/DTD/svg10.dtd">
<svg version="1.0" xmlns="http://www.w3.org/2000/svg"
 width="32.000000pt" height="32.000000pt" viewBox="0 0 32.000000 32.000000"
 preserveAspectRatio="xMidYMid meet">
<metadata>
Created by potrace 1.16, written by Peter Selinger 2001-2019
</metadata>
<g transform="translate(0.000000,32.000000) scale(0.100000,-0.100000)"
fill="#000000" stroke="none">
<path fill="#000000" stroke="none" d="M0 224 c0 -91 1 -96 20 -91 20 5 24 -2
21 -35 -1 -10 3 -18 9 -18 6 0 9 4 6 9 -4 5 0 11 6 14 9 3 6 12 -9 29 -26 27
-31 47 -8 28 9 -8 15 -9 15 -2 0 6 -8 17 -18 24 -11 7 -19 20 -20 28 -1 8 -4
32 -7 53 -4 25 -2 36 6 35 6 -2 14 3 16 10 3 7 -4 12 -16 12 -20 0 -21 -5 -21
-96z"/>
<path fill="#000000" stroke="none" d="M60 304 c0 -13 3 -14 13 -5 8 6 17 8
20 4 4 -3 7 -1 7 5 0 7 -9 12 -20 12 -12 0 -20 -7 -20 -16z"/>
<path fill="#000000" stroke="none" d="M153 313 c9 -2 25 -2 35 0 9 3 1 5 -18
5 -19 0 -27 -2 -17 -5z"/>
<path fill="#000000" stroke="none" d="M218 313 c7 -3 16 -2 19 1 4 3 -2 6
-13 5 -11 0 -14 -3 -6 -6z"/>
<path fill="#000000" stroke="none" d="M258 301 c4 -10 1 -12 -8 -6 -9 6 -11
4 -6 -4 6 -9 13 -8 27 5 24 21 24 23 0 21 -12 -1 -17 -6 -13 -16z"/>
<path fill="#000000" stroke="none" d="M141 274 c0 -11 3 -14 6 -6 3 7 2 16
-1 19 -3 4 -6 -2 -5 -13z"/>
<path fill="#000000" stroke="none" d="M196 230 c-14 -25 -14 -29 -2 -24 8 3
18 15 22 26 9 31 0 30 -20 -2z"/>
<path fill="#000000" stroke="none" d="M116 237 c3 -10 9 -15 12 -12 3 3 0 11
-7 18 -10 9 -11 8 -5 -6z"/>
<path fill="#000000" stroke="none" d="M62 220 c-9 -14 -8 -21 2 -29 11 -9 15
-6 18 14 7 32 -4 40 -20 15z"/>
<path fill="#000000" stroke="none" d="M268 213 c7 -3 16 -2 19 1 4 3 -2 6
-13 5 -11 0 -14 -3 -6 -6z"/>
<path fill="#000000" stroke="none" d="M266 191 c-3 -5 0 -11 8 -14 8 -3 17 1
20 9 6 15 -19 20 -28 5z"/>
<path fill="#000000" stroke="none" d="M302 140 c0 -14 2 -19 5 -12 2 6 2 18
0 25 -3 6 -5 1 -5 -13z"/>
<path fill="#000000" stroke="none" d="M155 120 c3 -5 8 -10 11 -10 2 0 4 5 4
10 0 6 -5 10 -11 10 -5 0 -7 -4 -4 -10z"/>
<path fill="#000000" stroke="none" d="M1 80 c0 -35 2 -41 10 -28 11 20 11 21
-1 50 -7 19 -9 15 -9 -22z"/>
<path fill="#000000" stroke="none" d="M95 80 c-3 -5 -1 -10 4 -10 6 0 11 5
11 10 0 6 -2 10 -4 10 -3 0 -8 -4 -11 -10z"/>
<path fill="#000000" stroke="none" d="M75 40 c3 -5 11 -10 16 -10 6 0 7 5 4
10 -3 6 -11 10 -16 10 -6 0 -7 -4 -4 -10z"/>
<path fill="#000000" stroke="none" d="M211 31 c-8 -5 -9 -11 -3 -15 5 -3 12
1 16 9 6 17 6 18 -13 6z"/>
</g>
</svg>
