<?xml version="1.0" standalone="no"?>
<!DOCTYPE svg PUBLIC "-//W3C//DTD SVG 20010904//EN"
 "http://www.w3.org/TR/2001/REC-SVG-20010904/DTD/svg10.dtd">
<svg version="1.0" xmlns="http://www.w3.org/2000/svg"
 width="32.000000pt" height="32.000000pt" viewBox="0 0 32.000000 32.000000"
 preserveAspectRatio="xMidYMid meet">
<metadata>
Created by potrace 1.16, written by Peter Selinger 2001-2019
</metadata>
<g transform="translate(0.000000,32.000000) scale(0.100000,-0.100000)"
fill="#000000" stroke="none">
<path fill="#000000" stroke="none" d="M303 305 c-31 -34 -65 -113 -64 -147 0
-10 -5 -18 -11 -18 -6 0 -8 17 -4 43 4 31 3 35 -3 17 -5 -14 -9 -37 -10 -52
-1 -16 -5 -28 -9 -28 -4 0 -13 -18 -19 -40 -5 -22 -6 -40 -2 -40 5 0 9 5 9 11
0 5 4 8 9 4 6 -3 13 11 17 30 3 20 9 34 12 31 3 -3 11 -1 19 6 21 17 28 1 10
-25 -13 -20 -13 -24 -1 -24 7 0 16 9 20 19 3 10 10 15 16 12 7 -5 9 -2 6 7 -3
8 -2 23 3 34 5 13 8 -2 8 -45 0 -36 -3 -70 -7 -77 -5 -9 -52 -13 -152 -16
l-145 -3 158 -2 157 -2 0 160 c0 88 -1 160 -2 160 -2 -1 -9 -7 -15 -15z"/>
<path fill="#ffffff" stroke="none" d="M280 160 c0 -5 -7 -7 -15 -4 -8 4 -15
8 -15 10 0 2 7 4 15 4 8 0 15 -4 15 -10z"/>
<path fill="#000000" stroke="none" d="M60 300 c0 -6 10 -15 23 -20 12 -5 18
-9 12 -10 -5 0 -4 -4 4 -9 23 -15 51 -1 51 25 0 18 -6 24 -21 24 -11 0 -18 -4
-15 -8 2 -4 -4 -8 -15 -8 -10 0 -19 4 -19 8 0 4 -4 8 -10 8 -5 0 -10 -5 -10
-10z"/>
</g>
</svg>
