<?xml version="1.0" standalone="no"?>
<!DOCTYPE svg PUBLIC "-//W3C//DTD SVG 20010904//EN"
 "http://www.w3.org/TR/2001/REC-SVG-20010904/DTD/svg10.dtd">
<svg version="1.0" xmlns="http://www.w3.org/2000/svg"
 width="32.000000pt" height="32.000000pt" viewBox="0 0 32.000000 32.000000"
 preserveAspectRatio="xMidYMid meet">
<metadata>
Created by potrace 1.16, written by Peter Selinger 2001-2019
</metadata>
<g transform="translate(0.000000,32.000000) scale(0.100000,-0.100000)"
fill="#000000" stroke="none">
<path fill="#000000" stroke="none" d="M288 313 c-16 -2 -28 -8 -28 -13 0 -5
6 -7 13 -5 29 11 36 -12 40 -125 l3 -115 2 133 c1 72 1 131 0 131 -2 -1 -15
-4 -30 -6z"/>
<path fill="#000000" stroke="none" d="M10 302 c0 -4 6 -14 13 -21 10 -11 10
-14 0 -18 -15 -5 -18 -53 -4 -53 5 0 17 -3 25 -6 12 -5 15 -2 10 9 -4 13 -1
15 17 12 12 -3 27 -9 32 -14 5 -5 15 -7 22 -5 7 3 16 1 20 -5 3 -6 12 -11 20
-11 9 0 13 16 12 60 0 56 -2 60 -24 60 -18 0 -23 -5 -23 -25 0 -22 -2 -24 -14
-13 -10 9 -11 17 -4 26 8 9 5 12 -11 12 -12 0 -20 -4 -17 -9 4 -5 3 -16 0 -25
-5 -13 -9 -12 -26 9 -18 24 -48 34 -48 17z"/>
<path fill="#000000" stroke="none" d="M190 300 c0 -5 5 -10 10 -10 6 0 10 5
10 10 0 6 -4 10 -10 10 -5 0 -10 -4 -10 -10z"/>
<path fill="#000000" stroke="none" d="M71 169 c9 -17 13 -19 19 -8 11 16 4
29 -16 29 -12 0 -13 -4 -3 -21z"/>
<path fill="#000000" stroke="none" d="M52 3 c27 -2 69 -2 95 0 27 2 5 3 -47
3 -52 0 -74 -1 -48 -3z"/>
</g>
</svg>
