<?xml version="1.0" standalone="no"?>
<!DOCTYPE svg PUBLIC "-//W3C//DTD SVG 20010904//EN"
 "http://www.w3.org/TR/2001/REC-SVG-20010904/DTD/svg10.dtd">
<svg version="1.0" xmlns="http://www.w3.org/2000/svg"
 width="32.000000pt" height="32.000000pt" viewBox="0 0 32.000000 32.000000"
 preserveAspectRatio="xMidYMid meet">
<metadata>
Created by potrace 1.16, written by Peter Selinger 2001-2019
</metadata>
<g transform="translate(0.000000,32.000000) scale(0.100000,-0.100000)"
fill="#000000" stroke="none">
<path fill="#000000" stroke="none" d="M0 298 c0 -10 4 -18 9 -18 5 0 5 -15
-1 -34 -6 -19 -7 -46 -3 -62 10 -37 11 -64 4 -89 -3 -11 -3 -31 1 -45 4 -14 2
-31 -3 -37 -7 -10 24 -13 152 -13 l161 0 0 161 c0 138 -2 160 -14 150 -10 -8
-16 -9 -21 -2 -3 6 -44 10 -100 8 -51 -1 -88 -5 -82 -9 8 -5 6 -8 -5 -8 -9 0
-18 6 -21 13 -3 9 -9 9 -27 -1 -12 -8 -19 -9 -16 -3 4 5 -2 9 -14 8 -12 -1
-20 -8 -20 -19z"/>
<path fill="#ffffff" stroke="none" d="M301 263 c-8 -15 -10 -15 -11 -2 0 17
10 32 18 25 2 -3 -1 -13 -7 -23z"/>
<path fill="#ffffff" stroke="none" d="M137 260 c1 -11 -2 -22 -8 -25 -5 -4
-9 5 -9 19 0 30 15 35 17 6z"/>
<path fill="#ffffff" stroke="none" d="M177 178 c-3 -8 -6 -5 -6 6 -1 11 2 17
5 13 3 -3 4 -12 1 -19z"/>
<path fill="#ffffff" stroke="none" d="M306 162 c-4 -3 -11 0 -16 8 -15 24
-11 33 6 15 9 -9 13 -19 10 -23z"/>
<path fill="#ffffff" stroke="none" d="M93 144 c-2 -6 0 -15 6 -19 6 -3 11 0
11 8 0 14 20 27 42 27 6 0 8 -9 5 -20 -3 -10 0 -21 7 -24 7 -3 2 -12 -11 -22
-13 -9 -23 -23 -23 -30 0 -8 -3 -14 -7 -15 -45 -5 -63 -3 -64 6 0 5 -2 25 -3
42 -2 19 2 37 10 44 8 6 14 19 14 28 0 13 2 14 9 2 5 -8 7 -20 4 -27z"/>
<path fill="#ffffff" stroke="none" d="M228 152 c-3 -12 2 -24 13 -31 28 -17
24 -41 -6 -41 -16 0 -25 6 -25 16 0 10 -6 14 -14 11 -9 -4 -16 3 -20 16 -10
37 -10 37 48 46 4 0 6 -7 4 -17z"/>
<path fill="#ffffff" stroke="none" d="M37 108 c-3 -8 -6 -5 -6 6 -1 11 2 17
5 13 3 -3 4 -12 1 -19z"/>
<path fill="#ffffff" stroke="none" d="M307 79 c2 -35 2 -35 -39 -35 -25 1
-43 6 -46 14 -3 9 3 11 21 7 20 -6 25 -2 29 19 3 14 0 27 -6 29 -6 3 0 4 14 3
22 -1 26 -6 27 -37z"/>
<path fill="#000000" stroke="none" d="M127 120 c3 -11 9 -20 14 -20 11 0 11
3 3 24 -9 23 -23 20 -17 -4z"/>
<path fill="#000000" stroke="none" d="M76 94 c-4 -9 -4 -19 -1 -22 3 -3 5 1
5 9 0 11 2 11 10 -1 8 -13 10 -13 10 2 0 23 -17 31 -24 12z"/>
</g>
</svg>
