<?xml version="1.0" standalone="no"?>
<!DOCTYPE svg PUBLIC "-//W3C//DTD SVG 20010904//EN"
 "http://www.w3.org/TR/2001/REC-SVG-20010904/DTD/svg10.dtd">
<svg version="1.0" xmlns="http://www.w3.org/2000/svg"
 width="32.000000pt" height="32.000000pt" viewBox="0 0 32.000000 32.000000"
 preserveAspectRatio="xMidYMid meet">
<metadata>
Created by potrace 1.16, written by Peter Selinger 2001-2019
</metadata>
<g transform="translate(0.000000,32.000000) scale(0.100000,-0.100000)"
fill="#000000" stroke="none">
<path fill="#000000" stroke="none" d="M44 304 c3 -7 2 -13 -2 -13 -26 4 -33
-3 -29 -30 3 -17 8 -35 12 -40 3 -6 -1 -11 -10 -11 -9 0 -13 -5 -10 -10 4 -6
11 -8 16 -5 5 4 9 1 9 -4 0 -6 -6 -11 -14 -11 -10 0 -14 -14 -14 -51 0 -39 3
-49 14 -45 16 6 20 -29 5 -38 -5 -3 -11 -15 -14 -26 -5 -19 -1 -20 154 -20
l159 0 0 160 0 160 -33 0 c-22 0 -36 -7 -45 -21 -11 -16 -10 -20 0 -17 8 2 13
-1 13 -7 0 -5 -4 -9 -8 -7 -5 1 -6 -2 -3 -7 4 -5 1 -13 -5 -17 -6 -3 -15 -1
-19 6 -10 16 -22 -14 -14 -35 3 -8 -2 -22 -11 -31 -9 -9 -14 -25 -12 -35 6
-23 -9 -35 -17 -13 -3 8 -10 13 -15 10 -13 -8 -19 15 -12 43 4 13 14 25 24 27
10 1 14 -2 11 -8 -4 -7 -2 -8 4 -4 7 4 9 18 6 33 -4 16 -2 29 7 35 10 7 11 11
2 14 -7 3 -9 12 -7 19 5 12 -9 14 -71 14 -62 0 -76 -3 -71 -15z"/>
<path fill="#ffffff" stroke="none" d="M84 209 c-4 -35 -2 -41 16 -46 11 -3
20 -6 20 -8 0 -14 -24 -65 -31 -65 -4 0 -6 -7 -3 -15 4 -8 10 -12 15 -9 5 3 6
-2 2 -12 -5 -15 -7 -14 -17 3 -6 11 -18 18 -26 16 -9 -3 -11 -1 -5 4 17 14 16
33 -2 33 -15 0 -16 2 -3 10 13 8 12 10 -2 10 -20 0 -21 2 -12 24 3 9 12 16 20
16 8 0 14 10 14 26 0 14 -4 23 -10 19 -14 -9 -13 18 2 33 19 19 27 4 22 -39z"/>
<path fill="#ffffff" stroke="none" d="M149 44 c-10 -12 -10 -15 1 -12 7 2 15
-3 17 -9 3 -8 -4 -13 -15 -13 -26 0 -35 25 -17 44 8 8 16 21 16 28 1 7 3 5 6
-5 3 -10 -1 -25 -8 -33z"/>
<path fill="#ffffff" stroke="none" d="M232 48 c-7 -7 -12 -8 -12 -2 0 14 12
26 19 19 2 -3 -1 -11 -7 -17z"/>
<path fill="#ffffff" stroke="none" d="M73 24 c-6 -17 -44 -15 -51 4 -2 8 7
12 27 12 23 0 29 -4 24 -16z"/>
<path fill="#000000" stroke="none" d="M220 310 c0 -5 5 -10 10 -10 6 0 10 5
10 10 0 6 -4 10 -10 10 -5 0 -10 -4 -10 -10z"/>
<path fill="#000000" stroke="none" d="M148 187 c-3 -19 -2 -25 4 -19 6 6 8
18 6 28 -3 14 -5 12 -10 -9z"/>
</g>
</svg>
