<?xml version="1.0" standalone="no"?>
<!DOCTYPE svg PUBLIC "-//W3C//DTD SVG 20010904//EN"
 "http://www.w3.org/TR/2001/REC-SVG-20010904/DTD/svg10.dtd">
<svg version="1.0" xmlns="http://www.w3.org/2000/svg"
 width="32.000000pt" height="32.000000pt" viewBox="0 0 32.000000 32.000000"
 preserveAspectRatio="xMidYMid meet">
<metadata>
Created by potrace 1.16, written by Peter Selinger 2001-2019
</metadata>
<g transform="translate(0.000000,32.000000) scale(0.100000,-0.100000)"
fill="#000000" stroke="none">
<path fill="#000000" stroke="none" d="M66 244 c-5 -14 -4 -15 9 -4 17 14 19
20 6 20 -5 0 -12 -7 -15 -16z"/>
<path fill="#000000" stroke="none" d="M184 213 c33 -28 51 -30 34 -4 -7 11
-16 17 -20 15 -4 -3 -8 -1 -8 4 0 5 -7 9 -17 9 -12 0 -9 -6 11 -24z"/>
<path fill="#000000" stroke="none" d="M128 3 c12 -2 30 -2 40 0 9 3 -1 5 -23
4 -22 0 -30 -2 -17 -4z"/>
<path fill="#000000" stroke="none" d="M213 3 c9 -2 23 -2 30 0 6 3 -1 5 -18
5 -16 0 -22 -2 -12 -5z"/>
</g>
</svg>
