<?xml version="1.0" standalone="no"?>
<!DOCTYPE svg PUBLIC "-//W3C//DTD SVG 20010904//EN"
 "http://www.w3.org/TR/2001/REC-SVG-20010904/DTD/svg10.dtd">
<svg version="1.0" xmlns="http://www.w3.org/2000/svg"
 width="32.000000pt" height="32.000000pt" viewBox="0 0 32.000000 32.000000"
 preserveAspectRatio="xMidYMid meet">
<metadata>
Created by potrace 1.16, written by Peter Selinger 2001-2019
</metadata>
<g transform="translate(0.000000,32.000000) scale(0.100000,-0.100000)"
fill="#000000" stroke="none">
<path fill="#000000" stroke="none" d="M295 313 c-38 -10 -47 -24 -29 -44 24
-27 35 -23 28 7 -5 19 -4 25 5 20 7 -5 11 -45 11 -117 0 -61 -4 -108 -8 -105
-4 2 -14 -9 -21 -25 -12 -28 -31 -40 -31 -19 0 6 -10 10 -22 10 -22 -1 -23 -1
-3 -13 17 -10 0 -13 -100 -17 l-120 -6 158 -2 157 -2 0 160 c0 88 -1 159 -2
159 -2 -1 -12 -4 -23 -6z"/>
<path fill="#000000" stroke="none" d="M10 220 c0 -79 2 -90 18 -90 16 -1 16
-1 0 -11 -27 -15 -22 -30 6 -19 13 5 27 6 32 2 4 -4 4 1 1 10 -3 9 -1 19 6 21
8 3 7 10 -5 24 -28 31 -22 36 34 30 40 -5 57 -13 75 -34 12 -16 30 -36 39 -45
12 -13 14 -21 6 -30 -8 -10 -4 -13 18 -13 25 -1 27 1 19 23 -5 13 -7 28 -3 33
3 5 0 9 -5 9 -6 0 -11 -5 -11 -11 0 -5 -5 -7 -10 -4 -5 3 -10 14 -10 24 0 10
-6 24 -14 30 -8 7 -14 24 -14 39 1 23 -10 90 -15 93 -1 0 -39 3 -84 5 l-83 5
0 -91z"/>
<path fill="#ffffff" stroke="none" d="M168 220 c7 -11 9 -20 4 -20 -4 0 -13
9 -20 20 -7 11 -9 20 -4 20 4 0 13 -9 20 -20z"/>
<path fill="#000000" stroke="none" d="M280 174 c0 -8 5 -12 10 -9 6 4 8 11 5
16 -9 14 -15 11 -15 -7z"/>
<path fill="#000000" stroke="none" d="M87 136 c-3 -8 1 -17 8 -20 20 -7 28 9
11 23 -10 9 -15 8 -19 -3z"/>
</g>
</svg>
