<?xml version="1.0" standalone="no"?>
<!DOCTYPE svg PUBLIC "-//W3C//DTD SVG 20010904//EN"
 "http://www.w3.org/TR/2001/REC-SVG-20010904/DTD/svg10.dtd">
<svg version="1.0" xmlns="http://www.w3.org/2000/svg"
 width="32.000000pt" height="32.000000pt" viewBox="0 0 32.000000 32.000000"
 preserveAspectRatio="xMidYMid meet">
<metadata>
Created by potrace 1.16, written by Peter Selinger 2001-2019
</metadata>
<g transform="translate(0.000000,32.000000) scale(0.100000,-0.100000)"
fill="#000000" stroke="none">
<path fill="#000000" stroke="none" d="M0 270 c0 -27 5 -50 10 -50 6 0 10 -8
10 -17 0 -16 -2 -16 -10 -3 -8 11 -10 -7 -8 -62 2 -61 6 -78 18 -78 12 -1 12
-3 -2 -14 -10 -7 -18 -21 -18 -30 0 -14 18 -16 160 -16 l160 0 0 160 c0 88 -3
160 -6 160 -3 0 -14 -5 -25 -10 -13 -7 -19 -7 -19 0 0 5 -4 10 -10 10 -5 0
-10 -7 -10 -15 0 -19 -16 -20 -23 -1 -3 7 -17 14 -32 14 -19 0 -25 -5 -21 -15
4 -9 1 -13 -6 -10 -7 2 -12 9 -11 14 1 5 -14 10 -33 11 -20 1 -32 -3 -29 -8 3
-6 1 -10 -4 -10 -6 0 -11 5 -11 10 0 6 -18 10 -40 10 l-40 0 0 -50z"/>
<path fill="#ffffff" stroke="none" d="M265 215 c-4 14 -3 17 5 9 6 -6 8 -18
4 -27 -5 -14 -8 -14 -20 -2 -8 7 -14 19 -14 26 0 8 7 5 16 -7 15 -19 16 -19 9
1z"/>
<path fill="#ffffff" stroke="none" d="M47 174 c-3 -3 -12 -4 -19 -1 -8 3 -5
6 6 6 11 1 17 -2 13 -5z"/>
<path fill="#ffffff" stroke="none" d="M273 75 c-7 -21 -13 -19 -13 6 0 11 4
18 10 14 5 -3 7 -12 3 -20z"/>
<path fill="#ffffff" stroke="none" d="M80 86 c0 -3 -4 -8 -10 -11 -5 -3 -10
-1 -10 4 0 6 5 11 10 11 6 0 10 -2 10 -4z"/>
<path fill="#ffffff" stroke="none" d="M173 69 c-4 -15 -8 -17 -14 -8 -8 14
-3 29 11 29 4 0 6 -9 3 -21z"/>
<path fill="#ffffff" stroke="none" d="M206 43 c-4 -4 -12 -1 -19 7 -9 10 -9
11 1 6 7 -4 12 -2 13 6 0 11 2 11 6 0 3 -7 2 -16 -1 -19z"/>
<path fill="#ffffff" stroke="none" d="M310 60 c0 -5 -2 -10 -4 -10 -3 0 -8 5
-11 10 -3 6 -1 10 4 10 6 0 11 -4 11 -10z"/>
<path fill="#ffffff" stroke="none" d="M245 50 c3 -5 -1 -10 -10 -10 -9 0 -13
5 -10 10 3 6 8 10 10 10 2 0 7 -4 10 -10z"/>
</g>
</svg>
