<?xml version="1.0" standalone="no"?>
<!DOCTYPE svg PUBLIC "-//W3C//DTD SVG 20010904//EN"
 "http://www.w3.org/TR/2001/REC-SVG-20010904/DTD/svg10.dtd">
<svg version="1.0" xmlns="http://www.w3.org/2000/svg"
 width="32.000000pt" height="32.000000pt" viewBox="0 0 32.000000 32.000000"
 preserveAspectRatio="xMidYMid meet">
<metadata>
Created by potrace 1.16, written by Peter Selinger 2001-2019
</metadata>
<g transform="translate(0.000000,32.000000) scale(0.100000,-0.100000)"
fill="#000000" stroke="none">
<path fill="#000000" stroke="none" d="M20 310 c0 -15 21 -23 32 -12 6 6 2 11
-11 15 -12 3 -21 1 -21 -3z"/>
<path fill="#000000" stroke="none" d="M300 313 c14 -7 13 -110 -2 -119 -6 -4
-14 -2 -16 5 -2 6 -15 24 -28 40 -14 17 -20 31 -14 37 6 6 5 15 0 24 -8 12
-10 10 -10 -7 0 -27 3 -27 -48 -9 -34 12 -43 12 -60 0 -19 -13 -22 -12 -32 3
-11 17 -11 17 -6 0 7 -23 -30 -60 -52 -53 -15 6 -16 5 -1 -6 11 -9 14 -19 8
-33 -4 -11 -8 -50 -8 -87 l-1 -68 125 0 125 0 0 68 c0 54 3 69 15 69 8 0 15
-9 15 -19 0 -11 -4 -16 -10 -13 -5 3 -10 -1 -10 -10 0 -9 5 -13 11 -10 7 5 9
-13 8 -54 -2 -44 -6 -61 -16 -61 -8 0 -12 4 -9 8 8 13 -55 14 -70 1 -11 -9
-21 -9 -40 -1 -19 9 -29 9 -44 0 -15 -10 -27 -10 -49 -1 -16 6 -33 7 -38 3 -4
-5 -17 -10 -28 -13 -11 -3 53 -5 143 -6 l163 -1 -3 157 c-2 117 -6 157 -16
159 -7 1 -8 0 -2 -3z"/>
<path fill="#ffffff" stroke="none" d="M140 245 c0 -2 -9 -3 -19 -2 -11 0 -18
5 -15 9 4 6 34 0 34 -7z"/>
<path fill="#ffffff" stroke="none" d="M170 234 c0 -8 -5 -12 -10 -9 -6 4 -8
11 -5 16 9 14 15 11 15 -7z"/>
<path fill="#ffffff" stroke="none" d="M238 219 c-16 -10 -33 5 -23 21 5 8 11
8 21 -1 12 -10 12 -14 2 -20z"/>
<path fill="#ffffff" stroke="none" d="M100 199 c0 -5 -4 -9 -10 -9 -5 0 -10
7 -10 16 0 8 5 12 10 9 6 -3 10 -10 10 -16z"/>
<path fill="#ffffff" stroke="none" d="M170 199 c0 -5 4 -7 10 -4 11 7 25 -39
15 -54 -3 -6 -14 -11 -23 -11 -15 1 -15 2 2 15 11 8 16 18 12 22 -4 4 -11 1
-17 -7 -8 -13 -10 -13 -18 0 -6 8 -13 11 -18 7 -4 -5 -2 -12 5 -16 7 -4 12
-14 10 -22 -2 -8 4 -13 16 -12 14 1 15 -2 6 -10 -9 -9 -16 -6 -31 12 -23 28
-24 54 -3 75 18 18 34 21 34 5z"/>
<path fill="#ffffff" stroke="none" d="M214 194 c3 -8 2 -12 -4 -9 -6 3 -10
10 -10 16 0 14 7 11 14 -7z"/>
<path fill="#ffffff" stroke="none" d="M270 154 c0 -8 -4 -12 -10 -9 -5 3 -10
10 -10 16 0 5 5 9 10 9 6 0 10 -7 10 -16z"/>
<path fill="#ffffff" stroke="none" d="M62 142 c-7 -2 -10 -8 -7 -12 3 -5 1
-11 -4 -14 -5 -4 -8 2 -6 11 2 10 4 22 4 26 1 5 6 5 13 1 9 -6 9 -9 0 -12z"/>
<path fill="#ffffff" stroke="none" d="M100 134 c0 -8 -5 -12 -10 -9 -6 4 -8
11 -5 16 9 14 15 11 15 -7z"/>
<path fill="#ffffff" stroke="none" d="M247 78 c-3 -8 -6 -5 -6 6 -1 11 2 17
5 13 3 -3 4 -12 1 -19z"/>
<path fill="#ffffff" stroke="none" d="M225 80 c-3 -5 -12 -10 -18 -10 -7 0
-6 4 3 10 19 12 23 12 15 0z"/>
<path fill="#ffffff" stroke="none" d="M108 71 c11 -7 11 -9 -1 -14 -9 -3 -18
1 -21 9 -6 16 2 18 22 5z"/>
<path fill="#ffffff" stroke="none" d="M169 51 c-15 -5 -22 6 -14 19 6 9 10 9
16 -1 5 -8 4 -15 -2 -18z"/>
</g>
</svg>
