<?xml version="1.0" standalone="no"?>
<!DOCTYPE svg PUBLIC "-//W3C//DTD SVG 20010904//EN"
 "http://www.w3.org/TR/2001/REC-SVG-20010904/DTD/svg10.dtd">
<svg version="1.0" xmlns="http://www.w3.org/2000/svg"
 width="32.000000pt" height="32.000000pt" viewBox="0 0 32.000000 32.000000"
 preserveAspectRatio="xMidYMid meet">
<metadata>
Created by potrace 1.16, written by Peter Selinger 2001-2019
</metadata>
<g transform="translate(0.000000,32.000000) scale(0.100000,-0.100000)"
fill="#000000" stroke="none">
<path fill="#000000" stroke="none" d="M20 310 c0 -15 21 -23 32 -12 6 6 2 11
-11 15 -12 3 -21 1 -21 -3z"/>
<path fill="#000000" stroke="none" d="M300 313 c14 -7 13 -110 -2 -119 -6 -4
-14 -2 -16 5 -2 6 -15 24 -28 40 -17 21 -20 31 -12 39 9 9 9 12 1 12 -6 0 -13
-5 -15 -10 -2 -7 -18 -6 -45 4 -35 12 -44 12 -61 0 -19 -13 -22 -12 -32 3 -11
17 -11 17 -6 0 7 -23 -30 -60 -52 -53 -15 6 -16 5 -1 -6 11 -9 14 -19 8 -33
-4 -11 -8 -50 -8 -87 l-1 -68 125 0 125 0 0 68 c0 54 3 69 15 69 8 0 15 -9 15
-19 0 -11 -4 -16 -10 -13 -5 3 -10 -1 -10 -10 0 -9 5 -13 11 -10 7 5 9 -13 8
-54 -2 -44 -6 -61 -16 -61 -8 0 -12 4 -9 8 8 13 -55 14 -70 1 -11 -9 -21 -9
-40 -1 -19 9 -29 9 -44 0 -15 -10 -27 -10 -49 -1 -16 6 -33 7 -38 3 -4 -5 -17
-10 -28 -13 -11 -3 53 -5 143 -6 l163 -1 -3 157 c-2 117 -6 157 -16 159 -7 1
-8 0 -2 -3z"/>
<path fill="#ffffff" stroke="none" d="M246 223 c-7 -7 -26 7 -26 19 0 6 6 6
15 -2 9 -7 13 -15 11 -17z"/>
<path fill="#ffffff" stroke="none" d="M137 146 c-3 -14 -5 -10 -6 12 0 17 -6
32 -12 32 -5 0 -7 6 -3 13 6 10 4 10 -7 0 -17 -17 -26 -16 -26 2 0 8 3 12 7
10 3 -2 12 0 20 5 12 7 17 2 23 -21 4 -17 6 -41 4 -53z"/>
<path fill="#ffffff" stroke="none" d="M157 143 c-3 -10 -5 -2 -5 17 0 19 2
27 5 18 2 -10 2 -26 0 -35z"/>
<path fill="#ffffff" stroke="none" d="M177 143 c-3 -10 -5 -2 -5 17 0 19 2
27 5 18 2 -10 2 -26 0 -35z"/>
<path fill="#ffffff" stroke="none" d="M270 154 c0 -8 -4 -12 -10 -9 -5 3 -10
10 -10 16 0 5 5 9 10 9 6 0 10 -7 10 -16z"/>
<path fill="#ffffff" stroke="none" d="M62 142 c-7 -2 -10 -8 -7 -12 3 -5 1
-11 -4 -14 -5 -4 -8 2 -6 11 2 10 4 22 4 26 1 5 6 5 13 1 9 -6 9 -9 0 -12z"/>
<path fill="#ffffff" stroke="none" d="M117 138 c-3 -8 -6 -5 -6 6 -1 11 2 17
5 13 3 -3 4 -12 1 -19z"/>
<path fill="#ffffff" stroke="none" d="M197 128 c-3 -8 -6 -5 -6 6 -1 11 2 17
5 13 3 -3 4 -12 1 -19z"/>
<path fill="#ffffff" stroke="none" d="M235 141 c3 -5 1 -12 -5 -16 -5 -3 -10
1 -10 9 0 18 6 21 15 7z"/>
<path fill="#ffffff" stroke="none" d="M140 105 c0 6 9 11 20 12 11 1 20 -4
20 -13 0 -9 -11 -14 -30 -14 -22 0 -30 5 -30 18 0 14 2 15 10 2 5 -8 10 -10
10 -5z"/>
<path fill="#ffffff" stroke="none" d="M247 78 c-3 -8 -6 -5 -6 6 -1 11 2 17
5 13 3 -3 4 -12 1 -19z"/>
<path fill="#ffffff" stroke="none" d="M173 73 c-7 -2 -19 -2 -25 0 -7 3 -2 5
12 5 14 0 19 -2 13 -5z"/>
<path fill="#ffffff" stroke="none" d="M110 66 c0 -3 -4 -8 -10 -11 -5 -3 -10
-1 -10 4 0 6 5 11 10 11 6 0 10 -2 10 -4z"/>
<path fill="#ffffff" stroke="none" d="M177 54 c-3 -3 -12 -4 -19 -1 -8 3 -5
6 6 6 11 1 17 -2 13 -5z"/>
</g>
</svg>
