<?xml version="1.0" standalone="no"?>
<!DOCTYPE svg PUBLIC "-//W3C//DTD SVG 20010904//EN"
 "http://www.w3.org/TR/2001/REC-SVG-20010904/DTD/svg10.dtd">
<svg version="1.0" xmlns="http://www.w3.org/2000/svg"
 width="32.000000pt" height="32.000000pt" viewBox="0 0 32.000000 32.000000"
 preserveAspectRatio="xMidYMid meet">
<metadata>
Created by potrace 1.16, written by Peter Selinger 2001-2019
</metadata>
<g transform="translate(0.000000,32.000000) scale(0.100000,-0.100000)"
fill="#000000" stroke="none">
<path fill="#000000" stroke="none" d="M0 165 c0 -147 1 -155 19 -155 11 0 22
4 25 9 4 5 19 5 36 -2 23 -9 35 -9 50 1 15 9 25 9 45 0 19 -9 28 -9 37 0 7 7
23 12 37 12 21 0 23 -2 11 -10 -8 -5 -10 -10 -4 -10 5 0 16 6 23 13 11 9 13 9
7 0 -4 -8 -1 -13 7 -13 10 0 14 17 16 61 1 41 -1 59 -8 54 -6 -3 -11 1 -11 10
0 9 5 13 10 10 6 -3 10 2 10 13 0 10 -7 19 -15 19 -12 0 -15 -15 -15 -69 l0
-68 -125 0 -125 0 1 68 c0 37 4 76 8 87 6 14 3 24 -8 33 -15 11 -14 12 1 6 22
-7 59 30 52 53 -5 17 -5 17 6 0 10 -15 13 -16 32 -3 17 12 26 12 60 0 51 -18
48 -18 48 9 0 17 2 19 10 7 5 -9 6 -18 0 -24 -6 -6 1 -21 15 -38 14 -16 25
-34 25 -40 0 -5 6 -8 13 -6 7 3 14 29 17 65 l5 60 -145 1 c-80 1 -136 -2 -126
-7 15 -6 17 -9 6 -16 -8 -5 -17 -2 -25 8 -7 10 -15 17 -19 17 -3 0 -6 -70 -6
-155z"/>
<path fill="#000000" stroke="none" d="M106 252 c-3 -4 4 -9 15 -9 23 -2 25 3
4 10 -8 4 -16 3 -19 -1z"/>
<path fill="#000000" stroke="none" d="M155 241 c-3 -5 -1 -12 5 -16 5 -3 10
1 10 9 0 18 -6 21 -15 7z"/>
<path fill="#000000" stroke="none" d="M215 240 c-10 -16 7 -31 23 -21 10 6
10 10 -2 20 -10 9 -16 9 -21 1z"/>
<path fill="#000000" stroke="none" d="M80 206 c0 -9 5 -16 10 -16 6 0 10 4
10 9 0 6 -4 13 -10 16 -5 3 -10 -1 -10 -9z"/>
<path fill="#000000" stroke="none" d="M136 194 c-21 -21 -20 -47 3 -75 15
-18 22 -21 31 -12 9 8 8 11 -6 10 -12 -1 -18 4 -16 12 2 8 -3 18 -10 22 -7 4
-9 11 -5 16 5 4 12 1 18 -7 8 -13 10 -13 18 0 6 8 13 11 17 7 4 -4 -1 -14 -12
-22 -17 -13 -17 -14 -2 -15 9 0 20 5 23 11 10 15 -4 61 -15 54 -6 -3 -10 -1
-10 4 0 16 -16 13 -34 -5z"/>
<path fill="#000000" stroke="none" d="M200 201 c0 -6 4 -13 10 -16 6 -3 7 1
4 9 -7 18 -14 21 -14 7z"/>
<path fill="#000000" stroke="none" d="M250 161 c0 -6 5 -13 10 -16 6 -3 10 1
10 9 0 9 -4 16 -10 16 -5 0 -10 -4 -10 -9z"/>
<path fill="#000000" stroke="none" d="M49 153 c0 -4 -2 -16 -4 -26 -2 -9 1
-15 6 -11 5 3 7 9 4 14 -3 4 0 10 7 12 9 3 9 6 0 12 -7 4 -12 4 -13 -1z"/>
<path fill="#000000" stroke="none" d="M85 141 c-3 -5 -1 -12 5 -16 5 -3 10 1
10 9 0 18 -6 21 -15 7z"/>
<path fill="#000000" stroke="none" d="M241 84 c0 -11 3 -14 6 -6 3 7 2 16 -1
19 -3 4 -6 -2 -5 -13z"/>
<path fill="#000000" stroke="none" d="M210 80 c-9 -6 -10 -10 -3 -10 6 0 15
5 18 10 8 12 4 12 -15 0z"/>
<path fill="#000000" stroke="none" d="M86 66 c3 -8 12 -12 21 -9 12 5 12 7 1
14 -20 13 -28 11 -22 -5z"/>
<path fill="#000000" stroke="none" d="M155 70 c-8 -13 -1 -24 14 -19 6 3 7
10 2 18 -6 10 -10 10 -16 1z"/>
</g>
</svg>
