<?xml version="1.0" standalone="no"?>
<!DOCTYPE svg PUBLIC "-//W3C//DTD SVG 20010904//EN"
 "http://www.w3.org/TR/2001/REC-SVG-20010904/DTD/svg10.dtd">
<svg version="1.0" xmlns="http://www.w3.org/2000/svg"
 width="32.000000pt" height="32.000000pt" viewBox="0 0 32.000000 32.000000"
 preserveAspectRatio="xMidYMid meet">
<metadata>
Created by potrace 1.16, written by Peter Selinger 2001-2019
</metadata>
<g transform="translate(0.000000,32.000000) scale(0.100000,-0.100000)"
fill="#000000" stroke="none">
<path fill="#000000" stroke="none" d="M48 313 c6 -2 18 -2 25 0 6 3 1 5 -13
5 -14 0 -19 -2 -12 -5z"/>
<path fill="#000000" stroke="none" d="M90 304 c0 -9 5 -14 12 -12 18 6 21 28
4 28 -9 0 -16 -7 -16 -16z"/>
<path fill="#000000" stroke="none" d="M186 306 c10 -8 21 -11 24 -8 3 4 9 10
14 15 5 4 -6 7 -24 7 -32 0 -33 -1 -14 -14z"/>
<path fill="#000000" stroke="none" d="M1 271 c-1 -24 2 -32 9 -25 7 7 7 19 1
35 -9 23 -10 22 -10 -10z"/>
<path fill="#000000" stroke="none" d="M45 269 c-10 -15 3 -25 16 -12 7 7 7
13 1 17 -6 3 -14 1 -17 -5z"/>
<path fill="#000000" stroke="none" d="M279 246 c12 -24 18 -29 22 -18 3 9 -1
24 -10 34 -24 28 -30 21 -12 -16z"/>
<path fill="#000000" stroke="none" d="M1 194 c0 -11 3 -14 6 -6 3 7 2 16 -1
19 -3 4 -6 -2 -5 -13z"/>
<path fill="#000000" stroke="none" d="M0 95 c0 -8 4 -15 10 -15 5 0 7 7 4 15
-4 8 -8 15 -10 15 -2 0 -4 -7 -4 -15z"/>
<path fill="#000000" stroke="none" d="M283 77 c0 -18 2 -23 4 -13 4 15 7 16
14 5 7 -11 9 -11 9 -1 0 7 -6 20 -14 27 -11 11 -13 8 -13 -18z"/>
<path fill="#000000" stroke="none" d="M1 43 c-1 -24 13 -31 25 -11 4 6 3 8
-4 4 -6 -3 -13 2 -15 11 -4 14 -5 13 -6 -4z"/>
<path fill="#000000" stroke="none" d="M103 33 c20 -2 54 -2 75 0 20 2 3 4
-38 4 -41 0 -58 -2 -37 -4z"/>
</g>
</svg>
