<?xml version="1.0" standalone="no"?>
<!DOCTYPE svg PUBLIC "-//W3C//DTD SVG 20010904//EN"
 "http://www.w3.org/TR/2001/REC-SVG-20010904/DTD/svg10.dtd">
<svg version="1.0" xmlns="http://www.w3.org/2000/svg"
 width="32.000000pt" height="32.000000pt" viewBox="0 0 32.000000 32.000000"
 preserveAspectRatio="xMidYMid meet">
<metadata>
Created by potrace 1.16, written by Peter Selinger 2001-2019
</metadata>
<g transform="translate(0.000000,32.000000) scale(0.100000,-0.100000)"
fill="#000000" stroke="none">
<path fill="#000000" stroke="none" d="M0 165 c0 -147 1 -155 19 -155 11 0 23
5 26 10 4 7 12 7 25 0 10 -5 29 -10 42 -10 22 0 21 1 -6 15 -15 8 -39 15 -52
15 -23 0 -24 3 -23 68 0 37 4 76 8 87 6 14 3 24 -8 33 -15 11 -14 12 1 6 22
-7 59 30 52 53 -5 17 -5 17 6 0 10 -15 13 -16 32 -3 17 12 25 12 61 0 45 -16
57 -12 41 14 -9 14 -29 17 -105 19 -53 1 -85 -1 -75 -6 15 -6 17 -9 6 -16 -8
-5 -17 -2 -25 8 -7 10 -15 17 -19 17 -3 0 -6 -70 -6 -155z"/>
<path fill="#000000" stroke="none" d="M243 301 c3 -12 1 -24 -4 -27 -6 -3 -5
-12 2 -21 11 -12 14 -12 21 2 6 10 16 14 29 10 18 -6 20 -3 17 22 -3 24 -8 28
-37 31 -30 3 -33 1 -28 -17z"/>
<path fill="#000000" stroke="none" d="M122 240 c5 -16 30 -21 49 -9 11 7 11
9 -3 9 -9 0 -24 3 -34 7 -11 4 -15 2 -12 -7z"/>
<path fill="#000000" stroke="none" d="M220 242 c0 -12 19 -26 26 -19 2 2 -2
10 -11 17 -9 8 -15 8 -15 2z"/>
<path fill="#000000" stroke="none" d="M282 227 c-13 -15 1 -42 17 -33 13 8
15 46 2 46 -5 0 -13 -6 -19 -13z"/>
<path fill="#000000" stroke="none" d="M90 210 c-8 -26 -7 -41 2 -32 6 6 8 16
5 24 -3 7 -6 11 -7 8z"/>
<path fill="#000000" stroke="none" d="M250 189 c0 -5 5 -7 10 -4 6 3 10 8 10
11 0 2 -4 4 -10 4 -5 0 -10 -5 -10 -11z"/>
<path fill="#000000" stroke="none" d="M107 183 c-12 -11 -8 -30 7 -30 8 0 11
8 8 19 -5 20 -6 21 -15 11z"/>
<path fill="#000000" stroke="none" d="M280 158 c0 -17 2 -18 15 -4 8 8 15 16
15 19 0 2 -7 4 -15 4 -8 0 -15 -9 -15 -19z"/>
<path fill="#000000" stroke="none" d="M160 148 c0 -10 2 -18 5 -18 2 0 9 8
14 18 8 14 6 19 -5 19 -7 0 -14 -9 -14 -19z"/>
<path fill="#000000" stroke="none" d="M255 160 c3 -5 8 -10 11 -10 2 0 4 5 4
10 0 6 -5 10 -11 10 -5 0 -7 -4 -4 -10z"/>
<path fill="#000000" stroke="none" d="M49 153 c0 -4 -2 -16 -4 -26 -2 -9 1
-15 6 -11 5 3 7 9 4 14 -3 4 0 10 7 12 9 3 9 6 0 12 -7 4 -12 4 -13 -1z"/>
<path fill="#000000" stroke="none" d="M208 126 c-16 -12 -16 -15 -2 -32 9
-10 12 -13 9 -6 -4 7 1 22 11 33 19 22 8 25 -18 5z"/>
<path fill="#000000" stroke="none" d="M290 120 c-13 -9 -13 -11 0 -20 15 -10
25 0 18 20 -2 6 -8 6 -18 0z"/>
<path fill="#000000" stroke="none" d="M86 107 c3 -10 9 -15 12 -12 3 3 0 11
-7 18 -10 9 -11 8 -5 -6z"/>
<path fill="#000000" stroke="none" d="M160 65 c-10 -12 -10 -15 4 -15 9 0 16
7 16 15 0 8 -2 15 -4 15 -2 0 -9 -7 -16 -15z"/>
<path fill="#000000" stroke="none" d="M280 56 c0 -9 -8 -16 -20 -16 -21 0
-27 -15 -10 -25 6 -4 18 -1 27 7 12 9 15 9 9 1 -4 -8 -2 -13 7 -13 18 0 17 52
0 58 -7 2 -13 -3 -13 -12z"/>
<path fill="#000000" stroke="none" d="M145 30 c-4 -6 -3 -9 2 -8 4 1 19 -2
32 -6 16 -6 28 -3 39 8 15 15 13 16 -25 16 -23 0 -45 -5 -48 -10z"/>
</g>
</svg>
