<?xml version="1.0" standalone="no"?>
<!DOCTYPE svg PUBLIC "-//W3C//DTD SVG 20010904//EN"
 "http://www.w3.org/TR/2001/REC-SVG-20010904/DTD/svg10.dtd">
<svg version="1.0" xmlns="http://www.w3.org/2000/svg"
 width="32.000000pt" height="32.000000pt" viewBox="0 0 32.000000 32.000000"
 preserveAspectRatio="xMidYMid meet">
<metadata>
Created by potrace 1.16, written by Peter Selinger 2001-2019
</metadata>
<g transform="translate(0.000000,32.000000) scale(0.100000,-0.100000)"
fill="#000000" stroke="none">
<path fill="#000000" stroke="none" d="M300 313 c14 -7 13 -110 -2 -119 -6 -4
-14 -2 -16 5 -2 6 -15 25 -28 41 -14 16 -20 31 -15 35 6 3 8 12 4 20 -8 22
-22 18 -16 -5 6 -24 6 -24 -45 -6 -34 12 -43 12 -60 0 -19 -13 -22 -12 -32 3
-11 17 -11 17 -6 0 7 -23 -30 -60 -52 -53 -15 6 -16 5 -1 -6 11 -9 14 -19 8
-33 -4 -11 -8 -50 -8 -87 l-1 -68 125 0 125 0 0 56 c0 31 -4 53 -9 49 -13 -7
-24 12 -15 26 4 8 9 7 15 -2 5 -8 9 -9 9 -3 0 6 7 11 15 11 8 0 15 -9 15 -19
0 -11 -4 -16 -10 -13 -5 3 -10 -1 -10 -10 0 -9 5 -13 11 -10 7 5 9 -13 8 -54
-2 -44 -6 -61 -16 -61 -8 0 -12 4 -9 8 8 13 -55 14 -70 1 -11 -9 -21 -9 -40
-1 -19 9 -29 9 -44 0 -15 -10 -27 -10 -49 -1 -16 6 -33 7 -38 3 -4 -5 -17 -10
-28 -13 -11 -3 53 -5 143 -6 l163 -1 -3 157 c-2 117 -6 157 -16 159 -7 1 -8 0
-2 -3z"/>
<path fill="#ffffff" stroke="none" d="M150 245 c0 -2 -7 -5 -15 -9 -9 -3 -15
0 -15 9 0 9 6 12 15 9 8 -4 15 -7 15 -9z"/>
<path fill="#ffffff" stroke="none" d="M246 229 c14 -15 15 -20 4 -17 -16 3
-30 18 -30 31 0 11 6 8 26 -14z"/>
<path fill="#ffffff" stroke="none" d="M207 198 c29 -27 29 -55 1 -85 -27 -29
-65 -29 -95 -1 -29 27 -29 55 -1 85 27 29 65 29 95 1z"/>
<path fill="#ffffff" stroke="none" d="M62 142 c-7 -2 -10 -8 -7 -12 3 -5 1
-11 -4 -14 -5 -4 -8 2 -6 11 2 10 4 22 4 26 1 5 6 5 13 1 9 -6 9 -9 0 -12z"/>
<path fill="#ffffff" stroke="none" d="M243 90 c3 6 5 6 3 -1 -3 -17 -33 -20
-33 -3 0 10 4 11 13 3 8 -7 14 -6 17 1z"/>
<path fill="#ffffff" stroke="none" d="M98 55 c-3 -3 -9 2 -12 12 -6 14 -5 15
5 6 7 -7 10 -15 7 -18z"/>
<path fill="#ffffff" stroke="none" d="M175 69 c10 -15 -1 -23 -20 -15 -9 3
-13 10 -10 16 8 13 22 13 30 -1z"/>
<path fill="#000000" stroke="none" d="M114 189 c-16 -18 -16 -19 4 -19 14 0
22 6 22 17 0 15 2 14 15 -3 14 -19 14 -19 15 1 1 18 1 19 11 3 5 -10 17 -18
27 -18 15 0 15 1 -1 17 -24 24 -72 25 -93 2z"/>
<path fill="#000000" stroke="none" d="M105 150 c-3 -5 -3 -15 1 -21 6 -11 23
6 24 24 0 10 -18 9 -25 -3z"/>
<path fill="#000000" stroke="none" d="M137 138 c-7 -27 -1 -38 22 -38 24 0
29 7 23 35 -6 31 -37 33 -45 3z"/>
<path fill="#ffffff" stroke="none" d="M173 127 c3 -7 -3 -13 -14 -13 -13 0
-15 3 -7 13 6 7 12 13 13 13 2 0 5 -6 8 -13z"/>
<path fill="#000000" stroke="none" d="M190 153 c1 -18 18 -35 24 -24 4 6 4
16 1 21 -7 12 -25 13 -25 3z"/>
<path fill="#000000" stroke="none" d="M28 298 c9 -9 15 -9 24 0 9 9 7 12 -12
12 -19 0 -21 -3 -12 -12z"/>
</g>
</svg>
