<?xml version="1.0" standalone="no"?>
<!DOCTYPE svg PUBLIC "-//W3C//DTD SVG 20010904//EN"
 "http://www.w3.org/TR/2001/REC-SVG-20010904/DTD/svg10.dtd">
<svg version="1.0" xmlns="http://www.w3.org/2000/svg"
 width="32.000000pt" height="32.000000pt" viewBox="0 0 32.000000 32.000000"
 preserveAspectRatio="xMidYMid meet">
<metadata>
Created by potrace 1.16, written by Peter Selinger 2001-2019
</metadata>
<g transform="translate(0.000000,32.000000) scale(0.100000,-0.100000)"
fill="#000000" stroke="none">
<path fill="#000000" stroke="none" d="M0 160 l0 -160 160 0 160 0 0 91 c0 49
-4 88 -8 85 -9 -5 -7 92 2 122 6 17 4 21 -8 16 -9 -3 -13 -10 -10 -15 6 -10
11 -10 -134 -12 -118 -2 -135 -9 -125 -47 3 -10 0 -27 -6 -37 -9 -16 -11 -14
-12 12 0 17 0 47 1 68 1 21 -3 37 -9 37 -7 0 -11 -52 -11 -160z"/>
<path fill="#ffffff" stroke="none" d="M42 102 c-5 -13 -8 -11 -12 13 -4 17
-4 34 -2 39 9 16 22 -33 14 -52z"/>
<path fill="#ffffff" stroke="none" d="M39 39 c-16 -10 -23 -4 -14 10 3 6 11
8 17 5 6 -4 5 -9 -3 -15z"/>
<path fill="#000000" stroke="none" d="M223 313 c9 -2 25 -2 35 0 9 3 1 5 -18
5 -19 0 -27 -2 -17 -5z"/>
</g>
</svg>
