<?xml version="1.0" standalone="no"?>
<!DOCTYPE svg PUBLIC "-//W3C//DTD SVG 20010904//EN"
 "http://www.w3.org/TR/2001/REC-SVG-20010904/DTD/svg10.dtd">
<svg version="1.0" xmlns="http://www.w3.org/2000/svg"
 width="32.000000pt" height="32.000000pt" viewBox="0 0 32.000000 32.000000"
 preserveAspectRatio="xMidYMid meet">
<metadata>
Created by potrace 1.16, written by Peter Selinger 2001-2019
</metadata>
<g transform="translate(0.000000,32.000000) scale(0.100000,-0.100000)"
fill="#000000" stroke="none">
<path fill="#000000" stroke="none" d="M0 160 l0 -160 161 0 160 0 -2 160 -2
160 -106 -2 c-87 -2 -93 -3 -31 -5 92 -4 129 -11 111 -22 -7 -5 -60 -7 -117
-5 -118 3 -130 -3 -128 -60 1 -20 -2 -39 -7 -42 -5 -3 -6 -16 -3 -29 3 -13 1
-32 -5 -42 -8 -13 -10 8 -8 87 l2 105 40 6 c39 6 39 6 -12 8 l-53 1 0 -160z"/>
<path fill="#ffffff" stroke="none" d="M90 246 c0 -2 -7 -6 -15 -10 -8 -3 -15
-1 -15 4 0 6 7 10 15 10 8 0 15 -2 15 -4z"/>
<path fill="#ffffff" stroke="none" d="M148 220 c11 -18 10 -20 -8 -20 -11 0
-20 -4 -20 -9 0 -21 -27 -17 -44 7 -17 22 -17 25 -3 19 21 -8 49 2 41 14 -3 5
1 9 8 9 7 0 19 -9 26 -20z"/>
<path fill="#ffffff" stroke="none" d="M170 160 c0 -5 -4 -10 -9 -10 -6 0 -13
5 -16 10 -3 6 1 10 9 10 9 0 16 -4 16 -10z"/>
<path fill="#ffffff" stroke="none" d="M107 134 c-9 -9 -28 6 -21 18 4 6 10 6
17 -1 6 -6 8 -13 4 -17z"/>
<path fill="#ffffff" stroke="none" d="M158 48 c-2 -6 -10 -14 -16 -16 -7 -2
-10 2 -6 12 7 18 28 22 22 4z"/>
</g>
</svg>
