<?xml version="1.0" standalone="no"?>
<!DOCTYPE svg PUBLIC "-//W3C//DTD SVG 20010904//EN"
 "http://www.w3.org/TR/2001/REC-SVG-20010904/DTD/svg10.dtd">
<svg version="1.0" xmlns="http://www.w3.org/2000/svg"
 width="32.000000pt" height="32.000000pt" viewBox="0 0 32.000000 32.000000"
 preserveAspectRatio="xMidYMid meet">
<metadata>
Created by potrace 1.16, written by Peter Selinger 2001-2019
</metadata>
<g transform="translate(0.000000,32.000000) scale(0.100000,-0.100000)"
fill="#000000" stroke="none">
<path fill="#000000" stroke="none" d="M0 162 l0 -162 160 0 160 0 0 163 c-1
130 -3 159 -13 146 -9 -12 -30 -16 -77 -17 -98 -1 -102 -1 -95 -12 10 -16 -17
-12 -36 6 -13 12 -19 12 -25 3 -4 -7 -3 -10 4 -5 6 3 13 2 17 -4 3 -5 -1 -10
-10 -10 -15 0 -24 -13 -29 -42 -1 -7 -6 -19 -10 -27 -11 -18 -15 -81 -5 -81 4
0 10 12 12 28 l4 27 2 -27 c0 -15 -5 -33 -12 -40 -8 -7 -13 -22 -11 -33 2 -10
-1 -26 -6 -34 -12 -20 -10 -31 -16 134 -3 77 -8 142 -10 144 -2 2 -4 -68 -4
-157z"/>
<path fill="#ffffff" stroke="none" d="M280 271 c0 -4 -11 -6 -25 -3 -14 2
-25 6 -25 8 0 2 11 4 25 4 14 0 25 -4 25 -9z"/>
<path fill="#ffffff" stroke="none" d="M274 79 c-3 -5 -10 -7 -15 -3 -5 3 -7
10 -3 15 3 5 10 7 15 3 5 -3 7 -10 3 -15z"/>
<path fill="#ffffff" stroke="none" d="M100 66 c22 1 40 -2 40 -7 0 -4 -20 -8
-45 -7 -39 0 -45 3 -44 22 1 14 3 16 6 5 3 -11 15 -15 43 -13z"/>
<path fill="#ffffff" stroke="none" d="M251 63 c12 -16 12 -17 -2 -6 -9 7 -20
9 -24 5 -5 -4 -5 -1 -1 6 9 16 11 15 27 -5z"/>
<path fill="#000000" stroke="none" d="M39 258 c-6 -23 -7 -48 -1 -48 4 0 8
11 8 25 0 21 -4 33 -7 23z"/>
</g>
</svg>
