<?xml version="1.0" standalone="no"?>
<!DOCTYPE svg PUBLIC "-//W3C//DTD SVG 20010904//EN"
 "http://www.w3.org/TR/2001/REC-SVG-20010904/DTD/svg10.dtd">
<svg version="1.0" xmlns="http://www.w3.org/2000/svg"
 width="32.000000pt" height="32.000000pt" viewBox="0 0 32.000000 32.000000"
 preserveAspectRatio="xMidYMid meet">
<metadata>
Created by potrace 1.16, written by Peter Selinger 2001-2019
</metadata>
<g transform="translate(0.000000,32.000000) scale(0.100000,-0.100000)"
fill="#000000" stroke="none">
<path fill="#000000" stroke="none" d="M10 171 c0 -125 2 -150 15 -155 10 -4
19 2 25 17 9 22 9 22 10 -3 1 -14 4 -19 7 -12 4 10 8 10 19 1 8 -6 14 -7 14
-2 0 5 15 10 33 10 17 1 50 1 72 2 22 1 56 -2 76 -5 l36 -6 1 151 1 151 -155
0 -154 0 0 -149z"/>
<path fill="#ffffff" stroke="none" d="M75 100 c-5 -8 7 -1 29 15 35 27 39 28
51 12 8 -12 18 -15 31 -10 19 8 31 33 16 33 -4 0 -8 10 -9 22 -2 18 0 19 12 7
18 -18 29 -79 15 -79 -6 0 -8 -5 -5 -10 4 -7 -20 -10 -70 -8 -42 1 -79 6 -82
12 -4 5 -1 12 5 14 7 2 8 11 2 27 -5 12 -6 33 -2 46 6 20 8 16 12 -21 3 -25 1
-52 -5 -60z"/>
</g>
</svg>
