<?xml version="1.0" standalone="no"?>
<!DOCTYPE svg PUBLIC "-//W3C//DTD SVG 20010904//EN"
 "http://www.w3.org/TR/2001/REC-SVG-20010904/DTD/svg10.dtd">
<svg version="1.0" xmlns="http://www.w3.org/2000/svg"
 width="32.000000pt" height="32.000000pt" viewBox="0 0 32.000000 32.000000"
 preserveAspectRatio="xMidYMid meet">
<metadata>
Created by potrace 1.16, written by Peter Selinger 2001-2019
</metadata>
<g transform="translate(0.000000,32.000000) scale(0.100000,-0.100000)"
fill="#000000" stroke="none">
<path fill="#000000" stroke="none" d="M2 163 l-2 -163 160 0 c88 0 160 3 160
8 0 4 -70 6 -155 4 l-154 -2 -4 157 -3 158 -2 -162z"/>
<path fill="#000000" stroke="none" d="M156 251 c5 -5 29 -5 54 -1 l45 7 -54
2 c-33 0 -51 -3 -45 -8z"/>
<path fill="#000000" stroke="none" d="M224 184 c3 -9 6 -19 6 -22 0 -9 20 21
20 31 0 4 -7 7 -16 7 -11 0 -14 -5 -10 -16z"/>
</g>
</svg>
