<?xml version="1.0" standalone="no"?>
<!DOCTYPE svg PUBLIC "-//W3C//DTD SVG 20010904//EN"
 "http://www.w3.org/TR/2001/REC-SVG-20010904/DTD/svg10.dtd">
<svg version="1.0" xmlns="http://www.w3.org/2000/svg"
 width="32.000000pt" height="32.000000pt" viewBox="0 0 32.000000 32.000000"
 preserveAspectRatio="xMidYMid meet">
<metadata>
Created by potrace 1.16, written by Peter Selinger 2001-2019
</metadata>
<g transform="translate(0.000000,32.000000) scale(0.100000,-0.100000)"
fill="#000000" stroke="none">
<path fill="#000000" stroke="none" d="M10 170 c0 -128 2 -150 15 -150 9 0 18
7 21 15 6 16 49 21 58 7 7 -12 66 -13 66 -1 0 16 29 10 39 -8 10 -17 10 -17
11 0 0 10 5 15 10 12 6 -4 8 -11 5 -16 -6 -8 5 -11 40 -11 30 0 34 2 29 17 -4
8 -10 12 -15 9 -5 -3 -9 -1 -9 4 0 6 7 13 16 16 8 3 12 2 9 -3 -3 -5 -1 -12 5
-16 6 -4 10 7 10 26 0 26 -2 29 -14 20 -9 -7 -17 -8 -20 -2 -3 5 0 12 6 15 10
5 10 7 1 12 -18 8 -16 31 2 38 8 3 14 9 14 13 -1 4 1 15 5 24 4 9 6 41 4 70
l-3 54 -152 3 -153 3 0 -151z"/>
<path fill="#ffffff" stroke="none" d="M120 262 c0 -13 -12 -22 -22 -16 -10 6
-1 24 13 24 5 0 9 -4 9 -8z"/>
<path fill="#ffffff" stroke="none" d="M247 256 c4 -3 1 -6 -6 -6 -8 0 -9 -6
-3 -17 13 -28 14 -141 1 -149 -8 -5 -9 -3 -4 7 8 12 6 12 -8 0 -13 -10 -17
-10 -17 -1 0 8 -4 9 -12 3 -21 -16 -74 -14 -88 2 -16 19 -30 19 -30 1 0 -8 -5
-18 -11 -21 -7 -5 -10 14 -8 56 3 71 8 87 19 69 6 -10 15 -9 39 3 l31 16 -20
-26 c-26 -33 -26 -63 -1 -63 10 0 21 -7 25 -15 6 -17 36 -21 36 -4 0 5 5 7 12
3 7 -5 9 -2 5 9 -3 9 0 18 9 21 8 3 14 13 14 23 0 13 -3 14 -8 5 -7 -10 -14
-8 -31 7 -24 21 -25 29 -9 49 8 9 3 14 -21 18 -17 4 -28 10 -26 15 6 9 103 5
112 -5z"/>
</g>
</svg>
