<?xml version="1.0" standalone="no"?>
<!DOCTYPE svg PUBLIC "-//W3C//DTD SVG 20010904//EN"
 "http://www.w3.org/TR/2001/REC-SVG-20010904/DTD/svg10.dtd">
<svg version="1.0" xmlns="http://www.w3.org/2000/svg"
 width="32.000000pt" height="32.000000pt" viewBox="0 0 32.000000 32.000000"
 preserveAspectRatio="xMidYMid meet">
<metadata>
Created by potrace 1.16, written by Peter Selinger 2001-2019
</metadata>
<g transform="translate(0.000000,32.000000) scale(0.100000,-0.100000)"
fill="#000000" stroke="none">
<path fill="#000000" stroke="none" d="M10 246 c0 -40 4 -66 11 -66 6 0 8 8 5
18 -6 21 26 62 49 62 11 0 15 7 13 23 -2 18 -10 23 -40 25 l-38 3 0 -65z"/>
<path fill="#000000" stroke="none" d="M141 288 c11 -21 11 -22 -4 -10 -19 16
-37 8 -37 -15 0 -11 4 -13 13 -6 6 6 20 11 30 12 9 1 26 2 37 3 34 4 19 33
-18 36 -32 3 -33 2 -21 -20z"/>
<path fill="#000000" stroke="none" d="M232 292 c-22 -17 -22 -19 -7 -49 9
-18 25 -35 36 -38 15 -5 18 -10 10 -18 -19 -19 -13 -39 9 -32 11 3 20 2 20 -4
0 -5 -15 -11 -32 -13 -26 -2 -37 -11 -52 -39 -18 -34 -18 -36 -1 -63 l18 -27
27 32 c17 19 32 29 40 24 9 -6 11 9 7 61 -2 38 -9 70 -16 72 -6 2 -9 8 -6 13
4 5 -1 6 -9 3 -10 -4 -18 1 -22 10 -8 21 -2 28 30 30 21 1 26 6 26 29 0 23 -4
27 -27 27 -16 0 -38 -8 -51 -18z"/>
<path fill="#000000" stroke="none" d="M135 243 c-31 -8 -65 -44 -65 -69 0
-51 17 -72 67 -83 47 -10 49 -10 75 22 37 43 45 73 24 96 -9 10 -16 23 -16 29
0 12 -46 14 -85 5z"/>
<path fill="#000000" stroke="none" d="M22 158 c-7 -7 -12 -29 -12 -50 0 -31
4 -38 19 -38 11 0 22 4 25 9 4 5 -3 7 -14 4 -14 -4 -20 0 -20 12 0 12 6 16 19
12 22 -6 32 11 24 42 -6 23 -23 27 -41 9z"/>
<path fill="#000000" stroke="none" d="M70 75 c-11 -13 -11 -20 0 -40 13 -25
40 -35 40 -15 0 6 9 10 20 10 11 0 20 5 20 10 0 18 29 10 44 -12 9 -12 16 -17
16 -10 0 19 -46 62 -67 62 -10 0 -27 3 -39 6 -12 3 -26 -1 -34 -11z"/>
<path fill="#000000" stroke="none" d="M17 53 c-4 -3 -7 -13 -7 -21 0 -10 7
-12 25 -8 16 4 25 2 25 -5 0 -7 3 -9 7 -6 3 4 -2 16 -12 27 -19 21 -28 24 -38
13z"/>
</g>
</svg>
