<?xml version="1.0" standalone="no"?>
<!DOCTYPE svg PUBLIC "-//W3C//DTD SVG 20010904//EN"
 "http://www.w3.org/TR/2001/REC-SVG-20010904/DTD/svg10.dtd">
<svg version="1.0" xmlns="http://www.w3.org/2000/svg"
 width="32.000000pt" height="32.000000pt" viewBox="0 0 32.000000 32.000000"
 preserveAspectRatio="xMidYMid meet">
<metadata>
Created by potrace 1.16, written by Peter Selinger 2001-2019
</metadata>
<g transform="translate(0.000000,32.000000) scale(0.100000,-0.100000)"
fill="#000000" stroke="none">
<path fill="#000000" stroke="none" d="M0 160 l0 -160 160 0 160 0 0 160 0
160 -160 0 -160 0 0 -160z"/>
<path fill="#ffffff" stroke="none" d="M40 300 c0 -5 -4 -10 -10 -10 -5 0 -10
5 -10 10 0 6 5 10 10 10 6 0 10 -4 10 -10z"/>
<path fill="#ffffff" stroke="none" d="M108 299 c-2 -6 -8 -10 -13 -10 -5 0
-11 4 -13 10 -2 6 4 11 13 11 9 0 15 -5 13 -11z"/>
<path fill="#ffffff" stroke="none" d="M237 286 c-13 -15 -26 -21 -31 -16 -15
15 2 40 28 40 l24 0 -21 -24z"/>
<path fill="#ffffff" stroke="none" d="M85 240 c3 -6 -1 -7 -9 -4 -11 4 -16 0
-16 -11 0 -9 -9 -19 -19 -22 -13 -3 -21 -16 -24 -37 -4 -29 -4 -29 -5 7 -1 20
4 46 10 57 13 21 52 27 63 10z"/>
<path fill="#ffffff" stroke="none" d="M217 232 c27 -21 46 -132 23 -132 -8 0
-21 -7 -31 -16 -23 -21 -53 -13 -96 24 -32 26 -32 28 -22 75 8 34 17 51 32 57
35 14 70 11 94 -8z"/>
<path fill="#ffffff" stroke="none" d="M270 206 c0 -3 -4 -8 -10 -11 -5 -3
-10 -1 -10 4 0 6 5 11 10 11 6 0 10 -2 10 -4z"/>
<path fill="#ffffff" stroke="none" d="M290 156 c0 -3 -4 -8 -10 -11 -5 -3
-10 -1 -10 4 0 6 5 11 10 11 6 0 10 -2 10 -4z"/>
<path fill="#ffffff" stroke="none" d="M87 104 c3 -8 -2 -23 -11 -32 -15 -15
-17 -15 -33 0 -13 14 -14 20 -3 32 16 20 39 20 47 0z"/>
<path fill="#ffffff" stroke="none" d="M262 91 c-12 -11 -20 -25 -17 -33 8
-20 -30 -41 -44 -24 -12 14 -2 25 49 59 34 22 40 21 12 -2z"/>
<path fill="#ffffff" stroke="none" d="M160 50 c0 -5 -5 -10 -11 -10 -5 0 -7
5 -4 10 3 6 8 10 11 10 2 0 4 -4 4 -10z"/>
</g>
</svg>
