<?xml version="1.0" standalone="no"?>
<!DOCTYPE svg PUBLIC "-//W3C//DTD SVG 20010904//EN"
 "http://www.w3.org/TR/2001/REC-SVG-20010904/DTD/svg10.dtd">
<svg version="1.0" xmlns="http://www.w3.org/2000/svg"
 width="32.000000pt" height="32.000000pt" viewBox="0 0 32.000000 32.000000"
 preserveAspectRatio="xMidYMid meet">
<metadata>
Created by potrace 1.16, written by Peter Selinger 2001-2019
</metadata>
<g transform="translate(0.000000,32.000000) scale(0.100000,-0.100000)"
fill="#000000" stroke="none">
<path fill="#000000" stroke="none" d="M10 170 c0 -82 3 -151 8 -151 4 -1 70
-3 147 -4 97 -2 142 1 147 9 4 6 8 75 8 154 l0 142 -155 0 -155 0 0 -150z"/>
<path fill="#ffffff" stroke="none" d="M212 264 l37 -7 -23 -18 c-30 -23 -37
-24 -29 -3 5 13 2 15 -15 10 -11 -4 -23 -2 -26 3 -4 6 -14 8 -24 5 -14 -5 -15
-4 -2 5 17 12 31 13 82 5z"/>
<path fill="#ffffff" stroke="none" d="M172 198 c-7 -7 -10 -5 -7 8 5 29 6 30
12 16 3 -8 1 -18 -5 -24z"/>
<path fill="#ffffff" stroke="none" d="M80 193 c-1 -24 -2 -26 -11 -10 -5 9
-7 22 -4 27 10 17 15 11 15 -17z"/>
<path fill="#ffffff" stroke="none" d="M150 216 c0 -3 -4 -8 -10 -11 -5 -3
-10 -1 -10 4 0 6 5 11 10 11 6 0 10 -2 10 -4z"/>
<path fill="#ffffff" stroke="none" d="M213 181 c5 -19 -19 -38 -31 -26 -3 3
-1 5 5 5 6 0 8 12 5 26 -6 31 13 26 21 -5z"/>
<path fill="#ffffff" stroke="none" d="M230 105 c-13 -15 -35 -11 -24 6 3 5
10 7 15 4 5 -4 9 -1 9 6 0 7 3 9 6 6 4 -4 1 -13 -6 -22z"/>
</g>
</svg>
