<?xml version="1.0" standalone="no"?>
<!DOCTYPE svg PUBLIC "-//W3C//DTD SVG 20010904//EN"
 "http://www.w3.org/TR/2001/REC-SVG-20010904/DTD/svg10.dtd">
<svg version="1.0" xmlns="http://www.w3.org/2000/svg"
 width="32.000000pt" height="32.000000pt" viewBox="0 0 32.000000 32.000000"
 preserveAspectRatio="xMidYMid meet">
<metadata>
Created by potrace 1.16, written by Peter Selinger 2001-2019
</metadata>
<g transform="translate(0.000000,32.000000) scale(0.100000,-0.100000)"
fill="#000000" stroke="none">
<path fill="#000000" stroke="none" d="M11 298 c1 -16 3 -18 6 -6 2 9 14 19
26 21 18 4 17 5 -5 6 -23 1 -28 -3 -27 -21z"/>
<path fill="#000000" stroke="none" d="M210 305 c0 -8 -8 -15 -17 -16 -14 0
-15 -2 -3 -6 8 -3 18 -10 21 -15 3 -5 6 5 7 21 0 17 -1 31 -4 31 -2 0 -4 -7
-4 -15z"/>
<path fill="#000000" stroke="none" d="M310 305 c0 -8 -8 -15 -17 -16 -14 0
-15 -2 -3 -6 8 -3 18 -10 21 -15 3 -5 6 5 7 21 0 17 -1 31 -4 31 -2 0 -4 -7
-4 -15z"/>
<path fill="#000000" stroke="none" d="M260 300 c0 -5 -8 -10 -17 -11 -14 0
-15 -2 -3 -6 8 -3 18 -10 21 -16 4 -5 7 3 7 17 0 14 -2 26 -4 26 -2 0 -4 -4
-4 -10z"/>
<path fill="#000000" stroke="none" d="M140 286 c0 -11 -15 -16 -52 -18 l-53
-3 61 -5 c58 -5 60 -4 56 18 -5 25 -12 30 -12 8z"/>
<path fill="#000000" stroke="none" d="M91 213 c1 -23 2 -24 6 -6 2 13 13 24
26 26 18 4 17 5 -5 6 -24 1 -28 -3 -27 -26z"/>
<path fill="#000000" stroke="none" d="M250 223 c0 -10 4 -14 8 -8 4 6 11 13
16 18 5 4 2 7 -7 7 -10 0 -17 -8 -17 -17z"/>
<path fill="#000000" stroke="none" d="M60 206 c0 -9 -12 -16 -32 -18 -32 -3
-31 -4 8 -8 38 -5 40 -4 36 17 -5 26 -12 31 -12 9z"/>
<path fill="#000000" stroke="none" d="M220 205 c0 -10 -15 -15 -57 -17 l-58
-3 66 -5 c63 -5 65 -4 61 18 -5 25 -12 30 -12 7z"/>
<path fill="#000000" stroke="none" d="M11 138 c1 -16 3 -18 6 -6 2 9 14 19
26 21 18 4 17 5 -5 6 -23 1 -28 -3 -27 -21z"/>
<path fill="#000000" stroke="none" d="M170 143 c0 -10 4 -14 8 -8 4 6 11 13
16 18 5 4 2 7 -7 7 -10 0 -17 -8 -17 -17z"/>
<path fill="#000000" stroke="none" d="M140 125 c0 -10 -15 -15 -57 -17 l-58
-3 66 -5 c63 -5 65 -4 61 18 -5 25 -12 30 -12 7z"/>
<path fill="#000000" stroke="none" d="M300 126 c0 -10 -14 -16 -42 -18 l-43
-3 51 -5 c48 -5 50 -4 46 18 -5 25 -12 30 -12 8z"/>
<path fill="#000000" stroke="none" d="M90 63 c0 -10 4 -14 8 -8 4 6 11 13 16
18 5 4 2 7 -7 7 -10 0 -17 -8 -17 -17z"/>
<path fill="#000000" stroke="none" d="M251 58 c1 -16 3 -18 6 -6 2 9 12 19
21 21 12 3 10 5 -5 6 -18 1 -23 -4 -22 -21z"/>
<path fill="#000000" stroke="none" d="M60 46 c0 -9 -12 -16 -32 -18 -32 -3
-31 -4 8 -8 38 -5 40 -4 36 17 -5 26 -12 31 -12 9z"/>
<path fill="#000000" stroke="none" d="M220 46 c0 -9 -12 -16 -32 -18 -32 -3
-31 -4 8 -8 38 -5 40 -4 36 17 -5 26 -12 31 -12 9z"/>
<path fill="#000000" stroke="none" d="M283 23 c9 -2 23 -2 30 0 6 3 -1 5 -18
5 -16 0 -22 -2 -12 -5z"/>
</g>
</svg>
