<?xml version="1.0" standalone="no"?>
<!DOCTYPE svg PUBLIC "-//W3C//DTD SVG 20010904//EN"
 "http://www.w3.org/TR/2001/REC-SVG-20010904/DTD/svg10.dtd">
<svg version="1.0" xmlns="http://www.w3.org/2000/svg"
 width="32.000000pt" height="32.000000pt" viewBox="0 0 32.000000 32.000000"
 preserveAspectRatio="xMidYMid meet">
<metadata>
Created by potrace 1.16, written by Peter Selinger 2001-2019
</metadata>
<g transform="translate(0.000000,32.000000) scale(0.100000,-0.100000)"
fill="#000000" stroke="none">
<path fill="#000000" stroke="none" d="M11 288 c2 -30 2 -30 6 -6 4 23 10 27
41 31 l37 4 -42 1 c-42 2 -43 2 -42 -30z"/>
<path fill="#000000" stroke="none" d="M170 286 l0 -36 74 2 75 2 -2 32 -2 31
-72 2 -73 2 0 -35z"/>
<path fill="#ffffff" stroke="none" d="M297 303 c-4 -4 -29 -6 -56 -4 -40 1
-50 -1 -54 -16 -4 -14 -5 -13 -6 5 -1 21 3 22 61 22 34 0 58 -3 55 -7z"/>
<path fill="#000000" stroke="none" d="M39 295 c0 0 -2 -8 -4 -17 -2 -12 3
-18 14 -18 10 0 39 -3 65 -6 45 -7 46 -6 46 20 0 26 -15 36 -22 14 -3 -7 -18
-13 -35 -13 -18 0 -29 4 -27 10 3 8 -25 16 -37 10z"/>
<path fill="#000000" stroke="none" d="M96 288 c3 -4 11 -5 19 -1 21 7 19 12
-4 10 -11 0 -18 -5 -15 -9z"/>
<path fill="#000000" stroke="none" d="M63 218 c-8 -17 -18 -25 -30 -23 -10 2
-20 4 -23 4 -3 1 2 6 10 12 12 8 12 10 1 7 -8 -2 -15 -12 -17 -21 -1 -12 8
-18 32 -23 43 -8 46 -5 42 37 l-3 34 -12 -27z"/>
<path fill="#000000" stroke="none" d="M90 205 l0 -35 75 3 c58 1 74 5 70 15
-3 8 -5 17 -5 21 0 4 -27 9 -59 10 -55 2 -60 0 -64 -21 -4 -21 -4 -20 -6 4 -1
26 1 27 62 31 l62 3 -67 2 -68 2 0 -35z"/>
<path fill="#000000" stroke="none" d="M250 204 c0 -29 3 -35 16 -30 9 3 24 6
35 6 12 0 19 7 19 19 0 13 -6 18 -17 16 -10 -2 -21 -4 -25 -4 -3 -1 -9 -9 -11
-18 -3 -12 -5 -8 -6 9 -1 20 4 28 22 31 19 4 18 4 -5 6 -26 1 -28 -2 -28 -35z"/>
<path fill="#000000" stroke="none" d="M11 133 c1 -23 2 -24 6 -6 4 19 12 23
66 26 l62 3 -67 2 -68 2 1 -27z"/>
<path fill="#000000" stroke="none" d="M171 133 c1 -23 2 -24 6 -6 2 12 12 24
21 26 12 3 10 5 -5 6 -19 1 -23 -4 -22 -26z"/>
<path fill="#000000" stroke="none" d="M33 123 c-4 -10 -11 -21 -17 -26 -6 -4
23 -6 65 -5 72 3 75 4 71 26 -4 20 -10 22 -58 22 -43 0 -56 -4 -61 -17z"/>
<path fill="#000000" stroke="none" d="M300 125 c0 -8 -7 -15 -16 -15 -9 0
-12 5 -8 13 6 10 4 10 -7 0 -16 -15 -43 -17 -34 -3 4 6 -5 5 -19 -2 -15 -6
-25 -12 -24 -14 2 -1 31 -4 64 -7 60 -4 62 -4 60 19 -1 26 -16 34 -16 9z"/>
<path fill="#000000" stroke="none" d="M18 73 c12 -2 32 -2 45 0 12 2 2 4 -23
4 -25 0 -35 -2 -22 -4z"/>
<path fill="#000000" stroke="none" d="M91 53 c1 -23 2 -24 6 -6 3 14 13 23
31 26 24 4 24 4 -5 6 -30 1 -33 -2 -32 -26z"/>
<path fill="#000000" stroke="none" d="M250 63 c0 -12 3 -14 8 -6 4 6 21 13
37 16 27 4 27 4 -7 6 -30 1 -38 -3 -38 -16z"/>
<path fill="#000000" stroke="none" d="M0 40 c0 -11 6 -20 13 -21 6 0 24 -2
38 -4 23 -3 27 0 25 21 -1 21 -6 24 -38 24 -31 0 -38 -4 -38 -20z"/>
<path fill="#000000" stroke="none" d="M155 50 c-4 -6 -11 -7 -17 -4 -6 4 -8
2 -4 -4 3 -6 -2 -13 -11 -15 -10 -3 10 -5 45 -6 58 -1 62 1 62 21 0 21 0 21
-16 2 -8 -10 -12 -12 -8 -4 6 12 4 13 -7 3 -16 -16 -39 -17 -39 -2 0 5 5 7 12
3 7 -4 8 -3 4 4 -9 15 -13 15 -21 2z"/>
<path fill="#000000" stroke="none" d="M273 45 c-7 -19 -5 -20 25 -29 19 -6
22 -4 22 18 0 19 -5 26 -20 26 -11 0 -23 -7 -27 -15z"/>
</g>
</svg>
