<?xml version="1.0" standalone="no"?>
<!DOCTYPE svg PUBLIC "-//W3C//DTD SVG 20010904//EN"
 "http://www.w3.org/TR/2001/REC-SVG-20010904/DTD/svg10.dtd">
<svg version="1.0" xmlns="http://www.w3.org/2000/svg"
 width="32.000000pt" height="32.000000pt" viewBox="0 0 32.000000 32.000000"
 preserveAspectRatio="xMidYMid meet">
<metadata>
Created by potrace 1.16, written by Peter Selinger 2001-2019
</metadata>
<g transform="translate(0.000000,32.000000) scale(0.100000,-0.100000)"
fill="#000000" stroke="none">
<path fill="#000000" stroke="none" d="M11 293 c1 -23 2 -24 6 -6 3 17 13 23
41 26 l37 4 -42 1 c-41 2 -43 1 -42 -25z"/>
<path fill="#000000" stroke="none" d="M170 287 l0 -33 73 0 c73 1 73 1 68 26
-4 18 -6 20 -9 8 -4 -18 -27 -23 -56 -12 -9 3 -13 10 -10 15 3 5 0 9 -5 9 -6
0 -11 -7 -11 -15 0 -8 -4 -15 -10 -15 -5 0 -7 7 -4 15 4 8 3 15 0 15 -4 0 -11
-10 -16 -22 -8 -22 -9 -22 -9 4 -1 23 4 27 32 31 31 4 31 4 -5 5 -37 2 -38 1
-38 -31z"/>
<path fill="#000000" stroke="none" d="M141 288 c-1 -15 -11 -18 -58 -19 l-58
-2 65 -8 c35 -4 66 -7 67 -5 2 2 -1 14 -6 27 -7 17 -10 19 -10 7z"/>
<path fill="#000000" stroke="none" d="M257 289 c7 -7 15 -10 18 -7 3 3 -2 9
-12 12 -14 6 -15 5 -6 -5z"/>
<path fill="#000000" stroke="none" d="M92 203 c1 -37 1 -37 5 -6 3 26 9 33
31 36 24 4 24 4 -5 6 -32 1 -33 0 -31 -36z"/>
<path fill="#000000" stroke="none" d="M251 213 c1 -23 2 -24 6 -6 2 13 13 24
26 26 18 4 17 5 -5 6 -24 1 -28 -3 -27 -26z"/>
<path fill="#000000" stroke="none" d="M60 207 c0 -12 -9 -17 -32 -18 -31 -1
-32 -1 -8 -9 45 -14 60 -12 57 10 -4 25 -17 38 -17 17z"/>
<path fill="#000000" stroke="none" d="M110 208 c0 -5 6 -8 13 -8 8 0 7 -4 -3
-10 -17 -11 -16 -11 61 -13 54 -2 55 -1 50 23 -4 18 -6 20 -9 8 -2 -13 -13
-18 -39 -18 -29 0 -33 2 -24 14 9 11 6 13 -19 12 -16 0 -30 -4 -30 -8z"/>
<path fill="#000000" stroke="none" d="M283 183 c9 -2 23 -2 30 0 6 3 -1 5
-18 5 -16 0 -22 -2 -12 -5z"/>
<path fill="#000000" stroke="none" d="M11 138 c1 -17 3 -18 6 -6 3 11 17 18
41 21 l37 4 -42 1 c-39 2 -43 0 -42 -20z"/>
<path fill="#000000" stroke="none" d="M171 138 c1 -16 3 -18 6 -6 2 9 12 19
21 21 12 3 10 5 -5 6 -18 1 -23 -4 -22 -21z"/>
<path fill="#000000" stroke="none" d="M34 128 c-4 -7 -3 -8 4 -4 7 4 12 2 12
-3 0 -6 -5 -11 -12 -11 -6 0 -8 -3 -4 -7 3 -4 33 -7 64 -7 57 -1 58 0 53 24
-4 18 -6 20 -9 8 -2 -10 -8 -18 -14 -18 -5 0 -7 8 -4 17 6 16 6 16 -12 0 -24
-22 -32 -21 -33 1 0 14 -2 14 -9 -3 -7 -17 -9 -17 -9 -2 -1 19 -16 23 -27 5z"/>
<path fill="#000000" stroke="none" d="M300 125 c0 -10 -15 -15 -57 -17 l-58
-3 66 -5 c63 -5 65 -4 61 18 -5 25 -12 30 -12 7z"/>
<path fill="#000000" stroke="none" d="M90 63 c0 -11 3 -14 8 -7 4 6 14 14 22
17 10 4 8 6 -7 6 -16 1 -23 -5 -23 -16z"/>
<path fill="#000000" stroke="none" d="M250 63 c0 -12 3 -14 8 -6 4 6 21 13
37 16 27 4 27 4 -7 6 -30 1 -38 -3 -38 -16z"/>
<path fill="#000000" stroke="none" d="M0 49 c0 -5 5 -7 10 -4 5 3 10 2 10 -4
0 -5 -6 -11 -12 -14 -7 -2 5 -6 28 -8 39 -4 40 -3 35 21 -4 18 -6 20 -9 8 -2
-10 -10 -18 -19 -18 -11 0 -13 3 -5 13 8 10 5 13 -14 15 -13 1 -24 -3 -24 -9z"/>
<path fill="#000000" stroke="none" d="M290 50 c0 -6 -5 -8 -12 -4 -9 5 -9 2
1 -9 17 -22 43 -22 39 0 -3 19 -28 31 -28 13z"/>
<path fill="#000000" stroke="none" d="M133 23 c15 -2 39 -2 55 0 15 2 2 4
-28 4 -30 0 -43 -2 -27 -4z"/>
</g>
</svg>
