<?xml version="1.0" standalone="no"?>
<!DOCTYPE svg PUBLIC "-//W3C//DTD SVG 20010904//EN"
 "http://www.w3.org/TR/2001/REC-SVG-20010904/DTD/svg10.dtd">
<svg version="1.0" xmlns="http://www.w3.org/2000/svg"
 width="32.000000pt" height="32.000000pt" viewBox="0 0 32.000000 32.000000"
 preserveAspectRatio="xMidYMid meet">
<metadata>
Created by potrace 1.16, written by Peter Selinger 2001-2019
</metadata>
<g transform="translate(0.000000,32.000000) scale(0.100000,-0.100000)"
fill="#000000" stroke="none">
<path fill="#000000" stroke="none" d="M12 288 l3 -31 73 -4 72 -4 0 36 0 35
-76 0 -75 0 3 -32z"/>
<path fill="#ffffff" stroke="none" d="M147 304 c-3 -4 -29 -6 -57 -5 -44 0
-52 -2 -60 -22 -8 -21 -9 -21 -9 6 -1 27 -1 27 66 27 36 0 63 -3 60 -6z"/>
<path fill="#000000" stroke="none" d="M170 285 l0 -35 75 0 75 0 0 35 0 35
-75 0 -75 0 0 -35z"/>
<path fill="#ffffff" stroke="none" d="M248 303 c-43 -3 -58 -8 -61 -21 -3
-12 -5 -11 -6 6 -1 21 2 22 62 20 l62 -2 -57 -3z"/>
<path fill="#000000" stroke="none" d="M70 230 c0 -5 -16 -10 -36 -10 -31 0
-35 -3 -32 -22 2 -19 10 -24 41 -26 36 -3 37 -3 37 32 0 20 -2 36 -5 36 -3 0
-5 -4 -5 -10z"/>
<path fill="#000000" stroke="none" d="M90 205 l0 -35 75 0 75 0 0 35 0 35
-75 0 -75 0 0 -35z"/>
<path fill="#ffffff" stroke="none" d="M173 223 c-54 -3 -62 -7 -66 -26 -4
-18 -5 -17 -6 6 l-1 27 68 -2 67 -2 -62 -3z"/>
<path fill="#000000" stroke="none" d="M250 205 c0 -31 3 -34 23 -31 12 3 28
5 35 5 6 1 12 10 12 21 0 25 -35 27 -49 3 -9 -16 -10 -16 -11 4 0 15 7 23 23
26 19 4 18 4 -5 6 -26 1 -28 -2 -28 -34z"/>
<path fill="#000000" stroke="none" d="M10 125 l0 -36 73 2 72 2 2 33 2 34
-75 0 -74 0 0 -35z"/>
<path fill="#ffffff" stroke="none" d="M93 143 c-48 -3 -63 -8 -66 -21 -3 -12
-5 -11 -6 6 -1 21 2 22 67 20 l67 -2 -62 -3z"/>
<path fill="#000000" stroke="none" d="M171 133 c1 -23 2 -24 6 -6 3 17 13 23
41 26 l37 4 -42 1 c-41 2 -43 1 -42 -25z"/>
<path fill="#000000" stroke="none" d="M310 151 c0 -4 -13 -25 -30 -46 -18
-22 -30 -50 -30 -66 0 -26 3 -29 35 -29 31 0 35 3 35 25 0 20 -5 25 -24 25
-15 0 -26 -7 -29 -17 -4 -14 -5 -12 -6 5 -1 18 4 22 32 23 l32 1 -30 8 -30 8
28 1 c24 1 27 5 27 36 0 19 -2 35 -5 35 -3 0 -5 -4 -5 -9z"/>
<path fill="#000000" stroke="none" d="M197 133 c-4 -3 -7 -12 -7 -20 0 -22
55 -15 76 9 10 13 12 17 4 11 -10 -7 -21 -8 -30 -3 -9 6 -18 3 -27 -8 -12 -16
-13 -16 -7 1 6 18 2 22 -9 10z"/>
<path fill="#000000" stroke="none" d="M35 70 l40 -7 -37 -2 c-33 -1 -38 -4
-38 -26 0 -22 4 -25 40 -25 39 0 40 1 40 35 0 35 0 35 -42 34 l-43 -2 40 -7z"/>
<path fill="#000000" stroke="none" d="M91 53 c1 -23 2 -24 6 -6 3 14 13 23
31 26 24 4 24 4 -5 6 -30 1 -33 -2 -32 -26z"/>
<path fill="#000000" stroke="none" d="M208 41 c-35 -35 -35 -39 2 -33 25 4
30 9 30 33 0 16 -1 29 -2 29 -2 0 -15 -13 -30 -29z"/>
<path fill="#000000" stroke="none" d="M113 39 c-1 -12 8 -18 28 -21 22 -3 28
-1 25 9 -3 7 -1 12 3 10 5 -1 8 3 8 8 -1 6 -16 10 -33 10 -21 1 -30 -4 -31
-16z"/>
</g>
</svg>
