<?xml version="1.0" standalone="no"?>
<!DOCTYPE svg PUBLIC "-//W3C//DTD SVG 20010904//EN"
 "http://www.w3.org/TR/2001/REC-SVG-20010904/DTD/svg10.dtd">
<svg version="1.0" xmlns="http://www.w3.org/2000/svg"
 width="32.000000pt" height="32.000000pt" viewBox="0 0 32.000000 32.000000"
 preserveAspectRatio="xMidYMid meet">
<metadata>
Created by potrace 1.16, written by Peter Selinger 2001-2019
</metadata>
<g transform="translate(0.000000,32.000000) scale(0.100000,-0.100000)"
fill="#000000" stroke="none">
<path fill="#000000" stroke="none" d="M1 258 l-1 -68 30 0 c21 0 30 5 30 17
0 22 13 8 17 -18 3 -19 0 -20 -37 -14 l-40 7 0 -61 c0 -61 6 -69 44 -62 5 1 4
-5 -4 -13 -10 -13 -10 -16 3 -16 9 0 17 8 19 17 3 13 5 11 9 -7 5 -24 3 -25
-33 -22 -23 3 -38 0 -38 -7 0 -8 50 -11 160 -11 93 0 160 4 160 9 0 6 -17 8
-37 5 -37 -5 -38 -5 -13 10 14 8 29 12 34 9 5 -4 6 -1 2 5 -4 7 -2 12 3 12 6
0 11 5 11 10 0 17 -29 11 -51 -11 -12 -12 -20 -15 -17 -8 2 8 18 21 34 29 27
14 30 21 31 62 1 43 -1 47 -25 51 l-27 4 27 2 c28 1 28 2 25 64 l-2 62 -40 -1
c-98 -3 -95 -2 -94 -31 0 -27 1 -27 9 -5 5 12 12 22 16 22 3 0 4 -7 0 -15 -3
-8 -1 -15 4 -15 6 0 10 7 10 15 0 8 5 15 11 15 5 0 8 -4 5 -9 -3 -5 1 -12 10
-15 29 -11 52 -6 57 12 4 13 5 11 6 -5 1 -19 -4 -23 -31 -24 -18 0 -50 -2 -70
-4 -37 -3 -38 -2 -38 30 0 31 -2 32 -37 31 -115 -5 -113 -5 -114 -28 -1 -19
-3 -17 -9 7 -6 23 -8 15 -9 -37z"/>
<path fill="#ffffff" stroke="none" d="M157 254 c-1 -2 -32 1 -67 5 l-65 8 58
2 c47 1 57 4 58 19 0 12 3 10 10 -7 5 -13 8 -25 6 -27z"/>
<path fill="#ffffff" stroke="none" d="M275 282 c-3 -3 -11 0 -18 7 -9 10 -8
11 6 5 10 -3 15 -9 12 -12z"/>
<path fill="#ffffff" stroke="none" d="M128 233 c-22 -3 -28 -10 -31 -36 -4
-31 -4 -31 -5 6 -2 36 -1 37 31 36 29 -2 29 -2 5 -6z"/>
<path fill="#ffffff" stroke="none" d="M283 233 c-13 -2 -24 -13 -26 -26 -4
-18 -5 -17 -6 6 -1 23 3 27 27 26 22 -1 23 -2 5 -6z"/>
<path fill="#ffffff" stroke="none" d="M159 204 c-9 -12 -5 -14 24 -14 26 0
37 5 39 18 3 12 5 10 9 -8 5 -24 4 -25 -50 -23 -77 2 -78 2 -61 13 10 6 11 10
3 10 -27 0 -11 15 17 16 25 1 28 -1 19 -12z"/>
<path fill="#ffffff" stroke="none" d="M58 153 c-24 -3 -38 -10 -41 -21 -3
-12 -5 -11 -6 6 -1 20 3 22 42 20 l42 -1 -37 -4z"/>
<path fill="#ffffff" stroke="none" d="M198 153 c-9 -2 -19 -12 -21 -21 -3
-12 -5 -10 -6 6 -1 17 4 22 22 21 15 -1 17 -3 5 -6z"/>
<path fill="#ffffff" stroke="none" d="M61 123 c0 -15 2 -15 9 2 7 17 9 17 9
3 1 -22 9 -23 33 -1 18 16 18 16 12 0 -3 -9 -1 -17 4 -17 6 0 12 8 14 18 3 12
5 10 9 -8 5 -24 4 -25 -53 -24 -31 0 -61 3 -64 7 -4 4 -2 7 4 7 7 0 12 5 12
11 0 5 -5 7 -12 3 -7 -4 -8 -3 -4 4 11 18 26 14 27 -5z"/>
<path fill="#ffffff" stroke="none" d="M310 121 c0 -17 -8 -19 -62 -18 -49 0
-57 2 -34 8 16 4 42 5 57 2 22 -4 29 -2 29 11 0 9 2 16 5 16 3 0 5 -9 5 -19z"/>
<path fill="#ffffff" stroke="none" d="M120 73 c-8 -3 -18 -11 -22 -17 -5 -7
-8 -4 -8 7 0 11 7 17 23 16 15 0 17 -2 7 -6z"/>
<path fill="#ffffff" stroke="none" d="M236 33 c0 -16 -8 -17 -66 -13 l-65 5
55 3 c30 2 59 7 65 13 11 11 11 12 11 -8z"/>
<path fill="#000000" stroke="none" d="M5 40 c-3 -5 -1 -10 4 -10 6 0 11 5 11
10 0 6 -2 10 -4 10 -3 0 -8 -4 -11 -10z"/>
</g>
</svg>
