<?xml version="1.0" standalone="no"?>
<!DOCTYPE svg PUBLIC "-//W3C//DTD SVG 20010904//EN"
 "http://www.w3.org/TR/2001/REC-SVG-20010904/DTD/svg10.dtd">
<svg version="1.0" xmlns="http://www.w3.org/2000/svg"
 width="32.000000pt" height="32.000000pt" viewBox="0 0 32.000000 32.000000"
 preserveAspectRatio="xMidYMid meet">
<metadata>
Created by potrace 1.16, written by Peter Selinger 2001-2019
</metadata>
<g transform="translate(0.000000,32.000000) scale(0.100000,-0.100000)"
fill="#000000" stroke="none">
<path fill="#000000" stroke="none" d="M10 286 l0 -34 75 -1 75 -1 0 35 0 35
-75 0 -75 0 0 -34z"/>
<path fill="#ffffff" stroke="none" d="M88 303 c-49 -3 -57 -7 -61 -26 -4 -18
-5 -17 -6 6 -1 27 -1 27 62 25 l62 -2 -57 -3z"/>
<path fill="#000000" stroke="none" d="M170 285 l0 -35 75 0 75 0 0 35 0 35
-75 0 -75 0 0 -35z"/>
<path fill="#ffffff" stroke="none" d="M217 304 c-3 -3 -12 -4 -19 -1 -8 3 -5
6 6 6 11 1 17 -2 13 -5z"/>
<path fill="#000000" stroke="none" d="M35 230 l40 -7 -37 -2 c-33 -1 -38 -4
-38 -26 0 -22 4 -25 40 -25 39 0 40 1 40 35 0 35 0 35 -42 34 l-43 -2 40 -7z"/>
<path fill="#000000" stroke="none" d="M90 205 l0 -35 75 0 75 0 0 35 0 35
-75 0 -75 0 0 -35z"/>
<path fill="#ffffff" stroke="none" d="M168 223 c-43 -3 -58 -8 -61 -21 -3
-12 -5 -11 -6 6 -1 21 2 22 62 20 l62 -2 -57 -3z"/>
<path fill="#000000" stroke="none" d="M250 205 c0 -33 1 -34 35 -33 30 1 35
5 35 25 0 18 -5 23 -24 23 -15 0 -26 -7 -29 -17 -4 -14 -5 -13 -6 4 -1 16 6
23 27 26 25 4 25 4 -5 6 -31 1 -33 -1 -33 -34z"/>
<path fill="#000000" stroke="none" d="M10 125 l0 -35 63 0 c68 0 87 10 87 47
0 22 -3 23 -75 23 l-75 0 0 -35z"/>
<path fill="#ffffff" stroke="none" d="M93 143 c-48 -3 -63 -8 -66 -21 -3 -12
-5 -11 -6 6 -1 21 2 22 67 20 l67 -2 -62 -3z"/>
<path fill="#000000" stroke="none" d="M170 136 c0 -29 18 -37 93 -43 l57 -5
0 36 0 36 -75 0 c-72 0 -75 -1 -75 -24z"/>
<path fill="#ffffff" stroke="none" d="M308 145 c-8 -8 -128 -11 -128 -2 0 4
30 7 67 7 36 0 64 -2 61 -5z"/>
<path fill="#000000" stroke="none" d="M174 82 c4 -7 19 -13 34 -13 24 -2 25
-2 4 -6 -12 -3 -28 -13 -35 -24 -15 -25 -34 -24 -42 1 -8 27 -23 25 -28 -2 -4
-20 -4 -20 -6 4 -1 22 4 27 27 31 25 4 25 4 -5 6 -31 1 -33 -1 -33 -35 0 -31
2 -35 21 -29 12 4 24 2 28 -4 5 -7 24 -9 54 -5 45 6 47 8 47 40 0 27 -4 34
-19 34 -11 0 -27 3 -37 7 -12 4 -15 3 -10 -5z"/>
<path fill="#000000" stroke="none" d="M30 70 l35 -7 -32 -2 c-28 -1 -33 -5
-33 -26 0 -22 4 -25 40 -25 39 0 40 1 40 35 0 35 0 35 -42 34 l-43 -2 35 -7z"/>
<path fill="#000000" stroke="none" d="M250 45 c0 -33 2 -35 35 -35 31 0 35 3
35 25 0 20 -5 25 -24 25 -15 0 -26 -7 -29 -17 -4 -14 -5 -13 -6 4 -1 17 6 23
32 26 31 4 31 4 -5 5 -37 2 -38 1 -38 -33z"/>
</g>
</svg>
