<?xml version="1.0" standalone="no"?>
<!DOCTYPE svg PUBLIC "-//W3C//DTD SVG 20010904//EN"
 "http://www.w3.org/TR/2001/REC-SVG-20010904/DTD/svg10.dtd">
<svg version="1.0" xmlns="http://www.w3.org/2000/svg"
 width="32.000000pt" height="32.000000pt" viewBox="0 0 32.000000 32.000000"
 preserveAspectRatio="xMidYMid meet">
<metadata>
Created by potrace 1.16, written by Peter Selinger 2001-2019
</metadata>
<g transform="translate(0.000000,32.000000) scale(0.100000,-0.100000)"
fill="#000000" stroke="none">
<path fill="#000000" stroke="none" d="M1 304 c0 -11 3 -14 6 -6 3 7 2 16 -1
19 -3 4 -6 -2 -5 -13z"/>
<path fill="#000000" stroke="none" d="M226 242 c5 -4 12 -11 15 -15 3 -5 9
-2 12 5 3 9 -3 14 -15 15 -11 1 -16 -1 -12 -5z"/>
<path fill="#000000" stroke="none" d="M77 177 c-4 -10 2 -14 19 -14 14 0 24
0 22 1 -2 1 -10 7 -19 14 -14 10 -18 10 -22 -1z"/>
<path fill="#000000" stroke="none" d="M230 170 c-6 -4 7 -7 30 -8 22 -1 40 0
40 2 0 7 -60 12 -70 6z"/>
<path fill="#000000" stroke="none" d="M5 160 c-3 -6 1 -7 9 -4 18 7 21 14 7
14 -6 0 -13 -4 -16 -10z"/>
<path fill="#000000" stroke="none" d="M130 166 c0 -1 9 -9 19 -18 18 -15 19
-15 23 0 4 12 -2 17 -19 18 -12 1 -23 1 -23 0z"/>
<path fill="#000000" stroke="none" d="M1 94 c0 -11 3 -14 6 -6 3 7 2 16 -1
19 -3 4 -6 -2 -5 -13z"/>
<path fill="#000000" stroke="none" d="M86 81 c-4 -5 3 -7 14 -4 23 6 26 13 6
13 -8 0 -17 -4 -20 -9z"/>
<path fill="#000000" stroke="none" d="M158 83 c7 -3 16 -2 19 1 4 3 -2 6 -13
5 -11 0 -14 -3 -6 -6z"/>
<path fill="#000000" stroke="none" d="M245 79 c-11 -16 -1 -19 13 -3 7 8 8
14 3 14 -5 0 -13 -5 -16 -11z"/>
<path fill="#000000" stroke="none" d="M240 22 c0 -6 -8 -12 -17 -15 -10 -2
-3 -4 15 -4 18 0 30 3 25 6 -4 3 -11 10 -15 15 -5 5 -8 5 -8 -2z"/>
<path fill="#000000" stroke="none" d="M70 10 c-9 -6 -10 -10 -3 -10 6 0 15 5
18 10 8 12 4 12 -15 0z"/>
</g>
</svg>
