<?xml version="1.0" standalone="no"?>
<!DOCTYPE svg PUBLIC "-//W3C//DTD SVG 20010904//EN"
 "http://www.w3.org/TR/2001/REC-SVG-20010904/DTD/svg10.dtd">
<svg version="1.0" xmlns="http://www.w3.org/2000/svg"
 width="32.000000pt" height="32.000000pt" viewBox="0 0 32.000000 32.000000"
 preserveAspectRatio="xMidYMid meet">
<metadata>
Created by potrace 1.16, written by Peter Selinger 2001-2019
</metadata>
<g transform="translate(0.000000,32.000000) scale(0.100000,-0.100000)"
fill="#000000" stroke="none">
<path fill="#000000" stroke="none" d="M2 283 l-2 -43 40 0 c39 0 40 -1 40
-35 0 -34 -1 -35 -40 -35 l-40 0 0 -45 0 -45 40 0 c39 0 40 -1 40 -34 0 -34
-1 -35 -42 -39 -24 -2 31 -4 122 -4 91 0 148 2 128 4 -32 4 -38 8 -38 27 0 29
18 46 49 47 19 1 15 4 -14 10 -22 4 -57 6 -77 3 -38 -6 -38 -6 -38 30 l0 36
78 0 c45 0 72 4 64 9 -7 4 -24 6 -38 3 -22 -4 -24 -1 -24 32 0 34 2 36 33 35
30 -2 30 -2 5 -6 -21 -3 -28 -10 -27 -26 1 -17 2 -18 6 -4 3 10 14 17 29 17
15 0 24 6 24 15 0 12 -15 15 -74 15 l-75 0 -4 38 -4 37 -1 -38 -2 -37 -74 1
-75 1 -4 37 c-4 36 -4 36 -5 -6z"/>
<path fill="#ffffff" stroke="none" d="M240 205 l0 -35 -75 0 -75 0 0 35 0 35
75 0 75 0 0 -35z"/>
<path fill="#ffffff" stroke="none" d="M160 125 l0 -35 -75 0 -75 0 0 35 0 35
75 0 75 0 0 -35z"/>
<path fill="#ffffff" stroke="none" d="M128 73 c-23 -4 -28 -9 -27 -31 2 -24
2 -24 6 -4 4 18 11 22 43 22 21 0 42 5 45 11 10 15 45 -19 45 -43 0 -17 -7
-18 -75 -16 l-75 3 0 33 c0 30 2 32 33 31 30 -2 30 -2 5 -6z"/>
<path fill="#ffffff" stroke="none" d="M187 74 c-3 -3 -12 -4 -19 -1 -8 3 -5
6 6 6 11 1 17 -2 13 -5z"/>
<path fill="#000000" stroke="none" d="M101 208 c1 -17 3 -18 6 -6 3 13 18 18
61 21 l57 3 -62 2 c-60 2 -63 1 -62 -20z"/>
<path fill="#000000" stroke="none" d="M21 128 c1 -17 3 -18 6 -6 3 13 18 18
66 21 l62 3 -67 2 c-65 2 -68 1 -67 -20z"/>
<path fill="#000000" stroke="none" d="M21 283 c1 -23 2 -24 6 -6 4 19 12 23
61 26 l57 3 -62 2 c-63 2 -63 2 -62 -25z"/>
<path fill="#000000" stroke="none" d="M198 303 c7 -3 16 -2 19 1 4 3 -2 6
-13 5 -11 0 -14 -3 -6 -6z"/>
<path fill="#000000" stroke="none" d="M18 223 c12 -2 30 -2 40 0 9 3 -1 5
-23 4 -22 0 -30 -2 -17 -4z"/>
<path fill="#000000" stroke="none" d="M181 123 c2 -23 2 -24 6 -6 4 20 10 22
59 22 31 -1 58 2 61 5 4 3 -24 6 -60 6 -67 0 -67 0 -66 -27z"/>
<path fill="#000000" stroke="none" d="M13 63 c9 -2 25 -2 35 0 9 3 1 5 -18 5
-19 0 -27 -2 -17 -5z"/>
<path fill="#000000" stroke="none" d="M298 63 c7 -3 16 -2 19 1 4 3 -2 6 -13
5 -11 0 -14 -3 -6 -6z"/>
</g>
</svg>
