<?xml version="1.0" standalone="no"?>
<!DOCTYPE svg PUBLIC "-//W3C//DTD SVG 20010904//EN"
 "http://www.w3.org/TR/2001/REC-SVG-20010904/DTD/svg10.dtd">
<svg version="1.0" xmlns="http://www.w3.org/2000/svg"
 width="32.000000pt" height="32.000000pt" viewBox="0 0 32.000000 32.000000"
 preserveAspectRatio="xMidYMid meet">
<metadata>
Created by potrace 1.16, written by Peter Selinger 2001-2019
</metadata>
<g transform="translate(0.000000,32.000000) scale(0.100000,-0.100000)"
fill="#000000" stroke="none">
<path fill="#000000" stroke="none" d="M306 301 c-9 -13 -5 -131 4 -126 7 4
12 135 5 135 -2 0 -6 -4 -9 -9z"/>
<path fill="#000000" stroke="none" d="M303 87 l2 -73 -30 4 c-23 3 -27 2 -19
-8 7 -6 22 -10 35 -8 22 3 24 8 27 75 1 39 -2 74 -7 77 -6 4 -9 -24 -8 -67z"/>
<path fill="#000000" stroke="none" d="M280 56 c0 -8 -6 -17 -12 -19 -8 -3 -6
-6 5 -6 11 -1 17 6 17 19 0 11 -2 20 -5 20 -3 0 -5 -6 -5 -14z"/>
<path fill="#000000" stroke="none" d="M16 11 c-3 -4 46 -8 109 -9 63 0 113 4
110 8 -7 11 -212 12 -219 1z"/>
</g>
</svg>
