<?xml version="1.0" standalone="no"?>
<!DOCTYPE svg PUBLIC "-//W3C//DTD SVG 20010904//EN"
 "http://www.w3.org/TR/2001/REC-SVG-20010904/DTD/svg10.dtd">
<svg version="1.0" xmlns="http://www.w3.org/2000/svg"
 width="32.000000pt" height="32.000000pt" viewBox="0 0 32.000000 32.000000"
 preserveAspectRatio="xMidYMid meet">
<metadata>
Created by potrace 1.16, written by Peter Selinger 2001-2019
</metadata>
<g transform="translate(0.000000,32.000000) scale(0.100000,-0.100000)"
fill="#000000" stroke="none">
<path fill="#000000" stroke="none" d="M18 289 c4 -25 2 -30 -9 -24 -11 6 -12
5 -1 -6 14 -16 16 -33 2 -24 -5 3 -10 -1 -10 -10 0 -10 5 -14 12 -9 11 6 11 4
0 -7 -8 -8 -12 -46 -12 -111 l0 -98 160 0 160 0 0 160 0 160 -100 -1 c-73 -1
-98 -4 -94 -12 5 -8 2 -7 -7 1 -16 14 -33 16 -24 2 3 -5 -1 -10 -10 -10 -10 0
-13 5 -9 13 5 8 2 7 -10 -2 -13 -11 -20 -11 -28 -3 -19 19 -25 14 -20 -19z"/>
<path fill="#ffffff" stroke="none" d="M80 286 c0 -2 -11 -6 -25 -8 -14 -3
-25 -1 -25 3 0 5 11 9 25 9 14 0 25 -2 25 -4z"/>
<path fill="#ffffff" stroke="none" d="M180 240 c4 -3 2 -11 -6 -18 -8 -7 -14
-8 -14 -2 0 5 -7 10 -15 10 -18 0 -20 -30 -2 -30 6 0 3 -6 -8 -12 -11 -6 -30
-20 -42 -31 l-22 -20 -7 27 c-3 14 -3 42 0 61 6 31 9 34 26 25 31 -16 70 -12
71 8 0 13 2 14 6 2 3 -8 9 -17 13 -20z"/>
<path fill="#000000" stroke="none" d="M77 233 c-9 -8 -9 -58 0 -66 10 -10 43
23 43 43 0 10 -7 21 -16 24 -19 7 -19 7 -27 -1z"/>
</g>
</svg>
