<?xml version="1.0" standalone="no"?>
<!DOCTYPE svg PUBLIC "-//W3C//DTD SVG 20010904//EN"
 "http://www.w3.org/TR/2001/REC-SVG-20010904/DTD/svg10.dtd">
<svg version="1.0" xmlns="http://www.w3.org/2000/svg"
 width="32.000000pt" height="32.000000pt" viewBox="0 0 32.000000 32.000000"
 preserveAspectRatio="xMidYMid meet">
<metadata>
Created by potrace 1.16, written by Peter Selinger 2001-2019
</metadata>
<g transform="translate(0.000000,32.000000) scale(0.100000,-0.100000)"
fill="#000000" stroke="none">
<path fill="#000000" stroke="none" d="M145 311 c6 -11 2 -13 -19 -9 -16 3
-25 1 -23 -5 2 -6 29 -10 63 -10 32 1 51 -1 41 -3 -10 -3 -14 -10 -10 -17 4
-8 1 -7 -9 1 -11 9 -18 10 -23 2 -3 -5 -11 -10 -16 -10 -6 0 -7 5 -4 10 3 6
-1 10 -9 10 -19 0 -21 -11 -4 -28 9 -9 16 -8 30 5 10 9 18 12 18 6 0 -5 -11
-16 -25 -23 -13 -7 -22 -16 -20 -20 3 -4 -1 -13 -8 -19 -10 -8 -19 -7 -33 3
-26 20 -51 4 -50 -31 1 -19 6 -27 16 -25 8 2 11 0 7 -5 -12 -11 -31 -11 -39 2
-4 5 -8 0 -8 -13 0 -13 -4 -20 -10 -17 -5 3 -10 -1 -10 -10 0 -9 5 -13 11 -9
8 4 10 -9 8 -45 l-4 -51 153 0 152 0 0 153 0 152 -77 -2 c-47 -1 -84 3 -92 10
-12 10 -13 9 -6 -2z"/>
<path fill="#ffffff" stroke="none" d="M270 286 c0 -2 -9 -6 -20 -9 -11 -3
-18 -1 -14 4 5 9 34 13 34 5z"/>
<path fill="#ffffff" stroke="none" d="M298 265 c-3 -3 -9 2 -12 12 -6 14 -5
15 5 6 7 -7 10 -15 7 -18z"/>
<path fill="#ffffff" stroke="none" d="M129 183 c10 10 12 9 9 -3 -2 -8 3 -14
10 -12 8 1 11 -2 7 -8 -4 -7 -12 -7 -18 -2 -15 10 -27 10 -46 -2 -10 -7 -12
-6 -6 4 5 9 2 10 -14 5 -12 -4 -21 -2 -21 4 0 6 6 10 13 9 7 -2 11 5 9 17 -4
19 -3 19 20 -2 19 -18 27 -20 37 -10z"/>
<path fill="#ffffff" stroke="none" d="M178 192 c2 -7 -1 -12 -8 -12 -6 0 -9
4 -6 9 4 5 1 12 -4 14 -6 3 -5 4 2 3 6 -1 14 -8 16 -14z"/>
<path fill="#ffffff" stroke="none" d="M110 146 c0 -2 -8 -10 -17 -17 -16 -13
-17 -12 -4 4 13 16 21 21 21 13z"/>
<path fill="#ffffff" stroke="none" d="M134 134 c3 -8 2 -12 -4 -9 -6 3 -10
10 -10 16 0 14 7 11 14 -7z"/>
<path fill="#ffffff" stroke="none" d="M37 98 c-3 -8 -6 -5 -6 6 -1 11 2 17 5
13 3 -3 4 -12 1 -19z"/>
<path fill="#ffffff" stroke="none" d="M70 100 c0 -5 -5 -10 -11 -10 -5 0 -7
5 -4 10 3 6 8 10 11 10 2 0 4 -4 4 -10z"/>
<path fill="#ffffff" stroke="none" d="M95 101 c3 -5 2 -12 -3 -15 -5 -3 -9 1
-9 9 0 17 3 19 12 6z"/>
<path fill="#ffffff" stroke="none" d="M55 22 c-3 -3 -11 0 -18 7 -9 10 -8 11
6 5 10 -3 15 -9 12 -12z"/>
<path fill="#000000" stroke="none" d="M25 289 c-11 -16 -1 -19 13 -3 7 8 8
14 3 14 -5 0 -13 -5 -16 -11z"/>
<path fill="#000000" stroke="none" d="M107 261 c2 -2 -3 -11 -10 -19 -10 -13
-9 -14 1 -8 9 5 12 3 10 -5 -1 -8 2 -14 7 -14 14 0 15 22 2 37 -7 7 -11 11
-10 9z"/>
<path fill="#000000" stroke="none" d="M0 198 c0 -17 4 -27 10 -23 6 3 10 1
10 -6 0 -7 3 -10 6 -7 3 4 1 16 -6 27 -7 14 -7 21 0 21 5 0 10 4 10 8 0 5 -7
9 -15 9 -10 0 -15 -10 -15 -29z"/>
</g>
</svg>
