<?xml version="1.0" standalone="no"?>
<!DOCTYPE svg PUBLIC "-//W3C//DTD SVG 20010904//EN"
 "http://www.w3.org/TR/2001/REC-SVG-20010904/DTD/svg10.dtd">
<svg version="1.0" xmlns="http://www.w3.org/2000/svg"
 width="32.000000pt" height="32.000000pt" viewBox="0 0 32.000000 32.000000"
 preserveAspectRatio="xMidYMid meet">
<metadata>
Created by potrace 1.16, written by Peter Selinger 2001-2019
</metadata>
<g transform="translate(0.000000,32.000000) scale(0.100000,-0.100000)"
fill="#000000" stroke="none">
<path fill="#000000" stroke="none" d="M2 280 c2 -53 14 -61 16 -10 1 21 -3
42 -8 45 -6 4 -9 -10 -8 -35z"/>
<path fill="#000000" stroke="none" d="M34 312 c3 -5 19 -9 36 -10 40 -1 31
13 -10 16 -17 1 -29 -1 -26 -6z"/>
<path fill="#000000" stroke="none" d="M30 281 c0 -4 11 -6 25 -3 14 2 25 6
25 8 0 2 -11 4 -25 4 -14 0 -25 -4 -25 -9z"/>
<path fill="#000000" stroke="none" d="M91 214 c0 -11 3 -14 6 -6 3 7 2 16 -1
19 -3 4 -6 -2 -5 -13z"/>
</g>
</svg>
