<?xml version="1.0" standalone="no"?>
<!DOCTYPE svg PUBLIC "-//W3C//DTD SVG 20010904//EN"
 "http://www.w3.org/TR/2001/REC-SVG-20010904/DTD/svg10.dtd">
<svg version="1.0" xmlns="http://www.w3.org/2000/svg"
 width="32.000000pt" height="32.000000pt" viewBox="0 0 32.000000 32.000000"
 preserveAspectRatio="xMidYMid meet">
<metadata>
Created by potrace 1.16, written by Peter Selinger 2001-2019
</metadata>
<g transform="translate(0.000000,32.000000) scale(0.100000,-0.100000)"
fill="#000000" stroke="none">
<path fill="#000000" stroke="none" d="M18 289 c4 -25 2 -30 -9 -24 -11 6 -12
5 -1 -6 14 -16 16 -33 2 -24 -5 3 -10 -1 -10 -10 0 -10 5 -14 12 -9 11 6 11 4
0 -7 -8 -8 -12 -46 -12 -111 l0 -98 160 0 160 0 0 160 0 160 -100 -1 c-73 -1
-98 -4 -94 -12 5 -8 2 -7 -7 1 -16 14 -33 16 -24 2 3 -5 -1 -10 -10 -10 -10 0
-13 5 -9 13 5 8 2 7 -10 -2 -13 -11 -20 -11 -28 -3 -19 19 -25 14 -20 -19z"/>
<path fill="#ffffff" stroke="none" d="M80 286 c0 -2 -11 -6 -25 -8 -14 -3
-25 -1 -25 3 0 5 11 9 25 9 14 0 25 -2 25 -4z"/>
<path fill="#ffffff" stroke="none" d="M148 223 l-47 -4 -4 -62 -3 -62 -2 68
-2 67 53 -2 52 -2 -47 -3z"/>
<path fill="#ffffff" stroke="none" d="M237 198 c-3 -7 -5 -2 -5 12 0 14 2 19
5 13 2 -7 2 -19 0 -25z"/>
<path fill="#ffffff" stroke="none" d="M123 83 c-7 -2 -19 -2 -25 0 -7 3 -2 5
12 5 14 0 19 -2 13 -5z"/>
<path fill="#ffffff" stroke="none" d="M207 84 c-3 -3 -12 -4 -19 -1 -8 3 -5
6 6 6 11 1 17 -2 13 -5z"/>
</g>
</svg>
