<?xml version="1.0" standalone="no"?>
<!DOCTYPE svg PUBLIC "-//W3C//DTD SVG 20010904//EN"
 "http://www.w3.org/TR/2001/REC-SVG-20010904/DTD/svg10.dtd">
<svg version="1.0" xmlns="http://www.w3.org/2000/svg"
 width="32.000000pt" height="32.000000pt" viewBox="0 0 32.000000 32.000000"
 preserveAspectRatio="xMidYMid meet">
<metadata>
Created by potrace 1.16, written by Peter Selinger 2001-2019
</metadata>
<g transform="translate(0.000000,32.000000) scale(0.100000,-0.100000)"
fill="#000000" stroke="none">
<path fill="#000000" stroke="none" d="M204 313 c5 -10 -15 -13 -88 -13 l-96
0 0 -78 c0 -49 -5 -83 -12 -91 -10 -11 -10 -13 0 -7 7 5 12 1 12 -9 0 -10 -5
-13 -12 -9 -8 5 -7 0 2 -11 9 -11 10 -16 3 -11 -7 4 -13 3 -13 -3 0 -5 5 -13
10 -16 8 -5 7 -11 -1 -21 -6 -7 -9 -21 -5 -29 4 -12 31 -15 161 -15 l155 0 0
154 c0 158 -5 180 -37 154 -12 -9 -15 -9 -9 0 9 15 -16 16 -32 0 -8 -8 -15 -8
-28 3 -12 9 -15 10 -10 2z"/>
<path fill="#ffffff" stroke="none" d="M180 276 c-6 -6 -10 -16 -10 -22 0 -16
60 -9 71 7 11 18 29 -24 28 -63 -1 -19 -3 -25 -6 -13 -14 68 -12 66 -33 55
-11 -6 -20 -18 -20 -26 0 -20 35 -66 44 -57 3 3 6 2 6 -4 0 -22 -12 -19 -40 8
-36 37 -50 37 -50 -1 0 -17 5 -30 13 -30 9 0 9 -2 0 -8 -6 -4 -13 -23 -16 -42
l-4 -35 -1 38 c-2 27 -6 37 -19 38 -17 1 -17 2 0 6 9 2 17 11 17 19 0 8 -4 13
-9 9 -5 -3 -13 -1 -16 5 -4 6 -1 9 6 8 8 -2 13 9 14 30 2 21 -2 32 -11 32 -17
0 -18 -12 -3 -27 8 -8 5 -13 -10 -18 -11 -3 -30 -18 -41 -32 -18 -23 -20 -24
-27 -7 -4 11 -7 38 -8 61 0 32 -3 39 -12 31 -10 -8 -13 -3 -13 21 l0 32 80 -3
c53 -1 77 -5 70 -12z"/>
<path fill="#ffffff" stroke="none" d="M43 175 c4 -8 2 -17 -3 -20 -6 -4 -10
3 -10 14 0 25 6 27 13 6z"/>
<path fill="#ffffff" stroke="none" d="M43 110 c3 -11 2 -22 -2 -24 -4 -3 -8
6 -9 20 -2 29 4 31 11 4z"/>
<path fill="#000000" stroke="none" d="M114 269 c-2 -4 3 -12 11 -19 11 -9 15
-9 15 -1 0 7 5 9 12 5 6 -4 8 -3 4 4 -3 5 0 13 6 15 7 3 0 5 -15 4 -16 -1 -30
-4 -33 -8z"/>
<path fill="#000000" stroke="none" d="M88 239 c-18 -10 -26 -69 -9 -69 16 0
31 27 29 54 -1 14 -3 26 -3 26 0 0 -8 -5 -17 -11z"/>
<path fill="#000000" stroke="none" d="M173 216 c5 -16 27 -19 27 -3 0 7 -7
14 -15 14 -9 0 -14 -5 -12 -11z"/>
</g>
</svg>
