<?xml version="1.0" standalone="no"?>
<!DOCTYPE svg PUBLIC "-//W3C//DTD SVG 20010904//EN"
 "http://www.w3.org/TR/2001/REC-SVG-20010904/DTD/svg10.dtd">
<svg version="1.0" xmlns="http://www.w3.org/2000/svg"
 width="32.000000pt" height="32.000000pt" viewBox="0 0 32.000000 32.000000"
 preserveAspectRatio="xMidYMid meet">
<metadata>
Created by potrace 1.16, written by Peter Selinger 2001-2019
</metadata>
<g transform="translate(0.000000,32.000000) scale(0.100000,-0.100000)"
fill="#000000" stroke="none">
<path fill="#000000" stroke="none" d="M12 312 c-9 -6 -12 -25 -10 -56 l3 -48
37 26 c28 19 35 21 26 7 -6 -10 -24 -23 -39 -28 -25 -10 -29 -17 -29 -47 0
-20 5 -36 10 -36 7 0 7 -6 2 -17 -5 -10 -9 -38 -8 -62 l1 -44 149 -4 c115 -3
151 -1 157 9 9 14 11 271 2 294 -6 17 -64 19 -82 2 -8 -7 -11 -8 -8 -2 5 8
-13 12 -55 13 -47 1 -64 -3 -74 -16 -11 -14 -14 -14 -12 -3 3 17 -49 26 -70
12z"/>
<path fill="#ffffff" stroke="none" d="M285 192 c-3 -3 -11 0 -18 7 -9 10 -8
11 6 5 10 -3 15 -9 12 -12z"/>
<path fill="#ffffff" stroke="none" d="M219 161 c-18 -28 -31 -31 -54 -14 -19
14 -19 14 6 8 29 -7 56 16 43 37 -5 10 -4 10 5 2 10 -9 10 -16 0 -33z"/>
<path fill="#ffffff" stroke="none" d="M37 96 c0 -8 -6 -12 -15 -9 -11 5 -11
7 0 14 7 5 13 9 14 9 0 0 1 -6 1 -14z"/>
<path fill="#ffffff" stroke="none" d="M290 55 c0 -9 -6 -12 -16 -8 -13 5 -13
7 -2 14 17 11 18 11 18 -6z"/>
<path fill="#ffffff" stroke="none" d="M58 27 c8 -10 6 -13 -7 -13 -11 0 -17
6 -14 13 3 7 6 13 8 13 1 0 7 -6 13 -13z"/>
</g>
</svg>
