<?xml version="1.0" standalone="no"?>
<!DOCTYPE svg PUBLIC "-//W3C//DTD SVG 20010904//EN"
 "http://www.w3.org/TR/2001/REC-SVG-20010904/DTD/svg10.dtd">
<svg version="1.0" xmlns="http://www.w3.org/2000/svg"
 width="32.000000pt" height="32.000000pt" viewBox="0 0 32.000000 32.000000"
 preserveAspectRatio="xMidYMid meet">
<metadata>
Created by potrace 1.16, written by Peter Selinger 2001-2019
</metadata>
<g transform="translate(0.000000,32.000000) scale(0.100000,-0.100000)"
fill="#000000" stroke="none">
<path fill="#000000" stroke="none" d="M0 188 c0 -72 3 -128 7 -124 4 3 6 29
4 56 -2 46 -1 49 20 45 12 -2 18 -1 15 3 -4 4 -13 7 -19 7 -7 0 -13 21 -15 53
-2 33 1 52 8 52 6 0 8 5 5 10 -4 6 -3 10 2 9 4 -1 16 1 27 6 11 5 26 3 37 -3
10 -7 22 -12 26 -12 5 0 1 5 -7 10 -11 7 -4 10 28 10 24 0 42 -5 42 -11 0 -8
4 -8 13 -1 6 5 23 12 37 15 14 2 -32 5 -102 6 l-128 1 0 -132z"/>
<path fill="#000000" stroke="none" d="M275 310 c3 -5 8 -10 11 -10 2 0 4 5 4
10 0 6 -5 10 -11 10 -5 0 -7 -4 -4 -10z"/>
<path fill="#000000" stroke="none" d="M165 179 c-4 -6 -5 -12 -2 -15 2 -3 7
2 10 11 7 17 1 20 -8 4z"/>
<path fill="#000000" stroke="none" d="M190 110 c-6 -11 -8 -20 -6 -20 3 0 10
9 16 20 6 11 8 20 6 20 -3 0 -10 -9 -16 -20z"/>
<path fill="#000000" stroke="none" d="M173 61 c-11 -18 -8 -31 8 -31 11 0 18
26 10 38 -4 7 -11 5 -18 -7z"/>
</g>
</svg>
