<?xml version="1.0" standalone="no"?>
<!DOCTYPE svg PUBLIC "-//W3C//DTD SVG 20010904//EN"
 "http://www.w3.org/TR/2001/REC-SVG-20010904/DTD/svg10.dtd">
<svg version="1.0" xmlns="http://www.w3.org/2000/svg"
 width="32.000000pt" height="32.000000pt" viewBox="0 0 32.000000 32.000000"
 preserveAspectRatio="xMidYMid meet">
<metadata>
Created by potrace 1.16, written by Peter Selinger 2001-2019
</metadata>
<g transform="translate(0.000000,32.000000) scale(0.100000,-0.100000)"
fill="#000000" stroke="none">
<path fill="#000000" stroke="none" d="M1 158 c0 -90 3 -157 6 -150 2 6 14 12
25 12 15 0 19 5 15 19 -3 14 0 17 15 13 11 -3 17 -10 14 -18 -3 -8 1 -14 8
-14 8 0 17 6 19 13 4 9 6 9 6 0 1 -18 21 -16 21 2 0 10 10 15 31 15 38 0 69
16 69 35 0 8 5 15 10 15 19 0 10 -20 -21 -42 -17 -13 -41 -22 -55 -20 -13 2
-24 0 -24 -5 0 -4 23 -9 51 -10 38 -2 55 2 71 17 12 11 25 17 30 14 4 -3 8 9
8 26 0 27 -3 30 -20 25 -15 -5 -18 -3 -14 9 3 9 12 16 20 16 8 0 14 5 14 10 0
6 -5 10 -12 10 -9 0 -9 3 0 12 7 7 12 40 12 79 0 45 4 69 13 72 6 3 -61 6
-150 6 l-163 1 1 -162z"/>
<path fill="#ffffff" stroke="none" d="M223 275 c-3 -9 -8 -14 -10 -11 -3 3
-2 9 2 15 9 16 15 13 8 -4z"/>
<path fill="#ffffff" stroke="none" d="M278 263 c-9 -10 -18 -47 -22 -82 -8
-89 -13 -86 -12 8 1 43 4 75 7 69 3 -5 12 -2 19 7 7 8 15 15 18 15 3 0 -2 -8
-10 -17z"/>
<path fill="#ffffff" stroke="none" d="M183 255 c-3 -9 -8 -14 -10 -11 -3 3
-2 9 2 15 9 16 15 13 8 -4z"/>
<path fill="#ffffff" stroke="none" d="M68 229 c-3 -8 -7 -3 -11 10 -4 17 -3
21 5 13 5 -5 8 -16 6 -23z"/>
<path fill="#ffffff" stroke="none" d="M130 212 c-12 -4 -50 17 -50 28 0 5 13
1 30 -8 16 -9 25 -18 20 -20z"/>
<path fill="#ffffff" stroke="none" d="M236 221 c-4 -6 -18 -11 -32 -11 -16 0
-24 -6 -24 -17 0 -10 -4 -24 -8 -31 -5 -8 -8 1 -8 22 1 19 3 34 6 34 24 -2 50
3 49 10 -3 19 2 25 12 15 6 -6 8 -16 5 -22z"/>
<path fill="#ffffff" stroke="none" d="M290 240 c0 -5 -5 -10 -11 -10 -5 0 -7
5 -4 10 3 6 8 10 11 10 2 0 4 -4 4 -10z"/>
<path fill="#ffffff" stroke="none" d="M37 218 c-3 -8 -6 -5 -6 6 -1 11 2 17
5 13 3 -3 4 -12 1 -19z"/>
<path fill="#ffffff" stroke="none" d="M112 193 c-10 -4 -9 -9 5 -20 17 -13
16 -13 -4 -3 -32 15 -38 30 -11 29 13 0 17 -3 10 -6z"/>
<path fill="#ffffff" stroke="none" d="M235 190 c-4 -6 -11 -8 -16 -5 -5 4 -9
1 -9 -5 0 -6 -5 -8 -11 -4 -8 4 -7 9 2 15 19 12 42 11 34 -1z"/>
<path fill="#ffffff" stroke="none" d="M175 121 c-3 -6 -11 -11 -16 -11 -5 0
-4 6 3 14 14 16 24 13 13 -3z"/>
<path fill="#ffffff" stroke="none" d="M84 95 c5 -22 4 -26 -4 -15 -5 8 -10
24 -10 34 0 26 6 18 14 -19z"/>
<path fill="#ffffff" stroke="none" d="M217 98 c2 -18 0 -20 -7 -8 -7 10 -10
11 -10 3 0 -7 -10 -13 -22 -12 l-23 0 21 9 c12 5 25 13 29 19 9 15 11 14 12
-11z"/>
<path fill="#ffffff" stroke="none" d="M135 81 c-3 -3 -10 1 -15 9 -8 13 -10
13 -10 1 0 -8 -3 -12 -6 -8 -3 3 -3 11 1 17 5 8 11 8 21 -1 8 -6 12 -14 9 -18z"/>
</g>
</svg>
