<?xml version="1.0" standalone="no"?>
<!DOCTYPE svg PUBLIC "-//W3C//DTD SVG 20010904//EN"
 "http://www.w3.org/TR/2001/REC-SVG-20010904/DTD/svg10.dtd">
<svg version="1.0" xmlns="http://www.w3.org/2000/svg"
 width="32.000000pt" height="32.000000pt" viewBox="0 0 32.000000 32.000000"
 preserveAspectRatio="xMidYMid meet">
<metadata>
Created by potrace 1.16, written by Peter Selinger 2001-2019
</metadata>
<g transform="translate(0.000000,32.000000) scale(0.100000,-0.100000)"
fill="#000000" stroke="none">
<path fill="#000000" stroke="none" d="M1 158 c0 -90 3 -157 6 -150 3 8 31 12
88 12 57 0 86 4 94 13 6 8 8 16 5 19 -2 3 2 8 10 11 12 5 13 1 6 -18 -9 -24
-8 -25 40 -25 l50 0 0 91 c0 57 -4 88 -10 84 -5 -3 -10 -1 -10 4 0 6 4 11 8
11 5 0 10 21 11 47 1 26 7 51 14 55 6 4 -61 8 -150 8 l-163 0 1 -162z"/>
<path fill="#ffffff" stroke="none" d="M90 280 c0 -4 -6 -12 -12 -18 -10 -8
-13 -5 -13 13 0 14 5 21 13 18 6 -3 12 -9 12 -13z"/>
<path fill="#ffffff" stroke="none" d="M210 285 c-7 -9 -15 -13 -19 -10 -3 3
1 10 9 15 21 14 24 12 10 -5z"/>
<path fill="#ffffff" stroke="none" d="M250 260 c0 -5 -5 -10 -11 -10 -5 0 -7
5 -4 10 3 6 8 10 11 10 2 0 4 -4 4 -10z"/>
<path fill="#ffffff" stroke="none" d="M155 111 c1 -11 -4 -22 -11 -25 -16 -6
-27 23 -14 39 5 6 8 14 6 17 -1 3 2 2 7 -3 6 -5 11 -18 12 -28z"/>
<path fill="#ffffff" stroke="none" d="M70 85 c0 -8 -4 -15 -10 -15 -5 0 -7 7
-4 15 4 8 8 15 10 15 2 0 4 -7 4 -15z"/>
</g>
</svg>
