<?xml version="1.0" standalone="no"?>
<!DOCTYPE svg PUBLIC "-//W3C//DTD SVG 20010904//EN"
 "http://www.w3.org/TR/2001/REC-SVG-20010904/DTD/svg10.dtd">
<svg version="1.0" xmlns="http://www.w3.org/2000/svg"
 width="32.000000pt" height="32.000000pt" viewBox="0 0 32.000000 32.000000"
 preserveAspectRatio="xMidYMid meet">
<metadata>
Created by potrace 1.16, written by Peter Selinger 2001-2019
</metadata>
<g transform="translate(0.000000,32.000000) scale(0.100000,-0.100000)"
fill="#000000" stroke="none">
<path fill="#000000" stroke="none" d="M135 308 c6 -16 -21 -52 -33 -45 -4 3
-15 -3 -22 -14 -8 -10 -26 -19 -39 -19 -17 0 -22 -3 -15 -10 12 -12 64 3 64
18 0 14 38 11 44 -4 3 -9 11 -12 16 -9 6 4 17 1 25 -5 20 -16 19 -3 0 16 -19
19 -19 38 -1 31 8 -3 17 0 20 8 3 9 -5 17 -22 23 -26 9 -25 9 11 10 21 0 41 3
44 6 4 3 -17 6 -45 6 -37 0 -50 -4 -47 -12z"/>
<path fill="#ffffff" stroke="none" d="M156 264 c-6 -13 -15 -19 -20 -14 -12
12 -1 37 16 37 12 0 12 -5 4 -23z"/>
<path fill="#000000" stroke="none" d="M267 312 c7 -4 17 -19 22 -32 10 -24
10 -24 8 8 -1 25 -6 32 -22 32 -13 0 -16 -3 -8 -8z"/>
<path fill="#000000" stroke="none" d="M2 126 c-2 -107 7 -146 11 -50 1 36 6
49 17 49 8 0 14 -8 14 -17 -1 -10 2 -16 6 -13 5 3 11 -1 13 -7 3 -8 6 -6 6 5
1 11 6 15 13 11 7 -4 8 -3 4 4 -4 7 -1 12 9 12 9 0 13 5 10 10 -4 6 -10 8 -15
5 -4 -3 -10 -2 -13 2 -2 5 -2 2 -1 -4 4 -17 -4 -16 -23 2 -11 12 -18 13 -29 5
-10 -9 -14 -1 -17 42 -2 29 -4 4 -5 -56z"/>
<path fill="#000000" stroke="none" d="M287 204 c-3 -3 -3 -12 0 -20 3 -8 1
-14 -4 -14 -5 0 -9 -9 -9 -20 0 -11 4 -20 8 -20 9 0 9 1 13 48 2 34 2 35 -8
26z"/>
<path fill="#000000" stroke="none" d="M42 180 c13 -20 28 -27 28 -12 0 12
-14 27 -28 30 -10 2 -10 -2 0 -18z"/>
<path fill="#000000" stroke="none" d="M216 177 c3 -10 9 -15 12 -12 3 3 0 11
-7 18 -10 9 -11 8 -5 -6z"/>
<path fill="#000000" stroke="none" d="M139 138 c-3 -28 -4 -32 -12 -46 -5 -7
-14 -9 -20 -6 -7 4 -8 3 -4 -1 12 -13 37 -15 34 -2 -1 6 4 11 11 12 14 0 15 7
2 37 -7 19 -9 20 -11 6z"/>
<path fill="#000000" stroke="none" d="M223 107 c-8 -16 -7 -25 3 -35 7 -6 15
-8 19 -3 3 5 1 13 -5 16 -6 4 -8 15 -5 26 9 26 0 24 -12 -4z"/>
<path fill="#000000" stroke="none" d="M177 79 c7 -7 15 -10 18 -7 3 3 -2 9
-12 12 -14 6 -15 5 -6 -5z"/>
<path fill="#000000" stroke="none" d="M23 56 c2 -6 12 -12 23 -13 10 -2 13 0
6 3 -6 3 -10 9 -8 13 3 4 -2 8 -10 8 -8 0 -13 -5 -11 -11z"/>
<path fill="#000000" stroke="none" d="M270 40 c-12 -23 2 -27 19 -6 8 9 8 16
2 20 -6 4 -15 -3 -21 -14z"/>
<path fill="#000000" stroke="none" d="M90 39 c0 -5 5 -7 10 -4 6 3 10 8 10
11 0 2 -4 4 -10 4 -5 0 -10 -5 -10 -11z"/>
<path fill="#000000" stroke="none" d="M170 40 c0 -15 39 -22 57 -11 10 6 16
11 13 11 -32 6 -70 6 -70 0z"/>
</g>
</svg>
