<?xml version="1.0" standalone="no"?>
<!DOCTYPE svg PUBLIC "-//W3C//DTD SVG 20010904//EN"
 "http://www.w3.org/TR/2001/REC-SVG-20010904/DTD/svg10.dtd">
<svg version="1.0" xmlns="http://www.w3.org/2000/svg"
 width="32.000000pt" height="32.000000pt" viewBox="0 0 32.000000 32.000000"
 preserveAspectRatio="xMidYMid meet">
<metadata>
Created by potrace 1.16, written by Peter Selinger 2001-2019
</metadata>
<g transform="translate(0.000000,32.000000) scale(0.100000,-0.100000)"
fill="#000000" stroke="none">
<path fill="#000000" stroke="none" d="M1 168 c1 -97 4 -138 9 -113 7 39 7 39
9 8 0 -18 6 -33 11 -33 11 0 3 48 -12 66 -11 15 -8 134 3 134 5 0 9 -6 9 -12
1 -7 8 0 16 16 11 20 18 25 24 17 5 -9 9 -8 14 4 4 12 1 15 -12 13 -20 -3 -65
26 -55 35 10 10 25 8 18 -2 -8 -14 10 -22 31 -14 16 6 16 7 -2 14 -18 7 -18 8
2 8 15 1 24 -7 28 -24 4 -14 4 -30 1 -35 -13 -21 13 -9 28 13 l16 22 -5 -25
c-2 -14 -2 -19 2 -12 3 6 12 12 20 12 11 0 10 6 -6 22 -19 21 -20 23 -3 30 10
3 -19 7 -64 7 l-83 1 1 -152z"/>
<path fill="#ffffff" stroke="none" d="M40 245 c0 -9 -6 -12 -16 -8 -13 5 -13
7 -2 14 17 11 18 11 18 -6z"/>
<path fill="#000000" stroke="none" d="M170 316 c0 -10 28 -13 41 -5 10 6 7 9
-13 9 -16 0 -28 -2 -28 -4z"/>
<path fill="#000000" stroke="none" d="M240 316 c0 -8 51 -13 56 -5 3 5 -9 9
-25 9 -17 0 -31 -2 -31 -4z"/>
<path fill="#000000" stroke="none" d="M177 293 c-7 -7 4 -43 14 -43 8 0 33
39 27 41 -20 5 -38 6 -41 2z"/>
<path fill="#000000" stroke="none" d="M246 289 c2 -4 -2 -10 -8 -12 -10 -4
-9 -6 1 -6 10 -1 11 -5 3 -13 -8 -10 -4 -13 15 -15 14 0 29 -7 34 -14 6 -10 8
-7 6 8 0 12 -6 19 -12 16 -5 -3 -4 0 3 8 20 22 14 35 -17 35 -17 0 -28 -3 -25
-7z"/>
<path fill="#000000" stroke="none" d="M110 213 c-15 -9 -18 -12 -6 -8 12 3
24 -2 33 -15 8 -11 19 -17 25 -14 7 4 8 2 4 -5 -4 -6 -11 -9 -16 -6 -16 10
-18 -10 -4 -35 l13 -25 1 27 c0 15 5 30 10 33 6 4 8 10 5 15 -3 5 -1 11 5 15
5 3 10 11 10 17 0 6 -3 9 -6 5 -3 -3 -16 -2 -28 3 -14 5 -30 3 -46 -7z"/>
<path fill="#000000" stroke="none" d="M41 190 c0 -8 4 -22 9 -30 12 -18 12
-2 0 25 -6 13 -9 15 -9 5z"/>
<path fill="#000000" stroke="none" d="M267 171 c-4 -17 -3 -21 5 -13 5 5 8
16 6 23 -3 8 -7 3 -11 -10z"/>
<path fill="#000000" stroke="none" d="M77 173 c-5 -12 -3 -26 10 -48 10 -17
13 -17 30 -5 16 13 17 13 6 -1 -7 -9 -9 -20 -5 -24 4 -5 1 -5 -5 -1 -9 5 -11
2 -7 -8 3 -9 9 -15 12 -14 4 1 17 -3 30 -10 12 -7 22 -8 22 -3 0 5 -7 11 -17
13 -10 2 -17 15 -19 38 -5 57 -6 58 -31 54 -15 -3 -22 -1 -18 6 3 5 4 10 1 10
-3 0 -7 -3 -9 -7z"/>
<path fill="#000000" stroke="none" d="M230 165 c-7 -9 -8 -15 -2 -15 5 0 12
7 16 15 3 8 4 15 2 15 -2 0 -9 -7 -16 -15z"/>
<path fill="#000000" stroke="none" d="M202 139 c1 -19 3 -28 5 -21 3 6 9 10
14 6 13 -8 10 8 -6 30 -13 17 -14 15 -13 -15z"/>
<path fill="#000000" stroke="none" d="M30 155 c0 -4 9 -18 20 -32 11 -14 20
-22 20 -18 0 4 -9 18 -20 32 -11 14 -20 22 -20 18z"/>
<path fill="#000000" stroke="none" d="M183 97 c1 -15 5 -27 10 -27 10 0 9 22
-2 39 -7 10 -9 7 -8 -12z"/>
<path fill="#000000" stroke="none" d="M125 30 c3 -5 8 -10 11 -10 2 0 4 5 4
10 0 6 -5 10 -11 10 -5 0 -7 -4 -4 -10z"/>
</g>
</svg>
