<?xml version="1.0" standalone="no"?>
<!DOCTYPE svg PUBLIC "-//W3C//DTD SVG 20010904//EN"
 "http://www.w3.org/TR/2001/REC-SVG-20010904/DTD/svg10.dtd">
<svg version="1.0" xmlns="http://www.w3.org/2000/svg"
 width="32.000000pt" height="32.000000pt" viewBox="0 0 32.000000 32.000000"
 preserveAspectRatio="xMidYMid meet">
<metadata>
Created by potrace 1.16, written by Peter Selinger 2001-2019
</metadata>
<g transform="translate(0.000000,32.000000) scale(0.100000,-0.100000)"
fill="#000000" stroke="none">
<path fill="#000000" stroke="none" d="M1 158 c0 -90 3 -157 6 -150 2 6 14 12
25 12 15 0 19 5 15 19 -3 14 0 17 15 13 11 -3 17 -10 14 -18 -3 -8 1 -14 8
-14 8 0 17 6 19 13 4 9 6 9 6 0 1 -18 21 -16 21 2 0 9 9 15 21 15 14 0 19 5
17 17 -4 22 37 67 53 58 8 -6 8 -10 -2 -17 -12 -8 -11 -9 0 -6 20 6 29 46 28
113 -1 30 0 50 2 44 2 -6 12 -3 25 8 21 18 21 18 5 -2 -9 -11 -19 -48 -22 -83
-6 -62 -6 -63 16 -56 30 9 34 14 18 23 -9 6 -10 11 -2 15 6 4 11 36 11 76 0
45 4 70 13 73 6 3 -61 6 -150 6 l-163 1 1 -162z"/>
<path fill="#ffffff" stroke="none" d="M200 291 c-5 -11 -8 -26 -5 -34 4 -8 0
-14 -10 -14 -10 0 -15 8 -13 21 1 12 -1 27 -5 34 -6 8 0 12 18 12 22 0 24 -3
15 -19z"/>
<path fill="#ffffff" stroke="none" d="M223 275 c-3 -9 -8 -14 -10 -11 -3 3
-2 9 2 15 9 16 15 13 8 -4z"/>
<path fill="#ffffff" stroke="none" d="M68 229 c-3 -8 -7 -3 -11 10 -4 17 -3
21 5 13 5 -5 8 -16 6 -23z"/>
<path fill="#ffffff" stroke="none" d="M137 195 c-2 -11 -6 -24 -8 -30 -2 -5
0 -11 4 -12 5 -1 14 -9 21 -19 11 -14 13 -9 12 34 -1 28 1 50 4 50 25 -2 50 4
48 11 -2 5 2 9 7 10 6 1 10 -5 10 -11 0 -7 -12 -14 -27 -16 -28 -3 -30 -7 -32
-72 -1 -34 -41 -41 -49 -8 l-6 23 -21 -23 c-14 -15 -19 -30 -15 -45 5 -19 4
-20 -5 -4 -6 9 -19 17 -29 17 -10 0 -24 7 -31 15 -9 10 -9 15 -1 15 6 0 11 -4
11 -10 0 -19 33 -10 57 16 19 21 21 29 12 40 -7 8 -13 27 -14 43 l-2 29 29
-17 c20 -11 28 -22 25 -36z"/>
<path fill="#ffffff" stroke="none" d="M290 240 c0 -5 -5 -10 -11 -10 -5 0 -7
5 -4 10 3 6 8 10 11 10 2 0 4 -4 4 -10z"/>
<path fill="#ffffff" stroke="none" d="M37 218 c-3 -8 -6 -5 -6 6 -1 11 2 17
5 13 3 -3 4 -12 1 -19z"/>
<path fill="#ffffff" stroke="none" d="M235 190 c-4 -6 -11 -8 -16 -5 -5 4 -9
1 -9 -5 0 -6 -5 -8 -11 -4 -8 4 -7 9 2 15 19 12 42 11 34 -1z"/>
<path fill="#ffffff" stroke="none" d="M135 81 c-3 -3 -10 1 -15 9 -8 13 -10
13 -10 1 0 -8 -3 -12 -6 -8 -3 3 -3 11 1 17 5 8 11 8 21 -1 8 -6 12 -14 9 -18z"/>
<path fill="#000000" stroke="none" d="M271 103 c-8 -3 -25 -18 -37 -32 -19
-22 -21 -28 -9 -40 11 -11 17 -10 36 7 12 12 26 19 31 16 4 -3 8 9 8 25 0 31
-3 34 -29 24z"/>
<path fill="#000000" stroke="none" d="M140 32 c0 -9 45 -10 54 -2 3 3 -8 7
-24 8 -17 1 -30 -1 -30 -6z"/>
</g>
</svg>
