<?xml version="1.0" standalone="no"?>
<!DOCTYPE svg PUBLIC "-//W3C//DTD SVG 20010904//EN"
 "http://www.w3.org/TR/2001/REC-SVG-20010904/DTD/svg10.dtd">
<svg version="1.0" xmlns="http://www.w3.org/2000/svg"
 width="32.000000pt" height="32.000000pt" viewBox="0 0 32.000000 32.000000"
 preserveAspectRatio="xMidYMid meet">
<metadata>
Created by potrace 1.16, written by Peter Selinger 2001-2019
</metadata>
<g transform="translate(0.000000,32.000000) scale(0.100000,-0.100000)"
fill="#000000" stroke="none">
<path fill="#000000" stroke="none" d="M0 170 l0 -150 39 0 c22 0 43 5 47 12
4 7 3 8 -4 4 -7 -4 -12 -2 -12 4 0 6 -5 8 -10 5 -15 -9 -31 38 -16 47 7 5 5 8
-6 8 -10 0 -18 7 -18 15 0 23 16 18 40 -12 12 -16 29 -29 38 -30 10 -1 31 -5
47 -8 26 -5 27 -4 7 4 -12 6 -22 13 -22 16 0 4 4 4 9 0 6 -3 8 8 4 28 -4 28 0
39 23 61 21 19 37 26 56 23 25 -3 27 -1 23 24 -4 22 -2 27 9 23 8 -3 12 -12 9
-20 -3 -8 0 -14 6 -14 6 0 11 5 11 12 0 6 3 8 7 4 5 -4 -1 -15 -12 -23 -16
-13 -17 -15 -2 -10 23 8 22 -9 -3 -56 -11 -20 -16 -37 -11 -37 13 0 32 26 24
33 -3 4 -1 7 5 7 6 0 11 32 11 90 l1 90 -27 0 c-14 0 -24 -3 -20 -6 3 -4 0
-13 -8 -21 -8 -8 -13 -27 -11 -44 4 -33 -17 -50 -36 -31 -6 6 -17 8 -26 5 -10
-4 -13 -2 -8 5 12 20 -10 14 -29 -8 -15 -16 -16 -22 -5 -35 11 -13 11 -16 0
-13 -9 2 -17 -13 -23 -45 -11 -59 -29 -62 -21 -3 4 30 2 46 -6 51 -10 6 -12
-1 -7 -30 l6 -38 -31 34 c-17 19 -28 26 -25 16 4 -10 3 -16 -2 -12 -6 3 -9 14
-8 25 1 10 3 17 5 15 8 -8 43 38 38 51 -3 8 -1 14 4 14 5 0 10 -6 12 -13 2
-10 8 -10 26 -1 21 10 22 13 8 27 -8 8 -12 18 -8 23 4 5 -1 2 -11 -6 -17 -12
-18 -12 -15 6 1 10 10 22 18 26 8 4 -9 7 -37 7 l-53 1 0 -150z"/>
<path fill="#000000" stroke="none" d="M124 306 c-10 -27 1 -51 23 -51 12 0
25 -3 29 -7 11 -12 24 -10 24 4 0 6 7 19 16 29 9 10 13 23 9 28 -10 17 -95 14
-101 -3z"/>
<path fill="#ffffff" stroke="none" d="M170 295 c-10 -12 -10 -15 0 -15 8 0
10 -3 7 -6 -9 -9 -38 16 -31 27 3 5 12 9 21 9 13 0 13 -3 3 -15z"/>
<path fill="#000000" stroke="none" d="M80 216 c-5 -5 -10 -13 -10 -17 0 -12
38 2 43 15 6 15 -18 17 -33 2z"/>
<path fill="#000000" stroke="none" d="M40 183 c0 -10 5 -25 10 -33 7 -11 9
-6 7 17 -2 34 -17 47 -17 16z"/>
<path fill="#000000" stroke="none" d="M216 165 c-16 -12 -22 -12 -28 -2 -4 6
-8 7 -8 2 0 -6 6 -17 13 -24 8 -9 8 -12 0 -7 -13 7 -13 -50 0 -72 5 -6 5 -17
2 -22 -3 -5 -4 -10 -1 -10 3 0 10 10 17 21 8 15 8 19 0 15 -6 -4 -11 -3 -11 3
0 5 5 13 10 16 6 4 8 11 5 16 -4 5 1 9 9 9 9 0 16 3 17 8 0 4 3 19 5 35 5 30
-2 33 -30 12z"/>
<path fill="#000000" stroke="none" d="M250 60 c-6 -11 -8 -20 -6 -20 3 0 10
9 16 20 6 11 8 20 6 20 -3 0 -10 -9 -16 -20z"/>
<path fill="#000000" stroke="none" d="M113 35 c0 -9 10 -15 24 -15 26 0 31
15 7 24 -24 9 -31 7 -31 -9z"/>
</g>
</svg>
