<?xml version="1.0" standalone="no"?>
<!DOCTYPE svg PUBLIC "-//W3C//DTD SVG 20010904//EN"
 "http://www.w3.org/TR/2001/REC-SVG-20010904/DTD/svg10.dtd">
<svg version="1.0" xmlns="http://www.w3.org/2000/svg"
 width="32.000000pt" height="32.000000pt" viewBox="0 0 32.000000 32.000000"
 preserveAspectRatio="xMidYMid meet">
<metadata>
Created by potrace 1.16, written by Peter Selinger 2001-2019
</metadata>
<g transform="translate(0.000000,32.000000) scale(0.100000,-0.100000)"
fill="#000000" stroke="none">
<path fill="#000000" stroke="none" d="M0 160 c0 -100 4 -160 10 -160 6 0 10
4 10 10 0 5 48 9 113 9 175 -1 164 -4 170 33 3 18 -1 45 -8 61 -8 15 -9 25 -4
22 5 -4 9 1 9 9 0 10 -6 13 -15 10 -9 -4 -15 0 -15 7 0 11 -3 11 -10 -1 -6 -9
-10 -10 -10 -3 0 7 10 17 21 24 17 9 20 8 14 -2 -5 -7 -4 -10 2 -6 5 3 11 32
12 64 1 31 7 63 13 70 8 11 -21 13 -151 13 l-161 0 0 -160z"/>
<path fill="#ffffff" stroke="none" d="M250 278 c0 -4 -4 -8 -9 -8 -6 0 -12 4
-15 8 -3 5 1 9 9 9 8 0 15 -4 15 -9z"/>
<path fill="#ffffff" stroke="none" d="M150 245 c0 -12 -29 -3 -34 10 -4 13
-2 14 14 5 11 -6 20 -13 20 -15z"/>
</g>
</svg>
