<?xml version="1.0" standalone="no"?>
<!DOCTYPE svg PUBLIC "-//W3C//DTD SVG 20010904//EN"
 "http://www.w3.org/TR/2001/REC-SVG-20010904/DTD/svg10.dtd">
<svg version="1.0" xmlns="http://www.w3.org/2000/svg"
 width="32.000000pt" height="32.000000pt" viewBox="0 0 32.000000 32.000000"
 preserveAspectRatio="xMidYMid meet">
<metadata>
Created by potrace 1.16, written by Peter Selinger 2001-2019
</metadata>
<g transform="translate(0.000000,32.000000) scale(0.100000,-0.100000)"
fill="#000000" stroke="none">
<path fill="#000000" stroke="none" d="M2 203 c1 -65 3 -97 5 -70 4 49 10 55
32 35 11 -11 11 -9 0 9 -7 12 -17 19 -21 17 -4 -3 -8 22 -8 55 l0 60 123 4
122 3 -127 2 -128 2 2 -117z"/>
<path fill="#000000" stroke="none" d="M270 289 c0 -5 5 -7 10 -4 6 3 10 8 10
11 0 2 -4 4 -10 4 -5 0 -10 -5 -10 -11z"/>
<path fill="#000000" stroke="none" d="M121 234 c6 -7 16 -11 21 -8 11 7 3 17
-18 20 -12 2 -13 -1 -3 -12z"/>
<path fill="#000000" stroke="none" d="M46 217 c3 -10 9 -15 12 -12 3 3 0 11
-7 18 -10 9 -11 8 -5 -6z"/>
<path fill="#000000" stroke="none" d="M195 200 c-3 -6 1 -7 9 -4 18 7 21 14
7 14 -6 0 -13 -4 -16 -10z"/>
<path fill="#000000" stroke="none" d="M144 154 c0 -30 2 -33 9 -16 5 12 5 26
0 36 -7 12 -9 7 -9 -20z"/>
<path fill="#000000" stroke="none" d="M93 138 c-2 -15 1 -17 11 -9 7 6 16 7
21 3 4 -4 6 -1 3 7 -7 22 -34 21 -35 -1z"/>
<path fill="#000000" stroke="none" d="M180 155 c0 -2 6 -8 13 -14 10 -8 14
-7 14 2 0 8 -6 14 -14 14 -7 0 -13 -1 -13 -2z"/>
<path fill="#000000" stroke="none" d="M55 119 c-4 -6 -5 -12 -2 -15 2 -3 7 2
10 11 7 17 1 20 -8 4z"/>
<path fill="#000000" stroke="none" d="M216 83 c-6 -14 -5 -15 5 -6 7 7 10 15
7 18 -3 3 -9 -2 -12 -12z"/>
<path fill="#000000" stroke="none" d="M140 70 c0 -5 5 -10 11 -10 5 0 7 5 4
10 -3 6 -8 10 -11 10 -2 0 -4 -4 -4 -10z"/>
</g>
</svg>
