<?xml version="1.0" standalone="no"?>
<!DOCTYPE svg PUBLIC "-//W3C//DTD SVG 20010904//EN"
 "http://www.w3.org/TR/2001/REC-SVG-20010904/DTD/svg10.dtd">
<svg version="1.0" xmlns="http://www.w3.org/2000/svg"
 width="32.000000pt" height="32.000000pt" viewBox="0 0 32.000000 32.000000"
 preserveAspectRatio="xMidYMid meet">
<metadata>
Created by potrace 1.16, written by Peter Selinger 2001-2019
</metadata>
<g transform="translate(0.000000,32.000000) scale(0.100000,-0.100000)"
fill="#000000" stroke="none">
<path fill="#000000" stroke="none" d="M2 238 c1 -46 3 -64 5 -40 3 30 9 42
20 42 21 0 55 40 49 57 -4 10 4 13 34 11 22 -2 40 -4 40 -6 0 -1 -6 -12 -12
-23 -10 -17 -10 -23 -1 -26 7 -2 10 -10 7 -18 -3 -7 0 -16 5 -20 6 -3 9 -10 6
-15 -3 -4 3 -11 12 -14 10 -4 14 -4 10 0 -4 4 -2 13 3 20 8 9 6 12 -6 10 -12
-1 -17 7 -18 27 -2 32 2 33 20 10 9 -12 13 -14 14 -5 0 7 5 10 10 7 6 -3 10
-1 10 5 0 7 -6 10 -12 7 -12 -3 -37 19 -38 35 0 4 10 9 23 11 12 2 -24 5 -80
6 l-103 1 2 -82z"/>
<path fill="#ffffff" stroke="none" d="M58 287 c3 -16 -35 -44 -45 -33 -4 3
-1 18 6 32 12 27 34 28 39 1z"/>
<path fill="#000000" stroke="none" d="M248 286 c-16 -19 -28 -41 -28 -48 0
-11 2 -10 9 0 6 11 11 10 25 -3 14 -15 16 -15 16 -1 0 9 -7 16 -15 16 -8 0
-15 4 -15 9 0 5 7 11 15 15 8 3 15 12 15 21 0 8 4 15 10 15 5 0 7 -7 4 -15 -4
-8 -1 -15 5 -15 6 0 11 9 11 20 0 30 -22 24 -52 -14z"/>
<path fill="#000000" stroke="none" d="M97 243 c-4 -3 0 -14 9 -24 14 -16 14
-20 0 -48 -22 -41 -46 -53 -71 -35 -31 23 -35 17 -34 -53 2 -54 3 -60 8 -30 3
21 9 36 12 35 3 -2 14 3 23 11 15 13 19 13 28 0 8 -11 9 -11 5 3 -3 9 1 22 9
29 23 19 37 51 39 87 2 30 -12 42 -28 25z"/>
<path fill="#ffffff" stroke="none" d="M45 112 c-12 -12 -35 -10 -35 3 0 8 7
11 20 8 12 -3 18 -8 15 -11z"/>
<path fill="#000000" stroke="none" d="M210 200 c0 -5 5 -10 11 -10 5 0 7 5 4
10 -3 6 -8 10 -11 10 -2 0 -4 -4 -4 -10z"/>
<path fill="#000000" stroke="none" d="M260 200 c0 -5 5 -10 11 -10 5 0 7 5 4
10 -3 6 -8 10 -11 10 -2 0 -4 -4 -4 -10z"/>
<path fill="#000000" stroke="none" d="M290 175 c0 -17 -6 -25 -17 -25 -19 0
-9 -13 12 -16 11 -2 15 8 15 32 0 19 -2 34 -5 34 -3 0 -5 -11 -5 -25z"/>
<path fill="#000000" stroke="none" d="M149 165 c15 -29 40 -59 45 -54 2 2 7
15 10 29 6 22 6 23 -5 6 -11 -17 -13 -17 -36 10 -13 16 -19 20 -14 9z"/>
<path fill="#000000" stroke="none" d="M104 92 c20 -23 32 -29 21 -12 -8 13
18 13 32 -1 7 -7 12 -6 16 5 5 12 0 16 -22 16 -16 0 -38 3 -48 7 -17 6 -17 5
1 -15z"/>
<path fill="#000000" stroke="none" d="M24 50 c0 -17 4 -30 9 -30 4 0 5 11 3
24 -2 14 1 27 7 30 7 2 5 5 -4 5 -12 1 -16 -7 -15 -29z"/>
<path fill="#000000" stroke="none" d="M80 76 c0 -2 7 -7 16 -10 8 -3 12 -2 9
4 -6 10 -25 14 -25 6z"/>
<path fill="#000000" stroke="none" d="M262 42 c-11 -25 -11 -25 4 -10 9 9 15
21 13 27 -2 6 -10 -2 -17 -17z"/>
<path fill="#000000" stroke="none" d="M133 46 c1 -11 9 -21 17 -23 10 -3 11
-2 4 4 -6 4 -14 15 -17 23 -5 11 -6 9 -4 -4z"/>
<path fill="#000000" stroke="none" d="M175 30 c-3 -5 -1 -10 4 -10 6 0 11 5
11 10 0 6 -2 10 -4 10 -3 0 -8 -4 -11 -10z"/>
</g>
</svg>
