<?xml version="1.0" standalone="no"?>
<!DOCTYPE svg PUBLIC "-//W3C//DTD SVG 20010904//EN"
 "http://www.w3.org/TR/2001/REC-SVG-20010904/DTD/svg10.dtd">
<svg version="1.0" xmlns="http://www.w3.org/2000/svg"
 width="32.000000pt" height="32.000000pt" viewBox="0 0 32.000000 32.000000"
 preserveAspectRatio="xMidYMid meet">
<metadata>
Created by potrace 1.16, written by Peter Selinger 2001-2019
</metadata>
<g transform="translate(0.000000,32.000000) scale(0.100000,-0.100000)"
fill="#000000" stroke="none">
<path fill="#000000" stroke="none" d="M4 306 c-3 -8 -4 -76 -2 -151 2 -105 6
-138 18 -145 8 -5 18 -6 23 -3 6 3 42 5 81 5 39 -1 89 3 111 8 25 6 44 5 50
-1 23 -23 24 -17 28 169 l3 132 -153 0 c-124 0 -155 -3 -159 -14z"/>
<path fill="#ffffff" stroke="none" d="M168 153 c-10 -2 -28 -2 -40 0 -13 2
-5 4 17 4 22 1 32 -1 23 -4z"/>
</g>
</svg>
