<?xml version="1.0" standalone="no"?>
<!DOCTYPE svg PUBLIC "-//W3C//DTD SVG 20010904//EN"
 "http://www.w3.org/TR/2001/REC-SVG-20010904/DTD/svg10.dtd">
<svg version="1.0" xmlns="http://www.w3.org/2000/svg"
 width="32.000000pt" height="32.000000pt" viewBox="0 0 32.000000 32.000000"
 preserveAspectRatio="xMidYMid meet">
<metadata>
Created by potrace 1.16, written by Peter Selinger 2001-2019
</metadata>
<g transform="translate(0.000000,32.000000) scale(0.100000,-0.100000)"
fill="#000000" stroke="none">
<path fill="#000000" stroke="none" d="M0 160 l0 -160 160 0 160 0 0 160 0
160 -160 0 -160 0 0 -160z"/>
<path fill="#ffffff" stroke="none" d="M108 295 c2 -2 -19 -5 -47 -6 -36 -3
-51 0 -51 8 0 9 13 11 48 6 26 -3 48 -7 50 -8z"/>
<path fill="#ffffff" stroke="none" d="M95 122 c-40 -2 -73 -8 -77 -15 -5 -8
-8 -7 -8 4 0 24 3 24 82 19 l73 -5 -70 -3z"/>
</g>
</svg>
