<?xml version="1.0" standalone="no"?>
<!DOCTYPE svg PUBLIC "-//W3C//DTD SVG 20010904//EN"
 "http://www.w3.org/TR/2001/REC-SVG-20010904/DTD/svg10.dtd">
<svg version="1.0" xmlns="http://www.w3.org/2000/svg"
 width="32.000000pt" height="32.000000pt" viewBox="0 0 32.000000 32.000000"
 preserveAspectRatio="xMidYMid meet">
<metadata>
Created by potrace 1.16, written by Peter Selinger 2001-2019
</metadata>
<g transform="translate(0.000000,32.000000) scale(0.100000,-0.100000)"
fill="#000000" stroke="none">
<path fill="#000000" stroke="none" d="M1 198 c0 -68 2 -137 5 -155 l6 -31
124 2 c69 1 127 0 130 -3 2 -3 13 -5 24 -6 17 -1 20 5 20 44 0 25 2 64 3 86 2
22 -1 52 -7 68 -7 19 -7 36 1 56 19 51 8 55 -156 58 l-150 3 0 -122z"/>
<path fill="#ffffff" stroke="none" d="M237 154 c-3 -3 -12 -4 -19 -1 -8 3 -5
6 6 6 11 1 17 -2 13 -5z"/>
</g>
</svg>
