<?xml version="1.0" standalone="no"?>
<!DOCTYPE svg PUBLIC "-//W3C//DTD SVG 20010904//EN"
 "http://www.w3.org/TR/2001/REC-SVG-20010904/DTD/svg10.dtd">
<svg version="1.0" xmlns="http://www.w3.org/2000/svg"
 width="32.000000pt" height="32.000000pt" viewBox="0 0 32.000000 32.000000"
 preserveAspectRatio="xMidYMid meet">
<metadata>
Created by potrace 1.16, written by Peter Selinger 2001-2019
</metadata>
<g transform="translate(0.000000,32.000000) scale(0.100000,-0.100000)"
fill="#000000" stroke="none">
<path fill="#000000" stroke="none" d="M0 160 l0 -160 160 0 160 0 0 160 0
160 -160 0 -160 0 0 -160z"/>
<path fill="#ffffff" stroke="none" d="M297 293 c2 -4 -53 -7 -121 -5 -79 2
-132 -1 -145 -8 -18 -9 -21 -8 -21 7 0 17 12 18 142 16 79 -1 144 -5 145 -10z"/>
<path fill="#ffffff" stroke="none" d="M69 186 c-2 -2 -17 -6 -34 -10 -22 -5
-26 -4 -15 4 14 9 59 15 49 6z"/>
<path fill="#ffffff" stroke="none" d="M135 124 c-46 -7 -125 -8 -125 -1 0 4
33 6 73 6 39 -1 63 -3 52 -5z"/>
</g>
</svg>
