<?xml version="1.0" standalone="no"?>
<!DOCTYPE svg PUBLIC "-//W3C//DTD SVG 20010904//EN"
 "http://www.w3.org/TR/2001/REC-SVG-20010904/DTD/svg10.dtd">
<svg version="1.0" xmlns="http://www.w3.org/2000/svg"
 width="32.000000pt" height="32.000000pt" viewBox="0 0 32.000000 32.000000"
 preserveAspectRatio="xMidYMid meet">
<metadata>
Created by potrace 1.16, written by Peter Selinger 2001-2019
</metadata>
<g transform="translate(0.000000,32.000000) scale(0.100000,-0.100000)"
fill="#000000" stroke="none">
<path fill="#000000" stroke="none" d="M33 293 c9 -2 23 -2 30 0 6 3 -1 5 -18
5 -17 0 -22 -2 -12 -5z"/>
<path fill="#000000" stroke="none" d="M148 293 c7 -3 16 -2 19 1 4 3 -2 6
-13 5 -11 0 -14 -3 -6 -6z"/>
<path fill="#000000" stroke="none" d="M16 143 c-3 -3 -6 -15 -6 -26 0 -14 3
-17 13 -10 6 6 43 11 82 12 88 3 100 11 16 11 -34 0 -70 4 -80 10 -10 5 -21 6
-25 3z"/>
<path fill="#000000" stroke="none" d="M272 131 c-10 -6 -9 -10 7 -14 14 -3
21 0 21 9 0 16 -9 18 -28 5z"/>
</g>
</svg>
