<?xml version="1.0" standalone="no"?>
<!DOCTYPE svg PUBLIC "-//W3C//DTD SVG 20010904//EN"
 "http://www.w3.org/TR/2001/REC-SVG-20010904/DTD/svg10.dtd">
<svg version="1.0" xmlns="http://www.w3.org/2000/svg"
 width="32.000000pt" height="32.000000pt" viewBox="0 0 32.000000 32.000000"
 preserveAspectRatio="xMidYMid meet">
<metadata>
Created by potrace 1.16, written by Peter Selinger 2001-2019
</metadata>
<g transform="translate(0.000000,32.000000) scale(0.100000,-0.100000)"
fill="#000000" stroke="none">
<path fill="#000000" stroke="none" d="M311 304 c0 -11 3 -14 6 -6 3 7 2 16
-1 19 -3 4 -6 -2 -5 -13z"/>
<path fill="#000000" stroke="none" d="M306 238 c-4 -24 -3 -45 4 -52 7 -7 10
6 10 42 0 29 -2 52 -4 52 -2 0 -6 -19 -10 -42z"/>
<path fill="#000000" stroke="none" d="M1 214 c0 -11 3 -14 6 -6 3 7 2 16 -1
19 -3 4 -6 -2 -5 -13z"/>
<path fill="#000000" stroke="none" d="M280 160 c-9 -6 -10 -10 -3 -10 6 0 15
5 18 10 8 12 4 12 -15 0z"/>
<path fill="#000000" stroke="none" d="M148 153 c12 -2 30 -2 40 0 9 3 -1 5
-23 4 -22 0 -30 -2 -17 -4z"/>
<path fill="#000000" stroke="none" d="M309 158 c0 -2 -1 -34 -2 -73 l-2 -70
-124 -2 c-68 -2 -127 -5 -129 -8 -3 -3 56 -5 131 -5 l137 0 0 80 c0 44 -2 80
-5 80 -3 0 -5 -1 -6 -2z"/>
<path fill="#000000" stroke="none" d="M1 23 c-1 -16 5 -23 17 -23 10 0 13 3
6 8 -6 4 -14 14 -17 22 -4 10 -6 8 -6 -7z"/>
</g>
</svg>
