<?xml version="1.0" standalone="no"?>
<!DOCTYPE svg PUBLIC "-//W3C//DTD SVG 20010904//EN"
 "http://www.w3.org/TR/2001/REC-SVG-20010904/DTD/svg10.dtd">
<svg version="1.0" xmlns="http://www.w3.org/2000/svg"
 width="32.000000pt" height="32.000000pt" viewBox="0 0 32.000000 32.000000"
 preserveAspectRatio="xMidYMid meet">
<metadata>
Created by potrace 1.16, written by Peter Selinger 2001-2019
</metadata>
<g transform="translate(0.000000,32.000000) scale(0.100000,-0.100000)"
fill="#000000" stroke="none">
<path fill="#000000" stroke="none" d="M10 287 c0 -15 3 -16 21 -7 13 7 66 10
145 8 68 -2 123 1 121 5 -1 5 -66 9 -145 10 -130 2 -142 1 -142 -16z"/>
<path fill="#000000" stroke="none" d="M20 180 c-11 -8 -7 -9 15 -4 37 8 45
14 19 14 -10 0 -26 -5 -34 -10z"/>
<path fill="#000000" stroke="none" d="M10 113 c0 -12 3 -14 8 -6 4 6 28 13
52 16 l45 4 -52 1 c-45 2 -53 -1 -53 -15z"/>
</g>
</svg>
