<?xml version="1.0" standalone="no"?>
<!DOCTYPE svg PUBLIC "-//W3C//DTD SVG 20010904//EN"
 "http://www.w3.org/TR/2001/REC-SVG-20010904/DTD/svg10.dtd">
<svg version="1.0" xmlns="http://www.w3.org/2000/svg"
 width="32.000000pt" height="32.000000pt" viewBox="0 0 32.000000 32.000000"
 preserveAspectRatio="xMidYMid meet">
<metadata>
Created by potrace 1.16, written by Peter Selinger 2001-2019
</metadata>
<g transform="translate(0.000000,32.000000) scale(0.100000,-0.100000)"
fill="#000000" stroke="none">
<path fill="#000000" stroke="none" d="M0 160 l0 -160 160 0 160 0 0 160 0
160 -160 0 -160 0 0 -160z"/>
<path fill="#ffffff" stroke="none" d="M205 295 c6 -2 -34 -4 -87 -4 -68 -1
-98 -5 -98 -13 0 -6 -3 -9 -6 -5 -4 3 -4 13 -1 21 4 11 23 13 94 9 48 -3 93
-6 98 -8z"/>
<path fill="#ffffff" stroke="none" d="M300 291 c0 -4 -15 -5 -32 -2 -32 4
-32 5 -8 11 26 7 40 4 40 -9z"/>
<path fill="#ffffff" stroke="none" d="M121 130 c85 0 71 -8 -19 -11 -54 -2
-75 -6 -82 -18 -8 -13 -9 -11 -10 10 0 33 8 41 31 29 10 -6 46 -10 80 -10z"/>
<path fill="#ffffff" stroke="none" d="M300 124 c0 -8 -4 -12 -10 -9 -5 3 -10
10 -10 16 0 5 5 9 10 9 6 0 10 -7 10 -16z"/>
</g>
</svg>
