<?xml version="1.0" standalone="no"?>
<!DOCTYPE svg PUBLIC "-//W3C//DTD SVG 20010904//EN"
 "http://www.w3.org/TR/2001/REC-SVG-20010904/DTD/svg10.dtd">
<svg version="1.0" xmlns="http://www.w3.org/2000/svg"
 width="32.000000pt" height="32.000000pt" viewBox="0 0 32.000000 32.000000"
 preserveAspectRatio="xMidYMid meet">
<metadata>
Created by potrace 1.16, written by Peter Selinger 2001-2019
</metadata>
<g transform="translate(0.000000,32.000000) scale(0.100000,-0.100000)"
fill="#000000" stroke="none">
<path fill="#000000" stroke="none" d="M10 305 c-8 -10 -6 -282 2 -291 3 -2
17 0 32 6 18 6 25 6 21 0 -8 -13 11 -13 36 0 10 6 19 7 19 3 0 -10 86 -10 96
-1 12 13 69 9 84 -4 12 -11 12 -10 1 4 -7 10 -25 18 -40 19 -23 0 -24 1 -6 8
11 5 25 6 31 4 19 -7 35 60 29 118 -4 30 -8 55 -10 57 -2 2 0 16 5 31 14 51
-1 56 -153 56 -80 0 -142 -4 -147 -10z"/>
<path fill="#ffffff" stroke="none" d="M194 231 c19 -2 -4 -13 -32 -16 -17 -1
-29 3 -29 10 0 10 12 11 61 6z"/>
<path fill="#ffffff" stroke="none" d="M208 153 c-21 -2 -57 -2 -80 0 -24 2
-7 4 37 4 44 0 63 -2 43 -4z"/>
<path fill="#ffffff" stroke="none" d="M226 47 c4 -4 0 -7 -9 -7 -9 0 -18 4
-21 9 -7 10 20 9 30 -2z"/>
</g>
</svg>
