<?xml version="1.0" standalone="no"?>
<!DOCTYPE svg PUBLIC "-//W3C//DTD SVG 20010904//EN"
 "http://www.w3.org/TR/2001/REC-SVG-20010904/DTD/svg10.dtd">
<svg version="1.0" xmlns="http://www.w3.org/2000/svg"
 width="32.000000pt" height="32.000000pt" viewBox="0 0 32.000000 32.000000"
 preserveAspectRatio="xMidYMid meet">
<metadata>
Created by potrace 1.16, written by Peter Selinger 2001-2019
</metadata>
<g transform="translate(0.000000,32.000000) scale(0.100000,-0.100000)"
fill="#000000" stroke="none">
<path fill="#000000" stroke="none" d="M10 288 c0 -13 5 -15 28 -9 43 13 219
13 242 1 17 -9 20 -8 20 7 0 16 -13 18 -145 18 -129 0 -145 -2 -145 -17z"/>
<path fill="#000000" stroke="none" d="M15 180 c-7 -12 22 -12 50 0 17 7 15 9
-12 9 -17 1 -35 -3 -38 -9z"/>
<path fill="#000000" stroke="none" d="M16 143 c-3 -3 -6 -15 -6 -26 0 -14 3
-17 13 -10 6 6 43 11 82 12 88 3 100 11 16 11 -34 0 -70 4 -80 10 -10 5 -21 6
-25 3z"/>
<path fill="#000000" stroke="none" d="M265 130 c-3 -5 -4 -10 -1 -10 2 0 11
-3 20 -6 11 -4 16 -1 16 10 0 18 -25 22 -35 6z"/>
</g>
</svg>
