<?xml version="1.0" standalone="no"?>
<!DOCTYPE svg PUBLIC "-//W3C//DTD SVG 20010904//EN"
 "http://www.w3.org/TR/2001/REC-SVG-20010904/DTD/svg10.dtd">
<svg version="1.0" xmlns="http://www.w3.org/2000/svg"
 width="32.000000pt" height="32.000000pt" viewBox="0 0 32.000000 32.000000"
 preserveAspectRatio="xMidYMid meet">
<metadata>
Created by potrace 1.16, written by Peter Selinger 2001-2019
</metadata>
<g transform="translate(0.000000,32.000000) scale(0.100000,-0.100000)"
fill="#000000" stroke="none">
<path fill="#000000" stroke="none" d="M0 160 l0 -160 160 0 160 0 0 160 0
160 -160 0 -160 0 0 -160z"/>
<path fill="#ffffff" stroke="none" d="M169 294 c2 -2 -30 -4 -72 -4 -51 0
-77 -4 -80 -12 -3 -7 -6 -3 -6 9 -1 22 1 23 77 16 42 -3 79 -7 81 -9z"/>
<path fill="#ffffff" stroke="none" d="M63 133 c15 -1 55 -1 89 -2 89 -1 67
-10 -32 -12 -65 -1 -88 -6 -97 -18 -11 -14 -12 -13 -13 10 0 28 10 44 19 31 3
-5 18 -9 34 -9z"/>
<path fill="#ffffff" stroke="none" d="M299 136 c7 -8 8 -17 3 -20 -6 -3 -12
3 -15 14 -6 24 -4 25 12 6z"/>
<path fill="#ffffff" stroke="none" d="M40 30 c0 -5 -5 -10 -11 -10 -5 0 -7 5
-4 10 3 6 8 10 11 10 2 0 4 -4 4 -10z"/>
</g>
</svg>
