<?xml version="1.0" standalone="no"?>
<!DOCTYPE svg PUBLIC "-//W3C//DTD SVG 20010904//EN"
 "http://www.w3.org/TR/2001/REC-SVG-20010904/DTD/svg10.dtd">
<svg version="1.0" xmlns="http://www.w3.org/2000/svg"
 width="32.000000pt" height="32.000000pt" viewBox="0 0 32.000000 32.000000"
 preserveAspectRatio="xMidYMid meet">
<metadata>
Created by potrace 1.16, written by Peter Selinger 2001-2019
</metadata>
<g transform="translate(0.000000,32.000000) scale(0.100000,-0.100000)"
fill="#000000" stroke="none">
<path fill="#000000" stroke="none" d="M0 309 c0 -5 5 -7 10 -4 5 3 10 8 10
11 0 2 -4 4 -10 4 -5 0 -10 -5 -10 -11z"/>
<path fill="#000000" stroke="none" d="M51 316 c9 -8 196 -13 214 -6 12 5 -26
9 -99 9 -66 1 -117 -1 -115 -3z"/>
<path fill="#000000" stroke="none" d="M299 306 c6 -7 9 -20 5 -29 -5 -13 -10
-14 -38 -2 -37 16 -121 11 -168 -10 -10 -4 -29 -8 -43 -9 -14 0 -26 -5 -27
-11 -1 -11 -4 -25 -8 -40 -2 -5 -6 13 -10 40 -7 48 -7 47 -8 -25 l-2 -75 143
1 c79 0 148 3 154 7 7 4 13 0 16 -10 3 -10 5 26 6 80 1 83 -1 97 -15 97 -13 0
-14 -3 -5 -14z"/>
<path fill="#ffffff" stroke="none" d="M198 196 c137 -4 133 -21 -6 -23 -64
-2 -132 -5 -149 -8 -24 -4 -33 -2 -33 8 0 24 22 35 59 31 20 -3 78 -6 129 -8z"/>
<path fill="#000000" stroke="none" d="M310 108 c0 -7 -4 -19 -9 -27 -8 -12
-12 -12 -26 2 -9 10 -21 15 -26 12 -5 -4 -9 -1 -9 4 0 14 -97 14 -105 1 -3 -5
-17 -10 -30 -10 -13 0 -28 -6 -32 -13 -4 -8 -17 -18 -28 -23 -14 -6 12 -10 90
-14 104 -6 74 -13 -44 -11 -25 0 -51 -5 -58 -10 -12 -11 -16 -2 -26 61 -3 14
-5 1 -6 -27 l-1 -53 160 0 160 0 0 60 c0 33 -2 60 -5 60 -3 0 -5 -6 -5 -12z"/>
</g>
</svg>
