<?xml version="1.0" standalone="no"?>
<!DOCTYPE svg PUBLIC "-//W3C//DTD SVG 20010904//EN"
 "http://www.w3.org/TR/2001/REC-SVG-20010904/DTD/svg10.dtd">
<svg version="1.0" xmlns="http://www.w3.org/2000/svg"
 width="32.000000pt" height="32.000000pt" viewBox="0 0 32.000000 32.000000"
 preserveAspectRatio="xMidYMid meet">
<metadata>
Created by potrace 1.16, written by Peter Selinger 2001-2019
</metadata>
<g transform="translate(0.000000,32.000000) scale(0.100000,-0.100000)"
fill="#000000" stroke="none">
<path fill="#000000" stroke="none" d="M10 288 c0 -11 5 -16 10 -13 18 11 211
16 247 6 29 -8 34 -7 31 6 -3 14 -23 17 -145 18 -135 2 -143 1 -143 -17z"/>
<path fill="#000000" stroke="none" d="M58 183 c17 -2 47 -2 65 0 17 2 3 4
-33 4 -36 0 -50 -2 -32 -4z"/>
<path fill="#000000" stroke="none" d="M16 143 c-3 -3 -6 -17 -6 -30 0 -22 2
-22 23 -9 14 8 54 14 107 16 103 2 120 10 24 11 -87 1 -118 4 -131 12 -6 4
-13 4 -17 0z"/>
<path fill="#000000" stroke="none" d="M280 144 c0 -17 17 -36 24 -26 3 5 -1
15 -9 22 -8 7 -15 9 -15 4z"/>
<path fill="#000000" stroke="none" d="M25 30 c-3 -5 -2 -10 4 -10 5 0 13 5
16 10 3 6 2 10 -4 10 -5 0 -13 -4 -16 -10z"/>
</g>
</svg>
