<?xml version="1.0" standalone="no"?>
<!DOCTYPE svg PUBLIC "-//W3C//DTD SVG 20010904//EN"
 "http://www.w3.org/TR/2001/REC-SVG-20010904/DTD/svg10.dtd">
<svg version="1.0" xmlns="http://www.w3.org/2000/svg"
 width="32.000000pt" height="32.000000pt" viewBox="0 0 32.000000 32.000000"
 preserveAspectRatio="xMidYMid meet">
<metadata>
Created by potrace 1.16, written by Peter Selinger 2001-2019
</metadata>
<g transform="translate(0.000000,32.000000) scale(0.100000,-0.100000)"
fill="#000000" stroke="none">
<path fill="#000000" stroke="none" d="M135 310 c-72 -3 -129 -8 -127 -12 1
-5 2 -25 2 -45 1 -37 1 -37 14 -14 8 14 16 19 20 13 4 -7 16 -6 35 4 29 15
137 14 193 -1 21 -5 27 -3 33 15 7 22 -10 51 -29 48 -6 -1 -69 -5 -141 -8z"/>
<path fill="#000000" stroke="none" d="M34 209 c-3 -5 -9 -7 -13 -5 -4 3 -8
-7 -9 -21 l-2 -25 78 8 c118 11 166 11 179 2 6 -5 14 -5 18 2 3 6 11 8 16 5
11 -7 12 5 1 21 -12 18 -36 22 -50 7 -17 -17 -135 -18 -165 -1 -29 16 -46 18
-53 7z"/>
<path fill="#000000" stroke="none" d="M265 148 c-22 -4 -88 -5 -146 -2 -59 3
-109 2 -112 -3 -3 -5 -2 -33 1 -63 l7 -55 109 3 c61 1 112 5 115 7 2 3 -47 5
-109 5 l-113 0 27 25 c25 23 39 29 60 26 4 -1 14 3 21 9 16 13 105 16 114 4 3
-5 13 -10 21 -12 8 -2 17 -8 18 -13 7 -17 20 -9 30 19 15 45 3 59 -43 50z"/>
</g>
</svg>
