<?xml version="1.0" standalone="no"?>
<!DOCTYPE svg PUBLIC "-//W3C//DTD SVG 20010904//EN"
 "http://www.w3.org/TR/2001/REC-SVG-20010904/DTD/svg10.dtd">
<svg version="1.0" xmlns="http://www.w3.org/2000/svg"
 width="32.000000pt" height="32.000000pt" viewBox="0 0 32.000000 32.000000"
 preserveAspectRatio="xMidYMid meet">
<metadata>
Created by potrace 1.16, written by Peter Selinger 2001-2019
</metadata>
<g transform="translate(0.000000,32.000000) scale(0.100000,-0.100000)"
fill="#000000" stroke="none">
<path fill="#000000" stroke="none" d="M14 307 c-3 -9 -4 -24 -2 -35 3 -19 4
-19 62 0 44 14 80 19 143 16 51 -2 83 1 83 7 0 6 -39 10 -97 10 -54 0 -117 4
-140 8 -35 7 -44 6 -49 -6z"/>
<path fill="#000000" stroke="none" d="M75 193 c-93 -8 -67 -21 38 -19 58 0
109 4 113 9 4 4 -1 7 -12 7 -10 0 -35 2 -54 4 -19 2 -57 1 -85 -1z"/>
<path fill="#000000" stroke="none" d="M263 183 c9 -2 23 -2 30 0 6 3 -1 5
-18 5 -16 0 -22 -2 -12 -5z"/>
<path fill="#000000" stroke="none" d="M5 140 c-3 -5 -2 -27 1 -50 5 -32 9
-37 18 -26 6 8 20 16 31 18 11 2 26 9 33 16 7 6 28 13 45 13 18 1 52 3 77 4
24 2 53 -1 63 -7 14 -7 22 -7 28 3 4 8 5 17 1 21 -11 11 -291 18 -297 8z"/>
<path fill="#000000" stroke="none" d="M20 30 c0 -5 4 -10 9 -10 6 0 13 5 16
10 3 6 -1 10 -9 10 -9 0 -16 -4 -16 -10z"/>
<path fill="#000000" stroke="none" d="M264 31 c3 -5 14 -11 25 -14 14 -3 18
-1 14 9 -3 8 -14 14 -25 14 -10 0 -17 -4 -14 -9z"/>
</g>
</svg>
