<?xml version="1.0" standalone="no"?>
<!DOCTYPE svg PUBLIC "-//W3C//DTD SVG 20010904//EN"
 "http://www.w3.org/TR/2001/REC-SVG-20010904/DTD/svg10.dtd">
<svg version="1.0" xmlns="http://www.w3.org/2000/svg"
 width="32.000000pt" height="32.000000pt" viewBox="0 0 32.000000 32.000000"
 preserveAspectRatio="xMidYMid meet">
<metadata>
Created by potrace 1.16, written by Peter Selinger 2001-2019
</metadata>
<g transform="translate(0.000000,32.000000) scale(0.100000,-0.100000)"
fill="#000000" stroke="none">
<path fill="#000000" stroke="none" d="M0 160 l0 -160 160 0 160 0 0 160 c0
144 -2 160 -17 160 -12 0 -14 -3 -6 -11 6 -6 9 -19 6 -29 -4 -15 -9 -17 -29
-10 -39 15 -244 6 -255 -11 -6 -10 -9 -4 -9 20 l0 33 109 -5 c59 -4 121 -2
137 3 20 6 -16 9 -113 9 l-143 1 0 -160z"/>
<path fill="#ffffff" stroke="none" d="M135 189 l50 -2 -55 -7 c-30 -4 -70
-10 -87 -14 -26 -6 -33 -4 -33 7 0 18 25 27 55 21 11 -2 43 -4 70 -5z"/>
<path fill="#ffffff" stroke="none" d="M291 188 c-1 -5 -3 -8 -6 -8 -54 0 -60
2 -40 10 23 10 46 9 46 -2z"/>
<path fill="#ffffff" stroke="none" d="M217 184 c-3 -3 -12 -4 -19 -1 -8 3 -5
6 6 6 11 1 17 -2 13 -5z"/>
<path fill="#ffffff" stroke="none" d="M170 134 c30 -2 70 2 88 8 40 12 57 1
47 -31 -6 -19 -8 -20 -30 -5 -18 12 -44 15 -104 12 -45 -2 -81 -5 -81 -8 0 -3
-10 -7 -22 -7 -13 -1 -28 -9 -34 -17 -15 -21 -24 -9 -24 32 l0 35 53 -8 c28
-4 77 -9 107 -11z"/>
<path fill="#ffffff" stroke="none" d="M210 34 c-59 -7 -188 -8 -183 -2 2 5
50 7 106 7 56 -1 91 -3 77 -5z"/>
</g>
</svg>
