<?xml version="1.0" standalone="no"?>
<!DOCTYPE svg PUBLIC "-//W3C//DTD SVG 20010904//EN"
 "http://www.w3.org/TR/2001/REC-SVG-20010904/DTD/svg10.dtd">
<svg version="1.0" xmlns="http://www.w3.org/2000/svg"
 width="32.000000pt" height="32.000000pt" viewBox="0 0 32.000000 32.000000"
 preserveAspectRatio="xMidYMid meet">
<metadata>
Created by potrace 1.16, written by Peter Selinger 2001-2019
</metadata>
<g transform="translate(0.000000,32.000000) scale(0.100000,-0.100000)"
fill="#000000" stroke="none">
<path fill="#000000" stroke="none" d="M17 314 c-11 -12 -9 -116 3 -109 6 3
10 15 10 26 0 16 28 27 44 17 2 -2 14 6 26 17 12 11 24 18 26 16 2 -2 24 0 47
3 27 4 58 1 84 -8 37 -13 42 -13 47 1 11 26 -2 31 -91 30 -49 0 -111 3 -138 7
-28 4 -54 4 -58 0z"/>
<path fill="#000000" stroke="none" d="M94 208 c-3 -5 -9 -6 -14 -3 -4 2 -22
0 -39 -6 -36 -13 -43 -40 -8 -34 12 2 79 5 149 7 74 2 123 7 118 12 -5 5 -30
10 -57 11 -26 1 -55 4 -63 8 -27 10 -81 14 -86 5z"/>
<path fill="#000000" stroke="none" d="M298 154 c-3 -3 -71 -6 -150 -7 l-143
-2 4 -65 c2 -36 5 -67 8 -70 2 -2 13 1 23 8 25 15 33 15 24 0 -5 -8 -2 -9 12
-3 23 10 52 13 123 14 77 1 60 9 -28 13 -77 3 -90 8 -66 28 8 7 15 9 15 5 0
-4 7 -1 16 6 24 20 136 21 151 3 9 -13 12 -11 16 13 5 26 6 63 2 63 -1 0 -4
-3 -7 -6z"/>
<path fill="#000000" stroke="none" d="M261 36 c2 -2 15 -9 29 -16 23 -12 24
-12 11 3 -7 10 -20 17 -29 17 -8 0 -13 -2 -11 -4z"/>
</g>
</svg>
