<?xml version="1.0" standalone="no"?>
<!DOCTYPE svg PUBLIC "-//W3C//DTD SVG 20010904//EN"
 "http://www.w3.org/TR/2001/REC-SVG-20010904/DTD/svg10.dtd">
<svg version="1.0" xmlns="http://www.w3.org/2000/svg"
 width="32.000000pt" height="32.000000pt" viewBox="0 0 32.000000 32.000000"
 preserveAspectRatio="xMidYMid meet">
<metadata>
Created by potrace 1.16, written by Peter Selinger 2001-2019
</metadata>
<g transform="translate(0.000000,32.000000) scale(0.100000,-0.100000)"
fill="#000000" stroke="none">
<path fill="#000000" stroke="none" d="M0 160 l0 -160 160 0 160 0 0 160 0
160 -160 0 -160 0 0 -160z"/>
<path fill="#ffffff" stroke="none" d="M300 295 c0 -6 -41 -10 -102 -11 -57 0
-122 -5 -145 -11 -41 -10 -43 -9 -43 12 0 23 1 23 145 21 89 0 145 -5 145 -11z"/>
<path fill="#ffffff" stroke="none" d="M208 185 c-9 -9 -198 -13 -192 -4 3 5
48 9 101 9 53 0 94 -2 91 -5z"/>
<path fill="#ffffff" stroke="none" d="M293 183 c-7 -2 -21 -2 -30 0 -10 3 -4
5 12 5 17 0 24 -2 18 -5z"/>
<path fill="#ffffff" stroke="none" d="M126 138 c5 -5 38 -3 126 7 52 6 63 -3
53 -42 -6 -25 -6 -25 -27 -7 -15 15 -35 19 -87 18 -67 0 -95 -5 -107 -16 -3
-4 -12 -4 -18 -2 -7 3 -19 -2 -26 -11 -21 -25 -30 -17 -30 25 l0 41 56 -5 c30
-2 57 -6 60 -8z"/>
<path fill="#ffffff" stroke="none" d="M220 34 c-58 -7 -200 -8 -200 -1 0 4
51 6 113 6 61 -1 101 -3 87 -5z"/>
</g>
</svg>
