<?xml version="1.0" standalone="no"?>
<!DOCTYPE svg PUBLIC "-//W3C//DTD SVG 20010904//EN"
 "http://www.w3.org/TR/2001/REC-SVG-20010904/DTD/svg10.dtd">
<svg version="1.0" xmlns="http://www.w3.org/2000/svg"
 width="32.000000pt" height="32.000000pt" viewBox="0 0 32.000000 32.000000"
 preserveAspectRatio="xMidYMid meet">
<metadata>
Created by potrace 1.16, written by Peter Selinger 2001-2019
</metadata>
<g transform="translate(0.000000,32.000000) scale(0.100000,-0.100000)"
fill="#000000" stroke="none">
<path fill="#000000" stroke="none" d="M0 160 l0 -160 160 0 160 0 0 160 0
160 -26 0 c-14 0 -23 -4 -20 -9 3 -5 -3 -11 -15 -14 -16 -4 -18 -3 -8 9 10 12
3 14 -45 14 -32 0 -55 -4 -52 -9 3 -5 -1 -11 -9 -14 -9 -4 -12 -1 -8 9 4 11
-8 14 -66 14 l-71 0 0 -160z"/>
<path fill="#ffffff" stroke="none" d="M47 285 c0 -8 -4 -15 -8 -15 -11 0 -20
16 -12 24 11 11 20 7 20 -9z"/>
<path fill="#ffffff" stroke="none" d="M190 230 c-13 -12 -19 -24 -14 -32 4
-7 4 -10 -1 -6 -4 4 -14 3 -22 -3 -18 -16 -16 -4 4 29 21 32 34 43 46 35 4 -2
-2 -13 -13 -23z"/>
<path fill="#ffffff" stroke="none" d="M265 159 l-16 -30 28 17 28 16 -25 -21
c-14 -11 -33 -21 -42 -21 -30 0 -32 22 -4 47 37 32 50 29 31 -8z"/>
<path fill="#ffffff" stroke="none" d="M95 140 c3 -5 1 -10 -4 -10 -6 0 -11 5
-11 10 0 6 2 10 4 10 3 0 8 -4 11 -10z"/>
<path fill="#ffffff" stroke="none" d="M227 90 c3 -11 9 -17 14 -14 5 3 9 0 9
-5 0 -16 -11 -14 -32 6 -20 18 -24 33 -7 33 6 0 13 -9 16 -20z"/>
<path fill="#ffffff" stroke="none" d="M215 50 c-5 -8 -11 -8 -17 -2 -6 6 -7
16 -3 22 5 8 11 8 17 2 6 -6 7 -16 3 -22z"/>
</g>
</svg>
