<?xml version="1.0" standalone="no"?>
<!DOCTYPE svg PUBLIC "-//W3C//DTD SVG 20010904//EN"
 "http://www.w3.org/TR/2001/REC-SVG-20010904/DTD/svg10.dtd">
<svg version="1.0" xmlns="http://www.w3.org/2000/svg"
 width="32.000000pt" height="32.000000pt" viewBox="0 0 32.000000 32.000000"
 preserveAspectRatio="xMidYMid meet">
<metadata>
Created by potrace 1.16, written by Peter Selinger 2001-2019
</metadata>
<g transform="translate(0.000000,32.000000) scale(0.100000,-0.100000)"
fill="#000000" stroke="none">
<path fill="#000000" stroke="none" d="M26 298 c3 -4 11 -5 19 -1 21 7 19 12
-4 10 -11 0 -18 -5 -15 -9z"/>
<path fill="#000000" stroke="none" d="M134 295 c10 -8 23 -12 28 -9 13 8 5
14 -23 19 -23 4 -23 4 -5 -10z"/>
<path fill="#000000" stroke="none" d="M240 295 c-11 -13 -10 -14 4 -9 9 3 16
10 16 15 0 13 -6 11 -20 -6z"/>
<path fill="#000000" stroke="none" d="M90 258 c-12 -22 -12 -22 6 -6 10 10
15 20 12 24 -4 3 -12 -5 -18 -18z"/>
<path fill="#000000" stroke="none" d="M23 198 c-9 -15 -15 -48 -8 -48 2 0 11
14 20 30 15 29 5 44 -12 18z"/>
<path fill="#000000" stroke="none" d="M226 165 c-15 -23 -15 -26 -1 -31 18
-7 55 22 55 43 0 22 -37 14 -54 -12z"/>
<path fill="#000000" stroke="none" d="M96 137 c3 -10 9 -15 12 -12 3 3 0 11
-7 18 -10 9 -11 8 -5 -6z"/>
<path fill="#000000" stroke="none" d="M70 119 c0 -5 5 -7 10 -4 6 3 10 8 10
11 0 2 -4 4 -10 4 -5 0 -10 -5 -10 -11z"/>
<path fill="#000000" stroke="none" d="M305 60 c-3 -5 -1 -10 4 -10 6 0 11 5
11 10 0 6 -2 10 -4 10 -3 0 -8 -4 -11 -10z"/>
</g>
</svg>
