<?xml version="1.0" standalone="no"?>
<!DOCTYPE svg PUBLIC "-//W3C//DTD SVG 20010904//EN"
 "http://www.w3.org/TR/2001/REC-SVG-20010904/DTD/svg10.dtd">
<svg version="1.0" xmlns="http://www.w3.org/2000/svg"
 width="32.000000pt" height="32.000000pt" viewBox="0 0 32.000000 32.000000"
 preserveAspectRatio="xMidYMid meet">
<metadata>
Created by potrace 1.16, written by Peter Selinger 2001-2019
</metadata>
<g transform="translate(0.000000,32.000000) scale(0.100000,-0.100000)"
fill="#000000" stroke="none">
<path fill="#000000" stroke="none" d="M13 308 c-6 -7 -10 -28 -10 -46 0 -18
3 -29 6 -25 3 4 17 8 31 8 14 0 25 5 26 10 0 6 4 18 8 27 4 9 5 22 1 28 -9 14
-50 13 -62 -2z"/>
<path fill="#000000" stroke="none" d="M99 290 c-6 -16 -15 -27 -20 -24 -5 3
-7 -1 -4 -8 7 -19 -17 -46 -45 -50 -21 -2 -26 -9 -28 -40 -2 -23 1 -38 8 -38
6 0 8 -5 5 -11 -14 -21 -16 -71 -4 -85 14 -17 32 -19 26 -1 -2 6 -9 11 -15 10
-6 -2 -9 4 -6 12 4 8 10 15 15 15 10 0 29 -41 23 -51 -5 -8 29 -4 45 6 10 5
12 4 7 -3 -8 -14 29 -11 41 3 5 4 3 5 -3 2 -17 -10 -35 16 -24 33 6 8 10 10
10 4 0 -7 6 -14 14 -17 9 -4 13 2 11 16 0 12 7 32 18 43 18 22 18 22 -5 39
-22 16 -22 17 -1 11 27 -9 38 8 16 25 -12 10 -14 10 -9 2 4 -8 2 -13 -8 -13
-8 0 -18 6 -22 13 -4 6 -3 9 1 4 5 -4 17 0 27 9 17 16 17 18 1 29 -15 11 -13
12 13 11 24 -1 28 3 26 19 -7 42 -31 65 -68 65 -30 0 -37 -4 -45 -30z"/>
<path fill="#ffffff" stroke="none" d="M135 167 c6 -5 3 -7 -7 -3 -10 3 -20 1
-23 -4 -4 -6 -14 -10 -23 -9 -14 0 -13 2 3 9 11 5 16 9 10 9 -5 1 -3 5 5 11 8
5 17 6 20 2 3 -4 10 -11 15 -15z"/>
<path fill="#ffffff" stroke="none" d="M48 101 c-6 -10 -17 -17 -24 -14 -10 4
-10 8 -1 19 7 7 18 13 25 14 9 0 10 -4 0 -19z"/>
<path fill="#000000" stroke="none" d="M200 310 c0 -5 5 -10 10 -10 6 0 10 5
10 10 0 6 -4 10 -10 10 -5 0 -10 -4 -10 -10z"/>
<path fill="#000000" stroke="none" d="M239 303 c-8 -9 -15 -28 -15 -42 -1
-14 -5 -35 -9 -45 -7 -16 -5 -18 8 -13 18 7 14 -11 -11 -50 -9 -14 -11 -33 -7
-52 5 -24 2 -30 -13 -36 -46 -14 -32 -65 18 -65 37 0 59 26 30 35 -17 5 -19
10 -9 21 6 8 17 14 23 14 7 0 6 -4 -2 -9 -11 -7 -10 -9 3 -14 9 -4 13 -3 10 3
-3 6 -2 10 4 10 6 0 8 7 5 15 -4 10 0 15 12 15 12 0 15 -3 8 -8 -6 -4 -8 -16
-4 -27 5 -13 1 -24 -13 -36 -19 -15 -19 -16 -1 -16 35 -1 44 17 44 88 0 65
-14 99 -40 99 -5 0 -15 10 -21 23 -9 18 -9 20 2 10 16 -15 33 -17 24 -3 -3 6
-1 10 5 10 6 0 9 4 5 9 -3 5 0 13 5 16 7 5 5 11 -6 19 -13 10 -14 15 -4 21 8
5 11 4 7 -2 -3 -5 0 -10 8 -10 13 0 12 4 -2 19 -20 22 -46 23 -64 1z"/>
<path fill="#000000" stroke="none" d="M307 213 c-10 -9 -9 -23 1 -23 5 0 9 7
9 15 0 17 -1 18 -10 8z"/>
</g>
</svg>
