<?xml version="1.0" standalone="no"?>
<!DOCTYPE svg PUBLIC "-//W3C//DTD SVG 20010904//EN"
 "http://www.w3.org/TR/2001/REC-SVG-20010904/DTD/svg10.dtd">
<svg version="1.0" xmlns="http://www.w3.org/2000/svg"
 width="32.000000pt" height="32.000000pt" viewBox="0 0 32.000000 32.000000"
 preserveAspectRatio="xMidYMid meet">
<metadata>
Created by potrace 1.16, written by Peter Selinger 2001-2019
</metadata>
<g transform="translate(0.000000,32.000000) scale(0.100000,-0.100000)"
fill="#000000" stroke="none">
<path fill="#000000" stroke="none" d="M0 160 l0 -160 160 0 160 0 0 25 c0 14
-5 25 -12 25 -9 0 -9 3 0 12 8 8 12 53 12 135 l0 123 -160 0 -160 0 0 -160z"/>
<path fill="#ffffff" stroke="none" d="M60 305 c0 -7 -30 -13 -34 -7 -3 4 4 9
15 9 10 1 19 0 19 -2z"/>
<path fill="#ffffff" stroke="none" d="M167 296 c12 -12 -17 -13 -33 -1 -18
14 -18 14 5 10 13 -2 26 -6 28 -9z"/>
<path fill="#ffffff" stroke="none" d="M260 301 c0 -5 -7 -12 -16 -15 -14 -5
-15 -4 -4 9 14 17 20 19 20 6z"/>
<path fill="#ffffff" stroke="none" d="M96 252 c-18 -16 -18 -16 -6 6 6 13 14
21 18 18 3 -4 -2 -14 -12 -24z"/>
<path fill="#ffffff" stroke="none" d="M35 180 c-17 -34 -26 -39 -22 -12 4 23
16 42 28 42 5 0 3 -13 -6 -30z"/>
<path fill="#ffffff" stroke="none" d="M280 177 c0 -21 -37 -50 -55 -43 -14 5
-14 8 1 31 17 26 54 34 54 12z"/>
<path fill="#ffffff" stroke="none" d="M108 125 c-3 -3 -9 2 -12 12 -6 14 -5
15 5 6 7 -7 10 -15 7 -18z"/>
<path fill="#ffffff" stroke="none" d="M90 126 c0 -3 -4 -8 -10 -11 -5 -3 -10
-1 -10 4 0 6 5 11 10 11 6 0 10 -2 10 -4z"/>
</g>
</svg>
