<?xml version="1.0" standalone="no"?>
<!DOCTYPE svg PUBLIC "-//W3C//DTD SVG 20010904//EN"
 "http://www.w3.org/TR/2001/REC-SVG-20010904/DTD/svg10.dtd">
<svg version="1.0" xmlns="http://www.w3.org/2000/svg"
 width="32.000000pt" height="32.000000pt" viewBox="0 0 32.000000 32.000000"
 preserveAspectRatio="xMidYMid meet">
<metadata>
Created by potrace 1.16, written by Peter Selinger 2001-2019
</metadata>
<g transform="translate(0.000000,32.000000) scale(0.100000,-0.100000)"
fill="#000000" stroke="none">
<path fill="#000000" stroke="none" d="M13 305 c-12 -33 2 -50 40 -50 24 1 37
-4 37 -12 0 -7 7 -13 15 -13 8 0 17 -11 21 -25 3 -14 9 -25 13 -25 19 1 34 22
37 51 10 94 19 84 -74 86 -62 1 -85 -2 -89 -12z"/>
<path fill="#000000" stroke="none" d="M224 294 c-28 -27 -28 -27 -7 -35 15
-5 20 -14 16 -27 -5 -21 18 -44 25 -24 2 7 8 10 13 6 16 -10 9 8 -8 21 -15 11
-14 15 10 39 48 48 2 66 -49 20z"/>
<path fill="#000000" stroke="none" d="M275 250 c-3 -5 1 -10 10 -10 9 0 13 5
10 10 -3 6 -8 10 -10 10 -2 0 -7 -4 -10 -10z"/>
<path fill="#000000" stroke="none" d="M186 225 c-3 -9 1 -18 10 -22 19 -7 28
2 21 22 -8 19 -23 19 -31 0z"/>
<path fill="#000000" stroke="none" d="M26 194 c-24 -27 -25 -34 -12 -66 7
-16 10 -16 38 -2 27 14 30 14 25 1 -3 -8 0 -23 7 -32 11 -15 14 -15 36 3 22
17 37 52 22 51 -22 -3 -50 15 -47 29 3 21 -13 42 -31 42 -7 0 -24 -12 -38 -26z"/>
<path fill="#000000" stroke="none" d="M242 180 c-28 -12 -47 -57 -31 -76 7
-9 8 -14 1 -14 -6 0 -20 -16 -33 -36 -18 -30 -19 -38 -8 -45 20 -13 29 -11 23
5 -6 17 6 25 39 28 14 1 25 7 24 13 -1 5 4 9 11 7 8 -1 11 2 7 8 -3 6 -11 7
-17 4 -7 -5 -9 -1 -5 9 3 9 1 17 -5 19 -6 2 -3 10 6 18 13 10 16 10 14 0 -2
-7 4 -15 12 -18 8 -2 12 -1 7 3 -4 5 0 19 9 32 12 19 13 27 3 39 -13 16 -24
17 -57 4z"/>
<path fill="#ffffff" stroke="none" d="M295 170 c3 -5 2 -10 -4 -10 -5 0 -13
5 -16 10 -3 6 -2 10 4 10 5 0 13 -4 16 -10z"/>
<path fill="#000000" stroke="none" d="M7 83 c-14 -13 -7 -42 8 -37 8 4 12 10
9 15 -3 5 0 9 6 9 6 0 8 5 5 10 -7 12 -19 13 -28 3z"/>
<path fill="#000000" stroke="none" d="M50 69 c-6 -10 -8 -24 -5 -29 8 -14 32
-1 38 20 7 26 -20 34 -33 9z"/>
<path fill="#000000" stroke="none" d="M106 71 c-7 -11 22 -23 35 -15 5 3 7
10 4 15 -8 12 -32 12 -39 0z"/>
<path fill="#000000" stroke="none" d="M280 45 c-7 -9 -8 -15 -2 -15 5 0 12 7
16 15 3 8 4 15 2 15 -2 0 -9 -7 -16 -15z"/>
</g>
</svg>
