<?xml version="1.0" standalone="no"?>
<!DOCTYPE svg PUBLIC "-//W3C//DTD SVG 20010904//EN"
 "http://www.w3.org/TR/2001/REC-SVG-20010904/DTD/svg10.dtd">
<svg version="1.0" xmlns="http://www.w3.org/2000/svg"
 width="32.000000pt" height="32.000000pt" viewBox="0 0 32.000000 32.000000"
 preserveAspectRatio="xMidYMid meet">
<metadata>
Created by potrace 1.16, written by Peter Selinger 2001-2019
</metadata>
<g transform="translate(0.000000,32.000000) scale(0.100000,-0.100000)"
fill="#000000" stroke="none">
<path fill="#000000" stroke="none" d="M20 305 c-10 -12 -10 -19 -2 -27 7 -7
12 -9 12 -5 0 4 9 3 19 -2 15 -8 20 -7 25 5 3 8 10 12 16 9 6 -4 8 -11 5 -16
-11 -17 6 -31 21 -18 12 10 13 9 8 -5 -6 -16 11 -46 27 -46 13 0 11 54 -3 68
-9 9 -8 12 4 12 19 0 34 18 24 28 -12 11 -91 10 -98 -1 -5 -9 -10 -9 -20 1
-16 16 -23 15 -38 -3z"/>
<path fill="#000000" stroke="none" d="M237 298 c-22 -16 -25 -23 -16 -34 16
-20 24 -18 44 12 23 35 7 48 -28 22z"/>
<path fill="#000000" stroke="none" d="M196 231 c-4 -7 -5 -15 -2 -18 9 -9 19
4 14 18 -4 11 -6 11 -12 0z"/>
<path fill="#000000" stroke="none" d="M235 230 c-3 -5 -2 -10 4 -10 5 0 13 5
16 10 3 6 2 10 -4 10 -5 0 -13 -4 -16 -10z"/>
<path fill="#000000" stroke="none" d="M39 203 c-1 -5 -1 -11 0 -15 0 -5 -6
-8 -14 -8 -20 0 -19 -36 1 -44 19 -7 71 38 55 48 -6 4 -9 12 -6 17 4 5 -3 9
-14 9 -12 0 -22 -3 -22 -7z"/>
<path fill="#000000" stroke="none" d="M224 159 c-16 -17 -16 -22 -4 -29 20
-13 30 -12 30 1 0 6 9 8 20 4 23 -7 25 2 6 28 -17 22 -29 22 -52 -4z"/>
<path fill="#000000" stroke="none" d="M77 154 c-4 -4 -3 -12 1 -18 7 -11 8
-16 11 -36 1 -6 10 -5 26 2 26 12 28 26 5 45 -17 14 -33 16 -43 7z"/>
<path fill="#000000" stroke="none" d="M217 109 c7 -7 15 -10 18 -7 3 3 -2 9
-12 12 -14 6 -15 5 -6 -5z"/>
<path fill="#000000" stroke="none" d="M187 60 c-23 -39 -21 -45 8 -26 14 9
25 14 25 10 0 -4 6 -1 14 6 8 6 13 17 10 24 -9 22 -40 15 -57 -14z"/>
<path fill="#000000" stroke="none" d="M0 64 c0 -8 5 -12 10 -9 6 3 10 10 10
16 0 5 -4 9 -10 9 -5 0 -10 -7 -10 -16z"/>
<path fill="#000000" stroke="none" d="M47 65 c-8 -19 13 -31 24 -14 13 20 11
29 -5 29 -8 0 -16 -7 -19 -15z"/>
<path fill="#000000" stroke="none" d="M110 70 c0 -5 5 -10 10 -10 6 0 10 5
10 10 0 6 -4 10 -10 10 -5 0 -10 -4 -10 -10z"/>
</g>
</svg>
