<?xml version="1.0" standalone="no"?>
<!DOCTYPE svg PUBLIC "-//W3C//DTD SVG 20010904//EN"
 "http://www.w3.org/TR/2001/REC-SVG-20010904/DTD/svg10.dtd">
<svg version="1.0" xmlns="http://www.w3.org/2000/svg"
 width="32.000000pt" height="32.000000pt" viewBox="0 0 32.000000 32.000000"
 preserveAspectRatio="xMidYMid meet">
<metadata>
Created by potrace 1.16, written by Peter Selinger 2001-2019
</metadata>
<g transform="translate(0.000000,32.000000) scale(0.100000,-0.100000)"
fill="#000000" stroke="none">
<path fill="#000000" stroke="none" d="M0 160 l0 -159 48 5 c125 13 243 19
252 12 6 -5 7 -4 3 1 -10 12 0 260 11 284 8 16 -3 17 -153 17 l-161 0 0 -160z"/>
<path fill="#ffffff" stroke="none" d="M284 38 c-3 -5 -12 -4 -20 3 -8 6 -12
14 -9 17 3 3 -14 26 -37 51 -34 37 -31 35 14 -8 31 -30 55 -58 52 -63z"/>
</g>
</svg>
