<?xml version="1.0" standalone="no"?>
<!DOCTYPE svg PUBLIC "-//W3C//DTD SVG 20010904//EN"
 "http://www.w3.org/TR/2001/REC-SVG-20010904/DTD/svg10.dtd">
<svg version="1.0" xmlns="http://www.w3.org/2000/svg"
 width="32.000000pt" height="32.000000pt" viewBox="0 0 32.000000 32.000000"
 preserveAspectRatio="xMidYMid meet">
<metadata>
Created by potrace 1.16, written by Peter Selinger 2001-2019
</metadata>
<g transform="translate(0.000000,32.000000) scale(0.100000,-0.100000)"
fill="#000000" stroke="none">
<path fill="#000000" stroke="none" d="M0 168 c0 -83 2 -149 5 -147 2 3 5 68
6 146 l2 142 116 -3 c64 -1 130 1 146 5 17 4 -39 7 -122 8 l-153 1 0 -152z"/>
<path fill="#000000" stroke="none" d="M35 279 c-4 -6 -5 -12 -2 -15 2 -3 7 2
10 11 7 17 1 20 -8 4z"/>
<path fill="#000000" stroke="none" d="M76 275 c-9 -26 -7 -32 5 -12 6 10 9
21 6 23 -2 3 -7 -2 -11 -11z"/>
<path fill="#000000" stroke="none" d="M215 279 c-4 -6 -5 -12 -2 -15 2 -3 7
2 10 11 7 17 1 20 -8 4z"/>
<path fill="#000000" stroke="none" d="M190 235 c-19 -22 -8 -25 13 -3 9 10
13 18 8 18 -5 0 -14 -7 -21 -15z"/>
<path fill="#000000" stroke="none" d="M31 184 c0 -11 3 -14 6 -6 3 7 2 16 -1
19 -3 4 -6 -2 -5 -13z"/>
<path fill="#000000" stroke="none" d="M123 183 c-10 -10 -14 -15 -8 -11 6 4
22 12 36 17 15 6 18 10 8 10 -9 1 -25 -7 -36 -16z"/>
<path fill="#000000" stroke="none" d="M156 168 c3 -5 10 -6 15 -3 13 9 11 12
-6 12 -8 0 -12 -4 -9 -9z"/>
<path fill="#000000" stroke="none" d="M180 154 c-24 -9 -29 -13 -14 -13 11
-1 29 6 40 14 22 17 20 17 -26 -1z"/>
<path fill="#000000" stroke="none" d="M235 129 c-4 -6 -5 -12 -2 -15 2 -3 7
2 10 11 7 17 1 20 -8 4z"/>
<path fill="#000000" stroke="none" d="M30 125 c0 -5 5 -17 10 -25 5 -8 10
-10 10 -5 0 6 -5 17 -10 25 -5 8 -10 11 -10 5z"/>
<path fill="#000000" stroke="none" d="M116 103 c-6 -14 -5 -15 5 -6 7 7 10
15 7 18 -3 3 -9 -2 -12 -12z"/>
<path fill="#000000" stroke="none" d="M185 110 c28 -12 37 -12 30 0 -3 6 -16
10 -28 9 -21 0 -21 -1 -2 -9z"/>
<path fill="#000000" stroke="none" d="M30 64 c0 -17 27 -37 42 -31 8 4 7 6
-4 6 -9 1 -22 9 -27 19 -6 9 -11 12 -11 6z"/>
<path fill="#000000" stroke="none" d="M100 66 c0 -2 7 -7 16 -10 8 -3 12 -2
9 4 -6 10 -25 14 -25 6z"/>
</g>
</svg>
