<?xml version="1.0" standalone="no"?>
<!DOCTYPE svg PUBLIC "-//W3C//DTD SVG 20010904//EN"
 "http://www.w3.org/TR/2001/REC-SVG-20010904/DTD/svg10.dtd">
<svg version="1.0" xmlns="http://www.w3.org/2000/svg"
 width="32.000000pt" height="32.000000pt" viewBox="0 0 32.000000 32.000000"
 preserveAspectRatio="xMidYMid meet">
<metadata>
Created by potrace 1.16, written by Peter Selinger 2001-2019
</metadata>
<g transform="translate(0.000000,32.000000) scale(0.100000,-0.100000)"
fill="#000000" stroke="none">
<path fill="#000000" stroke="none" d="M0 163 c0 -86 3 -154 6 -150 3 3 7 59
9 124 2 65 3 129 4 143 l1 25 140 -2 c82 -2 142 1 145 7 4 6 -51 10 -149 10
l-156 0 0 -157z"/>
<path fill="#000000" stroke="none" d="M35 280 c-3 -6 1 -7 9 -4 18 7 21 14 7
14 -6 0 -13 -4 -16 -10z"/>
<path fill="#000000" stroke="none" d="M246 263 c-6 -14 -5 -15 5 -6 7 7 10
15 7 18 -3 3 -9 -2 -12 -12z"/>
<path fill="#000000" stroke="none" d="M50 249 c0 -5 5 -7 10 -4 6 3 10 8 10
11 0 2 -4 4 -10 4 -5 0 -10 -5 -10 -11z"/>
<path fill="#000000" stroke="none" d="M214 230 c0 -13 4 -16 10 -10 7 7 7 13
0 20 -6 6 -10 3 -10 -10z"/>
<path fill="#000000" stroke="none" d="M260 205 c7 -9 15 -13 17 -11 7 7 -7
26 -19 26 -6 0 -6 -6 2 -15z"/>
<path fill="#000000" stroke="none" d="M65 199 c-3 -4 2 -6 10 -5 21 3 28 13
10 13 -9 0 -18 -4 -20 -8z"/>
<path fill="#000000" stroke="none" d="M130 200 c0 -5 7 -7 15 -4 8 4 15 2 15
-4 0 -13 -25 -33 -34 -27 -3 3 -2 0 3 -6 6 -8 16 -4 31 11 18 18 20 24 9 31
-19 12 -39 11 -39 -1z"/>
<path fill="#000000" stroke="none" d="M31 184 c0 -11 3 -14 6 -6 3 7 2 16 -1
19 -3 4 -6 -2 -5 -13z"/>
<path fill="#000000" stroke="none" d="M220 192 c0 -6 6 -15 13 -19 29 -19 39
-41 27 -62 -6 -12 -7 -21 -1 -21 8 0 21 23 21 39 0 4 -13 23 -30 41 -16 18
-30 29 -30 22z"/>
<path fill="#000000" stroke="none" d="M50 170 c0 -6 5 -8 10 -5 6 3 10 1 10
-4 0 -6 -7 -11 -15 -11 -8 0 -15 -5 -15 -10 0 -7 7 -7 21 0 11 6 19 16 16 23
-5 15 -27 21 -27 7z"/>
<path fill="#000000" stroke="none" d="M223 145 c0 -8 7 -15 15 -15 12 0 12 3
2 15 -7 8 -13 15 -15 15 -1 0 -2 -7 -2 -15z"/>
<path fill="#000000" stroke="none" d="M155 141 c-9 -16 9 -20 23 -5 10 12 10
14 -2 14 -8 0 -17 -4 -21 -9z"/>
<path fill="#000000" stroke="none" d="M85 98 c0 -23 6 -33 23 -39 15 -6 21
-5 17 1 -3 6 -13 10 -22 10 -11 0 -14 6 -9 24 3 14 3 27 -2 30 -4 2 -8 -9 -7
-26z"/>
<path fill="#000000" stroke="none" d="M116 103 c-6 -14 -5 -15 5 -6 7 7 10
15 7 18 -3 3 -9 -2 -12 -12z"/>
<path fill="#000000" stroke="none" d="M210 111 c0 -6 4 -13 10 -16 6 -3 7 1
4 9 -7 18 -14 21 -14 7z"/>
<path fill="#000000" stroke="none" d="M35 89 c-10 -30 -2 -32 12 -3 6 13 7
24 3 24 -5 0 -12 -9 -15 -21z"/>
<path fill="#000000" stroke="none" d="M262 60 c-7 -11 -8 -20 -3 -20 9 0 24
30 18 36 -1 2 -8 -6 -15 -16z"/>
<path fill="#000000" stroke="none" d="M97 39 c7 -7 15 -10 18 -7 3 3 -2 9
-12 12 -14 6 -15 5 -6 -5z"/>
<path fill="#000000" stroke="none" d="M205 40 c-3 -5 -2 -10 4 -10 5 0 13 5
16 10 3 6 2 10 -4 10 -5 0 -13 -4 -16 -10z"/>
<path fill="#000000" stroke="none" d="M38 13 c7 -3 16 -2 19 1 4 3 -2 6 -13
5 -11 0 -14 -3 -6 -6z"/>
<path fill="#000000" stroke="none" d="M88 13 c7 -3 16 -2 19 1 4 3 -2 6 -13
5 -11 0 -14 -3 -6 -6z"/>
<path fill="#000000" stroke="none" d="M138 13 c7 -3 16 -2 19 1 4 3 -2 6 -13
5 -11 0 -14 -3 -6 -6z"/>
<path fill="#000000" stroke="none" d="M198 13 c7 -3 16 -2 19 1 4 3 -2 6 -13
5 -11 0 -14 -3 -6 -6z"/>
</g>
</svg>
