<?xml version="1.0" standalone="no"?>
<!DOCTYPE svg PUBLIC "-//W3C//DTD SVG 20010904//EN"
 "http://www.w3.org/TR/2001/REC-SVG-20010904/DTD/svg10.dtd">
<svg version="1.0" xmlns="http://www.w3.org/2000/svg"
 width="32.000000pt" height="32.000000pt" viewBox="0 0 32.000000 32.000000"
 preserveAspectRatio="xMidYMid meet">
<metadata>
Created by potrace 1.16, written by Peter Selinger 2001-2019
</metadata>
<g transform="translate(0.000000,32.000000) scale(0.100000,-0.100000)"
fill="#000000" stroke="none">
<path fill="#000000" stroke="none" d="M23 285 c0 -8 4 -12 9 -9 4 3 8 9 8 15
0 5 -4 9 -8 9 -5 0 -9 -7 -9 -15z"/>
<path fill="#000000" stroke="none" d="M80 282 c0 -10 5 -23 11 -29 14 -14 -5
-53 -26 -53 -8 0 -15 -5 -15 -10 0 -13 35 4 46 22 11 17 13 59 3 52 -5 -3 -9
2 -9 10 0 11 14 16 48 19 l47 3 -52 2 c-45 2 -53 -1 -53 -16z"/>
<path fill="#000000" stroke="none" d="M223 293 c9 -2 25 -2 35 0 9 3 1 5 -18
5 -19 0 -27 -2 -17 -5z"/>
<path fill="#000000" stroke="none" d="M263 249 c1 -10 7 -19 13 -19 7 0 15
-6 17 -12 4 -10 6 -10 6 0 1 6 -8 21 -18 31 -19 19 -20 19 -18 0z"/>
<path fill="#000000" stroke="none" d="M215 253 c-31 -7 -40 -21 -11 -16 15 3
29 9 32 14 3 5 4 8 2 8 -2 -1 -12 -3 -23 -6z"/>
<path fill="#000000" stroke="none" d="M22 133 c2 -74 7 -108 16 -111 6 -2 12
1 12 8 0 6 -4 9 -9 6 -5 -3 -9 38 -10 91 0 67 3 99 12 105 8 5 7 8 -6 8 -16 0
-17 -10 -15 -107z"/>
<path fill="#000000" stroke="none" d="M235 221 c-3 -5 -2 -12 3 -15 5 -3 9 1
9 9 0 17 -3 19 -12 6z"/>
<path fill="#000000" stroke="none" d="M110 213 c0 -6 8 -17 18 -24 16 -13 16
-13 2 6 -8 11 -16 22 -17 24 -2 2 -3 0 -3 -6z"/>
<path fill="#000000" stroke="none" d="M191 197 c-10 -17 -10 -19 -1 -10 11
10 16 9 27 -5 12 -15 13 -14 2 8 -6 14 -12 26 -13 27 -1 1 -8 -8 -15 -20z"/>
<path fill="#000000" stroke="none" d="M262 166 c-1 -16 -10 -35 -19 -42 -14
-10 -15 -15 -6 -23 7 -6 11 -8 8 -5 -3 4 2 12 11 18 11 8 14 23 11 46 -3 32
-4 32 -5 6z"/>
<path fill="#000000" stroke="none" d="M90 167 c-14 -11 -14 -14 2 -29 10 -10
18 -14 18 -9 0 6 -5 13 -10 16 -8 5 -7 11 1 21 14 17 9 18 -11 1z"/>
<path fill="#000000" stroke="none" d="M285 161 c-3 -5 -1 -12 5 -16 5 -3 10
1 10 9 0 18 -6 21 -15 7z"/>
<path fill="#000000" stroke="none" d="M190 150 c-9 -6 -10 -10 -3 -10 6 0 15
5 18 10 8 12 4 12 -15 0z"/>
<path fill="#000000" stroke="none" d="M60 126 c0 -2 8 -10 18 -17 15 -13 16
-12 3 4 -13 16 -21 21 -21 13z"/>
<path fill="#000000" stroke="none" d="M167 100 c3 -11 9 -20 15 -20 5 0 4 9
-2 20 -6 11 -12 20 -14 20 -2 0 -2 -9 1 -20z"/>
<path fill="#000000" stroke="none" d="M275 82 c-13 -19 -14 -23 -3 -14 13 10
17 10 21 0 3 -7 6 -1 6 15 1 33 1 33 -24 -1z"/>
<path fill="#000000" stroke="none" d="M135 89 c-4 -6 -5 -12 -2 -15 2 -3 7 2
10 11 7 17 1 20 -8 4z"/>
<path fill="#000000" stroke="none" d="M40 72 c0 -12 3 -12 15 -2 8 7 15 13
15 15 0 1 -7 2 -15 2 -8 0 -15 -7 -15 -15z"/>
<path fill="#000000" stroke="none" d="M90 65 c-7 -9 -10 -18 -6 -22 3 -3 6
-1 6 6 0 8 7 11 15 7 8 -3 15 -1 15 4 0 17 -18 20 -30 5z"/>
<path fill="#000000" stroke="none" d="M206 65 c-4 -12 -1 -16 11 -13 18 3 21
20 5 26 -5 1 -12 -4 -16 -13z"/>
<path fill="#000000" stroke="none" d="M150 40 c0 -11 4 -20 9 -20 5 0 7 9 4
20 -3 11 -7 20 -9 20 -2 0 -4 -9 -4 -20z"/>
<path fill="#000000" stroke="none" d="M175 50 c3 -5 8 -10 11 -10 2 0 4 5 4
10 0 6 -5 10 -11 10 -5 0 -7 -4 -4 -10z"/>
<path fill="#000000" stroke="none" d="M68 23 c7 -3 16 -2 19 1 4 3 -2 6 -13
5 -11 0 -14 -3 -6 -6z"/>
<path fill="#000000" stroke="none" d="M305 10 c-3 -5 -1 -10 4 -10 6 0 11 5
11 10 0 6 -2 10 -4 10 -3 0 -8 -4 -11 -10z"/>
<path fill="#000000" stroke="none" d="M178 3 c7 -3 16 -2 19 1 4 3 -2 6 -13
5 -11 0 -14 -3 -6 -6z"/>
</g>
</svg>
