<?xml version="1.0" standalone="no"?>
<!DOCTYPE svg PUBLIC "-//W3C//DTD SVG 20010904//EN"
 "http://www.w3.org/TR/2001/REC-SVG-20010904/DTD/svg10.dtd">
<svg version="1.0" xmlns="http://www.w3.org/2000/svg"
 width="32.000000pt" height="32.000000pt" viewBox="0 0 32.000000 32.000000"
 preserveAspectRatio="xMidYMid meet">
<metadata>
Created by potrace 1.16, written by Peter Selinger 2001-2019
</metadata>
<g transform="translate(0.000000,32.000000) scale(0.100000,-0.100000)"
fill="#000000" stroke="none">
<path fill="#000000" stroke="none" d="M0 163 c0 -86 3 -154 6 -150 3 3 7 59
9 124 2 65 3 129 4 143 l1 25 140 -2 c82 -2 142 1 145 7 4 6 -51 10 -149 10
l-156 0 0 -157z"/>
<path fill="#000000" stroke="none" d="M33 275 c-3 -9 -3 -19 1 -22 3 -4 6 1
6 10 0 8 8 18 18 20 16 4 16 5 -1 6 -10 0 -20 -6 -24 -14z"/>
<path fill="#000000" stroke="none" d="M255 270 c20 -22 34 -28 16 -7 -6 8 -8
17 -4 20 3 4 -2 7 -12 7 -17 0 -17 -1 0 -20z"/>
<path fill="#000000" stroke="none" d="M120 258 c0 -2 9 -11 20 -21 11 -9 20
-13 20 -7 0 5 -9 14 -20 20 -11 6 -20 9 -20 8z"/>
<path fill="#000000" stroke="none" d="M233 248 c-15 -20 -25 -38 -20 -38 3 0
12 11 21 25 17 26 16 35 -1 13z"/>
<path fill="#000000" stroke="none" d="M86 227 c3 -10 9 -15 12 -12 3 3 0 11
-7 18 -10 9 -11 8 -5 -6z"/>
<path fill="#000000" stroke="none" d="M110 235 c0 -5 5 -17 10 -25 5 -8 10
-10 10 -5 0 6 -5 17 -10 25 -5 8 -10 11 -10 5z"/>
<path fill="#000000" stroke="none" d="M185 229 c-4 -6 -5 -12 -2 -15 2 -3 7
2 10 11 7 17 1 20 -8 4z"/>
<path fill="#000000" stroke="none" d="M260 205 c7 -9 15 -13 17 -11 7 7 -7
26 -19 26 -6 0 -6 -6 2 -15z"/>
<path fill="#000000" stroke="none" d="M31 184 c0 -11 3 -14 6 -6 3 7 2 16 -1
19 -3 4 -6 -2 -5 -13z"/>
<path fill="#000000" stroke="none" d="M64 186 c-10 -8 -16 -17 -13 -20 3 -3
14 3 24 14 21 23 17 26 -11 6z"/>
<path fill="#000000" stroke="none" d="M220 191 c0 -10 19 -25 25 -20 1 2 -3
10 -11 17 -8 7 -14 8 -14 3z"/>
<path fill="#000000" stroke="none" d="M140 180 c0 -5 -8 -7 -17 -3 -23 8 -15
-1 14 -15 18 -10 20 -9 16 8 -6 21 -13 27 -13 10z"/>
<path fill="#000000" stroke="none" d="M195 180 c-3 -5 -1 -10 4 -10 6 0 11 5
11 10 0 6 -2 10 -4 10 -3 0 -8 -4 -11 -10z"/>
<path fill="#000000" stroke="none" d="M100 156 c0 -2 7 -7 16 -10 8 -3 12 -2
9 4 -6 10 -25 14 -25 6z"/>
<path fill="#000000" stroke="none" d="M48 143 c7 -3 16 -2 19 1 4 3 -2 6 -13
5 -11 0 -14 -3 -6 -6z"/>
<path fill="#000000" stroke="none" d="M201 130 c14 -31 19 -36 19 -24 0 6 -7
19 -16 30 -14 18 -14 18 -3 -6z"/>
<path fill="#000000" stroke="none" d="M228 133 c7 -3 16 -2 19 1 4 3 -2 6
-13 5 -11 0 -14 -3 -6 -6z"/>
<path fill="#000000" stroke="none" d="M262 115 c-6 -14 -7 -25 -2 -25 9 0 25
39 18 46 -3 2 -10 -7 -16 -21z"/>
<path fill="#000000" stroke="none" d="M30 124 c0 -17 17 -36 24 -26 3 5 -1
15 -9 22 -8 7 -15 9 -15 4z"/>
<path fill="#000000" stroke="none" d="M86 117 c3 -10 9 -15 12 -12 3 3 0 11
-7 18 -10 9 -11 8 -5 -6z"/>
<path fill="#000000" stroke="none" d="M120 110 c-6 -11 -8 -20 -6 -20 3 0 10
9 16 20 6 11 8 20 6 20 -3 0 -10 -9 -16 -20z"/>
<path fill="#000000" stroke="none" d="M64 77 c-3 -9 -12 -13 -20 -10 -8 3
-14 0 -14 -7 0 -6 4 -9 9 -5 6 3 15 -3 21 -12 9 -14 10 -15 7 -2 -3 9 0 22 6
28 6 6 8 14 4 17 -4 4 -9 0 -13 -9z"/>
<path fill="#000000" stroke="none" d="M118 57 c12 -7 19 -17 15 -22 -4 -4 -2
-5 6 0 12 7 11 10 -4 22 -11 7 -24 13 -29 13 -6 -1 -1 -6 12 -13z"/>
<path fill="#000000" stroke="none" d="M188 63 c7 -3 16 -2 19 1 4 3 -2 6 -13
5 -11 0 -14 -3 -6 -6z"/>
<path fill="#000000" stroke="none" d="M255 50 c-16 -18 -16 -20 -2 -20 10 0
16 6 15 13 -2 6 3 11 10 10 6 -2 12 2 12 7 0 16 -15 12 -35 -10z"/>
<path fill="#000000" stroke="none" d="M97 39 c7 -7 15 -10 18 -7 3 3 -2 9
-12 12 -14 6 -15 5 -6 -5z"/>
<path fill="#000000" stroke="none" d="M205 40 c-3 -5 -2 -10 4 -10 5 0 13 5
16 10 3 6 2 10 -4 10 -5 0 -13 -4 -16 -10z"/>
<path fill="#000000" stroke="none" d="M38 13 c7 -3 16 -2 19 1 4 3 -2 6 -13
5 -11 0 -14 -3 -6 -6z"/>
<path fill="#000000" stroke="none" d="M88 13 c7 -3 16 -2 19 1 4 3 -2 6 -13
5 -11 0 -14 -3 -6 -6z"/>
<path fill="#000000" stroke="none" d="M138 13 c7 -3 16 -2 19 1 4 3 -2 6 -13
5 -11 0 -14 -3 -6 -6z"/>
<path fill="#000000" stroke="none" d="M198 13 c7 -3 16 -2 19 1 4 3 -2 6 -13
5 -11 0 -14 -3 -6 -6z"/>
</g>
</svg>
