<?xml version="1.0" standalone="no"?>
<!DOCTYPE svg PUBLIC "-//W3C//DTD SVG 20010904//EN"
 "http://www.w3.org/TR/2001/REC-SVG-20010904/DTD/svg10.dtd">
<svg version="1.0" xmlns="http://www.w3.org/2000/svg"
 width="32.000000pt" height="32.000000pt" viewBox="0 0 32.000000 32.000000"
 preserveAspectRatio="xMidYMid meet">
<metadata>
Created by potrace 1.16, written by Peter Selinger 2001-2019
</metadata>
<g transform="translate(0.000000,32.000000) scale(0.100000,-0.100000)"
fill="#000000" stroke="none">
<path fill="#000000" stroke="none" d="M0 163 l0 -158 151 2 c83 0 153 4 156
7 3 3 6 73 7 156 l1 150 -157 0 -158 0 0 -157z"/>
<path fill="#ffffff" stroke="none" d="M43 293 c-7 -2 -13 -17 -13 -31 0 -22
2 -24 11 -12 9 12 9 11 3 -5 -4 -11 -8 -33 -8 -50 -1 -23 3 -30 17 -29 9 1 17
-3 17 -8 0 -6 -9 -8 -20 -5 -13 3 -20 0 -20 -10 0 -9 6 -13 14 -10 8 3 21 0
31 -6 19 -14 9 -50 -15 -55 -11 -3 -10 1 3 16 16 18 16 20 2 26 -9 3 -21 4
-26 0 -13 -8 -11 -68 3 -82 9 -9 8 -12 -5 -12 -15 0 -17 15 -17 140 0 127 2
140 18 139 10 0 12 -3 5 -6z"/>
<path fill="#ffffff" stroke="none" d="M90 290 c0 -5 -2 -10 -4 -10 -3 0 -8 5
-11 10 -3 6 -1 10 4 10 6 0 11 -4 11 -10z"/>
<path fill="#ffffff" stroke="none" d="M127 294 c-3 -3 -12 -4 -19 -1 -8 3 -5
6 6 6 11 1 17 -2 13 -5z"/>
<path fill="#ffffff" stroke="none" d="M247 274 c-2 -13 0 -27 4 -30 5 -3 9
-1 9 5 0 6 7 8 15 5 17 -7 21 11 5 21 -12 7 -4 25 11 25 5 0 9 -26 8 -57 0
-49 -2 -55 -11 -35 -11 22 -32 29 -42 13 -3 -5 1 -11 9 -15 17 -6 20 -26 4
-26 -5 0 -8 4 -5 9 3 5 -1 12 -9 15 -8 3 -15 9 -14 13 4 22 -3 25 -16 7 -17
-22 -20 -38 -5 -29 6 3 11 0 11 -7 1 -7 2 -20 3 -28 0 -8 -5 -21 -12 -29 -9
-10 -10 -17 -3 -24 6 -6 11 -18 11 -26 -1 -13 -2 -13 -11 2 -14 24 -33 23 -20
-2 10 -18 6 -31 -11 -31 -5 0 -6 4 -3 10 3 5 1 10 -4 10 -14 0 -14 -6 -1 -31
10 -17 7 -19 -23 -19 -23 0 -34 5 -34 15 0 8 4 15 9 15 4 0 8 5 8 10 0 6 -6
10 -14 10 -22 0 -28 16 -11 30 13 11 14 10 9 -4 -7 -19 7 -21 25 -3 10 10 11
8 5 -7 -5 -14 -3 -17 7 -14 26 9 21 35 -8 43 -15 3 -29 5 -30 3 -6 -8 -33 43
-28 52 3 6 -3 10 -14 10 -29 0 -33 14 -10 41 11 12 18 28 16 33 -3 6 7 12 21
13 14 0 20 -2 15 -5 -7 -4 -7 -16 -2 -29 10 -28 23 -30 16 -3 -3 12 -1 18 5
14 6 -4 8 2 4 17 -3 13 -3 18 0 12 9 -21 26 -15 19 6 -5 17 0 19 46 19 49 1
51 0 46 -24z"/>
<path fill="#ffffff" stroke="none" d="M300 94 l0 -74 -39 0 -39 0 9 35 c6 19
7 40 4 45 -8 12 23 45 33 35 4 -3 -1 -12 -10 -19 -18 -13 -14 -26 8 -26 18 0
27 36 15 58 -11 20 -5 35 10 26 5 -3 9 -39 9 -80z"/>
<path fill="#ffffff" stroke="none" d="M94 34 c3 -9 -1 -14 -11 -14 -9 0 -13
3 -10 7 4 3 2 12 -5 20 -8 11 -7 12 5 7 8 -3 18 -12 21 -20z"/>
<path fill="#ffffff" stroke="none" d="M211 47 c-6 -8 -8 -17 -4 -20 3 -4 1
-7 -5 -7 -13 0 -16 22 -5 33 12 13 25 7 14 -6z"/>
<path fill="#000000" stroke="none" d="M172 258 c11 -30 25 -44 36 -33 3 3 0
11 -8 16 -12 9 -12 10 2 5 11 -3 22 2 28 14 12 22 10 22 -36 25 -30 1 -31 0
-22 -27z"/>
<path fill="#ffffff" stroke="none" d="M215 270 c3 -5 1 -10 -4 -10 -6 0 -11
5 -11 10 0 6 2 10 4 10 3 0 8 -4 11 -10z"/>
<path fill="#000000" stroke="none" d="M150 231 c0 -10 -7 -21 -15 -25 -24 -9
-17 -25 8 -18 20 5 21 4 8 -11 -10 -13 -17 -15 -27 -6 -11 9 -14 8 -14 0 0 -7
-4 -9 -10 -6 -5 3 -10 2 -10 -4 0 -5 5 -13 10 -16 6 -3 10 -1 10 6 0 9 3 9 15
-1 19 -16 63 16 63 47 0 25 -13 31 -22 11 -3 -7 -4 -1 -1 15 3 15 1 27 -5 27
-5 0 -10 -9 -10 -19z"/>
<path fill="#000000" stroke="none" d="M85 230 c-3 -5 -1 -10 4 -10 6 0 11 5
11 10 0 6 -2 10 -4 10 -3 0 -8 -4 -11 -10z"/>
<path fill="#000000" stroke="none" d="M65 200 c-3 -5 -2 -10 4 -10 5 0 16 -3
25 -6 11 -4 16 -1 16 10 0 18 -35 22 -45 6z"/>
<path fill="#000000" stroke="none" d="M173 150 c-13 -5 -23 -14 -23 -20 0
-16 15 -12 35 10 20 22 20 23 -12 10z"/>
<path fill="#000000" stroke="none" d="M136 45 c-3 -8 -1 -15 4 -15 6 0 10 7
10 15 0 8 -2 15 -4 15 -2 0 -6 -7 -10 -15z"/>
<path fill="#000000" stroke="none" d="M248 75 c-9 -10 3 -46 15 -42 16 5 32
35 24 44 -5 4 -12 1 -16 -6 -6 -10 -10 -10 -12 -2 -3 7 -7 9 -11 6z"/>
</g>
</svg>
