<?xml version="1.0" standalone="no"?>
<!DOCTYPE svg PUBLIC "-//W3C//DTD SVG 20010904//EN"
 "http://www.w3.org/TR/2001/REC-SVG-20010904/DTD/svg10.dtd">
<svg version="1.0" xmlns="http://www.w3.org/2000/svg"
 width="32.000000pt" height="32.000000pt" viewBox="0 0 32.000000 32.000000"
 preserveAspectRatio="xMidYMid meet">
<metadata>
Created by potrace 1.16, written by Peter Selinger 2001-2019
</metadata>
<g transform="translate(0.000000,32.000000) scale(0.100000,-0.100000)"
fill="#000000" stroke="none">
<path fill="#000000" stroke="none" d="M28 293 c7 -3 16 -2 19 1 4 3 -2 6 -13
5 -11 0 -14 -3 -6 -6z"/>
<path fill="#000000" stroke="none" d="M77 280 c-3 -11 -1 -20 4 -20 5 0 15
-15 23 -34 8 -18 18 -36 24 -40 5 -3 1 11 -9 31 -10 20 -16 40 -12 46 3 6 1 7
-5 3 -7 -4 -12 -1 -12 8 0 11 14 16 48 19 l47 3 -51 2 c-44 2 -52 -1 -57 -18z"/>
<path fill="#000000" stroke="none" d="M218 293 c6 -2 18 -2 25 0 6 3 1 5 -13
5 -14 0 -19 -2 -12 -5z"/>
<path fill="#000000" stroke="none" d="M21 181 c0 -57 2 -101 6 -98 3 4 5 38
4 77 -2 57 1 70 13 70 9 0 16 4 16 10 0 5 -6 7 -14 4 -9 -4 -16 3 -19 18 -2
13 -5 -24 -6 -81z"/>
<path fill="#000000" stroke="none" d="M40 269 c0 -5 5 -7 10 -4 6 3 10 8 10
11 0 2 -4 4 -10 4 -5 0 -10 -5 -10 -11z"/>
<path fill="#000000" stroke="none" d="M236 263 c-3 -7 -14 -13 -25 -13 -11 0
-22 -4 -25 -9 -8 -12 33 -1 60 16 11 7 24 10 27 6 4 -3 7 -1 7 5 0 15 -38 11
-44 -5z"/>
<path fill="#000000" stroke="none" d="M249 231 c-16 -12 -19 -20 -10 -25 7
-5 10 -2 9 5 -4 18 33 24 43 7 7 -10 9 -10 9 3 0 25 -26 30 -51 10z"/>
<path fill="#000000" stroke="none" d="M76 216 c4 -11 0 -16 -10 -16 -9 0 -16
-5 -16 -10 0 -7 6 -7 20 0 22 12 26 25 10 35 -6 3 -7 -1 -4 -9z"/>
<path fill="#000000" stroke="none" d="M191 197 c-10 -17 -10 -19 -1 -10 11
10 16 9 27 -5 12 -15 13 -14 2 8 -6 14 -12 26 -13 27 -1 1 -8 -8 -15 -20z"/>
<path fill="#000000" stroke="none" d="M285 161 c-3 -5 -1 -12 5 -16 5 -3 10
1 10 9 0 18 -6 21 -15 7z"/>
<path fill="#000000" stroke="none" d="M88 142 c9 -10 19 -17 21 -16 6 5 -20
34 -30 34 -5 0 -1 -8 9 -18z"/>
<path fill="#000000" stroke="none" d="M230 150 c-8 -5 -10 -10 -5 -10 6 0 17
5 25 10 8 5 11 10 5 10 -5 0 -17 -5 -25 -10z"/>
<path fill="#000000" stroke="none" d="M192 120 c7 -10 14 -18 15 -16 6 6 -9
36 -18 36 -5 0 -4 -9 3 -20z"/>
<path fill="#000000" stroke="none" d="M244 126 c-17 -13 -17 -16 -4 -28 8 -7
11 -9 7 -4 -3 5 1 15 11 22 9 7 14 15 11 18 -3 3 -14 -1 -25 -8z"/>
<path fill="#000000" stroke="none" d="M70 115 c7 -9 15 -13 17 -11 7 7 -7 26
-19 26 -6 0 -6 -6 2 -15z"/>
<path fill="#000000" stroke="none" d="M167 103 c3 -12 17 -26 32 -32 14 -5
20 -10 14 -10 -7 -1 -13 -6 -13 -12 0 -8 5 -7 16 2 9 7 18 9 22 3 4 -5 15 -10
26 -12 13 -3 17 1 13 12 -3 8 -2 18 3 21 4 3 11 -1 13 -7 3 -7 6 -1 6 14 l1
28 -20 -20 c-12 -12 -18 -26 -13 -33 4 -7 -5 -4 -20 6 -14 9 -33 17 -40 17 -8
0 -22 10 -30 23 l-16 22 6 -22z"/>
<path fill="#000000" stroke="none" d="M116 81 c-16 -9 -31 -23 -34 -31 -3
-12 -2 -13 6 -1 8 10 12 9 24 -8 13 -19 16 -20 22 -6 3 9 2 14 -2 12 -4 -3
-13 1 -20 9 -11 12 -9 14 7 14 10 0 21 7 25 15 3 8 4 15 3 14 -1 0 -15 -8 -31
-18z"/>
<path fill="#000000" stroke="none" d="M46 78 c3 -5 10 -6 15 -3 13 9 11 12
-6 12 -8 0 -12 -4 -9 -9z"/>
<path fill="#000000" stroke="none" d="M150 40 c0 -11 4 -20 9 -20 5 0 7 9 4
20 -3 11 -7 20 -9 20 -2 0 -4 -9 -4 -20z"/>
<path fill="#000000" stroke="none" d="M175 50 c3 -5 8 -10 11 -10 2 0 4 5 4
10 0 6 -5 10 -11 10 -5 0 -7 -4 -4 -10z"/>
<path fill="#000000" stroke="none" d="M20 41 c0 -10 19 -25 25 -20 1 2 -3 10
-11 17 -8 7 -14 8 -14 3z"/>
<path fill="#000000" stroke="none" d="M68 23 c7 -3 16 -2 19 1 4 3 -2 6 -13
5 -11 0 -14 -3 -6 -6z"/>
<path fill="#000000" stroke="none" d="M305 10 c-3 -5 -1 -10 4 -10 6 0 11 5
11 10 0 6 -2 10 -4 10 -3 0 -8 -4 -11 -10z"/>
<path fill="#000000" stroke="none" d="M178 3 c7 -3 16 -2 19 1 4 3 -2 6 -13
5 -11 0 -14 -3 -6 -6z"/>
</g>
</svg>
