<?xml version="1.0" standalone="no"?>
<!DOCTYPE svg PUBLIC "-//W3C//DTD SVG 20010904//EN"
 "http://www.w3.org/TR/2001/REC-SVG-20010904/DTD/svg10.dtd">
<svg version="1.0" xmlns="http://www.w3.org/2000/svg"
 width="32.000000pt" height="32.000000pt" viewBox="0 0 32.000000 32.000000"
 preserveAspectRatio="xMidYMid meet">
<metadata>
Created by potrace 1.16, written by Peter Selinger 2001-2019
</metadata>
<g transform="translate(0.000000,32.000000) scale(0.100000,-0.100000)"
fill="#000000" stroke="none">
<path fill="#000000" stroke="none" d="M0 163 c0 -86 3 -154 6 -150 3 3 7 59
9 124 2 65 3 129 4 143 l1 25 140 -2 c82 -2 142 1 145 7 4 6 -51 10 -149 10
l-156 0 0 -157z"/>
<path fill="#000000" stroke="none" d="M60 275 c7 -9 15 -13 17 -11 7 7 -7 26
-19 26 -6 0 -6 -6 2 -15z"/>
<path fill="#000000" stroke="none" d="M240 275 c0 -8 -7 -28 -16 -43 l-16
-27 21 25 c11 14 21 31 21 38 0 17 10 15 27 -5 13 -17 14 -17 11 2 -4 25 -48
34 -48 10z"/>
<path fill="#000000" stroke="none" d="M30 254 c0 -8 7 -14 16 -14 13 0 14 -3
5 -14 -10 -12 -8 -13 8 -9 28 7 26 26 -4 40 -20 9 -25 8 -25 -3z"/>
<path fill="#000000" stroke="none" d="M120 258 c0 -2 9 -11 20 -21 11 -9 20
-13 20 -7 0 5 -9 14 -20 20 -11 6 -20 9 -20 8z"/>
<path fill="#000000" stroke="none" d="M110 235 c0 -5 5 -17 10 -25 5 -8 10
-10 10 -5 0 6 -5 17 -10 25 -5 8 -10 11 -10 5z"/>
<path fill="#000000" stroke="none" d="M185 229 c-4 -6 -5 -12 -2 -15 2 -3 7
2 10 11 7 17 1 20 -8 4z"/>
<path fill="#000000" stroke="none" d="M260 205 c7 -9 15 -13 17 -11 7 7 -7
26 -19 26 -6 0 -6 -6 2 -15z"/>
<path fill="#000000" stroke="none" d="M30 181 c0 -25 6 -27 13 -6 4 8 2 17
-3 20 -6 4 -10 -3 -10 -14z"/>
<path fill="#000000" stroke="none" d="M72 191 c-21 -13 -43 -62 -36 -83 3
-10 10 -16 15 -12 6 4 5 11 -2 20 -10 12 -8 16 10 21 16 4 19 8 10 14 -10 6
-9 12 5 28 20 22 19 26 -2 12z"/>
<path fill="#000000" stroke="none" d="M230 188 c14 -17 12 -45 -2 -51 -8 -4
-7 -6 3 -6 27 -1 32 30 9 51 -11 10 -15 13 -10 6z"/>
<path fill="#000000" stroke="none" d="M140 179 c0 -5 -4 -8 -9 -5 -5 3 -14
-1 -20 -8 -9 -10 -9 -16 -1 -21 6 -4 14 -4 17 -1 4 3 1 6 -6 6 -7 0 -9 5 -6
10 4 7 12 7 25 0 15 -8 17 -6 13 10 -6 21 -13 27 -13 9z"/>
<path fill="#000000" stroke="none" d="M163 180 c5 -22 47 -26 47 -4 0 14 -2
14 -16 3 -13 -10 -17 -10 -26 2 -8 12 -9 12 -5 -1z"/>
<path fill="#000000" stroke="none" d="M133 128 c-6 -7 -13 -20 -17 -28 -7
-13 -6 -13 6 0 8 8 20 21 28 28 8 6 9 12 3 12 -6 0 -15 -6 -20 -12z"/>
<path fill="#000000" stroke="none" d="M200 135 c0 -5 5 -17 10 -25 5 -8 10
-10 10 -5 0 6 -5 17 -10 25 -5 8 -10 11 -10 5z"/>
<path fill="#000000" stroke="none" d="M262 115 c-6 -14 -7 -25 -2 -25 9 0 25
39 18 46 -3 2 -10 -7 -16 -21z"/>
<path fill="#000000" stroke="none" d="M86 117 c3 -10 9 -15 12 -12 3 3 0 11
-7 18 -10 9 -11 8 -5 -6z"/>
<path fill="#000000" stroke="none" d="M175 115 c4 -11 8 -27 9 -36 0 -9 6
-16 13 -16 8 0 8 9 -4 31 -18 37 -30 49 -18 21z"/>
<path fill="#000000" stroke="none" d="M63 69 c-3 -12 -11 -18 -19 -15 -8 3
-14 1 -14 -3 0 -8 23 -21 38 -21 4 0 7 14 8 30 1 35 -5 39 -13 9z"/>
<path fill="#000000" stroke="none" d="M125 60 c10 -11 20 -20 23 -20 3 0 -3
9 -13 20 -10 11 -20 20 -23 20 -3 0 3 -9 13 -20z"/>
<path fill="#000000" stroke="none" d="M275 69 c-4 -6 -5 -12 -2 -15 2 -3 7 2
10 11 7 17 1 20 -8 4z"/>
<path fill="#000000" stroke="none" d="M90 51 c0 -6 5 -13 10 -16 6 -3 10 1
10 9 0 9 -4 16 -10 16 -5 0 -10 -4 -10 -9z"/>
<path fill="#000000" stroke="none" d="M38 13 c7 -3 16 -2 19 1 4 3 -2 6 -13
5 -11 0 -14 -3 -6 -6z"/>
<path fill="#000000" stroke="none" d="M88 13 c7 -3 16 -2 19 1 4 3 -2 6 -13
5 -11 0 -14 -3 -6 -6z"/>
<path fill="#000000" stroke="none" d="M138 13 c7 -3 16 -2 19 1 4 3 -2 6 -13
5 -11 0 -14 -3 -6 -6z"/>
<path fill="#000000" stroke="none" d="M198 13 c7 -3 16 -2 19 1 4 3 -2 6 -13
5 -11 0 -14 -3 -6 -6z"/>
</g>
</svg>
