<?xml version="1.0" standalone="no"?>
<!DOCTYPE svg PUBLIC "-//W3C//DTD SVG 20010904//EN"
 "http://www.w3.org/TR/2001/REC-SVG-20010904/DTD/svg10.dtd">
<svg version="1.0" xmlns="http://www.w3.org/2000/svg"
 width="32.000000pt" height="32.000000pt" viewBox="0 0 32.000000 32.000000"
 preserveAspectRatio="xMidYMid meet">
<metadata>
Created by potrace 1.16, written by Peter Selinger 2001-2019
</metadata>
<g transform="translate(0.000000,32.000000) scale(0.100000,-0.100000)"
fill="#000000" stroke="none">
<path fill="#000000" stroke="none" d="M9 303 c-13 -15 -11 -16 20 -10 18 4
37 7 42 7 5 0 9 5 9 10 0 17 -57 11 -71 -7z"/>
<path fill="#000000" stroke="none" d="M111 297 c-13 -17 -5 -27 24 -27 27 0
35 8 28 26 -7 18 -37 18 -52 1z"/>
<path fill="#000000" stroke="none" d="M194 303 c4 -5 20 -8 36 -8 15 0 26 3
23 8 -2 4 -18 7 -35 7 -17 0 -28 -3 -24 -7z"/>
<path fill="#000000" stroke="none" d="M290 296 c0 -2 7 -6 15 -10 8 -3 15 -1
15 4 0 6 -7 10 -15 10 -8 0 -15 -2 -15 -4z"/>
<path fill="#000000" stroke="none" d="M27 267 c-15 -6 -27 -17 -27 -25 0 -7
4 -11 9 -7 5 3 12 1 16 -5 14 -23 60 7 49 33 -7 19 -8 19 -47 4z"/>
<path fill="#000000" stroke="none" d="M202 271 c-10 -6 -10 -10 2 -20 12 -10
23 -10 52 -1 27 9 33 15 23 21 -18 11 -60 11 -77 0z"/>
<path fill="#000000" stroke="none" d="M119 238 c-8 -27 -4 -33 21 -32 37 1
57 14 39 25 -13 8 -58 13 -60 7z"/>
<path fill="#000000" stroke="none" d="M267 186 c-3 -7 -2 -19 3 -26 11 -17
41 -5 34 14 -8 20 -31 28 -37 12z"/>
<path fill="#000000" stroke="none" d="M25 180 c-11 -18 16 -41 43 -38 37 4
38 24 1 37 -39 13 -36 13 -44 1z"/>
<path fill="#000000" stroke="none" d="M135 150 c-4 -6 13 -10 44 -10 28 0 51
5 51 10 0 13 -87 13 -95 0z"/>
<path fill="#000000" stroke="none" d="M65 110 c-3 -5 -2 -10 4 -10 5 0 13 5
16 10 3 6 2 10 -4 10 -5 0 -13 -4 -16 -10z"/>
<path fill="#000000" stroke="none" d="M250 108 c0 -10 38 -20 50 -13 6 4 8
11 5 16 -7 10 -55 8 -55 -3z"/>
<path fill="#000000" stroke="none" d="M146 91 c-8 -12 20 -22 39 -15 19 8 9
24 -15 24 -10 0 -21 -4 -24 -9z"/>
<path fill="#000000" stroke="none" d="M5 80 c-11 -18 5 -31 26 -20 11 6 17
15 14 21 -8 12 -32 12 -40 -1z"/>
<path fill="#000000" stroke="none" d="M230 65 c-10 -12 -9 -16 5 -21 23 -9
40 10 22 25 -11 9 -17 8 -27 -4z"/>
<path fill="#000000" stroke="none" d="M97 63 c-17 -16 0 -22 43 -14 6 2 -23
21 -31 21 -3 0 -9 -3 -12 -7z"/>
<path fill="#000000" stroke="none" d="M170 50 c0 -5 7 -10 16 -10 8 0 12 5 9
10 -3 6 -10 10 -16 10 -5 0 -9 -4 -9 -10z"/>
<path fill="#000000" stroke="none" d="M305 50 c3 -5 8 -10 11 -10 2 0 4 5 4
10 0 6 -5 10 -11 10 -5 0 -7 -4 -4 -10z"/>
<path fill="#000000" stroke="none" d="M65 40 c3 -5 8 -10 11 -10 2 0 4 5 4
10 0 6 -5 10 -11 10 -5 0 -7 -4 -4 -10z"/>
<path fill="#000000" stroke="none" d="M5 10 c3 -5 16 -10 28 -10 18 0 19 2 7
10 -20 13 -43 13 -35 0z"/>
<path fill="#000000" stroke="none" d="M228 13 c6 -2 18 -2 25 0 6 3 1 5 -13
5 -14 0 -19 -2 -12 -5z"/>
</g>
</svg>
