<?xml version="1.0" standalone="no"?>
<!DOCTYPE svg PUBLIC "-//W3C//DTD SVG 20010904//EN"
 "http://www.w3.org/TR/2001/REC-SVG-20010904/DTD/svg10.dtd">
<svg version="1.0" xmlns="http://www.w3.org/2000/svg"
 width="32.000000pt" height="32.000000pt" viewBox="0 0 32.000000 32.000000"
 preserveAspectRatio="xMidYMid meet">
<metadata>
Created by potrace 1.16, written by Peter Selinger 2001-2019
</metadata>
<g transform="translate(0.000000,32.000000) scale(0.100000,-0.100000)"
fill="#000000" stroke="none">
<path fill="#000000" stroke="none" d="M77 295 c-4 -8 -2 -17 3 -20 6 -4 10 0
10 9 0 8 6 17 13 19 7 4 6 6 -4 6 -9 1 -19 -6 -22 -14z"/>
<path fill="#000000" stroke="none" d="M175 282 c2 -20 -1 -32 -8 -32 -7 0 -1
-6 12 -13 32 -16 46 -63 23 -77 -15 -8 -15 -9 2 -10 12 0 16 -5 12 -16 -3 -8
-2 -12 3 -9 5 3 12 1 15 -4 8 -12 -11 -24 -41 -27 -24 -3 -40 26 -27 48 5 10
4 10 -6 1 -11 -10 -11 -18 -2 -38 10 -21 18 -25 56 -25 38 0 43 3 39 19 -2 10
3 25 12 35 10 9 12 16 5 16 -8 0 -10 13 -7 39 4 40 4 40 -32 43 -32 3 -36 6
-39 33 -2 17 -8 34 -13 39 -5 6 -7 -3 -4 -22z"/>
<path fill="#ffffff" stroke="none" d="M245 199 c4 -11 4 -23 0 -27 -7 -7 -25
17 -25 36 0 20 18 14 25 -9z"/>
<path fill="#ffffff" stroke="none" d="M250 134 c0 -8 -4 -12 -10 -9 -5 3 -10
10 -10 16 0 5 5 9 10 9 6 0 10 -7 10 -16z"/>
<path fill="#000000" stroke="none" d="M280 301 c0 -5 -10 -12 -22 -14 -21 -4
-20 -4 3 -6 24 -1 52 -31 29 -31 -6 0 -10 -5 -10 -10 0 -7 7 -7 21 0 19 11 19
13 5 29 -20 22 -20 28 2 34 13 4 11 5 -5 6 -13 0 -23 -3 -23 -8z"/>
<path fill="#000000" stroke="none" d="M77 241 c-3 -12 -1 -24 4 -27 6 -4 6
-10 0 -18 -6 -7 -8 -21 -5 -33 4 -15 0 -23 -15 -28 -12 -3 -18 -11 -15 -17 4
-6 1 -9 -7 -6 -8 3 -14 10 -14 16 0 6 -7 17 -15 24 -12 11 -12 11 -3 -2 5 -8
9 -25 8 -38 -1 -15 3 -21 12 -18 9 4 13 -4 13 -29 0 -26 -4 -35 -17 -36 -14 0
-12 -3 5 -10 15 -5 30 -5 42 1 27 14 34 12 20 -5 -11 -14 -10 -14 11 -7 13 5
34 6 47 1 24 -9 52 -2 52 12 0 11 58 9 83 -3 12 -6 17 -5 17 7 0 9 -5 13 -10
10 -6 -3 -10 1 -10 10 0 9 4 14 9 11 5 -3 14 0 20 8 9 11 6 12 -14 8 -14 -2
-25 -11 -25 -18 0 -11 -23 -14 -110 -14 -108 0 -110 0 -110 23 0 20 4 22 40
19 24 -3 40 0 40 7 0 6 -7 7 -17 4 -11 -4 -14 -3 -9 6 5 8 3 11 -7 9 -15 -3
-17 0 -17 22 0 14 21 12 34 -3 6 -7 10 -10 9 -8 -2 2 2 10 9 18 8 10 8 12 -3
8 -8 -2 -21 0 -29 5 -13 9 -13 11 0 20 9 5 10 10 3 10 -22 0 2 54 28 61 13 4
17 8 9 8 -8 1 -25 4 -36 7 -16 4 -23 0 -27 -15z"/>
<path fill="#ffffff" stroke="none" d="M175 20 c3 -6 -1 -7 -9 -4 -18 7 -21
14 -7 14 6 0 13 -4 16 -10z"/>
<path fill="#000000" stroke="none" d="M296 196 c21 -15 30 -14 19 3 -3 6 -14
11 -23 11 -13 0 -13 -2 4 -14z"/>
<path fill="#000000" stroke="none" d="M7 193 c7 -2 19 -2 26 0 6 3 1 5 -13 5
-14 0 -19 -2 -13 -5z"/>
<path fill="#000000" stroke="none" d="M302 151 c-11 -6 -10 -10 0 -19 11 -8
14 -7 15 9 2 22 2 21 -15 10z"/>
</g>
</svg>
