<?xml version="1.0" standalone="no"?>
<!DOCTYPE svg PUBLIC "-//W3C//DTD SVG 20010904//EN"
 "http://www.w3.org/TR/2001/REC-SVG-20010904/DTD/svg10.dtd">
<svg version="1.0" xmlns="http://www.w3.org/2000/svg"
 width="32.000000pt" height="32.000000pt" viewBox="0 0 32.000000 32.000000"
 preserveAspectRatio="xMidYMid meet">
<metadata>
Created by potrace 1.16, written by Peter Selinger 2001-2019
</metadata>
<g transform="translate(0.000000,32.000000) scale(0.100000,-0.100000)"
fill="#000000" stroke="none">
<path fill="#000000" stroke="none" d="M13 308 c-8 -11 -10 -33 -3 -40 7 -10
7 -37 -1 -32 -11 6 -12 -9 -2 -20 11 -10 12 -37 2 -30 -11 6 -12 -9 -2 -20 10
-10 13 -37 3 -31 -5 3 -7 -4 -4 -15 2 -11 6 -29 8 -40 3 -11 1 -18 -5 -15 -13
8 -11 -9 2 -22 8 -8 8 -13 0 -17 -32 -20 2 -26 149 -26 l160 0 0 160 c0 155
-1 160 -21 160 -11 0 -18 -3 -16 -8 3 -4 -5 -7 -18 -7 -13 0 -21 3 -18 8 5 9
-27 4 -44 -6 -6 -4 -14 -3 -18 2 -4 7 -15 7 -31 1 -14 -6 -23 -6 -20 -2 2 4
-13 7 -34 7 -21 0 -37 -2 -35 -5 2 -3 -5 -6 -15 -6 -10 0 -16 4 -14 8 8 13
-13 9 -23 -4z"/>
</g>
</svg>
