<?xml version="1.0" standalone="no"?>
<!DOCTYPE svg PUBLIC "-//W3C//DTD SVG 20010904//EN"
 "http://www.w3.org/TR/2001/REC-SVG-20010904/DTD/svg10.dtd">
<svg version="1.0" xmlns="http://www.w3.org/2000/svg"
 width="32.000000pt" height="32.000000pt" viewBox="0 0 32.000000 32.000000"
 preserveAspectRatio="xMidYMid meet">
<metadata>
Created by potrace 1.16, written by Peter Selinger 2001-2019
</metadata>
<g transform="translate(0.000000,32.000000) scale(0.100000,-0.100000)"
fill="#000000" stroke="none">
<path fill="#000000" stroke="none" d="M0 306 c0 -8 10 -22 21 -30 l21 -14
-21 -23 c-19 -20 -21 -35 -21 -126 0 -67 4 -102 10 -98 6 3 10 21 10 39 0 32
19 61 33 51 4 -3 4 -2 1 2 -3 5 -11 8 -17 8 -7 0 -12 12 -13 28 -1 15 4 27 11
27 6 0 12 7 12 14 0 8 -3 15 -6 14 -19 -2 -22 4 -10 19 12 14 12 16 0 8 -9 -5
-12 -4 -7 3 3 6 16 9 27 7 18 -4 19 -2 8 11 -7 9 -8 14 -2 12 6 -2 11 2 11 7
1 6 -6 9 -15 7 -10 -2 -12 1 -7 9 4 7 3 10 -4 5 -6 -3 -13 -2 -16 2 -3 5 16 9
42 8 36 -1 46 -4 44 -16 -3 -12 -1 -12 9 -3 7 7 14 20 15 28 2 12 -11 15 -67
15 -53 0 -69 -3 -69 -14z"/>
<path fill="#000000" stroke="none" d="M190 301 c-5 -11 -10 -21 -10 -24 0 -7
40 -1 47 8 5 4 2 5 -4 1 -12 -6 -18 5 -14 27 2 14 -8 7 -19 -12z"/>
<path fill="#000000" stroke="none" d="M142 272 c-7 -5 -10 -16 -7 -24 4 -9
-2 -24 -14 -35 -16 -15 -18 -20 -6 -20 8 0 15 4 15 9 0 5 4 7 9 4 4 -3 7 7 7
22 -1 15 3 33 8 40 10 14 6 15 -12 4z"/>
<path fill="#000000" stroke="none" d="M247 229 c7 -7 15 -10 18 -7 3 3 -2 9
-12 12 -14 6 -15 5 -6 -5z"/>
<path fill="#000000" stroke="none" d="M50 217 c0 -2 6 -10 14 -16 11 -9 16
-9 22 1 4 7 4 10 -1 6 -4 -4 -14 -3 -22 3 -7 6 -13 9 -13 6z"/>
<path fill="#000000" stroke="none" d="M240 200 c-8 -5 -11 -10 -7 -10 4 0 3
-9 -2 -19 -9 -16 -8 -18 7 -14 10 2 19 15 20 29 2 27 2 27 -18 14z"/>
<path fill="#000000" stroke="none" d="M184 189 c-4 -7 -3 -9 4 -5 5 3 13 0
15 -6 4 -9 6 -10 6 -1 1 17 -16 25 -25 12z"/>
<path fill="#000000" stroke="none" d="M135 171 c-6 -11 13 -26 22 -17 4 3 1
6 -6 6 -7 0 -9 5 -6 10 3 6 4 10 1 10 -3 0 -7 -4 -11 -9z"/>
<path fill="#000000" stroke="none" d="M175 142 c1 -16 5 -35 9 -41 4 -6 3
-11 -3 -11 -5 0 -12 6 -15 13 -3 6 -3 1 1 -13 5 -22 4 -23 -10 -12 -13 11 -15
10 -10 -10 5 -23 5 -23 -10 -3 -11 13 -16 15 -17 6 0 -11 -3 -11 -17 0 -15 13
-15 12 -4 -9 6 -12 9 -28 5 -34 -4 -7 -3 -8 4 -4 7 4 12 14 12 23 0 12 3 13
14 4 10 -9 16 -8 26 4 7 8 17 12 23 8 5 -3 7 -1 3 5 -3 6 -2 13 4 17 6 4 8 11
5 16 -3 5 1 6 9 3 9 -3 14 -11 13 -17 -1 -7 8 -11 20 -11 13 1 20 -3 17 -7 -3
-5 -9 -7 -14 -4 -17 11 -16 -10 1 -27 17 -16 18 -16 24 3 4 10 12 19 18 19 11
1 -21 24 -33 25 -14 1 -30 18 -24 26 3 5 0 8 -8 7 -7 -2 -12 3 -10 10 1 6 -3
11 -10 10 -7 -2 -12 2 -13 9 0 6 -3 14 -6 18 -4 3 -6 -7 -4 -23z"/>
<path fill="#000000" stroke="none" d="M45 141 c-2 -5 4 -11 15 -14 11 -3 20
-2 20 3 0 12 -28 21 -35 11z"/>
<path fill="#000000" stroke="none" d="M90 140 c0 -6 8 -14 18 -17 9 -4 20
-11 23 -16 4 -5 9 -5 13 2 4 6 2 11 -4 11 -6 0 -8 5 -4 12 4 6 3 8 -4 4 -6 -3
-13 -2 -17 4 -8 13 -25 13 -25 0z"/>
</g>
</svg>
