<?xml version="1.0" standalone="no"?>
<!DOCTYPE svg PUBLIC "-//W3C//DTD SVG 20010904//EN"
 "http://www.w3.org/TR/2001/REC-SVG-20010904/DTD/svg10.dtd">
<svg version="1.0" xmlns="http://www.w3.org/2000/svg"
 width="32.000000pt" height="32.000000pt" viewBox="0 0 32.000000 32.000000"
 preserveAspectRatio="xMidYMid meet">
<metadata>
Created by potrace 1.16, written by Peter Selinger 2001-2019
</metadata>
<g transform="translate(0.000000,32.000000) scale(0.100000,-0.100000)"
fill="#000000" stroke="none">
<path fill="#000000" stroke="none" d="M0 163 c0 -96 4 -153 9 -148 5 6 11 33
13 60 3 49 13 69 31 58 4 -3 0 -11 -10 -19 -16 -12 -16 -13 -1 -14 9 0 20 5
23 10 4 6 11 8 16 4 5 -3 6 -10 3 -16 -5 -7 -2 -8 6 -3 10 6 12 4 7 -9 -4 -10
-3 -15 3 -11 15 9 12 18 -16 48 -19 20 -32 26 -47 22 -14 -4 -18 -3 -9 3 16
11 24 52 10 49 -6 -1 -12 6 -13 16 -3 16 -1 16 13 5 9 -7 20 -17 23 -22 8 -10
29 1 29 15 0 6 -5 7 -12 3 -7 -5 -9 -2 -5 8 4 12 0 15 -16 11 -17 -4 -19 -2
-8 5 12 8 12 14 3 25 -7 7 -8 18 -4 22 4 5 2 5 -5 1 -6 -3 -14 -2 -17 3 -3 5
15 8 41 7 41 -1 47 -4 48 -24 1 -15 -3 -21 -12 -18 -16 6 -18 -10 -2 -20 6 -3
15 -1 19 6 4 6 11 11 16 10 5 -1 9 3 11 10 1 6 -1 5 -4 -2 -3 -6 -11 4 -17 23
-11 33 -13 34 -68 37 l-58 3 0 -158z"/>
<path fill="#ffffff" stroke="none" d="M45 260 c3 -5 2 -10 -4 -10 -5 0 -13 5
-16 10 -3 6 -2 10 4 10 5 0 13 -4 16 -10z"/>
<path fill="#000000" stroke="none" d="M192 285 c-36 -39 -35 -42 8 -20 26 14
49 7 33 -9 -4 -3 -7 -15 -8 -25 -2 -21 27 -18 46 5 13 16 -2 19 -17 4 -7 -7
-11 -6 -11 5 0 8 9 15 19 15 15 0 18 5 13 20 -5 14 -2 20 9 20 9 0 16 5 16 10
0 6 -17 10 -37 10 -30 0 -45 -8 -71 -35z"/>
<path fill="#ffffff" stroke="none" d="M264 283 c3 -7 -1 -13 -9 -13 -8 0 -15
5 -15 11 0 6 -7 8 -16 5 -8 -3 -12 -2 -9 3 8 14 44 9 49 -6z"/>
<path fill="#000000" stroke="none" d="M86 278 c3 -5 10 -6 15 -3 13 9 11 12
-6 12 -8 0 -12 -4 -9 -9z"/>
<path fill="#000000" stroke="none" d="M113 203 c-7 -2 -13 -14 -13 -26 1 -20
2 -21 14 -5 7 10 16 15 19 11 4 -3 1 -13 -6 -21 -7 -10 -8 -13 -1 -9 13 8 37
-16 27 -26 -11 -12 -25 -8 -17 5 4 6 3 8 -4 4 -6 -3 -13 -2 -17 4 -8 13 -25
13 -25 -1 0 -6 9 -13 20 -16 11 -3 20 -10 20 -15 0 -6 6 -6 14 1 11 9 15 9 20
-1 3 -7 3 0 1 16 -2 16 -8 32 -13 35 -5 3 -8 16 -7 29 2 21 -7 26 -32 15z"/>
<path fill="#000000" stroke="none" d="M177 185 c-15 -10 -15 -14 -2 -31 8
-10 15 -14 15 -9 0 6 5 3 11 -5 8 -12 9 -12 7 5 -1 11 1 25 5 31 10 17 -16 24
-36 9z"/>
<path fill="#000000" stroke="none" d="M252 144 c-7 -8 -8 -14 -3 -14 10 0 25
19 20 25 -2 1 -10 -3 -17 -11z"/>
<path fill="#000000" stroke="none" d="M180 118 c0 -26 36 -51 57 -40 17 10
17 11 1 17 -10 4 -15 12 -11 18 3 6 1 7 -6 3 -6 -4 -18 -2 -26 4 -12 10 -15 9
-15 -2z"/>
<path fill="#ffffff" stroke="none" d="M211 93 c13 -16 12 -17 -3 -4 -10 7
-18 15 -18 17 0 8 8 3 21 -13z"/>
<path fill="#000000" stroke="none" d="M120 74 c0 -6 6 -17 13 -23 11 -8 18
-6 33 12 18 22 18 22 -1 5 -17 -16 -19 -16 -31 0 -8 9 -14 12 -14 6z"/>
<path fill="#000000" stroke="none" d="M222 63 c-10 -4 -10 -8 -1 -19 6 -8 17
-14 23 -14 6 0 4 5 -4 10 -10 6 -11 10 -2 10 6 0 12 5 12 10 0 11 -7 12 -28 3z"/>
</g>
</svg>
