<?xml version="1.0" standalone="no"?>
<!DOCTYPE svg PUBLIC "-//W3C//DTD SVG 20010904//EN"
 "http://www.w3.org/TR/2001/REC-SVG-20010904/DTD/svg10.dtd">
<svg version="1.0" xmlns="http://www.w3.org/2000/svg"
 width="32.000000pt" height="32.000000pt" viewBox="0 0 32.000000 32.000000"
 preserveAspectRatio="xMidYMid meet">
<metadata>
Created by potrace 1.16, written by Peter Selinger 2001-2019
</metadata>
<g transform="translate(0.000000,32.000000) scale(0.100000,-0.100000)"
fill="#000000" stroke="none">
<path fill="#000000" stroke="none" d="M292 303 c-7 -10 -9 -11 -5 -3 5 12 4
13 -8 4 -8 -6 -24 -10 -36 -8 -12 2 -25 -1 -29 -8 -5 -7 -3 -8 6 -3 9 6 11 4
5 -5 -6 -10 -10 -10 -19 2 -7 9 -26 14 -51 14 -22 -1 -53 2 -69 6 -17 4 -35 3
-41 -2 -7 -5 -16 -6 -20 -2 -5 4 -5 1 -1 -6 4 -7 12 -10 17 -6 5 3 8 2 7 -3
-1 -4 3 -18 10 -30 11 -19 10 -22 -2 -17 -9 3 -14 11 -13 16 1 6 -3 12 -9 14
-5 3 -10 -7 -10 -20 0 -15 4 -22 10 -18 6 3 5 -2 -3 -11 -12 -15 -9 -21 10
-19 3 1 6 -6 6 -14 0 -8 -6 -14 -12 -14 -7 0 -12 -12 -11 -27 1 -16 6 -28 13
-28 6 0 14 -3 17 -7 3 -5 3 -6 -1 -3 -13 10 -33 -19 -33 -49 0 -18 -5 -37 -12
-44 -9 -9 24 -12 150 -12 l162 0 0 160 c0 88 -3 160 -8 160 -4 0 -13 -8 -20
-17z"/>
<path fill="#ffffff" stroke="none" d="M150 265 c-7 -9 -15 -13 -19 -10 -3 3
1 10 9 15 21 14 24 12 10 -5z"/>
<path fill="#ffffff" stroke="none" d="M85 208 c5 4 5 1 1 -6 -6 -10 -11 -10
-22 -1 -8 6 -14 14 -14 16 0 3 6 0 13 -6 8 -6 18 -7 22 -3z"/>
<path fill="#ffffff" stroke="none" d="M213 177 c-5 -8 -8 -7 -11 1 -2 7 -9 9
-14 6 -7 -4 -8 -2 -4 4 4 6 13 9 21 6 8 -4 12 -11 8 -17z"/>
<path fill="#ffffff" stroke="none" d="M145 170 c-3 -5 -1 -10 6 -10 7 0 10
-3 6 -6 -9 -9 -28 6 -22 17 4 5 8 9 11 9 3 0 2 -4 -1 -10z"/>
<path fill="#ffffff" stroke="none" d="M185 161 c3 -5 2 -12 -3 -15 -5 -3 -9
1 -9 9 0 17 3 19 12 6z"/>
<path fill="#ffffff" stroke="none" d="M80 130 c0 -5 -9 -6 -20 -3 -11 3 -17
9 -15 14 7 10 35 1 35 -11z"/>
<path fill="#ffffff" stroke="none" d="M115 140 c4 -6 11 -7 17 -4 7 4 8 2 4
-4 -4 -7 -2 -12 4 -12 6 0 8 -5 4 -11 -4 -7 -9 -7 -13 -2 -3 5 -14 12 -23 16
-10 3 -18 11 -18 17 0 13 17 13 25 0z"/>
<path fill="#ffffff" stroke="none" d="M200 117 c0 -5 7 -7 15 -3 22 8 18 -1
-5 -14 -15 -8 -21 -6 -29 8 -8 14 -6 19 5 19 7 0 14 -5 14 -10z"/>
<path fill="#ffffff" stroke="none" d="M176 78 c5 4 0 -3 -10 -15 -13 -16 -23
-20 -31 -13 -7 6 -15 6 -22 -1 -6 -6 -16 -8 -22 -4 -16 9 -3 25 14 18 9 -3 15
1 15 8 1 9 6 7 17 -6 15 -20 15 -20 10 3 -4 18 -3 21 7 13 7 -6 17 -7 22 -3z"/>
</g>
</svg>
