<?xml version="1.0" standalone="no"?>
<!DOCTYPE svg PUBLIC "-//W3C//DTD SVG 20010904//EN"
 "http://www.w3.org/TR/2001/REC-SVG-20010904/DTD/svg10.dtd">
<svg version="1.0" xmlns="http://www.w3.org/2000/svg"
 width="32.000000pt" height="32.000000pt" viewBox="0 0 32.000000 32.000000"
 preserveAspectRatio="xMidYMid meet">
<metadata>
Created by potrace 1.16, written by Peter Selinger 2001-2019
</metadata>
<g transform="translate(0.000000,32.000000) scale(0.100000,-0.100000)"
fill="#000000" stroke="none">
<path fill="#000000" stroke="none" d="M0 309 c0 -5 5 -7 10 -4 5 3 10 8 10
11 0 2 -4 4 -10 4 -5 0 -10 -5 -10 -11z"/>
<path fill="#000000" stroke="none" d="M35 312 c7 -7 86 -9 90 -2 2 4 -18 6
-46 6 -27 1 -47 -2 -44 -4z"/>
<path fill="#000000" stroke="none" d="M186 283 c-6 -14 -5 -15 5 -6 7 7 10
15 7 18 -3 3 -9 -2 -12 -12z"/>
<path fill="#000000" stroke="none" d="M5 199 c-4 -6 -5 -12 -2 -15 2 -3 7 2
10 11 7 17 1 20 -8 4z"/>
<path fill="#000000" stroke="none" d="M2 121 c-1 -19 3 -28 13 -28 11 0 12 4
4 13 -6 7 -8 18 -5 23 4 5 3 12 -2 15 -4 2 -9 -8 -10 -23z"/>
<path fill="#000000" stroke="none" d="M246 47 c3 -10 9 -15 12 -12 3 3 0 11
-7 18 -10 9 -11 8 -5 -6z"/>
<path fill="#000000" stroke="none" d="M3 35 c0 -8 4 -12 9 -9 5 3 6 10 3 15
-9 13 -12 11 -12 -6z"/>
</g>
</svg>
