<?xml version="1.0" standalone="no"?>
<!DOCTYPE svg PUBLIC "-//W3C//DTD SVG 20010904//EN"
 "http://www.w3.org/TR/2001/REC-SVG-20010904/DTD/svg10.dtd">
<svg version="1.0" xmlns="http://www.w3.org/2000/svg"
 width="32.000000pt" height="32.000000pt" viewBox="0 0 32.000000 32.000000"
 preserveAspectRatio="xMidYMid meet">
<metadata>
Created by potrace 1.16, written by Peter Selinger 2001-2019
</metadata>
<g transform="translate(0.000000,32.000000) scale(0.100000,-0.100000)"
fill="#000000" stroke="none">
<path fill="#000000" stroke="none" d="M310 311 c0 -5 -15 -14 -32 -21 -29
-10 -31 -12 -15 -21 9 -6 17 -15 17 -20 0 -6 -6 -7 -12 -3 -7 4 -3 -4 10 -18
21 -23 22 -29 10 -49 -7 -13 -22 -32 -33 -42 -14 -14 -16 -18 -5 -15 16 3 20
-2 20 -24 0 -9 -4 -8 -10 2 -9 13 -12 12 -25 -5 -14 -18 -14 -20 2 -27 13 -5
14 -7 3 -7 -13 -1 -13 -3 -1 -10 9 -6 19 -5 26 2 10 9 10 14 1 19 -8 6 -8 8 1
8 7 0 17 -9 23 -20 8 -16 8 -20 -2 -18 -7 2 -12 -2 -11 -9 2 -6 -6 -11 -17
-10 -11 1 -20 5 -20 10 0 4 -4 6 -9 2 -8 -4 -24 24 -26 47 0 3 -3 9 -6 12 -4
4 -5 -4 -4 -16 1 -13 3 -23 4 -23 2 0 4 -8 6 -18 2 -9 2 -17 1 -17 -11 0 -42
38 -39 47 6 17 -41 27 -65 14 -11 -6 -23 -7 -27 -3 -5 4 -5 2 -1 -5 4 -7 13
-10 20 -7 17 6 30 -26 16 -40 -7 -7 -14 -6 -22 3 -11 11 -10 13 5 8 27 -10 20
0 -12 16 -30 15 -61 7 -61 -16 0 -8 3 -8 8 -2 10 14 42 18 42 5 0 -6 -4 -9 -9
-6 -5 3 -20 -3 -32 -14 l-24 -19 158 -1 157 0 0 160 c0 88 -2 160 -5 160 -3 0
-5 -4 -5 -9z"/>
<path fill="#ffffff" stroke="none" d="M298 135 c0 -14 -5 -28 -11 -32 -5 -3
-7 -1 -3 5 3 6 2 14 -4 17 -8 5 -7 11 1 21 15 19 17 18 17 -11z"/>
<path fill="#ffffff" stroke="none" d="M150 68 c0 -4 -4 -8 -10 -8 -5 0 -7 -8
-3 -17 8 -23 -1 -15 -16 14 -10 19 -9 22 9 20 11 -1 20 -5 20 -9z"/>
<path fill="#000000" stroke="none" d="M146 253 c-6 -14 -5 -15 5 -6 7 7 10
15 7 18 -3 3 -9 -2 -12 -12z"/>
<path fill="#000000" stroke="none" d="M170 226 c0 -2 7 -7 16 -10 8 -3 12 -2
9 4 -6 10 -25 14 -25 6z"/>
<path fill="#000000" stroke="none" d="M240 224 c0 -19 29 -39 41 -27 8 8 7
13 -2 18 -8 5 -10 4 -5 -3 4 -7 3 -12 -3 -12 -5 0 -15 8 -20 18 -6 9 -11 12
-11 6z"/>
<path fill="#000000" stroke="none" d="M81 111 c-10 -7 -10 -10 -1 -16 6 -4
16 -3 22 3 13 13 -4 23 -21 13z"/>
</g>
</svg>
