<?xml version="1.0" standalone="no"?>
<!DOCTYPE svg PUBLIC "-//W3C//DTD SVG 20010904//EN"
 "http://www.w3.org/TR/2001/REC-SVG-20010904/DTD/svg10.dtd">
<svg version="1.0" xmlns="http://www.w3.org/2000/svg"
 width="32.000000pt" height="32.000000pt" viewBox="0 0 32.000000 32.000000"
 preserveAspectRatio="xMidYMid meet">
<metadata>
Created by potrace 1.16, written by Peter Selinger 2001-2019
</metadata>
<g transform="translate(0.000000,32.000000) scale(0.100000,-0.100000)"
fill="#000000" stroke="none">
<path fill="#000000" stroke="none" d="M0 158 c1 -144 2 -161 15 -144 8 10 16
24 18 30 3 7 9 6 18 -3 8 -8 9 -11 2 -7 -6 3 -14 3 -17 -2 -2 -4 11 -8 29 -8
18 0 33 5 32 10 -1 5 7 12 18 14 16 4 17 2 8 -10 -10 -11 -7 -14 15 -12 39 2
42 3 41 12 -4 21 3 24 15 6 21 -28 95 -28 101 1 8 44 2 76 -14 70 -14 -4 -14
-4 -1 7 8 7 15 23 16 35 0 18 -3 20 -22 13 -18 -7 -21 -6 -19 8 2 9 4 21 4 25
1 5 6 5 11 2 6 -4 8 -11 5 -16 -3 -5 1 -6 9 -3 8 3 14 14 13 25 -1 12 -7 17
-15 14 -7 -2 -11 -1 -8 3 2 4 -7 12 -20 19 -13 6 -22 7 -19 3 3 -5 1 -11 -5
-15 -11 -7 -14 18 -4 28 4 3 19 0 34 -8 25 -13 29 -13 34 1 3 9 4 20 1 24 -3
5 -1 11 5 15 31 19 -3 25 -145 25 l-155 0 0 -162z"/>
<path fill="#ffffff" stroke="none" d="M75 290 c3 -6 -1 -7 -9 -4 -18 7 -21
14 -7 14 6 0 13 -4 16 -10z"/>
<path fill="#ffffff" stroke="none" d="M210 242 c8 -19 13 -22 24 -13 11 9 16
9 22 0 4 -7 0 -17 -8 -23 -8 -6 -13 -17 -10 -25 3 -8 0 -11 -7 -7 -6 4 -11 16
-11 26 0 30 -17 32 -37 5 -14 -19 -21 -22 -33 -14 -13 10 -13 10 1 6 19 -6 55
48 39 58 -6 4 -9 1 -8 -5 2 -7 -5 -14 -15 -15 -17 -3 -17 -2 -3 14 13 14 13
20 3 30 -10 11 -8 11 10 0 12 -7 27 -24 33 -37z"/>
<path fill="#ffffff" stroke="none" d="M120 220 c-6 -11 -16 -17 -22 -14 -7 5
-5 12 7 21 25 18 28 17 15 -7z"/>
<path fill="#ffffff" stroke="none" d="M90 171 c6 -2 -23 -21 -31 -21 -3 0 -6
6 -6 14 0 7 7 12 16 11 9 -2 18 -4 21 -4z"/>
<path fill="#ffffff" stroke="none" d="M229 147 c8 -10 7 -14 -2 -14 -8 0 -14
6 -14 14 0 7 1 13 2 13 2 0 8 -6 14 -13z"/>
<path fill="#ffffff" stroke="none" d="M258 111 c0 -3 0 -13 1 -21 1 -13 2
-13 11 0 6 9 10 10 10 3 0 -23 -18 -23 -33 0 -12 19 -13 24 -2 24 8 0 14 -3
13 -6z"/>
<path fill="#ffffff" stroke="none" d="M59 70 c11 -22 10 -23 -2 -7 -16 19
-32 24 -21 5 4 -7 3 -8 -5 -4 -9 6 -9 11 0 22 14 17 12 17 28 -16z"/>
<path fill="#ffffff" stroke="none" d="M187 86 c4 -5 2 -6 -5 -2 -7 4 -15 1
-18 -8 -3 -9 -11 -16 -17 -16 -6 0 -7 3 -3 7 3 4 -4 12 -16 19 -22 12 -21 12
14 11 20 -2 40 -6 45 -11z"/>
<path fill="#ffffff" stroke="none" d="M270 45 c0 -9 -6 -12 -16 -8 -13 5 -13
7 -2 14 17 11 18 11 18 -6z"/>
</g>
</svg>
