<?xml version="1.0" standalone="no"?>
<!DOCTYPE svg PUBLIC "-//W3C//DTD SVG 20010904//EN"
 "http://www.w3.org/TR/2001/REC-SVG-20010904/DTD/svg10.dtd">
<svg version="1.0" xmlns="http://www.w3.org/2000/svg"
 width="32.000000pt" height="32.000000pt" viewBox="0 0 32.000000 32.000000"
 preserveAspectRatio="xMidYMid meet">
<metadata>
Created by potrace 1.16, written by Peter Selinger 2001-2019
</metadata>
<g transform="translate(0.000000,32.000000) scale(0.100000,-0.100000)"
fill="#000000" stroke="none">
<path fill="#000000" stroke="none" d="M303 309 c-6 -6 -37 -12 -67 -12 -31 0
-56 -4 -56 -7 0 -4 12 -6 26 -4 14 1 23 0 20 -4 -13 -13 -65 -8 -71 6 -4 12
-8 13 -17 4 -13 -13 -32 -16 -25 -4 4 6 -45 8 -83 3 -16 -2 -12 -21 4 -21 22
0 31 -21 13 -32 -9 -5 -14 -15 -10 -23 3 -9 0 -22 -7 -30 -11 -13 -10 -14 6
-8 17 6 17 5 6 -10 -8 -9 -11 -21 -7 -27 3 -5 0 -10 -7 -10 -10 0 -9 -3 1 -9
12 -8 12 -12 2 -25 -8 -10 -9 -16 -3 -16 6 0 16 8 21 17 8 14 10 15 11 3 0 -8
-9 -21 -20 -28 -11 -7 -20 -23 -20 -36 0 -13 -6 -27 -12 -29 -7 -3 60 -6 150
-6 l162 -1 0 160 c0 88 -1 160 -3 160 -2 0 -8 -5 -14 -11z"/>
<path fill="#ffffff" stroke="none" d="M125 232 c-12 -12 -33 -10 -28 3 2 8
11 11 19 8 8 -3 12 -8 9 -11z"/>
<path fill="#ffffff" stroke="none" d="M83 216 c9 -7 17 -17 17 -21 0 -5 -8
-1 -18 8 -10 10 -22 14 -25 10 -4 -3 -7 -1 -7 5 0 15 11 15 33 -2z"/>
<path fill="#ffffff" stroke="none" d="M70 196 c0 -3 -4 -8 -10 -11 -5 -3 -10
-1 -10 4 0 6 5 11 10 11 6 0 10 -2 10 -4z"/>
<path fill="#ffffff" stroke="none" d="M68 155 c-4 -11 -28 -16 -28 -6 0 12
13 22 23 18 5 -1 7 -7 5 -12z"/>
<path fill="#ffffff" stroke="none" d="M152 145 c2 3 5 -2 5 -10 0 -8 -3 -15
-6 -16 -3 0 -14 -2 -24 -4 -9 -2 -15 1 -12 5 3 5 1 11 -4 15 -6 3 -8 12 -4 21
5 13 7 13 23 -1 9 -8 19 -13 22 -10z"/>
<path fill="#000000" stroke="none" d="M120 135 c7 -9 15 -13 17 -11 7 7 -7
26 -19 26 -6 0 -6 -6 2 -15z"/>
<path fill="#000000" stroke="none" d="M20 249 c0 -5 5 -7 10 -4 6 3 10 8 10
11 0 2 -4 4 -10 4 -5 0 -10 -5 -10 -11z"/>
</g>
</svg>
