<?xml version="1.0" standalone="no"?>
<!DOCTYPE svg PUBLIC "-//W3C//DTD SVG 20010904//EN"
 "http://www.w3.org/TR/2001/REC-SVG-20010904/DTD/svg10.dtd">
<svg version="1.0" xmlns="http://www.w3.org/2000/svg"
 width="32.000000pt" height="32.000000pt" viewBox="0 0 32.000000 32.000000"
 preserveAspectRatio="xMidYMid meet">
<metadata>
Created by potrace 1.16, written by Peter Selinger 2001-2019
</metadata>
<g transform="translate(0.000000,32.000000) scale(0.100000,-0.100000)"
fill="#000000" stroke="none">
<path fill="#000000" stroke="none" d="M13 313 c-8 -3 -12 -21 -11 -46 1 -37
2 -38 5 -9 3 25 9 32 27 32 26 0 61 -33 52 -49 -4 -6 2 -8 13 -6 19 4 23 -17
6 -32 -4 -4 -5 -2 0 6 5 9 4 12 -3 7 -7 -4 -12 -15 -12 -24 0 -14 -2 -14 -9
-3 -5 7 -15 11 -22 9 -8 -3 -25 -1 -38 4 -20 7 -22 6 -12 -6 8 -9 9 -16 2 -21
-6 -3 -9 -24 -8 -45 2 -32 5 -39 19 -34 9 2 19 0 22 -5 4 -6 13 -8 21 -4 10 3
15 -2 15 -16 0 -12 0 -24 0 -28 0 -5 -4 -8 -9 -8 -5 0 -13 -4 -18 -9 -5 -6 -2
-6 6 -1 11 6 13 4 8 -8 -5 -13 -1 -17 16 -17 18 0 19 2 7 10 -12 8 -12 10 -1
10 10 0 12 10 7 44 -8 50 2 63 35 46 16 -9 20 -19 18 -53 -2 -26 -9 -45 -19
-49 -10 -4 -6 -7 13 -7 15 -1 27 4 27 10 0 8 4 8 14 0 19 -16 118 -11 105 5
-7 8 -4 11 8 10 15 -1 18 8 20 49 1 28 0 44 -3 37 -3 -6 -10 -10 -15 -6 -5 3
-9 -1 -9 -8 0 -9 -3 -9 -10 2 -5 8 -10 11 -10 6 0 -5 -8 -2 -19 8 -16 14 -17
22 -7 56 10 39 36 54 51 30 13 -20 25 -9 25 23 -1 26 -2 29 -11 15 -5 -10 -17
-18 -25 -18 -10 0 -12 5 -8 13 5 8 2 8 -9 -2 -14 -11 -21 -11 -42 3 -28 19
-35 20 -35 6 0 -5 7 -10 16 -10 8 0 12 -4 9 -10 -3 -5 -1 -10 6 -10 7 0 9 -3
6 -7 -4 -3 -2 -12 4 -19 8 -10 6 -12 -10 -9 -14 2 -18 -1 -14 -11 3 -7 10 -11
17 -7 6 3 2 -3 -8 -15 -11 -12 -21 -20 -24 -17 -3 3 -11 0 -17 -5 -15 -13 -55
1 -74 24 -12 14 -11 20 8 39 11 13 21 31 21 40 0 11 8 17 24 17 28 0 41 15 48
53 3 17 1 27 -7 27 -7 0 -11 -11 -9 -26 2 -18 -2 -24 -11 -20 -9 3 -12 0 -9
-9 8 -21 -48 -13 -72 10 -19 20 -19 20 26 31 l45 11 -57 1 c-33 0 -58 -4 -58
-10 0 -7 -4 -7 -12 -1 -7 6 -19 8 -25 6z"/>
<path fill="#ffffff" stroke="none" d="M65 180 c-3 -5 -2 -10 3 -10 15 0 20
-35 8 -52 -21 -28 -79 13 -60 44 3 5 16 13 28 18 28 12 28 12 21 0z"/>
<path fill="#ffffff" stroke="none" d="M245 100 c10 -11 26 -20 35 -20 9 0 19
-3 23 -6 9 -9 -4 -35 -14 -28 -5 3 -7 10 -4 15 4 5 4 9 1 9 -3 0 -13 -15 -21
-32 -8 -18 -13 -25 -10 -15 4 15 2 16 -18 2 -32 -21 -71 0 -75 41 -2 24 2 33
20 42 33 16 43 14 63 -8z"/>
<path fill="#000000" stroke="none" d="M294 296 c0 -13 6 -23 13 -23 7 0 13 8
13 18 0 9 -6 19 -13 22 -8 3 -13 -3 -13 -17z"/>
</g>
</svg>
