<?xml version="1.0" standalone="no"?>
<!DOCTYPE svg PUBLIC "-//W3C//DTD SVG 20010904//EN"
 "http://www.w3.org/TR/2001/REC-SVG-20010904/DTD/svg10.dtd">
<svg version="1.0" xmlns="http://www.w3.org/2000/svg"
 width="32.000000pt" height="32.000000pt" viewBox="0 0 32.000000 32.000000"
 preserveAspectRatio="xMidYMid meet">
<metadata>
Created by potrace 1.16, written by Peter Selinger 2001-2019
</metadata>
<g transform="translate(0.000000,32.000000) scale(0.100000,-0.100000)"
fill="#000000" stroke="none">
<path fill="#000000" stroke="none" d="M5 298 c-4 -14 -5 -37 -2 -49 4 -21 4
-21 6 4 0 16 5 26 11 22 6 -3 10 -2 10 3 0 12 32 22 83 27 61 6 56 15 -6 15
-32 0 -57 -4 -57 -10 0 -12 -22 -9 -32 4 -4 6 -10 -2 -13 -16z"/>
<path fill="#000000" stroke="none" d="M185 296 c2 -18 -1 -23 -11 -19 -9 3
-14 0 -12 -8 2 -7 -1 -13 -7 -14 -18 -1 -55 -26 -55 -36 0 -6 5 -7 12 -3 7 5
8 3 4 -5 -5 -7 -10 -10 -13 -8 -2 3 -18 1 -35 -4 -18 -5 -38 -5 -48 1 -15 8
-17 3 -16 -50 l1 -60 40 -8 c26 -5 41 -14 43 -25 2 -10 -3 -17 -12 -17 -8 0
-18 -5 -22 -12 -5 -7 -2 -9 7 -4 8 4 5 0 -5 -8 -19 -15 -19 -16 8 -16 15 0 25
4 21 9 -3 5 -1 12 5 16 5 3 10 15 10 26 0 21 7 23 29 10 25 -16 24 -49 -2 -53
-12 -3 13 -5 56 -5 51 -1 75 2 71 9 -4 6 3 5 16 -2 18 -10 24 -9 36 7 17 23
19 84 2 80 -7 -1 -12 3 -13 8 0 6 -10 20 -22 33 -37 36 -22 87 18 61 23 -15
29 -10 29 22 0 28 -1 29 -16 15 -18 -18 -39 -22 -28 -5 5 8 1 8 -13 0 -11 -6
-23 -8 -26 -5 -3 3 -13 2 -22 -3 -15 -9 -15 -11 1 -24 16 -12 17 -12 9 1 -4 8
-4 12 0 7 14 -12 15 -37 2 -34 -7 1 -12 -5 -12 -13 0 -18 -17 -40 -27 -34 -4
2 -10 -1 -13 -7 -4 -5 -14 -8 -23 -4 -8 3 -18 1 -22 -5 -3 -5 -20 -13 -37 -16
-26 -5 -37 -1 -58 20 -15 15 -25 32 -22 39 6 18 48 37 85 37 32 0 41 -9 46
-44 4 -27 16 -30 16 -5 0 14 -7 35 -16 47 -15 22 -15 24 2 36 10 8 32 12 48
10 26 -4 29 -3 15 8 -11 9 -13 22 -8 46 4 22 3 32 -6 32 -7 0 -11 -10 -10 -24z"/>
<path fill="#ffffff" stroke="none" d="M265 111 c8 -16 19 -31 24 -33 12 -4
18 -22 9 -26 -5 -1 -24 -11 -43 -22 -29 -16 -39 -18 -62 -8 -16 6 -31 11 -35
10 -4 -1 -5 5 -2 13 4 8 1 15 -5 15 -6 0 -11 9 -11 20 0 14 7 20 23 20 12 0
33 9 47 20 33 26 37 25 55 -9z"/>
<path fill="#000000" stroke="none" d="M294 307 c1 -7 7 -21 14 -32 11 -19 11
-19 12 6 0 15 -6 29 -14 32 -8 3 -13 0 -12 -6z"/>
</g>
</svg>
