<?xml version="1.0" standalone="no"?>
<!DOCTYPE svg PUBLIC "-//W3C//DTD SVG 20010904//EN"
 "http://www.w3.org/TR/2001/REC-SVG-20010904/DTD/svg10.dtd">
<svg version="1.0" xmlns="http://www.w3.org/2000/svg"
 width="32.000000pt" height="32.000000pt" viewBox="0 0 32.000000 32.000000"
 preserveAspectRatio="xMidYMid meet">
<metadata>
Created by potrace 1.16, written by Peter Selinger 2001-2019
</metadata>
<g transform="translate(0.000000,32.000000) scale(0.100000,-0.100000)"
fill="#000000" stroke="none">
<path fill="#000000" stroke="none" d="M20 312 c0 -5 7 -9 15 -9 8 0 15 4 15
9 0 4 -7 8 -15 8 -8 0 -15 -4 -15 -8z"/>
<path fill="#000000" stroke="none" d="M158 314 c-3 -3 -23 -7 -45 -9 -51 -5
-83 -15 -83 -27 0 -5 -4 -7 -9 -4 -5 3 -11 -9 -14 -27 -6 -37 14 -60 48 -51
12 3 29 6 38 8 9 1 20 6 24 11 4 4 2 5 -4 1 -7 -4 -13 -3 -13 3 0 10 37 35 55
36 6 1 9 7 7 14 -2 8 3 11 11 8 10 -4 14 2 13 16 -1 20 -17 33 -28 21z"/>
<path fill="#000000" stroke="none" d="M205 306 c-11 -32 -9 -52 5 -64 13 -11
10 -12 -16 -8 -16 2 -38 -2 -48 -10 -17 -12 -17 -14 -2 -36 9 -12 16 -33 16
-47 0 -25 -12 -22 -16 5 -5 35 -14 44 -46 44 -37 0 -79 -19 -85 -37 -3 -7 7
-24 22 -39 21 -21 32 -25 58 -20 17 3 34 11 37 16 4 6 14 8 22 5 9 -4 19 -1
23 4 3 6 9 9 13 7 10 -6 27 16 27 34 0 8 5 14 12 13 13 -3 12 22 -2 34 -4 5
-4 1 0 -7 8 -13 7 -13 -9 -1 -16 13 -16 15 -1 24 9 5 19 6 22 3 3 -3 15 -1 26
5 14 8 18 8 13 0 -11 -17 10 -13 29 5 14 15 14 19 0 40 -13 20 -13 24 0 31 10
6 -5 9 -41 10 -34 1 -57 -4 -59 -11z"/>
<path fill="#000000" stroke="none" d="M263 203 c-20 -7 -15 -41 10 -65 12
-13 22 -26 22 -30 0 -5 4 -9 10 -10 15 -4 19 34 3 43 -10 6 -10 9 0 9 6 0 12
8 12 18 0 20 -37 42 -57 35z"/>
<path fill="#000000" stroke="none" d="M210 120 c-14 -11 -35 -20 -47 -20 -28
0 -30 -22 -5 -51 29 -35 58 -41 97 -19 19 11 38 21 43 22 9 4 3 22 -9 26 -5 2
-16 17 -24 33 -18 34 -22 35 -55 9z"/>
<path fill="#000000" stroke="none" d="M1 114 c0 -11 3 -14 6 -6 3 7 2 16 -1
19 -3 4 -6 -2 -5 -13z"/>
<path fill="#000000" stroke="none" d="M0 45 c0 -37 3 -45 18 -45 10 0 27 7
38 16 10 8 13 12 5 8 -9 -5 -12 -3 -7 4 4 7 14 12 22 12 14 0 20 26 7 33 -5 2
-25 7 -45 11 l-38 7 0 -46z"/>
<path fill="#000000" stroke="none" d="M100 51 c0 -11 -5 -23 -10 -26 -19 -12
1 -25 28 -18 38 9 45 25 21 46 -27 22 -39 22 -39 -2z"/>
<path fill="#000000" stroke="none" d="M306 21 c-4 -7 -5 -15 -2 -18 9 -9 19
4 14 18 -4 11 -6 11 -12 0z"/>
<path fill="#000000" stroke="none" d="M257 9 c7 -7 15 -10 18 -7 3 3 -2 9
-12 12 -14 6 -15 5 -6 -5z"/>
</g>
</svg>
