<?xml version="1.0" standalone="no"?>
<!DOCTYPE svg PUBLIC "-//W3C//DTD SVG 20010904//EN"
 "http://www.w3.org/TR/2001/REC-SVG-20010904/DTD/svg10.dtd">
<svg version="1.0" xmlns="http://www.w3.org/2000/svg"
 width="32.000000pt" height="32.000000pt" viewBox="0 0 32.000000 32.000000"
 preserveAspectRatio="xMidYMid meet">
<metadata>
Created by potrace 1.16, written by Peter Selinger 2001-2019
</metadata>
<g transform="translate(0.000000,32.000000) scale(0.100000,-0.100000)"
fill="#000000" stroke="none">
<path fill="#000000" stroke="none" d="M10 246 l0 -65 48 1 c67 0 81 -3 47
-12 l-30 -8 37 -1 c36 -1 37 -2 41 -43 l4 -43 1 42 c2 42 2 42 45 46 l42 4
-42 1 -43 2 -1 43 -2 42 -7 -35 c-8 -36 -14 -24 -10 19 1 13 -4 28 -12 32 -10
7 -10 9 0 9 6 0 12 7 12 15 0 12 -14 15 -65 15 l-65 0 0 -64z"/>
<path fill="#000000" stroke="none" d="M180 296 c0 -8 8 -17 18 -19 16 -4 16
-5 0 -6 -12 -1 -18 -9 -18 -26 0 -29 2 -30 41 -9 l30 15 -15 -30 c-21 -39 -20
-41 9 -41 23 0 25 4 25 44 0 41 -2 45 -27 49 -23 3 -22 4 8 6 20 0 42 8 49 16
11 13 4 15 -54 15 -50 0 -66 -3 -66 -14z"/>
<path fill="#000000" stroke="none" d="M194 198 l-19 -23 23 19 c21 18 27 26
19 26 -2 0 -12 -10 -23 -22z"/>
<path fill="#000000" stroke="none" d="M10 73 c0 -52 3 -64 12 -55 7 7 23 13
38 13 23 2 23 2 3 6 -19 4 -23 11 -22 36 2 30 2 31 6 5 4 -26 8 -28 49 -28 40
0 44 2 44 25 0 29 -2 30 -41 9 l-30 -15 15 30 c9 16 16 32 16 36 0 11 -49 4
-53 -7 -4 -10 -6 -10 -6 0 -1 6 -8 12 -16 12 -12 0 -15 -14 -15 -67z"/>
<path fill="#000000" stroke="none" d="M114 118 l-19 -23 23 19 c21 18 27 26
19 26 -2 0 -12 -10 -23 -22z"/>
<path fill="#000000" stroke="none" d="M220 135 c0 -4 7 -20 16 -36 l15 -30
-30 15 c-39 21 -41 20 -41 -9 0 -23 4 -25 45 -25 l45 0 0 45 c0 41 -2 45 -25
45 -14 0 -25 -2 -25 -5z"/>
<path fill="#000000" stroke="none" d="M100 36 c0 -2 9 -6 20 -9 11 -3 20 -1
20 4 0 5 -9 9 -20 9 -11 0 -20 -2 -20 -4z"/>
<path fill="#000000" stroke="none" d="M180 31 c0 -5 9 -7 20 -4 11 3 20 7 20
9 0 2 -9 4 -20 4 -11 0 -20 -4 -20 -9z"/>
</g>
</svg>
