<?xml version="1.0" standalone="no"?>
<!DOCTYPE svg PUBLIC "-//W3C//DTD SVG 20010904//EN"
 "http://www.w3.org/TR/2001/REC-SVG-20010904/DTD/svg10.dtd">
<svg version="1.0" xmlns="http://www.w3.org/2000/svg"
 width="32.000000pt" height="32.000000pt" viewBox="0 0 32.000000 32.000000"
 preserveAspectRatio="xMidYMid meet">
<metadata>
Created by potrace 1.16, written by Peter Selinger 2001-2019
</metadata>
<g transform="translate(0.000000,32.000000) scale(0.100000,-0.100000)"
fill="#000000" stroke="none">
<path fill="#000000" stroke="none" d="M10 247 c0 -53 3 -67 15 -67 11 0 15
12 15 49 0 46 2 50 28 54 27 4 27 4 -3 6 -17 0 -36 6 -43 13 -9 9 -12 -3 -12
-55z"/>
<path fill="#ffffff" stroke="none" d="M27 243 c-3 -10 -5 -4 -5 12 0 17 2 24
5 18 2 -7 2 -21 0 -30z"/>
<path fill="#000000" stroke="none" d="M125 301 c3 -5 -3 -12 -12 -14 -14 -4
-13 -5 5 -6 13 -1 22 5 22 14 0 8 -5 15 -11 15 -5 0 -8 -4 -4 -9z"/>
<path fill="#000000" stroke="none" d="M180 298 c0 -13 7 -18 28 -17 21 1 22
2 7 6 -11 3 -23 10 -27 17 -5 7 -8 5 -8 -6z"/>
<path fill="#000000" stroke="none" d="M265 290 c-16 -7 -17 -9 -3 -9 9 -1 20
4 23 9 7 11 7 11 -20 0z"/>
<path fill="#000000" stroke="none" d="M51 238 c2 -30 2 -30 6 -6 3 20 11 28
31 31 24 4 24 4 -5 6 -31 1 -33 -1 -32 -31z"/>
<path fill="#000000" stroke="none" d="M235 260 c27 -12 35 -12 35 0 0 6 -12
10 -27 9 -25 0 -26 -1 -8 -9z"/>
<path fill="#000000" stroke="none" d="M131 234 c0 -11 3 -14 6 -6 3 7 2 16
-1 19 -3 4 -6 -2 -5 -13z"/>
<path fill="#000000" stroke="none" d="M150 186 c0 -8 -6 -17 -12 -19 -8 -3
-6 -6 5 -6 11 -1 17 6 17 19 0 11 -2 20 -5 20 -3 0 -5 -6 -5 -14z"/>
<path fill="#000000" stroke="none" d="M10 74 c0 -58 2 -65 15 -54 10 8 15 31
15 66 0 41 -4 54 -15 54 -12 0 -15 -14 -15 -66z"/>
<path fill="#ffffff" stroke="none" d="M27 88 c-3 -8 -6 -5 -6 6 -1 11 2 17 5
13 3 -3 4 -12 1 -19z"/>
<path fill="#000000" stroke="none" d="M50 125 c0 -8 2 -15 4 -15 2 0 6 7 10
15 3 8 1 15 -4 15 -6 0 -10 -7 -10 -15z"/>
<path fill="#000000" stroke="none" d="M257 75 c-4 -8 -2 -17 3 -20 6 -4 10 3
10 14 0 25 -6 27 -13 6z"/>
<path fill="#000000" stroke="none" d="M55 60 c-4 -6 3 -10 14 -10 25 0 27 6
6 13 -8 4 -17 2 -20 -3z"/>
<path fill="#000000" stroke="none" d="M188 53 c7 -3 16 -2 19 1 4 3 -2 6 -13
5 -11 0 -14 -3 -6 -6z"/>
</g>
</svg>
