<?xml version="1.0" standalone="no"?>
<!DOCTYPE svg PUBLIC "-//W3C//DTD SVG 20010904//EN"
 "http://www.w3.org/TR/2001/REC-SVG-20010904/DTD/svg10.dtd">
<svg version="1.0" xmlns="http://www.w3.org/2000/svg"
 width="32.000000pt" height="32.000000pt" viewBox="0 0 32.000000 32.000000"
 preserveAspectRatio="xMidYMid meet">
<metadata>
Created by potrace 1.16, written by Peter Selinger 2001-2019
</metadata>
<g transform="translate(0.000000,32.000000) scale(0.100000,-0.100000)"
fill="#000000" stroke="none">
<path fill="#000000" stroke="none" d="M2 255 l1 -65 40 30 c46 34 46 34 83
20 l26 -10 -25 -26 c-14 -14 -31 -23 -37 -19 -6 4 -9 3 -8 -2 2 -5 -7 -19 -20
-33 -12 -13 -22 -18 -22 -12 0 7 -5 12 -11 12 -5 0 -7 -5 -3 -12 5 -8 2 -9 -9
-5 -13 5 -16 0 -15 -31 1 -20 3 -31 6 -24 2 6 10 12 18 12 17 0 18 16 2 24 -7
3 -2 3 12 0 14 -4 22 -3 17 1 -11 12 22 45 39 38 8 -3 14 0 14 5 0 7 11 6 32
-2 38 -16 56 -62 34 -84 -10 -10 -16 -11 -20 -3 -4 6 0 11 8 11 9 0 16 4 16 9
0 5 -9 7 -20 4 -22 -6 -26 -18 -10 -28 15 -10 12 -28 -4 -22 -8 3 -26 -3 -39
-13 -13 -11 -27 -17 -30 -14 -3 3 -21 7 -41 8 -25 2 -36 -1 -36 -10 0 -11 20
-14 88 -14 86 0 87 0 88 26 2 32 29 62 73 80 35 15 59 19 48 8 -3 -4 -2 -14 3
-24 9 -17 -20 -75 -39 -75 -5 0 -12 -3 -16 -7 -4 -4 11 -7 33 -6 31 0 39 4 35
15 -5 12 -7 12 -14 1 -7 -10 -9 -10 -9 2 0 9 5 21 12 28 7 7 13 30 14 52 1 38
0 39 -25 33 -14 -3 -40 -12 -58 -19 -28 -12 -32 -12 -35 4 -2 9 5 25 16 34 10
10 15 18 10 18 -6 0 -16 -6 -23 -13 -10 -10 -11 -9 -6 4 7 18 78 34 111 24 10
-3 8 0 -6 7 -14 7 -28 16 -31 21 -3 5 -9 2 -12 -7 -8 -19 -27 -21 -27 -3 0 7
14 18 30 24 23 9 30 17 30 38 0 21 3 25 13 17 10 -8 13 -5 15 14 1 16 -3 24
-14 24 -8 0 -13 -4 -9 -9 3 -5 1 -12 -5 -16 -5 -3 -10 -15 -10 -26 0 -11 -4
-17 -10 -14 -5 3 -10 1 -10 -6 0 -7 -11 -2 -25 11 -14 13 -25 32 -25 42 0 10
-7 18 -15 18 -8 0 -12 -6 -9 -14 3 -8 -2 -26 -13 -39 -15 -21 -22 -23 -46 -14
-19 6 -36 6 -52 -1 -51 -23 -84 11 -48 50 15 17 15 18 -5 18 -20 0 -21 -5 -20
-65z"/>
<path fill="#ffffff" stroke="none" d="M216 256 c9 -18 8 -26 -5 -35 -9 -6
-10 -9 -2 -5 7 4 3 -7 -10 -25 -23 -32 -31 -35 -62 -23 -17 7 -17 8 1 27 10
11 27 35 37 53 23 38 27 39 41 8z"/>
<path fill="#ffffff" stroke="none" d="M35 230 c3 -5 1 -10 -4 -10 -6 0 -11 5
-11 10 0 6 2 10 4 10 3 0 8 -4 11 -10z"/>
<path fill="#ffffff" stroke="none" d="M134 22 c2 -4 -4 -9 -15 -9 -11 -1 -17
2 -14 8 7 11 22 12 29 1z"/>
<path fill="#000000" stroke="none" d="M223 305 c0 -11 4 -12 14 -4 7 6 13 13
13 15 0 2 -6 4 -13 4 -8 0 -14 -7 -14 -15z"/>
<path fill="#000000" stroke="none" d="M284 218 c-4 -7 -4 -10 1 -6 4 4 15 2
24 -5 14 -11 14 -10 2 6 -16 20 -18 21 -27 5z"/>
<path fill="#000000" stroke="none" d="M267 87 c-3 -8 0 -14 7 -14 7 0 13 6
13 14 0 17 -13 17 -20 0z"/>
</g>
</svg>
