<?xml version="1.0" standalone="no"?>
<!DOCTYPE svg PUBLIC "-//W3C//DTD SVG 20010904//EN"
 "http://www.w3.org/TR/2001/REC-SVG-20010904/DTD/svg10.dtd">
<svg version="1.0" xmlns="http://www.w3.org/2000/svg"
 width="32.000000pt" height="32.000000pt" viewBox="0 0 32.000000 32.000000"
 preserveAspectRatio="xMidYMid meet">
<metadata>
Created by potrace 1.16, written by Peter Selinger 2001-2019
</metadata>
<g transform="translate(0.000000,32.000000) scale(0.100000,-0.100000)"
fill="#000000" stroke="none">
<path fill="#000000" stroke="none" d="M1 243 c0 -57 3 -72 9 -55 5 12 16 22
25 22 8 0 15 3 15 8 0 4 9 13 20 20 24 15 70 6 70 -14 0 -24 14 -15 36 23 21
36 21 36 33 15 13 -24 7 -42 -12 -41 -9 0 -9 2 1 6 6 2 12 10 12 16 -1 7 -10
1 -21 -13 -19 -23 -19 -25 -3 -30 12 -5 14 -9 6 -14 -7 -4 -16 -5 -21 -1 -5 3
-12 1 -16 -5 -3 -5 -1 -10 6 -10 7 0 9 -3 6 -6 -10 -11 -36 16 -31 31 3 7 1
16 -5 20 -6 3 -11 -1 -11 -10 0 -9 -4 -14 -9 -11 -5 4 -11 1 -13 -6 -3 -7 -7
-5 -11 6 -4 10 -3 15 3 11 6 -3 10 -2 10 3 0 17 -13 21 -31 11 -14 -7 -18 -17
-14 -39 3 -18 1 -30 -5 -30 -6 0 -8 5 -5 10 3 6 1 10 -5 10 -7 0 -14 -9 -17
-20 -3 -11 -9 -17 -14 -14 -5 3 -9 -12 -8 -33 0 -21 3 -32 6 -25 2 6 9 12 15
12 12 0 39 26 32 32 -8 9 27 31 52 34 14 2 36 -1 49 -6 21 -8 22 -12 12 -34
-11 -22 -13 -23 -29 -10 -15 14 -17 13 -23 -6 -5 -16 -10 -19 -20 -10 -10 9
-19 9 -32 0 -17 -11 -17 -11 1 -6 10 4 24 2 31 -4 10 -8 17 -7 26 3 11 12 15
10 26 -11 17 -31 17 -41 0 -18 -12 16 -14 16 -26 2 -7 -8 -10 -20 -6 -25 3 -7
0 -8 -10 -5 -12 5 -13 9 -4 20 13 16 1 18 -20 5 -7 -5 -11 -14 -7 -20 5 -7 1
-9 -8 -5 -9 3 -13 11 -9 18 3 6 -3 3 -14 -7 -11 -9 -24 -17 -29 -17 -5 0 -2 4
6 10 8 5 11 12 7 17 -5 4 -12 1 -17 -7 -24 -37 -15 -40 150 -39 130 1 160 3
160 15 0 8 -7 14 -16 14 -8 0 -12 5 -9 10 4 6 10 8 14 6 4 -3 8 36 9 85 1 60
-2 89 -9 89 -6 0 -8 -7 -5 -17 4 -10 3 -14 -1 -9 -11 11 -12 97 -1 90 5 -3 6
-14 3 -24 -3 -10 -2 -21 3 -24 5 -3 9 15 9 40 1 32 -3 44 -14 44 -8 0 -11 -4
-8 -10 3 -6 1 -10 -4 -10 -6 0 -11 -10 -11 -22 0 -19 -2 -20 -10 -8 -9 13 -10
13 -11 0 -1 -8 0 -19 1 -25 1 -5 -10 1 -24 14 l-25 24 22 17 c22 18 22 18 -15
18 -27 0 -35 -4 -31 -14 10 -27 -15 -40 -76 -40 -32 1 -57 -2 -55 -6 3 -5 -2
-8 -11 -8 -12 0 -15 5 -11 18 5 14 3 13 -10 -3 -15 -20 -15 -19 -12 5 2 14 9
24 16 22 8 -1 11 2 8 7 -4 5 2 12 11 14 10 3 3 5 -14 6 l-33 1 1 -77z"/>
<path fill="#ffffff" stroke="none" d="M280 219 c0 -5 -4 -8 -9 -4 -5 3 -17
-2 -25 -11 -9 -8 -16 -11 -16 -5 0 10 28 30 43 31 4 0 7 -5 7 -11z"/>
<path fill="#ffffff" stroke="none" d="M299 176 c14 -16 4 -46 -15 -46 -8 0
-14 8 -15 18 0 13 -2 14 -6 2 -11 -26 -31 -41 -39 -29 -4 8 -9 7 -16 -2 -6
-10 -7 -6 -2 11 14 49 68 76 93 46z"/>
<path fill="#ffffff" stroke="none" d="M291 113 c5 -40 5 -61 -2 -58 -4 3 -9
-1 -12 -7 -2 -7 -8 -9 -13 -5 -5 5 -3 14 6 20 20 16 23 37 5 37 -8 0 -14 -3
-14 -7 4 -22 -3 -33 -17 -33 -14 0 -14 -3 -4 -15 18 -22 -2 -44 -24 -26 -10 8
-16 9 -21 1 -12 -19 -26 -10 -19 13 9 31 34 57 69 72 36 16 45 17 46 8z"/>
<path fill="#000000" stroke="none" d="M280 165 c7 -9 15 -13 17 -11 7 7 -7
26 -19 26 -6 0 -6 -6 2 -15z"/>
<path fill="#000000" stroke="none" d="M88 313 c7 -3 16 -2 19 1 4 3 -2 6 -13
5 -11 0 -14 -3 -6 -6z"/>
</g>
</svg>
