<?xml version="1.0" standalone="no"?>
<!DOCTYPE svg PUBLIC "-//W3C//DTD SVG 20010904//EN"
 "http://www.w3.org/TR/2001/REC-SVG-20010904/DTD/svg10.dtd">
<svg version="1.0" xmlns="http://www.w3.org/2000/svg"
 width="32.000000pt" height="32.000000pt" viewBox="0 0 32.000000 32.000000"
 preserveAspectRatio="xMidYMid meet">
<metadata>
Created by potrace 1.16, written by Peter Selinger 2001-2019
</metadata>
<g transform="translate(0.000000,32.000000) scale(0.100000,-0.100000)"
fill="#000000" stroke="none">
<path fill="#000000" stroke="none" d="M0 159 c0 -104 3 -158 10 -154 5 3 11
39 11 78 1 40 4 59 6 42 5 -35 17 -50 32 -41 8 5 8 14 -1 29 -15 28 -19 49 -7
41 5 -3 6 -10 3 -16 -4 -6 -2 -8 4 -5 5 4 8 16 5 27 -3 11 -8 18 -12 16 -4 -3
-7 6 -7 20 0 29 0 29 21 8 13 -13 16 -14 15 -3 -5 30 1 39 24 39 13 0 27 6 29
13 4 9 8 8 16 -3 7 -9 11 -10 11 -3 0 17 -19 26 -33 15 -15 -11 -48 -12 -41 0
3 4 -1 8 -9 8 -10 0 -13 -7 -10 -20 4 -15 0 -20 -13 -20 -15 0 -16 2 -5 9 11
7 12 13 3 23 -9 11 -6 14 13 16 13 1 27 -3 30 -8 3 -6 11 -10 16 -10 6 0 8 3
6 8 -3 4 17 8 44 9 33 1 47 -2 43 -9 -4 -7 -2 -8 4 -4 23 14 11 25 -30 29 -24
2 -4 4 44 5 48 1 90 7 93 12 4 7 -50 10 -154 10 l-161 0 0 -161z"/>
<path fill="#ffffff" stroke="none" d="M38 286 c-7 -8 -15 -12 -17 -11 -5 6
10 25 20 25 5 0 4 -6 -3 -14z"/>
<path fill="#ffffff" stroke="none" d="M127 294 c-3 -3 -12 -4 -19 -1 -8 3 -5
6 6 6 11 1 17 -2 13 -5z"/>
<path fill="#ffffff" stroke="none" d="M27 168 c-3 -7 -5 -2 -5 12 0 14 2 19
5 13 2 -7 2 -19 0 -25z"/>
<path fill="#ffffff" stroke="none" d="M47 98 c-3 -8 -6 -5 -6 6 -1 11 2 17 5
13 3 -3 4 -12 1 -19z"/>
<path fill="#000000" stroke="none" d="M230 268 c-10 -21 -10 -22 4 -5 15 19
45 20 59 2 5 -6 7 -4 5 4 -2 8 -16 16 -31 18 -19 3 -29 -2 -37 -19z"/>
<path fill="#000000" stroke="none" d="M175 260 c3 -5 8 -10 11 -10 2 0 4 5 4
10 0 6 -5 10 -11 10 -5 0 -7 -4 -4 -10z"/>
<path fill="#000000" stroke="none" d="M256 225 c4 -8 8 -15 10 -15 2 0 4 7 4
15 0 8 -4 15 -10 15 -5 0 -7 -7 -4 -15z"/>
<path fill="#000000" stroke="none" d="M90 164 c0 -36 4 -63 9 -60 5 3 7 19 5
35 -3 29 7 34 33 18 6 -4 15 -3 18 3 4 6 1 9 -7 8 -7 -2 -12 3 -10 11 2 11 0
12 -11 3 -8 -7 -17 -9 -20 -5 -11 11 -8 20 8 21 8 1 22 3 30 4 8 1 12 5 9 9
-2 4 6 10 18 12 13 2 -1 5 -29 6 l-53 1 0 -66z"/>
<path fill="#ffffff" stroke="none" d="M130 216 c0 -11 -19 -15 -25 -6 -3 5 1
10 9 10 9 0 16 -2 16 -4z"/>
<path fill="#000000" stroke="none" d="M232 210 c0 -14 2 -19 5 -12 2 6 2 18
0 25 -3 6 -5 1 -5 -13z"/>
<path fill="#000000" stroke="none" d="M120 141 c0 -6 4 -13 10 -16 6 -3 7 1
4 9 -7 18 -14 21 -14 7z"/>
<path fill="#000000" stroke="none" d="M91 87 c2 -1 11 -8 20 -15 13 -9 16 -9
16 3 0 8 -9 15 -20 15 -11 0 -18 -1 -16 -3z"/>
<path fill="#000000" stroke="none" d="M188 83 c7 -3 16 -2 19 1 4 3 -2 6 -13
5 -11 0 -14 -3 -6 -6z"/>
<path fill="#000000" stroke="none" d="M33 51 c2 -14 10 -27 18 -29 12 -3 12
-2 0 6 -11 8 -10 11 4 19 12 7 14 13 6 17 -6 4 -11 1 -11 -6 0 -9 -3 -9 -10 2
-8 12 -9 10 -7 -9z"/>
<path fill="#000000" stroke="none" d="M143 55 c0 -8 4 -12 9 -9 5 3 6 10 3
15 -9 13 -12 11 -12 -6z"/>
<path fill="#000000" stroke="none" d="M258 63 c6 -2 9 -10 6 -15 -4 -7 -2 -8
5 -4 13 9 5 26 -12 25 -9 0 -8 -2 1 -6z"/>
</g>
</svg>
