<?xml version="1.0" standalone="no"?>
<!DOCTYPE svg PUBLIC "-//W3C//DTD SVG 20010904//EN"
 "http://www.w3.org/TR/2001/REC-SVG-20010904/DTD/svg10.dtd">
<svg version="1.0" xmlns="http://www.w3.org/2000/svg"
 width="32.000000pt" height="32.000000pt" viewBox="0 0 32.000000 32.000000"
 preserveAspectRatio="xMidYMid meet">
<metadata>
Created by potrace 1.16, written by Peter Selinger 2001-2019
</metadata>
<g transform="translate(0.000000,32.000000) scale(0.100000,-0.100000)"
fill="#000000" stroke="none">
<path fill="#000000" stroke="none" d="M15 311 c-3 -2 -5 -18 -5 -35 0 -28 1
-29 15 -10 13 16 14 16 9 2 -5 -14 -1 -18 18 -18 13 0 34 -9 45 -19 12 -11 24
-17 28 -13 4 4 5 -4 3 -18 -2 -20 1 -24 17 -22 43 6 49 12 29 26 -10 8 -23 12
-29 9 -5 -2 -2 2 7 9 10 9 13 19 8 27 -6 10 -9 10 -12 1 -3 -9 -7 -8 -16 3
-11 13 -8 15 23 13 34 -3 63 -16 34 -16 -8 0 -15 -10 -16 -22 0 -13 1 -18 4
-11 2 7 10 11 16 9 7 -1 8 -1 4 2 -4 2 -3 10 3 17 9 11 8 21 -2 42 -13 27 -16
28 -96 28 -45 1 -85 -1 -87 -4z"/>
<path fill="#000000" stroke="none" d="M235 302 c-19 -15 -20 -21 -10 -56 12
-43 22 -51 45 -36 13 9 13 11 0 20 -12 8 -11 10 8 10 18 0 22 -4 17 -19 -3
-11 -1 -22 4 -26 7 -3 8 0 5 9 -4 10 -1 16 7 16 10 0 9 5 -4 17 -15 15 -15 19
-2 33 13 15 13 17 0 17 -8 0 -12 -4 -9 -9 3 -4 0 -8 -5 -8 -14 0 -14 17 -1 25
6 4 8 11 5 16 -9 14 -38 10 -60 -9z"/>
<path fill="#ffffff" stroke="none" d="M274 265 c3 -9 0 -15 -9 -15 -9 0 -12
6 -9 15 4 8 7 15 9 15 2 0 5 -7 9 -15z"/>
<path fill="#000000" stroke="none" d="M39 213 c-16 -4 -36 -39 -34 -58 5 -32
18 -44 35 -35 25 14 30 13 30 -6 0 -8 -4 -13 -9 -10 -5 3 -11 -1 -15 -9 -3 -8
-12 -12 -20 -9 -14 6 -34 -32 -22 -43 3 -4 6 -1 6 6 0 7 5 9 12 5 7 -4 8 -3 4
4 -4 7 -3 12 2 12 13 0 33 -25 26 -32 -2 -3 1 -8 9 -11 16 -6 17 28 2 53 -8
13 -7 13 8 1 13 -11 17 -11 17 -1 0 8 3 10 7 7 3 -4 12 -2 20 4 9 8 13 8 13 1
0 -6 -9 -14 -20 -17 -11 -3 -20 -11 -20 -17 0 -5 6 -8 13 -5 6 2 17 -3 24 -12
10 -14 11 -12 7 9 -5 24 -5 24 10 6 9 -11 16 -15 16 -9 0 7 -4 15 -10 18 -5 3
-10 13 -10 21 0 8 4 13 9 10 11 -7 27 14 27 33 -1 8 -9 15 -18 17 -11 1 -15
-4 -13 -17 2 -11 0 -17 -6 -13 -6 3 -8 9 -5 12 4 3 -6 18 -21 34 -15 15 -23
28 -19 28 5 0 3 7 -4 15 -12 15 -21 16 -51 8z"/>
<path fill="#000000" stroke="none" d="M231 171 c-12 -11 -25 -36 -28 -58 -3
-21 -11 -45 -18 -53 -25 -31 -25 -39 -4 -50 13 -7 19 -8 15 -2 -10 16 13 25
29 12 10 -8 15 -8 21 1 4 7 3 9 -4 5 -6 -3 -13 -2 -16 3 -11 17 23 20 34 3 11
-15 11 -15 6 2 -5 13 -2 17 9 13 8 -4 17 -1 21 5 4 6 3 8 -3 5 -6 -4 -15 5
-21 18 -10 21 -9 25 4 25 8 0 13 -4 9 -9 -3 -5 -1 -12 4 -15 10 -7 9 13 -1 29
-4 6 -3 17 2 25 6 10 3 21 -7 32 -9 10 -11 18 -5 18 14 0 34 -35 25 -44 -3 -3
-1 -6 5 -6 16 0 15 11 -4 38 -19 27 -44 28 -73 3z"/>
<path fill="#ffffff" stroke="none" d="M259 119 c-7 -4 -16 -5 -19 -2 -3 3 1
8 8 10 6 3 13 12 13 21 1 14 2 13 6 -2 3 -10 -1 -22 -8 -27z"/>
<path fill="#ffffff" stroke="none" d="M244 91 c-2 -3 -12 3 -22 13 -16 17
-16 18 5 5 12 -7 20 -15 17 -18z"/>
<path fill="#ffffff" stroke="none" d="M193 35 c-3 -9 -8 -14 -10 -11 -3 3 -2
9 2 15 9 16 15 13 8 -4z"/>
<path fill="#000000" stroke="none" d="M90 36 c0 -2 7 -7 16 -10 8 -3 12 -2 9
4 -6 10 -25 14 -25 6z"/>
</g>
</svg>
