<?xml version="1.0" standalone="no"?>
<!DOCTYPE svg PUBLIC "-//W3C//DTD SVG 20010904//EN"
 "http://www.w3.org/TR/2001/REC-SVG-20010904/DTD/svg10.dtd">
<svg version="1.0" xmlns="http://www.w3.org/2000/svg"
 width="32.000000pt" height="32.000000pt" viewBox="0 0 32.000000 32.000000"
 preserveAspectRatio="xMidYMid meet">
<metadata>
Created by potrace 1.16, written by Peter Selinger 2001-2019
</metadata>
<g transform="translate(0.000000,32.000000) scale(0.100000,-0.100000)"
fill="#000000" stroke="none">
<path fill="#000000" stroke="none" d="M17 313 c-13 -12 -7 -33 9 -33 8 0 12
-4 9 -10 -3 -5 -2 -10 2 -10 9 0 37 40 31 45 -9 8 -45 14 -51 8z"/>
<path fill="#ffffff" stroke="none" d="M52 296 c7 4 8 2 4 -5 -9 -13 -26 -5
-25 12 0 9 2 8 6 -1 2 -6 10 -9 15 -6z"/>
<path fill="#000000" stroke="none" d="M104 309 c-3 -5 -3 -9 0 -9 3 0 -3 -16
-14 -35 -15 -26 -16 -33 -5 -28 13 5 20 -7 16 -30 -1 -4 8 -2 19 5 24 15 26
34 4 42 -14 5 -15 4 -5 -8 7 -8 8 -17 3 -20 -11 -6 -22 16 -22 41 0 9 6 13 15
9 8 -3 19 3 25 12 10 15 11 15 6 0 -5 -17 11 -28 32 -21 6 3 12 12 12 21 0 13
-3 13 -16 -4 -15 -18 -15 -18 -9 4 4 12 3 23 -2 23 -36 6 -54 5 -59 -2z"/>
<path fill="#000000" stroke="none" d="M243 300 c-23 -18 -21 -30 4 -30 8 0
11 5 8 10 -3 6 4 14 16 18 16 6 18 10 8 14 -8 3 -24 -2 -36 -12z"/>
<path fill="#000000" stroke="none" d="M258 243 c6 -2 18 -2 25 0 6 3 1 5 -13
5 -14 0 -19 -2 -12 -5z"/>
<path fill="#000000" stroke="none" d="M22 198 c-7 -7 -12 -21 -11 -32 0 -12
3 -15 6 -9 2 7 4 15 3 19 -1 3 7 12 17 20 10 7 13 14 8 14 -6 0 -16 -5 -23
-12z"/>
<path fill="#000000" stroke="none" d="M232 171 c-28 -24 -28 -36 1 -38 12 0
16 1 10 4 -7 3 -13 9 -13 14 0 6 5 7 12 3 7 -4 8 -3 4 5 -4 7 2 15 16 20 15 6
17 10 7 10 -9 1 -26 -7 -37 -18z"/>
<path fill="#000000" stroke="none" d="M84 146 c-26 -12 -44 -33 -44 -52 0
-13 18 -1 29 19 12 23 41 33 41 15 0 -5 9 -4 20 2 16 9 20 8 20 -5 0 -10 -5
-13 -12 -9 -7 4 -8 3 -4 -4 11 -19 26 -14 26 8 0 10 -9 24 -19 30 -23 12 -19
12 -57 -4z"/>
<path fill="#000000" stroke="none" d="M275 140 c-3 -5 -1 -10 4 -10 6 0 11 5
11 10 0 6 -2 10 -4 10 -3 0 -8 -4 -11 -10z"/>
<path fill="#000000" stroke="none" d="M74 108 c-4 -7 -3 -8 4 -4 7 4 12 3 12
-3 0 -6 7 -8 16 -4 13 5 13 7 2 14 -18 12 -26 11 -34 -3z"/>
<path fill="#000000" stroke="none" d="M6 75 c-9 -26 -7 -32 5 -12 6 10 9 21
6 23 -2 3 -7 -2 -11 -11z"/>
<path fill="#000000" stroke="none" d="M183 58 c-18 -24 -24 -38 -16 -38 4 0
13 11 20 25 12 27 11 32 -4 13z"/>
<path fill="#000000" stroke="none" d="M305 59 c-4 -6 -5 -12 -2 -15 2 -3 7 2
10 11 7 17 1 20 -8 4z"/>
<path fill="#000000" stroke="none" d="M208 43 c7 -3 16 -2 19 1 4 3 -2 6 -13
5 -11 0 -14 -3 -6 -6z"/>
</g>
</svg>
