<?xml version="1.0" standalone="no"?>
<!DOCTYPE svg PUBLIC "-//W3C//DTD SVG 20010904//EN"
 "http://www.w3.org/TR/2001/REC-SVG-20010904/DTD/svg10.dtd">
<svg version="1.0" xmlns="http://www.w3.org/2000/svg"
 width="32.000000pt" height="32.000000pt" viewBox="0 0 32.000000 32.000000"
 preserveAspectRatio="xMidYMid meet">
<metadata>
Created by potrace 1.16, written by Peter Selinger 2001-2019
</metadata>
<g transform="translate(0.000000,32.000000) scale(0.100000,-0.100000)"
fill="#000000" stroke="none">
<path fill="#000000" stroke="none" d="M24 312 c-5 -4 -10 -14 -12 -22 -2 -13
0 -12 10 1 7 9 19 14 26 12 16 -6 16 4 -1 10 -8 3 -18 2 -23 -1z"/>
<path fill="#000000" stroke="none" d="M76 311 c-4 -5 2 -7 12 -4 11 2 26 -3
36 -12 9 -9 16 -13 16 -8 0 26 -52 45 -64 24z"/>
<path fill="#000000" stroke="none" d="M149 307 c6 -8 7 -18 3 -22 -4 -5 -1
-5 6 -1 10 6 10 11 1 22 -6 8 -14 14 -16 14 -3 0 0 -6 6 -13z"/>
<path fill="#000000" stroke="none" d="M253 308 c1 -7 -4 -12 -11 -10 -18 3
-27 -27 -13 -41 9 -9 11 -7 5 8 -4 11 -4 17 1 13 4 -4 14 0 21 10 16 21 17 32
4 32 -5 0 -9 -6 -7 -12z"/>
<path fill="#000000" stroke="none" d="M230 228 c0 -9 5 -20 11 -23 17 -11 18
-2 3 19 -12 17 -14 17 -14 4z"/>
<path fill="#000000" stroke="none" d="M36 205 c-11 -8 -15 -15 -10 -15 6 0
19 7 30 15 10 8 15 14 9 14 -5 0 -19 -6 -29 -14z"/>
<path fill="#000000" stroke="none" d="M258 183 c7 -3 16 -2 19 1 4 3 -2 6
-13 5 -11 0 -14 -3 -6 -6z"/>
<path fill="#000000" stroke="none" d="M10 165 c0 -8 2 -15 4 -15 2 0 6 7 10
15 3 8 1 15 -4 15 -6 0 -10 -7 -10 -15z"/>
<path fill="#000000" stroke="none" d="M80 170 c0 -5 5 -10 11 -10 5 0 7 5 4
10 -3 6 -8 10 -11 10 -2 0 -4 -4 -4 -10z"/>
<path fill="#000000" stroke="none" d="M46 155 c-16 -12 -17 -15 -4 -15 9 0
18 7 22 15 7 18 6 18 -18 0z"/>
<path fill="#000000" stroke="none" d="M205 117 c-4 -23 -12 -49 -19 -57 -6
-9 -1 -6 11 7 12 13 20 30 17 38 -4 10 2 18 17 23 l23 9 -21 11 c-20 11 -22 9
-28 -31z"/>
<path fill="#000000" stroke="none" d="M220 76 c0 -8 4 -17 8 -20 4 -2 8 4 8
15 0 10 -4 19 -8 19 -4 0 -8 -6 -8 -14z"/>
</g>
</svg>
