<?xml version="1.0" standalone="no"?>
<!DOCTYPE svg PUBLIC "-//W3C//DTD SVG 20010904//EN"
 "http://www.w3.org/TR/2001/REC-SVG-20010904/DTD/svg10.dtd">
<svg version="1.0" xmlns="http://www.w3.org/2000/svg"
 width="32.000000pt" height="32.000000pt" viewBox="0 0 32.000000 32.000000"
 preserveAspectRatio="xMidYMid meet">
<metadata>
Created by potrace 1.16, written by Peter Selinger 2001-2019
</metadata>
<g transform="translate(0.000000,32.000000) scale(0.100000,-0.100000)"
fill="#000000" stroke="none">
<path fill="#000000" stroke="none" d="M225 300 c-50 -3 -71 -7 -47 -8 24 -1
41 -6 37 -11 -3 -5 -1 -12 4 -15 5 -3 12 1 15 9 7 20 58 15 64 -6 2 -8 0 -10
-5 -4 -14 17 -33 16 -34 -2 0 -15 -2 -15 -9 2 -7 15 -9 16 -9 4 -1 -9 -10 -19
-21 -22 -11 -3 -17 -1 -14 4 6 10 -25 7 -43 -4 -6 -4 -14 -1 -16 5 -4 10 -6
10 -6 1 -1 -8 -14 -13 -31 -13 -29 0 -33 -6 -31 -40 0 -10 -1 -11 -5 -2 -3 6
-11 12 -17 12 -5 0 -7 -3 -4 -7 4 -3 1 -13 -6 -21 -10 -13 -9 -15 10 -10 30 8
30 0 0 -12 -17 -7 -18 -9 -4 -9 21 -1 23 -17 2 -25 -17 -6 -20 -26 -4 -26 5 0
7 5 4 10 -3 6 -1 10 4 10 13 0 15 -26 3 -34 -15 -9 -30 9 -34 39 -2 17 -6 -5
-9 -48 l-4 -77 153 0 152 0 0 155 c0 85 -1 154 -2 153 -2 -1 -43 -5 -93 -8z"/>
<path fill="#ffffff" stroke="none" d="M274 225 c3 -9 0 -15 -9 -15 -9 0 -12
6 -9 15 4 8 7 15 9 15 2 0 5 -7 9 -15z"/>
<path fill="#ffffff" stroke="none" d="M172 223 c-12 -2 -20 -8 -18 -12 3 -4
-1 -8 -9 -9 -8 -1 -22 -3 -30 -4 -16 -1 -19 -10 -8 -21 3 -4 12 -2 20 5 11 9
13 8 11 -3 -2 -8 3 -13 10 -11 8 1 11 -2 7 -8 -3 -6 -12 -7 -18 -3 -26 16 -36
11 -33 -18 2 -16 0 -32 -5 -35 -5 -3 -9 24 -9 60 l0 66 53 -1 c28 -1 42 -4 29
-6z"/>
<path fill="#ffffff" stroke="none" d="M237 198 c-3 -7 -5 -2 -5 12 0 14 2 19
5 13 2 -7 2 -19 0 -25z"/>
<path fill="#ffffff" stroke="none" d="M275 190 c3 -5 2 -10 -4 -10 -5 0 -13
5 -16 10 -3 6 -2 10 4 10 5 0 13 -4 16 -10z"/>
<path fill="#ffffff" stroke="none" d="M275 160 c-3 -5 -12 -10 -18 -10 -7 0
-6 4 3 10 19 12 23 12 15 0z"/>
<path fill="#ffffff" stroke="none" d="M134 134 c3 -8 2 -12 -4 -9 -6 3 -10
10 -10 16 0 14 7 11 14 -7z"/>
<path fill="#ffffff" stroke="none" d="M277 134 c-3 -3 -12 -4 -19 -1 -8 3 -5
6 6 6 11 1 17 -2 13 -5z"/>
<path fill="#ffffff" stroke="none" d="M270 110 c0 -5 -5 -10 -11 -10 -5 0 -7
5 -4 10 3 6 8 10 11 10 2 0 4 -4 4 -10z"/>
<path fill="#ffffff" stroke="none" d="M122 63 c-5 -23 -7 -25 -10 -8 -2 11
-9 23 -16 27 -6 5 -3 8 10 8 18 0 20 -4 16 -27z"/>
<path fill="#ffffff" stroke="none" d="M207 84 c-3 -3 -12 -4 -19 -1 -8 3 -5
6 6 6 11 1 17 -2 13 -5z"/>
<path fill="#ffffff" stroke="none" d="M277 84 c-3 -3 -12 -4 -19 -1 -8 3 -5
6 6 6 11 1 17 -2 13 -5z"/>
<path fill="#ffffff" stroke="none" d="M70 60 c0 -6 -7 -13 -16 -17 -13 -5
-13 -8 -2 -15 11 -8 10 -9 -1 -6 -8 2 -16 14 -18 26 -2 16 2 22 17 22 11 0 20
-5 20 -10z"/>
<path fill="#ffffff" stroke="none" d="M95 60 c3 -5 1 -10 -4 -10 -6 0 -11 5
-11 10 0 6 2 10 4 10 3 0 8 -4 11 -10z"/>
<path fill="#ffffff" stroke="none" d="M147 55 c0 -8 -4 -12 -9 -9 -10 7 -10
24 0 24 5 0 9 -7 9 -15z"/>
<path fill="#ffffff" stroke="none" d="M180 54 c0 -8 -5 -12 -10 -9 -6 4 -8
11 -5 16 9 14 15 11 15 -7z"/>
<path fill="#ffffff" stroke="none" d="M220 55 c0 -12 -19 -12 -23 0 -4 9 -1
12 9 8 7 -3 14 -7 14 -8z"/>
<path fill="#ffffff" stroke="none" d="M237 48 c-3 -8 -6 -5 -6 6 -1 11 2 17
5 13 3 -3 4 -12 1 -19z"/>
<path fill="#ffffff" stroke="none" d="M274 55 c3 -8 1 -15 -3 -15 -5 0 -11 7
-15 15 -3 8 -1 15 3 15 5 0 11 -7 15 -15z"/>
<path fill="#000000" stroke="none" d="M105 210 c4 -6 11 -8 16 -5 14 9 11 15
-7 15 -8 0 -12 -5 -9 -10z"/>
<path fill="#000000" stroke="none" d="M25 289 c-11 -16 -1 -19 13 -3 7 8 8
14 3 14 -5 0 -13 -5 -16 -11z"/>
<path fill="#000000" stroke="none" d="M108 293 c7 -3 16 -2 19 1 4 3 -2 6
-13 5 -11 0 -14 -3 -6 -6z"/>
<path fill="#000000" stroke="none" d="M106 271 c-4 -5 -2 -12 3 -15 5 -4 12
-2 15 3 4 5 2 12 -3 15 -5 4 -12 2 -15 -3z"/>
<path fill="#000000" stroke="none" d="M22 180 c0 -14 2 -19 5 -12 2 6 2 18 0
25 -3 6 -5 1 -5 -13z"/>
</g>
</svg>
