<?xml version="1.0" standalone="no"?>
<!DOCTYPE svg PUBLIC "-//W3C//DTD SVG 20010904//EN"
 "http://www.w3.org/TR/2001/REC-SVG-20010904/DTD/svg10.dtd">
<svg version="1.0" xmlns="http://www.w3.org/2000/svg"
 width="32.000000pt" height="32.000000pt" viewBox="0 0 32.000000 32.000000"
 preserveAspectRatio="xMidYMid meet">
<metadata>
Created by potrace 1.16, written by Peter Selinger 2001-2019
</metadata>
<g transform="translate(0.000000,32.000000) scale(0.100000,-0.100000)"
fill="#000000" stroke="none">
<path fill="#000000" stroke="none" d="M2 160 l1 -160 159 0 158 0 0 160 0
160 -27 0 c-19 0 -24 -3 -15 -9 10 -6 9 -10 -7 -14 -12 -3 -20 -11 -19 -17 2
-7 -3 -15 -11 -18 -8 -3 -11 0 -7 7 4 6 1 11 -6 11 -9 1 -7 5 5 14 27 21 21
26 -35 26 -31 0 -48 -4 -40 -8 7 -5 10 -17 7 -28 -6 -19 -6 -19 9 0 14 17 16
18 16 3 0 -16 -13 -22 -35 -17 -24 5 -40 9 -47 9 -4 1 -5 10 -3 21 3 18 -2 20
-51 20 l-54 0 2 -160z"/>
<path fill="#ffffff" stroke="none" d="M70 301 c0 -6 -5 -13 -12 -17 -7 -4 -8
-3 -4 4 11 18 0 14 -15 -5 -8 -9 -9 -14 -3 -10 6 3 20 -1 30 -9 10 -9 13 -13
7 -9 -7 3 -13 1 -13 -4 0 -10 -11 -6 -49 16 -2 2 4 12 14 23 19 21 45 27 45
11z"/>
<path fill="#ffffff" stroke="none" d="M179 229 c-16 -17 -29 -36 -29 -42 0
-6 -3 -8 -6 -5 -6 7 24 58 41 70 24 18 21 6 -6 -23z"/>
<path fill="#ffffff" stroke="none" d="M25 179 c-6 -29 5 -45 17 -28 8 11 9
11 6 1 -2 -8 -7 -14 -12 -15 -14 -3 -30 29 -23 47 9 23 17 20 12 -5z"/>
<path fill="#ffffff" stroke="none" d="M276 183 c-4 -5 -12 -9 -17 -9 -22 -3
-23 -5 -9 -14 13 -9 11 -14 -11 -33 -28 -26 -47 -77 -28 -77 6 0 20 10 30 22
11 11 22 19 25 16 9 -9 -38 -48 -58 -48 -21 0 -21 8 -7 69 10 45 40 81 67 81
9 0 12 -3 8 -7z"/>
<path fill="#ffffff" stroke="none" d="M141 150 c10 -6 19 -20 19 -30 0 -22
-15 -27 -26 -8 -4 7 -3 8 4 4 7 -4 12 -1 12 9 0 13 -4 14 -20 5 -11 -6 -20 -7
-20 -2 0 5 -7 9 -15 9 -22 0 -18 -12 7 -24 19 -8 20 -10 4 -16 -11 -5 -15 -3
-10 5 5 7 2 9 -7 6 -10 -4 -15 1 -16 14 -1 11 7 23 20 28 29 11 26 11 48 0z"/>
<path fill="#ffffff" stroke="none" d="M290 139 c0 -5 -4 -9 -8 -9 -5 0 -9 7
-9 15 0 8 4 12 9 9 4 -3 8 -9 8 -15z"/>
<path fill="#ffffff" stroke="none" d="M58 95 c-17 -14 -48 -24 -48 -15 0 5 7
10 15 10 8 0 15 5 15 11 0 5 5 7 11 4 6 -4 9 -8 7 -10z"/>
<path fill="#ffffff" stroke="none" d="M53 53 c-3 -7 -9 -13 -14 -13 -5 0 -9
6 -9 13 0 8 6 14 14 14 8 0 12 -6 9 -14z"/>
<path fill="#ffffff" stroke="none" d="M180 35 c0 -8 -4 -15 -10 -15 -5 0 -7
7 -4 15 4 8 8 15 10 15 2 0 4 -7 4 -15z"/>
<path fill="#000000" stroke="none" d="M222 139 c-14 -22 -7 -25 14 -5 8 8 11
17 6 20 -4 2 -13 -4 -20 -15z"/>
</g>
</svg>
