<?xml version="1.0" standalone="no"?>
<!DOCTYPE svg PUBLIC "-//W3C//DTD SVG 20010904//EN"
 "http://www.w3.org/TR/2001/REC-SVG-20010904/DTD/svg10.dtd">
<svg version="1.0" xmlns="http://www.w3.org/2000/svg"
 width="32.000000pt" height="32.000000pt" viewBox="0 0 32.000000 32.000000"
 preserveAspectRatio="xMidYMid meet">
<metadata>
Created by potrace 1.16, written by Peter Selinger 2001-2019
</metadata>
<g transform="translate(0.000000,32.000000) scale(0.100000,-0.100000)"
fill="#000000" stroke="none">
<path fill="#000000" stroke="none" d="M13 308 c-6 -7 -10 -29 -10 -48 0 -19
2 -30 4 -24 2 6 14 9 26 7 14 -3 29 2 38 13 12 16 12 17 -1 9 -13 -8 -13 -6
-1 8 7 9 11 24 7 32 -7 18 -50 20 -63 3z"/>
<path fill="#000000" stroke="none" d="M106 311 c-7 -11 10 -61 21 -62 5 0 23
-2 41 -4 41 -3 51 15 28 50 -12 19 -25 25 -51 25 -18 0 -36 -4 -39 -9z"/>
<path fill="#000000" stroke="none" d="M200 310 c0 -5 5 -10 10 -10 6 0 10 5
10 10 0 6 -4 10 -10 10 -5 0 -10 -4 -10 -10z"/>
<path fill="#000000" stroke="none" d="M239 304 c-17 -21 -22 -94 -7 -111 7
-9 7 -13 -1 -13 -7 0 -10 -4 -7 -9 4 -5 2 -11 -3 -13 -5 -1 -13 -16 -17 -33
-6 -27 -6 -29 9 -17 13 11 15 10 10 -8 -3 -12 -16 -26 -29 -32 -28 -13 -38
-36 -23 -54 15 -18 63 -18 78 0 10 12 8 16 -10 21 l-23 8 23 18 c13 11 19 19
15 19 -5 1 2 7 16 15 15 8 29 10 35 5 7 -6 11 -2 12 9 1 14 -4 18 -20 14 l-22
-5 22 16 c22 17 22 17 3 36 -11 11 -26 20 -33 20 -7 0 -13 9 -13 20 0 13 4 16
10 10 13 -13 29 -13 21 0 -3 6 -1 10 5 10 6 0 9 4 5 9 -3 5 0 13 5 16 7 5 5
11 -6 19 -13 10 -14 15 -4 21 8 5 11 4 7 -2 -3 -5 0 -10 8 -10 13 0 12 4 -2
19 -20 22 -46 23 -64 2z"/>
<path fill="#000000" stroke="none" d="M307 213 c-10 -9 -9 -23 1 -23 5 0 9 7
9 15 0 17 -1 18 -10 8z"/>
<path fill="#000000" stroke="none" d="M12 198 c-15 -15 -16 -55 -2 -63 6 -4
17 -1 25 5 8 7 15 9 15 5 0 -5 8 -1 18 8 10 10 21 16 23 15 2 -2 -7 7 -21 19
-29 26 -41 28 -58 11z"/>
<path fill="#000000" stroke="none" d="M85 150 c-16 -10 -34 -15 -40 -12 -5 3
-5 -1 2 -8 15 -16 -4 -50 -24 -43 -10 4 -11 9 -2 19 8 10 8 14 0 14 -6 0 -11
-3 -12 -7 0 -5 -3 -21 -5 -36 -5 -28 9 -57 28 -57 5 0 8 6 5 13 -2 6 -9 11
-15 10 -6 -2 -9 4 -6 12 4 8 10 15 15 15 10 0 29 -41 23 -51 -5 -8 29 -4 45 6
10 5 12 4 7 -3 -8 -14 29 -11 41 3 5 4 3 5 -3 2 -17 -10 -35 16 -24 33 6 8 10
10 10 4 0 -7 6 -14 14 -17 9 -4 13 2 11 16 0 12 7 31 17 43 18 20 17 21 -5 40
-29 24 -45 25 -82 4z"/>
<path fill="#000000" stroke="none" d="M297 74 c-3 -4 -2 -15 4 -25 7 -14 6
-19 -4 -19 -8 0 -20 -6 -26 -14 -9 -10 -7 -13 11 -12 26 1 49 49 32 66 -6 6
-13 7 -17 4z"/>
<path fill="#000000" stroke="none" d="M240 56 c0 -2 7 -7 16 -10 8 -3 12 -2
9 4 -6 10 -25 14 -25 6z"/>
</g>
</svg>
