<?xml version="1.0" standalone="no"?>
<!DOCTYPE svg PUBLIC "-//W3C//DTD SVG 20010904//EN"
 "http://www.w3.org/TR/2001/REC-SVG-20010904/DTD/svg10.dtd">
<svg version="1.0" xmlns="http://www.w3.org/2000/svg"
 width="32.000000pt" height="32.000000pt" viewBox="0 0 32.000000 32.000000"
 preserveAspectRatio="xMidYMid meet">
<metadata>
Created by potrace 1.16, written by Peter Selinger 2001-2019
</metadata>
<g transform="translate(0.000000,32.000000) scale(0.100000,-0.100000)"
fill="#000000" stroke="none">
<path fill="#000000" stroke="none" d="M25 298 c-18 -14 -25 -29 -25 -54 0
-24 4 -33 12 -28 8 5 9 2 3 -12 -22 -53 -11 -115 18 -97 6 4 7 1 3 -6 -5 -7
-14 -10 -20 -8 -8 3 -13 -9 -15 -38 -2 -42 11 -66 24 -45 4 6 11 8 16 4 18
-11 169 -17 169 -6 0 12 -34 42 -47 42 -6 0 -17 8 -24 17 -12 16 -12 17 2 5 9
-7 24 -10 33 -6 10 4 16 1 16 -8 0 -19 42 -58 62 -58 9 0 21 7 28 15 14 17 30
20 30 4 0 -5 -4 -8 -9 -4 -5 3 -12 2 -15 -3 -2 -4 4 -9 15 -9 18 -2 19 6 18
143 0 143 -7 171 -31 119 -6 -14 -16 -25 -21 -25 -5 0 2 15 17 34 14 19 26 37
26 40 0 2 -58 4 -130 4 -114 0 -133 -2 -155 -20z"/>
<path fill="#ffffff" stroke="none" d="M134 241 c-5 -7 -24 11 -35 32 -11 20
-9 20 13 -3 13 -14 23 -27 22 -29z"/>
<path fill="#ffffff" stroke="none" d="M238 227 c3 -11 8 -14 11 -8 4 7 14 3
25 -11 14 -16 15 -20 3 -15 -8 3 -20 0 -27 -6 -10 -9 -11 -9 -6 3 4 8 -2 4
-13 -10 -12 -14 -26 -31 -31 -37 -8 -10 -15 -10 -30 -1 -14 9 -16 14 -7 20 7
4 9 8 5 8 -3 0 -14 3 -24 7 -13 5 -15 3 -9 -8 6 -11 5 -12 -5 -2 -11 10 -9 18
10 46 19 27 30 34 58 34 26 0 36 -5 40 -20z"/>
<path fill="#ffffff" stroke="none" d="M77 114 c-3 -3 -12 -4 -19 -1 -8 3 -5
6 6 6 11 1 17 -2 13 -5z"/>
<path fill="#ffffff" stroke="none" d="M192 88 c-8 -8 -9 -4 -5 13 4 13 8 18
11 10 2 -7 -1 -18 -6 -23z"/>
<path fill="#000000" stroke="none" d="M187 233 c-9 -14 8 -33 21 -24 10 6 10
10 -2 20 -8 7 -17 8 -19 4z"/>
</g>
</svg>
