<?xml version="1.0" standalone="no"?>
<!DOCTYPE svg PUBLIC "-//W3C//DTD SVG 20010904//EN"
 "http://www.w3.org/TR/2001/REC-SVG-20010904/DTD/svg10.dtd">
<svg version="1.0" xmlns="http://www.w3.org/2000/svg"
 width="32.000000pt" height="32.000000pt" viewBox="0 0 32.000000 32.000000"
 preserveAspectRatio="xMidYMid meet">
<metadata>
Created by potrace 1.16, written by Peter Selinger 2001-2019
</metadata>
<g transform="translate(0.000000,32.000000) scale(0.100000,-0.100000)"
fill="#000000" stroke="none">
<path fill="#000000" stroke="none" d="M0 160 l0 -160 160 0 160 0 0 160 0
160 -26 0 c-14 0 -23 -4 -20 -9 3 -5 -3 -11 -15 -14 -16 -4 -18 -3 -8 9 10 12
3 14 -45 14 -32 0 -55 -4 -52 -9 3 -5 -1 -11 -9 -14 -9 -4 -12 -1 -8 9 4 11
-8 14 -66 14 l-71 0 0 -160z"/>
<path fill="#ffffff" stroke="none" d="M47 285 c0 -8 -4 -15 -8 -15 -11 0 -20
16 -12 24 11 11 20 7 20 -9z"/>
</g>
</svg>
