<?xml version="1.0" standalone="no"?>
<!DOCTYPE svg PUBLIC "-//W3C//DTD SVG 20010904//EN"
 "http://www.w3.org/TR/2001/REC-SVG-20010904/DTD/svg10.dtd">
<svg version="1.0" xmlns="http://www.w3.org/2000/svg"
 width="32.000000pt" height="32.000000pt" viewBox="0 0 32.000000 32.000000"
 preserveAspectRatio="xMidYMid meet">
<metadata>
Created by potrace 1.16, written by Peter Selinger 2001-2019
</metadata>
<g transform="translate(0.000000,32.000000) scale(0.100000,-0.100000)"
fill="#000000" stroke="none">
<path fill="#000000" stroke="none" d="M0 248 c1 -55 3 -69 11 -55 5 9 17 17
24 17 8 0 15 3 15 8 0 4 9 13 21 20 17 11 27 11 50 2 36 -15 29 -30 -11 -25
-17 2 -28 0 -25 -5 3 -5 -3 -13 -12 -19 -16 -9 -16 -12 -3 -20 12 -8 12 -11
-4 -17 -11 -4 -21 -2 -27 7 -8 13 -13 5 -10 -15 1 -5 -5 -4 -13 4 -14 11 -16
7 -16 -34 0 -44 1 -46 20 -34 11 7 23 20 25 30 13 38 65 55 113 37 24 -9 24
-10 7 -29 -13 -15 -21 -17 -31 -9 -9 7 -14 5 -19 -10 -3 -12 -14 -21 -23 -21
-14 0 -15 -2 -2 -10 12 -8 12 -10 -3 -16 -10 -4 -16 -13 -13 -20 3 -8 0 -11
-9 -7 -8 3 -13 9 -10 13 3 4 -1 10 -9 13 -8 3 -13 -1 -12 -11 1 -10 -6 -16
-16 -16 -10 1 -18 -4 -18 -12 0 -11 31 -14 160 -13 l160 0 -1 107 c0 66 -5
109 -12 114 -14 9 -18 68 -4 65 6 -1 13 6 15 16 2 11 -3 17 -13 17 -9 0 -13
-4 -10 -10 3 -6 -3 -10 -14 -10 -20 0 -28 -22 -21 -55 1 -5 -8 -1 -19 9 -25
23 -26 30 -7 49 13 13 8 15 -37 15 -32 1 -47 -2 -38 -7 9 -6 10 -11 2 -15 -6
-4 -9 -12 -5 -17 3 -6 -5 -7 -22 -3 -19 5 -25 4 -20 -5 10 -15 0 -14 -29 5
-24 16 -31 11 -26 -18 0 -5 -4 -7 -11 -5 -7 1 -12 -4 -13 -12 -1 -32 -21 -19
-22 14 -1 25 5 39 20 50 21 15 21 15 -6 15 -27 0 -27 0 -27 -72z"/>
<path fill="#ffffff" stroke="none" d="M220 296 c0 -3 -4 -8 -10 -11 -5 -3
-10 -1 -10 4 0 6 5 11 10 11 6 0 10 -2 10 -4z"/>
<path fill="#ffffff" stroke="none" d="M226 221 c-3 -4 -17 -6 -33 -5 -29 2
-32 16 -10 42 9 12 14 10 29 -8 10 -12 16 -25 14 -29z"/>
<path fill="#ffffff" stroke="none" d="M173 196 c3 -11 -30 -32 -38 -25 -3 4
-3 14 1 23 7 17 33 19 37 2z"/>
<path fill="#ffffff" stroke="none" d="M231 177 c-10 -9 -11 -8 -5 6 3 10 9
15 12 12 3 -3 0 -11 -7 -18z"/>
<path fill="#ffffff" stroke="none" d="M299 176 c14 -16 4 -46 -14 -46 -7 0
-16 6 -18 13 -3 7 -6 4 -6 -7 -1 -14 -7 -17 -26 -14 -13 3 -27 0 -30 -6 -2 -6
-2 0 1 13 12 48 69 76 93 47z"/>
<path fill="#ffffff" stroke="none" d="M290 98 c0 -7 -12 -23 -27 -35 -14 -13
-23 -23 -19 -23 4 0 1 -6 -6 -14 -9 -9 -17 -11 -25 -5 -7 7 -14 6 -18 -1 -9
-15 -25 -12 -25 5 0 26 66 85 95 85 14 0 25 -5 25 -12z"/>
<path fill="#ffffff" stroke="none" d="M303 56 c4 -10 0 -14 -13 -13 -14 1
-16 4 -8 14 13 16 15 16 21 -1z"/>
<path fill="#ffffff" stroke="none" d="M116 41 c0 -11 -5 -17 -13 -14 -10 4
-11 9 -2 19 15 18 15 18 15 -5z"/>
<path fill="#000000" stroke="none" d="M88 313 c7 -3 16 -2 19 1 4 3 -2 6 -13
5 -11 0 -14 -3 -6 -6z"/>
<path fill="#000000" stroke="none" d="M305 240 c3 -5 8 -10 11 -10 2 0 4 5 4
10 0 6 -5 10 -11 10 -5 0 -7 -4 -4 -10z"/>
</g>
</svg>
