<?xml version="1.0" standalone="no"?>
<!DOCTYPE svg PUBLIC "-//W3C//DTD SVG 20010904//EN"
 "http://www.w3.org/TR/2001/REC-SVG-20010904/DTD/svg10.dtd">
<svg version="1.0" xmlns="http://www.w3.org/2000/svg"
 width="32.000000pt" height="32.000000pt" viewBox="0 0 32.000000 32.000000"
 preserveAspectRatio="xMidYMid meet">
<metadata>
Created by potrace 1.16, written by Peter Selinger 2001-2019
</metadata>
<g transform="translate(0.000000,32.000000) scale(0.100000,-0.100000)"
fill="#000000" stroke="none">
<path fill="#000000" stroke="none" d="M85 292 c2 -24 -5 -33 -41 -56 -53 -34
-56 -40 -9 -20 40 16 48 17 40 5 -3 -5 4 -16 16 -24 15 -11 17 -16 7 -20 -10
-4 -9 -6 2 -6 8 0 21 3 28 8 10 6 7 12 -13 25 -18 12 -23 21 -17 29 5 7 7 21
5 32 -2 11 -4 28 -4 38 0 9 -4 17 -8 17 -5 0 -7 -13 -6 -28z"/>
<path fill="#000000" stroke="none" d="M114 238 c-4 -6 9 -24 29 -41 39 -31
48 -50 20 -40 -15 5 -15 3 2 -10 21 -16 49 -12 38 7 -12 18 -12 36 -1 36 6 0
8 -7 4 -15 -3 -8 -1 -15 3 -15 5 0 11 7 15 15 3 8 1 15 -4 15 -14 0 -12 34 3
49 10 11 8 11 -13 1 -14 -8 -26 -12 -27 -11 -11 11 -64 18 -69 9z"/>
<path fill="#000000" stroke="none" d="M267 199 c7 -7 15 -10 18 -7 3 3 -2 9
-12 12 -14 6 -15 5 -6 -5z"/>
<path fill="#000000" stroke="none" d="M2 107 c2 -23 35 -34 35 -11 0 7 -7 9
-15 6 -11 -4 -14 -1 -9 11 3 9 2 17 -3 17 -5 0 -9 -10 -8 -23z"/>
<path fill="#000000" stroke="none" d="M272 61 c-11 -7 -11 -9 2 -14 10 -4 16
-1 16 8 0 17 -1 17 -18 6z"/>
<path fill="#000000" stroke="none" d="M33 22 c-9 -16 -5 -18 36 -18 25 -1 37
1 26 3 -11 3 -27 11 -35 19 -13 11 -17 11 -27 -4z"/>
</g>
</svg>
