<?xml version="1.0" standalone="no"?>
<!DOCTYPE svg PUBLIC "-//W3C//DTD SVG 20010904//EN"
 "http://www.w3.org/TR/2001/REC-SVG-20010904/DTD/svg10.dtd">
<svg version="1.0" xmlns="http://www.w3.org/2000/svg"
 width="32.000000pt" height="32.000000pt" viewBox="0 0 32.000000 32.000000"
 preserveAspectRatio="xMidYMid meet">
<metadata>
Created by potrace 1.16, written by Peter Selinger 2001-2019
</metadata>
<g transform="translate(0.000000,32.000000) scale(0.100000,-0.100000)"
fill="#000000" stroke="none">
<path fill="#000000" stroke="none" d="M145 214 c-4 -22 -2 -41 4 -47 8 -8 11
3 11 36 0 56 -5 60 -15 11z"/>
<path fill="#000000" stroke="none" d="M30 200 c0 -19 32 -60 46 -60 24 0 15
28 -16 50 -16 12 -30 16 -30 10z"/>
<path fill="#000000" stroke="none" d="M258 188 c-30 -21 -37 -48 -14 -48 15
0 49 46 44 60 -2 5 -15 0 -30 -12z"/>
</g>
</svg>
