<?xml version="1.0" standalone="no"?>
<!DOCTYPE svg PUBLIC "-//W3C//DTD SVG 20010904//EN"
 "http://www.w3.org/TR/2001/REC-SVG-20010904/DTD/svg10.dtd">
<svg version="1.0" xmlns="http://www.w3.org/2000/svg"
 width="32.000000pt" height="32.000000pt" viewBox="0 0 32.000000 32.000000"
 preserveAspectRatio="xMidYMid meet">
<metadata>
Created by potrace 1.16, written by Peter Selinger 2001-2019
</metadata>
<g transform="translate(0.000000,32.000000) scale(0.100000,-0.100000)"
fill="#000000" stroke="none">
<path fill="#000000" stroke="none" d="M10 154 c0 -148 1 -156 17 -143 10 8
21 19 26 24 4 6 11 4 17 -5 8 -13 10 -12 10 4 0 18 1 18 19 2 22 -20 45 -12
36 13 -4 10 1 8 15 -6 21 -24 31 -29 29 -15 -3 19 3 22 22 11 15 -8 19 -8 15
0 -10 16 9 14 23 -2 16 -20 55 -14 60 8 2 10 -5 25 -15 32 -13 9 -14 13 -4 13
11 0 11 3 2 12 -17 17 -15 41 2 35 10 -4 12 0 9 14 -3 10 -10 16 -15 13 -6 -4
-8 2 -3 15 4 14 2 21 -6 21 -10 0 -10 3 -1 12 7 7 12 21 12 32 0 17 2 18 10 6
6 -9 10 -10 10 -3 0 6 -5 15 -12 19 -16 10 -58 11 -58 2 0 -4 5 -8 12 -8 6 0
3 -9 -7 -20 -11 -12 -22 -17 -29 -11 -13 10 -102 0 -98 -12 1 -4 -4 -17 -12
-30 -13 -18 -14 -31 -7 -66 1 -2 9 3 19 10 15 12 16 12 5 -2 -7 -9 -9 -19 -5
-23 4 -4 2 -6 -3 -4 -6 2 -12 -1 -14 -7 -6 -14 -25 -31 -35 -32 -5 -1 -13 -7
-18 -15 -8 -10 -9 -10 -5 2 2 8 10 14 16 13 13 -4 13 -5 2 35 -6 20 -6 30 0
27 5 -4 9 4 9 16 0 18 -2 19 -15 9 -11 -9 -15 -9 -15 -1 0 6 6 14 14 17 8 3
12 12 9 20 -3 8 -10 11 -16 7 -7 -4 -8 0 -4 11 4 10 7 20 7 22 0 3 5 2 10 -1
6 -3 10 -1 10 4 0 6 -5 11 -12 11 -6 0 -2 11 10 23 21 22 58 34 46 15 -3 -5
-10 -6 -15 -3 -5 4 -9 2 -9 -3 0 -5 13 -9 29 -8 16 0 27 4 25 8 -3 5 1 8 8 9
7 0 25 2 41 4 27 4 38 -9 15 -18 -8 -4 -7 -6 3 -6 9 -1 19 5 22 12 3 8 19 13
42 12 20 0 41 5 47 12 8 11 -19 13 -146 13 l-156 0 0 -156z"/>
<path fill="#ffffff" stroke="none" d="M273 250 c-3 -12 -8 -19 -11 -16 -5 6
5 36 12 36 2 0 2 -9 -1 -20z"/>
<path fill="#ffffff" stroke="none" d="M198 187 c-1 -2 4 -12 12 -23 14 -18
14 -18 -2 -5 -10 7 -18 20 -18 29 0 8 3 13 6 10 3 -4 4 -8 2 -11z"/>
<path fill="#ffffff" stroke="none" d="M165 160 c-3 -5 -12 -10 -18 -10 -7 0
-6 4 3 10 19 12 23 12 15 0z"/>
<path fill="#ffffff" stroke="none" d="M147 125 c0 -8 -4 -12 -9 -9 -5 3 -6
10 -3 15 9 13 12 11 12 -6z"/>
<path fill="#ffffff" stroke="none" d="M235 101 c-9 -8 -36 -10 -30 -2 2 4 11
8 20 8 8 0 13 -3 10 -6z"/>
<path fill="#ffffff" stroke="none" d="M125 40 c3 -5 1 -10 -4 -10 -6 0 -11 5
-11 10 0 6 2 10 4 10 3 0 8 -4 11 -10z"/>
<path fill="#000000" stroke="none" d="M90 214 c0 -8 5 -12 10 -9 6 4 8 11 5
16 -9 14 -15 11 -15 -7z"/>
<path fill="#000000" stroke="none" d="M287 217 c-3 -8 -1 -20 4 -28 6 -10 9
-7 9 14 0 29 -5 35 -13 14z"/>
</g>
</svg>
