<?xml version="1.0" standalone="no"?>
<!DOCTYPE svg PUBLIC "-//W3C//DTD SVG 20010904//EN"
 "http://www.w3.org/TR/2001/REC-SVG-20010904/DTD/svg10.dtd">
<svg version="1.0" xmlns="http://www.w3.org/2000/svg"
 width="32.000000pt" height="32.000000pt" viewBox="0 0 32.000000 32.000000"
 preserveAspectRatio="xMidYMid meet">
<metadata>
Created by potrace 1.16, written by Peter Selinger 2001-2019
</metadata>
<g transform="translate(0.000000,32.000000) scale(0.100000,-0.100000)"
fill="#000000" stroke="none">
<path fill="#000000" stroke="none" d="M167 232 c-29 -32 -13 -82 16 -53 9 9
8 11 -5 6 -24 -9 -25 27 -2 46 14 11 18 10 30 -6 32 -43 10 -92 -46 -101 -52
-9 -67 -26 -46 -56 9 -12 16 -18 16 -12 0 5 -5 15 -11 21 -17 17 -3 30 40 37
63 10 90 65 55 114 -18 27 -26 27 -47 4z"/>
</g>
</svg>
