<?xml version="1.0" standalone="no"?>
<!DOCTYPE svg PUBLIC "-//W3C//DTD SVG 20010904//EN"
 "http://www.w3.org/TR/2001/REC-SVG-20010904/DTD/svg10.dtd">
<svg version="1.0" xmlns="http://www.w3.org/2000/svg"
 width="32.000000pt" height="32.000000pt" viewBox="0 0 32.000000 32.000000"
 preserveAspectRatio="xMidYMid meet">
<metadata>
Created by potrace 1.16, written by Peter Selinger 2001-2019
</metadata>
<g transform="translate(0.000000,32.000000) scale(0.100000,-0.100000)"
fill="#000000" stroke="none">
<path fill="#000000" stroke="none" d="M285 291 c-16 -4 -67 -6 -113 -5 -69 2
-83 0 -78 -12 4 -10 -2 -14 -19 -14 -30 0 -53 -35 -28 -44 9 -4 24 -4 34 -1
11 4 19 2 19 -3 0 -6 -13 -9 -30 -8 -17 1 -30 0 -31 -3 0 -3 -2 -16 -5 -28 -2
-13 1 -23 7 -23 5 0 8 4 5 9 -3 5 0 13 7 19 9 7 22 0 50 -28 21 -22 33 -41 27
-45 -5 -3 -10 0 -10 7 0 19 -40 42 -52 30 -6 -6 -17 -8 -24 -5 -8 3 -14 0 -14
-6 0 -6 5 -11 10 -11 6 0 10 -7 10 -16 0 -8 -4 -13 -9 -9 -5 3 -13 0 -17 -6
-5 -8 -3 -9 6 -4 9 6 11 0 5 -24 -10 -45 2 -38 15 9 8 29 16 40 30 40 11 0 20
-4 20 -10 0 -5 -8 -6 -17 -3 -12 5 -15 2 -10 -10 3 -9 2 -19 -3 -22 -5 -3 -6
-13 -3 -22 4 -9 2 -14 -3 -10 -5 3 -21 -3 -34 -14 -25 -18 -24 -19 133 -19
136 0 157 2 157 16 0 8 -5 12 -10 9 -6 -4 -17 -1 -25 5 -8 6 -18 9 -23 6 -5
-3 -9 1 -9 9 0 8 5 11 10 8 6 -3 7 -1 3 6 -4 6 -12 9 -17 6 -5 -4 -9 -1 -9 4
0 6 -9 11 -19 11 -15 0 -20 8 -23 36 -3 35 -4 36 -46 39 -24 2 -47 6 -50 10
-8 8 19 25 30 19 4 -3 3 7 -2 21 -13 34 -13 48 0 40 6 -4 8 -11 4 -16 -3 -5
-2 -9 3 -8 19 3 21 -2 13 -30 -8 -29 -7 -29 26 -28 21 1 32 6 30 14 -3 6 3 10
12 8 9 -1 20 2 23 8 4 5 6 -4 4 -22 -3 -38 -15 -54 -15 -20 -1 20 -2 21 -10 7
-16 -26 -2 -50 21 -37 21 11 25 -1 7 -20 -11 -10 -10 -11 5 -6 9 4 17 11 17
17 0 5 5 6 10 3 6 -3 10 0 10 8 0 8 -8 18 -17 22 -17 6 -17 7 1 20 10 8 16 20
13 27 -4 10 -6 9 -6 -2 -1 -10 -6 -7 -17 9 -17 24 -9 43 22 47 9 1 13 -1 9 -4
-4 -4 -12 -7 -17 -7 -6 0 -13 -6 -16 -14 -3 -8 0 -11 6 -8 5 4 15 0 21 -7 16
-19 19 -105 5 -110 -12 -4 -13 -50 -2 -62 4 -3 12 -3 18 1 8 5 5 12 -7 22 -15
12 -15 14 -1 10 14 -5 16 8 17 114 1 65 0 119 -1 118 -2 -1 -16 -4 -33 -8z"/>
<path fill="#ffffff" stroke="none" d="M130 270 c0 -5 -2 -10 -4 -10 -3 0 -8
5 -11 10 -3 6 -1 10 4 10 6 0 11 -4 11 -10z"/>
<path fill="#ffffff" stroke="none" d="M193 272 c3 8 6 6 6 -5 1 -14 -4 -17
-21 -12 l-23 6 22 -19 c14 -12 18 -23 13 -32 -5 -8 -6 -18 -3 -24 3 -5 1 -6
-5 -3 -5 4 -8 16 -5 26 3 13 -2 23 -16 31 -17 9 -19 13 -9 24 9 9 17 11 25 5
7 -7 13 -5 16 3z"/>
<path fill="#ffffff" stroke="none" d="M295 270 c3 -5 -3 -10 -14 -10 -12 0
-21 5 -21 10 0 6 6 10 14 10 8 0 18 -4 21 -10z"/>
<path fill="#ffffff" stroke="none" d="M86 235 c-10 -8 -23 -12 -28 -9 -14 9
-2 19 24 21 22 2 22 1 4 -12z"/>
<path fill="#ffffff" stroke="none" d="M235 211 c-9 -8 -36 -10 -30 -2 2 4 11
8 20 8 8 0 13 -3 10 -6z"/>
<path fill="#ffffff" stroke="none" d="M170 110 c0 -5 -2 -10 -4 -10 -3 0 -8
5 -11 10 -3 6 -1 10 4 10 6 0 11 -4 11 -10z"/>
<path fill="#ffffff" stroke="none" d="M150 85 c0 -9 -6 -12 -16 -8 -13 5 -13
7 -2 14 17 11 18 11 18 -6z"/>
<path fill="#ffffff" stroke="none" d="M180 80 c0 -6 3 -9 8 -9 23 4 42 -2 36
-12 -3 -6 -15 -9 -25 -6 -11 3 -19 2 -19 -3 0 -10 -49 0 -56 12 -4 6 2 8 15 3
15 -5 21 -2 21 9 0 9 5 16 10 16 6 0 10 -5 10 -10z"/>
<path fill="#ffffff" stroke="none" d="M240 41 c0 -5 -7 -12 -16 -15 -14 -5
-15 -4 -4 9 14 17 20 19 20 6z"/>
<path fill="#ffffff" stroke="none" d="M145 30 c3 -5 1 -10 -4 -10 -6 0 -11 5
-11 10 0 6 2 10 4 10 3 0 8 -4 11 -10z"/>
<path fill="#000000" stroke="none" d="M41 276 c-9 -11 -6 -12 14 -8 14 2 22
8 19 13 -8 13 -20 11 -33 -5z"/>
</g>
</svg>
