<?xml version="1.0" standalone="no"?>
<!DOCTYPE svg PUBLIC "-//W3C//DTD SVG 20010904//EN"
 "http://www.w3.org/TR/2001/REC-SVG-20010904/DTD/svg10.dtd">
<svg version="1.0" xmlns="http://www.w3.org/2000/svg"
 width="32.000000pt" height="32.000000pt" viewBox="0 0 32.000000 32.000000"
 preserveAspectRatio="xMidYMid meet">
<metadata>
Created by potrace 1.16, written by Peter Selinger 2001-2019
</metadata>
<g transform="translate(0.000000,32.000000) scale(0.100000,-0.100000)"
fill="#000000" stroke="none">
<path fill="#000000" stroke="none" d="M10 153 c1 -133 3 -155 14 -141 7 10
17 14 21 10 5 -4 4 0 -1 8 -11 19 -13 60 -2 53 5 -2 6 8 2 23 -5 19 -4 25 5
20 7 -5 11 1 11 15 0 18 -3 19 -14 9 -12 -9 -15 -8 -13 9 0 11 4 18 7 16 4 -2
7 2 7 10 0 8 -4 12 -9 9 -12 -8 2 68 15 81 7 7 8 5 3 -5 -5 -9 -2 -8 7 3 8 9
22 17 32 17 14 0 15 -3 5 -15 -11 -13 -10 -14 4 -9 9 3 16 9 16 13 0 3 27 7
61 9 36 1 58 -1 55 -7 -4 -5 -2 -12 4 -16 6 -4 7 -13 2 -23 -4 -9 -7 -44 -7
-77 2 -69 -8 -90 -36 -74 -14 7 -19 6 -19 -3 -1 -8 -7 -5 -15 6 -8 11 -15 16
-15 10 0 -5 -5 -1 -11 9 -15 25 -2 35 15 12 14 -19 56 -29 56 -13 0 5 5 6 11
2 6 -3 3 5 -6 20 -10 14 -21 26 -25 26 -5 0 -6 10 -3 23 3 12 2 19 -2 15 -4
-4 -9 -22 -11 -40 -1 -18 0 -27 3 -20 2 6 9 12 14 12 6 0 8 -4 5 -9 -4 -5 0
-12 6 -15 7 -2 3 -4 -10 -2 -13 1 -27 7 -30 13 -4 6 -21 13 -38 17 -24 5 -31
3 -31 -8 0 -12 4 -13 14 -5 8 7 13 8 13 1 0 -5 -7 -15 -15 -22 -9 -7 -14 -19
-11 -27 3 -7 -1 -13 -9 -13 -7 0 -13 -9 -12 -19 1 -15 5 -17 17 -11 10 6 22 3
35 -8 17 -15 18 -15 7 -1 -11 14 -9 17 13 17 14 0 25 -5 25 -10 0 -5 -5 -6
-12 -2 -7 4 -8 3 -4 -5 5 -7 13 -8 19 -3 7 4 27 9 46 11 24 2 31 -1 26 -10 -5
-8 -4 -10 3 -5 7 4 12 16 12 26 0 14 5 18 18 13 15 -5 15 -4 -1 9 -14 10 -17
21 -12 41 4 15 12 24 18 20 6 -3 7 -1 3 6 -4 6 -11 9 -15 6 -13 -7 -10 98 3
115 9 13 9 13 -6 2 -10 -8 -19 -9 -22 -3 -7 11 29 25 43 17 5 -3 14 1 21 9 11
13 -7 15 -144 15 l-156 0 0 -157z"/>
<path fill="#ffffff" stroke="none" d="M126 82 c-4 -3 -12 0 -19 7 -9 9 -9 14
3 21 11 7 16 5 18 -6 2 -9 1 -18 -2 -22z"/>
<path fill="#000000" stroke="none" d="M135 217 c9 -4 12 -13 8 -20 -13 -21
-11 -36 4 -30 12 5 12 7 1 14 -10 7 -9 9 4 9 10 0 17 5 16 12 -2 7 2 12 9 13
6 0 14 3 18 6 3 4 -12 6 -35 6 -28 -1 -36 -4 -25 -10z"/>
<path fill="#000000" stroke="none" d="M207 213 c-4 -3 -7 -11 -7 -17 0 -6 5
-5 12 2 6 6 9 14 7 17 -3 3 -9 2 -12 -2z"/>
<path fill="#000000" stroke="none" d="M97 179 c7 -7 15 -10 18 -7 3 3 -2 9
-12 12 -14 6 -15 5 -6 -5z"/>
<path fill="#000000" stroke="none" d="M210 170 c0 -5 5 -10 11 -10 5 0 7 5 4
10 -3 6 -8 10 -11 10 -2 0 -4 -4 -4 -10z"/>
</g>
</svg>
