<?xml version="1.0" standalone="no"?>
<!DOCTYPE svg PUBLIC "-//W3C//DTD SVG 20010904//EN"
 "http://www.w3.org/TR/2001/REC-SVG-20010904/DTD/svg10.dtd">
<svg version="1.0" xmlns="http://www.w3.org/2000/svg"
 width="32.000000pt" height="32.000000pt" viewBox="0 0 32.000000 32.000000"
 preserveAspectRatio="xMidYMid meet">
<metadata>
Created by potrace 1.16, written by Peter Selinger 2001-2019
</metadata>
<g transform="translate(0.000000,32.000000) scale(0.100000,-0.100000)"
fill="#000000" stroke="none">
<path fill="#000000" stroke="none" d="M6 160 c1 -155 6 -177 37 -152 18 14
216 16 233 2 7 -7 19 -10 26 -7 7 3 4 6 -7 6 -15 1 -17 3 -7 10 10 6 13 37 13
119 -1 64 3 113 9 117 5 3 10 12 10 18 0 7 -4 6 -10 -3 -5 -8 -10 -10 -10 -4
0 5 5 15 12 22 6 6 9 14 6 18 -4 3 -76 7 -160 7 l-153 2 1 -155z"/>
<path fill="#ffffff" stroke="none" d="M137 260 c1 -17 -1 -30 -5 -30 -6 0 -9
47 -3 58 4 7 6 -1 8 -28z"/>
<path fill="#ffffff" stroke="none" d="M95 260 c-4 -6 -2 -17 4 -24 9 -11 8
-18 -4 -29 -19 -20 -19 -27 2 -27 15 0 15 -1 -2 -14 -11 -8 -16 -19 -12 -30 9
-23 42 -16 42 9 0 23 25 37 42 23 7 -5 17 -7 22 -4 5 4 12 2 16 -4 3 -5 -1
-10 -9 -10 -8 0 -19 -6 -23 -13 -4 -6 -15 -12 -23 -12 -10 0 -14 -8 -12 -27 1
-16 -2 -28 -7 -28 -6 0 -8 6 -5 14 7 18 -15 31 -28 18 -8 -8 -8 -15 1 -25 9
-12 8 -16 -5 -21 -27 -10 -34 -7 -34 19 0 16 6 25 15 25 8 0 15 5 15 11 0 6
-6 9 -13 6 -16 -6 -19 22 -5 40 13 16 0 36 -18 29 -8 -3 -14 1 -14 8 0 9 7 12
20 9 27 -7 39 25 16 43 -16 12 -16 13 1 17 10 3 19 5 21 6 2 0 0 -4 -3 -9z"/>
<path fill="#ffffff" stroke="none" d="M204 251 c3 -5 -5 -8 -19 -7 -14 0 -25
4 -25 9 0 10 38 9 44 -2z"/>
<path fill="#ffffff" stroke="none" d="M245 250 c3 -6 -1 -7 -9 -4 -18 7 -21
14 -7 14 6 0 13 -4 16 -10z"/>
<path fill="#ffffff" stroke="none" d="M189 214 c5 4 13 1 16 -5 4 -6 19 -8
34 -5 14 3 20 3 14 0 -19 -8 -16 -24 4 -24 15 0 15 -1 -2 -14 -24 -17 -13 -50
15 -43 13 3 20 0 20 -9 0 -7 -6 -11 -14 -8 -18 7 -32 -14 -18 -28 11 -11 5
-38 -9 -38 -4 0 -6 7 -2 16 4 11 -1 22 -12 30 -17 13 -17 14 -2 14 21 0 21 7
2 27 -12 11 -13 18 -4 29 13 16 2 37 -17 30 -7 -3 -16 -1 -20 5 -3 6 -12 8
-19 5 -7 -2 -15 4 -18 15 -4 16 -3 18 8 9 8 -7 19 -9 24 -6z"/>
<path fill="#ffffff" stroke="none" d="M180 96 c0 -3 -4 -8 -10 -11 -5 -3 -10
-1 -10 4 0 6 5 11 10 11 6 0 10 -2 10 -4z"/>
<path fill="#000000" stroke="none" d="M140 150 c0 -5 5 -10 10 -10 6 0 10 5
10 10 0 6 -4 10 -10 10 -5 0 -10 -4 -10 -10z"/>
</g>
</svg>
