<?xml version="1.0" standalone="no"?>
<!DOCTYPE svg PUBLIC "-//W3C//DTD SVG 20010904//EN"
 "http://www.w3.org/TR/2001/REC-SVG-20010904/DTD/svg10.dtd">
<svg version="1.0" xmlns="http://www.w3.org/2000/svg"
 width="32.000000pt" height="32.000000pt" viewBox="0 0 32.000000 32.000000"
 preserveAspectRatio="xMidYMid meet">
<metadata>
Created by potrace 1.16, written by Peter Selinger 2001-2019
</metadata>
<g transform="translate(0.000000,32.000000) scale(0.100000,-0.100000)"
fill="#000000" stroke="none">
<path fill="#000000" stroke="none" d="M23 303 c-10 -3 -13 -42 -12 -146 0
-78 3 -136 7 -130 4 6 7 67 7 135 l0 125 44 2 c25 1 49 5 55 8 5 4 7 -1 2 -12
-6 -16 -4 -16 10 -4 11 9 39 13 90 11 42 -2 74 1 74 6 0 10 -252 14 -277 5z"/>
</g>
</svg>
