<?xml version="1.0" standalone="no"?>
<!DOCTYPE svg PUBLIC "-//W3C//DTD SVG 20010904//EN"
 "http://www.w3.org/TR/2001/REC-SVG-20010904/DTD/svg10.dtd">
<svg version="1.0" xmlns="http://www.w3.org/2000/svg"
 width="32.000000pt" height="32.000000pt" viewBox="0 0 32.000000 32.000000"
 preserveAspectRatio="xMidYMid meet">
<metadata>
Created by potrace 1.16, written by Peter Selinger 2001-2019
</metadata>
<g transform="translate(0.000000,32.000000) scale(0.100000,-0.100000)"
fill="#000000" stroke="none">
<path fill="#000000" stroke="none" d="M2 158 l2 -163 3 157 4 157 157 4 157
3 -162 2 -163 2 2 -162z"/>
<path fill="#000000" stroke="none" d="M307 292 c-5 -7 -14 -9 -20 -6 -8 5 -8
3 1 -7 6 -7 12 -36 12 -63 0 -39 -3 -48 -11 -36 -9 12 -9 11 -3 -5 4 -11 8
-50 10 -87 l3 -67 -30 1 c-16 1 -29 5 -29 10 0 4 -9 3 -20 -4 -17 -11 -22 -10
-30 2 -5 8 -10 10 -10 4 0 -12 -58 -13 -77 -1 -6 4 -14 3 -18 -3 -3 -5 -11
-10 -16 -10 -6 0 -7 5 -3 11 3 6 -6 3 -22 -7 l-28 -19 148 -3 c82 -1 151 -1
153 1 2 2 2 71 1 153 -2 82 -7 143 -11 136z"/>
<path fill="#000000" stroke="none" d="M181 274 c-19 -14 -25 -14 -32 -3 -5 8
-9 9 -9 4 0 -6 -13 -11 -30 -11 -16 -1 -30 3 -30 8 0 6 -7 5 -15 -2 -10 -8
-13 -21 -9 -33 4 -12 2 -17 -4 -13 -5 3 -13 -1 -16 -10 -4 -11 -2 -15 8 -11 7
3 13 0 13 -6 0 -7 1 -39 1 -72 3 -83 23 -58 25 29 0 37 5 70 10 73 4 3 38 7
74 9 74 4 113 24 48 24 -36 0 -38 1 -19 15 26 20 14 19 -15 -1z"/>
<path fill="#000000" stroke="none" d="M273 125 c0 -8 4 -12 9 -9 5 3 6 10 3
15 -9 13 -12 11 -12 -6z"/>
</g>
</svg>
