<?xml version="1.0" standalone="no"?>
<!DOCTYPE svg PUBLIC "-//W3C//DTD SVG 20010904//EN"
 "http://www.w3.org/TR/2001/REC-SVG-20010904/DTD/svg10.dtd">
<svg version="1.0" xmlns="http://www.w3.org/2000/svg"
 width="32.000000pt" height="32.000000pt" viewBox="0 0 32.000000 32.000000"
 preserveAspectRatio="xMidYMid meet">
<metadata>
Created by potrace 1.16, written by Peter Selinger 2001-2019
</metadata>
<g transform="translate(0.000000,32.000000) scale(0.100000,-0.100000)"
fill="#000000" stroke="none">
<path fill="#000000" stroke="none" d="M204 225 c-3 -8 -4 -20 -2 -27 3 -7 7
-1 10 15 6 29 1 36 -8 12z"/>
<path fill="#000000" stroke="none" d="M118 193 c5 -21 7 -23 10 -9 2 10 0 22
-6 28 -6 6 -7 0 -4 -19z"/>
<path fill="#000000" stroke="none" d="M210 111 c0 -11 4 -22 9 -25 4 -3 6 6
3 19 -5 30 -12 33 -12 6z"/>
<path fill="#000000" stroke="none" d="M128 87 c-3 -19 -2 -25 4 -19 6 6 8 18
6 28 -3 14 -5 12 -10 -9z"/>
</g>
</svg>
