<?xml version="1.0" standalone="no"?>
<!DOCTYPE svg PUBLIC "-//W3C//DTD SVG 20010904//EN"
 "http://www.w3.org/TR/2001/REC-SVG-20010904/DTD/svg10.dtd">
<svg version="1.0" xmlns="http://www.w3.org/2000/svg"
 width="32.000000pt" height="32.000000pt" viewBox="0 0 32.000000 32.000000"
 preserveAspectRatio="xMidYMid meet">
<metadata>
Created by potrace 1.16, written by Peter Selinger 2001-2019
</metadata>
<g transform="translate(0.000000,32.000000) scale(0.100000,-0.100000)"
fill="#000000" stroke="none">
<path fill="#000000" stroke="none" d="M10 154 l0 -155 32 22 c17 13 28 18 24
11 -4 -7 -3 -12 3 -12 5 0 13 5 16 10 4 6 11 7 18 3 19 -11 111 -12 124 -1 9
7 13 7 13 -1 0 -6 5 -11 11 -11 5 0 7 6 3 13 -6 9 -4 9 7 0 7 -7 19 -13 26
-13 17 0 17 42 1 59 -10 11 -10 14 0 18 14 5 17 99 3 107 -5 4 -8 -2 -7 -11 2
-10 1 -12 -1 -5 -3 6 -9 12 -14 12 -5 0 -4 6 3 14 7 8 16 12 21 9 12 -7 8 42
-5 56 -8 8 -8 11 -2 8 7 -4 17 0 24 8 11 13 4 15 -50 15 -51 0 -61 -3 -57 -15
4 -8 1 -17 -5 -21 -7 -4 -8 -3 -4 4 9 15 -9 15 -36 1 -18 -9 -19 -8 -13 10 6
20 3 21 -64 21 l-71 0 0 -156z"/>
<path fill="#ffffff" stroke="none" d="M163 262 c42 1 79 -1 82 -3 2 -3 -4
-13 -15 -22 -11 -9 -22 -12 -25 -7 -8 13 -45 13 -45 1 0 -5 14 -19 30 -31 17
-12 29 -17 28 -12 -2 6 2 10 7 11 6 1 10 -24 10 -56 l0 -58 -32 -3 c-24 -2
-33 1 -33 12 0 8 4 17 9 21 16 10 8 49 -16 78 -13 16 -21 33 -17 38 3 5 0 9
-5 9 -6 0 -11 -4 -11 -8 0 -5 -10 -8 -22 -8 -21 1 -23 -4 -25 -68 -2 -72 -23
-121 -23 -55 l-1 34 -14 -25 -14 -25 -1 28 c0 16 6 30 16 34 12 4 15 17 12 57
-3 52 8 88 21 67 4 -6 38 -10 84 -9z"/>
<path fill="#ffffff" stroke="none" d="M47 208 c-3 -8 -6 -5 -6 6 -1 11 2 17
5 13 3 -3 4 -12 1 -19z"/>
<path fill="#ffffff" stroke="none" d="M285 131 c3 -5 2 -12 -3 -15 -5 -3 -9
1 -9 9 0 17 3 19 12 6z"/>
</g>
</svg>
