<?xml version="1.0" standalone="no"?>
<!DOCTYPE svg PUBLIC "-//W3C//DTD SVG 20010904//EN"
 "http://www.w3.org/TR/2001/REC-SVG-20010904/DTD/svg10.dtd">
<svg version="1.0" xmlns="http://www.w3.org/2000/svg"
 width="32.000000pt" height="32.000000pt" viewBox="0 0 32.000000 32.000000"
 preserveAspectRatio="xMidYMid meet">
<metadata>
Created by potrace 1.16, written by Peter Selinger 2001-2019
</metadata>
<g transform="translate(0.000000,32.000000) scale(0.100000,-0.100000)"
fill="#000000" stroke="none">
<path fill="#000000" stroke="none" d="M2 158 c1 -90 3 -135 5 -100 4 59 6 63
26 60 12 -2 20 -7 19 -12 -2 -5 2 -12 9 -17 8 -4 10 -11 6 -15 -10 -10 -38 16
-30 30 4 7 1 7 -7 -1 -17 -15 1 -40 33 -46 13 -3 10 -3 -6 -2 -15 1 -30 -2
-33 -7 -3 -4 2 -8 10 -8 9 0 16 -4 16 -10 0 -5 -7 -10 -15 -10 -8 0 -15 -4
-15 -10 0 -6 57 -10 150 -10 l150 0 0 151 c0 120 -3 149 -12 142 -7 -5 -20 -9
-28 -8 -8 1 -26 3 -40 3 -39 3 -10 20 40 25 25 2 -28 4 -117 5 l-163 2 2 -162z"/>
<path fill="#ffffff" stroke="none" d="M150 301 c0 -4 -17 -7 -38 -5 -37 2
-38 1 -35 -29 l4 -32 -15 25 c-14 24 -14 23 -11 -25 2 -42 5 -49 21 -47 16 3
16 2 4 -13 -7 -9 -19 -14 -26 -11 -7 3 -16 0 -20 -6 -4 -6 -3 -8 4 -4 6 3 13
2 17 -4 3 -5 2 -10 -4 -10 -5 0 -16 -3 -25 -6 -14 -5 -16 6 -16 84 l0 90 70 0
c39 0 70 -3 70 -7z"/>
<path fill="#ffffff" stroke="none" d="M129 251 c6 -10 7 -21 4 -25 -3 -3 1
-6 10 -6 10 0 17 -4 17 -10 0 -5 5 -10 11 -10 6 0 9 9 6 19 -2 10 0 25 5 32 8
11 9 11 5 -1 -2 -8 3 -23 12 -33 8 -10 11 -18 6 -17 -20 4 -29 -1 -17 -9 11
-7 10 -9 -3 -14 -9 -4 -13 -3 -10 3 3 6 1 10 -4 10 -14 0 -14 -17 -1 -25 8 -5
7 -11 -1 -21 -10 -13 -8 -13 15 -5 14 6 26 9 27 8 0 -1 2 -10 4 -21 3 -14 1
-16 -8 -7 -15 15 -37 14 -37 -3 0 -9 -7 -12 -20 -9 -16 4 -17 7 -6 19 9 8 12
23 8 36 l-7 23 -3 -22 c-6 -37 -26 -46 -53 -23 -27 22 -19 26 14 9 22 -12 22
-12 3 10 -11 11 -15 21 -11 21 5 0 -2 11 -15 25 l-23 25 26 -13 c14 -6 23 -15
21 -19 -5 -8 15 -22 22 -15 6 6 -15 48 -23 45 -3 -2 -7 7 -8 20 -2 27 20 29
34 3z"/>
<path fill="#ffffff" stroke="none" d="M289 226 c9 -11 9 -16 0 -22 -8 -4 -9
-3 -5 4 4 7 1 12 -9 12 -9 0 -13 -4 -10 -10 3 -5 0 -7 -8 -4 -20 7 -17 34 3
34 10 0 23 -6 29 -14z"/>
<path fill="#ffffff" stroke="none" d="M243 169 c-4 -13 1 -16 21 -14 14 2 28
0 31 -5 3 -4 -11 -10 -30 -12 -27 -3 -35 0 -35 12 0 9 -5 21 -11 27 -9 9 -7
12 8 10 13 -1 19 -7 16 -18z"/>
<path fill="#ffffff" stroke="none" d="M255 111 c-3 -6 -11 -8 -17 -5 -6 4 -5
9 3 15 16 10 23 4 14 -10z"/>
<path fill="#ffffff" stroke="none" d="M296 105 c-6 -18 -26 -11 -26 8 0 7 4
6 10 -3 8 -13 10 -12 10 4 0 11 3 17 6 13 4 -3 4 -13 0 -22z"/>
<path fill="#ffffff" stroke="none" d="M206 85 c-3 -9 0 -15 8 -15 8 0 16 -7
20 -15 5 -13 2 -14 -17 -4 -12 6 -23 13 -25 14 -4 3 9 35 15 35 3 0 3 -7 -1
-15z"/>
<path fill="#ffffff" stroke="none" d="M292 69 c2 -2 1 -3 -1 -2 -2 1 -12 -8
-22 -20 -17 -21 -17 -21 -14 -2 2 11 4 23 4 27 1 7 29 5 33 -3z"/>
<path fill="#ffffff" stroke="none" d="M150 60 c0 -5 -2 -10 -4 -10 -3 0 -8 5
-11 10 -3 6 -1 10 4 10 6 0 11 -4 11 -10z"/>
<path fill="#000000" stroke="none" d="M25 287 c-4 -10 -5 -21 -1 -24 10 -10
18 4 13 24 -4 17 -4 17 -12 0z"/>
<path fill="#000000" stroke="none" d="M106 243 c-6 -14 -5 -15 5 -6 7 7 10
15 7 18 -3 3 -9 -2 -12 -12z"/>
</g>
</svg>
