<?xml version="1.0" standalone="no"?>
<!DOCTYPE svg PUBLIC "-//W3C//DTD SVG 20010904//EN"
 "http://www.w3.org/TR/2001/REC-SVG-20010904/DTD/svg10.dtd">
<svg version="1.0" xmlns="http://www.w3.org/2000/svg"
 width="32.000000pt" height="32.000000pt" viewBox="0 0 32.000000 32.000000"
 preserveAspectRatio="xMidYMid meet">
<metadata>
Created by potrace 1.16, written by Peter Selinger 2001-2019
</metadata>
<g transform="translate(0.000000,32.000000) scale(0.100000,-0.100000)"
fill="#000000" stroke="none">
<path fill="#000000" stroke="none" d="M0 161 l0 -159 25 11 c14 7 25 18 25
25 0 6 5 12 11 12 5 0 7 -6 3 -12 -5 -8 -1 -7 10 2 23 18 40 20 75 10 26 -7
28 -5 29 16 0 13 -4 24 -9 24 -5 0 -9 -6 -9 -14 0 -14 -22 -12 -105 10 -20 5
-20 5 -1 -10 25 -20 6 -21 -20 -1 -12 9 -14 14 -6 15 7 0 10 4 7 10 -4 6 1 7
12 4 16 -5 16 -4 2 8 -11 8 -15 26 -14 48 4 52 4 52 18 45 6 -4 4 0 -5 7 -11
10 -14 19 -7 29 13 20 11 31 -3 23 -9 -5 -9 -3 1 9 18 23 32 12 21 -17 -5 -13
-6 -27 -2 -30 3 -4 11 8 16 26 8 22 18 34 34 36 23 4 31 -13 9 -21 -8 -4 -7
-6 3 -7 8 0 25 -9 38 -19 24 -21 25 -62 2 -69 -9 -3 -11 3 -8 22 4 17 1 25 -6
23 -6 -2 -10 -12 -10 -21 1 -12 -3 -15 -16 -11 -10 3 -21 1 -25 -4 -3 -6 -14
-7 -29 -1 -17 6 -23 5 -23 -6 0 -10 7 -12 20 -8 13 4 17 2 13 -5 -4 -6 -2 -11
3 -11 6 0 11 -7 11 -15 0 -8 8 -15 18 -15 26 0 34 -11 21 -27 -7 -8 -8 -13 -1
-13 5 0 13 7 16 16 3 8 10 12 16 9 5 -3 10 1 10 9 0 17 41 16 63 -2 16 -13 27
-6 27 17 0 13 -2 13 -9 2 -6 -9 -8 -6 -8 12 -1 23 1 24 14 11 8 -7 22 -14 31
-14 24 0 -37 49 -61 50 -14 0 -16 -4 -7 -19 14 -28 14 -28 -27 -29 -20 -1 -40
-7 -45 -14 -6 -10 -8 -10 -8 0 0 6 -9 12 -20 12 -11 0 -20 5 -20 11 0 5 5 7
10 4 6 -4 17 -1 25 5 11 9 15 9 15 1 0 -6 7 -11 16 -11 8 0 12 5 9 10 -3 6 0
13 8 16 12 4 13 13 7 35 -5 17 -5 31 1 34 5 4 9 11 9 18 0 6 -6 2 -14 -8 -13
-18 -15 -18 -30 -2 -10 9 -14 22 -10 28 4 8 9 7 15 -2 5 -8 9 -9 9 -4 0 6 28
11 65 12 36 1 69 5 75 8 31 19 -4 25 -150 25 l-160 0 0 -159z"/>
<path fill="#ffffff" stroke="none" d="M37 38 c-3 -8 -6 -5 -6 6 -1 11 2 17 5
13 3 -3 4 -12 1 -19z"/>
<path fill="#000000" stroke="none" d="M280 270 c0 -5 5 -10 11 -10 5 0 7 5 4
10 -3 6 -8 10 -11 10 -2 0 -4 -4 -4 -10z"/>
<path fill="#000000" stroke="none" d="M120 234 c0 -8 5 -12 10 -9 6 4 8 11 5
16 -9 14 -15 11 -15 -7z"/>
<path fill="#000000" stroke="none" d="M261 243 c-26 -3 -31 -7 -20 -14 11 -7
9 -9 -8 -9 -12 0 -24 -4 -27 -9 -3 -5 8 -7 24 -6 19 2 34 -3 39 -12 7 -13 9
-12 16 3 8 20 17 55 12 52 -1 0 -17 -3 -36 -5z"/>
<path fill="#ffffff" stroke="none" d="M284 209 c-3 -5 -10 -7 -15 -3 -5 3 -7
10 -3 15 3 5 10 7 15 3 5 -3 7 -10 3 -15z"/>
<path fill="#000000" stroke="none" d="M80 216 c0 -2 7 -7 16 -10 8 -3 12 -2
9 4 -6 10 -25 14 -25 6z"/>
<path fill="#000000" stroke="none" d="M290 114 c0 -16 -2 -17 -11 -4 -8 12
-10 12 -7 1 2 -8 14 -15 26 -16 18 -1 20 1 10 14 -7 9 -14 18 -15 20 -2 2 -3
-4 -3 -15z"/>
<path fill="#000000" stroke="none" d="M225 96 c10 -14 21 -26 26 -26 4 0 6
-9 4 -20 -4 -19 -2 -19 17 -6 11 8 28 12 37 9 11 -4 13 -3 6 5 -5 6 -17 12
-25 14 -8 2 -30 14 -49 27 l-33 24 17 -27z"/>
<path fill="#000000" stroke="none" d="M70 105 c0 -2 10 -10 23 -16 20 -11 21
-11 8 4 -13 16 -31 23 -31 12z"/>
<path fill="#000000" stroke="none" d="M196 83 c-7 -18 12 -35 29 -25 6 4 3 8
-7 10 -10 2 -15 9 -11 18 3 8 3 14 0 14 -3 0 -8 -8 -11 -17z"/>
<path fill="#000000" stroke="none" d="M225 39 c-4 -6 -14 -8 -24 -4 -11 4
-13 3 -5 -5 12 -12 44 -4 44 11 0 12 -7 11 -15 -2z"/>
<path fill="#000000" stroke="none" d="M300 30 c-9 -6 -10 -10 -3 -10 6 0 15
5 18 10 8 12 4 12 -15 0z"/>
</g>
</svg>
