<?xml version="1.0" standalone="no"?>
<!DOCTYPE svg PUBLIC "-//W3C//DTD SVG 20010904//EN"
 "http://www.w3.org/TR/2001/REC-SVG-20010904/DTD/svg10.dtd">
<svg version="1.0" xmlns="http://www.w3.org/2000/svg"
 width="32.000000pt" height="32.000000pt" viewBox="0 0 32.000000 32.000000"
 preserveAspectRatio="xMidYMid meet">
<metadata>
Created by potrace 1.16, written by Peter Selinger 2001-2019
</metadata>
<g transform="translate(0.000000,32.000000) scale(0.100000,-0.100000)"
fill="#000000" stroke="none">
<path fill="#000000" stroke="none" d="M2 158 l2 -163 3 157 4 157 157 4 157
3 -162 2 -163 2 2 -162z"/>
<path fill="#000000" stroke="none" d="M305 290 c-4 -6 -12 -7 -18 -4 -8 5 -8
3 1 -7 13 -14 17 -89 4 -89 -4 0 -13 5 -20 12 -19 19 -14 -2 8 -29 24 -30 25
-68 4 -103 -11 -18 -14 -20 -10 -5 6 20 6 20 -9 1 -8 -11 -15 -23 -15 -28 0
-4 -3 -7 -7 -6 -5 0 -16 -2 -27 -7 -12 -5 -21 -3 -27 6 -5 8 -9 9 -9 3 0 -12
-58 -13 -77 -1 -6 4 -15 2 -18 -4 -4 -5 -13 -8 -20 -5 -7 2 -21 -2 -32 -9 -16
-13 2 -14 135 -15 l152 0 0 150 c0 83 -2 150 -4 150 -3 0 -8 -5 -11 -10z"/>
<path fill="#000000" stroke="none" d="M185 277 c-25 -14 -105 -18 -105 -4 0
5 -6 4 -14 -3 -8 -6 -12 -19 -9 -27 4 -11 2 -14 -5 -9 -8 5 -12 0 -12 -13 0
-12 4 -21 10 -21 5 0 8 -29 6 -67 -2 -38 0 -76 3 -86 6 -16 11 -12 39 22 35
43 39 53 20 50 -30 -4 -38 3 -38 31 0 32 14 40 24 15 3 -8 12 -15 20 -15 8 0
16 -5 18 -12 3 -7 7 -6 11 5 4 11 1 17 -8 17 -20 0 -67 52 -56 63 4 4 38 9 75
11 37 2 72 8 78 14 9 9 8 12 -5 12 -9 0 -20 6 -24 14 -6 12 -12 12 -28 3z"/>
<path fill="#000000" stroke="none" d="M187 190 c3 -11 9 -17 14 -15 10 7 1
35 -11 35 -5 0 -6 -9 -3 -20z"/>
<path fill="#000000" stroke="none" d="M195 129 c-4 -6 -5 -12 -2 -15 2 -3 7
2 10 11 7 17 1 20 -8 4z"/>
<path fill="#000000" stroke="none" d="M273 125 c0 -8 4 -12 9 -9 5 3 6 10 3
15 -9 13 -12 11 -12 -6z"/>
</g>
</svg>
