<?xml version="1.0" standalone="no"?>
<!DOCTYPE svg PUBLIC "-//W3C//DTD SVG 20010904//EN"
 "http://www.w3.org/TR/2001/REC-SVG-20010904/DTD/svg10.dtd">
<svg version="1.0" xmlns="http://www.w3.org/2000/svg"
 width="32.000000pt" height="32.000000pt" viewBox="0 0 32.000000 32.000000"
 preserveAspectRatio="xMidYMid meet">
<metadata>
Created by potrace 1.16, written by Peter Selinger 2001-2019
</metadata>
<g transform="translate(0.000000,32.000000) scale(0.100000,-0.100000)"
fill="#000000" stroke="none">
<path fill="#000000" stroke="none" d="M10 159 c0 -121 3 -147 14 -143 9 3 11
14 7 35 -3 17 -4 62 -1 100 3 38 1 69 -4 69 -4 0 -3 6 3 13 6 8 8 17 4 21 -20
20 -8 33 35 35 25 1 49 4 54 7 4 3 8 0 8 -6 0 -6 5 -8 13 -3 6 4 44 6 84 5 39
-2 74 1 77 6 4 6 -52 10 -144 10 l-150 0 0 -149z"/>
<path fill="#000000" stroke="none" d="M135 211 c-19 -8 -19 -8 2 -22 19 -11
20 -15 8 -29 -11 -13 -11 -18 5 -38 11 -13 20 -22 22 -21 2 2 16 -5 31 -15 41
-27 41 -15 1 21 -35 31 -38 33 -50 33 -3 0 4 8 17 19 l23 18 -22 12 c-13 7
-20 16 -17 22 7 10 7 10 -20 0z"/>
<path fill="#000000" stroke="none" d="M50 169 c0 -5 5 -7 10 -4 6 3 10 8 10
11 0 2 -4 4 -10 4 -5 0 -10 -5 -10 -11z"/>
</g>
</svg>
