<?xml version="1.0" standalone="no"?>
<!DOCTYPE svg PUBLIC "-//W3C//DTD SVG 20010904//EN"
 "http://www.w3.org/TR/2001/REC-SVG-20010904/DTD/svg10.dtd">
<svg version="1.0" xmlns="http://www.w3.org/2000/svg"
 width="32.000000pt" height="32.000000pt" viewBox="0 0 32.000000 32.000000"
 preserveAspectRatio="xMidYMid meet">
<metadata>
Created by potrace 1.16, written by Peter Selinger 2001-2019
</metadata>
<g transform="translate(0.000000,32.000000) scale(0.100000,-0.100000)"
fill="#000000" stroke="none">
<path fill="#000000" stroke="none" d="M10 157 l0 -154 28 -1 c30 -1 41 25 18
41 -6 4 3 5 19 1 25 -5 28 -4 18 7 -14 14 -19 58 -5 45 4 -4 7 -12 7 -18 0
-14 63 -39 70 -27 4 5 2 9 -3 9 -5 0 -12 11 -14 25 -6 27 -1 30 22 15 10 -6
11 -10 3 -10 -7 0 -13 -5 -13 -11 0 -6 6 -9 14 -6 8 3 17 -1 20 -9 3 -8 13
-14 23 -14 16 -1 16 -2 -2 -16 -20 -16 -20 -16 3 -9 13 4 29 2 37 -5 11 -10
15 -7 21 14 8 32 27 35 22 4 -1 -13 2 -25 6 -28 5 -3 11 12 12 33 3 28 0 36
-9 31 -9 -5 -9 -4 1 7 13 14 17 53 4 45 -5 -3 -9 1 -9 9 0 8 4 12 9 9 4 -3 3
6 -3 20 -7 14 -19 27 -28 30 -9 3 -4 4 10 2 25 -3 27 0 27 35 1 21 -2 38 -6
36 -4 -1 -7 3 -7 8 0 5 3 9 8 8 4 -2 7 4 7 12 0 13 -24 15 -155 15 l-155 0 0
-153z"/>
<path fill="#ffffff" stroke="none" d="M170 279 c0 8 2 12 5 9 3 -3 1 -17 -4
-30 -7 -18 -6 -29 2 -37 7 -7 7 -11 1 -11 -6 0 -19 9 -28 19 -15 16 -15 23 -6
42 10 17 14 19 21 8 7 -12 9 -12 9 0z"/>
<path fill="#ffffff" stroke="none" d="M225 279 c-3 -3 2 -12 10 -19 10 -8 12
-17 6 -28 -6 -11 -4 -20 7 -29 10 -7 12 -12 5 -13 -6 0 -15 5 -18 10 -4 6 -10
8 -14 5 -5 -2 -17 5 -27 17 -19 20 -19 21 4 13 23 -7 23 -6 8 17 -9 14 -14 27
-11 30 8 7 35 6 30 -3z"/>
<path fill="#ffffff" stroke="none" d="M280 274 c0 -2 -9 -4 -20 -4 -11 0 -20
4 -20 9 0 5 9 7 20 4 11 -3 20 -7 20 -9z"/>
<path fill="#ffffff" stroke="none" d="M285 250 c3 -5 1 -10 -4 -10 -6 0 -11
5 -11 10 0 6 2 10 4 10 3 0 8 -4 11 -10z"/>
<path fill="#ffffff" stroke="none" d="M114 109 c16 -14 15 -39 0 -39 -9 0
-13 4 -10 9 4 5 -6 19 -21 31 l-28 21 25 -7 c14 -3 29 -10 34 -15z"/>
<path fill="#ffffff" stroke="none" d="M259 71 c-1 -13 -2 -13 -6 2 -2 9 -9
17 -14 17 -5 0 -9 5 -9 11 0 8 5 8 15 -1 8 -7 14 -20 14 -29z"/>
<path fill="#ffffff" stroke="none" d="M50 69 c0 -6 -4 -7 -10 -4 -5 3 -10 11
-10 16 0 6 5 7 10 4 6 -3 10 -11 10 -16z"/>
<path fill="#000000" stroke="none" d="M140 250 c0 -5 5 -10 10 -10 6 0 10 5
10 10 0 6 -4 10 -10 10 -5 0 -10 -4 -10 -10z"/>
</g>
</svg>
