<?xml version="1.0" standalone="no"?>
<!DOCTYPE svg PUBLIC "-//W3C//DTD SVG 20010904//EN"
 "http://www.w3.org/TR/2001/REC-SVG-20010904/DTD/svg10.dtd">
<svg version="1.0" xmlns="http://www.w3.org/2000/svg"
 width="32.000000pt" height="32.000000pt" viewBox="0 0 32.000000 32.000000"
 preserveAspectRatio="xMidYMid meet">
<metadata>
Created by potrace 1.16, written by Peter Selinger 2001-2019
</metadata>
<g transform="translate(0.000000,32.000000) scale(0.100000,-0.100000)"
fill="#000000" stroke="none">
<path fill="#000000" stroke="none" d="M0 160 l0 -160 160 0 160 0 0 160 0
160 -160 0 -160 0 0 -160z"/>
<path fill="#ffffff" stroke="none" d="M304 299 c-3 -5 -49 -9 -102 -9 -53 0
-115 1 -138 1 l-40 0 2 -135 c2 -75 -1 -138 -6 -141 -5 -3 -9 60 -9 144 l-1
149 150 0 c88 0 147 -4 144 -9z"/>
<path fill="#ffffff" stroke="none" d="M63 255 c-3 -9 -8 -14 -10 -11 -3 3 -2
9 2 15 9 16 15 13 8 -4z"/>
<path fill="#ffffff" stroke="none" d="M160 255 c-10 -12 -9 -16 4 -21 13 -5
14 -9 4 -21 -9 -11 -9 -19 0 -34 14 -21 0 -26 -16 -6 -17 20 -5 97 15 97 3 0
0 -7 -7 -15z"/>
<path fill="#ffffff" stroke="none" d="M120 135 c-10 -12 -10 -18 0 -30 7 -8
8 -15 2 -15 -5 0 -15 7 -22 15 -10 12 -10 18 0 30 7 8 17 15 22 15 6 0 5 -7
-2 -15z"/>
<path fill="#ffffff" stroke="none" d="M230 135 c-10 -12 -10 -18 0 -30 7 -8
8 -15 2 -15 -5 0 -15 7 -22 15 -10 12 -10 18 0 30 7 8 17 15 22 15 6 0 5 -7
-2 -15z"/>
</g>
</svg>
