<?xml version="1.0" standalone="no"?>
<!DOCTYPE svg PUBLIC "-//W3C//DTD SVG 20010904//EN"
 "http://www.w3.org/TR/2001/REC-SVG-20010904/DTD/svg10.dtd">
<svg version="1.0" xmlns="http://www.w3.org/2000/svg"
 width="32.000000pt" height="32.000000pt" viewBox="0 0 32.000000 32.000000"
 preserveAspectRatio="xMidYMid meet">
<metadata>
Created by potrace 1.16, written by Peter Selinger 2001-2019
</metadata>
<g transform="translate(0.000000,32.000000) scale(0.100000,-0.100000)"
fill="#000000" stroke="none">
<path fill="#000000" stroke="none" d="M309 295 c-3 -2 -40 -6 -82 -7 -63 -2
-78 -6 -83 -20 -3 -10 -10 -18 -15 -18 -6 0 -8 -9 -4 -20 3 -11 2 -28 -4 -37
-6 -10 -11 -14 -11 -9 0 5 -7 3 -15 -4 -8 -7 -12 -16 -9 -21 3 -5 -8 -14 -24
-20 -19 -7 -32 -19 -35 -34 -2 -14 0 -22 4 -19 11 7 -1 -57 -14 -74 -7 -9 23
-12 147 -12 l156 0 0 25 c0 14 -4 25 -10 25 -5 0 -10 5 -10 11 0 5 5 7 10 4
14 -9 12 18 -2 34 -9 10 -10 12 -1 7 9 -5 12 19 12 94 0 97 -1 105 -10 95z"/>
<path fill="#ffffff" stroke="none" d="M275 270 c4 -6 10 -8 15 -5 5 3 12 0
16 -6 5 -9 -1 -10 -20 -5 -15 4 -26 2 -26 -4 0 -5 5 -10 10 -10 7 0 7 -6 0
-20 -6 -11 -16 -20 -22 -20 -7 0 -6 5 2 15 9 11 9 15 1 15 -7 0 -9 5 -6 10 13
21 -11 8 -28 -15 -16 -22 -16 -25 -2 -25 9 0 13 -5 10 -10 -4 -6 -11 -7 -17
-4 -6 4 -8 2 -4 -4 3 -6 1 -14 -5 -18 -8 -4 -9 -3 -5 4 4 7 3 12 -3 12 -6 0
-8 6 -5 14 6 17 -12 31 -21 16 -3 -5 -1 -18 4 -29 8 -15 7 -20 -5 -25 -9 -3
-14 -13 -10 -21 3 -8 1 -17 -5 -20 -5 -4 -7 -11 -4 -16 7 -11 55 19 54 35 0 7
-2 6 -6 -1 -7 -18 -20 -16 -20 3 0 10 7 14 20 10 10 -2 31 0 45 5 21 8 23 7
13 -5 -9 -11 -8 -15 5 -20 9 -3 21 -3 27 0 9 5 9 4 1 -5 -9 -10 -17 -10 -32
-2 -26 14 -32 14 -32 1 0 -5 6 -10 13 -10 8 0 14 -6 15 -12 0 -7 4 -23 7 -35
5 -15 3 -23 -4 -23 -6 0 -10 3 -10 8 4 24 -3 42 -16 42 -8 0 -15 5 -15 10 0
15 -16 12 -35 -6 -9 -9 -12 -21 -8 -28 4 -7 1 -4 -9 6 -18 20 -38 24 -38 7 0
-5 5 -7 10 -4 16 10 12 -11 -5 -25 -8 -7 -12 -17 -8 -23 3 -6 1 -7 -5 -3 -7 4
-12 14 -12 22 0 8 -5 12 -10 9 -6 -3 -13 1 -16 9 -3 9 -10 13 -15 10 -5 -3 -7
-9 -4 -14 3 -5 1 -11 -4 -14 -11 -7 -9 13 3 33 5 8 3 16 -5 22 -9 6 -10 9 -2
9 6 0 15 -5 18 -11 4 -6 13 -8 21 -5 8 3 14 0 14 -6 0 -6 3 -8 6 -5 4 4 1 13
-5 21 -10 12 -9 20 4 40 10 14 23 26 29 26 7 0 10 14 8 38 -1 20 2 44 7 52 14
20 25 6 13 -17 -9 -16 -7 -19 16 -18 22 0 27 5 26 23 -1 17 2 20 11 12 10 -8
17 -7 27 4 16 18 25 20 33 6z"/>
<path fill="#ffffff" stroke="none" d="M300 186 c0 -2 -9 -6 -20 -9 -11 -3
-18 -1 -14 4 5 9 34 13 34 5z"/>
<path fill="#ffffff" stroke="none" d="M218 50 c-9 -14 -14 -16 -20 -7 -4 7
-8 17 -8 22 0 6 5 3 10 -5 8 -13 10 -12 10 3 0 10 4 15 10 12 6 -4 5 -13 -2
-25z"/>
<path fill="#ffffff" stroke="none" d="M285 30 c-3 -5 -11 -10 -16 -10 -6 0
-7 5 -4 10 3 6 11 10 16 10 6 0 7 -4 4 -10z"/>
<path fill="#000000" stroke="none" d="M121 136 c-11 -13 -11 -20 -3 -28 8 -8
13 -7 18 5 10 27 0 41 -15 23z"/>
<path fill="#000000" stroke="none" d="M105 60 c3 -5 8 -10 11 -10 2 0 4 5 4
10 0 6 -5 10 -11 10 -5 0 -7 -4 -4 -10z"/>
<path fill="#000000" stroke="none" d="M30 255 c0 -20 6 -35 15 -39 8 -3 15
-1 15 3 0 12 43 1 52 -13 5 -7 8 -6 8 4 -1 8 -12 23 -25 33 -14 10 -25 13 -25
7 0 -5 -7 -10 -15 -10 -12 0 -13 4 -4 19 11 17 50 19 47 2 -2 -18 4 -19 22 -4
11 10 20 20 20 23 0 3 -25 6 -55 7 l-55 1 0 -33z"/>
<path fill="#000000" stroke="none" d="M30 186 c0 -15 3 -17 9 -8 7 11 9 11
14 -2 4 -10 1 -16 -8 -16 -8 0 -15 -4 -15 -9 0 -4 11 -6 25 -3 20 3 23 8 15
22 -7 13 -6 17 3 16 6 0 14 3 17 8 3 5 -10 10 -27 11 -28 2 -33 -1 -33 -19z"/>
</g>
</svg>
