<?xml version="1.0" standalone="no"?>
<!DOCTYPE svg PUBLIC "-//W3C//DTD SVG 20010904//EN"
 "http://www.w3.org/TR/2001/REC-SVG-20010904/DTD/svg10.dtd">
<svg version="1.0" xmlns="http://www.w3.org/2000/svg"
 width="32.000000pt" height="32.000000pt" viewBox="0 0 32.000000 32.000000"
 preserveAspectRatio="xMidYMid meet">
<metadata>
Created by potrace 1.16, written by Peter Selinger 2001-2019
</metadata>
<g transform="translate(0.000000,32.000000) scale(0.100000,-0.100000)"
fill="#000000" stroke="none">
<path fill="#000000" stroke="none" d="M1 288 c0 -18 3 -26 6 -18 12 30 37 37
120 35 46 -1 83 2 83 7 0 4 -47 8 -105 8 l-105 0 1 -32z"/>
<path fill="#000000" stroke="none" d="M287 305 c12 -8 24 -25 26 -38 3 -13 5
-8 6 16 1 34 -1 37 -26 37 -27 0 -27 0 -6 -15z"/>
<path fill="#000000" stroke="none" d="M49 203 c-3 -135 -2 -156 12 -147 8 4
9 37 4 104 -7 98 -7 98 16 103 22 4 22 4 -3 6 -28 1 -28 0 -29 -66z"/>
<path fill="#000000" stroke="none" d="M137 263 c18 -2 50 -2 70 0 21 2 7 4
-32 4 -38 0 -55 -2 -38 -4z"/>
<path fill="#000000" stroke="none" d="M1 128 l-1 -128 160 0 160 0 0 28 c-1
25 -2 26 -15 8 -10 -13 -30 -19 -74 -21 -36 -2 -59 1 -55 6 3 5 9 7 14 4 4 -3
10 2 14 10 8 21 -10 19 -34 -5 -14 -14 -28 -18 -45 -14 -14 3 -23 10 -20 14 3
4 -4 10 -15 13 -11 3 -20 1 -20 -4 0 -5 5 -9 11 -9 5 0 7 -4 4 -10 -10 -16
-41 -12 -59 9 -14 15 -16 33 -12 94 2 42 1 89 -4 104 -6 19 -9 -14 -9 -99z"/>
<path fill="#000000" stroke="none" d="M308 223 c-2 -10 -1 -29 3 -43 6 -20 7
-17 8 18 1 44 -4 54 -11 25z"/>
<path fill="#000000" stroke="none" d="M308 118 c-3 -7 -1 -24 3 -38 6 -22 7
-20 8 13 1 38 -3 47 -11 25z"/>
</g>
</svg>
