<?xml version="1.0" standalone="no"?>
<!DOCTYPE svg PUBLIC "-//W3C//DTD SVG 20010904//EN"
 "http://www.w3.org/TR/2001/REC-SVG-20010904/DTD/svg10.dtd">
<svg version="1.0" xmlns="http://www.w3.org/2000/svg"
 width="32.000000pt" height="32.000000pt" viewBox="0 0 32.000000 32.000000"
 preserveAspectRatio="xMidYMid meet">
<metadata>
Created by potrace 1.16, written by Peter Selinger 2001-2019
</metadata>
<g transform="translate(0.000000,32.000000) scale(0.100000,-0.100000)"
fill="#000000" stroke="none">
<path fill="#000000" stroke="none" d="M10 156 l0 -154 33 2 c61 6 63 6 35 22
-35 18 -35 23 -2 16 15 -3 29 -13 31 -23 3 -10 9 -16 14 -14 4 3 6 13 3 23 -4
12 1 10 15 -7 12 -13 21 -18 21 -11 0 10 3 10 15 0 9 -7 18 -10 21 -7 13 13
-8 44 -39 58 -21 9 -33 22 -35 38 -2 15 0 21 7 16 6 -3 9 -11 6 -16 -3 -5 1
-6 10 -3 12 5 15 14 11 30 -8 31 7 31 28 -1 9 -14 23 -25 31 -25 7 0 22 -11
32 -24 19 -24 20 -24 32 -4 14 23 16 20 -26 42 -35 17 -37 24 -27 75 7 35 24
42 24 10 0 -35 19 -59 45 -57 30 3 30 3 3 41 l-22 30 22 -5 c18 -5 22 -2 22
16 0 13 -3 26 -7 30 -11 10 -12 37 -2 30 5 -3 9 2 9 10 0 14 -21 16 -155 16
l-155 0 0 -154z"/>
<path fill="#ffffff" stroke="none" d="M127 264 c-9 -9 -28 6 -21 18 4 6 10 6
17 -1 6 -6 8 -13 4 -17z"/>
<path fill="#ffffff" stroke="none" d="M253 283 c-7 -2 -21 -2 -30 0 -10 3 -4
5 12 5 17 0 24 -2 18 -5z"/>
<path fill="#ffffff" stroke="none" d="M45 271 c3 -5 2 -12 -3 -15 -5 -3 -9 1
-9 9 0 17 3 19 12 6z"/>
<path fill="#ffffff" stroke="none" d="M197 221 c-1 -14 -5 -15 -23 -7 -15 7
-19 13 -11 18 7 4 8 8 4 8 -5 0 -5 5 -2 10 10 16 34 -7 32 -29z"/>
<path fill="#ffffff" stroke="none" d="M270 249 c0 -11 -37 -12 -43 -1 -3 4 6
8 19 8 13 1 24 -2 24 -7z"/>
<path fill="#ffffff" stroke="none" d="M90 239 c0 -7 10 -9 24 -5 21 5 25 2
31 -24 4 -17 11 -28 16 -24 5 3 9 0 9 -5 0 -6 -4 -11 -8 -11 -14 0 -32 23 -32
41 0 12 -6 16 -18 12 -10 -2 -24 3 -31 11 -9 11 -10 16 -2 16 6 0 11 -5 11
-11z"/>
<path fill="#ffffff" stroke="none" d="M95 183 c7 -20 -5 -83 -16 -83 -5 0 -9
9 -9 20 0 11 4 20 9 20 15 0 9 39 -7 45 -10 3 -12 -1 -7 -18 5 -20 5 -20 -9 3
-9 14 -15 28 -16 31 0 13 49 -4 55 -18z"/>
<path fill="#ffffff" stroke="none" d="M90 68 c0 -4 -9 -8 -20 -8 -11 0 -20 4
-20 9 0 6 9 9 20 8 11 -1 20 -5 20 -9z"/>
<path fill="#000000" stroke="none" d="M274 24 c3 -9 6 -18 6 -20 0 -2 6 -4
14 -4 9 0 12 7 9 20 -3 11 -12 20 -20 20 -10 0 -13 -6 -9 -16z"/>
</g>
</svg>
