<?xml version="1.0" standalone="no"?>
<!DOCTYPE svg PUBLIC "-//W3C//DTD SVG 20010904//EN"
 "http://www.w3.org/TR/2001/REC-SVG-20010904/DTD/svg10.dtd">
<svg version="1.0" xmlns="http://www.w3.org/2000/svg"
 width="32.000000pt" height="32.000000pt" viewBox="0 0 32.000000 32.000000"
 preserveAspectRatio="xMidYMid meet">
<metadata>
Created by potrace 1.16, written by Peter Selinger 2001-2019
</metadata>
<g transform="translate(0.000000,32.000000) scale(0.100000,-0.100000)"
fill="#000000" stroke="none">
<path fill="#000000" stroke="none" d="M0 160 l0 -160 160 0 160 0 0 160 0
160 -160 0 -160 0 0 -160z"/>
<path fill="#ffffff" stroke="none" d="M60 298 c0 -7 -11 -14 -25 -14 -15 -1
-25 3 -25 12 0 8 10 14 25 14 14 0 25 -6 25 -12z"/>
<path fill="#ffffff" stroke="none" d="M180 300 c0 -12 0 -11 -62 -14 -34 -2
-48 1 -48 11 0 9 16 13 55 13 30 0 55 -4 55 -10z"/>
<path fill="#ffffff" stroke="none" d="M268 298 c-6 -17 -78 -18 -78 -1 0 9
14 13 41 13 28 0 39 -4 37 -12z"/>
<path fill="#ffffff" stroke="none" d="M310 280 c0 -20 -5 -30 -15 -30 -10 0
-15 10 -15 30 0 20 5 30 15 30 10 0 15 -10 15 -30z"/>
<path fill="#ffffff" stroke="none" d="M39 198 c0 -61 3 -75 22 -92 20 -18 21
-18 8 -2 -13 18 -12 19 4 13 23 -9 22 6 -3 28 -15 13 -20 31 -20 67 0 41 3 48
20 48 14 0 20 -7 20 -21 0 -11 5 -17 10 -14 5 3 10 1 10 -4 0 -12 56 -15 63
-3 3 4 -6 8 -19 8 -75 5 -70 31 7 33 52 1 60 -1 56 -14 -4 -9 -1 -15 9 -15 8
0 12 -4 9 -10 -3 -5 3 -10 14 -10 18 0 21 -6 21 -50 0 -29 -5 -50 -11 -50 -5
0 -7 5 -3 12 4 7 3 8 -5 4 -22 -14 -63 -17 -55 -5 4 7 2 10 -6 7 -8 -2 -16
-10 -18 -16 -2 -8 13 -12 48 -12 48 0 51 -2 48 -22 -3 -20 -9 -23 -53 -24 -60
-2 -70 3 -53 24 10 12 10 14 1 8 -9 -5 -11 -2 -7 8 8 21 -14 20 -38 -1 -21
-19 -25 -41 -5 -24 14 11 27 5 27 -13 0 -6 -5 -4 -10 4 -6 10 -10 11 -10 3 0
-8 -14 -13 -34 -13 -30 0 -35 3 -38 28 -2 21 -8 26 -23 24 -16 -2 -17 -1 -5 7
10 7 11 11 3 11 -9 0 -13 22 -13 75 0 58 3 75 14 75 11 0 15 -16 15 -72z"/>
<path fill="#ffffff" stroke="none" d="M270 240 c0 -23 -10 -26 -28 -8 -18 18
-15 28 8 28 13 0 20 -7 20 -20z"/>
<path fill="#ffffff" stroke="none" d="M310 145 c0 -69 -3 -85 -15 -85 -12 0
-15 16 -15 85 0 69 3 85 15 85 12 0 15 -16 15 -85z"/>
<path fill="#ffffff" stroke="none" d="M40 50 c0 -20 -5 -30 -15 -30 -10 0
-15 10 -15 30 0 20 5 30 15 30 10 0 15 -10 15 -30z"/>
<path fill="#ffffff" stroke="none" d="M210 28 c0 -9 -23 -13 -80 -13 -58 0
-80 3 -80 12 0 9 22 13 80 13 57 0 80 -4 80 -12z"/>
<path fill="#ffffff" stroke="none" d="M310 30 c0 -10 -4 -12 -57 -14 -22 -2
-33 2 -33 11 0 9 14 13 45 13 25 0 45 -4 45 -10z"/>
<path fill="#000000" stroke="none" d="M189 218 c-6 -15 -4 -60 2 -70 7 -10 9
-9 9 5 0 26 1 30 11 50 7 13 6 17 -6 17 -8 0 -15 -1 -16 -2z"/>
<path fill="#000000" stroke="none" d="M93 197 c-6 -7 -7 -25 -1 -46 9 -31 10
-32 23 -15 13 18 14 18 15 2 0 -19 20 -26 20 -8 0 6 7 10 15 10 8 0 15 5 15
10 0 6 -16 8 -40 5 -41 -5 -53 8 -29 32 7 7 7 13 1 17 -5 3 -14 0 -19 -7z"/>
</g>
</svg>
