<?xml version="1.0" standalone="no"?>
<!DOCTYPE svg PUBLIC "-//W3C//DTD SVG 20010904//EN"
 "http://www.w3.org/TR/2001/REC-SVG-20010904/DTD/svg10.dtd">
<svg version="1.0" xmlns="http://www.w3.org/2000/svg"
 width="32.000000pt" height="32.000000pt" viewBox="0 0 32.000000 32.000000"
 preserveAspectRatio="xMidYMid meet">
<metadata>
Created by potrace 1.16, written by Peter Selinger 2001-2019
</metadata>
<g transform="translate(0.000000,32.000000) scale(0.100000,-0.100000)"
fill="#000000" stroke="none">
<path fill="#000000" stroke="none" d="M253 303 c-10 -3 -9 -8 2 -20 12 -12
13 -18 4 -29 -6 -8 -9 -25 -7 -38 3 -14 1 -31 -3 -38 -6 -9 -9 -4 -9 15 0 15
-4 27 -10 27 -5 0 -10 6 -10 14 0 10 -18 13 -72 14 -40 0 -75 -1 -78 -3 -4 -2
-4 -27 0 -54 3 -28 3 -56 -1 -63 -4 -6 -4 -19 1 -29 6 -11 4 -23 -5 -35 -14
-19 -14 -18 -16 1 -1 11 -1 23 -1 26 1 4 -8 5 -19 2 -15 -4 -19 -12 -17 -31 2
-14 9 -28 17 -30 9 -3 11 0 6 8 -5 9 -4 11 3 6 7 -4 12 -14 12 -22 0 -19 37
-18 48 2 7 13 13 14 30 5 22 -12 120 -15 146 -5 9 3 13 11 9 17 -4 6 0 8 9 5
12 -5 14 1 12 30 -4 53 -8 68 -22 85 -7 9 -13 37 -13 64 1 43 -1 84 -3 82 -1
0 -7 -3 -13 -6z"/>
<path fill="#ffffff" stroke="none" d="M107 118 c-3 -8 -6 -5 -6 6 -1 11 2 17
5 13 3 -3 4 -12 1 -19z"/>
<path fill="#ffffff" stroke="none" d="M180 110 c-8 -5 -19 -10 -25 -10 -5 0
-3 5 5 10 8 5 20 10 25 10 6 0 3 -5 -5 -10z"/>
<path fill="#000000" stroke="none" d="M20 275 c-13 -35 -13 -52 3 -59 10 -5
10 -7 0 -12 -21 -9 -16 -72 6 -84 19 -9 20 -6 19 65 0 42 -4 73 -9 69 -14 -9
-10 3 7 21 9 9 24 13 35 10 10 -4 19 -2 19 2 0 5 -16 10 -35 11 -30 2 -37 -1
-45 -23z"/>
<path fill="#000000" stroke="none" d="M165 291 c-3 -6 4 -8 16 -6 30 6 37 15
11 15 -11 0 -23 -4 -27 -9z"/>
<path fill="#000000" stroke="none" d="M286 261 c-4 -7 -5 -15 -2 -18 9 -9 19
4 14 18 -4 11 -6 11 -12 0z"/>
</g>
</svg>
