<?xml version="1.0" standalone="no"?>
<!DOCTYPE svg PUBLIC "-//W3C//DTD SVG 20010904//EN"
 "http://www.w3.org/TR/2001/REC-SVG-20010904/DTD/svg10.dtd">
<svg version="1.0" xmlns="http://www.w3.org/2000/svg"
 width="32.000000pt" height="32.000000pt" viewBox="0 0 32.000000 32.000000"
 preserveAspectRatio="xMidYMid meet">
<metadata>
Created by potrace 1.16, written by Peter Selinger 2001-2019
</metadata>
<g transform="translate(0.000000,32.000000) scale(0.100000,-0.100000)"
fill="#000000" stroke="none">
<path fill="#000000" stroke="none" d="M2 158 l2 -163 3 158 4 157 70 0 c67 0
70 -1 64 -21 -6 -18 -5 -19 13 -10 27 14 45 14 36 -1 -4 -7 -3 -8 4 -4 6 4 9
13 6 21 -5 11 8 15 58 18 34 2 -10 4 -99 5 l-163 2 2 -162z"/>
<path fill="#000000" stroke="none" d="M307 292 c-5 -7 -14 -9 -20 -6 -8 5 -8
3 1 -7 13 -14 17 -63 5 -56 -5 3 -14 -1 -21 -9 -7 -8 -8 -14 -3 -14 5 0 11 -6
14 -12 2 -7 3 -5 1 5 -1 9 2 15 7 11 14 -8 11 -102 -3 -107 -10 -4 -10 -7 0
-18 16 -17 16 -59 -1 -59 -7 0 -19 6 -26 13 -11 9 -13 9 -7 0 4 -7 2 -13 -3
-13 -6 0 -11 5 -11 11 0 8 -4 8 -13 1 -13 -11 -105 -10 -124 1 -7 4 -14 3 -18
-3 -3 -5 -11 -10 -16 -10 -6 0 -7 5 -3 11 3 6 -6 3 -22 -7 l-28 -19 148 -3
c82 -1 151 -1 153 1 2 2 2 71 1 153 -2 82 -7 143 -11 136z"/>
<path fill="#000000" stroke="none" d="M64 269 c-5 -8 -7 -37 -6 -65 3 -40 0
-53 -12 -57 -10 -4 -16 -18 -16 -34 l1 -28 14 25 14 25 1 -34 c0 -66 21 -17
23 55 2 64 4 69 25 68 12 0 22 3 22 8 0 4 5 8 11 8 5 0 8 -4 5 -9 -4 -5 4 -22
17 -38 24 -29 32 -68 16 -78 -5 -4 -9 -13 -9 -21 0 -11 9 -14 33 -12 l32 3 0
58 c0 32 -4 57 -10 56 -5 -1 -9 -5 -7 -11 1 -5 -11 0 -28 12 -16 12 -30 26
-30 31 0 12 37 12 45 -1 3 -5 14 -2 25 7 11 9 17 19 15 22 -3 2 -40 4 -82 3
-46 -1 -80 3 -84 9 -4 8 -9 7 -15 -2z"/>
<path fill="#000000" stroke="none" d="M41 214 c0 -11 3 -14 6 -6 3 7 2 16 -1
19 -3 4 -6 -2 -5 -13z"/>
<path fill="#000000" stroke="none" d="M273 125 c0 -8 4 -12 9 -9 5 3 6 10 3
15 -9 13 -12 11 -12 -6z"/>
</g>
</svg>
