<?xml version="1.0" standalone="no"?>
<!DOCTYPE svg PUBLIC "-//W3C//DTD SVG 20010904//EN"
 "http://www.w3.org/TR/2001/REC-SVG-20010904/DTD/svg10.dtd">
<svg version="1.0" xmlns="http://www.w3.org/2000/svg"
 width="32.000000pt" height="32.000000pt" viewBox="0 0 32.000000 32.000000"
 preserveAspectRatio="xMidYMid meet">
<metadata>
Created by potrace 1.16, written by Peter Selinger 2001-2019
</metadata>
<g transform="translate(0.000000,32.000000) scale(0.100000,-0.100000)"
fill="#000000" stroke="none">
<path fill="#000000" stroke="none" d="M0 313 c0 -5 48 -7 107 -5 200 5 219 8
56 10 -90 1 -163 -1 -163 -5z"/>
<path fill="#000000" stroke="none" d="M155 280 c-3 -5 -1 -10 5 -10 6 0 8 -5
4 -12 -4 -7 -3 -8 4 -4 6 4 9 13 5 21 -6 18 -10 19 -18 5z"/>
<path fill="#000000" stroke="none" d="M80 230 c0 -5 5 -10 11 -10 5 0 7 5 4
10 -3 6 -8 10 -11 10 -2 0 -4 -4 -4 -10z"/>
<path fill="#000000" stroke="none" d="M2 165 c0 -16 2 -22 5 -12 2 9 2 23 0
30 -3 6 -5 -1 -5 -18z"/>
<path fill="#000000" stroke="none" d="M267 133 c-11 -11 -8 -43 4 -43 6 0 9
6 6 14 -3 7 0 19 6 25 7 7 7 11 1 11 -6 0 -14 -3 -17 -7z"/>
<path fill="#000000" stroke="none" d="M197 93 c-13 -12 -7 -23 11 -22 10 0
12 3 4 6 -6 2 -10 9 -6 14 6 10 0 12 -9 2z"/>
<path fill="#000000" stroke="none" d="M304 65 c4 -48 16 -57 16 -12 0 20 -4
38 -9 41 -5 3 -8 -10 -7 -29z"/>
<path fill="#000000" stroke="none" d="M1 74 c0 -11 3 -14 6 -6 3 7 2 16 -1
19 -3 4 -6 -2 -5 -13z"/>
<path fill="#000000" stroke="none" d="M2 25 c0 -17 2 -22 5 -12 2 9 2 23 0
30 -3 6 -5 -1 -5 -18z"/>
<path fill="#000000" stroke="none" d="M117 33 c6 -16 10 -16 16 0 3 8 -1 14
-8 14 -7 0 -11 -6 -8 -14z"/>
<path fill="#000000" stroke="none" d="M206 13 c-6 -14 -5 -15 5 -6 7 7 10 15
7 18 -3 3 -9 -2 -12 -12z"/>
<path fill="#000000" stroke="none" d="M145 10 c3 -5 10 -10 16 -10 5 0 9 5 9
10 0 6 -7 10 -16 10 -8 0 -12 -4 -9 -10z"/>
</g>
</svg>
