<?xml version="1.0" standalone="no"?>
<!DOCTYPE svg PUBLIC "-//W3C//DTD SVG 20010904//EN"
 "http://www.w3.org/TR/2001/REC-SVG-20010904/DTD/svg10.dtd">
<svg version="1.0" xmlns="http://www.w3.org/2000/svg"
 width="32.000000pt" height="32.000000pt" viewBox="0 0 32.000000 32.000000"
 preserveAspectRatio="xMidYMid meet">
<metadata>
Created by potrace 1.16, written by Peter Selinger 2001-2019
</metadata>
<g transform="translate(0.000000,32.000000) scale(0.100000,-0.100000)"
fill="#000000" stroke="none">
<path fill="#000000" stroke="none" d="M10 155 c0 -152 0 -155 20 -143 24 15
33 35 20 43 -6 4 -10 1 -10 -6 0 -7 -3 -9 -6 -6 -4 4 -1 13 6 22 7 8 10 26 8
40 -3 13 -1 22 3 19 15 -9 10 45 -6 75 -13 27 -13 31 6 55 11 14 26 23 32 19
17 -10 57 -10 57 1 0 6 5 5 11 -1 9 -9 15 -8 26 3 19 19 37 18 29 -2 -6 -15
-4 -15 10 -3 9 7 32 14 50 14 19 1 40 7 46 13 9 9 -24 12 -145 12 l-157 0 0
-155z"/>
<path fill="#000000" stroke="none" d="M230 268 c0 -4 5 -8 12 -8 8 0 6 -6 -5
-17 -12 -12 -31 -16 -70 -14 -48 2 -53 0 -54 -19 -1 -16 2 -20 15 -16 15 5 14
4 -1 -8 -18 -14 -18 -14 2 -21 12 -3 26 -3 32 1 6 3 4 -5 -5 -18 -9 -14 -13
-28 -9 -33 5 -4 2 -5 -4 -1 -12 6 -18 -5 -14 -26 0 -5 -4 -7 -10 -5 -6 1 -16
-6 -22 -15 -9 -14 -8 -21 5 -34 17 -17 43 -10 35 10 -5 13 31 15 51 3 6 -5 17
-5 22 -2 6 4 17 2 25 -5 10 -9 15 -7 20 10 3 11 10 18 15 15 5 -3 12 0 16 6 4
8 3 9 -4 5 -7 -4 -12 -3 -12 2 0 6 7 12 15 16 8 3 15 11 14 18 0 10 -2 10 -6
0 -6 -16 -23 -6 -23 15 0 10 6 13 16 9 12 -5 15 -2 10 10 -3 8 -6 18 -6 21 0
3 -6 0 -13 -6 -11 -9 -14 -5 -15 19 0 16 4 32 9 35 5 4 9 16 9 28 0 18 2 19
10 7 6 -9 10 -10 10 -3 0 6 -5 15 -12 19 -16 10 -58 11 -58 2z"/>
<path fill="#ffffff" stroke="none" d="M273 250 c-3 -12 -8 -19 -11 -16 -5 6
5 36 12 36 2 0 2 -9 -1 -20z"/>
<path fill="#ffffff" stroke="none" d="M208 181 c10 -29 10 -32 -3 -21 -8 7
-15 19 -15 26 0 8 -6 14 -12 14 -9 0 -8 3 2 10 8 5 15 8 16 7 0 -1 6 -17 12
-36z"/>
<path fill="#ffffff" stroke="none" d="M208 128 c-4 -12 -22 -12 -26 0 -1 5 4
9 13 9 9 0 14 -4 13 -9z"/>
<path fill="#ffffff" stroke="none" d="M224 102 c3 -5 -1 -9 -9 -9 -8 0 -12 4
-9 9 3 4 7 8 9 8 2 0 6 -4 9 -8z"/>
<path fill="#ffffff" stroke="none" d="M125 40 c3 -5 1 -10 -4 -10 -6 0 -11 5
-11 10 0 6 2 10 4 10 3 0 8 -4 11 -10z"/>
<path fill="#000000" stroke="none" d="M90 214 c0 -8 5 -12 10 -9 6 4 8 11 5
16 -9 14 -15 11 -15 -7z"/>
<path fill="#000000" stroke="none" d="M285 211 c-3 -5 -1 -12 5 -16 5 -3 10
1 10 9 0 18 -6 21 -15 7z"/>
<path fill="#000000" stroke="none" d="M87 173 c-7 -10 -4 -40 5 -48 3 -3 10
0 16 7 7 9 7 18 -3 31 -7 10 -15 14 -18 10z"/>
<path fill="#000000" stroke="none" d="M120 135 c-8 -9 -8 -15 -2 -15 12 0 26
19 19 26 -2 2 -10 -2 -17 -11z"/>
<path fill="#000000" stroke="none" d="M160 41 c0 -6 4 -12 8 -15 5 -3 9 1 9
9 0 8 -4 15 -9 15 -4 0 -8 -4 -8 -9z"/>
<path fill="#000000" stroke="none" d="M205 30 c-3 -5 -1 -10 4 -10 6 0 11 5
11 10 0 6 -2 10 -4 10 -3 0 -8 -4 -11 -10z"/>
</g>
</svg>
