<?xml version="1.0" standalone="no"?>
<!DOCTYPE svg PUBLIC "-//W3C//DTD SVG 20010904//EN"
 "http://www.w3.org/TR/2001/REC-SVG-20010904/DTD/svg10.dtd">
<svg version="1.0" xmlns="http://www.w3.org/2000/svg"
 width="32.000000pt" height="32.000000pt" viewBox="0 0 32.000000 32.000000"
 preserveAspectRatio="xMidYMid meet">
<metadata>
Created by potrace 1.16, written by Peter Selinger 2001-2019
</metadata>
<g transform="translate(0.000000,32.000000) scale(0.100000,-0.100000)"
fill="#000000" stroke="none">
<path fill="#000000" stroke="none" d="M28 303 c7 -3 16 -2 19 1 4 3 -2 6 -13
5 -11 0 -14 -3 -6 -6z"/>
<path fill="#000000" stroke="none" d="M103 303 c15 -2 37 -2 50 0 12 2 0 4
-28 4 -27 0 -38 -2 -22 -4z"/>
<path fill="#000000" stroke="none" d="M213 303 c9 -2 25 -2 35 0 9 3 1 5 -18
5 -19 0 -27 -2 -17 -5z"/>
<path fill="#000000" stroke="none" d="M285 300 c4 -6 11 -8 16 -5 14 9 11 15
-7 15 -8 0 -12 -5 -9 -10z"/>
<path fill="#000000" stroke="none" d="M16 255 c4 -8 7 -15 9 -15 2 0 5 7 9
15 3 9 0 15 -9 15 -9 0 -12 -6 -9 -15z"/>
<path fill="#000000" stroke="none" d="M109 233 c-13 -16 -12 -17 4 -4 9 7 17
15 17 17 0 8 -8 3 -21 -13z"/>
<path fill="#000000" stroke="none" d="M159 239 c19 -8 21 -12 11 -24 -9 -10
-9 -15 -1 -15 6 0 11 5 11 10 0 6 7 10 16 10 31 0 7 25 -27 27 -31 2 -32 1
-10 -8z"/>
<path fill="#000000" stroke="none" d="M239 233 c-13 -16 -12 -17 4 -4 9 7 17
15 17 17 0 8 -8 3 -21 -13z"/>
<path fill="#000000" stroke="none" d="M287 210 c3 -11 7 -20 8 -20 1 0 5 9 8
20 3 12 0 20 -8 20 -8 0 -11 -8 -8 -20z"/>
<path fill="#000000" stroke="none" d="M74 198 c-9 -14 -13 -51 -6 -43 3 3 11
-3 19 -13 13 -15 13 -14 3 7 -7 12 -10 32 -7 42 6 22 2 25 -9 7z"/>
<path fill="#000000" stroke="none" d="M21 184 c0 -11 3 -14 6 -6 3 7 2 16 -1
19 -3 4 -6 -2 -5 -13z"/>
<path fill="#000000" stroke="none" d="M133 173 c4 -3 -1 -16 -10 -27 -18 -21
-18 -21 4 -2 20 16 23 36 6 36 -4 0 -3 -3 0 -7z"/>
<path fill="#000000" stroke="none" d="M225 169 c6 -9 -24 -34 -32 -26 -3 4
-20 -2 -38 -13 -18 -11 -36 -16 -40 -12 -5 4 -5 1 -1 -5 6 -10 14 -9 37 3 18
9 41 13 58 9 30 -6 62 17 41 30 -6 3 -8 10 -6 14 3 4 -1 8 -9 8 -8 0 -12 -4
-10 -8z"/>
<path fill="#ffffff" stroke="none" d="M238 144 c-1 -5 -9 -9 -16 -10 -10 -2
-11 1 -1 12 12 14 24 13 17 -2z"/>
<path fill="#000000" stroke="none" d="M291 144 c0 -11 3 -14 6 -6 3 7 2 16
-1 19 -3 4 -6 -2 -5 -13z"/>
<path fill="#000000" stroke="none" d="M20 133 c0 -19 21 -27 33 -13 9 10 9
11 -2 5 -8 -4 -17 -2 -22 6 -6 9 -9 10 -9 2z"/>
<path fill="#000000" stroke="none" d="M76 106 c6 -15 4 -17 -6 -11 -9 6 -11
4 -5 -4 5 -9 10 -10 18 -2 8 8 7 14 -2 24 -10 10 -11 8 -5 -7z"/>
<path fill="#000000" stroke="none" d="M15 70 c4 -6 11 -8 16 -5 14 9 11 15
-7 15 -8 0 -12 -5 -9 -10z"/>
<path fill="#000000" stroke="none" d="M93 33 c20 -2 54 -2 75 0 20 2 3 4 -38
4 -41 0 -58 -2 -37 -4z"/>
<path fill="#000000" stroke="none" d="M248 33 c12 -2 30 -2 40 0 9 3 -1 5
-23 4 -22 0 -30 -2 -17 -4z"/>
</g>
</svg>
