<?xml version="1.0" standalone="no"?>
<!DOCTYPE svg PUBLIC "-//W3C//DTD SVG 20010904//EN"
 "http://www.w3.org/TR/2001/REC-SVG-20010904/DTD/svg10.dtd">
<svg version="1.0" xmlns="http://www.w3.org/2000/svg"
 width="32.000000pt" height="32.000000pt" viewBox="0 0 32.000000 32.000000"
 preserveAspectRatio="xMidYMid meet">
<metadata>
Created by potrace 1.16, written by Peter Selinger 2001-2019
</metadata>
<g transform="translate(0.000000,32.000000) scale(0.100000,-0.100000)"
fill="#000000" stroke="none">
<path fill="#000000" stroke="none" d="M4 306 c-3 -8 -4 -29 -2 -48 3 -29 4
-27 8 15 5 48 3 58 -6 33z"/>
<path fill="#000000" stroke="none" d="M48 313 c7 -3 16 -2 19 1 4 3 -2 6 -13
5 -11 0 -14 -3 -6 -6z"/>
<path fill="#000000" stroke="none" d="M88 313 c7 -3 16 -2 19 1 4 3 -2 6 -13
5 -11 0 -14 -3 -6 -6z"/>
<path fill="#000000" stroke="none" d="M128 313 c7 -3 16 -2 19 1 4 3 -2 6
-13 5 -11 0 -14 -3 -6 -6z"/>
<path fill="#000000" stroke="none" d="M173 313 c9 -2 23 -2 30 0 6 3 -1 5
-18 5 -16 0 -22 -2 -12 -5z"/>
<path fill="#000000" stroke="none" d="M283 313 c9 -2 23 -2 30 0 6 3 -1 5
-18 5 -16 0 -22 -2 -12 -5z"/>
<path fill="#000000" stroke="none" d="M67 253 c-11 -10 -8 -81 3 -88 6 -4 10
10 10 34 0 41 0 41 39 41 22 0 43 5 46 10 7 11 -87 14 -98 3z"/>
<path fill="#000000" stroke="none" d="M303 140 c0 -49 4 -87 9 -84 11 7 10
161 -1 168 -5 3 -8 -34 -8 -84z"/>
<path fill="#000000" stroke="none" d="M1 194 c0 -11 3 -14 6 -6 3 7 2 16 -1
19 -3 4 -6 -2 -5 -13z"/>
<path fill="#000000" stroke="none" d="M2 115 c0 -16 2 -22 5 -12 2 9 2 23 0
30 -3 6 -5 -1 -5 -18z"/>
<path fill="#000000" stroke="none" d="M3 35 c0 -22 2 -30 4 -17 2 12 2 30 0
40 -3 9 -5 -1 -4 -23z"/>
<path fill="#000000" stroke="none" d="M80 11 c0 -7 33 -11 90 -11 50 0 90 4
90 8 0 5 -40 9 -90 11 -59 1 -90 -1 -90 -8z"/>
</g>
</svg>
