<?xml version="1.0" standalone="no"?>
<!DOCTYPE svg PUBLIC "-//W3C//DTD SVG 20010904//EN"
 "http://www.w3.org/TR/2001/REC-SVG-20010904/DTD/svg10.dtd">
<svg version="1.0" xmlns="http://www.w3.org/2000/svg"
 width="32.000000pt" height="32.000000pt" viewBox="0 0 32.000000 32.000000"
 preserveAspectRatio="xMidYMid meet">
<metadata>
Created by potrace 1.16, written by Peter Selinger 2001-2019
</metadata>
<g transform="translate(0.000000,32.000000) scale(0.100000,-0.100000)"
fill="#000000" stroke="none">
<path fill="#000000" stroke="none" d="M35 300 c3 -5 14 -10 23 -10 15 0 15 2
2 10 -20 13 -33 13 -25 0z"/>
<path fill="#000000" stroke="none" d="M214 298 c-3 -4 15 -8 40 -8 25 0 46 4
46 9 0 12 -79 10 -86 -1z"/>
<path fill="#000000" stroke="none" d="M12 200 c0 -14 2 -19 5 -12 2 6 2 18 0
25 -3 6 -5 1 -5 -13z"/>
<path fill="#000000" stroke="none" d="M10 139 c0 -5 5 -7 10 -4 6 3 10 8 10
11 0 2 -4 4 -10 4 -5 0 -10 -5 -10 -11z"/>
<path fill="#000000" stroke="none" d="M10 53 c0 -24 3 -33 9 -25 7 12 4 62
-5 62 -2 0 -4 -17 -4 -37z"/>
</g>
</svg>
