<?xml version="1.0" standalone="no"?>
<!DOCTYPE svg PUBLIC "-//W3C//DTD SVG 20010904//EN"
 "http://www.w3.org/TR/2001/REC-SVG-20010904/DTD/svg10.dtd">
<svg version="1.0" xmlns="http://www.w3.org/2000/svg"
 width="32.000000pt" height="32.000000pt" viewBox="0 0 32.000000 32.000000"
 preserveAspectRatio="xMidYMid meet">
<metadata>
Created by potrace 1.16, written by Peter Selinger 2001-2019
</metadata>
<g transform="translate(0.000000,32.000000) scale(0.100000,-0.100000)"
fill="#000000" stroke="none">
<path fill="#000000" stroke="none" d="M106 299 c4 -8 30 -6 38 2 3 3 -5 5
-19 5 -13 0 -22 -3 -19 -7z"/>
<path fill="#000000" stroke="none" d="M233 299 c-11 -4 -1 -6 24 -6 23 1 40
4 37 8 -5 9 -34 8 -61 -2z"/>
<path fill="#000000" stroke="none" d="M11 258 c-1 -16 4 -28 9 -28 12 0 12 8
0 35 -8 18 -9 17 -9 -7z"/>
<path fill="#000000" stroke="none" d="M157 232 c-10 -10 -17 -26 -17 -36 0
-22 28 -32 43 -16 10 10 8 12 -5 7 -23 -8 -25 25 -3 43 12 10 17 8 26 -13 6
-14 9 -37 5 -51 -5 -21 -14 -27 -46 -32 -52 -9 -76 -34 -58 -63 13 -21 28 -28
28 -13 0 4 -5 13 -11 19 -17 17 -3 30 40 37 63 10 90 65 55 114 -18 27 -36 28
-57 4z"/>
<path fill="#000000" stroke="none" d="M80 230 c0 -5 5 -10 10 -10 6 0 10 5
10 10 0 6 -4 10 -10 10 -5 0 -10 -4 -10 -10z"/>
<path fill="#000000" stroke="none" d="M11 174 c-1 -25 2 -43 7 -40 9 6 10 71
1 80 -3 3 -6 -15 -8 -40z"/>
<path fill="#000000" stroke="none" d="M15 109 c-4 -6 -5 -12 -2 -15 2 -3 7 2
10 11 7 17 1 20 -8 4z"/>
<path fill="#000000" stroke="none" d="M12 55 c0 -16 2 -22 5 -12 2 9 2 23 0
30 -3 6 -5 -1 -5 -18z"/>
<path fill="#000000" stroke="none" d="M240 70 c0 -5 5 -10 10 -10 6 0 10 5
10 10 0 6 -4 10 -10 10 -5 0 -10 -4 -10 -10z"/>
</g>
</svg>
