<?xml version="1.0" standalone="no"?>
<!DOCTYPE svg PUBLIC "-//W3C//DTD SVG 20010904//EN"
 "http://www.w3.org/TR/2001/REC-SVG-20010904/DTD/svg10.dtd">
<svg version="1.0" xmlns="http://www.w3.org/2000/svg"
 width="32.000000pt" height="32.000000pt" viewBox="0 0 32.000000 32.000000"
 preserveAspectRatio="xMidYMid meet">
<metadata>
Created by potrace 1.16, written by Peter Selinger 2001-2019
</metadata>
<g transform="translate(0.000000,32.000000) scale(0.100000,-0.100000)"
fill="#000000" stroke="none">
<path fill="#000000" stroke="none" d="M50 300 c0 -17 7 -20 49 -20 39 0 51 4
54 18 4 16 5 16 6 0 1 -23 71 -26 71 -4 0 14 -60 26 -136 26 -37 0 -44 -3 -44
-20z"/>
<path fill="#000000" stroke="none" d="M240 301 c0 -17 6 -21 35 -21 24 0 35
5 35 15 0 8 -6 15 -12 15 -7 0 -23 3 -35 6 -19 5 -23 2 -23 -15z"/>
<path fill="#000000" stroke="none" d="M10 265 c0 -33 4 -45 15 -45 11 0 15
12 15 45 0 33 -4 45 -15 45 -11 0 -15 -12 -15 -45z"/>
<path fill="#000000" stroke="none" d="M52 185 c2 -47 0 -85 -4 -85 -5 0 -8
25 -8 55 0 40 -4 55 -14 55 -19 0 -22 -14 -22 -90 1 -52 4 -65 18 -68 9 -2 18
5 21 15 4 17 5 17 6 -1 1 -14 7 -17 31 -14 25 4 29 1 32 -21 3 -24 6 -26 53
-24 28 1 62 2 78 2 17 1 27 6 27 16 0 12 -13 15 -55 15 -47 0 -53 2 -48 17 4
11 8 12 11 5 2 -7 23 -12 53 -12 42 0 49 -3 49 -20 0 -22 26 -28 32 -8 3 7 2
28 -2 48 -4 19 -3 47 1 62 4 15 6 51 5 80 -1 41 -5 53 -18 56 -9 2 -18 -5 -21
-15 -4 -17 -5 -17 -6 0 -1 13 -10 17 -47 17 -40 0 -45 -2 -40 -17 6 -17 5 -17
-8 0 -7 9 -20 17 -29 17 -8 0 -18 -8 -20 -17 -4 -17 -5 -17 -6 0 -1 13 -10 17
-36 17 l-35 0 2 -85z"/>
<path fill="#ffffff" stroke="none" d="M277 208 c-3 -8 -6 -5 -6 6 -1 11 2 17
5 13 3 -3 4 -12 1 -19z"/>
<path fill="#ffffff" stroke="none" d="M129 188 c0 -13 -3 -17 -6 -10 -2 6
-12 12 -21 13 -14 0 -13 2 3 9 11 5 21 9 23 9 1 1 2 -9 1 -21z"/>
<path fill="#ffffff" stroke="none" d="M134 129 c-3 -6 0 -15 7 -20 11 -7 9
-9 -8 -9 -16 0 -20 5 -16 20 3 11 10 20 15 20 5 0 6 -5 2 -11z"/>
<path fill="#ffffff" stroke="none" d="M277 108 c-3 -8 -6 -5 -6 6 -1 11 2 17
5 13 3 -3 4 -12 1 -19z"/>
<path fill="#ffffff" stroke="none" d="M190 106 c0 -11 -19 -15 -25 -6 -3 5 1
10 9 10 9 0 16 -2 16 -4z"/>
<path fill="#ffffff" stroke="none" d="M147 24 c2 -13 1 -15 -4 -4 -3 8 -11
19 -17 23 -7 6 -6 7 4 4 8 -2 16 -12 17 -23z"/>
<path fill="#000000" stroke="none" d="M10 25 c0 -10 11 -15 33 -16 17 0 39
-2 48 -4 12 -2 15 3 12 16 -4 15 -15 19 -49 19 -32 0 -44 -4 -44 -15z"/>
</g>
</svg>
