<?xml version="1.0" standalone="no"?>
<!DOCTYPE svg PUBLIC "-//W3C//DTD SVG 20010904//EN"
 "http://www.w3.org/TR/2001/REC-SVG-20010904/DTD/svg10.dtd">
<svg version="1.0" xmlns="http://www.w3.org/2000/svg"
 width="32.000000pt" height="32.000000pt" viewBox="0 0 32.000000 32.000000"
 preserveAspectRatio="xMidYMid meet">
<metadata>
Created by potrace 1.16, written by Peter Selinger 2001-2019
</metadata>
<g transform="translate(0.000000,32.000000) scale(0.100000,-0.100000)"
fill="#000000" stroke="none">
<path fill="#000000" stroke="none" d="M83 303 c9 -2 25 -2 35 0 9 3 1 5 -18
5 -19 0 -27 -2 -17 -5z"/>
<path fill="#000000" stroke="none" d="M168 303 c18 -2 45 -2 60 0 15 2 0 4
-33 4 -33 0 -45 -2 -27 -4z"/>
<path fill="#000000" stroke="none" d="M303 255 c0 -22 2 -30 4 -17 2 12 2 30
0 40 -3 9 -5 -1 -4 -23z"/>
<path fill="#000000" stroke="none" d="M12 240 c0 -19 2 -27 5 -17 2 9 2 25 0
35 -3 9 -5 1 -5 -18z"/>
<path fill="#000000" stroke="none" d="M64 259 c-3 -6 -1 -16 5 -22 9 -9 19
-8 43 6 18 10 27 12 20 5 -9 -11 -3 -14 30 -15 41 -2 41 -2 18 14 -27 19 -106
27 -116 12z"/>
<path fill="#000000" stroke="none" d="M39 211 c7 -5 22 -6 32 -4 11 3 19 0
19 -7 0 -10 3 -10 14 -1 10 8 16 9 21 1 8 -13 85 -13 85 0 0 7 7 7 21 -1 13
-7 19 -7 15 -1 -4 6 6 12 21 15 16 2 -33 5 -107 5 -79 1 -129 -2 -121 -7z"/>
<path fill="#000000" stroke="none" d="M303 150 c0 -36 2 -50 4 -32 2 17 2 47
0 65 -2 17 -4 3 -4 -33z"/>
<path fill="#000000" stroke="none" d="M12 175 c0 -16 2 -22 5 -12 2 9 2 23 0
30 -3 6 -5 -1 -5 -18z"/>
<path fill="#000000" stroke="none" d="M86 163 c-4 -5 -11 -8 -14 -9 -30 -4
-42 -19 -42 -55 l0 -39 48 0 c26 0 54 -4 62 -10 9 -6 20 -5 29 3 12 10 13 9 6
-3 -6 -12 -5 -13 6 -3 7 7 35 13 61 13 l48 0 0 50 c0 38 -4 50 -15 50 -11 0
-15 -12 -15 -45 0 -35 -3 -43 -15 -39 -8 4 -16 16 -16 28 -1 16 -3 14 -9 -9
-7 -27 -8 -25 -9 18 0 26 -5 47 -11 47 -5 0 -11 -21 -11 -47 l-2 -48 -7 40 -7
40 -3 -40 c-3 -34 -4 -36 -7 -11 -10 63 -58 73 -66 14 -3 -20 -4 -15 -3 15 1
26 1 47 0 47 0 0 -4 -3 -8 -7z"/>
<path fill="#ffffff" stroke="none" d="M70 110 c0 -22 -3 -40 -8 -40 -4 0 -6
18 -4 40 2 22 6 40 8 40 2 0 4 -18 4 -40z"/>
<path fill="#000000" stroke="none" d="M13 95 c0 -22 2 -30 4 -17 2 12 2 30 0
40 -3 9 -5 -1 -4 -23z"/>
<path fill="#000000" stroke="none" d="M138 13 c6 -2 18 -2 25 0 6 3 1 5 -13
5 -14 0 -19 -2 -12 -5z"/>
</g>
</svg>
