<?xml version="1.0" standalone="no"?>
<!DOCTYPE svg PUBLIC "-//W3C//DTD SVG 20010904//EN"
 "http://www.w3.org/TR/2001/REC-SVG-20010904/DTD/svg10.dtd">
<svg version="1.0" xmlns="http://www.w3.org/2000/svg"
 width="32.000000pt" height="32.000000pt" viewBox="0 0 32.000000 32.000000"
 preserveAspectRatio="xMidYMid meet">
<metadata>
Created by potrace 1.16, written by Peter Selinger 2001-2019
</metadata>
<g transform="translate(0.000000,32.000000) scale(0.100000,-0.100000)"
fill="#000000" stroke="none">
<path fill="#000000" stroke="none" d="M0 160 l0 -160 160 0 160 0 0 160 0
160 -160 0 -160 0 0 -160z"/>
<path fill="#ffffff" stroke="none" d="M123 303 c-7 -2 -19 -2 -25 0 -7 3 -2
5 12 5 14 0 19 -2 13 -5z"/>
<path fill="#ffffff" stroke="none" d="M173 303 c-7 -2 -19 -2 -25 0 -7 3 -2
5 12 5 14 0 19 -2 13 -5z"/>
<path fill="#ffffff" stroke="none" d="M180 247 c23 -16 23 -16 -18 -14 -33 1
-39 4 -30 15 7 7 -2 5 -20 -5 -24 -14 -34 -15 -43 -6 -6 6 -8 16 -5 22 10 15
89 7 116 -12z"/>
<path fill="#ffffff" stroke="none" d="M307 233 c-3 -10 -5 -4 -5 12 0 17 2
24 5 18 2 -7 2 -21 0 -30z"/>
<path fill="#ffffff" stroke="none" d="M17 218 c-3 -7 -5 -2 -5 12 0 14 2 19
5 13 2 -7 2 -19 0 -25z"/>
<path fill="#ffffff" stroke="none" d="M83 213 c-7 -2 -21 -2 -30 0 -10 3 -4
5 12 5 17 0 24 -2 18 -5z"/>
<path fill="#ffffff" stroke="none" d="M173 213 c-13 -2 -35 -2 -50 0 -16 2
-5 4 22 4 28 0 40 -2 28 -4z"/>
<path fill="#ffffff" stroke="none" d="M263 213 c-13 -2 -33 -2 -45 0 -13 2
-3 4 22 4 25 0 35 -2 23 -4z"/>
<path fill="#ffffff" stroke="none" d="M94 123 c-1 -27 1 -34 3 -16 2 17 11
34 19 37 11 4 14 -4 14 -34 0 -33 3 -40 20 -40 16 0 20 7 21 38 l2 37 7 -40 7
-40 2 38 c0 20 6 37 11 37 6 0 11 -17 11 -37 1 -38 1 -38 9 -8 l8 30 1 -27 c1
-18 7 -28 16 -28 11 0 15 12 15 45 0 34 4 45 16 45 12 0 14 -10 12 -47 l-3
-48 -120 -2 c-84 -2 -122 1 -127 10 -14 22 -8 54 12 72 11 10 20 14 20 10 0
-5 5 -4 12 3 7 7 12 12 13 12 0 0 0 -21 -1 -47z"/>
<path fill="#ffffff" stroke="none" d="M307 118 c-3 -7 -5 -2 -5 12 0 14 2 19
5 13 2 -7 2 -19 0 -25z"/>
<path fill="#ffffff" stroke="none" d="M17 73 c-3 -10 -5 -4 -5 12 0 17 2 24
5 18 2 -7 2 -21 0 -30z"/>
<path fill="#000000" stroke="none" d="M59 148 c-5 -18 -2 -78 4 -78 4 0 7 18
7 40 0 22 -2 40 -5 40 -3 0 -5 -1 -6 -2z"/>
</g>
</svg>
