<?xml version="1.0" standalone="no"?>
<!DOCTYPE svg PUBLIC "-//W3C//DTD SVG 20010904//EN"
 "http://www.w3.org/TR/2001/REC-SVG-20010904/DTD/svg10.dtd">
<svg version="1.0" xmlns="http://www.w3.org/2000/svg"
 width="32.000000pt" height="32.000000pt" viewBox="0 0 32.000000 32.000000"
 preserveAspectRatio="xMidYMid meet">
<metadata>
Created by potrace 1.16, written by Peter Selinger 2001-2019
</metadata>
<g transform="translate(0.000000,32.000000) scale(0.100000,-0.100000)"
fill="#000000" stroke="none">
<path fill="#000000" stroke="none" d="M140 261 c-9 -22 -9 -34 0 -48 10 -16
10 -16 5 4 -3 12 -1 32 5 43 7 12 10 24 7 26 -2 3 -10 -9 -17 -25z"/>
<path fill="#000000" stroke="none" d="M289 276 c6 -8 9 -20 5 -29 -3 -8 2
-28 11 -44 9 -15 13 -19 9 -8 -9 25 -9 55 0 75 5 11 0 16 -15 17 -16 2 -18 -1
-10 -11z"/>
<path fill="#000000" stroke="none" d="M54 246 c-3 -8 2 -27 11 -43 9 -15 13
-19 9 -8 -4 11 -8 30 -8 43 -1 26 -4 28 -12 8z"/>
<path fill="#000000" stroke="none" d="M214 246 c-3 -8 2 -27 11 -43 9 -15 13
-19 9 -8 -4 11 -8 30 -8 43 -1 26 -4 28 -12 8z"/>
<path fill="#000000" stroke="none" d="M102 185 c-7 -14 -12 -31 -12 -38 1 -7
7 3 16 22 17 39 13 54 -4 16z"/>
<path fill="#000000" stroke="none" d="M180 181 c-9 -22 -9 -34 0 -48 10 -16
10 -16 5 4 -3 12 -1 32 5 43 7 12 10 24 7 26 -2 3 -10 -9 -17 -25z"/>
<path fill="#000000" stroke="none" d="M261 181 c-10 -24 -10 -34 3 -58 18
-32 21 -26 5 10 -8 18 -8 30 1 47 6 12 10 24 7 26 -2 3 -10 -9 -16 -25z"/>
<path fill="#000000" stroke="none" d="M14 166 c-3 -8 2 -27 11 -43 9 -15 13
-19 9 -8 -4 11 -8 30 -8 43 -1 26 -4 28 -12 8z"/>
<path fill="#000000" stroke="none" d="M61 101 c-10 -24 -10 -34 3 -58 18 -32
21 -26 5 10 -8 18 -8 30 1 47 6 12 10 24 7 26 -2 3 -10 -9 -16 -25z"/>
<path fill="#000000" stroke="none" d="M302 105 c-17 -37 -14 -45 4 -12 9 16
14 31 11 33 -2 2 -9 -7 -15 -21z"/>
<path fill="#000000" stroke="none" d="M139 96 c-8 -17 -8 -29 0 -42 11 -17
11 -17 6 3 -3 12 -1 31 5 43 6 11 8 20 5 20 -3 0 -10 -11 -16 -24z"/>
<path fill="#000000" stroke="none" d="M211 80 c0 -14 28 -72 29 -59 0 4 -7
22 -15 40 -8 19 -14 27 -14 19z"/>
</g>
</svg>
