<?xml version="1.0" standalone="no"?>
<!DOCTYPE svg PUBLIC "-//W3C//DTD SVG 20010904//EN"
 "http://www.w3.org/TR/2001/REC-SVG-20010904/DTD/svg10.dtd">
<svg version="1.0" xmlns="http://www.w3.org/2000/svg"
 width="32.000000pt" height="32.000000pt" viewBox="0 0 32.000000 32.000000"
 preserveAspectRatio="xMidYMid meet">
<metadata>
Created by potrace 1.16, written by Peter Selinger 2001-2019
</metadata>
<g transform="translate(0.000000,32.000000) scale(0.100000,-0.100000)"
fill="#000000" stroke="none">
<path fill="#000000" stroke="none" d="M0 160 c0 -100 4 -160 10 -160 6 0 10
9 10 19 0 10 7 21 15 25 8 3 15 13 15 23 1 10 8 29 16 43 10 17 13 18 8 5 -14
-41 -16 -63 -5 -69 6 -4 11 -13 11 -19 0 -7 -5 -4 -11 6 -9 15 -12 15 -25 3
-28 -28 -15 -36 60 -36 69 0 75 2 92 28 10 15 17 33 16 39 -2 7 4 25 13 40 9
16 13 19 9 8 -9 -26 -9 -56 0 -77 6 -13 3 -15 -12 -11 -12 3 -22 -1 -25 -11
-5 -14 3 -16 58 -16 36 0 65 2 65 5 0 2 -8 20 -17 40 -13 28 -14 38 -4 48 10
9 11 9 6 -5 -4 -9 -2 -25 4 -35 16 -29 12 116 -5 149 -8 15 -14 33 -14 40 1 7
7 0 15 -17 13 -29 13 -28 12 33 l-1 62 -158 0 -158 0 0 -160z"/>
<path fill="#ffffff" stroke="none" d="M80 306 c0 -3 -4 -8 -10 -11 -5 -3 -10
-1 -10 4 0 6 5 11 10 11 6 0 10 -2 10 -4z"/>
<path fill="#ffffff" stroke="none" d="M128 278 c10 -10 15 -10 23 2 9 12 9
11 3 -5 -4 -11 -8 -30 -8 -42 -1 -11 -5 -19 -9 -16 -5 3 -7 14 -4 24 3 12 -3
25 -16 34 -12 8 -17 15 -11 15 5 0 16 -6 22 -12z"/>
<path fill="#ffffff" stroke="none" d="M229 259 c-8 -16 -8 -28 0 -47 7 -13
10 -26 8 -29 -2 -2 -10 10 -16 26 -10 22 -10 34 -1 50 6 12 13 21 16 21 2 0 0
-10 -7 -21z"/>
<path fill="#ffffff" stroke="none" d="M40 266 c0 -2 -7 -6 -15 -10 -8 -3 -15
-1 -15 4 0 6 7 10 15 10 8 0 15 -2 15 -4z"/>
<path fill="#ffffff" stroke="none" d="M63 240 c-3 -12 -8 -19 -11 -16 -5 6 5
36 12 36 2 0 2 -9 -1 -20z"/>
<path fill="#ffffff" stroke="none" d="M110 180 c-9 -17 -9 -29 -1 -47 16 -36
13 -42 -5 -10 -13 24 -13 34 -3 58 6 16 14 28 16 25 3 -2 -1 -14 -7 -26z"/>
<path fill="#ffffff" stroke="none" d="M190 180 c-9 -17 -9 -29 -1 -47 16 -36
13 -42 -5 -10 -13 24 -13 34 -3 58 6 16 14 28 16 25 3 -2 -1 -14 -7 -26z"/>
<path fill="#ffffff" stroke="none" d="M280 202 c0 -5 -7 -17 -15 -28 -14 -18
-14 -17 -4 9 12 27 19 34 19 19z"/>
<path fill="#ffffff" stroke="none" d="M26 158 c0 -13 4 -32 8 -43 4 -11 0 -7
-9 8 -9 16 -14 35 -11 43 8 20 11 18 12 -8z"/>
<path fill="#ffffff" stroke="none" d="M150 100 c-9 -17 -9 -29 -1 -47 16 -36
13 -42 -5 -10 -13 24 -13 34 -3 58 6 16 14 28 16 25 3 -2 -1 -14 -7 -26z"/>
</g>
</svg>
