<?xml version="1.0" standalone="no"?>
<!DOCTYPE svg PUBLIC "-//W3C//DTD SVG 20010904//EN"
 "http://www.w3.org/TR/2001/REC-SVG-20010904/DTD/svg10.dtd">
<svg version="1.0" xmlns="http://www.w3.org/2000/svg"
 width="32.000000pt" height="32.000000pt" viewBox="0 0 32.000000 32.000000"
 preserveAspectRatio="xMidYMid meet">
<metadata>
Created by potrace 1.16, written by Peter Selinger 2001-2019
</metadata>
<g transform="translate(0.000000,32.000000) scale(0.100000,-0.100000)"
fill="#000000" stroke="none">
<path fill="#000000" stroke="none" d="M54 306 c-44 -24 -54 -39 -54 -75 l1
-36 14 25 c18 31 18 27 1 -37 -10 -38 -11 -53 -2 -58 8 -3 8 -7 -1 -11 -15 -7
-17 -70 -3 -79 5 -3 7 -12 3 -20 -4 -13 18 -15 151 -15 l156 0 0 41 c0 26 -4
38 -11 34 -6 -4 -5 2 3 14 11 17 10 22 -5 33 -12 10 -14 17 -6 28 9 13 10 12
5 -2 -3 -10 -1 -18 4 -18 6 0 10 25 10 56 0 41 -3 53 -12 48 -10 -6 -10 -4 0
7 6 7 12 23 12 36 0 19 -5 23 -30 23 -16 0 -30 5 -30 10 0 6 -5 10 -11 10 -5
0 -7 -5 -4 -10 4 -6 8 -23 10 -38 l4 -27 -12 25 c-14 28 -51 37 -75 18 -13
-10 -14 -10 -8 0 5 8 0 12 -14 12 -13 0 -18 -4 -15 -11 4 -6 -3 -5 -14 3 -18
11 -23 11 -32 -2 -9 -12 -10 -10 -6 8 6 24 2 26 -29 8z"/>
<path fill="#ffffff" stroke="none" d="M207 262 c-7 -10 -20 -32 -27 -50 -7
-18 -14 -31 -16 -29 -8 8 39 106 48 101 5 -4 3 -13 -5 -22z"/>
<path fill="#ffffff" stroke="none" d="M131 263 c13 -17 13 -17 -6 -3 -11 8
-22 16 -24 17 -2 2 0 3 6 3 6 0 17 -8 24 -17z"/>
<path fill="#ffffff" stroke="none" d="M285 271 c3 -5 2 -12 -3 -15 -5 -3 -9
1 -9 9 0 17 3 19 12 6z"/>
<path fill="#ffffff" stroke="none" d="M112 232 c3 -10 0 -19 -6 -19 -6 0 -11
10 -11 23 0 25 10 23 17 -4z"/>
<path fill="#ffffff" stroke="none" d="M253 195 c-3 -9 -8 -14 -10 -11 -3 3
-2 9 2 15 9 16 15 13 8 -4z"/>
<path fill="#ffffff" stroke="none" d="M240 167 c12 -4 12 -6 -2 -6 -10 -1
-22 9 -28 22 -9 19 -9 20 2 6 7 -9 20 -18 28 -22z"/>
<path fill="#ffffff" stroke="none" d="M68 149 c-3 -8 -7 -3 -11 10 -4 17 -3
21 5 13 5 -5 8 -16 6 -23z"/>
<path fill="#ffffff" stroke="none" d="M142 118 c-10 -10 -10 -8 -2 37 1 6 4
2 7 -9 3 -10 0 -23 -5 -28z"/>
<path fill="#ffffff" stroke="none" d="M267 120 c14 -11 22 -20 18 -20 -5 0
-16 7 -26 16 -24 21 -42 13 -61 -26 -14 -28 -16 -29 -21 -11 -3 12 -1 19 4 15
5 -3 14 6 21 20 14 31 31 33 65 6z"/>
<path fill="#ffffff" stroke="none" d="M94 114 c3 -8 2 -12 -4 -9 -6 3 -10 10
-10 16 0 14 7 11 14 -7z"/>
<path fill="#ffffff" stroke="none" d="M23 58 c-10 -21 -10 -21 -9 9 1 19 5
28 10 23 6 -6 5 -18 -1 -32z"/>
<path fill="#ffffff" stroke="none" d="M130 40 c0 -5 -2 -10 -4 -10 -3 0 -8 5
-11 10 -3 6 -1 10 4 10 6 0 11 -4 11 -10z"/>
<path fill="#ffffff" stroke="none" d="M290 34 c0 -12 -4 -12 -20 -4 -15 8
-20 8 -20 -1 0 -7 -3 -10 -6 -6 -10 10 3 23 25 24 13 1 21 -4 21 -13z"/>
<path fill="#ffffff" stroke="none" d="M69 37 c-2 -1 -13 -9 -24 -17 -19 -14
-19 -14 -6 3 7 9 18 17 24 17 6 0 8 -1 6 -3z"/>
</g>
</svg>
