<?xml version="1.0" standalone="no"?>
<!DOCTYPE svg PUBLIC "-//W3C//DTD SVG 20010904//EN"
 "http://www.w3.org/TR/2001/REC-SVG-20010904/DTD/svg10.dtd">
<svg version="1.0" xmlns="http://www.w3.org/2000/svg"
 width="32.000000pt" height="32.000000pt" viewBox="0 0 32.000000 32.000000"
 preserveAspectRatio="xMidYMid meet">
<metadata>
Created by potrace 1.16, written by Peter Selinger 2001-2019
</metadata>
<g transform="translate(0.000000,32.000000) scale(0.100000,-0.100000)"
fill="#000000" stroke="none">
<path fill="#000000" stroke="none" d="M33 314 c4 -7 1 -14 -7 -17 -9 -4 -13
-14 -9 -29 4 -18 3 -20 -6 -8 -8 12 -11 5 -11 -30 0 -33 3 -41 10 -30 5 8 10
10 10 4 0 -6 -3 -14 -7 -18 -11 -11 -9 -50 2 -59 6 -6 6 -10 -3 -14 -13 -5
-15 -34 -6 -82 l7 -31 153 0 154 0 0 151 c0 112 -3 148 -12 143 -8 -5 -9 -2
-5 9 7 17 -8 24 -17 8 -6 -9 -93 -7 -143 4 -22 5 -33 4 -33 -4 0 -6 -5 -11
-11 -11 -5 0 -7 4 -4 10 4 6 -2 7 -18 1 -17 -7 -29 -6 -37 2 -9 9 -11 9 -7 1z"/>
<path fill="#ffffff" stroke="none" d="M195 282 c-3 -3 -11 0 -18 7 -9 10 -8
11 6 5 10 -3 15 -9 12 -12z"/>
<path fill="#ffffff" stroke="none" d="M250 280 c0 -5 -2 -10 -4 -10 -3 0 -8
5 -11 10 -3 6 -1 10 4 10 6 0 11 -4 11 -10z"/>
<path fill="#ffffff" stroke="none" d="M101 217 c-10 -9 -11 -8 -5 6 3 10 9
15 12 12 3 -3 0 -11 -7 -18z"/>
<path fill="#ffffff" stroke="none" d="M61 137 c-10 -9 -11 -8 -5 6 3 10 9 15
12 12 3 -3 0 -11 -7 -18z"/>
<path fill="#ffffff" stroke="none" d="M168 119 c-3 -8 -7 -3 -11 10 -4 17 -3
21 5 13 5 -5 8 -16 6 -23z"/>
<path fill="#ffffff" stroke="none" d="M20 53 c-11 -17 -11 -17 -6 0 3 10 6
24 7 30 0 9 2 9 5 0 3 -7 0 -20 -6 -30z"/>
<path fill="#ffffff" stroke="none" d="M253 35 c-3 -9 -8 -14 -10 -11 -3 3 -2
9 2 15 9 16 15 13 8 -4z"/>
</g>
</svg>
