<?xml version="1.0" standalone="no"?>
<!DOCTYPE svg PUBLIC "-//W3C//DTD SVG 20010904//EN"
 "http://www.w3.org/TR/2001/REC-SVG-20010904/DTD/svg10.dtd">
<svg version="1.0" xmlns="http://www.w3.org/2000/svg"
 width="32.000000pt" height="32.000000pt" viewBox="0 0 32.000000 32.000000"
 preserveAspectRatio="xMidYMid meet">
<metadata>
Created by potrace 1.16, written by Peter Selinger 2001-2019
</metadata>
<g transform="translate(0.000000,32.000000) scale(0.100000,-0.100000)"
fill="#000000" stroke="none">
<path fill="#000000" stroke="none" d="M125 312 c6 -4 12 -14 13 -22 2 -8 0
-12 -4 -8 -4 4 -14 2 -23 -5 -14 -11 -14 -10 -2 6 14 17 12 18 -35 15 l-49 -3
-1 -45 c0 -25 -6 -62 -11 -82 -8 -27 -8 -38 0 -42 9 -5 9 -8 0 -12 -15 -7 -17
-70 -3 -79 5 -3 7 -12 3 -20 -4 -13 18 -15 151 -15 l156 0 0 41 c0 29 -3 38
-12 33 -10 -6 -10 -4 -1 7 18 18 18 163 1 153 -10 -6 -10 -4 0 7 16 17 16 63
0 53 -8 -5 -9 -2 -5 9 3 10 5 17 3 17 -10 0 -57 -29 -57 -34 1 -3 -2 -5 -6 -3
-5 1 -7 5 -5 10 3 10 -6 9 -30 -4 -16 -9 -24 -7 -42 10 -12 12 -29 21 -37 21
-8 0 -10 -3 -4 -8z"/>
<path fill="#ffffff" stroke="none" d="M114 229 c11 -22 12 -28 2 -20 -7 6
-15 9 -17 7 -2 -2 -4 7 -4 20 0 13 1 24 2 24 1 0 8 -14 17 -31z"/>
<path fill="#ffffff" stroke="none" d="M175 203 c-9 -15 -13 -19 -10 -8 4 11
10 29 13 40 3 11 7 14 9 8 3 -7 -3 -24 -12 -40z"/>
<path fill="#ffffff" stroke="none" d="M253 195 c-3 -9 -8 -14 -10 -11 -3 3
-2 9 2 15 9 16 15 13 8 -4z"/>
<path fill="#ffffff" stroke="none" d="M221 183 c13 -16 12 -17 -3 -4 -10 7
-18 15 -18 17 0 8 8 3 21 -13z"/>
<path fill="#ffffff" stroke="none" d="M60 133 c-11 -17 -11 -17 -6 0 3 10 6
24 7 30 0 9 2 9 5 0 3 -7 0 -20 -6 -30z"/>
<path fill="#ffffff" stroke="none" d="M296 123 c-8 -15 -15 -25 -16 -21 0 12
23 58 27 54 3 -2 -2 -17 -11 -33z"/>
<path fill="#ffffff" stroke="none" d="M168 119 c-3 -8 -7 -3 -11 10 -4 17 -3
21 5 13 5 -5 8 -16 6 -23z"/>
<path fill="#ffffff" stroke="none" d="M145 131 c3 -5 2 -12 -3 -15 -5 -3 -9
1 -9 9 0 17 3 19 12 6z"/>
<path fill="#ffffff" stroke="none" d="M23 58 c-10 -21 -10 -21 -9 9 1 19 5
28 10 23 6 -6 5 -18 -1 -32z"/>
<path fill="#ffffff" stroke="none" d="M185 64 c-8 -20 -15 -39 -15 -42 0 -3
-2 -3 -5 0 -6 5 22 78 30 78 3 0 -2 -16 -10 -36z"/>
<path fill="#ffffff" stroke="none" d="M101 57 c-10 -9 -11 -8 -5 6 3 10 9 15
12 12 3 -3 0 -11 -7 -18z"/>
<path fill="#ffffff" stroke="none" d="M41 43 c-12 -20 -14 -14 -5 12 4 9 9
14 11 11 3 -2 0 -13 -6 -23z"/>
<path fill="#ffffff" stroke="none" d="M123 35 c-3 -9 -8 -14 -10 -11 -3 3 -2
9 2 15 9 16 15 13 8 -4z"/>
<path fill="#ffffff" stroke="none" d="M290 24 c0 -2 -9 0 -20 6 -15 8 -20 8
-20 -1 0 -7 -3 -10 -6 -6 -3 3 -3 10 1 16 6 11 45 -2 45 -15z"/>
<path fill="#ffffff" stroke="none" d="M205 30 c3 -5 -1 -10 -10 -10 -9 0 -13
5 -10 10 3 6 8 10 10 10 2 0 7 -4 10 -10z"/>
<path fill="#000000" stroke="none" d="M1 235 c0 -35 2 -37 11 -19 7 15 7 28
-1 40 -9 16 -10 12 -10 -21z"/>
</g>
</svg>
