<?xml version="1.0" standalone="no"?>
<!DOCTYPE svg PUBLIC "-//W3C//DTD SVG 20010904//EN"
 "http://www.w3.org/TR/2001/REC-SVG-20010904/DTD/svg10.dtd">
<svg version="1.0" xmlns="http://www.w3.org/2000/svg"
 width="32.000000pt" height="32.000000pt" viewBox="0 0 32.000000 32.000000"
 preserveAspectRatio="xMidYMid meet">
<metadata>
Created by potrace 1.16, written by Peter Selinger 2001-2019
</metadata>
<g transform="translate(0.000000,32.000000) scale(0.100000,-0.100000)"
fill="#000000" stroke="none">
<path fill="#000000" stroke="none" d="M0 160 l0 -160 160 0 160 0 0 160 0
160 -160 0 -160 0 0 -160z"/>
<path fill="#ffffff" stroke="none" d="M124 271 c10 -16 -5 -41 -24 -41 -21 0
-44 25 -35 40 8 12 52 13 59 1z"/>
<path fill="#ffffff" stroke="none" d="M258 248 c17 -17 15 -43 -4 -59 -31
-26 -70 25 -44 56 15 18 32 19 48 3z"/>
<path fill="#ffffff" stroke="none" d="M104 164 c37 -14 4 -51 -35 -39 -22 7
-25 31 -6 38 18 8 23 8 41 1z"/>
<path fill="#ffffff" stroke="none" d="M248 43 c5 -17 -26 -29 -40 -15 -6 6
-7 15 -3 22 9 14 37 9 43 -7z"/>
</g>
</svg>
