<?xml version="1.0" standalone="no"?>
<!DOCTYPE svg PUBLIC "-//W3C//DTD SVG 20010904//EN"
 "http://www.w3.org/TR/2001/REC-SVG-20010904/DTD/svg10.dtd">
<svg version="1.0" xmlns="http://www.w3.org/2000/svg"
 width="32.000000pt" height="32.000000pt" viewBox="0 0 32.000000 32.000000"
 preserveAspectRatio="xMidYMid meet">
<metadata>
Created by potrace 1.16, written by Peter Selinger 2001-2019
</metadata>
<g transform="translate(0.000000,32.000000) scale(0.100000,-0.100000)"
fill="#000000" stroke="none">
<path fill="#000000" stroke="none" d="M0 160 l0 -160 160 0 160 0 0 160 0
160 -160 0 -160 0 0 -160z"/>
<path fill="#ffffff" stroke="none" d="M230 294 c0 -2 -19 -4 -42 -3 -31 0
-37 3 -24 8 18 7 66 3 66 -5z"/>
<path fill="#ffffff" stroke="none" d="M272 254 c2 -21 -1 -42 -10 -52 -12
-16 -13 -15 -4 1 10 22 4 67 -9 67 -5 0 -9 5 -9 10 0 6 6 10 14 10 8 0 15 -14
18 -36z"/>
<path fill="#ffffff" stroke="none" d="M144 254 c3 -8 2 -12 -4 -9 -6 3 -10
10 -10 16 0 14 7 11 14 -7z"/>
<path fill="#ffffff" stroke="none" d="M297 255 c0 -8 -4 -12 -9 -9 -5 3 -6
10 -3 15 9 13 12 11 12 -6z"/>
<path fill="#ffffff" stroke="none" d="M148 184 c15 -10 22 -25 21 -47 -1 -32
-1 -32 -10 -6 -5 14 -21 32 -34 39 -14 7 -25 17 -25 22 0 13 24 9 48 -8z"/>
<path fill="#ffffff" stroke="none" d="M225 78 c4 -3 2 -9 -3 -12 -5 -3 -15 1
-21 8 -10 11 -9 14 3 12 9 -1 18 -5 21 -8z"/>
<path fill="#ffffff" stroke="none" d="M93 40 c3 -11 2 -20 -3 -20 -4 0 -10
11 -12 25 -6 29 7 25 15 -5z"/>
<path fill="#ffffff" stroke="none" d="M243 45 c4 -8 3 -16 -1 -19 -4 -3 -9 4
-9 15 -2 23 3 25 10 4z"/>
<path fill="#ffffff" stroke="none" d="M290 45 c11 -13 10 -14 -4 -9 -9 3 -16
10 -16 15 0 13 6 11 20 -6z"/>
</g>
</svg>
