<?xml version="1.0" standalone="no"?>
<!DOCTYPE svg PUBLIC "-//W3C//DTD SVG 20010904//EN"
 "http://www.w3.org/TR/2001/REC-SVG-20010904/DTD/svg10.dtd">
<svg version="1.0" xmlns="http://www.w3.org/2000/svg"
 width="32.000000pt" height="32.000000pt" viewBox="0 0 32.000000 32.000000"
 preserveAspectRatio="xMidYMid meet">
<metadata>
Created by potrace 1.16, written by Peter Selinger 2001-2019
</metadata>
<g transform="translate(0.000000,32.000000) scale(0.100000,-0.100000)"
fill="#000000" stroke="none">
<path fill="#000000" stroke="none" d="M0 309 c0 -5 4 -8 9 -5 14 9 21 -20 8
-33 -8 -8 -7 -11 5 -11 8 0 20 6 26 13 15 18 58 19 72 2 8 -9 10 -28 6 -47 -3
-18 -7 -38 -8 -44 -1 -12 -23 -13 -34 -1 -4 3 -1 13 5 21 7 8 11 25 9 38 -4
31 -41 36 -61 8 -11 -16 -16 -18 -20 -8 -3 7 -6 -1 -6 -19 -1 -17 3 -35 9 -38
5 -3 10 -29 10 -56 0 -33 4 -48 11 -44 11 7 49 -22 49 -37 0 -32 93 -55 102
-26 5 15 81 15 86 0 2 -7 10 -12 17 -12 19 0 25 48 8 62 -12 10 -13 14 -1 22
11 10 16 46 8 69 -6 18 -6 34 2 54 4 13 3 25 -3 29 -8 4 -7 9 2 15 9 6 10 9 2
9 -12 0 -12 17 0 38 6 9 -26 12 -152 12 -107 0 -161 -4 -161 -11z"/>
<path fill="#ffffff" stroke="none" d="M284 279 c-3 -5 -1 -9 3 -9 13 0 9 -98
-4 -111 -20 -20 -28 18 -9 40 15 17 15 20 -8 44 -14 15 -34 27 -46 27 -30 0
-24 18 8 22 36 4 63 -2 56 -13z"/>
<path fill="#ffffff" stroke="none" d="M174 224 c3 -8 2 -12 -4 -9 -6 3 -10
10 -10 16 0 14 7 11 14 -7z"/>
<path fill="#ffffff" stroke="none" d="M214 131 c7 -10 -18 -34 -27 -25 -7 8
3 34 13 34 5 0 11 -4 14 -9z"/>
<path fill="#000000" stroke="none" d="M13 73 c4 -6 3 -14 -2 -18 -16 -9 -8
-45 11 -51 10 -3 26 -1 35 5 10 6 13 11 7 11 -7 0 -11 7 -10 16 0 9 -10 23
-24 32 -13 10 -21 12 -17 5z"/>
<path fill="#000000" stroke="none" d="M228 13 c7 -3 16 -2 19 1 4 3 -2 6 -13
5 -11 0 -14 -3 -6 -6z"/>
</g>
</svg>
