<?xml version="1.0" standalone="no"?>
<!DOCTYPE svg PUBLIC "-//W3C//DTD SVG 20010904//EN"
 "http://www.w3.org/TR/2001/REC-SVG-20010904/DTD/svg10.dtd">
<svg version="1.0" xmlns="http://www.w3.org/2000/svg"
 width="32.000000pt" height="32.000000pt" viewBox="0 0 32.000000 32.000000"
 preserveAspectRatio="xMidYMid meet">
<metadata>
Created by potrace 1.16, written by Peter Selinger 2001-2019
</metadata>
<g transform="translate(0.000000,32.000000) scale(0.100000,-0.100000)"
fill="#000000" stroke="none">
<path fill="#000000" stroke="none" d="M166 311 c-3 -5 -15 -11 -26 -14 -11
-3 -18 -1 -14 4 6 10 -17 12 -40 3 -9 -3 -13 -11 -9 -18 4 -6 0 -6 -9 2 -13
10 -18 10 -24 1 -5 -8 -3 -10 7 -4 11 6 11 5 2 -5 -6 -7 -9 -20 -6 -29 4 -13
3 -14 -5 -1 -6 8 -9 17 -7 21 3 3 -4 14 -15 24 -20 18 -20 17 -20 -138 l0
-157 160 0 160 0 -1 163 c0 89 -2 158 -5 152 -5 -12 -99 -14 -110 -2 -10 10
-32 9 -38 -2z"/>
<path fill="#ffffff" stroke="none" d="M235 277 c21 -16 14 -64 -11 -74 -33
-13 -92 41 -80 73 7 18 66 18 91 1z"/>
<path fill="#ffffff" stroke="none" d="M134 222 c3 -5 -1 -9 -9 -9 -8 0 -12 4
-9 9 3 4 7 8 9 8 2 0 6 -4 9 -8z"/>
<path fill="#ffffff" stroke="none" d="M181 187 c-1 -12 -15 -9 -19 4 -3 6 1
10 8 8 6 -3 11 -8 11 -12z"/>
<path fill="#ffffff" stroke="none" d="M132 163 c18 -16 24 -50 10 -68 -12
-17 -52 -36 -52 -25 0 5 -7 10 -15 10 -8 0 -15 4 -15 10 0 5 -7 7 -16 3 -12
-4 -15 -2 -12 8 3 8 11 13 17 12 6 -2 11 8 11 22 0 22 22 44 44 45 5 0 18 -7
28 -17z"/>
<path fill="#ffffff" stroke="none" d="M50 140 c0 -5 -4 -10 -10 -10 -5 0 -10
5 -10 10 0 6 5 10 10 10 6 0 10 -4 10 -10z"/>
<path fill="#ffffff" stroke="none" d="M295 105 c0 -23 -4 -30 -20 -30 -21 0
-31 25 -21 51 11 28 41 12 41 -21z"/>
<path fill="#ffffff" stroke="none" d="M50 65 c19 0 26 -35 8 -46 -20 -13 -35
-11 -42 7 -8 20 3 61 13 48 3 -5 13 -9 21 -9z"/>
<path fill="#ffffff" stroke="none" d="M135 60 c-3 -5 -12 -10 -18 -10 -7 0
-6 4 3 10 19 12 23 12 15 0z"/>
<path fill="#ffffff" stroke="none" d="M215 45 c0 -13 -8 -21 -21 -23 -19 -3
-24 12 -15 46 1 2 9 2 19 0 9 -2 17 -12 17 -23z"/>
</g>
</svg>
