<?xml version="1.0" standalone="no"?>
<!DOCTYPE svg PUBLIC "-//W3C//DTD SVG 20010904//EN"
 "http://www.w3.org/TR/2001/REC-SVG-20010904/DTD/svg10.dtd">
<svg version="1.0" xmlns="http://www.w3.org/2000/svg"
 width="32.000000pt" height="32.000000pt" viewBox="0 0 32.000000 32.000000"
 preserveAspectRatio="xMidYMid meet">
<metadata>
Created by potrace 1.16, written by Peter Selinger 2001-2019
</metadata>
<g transform="translate(0.000000,32.000000) scale(0.100000,-0.100000)"
fill="#000000" stroke="none">
<path fill="#000000" stroke="none" d="M19 291 c14 -25 14 -221 1 -256 -9 -24
-8 -25 11 -15 12 7 67 10 142 8 l122 -3 -3 122 c-2 75 1 130 8 142 10 19 9 20
-15 11 -35 -13 -231 -13 -256 1 -19 9 -19 9 -10 -10z"/>
<path fill="#ffffff" stroke="none" d="M277 179 c-3 -69 -10 -106 -19 -116
-10 -10 -47 -16 -116 -19 l-102 -5 0 120 0 121 121 0 121 0 -5 -101z"/>
<path fill="#000000" stroke="none" d="M190 255 c-8 -10 -30 -15 -61 -15 l-49
0 0 -49 c0 -31 -5 -53 -15 -61 -8 -7 -15 -28 -15 -48 0 -33 1 -34 18 -19 14
13 38 17 95 17 l77 0 0 77 c0 57 4 81 17 95 15 17 14 18 -19 18 -20 0 -41 -7
-48 -15z"/>
<path fill="#ffffff" stroke="none" d="M226 159 l0 -65 -65 0 -66 1 -3 68 -3
68 68 -3 68 -3 1 -66z"/>
<path fill="#000000" stroke="none" d="M126 191 c-20 -21 -27 -37 -24 -60 l3
-32 60 61 59 60 -35 0 c-26 0 -43 -8 -63 -29z"/>
</g>
</svg>
