<?xml version="1.0" standalone="no"?>
<!DOCTYPE svg PUBLIC "-//W3C//DTD SVG 20010904//EN"
 "http://www.w3.org/TR/2001/REC-SVG-20010904/DTD/svg10.dtd">
<svg version="1.0" xmlns="http://www.w3.org/2000/svg"
 width="32.000000pt" height="32.000000pt" viewBox="0 0 32.000000 32.000000"
 preserveAspectRatio="xMidYMid meet">
<metadata>
Created by potrace 1.16, written by Peter Selinger 2001-2019
</metadata>
<g transform="translate(0.000000,32.000000) scale(0.100000,-0.100000)"
fill="#000000" stroke="none">
<path fill="#000000" stroke="none" d="M0 160 l0 -160 160 0 160 0 0 160 0
160 -160 0 -160 0 0 -160z"/>
<path fill="#ffffff" stroke="none" d="M231 280 c44 -24 5 -79 -47 -66 -26 7
-48 40 -40 62 6 16 58 19 87 4z"/>
<path fill="#ffffff" stroke="none" d="M132 163 c35 -31 16 -73 -33 -73 -55 0
-50 88 5 90 5 0 18 -7 28 -17z"/>
<path fill="#ffffff" stroke="none" d="M295 104 c0 -19 -5 -29 -15 -29 -16 0
-25 28 -16 51 10 25 31 10 31 -22z"/>
<path fill="#ffffff" stroke="none" d="M68 47 c2 -10 -3 -17 -12 -17 -18 0
-29 16 -21 31 9 14 29 6 33 -14z"/>
<path fill="#ffffff" stroke="none" d="M218 53 c2 -8 -5 -13 -17 -13 -21 0
-35 13 -24 24 10 10 36 3 41 -11z"/>
</g>
</svg>
