<?xml version="1.0" standalone="no"?>
<!DOCTYPE svg PUBLIC "-//W3C//DTD SVG 20010904//EN"
 "http://www.w3.org/TR/2001/REC-SVG-20010904/DTD/svg10.dtd">
<svg version="1.0" xmlns="http://www.w3.org/2000/svg"
 width="32.000000pt" height="32.000000pt" viewBox="0 0 32.000000 32.000000"
 preserveAspectRatio="xMidYMid meet">
<metadata>
Created by potrace 1.16, written by Peter Selinger 2001-2019
</metadata>
<g transform="translate(0.000000,32.000000) scale(0.100000,-0.100000)"
fill="#000000" stroke="none">
<path fill="#000000" stroke="none" d="M0 160 l0 -160 158 2 c145 2 150 2 62
8 l-95 6 88 2 c75 2 87 4 88 20 0 14 2 14 9 -3 6 -13 8 7 8 60 0 60 -2 71 -8
45 -6 -29 -7 -23 -8 30 0 49 2 58 8 35 6 -23 8 -12 9 43 l1 72 -102 -1 c-67
-1 -94 -4 -78 -9 21 -7 17 -8 -20 -8 -34 -1 -40 2 -25 8 16 7 11 9 -20 9 -31
0 -36 -2 -20 -9 18 -8 17 -9 -7 -9 -16 -1 -28 -8 -31 -18 -4 -14 -5 -13 -6 4
0 12 5 24 12 26 7 3 5 6 -5 6 -16 1 -18 -13 -18 -159z"/>
<path fill="#ffffff" stroke="none" d="M308 273 c-1 -37 -1 -37 -5 -6 -4 31
-6 32 -56 36 l-52 3 58 2 57 2 -2 -37z"/>
<path fill="#ffffff" stroke="none" d="M44 263 c-2 -16 -1 -20 2 -11 4 12 16
17 47 16 23 0 43 5 45 11 2 6 9 11 17 11 15 0 28 -81 14 -95 -5 -5 -9 0 -9 16
0 27 -16 49 -37 49 -20 0 -15 -31 9 -57 28 -30 15 -43 -15 -15 -28 26 -44 28
-69 5 -17 -15 -18 -15 -18 7 0 16 4 20 15 16 8 -3 15 -1 15 3 0 5 -7 11 -15
15 -16 6 -21 56 -6 56 4 0 7 -12 5 -27z"/>
<path fill="#ffffff" stroke="none" d="M283 283 c-7 -2 -19 -2 -25 0 -7 3 -2
5 12 5 14 0 19 -2 13 -5z"/>
<path fill="#ffffff" stroke="none" d="M270 256 c0 -27 -12 -46 -29 -46 -9 0
-41 -26 -71 -57 -30 -32 -45 -49 -33 -39 20 17 23 17 38 2 9 -9 13 -16 8 -17
-4 0 3 -5 16 -10 13 -5 21 -12 18 -15 -3 -3 -14 -1 -24 5 -34 18 -77 19 -96 3
-22 -19 -34 -8 -16 15 12 16 12 17 -1 7 -23 -16 -50 -25 -50 -15 0 10 56 32
63 25 2 -2 11 4 21 15 14 15 14 20 3 30 -11 8 -18 6 -32 -9 -10 -11 -28 -20
-39 -19 -15 0 -16 2 -6 6 8 3 25 17 37 32 l22 26 17 -23 16 -24 39 38 c22 21
39 46 39 55 0 10 6 20 13 22 24 10 47 7 47 -7z"/>
<path fill="#ffffff" stroke="none" d="M17 213 c-3 -10 -5 -2 -5 17 0 19 2 27
5 18 2 -10 2 -26 0 -35z"/>
<path fill="#ffffff" stroke="none" d="M140 230 c0 -5 -5 -10 -11 -10 -5 0 -7
5 -4 10 3 6 8 10 11 10 2 0 4 -4 4 -10z"/>
<path fill="#ffffff" stroke="none" d="M290 214 c0 -8 -4 -12 -10 -9 -5 3 -10
10 -10 16 0 5 5 9 10 9 6 0 10 -7 10 -16z"/>
<path fill="#ffffff" stroke="none" d="M226 165 c7 -18 35 -20 52 -3 19 19 13
-5 -7 -29 -22 -26 -33 -30 -25 -8 4 8 2 15 -2 15 -5 0 -20 3 -34 7 -24 5 -23
4 9 -30 44 -47 32 -62 -14 -17 -32 31 -33 34 -18 56 18 28 31 30 39 9z"/>
<path fill="#ffffff" stroke="none" d="M17 82 c-2 -15 -4 -2 -4 28 0 30 2 43
4 27 2 -15 2 -39 0 -55z"/>
<path fill="#ffffff" stroke="none" d="M307 78 c-3 -8 -6 -5 -6 6 -1 11 2 17
5 13 3 -3 4 -12 1 -19z"/>
<path fill="#ffffff" stroke="none" d="M284 38 c7 -5 5 -8 -6 -8 -10 0 -18 5
-18 12 0 9 -3 9 -12 0 -7 -7 -32 -11 -57 -11 l-46 2 49 6 c30 5 54 14 60 24
10 16 11 16 15 0 2 -10 8 -21 15 -25z"/>
<path fill="#ffffff" stroke="none" d="M140 66 c0 -8 -63 -36 -79 -35 -9 0 2
9 24 20 40 19 55 23 55 15z"/>
<path fill="#ffffff" stroke="none" d="M43 17 c18 -4 17 -5 -5 -6 -23 -1 -28
3 -27 22 1 15 3 17 6 5 2 -9 14 -19 26 -21z"/>
<path fill="#ffffff" stroke="none" d="M103 13 c-7 -2 -19 -2 -25 0 -7 3 -2 5
12 5 14 0 19 -2 13 -5z"/>
<path fill="#000000" stroke="none" d="M67 244 c3 -8 14 -19 25 -25 17 -9 18
-8 9 9 -13 24 -43 38 -34 16z"/>
<path fill="#000000" stroke="none" d="M242 253 c-7 -2 -17 -14 -23 -25 -9
-17 -8 -18 9 -9 15 8 41 45 29 40 -1 0 -8 -3 -15 -6z"/>
</g>
</svg>
