<?xml version="1.0" standalone="no"?>
<!DOCTYPE svg PUBLIC "-//W3C//DTD SVG 20010904//EN"
 "http://www.w3.org/TR/2001/REC-SVG-20010904/DTD/svg10.dtd">
<svg version="1.0" xmlns="http://www.w3.org/2000/svg"
 width="32.000000pt" height="32.000000pt" viewBox="0 0 32.000000 32.000000"
 preserveAspectRatio="xMidYMid meet">
<metadata>
Created by potrace 1.16, written by Peter Selinger 2001-2019
</metadata>
<g transform="translate(0.000000,32.000000) scale(0.100000,-0.100000)"
fill="#000000" stroke="none">
<path fill="#000000" stroke="none" d="M0 160 l0 -160 160 0 160 0 0 160 0
160 -160 0 -160 0 0 -160z"/>
<path fill="#ffffff" stroke="none" d="M211 210 c-22 -19 -41 -26 -41 -15 0 5
51 34 60 34 3 0 -6 -9 -19 -19z"/>
<path fill="#ffffff" stroke="none" d="M210 185 c0 -2 -22 -16 -50 -30 -27
-14 -50 -23 -50 -20 0 2 21 16 48 29 53 28 52 28 52 21z"/>
<path fill="#ffffff" stroke="none" d="M187 118 c-3 -7 -5 -2 -5 12 0 14 2 19
5 13 2 -7 2 -19 0 -25z"/>
<path fill="#ffffff" stroke="none" d="M198 83 c2 -9 -9 -13 -37 -13 -39 0
-50 8 -34 24 11 11 66 2 71 -11z"/>
<path fill="#ffffff" stroke="none" d="M173 53 c-7 -2 -21 -2 -30 0 -10 3 -4
5 12 5 17 0 24 -2 18 -5z"/>
<path fill="#000000" stroke="none" d="M143 83 c9 -2 25 -2 35 0 9 3 1 5 -18
5 -19 0 -27 -2 -17 -5z"/>
</g>
</svg>
