<?xml version="1.0" standalone="no"?>
<!DOCTYPE svg PUBLIC "-//W3C//DTD SVG 20010904//EN"
 "http://www.w3.org/TR/2001/REC-SVG-20010904/DTD/svg10.dtd">
<svg version="1.0" xmlns="http://www.w3.org/2000/svg"
 width="32.000000pt" height="32.000000pt" viewBox="0 0 32.000000 32.000000"
 preserveAspectRatio="xMidYMid meet">
<metadata>
Created by potrace 1.16, written by Peter Selinger 2001-2019
</metadata>
<g transform="translate(0.000000,32.000000) scale(0.100000,-0.100000)"
fill="#000000" stroke="none">
<path fill="#000000" stroke="none" d="M12 258 c2 -30 8 -53 16 -56 6 -2 12 3
12 11 0 20 29 30 47 15 11 -9 16 -9 22 0 4 7 11 4 20 -10 12 -19 11 -20 -9
-15 -12 3 -19 3 -16 0 3 -3 -4 -19 -16 -35 -16 -23 -18 -32 -9 -41 9 -9 11 -8
6 6 -8 19 14 24 32 6 8 -8 13 -8 17 0 4 6 3 11 -3 11 -6 0 -7 8 -4 18 6 15 5
15 -10 3 -10 -8 -17 -9 -17 -3 0 18 18 24 40 12 11 -6 17 -16 14 -22 -4 -7 -2
-8 5 -4 9 6 9 11 -1 23 -10 12 -9 17 5 24 9 6 17 15 17 21 0 6 -6 6 -15 -2
-12 -10 -19 -10 -27 -2 -9 9 -9 12 0 13 7 1 17 2 24 3 6 0 12 10 14 20 3 22
34 57 34 38 0 -7 10 -12 23 -12 13 0 29 -6 36 -12 11 -10 13 -10 7 0 -4 6 -2
12 3 12 6 0 11 -22 11 -51 0 -35 4 -49 12 -47 8 3 13 27 13 66 l1 62 -109 0
c-82 0 -108 -3 -105 -12 3 -7 18 -15 33 -18 l29 -5 -27 -12 c-19 -9 -27 -9
-27 -2 0 7 -12 9 -35 5 -22 -4 -35 -3 -35 4 0 5 11 10 25 10 14 0 25 4 25 9 0
12 -25 21 -56 21 -24 0 -25 -3 -22 -52z"/>
<path fill="#000000" stroke="none" d="M187 249 c-5 -19 -4 -20 12 -5 19 17
33 10 42 -22 3 -8 8 -5 17 8 11 17 10 20 -7 20 -11 0 -23 5 -26 10 -11 17 -32
11 -38 -11z"/>
<path fill="#000000" stroke="none" d="M70 215 c11 -13 10 -14 -4 -9 -11 4
-19 -1 -25 -17 -5 -13 -10 -18 -10 -11 -1 6 -6 12 -11 12 -7 0 -10 -35 -9 -92
l1 -93 92 1 c123 2 126 2 126 17 0 10 -15 12 -61 9 -55 -4 -60 -3 -57 14 2 11
8 22 13 26 6 5 3 8 -6 8 -21 0 -43 -26 -34 -40 4 -6 -4 -10 -19 -10 -14 0 -26
5 -26 11 0 5 -4 7 -10 4 -15 -9 -12 4 4 21 17 16 32 2 20 -18 -4 -7 7 2 24 21
34 36 39 45 20 38 -7 -2 -21 8 -32 22 -10 14 -16 18 -12 9 3 -10 1 -18 -4 -18
-6 0 -10 9 -10 20 0 11 7 20 15 20 9 0 20 12 25 26 11 27 6 44 -12 44 -6 0 -6
-6 2 -15z"/>
<path fill="#000000" stroke="none" d="M196 217 c-26 -19 -17 -52 14 -52 18 0
26 6 28 23 2 16 -2 22 -15 22 -15 0 -16 2 -3 10 8 5 10 10 4 10 -5 0 -18 -6
-28 -13z"/>
<path fill="#000000" stroke="none" d="M255 210 c-5 -15 -2 -25 6 -31 10 -6
15 -2 17 12 5 31 -14 46 -23 19z"/>
<path fill="#000000" stroke="none" d="M250 154 c0 -8 5 -12 10 -9 6 3 10 10
10 16 0 5 -4 9 -10 9 -5 0 -10 -7 -10 -16z"/>
<path fill="#000000" stroke="none" d="M295 164 c-7 -3 -9 -30 -7 -69 4 -64 4
-65 -22 -65 -14 0 -26 -4 -26 -9 0 -14 28 -21 52 -12 21 7 23 15 23 85 1 42
-2 76 -5 75 -3 0 -10 -3 -15 -5z"/>
<path fill="#000000" stroke="none" d="M151 137 c-29 -14 -36 -46 -13 -54 9
-3 25 -15 35 -27 18 -21 18 -21 8 0 -5 11 -6 26 -1 34 5 8 4 22 -2 33 -9 17
-8 19 6 14 10 -4 15 -3 11 3 -8 13 -15 12 -44 -3z"/>
<path fill="#000000" stroke="none" d="M215 140 c-3 -5 -2 -10 4 -10 11 0 4
-51 -10 -65 -12 -12 -12 -28 2 -20 5 4 15 19 20 33 l10 26 15 -29 c18 -36 30
-48 19 -20 -4 11 -7 28 -7 37 0 10 -2 17 -6 17 -19 -3 -33 2 -28 10 3 5 15 7
26 4 11 -3 20 0 20 6 0 5 -6 8 -14 5 -8 -3 -17 -1 -21 5 -8 14 -22 14 -30 1z"/>
<path fill="#000000" stroke="none" d="M135 60 c3 -5 8 -10 11 -10 2 0 4 5 4
10 0 6 -5 10 -11 10 -5 0 -7 -4 -4 -10z"/>
</g>
</svg>
