<?xml version="1.0" standalone="no"?>
<!DOCTYPE svg PUBLIC "-//W3C//DTD SVG 20010904//EN"
 "http://www.w3.org/TR/2001/REC-SVG-20010904/DTD/svg10.dtd">
<svg version="1.0" xmlns="http://www.w3.org/2000/svg"
 width="32.000000pt" height="32.000000pt" viewBox="0 0 32.000000 32.000000"
 preserveAspectRatio="xMidYMid meet">
<metadata>
Created by potrace 1.16, written by Peter Selinger 2001-2019
</metadata>
<g transform="translate(0.000000,32.000000) scale(0.100000,-0.100000)"
fill="#000000" stroke="none">
<path fill="#000000" stroke="none" d="M10 155 l0 -155 155 0 155 0 0 155 0
155 -155 0 -155 0 0 -155z"/>
<path fill="#ffffff" stroke="none" d="M84 272 c2 -4 -6 -9 -20 -10 -13 -1
-24 3 -24 8 0 12 37 14 44 2z"/>
<path fill="#ffffff" stroke="none" d="M120 270 c0 -5 -2 -10 -4 -10 -3 0 -8
5 -11 10 -3 6 -1 10 4 10 6 0 11 -4 11 -10z"/>
<path fill="#ffffff" stroke="none" d="M155 244 c0 -19 3 -38 9 -41 5 -3 6 -2
3 4 -4 6 -1 18 6 27 12 16 14 16 26 2 8 -9 9 -16 3 -16 -6 0 -12 3 -15 8 -2 4
-2 1 0 -6 1 -7 -2 -10 -8 -6 -8 4 -8 0 0 -15 10 -18 8 -21 -14 -27 -20 -5 -23
-9 -14 -20 6 -8 19 -14 29 -14 9 0 20 -3 24 -7 3 -4 13 -8 21 -9 23 -3 18 27
-5 33 -18 5 -30 25 -12 22 20 -3 32 2 27 12 -4 6 -13 8 -21 5 -7 -3 -16 -1
-19 4 -3 5 4 11 15 15 28 9 20 48 -11 56 -21 6 -20 7 9 8 28 1 32 -2 32 -24 0
-30 36 -36 43 -7 3 9 5 -6 6 -35 1 -47 -1 -51 -20 -46 -17 5 -20 2 -17 -17 1
-13 9 -25 17 -28 9 -3 11 0 6 8 -5 9 -4 11 3 6 19 -11 14 -37 -5 -34 -10 2
-21 7 -24 11 -3 4 -12 1 -19 -8 -10 -13 -9 -15 6 -15 16 0 16 -2 4 -9 -18 -12
-29 -5 -40 25 -5 13 -15 24 -22 24 -9 0 -8 -3 2 -10 8 -5 10 -10 4 -10 -7 0
-19 11 -28 25 -9 14 -22 23 -28 19 -7 -4 -8 -3 -4 4 5 8 -2 11 -22 8 -38 -4
-55 -15 -48 -32 3 -7 1 -16 -4 -19 -6 -4 -10 7 -10 24 0 21 5 31 16 31 8 0 12
4 9 10 -4 6 1 7 12 3 16 -6 16 -5 4 11 -8 9 -20 15 -28 12 -7 -3 -13 1 -13 9
0 8 3 15 8 16 4 0 17 2 30 3 12 2 22 -1 22 -6 0 -4 -7 -8 -17 -8 -14 0 -14 -2
2 -20 13 -14 29 -20 51 -18 31 2 32 3 17 20 -8 10 -21 15 -27 12 -6 -3 -3 1 7
9 15 13 16 19 7 36 -8 17 -8 21 3 21 9 0 13 -12 12 -36z"/>
<path fill="#ffffff" stroke="none" d="M122 113 c2 -10 -7 -26 -19 -36 -13
-10 -23 -25 -23 -33 0 -8 -9 -14 -20 -14 -15 0 -20 7 -20 26 0 15 4 23 11 19
6 -4 8 -14 5 -22 -3 -8 8 -1 24 15 30 30 37 43 23 41 -20 -3 -26 2 -13 11 21
14 28 12 32 -7z"/>
<path fill="#ffffff" stroke="none" d="M150 120 c0 -5 -5 -10 -11 -10 -5 0 -7
5 -4 10 3 6 8 10 11 10 2 0 4 -4 4 -10z"/>
<path fill="#ffffff" stroke="none" d="M190 90 c0 -5 -7 -10 -16 -10 -8 0 -12
5 -9 10 3 6 10 10 16 10 5 0 9 -4 9 -10z"/>
<path fill="#ffffff" stroke="none" d="M290 74 c0 -14 -3 -14 -15 -4 -8 7 -15
14 -15 16 0 2 7 4 15 4 8 0 15 -7 15 -16z"/>
<path fill="#ffffff" stroke="none" d="M140 70 c5 9 12 7 26 -8 11 -10 26 -22
34 -25 8 -3 -6 -6 -31 -6 -53 -1 -59 2 -51 32 3 13 7 16 10 8 3 -10 6 -10 12
-1z"/>
<path fill="#ffffff" stroke="none" d="M235 54 c9 -9 13 -19 10 -22 -3 -3 -15
4 -28 16 -12 12 -16 22 -10 22 6 0 19 -7 28 -16z"/>
<path fill="#000000" stroke="none" d="M242 196 c2 -17 7 -22 20 -18 25 6 24
42 -2 42 -15 0 -19 -6 -18 -24z"/>
<path fill="#000000" stroke="none" d="M140 50 c0 -5 5 -10 10 -10 6 0 10 5
10 10 0 6 -4 10 -10 10 -5 0 -10 -4 -10 -10z"/>
</g>
</svg>
