<?xml version="1.0" standalone="no"?>
<!DOCTYPE svg PUBLIC "-//W3C//DTD SVG 20010904//EN"
 "http://www.w3.org/TR/2001/REC-SVG-20010904/DTD/svg10.dtd">
<svg version="1.0" xmlns="http://www.w3.org/2000/svg"
 width="32.000000pt" height="32.000000pt" viewBox="0 0 32.000000 32.000000"
 preserveAspectRatio="xMidYMid meet">
<metadata>
Created by potrace 1.16, written by Peter Selinger 2001-2019
</metadata>
<g transform="translate(0.000000,32.000000) scale(0.100000,-0.100000)"
fill="#000000" stroke="none">
<path fill="#000000" stroke="none" d="M0 160 l0 -160 160 0 160 0 -2 153 c-1
104 -3 124 -5 62 -2 -49 -8 -94 -13 -99 -7 -7 -10 -4 -10 7 0 9 -3 16 -7 16
-26 -4 -35 3 -30 22 4 14 1 19 -7 16 -7 -3 -13 4 -14 16 -1 16 1 18 7 8 11
-18 31 -5 31 20 0 13 -4 18 -12 13 -6 -4 -8 -3 -4 4 3 5 1 12 -6 14 -7 3 -3 7
9 10 20 5 21 2 19 -38 -1 -24 1 -49 6 -56 4 -8 8 14 8 50 0 46 -3 62 -13 60
-12 -3 -17 3 -17 21 0 6 15 12 33 14 17 2 -41 5 -130 5 l-163 2 0 -160z"/>
<path fill="#ffffff" stroke="none" d="M240 295 c-7 -8 -23 -15 -36 -15 -13 0
-27 -6 -31 -14 -4 -7 -18 -18 -30 -25 -19 -10 -23 -9 -23 5 0 10 5 14 14 11 8
-3 17 1 20 9 4 11 -6 14 -53 14 l-59 0 0 -40 c-1 -28 3 -40 13 -40 9 0 12 -6
9 -15 -4 -8 -10 -12 -15 -9 -5 3 -9 -28 -9 -70 0 -62 3 -76 16 -76 8 0 12 -5
9 -10 -3 -6 -17 -10 -31 -10 l-24 0 0 150 0 150 121 0 c107 0 120 -2 109 -15z"/>
<path fill="#ffffff" stroke="none" d="M226 248 c1 -10 -4 -18 -12 -18 -9 0
-12 5 -9 10 3 6 1 10 -4 10 -6 0 -11 5 -11 11 0 18 33 5 36 -13z"/>
<path fill="#ffffff" stroke="none" d="M105 235 c0 -11 8 -21 18 -23 9 -2 17
-8 17 -13 0 -6 6 -7 13 -3 8 6 8 3 -1 -9 -9 -11 -11 -27 -7 -48 5 -22 3 -34
-6 -41 -11 -8 -11 -11 -1 -15 8 -3 4 -11 -13 -25 -19 -15 -29 -17 -39 -9 -9 8
-16 7 -25 -2 -10 -9 -11 -8 -6 5 4 10 15 20 25 23 37 12 62 43 54 67 -4 13 -7
26 -6 31 1 4 -4 7 -10 7 -9 0 -8 4 2 10 13 9 13 10 0 11 -8 1 -19 1 -25 -1 -5
-1 -15 7 -22 16 -9 12 -13 14 -13 4 0 -7 -3 -11 -6 -8 -3 4 0 16 6 28 14 26
45 22 45 -5z"/>
<path fill="#ffffff" stroke="none" d="M203 225 c18 -13 18 -14 -1 -24 -21
-11 -42 2 -42 26 0 17 20 16 43 -2z"/>
<path fill="#ffffff" stroke="none" d="M100 139 c0 -25 -33 -22 -38 4 -2 12 3
17 17 17 15 0 21 -6 21 -21z"/>
<path fill="#ffffff" stroke="none" d="M170 146 c-1 -5 4 -13 12 -17 10 -7 8
-9 -6 -9 -12 0 -16 5 -13 14 3 8 2 17 -4 20 -5 2 -5 4 1 3 7 -2 11 -6 10 -11z"/>
<path fill="#ffffff" stroke="none" d="M243 140 c11 -10 -1 -50 -13 -50 -5 0
-6 7 -3 17 4 11 3 14 -5 9 -8 -5 -12 0 -12 14 0 12 -4 18 -10 15 -5 -3 -10 -1
-10 5 0 12 38 5 53 -10z"/>
<path fill="#ffffff" stroke="none" d="M79 91 c-3 -6 -10 -7 -18 -2 -7 5 -10
14 -6 21 9 14 29 -2 24 -19z"/>
<path fill="#ffffff" stroke="none" d="M190 106 c0 -2 -7 -6 -15 -10 -8 -3
-15 -1 -15 4 0 6 7 10 15 10 8 0 15 -2 15 -4z"/>
<path fill="#ffffff" stroke="none" d="M270 100 c0 -5 -5 -10 -11 -10 -5 0 -7
5 -4 10 3 6 8 10 11 10 2 0 4 -4 4 -10z"/>
<path fill="#ffffff" stroke="none" d="M242 78 c14 1 29 -2 33 -8 4 -6 -9 -8
-35 -6 -32 3 -40 1 -40 -12 -1 -15 -2 -15 -11 1 -12 20 -3 40 14 30 6 -4 24
-6 39 -5z"/>
<path fill="#ffffff" stroke="none" d="M310 44 l0 -34 -115 0 c-70 0 -115 4
-115 10 0 6 37 10 90 10 76 0 88 2 84 15 -5 11 -2 13 10 9 9 -3 13 -10 10 -15
-3 -5 0 -9 5 -9 6 0 11 14 11 31 0 17 4 28 10 24 6 -3 10 -22 10 -41z"/>
<path fill="#000000" stroke="none" d="M80 220 c0 -5 5 -10 11 -10 5 0 7 5 4
10 -3 6 -8 10 -11 10 -2 0 -4 -4 -4 -10z"/>
</g>
</svg>
