<?xml version="1.0" standalone="no"?>
<!DOCTYPE svg PUBLIC "-//W3C//DTD SVG 20010904//EN"
 "http://www.w3.org/TR/2001/REC-SVG-20010904/DTD/svg10.dtd">
<svg version="1.0" xmlns="http://www.w3.org/2000/svg"
 width="32.000000pt" height="32.000000pt" viewBox="0 0 32.000000 32.000000"
 preserveAspectRatio="xMidYMid meet">
<metadata>
Created by potrace 1.16, written by Peter Selinger 2001-2019
</metadata>
<g transform="translate(0.000000,32.000000) scale(0.100000,-0.100000)"
fill="#000000" stroke="none">
<path fill="#000000" stroke="none" d="M0 160 l0 -160 160 0 160 0 -2 153 -2
152 -3 -147 -4 -148 -149 0 -150 0 0 150 0 149 158 4 157 3 -162 2 -163 2 0
-160z"/>
<path fill="#000000" stroke="none" d="M40 264 c0 -8 5 -12 10 -9 6 3 10 1 10
-4 0 -6 -4 -11 -10 -11 -5 0 -10 -9 -10 -20 0 -11 7 -20 15 -20 9 0 12 -6 9
-15 -4 -8 -10 -12 -15 -9 -5 3 -9 -28 -9 -70 l0 -76 87 0 c85 0 86 0 69 19
-22 25 -13 45 14 31 15 -8 23 -6 38 10 l20 21 0 -25 c-1 -22 -4 -24 -34 -21
-19 2 -34 1 -34 -2 0 -13 37 -32 63 -33 l27 0 0 125 c0 74 -4 125 -10 125 -5
0 -6 -7 -3 -17 4 -11 3 -14 -6 -9 -6 4 -10 4 -9 -1 2 -4 -2 -8 -7 -8 -5 0 -10
8 -9 18 1 15 -6 17 -35 15 -33 -3 -36 -6 -36 -33 0 -24 4 -30 20 -28 11 1 15
0 10 -2 -6 -3 -9 -22 -7 -43 4 -31 3 -35 -10 -24 -8 6 -18 9 -21 6 -3 -4 -5 3
-4 14 0 12 6 18 14 15 9 -4 11 0 7 11 -3 9 -9 14 -13 12 -6 -4 -11 14 -14 57
-1 12 -10 17 -29 17 -21 0 -26 -4 -21 -16 3 -9 0 -20 -8 -25 -22 -14 -29 -11
-29 12 0 13 4 18 12 13 7 -4 8 -3 4 4 -11 18 -46 15 -46 -4z"/>
<path fill="#ffffff" stroke="none" d="M226 248 c1 -13 -4 -17 -20 -16 -17 2
-22 7 -18 21 6 22 34 19 38 -5z"/>
<path fill="#ffffff" stroke="none" d="M145 250 c3 -5 2 -10 -3 -10 -6 0 -13
-7 -16 -16 -3 -8 -2 -13 3 -10 5 3 11 -2 13 -12 4 -13 -1 -18 -19 -20 -32 -2
-39 21 -16 52 20 28 29 31 38 16z"/>
<path fill="#ffffff" stroke="none" d="M280 200 c0 -12 -7 -20 -17 -20 -17 -1
-17 -2 1 -15 10 -7 15 -18 11 -24 -10 -17 -25 -13 -25 6 0 9 -8 25 -17 36 -10
11 -12 17 -5 13 7 -4 12 -1 12 8 0 9 9 16 20 16 13 0 20 -7 20 -20z"/>
<path fill="#ffffff" stroke="none" d="M100 139 c0 -25 -33 -22 -38 4 -2 12 3
17 17 17 15 0 21 -6 21 -21z"/>
<path fill="#ffffff" stroke="none" d="M167 123 c17 -18 19 -23 6 -23 -10 0
-13 -6 -9 -16 5 -12 2 -15 -10 -10 -12 5 -15 2 -10 -11 5 -16 5 -16 -6 -2 -7
9 -18 14 -23 12 -6 -2 -11 7 -12 19 0 13 1 17 4 11 3 -7 9 -13 14 -13 4 0 5 8
2 18 -6 15 -5 16 11 2 17 -13 18 -12 14 5 -2 11 -11 19 -21 19 -9 -1 -17 4
-17 12 0 18 29 7 57 -23z"/>
<path fill="#ffffff" stroke="none" d="M236 126 c1 -25 0 -25 -17 -10 -10 9
-15 22 -12 30 9 23 28 10 29 -20z"/>
<path fill="#ffffff" stroke="none" d="M79 91 c-3 -6 -10 -7 -18 -2 -7 5 -10
14 -6 21 9 14 29 -2 24 -19z"/>
<path fill="#ffffff" stroke="none" d="M61 47 c-10 -9 -11 -8 -5 6 3 10 9 15
12 12 3 -3 0 -11 -7 -18z"/>
<path fill="#ffffff" stroke="none" d="M110 50 c0 -5 -4 -10 -9 -10 -6 0 -13
5 -16 10 -3 6 1 10 9 10 9 0 16 -4 16 -10z"/>
<path fill="#ffffff" stroke="none" d="M280 44 c0 -2 -7 -4 -15 -4 -8 0 -15 4
-15 10 0 5 7 7 15 4 8 -4 15 -8 15 -10z"/>
</g>
</svg>
