<?xml version="1.0" standalone="no"?>
<!DOCTYPE svg PUBLIC "-//W3C//DTD SVG 20010904//EN"
 "http://www.w3.org/TR/2001/REC-SVG-20010904/DTD/svg10.dtd">
<svg version="1.0" xmlns="http://www.w3.org/2000/svg"
 width="32.000000pt" height="32.000000pt" viewBox="0 0 32.000000 32.000000"
 preserveAspectRatio="xMidYMid meet">
<metadata>
Created by potrace 1.16, written by Peter Selinger 2001-2019
</metadata>
<g transform="translate(0.000000,32.000000) scale(0.100000,-0.100000)"
fill="#000000" stroke="none">
<path fill="#000000" stroke="none" d="M12 158 l2 -153 3 147 4 147 42 4 42 4
-47 1 -48 2 2 -152z"/>
<path fill="#000000" stroke="none" d="M106 294 c-5 -13 -3 -14 7 -6 7 6 40
13 72 15 l60 3 -66 2 c-54 2 -68 -1 -73 -14z"/>
<path fill="#000000" stroke="none" d="M256 293 c-6 -14 -5 -15 5 -6 7 7 10
15 7 18 -3 3 -9 -2 -12 -12z"/>
<path fill="#000000" stroke="none" d="M288 303 c7 -3 16 -2 19 1 4 3 -2 6
-13 5 -11 0 -14 -3 -6 -6z"/>
<path fill="#000000" stroke="none" d="M190 261 c0 -5 7 -11 15 -15 8 -3 15
-1 15 3 0 5 -7 11 -15 15 -8 3 -15 1 -15 -3z"/>
<path fill="#000000" stroke="none" d="M70 239 c0 -5 5 -7 10 -4 6 3 10 8 10
11 0 2 -4 4 -10 4 -5 0 -10 -5 -10 -11z"/>
<path fill="#000000" stroke="none" d="M180 215 c7 -9 15 -13 17 -11 7 7 -7
26 -19 26 -6 0 -6 -6 2 -15z"/>
<path fill="#000000" stroke="none" d="M260 155 c0 -9 5 -15 11 -13 6 2 11 8
11 13 0 5 -5 11 -11 13 -6 2 -11 -4 -11 -13z"/>
<path fill="#000000" stroke="none" d="M70 140 c-13 -8 -12 -10 3 -10 9 0 17
5 17 10 0 12 -1 12 -20 0z"/>
<path fill="#000000" stroke="none" d="M216 135 c-3 -9 0 -15 9 -15 16 0 20
16 6 24 -5 3 -11 -1 -15 -9z"/>
<path fill="#000000" stroke="none" d="M80 58 c0 -10 17 -10 24 0 3 5 -1 9 -9
9 -8 0 -15 -4 -15 -9z"/>
</g>
</svg>
