<?xml version="1.0" standalone="no"?>
<!DOCTYPE svg PUBLIC "-//W3C//DTD SVG 20010904//EN"
 "http://www.w3.org/TR/2001/REC-SVG-20010904/DTD/svg10.dtd">
<svg version="1.0" xmlns="http://www.w3.org/2000/svg"
 width="32.000000pt" height="32.000000pt" viewBox="0 0 32.000000 32.000000"
 preserveAspectRatio="xMidYMid meet">
<metadata>
Created by potrace 1.16, written by Peter Selinger 2001-2019
</metadata>
<g transform="translate(0.000000,32.000000) scale(0.100000,-0.100000)"
fill="#000000" stroke="none">
<path fill="#000000" stroke="none" d="M10 296 c0 -9 7 -12 20 -9 26 7 26 23
0 23 -11 0 -20 -6 -20 -14z"/>
<path fill="#000000" stroke="none" d="M60 295 c0 -8 5 -15 11 -15 5 0 7 5 3
12 -5 8 -2 9 9 5 9 -3 19 -2 22 3 4 6 -5 10 -19 10 -16 0 -26 -6 -26 -15z"/>
<path fill="#000000" stroke="none" d="M180 294 c0 -12 3 -14 13 -6 6 5 24 9
39 7 16 -2 30 1 34 6 3 5 -15 9 -40 9 -36 0 -46 -4 -46 -16z"/>
<path fill="#000000" stroke="none" d="M280 293 c0 -11 3 -14 8 -7 4 6 14 14
22 17 10 4 8 6 -7 6 -16 1 -23 -5 -23 -16z"/>
<path fill="#000000" stroke="none" d="M20 255 c0 -8 8 -15 18 -15 14 0 14 2
3 9 -11 7 -10 10 5 14 16 4 16 5 -3 6 -14 1 -23 -5 -23 -14z"/>
<path fill="#000000" stroke="none" d="M100 255 c0 -8 2 -15 4 -15 2 0 6 7 10
15 3 8 1 15 -4 15 -6 0 -10 -7 -10 -15z"/>
<path fill="#000000" stroke="none" d="M138 263 c6 -2 18 -2 25 0 6 3 1 5 -13
5 -14 0 -19 -2 -12 -5z"/>
<path fill="#000000" stroke="none" d="M190 253 c0 -12 3 -14 8 -7 4 7 16 14
27 17 15 4 14 5 -7 6 -21 1 -28 -4 -28 -16z"/>
<path fill="#000000" stroke="none" d="M10 213 c0 -10 5 -11 18 -5 9 5 24 12
32 15 8 2 0 5 -17 4 -21 0 -33 -5 -33 -14z"/>
<path fill="#000000" stroke="none" d="M103 223 c9 -2 25 -2 35 0 9 3 1 5 -18
5 -19 0 -27 -2 -17 -5z"/>
<path fill="#000000" stroke="none" d="M237 223 c-4 -3 -7 -11 -7 -17 0 -7 3
-7 8 0 4 7 18 14 32 17 l25 4 -26 2 c-14 0 -29 -2 -32 -6z"/>
<path fill="#000000" stroke="none" d="M130 173 c0 -11 3 -14 8 -7 4 6 14 14
22 17 10 4 8 6 -7 6 -16 1 -23 -5 -23 -16z"/>
<path fill="#000000" stroke="none" d="M191 173 c0 -11 3 -13 6 -5 2 6 9 10
13 7 5 -3 11 -1 15 5 3 5 -3 10 -14 10 -14 0 -21 -6 -20 -17z"/>
<path fill="#000000" stroke="none" d="M265 180 c-3 -6 1 -7 9 -4 18 7 21 14
7 14 -6 0 -13 -4 -16 -10z"/>
<path fill="#000000" stroke="none" d="M10 133 c0 -11 3 -14 8 -7 4 6 14 14
22 17 10 4 8 6 -7 6 -16 1 -23 -5 -23 -16z"/>
<path fill="#000000" stroke="none" d="M60 140 c0 -5 7 -7 15 -4 8 4 15 8 15
10 0 2 -7 4 -15 4 -8 0 -15 -4 -15 -10z"/>
<path fill="#000000" stroke="none" d="M110 141 c0 -4 11 -6 25 -3 14 2 25 6
25 8 0 2 -11 4 -25 4 -14 0 -25 -4 -25 -9z"/>
<path fill="#000000" stroke="none" d="M200 133 c0 -12 3 -14 8 -7 4 7 18 14
32 17 21 4 20 4 -7 6 -25 1 -33 -3 -33 -16z"/>
<path fill="#000000" stroke="none" d="M270 133 c0 -10 4 -14 8 -8 4 6 11 13
16 18 5 4 2 7 -7 7 -10 0 -17 -8 -17 -17z"/>
<path fill="#000000" stroke="none" d="M20 95 c0 -8 5 -15 11 -15 5 0 8 4 4 9
-3 5 3 12 12 14 14 4 13 5 -4 6 -14 1 -23 -5 -23 -14z"/>
<path fill="#000000" stroke="none" d="M77 103 c-4 -3 -7 -11 -7 -17 0 -7 3
-7 8 0 4 7 16 14 27 17 19 5 19 5 -1 6 -11 0 -24 -2 -27 -6z"/>
<path fill="#000000" stroke="none" d="M140 93 c0 -12 3 -14 8 -7 4 7 16 14
27 17 15 4 14 5 -7 6 -21 1 -28 -4 -28 -16z"/>
<path fill="#000000" stroke="none" d="M10 53 c0 -10 4 -14 8 -8 4 6 11 13 16
18 5 4 2 7 -7 7 -10 0 -17 -8 -17 -17z"/>
<path fill="#000000" stroke="none" d="M110 53 c0 -12 3 -14 8 -6 4 6 30 13
57 16 l50 3 -57 2 c-49 2 -58 -1 -58 -15z"/>
<path fill="#000000" stroke="none" d="M265 59 c-11 -16 -1 -19 13 -3 7 8 8
14 3 14 -5 0 -13 -5 -16 -11z"/>
<path fill="#000000" stroke="none" d="M20 21 c0 -5 9 -7 20 -4 26 7 26 13 0
13 -11 0 -20 -4 -20 -9z"/>
<path fill="#000000" stroke="none" d="M140 19 c0 -5 5 -7 10 -4 6 3 10 8 10
11 0 2 -4 4 -10 4 -5 0 -10 -5 -10 -11z"/>
<path fill="#000000" stroke="none" d="M188 23 c12 -2 30 -2 40 0 9 3 -1 5
-23 4 -22 0 -30 -2 -17 -4z"/>
<path fill="#000000" stroke="none" d="M250 22 c0 -5 14 -7 30 -4 17 2 30 6
30 8 0 2 -13 4 -30 4 -16 0 -30 -4 -30 -8z"/>
</g>
</svg>
