<?xml version="1.0" standalone="no"?>
<!DOCTYPE svg PUBLIC "-//W3C//DTD SVG 20010904//EN"
 "http://www.w3.org/TR/2001/REC-SVG-20010904/DTD/svg10.dtd">
<svg version="1.0" xmlns="http://www.w3.org/2000/svg"
 width="32.000000pt" height="32.000000pt" viewBox="0 0 32.000000 32.000000"
 preserveAspectRatio="xMidYMid meet">
<metadata>
Created by potrace 1.16, written by Peter Selinger 2001-2019
</metadata>
<g transform="translate(0.000000,32.000000) scale(0.100000,-0.100000)"
fill="#000000" stroke="none">
<path fill="#000000" stroke="none" d="M0 176 c0 -133 1 -145 19 -151 10 -3
78 -5 149 -4 l130 2 4 116 c2 64 1 131 -1 149 l-3 32 -149 0 -149 0 0 -144z"/>
<path fill="#ffffff" stroke="none" d="M80 272 c0 -5 -7 -9 -15 -9 -8 0 -12 4
-9 9 3 4 9 8 15 8 5 0 9 -4 9 -8z"/>
<path fill="#ffffff" stroke="none" d="M120 270 c0 -5 -7 -10 -16 -10 -8 0
-12 5 -9 10 3 6 10 10 16 10 5 0 9 -4 9 -10z"/>
<path fill="#ffffff" stroke="none" d="M155 270 c3 -5 1 -10 -4 -10 -6 0 -11
5 -11 10 0 6 2 10 4 10 3 0 8 -4 11 -10z"/>
<path fill="#ffffff" stroke="none" d="M260 276 c0 -3 -4 -8 -10 -11 -5 -3
-10 -1 -10 4 0 6 5 11 10 11 6 0 10 -2 10 -4z"/>
<path fill="#ffffff" stroke="none" d="M224 228 c7 -5 6 -8 -3 -8 -10 0 -11
-3 -2 -14 8 -10 9 -16 1 -21 -5 -3 -10 1 -10 9 0 10 -6 13 -17 10 -16 -5 -16
-5 -1 5 10 7 14 20 12 33 -2 13 -1 16 2 8 4 -8 12 -18 18 -22z"/>
<path fill="#ffffff" stroke="none" d="M270 240 c0 -11 -4 -20 -9 -20 -5 0 -7
9 -4 20 3 11 7 20 9 20 2 0 4 -9 4 -20z"/>
<path fill="#ffffff" stroke="none" d="M78 199 c15 -1 15 -2 0 -6 -10 -2 -18
-9 -18 -15 0 -5 7 -8 15 -4 8 3 15 1 15 -4 0 -6 -11 -10 -23 -10 -20 0 -24 5
-25 36 -2 45 12 70 16 32 2 -18 10 -28 20 -29z"/>
<path fill="#ffffff" stroke="none" d="M150 220 c0 -22 28 -53 41 -45 5 4 6
-2 2 -12 -6 -16 -5 -16 10 -4 11 8 17 9 17 2 0 -6 -12 -14 -26 -17 -16 -4 -23
-12 -20 -20 4 -9 -2 -14 -15 -14 -15 0 -19 -5 -15 -15 3 -10 -1 -15 -11 -15
-13 0 -14 -3 -6 -11 14 -14 47 -4 38 11 -3 5 1 10 9 10 9 0 16 6 16 14 0 18
23 27 41 15 11 -7 9 -9 -8 -9 -13 0 -23 -4 -23 -9 0 -10 38 -7 48 4 3 2 8 22
12 42 7 33 8 29 9 -29 l1 -67 -115 -3 -114 -3 0 50 1 51 36 -4 c29 -4 34 -2
29 12 -4 9 -2 16 2 16 5 0 11 -7 15 -15 3 -8 1 -15 -4 -15 -6 0 -10 -4 -10
-10 0 -5 11 -10 25 -10 26 0 34 15 13 23 -7 3 -3 6 10 6 27 1 30 21 2 21 -13
0 -18 5 -14 15 4 8 2 15 -2 15 -5 0 -10 11 -10 25 -1 14 2 22 7 19 5 -3 9 -14
9 -24z"/>
<path fill="#ffffff" stroke="none" d="M270 200 c0 -5 -8 -10 -17 -10 -15 0
-16 2 -3 10 19 12 20 12 20 0z"/>
<path fill="#000000" stroke="none" d="M64 98 c1 -27 5 -33 26 -36 21 -2 26 2
28 23 1 17 -3 25 -14 25 -8 0 -12 5 -9 10 3 6 -2 10 -13 10 -15 0 -19 -7 -18
-32z"/>
<path fill="#000000" stroke="none" d="M180 70 c0 -13 20 -13 40 0 12 8 9 10
-12 10 -16 0 -28 -4 -28 -10z"/>
<path fill="#000000" stroke="none" d="M240 70 c0 -5 5 -10 10 -10 6 0 10 5
10 10 0 6 -4 10 -10 10 -5 0 -10 -4 -10 -10z"/>
<path fill="#000000" stroke="none" d="M43 3 c15 -2 39 -2 55 0 15 2 2 4 -28
4 -30 0 -43 -2 -27 -4z"/>
<path fill="#000000" stroke="none" d="M138 3 c7 -3 16 -2 19 1 4 3 -2 6 -13
5 -11 0 -14 -3 -6 -6z"/>
</g>
</svg>
