<?xml version="1.0" standalone="no"?>
<!DOCTYPE svg PUBLIC "-//W3C//DTD SVG 20010904//EN"
 "http://www.w3.org/TR/2001/REC-SVG-20010904/DTD/svg10.dtd">
<svg version="1.0" xmlns="http://www.w3.org/2000/svg"
 width="32.000000pt" height="32.000000pt" viewBox="0 0 32.000000 32.000000"
 preserveAspectRatio="xMidYMid meet">
<metadata>
Created by potrace 1.16, written by Peter Selinger 2001-2019
</metadata>
<g transform="translate(0.000000,32.000000) scale(0.100000,-0.100000)"
fill="#000000" stroke="none">
<path fill="#000000" stroke="none" d="M0 160 l0 -160 160 0 160 0 0 160 c0
134 -2 160 -15 160 -8 0 -12 -6 -9 -14 3 -7 -2 -16 -10 -19 -9 -4 -16 -11 -16
-17 0 -6 4 -9 9 -5 5 3 12 1 16 -5 3 -5 2 -10 -3 -10 -19 0 -29 -47 -31 -137
l-1 -63 -107 0 c-128 1 -122 19 6 23 72 2 81 4 83 22 5 30 -3 66 -13 59 -5 -3
-9 -1 -9 5 0 5 5 11 12 13 6 2 12 14 13 26 1 11 -2 19 -7 16 -4 -3 -8 0 -8 5
0 6 -5 11 -11 11 -5 0 -8 -4 -5 -9 3 -4 -2 -17 -10 -27 -9 -10 -12 -13 -8 -5
6 11 3 13 -12 7 -10 -5 -25 -9 -31 -9 -9 0 -10 -4 -2 -13 6 -7 9 -19 6 -26 -4
-8 -6 -7 -6 5 -1 25 -26 21 -28 -4 -1 -12 -7 -27 -12 -32 -8 -8 -11 3 -11 37
0 29 -4 45 -10 41 -17 -10 -11 4 10 25 11 11 32 20 48 19 24 0 25 -1 7 -9 -19
-8 -19 -9 3 -9 12 -1 22 4 22 9 0 6 13 10 30 10 19 0 33 7 40 20 7 14 7 20 0
20 -5 0 -10 -4 -10 -9 0 -17 -40 -19 -50 -3 -6 11 -9 12 -10 4 0 -7 -8 -12
-17 -11 -60 6 -95 -2 -100 -21 -3 -11 -9 -17 -14 -14 -11 6 -12 -10 -2 -20 11
-11 14 -48 3 -41 -9 6 -14 -31 -13 -103 0 -12 -5 -22 -11 -22 -7 0 -11 44 -11
140 0 77 -3 140 -7 140 -5 0 -8 -72 -8 -160z"/>
<path fill="#ffffff" stroke="none" d="M100 230 c0 -5 -4 -10 -10 -10 -5 0
-10 5 -10 10 0 6 5 10 10 10 6 0 10 -4 10 -10z"/>
<path fill="#ffffff" stroke="none" d="M234 194 c3 -8 2 -12 -4 -9 -6 3 -10
10 -10 16 0 14 7 11 14 -7z"/>
</g>
</svg>
