<?xml version="1.0" standalone="no"?>
<!DOCTYPE svg PUBLIC "-//W3C//DTD SVG 20010904//EN"
 "http://www.w3.org/TR/2001/REC-SVG-20010904/DTD/svg10.dtd">
<svg version="1.0" xmlns="http://www.w3.org/2000/svg"
 width="32.000000pt" height="32.000000pt" viewBox="0 0 32.000000 32.000000"
 preserveAspectRatio="xMidYMid meet">
<metadata>
Created by potrace 1.16, written by Peter Selinger 2001-2019
</metadata>
<g transform="translate(0.000000,32.000000) scale(0.100000,-0.100000)"
fill="#000000" stroke="none">
<path fill="#000000" stroke="none" d="M10 293 c0 -11 7 -14 25 -9 14 4 25 2
25 -4 0 -5 -9 -10 -20 -10 -11 0 -20 -7 -20 -15 0 -8 7 -15 16 -15 9 0 12 5 8
13 -5 8 -2 7 10 -2 13 -11 20 -11 29 -2 9 9 9 14 -3 21 -13 9 -13 10 0 11 8 1
18 1 23 0 4 0 7 5 7 13 0 11 -13 15 -50 14 -38 0 -50 -4 -50 -15z"/>
<path fill="#000000" stroke="none" d="M120 290 c0 -11 -4 -20 -10 -20 -5 0
-10 -7 -10 -16 0 -11 9 -14 37 -12 44 4 58 28 16 28 l-28 0 25 20 25 20 -27 0
c-21 0 -28 -5 -28 -20z"/>
<path fill="#000000" stroke="none" d="M180 298 c0 -7 3 -23 6 -36 5 -19 9
-20 22 -10 13 11 14 11 8 -1 -6 -9 -5 -12 4 -9 27 9 22 28 -7 29 -15 0 -22 3
-15 6 6 2 10 9 7 14 -4 5 1 6 9 3 9 -3 16 -1 16 5 0 6 -11 11 -25 11 -14 0
-25 -6 -25 -12z"/>
<path fill="#000000" stroke="none" d="M240 296 c0 -11 10 -14 34 -13 19 1 32
5 30 9 -2 3 2 9 8 11 7 3 -6 6 -29 6 -31 1 -43 -3 -43 -13z"/>
<path fill="#000000" stroke="none" d="M250 257 c0 -8 7 -14 15 -14 8 0 12 4
9 8 -2 4 2 10 8 12 7 3 3 6 -9 6 -13 1 -23 -5 -23 -12z"/>
<path fill="#000000" stroke="none" d="M300 254 c0 -8 5 -12 10 -9 6 3 10 10
10 16 0 5 -4 9 -10 9 -5 0 -10 -7 -10 -16z"/>
<path fill="#000000" stroke="none" d="M10 215 c0 -9 9 -15 21 -15 11 0 27 7
35 15 14 13 11 15 -20 15 -25 0 -36 -4 -36 -15z"/>
<path fill="#000000" stroke="none" d="M90 210 c0 -16 -7 -20 -35 -20 -24 0
-35 -5 -35 -15 0 -18 12 -19 28 -3 9 9 12 9 12 0 0 -7 14 -12 33 -12 24 0 28
3 17 10 -13 9 -13 10 0 10 11 0 12 2 3 8 -8 5 -9 12 -2 22 8 11 12 12 16 3 2
-7 12 -13 21 -13 14 0 14 2 3 9 -11 7 -11 9 0 14 8 3 -3 6 -23 6 -32 1 -38 -2
-38 -19z"/>
<path fill="#000000" stroke="none" d="M170 215 c0 -16 9 -19 34 -9 25 9 19
24 -9 24 -16 0 -25 -6 -25 -15z"/>
<path fill="#000000" stroke="none" d="M230 215 c0 -8 7 -15 16 -15 9 0 12 5
8 13 -6 9 -4 9 7 1 10 -8 21 -7 39 2 24 13 23 14 -22 14 -36 0 -48 -4 -48 -15z"/>
<path fill="#000000" stroke="none" d="M130 175 c0 -8 9 -15 21 -15 11 0 18 4
15 9 -4 5 0 12 6 14 7 3 1 6 -14 6 -19 1 -28 -4 -28 -14z"/>
<path fill="#000000" stroke="none" d="M190 173 c0 -15 2 -16 10 -3 8 12 10
12 10 1 0 -10 3 -11 13 -2 8 6 17 8 20 4 4 -3 7 -1 7 5 0 7 -13 12 -30 12 -22
0 -30 -5 -30 -17z"/>
<path fill="#000000" stroke="none" d="M260 174 c0 -11 8 -14 27 -12 39 4 42
28 4 28 -21 0 -31 -5 -31 -16z"/>
<path fill="#000000" stroke="none" d="M10 135 c0 -18 36 -20 43 -2 4 10 6 10
6 0 1 -7 11 -13 24 -13 16 0 18 3 8 9 -11 7 -11 9 0 14 8 3 -7 6 -33 6 -36 1
-48 -3 -48 -14z"/>
<path fill="#000000" stroke="none" d="M110 130 c0 -13 -7 -20 -20 -20 -11 0
-20 -7 -20 -15 0 -18 1 -18 35 -5 14 5 23 14 20 20 -6 9 8 14 28 11 4 0 7 6 7
14 0 9 -9 15 -25 15 -18 0 -25 -5 -25 -20z"/>
<path fill="#000000" stroke="none" d="M170 135 c0 -8 5 -15 10 -15 6 0 10 5
10 10 0 7 6 7 18 1 14 -8 19 -6 19 5 0 9 -11 14 -29 14 -18 0 -28 -5 -28 -15z"/>
<path fill="#000000" stroke="none" d="M240 135 c0 -8 5 -15 11 -15 5 0 7 6 3
13 -6 9 -5 9 7 0 12 -10 18 -10 29 0 10 10 11 9 5 -2 -5 -9 -3 -12 5 -9 32 10
20 28 -19 28 -30 0 -41 -4 -41 -15z"/>
<path fill="#000000" stroke="none" d="M153 113 c-24 -8 -14 -31 12 -29 14 0
25 6 25 12 0 14 -20 23 -37 17z"/>
<path fill="#000000" stroke="none" d="M20 94 c0 -9 7 -14 17 -12 25 5 28 28
4 28 -12 0 -21 -6 -21 -16z"/>
<path fill="#000000" stroke="none" d="M200 95 c0 -18 12 -19 28 -3 9 9 12 9
12 -1 0 -11 3 -11 17 0 14 12 16 12 8 0 -5 -10 -4 -12 3 -7 24 14 11 26 -28
26 -29 0 -40 -4 -40 -15z"/>
<path fill="#000000" stroke="none" d="M290 95 c0 -8 4 -15 9 -15 5 0 11 7 15
15 3 9 0 15 -9 15 -8 0 -15 -7 -15 -15z"/>
<path fill="#000000" stroke="none" d="M138 72 c-26 -3 -42 -32 -18 -32 6 0
10 6 10 13 0 9 3 8 9 -2 7 -11 11 -10 20 5 9 17 10 17 11 2 0 -10 5 -18 10
-18 6 0 10 5 10 10 0 14 27 13 32 -2 4 -12 28 -3 28 12 0 9 -70 17 -112 12z"/>
<path fill="#000000" stroke="none" d="M10 54 c0 -17 22 -14 28 4 2 7 -3 12
-12 12 -9 0 -16 -7 -16 -16z"/>
<path fill="#000000" stroke="none" d="M50 55 c0 -20 36 -20 44 0 4 11 -1 15
-19 15 -16 0 -25 -6 -25 -15z"/>
<path fill="#000000" stroke="none" d="M256 48 c-9 -36 -8 -38 24 -36 38 3 39
16 3 20 l-28 3 24 14 c13 7 21 8 17 2 -4 -6 -3 -11 2 -11 6 0 12 7 16 15 4 11
-2 15 -23 15 -21 0 -30 -6 -35 -22z"/>
<path fill="#000000" stroke="none" d="M17 19 c8 -8 16 -8 30 0 16 9 14 10
-11 11 -22 0 -27 -3 -19 -11z"/>
<path fill="#000000" stroke="none" d="M70 15 c0 -12 4 -13 18 -6 9 5 20 8 24
8 3 -1 10 1 14 6 4 4 -7 7 -24 7 -22 0 -32 -5 -32 -15z"/>
<path fill="#000000" stroke="none" d="M140 20 c0 -12 8 -12 35 0 18 8 17 9
-7 9 -16 1 -28 -3 -28 -9z"/>
<path fill="#000000" stroke="none" d="M200 21 c0 -6 9 -9 20 -8 11 1 20 5 20
9 0 4 -9 8 -20 8 -11 0 -20 -4 -20 -9z"/>
</g>
</svg>
