<?xml version="1.0" standalone="no"?>
<!DOCTYPE svg PUBLIC "-//W3C//DTD SVG 20010904//EN"
 "http://www.w3.org/TR/2001/REC-SVG-20010904/DTD/svg10.dtd">
<svg version="1.0" xmlns="http://www.w3.org/2000/svg"
 width="32.000000pt" height="32.000000pt" viewBox="0 0 32.000000 32.000000"
 preserveAspectRatio="xMidYMid meet">
<metadata>
Created by potrace 1.16, written by Peter Selinger 2001-2019
</metadata>
<g transform="translate(0.000000,32.000000) scale(0.100000,-0.100000)"
fill="#000000" stroke="none">
<path fill="#000000" stroke="none" d="M0 160 l0 -160 160 0 c97 0 160 4 160
10 0 5 -7 7 -15 4 -8 -4 -15 -1 -15 5 0 6 7 11 15 11 10 0 15 11 15 35 0 34
-13 47 -23 23 -4 -10 -6 -10 -6 0 -1 7 6 15 14 18 12 5 15 24 15 83 0 53 -3
71 -10 61 -8 -13 -10 -12 -10 3 0 9 5 17 10 17 6 0 10 7 10 15 0 17 -18 19
-39 6 -8 -5 -20 -7 -28 -4 -26 10 -12 22 30 26 23 2 -31 4 -120 5 l-163 2 0
-160z"/>
<path fill="#ffffff" stroke="none" d="M105 300 c-3 -5 -13 -6 -22 -3 -9 4
-14 2 -11 -3 4 -5 -9 -10 -28 -10 -22 0 -34 4 -34 13 0 9 15 13 51 13 29 0 48
-4 44 -10z"/>
<path fill="#ffffff" stroke="none" d="M166 301 c-10 -16 -46 -20 -46 -5 0 8
10 14 26 14 14 0 23 -4 20 -9z"/>
<path fill="#ffffff" stroke="none" d="M226 303 c-4 -5 -11 -8 -14 -8 -4 0
-13 -4 -19 -8 -9 -5 -13 -3 -13 7 0 11 9 16 27 16 14 0 23 -3 19 -7z"/>
<path fill="#ffffff" stroke="none" d="M91 258 c0 -10 2 -10 6 0 7 17 30 15
30 -3 0 -9 -8 -13 -21 -10 -12 2 -21 4 -21 6 0 8 -52 4 -57 -5 -5 -7 -8 -5 -8
7 0 13 8 17 35 17 21 0 35 -5 36 -12z"/>
<path fill="#ffffff" stroke="none" d="M170 253 c0 -10 -4 -14 -8 -8 -4 6 -11
13 -16 18 -5 4 -2 7 7 7 10 0 17 -8 17 -17z"/>
<path fill="#ffffff" stroke="none" d="M220 265 c0 -2 -7 -8 -15 -15 -12 -10
-15 -10 -15 2 0 8 7 15 15 15 8 0 15 -1 15 -2z"/>
<path fill="#ffffff" stroke="none" d="M277 253 c0 -9 -4 -10 -14 -2 -7 6 -13
12 -13 14 0 1 6 2 13 2 8 0 14 -6 14 -14z"/>
<path fill="#ffffff" stroke="none" d="M64 219 c-3 -5 -10 -7 -15 -4 -5 4 -9
2 -9 -3 0 -5 -7 -9 -15 -9 -29 0 -15 24 15 25 17 0 28 -4 24 -9z"/>
<path fill="#ffffff" stroke="none" d="M160 226 c0 -8 -61 -12 -66 -4 -3 4 11
8 30 8 20 0 36 -2 36 -4z"/>
<path fill="#ffffff" stroke="none" d="M270 221 c0 -4 -12 -6 -26 -3 -21 4
-25 2 -19 -9 8 -12 6 -12 -8 0 -14 11 -20 11 -32 1 -12 -10 -15 -10 -15 4 0
13 11 16 50 16 28 0 50 -4 50 -9z"/>
<path fill="#ffffff" stroke="none" d="M17 168 c-3 -8 -6 -5 -6 6 -1 11 2 17
5 13 3 -3 4 -12 1 -19z"/>
<path fill="#ffffff" stroke="none" d="M100 183 c-14 -3 -28 -10 -32 -17 -5
-7 -8 -5 -8 7 0 13 8 17 33 16 27 -2 28 -2 7 -6z"/>
<path fill="#ffffff" stroke="none" d="M160 183 c-8 -3 -18 -11 -22 -17 -5 -7
-8 -4 -8 7 0 11 7 17 23 16 15 0 17 -2 7 -6z"/>
<path fill="#ffffff" stroke="none" d="M204 175 c-4 -8 -8 -15 -10 -15 -2 0
-4 7 -4 15 0 8 4 15 10 15 5 0 7 -7 4 -15z"/>
<path fill="#ffffff" stroke="none" d="M288 179 c-2 -6 -8 -10 -13 -10 -5 0
-11 4 -13 10 -2 6 4 11 13 11 9 0 15 -5 13 -11z"/>
<path fill="#ffffff" stroke="none" d="M45 140 c-4 -6 -10 -8 -15 -5 -4 3 -11
-1 -13 -7 -3 -8 -6 -6 -6 5 -1 11 6 17 20 17 11 0 17 -5 14 -10z"/>
<path fill="#ffffff" stroke="none" d="M87 144 c-3 -3 -12 -4 -19 -1 -8 3 -5
6 6 6 11 1 17 -2 13 -5z"/>
<path fill="#ffffff" stroke="none" d="M227 135 c0 -11 -4 -12 -11 -5 -13 13
-89 13 -81 0 3 -6 -1 -7 -9 -4 -30 11 -5 24 48 24 41 0 53 -3 53 -15z"/>
<path fill="#ffffff" stroke="none" d="M297 136 c0 -11 -4 -12 -19 -3 -15 10
-21 9 -28 -3 -5 -8 -10 -10 -10 -4 0 16 11 24 35 24 12 0 22 -6 22 -14z"/>
<path fill="#ffffff" stroke="none" d="M53 97 c3 -8 -3 -14 -14 -14 -11 -1
-19 5 -19 13 0 18 26 19 33 1z"/>
<path fill="#ffffff" stroke="none" d="M130 106 c0 -9 -50 -12 -62 -5 -8 6 1
9 25 9 20 0 37 -2 37 -4z"/>
<path fill="#ffffff" stroke="none" d="M180 99 c0 -6 -7 -8 -16 -5 -8 3 -12 2
-9 -4 3 -6 1 -10 -4 -10 -6 0 -11 7 -11 15 0 8 9 15 20 15 11 0 20 -5 20 -11z"/>
<path fill="#ffffff" stroke="none" d="M260 103 c-14 -3 -29 -9 -34 -14 -15
-14 -26 -11 -26 6 0 11 11 15 43 14 27 -1 33 -3 17 -6z"/>
<path fill="#ffffff" stroke="none" d="M96 61 c-3 -5 -16 -7 -28 -3 -14 3 -19
2 -14 -6 10 -16 -7 -15 -23 1 -11 10 -13 10 -7 0 4 -7 2 -13 -3 -13 -6 0 -11
7 -11 15 0 11 12 15 46 15 25 0 43 -4 40 -9z"/>
<path fill="#ffffff" stroke="none" d="M150 63 c-8 -3 -21 -10 -27 -16 -9 -7
-13 -5 -13 7 0 11 8 16 28 15 15 0 21 -3 12 -6z"/>
<path fill="#ffffff" stroke="none" d="M205 60 c-28 -12 -37 -12 -30 0 3 6 16
10 28 9 21 0 21 -1 2 -9z"/>
<path fill="#ffffff" stroke="none" d="M250 66 c0 -3 -4 -8 -10 -11 -5 -3 -10
-1 -10 4 0 6 5 11 10 11 6 0 10 -2 10 -4z"/>
<path fill="#ffffff" stroke="none" d="M290 66 c0 -2 -7 -9 -15 -16 -12 -10
-15 -10 -15 4 0 9 7 16 15 16 8 0 15 -2 15 -4z"/>
<path fill="#ffffff" stroke="none" d="M60 26 c0 -2 -9 -6 -20 -9 -11 -3 -20
-1 -20 4 0 5 9 9 20 9 11 0 20 -2 20 -4z"/>
<path fill="#ffffff" stroke="none" d="M124 21 c-8 -8 -54 -7 -54 1 0 5 13 7
30 6 16 -1 27 -4 24 -7z"/>
<path fill="#ffffff" stroke="none" d="M175 20 c-27 -12 -35 -12 -35 0 0 6 12
10 28 9 24 0 25 -1 7 -9z"/>
<path fill="#ffffff" stroke="none" d="M225 20 c-3 -5 -10 -10 -16 -10 -5 0
-9 5 -9 10 0 6 7 10 16 10 8 0 12 -4 9 -10z"/>
</g>
</svg>
