<?xml version="1.0" standalone="no"?>
<!DOCTYPE svg PUBLIC "-//W3C//DTD SVG 20010904//EN"
 "http://www.w3.org/TR/2001/REC-SVG-20010904/DTD/svg10.dtd">
<svg version="1.0" xmlns="http://www.w3.org/2000/svg"
 width="32.000000pt" height="32.000000pt" viewBox="0 0 32.000000 32.000000"
 preserveAspectRatio="xMidYMid meet">
<metadata>
Created by potrace 1.16, written by Peter Selinger 2001-2019
</metadata>
<g transform="translate(0.000000,32.000000) scale(0.100000,-0.100000)"
fill="#000000" stroke="none">
<path fill="#000000" stroke="none" d="M2 173 l3 -148 42 -2 c24 -1 43 2 43 6
0 4 7 8 15 8 8 0 12 -4 9 -8 -4 -8 62 -5 116 5 14 2 29 5 33 5 19 2 35 72 36
148 0 46 3 94 7 108 l6 25 -157 0 -157 0 4 -147z"/>
<path fill="#ffffff" stroke="none" d="M120 248 c0 -6 -9 -8 -20 -5 -11 3 -20
0 -21 -6 0 -7 -2 -20 -4 -29 -2 -11 3 -18 13 -18 14 0 15 -2 2 -9 -8 -6 -18
-7 -22 -5 -11 7 -10 58 2 70 13 13 50 15 50 2z"/>
<path fill="#ffffff" stroke="none" d="M160 250 c0 -5 -7 -10 -16 -10 -8 0
-12 5 -9 10 3 6 10 10 16 10 5 0 9 -4 9 -10z"/>
<path fill="#ffffff" stroke="none" d="M187 235 c-15 -16 -19 -13 -11 9 3 9
10 13 15 10 5 -3 3 -11 -4 -19z"/>
<path fill="#ffffff" stroke="none" d="M233 150 c7 0 6 -4 -3 -11 -11 -8 -12
-12 -2 -16 6 -2 12 -13 12 -24 0 -17 -8 -19 -85 -19 -95 0 -101 1 -96 15 2 6
3 20 3 32 0 19 3 20 19 10 11 -7 15 -13 9 -15 -16 -6 -12 -22 5 -22 8 0 15 5
15 10 0 6 20 10 44 10 44 0 44 0 52 43 7 36 9 38 12 15 2 -16 9 -28 15 -28z"/>
<path fill="#000000" stroke="none" d="M33 3 c9 -2 25 -2 35 0 9 3 1 5 -18 5
-19 0 -27 -2 -17 -5z"/>
<path fill="#000000" stroke="none" d="M98 3 c7 -3 16 -2 19 1 4 3 -2 6 -13 5
-11 0 -14 -3 -6 -6z"/>
</g>
</svg>
