<?xml version="1.0" standalone="no"?>
<!DOCTYPE svg PUBLIC "-//W3C//DTD SVG 20010904//EN"
 "http://www.w3.org/TR/2001/REC-SVG-20010904/DTD/svg10.dtd">
<svg version="1.0" xmlns="http://www.w3.org/2000/svg"
 width="32.000000pt" height="32.000000pt" viewBox="0 0 32.000000 32.000000"
 preserveAspectRatio="xMidYMid meet">
<metadata>
Created by potrace 1.16, written by Peter Selinger 2001-2019
</metadata>
<g transform="translate(0.000000,32.000000) scale(0.100000,-0.100000)"
fill="#000000" stroke="none">
<path fill="#000000" stroke="none" d="M10 293 c0 -11 3 -14 8 -7 4 6 14 14
22 17 10 4 8 6 -7 6 -16 1 -23 -5 -23 -16z"/>
<path fill="#000000" stroke="none" d="M73 303 c9 -2 23 -2 30 0 6 3 -1 5 -18
5 -16 0 -22 -2 -12 -5z"/>
<path fill="#000000" stroke="none" d="M133 303 c9 -2 23 -2 30 0 6 3 -1 5
-18 5 -16 0 -22 -2 -12 -5z"/>
<path fill="#000000" stroke="none" d="M193 303 c9 -2 23 -2 30 0 6 3 -1 5
-18 5 -16 0 -22 -2 -12 -5z"/>
<path fill="#000000" stroke="none" d="M240 302 c0 -4 16 -6 35 -4 19 2 35 6
35 8 0 2 -16 4 -35 4 -19 0 -35 -4 -35 -8z"/>
<path fill="#000000" stroke="none" d="M11 214 c0 -11 3 -14 6 -6 3 7 2 16 -1
19 -3 4 -6 -2 -5 -13z"/>
<path fill="#000000" stroke="none" d="M258 223 c6 -2 18 -2 25 0 6 3 1 5 -13
5 -14 0 -19 -2 -12 -5z"/>
<path fill="#000000" stroke="none" d="M88 183 c7 -3 16 -2 19 1 4 3 -2 6 -13
5 -11 0 -14 -3 -6 -6z"/>
<path fill="#000000" stroke="none" d="M10 133 c0 -10 4 -14 8 -8 4 6 11 13
16 18 5 4 2 7 -7 7 -10 0 -17 -8 -17 -17z"/>
<path fill="#000000" stroke="none" d="M76 101 c-4 -5 3 -7 14 -4 23 6 26 13
6 13 -8 0 -17 -4 -20 -9z"/>
<path fill="#000000" stroke="none" d="M55 59 c-11 -16 -1 -19 13 -3 7 8 8 14
3 14 -5 0 -13 -5 -16 -11z"/>
</g>
</svg>
