<?xml version="1.0" standalone="no"?>
<!DOCTYPE svg PUBLIC "-//W3C//DTD SVG 20010904//EN"
 "http://www.w3.org/TR/2001/REC-SVG-20010904/DTD/svg10.dtd">
<svg version="1.0" xmlns="http://www.w3.org/2000/svg"
 width="32.000000pt" height="32.000000pt" viewBox="0 0 32.000000 32.000000"
 preserveAspectRatio="xMidYMid meet">
<metadata>
Created by potrace 1.16, written by Peter Selinger 2001-2019
</metadata>
<g transform="translate(0.000000,32.000000) scale(0.100000,-0.100000)"
fill="#000000" stroke="none">
<path fill="#000000" stroke="none" d="M0 160 l0 -160 160 0 160 0 -1 53 c0
28 -3 46 -6 40 -7 -18 -23 -16 -23 2 0 8 7 15 15 15 8 0 15 4 15 9 0 5 -9 7
-20 4 -11 -3 -20 0 -20 6 0 15 -27 14 -33 -1 -3 -8 -6 -6 -6 5 -1 13 7 17 39
17 29 0 40 4 40 15 0 18 -46 21 -53 3 -3 -8 -6 -6 -6 5 -1 12 7 17 29 17 21 0
30 5 30 16 0 9 -6 14 -13 11 -8 -3 -20 -1 -28 4 -10 6 -7 9 14 9 15 0 27 5 27
11 0 5 -4 7 -10 4 -6 -3 -10 1 -10 9 0 9 5 16 10 16 6 0 10 7 10 15 0 16 -12
20 -24 8 -14 -15 -56 -14 -56 1 0 10 13 16 43 19 23 2 -31 4 -120 5 l-163 2 0
-160z"/>
<path fill="#ffffff" stroke="none" d="M48 298 c-7 -19 -38 -22 -38 -4 0 10 9
16 21 16 12 0 19 -5 17 -12z"/>
<path fill="#ffffff" stroke="none" d="M150 290 l-25 -20 28 0 c20 0 27 5 27
20 0 15 7 20 25 20 17 0 25 -5 24 -17 0 -11 -3 -13 -6 -5 -2 6 -10 12 -15 12
-6 0 -9 -3 -6 -6 3 -3 -4 -16 -17 -30 -26 -28 -85 -34 -85 -9 0 8 5 15 12 15
6 0 3 7 -8 15 -10 8 -23 14 -29 15 -5 0 -3 -5 5 -10 13 -9 13 -10 0 -10 -13 0
-13 -1 0 -10 12 -7 12 -12 3 -21 -9 -9 -16 -9 -29 2 -12 9 -15 10 -10 2 4 -8
1 -13 -8 -13 -9 0 -16 7 -16 15 0 8 9 15 20 15 13 0 20 7 20 20 0 18 7 20 58
20 l57 0 -25 -20z"/>
<path fill="#ffffff" stroke="none" d="M225 263 c-11 -3 -23 -10 -27 -17 -5
-7 -8 -7 -8 0 0 16 11 24 34 23 20 -1 20 -1 1 -6z"/>
<path fill="#ffffff" stroke="none" d="M282 263 c-6 -2 -10 -8 -8 -12 3 -4 -1
-8 -9 -8 -8 0 -15 6 -15 14 0 7 10 13 23 12 12 0 16 -3 9 -6z"/>
<path fill="#ffffff" stroke="none" d="M57 223 c-10 -3 -14 -9 -10 -16 4 -8 1
-7 -9 1 -13 10 -17 10 -21 0 -4 -9 -6 -8 -6 3 -1 11 8 16 32 16 17 0 24 -2 14
-4z"/>
<path fill="#ffffff" stroke="none" d="M151 223 c-11 -5 -11 -7 0 -14 10 -6 8
-9 -9 -9 -13 0 -20 4 -17 10 3 6 2 10 -3 10 -15 0 -23 -30 -9 -31 8 0 7 -2 -2
-6 -11 -5 -11 -7 0 -14 10 -6 6 -9 -13 -9 -16 0 -28 5 -28 10 0 6 -7 10 -15
10 -8 0 -15 -4 -15 -10 0 -5 -4 -10 -10 -10 -5 0 -10 7 -10 15 0 10 11 15 35
15 28 0 35 4 35 20 0 17 6 20 38 19 20 0 31 -3 23 -6z"/>
<path fill="#ffffff" stroke="none" d="M252 223 c-6 -2 -10 -9 -6 -14 3 -5 -2
-9 -11 -9 -9 0 -13 5 -10 10 3 6 2 10 -4 10 -5 0 -13 -4 -16 -10 -10 -15 -35
-12 -35 5 0 11 12 15 48 14 26 0 41 -3 34 -6z"/>
<path fill="#ffffff" stroke="none" d="M167 177 c0 -7 -9 -13 -19 -13 -10 0
-18 6 -18 13 0 7 8 13 18 13 10 0 19 -6 19 -13z"/>
<path fill="#ffffff" stroke="none" d="M250 178 c0 -6 -3 -8 -7 -5 -3 4 -12 2
-20 -4 -10 -9 -13 -8 -13 2 0 11 -2 11 -10 -1 -8 -13 -10 -12 -10 3 0 12 8 17
30 17 17 0 30 -5 30 -12z"/>
<path fill="#ffffff" stroke="none" d="M92 143 c-6 -2 -10 -9 -6 -14 3 -5 -2
-9 -10 -9 -9 0 -16 6 -17 13 0 10 -2 10 -6 0 -7 -18 -43 -16 -43 2 0 11 12 15
48 14 26 0 41 -3 34 -6z"/>
<path fill="#ffffff" stroke="none" d="M160 137 c0 -7 -11 -14 -25 -15 -16 -1
-25 3 -25 13 0 9 10 15 25 15 14 0 25 -6 25 -13z"/>
<path fill="#ffffff" stroke="none" d="M227 136 c0 -11 -5 -13 -19 -5 -12 6
-18 6 -18 -1 0 -5 -4 -10 -10 -10 -5 0 -10 7 -10 15 0 10 10 15 28 15 18 0 29
-5 29 -14z"/>
<path fill="#ffffff" stroke="none" d="M58 98 c-7 -19 -38 -22 -38 -4 0 10 9
16 21 16 12 0 19 -5 17 -12z"/>
<path fill="#ffffff" stroke="none" d="M110 95 c-32 -18 -40 -18 -40 0 0 10
10 15 33 15 l32 -1 -25 -14z"/>
<path fill="#ffffff" stroke="none" d="M185 100 c-3 -5 -15 -10 -26 -10 -10 0
-19 5 -19 10 0 6 12 10 26 10 14 0 23 -4 19 -10z"/>
<path fill="#ffffff" stroke="none" d="M272 103 c-6 -3 -10 -8 -8 -11 2 -4
-11 -7 -30 -8 -21 0 -34 4 -34 12 0 8 15 12 43 12 23 0 36 -3 29 -5z"/>
<path fill="#ffffff" stroke="none" d="M38 58 c-6 -18 -28 -21 -28 -4 0 9 7
16 16 16 9 0 14 -5 12 -12z"/>
<path fill="#ffffff" stroke="none" d="M94 55 c-8 -20 -44 -20 -44 0 0 9 9 15
25 15 18 0 23 -4 19 -15z"/>
<path fill="#ffffff" stroke="none" d="M160 61 c0 -16 -18 -22 -23 -9 -4 10
-8 9 -16 -2 -6 -8 -11 -10 -11 -4 0 6 3 14 7 17 10 10 43 8 43 -2z"/>
<path fill="#ffffff" stroke="none" d="M250 61 c0 -15 -23 -26 -28 -13 -5 15
-32 16 -32 2 0 -5 -4 -10 -10 -10 -5 0 -10 7 -10 15 0 11 11 15 40 15 22 0 40
-4 40 -9z"/>
<path fill="#ffffff" stroke="none" d="M308 58 c-6 -16 -48 -18 -48 -1 0 7 11
13 26 13 15 0 24 -5 22 -12z"/>
<path fill="#ffffff" stroke="none" d="M112 21 c-19 -12 -90 -13 -97 -1 -4 6
16 10 52 10 34 0 53 -4 45 -9z"/>
<path fill="#ffffff" stroke="none" d="M190 26 c0 -2 -11 -6 -25 -8 -14 -3
-25 -1 -25 3 0 5 11 9 25 9 14 0 25 -2 25 -4z"/>
<path fill="#ffffff" stroke="none" d="M240 22 c0 -4 -9 -8 -20 -9 -11 -1 -20
2 -20 8 0 5 9 9 20 9 11 0 20 -4 20 -8z"/>
<path fill="#ffffff" stroke="none" d="M310 22 c0 -4 -13 -9 -30 -10 -16 -1
-30 2 -30 8 0 5 14 10 30 10 17 0 30 -4 30 -8z"/>
</g>
</svg>
