<?xml version="1.0" standalone="no"?>
<!DOCTYPE svg PUBLIC "-//W3C//DTD SVG 20010904//EN"
 "http://www.w3.org/TR/2001/REC-SVG-20010904/DTD/svg10.dtd">
<svg version="1.0" xmlns="http://www.w3.org/2000/svg"
 width="32.000000pt" height="32.000000pt" viewBox="0 0 32.000000 32.000000"
 preserveAspectRatio="xMidYMid meet">
<metadata>
Created by potrace 1.16, written by Peter Selinger 2001-2019
</metadata>
<g transform="translate(0.000000,32.000000) scale(0.100000,-0.100000)"
fill="#000000" stroke="none">
<path fill="#000000" stroke="none" d="M26 312 c-17 -4 -18 -11 -12 -70 3 -37
7 -83 7 -102 1 -19 5 -4 9 33 5 50 12 74 28 90 12 12 22 16 22 9 0 -6 5 -12
11 -12 5 0 7 5 4 10 -4 6 27 10 87 10 81 0 90 2 78 14 -15 15 -189 28 -234 18z"/>
<path fill="#000000" stroke="none" d="M246 243 c-3 -16 -2 -64 3 -108 l8 -80
2 108 c1 107 -3 131 -13 80z"/>
<path fill="#000000" stroke="none" d="M88 53 c7 -3 16 -2 19 1 4 3 -2 6 -13
5 -11 0 -14 -3 -6 -6z"/>
<path fill="#000000" stroke="none" d="M178 53 c7 -3 16 -2 19 1 4 3 -2 6 -13
5 -11 0 -14 -3 -6 -6z"/>
</g>
</svg>
