<?xml version="1.0" standalone="no"?>
<!DOCTYPE svg PUBLIC "-//W3C//DTD SVG 20010904//EN"
 "http://www.w3.org/TR/2001/REC-SVG-20010904/DTD/svg10.dtd">
<svg version="1.0" xmlns="http://www.w3.org/2000/svg"
 width="32.000000pt" height="32.000000pt" viewBox="0 0 32.000000 32.000000"
 preserveAspectRatio="xMidYMid meet">
<metadata>
Created by potrace 1.16, written by Peter Selinger 2001-2019
</metadata>
<g transform="translate(0.000000,32.000000) scale(0.100000,-0.100000)"
fill="#000000" stroke="none">
<path fill="#000000" stroke="none" d="M2 173 c3 -145 3 -148 26 -151 16 -2
22 2 22 15 1 16 2 16 13 3 14 -18 141 -22 166 -6 10 7 12 6 6 -3 -5 -9 -2 -12
11 -9 11 2 18 10 16 18 -3 11 0 11 12 0 13 -10 16 -10 17 1 8 128 12 227 10
257 -1 22 -3 22 -151 22 l-151 0 3 -147z"/>
<path fill="#ffffff" stroke="none" d="M83 246 c-4 -6 2 -4 12 4 14 11 19 12
22 2 3 -6 10 -9 16 -5 18 11 38 12 31 2 -8 -14 50 -11 65 4 11 9 13 9 7 0 -4
-7 -2 -13 3 -13 12 0 14 -29 5 -54 -3 -9 -10 -13 -16 -10 -5 3 -5 11 2 19 14
17 -7 25 -35 14 -11 -4 -14 -8 -7 -8 17 -1 15 -31 -3 -31 -8 0 -14 3 -14 8 5
30 -4 40 -36 44 -30 3 -35 1 -35 -17 -1 -20 -1 -20 -16 0 -16 19 -16 19 -12
-7 3 -16 1 -28 -4 -28 -5 0 -8 20 -7 43 2 28 7 44 15 44 7 0 10 -5 7 -11z"/>
<path fill="#ffffff" stroke="none" d="M250 122 c0 -17 -8 -32 -21 -41 -21
-12 -22 -12 -16 18 6 27 4 31 -14 31 -16 0 -19 -5 -15 -22 3 -13 3 -17 0 -10
-7 16 -31 16 -37 0 -3 -7 -6 -3 -6 10 -1 32 -21 27 -22 -5 0 -28 0 -28 -10 -5
-11 28 -34 24 -33 -7 0 -11 -3 -21 -8 -21 -4 0 -8 18 -8 40 l0 40 95 0 95 0 0
-28z"/>
<path fill="#000000" stroke="none" d="M231 114 c0 -11 3 -14 6 -6 3 7 2 16
-1 19 -3 4 -6 -2 -5 -13z"/>
</g>
</svg>
