<?xml version="1.0" standalone="no"?>
<!DOCTYPE svg PUBLIC "-//W3C//DTD SVG 20010904//EN"
 "http://www.w3.org/TR/2001/REC-SVG-20010904/DTD/svg10.dtd">
<svg version="1.0" xmlns="http://www.w3.org/2000/svg"
 width="32.000000pt" height="32.000000pt" viewBox="0 0 32.000000 32.000000"
 preserveAspectRatio="xMidYMid meet">
<metadata>
Created by potrace 1.16, written by Peter Selinger 2001-2019
</metadata>
<g transform="translate(0.000000,32.000000) scale(0.100000,-0.100000)"
fill="#000000" stroke="none">
<path fill="#000000" stroke="none" d="M0 160 l0 -160 160 0 160 0 0 50 c0 47
-12 66 -23 38 -4 -10 -6 -10 -6 0 -1 7 6 15 14 18 12 5 15 24 15 83 0 53 -3
71 -10 61 -8 -13 -10 -12 -10 3 0 9 5 17 10 17 6 0 10 7 10 15 0 17 -46 18
-67 2 -9 -7 -13 -5 -13 6 0 11 12 17 43 20 23 2 -31 4 -120 5 l-163 2 0 -160z"/>
<path fill="#ffffff" stroke="none" d="M50 301 c0 -5 -9 -11 -20 -14 -13 -3
-20 0 -20 9 0 8 9 14 20 14 11 0 20 -4 20 -9z"/>
<path fill="#ffffff" stroke="none" d="M162 302 c-7 -5 -29 -8 -50 -7 -20 1
-40 -3 -44 -9 -5 -7 -8 -4 -8 7 0 14 9 17 58 17 33 0 52 -4 44 -8z"/>
<path fill="#ffffff" stroke="none" d="M220 303 c-8 -3 -21 -10 -27 -16 -9 -7
-13 -5 -13 7 0 11 8 16 28 15 15 0 21 -3 12 -6z"/>
<path fill="#ffffff" stroke="none" d="M46 263 c-15 -4 -16 -7 -5 -14 11 -7
11 -9 -3 -9 -10 0 -18 7 -18 15 0 9 9 15 23 14 19 -1 19 -2 3 -6z"/>
<path fill="#ffffff" stroke="none" d="M145 263 c-16 -3 -33 -10 -37 -16 -5
-8 -8 -6 -8 6 0 13 8 17 38 16 34 -2 34 -2 7 -6z"/>
<path fill="#ffffff" stroke="none" d="M230 266 c0 -2 -9 -6 -20 -9 -11 -3
-18 -1 -14 4 5 9 34 13 34 5z"/>
<path fill="#ffffff" stroke="none" d="M274 263 c-5 -5 -12 -12 -16 -18 -4 -6
-8 -2 -8 8 0 9 7 17 17 17 9 0 12 -3 7 -7z"/>
<path fill="#ffffff" stroke="none" d="M150 226 c0 -2 -13 -6 -30 -8 -16 -3
-30 -1 -30 4 0 4 14 8 30 8 17 0 30 -2 30 -4z"/>
<path fill="#ffffff" stroke="none" d="M215 223 c-11 -3 -26 -10 -32 -15 -8
-6 -13 -7 -13 -1 0 16 12 23 39 22 21 -1 22 -2 6 -6z"/>
<path fill="#ffffff" stroke="none" d="M80 183 c-24 -3 -48 -10 -52 -16 -5 -8
-8 -6 -8 6 0 14 8 17 53 15 l52 -1 -45 -4z"/>
<path fill="#ffffff" stroke="none" d="M220 183 c-8 -3 -18 -11 -22 -17 -5 -7
-8 -4 -8 7 0 11 7 17 23 16 15 0 17 -2 7 -6z"/>
<path fill="#ffffff" stroke="none" d="M300 186 c0 -2 -9 -6 -20 -9 -11 -3
-20 -1 -20 4 0 5 9 9 20 9 11 0 20 -2 20 -4z"/>
<path fill="#ffffff" stroke="none" d="M40 143 c-8 -3 -18 -11 -22 -17 -5 -7
-8 -4 -8 7 0 11 7 17 23 16 15 0 17 -2 7 -6z"/>
<path fill="#ffffff" stroke="none" d="M87 144 c-3 -3 -12 -4 -19 -1 -8 3 -5
6 6 6 11 1 17 -2 13 -5z"/>
<path fill="#ffffff" stroke="none" d="M160 146 c0 -2 -11 -6 -25 -8 -14 -3
-25 -1 -25 3 0 5 11 9 25 9 14 0 25 -2 25 -4z"/>
<path fill="#ffffff" stroke="none" d="M210 143 c-14 -3 -28 -10 -32 -17 -5
-7 -8 -5 -8 7 0 13 8 17 33 16 27 -2 28 -2 7 -6z"/>
<path fill="#ffffff" stroke="none" d="M285 143 c-16 -3 -33 -10 -37 -16 -5
-8 -8 -6 -8 6 0 13 8 17 38 16 34 -2 34 -2 7 -6z"/>
<path fill="#ffffff" stroke="none" d="M47 103 c-9 -2 -15 -9 -12 -14 4 -5 1
-9 -4 -9 -6 0 -11 7 -11 15 0 9 9 15 23 14 17 -1 18 -2 4 -6z"/>
<path fill="#ffffff" stroke="none" d="M105 103 c-11 -3 -23 -10 -27 -17 -5
-7 -8 -7 -8 0 0 16 11 24 34 23 20 -1 20 -1 1 -6z"/>
<path fill="#ffffff" stroke="none" d="M240 106 c0 -2 -9 -6 -20 -9 -11 -3
-18 -1 -14 4 5 9 34 13 34 5z"/>
<path fill="#ffffff" stroke="none" d="M277 104 c-3 -3 -12 -4 -19 -1 -8 3 -5
6 6 6 11 1 17 -2 13 -5z"/>
<path fill="#ffffff" stroke="none" d="M34 63 c-5 -5 -12 -12 -16 -18 -4 -6
-8 -2 -8 8 0 9 7 17 17 17 9 0 12 -3 7 -7z"/>
<path fill="#ffffff" stroke="none" d="M85 63 c-11 -3 -23 -10 -27 -17 -5 -7
-8 -5 -8 7 0 12 7 17 28 16 21 -1 22 -2 7 -6z"/>
<path fill="#ffffff" stroke="none" d="M145 63 c-11 -3 -23 -10 -27 -17 -5 -7
-8 -7 -8 0 0 16 11 24 34 23 20 -1 20 -1 1 -6z"/>
<path fill="#ffffff" stroke="none" d="M220 66 c0 -2 -11 -6 -25 -8 -13 -3
-22 -1 -19 3 5 9 44 13 44 5z"/>
<path fill="#ffffff" stroke="none" d="M110 24 c-38 -8 -90 -9 -90 -2 0 4 24
7 53 7 28 -1 45 -3 37 -5z"/>
<path fill="#ffffff" stroke="none" d="M160 26 c0 -3 -4 -8 -10 -11 -5 -3 -10
-1 -10 4 0 6 5 11 10 11 6 0 10 -2 10 -4z"/>
<path fill="#ffffff" stroke="none" d="M230 26 c0 -2 -7 -6 -15 -10 -8 -3 -15
-1 -15 4 0 6 7 10 15 10 8 0 15 -2 15 -4z"/>
<path fill="#ffffff" stroke="none" d="M310 26 c0 -2 -13 -6 -30 -8 -16 -3
-30 -1 -30 4 0 4 14 8 30 8 17 0 30 -2 30 -4z"/>
</g>
</svg>
