<?xml version="1.0" standalone="no"?>
<!DOCTYPE svg PUBLIC "-//W3C//DTD SVG 20010904//EN"
 "http://www.w3.org/TR/2001/REC-SVG-20010904/DTD/svg10.dtd">
<svg version="1.0" xmlns="http://www.w3.org/2000/svg"
 width="32.000000pt" height="32.000000pt" viewBox="0 0 32.000000 32.000000"
 preserveAspectRatio="xMidYMid meet">
<metadata>
Created by potrace 1.16, written by Peter Selinger 2001-2019
</metadata>
<g transform="translate(0.000000,32.000000) scale(0.100000,-0.100000)"
fill="#000000" stroke="none">
<path fill="#000000" stroke="none" d="M0 160 l0 -160 160 0 160 0 0 160 0
160 -160 0 -160 0 0 -160z"/>
<path fill="#ffffff" stroke="none" d="M280 295 c0 -12 0 -12 -106 -14 -54 -1
-83 -5 -79 -11 3 -5 1 -10 -4 -10 -6 0 -11 5 -11 11 0 6 -7 4 -15 -5 -9 -8
-12 -22 -8 -32 4 -12 3 -15 -5 -10 -8 5 -12 -5 -13 -31 -1 -21 -3 -49 -4 -63
-1 -14 -4 -41 -5 -60 -4 -45 -17 77 -19 173 l-1 68 135 -3 c82 -2 135 -7 135
-13z"/>
<path fill="#ffffff" stroke="none" d="M266 63 c-6 -15 -166 -20 -166 -5 0 5
30 9 68 9 37 1 73 2 80 2 11 1 13 19 9 85 -3 46 -3 87 1 91 8 8 15 -162 8
-182z"/>
<path fill="#ffffff" stroke="none" d="M215 200 c3 -5 1 -10 -4 -10 -6 0 -11
5 -11 10 0 6 2 10 4 10 3 0 8 -4 11 -10z"/>
<path fill="#ffffff" stroke="none" d="M225 170 c3 -5 1 -10 -4 -10 -6 0 -11
5 -11 10 0 6 2 10 4 10 3 0 8 -4 11 -10z"/>
<path fill="#ffffff" stroke="none" d="M83 53 c-7 -2 -21 -2 -30 0 -10 3 -4 5
12 5 17 0 24 -2 18 -5z"/>
</g>
</svg>
