<?xml version="1.0" standalone="no"?>
<!DOCTYPE svg PUBLIC "-//W3C//DTD SVG 20010904//EN"
 "http://www.w3.org/TR/2001/REC-SVG-20010904/DTD/svg10.dtd">
<svg version="1.0" xmlns="http://www.w3.org/2000/svg"
 width="32.000000pt" height="32.000000pt" viewBox="0 0 32.000000 32.000000"
 preserveAspectRatio="xMidYMid meet">
<metadata>
Created by potrace 1.16, written by Peter Selinger 2001-2019
</metadata>
<g transform="translate(0.000000,32.000000) scale(0.100000,-0.100000)"
fill="#000000" stroke="none">
<path fill="#000000" stroke="none" d="M0 160 l0 -160 160 0 c110 0 160 3 160
11 0 6 -7 9 -15 5 -8 -3 -15 -1 -15 4 0 6 7 10 15 10 10 0 15 11 15 35 0 34
-13 47 -23 23 -4 -10 -6 -10 -6 0 -1 7 6 15 14 18 12 5 15 24 15 83 0 53 -3
71 -10 61 -8 -13 -10 -12 -10 3 0 9 5 17 10 17 6 0 10 7 10 15 0 12 -9 15 -40
11 -22 -3 -40 -1 -40 4 0 5 19 11 43 13 23 2 -31 4 -120 5 l-163 2 0 -160z"/>
<path fill="#ffffff" stroke="none" d="M105 300 c-4 -6 -11 -8 -16 -5 -5 3
-25 2 -44 -4 -28 -7 -35 -7 -35 5 0 10 14 14 51 14 31 0 48 -4 44 -10z"/>
<path fill="#ffffff" stroke="none" d="M169 306 c-2 -2 -14 -9 -26 -15 -19
-10 -23 -9 -23 4 0 10 9 15 27 15 14 0 24 -2 22 -4z"/>
<path fill="#ffffff" stroke="none" d="M220 303 c-8 -3 -21 -10 -27 -16 -9 -7
-13 -5 -13 7 0 11 8 16 28 15 15 0 21 -3 12 -6z"/>
<path fill="#ffffff" stroke="none" d="M50 263 c-8 -3 -18 -11 -22 -17 -5 -7
-8 -4 -8 7 0 11 7 17 23 16 15 0 17 -2 7 -6z"/>
<path fill="#ffffff" stroke="none" d="M127 264 c-3 -3 -12 -4 -19 -1 -8 3 -5
6 6 6 11 1 17 -2 13 -5z"/>
<path fill="#ffffff" stroke="none" d="M167 264 c-3 -3 -12 -4 -19 -1 -8 3 -5
6 6 6 11 1 17 -2 13 -5z"/>
<path fill="#ffffff" stroke="none" d="M60 223 c-8 -3 -23 -10 -32 -15 -13 -6
-18 -5 -18 5 0 9 12 14 33 14 17 1 25 -2 17 -4z"/>
<path fill="#ffffff" stroke="none" d="M138 223 c-10 -2 -26 -2 -35 0 -10 3
-2 5 17 5 19 0 27 -2 18 -5z"/>
<path fill="#ffffff" stroke="none" d="M215 223 c-11 -3 -26 -10 -32 -15 -8
-6 -13 -7 -13 -1 0 16 12 23 39 22 21 -1 22 -2 6 -6z"/>
<path fill="#ffffff" stroke="none" d="M267 224 c-3 -3 -12 -4 -19 -1 -8 3 -5
6 6 6 11 1 17 -2 13 -5z"/>
<path fill="#ffffff" stroke="none" d="M17 168 c-3 -8 -6 -5 -6 6 -1 11 2 17
5 13 3 -3 4 -12 1 -19z"/>
<path fill="#ffffff" stroke="none" d="M100 183 c-14 -3 -28 -10 -32 -17 -5
-7 -8 -7 -8 0 0 17 12 24 39 23 l26 -2 -25 -4z"/>
<path fill="#ffffff" stroke="none" d="M158 183 c-10 -2 -18 -9 -18 -15 0 -6
-3 -9 -6 -5 -10 10 6 27 24 26 15 -1 15 -2 0 -6z"/>
<path fill="#ffffff" stroke="none" d="M290 186 c0 -2 -7 -7 -16 -10 -8 -3
-12 -2 -9 4 6 10 25 14 25 6z"/>
<path fill="#ffffff" stroke="none" d="M40 143 c-8 -3 -18 -11 -22 -17 -5 -7
-8 -4 -8 7 0 11 7 17 23 16 15 0 17 -2 7 -6z"/>
<path fill="#ffffff" stroke="none" d="M87 144 c-3 -3 -12 -4 -19 -1 -8 3 -5
6 6 6 11 1 17 -2 13 -5z"/>
<path fill="#ffffff" stroke="none" d="M220 144 c-34 -7 -108 -8 -103 -1 2 4
30 6 61 6 31 -1 50 -3 42 -5z"/>
<path fill="#ffffff" stroke="none" d="M280 143 c-14 -3 -28 -10 -32 -17 -5
-7 -8 -7 -8 0 0 17 12 24 39 23 l26 -2 -25 -4z"/>
<path fill="#ffffff" stroke="none" d="M42 103 c-6 -2 -10 -9 -6 -14 3 -5 0
-9 -5 -9 -6 0 -11 7 -11 15 0 8 8 15 18 14 10 0 12 -3 4 -6z"/>
<path fill="#ffffff" stroke="none" d="M108 103 c-10 -2 -26 -2 -35 0 -10 3
-2 5 17 5 19 0 27 -2 18 -5z"/>
<path fill="#ffffff" stroke="none" d="M170 103 c-8 -3 -18 -11 -22 -17 -5 -7
-8 -4 -8 7 0 11 7 17 23 16 15 0 17 -2 7 -6z"/>
<path fill="#ffffff" stroke="none" d="M280 106 c0 -2 -18 -6 -39 -8 -22 -2
-37 0 -35 4 5 8 74 11 74 4z"/>
<path fill="#ffffff" stroke="none" d="M99 65 c-3 -2 -21 -5 -40 -7 -18 -1
-37 -7 -41 -13 -5 -6 -8 -3 -8 8 0 14 9 17 47 17 25 0 44 -2 42 -5z"/>
<path fill="#ffffff" stroke="none" d="M145 63 c-11 -3 -23 -10 -27 -17 -5 -7
-8 -5 -8 7 0 12 7 17 28 16 21 -1 22 -2 7 -6z"/>
<path fill="#ffffff" stroke="none" d="M220 66 c0 -2 -11 -6 -25 -8 -13 -3
-22 -1 -19 3 5 9 44 13 44 5z"/>
<path fill="#ffffff" stroke="none" d="M278 56 c-7 -8 -15 -12 -17 -11 -5 6
10 25 20 25 5 0 4 -6 -3 -14z"/>
<path fill="#ffffff" stroke="none" d="M60 26 c0 -2 -9 -6 -20 -9 -11 -3 -20
-1 -20 4 0 5 9 9 20 9 11 0 20 -2 20 -4z"/>
<path fill="#ffffff" stroke="none" d="M110 26 c0 -2 -9 -6 -20 -9 -11 -3 -20
-1 -20 4 0 5 9 9 20 9 11 0 20 -2 20 -4z"/>
<path fill="#ffffff" stroke="none" d="M160 26 c0 -3 -4 -8 -10 -11 -5 -3 -10
-1 -10 4 0 6 5 11 10 11 6 0 10 -2 10 -4z"/>
<path fill="#ffffff" stroke="none" d="M230 26 c0 -2 -7 -6 -15 -10 -8 -3 -15
-1 -15 4 0 6 7 10 15 10 8 0 15 -2 15 -4z"/>
</g>
</svg>
