<?xml version="1.0" standalone="no"?>
<!DOCTYPE svg PUBLIC "-//W3C//DTD SVG 20010904//EN"
 "http://www.w3.org/TR/2001/REC-SVG-20010904/DTD/svg10.dtd">
<svg version="1.0" xmlns="http://www.w3.org/2000/svg"
 width="32.000000pt" height="32.000000pt" viewBox="0 0 32.000000 32.000000"
 preserveAspectRatio="xMidYMid meet">
<metadata>
Created by potrace 1.16, written by Peter Selinger 2001-2019
</metadata>
<g transform="translate(0.000000,32.000000) scale(0.100000,-0.100000)"
fill="#000000" stroke="none">
<path fill="#000000" stroke="none" d="M0 160 l0 -160 160 0 160 0 0 50 c0 47
-12 66 -23 38 -4 -10 -6 -10 -6 0 -1 7 6 15 14 18 12 5 15 24 15 83 0 53 -3
71 -10 61 -8 -13 -10 -12 -10 3 0 9 5 17 10 17 6 0 10 7 10 15 0 18 -14 19
-42 4 -16 -9 -19 -8 -12 3 6 11 5 11 -9 -1 -15 -12 -17 -11 -17 2 0 11 12 17
43 20 23 2 -31 4 -120 5 l-163 2 0 -160z"/>
<path fill="#ffffff" stroke="none" d="M48 298 c-6 -17 -38 -19 -38 -2 0 8 9
14 21 14 11 0 19 -5 17 -12z"/>
<path fill="#ffffff" stroke="none" d="M164 301 c-15 -14 -62 -22 -69 -11 -3
5 -11 10 -16 10 -6 0 -7 -4 -4 -10 3 -5 1 -10 -4 -10 -6 0 -11 7 -11 15 0 12
13 15 57 15 33 0 53 -4 47 -9z"/>
<path fill="#ffffff" stroke="none" d="M230 299 c0 -5 -5 -7 -10 -4 -6 4 -17
1 -25 -5 -12 -10 -15 -9 -15 4 0 10 9 16 25 16 14 0 25 -5 25 -11z"/>
<path fill="#ffffff" stroke="none" d="M77 263 c-9 -2 -15 -8 -13 -12 3 -4 -6
-8 -20 -9 -15 -1 -24 3 -24 13 0 11 10 15 38 14 20 -1 29 -3 19 -6z"/>
<path fill="#ffffff" stroke="none" d="M169 253 c0 -11 -3 -13 -6 -5 -5 13
-33 17 -33 4 0 -5 -7 -9 -15 -9 -8 0 -15 6 -15 14 0 8 12 13 35 13 27 0 35 -4
34 -17z"/>
<path fill="#ffffff" stroke="none" d="M218 263 c-10 -2 -18 -9 -18 -15 0 -6
-3 -9 -6 -5 -10 10 6 27 24 26 15 -1 15 -2 0 -6z"/>
<path fill="#ffffff" stroke="none" d="M277 257 c0 -8 -6 -14 -14 -14 -7 0
-13 6 -13 14 0 7 6 13 13 13 8 0 14 -6 14 -13z"/>
<path fill="#ffffff" stroke="none" d="M17 208 c-3 -8 -6 -5 -6 6 -1 11 2 17
5 13 3 -3 4 -12 1 -19z"/>
<path fill="#ffffff" stroke="none" d="M140 223 c-14 -3 -31 -10 -37 -15 -10
-8 -13 -6 -13 6 0 12 9 16 38 15 27 -1 30 -3 12 -6z"/>
<path fill="#ffffff" stroke="none" d="M259 226 c-2 -2 -17 -5 -34 -7 -16 -2
-36 -7 -42 -12 -9 -7 -13 -4 -13 7 0 12 10 16 47 16 25 0 44 -2 42 -4z"/>
<path fill="#ffffff" stroke="none" d="M305 220 c-3 -5 -12 -7 -20 -3 -21 7
-19 13 6 13 11 0 18 -4 14 -10z"/>
<path fill="#ffffff" stroke="none" d="M83 183 c-24 -2 -43 -8 -43 -14 0 -5
-4 -9 -10 -9 -5 0 -10 7 -10 15 0 12 12 15 53 13 50 -1 50 -2 10 -5z"/>
<path fill="#ffffff" stroke="none" d="M160 182 c0 -5 -7 -9 -15 -9 -8 0 -12
4 -9 9 3 4 9 8 15 8 5 0 9 -4 9 -8z"/>
<path fill="#ffffff" stroke="none" d="M244 181 c3 -4 -5 -8 -17 -7 -12 1 -25
-3 -29 -9 -5 -6 -8 -3 -8 8 0 11 8 17 24 17 14 0 27 -4 30 -9z"/>
<path fill="#ffffff" stroke="none" d="M300 186 c0 -2 -9 -6 -20 -9 -11 -3
-20 -1 -20 4 0 5 9 9 20 9 11 0 20 -2 20 -4z"/>
<path fill="#ffffff" stroke="none" d="M47 135 c0 -10 -4 -12 -13 -4 -8 7 -14
6 -17 -3 -4 -8 -6 -7 -6 5 -1 10 6 17 17 17 10 0 19 -7 19 -15z"/>
<path fill="#ffffff" stroke="none" d="M90 146 c0 -2 -7 -6 -15 -10 -8 -3 -15
-1 -15 4 0 6 7 10 15 10 8 0 15 -2 15 -4z"/>
<path fill="#ffffff" stroke="none" d="M147 143 c-9 -2 -14 -9 -11 -15 4 -6 1
-9 -6 -6 -27 9 -22 28 7 27 17 -1 21 -3 10 -6z"/>
<path fill="#ffffff" stroke="none" d="M227 136 c0 -11 -5 -12 -18 -5 -23 12
-32 12 -24 -1 3 -5 1 -10 -4 -10 -6 0 -11 7 -11 15 0 10 10 15 28 15 18 0 29
-5 29 -14z"/>
<path fill="#ffffff" stroke="none" d="M285 143 c-16 -3 -33 -10 -37 -16 -5
-8 -8 -6 -8 6 0 13 8 17 38 16 34 -2 34 -2 7 -6z"/>
<path fill="#ffffff" stroke="none" d="M50 95 c-7 -8 -16 -15 -21 -15 -5 0 -9
7 -9 15 0 9 9 15 21 15 18 0 19 -2 9 -15z"/>
<path fill="#ffffff" stroke="none" d="M106 95 c-35 -18 -36 -18 -36 0 0 10
10 15 33 15 l32 0 -29 -15z"/>
<path fill="#ffffff" stroke="none" d="M164 102 c3 -5 -1 -9 -9 -9 -8 0 -12 4
-9 9 3 4 7 8 9 8 2 0 6 -4 9 -8z"/>
<path fill="#ffffff" stroke="none" d="M230 95 c-7 -8 -16 -15 -21 -15 -5 0
-9 7 -9 15 0 9 9 15 21 15 18 0 19 -2 9 -15z"/>
<path fill="#ffffff" stroke="none" d="M277 104 c-3 -3 -12 -4 -19 -1 -8 3 -5
6 6 6 11 1 17 -2 13 -5z"/>
<path fill="#ffffff" stroke="none" d="M32 63 c-6 -2 -10 -9 -6 -14 3 -5 0 -9
-5 -9 -6 0 -11 7 -11 15 0 8 8 15 18 14 10 0 12 -3 4 -6z"/>
<path fill="#ffffff" stroke="none" d="M95 60 c-4 -6 -11 -7 -17 -4 -6 4 -14
0 -19 -7 -7 -11 -9 -10 -9 4 0 12 8 17 26 17 14 0 23 -4 19 -10z"/>
<path fill="#ffffff" stroke="none" d="M155 60 c-3 -5 -12 -7 -20 -3 -8 3 -15
-1 -15 -8 0 -7 -3 -10 -6 -6 -10 10 6 27 27 27 11 0 18 -4 14 -10z"/>
<path fill="#ffffff" stroke="none" d="M205 60 c-28 -12 -37 -12 -30 0 3 6 16
10 28 9 21 0 21 -1 2 -9z"/>
<path fill="#ffffff" stroke="none" d="M250 66 c0 -3 -4 -8 -10 -11 -5 -3 -10
-1 -10 4 0 6 5 11 10 11 6 0 10 -2 10 -4z"/>
<path fill="#ffffff" stroke="none" d="M290 61 c0 -5 -7 -12 -16 -15 -14 -5
-15 -4 -4 9 14 17 20 19 20 6z"/>
<path fill="#ffffff" stroke="none" d="M119 26 c-10 -9 -99 -14 -99 -5 0 5 23
9 52 9 28 0 49 -2 47 -4z"/>
<path fill="#ffffff" stroke="none" d="M190 26 c0 -2 -11 -6 -25 -8 -14 -3
-25 -1 -25 3 0 5 11 9 25 9 14 0 25 -2 25 -4z"/>
<path fill="#ffffff" stroke="none" d="M225 20 c-3 -5 -10 -10 -16 -10 -5 0
-9 5 -9 10 0 6 7 10 16 10 8 0 12 -4 9 -10z"/>
<path fill="#ffffff" stroke="none" d="M310 23 c0 -5 -14 -8 -30 -9 -17 -1
-30 3 -30 7 0 5 14 9 30 9 17 0 30 -3 30 -7z"/>
</g>
</svg>
