<?xml version="1.0" standalone="no"?>
<!DOCTYPE svg PUBLIC "-//W3C//DTD SVG 20010904//EN"
 "http://www.w3.org/TR/2001/REC-SVG-20010904/DTD/svg10.dtd">
<svg version="1.0" xmlns="http://www.w3.org/2000/svg"
 width="32.000000pt" height="32.000000pt" viewBox="0 0 32.000000 32.000000"
 preserveAspectRatio="xMidYMid meet">
<metadata>
Created by potrace 1.16, written by Peter Selinger 2001-2019
</metadata>
<g transform="translate(0.000000,32.000000) scale(0.100000,-0.100000)"
fill="#000000" stroke="none">
<path fill="#000000" stroke="none" d="M307 313 c-3 -5 -6 -46 -7 -93 -4 -173
-10 -192 -56 -184 -14 3 -24 0 -24 -7 0 -8 -6 -7 -17 2 -13 11 -17 11 -20 2
-3 -9 -10 -10 -24 -3 -13 7 -19 7 -19 0 0 -5 -7 -10 -16 -10 -8 0 -13 4 -10 9
4 5 -2 8 -11 6 -10 -2 -18 -4 -18 -6 0 -8 -72 -3 -77 5 -5 6 -8 1 -8 -11 0
-23 1 -23 160 -23 l161 0 -2 160 c0 88 -2 160 -4 160 -2 0 -6 -3 -8 -7z"/>
<path fill="#000000" stroke="none" d="M69 244 c-11 -14 -8 -75 4 -74 4 0 14
0 23 0 8 0 12 5 9 10 -4 6 -11 8 -16 5 -5 -4 -9 8 -9 24 0 24 4 31 20 31 11 0
20 4 20 9 0 14 -39 9 -51 -5z"/>
<path fill="#000000" stroke="none" d="M135 250 c-3 -5 -1 -10 4 -10 6 0 11
-13 11 -30 0 -16 5 -30 11 -30 6 0 9 -7 5 -15 -4 -10 1 -15 14 -15 11 0 20 -4
20 -10 0 -5 -14 -10 -31 -10 -25 0 -29 3 -24 19 3 11 1 22 -4 26 -7 3 -8 0 -5
-9 3 -9 1 -16 -5 -16 -6 0 -8 -7 -5 -15 5 -11 -1 -15 -20 -15 -14 0 -26 5 -26
10 0 6 7 10 15 10 8 0 15 5 15 10 0 7 -6 7 -19 1 -10 -6 -20 -8 -23 -6 -3 3
-5 -13 -6 -35 -1 -22 3 -40 9 -40 5 0 7 5 4 11 -4 6 2 5 13 -2 16 -10 23 -10
35 0 12 9 16 9 21 -1 5 -10 7 -10 12 0 3 6 12 12 19 12 7 0 16 -6 19 -12 3 -7
4 -1 1 13 -4 22 0 28 20 33 14 4 25 11 25 17 0 7 -6 6 -17 -2 -15 -12 -16 -12
-10 3 3 10 3 17 -1 17 -20 -3 -32 3 -32 16 0 8 -5 15 -11 15 -8 0 -8 5 1 15 9
10 9 15 1 15 -6 0 -11 9 -11 20 0 21 -15 27 -25 10z"/>
<path fill="#ffffff" stroke="none" d="M180 110 c0 -5 -11 -10 -25 -10 -14 0
-25 5 -25 10 0 6 11 10 25 10 14 0 25 -4 25 -10z"/>
<path fill="#ffffff" stroke="none" d="M120 106 c0 -9 -30 -14 -35 -6 -4 6 3
10 14 10 12 0 21 -2 21 -4z"/>
<path fill="#000000" stroke="none" d="M227 253 c-4 -3 -7 -19 -7 -34 0 -15
-6 -29 -12 -32 -7 -2 -5 -3 4 -2 9 2 19 -5 21 -14 2 -9 3 8 3 36 -1 29 -1 53
-2 53 0 0 -4 -3 -7 -7z"/>
<path fill="#000000" stroke="none" d="M221 96 c-9 -11 -9 -16 0 -22 7 -4 9
-3 5 4 -3 5 0 12 6 15 7 2 10 7 7 11 -3 4 -12 0 -18 -8z"/>
</g>
</svg>
