<?xml version="1.0" standalone="no"?>
<!DOCTYPE svg PUBLIC "-//W3C//DTD SVG 20010904//EN"
 "http://www.w3.org/TR/2001/REC-SVG-20010904/DTD/svg10.dtd">
<svg version="1.0" xmlns="http://www.w3.org/2000/svg"
 width="32.000000pt" height="32.000000pt" viewBox="0 0 32.000000 32.000000"
 preserveAspectRatio="xMidYMid meet">
<metadata>
Created by potrace 1.16, written by Peter Selinger 2001-2019
</metadata>
<g transform="translate(0.000000,32.000000) scale(0.100000,-0.100000)"
fill="#000000" stroke="none">
<path fill="#000000" stroke="none" d="M10 294 c0 -8 8 -14 18 -15 10 0 12 -3
5 -6 -23 -9 -14 -32 15 -36 25 -4 25 -4 -5 -6 -22 0 -33 -6 -33 -16 0 -19 66
-21 73 -2 4 10 6 10 6 0 1 -17 31 -16 55 2 19 14 17 15 -19 15 -21 0 -35 3
-31 7 3 4 24 6 46 5 30 -2 40 1 40 13 0 11 -11 15 -40 15 -22 0 -40 -5 -40
-10 0 -6 -6 -5 -14 2 -14 13 0 32 16 22 4 -3 8 2 8 10 0 11 -12 15 -50 14 -36
0 -50 -4 -50 -14z"/>
<path fill="#000000" stroke="none" d="M127 303 c-10 -10 -8 -23 4 -23 5 0 7
6 3 13 -6 9 -5 9 8 0 14 -12 28 -8 28 9 0 10 -34 11 -43 1z"/>
<path fill="#000000" stroke="none" d="M184 278 c3 -18 12 -36 19 -40 8 -6 6
-8 -8 -6 -11 2 -21 -3 -22 -12 -3 -10 5 -16 22 -18 19 -1 25 3 25 18 0 11 5
20 10 20 23 0 8 29 -17 33 -20 3 -15 4 15 6 30 1 42 5 42 16 0 11 -12 15 -46
15 l-46 0 6 -32z"/>
<path fill="#000000" stroke="none" d="M280 295 c0 -8 6 -15 14 -15 8 0 16 7
20 15 4 10 -1 15 -14 15 -11 0 -20 -7 -20 -15z"/>
<path fill="#000000" stroke="none" d="M250 255 c0 -12 8 -15 30 -13 41 5 43
22 3 26 -25 3 -33 -1 -33 -13z"/>
<path fill="#000000" stroke="none" d="M234 231 c-15 -16 0 -31 34 -32 23 -1
28 -3 15 -6 -13 -2 -23 -10 -23 -16 0 -9 -2 -9 -8 -1 -7 12 -41 17 -94 15 -18
-1 -28 -7 -28 -16 0 -21 37 -19 49 3 10 16 10 16 11 0 0 -13 9 -18 33 -19 30
-2 30 -2 5 -6 -39 -6 -37 -33 2 -33 23 0 30 4 30 20 0 15 7 20 29 20 27 0 29
3 28 34 -1 32 -3 34 -39 38 -22 2 -41 2 -44 -1z"/>
<path fill="#000000" stroke="none" d="M20 175 c0 -18 31 -20 49 -2 11 10 13
10 7 0 -5 -9 1 -13 21 -12 15 0 22 3 14 6 -11 5 -11 7 0 14 9 6 -5 9 -38 9
-41 0 -53 -4 -53 -15z"/>
<path fill="#000000" stroke="none" d="M150 152 c-19 -2 -38 -9 -42 -15 -6 -9
-8 -9 -8 1 0 8 -16 12 -45 12 -33 0 -45 -4 -45 -15 0 -9 10 -16 28 -16 23 -2
24 -2 4 -6 -27 -5 -29 -33 -2 -33 11 0 20 6 20 13 0 9 2 9 9 -1 12 -20 56 -11
55 11 -1 11 5 17 20 16 11 0 15 -3 9 -6 -17 -6 -17 -30 0 -36 6 -3 0 -6 -15
-6 -18 -1 -28 -6 -28 -16 0 -19 100 -21 119 -3 7 7 12 9 11 3 -5 -26 12 -51
33 -49 12 1 28 3 35 3 26 2 10 21 -17 21 -17 0 -33 4 -36 10 -3 6 1 7 9 4 9
-3 16 -1 16 5 0 6 5 11 11 11 5 0 7 -4 4 -10 -3 -5 1 -10 9 -10 9 0 16 7 16
16 0 11 -9 15 -32 14 -67 -4 -76 -1 -71 20 4 17 0 20 -23 20 -20 0 -25 3 -16
9 26 16 9 36 -28 33z"/>
<path fill="#ffffff" stroke="none" d="M107 114 c-3 -3 -12 -4 -19 -1 -8 3 -5
6 6 6 11 1 17 -2 13 -5z"/>
<path fill="#000000" stroke="none" d="M270 135 c0 -9 9 -15 25 -15 16 0 25 6
25 15 0 9 -9 15 -25 15 -16 0 -25 -6 -25 -15z"/>
<path fill="#000000" stroke="none" d="M232 98 c6 -18 75 -20 82 -2 3 8 -1 14
-8 14 -8 0 -17 -6 -19 -12 -4 -10 -6 -10 -6 0 -1 6 -13 12 -27 12 -16 0 -24
-5 -22 -12z"/>
<path fill="#000000" stroke="none" d="M10 55 c0 -8 7 -15 15 -15 8 0 15 7 15
15 0 8 -7 15 -15 15 -8 0 -15 -7 -15 -15z"/>
<path fill="#000000" stroke="none" d="M50 57 c0 -7 11 -14 25 -15 16 -1 25 3
25 13 0 9 -10 15 -25 15 -14 0 -25 -6 -25 -13z"/>
<path fill="#000000" stroke="none" d="M12 19 c2 -6 7 -10 11 -10 4 1 14 1 22
1 8 0 15 5 15 10 0 6 -12 10 -26 10 -14 0 -24 -5 -22 -11z"/>
<path fill="#000000" stroke="none" d="M70 16 c0 -17 52 -16 58 2 2 8 -7 12
-27 12 -19 0 -31 -5 -31 -14z"/>
<path fill="#000000" stroke="none" d="M140 15 c0 -17 5 -17 35 -6 11 5 30 5
43 0 16 -6 22 -5 22 6 0 11 -13 15 -50 15 -38 0 -50 -4 -50 -15z"/>
</g>
</svg>
