<?xml version="1.0" standalone="no"?>
<!DOCTYPE svg PUBLIC "-//W3C//DTD SVG 20010904//EN"
 "http://www.w3.org/TR/2001/REC-SVG-20010904/DTD/svg10.dtd">
<svg version="1.0" xmlns="http://www.w3.org/2000/svg"
 width="32.000000pt" height="32.000000pt" viewBox="0 0 32.000000 32.000000"
 preserveAspectRatio="xMidYMid meet">
<metadata>
Created by potrace 1.16, written by Peter Selinger 2001-2019
</metadata>
<g transform="translate(0.000000,32.000000) scale(0.100000,-0.100000)"
fill="#000000" stroke="none">
<path fill="#000000" stroke="none" d="M0 160 l0 -160 160 0 160 0 0 160 0
160 -160 0 -160 0 0 -160z"/>
<path fill="#ffffff" stroke="none" d="M280 295 c0 -6 -48 -11 -120 -13 l-120
-3 -1 -57 c-1 -31 -4 -70 -8 -87 -6 -24 -8 -17 -14 40 -4 39 -7 85 -7 103 l0
33 135 -3 c82 -2 135 -7 135 -13z"/>
<path fill="#ffffff" stroke="none" d="M298 200 c-2 -38 -6 -70 -10 -70 -8 0
-13 83 -8 105 1 6 3 16 3 23 0 6 4 12 9 12 5 0 8 -31 6 -70z"/>
<path fill="#ffffff" stroke="none" d="M130 254 c0 -3 -5 -14 -11 -25 -9 -17
-13 -18 -27 -7 -9 7 -13 8 -9 2 3 -6 0 -11 -6 -11 -7 0 -14 11 -15 24 -2 20 3
23 33 23 19 0 35 -3 35 -6z"/>
<path fill="#ffffff" stroke="none" d="M172 248 c-9 -9 -15 -9 -24 0 -9 9 -7
12 12 12 19 0 21 -3 12 -12z"/>
<path fill="#ffffff" stroke="none" d="M254 248 c-3 -5 -10 -6 -15 -3 -5 4 -9
1 -9 -4 0 -6 -4 -11 -10 -11 -5 0 -10 7 -10 15 0 10 9 14 24 13 14 -1 22 -6
20 -10z"/>
<path fill="#ffffff" stroke="none" d="M180 220 c0 -5 -7 -10 -15 -10 -8 0
-15 5 -15 10 0 6 7 10 15 10 8 0 15 -4 15 -10z"/>
<path fill="#ffffff" stroke="none" d="M180 196 c0 -3 -4 -8 -10 -11 -5 -3
-10 -1 -10 4 0 6 5 11 10 11 6 0 10 -2 10 -4z"/>
<path fill="#ffffff" stroke="none" d="M80 186 c0 -3 -4 -8 -10 -11 -5 -3 -10
-1 -10 4 0 6 5 11 10 11 6 0 10 -2 10 -4z"/>
<path fill="#ffffff" stroke="none" d="M240 175 c0 -8 -4 -15 -10 -15 -5 0
-10 7 -10 15 0 8 5 15 10 15 6 0 10 -7 10 -15z"/>
<path fill="#ffffff" stroke="none" d="M287 98 c-3 -8 -6 -5 -6 6 -1 11 2 17
5 13 3 -3 4 -12 1 -19z"/>
</g>
</svg>
