<?xml version="1.0" standalone="no"?>
<!DOCTYPE svg PUBLIC "-//W3C//DTD SVG 20010904//EN"
 "http://www.w3.org/TR/2001/REC-SVG-20010904/DTD/svg10.dtd">
<svg version="1.0" xmlns="http://www.w3.org/2000/svg"
 width="32.000000pt" height="32.000000pt" viewBox="0 0 32.000000 32.000000"
 preserveAspectRatio="xMidYMid meet">
<metadata>
Created by potrace 1.16, written by Peter Selinger 2001-2019
</metadata>
<g transform="translate(0.000000,32.000000) scale(0.100000,-0.100000)"
fill="#000000" stroke="none">
<path fill="#000000" stroke="none" d="M0 160 l0 -160 160 0 160 0 0 160 0
160 -160 0 -160 0 0 -160z"/>
<path fill="#ffffff" stroke="none" d="M310 303 c0 -4 -12 -20 -27 -35 l-27
-28 21 -21 21 -22 -5 36 c-2 19 0 38 5 41 5 3 10 -50 11 -129 l2 -135 -151 0
-150 0 0 150 0 150 150 0 c83 0 150 -3 150 -7z"/>
<path fill="#000000" stroke="none" d="M63 273 c16 -16 18 -16 34 0 16 16 15
17 -17 17 -32 0 -33 -1 -17 -17z"/>
<path fill="#000000" stroke="none" d="M120 265 l-23 -25 23 -25 c13 -14 31
-25 40 -25 9 0 27 11 40 25 l23 25 -23 25 c-13 14 -31 25 -40 25 -9 0 -27 -11
-40 -25z"/>
<path fill="#000000" stroke="none" d="M223 273 c16 -16 18 -16 34 0 16 16 15
17 -17 17 -32 0 -33 -1 -17 -17z"/>
<path fill="#000000" stroke="none" d="M30 240 c0 -32 1 -33 17 -17 16 16 16
18 0 34 -16 16 -17 15 -17 -17z"/>
<path fill="#000000" stroke="none" d="M52 197 c-28 -30 -28 -48 3 -77 l25
-23 25 23 c31 29 32 50 2 78 -29 27 -29 27 -55 -1z"/>
<path fill="#000000" stroke="none" d="M212 197 c-28 -30 -28 -48 3 -77 l25
-23 25 23 c31 29 32 50 2 78 -29 27 -29 27 -55 -1z"/>
<path fill="#000000" stroke="none" d="M120 105 l-23 -25 23 -25 c13 -14 31
-25 40 -25 9 0 27 11 40 25 l23 25 -23 25 c-13 14 -31 25 -40 25 -9 0 -27 -11
-40 -25z"/>
<path fill="#000000" stroke="none" d="M30 80 c0 -32 1 -33 17 -17 16 16 16
18 0 34 -16 16 -17 15 -17 -17z"/>
<path fill="#000000" stroke="none" d="M270 94 c-11 -12 -10 -18 3 -32 16 -15
17 -14 17 16 0 36 -2 38 -20 16z"/>
<path fill="#000000" stroke="none" d="M60 45 c-11 -13 -8 -15 20 -15 28 0 31
2 20 15 -7 8 -16 15 -20 15 -4 0 -13 -7 -20 -15z"/>
<path fill="#000000" stroke="none" d="M220 45 c-11 -13 -8 -15 20 -15 28 0
31 2 20 15 -7 8 -16 15 -20 15 -4 0 -13 -7 -20 -15z"/>
</g>
</svg>
