<?xml version="1.0" standalone="no"?>
<!DOCTYPE svg PUBLIC "-//W3C//DTD SVG 20010904//EN"
 "http://www.w3.org/TR/2001/REC-SVG-20010904/DTD/svg10.dtd">
<svg version="1.0" xmlns="http://www.w3.org/2000/svg"
 width="32.000000pt" height="32.000000pt" viewBox="0 0 32.000000 32.000000"
 preserveAspectRatio="xMidYMid meet">
<metadata>
Created by potrace 1.16, written by Peter Selinger 2001-2019
</metadata>
<g transform="translate(0.000000,32.000000) scale(0.100000,-0.100000)"
fill="#000000" stroke="none">
<path fill="#000000" stroke="none" d="M0 160 l0 -160 160 0 c88 0 160 3 160
8 0 4 -30 7 -68 6 -37 0 -73 4 -80 10 -10 7 -16 6 -22 -3 -6 -11 -9 -10 -16 2
-7 11 -15 12 -34 5 -14 -6 -38 -11 -55 -11 l-30 -1 -2 117 c-1 66 3 119 8 123
6 4 6 11 -1 19 -19 22 -2 35 46 35 33 0 44 -4 44 -15 0 -22 46 -38 71 -25 10
6 19 18 19 26 0 13 8 15 43 11 23 -3 51 -2 62 3 12 5 -41 9 -142 9 l-163 1 0
-160z"/>
<path fill="#000000" stroke="none" d="M57 293 c-12 -11 -8 -23 8 -23 8 0 15
7 15 15 0 16 -12 20 -23 8z"/>
<path fill="#000000" stroke="none" d="M227 293 c-12 -12 -7 -22 8 -17 8 4 15
10 15 15 0 11 -14 12 -23 2z"/>
<path fill="#000000" stroke="none" d="M292 288 c-17 -17 -15 -35 4 -42 23 -9
24 -8 24 24 0 32 -9 37 -28 18z"/>
<path fill="#000000" stroke="none" d="M53 244 c-8 -20 13 -42 27 -28 12 12 3
44 -11 44 -5 0 -12 -7 -16 -16z"/>
<path fill="#000000" stroke="none" d="M197 239 c-3 -12 -10 -18 -16 -14 -6 3
-9 11 -6 16 4 5 -1 9 -9 9 -9 0 -16 -4 -16 -10 0 -5 5 -10 10 -10 6 0 15 -12
20 -26 7 -19 16 -25 32 -22 30 4 34 28 10 56 l-20 22 -5 -21z"/>
<path fill="#000000" stroke="none" d="M260 220 c0 -5 5 -10 10 -10 6 0 10 5
10 10 0 6 -4 10 -10 10 -5 0 -10 -4 -10 -10z"/>
<path fill="#000000" stroke="none" d="M309 218 c-1 -7 -1 -34 1 -60 1 -41 -2
-51 -27 -73 -27 -24 -28 -25 -9 -40 41 -31 46 -21 46 85 0 55 -2 100 -5 100
-3 0 -6 -6 -6 -12z"/>
<path fill="#000000" stroke="none" d="M108 202 c-10 -2 -18 -8 -18 -13 0 -13
27 -11 35 2 9 13 4 16 -17 11z"/>
<path fill="#000000" stroke="none" d="M26 173 c-7 -18 14 -37 27 -24 9 9 -1
41 -13 41 -4 0 -11 -8 -14 -17z"/>
<path fill="#000000" stroke="none" d="M114 159 c-14 -15 -16 -24 -8 -37 15
-23 48 -27 64 -7 11 13 11 20 0 40 -16 30 -31 31 -56 4z"/>
<path fill="#000000" stroke="none" d="M260 160 c0 -5 5 -10 10 -10 6 0 10 5
10 10 0 6 -4 10 -10 10 -5 0 -10 -4 -10 -10z"/>
<path fill="#000000" stroke="none" d="M66 131 c-4 -7 -5 -15 -2 -18 9 -9 19
4 14 18 -4 11 -6 11 -12 0z"/>
<path fill="#000000" stroke="none" d="M217 131 c2 -2 -2 -10 -8 -17 -7 -8 -7
-14 1 -19 18 -11 32 9 18 26 -7 8 -12 12 -11 10z"/>
<path fill="#000000" stroke="none" d="M272 129 c2 -6 8 -10 13 -10 5 0 11 4
13 10 2 6 -4 11 -13 11 -9 0 -15 -5 -13 -11z"/>
<path fill="#000000" stroke="none" d="M30 121 c0 -5 5 -13 10 -16 6 -3 10 -2
10 4 0 5 -4 13 -10 16 -5 3 -10 2 -10 -4z"/>
<path fill="#000000" stroke="none" d="M91 66 c-9 -10 -9 -16 -1 -21 16 -10
31 7 21 23 -6 10 -10 10 -20 -2z"/>
<path fill="#000000" stroke="none" d="M186 61 c-4 -7 -5 -15 -2 -18 9 -9 19
4 14 18 -4 11 -6 11 -12 0z"/>
<path fill="#000000" stroke="none" d="M220 56 c0 -9 5 -16 10 -16 6 0 10 4
10 9 0 6 -4 13 -10 16 -5 3 -10 -1 -10 -9z"/>
</g>
</svg>
