<?xml version="1.0" standalone="no"?>
<!DOCTYPE svg PUBLIC "-//W3C//DTD SVG 20010904//EN"
 "http://www.w3.org/TR/2001/REC-SVG-20010904/DTD/svg10.dtd">
<svg version="1.0" xmlns="http://www.w3.org/2000/svg"
 width="32.000000pt" height="32.000000pt" viewBox="0 0 32.000000 32.000000"
 preserveAspectRatio="xMidYMid meet">
<metadata>
Created by potrace 1.16, written by Peter Selinger 2001-2019
</metadata>
<g transform="translate(0.000000,32.000000) scale(0.100000,-0.100000)"
fill="#000000" stroke="none">
<path fill="#000000" stroke="none" d="M196 309 c4 -8 30 -6 38 2 3 3 -5 5
-19 5 -13 0 -22 -3 -19 -7z"/>
<path fill="#000000" stroke="none" d="M2 231 c0 -17 1 -31 3 -31 7 0 12 39 5
49 -4 7 -7 -1 -8 -18z"/>
<path fill="#000000" stroke="none" d="M9 188 c-5 -18 -6 -38 -1 -34 7 8 12
36 6 36 -2 0 -4 -1 -5 -2z"/>
</g>
</svg>
