<?xml version="1.0" standalone="no"?>
<!DOCTYPE svg PUBLIC "-//W3C//DTD SVG 20010904//EN"
 "http://www.w3.org/TR/2001/REC-SVG-20010904/DTD/svg10.dtd">
<svg version="1.0" xmlns="http://www.w3.org/2000/svg"
 width="32.000000pt" height="32.000000pt" viewBox="0 0 32.000000 32.000000"
 preserveAspectRatio="xMidYMid meet">
<metadata>
Created by potrace 1.16, written by Peter Selinger 2001-2019
</metadata>
<g transform="translate(0.000000,32.000000) scale(0.100000,-0.100000)"
fill="#000000" stroke="none">
<path fill="#000000" stroke="none" d="M21 294 c-11 -13 -11 -20 -1 -39 7 -13
10 -31 7 -39 -4 -9 -2 -28 4 -42 7 -20 6 -32 -6 -50 -21 -33 -20 -74 3 -73 10
0 12 3 5 6 -7 2 -13 9 -13 14 0 6 5 7 10 4 6 -3 13 1 16 9 3 9 11 13 17 9 6
-4 7 -1 2 7 -6 10 -11 10 -20 -3 -16 -22 -27 -10 -12 13 10 17 13 17 39 4 15
-8 28 -17 28 -20 0 -3 -5 -2 -11 2 -8 5 -8 1 0 -14 17 -32 14 -39 -26 -50 -25
-6 -30 -10 -16 -11 12 -1 34 4 48 11 22 10 28 9 40 -8 14 -18 15 -17 6 7 -5
15 -7 30 -4 33 4 3 -5 7 -18 7 -17 1 -19 3 -6 6 21 5 22 19 2 27 -9 3 -12 12
-8 22 6 15 7 15 20 -2 7 -10 13 -14 13 -8 0 5 -7 18 -15 28 -13 17 -13 21 1
30 13 10 12 14 -6 34 -12 12 -19 26 -16 30 2 4 -12 7 -32 7 -28 0 -37 4 -37
18 0 9 5 16 10 15 6 -2 10 -8 9 -14 -1 -6 5 -11 12 -11 17 0 17 3 4 27 -9 16
-8 18 6 13 12 -4 15 -3 10 5 -10 17 -48 14 -65 -4z"/>
<path fill="#ffffff" stroke="none" d="M70 220 c15 8 22 5 34 -12 8 -12 12
-26 8 -32 -3 -6 -8 -20 -9 -30 -5 -28 -8 -29 -35 -15 -16 8 -19 14 -9 17 7 2
18 -2 23 -9 7 -11 8 -9 6 6 -2 11 -11 20 -21 20 -23 0 -39 28 -30 51 4 11 8
13 11 6 2 -8 9 -9 22 -2z"/>
<path fill="#000000" stroke="none" d="M156 283 c-4 -16 -4 -38 -2 -50 4 -17
1 -20 -11 -16 -11 4 -14 2 -11 -8 3 -8 10 -13 16 -12 7 2 9 -4 5 -14 -4 -10
-2 -14 4 -10 6 4 13 20 16 37 4 18 13 30 22 30 9 0 13 5 10 10 -3 6 -1 10 6
10 7 0 10 3 7 6 -4 3 -16 0 -28 -6 -30 -16 -32 -9 -9 20 11 14 17 18 14 10 -4
-12 3 -15 35 -14 37 2 39 0 29 -18 -6 -11 -17 -17 -24 -14 -11 4 -12 0 -3 -19
13 -29 39 -37 64 -18 18 13 17 14 -8 8 -21 -5 -26 -3 -25 12 1 10 12 28 25 40
24 24 32 54 9 35 -14 -12 -88 -11 -80 1 2 4 -9 7 -26 7 -24 0 -30 -5 -35 -27z"/>
<path fill="#000000" stroke="none" d="M198 223 c7 -3 16 -2 19 1 4 3 -2 6
-13 5 -11 0 -14 -3 -6 -6z"/>
<path fill="#000000" stroke="none" d="M180 170 c-10 -18 -10 -21 2 -14 7 5
20 7 29 6 9 -2 22 5 30 14 13 16 12 16 -9 3 -19 -12 -24 -12 -31 0 -7 11 -11
9 -21 -9z"/>
<path fill="#000000" stroke="none" d="M261 144 c-6 -14 -9 -30 -5 -35 8 -14
-15 -39 -36 -39 -30 0 -17 -34 16 -42 16 -3 40 -10 54 -14 22 -6 23 -5 13 8
-7 8 -9 19 -5 23 4 5 1 5 -6 1 -7 -4 -9 -13 -6 -19 4 -7 3 -9 -1 -4 -14 12
-13 46 2 58 18 16 16 30 -3 22 -12 -4 -15 -1 -12 13 2 10 10 18 18 16 10 -2
11 0 2 11 -7 8 -9 17 -5 20 3 4 2 7 -4 7 -5 0 -15 -12 -22 -26z"/>
<path fill="#ffffff" stroke="none" d="M265 50 c4 -6 -5 -10 -20 -10 -15 0
-24 4 -20 10 3 6 12 10 20 10 8 0 17 -4 20 -10z"/>
<path fill="#000000" stroke="none" d="M150 44 c0 -14 3 -15 18 -3 9 7 19 15
21 16 2 2 -5 3 -17 3 -14 0 -22 -6 -22 -16z"/>
<path fill="#000000" stroke="none" d="M170 36 c0 -2 7 -9 15 -16 12 -10 15
-10 15 4 0 9 -7 16 -15 16 -8 0 -15 -2 -15 -4z"/>
</g>
</svg>
