<?xml version="1.0" standalone="no"?>
<!DOCTYPE svg PUBLIC "-//W3C//DTD SVG 20010904//EN"
 "http://www.w3.org/TR/2001/REC-SVG-20010904/DTD/svg10.dtd">
<svg version="1.0" xmlns="http://www.w3.org/2000/svg"
 width="32.000000pt" height="32.000000pt" viewBox="0 0 32.000000 32.000000"
 preserveAspectRatio="xMidYMid meet">
<metadata>
Created by potrace 1.16, written by Peter Selinger 2001-2019
</metadata>
<g transform="translate(0.000000,32.000000) scale(0.100000,-0.100000)"
fill="#000000" stroke="none">
<path fill="#000000" stroke="none" d="M10 158 c0 -83 2 -149 5 -147 2 3 5 68
6 146 l2 141 106 -1 c103 -2 106 -3 107 -25 1 -26 13 -43 15 -21 1 8 2 21 3
29 0 8 15 18 31 21 17 4 -39 7 -122 8 l-153 1 0 -152z"/>
<path fill="#000000" stroke="none" d="M47 257 c-3 -7 -2 -19 3 -26 5 -10 8
-9 13 2 3 7 2 19 -3 26 -5 10 -8 9 -13 -2z"/>
<path fill="#000000" stroke="none" d="M217 67 c-3 -7 -2 -19 3 -26 5 -10 8
-9 13 2 3 7 2 19 -3 26 -5 10 -8 9 -13 -2z"/>
</g>
</svg>
