<?xml version="1.0" standalone="no"?>
<!DOCTYPE svg PUBLIC "-//W3C//DTD SVG 20010904//EN"
 "http://www.w3.org/TR/2001/REC-SVG-20010904/DTD/svg10.dtd">
<svg version="1.0" xmlns="http://www.w3.org/2000/svg"
 width="32.000000pt" height="32.000000pt" viewBox="0 0 32.000000 32.000000"
 preserveAspectRatio="xMidYMid meet">
<metadata>
Created by potrace 1.16, written by Peter Selinger 2001-2019
</metadata>
<g transform="translate(0.000000,32.000000) scale(0.100000,-0.100000)"
fill="#000000" stroke="none">
<path fill="#000000" stroke="none" d="M0 160 l0 -160 160 0 160 0 0 160 0
160 -160 0 -160 0 0 -160z"/>
<path fill="#ffffff" stroke="none" d="M305 299 c-4 -6 -27 -9 -51 -8 -24 2
-47 -1 -51 -6 -4 -4 -3 -5 3 -2 6 3 11 0 11 -7 0 -7 -6 -13 -13 -13 -7 0 -11
7 -9 16 2 14 -10 16 -81 16 -83 0 -84 0 -85 -25 -4 -78 -5 -177 -1 -187 6 -19
22 -16 23 5 0 13 2 14 6 2 3 -8 11 -18 17 -22 7 -5 7 -8 -2 -8 -8 0 -12 -9
-10 -22 2 -15 -3 -24 -15 -26 -16 -3 -17 -1 -5 17 11 18 11 23 -2 31 -12 8
-16 3 -21 -23 -4 -17 -7 37 -8 121 l-1 152 151 0 c104 0 148 -3 144 -11z"/>
<path fill="#ffffff" stroke="none" d="M84 238 c8 -5 7 -8 -1 -8 -7 0 -13 -8
-14 -17 0 -14 -2 -15 -6 -3 -3 8 -11 18 -17 22 -8 5 -7 8 2 8 6 0 12 8 13 18
0 13 2 14 6 2 3 -8 11 -18 17 -22z"/>
<path fill="#ffffff" stroke="none" d="M284 238 c8 -5 7 -8 -1 -8 -7 0 -13 -8
-14 -17 0 -14 -2 -15 -6 -3 -3 8 -11 18 -17 22 -8 5 -7 8 2 8 6 0 12 8 13 18
0 13 2 14 6 2 3 -8 11 -18 17 -22z"/>
<path fill="#ffffff" stroke="none" d="M267 175 c0 -6 -6 -12 -12 -12 -6 0
-12 6 -12 12 0 6 6 12 12 12 6 0 12 -6 12 -12z"/>
<path fill="#ffffff" stroke="none" d="M117 105 c0 -6 -6 -12 -12 -12 -6 0
-12 6 -12 12 0 6 6 12 12 12 6 0 12 -6 12 -12z"/>
<path fill="#ffffff" stroke="none" d="M115 20 c-3 -5 -13 -10 -21 -10 -8 0
-12 5 -9 10 3 6 13 10 21 10 8 0 12 -4 9 -10z"/>
<path fill="#ffffff" stroke="none" d="M165 20 c-3 -5 -13 -10 -21 -10 -8 0
-12 5 -9 10 3 6 13 10 21 10 8 0 12 -4 9 -10z"/>
<path fill="#ffffff" stroke="none" d="M264 21 c-9 -9 -75 -10 -69 -1 3 5 21
8 39 7 19 -1 32 -4 30 -6z"/>
</g>
</svg>
