<?xml version="1.0" standalone="no"?>
<!DOCTYPE svg PUBLIC "-//W3C//DTD SVG 20010904//EN"
 "http://www.w3.org/TR/2001/REC-SVG-20010904/DTD/svg10.dtd">
<svg version="1.0" xmlns="http://www.w3.org/2000/svg"
 width="32.000000pt" height="32.000000pt" viewBox="0 0 32.000000 32.000000"
 preserveAspectRatio="xMidYMid meet">
<metadata>
Created by potrace 1.16, written by Peter Selinger 2001-2019
</metadata>
<g transform="translate(0.000000,32.000000) scale(0.100000,-0.100000)"
fill="#000000" stroke="none">
<path fill="#000000" stroke="none" d="M15 310 c17 -7 17 -9 3 -9 -14 -1 -18
-9 -17 -33 0 -28 2 -30 9 -13 6 13 9 -16 9 -83 1 -66 -3 -101 -9 -97 -6 4 -10
-5 -10 -19 0 -18 6 -26 18 -27 15 0 14 -1 -3 -8 -16 -7 -14 -9 14 -14 43 -9
238 -9 270 0 23 6 23 7 5 14 -16 7 -17 8 -1 8 12 1 17 9 17 29 0 21 -2 24 -10
12 -7 -10 -10 22 -9 100 0 73 4 108 9 95 8 -18 9 -17 9 8 1 19 -4 27 -16 28
-15 0 -15 2 2 9 12 5 -44 9 -145 9 -101 0 -157 -4 -145 -9z"/>
<path fill="#ffffff" stroke="none" d="M167 285 c0 -17 -42 -21 -52 -5 -4 6
-10 8 -15 5 -5 -3 -11 -1 -15 5 -4 6 11 10 38 10 32 0 44 -4 44 -15z"/>
<path fill="#ffffff" stroke="none" d="M245 290 c-4 -6 -10 -8 -15 -5 -5 3
-11 1 -15 -5 -9 -15 -32 -12 -32 5 0 10 11 15 34 15 21 0 32 -4 28 -10z"/>
<path fill="#ffffff" stroke="none" d="M110 230 c0 -11 -4 -20 -9 -20 -13 0
-32 26 -24 33 13 14 33 6 33 -13z"/>
<path fill="#ffffff" stroke="none" d="M210 225 c0 -19 5 -25 21 -25 12 0 19
-5 17 -12 -6 -18 -69 -23 -79 -6 -7 10 -9 10 -9 1 0 -8 -13 -13 -30 -13 -20 0
-30 5 -30 15 0 8 5 15 10 15 6 0 10 11 10 25 0 23 4 25 45 25 41 0 45 -2 45
-25z"/>
<path fill="#ffffff" stroke="none" d="M250 246 c0 -2 -3 -11 -6 -20 -9 -23
-24 -20 -24 4 0 11 7 20 15 20 8 0 15 -2 15 -4z"/>
<path fill="#ffffff" stroke="none" d="M37 132 c-2 -15 -4 -2 -4 28 0 30 2 43
4 28 2 -16 2 -40 0 -56z"/>
<path fill="#ffffff" stroke="none" d="M90 185 c0 -8 -2 -15 -4 -15 -2 0 -6 7
-10 15 -3 8 -1 15 4 15 6 0 10 -7 10 -15z"/>
<path fill="#ffffff" stroke="none" d="M287 163 c-3 -10 -5 -4 -5 12 0 17 2
24 5 18 2 -7 2 -21 0 -30z"/>
<path fill="#ffffff" stroke="none" d="M190 148 c0 -10 2 -10 8 0 12 19 45 4
36 -17 -4 -9 -6 -26 -6 -37 2 -20 -3 -22 -63 -22 -36 0 -68 4 -71 9 -3 5 3 9
13 9 16 0 18 6 15 35 -4 34 -3 35 32 35 22 0 36 -5 36 -12z"/>
<path fill="#ffffff" stroke="none" d="M110 124 c0 -27 -14 -25 -30 7 -9 16
-7 19 10 19 15 0 20 -7 20 -26z"/>
<path fill="#ffffff" stroke="none" d="M77 84 c-3 -3 -12 -4 -19 -1 -8 3 -5 6
6 6 11 1 17 -2 13 -5z"/>
<path fill="#000000" stroke="none" d="M187 110 c-3 -12 0 -20 8 -20 8 0 11 8
8 20 -3 11 -7 20 -8 20 -1 0 -5 -9 -8 -20z"/>
</g>
</svg>
