<?xml version="1.0" standalone="no"?>
<!DOCTYPE svg PUBLIC "-//W3C//DTD SVG 20010904//EN"
 "http://www.w3.org/TR/2001/REC-SVG-20010904/DTD/svg10.dtd">
<svg version="1.0" xmlns="http://www.w3.org/2000/svg"
 width="32.000000pt" height="32.000000pt" viewBox="0 0 32.000000 32.000000"
 preserveAspectRatio="xMidYMid meet">
<metadata>
Created by potrace 1.16, written by Peter Selinger 2001-2019
</metadata>
<g transform="translate(0.000000,32.000000) scale(0.100000,-0.100000)"
fill="#000000" stroke="none">
<path fill="#000000" stroke="none" d="M0 160 l0 -160 160 0 160 0 0 160 0
160 -160 0 -160 0 0 -160z"/>
<path fill="#ffffff" stroke="none" d="M139 298 c15 -9 25 -9 46 0 34 16 57
15 91 -3 18 -9 23 -15 12 -15 -9 0 -20 5 -23 10 -11 19 -88 5 -135 -25 -13 -7
-13 -6 -2 7 10 13 10 17 0 20 -7 3 -20 -5 -29 -16 -16 -20 -16 -21 -1 -28 13
-5 9 -8 -15 -13 -18 -4 -31 -11 -28 -15 7 -11 -22 -33 -35 -25 -17 11 -12 92
6 99 13 5 14 3 7 -6 -5 -7 -10 -24 -11 -38 -1 -14 2 -20 6 -14 4 6 17 15 30
18 12 4 30 18 38 32 19 28 18 28 43 12z"/>
<path fill="#ffffff" stroke="none" d="M170 235 c-13 -14 -31 -25 -39 -24 -10
0 -8 3 6 9 12 5 28 18 35 29 7 11 14 18 17 16 2 -3 -6 -16 -19 -30z"/>
<path fill="#ffffff" stroke="none" d="M285 210 c3 -5 1 -10 -4 -10 -6 0 -11
5 -11 10 0 6 2 10 4 10 3 0 8 -4 11 -10z"/>
<path fill="#ffffff" stroke="none" d="M130 186 c0 -2 -8 -10 -17 -17 -16 -13
-17 -12 -4 4 13 16 21 21 21 13z"/>
<path fill="#ffffff" stroke="none" d="M55 120 c-3 -6 -12 -10 -18 -10 -8 0
-8 3 2 9 10 6 11 13 2 29 -6 11 -11 24 -11 29 1 4 8 -4 16 -20 8 -15 12 -32 9
-37z"/>
<path fill="#ffffff" stroke="none" d="M265 150 c-10 -11 -28 -19 -39 -19 -19
2 -19 2 2 6 12 3 28 13 35 23 6 11 13 17 16 15 2 -3 -4 -14 -14 -25z"/>
<path fill="#ffffff" stroke="none" d="M179 111 c-13 -17 -27 -31 -31 -31 -5
0 3 12 17 27 14 15 25 32 25 37 0 5 3 7 6 3 3 -3 -4 -19 -17 -36z"/>
<path fill="#ffffff" stroke="none" d="M303 126 c3 -8 -4 -22 -16 -32 -12 -10
-16 -12 -9 -4 6 8 12 22 12 32 0 22 6 23 13 4z"/>
<path fill="#ffffff" stroke="none" d="M31 55 c5 -5 9 -16 9 -25 0 -8 -7 -2
-15 14 -8 15 -14 38 -14 50 2 18 2 17 6 -4 3 -14 9 -29 14 -35z"/>
<path fill="#ffffff" stroke="none" d="M230 75 c-7 -8 -17 -15 -23 -15 -6 0
-2 7 9 15 25 19 30 19 14 0z"/>
<path fill="#ffffff" stroke="none" d="M231 33 c13 -16 12 -17 -3 -4 -17 13
-22 21 -14 21 2 0 10 -8 17 -17z"/>
</g>
</svg>
