<?xml version="1.0" standalone="no"?>
<!DOCTYPE svg PUBLIC "-//W3C//DTD SVG 20010904//EN"
 "http://www.w3.org/TR/2001/REC-SVG-20010904/DTD/svg10.dtd">
<svg version="1.0" xmlns="http://www.w3.org/2000/svg"
 width="32.000000pt" height="32.000000pt" viewBox="0 0 32.000000 32.000000"
 preserveAspectRatio="xMidYMid meet">
<metadata>
Created by potrace 1.16, written by Peter Selinger 2001-2019
</metadata>
<g transform="translate(0.000000,32.000000) scale(0.100000,-0.100000)"
fill="#000000" stroke="none">
<path fill="#000000" stroke="none" d="M10 154 c0 -101 3 -153 10 -149 6 3 11
16 11 28 1 17 3 15 9 -8 6 -22 8 -10 9 46 1 100 23 170 62 203 38 33 60 33 98
0 39 -33 61 -103 62 -203 1 -56 3 -68 9 -46 6 24 8 26 9 8 0 -13 5 -23 10 -23
5 0 11 57 13 127 4 132 0 179 -13 133 -7 -24 -7 -24 -8 -2 -1 15 -8 22 -23 23
-15 1 -11 4 12 9 20 4 -29 7 -117 8 l-153 1 0 -155z"/>
<path fill="#ffffff" stroke="none" d="M65 290 c-3 -5 -13 -6 -22 -3 -12 5
-15 2 -10 -10 3 -9 2 -19 -3 -22 -6 -4 -10 5 -10 19 0 21 5 26 26 26 14 0 23
-4 19 -10z"/>
<path fill="#ffffff" stroke="none" d="M120 296 c0 -2 -6 -9 -13 -15 -10 -8
-14 -7 -14 4 0 8 6 15 14 15 7 0 13 -2 13 -4z"/>
<path fill="#ffffff" stroke="none" d="M232 293 c-6 -2 -9 -10 -5 -16 4 -7 -1
-6 -10 2 -22 18 -21 21 6 20 12 0 16 -3 9 -6z"/>
<path fill="#ffffff" stroke="none" d="M284 175 c3 -8 1 -15 -4 -15 -6 0 -10
7 -10 15 0 8 2 15 4 15 2 0 6 -7 10 -15z"/>
<path fill="#ffffff" stroke="none" d="M287 98 c-2 -13 -4 -5 -4 17 -1 22 1
32 4 23 2 -10 2 -28 0 -40z"/>
<path fill="#ffffff" stroke="none" d="M37 103 c-3 -10 -5 -4 -5 12 0 17 2 24
5 18 2 -7 2 -21 0 -30z"/>
<path fill="#000000" stroke="none" d="M85 209 c-9 -17 -15 -33 -13 -35 3 -2
12 12 21 31 21 43 13 47 -8 4z"/>
<path fill="#000000" stroke="none" d="M227 205 c9 -19 18 -33 21 -31 4 5 -26
66 -33 66 -3 0 3 -16 12 -35z"/>
<path fill="#000000" stroke="none" d="M108 183 c-11 -25 -22 -67 -25 -92 -2
-25 -8 -47 -13 -49 -6 -2 -10 -10 -10 -18 0 -11 20 -14 100 -14 80 0 100 3
100 14 0 8 -4 16 -10 18 -5 2 -11 24 -13 49 -4 43 -39 139 -51 139 -3 0 3 -23
14 -50 26 -66 26 -80 -1 -73 -16 5 -18 8 -7 15 9 7 7 8 -7 3 -11 -4 -35 -11
-52 -15 -40 -10 -41 -2 -13 70 25 63 16 66 -12 3z"/>
<path fill="#ffffff" stroke="none" d="M140 95 c0 -3 -10 -10 -22 -15 -22 -8
-22 -9 5 -9 15 -1 27 -4 27 -8 0 -10 -50 -14 -51 -4 0 3 -2 13 -4 21 -2 10 6
17 21 18 13 1 24 -1 24 -3z"/>
<path fill="#ffffff" stroke="none" d="M225 80 c-2 -8 -4 -18 -4 -21 -1 -10
-51 -6 -51 4 0 4 12 7 28 8 26 0 26 1 5 9 -30 12 -29 20 1 18 15 -1 23 -8 21
-18z"/>
<path fill="#ffffff" stroke="none" d="M214 41 c5 -1 6 -4 2 -8 -8 -8 -97 -14
-109 -6 -23 14 35 22 107 14z"/>
</g>
</svg>
