<?xml version="1.0" standalone="no"?>
<!DOCTYPE svg PUBLIC "-//W3C//DTD SVG 20010904//EN"
 "http://www.w3.org/TR/2001/REC-SVG-20010904/DTD/svg10.dtd">
<svg version="1.0" xmlns="http://www.w3.org/2000/svg"
 width="32.000000pt" height="32.000000pt" viewBox="0 0 32.000000 32.000000"
 preserveAspectRatio="xMidYMid meet">
<metadata>
Created by potrace 1.16, written by Peter Selinger 2001-2019
</metadata>
<g transform="translate(0.000000,32.000000) scale(0.100000,-0.100000)"
fill="#000000" stroke="none">
<path fill="#000000" stroke="none" d="M12 158 c0 -84 3 -138 5 -120 4 34 32
46 34 15 0 -14 2 -15 6 -3 3 8 11 18 17 22 8 6 8 8 -1 8 -6 0 -14 8 -16 18 -4
15 -5 15 -6 -1 0 -10 -7 -17 -13 -14 -9 2 -13 28 -12 83 2 145 -10 129 99 129
66 0 95 -4 95 -12 0 -6 -6 -14 -12 -16 -10 -4 -10 -6 0 -6 6 -1 12 -9 13 -18
0 -14 2 -15 6 -3 3 8 11 18 17 22 8 5 7 8 -1 8 -7 0 -13 5 -13 10 0 6 15 10
34 10 19 0 38 5 41 10 4 6 -47 10 -144 10 l-151 0 2 -152z"/>
<path fill="#000000" stroke="none" d="M43 245 c0 -6 6 -12 12 -12 6 0 12 6
12 12 0 6 -6 12 -12 12 -6 0 -12 -6 -12 -12z"/>
<path fill="#000000" stroke="none" d="M253 135 c0 -6 6 -12 12 -12 6 0 12 6
12 12 0 6 -6 12 -12 12 -6 0 -12 -6 -12 -12z"/>
<path fill="#000000" stroke="none" d="M241 78 c-1 -9 -7 -19 -13 -21 -10 -4
-10 -6 0 -6 6 -1 12 -7 12 -15 0 -9 -7 -12 -19 -9 -10 3 -22 0 -25 -6 -8 -13
59 -9 71 4 5 4 2 5 -4 1 -8 -4 -13 -1 -13 8 0 9 6 16 13 16 8 0 9 3 1 8 -6 4
-14 14 -17 22 -4 12 -6 12 -6 -2z"/>
<path fill="#000000" stroke="none" d="M105 42 c3 -3 -3 -11 -13 -18 -16 -13
-16 -13 0 -14 10 0 22 8 27 18 8 14 6 19 -5 19 -7 0 -12 -3 -9 -5z"/>
<path fill="#000000" stroke="none" d="M35 20 c-3 -5 1 -10 9 -10 8 0 18 5 21
10 3 6 -1 10 -9 10 -8 0 -18 -4 -21 -10z"/>
<path fill="#000000" stroke="none" d="M135 20 c-3 -5 1 -10 9 -10 8 0 18 5
21 10 3 6 -1 10 -9 10 -8 0 -18 -4 -21 -10z"/>
</g>
</svg>
