<?xml version="1.0" standalone="no"?>
<!DOCTYPE svg PUBLIC "-//W3C//DTD SVG 20010904//EN"
 "http://www.w3.org/TR/2001/REC-SVG-20010904/DTD/svg10.dtd">
<svg version="1.0" xmlns="http://www.w3.org/2000/svg"
 width="32.000000pt" height="32.000000pt" viewBox="0 0 32.000000 32.000000"
 preserveAspectRatio="xMidYMid meet">
<metadata>
Created by potrace 1.16, written by Peter Selinger 2001-2019
</metadata>
<g transform="translate(0.000000,32.000000) scale(0.100000,-0.100000)"
fill="#000000" stroke="none">
<path fill="#000000" stroke="none" d="M0 162 c0 -132 2 -159 15 -159 8 0 12
4 9 9 -3 4 22 8 56 8 46 0 59 -3 54 -13 -6 -9 -4 -9 7 1 14 13 93 17 85 4 -2
-4 4 -9 15 -9 11 -1 17 2 14 8 -9 14 39 11 54 -3 11 -11 12 -10 5 2 -15 26
-17 63 -2 54 10 -5 11 -4 1 7 -15 16 -17 65 -3 74 6 3 10 13 10 21 0 8 -5 12
-10 9 -6 -3 -10 3 -10 15 0 14 4 19 13 14 10 -6 10 -4 0 7 -16 17 -17 81 -1
97 9 9 -24 12 -150 12 l-162 0 0 -158z"/>
<path fill="#ffffff" stroke="none" d="M94 263 c20 -17 20 -17 7 0 -12 15 -10
17 21 17 24 0 35 -5 35 -14 0 -11 -5 -13 -19 -5 -13 7 -18 7 -16 -3 2 -6 -8
-14 -22 -17 -23 -6 -25 -10 -24 -61 3 -110 3 -110 20 -103 14 5 33 -11 34 -29
0 -4 -20 -7 -45 -6 -44 1 -58 10 -33 22 10 5 10 7 1 12 -7 3 -13 15 -13 25 0
11 5 17 10 14 6 -4 8 -11 5 -16 -4 -5 -4 -9 -1 -9 15 0 14 21 -1 36 -13 13
-14 19 -5 22 7 2 9 9 5 15 -4 7 -8 36 -9 65 -2 58 12 67 50 35z"/>
<path fill="#ffffff" stroke="none" d="M280 270 c0 -5 -6 -11 -12 -13 -9 -4
-10 -8 -2 -14 19 -14 23 -52 8 -68 -12 -12 -12 -15 3 -24 10 -6 12 -11 6 -11
-7 0 -13 -5 -13 -11 0 -5 6 -7 13 -3 8 5 8 2 -2 -9 -7 -9 -9 -17 -4 -17 5 0
10 -16 11 -35 2 -41 -12 -45 -54 -13 -16 12 -23 15 -16 8 6 -8 12 -17 12 -20
0 -9 -78 -6 -87 4 -4 4 -1 6 7 4 8 -2 14 3 12 10 -2 10 2 10 18 2 15 -8 20 -8
18 2 -2 6 8 14 22 17 23 6 25 10 24 61 -3 110 -3 110 -20 103 -14 -5 -33 11
-34 29 0 4 20 7 45 6 25 0 45 -4 45 -8z"/>
<path fill="#ffffff" stroke="none" d="M129 185 c7 -19 17 -35 23 -35 6 0 9 3
5 6 -3 3 -1 18 4 34 8 20 16 27 33 26 12 0 23 -7 23 -14 0 -9 -9 -12 -24 -9
-15 3 -22 0 -20 -7 3 -6 10 -10 16 -8 7 1 10 -2 7 -7 -3 -5 0 -11 7 -14 14 -5
22 -57 9 -57 -4 0 -14 16 -21 35 -7 19 -17 35 -23 35 -6 0 -9 -3 -5 -6 3 -3 1
-18 -4 -34 -8 -20 -16 -27 -33 -26 -12 0 -23 7 -23 14 0 9 9 12 24 9 15 -3 22
0 20 7 -3 6 -10 10 -16 8 -7 -1 -10 2 -7 7 3 5 0 11 -7 14 -14 5 -22 57 -9 57
4 0 14 -16 21 -35z"/>
<path fill="#ffffff" stroke="none" d="M154 205 c-4 -8 -8 -15 -10 -15 -2 0
-4 7 -4 15 0 8 4 15 10 15 5 0 7 -7 4 -15z"/>
<path fill="#ffffff" stroke="none" d="M180 115 c0 -8 -4 -15 -10 -15 -5 0 -7
7 -4 15 4 8 8 15 10 15 2 0 4 -7 4 -15z"/>
<path fill="#000000" stroke="none" d="M257 224 c-8 -8 3 -34 15 -34 7 0 6 5
-1 13 -6 8 -8 17 -4 20 3 4 4 7 1 7 -2 0 -7 -3 -11 -6z"/>
</g>
</svg>
