<?xml version="1.0" standalone="no"?>
<!DOCTYPE svg PUBLIC "-//W3C//DTD SVG 20010904//EN"
 "http://www.w3.org/TR/2001/REC-SVG-20010904/DTD/svg10.dtd">
<svg version="1.0" xmlns="http://www.w3.org/2000/svg"
 width="32.000000pt" height="32.000000pt" viewBox="0 0 32.000000 32.000000"
 preserveAspectRatio="xMidYMid meet">
<metadata>
Created by potrace 1.16, written by Peter Selinger 2001-2019
</metadata>
<g transform="translate(0.000000,32.000000) scale(0.100000,-0.100000)"
fill="#000000" stroke="none">
<path fill="#000000" stroke="none" d="M7 303 c7 -2 19 -2 26 0 6 3 1 5 -13 5
-14 0 -19 -2 -13 -5z"/>
<path fill="#000000" stroke="none" d="M288 303 c6 -2 18 -2 25 0 6 3 1 5 -13
5 -14 0 -19 -2 -12 -5z"/>
<path fill="#000000" stroke="none" d="M82 288 c3 -7 23 -14 46 -16 33 -2 42
0 42 12 0 12 -11 16 -46 16 -32 0 -44 -4 -42 -12z"/>
<path fill="#000000" stroke="none" d="M180 284 c0 -11 8 -14 32 -12 46 4 49
28 4 28 -26 0 -36 -4 -36 -16z"/>
<path fill="#000000" stroke="none" d="M300 165 c0 -88 3 -125 10 -115 5 8 10
60 10 115 0 55 -5 107 -10 115 -7 10 -10 -27 -10 -115z"/>
<path fill="#000000" stroke="none" d="M7 273 c-9 -15 -6 -198 3 -218 6 -13 9
22 9 103 1 114 -1 133 -12 115z"/>
<path fill="#000000" stroke="none" d="M126 252 c-3 -5 -19 -7 -36 -4 -34 5
-38 -3 -13 -30 9 -11 11 -18 5 -18 -7 0 -12 -7 -12 -15 0 -18 16 -20 23 -2 4
10 6 10 6 0 1 -7 9 -13 19 -13 9 0 22 -10 27 -22 6 -13 20 -27 33 -33 23 -10
30 -25 11 -25 -6 0 -23 13 -39 29 -16 16 -32 26 -35 23 -3 -3 -5 0 -5 6 0 7
-9 12 -20 12 -22 0 -25 -12 -9 -41 6 -12 17 -18 25 -15 8 3 14 1 14 -4 0 -6
-7 -10 -15 -10 -8 0 -15 -7 -15 -15 0 -12 14 -15 70 -15 64 0 70 2 70 20 0 12
7 34 15 50 15 30 15 30 -14 30 -16 0 -32 -6 -34 -12 -3 -8 -6 -6 -6 5 -1 13 7
17 30 17 26 0 31 3 26 20 -3 11 -1 23 4 26 17 10 9 34 -11 34 -15 0 -20 -7
-20 -25 0 -22 -4 -25 -40 -25 -22 0 -40 2 -40 5 0 3 16 11 36 20 19 8 33 19
29 25 -7 12 -72 14 -79 2z"/>
<path fill="#ffffff" stroke="none" d="M175 170 c3 -5 -1 -10 -10 -10 -9 0
-13 5 -10 10 3 6 8 10 10 10 2 0 7 -4 10 -10z"/>
<path fill="#000000" stroke="none" d="M283 185 c0 -27 2 -38 4 -22 2 15 2 37
0 50 -2 12 -4 0 -4 -28z"/>
<path fill="#000000" stroke="none" d="M33 155 c0 -38 2 -53 4 -32 2 20 2 52
0 70 -2 17 -4 1 -4 -38z"/>
<path fill="#000000" stroke="none" d="M281 94 c0 -11 3 -14 6 -6 3 7 2 16 -1
19 -3 4 -6 -2 -5 -13z"/>
<path fill="#000000" stroke="none" d="M56 75 c4 -8 10 -12 15 -9 14 8 10 24
-6 24 -9 0 -12 -6 -9 -15z"/>
<path fill="#000000" stroke="none" d="M248 83 c7 -3 16 -2 19 1 4 3 -2 6 -13
5 -11 0 -14 -3 -6 -6z"/>
<path fill="#000000" stroke="none" d="M135 40 c-4 -6 -12 -7 -18 -3 -7 4 -6
0 2 -10 16 -20 57 -19 74 2 9 12 9 13 0 7 -7 -4 -21 -2 -32 4 -13 7 -22 7 -26
0z"/>
<path fill="#000000" stroke="none" d="M0 15 c0 -10 9 -15 28 -14 27 2 27 2 2
7 -23 4 -24 5 -5 13 19 7 19 8 -2 8 -14 1 -23 -5 -23 -14z"/>
<path fill="#000000" stroke="none" d="M295 21 c19 -8 18 -9 -5 -13 -25 -5
-25 -5 3 -7 18 -1 27 4 27 14 0 9 -9 15 -22 14 -22 0 -22 -1 -3 -8z"/>
</g>
</svg>
