<?xml version="1.0" standalone="no"?>
<!DOCTYPE svg PUBLIC "-//W3C//DTD SVG 20010904//EN"
 "http://www.w3.org/TR/2001/REC-SVG-20010904/DTD/svg10.dtd">
<svg version="1.0" xmlns="http://www.w3.org/2000/svg"
 width="32.000000pt" height="32.000000pt" viewBox="0 0 32.000000 32.000000"
 preserveAspectRatio="xMidYMid meet">
<metadata>
Created by potrace 1.16, written by Peter Selinger 2001-2019
</metadata>
<g transform="translate(0.000000,32.000000) scale(0.100000,-0.100000)"
fill="#000000" stroke="none">
<path fill="#000000" stroke="none" d="M0 160 l0 -160 160 0 160 0 0 160 0
160 -160 0 -160 0 0 -160z"/>
<path fill="#ffffff" stroke="none" d="M114 304 c18 -7 22 -44 5 -44 -5 0 -7
-5 -3 -12 5 -7 3 -8 -6 -3 -7 4 -16 2 -22 -6 -8 -11 -9 -10 -4 4 3 9 1 17 -4
17 -15 0 -12 37 3 43 6 3 13 6 14 6 1 1 8 -2 17 -5z"/>
<path fill="#ffffff" stroke="none" d="M221 293 c0 -11 3 -13 6 -5 6 14 33 16
33 2 0 -5 7 -7 15 -4 11 5 15 -1 15 -22 0 -23 -2 -26 -10 -14 -5 8 -10 12 -10
7 0 -4 -13 -1 -30 8 -35 18 -54 19 -72 3 -23 -22 -35 -19 -30 7 5 26 27 34 35
13 3 -8 6 -6 6 5 1 23 41 23 42 0z"/>
<path fill="#ffffff" stroke="none" d="M63 273 c2 -13 0 -26 -6 -30 -5 -3 -7
-1 -4 5 5 6 0 8 -13 5 -17 -5 -20 -1 -16 18 5 29 3 26 20 26 8 0 16 -11 19
-24z"/>
<path fill="#ffffff" stroke="none" d="M58 231 c10 -6 8 -10 -10 -14 -34 -10
-38 -9 -32 8 7 17 22 19 42 6z"/>
<path fill="#ffffff" stroke="none" d="M205 212 c-3 -3 -11 0 -18 7 -9 10 -8
11 6 5 10 -3 15 -9 12 -12z"/>
<path fill="#ffffff" stroke="none" d="M290 220 c0 -5 -2 -10 -4 -10 -3 0 -8
5 -11 10 -3 6 -1 10 4 10 6 0 11 -4 11 -10z"/>
<path fill="#ffffff" stroke="none" d="M40 190 c0 -5 -2 -10 -4 -10 -3 0 -8 5
-11 10 -3 6 -1 10 4 10 6 0 11 -4 11 -10z"/>
<path fill="#ffffff" stroke="none" d="M63 88 c-2 -5 -13 -8 -24 -8 -24 0 -25
23 -2 46 17 16 18 16 24 -7 3 -13 4 -27 2 -31z"/>
<path fill="#ffffff" stroke="none" d="M130 126 c0 -2 -7 -7 -16 -10 -8 -3
-12 -2 -9 4 6 10 25 14 25 6z"/>
<path fill="#ffffff" stroke="none" d="M225 120 c3 -5 1 -10 -4 -10 -6 0 -11
5 -11 10 0 6 2 10 4 10 3 0 8 -4 11 -10z"/>
<path fill="#ffffff" stroke="none" d="M56 61 c-8 -12 20 -22 41 -14 11 4 14
3 9 -5 -11 -19 -51 -14 -71 8 -18 19 -17 20 4 20 12 0 20 -4 17 -9z"/>
</g>
</svg>
