<?xml version="1.0" standalone="no"?>
<!DOCTYPE svg PUBLIC "-//W3C//DTD SVG 20010904//EN"
 "http://www.w3.org/TR/2001/REC-SVG-20010904/DTD/svg10.dtd">
<svg version="1.0" xmlns="http://www.w3.org/2000/svg"
 width="32.000000pt" height="32.000000pt" viewBox="0 0 32.000000 32.000000"
 preserveAspectRatio="xMidYMid meet">
<metadata>
Created by potrace 1.16, written by Peter Selinger 2001-2019
</metadata>
<g transform="translate(0.000000,32.000000) scale(0.100000,-0.100000)"
fill="#000000" stroke="none">
<path fill="#000000" stroke="none" d="M0 160 l0 -160 160 0 160 0 0 160 0
160 -160 0 -160 0 0 -160z"/>
<path fill="#ffffff" stroke="none" d="M308 160 l2 -150 -150 0 -150 0 0 150
0 150 148 0 148 0 2 -150z"/>
<path fill="#000000" stroke="none" d="M30 280 c0 -5 7 -10 15 -10 8 0 15 5
15 10 0 6 -7 10 -15 10 -8 0 -15 -4 -15 -10z"/>
<path fill="#000000" stroke="none" d="M70 280 c0 -5 8 -10 18 -11 13 0 14 -2
2 -6 -8 -3 -18 -11 -22 -17 -5 -8 -8 -7 -8 2 0 6 -7 12 -15 12 -12 0 -15 -19
-15 -115 l0 -115 100 0 c55 0 100 4 100 9 0 5 -8 12 -17 14 -17 4 -17 5 0 6 9
0 17 7 17 14 0 8 3 9 8 1 4 -6 14 -14 22 -17 12 -4 11 -6 -2 -6 -28 -1 -21
-21 7 -21 23 0 25 3 25 62 0 35 1 92 2 128 l2 65 -112 3 c-72 2 -112 -1 -112
-8z"/>
<path fill="#ffffff" stroke="none" d="M260 257 c12 -4 11 -6 -2 -6 -10 -1
-18 -7 -18 -13 0 -9 -3 -10 -8 -2 -4 6 -14 14 -22 17 -12 4 -11 6 3 6 9 1 17
7 17 14 0 8 3 9 8 1 4 -6 14 -14 22 -17z"/>
<path fill="#ffffff" stroke="none" d="M117 215 c0 -6 -6 -12 -12 -12 -6 0
-12 6 -12 12 0 6 6 12 12 12 6 0 12 -6 12 -12z"/>
<path fill="#ffffff" stroke="none" d="M275 121 c3 -5 2 -12 -3 -15 -5 -3 -9
1 -9 9 0 17 3 19 12 6z"/>
<path fill="#ffffff" stroke="none" d="M187 65 c0 -6 -6 -12 -12 -12 -6 0 -12
6 -12 12 0 6 6 12 12 12 6 0 12 -6 12 -12z"/>
</g>
</svg>
