<?xml version="1.0" standalone="no"?>
<!DOCTYPE svg PUBLIC "-//W3C//DTD SVG 20010904//EN"
 "http://www.w3.org/TR/2001/REC-SVG-20010904/DTD/svg10.dtd">
<svg version="1.0" xmlns="http://www.w3.org/2000/svg"
 width="32.000000pt" height="32.000000pt" viewBox="0 0 32.000000 32.000000"
 preserveAspectRatio="xMidYMid meet">
<metadata>
Created by potrace 1.16, written by Peter Selinger 2001-2019
</metadata>
<g transform="translate(0.000000,32.000000) scale(0.100000,-0.100000)"
fill="#000000" stroke="none">
<path fill="#000000" stroke="none" d="M0 160 l0 -160 160 0 160 0 0 160 0
160 -160 0 -160 0 0 -160z"/>
<path fill="#ffffff" stroke="none" d="M308 160 l2 -150 -150 0 -150 0 0 150
0 150 148 0 148 0 2 -150z"/>
<path fill="#000000" stroke="none" d="M30 269 c0 -14 5 -19 13 -16 8 3 20 1
28 -4 12 -7 12 -9 -1 -10 -8 -1 -21 -1 -27 0 -10 1 -13 -25 -13 -104 l0 -105
131 0 130 0 -1 77 c0 43 0 87 1 98 3 41 -1 57 -14 52 -8 -3 -20 -1 -28 4 -12
7 -12 9 1 10 8 1 23 0 34 -1 11 -1 15 3 12 9 -5 7 -55 11 -137 11 -125 0 -129
-1 -129 -21z"/>
<path fill="#ffffff" stroke="none" d="M229 50 c-7 -5 -19 -6 -26 -3 -11 5
-12 8 -2 13 7 5 19 6 26 3 11 -5 12 -8 2 -13z"/>
</g>
</svg>
