<?xml version="1.0" standalone="no"?>
<!DOCTYPE svg PUBLIC "-//W3C//DTD SVG 20010904//EN"
 "http://www.w3.org/TR/2001/REC-SVG-20010904/DTD/svg10.dtd">
<svg version="1.0" xmlns="http://www.w3.org/2000/svg"
 width="32.000000pt" height="32.000000pt" viewBox="0 0 32.000000 32.000000"
 preserveAspectRatio="xMidYMid meet">
<metadata>
Created by potrace 1.16, written by Peter Selinger 2001-2019
</metadata>
<g transform="translate(0.000000,32.000000) scale(0.100000,-0.100000)"
fill="#000000" stroke="none">
<path fill="#000000" stroke="none" d="M13 303 c9 -2 23 -2 30 0 6 3 -1 5 -18
5 -17 0 -22 -2 -12 -5z"/>
<path fill="#000000" stroke="none" d="M80 284 c0 -12 -6 -24 -14 -27 -18 -7
-20 -87 -2 -87 6 0 4 -5 -4 -10 -12 -7 -13 -15 -3 -40 6 -16 7 -30 2 -30 -5 0
-9 -7 -9 -15 0 -8 7 -15 15 -15 8 0 15 6 15 13 0 9 2 9 8 0 4 -6 21 -13 37
-16 l30 -4 -32 -2 c-24 -1 -31 -5 -29 -19 4 -26 128 -26 132 1 1 11 -4 17 -19
17 -33 0 -12 11 22 12 60 2 47 37 -14 38 -16 0 -41 10 -55 21 l-25 21 27 -16
c26 -16 30 -15 70 6 31 16 38 23 25 26 -9 2 -15 8 -11 13 3 5 10 7 15 4 5 -4
9 12 9 34 0 22 -5 43 -10 46 -6 4 -8 15 -5 26 7 21 10 21 -102 23 -69 2 -73 1
-73 -20z"/>
<path fill="#ffffff" stroke="none" d="M185 270 c3 -5 -1 -10 -10 -10 -9 0
-13 5 -10 10 3 6 8 10 10 10 2 0 7 -4 10 -10z"/>
<path fill="#ffffff" stroke="none" d="M130 266 c0 -11 -19 -15 -25 -6 -3 5 1
10 9 10 9 0 16 -2 16 -4z"/>
<path fill="#ffffff" stroke="none" d="M177 164 c-3 -3 -12 -4 -19 -1 -8 3 -5
6 6 6 11 1 17 -2 13 -5z"/>
<path fill="#000000" stroke="none" d="M283 303 c9 -2 23 -2 30 0 6 3 -1 5
-18 5 -16 0 -22 -2 -12 -5z"/>
<path fill="#000000" stroke="none" d="M7 284 c-11 -11 -8 -216 3 -234 7 -11
10 -5 11 25 l2 40 7 -40 7 -40 2 34 c0 19 -6 42 -15 52 -12 13 -14 26 -9 46 5
15 8 42 7 58 -1 29 -1 29 7 5 8 -22 9 -20 10 15 0 27 -2 35 -8 26 -7 -11 -10
-11 -12 3 -2 10 -7 14 -12 10z"/>
<path fill="#000000" stroke="none" d="M299 248 l-2 -43 -7 40 c-5 26 -7 -4
-7 -85 0 -84 2 -110 7 -80 l7 45 1 -43 c1 -26 6 -41 12 -37 6 4 10 55 10 120
0 65 -4 116 -10 120 -6 4 -11 -11 -11 -37z"/>
<path fill="#000000" stroke="none" d="M0 15 c0 -11 10 -15 33 -14 l32 2 -30
5 -30 5 25 7 25 8 -27 1 c-19 1 -28 -4 -28 -14z"/>
<path fill="#000000" stroke="none" d="M290 20 l25 -7 -30 -5 -30 -5 33 -2
c22 -1 32 3 32 14 0 10 -9 15 -27 14 l-28 -1 25 -8z"/>
</g>
</svg>
