<?xml version="1.0" standalone="no"?>
<!DOCTYPE svg PUBLIC "-//W3C//DTD SVG 20010904//EN"
 "http://www.w3.org/TR/2001/REC-SVG-20010904/DTD/svg10.dtd">
<svg version="1.0" xmlns="http://www.w3.org/2000/svg"
 width="32.000000pt" height="32.000000pt" viewBox="0 0 32.000000 32.000000"
 preserveAspectRatio="xMidYMid meet">
<metadata>
Created by potrace 1.16, written by Peter Selinger 2001-2019
</metadata>
<g transform="translate(0.000000,32.000000) scale(0.100000,-0.100000)"
fill="#000000" stroke="none">
<path fill="#000000" stroke="none" d="M30 270 c0 -11 5 -20 10 -20 6 0 10 9
10 20 0 11 -4 20 -10 20 -5 0 -10 -9 -10 -20z"/>
<path fill="#000000" stroke="none" d="M250 287 c0 -1 9 -10 20 -20 19 -16 20
-16 20 3 0 13 -7 20 -20 20 -11 0 -20 -1 -20 -3z"/>
<path fill="#000000" stroke="none" d="M60 260 c0 -5 4 -10 9 -10 6 0 13 5 16
10 3 6 -1 10 -9 10 -9 0 -16 -4 -16 -10z"/>
<path fill="#000000" stroke="none" d="M270 211 c0 -6 4 -12 8 -15 5 -3 9 1 9
9 0 8 -4 15 -9 15 -4 0 -8 -4 -8 -9z"/>
<path fill="#000000" stroke="none" d="M274 91 c3 -5 -4 -11 -17 -15 -17 -5
-19 -8 -8 -15 11 -7 10 -11 -5 -20 -17 -9 -15 -10 14 -11 30 0 32 2 32 35 0
19 -5 35 -11 35 -5 0 -8 -4 -5 -9z"/>
<path fill="#000000" stroke="none" d="M39 77 c0 -1 -2 -12 -5 -24 -3 -20 0
-23 29 -22 17 1 24 3 15 6 -10 2 -18 11 -18 20 0 13 3 13 18 2 14 -11 15 -11
5 1 -11 11 -41 23 -44 17z"/>
</g>
</svg>
