<?xml version="1.0" standalone="no"?>
<!DOCTYPE svg PUBLIC "-//W3C//DTD SVG 20010904//EN"
 "http://www.w3.org/TR/2001/REC-SVG-20010904/DTD/svg10.dtd">
<svg version="1.0" xmlns="http://www.w3.org/2000/svg"
 width="32.000000pt" height="32.000000pt" viewBox="0 0 32.000000 32.000000"
 preserveAspectRatio="xMidYMid meet">
<metadata>
Created by potrace 1.16, written by Peter Selinger 2001-2019
</metadata>
<g transform="translate(0.000000,32.000000) scale(0.100000,-0.100000)"
fill="#000000" stroke="none">
<path fill="#000000" stroke="none" d="M210 309 c0 -5 5 -7 10 -4 6 3 10 8 10
11 0 2 -4 4 -10 4 -5 0 -10 -5 -10 -11z"/>
<path fill="#000000" stroke="none" d="M290 315 c0 -2 6 -8 13 -14 10 -8 14
-7 14 2 0 8 -6 14 -14 14 -7 0 -13 -1 -13 -2z"/>
<path fill="#000000" stroke="none" d="M302 241 c-11 -7 -11 -9 2 -14 10 -4
16 -1 16 8 0 17 -1 17 -18 6z"/>
<path fill="#000000" stroke="none" d="M121 226 c-10 -12 -9 -17 6 -24 13 -7
29 -5 57 9 44 21 86 27 51 7 -11 -6 -23 -15 -26 -20 -3 -6 -8 -9 -10 -7 -2 1
-14 -1 -27 -5 -13 -5 -34 -1 -54 8 -31 16 -70 21 -80 10 -12 -11 12 -78 36
-102 l25 -26 10 26 c5 13 15 25 23 26 7 1 25 4 39 8 22 5 30 0 48 -25 26 -35
44 -32 39 7 -2 17 2 26 10 24 6 -1 12 7 12 17 0 14 -5 18 -20 14 -27 -7 -34
-21 -20 -38 6 -8 10 -22 8 -32 -4 -15 -7 -13 -18 10 -7 15 -17 27 -22 27 -5 0
-4 9 2 20 6 11 21 20 34 20 13 0 26 7 30 15 8 21 7 30 -1 31 -5 0 -16 4 -26 9
-11 4 -28 2 -43 -5 -19 -11 -27 -11 -36 -2 -16 16 -33 15 -47 -2z"/>
<path fill="#ffffff" stroke="none" d="M160 220 c0 -5 -7 -10 -15 -10 -8 0
-15 5 -15 10 0 6 7 10 15 10 8 0 15 -4 15 -10z"/>
<path fill="#ffffff" stroke="none" d="M275 210 c-3 -5 -12 -10 -18 -10 -7 0
-6 4 3 10 19 12 23 12 15 0z"/>
<path fill="#ffffff" stroke="none" d="M240 200 c0 -5 -5 -10 -11 -10 -5 0 -7
5 -4 10 3 6 8 10 11 10 2 0 4 -4 4 -10z"/>
<path fill="#ffffff" stroke="none" d="M110 185 c10 -12 9 -15 -7 -15 -10 0
-28 7 -39 15 -18 14 -18 14 7 15 15 0 32 -7 39 -15z"/>
<path fill="#ffffff" stroke="none" d="M80 164 c0 -2 -7 -4 -15 -4 -8 0 -15 4
-15 10 0 5 7 7 15 4 8 -4 15 -8 15 -10z"/>
<path fill="#ffffff" stroke="none" d="M190 165 c0 -2 -13 -11 -30 -20 -30
-16 -40 -9 -18 13 12 12 48 17 48 7z"/>
<path fill="#ffffff" stroke="none" d="M113 143 c2 -5 -2 -18 -8 -31 -12 -22
-12 -22 -29 -3 -10 11 -15 25 -11 30 7 13 42 15 48 4z"/>
<path fill="#000000" stroke="none" d="M300 174 c-11 -12 -10 -18 3 -32 16
-15 17 -14 17 16 0 36 -2 38 -20 16z"/>
<path fill="#000000" stroke="none" d="M0 153 c0 -21 2 -24 15 -13 8 7 15 16
15 20 0 4 -7 10 -15 14 -11 4 -15 -2 -15 -21z"/>
<path fill="#000000" stroke="none" d="M300 90 c-10 -6 -11 -10 -2 -10 6 0 12
-7 12 -15 0 -8 -6 -15 -12 -15 -8 0 -9 -3 -3 -8 24 -17 11 -28 -36 -27 -27 0
-49 -3 -49 -7 0 -4 25 -8 55 -8 l55 0 0 50 c0 28 -1 50 -2 50 -2 0 -10 -5 -18
-10z"/>
<path fill="#000000" stroke="none" d="M0 75 c0 -9 6 -12 15 -9 8 4 15 7 15 9
0 2 -7 5 -15 9 -9 3 -15 0 -15 -9z"/>
<path fill="#000000" stroke="none" d="M3 17 c0 -8 6 -14 14 -14 9 0 10 4 2
14 -6 7 -12 13 -14 13 -1 0 -2 -6 -2 -13z"/>
<path fill="#000000" stroke="none" d="M60 19 c0 -5 -4 -7 -10 -4 -5 3 -10 1
-10 -4 0 -6 9 -11 20 -11 13 0 18 5 14 15 -7 17 -14 20 -14 4z"/>
<path fill="#000000" stroke="none" d="M126 15 c-3 -9 0 -15 9 -15 9 0 12 6 9
15 -4 8 -7 15 -9 15 -2 0 -5 -7 -9 -15z"/>
<path fill="#000000" stroke="none" d="M175 10 c-3 -5 -1 -10 4 -10 6 0 11 5
11 10 0 6 -2 10 -4 10 -3 0 -8 -4 -11 -10z"/>
</g>
</svg>
