<?xml version="1.0" standalone="no"?>
<!DOCTYPE svg PUBLIC "-//W3C//DTD SVG 20010904//EN"
 "http://www.w3.org/TR/2001/REC-SVG-20010904/DTD/svg10.dtd">
<svg version="1.0" xmlns="http://www.w3.org/2000/svg"
 width="32.000000pt" height="32.000000pt" viewBox="0 0 32.000000 32.000000"
 preserveAspectRatio="xMidYMid meet">
<metadata>
Created by potrace 1.16, written by Peter Selinger 2001-2019
</metadata>
<g transform="translate(0.000000,32.000000) scale(0.100000,-0.100000)"
fill="#000000" stroke="none">
<path fill="#000000" stroke="none" d="M10 160 l0 -150 150 0 151 0 -2 135
c-1 79 -6 132 -11 129 -5 -3 -7 -22 -5 -41 l5 -36 -21 22 -21 21 27 28 c15 15
27 31 27 35 0 4 -67 7 -150 7 l-150 0 0 -150z"/>
<path fill="#ffffff" stroke="none" d="M97 273 c-16 -16 -18 -16 -34 0 -16 16
-15 17 17 17 32 0 33 -1 17 -17z"/>
<path fill="#ffffff" stroke="none" d="M200 265 c23 -25 23 -26 6 -43 -18 -16
-19 -16 -13 1 4 11 3 16 -3 12 -6 -3 -10 -15 -10 -26 0 -32 -50 -17 -71 22 -8
15 -8 19 0 15 6 -4 11 -1 11 6 0 19 20 38 40 38 9 0 27 -11 40 -25z"/>
<path fill="#ffffff" stroke="none" d="M257 273 c-16 -16 -18 -16 -34 0 -16
16 -15 17 17 17 32 0 33 -1 17 -17z"/>
<path fill="#ffffff" stroke="none" d="M56 249 c3 -6 -1 -18 -10 -27 -15 -15
-16 -14 -16 11 0 27 13 36 26 16z"/>
<path fill="#ffffff" stroke="none" d="M90 240 c0 -5 -5 -10 -11 -10 -5 0 -7
5 -4 10 3 6 8 10 11 10 2 0 4 -4 4 -10z"/>
<path fill="#ffffff" stroke="none" d="M250 240 c0 -5 -5 -10 -11 -10 -5 0 -7
5 -4 10 3 6 8 10 11 10 2 0 4 -4 4 -10z"/>
<path fill="#ffffff" stroke="none" d="M108 195 c12 -14 22 -31 22 -38 0 -14
-49 -65 -51 -54 -1 4 -2 13 -3 19 0 7 -10 13 -21 13 -28 0 -31 33 -4 61 28 30
30 30 57 -1z"/>
<path fill="#ffffff" stroke="none" d="M251 203 c12 -15 12 -16 -1 -8 -9 5
-12 4 -7 -1 5 -5 16 -9 25 -9 27 0 25 -38 -3 -65 l-26 -24 -24 27 c-31 32 -31
44 -3 74 26 27 22 27 39 6z"/>
<path fill="#ffffff" stroke="none" d="M170 160 c0 -5 -5 -10 -11 -10 -5 0 -7
5 -4 10 3 6 8 10 11 10 2 0 4 -4 4 -10z"/>
<path fill="#ffffff" stroke="none" d="M180 120 c11 -6 25 -20 31 -33 6 -12 8
-19 4 -15 -5 5 -13 -2 -19 -15 -16 -31 -47 -32 -76 -2 -23 25 -23 26 -6 43 18
16 19 16 13 -1 -4 -11 -3 -16 3 -12 6 3 10 15 10 26 0 21 12 24 40 9z"/>
<path fill="#ffffff" stroke="none" d="M47 63 c-16 -16 -17 -15 -17 17 0 32 1
33 17 17 16 -16 16 -18 0 -34z"/>
<path fill="#ffffff" stroke="none" d="M286 62 c-4 -3 -11 -1 -18 6 -8 8 -8
15 3 28 13 16 14 16 17 -5 2 -13 1 -25 -2 -29z"/>
<path fill="#ffffff" stroke="none" d="M90 80 c0 -5 -5 -10 -11 -10 -5 0 -7 5
-4 10 3 6 8 10 11 10 2 0 4 -4 4 -10z"/>
<path fill="#ffffff" stroke="none" d="M250 80 c0 -5 -5 -10 -11 -10 -5 0 -7
5 -4 10 3 6 8 10 11 10 2 0 4 -4 4 -10z"/>
<path fill="#ffffff" stroke="none" d="M100 45 c11 -13 8 -15 -20 -15 -28 0
-31 2 -20 15 7 8 16 15 20 15 4 0 13 -7 20 -15z"/>
<path fill="#ffffff" stroke="none" d="M260 45 c11 -13 8 -15 -20 -15 -28 0
-31 2 -20 15 7 8 16 15 20 15 4 0 13 -7 20 -15z"/>
<path fill="#000000" stroke="none" d="M84 193 c4 -8 1 -13 -8 -13 -9 0 -16
-4 -16 -10 0 -5 9 -10 19 -10 11 0 22 -6 24 -12 3 -7 6 -3 6 8 1 12 -7 28 -16
35 -11 10 -14 10 -9 2z"/>
<path fill="#000000" stroke="none" d="M211 164 c-1 -12 7 -28 16 -35 11 -10
14 -10 9 -1 -4 7 -1 12 8 12 9 0 16 5 16 10 0 6 -9 10 -19 10 -11 0 -22 6 -24
13 -3 6 -6 2 -6 -9z"/>
</g>
</svg>
