<?xml version="1.0" standalone="no"?>
<!DOCTYPE svg PUBLIC "-//W3C//DTD SVG 20010904//EN"
 "http://www.w3.org/TR/2001/REC-SVG-20010904/DTD/svg10.dtd">
<svg version="1.0" xmlns="http://www.w3.org/2000/svg"
 width="32.000000pt" height="32.000000pt" viewBox="0 0 32.000000 32.000000"
 preserveAspectRatio="xMidYMid meet">
<metadata>
Created by potrace 1.16, written by Peter Selinger 2001-2019
</metadata>
<g transform="translate(0.000000,32.000000) scale(0.100000,-0.100000)"
fill="#000000" stroke="none">
<path fill="#000000" stroke="none" d="M0 162 c0 -132 2 -159 15 -159 8 0 12
4 9 9 -3 4 22 8 56 8 46 0 59 -3 54 -13 -6 -9 -4 -9 7 1 14 13 93 17 85 4 -2
-4 4 -9 15 -9 11 -1 17 2 14 8 -9 14 39 11 54 -3 11 -11 12 -10 5 2 -15 26
-17 63 -2 54 10 -5 11 -4 1 7 -15 16 -17 65 -3 74 6 3 10 13 10 21 0 8 -5 12
-10 9 -6 -3 -10 3 -10 15 0 14 4 19 13 14 10 -6 10 -4 0 7 -16 17 -17 81 -1
97 9 9 -24 12 -150 12 l-162 0 0 -158z"/>
<path fill="#ffffff" stroke="none" d="M92 242 c-15 -2 -18 -9 -14 -24 4 -17
2 -20 -12 -15 -10 4 -15 3 -11 -3 3 -6 1 -10 -4 -10 -6 0 -11 12 -11 26 0 17
4 23 13 18 7 -5 6 0 -3 11 -14 17 -13 18 3 12 12 -4 20 -1 24 10 6 14 8 14 20
-3 12 -17 12 -19 -5 -22z"/>
<path fill="#ffffff" stroke="none" d="M240 271 c-1 -27 -59 -38 -68 -13 -2 7
-8 12 -13 12 -4 0 -6 -7 -3 -15 9 -24 -33 -19 -46 5 -11 20 -9 21 59 19 39 -1
71 -5 71 -8z"/>
<path fill="#ffffff" stroke="none" d="M280 259 c0 -10 -4 -21 -10 -24 -5 -3
-10 -12 -10 -18 0 -8 3 -8 9 1 6 11 9 10 13 -5 6 -23 -3 -47 -20 -51 -10 -2
-10 2 -2 18 8 15 8 20 -1 18 -15 -4 -23 25 -15 56 7 27 36 31 36 5z"/>
<path fill="#ffffff" stroke="none" d="M120 210 c0 -5 -2 -10 -4 -10 -3 0 -8
5 -11 10 -3 6 -1 10 4 10 6 0 11 -4 11 -10z"/>
<path fill="#ffffff" stroke="none" d="M181 208 c0 -10 2 -10 6 0 5 14 33 17
33 3 0 -5 -13 -12 -30 -16 -16 -4 -35 -14 -41 -23 -6 -11 -8 -12 -5 -2 3 8 9
23 12 33 7 20 24 23 25 5z"/>
<path fill="#ffffff" stroke="none" d="M220 170 c0 -5 -7 -7 -15 -4 -8 4 -15
8 -15 10 0 2 7 4 15 4 8 0 15 -4 15 -10z"/>
<path fill="#ffffff" stroke="none" d="M59 138 c-7 -13 -7 -18 2 -16 7 2 15
-5 17 -15 6 -29 -6 -64 -23 -64 -17 0 -21 32 -5 42 6 3 10 12 10 18 0 7 -4 6
-10 -3 -7 -11 -10 -6 -10 21 0 24 5 36 14 36 11 0 13 -5 5 -19z"/>
<path fill="#ffffff" stroke="none" d="M130 144 c0 -2 -7 -4 -15 -4 -8 0 -15
4 -15 10 0 5 7 7 15 4 8 -4 15 -8 15 -10z"/>
<path fill="#ffffff" stroke="none" d="M168 128 c-7 -12 -14 -25 -16 -28 -2
-2 -7 2 -12 10 -7 10 -10 11 -10 3 0 -7 -7 -13 -15 -13 -27 0 -16 18 16 25 17
4 33 13 36 21 3 8 7 13 10 10 2 -2 -2 -15 -9 -28z"/>
<path fill="#ffffff" stroke="none" d="M286 104 c2 -19 -2 -24 -15 -20 -14 5
-13 4 2 -8 21 -16 23 -46 2 -46 -18 0 -20 17 -3 22 8 3 6 7 -5 11 -11 4 -20 0
-26 -12 -8 -15 -20 -17 -68 -14 -32 3 -66 4 -75 4 -19 0 -22 7 -10 25 9 14 55
11 60 -4 2 -7 8 -12 13 -12 4 0 6 7 3 15 -10 24 31 18 50 -7 l17 -23 -11 23
c-9 19 -8 22 9 22 15 0 18 5 13 22 -4 17 -2 20 12 15 10 -4 15 -3 11 3 -3 6 0
10 7 10 7 0 14 -12 14 -26z"/>
<path fill="#ffffff" stroke="none" d="M215 110 c3 -5 1 -10 -4 -10 -6 0 -11
5 -11 10 0 6 2 10 4 10 3 0 8 -4 11 -10z"/>
</g>
</svg>
