<?xml version="1.0" standalone="no"?>
<!DOCTYPE svg PUBLIC "-//W3C//DTD SVG 20010904//EN"
 "http://www.w3.org/TR/2001/REC-SVG-20010904/DTD/svg10.dtd">
<svg version="1.0" xmlns="http://www.w3.org/2000/svg"
 width="32.000000pt" height="32.000000pt" viewBox="0 0 32.000000 32.000000"
 preserveAspectRatio="xMidYMid meet">
<metadata>
Created by potrace 1.16, written by Peter Selinger 2001-2019
</metadata>
<g transform="translate(0.000000,32.000000) scale(0.100000,-0.100000)"
fill="#000000" stroke="none">
<path fill="#000000" stroke="none" d="M30 270 c0 -11 5 -20 10 -20 6 0 10 5
10 10 0 6 12 10 26 10 14 0 23 4 19 10 -3 6 -19 10 -36 10 -22 0 -29 -5 -29
-20z"/>
<path fill="#000000" stroke="none" d="M253 265 c1 -13 7 -28 12 -32 4 -4 5
-3 1 4 -3 6 -2 14 3 17 5 4 11 -2 14 -11 2 -10 4 -3 4 15 0 25 -4 32 -19 32
-14 0 -18 -6 -15 -25z"/>
<path fill="#000000" stroke="none" d="M56 244 c-5 -14 -4 -15 9 -4 17 14 19
20 6 20 -5 0 -12 -7 -15 -16z"/>
<path fill="#000000" stroke="none" d="M35 87 c-4 -10 -5 -21 -1 -24 10 -10
18 4 13 24 -4 17 -4 17 -12 0z"/>
<path fill="#000000" stroke="none" d="M240 50 c0 -15 7 -20 25 -20 18 0 25 5
25 20 0 25 -17 26 -23 3 -4 -17 -5 -17 -6 0 -1 24 -21 22 -21 -3z"/>
<path fill="#000000" stroke="none" d="M30 40 c0 -5 5 -10 10 -10 6 0 10 5 10
10 0 6 -4 10 -10 10 -5 0 -10 -4 -10 -10z"/>
<path fill="#000000" stroke="none" d="M100 40 c0 -5 7 -10 16 -10 8 0 12 5 9
10 -3 6 -10 10 -16 10 -5 0 -9 -4 -9 -10z"/>
</g>
</svg>
