<?xml version="1.0" standalone="no"?>
<!DOCTYPE svg PUBLIC "-//W3C//DTD SVG 20010904//EN"
 "http://www.w3.org/TR/2001/REC-SVG-20010904/DTD/svg10.dtd">
<svg version="1.0" xmlns="http://www.w3.org/2000/svg"
 width="32.000000pt" height="32.000000pt" viewBox="0 0 32.000000 32.000000"
 preserveAspectRatio="xMidYMid meet">
<metadata>
Created by potrace 1.16, written by Peter Selinger 2001-2019
</metadata>
<g transform="translate(0.000000,32.000000) scale(0.100000,-0.100000)"
fill="#000000" stroke="none">
<path fill="#000000" stroke="none" d="M40 310 l25 -8 -28 -1 c-16 -1 -26 -5
-22 -11 4 -6 11 -8 16 -5 5 4 10 -17 11 -47 1 -43 2 -46 5 -15 2 20 10 37 16
37 8 0 7 4 -2 9 -12 7 -12 13 -3 24 14 17 6 27 -22 26 -18 -1 -18 -2 4 -9z"/>
<path fill="#000000" stroke="none" d="M257 313 c-4 -3 -2 -13 5 -20 9 -11 9
-17 -3 -24 -10 -6 -10 -9 -1 -9 8 0 12 -16 12 -46 0 -25 -4 -43 -9 -39 -5 3
-12 1 -16 -5 -3 -5 1 -10 9 -10 20 0 22 -56 4 -63 -10 -4 -10 -6 0 -6 6 -1 12
-8 12 -16 0 -8 -6 -15 -12 -15 -9 0 -8 -4 2 -10 13 -9 12 -13 -9 -30 -13 -11
-17 -20 -10 -19 18 1 57 17 44 18 -16 1 -3 125 15 147 14 18 14 18 -2 5 -17
-13 -18 -9 -18 55 0 42 4 64 9 56 7 -11 9 -11 14 2 5 12 0 16 -21 17 l-27 1
30 8 c29 7 29 8 4 9 -14 0 -29 -2 -32 -6z"/>
<path fill="#000000" stroke="none" d="M39 104 c-1 -16 -1 -33 0 -38 1 -5 -5
-3 -14 4 -8 7 -18 10 -22 6 -3 -3 -1 -6 5 -6 7 0 12 -10 12 -22 0 -19 2 -20
10 -8 9 14 12 7 9 -16 -1 -9 23 -24 40 -24 8 0 4 8 -10 20 -21 17 -22 21 -9
30 9 6 10 10 3 10 -6 0 -11 13 -11 30 1 17 -2 33 -5 37 -4 3 -8 -7 -8 -23z"/>
<path fill="#000000" stroke="none" d="M93 53 c9 -2 25 -2 35 0 9 3 1 5 -18 5
-19 0 -27 -2 -17 -5z"/>
<path fill="#000000" stroke="none" d="M208 53 c6 -2 18 -2 25 0 6 3 1 5 -13
5 -14 0 -19 -2 -12 -5z"/>
</g>
</svg>
