<?xml version="1.0" standalone="no"?>
<!DOCTYPE svg PUBLIC "-//W3C//DTD SVG 20010904//EN"
 "http://www.w3.org/TR/2001/REC-SVG-20010904/DTD/svg10.dtd">
<svg version="1.0" xmlns="http://www.w3.org/2000/svg"
 width="32.000000pt" height="32.000000pt" viewBox="0 0 32.000000 32.000000"
 preserveAspectRatio="xMidYMid meet">
<metadata>
Created by potrace 1.16, written by Peter Selinger 2001-2019
</metadata>
<g transform="translate(0.000000,32.000000) scale(0.100000,-0.100000)"
fill="#000000" stroke="none">
<path fill="#000000" stroke="none" d="M2 284 c1 -19 6 -34 12 -34 7 0 7 -3
-1 -8 -16 -10 -12 -61 7 -72 12 -7 11 -12 -4 -29 -15 -16 -16 -21 -5 -21 11 0
11 -2 -1 -10 -13 -9 -13 -12 3 -24 17 -13 17 -14 0 -20 -15 -6 -15 -8 -3 -16
9 -6 10 -10 3 -10 -18 0 -8 -33 10 -36 9 -1 17 2 17 7 0 6 5 7 10 4 6 -3 10 0
10 7 0 8 5 6 11 -4 12 -22 48 -23 55 -3 6 14 8 13 19 -2 11 -14 16 -15 28 -5
12 10 16 10 20 0 4 -8 8 -9 14 -3 4 6 29 10 55 10 43 0 56 10 33 27 -6 5 -5 8
3 8 16 0 16 30 0 30 -7 0 -5 5 6 11 15 9 16 13 5 20 -12 7 -12 9 0 9 11 0 10
5 -4 20 -17 19 -17 21 0 40 14 15 15 20 4 20 -12 0 -11 2 1 10 12 8 12 10 -3
16 -17 6 -17 7 0 20 16 12 16 15 3 24 -9 5 -10 10 -3 10 16 0 9 35 -8 35 -8 1
-17 -4 -21 -10 -5 -6 -8 -6 -8 3 0 15 -36 16 -46 1 -4 -8 -9 -7 -15 2 -8 12
-11 11 -19 -1 -6 -10 -10 -11 -10 -2 0 16 -30 16 -30 0 0 -10 -2 -10 -8 -1 -5
8 -32 12 -75 12 l-66 -1 1 -34z"/>
<path fill="#ffffff" stroke="none" d="M63 148 c-9 -15 -23 -8 -23 12 0 17 2
19 14 8 8 -7 12 -16 9 -20z"/>
<path fill="#ffffff" stroke="none" d="M104 156 c-3 -9 -10 -13 -16 -10 -5 3
-4 12 3 20 15 18 22 13 13 -10z"/>
<path fill="#ffffff" stroke="none" d="M165 170 c5 8 11 8 21 -1 7 -6 11 -15
8 -21 -3 -5 -11 -5 -19 2 -10 8 -15 8 -20 -1 -6 -8 -10 -7 -16 2 -13 22 -10
33 5 20 10 -9 16 -9 21 -1z"/>
<path fill="#ffffff" stroke="none" d="M280 161 c0 -11 -6 -18 -15 -17 -21 3
-31 16 -12 16 10 0 17 5 17 10 0 6 2 10 5 10 3 0 5 -9 5 -19z"/>
</g>
</svg>
