<?xml version="1.0" standalone="no"?>
<!DOCTYPE svg PUBLIC "-//W3C//DTD SVG 20010904//EN"
 "http://www.w3.org/TR/2001/REC-SVG-20010904/DTD/svg10.dtd">
<svg version="1.0" xmlns="http://www.w3.org/2000/svg"
 width="32.000000pt" height="32.000000pt" viewBox="0 0 32.000000 32.000000"
 preserveAspectRatio="xMidYMid meet">
<metadata>
Created by potrace 1.16, written by Peter Selinger 2001-2019
</metadata>
<g transform="translate(0.000000,32.000000) scale(0.100000,-0.100000)"
fill="#000000" stroke="none">
<path fill="#000000" stroke="none" d="M4 305 c-8 -19 5 -38 22 -31 10 4 11 0
4 -20 -13 -32 -13 -77 -1 -70 5 4 11 2 13 -3 1 -4 14 -11 28 -15 14 -4 20 -4
13 1 -8 6 -9 14 -3 23 6 8 10 20 9 25 0 6 -6 -1 -14 -15 -8 -14 -14 -20 -15
-14 0 18 21 74 28 72 4 -1 20 2 36 7 18 5 36 4 47 -3 15 -9 19 -8 24 9 6 19
-9 49 -26 49 -4 0 -10 -9 -14 -19 -3 -10 -17 -21 -30 -24 -20 -3 -23 -2 -14 9
9 11 8 14 -5 14 -9 0 -16 -4 -16 -10 0 -5 -4 -10 -10 -10 -5 0 -9 5 -7 11 1 6
-4 14 -10 16 -7 3 -13 0 -13 -7 0 -6 4 -9 9 -6 4 3 6 -7 3 -22 -3 -15 -7 -21
-9 -12 -8 28 -26 60 -35 60 -5 0 -11 -7 -14 -15z"/>
<path fill="#000000" stroke="none" d="M213 303 c-4 -10 -1 -19 6 -21 9 -3 8
-7 -3 -16 -25 -19 -23 -38 6 -41 20 -3 27 2 32 20 5 18 11 22 27 18 17 -5 20
-2 17 13 -2 13 -11 18 -28 17 -14 -1 -19 0 -12 3 17 8 5 24 -19 24 -11 0 -23
-8 -26 -17z"/>
<path fill="#000000" stroke="none" d="M117 253 c-13 -3 -17 -12 -15 -31 4
-38 50 -44 65 -9 17 37 -2 52 -50 40z"/>
<path fill="#000000" stroke="none" d="M276 231 c-3 -5 1 -12 10 -15 20 -8 29
-1 19 13 -8 13 -22 14 -29 2z"/>
<path fill="#000000" stroke="none" d="M184 199 c-21 -10 -49 -19 -62 -19 -13
0 -20 -4 -17 -10 3 -5 2 -10 -4 -10 -6 0 -15 -9 -21 -20 -10 -18 -7 -22 22
-35 l33 -13 13 39 c17 48 28 44 30 -11 1 -28 -3 -42 -13 -46 -21 -8 -7 -27 16
-21 11 3 17 1 13 -4 -3 -5 6 -9 21 -9 33 0 45 28 19 47 -16 12 -19 11 -26 -4
-3 -10 -6 9 -6 42 0 33 3 50 5 38 2 -13 11 -23 19 -23 9 0 12 -5 8 -11 -3 -6
5 -3 20 6 15 10 24 20 21 23 -3 3 2 13 11 23 15 17 14 18 -12 24 -16 4 -34 8
-41 10 -6 2 -28 -5 -49 -16z"/>
<path fill="#ffffff" stroke="none" d="M127 148 c-3 -8 -6 -5 -6 6 -1 11 2 17
5 13 3 -3 4 -12 1 -19z"/>
<path fill="#ffffff" stroke="none" d="M270 156 c0 -2 -7 -6 -15 -10 -8 -3
-15 -1 -15 4 0 6 7 10 15 10 8 0 15 -2 15 -4z"/>
<path fill="#000000" stroke="none" d="M15 142 c-17 -39 -13 -82 7 -93 11 -6
22 -8 26 -5 3 3 0 6 -7 6 -7 0 -9 5 -6 10 4 6 11 8 16 5 5 -4 6 2 2 12 -6 16
-5 16 10 4 9 -7 17 -20 17 -28 0 -8 5 -11 10 -8 6 4 8 11 5 16 -3 5 1 6 9 3
14 -5 14 -8 1 -21 -19 -18 -19 -22 1 -19 9 1 20 10 25 18 9 16 -12 36 -54 51
-9 4 -21 17 -27 31 -12 32 -26 40 -35 18z"/>
<path fill="#000000" stroke="none" d="M276 96 c3 -9 11 -16 16 -16 13 0 5 23
-10 28 -7 2 -10 -2 -6 -12z"/>
<path fill="#000000" stroke="none" d="M260 75 c6 -16 8 -35 6 -42 -8 -21 23
-28 41 -10 14 13 14 19 3 32 -7 9 -19 14 -27 11 -8 -3 -12 -2 -9 3 3 5 -1 14
-9 21 -14 11 -14 10 -5 -15z"/>
<path fill="#000000" stroke="none" d="M146 22 c-2 -4 15 -8 39 -8 24 1 41 4
39 8 -7 11 -71 10 -78 0z"/>
</g>
</svg>
