<?xml version="1.0" standalone="no"?>
<!DOCTYPE svg PUBLIC "-//W3C//DTD SVG 20010904//EN"
 "http://www.w3.org/TR/2001/REC-SVG-20010904/DTD/svg10.dtd">
<svg version="1.0" xmlns="http://www.w3.org/2000/svg"
 width="32.000000pt" height="32.000000pt" viewBox="0 0 32.000000 32.000000"
 preserveAspectRatio="xMidYMid meet">
<metadata>
Created by potrace 1.16, written by Peter Selinger 2001-2019
</metadata>
<g transform="translate(0.000000,32.000000) scale(0.100000,-0.100000)"
fill="#000000" stroke="none">
<path fill="#000000" stroke="none" d="M72 313 l78 -4 0 -34 0 -35 -54 0 c-31
0 -58 5 -62 12 -4 6 -3 8 2 5 5 -3 10 3 10 14 0 10 -4 19 -8 19 -4 0 -8 -7 -8
-15 0 -8 -5 -15 -11 -15 -5 0 -8 -4 -5 -9 4 -5 0 -12 -6 -14 -7 -3 4 -6 25 -6
36 -1 37 -2 36 -38 0 -32 -2 -34 -9 -17 -12 30 -34 43 -25 15 5 -16 1 -23 -17
-30 -17 -7 -4 -10 55 -10 l77 -1 0 -35 c0 -28 -4 -35 -19 -35 -11 0 -23 9 -26
21 -6 16 -9 18 -15 8 -5 -7 -6 -17 -4 -21 3 -4 -16 -9 -43 -10 -42 -1 -44 -2
-11 -5 34 -4 37 -7 41 -41 l4 -37 1 38 2 37 74 0 75 0 4 -37 4 -38 1 38 c2 36
3 37 42 37 l40 0 0 45 c0 39 -3 45 -20 45 -19 0 -20 1 -5 24 11 16 13 26 5 31
-6 3 -9 3 -8 -2 4 -13 -26 -53 -39 -53 -8 0 -13 14 -13 35 0 34 1 35 40 35
l40 0 0 45 0 45 -162 -2 c-90 -1 -128 -4 -86 -5z"/>
<path fill="#ffffff" stroke="none" d="M310 275 c0 -40 -11 -44 -34 -12 -15
20 -17 20 -11 2 4 -17 2 -16 -16 5 -17 22 -19 22 -10 3 16 -32 15 -33 -34 -33
-45 0 -45 0 -45 35 l0 35 75 0 75 0 0 -35z"/>
<path fill="#ffffff" stroke="none" d="M230 195 c0 -31 -3 -35 -25 -35 -19 0
-25 5 -25 22 l0 22 -16 -22 c-11 -15 -25 -22 -50 -22 -32 0 -34 2 -34 35 l0
35 75 0 75 0 0 -35z"/>
<path fill="#ffffff" stroke="none" d="M310 115 c0 -33 -2 -35 -35 -35 -29 0
-35 4 -36 23 0 12 -3 17 -5 10 -3 -7 -13 -9 -22 -6 -14 6 -15 4 -5 -8 10 -12
7 -15 -18 -17 -27 -2 -29 0 -29 33 l0 35 75 0 75 0 0 -35z"/>
<path fill="#000000" stroke="none" d="M136 197 c3 -10 9 -15 12 -12 3 3 0 11
-7 18 -10 9 -11 8 -5 -6z"/>
<path fill="#000000" stroke="none" d="M184 49 c-3 -6 -14 -9 -24 -6 -9 2 -22
-4 -28 -14 -15 -23 -15 -29 -1 -29 5 0 7 5 4 10 -11 18 27 24 40 7 7 -10 16
-17 20 -17 4 0 2 7 -5 15 -10 12 -10 18 0 30 7 8 10 15 7 15 -3 0 -9 -5 -13
-11z"/>
<path fill="#000000" stroke="none" d="M26 24 c13 -19 19 -22 25 -12 6 8 3 14
-6 16 -8 2 -15 8 -15 13 0 5 -5 9 -10 9 -6 0 -3 -12 6 -26z"/>
</g>
</svg>
