<?xml version="1.0" standalone="no"?>
<!DOCTYPE svg PUBLIC "-//W3C//DTD SVG 20010904//EN"
 "http://www.w3.org/TR/2001/REC-SVG-20010904/DTD/svg10.dtd">
<svg version="1.0" xmlns="http://www.w3.org/2000/svg"
 width="32.000000pt" height="32.000000pt" viewBox="0 0 32.000000 32.000000"
 preserveAspectRatio="xMidYMid meet">
<metadata>
Created by potrace 1.16, written by Peter Selinger 2001-2019
</metadata>
<g transform="translate(0.000000,32.000000) scale(0.100000,-0.100000)"
fill="#000000" stroke="none">
<path fill="#000000" stroke="none" d="M70 310 c41 -4 67 -7 58 -8 -23 -3 -23
-19 0 -25 16 -4 16 -5 -1 -6 -10 0 -20 6 -23 14 -4 8 -17 15 -30 15 -18 0 -22
-4 -17 -17 5 -12 3 -14 -7 -8 -10 6 -12 4 -7 -8 3 -10 2 -17 -3 -17 -6 0 -10
6 -10 14 0 8 -4 18 -10 21 -5 3 -7 0 -4 -8 3 -8 1 -18 -5 -22 -21 -12 -11 -25
22 -26 l32 -1 -33 -9 c-30 -9 -32 -12 -20 -26 9 -12 9 -15 1 -9 -9 5 -13 0
-13 -13 0 -19 6 -21 72 -21 78 0 90 -9 15 -11 -25 -1 -45 -6 -44 -10 1 -4 -2
-7 -6 -7 -10 -1 -36 -33 -37 -44 0 -5 13 -8 30 -8 23 0 28 -4 23 -16 -4 -12
-8 -13 -14 -3 -10 17 -39 -6 -39 -32 0 -18 10 -19 160 -19 138 0 160 2 160 16
0 9 -5 12 -12 8 -9 -5 -8 -2 1 9 8 10 10 21 6 25 -4 4 -10 1 -12 -5 -3 -7 -9
-13 -14 -13 -6 0 -8 4 -5 8 3 5 -1 9 -9 9 -18 0 -19 -9 -3 -25 7 -7 10 -12 8
-13 -3 0 -13 -2 -22 -4 -14 -2 -18 4 -18 26 0 27 2 29 41 29 l40 0 -2 75 c-2
70 -9 89 -24 65 -4 -6 -10 -8 -15 -5 -4 3 -13 -2 -20 -10 -10 -12 -7 -13 21
-5 18 5 28 6 23 1 -5 -5 -21 -11 -36 -15 -26 -6 -28 -4 -28 24 0 28 2 30 40
30 l40 0 0 45 0 45 -162 -2 c-129 -1 -147 -3 -88 -8z"/>
<path fill="#ffffff" stroke="none" d="M260 299 c-25 -5 -50 -10 -57 -11 -7
-1 -10 -5 -7 -10 3 -4 15 -3 27 4 20 10 21 10 8 -6 -9 -10 -21 -14 -34 -10
-11 3 -17 2 -14 -3 4 -5 0 -10 -8 -10 -10 0 -15 11 -15 29 l0 28 73 -1 c70 -1
71 -2 27 -10z"/>
<path fill="#ffffff" stroke="none" d="M123 212 c-2 -10 -13 -23 -24 -30 -17
-11 -19 -9 -19 18 0 25 4 30 24 30 18 0 23 -4 19 -18z"/>
<path fill="#ffffff" stroke="none" d="M200 208 l-20 -22 -20 22 -21 22 41 0
41 0 -21 -22z"/>
<path fill="#ffffff" stroke="none" d="M45 200 c3 -5 1 -10 -4 -10 -6 0 -11 5
-11 10 0 6 2 10 4 10 3 0 8 -4 11 -10z"/>
<path fill="#ffffff" stroke="none" d="M288 136 c-7 -8 -14 -10 -16 -5 -10 26
-101 1 -103 -28 -2 -24 -9 -11 -9 15 l0 32 70 0 c60 0 69 -2 58 -14z"/>
<path fill="#ffffff" stroke="none" d="M118 123 c-10 -2 -18 -9 -18 -14 0 -6
-5 -7 -11 -3 -14 8 8 24 31 23 11 -1 10 -3 -2 -6z"/>
<path fill="#ffffff" stroke="none" d="M266 115 c9 -8 11 -15 6 -15 -5 0 -15
7 -22 15 -7 8 -9 15 -6 15 4 0 14 -7 22 -15z"/>
<path fill="#ffffff" stroke="none" d="M187 63 c-20 -2 -35 -8 -33 -12 3 -4 0
-13 -6 -21 -8 -12 -9 -12 -4 2 7 22 -11 33 -28 19 -7 -6 -16 -8 -20 -4 -4 4
-4 0 -1 -9 4 -9 2 -19 -4 -23 -7 -4 -11 5 -11 24 l0 31 73 -2 c40 -1 55 -3 34
-5z"/>
<path fill="#ffffff" stroke="none" d="M122 28 c-7 -7 -12 -8 -12 -2 0 14 12
26 19 19 2 -3 -1 -11 -7 -17z"/>
<path fill="#ffffff" stroke="none" d="M197 35 c0 -8 -4 -12 -9 -9 -5 3 -6 10
-3 15 9 13 12 11 12 -6z"/>
<path fill="#000000" stroke="none" d="M175 210 c3 -5 8 -10 11 -10 2 0 4 5 4
10 0 6 -5 10 -11 10 -5 0 -7 -4 -4 -10z"/>
</g>
</svg>
