<?xml version="1.0" standalone="no"?>
<!DOCTYPE svg PUBLIC "-//W3C//DTD SVG 20010904//EN"
 "http://www.w3.org/TR/2001/REC-SVG-20010904/DTD/svg10.dtd">
<svg version="1.0" xmlns="http://www.w3.org/2000/svg"
 width="32.000000pt" height="32.000000pt" viewBox="0 0 32.000000 32.000000"
 preserveAspectRatio="xMidYMid meet">
<metadata>
Created by potrace 1.16, written by Peter Selinger 2001-2019
</metadata>
<g transform="translate(0.000000,32.000000) scale(0.100000,-0.100000)"
fill="#000000" stroke="none">
<path fill="#000000" stroke="none" d="M0 160 l0 -160 160 0 160 0 0 160 0
160 -160 0 -160 0 0 -160z"/>
<path fill="#ffffff" stroke="none" d="M310 160 l0 -150 -150 0 -150 0 0 150
0 150 150 0 150 0 0 -150z"/>
<path fill="#000000" stroke="none" d="M30 270 c0 -11 5 -20 10 -20 6 0 10 6
10 13 0 8 3 9 8 1 4 -6 14 -14 22 -17 12 -4 12 -6 -2 -6 -9 -1 -19 -7 -21 -13
-4 -10 -6 -10 -6 0 -1 6 -5 12 -11 12 -6 0 -10 -42 -10 -105 l0 -104 90 1 c83
0 115 10 73 21 -17 4 -17 5 0 6 9 0 17 7 17 14 0 8 3 9 8 1 4 -6 14 -14 22
-17 12 -4 11 -6 -2 -6 -34 -2 -18 -21 17 -21 l35 0 0 71 c0 38 -4 68 -8 65 -5
-3 -9 1 -9 9 0 8 4 12 9 9 4 -3 8 13 8 35 0 23 -4 41 -10 41 -5 0 -10 -6 -10
-12 0 -9 -3 -10 -8 -2 -4 6 -14 14 -22 17 -12 4 -11 6 3 6 9 1 17 6 17 11 0 6
-45 10 -115 10 -108 0 -115 -1 -115 -20z"/>
<path fill="#ffffff" stroke="none" d="M147 265 c0 -6 -6 -12 -12 -12 -6 0
-12 6 -12 12 0 6 6 12 12 12 6 0 12 -6 12 -12z"/>
<path fill="#ffffff" stroke="none" d="M67 75 c0 -6 -6 -12 -12 -12 -6 0 -12
6 -12 12 0 6 6 12 12 12 6 0 12 -6 12 -12z"/>
<path fill="#ffffff" stroke="none" d="M150 54 c0 -8 -19 -13 -24 -6 -3 5 1 9
9 9 8 0 15 -2 15 -3z"/>
<path fill="#000000" stroke="none" d="M270 280 c0 -5 5 -10 10 -10 6 0 10 5
10 10 0 6 -4 10 -10 10 -5 0 -10 -4 -10 -10z"/>
</g>
</svg>
