<?xml version="1.0" standalone="no"?>
<!DOCTYPE svg PUBLIC "-//W3C//DTD SVG 20010904//EN"
 "http://www.w3.org/TR/2001/REC-SVG-20010904/DTD/svg10.dtd">
<svg version="1.0" xmlns="http://www.w3.org/2000/svg"
 width="32.000000pt" height="32.000000pt" viewBox="0 0 32.000000 32.000000"
 preserveAspectRatio="xMidYMid meet">
<metadata>
Created by potrace 1.16, written by Peter Selinger 2001-2019
</metadata>
<g transform="translate(0.000000,32.000000) scale(0.100000,-0.100000)"
fill="#000000" stroke="none">
<path fill="#000000" stroke="none" d="M0 160 l0 -160 160 0 160 0 0 160 0
160 -160 0 -160 0 0 -160z"/>
<path fill="#ffffff" stroke="none" d="M305 300 c-3 -5 -22 -10 -41 -10 -19 0
-34 -4 -34 -10 0 -5 6 -10 13 -10 8 0 9 -3 1 -8 -6 -4 -14 -14 -17 -22 -4 -12
-6 -11 -6 3 -1 9 -7 17 -13 18 -10 0 -10 2 0 6 6 2 12 10 12 16 0 8 -29 12
-95 12 -109 0 -97 16 -99 -129 -1 -55 3 -81 12 -83 6 -3 13 4 13 14 1 16 2 16
6 1 2 -10 10 -18 16 -18 9 0 9 -2 1 -8 -6 -4 -14 -14 -17 -22 -4 -12 -6 -11
-6 3 -2 31 -30 19 -34 -15 -2 -18 -5 36 -5 120 l-2 152 151 0 c97 0 148 -4
144 -10z"/>
<path fill="#ffffff" stroke="none" d="M67 245 c0 -6 -6 -12 -12 -12 -6 0 -12
6 -12 12 0 6 6 12 12 12 6 0 12 -6 12 -12z"/>
<path fill="#ffffff" stroke="none" d="M277 135 c0 -6 -6 -12 -12 -12 -6 0
-12 6 -12 12 0 6 6 12 12 12 6 0 12 -6 12 -12z"/>
<path fill="#ffffff" stroke="none" d="M264 58 c8 -5 7 -8 -1 -8 -7 0 -13 -7
-13 -16 0 -9 5 -12 13 -8 6 4 9 3 4 -1 -12 -13 -79 -17 -71 -4 3 6 15 9 25 6
12 -3 19 0 19 9 0 8 -6 14 -12 15 -10 0 -10 2 0 6 6 2 12 12 13 21 0 14 2 14
6 2 3 -8 11 -18 17 -22z"/>
<path fill="#ffffff" stroke="none" d="M119 28 c-5 -10 -17 -18 -27 -18 -16 1
-16 1 0 14 10 7 16 15 13 18 -3 2 2 5 9 5 11 0 13 -5 5 -19z"/>
<path fill="#ffffff" stroke="none" d="M65 20 c-3 -5 -13 -10 -21 -10 -8 0
-12 5 -9 10 3 6 13 10 21 10 8 0 12 -4 9 -10z"/>
<path fill="#ffffff" stroke="none" d="M165 20 c-3 -5 -13 -10 -21 -10 -8 0
-12 5 -9 10 3 6 13 10 21 10 8 0 12 -4 9 -10z"/>
</g>
</svg>
