<?xml version="1.0" standalone="no"?>
<!DOCTYPE svg PUBLIC "-//W3C//DTD SVG 20010904//EN"
 "http://www.w3.org/TR/2001/REC-SVG-20010904/DTD/svg10.dtd">
<svg version="1.0" xmlns="http://www.w3.org/2000/svg"
 width="32.000000pt" height="32.000000pt" viewBox="0 0 32.000000 32.000000"
 preserveAspectRatio="xMidYMid meet">
<metadata>
Created by potrace 1.16, written by Peter Selinger 2001-2019
</metadata>
<g transform="translate(0.000000,32.000000) scale(0.100000,-0.100000)"
fill="#000000" stroke="none">
<path fill="#000000" stroke="none" d="M0 160 l0 -160 160 0 160 0 0 160 0
160 -160 0 -160 0 0 -160z"/>
<path fill="#ffffff" stroke="none" d="M195 300 c-8 -13 -162 -13 -170 0 -4 6
27 10 85 10 58 0 89 -4 85 -10z"/>
<path fill="#ffffff" stroke="none" d="M305 301 c3 -5 1 -12 -5 -16 -5 -3 -10
-13 -10 -21 0 -9 5 -12 12 -8 8 5 9 2 4 -12 -17 -40 -19 -57 -8 -50 14 9 16
-6 3 -20 -5 -5 -12 -20 -14 -34 -3 -14 -4 14 -4 63 l2 87 -37 0 c-21 0 -38 5
-38 10 0 13 87 13 95 1z"/>
<path fill="#ffffff" stroke="none" d="M29 172 c0 -80 -3 -101 -10 -83 -11 28
-8 201 4 194 4 -2 7 -52 6 -111z"/>
<path fill="#ffffff" stroke="none" d="M103 233 c-7 -2 -21 -2 -30 0 -10 3 -4
5 12 5 17 0 24 -2 18 -5z"/>
<path fill="#ffffff" stroke="none" d="M173 233 c-7 -2 -19 -2 -25 0 -7 3 -2
5 12 5 14 0 19 -2 13 -5z"/>
<path fill="#ffffff" stroke="none" d="M180 196 c-5 -10 -79 -17 -93 -9 -4 2
-5 9 -1 14 7 13 101 7 94 -5z"/>
<path fill="#ffffff" stroke="none" d="M245 200 c-12 -5 -14 -9 -6 -9 8 -1 12
-4 8 -7 -10 -10 -39 5 -32 16 3 5 16 10 28 9 21 0 21 -1 2 -9z"/>
<path fill="#ffffff" stroke="none" d="M125 151 c9 -16 -30 -22 -73 -12 -2 1
0 6 3 11 8 13 62 13 70 1z"/>
<path fill="#ffffff" stroke="none" d="M191 143 c11 -15 11 -16 0 -6 -7 6 -20
9 -29 6 -10 -4 -13 -2 -8 5 10 17 21 15 37 -5z"/>
<path fill="#ffffff" stroke="none" d="M265 150 c3 -5 0 -7 -8 -4 -8 3 -18 0
-22 -5 -3 -6 -11 -9 -16 -5 -5 3 -7 10 -4 15 8 12 42 12 50 -1z"/>
<path fill="#ffffff" stroke="none" d="M75 100 c3 -5 1 -10 -4 -10 -6 0 -11 5
-11 10 0 6 2 10 4 10 3 0 8 -4 11 -10z"/>
<path fill="#ffffff" stroke="none" d="M193 96 c-5 -15 -83 -13 -83 2 0 9 13
12 43 10 23 -2 41 -7 40 -12z"/>
<path fill="#ffffff" stroke="none" d="M265 100 c-3 -5 -12 -10 -20 -10 -8 0
-17 5 -20 10 -4 6 5 10 20 10 15 0 24 -4 20 -10z"/>
<path fill="#ffffff" stroke="none" d="M305 70 c3 -6 -1 -7 -9 -4 -18 7 -21
14 -7 14 6 0 13 -4 16 -10z"/>
<path fill="#ffffff" stroke="none" d="M294 44 c3 -8 2 -12 -4 -9 -6 3 -10 10
-10 16 0 14 7 11 14 -7z"/>
<path fill="#ffffff" stroke="none" d="M128 33 c-15 -2 -42 -2 -60 0 -18 2 -6
4 27 4 33 0 48 -2 33 -4z"/>
<path fill="#ffffff" stroke="none" d="M223 33 c-13 -2 -33 -2 -45 0 -13 2 -3
4 22 4 25 0 35 -2 23 -4z"/>
</g>
</svg>
