<?xml version="1.0" standalone="no"?>
<!DOCTYPE svg PUBLIC "-//W3C//DTD SVG 20010904//EN"
 "http://www.w3.org/TR/2001/REC-SVG-20010904/DTD/svg10.dtd">
<svg version="1.0" xmlns="http://www.w3.org/2000/svg"
 width="32.000000pt" height="32.000000pt" viewBox="0 0 32.000000 32.000000"
 preserveAspectRatio="xMidYMid meet">
<metadata>
Created by potrace 1.16, written by Peter Selinger 2001-2019
</metadata>
<g transform="translate(0.000000,32.000000) scale(0.100000,-0.100000)"
fill="#000000" stroke="none">
<path fill="#000000" stroke="none" d="M10 160 l0 -150 150 0 151 0 -2 137
c-2 115 -4 133 -15 118 -7 -10 -10 -23 -6 -29 16 -27 10 -38 -11 -18 l-21 22
27 28 c15 15 27 31 27 35 0 4 -67 7 -150 7 l-150 0 0 -150z"/>
<path fill="#ffffff" stroke="none" d="M97 272 c-15 -15 -18 -15 -33 -1 -14
14 -12 16 17 17 30 1 31 0 16 -16z"/>
<path fill="#ffffff" stroke="none" d="M198 265 c25 -28 28 -40 10 -29 -7 4
-10 3 -5 -1 10 -11 -22 -45 -43 -45 -9 0 -27 11 -39 24 l-23 24 23 26 c28 33
49 33 77 1z"/>
<path fill="#ffffff" stroke="none" d="M254 275 c-4 -8 -10 -15 -14 -15 -4 0
-13 7 -20 15 -11 13 -8 15 13 15 19 0 25 -4 21 -15z"/>
<path fill="#ffffff" stroke="none" d="M56 249 c3 -6 -1 -18 -10 -27 -15 -15
-16 -14 -16 11 0 27 13 36 26 16z"/>
<path fill="#ffffff" stroke="none" d="M90 240 c0 -5 -5 -10 -11 -10 -5 0 -7
5 -4 10 3 6 8 10 11 10 2 0 4 -4 4 -10z"/>
<path fill="#ffffff" stroke="none" d="M250 240 c0 -5 -5 -10 -11 -10 -5 0 -7
5 -4 10 3 6 8 10 11 10 2 0 4 -4 4 -10z"/>
<path fill="#ffffff" stroke="none" d="M105 198 c31 -27 31 -47 -1 -77 l-25
-24 -24 23 c-14 13 -25 29 -25 37 0 11 38 63 47 63 1 0 14 -10 28 -22z"/>
<path fill="#ffffff" stroke="none" d="M267 198 c29 -27 29 -49 -1 -77 l-24
-23 -26 23 c-32 28 -33 44 -3 75 27 29 26 29 54 2z"/>
<path fill="#ffffff" stroke="none" d="M170 160 c0 -5 -5 -10 -11 -10 -5 0 -7
5 -4 10 3 6 8 10 11 10 2 0 4 -4 4 -10z"/>
<path fill="#ffffff" stroke="none" d="M199 106 l23 -24 -23 -26 c-12 -14 -30
-26 -39 -26 -9 0 -27 12 -39 26 l-23 26 23 24 c28 30 50 30 78 0z"/>
<path fill="#ffffff" stroke="none" d="M48 64 c-14 -15 -16 -13 -14 15 1 27 3
29 16 16 13 -13 12 -17 -2 -31z"/>
<path fill="#ffffff" stroke="none" d="M286 62 c-4 -3 -11 -1 -18 6 -8 8 -8
15 3 28 13 16 14 16 17 -5 2 -13 1 -25 -2 -29z"/>
<path fill="#ffffff" stroke="none" d="M90 80 c0 -5 -5 -10 -11 -10 -5 0 -7 5
-4 10 3 6 8 10 11 10 2 0 4 -4 4 -10z"/>
<path fill="#ffffff" stroke="none" d="M250 80 c0 -5 -5 -10 -11 -10 -5 0 -7
5 -4 10 3 6 8 10 11 10 2 0 4 -4 4 -10z"/>
<path fill="#ffffff" stroke="none" d="M100 45 c11 -13 8 -15 -13 -15 -19 0
-25 4 -21 15 4 8 10 15 14 15 4 0 13 -7 20 -15z"/>
<path fill="#ffffff" stroke="none" d="M259 47 c9 -11 5 -14 -20 -15 -25 -1
-28 2 -18 14 14 18 23 18 38 1z"/>
<path fill="#000000" stroke="none" d="M152 214 c10 -10 20 -16 22 -13 3 3 -5
11 -17 18 -21 13 -21 12 -5 -5z"/>
<path fill="#000000" stroke="none" d="M141 117 c2 -1 13 -9 24 -17 19 -14 19
-14 6 3 -7 9 -18 17 -24 17 -6 0 -8 -1 -6 -3z"/>
</g>
</svg>
