<?xml version="1.0" standalone="no"?>
<!DOCTYPE svg PUBLIC "-//W3C//DTD SVG 20010904//EN"
 "http://www.w3.org/TR/2001/REC-SVG-20010904/DTD/svg10.dtd">
<svg version="1.0" xmlns="http://www.w3.org/2000/svg"
 width="32.000000pt" height="32.000000pt" viewBox="0 0 32.000000 32.000000"
 preserveAspectRatio="xMidYMid meet">
<metadata>
Created by potrace 1.16, written by Peter Selinger 2001-2019
</metadata>
<g transform="translate(0.000000,32.000000) scale(0.100000,-0.100000)"
fill="#000000" stroke="none">
<path fill="#000000" stroke="none" d="M2 284 c1 -19 6 -34 12 -34 7 0 7 -3
-1 -8 -16 -10 -12 -61 7 -72 12 -7 11 -12 -4 -29 -15 -16 -16 -21 -5 -21 11 0
11 -2 -1 -10 -13 -9 -13 -12 3 -24 17 -13 17 -14 0 -20 -15 -6 -15 -8 -3 -16
9 -6 10 -10 3 -10 -18 0 -8 -33 10 -36 9 -1 17 2 17 7 0 6 5 7 10 4 6 -3 10 0
10 7 0 8 5 6 11 -4 12 -22 48 -23 55 -3 6 14 8 13 19 -2 11 -14 16 -15 28 -5
12 10 16 10 20 0 4 -8 8 -9 14 -3 4 6 29 10 55 10 43 0 56 10 33 27 -6 5 -5 8
3 8 16 0 16 30 0 30 -7 0 -5 5 6 11 15 9 16 13 5 20 -12 7 -12 9 0 9 11 0 10
5 -4 20 -17 19 -17 21 0 40 14 15 15 20 4 20 -12 0 -11 2 1 10 12 8 12 10 -3
16 -17 6 -17 7 0 20 16 12 16 15 3 24 -9 5 -10 10 -3 10 16 0 9 35 -8 35 -8 1
-17 -4 -21 -10 -5 -6 -8 -6 -8 3 0 15 -36 16 -46 1 -4 -8 -9 -7 -15 2 -8 12
-11 11 -19 -1 -6 -10 -10 -11 -10 -2 0 16 -30 16 -30 0 0 -10 -2 -10 -8 -1 -5
8 -32 12 -75 12 l-66 -1 1 -34z"/>
<path fill="#ffffff" stroke="none" d="M168 228 c9 -9 17 -9 36 2 15 7 32 9
43 5 18 -8 28 -12 40 -14 4 0 2 -6 -4 -12 -7 -7 -9 -25 -6 -41 4 -21 2 -28 -8
-26 -10 2 -13 -5 -11 -24 5 -39 -13 -42 -39 -7 -18 25 -26 30 -48 25 -14 -4
-32 -7 -39 -8 -8 -1 -18 -13 -23 -26 l-10 -26 -25 26 c-24 24 -48 91 -36 102
10 11 49 6 80 -10 20 -9 41 -13 54 -8 13 4 25 6 27 5 2 -2 7 1 10 7 3 5 15 14
26 20 35 20 -7 14 -51 -7 -28 -14 -44 -16 -57 -9 -15 7 -16 12 -6 24 14 17 31
18 47 2z"/>
<path fill="#000000" stroke="none" d="M130 220 c0 -5 7 -10 15 -10 8 0 15 5
15 10 0 6 -7 10 -15 10 -8 0 -15 -4 -15 -10z"/>
<path fill="#000000" stroke="none" d="M260 210 c-9 -6 -10 -10 -3 -10 6 0 15
5 18 10 8 12 4 12 -15 0z"/>
<path fill="#000000" stroke="none" d="M225 200 c-3 -5 -1 -10 4 -10 6 0 11 5
11 10 0 6 -2 10 -4 10 -3 0 -8 -4 -11 -10z"/>
<path fill="#000000" stroke="none" d="M64 185 c11 -8 29 -15 39 -15 16 0 17
3 7 15 -7 8 -24 15 -39 15 -25 -1 -25 -1 -7 -15z"/>
<path fill="#000000" stroke="none" d="M50 170 c0 -6 7 -10 15 -10 19 0 19 6
0 14 -8 3 -15 1 -15 -4z"/>
<path fill="#000000" stroke="none" d="M212 163 c-6 -10 -6 -21 0 -27 5 -6 15
-20 23 -31 14 -19 15 -18 13 12 -1 17 -6 29 -10 27 -4 -3 -8 0 -8 6 0 6 10 15
23 20 21 8 21 9 -5 9 -15 1 -31 -6 -36 -16z"/>
<path fill="#000000" stroke="none" d="M142 158 c-22 -22 -12 -29 18 -13 17 9
30 18 30 20 0 10 -36 5 -48 -7z"/>
<path fill="#000000" stroke="none" d="M65 139 c-4 -5 1 -19 11 -30 17 -19 17
-19 29 3 6 13 10 26 8 31 -6 11 -41 9 -48 -4z"/>
</g>
</svg>
