<?xml version="1.0" standalone="no"?>
<!DOCTYPE svg PUBLIC "-//W3C//DTD SVG 20010904//EN"
 "http://www.w3.org/TR/2001/REC-SVG-20010904/DTD/svg10.dtd">
<svg version="1.0" xmlns="http://www.w3.org/2000/svg"
 width="32.000000pt" height="32.000000pt" viewBox="0 0 32.000000 32.000000"
 preserveAspectRatio="xMidYMid meet">
<metadata>
Created by potrace 1.16, written by Peter Selinger 2001-2019
</metadata>
<g transform="translate(0.000000,32.000000) scale(0.100000,-0.100000)"
fill="#000000" stroke="none">
<path fill="#000000" stroke="none" d="M0 275 l0 -35 75 0 75 0 0 35 0 35 -75
0 -75 0 0 -35z"/>
<path fill="#000000" stroke="none" d="M160 275 l0 -35 75 0 75 0 0 35 0 35
-75 0 -75 0 0 -35z"/>
<path fill="#000000" stroke="none" d="M0 195 c0 -33 2 -35 35 -35 33 0 35 2
35 35 0 33 -2 35 -35 35 -33 0 -35 -2 -35 -35z"/>
<path fill="#000000" stroke="none" d="M80 195 l0 -35 75 0 75 0 0 35 0 35
-75 0 -75 0 0 -35z"/>
<path fill="#000000" stroke="none" d="M240 195 c0 -34 1 -35 40 -35 39 0 40
1 40 35 0 34 -1 35 -40 35 -39 0 -40 -1 -40 -35z"/>
<path fill="#000000" stroke="none" d="M0 115 l0 -35 75 0 75 0 0 35 0 35 -75
0 -75 0 0 -35z"/>
<path fill="#000000" stroke="none" d="M160 115 l0 -35 75 0 75 0 0 35 0 35
-75 0 -75 0 0 -35z"/>
<path fill="#000000" stroke="none" d="M0 35 c0 -33 2 -35 35 -35 33 0 35 2
35 35 0 33 -2 35 -35 35 -33 0 -35 -2 -35 -35z"/>
<path fill="#000000" stroke="none" d="M80 35 l0 -35 75 0 75 0 0 35 0 35 -75
0 -75 0 0 -35z"/>
<path fill="#000000" stroke="none" d="M240 35 c0 -34 1 -35 40 -35 39 0 40 1
40 35 0 34 -1 35 -40 35 -39 0 -40 -1 -40 -35z"/>
</g>
</svg>
