<?xml version="1.0" standalone="no"?>
<!DOCTYPE svg PUBLIC "-//W3C//DTD SVG 20010904//EN"
 "http://www.w3.org/TR/2001/REC-SVG-20010904/DTD/svg10.dtd">
<svg version="1.0" xmlns="http://www.w3.org/2000/svg"
 width="32.000000pt" height="32.000000pt" viewBox="0 0 32.000000 32.000000"
 preserveAspectRatio="xMidYMid meet">
<metadata>
Created by potrace 1.16, written by Peter Selinger 2001-2019
</metadata>
<g transform="translate(0.000000,32.000000) scale(0.100000,-0.100000)"
fill="#000000" stroke="none">
<path fill="#000000" stroke="none" d="M0 162 c0 -132 2 -159 15 -159 8 0 12
4 9 9 -3 4 22 8 56 8 46 0 59 -3 54 -13 -6 -9 -4 -9 7 1 14 13 93 17 85 4 -2
-4 4 -9 15 -9 11 -1 17 2 14 8 -9 14 39 11 54 -3 11 -11 12 -10 5 2 -15 26
-17 63 -2 54 10 -5 11 -4 1 7 -15 16 -17 65 -3 74 6 3 10 13 10 21 0 8 -5 12
-10 9 -6 -3 -10 3 -10 15 0 14 4 19 13 14 10 -6 10 -4 0 7 -16 17 -17 81 -1
97 9 9 -24 12 -150 12 l-162 0 0 -158z"/>
<path fill="#ffffff" stroke="none" d="M79 268 c11 -10 13 -10 7 0 -5 8 1 12
18 12 14 0 26 -5 26 -11 0 -5 -4 -7 -10 -4 -6 4 -7 -1 -3 -11 5 -13 2 -15 -15
-9 -18 5 -22 2 -22 -14 0 -15 -5 -19 -17 -15 -17 5 -17 5 0 -6 22 -14 24 -55
1 -46 -9 3 -18 6 -20 6 -13 0 -1 65 14 76 16 13 16 13 0 14 -10 0 -18 5 -18
10 0 14 23 12 39 -2z"/>
<path fill="#ffffff" stroke="none" d="M246 263 c13 -17 13 -17 14 0 0 9 5 17
10 17 14 0 12 -23 -2 -39 -8 -8 -8 -11 -2 -8 7 4 14 -3 16 -18 4 -17 1 -25 -9
-25 -8 0 -11 4 -8 10 4 6 -1 7 -11 3 -13 -5 -15 -2 -9 15 5 18 2 22 -14 22
-15 0 -19 5 -15 18 5 16 5 16 -6 0 -9 -15 -50 -26 -50 -14 0 37 62 50 86 19z"/>
<path fill="#ffffff" stroke="none" d="M115 210 c3 -5 1 -10 -4 -10 -6 0 -11
5 -11 10 0 6 2 10 4 10 3 0 8 -4 11 -10z"/>
<path fill="#ffffff" stroke="none" d="M220 216 c0 -3 -4 -8 -10 -11 -5 -3
-10 -1 -10 4 0 6 5 11 10 11 6 0 10 -2 10 -4z"/>
<path fill="#ffffff" stroke="none" d="M173 142 c-15 -11 -20 -10 -31 5 -11
15 -10 20 5 31 15 11 20 10 31 -5 11 -15 10 -20 -5 -31z"/>
<path fill="#ffffff" stroke="none" d="M278 150 c4 0 7 -16 8 -35 0 -22 -4
-35 -12 -35 -7 0 -16 -5 -20 -12 -5 -8 0 -9 14 -6 17 5 22 2 22 -13 0 -24 -17
-24 -42 -2 -13 12 -18 13 -16 4 2 -8 -8 -14 -24 -16 -20 -3 -25 0 -21 11 3 7
9 11 14 8 5 -3 6 2 2 12 -5 13 -2 15 15 9 18 -5 22 -2 22 14 0 15 5 19 18 15
16 -5 16 -5 0 6 -23 14 -25 55 -2 46 9 -3 19 -6 22 -6z"/>
<path fill="#ffffff" stroke="none" d="M55 120 c-4 -6 1 -7 11 -3 13 5 15 2 9
-15 -5 -18 -2 -22 14 -22 15 0 19 -5 15 -17 -5 -17 -5 -17 6 0 17 26 48 22 46
-6 -1 -20 -5 -22 -36 -18 -19 2 -40 11 -47 20 -11 15 -12 14 -13 -1 0 -10 -4
-18 -10 -18 -14 0 -12 23 3 39 10 11 10 13 0 7 -9 -5 -13 1 -13 18 0 14 5 26
11 26 5 0 7 -4 4 -10z"/>
<path fill="#ffffff" stroke="none" d="M120 110 c0 -5 -5 -10 -11 -10 -5 0 -7
5 -4 10 3 6 8 10 11 10 2 0 4 -4 4 -10z"/>
<path fill="#ffffff" stroke="none" d="M220 110 c0 -5 -2 -10 -4 -10 -3 0 -8
5 -11 10 -3 6 -1 10 4 10 6 0 11 -4 11 -10z"/>
<path fill="#000000" stroke="none" d="M153 172 c-7 -4 -9 -13 -5 -19 4 -7 13
-9 19 -5 7 4 9 13 5 19 -4 7 -13 9 -19 5z"/>
</g>
</svg>
