<?xml version="1.0" standalone="no"?>
<!DOCTYPE svg PUBLIC "-//W3C//DTD SVG 20010904//EN"
 "http://www.w3.org/TR/2001/REC-SVG-20010904/DTD/svg10.dtd">
<svg version="1.0" xmlns="http://www.w3.org/2000/svg"
 width="32.000000pt" height="32.000000pt" viewBox="0 0 32.000000 32.000000"
 preserveAspectRatio="xMidYMid meet">
<metadata>
Created by potrace 1.16, written by Peter Selinger 2001-2019
</metadata>
<g transform="translate(0.000000,32.000000) scale(0.100000,-0.100000)"
fill="#000000" stroke="none">
<path fill="#000000" stroke="none" d="M10 309 c11 -8 12 -12 2 -16 -6 -2 -12
-21 -12 -41 l0 -35 28 24 27 24 -27 -31 c-29 -31 -37 -78 -15 -88 10 -5 9 -7
-1 -12 -6 -3 -12 -22 -12 -42 l0 -35 28 24 27 24 -27 -31 c-16 -16 -28 -40
-28 -52 0 -22 2 -22 160 -22 155 0 160 1 160 21 0 13 -4 18 -12 13 -10 -6 -10
-4 0 7 6 7 12 30 12 51 0 37 -1 39 -32 37 -51 -3 -68 0 -68 11 0 6 23 10 50
10 47 0 50 2 50 26 0 17 -4 23 -12 18 -10 -6 -10 -4 0 7 6 7 12 30 12 51 l0
38 -50 0 c-66 0 -64 18 3 23 28 2 -22 4 -113 5 -119 1 -161 -1 -150 -9z"/>
<path fill="#ffffff" stroke="none" d="M180 301 c0 -9 -74 -18 -103 -13 -40 8
-12 22 43 22 33 0 60 -4 60 -9z"/>
<path fill="#ffffff" stroke="none" d="M90 266 c0 -11 -19 -15 -25 -6 -3 5 1
10 9 10 9 0 16 -2 16 -4z"/>
<path fill="#ffffff" stroke="none" d="M210 256 c0 -2 -8 -10 -17 -17 -16 -13
-17 -12 -4 4 13 16 21 21 21 13z"/>
<path fill="#ffffff" stroke="none" d="M170 216 c0 -2 -8 -10 -17 -17 -16 -13
-17 -12 -4 4 13 16 21 21 21 13z"/>
<path fill="#ffffff" stroke="none" d="M85 182 c-3 -3 -11 0 -18 7 -9 10 -8
11 6 5 10 -3 15 -9 12 -12z"/>
<path fill="#ffffff" stroke="none" d="M180 140 c0 -6 -27 -10 -60 -10 -33 0
-60 4 -60 10 0 6 27 10 60 10 33 0 60 -4 60 -10z"/>
<path fill="#ffffff" stroke="none" d="M210 96 c0 -2 -8 -10 -17 -17 -16 -13
-17 -12 -4 4 13 16 21 21 21 13z"/>
<path fill="#ffffff" stroke="none" d="M254 62 c3 -5 -1 -9 -9 -9 -8 0 -12 4
-9 9 3 4 7 8 9 8 2 0 6 -4 9 -8z"/>
<path fill="#ffffff" stroke="none" d="M170 56 c0 -2 -8 -10 -17 -17 -16 -13
-17 -12 -4 4 13 16 21 21 21 13z"/>
<path fill="#ffffff" stroke="none" d="M245 22 c-3 -3 -11 0 -18 7 -9 10 -8
11 6 5 10 -3 15 -9 12 -12z"/>
</g>
</svg>
