<?xml version="1.0" standalone="no"?>
<!DOCTYPE svg PUBLIC "-//W3C//DTD SVG 20010904//EN"
 "http://www.w3.org/TR/2001/REC-SVG-20010904/DTD/svg10.dtd">
<svg version="1.0" xmlns="http://www.w3.org/2000/svg"
 width="32.000000pt" height="32.000000pt" viewBox="0 0 32.000000 32.000000"
 preserveAspectRatio="xMidYMid meet">
<metadata>
Created by potrace 1.16, written by Peter Selinger 2001-2019
</metadata>
<g transform="translate(0.000000,32.000000) scale(0.100000,-0.100000)"
fill="#000000" stroke="none">
<path fill="#000000" stroke="none" d="M0 279 c0 -19 4 -28 11 -24 6 4 8 14 5
22 -3 8 -1 11 4 8 6 -3 10 -13 10 -21 0 -8 8 -14 18 -13 10 0 12 3 5 6 -22 8
-14 21 12 18 31 -3 32 3 3 15 -19 7 -15 9 20 8 23 -1 45 2 49 5 3 4 -26 7 -65
7 l-72 0 0 -31z"/>
<path fill="#000000" stroke="none" d="M160 278 c0 -36 10 -32 14 6 2 14 -1
26 -5 26 -5 0 -9 -14 -9 -32z"/>
<path fill="#000000" stroke="none" d="M199 291 c6 -10 7 -21 4 -25 -3 -3 -2
-6 4 -6 6 0 16 7 23 15 11 13 10 15 -6 9 -16 -5 -17 -4 -3 5 9 6 25 9 36 7 11
-3 26 0 34 5 9 6 -6 9 -44 9 -53 0 -57 -1 -48 -19z"/>
<path fill="#000000" stroke="none" d="M118 273 c7 -3 16 -2 19 1 4 3 -2 6
-13 5 -11 0 -14 -3 -6 -6z"/>
<path fill="#000000" stroke="none" d="M5 220 c3 -5 12 -7 20 -3 21 7 19 13
-6 13 -11 0 -18 -4 -14 -10z"/>
<path fill="#000000" stroke="none" d="M80 198 c0 -25 3 -29 12 -20 7 7 20 12
30 12 10 0 18 5 18 11 0 5 -4 7 -10 4 -5 -3 -10 -1 -10 5 0 8 7 9 18 5 9 -4
23 -10 31 -13 9 -3 12 -1 7 6 -4 6 4 12 21 15 16 2 -5 5 -44 6 l-73 1 0 -32z"/>
<path fill="#000000" stroke="none" d="M240 200 c0 -32 4 -34 35 -19 19 9 19
9 -1 5 -17 -3 -20 0 -16 16 3 13 11 18 22 15 10 -2 24 -1 31 4 9 6 -1 9 -28 9
-41 0 -43 -1 -43 -30z"/>
<path fill="#000000" stroke="none" d="M135 180 c-16 -7 -17 -9 -3 -9 9 -1 20
4 23 9 7 11 7 11 -20 0z"/>
<path fill="#000000" stroke="none" d="M0 118 c1 -32 1 -32 16 -13 8 11 17 19
19 18 12 -7 26 -2 21 6 -4 5 0 12 6 14 7 3 -4 6 -24 6 -36 1 -38 0 -38 -31z"/>
<path fill="#000000" stroke="none" d="M93 143 c9 -2 25 -2 35 0 9 3 1 5 -18
5 -19 0 -27 -2 -17 -5z"/>
<path fill="#000000" stroke="none" d="M160 122 c0 -23 4 -28 20 -27 11 1 26
7 33 15 9 10 9 11 0 6 -8 -4 -13 -1 -13 8 0 11 10 16 34 16 19 0 36 -4 38 -9
2 -5 9 -3 16 5 11 12 2 14 -58 14 l-70 0 0 -28z"/>
<path fill="#000000" stroke="none" d="M95 119 c-4 -6 -4 -13 -1 -16 3 -4 6
-1 6 5 0 6 8 13 18 15 15 4 15 5 0 6 -9 0 -20 -4 -23 -10z"/>
<path fill="#000000" stroke="none" d="M240 121 c0 -5 7 -12 16 -15 24 -9 27
-7 10 9 -17 17 -26 19 -26 6z"/>
<path fill="#000000" stroke="none" d="M1 54 c0 -11 3 -14 6 -6 3 7 2 16 -1
19 -3 4 -6 -2 -5 -13z"/>
<path fill="#000000" stroke="none" d="M80 39 c0 -19 4 -28 11 -24 6 4 8 14 4
23 -3 9 -3 13 1 9 4 -4 13 -2 20 4 15 13 34 4 30 -14 -1 -7 -1 -9 1 -5 3 4 15
3 27 -2 17 -6 23 -5 23 6 0 8 -5 14 -11 15 -6 1 0 5 14 9 18 6 4 8 -47 9 l-73
1 0 -31z"/>
<path fill="#ffffff" stroke="none" d="M170 50 c0 -5 -2 -10 -4 -10 -3 0 -8 5
-11 10 -3 6 -1 10 4 10 6 0 11 -4 11 -10z"/>
<path fill="#000000" stroke="none" d="M240 42 c0 -18 5 -29 14 -29 12 0 13 5
4 20 -9 17 -8 19 9 15 11 -3 28 1 38 8 17 13 15 14 -23 14 -39 0 -42 -2 -42
-28z"/>
</g>
</svg>
