<?xml version="1.0" standalone="no"?>
<!DOCTYPE svg PUBLIC "-//W3C//DTD SVG 20010904//EN"
 "http://www.w3.org/TR/2001/REC-SVG-20010904/DTD/svg10.dtd">
<svg version="1.0" xmlns="http://www.w3.org/2000/svg"
 width="32.000000pt" height="32.000000pt" viewBox="0 0 32.000000 32.000000"
 preserveAspectRatio="xMidYMid meet">
<metadata>
Created by potrace 1.16, written by Peter Selinger 2001-2019
</metadata>
<g transform="translate(0.000000,32.000000) scale(0.100000,-0.100000)"
fill="#000000" stroke="none">
<path fill="#000000" stroke="none" d="M1 175 c-2 -112 1 -145 11 -145 10 0
10 -2 0 -9 -23 -14 24 -21 155 -21 127 0 166 6 141 21 -10 7 -10 9 0 9 18 0
18 270 0 270 -9 0 -8 4 2 10 10 6 -39 10 -147 10 l-161 0 -1 -145z"/>
<path fill="#ffffff" stroke="none" d="M148 293 c-10 -2 -28 -2 -40 0 -13 2
-5 4 17 4 22 1 32 -1 23 -4z"/>
<path fill="#ffffff" stroke="none" d="M238 293 c-10 -2 -26 -2 -35 0 -10 3
-2 5 17 5 19 0 27 -2 18 -5z"/>
<path fill="#ffffff" stroke="none" d="M307 127 c-2 -23 -3 -2 -3 48 0 50 1
68 3 42 2 -26 2 -67 0 -90z"/>
<path fill="#ffffff" stroke="none" d="M17 138 c-2 -24 -4 -7 -4 37 0 44 2 63
4 43 2 -21 2 -57 0 -80z"/>
<path fill="#ffffff" stroke="none" d="M176 219 c19 -21 19 -22 -2 -15 -17 5
-22 3 -20 -11 1 -23 -39 -30 -47 -9 -4 10 -1 16 8 16 8 0 14 3 14 8 -6 37 18
43 47 11z"/>
<path fill="#ffffff" stroke="none" d="M204 224 c5 -14 4 -15 -9 -4 -17 14
-19 20 -6 20 5 0 12 -7 15 -16z"/>
<path fill="#ffffff" stroke="none" d="M100 140 c0 -5 -2 -10 -4 -10 -3 0 -8
5 -11 10 -3 6 -1 10 4 10 6 0 11 -4 11 -10z"/>
<path fill="#ffffff" stroke="none" d="M146 133 c-6 -15 -4 -15 14 2 24 21 35
15 25 -14 -6 -21 -55 -31 -55 -12 0 5 -3 16 -6 25 -4 11 -1 16 11 16 12 0 15
-5 11 -17z"/>
<path fill="#ffffff" stroke="none" d="M229 129 c-9 -17 -13 -19 -20 -8 -14
22 -11 29 11 29 18 0 19 -3 9 -21z"/>
<path fill="#ffffff" stroke="none" d="M201 81 c-14 -9 -79 -6 -89 4 -3 3 19
5 49 5 34 0 49 -3 40 -9z"/>
</g>
</svg>
