<?xml version="1.0" standalone="no"?>
<!DOCTYPE svg PUBLIC "-//W3C//DTD SVG 20010904//EN"
 "http://www.w3.org/TR/2001/REC-SVG-20010904/DTD/svg10.dtd">
<svg version="1.0" xmlns="http://www.w3.org/2000/svg"
 width="32.000000pt" height="32.000000pt" viewBox="0 0 32.000000 32.000000"
 preserveAspectRatio="xMidYMid meet">
<metadata>
Created by potrace 1.16, written by Peter Selinger 2001-2019
</metadata>
<g transform="translate(0.000000,32.000000) scale(0.100000,-0.100000)"
fill="#000000" stroke="none">
<path fill="#000000" stroke="none" d="M0 160 l0 -160 160 0 160 0 0 160 0
160 -160 0 -160 0 0 -160z"/>
<path fill="#ffffff" stroke="none" d="M43 303 c-20 -4 -22 -12 -26 -71 l-3
-67 -2 73 -2 72 28 -1 c22 -1 23 -2 5 -6z"/>
<path fill="#ffffff" stroke="none" d="M133 303 c-13 -2 -33 -2 -45 0 -13 2
-3 4 22 4 25 0 35 -2 23 -4z"/>
<path fill="#ffffff" stroke="none" d="M278 303 c-21 -2 -57 -2 -80 0 -24 2
-7 4 37 4 44 0 63 -2 43 -4z"/>
<path fill="#ffffff" stroke="none" d="M17 42 c-2 -20 -4 -3 -4 38 0 41 2 58
4 38 2 -21 2 -55 0 -76z"/>
</g>
</svg>
