<?xml version="1.0" standalone="no"?>
<!DOCTYPE svg PUBLIC "-//W3C//DTD SVG 20010904//EN"
 "http://www.w3.org/TR/2001/REC-SVG-20010904/DTD/svg10.dtd">
<svg version="1.0" xmlns="http://www.w3.org/2000/svg"
 width="32.000000pt" height="32.000000pt" viewBox="0 0 32.000000 32.000000"
 preserveAspectRatio="xMidYMid meet">
<metadata>
Created by potrace 1.16, written by Peter Selinger 2001-2019
</metadata>
<g transform="translate(0.000000,32.000000) scale(0.100000,-0.100000)"
fill="#000000" stroke="none">
<path fill="#000000" stroke="none" d="M0 160 l0 -160 160 0 160 0 0 160 0
160 -160 0 -160 0 0 -160z"/>
<path fill="#ffffff" stroke="none" d="M140 301 c0 -14 -29 -41 -43 -41 -7 0
-1 9 11 18 l24 19 -50 1 c-41 1 -50 -2 -45 -14 3 -7 8 -12 12 -10 4 3 13 -5
20 -16 l13 -21 -29 21 -28 20 -3 -39 c-2 -39 11 -53 22 -23 3 8 11 12 18 8 8
-5 4 -14 -13 -28 -13 -12 -24 -28 -23 -36 1 -23 15 -50 23 -46 4 3 13 -5 20
-16 12 -20 12 -20 -18 1 l-31 22 0 -40 c0 -41 13 -55 24 -25 3 8 11 12 16 9
13 -8 -3 -31 -30 -45 -16 -9 -17 2 -18 133 -1 99 3 144 11 149 17 11 117 10
117 -1z"/>
<path fill="#ffffff" stroke="none" d="M294 301 c7 -11 -20 -41 -37 -41 -7 0
-2 8 11 18 l23 18 -50 1 c-38 0 -48 -2 -44 -13 3 -8 8 -12 12 -10 4 3 13 -5
21 -17 12 -20 10 -20 -20 4 -19 14 -35 30 -37 36 -5 13 113 17 121 4z"/>
<path fill="#ffffff" stroke="none" d="M209 196 c-13 -12 -24 -28 -23 -36 1
-23 15 -50 23 -46 4 3 13 -5 21 -17 12 -20 10 -19 -21 4 -22 17 -34 35 -34 50
0 29 -31 38 -38 12 -4 -15 -5 -14 -6 3 0 12 -8 24 -16 28 -8 3 -15 11 -15 17
0 8 6 7 18 -3 30 -27 58 -27 77 -2 10 13 22 21 28 17 6 -4 1 -15 -14 -27z"/>
<path fill="#ffffff" stroke="none" d="M301 165 c-5 -20 -5 -20 -9 0 -2 11
-10 24 -18 28 -8 4 -14 12 -14 18 0 5 11 2 23 -8 17 -12 22 -24 18 -38z"/>
<path fill="#ffffff" stroke="none" d="M140 136 c0 -10 -32 -36 -43 -36 -7 0
-1 9 13 20 26 21 30 23 30 16z"/>
<path fill="#ffffff" stroke="none" d="M300 136 c0 -10 -32 -36 -43 -36 -7 0
-1 9 13 20 26 21 30 23 30 16z"/>
<path fill="#ffffff" stroke="none" d="M212 37 c-11 -11 -33 -20 -49 -21 -28
-1 -63 20 -63 38 0 5 8 2 18 -6 30 -27 58 -27 77 -2 10 13 22 21 27 18 6 -4 1
-15 -10 -27z"/>
<path fill="#ffffff" stroke="none" d="M304 18 c-5 -8 -44 22 -44 35 0 4 11 0
24 -10 13 -10 22 -21 20 -25z"/>
</g>
</svg>
