<?xml version="1.0" standalone="no"?>
<!DOCTYPE svg PUBLIC "-//W3C//DTD SVG 20010904//EN"
 "http://www.w3.org/TR/2001/REC-SVG-20010904/DTD/svg10.dtd">
<svg version="1.0" xmlns="http://www.w3.org/2000/svg"
 width="32.000000pt" height="32.000000pt" viewBox="0 0 32.000000 32.000000"
 preserveAspectRatio="xMidYMid meet">
<metadata>
Created by potrace 1.16, written by Peter Selinger 2001-2019
</metadata>
<g transform="translate(0.000000,32.000000) scale(0.100000,-0.100000)"
fill="#000000" stroke="none">
<path fill="#000000" stroke="none" d="M73 313 c77 -4 77 -4 73 -30 -3 -14 -7
-27 -9 -30 -10 -9 -47 -11 -52 -2 -4 5 -11 7 -16 3 -5 -3 -22 -8 -36 -10 -42
-8 -41 -14 1 -14 37 0 38 -1 31 -27 -8 -34 -6 -32 -33 -36 -52 -8 -29 -17 42
-17 l76 0 -4 -27 c-7 -35 -23 -44 -67 -38 -20 3 -47 1 -60 -4 -22 -9 -21 -10
13 -10 34 -1 36 -3 32 -28 -3 -15 -11 -31 -17 -35 -8 -5 -4 -8 11 -8 19 0 22
5 22 35 l0 35 75 0 c72 0 75 -1 71 -22 -3 -13 -5 -27 -5 -32 -1 -4 -14 -6 -31
-4 -16 3 -30 1 -30 -4 0 -4 18 -8 40 -8 39 0 40 1 40 35 0 34 1 35 40 35 l40
0 0 45 c0 47 -2 49 -52 46 -26 -1 -28 2 -28 34 0 34 1 35 40 35 l40 0 0 45 0
45 -162 -2 c-90 -1 -128 -4 -85 -5z"/>
<path fill="#ffffff" stroke="none" d="M306 284 c-3 -15 -7 -29 -10 -31 -2 -3
-34 -6 -70 -8 l-66 -4 0 34 0 35 75 0 75 0 -4 -26z"/>
<path fill="#ffffff" stroke="none" d="M226 204 c-3 -15 -7 -29 -10 -31 -2 -3
-34 -7 -70 -10 l-66 -5 0 36 0 36 75 0 75 0 -4 -26z"/>
<path fill="#ffffff" stroke="none" d="M308 125 c0 -34 -12 -39 -85 -40 l-63
-1 0 33 0 33 74 0 c72 0 74 -1 74 -25z"/>
<path fill="#000000" stroke="none" d="M118 3 c6 -2 18 -2 25 0 6 3 1 5 -13 5
-14 0 -19 -2 -12 -5z"/>
<path fill="#000000" stroke="none" d="M288 3 c7 -3 16 -2 19 1 4 3 -2 6 -13
5 -11 0 -14 -3 -6 -6z"/>
</g>
</svg>
