<?xml version="1.0" standalone="no"?>
<!DOCTYPE svg PUBLIC "-//W3C//DTD SVG 20010904//EN"
 "http://www.w3.org/TR/2001/REC-SVG-20010904/DTD/svg10.dtd">
<svg version="1.0" xmlns="http://www.w3.org/2000/svg"
 width="32.000000pt" height="32.000000pt" viewBox="0 0 32.000000 32.000000"
 preserveAspectRatio="xMidYMid meet">
<metadata>
Created by potrace 1.16, written by Peter Selinger 2001-2019
</metadata>
<g transform="translate(0.000000,32.000000) scale(0.100000,-0.100000)"
fill="#000000" stroke="none">
<path fill="#000000" stroke="none" d="M0 160 l0 -160 160 0 160 0 0 160 0
160 -160 0 -160 0 0 -160z"/>
<path fill="#ffffff" stroke="none" d="M310 160 l0 -150 -150 0 -150 0 0 150
0 150 150 0 150 0 0 -150z"/>
<path fill="#000000" stroke="none" d="M60 275 c9 -11 17 -12 31 -4 25 13 24
14 -12 17 -27 2 -30 0 -19 -13z"/>
<path fill="#000000" stroke="none" d="M120 265 l-23 -24 24 -25 c30 -32 49
-32 79 -1 l23 25 -23 25 c-30 31 -50 32 -80 0z"/>
<path fill="#ffffff" stroke="none" d="M161 257 c-6 -8 -8 -16 -5 -19 3 -3 1
-9 -4 -12 -6 -3 -9 0 -8 6 2 16 15 38 23 38 3 0 0 -6 -6 -13z"/>
<path fill="#000000" stroke="none" d="M223 273 c16 -16 18 -16 34 0 16 16 15
17 -17 17 -32 0 -33 -1 -17 -17z"/>
<path fill="#000000" stroke="none" d="M30 239 c0 -27 2 -30 15 -19 11 9 12
17 4 31 -14 27 -19 24 -19 -12z"/>
<path fill="#000000" stroke="none" d="M270 254 c-11 -12 -10 -18 3 -32 16
-15 17 -14 17 16 0 36 -2 38 -20 16z"/>
<path fill="#000000" stroke="none" d="M52 197 c-28 -30 -28 -48 3 -77 l25
-23 25 23 c32 30 32 51 0 78 -31 27 -27 27 -53 -1z"/>
<path fill="#000000" stroke="none" d="M212 197 c-28 -30 -28 -48 3 -77 l25
-23 25 23 c31 29 32 50 2 78 -29 27 -29 27 -55 -1z"/>
<path fill="#000000" stroke="none" d="M120 105 l-23 -25 23 -25 c13 -14 31
-25 40 -25 9 0 27 11 40 25 l23 25 -23 25 c-13 14 -31 25 -40 25 -9 0 -27 -11
-40 -25z"/>
<path fill="#000000" stroke="none" d="M30 80 c0 -32 1 -33 17 -17 16 16 16
18 0 34 -16 16 -17 15 -17 -17z"/>
<path fill="#000000" stroke="none" d="M270 94 c-11 -12 -10 -18 3 -32 16 -15
17 -14 17 16 0 36 -2 38 -20 16z"/>
<path fill="#000000" stroke="none" d="M60 45 c-11 -13 -8 -15 20 -15 28 0 31
2 20 15 -7 8 -16 15 -20 15 -4 0 -13 -7 -20 -15z"/>
<path fill="#000000" stroke="none" d="M220 45 c-11 -13 -8 -15 20 -15 28 0
31 2 20 15 -7 8 -16 15 -20 15 -4 0 -13 -7 -20 -15z"/>
</g>
</svg>
