<?xml version="1.0" standalone="no"?>
<!DOCTYPE svg PUBLIC "-//W3C//DTD SVG 20010904//EN"
 "http://www.w3.org/TR/2001/REC-SVG-20010904/DTD/svg10.dtd">
<svg version="1.0" xmlns="http://www.w3.org/2000/svg"
 width="32.000000pt" height="32.000000pt" viewBox="0 0 32.000000 32.000000"
 preserveAspectRatio="xMidYMid meet">
<metadata>
Created by potrace 1.16, written by Peter Selinger 2001-2019
</metadata>
<g transform="translate(0.000000,32.000000) scale(0.100000,-0.100000)"
fill="#000000" stroke="none">
<path fill="#000000" stroke="none" d="M280 300 c-9 -6 -10 -10 -3 -10 6 0 15
5 18 10 8 12 4 12 -15 0z"/>
<path fill="#000000" stroke="none" d="M76 273 c-6 -14 -5 -15 5 -6 7 7 10 15
7 18 -3 3 -9 -2 -12 -12z"/>
<path fill="#000000" stroke="none" d="M165 260 c-3 -6 1 -7 9 -4 18 7 21 14
7 14 -6 0 -13 -4 -16 -10z"/>
<path fill="#000000" stroke="none" d="M13 213 c1 -18 6 -28 10 -24 4 4 3 18
-2 32 -9 23 -9 22 -8 -8z"/>
<path fill="#000000" stroke="none" d="M86 223 c-6 -14 -5 -15 5 -6 7 7 10 15
7 18 -3 3 -9 -2 -12 -12z"/>
<path fill="#000000" stroke="none" d="M126 193 c-6 -14 -5 -15 5 -6 7 7 10
15 7 18 -3 3 -9 -2 -12 -12z"/>
<path fill="#000000" stroke="none" d="M228 188 c-10 -10 -14 -18 -9 -18 10 0
36 29 30 34 -2 1 -12 -6 -21 -16z"/>
<path fill="#000000" stroke="none" d="M56 155 c-3 -9 -11 -13 -17 -9 -8 5 -9
3 -4 -5 6 -10 11 -9 23 3 9 8 13 18 10 21 -3 3 -8 -1 -12 -10z"/>
<path fill="#000000" stroke="none" d="M276 153 c-6 -14 -5 -15 5 -6 7 7 10
15 7 18 -3 3 -9 -2 -12 -12z"/>
<path fill="#000000" stroke="none" d="M163 113 c-12 -13 -19 -23 -14 -23 10
0 46 39 40 43 -2 2 -14 -7 -26 -20z"/>
<path fill="#000000" stroke="none" d="M296 113 c-6 -14 -5 -15 5 -6 7 7 10
15 7 18 -3 3 -9 -2 -12 -12z"/>
<path fill="#000000" stroke="none" d="M14 64 c0 -21 3 -30 8 -22 10 16 10 45
1 51 -5 3 -8 -10 -9 -29z"/>
<path fill="#000000" stroke="none" d="M235 40 c-3 -5 -1 -10 4 -10 6 0 11 5
11 10 0 6 -2 10 -4 10 -3 0 -8 -4 -11 -10z"/>
<path fill="#000000" stroke="none" d="M287 29 c7 -7 15 -10 18 -7 3 3 -2 9
-12 12 -14 6 -15 5 -6 -5z"/>
</g>
</svg>
