<?xml version="1.0" standalone="no"?>
<!DOCTYPE svg PUBLIC "-//W3C//DTD SVG 20010904//EN"
 "http://www.w3.org/TR/2001/REC-SVG-20010904/DTD/svg10.dtd">
<svg version="1.0" xmlns="http://www.w3.org/2000/svg"
 width="32.000000pt" height="32.000000pt" viewBox="0 0 32.000000 32.000000"
 preserveAspectRatio="xMidYMid meet">
<metadata>
Created by potrace 1.16, written by Peter Selinger 2001-2019
</metadata>
<g transform="translate(0.000000,32.000000) scale(0.100000,-0.100000)"
fill="#000000" stroke="none">
<path fill="#000000" stroke="none" d="M0 160 l0 -160 160 0 160 0 0 160 0
160 -160 0 -160 0 0 -160z"/>
<path fill="#ffffff" stroke="none" d="M48 303 c-10 -2 -15 -10 -11 -19 3 -7
8 -12 12 -10 4 3 13 -5 21 -17 12 -21 12 -21 -6 -7 -59 45 -65 61 -21 59 16
-1 17 -3 5 -6z"/>
<path fill="#ffffff" stroke="none" d="M117 304 c-3 -3 -12 -4 -19 -1 -8 3 -5
6 6 6 11 1 17 -2 13 -5z"/>
<path fill="#ffffff" stroke="none" d="M140 301 c0 -13 -29 -41 -42 -41 -6 0
0 11 13 24 28 28 29 29 29 17z"/>
<path fill="#ffffff" stroke="none" d="M212 275 c2 2 10 -6 18 -18 12 -20 11
-20 -20 4 -19 14 -36 32 -38 40 -2 8 5 4 16 -8 11 -12 21 -20 24 -18z"/>
<path fill="#ffffff" stroke="none" d="M300 301 c0 -13 -29 -41 -42 -41 -6 0
0 11 13 24 28 28 29 29 29 17z"/>
<path fill="#ffffff" stroke="none" d="M30 200 c4 0 11 7 14 16 3 8 11 12 18
8 8 -5 4 -14 -13 -28 -13 -12 -24 -28 -23 -36 1 -23 15 -50 23 -46 4 3 13 -5
20 -16 12 -20 12 -20 -18 1 l-31 22 0 -40 c0 -41 13 -55 24 -25 3 8 11 12 16
9 13 -8 -3 -31 -30 -45 -16 -9 -18 1 -17 118 1 70 3 112 5 95 2 -18 7 -33 12
-33z"/>
<path fill="#ffffff" stroke="none" d="M209 196 c-13 -12 -24 -28 -23 -36 1
-23 15 -50 23 -46 4 3 13 -5 21 -17 12 -20 10 -19 -21 4 -22 17 -34 35 -34 50
0 29 -31 38 -38 12 -4 -15 -5 -14 -6 3 0 12 -8 24 -16 28 -8 3 -15 11 -15 17
0 8 6 7 18 -3 30 -27 58 -27 77 -2 10 13 22 21 28 17 6 -4 1 -15 -14 -27z"/>
<path fill="#ffffff" stroke="none" d="M301 165 c-5 -20 -5 -20 -9 0 -2 11
-10 24 -18 28 -8 4 -14 12 -14 18 0 5 11 2 23 -8 17 -12 22 -24 18 -38z"/>
<path fill="#ffffff" stroke="none" d="M140 136 c0 -10 -32 -36 -43 -36 -7 0
-1 9 13 20 26 21 30 23 30 16z"/>
<path fill="#ffffff" stroke="none" d="M300 136 c0 -10 -32 -36 -43 -36 -7 0
-1 9 13 20 26 21 30 23 30 16z"/>
<path fill="#ffffff" stroke="none" d="M212 37 c-11 -11 -33 -20 -49 -21 -28
-1 -63 20 -63 38 0 5 8 2 18 -6 30 -27 58 -27 77 -2 10 13 22 21 27 18 6 -4 1
-15 -10 -27z"/>
<path fill="#ffffff" stroke="none" d="M304 18 c-5 -8 -44 22 -44 35 0 4 11 0
24 -10 13 -10 22 -21 20 -25z"/>
</g>
</svg>
