<?xml version="1.0" standalone="no"?>
<!DOCTYPE svg PUBLIC "-//W3C//DTD SVG 20010904//EN"
 "http://www.w3.org/TR/2001/REC-SVG-20010904/DTD/svg10.dtd">
<svg version="1.0" xmlns="http://www.w3.org/2000/svg"
 width="32.000000pt" height="32.000000pt" viewBox="0 0 32.000000 32.000000"
 preserveAspectRatio="xMidYMid meet">
<metadata>
Created by potrace 1.16, written by Peter Selinger 2001-2019
</metadata>
<g transform="translate(0.000000,32.000000) scale(0.100000,-0.100000)"
fill="#000000" stroke="none">
<path fill="#000000" stroke="none" d="M0 160 l0 -160 28 1 c27 0 27 1 4 11
-19 9 -22 19 -22 63 0 38 4 55 15 59 19 7 19 35 0 42 -11 5 -15 22 -15 70 l0
64 56 0 c30 0 64 -5 75 -10 13 -7 19 -7 19 0 0 5 5 10 11 10 7 0 9 -10 5 -24
-9 -37 10 -40 40 -6 30 33 53 39 50 13 0 -10 10 -19 27 -24 25 -7 27 -5 27 22
l0 29 -160 0 -160 0 0 -160z"/>
<path fill="#000000" stroke="none" d="M81 277 c-9 -11 -8 -17 4 -27 19 -16
47 -5 43 17 -4 23 -31 28 -47 10z"/>
<path fill="#000000" stroke="none" d="M236 261 c-4 -5 -2 -12 3 -15 5 -4 12
-2 15 3 4 5 2 12 -3 15 -5 4 -12 2 -15 -3z"/>
<path fill="#000000" stroke="none" d="M297 232 c-22 -24 -21 -39 3 -52 18
-10 20 -8 20 30 0 22 -2 40 -3 40 -2 0 -11 -8 -20 -18z"/>
<path fill="#000000" stroke="none" d="M66 191 c-4 -5 -2 -12 3 -15 5 -4 12
-2 15 3 4 5 2 12 -3 15 -5 4 -12 2 -15 -3z"/>
<path fill="#000000" stroke="none" d="M135 170 c-3 -5 -4 -14 0 -20 8 -13 35
-1 35 16 0 16 -26 19 -35 4z"/>
<path fill="#000000" stroke="none" d="M312 130 c0 -19 2 -27 5 -17 2 9 2 25
0 35 -3 9 -5 1 -5 -18z"/>
<path fill="#000000" stroke="none" d="M222 136 c-34 -19 -66 -66 -53 -79 8
-8 11 -8 11 1 0 7 9 3 20 -8 l21 -21 29 23 c33 27 38 57 11 79 -14 13 -22 14
-39 5z"/>
<path fill="#000000" stroke="none" d="M112 121 c2 -7 7 -12 11 -12 12 1 9 15
-3 20 -7 2 -11 -2 -8 -8z"/>
<path fill="#000000" stroke="none" d="M30 90 c0 -4 -2 -14 -5 -22 -7 -17 29
-40 50 -32 17 7 20 39 5 49 -17 11 -50 14 -50 5z"/>
<path fill="#000000" stroke="none" d="M304 55 c3 -9 -3 -24 -14 -35 -20 -20
-20 -20 5 -20 22 0 25 4 25 35 0 19 -5 35 -11 35 -6 0 -9 -7 -5 -15z"/>
<path fill="#000000" stroke="none" d="M106 15 c-4 -11 1 -15 19 -15 18 0 23
4 19 15 -8 19 -30 19 -38 0z"/>
<path fill="#000000" stroke="none" d="M170 15 c-11 -13 -7 -15 30 -15 37 0
41 2 30 15 -16 19 -44 19 -60 0z"/>
</g>
</svg>
