<?xml version="1.0" standalone="no"?>
<!DOCTYPE svg PUBLIC "-//W3C//DTD SVG 20010904//EN"
 "http://www.w3.org/TR/2001/REC-SVG-20010904/DTD/svg10.dtd">
<svg version="1.0" xmlns="http://www.w3.org/2000/svg"
 width="32.000000pt" height="32.000000pt" viewBox="0 0 32.000000 32.000000"
 preserveAspectRatio="xMidYMid meet">
<metadata>
Created by potrace 1.16, written by Peter Selinger 2001-2019
</metadata>
<g transform="translate(0.000000,32.000000) scale(0.100000,-0.100000)"
fill="#000000" stroke="none">
<path fill="#000000" stroke="none" d="M0 159 l0 -159 30 0 c32 0 37 8 18 30
-7 8 -1 5 13 -8 22 -19 37 -22 106 -22 64 0 82 3 87 16 3 8 11 12 17 8 8 -4 7
-9 -2 -15 -10 -6 -4 -9 19 -9 l32 0 0 159 0 159 -160 0 -160 0 0 -159z"/>
<path fill="#ffffff" stroke="none" d="M60 296 c-6 -9 -19 -12 -28 -8 -17 6
-14 7 37 21 2 1 -2 -5 -9 -13z"/>
<path fill="#ffffff" stroke="none" d="M279 266 c-2 -27 -2 -28 -6 -6 -3 14
-10 31 -15 38 -8 9 -7 11 6 6 10 -4 16 -17 15 -38z"/>
<path fill="#ffffff" stroke="none" d="M220 215 c0 -10 -10 -15 -27 -15 l-28
0 25 14 c14 8 26 14 28 15 1 1 2 -6 2 -14z"/>
<path fill="#ffffff" stroke="none" d="M47 198 c-3 -8 -6 -5 -6 6 -1 11 2 17
5 13 3 -3 4 -12 1 -19z"/>
<path fill="#ffffff" stroke="none" d="M277 158 c-3 -7 -5 -2 -5 12 0 14 2 19
5 13 2 -7 2 -19 0 -25z"/>
<path fill="#ffffff" stroke="none" d="M140 155 c0 -8 -2 -15 -4 -15 -2 0 -6
7 -10 15 -3 8 -1 15 4 15 6 0 10 -7 10 -15z"/>
<path fill="#ffffff" stroke="none" d="M47 88 c-3 -8 -6 -5 -6 6 -1 11 2 17 5
13 3 -3 4 -12 1 -19z"/>
<path fill="#ffffff" stroke="none" d="M280 100 c0 -5 -5 -10 -11 -10 -5 0 -7
5 -4 10 3 6 8 10 11 10 2 0 4 -4 4 -10z"/>
<path fill="#ffffff" stroke="none" d="M280 54 c0 -8 -5 -12 -10 -9 -6 4 -8
11 -5 16 9 14 15 11 15 -7z"/>
</g>
</svg>
