<?xml version="1.0" standalone="no"?>
<!DOCTYPE svg PUBLIC "-//W3C//DTD SVG 20010904//EN"
 "http://www.w3.org/TR/2001/REC-SVG-20010904/DTD/svg10.dtd">
<svg version="1.0" xmlns="http://www.w3.org/2000/svg"
 width="32.000000pt" height="32.000000pt" viewBox="0 0 32.000000 32.000000"
 preserveAspectRatio="xMidYMid meet">
<metadata>
Created by potrace 1.16, written by Peter Selinger 2001-2019
</metadata>
<g transform="translate(0.000000,32.000000) scale(0.100000,-0.100000)"
fill="#000000" stroke="none">
<path fill="#000000" stroke="none" d="M0 160 l0 -160 160 0 160 0 0 160 0
160 -160 0 -160 0 0 -160z"/>
<path fill="#ffffff" stroke="none" d="M136 293 c12 -17 13 -17 19 0 8 20 50
23 59 5 5 -10 7 -10 12 0 9 19 42 15 40 -5 0 -12 7 -19 22 -21 16 -3 22 -10
22 -28 0 -14 -4 -23 -9 -20 -16 11 -23 -28 -7 -40 17 -12 22 -29 6 -19 -6 3
-10 1 -10 -4 0 -6 5 -11 10 -11 6 0 10 -22 10 -49 0 -36 -4 -51 -16 -55 -13
-5 -14 -9 -4 -21 11 -13 7 -15 -21 -15 -37 1 -73 22 -61 36 4 5 -5 -2 -20 -15
l-28 -24 -25 23 -25 23 0 -21 c0 -16 -6 -22 -21 -22 -19 0 -20 2 -8 18 13 16
13 16 -5 2 -28 -22 -66 -20 -66 3 0 16 3 17 15 7 12 -10 18 -10 30 0 19 16 19
34 0 50 -12 10 -18 10 -30 0 -13 -11 -15 -9 -15 13 0 14 7 27 15 31 8 3 15 15
15 26 0 11 -7 20 -15 20 -11 0 -15 12 -15 44 0 25 5 48 11 51 6 4 8 13 5 21
-9 22 93 19 110 -3z"/>
<path fill="#000000" stroke="none" d="M63 286 c-30 -14 -42 -44 -29 -73 13
-28 30 -35 62 -27 49 12 55 69 11 96 -16 10 -28 11 -44 4z"/>
<path fill="#000000" stroke="none" d="M174 286 c-9 -23 7 -38 26 -26 13 8 13
11 -2 26 -16 17 -18 17 -24 0z"/>
<path fill="#000000" stroke="none" d="M235 259 c-10 -15 3 -25 16 -12 7 7 7
13 1 17 -6 3 -14 1 -17 -5z"/>
<path fill="#000000" stroke="none" d="M200 231 c0 -5 -9 -12 -19 -16 -24 -7
-17 -32 11 -41 26 -8 43 9 33 33 -5 10 -7 21 -7 26 1 4 -2 7 -8 7 -5 0 -10 -4
-10 -9z"/>
<path fill="#000000" stroke="none" d="M127 161 c3 -11 1 -21 -5 -21 -6 0 -9
-8 -8 -17 2 -10 7 -17 12 -15 5 2 8 10 6 18 -2 9 6 18 17 21 12 3 21 10 21 15
0 6 -6 8 -14 5 -7 -3 -18 -1 -24 5 -8 8 -9 5 -5 -11z"/>
<path fill="#000000" stroke="none" d="M245 149 c-8 -25 7 -44 29 -36 22 9 20
34 -3 47 -16 8 -21 6 -26 -11z"/>
<path fill="#000000" stroke="none" d="M66 151 c-4 -5 -2 -12 3 -15 5 -4 12
-2 15 3 4 5 2 12 -3 15 -5 4 -12 2 -15 -3z"/>
<path fill="#000000" stroke="none" d="M190 110 c0 -5 5 -10 10 -10 6 0 10 5
10 10 0 6 -4 10 -10 10 -5 0 -10 -4 -10 -10z"/>
<path fill="#000000" stroke="none" d="M165 80 c-4 -6 -3 -16 3 -22 6 -6 12
-6 17 2 4 6 3 16 -3 22 -6 6 -12 6 -17 -2z"/>
<path fill="#000000" stroke="none" d="M110 70 c-9 -6 -10 -10 -3 -10 6 0 15
5 18 10 8 12 4 12 -15 0z"/>
<path fill="#000000" stroke="none" d="M236 71 c-3 -5 1 -11 9 -15 15 -6 29 7
18 18 -9 9 -21 8 -27 -3z"/>
</g>
</svg>
