<?xml version="1.0" standalone="no"?>
<!DOCTYPE svg PUBLIC "-//W3C//DTD SVG 20010904//EN"
 "http://www.w3.org/TR/2001/REC-SVG-20010904/DTD/svg10.dtd">
<svg version="1.0" xmlns="http://www.w3.org/2000/svg"
 width="32.000000pt" height="32.000000pt" viewBox="0 0 32.000000 32.000000"
 preserveAspectRatio="xMidYMid meet">
<metadata>
Created by potrace 1.16, written by Peter Selinger 2001-2019
</metadata>
<g transform="translate(0.000000,32.000000) scale(0.100000,-0.100000)"
fill="#000000" stroke="none">
<path fill="#000000" stroke="none" d="M10 160 l0 -150 150 0 150 0 0 150 0
150 -150 0 -150 0 0 -150z"/>
<path fill="#ffffff" stroke="none" d="M70 280 c0 -5 -8 -11 -17 -11 -17 -1
-17 -2 0 -6 9 -2 17 -13 17 -24 0 -11 3 -18 8 -15 4 2 16 -2 27 -11 19 -14 19
-15 -5 -13 -44 4 -57 0 -57 -15 0 -11 4 -12 11 -5 5 5 25 10 43 10 19 0 33 5
34 13 0 6 2 19 3 27 2 8 0 24 -5 35 -6 17 -8 15 -8 -10 -1 -22 -4 -26 -10 -15
-6 8 -7 18 -5 22 3 4 -2 8 -10 8 -9 0 -16 5 -16 10 0 6 18 10 41 10 40 0 41
-1 37 -32 -2 -18 -1 -46 3 -63 l7 -30 2 30 c1 17 2 34 1 38 -1 5 3 6 9 2 6 -3
23 0 39 8 22 11 33 12 42 3 10 -9 11 -8 1 5 -9 12 -9 18 0 27 21 21 30 13 24
-25 -3 -21 -5 -41 -6 -44 0 -3 -16 -6 -36 -7 -50 -2 -57 -12 -9 -12 31 0 36
-2 25 -14 -6 -8 -30 -16 -53 -18 -42 -3 -42 -3 -45 -46 -2 -30 -7 -40 -15 -35
-9 5 -9 3 0 -8 10 -13 10 -16 -3 -16 -9 0 -14 8 -13 21 2 37 -1 45 -21 51 -27
9 -16 25 18 26 17 1 21 3 9 6 -9 2 -14 9 -11 15 4 6 -3 5 -15 -2 -18 -9 -26
-9 -39 2 -13 11 -14 11 -8 0 6 -10 3 -13 -10 -10 -16 3 -20 14 -22 66 -3 57
-1 62 18 62 11 0 20 -4 20 -10z"/>
<path fill="#ffffff" stroke="none" d="M251 277 c-6 -6 -17 -12 -25 -13 -7 -1
-23 -5 -35 -9 -20 -6 -21 -5 -10 13 9 14 23 20 47 20 24 0 31 -3 23 -11z"/>
<path fill="#ffffff" stroke="none" d="M260 130 c0 -11 -6 -20 -14 -20 -8 0
-17 -7 -20 -16 -4 -9 -9 -14 -13 -11 -3 4 -12 2 -20 -5 -7 -6 -16 -8 -20 -4
-3 3 0 6 8 6 10 0 11 3 2 8 -16 10 8 41 37 47 13 2 25 7 28 10 9 9 12 6 12
-15z"/>
<path fill="#ffffff" stroke="none" d="M290 136 c0 -23 -16 -27 -17 -5 -1 10
2 19 8 19 5 0 9 -6 9 -14z"/>
<path fill="#ffffff" stroke="none" d="M50 89 c0 -16 -4 -29 -10 -29 -5 0 -10
16 -10 36 0 21 4 33 10 29 6 -3 10 -19 10 -36z"/>
<path fill="#ffffff" stroke="none" d="M120 99 c0 -9 -40 -39 -52 -39 -17 0
-8 49 10 52 21 5 42 -1 42 -13z"/>
<path fill="#ffffff" stroke="none" d="M290 59 c0 -31 -2 -32 -48 -23 l-31 6
22 18 c16 13 24 15 29 7 5 -7 8 -3 8 11 0 13 4 20 10 17 6 -3 10 -19 10 -36z"/>
<path fill="#ffffff" stroke="none" d="M50 40 c0 -5 -4 -10 -10 -10 -5 0 -10
5 -10 10 0 6 5 10 10 10 6 0 10 -4 10 -10z"/>
<path fill="#ffffff" stroke="none" d="M105 40 c-28 -12 -45 -12 -45 0 0 6 15
10 33 9 27 0 29 -2 12 -9z"/>
<path fill="#ffffff" stroke="none" d="M200 34 c0 -2 -7 -4 -15 -4 -8 0 -15 4
-15 10 0 5 7 7 15 4 8 -4 15 -8 15 -10z"/>
<path fill="#000000" stroke="none" d="M86 102 c-3 -5 1 -9 9 -9 8 0 12 4 9 9
-3 4 -7 8 -9 8 -2 0 -6 -4 -9 -8z"/>
</g>
</svg>
