<?xml version="1.0" standalone="no"?>
<!DOCTYPE svg PUBLIC "-//W3C//DTD SVG 20010904//EN"
 "http://www.w3.org/TR/2001/REC-SVG-20010904/DTD/svg10.dtd">
<svg version="1.0" xmlns="http://www.w3.org/2000/svg"
 width="32.000000pt" height="32.000000pt" viewBox="0 0 32.000000 32.000000"
 preserveAspectRatio="xMidYMid meet">
<metadata>
Created by potrace 1.16, written by Peter Selinger 2001-2019
</metadata>
<g transform="translate(0.000000,32.000000) scale(0.100000,-0.100000)"
fill="#000000" stroke="none">
<path fill="#000000" stroke="none" d="M0 165 l0 -155 31 0 c17 0 39 5 49 10
13 7 21 7 25 0 8 -13 82 -13 90 0 4 7 11 8 18 1 7 -5 30 -8 52 -7 34 1 41 5
43 24 2 13 -2 29 -8 37 -7 9 -8 15 0 20 13 8 13 72 0 80 -6 4 -7 12 -3 18 11
17 12 78 2 71 -5 -3 -6 -10 -3 -16 4 -7 2 -8 -5 -4 -9 6 -9 11 1 23 6 8 13 24
15 34 3 18 -5 19 -152 19 l-155 0 0 -155z"/>
<path fill="#ffffff" stroke="none" d="M270 209 c-6 -10 -13 -19 -16 -19 -2 0
0 8 5 19 6 10 7 22 3 26 -4 5 -1 5 6 1 9 -5 9 -12 2 -27z"/>
<path fill="#ffffff" stroke="none" d="M250 34 c0 -8 -19 -13 -24 -6 -3 5 1 9
9 9 8 0 15 -2 15 -3z"/>
</g>
</svg>
