<?xml version="1.0" standalone="no"?>
<!DOCTYPE svg PUBLIC "-//W3C//DTD SVG 20010904//EN"
 "http://www.w3.org/TR/2001/REC-SVG-20010904/DTD/svg10.dtd">
<svg version="1.0" xmlns="http://www.w3.org/2000/svg"
 width="32.000000pt" height="32.000000pt" viewBox="0 0 32.000000 32.000000"
 preserveAspectRatio="xMidYMid meet">
<metadata>
Created by potrace 1.16, written by Peter Selinger 2001-2019
</metadata>
<g transform="translate(0.000000,32.000000) scale(0.100000,-0.100000)"
fill="#000000" stroke="none">
<path fill="#000000" stroke="none" d="M50 299 c0 -5 -5 -8 -11 -6 -6 1 -13
-8 -15 -20 -3 -18 2 -22 29 -26 l32 -4 -31 -1 c-18 -1 -34 -9 -38 -17 -3 -8
-1 -15 5 -15 6 0 8 -4 4 -9 -3 -5 -1 -13 5 -16 6 -4 9 -1 8 7 -4 16 50 24 65
9 6 -6 15 -11 20 -11 5 0 2 7 -7 15 -8 8 -22 15 -31 15 -15 0 -15 2 1 17 13
14 18 15 22 5 3 -10 8 -8 18 5 17 23 18 53 2 54 -66 6 -78 6 -78 -2z"/>
<path fill="#000000" stroke="none" d="M190 295 c0 -8 5 -15 10 -15 6 0 10 7
10 15 0 8 -4 15 -10 15 -5 0 -10 -7 -10 -15z"/>
<path fill="#000000" stroke="none" d="M148 277 c-4 -20 -1 -23 19 -19 16 3
22 9 19 19 -3 8 -6 17 -6 19 0 2 -6 4 -14 4 -7 0 -16 -10 -18 -23z"/>
<path fill="#000000" stroke="none" d="M216 284 c-9 -23 -8 -24 17 -24 18 0
19 -2 7 -10 -11 -7 -7 -10 18 -10 28 0 32 3 32 25 0 14 -3 26 -7 26 -49 7 -62
6 -67 -7z"/>
<path fill="#000000" stroke="none" d="M196 233 c-6 -14 -5 -15 5 -6 7 7 10
15 7 18 -3 3 -9 -2 -12 -12z"/>
<path fill="#000000" stroke="none" d="M26 114 c-9 -24 -7 -34 7 -34 23 0 38
22 26 37 -15 17 -26 16 -33 -3z"/>
<path fill="#000000" stroke="none" d="M156 123 c5 -5 12 -12 16 -18 4 -6 8
-2 8 8 0 9 -7 17 -17 17 -9 0 -12 -3 -7 -7z"/>
<path fill="#000000" stroke="none" d="M191 113 c0 -11 3 -13 6 -5 2 6 10 9
15 6 7 -4 8 -2 4 4 -11 18 -26 14 -25 -5z"/>
<path fill="#000000" stroke="none" d="M35 50 c20 -22 31 -20 22 5 -4 8 -14
15 -23 15 -16 0 -16 -2 1 -20z"/>
<path fill="#000000" stroke="none" d="M71 48 c-1 -20 24 -24 35 -6 5 7 2 9
-9 5 -9 -3 -18 -1 -21 6 -2 7 -5 4 -5 -5z"/>
</g>
</svg>
