<?xml version="1.0" standalone="no"?>
<!DOCTYPE svg PUBLIC "-//W3C//DTD SVG 20010904//EN"
 "http://www.w3.org/TR/2001/REC-SVG-20010904/DTD/svg10.dtd">
<svg version="1.0" xmlns="http://www.w3.org/2000/svg"
 width="32.000000pt" height="32.000000pt" viewBox="0 0 32.000000 32.000000"
 preserveAspectRatio="xMidYMid meet">
<metadata>
Created by potrace 1.16, written by Peter Selinger 2001-2019
</metadata>
<g transform="translate(0.000000,32.000000) scale(0.100000,-0.100000)"
fill="#000000" stroke="none">
<path fill="#000000" stroke="none" d="M180 290 c0 -13 11 -13 30 0 12 8 11
10 -7 10 -13 0 -23 -4 -23 -10z"/>
<path fill="#000000" stroke="none" d="M41 276 c-8 -9 -11 -19 -7 -23 9 -9 29
13 24 27 -2 8 -8 7 -17 -4z"/>
<path fill="#000000" stroke="none" d="M70 273 c0 -10 4 -14 8 -8 4 6 14 10
22 10 8 0 18 -4 22 -10 4 -6 8 -2 8 8 0 12 -8 17 -30 17 -22 0 -30 -5 -30 -17z"/>
<path fill="#000000" stroke="none" d="M140 273 c0 -10 4 -14 8 -8 4 6 11 13
16 18 5 4 2 7 -7 7 -10 0 -17 -8 -17 -17z"/>
<path fill="#000000" stroke="none" d="M238 283 c7 -3 16 -2 19 1 4 3 -2 6
-13 5 -11 0 -14 -3 -6 -6z"/>
<path fill="#000000" stroke="none" d="M30 228 c0 -9 5 -20 10 -23 13 -8 13 5
0 25 -8 13 -10 13 -10 -2z"/>
<path fill="#000000" stroke="none" d="M60 198 c0 -10 27 -10 34 0 2 4 -4 8
-15 8 -10 0 -19 -4 -19 -8z"/>
<path fill="#000000" stroke="none" d="M42 118 c-7 -7 -12 -17 -12 -22 0 -7 3
-7 8 0 4 6 21 16 37 22 29 10 29 10 5 11 -15 1 -31 -4 -38 -11z"/>
</g>
</svg>
