<?xml version="1.0" standalone="no"?>
<!DOCTYPE svg PUBLIC "-//W3C//DTD SVG 20010904//EN"
 "http://www.w3.org/TR/2001/REC-SVG-20010904/DTD/svg10.dtd">
<svg version="1.0" xmlns="http://www.w3.org/2000/svg"
 width="32.000000pt" height="32.000000pt" viewBox="0 0 32.000000 32.000000"
 preserveAspectRatio="xMidYMid meet">
<metadata>
Created by potrace 1.16, written by Peter Selinger 2001-2019
</metadata>
<g transform="translate(0.000000,32.000000) scale(0.100000,-0.100000)"
fill="#000000" stroke="none">
<path fill="#000000" stroke="none" d="M21 294 c-11 -13 -11 -20 -1 -39 7 -13
10 -31 7 -39 -4 -9 -2 -28 4 -42 7 -20 6 -32 -6 -50 -19 -30 -19 -70 1 -78 8
-3 12 -10 9 -16 -9 -14 41 -12 66 2 17 11 22 10 31 -6 8 -14 12 -15 18 -5 7
10 12 10 26 -2 13 -11 18 -11 21 -1 5 14 49 16 58 2 3 -6 16 -10 28 -10 21 0
23 5 22 53 -1 29 -6 51 -12 50 -5 -1 -10 4 -10 12 0 7 7 11 15 7 12 -4 14 2
10 36 -4 26 -2 43 6 47 6 3 -3 3 -21 0 -27 -4 -31 -2 -26 13 3 9 14 25 25 35
23 22 26 56 3 37 -11 -9 -22 -9 -46 -1 -18 6 -44 11 -60 11 -22 0 -29 -6 -34
-29 -3 -15 -5 -34 -3 -42 2 -9 -6 -14 -22 -15 -16 0 -24 -5 -22 -15 11 -43 10
-46 -11 -44 -12 1 -28 3 -34 4 -26 2 -13 38 20 52 38 17 42 41 7 49 -17 4 -21
8 -12 14 21 13 13 26 -15 26 -16 -1 -34 -8 -42 -16z"/>
<path fill="#ffffff" stroke="none" d="M251 255 c1 -17 -18 -17 -25 0 -4 11
-1 15 10 13 8 -2 15 -7 15 -13z"/>
<path fill="#ffffff" stroke="none" d="M220 217 c0 4 5 1 10 -7 7 -11 4 -20
-13 -32 l-22 -18 23 0 c16 0 26 7 29 20 8 29 22 14 17 -18 -3 -15 -6 -36 -7
-47 -1 -11 -6 -25 -10 -32 -11 -17 -91 -27 -114 -14 -12 7 -13 10 -4 11 11 0
11 4 -2 18 -10 10 -17 23 -17 28 0 5 7 0 15 -10 13 -17 15 -18 15 -3 0 9 11
19 25 23 14 3 25 9 25 13 0 3 3 16 6 29 4 14 2 22 -4 20 -5 -2 -10 0 -11 5 -3
24 0 27 19 17 11 -6 20 -7 20 -3z"/>
<path fill="#ffffff" stroke="none" d="M170 155 c-7 -8 -16 -12 -21 -9 -5 3
-9 0 -9 -6 0 -6 -5 -8 -11 -4 -6 4 1 13 18 24 32 20 42 18 23 -5z"/>
<path fill="#ffffff" stroke="none" d="M80 140 c0 -5 -4 -10 -10 -10 -5 0 -10
5 -10 10 0 6 5 10 10 10 6 0 10 -4 10 -10z"/>
<path fill="#ffffff" stroke="none" d="M50 110 c0 -5 -5 -10 -11 -10 -5 0 -7
5 -4 10 3 6 8 10 11 10 2 0 4 -4 4 -10z"/>
<path fill="#ffffff" stroke="none" d="M95 69 c8 -24 7 -24 -22 -33 -29 -9
-39 11 -17 35 22 24 31 24 39 -2z"/>
</g>
</svg>
