<?xml version="1.0" standalone="no"?>
<!DOCTYPE svg PUBLIC "-//W3C//DTD SVG 20010904//EN"
 "http://www.w3.org/TR/2001/REC-SVG-20010904/DTD/svg10.dtd">
<svg version="1.0" xmlns="http://www.w3.org/2000/svg"
 width="32.000000pt" height="32.000000pt" viewBox="0 0 32.000000 32.000000"
 preserveAspectRatio="xMidYMid meet">
<metadata>
Created by potrace 1.16, written by Peter Selinger 2001-2019
</metadata>
<g transform="translate(0.000000,32.000000) scale(0.100000,-0.100000)"
fill="#000000" stroke="none">
<path fill="#000000" stroke="none" d="M0 295 c0 -8 7 -15 15 -15 8 0 15 7 15
15 0 8 -7 15 -15 15 -8 0 -15 -7 -15 -15z"/>
<path fill="#000000" stroke="none" d="M50 292 c0 -10 -11 -29 -25 -42 -14
-13 -25 -34 -25 -48 0 -23 2 -23 58 -20 49 3 57 6 54 22 -4 20 44 76 65 76 7
0 13 7 13 15 0 12 -14 15 -70 15 -61 0 -70 -2 -70 -18z"/>
<path fill="#ffffff" stroke="none" d="M90 280 c0 -5 -4 -10 -10 -10 -5 0 -10
5 -10 10 0 6 5 10 10 10 6 0 10 -4 10 -10z"/>
<path fill="#ffffff" stroke="none" d="M90 200 c0 -5 -4 -10 -10 -10 -5 0 -10
5 -10 10 0 6 5 10 10 10 6 0 10 -4 10 -10z"/>
<path fill="#000000" stroke="none" d="M210 294 c0 -9 -18 -36 -40 -62 -22
-25 -38 -48 -34 -51 3 -3 30 -6 59 -6 47 0 56 3 67 24 7 14 23 36 36 49 12 14
22 33 22 43 0 16 -8 19 -55 19 -44 0 -55 -3 -55 -16z"/>
<path fill="#ffffff" stroke="none" d="M250 280 c0 -5 -4 -10 -10 -10 -5 0
-10 5 -10 10 0 6 5 10 10 10 6 0 10 -4 10 -10z"/>
<path fill="#ffffff" stroke="none" d="M250 200 c0 -5 -4 -10 -10 -10 -5 0
-10 5 -10 10 0 6 5 10 10 10 6 0 10 -4 10 -10z"/>
<path fill="#000000" stroke="none" d="M305 210 c-4 -6 -11 -8 -16 -5 -5 3 -6
-1 -3 -9 9 -23 34 -20 34 4 0 22 -5 26 -15 10z"/>
<path fill="#000000" stroke="none" d="M0 136 c0 -7 8 -16 19 -19 14 -3 17 0
14 14 -6 22 -33 26 -33 5z"/>
<path fill="#000000" stroke="none" d="M50 132 c0 -10 -11 -29 -25 -42 -14
-13 -25 -34 -25 -47 0 -22 3 -24 47 -21 41 3 50 7 61 31 7 15 29 38 48 50 54
35 44 47 -36 47 -61 0 -70 -2 -70 -18z"/>
<path fill="#ffffff" stroke="none" d="M90 120 c0 -5 -4 -10 -10 -10 -5 0 -10
5 -10 10 0 6 5 10 10 10 6 0 10 -4 10 -10z"/>
<path fill="#ffffff" stroke="none" d="M90 40 c0 -5 -4 -10 -10 -10 -5 0 -10
5 -10 10 0 6 5 10 10 10 6 0 10 -4 10 -10z"/>
<path fill="#000000" stroke="none" d="M210 140 c0 -20 -3 -26 -36 -64 -40
-47 -42 -56 -11 -57 12 -1 39 -2 59 -3 33 -2 38 0 43 24 3 15 17 38 31 50 13
13 24 32 24 42 0 15 -8 18 -55 18 -30 0 -55 -4 -55 -10z"/>
<path fill="#ffffff" stroke="none" d="M250 120 c0 -5 -4 -10 -10 -10 -5 0
-10 5 -10 10 0 6 5 10 10 10 6 0 10 -4 10 -10z"/>
<path fill="#ffffff" stroke="none" d="M250 40 c0 -5 -4 -10 -10 -10 -5 0 -10
5 -10 10 0 6 5 10 10 10 6 0 10 -4 10 -10z"/>
<path fill="#000000" stroke="none" d="M302 48 c-16 -16 -15 -28 3 -28 8 0 15
9 15 20 0 23 -2 24 -18 8z"/>
</g>
</svg>
