<?xml version="1.0" standalone="no"?>
<!DOCTYPE svg PUBLIC "-//W3C//DTD SVG 20010904//EN"
 "http://www.w3.org/TR/2001/REC-SVG-20010904/DTD/svg10.dtd">
<svg version="1.0" xmlns="http://www.w3.org/2000/svg"
 width="32.000000pt" height="32.000000pt" viewBox="0 0 32.000000 32.000000"
 preserveAspectRatio="xMidYMid meet">
<metadata>
Created by potrace 1.16, written by Peter Selinger 2001-2019
</metadata>
<g transform="translate(0.000000,32.000000) scale(0.100000,-0.100000)"
fill="#000000" stroke="none">
<path fill="#000000" stroke="none" d="M0 162 c1 -145 2 -155 16 -132 8 14 13
17 10 8 -4 -12 -1 -15 11 -11 14 5 13 9 -5 24 -21 17 -31 36 -13 25 5 -3 7 8
6 24 -2 20 2 30 11 30 8 0 14 5 14 11 0 5 4 8 9 5 5 -3 8 2 7 12 0 10 5 16 14
14 8 -2 11 0 7 4 -10 10 -37 14 -36 6 3 -19 -2 -30 -15 -35 -24 -10 -10 31 24
70 17 19 29 41 26 49 -6 14 9 27 34 29 8 1 25 5 37 9 13 4 24 2 29 -5 5 -8 3
-9 -6 -4 -9 5 -11 4 -6 -3 5 -8 13 -9 24 -3 9 5 22 10 27 11 6 2 15 4 20 6 6
2 24 5 40 7 17 2 -41 4 -127 5 l-158 1 0 -157z"/>
<path fill="#ffffff" stroke="none" d="M29 303 c-3 -19 3 -21 28 -8 33 17 42
11 20 -13 -19 -21 -23 -37 -6 -26 7 4 7 -1 -1 -16 -6 -12 -18 -19 -25 -16 -10
3 -12 0 -8 -11 4 -11 2 -14 -5 -9 -6 4 -11 17 -11 29 0 12 -2 31 -4 42 -4 19
0 35 9 35 2 0 3 -3 3 -7z"/>
<path fill="#000000" stroke="none" d="M45 280 c-4 -6 -12 -7 -18 -3 -7 4 -5
-2 3 -13 22 -29 24 -30 17 -13 -3 9 0 22 6 28 6 6 8 11 5 11 -4 0 -10 -5 -13
-10z"/>
<path fill="#000000" stroke="none" d="M209 286 c-1 -3 -3 -10 -4 -16 -1 -5
-3 -17 -4 -26 0 -8 -5 -13 -10 -10 -5 4 -8 -6 -6 -20 2 -22 -4 -29 -34 -41
-20 -8 -48 -24 -63 -35 -16 -11 -28 -16 -28 -12 0 3 -7 1 -15 -6 -14 -11 -13
-14 2 -25 10 -7 33 -16 52 -20 24 -5 30 -10 20 -16 -9 -6 -10 -9 -2 -9 6 0 14
4 18 10 8 13 78 31 85 22 10 -15 60 -42 60 -33 0 5 -11 16 -25 25 -35 23 -31
40 11 55 33 12 34 14 17 27 -10 7 -26 14 -35 14 -9 0 -23 7 -32 15 -13 13 -13
20 -1 55 8 24 10 42 4 45 -5 4 -10 4 -10 1z"/>
<path fill="#ffffff" stroke="none" d="M250 144 c0 -8 -5 -12 -10 -9 -14 9
-51 -4 -44 -16 3 -5 11 -7 17 -3 7 3 4 -1 -6 -10 -20 -16 -135 -18 -140 -2 -3
11 119 54 156 55 18 1 27 -4 27 -15z"/>
<path fill="#000000" stroke="none" d="M154 266 c1 -8 5 -18 8 -22 4 -3 5 1 4
10 -1 8 -5 18 -8 22 -4 3 -5 -1 -4 -10z"/>
<path fill="#000000" stroke="none" d="M116 248 c3 -5 10 -6 15 -3 13 9 11 12
-6 12 -8 0 -12 -4 -9 -9z"/>
<path fill="#000000" stroke="none" d="M278 228 c-10 -10 -14 -18 -9 -18 10 0
36 29 30 34 -2 1 -12 -6 -21 -16z"/>
<path fill="#000000" stroke="none" d="M161 217 c-1 -10 -11 -22 -23 -27 l-23
-9 23 0 c24 -1 38 19 29 41 -3 8 -6 6 -6 -5z"/>
<path fill="#000000" stroke="none" d="M46 58 c2 -4 14 -5 26 -3 32 7 32 13
-1 11 -16 0 -27 -4 -25 -8z"/>
<path fill="#000000" stroke="none" d="M176 29 c-11 -11 -15 -19 -9 -19 12 0
38 28 32 34 -2 2 -13 -5 -23 -15z"/>
</g>
</svg>
