<?xml version="1.0" standalone="no"?>
<!DOCTYPE svg PUBLIC "-//W3C//DTD SVG 20010904//EN"
 "http://www.w3.org/TR/2001/REC-SVG-20010904/DTD/svg10.dtd">
<svg version="1.0" xmlns="http://www.w3.org/2000/svg"
 width="32.000000pt" height="32.000000pt" viewBox="0 0 32.000000 32.000000"
 preserveAspectRatio="xMidYMid meet">
<metadata>
Created by potrace 1.16, written by Peter Selinger 2001-2019
</metadata>
<g transform="translate(0.000000,32.000000) scale(0.100000,-0.100000)"
fill="#000000" stroke="none">
<path fill="#000000" stroke="none" d="M0 160 l0 -160 160 0 160 0 0 160 0
160 -160 0 -160 0 0 -160z"/>
<path fill="#ffffff" stroke="none" d="M110 280 c0 15 37 12 44 -2 5 -10 7
-10 12 0 7 15 44 16 44 2 0 -7 7 -7 21 0 16 9 25 8 40 -6 12 -11 17 -24 13
-33 -4 -9 -6 -27 -5 -40 2 -35 -8 -20 -13 18 -2 17 -6 34 -9 38 -4 3 -47 6
-98 6 -92 0 -116 -9 -104 -40 6 -16 -4 -43 -16 -43 -14 0 -7 80 8 96 10 9 21
11 38 4 16 -6 25 -6 25 0z"/>
<path fill="#ffffff" stroke="none" d="M54 125 c3 -8 3 -21 0 -29 -3 -7 2 -21
11 -30 9 -9 11 -16 5 -16 -6 0 -8 -6 -4 -12 4 -7 -1 -5 -12 4 -13 11 -21 32
-22 58 -3 39 10 54 22 25z"/>
<path fill="#000000" stroke="none" d="M258 262 c9 -10 19 -17 21 -16 6 5 -20
34 -30 34 -5 0 -1 -8 9 -18z"/>
</g>
</svg>
