<?xml version="1.0" standalone="no"?>
<!DOCTYPE svg PUBLIC "-//W3C//DTD SVG 20010904//EN"
 "http://www.w3.org/TR/2001/REC-SVG-20010904/DTD/svg10.dtd">
<svg version="1.0" xmlns="http://www.w3.org/2000/svg"
 width="32.000000pt" height="32.000000pt" viewBox="0 0 32.000000 32.000000"
 preserveAspectRatio="xMidYMid meet">
<metadata>
Created by potrace 1.16, written by Peter Selinger 2001-2019
</metadata>
<g transform="translate(0.000000,32.000000) scale(0.100000,-0.100000)"
fill="#000000" stroke="none">
<path fill="#000000" stroke="none" d="M0 160 l0 -160 160 0 160 0 0 160 0
160 -160 0 -160 0 0 -160z"/>
<path fill="#ffffff" stroke="none" d="M308 160 l2 -150 -150 0 -150 0 0 150
0 150 148 0 148 0 2 -150z"/>
<path fill="#000000" stroke="none" d="M30 160 l0 -130 130 0 130 0 1 73 c1
39 2 97 2 127 l0 55 -131 3 -132 3 0 -131z"/>
<path fill="#ffffff" stroke="none" d="M269 260 c-7 -5 -19 -6 -26 -3 -11 5
-12 8 -2 13 7 5 19 6 26 3 11 -5 12 -8 2 -13z"/>
<path fill="#ffffff" stroke="none" d="M99 250 c-7 -5 -19 -6 -26 -3 -11 5
-12 8 -2 13 7 5 19 6 26 3 11 -5 12 -8 2 -13z"/>
<path fill="#ffffff" stroke="none" d="M99 50 c-7 -5 -19 -6 -26 -3 -11 5 -12
8 -2 13 7 5 19 6 26 3 11 -5 12 -8 2 -13z"/>
</g>
</svg>
