<?xml version="1.0" standalone="no"?>
<!DOCTYPE svg PUBLIC "-//W3C//DTD SVG 20010904//EN"
 "http://www.w3.org/TR/2001/REC-SVG-20010904/DTD/svg10.dtd">
<svg version="1.0" xmlns="http://www.w3.org/2000/svg"
 width="32.000000pt" height="32.000000pt" viewBox="0 0 32.000000 32.000000"
 preserveAspectRatio="xMidYMid meet">
<metadata>
Created by potrace 1.16, written by Peter Selinger 2001-2019
</metadata>
<g transform="translate(0.000000,32.000000) scale(0.100000,-0.100000)"
fill="#000000" stroke="none">
<path fill="#000000" stroke="none" d="M10 160 l0 -150 150 0 150 0 0 150 0
150 -150 0 -150 0 0 -150z"/>
<path fill="#ffffff" stroke="none" d="M97 273 c-16 -16 -18 -16 -34 0 -16 16
-15 17 17 17 32 0 33 -1 17 -17z"/>
<path fill="#ffffff" stroke="none" d="M184 267 c-3 -35 -4 -38 -16 -31 -9 6
-9 3 0 -9 16 -18 8 -37 -15 -37 -9 0 -13 6 -9 15 3 10 -1 19 -12 23 -27 11
-27 35 0 26 20 -6 21 -5 10 9 -10 12 -10 16 0 20 23 10 43 2 42 -16z"/>
<path fill="#ffffff" stroke="none" d="M234 279 c-2 -4 2 -10 8 -12 8 -4 9 -6
2 -6 -6 -1 -17 5 -23 12 -8 10 -7 14 4 14 8 0 12 -4 9 -8z"/>
<path fill="#ffffff" stroke="none" d="M50 235 c0 -8 -4 -15 -10 -15 -5 0 -10
7 -10 15 0 8 5 15 10 15 6 0 10 -7 10 -15z"/>
<path fill="#ffffff" stroke="none" d="M112 191 c18 -16 26 -47 8 -36 -5 3
-19 20 -32 37 -21 31 -13 30 24 -1z"/>
<path fill="#ffffff" stroke="none" d="M288 166 c3 -11 0 -16 -7 -12 -10 7
-16 -6 -12 -27 2 -10 -33 8 -47 25 -6 8 -9 24 -6 36 6 20 8 20 38 8 17 -7 33
-21 34 -30z"/>
<path fill="#ffffff" stroke="none" d="M100 165 c12 -14 11 -18 -1 -26 -10 -6
-11 -9 -1 -9 7 0 10 -5 7 -10 -4 -6 -11 -8 -16 -5 -5 4 -9 2 -9 -4 0 -5 -11 0
-25 13 -24 22 -36 54 -15 41 9 -6 14 8 11 28 -2 11 33 -9 49 -28z"/>
<path fill="#ffffff" stroke="none" d="M240 107 c0 -7 -12 1 -25 16 -14 15
-25 33 -25 40 0 7 12 -1 25 -16 14 -15 25 -33 25 -40z"/>
<path fill="#ffffff" stroke="none" d="M185 121 c3 -5 0 -13 -6 -17 -8 -4 -7
-9 2 -15 12 -8 12 -10 0 -18 -11 -7 -11 -10 0 -17 10 -6 7 -10 -11 -14 -35 -9
-42 -3 -25 24 14 21 14 25 0 36 -13 11 -13 15 -3 21 17 11 36 11 43 0z"/>
<path fill="#ffffff" stroke="none" d="M117 78 c-3 -8 -6 -5 -6 6 -1 11 2 17
5 13 3 -3 4 -12 1 -19z"/>
<path fill="#ffffff" stroke="none" d="M290 91 c0 -6 -4 -13 -10 -16 -5 -3
-10 1 -10 9 0 9 5 16 10 16 6 0 10 -4 10 -9z"/>
<path fill="#ffffff" stroke="none" d="M43 75 c-3 -9 -8 -14 -10 -11 -3 3 -2
9 2 15 9 16 15 13 8 -4z"/>
<path fill="#ffffff" stroke="none" d="M210 75 c0 -8 -4 -15 -10 -15 -5 0 -7
7 -4 15 4 8 8 15 10 15 2 0 4 -7 4 -15z"/>
<path fill="#ffffff" stroke="none" d="M99 47 c8 -10 7 -14 -2 -14 -8 0 -14 6
-14 14 0 7 1 13 2 13 2 0 8 -6 14 -13z"/>
<path fill="#ffffff" stroke="none" d="M260 45 c11 -13 8 -15 -20 -15 -28 0
-31 2 -20 15 7 8 16 15 20 15 4 0 13 -7 20 -15z"/>
<path fill="#ffffff" stroke="none" d="M70 40 c0 -5 -5 -10 -11 -10 -5 0 -7 5
-4 10 3 6 8 10 11 10 2 0 4 -4 4 -10z"/>
</g>
</svg>
