<?xml version="1.0" standalone="no"?>
<!DOCTYPE svg PUBLIC "-//W3C//DTD SVG 20010904//EN"
 "http://www.w3.org/TR/2001/REC-SVG-20010904/DTD/svg10.dtd">
<svg version="1.0" xmlns="http://www.w3.org/2000/svg"
 width="32.000000pt" height="32.000000pt" viewBox="0 0 32.000000 32.000000"
 preserveAspectRatio="xMidYMid meet">
<metadata>
Created by potrace 1.16, written by Peter Selinger 2001-2019
</metadata>
<g transform="translate(0.000000,32.000000) scale(0.100000,-0.100000)"
fill="#000000" stroke="none">
<path fill="#000000" stroke="none" d="M0 160 l0 -160 160 0 160 0 0 160 0
160 -160 0 -160 0 0 -160z"/>
<path fill="#ffffff" stroke="none" d="M305 300 c-3 -5 -62 -8 -135 -8 -71 1
-132 -1 -136 -5 -4 -3 -8 -65 -10 -138 -1 -72 -5 -134 -8 -137 -3 -3 -6 63 -6
146 l0 152 151 0 c93 0 148 -4 144 -10z"/>
<path fill="#ffffff" stroke="none" d="M259 250 c-7 -5 -19 -6 -26 -3 -11 5
-12 8 -2 13 7 5 19 6 26 3 11 -5 12 -8 2 -13z"/>
<path fill="#ffffff" stroke="none" d="M99 60 c-7 -5 -19 -6 -26 -3 -11 5 -12
8 -2 13 7 5 19 6 26 3 11 -5 12 -8 2 -13z"/>
<path fill="#ffffff" stroke="none" d="M269 50 c-7 -5 -19 -6 -26 -3 -11 5
-12 8 -2 13 7 5 19 6 26 3 11 -5 12 -8 2 -13z"/>
<path fill="#ffffff" stroke="none" d="M65 20 c-3 -5 -13 -10 -21 -10 -8 0
-12 5 -9 10 3 6 13 10 21 10 8 0 12 -4 9 -10z"/>
<path fill="#ffffff" stroke="none" d="M115 20 c-3 -5 -13 -10 -21 -10 -8 0
-12 5 -9 10 3 6 13 10 21 10 8 0 12 -4 9 -10z"/>
<path fill="#ffffff" stroke="none" d="M165 20 c-3 -5 -13 -10 -21 -10 -8 0
-12 5 -9 10 3 6 13 10 21 10 8 0 12 -4 9 -10z"/>
<path fill="#ffffff" stroke="none" d="M264 21 c-9 -9 -75 -10 -69 -1 3 5 21
8 39 7 19 -1 32 -4 30 -6z"/>
</g>
</svg>
