<?xml version="1.0" standalone="no"?>
<!DOCTYPE svg PUBLIC "-//W3C//DTD SVG 20010904//EN"
 "http://www.w3.org/TR/2001/REC-SVG-20010904/DTD/svg10.dtd">
<svg version="1.0" xmlns="http://www.w3.org/2000/svg"
 width="32.000000pt" height="32.000000pt" viewBox="0 0 32.000000 32.000000"
 preserveAspectRatio="xMidYMid meet">
<metadata>
Created by potrace 1.16, written by Peter Selinger 2001-2019
</metadata>
<g transform="translate(0.000000,32.000000) scale(0.100000,-0.100000)"
fill="#000000" stroke="none">
<path fill="#000000" stroke="none" d="M10 160 l0 -150 150 0 150 0 0 150 0
150 -150 0 -150 0 0 -150z"/>
<path fill="#ffffff" stroke="none" d="M290 264 c0 -30 -20 -32 -21 -1 l-2 22
-4 -22 c-2 -13 -12 -24 -21 -24 -15 -1 -15 -2 1 -6 10 -3 17 -14 17 -30 0 -23
-2 -24 -17 -12 -15 11 -16 11 -6 -1 10 -10 10 -17 1 -29 -10 -13 -10 -14 2 -4
11 10 17 10 29 0 14 -10 14 -10 3 5 -8 10 -9 19 -3 22 5 3 7 15 4 26 -3 11 0
20 6 20 7 0 11 -33 11 -100 l0 -100 -115 1 c-90 1 -115 5 -115 15 0 8 8 15 18
15 16 1 16 2 0 6 -10 2 -19 14 -19 26 -2 22 -2 22 -6 -1 -10 -50 -23 -17 -23
58 0 64 3 80 15 80 8 0 16 -10 16 -22 l2 -23 4 23 c2 12 12 23 21 23 15 1 15
2 0 6 -10 2 -19 14 -19 26 -2 22 -2 22 -6 0 -6 -31 -33 -30 -33 1 l0 24 130 0
130 0 0 -24z"/>
<path fill="#ffffff" stroke="none" d="M50 45 c0 -8 -4 -15 -10 -15 -5 0 -10
7 -10 15 0 8 5 15 10 15 6 0 10 -7 10 -15z"/>
<path fill="#000000" stroke="none" d="M106 272 c-3 -5 1 -9 9 -9 8 0 12 4 9
9 -3 4 -7 8 -9 8 -2 0 -6 -4 -9 -8z"/>
<path fill="#000000" stroke="none" d="M189 263 c-12 -16 -12 -17 2 -6 12 10
18 10 29 0 12 -10 12 -9 1 6 -7 9 -15 17 -16 17 -1 0 -9 -8 -16 -17z"/>
<path fill="#000000" stroke="none" d="M183 125 c0 -6 6 -12 12 -12 6 0 12 6
12 12 0 6 -6 12 -12 12 -6 0 -12 -6 -12 -12z"/>
<path fill="#000000" stroke="none" d="M90 118 c6 -8 5 -17 -3 -27 -10 -14
-10 -14 4 -4 10 8 19 9 27 3 9 -7 9 -7 2 2 -6 8 -5 17 3 27 10 14 10 14 -4 4
-10 -8 -19 -9 -27 -3 -9 7 -9 7 -2 -2z"/>
<path fill="#000000" stroke="none" d="M126 48 c3 -5 10 -6 15 -3 13 9 11 12
-6 12 -8 0 -12 -4 -9 -9z"/>
</g>
</svg>
