<?xml version="1.0" standalone="no"?>
<!DOCTYPE svg PUBLIC "-//W3C//DTD SVG 20010904//EN"
 "http://www.w3.org/TR/2001/REC-SVG-20010904/DTD/svg10.dtd">
<svg version="1.0" xmlns="http://www.w3.org/2000/svg"
 width="32.000000pt" height="32.000000pt" viewBox="0 0 32.000000 32.000000"
 preserveAspectRatio="xMidYMid meet">
<metadata>
Created by potrace 1.16, written by Peter Selinger 2001-2019
</metadata>
<g transform="translate(0.000000,32.000000) scale(0.100000,-0.100000)"
fill="#000000" stroke="none">
<path fill="#000000" stroke="none" d="M0 160 l0 -160 160 0 160 0 0 160 0
160 -160 0 -160 0 0 -160z"/>
<path fill="#ffffff" stroke="none" d="M192 278 c-5 -5 -16 -6 -26 -2 -13 5
-14 9 -5 20 9 11 15 12 26 3 8 -7 10 -16 5 -21z"/>
<path fill="#ffffff" stroke="none" d="M246 295 c-10 -8 -23 -12 -28 -9 -14 9
2 24 25 24 21 -1 21 -1 3 -15z"/>
<path fill="#ffffff" stroke="none" d="M35 290 c-3 -5 -11 -10 -16 -10 -6 0
-7 5 -4 10 3 6 11 10 16 10 6 0 7 -4 4 -10z"/>
<path fill="#ffffff" stroke="none" d="M117 274 c-9 -9 -28 6 -21 18 4 6 10 6
17 -1 6 -6 8 -13 4 -17z"/>
<path fill="#ffffff" stroke="none" d="M294 281 c3 -4 3 -11 0 -14 -8 -8 -34
3 -34 14 0 11 27 12 34 0z"/>
<path fill="#ffffff" stroke="none" d="M75 235 c0 -41 -16 -55 -40 -35 -16 13
-12 43 8 68 17 22 32 7 32 -33z"/>
<path fill="#ffffff" stroke="none" d="M246 237 c1 -9 -6 -12 -22 -9 -27 5
-30 12 -12 30 13 13 30 2 34 -21z"/>
<path fill="#ffffff" stroke="none" d="M159 247 c8 -11 6 -18 -9 -32 -19 -17
-22 -17 -37 -2 -13 13 -14 19 -3 31 15 20 34 20 49 3z"/>
<path fill="#ffffff" stroke="none" d="M300 230 c0 -5 -5 -10 -11 -10 -5 0 -7
5 -4 10 3 6 8 10 11 10 2 0 4 -4 4 -10z"/>
<path fill="#ffffff" stroke="none" d="M279 196 c10 -12 8 -17 -9 -26 -12 -7
-31 -9 -42 -7 -16 5 -17 3 -6 -10 11 -14 8 -14 -20 1 -38 19 -35 32 11 45 46
13 53 13 66 -3z"/>
<path fill="#ffffff" stroke="none" d="M134 143 c4 -9 1 -23 -7 -30 -11 -11
-16 -11 -32 1 -16 12 -17 16 -6 30 17 21 37 20 45 -1z"/>
<path fill="#ffffff" stroke="none" d="M50 110 c4 -29 0 -40 -16 -40 -9 0 -12
-5 -8 -12 4 -6 3 -8 -3 -5 -8 5 -11 49 -4 92 2 13 29 -17 31 -35z"/>
<path fill="#ffffff" stroke="none" d="M239 76 c13 -16 -4 -26 -43 -26 -29 0
-39 10 -25 27 15 17 53 17 68 -1z"/>
<path fill="#ffffff" stroke="none" d="M119 61 c11 -7 9 -11 -8 -20 -11 -7
-21 -10 -21 -7 0 2 -3 11 -6 20 -7 18 12 21 35 7z"/>
<path fill="#ffffff" stroke="none" d="M304 54 c8 -22 8 -22 -12 -33 -15 -8
-19 -6 -19 7 -2 40 19 58 31 26z"/>
<path fill="#ffffff" stroke="none" d="M203 23 c-7 -2 -21 -2 -30 0 -10 3 -4
5 12 5 17 0 24 -2 18 -5z"/>
</g>
</svg>
