<?xml version="1.0" standalone="no"?>
<!DOCTYPE svg PUBLIC "-//W3C//DTD SVG 20010904//EN"
 "http://www.w3.org/TR/2001/REC-SVG-20010904/DTD/svg10.dtd">
<svg version="1.0" xmlns="http://www.w3.org/2000/svg"
 width="32.000000pt" height="32.000000pt" viewBox="0 0 32.000000 32.000000"
 preserveAspectRatio="xMidYMid meet">
<metadata>
Created by potrace 1.16, written by Peter Selinger 2001-2019
</metadata>
<g transform="translate(0.000000,32.000000) scale(0.100000,-0.100000)"
fill="#000000" stroke="none">
<path fill="#000000" stroke="none" d="M0 160 l0 -160 160 0 160 0 0 160 0
160 -160 0 -160 0 0 -160z"/>
<path fill="#ffffff" stroke="none" d="M91 303 c-54 -5 -70 -23 -72 -83 -2
-45 -2 -45 -6 -7 -2 21 2 51 9 67 12 28 16 30 63 28 l50 -1 -44 -4z"/>
<path fill="#ffffff" stroke="none" d="M204 301 c4 -5 -2 -7 -13 -4 -19 5 -34
-10 -37 -37 -1 -8 -5 -27 -9 -43 -6 -23 -5 -26 11 -20 12 4 15 3 10 -6 -5 -7
-15 -10 -23 -7 -8 3 -31 -1 -51 -9 -33 -13 -35 -13 -18 0 11 8 26 15 33 15 22
0 36 40 24 67 -6 14 -7 22 -1 18 5 -3 15 3 22 15 13 21 43 27 52 11z"/>
<path fill="#ffffff" stroke="none" d="M254 300 c-11 -4 -28 -20 -37 -34 -10
-14 -22 -26 -29 -26 -6 0 1 12 16 26 14 15 26 31 26 35 0 5 10 9 23 8 21 0 22
0 1 -9z"/>
<path fill="#ffffff" stroke="none" d="M270 250 c-11 -11 -23 -20 -27 -20 -3
0 2 9 12 20 10 11 22 20 27 20 4 0 -1 -9 -12 -20z"/>
<path fill="#ffffff" stroke="none" d="M265 209 c3 -5 0 -7 -7 -4 -7 3 -18 -5
-23 -17 -6 -13 -19 -24 -30 -25 -16 -2 -15 -1 4 7 15 7 22 16 19 28 -5 19 27
29 37 11z"/>
<path fill="#ffffff" stroke="none" d="M305 172 c-3 -3 -11 0 -18 7 -9 10 -8
11 6 5 10 -3 15 -9 12 -12z"/>
<path fill="#ffffff" stroke="none" d="M37 132 c-8 -9 -17 -24 -20 -32 -4 -10
-6 -8 -6 6 -1 12 6 24 14 28 8 3 15 13 16 23 0 12 2 13 6 5 3 -7 -2 -21 -10
-30z"/>
<path fill="#ffffff" stroke="none" d="M175 151 c-3 -6 -11 -11 -16 -11 -5 0
-4 6 3 14 14 16 24 13 13 -3z"/>
<path fill="#ffffff" stroke="none" d="M94 151 c3 -5 -2 -15 -12 -22 -15 -12
-16 -12 -5 2 7 9 10 19 6 22 -3 4 -4 7 0 7 3 0 8 -4 11 -9z"/>
<path fill="#ffffff" stroke="none" d="M290 115 c-14 -17 -36 -20 -44 -6 -4 5
3 7 15 4 15 -4 22 0 26 18 4 13 8 18 11 11 2 -7 -2 -19 -8 -27z"/>
<path fill="#ffffff" stroke="none" d="M139 104 c-6 -8 -17 -14 -23 -14 -6 0
-3 5 7 11 9 6 14 15 11 21 -4 7 -2 8 5 4 9 -6 9 -11 0 -22z"/>
<path fill="#ffffff" stroke="none" d="M217 105 c-4 -8 -12 -15 -19 -14 -10 0
-10 2 0 6 6 2 12 12 12 21 0 8 3 13 6 9 4 -3 4 -13 1 -22z"/>
<path fill="#ffffff" stroke="none" d="M80 61 c-13 -25 -38 -44 -49 -37 -5 3
-12 0 -14 -6 -3 -8 -6 -5 -6 5 -1 13 4 17 18 12 22 -7 46 18 38 39 -4 10 -1
13 8 9 11 -3 12 -10 5 -22z"/>
<path fill="#ffffff" stroke="none" d="M268 54 c-11 -11 -18 -13 -23 -5 -4 7
-1 10 7 9 8 -2 12 4 10 17 -3 16 -1 18 9 7 11 -10 10 -15 -3 -28z"/>
<path fill="#ffffff" stroke="none" d="M186 52 c-17 -16 -18 -16 -5 5 7 12 15
20 18 17 3 -2 -3 -12 -13 -22z"/>
<path fill="#ffffff" stroke="none" d="M245 12 c-3 -3 -11 0 -18 7 -9 10 -8
11 6 5 10 -3 15 -9 12 -12z"/>
</g>
</svg>
