<?xml version="1.0" standalone="no"?>
<!DOCTYPE svg PUBLIC "-//W3C//DTD SVG 20010904//EN"
 "http://www.w3.org/TR/2001/REC-SVG-20010904/DTD/svg10.dtd">
<svg version="1.0" xmlns="http://www.w3.org/2000/svg"
 width="32.000000pt" height="32.000000pt" viewBox="0 0 32.000000 32.000000"
 preserveAspectRatio="xMidYMid meet">
<metadata>
Created by potrace 1.16, written by Peter Selinger 2001-2019
</metadata>
<g transform="translate(0.000000,32.000000) scale(0.100000,-0.100000)"
fill="#000000" stroke="none">
<path fill="#000000" stroke="none" d="M35 310 c39 -7 39 -7 8 -9 -25 -1 -33
-5 -33 -20 0 -11 -3 -26 -6 -34 -4 -12 3 -17 28 -20 l33 -4 -32 -1 c-31 -2
-33 -5 -33 -37 l0 -35 73 -2 72 -2 -67 -3 c-59 -3 -68 -7 -68 -23 0 -10 -3
-25 -6 -33 -4 -12 3 -17 28 -20 l33 -4 -32 -1 c-30 -2 -33 -5 -33 -32 l0 -30
160 0 160 0 0 29 c0 25 -5 30 -27 34 l-28 4 28 2 c27 1 27 1 27 76 l0 75 -34
0 c-30 0 -35 -4 -39 -27 -4 -26 -4 -26 -6 5 -1 31 0 32 39 32 l40 0 0 45 0 45
-162 -1 c-101 -1 -148 -5 -123 -9z"/>
<path fill="#ffffff" stroke="none" d="M133 303 c-7 -2 -21 -2 -30 0 -10 3 -4
5 12 5 17 0 24 -2 18 -5z"/>
<path fill="#ffffff" stroke="none" d="M213 303 c-36 -4 -42 -7 -46 -31 -4
-24 -4 -24 -6 6 l-1 32 48 -2 47 -1 -42 -4z"/>
<path fill="#ffffff" stroke="none" d="M108 223 c-9 -2 -19 -16 -21 -31 -4
-24 -4 -24 -6 6 -1 27 2 32 22 31 15 -1 17 -3 5 -6z"/>
<path fill="#ffffff" stroke="none" d="M208 223 c-10 -2 -28 -2 -40 0 -13 2
-5 4 17 4 22 1 32 -1 23 -4z"/>
<path fill="#ffffff" stroke="none" d="M190 143 c-8 -3 -18 -11 -22 -17 -5 -7
-8 -4 -8 7 0 11 7 17 23 16 15 0 17 -2 7 -6z"/>
<path fill="#ffffff" stroke="none" d="M283 143 c-13 -2 -33 -2 -45 0 -13 2
-3 4 22 4 25 0 35 -2 23 -4z"/>
<path fill="#ffffff" stroke="none" d="M128 63 c-31 -4 -37 -8 -41 -31 -4 -24
-4 -24 -6 6 -1 32 0 32 42 30 l42 -1 -37 -4z"/>
<path fill="#ffffff" stroke="none" d="M217 64 c-3 -3 -12 -4 -19 -1 -8 3 -5
6 6 6 11 1 17 -2 13 -5z"/>
<path fill="#ffffff" stroke="none" d="M252 40 c-6 -39 -12 -39 -12 0 0 17 4
30 8 30 5 0 7 -14 4 -30z"/>
</g>
</svg>
