<?xml version="1.0" standalone="no"?>
<!DOCTYPE svg PUBLIC "-//W3C//DTD SVG 20010904//EN"
 "http://www.w3.org/TR/2001/REC-SVG-20010904/DTD/svg10.dtd">
<svg version="1.0" xmlns="http://www.w3.org/2000/svg"
 width="32.000000pt" height="32.000000pt" viewBox="0 0 32.000000 32.000000"
 preserveAspectRatio="xMidYMid meet">
<metadata>
Created by potrace 1.16, written by Peter Selinger 2001-2019
</metadata>
<g transform="translate(0.000000,32.000000) scale(0.100000,-0.100000)"
fill="#000000" stroke="none">
<path fill="#000000" stroke="none" d="M0 160 l0 -160 160 0 160 0 0 160 0
160 -160 0 -160 0 0 -160z"/>
<path fill="#ffffff" stroke="none" d="M46 301 c-3 -4 1 -16 8 -27 12 -16 16
-16 30 -5 9 8 15 20 12 28 -7 16 18 17 43 1 15 -9 25 -9 46 0 32 15 72 16 80
2 3 -5 16 -10 27 -10 19 0 20 -4 13 -47 -9 -53 -9 -85 1 -155 5 -41 4 -47 -15
-53 -12 -3 -21 -11 -21 -16 0 -15 -36 -10 -50 6 -15 18 -42 19 -58 3 -11 -11
-72 -18 -72 -8 0 4 5 11 12 18 9 10 8 16 -5 29 -16 16 -18 16 -34 0 -15 -15
-15 -18 0 -35 15 -17 15 -18 -11 -16 -15 0 -27 6 -27 12 0 5 -3 14 -7 18 -17
16 -8 63 12 69 25 8 25 12 0 53 -25 41 -27 110 -2 128 20 16 25 17 18 5z"/>
<path fill="#000000" stroke="none" d="M148 262 c-29 -17 -37 -42 -15 -42 13
0 36 21 51 48 10 17 -4 15 -36 -6z"/>
<path fill="#000000" stroke="none" d="M206 227 c-17 -13 -17 -15 -2 -45 9
-18 22 -32 29 -32 37 0 51 62 18 80 -25 13 -24 13 -45 -3z"/>
<path fill="#000000" stroke="none" d="M73 203 c-18 -7 -16 -30 3 -37 24 -9
47 13 33 30 -12 15 -16 16 -36 7z"/>
<path fill="#000000" stroke="none" d="M139 143 c-5 -14 -8 -32 -5 -40 7 -16
26 -17 26 -1 0 6 7 19 16 29 9 10 13 23 9 28 -12 20 -35 11 -46 -16z"/>
<path fill="#000000" stroke="none" d="M265 120 c-4 -6 -3 -16 3 -22 6 -6 12
-6 17 2 4 6 3 16 -3 22 -6 6 -12 6 -17 -2z"/>
<path fill="#000000" stroke="none" d="M201 91 c-10 -7 -10 -10 -1 -16 6 -4
16 -3 22 3 13 13 -4 23 -21 13z"/>
</g>
</svg>
