<?xml version="1.0" standalone="no"?>
<!DOCTYPE svg PUBLIC "-//W3C//DTD SVG 20010904//EN"
 "http://www.w3.org/TR/2001/REC-SVG-20010904/DTD/svg10.dtd">
<svg version="1.0" xmlns="http://www.w3.org/2000/svg"
 width="32.000000pt" height="32.000000pt" viewBox="0 0 32.000000 32.000000"
 preserveAspectRatio="xMidYMid meet">
<metadata>
Created by potrace 1.16, written by Peter Selinger 2001-2019
</metadata>
<g transform="translate(0.000000,32.000000) scale(0.100000,-0.100000)"
fill="#000000" stroke="none">
<path fill="#000000" stroke="none" d="M71 313 l75 -4 -4 -29 c-4 -30 -5 -30
-68 -30 -34 0 -66 -4 -69 -10 -4 -6 9 -10 31 -10 28 0 34 -3 27 -12 -6 -7 -9
-20 -8 -29 2 -9 -3 -16 -11 -16 -7 0 -11 4 -8 9 3 4 0 8 -5 8 -6 0 -11 -5 -11
-11 0 -5 -5 -7 -10 -4 -5 3 -10 -1 -10 -9 0 -13 14 -16 78 -16 42 0 72 -4 66
-8 -6 -4 -10 -15 -8 -24 3 -21 5 -20 -64 -23 -64 -3 -97 -25 -38 -25 32 0 36
-2 27 -14 -6 -8 -10 -19 -9 -26 2 -7 -8 -14 -21 -16 -41 -7 -37 -14 7 -14 41
0 42 1 42 35 l0 35 78 0 c65 -1 74 -3 60 -14 -12 -9 -14 -16 -7 -23 7 -7 2
-12 -15 -15 -14 -3 -26 -1 -26 4 0 5 -5 6 -12 2 -7 -4 -23 -9 -36 -10 -54 -6
-30 -14 41 -14 l77 0 0 35 c0 34 1 35 40 35 l40 0 0 54 0 53 -40 -7 -40 -7 0
33 c0 33 1 34 40 34 l40 0 0 45 0 45 -162 -2 c-90 -1 -129 -4 -87 -5z"/>
<path fill="#ffffff" stroke="none" d="M298 291 c-9 -16 -16 -17 -31 -9 -12 6
-17 6 -13 0 6 -10 -17 -35 -26 -27 -2 3 -19 1 -36 -4 -32 -9 -32 -9 -32 25 l0
34 75 0 c72 0 75 -1 63 -19z"/>
<path fill="#ffffff" stroke="none" d="M222 223 c-6 -2 -10 -8 -7 -12 2 -5 -2
-16 -9 -27 -12 -15 -16 -16 -30 -5 -11 9 -16 10 -16 2 0 -6 -12 -10 -28 -9
-15 1 -33 -1 -40 -6 -9 -5 -12 3 -12 28 l0 36 78 -1 c42 0 71 -3 64 -6z"/>
<path fill="#ffffff" stroke="none" d="M301 141 c-8 -5 -11 -16 -8 -24 7 -19
-4 -23 -68 -26 -27 -2 -53 -5 -57 -7 -5 -3 -8 11 -8 30 l0 36 78 0 c48 0 72
-4 63 -9z"/>
<path fill="#000000" stroke="none" d="M13 36 c-9 -11 -7 -14 12 -12 17 1 21
4 13 14 -12 14 -10 14 -25 -2z"/>
<path fill="#000000" stroke="none" d="M265 9 c-15 -6 -11 -8 19 -8 22 -1 36
2 32 6 -10 10 -29 11 -51 2z"/>
</g>
</svg>
