<?xml version="1.0" standalone="no"?>
<!DOCTYPE svg PUBLIC "-//W3C//DTD SVG 20010904//EN"
 "http://www.w3.org/TR/2001/REC-SVG-20010904/DTD/svg10.dtd">
<svg version="1.0" xmlns="http://www.w3.org/2000/svg"
 width="32.000000pt" height="32.000000pt" viewBox="0 0 32.000000 32.000000"
 preserveAspectRatio="xMidYMid meet">
<metadata>
Created by potrace 1.16, written by Peter Selinger 2001-2019
</metadata>
<g transform="translate(0.000000,32.000000) scale(0.100000,-0.100000)"
fill="#000000" stroke="none">
<path fill="#000000" stroke="none" d="M0 160 l0 -160 160 0 160 0 0 160 0
160 -160 0 -160 0 0 -160z"/>
<path fill="#ffffff" stroke="none" d="M310 160 l0 -150 -150 0 -150 0 0 150
0 150 150 0 150 0 0 -150z"/>
<path fill="#000000" stroke="none" d="M30 275 c0 -8 5 -15 10 -15 6 0 10 7
10 15 0 8 -4 15 -10 15 -5 0 -10 -7 -10 -15z"/>
<path fill="#000000" stroke="none" d="M60 274 c0 -7 8 -15 18 -17 15 -4 15
-5 0 -6 -9 0 -19 -11 -21 -23 l-4 -23 -2 23 c-2 41 -21 22 -21 -22 0 -41 2
-45 28 -49 l27 -4 -27 -2 c-24 -1 -28 -5 -28 -31 0 -36 26 -42 33 -7 4 22 4
22 6 0 0 -12 9 -24 19 -26 15 -4 15 -5 0 -6 -9 0 -19 -11 -21 -24 l-4 -22 -2
23 c-1 30 -31 29 -31 -1 0 -24 0 -24 130 -24 l130 -1 0 24 c0 30 -17 31 -23 2
-4 -23 -4 -23 -6 -1 0 12 -9 24 -18 26 -17 4 -17 5 0 6 11 1 17 9 17 27 0 24
-2 25 -17 13 -16 -13 -17 -12 -4 4 12 15 10 17 -25 18 -38 1 -38 2 -9 8 17 4
34 4 39 -1 5 -4 17 -2 25 5 14 10 14 10 3 -5 -8 -10 -9 -19 -3 -22 5 -3 7 -15
4 -26 -3 -11 0 -20 6 -20 7 0 11 33 10 100 l-1 99 -114 -1 c-84 -1 -114 -5
-114 -14z"/>
<path fill="#ffffff" stroke="none" d="M144 272 c3 -5 -1 -9 -9 -9 -8 0 -12 4
-9 9 3 4 7 8 9 8 2 0 6 -4 9 -8z"/>
<path fill="#ffffff" stroke="none" d="M117 231 c7 7 13 8 13 4 0 -4 -8 -14
-17 -22 -10 -8 -13 -12 -6 -9 6 4 14 3 17 -2 2 -4 -7 -9 -21 -10 -20 -2 -23 1
-14 11 7 9 7 18 1 25 -7 9 -7 9 2 2 7 -6 16 -6 25 1z"/>
<path fill="#ffffff" stroke="none" d="M207 195 c0 -6 -6 -12 -12 -12 -6 0
-12 6 -12 12 0 6 6 12 12 12 6 0 12 -6 12 -12z"/>
<path fill="#ffffff" stroke="none" d="M167 108 c-3 -7 -5 -2 -5 12 0 14 2 19
5 13 2 -7 2 -19 0 -25z"/>
<path fill="#ffffff" stroke="none" d="M122 48 c-6 -6 -12 -6 -17 3 -5 8 -4
10 3 5 7 -4 12 0 13 11 0 12 2 13 6 5 3 -8 1 -18 -5 -24z"/>
<path fill="#ffffff" stroke="none" d="M219 63 c14 11 14 10 2 -6 -10 -13 -17
-15 -27 -6 -8 6 -14 14 -14 17 0 3 5 1 12 -6 9 -9 15 -9 27 1z"/>
</g>
</svg>
