<?xml version="1.0" standalone="no"?>
<!DOCTYPE svg PUBLIC "-//W3C//DTD SVG 20010904//EN"
 "http://www.w3.org/TR/2001/REC-SVG-20010904/DTD/svg10.dtd">
<svg version="1.0" xmlns="http://www.w3.org/2000/svg"
 width="32.000000pt" height="32.000000pt" viewBox="0 0 32.000000 32.000000"
 preserveAspectRatio="xMidYMid meet">
<metadata>
Created by potrace 1.16, written by Peter Selinger 2001-2019
</metadata>
<g transform="translate(0.000000,32.000000) scale(0.100000,-0.100000)"
fill="#000000" stroke="none">
<path fill="#000000" stroke="none" d="M108 293 c12 -2 30 -2 40 0 9 3 -1 5
-23 4 -22 0 -30 -2 -17 -4z"/>
<path fill="#000000" stroke="none" d="M203 293 c9 -2 25 -2 35 0 9 3 1 5 -18
5 -19 0 -27 -2 -17 -5z"/>
<path fill="#000000" stroke="none" d="M304 175 c0 -50 1 -71 3 -48 2 23 2 64
0 90 -2 26 -3 8 -3 -42z"/>
<path fill="#000000" stroke="none" d="M13 215 c0 -22 2 -30 4 -17 2 12 2 30
0 40 -3 9 -5 -1 -4 -23z"/>
<path fill="#000000" stroke="none" d="M129 228 c-1 -7 -1 -16 0 -20 0 -5 -6
-8 -14 -8 -9 0 -12 -6 -9 -15 8 -21 51 -19 57 3 4 16 5 16 6 0 1 -22 38 -23
65 -3 19 14 19 15 -7 15 -15 0 -26 3 -26 8 1 4 1 13 0 20 -1 16 -71 16 -72 0z"/>
<path fill="#000000" stroke="none" d="M85 140 c3 -5 8 -10 11 -10 2 0 4 5 4
10 0 6 -5 10 -11 10 -5 0 -7 -4 -4 -10z"/>
<path fill="#000000" stroke="none" d="M125 132 c3 -7 5 -18 5 -23 0 -5 12 -9
28 -9 l27 0 -25 20 c-27 21 -21 27 11 10 15 -9 19 -7 19 5 0 12 -9 15 -35 13
-26 -1 -34 -6 -30 -16z"/>
<path fill="#000000" stroke="none" d="M200 140 c0 -5 7 -10 15 -10 8 0 15 5
15 10 0 6 -7 10 -15 10 -8 0 -15 -4 -15 -10z"/>
<path fill="#000000" stroke="none" d="M11 114 c0 -11 3 -14 6 -6 3 7 2 16 -1
19 -3 4 -6 -2 -5 -13z"/>
<path fill="#000000" stroke="none" d="M112 85 c10 -10 72 -12 93 -4 13 5 1 8
-39 8 -33 1 -57 -1 -54 -4z"/>
<path fill="#000000" stroke="none" d="M8 3 c7 -3 16 -2 19 1 4 3 -2 6 -13 5
-11 0 -14 -3 -6 -6z"/>
</g>
</svg>
