<?xml version="1.0" standalone="no"?>
<!DOCTYPE svg PUBLIC "-//W3C//DTD SVG 20010904//EN"
 "http://www.w3.org/TR/2001/REC-SVG-20010904/DTD/svg10.dtd">
<svg version="1.0" xmlns="http://www.w3.org/2000/svg"
 width="32.000000pt" height="32.000000pt" viewBox="0 0 32.000000 32.000000"
 preserveAspectRatio="xMidYMid meet">
<metadata>
Created by potrace 1.16, written by Peter Selinger 2001-2019
</metadata>
<g transform="translate(0.000000,32.000000) scale(0.100000,-0.100000)"
fill="#000000" stroke="none">
<path fill="#000000" stroke="none" d="M0 160 l0 -160 160 0 160 0 0 160 0
160 -160 0 -160 0 0 -160z"/>
<path fill="#ffffff" stroke="none" d="M310 160 l0 -150 -150 0 -150 0 0 150
0 150 150 0 150 0 0 -150z"/>
<path fill="#000000" stroke="none" d="M30 280 c0 -5 5 -10 10 -10 6 0 10 5
10 10 0 6 -4 10 -10 10 -5 0 -10 -4 -10 -10z"/>
<path fill="#000000" stroke="none" d="M60 281 c0 -5 10 -12 23 -14 22 -4 22
-4 0 -6 -12 0 -24 -9 -26 -18 -4 -17 -5 -17 -6 0 0 9 -5 17 -11 17 -14 0 -13
-77 2 -86 6 -4 8 -3 4 4 -3 6 -2 13 3 16 5 4 8 -2 6 -11 -1 -10 -8 -17 -14
-15 -7 1 -11 -22 -11 -68 l0 -70 35 0 c39 0 48 16 13 23 -23 4 -23 4 -1 6 12
0 24 9 26 19 4 15 5 15 6 0 0 -9 11 -19 24 -21 l22 -4 -22 -2 c-13 0 -23 -6
-23 -11 0 -6 17 -10 40 -8 39 2 39 2 22 22 -15 18 -15 19 0 8 10 -8 18 -9 22
-3 4 6 13 8 21 4 8 -3 22 -2 31 1 14 5 14 9 3 24 -13 16 -13 16 5 2 18 -14 18
-13 12 8 -4 12 -4 32 0 44 7 21 9 20 15 -12 5 -26 7 -17 8 38 1 66 -11 96 -22
55 -4 -16 -5 -16 -6 -1 0 9 -11 19 -23 21 -23 4 -23 4 -1 6 12 0 24 9 26 19 4
16 5 16 6 0 1 -25 21 -23 21 2 0 17 -7 20 -39 20 -45 0 -67 -19 -48 -40 10
-12 9 -12 -4 -2 -12 9 -19 9 -29 -1 -12 -10 -12 -9 -2 4 9 12 9 18 0 27 -14
14 -108 16 -108 3z"/>
<path fill="#ffffff" stroke="none" d="M117 225 c0 -6 -6 -12 -12 -12 -6 0
-12 6 -12 12 0 6 6 12 12 12 6 0 12 -6 12 -12z"/>
<path fill="#ffffff" stroke="none" d="M247 174 c0 -7 -4 -11 -9 -8 -8 5 -12
-11 -9 -30 3 -16 -32 -46 -53 -45 -18 1 -18 2 6 12 22 9 44 50 40 78 -1 3 5 6
12 6 7 0 13 -6 13 -13z"/>
<path fill="#ffffff" stroke="none" d="M87 125 c0 -6 -6 -12 -12 -12 -6 0 -12
6 -12 12 0 6 6 12 12 12 6 0 12 -6 12 -12z"/>
<path fill="#000000" stroke="none" d="M175 280 c4 -6 11 -8 16 -5 14 9 11 15
-7 15 -8 0 -12 -5 -9 -10z"/>
<path fill="#000000" stroke="none" d="M269 73 c-8 -9 -27 -22 -44 -29 l-30
-13 48 -1 c49 0 56 6 35 29 -10 11 -10 13 0 7 7 -4 12 -1 12 8 0 20 -4 20 -21
-1z"/>
</g>
</svg>
