<?xml version="1.0" standalone="no"?>
<!DOCTYPE svg PUBLIC "-//W3C//DTD SVG 20010904//EN"
 "http://www.w3.org/TR/2001/REC-SVG-20010904/DTD/svg10.dtd">
<svg version="1.0" xmlns="http://www.w3.org/2000/svg"
 width="32.000000pt" height="32.000000pt" viewBox="0 0 32.000000 32.000000"
 preserveAspectRatio="xMidYMid meet">
<metadata>
Created by potrace 1.16, written by Peter Selinger 2001-2019
</metadata>
<g transform="translate(0.000000,32.000000) scale(0.100000,-0.100000)"
fill="#000000" stroke="none">
<path fill="#000000" stroke="none" d="M16 302 c-3 -4 -4 -72 -4 -150 1 -130
2 -141 18 -132 27 14 43 37 30 45 -5 3 -13 -1 -16 -9 -11 -30 -24 -16 -24 25
l0 40 31 -22 c30 -21 30 -21 18 -1 -7 11 -16 19 -20 16 -8 -4 -22 23 -23 46
-1 8 10 24 23 36 17 14 21 23 13 28 -7 4 -15 0 -18 -8 -11 -30 -24 -16 -24 25
l0 40 31 -22 c30 -21 30 -21 18 -1 -7 11 -16 19 -20 16 -4 -2 -9 3 -12 10 -4
9 1 17 11 19 12 3 11 5 -5 6 -12 0 -24 -3 -27 -7z"/>
<path fill="#000000" stroke="none" d="M100 303 l34 -5 -24 -19 c-14 -10 -20
-19 -13 -19 14 0 43 27 43 41 0 5 -17 8 -37 7 l-38 -1 35 -4z"/>
<path fill="#000000" stroke="none" d="M173 297 c2 -6 18 -22 37 -36 30 -24
32 -24 20 -4 -8 12 -17 20 -21 17 -4 -2 -9 3 -13 11 -4 12 5 15 47 15 l52 0
-25 -20 c-14 -11 -20 -20 -13 -20 14 0 43 28 43 41 0 6 -28 9 -65 8 -39 -1
-64 -6 -62 -12z"/>
<path fill="#000000" stroke="none" d="M195 206 c-19 -25 -47 -25 -77 2 -12
10 -18 11 -18 3 0 -6 7 -14 15 -17 8 -4 16 -16 16 -28 1 -17 2 -18 6 -3 7 26
38 17 38 -12 0 -15 12 -33 34 -50 31 -23 33 -24 21 -4 -8 12 -17 20 -21 17 -8
-4 -22 23 -23 46 -1 8 10 24 23 36 15 12 20 23 14 27 -6 4 -18 -4 -28 -17z"/>
<path fill="#000000" stroke="none" d="M260 211 c0 -6 6 -14 14 -18 8 -4 16
-17 18 -28 4 -20 4 -20 9 0 4 14 -1 26 -18 38 -12 10 -23 13 -23 8z"/>
<path fill="#000000" stroke="none" d="M110 120 c-14 -11 -20 -20 -13 -20 11
0 43 26 43 36 0 7 -4 5 -30 -16z"/>
<path fill="#000000" stroke="none" d="M270 120 c-14 -11 -20 -20 -13 -20 11
0 43 26 43 36 0 7 -4 5 -30 -16z"/>
<path fill="#000000" stroke="none" d="M195 46 c-19 -25 -47 -25 -77 2 -10 8
-18 11 -18 6 0 -18 35 -39 63 -38 30 1 76 37 59 48 -5 3 -17 -5 -27 -18z"/>
<path fill="#000000" stroke="none" d="M260 53 c0 -13 39 -43 44 -35 2 4 -7
15 -20 25 -13 10 -24 14 -24 10z"/>
</g>
</svg>
