<?xml version="1.0" standalone="no"?>
<!DOCTYPE svg PUBLIC "-//W3C//DTD SVG 20010904//EN"
 "http://www.w3.org/TR/2001/REC-SVG-20010904/DTD/svg10.dtd">
<svg version="1.0" xmlns="http://www.w3.org/2000/svg"
 width="32.000000pt" height="32.000000pt" viewBox="0 0 32.000000 32.000000"
 preserveAspectRatio="xMidYMid meet">
<metadata>
Created by potrace 1.16, written by Peter Selinger 2001-2019
</metadata>
<g transform="translate(0.000000,32.000000) scale(0.100000,-0.100000)"
fill="#000000" stroke="none">
<path fill="#000000" stroke="none" d="M0 160 l0 -160 160 0 160 0 0 160 0
160 -160 0 -160 0 0 -160z"/>
<path fill="#ffffff" stroke="none" d="M310 160 l0 -150 -150 0 -150 0 0 150
0 150 150 0 150 0 0 -150z"/>
<path fill="#000000" stroke="none" d="M35 253 c9 -48 9 -137 0 -185 -7 -36
-6 -38 19 -38 18 0 26 5 26 18 0 11 -3 13 -8 6 -5 -9 -11 -8 -20 2 -10 11 -10
14 1 14 14 0 16 27 3 48 -4 6 -4 12 1 12 10 0 10 66 1 76 -4 3 0 17 9 30 10
17 23 23 42 21 14 -1 27 2 28 8 1 5 10 13 20 17 16 7 16 8 -2 5 -11 -2 -19
-10 -17 -18 2 -11 0 -11 -10 1 -7 9 -33 17 -57 19 l-44 3 8 -39z"/>
<path fill="#000000" stroke="none" d="M208 282 c-16 -2 -28 -9 -28 -18 0 -11
7 -13 28 -8 32 8 35 10 31 21 -2 4 -16 7 -31 5z"/>
<path fill="#000000" stroke="none" d="M250 275 c0 -8 9 -15 20 -15 11 0 20 7
20 15 0 8 -9 15 -20 15 -11 0 -20 -7 -20 -15z"/>
<path fill="#000000" stroke="none" d="M275 240 c3 -5 8 -10 11 -10 2 0 4 5 4
10 0 6 -5 10 -11 10 -5 0 -7 -4 -4 -10z"/>
<path fill="#000000" stroke="none" d="M90 187 c0 -25 6 -49 13 -55 10 -9 13
-4 12 21 -1 43 12 58 42 50 19 -4 24 -2 21 8 -3 8 -22 15 -46 17 l-42 3 0 -44z"/>
<path fill="#000000" stroke="none" d="M205 220 c4 -6 11 -8 16 -5 14 9 11 15
-7 15 -8 0 -12 -5 -9 -10z"/>
<path fill="#000000" stroke="none" d="M250 185 c0 -8 -4 -15 -9 -15 -5 0 -8
-8 -7 -17 4 -28 21 -16 23 17 2 16 1 30 -2 30 -3 0 -5 -7 -5 -15z"/>
<path fill="#000000" stroke="none" d="M194 166 c1 -14 4 -28 7 -31 3 -3 5 6
5 19 -1 14 -4 28 -7 31 -3 3 -5 -6 -5 -19z"/>
<path fill="#000000" stroke="none" d="M150 120 c-9 -6 -10 -10 -3 -10 6 0 15
5 18 10 8 12 4 12 -15 0z"/>
<path fill="#000000" stroke="none" d="M180 120 c0 -5 5 -10 11 -10 5 0 7 5 4
10 -3 6 -8 10 -11 10 -2 0 -4 -4 -4 -10z"/>
<path fill="#000000" stroke="none" d="M91 104 c0 -11 3 -14 6 -6 3 7 2 16 -1
19 -3 4 -6 -2 -5 -13z"/>
<path fill="#000000" stroke="none" d="M240 102 c0 -11 -8 -18 -21 -19 -37 -3
-40 -18 -3 -20 32 -3 34 -1 34 27 0 17 -2 30 -5 30 -3 0 -5 -8 -5 -18z"/>
<path fill="#000000" stroke="none" d="M272 100 c-16 -26 -15 -40 3 -40 10 0
15 10 15 30 0 35 -1 36 -18 10z"/>
<path fill="#000000" stroke="none" d="M90 38 c0 -4 14 -8 30 -8 17 0 30 2 30
4 0 2 -13 6 -30 8 -16 3 -30 1 -30 -4z"/>
<path fill="#000000" stroke="none" d="M200 40 l-35 -7 43 -2 c27 0 41 3 37 9
-3 6 -7 9 -8 9 -1 -1 -18 -5 -37 -9z"/>
<path fill="#000000" stroke="none" d="M260 40 c0 -5 7 -10 15 -10 8 0 15 5
15 10 0 6 -7 10 -15 10 -8 0 -15 -4 -15 -10z"/>
</g>
</svg>
