<?xml version="1.0" standalone="no"?>
<!DOCTYPE svg PUBLIC "-//W3C//DTD SVG 20010904//EN"
 "http://www.w3.org/TR/2001/REC-SVG-20010904/DTD/svg10.dtd">
<svg version="1.0" xmlns="http://www.w3.org/2000/svg"
 width="32.000000pt" height="32.000000pt" viewBox="0 0 32.000000 32.000000"
 preserveAspectRatio="xMidYMid meet">
<metadata>
Created by potrace 1.16, written by Peter Selinger 2001-2019
</metadata>
<g transform="translate(0.000000,32.000000) scale(0.100000,-0.100000)"
fill="#000000" stroke="none">
<path fill="#000000" stroke="none" d="M40 310 l25 -8 -28 -1 c-16 -1 -26 -5
-22 -11 4 -6 11 -8 16 -5 15 10 10 -80 -6 -101 -18 -24 -19 -43 -1 -63 8 -9
16 -36 17 -61 3 -45 12 -60 38 -60 8 0 4 8 -10 20 -21 17 -22 21 -9 30 11 7
12 10 2 10 -7 0 -12 8 -11 17 1 10 -1 31 -6 47 -5 20 -4 31 6 37 11 7 10 9 -5
9 -16 0 -17 2 -5 16 7 9 12 29 11 45 -2 19 1 29 10 29 10 0 10 2 -1 9 -12 7
-12 13 -3 24 14 17 6 27 -22 26 -18 -1 -18 -2 4 -9z"/>
<path fill="#ffffff" stroke="none" d="M27 138 c-3 -8 -6 -5 -6 6 -1 11 2 17
5 13 3 -3 4 -12 1 -19z"/>
<path fill="#000000" stroke="none" d="M257 313 c-4 -3 -2 -13 5 -20 9 -11 9
-17 -3 -24 -10 -6 -10 -9 -1 -9 8 0 12 -16 12 -46 0 -27 -4 -43 -10 -39 -5 3
-10 2 -10 -4 0 -5 6 -11 13 -14 6 -2 -7 -14 -31 -26 -23 -12 -48 -19 -54 -15
-7 4 -8 3 -4 -4 4 -7 20 -12 36 -12 15 0 35 -3 44 -6 19 -7 22 -34 4 -34 -9 0
-8 -4 2 -10 13 -9 12 -13 -9 -30 -13 -11 -17 -20 -10 -19 18 1 57 17 44 18 -6
1 -9 52 -7 138 2 76 7 131 11 124 6 -10 10 -9 14 3 5 12 0 16 -21 17 l-27 1
30 8 c29 7 29 8 4 9 -14 0 -29 -2 -32 -6z"/>
<path fill="#000000" stroke="none" d="M21 44 c0 -11 3 -14 6 -6 3 7 2 16 -1
19 -3 4 -6 -2 -5 -13z"/>
<path fill="#000000" stroke="none" d="M98 53 c12 -2 30 -2 40 0 9 3 -1 5 -23
4 -22 0 -30 -2 -17 -4z"/>
<path fill="#000000" stroke="none" d="M208 53 c6 -2 18 -2 25 0 6 3 1 5 -13
5 -14 0 -19 -2 -12 -5z"/>
</g>
</svg>
