<?xml version="1.0" standalone="no"?>
<!DOCTYPE svg PUBLIC "-//W3C//DTD SVG 20010904//EN"
 "http://www.w3.org/TR/2001/REC-SVG-20010904/DTD/svg10.dtd">
<svg version="1.0" xmlns="http://www.w3.org/2000/svg"
 width="32.000000pt" height="32.000000pt" viewBox="0 0 32.000000 32.000000"
 preserveAspectRatio="xMidYMid meet">
<metadata>
Created by potrace 1.16, written by Peter Selinger 2001-2019
</metadata>
<g transform="translate(0.000000,32.000000) scale(0.100000,-0.100000)"
fill="#000000" stroke="none">
<path fill="#000000" stroke="none" d="M20 310 c24 -8 24 -8 3 -9 -14 -1 -23
-7 -23 -17 0 -8 4 -12 10 -9 6 4 10 -37 9 -117 0 -78 -4 -116 -9 -103 -8 19
-9 19 -9 -2 -1 -17 5 -23 22 -24 20 0 21 -1 2 -8 -29 -12 30 -21 135 -21 105
0 164 9 135 21 -19 7 -18 8 3 8 14 1 22 7 22 19 0 14 -2 15 -10 2 -7 -10 -10
27 -10 115 0 88 3 125 10 115 8 -13 10 -12 10 3 0 11 -8 17 -22 18 -22 1 -22
1 2 9 15 5 -43 8 -140 8 -97 0 -155 -3 -140 -8z"/>
<path fill="#ffffff" stroke="none" d="M170 284 c0 -12 -9 -14 -42 -12 -59 4
-63 28 -4 28 35 0 46 -4 46 -16z"/>
<path fill="#ffffff" stroke="none" d="M248 288 c-7 -20 -68 -23 -68 -4 0 12
10 16 36 16 24 0 34 -4 32 -12z"/>
<path fill="#ffffff" stroke="none" d="M205 250 c4 -6 -10 -17 -29 -25 -20 -9
-36 -17 -36 -20 0 -3 18 -5 40 -5 36 0 40 3 40 25 0 18 5 25 20 25 20 0 28
-24 11 -34 -5 -3 -7 -15 -4 -26 5 -17 0 -20 -26 -20 -23 0 -31 -4 -30 -17 0
-11 3 -13 6 -5 2 6 18 12 34 12 29 0 29 0 14 -30 -8 -16 -15 -38 -15 -50 0
-18 -6 -20 -70 -20 -56 0 -70 3 -70 15 0 8 7 15 15 15 8 0 15 4 15 10 0 5 -6
7 -14 4 -8 -3 -19 3 -25 15 -16 29 -13 41 9 41 11 0 20 -5 20 -12 0 -6 2 -9 5
-6 3 3 19 -7 35 -23 16 -16 33 -29 39 -29 19 0 12 15 -11 25 -13 6 -27 20 -33
33 -5 12 -18 22 -27 22 -10 0 -18 6 -19 13 0 10 -2 10 -6 0 -7 -18 -23 -16
-23 2 0 8 5 15 12 15 6 0 4 7 -5 18 -25 27 -21 35 13 30 17 -3 33 -1 36 4 7
12 72 10 79 -2z"/>
<path fill="#ffffff" stroke="none" d="M287 163 c-2 -16 -4 -5 -4 22 0 28 2
40 4 28 2 -13 2 -35 0 -50z"/>
<path fill="#ffffff" stroke="none" d="M37 123 c-2 -21 -4 -6 -4 32 0 39 2 55
4 38 2 -18 2 -50 0 -70z"/>
<path fill="#ffffff" stroke="none" d="M287 88 c-3 -8 -6 -5 -6 6 -1 11 2 17
5 13 3 -3 4 -12 1 -19z"/>
<path fill="#ffffff" stroke="none" d="M80 81 c0 -17 -18 -21 -24 -6 -3 9 0
15 9 15 8 0 15 -4 15 -9z"/>
<path fill="#ffffff" stroke="none" d="M267 84 c-3 -3 -12 -4 -19 -1 -8 3 -5
6 6 6 11 1 17 -2 13 -5z"/>
<path fill="#ffffff" stroke="none" d="M193 36 c9 6 9 5 0 -7 -17 -21 -58 -22
-74 -2 -8 10 -9 14 -2 10 6 -4 14 -3 18 3 4 7 13 7 26 0 11 -6 25 -8 32 -4z"/>
<path fill="#000000" stroke="none" d="M155 170 c-3 -5 1 -10 10 -10 9 0 13 5
10 10 -3 6 -8 10 -10 10 -2 0 -7 -4 -10 -10z"/>
</g>
</svg>
