<?xml version="1.0" standalone="no"?>
<!DOCTYPE svg PUBLIC "-//W3C//DTD SVG 20010904//EN"
 "http://www.w3.org/TR/2001/REC-SVG-20010904/DTD/svg10.dtd">
<svg version="1.0" xmlns="http://www.w3.org/2000/svg"
 width="32.000000pt" height="32.000000pt" viewBox="0 0 32.000000 32.000000"
 preserveAspectRatio="xMidYMid meet">
<metadata>
Created by potrace 1.16, written by Peter Selinger 2001-2019
</metadata>
<g transform="translate(0.000000,32.000000) scale(0.100000,-0.100000)"
fill="#000000" stroke="none">
<path fill="#000000" stroke="none" d="M0 159 c0 -142 2 -160 15 -149 8 7 12
17 8 24 -4 6 0 6 9 -2 11 -9 50 -12 139 -10 l124 3 2 133 c1 87 6 138 13 147
11 13 -9 15 -149 15 l-161 0 0 -161z"/>
<path fill="#ffffff" stroke="none" d="M243 293 c-7 -2 -19 -2 -25 0 -7 3 -2
5 12 5 14 0 19 -2 13 -5z"/>
<path fill="#ffffff" stroke="none" d="M287 294 c-3 -3 -12 -4 -19 -1 -8 3 -5
6 6 6 11 1 17 -2 13 -5z"/>
<path fill="#ffffff" stroke="none" d="M224 263 c20 -17 20 -17 7 0 -12 15
-10 17 22 17 l35 0 1 -125 2 -125 -126 0 -125 0 0 125 0 125 82 0 c63 0 86 -4
102 -17z"/>
<path fill="#000000" stroke="none" d="M84 158 l1 -78 78 0 77 0 0 78 0 77
-79 1 -79 1 2 -79z"/>
<path fill="#ffffff" stroke="none" d="M139 208 c11 -10 13 -10 7 0 -5 9 5 12
38 12 l46 0 0 -65 0 -65 -65 2 -65 2 0 63 c0 65 10 78 39 51z"/>
<path fill="#000000" stroke="none" d="M80 66 c0 -2 8 -10 18 -17 15 -13 16
-12 3 4 -13 16 -21 21 -21 13z"/>
</g>
</svg>
