<?xml version="1.0" standalone="no"?>
<!DOCTYPE svg PUBLIC "-//W3C//DTD SVG 20010904//EN"
 "http://www.w3.org/TR/2001/REC-SVG-20010904/DTD/svg10.dtd">
<svg version="1.0" xmlns="http://www.w3.org/2000/svg"
 width="32.000000pt" height="32.000000pt" viewBox="0 0 32.000000 32.000000"
 preserveAspectRatio="xMidYMid meet">
<metadata>
Created by potrace 1.16, written by Peter Selinger 2001-2019
</metadata>
<g transform="translate(0.000000,32.000000) scale(0.100000,-0.100000)"
fill="#000000" stroke="none">
<path fill="#000000" stroke="none" d="M97 154 c-8 -8 3 -34 15 -34 7 0 6 5
-1 13 -6 8 -8 17 -4 20 3 4 4 7 1 7 -2 0 -7 -3 -11 -6z"/>
<path fill="#000000" stroke="none" d="M85 90 c3 -5 11 -10 16 -10 6 0 7 5 4
10 -3 6 -11 10 -16 10 -6 0 -7 -4 -4 -10z"/>
<path fill="#000000" stroke="none" d="M132 57 c-8 -9 -4 -12 14 -13 26 -2 33
11 10 19 -8 3 -19 0 -24 -6z"/>
</g>
</svg>
