<?xml version="1.0" standalone="no"?>
<!DOCTYPE svg PUBLIC "-//W3C//DTD SVG 20010904//EN"
 "http://www.w3.org/TR/2001/REC-SVG-20010904/DTD/svg10.dtd">
<svg version="1.0" xmlns="http://www.w3.org/2000/svg"
 width="32.000000pt" height="32.000000pt" viewBox="0 0 32.000000 32.000000"
 preserveAspectRatio="xMidYMid meet">
<metadata>
Created by potrace 1.16, written by Peter Selinger 2001-2019
</metadata>
<g transform="translate(0.000000,32.000000) scale(0.100000,-0.100000)"
fill="#000000" stroke="none">
<path fill="#000000" stroke="none" d="M72 313 l78 -4 0 -35 c0 -32 -2 -34
-20 -24 -14 7 -20 7 -20 0 0 -13 -47 -13 -52 1 -2 6 -14 5 -33 -5 l-30 -16 38
0 c36 0 37 -1 37 -34 0 -33 -2 -35 -38 -39 -20 -2 -2 -4 41 -5 l77 -2 0 -35 0
-35 -71 1 c-38 1 -73 -2 -76 -5 -4 -3 10 -6 30 -6 34 0 37 -2 37 -29 0 -24 -3
-28 -20 -24 -11 3 -20 0 -20 -6 0 -6 11 -11 25 -11 22 0 25 4 25 35 l0 35 74
0 75 0 4 -37 4 -38 1 38 c2 36 3 37 42 37 l40 0 0 45 c0 34 -5 47 -20 55 -11
6 -20 7 -20 2 0 -4 -9 -8 -20 -9 -16 -1 -20 4 -20 33 0 33 1 34 40 34 l40 0 0
45 0 45 -162 -2 c-90 -1 -128 -4 -86 -5z"/>
<path fill="#ffffff" stroke="none" d="M310 275 c0 -34 -1 -35 -39 -35 -22 0
-43 5 -47 11 -4 8 -9 8 -17 0 -6 -6 -19 -11 -29 -11 -14 0 -18 8 -18 35 l0 35
75 0 75 0 0 -35z"/>
<path fill="#ffffff" stroke="none" d="M230 195 c0 -33 -8 -43 -24 -28 -10 11
-36 12 -36 2 0 -5 -11 -9 -25 -9 -14 0 -25 5 -25 10 0 6 -5 10 -11 10 -5 0 -7
-4 -4 -10 3 -5 -1 -10 -9 -10 -12 0 -16 10 -16 35 l0 35 75 0 75 0 0 -35z"/>
<path fill="#ffffff" stroke="none" d="M310 131 c0 -41 -9 -49 -46 -41 -19 4
-34 4 -34 -1 0 -5 -16 -9 -35 -9 -33 0 -35 2 -35 35 l0 35 75 0 c67 0 75 -2
75 -19z"/>
<path fill="#000000" stroke="none" d="M203 23 c-18 -7 -16 -23 2 -23 8 0 15
7 15 15 0 8 -1 15 -2 14 -2 0 -9 -3 -15 -6z"/>
</g>
</svg>
