<?xml version="1.0" standalone="no"?>
<!DOCTYPE svg PUBLIC "-//W3C//DTD SVG 20010904//EN"
 "http://www.w3.org/TR/2001/REC-SVG-20010904/DTD/svg10.dtd">
<svg version="1.0" xmlns="http://www.w3.org/2000/svg"
 width="32.000000pt" height="32.000000pt" viewBox="0 0 32.000000 32.000000"
 preserveAspectRatio="xMidYMid meet">
<metadata>
Created by potrace 1.16, written by Peter Selinger 2001-2019
</metadata>
<g transform="translate(0.000000,32.000000) scale(0.100000,-0.100000)"
fill="#000000" stroke="none">
<path fill="#000000" stroke="none" d="M18 312 c-14 -3 -17 -15 -17 -75 0 -44
5 -75 12 -79 9 -6 9 -8 0 -8 -9 0 -13 -22 -13 -75 l0 -75 34 0 c19 0 37 6 39
13 4 10 6 10 6 0 1 -9 23 -13 75 -13 63 0 75 3 79 18 4 16 5 16 6 0 1 -14 10
-18 41 -18 l40 0 0 41 c0 28 -4 38 -12 33 -7 -5 -8 -3 -3 6 5 7 10 47 12 88 4
57 2 72 -8 67 -8 -6 -10 -4 -3 6 4 8 9 28 9 44 l1 31 -140 0 c-78 0 -149 -1
-158 -4z"/>
<path fill="#ffffff" stroke="none" d="M155 240 c-3 -5 -14 -10 -23 -9 -14 0
-13 2 3 9 27 11 27 11 20 0z"/>
<path fill="#ffffff" stroke="none" d="M287 234 c-3 -3 -12 -4 -19 -1 -8 3 -5
6 6 6 11 1 17 -2 13 -5z"/>
<path fill="#ffffff" stroke="none" d="M82 172 c3 -11 0 -19 -7 -19 -7 0 -10
8 -7 19 2 10 6 18 7 18 1 0 5 -8 7 -18z"/>
<path fill="#ffffff" stroke="none" d="M235 160 c-3 -5 -12 -10 -18 -10 -7 0
-6 4 3 10 19 12 23 12 15 0z"/>
<path fill="#ffffff" stroke="none" d="M164 82 c3 -5 -1 -9 -9 -9 -8 0 -12 4
-9 9 3 4 7 8 9 8 2 0 6 -4 9 -8z"/>
<path fill="#ffffff" stroke="none" d="M63 73 c-7 -2 -19 -2 -25 0 -7 3 -2 5
12 5 14 0 19 -2 13 -5z"/>
<path fill="#ffffff" stroke="none" d="M244 68 c-3 -4 -11 -5 -19 -1 -21 7
-19 12 4 10 11 0 18 -5 15 -9z"/>
</g>
</svg>
