<?xml version="1.0" standalone="no"?>
<!DOCTYPE svg PUBLIC "-//W3C//DTD SVG 20010904//EN"
 "http://www.w3.org/TR/2001/REC-SVG-20010904/DTD/svg10.dtd">
<svg version="1.0" xmlns="http://www.w3.org/2000/svg"
 width="32.000000pt" height="32.000000pt" viewBox="0 0 32.000000 32.000000"
 preserveAspectRatio="xMidYMid meet">
<metadata>
Created by potrace 1.16, written by Peter Selinger 2001-2019
</metadata>
<g transform="translate(0.000000,32.000000) scale(0.100000,-0.100000)"
fill="#000000" stroke="none">
<path fill="#000000" stroke="none" d="M166 303 c-4 -11 -14 -24 -22 -27 -8
-3 -13 -2 -10 3 3 5 -1 14 -9 21 -14 12 -19 7 -16 -13 1 -5 -3 -6 -9 -2 -25
15 -7 -27 21 -47 23 -17 29 -28 24 -45 -3 -13 -2 -23 2 -23 5 0 14 -9 20 -20
9 -14 10 -21 1 -26 -6 -4 -8 -3 -5 3 4 6 -2 18 -13 28 -12 11 -18 25 -15 36 4
12 -4 25 -25 40 -18 14 -30 32 -30 45 0 29 -17 39 -37 22 -14 -11 -16 -11 -8
1 5 10 4 12 -3 7 -7 -4 -12 -15 -12 -24 0 -13 -2 -14 -9 -3 -6 8 -8 0 -7 -25
1 -30 10 -47 39 -79 22 -22 46 -39 55 -38 10 1 12 0 5 -3 -7 -3 -13 -13 -13
-22 -1 -25 -32 -58 -63 -66 -18 -4 -27 -13 -27 -26 0 -19 7 -20 160 -20 l160
0 0 160 c0 153 -1 160 -20 160 -11 0 -20 -5 -20 -10 0 -6 -8 -5 -20 2 -17 11
-23 10 -40 -8 -21 -21 -19 -54 4 -54 19 0 49 -61 36 -74 -8 -8 -10 -7 -5 5 4
11 -6 28 -27 49 -18 18 -38 47 -44 64 -10 29 -11 29 -18 9z"/>
<path fill="#ffffff" stroke="none" d="M240 103 c0 -9 -1 -14 -3 -12 -1 2 -11
15 -22 28 l-20 24 23 -12 c12 -6 22 -19 22 -28z"/>
<path fill="#000000" stroke="none" d="M25 158 c-4 -10 -11 -15 -16 -12 -16
10 -9 -29 8 -49 10 -11 12 -17 6 -13 -8 4 -13 2 -13 -7 0 -18 31 -18 52 1 24
20 23 31 -6 67 -21 26 -25 28 -31 13z"/>
</g>
</svg>
