<?xml version="1.0" standalone="no"?>
<!DOCTYPE svg PUBLIC "-//W3C//DTD SVG 20010904//EN"
 "http://www.w3.org/TR/2001/REC-SVG-20010904/DTD/svg10.dtd">
<svg version="1.0" xmlns="http://www.w3.org/2000/svg"
 width="32.000000pt" height="32.000000pt" viewBox="0 0 32.000000 32.000000"
 preserveAspectRatio="xMidYMid meet">
<metadata>
Created by potrace 1.16, written by Peter Selinger 2001-2019
</metadata>
<g transform="translate(0.000000,32.000000) scale(0.100000,-0.100000)"
fill="#000000" stroke="none">
<path fill="#000000" stroke="none" d="M0 163 c0 -149 1 -155 18 -137 9 11 27
19 39 18 15 -1 20 4 18 17 -2 9 3 20 12 23 10 4 13 2 10 -8 -3 -8 0 -22 7 -32
16 -21 27 -7 33 40 2 17 10 37 19 46 13 13 14 13 9 -1 -3 -9 1 -22 10 -29 13
-11 15 -11 13 -1 -2 8 5 15 15 16 12 2 22 -8 32 -31 8 -19 17 -34 20 -34 3 0
1 9 -5 21 -7 11 -9 23 -6 26 3 3 1 14 -5 25 -8 15 -17 18 -35 14 -22 -6 -29 1
-25 27 0 4 -3 7 -8 7 -5 0 -12 7 -15 16 -5 12 -2 15 11 10 16 -5 16 -5 2 6 -9
7 -14 18 -12 25 2 6 -1 15 -8 19 -8 4 -9 3 -5 -4 8 -13 -4 -16 -19 -4 -17 12
-17 35 -1 29 9 -4 22 1 31 9 8 9 15 12 15 7 0 -4 10 -19 21 -33 11 -14 18 -19
14 -13 -9 19 43 67 58 54 8 -6 18 -6 27 -1 8 6 11 10 5 10 -5 0 -3 5 5 10 10
6 -37 10 -142 10 l-158 0 0 -157z"/>
<path fill="#ffffff" stroke="none" d="M70 260 c6 -11 8 -26 4 -33 -5 -9 -4
-9 6 0 19 17 50 -2 45 -27 -2 -11 -7 -25 -11 -32 -5 -7 -3 -8 6 -3 8 5 11 3 8
-5 -2 -7 -14 -17 -27 -21 -14 -6 -20 -5 -16 1 3 6 1 10 -6 10 -7 0 -9 3 -6 7
4 3 -2 16 -13 28 -20 22 -19 55 3 55 5 0 2 9 -8 20 -10 11 -13 20 -7 20 6 0
16 -9 22 -20z"/>
<path fill="#ffffff" stroke="none" d="M80 108 c0 -5 -10 -18 -21 -29 -12 -12
-19 -15 -17 -8 3 8 1 22 -3 31 -5 9 -6 23 -3 32 5 13 8 12 25 -2 10 -9 19 -20
19 -24z"/>
<path fill="#ffffff" stroke="none" d="M150 141 c0 -12 -20 -25 -27 -18 -7 7
6 27 18 27 5 0 9 -4 9 -9z"/>
<path fill="#ffffff" stroke="none" d="M126 76 c-4 -33 -12 -42 -20 -21 -3 9
-2 13 4 10 11 -7 8 30 -3 41 -4 4 -7 11 -7 16 0 5 6 3 14 -5 8 -8 13 -26 12
-41z"/>
<path fill="#000000" stroke="none" d="M47 110 c3 -11 9 -17 15 -14 5 3 4 12
-3 20 -16 19 -18 18 -12 -6z"/>
<path fill="#000000" stroke="none" d="M215 250 c-3 -5 1 -15 9 -23 11 -11 12
-17 3 -27 -10 -10 -7 -11 10 -5 19 5 22 3 16 -12 -5 -14 -3 -15 7 -6 7 7 9 16
4 25 -5 7 -9 22 -9 32 0 19 -31 31 -40 16z"/>
<path fill="#000000" stroke="none" d="M256 127 c3 -10 9 -15 12 -12 3 3 0 11
-7 18 -10 9 -11 8 -5 -6z"/>
</g>
</svg>
