<?xml version="1.0" standalone="no"?>
<!DOCTYPE svg PUBLIC "-//W3C//DTD SVG 20010904//EN"
 "http://www.w3.org/TR/2001/REC-SVG-20010904/DTD/svg10.dtd">
<svg version="1.0" xmlns="http://www.w3.org/2000/svg"
 width="32.000000pt" height="32.000000pt" viewBox="0 0 32.000000 32.000000"
 preserveAspectRatio="xMidYMid meet">
<metadata>
Created by potrace 1.16, written by Peter Selinger 2001-2019
</metadata>
<g transform="translate(0.000000,32.000000) scale(0.100000,-0.100000)"
fill="#000000" stroke="none">
<path fill="#000000" stroke="none" d="M0 163 l0 -156 20 23 c11 13 20 19 20
14 0 -12 56 -12 67 0 4 5 3 6 -4 2 -18 -10 -63 15 -63 35 0 9 -3 25 -7 35 -4
12 -3 15 5 10 8 -5 10 -2 6 8 -3 9 -1 16 4 16 6 0 9 12 6 27 -4 21 -2 24 9 15
10 -9 13 -5 11 18 -1 17 1 28 5 25 5 -2 17 5 29 15 21 20 21 20 32 -1 10 -17
8 -25 -9 -43 -12 -12 -21 -29 -21 -37 1 -10 5 -8 16 6 11 14 18 16 21 7 3 -6
10 -9 16 -5 7 4 8 0 4 -11 -4 -10 -3 -15 3 -11 15 9 12 -8 -4 -31 -13 -16 -18
-17 -35 -7 -17 11 -22 10 -34 -7 -8 -11 -17 -18 -20 -15 -4 3 -5 2 -2 -2 10
-12 34 -11 29 1 -3 8 8 12 33 13 43 0 69 6 79 16 15 15 26 6 22 -17 -6 -31 4
-49 32 -53 l21 -3 -20 29 c-12 16 -21 35 -21 43 0 10 3 9 10 -2 5 -8 10 -10
10 -4 0 17 -23 34 -46 34 -12 0 -27 7 -34 15 -11 14 -7 19 13 16 4 0 5 18 2
42 -5 37 -2 47 20 67 21 20 28 22 35 10 5 -8 6 -18 3 -23 -3 -5 4 -3 16 5 11
7 23 18 25 25 4 10 -28 13 -149 13 l-155 0 0 -157z"/>
<path fill="#ffffff" stroke="none" d="M163 269 c-6 -23 -22 -16 -20 10 0 10
6 17 13 14 6 -2 10 -13 7 -24z"/>
<path fill="#ffffff" stroke="none" d="M60 286 c0 -2 3 -11 6 -20 4 -10 1 -16
-9 -16 -9 0 -20 -8 -25 -17 -7 -12 -9 -8 -7 18 2 19 3 35 4 37 2 4 31 2 31 -2z"/>
<path fill="#ffffff" stroke="none" d="M194 244 c5 -14 4 -15 -9 -4 -17 14
-19 20 -6 20 5 0 12 -7 15 -16z"/>
<path fill="#ffffff" stroke="none" d="M190 210 c0 -4 -7 -11 -16 -14 -10 -4
-13 -2 -8 6 5 8 2 9 -9 5 -14 -5 -15 -3 -5 13 9 14 16 16 25 8 7 -6 13 -14 13
-18z"/>
<path fill="#ffffff" stroke="none" d="M258 65 c-3 -3 -9 2 -12 12 -6 14 -5
15 5 6 7 -7 10 -15 7 -18z"/>
<path fill="#000000" stroke="none" d="M240 246 c0 -8 -6 -17 -12 -19 -8 -4
-9 -6 -2 -6 18 -1 37 26 24 34 -5 3 -10 0 -10 -9z"/>
<path fill="#000000" stroke="none" d="M171 55 c0 -5 3 -16 8 -23 6 -10 11 -9
22 4 12 16 12 17 -3 11 -9 -3 -19 -1 -22 6 -2 7 -5 8 -5 2z"/>
</g>
</svg>
