<?xml version="1.0" standalone="no"?>
<!DOCTYPE svg PUBLIC "-//W3C//DTD SVG 20010904//EN"
 "http://www.w3.org/TR/2001/REC-SVG-20010904/DTD/svg10.dtd">
<svg version="1.0" xmlns="http://www.w3.org/2000/svg"
 width="32.000000pt" height="32.000000pt" viewBox="0 0 32.000000 32.000000"
 preserveAspectRatio="xMidYMid meet">
<metadata>
Created by potrace 1.16, written by Peter Selinger 2001-2019
</metadata>
<g transform="translate(0.000000,32.000000) scale(0.100000,-0.100000)"
fill="#000000" stroke="none">
<path fill="#000000" stroke="none" d="M0 160 l0 -160 160 0 160 0 0 70 c0 39
-3 70 -7 70 -5 0 -28 -14 -53 -31 -37 -25 -52 -30 -85 -25 -24 3 -47 13 -57
26 -38 47 -11 134 39 128 32 -4 53 -32 36 -49 -8 -8 -11 -6 -10 7 2 25 -32 25
-47 1 -15 -23 12 -71 43 -75 12 -2 39 8 59 21 20 14 47 28 60 32 20 6 22 12
22 76 l0 69 -160 0 -160 0 0 -160z"/>
</g>
</svg>
