<?xml version="1.0" standalone="no"?>
<!DOCTYPE svg PUBLIC "-//W3C//DTD SVG 20010904//EN"
 "http://www.w3.org/TR/2001/REC-SVG-20010904/DTD/svg10.dtd">
<svg version="1.0" xmlns="http://www.w3.org/2000/svg"
 width="32.000000pt" height="32.000000pt" viewBox="0 0 32.000000 32.000000"
 preserveAspectRatio="xMidYMid meet">
<metadata>
Created by potrace 1.16, written by Peter Selinger 2001-2019
</metadata>
<g transform="translate(0.000000,32.000000) scale(0.100000,-0.100000)"
fill="#000000" stroke="none">
<path fill="#000000" stroke="none" d="M0 173 c1 -134 2 -146 15 -123 8 14 22
48 30 77 23 76 44 98 94 98 22 0 46 -6 53 -13 11 -11 8 -11 -13 -3 -31 11 -45
10 -77 -7 -12 -7 -19 -18 -16 -24 4 -6 3 -8 -4 -4 -12 7 -27 -29 -17 -43 3 -5
0 -13 -6 -16 -5 -4 -8 -14 -5 -22 3 -8 1 -11 -4 -8 -6 3 -10 0 -10 -8 0 -8 -9
-26 -20 -40 -11 -14 -20 -28 -20 -31 0 -3 72 -6 160 -6 l160 0 0 160 0 160
-160 0 -160 0 0 -147z"/>
<path fill="#ffffff" stroke="none" d="M214 132 c-3 -15 -9 -29 -15 -30 -5 -2
-7 -7 -5 -11 3 -4 -1 -8 -9 -8 -13 0 -12 3 1 18 10 11 15 28 12 43 -3 17 -1
23 8 19 7 -3 11 -15 8 -31z"/>
<path fill="#ffffff" stroke="none" d="M166 128 c4 -7 3 -8 -5 -4 -6 4 -18 2
-26 -4 -8 -7 -15 -8 -15 -3 0 23 33 32 46 11z"/>
</g>
</svg>
