<?xml version="1.0" standalone="no"?>
<!DOCTYPE svg PUBLIC "-//W3C//DTD SVG 20010904//EN"
 "http://www.w3.org/TR/2001/REC-SVG-20010904/DTD/svg10.dtd">
<svg version="1.0" xmlns="http://www.w3.org/2000/svg"
 width="32.000000pt" height="32.000000pt" viewBox="0 0 32.000000 32.000000"
 preserveAspectRatio="xMidYMid meet">
<metadata>
Created by potrace 1.16, written by Peter Selinger 2001-2019
</metadata>
<g transform="translate(0.000000,32.000000) scale(0.100000,-0.100000)"
fill="#000000" stroke="none">
<path fill="#000000" stroke="none" d="M144 273 c-3 -10 -10 -25 -15 -33 -43
-68 -52 -80 -60 -80 -5 0 -9 -7 -9 -15 0 -29 21 -18 55 30 14 19 14 19 15 -5
0 -14 -9 -34 -21 -44 -16 -13 -19 -24 -14 -44 4 -15 7 -37 7 -50 0 -13 5 -21
12 -19 6 2 10 21 10 41 -1 35 0 36 20 23 11 -8 22 -26 24 -41 2 -14 7 -26 12
-26 5 0 15 -3 24 -6 12 -5 16 0 15 17 0 23 -1 23 -9 4 -11 -26 -12 2 -1 30 7
17 9 16 15 -13 9 -40 17 -40 35 -2 16 38 8 73 -21 88 l-23 12 23 -6 c27 -7 29
9 5 35 -29 31 -58 74 -63 95 -7 26 -29 32 -36 9z"/>
<path fill="#ffffff" stroke="none" d="M210 170 c9 -16 8 -20 -5 -20 -8 0 -15
9 -15 20 0 11 2 20 5 20 2 0 9 -9 15 -20z"/>
<path fill="#000000" stroke="none" d="M271 114 c10 -10 19 -28 22 -39 4 -15
5 -14 6 7 1 19 -6 31 -21 39 -22 11 -22 11 -7 -7z"/>
</g>
</svg>
