<?xml version="1.0" standalone="no"?>
<!DOCTYPE svg PUBLIC "-//W3C//DTD SVG 20010904//EN"
 "http://www.w3.org/TR/2001/REC-SVG-20010904/DTD/svg10.dtd">
<svg version="1.0" xmlns="http://www.w3.org/2000/svg"
 width="32.000000pt" height="32.000000pt" viewBox="0 0 32.000000 32.000000"
 preserveAspectRatio="xMidYMid meet">
<metadata>
Created by potrace 1.16, written by Peter Selinger 2001-2019
</metadata>
<g transform="translate(0.000000,32.000000) scale(0.100000,-0.100000)"
fill="#000000" stroke="none">
<path fill="#000000" stroke="none" d="M144 276 c-3 -9 -3 -23 0 -31 3 -9 -1
-18 -10 -22 -8 -3 -21 -18 -30 -34 -8 -16 -21 -29 -29 -29 -8 0 -15 -7 -15
-15 0 -22 18 -18 45 9 13 13 26 21 29 18 3 -3 6 0 6 6 0 23 42 12 70 -18 31
-33 50 -39 50 -15 0 8 -7 15 -15 15 -8 0 -21 14 -30 30 -14 28 -26 35 -49 31
-5 -1 -4 4 2 11 13 17 10 50 -6 56 -7 2 -15 -3 -18 -12z"/>
<path fill="#000000" stroke="none" d="M146 172 c-3 -6 -3 -18 1 -28 4 -11 3
-15 -5 -10 -6 3 -14 1 -18 -6 -4 -7 -3 -10 1 -5 5 4 18 -2 30 -13 l21 -20 -1
35 c-1 36 -18 64 -29 47z"/>
<path fill="#ffffff" stroke="none" d="M167 125 c0 -8 -4 -12 -9 -9 -5 3 -6
10 -3 15 9 13 12 11 12 -6z"/>
<path fill="#000000" stroke="none" d="M95 99 c-4 -12 -3 -25 2 -30 6 -6 10 2
10 21 0 35 -3 38 -12 9z"/>
<path fill="#000000" stroke="none" d="M106 34 c-8 -20 -8 -24 2 -24 4 0 8 9
9 20 2 24 -3 26 -11 4z"/>
<path fill="#000000" stroke="none" d="M170 20 c0 -5 5 -10 11 -10 5 0 7 5 4
10 -3 6 -8 10 -11 10 -2 0 -4 -4 -4 -10z"/>
</g>
</svg>
