<?xml version="1.0" standalone="no"?>
<!DOCTYPE svg PUBLIC "-//W3C//DTD SVG 20010904//EN"
 "http://www.w3.org/TR/2001/REC-SVG-20010904/DTD/svg10.dtd">
<svg version="1.0" xmlns="http://www.w3.org/2000/svg"
 width="32.000000pt" height="32.000000pt" viewBox="0 0 32.000000 32.000000"
 preserveAspectRatio="xMidYMid meet">
<metadata>
Created by potrace 1.16, written by Peter Selinger 2001-2019
</metadata>
<g transform="translate(0.000000,32.000000) scale(0.100000,-0.100000)"
fill="#000000" stroke="none">
<path fill="#000000" stroke="none" d="M0 160 l0 -160 160 0 160 0 0 160 0
160 -160 0 -160 0 0 -160z"/>
<path fill="#ffffff" stroke="none" d="M176 265 c2 -11 -2 -25 -8 -33 -6 -7
-7 -12 -2 -11 23 4 35 -3 49 -31 9 -16 22 -30 30 -30 8 0 15 -7 15 -15 0 -24
-19 -18 -50 15 -35 38 -65 38 -100 0 -31 -33 -50 -39 -50 -15 0 8 7 15 15 15
8 0 21 13 29 29 9 16 22 31 30 34 9 4 13 13 10 22 -8 20 3 48 18 43 6 -2 13
-13 14 -23z"/>
<path fill="#ffffff" stroke="none" d="M172 162 c9 -9 7 -12 -9 -12 -11 0 -23
6 -26 14 -7 17 18 15 35 -2z"/>
<path fill="#ffffff" stroke="none" d="M115 20 c3 -5 1 -10 -4 -10 -6 0 -11 5
-11 10 0 6 2 10 4 10 3 0 8 -4 11 -10z"/>
<path fill="#ffffff" stroke="none" d="M185 20 c3 -5 1 -10 -4 -10 -6 0 -11 5
-11 10 0 6 2 10 4 10 3 0 8 -4 11 -10z"/>
</g>
</svg>
