<?xml version="1.0" standalone="no"?>
<!DOCTYPE svg PUBLIC "-//W3C//DTD SVG 20010904//EN"
 "http://www.w3.org/TR/2001/REC-SVG-20010904/DTD/svg10.dtd">
<svg version="1.0" xmlns="http://www.w3.org/2000/svg"
 width="32.000000pt" height="32.000000pt" viewBox="0 0 32.000000 32.000000"
 preserveAspectRatio="xMidYMid meet">
<metadata>
Created by potrace 1.16, written by Peter Selinger 2001-2019
</metadata>
<g transform="translate(0.000000,32.000000) scale(0.100000,-0.100000)"
fill="#000000" stroke="none">
<path fill="#000000" stroke="none" d="M145 269 c5 -16 4 -19 -5 -14 -8 5 -11
4 -6 -3 4 -6 13 -9 22 -5 11 4 12 9 4 18 -8 9 -7 14 2 18 8 3 6 6 -5 6 -14 1
-17 -4 -12 -20z"/>
<path fill="#000000" stroke="none" d="M180 54 c0 -8 5 -12 10 -9 6 4 8 11 5
16 -9 14 -15 11 -15 -7z"/>
<path fill="#000000" stroke="none" d="M100 20 c0 -5 5 -10 11 -10 5 0 7 5 4
10 -3 6 -8 10 -11 10 -2 0 -4 -4 -4 -10z"/>
<path fill="#000000" stroke="none" d="M170 20 c0 -5 5 -10 11 -10 5 0 7 5 4
10 -3 6 -8 10 -11 10 -2 0 -4 -4 -4 -10z"/>
<path fill="#000000" stroke="none" d="M230 20 c0 -5 5 -10 11 -10 5 0 7 5 4
10 -3 6 -8 10 -11 10 -2 0 -4 -4 -4 -10z"/>
</g>
</svg>
