<?xml version="1.0" standalone="no"?>
<!DOCTYPE svg PUBLIC "-//W3C//DTD SVG 20010904//EN"
 "http://www.w3.org/TR/2001/REC-SVG-20010904/DTD/svg10.dtd">
<svg version="1.0" xmlns="http://www.w3.org/2000/svg"
 width="32.000000pt" height="32.000000pt" viewBox="0 0 32.000000 32.000000"
 preserveAspectRatio="xMidYMid meet">
<metadata>
Created by potrace 1.16, written by Peter Selinger 2001-2019
</metadata>
<g transform="translate(0.000000,32.000000) scale(0.100000,-0.100000)"
fill="#000000" stroke="none">
<path fill="#000000" stroke="none" d="M0 160 l0 -160 160 0 160 0 0 160 0
160 -160 0 -160 0 0 -160z"/>
<path fill="#ffffff" stroke="none" d="M303 185 c-1 -11 -3 -43 -5 -71 l-2
-51 -48 0 -48 -1 1 52 c2 48 2 49 9 16 4 -19 8 -31 9 -26 0 5 8 3 16 -4 11 -9
18 -10 28 -1 8 6 17 8 20 4 4 -3 7 10 7 31 0 22 -4 35 -10 31 -5 -3 -10 -2
-10 2 0 5 -9 9 -20 9 -11 0 -20 -4 -20 -9 0 -4 -5 -5 -10 -2 -21 13 2 24 43
20 29 -3 37 -1 27 5 -20 13 -57 12 -80 0 -16 -9 -18 -8 -14 5 5 12 18 15 58
13 44 -3 51 -6 49 -23z"/>
<path fill="#000000" stroke="none" d="M215 90 c-3 -5 -5 -10 -3 -11 34 -8 48
-6 59 9 13 15 12 16 -3 3 -14 -10 -21 -11 -32 -2 -10 8 -16 9 -21 1z"/>
</g>
</svg>
