<?xml version="1.0" standalone="no"?>
<!DOCTYPE svg PUBLIC "-//W3C//DTD SVG 20010904//EN"
 "http://www.w3.org/TR/2001/REC-SVG-20010904/DTD/svg10.dtd">
<svg version="1.0" xmlns="http://www.w3.org/2000/svg"
 width="32.000000pt" height="32.000000pt" viewBox="0 0 32.000000 32.000000"
 preserveAspectRatio="xMidYMid meet">
<metadata>
Created by potrace 1.16, written by Peter Selinger 2001-2019
</metadata>
<g transform="translate(0.000000,32.000000) scale(0.100000,-0.100000)"
fill="#000000" stroke="none">
<path fill="#000000" stroke="none" d="M217 194 c-16 -16 -7 -91 13 -109 19
-17 21 -17 40 0 16 15 20 29 18 64 -3 43 -5 46 -33 49 -17 2 -34 0 -38 -4z"/>
<path fill="#ffffff" stroke="none" d="M240 165 c0 -14 -4 -25 -10 -25 -5 0
-10 11 -10 25 0 14 5 25 10 25 6 0 10 -11 10 -25z"/>
<path fill="#ffffff" stroke="none" d="M280 121 c0 -10 -8 -25 -17 -32 -15
-12 -16 -12 -10 4 4 10 7 25 7 33 0 8 5 14 10 14 6 0 10 -8 10 -19z"/>
</g>
</svg>
