<?xml version="1.0" standalone="no"?>
<!DOCTYPE svg PUBLIC "-//W3C//DTD SVG 20010904//EN"
 "http://www.w3.org/TR/2001/REC-SVG-20010904/DTD/svg10.dtd">
<svg version="1.0" xmlns="http://www.w3.org/2000/svg"
 width="32.000000pt" height="32.000000pt" viewBox="0 0 32.000000 32.000000"
 preserveAspectRatio="xMidYMid meet">
<metadata>
Created by potrace 1.16, written by Peter Selinger 2001-2019
</metadata>
<g transform="translate(0.000000,32.000000) scale(0.100000,-0.100000)"
fill="#000000" stroke="none">
<path fill="#000000" stroke="none" d="M0 160 l0 -160 160 0 160 0 0 160 0
160 -160 0 -160 0 0 -160z"/>
<path fill="#ffffff" stroke="none" d="M288 149 c2 -35 -2 -49 -18 -64 -19
-17 -21 -17 -40 0 -14 13 -20 31 -20 60 0 50 5 57 45 53 28 -3 30 -6 33 -49z"/>
<path fill="#000000" stroke="none" d="M235 181 c11 -5 23 -7 28 -4 9 5 8 -46
-2 -71 -7 -18 -8 -18 -24 5 -12 17 -17 19 -17 7 0 -8 7 -21 15 -28 25 -20 45
5 45 56 0 43 -1 44 -32 43 -27 0 -29 -2 -13 -8z"/>
</g>
</svg>
