<?xml version="1.0" standalone="no"?>
<!DOCTYPE svg PUBLIC "-//W3C//DTD SVG 20010904//EN"
 "http://www.w3.org/TR/2001/REC-SVG-20010904/DTD/svg10.dtd">
<svg version="1.0" xmlns="http://www.w3.org/2000/svg"
 width="32.000000pt" height="32.000000pt" viewBox="0 0 32.000000 32.000000"
 preserveAspectRatio="xMidYMid meet">
<metadata>
Created by potrace 1.16, written by Peter Selinger 2001-2019
</metadata>
<g transform="translate(0.000000,32.000000) scale(0.100000,-0.100000)"
fill="#000000" stroke="none">
<path fill="#000000" stroke="none" d="M217 194 c-16 -16 -7 -91 13 -109 19
-17 21 -17 40 0 16 15 20 29 18 64 -3 43 -5 46 -33 49 -17 2 -34 0 -38 -4z"/>
<path fill="#ffffff" stroke="none" d="M280 146 c0 -26 -6 -48 -15 -56 -25
-20 -45 5 -45 56 0 42 1 44 30 44 29 0 30 -2 30 -44z"/>
<path fill="#000000" stroke="none" d="M238 170 c14 -16 16 -34 3 -25 -13 7
-5 -35 9 -49 5 -5 10 -8 11 -6 0 3 2 13 4 22 2 12 -2 15 -13 11 -15 -6 -14 -3
2 15 10 11 16 27 13 34 -4 10 -6 10 -6 -1 -1 -11 -4 -11 -18 0 -15 11 -16 11
-5 -1z"/>
</g>
</svg>
