<?xml version="1.0" standalone="no"?>
<!DOCTYPE svg PUBLIC "-//W3C//DTD SVG 20010904//EN"
 "http://www.w3.org/TR/2001/REC-SVG-20010904/DTD/svg10.dtd">
<svg version="1.0" xmlns="http://www.w3.org/2000/svg"
 width="32.000000pt" height="32.000000pt" viewBox="0 0 32.000000 32.000000"
 preserveAspectRatio="xMidYMid meet">
<metadata>
Created by potrace 1.16, written by Peter Selinger 2001-2019
</metadata>
<g transform="translate(0.000000,32.000000) scale(0.100000,-0.100000)"
fill="#000000" stroke="none">
<path fill="#000000" stroke="none" d="M260 255 c0 -14 -8 -29 -20 -35 -33
-18 -26 -115 11 -138 16 -10 24 -9 44 4 21 14 25 24 25 70 0 43 -4 55 -20 64
-12 6 -20 21 -20 35 0 14 -4 25 -10 25 -5 0 -10 -11 -10 -25z"/>
<path fill="#ffffff" stroke="none" d="M275 220 c3 -5 -1 -10 -10 -10 -9 0
-13 5 -10 10 3 6 8 10 10 10 2 0 7 -4 10 -10z"/>
<path fill="#ffffff" stroke="none" d="M295 165 c0 -24 -5 -31 -24 -33 -13 -2
-28 1 -33 6 -6 6 0 8 16 7 15 -2 24 1 21 5 -3 5 -1 11 5 15 16 10 2 25 -23 25
-18 0 -19 -2 -7 -10 13 -8 12 -10 -2 -10 -10 0 -18 4 -18 8 0 16 14 23 40 20
20 -2 25 -8 25 -33z"/>
<path fill="#ffffff" stroke="none" d="M277 105 c0 -11 -4 -12 -14 -4 -7 6
-13 13 -13 15 0 2 6 4 13 4 8 0 14 -7 14 -15z"/>
</g>
</svg>
