<?xml version="1.0" standalone="no"?>
<!DOCTYPE svg PUBLIC "-//W3C//DTD SVG 20010904//EN"
 "http://www.w3.org/TR/2001/REC-SVG-20010904/DTD/svg10.dtd">
<svg version="1.0" xmlns="http://www.w3.org/2000/svg"
 width="32.000000pt" height="32.000000pt" viewBox="0 0 32.000000 32.000000"
 preserveAspectRatio="xMidYMid meet">
<metadata>
Created by potrace 1.16, written by Peter Selinger 2001-2019
</metadata>
<g transform="translate(0.000000,32.000000) scale(0.100000,-0.100000)"
fill="#000000" stroke="none">
<path fill="#000000" stroke="none" d="M226 228 c-10 -13 -15 -41 -15 -68 l2
-45 6 50 c10 76 30 94 65 59 9 -8 16 -12 16 -7 0 15 -23 33 -41 33 -10 0 -25
-10 -33 -22z"/>
<path fill="#000000" stroke="none" d="M302 170 c0 -19 2 -27 5 -17 2 9 2 25
0 35 -3 9 -5 1 -5 -18z"/>
<path fill="#000000" stroke="none" d="M247 174 c-8 -8 1 -24 14 -24 5 0 9 7
9 15 0 15 -12 20 -23 9z"/>
<path fill="#000000" stroke="none" d="M230 86 c0 -2 7 -6 15 -10 8 -3 15 -1
15 4 0 6 -7 10 -15 10 -8 0 -15 -2 -15 -4z"/>
</g>
</svg>
