<?xml version="1.0" standalone="no"?>
<!DOCTYPE svg PUBLIC "-//W3C//DTD SVG 20010904//EN"
 "http://www.w3.org/TR/2001/REC-SVG-20010904/DTD/svg10.dtd">
<svg version="1.0" xmlns="http://www.w3.org/2000/svg"
 width="32.000000pt" height="32.000000pt" viewBox="0 0 32.000000 32.000000"
 preserveAspectRatio="xMidYMid meet">
<metadata>
Created by potrace 1.16, written by Peter Selinger 2001-2019
</metadata>
<g transform="translate(0.000000,32.000000) scale(0.100000,-0.100000)"
fill="#000000" stroke="none">
<path fill="#000000" stroke="none" d="M238 243 c20 -8 14 -43 -8 -43 -13 0
-20 -7 -20 -20 0 -11 7 -20 15 -20 8 0 15 5 15 11 0 5 -4 7 -10 4 -5 -3 -10
-1 -10 4 0 6 7 11 15 11 8 0 15 -9 15 -20 0 -13 -7 -20 -20 -20 -13 0 -20 -7
-20 -20 0 -11 7 -20 15 -20 8 0 15 5 15 11 0 5 -4 7 -10 4 -5 -3 -10 -1 -10 4
0 6 7 11 15 11 8 0 15 -9 15 -20 0 -14 -7 -20 -22 -20 -22 -1 -23 -1 -4 -15
11 -8 23 -15 28 -15 4 0 8 40 8 90 0 79 -2 90 -17 89 -11 0 -13 -3 -5 -6z"/>
<path fill="#000000" stroke="none" d="M271 168 c-1 -80 7 -106 24 -78 3 6 1
10 -4 10 -15 0 -14 37 2 43 10 4 10 6 0 6 -7 1 -13 10 -13 21 0 11 6 20 13 20
9 0 9 2 1 8 -7 4 -14 18 -17 32 -2 14 -5 -14 -6 -62z"/>
<path fill="#000000" stroke="none" d="M210 218 c0 -4 7 -8 15 -8 8 0 15 4 15
8 0 5 -7 9 -15 9 -8 0 -15 -4 -15 -9z"/>
</g>
</svg>
