<?xml version="1.0" standalone="no"?>
<!DOCTYPE svg PUBLIC "-//W3C//DTD SVG 20010904//EN"
 "http://www.w3.org/TR/2001/REC-SVG-20010904/DTD/svg10.dtd">
<svg version="1.0" xmlns="http://www.w3.org/2000/svg"
 width="32.000000pt" height="32.000000pt" viewBox="0 0 32.000000 32.000000"
 preserveAspectRatio="xMidYMid meet">
<metadata>
Created by potrace 1.16, written by Peter Selinger 2001-2019
</metadata>
<g transform="translate(0.000000,32.000000) scale(0.100000,-0.100000)"
fill="#000000" stroke="none">
<path fill="#000000" stroke="none" d="M207 313 c-12 -12 -7 -50 8 -63 8 -7
15 -18 15 -24 0 -12 45 -36 66 -36 7 0 16 5 19 10 8 13 -16 80 -28 80 -5 0
-20 9 -34 20 -28 21 -36 24 -46 13z"/>
<path fill="#ffffff" stroke="none" d="M245 290 c10 -11 23 -20 29 -20 13 0
41 -58 33 -67 -9 -8 -67 20 -67 33 0 6 -7 17 -15 24 -16 13 -21 50 -7 50 5 0
17 -9 27 -20z"/>
<path fill="#000000" stroke="none" d="M220 289 c0 -16 57 -79 71 -79 21 0 4
27 -44 69 -20 18 -27 20 -27 10z"/>
</g>
</svg>
