<?xml version="1.0" standalone="no"?>
<!DOCTYPE svg PUBLIC "-//W3C//DTD SVG 20010904//EN"
 "http://www.w3.org/TR/2001/REC-SVG-20010904/DTD/svg10.dtd">
<svg version="1.0" xmlns="http://www.w3.org/2000/svg"
 width="32.000000pt" height="32.000000pt" viewBox="0 0 32.000000 32.000000"
 preserveAspectRatio="xMidYMid meet">
<metadata>
Created by potrace 1.16, written by Peter Selinger 2001-2019
</metadata>
<g transform="translate(0.000000,32.000000) scale(0.100000,-0.100000)"
fill="#000000" stroke="none">
<path fill="#000000" stroke="none" d="M232 107 c-28 -30 -28 -58 1 -85 29
-28 38 -28 65 1 28 30 28 58 -1 85 -29 28 -38 28 -65 -1z"/>
<path fill="#ffffff" stroke="none" d="M292 103 c22 -20 23 -51 1 -75 -20 -22
-31 -23 -55 -1 -22 20 -23 51 -1 75 20 22 31 23 55 1z"/>
<path fill="#000000" stroke="none" d="M247 92 c-22 -24 -21 -35 1 -56 18 -15
20 -15 35 2 22 24 21 35 -1 56 -18 15 -20 15 -35 -2z"/>
<path fill="#ffffff" stroke="none" d="M281 75 c13 9 11 -19 -3 -33 -8 -8 -15
-9 -25 -1 -15 13 -18 43 -3 34 6 -3 11 2 11 12 1 17 2 17 6 0 2 -9 9 -15 14
-12z"/>
</g>
</svg>
