<?xml version="1.0" standalone="no"?>
<!DOCTYPE svg PUBLIC "-//W3C//DTD SVG 20010904//EN"
 "http://www.w3.org/TR/2001/REC-SVG-20010904/DTD/svg10.dtd">
<svg version="1.0" xmlns="http://www.w3.org/2000/svg"
 width="32.000000pt" height="32.000000pt" viewBox="0 0 32.000000 32.000000"
 preserveAspectRatio="xMidYMid meet">
<metadata>
Created by potrace 1.16, written by Peter Selinger 2001-2019
</metadata>
<g transform="translate(0.000000,32.000000) scale(0.100000,-0.100000)"
fill="#000000" stroke="none">
<path fill="#000000" stroke="none" d="M0 160 l0 -160 160 0 160 0 0 130 c0
72 -3 130 -7 130 -3 0 -15 -7 -24 -16 -17 -15 -21 -15 -61 5 -24 12 -33 19
-22 16 17 -4 22 -1 20 12 -2 25 64 29 81 6 11 -15 13 -14 13 10 l0 27 -160 0
-160 0 0 -160z"/>
<path fill="#000000" stroke="none" d="M230 278 c0 -6 7 -7 16 -4 14 5 15 4 5
-8 -14 -17 2 -31 26 -22 12 5 13 9 3 21 -11 13 -10 14 4 9 9 -3 16 -2 16 4 0
5 -16 10 -35 10 -19 0 -35 -5 -35 -10z"/>
</g>
</svg>
