<?xml version="1.0" standalone="no"?>
<!DOCTYPE svg PUBLIC "-//W3C//DTD SVG 20010904//EN"
 "http://www.w3.org/TR/2001/REC-SVG-20010904/DTD/svg10.dtd">
<svg version="1.0" xmlns="http://www.w3.org/2000/svg"
 width="32.000000pt" height="32.000000pt" viewBox="0 0 32.000000 32.000000"
 preserveAspectRatio="xMidYMid meet">
<metadata>
Created by potrace 1.16, written by Peter Selinger 2001-2019
</metadata>
<g transform="translate(0.000000,32.000000) scale(0.100000,-0.100000)"
fill="#000000" stroke="none">
<path fill="#000000" stroke="none" d="M0 160 l0 -160 160 0 160 0 0 130 c0
72 -4 130 -9 130 -5 0 -14 -7 -21 -15 -14 -17 -36 -20 -45 -5 -3 5 0 7 9 4 27
-10 39 6 20 27 -22 24 -49 26 -39 2 5 -14 3 -15 -6 -6 -18 18 -3 31 36 31 22
0 39 -6 45 -16 8 -14 9 -12 10 11 l0 27 -160 0 -160 0 0 -160z"/>
<path fill="#000000" stroke="none" d="M275 280 c3 -5 10 -10 16 -10 5 0 9 5
9 10 0 6 -7 10 -16 10 -8 0 -12 -4 -9 -10z"/>
</g>
</svg>
