<?xml version="1.0" standalone="no"?>
<!DOCTYPE svg PUBLIC "-//W3C//DTD SVG 20010904//EN"
 "http://www.w3.org/TR/2001/REC-SVG-20010904/DTD/svg10.dtd">
<svg version="1.0" xmlns="http://www.w3.org/2000/svg"
 width="32.000000pt" height="32.000000pt" viewBox="0 0 32.000000 32.000000"
 preserveAspectRatio="xMidYMid meet">
<metadata>
Created by potrace 1.16, written by Peter Selinger 2001-2019
</metadata>
<g transform="translate(0.000000,32.000000) scale(0.100000,-0.100000)"
fill="#000000" stroke="none">
<path fill="#000000" stroke="none" d="M0 160 l0 -160 160 0 160 0 0 105 c0
71 -4 105 -11 105 -8 0 -8 4 -1 13 5 6 9 30 8 52 l-2 40 -157 3 -157 3 0 -161z"/>
<path fill="#ffffff" stroke="none" d="M305 267 c0 -37 -3 -42 -21 -41 -16 0
-20 -4 -17 -15 4 -12 3 -13 -6 -5 -8 8 -8 18 0 42 6 18 8 39 5 47 -4 11 1 15
17 15 19 0 22 -5 22 -43z"/>
<path fill="#ffffff" stroke="none" d="M260 275 c0 -8 -4 -15 -10 -15 -5 0
-10 7 -10 15 0 8 5 15 10 15 6 0 10 -7 10 -15z"/>
</g>
</svg>
