<?xml version="1.0" standalone="no"?>
<!DOCTYPE svg PUBLIC "-//W3C//DTD SVG 20010904//EN"
 "http://www.w3.org/TR/2001/REC-SVG-20010904/DTD/svg10.dtd">
<svg version="1.0" xmlns="http://www.w3.org/2000/svg"
 width="32.000000pt" height="32.000000pt" viewBox="0 0 32.000000 32.000000"
 preserveAspectRatio="xMidYMid meet">
<metadata>
Created by potrace 1.16, written by Peter Selinger 2001-2019
</metadata>
<g transform="translate(0.000000,32.000000) scale(0.100000,-0.100000)"
fill="#000000" stroke="none">
<path fill="#000000" stroke="none" d="M0 160 l0 -160 160 0 160 0 0 160 0
160 -160 0 -160 0 0 -160z"/>
<path fill="#ffffff" stroke="none" d="M268 267 c36 -36 37 -40 37 -107 0 -67
-1 -71 -38 -107 -36 -37 -40 -38 -107 -38 -67 0 -71 1 -107 38 -37 36 -38 40
-38 107 0 63 3 71 30 100 41 43 60 50 128 47 52 -3 62 -7 95 -40z"/>
<path fill="#000000" stroke="none" d="M89 273 c-80 -49 -79 -179 1 -227 60
-35 150 -13 184 44 35 60 13 150 -44 184 -36 20 -107 20 -141 -1z"/>
</g>
</svg>
