<?xml version="1.0" standalone="no"?>
<!DOCTYPE svg PUBLIC "-//W3C//DTD SVG 20010904//EN"
 "http://www.w3.org/TR/2001/REC-SVG-20010904/DTD/svg10.dtd">
<svg version="1.0" xmlns="http://www.w3.org/2000/svg"
 width="32.000000pt" height="32.000000pt" viewBox="0 0 32.000000 32.000000"
 preserveAspectRatio="xMidYMid meet">
<metadata>
Created by potrace 1.16, written by Peter Selinger 2001-2019
</metadata>
<g transform="translate(0.000000,32.000000) scale(0.100000,-0.100000)"
fill="#000000" stroke="none">
<path fill="#000000" stroke="none" d="M232 282 l-24 -18 26 -17 c31 -21 35
-21 64 1 l24 18 -26 17 c-31 21 -35 21 -64 -1z"/>
<path fill="#ffffff" stroke="none" d="M292 277 c15 -12 15 -14 -4 -26 -17
-10 -25 -10 -44 0 -22 11 -22 13 -6 25 21 17 33 17 54 1z"/>
<path fill="#000000" stroke="none" d="M250 265 c0 -8 7 -15 15 -15 8 0 15 7
15 15 0 8 -7 15 -15 15 -8 0 -15 -7 -15 -15z"/>
</g>
</svg>
