<?xml version="1.0" standalone="no"?>
<!DOCTYPE svg PUBLIC "-//W3C//DTD SVG 20010904//EN"
 "http://www.w3.org/TR/2001/REC-SVG-20010904/DTD/svg10.dtd">
<svg version="1.0" xmlns="http://www.w3.org/2000/svg"
 width="32.000000pt" height="32.000000pt" viewBox="0 0 32.000000 32.000000"
 preserveAspectRatio="xMidYMid meet">
<metadata>
Created by potrace 1.16, written by Peter Selinger 2001-2019
</metadata>
<g transform="translate(0.000000,32.000000) scale(0.100000,-0.100000)"
fill="#000000" stroke="none">
<path fill="#000000" stroke="none" d="M231 281 c-17 -13 -20 -20 -12 -26 7
-4 15 -4 18 -1 4 3 0 6 -8 6 -11 0 -11 2 1 10 11 7 17 5 20 -6 5 -14 7 -14 19
0 12 14 11 16 -5 17 -18 0 -18 1 1 9 13 6 15 9 5 9 -8 0 -26 -8 -39 -18z"/>
</g>
</svg>
