<?xml version="1.0" standalone="no"?>
<!DOCTYPE svg PUBLIC "-//W3C//DTD SVG 20010904//EN"
 "http://www.w3.org/TR/2001/REC-SVG-20010904/DTD/svg10.dtd">
<svg version="1.0" xmlns="http://www.w3.org/2000/svg"
 width="32.000000pt" height="32.000000pt" viewBox="0 0 32.000000 32.000000"
 preserveAspectRatio="xMidYMid meet">
<metadata>
Created by potrace 1.16, written by Peter Selinger 2001-2019
</metadata>
<g transform="translate(0.000000,32.000000) scale(0.100000,-0.100000)"
fill="#000000" stroke="none">
<path fill="#000000" stroke="none" d="M0 160 l0 -160 160 0 160 0 -1 160 -1
160 -159 0 -159 0 0 -160z"/>
<path fill="#ffffff" stroke="none" d="M295 283 c14 -11 15 -14 3 -10 -10 4
-18 -1 -21 -14 -5 -17 -3 -18 9 -8 8 6 17 10 19 7 3 -3 -6 -10 -19 -17 -20
-11 -28 -10 -51 5 l-27 18 24 18 c28 22 37 22 63 1z"/>
</g>
</svg>
