<?xml version="1.0" standalone="no"?>
<!DOCTYPE svg PUBLIC "-//W3C//DTD SVG 20010904//EN"
 "http://www.w3.org/TR/2001/REC-SVG-20010904/DTD/svg10.dtd">
<svg version="1.0" xmlns="http://www.w3.org/2000/svg"
 width="32.000000pt" height="32.000000pt" viewBox="0 0 32.000000 32.000000"
 preserveAspectRatio="xMidYMid meet">
<metadata>
Created by potrace 1.16, written by Peter Selinger 2001-2019
</metadata>
<g transform="translate(0.000000,32.000000) scale(0.100000,-0.100000)"
fill="#000000" stroke="none">
<path fill="#000000" stroke="none" d="M0 160 l0 -160 160 0 160 0 0 115 c0
70 -4 115 -10 115 -5 0 -10 -6 -11 -12 0 -7 -4 -4 -9 7 -5 11 -9 14 -9 7 -1
-7 -5 -11 -10 -7 -6 3 -14 -2 -20 -12 -8 -16 -10 -15 -16 9 -4 15 -4 31 -1 37
3 5 0 11 -6 14 -9 3 -7 10 6 23 16 15 17 16 7 2 -12 -15 -11 -18 4 -18 10 0
15 6 13 18 -3 15 -19 17 -131 20 l-127 3 0 -161z"/>
<path fill="#000000" stroke="none" d="M283 305 c-3 -9 -3 -18 0 -22 10 -10
37 6 37 22 0 20 -29 20 -37 0z"/>
<path fill="#000000" stroke="none" d="M252 259 c-16 -25 -10 -36 8 -14 9 10
17 12 30 5 13 -7 19 -6 23 5 4 9 1 12 -7 9 -8 -3 -17 -1 -21 5 -9 16 -19 13
-33 -10z"/>
</g>
</svg>
