<?xml version="1.0" standalone="no"?>
<!DOCTYPE svg PUBLIC "-//W3C//DTD SVG 20010904//EN"
 "http://www.w3.org/TR/2001/REC-SVG-20010904/DTD/svg10.dtd">
<svg version="1.0" xmlns="http://www.w3.org/2000/svg"
 width="32.000000pt" height="32.000000pt" viewBox="0 0 32.000000 32.000000"
 preserveAspectRatio="xMidYMid meet">
<metadata>
Created by potrace 1.16, written by Peter Selinger 2001-2019
</metadata>
<g transform="translate(0.000000,32.000000) scale(0.100000,-0.100000)"
fill="#000000" stroke="none">
<path fill="#000000" stroke="none" d="M254 303 c-3 -10 -10 -26 -15 -36 -13
-24 5 -47 36 -47 31 0 49 23 36 47 -5 10 -12 26 -15 36 -3 9 -12 17 -21 17 -9
0 -18 -8 -21 -17z"/>
<path fill="#ffffff" stroke="none" d="M287 303 c-4 -3 0 -17 8 -30 19 -28 12
-43 -20 -43 -32 0 -39 15 -20 43 8 13 12 27 8 30 -3 4 2 7 12 7 10 0 15 -3 12
-7z"/>
</g>
</svg>
