<?xml version="1.0" standalone="no"?>
<!DOCTYPE svg PUBLIC "-//W3C//DTD SVG 20010904//EN"
 "http://www.w3.org/TR/2001/REC-SVG-20010904/DTD/svg10.dtd">
<svg version="1.0" xmlns="http://www.w3.org/2000/svg"
 width="32.000000pt" height="32.000000pt" viewBox="0 0 32.000000 32.000000"
 preserveAspectRatio="xMidYMid meet">
<metadata>
Created by potrace 1.16, written by Peter Selinger 2001-2019
</metadata>
<g transform="translate(0.000000,32.000000) scale(0.100000,-0.100000)"
fill="#000000" stroke="none">
<path fill="#000000" stroke="none" d="M232 301 c0 -3 -1 -8 -2 -11 -8 -21 -5
-50 7 -50 7 0 13 -10 13 -22 0 -17 3 -19 9 -10 4 8 11 13 15 13 3 -1 6 2 5 6
0 3 6 10 15 15 12 6 14 14 7 26 -5 9 -8 21 -8 26 1 5 -12 10 -30 11 -17 1 -32
-1 -31 -4z"/>
<path fill="#ffffff" stroke="none" d="M290 259 c0 -5 -11 -9 -25 -9 -14 0
-25 4 -25 9 0 5 11 9 25 9 14 0 25 -4 25 -9z"/>
</g>
</svg>
