<?xml version="1.0" standalone="no"?>
<!DOCTYPE svg PUBLIC "-//W3C//DTD SVG 20010904//EN"
 "http://www.w3.org/TR/2001/REC-SVG-20010904/DTD/svg10.dtd">
<svg version="1.0" xmlns="http://www.w3.org/2000/svg"
 width="32.000000pt" height="32.000000pt" viewBox="0 0 32.000000 32.000000"
 preserveAspectRatio="xMidYMid meet">
<metadata>
Created by potrace 1.16, written by Peter Selinger 2001-2019
</metadata>
<g transform="translate(0.000000,32.000000) scale(0.100000,-0.100000)"
fill="#000000" stroke="none">
<path fill="#000000" stroke="none" d="M0 160 l0 -160 160 0 160 0 0 160 0
160 -160 0 -160 0 0 -160z"/>
<path fill="#ffffff" stroke="none" d="M269 54 c-24 -24 -50 -44 -58 -44 -9 0
8 23 39 55 30 31 57 50 59 44 2 -6 -16 -31 -40 -55z"/>
<path fill="#ffffff" stroke="none" d="M90 45 c46 -24 58 -34 42 -35 -27 0
-122 46 -122 60 0 15 9 12 80 -25z"/>
<path fill="#ffffff" stroke="none" d="M295 30 c-10 -11 -23 -20 -28 -20 -6 0
0 11 13 25 27 29 42 25 15 -5z"/>
<path fill="#ffffff" stroke="none" d="M63 13 c-15 -5 -53 15 -53 28 0 5 15 2
33 -7 17 -10 27 -19 20 -21z"/>
</g>
</svg>
