<?xml version="1.0" standalone="no"?>
<!DOCTYPE svg PUBLIC "-//W3C//DTD SVG 20010904//EN"
 "http://www.w3.org/TR/2001/REC-SVG-20010904/DTD/svg10.dtd">
<svg version="1.0" xmlns="http://www.w3.org/2000/svg"
 width="32.000000pt" height="32.000000pt" viewBox="0 0 32.000000 32.000000"
 preserveAspectRatio="xMidYMid meet">
<metadata>
Created by potrace 1.16, written by Peter Selinger 2001-2019
</metadata>
<g transform="translate(0.000000,32.000000) scale(0.100000,-0.100000)"
fill="#000000" stroke="none">
<path fill="#000000" stroke="none" d="M250 65 c-31 -32 -48 -55 -39 -55 19 0
102 85 98 99 -2 6 -29 -13 -59 -44z"/>
<path fill="#000000" stroke="none" d="M10 72 c0 -10 118 -67 125 -61 2 3 -25
19 -60 37 -36 17 -65 28 -65 24z"/>
<path fill="#000000" stroke="none" d="M280 35 c-13 -14 -19 -25 -13 -25 12 0
48 38 41 45 -2 3 -15 -6 -28 -20z"/>
<path fill="#000000" stroke="none" d="M30 25 c14 -8 30 -14 35 -14 6 0 -1 6
-15 14 -14 8 -29 14 -35 14 -5 0 1 -6 15 -14z"/>
</g>
</svg>
