<?xml version="1.0" standalone="no"?>
<!DOCTYPE svg PUBLIC "-//W3C//DTD SVG 20010904//EN"
 "http://www.w3.org/TR/2001/REC-SVG-20010904/DTD/svg10.dtd">
<svg version="1.0" xmlns="http://www.w3.org/2000/svg"
 width="32.000000pt" height="32.000000pt" viewBox="0 0 32.000000 32.000000"
 preserveAspectRatio="xMidYMid meet">
<metadata>
Created by potrace 1.16, written by Peter Selinger 2001-2019
</metadata>
<g transform="translate(0.000000,32.000000) scale(0.100000,-0.100000)"
fill="#000000" stroke="none">
<path fill="#000000" stroke="none" d="M223 294 c-7 -19 4 -30 42 -38 22 -5
26 -4 15 4 -8 5 -23 10 -32 10 -10 0 -18 7 -18 15 0 8 5 15 11 15 5 0 7 -5 3
-12 -4 -7 -3 -8 5 -4 12 8 6 26 -10 26 -5 0 -12 -7 -16 -16z"/>
<path fill="#000000" stroke="none" d="M250 240 c8 -5 22 -9 30 -9 10 0 8 3
-5 9 -27 12 -43 12 -25 0z"/>
</g>
</svg>
