<?xml version="1.0" standalone="no"?>
<!DOCTYPE svg PUBLIC "-//W3C//DTD SVG 20010904//EN"
 "http://www.w3.org/TR/2001/REC-SVG-20010904/DTD/svg10.dtd">
<svg version="1.0" xmlns="http://www.w3.org/2000/svg"
 width="32.000000pt" height="32.000000pt" viewBox="0 0 32.000000 32.000000"
 preserveAspectRatio="xMidYMid meet">
<metadata>
Created by potrace 1.16, written by Peter Selinger 2001-2019
</metadata>
<g transform="translate(0.000000,32.000000) scale(0.100000,-0.100000)"
fill="#000000" stroke="none">
<path fill="#000000" stroke="none" d="M0 161 l0 -161 161 0 161 0 -3 113 c-1
61 -7 120 -13 130 -8 12 -7 23 3 40 13 20 13 21 -2 8 -20 -16 -22 -42 -4 -60
10 -11 8 -13 -10 -8 -15 3 -20 1 -16 -9 3 -9 -2 -14 -15 -14 -18 0 -20 6 -19
40 1 30 5 39 16 35 11 -4 12 -3 1 10 -10 13 -9 15 8 15 12 0 23 3 25 8 3 4
-62 9 -144 10 l-149 4 0 -161z"/>
</g>
</svg>
