<?xml version="1.0" standalone="no"?>
<!DOCTYPE svg PUBLIC "-//W3C//DTD SVG 20010904//EN"
 "http://www.w3.org/TR/2001/REC-SVG-20010904/DTD/svg10.dtd">
<svg version="1.0" xmlns="http://www.w3.org/2000/svg"
 width="32.000000pt" height="32.000000pt" viewBox="0 0 32.000000 32.000000"
 preserveAspectRatio="xMidYMid meet">
<metadata>
Created by potrace 1.16, written by Peter Selinger 2001-2019
</metadata>
<g transform="translate(0.000000,32.000000) scale(0.100000,-0.100000)"
fill="#000000" stroke="none">
<path fill="#000000" stroke="none" d="M0 160 l0 -160 160 0 160 0 0 103 0
103 -60 -10 c-33 -5 -63 -7 -67 -3 -4 4 -2 34 3 67 l10 60 -103 0 -103 0 0
-160z"/>
<path fill="#000000" stroke="none" d="M234 295 c-3 -8 -3 -18 0 -23 3 -5 -3
-17 -14 -27 -22 -20 -27 -45 -8 -45 6 0 20 8 30 17 11 10 29 18 41 18 29 0 33
29 8 54 -24 24 -49 27 -57 6z"/>
<path fill="#ffffff" stroke="none" d="M284 284 c22 -22 20 -46 -3 -42 -10 2
-28 -6 -40 -16 -27 -25 -40 -12 -15 15 10 12 18 30 16 40 -4 23 20 25 42 3z"/>
</g>
</svg>
