<?xml version="1.0" standalone="no"?>
<!DOCTYPE svg PUBLIC "-//W3C//DTD SVG 20010904//EN"
 "http://www.w3.org/TR/2001/REC-SVG-20010904/DTD/svg10.dtd">
<svg version="1.0" xmlns="http://www.w3.org/2000/svg"
 width="32.000000pt" height="32.000000pt" viewBox="0 0 32.000000 32.000000"
 preserveAspectRatio="xMidYMid meet">
<metadata>
Created by potrace 1.16, written by Peter Selinger 2001-2019
</metadata>
<g transform="translate(0.000000,32.000000) scale(0.100000,-0.100000)"
fill="#000000" stroke="none">
<path fill="#000000" stroke="none" d="M14 299 c-12 -14 -15 -23 -8 -26 6 -2
9 -15 6 -30 -4 -24 -3 -25 19 -19 13 4 34 7 46 7 19 -1 22 4 21 27 -3 57 -49
80 -84 41z"/>
<path fill="#ffffff" stroke="none" d="M65 270 c14 -7 25 -17 25 -22 0 -5 -8
-5 -17 1 -13 7 -23 5 -35 -6 -10 -9 -18 -11 -18 -5 0 6 5 14 10 17 16 10 12
25 -6 25 -14 0 -15 2 -3 17 12 14 14 14 17 1 2 -8 14 -21 27 -28z"/>
<path fill="#ffffff" stroke="none" d="M80 295 c10 -12 10 -15 -4 -15 -9 0
-16 7 -16 15 0 8 2 15 4 15 2 0 9 -7 16 -15z"/>
</g>
</svg>
