<?xml version="1.0" standalone="no"?>
<!DOCTYPE svg PUBLIC "-//W3C//DTD SVG 20010904//EN"
 "http://www.w3.org/TR/2001/REC-SVG-20010904/DTD/svg10.dtd">
<svg version="1.0" xmlns="http://www.w3.org/2000/svg"
 width="32.000000pt" height="32.000000pt" viewBox="0 0 32.000000 32.000000"
 preserveAspectRatio="xMidYMid meet">
<metadata>
Created by potrace 1.16, written by Peter Selinger 2001-2019
</metadata>
<g transform="translate(0.000000,32.000000) scale(0.100000,-0.100000)"
fill="#000000" stroke="none">
<path fill="#000000" stroke="none" d="M0 160 l0 -160 160 0 161 0 -2 159 -1
159 -159 1 -159 1 0 -160z"/>
<path fill="#ffffff" stroke="none" d="M288 252 c16 12 16 11 2 -6 -14 -18
-13 -19 3 -13 10 4 16 3 13 -2 -6 -9 -73 -7 -84 4 -4 3 0 5 8 3 8 -2 14 3 12
10 -1 8 2 11 8 7 6 -4 11 6 12 22 1 25 2 25 5 -5 4 -30 6 -32 21 -20z"/>
</g>
</svg>
