<?xml version="1.0" standalone="no"?>
<!DOCTYPE svg PUBLIC "-//W3C//DTD SVG 20010904//EN"
 "http://www.w3.org/TR/2001/REC-SVG-20010904/DTD/svg10.dtd">
<svg version="1.0" xmlns="http://www.w3.org/2000/svg"
 width="32.000000pt" height="32.000000pt" viewBox="0 0 32.000000 32.000000"
 preserveAspectRatio="xMidYMid meet">
<metadata>
Created by potrace 1.16, written by Peter Selinger 2001-2019
</metadata>
<g transform="translate(0.000000,32.000000) scale(0.100000,-0.100000)"
fill="#000000" stroke="none">
<path fill="#000000" stroke="none" d="M0 160 l0 -160 160 0 160 0 0 160 0
160 -160 0 -160 0 0 -160z"/>
<path fill="#ffffff" stroke="none" d="M171 115 l2 -30 7 30 c6 24 7 21 4 -14
-2 -24 -4 -54 -4 -67 0 -17 -6 -24 -20 -24 -14 0 -20 7 -20 24 0 13 -3 44 -6
69 -6 42 -5 46 15 44 16 -1 21 -8 22 -32z"/>
<path fill="#000000" stroke="none" d="M156 80 c3 -30 7 -56 10 -59 7 -7 2 63
-6 89 -6 17 -7 7 -4 -30z"/>
</g>
</svg>
