<?xml version="1.0" standalone="no"?>
<!DOCTYPE svg PUBLIC "-//W3C//DTD SVG 20010904//EN"
 "http://www.w3.org/TR/2001/REC-SVG-20010904/DTD/svg10.dtd">
<svg version="1.0" xmlns="http://www.w3.org/2000/svg"
 width="32.000000pt" height="32.000000pt" viewBox="0 0 32.000000 32.000000"
 preserveAspectRatio="xMidYMid meet">
<metadata>
Created by potrace 1.16, written by Peter Selinger 2001-2019
</metadata>
<g transform="translate(0.000000,32.000000) scale(0.100000,-0.100000)"
fill="#000000" stroke="none">
<path fill="#000000" stroke="none" d="M0 160 l0 -160 160 0 160 0 0 160 0
160 -160 0 -160 0 0 -160z"/>
<path fill="#ffffff" stroke="none" d="M201 95 c7 -31 16 -58 21 -61 13 -8 9
-24 -6 -24 -13 0 -26 26 -41 78 -3 12 -10 22 -15 22 -5 0 -12 -10 -15 -22 -15
-52 -28 -78 -41 -78 -15 0 -19 16 -6 24 5 3 14 30 21 61 12 51 15 55 41 55 26
0 29 -4 41 -55z"/>
</g>
</svg>
