<?xml version="1.0" standalone="no"?>
<!DOCTYPE svg PUBLIC "-//W3C//DTD SVG 20010904//EN"
 "http://www.w3.org/TR/2001/REC-SVG-20010904/DTD/svg10.dtd">
<svg version="1.0" xmlns="http://www.w3.org/2000/svg"
 width="32.000000pt" height="32.000000pt" viewBox="0 0 32.000000 32.000000"
 preserveAspectRatio="xMidYMid meet">
<metadata>
Created by potrace 1.16, written by Peter Selinger 2001-2019
</metadata>
<g transform="translate(0.000000,32.000000) scale(0.100000,-0.100000)"
fill="#000000" stroke="none">
<path fill="#000000" stroke="none" d="M0 160 l0 -160 160 0 160 0 0 160 0
160 -160 0 -160 0 0 -160z"/>
<path fill="#ffffff" stroke="none" d="M179 131 c6 -10 7 -21 4 -25 -3 -3 -1
-6 5 -6 7 0 12 -9 12 -20 0 -31 -18 -24 -25 11 -5 21 -11 29 -22 25 -8 -3 -16
-6 -19 -6 -2 0 -1 -6 1 -12 5 -14 -11 -45 -19 -37 -3 2 0 24 6 47 11 46 39 57
57 23z"/>
<path fill="#ffffff" stroke="none" d="M128 38 c-3 -7 -13 -15 -24 -17 -16 -3
-17 -1 -5 13 16 19 34 21 29 4z"/>
<path fill="#ffffff" stroke="none" d="M218 31 c3 -8 -1 -12 -9 -9 -7 2 -15
10 -17 17 -3 8 1 12 9 9 7 -2 15 -10 17 -17z"/>
</g>
</svg>
