<?xml version="1.0" standalone="no"?>
<!DOCTYPE svg PUBLIC "-//W3C//DTD SVG 20010904//EN"
 "http://www.w3.org/TR/2001/REC-SVG-20010904/DTD/svg10.dtd">
<svg version="1.0" xmlns="http://www.w3.org/2000/svg"
 width="32.000000pt" height="32.000000pt" viewBox="0 0 32.000000 32.000000"
 preserveAspectRatio="xMidYMid meet">
<metadata>
Created by potrace 1.16, written by Peter Selinger 2001-2019
</metadata>
<g transform="translate(0.000000,32.000000) scale(0.100000,-0.100000)"
fill="#000000" stroke="none">
<path fill="#000000" stroke="none" d="M119 95 c-7 -31 -16 -58 -21 -61 -13
-8 -9 -24 6 -24 12 0 22 19 40 73 7 22 25 22 32 0 18 -54 28 -73 40 -73 15 0
19 16 6 24 -5 3 -14 30 -21 61 -12 51 -15 55 -41 55 -26 0 -29 -4 -41 -55z"/>
</g>
</svg>
