<?xml version="1.0" standalone="no"?>
<!DOCTYPE svg PUBLIC "-//W3C//DTD SVG 20010904//EN"
 "http://www.w3.org/TR/2001/REC-SVG-20010904/DTD/svg10.dtd">
<svg version="1.0" xmlns="http://www.w3.org/2000/svg"
 width="32.000000pt" height="32.000000pt" viewBox="0 0 32.000000 32.000000"
 preserveAspectRatio="xMidYMid meet">
<metadata>
Created by potrace 1.16, written by Peter Selinger 2001-2019
</metadata>
<g transform="translate(0.000000,32.000000) scale(0.100000,-0.100000)"
fill="#000000" stroke="none">
<path fill="#000000" stroke="none" d="M143 143 c-18 -7 -16 -38 2 -53 8 -7
12 -17 8 -24 -3 -6 3 -3 13 6 21 21 29 75 8 57 -8 -7 -14 -6 -20 2 -4 8 -3 9
4 5 7 -4 12 -2 12 3 0 12 -7 13 -27 4z"/>
<path fill="#ffffff" stroke="none" d="M180 94 c0 -8 -19 -13 -24 -6 -3 5 1 9
9 9 8 0 15 -2 15 -3z"/>
</g>
</svg>
