<?xml version="1.0" standalone="no"?>
<!DOCTYPE svg PUBLIC "-//W3C//DTD SVG 20010904//EN"
 "http://www.w3.org/TR/2001/REC-SVG-20010904/DTD/svg10.dtd">
<svg version="1.0" xmlns="http://www.w3.org/2000/svg"
 width="32.000000pt" height="32.000000pt" viewBox="0 0 32.000000 32.000000"
 preserveAspectRatio="xMidYMid meet">
<metadata>
Created by potrace 1.16, written by Peter Selinger 2001-2019
</metadata>
<g transform="translate(0.000000,32.000000) scale(0.100000,-0.100000)"
fill="#000000" stroke="none">
<path fill="#000000" stroke="none" d="M0 160 l0 -160 160 0 160 0 0 160 0
160 -160 0 -160 0 0 -160z"/>
<path fill="#ffffff" stroke="none" d="M184 128 c19 -32 28 -76 16 -83 -5 -3
-10 2 -10 11 0 16 -1 16 -15 -2 -14 -18 -14 -18 -15 6 -1 24 -1 24 -15 6 -11
-14 -15 -16 -15 -5 0 12 -2 12 -11 -1 -9 -13 -10 -13 -6 2 3 9 9 33 13 52 7
42 36 49 58 14z"/>
</g>
</svg>
