<?xml version="1.0" standalone="no"?>
<!DOCTYPE svg PUBLIC "-//W3C//DTD SVG 20010904//EN"
 "http://www.w3.org/TR/2001/REC-SVG-20010904/DTD/svg10.dtd">
<svg version="1.0" xmlns="http://www.w3.org/2000/svg"
 width="32.000000pt" height="32.000000pt" viewBox="0 0 32.000000 32.000000"
 preserveAspectRatio="xMidYMid meet">
<metadata>
Created by potrace 1.16, written by Peter Selinger 2001-2019
</metadata>
<g transform="translate(0.000000,32.000000) scale(0.100000,-0.100000)"
fill="#000000" stroke="none">
<path fill="#000000" stroke="none" d="M126 225 c-9 -14 -28 -28 -42 -31 -23
-6 -25 -11 -20 -37 3 -16 6 -38 6 -48 0 -13 7 -19 23 -19 12 0 35 -9 51 -19
l30 -20 33 30 c19 16 37 29 41 29 4 0 13 14 19 30 9 25 9 30 -3 30 -8 0 -14 9
-14 20 0 11 -7 20 -15 20 -9 0 -33 9 -54 20 l-39 19 -16 -24z"/>
<path fill="#ffffff" stroke="none" d="M186 185 c4 -15 11 -22 18 -18 6 3 8 3
4 -2 -16 -17 -70 -15 -85 2 -8 10 -11 12 -7 4 5 -9 3 -12 -5 -7 -15 9 -5 25
23 36 35 14 45 11 52 -15z"/>
<path fill="#ffffff" stroke="none" d="M161 143 c16 4 18 3 9 -8 -6 -7 -8 -25
-4 -39 6 -26 6 -26 -22 -11 -16 8 -36 15 -45 15 -12 0 -18 11 -21 38 l-3 38
33 -19 c18 -11 42 -17 53 -14z"/>
<path fill="#000000" stroke="none" d="M148 191 c-10 -3 -14 -11 -10 -17 4 -6
15 -9 24 -5 10 3 14 11 10 17 -4 6 -15 9 -24 5z"/>
</g>
</svg>
