<?xml version="1.0" standalone="no"?>
<!DOCTYPE svg PUBLIC "-//W3C//DTD SVG 20010904//EN"
 "http://www.w3.org/TR/2001/REC-SVG-20010904/DTD/svg10.dtd">
<svg version="1.0" xmlns="http://www.w3.org/2000/svg"
 width="32.000000pt" height="32.000000pt" viewBox="0 0 32.000000 32.000000"
 preserveAspectRatio="xMidYMid meet">
<metadata>
Created by potrace 1.16, written by Peter Selinger 2001-2019
</metadata>
<g transform="translate(0.000000,32.000000) scale(0.100000,-0.100000)"
fill="#000000" stroke="none">
<path fill="#000000" stroke="none" d="M0 160 l0 -160 160 0 160 0 0 160 0
160 -160 0 -160 0 0 -160z"/>
<path fill="#ffffff" stroke="none" d="M171 211 c35 18 38 5 8 -31 -24 -28
-29 -31 -29 -14 0 13 -7 20 -20 20 -11 0 -20 -4 -20 -9 0 -5 -6 -7 -14 -4 -8
3 -17 2 -20 -4 -2 -5 -3 -4 -2 3 2 7 8 12 14 11 6 -2 21 10 34 26 20 24 23 25
26 9 3 -15 7 -16 23 -7z"/>
<path fill="#ffffff" stroke="none" d="M239 231 c9 -6 10 -11 2 -15 -6 -4 -11
-3 -11 3 0 5 -8 12 -17 14 -13 3 -14 5 -3 6 8 0 21 -3 29 -8z"/>
<path fill="#ffffff" stroke="none" d="M211 172 c-5 -10 -17 -24 -25 -31 -8
-7 -12 -20 -9 -28 5 -13 2 -12 -13 3 -18 17 -18 19 -2 22 9 2 24 14 32 28 19
28 31 33 17 6z"/>
<path fill="#000000" stroke="none" d="M125 200 c-3 -5 -1 -10 4 -10 6 0 11 5
11 10 0 6 -2 10 -4 10 -3 0 -8 -4 -11 -10z"/>
<path fill="#000000" stroke="none" d="M170 200 c-8 -5 -12 -12 -9 -15 4 -3
12 1 19 10 14 17 11 19 -10 5z"/>
</g>
</svg>
