<?xml version="1.0" standalone="no"?>
<!DOCTYPE svg PUBLIC "-//W3C//DTD SVG 20010904//EN"
 "http://www.w3.org/TR/2001/REC-SVG-20010904/DTD/svg10.dtd">
<svg version="1.0" xmlns="http://www.w3.org/2000/svg"
 width="32.000000pt" height="32.000000pt" viewBox="0 0 32.000000 32.000000"
 preserveAspectRatio="xMidYMid meet">
<metadata>
Created by potrace 1.16, written by Peter Selinger 2001-2019
</metadata>
<g transform="translate(0.000000,32.000000) scale(0.100000,-0.100000)"
fill="#000000" stroke="none">
<path fill="#000000" stroke="none" d="M120 209 c-14 -14 -31 -28 -38 -30 -8
-3 -10 -16 -6 -41 6 -31 11 -37 39 -42 18 -4 38 -13 44 -20 10 -11 16 -9 39
13 15 15 32 30 38 32 6 2 9 19 7 39 -4 31 -11 38 -51 55 l-47 20 -25 -26z"/>
</g>
</svg>
