<?xml version="1.0" standalone="no"?>
<!DOCTYPE svg PUBLIC "-//W3C//DTD SVG 20010904//EN"
 "http://www.w3.org/TR/2001/REC-SVG-20010904/DTD/svg10.dtd">
<svg version="1.0" xmlns="http://www.w3.org/2000/svg"
 width="32.000000pt" height="32.000000pt" viewBox="0 0 32.000000 32.000000"
 preserveAspectRatio="xMidYMid meet">
<metadata>
Created by potrace 1.16, written by Peter Selinger 2001-2019
</metadata>
<g transform="translate(0.000000,32.000000) scale(0.100000,-0.100000)"
fill="#000000" stroke="none">
<path fill="#000000" stroke="none" d="M54 235 c-4 -8 -11 -12 -17 -8 -6 4 -7
1 -3 -6 5 -7 14 -10 22 -7 12 4 12 2 3 -15 -10 -19 -9 -20 11 -9 12 6 24 9 28
6 3 -3 0 -6 -6 -6 -7 0 -12 -7 -12 -16 0 -9 -5 -12 -12 -8 -7 4 -10 4 -6 -1 4
-4 3 -17 -3 -28 -8 -15 -8 -18 1 -12 7 4 16 1 22 -6 7 -11 8 -10 6 5 -2 10 3
21 10 23 7 3 12 1 11 -4 -3 -14 12 -43 23 -43 7 0 6 5 -1 14 -9 10 -7 17 6 27
15 12 16 12 10 -3 -8 -23 13 -19 31 5 15 20 68 23 75 5 4 -10 6 -10 6 0 1 7 7
10 14 7 6 -4 -1 5 -18 19 -26 23 -52 32 -78 27 -5 -1 -6 3 -2 8 7 12 -71 35
-87 25 -7 -4 -8 -3 -4 4 4 7 1 12 -9 12 -8 0 -18 -7 -21 -15z"/>
<path fill="#ffffff" stroke="none" d="M150 210 c0 -5 -2 -10 -4 -10 -3 0 -8
5 -11 10 -3 6 -1 10 4 10 6 0 11 -4 11 -10z"/>
<path fill="#ffffff" stroke="none" d="M225 180 c3 -5 1 -10 -4 -10 -6 0 -11
5 -11 10 0 6 2 10 4 10 3 0 8 -4 11 -10z"/>
<path fill="#000000" stroke="none" d="M190 128 c0 -20 1 -21 20 -3 11 10 20
20 20 22 0 1 -9 3 -20 3 -14 0 -20 -7 -20 -22z"/>
</g>
</svg>
