<?xml version="1.0" standalone="no"?>
<!DOCTYPE svg PUBLIC "-//W3C//DTD SVG 20010904//EN"
 "http://www.w3.org/TR/2001/REC-SVG-20010904/DTD/svg10.dtd">
<svg version="1.0" xmlns="http://www.w3.org/2000/svg"
 width="32.000000pt" height="32.000000pt" viewBox="0 0 32.000000 32.000000"
 preserveAspectRatio="xMidYMid meet">
<metadata>
Created by potrace 1.16, written by Peter Selinger 2001-2019
</metadata>
<g transform="translate(0.000000,32.000000) scale(0.100000,-0.100000)"
fill="#000000" stroke="none">
<path fill="#000000" stroke="none" d="M93 267 c-26 -9 -33 -17 -33 -37 0 -14
-4 -31 -9 -38 -5 -8 -1 -28 10 -50 11 -20 19 -42 19 -49 0 -7 6 -13 14 -13 7
0 25 -9 39 -21 21 -16 31 -18 46 -10 11 6 29 11 40 11 16 0 21 6 21 28 0 15 4
33 9 40 5 8 1 28 -10 50 -11 20 -19 42 -19 49 0 7 -6 13 -14 13 -7 0 -25 9
-39 20 -28 22 -28 22 -74 7z"/>
<path fill="#ffffff" stroke="none" d="M216 185 c24 -51 13 -110 -20 -119 -18
-4 -19 -3 -5 7 27 20 33 56 13 78 -9 10 -12 19 -6 19 6 0 8 10 4 22 -5 21 -6
21 -13 2 -7 -19 -7 -19 -14 1 -4 11 -9 26 -11 33 -6 20 -24 14 -24 -8 0 -11
-5 -20 -11 -20 -6 0 -9 6 -6 13 21 50 21 48 -5 36 -31 -14 -51 -68 -33 -92 8
-12 15 -13 22 -6 8 8 11 2 10 -21 -2 -25 3 -34 21 -41 20 -8 23 -6 17 11 -8
26 4 82 16 74 10 -6 12 -67 3 -100 l-6 -22 -32 22 c-46 30 -74 91 -62 137 19
75 102 59 142 -26z"/>
</g>
</svg>
