<?xml version="1.0" standalone="no"?>
<!DOCTYPE svg PUBLIC "-//W3C//DTD SVG 20010904//EN"
 "http://www.w3.org/TR/2001/REC-SVG-20010904/DTD/svg10.dtd">
<svg version="1.0" xmlns="http://www.w3.org/2000/svg"
 width="32.000000pt" height="32.000000pt" viewBox="0 0 32.000000 32.000000"
 preserveAspectRatio="xMidYMid meet">
<metadata>
Created by potrace 1.16, written by Peter Selinger 2001-2019
</metadata>
<g transform="translate(0.000000,32.000000) scale(0.100000,-0.100000)"
fill="#000000" stroke="none">
<path fill="#000000" stroke="none" d="M122 209 c-13 -16 -28 -28 -34 -26 -6
1 -12 -4 -14 -11 -1 -7 0 -8 2 -3 3 6 12 7 20 4 8 -3 14 -1 14 4 0 5 9 9 20 9
13 0 20 -7 20 -20 0 -17 5 -14 29 14 30 36 27 49 -8 31 -16 -9 -20 -8 -23 7
-3 16 -6 15 -26 -9z"/>
<path fill="#ffffff" stroke="none" d="M140 200 c0 -5 -5 -10 -11 -10 -5 0 -7
5 -4 10 3 6 8 10 11 10 2 0 4 -4 4 -10z"/>
<path fill="#ffffff" stroke="none" d="M180 195 c-7 -9 -15 -13 -19 -10 -3 3
1 10 9 15 21 14 24 12 10 -5z"/>
<path fill="#000000" stroke="none" d="M213 233 c9 -2 17 -9 17 -14 0 -6 5 -7
11 -3 14 8 -8 24 -31 23 -11 -1 -10 -3 3 -6z"/>
<path fill="#000000" stroke="none" d="M194 166 c-8 -14 -23 -26 -32 -28 -16
-3 -16 -5 2 -22 15 -15 18 -16 13 -3 -3 8 1 21 9 28 16 14 38 49 30 49 -3 0
-13 -11 -22 -24z"/>
</g>
</svg>
