<?xml version="1.0" standalone="no"?>
<!DOCTYPE svg PUBLIC "-//W3C//DTD SVG 20010904//EN"
 "http://www.w3.org/TR/2001/REC-SVG-20010904/DTD/svg10.dtd">
<svg version="1.0" xmlns="http://www.w3.org/2000/svg"
 width="32.000000pt" height="32.000000pt" viewBox="0 0 32.000000 32.000000"
 preserveAspectRatio="xMidYMid meet">
<metadata>
Created by potrace 1.16, written by Peter Selinger 2001-2019
</metadata>
<g transform="translate(0.000000,32.000000) scale(0.100000,-0.100000)"
fill="#000000" stroke="none">
<path fill="#000000" stroke="none" d="M124 252 l-31 -18 24 -17 c12 -10 23
-24 23 -31 0 -12 20 -26 36 -26 3 0 -3 12 -13 28 -23 33 -24 66 -1 70 12 2 19
-5 24 -24 l7 -27 13 24 c7 13 13 27 14 32 0 13 -65 6 -96 -11z"/>
<path fill="#000000" stroke="none" d="M180 195 c0 -6 9 -23 19 -38 13 -20 21
-25 26 -17 4 7 -3 23 -19 38 -14 15 -26 22 -26 17z"/>
<path fill="#000000" stroke="none" d="M97 167 c-6 -17 17 -55 26 -41 3 5 0
20 -7 33 -10 18 -14 20 -19 8z"/>
<path fill="#000000" stroke="none" d="M180 121 c14 -27 27 -33 33 -16 4 9 1
12 -9 8 -8 -3 -14 1 -14 11 0 9 -5 16 -10 16 -7 0 -7 -6 0 -19z"/>
<path fill="#000000" stroke="none" d="M210 72 c0 -5 7 -17 15 -28 15 -19 20
-8 9 20 -6 17 -24 22 -24 8z"/>
</g>
</svg>
