<?xml version="1.0" standalone="no"?>
<!DOCTYPE svg PUBLIC "-//W3C//DTD SVG 20010904//EN"
 "http://www.w3.org/TR/2001/REC-SVG-20010904/DTD/svg10.dtd">
<svg version="1.0" xmlns="http://www.w3.org/2000/svg"
 width="32.000000pt" height="32.000000pt" viewBox="0 0 32.000000 32.000000"
 preserveAspectRatio="xMidYMid meet">
<metadata>
Created by potrace 1.16, written by Peter Selinger 2001-2019
</metadata>
<g transform="translate(0.000000,32.000000) scale(0.100000,-0.100000)"
fill="#000000" stroke="none">
<path fill="#000000" stroke="none" d="M0 160 l0 -160 160 0 160 0 0 160 0
160 -160 0 -160 0 0 -160z"/>
<path fill="#ffffff" stroke="none" d="M215 225 c33 -32 33 -78 0 -110 -32
-33 -78 -33 -110 0 -50 49 -15 135 55 135 19 0 40 -9 55 -25z"/>
<path fill="#ffffff" stroke="none" d="M245 86 c18 -13 18 -14 -3 -25 -29 -16
-85 -14 -108 4 -17 14 -15 15 36 10 30 -2 46 -2 36 1 -15 5 -16 8 -5 15 19 12
22 11 44 -5z"/>
</g>
</svg>
