<?xml version="1.0" standalone="no"?>
<!DOCTYPE svg PUBLIC "-//W3C//DTD SVG 20010904//EN"
 "http://www.w3.org/TR/2001/REC-SVG-20010904/DTD/svg10.dtd">
<svg version="1.0" xmlns="http://www.w3.org/2000/svg"
 width="32.000000pt" height="32.000000pt" viewBox="0 0 32.000000 32.000000"
 preserveAspectRatio="xMidYMid meet">
<metadata>
Created by potrace 1.16, written by Peter Selinger 2001-2019
</metadata>
<g transform="translate(0.000000,32.000000) scale(0.100000,-0.100000)"
fill="#000000" stroke="none">
<path fill="#000000" stroke="none" d="M93 267 c-26 -9 -33 -17 -33 -37 0 -14
-4 -31 -9 -38 -5 -8 -1 -28 10 -50 11 -20 19 -42 19 -49 0 -7 6 -13 14 -13 7
0 25 -9 39 -21 21 -16 31 -18 46 -10 11 6 29 11 40 11 16 0 21 6 21 28 0 15 4
33 9 40 5 8 1 28 -10 50 -11 20 -19 42 -19 49 0 7 -6 13 -14 13 -7 0 -25 9
-39 20 -28 22 -28 22 -74 7z"/>
<path fill="#ffffff" stroke="none" d="M216 185 c25 -53 14 -108 -25 -121 -59
-21 -135 75 -117 147 19 75 102 59 142 -26z"/>
<path fill="#000000" stroke="none" d="M140 214 c0 -23 -1 -24 -24 -9 -22 15
-24 14 -29 -6 -5 -17 -2 -20 14 -16 10 3 22 1 25 -4 9 -15 22 -10 26 8 2 11
11 1 28 -29 15 -29 27 -42 31 -36 4 7 -3 25 -17 41 -22 26 -28 40 -26 59 1 3
-5 9 -13 12 -11 4 -15 -2 -15 -20z"/>
<path fill="#000000" stroke="none" d="M115 165 c4 -11 9 -32 12 -47 3 -15 11
-29 19 -32 19 -7 17 2 -12 54 -14 25 -22 36 -19 25z"/>
</g>
</svg>
