<?xml version="1.0" standalone="no"?>
<!DOCTYPE svg PUBLIC "-//W3C//DTD SVG 20010904//EN"
 "http://www.w3.org/TR/2001/REC-SVG-20010904/DTD/svg10.dtd">
<svg version="1.0" xmlns="http://www.w3.org/2000/svg"
 width="32.000000pt" height="32.000000pt" viewBox="0 0 32.000000 32.000000"
 preserveAspectRatio="xMidYMid meet">
<metadata>
Created by potrace 1.16, written by Peter Selinger 2001-2019
</metadata>
<g transform="translate(0.000000,32.000000) scale(0.100000,-0.100000)"
fill="#000000" stroke="none">
<path fill="#000000" stroke="none" d="M107 207 c-14 -14 -16 -22 -7 -30 8 -9
14 -8 21 6 6 9 16 14 22 11 7 -4 9 -4 5 1 -4 4 -3 13 2 20 17 20 -21 14 -43
-8z"/>
<path fill="#000000" stroke="none" d="M165 188 c-6 -18 -20 -38 -33 -44 -19
-10 -21 -13 -8 -23 13 -11 19 -7 36 21 11 18 20 40 20 48 1 11 6 8 20 -9 13
-15 20 -18 20 -9 0 14 -30 48 -41 48 -3 0 -9 -15 -14 -32z"/>
</g>
</svg>
