<?xml version="1.0" standalone="no"?>
<!DOCTYPE svg PUBLIC "-//W3C//DTD SVG 20010904//EN"
 "http://www.w3.org/TR/2001/REC-SVG-20010904/DTD/svg10.dtd">
<svg version="1.0" xmlns="http://www.w3.org/2000/svg"
 width="32.000000pt" height="32.000000pt" viewBox="0 0 32.000000 32.000000"
 preserveAspectRatio="xMidYMid meet">
<metadata>
Created by potrace 1.16, written by Peter Selinger 2001-2019
</metadata>
<g transform="translate(0.000000,32.000000) scale(0.100000,-0.100000)"
fill="#000000" stroke="none">
<path fill="#000000" stroke="none" d="M190 262 c0 -7 -20 -35 -45 -61 -32
-34 -51 -47 -65 -44 -12 3 -24 -4 -36 -22 -18 -27 -18 -28 5 -47 15 -11 31
-16 43 -12 12 4 24 0 32 -11 21 -29 49 -14 58 30 6 27 23 55 52 85 37 38 43
49 35 67 -7 19 -12 21 -32 14 -16 -6 -28 -6 -36 2 -8 8 -11 8 -11 -1z"/>
<path fill="#ffffff" stroke="none" d="M204 199 c-11 -12 -13 -19 -5 -19 7 0
9 -5 5 -11 -5 -8 -9 -8 -14 1 -5 9 -11 7 -21 -7 -8 -11 -20 -23 -27 -27 -11
-7 -11 -4 0 13 7 12 16 21 20 21 4 0 12 9 18 20 9 16 8 19 -6 13 -12 -4 -15
-3 -10 5 4 7 16 12 27 12 10 0 19 6 20 13 0 9 2 9 6 -1 3 -7 -3 -22 -13 -33z"/>
</g>
</svg>
