<?xml version="1.0" standalone="no"?>
<!DOCTYPE svg PUBLIC "-//W3C//DTD SVG 20010904//EN"
 "http://www.w3.org/TR/2001/REC-SVG-20010904/DTD/svg10.dtd">
<svg version="1.0" xmlns="http://www.w3.org/2000/svg"
 width="32.000000pt" height="32.000000pt" viewBox="0 0 32.000000 32.000000"
 preserveAspectRatio="xMidYMid meet">
<metadata>
Created by potrace 1.16, written by Peter Selinger 2001-2019
</metadata>
<g transform="translate(0.000000,32.000000) scale(0.100000,-0.100000)"
fill="#000000" stroke="none">
<path fill="#000000" stroke="none" d="M117 232 c4 -10 8 -12 11 -4 4 13 22 7
22 -7 0 -14 -35 -8 -47 8 -7 9 -13 14 -13 11 -8 -33 -6 -42 5 -46 14 -6 8 -44
-7 -44 -5 0 -6 -5 -3 -10 5 -8 11 -7 21 1 7 6 11 15 8 20 -8 13 10 11 24 -3
17 -17 15 -31 -3 -25 -19 8 -30 -12 -15 -26 9 -9 14 -8 24 5 7 10 17 14 21 10
5 -4 5 0 1 8 -4 8 1 4 11 -8 18 -22 21 -23 36 -8 18 19 31 21 21 4 -4 -7 -3
-8 4 -4 24 14 12 28 -18 21 -24 -5 -30 -3 -30 10 0 11 5 15 15 12 17 -7 29 8
19 24 -5 8 -9 8 -14 -1 -4 -7 -13 -9 -19 -5 -9 5 -9 10 0 21 17 20 -13 51 -51
52 -23 0 -28 -3 -23 -16z"/>
<path fill="#ffffff" stroke="none" d="M177 195 c-13 -10 -15 -14 -5 -18 7 -3
3 -6 -9 -6 -31 -1 -37 16 -8 23 18 5 23 11 18 24 -5 14 -4 15 8 4 12 -11 11
-15 -4 -27z"/>
</g>
</svg>
