<?xml version="1.0" standalone="no"?>
<!DOCTYPE svg PUBLIC "-//W3C//DTD SVG 20010904//EN"
 "http://www.w3.org/TR/2001/REC-SVG-20010904/DTD/svg10.dtd">
<svg version="1.0" xmlns="http://www.w3.org/2000/svg"
 width="32.000000pt" height="32.000000pt" viewBox="0 0 32.000000 32.000000"
 preserveAspectRatio="xMidYMid meet">
<metadata>
Created by potrace 1.16, written by Peter Selinger 2001-2019
</metadata>
<g transform="translate(0.000000,32.000000) scale(0.100000,-0.100000)"
fill="#000000" stroke="none">
<path fill="#000000" stroke="none" d="M0 160 l0 -160 160 0 160 0 0 160 0
160 -160 0 -160 0 0 -160z"/>
<path fill="#ffffff" stroke="none" d="M163 215 c-3 -8 -13 -15 -22 -15 -14 1
-14 2 2 11 9 6 14 15 11 21 -4 7 -2 8 4 4 6 -4 9 -13 5 -21z"/>
<path fill="#ffffff" stroke="none" d="M154 158 c20 -15 21 -15 28 0 5 14 7
12 7 -5 1 -13 -3 -23 -8 -23 -15 0 -71 57 -71 72 0 7 5 5 12 -7 6 -11 21 -27
32 -37z"/>
<path fill="#ffffff" stroke="none" d="M225 170 c-3 -5 -12 -10 -18 -10 -7 0
-6 4 3 10 19 12 23 12 15 0z"/>
</g>
</svg>
