<?xml version="1.0" standalone="no"?>
<!DOCTYPE svg PUBLIC "-//W3C//DTD SVG 20010904//EN"
 "http://www.w3.org/TR/2001/REC-SVG-20010904/DTD/svg10.dtd">
<svg version="1.0" xmlns="http://www.w3.org/2000/svg"
 width="32.000000pt" height="32.000000pt" viewBox="0 0 32.000000 32.000000"
 preserveAspectRatio="xMidYMid meet">
<metadata>
Created by potrace 1.16, written by Peter Selinger 2001-2019
</metadata>
<g transform="translate(0.000000,32.000000) scale(0.100000,-0.100000)"
fill="#000000" stroke="none">
<path fill="#000000" stroke="none" d="M0 160 l0 -160 160 0 160 0 0 160 0
160 -160 0 -160 0 0 -160z"/>
<path fill="#ffffff" stroke="none" d="M186 242 c20 -13 43 -68 34 -81 -6 -10
-10 -8 -15 8 -6 21 -9 19 -33 -18 -15 -24 -34 -41 -45 -41 -10 0 -16 4 -13 9
4 5 0 12 -6 14 -8 3 -6 6 5 6 9 1 17 6 17 12 0 5 5 7 10 4 6 -3 10 -1 10 4 0
21 2 26 12 38 13 16 3 43 -15 43 -7 0 -22 -7 -33 -16 -10 -8 -13 -13 -7 -9 7
3 22 8 34 10 17 4 19 2 9 -10 -7 -8 -10 -15 -6 -15 3 0 -2 -8 -11 -18 -13 -13
-22 -16 -31 -9 -9 7 -11 6 -6 -7 3 -9 1 -16 -5 -16 -20 0 -11 51 14 75 24 25
59 32 81 17z"/>
<path fill="#ffffff" stroke="none" d="M185 130 c-3 -6 1 -13 10 -16 13 -6 14
-8 3 -15 -7 -5 -17 -9 -23 -9 -5 0 -4 4 4 9 9 6 10 11 2 15 -10 7 -6 26 5 26
3 0 2 -5 -1 -10z"/>
</g>
</svg>
