<?xml version="1.0" standalone="no"?>
<!DOCTYPE svg PUBLIC "-//W3C//DTD SVG 20010904//EN"
 "http://www.w3.org/TR/2001/REC-SVG-20010904/DTD/svg10.dtd">
<svg version="1.0" xmlns="http://www.w3.org/2000/svg"
 width="32.000000pt" height="32.000000pt" viewBox="0 0 32.000000 32.000000"
 preserveAspectRatio="xMidYMid meet">
<metadata>
Created by potrace 1.16, written by Peter Selinger 2001-2019
</metadata>
<g transform="translate(0.000000,32.000000) scale(0.100000,-0.100000)"
fill="#000000" stroke="none">
<path fill="#000000" stroke="none" d="M130 259 c0 -5 -4 -7 -10 -4 -5 3 -10
2 -10 -4 0 -5 -9 -8 -20 -6 -11 2 -20 0 -20 -5 0 -5 -9 -7 -20 -5 -39 8 -17
-56 33 -95 15 -12 37 -41 49 -63 12 -23 23 -36 25 -29 3 6 9 10 14 6 5 -3 8 0
7 8 -2 7 3 12 10 10 6 -1 12 3 12 9 0 5 4 8 9 4 5 -3 12 -1 16 5 4 6 11 8 16
5 5 -4 9 -2 9 4 0 5 9 8 20 6 11 -2 20 1 20 6 0 6 5 7 12 3 6 -4 4 4 -5 17 -9
13 -36 36 -59 50 -24 14 -52 38 -63 55 -21 30 -45 42 -45 23z"/>
<path fill="#ffffff" stroke="none" d="M175 172 c36 -6 75 -24 69 -33 -3 -5
-15 -2 -27 6 -38 26 -54 20 -49 -21 3 -26 1 -35 -7 -30 -6 4 -11 21 -11 37 0
19 -6 32 -17 35 -58 19 -73 28 -64 37 6 6 17 4 32 -7 29 -20 40 -20 33 -1 -4
8 -3 23 2 33 6 13 9 9 13 -18 4 -25 12 -36 26 -38z"/>
</g>
</svg>
