<?xml version="1.0" standalone="no"?>
<!DOCTYPE svg PUBLIC "-//W3C//DTD SVG 20010904//EN"
 "http://www.w3.org/TR/2001/REC-SVG-20010904/DTD/svg10.dtd">
<svg version="1.0" xmlns="http://www.w3.org/2000/svg"
 width="32.000000pt" height="32.000000pt" viewBox="0 0 32.000000 32.000000"
 preserveAspectRatio="xMidYMid meet">
<metadata>
Created by potrace 1.16, written by Peter Selinger 2001-2019
</metadata>
<g transform="translate(0.000000,32.000000) scale(0.100000,-0.100000)"
fill="#000000" stroke="none">
<path fill="#000000" stroke="none" d="M153 222 c-8 -5 -9 -13 -3 -22 15 -23
12 -28 -12 -24 -21 4 -21 4 2 -8 14 -7 27 -15 30 -18 10 -10 51 -10 45 0 -3 6
-13 10 -20 10 -8 0 -17 12 -21 28 -3 15 -6 30 -7 34 -1 4 -7 4 -14 0z"/>
</g>
</svg>
