<?xml version="1.0" standalone="no"?>
<!DOCTYPE svg PUBLIC "-//W3C//DTD SVG 20010904//EN"
 "http://www.w3.org/TR/2001/REC-SVG-20010904/DTD/svg10.dtd">
<svg version="1.0" xmlns="http://www.w3.org/2000/svg"
 width="32.000000pt" height="32.000000pt" viewBox="0 0 32.000000 32.000000"
 preserveAspectRatio="xMidYMid meet">
<metadata>
Created by potrace 1.16, written by Peter Selinger 2001-2019
</metadata>
<g transform="translate(0.000000,32.000000) scale(0.100000,-0.100000)"
fill="#000000" stroke="none">
<path fill="#000000" stroke="none" d="M157 272 c-10 -10 -17 -26 -17 -36 0
-24 -28 -31 -49 -12 -24 22 -61 21 -61 -2 0 -26 52 -72 81 -72 28 0 65 34 71
65 2 13 12 21 31 23 23 3 27 0 27 -21 0 -19 -8 -28 -39 -40 -44 -18 -81 -59
-81 -92 0 -27 32 -57 57 -54 10 1 35 -5 55 -15 47 -20 51 -20 72 3 16 17 16
25 6 56 -12 38 -51 70 -72 62 -8 -4 -7 -6 4 -6 12 -1 15 -6 11 -18 -5 -12 -3
-14 8 -8 11 7 12 6 2 -6 -8 -10 -9 -19 -3 -25 7 -7 1 -10 -15 -10 -16 0 -22 3
-15 10 6 6 5 15 -3 25 -9 12 -9 13 1 7 6 -4 12 -3 12 3 0 14 -18 23 -30 16 -6
-4 -7 -13 -1 -23 6 -12 4 -24 -9 -39 l-17 -22 -12 25 c-6 14 -11 29 -11 33 0
11 75 51 95 51 34 0 47 79 19 118 -20 29 -93 31 -117 4z"/>
<path fill="#ffffff" stroke="none" d="M292 27 c-22 -21 -45 -16 -35 9 3 9 13
14 24 11 23 -6 25 6 5 23 -8 6 -12 19 -9 28 5 12 10 8 21 -17 12 -31 12 -36
-6 -54z"/>
<path fill="#ffffff" stroke="none" d="M234 35 c4 -13 2 -14 -14 -5 -23 13
-26 20 -6 20 8 0 16 -7 20 -15z"/>
<path fill="#000000" stroke="none" d="M270 30 c-9 -6 -10 -10 -3 -10 6 0 15
5 18 10 8 12 4 12 -15 0z"/>
<path fill="#000000" stroke="none" d="M186 95 c-3 -9 -6 -22 -5 -28 0 -7 5
-1 10 12 5 13 8 26 5 28 -2 2 -6 -3 -10 -12z"/>
</g>
</svg>
