<?xml version="1.0" standalone="no"?>
<!DOCTYPE svg PUBLIC "-//W3C//DTD SVG 20010904//EN"
 "http://www.w3.org/TR/2001/REC-SVG-20010904/DTD/svg10.dtd">
<svg version="1.0" xmlns="http://www.w3.org/2000/svg"
 width="32.000000pt" height="32.000000pt" viewBox="0 0 32.000000 32.000000"
 preserveAspectRatio="xMidYMid meet">
<metadata>
Created by potrace 1.16, written by Peter Selinger 2001-2019
</metadata>
<g transform="translate(0.000000,32.000000) scale(0.100000,-0.100000)"
fill="#000000" stroke="none">
<path fill="#000000" stroke="none" d="M22 158 l2 -143 3 137 4 137 137 4 137
3 -142 2 -143 2 2 -142z"/>
<path fill="#000000" stroke="none" d="M54 244 c-18 -14 -18 -14 6 -3 31 14
36 19 24 19 -6 0 -19 -7 -30 -16z"/>
<path fill="#000000" stroke="none" d="M231 236 c-6 -7 -10 -25 -9 -39 2 -20
5 -23 15 -15 15 12 17 22 3 13 -12 -8 -13 -3 0 29 11 29 8 33 -9 12z"/>
<path fill="#000000" stroke="none" d="M264 223 c-12 -22 -12 -46 1 -53 5 -3
11 12 13 33 4 41 1 45 -14 20z"/>
<path fill="#000000" stroke="none" d="M54 214 c-18 -14 -18 -15 4 -4 12 6 22
13 22 15 0 8 -5 6 -26 -11z"/>
<path fill="#000000" stroke="none" d="M113 218 c-16 -21 -23 -60 -10 -55 6 2
14 18 18 35 7 35 6 38 -8 20z"/>
<path fill="#000000" stroke="none" d="M158 196 c-10 -7 -18 -23 -18 -34 0
-11 -5 -24 -10 -27 -6 -4 -7 -11 -4 -17 9 -15 24 4 26 34 1 15 6 24 12 21 5
-3 6 -1 2 5 -3 6 -3 13 2 16 4 2 8 -4 9 -14 1 -11 -3 -22 -8 -25 -5 -4 -7 -11
-3 -16 11 -18 24 2 24 37 0 37 -6 40 -32 20z"/>
<path fill="#000000" stroke="none" d="M54 184 c-18 -14 -18 -15 4 -4 12 6 22
13 22 15 0 8 -5 6 -26 -11z"/>
<path fill="#000000" stroke="none" d="M48 153 c-2 -5 -5 -24 -6 -43 -2 -32
-1 -33 10 -15 16 26 20 53 9 60 -5 3 -11 2 -13 -2z"/>
<path fill="#000000" stroke="none" d="M206 148 c-14 -45 -14 -59 -1 -48 15
13 26 60 13 60 -5 0 -10 -6 -12 -12z"/>
<path fill="#000000" stroke="none" d="M79 133 c-10 -11 -10 -14 -1 -9 15 9
15 5 2 -30 -9 -24 -9 -25 5 -14 8 7 14 25 13 41 -3 34 -2 34 -19 12z"/>
<path fill="#000000" stroke="none" d="M250 135 c-14 -8 -20 -14 -14 -15 5 0
19 7 30 15 24 18 16 19 -16 0z"/>
<path fill="#000000" stroke="none" d="M254 104 c-18 -14 -18 -15 4 -4 12 6
22 13 22 15 0 8 -5 6 -26 -11z"/>
<path fill="#000000" stroke="none" d="M250 75 c-14 -8 -20 -14 -14 -15 5 0
19 7 30 15 24 18 16 19 -16 0z"/>
</g>
</svg>
