<?xml version="1.0" standalone="no"?>
<!DOCTYPE svg PUBLIC "-//W3C//DTD SVG 20010904//EN"
 "http://www.w3.org/TR/2001/REC-SVG-20010904/DTD/svg10.dtd">
<svg version="1.0" xmlns="http://www.w3.org/2000/svg"
 width="32.000000pt" height="32.000000pt" viewBox="0 0 32.000000 32.000000"
 preserveAspectRatio="xMidYMid meet">
<metadata>
Created by potrace 1.16, written by Peter Selinger 2001-2019
</metadata>
<g transform="translate(0.000000,32.000000) scale(0.100000,-0.100000)"
fill="#000000" stroke="none">
<path fill="#000000" stroke="none" d="M0 160 l0 -160 160 0 160 0 0 160 0
160 -160 0 -160 0 0 -160z"/>
<path fill="#ffffff" stroke="none" d="M168 293 l-137 -4 -4 -137 -3 -137 -2
143 -2 142 143 -2 142 -2 -137 -3z"/>
<path fill="#ffffff" stroke="none" d="M194 251 c14 -11 16 -11 16 3 0 10 4
15 9 12 5 -3 9 -21 8 -40 0 -19 -4 -33 -8 -31 -3 3 -14 -4 -24 -15 -21 -24
-43 -25 -69 -5 -27 20 -39 19 -27 -4 6 -10 24 -21 41 -24 30 -6 44 -37 16 -37
-46 0 -95 52 -95 100 0 24 0 24 14 6 14 -19 15 -18 15 10 0 17 2 33 4 35 10
10 85 3 100 -10z"/>
<path fill="#ffffff" stroke="none" d="M215 150 c-3 -5 -14 -10 -23 -9 -14 0
-13 2 3 9 27 11 27 11 20 0z"/>
<path fill="#ffffff" stroke="none" d="M76 119 c19 -22 19 -22 -3 -10 -13 6
-23 16 -23 21 0 15 5 12 26 -11z"/>
<path fill="#ffffff" stroke="none" d="M270 130 c0 -5 -10 -15 -22 -21 -23
-12 -23 -12 -4 10 21 23 26 26 26 11z"/>
<path fill="#ffffff" stroke="none" d="M124 104 c3 -8 2 -12 -4 -9 -6 3 -10
10 -10 16 0 14 7 11 14 -7z"/>
</g>
</svg>
