<?xml version="1.0" standalone="no"?>
<!DOCTYPE svg PUBLIC "-//W3C//DTD SVG 20010904//EN"
 "http://www.w3.org/TR/2001/REC-SVG-20010904/DTD/svg10.dtd">
<svg version="1.0" xmlns="http://www.w3.org/2000/svg"
 width="32.000000pt" height="32.000000pt" viewBox="0 0 32.000000 32.000000"
 preserveAspectRatio="xMidYMid meet">
<metadata>
Created by potrace 1.16, written by Peter Selinger 2001-2019
</metadata>
<g transform="translate(0.000000,32.000000) scale(0.100000,-0.100000)"
fill="#000000" stroke="none">
<path fill="#000000" stroke="none" d="M0 160 l0 -160 160 0 160 0 0 160 0
160 -160 0 -160 0 0 -160z"/>
<path fill="#ffffff" stroke="none" d="M136 299 c4 -8 26 -10 60 -6 30 3 54 4
54 2 0 -15 -37 -35 -63 -34 l-32 2 35 7 35 7 -42 2 c-45 1 -60 -15 -34 -37 14
-11 13 -12 -6 -3 -30 15 -45 7 -67 -34 -11 -19 -21 -33 -23 -31 -6 6 38 76 48
76 4 0 6 7 3 15 -12 31 15 60 32 34z"/>
<path fill="#ffffff" stroke="none" d="M280 229 c0 -5 -7 -6 -15 -3 -10 4 -15
0 -15 -11 0 -9 -7 -24 -16 -32 -12 -13 -15 -13 -14 -2 5 33 -1 48 -22 52 -13
2 1 4 30 4 28 0 52 -3 52 -8z"/>
<path fill="#ffffff" stroke="none" d="M106 178 c-22 -31 -20 -39 7 -27 18 8
23 17 20 34 -3 12 -1 25 4 28 11 7 58 -32 49 -41 -4 -4 -16 4 -26 18 -17 21
-20 22 -20 7 0 -30 27 -50 61 -45 16 3 33 0 36 -5 4 -6 -13 -8 -45 -5 -28 3
-57 1 -64 -3 -12 -8 12 -13 65 -12 9 0 17 -6 17 -13 0 -10 -6 -11 -25 -4 -14
5 -32 7 -40 4 -25 -10 12 -32 44 -26 14 3 23 1 19 -3 -5 -5 -29 -9 -55 -9 -44
-1 -49 -4 -63 -33 -8 -18 -21 -33 -28 -33 -9 0 -9 5 -3 18 5 9 14 32 20 50 8
27 7 32 -6 32 -9 0 -26 -8 -37 -17 -14 -13 -17 -13 -9 -2 7 8 10 24 7 36 -3
11 -1 24 5 27 6 4 11 2 11 -5 0 -7 14 8 32 32 17 24 33 38 35 32 3 -7 -3 -23
-11 -35z"/>
<path fill="#ffffff" stroke="none" d="M270 95 c0 -5 -5 -3 -10 5 -5 8 -10 20
-10 25 0 6 5 3 10 -5 5 -8 10 -19 10 -25z"/>
<path fill="#000000" stroke="none" d="M110 280 c0 -11 5 -20 10 -20 6 0 10 9
10 20 0 11 -4 20 -10 20 -5 0 -10 -9 -10 -20z"/>
</g>
</svg>
