<?xml version="1.0" standalone="no"?>
<!DOCTYPE svg PUBLIC "-//W3C//DTD SVG 20010904//EN"
 "http://www.w3.org/TR/2001/REC-SVG-20010904/DTD/svg10.dtd">
<svg version="1.0" xmlns="http://www.w3.org/2000/svg"
 width="32.000000pt" height="32.000000pt" viewBox="0 0 32.000000 32.000000"
 preserveAspectRatio="xMidYMid meet">
<metadata>
Created by potrace 1.16, written by Peter Selinger 2001-2019
</metadata>
<g transform="translate(0.000000,32.000000) scale(0.100000,-0.100000)"
fill="#000000" stroke="none">
<path fill="#000000" stroke="none" d="M0 160 l0 -160 160 0 160 0 0 160 0
160 -160 0 -160 0 0 -160z"/>
<path fill="#ffffff" stroke="none" d="M135 300 c8 -14 78 -13 92 1 17 17 36
0 30 -27 -2 -13 -1 -24 3 -24 7 0 50 -65 50 -76 0 -14 -22 0 -34 24 -14 25
-15 26 -16 5 0 -32 23 -113 32 -113 4 0 8 -4 8 -10 0 -5 -9 -10 -19 -10 -15 0
-21 10 -26 40 -8 46 -21 44 -31 -5 l-6 -34 -57 2 c-54 2 -56 1 -71 -30 -19
-41 -30 -41 -59 -2 -21 28 -21 32 -7 48 9 9 13 26 10 38 -3 11 -1 24 5 27 6 4
11 2 11 -5 0 -7 14 8 32 32 17 24 33 38 35 32 3 -7 -3 -23 -11 -35 -22 -32
-20 -39 8 -27 14 7 22 17 19 25 -3 8 -2 21 1 30 6 16 8 16 24 0 24 -21 29 -20
35 4 3 11 0 20 -6 20 -7 1 2 7 18 15 l30 13 -40 3 -40 2 35 7 35 7 -42 2 c-45
1 -60 -15 -34 -37 14 -11 13 -12 -6 -3 -30 15 -45 7 -67 -34 -11 -19 -21 -33
-23 -31 -6 6 38 76 48 76 4 0 6 7 3 15 -12 30 15 61 31 35z"/>
<path fill="#000000" stroke="none" d="M110 280 c0 -11 5 -20 10 -20 6 0 10 9
10 20 0 11 -4 20 -10 20 -5 0 -10 -9 -10 -20z"/>
<path fill="#000000" stroke="none" d="M140 197 c0 -26 26 -49 52 -45 17 2 24
11 26 33 l2 30 -21 -25 -21 -24 -19 24 c-16 21 -19 22 -19 7z"/>
<path fill="#000000" stroke="none" d="M132 141 c-9 -5 -1 -10 24 -14 21 -4
43 -2 48 3 7 7 3 10 -11 10 -12 0 -27 2 -35 5 -7 3 -19 1 -26 -4z"/>
<path fill="#000000" stroke="none" d="M142 113 c-20 -8 17 -31 40 -25 18 4
25 22 9 22 -5 0 -15 2 -23 4 -7 3 -19 2 -26 -1z"/>
</g>
</svg>
