<?xml version="1.0" standalone="no"?>
<!DOCTYPE svg PUBLIC "-//W3C//DTD SVG 20010904//EN"
 "http://www.w3.org/TR/2001/REC-SVG-20010904/DTD/svg10.dtd">
<svg version="1.0" xmlns="http://www.w3.org/2000/svg"
 width="32.000000pt" height="32.000000pt" viewBox="0 0 32.000000 32.000000"
 preserveAspectRatio="xMidYMid meet">
<metadata>
Created by potrace 1.16, written by Peter Selinger 2001-2019
</metadata>
<g transform="translate(0.000000,32.000000) scale(0.100000,-0.100000)"
fill="#000000" stroke="none">
<path fill="#000000" stroke="none" d="M0 160 l0 -160 160 0 160 0 0 160 0
160 -160 0 -160 0 0 -160z"/>
<path fill="#ffffff" stroke="none" d="M163 293 l-132 -4 -4 -132 -3 -132 -2
138 -2 137 138 -2 137 -2 -132 -3z"/>
<path fill="#ffffff" stroke="none" d="M130 265 c0 -8 -4 -15 -10 -15 -5 0
-10 7 -10 15 0 8 5 15 10 15 6 0 10 -7 10 -15z"/>
<path fill="#ffffff" stroke="none" d="M160 265 c0 -8 -4 -15 -10 -15 -5 0
-10 7 -10 15 0 8 5 15 10 15 6 0 10 -7 10 -15z"/>
<path fill="#ffffff" stroke="none" d="M186 264 c-4 -9 -2 -22 3 -28 7 -8 3
-21 -13 -41 -20 -25 -26 -28 -40 -16 -13 11 -16 11 -16 -1 0 -8 6 -20 13 -27
6 -8 0 -6 -15 4 -29 18 -37 35 -17 35 8 0 9 4 0 13 -6 8 -8 17 -4 20 3 4 12
-2 20 -13 20 -28 54 -27 52 3 -4 41 1 67 12 67 6 0 8 -7 5 -16z"/>
<path fill="#ffffff" stroke="none" d="M220 265 c0 -8 -4 -15 -10 -15 -5 0
-10 7 -10 15 0 8 5 15 10 15 6 0 10 -7 10 -15z"/>
<path fill="#ffffff" stroke="none" d="M96 243 c-10 -10 -19 5 -10 18 6 11 8
11 12 0 2 -7 1 -15 -2 -18z"/>
<path fill="#ffffff" stroke="none" d="M250 249 c0 -5 -4 -9 -10 -9 -5 0 -10
7 -10 16 0 8 5 12 10 9 6 -3 10 -10 10 -16z"/>
<path fill="#ffffff" stroke="none" d="M147 214 c-9 -9 -28 6 -21 18 4 6 10 6
17 -1 6 -6 8 -13 4 -17z"/>
<path fill="#ffffff" stroke="none" d="M61 179 c-9 -22 -10 -22 -10 -3 -1 11
2 24 6 27 12 12 14 0 4 -24z"/>
<path fill="#ffffff" stroke="none" d="M234 170 c-5 -5 -10 3 -11 18 -1 22 0
24 9 8 6 -10 6 -22 2 -26z"/>
<path fill="#ffffff" stroke="none" d="M158 130 c-7 -10 -14 -17 -17 -15 -4 4
18 35 25 35 2 0 -1 -9 -8 -20z"/>
<path fill="#ffffff" stroke="none" d="M215 140 c-3 -5 -12 -10 -18 -10 -7 0
-6 4 3 10 19 12 23 12 15 0z"/>
<path fill="#ffffff" stroke="none" d="M90 120 c13 -9 13 -10 0 -10 -8 0 -22
5 -30 10 -13 9 -13 10 0 10 8 0 22 -5 30 -10z"/>
<path fill="#ffffff" stroke="none" d="M100 64 c0 -8 -4 -12 -10 -9 -5 3 -10
10 -10 16 0 5 5 9 10 9 6 0 10 -7 10 -16z"/>
<path fill="#ffffff" stroke="none" d="M190 48 c0 -5 -4 -8 -10 -8 -5 0 -10
10 -10 23 0 18 2 19 10 7 5 -8 10 -18 10 -22z"/>
<path fill="#ffffff" stroke="none" d="M250 71 c0 -6 -4 -13 -10 -16 -5 -3
-10 1 -10 9 0 9 5 16 10 16 6 0 10 -4 10 -9z"/>
<path fill="#ffffff" stroke="none" d="M130 55 c0 -8 -4 -15 -10 -15 -5 0 -10
7 -10 15 0 8 5 15 10 15 6 0 10 -7 10 -15z"/>
<path fill="#ffffff" stroke="none" d="M160 55 c0 -8 -4 -15 -10 -15 -5 0 -10
7 -10 15 0 8 5 15 10 15 6 0 10 -7 10 -15z"/>
<path fill="#ffffff" stroke="none" d="M220 55 c0 -8 -4 -15 -10 -15 -5 0 -10
7 -10 15 0 8 5 15 10 15 6 0 10 -7 10 -15z"/>
</g>
</svg>
