<?xml version="1.0" standalone="no"?>
<!DOCTYPE svg PUBLIC "-//W3C//DTD SVG 20010904//EN"
 "http://www.w3.org/TR/2001/REC-SVG-20010904/DTD/svg10.dtd">
<svg version="1.0" xmlns="http://www.w3.org/2000/svg"
 width="32.000000pt" height="32.000000pt" viewBox="0 0 32.000000 32.000000"
 preserveAspectRatio="xMidYMid meet">
<metadata>
Created by potrace 1.16, written by Peter Selinger 2001-2019
</metadata>
<g transform="translate(0.000000,32.000000) scale(0.100000,-0.100000)"
fill="#000000" stroke="none">
<path fill="#000000" stroke="none" d="M20 160 l0 -140 140 0 140 0 0 140 0
140 -140 0 -140 0 0 -140z"/>
<path fill="#ffffff" stroke="none" d="M290 279 c0 -5 -4 -7 -10 -4 -5 3 -10
2 -10 -4 0 -5 5 -13 10 -16 6 -3 10 -15 10 -25 0 -17 -2 -17 -26 5 -22 21 -33
24 -65 19 -26 -4 -39 -3 -39 5 0 6 -11 11 -25 11 -14 0 -25 5 -25 10 0 6 37
10 90 10 57 0 90 -4 90 -11z"/>
<path fill="#ffffff" stroke="none" d="M272 143 c-10 -28 -10 -28 -11 12 -1
28 2 36 10 28 8 -8 8 -19 1 -40z"/>
<path fill="#ffffff" stroke="none" d="M54 132 c4 1 17 -15 29 -37 18 -32 29
-41 54 -43 33 -3 117 21 140 40 23 19 15 -17 -8 -38 -18 -16 -38 -19 -130 -21
-102 -1 -109 0 -109 19 0 10 5 16 10 13 6 -3 10 3 10 14 0 11 -4 23 -10 26 -5
3 -10 16 -10 28 0 16 3 18 9 9 4 -8 11 -12 15 -10z"/>
<path fill="#ffffff" stroke="none" d="M115 109 c4 -12 10 -18 14 -13 9 13 31
16 31 5 0 -5 10 -12 23 -14 12 -2 2 -3 -22 -2 -28 2 -47 8 -53 19 -5 9 -13 14
-19 11 -5 -4 -9 -1 -9 4 0 20 29 11 35 -10z"/>
<path fill="#ffffff" stroke="none" d="M237 104 c-3 -3 -12 -4 -19 -1 -8 3 -5
6 6 6 11 1 17 -2 13 -5z"/>
<path fill="#ffffff" stroke="none" d="M290 40 c0 -5 -5 -10 -11 -10 -5 0 -7
5 -4 10 3 6 8 10 11 10 2 0 4 -4 4 -10z"/>
<path fill="#000000" stroke="none" d="M188 263 c7 -3 16 -2 19 1 4 3 -2 6
-13 5 -11 0 -14 -3 -6 -6z"/>
</g>
</svg>
