<?xml version="1.0" standalone="no"?>
<!DOCTYPE svg PUBLIC "-//W3C//DTD SVG 20010904//EN"
 "http://www.w3.org/TR/2001/REC-SVG-20010904/DTD/svg10.dtd">
<svg version="1.0" xmlns="http://www.w3.org/2000/svg"
 width="32.000000pt" height="32.000000pt" viewBox="0 0 32.000000 32.000000"
 preserveAspectRatio="xMidYMid meet">
<metadata>
Created by potrace 1.16, written by Peter Selinger 2001-2019
</metadata>
<g transform="translate(0.000000,32.000000) scale(0.100000,-0.100000)"
fill="#000000" stroke="none">
<path fill="#000000" stroke="none" d="M82 284 c9 -3 19 -13 22 -22 3 -12 4
-12 3 3 -1 12 -10 21 -22 22 -15 1 -15 0 -3 -3z"/>
<path fill="#000000" stroke="none" d="M52 250 c0 -19 2 -27 5 -17 2 9 2 25 0
35 -3 9 -5 1 -5 -18z"/>
<path fill="#000000" stroke="none" d="M142 256 c7 -8 15 -12 17 -11 5 6 -10
25 -20 25 -5 0 -4 -6 3 -14z"/>
<path fill="#000000" stroke="none" d="M190 243 c5 -2 10 -36 10 -74 0 -55 -3
-69 -15 -69 -9 0 -18 6 -21 14 -3 8 -12 12 -20 9 -11 -4 -7 -9 12 -20 46 -23
55 -12 52 69 -2 48 -7 72 -16 74 -7 1 -8 0 -2 -3z"/>
<path fill="#000000" stroke="none" d="M152 190 c0 -19 2 -27 5 -17 2 9 2 25
0 35 -3 9 -5 1 -5 -18z"/>
<path fill="#000000" stroke="none" d="M102 190 c0 -14 2 -19 5 -12 2 6 2 18
0 25 -3 6 -5 1 -5 -13z"/>
<path fill="#000000" stroke="none" d="M48 174 c-4 -16 0 -25 16 -32 40 -19
55 -22 50 -8 -3 7 -14 12 -26 12 -15 -1 -24 7 -28 24 -6 24 -6 24 -12 4z"/>
<path fill="#000000" stroke="none" d="M255 89 c-16 -10 -25 -19 -19 -19 7 0
22 9 35 20 30 24 23 24 -16 -1z"/>
<path fill="#000000" stroke="none" d="M175 60 c-16 -7 -17 -9 -3 -9 9 -1 20
4 23 9 7 11 7 11 -20 0z"/>
</g>
</svg>
