<?xml version="1.0" standalone="no"?>
<!DOCTYPE svg PUBLIC "-//W3C//DTD SVG 20010904//EN"
 "http://www.w3.org/TR/2001/REC-SVG-20010904/DTD/svg10.dtd">
<svg version="1.0" xmlns="http://www.w3.org/2000/svg"
 width="32.000000pt" height="32.000000pt" viewBox="0 0 32.000000 32.000000"
 preserveAspectRatio="xMidYMid meet">
<metadata>
Created by potrace 1.16, written by Peter Selinger 2001-2019
</metadata>
<g transform="translate(0.000000,32.000000) scale(0.100000,-0.100000)"
fill="#000000" stroke="none">
<path fill="#000000" stroke="none" d="M1 160 l0 -159 159 0 159 0 0 159 1
160 -160 0 -160 0 1 -160z"/>
<path fill="#ffffff" stroke="none" d="M112 283 c10 -9 18 -27 18 -40 0 -34
18 -28 35 13 16 39 30 38 38 -2 5 -26 3 -28 -45 -38 -17 -4 -34 -18 -43 -36
-11 -21 -27 -32 -56 -40 -23 -6 -43 -9 -45 -7 -3 2 16 10 41 16 45 11 56 33
12 26 -40 -8 -62 71 -30 107 20 22 51 23 75 1z"/>
<path fill="#ffffff" stroke="none" d="M281 231 c-14 -19 -18 -32 -11 -36 7
-4 8 -11 2 -18 -17 -21 -8 -57 18 -78 18 -14 19 -17 5 -11 -29 15 -62 52 -45
52 11 0 11 3 2 12 -18 18 -15 36 14 74 34 44 26 53 -11 14 -16 -17 -32 -30
-35 -30 -5 0 -6 27 -1 49 1 2 7 -2 14 -8 11 -8 18 -6 32 9 29 32 42 8 16 -29z"/>
<path fill="#ffffff" stroke="none" d="M184 174 c19 -7 20 -33 2 -57 -18 -23
-37 -18 -53 12 -21 37 7 62 51 45z"/>
<path fill="#ffffff" stroke="none" d="M110 111 c0 -8 -90 -3 -99 5 -2 2 19 4
47 4 29 0 52 -4 52 -9z"/>
<path fill="#ffffff" stroke="none" d="M85 90 c-4 -7 2 -9 19 -4 16 4 26 2 26
-5 0 -6 6 -8 13 -5 10 3 12 -5 8 -33 -4 -31 -6 -33 -9 -13 -5 33 -22 52 -40
45 -17 -6 -34 3 -27 16 4 5 8 9 11 9 3 0 2 -5 -1 -10z"/>
<path fill="#ffffff" stroke="none" d="M275 80 c48 -22 39 -26 -12 -5 -44 18
-44 18 -37 0 10 -25 -6 -38 -26 -20 -17 15 -19 15 -25 -15 -9 -41 -17 -33 -9
8 7 36 20 40 41 15 13 -16 14 -16 8 10 -6 32 3 33 60 7z"/>
<path fill="#000000" stroke="none" d="M42 278 c-14 -14 -16 -68 -2 -68 6 0
10 -6 10 -13 0 -7 11 -13 25 -13 14 0 25 6 25 13 0 7 5 13 10 13 14 0 12 54
-2 68 -7 7 -21 12 -33 12 -12 0 -26 -5 -33 -12z"/>
<path fill="#ffffff" stroke="none" d="M65 230 c-3 -5 -10 -10 -16 -10 -5 0
-9 5 -9 10 0 6 7 10 16 10 8 0 12 -4 9 -10z"/>
<path fill="#ffffff" stroke="none" d="M110 230 c0 -5 -4 -10 -9 -10 -6 0 -13
5 -16 10 -3 6 1 10 9 10 9 0 16 -4 16 -10z"/>
</g>
</svg>
