<?xml version="1.0" standalone="no"?>
<!DOCTYPE svg PUBLIC "-//W3C//DTD SVG 20010904//EN"
 "http://www.w3.org/TR/2001/REC-SVG-20010904/DTD/svg10.dtd">
<svg version="1.0" xmlns="http://www.w3.org/2000/svg"
 width="32.000000pt" height="32.000000pt" viewBox="0 0 32.000000 32.000000"
 preserveAspectRatio="xMidYMid meet">
<metadata>
Created by potrace 1.16, written by Peter Selinger 2001-2019
</metadata>
<g transform="translate(0.000000,32.000000) scale(0.100000,-0.100000)"
fill="#000000" stroke="none">
<path fill="#000000" stroke="none" d="M20 160 c0 -127 2 -140 18 -139 10 0
12 3 5 6 -7 2 -13 14 -13 24 0 11 5 17 10 14 6 -3 10 3 10 14 0 11 -5 23 -10
26 -6 3 -10 16 -10 28 0 16 3 18 9 9 4 -8 12 -13 16 -12 4 1 17 -16 29 -37 26
-45 60 -53 132 -28 72 24 79 32 79 97 0 31 -3 54 -7 52 -5 -3 -8 -1 -8 4 0 14
-43 40 -76 47 l-29 7 30 -17 c44 -24 53 -35 27 -35 -13 0 -22 6 -22 15 0 9 -9
15 -25 15 -14 0 -25 5 -25 10 0 6 -11 10 -25 10 -14 0 -25 4 -25 10 0 5 44 11
98 13 81 2 73 3 -45 5 l-143 2 0 -140z"/>
<path fill="#ffffff" stroke="none" d="M271 141 c-8 -22 -9 -19 -10 24 0 42 2
46 10 26 6 -15 6 -34 0 -50z"/>
<path fill="#ffffff" stroke="none" d="M115 109 c4 -12 10 -18 14 -13 9 13 31
16 31 4 0 -5 9 -10 20 -10 11 0 20 -4 20 -10 0 -6 -9 -6 -22 -1 -13 4 -31 7
-41 5 -10 -1 -21 4 -24 12 -3 8 -11 14 -19 14 -8 0 -14 5 -14 10 0 19 29 10
35 -11z"/>
<path fill="#ffffff" stroke="none" d="M237 104 c-3 -3 -12 -4 -19 -1 -8 3 -5
6 6 6 11 1 17 -2 13 -5z"/>
<path fill="#000000" stroke="none" d="M272 268 c5 -15 28 -23 28 -10 0 5 -7
13 -16 16 -10 4 -14 1 -12 -6z"/>
<path fill="#000000" stroke="none" d="M270 55 c-7 -8 -18 -15 -26 -15 -27 0
-21 -15 7 -16 16 -1 27 1 24 4 -3 3 2 14 12 24 9 10 11 18 6 18 -6 0 -16 -7
-23 -15z"/>
<path fill="#000000" stroke="none" d="M70 30 c0 -5 7 -7 15 -4 8 4 15 8 15
10 0 2 -7 4 -15 4 -8 0 -15 -4 -15 -10z"/>
</g>
</svg>
