<?xml version="1.0" standalone="no"?>
<!DOCTYPE svg PUBLIC "-//W3C//DTD SVG 20010904//EN"
 "http://www.w3.org/TR/2001/REC-SVG-20010904/DTD/svg10.dtd">
<svg version="1.0" xmlns="http://www.w3.org/2000/svg"
 width="32.000000pt" height="32.000000pt" viewBox="0 0 32.000000 32.000000"
 preserveAspectRatio="xMidYMid meet">
<metadata>
Created by potrace 1.16, written by Peter Selinger 2001-2019
</metadata>
<g transform="translate(0.000000,32.000000) scale(0.100000,-0.100000)"
fill="#000000" stroke="none">
<path fill="#000000" stroke="none" d="M0 160 l0 -160 160 0 160 0 0 160 0
160 -160 0 -160 0 0 -160z"/>
<path fill="#ffffff" stroke="none" d="M300 160 l0 -140 -140 0 -140 0 0 140
0 140 140 0 140 0 0 -140z"/>
<path fill="#000000" stroke="none" d="M101 255 c22 -36 36 -47 25 -19 -7 17
9 44 26 44 6 0 8 -7 5 -15 -10 -25 8 -25 20 1 11 24 11 24 -43 24 l-53 0 20
-35z"/>
<path fill="#000000" stroke="none" d="M216 274 c-9 -24 -2 -26 12 -4 7 11 8
20 3 20 -5 0 -12 -7 -15 -16z"/>
<path fill="#000000" stroke="none" d="M30 123 l0 -93 130 0 130 0 0 93 c0 79
-2 89 -13 68 -15 -31 -37 -39 -37 -14 0 15 -2 15 -10 3 -5 -9 -5 -19 1 -27 6
-7 8 -17 5 -22 -4 -6 3 -15 14 -21 54 -29 2 -70 -90 -70 -68 0 -112 17 -108
43 2 11 9 22 17 25 8 3 11 0 7 -7 -4 -6 -3 -11 2 -11 5 0 8 15 8 33 0 17 4 40
8 50 7 15 5 17 -18 13 -17 -3 -29 1 -36 12 -7 12 -9 -10 -10 -75z"/>
<path fill="#000000" stroke="none" d="M207 103 c-3 -5 6 -9 19 -9 13 -1 21 2
18 7 -6 11 -31 12 -37 2z"/>
<path fill="#000000" stroke="none" d="M98 73 c7 -3 16 -2 19 1 4 3 -2 6 -13
5 -11 0 -14 -3 -6 -6z"/>
<path fill="#000000" stroke="none" d="M193 73 c9 -2 23 -2 30 0 6 3 -1 5 -18
5 -16 0 -22 -2 -12 -5z"/>
</g>
</svg>
