<?xml version="1.0" standalone="no"?>
<!DOCTYPE svg PUBLIC "-//W3C//DTD SVG 20010904//EN"
 "http://www.w3.org/TR/2001/REC-SVG-20010904/DTD/svg10.dtd">
<svg version="1.0" xmlns="http://www.w3.org/2000/svg"
 width="32.000000pt" height="32.000000pt" viewBox="0 0 32.000000 32.000000"
 preserveAspectRatio="xMidYMid meet">
<metadata>
Created by potrace 1.16, written by Peter Selinger 2001-2019
</metadata>
<g transform="translate(0.000000,32.000000) scale(0.100000,-0.100000)"
fill="#000000" stroke="none">
<path fill="#000000" stroke="none" d="M0 224 c0 -52 3 -93 8 -91 4 3 26 10
50 16 43 12 51 33 9 26 -41 -8 -64 77 -29 108 37 33 92 8 92 -41 0 -33 18 -26
35 14 15 37 35 38 35 2 0 -16 3 -18 14 -9 10 9 16 9 21 1 5 -8 15 -5 30 10 31
29 42 8 15 -29 -13 -19 -17 -32 -10 -36 7 -4 7 -12 2 -18 -16 -22 -11 -57 11
-72 11 -8 22 -21 23 -30 3 -19 2 -19 -43 0 -44 18 -44 18 -37 0 10 -25 -6 -38
-25 -21 -16 15 -18 13 -28 -19 l-11 -35 78 0 79 0 0 160 1 160 -160 0 -160 0
0 -96z"/>
<path fill="#000000" stroke="none" d="M43 278 c-13 -18 -15 -68 -3 -68 6 0
10 -6 10 -13 0 -7 11 -13 25 -13 14 0 25 6 25 13 0 7 4 13 10 13 12 0 10 50
-3 68 -5 6 -20 12 -32 12 -12 0 -27 -6 -32 -12z"/>
<path fill="#ffffff" stroke="none" d="M110 231 c0 -5 -16 -9 -35 -9 -19 0
-35 4 -35 9 0 5 16 9 35 9 19 0 35 -4 35 -9z"/>
<path fill="#000000" stroke="none" d="M190 209 c0 -8 10 -20 23 -28 l22 -14
-20 24 c-11 13 -21 26 -22 28 -2 2 -3 -2 -3 -10z"/>
<path fill="#000000" stroke="none" d="M112 150 c0 -14 2 -19 5 -12 2 6 2 18
0 25 -3 6 -5 1 -5 -13z"/>
<path fill="#000000" stroke="none" d="M227 121 c4 -16 51 -48 58 -39 1 2 -13
15 -31 31 -27 23 -31 24 -27 8z"/>
<path fill="#000000" stroke="none" d="M0 58 l0 -58 74 0 73 0 -5 27 c-6 36
-20 53 -40 50 -10 -1 -17 3 -18 8 0 6 7 9 16 7 10 -2 20 5 24 14 5 13 3 14 -6
7 -8 -6 -34 -8 -65 -4 l-53 7 0 -58z"/>
<path fill="#000000" stroke="none" d="M195 100 c-3 -5 -2 -10 4 -10 5 0 13 5
16 10 3 6 2 10 -4 10 -5 0 -13 -4 -16 -10z"/>
</g>
</svg>
