<?xml version="1.0" standalone="no"?>
<!DOCTYPE svg PUBLIC "-//W3C//DTD SVG 20010904//EN"
 "http://www.w3.org/TR/2001/REC-SVG-20010904/DTD/svg10.dtd">
<svg version="1.0" xmlns="http://www.w3.org/2000/svg"
 width="32.000000pt" height="32.000000pt" viewBox="0 0 32.000000 32.000000"
 preserveAspectRatio="xMidYMid meet">
<metadata>
Created by potrace 1.16, written by Peter Selinger 2001-2019
</metadata>
<g transform="translate(0.000000,32.000000) scale(0.100000,-0.100000)"
fill="#000000" stroke="none">
<path fill="#000000" stroke="none" d="M37 282 c-32 -36 -10 -115 30 -107 44
7 33 -15 -12 -26 -47 -12 -66 -26 -43 -33 31 -10 98 -13 98 -5 0 5 -24 9 -52
10 l-53 1 48 15 c34 10 51 22 62 43 8 16 23 31 34 35 10 3 22 20 27 38 l8 32
3 -33 c4 -33 5 -34 25 -15 20 18 21 18 13 -7 -7 -23 -5 -23 29 9 42 41 47 33
10 -16 -21 -27 -22 -33 -8 -33 13 0 14 -3 4 -15 -6 -8 -9 -19 -5 -25 3 -5 0
-10 -7 -10 -7 -1 5 -16 26 -35 44 -39 42 -42 -11 -20 -49 21 -54 19 -48 -12 6
-26 5 -26 -8 -10 -21 26 -32 21 -45 -20 l-11 -38 3 38 c1 27 -1 36 -11 33 -7
-3 -13 -1 -13 5 0 7 -10 9 -26 5 -18 -5 -24 -3 -18 5 4 8 3 9 -5 5 -17 -11 -2
-28 18 -21 21 6 38 -10 43 -43 5 -34 20 -31 33 7 9 29 12 31 24 17 17 -20 34
-10 28 15 -6 23 -8 23 38 3 50 -21 67 -4 26 25 -30 21 -37 53 -19 78 5 6 5 14
-2 18 -7 4 -3 17 10 36 27 37 16 58 -15 29 -15 -15 -25 -18 -30 -10 -5 8 -11
8 -21 -1 -11 -9 -14 -7 -14 9 0 36 -20 35 -35 -2 -17 -41 -35 -47 -35 -13 0
49 -61 74 -93 39z"/>
<path fill="#ffffff" stroke="none" d="M108 278 c14 -14 16 -68 2 -68 -5 0
-10 -6 -10 -13 0 -7 -11 -13 -25 -13 -14 0 -25 6 -25 13 0 7 -4 13 -10 13 -14
0 -12 54 2 68 7 7 21 12 33 12 12 0 26 -5 33 -12z"/>
<path fill="#000000" stroke="none" d="M40 230 c0 -5 4 -10 9 -10 6 0 13 5 16
10 3 6 -1 10 -9 10 -9 0 -16 -4 -16 -10z"/>
<path fill="#000000" stroke="none" d="M85 230 c3 -5 10 -10 16 -10 5 0 9 5 9
10 0 6 -7 10 -16 10 -8 0 -12 -4 -9 -10z"/>
<path fill="#000000" stroke="none" d="M141 157 c-9 -12 -8 -16 4 -21 18 -7
45 2 45 16 0 5 -5 6 -11 2 -6 -3 -15 -1 -19 5 -5 9 -10 8 -19 -2z"/>
<path fill="#000000" stroke="none" d="M156 108 c3 -5 10 -6 15 -3 13 9 11 12
-6 12 -8 0 -12 -4 -9 -9z"/>
</g>
</svg>
