<?xml version="1.0" standalone="no"?>
<!DOCTYPE svg PUBLIC "-//W3C//DTD SVG 20010904//EN"
 "http://www.w3.org/TR/2001/REC-SVG-20010904/DTD/svg10.dtd">
<svg version="1.0" xmlns="http://www.w3.org/2000/svg"
 width="32.000000pt" height="32.000000pt" viewBox="0 0 32.000000 32.000000"
 preserveAspectRatio="xMidYMid meet">
<metadata>
Created by potrace 1.16, written by Peter Selinger 2001-2019
</metadata>
<g transform="translate(0.000000,32.000000) scale(0.100000,-0.100000)"
fill="#000000" stroke="none">
<path fill="#000000" stroke="none" d="M22 158 c1 -79 3 -123 5 -98 3 31 11
51 26 63 l22 18 -22 -6 c-24 -7 -33 9 -10 18 10 4 10 6 0 6 -7 1 -13 12 -13
25 0 13 6 27 13 29 10 4 10 6 0 6 -8 1 -13 15 -13 36 l0 34 138 4 137 3 -142
2 -143 2 2 -142z"/>
<path fill="#000000" stroke="none" d="M45 250 c3 -5 10 -10 16 -10 5 0 9 5 9
10 0 6 -7 10 -16 10 -8 0 -12 -4 -9 -10z"/>
<path fill="#000000" stroke="none" d="M246 244 c-10 -25 -1 -27 19 -4 15 17
16 20 3 20 -9 0 -19 -7 -22 -16z"/>
<path fill="#000000" stroke="none" d="M84 208 l-26 -40 24 -27 c55 -63 81
-67 136 -17 32 30 34 35 15 33 -12 0 -21 -4 -21 -7 2 -18 -4 -21 -17 -10 -10
9 -15 9 -15 1 0 -6 5 -11 11 -11 5 0 7 -5 4 -10 -10 -17 -61 -11 -78 8 -10 10
-14 22 -10 26 5 4 3 7 -2 6 -30 -6 -33 3 -8 23 43 36 94 41 128 11 38 -33 40
-30 10 15 -25 36 -29 39 -76 39 -48 0 -51 -2 -75 -40z"/>
<path fill="#000000" stroke="none" d="M265 210 c-3 -5 -2 -10 4 -10 5 0 13 5
16 10 3 6 2 10 -4 10 -5 0 -13 -4 -16 -10z"/>
<path fill="#000000" stroke="none" d="M116 192 c-3 -5 1 -9 9 -9 8 0 15 4 15
9 0 4 -4 8 -9 8 -6 0 -12 -4 -15 -8z"/>
<path fill="#000000" stroke="none" d="M180 192 c0 -5 7 -9 15 -9 8 0 12 4 9
9 -3 4 -9 8 -15 8 -5 0 -9 -4 -9 -8z"/>
<path fill="#000000" stroke="none" d="M125 140 c-3 -5 -1 -10 4 -10 6 0 11 5
11 10 0 6 -2 10 -4 10 -3 0 -8 -4 -11 -10z"/>
<path fill="#000000" stroke="none" d="M264 125 c11 -8 22 -12 25 -9 6 6 -19
24 -34 24 -5 -1 -1 -7 9 -15z"/>
<path fill="#000000" stroke="none" d="M240 91 c6 -12 15 -21 20 -21 18 0 11
19 -11 30 -19 11 -20 10 -9 -9z"/>
<path fill="#000000" stroke="none" d="M63 93 c-15 -5 -17 -23 -4 -23 5 0 11
7 15 15 3 8 4 15 3 14 -1 0 -8 -3 -14 -6z"/>
</g>
</svg>
