<?xml version="1.0" standalone="no"?>
<!DOCTYPE svg PUBLIC "-//W3C//DTD SVG 20010904//EN"
 "http://www.w3.org/TR/2001/REC-SVG-20010904/DTD/svg10.dtd">
<svg version="1.0" xmlns="http://www.w3.org/2000/svg"
 width="32.000000pt" height="32.000000pt" viewBox="0 0 32.000000 32.000000"
 preserveAspectRatio="xMidYMid meet">
<metadata>
Created by potrace 1.16, written by Peter Selinger 2001-2019
</metadata>
<g transform="translate(0.000000,32.000000) scale(0.100000,-0.100000)"
fill="#000000" stroke="none">
<path fill="#000000" stroke="none" d="M0 160 l0 -160 160 0 160 0 0 160 0
160 -160 0 -160 0 0 -160z"/>
<path fill="#ffffff" stroke="none" d="M284 294 c-7 -3 -10 -13 -7 -23 3 -10
-2 -21 -10 -24 -19 -7 -41 8 -32 23 6 9 9 9 16 -1 7 -11 9 -10 9 4 0 15 -11
17 -100 17 -89 0 -100 -2 -100 -17 0 -14 2 -15 9 -4 7 10 10 10 16 1 9 -15
-13 -30 -32 -23 -8 3 -13 14 -10 24 3 11 1 19 -4 19 -16 0 -9 -49 9 -60 16
-11 16 -11 0 -6 -15 5 -18 -6 -21 -97 -3 -94 -3 -91 -5 36 l-2 137 138 -1 c75
0 132 -3 126 -5z"/>
<path fill="#ffffff" stroke="none" d="M95 230 c-3 -5 -12 -10 -18 -10 -7 0
-6 4 3 10 19 12 23 12 15 0z"/>
<path fill="#ffffff" stroke="none" d="M245 222 c-3 -3 -11 0 -18 7 -9 10 -8
11 6 5 10 -3 15 -9 12 -12z"/>
<path fill="#ffffff" stroke="none" d="M285 230 c-3 -5 -12 -10 -18 -10 -7 0
-6 4 3 10 19 12 23 12 15 0z"/>
</g>
</svg>
