<?xml version="1.0" standalone="no"?>
<!DOCTYPE svg PUBLIC "-//W3C//DTD SVG 20010904//EN"
 "http://www.w3.org/TR/2001/REC-SVG-20010904/DTD/svg10.dtd">
<svg version="1.0" xmlns="http://www.w3.org/2000/svg"
 width="32.000000pt" height="32.000000pt" viewBox="0 0 32.000000 32.000000"
 preserveAspectRatio="xMidYMid meet">
<metadata>
Created by potrace 1.16, written by Peter Selinger 2001-2019
</metadata>
<g transform="translate(0.000000,32.000000) scale(0.100000,-0.100000)"
fill="#000000" stroke="none">
<path fill="#000000" stroke="none" d="M0 160 l0 -160 160 0 160 0 0 160 0
160 -160 0 -160 0 0 -160z"/>
<path fill="#ffffff" stroke="none" d="M300 160 l0 -140 -140 0 -140 0 0 140
0 140 140 0 140 0 0 -140z"/>
<path fill="#000000" stroke="none" d="M110 280 c0 -5 11 -10 25 -10 14 0 25
-5 25 -11 0 -8 13 -9 39 -5 32 5 43 2 65 -19 24 -22 26 -22 26 -5 0 10 -4 22
-10 25 -5 3 -10 11 -10 16 0 6 5 7 10 4 6 -3 10 -1 10 4 0 7 -33 11 -90 11
-53 0 -90 -4 -90 -10z"/>
<path fill="#ffffff" stroke="none" d="M207 264 c-3 -3 -12 -4 -19 -1 -8 3 -5
6 6 6 11 1 17 -2 13 -5z"/>
<path fill="#000000" stroke="none" d="M261 155 c1 -40 1 -40 11 -12 7 21 7
32 -1 40 -8 8 -11 0 -10 -28z"/>
<path fill="#000000" stroke="none" d="M30 133 c0 -12 5 -25 10 -28 6 -3 10
-15 10 -26 0 -11 -4 -17 -10 -14 -5 3 -10 -3 -10 -13 0 -19 7 -20 109 -19 92
2 112 5 130 21 23 21 31 57 8 38 -23 -19 -107 -43 -140 -40 -25 2 -36 11 -54
43 -12 22 -25 38 -29 37 -4 -2 -11 2 -15 10 -6 9 -9 7 -9 -9z"/>
<path fill="#000000" stroke="none" d="M80 119 c0 -5 4 -8 9 -4 6 3 14 -2 19
-11 6 -11 25 -17 53 -19 24 -1 34 0 22 2 -13 2 -23 9 -23 14 0 11 -22 8 -31
-5 -4 -5 -10 1 -14 13 -6 21 -35 30 -35 10z"/>
<path fill="#000000" stroke="none" d="M218 103 c7 -3 16 -2 19 1 4 3 -2 6
-13 5 -11 0 -14 -3 -6 -6z"/>
<path fill="#000000" stroke="none" d="M275 40 c-3 -5 -1 -10 4 -10 6 0 11 5
11 10 0 6 -2 10 -4 10 -3 0 -8 -4 -11 -10z"/>
</g>
</svg>
