<?xml version="1.0" standalone="no"?>
<!DOCTYPE svg PUBLIC "-//W3C//DTD SVG 20010904//EN"
 "http://www.w3.org/TR/2001/REC-SVG-20010904/DTD/svg10.dtd">
<svg version="1.0" xmlns="http://www.w3.org/2000/svg"
 width="32.000000pt" height="32.000000pt" viewBox="0 0 32.000000 32.000000"
 preserveAspectRatio="xMidYMid meet">
<metadata>
Created by potrace 1.16, written by Peter Selinger 2001-2019
</metadata>
<g transform="translate(0.000000,32.000000) scale(0.100000,-0.100000)"
fill="#000000" stroke="none">
<path fill="#000000" stroke="none" d="M22 163 c0 -76 3 -123 5 -105 2 18 9
30 14 26 18 -11 58 24 52 45 -4 14 3 24 26 35 16 9 35 16 41 16 6 0 21 11 34
25 13 13 27 21 32 17 5 -4 1 2 -9 14 -15 19 -16 23 -3 33 19 16 46 11 60 -12
9 -15 7 -22 -13 -38 -13 -11 -29 -18 -36 -16 -6 3 -11 -4 -11 -14 0 -21 30
-26 41 -8 4 6 13 8 21 5 11 -4 14 7 14 54 l0 60 -135 0 -135 0 2 -137z"/>
<path fill="#ffffff" stroke="none" d="M168 284 l30 -6 -22 -33 c-22 -36 -107
-81 -132 -71 -10 4 -14 22 -14 61 l0 55 54 0 c29 0 67 -3 84 -6z"/>
<path fill="#000000" stroke="none" d="M215 260 c-3 -6 1 -7 9 -4 18 7 21 14
7 14 -6 0 -13 -4 -16 -10z"/>
</g>
</svg>
