<?xml version="1.0" standalone="no"?>
<!DOCTYPE svg PUBLIC "-//W3C//DTD SVG 20010904//EN"
 "http://www.w3.org/TR/2001/REC-SVG-20010904/DTD/svg10.dtd">
<svg version="1.0" xmlns="http://www.w3.org/2000/svg"
 width="32.000000pt" height="32.000000pt" viewBox="0 0 32.000000 32.000000"
 preserveAspectRatio="xMidYMid meet">
<metadata>
Created by potrace 1.16, written by Peter Selinger 2001-2019
</metadata>
<g transform="translate(0.000000,32.000000) scale(0.100000,-0.100000)"
fill="#000000" stroke="none">
<path fill="#000000" stroke="none" d="M0 160 l0 -160 160 0 160 0 0 160 0
160 -160 0 -160 0 0 -160z"/>
<path fill="#ffffff" stroke="none" d="M300 160 l0 -140 -140 0 -140 0 0 140
0 140 140 0 140 0 0 -140z"/>
<path fill="#000000" stroke="none" d="M30 256 c0 -35 13 -55 25 -36 3 5 11
10 17 10 7 0 6 -5 -2 -15 -21 -26 16 -30 50 -5 32 23 37 35 17 43 -8 4 -7 6 3
7 21 1 -60 30 -87 30 -20 0 -23 -5 -23 -34z"/>
<path fill="#000000" stroke="none" d="M124 156 c-15 -11 -12 -16 22 -49 27
-25 41 -32 46 -24 5 8 8 5 8 -8 0 -17 5 -15 28 13 25 30 29 32 41 18 16 -19
10 -28 -20 -30 -24 -1 -40 -26 -17 -26 10 0 9 -3 -2 -10 -11 -7 -6 -10 21 -10
l37 0 1 65 c1 69 -7 78 -45 51 -16 -12 -23 -12 -39 -2 -32 20 -63 25 -81 12z"/>
<path fill="#000000" stroke="none" d="M95 90 c3 -5 1 -10 -5 -10 -7 0 -10 -6
-7 -14 4 -9 0 -12 -12 -9 -10 2 -23 -3 -30 -11 -12 -14 -6 -16 60 -16 46 0 69
4 60 9 -10 7 -11 9 0 13 7 2 -4 14 -25 26 -41 24 -50 27 -41 12z"/>
</g>
</svg>
