<?xml version="1.0" standalone="no"?>
<!DOCTYPE svg PUBLIC "-//W3C//DTD SVG 20010904//EN"
 "http://www.w3.org/TR/2001/REC-SVG-20010904/DTD/svg10.dtd">
<svg version="1.0" xmlns="http://www.w3.org/2000/svg"
 width="32.000000pt" height="32.000000pt" viewBox="0 0 32.000000 32.000000"
 preserveAspectRatio="xMidYMid meet">
<metadata>
Created by potrace 1.16, written by Peter Selinger 2001-2019
</metadata>
<g transform="translate(0.000000,32.000000) scale(0.100000,-0.100000)"
fill="#000000" stroke="none">
<path fill="#000000" stroke="none" d="M219 281 c58 -8 76 -34 42 -62 -27 -22
-46 -20 -46 4 0 30 -16 30 -48 -1 -37 -36 -99 -64 -121 -56 -13 5 -16 -1 -16
-29 0 -20 4 -38 9 -41 12 -8 44 31 36 43 -3 6 14 20 42 32 26 12 57 26 67 31
15 8 23 6 32 -7 10 -13 16 -14 33 -5 12 6 25 9 29 6 5 -3 9 17 11 45 l2 49
-58 -2 c-57 -1 -57 -1 -14 -7z"/>
</g>
</svg>
