<?xml version="1.0" standalone="no"?>
<!DOCTYPE svg PUBLIC "-//W3C//DTD SVG 20010904//EN"
 "http://www.w3.org/TR/2001/REC-SVG-20010904/DTD/svg10.dtd">
<svg version="1.0" xmlns="http://www.w3.org/2000/svg"
 width="32.000000pt" height="32.000000pt" viewBox="0 0 32.000000 32.000000"
 preserveAspectRatio="xMidYMid meet">
<metadata>
Created by potrace 1.16, written by Peter Selinger 2001-2019
</metadata>
<g transform="translate(0.000000,32.000000) scale(0.100000,-0.100000)"
fill="#000000" stroke="none">
<path fill="#000000" stroke="none" d="M22 158 c1 -79 3 -126 5 -105 3 30 7
36 17 28 9 -8 18 -6 32 7 22 19 44 26 44 14 0 -4 15 -16 33 -26 30 -17 29 -16
-10 23 -24 22 -43 44 -43 48 0 5 13 14 29 20 23 8 36 8 56 -3 23 -12 32 -12
60 0 18 8 36 12 38 9 3 -2 7 25 9 61 l3 66 -137 0 -138 0 2 -142z"/>
<path fill="#ffffff" stroke="none" d="M147 279 c13 -5 20 -15 18 -26 -2 -10
-4 -21 -4 -25 -2 -12 -74 -49 -87 -44 -7 3 -16 1 -19 -5 -14 -21 -25 5 -25 57
l0 55 48 -2 c26 -1 57 -6 69 -10z"/>
<path fill="#ffffff" stroke="none" d="M264 271 c4 -5 -3 -7 -14 -4 -11 3 -28
-1 -38 -8 -15 -13 -16 -12 -3 4 14 18 46 23 55 8z"/>
<path fill="#ffffff" stroke="none" d="M251 220 c23 11 23 10 4 -4 -11 -8 -28
-23 -38 -32 -13 -14 -20 -15 -29 -6 -9 9 -7 16 8 30 11 11 22 15 25 10 4 -6
15 -6 30 2z"/>
<path fill="#000000" stroke="none" d="M203 203 c-15 -5 -17 -23 -4 -23 5 0
11 7 15 15 3 8 4 15 3 14 -1 0 -8 -3 -14 -6z"/>
<path fill="#000000" stroke="none" d="M246 101 c-4 -5 -2 -12 3 -15 5 -4 12
-2 15 3 4 5 2 12 -3 15 -5 4 -12 2 -15 -3z"/>
<path fill="#000000" stroke="none" d="M181 58 c-9 -15 -9 -20 3 -24 8 -3 21
-2 28 3 12 7 11 11 -2 24 -16 15 -18 15 -29 -3z"/>
</g>
</svg>
