<?xml version="1.0" standalone="no"?>
<!DOCTYPE svg PUBLIC "-//W3C//DTD SVG 20010904//EN"
 "http://www.w3.org/TR/2001/REC-SVG-20010904/DTD/svg10.dtd">
<svg version="1.0" xmlns="http://www.w3.org/2000/svg"
 width="32.000000pt" height="32.000000pt" viewBox="0 0 32.000000 32.000000"
 preserveAspectRatio="xMidYMid meet">
<metadata>
Created by potrace 1.16, written by Peter Selinger 2001-2019
</metadata>
<g transform="translate(0.000000,32.000000) scale(0.100000,-0.100000)"
fill="#000000" stroke="none">
<path fill="#000000" stroke="none" d="M22 163 l2 -138 3 132 4 132 132 4 132
3 -137 2 -138 2 2 -137z"/>
<path fill="#000000" stroke="none" d="M153 243 c4 -6 3 -14 -3 -18 -6 -4 -8
-10 -5 -15 3 -5 -2 -13 -11 -18 -10 -5 -15 -16 -12 -23 3 -8 6 -18 8 -24 1 -5
7 -19 13 -30 6 -11 12 -24 12 -30 1 -5 7 -8 15 -6 8 2 22 4 30 5 14 2 20 8 20
21 0 2 -12 0 -26 -6 -23 -8 -25 -8 -15 5 9 10 9 16 1 21 -8 5 -7 12 4 24 9 10
13 21 10 24 -4 4 -2 12 3 19 8 10 2 20 -20 38 -17 14 -28 20 -24 13z"/>
</g>
</svg>
