<?xml version="1.0" standalone="no"?>
<!DOCTYPE svg PUBLIC "-//W3C//DTD SVG 20010904//EN"
 "http://www.w3.org/TR/2001/REC-SVG-20010904/DTD/svg10.dtd">
<svg version="1.0" xmlns="http://www.w3.org/2000/svg"
 width="32.000000pt" height="32.000000pt" viewBox="0 0 32.000000 32.000000"
 preserveAspectRatio="xMidYMid meet">
<metadata>
Created by potrace 1.16, written by Peter Selinger 2001-2019
</metadata>
<g transform="translate(0.000000,32.000000) scale(0.100000,-0.100000)"
fill="#000000" stroke="none">
<path fill="#000000" stroke="none" d="M0 160 l0 -160 160 0 160 0 0 160 0
160 -160 0 -160 0 0 -160z"/>
<path fill="#ffffff" stroke="none" d="M168 293 l-137 -4 -4 -137 -3 -137 -2
143 -2 142 143 -2 142 -2 -137 -3z"/>
<path fill="#ffffff" stroke="none" d="M197 225 c14 -14 19 -26 13 -35 -4 -7
-7 -22 -5 -32 2 -10 0 -16 -6 -13 -5 4 -9 3 -10 -2 0 -4 -2 -15 -4 -24 -1 -9
4 -16 11 -16 8 0 14 4 14 9 0 5 6 3 13 -4 10 -9 11 -15 3 -24 -8 -9 -13 -9
-19 0 -5 7 -15 2 -30 -16 -18 -22 -24 -24 -34 -13 -15 16 -17 29 -5 21 16 -10
6 31 -15 65 -19 28 -20 36 -9 49 8 8 20 32 27 53 12 34 15 37 24 21 5 -10 20
-27 32 -39z"/>
<path fill="#ffffff" stroke="none" d="M76 224 c-7 -7 -14 -8 -22 0 -7 7 -8
14 0 22 7 7 14 8 22 0 7 -7 8 -14 0 -22z"/>
<path fill="#ffffff" stroke="none" d="M234 239 c-3 -5 -10 -7 -15 -3 -5 3 -7
10 -3 15 3 5 10 7 15 3 5 -3 7 -10 3 -15z"/>
<path fill="#ffffff" stroke="none" d="M274 149 c-3 -5 -10 -7 -15 -3 -5 3 -7
10 -3 15 3 5 10 7 15 3 5 -3 7 -10 3 -15z"/>
<path fill="#ffffff" stroke="none" d="M94 129 c-3 -5 -10 -7 -15 -3 -5 3 -7
10 -3 15 3 5 10 7 15 3 5 -3 7 -10 3 -15z"/>
<path fill="#ffffff" stroke="none" d="M84 59 c-3 -5 -10 -7 -15 -3 -5 3 -7
10 -3 15 3 5 10 7 15 3 5 -3 7 -10 3 -15z"/>
</g>
</svg>
