<?xml version="1.0" standalone="no"?>
<!DOCTYPE svg PUBLIC "-//W3C//DTD SVG 20010904//EN"
 "http://www.w3.org/TR/2001/REC-SVG-20010904/DTD/svg10.dtd">
<svg version="1.0" xmlns="http://www.w3.org/2000/svg"
 width="32.000000pt" height="32.000000pt" viewBox="0 0 32.000000 32.000000"
 preserveAspectRatio="xMidYMid meet">
<metadata>
Created by potrace 1.16, written by Peter Selinger 2001-2019
</metadata>
<g transform="translate(0.000000,32.000000) scale(0.100000,-0.100000)"
fill="#000000" stroke="none">
<path fill="#000000" stroke="none" d="M0 160 l0 -160 160 0 160 0 0 160 0
160 -160 0 -160 0 0 -160z"/>
<path fill="#ffffff" stroke="none" d="M110 246 c-6 -9 1 -12 28 -11 30 0 37
-4 37 -20 0 -30 42 -67 66 -60 27 9 49 -12 49 -47 0 -65 -48 -90 -91 -47 -16
16 -19 28 -14 57 4 26 1 43 -9 57 -10 13 -15 15 -16 6 0 -9 -8 -12 -25 -9 -30
6 -30 6 -9 -34 15 -29 15 -33 -6 -74 -30 -60 -72 -61 -93 -1 -4 11 -2 17 6 16
33 -4 41 1 22 14 -17 13 -17 14 6 21 l24 7 -23 9 c-21 9 -22 11 -8 26 20 19
20 25 2 18 -8 -3 -17 -1 -21 5 -3 6 0 11 8 11 8 0 17 7 20 14 4 10 1 13 -7 10
-8 -3 -17 -1 -21 5 -3 6 1 11 9 11 18 0 22 25 6 35 -26 16 -5 22 30 8 28 -11
37 -19 30 -27z"/>
<path fill="#ffffff" stroke="none" d="M273 274 c4 -1 10 -2 15 -3 4 -1 -1 -8
-11 -15 -16 -12 -16 -14 -2 -20 9 -3 13 -10 10 -16 -4 -6 -10 -8 -15 -5 -5 3
-12 1 -15 -5 -5 -8 -11 -7 -21 1 -8 6 -14 8 -14 5 0 -4 -5 -4 -12 0 -8 5 -6
11 6 19 15 11 15 13 1 19 -9 3 -13 10 -10 16 4 6 10 8 15 5 5 -3 11 -1 15 5 4
6 12 7 18 3 7 -4 15 -8 20 -9z"/>
<path fill="#000000" stroke="none" d="M119 199 c11 -12 24 -18 30 -14 17 10
13 28 -4 21 -8 -3 -15 -1 -15 4 0 6 -7 10 -15 10 -13 0 -12 -4 4 -21z"/>
</g>
</svg>
