<?xml version="1.0" standalone="no"?>
<!DOCTYPE svg PUBLIC "-//W3C//DTD SVG 20010904//EN"
 "http://www.w3.org/TR/2001/REC-SVG-20010904/DTD/svg10.dtd">
<svg version="1.0" xmlns="http://www.w3.org/2000/svg"
 width="32.000000pt" height="32.000000pt" viewBox="0 0 32.000000 32.000000"
 preserveAspectRatio="xMidYMid meet">
<metadata>
Created by potrace 1.16, written by Peter Selinger 2001-2019
</metadata>
<g transform="translate(0.000000,32.000000) scale(0.100000,-0.100000)"
fill="#000000" stroke="none">
<path fill="#000000" stroke="none" d="M0 160 l0 -160 160 0 160 0 0 160 0
160 -160 0 -160 0 0 -160z"/>
<path fill="#ffffff" stroke="none" d="M300 155 l0 -135 -135 0 -135 0 0 135
0 135 135 0 135 0 0 -135z"/>
<path fill="#000000" stroke="none" d="M201 218 c10 -18 8 -24 -11 -40 -12
-10 -28 -18 -35 -18 -16 0 -35 -44 -35 -80 0 -21 5 -30 16 -30 11 0 14 6 9 20
-9 27 16 65 55 85 32 16 40 51 18 73 -20 20 -30 14 -17 -10z"/>
</g>
</svg>
