<?xml version="1.0" standalone="no"?>
<!DOCTYPE svg PUBLIC "-//W3C//DTD SVG 20010904//EN"
 "http://www.w3.org/TR/2001/REC-SVG-20010904/DTD/svg10.dtd">
<svg version="1.0" xmlns="http://www.w3.org/2000/svg"
 width="32.000000pt" height="32.000000pt" viewBox="0 0 32.000000 32.000000"
 preserveAspectRatio="xMidYMid meet">
<metadata>
Created by potrace 1.16, written by Peter Selinger 2001-2019
</metadata>
<g transform="translate(0.000000,32.000000) scale(0.100000,-0.100000)"
fill="#000000" stroke="none">
<path fill="#000000" stroke="none" d="M0 160 l0 -160 160 0 160 0 0 160 0
160 -160 0 -160 0 0 -160z"/>
<path fill="#ffffff" stroke="none" d="M168 293 l-138 -4 0 -64 0 -65 63 -1
c53 0 59 -2 37 -11 -29 -13 -36 -14 -72 -16 -26 -2 -27 -5 -31 -60 -2 -31 -4
7 -5 86 l-2 142 143 -2 142 -2 -137 -3z"/>
<path fill="#ffffff" stroke="none" d="M130 235 l0 -45 -44 0 c-41 0 -44 2
-38 23 5 18 7 19 10 5 2 -12 13 -18 33 -18 27 0 29 2 29 40 0 22 2 40 5 40 3
0 5 -20 5 -45z"/>
<path fill="#ffffff" stroke="none" d="M78 263 c-10 -2 -18 -9 -18 -15 0 -6
-3 -9 -6 -5 -10 10 6 27 24 26 15 -1 15 -2 0 -6z"/>
<path fill="#ffffff" stroke="none" d="M251 222 c-17 -32 -38 -43 -65 -36 -18
4 -26 13 -26 28 0 20 5 23 50 25 47 1 50 0 41 -17z"/>
<path fill="#ffffff" stroke="none" d="M240 164 c24 4 27 2 23 -14 -7 -28 -38
-51 -57 -44 -11 4 -15 13 -10 26 4 13 -1 25 -13 34 -17 14 -16 14 6 4 13 -7
36 -10 51 -6z"/>
<path fill="#ffffff" stroke="none" d="M176 121 c-9 -13 15 -28 56 -36 21 -4
35 -11 32 -16 -7 -13 -44 -11 -44 2 0 6 -12 2 -27 -9 l-28 -20 -1 60 c-1 42 2
55 8 44 5 -9 7 -20 4 -25z"/>
<path fill="#ffffff" stroke="none" d="M130 75 l0 -45 -47 2 -48 1 43 4 c42 4
42 4 42 44 0 21 2 39 5 39 3 0 5 -20 5 -45z"/>
<path fill="#ffffff" stroke="none" d="M76 91 c-7 -9 -16 -23 -19 -31 -3 -9
-6 -4 -6 11 -1 29 3 36 24 36 13 0 13 -3 1 -16z"/>
</g>
</svg>
