<?xml version="1.0" standalone="no"?>
<!DOCTYPE svg PUBLIC "-//W3C//DTD SVG 20010904//EN"
 "http://www.w3.org/TR/2001/REC-SVG-20010904/DTD/svg10.dtd">
<svg version="1.0" xmlns="http://www.w3.org/2000/svg"
 width="32.000000pt" height="32.000000pt" viewBox="0 0 32.000000 32.000000"
 preserveAspectRatio="xMidYMid meet">
<metadata>
Created by potrace 1.16, written by Peter Selinger 2001-2019
</metadata>
<g transform="translate(0.000000,32.000000) scale(0.100000,-0.100000)"
fill="#000000" stroke="none">
<path fill="#000000" stroke="none" d="M204 218 c-74 -56 -93 -76 -78 -82 8
-3 12 -2 9 4 -3 5 3 14 14 19 29 16 35 13 20 -6 -7 -10 -1 -7 13 6 15 13 25
28 22 32 -3 5 -1 9 5 9 6 0 15 9 21 20 14 25 9 25 -26 -2z"/>
</g>
</svg>
