<?xml version="1.0" standalone="no"?>
<!DOCTYPE svg PUBLIC "-//W3C//DTD SVG 20010904//EN"
 "http://www.w3.org/TR/2001/REC-SVG-20010904/DTD/svg10.dtd">
<svg version="1.0" xmlns="http://www.w3.org/2000/svg"
 width="32.000000pt" height="32.000000pt" viewBox="0 0 32.000000 32.000000"
 preserveAspectRatio="xMidYMid meet">
<metadata>
Created by potrace 1.16, written by Peter Selinger 2001-2019
</metadata>
<g transform="translate(0.000000,32.000000) scale(0.100000,-0.100000)"
fill="#000000" stroke="none">
<path fill="#000000" stroke="none" d="M0 160 l0 -160 160 0 160 0 0 160 0
160 -160 0 -160 0 0 -160z"/>
<path fill="#ffffff" stroke="none" d="M168 293 l-138 -4 0 -128 c0 -94 3
-131 13 -134 7 -3 5 -6 -5 -6 -16 -1 -18 12 -18 139 l0 140 143 -2 142 -2
-137 -3z"/>
<path fill="#ffffff" stroke="none" d="M131 264 c12 -14 14 -14 26 2 7 10 13
13 13 7 0 -7 -5 -15 -10 -18 -8 -5 -8 -11 0 -20 7 -9 6 -16 -5 -25 -23 -19
-18 -35 21 -69 28 -26 39 -30 50 -20 25 21 12 101 -15 85 -7 -5 -11 2 -11 18
0 20 5 26 23 26 14 0 24 -7 25 -17 1 -10 5 -39 8 -64 4 -29 1 -56 -7 -70 -12
-24 -12 -24 10 -5 21 19 21 19 21 -12 0 -35 5 -34 -110 -37 -101 -4 -132 3
-128 29 2 14 12 22 33 26 17 3 29 9 28 13 -2 4 -1 7 2 7 14 0 5 -16 -14 -25
-11 -5 -21 -13 -21 -18 0 -4 4 -6 8 -3 4 3 25 1 46 -4 25 -6 45 -5 56 2 16 10
15 15 -18 50 -39 42 -48 45 -73 22 -10 -9 -20 -11 -23 -6 -3 5 1 15 9 22 17
14 21 45 5 35 -11 -7 -40 11 -40 25 0 14 46 59 61 59 9 1 22 -6 30 -15z"/>
<path fill="#ffffff" stroke="none" d="M214 149 c-3 -5 -10 -7 -15 -3 -5 3 -7
10 -3 15 3 5 10 7 15 3 5 -3 7 -10 3 -15z"/>
<path fill="#000000" stroke="none" d="M90 260 c0 -5 5 -12 11 -15 6 -4 8 -13
5 -21 -7 -17 18 -18 32 -1 8 9 3 17 -19 29 -16 9 -29 13 -29 8z"/>
<path fill="#000000" stroke="none" d="M66 231 c-4 -5 -2 -12 3 -15 5 -4 12
-2 15 3 4 5 2 12 -3 15 -5 4 -12 2 -15 -3z"/>
</g>
</svg>
