<?xml version="1.0" standalone="no"?>
<!DOCTYPE svg PUBLIC "-//W3C//DTD SVG 20010904//EN"
 "http://www.w3.org/TR/2001/REC-SVG-20010904/DTD/svg10.dtd">
<svg version="1.0" xmlns="http://www.w3.org/2000/svg"
 width="32.000000pt" height="32.000000pt" viewBox="0 0 32.000000 32.000000"
 preserveAspectRatio="xMidYMid meet">
<metadata>
Created by potrace 1.16, written by Peter Selinger 2001-2019
</metadata>
<g transform="translate(0.000000,32.000000) scale(0.100000,-0.100000)"
fill="#000000" stroke="none">
<path fill="#000000" stroke="none" d="M0 160 l0 -160 160 0 160 0 0 160 0
160 -160 0 -160 0 0 -160z"/>
<path fill="#ffffff" stroke="none" d="M168 293 l-137 -4 -4 -137 -3 -137 -2
143 -2 142 143 -2 142 -2 -137 -3z"/>
<path fill="#ffffff" stroke="none" d="M126 258 l19 -23 -22 18 c-12 11 -27
16 -34 11 -8 -4 -10 -3 -5 4 10 17 21 15 42 -10z"/>
<path fill="#ffffff" stroke="none" d="M100 225 c10 -25 10 -25 37 -8 l28 18
-17 -26 c-16 -26 -16 -27 27 -69 l43 -42 17 26 c14 21 15 31 6 57 -15 42 -13
48 4 25 23 -31 19 -83 -10 -111 -13 -14 -30 -25 -36 -25 -7 0 -9 3 -5 7 3 4
-12 26 -35 49 -41 42 -42 42 -68 26 l-26 -17 18 28 c17 27 17 27 -8 37 -24 9
-33 29 -18 43 14 15 34 6 43 -18z"/>
<path fill="#ffffff" stroke="none" d="M240 236 c0 -2 -7 -9 -15 -16 -12 -10
-15 -10 -15 4 0 9 7 16 15 16 8 0 15 -2 15 -4z"/>
<path fill="#ffffff" stroke="none" d="M280 95 c0 -8 -7 -15 -16 -15 -14 0
-14 3 -4 15 7 8 14 15 16 15 2 0 4 -7 4 -15z"/>
<path fill="#ffffff" stroke="none" d="M59 74 c-7 -9 -5 -14 8 -18 15 -4 15
-5 -2 -3 -23 3 -33 34 -11 34 11 0 13 -4 5 -13z"/>
<path fill="#ffffff" stroke="none" d="M125 60 c17 -3 15 -6 -5 -7 -10 -1 -25
6 -32 14 -11 14 -11 15 7 6 11 -6 25 -12 30 -13z"/>
<path fill="#ffffff" stroke="none" d="M270 61 c0 -5 -9 -7 -20 -4 -11 3 -20
7 -20 9 0 2 9 4 20 4 11 0 20 -4 20 -9z"/>
<path fill="#000000" stroke="none" d="M60 226 c0 -7 8 -16 19 -19 14 -3 17 0
14 14 -6 22 -33 26 -33 5z"/>
</g>
</svg>
