<?xml version="1.0" standalone="no"?>
<!DOCTYPE svg PUBLIC "-//W3C//DTD SVG 20010904//EN"
 "http://www.w3.org/TR/2001/REC-SVG-20010904/DTD/svg10.dtd">
<svg version="1.0" xmlns="http://www.w3.org/2000/svg"
 width="32.000000pt" height="32.000000pt" viewBox="0 0 32.000000 32.000000"
 preserveAspectRatio="xMidYMid meet">
<metadata>
Created by potrace 1.16, written by Peter Selinger 2001-2019
</metadata>
<g transform="translate(0.000000,32.000000) scale(0.100000,-0.100000)"
fill="#000000" stroke="none">
<path fill="#000000" stroke="none" d="M0 160 l0 -160 160 0 160 0 0 160 0
160 -160 0 -160 0 0 -160z"/>
<path fill="#ffffff" stroke="none" d="M300 160 l0 -140 -140 0 -140 0 0 140
0 140 140 0 140 0 0 -140z"/>
<path fill="#000000" stroke="none" d="M31 220 c0 -38 4 -70 9 -70 6 0 10 6
10 13 0 9 2 9 8 0 8 -13 51 -11 85 3 14 5 18 3 15 -11 -2 -11 4 -19 15 -21 13
-2 15 1 9 9 -7 8 -2 18 14 30 21 16 25 16 30 3 3 -9 10 -14 14 -11 4 3 7 -9 6
-26 -1 -18 3 -33 11 -36 7 -3 13 -13 13 -23 0 -35 -119 -53 -189 -29 -36 13
-42 42 -12 59 27 14 39 12 19 -4 -15 -11 -8 -13 47 -14 49 -1 65 2 65 13 0 13
-28 13 -70 0 -9 -3 -7 1 4 10 15 11 16 15 5 16 -8 0 -27 2 -44 4 -16 2 -33 -1
-37 -8 -6 -9 -8 -9 -8 1 0 6 -4 12 -9 12 -4 0 -9 -25 -10 -55 l-1 -55 129 0
129 0 0 50 c1 27 -4 52 -9 56 -6 4 -7 10 0 17 12 15 12 107 0 107 -5 0 -9 -6
-9 -12 0 -10 -2 -10 -9 0 -4 8 -11 13 -15 12 -3 0 -14 4 -24 10 -14 8 -12 9
11 4 16 -4 27 -2 27 4 0 6 -44 11 -114 11 l-115 1 0 -70z"/>
<path fill="#ffffff" stroke="none" d="M74 259 c-3 -5 -10 -7 -15 -3 -5 3 -7
10 -3 15 3 5 10 7 15 3 5 -3 7 -10 3 -15z"/>
<path fill="#ffffff" stroke="none" d="M133 260 c-4 -16 -1 -18 23 -14 16 2
36 7 44 9 9 3 7 -1 -4 -10 -20 -15 -20 -15 0 -16 38 -2 44 -4 44 -14 0 -5 -8
-11 -17 -11 -10 -1 -26 -5 -36 -9 -14 -6 -18 -4 -15 10 2 11 -4 19 -15 21 -13
2 -15 -1 -9 -9 7 -8 2 -18 -14 -30 -21 -16 -25 -16 -30 -3 -3 9 -11 13 -18 9
-6 -3 -8 -3 -4 2 4 4 3 14 -3 21 -6 7 -6 14 -1 18 6 3 17 -6 27 -20 21 -32 43
-18 25 16 -6 12 -9 28 -6 36 8 21 15 17 9 -6z"/>
<path fill="#000000" stroke="none" d="M270 280 c0 -5 5 -10 10 -10 6 0 10 5
10 10 0 6 -4 10 -10 10 -5 0 -10 -4 -10 -10z"/>
<path fill="#000000" stroke="none" d="M197 163 c-4 -6 0 -26 8 -44 8 -19 14
-30 15 -25 0 5 7 3 15 -4 11 -9 15 -9 15 -1 0 6 -7 14 -16 18 -11 4 -12 8 -4
13 7 5 5 14 -8 30 -12 14 -21 19 -25 13z"/>
<path fill="#000000" stroke="none" d="M98 73 c7 -3 16 -2 19 1 4 3 -2 6 -13
5 -11 0 -14 -3 -6 -6z"/>
<path fill="#000000" stroke="none" d="M193 73 c9 -2 23 -2 30 0 6 3 -1 5 -18
5 -16 0 -22 -2 -12 -5z"/>
</g>
</svg>
