<?xml version="1.0" standalone="no"?>
<!DOCTYPE svg PUBLIC "-//W3C//DTD SVG 20010904//EN"
 "http://www.w3.org/TR/2001/REC-SVG-20010904/DTD/svg10.dtd">
<svg version="1.0" xmlns="http://www.w3.org/2000/svg"
 width="32.000000pt" height="32.000000pt" viewBox="0 0 32.000000 32.000000"
 preserveAspectRatio="xMidYMid meet">
<metadata>
Created by potrace 1.16, written by Peter Selinger 2001-2019
</metadata>
<g transform="translate(0.000000,32.000000) scale(0.100000,-0.100000)"
fill="#000000" stroke="none">
<path fill="#000000" stroke="none" d="M0 160 l0 -160 160 0 160 0 0 160 0
160 -160 0 -160 0 0 -160z"/>
<path fill="#ffffff" stroke="none" d="M168 303 c-97 -4 -98 -4 -98 -28 0 -20
-5 -25 -25 -25 -24 0 -24 -1 -28 -97 l-3 -98 -2 103 -2 102 25 0 c20 0 25 5
25 25 l0 25 103 -2 102 -2 -97 -3z"/>
<path fill="#ffffff" stroke="none" d="M303 253 c-7 -2 -21 -2 -30 0 -10 3 -4
5 12 5 17 0 24 -2 18 -5z"/>
<path fill="#ffffff" stroke="none" d="M208 220 c4 -12 3 -13 -10 -3 -8 7 -18
10 -22 6 -10 -11 -36 -12 -36 -2 0 16 -27 -2 -40 -26 -7 -13 -20 -27 -28 -30
-16 -6 -9 6 31 52 23 26 97 28 105 3z"/>
<path fill="#ffffff" stroke="none" d="M130 178 c0 -16 -3 -19 -11 -11 -6 6
-8 16 -5 22 11 17 16 13 16 -11z"/>
<path fill="#ffffff" stroke="none" d="M202 168 c-9 -9 -12 -7 -12 12 0 19 3
21 12 12 9 -9 9 -15 0 -24z"/>
<path fill="#ffffff" stroke="none" d="M220 126 c0 -2 -8 -10 -17 -17 -16 -13
-17 -12 -4 4 13 16 21 21 21 13z"/>
<path fill="#ffffff" stroke="none" d="M177 94 c-3 -3 -12 -4 -19 -1 -8 3 -5
6 6 6 11 1 17 -2 13 -5z"/>
<path fill="#ffffff" stroke="none" d="M67 23 c-3 -10 -5 -5 -5 12 0 17 2 24
5 18 2 -7 2 -21 0 -30z"/>
</g>
</svg>
