<?xml version="1.0" standalone="no"?>
<!DOCTYPE svg PUBLIC "-//W3C//DTD SVG 20010904//EN"
 "http://www.w3.org/TR/2001/REC-SVG-20010904/DTD/svg10.dtd">
<svg version="1.0" xmlns="http://www.w3.org/2000/svg"
 width="32.000000pt" height="32.000000pt" viewBox="0 0 32.000000 32.000000"
 preserveAspectRatio="xMidYMid meet">
<metadata>
Created by potrace 1.16, written by Peter Selinger 2001-2019
</metadata>
<g transform="translate(0.000000,32.000000) scale(0.100000,-0.100000)"
fill="#000000" stroke="none">
<path fill="#000000" stroke="none" d="M0 160 l0 -160 160 0 160 0 0 160 0
160 -160 0 -160 0 0 -160z"/>
<path fill="#ffffff" stroke="none" d="M278 293 c-16 -2 -28 -9 -28 -15 0 -5
7 -8 15 -4 8 3 14 2 14 -2 -3 -18 2 -26 9 -15 4 6 7 -19 7 -57 0 -37 -3 -66
-7 -63 -5 2 -8 13 -8 23 0 20 -38 53 -52 44 -4 -3 -8 -14 -8 -24 0 -12 -7 -18
-19 -17 -11 0 -19 4 -19 7 2 19 -4 43 -9 32 -2 -6 -9 -10 -14 -6 -5 3 -9 -1
-9 -8 0 -19 -45 -21 -60 -3 -11 13 -10 14 4 9 17 -6 46 11 46 27 0 5 -12 6
-26 3 -19 -5 -25 -4 -20 5 4 6 11 9 16 6 4 -3 11 2 14 11 3 8 2 12 -4 9 -6 -3
-10 -2 -10 4 0 7 -9 7 -27 1 l-28 -10 25 20 25 20 -39 0 -39 0 5 -72 c5 -59
10 -75 28 -90 25 -20 40 -16 40 13 0 12 7 19 20 19 11 0 19 -3 19 -7 -3 -19 3
-47 8 -35 2 6 9 10 14 6 5 -3 9 1 9 8 0 19 45 21 60 3 11 -13 10 -14 -4 -9
-17 6 -46 -11 -46 -27 0 -5 12 -6 26 -3 19 5 25 4 20 -5 -4 -6 -11 -9 -16 -6
-4 3 -11 -2 -14 -11 -3 -8 -2 -12 4 -9 6 3 10 2 10 -4 0 -7 9 -7 28 -1 26 10
26 9 7 -6 -11 -8 -19 -18 -18 -22 1 -4 -34 -7 -78 -7 -60 0 -79 3 -79 14 0 8
-6 11 -16 7 -8 -3 -12 -2 -9 3 3 5 1 12 -5 16 -5 3 -10 -3 -10 -14 0 -10 6
-22 13 -24 7 -3 5 -6 -5 -6 -16 -1 -18 12 -18 139 l0 140 143 -1 c78 -1 130
-4 115 -6z"/>
<path fill="#ffffff" stroke="none" d="M251 167 c-1 -12 -15 -9 -19 4 -3 6 1
10 8 8 6 -3 11 -8 11 -12z"/>
<path fill="#ffffff" stroke="none" d="M87 144 c-9 -9 -28 6 -21 18 4 6 10 6
17 -1 6 -6 8 -13 4 -17z"/>
<path fill="#000000" stroke="none" d="M178 263 c-26 -31 -30 -43 -14 -43 9 0
16 8 16 18 0 10 5 23 12 30 7 7 10 12 7 12 -3 0 -13 -8 -21 -17z"/>
<path fill="#000000" stroke="none" d="M192 210 c0 -16 4 -32 9 -36 7 -4 9 6
5 26 -6 43 -13 47 -14 10z"/>
<path fill="#000000" stroke="none" d="M235 230 c-3 -6 1 -7 9 -4 18 7 21 14
7 14 -6 0 -13 -4 -16 -10z"/>
<path fill="#000000" stroke="none" d="M114 120 c6 -43 13 -47 14 -10 0 16 -4
32 -9 36 -7 4 -9 -6 -5 -26z"/>
<path fill="#000000" stroke="none" d="M70 90 c-9 -6 -10 -10 -3 -10 6 0 15 5
18 10 8 12 4 12 -15 0z"/>
<path fill="#000000" stroke="none" d="M140 82 c0 -10 -6 -24 -12 -32 -11 -12
-10 -12 5 0 28 21 41 50 22 50 -8 0 -15 -8 -15 -18z"/>
</g>
</svg>
