<?xml version="1.0" standalone="no"?>
<!DOCTYPE svg PUBLIC "-//W3C//DTD SVG 20010904//EN"
 "http://www.w3.org/TR/2001/REC-SVG-20010904/DTD/svg10.dtd">
<svg version="1.0" xmlns="http://www.w3.org/2000/svg"
 width="32.000000pt" height="32.000000pt" viewBox="0 0 32.000000 32.000000"
 preserveAspectRatio="xMidYMid meet">
<metadata>
Created by potrace 1.16, written by Peter Selinger 2001-2019
</metadata>
<g transform="translate(0.000000,32.000000) scale(0.100000,-0.100000)"
fill="#000000" stroke="none">
<path fill="#000000" stroke="none" d="M0 160 l0 -160 160 0 160 0 0 160 0
160 -160 0 -160 0 0 -160z"/>
<path fill="#ffffff" stroke="none" d="M160 305 c0 -2 -10 -9 -22 -15 -22 -11
-22 -10 -4 4 21 17 26 19 26 11z"/>
<path fill="#ffffff" stroke="none" d="M100 255 c-12 -14 -10 -16 16 -10 29 7
29 7 -6 -15 -19 -12 -48 -34 -64 -49 l-29 -26 7 30 c11 44 34 75 51 69 9 -4
18 1 21 10 4 9 9 15 12 12 3 -3 -1 -13 -8 -21z"/>
<path fill="#ffffff" stroke="none" d="M200 265 c-33 -19 -50 -18 -26 0 11 8
27 15 35 15 10 -1 7 -6 -9 -15z"/>
<path fill="#ffffff" stroke="none" d="M160 150 c0 -4 -11 -17 -25 -30 -14
-13 -29 -38 -34 -54 -8 -27 -9 -28 -10 -7 -1 20 -3 21 -16 11 -26 -22 -18 15
11 50 21 24 29 28 40 19 12 -9 13 -9 9 3 -4 9 0 15 10 15 8 0 15 -3 15 -7z"/>
</g>
</svg>
