<?xml version="1.0" standalone="no"?>
<!DOCTYPE svg PUBLIC "-//W3C//DTD SVG 20010904//EN"
 "http://www.w3.org/TR/2001/REC-SVG-20010904/DTD/svg10.dtd">
<svg version="1.0" xmlns="http://www.w3.org/2000/svg"
 width="32.000000pt" height="32.000000pt" viewBox="0 0 32.000000 32.000000"
 preserveAspectRatio="xMidYMid meet">
<metadata>
Created by potrace 1.16, written by Peter Selinger 2001-2019
</metadata>
<g transform="translate(0.000000,32.000000) scale(0.100000,-0.100000)"
fill="#000000" stroke="none">
<path fill="#000000" stroke="none" d="M21 163 c1 -76 4 -128 6 -115 4 19 7
21 19 11 10 -8 11 -14 4 -19 -6 -4 5 -6 23 -6 24 1 34 6 33 16 -1 10 6 14 19
12 16 -3 18 -1 8 9 -10 10 -16 9 -31 -4 -24 -22 -35 -21 -55 1 -22 24 -22 52
1 52 16 1 16 1 0 14 -10 7 -18 21 -18 30 0 16 1 16 16 2 25 -25 30 -19 6 7
-16 17 -22 36 -22 70 0 26 5 47 10 47 6 0 9 -3 9 -7 -4 -25 2 -85 8 -79 4 4 6
25 4 46 l-3 40 79 -3 c62 -2 78 -5 78 -17 0 -9 -7 -14 -20 -12 -16 3 -18 1 -8
-9 10 -10 16 -9 31 4 23 21 30 21 56 0 21 -18 21 -18 2 4 -10 12 -25 24 -35
26 -9 2 -4 3 11 1 15 -2 30 1 33 6 4 6 -45 10 -129 10 l-136 0 1 -137z"/>
<path fill="#000000" stroke="none" d="M86 265 c4 -8 12 -15 19 -15 7 0 15 7
19 15 4 11 -1 15 -19 15 -18 0 -23 -4 -19 -15z"/>
<path fill="#000000" stroke="none" d="M146 214 c-3 -9 -2 -12 5 -9 5 4 17 1
26 -7 15 -12 15 -11 2 10 -16 26 -25 28 -33 6z"/>
<path fill="#000000" stroke="none" d="M70 191 c0 -6 4 -13 10 -16 6 -3 7 1 4
9 -7 18 -14 21 -14 7z"/>
<path fill="#000000" stroke="none" d="M265 190 c3 -5 10 -10 16 -10 5 0 9 5
9 10 0 6 -7 10 -16 10 -8 0 -12 -4 -9 -10z"/>
<path fill="#000000" stroke="none" d="M265 150 c21 -24 26 -25 19 -6 -3 8
-13 17 -22 21 -13 5 -13 2 3 -15z"/>
<path fill="#000000" stroke="none" d="M234 142 c5 -8 -2 -12 -18 -12 -18 0
-24 -4 -20 -15 8 -21 27 -19 41 5 9 14 10 21 1 26 -7 4 -8 3 -4 -4z"/>
<path fill="#000000" stroke="none" d="M141 113 c16 -27 25 -29 33 -7 3 9 2
12 -5 9 -5 -4 -17 -1 -26 7 -15 12 -15 11 -2 -9z"/>
<path fill="#000000" stroke="none" d="M260 115 c-3 -5 -3 -28 0 -50 3 -22 7
-35 10 -30 3 6 3 28 0 50 -3 22 -7 36 -10 30z"/>
</g>
</svg>
