<?xml version="1.0" standalone="no"?>
<!DOCTYPE svg PUBLIC "-//W3C//DTD SVG 20010904//EN"
 "http://www.w3.org/TR/2001/REC-SVG-20010904/DTD/svg10.dtd">
<svg version="1.0" xmlns="http://www.w3.org/2000/svg"
 width="32.000000pt" height="32.000000pt" viewBox="0 0 32.000000 32.000000"
 preserveAspectRatio="xMidYMid meet">
<metadata>
Created by potrace 1.16, written by Peter Selinger 2001-2019
</metadata>
<g transform="translate(0.000000,32.000000) scale(0.100000,-0.100000)"
fill="#000000" stroke="none">
<path fill="#000000" stroke="none" d="M21 158 c1 -96 4 -132 9 -109 5 19 6
40 3 47 -9 24 16 24 41 0 23 -20 24 -25 11 -36 -12 -10 -18 -10 -30 0 -10 9
-15 9 -15 1 0 -6 6 -11 13 -11 8 0 8 -3 -2 -9 -10 -6 -3 -9 21 -8 25 1 34 5
31 14 -3 7 0 13 6 13 6 0 11 -7 11 -15 0 -8 4 -15 8 -15 17 0 5 42 -14 52 -26
15 -64 50 -64 60 0 9 69 -39 81 -56 4 -5 11 -6 17 -2 5 3 15 -8 21 -24 5 -17
12 -30 15 -30 3 0 0 14 -6 30 -5 17 -8 37 -5 45 4 8 1 12 -6 10 -14 -5 -54 28
-80 65 -9 13 -17 18 -17 11 0 -7 16 -29 35 -48 50 -50 36 -54 -16 -5 -36 33
-41 42 -31 55 8 10 10 29 6 56 l-7 41 37 0 c31 0 38 -4 47 -27 6 -15 8 -35 6
-44 -3 -11 0 -16 7 -13 6 2 29 -13 50 -33 38 -37 38 -38 15 -43 -20 -4 -24
-11 -24 -45 0 -33 3 -40 20 -40 17 0 20 6 17 34 -1 18 3 40 9 47 9 11 3 22
-25 50 -50 50 -37 55 15 6 36 -33 41 -42 31 -55 -8 -10 -10 -29 -6 -56 9 -54
19 -44 15 14 -1 25 1 45 6 45 4 0 9 18 10 41 2 22 -1 37 -7 34 -5 -3 -20 5
-34 19 -24 21 -25 25 -10 37 14 11 19 10 35 -10 11 -13 19 -18 19 -13 0 6 -6
17 -14 24 -12 11 -11 15 8 25 17 10 -4 12 -121 13 l-143 0 1 -142z"/>
<path fill="#ffffff" stroke="none" d="M49 240 c1 -30 -2 -50 -9 -50 -5 0 -10
22 -10 50 0 28 4 50 8 50 5 0 9 -22 11 -50z"/>
<path fill="#ffffff" stroke="none" d="M185 267 c0 -10 9 -23 20 -29 27 -15
65 -50 65 -60 0 -9 -69 39 -81 56 -4 5 -11 6 -17 2 -5 -3 -15 8 -21 25 -10 28
-9 30 12 27 13 -2 22 -10 22 -21z"/>
<path fill="#ffffff" stroke="none" d="M220 269 c0 -5 -4 -9 -10 -9 -5 0 -10
7 -10 16 0 8 5 12 10 9 6 -3 10 -10 10 -16z"/>
<path fill="#ffffff" stroke="none" d="M37 158 c-3 -8 -6 -5 -6 6 -1 11 2 17
5 13 3 -3 4 -12 1 -19z"/>
<path fill="#000000" stroke="none" d="M85 237 c0 -35 3 -42 20 -42 17 0 20 7
20 42 0 36 -3 43 -20 43 -17 0 -20 -7 -20 -43z"/>
</g>
</svg>
