<?xml version="1.0" standalone="no"?>
<!DOCTYPE svg PUBLIC "-//W3C//DTD SVG 20010904//EN"
 "http://www.w3.org/TR/2001/REC-SVG-20010904/DTD/svg10.dtd">
<svg version="1.0" xmlns="http://www.w3.org/2000/svg"
 width="32.000000pt" height="32.000000pt" viewBox="0 0 32.000000 32.000000"
 preserveAspectRatio="xMidYMid meet">
<metadata>
Created by potrace 1.16, written by Peter Selinger 2001-2019
</metadata>
<g transform="translate(0.000000,32.000000) scale(0.100000,-0.100000)"
fill="#000000" stroke="none">
<path fill="#000000" stroke="none" d="M0 160 l0 -160 160 0 160 0 0 160 0
160 -160 0 -160 0 0 -160z"/>
<path fill="#ffffff" stroke="none" d="M168 293 l-137 -4 -4 -137 -3 -137 -2
143 -2 142 143 -2 142 -2 -137 -3z"/>
<path fill="#ffffff" stroke="none" d="M148 211 c6 -3 0 -11 -14 -18 -14 -7
-26 -7 -30 -2 -3 5 0 8 8 7 9 -2 12 5 10 22 -2 18 0 21 6 11 5 -7 14 -16 20
-20z"/>
<path fill="#ffffff" stroke="none" d="M250 237 c0 -2 -10 -12 -22 -23 l-23
-19 19 23 c18 21 26 27 26 19z"/>
<path fill="#ffffff" stroke="none" d="M201 216 c-8 -10 -9 -16 -1 -21 5 -3
10 -14 10 -23 0 -12 -4 -10 -13 8 -14 26 -12 50 5 50 6 0 6 -6 -1 -14z"/>
<path fill="#ffffff" stroke="none" d="M247 174 c-3 -3 -12 -4 -19 -1 -8 3 -5
6 6 6 11 1 17 -2 13 -5z"/>
<path fill="#ffffff" stroke="none" d="M132 103 c-2 -7 -9 -13 -14 -13 -6 0
-6 6 1 14 8 10 9 16 1 21 -5 3 -10 14 -10 23 0 12 4 10 13 -8 8 -14 12 -31 9
-37z"/>
<path fill="#ffffff" stroke="none" d="M97 144 c-3 -3 -12 -4 -19 -1 -8 3 -5
6 6 6 11 1 17 -2 13 -5z"/>
<path fill="#ffffff" stroke="none" d="M215 130 c4 -6 1 -9 -7 -8 -8 2 -12 -5
-10 -20 3 -23 3 -23 -15 -5 -19 19 -18 20 24 42 1 1 5 -4 8 -9z"/>
<path fill="#ffffff" stroke="none" d="M110 117 c0 -2 -10 -12 -22 -23 l-23
-19 19 23 c18 21 26 27 26 19z"/>
</g>
</svg>
