<?xml version="1.0" standalone="no"?>
<!DOCTYPE svg PUBLIC "-//W3C//DTD SVG 20010904//EN"
 "http://www.w3.org/TR/2001/REC-SVG-20010904/DTD/svg10.dtd">
<svg version="1.0" xmlns="http://www.w3.org/2000/svg"
 width="32.000000pt" height="32.000000pt" viewBox="0 0 32.000000 32.000000"
 preserveAspectRatio="xMidYMid meet">
<metadata>
Created by potrace 1.16, written by Peter Selinger 2001-2019
</metadata>
<g transform="translate(0.000000,32.000000) scale(0.100000,-0.100000)"
fill="#000000" stroke="none">
<path fill="#000000" stroke="none" d="M20 160 l0 -140 140 0 140 0 0 140 0
140 -140 0 -140 0 0 -140z"/>
<path fill="#ffffff" stroke="none" d="M290 243 c-1 -44 -2 -46 -15 -29 -8 11
-16 18 -18 15 -1 -2 -10 -21 -20 -42 -16 -36 -16 -37 1 -28 16 8 22 4 35 -25
10 -19 17 -50 17 -69 l0 -35 -130 0 -130 0 0 35 c0 19 7 50 17 69 13 29 19 33
35 25 17 -9 17 -8 1 28 -10 21 -19 40 -20 42 -2 3 -10 -4 -18 -15 -13 -17 -14
-15 -15 29 l0 47 130 0 130 0 0 -47z"/>
<path fill="#000000" stroke="none" d="M91 273 c1 -4 -2 -17 -6 -27 -6 -15 -1
-25 26 -47 43 -36 55 -36 98 0 27 22 32 32 26 47 -4 10 -7 23 -6 27 1 5 -3 6
-9 2 -6 -4 -9 -14 -8 -23 3 -14 -6 -17 -52 -17 -46 0 -55 3 -52 17 1 9 -2 19
-8 23 -6 4 -10 3 -9 -2z"/>
<path fill="#000000" stroke="none" d="M102 149 c-1 -24 2 -28 16 -20 11 6 20
4 29 -7 12 -16 14 -16 26 0 9 11 18 13 29 7 14 -8 17 -4 16 20 -1 29 -7 31
-40 16 -10 -4 -26 -4 -35 0 -34 15 -40 13 -41 -16z"/>
<path fill="#000000" stroke="none" d="M56 105 c-11 -29 -7 -36 29 -51 44 -18
106 -18 150 0 36 15 42 30 25 56 -9 14 -11 13 -14 -19 -2 -21 -49 -25 -63 -4
-12 16 -13 16 -13 0 0 -10 -8 -17 -20 -17 -11 0 -20 6 -20 13 0 8 -3 8 -8 2
-12 -17 -47 -12 -47 7 0 24 -11 32 -19 13z"/>
</g>
</svg>
