<?xml version="1.0" standalone="no"?>
<!DOCTYPE svg PUBLIC "-//W3C//DTD SVG 20010904//EN"
 "http://www.w3.org/TR/2001/REC-SVG-20010904/DTD/svg10.dtd">
<svg version="1.0" xmlns="http://www.w3.org/2000/svg"
 width="32.000000pt" height="32.000000pt" viewBox="0 0 32.000000 32.000000"
 preserveAspectRatio="xMidYMid meet">
<metadata>
Created by potrace 1.16, written by Peter Selinger 2001-2019
</metadata>
<g transform="translate(0.000000,32.000000) scale(0.100000,-0.100000)"
fill="#000000" stroke="none">
<path fill="#000000" stroke="none" d="M125 291 c-6 -5 -17 -11 -25 -13 -21
-4 -50 -48 -50 -76 l0 -24 31 26 c31 26 41 30 69 26 25 -3 60 -42 60 -67 0
-30 14 -29 34 2 11 17 13 24 4 23 -7 -2 -12 6 -12 17 0 11 -8 27 -18 36 -13
12 -14 19 -6 27 9 9 6 10 -11 7 -18 -3 -21 -1 -16 12 5 15 4 15 -12 1 -18 -16
-48 -14 -37 3 7 12 1 12 -11 0z"/>
<path fill="#000000" stroke="none" d="M40 81 c0 -5 5 -13 10 -16 6 -3 10 -2
10 4 0 5 -4 13 -10 16 -5 3 -10 2 -10 -4z"/>
<path fill="#000000" stroke="none" d="M146 65 c-3 -9 0 -15 9 -15 9 0 12 6 9
15 -4 8 -7 15 -9 15 -2 0 -5 -7 -9 -15z"/>
<path fill="#000000" stroke="none" d="M106 51 c-4 -5 -2 -12 3 -15 5 -4 12
-2 15 3 4 5 2 12 -3 15 -5 4 -12 2 -15 -3z"/>
</g>
</svg>
