<?xml version="1.0" standalone="no"?>
<!DOCTYPE svg PUBLIC "-//W3C//DTD SVG 20010904//EN"
 "http://www.w3.org/TR/2001/REC-SVG-20010904/DTD/svg10.dtd">
<svg version="1.0" xmlns="http://www.w3.org/2000/svg"
 width="32.000000pt" height="32.000000pt" viewBox="0 0 32.000000 32.000000"
 preserveAspectRatio="xMidYMid meet">
<metadata>
Created by potrace 1.16, written by Peter Selinger 2001-2019
</metadata>
<g transform="translate(0.000000,32.000000) scale(0.100000,-0.100000)"
fill="#000000" stroke="none">
<path fill="#000000" stroke="none" d="M22 158 l2 -143 3 137 4 137 137 4 137
3 -142 2 -143 2 2 -142z"/>
<path fill="#000000" stroke="none" d="M110 220 c0 -5 -7 -10 -16 -10 -10 0
-14 -6 -11 -14 3 -8 -5 -18 -21 -25 l-26 -12 30 -20 c16 -10 35 -17 41 -14 7
2 12 -1 10 -7 -3 -19 25 -16 61 5 28 17 33 17 38 3 3 -9 10 -14 15 -11 4 3 6
12 2 21 -3 8 -2 14 3 13 5 -1 18 -1 28 0 19 1 19 2 -2 21 -12 11 -30 21 -41
23 -11 2 -30 12 -41 22 -21 19 -23 19 -35 2 -15 -21 -37 -23 -29 -2 4 8 3 15
0 15 -3 0 -6 -4 -6 -10z"/>
</g>
</svg>
