<?xml version="1.0" standalone="no"?>
<!DOCTYPE svg PUBLIC "-//W3C//DTD SVG 20010904//EN"
 "http://www.w3.org/TR/2001/REC-SVG-20010904/DTD/svg10.dtd">
<svg version="1.0" xmlns="http://www.w3.org/2000/svg"
 width="32.000000pt" height="32.000000pt" viewBox="0 0 32.000000 32.000000"
 preserveAspectRatio="xMidYMid meet">
<metadata>
Created by potrace 1.16, written by Peter Selinger 2001-2019
</metadata>
<g transform="translate(0.000000,32.000000) scale(0.100000,-0.100000)"
fill="#000000" stroke="none">
<path fill="#000000" stroke="none" d="M0 160 l0 -160 160 0 160 0 0 160 0
160 -160 0 -160 0 0 -160z"/>
<path fill="#ffffff" stroke="none" d="M278 293 c-18 -3 -28 -11 -28 -21 -1
-16 -2 -16 -14 1 -18 23 -26 22 -27 -5 l0 -23 -11 23 c-10 20 -18 22 -90 22
l-78 0 0 -121 c0 -77 4 -118 10 -114 6 3 10 0 10 -8 0 -8 -7 -17 -15 -21 -13
-5 -15 14 -15 134 l0 140 143 -1 c78 -1 130 -4 115 -6z"/>
<path fill="#ffffff" stroke="none" d="M161 253 c-8 -15 -10 -15 -11 -2 0 17
10 32 18 25 2 -3 -1 -13 -7 -23z"/>
<path fill="#ffffff" stroke="none" d="M267 238 c-3 -7 -5 -2 -5 12 0 14 2 19
5 13 2 -7 2 -19 0 -25z"/>
<path fill="#ffffff" stroke="none" d="M67 58 c-3 -7 -5 -2 -5 12 0 14 2 19 5
13 2 -7 2 -19 0 -25z"/>
<path fill="#ffffff" stroke="none" d="M152 59 c-23 -9 -27 -3 -11 14 10 11
16 12 21 3 4 -6 0 -14 -10 -17z"/>
<path fill="#ffffff" stroke="none" d="M92 58 c-7 -7 -12 -8 -12 -2 0 14 12
26 19 19 2 -3 -1 -11 -7 -17z"/>
</g>
</svg>
