<?xml version="1.0" standalone="no"?>
<!DOCTYPE svg PUBLIC "-//W3C//DTD SVG 20010904//EN"
 "http://www.w3.org/TR/2001/REC-SVG-20010904/DTD/svg10.dtd">
<svg version="1.0" xmlns="http://www.w3.org/2000/svg"
 width="32.000000pt" height="32.000000pt" viewBox="0 0 32.000000 32.000000"
 preserveAspectRatio="xMidYMid meet">
<metadata>
Created by potrace 1.16, written by Peter Selinger 2001-2019
</metadata>
<g transform="translate(0.000000,32.000000) scale(0.100000,-0.100000)"
fill="#000000" stroke="none">
<path fill="#000000" stroke="none" d="M0 160 l0 -160 160 0 160 0 0 160 0
160 -160 0 -160 0 0 -160z"/>
<path fill="#ffffff" stroke="none" d="M227 293 c-73 -4 -79 -6 -112 -39 -25
-25 -35 -44 -35 -66 0 -31 0 -31 -21 -12 l-21 19 21 16 c11 9 23 28 26 42 4
14 14 28 23 30 10 2 -4 4 -30 5 l-48 1 0 -129 c0 -93 3 -130 13 -133 7 -3 5
-6 -5 -6 -16 -1 -18 12 -18 139 l0 140 143 -2 c85 -1 111 -3 64 -5z"/>
<path fill="#ffffff" stroke="none" d="M245 248 c29 -34 28 -68 -3 -99 -14
-15 -32 -24 -39 -22 -7 3 -13 0 -13 -6 0 -6 -5 -11 -11 -11 -5 0 -7 4 -4 10
11 18 -14 11 -55 -15 -48 -30 -59 -32 -35 -5 15 17 16 22 4 37 -12 16 -12 17
2 6 12 -10 18 -9 32 7 9 11 12 20 6 20 -6 0 -9 6 -6 14 3 8 1 17 -6 20 -7 3
-3 7 10 11 11 4 23 15 26 25 3 11 16 20 33 23 16 2 31 5 34 6 3 0 14 -9 25
-21z"/>
<path fill="#ffffff" stroke="none" d="M70 140 c0 -5 -5 -10 -11 -10 -5 0 -7
5 -4 10 3 6 8 10 11 10 2 0 4 -4 4 -10z"/>
<path fill="#ffffff" stroke="none" d="M285 94 c-10 -7 -15 -20 -12 -28 5 -13
2 -13 -18 -4 -32 14 -31 19 3 39 31 18 54 12 27 -7z"/>
<path fill="#ffffff" stroke="none" d="M145 90 c3 -5 22 -10 41 -10 22 0 33
-4 29 -10 -4 -6 -15 -8 -25 -5 -12 4 -20 0 -23 -12 -4 -17 -5 -16 -12 2 -5 11
-16 25 -24 32 -10 8 -11 12 -4 13 6 0 15 -4 18 -10z"/>
</g>
</svg>
