<?xml version="1.0" standalone="no"?>
<!DOCTYPE svg PUBLIC "-//W3C//DTD SVG 20010904//EN"
 "http://www.w3.org/TR/2001/REC-SVG-20010904/DTD/svg10.dtd">
<svg version="1.0" xmlns="http://www.w3.org/2000/svg"
 width="32.000000pt" height="32.000000pt" viewBox="0 0 32.000000 32.000000"
 preserveAspectRatio="xMidYMid meet">
<metadata>
Created by potrace 1.16, written by Peter Selinger 2001-2019
</metadata>
<g transform="translate(0.000000,32.000000) scale(0.100000,-0.100000)"
fill="#000000" stroke="none">
<path fill="#000000" stroke="none" d="M0 160 l0 -160 160 0 160 0 0 160 0
160 -160 0 -160 0 0 -160z"/>
<path fill="#ffffff" stroke="none" d="M168 293 l-138 -4 0 -128 c0 -94 3
-131 13 -134 7 -3 5 -6 -5 -6 -16 -1 -18 12 -18 139 l0 140 143 -2 142 -2
-137 -3z"/>
<path fill="#ffffff" stroke="none" d="M184 205 c3 -8 10 -15 16 -15 6 0 8 6
5 13 -4 6 1 3 9 -7 9 -11 16 -14 16 -8 0 7 4 12 9 12 5 0 7 -9 4 -20 -4 -16
-9 -18 -24 -9 -13 7 -25 7 -37 0 -14 -8 -14 -11 -2 -12 8 -1 18 -1 22 -1 3 1
9 -6 12 -14 4 -12 2 -14 -9 -10 -8 3 -22 9 -30 12 -21 9 -19 -13 3 -26 16 -11
16 -11 0 -6 -12 3 -18 0 -18 -9 0 -18 -16 -20 -26 -3 -4 7 -3 8 4 4 7 -4 12
-1 12 8 0 22 -17 28 -33 11 -9 -8 -23 -15 -32 -15 -13 0 -14 2 -3 14 7 8 15
14 18 13 13 -3 50 25 44 34 -5 9 -22 6 -61 -8 -7 -3 -13 0 -13 6 0 6 3 10 8
10 20 -3 33 2 27 11 -4 7 2 9 19 4 20 -5 26 -2 26 10 0 20 26 21 34 1z"/>
<path fill="#ffffff" stroke="none" d="M260 109 c0 -12 -29 -18 -35 -8 -4 5
-11 7 -16 4 -5 -4 -9 -2 -9 4 0 6 13 9 30 8 16 -1 30 -5 30 -8z"/>
</g>
</svg>
