<?xml version="1.0" standalone="no"?>
<!DOCTYPE svg PUBLIC "-//W3C//DTD SVG 20010904//EN"
 "http://www.w3.org/TR/2001/REC-SVG-20010904/DTD/svg10.dtd">
<svg version="1.0" xmlns="http://www.w3.org/2000/svg"
 width="32.000000pt" height="32.000000pt" viewBox="0 0 32.000000 32.000000"
 preserveAspectRatio="xMidYMid meet">
<metadata>
Created by potrace 1.16, written by Peter Selinger 2001-2019
</metadata>
<g transform="translate(0.000000,32.000000) scale(0.100000,-0.100000)"
fill="#000000" stroke="none">
<path fill="#000000" stroke="none" d="M0 160 l0 -160 160 0 160 0 0 160 0
160 -160 0 -160 0 0 -160z"/>
<path fill="#ffffff" stroke="none" d="M275 293 c-32 -5 -55 -19 -55 -35 0 -5
9 -4 19 2 27 14 29 13 29 -15 0 -14 6 -33 14 -43 17 -20 17 -48 0 -45 -7 2
-12 -4 -12 -13 0 -8 -4 -12 -10 -9 -5 3 -10 -2 -10 -11 0 -9 -12 -33 -27 -53
-16 -20 -27 -39 -26 -42 1 -3 -5 -6 -13 -6 -18 0 -18 11 1 27 16 13 59 120 51
127 -3 3 -16 -18 -31 -47 -21 -41 -29 -49 -40 -40 -9 8 -15 8 -20 0 -3 -6 -10
-8 -15 -5 -5 3 -21 -2 -35 -11 -33 -21 -42 -12 -21 21 9 14 14 30 11 35 -3 5
-1 12 5 15 8 5 8 11 0 20 -8 10 -1 18 31 37 52 29 65 54 23 44 -16 -4 -48 -17
-71 -28 l-43 -22 0 -82 c0 -56 4 -84 13 -87 7 -3 5 -6 -5 -6 -16 -1 -18 12
-18 139 l0 140 143 -1 c78 -1 129 -4 112 -6z"/>
<path fill="#000000" stroke="none" d="M30 254 c0 -38 1 -38 51 -1 15 10 42
23 60 27 28 6 20 8 -38 9 l-73 1 0 -36z"/>
<path fill="#000000" stroke="none" d="M247 211 c-4 -17 -3 -21 5 -13 5 5 8
16 6 23 -3 8 -7 3 -11 -10z"/>
</g>
</svg>
