<?xml version="1.0" standalone="no"?>
<!DOCTYPE svg PUBLIC "-//W3C//DTD SVG 20010904//EN"
 "http://www.w3.org/TR/2001/REC-SVG-20010904/DTD/svg10.dtd">
<svg version="1.0" xmlns="http://www.w3.org/2000/svg"
 width="32.000000pt" height="32.000000pt" viewBox="0 0 32.000000 32.000000"
 preserveAspectRatio="xMidYMid meet">
<metadata>
Created by potrace 1.16, written by Peter Selinger 2001-2019
</metadata>
<g transform="translate(0.000000,32.000000) scale(0.100000,-0.100000)"
fill="#000000" stroke="none">
<path fill="#000000" stroke="none" d="M0 160 l0 -160 160 0 160 0 0 160 0
160 -160 0 -160 0 0 -160z"/>
<path fill="#ffffff" stroke="none" d="M94 215 c-3 -7 -1 -16 5 -20 6 -3 9 0
5 8 -3 8 -1 18 5 22 6 3 11 5 11 3 0 -2 4 -18 9 -36 l10 -32 -31 22 c-27 18
-31 19 -25 4 9 -23 -10 -11 -25 17 -10 19 -9 20 4 9 13 -10 17 -10 21 3 4 9
-2 19 -13 25 -11 6 -20 16 -20 22 0 6 11 1 24 -11 14 -13 22 -29 20 -36z"/>
<path fill="#ffffff" stroke="none" d="M166 110 l28 -35 -40 38 c-22 20 -44
34 -49 30 -4 -5 -5 -2 -1 5 10 16 27 6 62 -38z"/>
<path fill="#ffffff" stroke="none" d="M231 73 c13 -16 12 -17 -3 -4 -17 13
-22 21 -14 21 2 0 10 -8 17 -17z"/>
<path fill="#ffffff" stroke="none" d="M282 32 c-19 -6 -44 6 -37 18 4 7 14 6
28 -2 14 -7 17 -13 9 -16z"/>
</g>
</svg>
