<?xml version="1.0" standalone="no"?>
<!DOCTYPE svg PUBLIC "-//W3C//DTD SVG 20010904//EN"
 "http://www.w3.org/TR/2001/REC-SVG-20010904/DTD/svg10.dtd">
<svg version="1.0" xmlns="http://www.w3.org/2000/svg"
 width="32.000000pt" height="32.000000pt" viewBox="0 0 32.000000 32.000000"
 preserveAspectRatio="xMidYMid meet">
<metadata>
Created by potrace 1.16, written by Peter Selinger 2001-2019
</metadata>
<g transform="translate(0.000000,32.000000) scale(0.100000,-0.100000)"
fill="#000000" stroke="none">
<path fill="#000000" stroke="none" d="M22 158 l2 -143 3 137 4 137 137 4 137
3 -142 2 -143 2 2 -142z"/>
<path fill="#000000" stroke="none" d="M102 248 c-2 -10 -8 -15 -13 -12 -5 3
-9 -2 -9 -10 0 -25 22 -66 36 -66 7 0 16 -5 20 -12 5 -7 3 -8 -6 -3 -8 5 -11
4 -7 -3 9 -14 47 -3 47 13 0 7 -6 16 -12 19 -7 3 -1 4 15 1 15 -3 27 -1 27 5
0 5 -5 10 -11 10 -8 0 -8 5 1 15 7 8 15 13 19 11 4 -3 6 7 5 22 -2 37 -3 39
-13 23 -7 -11 -13 -12 -23 -4 -20 17 -70 11 -76 -9z"/>
<path fill="#ffffff" stroke="none" d="M128 201 c11 -7 11 -9 -1 -14 -9 -3
-18 1 -21 9 -6 16 2 18 22 5z"/>
<path fill="#000000" stroke="none" d="M52 130 c2 -8 7 -18 12 -22 15 -10 16
-42 3 -50 -7 -5 1 -8 18 -8 23 0 27 3 15 10 -13 9 -13 11 0 20 12 8 12 10 1
10 -11 0 -11 3 -1 15 10 12 9 15 -7 15 -10 0 -25 6 -32 13 -10 10 -12 9 -9 -3z"/>
<path fill="#000000" stroke="none" d="M255 130 c-3 -5 -15 -10 -27 -10 -17 0
-18 -2 -8 -15 10 -12 10 -15 -1 -15 -11 0 -11 -2 1 -10 13 -9 13 -11 0 -20
-12 -7 -8 -10 15 -10 17 0 25 3 18 8 -13 8 -12 40 3 50 9 7 17 32 10 32 -3 0
-8 -4 -11 -10z"/>
</g>
</svg>
