<?xml version="1.0" standalone="no"?>
<!DOCTYPE svg PUBLIC "-//W3C//DTD SVG 20010904//EN"
 "http://www.w3.org/TR/2001/REC-SVG-20010904/DTD/svg10.dtd">
<svg version="1.0" xmlns="http://www.w3.org/2000/svg"
 width="32.000000pt" height="32.000000pt" viewBox="0 0 32.000000 32.000000"
 preserveAspectRatio="xMidYMid meet">
<metadata>
Created by potrace 1.16, written by Peter Selinger 2001-2019
</metadata>
<g transform="translate(0.000000,32.000000) scale(0.100000,-0.100000)"
fill="#000000" stroke="none">
<path fill="#000000" stroke="none" d="M0 160 l0 -160 160 0 160 0 0 160 0
160 -160 0 -160 0 0 -160z"/>
<path fill="#ffffff" stroke="none" d="M163 293 l-132 -4 -4 -132 -3 -132 -2
138 -2 137 138 -2 137 -2 -132 -3z"/>
<path fill="#ffffff" stroke="none" d="M93 120 c16 0 17 -3 7 -15 -10 -12 -10
-15 1 -15 11 0 11 -2 -1 -10 -13 -9 -13 -11 0 -20 12 -7 8 -10 -15 -10 -17 0
-25 3 -18 8 13 8 12 40 -3 50 -5 4 -10 14 -12 22 -3 12 -1 13 9 3 7 -7 22 -13
32 -13z"/>
<path fill="#ffffff" stroke="none" d="M268 128 c-2 -7 -7 -16 -12 -20 -15
-10 -16 -42 -3 -50 7 -5 -1 -8 -18 -8 -23 0 -27 3 -15 10 13 9 13 11 0 20 -12
8 -12 10 -1 10 11 0 11 3 1 15 -10 13 -9 15 8 15 12 0 24 5 27 10 9 14 16 13
13 -2z"/>
</g>
</svg>
