<?xml version="1.0" standalone="no"?>
<!DOCTYPE svg PUBLIC "-//W3C//DTD SVG 20010904//EN"
 "http://www.w3.org/TR/2001/REC-SVG-20010904/DTD/svg10.dtd">
<svg version="1.0" xmlns="http://www.w3.org/2000/svg"
 width="32.000000pt" height="32.000000pt" viewBox="0 0 32.000000 32.000000"
 preserveAspectRatio="xMidYMid meet">
<metadata>
Created by potrace 1.16, written by Peter Selinger 2001-2019
</metadata>
<g transform="translate(0.000000,32.000000) scale(0.100000,-0.100000)"
fill="#000000" stroke="none">
<path fill="#000000" stroke="none" d="M60 285 c0 -20 -5 -25 -25 -25 l-25 0
2 -102 2 -103 3 98 c4 96 4 97 28 97 20 0 25 5 25 25 0 24 2 24 93 28 l92 3
-97 2 -98 2 0 -25z"/>
<path fill="#000000" stroke="none" d="M119 267 c15 -15 14 -47 -2 -47 -7 0
-18 5 -24 11 -8 8 -14 6 -22 -9 -11 -20 2 -42 16 -28 4 3 1 6 -5 6 -6 0 -9 7
-5 16 4 11 9 12 16 5 21 -21 45 -12 49 18 3 23 0 31 -15 35 -15 4 -17 2 -8 -7z"/>
<path fill="#000000" stroke="none" d="M189 273 c-22 -6 -13 -63 10 -63 9 0
22 5 28 11 7 7 12 6 16 -5 4 -9 1 -16 -5 -16 -6 0 -9 -3 -5 -6 14 -14 27 8 16
28 -8 15 -14 17 -22 9 -6 -6 -17 -11 -24 -11 -16 0 -17 32 -1 48 7 7 10 11 8
11 -3 -1 -12 -3 -21 -6z"/>
<path fill="#000000" stroke="none" d="M48 143 c6 -2 18 -2 25 0 6 3 1 5 -13
5 -14 0 -19 -2 -12 -5z"/>
<path fill="#000000" stroke="none" d="M248 143 c6 -2 18 -2 25 0 6 3 1 5 -13
5 -14 0 -19 -2 -12 -5z"/>
</g>
</svg>
