<?xml version="1.0" standalone="no"?>
<!DOCTYPE svg PUBLIC "-//W3C//DTD SVG 20010904//EN"
 "http://www.w3.org/TR/2001/REC-SVG-20010904/DTD/svg10.dtd">
<svg version="1.0" xmlns="http://www.w3.org/2000/svg"
 width="32.000000pt" height="32.000000pt" viewBox="0 0 32.000000 32.000000"
 preserveAspectRatio="xMidYMid meet">
<metadata>
Created by potrace 1.16, written by Peter Selinger 2001-2019
</metadata>
<g transform="translate(0.000000,32.000000) scale(0.100000,-0.100000)"
fill="#000000" stroke="none">
<path fill="#000000" stroke="none" d="M20 160 c0 -127 2 -140 18 -139 10 0
12 3 5 6 -10 3 -13 40 -13 134 l0 128 138 4 137 3 -142 2 -143 2 0 -140z"/>
<path fill="#000000" stroke="none" d="M78 232 c-4 -12 -2 -24 2 -27 13 -8 18
8 10 29 -6 19 -7 19 -12 -2z"/>
<path fill="#000000" stroke="none" d="M228 232 c-4 -12 -2 -24 2 -27 13 -8
18 8 10 29 -6 19 -7 19 -12 -2z"/>
<path fill="#000000" stroke="none" d="M49 201 c8 -5 10 -14 5 -22 -7 -12 -5
-12 9 0 19 15 14 31 -11 31 -14 0 -14 -2 -3 -9z"/>
<path fill="#000000" stroke="none" d="M96 201 c-3 -5 2 -15 11 -22 14 -12 16
-12 9 0 -5 8 -3 17 5 22 11 7 11 9 -3 9 -9 0 -19 -4 -22 -9z"/>
<path fill="#000000" stroke="none" d="M199 201 c8 -5 10 -14 5 -22 -7 -12 -5
-12 9 0 19 15 14 31 -11 31 -14 0 -14 -2 -3 -9z"/>
<path fill="#000000" stroke="none" d="M246 201 c-3 -5 2 -15 11 -22 14 -12
16 -12 9 0 -5 8 -3 17 5 22 11 7 11 9 -3 9 -9 0 -19 -4 -22 -9z"/>
<path fill="#000000" stroke="none" d="M113 134 c-8 -21 28 -88 39 -71 6 9 10
9 16 0 5 -8 14 -2 26 22 20 37 16 65 -10 65 -14 0 -15 -2 -3 -17 13 -16 12
-17 -3 -4 -15 11 -21 11 -35 0 -16 -13 -17 -12 -4 4 12 15 11 17 -3 17 -9 0
-19 -7 -23 -16z"/>
</g>
</svg>
