<?xml version="1.0" standalone="no"?>
<!DOCTYPE svg PUBLIC "-//W3C//DTD SVG 20010904//EN"
 "http://www.w3.org/TR/2001/REC-SVG-20010904/DTD/svg10.dtd">
<svg version="1.0" xmlns="http://www.w3.org/2000/svg"
 width="32.000000pt" height="32.000000pt" viewBox="0 0 32.000000 32.000000"
 preserveAspectRatio="xMidYMid meet">
<metadata>
Created by potrace 1.16, written by Peter Selinger 2001-2019
</metadata>
<g transform="translate(0.000000,32.000000) scale(0.100000,-0.100000)"
fill="#000000" stroke="none">
<path fill="#000000" stroke="none" d="M0 160 l0 -160 160 0 160 0 0 160 0
160 -160 0 -160 0 0 -160z"/>
<path fill="#ffffff" stroke="none" d="M300 160 l0 -140 -137 0 -138 0 3 135
3 134 132 4 c73 1 133 4 135 5 1 1 2 -61 2 -138z"/>
<path fill="#000000" stroke="none" d="M106 181 c-3 -5 1 -14 8 -20 10 -8 16
-9 21 -1 3 6 10 8 15 5 5 -3 12 0 15 6 5 6 0 9 -11 8 -11 -2 -24 0 -31 4 -6 4
-14 3 -17 -2z"/>
</g>
</svg>
