<?xml version="1.0" standalone="no"?>
<!DOCTYPE svg PUBLIC "-//W3C//DTD SVG 20010904//EN"
 "http://www.w3.org/TR/2001/REC-SVG-20010904/DTD/svg10.dtd">
<svg version="1.0" xmlns="http://www.w3.org/2000/svg"
 width="32.000000pt" height="32.000000pt" viewBox="0 0 32.000000 32.000000"
 preserveAspectRatio="xMidYMid meet">
<metadata>
Created by potrace 1.16, written by Peter Selinger 2001-2019
</metadata>
<g transform="translate(0.000000,32.000000) scale(0.100000,-0.100000)"
fill="#000000" stroke="none">
<path fill="#000000" stroke="none" d="M30 155 l0 -135 135 0 135 0 0 135 0
135 -135 0 -135 0 0 -135z"/>
<path fill="#ffffff" stroke="none" d="M168 163 c-3 -30 -22 -40 -43 -23 -8 6
-24 9 -37 6 -13 -3 -17 -3 -10 0 6 3 9 11 6 16 -4 7 -2 8 4 4 7 -4 12 -1 12 7
0 10 11 15 35 15 31 0 34 -3 33 -25z"/>
</g>
</svg>
