<?xml version="1.0" standalone="no"?>
<!DOCTYPE svg PUBLIC "-//W3C//DTD SVG 20010904//EN"
 "http://www.w3.org/TR/2001/REC-SVG-20010904/DTD/svg10.dtd">
<svg version="1.0" xmlns="http://www.w3.org/2000/svg"
 width="32.000000pt" height="32.000000pt" viewBox="0 0 32.000000 32.000000"
 preserveAspectRatio="xMidYMid meet">
<metadata>
Created by potrace 1.16, written by Peter Selinger 2001-2019
</metadata>
<g transform="translate(0.000000,32.000000) scale(0.100000,-0.100000)"
fill="#000000" stroke="none">
<path fill="#000000" stroke="none" d="M0 160 l0 -160 160 0 160 0 0 160 0
160 -160 0 -160 0 0 -160z"/>
<path fill="#ffffff" stroke="none" d="M175 299 c13 -20 -4 -59 -27 -59 -12 0
-19 -3 -15 -6 11 -11 57 6 57 20 0 12 6 12 30 3 32 -12 48 -44 45 -91 -1 -18
7 -37 22 -52 13 -13 23 -30 23 -39 0 -21 -44 -65 -65 -65 -20 0 -65 44 -65 65
0 8 -6 15 -13 15 -19 0 -57 -29 -57 -44 0 -8 -8 -20 -17 -27 -14 -12 -16 -12
-8 1 5 8 10 23 10 32 1 10 11 28 23 41 15 16 18 27 12 37 -5 8 -10 28 -10 43
0 25 -2 27 -20 17 -14 -8 -19 -18 -15 -33 3 -12 -1 -44 -9 -72 l-13 -50 -8 47
c-4 29 -3 60 5 83 9 28 10 39 1 45 -9 5 -8 10 4 20 8 7 18 10 22 7 10 -11 32
13 26 29 -9 24 5 44 31 44 14 0 28 -5 31 -11z"/>
<path fill="#000000" stroke="none" d="M210 198 c0 -12 -6 -34 -13 -48 -7 -14
-12 -32 -11 -40 0 -8 2 -23 2 -34 2 -15 5 -16 17 -6 11 9 12 17 4 31 -8 17 -5
22 23 34 18 8 26 14 18 15 -10 0 -15 10 -15 32 0 17 -6 33 -12 35 -8 3 -13 -4
-13 -19z"/>
<path fill="#000000" stroke="none" d="M237 113 c5 -12 3 -14 -8 -8 -11 7 -12
6 -2 -6 8 -10 9 -19 3 -25 -7 -7 -1 -10 15 -10 17 0 21 3 15 11 -6 7 -5 16 3
25 10 10 9 11 -2 5 -11 -6 -13 -4 -8 8 4 11 1 17 -8 17 -9 0 -12 -6 -8 -17z"/>
<path fill="#000000" stroke="none" d="M277 97 c-3 -9 1 -21 9 -27 11 -10 14
-10 14 1 0 8 -4 20 -9 27 -7 11 -9 11 -14 -1z"/>
<path fill="#000000" stroke="none" d="M200 45 c0 -2 9 -9 20 -15 16 -9 18 -8
14 5 -5 13 -34 22 -34 10z"/>
<path fill="#000000" stroke="none" d="M256 35 c-4 -13 -2 -14 14 -5 23 13 26
20 6 20 -8 0 -16 -7 -20 -15z"/>
</g>
</svg>
