<?xml version="1.0" standalone="no"?>
<!DOCTYPE svg PUBLIC "-//W3C//DTD SVG 20010904//EN"
 "http://www.w3.org/TR/2001/REC-SVG-20010904/DTD/svg10.dtd">
<svg version="1.0" xmlns="http://www.w3.org/2000/svg"
 width="32.000000pt" height="32.000000pt" viewBox="0 0 32.000000 32.000000"
 preserveAspectRatio="xMidYMid meet">
<metadata>
Created by potrace 1.16, written by Peter Selinger 2001-2019
</metadata>
<g transform="translate(0.000000,32.000000) scale(0.100000,-0.100000)"
fill="#000000" stroke="none">
<path fill="#000000" stroke="none" d="M0 160 l0 -160 160 0 160 0 0 160 0
160 -160 0 -160 0 0 -160z"/>
<path fill="#ffffff" stroke="none" d="M300 160 l0 -140 -140 0 -140 0 0 140
0 140 140 0 140 0 0 -140z"/>
<path fill="#000000" stroke="none" d="M30 160 c0 -119 2 -130 18 -130 10 0
31 14 48 31 l29 31 -25 -7 c-25 -7 -25 -7 -5 12 27 26 75 46 75 32 0 -6 6 -9
13 -6 8 2 12 29 12 85 l0 82 -82 0 -83 0 0 -130z"/>
<path fill="#ffffff" stroke="none" d="M165 245 c43 -42 23 -96 -43 -115 -47
-13 -83 -13 -63 -1 8 5 21 7 29 4 8 -3 2 6 -12 20 -33 33 -33 61 -1 92 13 14
34 25 45 25 12 0 32 -11 45 -25z"/>
<path fill="#000000" stroke="none" d="M210 245 c0 -49 5 -54 27 -27 12 15 13
14 7 -10 -4 -17 -2 -28 5 -28 6 0 8 -6 5 -14 -4 -11 0 -13 15 -9 19 5 21 13
21 69 l0 64 -40 0 -40 0 0 -45z"/>
<path fill="#000000" stroke="none" d="M250 129 c0 -7 8 -18 18 -26 15 -13 15
-14 -10 -8 -16 3 -28 1 -28 -4 0 -25 25 -61 42 -61 15 0 18 8 18 55 0 48 -2
55 -20 55 -11 0 -20 -5 -20 -11z"/>
<path fill="#000000" stroke="none" d="M111 49 l-23 -19 72 0 73 0 -19 21
c-10 11 -20 16 -22 10 -2 -5 -9 -8 -17 -5 -7 3 -16 0 -21 -7 -6 -10 -9 -9 -13
3 -5 15 -9 14 -30 -3z"/>
</g>
</svg>
