<?xml version="1.0" standalone="no"?>
<!DOCTYPE svg PUBLIC "-//W3C//DTD SVG 20010904//EN"
 "http://www.w3.org/TR/2001/REC-SVG-20010904/DTD/svg10.dtd">
<svg version="1.0" xmlns="http://www.w3.org/2000/svg"
 width="32.000000pt" height="32.000000pt" viewBox="0 0 32.000000 32.000000"
 preserveAspectRatio="xMidYMid meet">
<metadata>
Created by potrace 1.16, written by Peter Selinger 2001-2019
</metadata>
<g transform="translate(0.000000,32.000000) scale(0.100000,-0.100000)"
fill="#000000" stroke="none">
<path fill="#000000" stroke="none" d="M60 285 c0 -20 -5 -25 -25 -25 l-25 0
2 -102 2 -103 3 98 c4 96 4 97 28 97 20 0 25 5 25 25 0 21 5 25 28 24 39 -1
117 -51 117 -75 0 -16 -6 -18 -38 -16 -21 2 -44 -1 -51 -7 -10 -9 -15 -8 -20
5 -3 9 -3 21 0 27 5 9 4 9 -5 1 -10 -9 -10 -17 -2 -32 6 -10 8 -22 5 -25 -9
-9 16 -48 26 -42 6 3 8 0 5 -7 -4 -9 4 -13 25 -13 21 0 29 4 25 13 -3 7 -1 10
5 7 10 -6 33 31 26 43 -3 5 4 16 15 25 25 22 24 29 -6 57 -33 31 -32 38 8 43
17 2 -14 5 -70 5 l-103 2 0 -25z"/>
<path fill="#000000" stroke="none" d="M273 253 c9 -2 23 -2 30 0 6 3 -1 5
-18 5 -16 0 -22 -2 -12 -5z"/>
<path fill="#000000" stroke="none" d="M58 40 c2 -17 7 -30 11 -30 4 0 6 13 3
30 -2 16 -7 30 -11 30 -4 0 -6 -13 -3 -30z"/>
<path fill="#000000" stroke="none" d="M136 56 c8 -21 40 -21 48 0 5 14 4 15
-9 4 -12 -10 -18 -10 -30 0 -13 11 -14 10 -9 -4z"/>
</g>
</svg>
