<?xml version="1.0" standalone="no"?>
<!DOCTYPE svg PUBLIC "-//W3C//DTD SVG 20010904//EN"
 "http://www.w3.org/TR/2001/REC-SVG-20010904/DTD/svg10.dtd">
<svg version="1.0" xmlns="http://www.w3.org/2000/svg"
 width="32.000000pt" height="32.000000pt" viewBox="0 0 32.000000 32.000000"
 preserveAspectRatio="xMidYMid meet">
<metadata>
Created by potrace 1.16, written by Peter Selinger 2001-2019
</metadata>
<g transform="translate(0.000000,32.000000) scale(0.100000,-0.100000)"
fill="#000000" stroke="none">
<path fill="#000000" stroke="none" d="M60 285 c0 -20 -5 -25 -25 -25 l-25 0
0 -100 0 -100 25 0 c20 0 25 -5 25 -25 l0 -25 100 0 100 0 0 25 c0 20 5 25 25
25 l25 0 0 100 0 100 -25 0 c-20 0 -25 5 -25 25 l0 25 -100 0 -100 0 0 -25z"/>
<path fill="#ffffff" stroke="none" d="M163 274 c72 -46 74 -70 6 -65 -39 2
-47 -1 -58 -23 -29 -53 53 -97 92 -49 9 11 17 28 17 36 0 8 7 20 15 27 21 17
19 47 -4 59 -31 17 -34 41 -6 41 20 0 25 -5 25 -25 0 -20 5 -25 25 -25 25 0
25 -1 25 -90 0 -89 0 -90 -25 -90 -20 0 -25 -5 -25 -25 0 -25 -1 -25 -90 -25
-89 0 -90 0 -90 25 0 20 -5 25 -25 25 -25 0 -25 1 -25 90 0 89 0 90 25 90 20
0 25 5 25 25 0 34 37 33 93 -1z"/>
<path fill="#000000" stroke="none" d="M95 230 c-3 -5 -2 -18 4 -27 7 -14 9
-12 8 10 -2 30 -3 31 -12 17z"/>
<path fill="#000000" stroke="none" d="M100 131 c0 -5 5 -13 10 -16 6 -3 10
-2 10 4 0 5 -4 13 -10 16 -5 3 -10 2 -10 -4z"/>
<path fill="#000000" stroke="none" d="M207 133 c-4 -3 -7 -11 -7 -17 0 -6 5
-5 12 2 6 6 9 14 7 17 -3 3 -9 2 -12 -2z"/>
<path fill="#000000" stroke="none" d="M122 81 c6 -53 70 -53 76 0 l3 24 -13
-25 c-8 -14 -20 -25 -28 -25 -8 0 -20 11 -28 25 l-13 25 3 -24z"/>
</g>
</svg>
