<?xml version="1.0" standalone="no"?>
<!DOCTYPE svg PUBLIC "-//W3C//DTD SVG 20010904//EN"
 "http://www.w3.org/TR/2001/REC-SVG-20010904/DTD/svg10.dtd">
<svg version="1.0" xmlns="http://www.w3.org/2000/svg"
 width="32.000000pt" height="32.000000pt" viewBox="0 0 32.000000 32.000000"
 preserveAspectRatio="xMidYMid meet">
<metadata>
Created by potrace 1.16, written by Peter Selinger 2001-2019
</metadata>
<g transform="translate(0.000000,32.000000) scale(0.100000,-0.100000)"
fill="#000000" stroke="none">
<path fill="#000000" stroke="none" d="M0 160 l0 -160 160 0 160 0 0 160 0
160 -160 0 -160 0 0 -160z"/>
<path fill="#ffffff" stroke="none" d="M233 303 c-40 -5 -41 -12 -8 -43 30
-28 31 -35 6 -57 -11 -9 -18 -20 -15 -25 7 -12 -16 -49 -26 -43 -6 3 -8 0 -5
-7 4 -9 -4 -13 -25 -13 -21 0 -29 4 -25 13 3 7 1 10 -5 7 -10 -6 -35 33 -26
42 3 3 1 15 -5 25 -8 15 -8 23 2 32 9 8 10 8 5 -1 -3 -6 -3 -18 0 -27 5 -13
10 -14 20 -5 7 6 30 9 51 7 32 -2 38 0 38 16 0 24 -78 74 -117 75 -23 1 -28
-3 -28 -24 0 -20 -5 -25 -25 -25 -24 0 -24 -1 -28 -97 l-3 -98 -2 103 -2 102
25 0 c20 0 25 5 25 25 l0 25 103 -2 c56 0 87 -3 70 -5z"/>
<path fill="#ffffff" stroke="none" d="M303 253 c-7 -2 -21 -2 -30 0 -10 3 -4
5 12 5 17 0 24 -2 18 -5z"/>
<path fill="#ffffff" stroke="none" d="M72 40 c3 -17 1 -30 -3 -30 -4 0 -9 13
-11 30 -3 17 -1 30 3 30 4 0 9 -14 11 -30z"/>
<path fill="#ffffff" stroke="none" d="M175 60 c13 11 14 10 9 -4 -8 -21 -40
-21 -48 0 -5 14 -4 15 9 4 12 -10 18 -10 30 0z"/>
</g>
</svg>
