<?xml version="1.0" standalone="no"?>
<!DOCTYPE svg PUBLIC "-//W3C//DTD SVG 20010904//EN"
 "http://www.w3.org/TR/2001/REC-SVG-20010904/DTD/svg10.dtd">
<svg version="1.0" xmlns="http://www.w3.org/2000/svg"
 width="32.000000pt" height="32.000000pt" viewBox="0 0 32.000000 32.000000"
 preserveAspectRatio="xMidYMid meet">
<metadata>
Created by potrace 1.16, written by Peter Selinger 2001-2019
</metadata>
<g transform="translate(0.000000,32.000000) scale(0.100000,-0.100000)"
fill="#000000" stroke="none">
<path fill="#000000" stroke="none" d="M22 158 l2 -143 3 137 4 137 137 4 137
3 -142 2 -143 2 2 -142z"/>
<path fill="#000000" stroke="none" d="M45 261 c-6 -11 9 -23 19 -14 9 9 7 23
-3 23 -6 0 -12 -4 -16 -9z"/>
<path fill="#000000" stroke="none" d="M200 255 c-14 -17 -37 -20 -42 -4 -2 6
-12 -12 -21 -39 -12 -33 -24 -49 -34 -48 -9 0 -18 -4 -20 -11 -3 -8 4 -11 19
-8 21 4 21 3 6 -9 -44 -33 -5 -48 51 -20 29 15 34 15 58 -1 21 -14 23 -19 12
-27 -11 -8 -10 -9 4 -4 21 7 22 -7 1 -25 -13 -11 -17 -10 -25 4 -13 22 -32 22
-53 -2 -16 -18 -15 -18 43 -17 33 0 57 4 55 8 -3 5 -1 8 5 8 10 0 9 25 -2 36
-4 4 -1 14 6 23 10 14 10 14 -4 3 -13 -10 -18 -10 -26 0 -13 17 -24 60 -13 53
14 -8 27 19 26 55 -1 39 -24 52 -46 25z"/>
<path fill="#000000" stroke="none" d="M90 241 c0 -11 5 -23 12 -27 7 -4 8 -3
4 4 -4 7 -3 12 3 12 6 0 8 7 5 15 -9 21 -24 19 -24 -4z"/>
<path fill="#000000" stroke="none" d="M45 189 c-4 -11 -4 -23 -1 -26 3 -4 6
1 6 11 0 9 4 15 9 12 5 -3 11 1 15 9 3 9 0 15 -9 15 -7 0 -17 -9 -20 -21z"/>
<path fill="#000000" stroke="none" d="M50 66 c0 -9 7 -16 16 -16 9 0 14 5 12
12 -6 18 -28 21 -28 4z"/>
</g>
</svg>
