<?xml version="1.0" standalone="no"?>
<!DOCTYPE svg PUBLIC "-//W3C//DTD SVG 20010904//EN"
 "http://www.w3.org/TR/2001/REC-SVG-20010904/DTD/svg10.dtd">
<svg version="1.0" xmlns="http://www.w3.org/2000/svg"
 width="32.000000pt" height="32.000000pt" viewBox="0 0 32.000000 32.000000"
 preserveAspectRatio="xMidYMid meet">
<metadata>
Created by potrace 1.16, written by Peter Selinger 2001-2019
</metadata>
<g transform="translate(0.000000,32.000000) scale(0.100000,-0.100000)"
fill="#000000" stroke="none">
<path fill="#000000" stroke="none" d="M22 163 l2 -138 3 132 4 132 132 4 132
3 -137 2 -138 2 2 -137z"/>
<path fill="#000000" stroke="none" d="M94 247 c-4 -11 -1 -23 6 -30 10 -9 11
-9 6 0 -3 6 -2 13 4 15 6 2 6 9 0 18 -8 12 -10 12 -16 -3z"/>
<path fill="#000000" stroke="none" d="M208 240 c-7 -11 -23 -20 -35 -20 -24
0 -31 -14 -13 -25 6 -3 10 -14 9 -23 0 -15 -1 -14 -8 2 -6 16 -10 14 -34 -17
-31 -42 -32 -43 -12 -51 17 -6 57 23 49 36 -9 14 20 4 33 -12 7 -8 13 -12 13
-8 0 3 11 -3 24 -15 18 -16 22 -25 14 -35 -8 -9 -8 -16 1 -25 10 -9 11 -8 5 7
-5 13 -4 17 3 13 12 -8 12 18 0 29 -4 4 -1 14 6 23 11 14 10 14 -6 2 -9 -8
-19 -12 -20 -10 -30 42 -35 58 -23 68 7 6 15 9 17 6 3 -2 5 14 6 36 2 43 -10
50 -29 19z"/>
<path fill="#000000" stroke="none" d="M47 197 c-3 -8 1 -14 9 -14 7 0 15 6
18 14 3 7 -1 13 -8 13 -8 0 -16 -6 -19 -13z"/>
<path fill="#000000" stroke="none" d="M50 70 c0 -5 7 -10 16 -10 8 0 12 5 9
10 -3 6 -10 10 -16 10 -5 0 -9 -4 -9 -10z"/>
<path fill="#000000" stroke="none" d="M164 69 c-8 -14 11 -33 25 -25 6 4 11
11 11 16 0 13 -29 20 -36 9z"/>
</g>
</svg>
