<?xml version="1.0" standalone="no"?>
<!DOCTYPE svg PUBLIC "-//W3C//DTD SVG 20010904//EN"
 "http://www.w3.org/TR/2001/REC-SVG-20010904/DTD/svg10.dtd">
<svg version="1.0" xmlns="http://www.w3.org/2000/svg"
 width="32.000000pt" height="32.000000pt" viewBox="0 0 32.000000 32.000000"
 preserveAspectRatio="xMidYMid meet">
<metadata>
Created by potrace 1.16, written by Peter Selinger 2001-2019
</metadata>
<g transform="translate(0.000000,32.000000) scale(0.100000,-0.100000)"
fill="#000000" stroke="none">
<path fill="#000000" stroke="none" d="M20 160 l0 -140 140 0 140 0 0 140 0
140 -140 0 -140 0 0 -140z"/>
<path fill="#ffffff" stroke="none" d="M290 160 l0 -130 -130 0 -130 0 0 130
0 130 130 0 130 0 0 -130z"/>
<path fill="#000000" stroke="none" d="M59 270 c-1 -8 0 -27 1 -42 1 -15 -4
-36 -10 -48 -14 -26 7 -55 55 -76 27 -11 28 -13 11 -20 -14 -5 -25 0 -43 22
-13 16 -23 23 -23 15 0 -8 8 -23 17 -34 10 -11 13 -18 8 -14 -6 3 -17 2 -25
-4 -16 -10 -15 -10 48 -11 41 -1 66 8 57 22 -5 9 76 32 85 24 3 -3 -8 -17 -25
-30 -17 -13 -24 -24 -16 -24 8 0 23 8 34 18 11 9 18 12 14 7 -3 -6 -2 -17 4
-25 7 -13 9 -13 10 0 1 8 0 27 -1 42 -1 15 4 36 10 48 14 26 -7 55 -55 76 -27
11 -28 13 -11 20 14 5 25 0 43 -22 13 -16 23 -23 23 -15 0 8 -8 23 -17 34 -10
11 -13 18 -8 14 6 -3 17 -2 25 4 16 10 15 10 -48 11 -41 1 -66 -8 -57 -22 5
-9 -76 -32 -85 -24 -3 3 9 17 25 30 17 13 24 24 16 24 -8 0 -23 -8 -34 -17
-11 -10 -18 -13 -14 -8 3 6 2 17 -4 25 -7 13 -9 13 -10 0z"/>
</g>
</svg>
