<?xml version="1.0" standalone="no"?>
<!DOCTYPE svg PUBLIC "-//W3C//DTD SVG 20010904//EN"
 "http://www.w3.org/TR/2001/REC-SVG-20010904/DTD/svg10.dtd">
<svg version="1.0" xmlns="http://www.w3.org/2000/svg"
 width="32.000000pt" height="32.000000pt" viewBox="0 0 32.000000 32.000000"
 preserveAspectRatio="xMidYMid meet">
<metadata>
Created by potrace 1.16, written by Peter Selinger 2001-2019
</metadata>
<g transform="translate(0.000000,32.000000) scale(0.100000,-0.100000)"
fill="#000000" stroke="none">
<path fill="#000000" stroke="none" d="M0 160 l0 -160 160 0 160 0 0 160 0
160 -160 0 -160 0 0 -160z"/>
<path fill="#ffffff" stroke="none" d="M300 160 l0 -140 -140 0 -140 0 0 140
0 140 140 0 140 0 0 -140z"/>
<path fill="#000000" stroke="none" d="M30 160 l0 -130 130 0 130 0 0 130 0
130 -130 0 -130 0 0 -130z"/>
<path fill="#ffffff" stroke="none" d="M73 245 c-4 -5 3 -2 14 8 11 9 26 17
34 17 8 0 1 -11 -16 -24 -16 -13 -28 -27 -25 -30 9 -8 90 15 85 24 -9 14 16
23 57 22 63 -1 64 -1 48 -11 -8 -6 -19 -7 -25 -4 -5 4 -2 -3 8 -14 9 -11 17
-26 17 -34 0 -8 -10 -1 -23 15 -18 22 -29 27 -43 22 -17 -7 -16 -9 11 -20 48
-21 69 -50 55 -76 -6 -12 -11 -33 -10 -48 1 -15 2 -34 1 -42 -1 -13 -3 -13
-10 0 -6 8 -7 19 -4 25 4 5 -3 2 -14 -7 -11 -10 -26 -18 -34 -18 -8 0 -1 11
16 24 17 13 28 27 25 30 -9 8 -90 -15 -85 -24 9 -14 -16 -23 -57 -22 -63 1
-64 1 -48 11 8 6 19 7 25 4 5 -4 2 3 -8 14 -9 11 -17 26 -17 34 0 8 10 1 23
-15 18 -22 29 -27 43 -22 17 7 16 9 -11 20 -48 21 -69 50 -55 76 6 12 11 33
10 48 -1 15 -2 34 -1 42 1 13 3 13 10 0 6 -8 7 -19 4 -25z"/>
</g>
</svg>
