<?xml version="1.0" standalone="no"?>
<!DOCTYPE svg PUBLIC "-//W3C//DTD SVG 20010904//EN"
 "http://www.w3.org/TR/2001/REC-SVG-20010904/DTD/svg10.dtd">
<svg version="1.0" xmlns="http://www.w3.org/2000/svg"
 width="32.000000pt" height="32.000000pt" viewBox="0 0 32.000000 32.000000"
 preserveAspectRatio="xMidYMid meet">
<metadata>
Created by potrace 1.16, written by Peter Selinger 2001-2019
</metadata>
<g transform="translate(0.000000,32.000000) scale(0.100000,-0.100000)"
fill="#000000" stroke="none">
<path fill="#000000" stroke="none" d="M22 163 l2 -138 3 132 4 132 132 4 132
3 -137 2 -138 2 2 -137z"/>
<path fill="#000000" stroke="none" d="M89 197 c-19 -12 -34 -29 -34 -37 0
-23 64 -60 105 -60 41 0 105 37 105 60 0 23 -64 60 -105 60 -22 0 -51 -9 -71
-23z"/>
<path fill="#ffffff" stroke="none" d="M125 169 c0 -38 26 -60 53 -43 9 6 17
22 17 35 0 19 -5 24 -25 24 -18 0 -25 -5 -25 -20 0 -23 26 -27 32 -5 4 13 3
13 -6 0 -5 -8 -13 -11 -17 -7 -4 4 -2 13 4 19 9 9 15 9 24 0 10 -9 8 -16 -5
-29 -16 -16 -18 -16 -34 0 -14 13 -15 21 -7 35 21 33 74 22 74 -16 0 -20 -29
-52 -48 -52 -23 0 -52 30 -52 55 0 17 7 35 14 35 1 0 1 -14 1 -31z"/>
</g>
</svg>
