<?xml version="1.0" standalone="no"?>
<!DOCTYPE svg PUBLIC "-//W3C//DTD SVG 20010904//EN"
 "http://www.w3.org/TR/2001/REC-SVG-20010904/DTD/svg10.dtd">
<svg version="1.0" xmlns="http://www.w3.org/2000/svg"
 width="32.000000pt" height="32.000000pt" viewBox="0 0 32.000000 32.000000"
 preserveAspectRatio="xMidYMid meet">
<metadata>
Created by potrace 1.16, written by Peter Selinger 2001-2019
</metadata>
<g transform="translate(0.000000,32.000000) scale(0.100000,-0.100000)"
fill="#000000" stroke="none">
<path fill="#000000" stroke="none" d="M233 298 c-13 -18 -15 -68 -3 -68 6 0
10 -6 10 -13 0 -7 11 -13 25 -13 14 0 25 6 25 13 0 7 4 13 10 13 12 0 10 50
-3 68 -5 6 -20 12 -32 12 -12 0 -27 -6 -32 -12z"/>
<path fill="#ffffff" stroke="none" d="M300 251 c0 -5 -16 -9 -35 -9 -19 0
-35 4 -35 9 0 5 16 9 35 9 19 0 35 -4 35 -9z"/>
<path fill="#000000" stroke="none" d="M40 282 c0 -8 37 -42 45 -42 16 0 1 29
-20 38 -14 6 -25 8 -25 4z"/>
<path fill="#000000" stroke="none" d="M35 220 c3 -5 8 -10 11 -10 2 0 4 5 4
10 0 6 -5 10 -11 10 -5 0 -7 -4 -4 -10z"/>
<path fill="#000000" stroke="none" d="M35 180 c3 -5 8 -10 11 -10 2 0 4 5 4
10 0 6 -5 10 -11 10 -5 0 -7 -4 -4 -10z"/>
</g>
</svg>
