<?xml version="1.0" standalone="no"?>
<!DOCTYPE svg PUBLIC "-//W3C//DTD SVG 20010904//EN"
 "http://www.w3.org/TR/2001/REC-SVG-20010904/DTD/svg10.dtd">
<svg version="1.0" xmlns="http://www.w3.org/2000/svg"
 width="32.000000pt" height="32.000000pt" viewBox="0 0 32.000000 32.000000"
 preserveAspectRatio="xMidYMid meet">
<metadata>
Created by potrace 1.16, written by Peter Selinger 2001-2019
</metadata>
<g transform="translate(0.000000,32.000000) scale(0.100000,-0.100000)"
fill="#000000" stroke="none">
<path fill="#000000" stroke="none" d="M0 160 l0 -160 160 0 160 0 0 160 0
160 -160 0 -160 0 0 -160z"/>
<path fill="#ffffff" stroke="none" d="M298 298 c14 -14 16 -68 2 -68 -5 0
-10 -6 -10 -13 0 -7 -11 -13 -25 -13 -14 0 -25 6 -25 13 0 7 -4 13 -10 13 -14
0 -12 54 2 68 15 15 51 15 66 0z"/>
<path fill="#ffffff" stroke="none" d="M110 246 c-6 -9 1 -12 28 -11 33 0 37
-3 35 -23 -4 -30 38 -48 68 -29 17 10 23 9 40 -12 36 -44 19 -111 -29 -111
-46 0 -67 22 -66 69 1 23 -1 41 -5 42 -23 3 -71 3 -71 1 0 -2 7 -17 16 -34 15
-29 15 -33 -6 -74 -30 -60 -72 -61 -93 -1 -4 11 -2 17 6 16 33 -4 41 1 22 14
-17 13 -17 14 6 21 l24 7 -23 9 c-21 9 -22 11 -8 26 20 19 20 25 2 18 -8 -3
-17 -1 -21 5 -3 6 0 11 8 11 8 0 17 7 20 14 4 10 1 13 -7 10 -8 -3 -17 -1 -21
5 -3 6 1 11 9 11 18 0 22 25 6 35 -26 16 -5 22 30 8 28 -11 37 -19 30 -27z"/>
<path fill="#000000" stroke="none" d="M230 250 c0 -5 4 -10 9 -10 6 0 13 5
16 10 3 6 -1 10 -9 10 -9 0 -16 -4 -16 -10z"/>
<path fill="#000000" stroke="none" d="M275 250 c3 -5 10 -10 16 -10 5 0 9 5
9 10 0 6 -7 10 -16 10 -8 0 -12 -4 -9 -10z"/>
<path fill="#000000" stroke="none" d="M119 199 c11 -12 24 -18 30 -14 17 10
13 28 -4 21 -8 -3 -15 -1 -15 4 0 6 -7 10 -15 10 -13 0 -12 -4 4 -21z"/>
</g>
</svg>
