<?xml version="1.0" standalone="no"?>
<!DOCTYPE svg PUBLIC "-//W3C//DTD SVG 20010904//EN"
 "http://www.w3.org/TR/2001/REC-SVG-20010904/DTD/svg10.dtd">
<svg version="1.0" xmlns="http://www.w3.org/2000/svg"
 width="32.000000pt" height="32.000000pt" viewBox="0 0 32.000000 32.000000"
 preserveAspectRatio="xMidYMid meet">
<metadata>
Created by potrace 1.16, written by Peter Selinger 2001-2019
</metadata>
<g transform="translate(0.000000,32.000000) scale(0.100000,-0.100000)"
fill="#000000" stroke="none">
<path fill="#000000" stroke="none" d="M20 160 c0 -127 2 -140 18 -139 10 0
12 3 5 6 -10 3 -13 40 -13 134 l0 128 138 4 137 3 -142 2 -143 2 0 -140z"/>
<path fill="#000000" stroke="none" d="M114 206 c-8 -8 -7 -15 0 -22 8 -8 15
-7 22 0 8 8 7 15 0 22 -8 8 -15 7 -22 0z"/>
<path fill="#000000" stroke="none" d="M205 209 c-6 -8 -4 -10 5 -4 9 5 11 4
6 -4 -6 -9 -11 -9 -21 -1 -11 9 -14 7 -12 -9 0 -11 5 -17 9 -15 5 3 3 -6 -3
-19 -9 -21 -17 -24 -46 -22 -24 3 -36 -1 -40 -12 -8 -22 16 -34 62 -31 39 3
40 4 54 56 10 37 11 56 4 63 -8 8 -13 7 -18 -2z"/>
</g>
</svg>
