<?xml version="1.0" standalone="no"?>
<!DOCTYPE svg PUBLIC "-//W3C//DTD SVG 20010904//EN"
 "http://www.w3.org/TR/2001/REC-SVG-20010904/DTD/svg10.dtd">
<svg version="1.0" xmlns="http://www.w3.org/2000/svg"
 width="32.000000pt" height="32.000000pt" viewBox="0 0 32.000000 32.000000"
 preserveAspectRatio="xMidYMid meet">
<metadata>
Created by potrace 1.16, written by Peter Selinger 2001-2019
</metadata>
<g transform="translate(0.000000,32.000000) scale(0.100000,-0.100000)"
fill="#000000" stroke="none">
<path fill="#000000" stroke="none" d="M0 160 l0 -160 160 0 160 0 0 160 0
160 -160 0 -160 0 0 -160z"/>
<path fill="#ffffff" stroke="none" d="M168 293 l-138 -4 0 -67 1 -67 15 34
c8 19 17 32 20 29 3 -3 18 7 34 23 16 16 37 29 47 29 34 0 97 -22 110 -39 22
-28 14 -35 -12 -11 -19 18 -38 24 -78 26 -59 3 -77 -7 -77 -43 0 -14 -4 -22
-11 -18 -7 5 -9 -9 -7 -42 3 -43 1 -48 -19 -51 -18 -3 -23 -10 -23 -32 0 -16
6 -31 13 -33 7 -3 5 -6 -5 -6 -16 -1 -18 12 -18 139 l0 140 143 -2 142 -2
-137 -3z"/>
<path fill="#ffffff" stroke="none" d="M164 199 c6 8 12 9 20 2 9 -7 17 -7 26
2 8 6 7 3 -3 -9 -13 -16 -14 -23 -5 -32 9 -9 8 -12 -5 -12 -9 0 -16 -5 -15
-12 2 -7 -3 -12 -10 -13 -7 0 -17 -7 -23 -15 -8 -11 -9 -9 -4 9 5 16 4 21 -4
17 -6 -4 -11 -2 -11 3 0 6 -7 11 -15 11 -12 0 -13 3 -3 19 7 11 16 17 20 15 4
-3 8 -1 8 5 0 5 -4 13 -10 16 -5 3 -10 12 -10 18 0 7 9 1 19 -12 12 -16 20
-20 25 -12z"/>
<path fill="#ffffff" stroke="none" d="M296 178 c-1 -7 -5 -18 -9 -25 -4 -6
-2 -14 3 -16 6 -3 5 -4 -2 -3 -18 4 -23 37 -6 47 17 11 17 11 14 -3z"/>
<path fill="#ffffff" stroke="none" d="M279 121 l24 -19 -31 -7 c-17 -3 -44
-16 -59 -28 l-28 -22 30 37 c17 21 35 38 40 38 6 0 3 5 -5 10 -8 5 -10 10 -5
10 6 0 21 -9 34 -19z"/>
</g>
</svg>
