<?xml version="1.0" standalone="no"?>
<!DOCTYPE svg PUBLIC "-//W3C//DTD SVG 20010904//EN"
 "http://www.w3.org/TR/2001/REC-SVG-20010904/DTD/svg10.dtd">
<svg version="1.0" xmlns="http://www.w3.org/2000/svg"
 width="32.000000pt" height="32.000000pt" viewBox="0 0 32.000000 32.000000"
 preserveAspectRatio="xMidYMid meet">
<metadata>
Created by potrace 1.16, written by Peter Selinger 2001-2019
</metadata>
<g transform="translate(0.000000,32.000000) scale(0.100000,-0.100000)"
fill="#000000" stroke="none">
<path fill="#000000" stroke="none" d="M20 160 c0 -127 2 -140 18 -139 10 0
12 3 5 6 -7 2 -13 17 -13 33 0 22 5 29 23 32 20 3 22 8 19 51 -2 33 0 47 7 42
7 -4 11 4 11 18 0 36 18 46 77 43 40 -2 59 -8 78 -26 26 -24 34 -17 12 11 -13
17 -76 39 -110 39 -10 0 -31 -13 -47 -29 -16 -16 -31 -26 -34 -23 -3 3 -12
-10 -20 -29 l-15 -34 -1 67 0 67 138 4 137 3 -142 2 -143 2 0 -140z"/>
<path fill="#000000" stroke="none" d="M120 223 c0 -6 5 -15 10 -18 6 -3 10
-11 10 -16 0 -6 -4 -8 -8 -5 -4 2 -13 -4 -20 -15 -10 -16 -9 -19 3 -19 8 0 15
-5 15 -11 0 -5 5 -7 11 -3 8 4 9 -1 4 -17 -5 -18 -4 -20 4 -9 6 8 16 15 23 15
7 1 12 6 10 13 -1 7 6 12 15 12 13 0 14 3 5 12 -9 9 -8 16 5 32 10 12 11 15 3
9 -9 -9 -17 -9 -26 -2 -8 7 -14 6 -20 -2 -5 -8 -13 -4 -25 12 -10 13 -19 19
-19 12z"/>
<path fill="#000000" stroke="none" d="M282 181 c-17 -10 -12 -43 6 -47 7 -1
8 0 2 3 -5 2 -7 10 -3 16 7 11 14 37 10 37 -1 0 -8 -4 -15 -9z"/>
<path fill="#000000" stroke="none" d="M250 130 c8 -5 11 -10 5 -10 -5 0 -23
-17 -40 -38 l-30 -37 28 22 c15 12 42 25 59 28 l31 7 -24 19 c-13 10 -28 19
-34 19 -5 0 -3 -5 5 -10z"/>
</g>
</svg>
