<?xml version="1.0" standalone="no"?>
<!DOCTYPE svg PUBLIC "-//W3C//DTD SVG 20010904//EN"
 "http://www.w3.org/TR/2001/REC-SVG-20010904/DTD/svg10.dtd">
<svg version="1.0" xmlns="http://www.w3.org/2000/svg"
 width="32.000000pt" height="32.000000pt" viewBox="0 0 32.000000 32.000000"
 preserveAspectRatio="xMidYMid meet">
<metadata>
Created by potrace 1.16, written by Peter Selinger 2001-2019
</metadata>
<g transform="translate(0.000000,32.000000) scale(0.100000,-0.100000)"
fill="#000000" stroke="none">
<path fill="#000000" stroke="none" d="M20 158 c0 -136 6 -183 11 -86 2 41 5
46 20 37 24 -12 29 -11 29 6 0 9 -11 20 -25 25 -23 9 -25 14 -25 79 l0 70 138
4 137 3 -142 2 -143 2 0 -142z"/>
<path fill="#000000" stroke="none" d="M123 260 c-12 -5 -28 -18 -35 -30 -7
-11 -18 -20 -24 -20 -13 0 -24 -22 -24 -46 0 -21 18 -17 25 6 4 11 11 18 16
15 5 -4 9 5 9 18 0 36 18 46 78 43 57 -3 70 8 21 18 -37 7 -38 7 -66 -4z"/>
<path fill="#000000" stroke="none" d="M230 242 c0 -5 10 -17 21 -28 22 -19
22 -19 10 3 -12 24 -31 39 -31 25z"/>
<path fill="#000000" stroke="none" d="M120 223 c0 -6 5 -15 10 -18 6 -3 10
-11 10 -16 0 -6 -4 -8 -8 -5 -4 2 -13 -4 -20 -15 -10 -16 -9 -19 3 -19 8 0 15
-5 15 -11 0 -5 5 -7 11 -3 8 4 9 -1 4 -17 -5 -18 -4 -20 4 -9 6 8 16 15 23 15
7 1 12 6 10 13 -1 7 6 12 15 12 13 0 14 3 5 12 -9 9 -8 16 5 32 10 12 11 15 3
9 -9 -9 -17 -9 -26 -2 -8 7 -14 6 -20 -2 -5 -8 -13 -4 -25 12 -10 13 -19 19
-19 12z"/>
<path fill="#000000" stroke="none" d="M277 173 c-4 -3 -7 -11 -7 -17 0 -6 5
-5 12 2 6 6 9 14 7 17 -3 3 -9 2 -12 -2z"/>
<path fill="#000000" stroke="none" d="M255 130 c3 -6 -4 -19 -17 -30 l-23
-20 33 11 c41 14 46 22 20 38 -12 7 -17 8 -13 1z"/>
</g>
</svg>
