<?xml version="1.0" standalone="no"?>
<!DOCTYPE svg PUBLIC "-//W3C//DTD SVG 20010904//EN"
 "http://www.w3.org/TR/2001/REC-SVG-20010904/DTD/svg10.dtd">
<svg version="1.0" xmlns="http://www.w3.org/2000/svg"
 width="32.000000pt" height="32.000000pt" viewBox="0 0 32.000000 32.000000"
 preserveAspectRatio="xMidYMid meet">
<metadata>
Created by potrace 1.16, written by Peter Selinger 2001-2019
</metadata>
<g transform="translate(0.000000,32.000000) scale(0.100000,-0.100000)"
fill="#000000" stroke="none">
<path fill="#000000" stroke="none" d="M22 158 c1 -79 3 -117 5 -86 l4 58 24
-16 c21 -14 25 -14 25 -2 0 8 -11 20 -25 26 -23 11 -25 17 -25 82 l0 69 138 4
137 3 -142 2 -143 2 2 -142z"/>
<path fill="#000000" stroke="none" d="M135 261 c-7 -12 31 -25 46 -15 8 4 7
9 -2 15 -18 11 -36 11 -44 0z"/>
<path fill="#000000" stroke="none" d="M92 238 c-7 -7 -12 -18 -12 -25 0 -7
-6 -10 -14 -7 -8 3 -16 -4 -19 -17 -8 -29 1 -39 14 -16 6 9 14 15 20 12 5 -4
9 4 9 17 0 13 5 29 12 36 7 7 10 12 7 12 -3 0 -10 -5 -17 -12z"/>
<path fill="#000000" stroke="none" d="M230 242 c0 -5 7 -15 15 -22 8 -7 15
-8 15 -2 0 5 -7 15 -15 22 -8 7 -15 8 -15 2z"/>
<path fill="#000000" stroke="none" d="M120 220 c0 -5 5 -10 11 -10 5 0 7 5 4
10 -3 6 -8 10 -11 10 -2 0 -4 -4 -4 -10z"/>
<path fill="#000000" stroke="none" d="M146 185 c6 -14 4 -17 -9 -12 -8 3 -21
-1 -28 -9 -7 -8 -8 -14 -3 -13 5 2 23 -5 41 -14 18 -10 34 -13 38 -8 3 5 1 12
-5 16 -6 4 -8 10 -5 14 2 5 -5 17 -16 27 -19 17 -20 17 -13 -1z"/>
<path fill="#ffffff" stroke="none" d="M155 150 c3 -6 -1 -7 -9 -4 -18 7 -21
14 -7 14 6 0 13 -4 16 -10z"/>
<path fill="#000000" stroke="none" d="M170 191 c0 -5 5 -13 10 -16 6 -4 7
-11 4 -17 -4 -6 -2 -8 4 -5 13 9 9 40 -6 45 -7 2 -12 -1 -12 -7z"/>
<path fill="#000000" stroke="none" d="M277 173 c-4 -3 -7 -11 -7 -17 0 -6 5
-5 12 2 6 6 9 14 7 17 -3 3 -9 2 -12 -2z"/>
<path fill="#000000" stroke="none" d="M255 110 c-3 -5 1 -10 10 -10 9 0 13 5
10 10 -3 6 -8 10 -10 10 -2 0 -7 -4 -10 -10z"/>
</g>
</svg>
