<?xml version="1.0" standalone="no"?>
<!DOCTYPE svg PUBLIC "-//W3C//DTD SVG 20010904//EN"
 "http://www.w3.org/TR/2001/REC-SVG-20010904/DTD/svg10.dtd">
<svg version="1.0" xmlns="http://www.w3.org/2000/svg"
 width="32.000000pt" height="32.000000pt" viewBox="0 0 32.000000 32.000000"
 preserveAspectRatio="xMidYMid meet">
<metadata>
Created by potrace 1.16, written by Peter Selinger 2001-2019
</metadata>
<g transform="translate(0.000000,32.000000) scale(0.100000,-0.100000)"
fill="#000000" stroke="none">
<path fill="#000000" stroke="none" d="M20 160 l0 -140 140 0 140 0 0 140 0
140 -140 0 -140 0 0 -140z"/>
<path fill="#ffffff" stroke="none" d="M290 160 l0 -130 -35 0 c-35 0 -35 1
-35 43 1 39 27 119 29 87 1 -9 6 -5 15 10 8 16 9 29 3 38 -6 8 -5 12 4 13 11
0 11 2 1 6 -9 3 -10 9 -2 18 15 18 -12 37 -47 31 -15 -2 -36 -5 -46 -5 -10 -1
-15 -5 -12 -11 3 -5 2 -10 -4 -10 -5 0 -13 5 -16 10 -3 6 -12 10 -18 10 -8 0
-8 -3 1 -9 10 -6 8 -10 -8 -14 -12 -3 -19 -10 -15 -16 4 -7 -8 -11 -34 -11
-40 0 -41 1 -41 35 l0 35 130 0 130 0 0 -130z"/>
<path fill="#ffffff" stroke="none" d="M86 178 c4 -7 4 -10 -1 -6 -4 4 -14 3
-22 -3 -10 -9 -13 -8 -13 5 0 19 26 22 36 4z"/>
<path fill="#ffffff" stroke="none" d="M49 158 c12 -15 11 -18 -3 -18 -10 0
-16 8 -16 22 0 12 1 19 3 17 1 -2 9 -12 16 -21z"/>
<path fill="#ffffff" stroke="none" d="M185 51 c-3 -12 -15 -21 -26 -21 -22 0
-23 8 -9 46 10 25 12 26 26 12 10 -10 14 -24 9 -37z"/>
<path fill="#ffffff" stroke="none" d="M89 38 c1 -5 -12 -8 -29 -8 -27 0 -30
3 -30 31 l0 31 29 -24 c17 -13 30 -26 30 -30z"/>
</g>
</svg>
