<?xml version="1.0" standalone="no"?>
<!DOCTYPE svg PUBLIC "-//W3C//DTD SVG 20010904//EN"
 "http://www.w3.org/TR/2001/REC-SVG-20010904/DTD/svg10.dtd">
<svg version="1.0" xmlns="http://www.w3.org/2000/svg"
 width="32.000000pt" height="32.000000pt" viewBox="0 0 32.000000 32.000000"
 preserveAspectRatio="xMidYMid meet">
<metadata>
Created by potrace 1.16, written by Peter Selinger 2001-2019
</metadata>
<g transform="translate(0.000000,32.000000) scale(0.100000,-0.100000)"
fill="#000000" stroke="none">
<path fill="#000000" stroke="none" d="M0 160 l0 -160 160 0 160 0 0 160 0
160 -160 0 -160 0 0 -160z"/>
<path fill="#ffffff" stroke="none" d="M168 293 l-138 -4 0 -84 c0 -71 3 -85
16 -85 22 0 74 -55 74 -77 -1 -11 -6 -6 -15 14 -13 29 -41 53 -64 53 -5 0 -12
-21 -14 -47 -2 -27 -4 16 -5 95 l-2 142 143 -2 142 -2 -137 -3z"/>
<path fill="#ffffff" stroke="none" d="M236 217 c0 -25 -6 -42 -19 -54 -11
-10 -18 -13 -14 -7 3 5 -11 21 -32 35 -30 20 -36 28 -30 44 4 11 8 14 8 8 1
-18 26 -16 41 2 23 27 45 14 46 -28z"/>
<path fill="#ffffff" stroke="none" d="M147 184 c26 -17 48 -49 57 -84 4 -14
-4 -5 -16 20 -17 33 -35 51 -68 68 -25 12 -34 20 -20 16 14 -3 35 -12 47 -20z"/>
<path fill="#ffffff" stroke="none" d="M170 140 c9 -17 7 -22 -16 -30 -27 -11
-59 3 -49 21 3 4 -4 6 -15 4 -14 -3 -20 0 -17 8 2 7 10 12 18 12 8 0 18 6 22
13 10 16 42 0 57 -28z"/>
</g>
</svg>
