<?xml version="1.0" standalone="no"?>
<!DOCTYPE svg PUBLIC "-//W3C//DTD SVG 20010904//EN"
 "http://www.w3.org/TR/2001/REC-SVG-20010904/DTD/svg10.dtd">
<svg version="1.0" xmlns="http://www.w3.org/2000/svg"
 width="32.000000pt" height="32.000000pt" viewBox="0 0 32.000000 32.000000"
 preserveAspectRatio="xMidYMid meet">
<metadata>
Created by potrace 1.16, written by Peter Selinger 2001-2019
</metadata>
<g transform="translate(0.000000,32.000000) scale(0.100000,-0.100000)"
fill="#000000" stroke="none">
<path fill="#000000" stroke="none" d="M22 163 l2 -138 3 132 4 132 132 4 132
3 -137 2 -138 2 2 -137z"/>
<path fill="#000000" stroke="none" d="M162 255 c-13 -7 -29 -18 -35 -24 -16
-16 -27 -14 -21 4 5 11 2 13 -10 9 -22 -8 -36 -66 -26 -109 4 -20 20 -47 34
-60 25 -23 28 -23 61 -9 19 8 38 14 42 13 20 -3 34 2 28 10 -3 5 4 28 16 51
17 33 19 44 9 50 -7 4 -10 12 -6 18 3 6 2 13 -3 16 -5 4 -12 2 -16 -4 -4 -6
-11 -8 -16 -4 -5 3 -7 10 -4 15 4 5 -1 9 -9 9 -10 0 -13 6 -10 15 7 18 -2 18
-34 0z"/>
<path fill="#ffffff" stroke="none" d="M195 190 c3 -6 -1 -13 -10 -16 -19 -8
-30 0 -20 15 8 14 22 14 30 1z"/>
<path fill="#ffffff" stroke="none" d="M201 137 c-16 -16 -26 0 -10 19 9 11
15 12 17 4 2 -6 -1 -17 -7 -23z"/>
</g>
</svg>
