<?xml version="1.0" standalone="no"?>
<!DOCTYPE svg PUBLIC "-//W3C//DTD SVG 20010904//EN"
 "http://www.w3.org/TR/2001/REC-SVG-20010904/DTD/svg10.dtd">
<svg version="1.0" xmlns="http://www.w3.org/2000/svg"
 width="32.000000pt" height="32.000000pt" viewBox="0 0 32.000000 32.000000"
 preserveAspectRatio="xMidYMid meet">
<metadata>
Created by potrace 1.16, written by Peter Selinger 2001-2019
</metadata>
<g transform="translate(0.000000,32.000000) scale(0.100000,-0.100000)"
fill="#000000" stroke="none">
<path fill="#000000" stroke="none" d="M0 160 l0 -160 160 0 160 0 0 160 0
160 -160 0 -160 0 0 -160z"/>
<path fill="#ffffff" stroke="none" d="M168 293 l-137 -4 -4 -137 -3 -137 -2
143 -2 142 143 -2 142 -2 -137 -3z"/>
<path fill="#ffffff" stroke="none" d="M255 160 l0 -90 -95 0 -95 0 0 90 0 90
95 0 95 0 0 -90z"/>
<path fill="#000000" stroke="none" d="M90 223 c0 -15 10 -18 70 -18 60 0 70
3 70 18 0 15 -10 17 -70 17 -60 0 -70 -2 -70 -17z"/>
<path fill="#000000" stroke="none" d="M130 185 c-15 -18 -10 -45 13 -59 34
-22 73 27 47 59 -16 19 -44 19 -60 0z"/>
<path fill="#ffffff" stroke="none" d="M174 181 c3 -5 -1 -11 -9 -15 -15 -6
-29 7 -18 18 9 9 21 8 27 -3z"/>
<path fill="#ffffff" stroke="none" d="M144 144 c3 -8 2 -12 -4 -9 -6 3 -10
10 -10 16 0 14 7 11 14 -7z"/>
<path fill="#ffffff" stroke="none" d="M181 137 c-10 -9 -11 -8 -5 6 3 10 9
15 12 12 3 -3 0 -11 -7 -18z"/>
<path fill="#000000" stroke="none" d="M90 98 c0 -15 10 -18 70 -18 60 0 70 3
70 18 0 15 -10 17 -70 17 -60 0 -70 -2 -70 -17z"/>
</g>
</svg>
