<?xml version="1.0" standalone="no"?>
<!DOCTYPE svg PUBLIC "-//W3C//DTD SVG 20010904//EN"
 "http://www.w3.org/TR/2001/REC-SVG-20010904/DTD/svg10.dtd">
<svg version="1.0" xmlns="http://www.w3.org/2000/svg"
 width="32.000000pt" height="32.000000pt" viewBox="0 0 32.000000 32.000000"
 preserveAspectRatio="xMidYMid meet">
<metadata>
Created by potrace 1.16, written by Peter Selinger 2001-2019
</metadata>
<g transform="translate(0.000000,32.000000) scale(0.100000,-0.100000)"
fill="#000000" stroke="none">
<path fill="#000000" stroke="none" d="M163 293 l-132 -4 -3 -134 -3 -135 138
0 137 0 0 140 c0 77 -1 139 -2 138 -2 -1 -62 -4 -135 -5z"/>
<path fill="#ffffff" stroke="none" d="M175 193 c-2 -16 -4 -29 -6 -30 -1 -2
-2 -6 -3 -10 -3 -18 -18 -33 -27 -27 -5 3 -7 9 -4 14 3 5 -12 7 -32 5 -29 -3
-33 -1 -20 6 9 6 17 17 17 26 0 11 6 14 21 10 15 -4 23 0 26 14 8 30 32 23 28
-8z"/>
<path fill="#ffffff" stroke="none" d="M231 180 c5 0 9 -7 9 -16 0 -13 -3 -14
-14 -5 -10 9 -16 8 -26 -4 -13 -16 -35 -11 -24 6 3 5 10 7 15 4 5 -4 6 2 2 11
-5 14 -3 16 11 11 10 -4 22 -7 27 -7z"/>
</g>
</svg>
