<?xml version="1.0" standalone="no"?>
<!DOCTYPE svg PUBLIC "-//W3C//DTD SVG 20010904//EN"
 "http://www.w3.org/TR/2001/REC-SVG-20010904/DTD/svg10.dtd">
<svg version="1.0" xmlns="http://www.w3.org/2000/svg"
 width="32.000000pt" height="32.000000pt" viewBox="0 0 32.000000 32.000000"
 preserveAspectRatio="xMidYMid meet">
<metadata>
Created by potrace 1.16, written by Peter Selinger 2001-2019
</metadata>
<g transform="translate(0.000000,32.000000) scale(0.100000,-0.100000)"
fill="#000000" stroke="none">
<path fill="#000000" stroke="none" d="M0 160 l0 -160 160 0 160 0 0 160 0
160 -160 0 -160 0 0 -160z"/>
<path fill="#ffffff" stroke="none" d="M300 155 l0 -135 -135 0 -135 0 0 135
0 135 135 0 135 0 0 -135z"/>
<path fill="#000000" stroke="none" d="M146 205 c-3 -9 -12 -12 -21 -9 -22 9
-68 -35 -54 -52 5 -7 18 -11 27 -10 9 2 22 -4 28 -12 10 -14 16 -13 50 3 22
11 48 20 58 22 11 2 22 5 24 8 7 7 -19 35 -32 34 -29 -4 -46 2 -46 16 0 19
-26 20 -34 0z"/>
</g>
</svg>
