<?xml version="1.0" standalone="no"?>
<!DOCTYPE svg PUBLIC "-//W3C//DTD SVG 20010904//EN"
 "http://www.w3.org/TR/2001/REC-SVG-20010904/DTD/svg10.dtd">
<svg version="1.0" xmlns="http://www.w3.org/2000/svg"
 width="32.000000pt" height="32.000000pt" viewBox="0 0 32.000000 32.000000"
 preserveAspectRatio="xMidYMid meet">
<metadata>
Created by potrace 1.16, written by Peter Selinger 2001-2019
</metadata>
<g transform="translate(0.000000,32.000000) scale(0.100000,-0.100000)"
fill="#000000" stroke="none">
<path fill="#000000" stroke="none" d="M0 160 l0 -160 160 0 160 0 0 160 0
160 -160 0 -160 0 0 -160z"/>
<path fill="#ffffff" stroke="none" d="M287 297 c8 -8 -8 -68 -16 -62 -5 2
-18 -5 -29 -16 -12 -11 -22 -17 -22 -13 0 3 -7 1 -15 -6 -12 -10 -12 -7 1 19
8 17 19 33 25 36 5 4 9 13 9 21 0 11 -20 14 -105 14 l-104 0 -4 -132 -3 -133
-2 137 -2 137 102 3 c118 3 157 2 165 -5z"/>
<path fill="#ffffff" stroke="none" d="M118 102 c2 -7 -3 -12 -12 -12 -9 0
-16 7 -16 16 0 17 22 14 28 -4z"/>
</g>
</svg>
