<?xml version="1.0" standalone="no"?>
<!DOCTYPE svg PUBLIC "-//W3C//DTD SVG 20010904//EN"
 "http://www.w3.org/TR/2001/REC-SVG-20010904/DTD/svg10.dtd">
<svg version="1.0" xmlns="http://www.w3.org/2000/svg"
 width="32.000000pt" height="32.000000pt" viewBox="0 0 32.000000 32.000000"
 preserveAspectRatio="xMidYMid meet">
<metadata>
Created by potrace 1.16, written by Peter Selinger 2001-2019
</metadata>
<g transform="translate(0.000000,32.000000) scale(0.100000,-0.100000)"
fill="#000000" stroke="none">
<path fill="#000000" stroke="none" d="M0 160 l0 -160 160 0 160 0 0 160 0
160 -160 0 -160 0 0 -160z"/>
<path fill="#ffffff" stroke="none" d="M300 160 l0 -140 -140 0 -140 0 0 140
0 140 140 0 140 0 0 -140z"/>
<path fill="#000000" stroke="none" d="M74 265 c30 -29 38 -32 29 -7 -6 14 -4
15 9 5 19 -17 31 -5 13 13 -7 8 -28 14 -45 14 l-31 0 25 -25z"/>
<path fill="#000000" stroke="none" d="M170 266 c-5 -14 -18 -30 -29 -35 -11
-6 -29 -25 -41 -42 l-22 -30 28 -30 c15 -16 36 -31 46 -35 12 -3 18 -15 18
-36 0 -34 19 -34 31 0 11 29 1 29 -11 0 l-9 -23 0 23 c-1 13 14 42 34 64 l34
41 -20 28 c-11 16 -29 34 -39 39 -16 8 -18 15 -10 35 5 14 7 25 5 25 -3 0 -10
-11 -15 -24z"/>
<path fill="#ffffff" stroke="none" d="M205 205 c31 -31 31 -49 0 -80 -31 -31
-49 -31 -80 0 -31 31 -31 49 0 80 13 14 31 25 40 25 9 0 27 -11 40 -25z"/>
<path fill="#000000" stroke="none" d="M157 203 c5 -12 3 -14 -8 -8 -11 7 -12
6 -2 -6 8 -10 9 -19 3 -25 -7 -7 -1 -10 15 -10 17 0 21 3 15 11 -6 7 -5 16 3
25 10 10 9 11 -2 5 -11 -6 -13 -4 -8 8 4 11 1 17 -8 17 -9 0 -12 -6 -8 -17z"/>
<path fill="#000000" stroke="none" d="M115 181 c-8 -27 -2 -36 13 -18 6 7 7
18 3 26 -7 10 -10 8 -16 -8z"/>
<path fill="#000000" stroke="none" d="M197 187 c-3 -9 1 -21 9 -27 11 -10 14
-10 14 1 0 8 -4 20 -9 27 -7 11 -9 11 -14 -1z"/>
<path fill="#000000" stroke="none" d="M120 135 c0 -2 9 -9 20 -15 16 -9 18
-8 14 5 -5 13 -34 22 -34 10z"/>
<path fill="#000000" stroke="none" d="M176 125 c-4 -13 -2 -14 14 -5 23 13
26 20 6 20 -8 0 -16 -7 -20 -15z"/>
<path fill="#000000" stroke="none" d="M33 146 c0 -18 8 -27 38 -39 31 -12 38
-20 42 -48 l4 -34 1 37 c2 28 -3 40 -18 48 -11 6 -18 15 -15 19 6 11 -20 33
-28 24 -4 -3 -7 -1 -7 5 0 7 -4 12 -9 12 -5 0 -8 -11 -8 -24z"/>
<path fill="#ffffff" stroke="none" d="M70 126 c-7 -7 -13 -7 -20 0 -6 6 -3
10 10 10 13 0 16 -4 10 -10z"/>
<path fill="#000000" stroke="none" d="M260 150 c0 -5 5 -10 10 -10 6 0 10 5
10 10 0 6 -4 10 -10 10 -5 0 -10 -4 -10 -10z"/>
<path fill="#000000" stroke="none" d="M222 86 c0 -6 -4 -21 -7 -33 -6 -19 -3
-23 14 -23 17 0 21 6 21 33 0 21 -5 34 -13 34 -8 0 -14 -5 -15 -11z"/>
<path fill="#000000" stroke="none" d="M260 90 c0 -5 7 -10 15 -10 8 0 15 5
15 10 0 6 -7 10 -15 10 -8 0 -15 -4 -15 -10z"/>
<path fill="#000000" stroke="none" d="M30 60 c0 -6 5 -8 12 -4 6 4 18 -2 25
-12 14 -19 15 -19 11 1 -3 21 -48 35 -48 15z"/>
<path fill="#000000" stroke="none" d="M260 55 c0 -8 7 -15 15 -15 8 0 15 7
15 15 0 8 -7 15 -15 15 -8 0 -15 -7 -15 -15z"/>
</g>
</svg>
