<?xml version="1.0" standalone="no"?>
<!DOCTYPE svg PUBLIC "-//W3C//DTD SVG 20010904//EN"
 "http://www.w3.org/TR/2001/REC-SVG-20010904/DTD/svg10.dtd">
<svg version="1.0" xmlns="http://www.w3.org/2000/svg"
 width="32.000000pt" height="32.000000pt" viewBox="0 0 32.000000 32.000000"
 preserveAspectRatio="xMidYMid meet">
<metadata>
Created by potrace 1.16, written by Peter Selinger 2001-2019
</metadata>
<g transform="translate(0.000000,32.000000) scale(0.100000,-0.100000)"
fill="#000000" stroke="none">
<path fill="#000000" stroke="none" d="M0 160 l0 -160 160 0 160 0 0 160 0
160 -160 0 -160 0 0 -160z"/>
<path fill="#ffffff" stroke="none" d="M163 293 l-132 -4 -4 -132 -3 -132 -2
138 -2 137 138 -2 137 -2 -132 -3z"/>
<path fill="#ffffff" stroke="none" d="M170 260 c8 -5 11 -10 5 -10 -5 0 -17
5 -25 10 -8 5 -10 10 -5 10 6 0 17 -5 25 -10z"/>
<path fill="#ffffff" stroke="none" d="M137 247 c2 -3 -9 -7 -25 -9 -21 -3
-28 -1 -25 8 4 11 39 11 50 1z"/>
<path fill="#ffffff" stroke="none" d="M229 216 c-1 -20 -2 -20 -6 -1 -3 11
-10 27 -17 35 -10 13 -9 13 7 1 9 -7 16 -23 16 -35z"/>
<path fill="#ffffff" stroke="none" d="M202 184 c-6 -12 -9 -7 -9 16 0 23 3
28 9 16 5 -9 5 -23 0 -32z"/>
<path fill="#ffffff" stroke="none" d="M61 193 c-12 -20 -14 -14 -5 12 4 9 9
14 11 11 3 -2 0 -13 -6 -23z"/>
<path fill="#ffffff" stroke="none" d="M159 181 c-1 -14 -2 -14 -6 1 -2 9 -10
16 -16 14 -7 -1 -9 -1 -4 1 4 3 4 10 0 16 -4 7 1 6 10 -2 9 -7 16 -21 16 -30z"/>
<path fill="#ffffff" stroke="none" d="M120 165 c11 -13 8 -15 -14 -15 -23 0
-25 2 -14 15 16 18 13 18 28 0z"/>
<path fill="#ffffff" stroke="none" d="M136 133 c-10 -11 -36 -12 -36 -2 0 5
10 9 22 9 12 0 18 -3 14 -7z"/>
</g>
</svg>
