<?xml version="1.0" standalone="no"?>
<!DOCTYPE svg PUBLIC "-//W3C//DTD SVG 20010904//EN"
 "http://www.w3.org/TR/2001/REC-SVG-20010904/DTD/svg10.dtd">
<svg version="1.0" xmlns="http://www.w3.org/2000/svg"
 width="32.000000pt" height="32.000000pt" viewBox="0 0 32.000000 32.000000"
 preserveAspectRatio="xMidYMid meet">
<metadata>
Created by potrace 1.16, written by Peter Selinger 2001-2019
</metadata>
<g transform="translate(0.000000,32.000000) scale(0.100000,-0.100000)"
fill="#000000" stroke="none">
<path fill="#000000" stroke="none" d="M20 160 l0 -140 140 0 140 0 0 140 0
140 -140 0 -140 0 0 -140z"/>
<path fill="#ffffff" stroke="none" d="M50 280 c0 -5 -4 -10 -10 -10 -5 0 -10
5 -10 10 0 6 5 10 10 10 6 0 10 -4 10 -10z"/>
<path fill="#ffffff" stroke="none" d="M288 189 c0 -54 -4 -99 -9 -99 -5 0 -8
15 -7 33 1 53 -21 114 -49 137 -60 47 -173 -5 -173 -79 0 -18 -4 -30 -9 -26
-12 7 -12 105 -1 105 5 0 10 -4 12 -9 2 -5 9 -3 16 5 7 8 8 14 2 14 -5 0 -10
5 -10 10 0 6 44 10 114 9 l115 -1 -1 -99z"/>
<path fill="#ffffff" stroke="none" d="M70 84 c0 -33 -10 -54 -26 -54 -10 0
-14 14 -14 48 0 27 3 52 7 56 11 10 33 -24 33 -50z"/>
<path fill="#ffffff" stroke="none" d="M124 71 c9 -13 -4 -41 -19 -41 -8 0
-10 9 -7 25 4 25 16 32 26 16z"/>
<path fill="#ffffff" stroke="none" d="M222 55 c4 -18 1 -25 -11 -25 -10 0
-16 9 -16 25 0 14 5 25 11 25 7 0 14 -11 16 -25z"/>
<path fill="#ffffff" stroke="none" d="M261 68 c0 -10 2 -10 6 0 8 21 23 13
21 -13 -2 -17 -8 -25 -20 -25 -10 0 -18 4 -18 9 0 5 -3 16 -6 25 -3 9 -1 16 5
16 6 0 11 -6 12 -12z"/>
<path fill="#ffffff" stroke="none" d="M173 45 c-8 -22 -22 -18 -16 5 3 11 9
17 14 15 4 -3 6 -12 2 -20z"/>
<path fill="#000000" stroke="none" d="M246 271 c-4 -5 -2 -12 3 -15 5 -4 12
-2 15 3 4 5 2 12 -3 15 -5 4 -12 2 -15 -3z"/>
</g>
</svg>
