<?xml version="1.0" standalone="no"?>
<!DOCTYPE svg PUBLIC "-//W3C//DTD SVG 20010904//EN"
 "http://www.w3.org/TR/2001/REC-SVG-20010904/DTD/svg10.dtd">
<svg version="1.0" xmlns="http://www.w3.org/2000/svg"
 width="32.000000pt" height="32.000000pt" viewBox="0 0 32.000000 32.000000"
 preserveAspectRatio="xMidYMid meet">
<metadata>
Created by potrace 1.16, written by Peter Selinger 2001-2019
</metadata>
<g transform="translate(0.000000,32.000000) scale(0.100000,-0.100000)"
fill="#000000" stroke="none">
<path fill="#000000" stroke="none" d="M0 160 l0 -160 160 0 160 0 0 160 0
160 -160 0 -160 0 0 -160z"/>
<path fill="#ffffff" stroke="none" d="M298 294 c-4 -3 -65 -5 -137 -5 l-131
1 1 -131 c0 -72 -3 -134 -6 -137 -3 -3 -5 58 -5 136 l0 142 142 0 c78 0 139
-3 136 -6z"/>
<path fill="#ffffff" stroke="none" d="M64 259 c-3 -5 -10 -7 -15 -3 -5 3 -7
10 -3 15 3 5 10 7 15 3 5 -3 7 -10 3 -15z"/>
<path fill="#ffffff" stroke="none" d="M226 257 c23 -20 28 -32 28 -75 1 -40
-3 -54 -19 -66 -26 -20 -35 -20 -35 -1 0 12 -4 11 -20 -5 -11 -11 -24 -20 -29
-20 -4 0 -6 -11 -3 -25 3 -18 0 -25 -10 -25 -11 0 -14 7 -11 24 4 19 0 26 -19
31 -40 12 -58 36 -58 74 0 45 22 79 64 97 46 20 82 17 112 -9z"/>
<path fill="#ffffff" stroke="none" d="M264 259 c-3 -5 -10 -7 -15 -3 -5 3 -7
10 -3 15 3 5 10 7 15 3 5 -3 7 -10 3 -15z"/>
<path fill="#ffffff" stroke="none" d="M274 79 c-3 -5 -10 -7 -15 -3 -5 3 -7
10 -3 15 3 5 10 7 15 3 5 -3 7 -10 3 -15z"/>
<path fill="#ffffff" stroke="none" d="M98 62 c3 -16 -2 -22 -16 -22 -15 0
-18 5 -14 25 5 30 26 28 30 -3z"/>
<path fill="#000000" stroke="none" d="M93 223 c9 -2 23 -2 30 0 6 3 -1 5 -18
5 -16 0 -22 -2 -12 -5z"/>
<path fill="#000000" stroke="none" d="M161 141 c-1 -24 -1 -24 -17 -5 -14 18
-15 18 -4 -4 11 -22 10 -23 -12 -17 -21 5 -21 5 -4 -6 23 -14 50 9 43 37 -4
15 -5 13 -6 -5z"/>
</g>
</svg>
