<?xml version="1.0" standalone="no"?>
<!DOCTYPE svg PUBLIC "-//W3C//DTD SVG 20010904//EN"
 "http://www.w3.org/TR/2001/REC-SVG-20010904/DTD/svg10.dtd">
<svg version="1.0" xmlns="http://www.w3.org/2000/svg"
 width="32.000000pt" height="32.000000pt" viewBox="0 0 32.000000 32.000000"
 preserveAspectRatio="xMidYMid meet">
<metadata>
Created by potrace 1.16, written by Peter Selinger 2001-2019
</metadata>
<g transform="translate(0.000000,32.000000) scale(0.100000,-0.100000)"
fill="#000000" stroke="none">
<path fill="#000000" stroke="none" d="M155 260 c-18 -8 -17 -9 8 -9 16 -1 26
3 22 9 -3 6 -7 10 -8 9 -1 0 -11 -4 -22 -9z"/>
<path fill="#000000" stroke="none" d="M117 233 c-4 -3 -7 -13 -7 -21 0 -12 3
-12 15 -2 8 7 15 16 15 21 0 11 -14 12 -23 2z"/>
<path fill="#000000" stroke="none" d="M170 231 c0 -6 6 -10 13 -8 6 1 11 -4
10 -10 -2 -7 2 -13 8 -13 6 0 9 8 7 17 -4 19 -38 31 -38 14z"/>
<path fill="#000000" stroke="none" d="M79 223 c-4 -28 0 -75 5 -81 4 -3 6 15
5 41 -2 42 -7 61 -10 40z"/>
<path fill="#000000" stroke="none" d="M220 163 c0 -20 3 -34 6 -30 9 9 11 67
2 67 -4 0 -8 -16 -8 -37z"/>
<path fill="#000000" stroke="none" d="M180 155 c-7 -9 -10 -18 -7 -21 10 -11
37 5 37 21 0 19 -14 19 -30 0z"/>
<path fill="#000000" stroke="none" d="M116 138 c7 -10 24 -10 24 0 0 5 -7 9
-15 9 -8 0 -12 -4 -9 -9z"/>
<path fill="#000000" stroke="none" d="M68 123 c7 -3 16 -2 19 1 4 3 -2 6 -13
5 -11 0 -14 -3 -6 -6z"/>
<path fill="#000000" stroke="none" d="M135 81 c3 -6 12 -8 20 -4 9 3 22 0 30
-7 12 -10 15 -10 15 2 0 9 -13 15 -36 16 -22 2 -33 -1 -29 -7z"/>
</g>
</svg>
