<?xml version="1.0" standalone="no"?>
<!DOCTYPE svg PUBLIC "-//W3C//DTD SVG 20010904//EN"
 "http://www.w3.org/TR/2001/REC-SVG-20010904/DTD/svg10.dtd">
<svg version="1.0" xmlns="http://www.w3.org/2000/svg"
 width="32.000000pt" height="32.000000pt" viewBox="0 0 32.000000 32.000000"
 preserveAspectRatio="xMidYMid meet">
<metadata>
Created by potrace 1.16, written by Peter Selinger 2001-2019
</metadata>
<g transform="translate(0.000000,32.000000) scale(0.100000,-0.100000)"
fill="#000000" stroke="none">
<path fill="#000000" stroke="none" d="M20 163 l0 -138 135 3 135 3 0 33 c0
24 -7 38 -31 55 -27 20 -32 21 -47 8 -15 -14 -20 -13 -47 9 -29 23 -29 25 -15
51 21 37 54 45 46 11 -3 -12 -3 -17 0 -10 4 10 9 10 20 2 18 -16 34 -4 34 25
0 54 -101 87 -149 48 -12 -10 -32 -40 -46 -68 l-23 -50 -1 72 -1 72 138 4 137
3 -142 2 -143 2 0 -137z"/>
<path fill="#ffffff" stroke="none" d="M49 96 c9 -10 8 -15 -4 -20 -10 -4 -15
1 -15 14 0 24 4 25 19 6z"/>
</g>
</svg>
