<?xml version="1.0" standalone="no"?>
<!DOCTYPE svg PUBLIC "-//W3C//DTD SVG 20010904//EN"
 "http://www.w3.org/TR/2001/REC-SVG-20010904/DTD/svg10.dtd">
<svg version="1.0" xmlns="http://www.w3.org/2000/svg"
 width="32.000000pt" height="32.000000pt" viewBox="0 0 32.000000 32.000000"
 preserveAspectRatio="xMidYMid meet">
<metadata>
Created by potrace 1.16, written by Peter Selinger 2001-2019
</metadata>
<g transform="translate(0.000000,32.000000) scale(0.100000,-0.100000)"
fill="#000000" stroke="none">
<path fill="#000000" stroke="none" d="M0 160 l0 -160 160 0 160 0 0 160 0
160 -160 0 -160 0 0 -160z"/>
<path fill="#ffffff" stroke="none" d="M300 160 l0 -140 -140 0 -140 0 0 140
0 140 140 0 140 0 0 -140z"/>
<path fill="#000000" stroke="none" d="M30 160 l0 -130 130 0 130 0 0 130 0
130 -36 0 -37 0 7 -52 c11 -82 17 -102 27 -86 6 9 9 5 9 -14 0 -18 -6 -29 -21
-33 -29 -10 -179 -13 -179 -4 0 3 7 26 15 49 8 23 15 64 15 91 0 48 -1 49 -30
49 l-30 0 0 -130z"/>
<path fill="#ffffff" stroke="none" d="M265 90 c3 -6 -1 -7 -9 -4 -22 9 -21
-22 2 -35 9 -6 12 -11 5 -11 -6 0 -15 5 -18 10 -5 8 -11 8 -20 0 -10 -8 -15
-8 -20 0 -5 8 -11 8 -21 -1 -11 -9 -18 -9 -26 -1 -7 7 -19 7 -36 1 -33 -13
-69 -4 -69 15 0 8 3 14 6 14 3 -1 18 2 34 6 17 5 32 4 41 -3 9 -8 16 -9 21 -2
3 6 21 10 40 9 19 -1 38 2 42 5 9 10 21 9 28 -3z"/>
<path fill="#000000" stroke="none" d="M80 70 c-8 -5 -11 -12 -8 -15 10 -10
69 5 62 16 -7 12 -35 11 -54 -1z"/>
<path fill="#000000" stroke="none" d="M155 70 c-9 -14 15 -23 30 -10 9 8 15
8 20 0 7 -11 25 -5 25 9 0 11 -68 12 -75 1z"/>
</g>
</svg>
