<?xml version="1.0" standalone="no"?>
<!DOCTYPE svg PUBLIC "-//W3C//DTD SVG 20010904//EN"
 "http://www.w3.org/TR/2001/REC-SVG-20010904/DTD/svg10.dtd">
<svg version="1.0" xmlns="http://www.w3.org/2000/svg"
 width="32.000000pt" height="32.000000pt" viewBox="0 0 32.000000 32.000000"
 preserveAspectRatio="xMidYMid meet">
<metadata>
Created by potrace 1.16, written by Peter Selinger 2001-2019
</metadata>
<g transform="translate(0.000000,32.000000) scale(0.100000,-0.100000)"
fill="#000000" stroke="none">
<path fill="#000000" stroke="none" d="M0 160 l0 -160 160 0 160 0 0 160 0
160 -160 0 -160 0 0 -160z"/>
<path fill="#ffffff" stroke="none" d="M300 160 l0 -140 -140 0 -140 0 0 140
0 140 140 0 140 0 0 -140z"/>
<path fill="#000000" stroke="none" d="M30 160 l0 -130 130 0 130 0 0 130 0
130 -36 0 -37 0 7 -52 c11 -82 17 -102 27 -86 6 9 9 3 9 -19 0 -17 5 -35 10
-38 6 -3 10 -13 10 -22 0 -13 -3 -13 -15 -3 -10 8 -15 9 -15 2 0 -6 7 -15 16
-20 11 -6 -25 -9 -101 -8 -116 1 -118 1 -122 25 -2 17 1 22 11 18 9 -4 13 -1
10 6 -2 7 2 32 11 56 8 24 15 65 15 92 0 48 -1 49 -30 49 l-30 0 0 -130z"/>
<path fill="#000000" stroke="none" d="M90 70 c-20 -12 -9 -21 18 -13 12 3 19
9 16 14 -7 11 -15 11 -34 -1z"/>
<path fill="#000000" stroke="none" d="M165 70 c-3 -5 -2 -10 4 -10 5 0 13 5
16 10 3 6 2 10 -4 10 -5 0 -13 -4 -16 -10z"/>
</g>
</svg>
