<?xml version="1.0" standalone="no"?>
<!DOCTYPE svg PUBLIC "-//W3C//DTD SVG 20010904//EN"
 "http://www.w3.org/TR/2001/REC-SVG-20010904/DTD/svg10.dtd">
<svg version="1.0" xmlns="http://www.w3.org/2000/svg"
 width="32.000000pt" height="32.000000pt" viewBox="0 0 32.000000 32.000000"
 preserveAspectRatio="xMidYMid meet">
<metadata>
Created by potrace 1.16, written by Peter Selinger 2001-2019
</metadata>
<g transform="translate(0.000000,32.000000) scale(0.100000,-0.100000)"
fill="#000000" stroke="none">
<path fill="#000000" stroke="none" d="M34 289 c-3 -5 0 -17 7 -25 11 -13 10
-17 -2 -24 -15 -9 -18 -47 -5 -68 4 -7 5 -16 1 -21 -3 -5 -1 -13 5 -16 8 -5 7
-11 -1 -21 -6 -8 -8 -14 -3 -14 5 0 3 -4 -5 -9 -25 -16 -23 -49 4 -67 38 -25
65 -14 93 35 20 37 22 48 13 69 -13 28 -13 27 14 36 16 4 25 -1 38 -24 17 -28
17 -29 -3 -40 -24 -13 -18 -30 11 -30 10 0 18 -3 16 -8 -8 -24 69 -7 83 18 12
23 13 67 1 74 -4 3 -7 -7 -5 -22 3 -19 1 -17 -7 8 -20 68 -19 67 -38 42 l-17
-23 -27 21 c-14 11 -24 27 -21 34 6 17 -8 27 -83 59 -38 16 -65 22 -69 16z"/>
<path fill="#ffffff" stroke="none" d="M270 163 c0 -21 -3 -24 -9 -14 -5 8 -7
20 -4 28 8 21 13 15 13 -14z"/>
<path fill="#ffffff" stroke="none" d="M223 83 c-7 -2 -19 -2 -25 0 -7 3 -2 5
12 5 14 0 19 -2 13 -5z"/>
<path fill="#ffffff" stroke="none" d="M275 70 c-27 -12 -43 -12 -25 0 8 5 22
9 30 9 10 0 8 -3 -5 -9z"/>
<path fill="#000000" stroke="none" d="M216 290 c-1 -3 -1 -21 -1 -40 0 -33 2
-34 40 -34 39 0 39 0 39 39 0 38 0 39 -38 40 -20 0 -38 -2 -40 -5z"/>
</g>
</svg>
