<?xml version="1.0" standalone="no"?>
<!DOCTYPE svg PUBLIC "-//W3C//DTD SVG 20010904//EN"
 "http://www.w3.org/TR/2001/REC-SVG-20010904/DTD/svg10.dtd">
<svg version="1.0" xmlns="http://www.w3.org/2000/svg"
 width="32.000000pt" height="32.000000pt" viewBox="0 0 32.000000 32.000000"
 preserveAspectRatio="xMidYMid meet">
<metadata>
Created by potrace 1.16, written by Peter Selinger 2001-2019
</metadata>
<g transform="translate(0.000000,32.000000) scale(0.100000,-0.100000)"
fill="#000000" stroke="none">
<path fill="#000000" stroke="none" d="M22 163 l2 -138 3 133 c3 114 6 132 20
132 9 0 25 -8 36 -17 19 -17 20 -17 14 0 -6 15 1 17 63 17 l70 0 0 -65 c0 -37
4 -65 10 -65 6 0 10 24 10 53 0 55 6 71 30 80 8 3 -47 6 -122 6 l-138 1 2
-137z"/>
<path fill="#000000" stroke="none" d="M138 229 c13 -15 26 -39 31 -55 5 -19
15 -30 29 -32 31 -5 27 14 -11 51 -47 46 -79 69 -49 36z"/>
<path fill="#000000" stroke="none" d="M232 85 c-2 -30 1 -55 6 -55 5 0 9 25
9 55 0 30 -3 55 -6 55 -3 0 -7 -25 -9 -55z"/>
<path fill="#000000" stroke="none" d="M170 115 c-20 -24 -6 -28 15 -5 10 11
13 20 8 20 -6 0 -16 -7 -23 -15z"/>
<path fill="#000000" stroke="none" d="M119 54 c-13 -15 -18 -25 -10 -22 13 4
49 48 39 48 -2 0 -15 -12 -29 -26z"/>
</g>
</svg>
