<?xml version="1.0" standalone="no"?>
<!DOCTYPE svg PUBLIC "-//W3C//DTD SVG 20010904//EN"
 "http://www.w3.org/TR/2001/REC-SVG-20010904/DTD/svg10.dtd">
<svg version="1.0" xmlns="http://www.w3.org/2000/svg"
 width="32.000000pt" height="32.000000pt" viewBox="0 0 32.000000 32.000000"
 preserveAspectRatio="xMidYMid meet">
<metadata>
Created by potrace 1.16, written by Peter Selinger 2001-2019
</metadata>
<g transform="translate(0.000000,32.000000) scale(0.100000,-0.100000)"
fill="#000000" stroke="none">
<path fill="#000000" stroke="none" d="M0 160 l0 -160 160 0 160 0 0 160 0
160 -160 0 -160 0 0 -160z"/>
<path fill="#ffffff" stroke="none" d="M95 279 c11 -17 -1 -21 -15 -4 -8 9 -8
15 -2 15 6 0 14 -5 17 -11z"/>
<path fill="#ffffff" stroke="none" d="M250 249 c0 -24 -4 -38 -10 -34 -5 3
-10 22 -10 41 0 19 5 34 10 34 6 0 10 -18 10 -41z"/>
<path fill="#ffffff" stroke="none" d="M170 209 c0 -14 -5 -11 -31 17 l-24 27
28 -18 c15 -9 27 -21 27 -26z"/>
<path fill="#ffffff" stroke="none" d="M204 174 c9 -3 16 -13 16 -21 0 -10 -6
-13 -16 -9 -9 3 -18 6 -20 6 -2 0 -4 7 -4 15 0 17 2 18 24 9z"/>
<path fill="#ffffff" stroke="none" d="M180 106 c0 -3 -4 -8 -10 -11 -5 -3
-10 -1 -10 4 0 6 5 11 10 11 6 0 10 -2 10 -4z"/>
<path fill="#ffffff" stroke="none" d="M138 58 c-8 -12 -21 -24 -29 -26 -8 -3
-3 7 10 22 30 32 39 34 19 4z"/>
</g>
</svg>
