<?xml version="1.0" standalone="no"?>
<!DOCTYPE svg PUBLIC "-//W3C//DTD SVG 20010904//EN"
 "http://www.w3.org/TR/2001/REC-SVG-20010904/DTD/svg10.dtd">
<svg version="1.0" xmlns="http://www.w3.org/2000/svg"
 width="32.000000pt" height="32.000000pt" viewBox="0 0 32.000000 32.000000"
 preserveAspectRatio="xMidYMid meet">
<metadata>
Created by potrace 1.16, written by Peter Selinger 2001-2019
</metadata>
<g transform="translate(0.000000,32.000000) scale(0.100000,-0.100000)"
fill="#000000" stroke="none">
<path fill="#000000" stroke="none" d="M20 162 l0 -139 63 2 c34 2 70 6 81 10
11 5 21 3 26 -5 6 -9 9 -6 12 11 3 27 24 28 22 1 -1 -15 22 -20 64 -13 4 0 7
37 7 81 0 44 -3 80 -7 80 -5 0 -8 10 -8 23 0 13 3 27 8 31 4 4 7 19 7 32 l1
24 -138 0 -138 0 0 -138z"/>
<path fill="#ffffff" stroke="none" d="M190 286 c0 -2 -7 -6 -15 -10 -8 -3
-15 -1 -15 4 0 6 7 10 15 10 8 0 15 -2 15 -4z"/>
<path fill="#ffffff" stroke="none" d="M227 262 c-1 -22 -6 -28 -19 -24 -10 2
-15 9 -11 16 4 6 8 14 9 19 3 15 4 17 14 17 5 0 8 -13 7 -28z"/>
<path fill="#ffffff" stroke="none" d="M47 238 c-10 -6 31 -28 53 -28 4 0 6
-9 3 -20 -4 -14 0 -20 11 -20 9 0 16 -7 16 -16 0 -9 -5 -12 -12 -8 -8 5 -9 2
-5 -10 9 -22 -18 -32 -41 -15 -13 10 -12 8 3 -9 16 -20 17 -25 5 -32 -8 -6
-23 -10 -32 -10 -16 0 -18 11 -18 100 0 86 2 99 14 88 10 -9 10 -15 3 -20z"/>
</g>
</svg>
