<?xml version="1.0" standalone="no"?>
<!DOCTYPE svg PUBLIC "-//W3C//DTD SVG 20010904//EN"
 "http://www.w3.org/TR/2001/REC-SVG-20010904/DTD/svg10.dtd">
<svg version="1.0" xmlns="http://www.w3.org/2000/svg"
 width="32.000000pt" height="32.000000pt" viewBox="0 0 32.000000 32.000000"
 preserveAspectRatio="xMidYMid meet">
<metadata>
Created by potrace 1.16, written by Peter Selinger 2001-2019
</metadata>
<g transform="translate(0.000000,32.000000) scale(0.100000,-0.100000)"
fill="#000000" stroke="none">
<path fill="#000000" stroke="none" d="M20 160 c0 -127 2 -140 18 -139 10 0
12 3 5 6 -10 3 -13 40 -13 134 l0 128 138 4 137 3 -142 2 -143 2 0 -140z"/>
<path fill="#000000" stroke="none" d="M125 255 c-16 -7 -36 -10 -43 -7 -10 3
-13 0 -10 -9 3 -8 1 -22 -4 -31 -10 -20 6 -58 23 -58 6 0 7 5 3 12 -4 6 -3 8
4 4 12 -7 47 26 68 67 8 15 17 27 20 27 12 0 -67 -125 -83 -131 -10 -4 -12 -8
-5 -8 6 -1 11 -7 10 -13 -2 -7 3 -12 10 -10 8 1 11 -2 7 -8 -3 -5 0 -7 8 -4 8
3 20 -2 27 -11 7 -8 17 -15 22 -15 5 0 -4 11 -21 25 -30 26 -34 56 -10 79 8 8
10 5 7 -11 -2 -13 5 -29 17 -38 11 -9 13 -13 5 -9 -8 3 1 -7 20 -24 23 -19 37
-26 42 -19 9 15 0 28 -19 25 -9 -2 -17 5 -19 15 -2 13 2 17 13 13 9 -4 13 -1
10 6 -2 7 -11 13 -19 12 -7 -1 -15 8 -15 18 -2 16 1 17 13 8 11 -10 17 -10 29
0 14 12 15 10 11 -15 -3 -15 -2 -24 2 -20 4 3 7 10 8 13 0 4 4 15 9 25 4 10 3
28 -2 40 -6 12 -11 27 -12 32 -1 11 -57 34 -81 33 -8 0 -28 -6 -45 -13z"/>
<path fill="#000000" stroke="none" d="M50 154 c0 -12 6 -27 14 -33 18 -15 17
3 -2 34 -11 20 -11 20 -12 -1z"/>
<path fill="#000000" stroke="none" d="M87 83 c-12 -12 -7 -22 8 -17 8 4 15
10 15 15 0 11 -14 12 -23 2z"/>
</g>
</svg>
