<?xml version="1.0" standalone="no"?>
<!DOCTYPE svg PUBLIC "-//W3C//DTD SVG 20010904//EN"
 "http://www.w3.org/TR/2001/REC-SVG-20010904/DTD/svg10.dtd">
<svg version="1.0" xmlns="http://www.w3.org/2000/svg"
 width="32.000000pt" height="32.000000pt" viewBox="0 0 32.000000 32.000000"
 preserveAspectRatio="xMidYMid meet">
<metadata>
Created by potrace 1.16, written by Peter Selinger 2001-2019
</metadata>
<g transform="translate(0.000000,32.000000) scale(0.100000,-0.100000)"
fill="#000000" stroke="none">
<path fill="#000000" stroke="none" d="M0 160 l0 -160 160 0 160 0 0 160 0
160 -160 0 -160 0 0 -160z"/>
<path fill="#ffffff" stroke="none" d="M168 293 l-137 -4 -4 -137 -3 -137 -2
143 -2 142 143 -2 142 -2 -137 -3z"/>
<path fill="#ffffff" stroke="none" d="M165 240 c-9 -18 -21 -28 -27 -24 -7 4
-8 3 -4 -4 4 -7 2 -12 -4 -12 -6 0 -9 -4 -6 -8 6 -9 -49 -10 -58 -1 -4 3 0 12
9 19 17 14 21 35 5 25 -5 -3 -10 -1 -10 5 0 6 8 9 18 6 9 -3 28 1 42 8 43 24
53 20 35 -14z"/>
<path fill="#ffffff" stroke="none" d="M243 250 c7 0 6 -4 -3 -10 -8 -5 -10
-10 -4 -10 13 0 35 -45 27 -54 -3 -3 -12 -1 -19 4 -9 8 -12 6 -10 -7 0 -10 -6
-18 -14 -18 -8 0 -14 8 -14 18 2 25 -5 21 -17 -10 -6 -17 -13 -23 -20 -16 -6
6 -6 19 0 36 14 35 6 35 -13 0 -8 -16 -15 -23 -16 -18 0 18 36 65 45 58 4 -5
5 -2 0 6 -9 16 13 33 33 26 8 -3 19 -5 25 -5z"/>
<path fill="#ffffff" stroke="none" d="M64 154 c3 -8 2 -12 -4 -9 -6 3 -10 10
-10 16 0 14 7 11 14 -7z"/>
<path fill="#ffffff" stroke="none" d="M136 108 c12 -14 13 -18 3 -10 -9 6
-20 8 -24 4 -5 -4 -5 -2 -2 5 4 6 1 14 -5 16 -8 3 -8 6 -2 6 6 1 19 -9 30 -21z"/>
</g>
</svg>
