<?xml version="1.0" standalone="no"?>
<!DOCTYPE svg PUBLIC "-//W3C//DTD SVG 20010904//EN"
 "http://www.w3.org/TR/2001/REC-SVG-20010904/DTD/svg10.dtd">
<svg version="1.0" xmlns="http://www.w3.org/2000/svg"
 width="32.000000pt" height="32.000000pt" viewBox="0 0 32.000000 32.000000"
 preserveAspectRatio="xMidYMid meet">
<metadata>
Created by potrace 1.16, written by Peter Selinger 2001-2019
</metadata>
<g transform="translate(0.000000,32.000000) scale(0.100000,-0.100000)"
fill="#000000" stroke="none">
<path fill="#000000" stroke="none" d="M0 160 l0 -160 160 0 160 0 0 160 0
160 -160 0 -160 0 0 -160z"/>
<path fill="#ffffff" stroke="none" d="M168 293 l-138 -4 0 -128 c0 -94 3
-131 13 -134 7 -3 5 -6 -5 -6 -16 -1 -18 12 -18 139 l0 140 143 -2 142 -2
-137 -3z"/>
<path fill="#ffffff" stroke="none" d="M180 254 c11 -12 11 -15 0 -12 -13 3
-14 -3 -11 -50 1 -20 34 -24 59 -8 7 4 16 5 19 2 4 -3 0 -6 -8 -7 -8 0 -5 -4
6 -8 12 -5 -13 -7 -60 -6 -44 1 -86 -2 -93 -8 -7 -5 -15 -7 -19 -3 -3 3 0 6 8
7 8 0 6 4 -6 9 -14 5 -3 7 33 6 l52 -2 -4 42 c-3 37 0 54 9 54 2 0 8 -7 15
-16z"/>
<path fill="#ffffff" stroke="none" d="M136 248 c4 -7 3 -10 -1 -5 -5 4 -20
-3 -34 -15 l-26 -23 24 28 c28 31 28 31 37 15z"/>
<path fill="#ffffff" stroke="none" d="M241 121 c-11 -7 -10 -10 5 -13 10 -3
-17 -4 -61 -2 -44 1 -85 -3 -92 -8 -7 -6 -18 -8 -25 -5 -8 3 -5 6 7 7 l20 1
-20 9 c-12 4 13 7 63 6 46 -1 85 1 88 6 3 4 11 8 17 8 8 0 7 -3 -2 -9z"/>
<path fill="#ffffff" stroke="none" d="M172 72 c3 -11 0 -19 -7 -19 -7 0 -10
8 -7 19 2 10 6 18 7 18 1 0 5 -8 7 -18z"/>
<path fill="#ffffff" stroke="none" d="M250 80 c0 -5 -2 -10 -4 -10 -3 0 -8 5
-11 10 -3 6 -1 10 4 10 6 0 11 -4 11 -10z"/>
<path fill="#ffffff" stroke="none" d="M97 66 c0 -8 -6 -12 -15 -9 -11 5 -11
7 0 14 7 5 13 9 14 9 0 0 1 -6 1 -14z"/>
</g>
</svg>
