<?xml version="1.0" standalone="no"?>
<!DOCTYPE svg PUBLIC "-//W3C//DTD SVG 20010904//EN"
 "http://www.w3.org/TR/2001/REC-SVG-20010904/DTD/svg10.dtd">
<svg version="1.0" xmlns="http://www.w3.org/2000/svg"
 width="32.000000pt" height="32.000000pt" viewBox="0 0 32.000000 32.000000"
 preserveAspectRatio="xMidYMid meet">
<metadata>
Created by potrace 1.16, written by Peter Selinger 2001-2019
</metadata>
<g transform="translate(0.000000,32.000000) scale(0.100000,-0.100000)"
fill="#000000" stroke="none">
<path fill="#000000" stroke="none" d="M20 160 l0 -140 140 0 140 0 0 140 0
140 -140 0 -140 0 0 -140z"/>
<path fill="#ffffff" stroke="none" d="M108 265 c-10 -22 -8 -29 15 -53 35
-36 35 -70 0 -98 l-27 -21 57 0 c31 0 54 4 51 8 -2 4 1 20 7 36 15 36 17 55 5
71 -5 7 -6 15 -2 19 3 3 6 0 7 -8 1 -8 4 -3 8 11 5 14 4 33 -1 43 -7 15 -4 17
27 17 l35 0 0 -130 0 -130 -130 0 -130 0 0 130 0 130 45 0 c44 0 44 0 33 -25z"/>
<path fill="#000000" stroke="none" d="M58 109 c-10 -5 -18 -16 -18 -24 0 -25
43 -39 120 -39 77 0 120 14 120 39 0 18 -37 38 -56 31 -8 -3 -13 -11 -12 -18
2 -10 -16 -13 -70 -12 -40 0 -67 -3 -60 -8 9 -5 10 -8 1 -8 -22 0 -25 21 -4
27 23 6 29 23 9 23 -7 0 -21 -5 -30 -11z"/>
<path fill="#ffffff" stroke="none" d="M252 85 c0 -5 -5 -10 -12 -11 -7 -2 -6
-1 1 3 8 4 7 8 -2 15 -11 8 -11 9 -1 6 8 -2 14 -8 14 -13z"/>
</g>
</svg>
