<?xml version="1.0" standalone="no"?>
<!DOCTYPE svg PUBLIC "-//W3C//DTD SVG 20010904//EN"
 "http://www.w3.org/TR/2001/REC-SVG-20010904/DTD/svg10.dtd">
<svg version="1.0" xmlns="http://www.w3.org/2000/svg"
 width="32.000000pt" height="32.000000pt" viewBox="0 0 32.000000 32.000000"
 preserveAspectRatio="xMidYMid meet">
<metadata>
Created by potrace 1.16, written by Peter Selinger 2001-2019
</metadata>
<g transform="translate(0.000000,32.000000) scale(0.100000,-0.100000)"
fill="#000000" stroke="none">
<path fill="#000000" stroke="none" d="M0 160 l0 -160 160 0 160 0 0 160 0
160 -160 0 -160 0 0 -160z"/>
<path fill="#ffffff" stroke="none" d="M168 293 l-138 -4 1 -37 1 -37 16 35
c14 31 16 32 20 13 2 -12 -6 -43 -17 -69 -24 -53 -29 -159 -8 -167 7 -3 5 -6
-5 -6 -16 -1 -18 12 -18 139 l0 140 143 -2 142 -2 -137 -3z"/>
<path fill="#ffffff" stroke="none" d="M173 273 c-7 -2 -19 -2 -25 0 -7 3 -2
5 12 5 14 0 19 -2 13 -5z"/>
<path fill="#ffffff" stroke="none" d="M295 225 c0 -25 -4 -40 -9 -35 -5 5
-15 6 -23 3 -12 -5 -14 -1 -8 15 4 14 2 22 -5 22 -6 0 -8 5 -3 13 4 6 8 15 9
20 1 4 2 9 3 11 0 2 9 2 19 -1 14 -3 18 -14 17 -48z"/>
<path fill="#ffffff" stroke="none" d="M170 245 c0 -8 -4 -15 -10 -15 -5 0
-10 7 -10 15 0 8 5 15 10 15 6 0 10 -7 10 -15z"/>
<path fill="#ffffff" stroke="none" d="M220 213 c0 -7 -7 -10 -15 -7 -19 8
-24 -7 -28 -74 -3 -51 -3 -53 20 -49 35 7 27 -8 -11 -20 -22 -7 -39 -7 -51 -1
-28 16 -49 16 -62 -1 -6 -9 -15 -12 -20 -7 -4 5 -2 11 5 13 6 3 12 12 12 20 0
11 4 13 13 6 6 -5 24 -10 38 -11 27 -3 27 -3 23 57 -2 34 1 61 5 61 5 0 11 -5
13 -12 3 -7 7 -5 11 5 6 16 2 17 -33 14 -25 -2 -40 0 -40 7 0 7 23 11 60 11
41 0 60 -4 60 -12z"/>
<path fill="#ffffff" stroke="none" d="M280 116 c0 -19 -5 -38 -11 -41 -15
-10 -24 2 -12 17 12 16 13 49 1 42 -5 -3 -5 -10 -2 -16 4 -6 3 -8 -2 -5 -6 3
-11 -9 -12 -26 -3 -34 -17 -55 -29 -44 -4 4 -1 13 5 19 7 7 12 23 12 36 0 22
24 51 43 52 4 0 7 -15 7 -34z"/>
<path fill="#ffffff" stroke="none" d="M57 98 c-3 -8 -6 -5 -6 6 -1 11 2 17 5
13 3 -3 4 -12 1 -19z"/>
</g>
</svg>
