<?xml version="1.0" standalone="no"?>
<!DOCTYPE svg PUBLIC "-//W3C//DTD SVG 20010904//EN"
 "http://www.w3.org/TR/2001/REC-SVG-20010904/DTD/svg10.dtd">
<svg version="1.0" xmlns="http://www.w3.org/2000/svg"
 width="32.000000pt" height="32.000000pt" viewBox="0 0 32.000000 32.000000"
 preserveAspectRatio="xMidYMid meet">
<metadata>
Created by potrace 1.16, written by Peter Selinger 2001-2019
</metadata>
<g transform="translate(0.000000,32.000000) scale(0.100000,-0.100000)"
fill="#000000" stroke="none">
<path fill="#000000" stroke="none" d="M0 160 l0 -160 160 0 160 0 0 160 0
160 -160 0 -160 0 0 -160z"/>
<path fill="#ffffff" stroke="none" d="M300 160 l0 -140 -140 0 -140 0 0 140
0 140 140 0 140 0 0 -140z"/>
<path fill="#000000" stroke="none" d="M30 160 l0 -130 130 0 130 0 0 130 0
130 -130 0 -130 0 0 -130z"/>
<path fill="#ffffff" stroke="none" d="M208 251 c1 -27 -1 -29 -41 -27 -38 1
-42 -2 -45 -24 -2 -14 -8 -29 -13 -34 -5 -6 -9 -24 -9 -42 0 -17 -6 -37 -14
-43 -11 -9 -12 -6 -9 16 l4 28 -21 -25 -22 -24 4 39 c2 22 6 38 8 36 3 -2 15
1 28 8 20 10 22 17 16 49 -8 47 -8 46 -36 32 -19 -10 -21 -10 -11 0 7 7 20 14
30 15 10 1 26 6 36 10 9 4 27 5 40 1 12 -3 29 -1 37 4 8 5 15 10 16 10 1 0 1
-13 2 -29z"/>
<path fill="#ffffff" stroke="none" d="M243 223 l-4 -28 21 25 22 24 -4 -37
c-2 -21 -8 -38 -13 -38 -33 -3 -46 -21 -39 -57 8 -47 8 -46 36 -32 19 10 21
10 11 0 -7 -7 -20 -14 -30 -15 -10 -1 -26 -6 -36 -10 -9 -4 -27 -5 -39 -2 -12
3 -29 2 -38 -3 -14 -8 -17 -4 -18 19 -1 27 1 29 41 27 38 -1 42 2 45 24 2 14
8 29 13 35 5 5 9 23 9 40 0 17 5 36 12 43 16 16 16 16 11 -15z"/>
<path fill="#ffffff" stroke="none" d="M80 225 c0 -2 -10 -9 -22 -15 -22 -11
-22 -10 -4 4 21 17 26 19 26 11z"/>
<path fill="#ffffff" stroke="none" d="M190 176 c0 -19 -5 -38 -11 -41 -15
-10 -24 2 -12 17 12 16 13 49 1 42 -5 -3 -5 -10 -2 -16 4 -6 3 -8 -2 -5 -6 3
-11 -6 -12 -21 -2 -29 -18 -50 -29 -39 -4 4 -1 13 5 19 7 7 12 21 12 31 0 18
25 46 43 47 4 0 7 -15 7 -34z"/>
<path fill="#ffffff" stroke="none" d="M89 196 c-2 -2 -15 -9 -29 -15 -24 -11
-24 -11 -6 3 16 13 49 24 35 12z"/>
<path fill="#ffffff" stroke="none" d="M266 135 c-11 -8 -25 -15 -30 -15 -6 1
0 7 14 15 32 19 40 18 16 0z"/>
<path fill="#ffffff" stroke="none" d="M280 115 c0 -2 -10 -9 -22 -15 -22 -11
-22 -10 -4 4 21 17 26 19 26 11z"/>
</g>
</svg>
