<?xml version="1.0" standalone="no"?>
<!DOCTYPE svg PUBLIC "-//W3C//DTD SVG 20010904//EN"
 "http://www.w3.org/TR/2001/REC-SVG-20010904/DTD/svg10.dtd">
<svg version="1.0" xmlns="http://www.w3.org/2000/svg"
 width="32.000000pt" height="32.000000pt" viewBox="0 0 32.000000 32.000000"
 preserveAspectRatio="xMidYMid meet">
<metadata>
Created by potrace 1.16, written by Peter Selinger 2001-2019
</metadata>
<g transform="translate(0.000000,32.000000) scale(0.100000,-0.100000)"
fill="#000000" stroke="none">
<path fill="#000000" stroke="none" d="M20 160 c0 -114 3 -140 14 -140 9 0 12
7 9 18 -7 28 21 44 80 45 62 2 87 18 87 57 0 33 -22 54 -50 47 -11 -3 -20 -1
-20 4 0 16 25 20 55 9 26 -10 27 -9 14 6 -12 15 -11 16 11 9 14 -4 33 -17 42
-29 14 -17 18 -18 18 -5 0 9 -7 22 -15 29 -14 12 -14 15 1 31 9 10 20 16 24
14 4 -3 7 6 6 20 l-1 25 -137 0 -138 0 0 -140z"/>
<path fill="#ffffff" stroke="none" d="M280 276 c0 -24 -28 -38 -83 -39 -62
-2 -87 -18 -87 -57 0 -33 22 -54 50 -47 11 3 20 1 20 -4 0 -16 -25 -20 -55 -9
-26 10 -27 9 -14 -6 12 -15 11 -16 -11 -9 -14 4 -33 17 -42 29 -12 14 -18 16
-18 7 0 -8 7 -22 15 -31 14 -15 13 -19 -5 -35 -20 -18 -20 -18 -20 85 0 96 1
102 18 89 14 -11 15 -11 5 1 -31 35 -17 40 107 40 95 0 120 -3 120 -14z"/>
<path fill="#000000" stroke="none" d="M45 209 c-4 -6 -5 -12 -2 -15 2 -3 7 2
10 11 7 17 1 20 -8 4z"/>
<path fill="#000000" stroke="none" d="M66 195 c-9 -26 -7 -32 5 -12 6 10 9
21 6 23 -2 3 -7 -2 -11 -11z"/>
<path fill="#000000" stroke="none" d="M246 135 c-9 -26 -7 -32 5 -12 6 10 9
21 6 23 -2 3 -7 -2 -11 -11z"/>
<path fill="#000000" stroke="none" d="M266 113 c-6 -14 -5 -15 5 -6 7 7 10
15 7 18 -3 3 -9 -2 -12 -12z"/>
<path fill="#000000" stroke="none" d="M271 62 c12 -20 12 -24 -1 -32 -8 -5
-10 -10 -5 -10 17 0 30 14 32 33 0 10 -2 16 -5 13 -3 -3 -12 0 -20 7 -13 11
-14 9 -1 -11z"/>
</g>
</svg>
