<?xml version="1.0" standalone="no"?>
<!DOCTYPE svg PUBLIC "-//W3C//DTD SVG 20010904//EN"
 "http://www.w3.org/TR/2001/REC-SVG-20010904/DTD/svg10.dtd">
<svg version="1.0" xmlns="http://www.w3.org/2000/svg"
 width="32.000000pt" height="32.000000pt" viewBox="0 0 32.000000 32.000000"
 preserveAspectRatio="xMidYMid meet">
<metadata>
Created by potrace 1.16, written by Peter Selinger 2001-2019
</metadata>
<g transform="translate(0.000000,32.000000) scale(0.100000,-0.100000)"
fill="#000000" stroke="none">
<path fill="#000000" stroke="none" d="M20 159 c0 -91 4 -138 10 -134 5 3 10
11 10 17 0 28 31 46 69 41 54 -7 101 19 101 56 0 34 -22 55 -50 48 -11 -3 -20
-1 -20 4 0 17 31 22 57 10 23 -11 25 -10 13 3 -20 25 12 20 46 -6 l29 -23 -17
26 c-16 25 -16 28 1 44 11 9 21 25 24 36 5 18 -1 19 -134 19 l-139 0 0 -141z"/>
<path fill="#ffffff" stroke="none" d="M280 278 c0 -28 -31 -46 -69 -41 -54 7
-101 -19 -101 -56 0 -34 22 -55 50 -48 11 3 20 1 20 -4 0 -17 -31 -22 -57 -10
-23 11 -25 10 -13 -3 20 -25 -12 -20 -46 6 l-29 23 17 -26 c16 -26 16 -28 -2
-44 -20 -18 -20 -17 -20 85 0 96 1 102 18 89 14 -11 15 -11 5 1 -31 35 -17 40
107 40 85 0 120 -3 120 -12z"/>
<path fill="#000000" stroke="none" d="M45 209 c-4 -6 -5 -12 -2 -15 2 -3 7 2
10 11 7 17 1 20 -8 4z"/>
<path fill="#000000" stroke="none" d="M66 195 c-9 -26 -7 -32 5 -12 6 10 9
21 6 23 -2 3 -7 -2 -11 -11z"/>
<path fill="#000000" stroke="none" d="M246 135 c-9 -26 -7 -32 5 -12 6 10 9
21 6 23 -2 3 -7 -2 -11 -11z"/>
<path fill="#000000" stroke="none" d="M266 113 c-6 -14 -5 -15 5 -6 7 7 10
15 7 18 -3 3 -9 -2 -12 -12z"/>
<path fill="#000000" stroke="none" d="M272 58 c7 -15 15 -23 17 -17 2 6 -4
18 -13 27 -15 15 -15 15 -4 -10z"/>
</g>
</svg>
