<?xml version="1.0" standalone="no"?>
<!DOCTYPE svg PUBLIC "-//W3C//DTD SVG 20010904//EN"
 "http://www.w3.org/TR/2001/REC-SVG-20010904/DTD/svg10.dtd">
<svg version="1.0" xmlns="http://www.w3.org/2000/svg"
 width="32.000000pt" height="32.000000pt" viewBox="0 0 32.000000 32.000000"
 preserveAspectRatio="xMidYMid meet">
<metadata>
Created by potrace 1.16, written by Peter Selinger 2001-2019
</metadata>
<g transform="translate(0.000000,32.000000) scale(0.100000,-0.100000)"
fill="#000000" stroke="none">
<path fill="#000000" stroke="none" d="M0 160 l0 -160 160 0 160 0 0 160 0
160 -160 0 -160 0 0 -160z"/>
<path fill="#ffffff" stroke="none" d="M168 293 l-137 -4 -4 -137 -3 -137 -2
143 -2 142 143 -2 142 -2 -137 -3z"/>
<path fill="#ffffff" stroke="none" d="M84 219 c-3 -5 -10 -7 -15 -3 -5 3 -7
10 -3 15 3 5 10 7 15 3 5 -3 7 -10 3 -15z"/>
<path fill="#ffffff" stroke="none" d="M236 207 c-7 -5 -2 -15 16 -30 22 -18
24 -24 13 -34 -16 -15 -29 -17 -21 -5 10 16 -31 6 -65 -15 -26 -17 -36 -19
-48 -10 -7 7 -32 19 -54 28 l-41 16 31 16 c17 9 33 23 37 32 4 12 11 13 23 7
10 -5 26 -8 36 -7 9 2 15 -1 11 -6 -3 -5 -2 -9 3 -10 4 0 15 -2 24 -4 9 -1 16
4 16 11 0 8 -4 14 -9 14 -5 0 -3 6 4 13 9 10 15 11 24 3 9 -8 9 -13 0 -19z"/>
<path fill="#ffffff" stroke="none" d="M194 79 c-3 -5 -10 -7 -15 -3 -5 3 -7
10 -3 15 3 5 10 7 15 3 5 -3 7 -10 3 -15z"/>
</g>
</svg>
