<?xml version="1.0" standalone="no"?>
<!DOCTYPE svg PUBLIC "-//W3C//DTD SVG 20010904//EN"
 "http://www.w3.org/TR/2001/REC-SVG-20010904/DTD/svg10.dtd">
<svg version="1.0" xmlns="http://www.w3.org/2000/svg"
 width="32.000000pt" height="32.000000pt" viewBox="0 0 32.000000 32.000000"
 preserveAspectRatio="xMidYMid meet">
<metadata>
Created by potrace 1.16, written by Peter Selinger 2001-2019
</metadata>
<g transform="translate(0.000000,32.000000) scale(0.100000,-0.100000)"
fill="#000000" stroke="none">
<path fill="#000000" stroke="none" d="M170 210 c6 -11 13 -20 16 -20 2 0 0 9
-6 20 -6 11 -13 20 -16 20 -2 0 0 -9 6 -20z"/>
<path fill="#000000" stroke="none" d="M90 189 c-7 -11 -10 -23 -7 -25 2 -2 9
7 15 21 14 30 7 33 -8 4z"/>
<path fill="#000000" stroke="none" d="M277 174 c3 -7 9 -14 14 -14 14 0 10
17 -5 23 -10 4 -13 1 -9 -9z"/>
<path fill="#000000" stroke="none" d="M113 96 c7 -14 13 -23 15 -21 7 6 -9
45 -18 45 -4 0 -3 -11 3 -24z"/>
</g>
</svg>
