<?xml version="1.0" standalone="no"?>
<!DOCTYPE svg PUBLIC "-//W3C//DTD SVG 20010904//EN"
 "http://www.w3.org/TR/2001/REC-SVG-20010904/DTD/svg10.dtd">
<svg version="1.0" xmlns="http://www.w3.org/2000/svg"
 width="32.000000pt" height="32.000000pt" viewBox="0 0 32.000000 32.000000"
 preserveAspectRatio="xMidYMid meet">
<metadata>
Created by potrace 1.16, written by Peter Selinger 2001-2019
</metadata>
<g transform="translate(0.000000,32.000000) scale(0.100000,-0.100000)"
fill="#000000" stroke="none">
<path fill="#000000" stroke="none" d="M0 160 l0 -160 160 0 160 0 0 160 0
160 -160 0 -160 0 0 -160z"/>
<path fill="#ffffff" stroke="none" d="M283 274 c22 -30 18 -45 -17 -63 -23
-13 -28 -12 -44 3 -24 21 -18 58 11 73 31 15 30 15 50 -13z"/>
<path fill="#ffffff" stroke="none" d="M178 221 c2 -6 -3 -14 -12 -17 -8 -3
-12 -12 -9 -21 5 -13 1 -15 -20 -11 -32 6 -32 6 -11 -34 15 -29 15 -33 -6 -74
-22 -45 -46 -55 -80 -34 -20 12 -22 50 -3 50 9 0 13 6 10 14 -3 8 -1 17 6 19
9 3 8 8 -2 20 -10 13 -11 17 -1 17 9 0 8 6 -4 19 -13 15 -14 20 -4 23 11 4 10
8 -1 21 -12 15 -11 17 3 17 18 0 22 25 6 35 -5 3 -10 10 -10 15 0 12 133 -45
138 -59z"/>
<path fill="#ffffff" stroke="none" d="M258 165 c12 -3 22 -11 22 -16 0 -14
-17 -11 -52 12 -31 19 -26 20 30 4z"/>
<path fill="#ffffff" stroke="none" d="M246 116 c10 -8 17 -17 14 -19 -3 -3
-16 3 -29 14 -27 22 -15 26 15 5z"/>
</g>
</svg>
