<?xml version="1.0" standalone="no"?>
<!DOCTYPE svg PUBLIC "-//W3C//DTD SVG 20010904//EN"
 "http://www.w3.org/TR/2001/REC-SVG-20010904/DTD/svg10.dtd">
<svg version="1.0" xmlns="http://www.w3.org/2000/svg"
 width="32.000000pt" height="32.000000pt" viewBox="0 0 32.000000 32.000000"
 preserveAspectRatio="xMidYMid meet">
<metadata>
Created by potrace 1.16, written by Peter Selinger 2001-2019
</metadata>
<g transform="translate(0.000000,32.000000) scale(0.100000,-0.100000)"
fill="#000000" stroke="none">
<path fill="#000000" stroke="none" d="M0 160 l0 -160 160 0 160 0 0 160 0
160 -160 0 -160 0 0 -160z"/>
<path fill="#ffffff" stroke="none" d="M180 210 c6 -11 8 -20 6 -20 -3 0 -10
9 -16 20 -6 11 -8 20 -6 20 3 0 10 -9 16 -20z"/>
<path fill="#ffffff" stroke="none" d="M119 201 c-22 -18 -23 -21 -10 -53 26
-65 26 -119 1 -103 -8 5 -7 12 2 23 10 12 10 16 1 19 -7 3 -13 11 -13 19 0 8
-7 25 -16 38 -10 16 -12 26 -4 31 6 3 8 11 5 16 -4 5 4 13 17 18 37 15 42 12
17 -8z"/>
<path fill="#ffffff" stroke="none" d="M284 184 c20 -8 21 -24 1 -24 -8 0 -15
4 -15 9 0 5 -8 12 -17 14 -16 4 -16 5 -1 6 9 0 23 -2 32 -5z"/>
<path fill="#ffffff" stroke="none" d="M275 129 c11 -17 -1 -21 -15 -4 -8 9
-8 15 -2 15 6 0 14 -5 17 -11z"/>
</g>
</svg>
