<?xml version="1.0" standalone="no"?>
<!DOCTYPE svg PUBLIC "-//W3C//DTD SVG 20010904//EN"
 "http://www.w3.org/TR/2001/REC-SVG-20010904/DTD/svg10.dtd">
<svg version="1.0" xmlns="http://www.w3.org/2000/svg"
 width="32.000000pt" height="32.000000pt" viewBox="0 0 32.000000 32.000000"
 preserveAspectRatio="xMidYMid meet">
<metadata>
Created by potrace 1.16, written by Peter Selinger 2001-2019
</metadata>
<g transform="translate(0.000000,32.000000) scale(0.100000,-0.100000)"
fill="#000000" stroke="none">
<path fill="#000000" stroke="none" d="M40 282 c0 -8 37 -42 45 -42 16 0 1 29
-20 38 -14 6 -25 8 -25 4z"/>
<path fill="#000000" stroke="none" d="M238 272 c-21 -4 -25 -47 -5 -55 15 -6
47 15 47 30 0 16 -23 30 -42 25z"/>
<path fill="#000000" stroke="none" d="M35 220 c3 -5 8 -10 11 -10 2 0 4 5 4
10 0 6 -5 10 -11 10 -5 0 -7 -4 -4 -10z"/>
<path fill="#000000" stroke="none" d="M35 180 c3 -5 8 -10 11 -10 2 0 4 5 4
10 0 6 -5 10 -11 10 -5 0 -7 -4 -4 -10z"/>
<path fill="#000000" stroke="none" d="M233 163 c9 -2 17 -9 17 -14 0 -5 7 -9
15 -9 8 0 15 4 15 9 0 11 -26 21 -48 20 -15 -1 -15 -2 1 -6z"/>
<path fill="#000000" stroke="none" d="M240 105 c7 -9 15 -13 17 -11 7 7 -7
26 -19 26 -6 0 -6 -6 2 -15z"/>
</g>
</svg>
