<?xml version="1.0" standalone="no"?>
<!DOCTYPE svg PUBLIC "-//W3C//DTD SVG 20010904//EN"
 "http://www.w3.org/TR/2001/REC-SVG-20010904/DTD/svg10.dtd">
<svg version="1.0" xmlns="http://www.w3.org/2000/svg"
 width="32.000000pt" height="32.000000pt" viewBox="0 0 32.000000 32.000000"
 preserveAspectRatio="xMidYMid meet">
<metadata>
Created by potrace 1.16, written by Peter Selinger 2001-2019
</metadata>
<g transform="translate(0.000000,32.000000) scale(0.100000,-0.100000)"
fill="#000000" stroke="none">
<path fill="#000000" stroke="none" d="M22 158 l2 -143 3 137 4 137 137 4 137
3 -142 2 -143 2 2 -142z"/>
<path fill="#000000" stroke="none" d="M102 248 c-15 -15 -15 -35 0 -44 7 -4
8 -3 4 4 -4 7 -1 12 8 12 10 0 13 6 10 15 -7 18 0 19 29 3 20 -10 21 -10 8 5
-16 20 -42 22 -59 5z"/>
<path fill="#000000" stroke="none" d="M221 181 c-16 -10 -8 -41 11 -40 10 0
10 2 1 6 -9 3 -10 10 -3 24 12 21 11 22 -9 10z"/>
<path fill="#000000" stroke="none" d="M100 109 c-10 -17 -9 -24 5 -38 16 -15
17 -15 6 7 -10 18 -9 23 3 28 8 3 20 2 27 -2 7 -4 10 -2 7 7 -8 23 -36 22 -48
-2z"/>
<path fill="#000000" stroke="none" d="M195 119 c-11 -17 1 -21 15 -4 8 9 8
15 2 15 -6 0 -14 -5 -17 -11z"/>
</g>
</svg>
