<?xml version="1.0" standalone="no"?>
<!DOCTYPE svg PUBLIC "-//W3C//DTD SVG 20010904//EN"
 "http://www.w3.org/TR/2001/REC-SVG-20010904/DTD/svg10.dtd">
<svg version="1.0" xmlns="http://www.w3.org/2000/svg"
 width="32.000000pt" height="32.000000pt" viewBox="0 0 32.000000 32.000000"
 preserveAspectRatio="xMidYMid meet">
<metadata>
Created by potrace 1.16, written by Peter Selinger 2001-2019
</metadata>
<g transform="translate(0.000000,32.000000) scale(0.100000,-0.100000)"
fill="#000000" stroke="none">
<path fill="#000000" stroke="none" d="M0 160 l0 -160 160 0 160 0 0 160 0
160 -160 0 -160 0 0 -160z"/>
<path fill="#ffffff" stroke="none" d="M300 160 l0 -140 -140 0 -140 0 0 140
0 140 140 0 140 0 0 -140z"/>
<path fill="#000000" stroke="none" d="M30 160 l0 -130 130 0 130 0 0 130 0
130 -130 0 -130 0 0 -130z"/>
<path fill="#ffffff" stroke="none" d="M240 245 c0 -14 -4 -25 -9 -25 -13 0
-21 -39 -9 -46 6 -4 14 0 19 7 10 17 23 5 16 -16 -7 -18 -38 -20 -55 -3 -15
15 -15 3 0 -21 9 -15 7 -24 -13 -49 -13 -17 -27 -31 -31 -31 -15 -2 -8 32 10
45 15 12 15 13 1 14 -9 0 -22 -7 -29 -15 -7 -8 -19 -15 -26 -15 -8 0 -19 -9
-26 -20 -16 -25 -28 -26 -28 -2 0 10 10 24 23 31 29 16 72 93 64 115 -7 17
-27 22 -27 6 0 -5 -4 -10 -10 -10 -16 0 -11 30 6 37 8 3 27 -1 41 -8 23 -13
27 -12 41 9 20 30 42 28 42 -3z"/>
</g>
</svg>
