<?xml version="1.0" standalone="no"?>
<!DOCTYPE svg PUBLIC "-//W3C//DTD SVG 20010904//EN"
 "http://www.w3.org/TR/2001/REC-SVG-20010904/DTD/svg10.dtd">
<svg version="1.0" xmlns="http://www.w3.org/2000/svg"
 width="32.000000pt" height="32.000000pt" viewBox="0 0 32.000000 32.000000"
 preserveAspectRatio="xMidYMid meet">
<metadata>
Created by potrace 1.16, written by Peter Selinger 2001-2019
</metadata>
<g transform="translate(0.000000,32.000000) scale(0.100000,-0.100000)"
fill="#000000" stroke="none">
<path fill="#000000" stroke="none" d="M239 293 c-1 -5 -1 -12 0 -17 1 -5 -4
-4 -13 3 -10 8 -16 9 -21 1 -3 -5 -4 -11 -1 -11 22 -5 33 -4 45 5 11 8 13 8 7
-1 -4 -8 -2 -13 5 -13 8 0 8 -4 1 -13 -9 -10 -6 -13 13 -13 27 0 34 13 11 22
-8 3 -16 14 -19 25 -5 18 -26 27 -28 12z"/>
<path fill="#000000" stroke="none" d="M286 292 c-3 -5 1 -9 9 -9 8 0 12 4 9
9 -3 4 -7 8 -9 8 -2 0 -6 -4 -9 -8z"/>
<path fill="#000000" stroke="none" d="M30 272 c0 -8 37 -42 45 -42 16 0 1 29
-20 38 -14 6 -25 8 -25 4z"/>
<path fill="#000000" stroke="none" d="M216 222 c-3 -5 1 -9 9 -9 8 0 12 4 9
9 -3 4 -7 8 -9 8 -2 0 -6 -4 -9 -8z"/>
<path fill="#000000" stroke="none" d="M276 222 c-3 -6 1 -15 8 -21 8 -7 17
-8 20 -3 3 6 -1 15 -8 21 -8 7 -17 8 -20 3z"/>
<path fill="#000000" stroke="none" d="M25 210 c3 -5 8 -10 11 -10 2 0 4 5 4
10 0 6 -5 10 -11 10 -5 0 -7 -4 -4 -10z"/>
<path fill="#000000" stroke="none" d="M147 188 c-4 -11 0 -19 12 -23 14 -4
18 -15 17 -46 -1 -47 20 -69 66 -69 45 0 64 62 33 107 -13 18 -20 21 -40 13
-28 -11 -70 1 -77 21 -3 9 -6 8 -11 -3z"/>
<path fill="#000000" stroke="none" d="M25 170 c3 -5 8 -10 11 -10 2 0 4 5 4
10 0 6 -5 10 -11 10 -5 0 -7 -4 -4 -10z"/>
</g>
</svg>
