<?xml version="1.0" standalone="no"?>
<!DOCTYPE svg PUBLIC "-//W3C//DTD SVG 20010904//EN"
 "http://www.w3.org/TR/2001/REC-SVG-20010904/DTD/svg10.dtd">
<svg version="1.0" xmlns="http://www.w3.org/2000/svg"
 width="32.000000pt" height="32.000000pt" viewBox="0 0 32.000000 32.000000"
 preserveAspectRatio="xMidYMid meet">
<metadata>
Created by potrace 1.16, written by Peter Selinger 2001-2019
</metadata>
<g transform="translate(0.000000,32.000000) scale(0.100000,-0.100000)"
fill="#000000" stroke="none">
<path fill="#000000" stroke="none" d="M204 283 c-2 -7 -6 -20 -9 -29 -3 -8
-1 -12 4 -9 5 3 12 1 15 -4 4 -5 2 -12 -3 -15 -15 -10 -6 -39 13 -42 13 -2 15
1 6 11 -8 9 -6 14 5 19 9 3 18 0 21 -8 9 -23 49 -14 50 11 1 24 -19 48 -34 39
-5 -3 -8 5 -8 17 1 17 -5 22 -28 22 -15 1 -30 -5 -32 -12z"/>
<path fill="#000000" stroke="none" d="M282 291 c2 -7 7 -12 11 -12 12 1 9 15
-3 20 -7 2 -11 -2 -8 -8z"/>
<path fill="#000000" stroke="none" d="M30 271 c0 -3 10 -15 21 -25 16 -13 27
-15 42 -9 17 8 15 11 -22 25 -22 9 -41 13 -41 9z"/>
<path fill="#000000" stroke="none" d="M100 219 c0 -5 5 -7 10 -4 6 3 10 8 10
11 0 2 -4 4 -10 4 -5 0 -10 -5 -10 -11z"/>
<path fill="#000000" stroke="none" d="M126 215 c-9 -24 -7 -32 3 -16 5 7 14
12 20 10 8 -3 7 -10 -4 -24 -14 -18 -16 -19 -28 -4 -10 14 -14 14 -25 3 -7 -8
-9 -14 -5 -14 4 0 0 -5 -10 -11 -17 -10 -17 -12 -2 -29 11 -12 13 -20 6 -25
-6 -3 -11 -11 -11 -16 0 -6 5 -7 11 -3 8 4 8 0 0 -15 -7 -11 -16 -21 -22 -21
-6 0 -8 3 -6 7 3 5 -6 9 -19 9 -13 1 -21 -2 -18 -7 3 -5 12 -9 20 -9 8 0 14
-6 14 -13 0 -7 10 -13 23 -14 17 -2 27 7 40 36 18 36 18 41 3 69 -23 44 -27
41 55 33 4 -1 6 -19 5 -42 -1 -47 20 -69 66 -69 45 0 64 62 33 107 -13 18 -20
21 -40 13 -36 -14 -76 3 -72 32 2 27 -27 37 -37 13z"/>
<path fill="#000000" stroke="none" d="M25 210 c3 -5 10 -10 16 -10 5 0 9 5 9
10 0 6 -7 10 -16 10 -8 0 -12 -4 -9 -10z"/>
<path fill="#000000" stroke="none" d="M65 189 c-11 -16 -1 -19 13 -3 7 8 8
14 3 14 -5 0 -13 -5 -16 -11z"/>
<path fill="#000000" stroke="none" d="M25 170 c3 -5 11 -10 16 -10 6 0 7 5 4
10 -3 6 -11 10 -16 10 -6 0 -7 -4 -4 -10z"/>
<path fill="#000000" stroke="none" d="M35 130 c3 -5 11 -10 16 -10 6 0 7 5 4
10 -3 6 -11 10 -16 10 -6 0 -7 -4 -4 -10z"/>
<path fill="#000000" stroke="none" d="M35 90 c3 -5 11 -10 16 -10 6 0 7 5 4
10 -3 6 -11 10 -16 10 -6 0 -7 -4 -4 -10z"/>
</g>
</svg>
