<?xml version="1.0" standalone="no"?>
<!DOCTYPE svg PUBLIC "-//W3C//DTD SVG 20010904//EN"
 "http://www.w3.org/TR/2001/REC-SVG-20010904/DTD/svg10.dtd">
<svg version="1.0" xmlns="http://www.w3.org/2000/svg"
 width="32.000000pt" height="32.000000pt" viewBox="0 0 32.000000 32.000000"
 preserveAspectRatio="xMidYMid meet">
<metadata>
Created by potrace 1.16, written by Peter Selinger 2001-2019
</metadata>
<g transform="translate(0.000000,32.000000) scale(0.100000,-0.100000)"
fill="#000000" stroke="none">
<path fill="#000000" stroke="none" d="M30 160 l0 -130 130 0 130 0 0 130 0
130 -130 0 -130 0 0 -130z"/>
<path fill="#ffffff" stroke="none" d="M230 186 c0 -36 -40 -96 -65 -96 -25 0
-65 60 -65 96 l0 34 65 0 65 0 0 -34z"/>
<path fill="#000000" stroke="none" d="M117 204 c-24 -24 17 -105 50 -100 25
4 54 47 51 75 -3 23 -8 26 -48 29 -25 2 -49 0 -53 -4z"/>
<path fill="#ffffff" stroke="none" d="M190 145 c-5 -6 -8 -14 -5 -16 2 -3 -6
-5 -20 -5 -13 0 -22 3 -19 7 2 4 -1 11 -6 14 -8 5 -6 13 6 26 16 18 18 18 36
3 12 -12 15 -21 8 -29z"/>
</g>
</svg>
