<?xml version="1.0" standalone="no"?>
<!DOCTYPE svg PUBLIC "-//W3C//DTD SVG 20010904//EN"
 "http://www.w3.org/TR/2001/REC-SVG-20010904/DTD/svg10.dtd">
<svg version="1.0" xmlns="http://www.w3.org/2000/svg"
 width="32.000000pt" height="32.000000pt" viewBox="0 0 32.000000 32.000000"
 preserveAspectRatio="xMidYMid meet">
<metadata>
Created by potrace 1.16, written by Peter Selinger 2001-2019
</metadata>
<g transform="translate(0.000000,32.000000) scale(0.100000,-0.100000)"
fill="#000000" stroke="none">
<path fill="#000000" stroke="none" d="M0 160 l0 -160 160 0 160 0 0 160 0
160 -160 0 -160 0 0 -160z"/>
<path fill="#ffffff" stroke="none" d="M292 278 c-7 -26 -27 -50 -35 -41 -4 3
-12 -6 -18 -21 -8 -16 -18 -25 -26 -22 -10 4 -12 -2 -9 -19 3 -14 0 -25 -5
-25 -6 0 -7 -4 -4 -10 4 -6 -8 -10 -29 -10 -20 0 -36 -5 -36 -11 0 -6 -6 -9
-14 -6 -14 6 -41 -21 -58 -58 -6 -13 -17 -26 -24 -29 -11 -4 -14 20 -14 134
l0 140 139 0 139 0 -6 -22z"/>
<path fill="#000000" stroke="none" d="M30 174 l0 -117 20 26 c11 14 20 30 20
36 0 7 7 14 15 17 8 4 12 11 8 18 -3 6 3 3 14 -7 14 -12 23 -15 28 -8 3 6 2
11 -4 11 -5 0 -8 8 -6 18 2 9 4 20 4 25 1 4 15 7 31 7 17 0 30 5 30 11 0 5 5
7 11 4 6 -4 13 2 16 14 3 12 13 21 23 21 15 0 30 18 30 36 0 2 -54 4 -120 4
l-120 0 0 -116z"/>
</g>
</svg>
