<?xml version="1.0" standalone="no"?>
<!DOCTYPE svg PUBLIC "-//W3C//DTD SVG 20010904//EN"
 "http://www.w3.org/TR/2001/REC-SVG-20010904/DTD/svg10.dtd">
<svg version="1.0" xmlns="http://www.w3.org/2000/svg"
 width="32.000000pt" height="32.000000pt" viewBox="0 0 32.000000 32.000000"
 preserveAspectRatio="xMidYMid meet">
<metadata>
Created by potrace 1.16, written by Peter Selinger 2001-2019
</metadata>
<g transform="translate(0.000000,32.000000) scale(0.100000,-0.100000)"
fill="#000000" stroke="none">
<path fill="#000000" stroke="none" d="M0 160 l0 -160 160 0 160 0 0 160 0
160 -160 0 -160 0 0 -160z"/>
<path fill="#ffffff" stroke="none" d="M159 299 c38 -13 39 -23 6 -45 -14 -9
-25 -24 -25 -33 1 -13 4 -11 19 7 20 23 55 30 66 12 3 -5 -1 -10 -10 -10 -10
0 -30 -11 -47 -25 -16 -14 -24 -25 -18 -25 6 0 8 -4 5 -10 -3 -5 -1 -10 5 -10
6 0 8 -5 4 -12 -6 -9 -3 -9 9 1 12 9 14 18 7 31 -7 13 -6 21 4 29 10 8 23 1
57 -30 32 -30 38 -40 22 -35 -12 4 -31 2 -43 -4 -13 -7 -20 -7 -20 0 0 24 -18
7 -24 -22 -6 -29 -7 -30 -19 -13 -13 17 -14 17 -20 1 -4 -10 -2 -26 4 -37 5
-11 8 -28 6 -37 -4 -13 -5 -12 -6 4 0 12 -10 33 -22 47 -17 23 -18 30 -7 49
18 34 17 41 -15 64 -21 17 -24 23 -13 27 8 3 17 1 20 -6 2 -7 5 -5 5 5 1 9 -8
20 -19 23 -27 9 -25 19 8 44 15 11 27 21 28 21 1 0 15 -5 33 -11z"/>
<path fill="#ffffff" stroke="none" d="M103 139 c-7 -17 -9 -37 -7 -44 3 -8 1
-22 -5 -32 -9 -16 -10 -16 -11 5 0 32 -19 27 -35 -11 l-14 -32 -1 33 c0 17 5
32 10 32 6 0 10 5 10 11 0 19 -28 -10 -33 -34 -3 -16 -5 -14 -6 9 -1 22 8 39
34 64 19 19 35 41 35 49 0 13 3 13 17 -2 15 -14 16 -22 6 -48z"/>
<path fill="#ffffff" stroke="none" d="M171 68 c1 -7 1 -16 0 -20 0 -5 3 -8 9
-8 6 0 10 -7 10 -15 0 -8 -4 -15 -10 -15 -5 0 -10 1 -10 3 0 1 -4 17 -9 35 -6
20 -6 32 0 32 5 0 10 -6 10 -12z"/>
</g>
</svg>
