<?xml version="1.0" standalone="no"?>
<!DOCTYPE svg PUBLIC "-//W3C//DTD SVG 20010904//EN"
 "http://www.w3.org/TR/2001/REC-SVG-20010904/DTD/svg10.dtd">
<svg version="1.0" xmlns="http://www.w3.org/2000/svg"
 width="32.000000pt" height="32.000000pt" viewBox="0 0 32.000000 32.000000"
 preserveAspectRatio="xMidYMid meet">
<metadata>
Created by potrace 1.16, written by Peter Selinger 2001-2019
</metadata>
<g transform="translate(0.000000,32.000000) scale(0.100000,-0.100000)"
fill="#000000" stroke="none">
<path fill="#000000" stroke="none" d="M22 158 l2 -143 3 137 4 137 137 4 137
3 -142 2 -143 2 2 -142z"/>
<path fill="#000000" stroke="none" d="M111 234 c0 -11 3 -14 6 -6 3 7 2 16
-1 19 -3 4 -6 -2 -5 -13z"/>
<path fill="#000000" stroke="none" d="M142 234 c1 -9 9 -19 16 -22 9 -3 13 2
10 14 -1 9 -9 19 -16 22 -9 3 -13 -2 -10 -14z"/>
<path fill="#000000" stroke="none" d="M210 93 c0 -6 7 -16 16 -23 12 -11 18
-10 32 5 16 18 16 18 -2 5 -16 -13 -20 -12 -32 5 -8 10 -14 14 -14 8z"/>
<path fill="#000000" stroke="none" d="M69 71 c23 -21 42 -20 40 2 0 8 -2 8
-6 -1 -4 -10 -11 -10 -31 3 l-27 16 24 -20z"/>
<path fill="#000000" stroke="none" d="M170 66 c0 -2 7 -6 15 -10 8 -3 15 -1
15 4 0 6 -7 10 -15 10 -8 0 -15 -2 -15 -4z"/>
</g>
</svg>
