<?xml version="1.0" standalone="no"?>
<!DOCTYPE svg PUBLIC "-//W3C//DTD SVG 20010904//EN"
 "http://www.w3.org/TR/2001/REC-SVG-20010904/DTD/svg10.dtd">
<svg version="1.0" xmlns="http://www.w3.org/2000/svg"
 width="32.000000pt" height="32.000000pt" viewBox="0 0 32.000000 32.000000"
 preserveAspectRatio="xMidYMid meet">
<metadata>
Created by potrace 1.16, written by Peter Selinger 2001-2019
</metadata>
<g transform="translate(0.000000,32.000000) scale(0.100000,-0.100000)"
fill="#000000" stroke="none">
<path fill="#000000" stroke="none" d="M95 205 c-14 -13 -25 -33 -25 -45 0
-27 43 -70 70 -70 27 0 70 43 70 70 0 27 -43 70 -70 70 -11 0 -32 -11 -45 -25z"/>
<path fill="#ffffff" stroke="none" d="M120 150 c0 -5 -4 -10 -10 -10 -5 0
-10 5 -10 10 0 6 5 10 10 10 6 0 10 -4 10 -10z"/>
<path fill="#000000" stroke="none" d="M205 115 c-14 -13 -25 -31 -25 -40 0
-21 44 -65 65 -65 21 0 65 44 65 65 0 21 -44 65 -65 65 -9 0 -27 -11 -40 -25z"/>
<path fill="#ffffff" stroke="none" d="M269 113 c6 -10 11 -13 11 -8 0 13 20
-16 20 -30 0 -7 -23 -11 -55 -11 -32 0 -55 4 -55 11 0 14 20 43 20 30 0 -5 5
-2 11 8 13 22 35 22 48 0z"/>
<path fill="#ffffff" stroke="none" d="M275 34 c-14 -10 -21 -11 -26 -3 -5 8
-8 8 -10 0 -3 -8 -10 -8 -23 2 -17 13 -15 14 29 14 43 0 46 -1 30 -13z"/>
<path fill="#000000" stroke="none" d="M236 98 c3 -4 0 -8 -5 -8 -6 0 -11 -5
-11 -11 0 -8 4 -8 13 0 10 8 17 7 25 -1 9 -9 12 -9 12 0 0 7 -5 12 -11 12 -5
0 -8 4 -5 8 3 5 -1 9 -9 9 -8 0 -12 -4 -9 -9z"/>
</g>
</svg>
