<?xml version="1.0" standalone="no"?>
<!DOCTYPE svg PUBLIC "-//W3C//DTD SVG 20010904//EN"
 "http://www.w3.org/TR/2001/REC-SVG-20010904/DTD/svg10.dtd">
<svg version="1.0" xmlns="http://www.w3.org/2000/svg"
 width="32.000000pt" height="32.000000pt" viewBox="0 0 32.000000 32.000000"
 preserveAspectRatio="xMidYMid meet">
<metadata>
Created by potrace 1.16, written by Peter Selinger 2001-2019
</metadata>
<g transform="translate(0.000000,32.000000) scale(0.100000,-0.100000)"
fill="#000000" stroke="none">
<path fill="#000000" stroke="none" d="M0 160 l0 -160 160 0 160 0 0 160 0
160 -160 0 -160 0 0 -160z"/>
<path fill="#ffffff" stroke="none" d="M168 293 l-138 -4 0 -128 c0 -94 3
-131 13 -134 7 -3 5 -6 -5 -6 -16 -1 -18 12 -18 139 l0 140 143 -2 142 -2
-137 -3z"/>
<path fill="#ffffff" stroke="none" d="M117 228 c-3 -8 -6 -5 -6 6 -1 11 2 17
5 13 3 -3 4 -12 1 -19z"/>
<path fill="#ffffff" stroke="none" d="M168 226 c3 -12 -1 -17 -10 -14 -7 3
-15 13 -16 22 -3 12 1 17 10 14 7 -3 15 -13 16 -22z"/>
<path fill="#ffffff" stroke="none" d="M240 120 c0 -13 -1 -13 -10 0 -5 8 -10
22 -10 30 0 13 1 13 10 0 5 -8 10 -22 10 -30z"/>
<path fill="#ffffff" stroke="none" d="M240 70 c5 0 14 8 19 18 9 15 10 15 11
1 0 -9 -13 -22 -29 -29 -67 -28 -192 -9 -190 29 0 10 2 12 6 3 2 -7 13 -17 24
-23 18 -9 19 -7 13 17 -5 19 -4 25 5 20 6 -4 11 -16 11 -27 0 -15 7 -19 32
-19 25 0 29 3 20 12 -16 16 -15 29 2 22 8 -3 20 1 27 9 12 13 16 12 27 -9 7
-13 17 -24 22 -24z"/>
<path fill="#ffffff" stroke="none" d="M140 84 c0 -8 -4 -12 -10 -9 -5 3 -10
10 -10 16 0 5 5 9 10 9 6 0 10 -7 10 -16z"/>
<path fill="#000000" stroke="none" d="M190 80 c0 -12 28 -25 36 -17 3 3 -4
10 -15 17 -15 7 -21 7 -21 0z"/>
</g>
</svg>
