<?xml version="1.0" standalone="no"?>
<!DOCTYPE svg PUBLIC "-//W3C//DTD SVG 20010904//EN"
 "http://www.w3.org/TR/2001/REC-SVG-20010904/DTD/svg10.dtd">
<svg version="1.0" xmlns="http://www.w3.org/2000/svg"
 width="32.000000pt" height="32.000000pt" viewBox="0 0 32.000000 32.000000"
 preserveAspectRatio="xMidYMid meet">
<metadata>
Created by potrace 1.16, written by Peter Selinger 2001-2019
</metadata>
<g transform="translate(0.000000,32.000000) scale(0.100000,-0.100000)"
fill="#000000" stroke="none">
<path fill="#000000" stroke="none" d="M0 278 c0 -23 1 -39 3 -37 2 2 13 21
25 42 l21 37 -24 0 c-23 0 -25 -4 -25 -42z"/>
<path fill="#000000" stroke="none" d="M80 300 c6 -11 16 -20 23 -21 7 0 -3
-7 -20 -15 -37 -16 -38 -17 -21 -44 10 -16 9 -23 -10 -43 -23 -25 -28 -42 -13
-51 5 -3 8 2 7 12 0 9 4 16 11 15 7 -2 10 3 7 11 -7 17 12 31 21 16 8 -14 -14
-42 -27 -34 -5 3 -9 0 -7 -7 1 -8 1 -27 0 -44 -1 -36 -15 -25 -35 30 l-15 40
0 -82 -1 -83 160 0 160 0 -1 83 c0 61 -3 76 -10 59 -10 -26 -29 -21 -29 8 0
10 -5 31 -12 47 -6 15 -10 34 -9 41 1 6 -11 17 -26 23 -16 7 -23 13 -15 16 7
3 17 13 22 24 10 18 6 19 -80 19 -88 0 -90 -1 -80 -20z"/>
<path fill="#ffffff" stroke="none" d="M183 287 c16 -11 16 -14 1 -35 -19 -27
-57 -26 -62 1 -4 20 14 47 32 47 7 0 20 -6 29 -13z"/>
<path fill="#ffffff" stroke="none" d="M108 243 c-4 -20 -39 -25 -45 -6 -4 10
11 18 40 22 5 0 7 -7 5 -16z"/>
<path fill="#ffffff" stroke="none" d="M249 244 c6 -5 -10 -24 -22 -24 -21 0
-40 17 -32 29 6 10 41 7 54 -5z"/>
<path fill="#ffffff" stroke="none" d="M174 218 c-3 -4 4 -12 13 -17 16 -10
16 -12 3 -23 -11 -9 -15 -31 -14 -75 0 -35 -2 -63 -5 -63 -23 1 -35 24 -37 72
-1 29 -4 60 -7 68 -11 31 -4 45 24 45 15 0 25 -3 23 -7z"/>
<path fill="#ffffff" stroke="none" d="M106 183 c-7 -7 -26 7 -26 19 0 6 6 6
15 -2 9 -7 13 -15 11 -17z"/>
<path fill="#ffffff" stroke="none" d="M259 180 c8 -25 7 -30 -5 -30 -19 0
-36 42 -20 52 6 4 12 8 13 8 0 0 6 -13 12 -30z"/>
<path fill="#ffffff" stroke="none" d="M126 158 c4 -6 3 -8 -4 -4 -6 3 -13 2
-17 -4 -3 -5 -1 -10 5 -10 6 0 8 -4 5 -10 -9 -14 -24 -12 -21 3 2 14 15 37 21
37 2 0 7 -5 11 -12z"/>
<path fill="#ffffff" stroke="none" d="M230 149 c0 -6 -4 -7 -10 -4 -5 3 -10
11 -10 16 0 6 5 7 10 4 6 -3 10 -11 10 -16z"/>
<path fill="#ffffff" stroke="none" d="M106 95 c-18 -14 -15 -20 7 -16 5 1 6
-3 2 -9 -4 -6 -12 -6 -24 2 -14 9 -16 14 -7 24 6 7 18 13 26 13 11 0 10 -3 -4
-14z"/>
<path fill="#000000" stroke="none" d="M292 283 c12 -21 23 -40 25 -42 2 -2 3
14 3 37 0 38 -2 42 -25 42 l-24 0 21 -37z"/>
</g>
</svg>
