<?xml version="1.0" standalone="no"?>
<!DOCTYPE svg PUBLIC "-//W3C//DTD SVG 20010904//EN"
 "http://www.w3.org/TR/2001/REC-SVG-20010904/DTD/svg10.dtd">
<svg version="1.0" xmlns="http://www.w3.org/2000/svg"
 width="32.000000pt" height="32.000000pt" viewBox="0 0 32.000000 32.000000"
 preserveAspectRatio="xMidYMid meet">
<metadata>
Created by potrace 1.16, written by Peter Selinger 2001-2019
</metadata>
<g transform="translate(0.000000,32.000000) scale(0.100000,-0.100000)"
fill="#000000" stroke="none">
<path fill="#000000" stroke="none" d="M96 287 c-30 -24 -29 -46 2 -48 12 0 9
-3 -7 -10 l-24 -10 33 -24 c19 -14 30 -25 25 -25 -5 0 -17 7 -27 17 -15 13
-18 14 -18 2 0 -9 -16 -30 -35 -49 -26 -25 -35 -42 -34 -64 1 -30 1 -30 9 -6
7 23 8 22 9 -10 l2 -35 12 29 c12 27 14 28 29 13 15 -15 17 -15 22 0 4 9 4 23
1 32 -3 10 2 26 11 37 14 18 15 18 4 -4 -9 -18 -7 -27 9 -49 12 -14 21 -35 22
-47 1 -18 2 -18 8 4 l7 25 7 -27 c4 -16 12 -28 17 -28 13 0 13 16 -1 42 -8 15
-8 27 2 47 7 14 12 33 11 41 -1 10 1 11 4 3 4 -10 11 -10 25 -2 11 5 30 7 42
3 17 -5 14 2 -15 29 -37 34 -48 57 -27 57 5 0 7 5 4 10 -9 15 -51 12 -65 -5
-7 -9 -15 -13 -18 -10 -3 2 7 14 21 26 15 11 27 24 27 29 0 6 -53 31 -64 30
-1 0 -14 -11 -30 -23z"/>
<path fill="#ffffff" stroke="none" d="M147 78 c-3 -8 -6 -5 -6 6 -1 11 2 17
5 13 3 -3 4 -12 1 -19z"/>
<path fill="#000000" stroke="none" d="M206 116 c-32 -31 -33 -50 -1 -81 31
-32 50 -31 81 1 19 18 24 31 19 47 -3 12 -7 27 -7 33 -1 6 -6 11 -12 12 -6 0
-21 4 -33 7 -16 5 -29 0 -47 -19z"/>
<path fill="#ffffff" stroke="none" d="M253 113 c-5 -12 -3 -14 8 -8 11 6 12
5 2 -5 -8 -9 -9 -18 -3 -25 6 -8 2 -11 -15 -11 -16 0 -22 3 -15 10 6 6 5 15
-3 25 -10 12 -9 13 2 6 11 -6 13 -4 8 8 -4 11 -1 17 8 17 9 0 12 -6 8 -17z"/>
<path fill="#ffffff" stroke="none" d="M208 73 c-15 -18 -21 -9 -13 18 6 16 9
18 16 8 4 -8 3 -19 -3 -26z"/>
<path fill="#ffffff" stroke="none" d="M300 71 c0 -11 -3 -11 -14 -1 -8 6 -12
18 -9 27 5 12 7 12 14 1 5 -7 9 -19 9 -27z"/>
<path fill="#ffffff" stroke="none" d="M234 35 c4 -13 2 -14 -14 -5 -23 13
-26 20 -6 20 8 0 16 -7 20 -15z"/>
<path fill="#ffffff" stroke="none" d="M290 45 c0 -2 -9 -9 -20 -15 -16 -9
-18 -8 -14 5 5 13 34 22 34 10z"/>
</g>
</svg>
