<?xml version="1.0" standalone="no"?>
<!DOCTYPE svg PUBLIC "-//W3C//DTD SVG 20010904//EN"
 "http://www.w3.org/TR/2001/REC-SVG-20010904/DTD/svg10.dtd">
<svg version="1.0" xmlns="http://www.w3.org/2000/svg"
 width="32.000000pt" height="32.000000pt" viewBox="0 0 32.000000 32.000000"
 preserveAspectRatio="xMidYMid meet">
<metadata>
Created by potrace 1.16, written by Peter Selinger 2001-2019
</metadata>
<g transform="translate(0.000000,32.000000) scale(0.100000,-0.100000)"
fill="#000000" stroke="none">
<path fill="#000000" stroke="none" d="M0 160 l0 -160 160 0 160 0 0 160 0
160 -160 0 -160 0 0 -160z"/>
<path fill="#ffffff" stroke="none" d="M298 294 c-3 -3 -65 -5 -137 -5 l-130
1 -4 -138 -3 -137 -2 143 -2 142 142 0 c78 0 139 -2 136 -6z"/>
<path fill="#ffffff" stroke="none" d="M130 225 c0 -5 -13 -10 -30 -10 -30 0
-36 5 -23 19 10 10 54 3 53 -9z"/>
<path fill="#ffffff" stroke="none" d="M290 231 c0 -5 -9 -11 -20 -14 -20 -5
-26 3 -13 16 9 10 33 8 33 -2z"/>
<path fill="#ffffff" stroke="none" d="M130 185 c-7 -8 -17 -15 -23 -15 -6 0
-2 7 9 15 25 19 30 19 14 0z"/>
</g>
</svg>
