<?xml version="1.0" standalone="no"?>
<!DOCTYPE svg PUBLIC "-//W3C//DTD SVG 20010904//EN"
 "http://www.w3.org/TR/2001/REC-SVG-20010904/DTD/svg10.dtd">
<svg version="1.0" xmlns="http://www.w3.org/2000/svg"
 width="32.000000pt" height="32.000000pt" viewBox="0 0 32.000000 32.000000"
 preserveAspectRatio="xMidYMid meet">
<metadata>
Created by potrace 1.16, written by Peter Selinger 2001-2019
</metadata>
<g transform="translate(0.000000,32.000000) scale(0.100000,-0.100000)"
fill="#000000" stroke="none">
<path fill="#000000" stroke="none" d="M0 159 l0 -159 160 0 160 0 0 160 0
161 -160 -2 -160 -1 0 -159z"/>
<path fill="#ffffff" stroke="none" d="M62 293 c10 -9 22 -12 30 -7 9 5 8 2
-2 -11 -29 -35 -49 -89 -37 -97 9 -6 9 -8 0 -8 -7 0 -13 -10 -13 -21 0 -18 2
-19 15 -9 21 18 19 3 -5 -27 l-19 -25 -5 24 c-9 40 -9 52 -2 73 4 11 12 31 17
45 8 22 8 23 -4 8 -8 -10 -18 -18 -22 -18 -5 0 0 9 10 20 9 10 22 18 27 17 6
-1 12 3 15 10 6 17 -38 28 -48 12 -6 -10 -8 -8 -7 7 2 24 26 27 50 7z"/>
<path fill="#ffffff" stroke="none" d="M157 288 c-3 -8 -6 -5 -6 6 -1 11 2 17
5 13 3 -3 4 -12 1 -19z"/>
<path fill="#ffffff" stroke="none" d="M245 280 c3 -4 -3 -14 -12 -21 -15 -12
-16 -12 -10 4 5 13 0 20 -18 27 -14 5 -25 12 -25 14 0 7 59 -15 65 -24z"/>
<path fill="#ffffff" stroke="none" d="M150 254 c0 -2 -6 -1 -14 2 -8 3 -19
-4 -26 -16 -6 -12 -14 -19 -17 -17 -2 3 1 16 8 29 7 12 12 30 10 38 -2 9 6 5
18 -9 12 -13 21 -25 21 -27z"/>
<path fill="#ffffff" stroke="none" d="M170 253 c-11 -17 -11 -17 -6 0 3 10 6
24 7 30 0 9 2 9 5 0 3 -7 0 -20 -6 -30z"/>
<path fill="#ffffff" stroke="none" d="M203 265 c-3 -9 -8 -14 -10 -11 -3 3
-2 9 2 15 9 16 15 13 8 -4z"/>
<path fill="#ffffff" stroke="none" d="M290 226 c0 -8 -4 -17 -8 -20 -4 -2 -8
4 -8 15 0 10 4 19 8 19 4 0 8 -6 8 -14z"/>
<path fill="#ffffff" stroke="none" d="M181 213 c13 -16 12 -17 -3 -5 -9 8
-22 11 -28 7 -5 -3 -10 -1 -10 4 0 17 26 13 41 -6z"/>
<path fill="#ffffff" stroke="none" d="M135 150 l20 -25 -22 19 c-13 11 -23
24 -23 29 0 6 1 8 3 6 1 -2 11 -15 22 -29z"/>
<path fill="#ffffff" stroke="none" d="M309 164 c2 -2 -1 -14 -7 -26 l-11 -23
-7 23 c-3 12 -12 22 -20 22 -7 0 -16 4 -19 10 -5 9 53 3 64 -6z"/>
<path fill="#ffffff" stroke="none" d="M91 127 c-9 -12 -7 -18 11 -29 36 -23
56 -28 62 -15 4 7 4 -3 1 -21 -3 -23 -1 -31 7 -26 7 4 8 3 4 -4 -11 -18 -23
-14 -31 11 -6 22 -7 21 -17 -5 -12 -34 -20 -35 -55 -2 l-28 25 28 -17 c20 -12
31 -14 39 -6 14 14 2 46 -13 36 -7 -4 -9 -3 -6 3 4 6 0 16 -8 23 -11 9 -12 17
-4 32 6 11 13 17 16 14 3 -3 1 -12 -6 -19z"/>
<path fill="#ffffff" stroke="none" d="M190 125 c-7 -8 -17 -15 -23 -15 -6 0
-2 7 9 15 25 19 30 19 14 0z"/>
</g>
</svg>
