<?xml version="1.0" standalone="no"?>
<!DOCTYPE svg PUBLIC "-//W3C//DTD SVG 20010904//EN"
 "http://www.w3.org/TR/2001/REC-SVG-20010904/DTD/svg10.dtd">
<svg version="1.0" xmlns="http://www.w3.org/2000/svg"
 width="32.000000pt" height="32.000000pt" viewBox="0 0 32.000000 32.000000"
 preserveAspectRatio="xMidYMid meet">
<metadata>
Created by potrace 1.16, written by Peter Selinger 2001-2019
</metadata>
<g transform="translate(0.000000,32.000000) scale(0.100000,-0.100000)"
fill="#000000" stroke="none">
<path fill="#000000" stroke="none" d="M0 160 l0 -160 160 0 160 0 0 160 0
160 -160 0 -160 0 0 -160z"/>
<path fill="#ffffff" stroke="none" d="M168 293 l-138 -4 0 -34 c0 -27 4 -34
23 -38 l22 -4 -22 -8 c-20 -7 -23 -15 -26 -99 -2 -69 -3 -57 -5 52 l-2 142
143 -2 142 -2 -137 -3z"/>
<path fill="#ffffff" stroke="none" d="M173 273 c-23 -9 -15 -43 9 -43 43 0 9
-11 -41 -13 -32 -2 -51 2 -51 8 0 7 12 10 31 7 30 -4 31 -3 25 22 -5 22 -3 26
16 25 13 0 17 -3 11 -6z"/>
<path fill="#ffffff" stroke="none" d="M290 210 c0 -5 -6 -10 -14 -10 -8 0
-18 5 -21 10 -3 6 3 10 14 10 12 0 21 -4 21 -10z"/>
<path fill="#ffffff" stroke="none" d="M161 148 c0 -41 3 -48 10 -33 9 20 9
20 6 0 -1 -11 -10 -21 -20 -23 -14 -3 -17 5 -17 52 0 31 5 56 10 56 6 0 10
-24 11 -52z"/>
</g>
</svg>
