<?xml version="1.0" standalone="no"?>
<!DOCTYPE svg PUBLIC "-//W3C//DTD SVG 20010904//EN"
 "http://www.w3.org/TR/2001/REC-SVG-20010904/DTD/svg10.dtd">
<svg version="1.0" xmlns="http://www.w3.org/2000/svg"
 width="32.000000pt" height="32.000000pt" viewBox="0 0 32.000000 32.000000"
 preserveAspectRatio="xMidYMid meet">
<metadata>
Created by potrace 1.16, written by Peter Selinger 2001-2019
</metadata>
<g transform="translate(0.000000,32.000000) scale(0.100000,-0.100000)"
fill="#000000" stroke="none">
<path fill="#000000" stroke="none" d="M142 303 c-6 -2 -9 -10 -6 -15 4 -6 3
-8 -3 -5 -6 4 -19 0 -29 -8 -26 -19 -7 -50 31 -50 21 0 33 8 45 30 24 41 5 65
-38 48z"/>
<path fill="#000000" stroke="none" d="M207 266 c-5 -14 10 -36 25 -36 13 0 9
27 -6 39 -10 9 -15 8 -19 -3z"/>
<path fill="#000000" stroke="none" d="M66 232 c-3 -6 -1 -14 5 -17 15 -10 25
3 12 16 -7 7 -13 7 -17 1z"/>
<path fill="#000000" stroke="none" d="M165 220 c-4 -6 -1 -17 5 -26 15 -18
42 0 33 22 -6 16 -29 19 -38 4z"/>
<path fill="#000000" stroke="none" d="M247 183 c-4 -3 -7 -11 -7 -17 0 -6 5
-5 12 2 6 6 9 14 7 17 -3 3 -9 2 -12 -2z"/>
<path fill="#000000" stroke="none" d="M126 138 c-11 -34 -13 -58 -7 -58 13 0
31 24 31 41 0 22 -19 35 -24 17z"/>
<path fill="#000000" stroke="none" d="M166 45 c8 -34 12 -41 20 -33 3 4 -2
19 -10 35 l-16 28 6 -30z"/>
<path fill="#000000" stroke="none" d="M74 28 c-19 -21 -19 -21 6 -8 33 17 33
17 22 24 -5 3 -18 -4 -28 -16z"/>
</g>
</svg>
