<?xml version="1.0" standalone="no"?>
<!DOCTYPE svg PUBLIC "-//W3C//DTD SVG 20010904//EN"
 "http://www.w3.org/TR/2001/REC-SVG-20010904/DTD/svg10.dtd">
<svg version="1.0" xmlns="http://www.w3.org/2000/svg"
 width="32.000000pt" height="32.000000pt" viewBox="0 0 32.000000 32.000000"
 preserveAspectRatio="xMidYMid meet">
<metadata>
Created by potrace 1.16, written by Peter Selinger 2001-2019
</metadata>
<g transform="translate(0.000000,32.000000) scale(0.100000,-0.100000)"
fill="#000000" stroke="none">
<path fill="#000000" stroke="none" d="M0 278 c0 -23 1 -39 3 -37 2 2 13 21
25 42 l21 37 -24 0 c-23 0 -25 -4 -25 -42z"/>
<path fill="#000000" stroke="none" d="M80 300 c6 -11 14 -20 19 -20 4 0 8 -6
9 -12 0 -7 3 -23 6 -36 4 -20 2 -22 -17 -16 -12 3 -28 12 -36 18 -12 9 -12 8
-1 -10 7 -12 20 -21 29 -20 8 0 17 -7 19 -18 3 -13 0 -16 -9 -11 -7 5 -10 4
-6 -2 9 -15 -19 -36 -35 -27 -10 6 -9 3 1 -9 9 -12 10 -17 2 -17 -6 0 -16 10
-21 23 -6 16 -9 17 -9 5 -1 -9 3 -20 9 -23 6 -3 10 -18 10 -33 0 -34 -15 -19
-34 33 l-15 40 0 -82 -1 -83 160 0 160 0 -1 83 c0 65 -2 77 -10 57 -9 -21 -12
-23 -22 -10 -7 8 -19 16 -27 18 -31 7 -50 56 -25 66 9 3 18 0 20 -9 3 -8 7
-22 10 -31 3 -9 8 -15 11 -12 2 3 -1 18 -7 34 -7 16 -11 34 -10 41 1 6 -3 14
-9 18 -6 3 -7 0 -4 -9 4 -11 -3 -19 -21 -26 -14 -5 -30 -10 -35 -10 -14 0 -5
32 13 45 9 7 14 15 10 18 -3 4 -1 7 5 7 6 0 16 9 22 20 10 19 8 20 -80 20 -88
0 -90 -1 -80 -20z"/>
<path fill="#ffffff" stroke="none" d="M183 287 c16 -11 16 -14 1 -35 -19 -27
-57 -26 -62 1 -4 20 14 47 32 47 7 0 20 -6 29 -13z"/>
<path fill="#ffffff" stroke="none" d="M174 218 c-3 -4 3 -11 13 -16 14 -8 15
-13 5 -25 -10 -12 -10 -16 3 -21 8 -3 15 0 15 7 1 7 6 5 14 -5 7 -10 19 -18
25 -18 17 0 61 -46 61 -65 0 -21 -44 -65 -65 -65 -21 0 -65 44 -65 65 0 9 11
27 24 40 13 13 21 26 18 29 -3 3 -11 -2 -19 -12 -14 -16 -14 -16 -9 1 3 9 1
17 -4 17 -10 0 -15 -39 -12 -87 1 -25 0 -26 -22 -17 -10 4 -18 24 -22 55 -7
50 -17 68 -29 49 -3 -5 -2 -10 2 -10 5 0 10 -11 11 -25 1 -16 -3 -25 -13 -25
-8 0 -15 5 -15 10 0 6 6 10 13 10 9 0 9 2 -1 9 -8 4 -13 12 -12 17 3 16 22 34
30 29 4 -3 7 10 5 28 -3 29 -1 32 25 32 15 0 26 -3 24 -7z"/>
<path fill="#ffffff" stroke="none" d="M116 80 c8 0 14 -4 14 -10 0 -16 -36
-11 -51 7 -12 15 -12 16 4 10 10 -4 25 -7 33 -7z"/>
<path fill="#000000" stroke="none" d="M221 113 c-6 -10 -11 -13 -11 -8 0 13
-20 -16 -20 -30 0 -7 23 -11 55 -11 32 0 55 4 55 11 0 14 -20 43 -20 30 0 -5
-5 -2 -11 8 -13 22 -35 22 -48 0z"/>
<path fill="#ffffff" stroke="none" d="M254 98 c-3 -4 0 -8 5 -8 6 0 11 -5 11
-12 0 -9 -3 -9 -12 0 -8 8 -15 9 -25 1 -9 -8 -13 -8 -13 0 0 6 5 11 11 11 5 0
8 4 5 8 -3 5 1 9 9 9 8 0 12 -4 9 -9z"/>
<path fill="#000000" stroke="none" d="M216 33 c13 -10 20 -10 23 -2 2 8 5 8
10 0 5 -8 12 -7 26 3 16 12 13 13 -30 13 -44 0 -46 -1 -29 -14z"/>
<path fill="#000000" stroke="none" d="M292 283 c12 -21 23 -40 25 -42 2 -2 3
14 3 37 0 38 -2 42 -25 42 l-24 0 21 -37z"/>
</g>
</svg>
