<?xml version="1.0" standalone="no"?>
<!DOCTYPE svg PUBLIC "-//W3C//DTD SVG 20010904//EN"
 "http://www.w3.org/TR/2001/REC-SVG-20010904/DTD/svg10.dtd">
<svg version="1.0" xmlns="http://www.w3.org/2000/svg"
 width="32.000000pt" height="32.000000pt" viewBox="0 0 32.000000 32.000000"
 preserveAspectRatio="xMidYMid meet">
<metadata>
Created by potrace 1.16, written by Peter Selinger 2001-2019
</metadata>
<g transform="translate(0.000000,32.000000) scale(0.100000,-0.100000)"
fill="#000000" stroke="none">
<path fill="#000000" stroke="none" d="M188 255 c-9 -21 -9 -29 4 -41 13 -13
20 -14 39 -4 31 16 59 41 59 52 0 15 -26 8 -48 -12 -30 -28 -46 -26 -38 5 8
32 -1 32 -16 0z"/>
<path fill="#000000" stroke="none" d="M141 224 c0 -11 3 -14 6 -6 3 7 2 16
-1 19 -3 4 -6 -2 -5 -13z"/>
<path fill="#000000" stroke="none" d="M116 215 c4 -8 8 -15 10 -15 2 0 4 7 4
15 0 8 -4 15 -10 15 -5 0 -7 -7 -4 -15z"/>
<path fill="#000000" stroke="none" d="M44 176 c-19 -19 -34 -40 -34 -47 0 -8
9 0 20 18 24 40 52 57 69 40 10 -9 11 -8 6 6 -10 25 -23 21 -61 -17z"/>
<path fill="#000000" stroke="none" d="M240 184 c0 -6 7 -19 16 -30 14 -18 14
-18 3 6 -14 31 -19 36 -19 24z"/>
<path fill="#000000" stroke="none" d="M136 165 c-5 -14 -2 -16 22 -15 4 1 10
-14 13 -32 6 -28 6 -26 6 15 0 38 -4 47 -18 47 -9 0 -19 -7 -23 -15z"/>
<path fill="#000000" stroke="none" d="M151 43 c-10 -26 -10 -27 4 -9 8 11 15
23 15 28 0 15 -7 8 -19 -19z"/>
</g>
</svg>
