<?xml version="1.0" standalone="no"?>
<!DOCTYPE svg PUBLIC "-//W3C//DTD SVG 20010904//EN"
 "http://www.w3.org/TR/2001/REC-SVG-20010904/DTD/svg10.dtd">
<svg version="1.0" xmlns="http://www.w3.org/2000/svg"
 width="32.000000pt" height="32.000000pt" viewBox="0 0 32.000000 32.000000"
 preserveAspectRatio="xMidYMid meet">
<metadata>
Created by potrace 1.16, written by Peter Selinger 2001-2019
</metadata>
<g transform="translate(0.000000,32.000000) scale(0.100000,-0.100000)"
fill="#000000" stroke="none">
<path fill="#000000" stroke="none" d="M0 160 l0 -160 55 0 c42 0 55 3 55 15
0 8 -6 15 -12 15 -9 0 -10 3 -2 8 6 4 14 14 17 22 4 12 6 11 6 -2 1 -10 5 -18
11 -18 5 0 9 3 7 8 -1 4 1 8 6 10 4 1 7 0 7 -3 0 -3 0 -9 0 -15 0 -5 -7 -10
-15 -10 -8 0 -15 -7 -15 -15 0 -12 18 -15 100 -15 l100 0 0 160 0 160 -160 0
-160 0 0 -160z"/>
<path fill="#ffffff" stroke="none" d="M225 290 c-4 -6 -11 -7 -17 -4 -8 5 -9
1 -4 -12 5 -14 4 -16 -5 -7 -14 14 -4 33 17 33 8 0 12 -5 9 -10z"/>
<path fill="#ffffff" stroke="none" d="M110 254 c0 -2 -9 0 -20 6 -11 6 -20
13 -20 16 0 2 9 0 20 -6 11 -6 20 -13 20 -16z"/>
<path fill="#ffffff" stroke="none" d="M296 235 c-5 -14 -9 -15 -21 -5 -8 7
-15 17 -15 23 0 6 7 2 15 -9 13 -18 14 -18 8 6 -5 20 -3 23 7 13 7 -6 10 -19
6 -28z"/>
<path fill="#ffffff" stroke="none" d="M50 230 c-5 -10 -7 -20 -5 -24 3 -3 -2
0 -11 8 -18 16 -13 33 10 33 11 0 12 -5 6 -17z"/>
<path fill="#ffffff" stroke="none" d="M127 214 c-3 -3 -12 -4 -19 -1 -8 3 -5
6 6 6 11 1 17 -2 13 -5z"/>
<path fill="#ffffff" stroke="none" d="M187 214 c-3 -3 -12 -4 -19 -1 -8 3 -5
6 6 6 11 1 17 -2 13 -5z"/>
<path fill="#ffffff" stroke="none" d="M304 178 c-3 -4 -11 -8 -17 -7 -9 0 -9
2 0 5 7 3 9 13 6 22 -4 14 -3 14 5 2 6 -8 8 -18 6 -22z"/>
<path fill="#ffffff" stroke="none" d="M124 178 c-1 -8 8 -14 21 -14 13 0 22
6 21 14 -1 8 7 16 17 18 14 2 16 -1 7 -11 -6 -7 -8 -21 -4 -31 3 -11 2 -15 -3
-9 -4 6 -21 10 -38 10 -16 0 -34 -4 -38 -10 -5 -6 -6 -2 -3 9 4 10 2 24 -4 31
-9 10 -7 13 7 11 10 -2 18 -10 17 -18z"/>
<path fill="#ffffff" stroke="none" d="M89 123 c-1 -17 -3 -21 -6 -10 -2 9
-10 17 -16 17 -7 0 -6 4 3 10 20 13 20 13 19 -17z"/>
<path fill="#ffffff" stroke="none" d="M168 118 c-3 -7 -13 -13 -23 -13 -10 0
-20 6 -22 13 -3 7 5 12 22 12 17 0 25 -5 23 -12z"/>
<path fill="#ffffff" stroke="none" d="M33 53 c-5 -11 -8 -12 -13 -2 -5 7 -6
19 -3 26 5 11 8 12 13 2 5 -7 6 -19 3 -26z"/>
</g>
</svg>
