<?xml version="1.0" standalone="no"?>
<!DOCTYPE svg PUBLIC "-//W3C//DTD SVG 20010904//EN"
 "http://www.w3.org/TR/2001/REC-SVG-20010904/DTD/svg10.dtd">
<svg version="1.0" xmlns="http://www.w3.org/2000/svg"
 width="32.000000pt" height="32.000000pt" viewBox="0 0 32.000000 32.000000"
 preserveAspectRatio="xMidYMid meet">
<metadata>
Created by potrace 1.16, written by Peter Selinger 2001-2019
</metadata>
<g transform="translate(0.000000,32.000000) scale(0.100000,-0.100000)"
fill="#000000" stroke="none">
<path fill="#000000" stroke="none" d="M180 210 c-9 -6 -10 -10 -3 -10 6 0 15
5 18 10 8 12 4 12 -15 0z"/>
<path fill="#000000" stroke="none" d="M237 116 c16 -30 -10 -52 -43 -38 -22
11 -23 10 -12 -8 15 -24 27 -25 57 -4 15 11 26 13 33 6 6 -6 6 -12 -1 -16 -6
-4 -11 -2 -11 4 0 6 -10 4 -25 -6 -16 -10 -32 -13 -47 -8 -35 12 -49 13 -43 4
3 -5 -7 -11 -22 -13 -16 -2 -1 -5 32 -5 63 -2 135 13 135 27 0 5 -14 24 -32
42 -17 19 -27 25 -21 15z"/>
</g>
</svg>
