<?xml version="1.0" standalone="no"?>
<!DOCTYPE svg PUBLIC "-//W3C//DTD SVG 20010904//EN"
 "http://www.w3.org/TR/2001/REC-SVG-20010904/DTD/svg10.dtd">
<svg version="1.0" xmlns="http://www.w3.org/2000/svg"
 width="32.000000pt" height="32.000000pt" viewBox="0 0 32.000000 32.000000"
 preserveAspectRatio="xMidYMid meet">
<metadata>
Created by potrace 1.16, written by Peter Selinger 2001-2019
</metadata>
<g transform="translate(0.000000,32.000000) scale(0.100000,-0.100000)"
fill="#000000" stroke="none">
<path fill="#000000" stroke="none" d="M0 160 l0 -160 160 0 160 0 0 160 0
160 -160 0 -160 0 0 -160z"/>
<path fill="#ffffff" stroke="none" d="M168 293 l-138 -4 0 -128 c0 -94 3
-131 13 -134 7 -3 5 -6 -5 -6 -16 -1 -18 12 -18 139 l0 140 143 -2 142 -2
-137 -3z"/>
<path fill="#ffffff" stroke="none" d="M90 210 c0 -5 -2 -10 -4 -10 -3 0 -8 5
-11 10 -3 6 -1 10 4 10 6 0 11 -4 11 -10z"/>
<path fill="#ffffff" stroke="none" d="M250 216 c0 -3 -4 -8 -10 -11 -5 -3
-10 -1 -10 4 0 6 5 11 10 11 6 0 10 -2 10 -4z"/>
<path fill="#ffffff" stroke="none" d="M60 200 c0 -5 -2 -10 -4 -10 -3 0 -8 5
-11 10 -3 6 -1 10 4 10 6 0 11 -4 11 -10z"/>
<path fill="#ffffff" stroke="none" d="M280 206 c0 -3 -4 -8 -10 -11 -5 -3
-10 -1 -10 4 0 6 5 11 10 11 6 0 10 -2 10 -4z"/>
<path fill="#ffffff" stroke="none" d="M179 190 c14 7 22 7 26 0 4 -6 1 -9 -7
-8 -7 2 -12 -2 -11 -8 1 -7 -9 -9 -25 -7 -22 4 -24 2 -12 -7 13 -10 13 -11 0
-7 -8 2 -15 10 -15 18 -1 8 -7 13 -14 11 -7 -1 -10 2 -6 8 4 7 12 7 26 0 13
-7 25 -7 38 0z"/>
<path fill="#ffffff" stroke="none" d="M246 158 c-1 -17 -7 -33 -15 -36 -10
-3 -11 0 -5 9 5 8 7 24 5 37 -1 12 2 22 7 22 5 0 9 -14 8 -32z"/>
<path fill="#ffffff" stroke="none" d="M160 65 c69 0 84 3 96 20 11 15 14 16
14 3 0 -21 -55 -43 -110 -43 -55 0 -110 22 -110 43 0 13 3 12 14 -3 12 -17 27
-20 96 -20z"/>
</g>
</svg>
