<?xml version="1.0" standalone="no"?>
<!DOCTYPE svg PUBLIC "-//W3C//DTD SVG 20010904//EN"
 "http://www.w3.org/TR/2001/REC-SVG-20010904/DTD/svg10.dtd">
<svg version="1.0" xmlns="http://www.w3.org/2000/svg"
 width="32.000000pt" height="32.000000pt" viewBox="0 0 32.000000 32.000000"
 preserveAspectRatio="xMidYMid meet">
<metadata>
Created by potrace 1.16, written by Peter Selinger 2001-2019
</metadata>
<g transform="translate(0.000000,32.000000) scale(0.100000,-0.100000)"
fill="#000000" stroke="none">
<path fill="#000000" stroke="none" d="M25 300 c-3 -6 1 -7 9 -4 18 7 21 14 7
14 -6 0 -13 -4 -16 -10z"/>
<path fill="#000000" stroke="none" d="M200 293 c8 -3 24 -10 35 -15 20 -9 20
-9 1 6 -11 9 -27 16 -35 15 -14 0 -14 -1 -1 -6z"/>
<path fill="#000000" stroke="none" d="M62 255 c-34 -38 -51 -112 -35 -148 8
-18 10 -19 16 -4 3 9 2 17 -3 17 -19 0 1 86 30 128 36 51 33 54 -8 7z"/>
<path fill="#000000" stroke="none" d="M113 268 c-18 -23 -25 -43 -8 -23 9 11
21 19 26 18 5 -2 9 2 9 7 0 14 -16 12 -27 -2z"/>
<path fill="#000000" stroke="none" d="M140 226 c0 -2 9 -6 20 -9 11 -3 18 -1
14 4 -5 9 -34 13 -34 5z"/>
<path fill="#000000" stroke="none" d="M276 213 c-6 -14 -5 -15 5 -6 7 7 10
15 7 18 -3 3 -9 -2 -12 -12z"/>
<path fill="#000000" stroke="none" d="M290 143 c0 -22 2 -25 10 -13 13 20 13
40 0 40 -5 0 -10 -12 -10 -27z"/>
<path fill="#000000" stroke="none" d="M79 123 c-13 -16 -12 -17 4 -4 9 7 17
15 17 17 0 8 -8 3 -21 -13z"/>
<path fill="#000000" stroke="none" d="M90 96 c0 -2 8 -10 18 -17 15 -13 16
-12 3 4 -13 16 -21 21 -21 13z"/>
<path fill="#000000" stroke="none" d="M146 70 c-19 -6 -19 -7 -1 -13 20 -8
29 -4 24 11 -2 5 -13 6 -23 2z"/>
<path fill="#000000" stroke="none" d="M79 31 c26 -24 41 -27 41 -9 0 6 -3 8
-7 5 -3 -4 -18 0 -32 9 l-26 15 24 -20z"/>
<path fill="#000000" stroke="none" d="M160 30 c-9 -6 -10 -10 -3 -10 6 0 15
5 18 10 8 12 4 12 -15 0z"/>
</g>
</svg>
