<?xml version="1.0" standalone="no"?>
<!DOCTYPE svg PUBLIC "-//W3C//DTD SVG 20010904//EN"
 "http://www.w3.org/TR/2001/REC-SVG-20010904/DTD/svg10.dtd">
<svg version="1.0" xmlns="http://www.w3.org/2000/svg"
 width="32.000000pt" height="32.000000pt" viewBox="0 0 32.000000 32.000000"
 preserveAspectRatio="xMidYMid meet">
<metadata>
Created by potrace 1.16, written by Peter Selinger 2001-2019
</metadata>
<g transform="translate(0.000000,32.000000) scale(0.100000,-0.100000)"
fill="#000000" stroke="none">
<path fill="#000000" stroke="none" d="M22 163 l2 -138 3 132 4 132 132 4 132
3 -137 2 -138 2 2 -137z"/>
<path fill="#000000" stroke="none" d="M120 230 c8 -14 7 -25 -2 -40 -10 -16
-10 -24 0 -40 9 -15 10 -26 2 -40 -8 -16 -8 -18 5 -14 8 3 12 11 8 18 -4 6 1
5 10 -3 14 -11 20 -11 34 0 9 8 14 9 10 3 -4 -7 0 -15 8 -18 13 -4 13 -2 5 14
-8 14 -7 25 2 40 10 16 10 24 0 40 -9 15 -10 26 -2 40 8 16 8 18 -5 14 -8 -3
-12 -11 -8 -18 4 -6 -1 -5 -10 3 -14 11 -20 11 -34 0 -9 -8 -14 -9 -10 -3 4 7
0 15 -8 18 -13 4 -13 2 -5 -14z"/>
</g>
</svg>
