<?xml version="1.0" standalone="no"?>
<!DOCTYPE svg PUBLIC "-//W3C//DTD SVG 20010904//EN"
 "http://www.w3.org/TR/2001/REC-SVG-20010904/DTD/svg10.dtd">
<svg version="1.0" xmlns="http://www.w3.org/2000/svg"
 width="32.000000pt" height="32.000000pt" viewBox="0 0 32.000000 32.000000"
 preserveAspectRatio="xMidYMid meet">
<metadata>
Created by potrace 1.16, written by Peter Selinger 2001-2019
</metadata>
<g transform="translate(0.000000,32.000000) scale(0.100000,-0.100000)"
fill="#000000" stroke="none">
<path fill="#000000" stroke="none" d="M0 160 l0 -160 160 0 160 0 0 160 0
160 -160 0 -160 0 0 -160z"/>
<path fill="#ffffff" stroke="none" d="M249 293 c-53 -4 -57 -6 -62 -31 -3
-15 -1 -32 4 -38 5 -6 10 -31 11 -56 3 -41 5 -45 21 -36 39 20 96 -29 82 -72
-10 -31 -49 -53 -77 -44 -13 4 -26 7 -30 6 -5 -1 -7 1 -6 6 1 4 -1 17 -6 29
-4 12 -3 31 3 41 13 25 -34 101 -52 83 -6 -6 -17 -11 -25 -11 -9 0 -6 7 9 20
l24 19 -25 2 c-14 1 -31 2 -38 2 -25 -1 -5 22 24 27 21 4 29 11 29 25 0 17 -8
20 -53 23 l-53 3 2 -113 c1 -88 5 -115 17 -124 17 -12 8 -34 -14 -34 -11 0
-14 25 -14 140 l0 140 143 -2 c78 -1 117 -3 86 -5z"/>
<path fill="#ffffff" stroke="none" d="M293 226 c4 -10 -2 -13 -19 -12 -24 1
-30 7 -17 19 11 12 31 8 36 -7z"/>
<path fill="#ffffff" stroke="none" d="M297 175 c0 -8 -4 -12 -9 -9 -5 3 -6
10 -3 15 9 13 12 11 12 -6z"/>
<path fill="#ffffff" stroke="none" d="M154 124 c3 -8 2 -12 -4 -9 -6 3 -10
10 -10 16 0 14 7 11 14 -7z"/>
<path fill="#000000" stroke="none" d="M147 270 c3 -11 12 -20 19 -20 8 0 14
9 14 20 0 13 -7 20 -19 20 -14 0 -18 -5 -14 -20z"/>
<path fill="#000000" stroke="none" d="M155 230 c-3 -5 1 -10 10 -10 9 0 13 5
10 10 -3 6 -8 10 -10 10 -2 0 -7 -4 -10 -10z"/>
<path fill="#000000" stroke="none" d="M221 113 c-6 -10 -11 -13 -11 -8 0 13
-20 -16 -20 -30 0 -7 23 -11 55 -11 32 0 55 4 55 11 0 14 -20 43 -20 30 0 -5
-5 -2 -11 8 -13 22 -35 22 -48 0z"/>
<path fill="#ffffff" stroke="none" d="M254 98 c-3 -4 0 -8 5 -8 6 0 11 -5 11
-12 0 -9 -3 -9 -12 0 -8 8 -15 9 -25 1 -9 -8 -13 -8 -13 0 0 6 5 11 11 11 5 0
8 4 5 8 -3 5 1 9 9 9 8 0 12 -4 9 -9z"/>
<path fill="#000000" stroke="none" d="M30 40 c0 -5 5 -10 11 -10 5 0 7 5 4
10 -3 6 -8 10 -11 10 -2 0 -4 -4 -4 -10z"/>
<path fill="#000000" stroke="none" d="M216 33 c13 -10 20 -10 23 -2 2 8 5 8
10 0 5 -8 12 -7 26 3 16 12 13 13 -30 13 -44 0 -46 -1 -29 -14z"/>
</g>
</svg>
