<?xml version="1.0" standalone="no"?>
<!DOCTYPE svg PUBLIC "-//W3C//DTD SVG 20010904//EN"
 "http://www.w3.org/TR/2001/REC-SVG-20010904/DTD/svg10.dtd">
<svg version="1.0" xmlns="http://www.w3.org/2000/svg"
 width="32.000000pt" height="32.000000pt" viewBox="0 0 32.000000 32.000000"
 preserveAspectRatio="xMidYMid meet">
<metadata>
Created by potrace 1.16, written by Peter Selinger 2001-2019
</metadata>
<g transform="translate(0.000000,32.000000) scale(0.100000,-0.100000)"
fill="#000000" stroke="none">
<path fill="#000000" stroke="none" d="M20 160 l0 -140 140 0 140 0 0 140 0
140 -140 0 -140 0 0 -140z"/>
<path fill="#ffffff" stroke="none" d="M290 160 l0 -130 -130 0 -130 0 0 130
0 130 130 0 130 0 0 -130z"/>
<path fill="#000000" stroke="none" d="M96 215 c-10 -8 -24 -16 -30 -18 -6 -2
-8 -7 -4 -11 3 -4 19 -1 35 7 26 14 32 13 72 -7 34 -18 40 -24 27 -29 -9 -4
-15 -3 -12 2 3 5 -8 14 -24 21 -24 10 -36 10 -60 0 -17 -7 -33 -16 -36 -21 -3
-5 24 -23 60 -41 l65 -32 35 19 c20 11 36 23 36 27 0 11 -7 10 -38 -6 -24 -13
-31 -12 -71 8 -34 18 -40 24 -27 29 9 4 15 3 12 -2 -3 -5 8 -14 24 -21 24 -10
36 -10 60 0 17 7 33 16 36 21 5 9 -107 69 -128 69 -7 0 -22 -7 -32 -15z"/>
</g>
</svg>
