<?xml version="1.0" standalone="no"?>
<!DOCTYPE svg PUBLIC "-//W3C//DTD SVG 20010904//EN"
 "http://www.w3.org/TR/2001/REC-SVG-20010904/DTD/svg10.dtd">
<svg version="1.0" xmlns="http://www.w3.org/2000/svg"
 width="32.000000pt" height="32.000000pt" viewBox="0 0 32.000000 32.000000"
 preserveAspectRatio="xMidYMid meet">
<metadata>
Created by potrace 1.16, written by Peter Selinger 2001-2019
</metadata>
<g transform="translate(0.000000,32.000000) scale(0.100000,-0.100000)"
fill="#000000" stroke="none">
<path fill="#000000" stroke="none" d="M22 158 l2 -143 3 137 4 137 137 4 137
3 -142 2 -143 2 2 -142z"/>
<path fill="#000000" stroke="none" d="M93 213 c-44 -22 -42 -37 2 -18 33 13
39 13 80 -7 30 -15 41 -25 32 -30 -16 -10 -29 -10 -23 1 3 5 -7 14 -23 21 -24
10 -35 9 -65 -7 l-36 -19 65 -32 c62 -30 67 -31 95 -17 27 14 48 35 35 35 -3
0 -19 -7 -35 -15 -27 -14 -33 -13 -75 7 -30 15 -41 25 -32 30 16 10 29 10 23
-1 -3 -5 7 -14 23 -20 23 -10 34 -9 65 6 l37 17 -63 33 c-35 17 -65 32 -68 32
-3 0 -20 -8 -37 -16z"/>
</g>
</svg>
