<?xml version="1.0" standalone="no"?>
<!DOCTYPE svg PUBLIC "-//W3C//DTD SVG 20010904//EN"
 "http://www.w3.org/TR/2001/REC-SVG-20010904/DTD/svg10.dtd">
<svg version="1.0" xmlns="http://www.w3.org/2000/svg"
 width="32.000000pt" height="32.000000pt" viewBox="0 0 32.000000 32.000000"
 preserveAspectRatio="xMidYMid meet">
<metadata>
Created by potrace 1.16, written by Peter Selinger 2001-2019
</metadata>
<g transform="translate(0.000000,32.000000) scale(0.100000,-0.100000)"
fill="#000000" stroke="none">
<path fill="#000000" stroke="none" d="M0 160 l0 -160 160 0 160 0 0 160 0
160 -160 0 -160 0 0 -160z"/>
<path fill="#ffffff" stroke="none" d="M270 267 c0 -2 -10 -17 -23 -35 -18
-23 -27 -28 -35 -20 -8 8 -3 17 20 35 31 22 38 26 38 20z"/>
<path fill="#ffffff" stroke="none" d="M160 257 c0 -2 -10 -17 -23 -35 -18
-23 -27 -28 -35 -20 -8 8 -3 17 20 35 31 22 38 26 38 20z"/>
<path fill="#ffffff" stroke="none" d="M260 157 c0 -2 -10 -17 -23 -35 -18
-23 -27 -28 -35 -20 -8 8 -3 17 20 35 31 22 38 26 38 20z"/>
</g>
</svg>
