<?xml version="1.0" standalone="no"?>
<!DOCTYPE svg PUBLIC "-//W3C//DTD SVG 20010904//EN"
 "http://www.w3.org/TR/2001/REC-SVG-20010904/DTD/svg10.dtd">
<svg version="1.0" xmlns="http://www.w3.org/2000/svg"
 width="32.000000pt" height="32.000000pt" viewBox="0 0 32.000000 32.000000"
 preserveAspectRatio="xMidYMid meet">
<metadata>
Created by potrace 1.16, written by Peter Selinger 2001-2019
</metadata>
<g transform="translate(0.000000,32.000000) scale(0.100000,-0.100000)"
fill="#000000" stroke="none">
<path fill="#000000" stroke="none" d="M22 158 l2 -143 3 137 4 137 137 4 137
3 -142 2 -143 2 2 -142z"/>
<path fill="#000000" stroke="none" d="M51 186 c-9 -11 -8 -20 6 -43 23 -36
43 -36 66 1 17 27 17 30 2 45 -13 13 -15 13 -10 1 4 -11 -2 -15 -25 -15 -20 0
-29 4 -25 13 6 16 0 15 -14 -2z"/>
<path fill="#000000" stroke="none" d="M209 168 c-19 -26 -20 -30 -6 -25 22 8
22 -11 0 -36 -17 -19 -17 -20 3 -9 12 6 24 18 28 27 3 8 12 15 21 15 14 0 14
3 0 30 -9 17 -17 30 -20 30 -2 0 -14 -14 -26 -32z"/>
</g>
</svg>
