<?xml version="1.0" standalone="no"?>
<!DOCTYPE svg PUBLIC "-//W3C//DTD SVG 20010904//EN"
 "http://www.w3.org/TR/2001/REC-SVG-20010904/DTD/svg10.dtd">
<svg version="1.0" xmlns="http://www.w3.org/2000/svg"
 width="32.000000pt" height="32.000000pt" viewBox="0 0 32.000000 32.000000"
 preserveAspectRatio="xMidYMid meet">
<metadata>
Created by potrace 1.16, written by Peter Selinger 2001-2019
</metadata>
<g transform="translate(0.000000,32.000000) scale(0.100000,-0.100000)"
fill="#000000" stroke="none">
<path fill="#000000" stroke="none" d="M0 160 l0 -160 160 0 160 0 0 160 0
160 -160 0 -160 0 0 -160z"/>
<path fill="#ffffff" stroke="none" d="M272 293 c-14 -3 -22 -11 -20 -21 2
-11 -4 -16 -22 -17 -18 0 -24 5 -22 18 3 15 -7 17 -88 17 l-90 0 0 -107 c0
-91 2 -104 13 -89 13 17 14 17 30 1 21 -20 15 -33 -15 -31 -15 1 -25 -6 -30
-19 -3 -11 -6 42 -7 118 l-1 137 138 -1 c75 -1 127 -4 114 -6z"/>
<path fill="#ffffff" stroke="none" d="M185 203 c28 -36 43 -45 72 -46 7 0 10
-4 7 -9 -3 -4 -14 -3 -25 2 -10 6 -19 8 -19 4 0 -3 -13 8 -30 26 -16 18 -30
36 -30 41 0 17 -19 9 -39 -17 -16 -20 -18 -31 -11 -45 6 -10 17 -16 25 -13 8
4 15 1 15 -6 0 -7 8 -9 20 -5 11 4 20 2 20 -4 0 -6 5 -10 11 -9 6 2 14 -3 16
-9 6 -18 -12 -16 -27 2 -7 8 -16 12 -22 9 -5 -3 -15 0 -23 6 -8 7 -15 9 -15 5
0 -4 -6 -2 -13 4 -8 6 -16 8 -20 5 -3 -3 -5 8 -3 25 2 26 37 71 55 71 4 0 20
-17 36 -37z"/>
<path fill="#ffffff" stroke="none" d="M270 180 c0 -5 -5 -10 -11 -10 -5 0 -7
5 -4 10 3 6 8 10 11 10 2 0 4 -4 4 -10z"/>
<path fill="#ffffff" stroke="none" d="M160 68 c0 -5 5 -6 10 -3 6 3 10 4 10
1 0 -15 -20 -13 -36 5 -16 18 -16 19 -1 13 9 -3 17 -10 17 -16z"/>
<path fill="#ffffff" stroke="none" d="M211 83 c-11 -5 -11 -7 0 -14 11 -7 10
-9 -3 -9 -18 0 -23 11 -11 23 3 4 11 7 17 6 6 0 5 -3 -3 -6z"/>
</g>
</svg>
