<?xml version="1.0" standalone="no"?>
<!DOCTYPE svg PUBLIC "-//W3C//DTD SVG 20010904//EN"
 "http://www.w3.org/TR/2001/REC-SVG-20010904/DTD/svg10.dtd">
<svg version="1.0" xmlns="http://www.w3.org/2000/svg"
 width="32.000000pt" height="32.000000pt" viewBox="0 0 32.000000 32.000000"
 preserveAspectRatio="xMidYMid meet">
<metadata>
Created by potrace 1.16, written by Peter Selinger 2001-2019
</metadata>
<g transform="translate(0.000000,32.000000) scale(0.100000,-0.100000)"
fill="#000000" stroke="none">
<path fill="#000000" stroke="none" d="M20 160 l0 -140 140 0 140 0 0 140 0
140 -140 0 -140 0 0 -140z"/>
<path fill="#ffffff" stroke="none" d="M118 278 c-2 -9 9 -13 32 -13 23 0 34
4 32 13 -1 8 14 12 53 12 l55 0 0 -59 0 -60 -32 -3 c-18 -2 -33 -7 -33 -13 0
-5 15 -11 33 -13 30 -3 32 -6 32 -43 0 -30 -4 -39 -17 -40 -17 -1 -17 -2 0 -6
30 -8 18 -23 -18 -23 -23 0 -34 4 -32 13 1 7 -8 12 -23 12 -15 0 -24 -5 -23
-12 2 -9 -17 -12 -72 -11 -52 1 -75 5 -75 13 0 7 6 15 14 18 18 7 56 -3 56
-14 0 -15 23 -10 49 10 l24 19 -33 17 c-19 10 -35 13 -39 8 -3 -6 -21 -15 -38
-21 -30 -10 -33 -9 -33 8 0 13 8 20 28 22 33 4 32 22 -3 26 -23 3 -25 7 -25
53 0 44 2 49 23 50 l22 2 -22 4 c-15 3 -23 12 -23 24 0 16 7 19 45 19 31 0 44
-4 43 -12z"/>
<path fill="#000000" stroke="none" d="M238 273 c7 -3 16 -2 19 1 4 3 -2 6
-13 5 -11 0 -14 -3 -6 -6z"/>
<path fill="#000000" stroke="none" d="M178 241 c-16 -16 -16 -18 3 -34 18
-16 22 -16 49 -2 17 9 30 18 30 20 0 4 -56 36 -62 34 -2 0 -11 -8 -20 -18z"/>
<path fill="#000000" stroke="none" d="M87 244 c-12 -13 4 -24 34 -24 20 0 29
4 27 13 -5 13 -50 22 -61 11z"/>
<path fill="#000000" stroke="none" d="M138 203 c7 -3 16 -2 19 1 4 3 -2 6
-13 5 -11 0 -14 -3 -6 -6z"/>
<path fill="#000000" stroke="none" d="M248 193 c6 -2 18 -2 25 0 6 3 1 5 -13
5 -14 0 -19 -2 -12 -5z"/>
<path fill="#000000" stroke="none" d="M45 181 c-7 -13 17 -24 40 -19 9 1 16
8 16 13 0 14 -48 19 -56 6z"/>
<path fill="#000000" stroke="none" d="M125 170 c-3 -5 0 -13 9 -16 21 -8 61
-1 61 11 0 14 -62 19 -70 5z"/>
<path fill="#000000" stroke="none" d="M155 120 c-3 -5 0 -13 9 -16 21 -8 61
-1 61 11 0 14 -62 19 -70 5z"/>
<path fill="#000000" stroke="none" d="M238 83 c6 -2 18 -2 25 0 6 3 1 5 -13
5 -14 0 -19 -2 -12 -5z"/>
</g>
</svg>
