<?xml version="1.0" standalone="no"?>
<!DOCTYPE svg PUBLIC "-//W3C//DTD SVG 20010904//EN"
 "http://www.w3.org/TR/2001/REC-SVG-20010904/DTD/svg10.dtd">
<svg version="1.0" xmlns="http://www.w3.org/2000/svg"
 width="32.000000pt" height="32.000000pt" viewBox="0 0 32.000000 32.000000"
 preserveAspectRatio="xMidYMid meet">
<metadata>
Created by potrace 1.16, written by Peter Selinger 2001-2019
</metadata>
<g transform="translate(0.000000,32.000000) scale(0.100000,-0.100000)"
fill="#000000" stroke="none">
<path fill="#000000" stroke="none" d="M0 160 l0 -160 160 0 160 0 0 160 0
160 -160 0 -160 0 0 -160z"/>
<path fill="#ffffff" stroke="none" d="M168 293 l-138 -4 0 -73 0 -74 37 19
c21 10 45 19 54 19 10 0 19 5 21 12 3 9 19 7 62 -7 89 -30 98 -56 28 -74 -20
-6 -53 -12 -72 -14 -20 -2 -41 -7 -48 -11 -7 -4 -12 -2 -12 4 0 6 -4 9 -9 5
-5 -3 -12 -1 -16 5 -4 6 -10 8 -15 5 -5 -3 -12 0 -17 7 -5 8 -10 -8 -14 -42
-4 -36 -6 -5 -7 88 l-2 142 143 -2 142 -2 -137 -3z"/>
<path fill="#ffffff" stroke="none" d="M162 61 c10 -9 -49 -13 -73 -6 -11 4
-19 10 -19 13 0 9 82 3 92 -7z"/>
</g>
</svg>
