<?xml version="1.0" standalone="no"?>
<!DOCTYPE svg PUBLIC "-//W3C//DTD SVG 20010904//EN"
 "http://www.w3.org/TR/2001/REC-SVG-20010904/DTD/svg10.dtd">
<svg version="1.0" xmlns="http://www.w3.org/2000/svg"
 width="32.000000pt" height="32.000000pt" viewBox="0 0 32.000000 32.000000"
 preserveAspectRatio="xMidYMid meet">
<metadata>
Created by potrace 1.16, written by Peter Selinger 2001-2019
</metadata>
<g transform="translate(0.000000,32.000000) scale(0.100000,-0.100000)"
fill="#000000" stroke="none">
<path fill="#000000" stroke="none" d="M0 160 l0 -160 160 0 160 0 0 160 0
160 -160 0 -160 0 0 -160z"/>
<path fill="#ffffff" stroke="none" d="M300 160 l0 -140 -140 0 -140 0 0 140
0 140 140 0 140 0 0 -140z"/>
<path fill="#000000" stroke="none" d="M30 160 l0 -130 130 0 130 0 0 130 0
130 -130 0 -130 0 0 -130z"/>
<path fill="#ffffff" stroke="none" d="M186 255 c16 -8 37 -12 48 -9 17 6 18
2 11 -57 -8 -74 -13 -84 -54 -124 l-31 -29 -39 39 c-35 36 -40 47 -46 108 -6
64 -5 69 12 63 14 -4 46 6 69 23 1 1 15 -6 30 -14z"/>
<path fill="#ffffff" stroke="none" d="M270 90 c0 -22 -4 -40 -10 -40 -5 0
-10 18 -10 40 0 22 5 40 10 40 6 0 10 -18 10 -40z"/>
<path fill="#000000" stroke="none" d="M118 233 c-14 -4 -18 -15 -18 -59 0
-46 4 -58 30 -86 l30 -33 30 33 c26 27 30 40 30 86 0 47 -3 54 -22 60 -25 6
-54 6 -80 -1z"/>
<path fill="#ffffff" stroke="none" d="M184 178 c22 -47 13 -73 -24 -73 -37 0
-46 26 -24 73 10 23 21 41 24 41 3 0 14 -18 24 -41z"/>
</g>
</svg>
