<?xml version="1.0" standalone="no"?>
<!DOCTYPE svg PUBLIC "-//W3C//DTD SVG 20010904//EN"
 "http://www.w3.org/TR/2001/REC-SVG-20010904/DTD/svg10.dtd">
<svg version="1.0" xmlns="http://www.w3.org/2000/svg"
 width="32.000000pt" height="32.000000pt" viewBox="0 0 32.000000 32.000000"
 preserveAspectRatio="xMidYMid meet">
<metadata>
Created by potrace 1.16, written by Peter Selinger 2001-2019
</metadata>
<g transform="translate(0.000000,32.000000) scale(0.100000,-0.100000)"
fill="#000000" stroke="none">
<path fill="#000000" stroke="none" d="M97 222 c-6 -8 -12 -28 -13 -44 -1 -27
0 -28 17 -12 10 9 17 21 16 28 -1 6 3 10 9 9 7 -1 19 6 28 16 15 16 14 17 -14
17 -17 0 -36 -6 -43 -14z"/>
<path fill="#ffffff" stroke="none" d="M120 226 c0 -2 -8 -10 -17 -17 -16 -13
-17 -12 -4 4 13 16 21 21 21 13z"/>
<path fill="#000000" stroke="none" d="M179 223 c-13 -16 -12 -17 4 -4 9 7 17
15 17 17 0 8 -8 3 -21 -13z"/>
<path fill="#000000" stroke="none" d="M209 203 c-13 -16 -12 -17 4 -4 9 7 17
15 17 17 0 8 -8 3 -21 -13z"/>
<path fill="#000000" stroke="none" d="M136 184 c-9 -8 -16 -19 -16 -24 0 -11
29 -40 40 -40 11 0 40 29 40 40 0 5 -7 16 -16 24 -8 9 -19 16 -24 16 -5 0 -16
-7 -24 -16z"/>
<path fill="#ffffff" stroke="none" d="M180 160 c0 -13 -7 -20 -20 -20 -13 0
-20 7 -20 20 0 13 7 20 20 20 13 0 20 -7 20 -20z"/>
<path fill="#000000" stroke="none" d="M214 148 l-19 -23 23 19 c21 18 27 26
19 26 -2 0 -12 -10 -23 -22z"/>
<path fill="#000000" stroke="none" d="M89 133 c-13 -16 -12 -17 4 -4 9 7 17
15 17 17 0 8 -8 3 -21 -13z"/>
<path fill="#000000" stroke="none" d="M109 103 c-13 -16 -12 -17 4 -4 9 7 17
15 17 17 0 8 -8 3 -21 -13z"/>
<path fill="#000000" stroke="none" d="M164 98 l-19 -23 23 19 c21 18 27 26
19 26 -2 0 -12 -10 -23 -22z"/>
</g>
</svg>
