<?xml version="1.0" standalone="no"?>
<!DOCTYPE svg PUBLIC "-//W3C//DTD SVG 20010904//EN"
 "http://www.w3.org/TR/2001/REC-SVG-20010904/DTD/svg10.dtd">
<svg version="1.0" xmlns="http://www.w3.org/2000/svg"
 width="32.000000pt" height="32.000000pt" viewBox="0 0 32.000000 32.000000"
 preserveAspectRatio="xMidYMid meet">
<metadata>
Created by potrace 1.16, written by Peter Selinger 2001-2019
</metadata>
<g transform="translate(0.000000,32.000000) scale(0.100000,-0.100000)"
fill="#000000" stroke="none">
<path fill="#000000" stroke="none" d="M0 160 l0 -160 160 0 160 0 0 160 0
160 -160 0 -160 0 0 -160z"/>
<path fill="#ffffff" stroke="none" d="M163 293 l-132 -4 -4 -132 -3 -132 -2
138 -2 137 138 -2 137 -2 -132 -3z"/>
<path fill="#ffffff" stroke="none" d="M184 261 c-8 -8 -64 -9 -59 -1 2 3 18
6 34 6 17 0 28 -2 25 -5z"/>
<path fill="#ffffff" stroke="none" d="M224 224 c21 -21 21 -107 0 -128 -21
-21 -107 -21 -128 0 -21 21 -21 107 0 128 21 21 107 21 128 0z"/>
<path fill="#ffffff" stroke="none" d="M66 171 c-1 -16 -4 -32 -7 -36 -5 -4
-5 52 0 63 5 10 8 -3 7 -27z"/>
</g>
</svg>
