<?xml version="1.0" standalone="no"?>
<!DOCTYPE svg PUBLIC "-//W3C//DTD SVG 20010904//EN"
 "http://www.w3.org/TR/2001/REC-SVG-20010904/DTD/svg10.dtd">
<svg version="1.0" xmlns="http://www.w3.org/2000/svg"
 width="32.000000pt" height="32.000000pt" viewBox="0 0 32.000000 32.000000"
 preserveAspectRatio="xMidYMid meet">
<metadata>
Created by potrace 1.16, written by Peter Selinger 2001-2019
</metadata>
<g transform="translate(0.000000,32.000000) scale(0.100000,-0.100000)"
fill="#000000" stroke="none">
<path fill="#000000" stroke="none" d="M22 158 l2 -143 3 137 4 137 137 4 137
3 -142 2 -143 2 2 -142z"/>
<path fill="#000000" stroke="none" d="M196 253 c-4 -13 -12 -23 -17 -23 -5 0
-9 -5 -9 -12 0 -7 9 -3 21 9 12 11 19 27 17 34 -3 9 -7 6 -12 -8z"/>
<path fill="#000000" stroke="none" d="M80 205 c7 -8 17 -15 22 -15 6 0 5 7
-2 15 -7 8 -17 15 -22 15 -6 0 -5 -7 2 -15z"/>
</g>
</svg>
