<?xml version="1.0" standalone="no"?>
<!DOCTYPE svg PUBLIC "-//W3C//DTD SVG 20010904//EN"
 "http://www.w3.org/TR/2001/REC-SVG-20010904/DTD/svg10.dtd">
<svg version="1.0" xmlns="http://www.w3.org/2000/svg"
 width="32.000000pt" height="32.000000pt" viewBox="0 0 32.000000 32.000000"
 preserveAspectRatio="xMidYMid meet">
<metadata>
Created by potrace 1.16, written by Peter Selinger 2001-2019
</metadata>
<g transform="translate(0.000000,32.000000) scale(0.100000,-0.100000)"
fill="#000000" stroke="none">
<path fill="#000000" stroke="none" d="M22 163 l2 -138 3 133 4 132 74 0 c56
0 75 -3 75 -13 0 -22 -12 -28 -28 -14 -10 8 -9 2 4 -17 l19 -30 8 37 c9 35 10
36 60 40 29 2 -10 4 -85 5 l-138 2 2 -137z"/>
<path fill="#000000" stroke="none" d="M237 253 c-27 -19 -34 -29 -27 -38 5
-6 7 -15 3 -18 -3 -4 2 -7 12 -7 17 0 17 1 0 20 -10 11 -14 20 -9 20 5 0 23
11 39 25 39 32 30 31 -18 -2z"/>
<path fill="#000000" stroke="none" d="M120 199 c0 -9 9 -28 20 -42 l21 -26
-33 -14 c-33 -14 -75 -63 -64 -75 3 -3 6 0 6 7 0 6 29 25 64 41 56 25 69 27
106 19 24 -5 45 -8 47 -5 2 2 -10 7 -27 11 -31 7 -31 7 -13 28 17 21 17 21 -1
7 -40 -31 -90 -16 -112 35 -7 17 -13 23 -14 14z"/>
</g>
</svg>
