<?xml version="1.0" standalone="no"?>
<!DOCTYPE svg PUBLIC "-//W3C//DTD SVG 20010904//EN"
 "http://www.w3.org/TR/2001/REC-SVG-20010904/DTD/svg10.dtd">
<svg version="1.0" xmlns="http://www.w3.org/2000/svg"
 width="32.000000pt" height="32.000000pt" viewBox="0 0 32.000000 32.000000"
 preserveAspectRatio="xMidYMid meet">
<metadata>
Created by potrace 1.16, written by Peter Selinger 2001-2019
</metadata>
<g transform="translate(0.000000,32.000000) scale(0.100000,-0.100000)"
fill="#000000" stroke="none">
<path fill="#000000" stroke="none" d="M20 160 l0 -140 140 0 140 0 0 140 0
140 -140 0 -140 0 0 -140z"/>
<path fill="#ffffff" stroke="none" d="M180 277 c0 -7 -5 -18 -12 -25 -9 -9
-9 -15 -1 -23 7 -7 12 0 17 25 7 36 8 36 56 36 l50 0 0 -90 c0 -49 -4 -90 -9
-90 -20 0 -61 20 -61 30 0 5 5 10 11 10 5 0 7 -6 3 -12 -5 -8 0 -7 11 2 18 14
17 15 -6 18 -36 5 -48 22 -21 29 22 5 22 7 6 24 -9 11 -13 19 -8 19 5 0 23 12
39 26 30 25 30 25 -13 -2 -32 -20 -40 -30 -32 -39 17 -20 -8 -30 -37 -14 -18
10 -23 19 -20 36 2 13 0 26 -4 29 -5 3 -9 -6 -9 -20 0 -13 -3 -26 -8 -28 -4
-1 -21 -34 -38 -73 -18 -41 -37 -71 -47 -73 -15 -3 -17 9 -17 107 l0 111 75 0
c55 0 75 -3 75 -13z"/>
<path fill="#ffffff" stroke="none" d="M258 105 c29 -6 32 -10 32 -41 l0 -34
-110 0 c-93 0 -110 2 -110 15 0 18 116 75 140 70 8 -2 30 -6 48 -10z"/>
<path fill="#ffffff" stroke="none" d="M45 40 c3 -5 1 -10 -4 -10 -6 0 -11 5
-11 10 0 6 2 10 4 10 3 0 8 -4 11 -10z"/>
</g>
</svg>
