<?xml version="1.0" standalone="no"?>
<!DOCTYPE svg PUBLIC "-//W3C//DTD SVG 20010904//EN"
 "http://www.w3.org/TR/2001/REC-SVG-20010904/DTD/svg10.dtd">
<svg version="1.0" xmlns="http://www.w3.org/2000/svg"
 width="32.000000pt" height="32.000000pt" viewBox="0 0 32.000000 32.000000"
 preserveAspectRatio="xMidYMid meet">
<metadata>
Created by potrace 1.16, written by Peter Selinger 2001-2019
</metadata>
<g transform="translate(0.000000,32.000000) scale(0.100000,-0.100000)"
fill="#000000" stroke="none">
<path fill="#000000" stroke="none" d="M84 241 c-43 -20 -74 -54 -74 -82 0 -9
9 -27 20 -40 l19 -24 -11 32 c-22 58 18 105 103 122 36 7 38 9 14 10 -16 0
-49 -8 -71 -18z"/>
<path fill="#000000" stroke="none" d="M110 223 c-26 -9 -60 -46 -60 -64 0 -9
6 -22 14 -28 11 -9 12 -6 8 14 -6 32 20 62 62 74 19 6 23 9 11 9 -11 0 -27 -2
-35 -5z"/>
<path fill="#000000" stroke="none" d="M282 193 c22 -58 -18 -105 -103 -122
-36 -7 -38 -9 -14 -10 40 -1 108 31 129 60 21 31 20 52 -4 80 l-19 24 11 -32z"/>
<path fill="#000000" stroke="none" d="M102 188 c-14 -14 -16 -35 -3 -42 5 -4
7 3 4 14 -4 14 1 22 18 29 14 6 18 10 9 10 -9 1 -21 -4 -28 -11z"/>
<path fill="#000000" stroke="none" d="M248 175 c6 -31 -19 -61 -62 -75 l-31
-10 35 5 c60 9 100 66 66 94 -11 9 -12 6 -8 -14z"/>
<path fill="#000000" stroke="none" d="M135 170 c-4 -7 -3 -16 3 -22 14 -14
47 -6 47 12 0 18 -40 26 -50 10z"/>
<path fill="#000000" stroke="none" d="M217 162 c4 -16 -1 -24 -18 -32 -17 -7
-19 -9 -5 -7 26 3 44 33 29 48 -9 9 -11 7 -6 -9z"/>
</g>
</svg>
