<?xml version="1.0" standalone="no"?>
<!DOCTYPE svg PUBLIC "-//W3C//DTD SVG 20010904//EN"
 "http://www.w3.org/TR/2001/REC-SVG-20010904/DTD/svg10.dtd">
<svg version="1.0" xmlns="http://www.w3.org/2000/svg"
 width="32.000000pt" height="32.000000pt" viewBox="0 0 32.000000 32.000000"
 preserveAspectRatio="xMidYMid meet">
<metadata>
Created by potrace 1.16, written by Peter Selinger 2001-2019
</metadata>
<g transform="translate(0.000000,32.000000) scale(0.100000,-0.100000)"
fill="#000000" stroke="none">
<path fill="#000000" stroke="none" d="M0 260 l0 -60 70 35 c38 19 79 35 90
35 11 0 52 -16 90 -35 l70 -35 0 60 0 60 -160 0 -160 0 0 -60z"/>
<path fill="#000000" stroke="none" d="M113 187 c-24 -11 -43 -24 -43 -27 0
-3 20 -16 45 -28 l45 -22 45 22 c25 12 45 25 45 28 0 5 -86 51 -93 49 -1 0
-21 -10 -44 -22z"/>
<path fill="#ffffff" stroke="none" d="M196 175 c19 -15 19 -15 0 -30 -11 -8
-27 -15 -36 -15 -9 0 -25 7 -36 15 -19 15 -19 15 0 30 11 8 27 15 36 15 9 0
25 -7 36 -15z"/>
<path fill="#000000" stroke="none" d="M0 60 l0 -60 160 0 160 0 0 60 0 60
-70 -35 c-38 -19 -79 -35 -90 -35 -11 0 -52 16 -90 35 l-70 35 0 -60z"/>
</g>
</svg>
