<?xml version="1.0" standalone="no"?>
<!DOCTYPE svg PUBLIC "-//W3C//DTD SVG 20010904//EN"
 "http://www.w3.org/TR/2001/REC-SVG-20010904/DTD/svg10.dtd">
<svg version="1.0" xmlns="http://www.w3.org/2000/svg"
 width="32.000000pt" height="32.000000pt" viewBox="0 0 32.000000 32.000000"
 preserveAspectRatio="xMidYMid meet">
<metadata>
Created by potrace 1.16, written by Peter Selinger 2001-2019
</metadata>
<g transform="translate(0.000000,32.000000) scale(0.100000,-0.100000)"
fill="#000000" stroke="none">
<path fill="#000000" stroke="none" d="M7 313 c-10 -9 -8 -286 2 -301 5 -9 24
-12 57 -10 47 3 48 4 22 15 -15 7 -39 30 -54 52 -24 37 -26 46 -20 108 9 110
9 108 36 109 14 1 36 6 50 11 14 6 34 13 45 16 11 2 -14 5 -56 6 -42 0 -79 -2
-82 -6z"/>
<path fill="#000000" stroke="none" d="M314 160 c0 -91 2 -128 3 -82 2 45 2
119 0 165 -1 45 -3 8 -3 -83z"/>
<path fill="#000000" stroke="none" d="M110 289 c-14 -7 -36 -11 -50 -10 -18
1 -26 -4 -27 -17 -1 -9 -5 -46 -9 -81 -6 -53 -4 -70 12 -98 33 -62 130 -91
211 -62 28 9 31 15 43 86 12 67 11 82 -2 120 -13 36 -13 43 -2 43 8 0 14 4 14
10 0 5 -12 9 -27 9 -16 -1 -53 2 -83 5 -33 4 -65 1 -80 -5z"/>
<path fill="#ffffff" stroke="none" d="M228 271 c21 -13 -14 -23 -54 -15 -21
4 -40 2 -48 -5 -11 -9 -16 -9 -21 0 -4 6 -1 15 6 20 18 11 100 11 117 0z"/>
<path fill="#ffffff" stroke="none" d="M80 210 c-6 -12 -14 -19 -17 -16 -3 3
0 12 7 21 7 9 10 18 6 22 -12 12 -17 -5 -20 -66 -2 -34 -6 -65 -10 -68 -10
-11 -7 104 4 133 10 25 12 26 26 12 13 -13 14 -20 4 -38z"/>
<path fill="#ffffff" stroke="none" d="M266 233 c15 -20 17 -106 4 -138 -7
-19 -8 -19 -15 -2 -4 10 -5 31 -1 48 3 17 0 45 -8 64 -19 44 -6 62 20 28z"/>
<path fill="#ffffff" stroke="none" d="M190 231 c0 -6 -4 -12 -10 -16 -13 -8
-61 5 -54 16 7 12 64 12 64 0z"/>
<path fill="#ffffff" stroke="none" d="M237 167 c4 -30 2 -37 -10 -37 -23 0
-30 17 -22 57 8 43 23 33 32 -20z"/>
<path fill="#ffffff" stroke="none" d="M123 204 c6 -7 -30 -71 -46 -81 -7 -4
-8 5 -4 27 10 46 32 71 50 54z"/>
<path fill="#ffffff" stroke="none" d="M180 165 c0 -8 -4 -15 -10 -15 -5 0 -7
7 -4 15 4 8 8 15 10 15 2 0 4 -7 4 -15z"/>
<path fill="#ffffff" stroke="none" d="M140 160 c0 -5 -5 -10 -11 -10 -5 0 -7
5 -4 10 3 6 8 10 11 10 2 0 4 -4 4 -10z"/>
<path fill="#ffffff" stroke="none" d="M147 124 c-3 -3 -12 -4 -19 -1 -8 3 -5
6 6 6 11 1 17 -2 13 -5z"/>
<path fill="#ffffff" stroke="none" d="M195 120 c3 -5 -3 -10 -15 -10 -12 0
-18 5 -15 10 3 6 10 10 15 10 5 0 12 -4 15 -10z"/>
<path fill="#ffffff" stroke="none" d="M125 100 c11 -17 -5 -32 -21 -19 -7 6
-11 15 -8 20 7 12 21 11 29 -1z"/>
<path fill="#ffffff" stroke="none" d="M235 89 c10 -15 4 -18 -48 -25 -53 -8
-65 8 -19 24 36 14 59 14 67 1z"/>
<path fill="#ffffff" stroke="none" d="M110 42 c-15 -5 -51 28 -44 40 3 5 17
-1 31 -14 14 -13 19 -24 13 -26z"/>
<path fill="#ffffff" stroke="none" d="M245 41 c-8 -13 -115 -15 -115 -2 0 5
8 7 18 5 9 -3 35 -1 57 4 44 10 50 9 40 -7z"/>
<path fill="#000000" stroke="none" d="M96 185 c-9 -26 -7 -32 5 -12 6 10 9
21 6 23 -2 3 -7 -2 -11 -11z"/>
</g>
</svg>
