<?xml version="1.0" standalone="no"?>
<!DOCTYPE svg PUBLIC "-//W3C//DTD SVG 20010904//EN"
 "http://www.w3.org/TR/2001/REC-SVG-20010904/DTD/svg10.dtd">
<svg version="1.0" xmlns="http://www.w3.org/2000/svg"
 width="32.000000pt" height="32.000000pt" viewBox="0 0 32.000000 32.000000"
 preserveAspectRatio="xMidYMid meet">
<metadata>
Created by potrace 1.16, written by Peter Selinger 2001-2019
</metadata>
<g transform="translate(0.000000,32.000000) scale(0.100000,-0.100000)"
fill="#000000" stroke="none">
<path fill="#000000" stroke="none" d="M0 256 c0 -35 7 -83 15 -106 21 -59 20
-116 -2 -129 -29 -16 -5 -26 30 -13 48 17 193 27 201 14 4 -6 13 -9 21 -5 9 3
22 0 30 -7 9 -7 19 -10 23 -6 4 4 -4 16 -18 26 -23 18 -25 25 -25 110 0 69 4
93 15 100 8 5 12 11 9 14 -3 3 -21 -5 -39 -19 -19 -14 -40 -25 -48 -25 -23 0
-92 42 -92 56 0 7 -5 16 -11 19 -7 5 -8 -4 -4 -27 6 -30 3 -37 -18 -51 -33
-21 -83 -34 -73 -18 4 6 15 11 25 11 11 0 29 8 41 18 20 16 21 21 10 41 -8 17
-9 26 -1 34 8 8 21 0 47 -25 47 -48 80 -56 110 -28 12 12 34 23 48 24 21 1 26
6 26 29 l0 27 -160 0 -160 0 0 -64z"/>
<path fill="#ffffff" stroke="none" d="M204 175 c-13 -33 -74 -7 -74 31 l0 24
40 -20 c27 -14 38 -25 34 -35z"/>
<path fill="#ffffff" stroke="none" d="M118 185 c-2 -18 -10 -26 -30 -30 -47
-11 -53 5 -11 31 21 13 39 24 40 24 2 0 2 -11 1 -25z"/>
<path fill="#ffffff" stroke="none" d="M254 173 c-3 -21 -1 -58 5 -83 10 -47
6 -65 -9 -40 -11 17 -13 143 -3 153 12 13 13 7 7 -30z"/>
<path fill="#ffffff" stroke="none" d="M228 60 c0 -20 -2 -18 -12 12 -6 20
-14 39 -17 43 -4 3 -2 17 5 30 11 24 11 23 18 -18 3 -23 6 -53 6 -67z"/>
<path fill="#ffffff" stroke="none" d="M48 120 c-2 -7 -10 1 -17 16 -12 27
-11 28 4 12 10 -9 16 -21 13 -28z"/>
<path fill="#ffffff" stroke="none" d="M180 136 c0 -2 -9 -2 -20 1 -11 3 -20
9 -20 15 0 5 9 4 20 -2 11 -6 20 -12 20 -14z"/>
<path fill="#ffffff" stroke="none" d="M120 140 c0 -13 -28 -25 -38 -16 -3 4
0 11 8 16 20 13 30 12 30 0z"/>
<path fill="#ffffff" stroke="none" d="M155 90 c-9 -16 -18 -30 -20 -30 -3 0
-5 14 -5 30 0 23 4 30 20 30 20 0 20 -1 5 -30z"/>
<path fill="#ffffff" stroke="none" d="M74 62 c-4 -18 -10 -32 -15 -32 -10 0
-12 41 -3 65 11 27 25 1 18 -33z"/>
<path fill="#ffffff" stroke="none" d="M120 94 c0 -8 -4 -12 -10 -9 -5 3 -10
10 -10 16 0 5 5 9 10 9 6 0 10 -7 10 -16z"/>
<path fill="#ffffff" stroke="none" d="M200 63 c0 -18 -6 -23 -25 -23 -29 0
-30 2 -9 42 12 24 18 28 25 17 5 -8 9 -24 9 -36z"/>
<path fill="#ffffff" stroke="none" d="M110 48 c0 -5 -4 -8 -10 -8 -5 0 -10
10 -10 23 0 18 2 19 10 7 5 -8 10 -18 10 -22z"/>
<path fill="#000000" stroke="none" d="M150 185 c14 -16 40 -20 40 -6 0 9 -24
21 -42 21 -6 0 -6 -6 2 -15z"/>
<path fill="#000000" stroke="none" d="M300 230 c-19 -12 -21 -163 -3 -181 21
-21 24 -6 21 94 -3 82 -5 95 -18 87z"/>
<path fill="#000000" stroke="none" d="M2 85 c-1 -49 1 -56 10 -38 7 15 7 33
0 60 -10 38 -10 37 -10 -22z"/>
<path fill="#000000" stroke="none" d="M115 10 c-49 -7 -48 -7 23 -8 47 -1 71
2 67 8 -7 11 -12 11 -90 0z"/>
</g>
</svg>
