<?xml version="1.0" standalone="no"?>
<!DOCTYPE svg PUBLIC "-//W3C//DTD SVG 20010904//EN"
 "http://www.w3.org/TR/2001/REC-SVG-20010904/DTD/svg10.dtd">
<svg version="1.0" xmlns="http://www.w3.org/2000/svg"
 width="32.000000pt" height="32.000000pt" viewBox="0 0 32.000000 32.000000"
 preserveAspectRatio="xMidYMid meet">
<metadata>
Created by potrace 1.16, written by Peter Selinger 2001-2019
</metadata>
<g transform="translate(0.000000,32.000000) scale(0.100000,-0.100000)"
fill="#000000" stroke="none">
<path fill="#000000" stroke="none" d="M12 310 c3 -9 19 -16 44 -18 40 -2 74
11 61 24 -4 4 -13 2 -19 -4 -16 -16 -60 -15 -77 1 -11 10 -13 9 -9 -3z"/>
<path fill="#000000" stroke="none" d="M140 310 c0 -38 24 -95 57 -131 30 -33
38 -37 51 -27 13 11 15 10 9 -11 -7 -28 16 -88 41 -107 24 -17 9 -28 -19 -13
-38 20 -188 17 -224 -4 -27 -16 -28 -18 -5 -12 86 22 161 22 237 -1 34 -10 43
23 12 46 -19 15 -24 28 -24 67 -1 42 -4 48 -23 48 -33 0 -80 50 -88 93 -8 43
-23 77 -24 52z"/>
<path fill="#000000" stroke="none" d="M2 270 c0 -14 2 -19 5 -12 2 6 2 18 0
25 -3 6 -5 1 -5 -13z"/>
<path fill="#000000" stroke="none" d="M90 279 c-14 -6 -35 -8 -47 -6 -26 5
-28 -1 -8 -27 9 -12 28 -19 52 -20 36 -1 38 1 41 32 3 34 0 36 -38 21z"/>
<path fill="#ffffff" stroke="none" d="M110 250 c0 -5 -13 -10 -29 -10 -17 0
-33 5 -36 10 -4 6 8 10 29 10 20 0 36 -4 36 -10z"/>
<path fill="#000000" stroke="none" d="M10 210 c-6 -85 -5 -199 1 -182 12 32
16 115 9 167 -7 45 -8 46 -10 15z"/>
<path fill="#000000" stroke="none" d="M36 197 c8 -28 14 -33 41 -42 18 -5 25
-1 35 19 14 32 14 32 -40 39 -40 5 -42 4 -36 -16z"/>
<path fill="#ffffff" stroke="none" d="M100 184 c0 -10 -7 -14 -22 -12 -32 5
-35 28 -4 28 17 0 26 -5 26 -16z"/>
<path fill="#000000" stroke="none" d="M130 211 c0 -9 66 -71 77 -71 8 0 -60
78 -69 79 -5 1 -8 -3 -8 -8z"/>
<path fill="#000000" stroke="none" d="M130 172 c0 -12 57 -62 71 -62 5 0 9 5
9 10 0 6 -4 10 -9 10 -5 0 -23 12 -40 26 -17 14 -31 21 -31 16z"/>
<path fill="#000000" stroke="none" d="M40 131 c0 -25 18 -27 46 -6 16 12 17
14 2 15 -9 0 -23 3 -32 6 -12 4 -16 0 -16 -15z"/>
<path fill="#000000" stroke="none" d="M117 143 c-6 -11 9 -49 23 -58 7 -4 18
-1 25 6 11 12 8 18 -15 37 -16 12 -31 19 -33 15z"/>
<path fill="#ffffff" stroke="none" d="M155 102 c-3 -3 -11 0 -18 7 -9 10 -8
11 6 5 10 -3 15 -9 12 -12z"/>
<path fill="#000000" stroke="none" d="M222 100 c-7 -19 -6 -29 6 -42 18 -21
50 -26 35 -5 -6 6 -15 26 -21 42 l-10 30 -10 -25z"/>
<path fill="#000000" stroke="none" d="M85 81 l-15 -30 30 10 c16 6 27 15 24
20 -3 5 -10 7 -15 4 -5 -3 -6 1 -3 9 11 28 -5 17 -21 -13z"/>
<path fill="#000000" stroke="none" d="M36 78 c-3 -13 -6 -27 -6 -32 0 -12 29
13 41 36 8 14 6 18 -9 18 -12 0 -22 -9 -26 -22z"/>
<path fill="#000000" stroke="none" d="M190 71 c0 -6 4 -13 10 -16 6 -3 7 1 4
9 -7 18 -14 21 -14 7z"/>
<path fill="#000000" stroke="none" d="M143 53 c9 -2 23 -2 30 0 6 3 -1 5 -18
5 -16 0 -22 -2 -12 -5z"/>
</g>
</svg>
