<?xml version="1.0" standalone="no"?>
<!DOCTYPE svg PUBLIC "-//W3C//DTD SVG 20010904//EN"
 "http://www.w3.org/TR/2001/REC-SVG-20010904/DTD/svg10.dtd">
<svg version="1.0" xmlns="http://www.w3.org/2000/svg"
 width="32.000000pt" height="32.000000pt" viewBox="0 0 32.000000 32.000000"
 preserveAspectRatio="xMidYMid meet">
<metadata>
Created by potrace 1.16, written by Peter Selinger 2001-2019
</metadata>
<g transform="translate(0.000000,32.000000) scale(0.100000,-0.100000)"
fill="#000000" stroke="none">
<path fill="#000000" stroke="none" d="M0 248 c0 -56 3 -69 12 -60 7 7 20 12
29 12 9 0 27 8 39 18 20 16 21 21 10 41 -8 17 -9 26 -1 34 8 8 21 0 47 -25 47
-48 80 -56 110 -28 12 12 34 23 48 24 21 1 26 6 26 29 l0 27 -160 0 -160 0 0
-72z"/>
<path fill="#000000" stroke="none" d="M110 250 c0 -5 5 -10 11 -10 5 0 7 5 4
10 -3 6 -8 10 -11 10 -2 0 -4 -4 -4 -10z"/>
<path fill="#000000" stroke="none" d="M300 230 c-19 -12 -21 -163 -3 -181 21
-21 24 -6 21 94 -3 82 -5 95 -18 87z"/>
<path fill="#000000" stroke="none" d="M229 203 c-13 -16 -12 -17 4 -4 9 7 17
15 17 17 0 8 -8 3 -21 -13z"/>
<path fill="#000000" stroke="none" d="M150 185 c14 -16 40 -20 40 -6 0 9 -24
21 -42 21 -6 0 -6 -6 2 -15z"/>
<path fill="#000000" stroke="none" d="M122 138 c1 -41 2 -45 5 -18 3 19 8 37
13 40 4 3 2 11 -6 18 -12 11 -14 5 -12 -40z"/>
<path fill="#000000" stroke="none" d="M2 85 c-1 -49 1 -56 10 -38 7 15 7 33
0 60 -10 38 -10 37 -10 -22z"/>
<path fill="#000000" stroke="none" d="M75 110 c10 -11 20 -20 23 -20 3 0 -3
9 -13 20 -10 11 -20 20 -23 20 -3 0 3 -9 13 -20z"/>
<path fill="#000000" stroke="none" d="M115 10 c-49 -7 -48 -7 23 -8 47 -1 71
2 67 8 -7 11 -12 11 -90 0z"/>
</g>
</svg>
