<?xml version="1.0" standalone="no"?>
<!DOCTYPE svg PUBLIC "-//W3C//DTD SVG 20010904//EN"
 "http://www.w3.org/TR/2001/REC-SVG-20010904/DTD/svg10.dtd">
<svg version="1.0" xmlns="http://www.w3.org/2000/svg"
 width="32.000000pt" height="32.000000pt" viewBox="0 0 32.000000 32.000000"
 preserveAspectRatio="xMidYMid meet">
<metadata>
Created by potrace 1.16, written by Peter Selinger 2001-2019
</metadata>
<g transform="translate(0.000000,32.000000) scale(0.100000,-0.100000)"
fill="#000000" stroke="none">
<path fill="#000000" stroke="none" d="M0 295 c0 -14 6 -41 14 -60 30 -72 32
-198 3 -192 -6 1 -13 -8 -15 -21 l-3 -22 161 0 c105 0 159 3 155 10 -3 5 -16
10 -28 11 -20 1 -20 2 3 8 l25 7 1 134 c1 74 -1 128 -4 120 -6 -21 -43 -60
-56 -60 -6 0 1 8 14 17 l24 17 -24 7 -25 7 26 1 c18 1 28 8 32 21 3 11 1 20
-4 20 -5 0 -9 -5 -9 -11 0 -11 -59 -8 -127 6 -32 7 -33 6 -33 -24 0 -17 -4
-31 -8 -31 -5 0 -7 14 -4 30 l4 30 -61 0 c-59 0 -61 -1 -61 -25z"/>
<path fill="#ffffff" stroke="none" d="M34 275 c3 -8 1 -15 -4 -15 -6 0 -10 7
-10 15 0 8 2 15 4 15 2 0 6 -7 10 -15z"/>
<path fill="#ffffff" stroke="none" d="M100 256 c0 -2 -11 -6 -25 -8 -13 -3
-22 -1 -19 3 5 9 44 13 44 5z"/>
<path fill="#ffffff" stroke="none" d="M137 213 c-14 -14 -19 -15 -29 -4 -11
10 -10 11 3 6 10 -4 20 -2 24 4 3 6 9 11 13 11 3 0 -1 -8 -11 -17z"/>
<path fill="#ffffff" stroke="none" d="M297 193 c-3 -10 -5 -4 -5 12 0 17 2
24 5 18 2 -7 2 -21 0 -30z"/>
<path fill="#ffffff" stroke="none" d="M257 205 c0 -8 -4 -12 -8 -9 -4 2 -16
-7 -27 -21 l-19 -24 -19 20 c-18 20 -18 20 7 14 18 -4 30 0 43 14 23 25 23 25
23 6z"/>
<path fill="#ffffff" stroke="none" d="M57 148 c-3 -7 -5 -2 -5 12 0 14 2 19
5 13 2 -7 2 -19 0 -25z"/>
<path fill="#ffffff" stroke="none" d="M97 158 c-3 -8 -6 -5 -6 6 -1 11 2 17
5 13 3 -3 4 -12 1 -19z"/>
<path fill="#ffffff" stroke="none" d="M161 153 c13 -16 12 -17 -3 -4 -10 7
-18 15 -18 17 0 8 8 3 21 -13z"/>
<path fill="#ffffff" stroke="none" d="M297 133 c-3 -10 -5 -4 -5 12 0 17 2
24 5 18 2 -7 2 -21 0 -30z"/>
<path fill="#ffffff" stroke="none" d="M150 116 c-1 -21 -1 -21 -15 -2 -21 27
-20 53 0 36 8 -7 15 -22 15 -34z"/>
<path fill="#ffffff" stroke="none" d="M185 130 c-5 -16 -2 -20 19 -20 14 0
27 -3 29 -7 3 -5 -12 -8 -33 -8 -37 -1 -37 0 -28 27 11 32 23 39 13 8z"/>
<path fill="#ffffff" stroke="none" d="M98 59 c-22 -14 -24 -11 -20 28 l5 37
14 -29 c13 -23 13 -29 1 -36z"/>
<path fill="#ffffff" stroke="none" d="M154 64 c3 -9 1 -12 -5 -9 -5 4 -18 1
-27 -7 -15 -12 -16 -11 -4 4 8 9 11 22 7 27 -3 6 0 8 9 5 8 -3 17 -12 20 -20z"/>
<path fill="#ffffff" stroke="none" d="M215 80 c3 -6 -1 -13 -10 -16 -19 -8
-30 0 -20 15 8 14 22 14 30 1z"/>
<path fill="#ffffff" stroke="none" d="M270 75 c0 -2 -6 -8 -13 -14 -10 -8
-14 -7 -14 2 0 8 6 14 14 14 7 0 13 -1 13 -2z"/>
<path fill="#ffffff" stroke="none" d="M227 44 c-3 -3 -12 -4 -19 -1 -8 3 -5
6 6 6 11 1 17 -2 13 -5z"/>
<path fill="#ffffff" stroke="none" d="M188 13 c-15 -2 -42 -2 -60 0 -18 2 -6
4 27 4 33 0 48 -2 33 -4z"/>
</g>
</svg>
