<?xml version="1.0" standalone="no"?>
<!DOCTYPE svg PUBLIC "-//W3C//DTD SVG 20010904//EN"
 "http://www.w3.org/TR/2001/REC-SVG-20010904/DTD/svg10.dtd">
<svg version="1.0" xmlns="http://www.w3.org/2000/svg"
 width="32.000000pt" height="32.000000pt" viewBox="0 0 32.000000 32.000000"
 preserveAspectRatio="xMidYMid meet">
<metadata>
Created by potrace 1.16, written by Peter Selinger 2001-2019
</metadata>
<g transform="translate(0.000000,32.000000) scale(0.100000,-0.100000)"
fill="#000000" stroke="none">
<path fill="#000000" stroke="none" d="M20 310 c0 -5 4 -10 8 -10 5 0 14 -23
21 -50 14 -55 5 -115 -30 -197 -11 -25 -14 -45 -9 -48 6 -4 10 -2 10 3 0 15
103 62 135 62 17 0 39 -7 49 -15 31 -23 42 -18 18 8 -27 28 -29 79 -5 139 26
69 32 65 26 -20 -3 -46 -1 -93 5 -110 13 -38 7 -41 -73 -34 -42 3 -70 -1 -95
-12 -24 -11 -27 -14 -10 -11 68 16 103 16 170 1 73 -17 105 -15 57 3 -19 7
-29 22 -38 53 -13 50 -6 173 12 194 6 8 8 14 3 14 -5 1 2 10 15 20 28 24 15
27 -18 3 -21 -14 -25 -15 -35 -1 -7 10 -18 13 -31 8 -51 -18 -114 -21 -144 -6
-35 19 -41 19 -41 6z"/>
<path fill="#ffffff" stroke="none" d="M96 211 c2 -23 -1 -60 -6 -84 -6 -23
-12 -48 -14 -55 -2 -13 -46 -48 -46 -37 0 3 9 34 21 68 21 61 22 124 4 172 -7
19 -7 19 15 -2 14 -13 24 -36 26 -62z"/>
<path fill="#ffffff" stroke="none" d="M170 275 c-29 -16 -66 -19 -75 -6 -5 8
15 13 85 19 8 1 4 -5 -10 -13z"/>
<path fill="#ffffff" stroke="none" d="M235 281 c7 -12 -12 -24 -25 -16 -11 7
-4 25 10 25 5 0 11 -4 15 -9z"/>
<path fill="#ffffff" stroke="none" d="M163 214 l-16 -47 -13 29 -14 29 6 -30
c3 -16 10 -33 16 -36 6 -4 8 -15 3 -25 -7 -18 -8 -18 -15 1 -7 16 -8 13 -7
-12 2 -28 4 -30 18 -17 15 13 19 13 33 -1 24 -24 21 -26 -34 -23 -40 2 -49 6
-44 18 8 20 22 133 18 142 -3 4 8 9 23 11 16 2 31 5 35 6 4 0 0 -20 -9 -45z"/>
<path fill="#ffffff" stroke="none" d="M207 242 c0 -10 -7 -19 -14 -19 -15 0
-15 0 -7 21 8 22 23 20 21 -2z"/>
<path fill="#ffffff" stroke="none" d="M193 163 c-5 -42 -23 -51 -23 -12 0 17
21 61 26 56 2 -1 0 -21 -3 -44z"/>
<path fill="#000000" stroke="none" d="M141 224 c0 -11 3 -14 6 -6 3 7 2 16
-1 19 -3 4 -6 -2 -5 -13z"/>
<path fill="#000000" stroke="none" d="M98 313 c18 -2 45 -2 60 0 15 2 0 4
-33 4 -33 0 -45 -2 -27 -4z"/>
<path fill="#000000" stroke="none" d="M297 286 c-19 -19 -41 -138 -33 -173
12 -51 28 -83 42 -83 11 0 14 27 14 135 0 74 -2 135 -4 135 -3 0 -11 -7 -19
-14z"/>
<path fill="#000000" stroke="none" d="M7 284 c-4 -4 -7 -59 -6 -123 l1 -116
18 50 c10 28 19 70 19 95 0 48 -19 106 -32 94z"/>
<path fill="#000000" stroke="none" d="M210 129 c0 -13 5 -31 10 -39 7 -11 8
-5 4 20 -8 43 -14 51 -14 19z"/>
<path fill="#000000" stroke="none" d="M120 10 c-18 -6 -7 -8 40 -8 47 0 58 2
40 8 -14 4 -32 8 -40 8 -8 0 -26 -4 -40 -8z"/>
</g>
</svg>
