<?xml version="1.0" standalone="no"?>
<!DOCTYPE svg PUBLIC "-//W3C//DTD SVG 20010904//EN"
 "http://www.w3.org/TR/2001/REC-SVG-20010904/DTD/svg10.dtd">
<svg version="1.0" xmlns="http://www.w3.org/2000/svg"
 width="32.000000pt" height="32.000000pt" viewBox="0 0 32.000000 32.000000"
 preserveAspectRatio="xMidYMid meet">
<metadata>
Created by potrace 1.16, written by Peter Selinger 2001-2019
</metadata>
<g transform="translate(0.000000,32.000000) scale(0.100000,-0.100000)"
fill="#000000" stroke="none">
<path fill="#000000" stroke="none" d="M0 295 c0 -14 6 -41 14 -60 30 -72 32
-198 3 -192 -6 1 -13 -8 -15 -21 l-3 -22 160 0 160 0 -1 160 c-1 128 -3 160
-14 160 -8 0 -14 -5 -14 -11 0 -7 -17 -9 -52 -4 -29 3 -95 8 -145 11 l-93 5 0
-26z"/>
<path fill="#ffffff" stroke="none" d="M150 116 c-1 -21 -1 -21 -15 -2 -21 27
-20 53 0 36 8 -7 15 -22 15 -34z"/>
<path fill="#ffffff" stroke="none" d="M98 59 c-22 -14 -24 -11 -20 28 l5 37
14 -29 c13 -23 13 -29 1 -36z"/>
<path fill="#ffffff" stroke="none" d="M215 80 c3 -6 -1 -13 -10 -16 -19 -8
-30 0 -20 15 8 14 22 14 30 1z"/>
</g>
</svg>
