<?xml version="1.0" standalone="no"?>
<!DOCTYPE svg PUBLIC "-//W3C//DTD SVG 20010904//EN"
 "http://www.w3.org/TR/2001/REC-SVG-20010904/DTD/svg10.dtd">
<svg version="1.0" xmlns="http://www.w3.org/2000/svg"
 width="32.000000pt" height="32.000000pt" viewBox="0 0 32.000000 32.000000"
 preserveAspectRatio="xMidYMid meet">
<metadata>
Created by potrace 1.16, written by Peter Selinger 2001-2019
</metadata>
<g transform="translate(0.000000,32.000000) scale(0.100000,-0.100000)"
fill="#000000" stroke="none">
<path fill="#000000" stroke="none" d="M3 158 c1 -90 3 -155 5 -145 2 9 8 15
13 11 5 -3 6 -10 3 -16 -5 -7 2 -9 22 -4 98 24 142 24 242 1 28 -7 32 -5 32
13 0 11 -10 26 -22 34 -18 12 -23 25 -23 64 -1 43 -4 49 -23 49 -33 0 -80 50
-88 93 -10 58 -25 74 -22 25 1 -23 -1 -45 -5 -49 -6 -6 -12 54 -8 79 2 11 -27
9 -34 -3 -3 -5 -19 -10 -35 -10 -16 0 -32 5 -35 10 -18 30 -24 -6 -22 -152z"/>
<path fill="#ffffff" stroke="none" d="M30 286 c0 -3 -4 -8 -10 -11 -5 -3 -10
-1 -10 4 0 6 5 11 10 11 6 0 10 -2 10 -4z"/>
<path fill="#ffffff" stroke="none" d="M110 250 c0 -5 -13 -10 -29 -10 -17 0
-33 5 -36 10 -4 6 8 10 29 10 20 0 36 -4 36 -10z"/>
<path fill="#ffffff" stroke="none" d="M27 213 c-3 -10 -5 -4 -5 12 0 17 2 24
5 18 2 -7 2 -21 0 -30z"/>
<path fill="#ffffff" stroke="none" d="M164 214 c3 -8 2 -12 -4 -9 -6 3 -10
10 -10 16 0 14 7 11 14 -7z"/>
<path fill="#ffffff" stroke="none" d="M141 193 c18 -20 19 -24 4 -13 -11 8
-22 18 -25 21 -3 4 -16 9 -30 12 l-25 4 26 2 c16 1 34 -9 50 -26z"/>
<path fill="#ffffff" stroke="none" d="M100 184 c0 -10 -7 -14 -22 -12 -32 5
-35 28 -4 28 17 0 26 -5 26 -16z"/>
<path fill="#ffffff" stroke="none" d="M52 152 c-18 -6 -14 -40 6 -45 13 -4
11 -5 -5 -6 -20 -1 -23 4 -23 34 0 28 3 33 17 28 11 -4 12 -8 5 -11z"/>
<path fill="#ffffff" stroke="none" d="M135 160 c3 -5 0 -10 -8 -10 -8 0 -17
-9 -20 -20 -3 -11 -11 -20 -19 -19 -10 0 -10 2 0 6 17 7 15 21 -5 26 -14 4
-12 5 5 6 12 0 22 6 22 11 0 6 4 10 9 10 6 0 13 -4 16 -10z"/>
<path fill="#ffffff" stroke="none" d="M249 145 c7 3 8 0 5 -9 -8 -22 -17 -20
-33 7 -13 20 -13 21 2 9 9 -8 21 -11 26 -7z"/>
<path fill="#ffffff" stroke="none" d="M155 102 c-3 -3 -11 0 -18 7 -9 10 -8
11 6 5 10 -3 15 -9 12 -12z"/>
<path fill="#ffffff" stroke="none" d="M155 80 c5 0 17 8 27 17 15 13 21 14
31 4 10 -10 8 -12 -8 -9 -13 2 -20 -2 -19 -12 1 -11 -10 -15 -35 -16 -20 0
-30 1 -23 4 10 3 9 9 -5 26 -18 21 -18 21 3 4 11 -10 24 -18 29 -18z"/>
<path fill="#ffffff" stroke="none" d="M75 70 c-4 -6 -1 -18 7 -27 11 -15 11
-16 -4 -10 -10 3 -18 2 -18 -3 0 -6 -5 -10 -10 -10 -6 0 -4 13 5 30 9 17 18
30 21 30 3 0 2 -5 -1 -10z"/>
<path fill="#ffffff" stroke="none" d="M27 48 c-3 -8 -6 -5 -6 6 -1 11 2 17 5
13 3 -3 4 -12 1 -19z"/>
<path fill="#ffffff" stroke="none" d="M225 50 c4 -6 -15 -9 -52 -8 l-58 1 50
7 c28 4 51 8 52 8 1 1 5 -2 8 -8z"/>
<path fill="#ffffff" stroke="none" d="M295 30 c10 -11 13 -20 7 -20 -6 0 -16
9 -22 20 -14 25 -8 25 15 0z"/>
</g>
</svg>
