<?xml version="1.0" standalone="no"?>
<!DOCTYPE svg PUBLIC "-//W3C//DTD SVG 20010904//EN"
 "http://www.w3.org/TR/2001/REC-SVG-20010904/DTD/svg10.dtd">
<svg version="1.0" xmlns="http://www.w3.org/2000/svg"
 width="32.000000pt" height="32.000000pt" viewBox="0 0 32.000000 32.000000"
 preserveAspectRatio="xMidYMid meet">
<metadata>
Created by potrace 1.16, written by Peter Selinger 2001-2019
</metadata>
<g transform="translate(0.000000,32.000000) scale(0.100000,-0.100000)"
fill="#000000" stroke="none">
<path fill="#000000" stroke="none" d="M6 283 c-3 -21 -6 -93 -6 -160 0 -113
1 -123 19 -123 17 0 18 8 16 82 -1 46 1 103 5 128 5 27 4 50 -2 57 -12 15 -2
33 20 33 9 0 24 5 32 10 11 7 2 10 -31 10 -46 0 -46 0 -53 -37z"/>
<path fill="#000000" stroke="none" d="M83 225 c-3 -9 -3 -18 -1 -21 3 -3 8 4
11 16 6 23 -1 27 -10 5z"/>
<path fill="#000000" stroke="none" d="M72 150 c0 -14 2 -19 5 -12 2 6 2 18 0
25 -3 6 -5 1 -5 -13z"/>
<path fill="#000000" stroke="none" d="M100 80 c8 -5 26 -10 39 -10 32 0 24 6
-19 14 -25 4 -31 3 -20 -4z"/>
<path fill="#000000" stroke="none" d="M67 21 c-5 -19 -1 -21 44 -21 37 0 49
4 49 15 0 9 -9 15 -22 15 -13 0 -33 3 -44 6 -16 4 -23 0 -27 -15z"/>
</g>
</svg>
