<?xml version="1.0" standalone="no"?>
<!DOCTYPE svg PUBLIC "-//W3C//DTD SVG 20010904//EN"
 "http://www.w3.org/TR/2001/REC-SVG-20010904/DTD/svg10.dtd">
<svg version="1.0" xmlns="http://www.w3.org/2000/svg"
 width="32.000000pt" height="32.000000pt" viewBox="0 0 32.000000 32.000000"
 preserveAspectRatio="xMidYMid meet">
<metadata>
Created by potrace 1.16, written by Peter Selinger 2001-2019
</metadata>
<g transform="translate(0.000000,32.000000) scale(0.100000,-0.100000)"
fill="#000000" stroke="none">
<path fill="#000000" stroke="none" d="M4 247 c0 -48 1 -60 6 -37 5 32 6 30
13 -25 7 -54 -4 -152 -18 -176 -9 -14 8 -11 46 8 48 25 190 24 239 -2 34 -18
35 -18 20 1 -8 10 -22 27 -31 37 -20 21 -31 69 -23 94 5 15 4 16 -5 3 -9 -13
-18 -8 -55 31 -35 36 -46 56 -51 93 -8 51 -10 53 -31 31 -20 -19 -90 -20 -101
-1 -5 9 -8 -16 -9 -57z"/>
<path fill="#ffffff" stroke="none" d="M130 255 c0 -33 -2 -35 -35 -35 -22 0
-43 8 -55 20 -26 26 -25 38 3 33 12 -2 33 0 47 6 38 15 40 14 40 -24z"/>
<path fill="#ffffff" stroke="none" d="M189 166 c21 -23 22 -26 6 -18 -33 17
-68 59 -60 73 6 8 11 6 18 -7 5 -11 21 -32 36 -48z"/>
<path fill="#ffffff" stroke="none" d="M119 204 c9 -8 -20 -54 -34 -54 -19 0
-55 35 -55 54 0 11 10 13 43 9 23 -3 44 -7 46 -9z"/>
<path fill="#ffffff" stroke="none" d="M201 130 c5 0 9 -4 9 -10 0 -5 -4 -10
-9 -10 -14 0 -71 50 -71 62 0 5 14 -2 31 -16 17 -14 35 -26 40 -26z"/>
<path fill="#ffffff" stroke="none" d="M88 140 c15 -1 14 -3 -2 -15 -28 -21
-46 -19 -46 6 0 15 4 19 16 15 9 -3 23 -6 32 -6z"/>
<path fill="#ffffff" stroke="none" d="M165 91 c-16 -16 -33 -7 -45 23 -12 33
-1 38 30 14 23 -19 26 -25 15 -37z"/>
<path fill="#ffffff" stroke="none" d="M257 68 c12 -26 12 -28 -6 -28 -29 0
-45 34 -30 62 10 18 13 19 17 8 3 -8 11 -27 19 -42z"/>
<path fill="#ffffff" stroke="none" d="M120 91 c8 -16 5 -21 -20 -30 l-30 -10
15 30 c18 34 21 35 35 10z"/>
<path fill="#ffffff" stroke="none" d="M71 82 c-12 -23 -41 -48 -41 -36 1 30
15 54 32 54 15 0 17 -4 9 -18z"/>
<path fill="#ffffff" stroke="none" d="M203 69 c4 -16 3 -18 -9 -8 -16 13 -19
29 -5 29 5 0 11 -9 14 -21z"/>
<path fill="#ffffff" stroke="none" d="M180 54 c0 -2 -15 -4 -32 -3 -27 0 -29
2 -13 8 18 8 45 4 45 -5z"/>
<path fill="#000000" stroke="none" d="M45 250 c3 -5 19 -10 36 -10 16 0 29 5
29 10 0 6 -16 10 -36 10 -21 0 -33 -4 -29 -10z"/>
<path fill="#000000" stroke="none" d="M52 188 c7 -20 48 -23 48 -4 0 11 -9
16 -26 16 -16 0 -24 -5 -22 -12z"/>
<path fill="#000000" stroke="none" d="M137 109 c7 -7 15 -10 18 -7 3 3 -2 9
-12 12 -14 6 -15 5 -6 -5z"/>
<path fill="#000000" stroke="none" d="M25 310 c3 -5 19 -10 35 -10 16 0 32 5
35 10 4 6 -10 10 -35 10 -25 0 -39 -4 -35 -10z"/>
<path fill="#000000" stroke="none" d="M154 303 c2 -10 7 -33 11 -50 8 -39 57
-88 88 -88 16 0 21 -5 20 -20 -5 -39 8 -85 27 -95 19 -10 20 -7 20 130 l0 140
-86 0 c-76 0 -85 -2 -80 -17z"/>
<path fill="#000000" stroke="none" d="M3 90 c0 -25 2 -35 4 -22 2 12 2 32 0
45 -2 12 -4 2 -4 -23z"/>
<path fill="#000000" stroke="none" d="M113 20 c-81 -12 -56 -20 58 -19 67 0
106 4 94 8 -31 12 -105 18 -152 11z"/>
</g>
</svg>
