<?xml version="1.0" standalone="no"?>
<!DOCTYPE svg PUBLIC "-//W3C//DTD SVG 20010904//EN"
 "http://www.w3.org/TR/2001/REC-SVG-20010904/DTD/svg10.dtd">
<svg version="1.0" xmlns="http://www.w3.org/2000/svg"
 width="32.000000pt" height="32.000000pt" viewBox="0 0 32.000000 32.000000"
 preserveAspectRatio="xMidYMid meet">
<metadata>
Created by potrace 1.16, written by Peter Selinger 2001-2019
</metadata>
<g transform="translate(0.000000,32.000000) scale(0.100000,-0.100000)"
fill="#000000" stroke="none">
<path fill="#000000" stroke="none" d="M130 296 c-48 -18 -110 -56 -110 -67 0
-5 5 -18 12 -28 8 -14 8 -29 -1 -62 -26 -92 -27 -86 18 -94 23 -4 47 -15 54
-25 10 -14 28 -18 95 -19 l82 -1 0 155 0 155 -57 -1 c-32 0 -74 -6 -93 -13z"/>
<path fill="#ffffff" stroke="none" d="M217 275 c0 -9 -4 -11 -11 -6 -6 4 -18
11 -26 14 -9 3 -5 6 11 6 16 1 26 -4 26 -14z"/>
<path fill="#ffffff" stroke="none" d="M156 209 c-9 -19 -15 -28 -16 -20 0 11
-4 10 -16 -5 -8 -10 -13 -14 -10 -7 4 6 -2 14 -11 16 -15 4 -14 5 3 6 12 0 27
8 34 16 10 12 9 15 -6 16 -14 1 -12 3 6 8 14 4 26 7 28 6 1 -1 -4 -17 -12 -36z"/>
<path fill="#ffffff" stroke="none" d="M69 214 c6 4 11 0 11 -9 0 -9 -4 -13
-10 -10 -6 4 -10 -7 -10 -26 0 -43 -6 -34 -13 20 -3 25 -2 39 3 32 4 -8 13
-10 19 -7z"/>
<path fill="#ffffff" stroke="none" d="M237 183 c-3 -10 -5 -4 -5 12 0 17 2
24 5 18 2 -7 2 -21 0 -30z"/>
<path fill="#ffffff" stroke="none" d="M99 154 c4 3 7 -4 8 -14 1 -13 -3 -17
-13 -13 -8 3 -14 15 -13 27 0 11 3 15 6 8 2 -6 8 -10 12 -8z"/>
<path fill="#ffffff" stroke="none" d="M163 143 c-7 -2 -19 -2 -25 0 -7 3 -2
5 12 5 14 0 19 -2 13 -5z"/>
<path fill="#ffffff" stroke="none" d="M210 146 c0 -11 -19 -15 -25 -6 -3 5 1
10 9 10 9 0 16 -2 16 -4z"/>
<path fill="#ffffff" stroke="none" d="M250 128 c0 -13 -23 -5 -28 10 -2 7 2
10 12 6 9 -3 16 -11 16 -16z"/>
<path fill="#ffffff" stroke="none" d="M67 116 c0 -7 -8 -18 -18 -24 -15 -10
-17 -9 -12 6 5 13 20 30 29 32 0 0 1 -6 1 -14z"/>
<path fill="#ffffff" stroke="none" d="M57 64 c-3 -3 -12 -4 -19 -1 -8 3 -5 6
6 6 11 1 17 -2 13 -5z"/>
<path fill="#ffffff" stroke="none" d="M170 50 c-6 -11 -13 -20 -16 -20 -2 0
0 9 6 20 6 11 13 20 16 20 2 0 0 -9 -6 -20z"/>
<path fill="#ffffff" stroke="none" d="M133 42 c3 7 4 3 4 -9 -1 -13 -4 -23
-7 -23 -3 0 -11 10 -19 23 -13 20 -13 21 1 9 13 -10 17 -10 21 0z"/>
<path fill="#000000" stroke="none" d="M1 14 c0 -11 3 -14 6 -6 3 7 2 16 -1
19 -3 4 -6 -2 -5 -13z"/>
</g>
</svg>
