<?xml version="1.0" standalone="no"?>
<!DOCTYPE svg PUBLIC "-//W3C//DTD SVG 20010904//EN"
 "http://www.w3.org/TR/2001/REC-SVG-20010904/DTD/svg10.dtd">
<svg version="1.0" xmlns="http://www.w3.org/2000/svg"
 width="32.000000pt" height="32.000000pt" viewBox="0 0 32.000000 32.000000"
 preserveAspectRatio="xMidYMid meet">
<metadata>
Created by potrace 1.16, written by Peter Selinger 2001-2019
</metadata>
<g transform="translate(0.000000,32.000000) scale(0.100000,-0.100000)"
fill="#000000" stroke="none">
<path fill="#000000" stroke="none" d="M242 308 c-8 -8 -53 -14 -115 -16 -56
-2 -106 -8 -111 -13 -6 -5 -2 -17 10 -30 28 -31 26 -143 -4 -191 -25 -40 -30
-68 -9 -46 22 22 47 108 47 163 0 39 -6 60 -22 80 l-22 28 38 -6 c53 -9 187
10 205 28 9 8 11 15 5 15 -5 0 -15 -5 -22 -12z"/>
<path fill="#000000" stroke="none" d="M282 313 c1 -5 -2 -24 -6 -44 -8 -39
10 -150 25 -160 5 -3 -8 -17 -28 -30 -22 -14 -37 -32 -37 -42 2 -19 -11 -23
-21 -7 -8 13 -71 13 -115 -1 -19 -5 -43 -12 -54 -14 -10 -3 -21 -7 -25 -11 -7
-7 27 -2 111 17 52 12 59 11 77 -5 17 -15 24 -16 35 -7 8 7 12 19 9 26 -3 9 9
22 31 36 41 24 41 25 20 68 -17 33 -22 121 -10 159 5 13 3 22 -3 22 -6 0 -10
-3 -9 -7z"/>
<path fill="#000000" stroke="none" d="M215 270 c-16 -4 -59 -8 -95 -9 -52 -1
-61 -4 -46 -12 28 -17 143 -7 163 14 10 9 15 16 13 16 -3 -1 -18 -5 -35 -9z"/>
<path fill="#000000" stroke="none" d="M251 214 c-1 -53 9 -104 21 -104 5 0 6
10 2 22 -4 12 -10 45 -14 73 l-8 50 -1 -41z"/>
<path fill="#000000" stroke="none" d="M190 229 c-19 -4 -50 -6 -67 -3 -38 7
-45 -9 -12 -26 29 -16 97 -3 109 21 6 10 9 19 8 18 -2 -1 -19 -5 -38 -10z"/>
<path fill="#000000" stroke="none" d="M74 194 c6 -20 -5 -100 -20 -139 -8
-19 -7 -19 16 -4 38 24 51 59 40 101 -6 20 -18 42 -27 49 -14 12 -15 11 -9 -7z"/>
<path fill="#ffffff" stroke="none" d="M87 83 c-13 -13 -13 -9 -3 34 11 47 11
47 14 14 2 -20 -2 -40 -11 -48z"/>
<path fill="#000000" stroke="none" d="M222 166 c2 -22 8 -41 15 -43 8 -3 9 6
3 32 -12 51 -22 57 -18 11z"/>
<path fill="#000000" stroke="none" d="M161 181 c-29 -5 -32 -8 -19 -19 13
-10 20 -9 39 8 13 10 22 19 19 18 -3 0 -20 -3 -39 -7z"/>
<path fill="#000000" stroke="none" d="M191 156 c-7 -8 -8 -17 -3 -20 6 -3 12
3 15 14 6 24 4 25 -12 6z"/>
<path fill="#000000" stroke="none" d="M128 135 c5 -29 8 -31 15 -11 3 8 0 19
-7 25 -10 9 -12 6 -8 -14z"/>
<path fill="#000000" stroke="none" d="M174 114 c3 -8 6 -18 6 -20 0 -3 5 -2
10 1 15 9 12 22 -6 29 -12 5 -15 2 -10 -10z"/>
<path fill="#000000" stroke="none" d="M203 84 c-11 -29 12 -35 37 -9 l23 25
-27 0 c-15 0 -29 -7 -33 -16z"/>
<path fill="#000000" stroke="none" d="M108 63 c-16 -17 -14 -18 33 -15 32 3
49 8 46 15 -6 20 -61 20 -79 0z"/>
</g>
</svg>
