<?xml version="1.0" standalone="no"?>
<!DOCTYPE svg PUBLIC "-//W3C//DTD SVG 20010904//EN"
 "http://www.w3.org/TR/2001/REC-SVG-20010904/DTD/svg10.dtd">
<svg version="1.0" xmlns="http://www.w3.org/2000/svg"
 width="32.000000pt" height="32.000000pt" viewBox="0 0 32.000000 32.000000"
 preserveAspectRatio="xMidYMid meet">
<metadata>
Created by potrace 1.16, written by Peter Selinger 2001-2019
</metadata>
<g transform="translate(0.000000,32.000000) scale(0.100000,-0.100000)"
fill="#000000" stroke="none">
<path fill="#000000" stroke="none" d="M0 296 c0 -14 5 -28 10 -31 6 -4 8 -10
5 -14 -2 -5 -7 -64 -10 -131 l-5 -122 32 6 c138 26 179 28 203 12 47 -31 109
-14 75 20 -8 8 -8 19 0 38 5 15 10 77 10 138 l0 111 -33 -7 c-67 -15 -137 -18
-149 -9 -7 6 -41 11 -75 12 -60 1 -63 0 -63 -23z"/>
<path fill="#ffffff" stroke="none" d="M133 283 c-7 -2 -19 -2 -25 0 -7 3 -2
5 12 5 14 0 19 -2 13 -5z"/>
<path fill="#ffffff" stroke="none" d="M187 274 c-3 -3 -12 -4 -19 -1 -8 3 -5
6 6 6 11 1 17 -2 13 -5z"/>
<path fill="#ffffff" stroke="none" d="M253 249 c-7 -7 -21 -7 -44 -1 l-34 10
45 1 c31 1 41 -2 33 -10z"/>
<path fill="#ffffff" stroke="none" d="M118 179 c-3 -8 -7 -3 -11 10 -4 17 -3
21 5 13 5 -5 8 -16 6 -23z"/>
<path fill="#ffffff" stroke="none" d="M51 127 c-13 -13 -14 5 -3 43 l7 25 3
-29 c2 -16 -1 -33 -7 -39z"/>
<path fill="#ffffff" stroke="none" d="M241 117 c-13 -13 -15 11 -4 40 7 16 8
15 11 -6 2 -13 -1 -28 -7 -34z"/>
<path fill="#ffffff" stroke="none" d="M170 110 c11 -7 7 -10 -18 -10 -20 0
-31 4 -27 10 8 13 26 13 45 0z"/>
<path fill="#ffffff" stroke="none" d="M113 63 c-7 -2 -19 -2 -25 0 -7 3 -2 5
12 5 14 0 19 -2 13 -5z"/>
</g>
</svg>
