<?xml version="1.0" standalone="no"?>
<!DOCTYPE svg PUBLIC "-//W3C//DTD SVG 20010904//EN"
 "http://www.w3.org/TR/2001/REC-SVG-20010904/DTD/svg10.dtd">
<svg version="1.0" xmlns="http://www.w3.org/2000/svg"
 width="32.000000pt" height="32.000000pt" viewBox="0 0 32.000000 32.000000"
 preserveAspectRatio="xMidYMid meet">
<metadata>
Created by potrace 1.16, written by Peter Selinger 2001-2019
</metadata>
<g transform="translate(0.000000,32.000000) scale(0.100000,-0.100000)"
fill="#000000" stroke="none">
<path fill="#000000" stroke="none" d="M10 308 c0 -9 4 -19 10 -23 5 -3 7 -13
4 -23 -5 -14 -4 -15 5 -2 9 13 11 12 12 -5 0 -11 3 -15 5 -9 7 17 72 -5 77
-25 4 -13 5 -13 6 2 2 25 16 21 30 -9 12 -26 6 -49 -10 -39 -5 3 -6 -1 -3 -9
10 -25 22 -19 34 19 12 36 30 39 30 5 0 -25 16 -34 24 -14 3 8 2 13 -3 10 -9
-6 -21 26 -21 57 0 12 4 16 13 11 8 -5 7 -2 -2 9 -13 16 -16 16 -37 2 -44 -29
-139 -8 -161 35 -9 17 -13 20 -13 8z"/>
<path fill="#ffffff" stroke="none" d="M188 225 c-10 -22 -13 -23 -20 -10 -11
18 -2 35 17 35 12 0 12 -5 3 -25z"/>
<path fill="#000000" stroke="none" d="M42 308 c3 -7 26 -20 51 -29 44 -16 49
-16 81 1 31 15 38 16 56 3 18 -13 24 -13 45 1 14 9 25 21 25 26 0 6 -52 10
-131 10 -99 0 -130 -3 -127 -12z"/>
<path fill="#000000" stroke="none" d="M300 281 c-10 -11 -13 -25 -9 -41 7
-24 7 -24 9 5 1 26 3 27 10 10 7 -17 9 -15 9 13 1 36 1 36 -19 13z"/>
<path fill="#000000" stroke="none" d="M253 245 c-3 -9 -3 -18 -1 -21 3 -3 8
4 11 16 6 23 -1 27 -10 5z"/>
<path fill="#000000" stroke="none" d="M71 224 c0 -11 3 -14 6 -6 3 7 2 16 -1
19 -3 4 -6 -2 -5 -13z"/>
<path fill="#000000" stroke="none" d="M101 213 c-1 -19 21 -63 32 -63 5 0 5
6 -1 13 -6 7 -16 24 -21 38 -5 13 -10 19 -10 12z"/>
<path fill="#000000" stroke="none" d="M12 185 c0 -16 2 -22 5 -12 2 9 2 23 0
30 -3 6 -5 -1 -5 -18z"/>
<path fill="#000000" stroke="none" d="M61 170 c0 -8 6 -30 13 -49 10 -27 14
-31 19 -18 4 10 -2 31 -13 50 -11 17 -20 25 -19 17z"/>
<path fill="#000000" stroke="none" d="M311 164 c0 -11 3 -14 6 -6 3 7 2 16
-1 19 -3 4 -6 -2 -5 -13z"/>
<path fill="#000000" stroke="none" d="M130 125 c-7 -9 -8 -15 -2 -15 5 0 12
7 16 15 3 8 4 15 2 15 -2 0 -9 -7 -16 -15z"/>
<path fill="#000000" stroke="none" d="M228 135 c-3 -6 2 -18 11 -27 16 -16
17 -16 17 2 0 10 -3 17 -7 14 -4 -2 -9 1 -11 8 -3 7 -7 8 -10 3z"/>
<path fill="#000000" stroke="none" d="M144 99 c-7 -11 45 -20 63 -11 12 7 7
10 -21 14 -21 2 -39 1 -42 -3z"/>
<path fill="#000000" stroke="none" d="M87 74 c-27 -24 -28 -45 -4 -43 8 0 8
2 -1 6 -10 4 -8 11 9 29 18 20 25 22 38 11 14 -11 14 -10 2 6 -7 9 -14 17 -15
17 -1 0 -14 -12 -29 -26z"/>
<path fill="#000000" stroke="none" d="M306 74 c-4 -15 -2 -32 3 -37 8 -8 11
0 11 26 0 44 -5 47 -14 11z"/>
<path fill="#000000" stroke="none" d="M2 60 c0 -19 2 -27 5 -17 2 9 2 25 0
35 -3 9 -5 1 -5 -18z"/>
<path fill="#000000" stroke="none" d="M276 63 c-4 -9 -3 -20 1 -24 4 -4 9 3
9 17 2 28 -1 31 -10 7z"/>
<path fill="#000000" stroke="none" d="M110 56 c0 -11 8 -16 28 -15 15 0 21 3
12 6 -8 3 -21 10 -27 16 -9 7 -13 5 -13 -7z"/>
<path fill="#000000" stroke="none" d="M163 63 c9 -2 25 -2 35 0 9 3 1 5 -18
5 -19 0 -27 -2 -17 -5z"/>
<path fill="#000000" stroke="none" d="M220 50 l-25 -8 28 -1 c15 -1 27 4 27
9 0 6 -1 10 -2 9 -2 -1 -14 -5 -28 -9z"/>
<path fill="#000000" stroke="none" d="M34 43 c3 -6 -2 -16 -11 -22 -10 -6
-13 -10 -8 -11 6 0 17 5 25 10 13 8 13 11 1 22 -9 8 -12 9 -7 1z"/>
<path fill="#000000" stroke="none" d="M50 10 c-11 -7 -6 -10 20 -10 26 0 31
3 20 10 -8 5 -17 10 -20 10 -3 0 -12 -5 -20 -10z"/>
<path fill="#000000" stroke="none" d="M163 13 c9 -2 25 -2 35 0 9 3 1 5 -18
5 -19 0 -27 -2 -17 -5z"/>
<path fill="#000000" stroke="none" d="M258 3 c7 -3 16 -2 19 1 4 3 -2 6 -13
5 -11 0 -14 -3 -6 -6z"/>
</g>
</svg>
