<?xml version="1.0" standalone="no"?>
<!DOCTYPE svg PUBLIC "-//W3C//DTD SVG 20010904//EN"
 "http://www.w3.org/TR/2001/REC-SVG-20010904/DTD/svg10.dtd">
<svg version="1.0" xmlns="http://www.w3.org/2000/svg"
 width="32.000000pt" height="32.000000pt" viewBox="0 0 32.000000 32.000000"
 preserveAspectRatio="xMidYMid meet">
<metadata>
Created by potrace 1.16, written by Peter Selinger 2001-2019
</metadata>
<g transform="translate(0.000000,32.000000) scale(0.100000,-0.100000)"
fill="#000000" stroke="none">
<path fill="#000000" stroke="none" d="M85 290 c-3 -5 -1 -20 6 -32 10 -18 8
-24 -11 -40 -12 -10 -30 -18 -40 -18 -34 0 -43 -24 -30 -83 10 -42 10 -59 0
-77 -10 -18 -9 -21 2 -18 14 5 17 72 4 124 -7 28 -5 32 16 37 14 4 37 16 52
28 23 18 26 26 20 51 -4 21 -3 28 5 24 6 -4 11 -13 11 -20 0 -12 69 -56 88
-56 6 0 28 11 48 25 20 14 40 23 43 20 3 -4 -1 -10 -8 -14 -18 -12 -26 -129
-12 -174 7 -19 18 -38 26 -41 20 -7 19 4 -2 20 -27 19 -26 168 1 187 24 18 12
40 -17 31 -12 -3 -32 -15 -43 -26 -28 -25 -63 -16 -106 28 -35 36 -43 40 -53
24z"/>
<path fill="#000000" stroke="none" d="M130 205 c0 -13 10 -27 25 -35 22 -12
28 -12 41 2 14 14 11 17 -25 35 l-41 20 0 -22z"/>
<path fill="#ffffff" stroke="none" d="M174 194 c9 -3 16 -10 16 -15 0 -14
-26 -10 -40 6 -13 16 -3 20 24 9z"/>
<path fill="#000000" stroke="none" d="M247 203 c-9 -8 -9 -110 -1 -140 11
-42 22 -24 12 19 -5 24 -7 62 -4 86 6 43 5 47 -7 35z"/>
<path fill="#000000" stroke="none" d="M67 180 c-32 -20 -22 -34 18 -24 16 4
25 13 25 25 0 23 -7 23 -43 -1z"/>
<path fill="#000000" stroke="none" d="M202 140 c-7 -11 -8 -20 -3 -20 4 0 12
-19 16 -42 10 -60 17 -33 8 30 -7 48 -9 51 -21 32z"/>
<path fill="#000000" stroke="none" d="M37 129 c4 -13 8 -18 11 -10 2 7 -1 18
-6 23 -8 8 -9 4 -5 -13z"/>
<path fill="#000000" stroke="none" d="M98 142 c-10 -2 -18 -8 -18 -13 0 -13
27 -11 35 2 9 13 4 16 -17 11z"/>
<path fill="#000000" stroke="none" d="M130 88 c1 -28 2 -30 11 -15 5 9 7 22
3 29 -4 6 -3 8 4 4 6 -3 13 -2 17 4 3 5 -3 10 -14 10 -17 0 -21 -6 -21 -32z"/>
<path fill="#000000" stroke="none" d="M55 80 c-4 -18 -3 -36 3 -42 6 -6 12 2
16 23 8 43 -10 61 -19 19z"/>
<path fill="#000000" stroke="none" d="M105 100 c-3 -5 -1 -10 4 -10 6 0 11 5
11 10 0 6 -2 10 -4 10 -3 0 -8 -4 -11 -10z"/>
<path fill="#000000" stroke="none" d="M166 80 c-21 -36 -19 -41 12 -33 23 6
26 15 14 46 -6 15 -10 13 -26 -13z"/>
<path fill="#000000" stroke="none" d="M90 56 c0 -9 5 -16 10 -16 6 0 10 4 10
9 0 6 -4 13 -10 16 -5 3 -10 -1 -10 -9z"/>
<path fill="#000000" stroke="none" d="M98 21 c-26 -4 -51 -10 -55 -15 -4 -4
8 -5 27 -2 96 15 129 16 135 6 3 -5 26 -10 51 -10 28 0 43 4 39 10 -3 6 -17 7
-31 4 -14 -4 -24 -2 -24 5 0 12 -63 13 -142 2z"/>
</g>
</svg>
