<?xml version="1.0" standalone="no"?>
<!DOCTYPE svg PUBLIC "-//W3C//DTD SVG 20010904//EN"
 "http://www.w3.org/TR/2001/REC-SVG-20010904/DTD/svg10.dtd">
<svg version="1.0" xmlns="http://www.w3.org/2000/svg"
 width="32.000000pt" height="32.000000pt" viewBox="0 0 32.000000 32.000000"
 preserveAspectRatio="xMidYMid meet">
<metadata>
Created by potrace 1.16, written by Peter Selinger 2001-2019
</metadata>
<g transform="translate(0.000000,32.000000) scale(0.100000,-0.100000)"
fill="#000000" stroke="none">
<path fill="#000000" stroke="none" d="M0 299 c0 -11 7 -45 15 -74 16 -52 15
-70 -12 -197 -5 -26 5 -37 20 -21 4 3 36 5 71 4 52 -2 74 3 114 23 28 14 52
31 54 38 4 10 8 10 22 -1 25 -21 46 2 24 26 -18 21 -22 140 -6 160 14 17 -18
29 -36 14 -9 -8 -16 -8 -20 -2 -4 5 -20 16 -36 25 -28 13 -84 11 -172 -6 -7
-2 -12 5 -10 15 2 10 -3 17 -13 17 -9 0 -15 -9 -15 -21z"/>
<path fill="#ffffff" stroke="none" d="M117 254 c-3 -3 -12 -4 -19 -1 -8 3 -5
6 6 6 11 1 17 -2 13 -5z"/>
<path fill="#ffffff" stroke="none" d="M210 170 c0 -5 -5 -10 -11 -10 -5 0 -7
5 -4 10 3 6 8 10 11 10 2 0 4 -4 4 -10z"/>
</g>
</svg>
