<?xml version="1.0" standalone="no"?>
<!DOCTYPE svg PUBLIC "-//W3C//DTD SVG 20010904//EN"
 "http://www.w3.org/TR/2001/REC-SVG-20010904/DTD/svg10.dtd">
<svg version="1.0" xmlns="http://www.w3.org/2000/svg"
 width="32.000000pt" height="32.000000pt" viewBox="0 0 32.000000 32.000000"
 preserveAspectRatio="xMidYMid meet">
<metadata>
Created by potrace 1.16, written by Peter Selinger 2001-2019
</metadata>
<g transform="translate(0.000000,32.000000) scale(0.100000,-0.100000)"
fill="#000000" stroke="none">
<path fill="#000000" stroke="none" d="M0 173 l0 -148 22 34 c30 46 32 159 4
190 -12 13 -16 25 -10 30 5 5 55 11 111 13 62 2 107 8 115 16 9 9 -15 12 -115
12 l-127 0 0 -147z"/>
<path fill="#000000" stroke="none" d="M254 303 c-9 -15 -30 -18 -122 -21
l-110 -4 19 -32 c10 -17 19 -49 19 -70 0 -47 -29 -156 -41 -156 -5 0 -9 -4 -9
-9 0 -5 30 -1 67 10 86 24 118 24 145 -1 14 -13 36 -20 60 -20 l38 0 0 46 0
46 -32 -19 c-18 -11 -34 -26 -34 -34 -3 -32 -5 -33 -16 -15 -9 16 -7 23 13 38
72 56 69 48 69 157 0 97 -10 127 -26 79 -10 -32 -8 -118 5 -150 6 -16 7 -28 2
-28 -11 0 -34 115 -27 138 2 9 7 27 11 40 8 27 -15 31 -31 5z"/>
<path fill="#ffffff" stroke="none" d="M233 259 c-16 -16 -95 -23 -140 -13
-36 8 -33 9 37 14 41 4 84 7 95 8 14 2 16 -1 8 -9z"/>
<path fill="#ffffff" stroke="none" d="M276 120 c4 -12 3 -12 -7 -3 -7 7 -14
41 -15 75 l-3 63 9 -60 c6 -33 12 -67 16 -75z"/>
<path fill="#ffffff" stroke="none" d="M210 215 c-22 -26 -103 -27 -113 -2 -3
8 16 12 59 13 49 1 62 -2 54 -11z"/>
<path fill="#ffffff" stroke="none" d="M107 137 c5 -40 2 -49 -22 -71 -16 -15
-29 -25 -31 -24 -1 2 4 28 12 58 8 30 13 68 11 83 -3 24 -2 26 11 14 8 -8 17
-35 19 -60z"/>
<path fill="#ffffff" stroke="none" d="M239 148 c1 -10 -3 -18 -9 -18 -5 0
-10 17 -9 38 0 30 2 33 9 17 5 -11 9 -28 9 -37z"/>
<path fill="#ffffff" stroke="none" d="M190 175 c0 -2 -9 -9 -19 -14 -14 -8
-22 -7 -31 4 -11 13 -8 15 19 15 17 0 31 -2 31 -5z"/>
<path fill="#ffffff" stroke="none" d="M200 150 c0 -5 -5 -10 -11 -10 -5 0 -7
5 -4 10 3 6 8 10 11 10 2 0 4 -4 4 -10z"/>
<path fill="#ffffff" stroke="none" d="M143 125 c-7 -21 -13 -19 -13 6 0 11 4
18 10 14 5 -3 7 -12 3 -20z"/>
<path fill="#ffffff" stroke="none" d="M200 108 c0 -13 -23 -5 -28 10 -2 7 2
10 12 6 9 -3 16 -11 16 -16z"/>
<path fill="#ffffff" stroke="none" d="M242 78 c-16 -16 -25 -19 -33 -11 -16
16 -2 33 29 33 l26 0 -22 -22z"/>
<path fill="#ffffff" stroke="none" d="M180 70 c0 -5 -4 -10 -9 -10 -5 0 -24
-3 -42 -7 -31 -6 -33 -5 -20 10 14 18 71 24 71 7z"/>
<path fill="#000000" stroke="none" d="M84 117 c-10 -43 -10 -47 3 -34 9 8 13
28 11 48 -3 33 -3 33 -14 -14z"/>
<path fill="#000000" stroke="none" d="M105 15 l-40 -13 79 -1 c69 -1 77 1 66
14 -15 18 -51 18 -105 0z"/>
</g>
</svg>
