<?xml version="1.0" standalone="no"?>
<!DOCTYPE svg PUBLIC "-//W3C//DTD SVG 20010904//EN"
 "http://www.w3.org/TR/2001/REC-SVG-20010904/DTD/svg10.dtd">
<svg version="1.0" xmlns="http://www.w3.org/2000/svg"
 width="32.000000pt" height="32.000000pt" viewBox="0 0 32.000000 32.000000"
 preserveAspectRatio="xMidYMid meet">
<metadata>
Created by potrace 1.16, written by Peter Selinger 2001-2019
</metadata>
<g transform="translate(0.000000,32.000000) scale(0.100000,-0.100000)"
fill="#000000" stroke="none">
<path fill="#000000" stroke="none" d="M6 283 c-3 -21 -6 -93 -6 -160 0 -113
1 -123 19 -123 17 0 18 8 16 82 -1 46 1 103 5 128 5 27 4 50 -2 57 -12 15 -2
33 20 33 9 0 24 5 32 10 11 7 2 10 -31 10 -46 0 -46 0 -53 -37z"/>
<path fill="#000000" stroke="none" d="M100 298 c-41 -11 -62 -28 -36 -28 16
0 17 -2 5 -17 -10 -11 -14 -49 -15 -127 -1 -61 1 -101 3 -88 4 18 9 22 21 16
9 -4 56 -8 105 -9 87 -2 87 -2 93 24 3 14 10 42 15 61 5 19 8 55 7 80 l-1 45
-4 -40 c-1 -22 -11 -66 -20 -97 -17 -56 -19 -58 -60 -64 -24 -3 -64 -3 -89 1
-39 5 -45 9 -42 28 2 16 9 21 23 19 32 -5 87 -6 121 -2 29 4 33 8 43 55 20 93
19 113 -3 124 -22 11 -103 31 -121 30 -5 -1 -26 -5 -45 -11z"/>
<path fill="#ffffff" stroke="none" d="M239 278 c39 -14 18 -20 -34 -8 -26 6
-62 8 -81 4 -21 -4 -34 -2 -34 4 0 22 92 22 149 0z"/>
<path fill="#ffffff" stroke="none" d="M228 254 c7 -2 11 -8 7 -13 -3 -6 -17
-6 -37 1 -26 9 -33 8 -45 -7 -7 -11 -13 -29 -13 -40 0 -12 -10 -30 -21 -41
-21 -19 -22 -19 -16 1 11 41 19 90 13 84 -3 -3 -12 -34 -19 -69 -16 -80 -37
-92 -37 -22 0 67 17 115 39 106 33 -13 52 -16 50 -8 -3 20 3 23 34 18 17 -3
38 -8 45 -10z"/>
<path fill="#ffffff" stroke="none" d="M210 220 c0 -4 -7 -10 -15 -14 -8 -3
-15 -4 -15 -2 0 3 -3 11 -6 19 -4 12 0 14 15 10 12 -3 21 -9 21 -13z"/>
<path fill="#ffffff" stroke="none" d="M267 188 c-6 -45 -11 -53 -27 -43 -10
6 -5 67 7 88 12 20 25 -10 20 -45z"/>
<path fill="#ffffff" stroke="none" d="M223 176 c-6 -10 -13 -12 -23 -6 -12 7
-11 12 5 30 17 18 21 19 23 6 2 -8 0 -22 -5 -30z"/>
<path fill="#ffffff" stroke="none" d="M166 195 c-3 -9 3 -19 15 -25 11 -6 17
-15 14 -20 -3 -5 5 -10 17 -12 13 -2 22 -7 20 -13 -4 -15 -53 -26 -90 -20 -40
7 -38 27 4 36 16 4 21 7 11 8 -12 1 -15 5 -10 14 4 6 6 20 5 30 -2 9 2 17 8
17 7 0 10 -7 6 -15z"/>
<path fill="#000000" stroke="none" d="M83 225 c-3 -9 -3 -18 -1 -21 3 -3 8 4
11 16 6 23 -1 27 -10 5z"/>
<path fill="#000000" stroke="none" d="M72 150 c0 -14 2 -19 5 -12 2 6 2 18 0
25 -3 6 -5 1 -5 -13z"/>
<path fill="#000000" stroke="none" d="M100 80 c8 -5 26 -10 39 -10 32 0 24 6
-19 14 -25 4 -31 3 -20 -4z"/>
<path fill="#000000" stroke="none" d="M67 21 c-5 -19 -1 -21 44 -21 37 0 49
4 49 15 0 9 -9 15 -22 15 -13 0 -33 3 -44 6 -16 4 -23 0 -27 -15z"/>
</g>
</svg>
