<?xml version="1.0" standalone="no"?>
<!DOCTYPE svg PUBLIC "-//W3C//DTD SVG 20010904//EN"
 "http://www.w3.org/TR/2001/REC-SVG-20010904/DTD/svg10.dtd">
<svg version="1.0" xmlns="http://www.w3.org/2000/svg"
 width="32.000000pt" height="32.000000pt" viewBox="0 0 32.000000 32.000000"
 preserveAspectRatio="xMidYMid meet">
<metadata>
Created by potrace 1.16, written by Peter Selinger 2001-2019
</metadata>
<g transform="translate(0.000000,32.000000) scale(0.100000,-0.100000)"
fill="#000000" stroke="none">
<path fill="#000000" stroke="none" d="M0 302 c0 -10 5 -23 12 -30 18 -18 27
-100 11 -106 -26 -10 95 -154 124 -148 6 1 14 -2 18 -8 8 -14 98 -13 130 2
l25 11 0 149 c0 81 -1 148 -2 148 -2 0 -21 -7 -43 -15 -55 -19 -205 -20 -231
0 -26 20 -44 19 -44 -3z"/>
<path fill="#ffffff" stroke="none" d="M77 208 c-3 -7 -5 -2 -5 12 0 14 2 19
5 13 2 -7 2 -19 0 -25z"/>
<path fill="#ffffff" stroke="none" d="M171 129 c11 -11 18 -23 15 -27 -4 -3
-19 6 -34 21 -14 15 -21 27 -14 27 6 0 21 -9 33 -21z"/>
<path fill="#ffffff" stroke="none" d="M116 99 c20 -22 23 -28 8 -19 -18 11
-50 50 -41 50 2 0 16 -14 33 -31z"/>
<path fill="#ffffff" stroke="none" d="M280 120 c0 -5 -2 -10 -4 -10 -3 0 -8
5 -11 10 -3 6 -1 10 4 10 6 0 11 -4 11 -10z"/>
<path fill="#ffffff" stroke="none" d="M215 50 c3 -5 -1 -10 -10 -10 -9 0 -13
5 -10 10 3 6 8 10 10 10 2 0 7 -4 10 -10z"/>
<path fill="#000000" stroke="none" d="M123 313 c15 -2 37 -2 50 0 12 2 0 4
-28 4 -27 0 -38 -2 -22 -4z"/>
</g>
</svg>
