<?xml version="1.0" standalone="no"?>
<!DOCTYPE svg PUBLIC "-//W3C//DTD SVG 20010904//EN"
 "http://www.w3.org/TR/2001/REC-SVG-20010904/DTD/svg10.dtd">
<svg version="1.0" xmlns="http://www.w3.org/2000/svg"
 width="32.000000pt" height="32.000000pt" viewBox="0 0 32.000000 32.000000"
 preserveAspectRatio="xMidYMid meet">
<metadata>
Created by potrace 1.16, written by Peter Selinger 2001-2019
</metadata>
<g transform="translate(0.000000,32.000000) scale(0.100000,-0.100000)"
fill="#000000" stroke="none">
<path fill="#000000" stroke="none" d="M0 240 c0 -80 0 -81 38 -119 20 -21 51
-46 69 -55 50 -25 53 -19 4 9 -74 43 -95 83 -32 60 81 -28 110 -62 79 -93 -23
-23 5 -34 45 -17 37 15 79 12 105 -8 16 -13 16 5 -3 67 -19 63 -19 143 0 180
22 41 20 43 -32 40 -46 -3 -139 -32 -130 -40 2 -2 20 3 40 11 20 8 51 15 69
14 30 -1 28 -3 -22 -19 -56 -18 -76 -19 -120 -5 -20 6 -23 5 -13 -6 10 -10 6
-17 -19 -35 -17 -13 -40 -36 -50 -51 -14 -22 -18 -24 -18 -9 0 10 16 33 35 50
19 18 35 40 35 49 0 13 9 17 33 17 19 0 37 3 41 8 4 4 22 12 39 19 28 10 18
12 -80 12 l-113 1 0 -80z"/>
<path fill="#ffffff" stroke="none" d="M294 265 c-4 -8 -13 -15 -22 -15 -8 0
-23 -7 -32 -15 -15 -14 -60 -11 -60 4 0 4 26 14 58 23 31 9 58 17 59 17 1 1 0
-6 -3 -14z"/>
<path fill="#ffffff" stroke="none" d="M110 208 c-19 -18 -34 -35 -33 -38 1
-3 -7 -6 -18 -6 -28 0 -24 11 18 45 51 42 79 40 33 -1z"/>
<path fill="#ffffff" stroke="none" d="M280 219 c0 -15 -4 -19 -16 -15 -9 3
-21 6 -27 6 -13 1 22 30 35 30 4 0 8 -9 8 -21z"/>
<path fill="#ffffff" stroke="none" d="M156 184 c-3 -8 -19 -14 -38 -14 l-33
1 35 31 c30 27 35 29 38 14 2 -9 1 -24 -2 -32z"/>
<path fill="#ffffff" stroke="none" d="M198 197 c2 -10 -3 -17 -12 -17 -10 0
-16 9 -16 21 0 24 23 21 28 -4z"/>
<path fill="#ffffff" stroke="none" d="M251 200 c6 0 7 -4 4 -10 -10 -16 -45
-12 -45 6 0 11 5 14 16 10 9 -3 20 -6 25 -6z"/>
<path fill="#ffffff" stroke="none" d="M277 150 c2 -22 -2 -30 -15 -31 -14 0
-14 -2 3 -9 11 -5 15 -9 8 -9 -6 -1 -20 -4 -30 -7 -13 -4 -14 -3 -5 4 18 12
18 13 3 40 -6 12 -17 22 -24 21 -9 0 -9 -2 1 -6 14 -6 16 -43 2 -43 -5 0 -10
4 -10 9 0 5 -13 14 -30 21 -28 11 -34 35 -7 24 7 -2 31 0 52 5 22 5 42 9 45
10 3 1 6 -13 7 -29z"/>
<path fill="#ffffff" stroke="none" d="M158 140 c39 -17 52 -37 36 -53 -4 -4
-20 5 -36 18 -16 14 -40 28 -54 31 -13 3 -21 10 -18 15 8 13 24 11 72 -11z"/>
<path fill="#ffffff" stroke="none" d="M294 74 c11 -29 7 -36 -19 -30 -13 3
-44 2 -67 -3 -60 -14 -59 -5 3 24 63 29 75 30 83 9z"/>
<path fill="#000000" stroke="none" d="M248 63 c6 -2 18 -2 25 0 6 3 1 5 -13
5 -14 0 -19 -2 -12 -5z"/>
<path fill="#000000" stroke="none" d="M309 228 c-2 -50 1 -121 6 -126 3 -3 5
29 5 71 0 43 -2 77 -5 77 -3 0 -5 -10 -6 -22z"/>
<path fill="#000000" stroke="none" d="M0 66 l0 -66 75 0 c72 0 75 1 63 19 -7
11 -22 24 -34 30 -13 5 -41 27 -63 47 l-41 36 0 -66z"/>
<path fill="#000000" stroke="none" d="M87 105 c24 -17 73 -37 73 -30 0 6 -76
45 -87 45 -4 0 2 -7 14 -15z"/>
<path fill="#000000" stroke="none" d="M205 10 c-4 -6 13 -10 45 -10 32 0 49
4 45 10 -3 6 -24 10 -45 10 -21 0 -42 -4 -45 -10z"/>
</g>
</svg>
