<?xml version="1.0" standalone="no"?>
<!DOCTYPE svg PUBLIC "-//W3C//DTD SVG 20010904//EN"
 "http://www.w3.org/TR/2001/REC-SVG-20010904/DTD/svg10.dtd">
<svg version="1.0" xmlns="http://www.w3.org/2000/svg"
 width="32.000000pt" height="32.000000pt" viewBox="0 0 32.000000 32.000000"
 preserveAspectRatio="xMidYMid meet">
<metadata>
Created by potrace 1.16, written by Peter Selinger 2001-2019
</metadata>
<g transform="translate(0.000000,32.000000) scale(0.100000,-0.100000)"
fill="#000000" stroke="none">
<path fill="#000000" stroke="none" d="M0 310 c0 -6 7 -22 16 -36 14 -20 16
-41 11 -110 -2 -46 -10 -91 -17 -99 -17 -21 -5 -31 14 -12 11 10 25 13 48 8
26 -5 34 -13 39 -36 4 -17 7 -25 8 -19 2 20 89 39 114 25 12 -6 37 -16 56 -21
31 -9 33 -8 27 13 -24 90 -27 146 -11 212 20 77 13 92 -31 74 -45 -17 -183
-13 -256 7 -10 3 -18 0 -18 -6z"/>
<path fill="#ffffff" stroke="none" d="M294 278 c-10 -12 -13 -18 -6 -14 10 6
11 1 5 -21 -10 -36 -10 -138 -1 -182 8 -33 8 -33 -15 -19 -34 23 -36 119 -3
199 6 14 -6 16 -91 16 -105 0 -143 7 -143 26 0 10 20 10 83 3 64 -7 93 -5 132
6 28 8 52 13 54 11 2 -1 -4 -13 -15 -25z"/>
<path fill="#ffffff" stroke="none" d="M244 238 c-13 -21 -81 -28 -134 -14
-30 8 -57 13 -59 11 -2 -2 2 -18 8 -36 20 -57 10 -119 -19 -119 -6 0 -2 135 5
155 1 7 42 11 103 10 55 0 98 -3 96 -7z"/>
<path fill="#ffffff" stroke="none" d="M246 198 c-3 -13 -6 -45 -6 -71 0 -34
-4 -47 -12 -45 -18 6 -22 56 -8 100 11 40 37 55 26 16z"/>
<path fill="#ffffff" stroke="none" d="M169 194 c3 -4 -12 -4 -34 -1 -22 3
-34 3 -27 0 17 -7 15 -27 -7 -54 -18 -22 -20 -23 -19 -4 1 11 -1 32 -5 46 -7
26 -6 26 39 23 25 -1 49 -6 53 -10z"/>
<path fill="#ffffff" stroke="none" d="M202 165 c-4 -37 -11 -42 -30 -23 -18
18 -15 34 11 46 12 6 22 11 22 11 1 1 -1 -15 -3 -34z"/>
<path fill="#ffffff" stroke="none" d="M163 134 c17 -21 17 -22 -2 -27 -16 -4
-19 0 -19 24 1 16 2 28 2 27 1 -2 9 -13 19 -24z"/>
<path fill="#ffffff" stroke="none" d="M126 113 c-11 -11 -19 6 -11 24 8 17 8
17 12 0 3 -10 2 -21 -1 -24z"/>
<path fill="#ffffff" stroke="none" d="M120 78 c0 -15 -4 -18 -22 -12 -31 9
-33 11 -19 28 16 19 41 9 41 -16z"/>
<path fill="#ffffff" stroke="none" d="M205 91 c6 -11 -1 -16 -37 -25 -21 -5
-28 -3 -28 8 0 22 53 36 65 17z"/>
<path fill="#ffffff" stroke="none" d="M243 53 c3 -5 -17 -8 -43 -8 -27 0 -43
3 -37 7 16 10 75 10 80 1z"/>
<path fill="#000000" stroke="none" d="M262 125 c0 -16 2 -22 5 -12 2 9 2 23
0 30 -3 6 -5 -1 -5 -18z"/>
<path fill="#000000" stroke="none" d="M52 135 c0 -16 2 -22 5 -12 2 9 2 23 0
30 -3 6 -5 -1 -5 -18z"/>
<path fill="#000000" stroke="none" d="M143 313 c20 -2 54 -2 75 0 20 2 3 4
-38 4 -41 0 -58 -2 -37 -4z"/>
<path fill="#000000" stroke="none" d="M3 215 c0 -27 2 -38 4 -22 2 15 2 37 0
50 -2 12 -4 0 -4 -28z"/>
<path fill="#000000" stroke="none" d="M313 175 c0 -33 2 -45 4 -27 2 18 2 45
0 60 -2 15 -4 0 -4 -33z"/>
<path fill="#000000" stroke="none" d="M1 134 c0 -11 3 -14 6 -6 3 7 2 16 -1
19 -3 4 -6 -2 -5 -13z"/>
<path fill="#000000" stroke="none" d="M17 36 c-28 -21 -20 -31 27 -34 36 -2
45 1 49 17 8 31 -42 42 -76 17z"/>
<path fill="#000000" stroke="none" d="M150 10 c-11 -7 4 -10 50 -10 46 0 61
3 50 10 -19 13 -81 13 -100 0z"/>
</g>
</svg>
