<?xml version="1.0" standalone="no"?>
<!DOCTYPE svg PUBLIC "-//W3C//DTD SVG 20010904//EN"
 "http://www.w3.org/TR/2001/REC-SVG-20010904/DTD/svg10.dtd">
<svg version="1.0" xmlns="http://www.w3.org/2000/svg"
 width="32.000000pt" height="32.000000pt" viewBox="0 0 32.000000 32.000000"
 preserveAspectRatio="xMidYMid meet">
<metadata>
Created by potrace 1.16, written by Peter Selinger 2001-2019
</metadata>
<g transform="translate(0.000000,32.000000) scale(0.100000,-0.100000)"
fill="#000000" stroke="none">
<path fill="#000000" stroke="none" d="M2 295 c0 -16 2 -22 5 -12 2 9 2 23 0
30 -3 6 -5 -1 -5 -18z"/>
<path fill="#000000" stroke="none" d="M73 306 c-41 -15 -48 -23 -35 -38 6 -8
7 -30 3 -58 -12 -68 -7 -203 8 -208 7 -2 15 6 18 18 4 16 11 20 27 16 11 -3
31 -6 44 -6 13 0 22 -6 22 -15 0 -12 16 -15 80 -15 l80 0 0 160 0 160 -107 -1
c-60 -1 -122 -7 -140 -13z"/>
<path fill="#ffffff" stroke="none" d="M272 288 c22 -10 28 -22 33 -60 4 -26
2 -62 -4 -80 -5 -18 -15 -52 -21 -75 -10 -40 -11 -41 -48 -37 -142 14 -164 13
-169 -7 -3 -10 -8 -19 -12 -19 -12 0 -4 215 8 238 10 18 9 22 -4 22 -26 0 -16
15 18 27 40 14 163 9 199 -9z"/>
<path fill="#000000" stroke="none" d="M133 283 c15 -2 37 -2 50 0 12 2 0 4
-28 4 -27 0 -38 -2 -22 -4z"/>
<path fill="#000000" stroke="none" d="M210 276 c0 -2 9 -6 20 -9 11 -3 20 -1
20 4 0 5 -9 9 -20 9 -11 0 -20 -2 -20 -4z"/>
<path fill="#000000" stroke="none" d="M82 244 c-13 -27 -23 -99 -16 -118 10
-25 24 -8 24 29 0 19 5 46 10 61 13 33 -3 57 -18 28z"/>
<path fill="#ffffff" stroke="none" d="M93 220 c-3 -12 -8 -19 -11 -16 -5 6 5
36 12 36 2 0 2 -9 -1 -20z"/>
<path fill="#ffffff" stroke="none" d="M77 138 c-3 -7 -5 -2 -5 12 0 14 2 19
5 13 2 -7 2 -19 0 -25z"/>
<path fill="#000000" stroke="none" d="M151 256 c2 -2 22 -6 44 -10 29 -5 36
-4 25 3 -13 10 -79 16 -69 7z"/>
<path fill="#000000" stroke="none" d="M121 207 c-7 -21 -10 -41 -7 -44 8 -8
28 47 23 66 -2 9 -9 -1 -16 -22z"/>
<path fill="#000000" stroke="none" d="M180 220 c0 -5 5 -10 11 -10 5 0 7 5 4
10 -3 6 -8 10 -11 10 -2 0 -4 -4 -4 -10z"/>
<path fill="#000000" stroke="none" d="M246 199 c-9 -45 -8 -65 3 -53 13 14
22 72 12 78 -5 3 -11 -8 -15 -25z"/>
<path fill="#000000" stroke="none" d="M212 198 c-14 -14 -16 -28 -3 -28 5 0
11 9 14 20 6 23 5 24 -11 8z"/>
<path fill="#000000" stroke="none" d="M155 160 c-4 -6 3 -10 14 -10 25 0 27
6 6 13 -8 4 -17 2 -20 -3z"/>
<path fill="#000000" stroke="none" d="M120 132 c-23 -8 4 -22 43 -22 65 0 80
17 18 21 -28 2 -56 2 -61 1z"/>
<path fill="#000000" stroke="none" d="M83 87 c-10 -16 10 -22 88 -26 72 -3
79 -1 79 15 0 17 -9 19 -81 19 -44 0 -83 -4 -86 -8z"/>
<path fill="#ffffff" stroke="none" d="M159 74 c10 -9 -45 -3 -59 6 -11 7 -5
8 20 4 19 -4 37 -8 39 -10z"/>
</g>
</svg>
