<?xml version="1.0" standalone="no"?>
<!DOCTYPE svg PUBLIC "-//W3C//DTD SVG 20010904//EN"
 "http://www.w3.org/TR/2001/REC-SVG-20010904/DTD/svg10.dtd">
<svg version="1.0" xmlns="http://www.w3.org/2000/svg"
 width="32.000000pt" height="32.000000pt" viewBox="0 0 32.000000 32.000000"
 preserveAspectRatio="xMidYMid meet">
<metadata>
Created by potrace 1.16, written by Peter Selinger 2001-2019
</metadata>
<g transform="translate(0.000000,32.000000) scale(0.100000,-0.100000)"
fill="#000000" stroke="none">
<path fill="#000000" stroke="none" d="M135 310 c7 -11 75 -11 120 0 22 6 9 8
-48 9 -50 1 -76 -3 -72 -9z"/>
<path fill="#000000" stroke="none" d="M0 305 c0 -3 6 -12 13 -19 17 -17 16
-262 -1 -259 -7 2 -12 -4 -12 -12 0 -19 9 -19 50 2 38 18 196 25 208 8 4 -5
12 -11 17 -12 6 -1 17 -4 26 -8 13 -5 16 3 17 42 1 39 -1 44 -9 25 -5 -13 -7
-28 -3 -33 3 -5 0 -9 -5 -9 -14 0 -14 7 0 68 7 30 9 75 4 116 l-7 68 -28 -27
c-27 -26 -29 -27 -87 -15 -32 7 -70 19 -85 26 -15 8 -33 14 -40 14 -23 -1 45
-33 107 -51 70 -20 34 -27 -40 -7 -40 11 -106 61 -94 72 2 2 29 -3 59 -11 49
-13 140 -13 202 0 45 9 19 13 -75 13 -56 -1 -128 3 -159 8 -32 4 -58 5 -58 1z"/>
<path fill="#ffffff" stroke="none" d="M67 146 c-3 -32 -10 -63 -15 -68 -16
-16 -24 44 -16 109 6 52 8 55 21 37 11 -14 13 -36 10 -78z"/>
<path fill="#ffffff" stroke="none" d="M289 112 c-9 -49 -14 -60 -24 -52 -11
9 -11 16 1 38 8 15 14 50 13 77 -1 68 1 76 12 35 6 -22 5 -58 -2 -98z"/>
<path fill="#ffffff" stroke="none" d="M104 195 c3 -8 1 -25 -4 -37 l-9 -23 0
22 c-1 12 -4 28 -7 37 -3 9 -2 16 4 16 5 0 12 -7 16 -15z"/>
<path fill="#ffffff" stroke="none" d="M156 192 c-10 -2 -22 0 -28 6 -6 6 0 7
19 4 21 -5 23 -7 9 -10z"/>
<path fill="#ffffff" stroke="none" d="M264 187 c5 -21 -10 -97 -19 -97 -2 0
-10 7 -19 15 -13 14 -13 20 2 60 18 50 27 56 36 22z"/>
<path fill="#ffffff" stroke="none" d="M208 158 c-11 -32 -12 -32 -22 -9 -7
17 -6 25 5 32 24 15 28 10 17 -23z"/>
<path fill="#ffffff" stroke="none" d="M144 172 c2 -4 -4 -13 -14 -19 -15 -10
-17 -9 -13 8 5 20 18 25 27 11z"/>
<path fill="#ffffff" stroke="none" d="M191 110 l24 -19 -56 -1 c-64 0 -79 9
-47 27 32 18 52 16 79 -7z"/>
<path fill="#ffffff" stroke="none" d="M188 76 c35 5 41 4 36 -9 -4 -12 -25
-16 -82 -19 -90 -4 -95 -3 -80 21 9 15 17 17 47 10 20 -5 55 -6 79 -3z"/>
<path fill="#000000" stroke="none" d="M48 170 c-11 -38 -10 -56 3 -43 6 6 9
23 7 39 l-3 29 -7 -25z"/>
<path fill="#000000" stroke="none" d="M237 157 c-11 -29 -9 -53 4 -40 6 6 9
21 7 34 -3 21 -4 22 -11 6z"/>
<path fill="#000000" stroke="none" d="M125 110 c-4 -6 7 -10 27 -10 25 0 29
3 18 10 -19 13 -37 13 -45 0z"/>
<path fill="#000000" stroke="none" d="M88 63 c6 -2 18 -2 25 0 6 3 1 5 -13 5
-14 0 -19 -2 -12 -5z"/>
<path fill="#000000" stroke="none" d="M0 215 c0 -32 2 -56 4 -54 8 7 10 98 3
105 -4 4 -7 -19 -7 -51z"/>
<path fill="#000000" stroke="none" d="M209 248 c23 -6 37 -6 44 1 8 8 -2 11
-33 10 l-45 -1 34 -10z"/>
<path fill="#000000" stroke="none" d="M2 90 c0 -14 2 -19 5 -12 2 6 2 18 0
25 -3 6 -5 1 -5 -13z"/>
<path fill="#000000" stroke="none" d="M112 20 c-87 -13 -72 -20 39 -20 94 1
102 2 85 15 -21 16 -41 17 -124 5z"/>
</g>
</svg>
