<?xml version="1.0" standalone="no"?>
<!DOCTYPE svg PUBLIC "-//W3C//DTD SVG 20010904//EN"
 "http://www.w3.org/TR/2001/REC-SVG-20010904/DTD/svg10.dtd">
<svg version="1.0" xmlns="http://www.w3.org/2000/svg"
 width="32.000000pt" height="32.000000pt" viewBox="0 0 32.000000 32.000000"
 preserveAspectRatio="xMidYMid meet">
<metadata>
Created by potrace 1.16, written by Peter Selinger 2001-2019
</metadata>
<g transform="translate(0.000000,32.000000) scale(0.100000,-0.100000)"
fill="#000000" stroke="none">
<path fill="#000000" stroke="none" d="M25 312 c6 -6 26 -15 45 -21 l35 -11
-33 5 c-30 4 -33 3 -27 -16 5 -16 4 -19 -6 -14 -9 6 -11 3 -6 -9 4 -10 7 -27
8 -39 0 -21 1 -21 8 -2 5 11 6 25 4 32 -3 8 17 12 65 15 39 1 68 0 65 -4 -2
-5 -30 -8 -61 -8 -50 0 -55 -2 -41 -15 12 -12 22 -13 64 -2 43 10 51 16 56 42
6 29 7 29 8 4 0 -15 8 -33 17 -40 14 -11 20 -8 44 21 l29 35 -32 6 -32 6 32 2
c17 0 35 6 39 12 4 8 -18 9 -77 4 -122 -10 -151 -10 -184 -1 -21 6 -27 5 -20
-2z"/>
<path fill="#ffffff" stroke="none" d="M194 300 c-6 -6 -28 -13 -50 -15 l-39
-5 45 14 c25 7 47 14 50 15 2 0 -1 -4 -6 -9z"/>
<path fill="#ffffff" stroke="none" d="M255 260 c3 -6 -1 -7 -9 -4 -18 7 -21
14 -7 14 6 0 13 -4 16 -10z"/>
<path fill="#000000" stroke="none" d="M7 260 c9 -57 9 -89 0 -170 -5 -45 -4
-60 3 -50 5 8 10 26 11 40 1 18 3 20 6 7 3 -10 0 -31 -6 -47 -5 -17 -8 -30 -5
-30 4 0 31 16 62 36 2 1 -4 16 -12 33 -9 16 -17 45 -17 63 l-2 33 -6 -35 c-6
-28 -8 -19 -12 45 -3 44 -11 89 -18 100 -10 17 -11 13 -4 -25z"/>
<path fill="#ffffff" stroke="none" d="M60 61 c0 -6 -4 -13 -10 -16 -5 -3 -10
1 -10 9 0 9 5 16 10 16 6 0 10 -4 10 -9z"/>
<path fill="#000000" stroke="none" d="M306 249 c-8 -43 -6 -168 4 -199 5 -16
8 23 9 103 1 70 -1 127 -3 127 -2 0 -6 -14 -10 -31z"/>
<path fill="#000000" stroke="none" d="M279 244 c-9 -11 -12 -43 -10 -107 1
-50 4 -95 7 -99 14 -23 19 3 19 107 0 63 -1 115 -1 115 -1 0 -7 -7 -15 -16z"/>
<path fill="#000000" stroke="none" d="M200 221 c0 -11 25 -32 32 -26 2 3 0
-20 -5 -51 -10 -51 -9 -56 12 -77 l23 -22 -5 73 c-3 50 -10 79 -22 92 -19 21
-35 26 -35 11z"/>
<path fill="#000000" stroke="none" d="M138 213 c-29 -4 -37 -18 -15 -26 16
-5 67 12 67 24 0 9 -4 9 -52 2z"/>
<path fill="#000000" stroke="none" d="M60 165 c0 -50 17 -97 35 -99 17 -2 17
40 0 75 l-15 34 5 -30 c3 -16 8 -39 10 -50 3 -11 -2 -5 -11 14 -15 34 -11 87
6 76 5 -3 14 -24 20 -45 12 -44 25 -51 35 -20 5 15 -2 27 -26 48 -18 15 -35
25 -37 24 -3 -2 -9 2 -13 10 -6 8 -9 -6 -9 -37z"/>
<path fill="#000000" stroke="none" d="M190 184 c0 -8 5 -12 10 -9 6 3 10 10
10 16 0 5 -4 9 -10 9 -5 0 -10 -7 -10 -16z"/>
<path fill="#000000" stroke="none" d="M154 175 c-17 -13 -17 -14 -2 -15 9 0
20 5 23 11 11 17 0 20 -21 4z"/>
<path fill="#000000" stroke="none" d="M197 156 c-21 -16 -22 -30 -3 -45 11
-9 15 -5 20 20 7 39 6 41 -17 25z"/>
<path fill="#000000" stroke="none" d="M156 115 c-3 -9 0 -15 9 -15 9 0 12 6
9 15 -4 8 -7 15 -9 15 -2 0 -5 -7 -9 -15z"/>
<path fill="#000000" stroke="none" d="M132 78 c-20 -20 -13 -28 26 -28 51 0
72 14 44 29 -27 14 -55 14 -70 -1z"/>
<path fill="#ffffff" stroke="none" d="M190 64 c0 -2 -12 -4 -27 -4 -21 0 -24
3 -14 9 13 8 41 5 41 -5z"/>
<path fill="#000000" stroke="none" d="M81 33 c-13 -10 3 -12 83 -13 78 0 97
3 88 12 -16 16 -150 17 -171 1z"/>
<path fill="#000000" stroke="none" d="M113 3 c37 -2 97 -2 135 0 37 2 6 3
-68 3 -74 0 -105 -1 -67 -3z"/>
</g>
</svg>
