<?xml version="1.0" standalone="no"?>
<!DOCTYPE svg PUBLIC "-//W3C//DTD SVG 20010904//EN"
 "http://www.w3.org/TR/2001/REC-SVG-20010904/DTD/svg10.dtd">
<svg version="1.0" xmlns="http://www.w3.org/2000/svg"
 width="32.000000pt" height="32.000000pt" viewBox="0 0 32.000000 32.000000"
 preserveAspectRatio="xMidYMid meet">
<metadata>
Created by potrace 1.16, written by Peter Selinger 2001-2019
</metadata>
<g transform="translate(0.000000,32.000000) scale(0.100000,-0.100000)"
fill="#000000" stroke="none">
<path fill="#000000" stroke="none" d="M27 208 c3 -80 1 -126 -9 -158 l-15
-45 86 1 c47 0 99 6 116 13 25 10 36 10 69 -3 43 -17 55 -14 37 8 -6 8 -20 12
-31 9 -13 -4 -23 4 -35 28 -29 55 -7 180 38 218 12 9 11 -1 -5 -51 -21 -68
-20 -161 3 -182 9 -8 10 -6 5 9 -22 60 -14 155 19 219 20 38 19 49 -2 38 -46
-24 -179 -22 -259 3 -21 7 -21 5 -17 -107z"/>
<path fill="#ffffff" stroke="none" d="M199 287 c50 1 70 -2 63 -9 -24 -24
-190 -15 -217 13 -7 7 4 8 35 2 25 -4 78 -7 119 -6z"/>
<path fill="#ffffff" stroke="none" d="M219 245 c-5 -5 -40 -9 -77 -8 -62 1
-63 0 -17 -6 46 -6 48 -7 28 -18 -43 -25 -70 -16 -78 26 -3 18 3 19 75 18 51
-1 75 -5 69 -12z"/>
<path fill="#ffffff" stroke="none" d="M57 156 c-3 -37 -2 -51 3 -36 4 14 8
38 9 55 1 27 2 28 17 13 15 -15 14 -21 -17 -83 -18 -37 -35 -62 -37 -56 -2 7
-1 19 3 29 4 9 7 53 6 97 -1 64 1 76 10 61 7 -11 9 -42 6 -80z"/>
<path fill="#ffffff" stroke="none" d="M230 195 c-5 -22 -10 -57 -10 -77 0
-39 -5 -44 -29 -29 -16 10 -25 64 -16 98 4 18 54 57 62 49 1 -1 -2 -19 -7 -41z"/>
<path fill="#ffffff" stroke="none" d="M165 163 c0 -22 -6 -43 -15 -50 -21
-17 -30 -16 -30 3 0 10 6 14 15 10 19 -7 19 5 0 30 -22 29 -21 32 25 43 3 0 5
-16 5 -36z"/>
<path fill="#ffffff" stroke="none" d="M106 103 c-11 -11 -17 4 -9 23 7 18 8
18 11 1 2 -10 1 -21 -2 -24z"/>
<path fill="#ffffff" stroke="none" d="M169 62 c-26 -18 -49 -1 -30 22 10 12
17 13 31 4 18 -12 18 -13 -1 -26z"/>
<path fill="#ffffff" stroke="none" d="M117 75 c7 -20 5 -21 -34 -28 -31 -6
-32 -6 -21 18 12 28 45 33 55 10z"/>
<path fill="#ffffff" stroke="none" d="M224 51 c3 -5 -9 -15 -27 -22 -17 -7
-35 -14 -39 -17 -5 -2 -8 3 -8 12 0 27 61 49 74 27z"/>
<path fill="#ffffff" stroke="none" d="M137 25 c2 -6 -19 -8 -54 -6 -50 4 -54
5 -28 12 39 9 78 7 82 -6z"/>
<path fill="#000000" stroke="none" d="M197 203 c-10 -9 -8 -76 2 -92 6 -9 10
5 12 43 4 53 1 64 -14 49z"/>
<path fill="#000000" stroke="none" d="M80 70 c0 -5 5 -10 10 -10 6 0 10 5 10
10 0 6 -4 10 -10 10 -5 0 -10 -4 -10 -10z"/>
<path fill="#000000" stroke="none" d="M137 313 c24 -2 62 -2 85 0 24 2 5 4
-42 4 -47 0 -66 -2 -43 -4z"/>
<path fill="#000000" stroke="none" d="M2 170 c0 -67 3 -98 8 -85 11 26 11 98
1 150 -7 31 -9 17 -9 -65z"/>
<path fill="#000000" stroke="none" d="M301 216 c-15 -63 -14 -138 4 -162 13
-17 14 -8 15 94 0 61 -2 112 -4 112 -2 0 -9 -20 -15 -44z"/>
<path fill="#000000" stroke="none" d="M223 3 c9 -2 23 -2 30 0 6 3 -1 5 -18
5 -16 0 -22 -2 -12 -5z"/>
</g>
</svg>
