<?xml version="1.0" standalone="no"?>
<!DOCTYPE svg PUBLIC "-//W3C//DTD SVG 20010904//EN"
 "http://www.w3.org/TR/2001/REC-SVG-20010904/DTD/svg10.dtd">
<svg version="1.0" xmlns="http://www.w3.org/2000/svg"
 width="32.000000pt" height="32.000000pt" viewBox="0 0 32.000000 32.000000"
 preserveAspectRatio="xMidYMid meet">
<metadata>
Created by potrace 1.16, written by Peter Selinger 2001-2019
</metadata>
<g transform="translate(0.000000,32.000000) scale(0.100000,-0.100000)"
fill="#000000" stroke="none">
<path fill="#000000" stroke="none" d="M65 309 c49 -10 174 -10 197 -1 9 4
-40 7 -110 8 -85 0 -114 -2 -87 -7z"/>
<path fill="#000000" stroke="none" d="M290 302 c-19 -14 -46 -17 -137 -16
-109 1 -142 -7 -87 -20 14 -4 65 -6 114 -5 84 1 90 3 116 30 31 33 30 36 -6
11z"/>
<path fill="#000000" stroke="none" d="M4 179 c0 -60 3 -109 8 -109 9 0 13 58
9 145 -5 103 -16 79 -17 -36z"/>
<path fill="#000000" stroke="none" d="M306 239 c-8 -41 -6 -147 3 -179 4 -14
7 27 7 92 -1 65 -2 118 -2 118 -1 0 -4 -14 -8 -31z"/>
<path fill="#000000" stroke="none" d="M87 233 c36 -16 124 -16 144 0 13 10
-2 12 -78 12 -83 0 -91 -2 -66 -12z"/>
<path fill="#000000" stroke="none" d="M269 223 c-7 -16 -12 -59 -13 -97 -1
-61 1 -70 22 -84 23 -15 23 -15 15 14 -4 16 -8 66 -8 112 0 45 -1 82 -3 82 -1
0 -7 -12 -13 -27z"/>
<path fill="#ffffff" stroke="none" d="M267 113 c-3 -10 -5 -4 -5 12 0 17 2
24 5 18 2 -7 2 -21 0 -30z"/>
<path fill="#000000" stroke="none" d="M40 156 c0 -71 2 -77 16 -65 13 10 15
24 11 61 -11 89 -26 91 -27 4z"/>
<path fill="#ffffff" stroke="none" d="M57 123 c-3 -10 -5 -4 -5 12 0 17 2 24
5 18 2 -7 2 -21 0 -30z"/>
<path fill="#000000" stroke="none" d="M232 207 c-21 -25 -25 -90 -7 -112 16
-20 16 -20 11 5 -2 14 -1 45 4 70 9 50 8 57 -8 37z"/>
<path fill="#000000" stroke="none" d="M80 185 c0 -9 4 -14 9 -11 4 3 6 -7 3
-22 -4 -26 -4 -26 12 -7 20 26 20 32 -4 45 -16 9 -20 8 -20 -5z"/>
<path fill="#000000" stroke="none" d="M138 193 c6 -2 18 -2 25 0 6 3 1 5 -13
5 -14 0 -19 -2 -12 -5z"/>
<path fill="#000000" stroke="none" d="M180 181 c-21 -16 -22 -21 -11 -35 8
-9 16 -15 18 -13 4 5 23 67 20 67 -1 0 -13 -9 -27 -19z"/>
<path fill="#000000" stroke="none" d="M117 135 c-4 -8 -2 -17 3 -20 6 -4 10
3 10 14 0 25 -6 27 -13 6z"/>
<path fill="#000000" stroke="none" d="M150 125 c0 -8 7 -15 16 -15 14 0 14 3
4 15 -7 8 -14 15 -16 15 -2 0 -4 -7 -4 -15z"/>
<path fill="#000000" stroke="none" d="M80 90 c-12 -7 -11 -10 5 -16 11 -4 23
-9 27 -11 4 -2 6 6 5 17 -1 22 -13 25 -37 10z"/>
<path fill="#000000" stroke="none" d="M158 89 c-10 -5 -18 -14 -18 -19 0 -11
49 3 51 15 1 14 -13 16 -33 4z"/>
<path fill="#000000" stroke="none" d="M12 45 c-15 -18 -8 -19 17 -4 10 7 29
9 44 6 20 -6 24 -11 19 -29 -3 -14 -2 -19 6 -14 17 10 15 43 -4 50 -27 10 -69
6 -82 -9z"/>
<path fill="#000000" stroke="none" d="M193 53 c9 -2 23 -2 30 0 6 3 -1 5 -18
5 -16 0 -22 -2 -12 -5z"/>
<path fill="#000000" stroke="none" d="M163 28 c-24 -5 -43 -14 -43 -20 0 -6
7 -7 18 -3 33 15 83 17 113 5 16 -7 32 -10 35 -7 3 2 -14 11 -38 19 -31 10
-55 12 -85 6z"/>
<path fill="#000000" stroke="none" d="M18 3 c7 -3 16 -2 19 1 4 3 -2 6 -13 5
-11 0 -14 -3 -6 -6z"/>
</g>
</svg>
