<?xml version="1.0" standalone="no"?>
<!DOCTYPE svg PUBLIC "-//W3C//DTD SVG 20010904//EN"
 "http://www.w3.org/TR/2001/REC-SVG-20010904/DTD/svg10.dtd">
<svg version="1.0" xmlns="http://www.w3.org/2000/svg"
 width="32.000000pt" height="32.000000pt" viewBox="0 0 32.000000 32.000000"
 preserveAspectRatio="xMidYMid meet">
<metadata>
Created by potrace 1.16, written by Peter Selinger 2001-2019
</metadata>
<g transform="translate(0.000000,32.000000) scale(0.100000,-0.100000)"
fill="#000000" stroke="none">
<path fill="#000000" stroke="none" d="M145 313 c-11 -3 -31 -10 -45 -16 -14
-5 -36 -10 -50 -11 -27 -1 -27 1 -36 -109 -6 -61 -4 -71 19 -106 38 -57 73
-71 184 -71 l93 0 0 160 0 160 -72 -1 c-40 -1 -82 -4 -93 -6z"/>
<path fill="#ffffff" stroke="none" d="M132 280 c-40 -9 -49 -17 -36 -30 7 -7
20 -7 35 -2 13 5 37 6 53 1 19 -6 34 -5 43 2 19 16 6 29 -29 29 -17 0 -29 3
-26 6 4 3 32 2 63 -1 31 -4 52 -11 46 -15 -8 -5 -7 -17 5 -45 13 -32 14 -47 4
-99 -7 -34 -13 -69 -13 -78 -2 -27 -88 -42 -150 -26 -84 21 -121 94 -97 188 6
25 12 50 12 56 1 6 9 9 19 7 9 -3 26 0 36 6 10 6 29 10 43 10 21 -1 19 -2 -8
-9z"/>
<path fill="#000000" stroke="none" d="M53 248 c-16 -20 -23 -77 -16 -121 5
-33 8 -37 14 -22 4 11 8 32 8 46 1 15 10 38 22 53 17 21 19 29 9 41 -15 18
-25 19 -37 3z"/>
<path fill="#ffffff" stroke="none" d="M80 233 c0 -5 -8 -17 -17 -28 -14 -18
-15 -18 -9 -2 3 10 6 23 6 28 0 5 5 9 10 9 6 0 10 -3 10 -7z"/>
<path fill="#000000" stroke="none" d="M124 229 c-15 -10 -33 -28 -40 -41 -17
-30 -18 -69 -1 -63 18 8 47 63 41 79 -4 10 5 13 32 12 42 -1 58 19 20 26 -14
3 -37 -3 -52 -13z"/>
<path fill="#ffffff" stroke="none" d="M101 173 c-12 -20 -14 -14 -5 12 4 9 9
14 11 11 3 -2 0 -13 -6 -23z"/>
<path fill="#000000" stroke="none" d="M236 228 c4 -13 8 -45 9 -73 1 -27 6
-59 13 -70 6 -11 12 -17 12 -14 0 3 5 31 10 62 9 46 8 62 -5 87 -19 36 -52 43
-39 8z"/>
<path fill="#000000" stroke="none" d="M208 225 c-4 -4 -4 -13 -2 -20 3 -7 1
-16 -5 -20 -16 -9 -13 -31 5 -49 25 -25 34 -19 34 22 0 38 -20 79 -32 67z"/>
<path fill="#000000" stroke="none" d="M145 190 c4 -6 11 -8 16 -5 14 9 11 15
-7 15 -8 0 -12 -5 -9 -10z"/>
<path fill="#000000" stroke="none" d="M124 166 c-4 -9 -5 -19 -2 -21 2 -2 10
0 18 5 12 7 12 12 3 21 -10 10 -14 9 -19 -5z"/>
<path fill="#000000" stroke="none" d="M165 167 c-8 -19 -2 -31 13 -26 5 2 6
13 2 24 -7 19 -8 19 -15 2z"/>
<path fill="#000000" stroke="none" d="M122 132 c-20 -14 31 -32 64 -23 24 6
26 8 10 14 -10 4 -25 2 -32 -4 -11 -9 -14 -8 -14 5 0 18 -8 20 -28 8z"/>
<path fill="#000000" stroke="none" d="M94 94 c3 -9 6 -18 6 -20 0 -2 7 -4 15
-4 8 0 15 9 15 20 0 14 -7 20 -21 20 -15 0 -19 -4 -15 -16z"/>
<path fill="#000000" stroke="none" d="M63 83 c-7 -17 20 -43 44 -43 18 0 16
6 -12 34 -22 22 -27 24 -32 9z"/>
<path fill="#000000" stroke="none" d="M163 90 c-34 -14 -28 -30 11 -30 44 0
66 9 66 26 0 16 -42 18 -77 4z"/>
<path fill="#000000" stroke="none" d="M178 53 c-48 -4 -63 -17 -30 -27 24 -8
107 7 105 19 -2 12 -13 13 -75 8z"/>
</g>
</svg>
