<?xml version="1.0" standalone="no"?>
<!DOCTYPE svg PUBLIC "-//W3C//DTD SVG 20010904//EN"
 "http://www.w3.org/TR/2001/REC-SVG-20010904/DTD/svg10.dtd">
<svg version="1.0" xmlns="http://www.w3.org/2000/svg"
 width="32.000000pt" height="32.000000pt" viewBox="0 0 32.000000 32.000000"
 preserveAspectRatio="xMidYMid meet">
<metadata>
Created by potrace 1.16, written by Peter Selinger 2001-2019
</metadata>
<g transform="translate(0.000000,32.000000) scale(0.100000,-0.100000)"
fill="#000000" stroke="none">
<path fill="#000000" stroke="none" d="M145 313 c-11 -3 -31 -10 -45 -16 -14
-5 -36 -10 -50 -11 -27 -1 -27 1 -36 -109 -6 -61 -4 -71 19 -106 38 -57 73
-71 184 -71 l93 0 0 160 0 160 -72 -1 c-40 -1 -82 -4 -93 -6z"/>
<path fill="#ffffff" stroke="none" d="M273 289 c27 0 37 -14 15 -21 -10 -4
-10 -10 0 -32 15 -34 15 -74 0 -148 -10 -50 -16 -59 -41 -68 -44 -15 -119 -12
-155 5 -17 9 -41 32 -53 51 -18 30 -20 44 -15 102 3 37 6 75 7 85 0 13 7 18
22 16 12 -1 33 3 47 9 15 7 50 10 85 6 33 -2 72 -5 88 -5z"/>
<path fill="#000000" stroke="none" d="M118 273 c-37 -9 -16 -18 40 -17 77 2
79 3 62 14 -15 10 -70 11 -102 3z"/>
<path fill="#000000" stroke="none" d="M50 224 c-6 -14 -10 -46 -9 -72 l0 -47
13 47 c7 26 18 54 25 62 13 16 7 36 -10 36 -5 0 -14 -12 -19 -26z"/>
<path fill="#ffffff" stroke="none" d="M80 233 c0 -5 -8 -17 -17 -28 -14 -18
-15 -18 -9 -2 3 10 6 23 6 28 0 5 5 9 10 9 6 0 10 -3 10 -7z"/>
<path fill="#000000" stroke="none" d="M245 218 c5 -18 9 -49 11 -68 4 -63 5
-67 14 -45 13 29 12 90 -2 120 -16 36 -32 32 -23 -7z"/>
<path fill="#000000" stroke="none" d="M130 231 c0 -11 40 -22 52 -15 5 3 6
10 3 15 -8 12 -55 12 -55 0z"/>
<path fill="#000000" stroke="none" d="M205 186 c-7 -36 2 -55 28 -56 12 0 7
43 -7 70 l-14 25 -7 -39z"/>
<path fill="#000000" stroke="none" d="M84 175 c-17 -41 -17 -45 -4 -45 10 0
40 52 40 70 0 23 -22 8 -36 -25z"/>
<path fill="#ffffff" stroke="none" d="M101 173 c-12 -20 -14 -14 -5 12 4 9 9
14 11 11 3 -2 0 -13 -6 -23z"/>
<path fill="#000000" stroke="none" d="M165 160 c-3 -5 -1 -10 4 -10 6 0 11 5
11 10 0 6 -2 10 -4 10 -3 0 -8 -4 -11 -10z"/>
<path fill="#000000" stroke="none" d="M128 123 c7 -3 16 -2 19 1 4 3 -2 6
-13 5 -11 0 -14 -3 -6 -6z"/>
<path fill="#000000" stroke="none" d="M170 120 c0 -5 5 -10 11 -10 5 0 7 5 4
10 -3 6 -8 10 -11 10 -2 0 -4 -4 -4 -10z"/>
<path fill="#000000" stroke="none" d="M104 94 c3 -8 6 -18 6 -20 0 -3 5 -2
10 1 15 9 12 22 -6 29 -12 5 -15 2 -10 -10z"/>
<path fill="#000000" stroke="none" d="M171 88 c-24 -6 -31 -12 -23 -20 15
-15 82 -1 82 17 0 17 -10 17 -59 3z"/>
<path fill="#000000" stroke="none" d="M70 70 c0 -5 9 -14 20 -20 19 -10 20
-10 8 9 -13 22 -28 28 -28 11z"/>
<path fill="#000000" stroke="none" d="M175 40 l-40 -7 40 -1 c22 0 49 3 60 8
l20 9 -20 -1 c-11 -1 -38 -4 -60 -8z"/>
</g>
</svg>
