<?xml version="1.0" standalone="no"?>
<!DOCTYPE svg PUBLIC "-//W3C//DTD SVG 20010904//EN"
 "http://www.w3.org/TR/2001/REC-SVG-20010904/DTD/svg10.dtd">
<svg version="1.0" xmlns="http://www.w3.org/2000/svg"
 width="32.000000pt" height="32.000000pt" viewBox="0 0 32.000000 32.000000"
 preserveAspectRatio="xMidYMid meet">
<metadata>
Created by potrace 1.16, written by Peter Selinger 2001-2019
</metadata>
<g transform="translate(0.000000,32.000000) scale(0.100000,-0.100000)"
fill="#000000" stroke="none">
<path fill="#000000" stroke="none" d="M30 310 c0 -20 2 -25 11 -22 5 1 39 6
74 11 65 9 113 -2 131 -30 4 -6 11 -6 20 2 18 15 50 3 37 -14 -16 -19 -13
-145 3 -158 12 -10 14 7 14 105 l0 116 -145 0 c-90 0 -145 -4 -145 -10z"/>
<path fill="#000000" stroke="none" d="M1 173 c-1 -88 2 -123 9 -112 13 22 17
125 6 169 -7 29 -6 33 5 22 21 -19 19 -168 -2 -209 -22 -42 -20 -43 157 -43
l144 0 0 36 c0 22 -4 33 -10 29 -6 -4 -18 -1 -27 7 -13 10 -17 10 -21 0 -2 -7
-26 -24 -54 -38 -40 -20 -62 -25 -119 -23 -87 3 -81 13 9 14 73 1 136 24 153
56 8 16 13 17 32 8 21 -11 21 -11 5 7 -17 19 -17 32 -3 143 4 31 3 32 -13 18
-15 -14 -19 -14 -41 4 -13 10 -29 19 -37 19 -8 0 -14 5 -14 12 0 9 -3 9 -12 0
-7 -7 -32 -12 -56 -12 -24 0 -52 -5 -62 -10 -15 -8 -22 -6 -33 11 -14 19 -15
8 -16 -108z"/>
<path fill="#ffffff" stroke="none" d="M140 255 c-8 -9 -29 -15 -59 -15 -43 1
-45 2 -27 15 11 8 38 15 59 15 34 0 38 -2 27 -15z"/>
<path fill="#ffffff" stroke="none" d="M226 245 c14 -14 29 -25 34 -25 11 0
13 -43 4 -76 -4 -15 -12 -20 -24 -17 -15 4 -16 10 -8 45 5 22 7 41 6 42 -2 1
-20 11 -40 21 -21 11 -38 23 -38 27 0 18 43 6 66 -17z"/>
<path fill="#ffffff" stroke="none" d="M191 207 c-7 -7 -16 -5 -31 8 -30 27
-24 38 11 19 23 -11 28 -19 20 -27z"/>
<path fill="#ffffff" stroke="none" d="M84 223 c4 -5 19 -8 33 -8 15 0 28 -6
30 -12 3 -9 -7 -13 -32 -13 -24 0 -34 4 -29 11 4 8 0 9 -15 4 -15 -5 -21 -2
-21 9 0 17 21 22 34 9z"/>
<path fill="#ffffff" stroke="none" d="M220 177 c0 -29 -7 -37 -26 -30 -17 6
-18 40 -1 46 23 10 27 7 27 -16z"/>
<path fill="#ffffff" stroke="none" d="M170 165 c0 -12 -7 -14 -27 -9 -62 15
-69 23 -20 23 36 1 47 -3 47 -14z"/>
<path fill="#ffffff" stroke="none" d="M139 145 c23 -7 27 -20 10 -30 -6 -4
-21 2 -33 14 -28 27 -45 28 -21 1 18 -20 18 -20 -13 -9 -44 15 -42 37 2 33 19
-1 44 -5 55 -9z"/>
<path fill="#ffffff" stroke="none" d="M205 121 c5 -9 -31 -41 -47 -41 -12 0
-9 19 5 35 14 16 33 19 42 6z"/>
<path fill="#ffffff" stroke="none" d="M132 84 c-2 -5 -22 -8 -45 -6 -31 2
-38 0 -27 -8 8 -5 32 -10 53 -10 20 0 37 -4 37 -10 0 -5 -25 -10 -55 -10 -30
0 -55 4 -55 9 0 5 3 22 6 38 l6 30 41 -12 c23 -7 41 -16 39 -21z"/>
<path fill="#ffffff" stroke="none" d="M243 105 c7 -17 -37 -55 -64 -55 -28 0
-23 13 11 33 17 10 30 22 30 28 0 14 17 11 23 -6z"/>
<path fill="#000000" stroke="none" d="M98 253 c7 -3 16 -2 19 1 4 3 -2 6 -13
5 -11 0 -14 -3 -6 -6z"/>
<path fill="#000000" stroke="none" d="M195 170 c-3 -5 -1 -10 4 -10 6 0 11 5
11 10 0 6 -2 10 -4 10 -3 0 -8 -4 -11 -10z"/>
</g>
</svg>
