<?xml version="1.0" standalone="no"?>
<!DOCTYPE svg PUBLIC "-//W3C//DTD SVG 20010904//EN"
 "http://www.w3.org/TR/2001/REC-SVG-20010904/DTD/svg10.dtd">
<svg version="1.0" xmlns="http://www.w3.org/2000/svg"
 width="32.000000pt" height="32.000000pt" viewBox="0 0 32.000000 32.000000"
 preserveAspectRatio="xMidYMid meet">
<metadata>
Created by potrace 1.16, written by Peter Selinger 2001-2019
</metadata>
<g transform="translate(0.000000,32.000000) scale(0.100000,-0.100000)"
fill="#000000" stroke="none">
<path fill="#000000" stroke="none" d="M0 173 l0 -148 22 34 c30 46 32 159 4
190 -12 13 -16 25 -10 30 5 5 55 11 111 13 62 2 107 8 115 16 9 9 -15 12 -115
12 l-127 0 0 -147z"/>
<path fill="#000000" stroke="none" d="M259 301 c-7 -9 -15 -24 -17 -32 -2 -8
-7 -15 -12 -17 -5 -2 -7 -9 -4 -17 3 -7 -4 -19 -14 -27 -18 -12 -19 -15 -5
-33 10 -13 14 -14 10 -4 -2 8 6 33 19 55 l24 39 1 -35 c1 -24 4 -16 9 25 5 33
7 61 6 62 -1 1 -9 -6 -17 -16z"/>
<path fill="#000000" stroke="none" d="M294 293 c-3 -16 -7 -34 -10 -41 -5
-18 14 -114 26 -126 7 -7 10 25 10 92 0 98 -12 135 -26 75z"/>
<path fill="#000000" stroke="none" d="M36 271 c-3 -5 1 -14 9 -21 8 -7 15
-22 15 -34 1 -20 1 -20 12 -2 9 15 7 22 -8 33 -10 8 -18 19 -16 24 3 12 -5 12
-12 0z"/>
<path fill="#000000" stroke="none" d="M188 273 c6 -2 18 -2 25 0 6 3 1 5 -13
5 -14 0 -19 -2 -12 -5z"/>
<path fill="#000000" stroke="none" d="M78 263 c12 -2 30 -2 40 0 9 3 -1 5
-23 4 -22 0 -30 -2 -17 -4z"/>
<path fill="#000000" stroke="none" d="M98 233 c7 -3 16 -2 19 1 4 3 -2 6 -13
5 -11 0 -14 -3 -6 -6z"/>
<path fill="#000000" stroke="none" d="M80 212 c0 -7 4 -12 9 -12 5 0 13 -10
16 -21 4 -12 10 -17 14 -11 3 5 17 12 31 15 23 4 23 4 -4 6 -16 0 -38 8 -48
18 -11 9 -18 11 -18 5z"/>
<path fill="#000000" stroke="none" d="M84 117 c-10 -43 -10 -47 3 -34 9 8 13
28 11 48 -3 33 -3 33 -14 -14z"/>
<path fill="#000000" stroke="none" d="M150 136 c0 -8 4 -17 9 -20 5 -4 7 3 4
14 -6 23 -13 26 -13 6z"/>
<path fill="#000000" stroke="none" d="M199 121 c17 -11 4 -34 -15 -27 -8 3
-14 1 -14 -4 0 -14 22 -12 44 5 20 15 14 35 -12 35 -14 0 -14 -2 -3 -9z"/>
<path fill="#000000" stroke="none" d="M280 121 c0 -7 -6 -11 -14 -8 -10 4
-13 -2 -12 -18 1 -22 2 -23 21 -7 11 9 21 17 22 17 1 0 -2 7 -7 15 -8 12 -10
12 -10 1z"/>
<path fill="#000000" stroke="none" d="M120 90 c-9 -6 -10 -10 -3 -10 6 0 15
5 18 10 8 12 4 12 -15 0z"/>
<path fill="#000000" stroke="none" d="M282 70 c-20 -12 -32 -26 -29 -34 3 -8
0 -19 -6 -25 -8 -8 0 -11 31 -11 l42 0 0 45 c0 25 -1 45 -2 45 -2 0 -18 -9
-36 -20z"/>
<path fill="#000000" stroke="none" d="M194 61 c4 -6 -11 -11 -36 -14 l-43 -4
46 -1 c25 -1 50 -7 57 -14 9 -9 12 -9 12 3 0 8 -9 20 -21 27 -12 8 -18 9 -15
3z"/>
<path fill="#000000" stroke="none" d="M45 34 c-37 -23 -38 -24 -10 -18 40 9
73 23 57 23 -7 1 -10 6 -7 11 8 13 7 13 -40 -16z"/>
<path fill="#000000" stroke="none" d="M105 15 l-40 -13 79 -1 c69 -1 77 1 66
14 -15 18 -51 18 -105 0z"/>
</g>
</svg>
