<?xml version="1.0" standalone="no"?>
<!DOCTYPE svg PUBLIC "-//W3C//DTD SVG 20010904//EN"
 "http://www.w3.org/TR/2001/REC-SVG-20010904/DTD/svg10.dtd">
<svg version="1.0" xmlns="http://www.w3.org/2000/svg"
 width="32.000000pt" height="32.000000pt" viewBox="0 0 32.000000 32.000000"
 preserveAspectRatio="xMidYMid meet">
<metadata>
Created by potrace 1.16, written by Peter Selinger 2001-2019
</metadata>
<g transform="translate(0.000000,32.000000) scale(0.100000,-0.100000)"
fill="#000000" stroke="none">
<path fill="#000000" stroke="none" d="M75 304 c88 -16 222 -12 239 7 8 9 2
10 -24 5 -73 -15 -140 -18 -152 -9 -7 6 -42 11 -78 11 l-65 0 80 -14z"/>
<path fill="#000000" stroke="none" d="M39 282 c10 -19 51 -58 51 -49 0 3 16
-1 35 -9 19 -7 49 -14 67 -13 26 1 19 4 -32 18 -69 18 -115 39 -106 48 3 3 22
-1 43 -9 21 -9 62 -21 91 -28 52 -12 54 -12 82 15 l28 27 7 -67 c7 -61 5 -86
-11 -156 -4 -19 -1 -28 12 -33 13 -5 15 -4 5 8 -8 10 -9 21 -1 40 5 15 10 70
10 121 0 92 0 94 -22 88 -59 -14 -166 -14 -216 0 -49 15 -52 15 -43 -1z"/>
<path fill="#ffffff" stroke="none" d="M253 249 c-7 -7 -21 -7 -44 -1 l-34 10
45 1 c31 1 41 -2 33 -10z"/>
<path fill="#000000" stroke="none" d="M7 268 c7 -8 11 -17 8 -20 -9 -9 -14
-218 -4 -223 11 -7 10 -17 12 129 1 96 -2 121 -14 124 -11 4 -12 2 -2 -10z"/>
<path fill="#000000" stroke="none" d="M36 183 c-3 -32 -2 -71 2 -88 l9 -30
12 39 c14 40 10 111 -7 128 -6 6 -12 -12 -16 -49z"/>
<path fill="#ffffff" stroke="none" d="M51 127 c-13 -13 -14 5 -3 43 l7 25 3
-29 c2 -16 -1 -33 -7 -39z"/>
<path fill="#000000" stroke="none" d="M278 180 c3 -30 -2 -61 -11 -79 -14
-28 -13 -41 4 -41 10 0 26 104 21 139 -7 50 -17 36 -14 -19z"/>
<path fill="#000000" stroke="none" d="M88 173 c4 -35 5 -36 14 -14 6 17 5 29
-5 38 -11 11 -12 7 -9 -24z"/>
<path fill="#000000" stroke="none" d="M243 204 c3 -4 0 -19 -8 -35 -21 -39
-20 -71 3 -67 13 2 18 15 20 56 2 36 -1 52 -9 52 -7 0 -10 -3 -6 -6z"/>
<path fill="#ffffff" stroke="none" d="M241 117 c-13 -13 -15 11 -4 40 7 16 8
15 11 -6 2 -13 -1 -28 -7 -34z"/>
<path fill="#000000" stroke="none" d="M199 182 c-11 -5 -14 -13 -9 -26 3 -11
9 -15 12 -10 7 12 18 44 15 43 -1 0 -9 -3 -18 -7z"/>
<path fill="#000000" stroke="none" d="M117 159 c-4 -16 -3 -18 9 -8 7 6 11
15 8 20 -8 13 -11 11 -17 -12z"/>
<path fill="#000000" stroke="none" d="M118 116 c-24 -18 -12 -26 39 -26 46 0
56 12 24 30 -26 13 -42 12 -63 -4z"/>
<path fill="#ffffff" stroke="none" d="M170 110 c11 -7 7 -10 -18 -10 -20 0
-31 4 -27 10 8 13 26 13 45 0z"/>
<path fill="#000000" stroke="none" d="M60 65 c-13 -16 -2 -26 24 -20 12 3 46
6 76 9 30 2 55 7 57 12 5 14 -145 13 -157 -1z"/>
<path fill="#ffffff" stroke="none" d="M113 63 c-7 -2 -19 -2 -25 0 -7 3 -2 5
12 5 14 0 19 -2 13 -5z"/>
<path fill="#000000" stroke="none" d="M96 30 c-27 -5 -54 -14 -60 -21 -8 -9
-6 -10 9 -4 11 4 53 11 93 17 61 8 76 7 97 -6 27 -18 60 -22 50 -6 -4 6 -10 8
-15 5 -4 -3 -10 0 -12 5 -5 15 -102 21 -162 10z"/>
</g>
</svg>
