<?xml version="1.0" standalone="no"?>
<!DOCTYPE svg PUBLIC "-//W3C//DTD SVG 20010904//EN"
 "http://www.w3.org/TR/2001/REC-SVG-20010904/DTD/svg10.dtd">
<svg version="1.0" xmlns="http://www.w3.org/2000/svg"
 width="32.000000pt" height="32.000000pt" viewBox="0 0 32.000000 32.000000"
 preserveAspectRatio="xMidYMid meet">
<metadata>
Created by potrace 1.16, written by Peter Selinger 2001-2019
</metadata>
<g transform="translate(0.000000,32.000000) scale(0.100000,-0.100000)"
fill="#000000" stroke="none">
<path fill="#000000" stroke="none" d="M14 305 c-7 -18 20 -47 32 -35 13 12
138 29 142 19 2 -5 9 -9 16 -9 7 0 21 -9 31 -20 16 -18 20 -18 34 -5 15 13 16
9 15 -44 -1 -33 -5 -69 -9 -80 -4 -14 -1 -23 9 -27 9 -3 16 -13 16 -21 0 -13
-3 -13 -15 -3 -13 11 -19 9 -38 -7 -39 -36 -70 -47 -146 -49 -42 -2 -79 -8
-85 -15 -8 -9 -8 -10 3 -4 8 5 42 7 77 6 50 -2 72 3 112 23 28 14 52 31 54 38
4 10 8 10 22 -1 25 -21 46 2 24 26 -18 21 -22 140 -6 160 14 17 -18 29 -36 14
-9 -8 -16 -8 -20 -2 -4 5 -20 16 -36 25 -28 13 -84 11 -172 -6 -7 -2 -12 5
-10 15 4 21 -6 23 -14 2z"/>
<path fill="#000000" stroke="none" d="M16 221 c14 -47 11 -96 -11 -181 l-6
-25 15 25 c23 40 31 150 12 193 -21 52 -26 46 -10 -12z"/>
<path fill="#000000" stroke="none" d="M60 257 c-24 -11 -24 -11 14 -15 26 -2
44 2 55 12 14 15 13 16 -14 15 -17 0 -41 -5 -55 -12z"/>
<path fill="#ffffff" stroke="none" d="M117 254 c-3 -3 -12 -4 -19 -1 -8 3 -5
6 6 6 11 1 17 -2 13 -5z"/>
<path fill="#000000" stroke="none" d="M170 263 c0 -14 58 -44 64 -34 3 5 0
13 -7 19 -18 14 -57 25 -57 15z"/>
<path fill="#000000" stroke="none" d="M156 221 c10 -10 25 -16 32 -13 15 5
-15 31 -37 32 -11 0 -9 -5 5 -19z"/>
<path fill="#000000" stroke="none" d="M50 215 c0 -9 6 -12 15 -9 8 4 12 10 9
15 -8 14 -24 10 -24 -6z"/>
<path fill="#000000" stroke="none" d="M99 204 l-24 -13 25 0 c14 -1 31 3 38
8 25 15 -11 20 -39 5z"/>
<path fill="#000000" stroke="none" d="M249 218 c0 -2 -2 -10 -4 -18 -1 -8 -6
-27 -10 -42 -5 -21 -4 -28 8 -28 25 0 39 71 17 85 -5 3 -10 5 -11 3z"/>
<path fill="#000000" stroke="none" d="M198 192 c-22 -4 -24 -38 -3 -46 10 -3
17 3 21 20 7 29 5 32 -18 26z"/>
<path fill="#ffffff" stroke="none" d="M210 170 c0 -5 -5 -10 -11 -10 -5 0 -7
5 -4 10 3 6 8 10 11 10 2 0 4 -4 4 -10z"/>
<path fill="#000000" stroke="none" d="M115 170 c3 -5 17 -10 31 -10 13 0 24
5 24 10 0 6 -14 10 -31 10 -17 0 -28 -4 -24 -10z"/>
<path fill="#000000" stroke="none" d="M50 146 c0 -7 10 -16 22 -19 31 -9 33
-2 3 17 -20 13 -25 14 -25 2z"/>
<path fill="#000000" stroke="none" d="M114 135 c22 -17 36 -19 36 -6 0 10
-24 21 -43 21 -7 0 -3 -7 7 -15z"/>
<path fill="#000000" stroke="none" d="M167 112 c-26 -28 -20 -34 13 -17 17 9
28 20 25 25 -9 15 -20 12 -38 -8z"/>
<path fill="#000000" stroke="none" d="M50 95 c0 -11 11 -15 47 -15 53 0 48
14 -9 24 -31 6 -38 4 -38 -9z"/>
<path fill="#000000" stroke="none" d="M190 80 c-23 -20 -30 -30 -19 -30 19 0
69 37 69 51 0 15 -13 10 -50 -21z"/>
<path fill="#000000" stroke="none" d="M40 56 c0 -13 11 -16 50 -16 28 0 50 5
50 10 0 6 -15 10 -34 10 -19 0 -41 3 -50 6 -11 4 -16 1 -16 -10z"/>
</g>
</svg>
