<?xml version="1.0" standalone="no"?>
<!DOCTYPE svg PUBLIC "-//W3C//DTD SVG 20010904//EN"
 "http://www.w3.org/TR/2001/REC-SVG-20010904/DTD/svg10.dtd">
<svg version="1.0" xmlns="http://www.w3.org/2000/svg"
 width="32.000000pt" height="32.000000pt" viewBox="0 0 32.000000 32.000000"
 preserveAspectRatio="xMidYMid meet">
<metadata>
Created by potrace 1.16, written by Peter Selinger 2001-2019
</metadata>
<g transform="translate(0.000000,32.000000) scale(0.100000,-0.100000)"
fill="#000000" stroke="none">
<path fill="#000000" stroke="none" d="M0 183 c0 -183 0 -183 61 -183 71 0 61
31 -14 45 -42 8 -42 3 -16 93 9 34 9 48 -1 67 -16 30 -12 36 57 70 42 22 75
31 125 33 l68 4 0 -156 c0 -149 1 -156 20 -156 19 0 20 7 20 160 l0 160 -160
0 -160 0 0 -137z"/>
<path fill="#000000" stroke="none" d="M178 289 c-26 -4 -68 -17 -92 -30 -45
-22 -45 -22 -39 -65 4 -29 0 -57 -11 -84 -9 -22 -16 -42 -16 -44 0 -2 18 -6
40 -10 24 -4 45 -14 52 -26 18 -28 24 -25 32 11 10 53 35 95 57 96 20 2 20 1
5 -20 -33 -45 -56 -82 -56 -92 0 -5 7 2 17 15 35 54 66 80 87 75 21 -6 21 -6
1 12 -15 14 -19 28 -17 63 2 30 -2 52 -13 65 l-17 20 8 -20 c14 -37 10 -100
-6 -100 -10 0 -17 15 -21 48 -4 43 -2 51 19 68 14 11 23 21 21 22 -2 2 -25 0
-51 -4z"/>
<path fill="#ffffff" stroke="none" d="M175 260 c-10 -11 -27 -20 -37 -20 -10
0 -34 -7 -53 -14 -19 -8 -35 -11 -35 -6 0 16 90 57 129 59 11 1 10 -4 -4 -19z"/>
<path fill="#ffffff" stroke="none" d="M140 220 c0 -14 -24 -23 -47 -17 -15 3
-14 6 7 15 32 14 40 14 40 2z"/>
<path fill="#ffffff" stroke="none" d="M179 173 c1 -14 -5 -23 -14 -23 -16 0
-20 35 -8 66 6 16 7 16 14 -2 4 -10 8 -29 8 -41z"/>
<path fill="#ffffff" stroke="none" d="M72 138 c-9 -9 -12 -4 -11 22 0 33 1
34 11 12 8 -17 8 -26 0 -34z"/>
<path fill="#ffffff" stroke="none" d="M110 183 c0 -5 -4 -14 -9 -21 -6 -10
-10 -9 -14 7 -3 14 0 21 9 21 8 0 14 -3 14 -7z"/>
<path fill="#ffffff" stroke="none" d="M129 149 c-20 -12 -22 -4 -8 23 12 21
13 21 17 4 2 -10 -2 -22 -9 -27z"/>
<path fill="#ffffff" stroke="none" d="M157 119 c-14 -23 -23 -24 -30 -5 -7
17 -3 21 22 23 18 2 19 -1 8 -18z"/>
<path fill="#ffffff" stroke="none" d="M115 110 c7 -12 -12 -12 -40 0 -18 8
-17 9 7 9 15 1 30 -3 33 -9z"/>
<path fill="#ffffff" stroke="none" d="M99 89 c20 -7 31 -18 31 -30 0 -18 -2
-19 -30 -4 -16 8 -36 15 -45 15 -18 0 -20 16 -2 23 6 3 12 6 13 6 1 1 15 -4
33 -10z"/>
</g>
</svg>
