<?xml version="1.0" standalone="no"?>
<!DOCTYPE svg PUBLIC "-//W3C//DTD SVG 20010904//EN"
 "http://www.w3.org/TR/2001/REC-SVG-20010904/DTD/svg10.dtd">
<svg version="1.0" xmlns="http://www.w3.org/2000/svg"
 width="32.000000pt" height="32.000000pt" viewBox="0 0 32.000000 32.000000"
 preserveAspectRatio="xMidYMid meet">
<metadata>
Created by potrace 1.16, written by Peter Selinger 2001-2019
</metadata>
<g transform="translate(0.000000,32.000000) scale(0.100000,-0.100000)"
fill="#000000" stroke="none">
<path fill="#000000" stroke="none" d="M78 308 c23 -9 194 -9 209 0 6 4 -42 7
-108 7 -65 0 -111 -3 -101 -7z"/>
<path fill="#000000" stroke="none" d="M8 305 c-3 -6 -1 -45 5 -87 8 -60 8
-88 -3 -132 -7 -31 -11 -59 -8 -62 4 -3 12 19 19 50 12 56 2 253 -13 231z"/>
<path fill="#000000" stroke="none" d="M78 278 c23 -9 180 -10 185 0 3 4 -42
7 -99 7 -57 0 -96 -3 -86 -7z"/>
<path fill="#000000" stroke="none" d="M295 235 c-9 -31 -17 -76 -17 -100 -1
-46 18 -105 34 -105 5 0 2 10 -6 22 -21 29 -21 109 0 177 8 29 13 55 10 58 -3
3 -12 -20 -21 -52z"/>
<path fill="#000000" stroke="none" d="M260 239 c-30 -67 -26 -191 7 -203 12
-5 13 -2 7 11 -15 35 -16 122 0 175 19 66 12 75 -14 17z"/>
<path fill="#000000" stroke="none" d="M80 250 c8 -5 30 -10 49 -10 45 0 37 6
-19 14 -31 4 -40 3 -30 -4z"/>
<path fill="#000000" stroke="none" d="M41 225 c0 -16 4 -39 9 -50 7 -16 9
-14 9 15 0 19 -4 42 -9 50 -7 11 -10 8 -9 -15z"/>
<path fill="#000000" stroke="none" d="M180 240 c0 -5 4 -10 9 -10 6 0 13 5
16 10 3 6 -1 10 -9 10 -9 0 -16 -4 -16 -10z"/>
<path fill="#000000" stroke="none" d="M208 222 c-22 -14 -28 -24 -28 -54 0
-43 15 -88 30 -88 5 0 10 21 10 48 0 26 4 62 9 80 5 17 9 32 8 31 -1 0 -14 -8
-29 -17z"/>
<path fill="#ffffff" stroke="none" d="M211 154 c-2 -38 -6 -52 -12 -43 -10
16 -12 83 -2 92 15 15 18 4 14 -49z"/>
<path fill="#000000" stroke="none" d="M95 211 c13 -13 19 -13 47 1 l33 15
-47 -1 c-41 -1 -45 -3 -33 -15z"/>
<path fill="#000000" stroke="none" d="M77 177 c-4 -10 -7 -26 -7 -35 1 -15 2
-15 11 1 6 10 9 25 7 35 -3 16 -4 15 -11 -1z"/>
<path fill="#000000" stroke="none" d="M130 176 c0 -7 7 -19 15 -26 13 -11 15
-8 15 14 0 16 -5 26 -15 26 -8 0 -15 -6 -15 -14z"/>
<path fill="#000000" stroke="none" d="M95 110 c3 -5 8 -10 11 -10 2 0 4 5 4
10 0 6 -5 10 -11 10 -5 0 -7 -4 -4 -10z"/>
<path fill="#000000" stroke="none" d="M125 110 c3 -5 8 -10 11 -10 2 0 4 5 4
10 0 6 -5 10 -11 10 -5 0 -7 -4 -4 -10z"/>
<path fill="#000000" stroke="none" d="M144 86 c-10 -26 -1 -38 20 -23 16 12
16 14 2 26 -13 11 -17 11 -22 -3z"/>
<path fill="#000000" stroke="none" d="M37 70 c-3 -11 -3 -20 -1 -20 2 0 8 9
14 20 6 11 7 20 2 20 -6 0 -12 -9 -15 -20z"/>
<path fill="#000000" stroke="none" d="M70 70 c-10 -18 -8 -20 21 -20 24 0 30
3 25 16 -3 9 -6 18 -6 20 0 13 -31 1 -40 -16z"/>
<path fill="#ffffff" stroke="none" d="M100 70 c0 -5 -4 -10 -10 -10 -5 0 -10
5 -10 10 0 6 5 10 10 10 6 0 10 -4 10 -10z"/>
<path fill="#000000" stroke="none" d="M178 49 c-29 -16 -20 -29 12 -18 16 6
27 15 24 20 -7 11 -15 11 -36 -2z"/>
<path fill="#000000" stroke="none" d="M90 30 c0 -5 9 -10 21 -10 11 0 17 4
14 10 -8 13 -35 13 -35 0z"/>
<path fill="#000000" stroke="none" d="M193 12 c-6 -4 16 -8 50 -8 39 -1 54 2
42 7 -26 10 -77 11 -92 1z"/>
<path fill="#000000" stroke="none" d="M58 3 c12 -2 30 -2 40 0 9 3 -1 5 -23
4 -22 0 -30 -2 -17 -4z"/>
</g>
</svg>
