<?xml version="1.0" standalone="no"?>
<!DOCTYPE svg PUBLIC "-//W3C//DTD SVG 20010904//EN"
 "http://www.w3.org/TR/2001/REC-SVG-20010904/DTD/svg10.dtd">
<svg version="1.0" xmlns="http://www.w3.org/2000/svg"
 width="32.000000pt" height="32.000000pt" viewBox="0 0 32.000000 32.000000"
 preserveAspectRatio="xMidYMid meet">
<metadata>
Created by potrace 1.16, written by Peter Selinger 2001-2019
</metadata>
<g transform="translate(0.000000,32.000000) scale(0.100000,-0.100000)"
fill="#000000" stroke="none">
<path fill="#000000" stroke="none" d="M270 294 c-13 -14 -49 -38 -80 -53 -40
-19 -56 -33 -60 -51 -9 -43 -38 -87 -87 -129 -27 -22 -43 -41 -36 -41 6 0 15
5 18 10 3 6 11 10 16 10 6 0 8 -3 6 -7 -3 -5 16 -6 41 -4 l47 4 -35 8 c-19 4
-39 5 -45 1 -5 -3 -4 2 3 11 10 12 19 14 38 6 35 -13 44 -11 44 7 0 11 -7 14
-30 10 l-30 -4 29 41 c17 23 33 55 37 70 5 22 18 34 58 51 46 21 123 86 100
86 -5 0 -20 -12 -34 -26z"/>
<path fill="#000000" stroke="none" d="M294 276 c-30 -30 -34 -39 -44 -100 -5
-34 -5 -68 1 -90 16 -58 28 -41 22 32 -3 39 0 85 7 111 15 58 22 47 11 -20
-11 -65 0 -174 19 -192 11 -10 11 -8 5 8 -15 36 -18 166 -5 205 18 53 11 73
-16 46z"/>
<path fill="#000000" stroke="none" d="M213 224 c-35 -15 -36 -17 -24 -48 7
-18 9 -16 19 12 6 18 12 32 14 32 2 0 2 -28 1 -62 l-2 -63 13 70 c7 39 13 70
12 71 0 1 -16 -5 -33 -12z"/>
<path fill="#000000" stroke="none" d="M153 163 c-8 -22 -8 -35 -2 -39 16 -9
21 1 17 38 l-3 33 -12 -32z"/>
<path fill="#000000" stroke="none" d="M176 120 c-7 -39 -5 -44 17 -27 14 10
14 15 3 36 l-13 23 -7 -32z"/>
<path fill="#000000" stroke="none" d="M125 110 c-3 -5 1 -13 10 -16 22 -9 29
1 11 15 -10 8 -16 9 -21 1z"/>
<path fill="#000000" stroke="none" d="M183 72 c-51 -24 -43 -42 12 -29 47 11
53 18 33 35 -9 6 -23 5 -45 -6z"/>
<path fill="#000000" stroke="none" d="M176 25 c-21 -7 -52 -11 -70 -8 -17 2
-42 0 -56 -6 -20 -8 -10 -9 45 -6 39 2 93 7 121 10 34 5 54 4 58 -4 4 -6 13
-11 19 -11 7 1 1 10 -12 20 -27 23 -51 24 -105 5z"/>
</g>
</svg>
