<?xml version="1.0" standalone="no"?>
<!DOCTYPE svg PUBLIC "-//W3C//DTD SVG 20010904//EN"
 "http://www.w3.org/TR/2001/REC-SVG-20010904/DTD/svg10.dtd">
<svg version="1.0" xmlns="http://www.w3.org/2000/svg"
 width="32.000000pt" height="32.000000pt" viewBox="0 0 32.000000 32.000000"
 preserveAspectRatio="xMidYMid meet">
<metadata>
Created by potrace 1.16, written by Peter Selinger 2001-2019
</metadata>
<g transform="translate(0.000000,32.000000) scale(0.100000,-0.100000)"
fill="#000000" stroke="none">
<path fill="#000000" stroke="none" d="M2 295 c0 -16 2 -22 5 -12 2 9 2 23 0
30 -3 6 -5 -1 -5 -18z"/>
<path fill="#000000" stroke="none" d="M73 306 c-41 -15 -48 -23 -35 -38 6 -8
7 -30 3 -58 -12 -68 -7 -203 8 -208 7 -2 15 6 18 18 4 16 11 20 27 16 11 -3
31 -6 44 -6 13 0 22 -6 22 -15 0 -12 16 -15 80 -15 l80 0 0 160 0 160 -107 -1
c-60 -1 -122 -7 -140 -13z"/>
<path fill="#ffffff" stroke="none" d="M251 289 c13 -7 27 -12 31 -11 4 1 12
-17 18 -40 9 -33 9 -53 -3 -97 -8 -31 -18 -68 -21 -82 -4 -20 -11 -26 -28 -23
-13 2 -60 5 -105 8 -67 3 -83 1 -83 -10 0 -8 -3 -14 -7 -14 -11 0 -5 193 7
224 8 21 7 26 -5 26 -28 0 -15 17 23 28 46 13 141 9 173 -9z"/>
<path fill="#000000" stroke="none" d="M100 284 c0 -5 24 -9 53 -9 28 0 66 -4
82 -8 23 -7 27 -6 18 4 -14 14 -153 26 -153 13z"/>
<path fill="#000000" stroke="none" d="M81 246 c-6 -7 -14 -41 -18 -76 -5 -51
-4 -62 8 -58 8 3 17 22 20 44 3 21 9 51 13 65 9 30 -6 46 -23 25z"/>
<path fill="#ffffff" stroke="none" d="M93 220 c-3 -12 -8 -19 -11 -16 -5 6 5
36 12 36 2 0 2 -9 -1 -20z"/>
<path fill="#ffffff" stroke="none" d="M77 138 c-3 -7 -5 -2 -5 12 0 14 2 19
5 13 2 -7 2 -19 0 -25z"/>
<path fill="#000000" stroke="none" d="M141 256 c2 -2 27 -6 54 -10 36 -5 46
-4 35 3 -13 10 -99 16 -89 7z"/>
<path fill="#000000" stroke="none" d="M120 215 c-10 -27 -14 -72 -5 -64 14
15 34 79 25 84 -6 3 -15 -6 -20 -20z"/>
<path fill="#000000" stroke="none" d="M176 215 c4 -8 10 -12 15 -9 14 8 10
24 -6 24 -9 0 -12 -6 -9 -15z"/>
<path fill="#000000" stroke="none" d="M237 193 c-6 -47 9 -66 23 -29 14 38
13 66 -4 66 -8 0 -16 -14 -19 -37z"/>
<path fill="#000000" stroke="none" d="M283 195 c0 -22 2 -30 4 -17 2 12 2 30
0 40 -3 9 -5 -1 -4 -23z"/>
<path fill="#000000" stroke="none" d="M201 196 c-9 -11 -9 -16 0 -21 10 -7
28 10 29 28 0 12 -17 8 -29 -7z"/>
<path fill="#000000" stroke="none" d="M150 160 c0 -5 12 -10 28 -10 21 0 24
2 12 10 -20 13 -40 13 -40 0z"/>
<path fill="#000000" stroke="none" d="M266 135 c-9 -26 -7 -32 5 -12 6 10 9
21 6 23 -2 3 -7 -2 -11 -11z"/>
<path fill="#000000" stroke="none" d="M114 128 c-3 -4 1 -11 9 -14 23 -8 100
0 104 11 4 12 -106 15 -113 3z"/>
<path fill="#000000" stroke="none" d="M86 93 c-10 -26 13 -33 94 -31 59 2 75
6 75 18 0 12 -12 14 -62 12 -33 -2 -70 1 -81 7 -16 8 -21 7 -26 -6z"/>
<path fill="#ffffff" stroke="none" d="M159 74 c10 -9 -45 -3 -59 6 -11 7 -5
8 20 4 19 -4 37 -8 39 -10z"/>
</g>
</svg>
