<?xml version="1.0" standalone="no"?>
<!DOCTYPE svg PUBLIC "-//W3C//DTD SVG 20010904//EN"
 "http://www.w3.org/TR/2001/REC-SVG-20010904/DTD/svg10.dtd">
<svg version="1.0" xmlns="http://www.w3.org/2000/svg"
 width="32.000000pt" height="32.000000pt" viewBox="0 0 32.000000 32.000000"
 preserveAspectRatio="xMidYMid meet">
<metadata>
Created by potrace 1.16, written by Peter Selinger 2001-2019
</metadata>
<g transform="translate(0.000000,32.000000) scale(0.100000,-0.100000)"
fill="#000000" stroke="none">
<path fill="#000000" stroke="none" d="M242 308 c-8 -8 -53 -14 -115 -16 -56
-2 -106 -8 -111 -13 -6 -5 -2 -17 10 -30 28 -31 26 -143 -4 -191 -12 -20 -22
-41 -22 -48 0 -14 40 -11 132 11 52 12 59 11 77 -5 17 -15 24 -16 35 -7 8 7
12 19 9 26 -3 9 9 22 31 36 41 24 41 25 20 68 -17 33 -22 121 -10 159 6 19 4
22 -16 22 -13 0 -29 -5 -36 -12z"/>
<path fill="#ffffff" stroke="none" d="M243 245 c-3 -9 -8 -14 -10 -11 -3 3
-2 9 2 15 9 16 15 13 8 -4z"/>
<path fill="#ffffff" stroke="none" d="M87 83 c-13 -13 -13 -9 -3 34 11 47 11
47 14 14 2 -20 -2 -40 -11 -48z"/>
</g>
</svg>
