<?xml version="1.0" standalone="no"?>
<!DOCTYPE svg PUBLIC "-//W3C//DTD SVG 20010904//EN"
 "http://www.w3.org/TR/2001/REC-SVG-20010904/DTD/svg10.dtd">
<svg version="1.0" xmlns="http://www.w3.org/2000/svg"
 width="32.000000pt" height="32.000000pt" viewBox="0 0 32.000000 32.000000"
 preserveAspectRatio="xMidYMid meet">
<metadata>
Created by potrace 1.16, written by Peter Selinger 2001-2019
</metadata>
<g transform="translate(0.000000,32.000000) scale(0.100000,-0.100000)"
fill="#000000" stroke="none">
<path fill="#000000" stroke="none" d="M77 213 c-3 -4 -14 -39 -26 -78 -12
-38 -24 -78 -27 -87 -5 -17 6 -18 135 -18 78 0 141 3 140 8 0 4 -13 45 -28 92
l-27 85 -81 3 c-45 1 -83 -1 -86 -5z"/>
<path fill="#ffffff" stroke="none" d="M231 140 l6 -55 2 50 3 50 22 -70 23
-70 -30 -3 c-19 -2 -34 3 -43 15 -13 16 -13 16 -8 1 7 -21 -6 -23 -25 -5 -11
10 -13 10 -7 0 5 -9 -1 -13 -18 -13 -31 0 -33 11 -8 33 15 13 21 14 32 4 8 -7
7 -3 -2 8 -10 13 -14 31 -11 53 3 20 1 32 -6 32 -6 0 -11 -17 -11 -39 0 -40
-13 -61 -25 -41 -11 18 -25 11 -24 -12 0 -21 1 -21 8 -4 5 14 10 16 15 7 13
-20 -14 -41 -54 -41 l-38 0 22 73 21 72 6 -50 6 -50 1 51 c1 28 5 54 9 58 4 4
34 6 68 4 l60 -3 6 -55z"/>
</g>
</svg>
