<?xml version="1.0" standalone="no"?>
<!DOCTYPE svg PUBLIC "-//W3C//DTD SVG 20010904//EN"
 "http://www.w3.org/TR/2001/REC-SVG-20010904/DTD/svg10.dtd">
<svg version="1.0" xmlns="http://www.w3.org/2000/svg"
 width="32.000000pt" height="32.000000pt" viewBox="0 0 32.000000 32.000000"
 preserveAspectRatio="xMidYMid meet">
<metadata>
Created by potrace 1.16, written by Peter Selinger 2001-2019
</metadata>
<g transform="translate(0.000000,32.000000) scale(0.100000,-0.100000)"
fill="#000000" stroke="none">
<path fill="#000000" stroke="none" d="M63 183 c9 -2 23 -2 30 0 6 3 -1 5 -18
5 -16 0 -22 -2 -12 -5z"/>
<path fill="#000000" stroke="none" d="M233 183 c9 -2 23 -2 30 0 6 3 -1 5
-18 5 -16 0 -22 -2 -12 -5z"/>
<path fill="#000000" stroke="none" d="M65 160 c11 -5 27 -9 35 -9 9 0 8 4 -5
9 -11 5 -27 9 -35 9 -9 0 -8 -4 5 -9z"/>
<path fill="#000000" stroke="none" d="M225 160 c-13 -5 -14 -9 -5 -9 8 0 24
4 35 9 13 5 14 9 5 9 -8 0 -24 -4 -35 -9z"/>
<path fill="#000000" stroke="none" d="M257 144 c-3 -4 -21 -10 -39 -14 -29
-7 -30 -8 -7 -9 14 -1 34 6 45 14 10 8 16 15 13 15 -3 0 -8 -3 -12 -6z"/>
<path fill="#000000" stroke="none" d="M56 132 c-2 -4 14 -8 37 -10 47 -3 47
2 0 11 -18 4 -34 3 -37 -1z"/>
<path fill="#000000" stroke="none" d="M88 98 c6 -6 18 -8 28 -6 14 3 12 5 -9
10 -19 3 -25 2 -19 -4z"/>
<path fill="#000000" stroke="none" d="M210 100 c-23 -8 -23 -8 7 -7 17 1 29
5 27 9 -3 4 -6 8 -7 7 -1 -1 -13 -5 -27 -9z"/>
<path fill="#000000" stroke="none" d="M118 73 c7 -3 16 -2 19 1 4 3 -2 6 -13
5 -11 0 -14 -3 -6 -6z"/>
<path fill="#000000" stroke="none" d="M188 73 c7 -3 16 -2 19 1 4 3 -2 6 -13
5 -11 0 -14 -3 -6 -6z"/>
</g>
</svg>
