<?xml version="1.0" standalone="no"?>
<!DOCTYPE svg PUBLIC "-//W3C//DTD SVG 20010904//EN"
 "http://www.w3.org/TR/2001/REC-SVG-20010904/DTD/svg10.dtd">
<svg version="1.0" xmlns="http://www.w3.org/2000/svg"
 width="32.000000pt" height="32.000000pt" viewBox="0 0 32.000000 32.000000"
 preserveAspectRatio="xMidYMid meet">
<metadata>
Created by potrace 1.16, written by Peter Selinger 2001-2019
</metadata>
<g transform="translate(0.000000,32.000000) scale(0.100000,-0.100000)"
fill="#000000" stroke="none">
<path fill="#000000" stroke="none" d="M72 204 c-8 -14 -13 -14 -32 -4 -18 10
-21 10 -14 -2 5 -7 9 -16 10 -20 1 -5 2 -9 3 -10 10 -13 8 -54 -4 -89 -8 -23
-15 -43 -15 -45 0 -2 63 -4 140 -4 77 0 140 2 140 4 0 2 -7 22 -15 45 -12 35
-14 76 -4 89 1 1 2 5 3 10 1 4 5 13 10 20 7 12 4 12 -14 2 -19 -10 -24 -10
-32 4 -13 23 -163 23 -176 0z"/>
<path fill="#ffffff" stroke="none" d="M228 198 c-6 -18 -130 -18 -135 0 -4 9
14 12 67 12 53 0 71 -3 68 -12z"/>
<path fill="#ffffff" stroke="none" d="M90 170 c0 -5 -2 -10 -4 -10 -3 0 -8 5
-11 10 -3 6 -1 10 4 10 6 0 11 -4 11 -10z"/>
<path fill="#ffffff" stroke="none" d="M250 176 c0 -3 -4 -8 -10 -11 -5 -3
-10 -1 -10 4 0 6 5 11 10 11 6 0 10 -2 10 -4z"/>
<path fill="#ffffff" stroke="none" d="M100 140 c0 -5 -4 -10 -10 -10 -5 0
-10 5 -10 10 0 6 5 10 10 10 6 0 10 -4 10 -10z"/>
<path fill="#ffffff" stroke="none" d="M130 140 c0 -5 -4 -10 -10 -10 -5 0
-10 5 -10 10 0 6 5 10 10 10 6 0 10 -4 10 -10z"/>
<path fill="#ffffff" stroke="none" d="M180 140 c0 -5 -4 -10 -10 -10 -5 0
-10 5 -10 10 0 6 5 10 10 10 6 0 10 -4 10 -10z"/>
<path fill="#ffffff" stroke="none" d="M210 140 c0 -5 -4 -10 -10 -10 -5 0
-10 5 -10 10 0 6 5 10 10 10 6 0 10 -4 10 -10z"/>
<path fill="#ffffff" stroke="none" d="M240 146 c0 -3 -4 -8 -10 -11 -5 -3
-10 -1 -10 4 0 6 5 11 10 11 6 0 10 -2 10 -4z"/>
<path fill="#ffffff" stroke="none" d="M72 111 c-6 -4 -6 -15 -1 -29 7 -19 13
-21 36 -16 25 7 27 6 14 -9 -8 -11 -28 -17 -52 -17 l-38 0 16 45 c8 25 19 42
25 39 7 -4 7 -9 0 -13z"/>
<path fill="#ffffff" stroke="none" d="M273 85 l16 -45 -86 0 c-75 0 -84 2
-73 15 10 12 16 12 26 4 8 -7 21 -8 31 -3 10 4 26 8 37 8 19 1 44 46 25 46 -6
0 -7 5 -4 10 10 16 12 13 28 -35z"/>
<path fill="#ffffff" stroke="none" d="M110 110 c0 -5 -4 -10 -10 -10 -5 0
-10 -7 -10 -17 0 -9 -3 -14 -6 -10 -8 8 5 47 17 47 5 0 9 -4 9 -10z"/>
<path fill="#ffffff" stroke="none" d="M140 110 c0 -5 -4 -10 -10 -10 -5 0
-10 5 -10 10 0 6 5 10 10 10 6 0 10 -4 10 -10z"/>
<path fill="#ffffff" stroke="none" d="M170 110 c0 -5 -4 -10 -10 -10 -5 0
-10 5 -10 10 0 6 5 10 10 10 6 0 10 -4 10 -10z"/>
<path fill="#ffffff" stroke="none" d="M200 110 c0 -5 -4 -10 -10 -10 -5 0
-10 5 -10 10 0 6 5 10 10 10 6 0 10 -4 10 -10z"/>
<path fill="#ffffff" stroke="none" d="M235 99 c4 -11 4 -23 1 -26 -3 -4 -6 1
-6 10 0 10 -4 17 -10 17 -5 0 -10 5 -10 10 0 18 19 10 25 -11z"/>
<path fill="#ffffff" stroke="none" d="M187 64 c-3 -3 -12 -4 -19 -1 -8 3 -5
6 6 6 11 1 17 -2 13 -5z"/>
</g>
</svg>
