<?xml version="1.0" standalone="no"?>
<!DOCTYPE svg PUBLIC "-//W3C//DTD SVG 20010904//EN"
 "http://www.w3.org/TR/2001/REC-SVG-20010904/DTD/svg10.dtd">
<svg version="1.0" xmlns="http://www.w3.org/2000/svg"
 width="32.000000pt" height="32.000000pt" viewBox="0 0 32.000000 32.000000"
 preserveAspectRatio="xMidYMid meet">
<metadata>
Created by potrace 1.16, written by Peter Selinger 2001-2019
</metadata>
<g transform="translate(0.000000,32.000000) scale(0.100000,-0.100000)"
fill="#000000" stroke="none">
<path fill="#000000" stroke="none" d="M0 160 l0 -160 160 0 160 0 0 160 0
160 -160 0 -160 0 0 -160z"/>
<path fill="#ffffff" stroke="none" d="M246 205 c4 -10 14 -14 28 -10 15 4 17
4 6 -3 -8 -5 -33 -12 -55 -15 -36 -6 -37 -5 -12 4 38 15 34 27 -10 32 l-38 4
38 1 c26 1 39 -3 43 -13z"/>
<path fill="#ffffff" stroke="none" d="M130 174 c8 -9 -74 8 -84 16 -4 5 11 4
35 -1 24 -6 46 -13 49 -15z"/>
<path fill="#ffffff" stroke="none" d="M115 157 c11 -3 0 -3 -25 -1 -24 2 -48
8 -54 14 -6 6 3 6 25 0 19 -5 43 -11 54 -13z"/>
<path fill="#ffffff" stroke="none" d="M235 155 c-27 -6 -57 -9 -65 -6 -8 3 5
9 30 12 74 10 88 7 35 -6z"/>
<path fill="#ffffff" stroke="none" d="M267 134 c-3 -4 -28 -8 -54 -10 l-48
-3 42 8 c24 4 46 10 49 14 4 4 10 5 12 2 3 -3 3 -8 -1 -11z"/>
<path fill="#ffffff" stroke="none" d="M150 123 c2 -2 -19 -3 -48 -1 -28 2
-52 6 -52 10 0 8 91 -1 100 -9z"/>
<path fill="#ffffff" stroke="none" d="M250 99 c0 -9 -153 -11 -167 -2 -6 5
29 8 78 8 49 0 89 -3 89 -6z"/>
<path fill="#ffffff" stroke="none" d="M299 38 c1 -5 -23 -7 -51 -6 l-53 2 47
3 c46 4 47 5 38 29 -6 14 -10 31 -9 37 0 11 27 -49 28 -65z"/>
<path fill="#ffffff" stroke="none" d="M197 73 c-20 -2 -52 -2 -70 0 -17 2 0
4 38 4 39 0 53 -2 32 -4z"/>
</g>
</svg>
