<?xml version="1.0" standalone="no"?>
<!DOCTYPE svg PUBLIC "-//W3C//DTD SVG 20010904//EN"
 "http://www.w3.org/TR/2001/REC-SVG-20010904/DTD/svg10.dtd">
<svg version="1.0" xmlns="http://www.w3.org/2000/svg"
 width="32.000000pt" height="32.000000pt" viewBox="0 0 32.000000 32.000000"
 preserveAspectRatio="xMidYMid meet">
<metadata>
Created by potrace 1.16, written by Peter Selinger 2001-2019
</metadata>
<g transform="translate(0.000000,32.000000) scale(0.100000,-0.100000)"
fill="#000000" stroke="none">
<path fill="#000000" stroke="none" d="M142 203 c-13 -41 -5 -57 24 -51 14 3
18 11 16 31 -2 24 1 27 26 27 28 0 30 -4 54 -82 l24 -83 -45 -6 -46 -6 53 -1
c28 -1 52 1 51 6 0 4 -13 45 -28 92 l-27 85 -37 0 c-23 0 -37 5 -37 13 0 26
-17 10 -28 -25z"/>
</g>
</svg>
