<?xml version="1.0" standalone="no"?>
<!DOCTYPE svg PUBLIC "-//W3C//DTD SVG 20010904//EN"
 "http://www.w3.org/TR/2001/REC-SVG-20010904/DTD/svg10.dtd">
<svg version="1.0" xmlns="http://www.w3.org/2000/svg"
 width="32.000000pt" height="32.000000pt" viewBox="0 0 32.000000 32.000000"
 preserveAspectRatio="xMidYMid meet">
<metadata>
Created by potrace 1.16, written by Peter Selinger 2001-2019
</metadata>
<g transform="translate(0.000000,32.000000) scale(0.100000,-0.100000)"
fill="#000000" stroke="none">
<path fill="#000000" stroke="none" d="M0 160 l0 -160 160 0 160 0 0 160 0
160 -160 0 -160 0 0 -160z"/>
<path fill="#ffffff" stroke="none" d="M178 203 c8 -24 8 -41 2 -47 -6 -6 -10
-35 -10 -65 0 -51 1 -53 15 -35 15 19 15 19 30 0 15 -20 15 -20 15 0 0 11 -6
26 -12 33 -10 11 -10 12 -1 7 9 -5 11 -2 7 8 -3 9 -10 14 -14 11 -5 -3 -11 1
-14 7 -3 7 -3 0 -1 -16 2 -16 1 -25 -2 -22 -12 12 -14 58 -3 71 7 9 7 21 0 39
-10 26 -9 27 22 24 31 -3 33 -6 59 -88 15 -47 28 -88 28 -92 1 -5 -62 -8 -139
-8 -77 0 -140 3 -139 8 0 4 13 45 28 92 26 82 28 85 59 88 31 3 32 2 22 -24
-7 -19 -7 -30 1 -40 6 -8 8 -22 5 -31 -4 -10 -10 -13 -14 -8 -13 19 -27 13
-28 -11 -2 -22 0 -23 10 -9 11 15 13 15 25 1 11 -14 11 -16 -3 -16 -9 0 -16
-7 -16 -16 0 -14 2 -15 17 -3 15 12 16 12 10 -3 -3 -10 -2 -18 3 -18 13 0 13
103 0 116 -10 10 7 84 20 84 4 0 12 -17 18 -37z"/>
<path fill="#000000" stroke="none" d="M91 54 c0 -11 3 -14 6 -6 3 7 2 16 -1
19 -3 4 -6 -2 -5 -13z"/>
</g>
</svg>
