<?xml version="1.0" standalone="no"?>
<!DOCTYPE svg PUBLIC "-//W3C//DTD SVG 20010904//EN"
 "http://www.w3.org/TR/2001/REC-SVG-20010904/DTD/svg10.dtd">
<svg version="1.0" xmlns="http://www.w3.org/2000/svg"
 width="32.000000pt" height="32.000000pt" viewBox="0 0 32.000000 32.000000"
 preserveAspectRatio="xMidYMid meet">
<metadata>
Created by potrace 1.16, written by Peter Selinger 2001-2019
</metadata>
<g transform="translate(0.000000,32.000000) scale(0.100000,-0.100000)"
fill="#000000" stroke="none">
<path fill="#000000" stroke="none" d="M73 202 c-62 -31 -74 -55 -43 -86 l22
-21 -12 23 c-14 29 -3 45 51 73 38 19 38 19 84 -3 30 -15 41 -25 32 -30 -17
-11 -39 -10 -32 1 3 6 -4 15 -16 21 -17 10 -29 8 -61 -6 l-40 -18 66 -33 66
-33 55 27 c64 32 77 56 45 87 l-22 21 12 -23 c14 -29 3 -45 -51 -73 -38 -19
-38 -19 -84 3 -30 15 -41 25 -32 30 17 11 39 10 32 -2 -3 -5 5 -15 19 -22 21
-9 32 -8 61 8 l35 19 -62 32 c-35 18 -65 32 -68 32 -3 0 -29 -12 -57 -27z"/>
</g>
</svg>
