<?xml version="1.0" standalone="no"?>
<!DOCTYPE svg PUBLIC "-//W3C//DTD SVG 20010904//EN"
 "http://www.w3.org/TR/2001/REC-SVG-20010904/DTD/svg10.dtd">
<svg version="1.0" xmlns="http://www.w3.org/2000/svg"
 width="32.000000pt" height="32.000000pt" viewBox="0 0 32.000000 32.000000"
 preserveAspectRatio="xMidYMid meet">
<metadata>
Created by potrace 1.16, written by Peter Selinger 2001-2019
</metadata>
<g transform="translate(0.000000,32.000000) scale(0.100000,-0.100000)"
fill="#000000" stroke="none">
<path fill="#000000" stroke="none" d="M58 263 l-57 -4 0 -98 0 -98 61 -7 c77
-8 186 -8 226 0 l31 6 0 98 0 97 -76 7 c-42 3 -88 5 -102 4 -14 -1 -52 -3 -83
-5z"/>
<path fill="#ffffff" stroke="none" d="M170 220 c0 -5 -4 -10 -10 -10 -5 0
-10 5 -10 10 0 6 5 10 10 10 6 0 10 -4 10 -10z"/>
<path fill="#ffffff" stroke="none" d="M145 179 c11 -17 -1 -21 -15 -4 -8 9
-8 15 -2 15 6 0 14 -5 17 -11z"/>
<path fill="#ffffff" stroke="none" d="M190 175 c-7 -9 -15 -13 -17 -11 -7 7
7 26 19 26 6 0 6 -6 -2 -15z"/>
<path fill="#ffffff" stroke="none" d="M185 70 c-3 -5 -15 -10 -25 -10 -10 0
-22 5 -25 10 -4 6 7 10 25 10 18 0 29 -4 25 -10z"/>
</g>
</svg>
