<?xml version="1.0" standalone="no"?>
<!DOCTYPE svg PUBLIC "-//W3C//DTD SVG 20010904//EN"
 "http://www.w3.org/TR/2001/REC-SVG-20010904/DTD/svg10.dtd">
<svg version="1.0" xmlns="http://www.w3.org/2000/svg"
 width="32.000000pt" height="32.000000pt" viewBox="0 0 32.000000 32.000000"
 preserveAspectRatio="xMidYMid meet">
<metadata>
Created by potrace 1.16, written by Peter Selinger 2001-2019
</metadata>
<g transform="translate(0.000000,32.000000) scale(0.100000,-0.100000)"
fill="#000000" stroke="none">
<path fill="#000000" stroke="none" d="M0 263 c0 -61 11 -90 28 -79 6 3 15 -2
21 -11 8 -14 11 -15 11 -3 1 10 4 9 10 -5 5 -12 9 -14 9 -6 1 11 5 10 15 -5 8
-10 18 -15 23 -11 4 5 -7 21 -25 35 -29 24 -47 62 -22 47 6 -4 7 -12 4 -18 -4
-7 -4 -9 1 -5 11 10 56 -48 57 -74 2 -28 24 -55 60 -74 50 -26 31 -34 -82 -34
-67 0 -110 -4 -110 -10 0 -6 60 -10 160 -10 136 0 160 2 160 15 0 11 -7 14
-24 9 -30 -7 -55 4 -36 16 8 5 2 10 -17 14 -17 4 -41 19 -54 33 -19 21 -20 25
-6 20 21 -8 33 14 23 40 -6 15 -8 15 -16 3 -7 -11 -10 -12 -10 -2 0 7 -5 10
-11 7 -13 -9 -54 28 -85 78 -13 20 -28 37 -33 37 -5 0 -15 -16 -21 -36 -7 -19
-14 -33 -17 -31 -9 10 27 77 41 77 8 0 23 -12 33 -26 49 -70 75 -95 89 -83 8
6 23 9 33 6 17 -4 18 -2 8 14 -9 14 -9 21 1 31 11 11 15 10 23 -5 6 -9 14 -15
19 -12 11 6 26 -43 16 -52 -3 -3 -10 5 -15 19 -5 13 -16 30 -25 37 -15 12 -15
11 -1 -15 11 -21 11 -31 3 -42 -10 -11 -9 -13 4 -10 9 1 17 0 17 -4 2 -24 -1
-28 -21 -29 -13 0 -18 -3 -11 -5 7 -3 10 -11 7 -18 -6 -15 22 -29 38 -20 7 5
5 11 -6 19 -14 11 -15 13 -1 19 8 3 15 14 15 24 0 34 14 34 26 0 11 -29 13
-20 13 80 l1 112 -160 0 -160 0 0 -57z"/>
<path fill="#000000" stroke="none" d="M1 105 c-1 -46 0 -48 16 -32 16 15 16
19 1 49 l-17 33 0 -50z"/>
<path fill="#000000" stroke="none" d="M240 130 c-9 -6 -10 -10 -3 -10 6 0 15
5 18 10 8 12 4 12 -15 0z"/>
</g>
</svg>
