<?xml version="1.0" standalone="no"?>
<!DOCTYPE svg PUBLIC "-//W3C//DTD SVG 20010904//EN"
 "http://www.w3.org/TR/2001/REC-SVG-20010904/DTD/svg10.dtd">
<svg version="1.0" xmlns="http://www.w3.org/2000/svg"
 width="31.000000pt" height="32.000000pt" viewBox="0 0 31.000000 32.000000"
 preserveAspectRatio="xMidYMid meet">
<metadata>
Created by potrace 1.16, written by Peter Selinger 2001-2019
</metadata>
<g transform="translate(0.000000,32.000000) scale(0.100000,-0.100000)"
fill="#000000" stroke="none">
<path fill="#000000" stroke="none" d="M0 268 c1 -50 2 -51 14 -29 26 48 84
63 136 36 27 -14 29 -14 32 8 5 39 23 19 30 -35 5 -39 3 -59 -8 -75 -7 -12
-11 -29 -8 -37 11 -28 24 -17 24 19 0 35 0 35 45 35 l45 0 0 65 0 65 -155 0
-155 0 0 -52z"/>
<path fill="#000000" stroke="none" d="M70 250 c-13 -8 -12 -10 3 -10 9 0 17
5 17 10 0 12 -1 12 -20 0z"/>
<path fill="#000000" stroke="none" d="M0 62 c0 -60 1 -62 26 -62 25 0 25 2
19 43 -4 23 -15 51 -26 62 -19 19 -19 19 -19 -43z"/>
</g>
</svg>
