<?xml version="1.0" standalone="no"?>
<!DOCTYPE svg PUBLIC "-//W3C//DTD SVG 20010904//EN"
 "http://www.w3.org/TR/2001/REC-SVG-20010904/DTD/svg10.dtd">
<svg version="1.0" xmlns="http://www.w3.org/2000/svg"
 width="31.000000pt" height="32.000000pt" viewBox="0 0 31.000000 32.000000"
 preserveAspectRatio="xMidYMid meet">
<metadata>
Created by potrace 1.16, written by Peter Selinger 2001-2019
</metadata>
<g transform="translate(0.000000,32.000000) scale(0.100000,-0.100000)"
fill="#000000" stroke="none">
<path fill="#000000" stroke="none" d="M187 304 c-4 -4 -7 -16 -7 -26 0 -17
-2 -18 -30 -3 -16 8 -38 15 -50 15 -34 0 -76 -27 -89 -57 -15 -37 -9 -107 11
-130 9 -10 19 -37 23 -61 l7 -42 128 1 129 1 0 73 c0 69 -1 73 -22 71 -12 -2
-32 -8 -44 -14 -12 -7 -26 -12 -31 -12 -18 0 -22 31 -8 52 22 31 6 154 -17
132z"/>
<path fill="#ffffff" stroke="none" d="M103 258 c-4 -7 -8 -17 -8 -22 0 -5
-10 -10 -22 -11 -27 -2 -29 7 -7 29 19 19 49 22 37 4z"/>
<path fill="#ffffff" stroke="none" d="M194 202 c-4 -9 -6 -21 -5 -27 2 -7 -1
-7 -8 0 -6 7 -6 23 2 48 9 30 13 34 15 17 2 -12 0 -29 -4 -38z"/>
<path fill="#ffffff" stroke="none" d="M44 169 c-3 -5 -10 -7 -15 -3 -5 3 -7
10 -3 15 3 5 10 7 15 3 5 -3 7 -10 3 -15z"/>
<path fill="#ffffff" stroke="none" d="M298 111 c6 -39 -68 -101 -119 -101
-13 0 -33 10 -46 22 -34 32 -28 44 8 14 37 -31 45 -32 87 -6 38 24 43 34 6 15
-26 -13 -54 -11 -54 5 0 5 -8 6 -19 3 -10 -3 -22 0 -25 6 -4 6 -20 11 -35 11
-15 0 -36 7 -47 15 -17 13 -16 13 14 3 25 -10 39 -10 65 0 29 10 30 10 13 -3
-23 -17 -14 -20 15 -5 14 8 19 7 19 -2 0 -10 2 -10 9 1 10 15 81 50 96 47 6
-1 11 -13 13 -25z"/>
<path fill="#ffffff" stroke="none" d="M105 40 c17 -34 4 -41 -18 -10 -8 11
-17 17 -20 13 -4 -3 -7 1 -7 10 0 28 28 19 45 -13z"/>
</g>
</svg>
