<?xml version="1.0" standalone="no"?>
<!DOCTYPE svg PUBLIC "-//W3C//DTD SVG 20010904//EN"
 "http://www.w3.org/TR/2001/REC-SVG-20010904/DTD/svg10.dtd">
<svg version="1.0" xmlns="http://www.w3.org/2000/svg"
 width="32.000000pt" height="32.000000pt" viewBox="0 0 32.000000 32.000000"
 preserveAspectRatio="xMidYMid meet">
<metadata>
Created by potrace 1.16, written by Peter Selinger 2001-2019
</metadata>
<g transform="translate(0.000000,32.000000) scale(0.100000,-0.100000)"
fill="#000000" stroke="none">
<path fill="#000000" stroke="none" d="M91 284 c-19 -24 -28 -54 -16 -54 2 0
14 18 25 40 24 46 20 51 -9 14z"/>
<path fill="#000000" stroke="none" d="M129 284 c-13 -14 -17 -23 -9 -19 13 5
46 45 37 45 -2 0 -14 -11 -28 -26z"/>
<path fill="#000000" stroke="none" d="M47 164 c-4 -4 -7 -14 -7 -23 0 -11 3
-12 11 -4 6 6 10 16 7 23 -2 6 -7 8 -11 4z"/>
<path fill="#000000" stroke="none" d="M10 149 c0 -5 5 -7 10 -4 6 3 10 8 10
11 0 2 -4 4 -10 4 -5 0 -10 -5 -10 -11z"/>
</g>
</svg>
