<?xml version="1.0" standalone="no"?>
<!DOCTYPE svg PUBLIC "-//W3C//DTD SVG 20010904//EN"
 "http://www.w3.org/TR/2001/REC-SVG-20010904/DTD/svg10.dtd">
<svg version="1.0" xmlns="http://www.w3.org/2000/svg"
 width="32.000000pt" height="32.000000pt" viewBox="0 0 32.000000 32.000000"
 preserveAspectRatio="xMidYMid meet">
<metadata>
Created by potrace 1.16, written by Peter Selinger 2001-2019
</metadata>
<g transform="translate(0.000000,32.000000) scale(0.100000,-0.100000)"
fill="#000000" stroke="none">
<path fill="#000000" stroke="none" d="M97 303 c-43 -23 -61 -57 -54 -106 5
-37 3 -44 -16 -52 -29 -13 -33 -81 -4 -79 11 1 17 -5 17 -20 0 -41 17 -46 152
-46 l128 0 0 40 c0 27 -5 43 -15 46 -8 4 -15 13 -15 20 0 8 7 17 15 20 8 4 15
13 15 20 0 12 -4 12 -21 4 -22 -12 -49 1 -49 25 0 7 -9 24 -21 39 -11 14 -18
30 -14 36 3 5 -3 17 -14 27 -54 49 -58 50 -104 26z"/>
<path fill="#ffffff" stroke="none" d="M117 254 c13 -2 21 2 18 7 -11 16 12
10 26 -8 12 -15 12 -16 -2 -11 -9 4 -26 0 -38 -8 -19 -14 -22 -14 -27 0 -3 9
-13 16 -21 16 -8 0 -11 5 -8 10 4 6 12 7 18 3 6 -4 22 -8 34 -9z"/>
<path fill="#ffffff" stroke="none" d="M228 128 c-2 -6 -12 -12 -22 -14 -14
-2 -15 0 -5 12 14 17 32 19 27 2z"/>
<path fill="#000000" stroke="none" d="M258 235 c-3 -14 0 -29 6 -34 9 -7 11
-1 8 24 -5 41 -8 44 -14 10z"/>
<path fill="#000000" stroke="none" d="M290 216 c0 -2 8 -10 18 -17 15 -13 16
-12 3 4 -13 16 -21 21 -21 13z"/>
</g>
</svg>
