<?xml version="1.0" standalone="no"?>
<!DOCTYPE svg PUBLIC "-//W3C//DTD SVG 20010904//EN"
 "http://www.w3.org/TR/2001/REC-SVG-20010904/DTD/svg10.dtd">
<svg version="1.0" xmlns="http://www.w3.org/2000/svg"
 width="32.000000pt" height="32.000000pt" viewBox="0 0 32.000000 32.000000"
 preserveAspectRatio="xMidYMid meet">
<metadata>
Created by potrace 1.16, written by Peter Selinger 2001-2019
</metadata>
<g transform="translate(0.000000,32.000000) scale(0.100000,-0.100000)"
fill="#000000" stroke="none">
<path fill="#000000" stroke="none" d="M97 303 c-43 -23 -61 -57 -54 -106 5
-37 3 -44 -16 -52 -16 -8 -22 -19 -22 -44 0 -22 5 -36 15 -38 13 -4 13 -3 0 7
-13 10 -13 11 0 7 8 -2 17 -14 18 -28 7 -46 17 -49 153 -49 l129 0 0 40 c0 27
-5 43 -15 46 -8 4 -15 13 -15 20 0 8 7 17 15 20 8 4 15 13 15 20 0 12 -4 12
-21 4 -22 -12 -49 1 -49 25 0 7 -9 24 -21 39 -11 14 -18 30 -14 36 3 5 -3 17
-14 27 -54 49 -58 50 -104 26z"/>
<path fill="#ffffff" stroke="none" d="M128 296 c-7 -8 -15 -12 -17 -11 -5 6
10 25 20 25 5 0 4 -6 -3 -14z"/>
<path fill="#ffffff" stroke="none" d="M88 279 c-2 -7 9 -15 25 -20 16 -4 25
-4 21 2 -9 15 23 10 36 -6 7 -9 11 -16 9 -18 -2 -1 -16 -12 -30 -25 -18 -16
-29 -20 -34 -13 -4 7 -1 10 7 9 7 -2 12 3 10 10 -1 8 2 11 7 8 5 -4 12 -2 16
4 3 5 -3 10 -14 10 -12 0 -21 -5 -21 -11 0 -5 -8 -9 -18 -7 -11 2 -20 0 -20
-4 -1 -5 3 -8 10 -7 9 0 9 -3 0 -14 -7 -8 -8 -18 -4 -23 4 -4 -1 -2 -11 5 -9
8 -15 16 -12 19 3 3 -1 12 -8 20 -7 10 -8 13 -1 9 7 -4 18 1 25 10 8 10 9 14
2 10 -17 -11 -27 11 -13 28 15 18 21 19 18 4z"/>
<path fill="#ffffff" stroke="none" d="M176 275 c10 -8 15 -14 9 -14 -5 0 -19
6 -29 14 -11 8 -15 15 -10 15 6 0 19 -7 30 -15z"/>
<path fill="#ffffff" stroke="none" d="M180 206 c0 -2 -8 -10 -17 -17 -16 -13
-17 -12 -4 4 13 16 21 21 21 13z"/>
<path fill="#ffffff" stroke="none" d="M59 127 c6 -8 9 -24 6 -36 -3 -18 -1
-21 16 -16 19 6 20 5 9 -15 -16 -29 -33 -12 -34 32 -1 27 -5 33 -23 32 -12 0
-20 3 -17 8 8 12 30 10 43 -5z"/>
<path fill="#ffffff" stroke="none" d="M235 131 c3 -5 -8 -16 -25 -25 -17 -8
-28 -10 -25 -5 4 5 1 9 -6 9 -16 0 22 29 38 30 6 0 14 -4 18 -9z"/>
<path fill="#ffffff" stroke="none" d="M204 29 c-8 -13 -24 -1 -24 18 0 13 3
13 15 3 8 -7 12 -16 9 -21z"/>
<path fill="#000000" stroke="none" d="M258 235 c-3 -14 0 -29 6 -34 9 -7 11
-1 8 24 -5 41 -8 44 -14 10z"/>
<path fill="#000000" stroke="none" d="M290 216 c0 -2 8 -10 18 -17 15 -13 16
-12 3 4 -13 16 -21 21 -21 13z"/>
</g>
</svg>
