<?xml version="1.0" standalone="no"?>
<!DOCTYPE svg PUBLIC "-//W3C//DTD SVG 20010904//EN"
 "http://www.w3.org/TR/2001/REC-SVG-20010904/DTD/svg10.dtd">
<svg version="1.0" xmlns="http://www.w3.org/2000/svg"
 width="32.000000pt" height="32.000000pt" viewBox="0 0 32.000000 32.000000"
 preserveAspectRatio="xMidYMid meet">
<metadata>
Created by potrace 1.16, written by Peter Selinger 2001-2019
</metadata>
<g transform="translate(0.000000,32.000000) scale(0.100000,-0.100000)"
fill="#000000" stroke="none">
<path fill="#000000" stroke="none" d="M0 160 l0 -160 160 0 160 0 0 160 0
160 -160 0 -160 0 0 -160z"/>
<path fill="#ffffff" stroke="none" d="M249 284 c18 -15 35 -42 41 -66 10 -34
8 -46 -9 -84 -11 -24 -29 -48 -40 -54 -43 -23 -165 -4 -186 29 -10 17 11 38
45 44 23 5 31 14 39 44 14 50 14 56 -2 50 -17 -6 -10 44 7 55 24 16 75 8 105
-18z"/>
<path fill="#ffffff" stroke="none" d="M60 280 c0 -5 -9 -14 -19 -20 -25 -13
-41 -13 -21 0 13 9 13 10 0 10 -13 0 -13 1 0 10 19 13 40 13 40 0z"/>
<path fill="#ffffff" stroke="none" d="M92 250 c5 0 7 7 4 16 -3 8 -2 13 3 9
5 -3 12 1 15 7 3 7 3 -5 0 -27 -3 -22 -12 -47 -20 -56 -8 -8 -14 -20 -14 -25
0 -17 -40 -10 -45 7 -3 9 5 38 17 64 18 38 24 43 26 26 2 -11 8 -21 14 -21z"/>
<path fill="#ffffff" stroke="none" d="M262 50 c-27 -25 -40 -30 -82 -30 -52
0 -112 19 -125 40 -12 19 0 21 38 5 50 -21 125 -19 162 4 41 25 44 17 7 -19z"/>
<path fill="#ffffff" stroke="none" d="M280 20 c-24 -15 -36 -11 -14 4 10 8
21 12 24 10 2 -3 -2 -9 -10 -14z"/>
<path fill="#000000" stroke="none" d="M163 249 c9 -15 8 -25 -6 -48 -9 -16
-17 -33 -17 -38 1 -4 7 3 16 17 14 23 14 23 9 3 -6 -20 -3 -23 22 -23 15 0 38
-3 51 -6 18 -5 22 -2 22 18 0 14 -10 40 -23 59 -17 26 -30 34 -54 35 -28 1
-30 -1 -20 -17z"/>
<path fill="#000000" stroke="none" d="M219 135 c-3 -2 -30 -9 -60 -14 l-54
-10 54 4 c30 2 59 9 65 15 5 5 8 10 5 10 -3 0 -8 -2 -10 -5z"/>
</g>
</svg>
