<?xml version="1.0" standalone="no"?>
<!DOCTYPE svg PUBLIC "-//W3C//DTD SVG 20010904//EN"
 "http://www.w3.org/TR/2001/REC-SVG-20010904/DTD/svg10.dtd">
<svg version="1.0" xmlns="http://www.w3.org/2000/svg"
 width="32.000000pt" height="32.000000pt" viewBox="0 0 32.000000 32.000000"
 preserveAspectRatio="xMidYMid meet">
<metadata>
Created by potrace 1.16, written by Peter Selinger 2001-2019
</metadata>
<g transform="translate(0.000000,32.000000) scale(0.100000,-0.100000)"
fill="#000000" stroke="none">
<path fill="#000000" stroke="none" d="M0 160 l0 -160 160 0 160 0 0 160 0
160 -160 0 -160 0 0 -160z"/>
<path fill="#ffffff" stroke="none" d="M180 300 c3 -1 8 -2 12 -2 3 1 9 -5 12
-13 3 -8 2 -15 -3 -15 -4 0 -7 -12 -6 -27 1 -16 -2 -34 -8 -40 -6 -9 -6 -13 2
-13 6 0 15 8 19 18 7 18 32 28 32 13 0 -5 -7 -14 -15 -21 -8 -7 -15 -19 -15
-27 0 -8 -4 -12 -8 -9 -4 2 -14 1 -22 -5 -8 -5 -10 -9 -4 -9 6 0 10 -13 10
-30 0 -16 -2 -28 -4 -25 -8 8 -33 -25 -27 -35 9 -14 48 -13 63 2 7 7 12 20 12
30 0 20 35 60 44 51 10 -10 7 17 -4 38 -12 21 -1 26 18 7 16 -16 15 -44 -2
-71 -8 -12 -17 -35 -19 -52 -5 -39 -36 -55 -109 -55 -48 0 -59 3 -68 21 -15
27 -10 68 12 101 25 37 23 53 -4 34 -15 -11 -26 -12 -40 -5 -22 12 -14 32 11
24 11 -3 25 5 39 25 13 17 18 29 11 28 -6 -2 -13 9 -14 25 -2 15 1 27 6 27 6
0 8 4 5 9 -5 7 49 8 64 1z"/>
</g>
</svg>
