<?xml version="1.0" standalone="no"?>
<!DOCTYPE svg PUBLIC "-//W3C//DTD SVG 20010904//EN"
 "http://www.w3.org/TR/2001/REC-SVG-20010904/DTD/svg10.dtd">
<svg version="1.0" xmlns="http://www.w3.org/2000/svg"
 width="32.000000pt" height="32.000000pt" viewBox="0 0 32.000000 32.000000"
 preserveAspectRatio="xMidYMid meet">
<metadata>
Created by potrace 1.16, written by Peter Selinger 2001-2019
</metadata>
<g transform="translate(0.000000,32.000000) scale(0.100000,-0.100000)"
fill="#000000" stroke="none">
<path fill="#000000" stroke="none" d="M149 278 c-1 -5 -2 -12 -3 -17 0 -5 -4
-13 -8 -17 -16 -15 -7 -32 16 -30 13 0 22 4 20 7 -2 4 3 9 11 13 8 3 15 16 15
30 0 19 -5 24 -25 22 -14 0 -26 -4 -26 -8z"/>
<path fill="#000000" stroke="none" d="M60 144 c0 -17 22 -14 28 4 2 7 -3 12
-12 12 -9 0 -16 -7 -16 -16z"/>
<path fill="#000000" stroke="none" d="M212 134 c1 -9 9 -19 16 -22 9 -3 13 2
10 14 -1 9 -9 19 -16 22 -9 3 -13 -2 -10 -14z"/>
<path fill="#000000" stroke="none" d="M150 135 c0 -5 5 -17 10 -25 5 -8 10
-10 10 -5 0 6 -5 17 -10 25 -5 8 -10 11 -10 5z"/>
<path fill="#000000" stroke="none" d="M191 124 c0 -11 3 -14 6 -6 3 7 2 16
-1 19 -3 4 -6 -2 -5 -13z"/>
</g>
</svg>
