<?xml version="1.0" standalone="no"?>
<!DOCTYPE svg PUBLIC "-//W3C//DTD SVG 20010904//EN"
 "http://www.w3.org/TR/2001/REC-SVG-20010904/DTD/svg10.dtd">
<svg version="1.0" xmlns="http://www.w3.org/2000/svg"
 width="32.000000pt" height="32.000000pt" viewBox="0 0 32.000000 32.000000"
 preserveAspectRatio="xMidYMid meet">
<metadata>
Created by potrace 1.16, written by Peter Selinger 2001-2019
</metadata>
<g transform="translate(0.000000,32.000000) scale(0.100000,-0.100000)"
fill="#000000" stroke="none">
<path fill="#000000" stroke="none" d="M204 296 c-3 -9 -9 -14 -13 -11 -4 2
-8 -3 -8 -12 0 -13 4 -11 18 6 15 19 22 20 40 11 15 -9 20 -18 16 -36 -3 -16
0 -23 7 -21 16 5 19 42 4 54 -26 21 -58 25 -64 9z"/>
<path fill="#000000" stroke="none" d="M200 252 c0 -6 5 -14 10 -17 6 -4 8
-11 4 -16 -3 -5 -9 -7 -14 -4 -5 3 -11 1 -15 -4 -3 -6 3 -15 14 -20 27 -15 31
-14 24 5 -3 9 -1 19 6 23 8 5 5 13 -9 26 -11 10 -20 13 -20 7z"/>
<path fill="#000000" stroke="none" d="M85 229 c-11 -16 -1 -19 13 -3 7 8 8
14 3 14 -5 0 -13 -5 -16 -11z"/>
<path fill="#000000" stroke="none" d="M150 231 c0 -6 4 -12 8 -15 5 -3 9 1 9
9 0 8 -4 15 -9 15 -4 0 -8 -4 -8 -9z"/>
<path fill="#000000" stroke="none" d="M105 211 c-3 -6 4 -25 15 -43 11 -18
20 -28 20 -23 0 6 5 2 11 -7 11 -20 29 -24 29 -7 0 5 -4 7 -10 4 -5 -3 -11 -1
-11 4 -1 6 -2 16 -3 21 0 6 -4 9 -7 8 -3 -2 -13 3 -23 11 -12 10 -14 17 -5 27
8 10 8 14 1 14 -6 0 -13 -4 -17 -9z"/>
<path fill="#000000" stroke="none" d="M20 164 c0 -8 5 -12 10 -9 6 4 8 11 5
16 -9 14 -15 11 -15 -7z"/>
<path fill="#000000" stroke="none" d="M57 173 c-12 -12 -7 -22 8 -17 8 4 15
10 15 15 0 11 -14 12 -23 2z"/>
<path fill="#000000" stroke="none" d="M194 156 c-8 -22 -2 -27 16 -16 12 7
12 12 3 21 -10 10 -14 9 -19 -5z"/>
<path fill="#000000" stroke="none" d="M85 119 c-10 -15 -2 -19 23 -12 12 3
19 9 16 14 -7 12 -31 11 -39 -2z"/>
<path fill="#000000" stroke="none" d="M36 92 c-3 -5 1 -9 9 -9 8 0 12 4 9 9
-3 4 -7 8 -9 8 -2 0 -6 -4 -9 -8z"/>
</g>
</svg>
