<?xml version="1.0" standalone="no"?>
<!DOCTYPE svg PUBLIC "-//W3C//DTD SVG 20010904//EN"
 "http://www.w3.org/TR/2001/REC-SVG-20010904/DTD/svg10.dtd">
<svg version="1.0" xmlns="http://www.w3.org/2000/svg"
 width="32.000000pt" height="32.000000pt" viewBox="0 0 32.000000 32.000000"
 preserveAspectRatio="xMidYMid meet">
<metadata>
Created by potrace 1.16, written by Peter Selinger 2001-2019
</metadata>
<g transform="translate(0.000000,32.000000) scale(0.100000,-0.100000)"
fill="#000000" stroke="none">
<path fill="#000000" stroke="none" d="M179 278 c-16 -18 -29 -38 -29 -45 0
-10 -4 -11 -19 -2 -24 15 -51 5 -51 -19 0 -24 -35 -58 -45 -42 -10 16 -25 2
-25 -24 0 -16 7 -26 22 -30 22 -6 22 -7 4 -21 -18 -13 -18 -16 -3 -39 24 -36
52 -41 85 -16 15 12 48 37 75 56 26 19 47 41 47 49 0 8 7 15 15 15 25 0 55 38
55 70 0 38 -39 80 -75 80 -17 0 -37 -12 -56 -32z"/>
</g>
</svg>
