<?xml version="1.0" standalone="no"?>
<!DOCTYPE svg PUBLIC "-//W3C//DTD SVG 20010904//EN"
 "http://www.w3.org/TR/2001/REC-SVG-20010904/DTD/svg10.dtd">
<svg version="1.0" xmlns="http://www.w3.org/2000/svg"
 width="32.000000pt" height="32.000000pt" viewBox="0 0 32.000000 32.000000"
 preserveAspectRatio="xMidYMid meet">
<metadata>
Created by potrace 1.16, written by Peter Selinger 2001-2019
</metadata>
<g transform="translate(0.000000,32.000000) scale(0.100000,-0.100000)"
fill="#000000" stroke="none">
<path fill="#000000" stroke="none" d="M85 221 c-37 -15 -58 -49 -59 -93 -1
-50 18 -64 107 -74 47 -6 61 -4 77 11 11 10 23 15 26 12 13 -13 46 15 41 34
-4 17 -3 18 9 8 11 -9 14 -7 14 10 0 12 -6 21 -16 21 -8 0 -30 15 -47 32 -18
18 -35 31 -39 30 -5 -1 -8 2 -8 8 0 12 -76 12 -105 1z"/>
<path fill="#ffffff" stroke="none" d="M175 150 c-3 -5 7 -16 22 -24 15 -8 23
-15 18 -16 -18 0 -56 31 -50 41 4 5 8 9 11 9 3 0 3 -4 -1 -10z"/>
<path fill="#ffffff" stroke="none" d="M130 136 c0 -2 -7 -7 -16 -10 -8 -3
-12 -2 -9 4 6 10 25 14 25 6z"/>
<path fill="#ffffff" stroke="none" d="M168 95 c-3 -3 -9 2 -12 12 -6 14 -5
15 5 6 7 -7 10 -15 7 -18z"/>
<path fill="#ffffff" stroke="none" d="M264 111 c3 -5 -2 -15 -12 -22 -15 -12
-16 -12 -5 2 7 9 10 19 6 22 -3 4 -4 7 0 7 3 0 8 -4 11 -9z"/>
<path fill="#ffffff" stroke="none" d="M125 100 c3 -5 1 -10 -4 -10 -6 0 -11
5 -11 10 0 6 2 10 4 10 3 0 8 -4 11 -10z"/>
<path fill="#ffffff" stroke="none" d="M66 88 c3 -4 -1 -5 -10 -4 -8 1 -18 5
-22 8 -3 4 1 5 10 4 8 -1 18 -5 22 -8z"/>
</g>
</svg>
