<?xml version="1.0" standalone="no"?>
<!DOCTYPE svg PUBLIC "-//W3C//DTD SVG 20010904//EN"
 "http://www.w3.org/TR/2001/REC-SVG-20010904/DTD/svg10.dtd">
<svg version="1.0" xmlns="http://www.w3.org/2000/svg"
 width="32.000000pt" height="32.000000pt" viewBox="0 0 32.000000 32.000000"
 preserveAspectRatio="xMidYMid meet">
<metadata>
Created by potrace 1.16, written by Peter Selinger 2001-2019
</metadata>
<g transform="translate(0.000000,32.000000) scale(0.100000,-0.100000)"
fill="#000000" stroke="none">
<path fill="#000000" stroke="none" d="M0 160 l0 -160 160 0 160 0 0 160 0
160 -160 0 -160 0 0 -160z"/>
<path fill="#ffffff" stroke="none" d="M215 222 c-9 -2 -12 -8 -9 -13 3 -6 -2
-16 -12 -24 -16 -11 -20 -10 -35 13 -19 31 -13 54 7 27 21 -29 28 -10 8 21
l-18 27 37 -24 c23 -15 31 -25 22 -27z"/>
<path fill="#ffffff" stroke="none" d="M261 197 c-10 -9 -11 -8 -5 6 3 10 9
15 12 12 3 -3 0 -11 -7 -18z"/>
<path fill="#ffffff" stroke="none" d="M152 168 c-2 -22 1 -25 19 -21 19 5 19
3 -8 -35 -28 -41 -51 -56 -39 -27 3 10 -1 15 -14 15 -24 0 -33 15 -24 42 6 21
7 21 20 3 11 -15 17 -16 26 -7 7 7 8 12 4 12 -5 0 -3 7 4 15 10 12 10 15 -4
15 -9 0 -16 5 -16 11 0 6 8 9 18 7 12 -3 16 -12 14 -30z"/>
<path fill="#ffffff" stroke="none" d="M105 180 c-3 -5 -10 -10 -16 -10 -5 0
-9 5 -9 10 0 6 7 10 16 10 8 0 12 -4 9 -10z"/>
<path fill="#ffffff" stroke="none" d="M250 155 c11 -13 10 -15 -6 -9 -14 4
-13 1 6 -14 14 -12 21 -24 17 -28 -4 -4 -16 1 -27 11 -25 22 -26 13 -3 -22
l18 -26 -28 17 c-31 21 -35 53 -9 72 9 7 18 14 18 14 1 0 7 -7 14 -15z"/>
<path fill="#ffffff" stroke="none" d="M290 150 c0 -5 -5 -10 -11 -10 -5 0 -7
5 -4 10 3 6 8 10 11 10 2 0 4 -4 4 -10z"/>
<path fill="#ffffff" stroke="none" d="M300 100 c0 -5 -5 -10 -11 -10 -5 0 -7
5 -4 10 3 6 8 10 11 10 2 0 4 -4 4 -10z"/>
</g>
</svg>
