<?xml version="1.0" standalone="no"?>
<!DOCTYPE svg PUBLIC "-//W3C//DTD SVG 20010904//EN"
 "http://www.w3.org/TR/2001/REC-SVG-20010904/DTD/svg10.dtd">
<svg version="1.0" xmlns="http://www.w3.org/2000/svg"
 width="32.000000pt" height="32.000000pt" viewBox="0 0 32.000000 32.000000"
 preserveAspectRatio="xMidYMid meet">
<metadata>
Created by potrace 1.16, written by Peter Selinger 2001-2019
</metadata>
<g transform="translate(0.000000,32.000000) scale(0.100000,-0.100000)"
fill="#000000" stroke="none">
<path fill="#000000" stroke="none" d="M0 160 l0 -160 160 0 160 0 0 160 0
160 -160 0 -160 0 0 -160z"/>
<path fill="#ffffff" stroke="none" d="M98 253 c-2 -10 -9 -19 -16 -19 -6 -1
-16 -2 -21 -3 -5 0 -11 -8 -15 -16 -3 -8 -2 -14 2 -14 29 5 52 -3 53 -18 1
-17 2 -17 6 0 3 10 15 17 31 18 l27 1 -25 8 -25 8 25 2 c22 1 23 2 6 9 -16 6
-17 9 -5 16 11 7 8 11 -11 16 -17 5 -5 7 36 8 44 1 65 -3 74 -14 7 -8 21 -15
31 -15 15 0 19 -7 19 -33 0 -18 -6 -39 -12 -46 -11 -10 -10 -11 5 -6 13 6 17
2 17 -14 0 -12 -4 -21 -10 -21 -5 0 -10 -5 -10 -11 0 -5 5 -7 10 -4 6 4 10 -7
10 -24 0 -17 -4 -31 -10 -31 -5 0 -10 7 -10 16 0 8 -5 12 -10 9 -6 -3 -7 -17
-4 -31 l6 -24 -111 0 c-92 0 -111 3 -111 15 0 12 17 15 96 15 91 0 122 13 50
22 -21 2 -32 0 -29 -6 4 -6 -1 -6 -13 -1 -10 5 -42 10 -70 13 l-52 4 -5 61
c-2 34 -1 66 4 72 5 5 9 18 9 30 0 14 3 16 9 7 6 -10 10 -10 21 3 17 20 32 19
28 -2z"/>
<path fill="#000000" stroke="none" d="M203 232 c10 -10 14 -22 10 -25 -3 -4
7 -7 22 -7 l29 0 -34 25 c-40 30 -49 32 -27 7z"/>
<path fill="#000000" stroke="none" d="M50 145 c0 -18 5 -25 20 -25 20 0 20 1
4 25 -9 14 -18 25 -20 25 -2 0 -4 -11 -4 -25z"/>
<path fill="#000000" stroke="none" d="M139 158 c-8 -32 -6 -48 6 -58 13 -11
15 -8 15 18 0 17 -4 34 -10 37 -5 3 -10 5 -11 3z"/>
</g>
</svg>
