<?xml version="1.0" standalone="no"?>
<!DOCTYPE svg PUBLIC "-//W3C//DTD SVG 20010904//EN"
 "http://www.w3.org/TR/2001/REC-SVG-20010904/DTD/svg10.dtd">
<svg version="1.0" xmlns="http://www.w3.org/2000/svg"
 width="32.000000pt" height="32.000000pt" viewBox="0 0 32.000000 32.000000"
 preserveAspectRatio="xMidYMid meet">
<metadata>
Created by potrace 1.16, written by Peter Selinger 2001-2019
</metadata>
<g transform="translate(0.000000,32.000000) scale(0.100000,-0.100000)"
fill="#000000" stroke="none">
<path fill="#000000" stroke="none" d="M0 160 l0 -160 160 0 160 0 0 160 0
160 -160 0 -160 0 0 -160z"/>
<path fill="#ffffff" stroke="none" d="M190 213 c0 4 -8 20 -17 35 l-18 27 31
-22 c17 -12 34 -20 38 -16 3 3 6 -10 6 -30 0 -19 5 -37 11 -39 5 -2 11 -10 12
-18 2 -8 6 -21 11 -28 13 -22 -2 -27 -24 -7 -25 22 -26 13 -3 -23 17 -26 17
-26 0 -13 -23 19 -87 21 -87 4 0 -8 -14 -13 -40 -13 -29 0 -40 4 -40 15 0 8 6
15 13 15 8 0 7 4 -3 10 -12 8 -13 13 -3 29 7 11 10 27 7 35 -4 10 6 16 37 21
39 7 41 9 25 21 -11 7 -24 16 -30 19 -8 3 -7 7 2 11 6 3 9 11 6 17 -4 7 9 -4
29 -22 21 -19 37 -32 37 -28z"/>
<path fill="#ffffff" stroke="none" d="M284 192 c-13 -20 -25 -20 -38 1 -7 10
-5 21 4 32 12 15 15 15 29 0 12 -12 13 -19 5 -33z"/>
<path fill="#ffffff" stroke="none" d="M290 150 c0 -5 -5 -10 -11 -10 -5 0 -7
5 -4 10 3 6 8 10 11 10 2 0 4 -4 4 -10z"/>
<path fill="#ffffff" stroke="none" d="M300 100 c0 -5 -5 -10 -11 -10 -5 0 -7
5 -4 10 3 6 8 10 11 10 2 0 4 -4 4 -10z"/>
<path fill="#ffffff" stroke="none" d="M227 48 c20 -2 38 -9 41 -15 3 -10 -23
-13 -108 -13 -85 0 -111 3 -108 13 3 7 28 13 66 15 50 2 62 6 63 20 1 16 2 16
6 0 3 -11 17 -18 40 -20z"/>
<path fill="#000000" stroke="none" d="M190 183 c0 -14 19 -38 25 -32 8 8 -5
39 -16 39 -5 0 -9 -3 -9 -7z"/>
<path fill="#000000" stroke="none" d="M150 155 c0 -9 6 -12 15 -9 8 4 15 10
15 15 0 5 -7 9 -15 9 -8 0 -15 -7 -15 -15z"/>
</g>
</svg>
