<?xml version="1.0" standalone="no"?>
<!DOCTYPE svg PUBLIC "-//W3C//DTD SVG 20010904//EN"
 "http://www.w3.org/TR/2001/REC-SVG-20010904/DTD/svg10.dtd">
<svg version="1.0" xmlns="http://www.w3.org/2000/svg"
 width="32.000000pt" height="32.000000pt" viewBox="0 0 32.000000 32.000000"
 preserveAspectRatio="xMidYMid meet">
<metadata>
Created by potrace 1.16, written by Peter Selinger 2001-2019
</metadata>
<g transform="translate(0.000000,32.000000) scale(0.100000,-0.100000)"
fill="#000000" stroke="none">
<path fill="#000000" stroke="none" d="M0 160 l0 -160 160 0 160 0 0 160 0
160 -160 0 -160 0 0 -160z"/>
<path fill="#ffffff" stroke="none" d="M230 199 c0 -15 7 -32 15 -39 9 -7 13
-15 10 -18 -3 -3 0 -11 7 -19 17 -21 0 -28 -22 -8 -25 22 -26 13 -3 -22 l18
-26 -28 17 c-15 10 -27 25 -27 32 0 26 -32 14 -43 -16 -10 -26 -16 -30 -49
-30 -27 0 -38 4 -38 15 0 8 6 15 13 16 10 0 10 2 0 6 -16 6 -17 25 -1 41 8 8
15 8 23 2 9 -7 17 -5 26 7 11 13 11 17 2 20 -21 7 -15 23 9 23 20 0 21 1 3 20
-10 11 -15 23 -12 27 4 3 7 0 7 -7 0 -7 3 -10 7 -7 3 4 15 0 25 -10 23 -20 23
-10 1 24 l-17 26 37 -24 c27 -18 37 -31 37 -50z"/>
<path fill="#ffffff" stroke="none" d="M276 194 c-5 -13 -10 -14 -18 -6 -6 6
-8 18 -4 28 5 13 10 14 18 6 6 -6 8 -18 4 -28z"/>
<path fill="#ffffff" stroke="none" d="M120 175 c7 -8 10 -15 6 -15 -16 0 -21
3 -19 11 2 4 -4 6 -12 3 -8 -4 -15 -1 -15 5 0 16 25 13 40 -4z"/>
<path fill="#ffffff" stroke="none" d="M290 150 c0 -5 -5 -10 -11 -10 -5 0 -7
5 -4 10 3 6 8 10 11 10 2 0 4 -4 4 -10z"/>
<path fill="#ffffff" stroke="none" d="M190 110 c0 -5 -4 -10 -10 -10 -5 0
-10 5 -10 10 0 6 5 10 10 10 6 0 10 -4 10 -10z"/>
<path fill="#ffffff" stroke="none" d="M300 100 c0 -5 -5 -10 -11 -10 -5 0 -7
5 -4 10 3 6 8 10 11 10 2 0 4 -4 4 -10z"/>
<path fill="#ffffff" stroke="none" d="M187 58 c-3 -8 -6 -5 -6 6 -1 11 2 17
5 13 3 -3 4 -12 1 -19z"/>
<path fill="#000000" stroke="none" d="M190 183 c0 -14 19 -38 25 -32 8 8 -5
39 -16 39 -5 0 -9 -3 -9 -7z"/>
<path fill="#000000" stroke="none" d="M150 155 c0 -9 6 -12 15 -9 8 4 15 10
15 15 0 5 -7 9 -15 9 -8 0 -15 -7 -15 -15z"/>
</g>
</svg>
