<?xml version="1.0" standalone="no"?>
<!DOCTYPE svg PUBLIC "-//W3C//DTD SVG 20010904//EN"
 "http://www.w3.org/TR/2001/REC-SVG-20010904/DTD/svg10.dtd">
<svg version="1.0" xmlns="http://www.w3.org/2000/svg"
 width="32.000000pt" height="32.000000pt" viewBox="0 0 32.000000 32.000000"
 preserveAspectRatio="xMidYMid meet">
<metadata>
Created by potrace 1.16, written by Peter Selinger 2001-2019
</metadata>
<g transform="translate(0.000000,32.000000) scale(0.100000,-0.100000)"
fill="#000000" stroke="none">
<path fill="#000000" stroke="none" d="M257 224 c-4 -4 -7 -14 -7 -23 0 -11 3
-12 11 -4 6 6 10 16 7 23 -2 6 -7 8 -11 4z"/>
<path fill="#000000" stroke="none" d="M170 190 c0 -5 5 -10 11 -10 5 0 7 5 4
10 -3 6 -8 10 -11 10 -2 0 -4 -4 -4 -10z"/>
<path fill="#000000" stroke="none" d="M135 180 c3 -6 3 -16 -2 -22 -12 -21
-12 -39 0 -35 7 3 11 10 9 17 -1 7 2 18 8 25 8 9 6 14 -5 19 -9 3 -13 2 -10
-4z"/>
<path fill="#000000" stroke="none" d="M100 165 c-11 -13 -10 -14 4 -9 9 3 16
10 16 15 0 13 -6 11 -20 -6z"/>
<path fill="#000000" stroke="none" d="M225 150 c3 -5 8 -10 11 -10 2 0 4 5 4
10 0 6 -5 10 -11 10 -5 0 -7 -4 -4 -10z"/>
<path fill="#000000" stroke="none" d="M82 129 c2 -6 8 -10 13 -10 5 0 11 4
13 10 2 6 -4 11 -13 11 -9 0 -15 -5 -13 -11z"/>
<path fill="#000000" stroke="none" d="M167 119 c7 -7 15 -10 18 -7 3 3 -2 9
-12 12 -14 6 -15 5 -6 -5z"/>
<path fill="#000000" stroke="none" d="M120 85 c0 -8 5 -15 10 -15 6 0 10 7
10 15 0 8 -4 15 -10 15 -5 0 -10 -7 -10 -15z"/>
</g>
</svg>
