<?xml version="1.0" standalone="no"?>
<!DOCTYPE svg PUBLIC "-//W3C//DTD SVG 20010904//EN"
 "http://www.w3.org/TR/2001/REC-SVG-20010904/DTD/svg10.dtd">
<svg version="1.0" xmlns="http://www.w3.org/2000/svg"
 width="32.000000pt" height="32.000000pt" viewBox="0 0 32.000000 32.000000"
 preserveAspectRatio="xMidYMid meet">
<metadata>
Created by potrace 1.16, written by Peter Selinger 2001-2019
</metadata>
<g transform="translate(0.000000,32.000000) scale(0.100000,-0.100000)"
fill="#000000" stroke="none">
<path fill="#000000" stroke="none" d="M70 255 c-11 -13 -15 -13 -21 -3 -6 9
-9 7 -9 -7 0 -12 -4 -25 -9 -30 -5 -6 -6 -38 -4 -72 l5 -61 52 -4 c28 -3 60
-8 70 -13 12 -5 17 -5 13 1 -3 6 8 8 29 6 72 -9 41 -22 -50 -22 -79 0 -96 -3
-96 -15 0 -12 19 -15 111 -15 l111 0 -6 24 c-3 14 -2 28 4 31 5 3 10 -1 10 -9
0 -9 5 -16 10 -16 6 0 10 14 10 31 0 17 -4 28 -10 24 -5 -3 -10 -1 -10 4 0 6
5 11 10 11 6 0 10 9 10 21 0 16 -4 20 -17 14 -15 -5 -16 -4 -5 6 6 7 12 28 12
46 0 26 -4 33 -19 33 -10 0 -24 7 -31 15 -18 22 -152 21 -170 0z"/>
<path fill="#ffffff" stroke="none" d="M149 243 c-8 -10 -18 -21 -24 -25 -5
-4 12 -8 39 -8 l49 0 -23 25 c-21 22 -21 25 -6 25 10 0 33 -13 52 -29 l33 -30
-82 -3 c-45 -2 -99 -1 -120 1 l-39 3 28 29 c21 22 37 29 67 29 36 0 38 -1 26
-17z"/>
<path fill="#ffffff" stroke="none" d="M160 121 c0 -31 -2 -33 -14 -21 -13 13
-21 55 -17 85 4 25 31 -32 31 -64z"/>
<path fill="#ffffff" stroke="none" d="M74 145 c16 -24 16 -25 -4 -25 -15 0
-20 7 -20 25 0 14 2 25 4 25 2 0 11 -11 20 -25z"/>
<path fill="#ffffff" stroke="none" d="M240 150 c0 -5 -2 -10 -4 -10 -3 0 -8
5 -11 10 -3 6 -1 10 4 10 6 0 11 -4 11 -10z"/>
<path fill="#ffffff" stroke="none" d="M204 105 c3 -9 0 -15 -8 -15 -7 0 -13
7 -13 15 0 8 4 15 8 15 4 0 9 -7 13 -15z"/>
</g>
</svg>
