<?xml version="1.0" standalone="no"?>
<!DOCTYPE svg PUBLIC "-//W3C//DTD SVG 20010904//EN"
 "http://www.w3.org/TR/2001/REC-SVG-20010904/DTD/svg10.dtd">
<svg version="1.0" xmlns="http://www.w3.org/2000/svg"
 width="32.000000pt" height="32.000000pt" viewBox="0 0 32.000000 32.000000"
 preserveAspectRatio="xMidYMid meet">
<metadata>
Created by potrace 1.16, written by Peter Selinger 2001-2019
</metadata>
<g transform="translate(0.000000,32.000000) scale(0.100000,-0.100000)"
fill="#000000" stroke="none">
<path fill="#000000" stroke="none" d="M0 160 l0 -160 160 0 160 0 0 160 0
160 -160 0 -160 0 0 -160z"/>
<path fill="#ffffff" stroke="none" d="M240 255 c7 -8 21 -15 31 -15 15 0 19
-7 19 -33 0 -18 -6 -39 -12 -46 -11 -10 -10 -11 5 -6 13 6 17 2 17 -14 0 -12
-4 -21 -10 -21 -5 0 -10 -5 -10 -11 0 -5 5 -7 10 -4 6 4 10 -7 10 -24 0 -17
-4 -31 -10 -31 -5 0 -10 7 -10 16 0 8 -5 12 -10 9 -6 -3 -7 -17 -4 -31 l6 -24
-111 0 c-92 0 -111 3 -111 15 0 12 17 15 96 15 91 0 122 13 50 22 -21 2 -32 0
-29 -6 4 -6 -1 -6 -13 -1 -10 5 -42 10 -70 13 l-52 4 -5 61 c-2 34 -1 66 4 72
5 5 9 18 9 30 0 14 3 16 9 7 6 -10 10 -10 21 3 18 21 152 22 170 0z"/>
<path fill="#000000" stroke="none" d="M55 230 l-29 -30 37 0 c22 0 37 -5 37
-12 0 -9 3 -9 12 0 7 7 42 12 85 12 l74 0 -34 30 c-19 17 -43 30 -53 30 -15 0
-15 -3 6 -25 l23 -25 -49 0 c-27 0 -44 4 -39 8 6 4 16 15 24 25 12 16 10 17
-26 17 -31 0 -46 -7 -68 -30z"/>
<path fill="#000000" stroke="none" d="M129 185 c-4 -30 4 -72 17 -85 12 -12
14 -10 14 21 0 32 -27 89 -31 64z"/>
<path fill="#000000" stroke="none" d="M50 145 c0 -18 5 -25 20 -25 20 0 20 1
4 25 -9 14 -18 25 -20 25 -2 0 -4 -11 -4 -25z"/>
<path fill="#000000" stroke="none" d="M225 150 c3 -5 8 -10 11 -10 2 0 4 5 4
10 0 6 -5 10 -11 10 -5 0 -7 -4 -4 -10z"/>
<path fill="#000000" stroke="none" d="M183 105 c0 -8 6 -15 13 -15 8 0 11 6
8 15 -4 8 -9 15 -13 15 -4 0 -8 -7 -8 -15z"/>
</g>
</svg>
