<?xml version="1.0" standalone="no"?>
<!DOCTYPE svg PUBLIC "-//W3C//DTD SVG 20010904//EN"
 "http://www.w3.org/TR/2001/REC-SVG-20010904/DTD/svg10.dtd">
<svg version="1.0" xmlns="http://www.w3.org/2000/svg"
 width="32.000000pt" height="32.000000pt" viewBox="0 0 32.000000 32.000000"
 preserveAspectRatio="xMidYMid meet">
<metadata>
Created by potrace 1.16, written by Peter Selinger 2001-2019
</metadata>
<g transform="translate(0.000000,32.000000) scale(0.100000,-0.100000)"
fill="#000000" stroke="none">
<path fill="#000000" stroke="none" d="M70 265 c-17 -20 -5 -32 15 -15 8 7 16
11 16 9 12 -40 1 -76 -16 -49 -3 6 -12 10 -18 10 -7 0 -6 -4 3 -10 13 -9 13
-11 0 -19 -8 -6 -11 -13 -7 -17 3 -4 13 -2 20 5 19 15 40 -8 27 -29 -7 -11
-11 -11 -24 -1 -13 11 -16 11 -16 -2 0 -9 13 -25 29 -37 l30 -21 11 21 c6 11
7 26 3 33 -13 21 -12 37 3 37 9 0 12 -4 9 -10 -3 -5 -1 -10 4 -10 6 0 11 7 11
15 0 25 1 30 12 43 18 21 0 27 -22 7 -25 -22 -26 -13 -3 23 17 27 17 27 -2 12
-11 -8 -25 -22 -32 -30 -10 -13 -11 -13 -11 0 3 51 -16 66 -42 35z"/>
<path fill="#ffffff" stroke="none" d="M130 115 c0 -8 -2 -15 -4 -15 -2 0 -6
7 -10 15 -3 8 -1 15 4 15 6 0 10 -7 10 -15z"/>
<path fill="#000000" stroke="none" d="M205 240 c3 -5 8 -10 11 -10 2 0 4 5 4
10 0 6 -5 10 -11 10 -5 0 -7 -4 -4 -10z"/>
<path fill="#000000" stroke="none" d="M234 216 c-4 -10 -2 -22 4 -28 8 -8 13
-7 18 6 4 10 2 22 -4 28 -8 8 -13 7 -18 -6z"/>
<path fill="#000000" stroke="none" d="M195 190 c4 -6 -1 -23 -11 -38 l-17
-27 26 18 c35 23 44 22 22 -3 -22 -24 -13 -39 11 -19 10 8 20 13 23 11 3 -1 7
5 9 15 2 11 -8 25 -27 36 -33 19 -45 22 -36 7z"/>
<path fill="#000000" stroke="none" d="M86 171 c-4 -5 -2 -12 3 -15 5 -4 12
-2 15 3 4 5 2 12 -3 15 -5 4 -12 2 -15 -3z"/>
<path fill="#000000" stroke="none" d="M150 109 c0 -5 5 -7 10 -4 6 3 10 8 10
11 0 2 -4 4 -10 4 -5 0 -10 -5 -10 -11z"/>
<path fill="#000000" stroke="none" d="M240 100 c0 -5 5 -10 11 -10 5 0 7 5 4
10 -3 6 -8 10 -11 10 -2 0 -4 -4 -4 -10z"/>
<path fill="#000000" stroke="none" d="M190 90 c0 -5 5 -10 11 -10 5 0 7 5 4
10 -3 6 -8 10 -11 10 -2 0 -4 -4 -4 -10z"/>
<path fill="#000000" stroke="none" d="M161 64 c0 -11 3 -14 6 -6 3 7 2 16 -1
19 -3 4 -6 -2 -5 -13z"/>
</g>
</svg>
