<?xml version="1.0" standalone="no"?>
<!DOCTYPE svg PUBLIC "-//W3C//DTD SVG 20010904//EN"
 "http://www.w3.org/TR/2001/REC-SVG-20010904/DTD/svg10.dtd">
<svg version="1.0" xmlns="http://www.w3.org/2000/svg"
 width="32.000000pt" height="32.000000pt" viewBox="0 0 32.000000 32.000000"
 preserveAspectRatio="xMidYMid meet">
<metadata>
Created by potrace 1.16, written by Peter Selinger 2001-2019
</metadata>
<g transform="translate(0.000000,32.000000) scale(0.100000,-0.100000)"
fill="#000000" stroke="none">
<path fill="#000000" stroke="none" d="M0 160 l0 -160 160 0 160 0 0 160 0
160 -160 0 -160 0 0 -160z"/>
<path fill="#ffffff" stroke="none" d="M112 263 c0 -10 1 -25 0 -33 0 -13 1
-13 11 0 7 8 21 22 32 30 19 15 19 15 2 -12 -23 -36 -22 -45 3 -23 22 20 40
14 22 -7 -11 -13 -12 -18 -12 -43 0 -8 -5 -15 -11 -15 -5 0 -7 5 -4 10 3 6 0
10 -9 10 -16 0 -16 -15 3 -48 7 -13 10 -26 7 -30 -3 -3 -6 1 -6 9 -1 10 -4 9
-11 -4 -10 -16 -12 -16 -40 4 -21 14 -29 28 -26 40 3 10 0 20 -7 23 -7 3 -6 8
4 15 13 10 13 12 0 21 -9 6 -10 10 -3 10 6 0 15 -4 18 -10 17 -27 28 9 16 49
0 2 -8 -2 -16 -9 -20 -17 -32 -5 -15 15 17 20 40 19 42 -2z"/>
<path fill="#ffffff" stroke="none" d="M220 240 c0 -5 -2 -10 -4 -10 -3 0 -8
5 -11 10 -3 6 -1 10 4 10 6 0 11 -4 11 -10z"/>
<path fill="#ffffff" stroke="none" d="M256 209 c3 -6 1 -16 -6 -22 -10 -9
-11 -9 -6 1 4 6 2 12 -3 12 -6 0 -11 5 -11 10 0 13 17 13 26 -1z"/>
<path fill="#ffffff" stroke="none" d="M231 183 c19 -11 29 -25 27 -36 -2 -10
-6 -16 -9 -15 -3 2 -13 -3 -23 -11 -24 -20 -33 -5 -11 19 22 25 13 26 -22 3
l-26 -18 17 27 c10 15 15 32 11 38 -9 15 3 12 36 -7z"/>
<path fill="#ffffff" stroke="none" d="M255 100 c3 -5 1 -10 -4 -10 -6 0 -11
5 -11 10 0 6 2 10 4 10 3 0 8 -4 11 -10z"/>
<path fill="#ffffff" stroke="none" d="M205 90 c3 -5 1 -10 -4 -10 -6 0 -11 5
-11 10 0 6 2 10 4 10 3 0 8 -4 11 -10z"/>
<path fill="#ffffff" stroke="none" d="M167 58 c-3 -8 -6 -5 -6 6 -1 11 2 17
5 13 3 -3 4 -12 1 -19z"/>
<path fill="#000000" stroke="none" d="M87 183 c-4 -3 -1 -13 6 -21 10 -13 9
-14 -2 -7 -10 5 -12 4 -7 -3 10 -16 23 -15 29 2 6 16 -16 40 -26 29z"/>
<path fill="#000000" stroke="none" d="M116 115 c4 -8 8 -15 10 -15 2 0 4 7 4
15 0 8 -4 15 -10 15 -5 0 -7 -7 -4 -15z"/>
</g>
</svg>
