<?xml version="1.0" standalone="no"?>
<!DOCTYPE svg PUBLIC "-//W3C//DTD SVG 20010904//EN"
 "http://www.w3.org/TR/2001/REC-SVG-20010904/DTD/svg10.dtd">
<svg version="1.0" xmlns="http://www.w3.org/2000/svg"
 width="32.000000pt" height="32.000000pt" viewBox="0 0 32.000000 32.000000"
 preserveAspectRatio="xMidYMid meet">
<metadata>
Created by potrace 1.16, written by Peter Selinger 2001-2019
</metadata>
<g transform="translate(0.000000,32.000000) scale(0.100000,-0.100000)"
fill="#000000" stroke="none">
<path fill="#000000" stroke="none" d="M216 269 c-14 -20 -18 -21 -40 -10 -28
15 -53 9 -63 -14 -9 -24 12 -41 32 -25 13 10 15 9 15 -7 0 -24 -62 -108 -90
-123 -22 -12 -27 -45 -9 -56 7 -4 19 2 28 13 9 12 26 26 39 32 18 10 22 9 22
-3 0 -30 22 -27 51 5 19 22 27 41 24 55 -4 18 -1 20 18 17 14 -3 29 2 36 11
17 20 6 50 -14 42 -17 -6 -20 5 -4 21 15 15 7 57 -13 61 -9 2 -23 -7 -32 -19z"/>
<path fill="#ffffff" stroke="none" d="M245 270 c-3 -5 -1 -10 4 -10 6 0 11
-6 11 -14 0 -16 -30 -30 -41 -19 -9 11 7 53 21 53 6 0 8 -4 5 -10z"/>
<path fill="#ffffff" stroke="none" d="M178 241 c3 -10 0 -12 -13 -7 -11 4
-22 1 -26 -6 -11 -17 -23 -3 -15 17 7 20 47 16 54 -4z"/>
<path fill="#ffffff" stroke="none" d="M227 203 c19 -23 24 -26 32 -13 12 18
26 7 18 -15 -10 -24 -41 -17 -65 15 -12 16 -22 32 -22 35 0 13 16 3 37 -22z"/>
<path fill="#ffffff" stroke="none" d="M185 190 c3 -5 1 -10 -4 -10 -6 0 -11
5 -11 10 0 6 2 10 4 10 3 0 8 -4 11 -10z"/>
<path fill="#ffffff" stroke="none" d="M166 158 c4 -6 3 -8 -4 -4 -6 3 -13 3
-16 -2 -8 -13 28 -11 36 2 5 7 8 6 8 -4 0 -12 2 -13 9 -1 7 11 10 9 16 -8 7
-23 -11 -55 -25 -46 -5 3 -11 -3 -13 -12 -2 -10 -3 -5 -1 10 3 20 0 27 -9 23
-6 -3 -20 -9 -29 -12 -10 -4 -18 -11 -18 -17 0 -7 -4 -7 -12 1 -9 9 -9 15 -3
20 6 4 18 19 28 35 20 30 23 32 33 15z"/>
<path fill="#ffffff" stroke="none" d="M96 78 c4 -7 3 -8 -4 -4 -8 5 -12 -1
-13 -16 0 -13 -3 -17 -6 -10 -5 13 2 42 11 42 3 0 8 -5 12 -12z"/>
</g>
</svg>
