<?xml version="1.0" standalone="no"?>
<!DOCTYPE svg PUBLIC "-//W3C//DTD SVG 20010904//EN"
 "http://www.w3.org/TR/2001/REC-SVG-20010904/DTD/svg10.dtd">
<svg version="1.0" xmlns="http://www.w3.org/2000/svg"
 width="32.000000pt" height="32.000000pt" viewBox="0 0 32.000000 32.000000"
 preserveAspectRatio="xMidYMid meet">
<metadata>
Created by potrace 1.16, written by Peter Selinger 2001-2019
</metadata>
<g transform="translate(0.000000,32.000000) scale(0.100000,-0.100000)"
fill="#000000" stroke="none">
<path fill="#000000" stroke="none" d="M216 269 c-14 -20 -18 -21 -40 -10 -28
15 -53 9 -63 -14 -9 -24 12 -41 32 -25 13 10 15 9 15 -7 0 -24 -62 -108 -90
-123 -22 -12 -27 -45 -9 -56 7 -4 19 2 28 13 9 12 26 26 39 32 18 10 22 9 22
-3 0 -30 22 -27 51 5 19 22 27 41 24 55 -4 18 -1 20 18 17 14 -3 29 2 36 11
17 20 6 50 -14 42 -17 -6 -20 5 -4 21 15 15 7 57 -13 61 -9 2 -23 -7 -32 -19z"/>
<path fill="#ffffff" stroke="none" d="M260 255 c0 -14 -4 -25 -9 -25 -14 0
-23 -32 -11 -44 8 -8 13 -7 20 4 11 18 25 6 17 -15 -9 -21 -44 -19 -56 4 -12
21 -41 36 -41 21 0 -6 8 -10 18 -11 11 -1 9 -4 -8 -9 -17 -5 -19 -8 -7 -9 9
-1 23 -13 29 -27 11 -23 10 -29 -10 -44 -12 -10 -22 -23 -22 -29 0 -6 -4 -11
-10 -11 -13 0 -13 6 1 32 16 29 4 33 -29 9 -16 -11 -31 -18 -34 -16 -3 3 -11
-6 -18 -20 -7 -14 -17 -25 -22 -25 -16 0 -8 21 22 53 49 54 80 94 80 105 0 6
8 17 18 24 11 7 24 23 31 36 16 30 41 29 41 -3z"/>
<path fill="#ffffff" stroke="none" d="M178 241 c3 -10 0 -12 -13 -7 -11 4
-22 1 -26 -6 -11 -17 -23 -3 -15 17 7 20 47 16 54 -4z"/>
<path fill="#000000" stroke="none" d="M152 157 c-8 -10 -6 -13 9 -14 19 -2
26 11 10 21 -5 3 -14 0 -19 -7z"/>
</g>
</svg>
