<?xml version="1.0" standalone="no"?>
<!DOCTYPE svg PUBLIC "-//W3C//DTD SVG 20010904//EN"
 "http://www.w3.org/TR/2001/REC-SVG-20010904/DTD/svg10.dtd">
<svg version="1.0" xmlns="http://www.w3.org/2000/svg"
 width="32.000000pt" height="32.000000pt" viewBox="0 0 32.000000 32.000000"
 preserveAspectRatio="xMidYMid meet">
<metadata>
Created by potrace 1.16, written by Peter Selinger 2001-2019
</metadata>
<g transform="translate(0.000000,32.000000) scale(0.100000,-0.100000)"
fill="#000000" stroke="none">
<path fill="#000000" stroke="none" d="M0 190 c0 -78 4 -130 10 -130 5 0 7
-13 4 -30 l-6 -30 156 0 156 0 0 81 0 81 -32 -7 c-43 -9 -48 -13 -58 -39 -8
-19 -9 -17 -9 10 -1 34 15 44 72 44 l27 0 0 75 0 76 -70 -3 c-38 -1 -70 -7
-70 -12 0 -6 -5 -5 -12 2 -7 7 -43 12 -90 12 l-78 0 0 -130z"/>
<path fill="#ffffff" stroke="none" d="M157 292 c0 -10 -9 -18 -19 -18 -21 0
-23 7 -6 24 17 17 27 15 25 -6z"/>
<path fill="#ffffff" stroke="none" d="M240 290 c0 -5 -4 -10 -10 -10 -5 0
-10 5 -10 10 0 6 5 10 10 10 6 0 10 -4 10 -10z"/>
<path fill="#ffffff" stroke="none" d="M200 280 c0 -5 -7 -7 -15 -4 -8 4 -15
8 -15 10 0 2 7 4 15 4 8 0 15 -4 15 -10z"/>
<path fill="#ffffff" stroke="none" d="M215 250 c-27 -12 -43 -12 -25 0 8 5
22 9 30 9 10 0 8 -3 -5 -9z"/>
<path fill="#ffffff" stroke="none" d="M198 229 l27 -1 -30 -10 c-39 -14 -63
-35 -68 -62 -2 -11 -5 -2 -6 20 -1 39 18 72 32 57 4 -3 7 0 8 8 0 10 2 10 6 2
2 -7 17 -13 31 -14z"/>
<path fill="#ffffff" stroke="none" d="M95 130 c-3 -5 -19 -10 -35 -10 -15 0
-31 -6 -33 -12 -3 -7 -6 -3 -6 10 -1 19 4 22 40 22 24 0 38 -4 34 -10z"/>
</g>
</svg>
