<?xml version="1.0" standalone="no"?>
<!DOCTYPE svg PUBLIC "-//W3C//DTD SVG 20010904//EN"
 "http://www.w3.org/TR/2001/REC-SVG-20010904/DTD/svg10.dtd">
<svg version="1.0" xmlns="http://www.w3.org/2000/svg"
 width="32.000000pt" height="32.000000pt" viewBox="0 0 32.000000 32.000000"
 preserveAspectRatio="xMidYMid meet">
<metadata>
Created by potrace 1.16, written by Peter Selinger 2001-2019
</metadata>
<g transform="translate(0.000000,32.000000) scale(0.100000,-0.100000)"
fill="#000000" stroke="none">
<path fill="#000000" stroke="none" d="M0 190 c0 -80 4 -130 10 -130 6 0 10
18 10 40 l0 40 50 0 50 0 0 38 c0 21 5 43 11 49 8 8 8 13 0 17 -18 12 -12 44
11 60 21 15 17 16 -60 16 l-82 0 0 -130z"/>
<path fill="#000000" stroke="none" d="M232 300 c16 -25 2 -52 -33 -61 -21 -6
-19 -7 11 -9 19 -1 29 -4 23 -7 -7 -2 -13 -18 -13 -35 0 -27 3 -30 23 -24 12
3 34 6 50 6 l27 0 0 75 0 75 -50 0 c-48 0 -50 -1 -38 -20z"/>
<path fill="#000000" stroke="none" d="M188 303 c6 -2 12 -13 12 -24 0 -10 5
-19 10 -19 16 0 11 37 -6 44 -9 3 -19 6 -22 5 -4 0 -1 -3 6 -6z"/>
<path fill="#000000" stroke="none" d="M147 266 c-10 -8 -14 -17 -9 -20 14 -9
52 5 52 20 0 18 -20 17 -43 0z"/>
<path fill="#000000" stroke="none" d="M192 164 c-2 -42 -7 -55 -32 -79 -16
-16 -30 -33 -30 -39 0 -5 14 3 30 19 l30 29 0 -27 c0 -19 5 -27 18 -26 10 0
12 3 5 6 -15 6 -18 53 -3 53 6 0 10 5 10 11 0 5 -4 8 -9 4 -6 -3 -12 17 -14
47 l-3 53 -2 -51z"/>
<path fill="#000000" stroke="none" d="M292 110 c-1 -26 -7 -51 -14 -58 -9 -9
-7 -12 9 -12 14 0 23 -8 26 -22 4 -20 4 -19 6 5 0 15 -3 27 -8 27 -6 0 -12 24
-14 53 l-3 52 -2 -45z"/>
<path fill="#000000" stroke="none" d="M95 118 c-2 -7 -5 -28 -8 -46 -3 -26 0
-32 12 -30 19 4 29 88 11 88 -6 0 -12 -6 -15 -12z"/>
<path fill="#000000" stroke="none" d="M58 3 c7 -3 16 -2 19 1 4 3 -2 6 -13 5
-11 0 -14 -3 -6 -6z"/>
</g>
</svg>
