<?xml version="1.0" standalone="no"?>
<!DOCTYPE svg PUBLIC "-//W3C//DTD SVG 20010904//EN"
 "http://www.w3.org/TR/2001/REC-SVG-20010904/DTD/svg10.dtd">
<svg version="1.0" xmlns="http://www.w3.org/2000/svg"
 width="32.000000pt" height="32.000000pt" viewBox="0 0 32.000000 32.000000"
 preserveAspectRatio="xMidYMid meet">
<metadata>
Created by potrace 1.16, written by Peter Selinger 2001-2019
</metadata>
<g transform="translate(0.000000,32.000000) scale(0.100000,-0.100000)"
fill="#000000" stroke="none">
<path fill="#000000" stroke="none" d="M116 239 c-34 -26 -34 -62 0 -111 39
-56 47 -52 58 30 6 37 4 42 -13 42 -18 0 -20 -6 -16 -52 l4 -53 -9 50 c-10 53
-3 69 26 63 16 -3 19 -11 16 -58 l-4 -55 26 34 c33 44 33 75 1 106 -30 30 -54
31 -89 4z"/>
</g>
</svg>
