<?xml version="1.0" standalone="no"?>
<!DOCTYPE svg PUBLIC "-//W3C//DTD SVG 20010904//EN"
 "http://www.w3.org/TR/2001/REC-SVG-20010904/DTD/svg10.dtd">
<svg version="1.0" xmlns="http://www.w3.org/2000/svg"
 width="32.000000pt" height="32.000000pt" viewBox="0 0 32.000000 32.000000"
 preserveAspectRatio="xMidYMid meet">
<metadata>
Created by potrace 1.16, written by Peter Selinger 2001-2019
</metadata>
<g transform="translate(0.000000,32.000000) scale(0.100000,-0.100000)"
fill="#000000" stroke="none">
<path fill="#000000" stroke="none" d="M0 159 l0 -160 160 2 160 2 0 158 0
159 -47 0 -48 -1 33 -14 c27 -12 31 -18 23 -32 -7 -13 -4 -25 11 -46 18 -26
19 -32 8 -51 -19 -29 -20 -106 -3 -141 9 -17 11 -25 5 -20 -16 14 -45 88 -33
80 6 -3 11 -2 11 4 0 14 -55 42 -65 33 -5 -4 -5 -1 -1 6 5 7 11 11 14 8 3 -3
14 1 24 11 10 9 18 13 18 8 0 -4 7 -2 15 5 8 7 15 20 14 29 0 10 -4 7 -11 -9
-6 -15 -12 -20 -15 -12 -3 7 0 18 6 25 7 9 4 16 -12 26 -13 8 -17 8 -11 2 12
-13 7 -58 -6 -66 -5 -3 -7 16 -5 43 4 64 -21 92 -82 92 -35 0 -50 -6 -81 -34
-30 -28 -35 -37 -24 -47 6 -7 12 -20 11 -28 0 -10 -4 -7 -9 7 -5 12 -15 22
-21 22 -8 0 -8 -4 1 -15 6 -8 10 -20 7 -27 -3 -8 -9 -3 -15 12 -7 16 -11 19
-11 9 -1 -20 23 -42 34 -31 8 7 2 -32 -9 -58 -6 -13 8 -16 94 -15 102 0 129
-9 64 -21 -35 -6 -100 -1 -139 11 -19 6 -19 6 0 -7 12 -8 51 -13 104 -13 82
-1 83 -1 98 -30 13 -27 13 -28 -1 -11 -9 11 -16 22 -16 26 0 3 -37 5 -83 5
-101 0 -142 20 -134 63 3 15 -2 39 -10 53 -15 25 -15 29 5 56 15 21 18 33 11
46 -8 14 -4 20 23 32 l33 14 -47 1 -48 0 0 -161z"/>
<path fill="#000000" stroke="none" d="M46 276 c3 -9 11 -16 16 -16 13 0 5 23
-10 28 -7 2 -10 -2 -6 -12z"/>
<path fill="#000000" stroke="none" d="M257 283 c-10 -9 -9 -23 2 -23 5 0 11
7 15 15 5 15 -5 20 -17 8z"/>
</g>
</svg>
