<?xml version="1.0" standalone="no"?>
<!DOCTYPE svg PUBLIC "-//W3C//DTD SVG 20010904//EN"
 "http://www.w3.org/TR/2001/REC-SVG-20010904/DTD/svg10.dtd">
<svg version="1.0" xmlns="http://www.w3.org/2000/svg"
 width="32.000000pt" height="32.000000pt" viewBox="0 0 32.000000 32.000000"
 preserveAspectRatio="xMidYMid meet">
<metadata>
Created by potrace 1.16, written by Peter Selinger 2001-2019
</metadata>
<g transform="translate(0.000000,32.000000) scale(0.100000,-0.100000)"
fill="#000000" stroke="none">
<path fill="#000000" stroke="none" d="M62 305 c-27 -12 -31 -18 -23 -32 7
-13 4 -25 -11 -46 -20 -27 -20 -31 -5 -56 8 -14 13 -38 10 -53 -8 -43 33 -63
134 -63 69 0 84 -3 88 -16 8 -23 32 -42 45 -34 6 4 5 15 -4 33 -16 33 -14 109
4 138 11 19 10 25 -8 51 -15 21 -18 33 -10 46 8 14 3 20 -26 32 -45 19 -151
19 -194 0z"/>
<path fill="#ffffff" stroke="none" d="M248 299 c25 -9 30 -14 23 -27 -7 -12
-3 -25 11 -45 18 -26 19 -32 8 -51 -18 -29 -20 -106 -3 -138 8 -16 9 -28 4
-28 -6 0 -17 13 -26 30 -15 29 -16 29 -78 24 -40 -4 -76 -1 -102 8 -35 12 -40
17 -40 44 0 17 -6 42 -14 57 -12 23 -11 29 7 54 14 20 18 34 11 44 -20 32 127
53 199 28z"/>
</g>
</svg>
