<?xml version="1.0" standalone="no"?>
<!DOCTYPE svg PUBLIC "-//W3C//DTD SVG 20010904//EN"
 "http://www.w3.org/TR/2001/REC-SVG-20010904/DTD/svg10.dtd">
<svg version="1.0" xmlns="http://www.w3.org/2000/svg"
 width="32.000000pt" height="32.000000pt" viewBox="0 0 32.000000 32.000000"
 preserveAspectRatio="xMidYMid meet">
<metadata>
Created by potrace 1.16, written by Peter Selinger 2001-2019
</metadata>
<g transform="translate(0.000000,32.000000) scale(0.100000,-0.100000)"
fill="#000000" stroke="none">
<path fill="#000000" stroke="none" d="M263 292 c-15 -26 -19 -27 -97 -27
-100 0 -141 -20 -133 -63 3 -15 -2 -39 -10 -53 -15 -25 -15 -29 5 -56 15 -21
18 -33 10 -46 -8 -14 -3 -20 26 -32 45 -19 147 -19 192 0 29 12 34 18 26 32
-8 13 -5 25 10 46 18 26 19 32 8 51 -18 28 -20 105 -4 137 23 45 -8 55 -33 11z"/>
<path fill="#ffffff" stroke="none" d="M290 291 c-20 -38 -30 -72 -20 -66 6 3
10 2 10 -4 0 -12 -54 -42 -64 -36 -3 3 -5 3 -3 1 1 -2 5 -4 8 -3 4 1 16 -7 28
-17 12 -11 21 -16 21 -11 0 4 7 2 15 -5 21 -18 19 -35 -8 -53 -19 -12 -24 -13
-24 -2 0 8 3 12 7 10 4 -2 5 7 2 20 -8 45 -20 36 -17 -13 4 -64 -21 -92 -82
-92 -35 0 -50 6 -81 34 -30 28 -35 37 -24 47 6 7 12 20 11 29 0 9 -4 6 -9 -8
-11 -25 -28 -29 -36 -7 -8 19 14 47 29 38 6 -4 8 4 3 23 -13 56 -12 58 29 72
26 9 62 12 102 8 62 -5 63 -5 78 24 9 17 20 30 26 30 6 0 6 -6 -1 -19z"/>
<path fill="#ffffff" stroke="none" d="M68 48 c-2 -6 -10 -14 -16 -16 -7 -2
-10 2 -6 12 7 18 28 22 22 4z"/>
<path fill="#ffffff" stroke="none" d="M274 44 c4 -10 1 -14 -6 -12 -15 5 -23
28 -10 28 5 0 13 -7 16 -16z"/>
<path fill="#000000" stroke="none" d="M83 239 c-18 -5 -33 -11 -33 -12 0 -2
43 -3 95 -2 93 0 118 7 73 19 -32 8 -97 6 -135 -5z"/>
<path fill="#000000" stroke="none" d="M37 144 c-4 -4 -7 -14 -7 -23 0 -11 3
-12 11 -4 6 6 10 16 7 23 -2 6 -7 8 -11 4z"/>
<path fill="#000000" stroke="none" d="M270 136 c0 -8 5 -18 10 -21 6 -3 10 1
10 9 0 8 -4 18 -10 21 -5 3 -10 -1 -10 -9z"/>
</g>
</svg>
