<?xml version="1.0" standalone="no"?>
<!DOCTYPE svg PUBLIC "-//W3C//DTD SVG 20010904//EN"
 "http://www.w3.org/TR/2001/REC-SVG-20010904/DTD/svg10.dtd">
<svg version="1.0" xmlns="http://www.w3.org/2000/svg"
 width="32.000000pt" height="32.000000pt" viewBox="0 0 32.000000 32.000000"
 preserveAspectRatio="xMidYMid meet">
<metadata>
Created by potrace 1.16, written by Peter Selinger 2001-2019
</metadata>
<g transform="translate(0.000000,32.000000) scale(0.100000,-0.100000)"
fill="#000000" stroke="none">
<path fill="#000000" stroke="none" d="M0 161 l0 -161 48 0 47 1 -33 14 c-27
12 -31 18 -23 32 7 13 4 25 -11 46 -20 27 -20 31 -5 56 8 14 13 38 10 53 -8
43 33 63 134 63 46 0 83 2 83 5 0 4 7 15 16 26 14 17 14 16 1 -11 -15 -29 -16
-29 -98 -30 -53 0 -92 -5 -104 -13 -19 -13 -19 -13 0 -7 39 12 104 17 139 11
65 -12 38 -21 -64 -21 -86 1 -100 -2 -94 -15 11 -26 17 -65 9 -58 -11 11 -35
-11 -34 -31 0 -10 4 -7 11 9 6 15 12 20 15 12 3 -7 -1 -19 -7 -27 -9 -11 -9
-15 -1 -15 6 0 16 10 21 22 5 14 9 17 9 8 1 -9 -5 -22 -12 -29 -10 -10 -5 -19
25 -47 31 -28 46 -34 81 -34 61 0 86 28 82 92 -2 27 0 46 5 43 13 -8 18 -53 6
-66 -6 -6 -2 -6 11 2 16 10 19 17 12 26 -6 7 -9 18 -6 25 3 8 9 3 15 -12 7
-16 11 -19 11 -9 1 9 -6 22 -14 29 -8 7 -15 9 -15 5 0 -5 -8 -1 -17 8 -10 8
-21 15 -25 14 -3 -1 -10 2 -15 8 -4 6 -4 7 1 3 11 -9 66 19 66 33 0 6 -5 7
-11 4 -12 -8 17 66 33 80 6 6 4 -3 -5 -20 -17 -35 -16 -112 3 -141 11 -19 10
-25 -8 -51 -15 -21 -18 -33 -11 -46 8 -14 4 -20 -23 -32 l-33 -14 48 -1 47 0
0 159 0 158 -160 2 -160 2 0 -160z"/>
<path fill="#000000" stroke="none" d="M46 44 c-4 -10 -1 -14 6 -12 15 5 23
28 10 28 -5 0 -13 -7 -16 -16z"/>
<path fill="#000000" stroke="none" d="M252 48 c2 -6 10 -14 16 -16 7 -2 10 2
6 12 -7 18 -28 22 -22 4z"/>
</g>
</svg>
