<?xml version="1.0" standalone="no"?>
<!DOCTYPE svg PUBLIC "-//W3C//DTD SVG 20010904//EN"
 "http://www.w3.org/TR/2001/REC-SVG-20010904/DTD/svg10.dtd">
<svg version="1.0" xmlns="http://www.w3.org/2000/svg"
 width="32.000000pt" height="32.000000pt" viewBox="0 0 32.000000 32.000000"
 preserveAspectRatio="xMidYMid meet">
<metadata>
Created by potrace 1.16, written by Peter Selinger 2001-2019
</metadata>
<g transform="translate(0.000000,32.000000) scale(0.100000,-0.100000)"
fill="#000000" stroke="none">
<path fill="#000000" stroke="none" d="M88 243 c7 -3 16 -2 19 1 4 3 -2 6 -13
5 -11 0 -14 -3 -6 -6z"/>
<path fill="#000000" stroke="none" d="M130 220 c0 -5 -8 -7 -17 -3 -10 3 -15
3 -11 -1 3 -4 14 -9 25 -11 10 -2 18 -4 18 -5 0 -1 8 -3 18 -5 9 -2 14 1 11 6
-3 6 6 8 21 5 15 -3 25 -2 21 1 -4 4 -12 8 -19 9 -7 1 -24 4 -39 7 -16 3 -28
2 -28 -3z"/>
<path fill="#000000" stroke="none" d="M60 201 c8 -5 31 -11 50 -15 24 -4 28
-3 15 2 -31 14 -83 24 -65 13z"/>
</g>
</svg>
