<?xml version="1.0" standalone="no"?>
<!DOCTYPE svg PUBLIC "-//W3C//DTD SVG 20010904//EN"
 "http://www.w3.org/TR/2001/REC-SVG-20010904/DTD/svg10.dtd">
<svg version="1.0" xmlns="http://www.w3.org/2000/svg"
 width="32.000000pt" height="32.000000pt" viewBox="0 0 32.000000 32.000000"
 preserveAspectRatio="xMidYMid meet">
<metadata>
Created by potrace 1.16, written by Peter Selinger 2001-2019
</metadata>
<g transform="translate(0.000000,32.000000) scale(0.100000,-0.100000)"
fill="#000000" stroke="none">
<path fill="#000000" stroke="none" d="M0 160 l0 -160 160 0 160 0 0 160 0
160 -160 0 -160 0 0 -160z"/>
<path fill="#ffffff" stroke="none" d="M249 274 c12 -15 21 -31 21 -35 0 -5
-20 -19 -45 -31 l-45 -22 0 -58 c0 -45 5 -63 20 -78 31 -31 24 -40 -34 -40
-63 0 -77 12 -47 44 15 16 21 35 21 69 0 26 -2 47 -5 47 -4 0 -20 -7 -37 -16
-35 -18 -48 -10 -51 31 -2 25 5 33 43 54 25 13 49 31 53 38 5 8 16 12 25 9 9
-3 24 -1 32 4 22 14 26 13 49 -16z"/>
<path fill="#000000" stroke="none" d="M151 270 c-1 -8 -22 -23 -47 -34 -52
-21 -59 -32 -45 -67 9 -22 10 -22 10 -3 1 26 43 63 99 88 23 11 40 21 38 23
-2 3 -13 0 -24 -6 -15 -8 -22 -8 -25 2 -4 8 -6 7 -6 -3z"/>
<path fill="#000000" stroke="none" d="M153 130 c0 -25 2 -35 4 -22 2 12 2 32
0 45 -2 12 -4 2 -4 -23z"/>
<path fill="#000000" stroke="none" d="M122 48 c-21 -21 -14 -28 27 -28 34 0
61 14 50 24 -13 12 -66 15 -77 4z"/>
</g>
</svg>
