<?xml version="1.0" standalone="no"?>
<!DOCTYPE svg PUBLIC "-//W3C//DTD SVG 20010904//EN"
 "http://www.w3.org/TR/2001/REC-SVG-20010904/DTD/svg10.dtd">
<svg version="1.0" xmlns="http://www.w3.org/2000/svg"
 width="32.000000pt" height="32.000000pt" viewBox="0 0 32.000000 32.000000"
 preserveAspectRatio="xMidYMid meet">
<metadata>
Created by potrace 1.16, written by Peter Selinger 2001-2019
</metadata>
<g transform="translate(0.000000,32.000000) scale(0.100000,-0.100000)"
fill="#000000" stroke="none">
<path fill="#000000" stroke="none" d="M20 160 c0 -127 2 -140 18 -139 10 0
12 3 5 6 -10 3 -13 40 -13 134 l0 128 138 4 137 3 -142 2 -143 2 0 -140z"/>
<path fill="#000000" stroke="none" d="M77 264 c-12 -12 -8 -61 6 -72 6 -5 21
-12 32 -15 11 -2 7 -3 -10 -2 -16 2 -38 6 -47 10 -10 4 -18 3 -18 -3 0 -6 13
-13 30 -17 31 -7 42 -25 15 -25 -8 0 -15 -4 -15 -10 0 -14 33 -13 48 2 9 9 12
8 12 -4 0 -8 -14 -21 -31 -28 -19 -8 -28 -18 -25 -27 4 -8 6 -19 6 -24 0 -16
44 -10 75 11 26 17 31 18 46 4 14 -12 22 -13 38 -4 31 16 27 39 -6 37 -19 -1
-28 3 -31 15 -3 15 1 16 30 7 40 -11 38 -11 38 -1 0 5 -19 14 -41 21 -32 10
-39 15 -30 24 9 9 14 9 20 -2 5 -7 14 -10 21 -6 8 5 7 12 -5 25 -15 17 -15 19
2 28 10 6 14 14 10 19 -5 4 -20 -5 -35 -22 -27 -32 -40 -37 -59 -22 -9 7 -9
13 0 28 9 14 9 24 1 37 -11 17 -64 29 -77 16z"/>
<path fill="#ffffff" stroke="none" d="M140 240 c0 -5 -4 -10 -10 -10 -5 0
-10 5 -10 10 0 6 5 10 10 10 6 0 10 -4 10 -10z"/>
<path fill="#ffffff" stroke="none" d="M100 210 c0 -5 -4 -10 -10 -10 -5 0
-10 5 -10 10 0 6 5 10 10 10 6 0 10 -4 10 -10z"/>
<path fill="#ffffff" stroke="none" d="M137 203 c-9 -9 -19 -14 -23 -11 -10
10 6 28 24 28 15 0 15 -1 -1 -17z"/>
<path fill="#ffffff" stroke="none" d="M185 140 c3 -5 1 -10 -4 -10 -6 0 -11
5 -11 10 0 6 2 10 4 10 3 0 8 -4 11 -10z"/>
<path fill="#ffffff" stroke="none" d="M146 95 c-13 -14 -32 -25 -42 -25 -14
0 -10 5 14 20 17 11 32 25 32 30 0 6 4 9 9 5 5 -3 -1 -17 -13 -30z"/>
<path fill="#000000" stroke="none" d="M176 230 c-19 -49 -19 -47 -1 -47 9 0
14 5 12 12 -3 6 1 22 9 36 16 29 17 39 5 39 -5 0 -16 -18 -25 -40z"/>
</g>
</svg>
