<?xml version="1.0" standalone="no"?>
<!DOCTYPE svg PUBLIC "-//W3C//DTD SVG 20010904//EN"
 "http://www.w3.org/TR/2001/REC-SVG-20010904/DTD/svg10.dtd">
<svg version="1.0" xmlns="http://www.w3.org/2000/svg"
 width="32.000000pt" height="32.000000pt" viewBox="0 0 32.000000 32.000000"
 preserveAspectRatio="xMidYMid meet">
<metadata>
Created by potrace 1.16, written by Peter Selinger 2001-2019
</metadata>
<g transform="translate(0.000000,32.000000) scale(0.100000,-0.100000)"
fill="#000000" stroke="none">
<path fill="#000000" stroke="none" d="M22 158 l2 -143 3 137 4 137 137 4 137
3 -142 2 -143 2 2 -142z"/>
<path fill="#000000" stroke="none" d="M166 225 c-4 -12 3 -15 29 -15 26 0 33
3 29 15 -7 18 -21 19 -27 3 -4 -10 -6 -10 -6 0 -1 17 -18 15 -25 -3z"/>
<path fill="#000000" stroke="none" d="M74 209 c-3 -6 -1 -16 5 -22 8 -8 11
-5 11 11 0 24 -5 28 -16 11z"/>
<path fill="#000000" stroke="none" d="M103 198 c-2 -16 1 -18 10 -9 7 7 8 14
1 21 -6 6 -10 2 -11 -12z"/>
<path fill="#000000" stroke="none" d="M157 192 c-27 -6 -19 -48 8 -44 27 5
30 9 19 30 -5 10 -17 16 -27 14z"/>
<path fill="#000000" stroke="none" d="M204 119 c-3 -6 -15 -9 -25 -6 -10 3
-22 1 -25 -4 -3 -5 5 -9 18 -10 21 0 21 -1 4 -8 -11 -4 -15 -10 -10 -14 13 -8
29 3 37 26 4 11 12 15 18 11 8 -4 9 -3 5 4 -9 15 -13 15 -22 1z"/>
</g>
</svg>
