<?xml version="1.0" standalone="no"?>
<!DOCTYPE svg PUBLIC "-//W3C//DTD SVG 20010904//EN"
 "http://www.w3.org/TR/2001/REC-SVG-20010904/DTD/svg10.dtd">
<svg version="1.0" xmlns="http://www.w3.org/2000/svg"
 width="32.000000pt" height="32.000000pt" viewBox="0 0 32.000000 32.000000"
 preserveAspectRatio="xMidYMid meet">
<metadata>
Created by potrace 1.16, written by Peter Selinger 2001-2019
</metadata>
<g transform="translate(0.000000,32.000000) scale(0.100000,-0.100000)"
fill="#000000" stroke="none">
<path fill="#000000" stroke="none" d="M22 158 l2 -143 3 137 4 137 137 4 137
3 -142 2 -143 2 2 -142z"/>
<path fill="#000000" stroke="none" d="M96 231 c-15 -16 -15 -19 -1 -31 8 -7
15 -9 15 -5 0 5 9 0 21 -11 15 -13 22 -15 28 -6 4 6 18 13 31 16 14 2 24 9 22
17 -2 10 0 10 12 0 10 -8 16 -9 21 -1 3 5 5 10 3 11 -27 7 -58 8 -54 1 3 -5
-1 -9 -9 -9 -8 0 -12 4 -10 8 3 3 -2 12 -9 18 -10 9 -16 9 -21 1 -5 -8 -11 -8
-19 -1 -9 8 -18 6 -30 -8z"/>
<path fill="#000000" stroke="none" d="M180 113 c-18 -13 -26 -13 -45 -3 -24
13 -69 5 -59 -11 3 -5 15 -7 27 -3 21 6 21 6 3 -8 -13 -10 -15 -17 -8 -22 7
-4 17 -4 23 -1 5 4 19 -1 29 -10 10 -9 24 -14 30 -10 8 5 5 11 -7 21 -14 11
-8 10 25 -2 53 -20 66 -12 20 12 -27 15 -30 19 -14 22 10 2 22 -1 26 -8 4 -7
15 -10 23 -8 12 2 7 9 -17 25 -31 20 -35 20 -56 6z"/>
</g>
</svg>
