<?xml version="1.0" standalone="no"?>
<!DOCTYPE svg PUBLIC "-//W3C//DTD SVG 20010904//EN"
 "http://www.w3.org/TR/2001/REC-SVG-20010904/DTD/svg10.dtd">
<svg version="1.0" xmlns="http://www.w3.org/2000/svg"
 width="32.000000pt" height="32.000000pt" viewBox="0 0 32.000000 32.000000"
 preserveAspectRatio="xMidYMid meet">
<metadata>
Created by potrace 1.16, written by Peter Selinger 2001-2019
</metadata>
<g transform="translate(0.000000,32.000000) scale(0.100000,-0.100000)"
fill="#000000" stroke="none">
<path fill="#000000" stroke="none" d="M0 160 l0 -160 160 0 160 0 0 160 0
160 -160 0 -160 0 0 -160z"/>
<path fill="#ffffff" stroke="none" d="M168 293 l-137 -4 -4 -137 -3 -137 -2
143 -2 142 143 -2 142 -2 -137 -3z"/>
<path fill="#ffffff" stroke="none" d="M145 240 c5 8 11 8 21 -1 7 -6 12 -15
9 -18 -2 -4 2 -8 10 -8 8 0 12 4 9 9 -4 7 27 6 54 -1 2 -1 0 -6 -3 -11 -5 -8
-11 -7 -21 1 -12 10 -14 10 -12 0 2 -8 -8 -15 -22 -17 -13 -3 -27 -10 -31 -16
-6 -9 -13 -7 -28 6 -12 11 -21 16 -21 11 0 -4 -7 -2 -15 5 -14 12 -14 15 1 31
12 14 21 16 30 8 8 -7 14 -7 19 1z"/>
<path fill="#ffffff" stroke="none" d="M253 82 c-8 -2 -19 1 -23 8 -4 7 -16
10 -26 8 -16 -3 -13 -7 14 -22 46 -24 33 -32 -20 -12 -33 12 -39 13 -25 2 12
-10 15 -16 7 -21 -6 -4 -20 1 -30 10 -10 9 -24 14 -29 10 -6 -3 -16 -3 -23 1
-7 5 -5 12 8 22 18 14 18 14 -3 8 -12 -4 -24 -2 -27 3 -10 16 35 24 59 11 19
-10 27 -10 45 3 21 14 25 14 56 -6 24 -16 29 -23 17 -25z"/>
</g>
</svg>
