<?xml version="1.0" standalone="no"?>
<!DOCTYPE svg PUBLIC "-//W3C//DTD SVG 20010904//EN"
 "http://www.w3.org/TR/2001/REC-SVG-20010904/DTD/svg10.dtd">
<svg version="1.0" xmlns="http://www.w3.org/2000/svg"
 width="32.000000pt" height="32.000000pt" viewBox="0 0 32.000000 32.000000"
 preserveAspectRatio="xMidYMid meet">
<metadata>
Created by potrace 1.16, written by Peter Selinger 2001-2019
</metadata>
<g transform="translate(0.000000,32.000000) scale(0.100000,-0.100000)"
fill="#000000" stroke="none">
<path fill="#000000" stroke="none" d="M0 160 l0 -160 160 0 160 0 0 160 0
160 -160 0 -160 0 0 -160z"/>
<path fill="#ffffff" stroke="none" d="M300 160 l0 -140 -140 0 -140 0 0 140
0 140 140 0 140 0 0 -140z"/>
<path fill="#000000" stroke="none" d="M30 187 c0 -93 2 -103 19 -103 12 0 17
6 13 18 -2 10 2 20 12 24 9 4 16 17 16 33 0 15 7 36 15 48 13 19 13 22 -2 27
-14 6 -14 8 2 26 12 14 25 17 46 13 18 -3 29 -1 29 6 0 7 -26 11 -75 11 l-75
0 0 -103z"/>
<path fill="#000000" stroke="none" d="M207 271 c-5 -22 14 -34 38 -25 10 4
18 -3 25 -20 14 -38 20 -32 20 19 l0 45 -39 0 c-30 0 -40 -4 -44 -19z"/>
<path fill="#000000" stroke="none" d="M266 167 c-28 -18 -56 -46 -56 -56 0
-19 -45 -41 -81 -41 -22 0 -46 -8 -60 -20 l-24 -19 123 -1 122 0 0 75 c0 41
-1 75 -2 74 -2 0 -12 -6 -22 -12z"/>
</g>
</svg>
