<?xml version="1.0" standalone="no"?>
<!DOCTYPE svg PUBLIC "-//W3C//DTD SVG 20010904//EN"
 "http://www.w3.org/TR/2001/REC-SVG-20010904/DTD/svg10.dtd">
<svg version="1.0" xmlns="http://www.w3.org/2000/svg"
 width="32.000000pt" height="32.000000pt" viewBox="0 0 32.000000 32.000000"
 preserveAspectRatio="xMidYMid meet">
<metadata>
Created by potrace 1.16, written by Peter Selinger 2001-2019
</metadata>
<g transform="translate(0.000000,32.000000) scale(0.100000,-0.100000)"
fill="#000000" stroke="none">
<path fill="#000000" stroke="none" d="M0 160 l0 -160 160 0 160 0 0 160 0
160 -160 0 -160 0 0 -160z"/>
<path fill="#ffffff" stroke="none" d="M168 293 l-137 -4 -4 -137 -3 -137 -2
143 -2 142 143 -2 142 -2 -137 -3z"/>
<path fill="#ffffff" stroke="none" d="M240 248 c19 12 20 11 8 -8 -11 -17
-10 -22 2 -30 13 -8 13 -10 -2 -10 -12 0 -16 -6 -13 -21 3 -13 0 -19 -8 -16
-7 2 -11 16 -9 31 3 25 1 27 -24 24 -22 -2 -29 2 -32 17 -2 11 0 16 5 10 14
-17 33 -16 33 3 0 14 2 15 10 2 8 -12 13 -13 30 -2z"/>
<path fill="#ffffff" stroke="none" d="M153 211 c5 -19 -19 -51 -38 -51 -5 0
-1 6 10 14 12 8 16 20 12 35 -3 11 -2 21 3 21 4 0 10 -9 13 -19z"/>
<path fill="#ffffff" stroke="none" d="M210 197 c0 -7 -20 -32 -44 -57 -34
-35 -42 -48 -33 -58 9 -11 6 -13 -15 -11 -14 2 -33 -2 -42 -10 -21 -18 -33 -6
-15 15 8 9 12 29 11 43 -3 20 -1 23 9 14 9 -9 20 -4 50 24 21 20 36 39 34 43
-2 3 7 7 21 8 14 1 24 -4 24 -11z"/>
<path fill="#ffffff" stroke="none" d="M207 157 c0 -7 -12 -18 -25 -25 l-25
-12 23 25 c27 29 27 29 27 12z"/>
</g>
</svg>
