<?xml version="1.0" standalone="no"?>
<!DOCTYPE svg PUBLIC "-//W3C//DTD SVG 20010904//EN"
 "http://www.w3.org/TR/2001/REC-SVG-20010904/DTD/svg10.dtd">
<svg version="1.0" xmlns="http://www.w3.org/2000/svg"
 width="32.000000pt" height="32.000000pt" viewBox="0 0 32.000000 32.000000"
 preserveAspectRatio="xMidYMid meet">
<metadata>
Created by potrace 1.16, written by Peter Selinger 2001-2019
</metadata>
<g transform="translate(0.000000,32.000000) scale(0.100000,-0.100000)"
fill="#000000" stroke="none">
<path fill="#000000" stroke="none" d="M163 293 l-132 -4 -3 -134 -3 -135 138
0 137 0 0 140 c0 77 -1 139 -2 138 -2 -1 -62 -4 -135 -5z"/>
<path fill="#ffffff" stroke="none" d="M187 228 c27 -35 22 -43 -27 -43 -38 0
-46 3 -42 15 9 26 24 40 42 40 10 0 22 -6 27 -12z"/>
<path fill="#ffffff" stroke="none" d="M170 160 c0 -5 -4 -10 -10 -10 -5 0
-10 5 -10 10 0 6 5 10 10 10 6 0 10 -4 10 -10z"/>
<path fill="#ffffff" stroke="none" d="M188 138 c-18 -6 -38 -6 -55 0 -24 8
-20 9 27 9 47 0 51 -1 28 -9z"/>
<path fill="#ffffff" stroke="none" d="M173 113 c-7 -2 -19 -2 -25 0 -7 3 -2
5 12 5 14 0 19 -2 13 -5z"/>
</g>
</svg>
