<?xml version="1.0" standalone="no"?>
<!DOCTYPE svg PUBLIC "-//W3C//DTD SVG 20010904//EN"
 "http://www.w3.org/TR/2001/REC-SVG-20010904/DTD/svg10.dtd">
<svg version="1.0" xmlns="http://www.w3.org/2000/svg"
 width="32.000000pt" height="32.000000pt" viewBox="0 0 32.000000 32.000000"
 preserveAspectRatio="xMidYMid meet">
<metadata>
Created by potrace 1.16, written by Peter Selinger 2001-2019
</metadata>
<g transform="translate(0.000000,32.000000) scale(0.100000,-0.100000)"
fill="#000000" stroke="none">
<path fill="#000000" stroke="none" d="M30 155 l0 -135 135 0 135 0 0 135 0
135 -135 0 -135 0 0 -135z"/>
<path fill="#ffffff" stroke="none" d="M255 251 c-6 -21 -25 -29 -25 -11 0 6
5 10 10 10 6 0 10 8 10 17 0 9 3 14 6 10 3 -3 3 -15 -1 -26z"/>
<path fill="#ffffff" stroke="none" d="M89 246 c-2 -2 -15 -9 -29 -15 -24 -11
-24 -11 -6 3 16 13 49 24 35 12z"/>
<path fill="#ffffff" stroke="none" d="M199 227 c24 -30 24 -74 0 -106 -12
-17 -30 -31 -39 -31 -9 0 -27 14 -39 31 -24 32 -24 76 0 106 15 17 63 17 78 0z"/>
<path fill="#ffffff" stroke="none" d="M80 215 c0 -2 -10 -9 -22 -15 -22 -11
-22 -10 -4 4 21 17 26 19 26 11z"/>
<path fill="#ffffff" stroke="none" d="M280 215 c0 -2 -10 -9 -22 -15 -22 -11
-22 -10 -4 4 21 17 26 19 26 11z"/>
<path fill="#ffffff" stroke="none" d="M280 185 c0 -2 -10 -9 -22 -15 -22 -11
-22 -10 -4 4 21 17 26 19 26 11z"/>
<path fill="#ffffff" stroke="none" d="M70 176 c0 -2 -7 -7 -16 -10 -8 -3 -12
-2 -9 4 6 10 25 14 25 6z"/>
<path fill="#ffffff" stroke="none" d="M275 150 c-3 -5 -12 -10 -18 -10 -7 0
-6 4 3 10 19 12 23 12 15 0z"/>
<path fill="#ffffff" stroke="none" d="M70 146 c0 -2 -7 -7 -16 -10 -8 -3 -12
-2 -9 4 6 10 25 14 25 6z"/>
<path fill="#ffffff" stroke="none" d="M89 126 c-2 -2 -15 -9 -29 -15 -24 -11
-24 -11 -6 3 16 13 49 24 35 12z"/>
<path fill="#ffffff" stroke="none" d="M266 115 c-11 -8 -25 -15 -30 -15 -6 1
0 7 14 15 32 19 40 18 16 0z"/>
<path fill="#ffffff" stroke="none" d="M85 71 c-6 -21 -25 -29 -25 -11 0 6 5
10 10 10 6 0 10 8 10 17 0 9 3 14 6 10 3 -3 3 -15 -1 -26z"/>
<path fill="#ffffff" stroke="none" d="M266 85 c-11 -8 -25 -15 -30 -15 -6 1
0 7 14 15 32 19 40 18 16 0z"/>
<path fill="#000000" stroke="none" d="M123 175 c-3 -9 -3 -18 0 -21 9 -9 27
6 27 22 0 19 -19 18 -27 -1z"/>
<path fill="#000000" stroke="none" d="M172 174 c1 -9 9 -19 16 -22 9 -3 13 2
10 14 -1 9 -9 19 -16 22 -9 3 -13 -2 -10 -14z"/>
</g>
</svg>
