<?xml version="1.0" standalone="no"?>
<!DOCTYPE svg PUBLIC "-//W3C//DTD SVG 20010904//EN"
 "http://www.w3.org/TR/2001/REC-SVG-20010904/DTD/svg10.dtd">
<svg version="1.0" xmlns="http://www.w3.org/2000/svg"
 width="32.000000pt" height="32.000000pt" viewBox="0 0 32.000000 32.000000"
 preserveAspectRatio="xMidYMid meet">
<metadata>
Created by potrace 1.16, written by Peter Selinger 2001-2019
</metadata>
<g transform="translate(0.000000,32.000000) scale(0.100000,-0.100000)"
fill="#000000" stroke="none">
<path fill="#000000" stroke="none" d="M22 158 l2 -143 3 137 4 137 137 4 137
3 -142 2 -143 2 2 -142z"/>
<path fill="#000000" stroke="none" d="M114 228 c-33 -50 -46 -119 -26 -131 4
-3 7 11 7 31 1 21 9 52 18 71 17 34 17 55 1 29z"/>
<path fill="#000000" stroke="none" d="M190 217 c0 -5 8 -21 18 -35 28 -40 33
-61 21 -85 -10 -21 -10 -21 5 -3 23 29 19 57 -14 96 -16 19 -30 31 -30 27z"/>
<path fill="#000000" stroke="none" d="M150 193 c0 -7 9 -30 21 -52 16 -32 18
-44 9 -63 -11 -22 -10 -22 4 -4 22 28 20 51 -9 94 -14 20 -25 31 -25 25z"/>
<path fill="#000000" stroke="none" d="M123 90 c-1 -10 6 -16 18 -15 28 2 30
9 5 21 -18 8 -22 7 -23 -6z"/>
</g>
</svg>
