<?xml version="1.0" standalone="no"?>
<!DOCTYPE svg PUBLIC "-//W3C//DTD SVG 20010904//EN"
 "http://www.w3.org/TR/2001/REC-SVG-20010904/DTD/svg10.dtd">
<svg version="1.0" xmlns="http://www.w3.org/2000/svg"
 width="32.000000pt" height="32.000000pt" viewBox="0 0 32.000000 32.000000"
 preserveAspectRatio="xMidYMid meet">
<metadata>
Created by potrace 1.16, written by Peter Selinger 2001-2019
</metadata>
<g transform="translate(0.000000,32.000000) scale(0.100000,-0.100000)"
fill="#000000" stroke="none">
<path fill="#000000" stroke="none" d="M0 160 l0 -160 160 0 160 0 0 160 0
160 -160 0 -160 0 0 -160z"/>
<path fill="#ffffff" stroke="none" d="M300 160 l0 -140 -140 0 -140 0 0 140
0 140 140 0 140 0 0 -140z"/>
<path fill="#000000" stroke="none" d="M30 160 l0 -130 130 0 130 0 0 130 0
130 -130 0 -130 0 0 -130z"/>
<path fill="#ffffff" stroke="none" d="M160 259 c0 6 7 11 15 11 8 0 15 -7 15
-15 0 -21 17 -19 29 3 13 25 49 25 57 0 3 -11 1 -25 -6 -32 -10 -8 -11 -8 -6
2 12 20 -4 14 -25 -10 -20 -23 -20 -23 -10 -1 19 38 12 38 -19 3 -16 -19 -29
-31 -30 -27 0 4 -9 3 -20 -3 -15 -8 -19 -19 -17 -54 l2 -43 53 1 c28 1 52 2
52 3 0 1 -9 7 -19 13 -14 7 -28 7 -48 -1 l-28 -10 23 21 c12 11 22 24 22 27 0
4 -5 2 -12 -5 -17 -17 -33 -15 -18 3 7 8 10 22 6 30 -4 11 -2 14 6 8 19 -11
48 -11 48 0 0 5 7 4 15 -3 8 -7 15 -22 14 -34 0 -11 -3 -16 -5 -9 -5 12 -34 7
-34 -6 0 -4 11 -13 25 -19 36 -16 32 -47 -6 -61 -41 -14 -117 -14 -158 0 -36
13 -42 42 -12 59 29 15 38 12 15 -4 -18 -14 -17 -15 11 -12 30 3 46 28 26 41
-15 9 -14 58 2 74 10 12 9 13 -7 7 -14 -5 -17 -2 -12 10 3 8 6 24 6 35 0 18 1
19 25 3 15 -10 25 -12 25 -5z"/>
<path fill="#ffffff" stroke="none" d="M100 252 c0 -7 -5 -10 -12 -6 -8 5 -9
0 -5 -15 4 -17 3 -20 -7 -12 -7 6 -16 8 -19 4 -9 -8 -9 10 -1 30 7 19 44 18
44 -1z"/>
<path fill="#ffffff" stroke="none" d="M70 200 c0 -5 6 -9 13 -7 7 1 12 -10
12 -30 1 -28 -1 -31 -15 -18 -8 7 -19 14 -25 14 -5 0 -11 12 -13 26 -2 17 1
25 12 25 9 0 16 -4 16 -10z"/>
<path fill="#000000" stroke="none" d="M103 73 c9 -2 23 -2 30 0 6 3 -1 5 -18
5 -16 0 -22 -2 -12 -5z"/>
<path fill="#000000" stroke="none" d="M193 73 c9 -2 23 -2 30 0 6 3 -1 5 -18
5 -16 0 -22 -2 -12 -5z"/>
</g>
</svg>
