<?xml version="1.0" standalone="no"?>
<!DOCTYPE svg PUBLIC "-//W3C//DTD SVG 20010904//EN"
 "http://www.w3.org/TR/2001/REC-SVG-20010904/DTD/svg10.dtd">
<svg version="1.0" xmlns="http://www.w3.org/2000/svg"
 width="32.000000pt" height="32.000000pt" viewBox="0 0 32.000000 32.000000"
 preserveAspectRatio="xMidYMid meet">
<metadata>
Created by potrace 1.16, written by Peter Selinger 2001-2019
</metadata>
<g transform="translate(0.000000,32.000000) scale(0.100000,-0.100000)"
fill="#000000" stroke="none">
<path fill="#000000" stroke="none" d="M30 155 l0 -135 135 0 135 0 0 135 0
135 -135 0 -135 0 0 -135z"/>
<path fill="#ffffff" stroke="none" d="M137 245 c19 -13 24 -13 51 2 25 14 32
15 46 4 9 -7 16 -24 16 -37 0 -27 -39 -59 -54 -44 -6 6 -14 6 -23 -1 -9 -9
-13 -8 -13 0 0 7 -4 9 -10 6 -5 -3 -10 0 -10 7 0 8 -3 9 -8 3 -4 -6 -16 -11
-27 -10 -26 0 -44 48 -25 69 16 20 30 20 57 1z"/>
<path fill="#ffffff" stroke="none" d="M151 146 c5 3 9 0 9 -7 0 -9 3 -9 14 0
10 8 16 9 21 1 3 -6 12 -7 18 -4 8 5 8 3 0 -7 -7 -7 -13 -22 -13 -33 0 -17 -2
-18 -10 -6 -8 13 -9 13 -14 0 -14 -44 -14 -45 -15 -27 -1 10 -5 15 -11 12 -5
-3 -10 0 -10 8 0 8 -9 22 -20 32 -19 17 -18 41 1 30 5 -4 9 0 10 7 0 10 2 10
6 0 2 -6 9 -10 14 -6z"/>
<path fill="#000000" stroke="none" d="M96 232 c-3 -6 1 -15 8 -21 8 -7 17 -8
20 -3 3 6 -1 15 -8 21 -8 7 -17 8 -20 3z"/>
<path fill="#000000" stroke="none" d="M201 226 c-7 -8 -8 -17 -3 -20 6 -3 15
1 21 8 7 8 8 17 3 20 -6 3 -15 -1 -21 -8z"/>
<path fill="#000000" stroke="none" d="M157 213 c-4 -3 -7 -11 -7 -17 0 -6 5
-5 12 2 6 6 9 14 7 17 -3 3 -9 2 -12 -2z"/>
</g>
</svg>
