<?xml version="1.0" standalone="no"?>
<!DOCTYPE svg PUBLIC "-//W3C//DTD SVG 20010904//EN"
 "http://www.w3.org/TR/2001/REC-SVG-20010904/DTD/svg10.dtd">
<svg version="1.0" xmlns="http://www.w3.org/2000/svg"
 width="32.000000pt" height="32.000000pt" viewBox="0 0 32.000000 32.000000"
 preserveAspectRatio="xMidYMid meet">
<metadata>
Created by potrace 1.16, written by Peter Selinger 2001-2019
</metadata>
<g transform="translate(0.000000,32.000000) scale(0.100000,-0.100000)"
fill="#000000" stroke="none">
<path fill="#000000" stroke="none" d="M0 160 l0 -160 160 0 160 0 0 160 0
160 -160 0 -160 0 0 -160z"/>
<path fill="#ffffff" stroke="none" d="M300 160 l0 -140 -140 0 -140 0 0 140
0 140 140 0 140 0 0 -140z"/>
<path fill="#000000" stroke="none" d="M30 160 l0 -130 130 0 130 0 0 130 0
130 -130 0 -130 0 0 -130z"/>
<path fill="#ffffff" stroke="none" d="M182 248 c-18 -18 -15 -27 8 -21 29 8
49 -14 47 -49 -2 -24 -9 -34 -33 -46 -20 -9 -36 -26 -42 -46 l-10 -31 -1 28
-1 27 -42 -30 c-52 -38 -68 -38 -68 -2 0 21 7 32 24 40 14 6 25 19 25 29 0 15
7 69 10 82 1 2 10 -4 21 -14 18 -16 20 -16 26 -1 3 9 1 23 -6 31 -11 13 -7 15
21 15 26 0 30 -3 21 -12z"/>
</g>
</svg>
