<?xml version="1.0" standalone="no"?>
<!DOCTYPE svg PUBLIC "-//W3C//DTD SVG 20010904//EN"
 "http://www.w3.org/TR/2001/REC-SVG-20010904/DTD/svg10.dtd">
<svg version="1.0" xmlns="http://www.w3.org/2000/svg"
 width="32.000000pt" height="32.000000pt" viewBox="0 0 32.000000 32.000000"
 preserveAspectRatio="xMidYMid meet">
<metadata>
Created by potrace 1.16, written by Peter Selinger 2001-2019
</metadata>
<g transform="translate(0.000000,32.000000) scale(0.100000,-0.100000)"
fill="#000000" stroke="none">
<path fill="#000000" stroke="none" d="M20 160 c0 -127 2 -140 18 -139 10 0
12 3 5 6 -10 3 -13 40 -13 134 l0 128 138 4 137 3 -142 2 -143 2 0 -140z"/>
<path fill="#000000" stroke="none" d="M176 266 c6 -17 -18 -27 -37 -15 -31
19 -43 9 -19 -17 14 -14 20 -28 15 -32 -12 -8 -16 -42 -6 -42 11 0 10 -33 -2
-47 -6 -9 -6 -13 2 -13 6 0 11 -7 11 -15 0 -8 -5 -15 -11 -15 -5 0 -7 -5 -4
-10 10 -16 -31 -11 -45 5 -11 13 -9 20 10 40 13 14 18 25 12 25 -7 0 -12 14
-12 33 0 23 -3 28 -10 17 -8 -12 -10 -12 -16 4 -5 14 -9 15 -15 4 -12 -18 -11
-51 0 -43 17 10 21 -12 6 -25 -8 -7 -15 -28 -15 -46 l0 -34 90 0 c72 0 92 3
96 15 4 8 0 22 -7 31 -10 13 -10 17 1 24 12 7 9 15 -15 41 -28 29 -28 31 -5
18 14 -8 36 -23 49 -34 l23 -20 -6 23 c-4 12 -9 32 -10 45 -4 28 -24 77 -31
77 -4 0 -3 -6 1 -12 4 -7 -4 -3 -18 10 -28 25 -40 28 -32 8z"/>
<path fill="#ffffff" stroke="none" d="M180 148 c0 -4 -4 -8 -9 -8 -6 0 -12 4
-15 8 -3 5 1 9 9 9 8 0 15 -4 15 -9z"/>
</g>
</svg>
