<?xml version="1.0" standalone="no"?>
<!DOCTYPE svg PUBLIC "-//W3C//DTD SVG 20010904//EN"
 "http://www.w3.org/TR/2001/REC-SVG-20010904/DTD/svg10.dtd">
<svg version="1.0" xmlns="http://www.w3.org/2000/svg"
 width="32.000000pt" height="32.000000pt" viewBox="0 0 32.000000 32.000000"
 preserveAspectRatio="xMidYMid meet">
<metadata>
Created by potrace 1.16, written by Peter Selinger 2001-2019
</metadata>
<g transform="translate(0.000000,32.000000) scale(0.100000,-0.100000)"
fill="#000000" stroke="none">
<path fill="#000000" stroke="none" d="M0 160 l0 -160 160 0 160 0 0 160 0
160 -160 0 -160 0 0 -160z"/>
<path fill="#ffffff" stroke="none" d="M135 250 c3 -6 -1 -7 -9 -4 -18 7 -21
14 -7 14 6 0 13 -4 16 -10z"/>
<path fill="#ffffff" stroke="none" d="M201 233 c13 -15 12 -15 -11 -3 -34 17
-36 20 -18 20 9 0 22 -7 29 -17z"/>
<path fill="#ffffff" stroke="none" d="M203 179 c5 -20 5 -20 -14 -3 -23 20
-28 54 -5 35 8 -6 16 -21 19 -32z"/>
<path fill="#ffffff" stroke="none" d="M175 171 c3 -5 1 -12 -5 -16 -5 -3 -10
1 -10 9 0 18 6 21 15 7z"/>
<path fill="#ffffff" stroke="none" d="M268 125 c-3 -3 -13 7 -23 22 l-17 28
23 -22 c12 -12 20 -25 17 -28z"/>
<path fill="#ffffff" stroke="none" d="M148 120 c-7 -11 -17 -20 -22 -20 -5 0
-1 9 9 20 10 11 20 20 22 20 2 0 -2 -9 -9 -20z"/>
<path fill="#ffffff" stroke="none" d="M224 56 c-3 -9 -10 -16 -15 -16 -6 0
-5 9 1 21 13 24 24 20 14 -5z"/>
</g>
</svg>
