<?xml version="1.0" standalone="no"?>
<!DOCTYPE svg PUBLIC "-//W3C//DTD SVG 20010904//EN"
 "http://www.w3.org/TR/2001/REC-SVG-20010904/DTD/svg10.dtd">
<svg version="1.0" xmlns="http://www.w3.org/2000/svg"
 width="32.000000pt" height="32.000000pt" viewBox="0 0 32.000000 32.000000"
 preserveAspectRatio="xMidYMid meet">
<metadata>
Created by potrace 1.16, written by Peter Selinger 2001-2019
</metadata>
<g transform="translate(0.000000,32.000000) scale(0.100000,-0.100000)"
fill="#000000" stroke="none">
<path fill="#000000" stroke="none" d="M0 160 l0 -160 160 0 160 0 0 160 0
160 -160 0 -160 0 0 -160z"/>
<path fill="#ffffff" stroke="none" d="M163 293 l-132 -4 -4 -132 -3 -132 -2
138 -2 137 138 -2 137 -2 -132 -3z"/>
<path fill="#ffffff" stroke="none" d="M195 261 c-2 -4 9 -15 26 -25 29 -17
40 -46 17 -46 -9 0 -9 -3 0 -12 19 -19 14 -56 -8 -68 -12 -6 -20 -21 -20 -35
0 -26 -15 -34 -23 -12 -4 9 -8 8 -16 -3 -10 -13 -12 -13 -22 0 -8 11 -12 12
-16 3 -9 -23 -23 -13 -23 16 0 20 -6 30 -20 34 -23 6 -28 52 -7 60 9 4 8 8 -3
17 -13 10 -13 11 3 6 9 -3 17 -1 17 4 0 6 -5 10 -10 10 -11 0 8 40 25 52 12 9
86 8 80 -1z"/>
<path fill="#000000" stroke="none" d="M92 153 c2 -10 14 -19 28 -21 14 -2 30
-8 35 -14 7 -8 6 -9 -2 -4 -7 4 -13 3 -13 -2 0 -5 9 -12 21 -15 17 -5 20 -2
16 13 -4 15 1 20 21 22 16 2 28 10 30 21 3 15 -5 17 -68 17 -63 0 -71 -2 -68
-17z"/>
</g>
</svg>
