<?xml version="1.0" standalone="no"?>
<!DOCTYPE svg PUBLIC "-//W3C//DTD SVG 20010904//EN"
 "http://www.w3.org/TR/2001/REC-SVG-20010904/DTD/svg10.dtd">
<svg version="1.0" xmlns="http://www.w3.org/2000/svg"
 width="32.000000pt" height="32.000000pt" viewBox="0 0 32.000000 32.000000"
 preserveAspectRatio="xMidYMid meet">
<metadata>
Created by potrace 1.16, written by Peter Selinger 2001-2019
</metadata>
<g transform="translate(0.000000,32.000000) scale(0.100000,-0.100000)"
fill="#000000" stroke="none">
<path fill="#000000" stroke="none" d="M20 160 c0 -127 2 -140 18 -139 10 0
12 3 5 6 -10 3 -13 40 -13 134 l0 128 138 4 137 3 -142 2 -143 2 0 -140z"/>
<path fill="#000000" stroke="none" d="M92 245 c-30 -35 -31 -119 -2 -135 12
-6 20 -21 20 -35 0 -26 15 -34 23 -12 4 9 8 8 16 -3 10 -13 12 -13 22 0 8 11
12 12 16 3 8 -22 23 -14 23 12 0 14 8 29 20 35 31 16 29 108 -3 138 -34 32
-106 31 -135 -3z"/>
<path fill="#ffffff" stroke="none" d="M140 149 c-13 -24 -43 -22 -48 4 -3 13
3 17 28 17 28 0 30 -2 20 -21z"/>
<path fill="#ffffff" stroke="none" d="M225 150 c0 -23 -32 -23 -45 0 -11 20
-9 21 17 18 17 -2 28 -9 28 -18z"/>
<path fill="#ffffff" stroke="none" d="M174 124 c5 -14 4 -15 -9 -4 -17 14
-19 20 -6 20 5 0 12 -7 15 -16z"/>
</g>
</svg>
