<?xml version="1.0" standalone="no"?>
<!DOCTYPE svg PUBLIC "-//W3C//DTD SVG 20010904//EN"
 "http://www.w3.org/TR/2001/REC-SVG-20010904/DTD/svg10.dtd">
<svg version="1.0" xmlns="http://www.w3.org/2000/svg"
 width="32.000000pt" height="32.000000pt" viewBox="0 0 32.000000 32.000000"
 preserveAspectRatio="xMidYMid meet">
<metadata>
Created by potrace 1.16, written by Peter Selinger 2001-2019
</metadata>
<g transform="translate(0.000000,32.000000) scale(0.100000,-0.100000)"
fill="#000000" stroke="none">
<path fill="#000000" stroke="none" d="M22 158 l2 -143 3 137 4 137 137 4 137
3 -142 2 -143 2 2 -142z"/>
<path fill="#000000" stroke="none" d="M89 239 c-27 -39 -17 -62 30 -69 17 -3
31 -9 31 -15 -1 -5 3 -10 10 -12 6 -1 7 0 0 4 -20 9 1 23 36 23 28 0 35 -4 32
-17 -2 -11 -14 -19 -31 -21 -15 -2 -25 -7 -22 -12 3 -5 -3 -8 -14 -7 -11 0
-17 5 -15 9 3 4 -7 8 -21 8 -18 0 -29 6 -32 20 -7 28 -23 25 -23 -5 0 -14 8
-29 20 -35 12 -6 20 -21 20 -35 0 -26 15 -34 23 -12 4 9 8 8 16 -3 10 -13 12
-13 22 0 8 11 12 12 16 3 8 -22 23 -14 23 12 0 14 8 29 20 35 22 12 27 49 8
68 -9 9 -9 12 0 12 18 0 14 24 -9 54 -17 22 -28 26 -69 26 -43 0 -51 -4 -71
-31z"/>
</g>
</svg>
