<?xml version="1.0" standalone="no"?>
<!DOCTYPE svg PUBLIC "-//W3C//DTD SVG 20010904//EN"
 "http://www.w3.org/TR/2001/REC-SVG-20010904/DTD/svg10.dtd">
<svg version="1.0" xmlns="http://www.w3.org/2000/svg"
 width="32.000000pt" height="32.000000pt" viewBox="0 0 32.000000 32.000000"
 preserveAspectRatio="xMidYMid meet">
<metadata>
Created by potrace 1.16, written by Peter Selinger 2001-2019
</metadata>
<g transform="translate(0.000000,32.000000) scale(0.100000,-0.100000)"
fill="#000000" stroke="none">
<path fill="#000000" stroke="none" d="M20 160 l0 -140 140 0 140 0 0 140 0
140 -140 0 -140 0 0 -140z"/>
<path fill="#ffffff" stroke="none" d="M290 160 l0 -130 -130 0 -130 0 0 130
0 130 130 0 130 0 0 -130z"/>
<path fill="#000000" stroke="none" d="M84 198 l-25 -39 36 -45 c50 -60 80
-60 130 0 l36 45 -26 39 c-25 37 -29 40 -76 40 -48 0 -52 -2 -75 -40z"/>
<path fill="#ffffff" stroke="none" d="M190 179 c0 -17 3 -19 14 -10 10 8 16
8 25 -3 9 -11 5 -19 -19 -40 -18 -14 -40 -26 -50 -26 -10 0 -32 12 -50 26 -24
21 -28 29 -19 40 9 11 15 11 25 3 11 -9 14 -7 14 10 0 17 6 21 30 21 24 0 30
-4 30 -21z"/>
</g>
</svg>
