<?xml version="1.0" standalone="no"?>
<!DOCTYPE svg PUBLIC "-//W3C//DTD SVG 20010904//EN"
 "http://www.w3.org/TR/2001/REC-SVG-20010904/DTD/svg10.dtd">
<svg version="1.0" xmlns="http://www.w3.org/2000/svg"
 width="32.000000pt" height="32.000000pt" viewBox="0 0 32.000000 32.000000"
 preserveAspectRatio="xMidYMid meet">
<metadata>
Created by potrace 1.16, written by Peter Selinger 2001-2019
</metadata>
<g transform="translate(0.000000,32.000000) scale(0.100000,-0.100000)"
fill="#000000" stroke="none">
<path fill="#000000" stroke="none" d="M79 273 c-1 -5 -1 -11 0 -15 0 -4 -8
-12 -20 -18 -15 -9 -18 -15 -9 -24 8 -10 5 -15 -12 -19 l-22 -6 24 -26 25 -26
-24 -18 -24 -19 21 -11 c11 -6 28 -11 36 -11 9 0 15 -6 13 -13 -1 -8 11 -12
37 -12 23 0 41 -5 43 -12 6 -16 24 -17 20 -1 -1 6 11 12 28 13 17 0 40 6 52
13 28 16 31 15 36 -5 3 -12 5 -9 6 8 0 14 -7 34 -17 45 -10 10 -18 33 -18 49
1 18 -4 29 -11 28 -6 -2 -14 6 -18 15 -3 10 -18 31 -33 45 -28 27 -29 27 -47
7 -17 -19 -18 -19 -43 0 -26 21 -41 25 -43 13z"/>
<path fill="#ffffff" stroke="none" d="M128 245 c35 -30 44 -31 35 -7 -6 15
-5 16 12 2 17 -14 17 -13 10 10 l-7 25 25 -23 c14 -13 31 -37 38 -54 9 -21 14
-26 20 -16 5 8 8 -3 6 -28 -1 -22 -9 -51 -18 -64 -14 -21 -24 -24 -86 -25 -55
-1 -70 2 -66 12 3 8 -3 13 -18 13 -13 0 -30 4 -38 9 -11 7 -9 10 7 15 11 4 26
14 34 23 7 9 8 14 2 10 -6 -3 -21 4 -33 17 l-22 23 22 6 c19 5 20 9 10 21 -11
13 -9 16 13 22 21 5 24 9 15 20 -19 24 7 16 39 -11z"/>
<path fill="#000000" stroke="none" d="M128 172 c3 -15 7 -20 12 -12 4 7 13
16 20 20 8 5 3 9 -12 12 -21 4 -24 1 -20 -20z"/>
<path fill="#000000" stroke="none" d="M160 150 c0 -5 5 -10 10 -10 6 0 10 5
10 10 0 6 -4 10 -10 10 -5 0 -10 -4 -10 -10z"/>
<path fill="#000000" stroke="none" d="M197 136 c-3 -8 0 -17 7 -19 10 -4 12
1 9 14 -6 23 -9 24 -16 5z"/>
<path fill="#000000" stroke="none" d="M236 98 l-18 -33 21 25 c18 22 26 40
18 40 -1 0 -11 -15 -21 -32z"/>
<path fill="#000000" stroke="none" d="M162 87 c-8 -10 -6 -13 7 -13 11 0 17
6 14 13 -3 7 -6 13 -8 13 -1 0 -7 -6 -13 -13z"/>
<path fill="#000000" stroke="none" d="M301 124 c0 -11 3 -14 6 -6 3 7 2 16
-1 19 -3 4 -6 -2 -5 -13z"/>
<path fill="#000000" stroke="none" d="M20 65 c-8 -9 -8 -15 -2 -15 12 0 26
19 19 26 -2 2 -10 -2 -17 -11z"/>
<path fill="#000000" stroke="none" d="M55 60 c-3 -5 -1 -10 4 -10 6 0 11 5
11 10 0 6 -2 10 -4 10 -3 0 -8 -4 -11 -10z"/>
</g>
</svg>
