<?xml version="1.0" standalone="no"?>
<!DOCTYPE svg PUBLIC "-//W3C//DTD SVG 20010904//EN"
 "http://www.w3.org/TR/2001/REC-SVG-20010904/DTD/svg10.dtd">
<svg version="1.0" xmlns="http://www.w3.org/2000/svg"
 width="32.000000pt" height="32.000000pt" viewBox="0 0 32.000000 32.000000"
 preserveAspectRatio="xMidYMid meet">
<metadata>
Created by potrace 1.16, written by Peter Selinger 2001-2019
</metadata>
<g transform="translate(0.000000,32.000000) scale(0.100000,-0.100000)"
fill="#000000" stroke="none">
<path fill="#000000" stroke="none" d="M82 273 c-13 -27 -8 -159 7 -177 8 -9
22 -16 32 -16 11 0 19 -4 19 -10 0 -12 -34 -30 -57 -29 -11 0 -13 3 -5 6 9 3
3 15 -18 39 -23 26 -30 44 -30 75 0 28 4 38 12 33 7 -4 8 -3 4 5 -13 20 -26 1
-26 -38 0 -20 6 -46 14 -56 12 -16 11 -21 -1 -34 -25 -24 7 -38 95 -40 l79 -2
1 73 c1 100 1 100 13 92 7 -4 10 -33 6 -85 -5 -79 0 -92 23 -64 9 11 16 12 26
4 7 -6 17 -8 23 -5 5 3 12 0 14 -6 3 -7 6 5 6 27 1 39 0 40 -35 42 -45 2 -47
4 -34 37 7 20 7 25 -2 20 -8 -5 -9 -2 -4 11 7 20 -18 65 -37 65 -6 0 -3 -7 7
-15 19 -14 18 -15 -15 -16 -19 -1 -26 -3 -16 -6 9 -2 17 -9 17 -15 0 -5 -7 -7
-16 -4 -9 3 -25 6 -37 6 -18 0 -19 2 -7 10 13 8 12 10 -3 10 -10 0 -15 5 -12
10 3 6 17 10 31 10 14 0 23 4 19 9 -7 13 35 41 60 40 11 0 14 -3 7 -6 -9 -3
-3 -15 18 -39 23 -26 30 -44 30 -75 0 -28 -4 -38 -12 -33 -7 4 -8 3 -4 -5 13
-20 26 -1 26 39 0 27 -8 48 -26 69 -14 17 -23 35 -19 41 12 19 -28 24 -57 7
-17 -9 -39 -17 -49 -17 -11 0 -17 -4 -14 -10 3 -5 2 -10 -3 -10 -6 0 -13 7
-16 16 -3 9 -11 12 -18 8 -8 -5 -9 -2 -5 9 8 22 0 22 -11 0z"/>
<path fill="#ffffff" stroke="none" d="M101 251 c6 9 9 2 9 -23 0 -20 5 -40
10 -43 6 -3 10 -14 9 -23 0 -14 -2 -14 -10 3 -9 19 -9 19 -5 -1 2 -12 0 -28
-5 -35 -11 -19 -16 0 -22 76 -2 33 -2 54 1 46 4 -11 6 -11 13 0z"/>
<path fill="#ffffff" stroke="none" d="M180 160 c0 -13 -7 -20 -20 -20 -13 0
-20 7 -20 20 0 13 7 20 20 20 13 0 20 -7 20 -20z"/>
<path fill="#ffffff" stroke="none" d="M197 148 c-3 -8 -6 -5 -6 6 -1 11 2 17
5 13 3 -3 4 -12 1 -19z"/>
<path fill="#ffffff" stroke="none" d="M173 130 c18 0 19 -2 7 -10 -13 -8 -12
-10 3 -10 10 0 15 -4 12 -10 -8 -13 -75 -13 -95 0 -11 7 -7 10 20 11 19 1 27
3 18 6 -10 2 -18 9 -18 15 0 5 7 7 16 4 9 -3 25 -6 37 -6z"/>
</g>
</svg>
