<?xml version="1.0" standalone="no"?>
<!DOCTYPE svg PUBLIC "-//W3C//DTD SVG 20010904//EN"
 "http://www.w3.org/TR/2001/REC-SVG-20010904/DTD/svg10.dtd">
<svg version="1.0" xmlns="http://www.w3.org/2000/svg"
 width="32.000000pt" height="32.000000pt" viewBox="0 0 32.000000 32.000000"
 preserveAspectRatio="xMidYMid meet">
<metadata>
Created by potrace 1.16, written by Peter Selinger 2001-2019
</metadata>
<g transform="translate(0.000000,32.000000) scale(0.100000,-0.100000)"
fill="#000000" stroke="none">
<path fill="#000000" stroke="none" d="M100 260 c-33 -13 -45 -23 -45 -38 0
-11 -3 -24 -7 -28 -16 -15 -7 -24 16 -18 37 9 39 -10 5 -65 -18 -28 -29 -57
-26 -66 7 -17 46 -20 95 -6 20 6 32 6 32 0 0 -16 82 -10 102 8 17 15 18 15 18
0 0 -10 5 -17 10 -17 6 0 10 21 10 46 0 43 -2 46 -23 42 -23 -4 -23 -3 -13 24
8 23 7 31 -7 45 -10 10 -17 14 -16 8 4 -25 -3 -35 -23 -35 -19 0 -20 2 -6 13
18 14 43 75 35 84 -9 8 -70 -17 -84 -35 -11 -14 -13 -13 -13 6 0 20 10 27 34
23 5 -1 4 5 -4 13 -16 20 -33 19 -90 -4z"/>
<path fill="#ffffff" stroke="none" d="M147 239 c-17 -18 -47 -38 -67 -46 -34
-13 -34 -13 -14 4 12 10 30 23 40 30 16 10 14 11 -16 7 -34 -5 -34 -4 10 15
70 29 84 26 47 -10z"/>
<path fill="#ffffff" stroke="none" d="M246 234 c-3 -9 -6 -18 -6 -20 0 -2 -7
-4 -15 -4 -18 0 -20 26 -2 33 23 10 29 7 23 -9z"/>
<path fill="#ffffff" stroke="none" d="M223 188 c-6 -12 -31 -10 -38 2 -4 6
-4 18 -1 26 5 12 8 12 24 -3 10 -10 17 -21 15 -25z"/>
<path fill="#ffffff" stroke="none" d="M120 185 c-7 -8 -17 -12 -22 -9 -6 4
-5 10 3 15 22 14 33 10 19 -6z"/>
<path fill="#ffffff" stroke="none" d="M189 149 c-11 -20 -29 -26 -29 -8 0 5
4 8 9 5 5 -3 11 1 14 9 4 10 1 12 -10 8 -12 -5 -15 -2 -10 10 4 11 2 14 -8 10
-8 -3 -12 -9 -9 -14 3 -5 0 -9 -5 -9 -17 0 -13 18 6 29 26 14 56 -15 42 -40z"/>
<path fill="#ffffff" stroke="none" d="M250 105 c-19 -45 -20 -47 -16 -15 4
30 3 32 -7 16 -7 -10 -20 -28 -30 -40 -17 -20 -17 -20 -4 15 16 38 70 100 75
84 1 -5 -7 -32 -18 -60z"/>
<path fill="#ffffff" stroke="none" d="M135 140 c-3 -5 -14 -8 -25 -7 -14 1
-16 5 -9 13 11 14 42 7 34 -6z"/>
<path fill="#ffffff" stroke="none" d="M156 118 c4 4 4 2 1 -5 -9 -15 -97 -66
-104 -60 -6 7 12 41 32 61 12 11 22 13 39 6 13 -5 27 -6 32 -2z"/>
<path fill="#ffffff" stroke="none" d="M195 108 c-3 -8 -12 -15 -20 -15 -13 0
-12 4 2 19 18 20 26 19 18 -4z"/>
</g>
</svg>
