<?xml version="1.0" standalone="no"?>
<!DOCTYPE svg PUBLIC "-//W3C//DTD SVG 20010904//EN"
 "http://www.w3.org/TR/2001/REC-SVG-20010904/DTD/svg10.dtd">
<svg version="1.0" xmlns="http://www.w3.org/2000/svg"
 width="32.000000pt" height="32.000000pt" viewBox="0 0 32.000000 32.000000"
 preserveAspectRatio="xMidYMid meet">
<metadata>
Created by potrace 1.16, written by Peter Selinger 2001-2019
</metadata>
<g transform="translate(0.000000,32.000000) scale(0.100000,-0.100000)"
fill="#000000" stroke="none">
<path fill="#000000" stroke="none" d="M216 301 c-4 -6 -20 -11 -35 -11 -37 0
-51 -18 -49 -64 1 -42 -31 -83 -70 -89 -12 -2 -29 -13 -37 -24 -14 -20 -13
-23 13 -42 22 -16 25 -22 14 -33 -11 -11 -12 -10 -6 6 6 16 4 18 -10 13 -12
-5 -15 -3 -10 6 6 8 3 8 -8 -1 -9 -7 -16 -22 -15 -33 1 -16 9 -19 58 -19 42 0
62 5 79 20 16 14 37 20 71 20 57 0 79 7 79 26 0 8 4 14 9 14 6 0 12 -19 14
-42 3 -34 4 -30 5 20 l2 62 -47 0 c-27 0 -68 -9 -92 -20 -53 -24 -60 -21 -26
10 18 16 35 23 62 22 44 -2 63 12 63 45 0 15 4 22 11 17 7 -4 7 1 -1 16 -8 15
-8 20 -1 16 7 -5 11 6 11 33 0 34 -3 41 -19 41 -11 0 -23 -5 -27 -12 -4 -7 -3
-8 4 -4 8 5 10 1 5 -10 -5 -13 -2 -16 9 -12 9 4 15 0 15 -8 0 -20 -5 -18 -36
17 -18 19 -31 27 -35 20z"/>
<path fill="#ffffff" stroke="none" d="M168 273 c-11 -3 -18 -13 -17 -26 1
-17 2 -18 6 -4 5 21 23 23 23 2 0 -8 -4 -15 -9 -15 -5 0 -11 -7 -15 -15 -5
-13 -2 -13 25 1 17 8 28 11 25 5 -4 -6 -2 -11 5 -11 8 0 7 -7 -3 -22 -15 -22
-14 -23 18 -25 24 -2 34 2 37 15 3 13 4 12 3 -3 -1 -17 -8 -20 -43 -20 -32 0
-48 -6 -70 -27 -16 -16 -37 -28 -46 -28 -26 0 -20 33 12 64 24 23 28 34 25 63
-5 40 1 53 24 52 15 -1 15 -2 0 -6z"/>
<path fill="#ffffff" stroke="none" d="M215 260 c-10 -11 -20 -18 -23 -16 -5
6 21 35 32 36 5 0 1 -9 -9 -20z"/>
<path fill="#ffffff" stroke="none" d="M244 245 c-7 -16 -24 -21 -24 -6 0 8 7
13 27 20 1 1 0 -6 -3 -14z"/>
<path fill="#ffffff" stroke="none" d="M257 215 c-23 -22 -33 -18 -12 5 10 11
20 18 23 16 2 -3 -3 -12 -11 -21z"/>
<path fill="#ffffff" stroke="none" d="M250 180 c0 -5 -5 -10 -11 -10 -5 0 -7
5 -4 10 3 6 8 10 11 10 2 0 4 -4 4 -10z"/>
<path fill="#ffffff" stroke="none" d="M60 97 c0 -5 -4 -5 -10 -2 -5 3 -10 14
-10 23 0 15 2 15 10 2 5 -8 10 -19 10 -23z"/>
<path fill="#ffffff" stroke="none" d="M104 81 c-7 -9 -34 10 -34 24 0 13 3
12 18 -2 10 -10 17 -20 16 -22z"/>
<path fill="#ffffff" stroke="none" d="M110 60 c13 -8 13 -10 -2 -10 -9 0 -20
5 -23 10 -8 13 5 13 25 0z"/>
</g>
</svg>
