<?xml version="1.0" standalone="no"?>
<!DOCTYPE svg PUBLIC "-//W3C//DTD SVG 20010904//EN"
 "http://www.w3.org/TR/2001/REC-SVG-20010904/DTD/svg10.dtd">
<svg version="1.0" xmlns="http://www.w3.org/2000/svg"
 width="32.000000pt" height="32.000000pt" viewBox="0 0 32.000000 32.000000"
 preserveAspectRatio="xMidYMid meet">
<metadata>
Created by potrace 1.16, written by Peter Selinger 2001-2019
</metadata>
<g transform="translate(0.000000,32.000000) scale(0.100000,-0.100000)"
fill="#000000" stroke="none">
<path fill="#000000" stroke="none" d="M0 184 c0 -120 2 -135 15 -124 8 7 12
16 9 21 -3 5 -1 9 5 9 5 0 13 -5 16 -10 3 -5 1 -10 -6 -10 -8 0 -8 -4 1 -15 8
-9 8 -15 2 -15 -6 0 -13 6 -15 13 -3 7 -6 5 -6 -5 -1 -22 27 -24 35 -3 8 19
24 9 24 -15 0 -15 -9 -20 -42 -23 -24 -2 29 -4 117 -5 l160 -2 -3 45 c-2 25
-8 45 -13 45 -5 0 -9 -6 -9 -14 0 -19 -22 -26 -79 -26 -34 0 -55 -6 -71 -20
-29 -26 -50 -26 -50 0 0 11 6 20 13 20 7 0 13 10 14 22 1 12 10 28 19 37 17
15 17 15 4 -3 -14 -18 -13 -18 10 -11 14 4 37 14 52 21 15 8 47 14 73 14 l45
0 0 95 0 95 -160 0 -160 0 0 -136z"/>
<path fill="#ffffff" stroke="none" d="M298 275 c-1 -35 -19 -47 -34 -23 -5 7
-2 9 7 6 10 -4 15 2 17 18 1 17 -3 24 -16 23 -10 0 -12 -3 -4 -6 6 -2 12 -9
12 -15 0 -6 -6 -6 -15 2 -11 9 -15 9 -15 1 0 -7 -4 -9 -10 -6 -5 3 -10 11 -10
16 0 6 4 8 9 4 5 -3 12 -1 16 5 3 5 15 10 25 10 16 0 19 -7 18 -35z"/>
<path fill="#ffffff" stroke="none" d="M215 291 c-6 -5 -23 -11 -40 -13 -26
-3 -30 -7 -30 -35 0 -17 -3 -29 -7 -26 -13 7 -9 50 5 61 6 6 26 12 42 15 17 2
32 5 35 6 2 0 0 -3 -5 -8z"/>
<path fill="#ffffff" stroke="none" d="M196 253 c-1 -23 -25 -38 -38 -25 -15
15 -2 42 21 42 12 0 18 -6 17 -17z"/>
<path fill="#ffffff" stroke="none" d="M223 243 c-5 -12 -2 -15 10 -10 9 3 17
2 17 -3 0 -15 -37 -12 -43 4 -6 15 1 26 14 26 5 0 5 -8 2 -17z"/>
<path fill="#ffffff" stroke="none" d="M282 198 c-2 -18 -9 -39 -14 -45 -11
-14 -54 -18 -61 -5 -3 4 9 7 26 7 27 0 33 4 35 25 2 14 5 31 7 38 8 23 12 12
7 -20z"/>
<path fill="#ffffff" stroke="none" d="M252 168 c-12 -12 -42 -4 -42 12 0 6
10 14 23 19 16 6 23 5 25 -6 2 -8 -1 -20 -6 -25z"/>
<path fill="#ffffff" stroke="none" d="M93 139 c-5 -5 -20 -11 -32 -12 -11 -1
-21 -7 -21 -14 0 -7 -5 -13 -10 -13 -7 0 -7 7 0 20 6 11 14 19 18 17 4 -3 16
-1 27 4 28 11 31 11 18 -2z"/>
<path fill="#000000" stroke="none" d="M160 245 c0 -8 5 -15 10 -15 6 0 10 7
10 15 0 8 -4 15 -10 15 -5 0 -10 -7 -10 -15z"/>
<path fill="#000000" stroke="none" d="M235 180 c-3 -5 -1 -10 4 -10 6 0 11 5
11 10 0 6 -2 10 -4 10 -3 0 -8 -4 -11 -10z"/>
</g>
</svg>
