<?xml version="1.0" standalone="no"?>
<!DOCTYPE svg PUBLIC "-//W3C//DTD SVG 20010904//EN"
 "http://www.w3.org/TR/2001/REC-SVG-20010904/DTD/svg10.dtd">
<svg version="1.0" xmlns="http://www.w3.org/2000/svg"
 width="32.000000pt" height="32.000000pt" viewBox="0 0 32.000000 32.000000"
 preserveAspectRatio="xMidYMid meet">
<metadata>
Created by potrace 1.16, written by Peter Selinger 2001-2019
</metadata>
<g transform="translate(0.000000,32.000000) scale(0.100000,-0.100000)"
fill="#000000" stroke="none">
<path fill="#000000" stroke="none" d="M254 298 c-4 -7 -3 -8 4 -4 8 5 10 1 5
-10 -5 -13 -2 -16 9 -12 8 4 15 1 15 -7 0 -17 -25 -7 -37 15 -7 14 -18 16 -52
13 -57 -7 -68 -18 -66 -64 1 -22 4 -37 7 -34 3 3 4 22 4 43 l-2 37 10 -32 c8
-29 12 -31 33 -23 19 7 26 5 30 -7 4 -8 1 -21 -5 -29 -8 -10 -3 -15 23 -23
l33 -10 -37 2 c-21 0 -40 -1 -43 -4 -10 -11 69 -8 82 2 7 7 13 22 13 36 0 15
4 22 11 17 8 -4 8 0 0 15 -8 14 -8 21 -1 21 5 0 10 16 10 35 0 28 -4 35 -19
35 -11 0 -23 -5 -27 -12z"/>
<path fill="#ffffff" stroke="none" d="M177 274 c-3 -3 -12 -4 -19 -1 -8 3 -5
6 6 6 11 1 17 -2 13 -5z"/>
<path fill="#ffffff" stroke="none" d="M215 260 c-10 -11 -20 -18 -23 -16 -5
6 21 35 32 36 5 0 1 -9 -9 -20z"/>
<path fill="#ffffff" stroke="none" d="M180 245 c0 -8 -4 -15 -10 -15 -5 0
-10 7 -10 15 0 8 5 15 10 15 6 0 10 -7 10 -15z"/>
<path fill="#ffffff" stroke="none" d="M244 245 c-7 -16 -24 -21 -24 -6 0 8 7
13 27 20 1 1 0 -6 -3 -14z"/>
<path fill="#ffffff" stroke="none" d="M257 215 c-23 -22 -33 -18 -12 5 10 11
20 18 23 16 2 -3 -3 -12 -11 -21z"/>
<path fill="#ffffff" stroke="none" d="M267 168 c-3 -7 -5 -2 -5 12 0 14 2 19
5 13 2 -7 2 -19 0 -25z"/>
<path fill="#ffffff" stroke="none" d="M250 180 c0 -5 -5 -10 -11 -10 -5 0 -7
5 -4 10 3 6 8 10 11 10 2 0 4 -4 4 -10z"/>
<path fill="#000000" stroke="none" d="M99 155 c-9 -9 -26 -17 -38 -18 -39 -3
-49 -46 -16 -71 16 -12 18 -17 7 -28 -11 -11 -12 -10 -6 6 6 16 4 18 -10 13
-12 -5 -15 -3 -10 6 6 8 3 8 -8 -1 -9 -7 -16 -22 -15 -33 2 -26 73 -28 80 -1
4 16 5 16 6 0 1 -24 23 -23 51 2 16 14 37 20 71 20 57 0 79 7 79 26 0 8 4 14
9 14 6 0 12 -19 14 -42 3 -34 4 -30 5 20 l2 62 -47 0 c-27 0 -68 -9 -92 -20
-55 -25 -58 -25 -35 3 19 22 19 22 -2 5 -11 -10 -26 -18 -33 -18 -7 0 -9 -5
-5 -11 4 -7 -1 -10 -12 -7 -10 2 -20 12 -22 22 -3 11 0 16 7 12 6 -4 11 -2 11
5 0 7 7 21 17 31 20 22 13 24 -8 3z"/>
<path fill="#ffffff" stroke="none" d="M60 97 c0 -5 -4 -5 -10 -2 -5 3 -10 14
-10 23 0 15 2 15 10 2 5 -8 10 -19 10 -23z"/>
<path fill="#ffffff" stroke="none" d="M110 60 c13 -8 13 -10 -2 -10 -9 0 -20
5 -23 10 -8 13 5 13 25 0z"/>
</g>
</svg>
