<?xml version="1.0" standalone="no"?>
<!DOCTYPE svg PUBLIC "-//W3C//DTD SVG 20010904//EN"
 "http://www.w3.org/TR/2001/REC-SVG-20010904/DTD/svg10.dtd">
<svg version="1.0" xmlns="http://www.w3.org/2000/svg"
 width="32.000000pt" height="32.000000pt" viewBox="0 0 32.000000 32.000000"
 preserveAspectRatio="xMidYMid meet">
<metadata>
Created by potrace 1.16, written by Peter Selinger 2001-2019
</metadata>
<g transform="translate(0.000000,32.000000) scale(0.100000,-0.100000)"
fill="#000000" stroke="none">
<path fill="#000000" stroke="none" d="M133 278 c-11 -13 -24 -33 -27 -45 -4
-12 -24 -30 -44 -40 l-37 -18 -2 -72 -2 -73 79 0 c44 0 88 4 98 9 9 5 36 13
59 18 39 9 42 8 46 -11 2 -12 5 1 6 27 1 31 -3 46 -9 42 -21 -13 -70 -24 -65
-14 10 15 -12 10 -29 -7 -9 -8 -16 -11 -16 -4 0 6 12 16 28 22 50 21 72 49 72
88 0 34 -3 38 -26 38 -14 0 -21 -4 -15 -8 7 -3 9 -14 5 -23 -3 -9 -3 -17 0
-17 4 0 11 10 16 23 8 19 9 18 9 -14 1 -38 -14 -56 -61 -77 -16 -7 -34 -26
-42 -47 l-15 -35 -64 2 -63 2 -2 63 -2 64 35 15 c21 8 40 26 47 42 21 47 39
62 77 61 33 0 34 -1 12 -10 -13 -5 -21 -12 -18 -15 7 -8 47 14 47 26 0 6 -17
10 -38 10 -27 0 -45 -7 -59 -22z"/>
<path fill="#000000" stroke="none" d="M185 253 c-26 -6 -44 -23 -24 -23 10
-1 8 -4 -5 -11 -15 -9 -16 -13 -5 -20 9 -5 10 -9 2 -9 -6 0 -10 -8 -9 -17 3
-18 36 -28 36 -10 0 8 4 7 9 -2 7 -11 11 -10 20 5 6 11 11 13 11 6 0 -7 4 -11
9 -8 12 8 20 56 10 56 -5 0 -9 -9 -9 -20 0 -11 -3 -19 -7 -19 -5 1 -10 1 -13
-1 -3 -1 -15 -3 -27 -6 -19 -3 -22 0 -19 19 3 12 5 24 6 27 2 3 2 8 1 13 0 4
8 7 19 7 11 0 20 5 20 10 0 6 -1 9 -2 9 -2 -1 -12 -3 -23 -6z"/>
<path fill="#000000" stroke="none" d="M85 129 c-10 -30 9 -45 37 -30 13 6 16
10 7 7 -21 -6 -39 12 -32 30 3 8 3 14 0 14 -3 0 -9 -9 -12 -21z"/>
</g>
</svg>
