<?xml version="1.0" standalone="no"?>
<!DOCTYPE svg PUBLIC "-//W3C//DTD SVG 20010904//EN"
 "http://www.w3.org/TR/2001/REC-SVG-20010904/DTD/svg10.dtd">
<svg version="1.0" xmlns="http://www.w3.org/2000/svg"
 width="32.000000pt" height="32.000000pt" viewBox="0 0 32.000000 32.000000"
 preserveAspectRatio="xMidYMid meet">
<metadata>
Created by potrace 1.16, written by Peter Selinger 2001-2019
</metadata>
<g transform="translate(0.000000,32.000000) scale(0.100000,-0.100000)"
fill="#000000" stroke="none">
<path fill="#000000" stroke="none" d="M101 209 c-59 -59 -78 -85 -71 -94 5
-6 7 -15 3 -19 -8 -8 47 -67 61 -64 6 0 19 -2 29 -7 16 -6 51 -1 155 22 16 4
22 1 22 -11 0 -9 5 -16 10 -16 6 0 10 11 10 24 0 45 -10 56 -51 56 -41 0 -47
-7 -26 -30 10 -12 9 -12 -5 -1 -10 7 -26 10 -35 7 -18 -7 -10 3 60 80 17 19
25 34 18 38 -5 4 -8 12 -5 19 5 15 -52 74 -62 64 -4 -4 -13 -2 -19 3 -9 7 -35
-12 -94 -71z"/>
<path fill="#ffffff" stroke="none" d="M223 233 c-5 -13 -2 -15 13 -10 19 7
19 7 0 -8 -24 -18 -39 -10 -26 16 13 23 22 25 13 2z"/>
<path fill="#ffffff" stroke="none" d="M198 181 c3 -8 -1 -12 -9 -9 -7 2 -15
10 -17 17 -3 8 1 12 9 9 7 -2 15 -10 17 -17z"/>
<path fill="#ffffff" stroke="none" d="M150 176 c0 -3 -4 -8 -10 -11 -5 -3
-10 -1 -10 4 0 6 5 11 10 11 6 0 10 -2 10 -4z"/>
<path fill="#ffffff" stroke="none" d="M180 140 c0 -5 -5 -10 -11 -10 -5 0 -7
5 -4 10 3 6 8 10 11 10 2 0 4 -4 4 -10z"/>
<path fill="#ffffff" stroke="none" d="M138 121 c3 -8 -1 -12 -9 -9 -7 2 -15
10 -17 17 -3 8 1 12 9 9 7 -2 15 -10 17 -17z"/>
<path fill="#ffffff" stroke="none" d="M100 79 c-13 -23 -22 -25 -13 -2 5 13
2 15 -13 10 -19 -7 -19 -7 0 8 24 18 39 10 26 -16z"/>
<path fill="#000000" stroke="none" d="M30 41 c0 -6 4 -13 10 -16 6 -3 7 1 4
9 -7 18 -14 21 -14 7z"/>
</g>
</svg>
