<?xml version="1.0" standalone="no"?>
<!DOCTYPE svg PUBLIC "-//W3C//DTD SVG 20010904//EN"
 "http://www.w3.org/TR/2001/REC-SVG-20010904/DTD/svg10.dtd">
<svg version="1.0" xmlns="http://www.w3.org/2000/svg"
 width="32.000000pt" height="32.000000pt" viewBox="0 0 32.000000 32.000000"
 preserveAspectRatio="xMidYMid meet">
<metadata>
Created by potrace 1.16, written by Peter Selinger 2001-2019
</metadata>
<g transform="translate(0.000000,32.000000) scale(0.100000,-0.100000)"
fill="#000000" stroke="none">
<path fill="#000000" stroke="none" d="M147 284 c-4 -4 -7 -15 -7 -25 0 -9 -8
-20 -17 -24 -17 -6 -17 -7 0 -19 13 -10 17 -28 17 -78 0 -62 -1 -66 -24 -70
-14 -3 -30 0 -37 6 -6 6 -4 -1 6 -16 19 -31 28 -36 19 -13 -8 21 25 20 41 -2
14 -19 35 -10 35 17 0 10 6 21 13 23 9 4 10 6 0 6 -9 1 -13 20 -13 60 0 47 4
60 18 66 16 6 16 7 1 18 -9 7 -18 21 -20 31 -4 21 -21 31 -32 20z"/>
<path fill="#ffffff" stroke="none" d="M188 229 c14 0 13 -2 -3 -9 -27 -12
-43 -12 -25 0 10 6 11 10 3 10 -14 0 -18 32 -5 44 4 4 8 -4 10 -18 2 -16 10
-26 20 -27z"/>
<path fill="#000000" stroke="none" d="M217 183 c-9 -18 -6 -72 3 -78 7 -4 8
-19 5 -36 -6 -26 -4 -29 19 -29 22 0 26 4 25 28 l-1 27 -7 -25 -7 -25 -8 24
c-6 16 -4 26 5 33 11 6 9 8 -6 6 -15 -2 -20 3 -20 21 0 13 5 26 12 28 7 3 10
-4 7 -19 -4 -21 -4 -21 5 -3 13 30 -17 76 -32 48z"/>
</g>
</svg>
