<?xml version="1.0" standalone="no"?>
<!DOCTYPE svg PUBLIC "-//W3C//DTD SVG 20010904//EN"
 "http://www.w3.org/TR/2001/REC-SVG-20010904/DTD/svg10.dtd">
<svg version="1.0" xmlns="http://www.w3.org/2000/svg"
 width="32.000000pt" height="32.000000pt" viewBox="0 0 32.000000 32.000000"
 preserveAspectRatio="xMidYMid meet">
<metadata>
Created by potrace 1.16, written by Peter Selinger 2001-2019
</metadata>
<g transform="translate(0.000000,32.000000) scale(0.100000,-0.100000)"
fill="#000000" stroke="none">
<path fill="#000000" stroke="none" d="M136 250 c-13 -27 -13 -30 1 -30 9 0
14 3 10 6 -3 3 -2 17 3 30 13 34 4 30 -14 -6z"/>
<path fill="#000000" stroke="none" d="M144 138 c1 -58 -1 -62 -24 -70 -25 -7
-24 -8 3 -4 15 2 27 -2 27 -8 0 -8 2 -8 8 0 4 6 16 16 27 22 16 9 17 11 4 12
-13 0 -16 8 -15 33 3 37 -9 77 -22 77 -5 0 -8 -28 -8 -62z"/>
<path fill="#000000" stroke="none" d="M217 183 c-12 -12 -7 -23 11 -23 13 0
14 2 3 9 -11 7 -11 9 0 14 8 3 9 6 3 6 -6 1 -14 -2 -17 -6z"/>
<path fill="#000000" stroke="none" d="M211 134 c0 -11 3 -14 6 -6 3 7 2 16
-1 19 -3 4 -6 -2 -5 -13z"/>
<path fill="#000000" stroke="none" d="M225 79 c0 -16 3 -29 8 -29 4 0 7 11 7
24 0 14 -3 27 -7 29 -5 3 -8 -8 -8 -24z"/>
</g>
</svg>
