<?xml version="1.0" standalone="no"?>
<!DOCTYPE svg PUBLIC "-//W3C//DTD SVG 20010904//EN"
 "http://www.w3.org/TR/2001/REC-SVG-20010904/DTD/svg10.dtd">
<svg version="1.0" xmlns="http://www.w3.org/2000/svg"
 width="32.000000pt" height="32.000000pt" viewBox="0 0 32.000000 32.000000"
 preserveAspectRatio="xMidYMid meet">
<metadata>
Created by potrace 1.16, written by Peter Selinger 2001-2019
</metadata>
<g transform="translate(0.000000,32.000000) scale(0.100000,-0.100000)"
fill="#000000" stroke="none">
<path fill="#000000" stroke="none" d="M147 284 c-4 -4 -7 -15 -7 -25 0 -9 -8
-20 -17 -24 -17 -6 -17 -7 0 -19 13 -10 17 -28 17 -78 0 -62 -1 -66 -24 -70
-14 -3 -30 0 -37 6 -6 6 -4 -1 6 -16 19 -31 28 -36 19 -13 -8 21 25 20 41 -2
14 -19 35 -10 35 17 0 10 6 21 13 23 9 4 10 6 0 6 -9 1 -13 20 -13 60 0 47 4
60 18 66 16 6 16 7 1 18 -9 7 -18 21 -20 31 -4 21 -21 31 -32 20z"/>
<path fill="#ffffff" stroke="none" d="M187 230 c9 0 14 -3 10 -6 -11 -11 -47
8 -47 25 0 29 15 35 18 7 2 -16 10 -26 19 -26z"/>
<path fill="#000000" stroke="none" d="M217 183 c-9 -18 -6 -72 3 -78 6 -4 9
-19 5 -35 -5 -24 -3 -28 20 -32 30 -6 34 -1 24 32 l-7 25 -2 -25 -1 -25 -12
24 c-8 17 -8 26 -1 28 6 2 9 16 7 31 -3 24 -2 24 7 7 8 -18 9 -18 7 5 -1 14
-6 31 -10 38 -9 13 -34 16 -40 5z"/>
<path fill="#ffffff" stroke="none" d="M252 158 c-7 -7 -12 -23 -12 -37 0 -13
-3 -21 -7 -17 -14 14 -12 41 4 54 21 15 31 16 15 0z"/>
</g>
</svg>
