<?xml version="1.0" standalone="no"?>
<!DOCTYPE svg PUBLIC "-//W3C//DTD SVG 20010904//EN"
 "http://www.w3.org/TR/2001/REC-SVG-20010904/DTD/svg10.dtd">
<svg version="1.0" xmlns="http://www.w3.org/2000/svg"
 width="32.000000pt" height="32.000000pt" viewBox="0 0 32.000000 32.000000"
 preserveAspectRatio="xMidYMid meet">
<metadata>
Created by potrace 1.16, written by Peter Selinger 2001-2019
</metadata>
<g transform="translate(0.000000,32.000000) scale(0.100000,-0.100000)"
fill="#000000" stroke="none">
<path fill="#000000" stroke="none" d="M0 160 l0 -160 160 0 160 0 0 160 0
160 -160 0 -160 0 0 -160z"/>
<path fill="#ffffff" stroke="none" d="M158 270 c-14 -22 -24 -19 -15 5 4 8
11 15 17 15 6 0 6 -7 -2 -20z"/>
<path fill="#ffffff" stroke="none" d="M142 218 c-12 -12 -35 -1 -27 12 3 5
13 6 21 3 10 -4 12 -9 6 -15z"/>
<path fill="#ffffff" stroke="none" d="M170 133 c0 -12 7 -29 16 -37 8 -9 11
-16 5 -16 -6 0 -12 -10 -12 -22 -1 -20 -2 -20 -6 -4 -4 15 -7 16 -14 5 -6 -10
-9 -5 -9 17 0 17 -3 53 -6 80 -5 47 -5 48 10 24 8 -14 15 -35 16 -47z"/>
<path fill="#ffffff" stroke="none" d="M237 68 c-3 -8 -6 -5 -6 6 -1 11 2 17
5 13 3 -3 4 -12 1 -19z"/>
</g>
</svg>
