<?xml version="1.0" standalone="no"?>
<!DOCTYPE svg PUBLIC "-//W3C//DTD SVG 20010904//EN"
 "http://www.w3.org/TR/2001/REC-SVG-20010904/DTD/svg10.dtd">
<svg version="1.0" xmlns="http://www.w3.org/2000/svg"
 width="32.000000pt" height="32.000000pt" viewBox="0 0 32.000000 32.000000"
 preserveAspectRatio="xMidYMid meet">
<metadata>
Created by potrace 1.16, written by Peter Selinger 2001-2019
</metadata>
<g transform="translate(0.000000,32.000000) scale(0.100000,-0.100000)"
fill="#000000" stroke="none">
<path fill="#000000" stroke="none" d="M147 284 c-4 -4 -7 -15 -7 -25 0 -9 -8
-20 -17 -24 -17 -6 -17 -7 0 -19 10 -8 17 -26 17 -49 l0 -35 -37 9 c-55 13
-63 11 -63 -11 0 -12 7 -20 18 -20 14 0 15 2 2 10 -24 15 -6 21 36 12 32 -6
40 -12 42 -34 2 -20 -2 -26 -22 -30 -14 -3 -29 -2 -33 1 -4 4 -7 4 -5 2 1 -3
-8 -11 -20 -18 l-23 -14 23 6 c13 4 30 1 38 -6 12 -10 13 -9 8 5 -8 22 25 22
41 -1 14 -19 35 -9 35 18 0 10 6 19 13 19 8 0 7 4 -3 10 -13 9 -13 11 0 20 10
6 11 10 3 10 -21 0 -17 86 5 95 16 6 16 7 1 18 -9 7 -18 21 -20 31 -4 21 -21
31 -32 20z"/>
<path fill="#000000" stroke="none" d="M215 180 c-10 -16 4 -30 22 -23 15 6
16 5 3 -9 -11 -11 -17 -12 -22 -4 -5 6 -8 2 -8 -11 0 -12 5 -25 11 -28 5 -4 7
-19 4 -35 -5 -23 -2 -28 17 -34 37 -10 39 -8 32 29 -3 19 -2 41 3 48 6 7 7 25
1 45 -7 25 -14 32 -33 32 -13 0 -27 -4 -30 -10z"/>
<path fill="#ffffff" stroke="none" d="M260 79 c0 -11 -4 -17 -10 -14 -5 3
-10 13 -10 21 0 8 5 14 10 14 6 0 10 -9 10 -21z"/>
</g>
</svg>
