<?xml version="1.0" standalone="no"?>
<!DOCTYPE svg PUBLIC "-//W3C//DTD SVG 20010904//EN"
 "http://www.w3.org/TR/2001/REC-SVG-20010904/DTD/svg10.dtd">
<svg version="1.0" xmlns="http://www.w3.org/2000/svg"
 width="32.000000pt" height="48.000000pt" viewBox="0 0 32.000000 48.000000"
 preserveAspectRatio="xMidYMid meet">
<metadata>
Created by potrace 1.16, written by Peter Selinger 2001-2019
</metadata>
<g transform="translate(0.000000,48.000000) scale(0.100000,-0.100000)"
fill="#000000" stroke="none">
<path fill="#000000" stroke="none" d="M0 240 l0 -240 160 0 160 0 0 240 0
240 -160 0 -160 0 0 -240z"/>
<path fill="#ffffff" stroke="none" d="M238 436 c8 -8 12 -22 9 -30 -5 -13
-15 -15 -47 -10 -32 5 -45 3 -62 -12 -21 -19 -21 -19 -7 4 12 21 19 23 62 18
42 -4 48 -3 45 12 -2 13 -19 19 -71 26 -80 11 -140 0 -145 -27 -3 -14 1 -17
21 -12 20 5 26 2 31 -19 3 -13 14 -27 24 -29 16 -4 16 -5 -1 -6 -10 0 -22 10
-29 24 -7 16 -18 24 -32 22 -30 -3 -27 34 4 51 33 17 178 9 198 -12z"/>
</g>
</svg>
