<?xml version="1.0" standalone="no"?>
<!DOCTYPE svg PUBLIC "-//W3C//DTD SVG 20010904//EN"
 "http://www.w3.org/TR/2001/REC-SVG-20010904/DTD/svg10.dtd">
<svg version="1.0" xmlns="http://www.w3.org/2000/svg"
 width="32.000000pt" height="48.000000pt" viewBox="0 0 32.000000 48.000000"
 preserveAspectRatio="xMidYMid meet">
<metadata>
Created by potrace 1.16, written by Peter Selinger 2001-2019
</metadata>
<g transform="translate(0.000000,48.000000) scale(0.100000,-0.100000)"
fill="#000000" stroke="none">
<path fill="#000000" stroke="none" d="M203 377 c-24 -11 -43 -26 -43 -33 0
-7 -8 -10 -20 -7 -12 3 -20 0 -20 -7 0 -8 9 -11 25 -8 14 3 30 -1 36 -8 13
-16 16 -100 4 -128 -6 -14 -5 -17 3 -12 15 9 16 -6 1 -21 -9 -9 -7 -11 6 -9
24 4 38 33 37 77 -1 29 4 42 20 53 22 16 22 16 -10 16 -34 0 -40 8 -19 29 10
11 9 13 -5 8 -30 -11 -29 6 4 40 37 38 37 39 -19 10z"/>
<path fill="#000000" stroke="none" d="M52 374 c10 -10 20 -15 24 -12 3 4 -5
12 -18 18 -22 12 -22 12 -6 -6z"/>
<path fill="#000000" stroke="none" d="M72 331 c2 -7 7 -12 11 -12 12 1 9 15
-3 20 -7 2 -11 -2 -8 -8z"/>
<path fill="#000000" stroke="none" d="M99 303 c0 -5 -2 -15 -4 -23 -1 -8 4
-21 11 -28 13 -11 16 -8 13 14 0 4 4 10 10 13 6 4 2 12 -9 19 -11 7 -20 9 -21
5z"/>
<path fill="#000000" stroke="none" d="M35 216 c-15 -16 -17 -43 -5 -51 6 -4
9 -1 8 7 -2 7 3 12 10 11 13 -3 16 15 4 33 -5 9 -10 9 -17 0z"/>
<path fill="#000000" stroke="none" d="M286 194 c-3 -8 -10 -12 -16 -9 -5 3
-10 1 -10 -5 0 -17 30 -24 43 -10 9 10 9 11 -2 5 -10 -6 -12 -2 -6 14 7 24 0
29 -9 5z"/>
<path fill="#000000" stroke="none" d="M60 125 c7 -8 16 -12 21 -9 13 8 1 24
-18 24 -13 0 -13 -3 -3 -15z"/>
<path fill="#000000" stroke="none" d="M142 131 c-17 -10 10 -34 34 -29 14 3
14 5 -3 20 -11 10 -24 14 -31 9z"/>
<path fill="#000000" stroke="none" d="M95 82 c-17 -12 -51 -56 -37 -48 6 4
12 2 12 -3 0 -23 19 -9 29 21 12 34 11 41 -4 30z"/>
<path fill="#000000" stroke="none" d="M198 83 c-10 -2 -18 -9 -18 -15 0 -6
-7 -20 -17 -30 -9 -11 -11 -18 -5 -18 7 0 12 6 12 13 0 8 3 7 10 -3 11 -18 25
-6 34 33 3 15 5 26 4 26 -2 -1 -11 -3 -20 -6z"/>
</g>
</svg>
