<?xml version="1.0" standalone="no"?>
<!DOCTYPE svg PUBLIC "-//W3C//DTD SVG 20010904//EN"
 "http://www.w3.org/TR/2001/REC-SVG-20010904/DTD/svg10.dtd">
<svg version="1.0" xmlns="http://www.w3.org/2000/svg"
 width="32.000000pt" height="48.000000pt" viewBox="0 0 32.000000 48.000000"
 preserveAspectRatio="xMidYMid meet">
<metadata>
Created by potrace 1.16, written by Peter Selinger 2001-2019
</metadata>
<g transform="translate(0.000000,48.000000) scale(0.100000,-0.100000)"
fill="#000000" stroke="none">
<path fill="#000000" stroke="none" d="M20 441 c-15 -30 -12 -56 11 -85 l21
-27 -21 -6 c-17 -4 -19 -8 -9 -20 9 -11 9 -19 1 -32 -7 -11 -8 -23 -2 -32 7
-12 9 -12 9 1 0 8 9 26 20 40 l19 25 10 -28 c11 -29 6 -52 -17 -79 -9 -11 -10
-18 -4 -18 6 0 21 14 33 32 31 42 35 160 7 197 -18 24 -22 21 -19 -11 3 -24
-12 -23 -34 2 -10 11 -15 28 -12 40 7 25 1 26 -13 1z"/>
<path fill="#000000" stroke="none" d="M272 441 c9 -15 8 -24 -6 -46 -21 -32
-39 -29 -40 8 -1 15 -6 31 -12 37 -7 7 -10 4 -10 -12 1 -12 -4 -23 -11 -23
-28 0 -36 -22 -24 -68 6 -25 8 -58 5 -74 -4 -23 0 -37 21 -61 32 -38 55 -43
26 -6 -24 30 -25 41 -10 81 l11 28 19 -24 c10 -13 19 -33 19 -45 0 -17 2 -18
10 -6 5 8 7 25 3 38 -3 12 0 29 7 37 10 13 8 15 -12 15 -39 0 -39 10 -2 45 35
33 43 62 22 83 -19 19 -29 14 -16 -7z"/>
</g>
</svg>
