<?xml version="1.0" standalone="no"?>
<!DOCTYPE svg PUBLIC "-//W3C//DTD SVG 20010904//EN"
 "http://www.w3.org/TR/2001/REC-SVG-20010904/DTD/svg10.dtd">
<svg version="1.0" xmlns="http://www.w3.org/2000/svg"
 width="32.000000pt" height="48.000000pt" viewBox="0 0 32.000000 48.000000"
 preserveAspectRatio="xMidYMid meet">
<metadata>
Created by potrace 1.16, written by Peter Selinger 2001-2019
</metadata>
<g transform="translate(0.000000,48.000000) scale(0.100000,-0.100000)"
fill="#000000" stroke="none">
<path fill="#000000" stroke="none" d="M0 240 l0 -240 160 0 160 0 0 240 0
240 -160 0 -160 0 0 -240z"/>
<path fill="#ffffff" stroke="none" d="M172 358 c9 -7 18 -24 21 -38 3 -14 13
-46 22 -72 17 -47 14 -85 -4 -73 -6 3 -7 13 -4 22 5 12 3 14 -7 8 -10 -6 -12
-4 -7 9 8 20 -23 116 -36 116 -4 0 -6 -4 -3 -9 10 -15 -22 -21 -34 -6 -8 10
-5 15 17 24 l28 11 -30 -5 c-28 -5 -29 -4 -11 10 24 18 28 18 48 3z"/>
<path fill="#ffffff" stroke="none" d="M97 338 c-4 -25 -24 -36 -24 -13 0 8 4
15 9 15 5 0 6 5 3 10 -3 6 -1 10 4 10 6 0 9 -10 8 -22z"/>
<path fill="#ffffff" stroke="none" d="M140 281 c0 -16 -14 -20 -28 -8 -13 10
-15 9 -8 -3 4 -8 0 -6 -8 4 -12 15 -13 22 -4 27 13 8 48 -6 48 -20z"/>
<path fill="#ffffff" stroke="none" d="M115 250 c-4 -7 3 -8 21 -4 18 5 25 3
21 -3 -4 -6 -1 -26 7 -44 7 -19 16 -52 19 -74 6 -39 6 -39 -8 -15 -8 14 -14
33 -15 42 0 9 -5 28 -11 42 l-12 24 -22 -21 c-23 -22 -42 -117 -24 -117 5 0 9
-12 9 -27 0 -22 -2 -25 -10 -13 -8 13 -10 12 -10 -2 0 -10 -7 -18 -15 -18 -17
0 -20 17 -5 22 6 2 12 40 14 85 1 48 8 88 16 97 7 9 9 16 4 16 -5 0 -2 5 6 10
19 13 23 12 15 0z"/>
<path fill="#ffffff" stroke="none" d="M47 211 c-2 -31 -17 -32 -17 -2 0 16 8
31 16 31 2 0 2 -13 1 -29z"/>
<path fill="#ffffff" stroke="none" d="M277 126 c-7 -18 -34 -21 -57 -6 -11 7
-6 8 18 4 25 -5 32 -3 32 10 0 9 -7 16 -16 16 -8 0 -12 5 -8 11 10 16 38 -16
31 -35z"/>
<path fill="#ffffff" stroke="none" d="M203 37 c4 3 7 -1 7 -10 0 -22 -26 -22
-34 -1 -10 27 -6 40 8 22 7 -10 16 -15 19 -11z"/>
</g>
</svg>
