<?xml version="1.0" standalone="no"?>
<!DOCTYPE svg PUBLIC "-//W3C//DTD SVG 20010904//EN"
 "http://www.w3.org/TR/2001/REC-SVG-20010904/DTD/svg10.dtd">
<svg version="1.0" xmlns="http://www.w3.org/2000/svg"
 width="32.000000pt" height="48.000000pt" viewBox="0 0 32.000000 48.000000"
 preserveAspectRatio="xMidYMid meet">
<metadata>
Created by potrace 1.16, written by Peter Selinger 2001-2019
</metadata>
<g transform="translate(0.000000,48.000000) scale(0.100000,-0.100000)"
fill="#000000" stroke="none">
<path fill="#000000" stroke="none" d="M0 240 l0 -240 160 0 160 0 0 240 0
240 -160 0 -160 0 0 -240z"/>
<path fill="#ffffff" stroke="none" d="M160 375 c14 -8 35 -19 48 -24 26 -12
28 -24 7 -41 -8 -7 -12 -17 -9 -22 3 -5 -4 -21 -17 -34 -19 -20 -21 -27 -10
-34 8 -4 11 -15 8 -24 -4 -10 -1 -19 8 -22 8 -4 15 -12 15 -19 0 -7 16 -23 35
-35 19 -12 35 -26 35 -31 0 -5 -16 -19 -35 -30 -19 -12 -35 -26 -35 -31 0 -6
-6 -5 -15 2 -13 11 -15 10 -10 -6 4 -12 0 -9 -9 6 -13 22 -15 22 -16 6 0 -20
0 -20 -15 0 -15 19 -15 19 -30 0 -9 -12 -15 -15 -15 -7 0 8 -6 11 -15 7 -9 -3
-15 0 -15 10 0 8 -4 13 -9 10 -5 -4 -7 4 -3 16 4 16 2 19 -8 13 -9 -5 -11 -4
-6 4 4 6 1 23 -8 36 -9 13 -12 26 -7 29 13 9 10 96 -3 89 -6 -4 -3 3 6 14 10
11 18 26 18 34 0 8 9 33 20 57 21 46 44 54 90 27z"/>
</g>
</svg>
