<?xml version="1.0" standalone="no"?>
<!DOCTYPE svg PUBLIC "-//W3C//DTD SVG 20010904//EN"
 "http://www.w3.org/TR/2001/REC-SVG-20010904/DTD/svg10.dtd">
<svg version="1.0" xmlns="http://www.w3.org/2000/svg"
 width="32.000000pt" height="48.000000pt" viewBox="0 0 32.000000 48.000000"
 preserveAspectRatio="xMidYMid meet">
<metadata>
Created by potrace 1.16, written by Peter Selinger 2001-2019
</metadata>
<g transform="translate(0.000000,48.000000) scale(0.100000,-0.100000)"
fill="#000000" stroke="none">
<path fill="#000000" stroke="none" d="M87 463 c-2 -5 2 -19 9 -33 10 -18 14
-20 14 -8 0 9 -5 20 -10 23 -6 4 -8 11 -5 16 4 5 4 9 1 9 -3 0 -7 -3 -9 -7z"/>
<path fill="#000000" stroke="none" d="M135 450 c-10 -11 -16 -22 -14 -24 2
-2 12 7 22 20 22 29 17 32 -8 4z"/>
<path fill="#000000" stroke="none" d="M40 453 c0 -6 8 -17 18 -24 16 -13 16
-13 2 6 -8 11 -16 22 -17 24 -2 2 -3 0 -3 -6z"/>
<path fill="#000000" stroke="none" d="M165 438 l-20 -21 23 12 c12 6 22 16
22 21 0 13 -2 12 -25 -12z"/>
<path fill="#000000" stroke="none" d="M155 410 c-15 -6 -11 -8 16 -7 21 1 35
5 32 10 -5 9 -22 8 -48 -3z"/>
<path fill="#000000" stroke="none" d="M158 382 c7 -5 10 -17 7 -28 -6 -17 -6
-18 5 -1 12 19 6 37 -13 37 -9 0 -8 -3 1 -8z"/>
</g>
</svg>
