<?xml version="1.0" standalone="no"?>
<!DOCTYPE svg PUBLIC "-//W3C//DTD SVG 20010904//EN"
 "http://www.w3.org/TR/2001/REC-SVG-20010904/DTD/svg10.dtd">
<svg version="1.0" xmlns="http://www.w3.org/2000/svg"
 width="32.000000pt" height="48.000000pt" viewBox="0 0 32.000000 48.000000"
 preserveAspectRatio="xMidYMid meet">
<metadata>
Created by potrace 1.16, written by Peter Selinger 2001-2019
</metadata>
<g transform="translate(0.000000,48.000000) scale(0.100000,-0.100000)"
fill="#000000" stroke="none">
<path fill="#000000" stroke="none" d="M148 348 c-19 -19 -10 -26 9 -7 13 13
29 -12 36 -56 2 -17 7 -38 12 -48 5 -12 1 -24 -11 -38 -17 -19 -17 -20 0 -13
15 6 17 3 12 -17 l-7 -24 14 24 c11 18 16 21 19 10 3 -8 3 -5 1 6 -5 26 -8 36
-17 57 -4 9 -9 22 -10 30 -19 98 -28 108 -58 76z"/>
<path fill="#000000" stroke="none" d="M59 334 c-11 -29 -16 -50 -24 -101 -2
-16 -7 -39 -11 -53 -6 -25 -6 -25 10 -5 10 11 14 14 10 6 -5 -9 -3 -12 4 -7 7
4 10 26 8 54 -2 26 1 64 8 86 l11 38 19 -21 c19 -21 19 -21 0 -22 -18 0 -18
-1 1 -9 11 -4 31 -6 45 -4 22 4 23 3 5 -5 -11 -5 -29 -8 -40 -7 -11 2 -14 1
-7 -1 7 -3 10 -8 8 -11 -2 -4 10 -8 27 -9 24 -1 27 1 13 6 -19 7 -19 8 0 13
12 3 21 12 21 20 0 10 -7 14 -20 10 -11 -3 -25 1 -31 9 -6 8 -19 20 -28 28
-16 12 -19 10 -29 -15z"/>
<path fill="#000000" stroke="none" d="M85 219 c-4 -6 -5 -13 -2 -15 3 -3 -1
-20 -8 -37 -7 -17 -10 -48 -7 -69 4 -31 0 -44 -19 -66 -13 -14 -17 -21 -7 -14
13 10 17 10 21 0 4 -10 6 -10 6 1 1 10 4 11 14 3 10 -9 12 0 11 41 0 29 -4 61
-8 73 -6 16 -2 25 16 36 22 15 26 14 47 -1 24 -18 25 -28 17 -110 -6 -50 -5
-53 9 -35 9 10 14 13 13 5 -2 -7 5 -15 14 -16 17 -3 17 -2 0 20 -9 13 -20 21
-23 19 -4 -2 -3 15 2 38 6 26 6 52 0 70 -6 16 -8 35 -5 43 8 19 -22 31 -40 16
-10 -8 -16 -9 -21 -1 -8 13 -22 13 -30 -1z"/>
<path fill="#ffffff" stroke="none" d="M87 63 c-3 -10 -5 -2 -5 17 0 19 2 27
5 18 2 -10 2 -26 0 -35z"/>
</g>
</svg>
