<?xml version="1.0" standalone="no"?>
<!DOCTYPE svg PUBLIC "-//W3C//DTD SVG 20010904//EN"
 "http://www.w3.org/TR/2001/REC-SVG-20010904/DTD/svg10.dtd">
<svg version="1.0" xmlns="http://www.w3.org/2000/svg"
 width="32.000000pt" height="48.000000pt" viewBox="0 0 32.000000 48.000000"
 preserveAspectRatio="xMidYMid meet">
<metadata>
Created by potrace 1.16, written by Peter Selinger 2001-2019
</metadata>
<g transform="translate(0.000000,48.000000) scale(0.100000,-0.100000)"
fill="#000000" stroke="none">
<path fill="#000000" stroke="none" d="M0 240 l0 -240 160 0 160 0 0 240 0
240 -160 0 -160 0 0 -240z"/>
<path fill="#ffffff" stroke="none" d="M133 438 c7 2 23 6 37 9 24 4 24 4 5
-11 -18 -13 -19 -15 -3 -21 10 -4 15 -11 12 -16 -3 -5 0 -9 7 -9 8 0 8 -4 -1
-15 -10 -11 -16 -12 -26 -4 -10 8 -18 7 -30 -6 -16 -15 -18 -15 -26 -1 -12 21
-34 20 -48 -1 -11 -17 -11 -17 -6 -1 3 10 -2 22 -12 27 -15 9 -15 11 3 12 11
1 27 0 35 -1 10 -1 9 3 -5 13 -11 9 -24 13 -30 9 -5 -3 -4 2 4 11 7 9 10 17 6
17 -5 0 -5 3 -2 7 4 3 16 -2 27 -12 19 -17 19 -17 15 6 -4 24 -4 24 11 4 9
-11 21 -18 27 -17z"/>
<path fill="#ffffff" stroke="none" d="M159 467 c-2 -1 -13 -9 -24 -17 -19
-14 -19 -14 -6 3 7 9 18 17 24 17 6 0 8 -1 6 -3z"/>
</g>
</svg>
