<?xml version="1.0" standalone="no"?>
<!DOCTYPE svg PUBLIC "-//W3C//DTD SVG 20010904//EN"
 "http://www.w3.org/TR/2001/REC-SVG-20010904/DTD/svg10.dtd">
<svg version="1.0" xmlns="http://www.w3.org/2000/svg"
 width="32.000000pt" height="48.000000pt" viewBox="0 0 32.000000 48.000000"
 preserveAspectRatio="xMidYMid meet">
<metadata>
Created by potrace 1.16, written by Peter Selinger 2001-2019
</metadata>
<g transform="translate(0.000000,48.000000) scale(0.100000,-0.100000)"
fill="#000000" stroke="none">
<path fill="#000000" stroke="none" d="M0 240 l0 -240 160 0 160 0 0 240 0
240 -160 0 -160 0 0 -240z"/>
<path fill="#ffffff" stroke="none" d="M202 322 c5 -17 13 -32 18 -32 16 0 22
-64 8 -104 -14 -41 -50 -62 -40 -23 3 14 1 18 -6 13 -16 -10 -15 9 1 22 21 18
13 89 -13 117 -12 13 -19 29 -15 35 13 20 39 5 47 -28z"/>
<path fill="#ffffff" stroke="none" d="M70 325 c-7 -9 -15 -13 -19 -10 -3 3 1
10 9 15 21 14 24 12 10 -5z"/>
<path fill="#ffffff" stroke="none" d="M128 323 c-2 -10 -10 -18 -18 -18 -8 0
-16 8 -18 18 -2 12 3 17 18 17 15 0 20 -5 18 -17z"/>
<path fill="#ffffff" stroke="none" d="M77 263 c-4 -3 2 -12 13 -20 19 -14 19
-15 3 -38 -21 -28 -32 -30 -57 -12 -15 11 -16 17 -5 39 6 15 19 29 28 31 9 3
18 5 20 6 2 0 1 -2 -2 -6z"/>
<path fill="#ffffff" stroke="none" d="M296 173 c-5 -12 -10 -13 -18 -5 -8 8
-8 15 3 28 15 18 25 4 15 -23z"/>
<path fill="#ffffff" stroke="none" d="M169 113 c-8 -9 -16 -10 -22 -4 -13 13
0 31 19 24 11 -4 12 -8 3 -20z"/>
<path fill="#ffffff" stroke="none" d="M80 124 c0 -8 -19 -13 -24 -6 -3 5 1 9
9 9 8 0 15 -2 15 -3z"/>
<path fill="#ffffff" stroke="none" d="M210 53 c0 -15 -3 -23 -7 -20 -3 4 -15
-1 -26 -10 -13 -11 -17 -12 -12 -4 6 11 4 13 -10 7 -18 -7 -18 -6 -1 13 10 11
15 24 12 30 -6 10 23 21 37 14 4 -2 7 -16 7 -30z"/>
<path fill="#ffffff" stroke="none" d="M95 69 c3 -3 -6 -16 -20 -29 -15 -14
-25 -18 -25 -11 0 11 -3 11 -17 0 -12 -10 -10 -4 5 18 20 28 42 36 57 22z"/>
</g>
</svg>
