<?xml version="1.0" standalone="no"?>
<!DOCTYPE svg PUBLIC "-//W3C//DTD SVG 20010904//EN"
 "http://www.w3.org/TR/2001/REC-SVG-20010904/DTD/svg10.dtd">
<svg version="1.0" xmlns="http://www.w3.org/2000/svg"
 width="32.000000pt" height="48.000000pt" viewBox="0 0 32.000000 48.000000"
 preserveAspectRatio="xMidYMid meet">
<metadata>
Created by potrace 1.16, written by Peter Selinger 2001-2019
</metadata>
<g transform="translate(0.000000,48.000000) scale(0.100000,-0.100000)"
fill="#000000" stroke="none">
<path fill="#000000" stroke="none" d="M10 398 c0 -21 13 -34 47 -52 47 -24
48 -34 8 -57 -24 -15 -33 -25 -26 -32 12 -12 55 14 71 43 13 25 45 26 62 1 15
-21 69 -51 93 -51 28 0 16 19 -25 40 -47 24 -45 34 8 50 38 13 62 34 62 57 0
22 -34 15 -105 -21 l-67 -34 -57 34 c-61 37 -71 40 -71 22z"/>
</g>
</svg>
