<?xml version="1.0" standalone="no"?>
<!DOCTYPE svg PUBLIC "-//W3C//DTD SVG 20010904//EN"
 "http://www.w3.org/TR/2001/REC-SVG-20010904/DTD/svg10.dtd">
<svg version="1.0" xmlns="http://www.w3.org/2000/svg"
 width="32.000000pt" height="48.000000pt" viewBox="0 0 32.000000 48.000000"
 preserveAspectRatio="xMidYMid meet">
<metadata>
Created by potrace 1.16, written by Peter Selinger 2001-2019
</metadata>
<g transform="translate(0.000000,48.000000) scale(0.100000,-0.100000)"
fill="#000000" stroke="none">
<path fill="#000000" stroke="none" d="M0 240 l0 -240 160 0 160 0 0 240 0
240 -160 0 -160 0 0 -240z"/>
<path fill="#ffffff" stroke="none" d="M170 450 c35 -35 18 -70 -38 -75 -16
-1 -34 -5 -40 -9 -7 -4 -12 -3 -12 3 0 5 8 15 18 20 9 6 12 11 7 11 -15 0 -35
-21 -35 -37 0 -8 8 -13 18 -11 12 2 18 -5 20 -22 2 -14 8 -30 13 -36 6 -7 2
-24 -8 -45 l-17 -34 -7 25 c-4 14 -7 20 -8 14 -1 -5 -8 -19 -16 -30 -15 -19
-15 -19 -8 0 5 15 3 18 -9 13 -28 -10 -28 21 -1 53 l26 31 -22 29 c-28 38 -27
65 4 95 31 32 86 34 115 5z"/>
</g>
</svg>
