<?xml version="1.0" standalone="no"?>
<!DOCTYPE svg PUBLIC "-//W3C//DTD SVG 20010904//EN"
 "http://www.w3.org/TR/2001/REC-SVG-20010904/DTD/svg10.dtd">
<svg version="1.0" xmlns="http://www.w3.org/2000/svg"
 width="32.000000pt" height="48.000000pt" viewBox="0 0 32.000000 48.000000"
 preserveAspectRatio="xMidYMid meet">
<metadata>
Created by potrace 1.16, written by Peter Selinger 2001-2019
</metadata>
<g transform="translate(0.000000,48.000000) scale(0.100000,-0.100000)"
fill="#000000" stroke="none">
<path fill="#000000" stroke="none" d="M79 448 c-1 -2 -3 -13 -4 -25 -2 -15 2
-20 12 -16 11 4 12 8 3 13 -7 4 -9 13 -6 19 4 6 5 11 2 11 -3 0 -7 -1 -7 -2z"/>
<path fill="#000000" stroke="none" d="M20 424 c0 -28 17 -51 29 -39 6 7 3 18
-10 34 -17 20 -19 21 -19 5z"/>
</g>
</svg>
