<?xml version="1.0" standalone="no"?>
<!DOCTYPE svg PUBLIC "-//W3C//DTD SVG 20010904//EN"
 "http://www.w3.org/TR/2001/REC-SVG-20010904/DTD/svg10.dtd">
<svg version="1.0" xmlns="http://www.w3.org/2000/svg"
 width="32.000000pt" height="48.000000pt" viewBox="0 0 32.000000 48.000000"
 preserveAspectRatio="xMidYMid meet">
<metadata>
Created by potrace 1.16, written by Peter Selinger 2001-2019
</metadata>
<g transform="translate(0.000000,48.000000) scale(0.100000,-0.100000)"
fill="#000000" stroke="none">
<path fill="#000000" stroke="none" d="M35 430 c3 -5 14 -10 23 -10 15 0 15 2
2 10 -20 13 -33 13 -25 0z"/>
<path fill="#000000" stroke="none" d="M79 409 c-10 -15 -19 -33 -19 -41 0
-10 3 -9 10 2 7 11 10 11 10 2 0 -7 5 -10 10 -7 6 4 8 11 5 16 -3 5 1 6 10 3
21 -8 45 14 38 34 -5 14 -3 15 8 5 7 -7 18 -13 24 -13 6 0 19 6 28 13 15 10 8
12 -44 12 -55 0 -63 -3 -80 -26z"/>
<path fill="#ffffff" stroke="none" d="M130 410 c0 -5 -7 -10 -16 -10 -8 0
-12 5 -9 10 3 6 10 10 16 10 5 0 9 -4 9 -10z"/>
</g>
</svg>
