<?xml version="1.0" standalone="no"?>
<!DOCTYPE svg PUBLIC "-//W3C//DTD SVG 20010904//EN"
 "http://www.w3.org/TR/2001/REC-SVG-20010904/DTD/svg10.dtd">
<svg version="1.0" xmlns="http://www.w3.org/2000/svg"
 width="32.000000pt" height="48.000000pt" viewBox="0 0 32.000000 48.000000"
 preserveAspectRatio="xMidYMid meet">
<metadata>
Created by potrace 1.16, written by Peter Selinger 2001-2019
</metadata>
<g transform="translate(0.000000,48.000000) scale(0.100000,-0.100000)"
fill="#000000" stroke="none">
<path fill="#000000" stroke="none" d="M110 369 c-8 -5 -28 -14 -43 -19 -24
-8 -28 -15 -25 -39 1 -16 -2 -35 -8 -42 -6 -8 -14 -30 -18 -50 -5 -29 -2 -39
14 -54 14 -13 19 -26 16 -41 -4 -13 -1 -24 7 -27 9 -3 8 -12 -5 -36 -16 -29
-16 -32 -1 -38 28 -11 48 11 51 58 2 31 -1 47 -13 55 -14 10 -13 12 5 17 39
10 87 -86 59 -119 -11 -14 -8 -15 22 -12 52 5 53 58 3 117 -14 17 -24 31 -22
32 35 8 40 6 35 -11 -3 -12 0 -17 12 -16 33 5 57 141 26 152 -8 4 -15 17 -15
31 0 18 -9 28 -35 39 -39 16 -44 16 -65 3z"/>
<path fill="#ffffff" stroke="none" d="M190 238 c0 -35 -1 -36 -24 -25 -17 8
-22 16 -16 27 4 8 6 24 4 34 -4 30 6 39 22 19 7 -10 14 -34 14 -55z"/>
<path fill="#000000" stroke="none" d="M265 189 c-4 -11 -4 -23 -1 -26 11 -11
-15 -45 -30 -39 -9 3 -12 1 -9 -4 3 -6 14 -10 24 -10 20 0 57 71 47 89 -11 17
-24 13 -31 -10z"/>
</g>
</svg>
