<?xml version="1.0" standalone="no"?>
<!DOCTYPE svg PUBLIC "-//W3C//DTD SVG 20010904//EN"
 "http://www.w3.org/TR/2001/REC-SVG-20010904/DTD/svg10.dtd">
<svg version="1.0" xmlns="http://www.w3.org/2000/svg"
 width="32.000000pt" height="48.000000pt" viewBox="0 0 32.000000 48.000000"
 preserveAspectRatio="xMidYMid meet">
<metadata>
Created by potrace 1.16, written by Peter Selinger 2001-2019
</metadata>
<g transform="translate(0.000000,48.000000) scale(0.100000,-0.100000)"
fill="#000000" stroke="none">
<path fill="#000000" stroke="none" d="M63 444 c-3 -8 -1 -20 6 -27 6 -6 11
-25 12 -41 0 -27 2 -28 9 -11 7 17 9 17 9 3 1 -10 5 -18 9 -18 11 0 42 34 42
45 0 5 8 17 17 27 13 15 14 21 4 31 -10 9 -12 9 -9 -2 2 -10 -9 -14 -45 -15
-35 -1 -46 2 -43 11 3 7 3 13 0 13 -2 0 -7 -7 -11 -16z"/>
</g>
</svg>
