<?xml version="1.0" standalone="no"?>
<!DOCTYPE svg PUBLIC "-//W3C//DTD SVG 20010904//EN"
 "http://www.w3.org/TR/2001/REC-SVG-20010904/DTD/svg10.dtd">
<svg version="1.0" xmlns="http://www.w3.org/2000/svg"
 width="32.000000pt" height="48.000000pt" viewBox="0 0 32.000000 48.000000"
 preserveAspectRatio="xMidYMid meet">
<metadata>
Created by potrace 1.16, written by Peter Selinger 2001-2019
</metadata>
<g transform="translate(0.000000,48.000000) scale(0.100000,-0.100000)"
fill="#000000" stroke="none">
<path fill="#000000" stroke="none" d="M0 240 l0 -240 160 0 160 0 0 240 0
240 -160 0 -160 0 0 -240z"/>
<path fill="#ffffff" stroke="none" d="M91 413 c25 -15 29 -23 29 -61 0 -24
-4 -41 -9 -37 -6 3 -14 -3 -20 -12 -5 -10 -13 -17 -18 -16 -4 2 -8 -5 -8 -15
-1 -9 -4 -23 -9 -30 -4 -7 -5 -20 -2 -28 3 -8 2 -13 -3 -9 -23 13 -43 96 -39
153 5 66 40 138 46 95 2 -13 17 -30 33 -40z"/>
<path fill="#ffffff" stroke="none" d="M291 395 c30 -65 20 -173 -19 -208 -16
-15 -17 -14 -17 11 0 15 -4 28 -10 29 -5 1 -12 12 -15 25 -3 13 -12 23 -20 23
-8 0 -18 9 -21 20 -3 11 -11 19 -17 17 -8 -1 -12 13 -12 41 0 33 5 45 23 57
12 8 25 13 29 12 5 -1 13 7 20 18 16 25 34 11 59 -45z"/>
<path fill="#000000" stroke="none" d="M36 395 c-3 -9 -5 -35 -5 -58 2 -40 2
-39 9 13 7 59 6 71 -4 45z"/>
<path fill="#000000" stroke="none" d="M90 364 c0 -8 5 -12 10 -9 6 4 8 11 5
16 -9 14 -15 11 -15 -7z"/>
<path fill="#000000" stroke="none" d="M240 413 c0 -5 7 -18 15 -29 12 -16 14
-16 15 -3 0 9 -7 22 -15 29 -8 7 -15 8 -15 3z"/>
<path fill="#000000" stroke="none" d="M210 381 c0 -5 5 -13 10 -16 6 -3 10
-2 10 4 0 5 -4 13 -10 16 -5 3 -10 2 -10 -4z"/>
</g>
</svg>
