<?xml version="1.0" standalone="no"?>
<!DOCTYPE svg PUBLIC "-//W3C//DTD SVG 20010904//EN"
 "http://www.w3.org/TR/2001/REC-SVG-20010904/DTD/svg10.dtd">
<svg version="1.0" xmlns="http://www.w3.org/2000/svg"
 width="32.000000pt" height="48.000000pt" viewBox="0 0 32.000000 48.000000"
 preserveAspectRatio="xMidYMid meet">
<metadata>
Created by potrace 1.16, written by Peter Selinger 2001-2019
</metadata>
<g transform="translate(0.000000,48.000000) scale(0.100000,-0.100000)"
fill="#000000" stroke="none">
<path fill="#000000" stroke="none" d="M0 240 l0 -240 160 0 160 0 0 240 0
240 -160 0 -160 0 0 -240z"/>
<path fill="#ffffff" stroke="none" d="M158 369 c30 -10 31 -13 48 -97 1 -8 6
-21 10 -30 9 -21 12 -31 17 -57 2 -11 2 -14 -1 -6 -3 11 -8 8 -19 -10 l-14
-24 7 24 c5 20 3 23 -12 17 -17 -7 -17 -6 0 13 12 14 16 26 11 38 -5 10 -10
32 -12 48 -5 35 -27 63 -37 46 -4 -6 0 -11 8 -11 22 0 20 -22 -4 -48 -25 -27
-25 -38 -1 -45 12 -3 19 -14 20 -28 4 -126 7 -148 23 -166 17 -18 16 -19 -12
-18 l-30 0 5 72 c3 66 2 73 -19 86 -20 13 -25 13 -46 -3 -21 -16 -22 -21 -12
-46 16 -39 12 -116 -5 -102 -9 7 -13 7 -14 -3 0 -11 -2 -11 -6 -1 -4 10 -8 10
-21 0 -10 -7 -6 0 7 14 19 22 23 35 19 66 -3 21 0 52 7 68 6 16 10 35 7 42 -2
7 5 16 17 19 23 6 29 33 8 33 -18 0 -41 45 -32 62 6 10 5 11 -5 1 -9 -8 -14
-37 -14 -77 -1 -35 -5 -68 -10 -73 -5 -5 -6 -2 -2 7 4 8 0 6 -10 -5 -16 -20
-16 -20 -10 5 4 14 9 37 11 53 13 84 22 107 49 129 25 21 33 21 74 7z"/>
</g>
</svg>
