<?xml version="1.0" standalone="no"?>
<!DOCTYPE svg PUBLIC "-//W3C//DTD SVG 20010904//EN"
 "http://www.w3.org/TR/2001/REC-SVG-20010904/DTD/svg10.dtd">
<svg version="1.0" xmlns="http://www.w3.org/2000/svg"
 width="32.000000pt" height="48.000000pt" viewBox="0 0 32.000000 48.000000"
 preserveAspectRatio="xMidYMid meet">
<metadata>
Created by potrace 1.16, written by Peter Selinger 2001-2019
</metadata>
<g transform="translate(0.000000,48.000000) scale(0.100000,-0.100000)"
fill="#000000" stroke="none">
<path fill="#000000" stroke="none" d="M0 240 l0 -240 160 0 160 0 0 240 0
240 -160 0 -160 0 0 -240z"/>
<path fill="#ffffff" stroke="none" d="M107 402 c6 -45 25 -59 67 -48 18 4 25
15 29 46 6 46 22 70 46 69 11 0 12 -2 3 -6 -9 -3 -4 -11 16 -23 26 -16 31 -26
37 -80 4 -34 4 -64 1 -67 -3 -4 -6 7 -6 23 0 16 -3 40 -7 53 -6 23 -7 24 -15
5 -6 -15 -7 -13 -3 7 3 19 0 29 -11 33 -9 3 -12 11 -8 18 5 9 4 10 -3 3 -6 -5
-16 -26 -22 -45 -9 -30 -18 -38 -53 -47 -33 -9 -44 -8 -55 3 -8 8 -18 14 -23
14 -9 0 -25 49 -21 65 2 6 -1 7 -5 2 -4 -4 -9 -15 -11 -25 -1 -9 -7 -30 -13
-47 -8 -26 -9 -24 -4 15 4 25 11 54 17 65 6 11 10 25 8 30 -1 6 5 3 14 -6 9
-9 19 -35 22 -57z"/>
<path fill="#000000" stroke="none" d="M215 410 c-4 -17 -5 -34 -2 -36 3 -3 8
9 12 26 4 17 5 34 2 36 -3 3 -8 -9 -12 -26z"/>
<path fill="#000000" stroke="none" d="M91 404 c0 -11 3 -14 6 -6 3 7 2 16 -1
19 -3 4 -6 -2 -5 -13z"/>
</g>
</svg>
