<?xml version="1.0" standalone="no"?>
<!DOCTYPE svg PUBLIC "-//W3C//DTD SVG 20010904//EN"
 "http://www.w3.org/TR/2001/REC-SVG-20010904/DTD/svg10.dtd">
<svg version="1.0" xmlns="http://www.w3.org/2000/svg"
 width="32.000000pt" height="48.000000pt" viewBox="0 0 32.000000 48.000000"
 preserveAspectRatio="xMidYMid meet">
<metadata>
Created by potrace 1.16, written by Peter Selinger 2001-2019
</metadata>
<g transform="translate(0.000000,48.000000) scale(0.100000,-0.100000)"
fill="#000000" stroke="none">
<path fill="#000000" stroke="none" d="M0 240 l0 -240 160 0 160 0 0 240 0
240 -160 0 -160 0 0 -240z"/>
<path fill="#ffffff" stroke="none" d="M138 447 c14 5 15 -12 2 -42 -5 -12 -9
-14 -9 -6 -1 8 -4 11 -8 8 -3 -4 0 -18 7 -32 23 -43 -20 -119 -51 -88 -8 8 -6
11 7 10 27 -3 29 34 5 74 -24 40 -25 45 -8 47 26 2 47 8 54 17 4 4 3 5 -4 2
-6 -4 -18 -1 -26 7 -8 8 -18 12 -22 8 -5 -4 -5 -1 -1 6 7 11 11 11 24 -1 10
-8 23 -12 30 -10z"/>
<path fill="#ffffff" stroke="none" d="M183 450 c4 0 5 6 1 13 -6 9 -4 9 7 0
7 -7 18 -28 23 -45 13 -38 41 -45 40 -10 0 14 3 19 9 13 13 -13 5 -42 -16 -55
-23 -15 -49 2 -62 41 -6 16 -17 39 -25 49 -11 15 -11 16 0 7 8 -7 18 -13 23
-13z"/>
<path fill="#ffffff" stroke="none" d="M67 417 c2 -18 4 -43 5 -56 2 -14 -3
-26 -12 -28 -12 -4 -12 -2 -2 5 9 6 11 18 6 36 -9 38 -24 14 -24 -40 0 -22 -6
-48 -12 -57 -11 -14 -13 -5 -15 57 -3 62 0 78 18 100 25 31 32 28 36 -17z"/>
<path fill="#ffffff" stroke="none" d="M180 346 c-8 -8 -10 -7 -5 5 3 9 -1 22
-9 29 -9 7 -13 17 -9 23 3 5 12 -3 20 -18 11 -20 12 -30 3 -39z"/>
<path fill="#000000" stroke="none" d="M45 440 c-3 -5 -1 -10 4 -10 6 0 11 5
11 10 0 6 -2 10 -4 10 -3 0 -8 -4 -11 -10z"/>
</g>
</svg>
