<?xml version="1.0" standalone="no"?>
<!DOCTYPE svg PUBLIC "-//W3C//DTD SVG 20010904//EN"
 "http://www.w3.org/TR/2001/REC-SVG-20010904/DTD/svg10.dtd">
<svg version="1.0" xmlns="http://www.w3.org/2000/svg"
 width="32.000000pt" height="48.000000pt" viewBox="0 0 32.000000 48.000000"
 preserveAspectRatio="xMidYMid meet">
<metadata>
Created by potrace 1.16, written by Peter Selinger 2001-2019
</metadata>
<g transform="translate(0.000000,48.000000) scale(0.100000,-0.100000)"
fill="#000000" stroke="none">
<path fill="#000000" stroke="none" d="M167 353 c-3 -5 3 -19 12 -32 l18 -24
-1 28 c-1 28 -19 44 -29 28z"/>
<path fill="#000000" stroke="none" d="M101 331 c-10 -7 -10 -10 -1 -16 6 -4
16 -3 22 3 13 13 -4 23 -21 13z"/>
<path fill="#000000" stroke="none" d="M201 276 c-8 -9 -11 -26 -7 -40 4 -15
0 -28 -9 -36 -18 -15 -20 -34 -3 -24 7 5 9 1 6 -13 -4 -15 -1 -20 11 -19 9 2
22 21 30 45 12 37 12 48 -1 73 -12 27 -15 28 -27 14z"/>
<path fill="#000000" stroke="none" d="M40 230 c-8 -14 -8 -20 0 -20 6 0 8 -5
4 -11 -5 -8 -1 -8 14 0 31 17 35 29 13 41 -16 8 -22 6 -31 -10z"/>
<path fill="#000000" stroke="none" d="M281 196 c-11 -13 -11 -20 -3 -28 8 -8
13 -7 18 5 10 27 0 41 -15 23z"/>
<path fill="#000000" stroke="none" d="M146 118 c3 -5 10 -6 15 -3 13 9 11 12
-6 12 -8 0 -12 -4 -9 -9z"/>
<path fill="#000000" stroke="none" d="M177 82 c-9 -2 -14 -8 -11 -13 3 -6 -2
-19 -12 -30 -17 -19 -17 -20 1 -13 14 6 16 4 10 -7 -5 -8 -1 -7 12 4 11 9 23
14 26 10 4 -3 7 5 7 20 0 29 -7 35 -33 29z"/>
<path fill="#000000" stroke="none" d="M38 47 c-15 -22 -17 -28 -5 -18 14 11
17 11 17 0 0 -7 10 -3 25 11 14 13 23 26 20 29 -15 14 -37 6 -57 -22z"/>
</g>
</svg>
