<?xml version="1.0" standalone="no"?>
<!DOCTYPE svg PUBLIC "-//W3C//DTD SVG 20010904//EN"
 "http://www.w3.org/TR/2001/REC-SVG-20010904/DTD/svg10.dtd">
<svg version="1.0" xmlns="http://www.w3.org/2000/svg"
 width="32.000000pt" height="48.000000pt" viewBox="0 0 32.000000 48.000000"
 preserveAspectRatio="xMidYMid meet">
<metadata>
Created by potrace 1.16, written by Peter Selinger 2001-2019
</metadata>
<g transform="translate(0.000000,48.000000) scale(0.100000,-0.100000)"
fill="#000000" stroke="none">
<path fill="#000000" stroke="none" d="M35 446 c-27 -40 -32 -134 -10 -191 9
-25 21 -47 26 -50 5 -4 6 1 3 9 -3 8 -2 21 2 28 5 7 8 21 9 30 0 10 4 17 8 15
5 -1 13 6 18 16 6 9 14 15 20 12 5 -4 9 13 9 37 0 38 -4 46 -29 61 -16 10 -31
27 -33 40 -3 21 -4 21 -23 -7z"/>
<path fill="#ffffff" stroke="none" d="M40 350 c-7 -52 -7 -53 -9 -13 -1 36 7
80 14 71 1 -2 -1 -28 -5 -58z"/>
<path fill="#ffffff" stroke="none" d="M105 371 c3 -5 1 -12 -5 -16 -5 -3 -10
1 -10 9 0 18 6 21 15 7z"/>
<path fill="#000000" stroke="none" d="M232 440 c-7 -11 -15 -19 -20 -18 -4 1
-17 -4 -29 -12 -18 -12 -23 -24 -23 -57 0 -28 4 -42 12 -41 6 2 14 -6 17 -17
3 -11 13 -20 21 -20 8 0 17 -10 20 -23 3 -13 10 -24 15 -25 6 -1 10 -14 10
-29 0 -25 1 -26 17 -11 39 35 49 143 19 208 -25 56 -43 70 -59 45z"/>
<path fill="#ffffff" stroke="none" d="M270 381 c-1 -13 -3 -13 -15 3 -19 26
-19 42 0 26 8 -7 15 -20 15 -29z"/>
<path fill="#ffffff" stroke="none" d="M230 369 c0 -6 -4 -7 -10 -4 -5 3 -10
11 -10 16 0 6 5 7 10 4 6 -3 10 -11 10 -16z"/>
</g>
</svg>
