<?xml version="1.0" standalone="no"?>
<!DOCTYPE svg PUBLIC "-//W3C//DTD SVG 20010904//EN"
 "http://www.w3.org/TR/2001/REC-SVG-20010904/DTD/svg10.dtd">
<svg version="1.0" xmlns="http://www.w3.org/2000/svg"
 width="32.000000pt" height="48.000000pt" viewBox="0 0 32.000000 48.000000"
 preserveAspectRatio="xMidYMid meet">
<metadata>
Created by potrace 1.16, written by Peter Selinger 2001-2019
</metadata>
<g transform="translate(0.000000,48.000000) scale(0.100000,-0.100000)"
fill="#000000" stroke="none">
<path fill="#000000" stroke="none" d="M202 339 c2 -7 10 -15 17 -17 8 -3 12
1 9 9 -2 7 -10 15 -17 17 -8 3 -12 -1 -9 -9z"/>
<path fill="#000000" stroke="none" d="M65 280 c-3 -6 1 -7 9 -4 18 7 21 14 7
14 -6 0 -13 -4 -16 -10z"/>
<path fill="#000000" stroke="none" d="M190 280 c0 -5 5 -10 10 -10 6 0 10 5
10 10 0 6 -4 10 -10 10 -5 0 -10 -4 -10 -10z"/>
<path fill="#000000" stroke="none" d="M86 254 c-6 -15 -4 -15 11 -3 10 7 20
15 22 16 2 2 -3 3 -11 3 -9 0 -19 -7 -22 -16z"/>
<path fill="#000000" stroke="none" d="M26 251 c-4 -5 3 -7 14 -4 23 6 26 13
6 13 -8 0 -17 -4 -20 -9z"/>
<path fill="#000000" stroke="none" d="M35 230 c-3 -6 1 -7 9 -4 18 7 21 14 7
14 -6 0 -13 -4 -16 -10z"/>
<path fill="#000000" stroke="none" d="M90 230 c-12 -8 -12 -10 -1 -10 11 0
11 -3 0 -17 -13 -15 -12 -15 8 -2 14 8 18 16 11 20 -7 4 -6 8 3 12 8 3 10 6 4
6 -5 0 -17 -4 -25 -9z"/>
<path fill="#000000" stroke="none" d="M175 210 c3 -5 8 -10 11 -10 2 0 4 5 4
10 0 6 -5 10 -11 10 -5 0 -7 -4 -4 -10z"/>
<path fill="#000000" stroke="none" d="M35 200 c-3 -6 1 -7 9 -4 18 7 21 14 7
14 -6 0 -13 -4 -16 -10z"/>
<path fill="#000000" stroke="none" d="M91 168 c-14 -23 -14 -23 8 -4 22 20
25 26 13 26 -4 0 -13 -10 -21 -22z"/>
<path fill="#000000" stroke="none" d="M29 153 c-13 -16 -12 -17 4 -4 16 13
21 21 13 21 -2 0 -10 -8 -17 -17z"/>
<path fill="#000000" stroke="none" d="M100 135 c-7 -9 -11 -17 -9 -20 3 -2
10 5 17 15 14 24 10 26 -8 5z"/>
<path fill="#000000" stroke="none" d="M45 120 c-3 -6 1 -7 9 -4 18 7 21 14 7
14 -6 0 -13 -4 -16 -10z"/>
<path fill="#000000" stroke="none" d="M119 118 c-1 -2 -3 -13 -4 -26 -2 -19
0 -20 14 -10 26 20 27 22 9 15 -20 -7 -25 9 -5 16 10 4 10 6 0 6 -7 1 -14 0
-14 -1z"/>
<path fill="#000000" stroke="none" d="M49 93 c-13 -17 -13 -17 6 -3 11 8 22
16 24 17 2 2 0 3 -6 3 -6 0 -17 -8 -24 -17z"/>
<path fill="#000000" stroke="none" d="M59 63 c-13 -17 -13 -17 6 -3 11 8 22
16 24 17 2 2 0 3 -6 3 -6 0 -17 -8 -24 -17z"/>
<path fill="#000000" stroke="none" d="M140 69 c0 -5 5 -7 10 -4 6 3 10 8 10
11 0 2 -4 4 -10 4 -5 0 -10 -5 -10 -11z"/>
<path fill="#000000" stroke="none" d="M75 49 c-11 -16 -1 -19 13 -3 7 8 8 14
3 14 -5 0 -13 -5 -16 -11z"/>
<path fill="#000000" stroke="none" d="M171 40 c14 -31 19 -36 19 -24 0 6 -7
19 -16 30 -14 18 -14 18 -3 -6z"/>
<path fill="#000000" stroke="none" d="M105 39 c-4 -6 -5 -12 -2 -15 2 -3 7 2
10 11 7 17 1 20 -8 4z"/>
<path fill="#000000" stroke="none" d="M146 37 c3 -10 9 -15 12 -12 3 3 0 11
-7 18 -10 9 -11 8 -5 -6z"/>
<path fill="#000000" stroke="none" d="M196 37 c3 -10 9 -15 12 -12 3 3 0 11
-7 18 -10 9 -11 8 -5 -6z"/>
</g>
</svg>
