<?xml version="1.0" standalone="no"?>
<!DOCTYPE svg PUBLIC "-//W3C//DTD SVG 20010904//EN"
 "http://www.w3.org/TR/2001/REC-SVG-20010904/DTD/svg10.dtd">
<svg version="1.0" xmlns="http://www.w3.org/2000/svg"
 width="32.000000pt" height="48.000000pt" viewBox="0 0 32.000000 48.000000"
 preserveAspectRatio="xMidYMid meet">
<metadata>
Created by potrace 1.16, written by Peter Selinger 2001-2019
</metadata>
<g transform="translate(0.000000,48.000000) scale(0.100000,-0.100000)"
fill="#000000" stroke="none">
<path fill="#000000" stroke="none" d="M0 240 l0 -240 160 0 160 0 0 240 0
240 -160 0 -160 0 0 -240z"/>
<path fill="#ffffff" stroke="none" d="M292 401 c8 11 9 11 6 1 -2 -8 -6 -12
-9 -10 -3 2 -13 -3 -23 -11 -9 -8 -19 -11 -23 -7 -3 3 -1 6 6 6 7 0 9 5 5 12
-4 7 -3 8 4 4 7 -4 12 -1 13 6 0 10 2 10 6 -1 5 -11 7 -11 15 0z"/>
</g>
</svg>
