<?xml version="1.0" standalone="no"?>
<!DOCTYPE svg PUBLIC "-//W3C//DTD SVG 20010904//EN"
 "http://www.w3.org/TR/2001/REC-SVG-20010904/DTD/svg10.dtd">
<svg version="1.0" xmlns="http://www.w3.org/2000/svg"
 width="32.000000pt" height="48.000000pt" viewBox="0 0 32.000000 48.000000"
 preserveAspectRatio="xMidYMid meet">
<metadata>
Created by potrace 1.16, written by Peter Selinger 2001-2019
</metadata>
<g transform="translate(0.000000,48.000000) scale(0.100000,-0.100000)"
fill="#000000" stroke="none">
<path fill="#000000" stroke="none" d="M0 240 l0 -240 160 0 160 0 0 240 0
240 -160 0 -160 0 0 -240z"/>
<path fill="#ffffff" stroke="none" d="M159 369 c17 -6 31 -15 31 -20 0 -12
47 -11 53 1 3 6 4 5 3 -2 -1 -7 -13 -15 -27 -19 l-24 -6 27 -11 c15 -6 36 -9
45 -6 15 5 16 4 3 -5 -8 -5 -26 -7 -40 -4 -23 6 -24 5 -10 -13 8 -10 22 -25
30 -32 13 -11 11 -11 -7 -2 -13 6 -23 16 -23 23 -1 24 -29 -39 -30 -66 0 -44
37 -105 81 -133 49 -31 47 -38 -6 -19 -47 16 -51 14 -35 -15 20 -38 2 -34 -40
7 l-40 41 0 -27 c0 -15 5 -32 12 -39 9 -9 8 -12 -5 -12 -10 0 -25 13 -34 28
l-16 28 -28 -28 c-15 -15 -35 -28 -45 -28 -15 0 -15 3 4 23 29 30 28 39 -3 31
-22 -5 -21 -2 15 34 44 43 48 64 25 119 -15 37 -16 37 -31 15 -8 -12 -21 -22
-27 -22 -7 0 -4 5 6 11 22 13 22 38 0 55 -17 12 -17 13 2 8 16 -4 23 2 30 27
6 20 22 40 40 50 17 10 30 18 31 18 1 1 15 -4 33 -10z"/>
</g>
</svg>
