<?xml version="1.0" standalone="no"?>
<!DOCTYPE svg PUBLIC "-//W3C//DTD SVG 20010904//EN"
 "http://www.w3.org/TR/2001/REC-SVG-20010904/DTD/svg10.dtd">
<svg version="1.0" xmlns="http://www.w3.org/2000/svg"
 width="32.000000pt" height="48.000000pt" viewBox="0 0 32.000000 48.000000"
 preserveAspectRatio="xMidYMid meet">
<metadata>
Created by potrace 1.16, written by Peter Selinger 2001-2019
</metadata>
<g transform="translate(0.000000,48.000000) scale(0.100000,-0.100000)"
fill="#000000" stroke="none">
<path fill="#000000" stroke="none" d="M240 353 c0 -14 -60 -23 -60 -9 0 6 -5
3 -11 -6 -11 -19 -2 -68 12 -68 6 0 5 8 -1 19 -16 31 -12 37 22 39 34 3 56 17
45 29 -4 3 -7 2 -7 -4z"/>
<path fill="#000000" stroke="none" d="M78 324 c-3 -3 -4 -22 -2 -42 l4 -37
-15 30 c-22 47 -17 17 11 -60 14 -38 22 -54 18 -35 -9 44 -9 67 -1 107 6 29
-3 50 -15 37z"/>
<path fill="#000000" stroke="none" d="M200 315 c0 -14 53 -24 68 -14 16 10
15 10 -1 5 -9 -3 -28 -1 -42 4 -14 5 -25 7 -25 5z"/>
<path fill="#000000" stroke="none" d="M131 282 c0 -12 5 -25 13 -28 10 -4 12
-14 5 -44 -6 -28 -5 -48 6 -74 8 -19 15 -44 15 -55 0 -19 58 -76 68 -66 3 3
-11 29 -30 57 -56 83 -59 93 -49 138 7 30 6 42 -4 48 -7 4 -15 16 -18 27 -4
18 -5 18 -6 -3z"/>
<path fill="#000000" stroke="none" d="M17 279 c7 -7 15 -10 18 -7 3 3 -2 9
-12 12 -14 6 -15 5 -6 -5z"/>
<path fill="#000000" stroke="none" d="M224 265 c15 -14 30 -25 33 -25 9 0
-41 50 -51 50 -5 0 3 -11 18 -25z"/>
<path fill="#000000" stroke="none" d="M106 268 c-7 -22 -3 -51 11 -78 13 -24
13 -24 13 -2 0 12 -4 22 -9 22 -6 0 -7 16 -4 35 5 33 -3 50 -11 23z"/>
<path fill="#000000" stroke="none" d="M41 248 c-1 -9 -9 -22 -18 -27 -10 -6
-13 -11 -7 -11 17 0 37 27 31 42 -4 8 -6 7 -6 -4z"/>
<path fill="#000000" stroke="none" d="M181 244 c0 -11 3 -14 6 -6 3 7 2 16
-1 19 -3 4 -6 -2 -5 -13z"/>
<path fill="#000000" stroke="none" d="M111 150 c-1 -8 3 -21 8 -29 6 -9 5
-23 -1 -37 -13 -28 12 -74 39 -74 13 0 14 3 5 12 -7 7 -12 21 -13 32 0 25 -38
118 -38 96z"/>
<path fill="#000000" stroke="none" d="M49 98 c-40 -41 -29 -51 17 -16 26 20
25 17 -9 -25 -39 -48 -32 -65 12 -29 16 12 22 29 23 60 0 24 -1 44 -3 45 -2 1
-20 -15 -40 -35z"/>
<path fill="#000000" stroke="none" d="M222 93 c3 -17 75 -59 85 -50 2 3 -17
19 -42 36 -37 25 -46 28 -43 14z"/>
</g>
</svg>
