<?xml version="1.0" standalone="no"?>
<!DOCTYPE svg PUBLIC "-//W3C//DTD SVG 20010904//EN"
 "http://www.w3.org/TR/2001/REC-SVG-20010904/DTD/svg10.dtd">
<svg version="1.0" xmlns="http://www.w3.org/2000/svg"
 width="32.000000pt" height="48.000000pt" viewBox="0 0 32.000000 48.000000"
 preserveAspectRatio="xMidYMid meet">
<metadata>
Created by potrace 1.16, written by Peter Selinger 2001-2019
</metadata>
<g transform="translate(0.000000,48.000000) scale(0.100000,-0.100000)"
fill="#000000" stroke="none">
<path fill="#000000" stroke="none" d="M0 240 l0 -240 160 0 160 0 0 240 0
240 -160 0 -160 0 0 -240z"/>
<path fill="#ffffff" stroke="none" d="M210 355 c-10 -12 -9 -15 6 -15 14 0
15 -3 6 -12 -10 -10 -17 -10 -32 0 -16 9 -18 9 -14 -2 9 -23 -18 -31 -33 -11
-12 18 -13 18 -13 -3 0 -14 7 -22 18 -23 15 -1 15 -2 -1 -6 -11 -3 -24 3 -31
13 -13 17 -42 11 -31 -7 4 -5 2 -9 -2 -9 -13 0 -34 40 -28 51 4 5 10 7 15 4 5
-3 11 -1 15 5 3 5 14 10 23 9 12 0 11 -3 -5 -9 -13 -5 -23 -15 -23 -22 0 -9 2
-10 8 -1 4 6 22 13 39 16 18 3 45 14 60 25 31 22 43 21 23 -3z"/>
<path fill="#ffffff" stroke="none" d="M127 264 c-3 -3 -12 -4 -19 -1 -8 3 -5
6 6 6 11 1 17 -2 13 -5z"/>
<path fill="#ffffff" stroke="none" d="M250 265 c0 -2 -9 -9 -20 -15 -16 -9
-18 -8 -14 5 5 13 34 22 34 10z"/>
<path fill="#ffffff" stroke="none" d="M31 233 c13 -16 12 -17 -3 -4 -17 13
-22 21 -14 21 2 0 10 -8 17 -17z"/>
<path fill="#ffffff" stroke="none" d="M266 231 c-3 -5 -17 -8 -32 -8 -18 0
-22 2 -13 8 18 11 52 11 45 0z"/>
<path fill="#ffffff" stroke="none" d="M167 224 c-3 -3 -12 -4 -19 -1 -8 3 -5
6 6 6 11 1 17 -2 13 -5z"/>
<path fill="#ffffff" stroke="none" d="M17 178 c-3 -8 -6 -5 -6 6 -1 11 2 17
5 13 3 -3 4 -12 1 -19z"/>
<path fill="#ffffff" stroke="none" d="M240 183 c0 -3 -10 -3 -22 0 -21 5 -21
5 -5 -7 21 -16 22 -30 2 -46 -13 -11 -14 -10 -8 6 6 17 5 17 -10 5 -20 -16
-23 -2 -4 18 10 11 9 13 -5 8 -23 -8 -24 9 -2 21 16 9 54 5 54 -5z"/>
<path fill="#ffffff" stroke="none" d="M70 106 c-7 -7 -13 -7 -20 0 -6 6 -3
10 10 10 13 0 16 -4 10 -10z"/>
<path fill="#ffffff" stroke="none" d="M190 96 c-7 -7 -13 -7 -20 0 -6 6 -3
10 10 10 13 0 16 -4 10 -10z"/>
<path fill="#ffffff" stroke="none" d="M72 28 c-9 -9 -12 -7 -12 12 0 19 3 21
12 12 9 -9 9 -15 0 -24z"/>
<path fill="#ffffff" stroke="none" d="M50 41 c0 -6 -4 -13 -10 -16 -5 -3 -10
1 -10 9 0 9 5 16 10 16 6 0 10 -4 10 -9z"/>
<path fill="#ffffff" stroke="none" d="M210 24 c0 -16 -16 -19 -25 -4 -8 13 4
32 16 25 5 -4 9 -13 9 -21z"/>
<path fill="#ffffff" stroke="none" d="M240 19 c0 -5 -4 -9 -10 -9 -5 0 -10 7
-10 16 0 8 5 12 10 9 6 -3 10 -10 10 -16z"/>
<path fill="#000000" stroke="none" d="M60 321 c0 -6 4 -13 10 -16 6 -3 7 1 4
9 -7 18 -14 21 -14 7z"/>
<path fill="#000000" stroke="none" d="M150 320 c0 -5 5 -10 10 -10 6 0 10 5
10 10 0 6 -4 10 -10 10 -5 0 -10 -4 -10 -10z"/>
</g>
</svg>
