<?xml version="1.0" standalone="no"?>
<!DOCTYPE svg PUBLIC "-//W3C//DTD SVG 20010904//EN"
 "http://www.w3.org/TR/2001/REC-SVG-20010904/DTD/svg10.dtd">
<svg version="1.0" xmlns="http://www.w3.org/2000/svg"
 width="32.000000pt" height="48.000000pt" viewBox="0 0 32.000000 48.000000"
 preserveAspectRatio="xMidYMid meet">
<metadata>
Created by potrace 1.16, written by Peter Selinger 2001-2019
</metadata>
<g transform="translate(0.000000,48.000000) scale(0.100000,-0.100000)"
fill="#000000" stroke="none">
<path fill="#000000" stroke="none" d="M0 240 l0 -240 160 0 160 0 0 240 0
240 -160 0 -160 0 0 -240z"/>
<path fill="#ffffff" stroke="none" d="M204 450 c36 -13 33 -24 -14 -45 -23
-10 -46 -26 -51 -34 -9 -14 -10 -14 -5 2 3 9 1 17 -4 17 -6 0 -10 -10 -11 -22
0 -22 -1 -22 -9 -3 l-9 20 0 -20 c-1 -12 -4 -16 -9 -9 -4 6 -22 19 -40 28 -40
20 -38 35 9 58 38 20 104 23 143 8z"/>
</g>
</svg>
