<?xml version="1.0" standalone="no"?>
<!DOCTYPE svg PUBLIC "-//W3C//DTD SVG 20010904//EN"
 "http://www.w3.org/TR/2001/REC-SVG-20010904/DTD/svg10.dtd">
<svg version="1.0" xmlns="http://www.w3.org/2000/svg"
 width="32.000000pt" height="48.000000pt" viewBox="0 0 32.000000 48.000000"
 preserveAspectRatio="xMidYMid meet">
<metadata>
Created by potrace 1.16, written by Peter Selinger 2001-2019
</metadata>
<g transform="translate(0.000000,48.000000) scale(0.100000,-0.100000)"
fill="#000000" stroke="none">
<path fill="#000000" stroke="none" d="M0 240 l0 -240 160 0 160 0 0 240 0
240 -160 0 -160 0 0 -240z"/>
<path fill="#ffffff" stroke="none" d="M101 441 c-7 -5 -9 -11 -4 -14 5 -3 15
-2 23 4 8 5 11 9 6 9 -12 0 14 30 27 30 6 0 2 -7 -9 -16 -17 -14 -17 -15 -1
-10 10 3 15 2 12 -3 -3 -5 5 -17 17 -25 12 -9 18 -16 12 -16 -5 0 -16 6 -22
12 -10 10 -15 10 -22 -2 -15 -24 -12 -27 24 -25 19 0 32 -3 29 -8 -3 -5 -16
-6 -29 -3 -14 4 -24 2 -24 -4 0 -6 -4 -8 -10 -5 -5 3 -10 0 -10 -7 0 -7 -7 -2
-17 11 l-16 24 -19 -23 c-10 -12 -18 -19 -18 -14 0 4 10 18 22 31 12 13 16 23
10 23 -6 0 -14 -4 -17 -10 -3 -5 -14 -10 -23 -10 -11 0 -6 6 13 16 41 21 45
28 12 22 -32 -6 -24 8 8 14 11 2 19 11 17 19 -3 11 -1 12 10 1 11 -11 10 -14
-1 -21z"/>
<path fill="#000000" stroke="none" d="M125 419 c-4 -6 -13 -8 -21 -5 -11 4
-12 2 -1 -14 8 -14 13 -16 16 -8 2 7 8 19 14 26 5 6 7 12 4 12 -3 0 -9 -5 -12
-11z"/>
</g>
</svg>
