<?xml version="1.0" standalone="no"?>
<!DOCTYPE svg PUBLIC "-//W3C//DTD SVG 20010904//EN"
 "http://www.w3.org/TR/2001/REC-SVG-20010904/DTD/svg10.dtd">
<svg version="1.0" xmlns="http://www.w3.org/2000/svg"
 width="32.000000pt" height="48.000000pt" viewBox="0 0 32.000000 48.000000"
 preserveAspectRatio="xMidYMid meet">
<metadata>
Created by potrace 1.16, written by Peter Selinger 2001-2019
</metadata>
<g transform="translate(0.000000,48.000000) scale(0.100000,-0.100000)"
fill="#000000" stroke="none">
<path fill="#000000" stroke="none" d="M0 241 l0 -239 160 -1 160 -1 0 52 c-1
41 -3 49 -11 36 -9 -17 -12 -17 -39 -3 -42 22 -56 51 -31 65 26 13 54 13 69
-2 9 -9 12 26 12 160 l0 172 -160 0 -160 0 0 -239z"/>
<path fill="#ffffff" stroke="none" d="M159 369 c17 -6 31 -15 31 -20 0 -12
47 -11 53 1 3 6 4 5 3 -2 -1 -7 -13 -15 -27 -19 l-24 -6 27 -11 c15 -6 36 -9
45 -6 15 5 16 4 3 -5 -8 -5 -26 -7 -40 -4 -23 6 -24 5 -10 -13 8 -10 22 -25
30 -32 13 -11 11 -11 -7 -2 -13 6 -23 16 -23 23 -1 24 -29 -39 -30 -66 0 -44
37 -105 80 -132 41 -26 54 -43 23 -30 -10 4 -31 11 -46 16 -23 6 -28 5 -23 -6
20 -49 20 -48 -1 -37 -11 6 -24 8 -28 4 -3 -4 -5 -2 -3 3 2 6 -7 23 -19 39
l-23 29 0 -31 c0 -17 4 -33 9 -36 5 -4 7 4 3 16 -5 21 -4 22 12 9 15 -13 15
-16 2 -29 -13 -13 -19 -14 -40 -3 -13 7 -29 10 -35 6 -7 -3 -28 -9 -48 -11
l-37 -5 22 24 c29 30 28 39 -3 31 -22 -5 -21 -2 15 34 44 43 48 64 25 119 -15
37 -16 37 -31 15 -8 -12 -21 -22 -27 -22 -7 0 -4 5 5 11 10 5 18 17 18 26 0 9
-8 22 -18 29 -15 12 -15 12 6 7 17 -4 22 -1 22 15 0 24 46 82 64 82 7 0 27 -5
45 -11z"/>
<path fill="#ffffff" stroke="none" d="M265 40 c-3 -5 -10 -10 -16 -10 -5 0
-9 5 -9 10 0 6 7 10 16 10 8 0 12 -4 9 -10z"/>
<path fill="#000000" stroke="none" d="M86 42 c-20 -27 -20 -27 0 -9 12 9 24
14 28 10 4 -4 4 0 0 10 -8 21 -5 22 -28 -11z"/>
</g>
</svg>
