<?xml version="1.0" standalone="no"?>
<!DOCTYPE svg PUBLIC "-//W3C//DTD SVG 20010904//EN"
 "http://www.w3.org/TR/2001/REC-SVG-20010904/DTD/svg10.dtd">
<svg version="1.0" xmlns="http://www.w3.org/2000/svg"
 width="32.000000pt" height="48.000000pt" viewBox="0 0 32.000000 48.000000"
 preserveAspectRatio="xMidYMid meet">
<metadata>
Created by potrace 1.16, written by Peter Selinger 2001-2019
</metadata>
<g transform="translate(0.000000,48.000000) scale(0.100000,-0.100000)"
fill="#000000" stroke="none">
<path fill="#000000" stroke="none" d="M0 240 l0 -240 160 0 160 0 0 240 0
240 -160 0 -160 0 0 -240z"/>
<path fill="#ffffff" stroke="none" d="M196 343 c3 -10 12 -31 20 -46 16 -32
19 -114 5 -136 -5 -8 -17 -16 -27 -17 -12 -2 -14 0 -5 9 15 15 14 30 -1 21 -8
-5 -9 -2 -3 12 12 28 9 112 -4 128 -6 7 -22 11 -36 8 -16 -3 -25 0 -25 8 0 7
8 10 19 7 12 -3 22 1 25 9 7 20 26 17 32 -3z"/>
<path fill="#ffffff" stroke="none" d="M91 327 c-1 -12 -15 -9 -19 4 -3 6 1
10 8 8 6 -3 11 -8 11 -12z"/>
<path fill="#ffffff" stroke="none" d="M147 205 c-27 -41 -31 -42 -45 -10 -16
34 -15 43 1 21 12 -16 14 -16 31 3 30 33 37 25 13 -14z"/>
<path fill="#ffffff" stroke="none" d="M60 193 c0 -7 -6 -12 -12 -10 -7 1 -12
-5 -10 -13 3 -11 0 -12 -8 -4 -8 8 -8 18 1 38 9 19 15 23 21 14 4 -7 8 -19 8
-25z"/>
<path fill="#ffffff" stroke="none" d="M297 173 c-18 -18 -38 -9 -36 15 1 15
2 15 6 0 6 -25 24 -22 31 4 3 14 7 17 10 9 2 -7 -3 -20 -11 -28z"/>
<path fill="#ffffff" stroke="none" d="M84 119 c-3 -5 -10 -7 -15 -3 -5 3 -7
10 -3 15 3 5 10 7 15 3 5 -3 7 -10 3 -15z"/>
<path fill="#ffffff" stroke="none" d="M175 102 c-21 -5 -40 12 -30 28 5 8 13
6 27 -7 18 -16 19 -18 3 -21z"/>
<path fill="#ffffff" stroke="none" d="M99 52 c-10 -30 -29 -44 -29 -21 0 5
-6 7 -12 3 -14 -8 20 36 37 48 15 11 16 4 4 -30z"/>
<path fill="#ffffff" stroke="none" d="M214 63 c-9 -39 -23 -51 -34 -33 -7 10
-10 11 -10 3 0 -7 -5 -13 -12 -13 -6 0 -4 7 5 18 10 10 17 24 17 30 0 6 8 13
18 15 9 3 18 5 20 6 1 0 -1 -11 -4 -26z"/>
</g>
</svg>
