<?xml version="1.0" standalone="no"?>
<!DOCTYPE svg PUBLIC "-//W3C//DTD SVG 20010904//EN"
 "http://www.w3.org/TR/2001/REC-SVG-20010904/DTD/svg10.dtd">
<svg version="1.0" xmlns="http://www.w3.org/2000/svg"
 width="32.000000pt" height="48.000000pt" viewBox="0 0 32.000000 48.000000"
 preserveAspectRatio="xMidYMid meet">
<metadata>
Created by potrace 1.16, written by Peter Selinger 2001-2019
</metadata>
<g transform="translate(0.000000,48.000000) scale(0.100000,-0.100000)"
fill="#000000" stroke="none">
<path fill="#000000" stroke="none" d="M120 356 c-36 -9 -48 -18 -60 -44 -10
-22 -20 -31 -33 -28 -9 2 -15 0 -11 -5 3 -5 12 -9 20 -9 17 0 53 -73 54 -109
0 -14 -16 -39 -40 -63 -36 -36 -37 -39 -15 -34 31 8 32 -1 3 -31 -28 -30 -2
-32 36 -2 21 16 26 30 27 67 l2 47 6 -51 c3 -28 12 -59 20 -68 16 -19 49 -23
34 -3 -6 6 -13 30 -16 52 -4 22 -9 54 -12 70 -3 17 3 6 13 -24 11 -33 32 -66
51 -83 36 -32 49 -31 31 2 -16 29 -12 31 35 15 53 -19 55 -12 6 19 -58 37 -83
91 -77 164 3 31 5 60 5 64 1 4 13 3 27 -2 17 -7 31 -7 42 1 16 10 15 10 -1 5
-9 -3 -28 -1 -41 4 -15 5 -27 5 -34 -2 -6 -6 -12 -6 -17 3 -5 8 -4 10 3 5 7
-4 12 -3 12 3 0 5 12 11 27 13 14 2 28 9 29 16 1 7 0 8 -3 2 -6 -12 -53 -13
-53 -1 0 16 -24 18 -70 7z"/>
<path fill="#ffffff" stroke="none" d="M167 235 c2 -16 1 -17 -6 -5 -5 8 -7
18 -5 22 3 4 0 8 -5 8 -6 0 -11 8 -11 18 1 15 2 15 12 -3 7 -11 14 -29 15 -40z"/>
<path fill="#ffffff" stroke="none" d="M122 242 c3 8 7 6 11 -6 4 -10 3 -15
-3 -11 -6 3 -10 1 -10 -6 0 -7 -7 -4 -15 7 -10 13 -14 15 -15 5 0 -8 -3 -12
-6 -8 -3 3 -3 11 1 17 5 8 10 8 20 0 10 -8 14 -8 17 2z"/>
<path fill="#ffffff" stroke="none" d="M220 83 c0 -3 -9 2 -20 12 -11 10 -20
22 -20 27 0 4 9 -1 20 -12 11 -11 20 -23 20 -27z"/>
<path fill="#000000" stroke="none" d="M224 265 c15 -14 30 -25 33 -25 9 0
-41 50 -51 50 -5 0 3 -11 18 -25z"/>
<path fill="#000000" stroke="none" d="M41 248 c-1 -9 -9 -22 -18 -27 -10 -6
-13 -11 -7 -11 17 0 37 27 31 42 -4 8 -6 7 -6 -4z"/>
</g>
</svg>
