<?xml version="1.0" standalone="no"?>
<!DOCTYPE svg PUBLIC "-//W3C//DTD SVG 20010904//EN"
 "http://www.w3.org/TR/2001/REC-SVG-20010904/DTD/svg10.dtd">
<svg version="1.0" xmlns="http://www.w3.org/2000/svg"
 width="32.000000pt" height="48.000000pt" viewBox="0 0 32.000000 48.000000"
 preserveAspectRatio="xMidYMid meet">
<metadata>
Created by potrace 1.16, written by Peter Selinger 2001-2019
</metadata>
<g transform="translate(0.000000,48.000000) scale(0.100000,-0.100000)"
fill="#000000" stroke="none">
<path fill="#000000" stroke="none" d="M0 240 l0 -240 160 0 160 0 0 240 0
240 -160 0 -160 0 0 -240z"/>
<path fill="#ffffff" stroke="none" d="M210 355 c-10 -12 -9 -15 6 -15 14 0
15 -3 6 -12 -10 -10 -17 -10 -31 -1 -15 10 -18 9 -17 -5 0 -9 -6 -17 -14 -17
-26 0 -16 24 20 49 37 26 51 26 30 1z"/>
<path fill="#ffffff" stroke="none" d="M117 344 c-3 -3 -12 -4 -19 -1 -8 3 -5
6 6 6 11 1 17 -2 13 -5z"/>
<path fill="#ffffff" stroke="none" d="M75 310 c-5 -8 -11 -8 -17 -2 -6 6 -7
16 -3 22 5 8 11 8 17 2 6 -6 7 -16 3 -22z"/>
<path fill="#ffffff" stroke="none" d="M120 320 c-19 -13 -30 -13 -30 0 0 6
10 10 23 10 18 0 19 -2 7 -10z"/>
<path fill="#ffffff" stroke="none" d="M245 260 c-3 -5 -10 -10 -16 -10 -5 0
-9 5 -9 10 0 6 7 10 16 10 8 0 12 -4 9 -10z"/>
<path fill="#ffffff" stroke="none" d="M31 233 c13 -16 12 -17 -3 -4 -17 13
-22 21 -14 21 2 0 10 -8 17 -17z"/>
<path fill="#ffffff" stroke="none" d="M270 236 c0 -11 -19 -15 -25 -6 -3 5 1
10 9 10 9 0 16 -2 16 -4z"/>
<path fill="#ffffff" stroke="none" d="M17 178 c-3 -8 -6 -5 -6 6 -1 11 2 17
5 13 3 -3 4 -12 1 -19z"/>
<path fill="#ffffff" stroke="none" d="M226 159 c3 -6 -1 -18 -11 -27 -16 -16
-17 -16 -5 8 l13 25 -22 -19 c-11 -11 -21 -14 -21 -8 0 6 5 14 10 17 6 4 7 11
4 17 -4 6 -10 5 -15 -3 -5 -8 -9 -9 -9 -3 0 26 38 22 56 -7z"/>
<path fill="#ffffff" stroke="none" d="M50 41 c0 -6 -4 -13 -10 -16 -5 -3 -10
1 -10 9 0 9 5 16 10 16 6 0 10 -4 10 -9z"/>
<path fill="#ffffff" stroke="none" d="M80 41 c0 -6 -4 -13 -10 -16 -5 -3 -10
1 -10 9 0 9 5 16 10 16 6 0 10 -4 10 -9z"/>
<path fill="#ffffff" stroke="none" d="M210 24 c0 -16 -16 -19 -25 -4 -8 13 4
32 16 25 5 -4 9 -13 9 -21z"/>
<path fill="#ffffff" stroke="none" d="M240 19 c0 -5 -4 -9 -10 -9 -5 0 -10 7
-10 16 0 8 5 12 10 9 6 -3 10 -10 10 -16z"/>
<path fill="#000000" stroke="none" d="M150 320 c0 -5 5 -10 10 -10 6 0 10 5
10 10 0 6 -4 10 -10 10 -5 0 -10 -4 -10 -10z"/>
</g>
</svg>
