<?xml version="1.0" standalone="no"?>
<!DOCTYPE svg PUBLIC "-//W3C//DTD SVG 20010904//EN"
 "http://www.w3.org/TR/2001/REC-SVG-20010904/DTD/svg10.dtd">
<svg version="1.0" xmlns="http://www.w3.org/2000/svg"
 width="32.000000pt" height="48.000000pt" viewBox="0 0 32.000000 48.000000"
 preserveAspectRatio="xMidYMid meet">
<metadata>
Created by potrace 1.16, written by Peter Selinger 2001-2019
</metadata>
<g transform="translate(0.000000,48.000000) scale(0.100000,-0.100000)"
fill="#000000" stroke="none">
<path fill="#000000" stroke="none" d="M79 332 c9 -7 10 -11 2 -15 -7 -4 -8
-5 0 -3 15 2 13 20 -3 24 -10 3 -10 2 1 -6z"/>
<path fill="#000000" stroke="none" d="M122 331 c-11 -6 -10 -10 4 -15 9 -3
19 -4 22 -1 3 3 -1 5 -9 5 -11 0 -11 2 1 10 8 5 11 10 5 10 -5 0 -16 -4 -23
-9z"/>
<path fill="#000000" stroke="none" d="M102 227 c9 -18 11 -18 29 -1 24 22 24
21 -10 20 -25 -1 -28 -4 -19 -19z"/>
<path fill="#000000" stroke="none" d="M202 228 c-17 -17 -15 -29 3 -22 10 4
15 0 15 -11 0 -10 -5 -13 -12 -9 -7 4 -8 3 -4 -5 10 -15 26 -4 26 17 0 29 -14
44 -28 30z"/>
<path fill="#000000" stroke="none" d="M30 206 c0 -8 4 -17 9 -20 5 -4 7 3 4
14 -6 23 -13 26 -13 6z"/>
<path fill="#000000" stroke="none" d="M246 161 c-3 -5 3 -11 15 -14 16 -4 18
-3 8 9 -13 16 -16 17 -23 5z"/>
<path fill="#000000" stroke="none" d="M85 70 c-3 -5 -1 -18 4 -27 9 -16 10
-14 11 10 0 28 -5 34 -15 17z"/>
<path fill="#000000" stroke="none" d="M170 49 c0 -21 16 -42 28 -38 6 2 2 14
-9 28 -11 13 -19 18 -19 10z"/>
<path fill="#000000" stroke="none" d="M63 43 c-18 -7 -16 -23 2 -23 8 0 15 7
15 15 0 8 -1 15 -2 14 -2 0 -9 -3 -15 -6z"/>
</g>
</svg>
