<?xml version="1.0" standalone="no"?>
<!DOCTYPE svg PUBLIC "-//W3C//DTD SVG 20010904//EN"
 "http://www.w3.org/TR/2001/REC-SVG-20010904/DTD/svg10.dtd">
<svg version="1.0" xmlns="http://www.w3.org/2000/svg"
 width="32.000000pt" height="32.000000pt" viewBox="0 0 32.000000 32.000000"
 preserveAspectRatio="xMidYMid meet">
<metadata>
Created by potrace 1.16, written by Peter Selinger 2001-2019
</metadata>
<g transform="translate(0.000000,32.000000) scale(0.100000,-0.100000)"
fill="#000000" stroke="none">
<path fill="#000000" stroke="none" d="M93 250 c-1 -11 2 -20 7 -20 4 0 7 7 6
15 -3 23 -12 26 -13 5z"/>
<path fill="#000000" stroke="none" d="M196 223 c-3 -10 -5 -22 -5 -27 0 -5
-4 -12 -9 -15 -6 -4 -4 -11 4 -19 12 -11 13 -9 10 10 -2 13 1 31 6 41 5 10 7
21 5 24 -3 2 -8 -4 -11 -14z"/>
</g>
</svg>
