<?xml version="1.0" standalone="no"?>
<!DOCTYPE svg PUBLIC "-//W3C//DTD SVG 20010904//EN"
 "http://www.w3.org/TR/2001/REC-SVG-20010904/DTD/svg10.dtd">
<svg version="1.0" xmlns="http://www.w3.org/2000/svg"
 width="32.000000pt" height="32.000000pt" viewBox="0 0 32.000000 32.000000"
 preserveAspectRatio="xMidYMid meet">
<metadata>
Created by potrace 1.16, written by Peter Selinger 2001-2019
</metadata>
<g transform="translate(0.000000,32.000000) scale(0.100000,-0.100000)"
fill="#000000" stroke="none">
<path fill="#000000" stroke="none" d="M0 160 l0 -160 160 0 160 0 0 160 0
160 -160 0 -160 0 0 -160z"/>
<path fill="#ffffff" stroke="none" d="M290 287 c0 -8 -11 -24 -25 -37 -13
-12 -22 -26 -20 -30 3 -5 -2 -10 -10 -14 -8 -3 -15 -13 -15 -21 0 -9 -4 -14
-8 -11 -13 8 -105 -90 -98 -103 4 -6 1 -9 -7 -6 -7 3 -22 -3 -32 -15 -10 -11
-26 -20 -37 -20 -17 0 -18 10 -18 135 l0 135 135 0 c105 0 135 -3 135 -13z"/>
<path fill="#000000" stroke="none" d="M30 168 l0 -123 25 30 c13 17 24 36 25
43 0 7 5 10 10 7 6 -3 14 2 18 12 4 10 13 18 20 18 6 0 11 2 10 5 -3 8 63 70
74 70 6 0 8 7 4 15 -3 8 -2 15 2 15 5 0 17 7 28 15 17 13 7 14 -98 15 l-118 0
0 -122z"/>
</g>
</svg>
