<?xml version="1.0" standalone="no"?>
<!DOCTYPE svg PUBLIC "-//W3C//DTD SVG 20010904//EN"
 "http://www.w3.org/TR/2001/REC-SVG-20010904/DTD/svg10.dtd">
<svg version="1.0" xmlns="http://www.w3.org/2000/svg"
 width="32.000000pt" height="32.000000pt" viewBox="0 0 32.000000 32.000000"
 preserveAspectRatio="xMidYMid meet">
<metadata>
Created by potrace 1.16, written by Peter Selinger 2001-2019
</metadata>
<g transform="translate(0.000000,32.000000) scale(0.100000,-0.100000)"
fill="#000000" stroke="none">
<path fill="#000000" stroke="none" d="M22 158 l2 -143 3 137 4 137 137 4 137
3 -142 2 -143 2 2 -142z"/>
<path fill="#000000" stroke="none" d="M99 263 c-13 -16 -12 -17 4 -4 9 7 17
15 17 17 0 8 -8 3 -21 -13z"/>
<path fill="#000000" stroke="none" d="M160 240 c-18 -18 -25 -39 -21 -63 1
-4 -6 -21 -14 -38 l-16 -30 23 14 c13 9 35 15 49 15 67 -1 106 72 57 106 -30
21 -54 20 -78 -4z"/>
<path fill="#000000" stroke="none" d="M65 201 c-3 -5 -1 -12 5 -16 5 -3 10 1
10 9 0 18 -6 21 -15 7z"/>
<path fill="#000000" stroke="none" d="M251 91 c-8 -5 -9 -11 -3 -15 5 -3 12
1 16 9 6 17 6 18 -13 6z"/>
</g>
</svg>
