<?xml version="1.0" standalone="no"?>
<!DOCTYPE svg PUBLIC "-//W3C//DTD SVG 20010904//EN"
 "http://www.w3.org/TR/2001/REC-SVG-20010904/DTD/svg10.dtd">
<svg version="1.0" xmlns="http://www.w3.org/2000/svg"
 width="32.000000pt" height="32.000000pt" viewBox="0 0 32.000000 32.000000"
 preserveAspectRatio="xMidYMid meet">
<metadata>
Created by potrace 1.16, written by Peter Selinger 2001-2019
</metadata>
<g transform="translate(0.000000,32.000000) scale(0.100000,-0.100000)"
fill="#000000" stroke="none">
<path fill="#000000" stroke="none" d="M20 160 l0 -140 140 0 140 0 0 140 0
140 -140 0 -140 0 0 -140z"/>
<path fill="#ffffff" stroke="none" d="M80 275 c9 -11 8 -20 -10 -45 -30 -42
-40 -38 -40 15 0 37 3 45 19 45 10 0 24 -7 31 -15z"/>
<path fill="#ffffff" stroke="none" d="M290 206 c0 -62 -4 -87 -15 -96 -8 -7
-15 -9 -15 -4 0 5 -4 3 -9 -5 -11 -17 -79 -23 -104 -9 -15 8 -16 11 -3 23 19
19 26 19 26 -2 0 -14 2 -14 20 2 11 10 20 14 20 9 0 -5 6 -2 13 7 7 8 20 18
29 22 12 4 17 16 16 41 -2 44 -35 79 -69 72 -38 -7 -59 -17 -54 -27 3 -4 -4
-13 -16 -20 -16 -8 -18 -13 -9 -19 9 -6 9 -9 0 -15 -9 -6 -9 -10 1 -16 10 -6
11 -9 2 -9 -7 0 -13 -7 -13 -16 0 -14 -3 -14 -15 -4 -30 25 -14 87 33 127 22
19 39 23 95 23 l67 0 0 -84z"/>
<path fill="#ffffff" stroke="none" d="M73 152 c18 -31 18 -32 -4 -64 -23 -31
-12 -31 25 1 17 15 20 14 46 -17 15 -19 29 -29 31 -23 5 13 67 17 93 6 16 -7
18 -5 13 8 -3 9 -2 19 4 22 5 4 8 -6 7 -24 l-2 -31 -128 0 -128 0 0 81 c0 88
10 98 43 41z"/>
<path fill="#000000" stroke="none" d="M55 140 c-3 -5 -1 -10 4 -10 6 0 11 5
11 10 0 6 -2 10 -4 10 -3 0 -8 -4 -11 -10z"/>
<path fill="#000000" stroke="none" d="M105 70 c-3 -5 -1 -10 4 -10 6 0 11 5
11 10 0 6 -2 10 -4 10 -3 0 -8 -4 -11 -10z"/>
</g>
</svg>
