<?xml version="1.0" standalone="no"?>
<!DOCTYPE svg PUBLIC "-//W3C//DTD SVG 20010904//EN"
 "http://www.w3.org/TR/2001/REC-SVG-20010904/DTD/svg10.dtd">
<svg version="1.0" xmlns="http://www.w3.org/2000/svg"
 width="32.000000pt" height="32.000000pt" viewBox="0 0 32.000000 32.000000"
 preserveAspectRatio="xMidYMid meet">
<metadata>
Created by potrace 1.16, written by Peter Selinger 2001-2019
</metadata>
<g transform="translate(0.000000,32.000000) scale(0.100000,-0.100000)"
fill="#000000" stroke="none">
<path fill="#000000" stroke="none" d="M139 288 c-1 -18 -1 -53 0 -77 2 -40 1
-43 -13 -32 -14 12 -15 10 -9 -20 6 -32 5 -33 -13 -19 -10 8 -22 19 -26 25 -4
5 -10 6 -14 2 -4 -4 0 -15 9 -25 31 -34 18 -43 -20 -15 l-38 28 24 -30 23 -30
-26 -9 c-14 -6 -26 -16 -26 -24 0 -8 6 -12 15 -8 8 3 15 2 15 -2 0 -15 133
-20 223 -7 40 5 57 12 57 22 0 9 -6 13 -13 10 -7 -3 -21 1 -31 8 -16 12 -16
15 -2 44 l16 31 -44 -24 -44 -23 15 35 c13 32 13 35 0 24 -12 -10 -15 -7 -21
19 -3 17 -6 53 -6 80 0 46 -2 49 -25 49 -21 0 -25 -5 -26 -32z"/>
<path fill="#000000" stroke="none" d="M22 228 l2 -73 3 67 4 67 47 4 47 3
-52 2 -53 2 2 -72z"/>
<path fill="#000000" stroke="none" d="M233 293 c15 -2 37 -2 50 0 12 2 0 4
-28 4 -27 0 -38 -2 -22 -4z"/>
<path fill="#000000" stroke="none" d="M21 104 c0 -11 3 -14 6 -6 3 7 2 16 -1
19 -3 4 -6 -2 -5 -13z"/>
</g>
</svg>
