<?xml version="1.0" standalone="no"?>
<!DOCTYPE svg PUBLIC "-//W3C//DTD SVG 20010904//EN"
 "http://www.w3.org/TR/2001/REC-SVG-20010904/DTD/svg10.dtd">
<svg version="1.0" xmlns="http://www.w3.org/2000/svg"
 width="32.000000pt" height="32.000000pt" viewBox="0 0 32.000000 32.000000"
 preserveAspectRatio="xMidYMid meet">
<metadata>
Created by potrace 1.16, written by Peter Selinger 2001-2019
</metadata>
<g transform="translate(0.000000,32.000000) scale(0.100000,-0.100000)"
fill="#000000" stroke="none">
<path fill="#000000" stroke="none" d="M0 160 l0 -160 160 0 160 0 0 160 0
160 -160 0 -160 0 0 -160z"/>
<path fill="#ffffff" stroke="none" d="M290 241 l0 -50 -37 4 c-32 4 -34 3
-13 -4 17 -6 -7 -9 -80 -9 -74 0 -96 3 -75 9 26 7 24 8 -12 5 l-43 -4 0 49 0
49 130 0 130 0 0 -49z"/>
<path fill="#ffffff" stroke="none" d="M101 156 l-24 -13 24 -17 c13 -9 39
-16 59 -16 20 0 46 7 59 16 l24 17 -24 13 c-23 13 -23 13 -3 14 12 0 32 -9 45
-20 21 -16 21 -20 7 -21 -38 -3 -43 -5 -40 -17 2 -11 -10 -14 -63 -15 -53 -1
-75 4 -72 15 2 12 -3 14 -40 17 -15 1 -15 5 6 21 13 11 33 20 45 20 20 -1 20
-1 -3 -14z"/>
<path fill="#ffffff" stroke="none" d="M160 45 c56 0 83 5 103 18 27 17 27 17
27 -8 l0 -25 -130 0 -130 0 0 25 c0 25 0 25 27 8 20 -13 47 -18 103 -18z"/>
</g>
</svg>
