<?xml version="1.0" standalone="no"?>
<!DOCTYPE svg PUBLIC "-//W3C//DTD SVG 20010904//EN"
 "http://www.w3.org/TR/2001/REC-SVG-20010904/DTD/svg10.dtd">
<svg version="1.0" xmlns="http://www.w3.org/2000/svg"
 width="32.000000pt" height="32.000000pt" viewBox="0 0 32.000000 32.000000"
 preserveAspectRatio="xMidYMid meet">
<metadata>
Created by potrace 1.16, written by Peter Selinger 2001-2019
</metadata>
<g transform="translate(0.000000,32.000000) scale(0.100000,-0.100000)"
fill="#000000" stroke="none">
<path fill="#000000" stroke="none" d="M20 160 l0 -140 140 0 140 0 0 140 0
140 -140 0 -140 0 0 -140z"/>
<path fill="#ffffff" stroke="none" d="M290 160 l0 -130 -130 0 -130 0 0 130
0 130 130 0 130 0 0 -130z"/>
<path fill="#000000" stroke="none" d="M140 223 c0 -21 -4 -33 -8 -28 -4 6
-17 15 -29 22 -17 10 -22 9 -26 -2 -7 -15 19 -28 36 -18 8 5 8 2 0 -9 -7 -8
-10 -18 -6 -22 4 -3 -2 -12 -11 -19 -22 -16 -24 -66 -5 -78 19 -12 59 -11 59
1 0 6 7 10 15 10 8 0 15 -5 15 -11 0 -11 38 -3 55 12 19 19 6 96 -15 84 -3 -2
-7 10 -8 28 -3 38 -10 46 -22 27 -7 -11 -10 -8 -10 13 0 20 -5 27 -20 27 -16
0 -20 -7 -20 -37z"/>
<path fill="#ffffff" stroke="none" d="M162 148 c-7 -7 -12 -8 -12 -2 0 14 12
26 19 19 2 -3 -1 -11 -7 -17z"/>
<path fill="#000000" stroke="none" d="M224 217 c-8 -21 -3 -29 13 -19 8 5 9
13 3 22 -7 12 -10 12 -16 -3z"/>
</g>
</svg>
