<?xml version="1.0" standalone="no"?>
<!DOCTYPE svg PUBLIC "-//W3C//DTD SVG 20010904//EN"
 "http://www.w3.org/TR/2001/REC-SVG-20010904/DTD/svg10.dtd">
<svg version="1.0" xmlns="http://www.w3.org/2000/svg"
 width="32.000000pt" height="32.000000pt" viewBox="0 0 32.000000 32.000000"
 preserveAspectRatio="xMidYMid meet">
<metadata>
Created by potrace 1.16, written by Peter Selinger 2001-2019
</metadata>
<g transform="translate(0.000000,32.000000) scale(0.100000,-0.100000)"
fill="#000000" stroke="none">
<path fill="#000000" stroke="none" d="M0 160 l0 -160 160 0 160 0 0 160 0
160 -160 0 -160 0 0 -160z"/>
<path fill="#ffffff" stroke="none" d="M300 160 l0 -140 -140 0 -140 0 0 140
0 140 140 0 140 0 0 -140z"/>
<path fill="#000000" stroke="none" d="M30 160 l0 -130 32 0 c29 0 30 1 15 18
-22 24 -21 35 3 57 28 25 25 44 -12 76 l-33 27 24 25 c13 14 29 23 35 21 7 -3
21 4 31 16 18 20 18 20 -38 20 l-57 0 0 -130z"/>
<path fill="#000000" stroke="none" d="M190 281 c0 -14 28 -33 39 -27 5 4 12
2 16 -4 4 -6 10 -8 15 -5 4 3 11 -5 14 -18 5 -17 -1 -28 -25 -49 -31 -26 -37
-63 -10 -63 20 0 24 -45 6 -65 -14 -16 -13 -17 15 -18 l30 -1 0 130 0 129 -50
0 c-27 0 -50 -4 -50 -9z"/>
<path fill="#000000" stroke="none" d="M137 264 c-4 -4 -7 -16 -7 -26 0 -20
-8 -22 -30 -8 -9 5 -19 5 -27 -2 -20 -16 -16 -26 17 -43 20 -10 30 -23 30 -38
0 -18 2 -19 10 -7 17 26 11 38 -24 50 -25 8 -33 16 -29 26 4 11 9 12 16 5 21
-21 47 -13 47 14 0 18 5 25 20 25 15 0 20 -7 20 -25 0 -18 5 -25 19 -25 11 0
23 5 26 11 5 6 12 4 21 -8 7 -10 14 -13 14 -7 0 19 -24 34 -40 24 -23 -14 -28
-12 -32 13 -3 22 -36 36 -51 21z"/>
<path fill="#000000" stroke="none" d="M208 188 c-29 -10 -34 -23 -18 -48 8
-12 10 -11 10 6 0 12 10 29 23 37 25 18 23 19 -15 5z"/>
<path fill="#000000" stroke="none" d="M139 90 c-6 -16 -18 -30 -27 -31 -11 0
-13 -2 -4 -6 17 -7 42 15 42 38 0 11 5 19 10 19 18 0 11 -33 -12 -57 l-21 -23
33 0 c27 0 31 3 22 12 -19 19 -14 30 7 17 21 -14 51 -6 51 14 0 8 -9 22 -20
32 -12 11 -20 13 -20 6 0 -6 7 -14 15 -17 22 -9 19 -34 -4 -34 -12 0 -23 11
-30 30 -13 38 -29 38 -42 0z"/>
<path fill="#000000" stroke="none" d="M92 98 c-7 -7 -12 -19 -12 -27 0 -11 5
-8 16 7 18 25 15 39 -4 20z"/>
</g>
</svg>
