<?xml version="1.0" standalone="no"?>
<!DOCTYPE svg PUBLIC "-//W3C//DTD SVG 20010904//EN"
 "http://www.w3.org/TR/2001/REC-SVG-20010904/DTD/svg10.dtd">
<svg version="1.0" xmlns="http://www.w3.org/2000/svg"
 width="32.000000pt" height="32.000000pt" viewBox="0 0 32.000000 32.000000"
 preserveAspectRatio="xMidYMid meet">
<metadata>
Created by potrace 1.16, written by Peter Selinger 2001-2019
</metadata>
<g transform="translate(0.000000,32.000000) scale(0.100000,-0.100000)"
fill="#000000" stroke="none">
<path fill="#000000" stroke="none" d="M0 160 l0 -160 160 0 160 0 0 160 0
160 -160 0 -160 0 0 -160z"/>
<path fill="#ffffff" stroke="none" d="M168 293 l-137 -4 -4 -137 -3 -137 -2
143 -2 142 143 -2 142 -2 -137 -3z"/>
<path fill="#ffffff" stroke="none" d="M174 231 c0 -15 5 -21 21 -21 11 0 26
5 32 11 7 7 12 6 16 -4 4 -11 -4 -17 -30 -22 -34 -6 -35 -7 -29 -43 3 -20 15
-49 26 -64 17 -22 18 -28 6 -28 -9 0 -22 13 -31 30 -9 16 -20 30 -25 30 -5 0
-16 -14 -25 -30 -9 -17 -22 -30 -31 -30 -12 0 -11 6 6 28 11 15 23 44 26 64 6
36 5 37 -29 43 -26 5 -34 11 -30 22 4 10 9 11 16 4 14 -14 60 -14 52 -1 -10
16 3 42 18 37 6 -2 12 -14 11 -26z"/>
<path fill="#ffffff" stroke="none" d="M264 165 c-4 -8 -1 -22 6 -30 14 -17
10 -19 -22 -6 -13 5 -31 12 -41 15 -10 3 -15 10 -12 16 4 7 13 7 26 0 15 -9
21 -7 25 5 3 8 10 15 15 15 4 0 6 -7 3 -15z"/>
<path fill="#ffffff" stroke="none" d="M76 150 c8 0 14 5 14 10 0 6 7 10 15
10 28 0 15 -25 -19 -36 -32 -10 -33 -9 -33 15 0 14 2 20 4 14 3 -7 11 -13 19
-13z"/>
</g>
</svg>
