<?xml version="1.0" standalone="no"?>
<!DOCTYPE svg PUBLIC "-//W3C//DTD SVG 20010904//EN"
 "http://www.w3.org/TR/2001/REC-SVG-20010904/DTD/svg10.dtd">
<svg version="1.0" xmlns="http://www.w3.org/2000/svg"
 width="32.000000pt" height="32.000000pt" viewBox="0 0 32.000000 32.000000"
 preserveAspectRatio="xMidYMid meet">
<metadata>
Created by potrace 1.16, written by Peter Selinger 2001-2019
</metadata>
<g transform="translate(0.000000,32.000000) scale(0.100000,-0.100000)"
fill="#000000" stroke="none">
<path fill="#000000" stroke="none" d="M85 255 c43 -37 55 -42 56 -22 0 6 2
22 5 35 4 21 0 22 -49 22 l-52 -1 40 -34z"/>
<path fill="#000000" stroke="none" d="M174 258 c5 -45 25 -45 66 -3 l34 35
-52 0 -52 0 4 -32z"/>
<path fill="#000000" stroke="none" d="M256 239 c-21 -28 -37 -52 -34 -54 2
-2 16 -6 32 -9 49 -9 49 -25 0 -30 -41 -5 -41 -23 2 -67 50 -52 37 -61 -21
-14 -25 21 -47 36 -50 34 -2 -3 -6 -17 -9 -33 -9 -49 -25 -49 -30 0 -5 42 -22
40 -71 -5 l-45 -41 135 0 135 0 0 135 c0 74 -1 135 -2 135 -2 -1 -20 -23 -42
-51z"/>
<path fill="#000000" stroke="none" d="M30 222 l0 -52 33 4 c44 5 44 25 2 66
l-35 34 0 -52z"/>
<path fill="#000000" stroke="none" d="M144 169 c-10 -17 13 -36 27 -22 12 12
4 33 -11 33 -5 0 -12 -5 -16 -11z"/>
<path fill="#000000" stroke="none" d="M30 97 l1 -52 34 40 c37 43 42 55 23
56 -7 0 -23 2 -35 5 -22 4 -23 0 -23 -49z"/>
</g>
</svg>
