<?xml version="1.0" standalone="no"?>
<!DOCTYPE svg PUBLIC "-//W3C//DTD SVG 20010904//EN"
 "http://www.w3.org/TR/2001/REC-SVG-20010904/DTD/svg10.dtd">
<svg version="1.0" xmlns="http://www.w3.org/2000/svg"
 width="32.000000pt" height="32.000000pt" viewBox="0 0 32.000000 32.000000"
 preserveAspectRatio="xMidYMid meet">
<metadata>
Created by potrace 1.16, written by Peter Selinger 2001-2019
</metadata>
<g transform="translate(0.000000,32.000000) scale(0.100000,-0.100000)"
fill="#000000" stroke="none">
<path fill="#000000" stroke="none" d="M0 160 l0 -160 160 0 160 0 0 160 0
160 -160 0 -160 0 0 -160z"/>
<path fill="#ffffff" stroke="none" d="M168 293 l-137 -4 -4 -137 -3 -137 -2
143 -2 142 143 -2 142 -2 -137 -3z"/>
<path fill="#ffffff" stroke="none" d="M199 156 c7 -9 19 -16 25 -16 7 0 20
-6 30 -13 18 -13 18 -15 2 -39 -42 -64 -150 -64 -192 1 -16 23 -16 26 1 36 42
25 66 49 82 83 l17 37 11 -36 c5 -20 16 -44 24 -53z"/>
<path fill="#000000" stroke="none" d="M81 121 c-11 -7 -9 -11 7 -20 29 -15
124 -14 147 2 17 13 17 14 -4 20 -11 3 -19 2 -16 -3 7 -11 -21 -20 -65 -20
-24 0 -42 6 -47 15 -5 9 -13 11 -22 6z"/>
<path fill="#000000" stroke="none" d="M101 68 c27 -23 91 -23 118 0 21 17 20
17 -59 17 -79 0 -80 0 -59 -17z"/>
</g>
</svg>
