<?xml version="1.0" standalone="no"?>
<!DOCTYPE svg PUBLIC "-//W3C//DTD SVG 20010904//EN"
 "http://www.w3.org/TR/2001/REC-SVG-20010904/DTD/svg10.dtd">
<svg version="1.0" xmlns="http://www.w3.org/2000/svg"
 width="32.000000pt" height="32.000000pt" viewBox="0 0 32.000000 32.000000"
 preserveAspectRatio="xMidYMid meet">
<metadata>
Created by potrace 1.16, written by Peter Selinger 2001-2019
</metadata>
<g transform="translate(0.000000,32.000000) scale(0.100000,-0.100000)"
fill="#000000" stroke="none">
<path fill="#000000" stroke="none" d="M0 160 l0 -160 160 0 160 0 0 160 0
160 -160 0 -160 0 0 -160z"/>
<path fill="#ffffff" stroke="none" d="M163 293 l-132 -4 -4 -132 -3 -132 -2
138 -2 137 138 -2 137 -2 -132 -3z"/>
<path fill="#ffffff" stroke="none" d="M166 123 c-10 -10 -19 5 -10 18 6 11 8
11 12 0 2 -7 1 -15 -2 -18z"/>
<path fill="#ffffff" stroke="none" d="M72 123 c-6 -2 -9 -10 -6 -15 4 -7 2
-8 -5 -4 -13 9 -5 26 12 25 9 0 8 -2 -1 -6z"/>
<path fill="#ffffff" stroke="none" d="M205 110 c-11 -5 -31 -8 -45 -8 -23 0
-22 1 5 8 42 11 65 11 40 0z"/>
<path fill="#ffffff" stroke="none" d="M188 83 c-16 -2 -40 -2 -55 0 -16 2 -3
4 27 4 30 0 43 -2 28 -4z"/>
</g>
</svg>
