<?xml version="1.0" standalone="no"?>
<!DOCTYPE svg PUBLIC "-//W3C//DTD SVG 20010904//EN"
 "http://www.w3.org/TR/2001/REC-SVG-20010904/DTD/svg10.dtd">
<svg version="1.0" xmlns="http://www.w3.org/2000/svg"
 width="32.000000pt" height="32.000000pt" viewBox="0 0 32.000000 32.000000"
 preserveAspectRatio="xMidYMid meet">
<metadata>
Created by potrace 1.16, written by Peter Selinger 2001-2019
</metadata>
<g transform="translate(0.000000,32.000000) scale(0.100000,-0.100000)"
fill="#000000" stroke="none">
<path fill="#000000" stroke="none" d="M30 160 c0 -72 3 -131 8 -132 4 0 64
-2 133 -3 l125 -1 0 133 0 133 -133 0 -133 0 0 -130z"/>
<path fill="#ffffff" stroke="none" d="M93 239 c12 -8 87 9 105 23 10 9 18 9
32 0 11 -6 27 -9 37 -6 10 3 3 -3 -14 -15 -40 -25 -41 -35 -8 -65 26 -24 35
-79 14 -92 -6 -3 -9 -15 -6 -25 7 -25 -7 -24 -24 1 -23 32 -64 36 -92 8 -24
-24 -24 -24 -33 -4 -6 14 -18 21 -37 21 -15 -1 -26 2 -24 5 2 3 11 23 21 44
16 36 16 40 2 48 -18 10 -21 43 -6 53 6 4 8 16 5 28 -6 21 -6 21 6 2 7 -11 17
-23 22 -26z"/>
<path fill="#ffffff" stroke="none" d="M88 68 c19 -19 14 -28 -18 -28 -16 0
-30 4 -30 8 0 9 21 32 30 32 3 0 11 -5 18 -12z"/>
<path fill="#000000" stroke="none" d="M200 245 c0 -8 7 -15 15 -15 8 0 15 7
15 15 0 8 -7 15 -15 15 -8 0 -15 -7 -15 -15z"/>
<path fill="#000000" stroke="none" d="M137 233 c-42 -6 -31 -35 20 -53 55
-18 75 -4 49 34 -9 15 -22 25 -29 25 -6 -1 -25 -4 -40 -6z"/>
<path fill="#000000" stroke="none" d="M60 210 c0 -13 7 -20 20 -20 17 0 19
-3 10 -19 -5 -11 -10 -31 -10 -44 0 -33 42 -45 77 -22 32 22 26 46 -20 70 -21
11 -37 28 -37 38 0 10 -8 17 -20 17 -13 0 -20 -7 -20 -20z"/>
<path fill="#ffffff" stroke="none" d="M90 210 c0 -5 -4 -10 -10 -10 -5 0 -10
5 -10 10 0 6 5 10 10 10 6 0 10 -4 10 -10z"/>
<path fill="#000000" stroke="none" d="M200 146 c-27 -33 18 -72 48 -42 13 13
14 20 6 34 -15 23 -38 26 -54 8z"/>
<path fill="#ffffff" stroke="none" d="M239 114 c-9 -11 -15 -12 -25 -3 -11 9
-12 15 -3 25 9 11 15 12 25 3 11 -9 12 -15 3 -25z"/>
</g>
</svg>
