<?xml version="1.0" standalone="no"?>
<!DOCTYPE svg PUBLIC "-//W3C//DTD SVG 20010904//EN"
 "http://www.w3.org/TR/2001/REC-SVG-20010904/DTD/svg10.dtd">
<svg version="1.0" xmlns="http://www.w3.org/2000/svg"
 width="32.000000pt" height="32.000000pt" viewBox="0 0 32.000000 32.000000"
 preserveAspectRatio="xMidYMid meet">
<metadata>
Created by potrace 1.16, written by Peter Selinger 2001-2019
</metadata>
<g transform="translate(0.000000,32.000000) scale(0.100000,-0.100000)"
fill="#000000" stroke="none">
<path fill="#000000" stroke="none" d="M0 160 l0 -160 160 0 160 0 0 160 0
160 -160 0 -160 0 0 -160z"/>
<path fill="#ffffff" stroke="none" d="M93 232 c-1 -5 -3 -26 -5 -45 -3 -51
-18 -35 -18 19 0 32 4 44 13 41 6 -2 11 -9 10 -15z"/>
<path fill="#ffffff" stroke="none" d="M259 223 c-1 -17 -3 -21 -6 -10 -2 9
-12 17 -21 18 -14 0 -13 2 3 9 11 5 21 9 23 9 1 1 1 -11 1 -26z"/>
<path fill="#ffffff" stroke="none" d="M188 133 l-22 -23 -23 22 -23 22 22 23
22 23 23 -22 23 -22 -22 -23z"/>
<path fill="#ffffff" stroke="none" d="M260 139 c0 -5 -4 -9 -8 -9 -5 0 -9 7
-9 15 0 8 4 12 9 9 4 -3 8 -9 8 -15z"/>
<path fill="#ffffff" stroke="none" d="M90 100 c0 -11 -4 -20 -10 -20 -5 0
-10 9 -10 20 0 11 5 20 10 20 6 0 10 -9 10 -20z"/>
<path fill="#ffffff" stroke="none" d="M257 73 c-3 -10 -5 -2 -5 17 0 19 2 27
5 18 2 -10 2 -26 0 -35z"/>
<path fill="#000000" stroke="none" d="M147 172 c-16 -18 -16 -20 1 -35 18
-16 20 -16 35 1 16 18 16 20 -1 35 -18 16 -20 16 -35 -1z"/>
<path fill="#ffffff" stroke="none" d="M179 144 c-9 -11 -15 -12 -25 -3 -11 9
-12 15 -3 25 9 11 15 12 25 3 11 -9 12 -15 3 -25z"/>
</g>
</svg>
