<?xml version="1.0" standalone="no"?>
<!DOCTYPE svg PUBLIC "-//W3C//DTD SVG 20010904//EN"
 "http://www.w3.org/TR/2001/REC-SVG-20010904/DTD/svg10.dtd">
<svg version="1.0" xmlns="http://www.w3.org/2000/svg"
 width="32.000000pt" height="32.000000pt" viewBox="0 0 32.000000 32.000000"
 preserveAspectRatio="xMidYMid meet">
<metadata>
Created by potrace 1.16, written by Peter Selinger 2001-2019
</metadata>
<g transform="translate(0.000000,32.000000) scale(0.100000,-0.100000)"
fill="#000000" stroke="none">
<path fill="#000000" stroke="none" d="M0 160 l0 -160 160 0 160 0 0 160 0
160 -160 0 -160 0 0 -160z"/>
<path fill="#ffffff" stroke="none" d="M203 296 c-8 -4 -34 -5 -58 -2 -45 7
-67 -6 -46 -27 15 -15 110 -15 123 0 14 18 38 16 60 -4 22 -20 23 -46 1 -64
-15 -13 -15 -12 -2 9 27 44 -20 78 -64 46 l-23 -17 23 -23 c48 -48 11 -134
-57 -134 -68 0 -105 86 -57 133 l22 22 -25 21 c-37 33 -15 51 59 50 38 -1 54
-4 44 -10z"/>
<path fill="#ffffff" stroke="none" d="M27 90 c-14 -38 -1 -64 37 -68 30 -4
48 24 25 39 -10 6 -11 9 -1 9 19 0 26 -28 12 -45 -16 -20 -49 -19 -72 2 -20
18 -23 45 -8 74 16 29 20 23 7 -11z"/>
</g>
</svg>
