<?xml version="1.0" standalone="no"?>
<!DOCTYPE svg PUBLIC "-//W3C//DTD SVG 20010904//EN"
 "http://www.w3.org/TR/2001/REC-SVG-20010904/DTD/svg10.dtd">
<svg version="1.0" xmlns="http://www.w3.org/2000/svg"
 width="32.000000pt" height="32.000000pt" viewBox="0 0 32.000000 32.000000"
 preserveAspectRatio="xMidYMid meet">
<metadata>
Created by potrace 1.16, written by Peter Selinger 2001-2019
</metadata>
<g transform="translate(0.000000,32.000000) scale(0.100000,-0.100000)"
fill="#000000" stroke="none">
<path fill="#000000" stroke="none" d="M0 160 l0 -160 160 0 160 0 0 160 0
160 -160 0 -160 0 0 -160z"/>
<path fill="#ffffff" stroke="none" d="M150 300 c11 -7 6 -8 -16 -4 -42 8 -55
-13 -24 -38 12 -10 18 -18 13 -18 -6 0 -18 9 -28 20 -15 16 -15 22 -5 35 14
17 38 19 60 5z"/>
<path fill="#ffffff" stroke="none" d="M282 263 c10 -9 18 -21 18 -27 0 -6 -7
0 -16 12 -18 25 -46 29 -64 7 -7 -8 -17 -15 -22 -15 -16 0 35 39 51 40 8 0 23
-7 33 -17z"/>
<path fill="#ffffff" stroke="none" d="M175 251 c7 -12 -12 -24 -25 -16 -11 7
-4 25 10 25 5 0 11 -4 15 -9z"/>
<path fill="#ffffff" stroke="none" d="M71 214 c19 -17 15 -44 -6 -44 -8 0
-10 9 -7 27 4 22 2 25 -12 20 -10 -4 -15 -3 -11 3 9 14 16 13 36 -6z"/>
<path fill="#ffffff" stroke="none" d="M195 196 c-2 -17 -6 -43 -8 -58 -3 -18
-1 -27 6 -25 14 2 12 -27 -3 -68 -10 -27 -11 -27 -25 -9 -8 10 -15 15 -15 9 0
-5 -5 -3 -10 5 -5 8 -7 24 -4 35 3 13 -2 28 -15 39 -26 24 -27 48 -1 71 11 10
18 20 16 24 -2 3 11 6 29 7 31 0 33 -1 30 -30z"/>
<path fill="#ffffff" stroke="none" d="M220 145 c-7 -9 -15 -13 -17 -11 -7 7
7 26 19 26 6 0 6 -6 -2 -15z"/>
<path fill="#ffffff" stroke="none" d="M273 80 c8 0 14 -7 14 -15 0 -13 -3
-13 -24 0 -13 9 -29 13 -35 9 -6 -4 -9 -3 -6 2 3 5 8 18 12 29 8 19 8 19 17
-2 4 -13 15 -23 22 -23z"/>
<path fill="#ffffff" stroke="none" d="M117 54 c3 -8 0 -21 -6 -27 -9 -9 -11
-8 -5 7 4 11 2 21 -7 27 -10 6 -11 9 -1 9 7 0 15 -7 19 -16z"/>
<path fill="#ffffff" stroke="none" d="M63 11 c-4 -6 -43 30 -43 40 0 5 10 -2
23 -14 13 -12 22 -24 20 -26z"/>
</g>
</svg>
