<?xml version="1.0" standalone="no"?>
<!DOCTYPE svg PUBLIC "-//W3C//DTD SVG 20010904//EN"
 "http://www.w3.org/TR/2001/REC-SVG-20010904/DTD/svg10.dtd">
<svg version="1.0" xmlns="http://www.w3.org/2000/svg"
 width="32.000000pt" height="32.000000pt" viewBox="0 0 32.000000 32.000000"
 preserveAspectRatio="xMidYMid meet">
<metadata>
Created by potrace 1.16, written by Peter Selinger 2001-2019
</metadata>
<g transform="translate(0.000000,32.000000) scale(0.100000,-0.100000)"
fill="#000000" stroke="none">
<path fill="#000000" stroke="none" d="M89 294 c-12 -14 -9 -20 16 -40 22 -18
32 -20 43 -12 10 9 18 6 35 -12 l22 -24 -22 18 c-22 19 -23 19 -45 0 -12 -10
-18 -13 -14 -7 5 9 2 11 -9 6 -9 -3 -13 -9 -8 -12 5 -3 9 -25 9 -48 0 -27 6
-49 18 -62 l19 -20 18 23 c11 13 19 40 19 60 0 22 6 38 16 44 15 8 15 10 -1
15 -21 9 -10 26 29 43 17 7 24 13 15 14 -9 0 -27 -9 -41 -20 -18 -14 -28 -16
-36 -8 -8 8 -15 8 -24 0 -10 -8 -20 -6 -38 8 -20 15 -22 20 -11 34 7 9 11 16
8 16 -2 0 -11 -7 -18 -16z"/>
<path fill="#ffffff" stroke="none" d="M170 196 c0 -2 -8 -10 -17 -17 -16 -13
-17 -12 -4 4 13 16 21 21 21 13z"/>
<path fill="#ffffff" stroke="none" d="M176 123 c-7 -18 -31 -12 -32 8 0 8 7
22 15 33 15 18 16 18 19 -4 2 -12 1 -28 -2 -37z"/>
</g>
</svg>
