<?xml version="1.0" standalone="no"?>
<!DOCTYPE svg PUBLIC "-//W3C//DTD SVG 20010904//EN"
 "http://www.w3.org/TR/2001/REC-SVG-20010904/DTD/svg10.dtd">
<svg version="1.0" xmlns="http://www.w3.org/2000/svg"
 width="32.000000pt" height="32.000000pt" viewBox="0 0 32.000000 32.000000"
 preserveAspectRatio="xMidYMid meet">
<metadata>
Created by potrace 1.16, written by Peter Selinger 2001-2019
</metadata>
<g transform="translate(0.000000,32.000000) scale(0.100000,-0.100000)"
fill="#000000" stroke="none">
<path fill="#000000" stroke="none" d="M90 295 c-10 -13 -10 -19 5 -35 19 -21
45 -27 45 -10 0 5 -6 7 -13 4 -8 -3 -20 2 -27 11 -10 12 -10 18 0 30 7 8 10
15 7 15 -2 0 -10 -7 -17 -15z"/>
<path fill="#000000" stroke="none" d="M220 265 c-7 -9 -19 -14 -27 -11 -7 3
-13 1 -13 -4 0 -13 27 -13 35 1 4 6 17 14 29 19 15 6 16 9 5 9 -9 1 -22 -6
-29 -14z"/>
<path fill="#000000" stroke="none" d="M101 216 c-16 -19 -21 -50 -10 -67 6
-10 9 -7 9 12 0 28 23 54 55 62 14 3 10 5 -11 6 -17 0 -37 -5 -43 -13z"/>
<path fill="#000000" stroke="none" d="M150 200 c0 -5 5 -10 10 -10 6 0 10 5
10 10 0 6 -4 10 -10 10 -5 0 -10 -4 -10 -10z"/>
<path fill="#000000" stroke="none" d="M195 199 c5 -13 -2 -16 -35 -16 -48 0
-51 -2 -43 -31 5 -20 25 -33 22 -14 -4 22 3 32 21 32 11 0 21 -4 21 -10 1 -5
2 -16 3 -22 1 -7 -10 -18 -24 -25 -24 -12 -24 -12 -2 -13 26 0 62 33 62 58 0
10 -7 27 -15 38 -10 13 -13 14 -10 3z"/>
</g>
</svg>
