<?xml version="1.0" standalone="no"?>
<!DOCTYPE svg PUBLIC "-//W3C//DTD SVG 20010904//EN"
 "http://www.w3.org/TR/2001/REC-SVG-20010904/DTD/svg10.dtd">
<svg version="1.0" xmlns="http://www.w3.org/2000/svg"
 width="32.000000pt" height="32.000000pt" viewBox="0 0 32.000000 32.000000"
 preserveAspectRatio="xMidYMid meet">
<metadata>
Created by potrace 1.16, written by Peter Selinger 2001-2019
</metadata>
<g transform="translate(0.000000,32.000000) scale(0.100000,-0.100000)"
fill="#000000" stroke="none">
<path fill="#000000" stroke="none" d="M0 160 l0 -160 160 0 160 0 0 160 0
160 -160 0 -160 0 0 -160z"/>
<path fill="#ffffff" stroke="none" d="M204 297 c-8 -4 -35 -7 -62 -5 -41 3
-47 1 -47 -17 0 -11 11 -25 25 -33 l25 -13 -25 3 c-21 3 -25 -2 -30 -32 -6
-35 -6 -35 29 -34 32 1 35 3 35 34 1 27 5 34 26 37 13 2 34 12 45 23 26 24 33
25 57 3 22 -20 23 -46 1 -64 -15 -13 -15 -12 -2 9 16 26 4 55 -27 60 -15 3
-17 1 -6 -9 6 -7 11 -24 11 -39 -1 -15 -3 -18 -6 -9 -5 20 -32 29 -59 19 -14
-6 -19 -16 -18 -36 1 -25 4 -29 28 -26 27 4 56 -12 56 -29 0 -5 -5 -9 -11 -9
-5 0 -8 3 -6 8 3 4 -11 7 -31 6 -34 -1 -36 -3 -36 -34 -1 -27 -5 -34 -26 -36
-14 -2 -20 -1 -14 3 7 5 14 22 15 38 4 28 2 30 -24 27 -15 -2 -35 2 -43 8 -16
14 -20 100 -4 100 5 0 7 7 4 15 -11 29 13 42 75 41 36 -1 54 -4 45 -9z"/>
<path fill="#ffffff" stroke="none" d="M137 206 c-3 -8 -1 -19 4 -25 6 -7 5
-8 -2 -2 -6 5 -17 7 -25 4 -8 -3 -12 2 -11 14 0 11 9 20 20 20 12 1 17 -3 14
-11z"/>
<path fill="#ffffff" stroke="none" d="M227 197 c1 -12 -3 -17 -11 -14 -8 3
-19 1 -25 -4 -7 -6 -8 -5 -2 2 5 6 7 17 4 25 -3 8 2 12 14 11 11 0 20 -9 20
-20z"/>
<path fill="#ffffff" stroke="none" d="M143 129 c-6 -6 -9 -17 -6 -25 3 -8 -2
-12 -14 -11 -11 0 -20 9 -20 20 -1 12 3 17 12 13 8 -3 17 -1 20 4 4 6 9 10 13
10 3 0 1 -5 -5 -11z"/>
<path fill="#ffffff" stroke="none" d="M216 127 c8 3 12 -2 11 -14 0 -11 -9
-20 -20 -20 -12 -1 -17 3 -14 11 3 8 1 19 -4 25 -6 7 -5 8 2 2 6 -5 17 -7 25
-4z"/>
<path fill="#ffffff" stroke="none" d="M90 99 c0 -10 -4 -19 -10 -19 -5 0 -10
12 -10 26 0 14 4 23 10 19 6 -3 10 -15 10 -26z"/>
<path fill="#ffffff" stroke="none" d="M27 90 c-14 -38 -1 -64 37 -68 30 -4
48 24 25 39 -10 6 -11 9 -1 9 19 0 26 -28 12 -45 -16 -20 -49 -19 -72 2 -20
18 -23 45 -8 74 16 29 20 23 7 -11z"/>
<path fill="#ffffff" stroke="none" d="M257 73 c-3 -10 -5 -2 -5 17 0 19 2 27
5 18 2 -10 2 -26 0 -35z"/>
</g>
</svg>
