<?xml version="1.0" standalone="no"?>
<!DOCTYPE svg PUBLIC "-//W3C//DTD SVG 20010904//EN"
 "http://www.w3.org/TR/2001/REC-SVG-20010904/DTD/svg10.dtd">
<svg version="1.0" xmlns="http://www.w3.org/2000/svg"
 width="32.000000pt" height="32.000000pt" viewBox="0 0 32.000000 32.000000"
 preserveAspectRatio="xMidYMid meet">
<metadata>
Created by potrace 1.16, written by Peter Selinger 2001-2019
</metadata>
<g transform="translate(0.000000,32.000000) scale(0.100000,-0.100000)"
fill="#000000" stroke="none">
<path fill="#000000" stroke="none" d="M0 160 l0 -160 160 0 160 0 0 160 0
160 -160 0 -160 0 0 -160z"/>
<path fill="#ffffff" stroke="none" d="M182 243 c10 -9 18 -21 18 -26 0 -6 -9
-2 -19 7 -11 10 -25 15 -30 11 -14 -8 -14 -25 0 -25 5 0 7 5 4 10 -3 6 -1 10
4 10 6 0 11 -7 11 -15 0 -8 -8 -15 -18 -15 -23 0 -42 -19 -42 -42 0 -21 39
-25 59 -6 11 11 13 10 9 -2 -3 -8 -14 -16 -26 -18 -23 -3 -30 -26 -12 -37 6
-3 10 1 10 9 0 9 8 16 18 15 10 0 12 -3 4 -6 -6 -2 -10 -9 -6 -14 3 -5 0 -9
-6 -9 -6 0 -8 -5 -4 -11 5 -8 1 -8 -13 0 -11 5 -25 23 -32 38 -14 34 -9 118 7
118 6 0 17 6 24 13 16 16 18 15 40 -5z"/>
<path fill="#ffffff" stroke="none" d="M185 183 c-11 -3 -26 -10 -32 -15 -8
-6 -13 -7 -13 -1 0 16 12 23 39 22 21 -1 22 -2 6 -6z"/>
<path fill="#ffffff" stroke="none" d="M211 87 c-6 -6 -11 -7 -11 -3 0 5 -7 3
-15 -4 -13 -10 -12 -7 2 18 15 25 19 28 26 16 6 -10 5 -20 -2 -27z"/>
</g>
</svg>
