<?xml version="1.0" standalone="no"?>
<!DOCTYPE svg PUBLIC "-//W3C//DTD SVG 20010904//EN"
 "http://www.w3.org/TR/2001/REC-SVG-20010904/DTD/svg10.dtd">
<svg version="1.0" xmlns="http://www.w3.org/2000/svg"
 width="32.000000pt" height="32.000000pt" viewBox="0 0 32.000000 32.000000"
 preserveAspectRatio="xMidYMid meet">
<metadata>
Created by potrace 1.16, written by Peter Selinger 2001-2019
</metadata>
<g transform="translate(0.000000,32.000000) scale(0.100000,-0.100000)"
fill="#000000" stroke="none">
<path fill="#000000" stroke="none" d="M0 160 l0 -160 160 0 160 0 0 160 0
160 -160 0 -160 0 0 -160z"/>
<path fill="#ffffff" stroke="none" d="M149 301 c10 -7 4 -9 -20 -8 -30 2 -34
-1 -34 -23 0 -18 5 -24 18 -22 16 3 16 1 5 -17 -14 -24 -30 -28 -22 -7 3 8 1
17 -5 21 -15 8 -14 38 1 53 14 14 37 15 57 3z"/>
<path fill="#ffffff" stroke="none" d="M198 220 c12 -18 22 -44 22 -57 0 -29
-22 -74 -45 -93 -15 -13 -20 -11 -41 13 -43 50 -44 99 -3 151 25 32 37 30 67
-14z"/>
<path fill="#ffffff" stroke="none" d="M225 100 c-9 -15 14 -40 36 -40 10 0
23 8 28 18 6 9 11 12 11 6 1 -30 -49 -45 -70 -20 -6 8 -18 12 -27 9 -13 -5
-13 -3 -2 16 8 11 17 21 22 21 4 0 5 -5 2 -10z"/>
<path fill="#ffffff" stroke="none" d="M53 21 c-4 -6 -43 30 -43 40 0 5 10 -2
23 -14 13 -12 22 -24 20 -26z"/>
<path fill="#000000" stroke="none" d="M176 143 c-6 -14 -5 -15 5 -6 7 7 10
15 7 18 -3 3 -9 -2 -12 -12z"/>
</g>
</svg>
