<?xml version="1.0" standalone="no"?>
<!DOCTYPE svg PUBLIC "-//W3C//DTD SVG 20010904//EN"
 "http://www.w3.org/TR/2001/REC-SVG-20010904/DTD/svg10.dtd">
<svg version="1.0" xmlns="http://www.w3.org/2000/svg"
 width="32.000000pt" height="32.000000pt" viewBox="0 0 32.000000 32.000000"
 preserveAspectRatio="xMidYMid meet">
<metadata>
Created by potrace 1.16, written by Peter Selinger 2001-2019
</metadata>
<g transform="translate(0.000000,32.000000) scale(0.100000,-0.100000)"
fill="#000000" stroke="none">
<path fill="#000000" stroke="none" d="M92 298 c-15 -15 -16 -45 -1 -53 6 -4
8 -13 5 -21 -8 -21 8 -17 22 7 11 18 11 20 -5 17 -13 -2 -18 4 -18 22 0 22 4
25 34 23 24 -1 30 1 20 8 -20 12 -43 11 -57 -3z"/>
<path fill="#000000" stroke="none" d="M131 234 c-41 -52 -40 -101 3 -151 21
-24 26 -26 41 -13 23 19 45 64 45 93 0 26 -37 88 -56 94 -7 2 -21 -8 -33 -23z"/>
<path fill="#ffffff" stroke="none" d="M181 137 c-10 -9 -11 -8 -5 6 3 10 9
15 12 12 3 -3 0 -11 -7 -18z"/>
<path fill="#000000" stroke="none" d="M201 89 c-11 -19 -11 -21 2 -16 9 3 21
-1 27 -9 21 -25 71 -10 70 20 0 6 -5 3 -11 -6 -5 -10 -18 -18 -28 -18 -22 0
-45 25 -36 40 3 5 2 10 -2 10 -5 0 -14 -10 -22 -21z"/>
<path fill="#000000" stroke="none" d="M10 61 c0 -10 39 -46 43 -40 2 2 -7 14
-20 26 -13 12 -23 19 -23 14z"/>
</g>
</svg>
