<?xml version="1.0" standalone="no"?>
<!DOCTYPE svg PUBLIC "-//W3C//DTD SVG 20010904//EN"
 "http://www.w3.org/TR/2001/REC-SVG-20010904/DTD/svg10.dtd">
<svg version="1.0" xmlns="http://www.w3.org/2000/svg"
 width="32.000000pt" height="32.000000pt" viewBox="0 0 32.000000 32.000000"
 preserveAspectRatio="xMidYMid meet">
<metadata>
Created by potrace 1.16, written by Peter Selinger 2001-2019
</metadata>
<g transform="translate(0.000000,32.000000) scale(0.100000,-0.100000)"
fill="#000000" stroke="none">
<path fill="#000000" stroke="none" d="M197 248 c-28 -8 -37 -14 -32 -26 8
-21 -45 -97 -56 -80 -4 7 -2 19 4 27 10 11 9 13 -3 9 -9 -3 -15 -17 -16 -35 0
-17 -8 -43 -18 -58 l-17 -26 26 17 c15 10 41 18 58 18 18 1 32 7 35 16 4 12 2
13 -9 3 -8 -6 -20 -8 -27 -4 -17 10 59 64 80 56 12 -5 18 5 27 39 16 65 19 63
-52 44z"/>
</g>
</svg>
