<?xml version="1.0" standalone="no"?>
<!DOCTYPE svg PUBLIC "-//W3C//DTD SVG 20010904//EN"
 "http://www.w3.org/TR/2001/REC-SVG-20010904/DTD/svg10.dtd">
<svg version="1.0" xmlns="http://www.w3.org/2000/svg"
 width="32.000000pt" height="32.000000pt" viewBox="0 0 32.000000 32.000000"
 preserveAspectRatio="xMidYMid meet">
<metadata>
Created by potrace 1.16, written by Peter Selinger 2001-2019
</metadata>
<g transform="translate(0.000000,32.000000) scale(0.100000,-0.100000)"
fill="#000000" stroke="none">
<path fill="#000000" stroke="none" d="M170 245 c-12 -14 -11 -31 5 -82 10
-30 -25 -48 -66 -34 -23 8 -29 7 -29 -4 0 -8 4 -17 10 -20 5 -3 10 -15 10 -26
0 -15 7 -19 38 -19 74 0 107 77 60 140 -16 22 -19 33 -11 41 13 13 43 5 43
-12 0 -6 -7 -8 -17 -4 -14 5 -15 3 -6 -6 15 -15 33 -3 33 22 0 14 -7 19 -29
19 -16 0 -34 -7 -41 -15z"/>
</g>
</svg>
