<?xml version="1.0" standalone="no"?>
<!DOCTYPE svg PUBLIC "-//W3C//DTD SVG 20010904//EN"
 "http://www.w3.org/TR/2001/REC-SVG-20010904/DTD/svg10.dtd">
<svg version="1.0" xmlns="http://www.w3.org/2000/svg"
 width="32.000000pt" height="32.000000pt" viewBox="0 0 32.000000 32.000000"
 preserveAspectRatio="xMidYMid meet">
<metadata>
Created by potrace 1.16, written by Peter Selinger 2001-2019
</metadata>
<g transform="translate(0.000000,32.000000) scale(0.100000,-0.100000)"
fill="#000000" stroke="none">
<path fill="#000000" stroke="none" d="M0 160 l0 -160 160 0 160 0 0 160 0
160 -160 0 -160 0 0 -160z"/>
<path fill="#ffffff" stroke="none" d="M240 241 c0 -25 -18 -37 -33 -22 -9 9
-8 11 6 6 10 -4 17 -2 17 4 0 17 -30 25 -43 12 -8 -8 -5 -19 11 -41 47 -63 14
-140 -60 -140 -31 0 -38 4 -38 19 0 11 -5 23 -10 26 -6 3 -10 12 -10 20 0 11
6 12 29 4 41 -14 76 4 66 34 -22 73 -13 97 36 97 22 0 29 -5 29 -19z"/>
</g>
</svg>
