<?xml version="1.0" standalone="no"?>
<!DOCTYPE svg PUBLIC "-//W3C//DTD SVG 20010904//EN"
 "http://www.w3.org/TR/2001/REC-SVG-20010904/DTD/svg10.dtd">
<svg version="1.0" xmlns="http://www.w3.org/2000/svg"
 width="32.000000pt" height="32.000000pt" viewBox="0 0 32.000000 32.000000"
 preserveAspectRatio="xMidYMid meet">
<metadata>
Created by potrace 1.16, written by Peter Selinger 2001-2019
</metadata>
<g transform="translate(0.000000,32.000000) scale(0.100000,-0.100000)"
fill="#000000" stroke="none">
<path fill="#000000" stroke="none" d="M90 191 c0 -42 1 -43 18 -28 10 10 29
17 43 17 43 0 69 12 69 30 0 15 -10 19 -65 22 l-65 3 0 -44z"/>
<path fill="#000000" stroke="none" d="M45 221 c-3 -6 4 -15 15 -21 17 -9 20
-8 20 10 0 20 -24 28 -35 11z"/>
<path fill="#000000" stroke="none" d="M230 210 c0 -11 5 -20 10 -20 6 0 10 9
10 20 0 11 -4 20 -10 20 -5 0 -10 -9 -10 -20z"/>
</g>
</svg>
