<?xml version="1.0" standalone="no"?>
<!DOCTYPE svg PUBLIC "-//W3C//DTD SVG 20010904//EN"
 "http://www.w3.org/TR/2001/REC-SVG-20010904/DTD/svg10.dtd">
<svg version="1.0" xmlns="http://www.w3.org/2000/svg"
 width="32.000000pt" height="32.000000pt" viewBox="0 0 32.000000 32.000000"
 preserveAspectRatio="xMidYMid meet">
<metadata>
Created by potrace 1.16, written by Peter Selinger 2001-2019
</metadata>
<g transform="translate(0.000000,32.000000) scale(0.100000,-0.100000)"
fill="#000000" stroke="none">
<path fill="#000000" stroke="none" d="M191 258 c-1 -16 -41 -22 -41 -6 0 4
-4 8 -10 8 -5 0 -10 -9 -10 -19 0 -23 -16 -37 -23 -19 -3 10 -37 -52 -37 -67
0 -2 13 10 29 26 19 19 40 29 59 29 37 0 82 -35 82 -62 0 -12 3 -19 6 -15 10
10 -5 55 -25 74 -11 10 -21 29 -24 43 -2 14 -5 17 -6 8z"/>
<path fill="#000000" stroke="none" d="M113 185 c-11 -8 -23 -28 -25 -45 -6
-40 21 -60 78 -60 48 0 70 20 66 59 -6 53 -72 79 -119 46z"/>
<path fill="#ffffff" stroke="none" d="M200 155 c17 -21 -4 -45 -40 -45 -36 0
-57 24 -40 45 7 8 25 15 40 15 15 0 33 -7 40 -15z"/>
<path fill="#ffffff" stroke="none" d="M160 100 c17 0 41 5 53 11 21 10 21 10
3 -5 -11 -9 -36 -16 -56 -16 -20 0 -45 7 -56 16 -18 15 -18 15 3 5 12 -6 36
-11 53 -11z"/>
<path fill="#000000" stroke="none" d="M142 143 c-12 -22 -11 -23 18 -23 25 0
30 4 30 23 -1 21 -1 21 -14 4 -14 -18 -14 -18 -18 0 -3 16 -5 16 -16 -4z"/>
</g>
</svg>
