<?xml version="1.0" standalone="no"?>
<!DOCTYPE svg PUBLIC "-//W3C//DTD SVG 20010904//EN"
 "http://www.w3.org/TR/2001/REC-SVG-20010904/DTD/svg10.dtd">
<svg version="1.0" xmlns="http://www.w3.org/2000/svg"
 width="32.000000pt" height="32.000000pt" viewBox="0 0 32.000000 32.000000"
 preserveAspectRatio="xMidYMid meet">
<metadata>
Created by potrace 1.16, written by Peter Selinger 2001-2019
</metadata>
<g transform="translate(0.000000,32.000000) scale(0.100000,-0.100000)"
fill="#000000" stroke="none">
<path fill="#000000" stroke="none" d="M0 160 l0 -160 160 0 160 0 0 160 0
160 -160 0 -160 0 0 -160z"/>
<path fill="#ffffff" stroke="none" d="M163 232 c10 -10 14 -21 11 -24 -3 -3
0 -9 7 -14 8 -4 10 -3 5 4 -10 17 9 15 24 -3 6 -8 10 -20 7 -27 -4 -8 -6 -7
-6 5 -1 20 -2 20 -36 7 -21 -8 -26 -7 -22 2 3 8 -5 14 -21 15 -18 1 -21 -1
-11 -8 8 -5 9 -9 3 -9 -6 0 -16 -10 -22 -22 -11 -23 -11 -23 -11 4 -1 17 8 34
25 47 14 11 23 25 19 31 -11 17 11 11 28 -8z"/>
<path fill="#ffffff" stroke="none" d="M208 234 c-9 -9 -21 -13 -27 -9 -16 10
-3 25 22 25 20 0 20 -1 5 -16z"/>
<path fill="#ffffff" stroke="none" d="M205 131 c-8 -13 -82 -15 -89 -2 -4 5
11 7 33 4 24 -3 41 -1 46 7 4 6 9 9 12 6 3 -2 2 -9 -2 -15z"/>
</g>
</svg>
