<?xml version="1.0" standalone="no"?>
<!DOCTYPE svg PUBLIC "-//W3C//DTD SVG 20010904//EN"
 "http://www.w3.org/TR/2001/REC-SVG-20010904/DTD/svg10.dtd">
<svg version="1.0" xmlns="http://www.w3.org/2000/svg"
 width="32.000000pt" height="32.000000pt" viewBox="0 0 32.000000 32.000000"
 preserveAspectRatio="xMidYMid meet">
<metadata>
Created by potrace 1.16, written by Peter Selinger 2001-2019
</metadata>
<g transform="translate(0.000000,32.000000) scale(0.100000,-0.100000)"
fill="#000000" stroke="none">
<path fill="#000000" stroke="none" d="M135 240 c4 -6 -5 -20 -19 -31 -49 -39
-24 -88 45 -89 58 0 87 44 53 82 -14 15 -15 20 -3 34 11 14 10 15 -11 12 -16
-2 -24 -9 -22 -18 3 -11 -1 -11 -16 3 -21 19 -37 23 -27 7z"/>
<path fill="#ffffff" stroke="none" d="M150 181 c0 -6 12 -6 28 -1 23 6 29 4
29 -9 1 -39 -46 -54 -87 -29 -18 11 -18 14 -3 30 17 20 33 24 33 9z"/>
</g>
</svg>
