<?xml version="1.0" standalone="no"?>
<!DOCTYPE svg PUBLIC "-//W3C//DTD SVG 20010904//EN"
 "http://www.w3.org/TR/2001/REC-SVG-20010904/DTD/svg10.dtd">
<svg version="1.0" xmlns="http://www.w3.org/2000/svg"
 width="32.000000pt" height="32.000000pt" viewBox="0 0 32.000000 32.000000"
 preserveAspectRatio="xMidYMid meet">
<metadata>
Created by potrace 1.16, written by Peter Selinger 2001-2019
</metadata>
<g transform="translate(0.000000,32.000000) scale(0.100000,-0.100000)"
fill="#000000" stroke="none">
<path fill="#000000" stroke="none" d="M190 211 c0 -5 7 -12 16 -15 14 -5 15
-4 4 9 -14 17 -20 19 -20 6z"/>
<path fill="#000000" stroke="none" d="M124 202 c2 -2 -4 -12 -15 -23 -10 -10
-19 -26 -19 -34 0 -12 4 -11 20 5 13 13 33 20 56 20 30 0 34 2 25 14 -6 8 -25
16 -41 18 -17 3 -28 3 -26 0z"/>
<path fill="#000000" stroke="none" d="M148 103 c7 -3 16 -2 19 1 4 3 -2 6
-13 5 -11 0 -14 -3 -6 -6z"/>
</g>
</svg>
