<?xml version="1.0" standalone="no"?>
<!DOCTYPE svg PUBLIC "-//W3C//DTD SVG 20010904//EN"
 "http://www.w3.org/TR/2001/REC-SVG-20010904/DTD/svg10.dtd">
<svg version="1.0" xmlns="http://www.w3.org/2000/svg"
 width="32.000000pt" height="32.000000pt" viewBox="0 0 32.000000 32.000000"
 preserveAspectRatio="xMidYMid meet">
<metadata>
Created by potrace 1.16, written by Peter Selinger 2001-2019
</metadata>
<g transform="translate(0.000000,32.000000) scale(0.100000,-0.100000)"
fill="#000000" stroke="none">
<path fill="#000000" stroke="none" d="M123 224 c-26 -23 -33 -38 -33 -67 0
-42 19 -57 72 -57 52 0 70 18 66 65 -2 34 -8 42 -35 55 -18 8 -33 20 -35 25
-2 6 -18 -4 -35 -21z"/>
<path fill="#ffffff" stroke="none" d="M160 158 c0 -9 3 -8 10 2 8 13 11 13
26 -2 14 -14 15 -20 4 -32 -16 -20 -64 -21 -80 -1 -10 12 -10 18 0 30 15 18
40 20 40 3z"/>
<path fill="#000000" stroke="none" d="M123 135 c2 -5 19 -10 37 -10 18 0 35
5 37 10 2 6 -15 10 -37 10 -22 0 -39 -4 -37 -10z"/>
</g>
</svg>
