<?xml version="1.0" standalone="no"?>
<!DOCTYPE svg PUBLIC "-//W3C//DTD SVG 20010904//EN"
 "http://www.w3.org/TR/2001/REC-SVG-20010904/DTD/svg10.dtd">
<svg version="1.0" xmlns="http://www.w3.org/2000/svg"
 width="32.000000pt" height="32.000000pt" viewBox="0 0 32.000000 32.000000"
 preserveAspectRatio="xMidYMid meet">
<metadata>
Created by potrace 1.16, written by Peter Selinger 2001-2019
</metadata>
<g transform="translate(0.000000,32.000000) scale(0.100000,-0.100000)"
fill="#000000" stroke="none">
<path fill="#000000" stroke="none" d="M151 253 c0 -7 -13 -24 -28 -39 -28
-26 -28 -26 -3 -14 l25 13 -22 -25 c-30 -32 -29 -40 4 -23 25 13 29 13 34 -3
5 -12 9 -6 14 21 4 21 5 41 1 44 -3 4 -7 -2 -7 -13 -1 -10 -5 -3 -9 16 -4 19
-8 30 -9 23z"/>
</g>
</svg>
