<?xml version="1.0" standalone="no"?>
<!DOCTYPE svg PUBLIC "-//W3C//DTD SVG 20010904//EN"
 "http://www.w3.org/TR/2001/REC-SVG-20010904/DTD/svg10.dtd">
<svg version="1.0" xmlns="http://www.w3.org/2000/svg"
 width="32.000000pt" height="32.000000pt" viewBox="0 0 32.000000 32.000000"
 preserveAspectRatio="xMidYMid meet">
<metadata>
Created by potrace 1.16, written by Peter Selinger 2001-2019
</metadata>
<g transform="translate(0.000000,32.000000) scale(0.100000,-0.100000)"
fill="#000000" stroke="none">
<path fill="#000000" stroke="none" d="M0 160 l0 -160 160 0 160 0 0 160 0
160 -160 0 -160 0 0 -160z"/>
<path fill="#ffffff" stroke="none" d="M186 228 c3 -5 13 -3 22 4 14 12 14 10
3 -10 -10 -20 -10 -26 2 -35 8 -7 17 -24 21 -39 5 -22 2 -28 -16 -34 -21 -7
-20 -8 12 -17 l35 -9 -25 -14 c-24 -13 -55 -13 -134 3 -26 5 -27 6 -11 16 15
8 16 12 4 21 -22 17 -20 48 4 69 16 14 18 20 8 26 -9 6 -7 10 9 14 12 3 19 10
16 15 -3 5 6 7 19 4 14 -2 28 -9 31 -14z"/>
<path fill="#ffffff" stroke="none" d="M80 60 c-8 -5 -24 -10 -35 -10 -17 0
-17 2 -5 10 8 5 24 10 35 10 17 0 17 -2 5 -10z"/>
<path fill="#ffffff" stroke="none" d="M137 44 c-3 -3 -12 -4 -19 -1 -8 3 -5
6 6 6 11 1 17 -2 13 -5z"/>
<path fill="#000000" stroke="none" d="M155 210 c-3 -5 -1 -10 4 -10 6 0 11 5
11 10 0 6 -2 10 -4 10 -3 0 -8 -4 -11 -10z"/>
<path fill="#000000" stroke="none" d="M121 148 c-11 -18 3 -34 29 -33 25 2
60 16 60 25 0 26 -73 33 -89 8z"/>
<path fill="#000000" stroke="none" d="M143 93 c9 -2 25 -2 35 0 9 3 1 5 -18
5 -19 0 -27 -2 -17 -5z"/>
</g>
</svg>
