<?xml version="1.0" standalone="no"?>
<!DOCTYPE svg PUBLIC "-//W3C//DTD SVG 20010904//EN"
 "http://www.w3.org/TR/2001/REC-SVG-20010904/DTD/svg10.dtd">
<svg version="1.0" xmlns="http://www.w3.org/2000/svg"
 width="32.000000pt" height="32.000000pt" viewBox="0 0 32.000000 32.000000"
 preserveAspectRatio="xMidYMid meet">
<metadata>
Created by potrace 1.16, written by Peter Selinger 2001-2019
</metadata>
<g transform="translate(0.000000,32.000000) scale(0.100000,-0.100000)"
fill="#000000" stroke="none">
<path fill="#000000" stroke="none" d="M174 256 c-3 -8 -12 -12 -19 -10 -19 8
-57 -15 -52 -31 4 -9 -1 -11 -16 -8 -18 5 -20 3 -10 -8 16 -16 17 -33 2 -23
-6 3 -3 -5 6 -20 10 -14 22 -26 27 -26 6 0 5 -6 -2 -15 -16 -20 3 -27 59 -23
53 4 49 22 -4 21 -22 -1 -29 1 -15 3 60 11 69 16 83 43 12 25 12 29 1 24 -10
-4 -12 0 -8 11 4 11 2 16 -7 14 -9 -2 -14 5 -13 17 1 28 -24 52 -32 31z"/>
<path fill="#ffffff" stroke="none" d="M177 224 c-3 -3 -12 -4 -19 -1 -8 3 -5
6 6 6 11 1 17 -2 13 -5z"/>
<path fill="#ffffff" stroke="none" d="M204 170 c14 -14 -12 -40 -40 -40 -14
0 -33 5 -44 12 -18 12 -18 13 -2 31 17 19 65 18 86 -3z"/>
</g>
</svg>
