<?xml version="1.0" standalone="no"?>
<!DOCTYPE svg PUBLIC "-//W3C//DTD SVG 20010904//EN"
 "http://www.w3.org/TR/2001/REC-SVG-20010904/DTD/svg10.dtd">
<svg version="1.0" xmlns="http://www.w3.org/2000/svg"
 width="32.000000pt" height="32.000000pt" viewBox="0 0 32.000000 32.000000"
 preserveAspectRatio="xMidYMid meet">
<metadata>
Created by potrace 1.16, written by Peter Selinger 2001-2019
</metadata>
<g transform="translate(0.000000,32.000000) scale(0.100000,-0.100000)"
fill="#000000" stroke="none">
<path fill="#000000" stroke="none" d="M86 231 c-7 -11 18 -33 27 -24 4 3 7
12 7 20 0 15 -26 18 -34 4z"/>
<path fill="#000000" stroke="none" d="M135 231 c3 -6 -14 -29 -37 -52 -24
-23 -37 -39 -31 -35 7 4 23 -2 35 -13 28 -27 89 -28 111 -3 21 23 21 41 1 64
-14 14 -14 20 -4 33 10 13 9 15 -7 15 -10 0 -24 -5 -30 -11 -8 -8 -13 -8 -17
0 -4 6 -12 11 -17 11 -6 0 -8 -4 -4 -9z"/>
<path fill="#ffffff" stroke="none" d="M150 170 c0 -5 13 -5 28 0 23 6 29 4
29 -9 1 -39 -52 -55 -90 -27 -15 12 -15 15 -2 26 8 7 12 16 9 21 -3 5 2 6 10
3 9 -3 16 -10 16 -14z"/>
<path fill="#000000" stroke="none" d="M215 210 c-8 -13 15 -24 27 -12 6 6 4
11 -6 15 -8 3 -18 2 -21 -3z"/>
</g>
</svg>
