<?xml version="1.0" standalone="no"?>
<!DOCTYPE svg PUBLIC "-//W3C//DTD SVG 20010904//EN"
 "http://www.w3.org/TR/2001/REC-SVG-20010904/DTD/svg10.dtd">
<svg version="1.0" xmlns="http://www.w3.org/2000/svg"
 width="32.000000pt" height="32.000000pt" viewBox="0 0 32.000000 32.000000"
 preserveAspectRatio="xMidYMid meet">
<metadata>
Created by potrace 1.16, written by Peter Selinger 2001-2019
</metadata>
<g transform="translate(0.000000,32.000000) scale(0.100000,-0.100000)"
fill="#000000" stroke="none">
<path fill="#000000" stroke="none" d="M0 160 l0 -160 160 0 160 0 0 160 0
160 -160 0 -160 0 0 -160z"/>
<path fill="#ffffff" stroke="none" d="M120 227 c0 -8 -3 -17 -7 -20 -9 -9
-34 13 -27 24 8 14 34 11 34 -4z"/>
<path fill="#ffffff" stroke="none" d="M156 229 c4 -8 9 -8 17 0 6 6 20 11 30
11 16 0 17 -2 7 -15 -10 -13 -10 -19 4 -34 9 -10 16 -31 14 -47 -2 -26 -6 -29
-37 -32 -20 -1 -37 -7 -39 -12 -3 -9 -14 -3 -53 33 -11 10 -25 15 -32 11 -7
-4 6 11 29 33 22 22 38 45 36 51 -5 15 15 16 24 1z"/>
<path fill="#ffffff" stroke="none" d="M239 211 c9 -6 10 -11 2 -15 -13 -8
-31 1 -31 15 0 11 11 11 29 0z"/>
<path fill="#000000" stroke="none" d="M120 165 c-10 -12 -10 -18 0 -30 16
-19 64 -19 80 0 16 20 2 38 -26 32 -13 -2 -24 0 -24 4 0 14 -16 10 -30 -6z"/>
</g>
</svg>
