<?xml version="1.0" standalone="no"?>
<!DOCTYPE svg PUBLIC "-//W3C//DTD SVG 20010904//EN"
 "http://www.w3.org/TR/2001/REC-SVG-20010904/DTD/svg10.dtd">
<svg version="1.0" xmlns="http://www.w3.org/2000/svg"
 width="32.000000pt" height="32.000000pt" viewBox="0 0 32.000000 32.000000"
 preserveAspectRatio="xMidYMid meet">
<metadata>
Created by potrace 1.16, written by Peter Selinger 2001-2019
</metadata>
<g transform="translate(0.000000,32.000000) scale(0.100000,-0.100000)"
fill="#000000" stroke="none">
<path fill="#000000" stroke="none" d="M0 160 l0 -160 160 0 160 0 0 160 0
160 -160 0 -160 0 0 -160z"/>
<path fill="#ffffff" stroke="none" d="M150 240 c0 -5 9 -10 19 -10 10 0 21
-6 24 -14 5 -12 1 -13 -24 -4 -17 6 -33 8 -36 4 -4 -3 -1 -6 5 -6 7 0 12 -8
12 -17 0 -14 2 -15 9 -4 5 8 11 9 15 3 8 -14 -18 -22 -35 -11 -10 6 -19 2 -31
-14 l-18 -22 0 28 c0 15 7 30 15 33 8 3 17 14 20 25 7 20 25 27 25 9z"/>
<path fill="#ffffff" stroke="none" d="M195 130 c-3 -5 -21 -9 -38 -9 l-32 2
35 7 c19 4 36 8 38 9 2 0 0 -3 -3 -9z"/>
</g>
</svg>
