<?xml version="1.0" standalone="no"?>
<!DOCTYPE svg PUBLIC "-//W3C//DTD SVG 20010904//EN"
 "http://www.w3.org/TR/2001/REC-SVG-20010904/DTD/svg10.dtd">
<svg version="1.0" xmlns="http://www.w3.org/2000/svg"
 width="32.000000pt" height="32.000000pt" viewBox="0 0 32.000000 32.000000"
 preserveAspectRatio="xMidYMid meet">
<metadata>
Created by potrace 1.16, written by Peter Selinger 2001-2019
</metadata>
<g transform="translate(0.000000,32.000000) scale(0.100000,-0.100000)"
fill="#000000" stroke="none">
<path fill="#000000" stroke="none" d="M129 218 c-13 -31 -32 -49 -27 -25 2 9
-1 15 -7 14 -15 -3 -5 -60 13 -74 25 -19 86 -16 104 5 15 18 17 78 2 75 -5 -1
-16 -4 -25 -8 -13 -5 -16 -1 -14 17 4 35 -31 31 -46 -4z"/>
<path fill="#ffffff" stroke="none" d="M162 218 c-18 -18 -14 -28 12 -28 28 0
42 -26 25 -46 -14 -17 -53 -18 -78 -2 -18 11 -18 13 12 50 17 21 33 38 36 38
3 0 0 -5 -7 -12z"/>
</g>
</svg>
