<?xml version="1.0" standalone="no"?>
<!DOCTYPE svg PUBLIC "-//W3C//DTD SVG 20010904//EN"
 "http://www.w3.org/TR/2001/REC-SVG-20010904/DTD/svg10.dtd">
<svg version="1.0" xmlns="http://www.w3.org/2000/svg"
 width="32.000000pt" height="32.000000pt" viewBox="0 0 32.000000 32.000000"
 preserveAspectRatio="xMidYMid meet">
<metadata>
Created by potrace 1.16, written by Peter Selinger 2001-2019
</metadata>
<g transform="translate(0.000000,32.000000) scale(0.100000,-0.100000)"
fill="#000000" stroke="none">
<path fill="#000000" stroke="none" d="M0 160 l0 -160 160 0 160 0 0 160 0
160 -160 0 -160 0 0 -160z"/>
<path fill="#ffffff" stroke="none" d="M300 155 l0 -135 -135 0 -135 0 0 135
0 135 135 0 135 0 0 -135z"/>
<path fill="#000000" stroke="none" d="M126 238 c11 -18 -8 -29 -25 -14 -15
14 -16 10 -16 -49 0 -74 7 -85 36 -59 19 17 21 18 30 1 12 -21 33 -22 50 -1
11 13 10 19 -1 37 -12 21 -12 21 7 5 25 -23 33 -23 33 2 0 22 -71 83 -100 85
-10 1 -17 -2 -14 -7z"/>
<path fill="#000000" stroke="none" d="M191 241 c-11 -7 -9 -10 8 -16 12 -3
29 -18 38 -31 11 -18 19 -22 27 -14 7 7 7 13 1 18 -6 4 -15 16 -21 27 -13 23
-33 29 -53 16z"/>
<path fill="#000000" stroke="none" d="M43 143 c0 -16 10 -35 26 -50 19 -17
21 -21 7 -16 -14 4 -17 3 -12 -6 4 -7 13 -10 19 -8 7 2 26 -2 42 -11 26 -12
25 -10 -11 22 -25 21 -44 47 -47 66 -8 37 -24 40 -24 3z"/>
<path fill="#000000" stroke="none" d="M250 113 c-21 -44 -21 -54 0 -43 25 13
36 32 14 23 -14 -5 -15 -3 -4 16 6 13 10 25 7 27 -2 2 -10 -8 -17 -23z"/>
</g>
</svg>
