<?xml version="1.0" standalone="no"?>
<!DOCTYPE svg PUBLIC "-//W3C//DTD SVG 20010904//EN"
 "http://www.w3.org/TR/2001/REC-SVG-20010904/DTD/svg10.dtd">
<svg version="1.0" xmlns="http://www.w3.org/2000/svg"
 width="32.000000pt" height="32.000000pt" viewBox="0 0 32.000000 32.000000"
 preserveAspectRatio="xMidYMid meet">
<metadata>
Created by potrace 1.16, written by Peter Selinger 2001-2019
</metadata>
<g transform="translate(0.000000,32.000000) scale(0.100000,-0.100000)"
fill="#000000" stroke="none">
<path fill="#000000" stroke="none" d="M30 160 l0 -130 130 0 130 0 0 130 0
130 -130 0 -130 0 0 -130z"/>
<path fill="#ffffff" stroke="none" d="M239 256 c-2 -20 13 -56 22 -50 5 3 9
-2 9 -10 0 -26 -17 -27 -34 -2 -8 14 -24 27 -34 30 -10 3 -18 15 -19 26 -2 23
7 25 26 8 11 -11 13 -10 8 4 -4 12 -2 15 9 11 8 -3 14 -10 13 -17z"/>
<path fill="#ffffff" stroke="none" d="M125 220 c4 6 1 18 -7 28 -11 14 -9 14
16 -2 18 -11 25 -13 20 -5 -4 8 12 -2 37 -22 54 -45 65 -96 28 -135 -28 -30
-57 -30 -100 -1 -31 21 -34 27 -35 78 0 30 -7 65 -14 79 -12 24 -12 24 18 -3
20 -19 32 -25 37 -17z"/>
<path fill="#ffffff" stroke="none" d="M66 160 c2 -48 23 -75 79 -102 l40 -19
-43 4 c-23 3 -57 15 -75 27 -17 12 -24 19 -15 16 12 -3 15 -1 11 10 -3 7 -9
14 -13 14 -4 0 -7 22 -7 49 2 59 22 59 23 1z"/>
<path fill="#ffffff" stroke="none" d="M271 122 c-14 -27 -14 -35 2 -26 9 6 9
5 0 -8 -7 -8 -10 -18 -6 -21 3 -4 -1 -7 -10 -7 -8 0 -23 -3 -33 -7 -16 -6 -15
-2 4 24 12 17 22 35 22 40 0 11 22 34 28 29 2 -2 -1 -13 -7 -24z"/>
</g>
</svg>
