<?xml version="1.0" standalone="no"?>
<!DOCTYPE svg PUBLIC "-//W3C//DTD SVG 20010904//EN"
 "http://www.w3.org/TR/2001/REC-SVG-20010904/DTD/svg10.dtd">
<svg version="1.0" xmlns="http://www.w3.org/2000/svg"
 width="32.000000pt" height="32.000000pt" viewBox="0 0 32.000000 32.000000"
 preserveAspectRatio="xMidYMid meet">
<metadata>
Created by potrace 1.16, written by Peter Selinger 2001-2019
</metadata>
<g transform="translate(0.000000,32.000000) scale(0.100000,-0.100000)"
fill="#000000" stroke="none">
<path fill="#000000" stroke="none" d="M163 293 l-132 -4 -3 -134 -3 -135 138
0 137 0 0 140 c0 77 -1 139 -2 138 -2 -1 -62 -4 -135 -5z"/>
<path fill="#ffffff" stroke="none" d="M180 176 c0 -8 -7 -19 -16 -27 -18 -15
-49 -1 -49 23 0 9 -7 23 -14 32 -13 15 -12 16 13 6 37 -14 38 -13 26 13 -9 18
-7 17 14 -6 14 -15 26 -34 26 -41z"/>
<path fill="#ffffff" stroke="none" d="M181 223 c13 -16 12 -17 -3 -4 -10 7
-18 15 -18 17 0 8 8 3 21 -13z"/>
<path fill="#ffffff" stroke="none" d="M115 149 c11 -17 -1 -21 -15 -4 -8 9
-8 15 -2 15 6 0 14 -5 17 -11z"/>
</g>
</svg>
