<?xml version="1.0" standalone="no"?>
<!DOCTYPE svg PUBLIC "-//W3C//DTD SVG 20010904//EN"
 "http://www.w3.org/TR/2001/REC-SVG-20010904/DTD/svg10.dtd">
<svg version="1.0" xmlns="http://www.w3.org/2000/svg"
 width="32.000000pt" height="32.000000pt" viewBox="0 0 32.000000 32.000000"
 preserveAspectRatio="xMidYMid meet">
<metadata>
Created by potrace 1.16, written by Peter Selinger 2001-2019
</metadata>
<g transform="translate(0.000000,32.000000) scale(0.100000,-0.100000)"
fill="#000000" stroke="none">
<path fill="#000000" stroke="none" d="M22 158 l2 -143 3 137 4 137 137 4 137
3 -142 2 -143 2 2 -142z"/>
<path fill="#000000" stroke="none" d="M139 228 c-12 -18 -32 -45 -43 -59 -12
-14 2 -1 29 28 55 58 84 67 109 31 23 -33 20 -54 -15 -80 -48 -37 -89 -78 -89
-90 0 -6 18 6 40 28 21 21 51 49 65 61 47 41 19 113 -44 113 -22 0 -35 -8 -52
-32z"/>
<path fill="#000000" stroke="none" d="M167 213 c-12 -12 -7 -22 8 -17 8 4 15
10 15 15 0 11 -14 12 -23 2z"/>
</g>
</svg>
