<?xml version="1.0" standalone="no"?>
<!DOCTYPE svg PUBLIC "-//W3C//DTD SVG 20010904//EN"
 "http://www.w3.org/TR/2001/REC-SVG-20010904/DTD/svg10.dtd">
<svg version="1.0" xmlns="http://www.w3.org/2000/svg"
 width="32.000000pt" height="32.000000pt" viewBox="0 0 32.000000 32.000000"
 preserveAspectRatio="xMidYMid meet">
<metadata>
Created by potrace 1.16, written by Peter Selinger 2001-2019
</metadata>
<g transform="translate(0.000000,32.000000) scale(0.100000,-0.100000)"
fill="#000000" stroke="none">
<path fill="#000000" stroke="none" d="M20 160 l0 -140 140 0 140 0 0 140 0
140 -140 0 -140 0 0 -140z"/>
<path fill="#ffffff" stroke="none" d="M290 160 l0 -130 -130 0 -130 0 0 130
0 130 130 0 130 0 0 -130z"/>
<path fill="#000000" stroke="none" d="M126 229 c-5 -33 -17 -52 -48 -81 l-42
-39 22 -22 c20 -19 33 -22 102 -22 68 0 82 3 101 22 29 28 14 48 -47 66 l-44
13 20 39 c11 22 20 40 20 41 0 1 -11 5 -24 8 -13 3 -31 8 -39 12 -11 4 -16 -6
-21 -37z"/>
</g>
</svg>
