<?xml version="1.0" standalone="no"?>
<!DOCTYPE svg PUBLIC "-//W3C//DTD SVG 20010904//EN"
 "http://www.w3.org/TR/2001/REC-SVG-20010904/DTD/svg10.dtd">
<svg version="1.0" xmlns="http://www.w3.org/2000/svg"
 width="32.000000pt" height="32.000000pt" viewBox="0 0 32.000000 32.000000"
 preserveAspectRatio="xMidYMid meet">
<metadata>
Created by potrace 1.16, written by Peter Selinger 2001-2019
</metadata>
<g transform="translate(0.000000,32.000000) scale(0.100000,-0.100000)"
fill="#000000" stroke="none">
<path fill="#000000" stroke="none" d="M22 158 l2 -143 3 137 4 137 137 4 137
3 -142 2 -143 2 2 -142z"/>
<path fill="#000000" stroke="none" d="M135 249 c-4 -6 -13 -8 -21 -5 -18 7
-18 -4 2 -32 17 -25 11 -44 -11 -35 -9 3 -15 -1 -15 -11 0 -9 -6 -16 -12 -16
-7 -1 3 -8 22 -16 l35 -15 -25 -21 -25 -20 28 16 c15 9 27 12 27 7 0 -5 7 -12
16 -15 14 -5 15 -4 4 9 -18 22 -5 30 25 17 34 -16 56 -15 28 1 -26 15 -18 33
17 40 l25 4 -27 2 c-35 1 -44 17 -18 33 11 7 20 16 20 21 0 4 -10 1 -23 -8
-26 -17 -37 -12 -37 18 0 13 5 17 14 14 10 -4 13 -1 9 9 -6 16 -49 19 -58 3z"/>
<path fill="#ffffff" stroke="none" d="M176 174 c-3 -9 1 -14 12 -14 15 -1 15
-2 -2 -15 -17 -13 -21 -13 -33 4 -16 23 -7 52 13 44 9 -3 13 -12 10 -19z"/>
<path fill="#ffffff" stroke="none" d="M135 152 c-2 -3 0 -11 7 -19 10 -12 7
-12 -14 -3 -29 14 -34 40 -6 32 10 -2 16 -7 13 -10z"/>
<path fill="#000000" stroke="none" d="M76 223 c-11 -11 -7 -20 9 -20 8 0 15
4 15 8 0 11 -16 20 -24 12z"/>
</g>
</svg>
