<?xml version="1.0" standalone="no"?>
<!DOCTYPE svg PUBLIC "-//W3C//DTD SVG 20010904//EN"
 "http://www.w3.org/TR/2001/REC-SVG-20010904/DTD/svg10.dtd">
<svg version="1.0" xmlns="http://www.w3.org/2000/svg"
 width="32.000000pt" height="32.000000pt" viewBox="0 0 32.000000 32.000000"
 preserveAspectRatio="xMidYMid meet">
<metadata>
Created by potrace 1.16, written by Peter Selinger 2001-2019
</metadata>
<g transform="translate(0.000000,32.000000) scale(0.100000,-0.100000)"
fill="#000000" stroke="none">
<path fill="#000000" stroke="none" d="M130 245 c-7 -8 -17 -12 -24 -8 -6 4
-3 -5 7 -20 18 -28 15 -53 -5 -41 -6 4 -8 2 -4 -4 3 -6 -2 -15 -11 -21 -10 -6
-13 -11 -6 -11 6 0 15 5 18 10 3 6 13 10 21 10 8 0 13 -4 9 -9 -3 -5 0 -13 5
-16 7 -5 5 -12 -7 -22 -10 -8 -12 -12 -5 -8 6 3 12 1 12 -4 0 -6 4 -11 10 -11
5 0 7 7 4 15 -7 18 9 19 39 4 18 -9 20 -9 10 1 -15 16 -6 40 16 41 10 0 8 4
-8 10 -23 9 -24 10 -5 32 16 18 16 19 2 8 -15 -11 -21 -11 -33 -1 -13 11 -14
16 -1 34 13 20 12 22 -9 24 -13 1 -28 -5 -35 -13z"/>
<path fill="#ffffff" stroke="none" d="M160 235 c0 -8 -6 -15 -12 -15 -7 -1
-3 -9 10 -19 12 -11 22 -24 22 -30 0 -6 5 -11 12 -11 8 0 5 -7 -5 -17 -17 -17
-19 -17 -33 2 -8 11 -13 28 -10 38 2 9 -3 21 -12 26 -13 8 -14 12 -3 25 17 20
31 21 31 1z"/>
</g>
</svg>
