<?xml version="1.0" standalone="no"?>
<!DOCTYPE svg PUBLIC "-//W3C//DTD SVG 20010904//EN"
 "http://www.w3.org/TR/2001/REC-SVG-20010904/DTD/svg10.dtd">
<svg version="1.0" xmlns="http://www.w3.org/2000/svg"
 width="32.000000pt" height="32.000000pt" viewBox="0 0 32.000000 32.000000"
 preserveAspectRatio="xMidYMid meet">
<metadata>
Created by potrace 1.16, written by Peter Selinger 2001-2019
</metadata>
<g transform="translate(0.000000,32.000000) scale(0.100000,-0.100000)"
fill="#000000" stroke="none">
<path fill="#000000" stroke="none" d="M0 160 l0 -160 160 0 160 0 0 160 0
160 -160 0 -160 0 0 -160z"/>
<path fill="#ffffff" stroke="none" d="M168 293 l-137 -4 -4 -137 -3 -137 -2
143 -2 142 143 -2 142 -2 -137 -3z"/>
<path fill="#ffffff" stroke="none" d="M91 253 c15 9 22 8 36 -5 16 -17 16
-17 -7 -13 -13 2 -29 0 -37 -6 -19 -16 -43 -3 -43 23 0 21 1 21 16 6 13 -13
21 -14 35 -5z"/>
<path fill="#ffffff" stroke="none" d="M271 227 c-9 -9 -16 -8 -30 0 -11 7
-30 10 -42 8 -22 -4 -22 -4 -6 13 14 13 21 14 36 5 16 -10 22 -9 33 4 12 15
13 15 16 -2 2 -9 -1 -22 -7 -28z"/>
<path fill="#ffffff" stroke="none" d="M105 200 c4 -7 12 -7 25 0 28 15 48 12
70 -10 24 -24 28 -49 5 -30 -21 18 -45 -4 -45 -41 0 -21 -4 -27 -15 -23 -11 5
-13 2 -9 -11 5 -11 15 -15 30 -12 13 2 21 0 18 -4 -10 -17 -43 -9 -58 13 -24
33 -21 51 6 42 21 -6 21 -5 9 10 -8 9 -21 14 -29 11 -11 -4 -13 1 -8 21 6 22
4 25 -16 22 -31 -4 -33 -56 -4 -80 17 -14 18 -17 5 -18 -36 0 -62 77 -37 108
12 14 44 16 53 2z"/>
<path fill="#ffffff" stroke="none" d="M267 197 c15 -10 11 -70 -6 -91 -7 -9
-21 -16 -30 -16 -13 1 -12 4 5 18 23 19 26 61 6 85 -11 13 -11 15 0 13 7 -1
18 -5 25 -9z"/>
<path fill="#ffffff" stroke="none" d="M210 122 c0 -4 -10 -9 -22 -9 -18 -2
-20 0 -8 7 18 12 30 13 30 2z"/>
</g>
</svg>
