<?xml version="1.0" standalone="no"?>
<!DOCTYPE svg PUBLIC "-//W3C//DTD SVG 20010904//EN"
 "http://www.w3.org/TR/2001/REC-SVG-20010904/DTD/svg10.dtd">
<svg version="1.0" xmlns="http://www.w3.org/2000/svg"
 width="32.000000pt" height="32.000000pt" viewBox="0 0 32.000000 32.000000"
 preserveAspectRatio="xMidYMid meet">
<metadata>
Created by potrace 1.16, written by Peter Selinger 2001-2019
</metadata>
<g transform="translate(0.000000,32.000000) scale(0.100000,-0.100000)"
fill="#000000" stroke="none">
<path fill="#000000" stroke="none" d="M54 313 c-37 -4 -42 -7 -48 -35 -3 -17
-6 -86 -6 -154 l0 -124 44 0 c26 0 46 5 49 13 4 9 6 9 6 0 1 -10 30 -13 111
-13 l110 0 0 96 c0 94 0 95 -23 90 l-22 -6 23 11 c19 10 22 20 22 71 l0 58
-112 -2 c-62 -1 -132 -3 -154 -5z"/>
<path fill="#ffffff" stroke="none" d="M275 299 c20 -5 11 -6 -27 -2 -52 5
-58 3 -58 -13 0 -15 -2 -16 -9 -5 -6 9 -20 12 -40 9 -17 -2 -31 -1 -31 3 0 15
119 21 165 8z"/>
<path fill="#ffffff" stroke="none" d="M173 225 c-7 -43 7 -45 31 -5 9 17 22
28 28 24 5 -4 -4 -21 -24 -42 -31 -33 -32 -34 -8 -28 14 4 36 10 50 12 l25 4
-24 -10 c-18 -8 -21 -13 -12 -24 9 -10 8 -15 -4 -20 -8 -3 -15 -1 -15 4 0 6
-7 10 -15 10 -17 0 -20 -16 -5 -25 6 -3 10 -13 10 -22 0 -13 -2 -14 -17 -2
-15 12 -16 12 -9 -6 9 -24 14 -43 9 -32 -3 4 -9 5 -14 1 -5 -3 -9 4 -9 16 0
12 -4 18 -10 15 -5 -3 -10 -1 -10 5 0 6 -10 4 -25 -6 -14 -9 -22 -21 -18 -27
3 -6 1 -7 -6 -3 -9 6 -9 11 0 22 6 8 8 14 5 14 -4 0 6 11 21 25 l28 24 -26 1
c-14 0 -34 7 -45 16 -18 15 -18 15 3 5 12 -6 30 -11 40 -11 15 0 14 4 -7 21
-14 11 -20 18 -13 15 18 -10 25 11 13 36 l-11 23 20 -22 c23 -28 31 -29 31 -5
0 16 8 32 16 32 2 0 0 -16 -3 -35z"/>
<path fill="#ffffff" stroke="none" d="M46 238 c4 -6 3 -8 -4 -4 -6 3 -13 -2
-15 -11 -4 -14 -5 -13 -6 5 -1 23 13 30 25 10z"/>
<path fill="#ffffff" stroke="none" d="M28 107 c2 -50 2 -90 -1 -87 -8 9 -17
180 -10 180 5 0 10 -42 11 -93z"/>
<path fill="#ffffff" stroke="none" d="M305 122 c-3 -3 -11 0 -18 7 -9 10 -8
11 6 5 10 -3 15 -9 12 -12z"/>
</g>
</svg>
