<?xml version="1.0" standalone="no"?>
<!DOCTYPE svg PUBLIC "-//W3C//DTD SVG 20010904//EN"
 "http://www.w3.org/TR/2001/REC-SVG-20010904/DTD/svg10.dtd">
<svg version="1.0" xmlns="http://www.w3.org/2000/svg"
 width="32.000000pt" height="32.000000pt" viewBox="0 0 32.000000 32.000000"
 preserveAspectRatio="xMidYMid meet">
<metadata>
Created by potrace 1.16, written by Peter Selinger 2001-2019
</metadata>
<g transform="translate(0.000000,32.000000) scale(0.100000,-0.100000)"
fill="#000000" stroke="none">
<path fill="#000000" stroke="none" d="M1 293 c1 -23 2 -24 6 -6 3 18 13 23
46 26 l42 4 -47 1 c-46 2 -48 1 -47 -25z"/>
<path fill="#000000" stroke="none" d="M148 303 c-50 -5 -49 -18 2 -18 22 0
40 4 40 9 0 5 24 6 53 3 34 -4 43 -3 27 3 -26 8 -60 9 -122 3z"/>
<path fill="#000000" stroke="none" d="M21 228 c1 -18 2 -19 6 -5 2 9 9 14 15
11 7 -4 8 -2 4 4 -12 20 -26 13 -25 -10z"/>
<path fill="#000000" stroke="none" d="M161 206 c-1 -11 -6 -16 -14 -13 -8 3
-14 -1 -14 -9 0 -7 4 -11 9 -8 4 3 8 3 8 -1 0 -3 -10 -10 -22 -15 l-23 -9 24
0 c20 -1 22 -3 11 -16 -11 -13 -10 -14 3 -9 10 3 17 -1 20 -13 4 -14 5 -13 6
5 1 14 11 27 27 35 l27 12 -24 5 c-14 3 -26 16 -30 30 -5 18 -7 20 -8 6z"/>
<path fill="#000000" stroke="none" d="M189 193 c-13 -16 -12 -17 4 -4 16 13
21 21 13 21 -2 0 -10 -8 -17 -17z"/>
<path fill="#000000" stroke="none" d="M16 118 c9 -111 17 -114 12 -6 -1 49
-6 88 -11 88 -4 0 -4 -37 -1 -82z"/>
<path fill="#000000" stroke="none" d="M290 190 c-9 -6 -10 -10 -3 -10 6 0 15
5 18 10 8 12 4 12 -15 0z"/>
</g>
</svg>
