<?xml version="1.0" standalone="no"?>
<!DOCTYPE svg PUBLIC "-//W3C//DTD SVG 20010904//EN"
 "http://www.w3.org/TR/2001/REC-SVG-20010904/DTD/svg10.dtd">
<svg version="1.0" xmlns="http://www.w3.org/2000/svg"
 width="32.000000pt" height="32.000000pt" viewBox="0 0 32.000000 32.000000"
 preserveAspectRatio="xMidYMid meet">
<metadata>
Created by potrace 1.16, written by Peter Selinger 2001-2019
</metadata>
<g transform="translate(0.000000,32.000000) scale(0.100000,-0.100000)"
fill="#000000" stroke="none">
<path fill="#000000" stroke="none" d="M0 307 c0 -17 48 -83 83 -116 22 -20
33 -23 77 -19 50 5 100 36 100 62 0 6 14 22 30 36 17 14 30 30 30 37 0 28 -40
11 -83 -36 -45 -48 -85 -65 -119 -52 -9 3 -33 27 -53 54 -35 45 -65 61 -65 34z"/>
</g>
</svg>
