<?xml version="1.0" standalone="no"?>
<!DOCTYPE svg PUBLIC "-//W3C//DTD SVG 20010904//EN"
 "http://www.w3.org/TR/2001/REC-SVG-20010904/DTD/svg10.dtd">
<svg version="1.0" xmlns="http://www.w3.org/2000/svg"
 width="32.000000pt" height="32.000000pt" viewBox="0 0 32.000000 32.000000"
 preserveAspectRatio="xMidYMid meet">
<metadata>
Created by potrace 1.16, written by Peter Selinger 2001-2019
</metadata>
<g transform="translate(0.000000,32.000000) scale(0.100000,-0.100000)"
fill="#000000" stroke="none">
<path fill="#000000" stroke="none" d="M137 195 c-20 -14 -40 -37 -43 -50 -8
-32 3 -91 23 -121 16 -25 59 -34 49 -11 -2 6 -12 36 -22 66 l-17 55 29 23 c36
28 42 28 78 -1 22 -18 27 -29 21 -43 -5 -10 -7 -22 -6 -27 1 -4 -4 -15 -10
-23 -18 -21 14 -52 39 -37 18 12 28 79 18 120 -7 27 -71 74 -101 74 -11 0 -37
-11 -58 -25z"/>
</g>
</svg>
