<?xml version="1.0" standalone="no"?>
<!DOCTYPE svg PUBLIC "-//W3C//DTD SVG 20010904//EN"
 "http://www.w3.org/TR/2001/REC-SVG-20010904/DTD/svg10.dtd">
<svg version="1.0" xmlns="http://www.w3.org/2000/svg"
 width="32.000000pt" height="32.000000pt" viewBox="0 0 32.000000 32.000000"
 preserveAspectRatio="xMidYMid meet">
<metadata>
Created by potrace 1.16, written by Peter Selinger 2001-2019
</metadata>
<g transform="translate(0.000000,32.000000) scale(0.100000,-0.100000)"
fill="#000000" stroke="none">
<path fill="#000000" stroke="none" d="M0 160 l0 -160 66 0 66 0 -15 24 c-20
30 -31 89 -23 121 4 14 24 37 46 51 34 23 47 26 85 21 25 -4 56 -14 70 -23
l25 -16 0 71 0 71 -160 0 -160 0 0 -160z"/>
<path fill="#000000" stroke="none" d="M157 156 c-27 -22 -28 -25 -17 -65 24
-90 25 -91 107 -91 l73 0 0 69 0 69 -37 15 c-71 28 -96 29 -126 3z"/>
</g>
</svg>
