<?xml version="1.0" standalone="no"?>
<!DOCTYPE svg PUBLIC "-//W3C//DTD SVG 20010904//EN"
 "http://www.w3.org/TR/2001/REC-SVG-20010904/DTD/svg10.dtd">
<svg version="1.0" xmlns="http://www.w3.org/2000/svg"
 width="32.000000pt" height="32.000000pt" viewBox="0 0 32.000000 32.000000"
 preserveAspectRatio="xMidYMid meet">
<metadata>
Created by potrace 1.16, written by Peter Selinger 2001-2019
</metadata>
<g transform="translate(0.000000,32.000000) scale(0.100000,-0.100000)"
fill="#000000" stroke="none">
<path fill="#000000" stroke="none" d="M65 213 c-34 -9 -65 -35 -65 -55 0 -12
5 -18 13 -14 6 2 35 12 64 21 51 16 53 16 83 -7 26 -19 30 -27 24 -53 -3 -16
-11 -36 -17 -43 -8 -10 -4 -19 12 -35 22 -22 22 -22 37 -3 16 23 19 108 4 136
-23 44 -94 68 -155 53z"/>
</g>
</svg>
