<?xml version="1.0" standalone="no"?>
<!DOCTYPE svg PUBLIC "-//W3C//DTD SVG 20010904//EN"
 "http://www.w3.org/TR/2001/REC-SVG-20010904/DTD/svg10.dtd">
<svg version="1.0" xmlns="http://www.w3.org/2000/svg"
 width="32.000000pt" height="32.000000pt" viewBox="0 0 32.000000 32.000000"
 preserveAspectRatio="xMidYMid meet">
<metadata>
Created by potrace 1.16, written by Peter Selinger 2001-2019
</metadata>
<g transform="translate(0.000000,32.000000) scale(0.100000,-0.100000)"
fill="#000000" stroke="none">
<path fill="#000000" stroke="none" d="M19 308 c-1 -2 -3 -16 -5 -33 -2 -20 0
-25 5 -16 5 8 7 19 5 25 -6 15 38 16 48 2 5 -7 8 -4 8 7 0 12 -8 17 -30 17
-16 0 -31 -1 -31 -2z"/>
<path fill="#000000" stroke="none" d="M94 289 c0 -10 4 -15 8 -13 5 3 20 12
36 20 l27 14 -35 -2 c-26 -1 -36 -6 -36 -19z"/>
<path fill="#000000" stroke="none" d="M172 300 c0 -3 -1 -8 -2 -12 -1 -5 -3
-14 -4 -20 0 -7 -8 -13 -16 -13 -8 0 -20 -6 -25 -13 -7 -9 -20 -11 -38 -7 -24
6 -26 10 -15 23 11 13 10 15 -5 9 -10 -4 -21 -7 -23 -7 -3 0 -2 -4 1 -10 11
-19 -6 -32 -23 -18 -12 8 -11 5 3 -12 11 -14 23 -27 27 -30 3 -3 0 -14 -8 -24
-12 -17 -14 -17 -20 -3 -3 9 -3 20 0 26 4 5 2 12 -2 15 -5 3 -9 -12 -8 -34 1
-39 5 -40 38 -13 10 9 18 11 22 4 4 -5 2 -12 -4 -16 -6 -4 -6 -12 2 -24 9 -15
8 -22 -3 -34 -13 -12 -18 -12 -34 -1 -16 12 -16 16 -4 31 12 16 12 17 -2 6 -9
-7 -16 -29 -17 -50 0 -35 0 -36 10 -13 8 19 12 21 16 10 3 -8 9 -18 15 -21 12
-8 1 -43 -11 -35 -4 2 -14 0 -22 -5 -12 -7 -10 -8 7 -6 12 2 25 6 29 9 3 4 11
5 17 4 7 -2 8 -1 3 2 -4 2 -2 8 5 13 10 6 10 9 2 9 -7 0 -10 7 -7 15 4 8 10
15 16 15 5 0 6 -4 3 -10 -4 -6 11 -8 39 -5 27 2 48 0 52 -7 4 -7 3 -8 -4 -4
-7 4 -12 2 -12 -4 0 -7 7 -10 15 -6 8 3 15 1 15 -5 0 -6 5 -7 11 -3 8 4 7 9
-2 15 -11 6 -11 11 -1 21 9 9 12 9 12 -1 0 -7 5 -9 10 -6 14 9 12 -29 -2 -43
-9 -9 -8 -12 4 -12 9 0 20 5 23 10 4 6 11 8 16 5 5 -4 9 1 9 9 0 10 -6 13 -15
10 -8 -4 -15 -3 -15 1 0 13 29 35 46 35 14 0 15 -3 6 -12 -7 -7 -12 -18 -12
-26 0 -12 3 -12 15 -2 22 18 19 50 -5 50 -11 0 -20 3 -21 8 0 4 -2 17 -5 29
-4 21 9 25 34 10 23 -15 12 5 -18 33 -30 28 -39 50 -19 50 5 0 8 -4 5 -8 -2
-4 5 -14 17 -21 18 -11 20 -11 10 0 -15 15 -17 33 -4 25 5 -3 12 1 15 9 5 13
2 14 -16 4 -18 -10 -20 -9 -15 6 4 9 7 18 7 21 0 2 8 1 18 -2 10 -3 7 2 -8 13
-13 10 -32 25 -41 34 -12 13 -18 13 -25 3 -5 -6 -19 -15 -31 -19 -30 -8 -30
13 0 25 21 8 21 9 -5 7 -15 -1 -26 -4 -26 -7z"/>
<path fill="#ffffff" stroke="none" d="M265 266 c16 -12 17 -16 6 -30 -17 -21
-31 -20 -31 0 0 13 -3 14 -14 4 -13 -10 -13 -8 -3 14 14 30 17 31 42 12z"/>
<path fill="#ffffff" stroke="none" d="M221 216 c5 3 9 -1 9 -9 0 -8 7 -27 15
-43 9 -17 11 -32 5 -39 -5 -6 -7 -22 -3 -36 5 -24 5 -24 -11 -4 -10 11 -15 15
-12 9 3 -6 -1 -11 -9 -11 -8 0 -12 4 -9 8 2 4 0 10 -5 13 -5 3 -11 0 -14 -8
-7 -17 -65 -27 -70 -12 -3 6 0 19 5 29 6 12 5 19 -7 23 -18 7 -20 34 -2 34 6
0 4 5 -5 11 -10 5 -18 15 -18 20 0 6 4 7 10 4 5 -3 10 -1 10 5 0 6 5 8 10 5 6
-4 8 -12 4 -18 -3 -7 4 -2 15 11 11 13 25 21 30 18 5 -4 13 4 17 16 7 23 7 23
16 -5 6 -15 14 -25 19 -21z"/>
<path fill="#ffffff" stroke="none" d="M101 107 c-10 -9 -11 -8 -5 6 3 10 9
15 12 12 3 -3 0 -11 -7 -18z"/>
<path fill="#000000" stroke="none" d="M150 189 c0 -5 5 -7 10 -4 6 3 10 8 10
11 0 2 -4 4 -10 4 -5 0 -10 -5 -10 -11z"/>
<path fill="#000000" stroke="none" d="M221 143 c-1 -17 16 -25 25 -12 4 7 3
9 -4 5 -5 -3 -13 0 -15 6 -4 9 -6 10 -6 1z"/>
<path fill="#000000" stroke="none" d="M273 303 c9 -2 23 -2 30 0 6 3 -1 5
-18 5 -16 0 -22 -2 -12 -5z"/>
<path fill="#000000" stroke="none" d="M130 286 c0 -2 7 -9 15 -16 13 -11 14
-10 9 4 -5 14 -24 23 -24 12z"/>
<path fill="#000000" stroke="none" d="M100 255 c-11 -13 -10 -14 4 -9 9 3 16
10 16 15 0 13 -6 11 -20 -6z"/>
<path fill="#000000" stroke="none" d="M290 121 c0 -6 4 -13 10 -16 6 -3 7 1
4 9 -7 18 -14 21 -14 7z"/>
<path fill="#000000" stroke="none" d="M116 15 c4 -8 16 -15 28 -15 21 1 21 1
2 15 -25 19 -37 19 -30 0z"/>
</g>
</svg>
