<?xml version="1.0" standalone="no"?>
<!DOCTYPE svg PUBLIC "-//W3C//DTD SVG 20010904//EN"
 "http://www.w3.org/TR/2001/REC-SVG-20010904/DTD/svg10.dtd">
<svg version="1.0" xmlns="http://www.w3.org/2000/svg"
 width="32.000000pt" height="32.000000pt" viewBox="0 0 32.000000 32.000000"
 preserveAspectRatio="xMidYMid meet">
<metadata>
Created by potrace 1.16, written by Peter Selinger 2001-2019
</metadata>
<g transform="translate(0.000000,32.000000) scale(0.100000,-0.100000)"
fill="#000000" stroke="none">
<path fill="#000000" stroke="none" d="M0 162 l0 -157 61 -1 c47 -1 59 1 55
12 -7 18 5 18 30 -1 23 -18 66 -19 82 -3 14 14 16 52 2 43 -5 -3 -10 -1 -10 6
0 10 -3 10 -12 1 -10 -10 -10 -15 1 -21 9 -6 10 -11 2 -15 -6 -4 -11 -3 -11 3
0 6 -7 8 -15 5 -8 -4 -15 -1 -15 6 0 6 5 8 12 4 7 -4 8 -3 4 4 -4 7 -25 9 -52
7 -28 -3 -43 -1 -39 5 3 6 2 10 -3 10 -6 0 -12 -7 -16 -15 -3 -8 0 -15 7 -15
8 0 8 -3 -2 -9 -11 -7 -11 -9 0 -14 8 -3 5 -5 -7 -4 -15 1 -20 6 -16 19 2 10
0 18 -6 18 -6 0 -12 8 -15 18 -3 14 -6 13 -15 -8 -10 -24 -10 -23 -10 13 1 21
8 43 17 50 14 11 14 10 2 -6 -12 -15 -12 -19 4 -31 16 -11 21 -11 34 1 11 12
12 19 3 34 -8 12 -8 20 -2 24 6 4 8 11 4 16 -4 7 -12 5 -22 -4 -33 -27 -37
-26 -38 13 -1 22 3 37 7 34 5 -2 6 -11 3 -19 -10 -24 6 -38 21 -18 7 10 10 20
7 23 -4 3 -16 16 -27 30 -14 17 -15 20 -3 12 17 -14 34 -1 23 18 -3 6 -4 10
-1 10 2 0 13 3 23 7 15 6 16 4 5 -9 -11 -13 -9 -17 15 -23 18 -4 31 -2 38 7 5
7 17 13 25 13 8 0 16 6 16 13 1 6 3 15 4 20 1 4 2 9 2 12 0 3 11 6 26 7 26 2
26 1 5 -7 -13 -5 -23 -14 -23 -20 0 -15 41 -3 56 16 9 12 13 12 17 2 2 -7 19
-21 36 -31 l31 -18 0 35 0 36 -160 0 -160 0 0 -158z"/>
<path fill="#ffffff" stroke="none" d="M80 293 c0 -11 -3 -14 -8 -7 -10 14
-54 13 -48 -2 2 -6 0 -17 -5 -25 -5 -9 -7 -4 -5 16 2 17 4 31 5 33 0 1 15 2
31 2 22 0 30 -5 30 -17z"/>
<path fill="#ffffff" stroke="none" d="M138 296 c-16 -8 -31 -17 -36 -20 -4
-2 -8 3 -8 13 0 13 10 18 36 19 l35 2 -27 -14z"/>
<path fill="#ffffff" stroke="none" d="M303 303 c-7 -2 -21 -2 -30 0 -10 3 -4
5 12 5 17 0 24 -2 18 -5z"/>
<path fill="#ffffff" stroke="none" d="M154 274 c5 -14 4 -15 -9 -4 -17 14
-19 20 -6 20 5 0 12 -7 15 -16z"/>
<path fill="#ffffff" stroke="none" d="M120 261 c0 -5 -7 -12 -16 -15 -14 -5
-15 -4 -4 9 14 17 20 19 20 6z"/>
<path fill="#000000" stroke="none" d="M223 254 c-10 -22 -10 -24 3 -14 11 10
14 9 14 -4 0 -20 14 -21 31 0 11 14 10 18 -6 30 -25 19 -28 18 -42 -12z"/>
<path fill="#000000" stroke="none" d="M186 242 c-4 -12 -12 -20 -17 -16 -5 3
-19 -5 -30 -18 -11 -13 -18 -18 -15 -11 4 6 2 14 -4 18 -5 3 -10 1 -10 -5 0
-6 -5 -8 -10 -5 -6 3 -10 2 -10 -4 0 -5 8 -15 18 -20 9 -6 11 -11 5 -11 -18 0
-16 -27 2 -34 12 -4 13 -11 7 -23 -5 -10 -8 -23 -5 -29 5 -15 63 -5 70 12 3 8
9 11 14 8 5 -3 7 -9 5 -13 -3 -4 1 -8 9 -8 8 0 12 5 9 11 -3 6 2 2 10 -8 22
-27 22 1 0 32 -9 13 -13 26 -10 29 3 4 6 1 6 -6 0 -7 5 -9 12 -5 7 5 8 3 3 -6
-5 -8 -4 -11 3 -7 11 8 5 44 -9 53 -5 3 -9 14 -9 25 0 11 -4 18 -9 15 -5 -4
-13 6 -19 21 -9 28 -9 28 -16 5z"/>
<path fill="#ffffff" stroke="none" d="M170 196 c0 -3 -4 -8 -10 -11 -5 -3
-10 -1 -10 4 0 6 5 11 10 11 6 0 10 -2 10 -4z"/>
<path fill="#000000" stroke="none" d="M290 240 c0 -5 -7 -16 -15 -24 -19 -18
-7 -49 26 -66 19 -11 20 -9 18 39 -2 31 -8 52 -16 55 -7 3 -13 1 -13 -4z"/>
<path fill="#ffffff" stroke="none" d="M310 209 c0 -5 -4 -7 -10 -4 -14 9 -12
-8 3 -24 10 -11 8 -11 -10 0 -16 10 -19 16 -11 26 13 16 28 17 28 2z"/>
<path fill="#000000" stroke="none" d="M274 117 c3 -12 5 -25 5 -29 1 -5 10
-8 21 -8 23 0 28 34 8 47 -25 15 -38 11 -34 -10z"/>
<path fill="#ffffff" stroke="none" d="M304 114 c3 -8 2 -12 -4 -9 -6 3 -10
10 -10 16 0 14 7 11 14 -7z"/>
<path fill="#000000" stroke="none" d="M96 113 c-6 -14 -5 -15 5 -6 7 7 10 15
7 18 -3 3 -9 -2 -12 -12z"/>
<path fill="#000000" stroke="none" d="M263 55 c-17 -19 -16 -28 2 -21 9 3 15
0 15 -10 0 -8 -4 -13 -9 -9 -5 3 -12 1 -16 -5 -4 -6 8 -10 29 -10 30 0 36 4
36 21 0 18 -2 19 -15 9 -12 -10 -15 -10 -15 2 0 8 5 19 12 26 9 9 8 12 -7 12
-11 -1 -26 -7 -32 -15z"/>
</g>
</svg>
