<?xml version="1.0" standalone="no"?>
<!DOCTYPE svg PUBLIC "-//W3C//DTD SVG 20010904//EN"
 "http://www.w3.org/TR/2001/REC-SVG-20010904/DTD/svg10.dtd">
<svg version="1.0" xmlns="http://www.w3.org/2000/svg"
 width="32.000000pt" height="32.000000pt" viewBox="0 0 32.000000 32.000000"
 preserveAspectRatio="xMidYMid meet">
<metadata>
Created by potrace 1.16, written by Peter Selinger 2001-2019
</metadata>
<g transform="translate(0.000000,32.000000) scale(0.100000,-0.100000)"
fill="#000000" stroke="none">
<path fill="#000000" stroke="none" d="M36 225 c4 -8 11 -15 16 -15 6 0 5 6
-2 15 -7 8 -14 15 -16 15 -2 0 -1 -7 2 -15z"/>
<path fill="#000000" stroke="none" d="M235 230 c-3 -6 1 -7 9 -4 18 7 21 14
7 14 -6 0 -13 -4 -16 -10z"/>
<path fill="#000000" stroke="none" d="M136 182 c2 -2 -2 -14 -8 -26 -10 -20
-10 -20 8 -4 12 12 15 21 8 27 -6 5 -9 6 -8 3z"/>
<path fill="#000000" stroke="none" d="M46 155 c4 -8 11 -15 16 -15 6 0 5 6
-2 15 -7 8 -14 15 -16 15 -2 0 -1 -7 2 -15z"/>
<path fill="#000000" stroke="none" d="M86 142 c-3 -5 1 -9 9 -9 8 0 12 4 9 9
-3 4 -7 8 -9 8 -2 0 -6 -4 -9 -8z"/>
<path fill="#000000" stroke="none" d="M220 136 c0 -2 7 -9 15 -16 9 -7 15 -8
15 -2 0 5 -7 12 -15 16 -8 3 -15 4 -15 2z"/>
<path fill="#000000" stroke="none" d="M165 120 c-3 -5 -1 -10 4 -10 6 0 11 5
11 10 0 6 -2 10 -4 10 -3 0 -8 -4 -11 -10z"/>
<path fill="#000000" stroke="none" d="M257 89 c7 -9 10 -19 6 -22 -3 -4 -1
-7 5 -7 17 0 15 16 -5 31 -16 12 -17 12 -6 -2z"/>
<path fill="#000000" stroke="none" d="M183 51 c0 -11 5 -18 9 -15 4 3 5 11 1
19 -7 21 -12 19 -10 -4z"/>
<path fill="#000000" stroke="none" d="M60 40 c0 -5 5 -10 11 -10 5 0 7 5 4
10 -3 6 -8 10 -11 10 -2 0 -4 -4 -4 -10z"/>
<path fill="#000000" stroke="none" d="M130 10 c0 -5 5 -10 11 -10 5 0 7 5 4
10 -3 6 -8 10 -11 10 -2 0 -4 -4 -4 -10z"/>
</g>
</svg>
