<?xml version="1.0" standalone="no"?>
<!DOCTYPE svg PUBLIC "-//W3C//DTD SVG 20010904//EN"
 "http://www.w3.org/TR/2001/REC-SVG-20010904/DTD/svg10.dtd">
<svg version="1.0" xmlns="http://www.w3.org/2000/svg"
 width="32.000000pt" height="32.000000pt" viewBox="0 0 32.000000 32.000000"
 preserveAspectRatio="xMidYMid meet">
<metadata>
Created by potrace 1.16, written by Peter Selinger 2001-2019
</metadata>
<g transform="translate(0.000000,32.000000) scale(0.100000,-0.100000)"
fill="#000000" stroke="none">
<path fill="#000000" stroke="none" d="M255 312 c-2 -2 -32 -4 -67 -4 -35 0
-66 -6 -70 -12 -6 -8 -8 -7 -8 2 0 8 -17 12 -50 12 l-50 0 0 -40 c0 -25 5 -40
13 -40 9 0 9 -2 -1 -8 -8 -6 -12 -34 -11 -88 1 -43 0 -81 -1 -84 -1 -3 -3 -15
-6 -27 l-4 -23 160 0 160 0 0 160 0 160 -30 -2 c-17 -1 -33 -4 -35 -6z"/>
<path fill="#ffffff" stroke="none" d="M53 293 c-7 -2 -19 -2 -25 0 -7 3 -2 5
12 5 14 0 19 -2 13 -5z"/>
<path fill="#ffffff" stroke="none" d="M100 290 c0 -5 -7 -7 -15 -4 -8 4 -15
8 -15 10 0 2 7 4 15 4 8 0 15 -4 15 -10z"/>
<path fill="#ffffff" stroke="none" d="M123 267 c3 -8 -1 -14 -8 -14 -7 0 -11
6 -8 14 6 16 10 16 16 0z"/>
</g>
</svg>
