<?xml version="1.0" standalone="no"?>
<!DOCTYPE svg PUBLIC "-//W3C//DTD SVG 20010904//EN"
 "http://www.w3.org/TR/2001/REC-SVG-20010904/DTD/svg10.dtd">
<svg version="1.0" xmlns="http://www.w3.org/2000/svg"
 width="32.000000pt" height="32.000000pt" viewBox="0 0 32.000000 32.000000"
 preserveAspectRatio="xMidYMid meet">
<metadata>
Created by potrace 1.16, written by Peter Selinger 2001-2019
</metadata>
<g transform="translate(0.000000,32.000000) scale(0.100000,-0.100000)"
fill="#000000" stroke="none">
<path fill="#000000" stroke="none" d="M1 169 c0 -83 3 -148 6 -145 3 2 5 47
5 98 -1 61 3 95 11 100 8 5 8 8 -3 8 -13 0 -13 1 0 10 10 6 11 10 3 10 -8 0
-13 13 -13 31 0 27 3 30 28 27 15 -2 26 -8 25 -14 -1 -8 6 -10 19 -6 21 5 21
6 2 13 -18 7 -17 8 4 8 12 1 22 -5 22 -11 0 -10 2 -10 8 -1 5 9 30 12 70 11
34 -1 64 1 68 5 4 4 -52 7 -125 7 l-132 0 2 -151z"/>
<path fill="#000000" stroke="none" d="M28 293 c7 -3 16 -2 19 1 4 3 -2 6 -13
5 -11 0 -14 -3 -6 -6z"/>
</g>
</svg>
