<?xml version="1.0" standalone="no"?>
<!DOCTYPE svg PUBLIC "-//W3C//DTD SVG 20010904//EN"
 "http://www.w3.org/TR/2001/REC-SVG-20010904/DTD/svg10.dtd">
<svg version="1.0" xmlns="http://www.w3.org/2000/svg"
 width="32.000000pt" height="32.000000pt" viewBox="0 0 32.000000 32.000000"
 preserveAspectRatio="xMidYMid meet">
<metadata>
Created by potrace 1.16, written by Peter Selinger 2001-2019
</metadata>
<g transform="translate(0.000000,32.000000) scale(0.100000,-0.100000)"
fill="#000000" stroke="none">
<path fill="#000000" stroke="none" d="M310 266 c0 -26 -5 -46 -12 -49 -10 -4
-10 -6 0 -6 16 -1 16 -51 0 -51 -9 0 -10 -3 -2 -8 6 -4 12 -37 13 -75 l2 -67
-40 0 c-29 0 -41 5 -44 17 -4 17 -5 17 -6 0 -1 -14 -10 -17 -61 -16 -45 1 -60
5 -63 18 -4 14 -5 13 -6 -1 0 -10 -7 -18 -15 -18 -8 0 -17 8 -19 18 -4 15 -5
15 -6 0 0 -9 -11 -19 -23 -21 -13 -2 48 -5 135 -6 l157 -1 0 155 c0 85 -2 155
-5 155 -3 0 -5 -20 -5 -44z"/>
<path fill="#000000" stroke="none" d="M263 133 c9 -2 23 -2 30 0 6 3 -1 5
-18 5 -16 0 -22 -2 -12 -5z"/>
<path fill="#000000" stroke="none" d="M150 60 c0 -5 7 -7 15 -4 8 4 15 8 15
10 0 2 -7 4 -15 4 -8 0 -15 -4 -15 -10z"/>
<path fill="#000000" stroke="none" d="M200 66 c0 -2 7 -7 16 -10 8 -3 12 -2
9 4 -6 10 -25 14 -25 6z"/>
<path fill="#000000" stroke="none" d="M83 53 c9 -2 23 -2 30 0 6 3 -1 5 -18
5 -16 0 -22 -2 -12 -5z"/>
<path fill="#000000" stroke="none" d="M287 41 c-4 -17 -3 -21 5 -13 5 5 8 16
6 23 -3 8 -7 3 -11 -10z"/>
<path fill="#000000" stroke="none" d="M178 43 c6 -2 18 -2 25 0 6 3 1 5 -13
5 -14 0 -19 -2 -12 -5z"/>
</g>
</svg>
