<?xml version="1.0" standalone="no"?>
<!DOCTYPE svg PUBLIC "-//W3C//DTD SVG 20010904//EN"
 "http://www.w3.org/TR/2001/REC-SVG-20010904/DTD/svg10.dtd">
<svg version="1.0" xmlns="http://www.w3.org/2000/svg"
 width="32.000000pt" height="32.000000pt" viewBox="0 0 32.000000 32.000000"
 preserveAspectRatio="xMidYMid meet">
<metadata>
Created by potrace 1.16, written by Peter Selinger 2001-2019
</metadata>
<g transform="translate(0.000000,32.000000) scale(0.100000,-0.100000)"
fill="#000000" stroke="none">
<path fill="#000000" stroke="none" d="M310 285 c0 -14 -6 -25 -12 -25 -8 0
-9 -3 -3 -8 16 -11 18 -64 3 -73 -8 -5 -9 -9 -2 -9 8 0 12 -27 12 -79 l0 -79
-145 -1 c-80 0 -148 -3 -151 -6 -3 -3 65 -5 151 -5 l157 0 0 155 c0 85 -2 155
-5 155 -3 0 -5 -11 -5 -25z"/>
<path fill="#000000" stroke="none" d="M286 205 c-3 -8 -1 -15 4 -15 6 0 10 7
10 15 0 8 -2 15 -4 15 -2 0 -6 -7 -10 -15z"/>
<path fill="#000000" stroke="none" d="M263 133 c9 -2 23 -2 30 0 6 3 -1 5
-18 5 -16 0 -22 -2 -12 -5z"/>
<path fill="#000000" stroke="none" d="M108 103 c7 -3 16 -2 19 1 4 3 -2 6
-13 5 -11 0 -14 -3 -6 -6z"/>
<path fill="#000000" stroke="none" d="M206 68 c3 -4 11 -5 19 -1 21 7 19 12
-4 10 -11 0 -18 -5 -15 -9z"/>
<path fill="#000000" stroke="none" d="M250 75 c0 -7 30 -13 34 -7 3 4 -4 9
-15 9 -10 1 -19 0 -19 -2z"/>
<path fill="#000000" stroke="none" d="M145 60 c3 -5 8 -10 11 -10 2 0 4 5 4
10 0 6 -5 10 -11 10 -5 0 -7 -4 -4 -10z"/>
<path fill="#000000" stroke="none" d="M171 58 c-1 -10 6 -18 14 -18 8 0 15 5
15 11 0 5 -4 8 -9 5 -5 -4 -12 0 -14 6 -3 8 -6 6 -6 -4z"/>
<path fill="#000000" stroke="none" d="M238 53 c7 -3 16 -2 19 1 4 3 -2 6 -13
5 -11 0 -14 -3 -6 -6z"/>
<path fill="#000000" stroke="none" d="M291 47 c-1 -11 -6 -15 -13 -11 -7 5
-8 3 -3 -5 10 -16 29 2 22 21 -4 8 -6 7 -6 -5z"/>
</g>
</svg>
