<?xml version="1.0" standalone="no"?>
<!DOCTYPE svg PUBLIC "-//W3C//DTD SVG 20010904//EN"
 "http://www.w3.org/TR/2001/REC-SVG-20010904/DTD/svg10.dtd">
<svg version="1.0" xmlns="http://www.w3.org/2000/svg"
 width="32.000000pt" height="32.000000pt" viewBox="0 0 32.000000 32.000000"
 preserveAspectRatio="xMidYMid meet">
<metadata>
Created by potrace 1.16, written by Peter Selinger 2001-2019
</metadata>
<g transform="translate(0.000000,32.000000) scale(0.100000,-0.100000)"
fill="#000000" stroke="none">
<path fill="#000000" stroke="none" d="M73 240 c0 -47 2 -66 4 -42 2 23 2 61
0 85 -2 23 -4 4 -4 -43z"/>
<path fill="#000000" stroke="none" d="M260 289 c0 -5 5 -7 10 -4 6 3 10 8 10
11 0 2 -4 4 -10 4 -5 0 -10 -5 -10 -11z"/>
<path fill="#000000" stroke="none" d="M280 258 c-9 -20 -9 -21 2 -7 7 9 20
18 28 22 12 4 12 6 -2 6 -10 1 -22 -9 -28 -21z"/>
<path fill="#000000" stroke="none" d="M178 243 c18 -2 45 -2 60 0 15 2 0 4
-33 4 -33 0 -45 -2 -27 -4z"/>
<path fill="#000000" stroke="none" d="M220 139 c0 -5 5 -7 10 -4 6 3 10 8 10
11 0 2 -4 4 -10 4 -5 0 -10 -5 -10 -11z"/>
<path fill="#000000" stroke="none" d="M20 131 c0 -6 5 -13 10 -16 6 -3 10 1
10 9 0 9 -4 16 -10 16 -5 0 -10 -4 -10 -9z"/>
<path fill="#000000" stroke="none" d="M130 115 c0 -8 2 -15 4 -15 2 0 6 7 10
15 3 8 1 15 -4 15 -6 0 -10 -7 -10 -15z"/>
<path fill="#000000" stroke="none" d="M231 94 c0 -11 3 -14 6 -6 3 7 2 16 -1
19 -3 4 -6 -2 -5 -13z"/>
<path fill="#000000" stroke="none" d="M41 85 c8 -8 78 -8 87 0 2 2 -19 5 -47
6 -32 3 -47 1 -40 -6z"/>
<path fill="#000000" stroke="none" d="M296 87 c3 -10 9 -15 12 -12 3 3 0 11
-7 18 -10 9 -11 8 -5 -6z"/>
<path fill="#000000" stroke="none" d="M10 74 c0 -8 5 -12 10 -9 6 4 8 11 5
16 -9 14 -15 11 -15 -7z"/>
<path fill="#000000" stroke="none" d="M225 50 c-3 -6 1 -7 9 -4 18 7 21 14 7
14 -6 0 -13 -4 -16 -10z"/>
</g>
</svg>
