<?xml version="1.0" standalone="no"?>
<!DOCTYPE svg PUBLIC "-//W3C//DTD SVG 20010904//EN"
 "http://www.w3.org/TR/2001/REC-SVG-20010904/DTD/svg10.dtd">
<svg version="1.0" xmlns="http://www.w3.org/2000/svg"
 width="32.000000pt" height="32.000000pt" viewBox="0 0 32.000000 32.000000"
 preserveAspectRatio="xMidYMid meet">
<metadata>
Created by potrace 1.16, written by Peter Selinger 2001-2019
</metadata>
<g transform="translate(0.000000,32.000000) scale(0.100000,-0.100000)"
fill="#000000" stroke="none">
<path fill="#000000" stroke="none" d="M236 311 c-4 -5 -2 -12 3 -15 5 -4 12
-2 15 3 4 5 2 12 -3 15 -5 4 -12 2 -15 -3z"/>
<path fill="#000000" stroke="none" d="M70 290 c0 -5 5 -10 10 -10 6 0 10 5
10 10 0 6 -4 10 -10 10 -5 0 -10 -4 -10 -10z"/>
<path fill="#000000" stroke="none" d="M26 281 c-4 -5 -2 -12 3 -15 5 -4 12
-2 15 3 4 5 2 12 -3 15 -5 4 -12 2 -15 -3z"/>
<path fill="#000000" stroke="none" d="M190 265 c-18 -21 -3 -32 16 -13 10 9
12 18 6 22 -5 3 -15 -1 -22 -9z"/>
<path fill="#000000" stroke="none" d="M227 256 c-3 -8 -2 -18 3 -21 13 -8 20
9 11 24 -6 10 -10 9 -14 -3z"/>
<path fill="#000000" stroke="none" d="M286 248 c3 -5 10 -6 15 -3 13 9 11 12
-6 12 -8 0 -12 -4 -9 -9z"/>
<path fill="#000000" stroke="none" d="M153 215 c0 -8 4 -12 9 -9 5 3 6 10 3
15 -9 13 -12 11 -12 -6z"/>
<path fill="#000000" stroke="none" d="M217 185 c-4 -8 -3 -16 1 -19 4 -3 9 4
9 15 2 23 -3 25 -10 4z"/>
<path fill="#000000" stroke="none" d="M0 176 c0 -15 24 -28 34 -19 3 4 6 11
6 17 0 6 -5 4 -10 -4 -8 -13 -10 -12 -10 3 0 9 -4 17 -10 17 -5 0 -10 -6 -10
-14z"/>
<path fill="#000000" stroke="none" d="M105 179 c-4 -6 -4 -13 -1 -16 3 -4 6
-1 6 6 0 7 5 9 12 5 7 -4 8 -3 4 4 -9 15 -13 15 -21 1z"/>
<path fill="#000000" stroke="none" d="M135 150 c-3 -5 -1 -10 4 -10 6 0 11 5
11 10 0 6 -2 10 -4 10 -3 0 -8 -4 -11 -10z"/>
<path fill="#000000" stroke="none" d="M36 141 c-3 -5 1 -16 9 -24 18 -18 20
-31 3 -21 -7 4 -8 3 -4 -5 10 -15 26 -4 26 18 0 22 -26 46 -34 32z"/>
<path fill="#000000" stroke="none" d="M163 115 c0 -8 4 -12 9 -9 5 3 6 10 3
15 -9 13 -12 11 -12 -6z"/>
<path fill="#000000" stroke="none" d="M238 95 c-9 -20 -9 -28 2 -38 9 -8 11
-8 6 0 -3 6 -2 23 4 37 12 33 3 34 -12 1z"/>
<path fill="#000000" stroke="none" d="M5 91 c-6 -11 13 -26 22 -17 4 3 1 6
-6 6 -7 0 -9 5 -6 10 3 6 4 10 1 10 -3 0 -7 -4 -11 -9z"/>
<path fill="#000000" stroke="none" d="M141 61 c-8 -6 -9 -11 -3 -15 6 -3 14
-1 17 5 9 14 2 20 -14 10z"/>
<path fill="#000000" stroke="none" d="M170 59 c0 -5 5 -7 10 -4 6 3 10 8 10
11 0 2 -4 4 -10 4 -5 0 -10 -5 -10 -11z"/>
<path fill="#000000" stroke="none" d="M272 65 c4 -4 3 -14 -4 -22 -8 -11 -7
-12 6 -7 19 7 21 20 4 30 -7 4 -10 4 -6 -1z"/>
<path fill="#000000" stroke="none" d="M74 49 c-3 -6 0 -17 7 -24 12 -12 17
-11 34 1 19 15 19 15 -7 9 -28 -7 -40 8 -15 18 9 4 9 6 0 6 -6 1 -15 -4 -19
-10z"/>
<path fill="#000000" stroke="none" d="M147 31 c-10 -12 -9 -14 4 -9 9 4 22 1
28 -5 10 -9 12 -9 9 3 -2 8 2 14 9 15 27 1 20 11 -7 11 -17 0 -36 -6 -43 -15z"/>
<path fill="#000000" stroke="none" d="M10 20 c-8 -5 -13 -10 -10 -11 3 0 13
-2 22 -4 11 -2 15 2 11 11 -6 16 -4 16 -23 4z"/>
<path fill="#000000" stroke="none" d="M305 21 c-3 -5 -2 -12 3 -15 5 -3 9 1
9 9 0 17 -3 19 -12 6z"/>
</g>
</svg>
