<?xml version="1.0" standalone="no"?>
<!DOCTYPE svg PUBLIC "-//W3C//DTD SVG 20010904//EN"
 "http://www.w3.org/TR/2001/REC-SVG-20010904/DTD/svg10.dtd">
<svg version="1.0" xmlns="http://www.w3.org/2000/svg"
 width="32.000000pt" height="32.000000pt" viewBox="0 0 32.000000 32.000000"
 preserveAspectRatio="xMidYMid meet">
<metadata>
Created by potrace 1.16, written by Peter Selinger 2001-2019
</metadata>
<g transform="translate(0.000000,32.000000) scale(0.100000,-0.100000)"
fill="#000000" stroke="none">
<path fill="#000000" stroke="none" d="M6 313 c-10 -10 -7 -123 4 -123 6 0 10
-8 10 -17 0 -16 2 -16 11 -3 9 13 10 13 6 0 -2 -8 -11 -14 -21 -12 -12 2 -16
-5 -16 -33 0 -25 4 -34 12 -29 6 4 8 3 4 -4 -3 -5 -3 -12 1 -15 5 -2 2 -2 -5
-1 -7 2 -12 -8 -12 -27 0 -25 3 -30 16 -25 11 4 15 2 11 -8 -5 -12 19 -14 138
-15 102 -1 145 2 151 10 5 8 3 9 -7 4 -11 -7 -12 -6 -2 6 9 11 12 59 12 156
l-1 141 -153 1 c-84 0 -155 -2 -159 -6z"/>
<path fill="#ffffff" stroke="none" d="M263 294 c-1 -5 9 -15 23 -22 24 -12
25 -32 2 -32 -6 0 -9 3 -5 6 3 3 -9 19 -26 34 -26 23 -28 28 -12 26 11 -2 19
-7 18 -12z"/>
<path fill="#ffffff" stroke="none" d="M85 290 c3 -5 1 -10 -4 -10 -6 0 -11 5
-11 10 0 6 2 10 4 10 3 0 8 -4 11 -10z"/>
<path fill="#ffffff" stroke="none" d="M44 269 c-3 -5 -10 -7 -15 -3 -5 3 -7
10 -3 15 3 5 10 7 15 3 5 -3 7 -10 3 -15z"/>
<path fill="#ffffff" stroke="none" d="M240 234 c0 -8 -4 -14 -10 -14 -5 0 -7
6 -4 13 3 8 -2 14 -10 14 -8 0 -12 -5 -9 -10 3 -5 0 -8 -7 -5 -21 7 -23 26 -3
30 22 5 43 -9 43 -28z"/>
<path fill="#ffffff" stroke="none" d="M165 221 c3 -5 2 -12 -3 -15 -5 -3 -9
1 -9 9 0 17 3 19 12 6z"/>
<path fill="#ffffff" stroke="none" d="M227 181 c0 -11 -5 -18 -9 -15 -4 3 -5
11 -1 19 7 21 12 19 10 -4z"/>
<path fill="#ffffff" stroke="none" d="M126 178 c4 -7 3 -8 -4 -4 -7 4 -12 2
-12 -5 0 -7 -3 -10 -6 -6 -6 5 3 27 11 27 2 0 7 -5 11 -12z"/>
<path fill="#ffffff" stroke="none" d="M54 129 c-3 -5 -10 -7 -15 -3 -5 3 -7
10 -3 15 3 5 10 7 15 3 5 -3 7 -10 3 -15z"/>
<path fill="#ffffff" stroke="none" d="M175 121 c3 -5 2 -12 -3 -15 -5 -3 -9
1 -9 9 0 17 3 19 12 6z"/>
<path fill="#ffffff" stroke="none" d="M69 91 c-6 -2 -1 -10 11 -18 15 -11 18
-18 11 -27 -8 -9 -7 -13 4 -13 8 0 11 5 8 10 -3 6 -1 7 6 3 9 -6 9 -11 0 -22
-15 -18 -43 1 -34 23 3 8 -5 24 -17 35 -13 11 -17 17 -10 13 7 -4 12 1 12 12
0 15 2 16 10 3 6 -10 6 -16 -1 -19z"/>
<path fill="#ffffff" stroke="none" d="M120 94 c0 -10 -5 -12 -12 -8 -9 5 -9
2 1 -9 8 -10 9 -17 3 -17 -22 0 -35 40 -18 52 13 9 26 0 26 -18z"/>
<path fill="#ffffff" stroke="none" d="M250 94 c-6 -14 -7 -31 -4 -37 5 -8 3
-8 -6 0 -11 10 -11 18 -2 38 15 33 24 32 12 -1z"/>
<path fill="#ffffff" stroke="none" d="M190 66 c0 -3 -4 -8 -10 -11 -5 -3 -10
-1 -10 4 0 6 5 11 10 11 6 0 10 -2 10 -4z"/>
<path fill="#ffffff" stroke="none" d="M304 56 c-3 -8 -15 -16 -27 -19 -21 -6
-21 -6 2 14 28 23 32 24 25 5z"/>
<path fill="#ffffff" stroke="none" d="M198 46 c12 1 20 -1 16 -5 -3 -3 -11
-6 -17 -6 -7 -1 -11 -7 -9 -15 3 -12 1 -12 -9 -3 -6 6 -19 9 -28 5 -13 -5 -14
-3 -4 10 7 8 9 19 5 24 -4 4 0 4 8 -2 8 -6 25 -9 38 -8z"/>
</g>
</svg>
