<?xml version="1.0" standalone="no"?>
<!DOCTYPE svg PUBLIC "-//W3C//DTD SVG 20010904//EN"
 "http://www.w3.org/TR/2001/REC-SVG-20010904/DTD/svg10.dtd">
<svg version="1.0" xmlns="http://www.w3.org/2000/svg"
 width="32.000000pt" height="32.000000pt" viewBox="0 0 32.000000 32.000000"
 preserveAspectRatio="xMidYMid meet">
<metadata>
Created by potrace 1.16, written by Peter Selinger 2001-2019
</metadata>
<g transform="translate(0.000000,32.000000) scale(0.100000,-0.100000)"
fill="#000000" stroke="none">
<path fill="#000000" stroke="none" d="M80 300 c0 -13 60 -63 67 -56 4 4 1 11
-7 16 -13 8 -12 10 3 10 9 0 17 4 17 10 0 5 -7 6 -17 3 -12 -5 -14 -3 -8 8 8
12 6 12 -8 0 -15 -12 -17 -12 -11 2 4 12 0 15 -15 14 -12 -1 -21 -4 -21 -7z"/>
<path fill="#000000" stroke="none" d="M46 264 c-21 -20 -20 -21 9 -21 19 0
23 3 15 12 -5 6 -7 15 -3 18 3 4 4 7 0 7 -3 0 -13 -7 -21 -16z"/>
<path fill="#000000" stroke="none" d="M84 180 c2 -17 7 -34 11 -38 4 -4 5 3
2 15 -3 13 -1 26 4 29 14 8 11 24 -6 24 -10 0 -14 -9 -11 -30z"/>
<path fill="#000000" stroke="none" d="M53 128 c-23 -30 -24 -41 -2 -21 12 12
20 25 17 28 -3 3 -10 0 -15 -7z"/>
</g>
</svg>
