<?xml version="1.0" standalone="no"?>
<!DOCTYPE svg PUBLIC "-//W3C//DTD SVG 20010904//EN"
 "http://www.w3.org/TR/2001/REC-SVG-20010904/DTD/svg10.dtd">
<svg version="1.0" xmlns="http://www.w3.org/2000/svg"
 width="32.000000pt" height="32.000000pt" viewBox="0 0 32.000000 32.000000"
 preserveAspectRatio="xMidYMid meet">
<metadata>
Created by potrace 1.16, written by Peter Selinger 2001-2019
</metadata>
<g transform="translate(0.000000,32.000000) scale(0.100000,-0.100000)"
fill="#000000" stroke="none">
<path fill="#000000" stroke="none" d="M0 160 l0 -160 160 0 160 0 0 160 0
160 -160 0 -160 0 0 -160z"/>
<path fill="#ffffff" stroke="none" d="M240 284 c0 -7 -8 -10 -19 -7 -10 3
-31 -3 -45 -12 -14 -10 -26 -13 -26 -7 0 13 48 37 73 38 9 0 17 -6 17 -12z"/>
<path fill="#ffffff" stroke="none" d="M298 281 c3 -8 -4 -12 -19 -9 -12 1
-24 9 -27 16 -2 8 4 11 19 9 13 -2 25 -9 27 -16z"/>
<path fill="#ffffff" stroke="none" d="M282 220 c-1 -7 4 -23 13 -36 8 -13 15
-29 15 -36 -1 -7 -10 4 -21 25 -19 35 -23 38 -52 32 l-32 -6 30 20 c32 21 52
21 47 1z"/>
</g>
</svg>
