<?xml version="1.0" standalone="no"?>
<!DOCTYPE svg PUBLIC "-//W3C//DTD SVG 20010904//EN"
 "http://www.w3.org/TR/2001/REC-SVG-20010904/DTD/svg10.dtd">
<svg version="1.0" xmlns="http://www.w3.org/2000/svg"
 width="32.000000pt" height="32.000000pt" viewBox="0 0 32.000000 32.000000"
 preserveAspectRatio="xMidYMid meet">
<metadata>
Created by potrace 1.16, written by Peter Selinger 2001-2019
</metadata>
<g transform="translate(0.000000,32.000000) scale(0.100000,-0.100000)"
fill="#000000" stroke="none">
<path fill="#000000" stroke="none" d="M120 309 c0 -5 5 -7 10 -4 6 3 10 8 10
11 0 2 -4 4 -10 4 -5 0 -10 -5 -10 -11z"/>
<path fill="#000000" stroke="none" d="M309 215 c-1 -3 -2 -8 -3 -12 -1 -5 -5
-13 -9 -20 -4 -6 -3 -15 3 -18 6 -4 10 -3 9 2 -1 4 0 10 1 13 5 13 8 40 4 40
-2 0 -5 -2 -5 -5z"/>
<path fill="#000000" stroke="none" d="M256 172 c-3 -5 1 -9 9 -9 8 0 12 4 9
9 -3 4 -7 8 -9 8 -2 0 -6 -4 -9 -8z"/>
<path fill="#000000" stroke="none" d="M110 136 c7 -7 14 -6 21 1 9 9 7 12 -9
10 -14 -1 -18 -5 -12 -11z"/>
<path fill="#000000" stroke="none" d="M11 101 c-7 -13 -8 -22 -1 -26 14 -9
29 2 26 20 -4 25 -14 28 -25 6z"/>
<path fill="#000000" stroke="none" d="M91 31 c-8 -6 -9 -11 -3 -15 6 -3 14
-1 17 5 9 14 2 20 -14 10z"/>
<path fill="#000000" stroke="none" d="M10 20 c-8 -5 -13 -10 -10 -11 3 0 13
-2 22 -4 11 -2 15 2 11 11 -6 16 -4 16 -23 4z"/>
<path fill="#000000" stroke="none" d="M305 21 c-3 -5 -2 -12 3 -15 5 -3 9 1
9 9 0 17 -3 19 -12 6z"/>
</g>
</svg>
