<?xml version="1.0" standalone="no"?>
<!DOCTYPE svg PUBLIC "-//W3C//DTD SVG 20010904//EN"
 "http://www.w3.org/TR/2001/REC-SVG-20010904/DTD/svg10.dtd">
<svg version="1.0" xmlns="http://www.w3.org/2000/svg"
 width="32.000000pt" height="32.000000pt" viewBox="0 0 32.000000 32.000000"
 preserveAspectRatio="xMidYMid meet">
<metadata>
Created by potrace 1.16, written by Peter Selinger 2001-2019
</metadata>
<g transform="translate(0.000000,32.000000) scale(0.100000,-0.100000)"
fill="#000000" stroke="none">
<path fill="#000000" stroke="none" d="M178 282 c-16 -7 -28 -18 -28 -24 0 -6
12 -3 26 7 14 9 35 15 45 12 11 -3 19 0 19 7 0 15 -28 15 -62 -2z"/>
<path fill="#000000" stroke="none" d="M252 288 c3 -7 15 -15 27 -16 15 -3 22
1 19 9 -2 7 -14 14 -27 16 -15 2 -21 -1 -19 -9z"/>
<path fill="#000000" stroke="none" d="M235 219 l-30 -20 32 6 c29 6 33 3 52
-32 11 -21 20 -32 21 -25 0 7 -7 23 -15 36 -9 13 -14 29 -13 36 5 20 -15 20
-47 -1z"/>
</g>
</svg>
