<?xml version="1.0" standalone="no"?>
<!DOCTYPE svg PUBLIC "-//W3C//DTD SVG 20010904//EN"
 "http://www.w3.org/TR/2001/REC-SVG-20010904/DTD/svg10.dtd">
<svg version="1.0" xmlns="http://www.w3.org/2000/svg"
 width="32.000000pt" height="32.000000pt" viewBox="0 0 32.000000 32.000000"
 preserveAspectRatio="xMidYMid meet">
<metadata>
Created by potrace 1.16, written by Peter Selinger 2001-2019
</metadata>
<g transform="translate(0.000000,32.000000) scale(0.100000,-0.100000)"
fill="#000000" stroke="none">
<path fill="#000000" stroke="none" d="M6 313 c-10 -10 -7 -123 4 -123 6 0 10
-8 10 -17 0 -16 2 -16 11 -3 9 13 10 13 6 0 -2 -8 -11 -14 -21 -12 -12 2 -16
-5 -16 -33 0 -25 4 -34 12 -29 6 4 8 3 4 -4 -3 -5 -3 -12 1 -15 5 -2 2 -2 -5
-1 -7 2 -12 -8 -12 -27 0 -25 3 -30 16 -25 11 4 15 2 11 -8 -5 -12 19 -14 138
-15 102 -1 145 2 151 10 5 8 3 9 -7 4 -11 -7 -12 -6 -2 6 9 11 12 60 12 157
l-1 142 -34 0 c-19 0 -33 -3 -31 -7 1 -5 -3 -8 -8 -8 -5 0 -9 3 -8 7 3 9 -222
10 -231 1z"/>
<path fill="#ffffff" stroke="none" d="M90 290 c0 -5 -4 -10 -10 -10 -5 0 -10
5 -10 10 0 6 5 10 10 10 6 0 10 -4 10 -10z"/>
<path fill="#ffffff" stroke="none" d="M44 269 c-3 -5 -10 -7 -15 -3 -5 3 -7
10 -3 15 3 5 10 7 15 3 5 -3 7 -10 3 -15z"/>
<path fill="#ffffff" stroke="none" d="M206 252 c-8 -9 -19 -13 -22 -9 -10 9
16 38 28 31 6 -4 4 -13 -6 -22z"/>
<path fill="#ffffff" stroke="none" d="M244 238 c-9 -14 -23 2 -17 18 4 12 8
13 14 3 4 -7 5 -17 3 -21z"/>
<path fill="#ffffff" stroke="none" d="M310 254 c0 -8 -19 -13 -24 -6 -3 5 1
9 9 9 8 0 15 -2 15 -3z"/>
<path fill="#ffffff" stroke="none" d="M165 221 c3 -5 2 -12 -3 -15 -5 -3 -9
1 -9 9 0 17 3 19 12 6z"/>
<path fill="#ffffff" stroke="none" d="M227 181 c0 -11 -5 -18 -9 -15 -4 3 -5
11 -1 19 7 21 12 19 10 -4z"/>
<path fill="#ffffff" stroke="none" d="M126 178 c4 -7 3 -8 -4 -4 -7 4 -12 2
-12 -5 0 -7 -3 -10 -6 -6 -6 5 3 27 11 27 2 0 7 -5 11 -12z"/>
<path fill="#ffffff" stroke="none" d="M150 150 c0 -5 -5 -10 -11 -10 -5 0 -7
5 -4 10 3 6 8 10 11 10 2 0 4 -4 4 -10z"/>
<path fill="#ffffff" stroke="none" d="M70 109 c0 -22 -16 -33 -26 -18 -4 8
-3 9 4 5 17 -10 15 3 -3 21 -19 18 -9 39 11 22 8 -6 14 -20 14 -30z"/>
<path fill="#ffffff" stroke="none" d="M175 121 c3 -5 2 -12 -3 -15 -5 -3 -9
1 -9 9 0 17 3 19 12 6z"/>
<path fill="#ffffff" stroke="none" d="M250 94 c-6 -14 -7 -31 -4 -37 5 -8 3
-8 -6 0 -11 10 -11 18 -2 38 15 33 24 32 12 -1z"/>
<path fill="#ffffff" stroke="none" d="M155 51 c-3 -6 -11 -8 -17 -5 -6 4 -5
9 3 15 16 10 23 4 14 -10z"/>
<path fill="#ffffff" stroke="none" d="M190 66 c0 -3 -4 -8 -10 -11 -5 -3 -10
-1 -10 4 0 6 5 11 10 11 6 0 10 -2 10 -4z"/>
<path fill="#ffffff" stroke="none" d="M290 50 c0 -4 -7 -11 -16 -14 -13 -5
-14 -4 -6 7 7 8 8 18 4 22 -4 5 -1 5 6 1 6 -4 12 -11 12 -16z"/>
<path fill="#ffffff" stroke="none" d="M93 53 c-25 -10 -13 -25 15 -18 26 6
26 6 7 -9 -17 -12 -22 -13 -34 -1 -14 14 -7 35 12 34 9 0 9 -2 0 -6z"/>
<path fill="#ffffff" stroke="none" d="M214 41 c-3 -3 -11 -6 -17 -6 -7 -1
-11 -7 -9 -15 3 -12 1 -12 -9 -3 -6 6 -19 9 -28 5 -13 -5 -14 -3 -4 9 7 9 26
15 43 15 16 0 27 -2 24 -5z"/>
</g>
</svg>
