<?xml version="1.0" standalone="no"?>
<!DOCTYPE svg PUBLIC "-//W3C//DTD SVG 20010904//EN"
 "http://www.w3.org/TR/2001/REC-SVG-20010904/DTD/svg10.dtd">
<svg version="1.0" xmlns="http://www.w3.org/2000/svg"
 width="32.000000pt" height="32.000000pt" viewBox="0 0 32.000000 32.000000"
 preserveAspectRatio="xMidYMid meet">
<metadata>
Created by potrace 1.16, written by Peter Selinger 2001-2019
</metadata>
<g transform="translate(0.000000,32.000000) scale(0.100000,-0.100000)"
fill="#000000" stroke="none">
<path fill="#000000" stroke="none" d="M73 307 c-3 -6 -1 -7 5 -3 7 4 12 2 12
-5 0 -6 -8 -9 -20 -6 -11 3 -20 1 -20 -4 0 -12 97 -12 105 0 3 5 0 13 -6 16
-17 11 -70 12 -76 2z"/>
<path fill="#ffffff" stroke="none" d="M127 294 c-3 -3 -12 -4 -19 -1 -8 3 -5
6 6 6 11 1 17 -2 13 -5z"/>
<path fill="#000000" stroke="none" d="M6 294 c-4 -11 -1 -14 11 -12 9 2 18 9
21 16 6 18 -25 15 -32 -4z"/>
<path fill="#000000" stroke="none" d="M154 195 c-3 -8 -4 -20 -2 -27 3 -7 7
-1 10 15 6 29 1 36 -8 12z"/>
<path fill="#000000" stroke="none" d="M110 175 c13 -14 26 -25 28 -25 3 0 -5
11 -18 25 -13 14 -26 25 -28 25 -3 0 5 -11 18 -25z"/>
<path fill="#000000" stroke="none" d="M308 179 c-2 -6 -16 -11 -31 -11 -31 0
-30 -7 1 -13 20 -3 50 20 39 31 -2 3 -7 0 -9 -7z"/>
<path fill="#000000" stroke="none" d="M138 143 c-14 -4 -15 -8 -5 -24 16 -26
22 -24 22 6 0 14 0 24 0 24 0 -1 -8 -3 -17 -6z"/>
<path fill="#000000" stroke="none" d="M4 129 c-2 -4 5 -10 16 -14 11 -4 17
-11 14 -17 -4 -7 -9 -6 -14 2 -5 9 -9 9 -14 1 -4 -6 3 -15 16 -20 28 -10 39
-5 31 14 -3 10 1 15 13 14 11 0 14 -3 7 -5 -8 -4 -9 -13 -3 -29 10 -26 5 -35
-19 -35 -14 0 -14 2 -1 11 13 9 12 10 -3 5 -9 -3 -17 0 -17 6 0 6 -3 8 -6 5
-4 -4 -2 -13 4 -20 7 -8 9 -16 6 -20 -3 -3 4 -3 15 0 12 3 24 9 26 14 3 4 13
6 23 3 15 -5 15 -4 2 8 -8 7 -16 22 -18 33 -2 18 -1 18 10 4 13 -16 38 -15 38
2 0 6 -5 7 -11 4 -6 -4 -19 2 -29 13 -14 15 -16 22 -7 25 7 3 -7 5 -31 5 -24
-1 -45 -5 -48 -9z"/>
<path fill="#000000" stroke="none" d="M200 115 c13 -14 26 -25 28 -25 3 0 -5
11 -18 25 -13 14 -26 25 -28 25 -3 0 5 -11 18 -25z"/>
<path fill="#000000" stroke="none" d="M143 78 c-25 -12 -29 -23 -13 -33 6 -3
10 -12 10 -18 0 -8 -3 -8 -9 2 -6 9 -11 10 -15 2 -4 -6 -11 -9 -15 -7 -4 3 -8
-1 -8 -9 0 -11 9 -14 34 -11 40 4 48 10 37 28 -12 18 -12 31 -1 46 11 14 9 14
-20 0z"/>
<path fill="#000000" stroke="none" d="M2 60 c0 -8 4 -26 8 -40 6 -20 8 -21 8
-5 0 11 -3 29 -8 40 -5 12 -8 14 -8 5z"/>
<path fill="#000000" stroke="none" d="M310 26 c0 -8 -8 -17 -17 -19 -14 -4
-12 -5 5 -6 16 -1 22 5 22 19 0 11 -2 20 -5 20 -3 0 -5 -6 -5 -14z"/>
<path fill="#000000" stroke="none" d="M55 10 c4 -6 11 -8 16 -5 14 9 11 15
-7 15 -8 0 -12 -5 -9 -10z"/>
</g>
</svg>
