<?xml version="1.0" standalone="no"?>
<!DOCTYPE svg PUBLIC "-//W3C//DTD SVG 20010904//EN"
 "http://www.w3.org/TR/2001/REC-SVG-20010904/DTD/svg10.dtd">
<svg version="1.0" xmlns="http://www.w3.org/2000/svg"
 width="32.000000pt" height="32.000000pt" viewBox="0 0 32.000000 32.000000"
 preserveAspectRatio="xMidYMid meet">
<metadata>
Created by potrace 1.16, written by Peter Selinger 2001-2019
</metadata>
<g transform="translate(0.000000,32.000000) scale(0.100000,-0.100000)"
fill="#000000" stroke="none">
<path fill="#000000" stroke="none" d="M0 279 c0 -21 7 -45 16 -53 14 -15 11
-20 -9 -17 -4 0 -7 -15 -7 -35 0 -20 4 -33 10 -29 5 3 8 11 6 18 -1 7 -1 9 1
4 3 -4 8 -5 13 -2 4 3 10 -2 13 -10 4 -9 1 -12 -9 -8 -10 4 -12 0 -8 -11 4
-12 2 -15 -9 -11 -12 5 -15 -5 -16 -54 -1 -55 1 -60 19 -56 11 2 20 -1 20 -6
0 -12 49 -9 68 4 7 6 12 5 12 -2 0 -6 9 -11 20 -11 11 0 20 1 20 3 0 1 -4 17
-9 35 -6 18 -6 30 -1 27 5 -3 11 -19 15 -35 6 -29 35 -43 35 -17 0 8 3 8 9 -2
7 -11 10 -10 14 5 4 16 5 17 6 2 1 -13 10 -18 31 -18 17 0 30 5 30 11 0 6 -7
9 -15 5 -11 -4 -15 1 -14 17 0 12 3 16 6 9 2 -6 9 -10 14 -6 5 3 9 -1 10 -8 1
-28 22 40 25 83 3 35 0 46 -11 46 -8 0 -15 -4 -15 -8 0 -5 -6 -6 -14 -3 -18 7
-29 -25 -14 -43 10 -13 14 -12 25 3 8 11 13 13 13 5 0 -7 -6 -19 -14 -26 -12
-12 -15 -12 -20 2 -4 9 -9 13 -13 10 -3 -4 -12 -2 -19 4 -11 9 -16 6 -23 -12
-7 -18 -10 -20 -10 -6 -1 14 -5 16 -19 8 -14 -8 -19 -6 -19 5 0 9 8 14 21 12
12 -2 31 6 44 17 19 16 20 21 9 30 -7 5 -16 19 -20 30 -7 20 -7 20 8 1 11 -14
15 -16 15 -5 1 8 3 32 6 54 4 37 4 39 -11 21 -8 -11 -15 -24 -15 -29 0 -4 -7
-2 -15 7 -17 17 -20 30 -4 21 13 -8 38 23 39 48 0 10 -7 17 -20 17 -11 0 -20
-5 -20 -11 0 -5 -4 -8 -8 -5 -5 3 -21 -7 -36 -21 -25 -23 -26 -27 -12 -35 10
-5 16 -19 15 -31 -2 -35 1 -43 11 -27 8 13 10 12 10 -3 0 -14 -6 -17 -28 -14
-32 5 -83 -25 -63 -37 6 -4 11 -12 11 -17 0 -6 -4 -8 -9 -5 -5 4 -7 -4 -3 -16
3 -14 1 -19 -6 -14 -6 3 -13 2 -17 -4 -4 -6 -10 -8 -15 -5 -5 3 -13 -3 -19
-12 -12 -20 -12 -20 -15 20 -1 22 1 25 9 14 7 -9 17 -11 30 -6 11 4 16 8 11 8
-5 1 -3 7 3 15 8 9 8 16 2 20 -7 5 -6 15 1 32 7 15 14 20 18 14 5 -8 12 -6 24
5 12 12 16 13 17 3 0 -7 5 -3 11 9 15 31 -7 60 -30 41 -13 -11 -15 -10 -9 5 9
24 -10 22 -23 -3 -6 -11 -15 -18 -21 -15 -5 4 -9 -2 -10 -12 0 -10 -6 -4 -13
15 -6 18 -15 30 -19 26 -13 -13 -7 12 8 32 10 13 14 15 15 5 0 -11 5 -9 21 5
12 10 23 17 24 14 2 -3 6 -2 10 2 3 3 -16 6 -44 5 l-51 0 0 -38z"/>
<path fill="#ffffff" stroke="none" d="M110 216 c0 -2 -9 -6 -20 -9 -11 -3
-18 -1 -14 4 5 9 34 13 34 5z"/>
<path fill="#ffffff" stroke="none" d="M200 210 c0 -5 -2 -10 -4 -10 -3 0 -8
5 -11 10 -3 6 -1 10 4 10 6 0 11 -4 11 -10z"/>
<path fill="#ffffff" stroke="none" d="M205 180 c3 -5 1 -10 -4 -10 -6 0 -11
5 -11 10 0 6 2 10 4 10 3 0 8 -4 11 -10z"/>
<path fill="#ffffff" stroke="none" d="M175 142 c0 -20 -18 -18 -21 1 -1 10 3
16 9 14 7 -2 12 -9 12 -15z"/>
<path fill="#ffffff" stroke="none" d="M134 114 c9 -3 16 -14 16 -23 -1 -14
-2 -14 -14 2 -10 13 -15 15 -19 5 -2 -7 -8 -10 -12 -6 -4 4 -4 11 0 17 7 13 8
13 29 5z"/>
<path fill="#ffffff" stroke="none" d="M248 51 c2 -29 -10 -15 -23 28 -6 20
-5 22 7 11 8 -8 15 -25 16 -39z"/>
<path fill="#ffffff" stroke="none" d="M113 46 c-20 -29 -37 -29 -40 0 -3 18
-2 18 6 -1 8 -17 10 -18 10 -2 1 9 6 17 12 17 5 0 7 5 3 12 -4 7 -3 8 4 4 7
-4 12 -1 13 6 0 10 2 10 6 1 2 -7 -4 -24 -14 -37z"/>
<path fill="#ffffff" stroke="none" d="M196 24 c-8 -9 -12 -7 -17 10 -8 29 0
41 16 20 9 -13 9 -21 1 -30z"/>
<path fill="#ffffff" stroke="none" d="M60 42 c0 -5 -7 -9 -15 -9 -8 0 -12 4
-9 9 7 10 24 10 24 0z"/>
<path fill="#000000" stroke="none" d="M103 301 c-10 -16 -9 -22 3 -32 13 -10
17 -10 24 1 5 8 6 18 3 23 -3 4 3 7 12 5 10 -2 20 3 22 10 8 21 -51 15 -64 -7z"/>
<path fill="#000000" stroke="none" d="M250 305 c0 -11 4 -27 9 -34 6 -9 6
-22 0 -33 -9 -16 -7 -18 15 -14 29 5 40 -14 22 -40 -13 -17 -14 -16 -20 4 -11
32 -23 27 -24 -10 0 -18 2 -28 6 -23 4 6 18 10 32 10 20 0 26 6 28 29 2 16 -1
33 -6 38 -7 7 -7 18 0 34 6 12 8 30 5 38 -7 16 -47 18 -47 1 0 -5 -5 -3 -10 5
-8 12 -10 12 -10 -5z"/>
<path fill="#ffffff" stroke="none" d="M300 263 c0 -26 -16 -12 -18 15 -1 21
0 23 8 12 5 -8 10 -21 10 -27z"/>
<path fill="#000000" stroke="none" d="M62 284 c-7 -8 -17 -12 -23 -9 -11 7
-11 -3 1 -30 l9 -20 1 20 c1 18 2 18 8 3 7 -17 8 -17 18 0 6 9 8 24 5 33 -5
15 -8 15 -19 3z"/>
<path fill="#000000" stroke="none" d="M300 10 c0 -5 5 -10 10 -10 6 0 10 5
10 10 0 6 -4 10 -10 10 -5 0 -10 -4 -10 -10z"/>
</g>
</svg>
