<?xml version="1.0" standalone="no"?>
<!DOCTYPE svg PUBLIC "-//W3C//DTD SVG 20010904//EN"
 "http://www.w3.org/TR/2001/REC-SVG-20010904/DTD/svg10.dtd">
<svg version="1.0" xmlns="http://www.w3.org/2000/svg"
 width="32.000000pt" height="32.000000pt" viewBox="0 0 32.000000 32.000000"
 preserveAspectRatio="xMidYMid meet">
<metadata>
Created by potrace 1.16, written by Peter Selinger 2001-2019
</metadata>
<g transform="translate(0.000000,32.000000) scale(0.100000,-0.100000)"
fill="#000000" stroke="none">
<path fill="#000000" stroke="none" d="M53 309 c3 -9 0 -23 -6 -30 -7 -7 -2
-5 11 5 26 23 28 15 5 -20 -12 -19 -18 -22 -24 -12 -7 10 -9 9 -9 -3 0 -9 7
-19 15 -23 8 -3 15 -2 15 2 0 5 7 17 15 28 13 17 14 12 10 -53 -4 -76 -30
-137 -46 -111 -7 10 -9 9 -9 -3 0 -29 27 -29 40 -1 11 23 14 24 18 9 2 -10 -2
-25 -10 -34 -9 -12 -9 -15 -1 -9 7 4 13 3 13 -2 0 -5 12 -8 28 -5 20 2 22 1 9
-5 -17 -7 -17 -10 -4 -20 12 -10 15 -9 19 5 8 30 -2 42 -28 37 -22 -4 -24 -2
-15 14 6 11 6 24 0 33 -5 7 -9 23 -9 34 0 17 2 17 10 5 6 -10 10 -11 10 -2 0
6 5 11 11 10 6 -2 13 4 14 12 2 8 4 20 5 25 6 25 -1 33 -26 29 -22 -4 -24 -2
-16 13 7 11 7 24 1 35 -6 10 -5 19 1 23 5 3 10 11 10 17 0 7 -4 7 -12 0 -19
-15 -30 -15 -40 0 -8 10 -9 9 -5 -3z"/>
<path fill="#ffffff" stroke="none" d="M117 187 c9 -19 8 -24 -3 -24 -8 0 -14
4 -14 8 0 4 -3 14 -6 23 -10 25 12 18 23 -7z"/>
<path fill="#000000" stroke="none" d="M167 306 c-3 -8 0 -17 8 -20 10 -3 12
0 8 11 -4 11 -2 14 5 9 7 -4 12 -2 12 3 0 16 -27 13 -33 -3z"/>
<path fill="#000000" stroke="none" d="M241 304 c0 -11 3 -14 6 -6 3 7 2 16
-1 19 -3 4 -6 -2 -5 -13z"/>
<path fill="#000000" stroke="none" d="M261 304 c0 -11 3 -14 6 -6 3 7 2 16
-1 19 -3 4 -6 -2 -5 -13z"/>
<path fill="#000000" stroke="none" d="M304 305 c-4 -8 -10 -12 -15 -9 -5 3
-6 -2 -3 -10 7 -20 20 -13 27 14 6 23 -1 27 -9 5z"/>
<path fill="#000000" stroke="none" d="M128 293 c-5 -26 -2 -39 11 -49 12 -9
18 -8 29 5 12 14 13 14 9 -6 -6 -27 8 -40 17 -17 3 8 10 13 15 9 5 -3 12 -1
16 5 4 6 10 8 15 5 13 -8 20 9 9 25 -6 11 -9 12 -9 2 0 -7 -5 -10 -12 -6 -6 4
-8 3 -5 -3 4 -6 -2 -13 -13 -16 -10 -3 -21 0 -23 6 -4 14 -37 18 -38 4 0 -7
-4 -3 -8 8 -5 12 -4 23 3 27 8 6 7 8 -1 8 -7 0 -14 -3 -15 -7z"/>
<path fill="#000000" stroke="none" d="M15 269 c-4 -6 -5 -12 -2 -15 2 -3 7 2
10 11 7 17 1 20 -8 4z"/>
<path fill="#000000" stroke="none" d="M273 263 c4 -6 3 -14 -3 -18 -6 -4 -8
-11 -5 -16 4 -5 1 -9 -5 -9 -6 0 -9 -4 -5 -9 3 -5 1 -12 -4 -15 -5 -4 -12 2
-14 11 -4 16 -5 16 -6 1 -3 -40 40 -24 45 17 1 6 2 15 3 20 1 6 6 3 11 -5 5
-8 10 -10 10 -4 0 6 -8 18 -17 25 -10 8 -14 9 -10 2z"/>
<path fill="#000000" stroke="none" d="M312 250 c0 -14 2 -19 5 -12 2 6 2 18
0 25 -3 6 -5 1 -5 -13z"/>
<path fill="#000000" stroke="none" d="M0 228 c0 -18 20 -47 20 -30 0 7 4 10
10 7 6 -3 10 -1 10 4 0 6 -7 11 -16 11 -8 0 -12 5 -9 10 3 6 1 10 -4 10 -6 0
-11 -6 -11 -12z"/>
<path fill="#000000" stroke="none" d="M196 202 c-3 -5 1 -9 9 -9 8 0 15 4 15
9 0 4 -4 8 -9 8 -6 0 -12 -4 -15 -8z"/>
<path fill="#000000" stroke="none" d="M45 189 c-6 -8 -4 -10 5 -4 10 6 12 4
6 -11 -6 -15 -5 -17 5 -6 9 9 10 15 2 23 -8 8 -13 7 -18 -2z"/>
<path fill="#000000" stroke="none" d="M8 155 c-3 -14 -2 -25 2 -25 4 0 10 11
12 25 3 14 2 25 -2 25 -4 0 -10 -11 -12 -25z"/>
<path fill="#000000" stroke="none" d="M154 163 c-8 -8 -14 -20 -14 -26 0 -6
7 -1 16 11 13 18 19 21 30 11 11 -9 14 -8 14 3 0 19 -28 19 -46 1z"/>
<path fill="#000000" stroke="none" d="M260 160 c-6 -12 -14 -19 -17 -16 -4 3
-15 -1 -25 -11 -14 -13 -18 -13 -18 -2 -1 10 -5 8 -15 -5 -17 -22 -20 -40 -6
-32 5 4 13 -8 17 -26 6 -29 8 -30 15 -13 11 28 10 56 -1 30 -5 -11 -9 -15 -9
-8 -1 6 -4 19 -8 29 -4 11 -3 15 4 11 6 -4 18 0 27 8 13 14 15 9 12 -42 -2
-32 -2 -52 1 -45 3 6 11 12 20 12 12 0 12 2 -2 16 -11 12 -13 20 -5 29 6 7 10
17 8 21 -1 5 4 20 11 32 7 13 10 26 8 29 -3 2 -11 -5 -17 -17z"/>
<path fill="#000000" stroke="none" d="M123 121 c2 -20 47 -84 55 -76 1 1 -4
17 -12 36 -9 19 -16 27 -16 19 -1 -8 -7 -1 -15 15 -13 27 -14 27 -12 6z"/>
<path fill="#000000" stroke="none" d="M276 113 c2 -7 -1 -15 -6 -18 -6 -4
-10 -11 -10 -16 0 -6 6 -7 13 -2 6 4 19 8 27 8 8 0 15 7 16 15 0 9 -1 10 -3 3
-3 -7 -8 -13 -13 -13 -5 0 -6 7 -3 17 4 10 2 14 -4 10 -6 -4 -13 -4 -16 0 -2
5 -2 3 -1 -4z"/>
<path fill="#000000" stroke="none" d="M9 103 c-13 -16 -12 -17 4 -4 16 13 21
21 13 21 -2 0 -10 -8 -17 -17z"/>
<path fill="#000000" stroke="none" d="M10 72 c0 -5 7 -15 15 -22 19 -16 19
-3 0 16 -8 9 -15 11 -15 6z"/>
<path fill="#000000" stroke="none" d="M304 44 c-4 -14 -9 -22 -13 -17 -10 14
-25 12 -40 -5 -13 -13 -12 -14 12 -8 17 4 27 2 27 -4 0 -21 26 13 28 37 2 31
-6 29 -14 -3z"/>
<path fill="#000000" stroke="none" d="M39 23 c-6 -7 -15 -11 -19 -8 -5 3 -11
1 -15 -5 -3 -5 3 -10 13 -10 11 0 23 8 26 17 6 14 9 15 15 4 7 -10 9 -10 14 1
7 18 -20 19 -34 1z"/>
<path fill="#000000" stroke="none" d="M85 19 c-4 -6 -5 -12 -2 -15 2 -3 7 2
10 11 7 17 1 20 -8 4z"/>
<path fill="#000000" stroke="none" d="M184 19 c-4 -7 -3 -9 4 -5 5 3 13 0 15
-6 4 -9 6 -10 6 -1 1 17 -16 25 -25 12z"/>
<path fill="#000000" stroke="none" d="M105 10 c-3 -5 -1 -10 4 -10 6 0 11 5
11 10 0 6 -2 10 -4 10 -3 0 -8 -4 -11 -10z"/>
<path fill="#000000" stroke="none" d="M155 10 c-3 -5 -1 -10 4 -10 6 0 11 5
11 10 0 6 -2 10 -4 10 -3 0 -8 -4 -11 -10z"/>
</g>
</svg>
