<?xml version="1.0" standalone="no"?>
<!DOCTYPE svg PUBLIC "-//W3C//DTD SVG 20010904//EN"
 "http://www.w3.org/TR/2001/REC-SVG-20010904/DTD/svg10.dtd">
<svg version="1.0" xmlns="http://www.w3.org/2000/svg"
 width="32.000000pt" height="32.000000pt" viewBox="0 0 32.000000 32.000000"
 preserveAspectRatio="xMidYMid meet">
<metadata>
Created by potrace 1.16, written by Peter Selinger 2001-2019
</metadata>
<g transform="translate(0.000000,32.000000) scale(0.100000,-0.100000)"
fill="#000000" stroke="none">
<path fill="#000000" stroke="none" d="M0 293 c0 -29 10 -29 31 0 16 22 16 23
-7 23 -18 0 -24 -5 -24 -23z"/>
<path fill="#000000" stroke="none" d="M66 314 c6 -2 8 -18 6 -34 -4 -27 -13
-35 -35 -31 -16 3 -1 -22 19 -33 10 -6 20 -11 20 -11 1 0 5 -11 8 -25 4 -14 4
-20 -1 -14 -4 6 -16 10 -26 8 -13 -2 -16 2 -12 16 3 10 1 21 -4 25 -7 4 -8 -1
-4 -12 5 -15 3 -16 -8 -5 -22 20 -29 14 -28 -25 l2 -38 7 35 c6 30 8 32 15 15
4 -11 10 -24 13 -29 3 -5 0 -6 -6 -2 -7 4 -12 1 -12 -8 0 -9 -4 -16 -10 -16
-5 0 -10 -7 -10 -16 0 -14 2 -15 18 -3 16 13 16 13 0 -7 -22 -25 -25 -93 -4
-90 8 1 21 8 29 14 11 9 17 10 22 2 4 -6 4 -14 1 -17 -3 -4 -6 -1 -6 6 0 7 -5
9 -10 6 -17 -10 -11 -25 9 -25 10 0 21 6 24 13 5 14 -17 64 -27 60 -16 -7 -26
-1 -26 14 0 15 2 14 16 -3 8 -10 13 -14 10 -8 -3 6 1 20 9 30 22 29 18 39 -7
18 -13 -10 -18 -12 -11 -5 6 7 9 21 6 30 -3 9 -1 12 4 6 15 -18 35 -16 40 4 7
26 32 36 30 11 -1 -10 -5 -16 -10 -13 -5 3 -7 0 -5 -8 3 -8 14 -13 24 -12 10
1 14 0 8 -3 -7 -3 -9 -14 -7 -25 5 -16 8 -18 14 -7 7 10 9 9 9 -5 0 -20 56
-57 87 -57 16 0 21 -4 17 -15 -4 -8 -10 -15 -16 -15 -5 0 -6 5 -2 12 4 7 3 8
-4 4 -21 -13 -13 -26 17 -26 24 0 31 6 41 33 18 48 23 130 7 121 -9 -6 -9 -5
0 7 6 8 11 43 10 84 -2 65 -4 70 -25 71 -14 1 -22 -5 -23 -15 0 -12 -2 -11 -9
4 l-9 20 0 -20 c0 -11 3 -27 8 -34 6 -9 6 -22 0 -33 -9 -16 -7 -18 15 -14 27
5 37 -9 27 -37 -6 -16 -9 -15 -29 8 -13 15 -28 23 -35 18 -8 -4 -8 -1 1 10 8
9 12 24 10 34 -4 15 -7 14 -18 -9 -13 -28 -40 -28 -40 1 0 12 2 13 9 3 6 -10
12 -7 24 12 22 34 21 51 -3 53 -11 1 -20 -3 -20 -8 0 -6 4 -8 9 -4 18 10 21
-13 4 -26 -9 -8 -14 -9 -10 -3 4 7 1 17 -7 23 -11 9 -15 8 -20 -5 -9 -23 -8
-26 7 -18 8 6 8 3 -1 -9 -8 -9 -11 -20 -8 -25 3 -5 -2 -18 -10 -28 -9 -10 -13
-13 -9 -6 3 6 -10 3 -29 -9 -20 -12 -36 -17 -36 -12 0 5 16 17 36 26 30 15 34
20 24 32 -7 8 -25 15 -41 15 -31 0 -40 25 -17 48 9 9 7 12 -12 11 -14 0 -20
-3 -14 -5z"/>
<path fill="#ffffff" stroke="none" d="M304 276 c-8 -34 -19 -33 -22 2 -1 21
0 23 8 12 8 -13 10 -12 10 4 0 11 2 17 5 14 4 -3 3 -17 -1 -32z"/>
<path fill="#ffffff" stroke="none" d="M100 230 c0 -5 -5 -10 -11 -10 -5 0 -7
5 -4 10 3 6 8 10 11 10 2 0 4 -4 4 -10z"/>
<path fill="#ffffff" stroke="none" d="M200 211 c0 -5 -7 -14 -15 -21 -8 -7
-15 -16 -15 -21 0 -5 7 -6 15 -3 8 4 15 2 15 -4 0 -12 -43 -10 -52 3 -4 6 -8
17 -8 25 0 13 1 13 10 0 6 -10 10 -11 10 -2 0 6 7 12 16 12 8 0 12 5 9 10 -3
6 -1 10 4 10 6 0 11 -4 11 -9z"/>
<path fill="#ffffff" stroke="none" d="M232 181 c-4 -10 -7 -11 -10 -3 -2 7
-9 9 -14 6 -6 -4 -8 -3 -5 3 10 16 36 11 29 -6z"/>
<path fill="#ffffff" stroke="none" d="M253 175 c-3 -9 -8 -14 -10 -11 -3 3
-2 9 2 15 9 16 15 13 8 -4z"/>
<path fill="#ffffff" stroke="none" d="M267 147 c-10 -15 -12 -29 -6 -38 7
-11 9 -10 10 6 0 16 3 14 11 -8 5 -15 14 -24 20 -21 7 4 8 2 4 -4 -5 -9 -13
-9 -26 -2 -24 13 -63 13 -76 0 -19 -19 -38 14 -24 41 8 15 14 18 19 10 6 -9
11 -8 21 3 7 9 16 13 21 11 4 -3 13 4 19 16 7 11 14 18 17 15 3 -3 -1 -16 -10
-29z"/>
<path fill="#ffffff" stroke="none" d="M40 44 c0 -3 -7 -1 -15 6 -8 7 -15 17
-15 22 0 5 7 3 15 -6 8 -8 15 -18 15 -22z"/>
<path fill="#ffffff" stroke="none" d="M260 66 c0 -3 -4 -8 -10 -11 -5 -3 -10
-1 -10 4 0 6 5 11 10 11 6 0 10 -2 10 -4z"/>
<path fill="#ffffff" stroke="none" d="M281 17 c-9 -9 -10 -5 -7 13 6 36 8 37
13 16 3 -10 0 -23 -6 -29z"/>
<path fill="#000000" stroke="none" d="M220 120 c-9 -12 -17 -16 -21 -9 -4 7
-8 5 -12 -4 -6 -16 9 -17 31 -4 6 5 16 6 21 3 5 -4 7 3 4 14 -6 24 -5 24 -23
0z"/>
<path fill="#000000" stroke="none" d="M100 291 c-10 -21 -9 -23 3 -12 12 9
16 9 20 -1 4 -8 6 -7 6 5 1 9 5 17 11 17 5 0 7 -6 4 -14 -3 -8 -1 -17 5 -21 6
-3 11 0 11 9 0 8 3 21 6 29 4 11 -2 14 -25 13 -21 0 -33 -8 -41 -25z"/>
<path fill="#000000" stroke="none" d="M36 284 c-4 -9 -4 -19 -1 -22 3 -3 5 0
5 7 0 7 5 9 10 6 6 -3 10 1 10 9 0 21 -16 20 -24 0z"/>
<path fill="#000000" stroke="none" d="M0 253 c0 -4 5 -15 10 -23 8 -13 10
-13 10 2 0 9 -4 20 -10 23 -5 3 -10 3 -10 -2z"/>
<path fill="#000000" stroke="none" d="M97 133 c-3 -5 -2 -15 4 -23 7 -13 9
-13 9 0 0 13 1 13 10 0 5 -8 10 -10 10 -4 0 16 -27 37 -33 27z"/>
<path fill="#000000" stroke="none" d="M70 100 c0 -6 6 -25 13 -43 8 -18 12
-39 9 -47 -4 -13 -3 -13 10 -2 13 10 17 10 21 0 3 -11 8 -11 26 0 12 7 21 8
21 2 0 -5 7 -10 15 -10 8 0 15 5 15 11 0 5 -4 7 -10 4 -6 -3 -7 1 -4 9 8 21
13 20 24 -7 6 -15 9 -17 9 -6 1 18 -22 41 -35 37 -5 -1 -22 10 -38 26 -27 28
-29 29 -42 11 -13 -18 -14 -18 -14 3 0 12 -4 22 -10 22 -5 0 -10 -5 -10 -10z"/>
<path fill="#ffffff" stroke="none" d="M130 40 c5 0 7 8 4 18 -5 13 -4 14 4 3
5 -7 7 -22 4 -33 -5 -19 -6 -19 -27 4 -15 15 -18 25 -11 30 6 4 12 1 14 -7 2
-8 7 -15 12 -15z"/>
<path fill="#000000" stroke="none" d="M300 10 c0 -5 5 -10 10 -10 6 0 10 5
10 10 0 6 -4 10 -10 10 -5 0 -10 -4 -10 -10z"/>
</g>
</svg>
