<?xml version="1.0" standalone="no"?>
<!DOCTYPE svg PUBLIC "-//W3C//DTD SVG 20010904//EN"
 "http://www.w3.org/TR/2001/REC-SVG-20010904/DTD/svg10.dtd">
<svg version="1.0" xmlns="http://www.w3.org/2000/svg"
 width="32.000000pt" height="32.000000pt" viewBox="0 0 32.000000 32.000000"
 preserveAspectRatio="xMidYMid meet">
<metadata>
Created by potrace 1.16, written by Peter Selinger 2001-2019
</metadata>
<g transform="translate(0.000000,32.000000) scale(0.100000,-0.100000)"
fill="#000000" stroke="none">
<path fill="#000000" stroke="none" d="M92 308 c-7 -7 -12 -8 -12 -3 0 4 -9 0
-20 -10 -15 -14 -20 -15 -20 -4 -1 10 -5 8 -15 -5 -15 -20 -21 -45 -8 -32 4 4
13 -8 19 -26 7 -19 13 -25 13 -15 1 10 5 16 10 12 6 -3 15 4 21 15 13 25 32
27 23 3 -6 -15 -4 -16 9 -5 23 19 45 -10 30 -41 -6 -12 -11 -16 -11 -9 -1 10
-5 9 -17 -3 -12 -11 -19 -13 -24 -5 -4 6 -11 1 -18 -14 -7 -17 -8 -27 -1 -32
6 -4 6 -11 -2 -20 -6 -8 -8 -14 -3 -15 5 0 0 -4 -11 -8 -13 -5 -24 -3 -31 7
-9 12 -13 12 -19 2 -6 -9 -4 -11 5 -5 10 6 12 3 8 -13 -7 -26 7 -39 16 -16 3
8 10 13 15 9 5 -3 12 -1 16 5 4 6 11 7 17 4 7 -5 9 0 6 14 -4 12 -2 20 3 16 5
-3 9 -1 9 5 0 5 -5 13 -11 17 -20 12 31 42 63 37 22 -3 28 0 28 14 0 15 -2 16
-10 3 -10 -16 -13 -8 -11 27 1 12 -5 26 -15 31 -14 8 -13 12 12 35 15 14 31
24 36 21 4 -3 8 0 8 5 0 16 -27 13 -34 -4 -3 -8 -12 -12 -21 -9 -9 4 -15 3
-14 -2 3 -19 -1 -34 -11 -34 -5 0 -8 6 -6 13 1 6 1 9 -1 4 -3 -4 -9 -4 -14 -1
-6 3 -5 11 2 20 15 18 7 28 -9 12z"/>
<path fill="#ffffff" stroke="none" d="M76 248 c-10 -17 -11 -17 -18 0 -6 15
-7 15 -8 -3 l-1 -20 -9 20 c-12 27 -12 37 -1 30 6 -3 16 1 23 9 11 12 14 12
19 -3 3 -9 1 -24 -5 -33z"/>
<path fill="#000000" stroke="none" d="M240 305 c-1 -27 -26 -59 -39 -50 -16
9 -13 -4 4 -21 8 -9 15 -11 15 -7 0 5 7 18 15 29 15 18 15 16 11 -21 -3 -22
-5 -46 -6 -54 0 -11 -4 -9 -15 5 -15 19 -15 19 -8 -1 4 -11 13 -25 20 -30 11
-9 10 -14 -9 -30 -13 -11 -32 -19 -44 -17 -13 2 -21 -3 -21 -12 0 -11 5 -13
19 -5 14 8 18 6 19 -8 0 -14 3 -12 10 6 7 18 12 21 23 12 7 -6 16 -8 19 -4 4
3 9 -1 13 -10 5 -14 8 -14 20 -2 8 7 14 19 14 26 0 8 -5 6 -13 -5 -11 -15 -15
-16 -25 -3 -15 18 -4 50 14 43 8 -3 14 -1 14 5 0 6 4 8 9 4 5 -3 13 0 17 6 4
7 3 9 -4 5 -14 -9 -23 7 -12 24 13 22 1 39 -26 34 -21 -4 -24 -2 -16 13 5 11
4 31 -4 53 -9 23 -13 28 -14 15z"/>
<path fill="#ffffff" stroke="none" d="M279 184 c10 -22 9 -26 -3 -21 -8 3
-17 1 -19 -6 -3 -7 -5 3 -4 21 0 39 10 41 26 6z"/>
<path fill="#000000" stroke="none" d="M305 309 c-4 -6 -5 -12 -2 -15 2 -3 7
2 10 11 7 17 1 20 -8 4z"/>
<path fill="#000000" stroke="none" d="M283 279 c1 -15 9 -32 19 -38 15 -10
18 -8 17 11 0 14 -3 17 -6 9 -4 -10 -10 -5 -19 15 l-12 29 1 -26z"/>
<path fill="#000000" stroke="none" d="M0 226 c0 -17 16 -30 23 -19 3 5 -1 14
-9 21 -12 10 -14 10 -14 -2z"/>
<path fill="#000000" stroke="none" d="M76 211 c-4 -5 3 -7 14 -4 23 6 26 13
6 13 -8 0 -17 -4 -20 -9z"/>
<path fill="#000000" stroke="none" d="M185 210 c3 -5 8 -10 11 -10 2 0 4 5 4
10 0 6 -5 10 -11 10 -5 0 -7 -4 -4 -10z"/>
<path fill="#000000" stroke="none" d="M190 180 c0 -5 5 -10 11 -10 5 0 7 5 4
10 -3 6 -8 10 -11 10 -2 0 -4 -4 -4 -10z"/>
<path fill="#000000" stroke="none" d="M16 164 c1 -6 -2 -16 -7 -21 -7 -7 -5
-13 6 -17 13 -5 16 -2 11 10 -4 11 -2 15 8 11 10 -4 13 -1 9 8 -3 8 -9 13 -13
10 -5 -3 -10 -2 -13 2 -2 5 -3 3 -1 -3z"/>
<path fill="#000000" stroke="none" d="M154 143 c2 -10 7 -17 12 -15 13 3 11
25 -3 29 -6 2 -10 -4 -9 -14z"/>
<path fill="#000000" stroke="none" d="M105 109 c-4 -6 -4 -13 0 -17 4 -4 10
-1 12 6 4 10 9 8 19 -5 12 -16 13 -16 14 -2 0 9 -7 20 -16 23 -21 8 -22 8 -29
-5z"/>
<path fill="#000000" stroke="none" d="M225 79 c13 -43 25 -57 23 -28 -1 14
-8 31 -16 39 -12 11 -13 9 -7 -11z"/>
<path fill="#000000" stroke="none" d="M121 82 c-1 -7 -6 -10 -13 -6 -7 4 -8
3 -4 -4 4 -7 2 -12 -3 -12 -6 0 -11 -8 -12 -17 0 -16 -2 -15 -10 2 -8 19 -9
19 -6 1 1 -11 7 -21 12 -22 14 -4 48 44 42 59 -4 9 -6 9 -6 -1z"/>
<path fill="#000000" stroke="none" d="M150 40 c5 -18 12 -35 16 -39 10 -9 -6
53 -17 63 -5 6 -5 -4 1 -24z"/>
<path fill="#000000" stroke="none" d="M178 63 c-3 -4 -2 -18 1 -29 5 -17 9
-19 17 -10 8 9 8 17 -1 30 -7 9 -15 14 -17 9z"/>
<path fill="#000000" stroke="none" d="M304 44 c-5 -19 -9 -22 -15 -12 -5 7
-9 9 -9 3 0 -5 -5 -3 -10 5 -8 12 -10 11 -10 -7 0 -16 4 -21 15 -17 8 4 15 1
15 -5 0 -22 26 11 28 36 2 31 -6 29 -14 -3z"/>
<path fill="#000000" stroke="none" d="M36 42 c-3 -5 1 -9 9 -9 8 0 15 4 15 9
0 10 -17 10 -24 0z"/>
<path fill="#000000" stroke="none" d="M221 14 c0 -11 3 -14 6 -6 3 7 2 16 -1
19 -3 4 -6 -2 -5 -13z"/>
<path fill="#000000" stroke="none" d="M4 8 c-3 -4 4 -8 15 -8 12 0 21 4 21 8
0 11 -29 11 -36 0z"/>
<path fill="#000000" stroke="none" d="M105 10 c-3 -5 -1 -10 4 -10 6 0 11 5
11 10 0 6 -2 10 -4 10 -3 0 -8 -4 -11 -10z"/>
</g>
</svg>
