<?xml version="1.0" standalone="no"?>
<!DOCTYPE svg PUBLIC "-//W3C//DTD SVG 20010904//EN"
 "http://www.w3.org/TR/2001/REC-SVG-20010904/DTD/svg10.dtd">
<svg version="1.0" xmlns="http://www.w3.org/2000/svg"
 width="32.000000pt" height="32.000000pt" viewBox="0 0 32.000000 32.000000"
 preserveAspectRatio="xMidYMid meet">
<metadata>
Created by potrace 1.16, written by Peter Selinger 2001-2019
</metadata>
<g transform="translate(0.000000,32.000000) scale(0.100000,-0.100000)"
fill="#000000" stroke="none">
<path fill="#000000" stroke="none" d="M258 292 c-16 -15 -28 -35 -28 -44 0
-25 -19 -32 -39 -14 -16 14 -19 14 -35 -2 -13 -12 -16 -13 -10 -2 7 13 6 13
-9 1 -15 -12 -17 -11 -17 7 0 11 -8 26 -18 33 -15 12 -16 12 -6 -1 18 -24 23
-69 8 -81 -15 -12 -90 33 -97 59 -3 10 -5 6 -6 -9 -1 -20 5 -28 21 -33 21 -5
32 -19 74 -89 7 -10 16 -23 22 -29 6 -6 8 -17 5 -25 -7 -18 -73 -51 -95 -48
-10 2 -20 -1 -24 -6 -3 -5 61 -9 155 -9 l161 0 -2 158 c0 86 -3 142 -5 124 -2
-18 -8 -30 -13 -27 -4 2 -13 -1 -19 -8 -8 -10 -7 -14 4 -14 8 0 11 5 8 10 -3
6 -1 7 6 3 9 -6 9 -11 1 -21 -8 -9 -8 -15 0 -20 14 -9 13 -112 -2 -121 -7 -5
-8 -2 -3 7 5 8 4 10 0 6 -15 -13 -14 -35 1 -48 8 -6 14 -19 14 -28 -1 -13 -5
-11 -19 7 -11 12 -24 22 -30 22 -6 0 -20 5 -30 12 -18 11 -18 13 -3 37 15 24
15 25 0 13 -12 -9 -18 -10 -23 -2 -4 6 1 18 11 26 18 14 18 15 -5 8 -17 -4
-22 -3 -19 7 3 8 13 13 22 11 15 -3 16 0 5 19 -9 19 -9 25 5 34 9 7 16 19 16
28 0 9 8 22 18 29 23 18 46 48 36 47 -5 0 -21 -12 -36 -27z"/>
<path fill="#ffffff" stroke="none" d="M193 193 c3 -5 -8 -8 -24 -9 -15 -1
-26 3 -23 7 6 11 41 12 47 2z"/>
<path fill="#ffffff" stroke="none" d="M125 180 c-3 -5 -1 -10 6 -10 8 0 8 -4
-1 -15 -9 -11 -16 -13 -23 -6 -7 7 -6 15 3 26 14 17 25 21 15 5z"/>
<path fill="#ffffff" stroke="none" d="M175 160 c-3 -5 -12 -10 -18 -10 -7 0
-6 4 3 10 19 12 23 12 15 0z"/>
<path fill="#ffffff" stroke="none" d="M145 100 c-9 -15 -22 -12 -29 7 -9 21
16 37 27 17 4 -8 5 -19 2 -24z"/>
<path fill="#ffffff" stroke="none" d="M200 105 c14 -17 12 -22 -10 -25 -34
-5 -41 -1 -30 20 13 24 23 25 40 5z"/>
<path fill="#ffffff" stroke="none" d="M182 59 c15 -8 19 -8 14 0 -4 6 -2 11
3 11 6 0 11 -7 11 -15 0 -8 8 -15 19 -15 10 0 25 -7 32 -16 12 -14 10 -16 -16
-13 -17 2 -36 8 -44 14 -11 7 -13 7 -8 -1 4 -8 -3 -11 -22 -10 -17 0 -27 5
-23 11 3 5 -2 4 -11 -4 -25 -20 -31 -7 -12 23 19 29 27 31 57 15z"/>
<path fill="#000000" stroke="none" d="M163 35 c0 -8 4 -12 9 -9 5 3 6 10 3
15 -9 13 -12 11 -12 -6z"/>
<path fill="#000000" stroke="none" d="M76 241 c-4 -5 -2 -12 3 -15 5 -4 12
-2 15 3 4 5 2 12 -3 15 -5 4 -12 2 -15 -3z"/>
<path fill="#000000" stroke="none" d="M14 43 c2 -10 6 -17 10 -16 15 3 16 11
2 22 -12 10 -14 9 -12 -6z"/>
</g>
</svg>
