<?xml version="1.0" standalone="no"?>
<!DOCTYPE svg PUBLIC "-//W3C//DTD SVG 20010904//EN"
 "http://www.w3.org/TR/2001/REC-SVG-20010904/DTD/svg10.dtd">
<svg version="1.0" xmlns="http://www.w3.org/2000/svg"
 width="32.000000pt" height="32.000000pt" viewBox="0 0 32.000000 32.000000"
 preserveAspectRatio="xMidYMid meet">
<metadata>
Created by potrace 1.16, written by Peter Selinger 2001-2019
</metadata>
<g transform="translate(0.000000,32.000000) scale(0.100000,-0.100000)"
fill="#000000" stroke="none">
<path fill="#000000" stroke="none" d="M20 306 c0 -2 8 -10 18 -17 15 -13 16
-12 3 4 -13 16 -21 21 -21 13z"/>
<path fill="#000000" stroke="none" d="M89 243 c-13 -16 -12 -17 4 -4 9 7 17
15 17 17 0 8 -8 3 -21 -13z"/>
<path fill="#000000" stroke="none" d="M16 197 c3 -10 9 -15 12 -12 3 3 0 11
-7 18 -10 9 -11 8 -5 -6z"/>
<path fill="#000000" stroke="none" d="M60 206 c0 -9 30 -14 35 -6 4 6 -3 10
-14 10 -12 0 -21 -2 -21 -4z"/>
<path fill="#000000" stroke="none" d="M75 160 c24 -29 32 -33 43 -23 7 7 19
10 26 7 8 -3 17 -1 20 4 6 10 -42 8 -52 -2 -3 -4 -19 6 -36 21 l-30 28 29 -35z"/>
<path fill="#000000" stroke="none" d="M155 118 c-4 -10 -11 -16 -15 -13 -9 6
-22 -36 -14 -45 3 -3 14 6 25 19 10 13 19 18 19 12 0 -6 5 -11 10 -11 14 0 12
13 -4 36 -14 18 -15 18 -21 2z"/>
<path fill="#000000" stroke="none" d="M15 91 c-3 -5 -2 -12 3 -15 5 -3 9 1 9
9 0 17 -3 19 -12 6z"/>
<path fill="#000000" stroke="none" d="M100 93 c-2 -7 -3 -19 -4 -25 -1 -7 -9
-21 -19 -31 -10 -10 -15 -23 -11 -29 5 -7 10 -4 15 10 9 23 33 29 44 12 4 -6
3 -10 -2 -9 -4 1 -14 1 -22 0 -19 -1 -6 -14 18 -18 21 -3 25 27 5 42 -7 6 -15
21 -17 35 -2 14 -6 19 -7 13z"/>
<path fill="#000000" stroke="none" d="M254 66 c-4 -17 -11 -23 -22 -19 -12 5
-14 1 -10 -15 6 -23 -15 -32 -25 -12 -3 6 -4 5 -3 -2 5 -25 35 -19 53 10 10
16 23 27 30 25 6 -2 17 6 23 19 10 21 10 21 -3 6 -17 -22 -31 -23 -23 -3 3 8
1 15 -4 15 -5 0 -12 -11 -16 -24z"/>
<path fill="#000000" stroke="none" d="M155 70 c-3 -5 -1 -10 4 -10 6 0 11 5
11 10 0 6 -2 10 -4 10 -3 0 -8 -4 -11 -10z"/>
<path fill="#000000" stroke="none" d="M210 70 c0 -5 4 -10 9 -10 6 0 13 5 16
10 3 6 -1 10 -9 10 -9 0 -16 -4 -16 -10z"/>
<path fill="#000000" stroke="none" d="M303 33 c-7 -2 -13 -12 -12 -21 0 -11
2 -12 6 -4 2 6 9 10 14 6 5 -3 9 2 9 10 0 9 -1 16 -2 15 -2 0 -9 -3 -15 -6z"/>
</g>
</svg>
