<?xml version="1.0" standalone="no"?>
<!DOCTYPE svg PUBLIC "-//W3C//DTD SVG 20010904//EN"
 "http://www.w3.org/TR/2001/REC-SVG-20010904/DTD/svg10.dtd">
<svg version="1.0" xmlns="http://www.w3.org/2000/svg"
 width="32.000000pt" height="32.000000pt" viewBox="0 0 32.000000 32.000000"
 preserveAspectRatio="xMidYMid meet">
<metadata>
Created by potrace 1.16, written by Peter Selinger 2001-2019
</metadata>
<g transform="translate(0.000000,32.000000) scale(0.100000,-0.100000)"
fill="#000000" stroke="none">
<path fill="#000000" stroke="none" d="M97 300 c-3 -11 -1 -23 4 -26 5 -3 9 2
9 11 0 9 5 13 10 10 6 -4 8 -10 5 -15 -3 -5 -1 -12 5 -15 7 -4 10 3 7 22 -4
33 -32 43 -40 13z"/>
<path fill="#000000" stroke="none" d="M155 300 c1 -11 4 -23 8 -27 4 -4 -3
-13 -15 -20 -15 -8 -18 -12 -8 -13 13 0 13 -1 0 -10 -21 -14 -32 -12 -25 3 4
6 -3 1 -14 -12 -29 -33 -17 -44 40 -38 39 5 47 3 42 -9 -3 -7 0 -14 6 -14 6 0
11 -10 10 -22 0 -13 -3 -17 -6 -10 -2 6 -9 12 -14 12 -4 0 -5 -7 -2 -17 4 -10
2 -14 -5 -9 -6 3 -9 20 -7 36 2 22 0 27 -11 23 -8 -3 -11 -10 -7 -17 4 -6 -2
-4 -12 4 -11 9 -16 10 -11 3 4 -8 2 -13 -5 -13 -8 0 -8 -4 1 -15 11 -13 15
-13 21 -3 7 10 9 9 9 -4 0 -17 10 -22 37 -19 8 1 10 -5 7 -14 -3 -8 -9 -13
-13 -11 -4 3 -8 -5 -8 -17 -2 -17 0 -19 7 -7 7 10 10 11 10 3 0 -7 3 -12 8
-11 4 1 22 -1 39 -5 24 -5 31 -11 27 -22 -3 -8 -2 -16 2 -16 38 -6 54 -5 54 3
0 5 -8 7 -19 3 -14 -4 -20 0 -25 17 -10 38 -7 41 13 17 11 -13 23 -21 27 -17
4 5 -1 17 -11 28 -16 18 -14 24 6 22 3 -1 6 5 6 13 0 8 -5 11 -10 8 -6 -4 -8
0 -4 10 4 10 2 17 -4 17 -7 0 -4 11 5 25 12 18 13 24 4 23 -7 -2 -12 3 -10 10
1 6 -5 12 -14 12 -14 0 -14 -3 -4 -15 9 -11 10 -19 3 -26 -8 -8 -13 -5 -18 10
-7 24 9 51 30 51 7 0 16 7 19 16 12 30 6 36 -13 13 -11 -13 -22 -21 -26 -17
-4 4 0 14 9 23 19 19 19 25 3 45 -15 18 -47 25 -47 10 0 -6 -8 -10 -18 -8 -11
2 -26 -3 -35 -11 -15 -12 -17 -11 -17 3 0 10 5 14 10 11 6 -3 10 -1 10 4 0 6
-8 11 -18 11 -12 0 -18 -7 -17 -20z"/>
<path fill="#ffffff" stroke="none" d="M280 284 c0 -8 -4 -14 -9 -14 -5 0 -8
-11 -6 -25 3 -28 -30 -59 -49 -48 -6 4 -6 8 2 11 7 2 9 9 5 15 -4 6 0 8 9 4
16 -6 19 8 5 29 -4 7 0 15 9 18 9 3 14 13 11 21 -4 9 -1 12 9 8 7 -3 14 -11
14 -19z"/>
<path fill="#ffffff" stroke="none" d="M200 230 c-17 -9 -27 -19 -23 -24 4 -4
4 -7 -2 -6 -5 1 -12 1 -15 0 -17 -7 -52 -5 -57 3 -3 5 8 7 23 5 21 -2 30 2 32
15 2 11 11 27 20 38 15 17 17 17 34 2 18 -16 18 -18 -12 -33z"/>
<path fill="#ffffff" stroke="none" d="M236 179 c14 -5 22 -13 19 -19 -6 -9 7
-14 27 -11 4 0 5 -6 2 -14 -4 -9 -1 -22 5 -29 10 -11 8 -16 -8 -21 -12 -3 -21
-13 -21 -20 0 -9 -6 -12 -15 -8 -14 5 -14 8 2 23 10 10 21 16 26 13 4 -2 7 1
7 6 0 6 -5 11 -11 11 -5 0 -7 6 -4 13 3 6 0 4 -7 -7 -34 -49 -43 -56 -58 -46
-13 8 -12 11 6 16 12 3 27 17 33 30 12 28 4 32 -15 7 -12 -17 -13 -17 -14 -1
0 9 8 24 17 34 16 16 16 16 -5 10 -12 -4 -22 -4 -22 1 0 4 -3 19 -6 33 -5 22
-4 23 6 7 6 -10 23 -22 36 -28z"/>
<path fill="#000000" stroke="none" d="M186 255 c-3 -8 -1 -15 4 -15 13 0 22
18 11 24 -5 3 -11 -1 -15 -9z"/>
<path fill="#000000" stroke="none" d="M0 301 c0 -5 9 -7 20 -4 26 7 26 13 0
13 -11 0 -20 -4 -20 -9z"/>
<path fill="#000000" stroke="none" d="M12 275 c-11 -13 -10 -15 8 -15 18 0
19 -3 9 -22 -12 -22 -12 -22 -20 -3 -6 17 -8 16 -8 -7 -1 -38 23 -36 39 3 11
26 11 32 -1 40 -10 6 -11 9 -1 9 7 0 15 -7 18 -15 9 -21 36 -19 32 3 -4 22
-58 27 -76 7z"/>
<path fill="#000000" stroke="none" d="M50 220 c-8 -16 -8 -20 4 -20 16 0 29
27 16 35 -5 3 -14 -4 -20 -15z"/>
<path fill="#000000" stroke="none" d="M12 170 c-17 -27 -15 -33 8 -27 12 3
20 0 20 -8 0 -7 8 -19 18 -26 9 -7 14 -9 10 -5 -4 5 -2 16 5 25 11 14 10 14
-5 2 -16 -12 -18 -11 -18 8 0 12 5 19 10 16 17 -11 32 5 19 21 -17 20 -52 17
-67 -6z"/>
<path fill="#ffffff" stroke="none" d="M76 169 c4 -7 1 -10 -7 -7 -8 3 -25 1
-38 -4 -21 -7 -22 -7 -11 7 15 18 46 20 56 4z"/>
<path fill="#000000" stroke="none" d="M2 99 c-1 -16 2 -29 8 -29 5 0 10 -10
10 -22 0 -19 -2 -20 -10 -8 -8 13 -10 12 -10 -2 0 -10 5 -18 11 -18 5 0 7 -4
4 -10 -3 -5 2 -10 13 -10 10 0 24 11 30 25 13 29 5 33 -14 8 -12 -17 -13 -17
-14 -1 0 10 10 27 23 39 l22 21 -24 -12 c-19 -10 -25 -9 -31 1 -5 7 -6 18 -3
25 2 6 0 14 -4 17 -5 3 -10 -8 -11 -24z"/>
<path fill="#000000" stroke="none" d="M116 96 c7 -18 13 -20 34 -6 9 6 10 10
3 10 -6 0 -19 3 -27 6 -12 5 -15 2 -10 -10z"/>
<path fill="#000000" stroke="none" d="M125 71 c-11 -5 -24 -6 -29 -3 -5 3 -6
0 -2 -6 3 -6 2 -13 -4 -17 -5 -3 -15 -15 -20 -26 -8 -15 -7 -19 4 -19 9 0 13
6 10 14 -4 11 1 13 30 6 20 -4 36 -4 36 1 0 4 20 8 45 7 37 0 42 -3 30 -12
-14 -10 -14 -12 3 -13 14 -1 19 4 18 15 -2 12 -15 18 -47 20 -45 3 -68 20 -46
34 15 10 -2 9 -28 -1z"/>
<path fill="#ffffff" stroke="none" d="M143 46 c4 -10 -3 -13 -24 -12 -26 1
-28 2 -12 13 22 17 30 16 36 -1z"/>
</g>
</svg>
