<?xml version="1.0" standalone="no"?>
<!DOCTYPE svg PUBLIC "-//W3C//DTD SVG 20010904//EN"
 "http://www.w3.org/TR/2001/REC-SVG-20010904/DTD/svg10.dtd">
<svg version="1.0" xmlns="http://www.w3.org/2000/svg"
 width="32.000000pt" height="32.000000pt" viewBox="0 0 32.000000 32.000000"
 preserveAspectRatio="xMidYMid meet">
<metadata>
Created by potrace 1.16, written by Peter Selinger 2001-2019
</metadata>
<g transform="translate(0.000000,32.000000) scale(0.100000,-0.100000)"
fill="#000000" stroke="none">
<path fill="#000000" stroke="none" d="M80 311 c0 -6 4 -12 8 -15 5 -3 9 1 9
9 0 8 -4 15 -9 15 -4 0 -8 -4 -8 -9z"/>
<path fill="#000000" stroke="none" d="M153 308 c1 -7 -5 -12 -14 -10 -9 1
-19 -4 -23 -13 -3 -8 -1 -15 4 -15 6 0 10 5 10 12 0 6 3 8 7 5 7 -8 33 11 33
24 0 5 -4 9 -10 9 -5 0 -9 -6 -7 -12z"/>
<path fill="#000000" stroke="none" d="M225 310 c-4 -6 -11 -8 -16 -5 -5 4 -9
1 -9 -5 0 -7 7 -9 16 -6 11 4 15 2 11 -8 -4 -10 -1 -13 9 -9 16 6 19 23 3 23
-5 0 -7 5 -4 10 3 6 4 10 1 10 -3 0 -8 -5 -11 -10z"/>
<path fill="#000000" stroke="none" d="M250 315 c0 -6 11 -20 38 -50 9 -10 9
-16 1 -21 -7 -4 -19 1 -27 12 -14 18 -14 18 -8 1 3 -10 6 -25 6 -33 0 -9 5
-12 10 -9 6 3 10 -1 10 -10 0 -12 -5 -15 -16 -11 -12 4 -15 2 -11 -9 4 -8 2
-17 -3 -20 -20 -12 -9 -25 20 -25 33 0 39 14 14 28 -11 6 -13 11 -5 16 6 4 11
19 11 33 0 22 2 24 15 13 14 -11 14 -10 5 14 -17 45 -60 96 -60 71z"/>
<path fill="#000000" stroke="none" d="M296 312 c-7 -12 12 -38 21 -28 4 5 2
11 -5 13 -6 3 -10 9 -6 14 3 5 3 9 0 9 -3 0 -7 -4 -10 -8z"/>
<path fill="#000000" stroke="none" d="M200 273 c0 -6 -12 -16 -27 -22 -26
-10 -26 -11 -3 -7 l25 5 -25 -19 c-25 -19 -25 -19 -32 3 -6 20 -6 20 -7 -4 -1
-15 -8 -32 -16 -39 -18 -15 -13 -26 16 -33 11 -3 19 -3 16 0 -8 7 13 63 23 63
5 0 12 -4 15 -10 3 -5 -1 -10 -9 -10 -9 0 -16 -4 -16 -10 0 -5 7 -7 16 -3 15
6 15 4 0 -19 -14 -22 -14 -26 0 -44 15 -18 15 -18 5 3 -8 16 -7 22 4 27 10 3
15 -1 16 -12 0 -14 2 -14 10 3 7 15 8 12 4 -15 -4 -30 -3 -32 7 -15 7 11 13
36 14 55 2 31 1 32 -6 10 -7 -22 -15 -12 -11 13 1 5 -3 6 -9 2 -12 -8 -9 37 4
46 4 4 3 15 -3 25 -6 11 -11 14 -11 7z"/>
<path fill="#ffffff" stroke="none" d="M135 180 c-3 -5 -11 -10 -16 -10 -6 0
-7 5 -4 10 3 6 11 10 16 10 6 0 7 -4 4 -10z"/>
<path fill="#000000" stroke="none" d="M226 226 c3 -9 11 -16 16 -16 13 0 5
23 -10 28 -7 2 -10 -2 -6 -12z"/>
<path fill="#000000" stroke="none" d="M75 220 c-19 -8 -19 -9 3 -9 15 -1 21
-5 16 -13 -4 -7 -3 -8 4 -4 13 8 16 36 5 35 -5 0 -17 -4 -28 -9z"/>
<path fill="#000000" stroke="none" d="M13 194 c-3 -8 -1 -20 5 -26 8 -8 10
-4 6 13 -3 18 -1 16 11 -8 13 -28 35 -53 35 -39 0 8 -41 76 -46 76 -3 0 -7 -7
-11 -16z"/>
<path fill="#000000" stroke="none" d="M70 180 c0 -5 5 -10 11 -10 5 0 7 5 4
10 -3 6 -8 10 -11 10 -2 0 -4 -4 -4 -10z"/>
<path fill="#000000" stroke="none" d="M80 144 c0 -5 7 -18 15 -28 8 -11 15
-16 15 -10 0 5 -7 18 -15 28 -8 11 -15 16 -15 10z"/>
<path fill="#000000" stroke="none" d="M27 120 c3 -14 6 -31 6 -38 0 -7 8 -10
19 -6 10 3 18 1 18 -5 0 -6 4 -11 8 -11 5 0 9 6 9 14 0 8 -3 15 -6 14 -25 -2
-39 6 -49 30 -10 24 -11 24 -5 2z"/>
<path fill="#000000" stroke="none" d="M140 130 c0 -5 5 -10 11 -10 5 0 7 5 4
10 -3 6 -8 10 -11 10 -2 0 -4 -4 -4 -10z"/>
<path fill="#000000" stroke="none" d="M257 116 c-9 -7 -17 -19 -17 -25 0 -6
10 -3 22 9 25 23 22 35 -5 16z"/>
<path fill="#000000" stroke="none" d="M286 112 c-4 -13 -5 -26 -2 -29 10 -11
18 4 14 29 l-4 23 -8 -23z"/>
<path fill="#000000" stroke="none" d="M16 44 c-8 -21 -8 -39 1 -30 8 7 15 46
9 46 -2 0 -7 -7 -10 -16z"/>
</g>
</svg>
