<?xml version="1.0" standalone="no"?>
<!DOCTYPE svg PUBLIC "-//W3C//DTD SVG 20010904//EN"
 "http://www.w3.org/TR/2001/REC-SVG-20010904/DTD/svg10.dtd">
<svg version="1.0" xmlns="http://www.w3.org/2000/svg"
 width="32.000000pt" height="32.000000pt" viewBox="0 0 32.000000 32.000000"
 preserveAspectRatio="xMidYMid meet">
<metadata>
Created by potrace 1.16, written by Peter Selinger 2001-2019
</metadata>
<g transform="translate(0.000000,32.000000) scale(0.100000,-0.100000)"
fill="#000000" stroke="none">
<path fill="#000000" stroke="none" d="M85 301 c-23 -5 -26 -8 -13 -13 9 -4
24 0 35 7 10 8 16 14 13 13 -3 0 -18 -3 -35 -7z"/>
<path fill="#000000" stroke="none" d="M173 289 c-2 -23 3 -25 10 -4 4 8 3 16
-1 19 -4 3 -9 -4 -9 -15z"/>
<path fill="#000000" stroke="none" d="M16 287 c3 -10 9 -15 12 -12 3 3 0 11
-7 18 -10 9 -11 8 -5 -6z"/>
<path fill="#000000" stroke="none" d="M76 249 c16 -20 31 -34 33 -32 3 2 -10
18 -29 36 l-34 32 30 -36z"/>
<path fill="#000000" stroke="none" d="M124 251 c0 -11 5 -17 10 -14 5 4 7 -1
3 -10 -5 -14 -3 -15 13 -4 11 6 20 15 20 20 0 4 -5 5 -11 2 -6 -4 -16 1 -23
10 -11 15 -12 15 -12 -4z"/>
<path fill="#000000" stroke="none" d="M15 181 c-3 -5 -2 -12 3 -15 5 -3 9 1
9 9 0 17 -3 19 -12 6z"/>
<path fill="#000000" stroke="none" d="M66 173 c-6 -14 -5 -15 5 -6 7 7 10 15
7 18 -3 3 -9 -2 -12 -12z"/>
<path fill="#000000" stroke="none" d="M213 165 c0 -7 6 -11 14 -8 7 3 13 6
13 8 0 2 -6 5 -13 8 -8 3 -14 -1 -14 -8z"/>
<path fill="#000000" stroke="none" d="M87 115 c-15 -11 -17 -17 -7 -32 10
-16 11 -16 6 0 -3 9 -3 17 1 17 3 0 12 -8 20 -17 8 -10 11 -12 7 -4 -14 28 20
31 50 3 l30 -27 -29 35 c-25 30 -32 34 -43 23 -18 -17 -25 -16 -18 2 7 18 6
18 -17 0z"/>
<path fill="#000000" stroke="none" d="M57 55 c-4 -8 -3 -16 1 -19 4 -3 9 4 9
15 2 23 -3 25 -10 4z"/>
<path fill="#000000" stroke="none" d="M132 65 c4 -5 3 -13 -2 -20 -7 -8 -1
-10 21 -7 16 2 29 6 27 7 -10 8 -52 26 -46 20z"/>
<path fill="#000000" stroke="none" d="M210 61 c0 -6 4 -13 10 -16 6 -3 7 1 4
9 -7 18 -14 21 -14 7z"/>
</g>
</svg>
