<?xml version="1.0" standalone="no"?>
<!DOCTYPE svg PUBLIC "-//W3C//DTD SVG 20010904//EN"
 "http://www.w3.org/TR/2001/REC-SVG-20010904/DTD/svg10.dtd">
<svg version="1.0" xmlns="http://www.w3.org/2000/svg"
 width="32.000000pt" height="32.000000pt" viewBox="0 0 32.000000 32.000000"
 preserveAspectRatio="xMidYMid meet">
<metadata>
Created by potrace 1.16, written by Peter Selinger 2001-2019
</metadata>
<g transform="translate(0.000000,32.000000) scale(0.100000,-0.100000)"
fill="#000000" stroke="none">
<path fill="#000000" stroke="none" d="M183 309 c3 -9 0 -22 -6 -28 -6 -6 -9
-13 -6 -15 11 -11 27 31 17 45 -8 11 -9 11 -5 -2z"/>
<path fill="#000000" stroke="none" d="M240 249 c0 -5 5 -7 10 -4 6 3 10 8 10
11 0 2 -4 4 -10 4 -5 0 -10 -5 -10 -11z"/>
<path fill="#000000" stroke="none" d="M260 200 c0 -5 5 -10 10 -10 6 0 10 5
10 10 0 6 -4 10 -10 10 -5 0 -10 -4 -10 -10z"/>
<path fill="#000000" stroke="none" d="M130 182 c0 -7 4 -12 8 -12 5 0 13 -12
20 -27 10 -26 11 -26 6 -3 -7 28 -34 62 -34 42z"/>
<path fill="#000000" stroke="none" d="M6 162 c-3 -5 1 -9 9 -9 8 0 15 4 15 9
0 4 -4 8 -9 8 -6 0 -12 -4 -15 -8z"/>
<path fill="#000000" stroke="none" d="M295 160 c3 -5 8 -10 11 -10 2 0 4 5 4
10 0 6 -5 10 -11 10 -5 0 -7 -4 -4 -10z"/>
<path fill="#000000" stroke="none" d="M245 134 c12 -9 16 -20 11 -39 -4 -14
-11 -23 -16 -20 -6 4 -7 -1 -3 -11 4 -10 8 -13 10 -7 3 7 12 9 21 6 13 -4 14
-3 3 5 -7 5 -10 15 -6 21 11 19 -3 58 -21 58 -15 0 -15 -2 1 -13z"/>
<path fill="#000000" stroke="none" d="M285 131 c-3 -5 -1 -12 5 -16 5 -3 10
1 10 9 0 18 -6 21 -15 7z"/>
<path fill="#000000" stroke="none" d="M0 85 c0 -8 2 -15 4 -15 2 0 6 7 10 15
3 8 1 15 -4 15 -6 0 -10 -7 -10 -15z"/>
<path fill="#000000" stroke="none" d="M306 71 c-4 -7 -5 -15 -2 -18 9 -9 19
4 14 18 -4 11 -6 11 -12 0z"/>
<path fill="#000000" stroke="none" d="M267 25 c-4 -8 -2 -17 3 -20 6 -4 10 3
10 14 0 25 -6 27 -13 6z"/>
<path fill="#000000" stroke="none" d="M103 15 c0 -8 4 -15 9 -15 4 0 8 4 8 9
0 6 -4 12 -8 15 -5 3 -9 -1 -9 -9z"/>
<path fill="#000000" stroke="none" d="M151 14 c0 -11 3 -14 6 -6 3 7 2 16 -1
19 -3 4 -6 -2 -5 -13z"/>
</g>
</svg>
