<?xml version="1.0" standalone="no"?>
<!DOCTYPE svg PUBLIC "-//W3C//DTD SVG 20010904//EN"
 "http://www.w3.org/TR/2001/REC-SVG-20010904/DTD/svg10.dtd">
<svg version="1.0" xmlns="http://www.w3.org/2000/svg"
 width="32.000000pt" height="32.000000pt" viewBox="0 0 32.000000 32.000000"
 preserveAspectRatio="xMidYMid meet">
<metadata>
Created by potrace 1.16, written by Peter Selinger 2001-2019
</metadata>
<g transform="translate(0.000000,32.000000) scale(0.100000,-0.100000)"
fill="#000000" stroke="none">
<path fill="#000000" stroke="none" d="M2 160 l1 -160 41 2 c23 0 44 6 49 12
5 8 9 8 15 0 7 -11 84 -16 77 -5 -2 4 6 13 18 21 19 12 21 11 10 -2 -7 -8 -10
-18 -6 -21 11 -11 48 -8 61 5 9 9 12 9 12 0 0 -7 8 -12 18 -12 15 0 18 10 19
70 1 46 -3 68 -10 63 -6 -3 -7 -1 -3 5 4 6 1 22 -5 34 -11 21 -11 22 4 9 16
-12 17 -7 17 60 l0 74 -54 3 c-45 3 -55 0 -59 -15 -4 -17 -5 -17 -6 0 -1 15
-13 17 -101 17 l-100 0 2 -160z"/>
<path fill="#ffffff" stroke="none" d="M190 300 c0 -5 -2 -10 -4 -10 -3 0 -8
5 -11 10 -3 6 -1 10 4 10 6 0 11 -4 11 -10z"/>
<path fill="#ffffff" stroke="none" d="M71 203 c-10 -17 -10 -16 -11 3 0 23
13 41 18 25 2 -6 -1 -18 -7 -28z"/>
<path fill="#ffffff" stroke="none" d="M213 220 c10 -10 9 -12 -6 -7 -12 4
-16 3 -11 -4 3 -6 15 -9 25 -6 11 3 19 1 19 -4 0 -9 -13 -12 -26 -6 -3 1 -12
-9 -19 -23 -8 -14 -14 -21 -15 -17 0 5 4 16 10 26 7 14 4 24 -11 40 l-20 21
21 -3 c11 -2 26 -9 33 -17z"/>
<path fill="#ffffff" stroke="none" d="M100 206 c0 -3 -4 -8 -10 -11 -5 -3
-10 -1 -10 4 0 6 5 11 10 11 6 0 10 -2 10 -4z"/>
<path fill="#ffffff" stroke="none" d="M116 169 c4 -8 9 -7 15 2 7 11 9 11 9
1 0 -7 5 -10 11 -7 6 4 13 -2 16 -13 3 -14 10 -19 21 -15 10 4 13 2 8 -6 -6
-8 -1 -10 17 -6 22 6 23 4 18 -27 -4 -27 -6 -29 -9 -10 -3 19 -6 21 -18 11
-12 -10 -15 -10 -12 1 2 7 -1 14 -7 16 -5 2 -10 -7 -10 -19 0 -18 5 -23 20
-20 11 2 7 -2 -10 -10 -20 -10 -33 -11 -40 -4 -7 6 -6 11 3 14 6 3 10 9 6 14
-3 5 -1 9 5 9 6 0 8 7 5 15 -4 8 -10 12 -15 9 -5 -3 -9 -2 -8 3 4 24 -4 34
-11 13 -8 -25 -8 -25 -9 -2 -1 13 -5 21 -11 17 -5 -3 -7 -12 -3 -20 4 -11 1
-13 -11 -9 -11 4 -16 1 -16 -11 0 -9 5 -13 10 -10 6 3 10 0 10 -9 0 -8 3 -23
6 -33 6 -17 6 -17 -8 1 -9 12 -20 16 -28 11 -9 -6 -10 -9 0 -15 7 -4 10 -14 8
-21 -3 -10 -9 -6 -18 11 -9 17 -10 25 -1 28 6 2 11 14 11 27 0 13 5 27 11 31
8 5 6 10 -5 16 -9 5 -16 13 -16 18 0 14 47 12 56 -1z"/>
<path fill="#ffffff" stroke="none" d="M286 144 c1 -9 0 -13 -4 -10 -3 4 -7
14 -8 22 -1 9 0 13 4 10 3 -4 7 -14 8 -22z"/>
<path fill="#ffffff" stroke="none" d="M230 154 c0 -8 -19 -13 -24 -6 -3 5 1
9 9 9 8 0 15 -2 15 -3z"/>
<path fill="#ffffff" stroke="none" d="M50 95 c0 -1 -8 -9 -17 -16 -11 -10
-14 -10 -9 -1 4 7 2 12 -4 12 -6 0 -9 4 -5 10 5 8 35 4 35 -5z"/>
<path fill="#ffffff" stroke="none" d="M134 94 c4 -10 1 -14 -6 -12 -15 5 -23
28 -10 28 5 0 13 -7 16 -16z"/>
<path fill="#ffffff" stroke="none" d="M285 100 c-28 -12 -37 -12 -30 0 3 6
16 10 28 9 21 0 21 -1 2 -9z"/>
<path fill="#ffffff" stroke="none" d="M64 25 c3 -9 -2 -11 -22 -6 -14 4 -27
12 -29 18 -5 15 45 4 51 -12z"/>
<path fill="#ffffff" stroke="none" d="M136 31 c0 -11 -5 -17 -13 -14 -17 6
-17 20 0 26 6 3 12 6 12 6 1 1 1 -7 1 -18z"/>
<path fill="#ffffff" stroke="none" d="M244 35 c-4 -8 -8 -15 -10 -15 -2 0 -4
7 -4 15 0 8 4 15 10 15 5 0 7 -7 4 -15z"/>
</g>
</svg>
