<?xml version="1.0" standalone="no"?>
<!DOCTYPE svg PUBLIC "-//W3C//DTD SVG 20010904//EN"
 "http://www.w3.org/TR/2001/REC-SVG-20010904/DTD/svg10.dtd">
<svg version="1.0" xmlns="http://www.w3.org/2000/svg"
 width="32.000000pt" height="32.000000pt" viewBox="0 0 32.000000 32.000000"
 preserveAspectRatio="xMidYMid meet">
<metadata>
Created by potrace 1.16, written by Peter Selinger 2001-2019
</metadata>
<g transform="translate(0.000000,32.000000) scale(0.100000,-0.100000)"
fill="#000000" stroke="none">
<path fill="#000000" stroke="none" d="M221 281 c-8 -5 -16 -17 -17 -25 -1 -9
2 -14 7 -10 5 3 7 9 4 14 -3 5 4 12 16 15 14 5 27 0 40 -14 17 -18 39 -21 39
-5 0 3 -4 3 -9 0 -4 -3 -16 3 -26 14 -20 22 -33 24 -54 11z"/>
<path fill="#000000" stroke="none" d="M166 244 c-12 -31 -6 -71 14 -89 12
-11 20 -13 20 -6 0 6 -7 14 -15 17 -11 5 -14 17 -11 50 4 46 2 54 -8 28z"/>
<path fill="#000000" stroke="none" d="M281 204 c0 -11 3 -14 6 -6 3 7 2 16
-1 19 -3 4 -6 -2 -5 -13z"/>
<path fill="#000000" stroke="none" d="M75 180 c3 -5 8 -10 11 -10 2 0 4 5 4
10 0 6 -5 10 -11 10 -5 0 -7 -4 -4 -10z"/>
<path fill="#000000" stroke="none" d="M260 170 c-8 -5 -12 -12 -9 -15 4 -3
12 1 19 10 14 17 11 19 -10 5z"/>
<path fill="#000000" stroke="none" d="M214 138 c3 -15 26 -23 26 -8 0 6 -4 9
-9 6 -5 -4 -12 -1 -14 4 -3 6 -4 5 -3 -2z"/>
<path fill="#000000" stroke="none" d="M260 140 c-9 -6 -10 -10 -3 -10 6 0 15
5 18 10 8 12 4 12 -15 0z"/>
<path fill="#000000" stroke="none" d="M118 113 c7 -3 16 -2 19 1 4 3 -2 6
-13 5 -11 0 -14 -3 -6 -6z"/>
<path fill="#000000" stroke="none" d="M160 110 c-12 -7 -12 -11 -2 -20 6 -5
10 -7 7 -4 -3 4 0 13 6 21 13 15 10 16 -11 3z"/>
<path fill="#000000" stroke="none" d="M182 75 c-7 -14 -12 -31 -12 -37 0 -14
13 -2 16 15 1 7 5 20 9 30 11 27 0 20 -13 -8z"/>
<path fill="#000000" stroke="none" d="M237 79 c-4 -16 -3 -18 9 -8 7 6 11 15
8 20 -8 13 -11 11 -17 -12z"/>
<path fill="#000000" stroke="none" d="M67 83 c-3 -5 -2 -15 3 -23 5 -9 5 -19
-2 -27 -8 -10 -7 -12 6 -7 11 4 14 13 10 33 -8 32 -10 35 -17 24z"/>
<path fill="#000000" stroke="none" d="M106 19 c6 -11 41 -12 47 -2 3 5 -8 8
-24 9 -15 1 -26 -3 -23 -7z"/>
</g>
</svg>
