<?xml version="1.0" standalone="no"?>
<!DOCTYPE svg PUBLIC "-//W3C//DTD SVG 20010904//EN"
 "http://www.w3.org/TR/2001/REC-SVG-20010904/DTD/svg10.dtd">
<svg version="1.0" xmlns="http://www.w3.org/2000/svg"
 width="32.000000pt" height="32.000000pt" viewBox="0 0 32.000000 32.000000"
 preserveAspectRatio="xMidYMid meet">
<metadata>
Created by potrace 1.16, written by Peter Selinger 2001-2019
</metadata>
<g transform="translate(0.000000,32.000000) scale(0.100000,-0.100000)"
fill="#000000" stroke="none">
<path fill="#000000" stroke="none" d="M31 308 c-10 -3 -21 -18 -23 -32 -6
-32 4 -34 17 -4 12 26 35 36 35 14 0 -10 -6 -13 -15 -10 -10 4 -15 0 -15 -15
0 -12 -6 -21 -14 -21 -9 0 -12 -7 -9 -21 4 -13 8 -17 13 -9 5 7 9 3 13 -11 4
-13 1 -28 -5 -34 -8 -7 -9 -5 -5 8 4 9 3 17 -2 17 -5 0 -11 -9 -14 -20 -3 -11
-1 -18 4 -14 5 3 9 0 9 -5 0 -6 -4 -11 -10 -11 -14 0 -13 -37 2 -46 7 -5 9 -2
5 8 -6 16 17 20 28 5 3 -4 2 -5 -1 -3 -14 10 -39 -32 -39 -66 0 -32 3 -38 21
-38 12 0 27 6 33 14 20 23 50 26 56 5 4 -11 15 -19 28 -19 20 1 21 2 5 14 -22
16 -23 32 -4 39 18 7 48 66 39 79 -3 6 -9 4 -15 -6 -5 -9 -19 -15 -33 -14 -31
3 -31 3 0 34 14 14 25 31 25 39 0 8 5 15 10 15 7 0 7 -6 0 -19 -13 -26 -13
-31 5 -31 8 0 15 -4 15 -10 0 -5 6 -8 13 -6 6 1 9 1 5 -1 -5 -3 -8 -9 -8 -14
0 -6 5 -7 10 -4 6 4 17 1 25 -5 12 -10 15 -9 15 9 0 27 14 27 40 -1 18 -20 20
-20 14 -4 -6 14 -4 17 6 11 8 -5 11 -3 8 6 -3 8 -14 13 -24 11 -18 -2 -18 -2
-1 12 10 8 17 23 16 33 -2 10 0 24 4 31 6 8 4 12 -5 10 -8 -2 -13 6 -12 19 0
12 -4 19 -9 16 -6 -4 -8 0 -4 9 3 10 0 15 -10 14 -9 0 -18 4 -20 10 -2 7 8 9
27 6 17 -2 27 -9 23 -15 -4 -6 -1 -7 6 -2 7 4 9 11 4 15 -15 13 -70 19 -81 8
-6 -6 -16 -7 -24 -2 -16 10 -151 12 -177 2z"/>
<path fill="#ffffff" stroke="none" d="M113 288 c7 5 22 12 35 15 19 4 22 2
19 -18 -1 -14 -6 -27 -9 -30 -6 -7 -88 31 -88 41 0 3 5 2 10 -1 6 -3 11 0 11
7 1 7 3 5 6 -5 3 -12 9 -15 16 -9z"/>
<path fill="#ffffff" stroke="none" d="M219 256 c1 -4 -6 -5 -15 -2 -9 3 -12
2 -9 -5 4 -6 13 -8 21 -5 9 4 14 -2 14 -15 0 -16 -5 -20 -27 -17 -14 2 -29 10
-31 18 -5 13 -3 13 13 0 11 -9 16 -10 11 -3 -14 24 -16 57 -3 65 11 7 24 -11
26 -36z"/>
<path fill="#ffffff" stroke="none" d="M280 250 c0 -13 -37 -13 -45 0 -3 6 -3
15 0 20 7 12 45 -5 45 -20z"/>
<path fill="#ffffff" stroke="none" d="M95 240 c11 9 14 7 13 -7 0 -10 1 -25
4 -33 3 -8 3 -12 1 -8 -2 4 -11 4 -19 1 -11 -4 -12 -8 -3 -19 9 -12 9 -13 -4
-8 -18 6 -32 35 -15 31 6 -1 13 4 15 11 3 7 0 11 -5 10 -10 -3 -13 2 -11 25 0
9 2 9 6 -1 4 -10 8 -10 18 -2z"/>
<path fill="#ffffff" stroke="none" d="M266 205 c-3 -8 0 -15 6 -15 9 0 9 -3
1 -11 -18 -18 -35 -1 -23 22 13 22 25 26 16 4z"/>
<path fill="#ffffff" stroke="none" d="M230 160 c9 -16 8 -18 -5 -14 -8 4 -15
12 -15 20 0 20 7 17 20 -6z"/>
<path fill="#ffffff" stroke="none" d="M64 135 c11 -8 15 -15 10 -15 -6 0 -19
7 -30 15 -10 8 -14 14 -9 14 6 0 19 -6 29 -14z"/>
<path fill="#ffffff" stroke="none" d="M100 88 c0 -7 -6 -21 -13 -30 -12 -15
-14 -15 -25 3 -7 11 -10 24 -7 29 9 14 45 12 45 -2z"/>
<path fill="#ffffff" stroke="none" d="M139 71 c-15 -5 -22 6 -14 19 6 9 10 9
16 -1 5 -8 4 -15 -2 -18z"/>
<path fill="#ffffff" stroke="none" d="M31 57 c-10 -9 -11 -8 -5 6 3 10 9 15
12 12 3 -3 0 -11 -7 -18z"/>
<path fill="#ffffff" stroke="none" d="M47 25 c0 -8 -4 -12 -9 -9 -5 3 -6 10
-3 15 9 13 12 11 12 -6z"/>
<path fill="#000000" stroke="none" d="M130 286 c0 -2 7 -9 15 -16 13 -11 14
-10 9 4 -5 14 -24 23 -24 12z"/>
<path fill="#000000" stroke="none" d="M260 120 c0 -5 5 -10 11 -10 5 0 7 5 4
10 -3 6 -8 10 -11 10 -2 0 -4 -4 -4 -10z"/>
<path fill="#000000" stroke="none" d="M192 82 c-18 -14 -20 -20 -10 -30 9 -9
9 -12 -2 -12 -8 0 -4 -8 10 -20 28 -24 57 -26 82 -3 11 9 18 11 18 5 0 -7 8
-12 18 -12 15 0 15 2 2 11 -11 8 -12 12 -2 16 6 2 12 13 12 24 0 13 -7 19 -23
19 -13 0 -27 3 -31 7 -14 15 -52 12 -74 -5z"/>
<path fill="#ffffff" stroke="none" d="M242 66 c6 4 5 -2 -1 -15 -15 -28 -19
-27 -18 7 0 15 2 21 4 14 3 -6 9 -9 15 -6z"/>
</g>
</svg>
