<?xml version="1.0" standalone="no"?>
<!DOCTYPE svg PUBLIC "-//W3C//DTD SVG 20010904//EN"
 "http://www.w3.org/TR/2001/REC-SVG-20010904/DTD/svg10.dtd">
<svg version="1.0" xmlns="http://www.w3.org/2000/svg"
 width="32.000000pt" height="32.000000pt" viewBox="0 0 32.000000 32.000000"
 preserveAspectRatio="xMidYMid meet">
<metadata>
Created by potrace 1.16, written by Peter Selinger 2001-2019
</metadata>
<g transform="translate(0.000000,32.000000) scale(0.100000,-0.100000)"
fill="#000000" stroke="none">
<path fill="#000000" stroke="none" d="M262 270 c7 -11 17 -20 22 -20 5 0 1 9
-9 20 -10 11 -20 20 -22 20 -2 0 2 -9 9 -20z"/>
<path fill="#000000" stroke="none" d="M203 255 c0 -8 4 -12 9 -9 5 3 6 10 3
15 -9 13 -12 11 -12 -6z"/>
<path fill="#000000" stroke="none" d="M163 194 c-3 -8 -2 -19 3 -24 5 -5 9 1
9 16 0 28 -3 30 -12 8z"/>
<path fill="#000000" stroke="none" d="M260 140 c-9 -6 -10 -10 -3 -10 6 0 15
5 18 10 8 12 4 12 -15 0z"/>
<path fill="#000000" stroke="none" d="M217 129 c7 -7 15 -10 18 -7 3 3 -2 9
-12 12 -14 6 -15 5 -6 -5z"/>
<path fill="#000000" stroke="none" d="M118 113 c7 -3 16 -2 19 1 4 3 -2 6
-13 5 -11 0 -14 -3 -6 -6z"/>
<path fill="#000000" stroke="none" d="M150 99 c0 -5 5 -7 10 -4 6 3 10 8 10
11 0 2 -4 4 -10 4 -5 0 -10 -5 -10 -11z"/>
<path fill="#000000" stroke="none" d="M179 73 c0 -5 -2 -16 -4 -26 -2 -11 -1
-16 3 -13 8 8 14 46 7 46 -3 0 -5 -3 -6 -7z"/>
<path fill="#000000" stroke="none" d="M108 18 c5 -5 16 -8 23 -6 8 3 3 7 -10
11 -17 4 -21 3 -13 -5z"/>
</g>
</svg>
