<?xml version="1.0" standalone="no"?>
<!DOCTYPE svg PUBLIC "-//W3C//DTD SVG 20010904//EN"
 "http://www.w3.org/TR/2001/REC-SVG-20010904/DTD/svg10.dtd">
<svg version="1.0" xmlns="http://www.w3.org/2000/svg"
 width="32.000000pt" height="32.000000pt" viewBox="0 0 32.000000 32.000000"
 preserveAspectRatio="xMidYMid meet">
<metadata>
Created by potrace 1.16, written by Peter Selinger 2001-2019
</metadata>
<g transform="translate(0.000000,32.000000) scale(0.100000,-0.100000)"
fill="#000000" stroke="none">
<path fill="#000000" stroke="none" d="M0 296 c0 -19 6 -26 28 -29 l27 -4 -27
-2 -28 -1 0 -130 0 -130 159 0 159 0 1 127 c0 88 -4 130 -12 135 -9 6 -9 8 1
8 6 0 12 11 12 25 l0 25 -160 0 -160 0 0 -24z"/>
<path fill="#ffffff" stroke="none" d="M153 263 c-7 -2 -19 -2 -25 0 -7 3 -2
5 12 5 14 0 19 -2 13 -5z"/>
<path fill="#ffffff" stroke="none" d="M278 263 c-10 -2 -26 -2 -35 0 -10 3
-2 5 17 5 19 0 27 -2 18 -5z"/>
<path fill="#ffffff" stroke="none" d="M113 183 c-7 -2 -21 -2 -30 0 -10 3 -4
5 12 5 17 0 24 -2 18 -5z"/>
<path fill="#ffffff" stroke="none" d="M307 184 c-3 -3 -12 -4 -19 -1 -8 3 -5
6 6 6 11 1 17 -2 13 -5z"/>
<path fill="#ffffff" stroke="none" d="M123 143 c-7 -2 -19 -2 -25 0 -7 3 -2
5 12 5 14 0 19 -2 13 -5z"/>
<path fill="#ffffff" stroke="none" d="M53 103 c-7 -2 -19 -2 -25 0 -7 3 -2 5
12 5 14 0 19 -2 13 -5z"/>
<path fill="#ffffff" stroke="none" d="M255 63 c-16 -3 -39 -12 -49 -21 -18
-16 -18 -16 -5 6 10 17 22 22 49 21 34 -2 34 -2 5 -6z"/>
<path fill="#ffffff" stroke="none" d="M80 26 c0 -3 -4 -8 -10 -11 -5 -3 -10
-1 -10 4 0 6 5 11 10 11 6 0 10 -2 10 -4z"/>
</g>
</svg>
