<?xml version="1.0" standalone="no"?>
<!DOCTYPE svg PUBLIC "-//W3C//DTD SVG 20010904//EN"
 "http://www.w3.org/TR/2001/REC-SVG-20010904/DTD/svg10.dtd">
<svg version="1.0" xmlns="http://www.w3.org/2000/svg"
 width="32.000000pt" height="32.000000pt" viewBox="0 0 32.000000 32.000000"
 preserveAspectRatio="xMidYMid meet">
<metadata>
Created by potrace 1.16, written by Peter Selinger 2001-2019
</metadata>
<g transform="translate(0.000000,32.000000) scale(0.100000,-0.100000)"
fill="#000000" stroke="none">
<path fill="#000000" stroke="none" d="M0 306 c0 -10 8 -16 22 -16 12 0 19 1
17 3 -2 1 -12 9 -21 16 -15 12 -18 11 -18 -3z"/>
<path fill="#000000" stroke="none" d="M50 305 c0 -8 5 -15 10 -15 6 0 10 4
10 9 0 6 19 12 43 14 40 3 40 4 -10 5 -41 2 -53 -1 -53 -13z"/>
<path fill="#000000" stroke="none" d="M203 306 c-7 -8 -16 -16 -22 -17 -5 -2
-12 -20 -16 -41 -6 -30 -4 -37 12 -41 15 -4 14 -5 -4 -6 -21 -1 -29 13 -24 42
0 4 -3 7 -9 7 -5 0 -10 -11 -10 -24 0 -19 -6 -26 -27 -29 l-28 -4 28 -2 c29
-1 29 0 28 -91 0 -30 4 -57 9 -60 5 -3 1 -11 -9 -17 -16 -10 -17 -7 -15 28 1
22 -1 37 -6 34 -5 -3 -11 -1 -15 5 -3 5 1 10 9 10 9 0 16 4 16 9 0 6 -8 9 -18
8 -21 -1 -25 -25 -8 -47 15 -18 14 -46 0 -43 -6 1 -11 -5 -11 -13 0 -9 11 -14
34 -14 36 0 36 -2 33 93 -1 35 3 57 9 57 6 0 11 -4 11 -10 0 -5 5 -10 11 -10
6 0 9 8 7 18 -2 10 -11 16 -21 14 -10 -2 -17 4 -17 13 0 8 6 15 14 15 8 0 21
3 30 6 13 5 16 -1 16 -30 0 -20 5 -36 10 -36 6 0 10 5 10 10 0 6 10 10 23 10
16 0 18 3 9 9 -11 7 -11 9 2 14 20 8 21 27 2 27 -8 0 -16 3 -19 8 -2 4 -2 2
-1 -5 2 -7 -1 -15 -6 -18 -10 -6 -13 20 -10 93 2 43 -6 51 -27 28z"/>
<path fill="#ffffff" stroke="none" d="M209 248 c-1 -24 -3 -35 -6 -25 -3 13
-8 15 -17 8 -9 -8 -13 -7 -13 4 0 8 5 15 10 15 5 0 7 6 4 14 -6 15 1 26 15 26
4 0 7 -19 7 -42z"/>
<path fill="#000000" stroke="none" d="M244 308 c-3 -4 -4 -8 -2 -9 32 -7 59
-5 68 6 8 10 3 12 -25 12 -20 -1 -39 -5 -41 -9z"/>
<path fill="#000000" stroke="none" d="M58 273 c18 -2 45 -2 60 0 15 2 0 4
-33 4 -33 0 -45 -2 -27 -4z"/>
<path fill="#000000" stroke="none" d="M258 273 c12 -2 32 -2 45 0 12 2 2 4
-23 4 -25 0 -35 -2 -22 -4z"/>
<path fill="#000000" stroke="none" d="M52 243 c-6 -2 -10 -9 -6 -14 3 -5 0
-9 -5 -9 -6 0 -11 4 -11 8 0 5 -7 9 -15 9 -19 0 -16 -39 3 -43 7 -1 8 0 2 3
-23 11 2 19 50 17 40 -3 50 0 50 13 0 13 -2 14 -17 2 -11 -10 -14 -10 -9 -1 4
6 3 12 -1 12 -5 0 -15 -6 -22 -12 -10 -11 -11 -10 -6 5 8 18 7 18 -13 10z"/>
<path fill="#000000" stroke="none" d="M265 220 c10 -12 24 -19 30 -16 6 2 11
-5 11 -15 0 -12 -5 -18 -13 -15 -20 8 -25 -11 -7 -28 18 -18 34 -21 34 -5 0 5
-4 7 -10 4 -12 -7 -14 8 -3 19 14 14 12 76 -2 76 -7 0 -16 -6 -19 -12 -5 -10
-7 -10 -12 0 -3 6 -10 12 -16 12 -6 0 -3 -9 7 -20z"/>
<path fill="#000000" stroke="none" d="M63 153 c9 -2 23 -2 30 0 6 3 -1 5 -18
5 -16 0 -22 -2 -12 -5z"/>
<path fill="#000000" stroke="none" d="M7 128 c-2 -7 0 -21 4 -30 6 -10 5 -19
-1 -23 -13 -8 0 -36 14 -29 6 3 3 -1 -7 -9 -26 -22 -20 -34 15 -33 23 1 34 7
36 19 2 11 10 16 17 13 8 -3 12 2 10 12 -2 9 -4 19 -4 22 -1 3 -6 -2 -11 -10
-7 -11 -10 -5 -10 23 0 20 -4 37 -10 37 -5 0 -10 -23 -10 -52 0 -79 -17 -40
-19 45 -1 28 -16 37 -24 15z"/>
<path fill="#000000" stroke="none" d="M194 118 c-3 -5 -10 -5 -16 -2 -7 4 -8
2 -4 -4 4 -7 2 -12 -3 -12 -6 0 -11 -11 -11 -24 0 -19 5 -24 20 -23 22 1 25 7
10 25 -7 9 -7 9 2 2 20 -17 31 -11 17 8 -13 15 -12 16 4 3 9 -7 17 -12 18 -10
8 42 7 45 -12 45 -11 0 -23 -4 -25 -8z"/>
<path fill="#000000" stroke="none" d="M250 105 c0 -8 5 -15 10 -15 6 0 10 7
10 15 0 8 -4 15 -10 15 -5 0 -10 -7 -10 -15z"/>
<path fill="#000000" stroke="none" d="M305 80 c-3 -5 -13 -6 -22 -3 -12 5
-14 3 -8 -8 8 -12 6 -12 -9 0 -15 12 -19 12 -34 -2 -10 -11 -12 -17 -4 -17 16
0 16 -37 0 -43 -7 -2 10 -4 38 -3 51 0 61 10 40 44 -4 7 -2 19 4 27 7 8 10 15
7 15 -3 0 -8 -4 -12 -10z"/>
<path fill="#ffffff" stroke="none" d="M257 55 c0 -8 -4 -12 -9 -9 -5 3 -6 10
-3 15 9 13 12 11 12 -6z"/>
</g>
</svg>
