<?xml version="1.0" standalone="no"?>
<!DOCTYPE svg PUBLIC "-//W3C//DTD SVG 20010904//EN"
 "http://www.w3.org/TR/2001/REC-SVG-20010904/DTD/svg10.dtd">
<svg version="1.0" xmlns="http://www.w3.org/2000/svg"
 width="32.000000pt" height="32.000000pt" viewBox="0 0 32.000000 32.000000"
 preserveAspectRatio="xMidYMid meet">
<metadata>
Created by potrace 1.16, written by Peter Selinger 2001-2019
</metadata>
<g transform="translate(0.000000,32.000000) scale(0.100000,-0.100000)"
fill="#000000" stroke="none">
<path fill="#000000" stroke="none" d="M26 303 c16 -12 16 -13 -7 -14 -13 0
-18 -3 -10 -6 10 -4 11 -7 1 -13 -7 -4 -10 -15 -7 -25 4 -9 11 -14 16 -11 5 3
12 -1 15 -10 3 -8 2 -12 -4 -9 -6 3 -7 -1 -4 -9 4 -11 0 -16 -10 -16 -9 0 -16
-7 -16 -17 0 -15 1 -15 18 0 10 10 23 17 28 17 14 0 8 71 -7 81 -10 6 -10 9
-1 9 6 0 12 8 12 18 0 11 -7 18 -21 18 -19 0 -19 -1 -3 -13z"/>
<path fill="#000000" stroke="none" d="M135 300 c-13 -14 -13 -19 -3 -23 7 -3
-5 -6 -27 -6 l-40 -1 0 -55 c0 -30 3 -55 8 -55 4 0 7 -7 7 -15 0 -8 -4 -15 -9
-15 -14 0 -33 28 -26 40 11 18 -3 11 -25 -12 -26 -28 -25 -36 3 -41 22 -4 22
-4 0 -6 -19 -1 -22 -7 -21 -41 0 -22 3 -40 7 -40 10 0 31 23 31 34 0 5 -6 1
-14 -10 -15 -19 -15 -19 -13 2 1 24 50 32 76 12 9 -7 13 -9 9 -4 -11 13 25 44
40 33 9 -7 11 -5 6 9 -5 15 -4 16 4 4 12 -16 -2 -41 -21 -37 -7 1 -11 -4 -9
-11 1 -8 -2 -11 -7 -8 -5 4 -16 -1 -24 -9 -9 -8 -22 -15 -29 -15 -10 0 -9 3 2
11 13 9 13 10 0 6 -8 -2 -16 -13 -16 -25 -1 -21 3 -22 82 -22 77 0 84 2 84 20
0 11 5 20 10 20 6 0 10 -9 10 -20 0 -22 15 -27 26 -8 4 7 3 8 -4 4 -7 -4 -12
-1 -12 7 0 23 39 28 59 8 17 -17 18 -16 18 33 0 47 0 48 -6 13 -6 -37 -6 -38
-23 -17 -10 11 -13 20 -7 20 6 0 9 8 8 18 -1 9 -1 30 0 46 1 24 3 27 16 16 14
-12 16 -9 13 22 -1 29 -5 34 -23 30 -12 -2 -27 4 -34 12 -8 9 -9 16 -3 16 6 0
13 -6 16 -12 5 -10 7 -10 12 0 3 6 12 12 20 12 8 0 14 6 14 14 0 10 -14 16
-42 19 l-43 4 43 1 c31 2 42 6 42 18 0 12 -4 14 -12 6 -15 -11 -54 -10 -65 3
-5 4 -3 5 4 1 6 -3 14 -2 17 3 4 5 -2 8 -11 7 -12 -2 -19 -13 -21 -34 -4 -35
-22 -45 -22 -12 0 19 -19 26 -59 21 -7 -2 -10 2 -7 8 4 6 20 9 36 7 17 -2 30
0 30 5 0 15 -60 6 -75 -11z"/>
<path fill="#ffffff" stroke="none" d="M183 273 c-7 -2 -19 -2 -25 0 -7 3 -2
5 12 5 14 0 19 -2 13 -5z"/>
<path fill="#ffffff" stroke="none" d="M188 225 c-3 -14 -1 -25 3 -25 5 0 9 8
9 18 0 21 36 27 44 6 3 -7 2 -13 -2 -13 -31 5 -28 -5 3 -11 l40 -7 -47 -2
c-45 -1 -69 -13 -49 -25 5 -3 6 -21 1 -40 -4 -19 -5 -37 -2 -40 3 -4 0 -6 -6
-6 -7 0 -12 15 -12 35 0 32 -2 35 -32 37 l-33 1 33 4 c52 7 41 33 -15 35 l-48
2 48 3 c37 3 47 8 47 22 0 17 8 31 18 31 2 0 2 -11 0 -25z"/>
<path fill="#ffffff" stroke="none" d="M94 228 c-6 -10 -4 -10 7 0 16 15 59
16 59 1 0 -5 -4 -7 -10 -4 -5 3 -10 1 -10 -5 0 -15 -52 -8 -58 8 -2 6 1 12 8
12 6 0 8 -6 4 -12z"/>
<path fill="#ffffff" stroke="none" d="M277 146 c0 -18 -33 -14 -34 5 -1 11 4
15 16 12 10 -2 18 -10 18 -17z"/>
<path fill="#ffffff" stroke="none" d="M45 141 c3 -6 -3 -9 -14 -8 -11 0 -17
5 -15 9 7 11 22 10 29 -1z"/>
<path fill="#ffffff" stroke="none" d="M247 112 c-15 -2 -25 -8 -22 -13 4 -5
1 -9 -4 -9 -11 0 -15 23 -6 32 3 3 18 2 33 -1 l27 -6 -28 -3z"/>
<path fill="#ffffff" stroke="none" d="M110 105 c0 -8 -4 -15 -9 -15 -5 0 -11
7 -15 15 -3 9 0 15 9 15 8 0 15 -7 15 -15z"/>
<path fill="#ffffff" stroke="none" d="M156 53 c-10 -10 -19 5 -10 18 6 11 8
11 12 0 2 -7 1 -15 -2 -18z"/>
<path fill="#ffffff" stroke="none" d="M190 46 c0 -36 -15 -40 -18 -5 -1 16 2
29 8 29 5 0 10 -11 10 -24z"/>
<path fill="#ffffff" stroke="none" d="M160 34 c0 -2 -12 -4 -27 -4 -21 0 -24
3 -14 9 13 8 41 5 41 -5z"/>
<path fill="#000000" stroke="none" d="M70 295 c0 -9 9 -15 23 -14 17 1 18 2
4 6 -9 2 -15 9 -12 14 4 5 1 9 -4 9 -6 0 -11 -7 -11 -15z"/>
<path fill="#000000" stroke="none" d="M305 130 c-3 -5 -1 -10 4 -10 6 0 11 5
11 10 0 6 -2 10 -4 10 -3 0 -8 -4 -11 -10z"/>
<path fill="#000000" stroke="none" d="M273 17 c0 -8 6 -14 14 -14 9 0 10 4 2
14 -6 7 -12 13 -14 13 -1 0 -2 -6 -2 -13z"/>
</g>
</svg>
