<?xml version="1.0" standalone="no"?>
<!DOCTYPE svg PUBLIC "-//W3C//DTD SVG 20010904//EN"
 "http://www.w3.org/TR/2001/REC-SVG-20010904/DTD/svg10.dtd">
<svg version="1.0" xmlns="http://www.w3.org/2000/svg"
 width="32.000000pt" height="32.000000pt" viewBox="0 0 32.000000 32.000000"
 preserveAspectRatio="xMidYMid meet">
<metadata>
Created by potrace 1.16, written by Peter Selinger 2001-2019
</metadata>
<g transform="translate(0.000000,32.000000) scale(0.100000,-0.100000)"
fill="#000000" stroke="none">
<path fill="#000000" stroke="none" d="M78 313 c-60 -3 -78 -7 -78 -19 0 -12
3 -12 20 -2 17 11 22 10 29 -1 6 -9 11 -10 15 -2 4 6 25 11 46 11 21 0 42 5
45 10 3 6 5 9 3 8 -2 -1 -38 -4 -80 -5z"/>
<path fill="#000000" stroke="none" d="M169 304 c-6 -8 -9 -17 -5 -21 3 -3 6
-1 6 6 0 13 57 11 79 -3 6 -4 11 -3 11 3 0 5 9 8 20 6 11 -2 20 0 20 4 0 12
-49 20 -55 10 -3 -4 -18 -4 -35 1 -21 6 -32 4 -41 -6z"/>
<path fill="#000000" stroke="none" d="M9 270 c-20 -13 -5 -22 21 -12 18 7 20
10 8 14 -8 4 -21 2 -29 -2z"/>
<path fill="#000000" stroke="none" d="M92 268 c-18 -18 -15 -23 13 -26 18 -1
25 3 24 16 0 10 -3 12 -6 5 -2 -7 -9 -13 -14 -13 -4 0 -6 7 -3 15 7 18 2 19
-14 3z"/>
<path fill="#000000" stroke="none" d="M300 271 c-8 -6 -17 -8 -20 -6 -4 2 -7
-2 -7 -10 0 -19 12 -19 31 1 24 23 22 31 -4 15z"/>
<path fill="#000000" stroke="none" d="M146 259 c2 -4 12 -6 22 -4 9 1 23 -2
30 -8 9 -7 11 -6 6 7 -4 10 -16 15 -34 14 -16 -1 -27 -5 -24 -9z"/>
<path fill="#000000" stroke="none" d="M210 266 c0 -9 40 -13 46 -5 3 5 -6 9
-20 9 -14 0 -26 -2 -26 -4z"/>
<path fill="#000000" stroke="none" d="M0 212 c0 -14 2 -14 9 -3 5 7 13 11 19
7 6 -3 21 -2 34 3 19 7 16 9 -19 9 -34 1 -43 -3 -43 -16z"/>
<path fill="#000000" stroke="none" d="M100 215 c0 -8 5 -15 11 -15 5 0 8 4 4
9 -3 5 3 12 12 14 14 4 13 5 -4 6 -14 1 -23 -5 -23 -14z"/>
<path fill="#000000" stroke="none" d="M160 221 c0 -6 9 -9 19 -8 11 0 17 5
15 9 -7 11 -34 10 -34 -1z"/>
<path fill="#000000" stroke="none" d="M210 226 c0 -7 50 -13 55 -7 2 4 -10 8
-26 9 -16 1 -29 1 -29 -2z"/>
<path fill="#000000" stroke="none" d="M0 175 c0 -8 2 -15 4 -15 2 0 6 7 10
15 3 8 1 15 -4 15 -6 0 -10 -7 -10 -15z"/>
<path fill="#000000" stroke="none" d="M75 180 c-3 -5 -1 -11 5 -15 5 -3 10
-1 10 4 0 6 5 11 11 11 5 0 8 -4 5 -8 -3 -5 1 -9 9 -9 8 0 15 4 15 8 0 4 9 5
20 2 11 -3 20 -1 20 3 0 12 -88 16 -95 4z"/>
<path fill="#000000" stroke="none" d="M185 180 c-3 -5 -2 -10 4 -10 5 0 13 5
16 10 3 6 2 10 -4 10 -5 0 -13 -4 -16 -10z"/>
<path fill="#000000" stroke="none" d="M240 180 c0 -5 5 -12 12 -16 7 -4 8 -3
4 4 -4 7 -2 12 3 12 6 0 11 -9 11 -19 0 -17 -5 -19 -35 -14 -28 4 -35 2 -35
-11 0 -9 5 -16 11 -16 5 0 7 5 4 10 -3 6 -1 10 4 10 6 0 11 -4 11 -9 0 -6 12
-6 30 0 16 6 28 15 25 19 -3 5 1 15 9 23 12 12 10 14 -20 15 -19 1 -34 -3 -34
-8z"/>
<path fill="#000000" stroke="none" d="M45 150 c-3 -5 -14 -6 -25 -3 -15 4
-20 0 -20 -13 0 -11 4 -15 8 -9 4 6 26 10 50 10 23 0 42 2 42 6 0 10 -50 18
-55 9z"/>
<path fill="#000000" stroke="none" d="M113 135 c0 -8 5 -11 11 -7 6 4 14 7
18 7 20 0 17 15 -4 15 -15 0 -25 -6 -25 -15z"/>
<path fill="#000000" stroke="none" d="M170 140 c0 -5 5 -10 10 -10 6 0 10 5
10 10 0 6 -4 10 -10 10 -5 0 -10 -4 -10 -10z"/>
<path fill="#000000" stroke="none" d="M0 93 c0 -12 3 -14 8 -7 4 7 16 14 27
17 15 4 14 5 -7 6 -21 1 -28 -4 -28 -16z"/>
<path fill="#000000" stroke="none" d="M65 99 c-4 -6 -4 -13 -1 -16 3 -4 6 0
6 8 0 11 2 12 9 1 7 -11 9 -11 14 2 7 18 -18 23 -28 5z"/>
<path fill="#000000" stroke="none" d="M107 97 c-4 -10 2 -13 19 -9 13 2 24 8
24 13 0 14 -37 10 -43 -4z"/>
<path fill="#000000" stroke="none" d="M170 92 c0 -15 2 -15 10 -2 9 13 11 13
20 0 6 -10 10 -11 10 -3 0 9 13 11 39 9 21 -2 44 0 52 5 8 5 -15 8 -59 8 -61
0 -72 -3 -72 -17z"/>
<path fill="#000000" stroke="none" d="M0 54 c0 -14 2 -15 17 -3 11 10 14 10
9 2 -4 -8 -1 -13 9 -13 9 0 13 4 10 10 -3 6 4 10 17 10 19 0 20 -2 8 -11 -10
-7 -11 -9 -2 -7 30 8 14 23 -25 26 -35 3 -43 0 -43 -14z"/>
<path fill="#000000" stroke="none" d="M108 63 c7 -3 16 -2 19 1 4 3 -2 6 -13
5 -11 0 -14 -3 -6 -6z"/>
<path fill="#000000" stroke="none" d="M140 51 c0 -10 3 -12 8 -5 4 6 20 10
35 9 15 -1 30 1 32 5 2 3 -14 7 -36 7 -30 1 -39 -3 -39 -16z"/>
<path fill="#000000" stroke="none" d="M230 59 c0 -4 7 -6 15 -3 9 4 15 0 15
-7 0 -10 3 -10 8 -3 4 6 14 13 22 16 8 3 -2 6 -22 6 -21 0 -38 -4 -38 -9z"/>
<path fill="#000000" stroke="none" d="M0 15 c0 -17 2 -18 24 -9 18 7 12 24
-10 24 -8 0 -14 -7 -14 -15z"/>
<path fill="#000000" stroke="none" d="M85 21 c-3 -5 -1 -12 4 -15 5 -4 12 0
14 6 4 10 8 9 16 -2 9 -13 11 -13 11 3 0 18 -34 24 -45 8z"/>
<path fill="#000000" stroke="none" d="M145 20 c3 -5 8 -10 11 -10 2 0 4 5 4
10 0 6 -5 10 -11 10 -5 0 -7 -4 -4 -10z"/>
<path fill="#000000" stroke="none" d="M191 14 c0 -11 3 -14 6 -6 3 7 2 16 -1
19 -3 4 -6 -2 -5 -13z"/>
<path fill="#000000" stroke="none" d="M218 23 c7 -3 16 -2 19 1 4 3 -2 6 -13
5 -11 0 -14 -3 -6 -6z"/>
</g>
</svg>
