<?xml version="1.0" standalone="no"?>
<!DOCTYPE svg PUBLIC "-//W3C//DTD SVG 20010904//EN"
 "http://www.w3.org/TR/2001/REC-SVG-20010904/DTD/svg10.dtd">
<svg version="1.0" xmlns="http://www.w3.org/2000/svg"
 width="32.000000pt" height="32.000000pt" viewBox="0 0 32.000000 32.000000"
 preserveAspectRatio="xMidYMid meet">
<metadata>
Created by potrace 1.16, written by Peter Selinger 2001-2019
</metadata>
<g transform="translate(0.000000,32.000000) scale(0.100000,-0.100000)"
fill="#000000" stroke="none">
<path fill="#000000" stroke="none" d="M0 294 c0 -14 3 -15 18 -3 9 7 19 15
21 16 2 2 -5 3 -17 3 -14 0 -22 -6 -22 -16z"/>
<path fill="#000000" stroke="none" d="M50 293 c0 -12 3 -14 8 -6 4 6 25 13
47 16 40 4 40 4 -7 5 -40 2 -48 -1 -48 -15z"/>
<path fill="#000000" stroke="none" d="M165 299 c-4 -6 -4 -13 -1 -16 3 -4 6
-1 6 6 0 9 11 12 34 9 19 -2 32 0 30 4 -8 12 -62 10 -69 -3z"/>
<path fill="#000000" stroke="none" d="M250 293 c0 -11 3 -14 8 -7 4 6 15 10
25 8 9 -1 17 2 17 7 0 5 -11 9 -25 9 -17 0 -25 -5 -25 -17z"/>
<path fill="#000000" stroke="none" d="M28 263 c7 -3 16 -2 19 1 4 3 -2 6 -13
5 -11 0 -14 -3 -6 -6z"/>
<path fill="#000000" stroke="none" d="M85 259 c-11 -16 -1 -19 13 -3 7 8 8
14 3 14 -5 0 -13 -5 -16 -11z"/>
<path fill="#000000" stroke="none" d="M112 255 c-11 -13 -10 -15 7 -15 14 0
19 5 15 15 -7 18 -6 18 -22 0z"/>
<path fill="#000000" stroke="none" d="M146 258 c3 -4 11 -5 19 -1 21 7 19 12
-4 10 -11 0 -18 -5 -15 -9z"/>
<path fill="#000000" stroke="none" d="M202 255 c-14 -16 -2 -21 14 -6 5 5 18
11 29 14 16 4 15 5 -5 5 -14 1 -31 -5 -38 -13z"/>
<path fill="#000000" stroke="none" d="M273 253 c0 -17 12 -17 27 1 9 12 8 15
-8 13 -10 0 -19 -7 -19 -14z"/>
<path fill="#000000" stroke="none" d="M1 211 c0 -9 3 -11 5 -4 3 7 11 10 18
7 7 -3 23 -1 37 4 21 8 18 9 -19 9 -32 0 -42 -3 -41 -16z"/>
<path fill="#000000" stroke="none" d="M100 215 c0 -8 4 -15 9 -15 5 0 14 7
21 15 10 13 9 15 -9 15 -12 0 -21 -6 -21 -15z"/>
<path fill="#000000" stroke="none" d="M170 226 c0 -2 7 -7 16 -10 8 -3 12 -2
9 4 -6 10 -25 14 -25 6z"/>
<path fill="#000000" stroke="none" d="M211 213 c0 -11 3 -13 6 -5 2 6 12 12
21 12 15 0 15 -2 2 -10 -8 -5 -10 -10 -4 -10 6 0 16 6 22 13 9 10 4 13 -19 15
-22 2 -29 -2 -28 -15z"/>
<path fill="#000000" stroke="none" d="M0 175 c0 -8 2 -15 4 -15 2 0 6 7 10
15 3 8 1 15 -4 15 -6 0 -10 -7 -10 -15z"/>
<path fill="#000000" stroke="none" d="M84 179 c-3 -6 -3 -13 0 -16 3 -4 6 -1
6 5 0 7 5 12 11 12 5 0 8 -4 5 -8 -3 -5 1 -9 9 -9 8 0 15 4 15 9 0 5 9 6 20 3
11 -3 20 -3 20 2 0 12 -78 14 -86 2z"/>
<path fill="#000000" stroke="none" d="M185 180 c-3 -5 -2 -10 4 -10 5 0 13 5
16 10 3 6 2 10 -4 10 -5 0 -13 -4 -16 -10z"/>
<path fill="#000000" stroke="none" d="M240 180 c0 -5 5 -12 12 -16 7 -4 8 -3
4 4 -4 7 -3 12 3 12 5 0 11 -4 13 -9 2 -5 11 -4 20 3 15 11 13 13 -17 14 -19
1 -35 -3 -35 -8z"/>
<path fill="#000000" stroke="none" d="M1 131 c0 -9 2 -11 5 -6 2 6 24 10 49
9 25 0 45 3 45 7 0 3 -22 6 -50 6 -39 -1 -50 -4 -49 -16z"/>
<path fill="#000000" stroke="none" d="M113 135 c0 -8 5 -11 11 -7 6 4 14 7
18 7 20 0 17 15 -4 15 -15 0 -25 -6 -25 -15z"/>
<path fill="#000000" stroke="none" d="M200 135 c0 -8 5 -15 11 -15 5 0 7 4 4
10 -4 6 7 8 27 4 25 -4 29 -3 18 5 -22 16 -60 13 -60 -4z"/>
<path fill="#000000" stroke="none" d="M0 93 c0 -12 3 -14 8 -7 4 7 16 14 27
17 15 4 14 5 -7 6 -21 1 -28 -4 -28 -16z"/>
<path fill="#000000" stroke="none" d="M80 95 c0 -8 2 -15 4 -15 2 0 6 7 10
15 3 8 1 15 -4 15 -6 0 -10 -7 -10 -15z"/>
<path fill="#000000" stroke="none" d="M115 100 c3 -5 13 -10 21 -10 8 0 14 5
14 10 0 6 -9 10 -21 10 -11 0 -17 -4 -14 -10z"/>
<path fill="#000000" stroke="none" d="M170 92 c0 -11 3 -13 8 -6 4 7 28 11
59 10 29 -2 57 0 63 4 6 4 -21 7 -60 8 -60 1 -70 -1 -70 -16z"/>
<path fill="#000000" stroke="none" d="M0 54 c0 -14 3 -15 18 -3 9 7 19 15 21
16 2 2 -5 3 -17 3 -14 0 -22 -6 -22 -16z"/>
<path fill="#000000" stroke="none" d="M58 63 c7 -3 16 -2 19 1 4 3 -2 6 -13
5 -11 0 -14 -3 -6 -6z"/>
<path fill="#000000" stroke="none" d="M108 63 c7 -3 16 -2 19 1 4 3 -2 6 -13
5 -11 0 -14 -3 -6 -6z"/>
<path fill="#000000" stroke="none" d="M140 55 c0 -8 2 -15 4 -15 2 0 6 7 10
15 3 8 1 15 -4 15 -6 0 -10 -7 -10 -15z"/>
<path fill="#000000" stroke="none" d="M170 66 c0 -7 40 -14 44 -7 3 4 -6 8
-20 9 -13 1 -24 0 -24 -2z"/>
<path fill="#000000" stroke="none" d="M230 60 c0 -5 7 -7 15 -4 8 4 15 8 15
10 0 2 -7 4 -15 4 -8 0 -15 -4 -15 -10z"/>
<path fill="#000000" stroke="none" d="M278 63 c7 -3 16 -2 19 1 4 3 -2 6 -13
5 -11 0 -14 -3 -6 -6z"/>
<path fill="#000000" stroke="none" d="M28 43 c7 -3 16 -2 19 1 4 3 -2 6 -13
5 -11 0 -14 -3 -6 -6z"/>
<path fill="#000000" stroke="none" d="M0 15 c0 -17 2 -18 24 -9 18 7 12 24
-10 24 -8 0 -14 -7 -14 -15z"/>
<path fill="#000000" stroke="none" d="M85 20 c-3 -5 -1 -11 4 -14 5 -4 12 0
14 6 4 10 8 10 15 -1 7 -9 12 -10 16 -2 4 6 12 9 17 6 5 -4 9 -2 9 3 0 12 -68
14 -75 2z"/>
<path fill="#000000" stroke="none" d="M191 14 c0 -11 3 -14 6 -6 3 7 2 16 -1
19 -3 4 -6 -2 -5 -13z"/>
<path fill="#000000" stroke="none" d="M218 23 c7 -3 16 -2 19 1 4 3 -2 6 -13
5 -11 0 -14 -3 -6 -6z"/>
<path fill="#000000" stroke="none" d="M278 23 c6 -2 18 -2 25 0 6 3 1 5 -13
5 -14 0 -19 -2 -12 -5z"/>
</g>
</svg>
