<?xml version="1.0" standalone="no"?>
<!DOCTYPE svg PUBLIC "-//W3C//DTD SVG 20010904//EN"
 "http://www.w3.org/TR/2001/REC-SVG-20010904/DTD/svg10.dtd">
<svg version="1.0" xmlns="http://www.w3.org/2000/svg"
 width="32.000000pt" height="32.000000pt" viewBox="0 0 32.000000 32.000000"
 preserveAspectRatio="xMidYMid meet">
<metadata>
Created by potrace 1.16, written by Peter Selinger 2001-2019
</metadata>
<g transform="translate(0.000000,32.000000) scale(0.100000,-0.100000)"
fill="#000000" stroke="none">
<path fill="#000000" stroke="none" d="M172 312 c-30 -2 -50 -7 -47 -13 4 -5
17 -6 31 -3 14 4 24 2 24 -5 0 -16 26 -13 40 4 17 20 15 21 -48 17z"/>
<path fill="#000000" stroke="none" d="M0 293 c0 -13 3 -14 12 -5 7 7 17 12
23 12 5 0 3 -5 -5 -10 -13 -9 -13 -10 1 -10 8 0 24 7 35 15 18 13 16 14 -23
15 -34 0 -43 -4 -43 -17z"/>
<path fill="#000000" stroke="none" d="M240 300 c0 -5 14 -10 30 -10 17 0 30
5 30 10 0 6 -13 10 -30 10 -16 0 -30 -4 -30 -10z"/>
<path fill="#000000" stroke="none" d="M213 270 c-28 -11 -29 -16 -3 -16 11 0
22 6 24 13 3 7 4 13 3 12 -1 0 -12 -4 -24 -9z"/>
<path fill="#000000" stroke="none" d="M80 255 c0 -19 -32 -35 -59 -30 -14 2
-21 -1 -21 -11 0 -11 6 -13 21 -9 12 4 28 8 36 9 9 2 19 10 24 19 13 23 41 10
34 -17 -2 -11 -2 -15 1 -8 3 6 13 12 22 13 11 0 12 2 4 6 -6 2 -10 8 -8 12 3
4 1 13 -5 21 -6 10 -9 11 -9 3 0 -7 -5 -13 -11 -13 -5 0 -7 5 -4 10 3 6 -1 10
-9 10 -9 0 -16 -7 -16 -15z"/>
<path fill="#000000" stroke="none" d="M146 258 c3 -4 11 -5 19 -1 21 7 19 12
-4 10 -11 0 -18 -5 -15 -9z"/>
<path fill="#000000" stroke="none" d="M255 260 c-3 -6 1 -7 9 -4 18 7 21 14
7 14 -6 0 -13 -4 -16 -10z"/>
<path fill="#000000" stroke="none" d="M290 259 c0 -5 5 -7 10 -4 6 3 10 8 10
11 0 2 -4 4 -10 4 -5 0 -10 -5 -10 -11z"/>
<path fill="#000000" stroke="none" d="M178 232 c-17 -7 -17 -8 2 -19 12 -8
21 -9 25 -3 3 6 1 10 -5 10 -6 0 -8 5 -5 10 7 11 7 11 -17 2z"/>
<path fill="#000000" stroke="none" d="M242 215 c-16 -19 -11 -19 24 0 23 12
25 15 9 15 -11 -1 -26 -7 -33 -15z"/>
<path fill="#000000" stroke="none" d="M301 191 c-8 -5 -20 -7 -28 -4 -9 3
-11 0 -8 -10 5 -12 11 -12 31 -3 13 6 24 14 24 19 0 9 -2 9 -19 -2z"/>
<path fill="#000000" stroke="none" d="M0 174 c0 -14 23 -14 37 2 9 9 6 11
-13 10 -13 0 -24 -6 -24 -12z"/>
<path fill="#000000" stroke="none" d="M85 180 c-4 -6 -4 -14 -1 -17 3 -4 6
-1 6 6 0 9 5 9 21 0 17 -9 20 -8 17 3 -6 17 -34 22 -43 8z"/>
<path fill="#000000" stroke="none" d="M146 178 c3 -4 9 -8 15 -8 5 0 9 4 9 8
0 5 -7 9 -15 9 -8 0 -12 -4 -9 -9z"/>
<path fill="#000000" stroke="none" d="M185 180 c-3 -5 -2 -10 4 -10 5 0 13 5
16 10 3 6 2 10 -4 10 -5 0 -13 -4 -16 -10z"/>
<path fill="#000000" stroke="none" d="M220 180 c0 -5 4 -10 9 -10 6 0 13 5
16 10 3 6 -1 10 -9 10 -9 0 -16 -4 -16 -10z"/>
<path fill="#000000" stroke="none" d="M135 149 c-4 -6 -5 -12 -2 -15 2 -3 7
2 10 11 7 17 1 20 -8 4z"/>
<path fill="#000000" stroke="none" d="M1 133 c0 -10 3 -13 5 -7 3 7 15 10 27
7 18 -4 19 -3 7 6 -23 16 -40 13 -39 -6z"/>
<path fill="#000000" stroke="none" d="M79 139 c19 -7 21 -12 11 -24 -6 -8
-10 -19 -8 -25 2 -7 11 4 20 22 l16 34 -32 2 c-29 1 -29 0 -7 -9z"/>
<path fill="#000000" stroke="none" d="M160 134 c0 -12 4 -12 20 -4 11 6 20
12 20 13 0 2 -9 3 -20 4 -12 1 -20 -4 -20 -13z"/>
<path fill="#000000" stroke="none" d="M230 140 c0 -5 10 -10 23 -10 18 0 19
2 7 10 -19 13 -30 13 -30 0z"/>
<path fill="#000000" stroke="none" d="M200 110 c-8 -5 -10 -10 -5 -10 6 0 3
-5 -5 -10 -8 -5 -10 -10 -5 -10 14 0 30 13 33 28 2 14 1 15 -18 2z"/>
<path fill="#000000" stroke="none" d="M263 112 c-23 -3 -33 -32 -12 -32 5 0
7 5 3 11 -4 7 0 9 12 5 11 -3 25 -2 32 3 18 11 -3 19 -35 13z"/>
<path fill="#000000" stroke="none" d="M1 93 c0 -11 3 -13 6 -5 2 6 8 10 12 8
4 -3 13 -1 21 5 11 6 8 9 -12 9 -20 0 -28 -5 -27 -17z"/>
<path fill="#000000" stroke="none" d="M115 99 c7 -11 35 -12 35 -1 0 4 -9 8
-20 9 -11 1 -18 -2 -15 -8z"/>
<path fill="#000000" stroke="none" d="M286 71 c-17 -6 -17 -8 -4 -14 10 -3
19 0 22 9 3 8 4 14 3 13 -1 0 -11 -4 -21 -8z"/>
<path fill="#000000" stroke="none" d="M0 54 c0 -14 3 -15 18 -3 9 7 19 15 21
16 2 2 -5 3 -17 3 -14 0 -22 -6 -22 -16z"/>
<path fill="#000000" stroke="none" d="M58 63 c7 -3 16 -2 19 1 4 3 -2 6 -13
5 -11 0 -14 -3 -6 -6z"/>
<path fill="#000000" stroke="none" d="M100 61 c0 -5 9 -7 20 -4 11 3 20 7 20
9 0 2 -9 4 -20 4 -11 0 -20 -4 -20 -9z"/>
<path fill="#000000" stroke="none" d="M190 60 c0 -5 5 -10 11 -10 5 0 7 5 4
10 -3 6 -8 10 -11 10 -2 0 -4 -4 -4 -10z"/>
<path fill="#000000" stroke="none" d="M225 50 c5 -14 2 -20 -9 -20 -9 0 -16
-4 -16 -10 0 -16 28 0 45 26 15 23 14 24 -5 24 -17 0 -20 -4 -15 -20z"/>
<path fill="#000000" stroke="none" d="M25 40 c3 -5 -1 -10 -9 -10 -9 0 -16
-7 -16 -15 0 -18 10 -19 30 -2 21 17 23 37 4 37 -8 0 -12 -4 -9 -10z"/>
<path fill="#000000" stroke="none" d="M115 40 c-3 -5 -17 -10 -31 -10 -16 0
-24 -5 -23 -17 0 -11 3 -13 6 -5 6 15 53 16 53 1 0 -8 4 -9 13 0 8 6 17 8 20
4 4 -3 7 -1 7 6 0 8 -7 10 -22 6 -17 -6 -20 -4 -15 9 7 18 2 22 -8 6z"/>
<path fill="#000000" stroke="none" d="M280 20 c0 -5 7 -7 15 -4 8 4 15 8 15
10 0 2 -7 4 -15 4 -8 0 -15 -4 -15 -10z"/>
</g>
</svg>
