<?xml version="1.0" standalone="no"?>
<!DOCTYPE svg PUBLIC "-//W3C//DTD SVG 20010904//EN"
 "http://www.w3.org/TR/2001/REC-SVG-20010904/DTD/svg10.dtd">
<svg version="1.0" xmlns="http://www.w3.org/2000/svg"
 width="32.000000pt" height="32.000000pt" viewBox="0 0 32.000000 32.000000"
 preserveAspectRatio="xMidYMid meet">
<metadata>
Created by potrace 1.16, written by Peter Selinger 2001-2019
</metadata>
<g transform="translate(0.000000,32.000000) scale(0.100000,-0.100000)"
fill="#000000" stroke="none">
<path fill="#000000" stroke="none" d="M1 240 c2 -44 5 -80 8 -80 2 0 12 6 20
14 14 13 16 11 18 -14 1 -16 -2 -32 -7 -35 -6 -4 -10 -15 -10 -26 0 -18 2 -19
15 -5 8 8 15 19 15 25 0 6 10 16 23 22 21 12 21 11 4 -8 -25 -29 -11 -34 29
-11 19 11 34 17 34 13 0 -4 7 -1 17 6 14 12 16 12 11 -1 -2 -8 -11 -15 -19
-16 -8 0 -28 -8 -45 -17 -17 -9 -34 -14 -36 -11 -3 2 -10 -2 -16 -9 -9 -11 -8
-14 6 -14 9 0 23 5 31 11 12 9 12 8 3 -11 -12 -21 -11 -22 15 -7 44 22 47 17
15 -24 l-30 -38 76 -2 c73 -1 108 10 96 30 -3 5 0 15 6 23 6 8 8 20 4 27 -6
11 -5 11 8 0 13 -10 17 -10 22 4 4 9 4 19 1 22 -3 3 -5 0 -5 -8 0 -9 -3 -10
-13 -1 -11 8 -19 5 -37 -14 -13 -14 -28 -25 -34 -25 -5 0 2 12 16 28 37 39 59
77 51 86 -5 4 -1 6 7 4 11 -2 16 7 18 32 l3 35 -26 -28 c-14 -15 -30 -25 -35
-22 -5 3 -20 -9 -34 -27 -14 -18 -26 -27 -26 -20 0 18 84 102 103 102 10 0 15
8 14 20 -1 11 -5 20 -10 20 -5 0 -6 -7 -3 -16 3 -9 2 -12 -5 -9 -6 4 -17 -1
-25 -11 -15 -18 -15 -18 -10 0 5 16 4 17 -8 7 -8 -7 -20 -10 -25 -7 -5 4 -16
-2 -23 -12 -7 -10 -19 -22 -26 -26 -11 -7 -12 -4 -3 11 6 11 7 24 3 28 -4 5
-2 6 3 2 13 -7 24 1 45 28 13 18 13 19 0 9 -8 -6 -23 -11 -33 -11 -16 0 -16 1
0 21 17 20 17 20 -2 6 -11 -8 -28 -23 -38 -35 -21 -23 -11 1 11 27 13 15 12
17 -6 15 -11 0 -19 -4 -16 -8 7 -11 -24 -31 -37 -23 -8 5 -9 3 -4 -6 6 -10 4
-12 -8 -7 -10 3 -17 3 -17 -1 0 -4 -14 -23 -31 -42 -17 -19 -27 -28 -23 -20 4
8 14 23 22 33 8 9 12 17 7 17 -4 0 -1 8 6 18 13 15 12 16 -3 3 -10 -7 -16 -17
-13 -21 6 -10 -23 -35 -32 -27 -3 4 0 14 8 24 9 11 10 14 2 9 -20 -12 -15 5 9
31 l21 23 -27 0 -27 0 2 -80z"/>
<path fill="#ffffff" stroke="none" d="M131 253 c13 -16 12 -17 -4 -4 -16 13
-18 12 -13 -12 5 -29 -8 -45 -20 -25 -11 17 -13 48 -3 42 4 -2 10 0 14 6 8 13
10 13 26 -7z"/>
<path fill="#ffffff" stroke="none" d="M247 223 c-14 -14 -19 -15 -29 -4 -9 9
-9 12 -1 7 6 -3 14 -2 18 4 3 5 11 10 18 10 6 0 4 -7 -6 -17z"/>
<path fill="#ffffff" stroke="none" d="M271 177 c-5 -5 -8 -15 -6 -21 3 -6
-12 -29 -32 -51 -20 -22 -30 -32 -23 -22 14 20 1 23 -20 5 -12 -11 -12 -10 -1
4 7 10 22 20 33 24 12 3 17 11 14 20 -7 19 12 51 31 51 9 0 10 -4 4 -10z"/>
<path fill="#ffffff" stroke="none" d="M160 39 c-7 -11 -14 -18 -17 -15 -3 3
0 12 7 21 18 21 23 19 10 -6z"/>
<path fill="#000000" stroke="none" d="M95 231 c-3 -5 -2 -12 3 -15 5 -3 9 1
9 9 0 17 -3 19 -12 6z"/>
<path fill="#000000" stroke="none" d="M25 150 c-4 -6 -11 -7 -17 -4 -7 4 -8
2 -4 -5 6 -9 11 -9 22 0 14 11 18 19 10 19 -3 0 -8 -5 -11 -10z"/>
<path fill="#000000" stroke="none" d="M0 24 c0 -29 25 -33 33 -5 3 13 -1 21
-14 24 -15 4 -19 0 -19 -19z"/>
<path fill="#000000" stroke="none" d="M83 29 c-40 -12 -52 -29 -20 -29 13 0
32 9 42 20 10 11 16 20 14 19 -2 0 -18 -5 -36 -10z"/>
<path fill="#000000" stroke="none" d="M300 15 c-10 -12 -10 -15 4 -15 9 0 16
7 16 15 0 8 -2 15 -4 15 -2 0 -9 -7 -16 -15z"/>
</g>
</svg>
