<?xml version="1.0" standalone="no"?>
<!DOCTYPE svg PUBLIC "-//W3C//DTD SVG 20010904//EN"
 "http://www.w3.org/TR/2001/REC-SVG-20010904/DTD/svg10.dtd">
<svg version="1.0" xmlns="http://www.w3.org/2000/svg"
 width="32.000000pt" height="32.000000pt" viewBox="0 0 32.000000 32.000000"
 preserveAspectRatio="xMidYMid meet">
<metadata>
Created by potrace 1.16, written by Peter Selinger 2001-2019
</metadata>
<g transform="translate(0.000000,32.000000) scale(0.100000,-0.100000)"
fill="#000000" stroke="none">
<path fill="#000000" stroke="none" d="M0 303 c0 -6 5 -15 10 -18 6 -3 10 -12
10 -18 0 -8 -3 -8 -9 1 -4 7 -8 -50 -9 -130 0 -110 2 -138 10 -120 12 25 34
24 32 -1 -1 -12 3 -14 23 -6 31 12 36 11 28 -1 -9 -15 38 -12 54 2 11 10 13
10 7 1 -9 -17 30 -18 40 -1 4 7 3 8 -4 4 -7 -4 -12 -2 -12 3 0 16 20 13 26 -4
4 -8 13 -15 21 -15 11 0 13 4 6 13 -6 6 -13 26 -17 42 -5 22 -4 26 4 15 5 -8
10 -23 10 -32 0 -25 36 -42 52 -24 11 11 14 11 24 -2 9 -12 11 -2 12 46 1 66
-3 72 -24 45 -12 -16 -13 -16 -8 -1 4 13 1 15 -15 11 -15 -4 -21 -1 -21 10 0
21 19 32 33 18 18 -18 37 -13 37 10 0 11 -4 17 -10 14 -5 -3 -10 1 -10 10 0 9
5 13 10 10 6 -3 10 4 10 17 0 18 -2 20 -10 8 -6 -9 -10 -10 -10 -3 0 6 5 15
10 18 14 9 12 64 -3 79 -16 17 -47 16 -47 -1 0 -7 7 -13 15 -13 8 0 15 -4 15
-10 0 -5 -6 -7 -14 -4 -17 6 -31 -12 -16 -21 5 -3 10 -14 10 -23 0 -11 -6 -6
-15 12 -10 19 -12 32 -5 36 6 4 4 13 -6 26 -11 13 -17 15 -20 7 -3 -7 -10 -13
-15 -13 -6 0 -8 3 -6 8 3 4 -18 8 -46 9 -32 2 -54 -2 -59 -10 -6 -9 -8 -9 -8
1 0 9 -13 12 -45 10 -27 -2 -45 -8 -45 -15z"/>
<path fill="#ffffff" stroke="none" d="M124 294 c3 -8 2 -12 -4 -9 -6 3 -10
10 -10 16 0 14 7 11 14 -7z"/>
<path fill="#ffffff" stroke="none" d="M180 286 c0 -8 -5 -18 -11 -22 -14 -8
-33 11 -25 25 10 16 36 13 36 -3z"/>
<path fill="#ffffff" stroke="none" d="M47 254 c-6 -20 -13 -32 -14 -27 -4 11
14 63 21 63 2 0 -1 -16 -7 -36z"/>
<path fill="#ffffff" stroke="none" d="M71 229 c-9 -21 -10 -20 -6 11 5 44 6
49 12 29 2 -8 -1 -26 -6 -40z"/>
<path fill="#ffffff" stroke="none" d="M102 233 c-10 -28 -10 -28 -8 9 0 21 5
33 10 28 4 -4 4 -21 -2 -37z"/>
<path fill="#ffffff" stroke="none" d="M203 269 c-6 -6 -9 -17 -6 -24 3 -10
-2 -12 -16 -8 -20 5 -20 5 2 24 24 20 38 26 20 8z"/>
<path fill="#ffffff" stroke="none" d="M207 213 c-11 -12 -16 -12 -22 -2 -6 8
-4 10 4 5 8 -5 14 0 18 15 4 14 8 18 11 10 2 -7 -2 -20 -11 -28z"/>
<path fill="#ffffff" stroke="none" d="M154 214 c3 -8 2 -12 -4 -9 -6 3 -10
10 -10 16 0 14 7 11 14 -7z"/>
<path fill="#ffffff" stroke="none" d="M240 215 c0 -8 -4 -15 -10 -15 -5 0 -7
7 -4 15 4 8 8 15 10 15 2 0 4 -7 4 -15z"/>
<path fill="#ffffff" stroke="none" d="M39 186 c-3 -3 -11 5 -18 17 -13 21
-12 21 5 5 10 -10 16 -20 13 -22z"/>
<path fill="#ffffff" stroke="none" d="M64 166 c-3 -15 -8 -25 -11 -23 -2 3
-1 17 3 31 3 15 8 25 11 23 2 -3 1 -17 -3 -31z"/>
<path fill="#ffffff" stroke="none" d="M108 188 c-22 -18 -32 -55 -16 -61 8
-2 7 -3 -2 -3 -28 3 -6 76 23 76 6 0 4 -6 -5 -12z"/>
<path fill="#ffffff" stroke="none" d="M235 180 c-27 -12 -43 -12 -25 0 8 5
22 9 30 9 10 0 8 -3 -5 -9z"/>
<path fill="#ffffff" stroke="none" d="M173 158 c15 -12 14 -13 -10 -14 -16
-1 -22 1 -14 3 11 5 11 7 0 14 -8 5 -9 9 -3 9 5 0 18 -6 27 -12z"/>
<path fill="#ffffff" stroke="none" d="M270 166 c0 -2 -7 -6 -15 -10 -8 -3
-15 -1 -15 4 0 6 7 10 15 10 8 0 15 -2 15 -4z"/>
<path fill="#ffffff" stroke="none" d="M130 150 c0 -5 -7 -7 -15 -4 -8 4 -15
8 -15 10 0 2 7 4 15 4 8 0 15 -4 15 -10z"/>
<path fill="#ffffff" stroke="none" d="M225 141 c-3 -6 -11 -11 -16 -11 -5 0
-4 6 3 14 14 16 24 13 13 -3z"/>
<path fill="#ffffff" stroke="none" d="M159 109 c-10 -6 -9 -10 6 -15 40 -15
41 -45 2 -43 -20 1 -20 2 3 8 l25 7 -22 12 c-14 8 -24 9 -28 2 -4 -6 -10 -8
-15 -5 -4 3 -6 -4 -3 -15 4 -14 0 -20 -11 -20 -19 0 -21 21 -4 38 9 9 6 14
-13 21 -14 6 -17 10 -9 10 9 1 21 -4 28 -11 6 -6 15 -8 19 -3 5 4 2 10 -6 13
-10 3 -11 6 -1 12 7 5 20 6 27 3 12 -5 12 -7 2 -14z"/>
<path fill="#ffffff" stroke="none" d="M35 90 c8 0 17 -4 20 -10 4 -6 -2 -7
-17 -1 -13 4 -23 14 -24 22 -1 9 0 10 3 2 3 -7 11 -13 18 -13z"/>
<path fill="#ffffff" stroke="none" d="M225 110 c3 -6 -1 -7 -9 -4 -18 7 -21
14 -7 14 6 0 13 -4 16 -10z"/>
<path fill="#ffffff" stroke="none" d="M280 75 c19 -22 0 -37 -24 -19 -20 14
-20 14 0 14 16 0 17 2 4 10 -8 5 -10 10 -4 10 6 0 17 -7 24 -15z"/>
<path fill="#ffffff" stroke="none" d="M135 20 c3 -5 1 -10 -4 -10 -6 0 -11 5
-11 10 0 6 2 10 4 10 3 0 8 -4 11 -10z"/>
</g>
</svg>
