<?xml version="1.0" standalone="no"?>
<!DOCTYPE svg PUBLIC "-//W3C//DTD SVG 20010904//EN"
 "http://www.w3.org/TR/2001/REC-SVG-20010904/DTD/svg10.dtd">
<svg version="1.0" xmlns="http://www.w3.org/2000/svg"
 width="32.000000pt" height="32.000000pt" viewBox="0 0 32.000000 32.000000"
 preserveAspectRatio="xMidYMid meet">
<metadata>
Created by potrace 1.16, written by Peter Selinger 2001-2019
</metadata>
<g transform="translate(0.000000,32.000000) scale(0.100000,-0.100000)"
fill="#000000" stroke="none">
<path fill="#000000" stroke="none" d="M0 304 c0 -8 3 -13 7 -13 20 3 31 -2
37 -17 5 -14 4 -15 -9 -4 -12 10 -15 10 -15 -1 0 -11 -2 -11 -10 1 -5 8 -10
10 -10 5 0 -6 5 -16 11 -22 8 -8 8 -13 0 -17 -7 -5 -11 -44 -11 -99 0 -63 3
-87 10 -77 6 9 10 10 10 3 0 -6 -5 -15 -10 -18 -6 -3 -10 -16 -10 -28 0 -18 2
-19 10 -7 6 10 10 11 10 3 0 -15 46 -17 55 -3 3 6 11 10 16 10 6 0 7 -5 4 -10
-4 -6 5 -10 21 -10 23 0 25 2 14 15 -9 11 -10 19 -2 27 15 15 34 -1 27 -23 -6
-19 -2 -20 55 -18 34 1 67 8 74 14 8 10 13 9 22 -3 9 -12 11 -2 12 46 1 54 -2
62 -18 62 -10 0 -20 -6 -23 -12 -3 -7 -4 -3 -4 8 1 17 6 21 24 18 18 -3 23 0
23 16 0 18 -2 19 -21 8 -17 -10 -23 -10 -26 0 -3 6 -11 12 -18 12 -12 0 -30
29 -22 37 8 8 37 -10 37 -22 0 -8 5 -17 10 -20 6 -4 9 -1 8 7 -2 7 4 12 13 12
14 -1 17 9 18 57 0 47 -3 59 -15 59 -8 0 -13 4 -10 9 7 11 -67 8 -76 -3 -4 -6
-12 -6 -20 1 -7 5 -55 10 -105 10 -72 0 -93 -3 -93 -13z"/>
<path fill="#ffffff" stroke="none" d="M130 264 c0 -2 -9 0 -19 6 -25 13 -41
13 -41 0 0 -5 9 -10 20 -10 11 0 20 -6 20 -14 0 -8 6 -17 13 -19 9 -4 9 -6 -1
-6 -7 -1 -15 6 -18 14 -4 8 -15 15 -25 15 -20 0 -23 8 -13 34 5 14 9 14 35 0
16 -8 29 -17 29 -20z"/>
<path fill="#ffffff" stroke="none" d="M284 285 c-4 -8 -11 -12 -18 -8 -8 5
-8 3 0 -8 8 -9 8 -21 3 -34 -9 -18 -9 -18 -5 3 3 17 1 22 -10 18 -10 -4 -13 2
-12 19 2 19 8 25 25 25 16 0 21 -4 17 -15z"/>
<path fill="#ffffff" stroke="none" d="M170 270 c0 -11 -4 -20 -9 -20 -14 0
-23 18 -16 30 10 17 25 11 25 -10z"/>
<path fill="#ffffff" stroke="none" d="M304 268 c-1 -13 -3 -26 -3 -30 -1 -5
-5 -8 -11 -8 -5 0 -7 7 -5 15 3 8 7 22 10 30 7 22 12 18 9 -7z"/>
<path fill="#ffffff" stroke="none" d="M205 270 c-3 -5 -12 -10 -18 -10 -7 0
-6 4 3 10 19 12 23 12 15 0z"/>
<path fill="#ffffff" stroke="none" d="M225 230 c0 -10 -8 -14 -22 -13 -17 2
-21 -1 -17 -15 4 -12 3 -14 -3 -4 -6 7 -16 12 -23 10 -7 -2 -15 4 -17 12 -4
12 -3 13 5 1 8 -11 13 -10 28 8 21 24 49 24 49 1z"/>
<path fill="#ffffff" stroke="none" d="M41 209 c-5 -13 -10 -19 -10 -12 -1 15
10 45 15 40 3 -2 0 -15 -5 -28z"/>
<path fill="#ffffff" stroke="none" d="M70 190 c-6 -11 -13 -20 -16 -20 -2 0
0 9 6 20 6 11 13 20 16 20 2 0 0 -9 -6 -20z"/>
<path fill="#ffffff" stroke="none" d="M214 185 c3 -8 1 -15 -4 -15 -6 0 -10
7 -10 15 0 8 2 15 4 15 2 0 6 -7 10 -15z"/>
<path fill="#ffffff" stroke="none" d="M169 181 c7 -5 9 -11 5 -14 -5 -3 -15
1 -22 9 -14 16 -5 18 17 5z"/>
<path fill="#ffffff" stroke="none" d="M100 167 c-8 -7 -14 -19 -14 -27 1 -8
2 -21 3 -29 1 -7 7 -11 16 -7 8 3 15 1 15 -4 0 -16 -30 -11 -36 5 -4 8 -15 15
-25 15 -33 0 -19 33 21 49 33 13 38 13 20 -2z"/>
<path fill="#ffffff" stroke="none" d="M149 125 c0 -5 -4 -3 -9 5 -5 8 -9 22
-9 30 0 16 17 -16 18 -35z"/>
<path fill="#ffffff" stroke="none" d="M245 150 c3 -6 -1 -7 -9 -4 -18 7 -21
14 -7 14 6 0 13 -4 16 -10z"/>
<path fill="#ffffff" stroke="none" d="M114 135 c3 -8 1 -15 -4 -15 -6 0 -10
7 -10 15 0 8 2 15 4 15 2 0 6 -7 10 -15z"/>
<path fill="#ffffff" stroke="none" d="M194 134 c9 -24 2 -26 -12 -4 -7 11 -8
20 -3 20 5 0 12 -7 15 -16z"/>
<path fill="#ffffff" stroke="none" d="M247 114 c6 -16 -15 -37 -28 -28 -4 2
-7 13 -6 24 2 24 25 27 34 4z"/>
<path fill="#ffffff" stroke="none" d="M35 90 c8 0 17 -4 20 -10 4 -6 -2 -7
-17 -1 -13 4 -23 14 -24 22 -1 9 0 10 3 2 3 -7 11 -13 18 -13z"/>
<path fill="#ffffff" stroke="none" d="M160 106 c0 -2 -7 -7 -16 -10 -8 -3
-12 -2 -9 4 6 10 25 14 25 6z"/>
<path fill="#ffffff" stroke="none" d="M190 80 c0 -5 -7 -7 -15 -4 -8 4 -15 8
-15 10 0 2 7 4 15 4 8 0 15 -4 15 -10z"/>
<path fill="#ffffff" stroke="none" d="M277 60 c-1 -22 -12 -26 -22 -10 -9 15
3 43 14 35 5 -3 9 -14 8 -25z"/>
<path fill="#ffffff" stroke="none" d="M124 71 c4 -5 -3 -7 -14 -4 -23 6 -26
13 -6 13 8 0 17 -4 20 -9z"/>
<path fill="#ffffff" stroke="none" d="M170 60 c0 -5 -2 -10 -4 -10 -3 0 -8 5
-11 10 -3 6 -1 10 4 10 6 0 11 -4 11 -10z"/>
<path fill="#ffffff" stroke="none" d="M57 26 c-4 -9 -12 -16 -19 -15 -10 0
-10 2 0 6 6 2 12 12 12 21 0 15 -2 15 -10 2 -5 -8 -10 -10 -10 -4 0 17 13 25
23 15 5 -5 7 -17 4 -25z"/>
<path fill="#ffffff" stroke="none" d="M236 49 c3 -6 -2 -18 -11 -27 -17 -16
-17 -16 -11 2 6 17 5 17 -10 5 -16 -13 -16 -12 -5 9 13 24 26 28 37 11z"/>
</g>
</svg>
