<?xml version="1.0" standalone="no"?>
<!DOCTYPE svg PUBLIC "-//W3C//DTD SVG 20010904//EN"
 "http://www.w3.org/TR/2001/REC-SVG-20010904/DTD/svg10.dtd">
<svg version="1.0" xmlns="http://www.w3.org/2000/svg"
 width="32.000000pt" height="32.000000pt" viewBox="0 0 32.000000 32.000000"
 preserveAspectRatio="xMidYMid meet">
<metadata>
Created by potrace 1.16, written by Peter Selinger 2001-2019
</metadata>
<g transform="translate(0.000000,32.000000) scale(0.100000,-0.100000)"
fill="#000000" stroke="none">
<path fill="#000000" stroke="none" d="M3 155 c-1 -120 1 -154 9 -138 6 13 15
23 20 23 5 0 6 -5 2 -12 -4 -7 -3 -8 4 -4 19 11 14 42 -9 57 -16 11 -19 20
-14 42 4 15 13 27 20 27 7 0 18 12 24 28 10 25 11 25 6 2 -2 -14 -5 -35 -5
-47 0 -16 -6 -23 -20 -23 -11 0 -20 -4 -20 -10 0 -10 25 -18 75 -22 22 -2 30
-8 30 -23 1 -11 5 -26 9 -34 6 -10 4 -12 -12 -7 -11 4 -23 2 -27 -4 -9 -14 38
-13 54 2 11 10 13 10 7 1 -9 -17 30 -18 40 -1 4 7 3 8 -4 4 -7 -4 -12 -2 -12
3 0 6 5 11 10 11 6 0 10 6 10 14 0 9 -9 12 -27 9 -23 -3 -22 -1 7 9 19 8 47
12 62 10 24 -4 26 -7 21 -38 -5 -29 -3 -33 11 -28 9 3 16 11 16 17 0 6 6 2 14
-9 13 -17 14 -15 14 27 l-1 47 -64 0 c-34 0 -63 -4 -63 -9 0 -6 -7 -6 -18 0
-13 7 -22 7 -29 0 -8 -8 -13 -7 -17 0 -4 6 -15 11 -25 11 -22 0 -28 25 -23 98
l4 52 41 2 c43 2 92 2 115 -1 7 0 12 -15 12 -35 0 -19 6 -37 13 -39 9 -4 10
-6 0 -6 -7 -1 -13 -5 -13 -9 0 -4 16 -6 35 -4 19 2 35 8 35 14 0 5 -4 6 -10 3
-5 -3 -10 1 -10 10 0 9 5 13 10 10 6 -3 10 4 10 17 0 18 -2 20 -10 8 -6 -9
-10 -10 -10 -3 0 6 5 15 10 18 14 9 12 64 -3 79 -14 14 -47 17 -47 4 0 -5 7
-11 15 -14 8 -4 15 -10 15 -16 0 -5 -4 -6 -10 -3 -5 3 -10 -1 -10 -9 0 -10 -9
-16 -25 -16 -20 0 -25 5 -25 25 0 14 -5 25 -11 25 -5 0 -8 4 -5 8 3 5 -1 9 -8
9 -8 0 -11 -9 -8 -24 2 -12 9 -20 15 -16 6 3 7 1 3 -5 -4 -7 -20 -12 -36 -12
-28 0 -42 12 -46 38 -4 22 -14 27 -24 12 -7 -11 -10 -11 -10 -2 0 9 -13 12
-43 10 l-44 -3 0 -160z"/>
<path fill="#ffffff" stroke="none" d="M116 288 c-3 -22 -17 -39 -27 -33 -5 4
-9 0 -9 -7 0 -9 -3 -9 -10 2 -8 11 -9 8 -4 -12 5 -24 3 -28 -15 -28 -15 0 -19
-5 -15 -17 5 -15 3 -15 -7 1 -14 23 -20 88 -7 80 5 -3 14 -1 21 4 7 6 26 12
42 15 17 2 31 5 32 6 1 0 0 -5 -1 -11z"/>
<path fill="#ffffff" stroke="none" d="M284 50 c-6 -6 -10 -3 -10 10 0 13 4
16 10 10 7 -7 7 -13 0 -20z"/>
<path fill="#000000" stroke="none" d="M220 310 c0 -5 7 -10 16 -10 8 0 12 5
9 10 -3 6 -10 10 -16 10 -5 0 -9 -4 -9 -10z"/>
<path fill="#000000" stroke="none" d="M250 100 c0 -5 5 -10 10 -10 6 0 10 5
10 10 0 6 -4 10 -10 10 -5 0 -10 -4 -10 -10z"/>
<path fill="#000000" stroke="none" d="M46 11 c-4 -5 3 -7 14 -4 23 6 26 13 6
13 -8 0 -17 -4 -20 -9z"/>
<path fill="#000000" stroke="none" d="M218 3 c7 -3 16 -2 19 1 4 3 -2 6 -13
5 -11 0 -14 -3 -6 -6z"/>
</g>
</svg>
