<?xml version="1.0" standalone="no"?>
<!DOCTYPE svg PUBLIC "-//W3C//DTD SVG 20010904//EN"
 "http://www.w3.org/TR/2001/REC-SVG-20010904/DTD/svg10.dtd">
<svg version="1.0" xmlns="http://www.w3.org/2000/svg"
 width="32.000000pt" height="32.000000pt" viewBox="0 0 32.000000 32.000000"
 preserveAspectRatio="xMidYMid meet">
<metadata>
Created by potrace 1.16, written by Peter Selinger 2001-2019
</metadata>
<g transform="translate(0.000000,32.000000) scale(0.100000,-0.100000)"
fill="#000000" stroke="none">
<path fill="#000000" stroke="none" d="M0 304 c0 -8 4 -13 9 -11 9 2 11 -3 11
-25 0 -9 -4 -8 -10 2 -6 9 -10 10 -10 3 0 -6 5 -15 10 -18 8 -5 8 -11 0 -20
-6 -7 -10 -58 -9 -126 1 -88 4 -109 12 -91 11 25 33 24 31 -1 -1 -12 3 -14 23
-6 31 11 36 11 28 0 -3 -6 16 -10 45 -9 27 0 53 5 57 11 3 6 1 7 -5 3 -7 -4
-12 -2 -12 3 0 17 20 13 27 -5 4 -11 15 -14 42 -10 19 2 37 10 39 16 3 7 9 5
17 -6 10 -15 12 -8 13 44 1 49 -2 62 -16 65 -15 4 -15 5 1 6 10 1 17 9 17 21
0 12 -5 17 -14 14 -7 -3 -16 2 -20 12 -5 13 -2 15 13 11 17 -4 19 1 20 50 0
37 -5 60 -15 71 -14 13 -17 13 -25 1 -5 -8 -9 -9 -9 -4 0 6 -11 11 -25 11 -14
1 -25 -2 -25 -7 0 -5 -5 -9 -11 -9 -5 0 -8 4 -5 8 3 5 -42 8 -100 9 -81 0
-104 -3 -104 -13z"/>
<path fill="#ffffff" stroke="none" d="M128 279 c-3 -8 -7 -3 -11 10 -4 17 -3
21 5 13 5 -5 8 -16 6 -23z"/>
<path fill="#ffffff" stroke="none" d="M198 279 c2 -9 -5 -19 -14 -23 -18 -7
-34 8 -34 32 0 19 44 11 48 -9z"/>
<path fill="#ffffff" stroke="none" d="M90 276 c0 -17 -27 -29 -35 -16 -4 6
-3 15 0 20 9 15 35 12 35 -4z"/>
<path fill="#ffffff" stroke="none" d="M284 274 c24 -9 20 -44 -4 -44 -11 0
-20 4 -20 9 0 5 -3 16 -6 25 -6 17 4 20 30 10z"/>
<path fill="#ffffff" stroke="none" d="M131 225 c11 -4 18 -9 16 -12 -10 -10
-47 18 -46 35 1 16 2 16 6 0 2 -9 13 -20 24 -23z"/>
<path fill="#ffffff" stroke="none" d="M240 228 c0 -21 -23 -24 -39 -5 -13 17
-6 26 20 24 11 -1 19 -9 19 -19z"/>
<path fill="#ffffff" stroke="none" d="M70 220 c0 -5 -7 -10 -15 -10 -8 0 -15
-8 -16 -17 0 -13 -2 -14 -6 -4 -3 8 2 20 13 28 21 16 24 16 24 3z"/>
<path fill="#ffffff" stroke="none" d="M190 197 c0 -7 -4 -6 -10 3 -8 13 -10
12 -10 -3 0 -10 -4 -15 -10 -12 -5 3 -11 -4 -11 -17 -1 -18 -2 -19 -6 -5 -3
10 3 27 12 38 18 19 35 17 35 -4z"/>
<path fill="#ffffff" stroke="none" d="M101 179 c-5 -13 -10 -19 -10 -12 -1
15 10 45 15 40 3 -2 0 -15 -5 -28z"/>
<path fill="#ffffff" stroke="none" d="M222 138 c-14 -14 -47 -6 -48 12 0 8 7
22 15 31 15 15 17 14 29 -8 9 -17 10 -29 4 -35z"/>
<path fill="#ffffff" stroke="none" d="M273 147 c4 -11 3 -16 -3 -12 -6 3 -10
13 -10 21 0 8 -7 14 -15 14 -8 0 -15 7 -15 15 0 13 3 13 18 -2 11 -10 22 -26
25 -36z"/>
<path fill="#ffffff" stroke="none" d="M78 160 c3 -9 -1 -11 -12 -7 -10 4 -15
3 -11 -3 3 -6 1 -10 -4 -10 -12 0 -15 23 -4 34 10 9 26 2 31 -14z"/>
<path fill="#ffffff" stroke="none" d="M154 137 c10 -4 16 -13 13 -21 -3 -8 2
-16 14 -19 19 -5 27 -37 10 -37 -15 0 -40 41 -35 55 3 7 -4 15 -15 18 -12 3
-21 11 -21 19 0 8 3 9 8 2 4 -6 15 -14 26 -17z"/>
<path fill="#ffffff" stroke="none" d="M239 114 c-10 -10 -18 -10 -29 -3 -12
9 -12 10 3 5 14 -4 20 0 25 16 3 14 7 17 10 9 2 -7 -2 -19 -9 -27z"/>
<path fill="#ffffff" stroke="none" d="M105 118 c6 -4 2 -8 -7 -8 -10 0 -18 7
-18 17 0 9 3 12 8 7 4 -5 12 -12 17 -16z"/>
<path fill="#ffffff" stroke="none" d="M35 90 c8 0 17 -4 20 -10 4 -6 -2 -7
-17 -1 -13 4 -23 14 -24 22 -1 9 0 10 3 2 3 -7 11 -13 18 -13z"/>
<path fill="#ffffff" stroke="none" d="M137 80 c-5 -21 11 -53 24 -45 5 3 6
-1 3 -9 -5 -13 -10 -11 -26 9 -23 29 -40 33 -32 8 5 -17 5 -17 -9 -1 -8 10
-18 14 -22 10 -5 -4 -5 -1 -1 6 4 6 14 12 22 12 8 0 14 6 14 13 0 8 4 7 11 -3
9 -12 10 -11 6 8 -3 13 -1 20 5 16 5 -3 8 -14 5 -24z"/>
<path fill="#ffffff" stroke="none" d="M274 93 c4 -9 3 -20 -2 -25 -11 -11
-36 17 -27 32 9 15 22 12 29 -7z"/>
<path fill="#ffffff" stroke="none" d="M280 39 c0 -3 -14 -9 -32 -11 -26 -4
-28 -3 -15 7 18 13 47 16 47 4z"/>
<path fill="#000000" stroke="none" d="M190 170 c-9 -6 -10 -10 -3 -10 6 0 15
5 18 10 8 12 4 12 -15 0z"/>
<path fill="#000000" stroke="none" d="M195 150 c-19 -8 -19 -9 3 -9 12 -1 22
4 22 9 0 6 -1 10 -2 9 -2 0 -12 -4 -23 -9z"/>
</g>
</svg>
