<?xml version="1.0" standalone="no"?>
<!DOCTYPE svg PUBLIC "-//W3C//DTD SVG 20010904//EN"
 "http://www.w3.org/TR/2001/REC-SVG-20010904/DTD/svg10.dtd">
<svg version="1.0" xmlns="http://www.w3.org/2000/svg"
 width="32.000000pt" height="32.000000pt" viewBox="0 0 32.000000 32.000000"
 preserveAspectRatio="xMidYMid meet">
<metadata>
Created by potrace 1.16, written by Peter Selinger 2001-2019
</metadata>
<g transform="translate(0.000000,32.000000) scale(0.100000,-0.100000)"
fill="#000000" stroke="none">
<path fill="#000000" stroke="none" d="M13 288 c3 -12 2 -29 -3 -39 -11 -20 2
-33 41 -43 19 -4 29 -1 33 9 3 8 17 15 31 15 15 0 24 -4 20 -10 -3 -5 -12 -7
-19 -4 -7 3 -17 -3 -20 -13 -4 -10 -2 -19 3 -21 6 -2 11 -10 11 -18 0 -9 9
-14 23 -13 40 4 57 -1 57 -16 0 -7 6 -18 13 -22 6 -4 18 -19 25 -32 11 -19 11
-22 0 -19 -7 2 -17 14 -23 26 -10 24 -22 27 -44 13 -12 -8 -12 -11 0 -24 8 -7
25 -28 38 -45 26 -35 57 -44 47 -14 -5 15 -5 15 8 -1 14 -18 16 -18 40 -2 32
21 32 26 1 53 -28 24 -25 52 3 30 13 -11 15 -10 9 5 -3 9 -2 17 3 17 6 0 10 7
10 15 0 23 -23 18 -44 -9 -10 -15 -24 -22 -33 -19 -10 4 -11 9 -4 16 18 18 13
30 -9 24 -16 -4 -20 -1 -15 11 7 24 -31 48 -51 31 -8 -6 -17 -9 -21 -6 -8 9
17 37 33 37 19 0 18 26 -2 34 -9 3 -25 6 -37 6 -28 1 -61 25 -52 39 9 15 -18
14 -33 -1 -9 -9 -12 -9 -12 0 0 7 -7 12 -16 12 -12 0 -15 -6 -11 -22z"/>
<path fill="#ffffff" stroke="none" d="M68 243 c-6 -7 -14 -10 -19 -7 -15 9
-10 20 10 20 15 0 17 -3 9 -13z"/>
<path fill="#ffffff" stroke="none" d="M280 50 c0 -5 -8 -10 -17 -10 -15 0
-16 2 -3 10 19 12 20 12 20 0z"/>
<path fill="#000000" stroke="none" d="M127 303 c-4 -3 -7 -12 -7 -18 0 -18
80 -16 87 1 3 8 9 14 14 14 6 0 5 -9 -1 -20 -12 -22 -4 -64 10 -55 5 3 7 12 4
19 -3 8 -1 17 5 21 6 3 11 -1 11 -11 0 -16 1 -16 15 2 19 25 19 13 1 -31 -8
-19 -21 -35 -28 -35 -8 0 -7 -5 4 -16 11 -11 23 -14 35 -9 10 5 23 9 28 9 6 1
11 16 13 35 3 24 0 31 -9 25 -9 -5 -10 -2 -6 10 24 63 24 63 -52 64 -48 1 -71
-3 -71 -10 0 -9 -3 -9 -12 0 -13 13 -31 16 -41 5z"/>
<path fill="#ffffff" stroke="none" d="M298 201 c3 -8 -1 -12 -9 -9 -7 2 -15
10 -17 17 -3 8 1 12 9 9 7 -2 15 -10 17 -17z"/>
<path fill="#000000" stroke="none" d="M13 174 c-1 -13 2 -23 6 -22 18 2 31
-3 31 -12 0 -5 -8 -10 -18 -10 -14 0 -19 -8 -19 -32 0 -18 4 -39 10 -45 6 -9
6 -13 -2 -13 -17 0 -13 -30 5 -37 9 -3 25 -1 35 5 10 6 20 8 23 3 6 -9 106
-15 106 -6 0 14 -47 75 -57 75 -18 0 -16 -17 3 -28 9 -5 12 -12 7 -15 -10 -6
-46 30 -51 51 -1 7 9 12 22 12 14 0 28 5 32 12 5 7 2 10 -7 7 -8 -3 -24 5 -36
18 -12 13 -20 23 -16 23 18 0 -22 29 -46 32 -24 4 -28 1 -28 -18z"/>
<path fill="#ffffff" stroke="none" d="M65 82 c-11 -2 -26 -9 -32 -14 -9 -7
-13 -7 -13 1 0 14 41 31 55 23 6 -4 1 -8 -10 -10z"/>
<path fill="#ffffff" stroke="none" d="M85 50 c-3 -5 -11 -10 -16 -10 -6 0 -7
5 -4 10 3 6 11 10 16 10 6 0 7 -4 4 -10z"/>
</g>
</svg>
