<?xml version="1.0" standalone="no"?>
<!DOCTYPE svg PUBLIC "-//W3C//DTD SVG 20010904//EN"
 "http://www.w3.org/TR/2001/REC-SVG-20010904/DTD/svg10.dtd">
<svg version="1.0" xmlns="http://www.w3.org/2000/svg"
 width="32.000000pt" height="32.000000pt" viewBox="0 0 32.000000 32.000000"
 preserveAspectRatio="xMidYMid meet">
<metadata>
Created by potrace 1.16, written by Peter Selinger 2001-2019
</metadata>
<g transform="translate(0.000000,32.000000) scale(0.100000,-0.100000)"
fill="#000000" stroke="none">
<path fill="#000000" stroke="none" d="M0 162 l0 -157 60 -1 c50 -1 59 1 49
12 -6 8 -19 14 -28 14 -14 0 -14 -2 -1 -10 12 -7 10 -9 -7 -8 -20 2 -22 28 -1
28 5 0 6 5 3 11 -4 6 -13 8 -21 5 -8 -3 -13 0 -11 7 1 7 -5 12 -13 11 -20 -1
-23 31 -5 46 9 8 20 8 31 2 11 -6 13 -11 5 -16 -6 -4 -11 -14 -11 -23 0 -11 6
-8 20 10 17 21 27 25 59 23 33 -3 40 0 45 18 3 11 2 23 -3 26 -4 3 -10 13 -14
23 -4 11 -12 15 -18 11 -8 -4 -9 -3 -5 5 4 6 11 9 15 7 4 -3 8 1 8 8 0 9 -7
12 -16 9 -10 -4 -9 0 4 10 19 15 19 16 1 36 -11 12 -14 21 -8 21 7 0 12 -5 12
-11 0 -8 5 -8 15 1 8 7 13 15 11 19 -3 4 7 8 22 9 l27 2 -24 -13 c-14 -6 -26
-17 -28 -24 -6 -17 32 -5 52 17 16 17 17 17 42 -6 32 -29 47 -27 51 9 l3 27
-160 0 -161 0 0 -158z"/>
<path fill="#ffffff" stroke="none" d="M80 293 c0 -11 -3 -14 -8 -7 -10 14
-54 13 -48 -2 2 -6 0 -17 -5 -25 -5 -9 -7 -4 -5 16 2 17 4 31 5 33 0 1 15 2
31 2 22 0 30 -5 30 -17z"/>
<path fill="#ffffff" stroke="none" d="M138 296 c-16 -8 -31 -17 -36 -20 -4
-2 -8 3 -8 13 0 13 10 18 36 19 l35 2 -27 -14z"/>
<path fill="#ffffff" stroke="none" d="M307 304 c-3 -3 -12 -4 -19 -1 -8 3 -5
6 6 6 11 1 17 -2 13 -5z"/>
<path fill="#ffffff" stroke="none" d="M83 258 c3 -10 7 -10 20 1 10 7 17 9
17 3 0 -5 -8 -13 -17 -16 -15 -6 -15 -8 -3 -16 12 -7 12 -12 2 -22 -18 -18
-15 -32 5 -17 9 8 14 9 10 2 -4 -6 -2 -14 3 -16 6 -3 5 -4 -2 -3 -7 1 -17 -6
-23 -17 -5 -11 -17 -22 -25 -25 -9 -3 -8 1 4 10 10 8 16 20 12 26 -11 19 -29
14 -21 -5 5 -15 4 -16 -7 -5 -10 10 -7 17 16 35 l28 22 -21 19 c-12 11 -21 23
-21 28 0 13 18 9 23 -4z"/>
<path fill="#ffffff" stroke="none" d="M31 223 c13 -16 12 -17 -3 -4 -17 13
-22 21 -14 21 2 0 10 -8 17 -17z"/>
<path fill="#ffffff" stroke="none" d="M68 205 c-3 -3 -9 2 -12 12 -6 14 -5
15 5 6 7 -7 10 -15 7 -18z"/>
<path fill="#ffffff" stroke="none" d="M25 170 c2 -17 0 -32 -4 -34 -4 -3 -7
13 -7 35 -1 45 8 44 11 -1z"/>
<path fill="#000000" stroke="none" d="M232 267 c-7 -8 -8 -18 -4 -22 4 -5 2
-5 -5 -2 -6 4 -14 1 -16 -5 -3 -7 -6 -4 -6 7 -1 31 -26 0 -26 -33 0 -30 45
-76 53 -54 2 7 10 12 17 12 20 0 29 20 27 55 -3 40 -24 62 -40 42z"/>
<path fill="#ffffff" stroke="none" d="M253 196 c4 -10 1 -13 -8 -9 -8 3 -12
9 -9 14 7 12 11 11 17 -5z"/>
<path fill="#000000" stroke="none" d="M305 240 c-4 -6 -10 -8 -13 -6 -4 2 -7
-16 -7 -41 0 -36 4 -47 18 -49 15 -2 17 5 16 52 -2 56 -4 61 -14 44z"/>
<path fill="#000000" stroke="none" d="M183 126 c3 -7 0 -19 -6 -26 -9 -10 -8
-12 6 -7 15 6 16 2 11 -21 -4 -15 -11 -32 -15 -38 -5 -6 -5 -15 -1 -19 4 -5 1
-5 -5 -1 -7 4 -13 2 -13 -3 0 -15 55 -14 67 2 6 6 13 23 16 37 6 24 5 24 -18
-5 -14 -17 -25 -27 -25 -22 0 10 23 51 34 58 12 9 0 39 -15 39 -8 0 -7 -6 2
-17 13 -16 12 -17 -3 -5 -9 8 -14 20 -11 28 3 9 -1 14 -12 14 -10 0 -15 -5
-12 -14z"/>
<path fill="#000000" stroke="none" d="M253 115 c2 -11 9 -19 15 -17 15 3 16
-14 2 -23 -6 -4 -8 -11 -5 -16 4 -5 1 -9 -4 -9 -6 0 -11 -5 -11 -11 0 -6 7 -9
15 -5 9 3 15 0 15 -9 0 -7 -8 -16 -17 -18 -10 -3 -1 -5 20 -6 31 -1 37 2 37
20 0 18 -2 19 -15 9 -12 -10 -15 -10 -15 3 0 9 5 19 11 23 8 4 7 9 -2 15 -11
7 -10 9 4 9 19 0 24 35 5 46 -8 5 -9 1 -5 -12 7 -18 6 -18 -7 -1 -14 18 -32
24 -21 7 3 -5 2 -10 -4 -10 -5 0 -12 6 -15 13 -3 6 -4 3 -3 -8z"/>
<path fill="#000000" stroke="none" d="M25 109 c-4 -6 -5 -13 -2 -16 7 -7 27
6 27 18 0 12 -17 12 -25 -2z"/>
<path fill="#000000" stroke="none" d="M120 101 c0 -5 -8 -8 -17 -7 -10 0 -18
-6 -18 -14 0 -8 6 -14 14 -12 12 3 12 0 1 -12 -11 -15 -7 -20 13 -17 4 0 7 -3
7 -8 0 -4 11 -6 24 -4 31 6 40 39 15 56 -10 8 -16 17 -12 20 3 4 -1 7 -10 7
-9 0 -17 -4 -17 -9z"/>
</g>
</svg>
