<?xml version="1.0" standalone="no"?>
<!DOCTYPE svg PUBLIC "-//W3C//DTD SVG 20010904//EN"
 "http://www.w3.org/TR/2001/REC-SVG-20010904/DTD/svg10.dtd">
<svg version="1.0" xmlns="http://www.w3.org/2000/svg"
 width="32.000000pt" height="32.000000pt" viewBox="0 0 32.000000 32.000000"
 preserveAspectRatio="xMidYMid meet">
<metadata>
Created by potrace 1.16, written by Peter Selinger 2001-2019
</metadata>
<g transform="translate(0.000000,32.000000) scale(0.100000,-0.100000)"
fill="#000000" stroke="none">
<path fill="#000000" stroke="none" d="M170 303 c0 -50 -14 -73 -45 -73 -55 0
-72 23 -30 42 13 6 22 15 18 21 -3 6 -2 8 3 5 5 -3 18 -2 29 3 12 4 -9 7 -55
6 -70 -2 -75 -4 -77 -24 -2 -13 -4 -33 -6 -45 -2 -13 -1 -27 1 -32 8 -16 10
-66 2 -61 -3 2 -7 -2 -7 -10 0 -8 4 -16 9 -16 11 -2 27 -6 33 -9 3 -1 15 -3
27 -3 20 -1 22 3 23 47 0 36 5 50 19 58 25 14 66 -5 66 -31 0 -33 11 -50 28
-44 15 4 15 3 2 -6 -13 -9 -12 -13 4 -28 19 -17 19 -17 5 1 -12 17 -12 19 1
14 23 -7 25 -38 2 -38 -18 0 -52 -29 -52 -44 0 -5 7 -6 15 -2 8 3 15 1 15 -5
0 -6 5 -7 11 -3 8 4 7 9 -2 15 -11 6 -11 11 -1 21 9 9 12 9 12 -1 0 -11 3 -11
14 -2 12 10 13 8 9 -11 -3 -13 -10 -29 -16 -35 -10 -14 -3 -16 31 -7 12 4 22
14 23 23 0 11 2 12 6 3 4 -10 8 -10 19 -1 21 18 18 49 -6 49 -11 0 -20 4 -20
10 0 5 -6 9 -12 7 -7 -1 -14 8 -16 21 -4 28 11 28 38 0 18 -20 20 -20 14 -4
-5 14 -4 17 4 12 23 -14 12 6 -18 34 -30 28 -39 50 -19 50 5 0 8 -4 5 -8 -2
-4 5 -14 17 -21 18 -11 20 -11 10 0 -15 15 -17 33 -4 25 5 -3 12 1 15 9 5 13
2 14 -16 4 -18 -10 -20 -9 -15 6 4 9 7 18 7 21 0 2 7 1 15 -2 9 -4 15 0 15 10
0 9 -5 16 -11 16 -8 0 -8 5 1 15 10 12 9 16 -3 21 -9 3 -24 4 -34 1 -11 -3 -6
-5 12 -6 26 -1 28 -3 12 -12 -23 -13 -47 -5 -47 16 0 10 -5 13 -12 8 -18 -11
-52 -10 -60 2 -4 6 -8 0 -8 -12z"/>
<path fill="#ffffff" stroke="none" d="M94 288 c-3 -4 -12 -8 -20 -8 -8 0 -14
-4 -14 -10 0 -5 -10 -10 -22 -10 -19 0 -20 2 -8 10 10 6 11 10 3 10 -7 0 -13
3 -13 8 0 4 18 8 40 8 21 1 37 -3 34 -8z"/>
<path fill="#ffffff" stroke="none" d="M205 290 c-3 -5 -12 -10 -18 -10 -7 0
-6 4 3 10 19 12 23 12 15 0z"/>
<path fill="#ffffff" stroke="none" d="M280 250 c0 -5 -10 -16 -22 -24 -12 -9
-18 -16 -13 -16 5 0 4 -5 -1 -10 -10 -10 -74 14 -74 28 0 13 15 28 33 35 16 6
25 -7 10 -16 -5 -2 -3 -2 4 -1 6 2 14 0 16 -4 2 -4 2 -1 0 6 -5 23 7 33 28 22
10 -6 19 -15 19 -20z"/>
<path fill="#ffffff" stroke="none" d="M40 240 c0 -5 -7 -7 -15 -4 -8 4 -15 8
-15 10 0 2 7 4 15 4 8 0 15 -4 15 -10z"/>
<path fill="#ffffff" stroke="none" d="M35 210 c3 -6 -1 -7 -9 -4 -18 7 -21
14 -7 14 6 0 13 -4 16 -10z"/>
<path fill="#ffffff" stroke="none" d="M42 165 c3 -14 0 -28 -6 -32 -6 -3 -8
-3 -4 2 4 4 3 14 -3 21 -6 7 -8 18 -4 24 9 15 12 13 17 -15z"/>
<path fill="#000000" stroke="none" d="M130 286 c0 -2 7 -9 15 -16 13 -11 14
-10 9 4 -5 14 -24 23 -24 12z"/>
<path fill="#000000" stroke="none" d="M100 255 c-11 -13 -10 -14 4 -9 9 3 16
10 16 15 0 13 -6 11 -20 -6z"/>
<path fill="#000000" stroke="none" d="M136 202 c-3 -5 1 -9 9 -9 8 0 12 4 9
9 -3 4 -7 8 -9 8 -2 0 -6 -4 -9 -8z"/>
<path fill="#000000" stroke="none" d="M105 191 c-6 -11 13 -26 22 -17 4 3 1
6 -6 6 -7 0 -9 5 -6 10 3 6 4 10 1 10 -3 0 -7 -4 -11 -9z"/>
<path fill="#000000" stroke="none" d="M166 125 c-4 -11 -13 -15 -26 -12 -22
6 -58 -22 -43 -32 5 -3 1 -14 -8 -23 -16 -15 -18 -14 -34 17 -15 33 -17 34
-34 17 -18 -17 -21 -35 -8 -48 3 -4 2 -15 -4 -25 -8 -16 -6 -19 12 -19 11 0
32 9 46 20 14 11 29 20 34 20 4 0 11 -9 14 -20 4 -12 15 -20 28 -20 20 1 21 2
5 14 -26 20 -22 32 17 51 30 13 35 20 29 38 -9 32 -20 41 -28 22z"/>
<path fill="#ffffff" stroke="none" d="M144 85 c3 -9 0 -15 -9 -15 -9 0 -12 6
-9 15 4 8 7 15 9 15 2 0 5 -7 9 -15z"/>
<path fill="#ffffff" stroke="none" d="M190 95 c0 -7 -30 -13 -34 -7 -3 4 4 9
15 9 10 1 19 0 19 -2z"/>
<path fill="#ffffff" stroke="none" d="M31 57 c-10 -9 -11 -8 -5 6 3 10 9 15
12 12 3 -3 0 -11 -7 -18z"/>
<path fill="#ffffff" stroke="none" d="M47 25 c0 -8 -4 -12 -9 -9 -5 3 -6 10
-3 15 9 13 12 11 12 -6z"/>
<path fill="#000000" stroke="none" d="M260 120 c0 -5 5 -10 11 -10 5 0 7 5 4
10 -3 6 -8 10 -11 10 -2 0 -4 -4 -4 -10z"/>
<path fill="#000000" stroke="none" d="M65 90 c-3 -5 -1 -10 4 -10 6 0 11 5
11 10 0 6 -2 10 -4 10 -3 0 -8 -4 -11 -10z"/>
</g>
</svg>
