<?xml version="1.0" standalone="no"?>
<!DOCTYPE svg PUBLIC "-//W3C//DTD SVG 20010904//EN"
 "http://www.w3.org/TR/2001/REC-SVG-20010904/DTD/svg10.dtd">
<svg version="1.0" xmlns="http://www.w3.org/2000/svg"
 width="32.000000pt" height="32.000000pt" viewBox="0 0 32.000000 32.000000"
 preserveAspectRatio="xMidYMid meet">
<metadata>
Created by potrace 1.16, written by Peter Selinger 2001-2019
</metadata>
<g transform="translate(0.000000,32.000000) scale(0.100000,-0.100000)"
fill="#000000" stroke="none">
<path fill="#000000" stroke="none" d="M224 290 c-11 -12 -30 -22 -42 -23 -19
-1 -22 -7 -22 -50 0 -27 6 -54 13 -60 54 -50 102 -44 111 13 3 21 3 47 -1 57
-3 10 -3 15 2 11 9 -8 35 9 35 23 0 5 -7 6 -15 3 -16 -6 -68 29 -58 40 3 3 4
6 2 6 -3 0 -14 -9 -25 -20z"/>
<path fill="#ffffff" stroke="none" d="M272 225 c2 -35 -7 -55 -27 -55 -7 0
-15 -5 -17 -12 -8 -22 -53 24 -53 54 0 33 25 64 26 33 0 -11 3 -14 6 -7 2 6
10 9 16 5 7 -3 9 -3 5 2 -4 4 -3 14 4 22 16 20 37 -2 40 -42z"/>
<path fill="#000000" stroke="none" d="M236 201 c-3 -5 1 -11 9 -14 9 -4 12
-1 8 9 -6 16 -10 17 -17 5z"/>
<path fill="#000000" stroke="none" d="M75 180 c3 -5 8 -10 11 -10 2 0 4 5 4
10 0 6 -5 10 -11 10 -5 0 -7 -4 -4 -10z"/>
<path fill="#000000" stroke="none" d="M94 110 c-26 -10 -38 -38 -24 -55 6 -8
6 -15 -2 -23 -8 -8 -6 -9 9 -6 12 3 24 1 27 -5 11 -17 51 -13 68 7 8 9 18 31
22 47 4 19 3 25 -2 16 -10 -14 -28 2 -19 17 7 10 -54 12 -79 2z"/>
<path fill="#ffffff" stroke="none" d="M147 103 c-4 -3 2 -12 12 -20 25 -17
16 -50 -15 -56 -13 -2 -24 0 -24 4 0 5 -3 8 -7 8 -20 -3 -24 2 -13 17 11 12
11 15 -1 12 -8 -2 -14 4 -14 12 0 8 8 14 18 14 9 -1 17 2 17 7 0 5 8 9 17 9 9
0 13 -3 10 -7z"/>
<path fill="#000000" stroke="none" d="M237 79 c-4 -16 -3 -18 9 -8 7 6 11 15
8 20 -8 13 -11 11 -17 -12z"/>
</g>
</svg>
