<?xml version="1.0" standalone="no"?>
<!DOCTYPE svg PUBLIC "-//W3C//DTD SVG 20010904//EN"
 "http://www.w3.org/TR/2001/REC-SVG-20010904/DTD/svg10.dtd">
<svg version="1.0" xmlns="http://www.w3.org/2000/svg"
 width="32.000000pt" height="32.000000pt" viewBox="0 0 32.000000 32.000000"
 preserveAspectRatio="xMidYMid meet">
<metadata>
Created by potrace 1.16, written by Peter Selinger 2001-2019
</metadata>
<g transform="translate(0.000000,32.000000) scale(0.100000,-0.100000)"
fill="#000000" stroke="none">
<path fill="#000000" stroke="none" d="M190 295 c0 -5 5 -17 10 -25 5 -8 10
-10 10 -5 0 6 -5 17 -10 25 -5 8 -10 11 -10 5z"/>
<path fill="#000000" stroke="none" d="M96 277 c3 -10 9 -15 12 -12 3 3 0 11
-7 18 -10 9 -11 8 -5 -6z"/>
<path fill="#000000" stroke="none" d="M229 288 c-10 -32 2 -61 15 -39 4 5 2
12 -4 16 -6 4 -8 11 -5 16 4 5 4 9 1 9 -3 0 -6 -1 -7 -2z"/>
<path fill="#000000" stroke="none" d="M66 248 c3 -4 9 -8 15 -8 5 0 9 4 9 8
0 5 -7 9 -15 9 -8 0 -12 -4 -9 -9z"/>
<path fill="#000000" stroke="none" d="M277 128 c2 -5 10 -8 18 -8 8 0 16 3
18 8 3 4 -5 7 -18 7 -13 0 -21 -3 -18 -7z"/>
<path fill="#000000" stroke="none" d="M10 98 c0 -4 4 -8 9 -8 6 0 12 4 15 8
3 5 -1 9 -9 9 -8 0 -15 -4 -15 -9z"/>
<path fill="#000000" stroke="none" d="M145 100 c3 -5 8 -10 11 -10 2 0 4 5 4
10 0 6 -5 10 -11 10 -5 0 -7 -4 -4 -10z"/>
</g>
</svg>
