<?xml version="1.0" standalone="no"?>
<!DOCTYPE svg PUBLIC "-//W3C//DTD SVG 20010904//EN"
 "http://www.w3.org/TR/2001/REC-SVG-20010904/DTD/svg10.dtd">
<svg version="1.0" xmlns="http://www.w3.org/2000/svg"
 width="32.000000pt" height="32.000000pt" viewBox="0 0 32.000000 32.000000"
 preserveAspectRatio="xMidYMid meet">
<metadata>
Created by potrace 1.16, written by Peter Selinger 2001-2019
</metadata>
<g transform="translate(0.000000,32.000000) scale(0.100000,-0.100000)"
fill="#000000" stroke="none">
<path fill="#000000" stroke="none" d="M0 160 l0 -160 160 0 160 0 0 69 c0 66
-1 69 -22 63 -14 -3 -19 -2 -14 6 4 7 13 12 20 12 9 0 13 24 14 84 l2 85 -160
0 -160 1 0 -160z"/>
<path fill="#ffffff" stroke="none" d="M30 300 c0 -5 -5 -10 -11 -10 -5 0 -7
5 -4 10 3 6 8 10 11 10 2 0 4 -4 4 -10z"/>
<path fill="#ffffff" stroke="none" d="M70 300 c0 -5 -5 -10 -11 -10 -5 0 -7
5 -4 10 3 6 8 10 11 10 2 0 4 -4 4 -10z"/>
<path fill="#ffffff" stroke="none" d="M110 300 c0 -5 -5 -10 -11 -10 -5 0 -7
5 -4 10 3 6 8 10 11 10 2 0 4 -4 4 -10z"/>
<path fill="#ffffff" stroke="none" d="M150 300 c0 -5 -5 -10 -11 -10 -5 0 -7
5 -4 10 3 6 8 10 11 10 2 0 4 -4 4 -10z"/>
<path fill="#ffffff" stroke="none" d="M182 288 c-7 -7 -12 -8 -12 -2 0 6 3
14 7 17 3 4 9 5 12 2 2 -3 -1 -11 -7 -17z"/>
<path fill="#ffffff" stroke="none" d="M277 290 c6 -8 9 -19 5 -24 -3 -5 2 -7
11 -3 10 3 17 2 17 -3 0 -5 -11 -9 -25 -8 -25 2 -36 18 -13 18 9 0 9 3 1 11
-6 6 -23 12 -37 12 -14 0 -26 4 -26 9 0 14 54 5 67 -12z"/>
<path fill="#ffffff" stroke="none" d="M310 300 c0 -5 -5 -10 -11 -10 -5 0 -7
5 -4 10 3 6 8 10 11 10 2 0 4 -4 4 -10z"/>
<path fill="#ffffff" stroke="none" d="M197 247 c4 -6 -5 -4 -20 6 -15 9 -27
13 -27 7 0 -5 -5 -10 -11 -10 -8 0 -8 4 1 15 13 16 42 7 57 -18z"/>
<path fill="#ffffff" stroke="none" d="M22 248 c-7 -7 -12 -8 -12 -2 0 14 12
26 19 19 2 -3 -1 -11 -7 -17z"/>
<path fill="#ffffff" stroke="none" d="M70 260 c0 -5 -5 -10 -11 -10 -5 0 -7
5 -4 10 3 6 8 10 11 10 2 0 4 -4 4 -10z"/>
<path fill="#ffffff" stroke="none" d="M110 260 c0 -5 -5 -10 -11 -10 -5 0 -7
5 -4 10 3 6 8 10 11 10 2 0 4 -4 4 -10z"/>
<path fill="#ffffff" stroke="none" d="M233 256 c4 -10 1 -13 -8 -9 -8 3 -12
9 -9 14 7 12 11 11 17 -5z"/>
<path fill="#ffffff" stroke="none" d="M70 226 c0 -8 -7 -16 -15 -20 -12 -4
-13 -2 -2 14 14 24 17 25 17 6z"/>
<path fill="#ffffff" stroke="none" d="M227 214 c-9 -9 -28 6 -21 18 4 6 10 6
17 -1 6 -6 8 -13 4 -17z"/>
<path fill="#ffffff" stroke="none" d="M271 218 c-5 -13 -5 -32 -1 -43 8 -23
2 -45 -12 -45 -6 0 -6 6 1 14 7 8 8 17 3 20 -7 4 -8 27 -3 69 1 4 5 7 11 7 6
0 6 -9 1 -22z"/>
<path fill="#ffffff" stroke="none" d="M35 220 c-3 -5 -10 -10 -16 -10 -5 0
-9 5 -9 10 0 6 7 10 16 10 8 0 12 -4 9 -10z"/>
<path fill="#ffffff" stroke="none" d="M110 220 c0 -5 -5 -10 -11 -10 -5 0 -7
5 -4 10 3 6 8 10 11 10 2 0 4 -4 4 -10z"/>
<path fill="#ffffff" stroke="none" d="M150 220 c0 -5 -5 -10 -11 -10 -5 0 -7
5 -4 10 3 6 8 10 11 10 2 0 4 -4 4 -10z"/>
<path fill="#ffffff" stroke="none" d="M190 220 c0 -5 -5 -10 -11 -10 -5 0 -7
5 -4 10 3 6 8 10 11 10 2 0 4 -4 4 -10z"/>
<path fill="#ffffff" stroke="none" d="M190 179 c0 -5 -4 -9 -10 -9 -5 0 -10
5 -10 12 0 9 -3 9 -12 0 -7 -7 -17 -12 -22 -12 -6 0 -3 7 7 15 19 14 47 10 47
-6z"/>
<path fill="#ffffff" stroke="none" d="M30 180 c0 -5 -5 -10 -11 -10 -5 0 -7
5 -4 10 3 6 8 10 11 10 2 0 4 -4 4 -10z"/>
<path fill="#ffffff" stroke="none" d="M70 180 c0 -5 -5 -10 -11 -10 -5 0 -7
5 -4 10 3 6 8 10 11 10 2 0 4 -4 4 -10z"/>
<path fill="#ffffff" stroke="none" d="M110 180 c0 -5 -5 -10 -11 -10 -5 0 -7
5 -4 10 3 6 8 10 11 10 2 0 4 -4 4 -10z"/>
<path fill="#ffffff" stroke="none" d="M228 158 c0 -19 -4 -28 -15 -28 -12 0
-13 3 -4 14 8 10 9 16 1 21 -14 9 -13 22 4 22 8 0 13 -12 14 -29z"/>
<path fill="#ffffff" stroke="none" d="M310 180 c0 -5 -5 -10 -11 -10 -5 0 -7
5 -4 10 3 6 8 10 11 10 2 0 4 -4 4 -10z"/>
<path fill="#ffffff" stroke="none" d="M154 139 c-8 -13 10 -11 24 3 8 8 12 8
12 1 0 -15 -26 -24 -47 -16 -16 6 -16 5 -4 -11 11 -13 11 -20 3 -28 -9 -9 -12
-7 -12 11 0 13 -4 20 -11 16 -6 -4 -8 -12 -6 -19 4 -9 -7 -11 -33 -9 -31 2
-40 -1 -45 -17 -4 -11 -11 -20 -17 -20 -6 0 -5 6 3 16 10 13 10 17 0 24 -9 5
-10 10 -2 14 6 4 11 2 11 -4 0 -7 6 -8 19 0 14 7 20 7 23 -1 2 -7 17 0 36 16
18 15 30 31 27 36 -4 5 1 6 9 3 9 -3 13 -10 10 -15z"/>
<path fill="#ffffff" stroke="none" d="M30 140 c0 -5 -5 -10 -11 -10 -5 0 -7
5 -4 10 3 6 8 10 11 10 2 0 4 -4 4 -10z"/>
<path fill="#ffffff" stroke="none" d="M70 140 c0 -5 -5 -10 -11 -10 -5 0 -7
5 -4 10 3 6 8 10 11 10 2 0 4 -4 4 -10z"/>
<path fill="#ffffff" stroke="none" d="M110 140 c0 -5 -5 -10 -11 -10 -5 0 -7
5 -4 10 3 6 8 10 11 10 2 0 4 -4 4 -10z"/>
<path fill="#ffffff" stroke="none" d="M190 100 c0 -5 -5 -10 -11 -10 -5 0 -7
5 -4 10 3 6 8 10 11 10 2 0 4 -4 4 -10z"/>
<path fill="#ffffff" stroke="none" d="M206 75 c-38 -35 -46 -31 -11 5 16 16
31 28 33 25 3 -3 -7 -16 -22 -30z"/>
<path fill="#ffffff" stroke="none" d="M270 100 c0 -5 -5 -10 -11 -10 -5 0 -7
5 -4 10 3 6 8 10 11 10 2 0 4 -4 4 -10z"/>
<path fill="#ffffff" stroke="none" d="M310 100 c0 -5 -5 -10 -11 -10 -5 0 -7
5 -4 10 3 6 8 10 11 10 2 0 4 -4 4 -10z"/>
<path fill="#ffffff" stroke="none" d="M154 66 c-3 -8 -13 -17 -22 -21 -13 -5
-13 -2 3 15 21 24 26 25 19 6z"/>
<path fill="#ffffff" stroke="none" d="M244 68 c-5 -7 -9 -21 -9 -30 -2 -22
-13 -34 -22 -24 -4 4 -1 11 7 17 13 7 13 10 1 18 -11 7 -10 11 5 20 25 14 27
14 18 -1z"/>
<path fill="#ffffff" stroke="none" d="M70 61 c0 -5 -7 -12 -16 -15 -14 -5
-15 -4 -4 9 14 17 20 19 20 6z"/>
<path fill="#ffffff" stroke="none" d="M110 55 c-7 -9 -15 -13 -17 -11 -7 7 7
26 19 26 6 0 6 -6 -2 -15z"/>
<path fill="#ffffff" stroke="none" d="M270 60 c0 -5 -5 -10 -11 -10 -5 0 -7
5 -4 10 3 6 8 10 11 10 2 0 4 -4 4 -10z"/>
<path fill="#ffffff" stroke="none" d="M310 60 c0 -5 -5 -10 -11 -10 -5 0 -7
5 -4 10 3 6 8 10 11 10 2 0 4 -4 4 -10z"/>
<path fill="#ffffff" stroke="none" d="M194 19 c-8 -14 -21 -11 -21 5 0 8 6
12 14 9 7 -3 10 -9 7 -14z"/>
<path fill="#ffffff" stroke="none" d="M30 20 c0 -5 -5 -10 -11 -10 -5 0 -7 5
-4 10 3 6 8 10 11 10 2 0 4 -4 4 -10z"/>
<path fill="#ffffff" stroke="none" d="M70 20 c0 -5 -5 -10 -11 -10 -5 0 -7 5
-4 10 3 6 8 10 11 10 2 0 4 -4 4 -10z"/>
<path fill="#ffffff" stroke="none" d="M110 20 c0 -5 -7 -10 -16 -10 -8 0 -12
5 -9 10 3 6 10 10 16 10 5 0 9 -4 9 -10z"/>
<path fill="#ffffff" stroke="none" d="M150 20 c0 -5 -5 -10 -11 -10 -5 0 -7
5 -4 10 3 6 8 10 11 10 2 0 4 -4 4 -10z"/>
<path fill="#ffffff" stroke="none" d="M270 20 c0 -5 -5 -10 -11 -10 -5 0 -7
5 -4 10 3 6 8 10 11 10 2 0 4 -4 4 -10z"/>
<path fill="#ffffff" stroke="none" d="M310 20 c0 -5 -5 -10 -11 -10 -5 0 -7
5 -4 10 3 6 8 10 11 10 2 0 4 -4 4 -10z"/>
</g>
</svg>
