<?xml version="1.0" standalone="no"?>
<!DOCTYPE svg PUBLIC "-//W3C//DTD SVG 20010904//EN"
 "http://www.w3.org/TR/2001/REC-SVG-20010904/DTD/svg10.dtd">
<svg version="1.0" xmlns="http://www.w3.org/2000/svg"
 width="32.000000pt" height="32.000000pt" viewBox="0 0 32.000000 32.000000"
 preserveAspectRatio="xMidYMid meet">
<metadata>
Created by potrace 1.16, written by Peter Selinger 2001-2019
</metadata>
<g transform="translate(0.000000,32.000000) scale(0.100000,-0.100000)"
fill="#000000" stroke="none">
<path fill="#000000" stroke="none" d="M17 312 c-15 -3 -18 -12 -15 -50 3 -40
7 -49 32 -61 16 -8 23 -17 17 -19 -7 -2 -18 1 -24 7 -23 23 -27 8 -26 -89 1
-83 4 -100 16 -100 12 0 13 3 4 14 -9 10 -8 15 4 20 13 5 20 -5 16 -26 0 -5
27 -8 62 -8 36 0 57 4 49 8 -10 7 -6 13 13 28 14 10 25 24 25 31 0 7 5 13 10
13 6 0 10 -6 8 -14 -2 -8 6 -22 17 -31 19 -15 19 -15 -9 -9 -19 5 -27 3 -22
-4 3 -6 0 -13 -6 -16 -7 -3 20 -4 60 -3 62 1 72 4 72 19 0 10 -5 18 -11 18 -5
0 -8 -4 -5 -8 3 -5 -1 -9 -9 -9 -13 0 -13 3 1 18 9 10 13 23 9 28 -3 6 -1 11
4 11 6 0 11 22 11 51 0 47 -1 50 -22 43 l-21 -6 21 27 c16 20 22 42 22 76 0
27 -4 49 -10 49 -5 0 -8 -10 -6 -22 1 -12 -3 -28 -10 -35 -18 -19 -26 -16 -15
5 16 30 -5 52 -51 52 -34 0 -39 -2 -28 -14 9 -12 8 -15 -8 -13 -12 1 -18 6
-15 15 5 11 -9 13 -68 11 -41 -2 -82 -5 -92 -7z"/>
<path fill="#ffffff" stroke="none" d="M55 290 c10 -11 13 -20 7 -20 -6 0 -16
9 -22 20 -6 11 -9 20 -7 20 2 0 12 -9 22 -20z"/>
<path fill="#ffffff" stroke="none" d="M152 285 c-4 -21 0 -25 19 -26 17 -1
19 -3 7 -6 -21 -5 -24 -19 -5 -26 6 -2 9 -7 6 -11 -7 -8 -35 17 -41 36 -4 10
-10 10 -33 0 -15 -7 -30 -10 -33 -7 -4 3 4 8 17 12 13 3 20 11 17 19 -3 8 0
13 7 11 7 -1 11 4 10 11 -2 6 5 12 16 12 14 0 17 -6 13 -25z"/>
<path fill="#ffffff" stroke="none" d="M250 289 c0 -5 5 -7 11 -3 8 4 8 0 0
-15 -7 -11 -9 -21 -5 -21 3 0 1 -7 -6 -15 -7 -8 -16 -12 -21 -9 -5 3 -9 -3 -9
-12 0 -10 3 -15 6 -11 3 3 12 0 19 -6 9 -9 10 -18 2 -35 -14 -30 8 -57 24 -30
6 11 16 15 26 11 13 -5 12 -8 -8 -16 -14 -5 -19 -11 -11 -14 6 -3 12 -12 12
-21 0 -15 -2 -15 -10 -2 -5 8 -10 11 -10 7 0 -4 -9 -3 -19 3 -14 7 -22 7 -27
-1 -4 -8 -9 -7 -15 2 -4 8 -3 19 3 26 6 7 7 13 3 13 -5 0 0 10 11 22 10 12 13
18 7 14 -8 -4 -13 -1 -13 8 0 10 -6 13 -17 10 -14 -5 -15 -4 -4 4 7 5 11 14 7
20 -3 5 5 17 19 26 21 14 24 20 15 36 -7 14 -7 20 0 20 5 0 10 -5 10 -11z"/>
<path fill="#ffffff" stroke="none" d="M215 269 c11 -17 -1 -21 -15 -4 -8 9
-8 15 -2 15 6 0 14 -5 17 -11z"/>
<path fill="#ffffff" stroke="none" d="M115 200 c8 0 15 6 15 13 0 7 3 8 8 2
4 -5 14 -10 22 -10 8 0 14 -8 14 -17 -1 -10 2 -18 7 -18 5 0 9 -5 9 -11 0 -5
-4 -8 -9 -5 -9 6 -6 -37 4 -54 5 -9 1 -9 -15 0 -15 8 -20 8 -16 1 4 -6 2 -11
-3 -11 -6 0 -11 5 -11 11 0 6 -7 8 -16 5 -8 -3 -13 -2 -10 3 7 11 -39 35 -52
27 -5 -3 -12 1 -16 9 -3 8 -1 17 4 20 6 4 10 1 10 -4 0 -6 5 -11 10 -11 6 0
10 7 10 16 0 8 4 13 9 9 5 -3 12 -1 16 4 3 6 -4 15 -15 21 -11 6 -18 16 -14
22 4 7 10 5 16 -6 5 -9 16 -16 23 -16z"/>
<path fill="#ffffff" stroke="none" d="M84 115 c3 -8 1 -15 -4 -15 -6 0 -10 7
-10 15 0 8 2 15 4 15 2 0 6 -7 10 -15z"/>
<path fill="#ffffff" stroke="none" d="M60 81 c0 -9 5 -22 12 -29 7 -7 9 -12
5 -12 -4 0 -10 0 -14 0 -8 0 -10 5 -12 41 0 11 -6 17 -11 14 -6 -4 -8 -16 -4
-28 6 -22 6 -22 -10 -2 -20 26 -20 33 2 38 23 5 32 -1 32 -22z"/>
<path fill="#ffffff" stroke="none" d="M284 58 c-7 -10 -24 -10 -24 0 0 5 7 9
15 9 8 0 12 -4 9 -9z"/>
<path fill="#ffffff" stroke="none" d="M116 24 c-9 -8 -16 -13 -16 -11 0 3 -3
13 -6 21 -5 12 -2 15 10 10 10 -4 16 -1 17 7 0 10 2 11 6 2 2 -7 -3 -20 -11
-29z"/>
<path fill="#000000" stroke="none" d="M106 168 c-17 -24 -12 -42 10 -34 7 3
16 1 19 -4 4 -6 12 -10 18 -9 9 0 8 2 -1 6 -6 2 -9 10 -6 15 4 6 3 8 -2 5 -6
-3 -16 -2 -24 4 -8 5 -10 9 -4 9 6 0 11 7 11 15 0 20 -3 19 -21 -7z"/>
</g>
</svg>
