<?xml version="1.0" standalone="no"?>
<!DOCTYPE svg PUBLIC "-//W3C//DTD SVG 20010904//EN"
 "http://www.w3.org/TR/2001/REC-SVG-20010904/DTD/svg10.dtd">
<svg version="1.0" xmlns="http://www.w3.org/2000/svg"
 width="32.000000pt" height="32.000000pt" viewBox="0 0 32.000000 32.000000"
 preserveAspectRatio="xMidYMid meet">
<metadata>
Created by potrace 1.16, written by Peter Selinger 2001-2019
</metadata>
<g transform="translate(0.000000,32.000000) scale(0.100000,-0.100000)"
fill="#000000" stroke="none">
<path fill="#000000" stroke="none" d="M0 160 c0 -110 3 -160 11 -160 6 0 9 6
6 13 -3 8 1 14 8 14 7 0 11 -6 8 -13 -4 -10 26 -13 141 -13 l146 0 0 120 c0
73 -4 119 -10 119 -5 0 -10 5 -10 11 0 5 5 7 11 4 7 -5 9 5 7 26 l-3 34 -157
3 -158 3 0 -161z"/>
<path fill="#ffffff" stroke="none" d="M204 280 c-6 -6 -10 -3 -10 10 0 13 4
16 10 10 7 -7 7 -13 0 -20z"/>
<path fill="#ffffff" stroke="none" d="M308 85 c-3 -3 -9 2 -12 12 -6 14 -5
15 5 6 7 -7 10 -15 7 -18z"/>
<path fill="#ffffff" stroke="none" d="M125 20 c-3 -5 -14 -10 -23 -10 -15 0
-15 2 -2 10 20 13 33 13 25 0z"/>
</g>
</svg>
