<?xml version="1.0" standalone="no"?>
<!DOCTYPE svg PUBLIC "-//W3C//DTD SVG 20010904//EN"
 "http://www.w3.org/TR/2001/REC-SVG-20010904/DTD/svg10.dtd">
<svg version="1.0" xmlns="http://www.w3.org/2000/svg"
 width="32.000000pt" height="32.000000pt" viewBox="0 0 32.000000 32.000000"
 preserveAspectRatio="xMidYMid meet">
<metadata>
Created by potrace 1.16, written by Peter Selinger 2001-2019
</metadata>
<g transform="translate(0.000000,32.000000) scale(0.100000,-0.100000)"
fill="#000000" stroke="none">
<path fill="#000000" stroke="none" d="M0 302 c0 -14 2 -15 10 -2 5 8 10 10
10 5 0 -6 -5 -16 -12 -23 -9 -9 -7 -12 10 -12 16 0 22 5 20 18 -2 12 3 17 20
16 12 -1 22 2 22 6 0 4 -18 7 -40 8 -32 2 -40 -2 -40 -16z"/>
<path fill="#000000" stroke="none" d="M91 304 c0 -11 3 -14 6 -6 3 7 2 16 -1
19 -3 4 -6 -2 -5 -13z"/>
<path fill="#000000" stroke="none" d="M160 312 c0 -4 8 -18 17 -31 10 -15 11
-21 3 -16 -16 10 -8 -4 28 -53 28 -37 23 -55 -8 -27 -19 17 -19 17 -15 -6 6
-29 -11 -49 -37 -44 -15 3 -17 1 -9 -9 6 -7 9 -21 5 -30 -3 -9 -1 -16 5 -16 6
0 11 5 11 11 0 5 5 7 10 4 6 -3 10 1 10 9 0 9 5 16 11 16 6 0 9 7 6 15 -4 8
-2 17 3 20 6 4 10 3 10 -2 0 -4 13 -16 30 -25 28 -16 29 -16 17 2 -6 11 -18
21 -27 24 -9 2 -7 4 7 5 13 1 30 15 44 39 13 20 27 40 32 43 6 4 6 15 2 25 -5
13 -9 15 -12 6 -3 -6 -10 -9 -16 -5 -21 13 -37 12 -37 -3 0 -8 4 -14 8 -14 4
0 8 -9 8 -19 0 -11 -4 -17 -8 -15 -8 5 -12 -9 -9 -36 1 -11 -1 -11 -9 2 -6 10
-11 21 -12 25 0 5 -9 14 -19 21 -24 17 -9 55 19 45 10 -3 5 6 -12 21 -28 25
-56 34 -56 18z"/>
<path fill="#000000" stroke="none" d="M257 306 c-4 -10 -1 -13 9 -9 7 3 14 9
14 14 0 14 -17 10 -23 -5z"/>
<path fill="#000000" stroke="none" d="M290 311 c0 -5 7 -11 15 -15 9 -3 15 0
15 9 0 8 -7 15 -15 15 -8 0 -15 -4 -15 -9z"/>
<path fill="#000000" stroke="none" d="M133 288 c-2 -16 1 -17 13 -8 17 15 17
17 1 23 -8 3 -14 -3 -14 -15z"/>
<path fill="#000000" stroke="none" d="M106 281 c-4 -5 -15 -8 -26 -6 -22 4
-80 -22 -80 -36 0 -5 5 -9 10 -9 9 0 8 -40 -1 -75 -4 -16 19 -65 31 -65 7 0 7
-6 0 -21 -10 -17 -14 -18 -28 -7 -15 11 -16 11 -4 -4 9 -11 10 -18 2 -23 -5
-3 -10 -13 -10 -21 0 -13 13 -15 73 -12 61 2 73 6 74 20 1 10 -3 17 -9 15 -12
-3 -19 61 -7 69 5 3 2 12 -6 21 -9 8 -19 12 -23 9 -3 -4 -2 -10 3 -14 6 -4 10
-17 11 -29 0 -18 -2 -20 -19 -12 -17 9 -18 8 -12 -12 6 -18 4 -21 -11 -15 -15
5 -14 1 5 -14 13 -11 19 -20 13 -20 -6 0 -16 -2 -24 -5 -17 -7 -23 41 -7 51 7
4 3 15 -11 29 l-21 23 21 15 c14 9 19 20 15 28 -5 8 -4 10 3 5 7 -4 12 -2 12
5 0 6 -8 9 -20 6 -11 -3 -23 0 -27 5 -3 7 -1 8 5 4 7 -4 12 -2 12 3 0 6 -5 11
-11 11 -19 0 -6 55 14 56 12 1 13 1 2 -3 -8 -2 -15 -9 -15 -14 0 -6 5 -7 10
-4 6 4 17 1 25 -5 8 -7 15 -9 15 -5 0 4 7 2 15 -5 13 -11 19 -9 35 8 23 25 8
41 -16 17 -12 -12 -19 -13 -30 -4 -18 15 -18 30 0 23 14 -5 33 13 23 22 -3 3
-8 1 -11 -5z"/>
<path fill="#000000" stroke="none" d="M90 182 c0 -15 4 -22 8 -16 4 5 22 10
40 9 18 0 31 3 29 8 -1 5 -6 8 -10 8 -3 0 -20 4 -37 9 -28 8 -30 7 -30 -18z"/>
<path fill="#000000" stroke="none" d="M290 186 c0 -23 16 -27 17 -5 1 10 -2
19 -8 19 -5 0 -9 -6 -9 -14z"/>
<path fill="#000000" stroke="none" d="M300 132 c0 -10 -11 -25 -25 -32 -13
-7 -22 -17 -19 -22 3 -4 10 -6 15 -3 5 4 9 -3 9 -15 0 -12 -4 -19 -9 -15 -5 3
-13 0 -17 -7 -5 -8 -10 -6 -15 8 -7 18 -8 18 -8 -1 -1 -12 -4 -16 -9 -9 -4 6
-18 15 -32 19 -24 7 -24 7 4 -18 22 -19 34 -23 47 -16 25 13 33 11 20 -4 -8
-10 -7 -14 4 -14 8 0 15 6 15 14 0 7 4 13 10 13 5 0 7 7 4 15 -3 8 0 17 7 20
16 6 23 71 9 80 -6 3 -10 -2 -10 -13z"/>
<path fill="#ffffff" stroke="none" d="M297 78 c-3 -8 -6 -5 -6 6 -1 11 2 17
5 13 3 -3 4 -12 1 -19z"/>
<path fill="#000000" stroke="none" d="M214 113 c0 -10 -5 -17 -11 -15 -7 1
-13 -2 -13 -8 0 -5 5 -10 11 -10 5 0 7 -4 4 -10 -3 -6 1 -7 10 -4 9 4 14 13
11 20 -3 8 1 14 10 14 14 0 14 2 0 15 -19 19 -24 19 -22 -2z"/>
<path fill="#000000" stroke="none" d="M302 30 c-16 -26 -15 -30 3 -30 9 0 15
9 15 25 0 30 -2 31 -18 5z"/>
<path fill="#000000" stroke="none" d="M174 8 c-3 -4 4 -8 15 -8 12 0 21 4 21
8 0 11 -29 11 -36 0z"/>
</g>
</svg>
