<?xml version="1.0" standalone="no"?>
<!DOCTYPE svg PUBLIC "-//W3C//DTD SVG 20010904//EN"
 "http://www.w3.org/TR/2001/REC-SVG-20010904/DTD/svg10.dtd">
<svg version="1.0" xmlns="http://www.w3.org/2000/svg"
 width="32.000000pt" height="32.000000pt" viewBox="0 0 32.000000 32.000000"
 preserveAspectRatio="xMidYMid meet">
<metadata>
Created by potrace 1.16, written by Peter Selinger 2001-2019
</metadata>
<g transform="translate(0.000000,32.000000) scale(0.100000,-0.100000)"
fill="#000000" stroke="none">
<path fill="#000000" stroke="none" d="M17 312 c-14 -3 -17 -12 -15 -43 1 -21
6 -39 11 -39 4 0 5 -4 2 -10 -3 -5 1 -10 9 -10 9 0 16 -5 16 -11 0 -5 4 -8 9
-5 11 7 23 -22 15 -35 -3 -5 0 -9 5 -9 6 0 11 5 11 11 0 17 52 62 59 52 3 -4
13 -8 21 -8 8 0 14 -8 14 -17 -1 -10 2 -18 6 -18 4 0 7 -18 6 -39 -1 -33 -4
-39 -21 -38 -11 0 -26 5 -32 10 -7 5 -13 6 -13 1 0 -5 -7 2 -16 14 -12 17 -21
21 -41 16 -17 -5 -24 -3 -19 4 3 6 0 13 -6 15 -10 4 -10 6 0 6 6 1 12 6 12 12
0 6 -7 9 -15 5 -8 -3 -15 -1 -15 4 0 6 -4 10 -9 10 -7 0 -8 -90 -1 -135 1 -5
-2 -20 -5 -33 -6 -17 -3 -22 10 -22 14 0 15 3 6 14 -9 10 -8 15 3 19 16 7 31
-8 22 -21 -3 -5 18 -10 47 -11 47 -2 53 0 54 19 1 16 -2 20 -13 16 -9 -3 -18
-6 -20 -6 -3 0 -2 -4 1 -10 3 -5 1 -10 -4 -10 -6 0 -11 5 -11 11 0 5 -4 7 -10
4 -6 -3 -7 1 -4 12 3 10 -2 7 -10 -7 -12 -20 -16 -22 -17 -7 -1 9 -3 22 -4 27
-1 6 -3 20 -4 33 -1 17 -3 19 -10 8 -5 -8 -7 -21 -4 -30 4 -11 0 -9 -10 4 -21
26 -21 42 1 42 25 0 42 -16 35 -34 -5 -12 -2 -15 9 -10 10 3 19 0 22 -9 8 -22
28 -17 21 6 -4 12 -2 20 5 20 6 0 8 -5 5 -11 -4 -6 2 -13 14 -16 12 -3 21 -10
21 -17 0 -6 11 7 25 28 13 22 22 43 19 47 -2 4 1 11 7 15 8 4 7 9 -2 15 -10 6
-11 9 -1 9 6 0 12 11 12 24 0 14 5 28 11 32 17 10 29 -17 17 -39 -7 -14 -7
-22 3 -28 16 -9 32 -1 23 12 -3 6 3 5 15 -3 14 -8 17 -14 9 -17 -7 -2 -21 -10
-30 -18 -9 -8 -20 -13 -25 -10 -4 3 -14 -1 -21 -9 -11 -12 -10 -14 4 -14 17 0
11 -14 -7 -16 -5 -1 -12 -2 -16 -3 -5 -1 3 -10 17 -21 l25 -20 -28 4 c-15 3
-25 1 -22 -4 3 -4 -1 -11 -7 -13 -18 -8 83 -8 110 -1 27 8 30 24 2 19 -25 -5
-25 3 -2 28 16 19 16 20 -5 8 -26 -13 -33 -14 -33 -2 0 5 14 12 31 16 29 7 30
9 27 53 -2 38 -6 46 -20 44 -24 -4 -23 25 1 37 14 8 18 22 18 60 0 28 -4 48
-8 45 -5 -3 -7 -10 -4 -15 11 -17 -6 -49 -26 -49 -11 0 -22 -7 -26 -16 -3 -8
-11 -13 -18 -10 -8 3 -16 -6 -19 -20 -4 -14 -11 -22 -17 -18 -8 4 -7 9 1 14 7
4 10 12 6 18 -3 5 5 17 18 26 22 14 23 18 13 46 -6 16 -17 30 -24 30 -17 0
-16 -5 3 -42 15 -28 15 -30 0 -25 -26 10 -47 -3 -40 -25 7 -24 0 -20 -50 24
l-36 32 28 18 27 19 -55 -3 c-30 -1 -63 -4 -73 -6z"/>
<path fill="#ffffff" stroke="none" d="M80 279 c0 -4 -11 -9 -24 -11 -19 -4
-23 -1 -22 16 1 19 4 20 23 11 13 -5 23 -13 23 -16z"/>
<path fill="#ffffff" stroke="none" d="M106 253 c-9 -9 -67 -13 -62 -5 2 4 19
8 36 9 18 1 30 -1 26 -4z"/>
<path fill="#ffffff" stroke="none" d="M93 197 c-3 -5 -9 -3 -14 4 -4 7 -5 17
-2 22 3 5 9 3 14 -4 4 -7 5 -17 2 -22z"/>
<path fill="#ffffff" stroke="none" d="M85 102 c-8 -8 -25 10 -19 20 4 6 9 5
15 -3 4 -7 6 -15 4 -17z"/>
<path fill="#ffffff" stroke="none" d="M294 97 c-3 -9 -12 -13 -21 -10 -14 5
-13 8 2 20 22 15 28 12 19 -10z"/>
<path fill="#000000" stroke="none" d="M244 304 c3 -9 6 -18 6 -20 0 -3 5 -2
12 2 8 5 9 2 5 -9 -3 -10 -2 -17 2 -17 14 0 19 23 9 43 -11 22 -43 23 -34 1z"/>
<path fill="#000000" stroke="none" d="M158 303 c-9 -18 -2 -38 15 -41 13 -3
16 2 14 19 -4 23 -22 37 -29 22z"/>
<path fill="#000000" stroke="none" d="M100 161 c-10 -20 3 -41 17 -27 3 3 12
1 20 -6 7 -6 16 -8 20 -4 3 3 1 6 -6 6 -7 0 -9 5 -6 10 4 6 3 10 -2 9 -4 -1
-15 -1 -23 0 -12 1 -13 3 -1 10 9 6 10 11 3 15 -6 4 -16 -2 -22 -13z"/>
</g>
</svg>
