<?xml version="1.0" standalone="no"?>
<!DOCTYPE svg PUBLIC "-//W3C//DTD SVG 20010904//EN"
 "http://www.w3.org/TR/2001/REC-SVG-20010904/DTD/svg10.dtd">
<svg version="1.0" xmlns="http://www.w3.org/2000/svg"
 width="32.000000pt" height="32.000000pt" viewBox="0 0 32.000000 32.000000"
 preserveAspectRatio="xMidYMid meet">
<metadata>
Created by potrace 1.16, written by Peter Selinger 2001-2019
</metadata>
<g transform="translate(0.000000,32.000000) scale(0.100000,-0.100000)"
fill="#000000" stroke="none">
<path fill="#000000" stroke="none" d="M177 307 c-3 -8 3 -14 15 -14 16 -2 17
1 8 13 -15 17 -17 17 -23 1z"/>
<path fill="#000000" stroke="none" d="M284 304 c2 -11 -1 -27 -6 -36 -5 -12
-5 -18 1 -18 15 0 25 50 13 62 -7 7 -10 5 -8 -8z"/>
<path fill="#000000" stroke="none" d="M123 297 c1 -7 -3 -11 -10 -10 -7 2
-10 -4 -7 -12 4 -9 0 -15 -10 -15 -9 0 -16 -4 -16 -10 0 -6 11 -5 27 3 21 9
27 9 31 -1 2 -7 10 -19 18 -26 11 -12 11 -15 -1 -20 -8 -3 -15 0 -15 6 0 7 -6
4 -13 -7 -13 -17 -15 -17 -30 6 -10 13 -17 19 -17 15 0 -5 7 -17 15 -26 14
-15 13 -19 -6 -35 -17 -16 -22 -17 -29 -5 -8 12 -10 10 -10 -7 0 -28 24 -21
57 16 17 20 22 22 23 9 0 -9 -6 -19 -12 -21 -10 -4 -10 -6 -1 -6 7 -1 10 -8 6
-18 -5 -15 -3 -15 11 2 10 11 15 14 11 8 -3 -7 0 -13 7 -13 17 0 38 20 38 34
0 6 -4 5 -9 -2 -6 -10 -10 -9 -14 7 -3 12 -1 18 4 15 10 -6 7 32 -4 42 -12 12
-8 22 11 27 12 3 10 5 -7 6 -19 1 -22 5 -19 24 3 17 0 23 -14 24 -9 1 -17 -4
-15 -10z"/>
<path fill="#000000" stroke="none" d="M240 282 c6 -13 14 -21 18 -18 3 4 -2
14 -12 24 -18 16 -18 16 -6 -6z"/>
<path fill="#000000" stroke="none" d="M45 280 c3 -5 11 -10 16 -10 6 0 7 5 4
10 -3 6 -11 10 -16 10 -6 0 -7 -4 -4 -10z"/>
<path fill="#000000" stroke="none" d="M190 276 c0 -2 7 -9 15 -16 13 -11 14
-10 9 4 -5 14 -24 23 -24 12z"/>
<path fill="#000000" stroke="none" d="M223 243 c-7 -3 -13 -12 -12 -21 0 -11
2 -12 6 -4 2 6 11 12 18 12 8 0 16 4 19 8 5 9 -11 11 -31 5z"/>
<path fill="#000000" stroke="none" d="M16 195 c10 -8 26 -14 34 -14 9 0 4 6
-10 14 -33 19 -49 19 -24 0z"/>
<path fill="#000000" stroke="none" d="M220 190 c0 -6 5 -10 11 -10 8 0 7 -5
-1 -16 -18 -20 -25 -83 -9 -67 9 9 18 9 32 2 13 -8 17 -8 13 -1 -3 6 3 17 14
25 11 7 17 17 13 20 -3 4 -11 -1 -18 -10 -18 -24 -37 -7 -30 27 4 20 2 29 -9
33 -9 4 -16 2 -16 -3z"/>
<path fill="#000000" stroke="none" d="M300 190 c-8 -5 -12 -11 -9 -14 2 -3
11 -1 19 4 8 5 12 11 9 14 -2 3 -11 1 -19 -4z"/>
<path fill="#000000" stroke="none" d="M140 108 c0 -6 3 -8 6 -5 4 3 16 1 28
-5 19 -10 20 -10 7 5 -16 19 -41 23 -41 5z"/>
<path fill="#000000" stroke="none" d="M29 93 c-13 -16 -12 -17 4 -4 16 13 21
21 13 21 -2 0 -10 -8 -17 -17z"/>
<path fill="#000000" stroke="none" d="M281 94 c0 -11 3 -14 6 -6 3 7 2 16 -1
19 -3 4 -6 -2 -5 -13z"/>
<path fill="#000000" stroke="none" d="M51 78 c-1 -9 4 -20 9 -23 6 -4 7 -11
4 -17 -4 -7 -2 -8 5 -4 8 5 9 12 3 19 -5 7 -12 19 -15 27 -4 12 -6 12 -6 -2z"/>
<path fill="#000000" stroke="none" d="M178 50 c-22 -24 -24 -31 -12 -41 11
-9 15 -8 20 6 5 12 14 15 33 11 25 -6 25 -6 6 9 -11 9 -19 23 -17 31 4 19 1
18 -30 -16z"/>
<path fill="#000000" stroke="none" d="M305 70 c4 -6 2 -17 -5 -25 -8 -10 -8
-15 1 -21 7 -4 9 -3 5 4 -3 6 -2 13 4 17 13 8 13 35 -1 35 -5 0 -7 -5 -4 -10z"/>
<path fill="#000000" stroke="none" d="M113 40 c-11 -16 -10 -18 2 -14 8 4 15
12 15 20 0 19 -3 18 -17 -6z"/>
<path fill="#000000" stroke="none" d="M21 31 c-10 -6 -9 -10 5 -15 20 -8 25
-4 16 11 -4 7 -13 9 -21 4z"/>
</g>
</svg>
