<?xml version="1.0" standalone="no"?>
<!DOCTYPE svg PUBLIC "-//W3C//DTD SVG 20010904//EN"
 "http://www.w3.org/TR/2001/REC-SVG-20010904/DTD/svg10.dtd">
<svg version="1.0" xmlns="http://www.w3.org/2000/svg"
 width="32.000000pt" height="32.000000pt" viewBox="0 0 32.000000 32.000000"
 preserveAspectRatio="xMidYMid meet">
<metadata>
Created by potrace 1.16, written by Peter Selinger 2001-2019
</metadata>
<g transform="translate(0.000000,32.000000) scale(0.100000,-0.100000)"
fill="#000000" stroke="none">
<path fill="#000000" stroke="none" d="M0 170 c0 -113 3 -150 13 -150 8 0 7
-4 -3 -10 -10 -6 40 -9 148 -9 l162 0 0 159 0 160 -160 0 -160 0 0 -150z"/>
<path fill="#ffffff" stroke="none" d="M253 241 c-13 -11 -23 -24 -23 -31 0
-6 -5 -8 -10 -5 -8 5 -8 11 -1 19 6 7 8 16 4 20 -4 4 0 4 10 0 10 -3 17 -1 17
5 0 6 6 11 13 11 6 -1 2 -9 -10 -19z"/>
<path fill="#ffffff" stroke="none" d="M87 205 c0 -8 -4 -12 -9 -9 -5 3 -6 10
-3 15 9 13 12 11 12 -6z"/>
<path fill="#ffffff" stroke="none" d="M220 66 c0 -6 -4 -5 -9 3 -5 7 -13 11
-19 7 -6 -4 -10 2 -9 13 1 19 2 19 19 4 10 -9 18 -21 18 -27z"/>
<path fill="#ffffff" stroke="none" d="M250 70 c0 -5 -2 -10 -4 -10 -3 0 -8 5
-11 10 -3 6 -1 10 4 10 6 0 11 -4 11 -10z"/>
</g>
</svg>
