<?xml version="1.0" standalone="no"?>
<!DOCTYPE svg PUBLIC "-//W3C//DTD SVG 20010904//EN"
 "http://www.w3.org/TR/2001/REC-SVG-20010904/DTD/svg10.dtd">
<svg version="1.0" xmlns="http://www.w3.org/2000/svg"
 width="32.000000pt" height="32.000000pt" viewBox="0 0 32.000000 32.000000"
 preserveAspectRatio="xMidYMid meet">
<metadata>
Created by potrace 1.16, written by Peter Selinger 2001-2019
</metadata>
<g transform="translate(0.000000,32.000000) scale(0.100000,-0.100000)"
fill="#000000" stroke="none">
<path fill="#000000" stroke="none" d="M194 313 c4 -8 2 -13 -4 -13 -6 0 -8
-4 -5 -10 3 -5 2 -10 -3 -10 -5 0 -9 -6 -9 -14 0 -8 5 -14 11 -13 6 1 10 -4 9
-10 -2 -7 4 -13 12 -13 14 0 13 3 -1 25 -15 23 -13 30 9 26 13 -2 7 16 -10 30
-11 10 -14 10 -9 2z"/>
<path fill="#000000" stroke="none" d="M295 310 c4 -6 11 -8 16 -5 14 9 11 15
-7 15 -8 0 -12 -5 -9 -10z"/>
<path fill="#000000" stroke="none" d="M80 300 c0 -5 7 -7 15 -4 8 4 15 8 15
10 0 2 -7 4 -15 4 -8 0 -15 -4 -15 -10z"/>
<path fill="#000000" stroke="none" d="M0 277 c0 -12 34 -47 47 -47 4 0 -3 10
-15 23 -12 13 -19 27 -15 30 3 4 1 7 -5 7 -7 0 -12 -6 -12 -13z"/>
<path fill="#000000" stroke="none" d="M151 283 c-1 -7 -8 -13 -17 -13 -8 0
-12 -4 -9 -10 3 -5 -1 -10 -9 -10 -8 0 -18 -5 -21 -11 -11 -17 27 -6 48 14 10
10 16 24 13 30 -3 9 -5 9 -5 0z"/>
<path fill="#000000" stroke="none" d="M302 260 c-8 -13 -8 -20 -2 -20 6 0 13
7 17 15 9 24 -1 27 -15 5z"/>
<path fill="#000000" stroke="none" d="M250 260 c0 -7 -9 -9 -22 -5 -21 6 -21
4 5 -19 15 -14 27 -33 27 -43 1 -17 1 -17 11 0 6 9 15 15 20 12 5 -4 6 -12 3
-18 -5 -8 -2 -8 7 1 11 10 9 15 -11 30 -14 9 -29 16 -34 14 -5 -2 -4 3 3 12 8
10 9 16 1 21 -5 3 -10 1 -10 -5z"/>
<path fill="#000000" stroke="none" d="M56 224 c-3 -8 -11 -12 -17 -8 -8 4 -8
0 0 -15 11 -21 5 -27 -22 -22 -5 1 -5 -9 -1 -21 7 -24 35 -50 44 -41 3 2 -3 9
-13 14 -9 6 -17 17 -17 26 0 9 3 13 7 10 3 -4 12 1 19 11 12 16 14 16 28 -3 8
-11 16 -17 17 -12 1 4 2 10 3 15 1 4 5 13 10 21 7 10 4 12 -14 6 -12 -4 -20
-3 -17 1 3 5 -1 14 -8 21 -10 10 -14 9 -19 -3z"/>
<path fill="#000000" stroke="none" d="M216 222 c-3 -6 -1 -14 5 -17 14 -9 20
-2 10 14 -6 8 -11 9 -15 3z"/>
<path fill="#000000" stroke="none" d="M204 174 c-19 -15 -19 -15 1 -6 11 5
27 12 35 15 13 5 13 6 -1 6 -8 1 -24 -6 -35 -15z"/>
<path fill="#000000" stroke="none" d="M140 170 c-9 -6 -10 -10 -3 -10 6 0 15
5 18 10 8 12 4 12 -15 0z"/>
<path fill="#000000" stroke="none" d="M97 153 c-4 -3 -7 -13 -7 -20 0 -12 3
-12 15 1 8 8 15 17 15 20 0 8 -15 7 -23 -1z"/>
<path fill="#000000" stroke="none" d="M304 130 c0 -13 4 -16 10 -10 7 7 7 13
0 20 -6 6 -10 3 -10 -10z"/>
<path fill="#000000" stroke="none" d="M190 119 c0 -5 -5 -7 -11 -3 -8 4 -9 0
-4 -15 8 -26 -10 -28 -24 -3 -8 14 -10 14 -11 2 0 -9 10 -24 23 -35 25 -21 27
-22 37 -5 5 7 12 3 23 -13 22 -33 76 -55 88 -36 14 22 11 27 -16 24 -14 -1
-28 2 -31 7 -3 4 -11 5 -17 1 -7 -4 -6 1 2 10 8 10 23 16 35 15 13 -2 22 3 24
14 3 17 -8 18 -40 4 -23 -10 -77 14 -71 31 3 7 2 13 -1 13 -3 0 -6 -5 -6 -11z"/>
<path fill="#ffffff" stroke="none" d="M231 73 c13 -16 12 -17 -3 -4 -17 13
-22 21 -14 21 2 0 10 -8 17 -17z"/>
<path fill="#000000" stroke="none" d="M99 73 c-12 -16 -12 -17 2 -6 9 7 20 9
24 5 5 -4 5 -1 1 6 -9 16 -11 15 -27 -5z"/>
<path fill="#000000" stroke="none" d="M58 39 c15 -16 16 -33 0 -23 -22 14
-58 13 -58 -2 0 -17 12 -18 28 -2 9 9 12 9 12 0 0 -16 37 -15 43 1 3 7 -5 19
-16 26 -18 11 -20 11 -9 0z"/>
<path fill="#000000" stroke="none" d="M172 26 c10 -7 15 -16 11 -19 -3 -4 -1
-7 6 -7 8 0 11 6 7 16 -3 9 -6 18 -6 20 0 2 -8 4 -17 4 -17 -1 -17 -1 -1 -14z"/>
<path fill="#000000" stroke="none" d="M110 26 c0 -2 7 -7 16 -10 8 -3 12 -2
9 4 -6 10 -25 14 -25 6z"/>
</g>
</svg>
