<?xml version="1.0" standalone="no"?>
<!DOCTYPE svg PUBLIC "-//W3C//DTD SVG 20010904//EN"
 "http://www.w3.org/TR/2001/REC-SVG-20010904/DTD/svg10.dtd">
<svg version="1.0" xmlns="http://www.w3.org/2000/svg"
 width="32.000000pt" height="32.000000pt" viewBox="0 0 32.000000 32.000000"
 preserveAspectRatio="xMidYMid meet">
<metadata>
Created by potrace 1.16, written by Peter Selinger 2001-2019
</metadata>
<g transform="translate(0.000000,32.000000) scale(0.100000,-0.100000)"
fill="#000000" stroke="none">
<path fill="#000000" stroke="none" d="M0 303 c0 -10 3 -14 8 -8 4 6 17 10 30
9 12 -1 24 2 27 5 2 4 -12 8 -31 9 -27 2 -34 -1 -34 -15z"/>
<path fill="#000000" stroke="none" d="M91 304 c0 -11 3 -14 6 -6 3 7 2 16 -1
19 -3 4 -6 -2 -5 -13z"/>
<path fill="#000000" stroke="none" d="M165 309 c-4 -6 -13 -8 -19 -6 -7 3
-13 -1 -13 -9 0 -17 9 -18 25 -2 9 9 15 9 25 -1 10 -11 9 -12 -3 -6 -12 6 -12
5 -3 -5 6 -7 9 -20 6 -29 -3 -9 2 -7 11 6 10 14 23 20 34 16 10 -3 5 6 -12 21
-32 29 -41 31 -51 15z"/>
<path fill="#000000" stroke="none" d="M256 304 c-5 -14 -4 -15 9 -4 17 14 19
20 6 20 -5 0 -12 -7 -15 -16z"/>
<path fill="#000000" stroke="none" d="M290 311 c0 -5 6 -11 13 -14 8 -3 14 1
14 9 0 8 -6 14 -14 14 -7 0 -13 -4 -13 -9z"/>
<path fill="#000000" stroke="none" d="M33 280 c5 -16 -17 -43 -27 -33 -3 4
-6 2 -6 -4 0 -6 7 -13 15 -17 9 -3 15 0 15 10 0 9 5 12 12 8 7 -4 8 -3 4 4 -4
7 -1 12 9 12 9 0 14 -4 11 -9 -3 -5 1 -14 9 -21 8 -7 15 -9 15 -5 0 4 7 2 15
-5 13 -11 18 -10 29 6 18 24 12 31 -10 13 -14 -12 -19 -10 -36 11 -12 14 -25
24 -31 22 -6 -2 -14 3 -20 10 -7 10 -8 10 -4 -2z"/>
<path fill="#000000" stroke="none" d="M100 275 c-11 -13 -10 -14 4 -9 9 3 16
10 16 15 0 13 -6 11 -20 -6z"/>
<path fill="#000000" stroke="none" d="M250 263 c0 -7 5 -13 10 -13 6 0 4 -13
-5 -30 -11 -21 -12 -30 -4 -30 7 0 9 -3 5 -7 -11 -11 -40 -13 -52 -2 -7 6 -14
6 -18 1 -3 -5 5 -18 19 -28 13 -10 21 -22 18 -27 -3 -6 -1 -7 6 -3 6 4 19 2
28 -6 15 -12 15 -11 2 9 -8 13 -21 23 -29 24 -8 1 -4 4 10 8 19 5 25 14 25 34
-1 20 2 23 12 15 7 -6 13 -18 13 -27 0 -14 2 -14 10 -1 6 10 6 16 0 18 -16 6
-11 42 5 42 8 0 15 7 15 16 0 11 -6 14 -20 9 -11 -3 -20 -2 -20 3 0 5 -7 9
-15 9 -8 0 -15 -6 -15 -14z"/>
<path fill="#000000" stroke="none" d="M90 196 c0 -10 11 -13 35 -12 19 1 37
-2 39 -7 3 -4 3 -2 1 5 -1 7 -7 12 -13 11 -6 -2 -23 2 -37 7 -19 7 -25 6 -25
-4z"/>
<path fill="#000000" stroke="none" d="M15 153 c3 -51 10 -63 20 -34 3 12 12
21 20 21 7 0 16 7 19 16 5 13 4 14 -7 6 -10 -9 -17 -8 -25 0 -16 16 -15 31 1
22 6 -4 8 -3 4 1 -4 5 -14 10 -21 11 -11 1 -14 -9 -11 -43z"/>
<path fill="#ffffff" stroke="none" d="M32 138 c-7 -7 -12 -8 -12 -2 0 14 12
26 19 19 2 -3 -1 -11 -7 -17z"/>
<path fill="#000000" stroke="none" d="M180 143 c0 -6 -7 -18 -15 -26 -13 -13
-13 -16 1 -21 8 -3 12 -2 9 3 -3 6 3 14 12 20 14 8 16 12 6 22 -9 9 -13 9 -13
2z"/>
<path fill="#000000" stroke="none" d="M117 113 c-4 -3 -7 -11 -7 -17 0 -6 5
-5 12 2 6 6 9 14 7 17 -3 3 -9 2 -12 -2z"/>
<path fill="#000000" stroke="none" d="M300 114 c-9 -3 -21 -13 -28 -24 -15
-24 -9 -26 12 -4 12 11 16 12 16 2 -1 -20 -26 -49 -35 -40 -5 4 -5 1 -1 -5 10
-18 37 -16 30 2 -3 8 0 17 7 20 8 3 15 16 15 30 1 14 1 24 0 24 0 -1 -8 -3
-16 -5z"/>
<path fill="#000000" stroke="none" d="M211 97 c-11 -14 -5 -27 13 -27 6 0 4
5 -4 10 -12 7 -10 11 10 19 15 6 19 10 9 10 -9 1 -22 -5 -28 -12z"/>
<path fill="#000000" stroke="none" d="M84 65 c1 -14 6 -28 10 -32 3 -4 -4
-13 -16 -19 -21 -12 -19 -13 22 -11 36 2 46 6 47 19 1 10 -4 17 -10 15 -7 -1
-11 6 -9 16 2 9 -2 17 -8 17 -6 0 -9 -4 -6 -9 3 -5 0 -11 -8 -14 -9 -4 -12 0
-9 13 3 10 0 21 -5 24 -7 4 -10 -4 -8 -19z"/>
<path fill="#000000" stroke="none" d="M36 64 c-5 -14 -9 -14 -24 -3 -13 10
-12 8 3 -9 13 -16 15 -22 5 -20 -7 2 -16 -5 -18 -15 -3 -13 3 -17 23 -17 14 0
24 4 21 9 -4 5 0 12 6 14 10 4 10 6 1 6 -7 1 -13 8 -13 17 0 9 6 14 13 11 8
-3 14 1 14 9 0 19 -23 18 -31 -2z"/>
<path fill="#000000" stroke="none" d="M187 44 c3 -8 9 -14 15 -14 5 0 6 -5 3
-10 -4 -6 -10 -8 -15 -5 -5 3 -11 1 -15 -5 -3 -5 3 -10 14 -10 12 0 21 5 21
10 0 6 10 11 23 11 16 1 18 2 5 6 -10 2 -18 8 -18 13 0 4 -9 10 -19 13 -14 3
-18 1 -14 -9z"/>
<path fill="#000000" stroke="none" d="M302 30 c-16 -26 -15 -30 3 -30 9 0 15
9 15 25 0 30 -2 31 -18 5z"/>
<path fill="#000000" stroke="none" d="M256 12 c-3 -5 1 -9 9 -9 8 0 15 4 15
9 0 10 -17 10 -24 0z"/>
</g>
</svg>
