<?xml version="1.0" standalone="no"?>
<!DOCTYPE svg PUBLIC "-//W3C//DTD SVG 20010904//EN"
 "http://www.w3.org/TR/2001/REC-SVG-20010904/DTD/svg10.dtd">
<svg version="1.0" xmlns="http://www.w3.org/2000/svg"
 width="32.000000pt" height="32.000000pt" viewBox="0 0 32.000000 32.000000"
 preserveAspectRatio="xMidYMid meet">
<metadata>
Created by potrace 1.16, written by Peter Selinger 2001-2019
</metadata>
<g transform="translate(0.000000,32.000000) scale(0.100000,-0.100000)"
fill="#000000" stroke="none">
<path fill="#000000" stroke="none" d="M17 302 c-22 -24 -21 -38 1 -51 9 -6
11 -11 5 -11 -7 0 -13 -4 -13 -9 0 -5 9 -7 21 -4 l20 6 -21 22 -21 23 22 21
c13 12 18 21 12 21 -5 0 -17 -8 -26 -18z"/>
<path fill="#000000" stroke="none" d="M63 308 c-3 -7 -1 -8 5 -4 8 5 12 -1
13 -16 0 -13 3 -17 6 -10 2 6 8 10 12 8 4 -3 8 1 8 9 0 17 -35 27 -44 13z"/>
<path fill="#000000" stroke="none" d="M171 309 c-1 -9 6 -20 15 -23 26 -10
36 -7 31 8 -3 8 -1 17 6 19 7 3 2 4 -10 4 -12 -1 -19 -5 -17 -9 3 -4 1 -8 -5
-8 -5 0 -12 6 -14 13 -4 7 -6 6 -6 -4z"/>
<path fill="#000000" stroke="none" d="M295 280 c-1 -25 4 -40 11 -40 8 0 13
15 12 40 -1 53 -23 53 -23 0z"/>
<path fill="#000000" stroke="none" d="M250 294 c0 -2 9 -8 20 -14 11 -6 20
-7 20 -2 0 6 -9 12 -20 15 -11 3 -20 3 -20 1z"/>
<path fill="#000000" stroke="none" d="M121 282 c1 -4 1 -14 0 -22 -1 -13 -2
-13 -11 0 -6 9 -10 11 -10 3 0 -7 -6 -11 -12 -9 -7 1 -10 1 -5 -1 4 -3 7 -11
7 -19 0 -8 5 -14 10 -14 6 0 10 4 10 10 0 5 7 7 15 3 10 -3 15 0 13 8 -2 10 5
13 21 11 16 -3 21 0 16 9 -5 8 -4 10 3 5 7 -4 12 -14 12 -22 0 -8 7 -14 16
-14 9 0 12 5 8 12 -4 6 4 3 18 -8 28 -20 27 -44 -2 -44 -19 0 -74 -47 -61 -52
5 -2 7 -15 4 -30 -3 -15 -9 -25 -14 -22 -5 3 -7 9 -4 14 3 5 1 11 -5 15 -5 3
-10 -3 -10 -15 0 -11 7 -23 15 -26 8 -4 12 -10 9 -15 -3 -5 -7 -18 -9 -28 -3
-17 0 -19 21 -11 18 7 26 6 30 -3 3 -8 12 -14 20 -14 18 0 8 11 -31 31 -19 10
-24 16 -12 16 9 0 17 6 17 13 0 6 10 0 23 -15 41 -48 97 -62 97 -23 0 12 -8
16 -27 13 -20 -2 -29 2 -31 15 -3 15 1 17 22 11 16 -4 26 -2 26 5 0 6 0 14 0
19 0 8 -21 10 -35 3 -17 -9 -65 -9 -59 0 3 5 1 9 -4 9 -14 0 -25 51 -14 62 13
13 103 18 96 6 -3 -5 0 -15 6 -23 6 -8 8 -20 4 -26 -4 -8 -3 -9 4 -5 16 10 15
33 0 39 -9 4 -9 6 -1 6 16 1 3 43 -20 63 -11 10 -25 15 -31 11 -6 -4 -5 0 2 9
8 10 9 19 3 22 -5 3 -11 1 -13 -5 -3 -8 -15 -6 -42 6 -39 19 -86 28 -85 17z"/>
<path fill="#ffffff" stroke="none" d="M295 200 c3 -5 -1 -10 -10 -10 -9 0
-13 5 -10 10 3 6 8 10 10 10 2 0 7 -4 10 -10z"/>
<path fill="#000000" stroke="none" d="M56 224 c-3 -9 -11 -12 -18 -8 -8 5 -9
2 -5 -9 4 -11 -1 -20 -13 -27 -11 -6 -20 -21 -19 -33 0 -21 1 -21 10 -2 8 18
8 17 6 -5 -1 -18 6 -30 27 -43 15 -10 31 -16 34 -13 3 4 0 6 -6 6 -7 0 -12 7
-12 16 0 9 -7 22 -16 29 -15 11 -15 13 2 33 16 19 20 20 35 6 9 -8 15 -25 13
-37 -2 -12 -2 -16 2 -9 3 6 11 12 18 12 7 0 21 9 31 20 17 18 17 20 2 14 -9
-3 -17 -11 -17 -18 0 -6 -7 -2 -15 8 -12 15 -12 22 -2 34 10 13 8 14 -12 7
-13 -4 -21 -3 -18 1 3 5 -1 14 -8 21 -10 10 -14 9 -19 -3z"/>
<path fill="#ffffff" stroke="none" d="M45 120 c3 -5 1 -10 -4 -10 -6 0 -11 5
-11 10 0 6 2 10 4 10 3 0 8 -4 11 -10z"/>
<path fill="#000000" stroke="none" d="M208 216 c-10 -7 -18 -17 -18 -22 0 -4
5 -3 11 3 6 6 18 9 25 6 10 -4 12 0 8 11 -3 9 -7 16 -8 16 0 0 -9 -7 -18 -14z"/>
<path fill="#000000" stroke="none" d="M99 73 c-12 -16 -12 -17 2 -6 9 7 20 9
24 5 5 -4 5 -1 1 6 -9 16 -11 15 -27 -5z"/>
<path fill="#000000" stroke="none" d="M54 34 c23 -23 19 -27 -9 -8 -26 17
-45 12 -45 -12 0 -10 12 -14 40 -14 22 0 40 4 40 9 0 4 13 7 30 5 23 -3 28 0
23 11 -4 12 -9 13 -19 4 -10 -8 -14 -8 -14 -1 0 6 -6 9 -14 6 -8 -3 -17 -1
-21 5 -3 6 -11 11 -16 11 -6 0 -3 -7 5 -16z"/>
<path fill="#000000" stroke="none" d="M180 10 c-13 -8 -12 -10 3 -10 9 0 17
5 17 10 0 12 -1 12 -20 0z"/>
</g>
</svg>
