<?xml version="1.0" standalone="no"?>
<!DOCTYPE svg PUBLIC "-//W3C//DTD SVG 20010904//EN"
 "http://www.w3.org/TR/2001/REC-SVG-20010904/DTD/svg10.dtd">
<svg version="1.0" xmlns="http://www.w3.org/2000/svg"
 width="32.000000pt" height="32.000000pt" viewBox="0 0 32.000000 32.000000"
 preserveAspectRatio="xMidYMid meet">
<metadata>
Created by potrace 1.16, written by Peter Selinger 2001-2019
</metadata>
<g transform="translate(0.000000,32.000000) scale(0.100000,-0.100000)"
fill="#000000" stroke="none">
<path fill="#000000" stroke="none" d="M18 309 c17 -6 22 -14 17 -28 -5 -15
-1 -18 20 -13 27 5 35 22 11 22 -8 0 -18 5 -22 12 -5 8 -2 9 10 5 9 -4 15 -3
12 2 -3 4 -20 8 -38 9 -30 0 -31 -1 -10 -9z"/>
<path fill="#000000" stroke="none" d="M118 302 l-28 -18 36 -32 c50 -44 57
-48 50 -24 -7 22 13 35 39 25 14 -5 13 -1 -1 31 -20 42 -51 48 -96 18z"/>
<path fill="#ffffff" stroke="none" d="M187 281 c2 -17 -1 -22 -14 -19 -17 3
-24 23 -15 41 7 15 25 1 29 -22z"/>
<path fill="#000000" stroke="none" d="M230 312 c0 -7 5 -22 10 -32 8 -16 6
-22 -15 -36 -14 -9 -22 -21 -19 -26 4 -6 1 -14 -6 -18 -8 -5 -9 -10 -1 -14 6
-4 13 4 17 18 3 14 11 23 19 20 7 -3 15 2 18 10 4 9 15 16 26 16 12 0 23 11
29 29 12 33 7 41 -20 41 -15 0 -17 -4 -10 -17 10 -20 5 -43 -9 -43 -4 0 -6 8
-2 18 3 9 2 13 -2 9 -5 -4 -15 3 -22 15 -7 13 -12 17 -13 10z"/>
<path fill="#000000" stroke="none" d="M44 248 c-5 -8 53 -4 62 5 4 3 -8 5
-26 4 -17 -1 -34 -5 -36 -9z"/>
<path fill="#000000" stroke="none" d="M0 214 c0 -20 22 -42 38 -36 16 5 16
-15 -1 -21 -9 -4 -9 -6 1 -6 7 -1 10 -6 6 -12 -5 -8 1 -10 19 -5 20 5 29 1 41
-16 9 -12 16 -19 16 -14 0 5 6 4 13 -1 6 -5 21 -10 32 -10 17 -1 20 5 21 38 1
21 -2 39 -6 39 -4 0 -7 8 -6 18 0 9 -6 17 -14 17 -8 0 -18 4 -21 8 -7 10 -59
-35 -59 -52 0 -6 -5 -11 -11 -11 -5 0 -8 4 -5 9 8 13 -4 42 -15 35 -5 -3 -9 0
-9 5 0 6 -7 11 -16 11 -8 0 -12 5 -9 10 3 6 1 10 -4 10 -6 0 -11 -7 -11 -16z"/>
<path fill="#ffffff" stroke="none" d="M119 159 c-12 -7 -11 -9 1 -10 8 -1 19
-1 23 0 5 1 6 -3 2 -9 -3 -5 -1 -10 6 -10 7 0 9 -3 6 -6 -4 -4 -13 -2 -20 4
-8 7 -17 9 -20 6 -14 -14 -27 7 -17 27 6 11 16 17 22 13 7 -4 6 -9 -3 -15z"/>
<path fill="#000000" stroke="none" d="M77 223 c-3 -5 -2 -15 2 -22 5 -7 11
-9 14 -4 3 5 2 15 -2 22 -5 7 -11 9 -14 4z"/>
<path fill="#000000" stroke="none" d="M298 209 c-24 -14 -23 -38 2 -36 14 1
20 8 20 24 0 26 1 26 -22 12z"/>
<path fill="#000000" stroke="none" d="M227 203 c-4 -3 -7 -17 -7 -30 0 -12
-6 -23 -12 -23 -10 0 -9 -3 1 -9 9 -6 10 -11 2 -15 -6 -4 -9 -11 -7 -15 3 -4
-6 -25 -19 -47 -14 -21 -25 -34 -25 -28 0 7 -9 14 -21 17 -12 3 -18 10 -14 16
3 6 1 11 -5 11 -7 0 -9 -8 -5 -20 7 -23 -13 -28 -21 -6 -3 9 -12 12 -22 9 -11
-5 -14 -2 -9 10 7 18 -10 34 -35 34 -26 0 -36 -62 -14 -86 22 -24 45 -21 63
10 8 13 12 16 9 6 -3 -11 -2 -15 4 -12 6 3 10 1 10 -4 0 -6 5 -11 11 -11 5 0
8 4 5 9 -3 5 1 12 10 15 23 9 27 8 20 -9 -8 -22 18 -29 46 -14 13 7 30 12 38
11 8 -2 4 6 -10 17 -14 11 -22 21 -17 22 4 1 11 2 16 3 18 2 24 16 7 16 -14 0
-15 2 -4 14 7 8 17 12 21 9 5 -3 16 2 25 10 9 8 23 16 30 18 8 3 5 9 -9 17
-12 8 -18 9 -15 3 9 -13 -7 -21 -23 -12 -9 6 -10 14 -3 27 14 29 -1 57 -21 37z"/>
<path fill="#ffffff" stroke="none" d="M54 50 c5 -34 4 -41 -4 -28 -6 9 -17
15 -24 12 -9 -4 -13 3 -13 22 0 27 0 27 14 8 10 -13 14 -15 13 -4 -3 22 -1 44
4 39 2 -2 7 -24 10 -49z"/>
<path fill="#000000" stroke="none" d="M66 122 c-3 -6 -1 -14 5 -17 14 -9 20
-2 10 14 -6 8 -11 9 -15 3z"/>
<path fill="#000000" stroke="none" d="M275 107 c-15 -12 -16 -15 -2 -20 9 -3
18 1 21 10 9 22 3 25 -19 10z"/>
<path fill="#000000" stroke="none" d="M278 73 c-10 -2 -18 -9 -18 -14 0 -12
7 -11 33 2 21 12 21 11 5 -8 -10 -11 -18 -22 -18 -25 0 -4 8 -5 18 -4 10 2 18
13 20 29 3 27 -3 30 -40 20z"/>
<path fill="#000000" stroke="none" d="M298 3 c7 -3 16 -2 19 1 4 3 -2 6 -13
5 -11 0 -14 -3 -6 -6z"/>
</g>
</svg>
