<?xml version="1.0" standalone="no"?>
<!DOCTYPE svg PUBLIC "-//W3C//DTD SVG 20010904//EN"
 "http://www.w3.org/TR/2001/REC-SVG-20010904/DTD/svg10.dtd">
<svg version="1.0" xmlns="http://www.w3.org/2000/svg"
 width="32.000000pt" height="32.000000pt" viewBox="0 0 32.000000 32.000000"
 preserveAspectRatio="xMidYMid meet">
<metadata>
Created by potrace 1.16, written by Peter Selinger 2001-2019
</metadata>
<g transform="translate(0.000000,32.000000) scale(0.100000,-0.100000)"
fill="#000000" stroke="none">
<path fill="#000000" stroke="none" d="M1 174 c1 -120 3 -144 15 -144 9 0 12
5 8 12 -4 7 -3 8 4 4 7 -4 12 -16 12 -27 0 -10 2 -19 5 -19 4 0 56 21 63 26 2
1 -5 15 -14 31 l-19 28 28 -25 c33 -31 34 -47 5 -53 -13 -2 19 -5 70 -6 60 -1
91 3 87 9 -3 5 -2 10 4 10 5 0 12 -6 14 -12 4 -10 6 -9 6 1 1 11 4 11 15 2 12
-10 15 -7 14 21 -1 18 -8 43 -16 56 -12 19 -13 22 -1 20 11 -2 15 13 17 63 3
59 1 67 -17 72 -11 3 -20 2 -19 -2 2 -19 -3 -31 -11 -26 -6 3 -9 14 -8 25 1
18 20 26 50 21 4 0 7 11 7 25 0 14 -4 23 -9 19 -5 -3 -12 -1 -16 5 -9 15 -195
13 -195 -2 0 -10 -2 -10 -8 -1 -4 6 -27 12 -50 11 l-43 0 2 -144z"/>
<path fill="#ffffff" stroke="none" d="M213 296 c20 -16 23 -28 4 -20 -8 3
-18 -5 -23 -17 -9 -19 -10 -17 -10 15 0 40 3 42 29 22z"/>
<path fill="#ffffff" stroke="none" d="M40 256 c0 -3 -4 -8 -10 -11 -5 -3 -10
-1 -10 4 0 6 5 11 10 11 6 0 10 -2 10 -4z"/>
<path fill="#ffffff" stroke="none" d="M310 196 c0 -3 -4 -8 -10 -11 -5 -3
-10 -1 -10 4 0 6 5 11 10 11 6 0 10 -2 10 -4z"/>
<path fill="#ffffff" stroke="none" d="M36 123 c-8 -15 -15 -22 -16 -15 0 14
22 53 28 47 2 -2 -3 -16 -12 -32z"/>
<path fill="#ffffff" stroke="none" d="M200 126 c0 -2 -7 -6 -15 -10 -8 -3
-15 -1 -15 4 0 6 7 10 15 10 8 0 15 -2 15 -4z"/>
</g>
</svg>
