<?xml version="1.0" standalone="no"?>
<!DOCTYPE svg PUBLIC "-//W3C//DTD SVG 20010904//EN"
 "http://www.w3.org/TR/2001/REC-SVG-20010904/DTD/svg10.dtd">
<svg version="1.0" xmlns="http://www.w3.org/2000/svg"
 width="32.000000pt" height="32.000000pt" viewBox="0 0 32.000000 32.000000"
 preserveAspectRatio="xMidYMid meet">
<metadata>
Created by potrace 1.16, written by Peter Selinger 2001-2019
</metadata>
<g transform="translate(0.000000,32.000000) scale(0.100000,-0.100000)"
fill="#000000" stroke="none">
<path fill="#000000" stroke="none" d="M2 158 l2 -163 3 157 4 157 157 4 157
3 -162 2 -163 2 2 -162z"/>
<path fill="#000000" stroke="none" d="M29 298 c0 -2 -3 -19 -6 -38 -5 -34 -4
-34 16 -16 11 10 24 15 30 12 5 -3 11 -1 13 5 2 6 21 -5 42 -25 37 -35 66 -46
66 -26 0 5 -8 13 -17 19 -26 14 -10 23 21 12 20 -8 26 -17 26 -41 0 -16 5 -30
10 -30 10 0 14 19 11 50 -1 11 3 10 14 -4 12 -16 12 -22 2 -29 -7 -5 -1 -7 19
-3 l30 5 1 -54 c0 -30 -3 -52 -8 -49 -5 3 -9 0 -9 -6 0 -7 6 -10 13 -8 8 3 13
28 14 70 2 62 0 67 -22 72 -12 3 -25 13 -29 21 -4 12 0 14 19 9 18 -5 25 -2
25 9 0 8 3 22 6 31 5 12 0 16 -17 16 -18 0 -20 -3 -10 -9 7 -5 11 -14 7 -19
-8 -14 -36 -4 -33 11 3 19 -79 21 -86 3 -4 -10 -1 -13 9 -9 7 3 14 0 14 -6 0
-6 -11 -11 -24 -11 -13 0 -26 -6 -29 -12 -3 -9 -10 -8 -26 6 -12 11 -19 26
-17 33 7 18 -14 16 -36 -4 -18 -16 -18 -16 -12 0 4 12 1 17 -10 17 -9 0 -16
-1 -17 -2z"/>
<path fill="#000000" stroke="none" d="M30 220 c-1 -3 -3 -16 -6 -30 -3 -21
-2 -22 7 -7 6 10 8 23 5 30 -2 7 -5 10 -6 7z"/>
</g>
</svg>
