<?xml version="1.0" standalone="no"?>
<!DOCTYPE svg PUBLIC "-//W3C//DTD SVG 20010904//EN"
 "http://www.w3.org/TR/2001/REC-SVG-20010904/DTD/svg10.dtd">
<svg version="1.0" xmlns="http://www.w3.org/2000/svg"
 width="32.000000pt" height="32.000000pt" viewBox="0 0 32.000000 32.000000"
 preserveAspectRatio="xMidYMid meet">
<metadata>
Created by potrace 1.16, written by Peter Selinger 2001-2019
</metadata>
<g transform="translate(0.000000,32.000000) scale(0.100000,-0.100000)"
fill="#000000" stroke="none">
<path fill="#000000" stroke="none" d="M8 263 c-6 -92 3 -268 13 -253 6 10 9
11 9 3 0 -15 39 -17 74 -3 16 6 26 6 26 0 0 -5 43 -9 95 -9 92 0 122 10 70 23
-24 6 -37 39 -14 33 6 -1 14 4 16 11 6 16 -49 16 -65 0 -16 -16 -15 -6 3 28
13 26 13 29 -1 34 -8 3 -16 10 -17 15 -1 6 -9 9 -17 7 -13 -2 -13 -2 0 6 8 5
29 12 46 15 26 5 33 2 37 -13 3 -11 1 -18 -4 -14 -5 3 -9 0 -9 -5 0 -6 6 -11
13 -12 6 0 3 -4 -8 -9 -18 -8 -17 -9 6 -9 30 -1 48 27 27 41 -10 8 -10 11 0
15 8 3 12 28 12 74 l0 69 -154 0 -155 0 -3 -47z"/>
<path fill="#ffffff" stroke="none" d="M265 290 c3 -5 1 -10 -4 -10 -6 0 -11
5 -11 10 0 6 2 10 4 10 3 0 8 -4 11 -10z"/>
<path fill="#ffffff" stroke="none" d="M150 270 c0 -5 -2 -10 -4 -10 -3 0 -8
5 -11 10 -3 6 -1 10 4 10 6 0 11 -4 11 -10z"/>
<path fill="#ffffff" stroke="none" d="M180 245 c0 -8 -4 -15 -10 -15 -5 0 -7
7 -4 15 4 8 8 15 10 15 2 0 4 -7 4 -15z"/>
<path fill="#ffffff" stroke="none" d="M304 242 c3 -5 -1 -9 -9 -9 -8 0 -12 4
-9 9 3 4 7 8 9 8 2 0 6 -4 9 -8z"/>
<path fill="#ffffff" stroke="none" d="M44 108 c-3 -11 0 -18 7 -18 15 0 3
-13 -14 -16 -7 -1 -12 10 -12 26 0 15 6 27 13 27 7 0 10 -7 6 -19z"/>
<path fill="#ffffff" stroke="none" d="M183 81 c-17 -15 -32 -34 -35 -42 -3
-8 -9 -10 -14 -6 -5 4 -2 12 6 17 10 7 11 10 3 10 -7 0 -13 7 -13 17 0 9 3 14
6 10 9 -9 64 21 65 36 0 8 2 8 6 -1 3 -8 -8 -26 -24 -41z"/>
<path fill="#000000" stroke="none" d="M300 45 c-11 -13 -10 -14 4 -9 9 3 16
10 16 15 0 13 -6 11 -20 -6z"/>
</g>
</svg>
