<?xml version="1.0" standalone="no"?>
<!DOCTYPE svg PUBLIC "-//W3C//DTD SVG 20010904//EN"
 "http://www.w3.org/TR/2001/REC-SVG-20010904/DTD/svg10.dtd">
<svg version="1.0" xmlns="http://www.w3.org/2000/svg"
 width="32.000000pt" height="32.000000pt" viewBox="0 0 32.000000 32.000000"
 preserveAspectRatio="xMidYMid meet">
<metadata>
Created by potrace 1.16, written by Peter Selinger 2001-2019
</metadata>
<g transform="translate(0.000000,32.000000) scale(0.100000,-0.100000)"
fill="#000000" stroke="none">
<path fill="#000000" stroke="none" d="M9 314 c0 -5 -1 -76 -2 -159 l-1 -150
97 -2 c92 -2 96 -1 87 17 -6 10 -15 22 -20 25 -6 3 -10 14 -10 23 0 10 10 2
25 -21 31 -45 72 -59 92 -31 8 10 16 18 18 17 14 -8 25 -1 25 17 0 11 -5 20
-11 20 -5 0 -7 -5 -4 -10 13 -21 -6 -30 -30 -14 -14 9 -23 20 -20 24 2 4 -5
16 -17 26 -12 11 -18 13 -14 6 9 -15 -10 -16 -20 -1 -3 6 -1 15 7 19 10 7 10
12 -1 27 -8 10 -2 7 12 -7 14 -14 23 -28 21 -32 -2 -5 3 -8 11 -8 9 0 16 -4
16 -10 0 -5 7 -10 16 -10 8 0 13 4 9 9 -3 5 1 16 10 24 12 12 12 16 1 20 -15
6 -29 47 -16 47 5 0 11 -6 13 -12 4 -10 6 -10 6 -1 1 15 -33 35 -45 25 -5 -4
-2 1 5 10 7 9 10 22 6 29 -5 8 0 9 16 5 13 -3 19 -3 13 0 -7 3 -10 14 -7 24 3
11 9 17 14 14 5 -3 9 4 9 15 0 20 -5 21 -132 21 -73 0 -143 3 -155 6 -13 4
-23 2 -24 -2z"/>
<path fill="#ffffff" stroke="none" d="M288 269 c-2 -6 -8 -10 -13 -10 -5 0
-11 4 -13 10 -2 6 4 11 13 11 9 0 15 -5 13 -11z"/>
<path fill="#ffffff" stroke="none" d="M219 237 c-7 -15 -16 -24 -20 -21 -5 3
-1 16 7 30 21 31 29 25 13 -9z"/>
<path fill="#ffffff" stroke="none" d="M155 240 c3 -5 1 -10 -4 -10 -6 0 -11
5 -11 10 0 6 2 10 4 10 3 0 8 -4 11 -10z"/>
<path fill="#ffffff" stroke="none" d="M97 208 c-3 -8 -6 -5 -6 6 -1 11 2 17
5 13 3 -3 4 -12 1 -19z"/>
<path fill="#ffffff" stroke="none" d="M80 170 c5 8 11 7 24 -5 9 -9 13 -22 9
-28 -5 -8 -9 -6 -11 6 -2 9 -8 15 -13 11 -5 -3 -6 -10 -3 -16 4 -7 2 -8 -4 -4
-7 4 -12 3 -12 -3 0 -16 34 -18 52 -3 15 13 17 12 15 -6 0 -12 -6 -18 -14 -15
-7 3 -13 -1 -13 -8 0 -10 -3 -10 -8 -3 -4 6 -14 13 -22 16 -8 3 -15 18 -16 39
-1 19 1 28 4 20 3 -10 6 -10 12 -1z"/>
<path fill="#ffffff" stroke="none" d="M150 154 c0 -2 -7 -4 -15 -4 -8 0 -15
4 -15 10 0 5 7 7 15 4 8 -4 15 -8 15 -10z"/>
<path fill="#ffffff" stroke="none" d="M280 130 c0 -12 -3 -12 -16 2 -9 9 -13
21 -9 28 9 14 25 -5 25 -30z"/>
<path fill="#ffffff" stroke="none" d="M137 41 c0 -10 -7 -17 -13 -14 -7 3
-10 11 -7 19 8 20 22 17 20 -5z"/>
<path fill="#ffffff" stroke="none" d="M83 13 c-7 -2 -19 -2 -25 0 -7 3 -2 5
12 5 14 0 19 -2 13 -5z"/>
</g>
</svg>
