<?xml version="1.0" standalone="no"?>
<!DOCTYPE svg PUBLIC "-//W3C//DTD SVG 20010904//EN"
 "http://www.w3.org/TR/2001/REC-SVG-20010904/DTD/svg10.dtd">
<svg version="1.0" xmlns="http://www.w3.org/2000/svg"
 width="32.000000pt" height="32.000000pt" viewBox="0 0 32.000000 32.000000"
 preserveAspectRatio="xMidYMid meet">
<metadata>
Created by potrace 1.16, written by Peter Selinger 2001-2019
</metadata>
<g transform="translate(0.000000,32.000000) scale(0.100000,-0.100000)"
fill="#000000" stroke="none">
<path fill="#000000" stroke="none" d="M2 158 c1 -111 3 -145 8 -108 l7 55 1
-52 2 -53 150 0 150 0 0 160 0 160 -160 0 -160 0 2 -162z"/>
<path fill="#ffffff" stroke="none" d="M150 301 c-32 -4 -53 -10 -50 -16 3 -5
-7 -11 -22 -13 -22 -3 -27 0 -22 12 4 11 0 16 -14 16 -13 0 -22 -8 -25 -22 -4
-20 -4 -19 -6 5 l-1 27 98 -2 c80 -1 88 -2 42 -7z"/>
<path fill="#ffffff" stroke="none" d="M298 303 c-10 -2 -28 -2 -40 0 -13 2
-5 4 17 4 22 1 32 -1 23 -4z"/>
<path fill="#ffffff" stroke="none" d="M96 70 c0 -11 -4 -20 -8 -20 -4 0 -8 9
-8 20 0 11 4 20 8 20 4 0 8 -9 8 -20z"/>
</g>
</svg>
