<?xml version="1.0" standalone="no"?>
<!DOCTYPE svg PUBLIC "-//W3C//DTD SVG 20010904//EN"
 "http://www.w3.org/TR/2001/REC-SVG-20010904/DTD/svg10.dtd">
<svg version="1.0" xmlns="http://www.w3.org/2000/svg"
 width="32.000000pt" height="32.000000pt" viewBox="0 0 32.000000 32.000000"
 preserveAspectRatio="xMidYMid meet">
<metadata>
Created by potrace 1.16, written by Peter Selinger 2001-2019
</metadata>
<g transform="translate(0.000000,32.000000) scale(0.100000,-0.100000)"
fill="#000000" stroke="none">
<path fill="#000000" stroke="none" d="M1 298 c0 -16 2 -18 6 -8 3 8 11 18 17
22 7 5 4 8 -6 8 -12 0 -18 -7 -17 -22z"/>
<path fill="#000000" stroke="none" d="M98 313 c7 -3 16 -2 19 1 4 3 -2 6 -13
5 -11 0 -14 -3 -6 -6z"/>
<path fill="#000000" stroke="none" d="M167 313 c24 -2 62 -2 85 0 24 2 5 4
-42 4 -47 0 -66 -2 -43 -4z"/>
<path fill="#000000" stroke="none" d="M1 234 c0 -11 3 -14 6 -6 3 7 2 16 -1
19 -3 4 -6 -2 -5 -13z"/>
<path fill="#000000" stroke="none" d="M4 105 c0 -61 1 -84 3 -52 2 32 2 81 0
110 -2 29 -3 3 -3 -58z"/>
<path fill="#000000" stroke="none" d="M145 60 c10 -11 20 -20 23 -20 3 0 -3
9 -13 20 -10 11 -20 20 -23 20 -3 0 3 -9 13 -20z"/>
</g>
</svg>
