<?xml version="1.0" standalone="no"?>
<!DOCTYPE svg PUBLIC "-//W3C//DTD SVG 20010904//EN"
 "http://www.w3.org/TR/2001/REC-SVG-20010904/DTD/svg10.dtd">
<svg version="1.0" xmlns="http://www.w3.org/2000/svg"
 width="32.000000pt" height="32.000000pt" viewBox="0 0 32.000000 32.000000"
 preserveAspectRatio="xMidYMid meet">
<metadata>
Created by potrace 1.16, written by Peter Selinger 2001-2019
</metadata>
<g transform="translate(0.000000,32.000000) scale(0.100000,-0.100000)"
fill="#000000" stroke="none">
<path fill="#000000" stroke="none" d="M123 303 c9 -2 25 -2 35 0 9 3 1 5 -18
5 -19 0 -27 -2 -17 -5z"/>
<path fill="#000000" stroke="none" d="M12 280 c0 -14 2 -19 5 -12 2 6 2 18 0
25 -3 6 -5 1 -5 -13z"/>
<path fill="#000000" stroke="none" d="M14 85 c0 -50 1 -71 3 -48 2 23 2 64 0
90 -2 26 -3 8 -3 -42z"/>
<path fill="#000000" stroke="none" d="M150 139 c0 -8 7 -24 15 -35 18 -24 19
-7 0 26 -9 16 -14 19 -15 9z"/>
<path fill="#000000" stroke="none" d="M68 113 c6 -2 18 -2 25 0 6 3 1 5 -13
5 -14 0 -19 -2 -12 -5z"/>
<path fill="#000000" stroke="none" d="M34 75 c-1 -14 2 -25 7 -25 5 0 9 11 9
25 0 33 -15 33 -16 0z"/>
<path fill="#000000" stroke="none" d="M130 75 c-7 -9 -8 -15 -2 -15 5 0 12 7
16 15 3 8 4 15 2 15 -2 0 -9 -7 -16 -15z"/>
<path fill="#000000" stroke="none" d="M73 55 c-31 -33 -29 -38 15 -31 55 10
72 16 72 26 0 6 -10 6 -24 0 -27 -10 -37 -5 -29 16 8 21 -9 16 -34 -11z"/>
<path fill="#000000" stroke="none" d="M148 3 c6 -2 18 -2 25 0 6 3 1 5 -13 5
-14 0 -19 -2 -12 -5z"/>
<path fill="#000000" stroke="none" d="M238 3 c7 -3 16 -2 19 1 4 3 -2 6 -13
5 -11 0 -14 -3 -6 -6z"/>
</g>
</svg>
