<?xml version="1.0" standalone="no"?>
<!DOCTYPE svg PUBLIC "-//W3C//DTD SVG 20010904//EN"
 "http://www.w3.org/TR/2001/REC-SVG-20010904/DTD/svg10.dtd">
<svg version="1.0" xmlns="http://www.w3.org/2000/svg"
 width="32.000000pt" height="32.000000pt" viewBox="0 0 32.000000 32.000000"
 preserveAspectRatio="xMidYMid meet">
<metadata>
Created by potrace 1.16, written by Peter Selinger 2001-2019
</metadata>
<g transform="translate(0.000000,32.000000) scale(0.100000,-0.100000)"
fill="#000000" stroke="none">
<path fill="#000000" stroke="none" d="M0 161 l0 -159 79 -1 c75 -1 80 0 83
22 2 17 9 22 33 21 17 0 33 4 36 9 3 5 19 -3 34 -17 52 -48 55 -41 54 120 l-1
145 -104 -2 c-75 -2 -105 -6 -108 -16 -3 -7 -12 -13 -21 -13 -8 0 -15 -4 -15
-10 0 -6 3 -9 8 -9 22 4 32 -3 32 -21 0 -11 5 -20 10 -20 6 0 10 -6 10 -14 0
-7 10 -16 23 -20 17 -5 19 -8 8 -15 -8 -5 -20 -7 -28 -4 -7 3 -13 0 -13 -6 0
-6 18 -11 43 -11 l42 0 -29 -25 c-33 -28 -37 -30 -33 -13 1 6 -6 14 -15 16
-11 2 -18 -2 -18 -12 0 -9 5 -16 12 -16 6 0 8 -3 5 -7 -4 -3 -2 -12 5 -20 9
-11 7 -12 -16 -4 -18 7 -26 7 -26 0 0 -6 -5 -7 -11 -3 -8 4 -8 9 0 17 17 17
13 37 -6 31 -17 -5 -17 -5 -1 9 10 8 18 18 18 23 0 4 -5 3 -12 -4 -9 -9 -17
-7 -35 10 l-23 21 0 -55 c0 -31 4 -58 9 -60 5 -1 3 -12 -5 -22 -12 -18 -14 -2
-14 132 l0 151 158 4 157 3 -162 2 -163 2 0 -159z"/>
<path fill="#ffffff" stroke="none" d="M220 280 c-8 -5 -19 -10 -25 -10 -5 0
-3 5 5 10 8 5 20 10 25 10 6 0 3 -5 -5 -10z"/>
<path fill="#ffffff" stroke="none" d="M256 227 c-2 -12 -6 -21 -9 -19 -4 1
-11 2 -17 2 -5 0 -10 5 -10 11 0 5 5 7 10 4 6 -3 10 1 10 10 0 10 -5 13 -12 9
-7 -4 -8 -3 -4 4 11 18 36 2 32 -21z"/>
<path fill="#ffffff" stroke="none" d="M210 68 c0 -6 -3 -8 -6 -5 -4 3 -15 2
-25 -4 -12 -6 -19 -6 -19 0 0 10 17 19 38 20 6 1 12 -4 12 -11z"/>
<path fill="#ffffff" stroke="none" d="M117 24 c-2 -3 -14 -7 -27 -9 -18 -3
-20 -2 -10 10 7 8 16 12 21 9 5 -3 9 1 10 8 0 11 2 11 6 0 3 -7 3 -15 0 -18z"/>
<path fill="#000000" stroke="none" d="M45 290 c-3 -5 -2 -10 4 -10 5 0 13 5
16 10 3 6 2 10 -4 10 -5 0 -13 -4 -16 -10z"/>
<path fill="#000000" stroke="none" d="M184 18 c-3 -4 -4 -8 -2 -9 39 -10 78
-5 78 9 0 10 -70 10 -76 0z"/>
</g>
</svg>
