<?xml version="1.0" standalone="no"?>
<!DOCTYPE svg PUBLIC "-//W3C//DTD SVG 20010904//EN"
 "http://www.w3.org/TR/2001/REC-SVG-20010904/DTD/svg10.dtd">
<svg version="1.0" xmlns="http://www.w3.org/2000/svg"
 width="32.000000pt" height="32.000000pt" viewBox="0 0 32.000000 32.000000"
 preserveAspectRatio="xMidYMid meet">
<metadata>
Created by potrace 1.16, written by Peter Selinger 2001-2019
</metadata>
<g transform="translate(0.000000,32.000000) scale(0.100000,-0.100000)"
fill="#000000" stroke="none">
<path fill="#000000" stroke="none" d="M310 277 c0 -41 -30 -63 -63 -46 -12 6
-19 8 -15 5 3 -4 -2 -16 -13 -27 -21 -21 -25 -59 -8 -76 7 -7 23 -8 45 -3 32
7 35 6 32 -12 -2 -12 -13 -25 -25 -29 -13 -5 -22 -5 -20 -1 5 17 -19 9 -25 -9
-4 -11 -3 -19 3 -19 6 0 9 -7 5 -15 -3 -8 -1 -15 4 -15 6 0 10 -4 10 -10 0 -5
-23 -10 -51 -10 -36 0 -48 3 -43 12 5 7 2 9 -9 5 -11 -4 -14 -2 -10 9 3 7 16
14 29 14 13 0 24 5 24 11 0 5 -4 8 -9 5 -5 -4 -7 3 -4 14 3 11 9 17 14 14 5
-3 9 -1 9 5 0 5 -5 13 -11 17 -8 4 -7 9 2 15 11 7 10 9 -3 9 -12 0 -18 -8 -18
-21 0 -18 -4 -21 -30 -16 -23 5 -28 3 -23 -9 3 -8 12 -13 19 -10 15 6 14 -15
-1 -26 -13 -10 -27 -10 -21 0 2 4 1 14 -3 21 -6 8 -10 3 -14 -18 -7 -32 -27
-43 -27 -15 0 9 5 12 12 8 7 -5 8 -3 4 5 -5 7 -11 10 -14 7 -3 -3 -14 2 -25
11 -11 10 -17 13 -14 6 4 -6 4 -13 0 -16 -5 -2 -2 -2 5 0 9 2 11 -4 7 -20 -4
-13 -3 -17 2 -10 6 9 12 7 21 -8 11 -17 10 -20 -5 -17 -10 2 -23 12 -30 23
-12 19 -12 18 -13 -7 l0 -28 155 0 155 0 0 155 c0 85 -2 155 -5 155 -3 0 -5
-15 -5 -33z"/>
<path fill="#ffffff" stroke="none" d="M256 201 c-3 -4 -1 -13 4 -21 7 -12 12
-12 22 -2 21 21 28 14 27 -25 -1 -23 -3 -29 -6 -16 -4 19 -8 21 -29 13 -17 -7
-23 -7 -19 0 3 6 -3 10 -15 10 -13 0 -19 -4 -14 -12 5 -7 3 -8 -5 -4 -9 6 -9
12 3 25 9 10 16 25 16 35 0 9 5 14 10 11 6 -4 8 -10 6 -14z"/>
<path fill="#ffffff" stroke="none" d="M284 195 c-4 -8 -11 -12 -16 -9 -6 4
-5 10 3 15 19 12 19 11 13 -6z"/>
<path fill="#ffffff" stroke="none" d="M306 42 c-10 -17 -59 -7 -62 12 -4 27
38 38 54 15 7 -11 11 -23 8 -27z"/>
<path fill="#000000" stroke="none" d="M137 294 c-4 -4 -7 -15 -7 -25 0 -12
-5 -16 -14 -13 -11 4 -13 0 -9 -15 3 -12 10 -21 15 -21 5 0 6 -4 3 -10 -3 -5
-1 -10 6 -10 8 0 7 -5 -2 -17 -13 -15 -12 -15 9 -4 25 13 28 27 10 34 -7 3 -2
6 12 6 19 1 21 4 11 10 -8 5 -20 7 -28 4 -18 -7 -17 2 3 21 17 17 49 22 39 6
-3 -5 -2 -10 4 -10 15 0 25 20 15 30 -13 13 -59 22 -67 14z"/>
<path fill="#000000" stroke="none" d="M66 242 c-4 -7 -17 -10 -32 -6 -21 5
-24 3 -24 -21 0 -20 4 -26 15 -21 17 6 20 -12 4 -34 -9 -12 -10 -11 -4 5 5 17
4 18 -7 7 -11 -11 -10 -16 6 -28 13 -9 15 -14 6 -14 -7 0 -10 -3 -7 -6 4 -4
13 -1 21 5 8 7 20 10 27 6 6 -4 4 4 -6 18 -11 18 -13 27 -5 32 6 4 9 13 6 20
-3 8 0 15 6 17 6 2 9 10 6 18 -3 10 -6 11 -12 2z"/>
</g>
</svg>
