<?xml version="1.0" standalone="no"?>
<!DOCTYPE svg PUBLIC "-//W3C//DTD SVG 20010904//EN"
 "http://www.w3.org/TR/2001/REC-SVG-20010904/DTD/svg10.dtd">
<svg version="1.0" xmlns="http://www.w3.org/2000/svg"
 width="32.000000pt" height="32.000000pt" viewBox="0 0 32.000000 32.000000"
 preserveAspectRatio="xMidYMid meet">
<metadata>
Created by potrace 1.16, written by Peter Selinger 2001-2019
</metadata>
<g transform="translate(0.000000,32.000000) scale(0.100000,-0.100000)"
fill="#000000" stroke="none">
<path fill="#000000" stroke="none" d="M10 293 c0 -10 5 -25 11 -33 8 -12 9
-10 4 9 -5 15 -2 27 6 32 11 7 10 9 -3 9 -11 0 -18 -7 -18 -17z"/>
<path fill="#000000" stroke="none" d="M200 295 c-14 -16 -6 -35 16 -35 8 0
14 -6 14 -14 0 -22 38 -30 56 -12 8 9 18 16 22 16 3 0 1 -5 -6 -12 -15 -15
-16 -32 -2 -23 6 3 10 3 10 -2 -1 -19 -17 -31 -40 -29 -34 3 -43 -3 -30 -19 8
-9 8 -15 0 -20 -5 -3 -10 -11 -10 -16 0 -6 5 -7 10 -4 6 3 10 1 10 -5 0 -7 7
-10 15 -6 10 3 15 -1 15 -14 0 -23 17 -36 17 -12 0 21 -16 44 -27 37 -5 -3
-11 -1 -14 4 -4 5 -1 13 5 17 7 4 16 -1 22 -12 10 -17 11 -17 18 1 4 12 7 -10
7 -50 -1 -65 -2 -71 -22 -72 -11 -1 -16 1 -9 4 7 2 9 11 6 20 -4 11 -2 14 5 9
7 -4 12 -2 12 3 0 15 -11 13 -34 -4 -10 -7 -15 -18 -11 -24 3 -6 -1 -11 -9
-11 -21 0 -20 24 0 44 8 9 11 16 5 16 -6 0 -11 6 -11 14 0 8 -7 17 -16 20 -8
3 -13 2 -10 -3 3 -5 -3 -20 -14 -32 -12 -15 -19 -19 -20 -10 0 22 -30 -7 -30
-30 0 -16 -10 -19 -72 -22 -40 -1 -2 -4 85 -5 l157 -2 -1 158 c0 97 -4 149 -9
137 -5 -11 -9 -14 -9 -7 -1 9 -8 11 -20 7 -46 -14 -63 -14 -57 0 7 19 -8 19
-24 0z"/>
<path fill="#ffffff" stroke="none" d="M210 25 c7 -9 8 -15 2 -15 -5 0 -12 7
-16 15 -3 8 -4 15 -2 15 2 0 9 -7 16 -15z"/>
<path fill="#000000" stroke="none" d="M68 272 c-24 -5 -23 -33 2 -39 11 -3
20 -13 20 -23 0 -10 6 -21 13 -24 6 -3 -5 -5 -25 -3 -42 3 -44 2 -24 -19 11
-11 16 -11 20 -1 3 6 4 -1 2 -16 -2 -17 1 -26 8 -24 6 2 10 13 8 23 -3 16 0
15 14 -5 16 -23 16 -25 0 -36 -16 -12 -16 -14 0 -29 13 -13 14 -19 4 -31 -7
-9 -8 -15 -2 -15 5 0 15 14 22 31 8 19 16 26 20 19 5 -7 10 -2 14 15 4 14 4
30 1 36 -4 5 -1 8 6 7 6 -2 14 3 16 11 4 8 0 12 -8 9 -8 -3 -19 5 -24 16 -6
12 -18 20 -27 18 -9 -1 -19 2 -23 8 -3 5 1 10 9 10 9 0 16 5 16 11 0 6 9 9 19
6 16 -4 19 0 19 23 -1 21 -6 28 -19 27 -14 -1 -15 -5 -8 -19 5 -10 7 -18 4
-18 -9 0 -49 22 -55 29 -3 4 -13 5 -22 3z"/>
<path fill="#ffffff" stroke="none" d="M120 228 c0 -6 -6 -5 -15 2 -8 7 -15
14 -15 16 0 2 7 1 15 -2 8 -4 15 -11 15 -16z"/>
<path fill="#ffffff" stroke="none" d="M140 165 c0 -8 -4 -15 -9 -15 -13 0
-22 16 -14 24 11 11 23 6 23 -9z"/>
<path fill="#000000" stroke="none" d="M200 248 c0 -3 6 -18 14 -32 8 -17 15
-22 18 -14 3 7 -3 22 -13 32 -11 11 -19 17 -19 14z"/>
<path fill="#000000" stroke="none" d="M27 229 c7 -7 15 -10 18 -7 3 3 -2 9
-12 12 -14 6 -15 5 -6 -5z"/>
<path fill="#000000" stroke="none" d="M50 210 c-14 -4 -20 -9 -15 -10 6 -1
18 -3 28 -5 9 -2 17 3 17 11 0 8 -1 14 -2 13 -2 -1 -14 -5 -28 -9z"/>
<path fill="#000000" stroke="none" d="M180 200 c1 -8 7 -24 15 -34 19 -25 19
-16 0 20 -8 16 -15 22 -15 14z"/>
<path fill="#000000" stroke="none" d="M10 146 c0 -2 7 -9 15 -16 13 -11 14
-10 9 4 -5 14 -24 23 -24 12z"/>
<path fill="#000000" stroke="none" d="M189 133 c-1 -5 -1 -12 0 -17 1 -4 -4
-14 -10 -22 -8 -10 -8 -14 0 -14 11 0 13 5 15 33 1 6 6 15 11 19 6 5 5 8 -2 8
-7 0 -14 -3 -14 -7z"/>
<path fill="#000000" stroke="none" d="M21 89 c8 -17 8 -23 -1 -29 -7 -5 -10
-15 -7 -24 5 -14 11 -15 27 -6 11 6 20 15 20 21 0 6 4 7 10 4 5 -3 7 0 4 9 -3
9 -12 12 -22 9 -14 -5 -14 -3 2 15 20 23 9 31 -12 10 -9 -9 -12 -9 -12 0 0 7
-5 12 -10 12 -7 0 -7 -7 1 -21z"/>
</g>
</svg>
