<?xml version="1.0" standalone="no"?>
<!DOCTYPE svg PUBLIC "-//W3C//DTD SVG 20010904//EN"
 "http://www.w3.org/TR/2001/REC-SVG-20010904/DTD/svg10.dtd">
<svg version="1.0" xmlns="http://www.w3.org/2000/svg"
 width="32.000000pt" height="32.000000pt" viewBox="0 0 32.000000 32.000000"
 preserveAspectRatio="xMidYMid meet">
<metadata>
Created by potrace 1.16, written by Peter Selinger 2001-2019
</metadata>
<g transform="translate(0.000000,32.000000) scale(0.100000,-0.100000)"
fill="#000000" stroke="none">
<path fill="#000000" stroke="none" d="M0 213 c0 -119 10 -131 22 -26 1 7 5
10 10 7 4 -3 3 -14 -2 -25 -8 -14 -7 -25 5 -42 17 -27 16 -57 -5 -81 -10 -14
-15 -14 -21 -4 -6 9 -9 4 -9 -14 l0 -28 159 0 c159 0 160 0 159 23 -1 12 -8
30 -17 40 -13 16 -13 17 1 12 14 -6 16 7 17 109 1 118 -6 138 -34 99 -11 -14
-15 -15 -28 -4 -9 7 -25 10 -35 7 -12 -4 -22 -1 -25 7 -8 21 50 21 63 0 11
-17 11 -17 6 1 -4 12 -2 17 6 13 7 -2 22 -1 33 4 11 4 -52 8 -142 8 l-163 1 0
-107z"/>
<path fill="#ffffff" stroke="none" d="M140 300 c11 -8 8 -9 -13 -4 -24 5 -26
4 -20 -12 6 -17 5 -17 -10 -5 -9 7 -17 10 -17 7 0 -4 -5 -4 -12 0 -8 5 -6 10
8 15 27 11 47 10 64 -1z"/>
<path fill="#ffffff" stroke="none" d="M41 291 c-7 -5 -11 -13 -7 -19 3 -6 1
-14 -4 -17 -7 -5 -5 -12 7 -21 17 -13 17 -14 -1 -7 -14 5 -17 3 -11 -7 5 -9 4
-11 -3 -6 -24 14 -5 86 22 86 6 0 5 -4 -3 -9z"/>
<path fill="#ffffff" stroke="none" d="M172 273 c-6 -3 -9 -10 -6 -15 4 -7 2
-8 -5 -4 -9 6 -9 11 0 22 6 8 15 12 18 8 3 -4 0 -9 -7 -11z"/>
<path fill="#ffffff" stroke="none" d="M87 255 c0 -8 -4 -12 -9 -9 -4 3 -8 -3
-9 -13 0 -11 -3 -13 -6 -5 -3 7 1 19 7 27 15 19 17 19 17 0z"/>
<path fill="#ffffff" stroke="none" d="M240 233 c-11 -17 -11 -17 -6 0 3 10 6
24 7 30 0 9 2 9 5 0 3 -7 0 -20 -6 -30z"/>
<path fill="#ffffff" stroke="none" d="M292 219 c-13 -11 -27 -17 -34 -13 -8
5 -2 12 17 20 41 18 42 17 17 -7z"/>
<path fill="#ffffff" stroke="none" d="M125 187 c1 -7 6 -11 11 -10 6 1 11 -5
11 -13 0 -10 -4 -11 -11 -4 -20 20 -29 10 -10 -12 l19 -22 -27 20 c-26 18 -40
43 -16 28 7 -5 9 -2 5 8 -6 17 2 32 12 22 3 -3 6 -11 6 -17z"/>
<path fill="#ffffff" stroke="none" d="M61 167 c-10 -9 -11 -8 -5 6 3 10 9 15
12 12 3 -3 0 -11 -7 -18z"/>
<path fill="#ffffff" stroke="none" d="M307 150 c-1 -11 -5 -20 -9 -20 -10 0
-10 4 -2 24 8 22 13 20 11 -4z"/>
<path fill="#ffffff" stroke="none" d="M90 146 c0 -2 -7 -7 -16 -10 -8 -3 -12
-2 -9 4 6 10 25 14 25 6z"/>
<path fill="#ffffff" stroke="none" d="M248 126 c7 -4 10 -12 7 -17 -4 -5 -1
-9 6 -9 7 0 10 -3 6 -6 -3 -3 -12 -2 -19 2 -7 5 -19 9 -27 9 -8 0 -15 7 -16
16 -3 16 20 19 43 5z"/>
<path fill="#ffffff" stroke="none" d="M307 98 c-3 -8 -6 -5 -6 6 -1 11 2 17
5 13 3 -3 4 -12 1 -19z"/>
<path fill="#ffffff" stroke="none" d="M214 79 c-4 -8 1 -9 17 -5 20 6 21 5 6
-4 -19 -12 -41 -4 -32 11 4 5 8 9 11 9 3 0 2 -5 -2 -11z"/>
<path fill="#ffffff" stroke="none" d="M114 54 c-19 -15 -19 -16 1 -9 15 5 17
3 8 -6 -20 -20 -37 0 -17 22 9 11 20 17 22 14 3 -3 -3 -12 -14 -21z"/>
<path fill="#ffffff" stroke="none" d="M55 18 c-19 -11 -30 -5 -21 11 4 6 14
7 22 4 15 -5 14 -7 -1 -15z"/>
<path fill="#ffffff" stroke="none" d="M300 25 c-7 -8 -17 -15 -22 -15 -11 0
14 29 26 30 5 0 3 -7 -4 -15z"/>
<path fill="#000000" stroke="none" d="M220 120 c-12 -7 -10 -9 7 -7 12 0 19
5 17 9 -6 10 -6 10 -24 -2z"/>
<path fill="#000000" stroke="none" d="M10 100 c-12 -8 -13 -12 -2 -19 8 -4
13 -11 13 -15 -1 -3 2 -7 6 -8 3 -2 7 5 9 15 1 9 -2 15 -7 11 -5 -3 -9 -1 -9
5 0 5 6 12 13 14 6 3 8 6 2 6 -5 0 -17 -4 -25 -9z"/>
</g>
</svg>
