<?xml version="1.0" standalone="no"?>
<!DOCTYPE svg PUBLIC "-//W3C//DTD SVG 20010904//EN"
 "http://www.w3.org/TR/2001/REC-SVG-20010904/DTD/svg10.dtd">
<svg version="1.0" xmlns="http://www.w3.org/2000/svg"
 width="32.000000pt" height="32.000000pt" viewBox="0 0 32.000000 32.000000"
 preserveAspectRatio="xMidYMid meet">
<metadata>
Created by potrace 1.16, written by Peter Selinger 2001-2019
</metadata>
<g transform="translate(0.000000,32.000000) scale(0.100000,-0.100000)"
fill="#000000" stroke="none">
<path fill="#000000" stroke="none" d="M169 299 c-6 -3 -33 -4 -60 -2 -32 2
-48 -1 -44 -7 4 -6 10 -8 15 -5 5 3 11 1 15 -5 4 -6 11 -7 17 -4 6 4 24 8 40
10 21 3 27 0 22 -9 -6 -8 -3 -8 9 1 13 12 19 10 34 -7 19 -23 33 -27 33 -10 0
5 -5 7 -12 3 -8 -5 -9 -2 -5 10 5 11 3 15 -5 10 -7 -5 -9 -2 -5 8 4 12 -1 15
-20 14 -14 0 -29 -4 -34 -7z"/>
<path fill="#000000" stroke="none" d="M251 288 c12 -22 15 -22 44 0 l23 19
-38 -1 c-34 0 -37 -2 -29 -18z"/>
<path fill="#000000" stroke="none" d="M22 287 c-11 -13 -10 -72 1 -83 3 -4 5
10 3 30 -4 36 -3 37 15 20 11 -10 19 -12 19 -6 0 7 -5 12 -11 12 -5 0 -7 5 -4
10 3 6 0 10 -7 10 -9 0 -9 3 2 10 8 5 10 10 4 10 -6 0 -16 -6 -22 -13z"/>
<path fill="#000000" stroke="none" d="M175 229 c-11 -16 -1 -19 13 -3 7 8 8
14 3 14 -5 0 -13 -5 -16 -11z"/>
<path fill="#000000" stroke="none" d="M275 226 c-19 -8 -25 -15 -17 -20 7 -4
21 2 34 13 25 24 24 25 -17 7z"/>
<path fill="#000000" stroke="none" d="M86 212 c-3 -5 1 -9 9 -9 8 0 12 4 9 9
-3 4 -7 8 -9 8 -2 0 -6 -4 -9 -8z"/>
<path fill="#000000" stroke="none" d="M220 211 c0 -6 4 -13 10 -16 6 -3 7 1
4 9 -7 18 -14 21 -14 7z"/>
<path fill="#000000" stroke="none" d="M15 159 c-4 -6 -4 -13 -1 -16 3 -3 0
-15 -6 -26 -9 -17 -8 -19 7 -13 10 3 25 1 33 -6 9 -7 6 2 -7 19 -12 18 -19 37
-16 43 3 5 4 10 1 10 -3 0 -8 -5 -11 -11z"/>
<path fill="#000000" stroke="none" d="M187 159 c7 -7 15 -10 18 -7 3 3 -2 9
-12 12 -14 6 -15 5 -6 -5z"/>
<path fill="#000000" stroke="none" d="M287 139 c-14 -26 -15 -30 -2 -25 10 3
15 -1 16 -12 0 -14 2 -14 9 3 4 11 4 24 0 29 -5 5 -6 15 -3 22 9 24 -1 15 -20
-17z"/>
<path fill="#000000" stroke="none" d="M226 144 c-3 -8 -2 -12 4 -9 6 3 10 2
10 -4 0 -5 -8 -15 -17 -20 -10 -6 -13 -11 -7 -11 16 0 31 21 31 43 0 21 -13
22 -21 1z"/>
<path fill="#000000" stroke="none" d="M110 110 c-9 -6 -10 -10 -3 -10 6 0 15
5 18 10 8 12 4 12 -15 0z"/>
<path fill="#000000" stroke="none" d="M260 93 c27 -10 49 -35 43 -49 -4 -11
-9 -12 -19 -3 -10 8 -13 6 -11 -10 1 -22 12 -27 22 -11 4 6 10 8 14 6 3 -3 7
5 7 17 0 24 -33 57 -56 56 -13 -1 -13 -1 0 -6z"/>
<path fill="#000000" stroke="none" d="M1 78 c-1 -28 10 -47 25 -41 10 4 12 0
8 -11 -6 -17 4 -21 22 -8 7 5 3 15 -13 30 -12 12 -23 19 -24 15 0 -4 -4 1 -9
12 -7 16 -9 17 -9 3z"/>
<path fill="#000000" stroke="none" d="M70 55 c-7 -9 -8 -15 -2 -15 5 0 12 7
16 15 3 8 4 15 2 15 -2 0 -9 -7 -16 -15z"/>
<path fill="#000000" stroke="none" d="M220 59 c0 -5 5 -7 10 -4 6 3 10 8 10
11 0 2 -4 4 -10 4 -5 0 -10 -5 -10 -11z"/>
<path fill="#000000" stroke="none" d="M120 49 c0 -5 5 -7 10 -4 6 3 10 8 10
11 0 2 -4 4 -10 4 -5 0 -10 -5 -10 -11z"/>
</g>
</svg>
