<?xml version="1.0" standalone="no"?>
<!DOCTYPE svg PUBLIC "-//W3C//DTD SVG 20010904//EN"
 "http://www.w3.org/TR/2001/REC-SVG-20010904/DTD/svg10.dtd">
<svg version="1.0" xmlns="http://www.w3.org/2000/svg"
 width="32.000000pt" height="32.000000pt" viewBox="0 0 32.000000 32.000000"
 preserveAspectRatio="xMidYMid meet">
<metadata>
Created by potrace 1.16, written by Peter Selinger 2001-2019
</metadata>
<g transform="translate(0.000000,32.000000) scale(0.100000,-0.100000)"
fill="#000000" stroke="none">
<path fill="#000000" stroke="none" d="M208 133 c-10 -2 -18 -11 -18 -20 0
-13 3 -13 15 -3 13 11 14 10 9 -6 -4 -10 -4 -16 0 -13 6 5 18 51 13 48 -1 -1
-10 -3 -19 -6z"/>
<path fill="#000000" stroke="none" d="M95 110 c-4 -6 -3 -16 3 -22 13 -13 23
4 13 21 -7 10 -10 10 -16 1z"/>
<path fill="#000000" stroke="none" d="M219 53 c-13 -16 -12 -17 4 -4 9 7 17
15 17 17 0 8 -8 3 -21 -13z"/>
</g>
</svg>
