<?xml version="1.0" standalone="no"?>
<!DOCTYPE svg PUBLIC "-//W3C//DTD SVG 20010904//EN"
 "http://www.w3.org/TR/2001/REC-SVG-20010904/DTD/svg10.dtd">
<svg version="1.0" xmlns="http://www.w3.org/2000/svg"
 width="32.000000pt" height="32.000000pt" viewBox="0 0 32.000000 32.000000"
 preserveAspectRatio="xMidYMid meet">
<metadata>
Created by potrace 1.16, written by Peter Selinger 2001-2019
</metadata>
<g transform="translate(0.000000,32.000000) scale(0.100000,-0.100000)"
fill="#000000" stroke="none">
<path fill="#000000" stroke="none" d="M116 281 c-3 -5 1 -11 9 -15 8 -3 15
-1 15 4 0 13 -18 22 -24 11z"/>
<path fill="#000000" stroke="none" d="M40 216 c0 -4 7 -14 15 -22 8 -9 15
-11 15 -6 0 5 -7 15 -15 22 -8 7 -15 9 -15 6z"/>
<path fill="#000000" stroke="none" d="M120 111 c0 -6 4 -13 10 -16 6 -3 7 1
4 9 -7 18 -14 21 -14 7z"/>
</g>
</svg>
