<?xml version="1.0" standalone="no"?>
<!DOCTYPE svg PUBLIC "-//W3C//DTD SVG 20010904//EN"
 "http://www.w3.org/TR/2001/REC-SVG-20010904/DTD/svg10.dtd">
<svg version="1.0" xmlns="http://www.w3.org/2000/svg"
 width="32.000000pt" height="32.000000pt" viewBox="0 0 32.000000 32.000000"
 preserveAspectRatio="xMidYMid meet">
<metadata>
Created by potrace 1.16, written by Peter Selinger 2001-2019
</metadata>
<g transform="translate(0.000000,32.000000) scale(0.100000,-0.100000)"
fill="#000000" stroke="none">
<path fill="#000000" stroke="none" d="M17 303 c-4 -3 -7 -16 -6 -27 0 -20 1
-20 9 2 5 12 14 22 20 22 6 0 8 -5 4 -12 -4 -7 -3 -8 4 -4 7 4 12 2 12 -5 0
-7 3 -9 6 -6 4 4 1 13 -6 22 -13 16 -32 20 -43 8z"/>
<path fill="#000000" stroke="none" d="M97 296 c-3 -8 -1 -31 4 -51 8 -27 7
-40 -3 -53 -8 -10 -9 -13 -1 -9 6 4 18 21 26 37 13 25 13 31 1 41 -8 6 -14 19
-14 28 0 14 2 14 10 1 8 -12 10 -12 10 -1 0 13 15 13 78 -2 12 -3 22 -2 22 3
0 5 10 11 23 13 19 4 19 4 -5 6 -15 0 -30 -4 -33 -9 -4 -7 -12 -7 -25 0 -28
15 -87 12 -93 -4z"/>
<path fill="#ffffff" stroke="none" d="M130 246 c0 -3 -4 -8 -10 -11 -5 -3
-10 -1 -10 4 0 6 5 11 10 11 6 0 10 -2 10 -4z"/>
<path fill="#000000" stroke="none" d="M282 294 c-14 -16 -8 -34 11 -33 7 0 6
3 -2 6 -11 4 -8 10 10 24 16 12 19 19 9 18 -8 0 -21 -6 -28 -15z"/>
<path fill="#000000" stroke="none" d="M187 249 c7 -7 15 -10 18 -7 3 3 -2 9
-12 12 -14 6 -15 5 -6 -5z"/>
<path fill="#000000" stroke="none" d="M67 233 c-11 -10 -8 -35 3 -28 6 4 8
10 5 15 -3 4 1 11 7 13 7 3 8 6 2 6 -6 1 -14 -2 -17 -6z"/>
<path fill="#000000" stroke="none" d="M14 216 c-3 -8 -4 -24 -2 -36 3 -20 4
-20 23 -6 16 13 17 15 3 10 -14 -5 -18 -1 -18 16 0 16 4 20 16 16 8 -3 12 -2
9 4 -9 14 -25 12 -31 -4z"/>
<path fill="#000000" stroke="none" d="M245 220 c-3 -5 -2 -10 4 -10 5 0 13 5
16 10 3 6 2 10 -4 10 -5 0 -13 -4 -16 -10z"/>
<path fill="#000000" stroke="none" d="M231 184 c0 -11 3 -14 6 -6 3 7 2 16
-1 19 -3 4 -6 -2 -5 -13z"/>
<path fill="#000000" stroke="none" d="M283 185 c0 -8 4 -15 9 -15 4 0 8 4 8
9 0 6 -4 12 -8 15 -5 3 -9 -1 -9 -9z"/>
<path fill="#000000" stroke="none" d="M195 160 c-3 -6 1 -7 9 -4 18 7 21 14
7 14 -6 0 -13 -4 -16 -10z"/>
<path fill="#000000" stroke="none" d="M32 144 c-16 -11 -22 -24 -21 -47 l2
-32 4 30 c3 17 9 35 15 40 7 7 8 3 4 -11 -4 -13 -1 -26 8 -33 12 -10 17 -8 25
7 8 15 7 23 -5 33 -12 10 -12 14 -2 20 7 5 8 9 3 9 -6 0 -21 -7 -33 -16z"/>
<path fill="#ffffff" stroke="none" d="M65 121 c3 -5 1 -12 -5 -16 -5 -3 -10
1 -10 9 0 18 6 21 15 7z"/>
<path fill="#000000" stroke="none" d="M225 150 c-3 -6 1 -7 9 -4 18 7 21 14
7 14 -6 0 -13 -4 -16 -10z"/>
<path fill="#000000" stroke="none" d="M97 143 c-10 -10 -8 -23 4 -23 5 0 8 4
5 9 -4 5 0 12 6 14 7 3 8 6 2 6 -6 1 -14 -2 -17 -6z"/>
<path fill="#000000" stroke="none" d="M177 133 c-4 -3 -7 -11 -7 -17 0 -6 5
-5 12 2 6 6 9 14 7 17 -3 3 -9 2 -12 -2z"/>
<path fill="#000000" stroke="none" d="M151 114 c0 -11 3 -14 6 -6 3 7 2 16
-1 19 -3 4 -6 -2 -5 -13z"/>
<path fill="#000000" stroke="none" d="M280 115 c0 -8 4 -15 10 -15 5 0 7 7 4
15 -4 8 -8 15 -10 15 -2 0 -4 -7 -4 -15z"/>
<path fill="#000000" stroke="none" d="M52 69 c-31 -15 -42 -25 -41 -42 0 -12
3 -16 6 -9 2 6 10 9 16 5 7 -4 25 -8 41 -9 l28 -3 -22 16 c-19 13 -24 13 -31
2 -6 -9 -9 -10 -9 -2 0 6 10 19 22 28 21 14 23 14 31 -2 6 -14 7 -13 3 4 -2
14 2 23 13 26 12 4 12 5 1 5 -8 0 -34 -8 -58 -19z"/>
<path fill="#000000" stroke="none" d="M110 62 c0 -6 9 -12 20 -15 11 -3 20
-3 20 -1 0 2 -9 8 -20 14 -11 6 -20 7 -20 2z"/>
<path fill="#000000" stroke="none" d="M190 36 c0 -2 7 -7 16 -10 8 -3 12 -2
9 4 -6 10 -25 14 -25 6z"/>
</g>
</svg>
