<?xml version="1.0" standalone="no"?>
<!DOCTYPE svg PUBLIC "-//W3C//DTD SVG 20010904//EN"
 "http://www.w3.org/TR/2001/REC-SVG-20010904/DTD/svg10.dtd">
<svg version="1.0" xmlns="http://www.w3.org/2000/svg"
 width="32.000000pt" height="32.000000pt" viewBox="0 0 32.000000 32.000000"
 preserveAspectRatio="xMidYMid meet">
<metadata>
Created by potrace 1.16, written by Peter Selinger 2001-2019
</metadata>
<g transform="translate(0.000000,32.000000) scale(0.100000,-0.100000)"
fill="#000000" stroke="none">
<path fill="#000000" stroke="none" d="M0 160 l0 -161 160 2 160 1 0 26 c-1
23 -3 25 -13 12 -7 -8 -21 -17 -31 -18 -17 -3 -18 -1 -7 12 7 8 21 18 32 21
17 6 19 17 19 126 0 119 0 120 -21 108 -17 -9 -19 -13 -8 -20 9 -6 10 -9 2 -9
-32 0 -20 38 17 53 8 3 -58 6 -147 6 l-163 1 0 -160z"/>
<path fill="#ffffff" stroke="none" d="M97 295 c0 -12 -3 -12 -16 -2 -12 9
-13 9 -7 0 4 -7 3 -13 -3 -13 -5 0 -17 -3 -27 -7 -13 -5 -15 -3 -9 7 5 9 4 11
-3 6 -7 -4 -12 -14 -12 -22 0 -9 5 -12 12 -8 7 4 8 3 4 -4 -12 -20 -26 -13
-26 11 0 32 18 47 55 47 21 0 32 -5 32 -15z"/>
<path fill="#ffffff" stroke="none" d="M155 303 c-11 -3 -23 -10 -27 -17 -5
-7 -8 -7 -8 0 0 16 11 24 34 23 20 -1 20 -1 1 -6z"/>
<path fill="#ffffff" stroke="none" d="M220 300 c0 -5 -7 -10 -15 -10 -8 0
-15 5 -15 10 0 6 7 10 15 10 8 0 15 -4 15 -10z"/>
<path fill="#ffffff" stroke="none" d="M261 301 c-7 -5 -10 -14 -7 -20 4 -6 5
-11 2 -11 -3 0 -10 9 -16 20 -9 17 -8 20 12 20 17 0 19 -3 9 -9z"/>
<path fill="#ffffff" stroke="none" d="M210 268 c0 -4 -7 -8 -15 -8 -8 0 -15
4 -15 8 0 5 7 9 15 9 8 0 15 -4 15 -9z"/>
<path fill="#ffffff" stroke="none" d="M130 256 c0 -2 -7 -6 -15 -10 -8 -3
-15 -1 -15 4 0 6 7 10 15 10 8 0 15 -2 15 -4z"/>
<path fill="#ffffff" stroke="none" d="M232 246 c-13 -7 -32 -26 -43 -42 -10
-16 -19 -23 -19 -16 0 18 55 72 72 72 7 -1 3 -6 -10 -14z"/>
<path fill="#ffffff" stroke="none" d="M163 237 c3 -7 -3 -13 -14 -14 -15 -1
-16 1 -6 12 15 18 14 18 20 2z"/>
<path fill="#ffffff" stroke="none" d="M109 215 c18 -5 20 -9 10 -16 -12 -7
-12 -9 1 -9 10 0 9 -4 -5 -13 -32 -22 -52 -26 -52 -12 0 7 9 11 21 9 12 -3 15
-1 7 2 -11 5 -11 8 0 15 12 8 11 11 -1 19 -11 7 -17 5 -22 -8 -4 -9 -7 -12 -7
-5 -2 20 11 45 18 35 3 -5 17 -13 30 -17z"/>
<path fill="#ffffff" stroke="none" d="M261 213 c13 -15 12 -15 -8 -4 -24 12
-29 21 -14 21 5 0 15 -7 22 -17z"/>
<path fill="#ffffff" stroke="none" d="M38 213 c-10 -2 -18 -11 -18 -20 0 -10
6 -13 18 -9 14 5 13 3 -3 -9 -18 -15 -20 -15 -23 0 -6 26 6 45 25 44 17 -1 17
-2 1 -6z"/>
<path fill="#ffffff" stroke="none" d="M303 204 c-7 -3 -9 -12 -6 -21 5 -12 1
-14 -17 -8 -17 5 -21 4 -15 -5 6 -9 4 -11 -5 -5 -10 6 -7 12 11 26 13 10 29
18 34 18 6 0 5 -3 -2 -5z"/>
<path fill="#ffffff" stroke="none" d="M249 147 c-2 -1 -13 -9 -24 -17 -19
-14 -19 -14 -6 3 7 9 18 17 24 17 6 0 8 -1 6 -3z"/>
<path fill="#ffffff" stroke="none" d="M60 85 c-5 -7 -7 -14 -4 -17 3 -3 -2
-5 -12 -4 -9 0 -19 -5 -22 -13 -3 -10 0 -12 11 -8 11 4 14 2 10 -9 -4 -10 0
-12 11 -8 9 3 16 2 16 -3 0 -16 -34 -11 -47 6 -13 17 -18 93 -6 104 12 12 54
-35 43 -48z"/>
<path fill="#ffffff" stroke="none" d="M168 116 c-7 -8 -15 -12 -17 -11 -5 6
10 25 20 25 5 0 4 -6 -3 -14z"/>
<path fill="#ffffff" stroke="none" d="M303 124 c-7 -3 -9 -12 -6 -21 4 -11 2
-14 -5 -9 -18 11 -14 36 6 35 9 0 12 -3 5 -5z"/>
<path fill="#ffffff" stroke="none" d="M261 96 c-8 -9 -8 -15 -2 -18 7 -2 7
-8 1 -18 -8 -13 -10 -12 -10 3 0 9 -5 17 -12 17 -6 0 -3 7 8 15 24 18 30 19
15 1z"/>
<path fill="#ffffff" stroke="none" d="M111 81 c-11 -7 -10 -11 6 -20 11 -5
24 -7 28 -3 4 4 5 -4 3 -18 -3 -26 -20 -31 -26 -8 -2 9 0 8 7 -2 6 -8 11 -10
11 -4 0 7 -11 19 -25 28 -25 16 -26 36 -2 36 8 0 7 -3 -2 -9z"/>
<path fill="#ffffff" stroke="none" d="M230 42 c0 -14 -11 -21 -26 -15 -8 3
-11 9 -8 14 7 11 34 12 34 1z"/>
<path fill="#000000" stroke="none" d="M23 103 c1 -27 4 -30 19 -22 10 5 18
12 18 15 0 3 -5 2 -10 -1 -6 -3 -14 4 -20 17 -8 21 -9 20 -7 -9z"/>
</g>
</svg>
