<?xml version="1.0" standalone="no"?>
<!DOCTYPE svg PUBLIC "-//W3C//DTD SVG 20010904//EN"
 "http://www.w3.org/TR/2001/REC-SVG-20010904/DTD/svg10.dtd">
<svg version="1.0" xmlns="http://www.w3.org/2000/svg"
 width="32.000000pt" height="32.000000pt" viewBox="0 0 32.000000 32.000000"
 preserveAspectRatio="xMidYMid meet">
<metadata>
Created by potrace 1.16, written by Peter Selinger 2001-2019
</metadata>
<g transform="translate(0.000000,32.000000) scale(0.100000,-0.100000)"
fill="#000000" stroke="none">
<path fill="#000000" stroke="none" d="M0 160 l0 -161 88 3 c72 2 87 6 86 19
-1 9 5 16 12 16 9 0 10 -5 3 -18 -9 -17 -4 -18 59 -18 l68 1 2 114 c2 94 0
114 -12 114 -8 0 -18 5 -22 11 -4 8 0 9 15 4 18 -6 21 -2 21 26 0 32 -1 32
-16 13 -14 -17 -14 -16 0 9 l16 27 -160 0 -160 0 0 -160z"/>
<path fill="#ffffff" stroke="none" d="M36 301 c-4 -5 -3 -11 1 -14 5 -2 2 -2
-4 -1 -7 2 -13 -4 -14 -14 0 -11 -2 -12 -6 -4 -7 17 4 42 17 42 6 0 9 -4 6 -9z"/>
<path fill="#ffffff" stroke="none" d="M117 295 c0 -18 -19 -15 -25 3 -2 7 3
12 11 12 7 0 14 -7 14 -15z"/>
<path fill="#ffffff" stroke="none" d="M175 300 c-3 -5 -10 -10 -16 -10 -5 0
-9 5 -9 10 0 6 7 10 16 10 8 0 12 -4 9 -10z"/>
<path fill="#ffffff" stroke="none" d="M260 300 c0 -5 -2 -10 -4 -10 -3 0 -8
5 -11 10 -3 6 -1 10 4 10 6 0 11 -4 11 -10z"/>
<path fill="#ffffff" stroke="none" d="M200 286 c0 -3 -4 -8 -10 -11 -5 -3
-10 -1 -10 4 0 6 5 11 10 11 6 0 10 -2 10 -4z"/>
<path fill="#ffffff" stroke="none" d="M235 231 c0 -22 -3 -37 -8 -34 -4 2 -7
10 -6 16 3 26 -2 38 -13 32 -7 -4 -4 1 6 9 11 9 20 16 21 16 0 0 0 -18 0 -39z"/>
<path fill="#ffffff" stroke="none" d="M90 250 c0 -5 -5 -10 -11 -10 -5 0 -7
5 -4 10 3 6 8 10 11 10 2 0 4 -4 4 -10z"/>
<path fill="#ffffff" stroke="none" d="M140 240 c-6 -11 -15 -20 -21 -20 -6 0
-7 -4 -4 -10 3 -5 -1 -10 -11 -10 -14 0 -15 2 -3 18 13 16 41 41 47 42 1 0 -2
-9 -8 -20z"/>
<path fill="#ffffff" stroke="none" d="M196 222 c-3 -2 -15 -5 -27 -6 -12 0
-25 -8 -27 -16 -4 -12 -2 -13 9 -3 9 7 20 8 28 4 11 -7 9 -11 -7 -20 -15 -8
-23 -7 -32 3 -18 22 6 54 37 48 13 -2 22 -7 19 -10z"/>
<path fill="#ffffff" stroke="none" d="M261 217 c-10 -9 -11 -8 -5 6 3 10 9
15 12 12 3 -3 0 -11 -7 -18z"/>
<path fill="#ffffff" stroke="none" d="M60 206 c0 -8 -4 -17 -9 -20 -10 -7
-23 19 -14 28 11 11 23 6 23 -8z"/>
<path fill="#ffffff" stroke="none" d="M287 185 c0 -18 -19 -15 -25 3 -2 7 3
12 11 12 7 0 14 -7 14 -15z"/>
<path fill="#ffffff" stroke="none" d="M40 165 c0 -2 -6 -5 -13 -8 -8 -3 -14
1 -14 8 0 7 6 11 14 8 7 -3 13 -6 13 -8z"/>
<path fill="#ffffff" stroke="none" d="M244 157 c11 -10 10 -15 -2 -27 -14
-13 -15 -12 -10 2 4 8 1 21 -5 27 -6 6 -8 11 -3 11 4 0 13 -6 20 -13z"/>
<path fill="#ffffff" stroke="none" d="M200 156 c0 -2 -7 -7 -16 -10 -8 -3
-12 -2 -9 4 6 10 25 14 25 6z"/>
<path fill="#ffffff" stroke="none" d="M67 134 c-3 -4 -2 -16 4 -28 8 -17 6
-16 -10 4 -11 14 -23 21 -27 17 -4 -4 -1 -7 6 -7 7 0 11 -2 8 -5 -7 -7 -38 5
-38 14 0 4 14 8 32 9 18 2 29 0 25 -4z"/>
<path fill="#ffffff" stroke="none" d="M123 110 c-3 -12 -8 -19 -11 -16 -5 6
5 36 12 36 2 0 2 -9 -1 -20z"/>
<path fill="#ffffff" stroke="none" d="M196 109 c5 -8 9 -8 14 1 6 9 10 6 15
-9 4 -13 4 -25 1 -28 -3 -4 -6 2 -6 12 0 15 -2 16 -17 4 -10 -8 -14 -9 -10 -2
4 7 0 16 -10 22 -10 6 -13 11 -6 11 6 0 15 -5 19 -11z"/>
<path fill="#ffffff" stroke="none" d="M270 105 c0 -8 -4 -15 -10 -15 -5 0 -7
7 -4 15 4 8 8 15 10 15 2 0 4 -7 4 -15z"/>
<path fill="#ffffff" stroke="none" d="M305 90 c-3 -5 -11 -10 -16 -10 -6 0
-7 5 -4 10 3 6 11 10 16 10 6 0 7 -4 4 -10z"/>
<path fill="#ffffff" stroke="none" d="M40 74 c0 -2 -7 -4 -15 -4 -8 0 -15 4
-15 10 0 5 7 7 15 4 8 -4 15 -8 15 -10z"/>
<path fill="#ffffff" stroke="none" d="M125 62 c4 1 14 -6 21 -17 13 -19 12
-21 -14 -19 -15 1 -29 3 -32 4 -3 1 -8 2 -12 1 -4 0 -2 11 4 24 7 16 14 21 18
14 4 -6 11 -9 15 -7z"/>
<path fill="#ffffff" stroke="none" d="M36 44 c-5 -12 -2 -15 9 -10 10 3 13 2
10 -5 -4 -5 -12 -8 -18 -6 -13 4 -18 37 -5 37 6 0 7 -7 4 -16z"/>
<path fill="#ffffff" stroke="none" d="M254 35 c-5 -11 -1 -14 12 -9 16 5 16
4 4 -5 -17 -12 -36 1 -26 18 10 16 16 13 10 -4z"/>
<path fill="#ffffff" stroke="none" d="M304 24 c3 -8 2 -12 -4 -9 -6 3 -10 10
-10 16 0 14 7 11 14 -7z"/>
<path fill="#000000" stroke="none" d="M115 50 c-3 -5 1 -10 10 -10 9 0 13 5
10 10 -3 6 -8 10 -10 10 -2 0 -7 -4 -10 -10z"/>
</g>
</svg>
