<?xml version="1.0" standalone="no"?>
<!DOCTYPE svg PUBLIC "-//W3C//DTD SVG 20010904//EN"
 "http://www.w3.org/TR/2001/REC-SVG-20010904/DTD/svg10.dtd">
<svg version="1.0" xmlns="http://www.w3.org/2000/svg"
 width="32.000000pt" height="32.000000pt" viewBox="0 0 32.000000 32.000000"
 preserveAspectRatio="xMidYMid meet">
<metadata>
Created by potrace 1.16, written by Peter Selinger 2001-2019
</metadata>
<g transform="translate(0.000000,32.000000) scale(0.100000,-0.100000)"
fill="#000000" stroke="none">
<path fill="#000000" stroke="none" d="M14 295 c-3 -8 -4 -20 -1 -27 4 -8 6
-7 6 4 1 10 7 16 14 14 6 -1 9 -1 4 1 -4 3 -5 9 -1 14 3 5 0 9 -6 9 -6 0 -13
-7 -16 -15z"/>
<path fill="#000000" stroke="none" d="M92 298 c6 -18 25 -21 25 -3 0 8 -7 15
-14 15 -8 0 -13 -5 -11 -12z"/>
<path fill="#000000" stroke="none" d="M150 300 c0 -5 4 -10 9 -10 6 0 13 5
16 10 3 6 -1 10 -9 10 -9 0 -16 -4 -16 -10z"/>
<path fill="#000000" stroke="none" d="M245 300 c3 -5 8 -10 11 -10 2 0 4 5 4
10 0 6 -5 10 -11 10 -5 0 -7 -4 -4 -10z"/>
<path fill="#000000" stroke="none" d="M300 290 c-6 -11 -8 -20 -6 -20 3 0 10
9 16 20 6 11 8 20 6 20 -3 0 -10 -9 -16 -20z"/>
<path fill="#000000" stroke="none" d="M180 279 c0 -5 5 -7 10 -4 6 3 10 8 10
11 0 2 -4 4 -10 4 -5 0 -10 -5 -10 -11z"/>
<path fill="#000000" stroke="none" d="M214 254 c-10 -8 -13 -13 -6 -9 11 6
16 -6 13 -32 -1 -6 2 -14 6 -16 5 -3 8 12 8 34 0 21 0 39 0 39 -1 0 -10 -7
-21 -16z"/>
<path fill="#000000" stroke="none" d="M75 250 c-3 -5 -1 -10 4 -10 6 0 11 5
11 10 0 6 -2 10 -4 10 -3 0 -8 -4 -11 -10z"/>
<path fill="#000000" stroke="none" d="M130 247 c-8 -7 -21 -20 -29 -29 -12
-16 -11 -18 3 -18 10 0 14 5 11 10 -3 6 -2 10 4 10 6 0 15 9 21 20 12 23 11
24 -10 7z"/>
<path fill="#000000" stroke="none" d="M285 240 c3 -5 14 -10 23 -10 15 0 15
2 2 10 -20 13 -33 13 -25 0z"/>
<path fill="#000000" stroke="none" d="M141 218 c-18 -28 3 -52 31 -37 16 9
18 13 7 20 -8 4 -19 3 -28 -4 -11 -10 -13 -9 -9 3 2 8 15 16 27 16 31 2 36 11
8 16 -17 3 -28 -1 -36 -14z"/>
<path fill="#000000" stroke="none" d="M256 223 c-6 -14 -5 -15 5 -6 7 7 10
15 7 18 -3 3 -9 -2 -12 -12z"/>
<path fill="#000000" stroke="none" d="M37 214 c-9 -9 4 -35 14 -28 5 3 9 12
9 20 0 14 -12 19 -23 8z"/>
<path fill="#000000" stroke="none" d="M262 188 c6 -18 25 -21 25 -3 0 8 -7
15 -14 15 -8 0 -13 -5 -11 -12z"/>
<path fill="#000000" stroke="none" d="M13 165 c0 -7 6 -11 14 -8 16 6 16 10
0 16 -8 3 -14 -1 -14 -8z"/>
<path fill="#000000" stroke="none" d="M227 159 c6 -6 9 -19 5 -27 -5 -14 -4
-15 10 -2 12 12 13 17 2 27 -7 7 -16 13 -20 13 -5 0 -3 -5 3 -11z"/>
<path fill="#000000" stroke="none" d="M175 150 c-3 -6 1 -7 9 -4 18 7 21 14
7 14 -6 0 -13 -4 -16 -10z"/>
<path fill="#000000" stroke="none" d="M10 129 c0 -9 31 -21 38 -14 3 3 -1 5
-8 5 -7 0 -10 3 -6 7 4 4 16 -3 27 -17 16 -20 18 -21 10 -4 -6 12 -7 24 -4 28
4 4 -7 6 -25 4 -18 -1 -32 -5 -32 -9z"/>
<path fill="#000000" stroke="none" d="M113 115 c-3 -9 -3 -18 -1 -21 3 -3 8
4 11 16 6 23 -1 27 -10 5z"/>
<path fill="#000000" stroke="none" d="M183 109 c10 -6 14 -15 10 -22 -4 -7 0
-6 10 2 15 12 17 11 17 -4 0 -10 3 -16 6 -12 3 3 3 15 -1 28 -5 15 -9 18 -15
9 -5 -9 -9 -9 -14 -1 -4 6 -13 11 -19 11 -7 0 -4 -5 6 -11z"/>
<path fill="#000000" stroke="none" d="M256 105 c-3 -8 -1 -15 4 -15 6 0 10 7
10 15 0 8 -2 15 -4 15 -2 0 -6 -7 -10 -15z"/>
<path fill="#000000" stroke="none" d="M285 91 c-3 -6 3 -9 14 -8 11 0 17 5
15 9 -7 11 -22 10 -29 -1z"/>
<path fill="#000000" stroke="none" d="M10 80 c0 -6 7 -10 15 -10 8 0 15 2 15
4 0 2 -7 6 -15 10 -8 3 -15 1 -15 -4z"/>
<path fill="#000000" stroke="none" d="M92 55 c-6 -13 -8 -24 -4 -24 4 1 9 0
12 -1 3 -1 17 -3 32 -4 26 -2 27 0 14 19 -7 11 -17 18 -21 17 -4 -2 -11 1 -15
7 -4 7 -11 2 -18 -14z"/>
<path fill="#ffffff" stroke="none" d="M135 50 c3 -5 -1 -10 -10 -10 -9 0 -13
5 -10 10 3 6 8 10 10 10 2 0 7 -4 10 -10z"/>
<path fill="#000000" stroke="none" d="M24 43 c3 -20 22 -28 31 -14 3 7 0 8
-10 5 -11 -5 -14 -2 -9 10 3 9 2 16 -4 16 -6 0 -9 -8 -8 -17z"/>
<path fill="#000000" stroke="none" d="M244 39 c-3 -6 2 -18 11 -27 10 -10 15
-12 11 -5 -3 6 -3 13 1 16 5 2 2 2 -6 0 -8 -2 -11 2 -7 12 6 17 0 20 -10 4z"/>
<path fill="#000000" stroke="none" d="M174 18 c0 -23 3 -23 15 0 7 13 6 19
-2 19 -7 0 -13 -9 -13 -19z"/>
<path fill="#000000" stroke="none" d="M290 31 c0 -6 4 -13 10 -16 6 -3 7 1 4
9 -7 18 -14 21 -14 7z"/>
</g>
</svg>
