<?xml version="1.0" standalone="no"?>
<!DOCTYPE svg PUBLIC "-//W3C//DTD SVG 20010904//EN"
 "http://www.w3.org/TR/2001/REC-SVG-20010904/DTD/svg10.dtd">
<svg version="1.0" xmlns="http://www.w3.org/2000/svg"
 width="32.000000pt" height="32.000000pt" viewBox="0 0 32.000000 32.000000"
 preserveAspectRatio="xMidYMid meet">
<metadata>
Created by potrace 1.16, written by Peter Selinger 2001-2019
</metadata>
<g transform="translate(0.000000,32.000000) scale(0.100000,-0.100000)"
fill="#000000" stroke="none">
<path fill="#000000" stroke="none" d="M37 309 c-9 -5 -22 -7 -27 -4 -13 8 -8
-18 5 -27 6 -5 6 -8 -2 -8 -17 0 -12 -82 6 -88 10 -3 12 0 8 13 -5 11 2 27 17
45 21 26 26 27 42 15 17 -13 17 -16 4 -25 -8 -5 -25 -10 -37 -10 -13 0 -23 -4
-23 -10 0 -5 5 -10 10 -10 18 0 10 -17 -15 -30 -34 -18 -32 -30 5 -30 20 0 30
-5 30 -15 0 -14 -15 -19 -49 -17 -8 0 -2 -10 13 -22 29 -22 25 -34 -14 -49
-12 -4 -11 -6 3 -6 10 -1 16 -5 13 -10 -9 -15 43 -22 66 -10 17 9 23 9 26 0 2
-6 16 -11 30 -10 16 0 21 3 12 6 -8 3 -21 10 -28 16 -21 16 7 28 48 20 38 -6
56 -23 37 -35 -7 -4 14 -8 46 -8 l57 0 0 160 0 160 -67 -1 c-38 -1 -60 -3 -50
-6 9 -2 17 -14 17 -25 0 -17 -4 -19 -27 -13 -36 9 -38 12 -23 30 11 13 8 15
-16 14 -31 -1 -87 -16 -66 -18 7 -1 10 -6 6 -12 -3 -6 -15 -9 -25 -6 -11 3
-19 1 -19 -5 0 -5 -5 -6 -10 -3 -6 4 -1 14 12 25 24 21 15 26 -15 9z"/>
<path fill="#ffffff" stroke="none" d="M145 300 c-3 -5 -12 -10 -18 -10 -7 0
-6 4 3 10 19 12 23 12 15 0z"/>
<path fill="#ffffff" stroke="none" d="M158 269 c-2 -6 -7 -10 -11 -10 -4 1
-19 1 -33 1 -14 0 -23 4 -19 10 8 14 68 13 63 -1z"/>
<path fill="#ffffff" stroke="none" d="M222 232 c4 -14 0 -18 -21 -16 -14 1
-18 -1 -8 -3 21 -5 34 -31 21 -42 -5 -5 -22 -11 -39 -15 -28 -6 -29 -5 -11 9
19 14 19 15 2 15 -11 0 -24 -6 -30 -14 -10 -14 -43 -20 -91 -17 -18 1 -18 2 3
17 12 8 22 22 22 30 0 8 5 14 10 14 5 0 19 9 30 20 11 11 22 15 25 10 4 -6 0
-10 -7 -10 -9 0 -9 -3 2 -10 12 -7 8 -11 -19 -16 -26 -5 -30 -9 -17 -16 22
-12 55 10 71 50 12 28 17 31 33 23 11 -6 22 -19 24 -29z"/>
<path fill="#ffffff" stroke="none" d="M40 256 c0 -3 -4 -8 -10 -11 -5 -3 -10
-1 -10 4 0 6 5 11 10 11 6 0 10 -2 10 -4z"/>
<path fill="#ffffff" stroke="none" d="M140 135 c-7 -8 -19 -15 -26 -15 -8 0
-14 -6 -14 -12 0 -9 -3 -8 -10 2 -10 17 -4 26 25 33 35 8 38 7 25 -8z"/>
<path fill="#ffffff" stroke="none" d="M224 141 c3 -5 -12 -11 -34 -15 -35 -6
-40 -9 -40 -34 0 -23 -9 -32 -50 -54 -48 -26 -50 -26 -50 -7 0 16 5 19 20 14
15 -5 18 -3 14 9 -6 17 23 36 46 29 13 -4 13 -3 0 6 -8 5 -12 12 -10 14 62 48
91 59 104 38z"/>
<path fill="#ffffff" stroke="none" d="M220 105 c0 -9 -9 -15 -25 -15 -26 0
-34 15 -12 23 23 10 37 7 37 -8z"/>
<path fill="#ffffff" stroke="none" d="M77 84 c-3 -4 -14 -3 -24 0 -15 6 -15
8 -3 16 16 10 39 -4 27 -16z"/>
<path fill="#ffffff" stroke="none" d="M220 64 c0 -10 -7 -14 -22 -12 -32 5
-35 28 -4 28 17 0 26 -5 26 -16z"/>
</g>
</svg>
