<?xml version="1.0" standalone="no"?>
<!DOCTYPE svg PUBLIC "-//W3C//DTD SVG 20010904//EN"
 "http://www.w3.org/TR/2001/REC-SVG-20010904/DTD/svg10.dtd">
<svg version="1.0" xmlns="http://www.w3.org/2000/svg"
 width="32.000000pt" height="32.000000pt" viewBox="0 0 32.000000 32.000000"
 preserveAspectRatio="xMidYMid meet">
<metadata>
Created by potrace 1.16, written by Peter Selinger 2001-2019
</metadata>
<g transform="translate(0.000000,32.000000) scale(0.100000,-0.100000)"
fill="#000000" stroke="none">
<path fill="#000000" stroke="none" d="M45 310 c-3 -6 1 -7 9 -4 18 7 21 14 7
14 -6 0 -13 -4 -16 -10z"/>
<path fill="#000000" stroke="none" d="M227 212 c1 -59 2 -131 2 -159 l1 -53
45 0 45 0 0 160 0 160 -47 0 -48 0 2 -108z"/>
<path fill="#000000" stroke="none" d="M105 299 c-11 -16 -1 -19 13 -3 7 8 8
14 3 14 -5 0 -13 -5 -16 -11z"/>
<path fill="#000000" stroke="none" d="M15 290 c-3 -5 -1 -10 4 -10 6 0 11 5
11 10 0 6 -2 10 -4 10 -3 0 -8 -4 -11 -10z"/>
<path fill="#000000" stroke="none" d="M5 260 c-3 -5 -2 -10 4 -10 5 0 13 5
16 10 3 6 2 10 -4 10 -5 0 -13 -4 -16 -10z"/>
<path fill="#000000" stroke="none" d="M150 240 c-7 -17 -20 -35 -29 -40 -9
-5 -11 -9 -6 -10 6 0 15 4 20 8 15 11 45 72 36 72 -5 0 -14 -14 -21 -30z"/>
<path fill="#000000" stroke="none" d="M20 240 c-14 -10 -23 -21 -20 -23 3 -3
16 3 29 14 31 25 23 33 -9 9z"/>
<path fill="#000000" stroke="none" d="M80 223 l-25 -25 27 12 c15 7 29 19 32
26 8 20 -6 15 -34 -13z"/>
<path fill="#000000" stroke="none" d="M30 170 c-14 -11 -21 -20 -17 -20 5 0
20 9 34 20 14 11 22 20 17 20 -5 0 -20 -9 -34 -20z"/>
<path fill="#000000" stroke="none" d="M139 163 c-13 -17 -13 -17 6 -3 11 8
22 16 24 17 2 2 0 3 -6 3 -6 0 -17 -8 -24 -17z"/>
<path fill="#000000" stroke="none" d="M140 135 c-7 -8 -8 -15 -2 -15 5 0 15
7 22 15 7 8 8 15 2 15 -5 0 -15 -7 -22 -15z"/>
<path fill="#000000" stroke="none" d="M173 118 c-5 -7 -15 -26 -22 -42 -11
-26 -10 -28 3 -16 9 7 16 21 16 31 0 10 8 23 18 28 9 6 12 11 6 11 -6 0 -16
-6 -21 -12z"/>
<path fill="#000000" stroke="none" d="M73 81 c-24 -20 -43 -45 -43 -55 0 -22
13 -13 16 11 2 9 9 20 17 24 27 15 62 47 57 52 -3 3 -24 -12 -47 -32z"/>
<path fill="#000000" stroke="none" d="M106 34 c-5 -14 -4 -15 9 -4 17 14 19
20 6 20 -5 0 -12 -7 -15 -16z"/>
<path fill="#000000" stroke="none" d="M60 9 c0 -5 5 -7 10 -4 6 3 10 8 10 11
0 2 -4 4 -10 4 -5 0 -10 -5 -10 -11z"/>
</g>
</svg>
