<?xml version="1.0" standalone="no"?>
<!DOCTYPE svg PUBLIC "-//W3C//DTD SVG 20010904//EN"
 "http://www.w3.org/TR/2001/REC-SVG-20010904/DTD/svg10.dtd">
<svg version="1.0" xmlns="http://www.w3.org/2000/svg"
 width="32.000000pt" height="32.000000pt" viewBox="0 0 32.000000 32.000000"
 preserveAspectRatio="xMidYMid meet">
<metadata>
Created by potrace 1.16, written by Peter Selinger 2001-2019
</metadata>
<g transform="translate(0.000000,32.000000) scale(0.100000,-0.100000)"
fill="#000000" stroke="none">
<path fill="#000000" stroke="none" d="M0 239 c0 -65 4 -84 17 -94 10 -8 13
-17 8 -25 -7 -11 -10 -9 -16 6 -5 11 -8 -10 -8 -53 l-1 -73 160 0 160 0 0 70
c0 57 -3 70 -16 70 -8 0 -12 5 -9 10 4 6 11 8 16 5 5 -4 9 29 9 79 l0 86 -160
0 -160 0 0 -81z"/>
<path fill="#ffffff" stroke="none" d="M131 129 c-17 -18 -21 -19 -21 -7 0 9
-6 18 -12 21 -7 2 -3 2 9 1 12 -2 25 1 28 7 4 6 9 8 12 5 3 -2 -4 -15 -16 -27z"/>
<path fill="#ffffff" stroke="none" d="M236 138 c4 -5 1 -15 -5 -21 -8 -8 -11
-6 -11 6 0 10 -8 17 -21 17 -11 0 -18 4 -15 9 7 11 44 3 52 -11z"/>
</g>
</svg>
