<?xml version="1.0" standalone="no"?>
<!DOCTYPE svg PUBLIC "-//W3C//DTD SVG 20010904//EN"
 "http://www.w3.org/TR/2001/REC-SVG-20010904/DTD/svg10.dtd">
<svg version="1.0" xmlns="http://www.w3.org/2000/svg"
 width="32.000000pt" height="32.000000pt" viewBox="0 0 32.000000 32.000000"
 preserveAspectRatio="xMidYMid meet">
<metadata>
Created by potrace 1.16, written by Peter Selinger 2001-2019
</metadata>
<g transform="translate(0.000000,32.000000) scale(0.100000,-0.100000)"
fill="#000000" stroke="none">
<path fill="#000000" stroke="none" d="M0 306 c0 -9 7 -12 20 -9 31 8 34 23 6
23 -16 0 -26 -6 -26 -14z"/>
<path fill="#000000" stroke="none" d="M53 301 c-20 -16 -21 -21 -8 -31 15
-13 12 -30 -6 -30 -6 0 -7 5 -4 10 3 6 1 10 -5 10 -7 0 -10 -6 -7 -14 3 -7 1
-18 -5 -24 -6 -6 -6 -12 1 -16 6 -4 11 -2 11 3 0 6 5 11 12 11 9 0 9 -3 0 -12
-14 -14 -16 -28 -3 -28 5 0 12 9 16 19 3 11 15 23 26 26 10 4 19 13 19 21 0 8
5 12 10 9 17 -10 11 -25 -14 -36 -13 -6 -27 -20 -29 -30 -3 -11 -14 -19 -27
-19 -13 0 -19 -4 -14 -12 5 -7 3 -8 -5 -4 -7 5 -10 14 -7 22 3 7 1 16 -4 19
-6 4 -10 -17 -10 -50 l0 -56 38 7 c20 4 43 11 50 17 8 7 12 5 12 -7 0 -13 7
-15 43 -10 23 4 48 11 55 17 8 7 12 5 12 -7 0 -13 7 -15 43 -10 23 4 48 11 55
17 13 11 17 93 4 101 -15 9 -52 -6 -52 -20 0 -7 -12 -16 -27 -19 -16 -4 -36
-10 -45 -16 -22 -11 -31 -12 -24 0 4 5 1 11 -6 13 -8 3 -2 12 15 22 30 20 35
36 12 36 -8 0 -15 -5 -15 -10 0 -6 -12 -15 -27 -21 -20 -7 -24 -12 -14 -18 14
-9 7 -31 -10 -31 -6 0 -7 5 -3 12 4 6 -1 17 -10 23 -15 11 -14 13 9 19 14 4
23 11 20 16 -3 6 -1 10 5 10 6 0 8 4 5 10 -3 5 7 18 23 28 24 14 28 20 18 33
-17 23 -105 23 -133 0z"/>
<path fill="#ffffff" stroke="none" d="M124 295 c-6 -16 -45 -33 -61 -28 -23
8 -13 20 12 15 25 -4 36 13 13 21 -7 2 -1 4 14 4 17 0 25 -4 22 -12z"/>
<path fill="#ffffff" stroke="none" d="M150 290 c0 -5 -5 -10 -11 -10 -5 0 -7
5 -4 10 3 6 8 10 11 10 2 0 4 -4 4 -10z"/>
<path fill="#ffffff" stroke="none" d="M100 160 c0 -5 -4 -10 -10 -10 -5 0
-10 5 -10 10 0 6 5 10 10 10 6 0 10 -4 10 -10z"/>
<path fill="#ffffff" stroke="none" d="M305 160 c-3 -5 -11 -10 -16 -10 -6 0
-7 5 -4 10 3 6 11 10 16 10 6 0 7 -4 4 -10z"/>
<path fill="#000000" stroke="none" d="M200 310 c0 -5 8 -10 18 -10 14 -1 14
-3 -6 -20 -12 -10 -28 -20 -35 -23 -15 -5 -8 -13 18 -20 11 -4 29 1 40 9 17
13 18 16 5 24 -12 8 -9 9 10 8 13 -2 25 2 25 9 0 21 15 27 15 6 0 -12 -12 -30
-27 -41 -21 -15 -25 -24 -17 -32 8 -8 15 -8 26 3 10 10 20 12 31 5 14 -7 17
-4 17 22 0 17 -5 30 -12 30 -9 0 -8 4 2 10 13 9 13 10 0 10 -13 0 -13 1 0 10
12 8 9 10 -12 10 -15 0 -30 -4 -33 -10 -3 -5 -11 -10 -16 -10 -6 0 -7 5 -4 10
4 6 -5 10 -19 10 -14 0 -26 -4 -26 -10z"/>
<path fill="#000000" stroke="none" d="M0 269 c0 -5 5 -7 10 -4 5 3 10 8 10
11 0 2 -4 4 -10 4 -5 0 -10 -5 -10 -11z"/>
<path fill="#000000" stroke="none" d="M220 211 c0 -6 -6 -11 -14 -11 -7 0
-20 -8 -27 -17 -12 -15 -12 -16 4 -10 10 4 27 7 38 7 20 0 26 24 9 35 -5 3
-10 1 -10 -4z"/>
</g>
</svg>
