<?xml version="1.0" standalone="no"?>
<!DOCTYPE svg PUBLIC "-//W3C//DTD SVG 20010904//EN"
 "http://www.w3.org/TR/2001/REC-SVG-20010904/DTD/svg10.dtd">
<svg version="1.0" xmlns="http://www.w3.org/2000/svg"
 width="32.000000pt" height="32.000000pt" viewBox="0 0 32.000000 32.000000"
 preserveAspectRatio="xMidYMid meet">
<metadata>
Created by potrace 1.16, written by Peter Selinger 2001-2019
</metadata>
<g transform="translate(0.000000,32.000000) scale(0.100000,-0.100000)"
fill="#000000" stroke="none">
<path fill="#000000" stroke="none" d="M71 203 c0 -78 3 -113 9 -103 5 8 10
10 10 4 0 -14 73 -2 94 15 11 10 16 8 20 -7 6 -16 12 -18 46 -12 44 8 70 25
70 46 0 17 -5 17 -31 4 -11 -7 -19 -7 -19 -1 0 5 6 12 13 14 6 3 3 6 -8 7 -44
4 -81 -3 -99 -18 -18 -16 -19 -16 -13 1 4 9 5 17 4 17 -1 0 -17 -4 -35 -9 -17
-5 -32 -6 -32 -2 0 5 12 11 28 15 15 3 38 15 51 27 21 17 23 22 10 30 -12 9
-12 10 1 6 23 -7 52 12 46 29 -4 12 -1 14 14 9 16 -5 20 -2 20 14 0 12 6 21
16 21 8 0 12 -4 9 -10 -3 -5 1 -10 9 -10 9 0 16 7 16 15 0 17 -45 21 -55 6 -3
-6 -26 -20 -50 -32 -37 -19 -45 -27 -45 -50 0 -22 -6 -29 -31 -34 -37 -8 -50
0 -14 9 33 8 32 24 -2 29 l-28 4 28 2 c34 1 32 22 -4 33 -16 5 -12 6 16 3 22
-2 46 -1 53 4 22 14 -13 33 -68 37 l-49 4 0 -117z"/>
<path fill="#000000" stroke="none" d="M200 310 c0 -13 11 -13 30 0 12 8 11
10 -7 10 -13 0 -23 -4 -23 -10z"/>
<path fill="#000000" stroke="none" d="M281 266 c-8 -10 -8 -16 1 -23 33 -25
38 -24 38 6 0 33 -19 41 -39 17z"/>
<path fill="#000000" stroke="none" d="M240 232 c0 -14 11 -21 26 -15 8 3 11
9 8 14 -7 11 -34 12 -34 1z"/>
<path fill="#000000" stroke="none" d="M220 213 c0 -7 -6 -13 -14 -13 -7 0
-19 -7 -27 -16 -11 -13 -9 -14 17 -8 38 9 45 16 34 34 -7 10 -10 11 -10 3z"/>
<path fill="#000000" stroke="none" d="M278 213 c-31 -8 -21 -33 13 -33 23 0
30 4 27 17 -3 18 -15 23 -40 16z"/>
</g>
</svg>
