<?xml version="1.0" standalone="no"?>
<!DOCTYPE svg PUBLIC "-//W3C//DTD SVG 20010904//EN"
 "http://www.w3.org/TR/2001/REC-SVG-20010904/DTD/svg10.dtd">
<svg version="1.0" xmlns="http://www.w3.org/2000/svg"
 width="32.000000pt" height="32.000000pt" viewBox="0 0 32.000000 32.000000"
 preserveAspectRatio="xMidYMid meet">
<metadata>
Created by potrace 1.16, written by Peter Selinger 2001-2019
</metadata>
<g transform="translate(0.000000,32.000000) scale(0.100000,-0.100000)"
fill="#000000" stroke="none">
<path fill="#000000" stroke="none" d="M0 160 l0 -160 160 0 160 0 0 48 0 48
-56 -6 c-30 -3 -57 -3 -60 1 -2 4 -12 6 -22 4 -9 -2 -38 -6 -64 -9 l-48 -6 0
120 0 120 -35 0 -35 0 0 -160z"/>
<path fill="#000000" stroke="none" d="M236 245 c-11 -8 -15 -15 -9 -15 6 0
16 7 23 15 16 19 11 19 -14 0z"/>
<path fill="#000000" stroke="none" d="M159 183 c-13 -16 -12 -17 4 -4 9 7 17
15 17 17 0 8 -8 3 -21 -13z"/>
</g>
</svg>
