<?xml version="1.0" standalone="no"?>
<!DOCTYPE svg PUBLIC "-//W3C//DTD SVG 20010904//EN"
 "http://www.w3.org/TR/2001/REC-SVG-20010904/DTD/svg10.dtd">
<svg version="1.0" xmlns="http://www.w3.org/2000/svg"
 width="32.000000pt" height="32.000000pt" viewBox="0 0 32.000000 32.000000"
 preserveAspectRatio="xMidYMid meet">
<metadata>
Created by potrace 1.16, written by Peter Selinger 2001-2019
</metadata>
<g transform="translate(0.000000,32.000000) scale(0.100000,-0.100000)"
fill="#000000" stroke="none">
<path fill="#000000" stroke="none" d="M0 160 l0 -160 160 0 160 0 0 160 0
160 -160 0 -160 0 0 -160z"/>
<path fill="#ffffff" stroke="none" d="M94 269 c-3 -5 -10 -7 -15 -3 -5 3 -7
10 -3 15 3 5 10 7 15 3 5 -3 7 -10 3 -15z"/>
<path fill="#ffffff" stroke="none" d="M271 253 c13 -16 12 -17 -3 -4 -10 7
-18 15 -18 17 0 8 8 3 21 -13z"/>
<path fill="#ffffff" stroke="none" d="M157 192 c-20 -22 -22 -52 -4 -72 10
-13 10 -13 -2 -2 -21 17 -51 15 -75 -5 -21 -18 -21 -18 -3 3 19 23 22 54 7 72
-7 9 -7 9 2 2 18 -15 54 -12 68 5 7 8 15 15 18 15 3 0 -2 -8 -11 -18z"/>
<path fill="#ffffff" stroke="none" d="M267 69 c-9 -15 -11 -15 -26 0 -14 14
-14 18 -1 31 13 14 16 14 26 1 8 -11 9 -20 1 -32z"/>
</g>
</svg>
