<?xml version="1.0" standalone="no"?>
<!DOCTYPE svg PUBLIC "-//W3C//DTD SVG 20010904//EN"
 "http://www.w3.org/TR/2001/REC-SVG-20010904/DTD/svg10.dtd">
<svg version="1.0" xmlns="http://www.w3.org/2000/svg"
 width="32.000000pt" height="32.000000pt" viewBox="0 0 32.000000 32.000000"
 preserveAspectRatio="xMidYMid meet">
<metadata>
Created by potrace 1.16, written by Peter Selinger 2001-2019
</metadata>
<g transform="translate(0.000000,32.000000) scale(0.100000,-0.100000)"
fill="#000000" stroke="none">
<path fill="#000000" stroke="none" d="M14 296 c-3 -8 -4 -31 -1 -52 3 -37 4
-37 5 9 2 46 3 47 33 47 25 0 29 -3 20 -14 -8 -10 -8 -16 3 -25 10 -9 16 -8
25 3 9 11 9 16 0 22 -9 5 -7 10 7 15 12 5 1 8 -34 8 -36 1 -54 -3 -58 -13z"/>
<path fill="#000000" stroke="none" d="M177 303 c-4 -3 -7 -25 -7 -49 0 -53
-27 -70 -33 -21 -4 31 -4 31 -5 -5 -2 -43 -21 -50 -62 -21 -20 13 -22 14 -13
2 7 -9 10 -19 6 -22 -3 -4 -1 -7 5 -7 7 0 12 -6 12 -14 0 -9 -12 -16 -32 -18
-32 -3 -33 -4 -34 -53 l-1 -50 4 48 c4 45 6 47 34 47 l29 0 -17 -27 -18 -28
29 19 c19 12 38 16 57 12 27 -5 28 -4 22 24 -4 23 1 38 23 67 15 20 22 33 16
29 -8 -5 -12 3 -12 28 l0 35 53 4 52 3 -51 2 c-28 1 -54 -1 -57 -5z"/>
<path fill="#000000" stroke="none" d="M250 261 c6 -12 15 -21 20 -21 18 0 11
19 -11 30 -19 11 -20 10 -9 -9z"/>
<path fill="#000000" stroke="none" d="M290 250 c-1 -8 -1 -25 0 -37 1 -18 -5
-22 -37 -26 l-38 -4 38 -1 c42 -2 51 9 44 55 -2 15 -5 21 -7 13z"/>
<path fill="#000000" stroke="none" d="M172 129 c-8 -22 -4 -84 5 -75 3 3 5
23 5 45 l-1 40 52 4 52 3 -53 2 c-45 2 -54 -1 -60 -19z"/>
<path fill="#000000" stroke="none" d="M233 106 l-23 -24 23 -16 c22 -15 22
-16 2 -31 -19 -15 -18 -16 20 -13 38 3 40 5 43 41 2 21 -1 36 -7 35 -5 -2 -16
5 -23 14 -12 16 -15 16 -35 -6z"/>
<path fill="#ffffff" stroke="none" d="M286 32 c-4 -3 -11 -1 -18 6 -8 8 -8
15 3 28 13 16 14 16 17 -5 2 -13 1 -25 -2 -29z"/>
<path fill="#000000" stroke="none" d="M131 68 c-1 -35 -3 -37 -38 -41 l-38
-4 38 -1 c42 -2 51 9 44 55 -3 24 -4 23 -6 -9z"/>
</g>
</svg>
