<?xml version="1.0" standalone="no"?>
<!DOCTYPE svg PUBLIC "-//W3C//DTD SVG 20010904//EN"
 "http://www.w3.org/TR/2001/REC-SVG-20010904/DTD/svg10.dtd">
<svg version="1.0" xmlns="http://www.w3.org/2000/svg"
 width="32.000000pt" height="32.000000pt" viewBox="0 0 32.000000 32.000000"
 preserveAspectRatio="xMidYMid meet">
<metadata>
Created by potrace 1.16, written by Peter Selinger 2001-2019
</metadata>
<g transform="translate(0.000000,32.000000) scale(0.100000,-0.100000)"
fill="#000000" stroke="none">
<path fill="#000000" stroke="none" d="M206 251 c-4 -5 -3 -11 1 -13 14 -7 33
-3 34 7 0 14 -28 19 -35 6z"/>
<path fill="#000000" stroke="none" d="M36 111 c-3 -5 1 -14 9 -21 8 -7 15 -9
15 -5 0 4 8 1 17 -6 15 -12 16 -12 8 1 -6 10 -2 10 12 -3 18 -16 22 -16 33 -2
7 8 17 12 24 8 6 -3 8 -3 4 1 -3 4 -8 6 -10 5 -1 -2 -14 4 -28 14 -26 18 -75
23 -84 8z"/>
</g>
</svg>
