<?xml version="1.0" standalone="no"?>
<!DOCTYPE svg PUBLIC "-//W3C//DTD SVG 20010904//EN"
 "http://www.w3.org/TR/2001/REC-SVG-20010904/DTD/svg10.dtd">
<svg version="1.0" xmlns="http://www.w3.org/2000/svg"
 width="32.000000pt" height="32.000000pt" viewBox="0 0 32.000000 32.000000"
 preserveAspectRatio="xMidYMid meet">
<metadata>
Created by potrace 1.16, written by Peter Selinger 2001-2019
</metadata>
<g transform="translate(0.000000,32.000000) scale(0.100000,-0.100000)"
fill="#000000" stroke="none">
<path fill="#000000" stroke="none" d="M238 257 c-8 -9 -19 -13 -23 -9 -5 4
-5 1 -1 -6 5 -7 10 -11 13 -8 3 2 17 0 31 -5 20 -8 23 -7 15 3 -6 7 -12 19
-15 27 -3 11 -7 11 -20 -2z"/>
<path fill="#000000" stroke="none" d="M130 140 c11 -11 28 -20 38 -20 11 0 6
7 -16 20 -41 25 -47 25 -22 0z"/>
<path fill="#000000" stroke="none" d="M73 131 c4 -18 -22 -36 -46 -32 -5 1
-6 -2 -3 -7 2 -4 21 -6 40 -4 24 3 33 8 29 16 -4 6 1 5 11 -3 23 -19 18 5 -6
31 -23 23 -32 23 -25 -1z"/>
</g>
</svg>
