<?xml version="1.0" standalone="no"?>
<!DOCTYPE svg PUBLIC "-//W3C//DTD SVG 20010904//EN"
 "http://www.w3.org/TR/2001/REC-SVG-20010904/DTD/svg10.dtd">
<svg version="1.0" xmlns="http://www.w3.org/2000/svg"
 width="32.000000pt" height="32.000000pt" viewBox="0 0 32.000000 32.000000"
 preserveAspectRatio="xMidYMid meet">
<metadata>
Created by potrace 1.16, written by Peter Selinger 2001-2019
</metadata>
<g transform="translate(0.000000,32.000000) scale(0.100000,-0.100000)"
fill="#000000" stroke="none">
<path fill="#000000" stroke="none" d="M4 307 c-2 -7 -3 -78 -2 -157 l3 -145
158 -3 157 -3 0 76 0 75 -82 0 -83 0 -75 -73 -75 -72 75 78 74 77 83 0 83 0 0
80 0 80 -155 0 c-118 0 -157 -3 -161 -13z"/>
<path fill="#ffffff" stroke="none" d="M85 240 c38 -38 67 -70 64 -70 -2 0
-36 32 -74 70 -38 39 -67 70 -64 70 2 0 36 -31 74 -70z"/>
</g>
</svg>
