<?xml version="1.0" standalone="no"?>
<!DOCTYPE svg PUBLIC "-//W3C//DTD SVG 20010904//EN"
 "http://www.w3.org/TR/2001/REC-SVG-20010904/DTD/svg10.dtd">
<svg version="1.0" xmlns="http://www.w3.org/2000/svg"
 width="32.000000pt" height="32.000000pt" viewBox="0 0 32.000000 32.000000"
 preserveAspectRatio="xMidYMid meet">
<metadata>
Created by potrace 1.16, written by Peter Selinger 2001-2019
</metadata>
<g transform="translate(0.000000,32.000000) scale(0.100000,-0.100000)"
fill="#000000" stroke="none">
<path fill="#000000" stroke="none" d="M33 305 c0 -10 4 -12 11 -5 7 5 34 10
61 13 49 3 49 3 -11 5 -48 2 -61 -1 -61 -13z"/>
<path fill="#000000" stroke="none" d="M173 288 c0 -18 4 -38 9 -45 6 -7 5
-19 -1 -32 -15 -28 -14 -31 12 -30 12 1 31 -2 41 -6 14 -6 17 -5 12 3 -4 7
-14 12 -22 12 -9 0 -12 5 -8 13 6 10 4 10 -7 0 -22 -22 -28 -14 -13 16 20 41
41 45 76 16 16 -14 34 -25 39 -25 17 0 9 18 -17 37 -31 23 -26 59 9 66 15 3
12 5 -11 6 -20 0 -31 -3 -27 -9 3 -5 1 -10 -5 -10 -7 0 -9 -7 -6 -17 4 -10 4
-14 0 -10 -4 4 -13 2 -19 -3 -14 -12 -45 -3 -45 12 0 5 9 12 21 15 16 4 17 8
7 14 -28 18 -45 10 -45 -23z"/>
<path fill="#ffffff" stroke="none" d="M210 254 c0 -8 -19 -13 -24 -6 -3 5 1
9 9 9 8 0 15 -2 15 -3z"/>
<path fill="#000000" stroke="none" d="M6 275 c-3 -9 -5 -38 -5 -63 2 -46 2
-46 9 13 7 64 6 76 -4 50z"/>
<path fill="#000000" stroke="none" d="M1 73 c1 -50 4 -67 8 -48 7 35 34 44
61 20 12 -11 20 -13 25 -6 6 11 -1 15 -20 11 -5 -1 -4 4 3 11 19 20 14 31 -9
24 -19 -6 -21 -4 -16 16 4 13 7 27 7 31 0 4 10 9 23 11 12 2 -2 5 -30 6 l-53
1 1 -77z"/>
<path fill="#ffffff" stroke="none" d="M50 131 c0 -23 -21 -62 -30 -56 -11 7
-14 48 -3 58 10 10 33 8 33 -2z"/>
<path fill="#000000" stroke="none" d="M137 144 c-3 -3 -3 -12 0 -20 3 -8 -4
-17 -18 -22 l-23 -9 25 -5 c23 -4 26 -2 26 29 0 35 -1 36 -10 27z"/>
<path fill="#000000" stroke="none" d="M258 128 c-2 -14 -18 -29 -45 -42 -49
-24 -57 -40 -12 -23 17 7 41 24 54 39 23 27 34 26 53 -7 10 -18 11 -17 12 13
0 23 -4 32 -12 29 -7 -2 -21 0 -30 4 -13 7 -17 4 -20 -13z"/>
<path fill="#000000" stroke="none" d="M311 44 c0 -11 3 -14 6 -6 3 7 2 16 -1
19 -3 4 -6 -2 -5 -13z"/>
<path fill="#000000" stroke="none" d="M180 21 c11 -22 60 -30 60 -10 0 5 -5
7 -10 4 -6 -4 -22 1 -36 10 -25 16 -25 16 -14 -4z"/>
<path fill="#000000" stroke="none" d="M96 22 c-3 -6 -1 -14 5 -17 14 -9 20
-2 10 14 -6 8 -11 9 -15 3z"/>
</g>
</svg>
