<?xml version="1.0" standalone="no"?>
<!DOCTYPE svg PUBLIC "-//W3C//DTD SVG 20010904//EN"
 "http://www.w3.org/TR/2001/REC-SVG-20010904/DTD/svg10.dtd">
<svg version="1.0" xmlns="http://www.w3.org/2000/svg"
 width="32.000000pt" height="32.000000pt" viewBox="0 0 32.000000 32.000000"
 preserveAspectRatio="xMidYMid meet">
<metadata>
Created by potrace 1.16, written by Peter Selinger 2001-2019
</metadata>
<g transform="translate(0.000000,32.000000) scale(0.100000,-0.100000)"
fill="#000000" stroke="none">
<path fill="#000000" stroke="none" d="M57 313 c34 -3 41 -8 40 -24 -1 -12 -7
-17 -14 -14 -10 3 -11 0 -4 -13 14 -25 58 -61 67 -54 4 4 4 2 0 -5 -9 -17 25
-33 69 -31 27 1 45 10 68 32 17 17 28 25 23 19 -4 -7 -2 -13 3 -13 18 0 12 18
-11 34 -12 8 -26 12 -32 9 -6 -3 -5 0 2 8 6 7 12 21 12 30 0 10 10 19 23 22
12 2 -10 5 -49 6 -44 0 -75 -4 -83 -11 -11 -10 -13 -10 -7 0 4 7 1 12 -8 12
-8 0 -17 -6 -19 -12 -4 -10 -6 -10 -6 0 -1 8 -19 11 -58 10 -49 -1 -52 -2 -16
-5z"/>
<path fill="#ffffff" stroke="none" d="M270 304 c0 -3 -5 -14 -11 -25 -12 -22
5 -54 23 -43 15 10 -8 -31 -27 -46 -15 -12 -16 -12 -13 5 1 10 -3 20 -11 23
-10 3 -12 0 -8 -11 8 -21 -8 -30 -37 -23 -22 5 -25 16 -17 58 0 4 8 4 18 1 12
-5 14 -3 8 7 -4 7 -9 24 -11 37 -2 21 2 23 42 23 24 0 44 -3 44 -6z"/>
<path fill="#ffffff" stroke="none" d="M163 283 c-7 -3 -13 -9 -13 -14 0 -6 6
-7 13 -4 6 4 1 -3 -13 -14 -29 -24 -39 -26 -42 -8 -6 55 -6 55 34 49 18 -3 27
-7 21 -9z"/>
<path fill="#000000" stroke="none" d="M214 238 c-4 -6 -3 -8 4 -4 6 3 17 -1
26 -9 8 -8 17 -11 20 -7 3 5 -6 14 -19 20 -18 8 -26 8 -31 0z"/>
<path fill="#000000" stroke="none" d="M1 158 l-1 -158 38 1 c29 2 31 3 10 6
-20 3 -25 8 -21 20 5 12 3 14 -8 8 -10 -6 -10 -3 2 9 22 24 73 5 64 -24 -5
-16 -2 -20 15 -20 18 0 19 3 10 20 -11 20 -5 25 29 21 7 -2 10 2 6 8 -3 6 0 9
8 5 8 -3 19 -16 25 -30 15 -30 57 -33 65 -4 5 19 -12 70 -24 70 -11 0 -6 -35
7 -45 9 -6 10 -15 5 -24 -7 -10 -13 -11 -30 -2 -21 12 -27 31 -14 45 4 4 9 19
10 34 2 15 11 32 19 38 12 9 10 12 -12 12 -14 0 -21 -3 -15 -7 7 -5 6 -15 -4
-34 -8 -15 -9 -27 -4 -27 6 0 7 -5 3 -11 -5 -8 -10 -6 -16 5 -5 9 -14 16 -19
16 -6 0 -7 -5 -3 -12 4 -7 3 -8 -4 -4 -6 4 -9 12 -6 19 2 7 -5 18 -16 25 -11
7 -20 8 -20 3 0 -5 -8 -12 -17 -15 -13 -3 -12 -4 3 -3 11 1 22 -2 23 -8 2 -5
7 -15 12 -21 6 -8 4 -14 -7 -18 -26 -10 -34 -7 -34 14 0 23 -4 24 -31 10 -13
-8 -19 -7 -19 0 0 6 -5 8 -10 5 -6 -4 -10 6 -10 23 0 36 45 66 60 42 7 -11 10
-12 10 -2 0 7 5 10 10 7 6 -4 9 -1 8 7 -4 17 31 11 57 -10 11 -9 2 3 -20 26
-38 40 -61 58 -35 27 11 -13 10 -14 -4 -9 -15 6 -21 -5 -17 -29 1 -5 -3 -6 -8
-2 -6 3 -8 12 -4 20 8 22 -3 18 -33 -12 -15 -16 -22 -20 -15 -10 9 12 10 21 3
30 -5 6 -9 24 -7 40 2 15 0 39 -5 55 -5 17 -9 -31 -9 -130z"/>
<path fill="#000000" stroke="none" d="M27 253 c-3 -5 5 -8 18 -8 13 0 21 3
18 8 -2 4 -10 7 -18 7 -8 0 -16 -3 -18 -7z"/>
<path fill="#000000" stroke="none" d="M236 135 c-7 -20 4 -46 16 -39 6 4 5
10 -3 15 -11 7 -10 9 4 9 9 0 17 -4 17 -8 0 -5 9 -17 19 -29 10 -11 21 -29 24
-39 4 -17 5 -16 6 3 1 28 -74 109 -83 88z"/>
</g>
</svg>
