<?xml version="1.0" standalone="no"?>
<!DOCTYPE svg PUBLIC "-//W3C//DTD SVG 20010904//EN"
 "http://www.w3.org/TR/2001/REC-SVG-20010904/DTD/svg10.dtd">
<svg version="1.0" xmlns="http://www.w3.org/2000/svg"
 width="32.000000pt" height="32.000000pt" viewBox="0 0 32.000000 32.000000"
 preserveAspectRatio="xMidYMid meet">
<metadata>
Created by potrace 1.16, written by Peter Selinger 2001-2019
</metadata>
<g transform="translate(0.000000,32.000000) scale(0.100000,-0.100000)"
fill="#000000" stroke="none">
<path fill="#000000" stroke="none" d="M1 158 c1 -90 4 -150 8 -133 7 35 34
44 60 21 20 -18 37 -10 21 10 -8 8 -6 17 5 28 22 21 43 11 37 -20 -2 -13 0
-24 5 -24 7 0 9 28 4 60 -1 3 -11 11 -22 19 -19 11 -21 11 -16 -2 4 -11 0 -13
-15 -9 -13 3 -24 -1 -30 -11 -5 -9 -18 -21 -28 -27 -18 -10 -20 -7 -20 28 0
30 5 41 23 50 l22 11 -23 0 c-21 1 -23 5 -20 49 3 41 6 47 27 50 19 3 23 0 17
-14 -4 -10 -4 -15 0 -11 4 4 13 2 21 -4 7 -6 13 -8 13 -4 0 4 8 1 17 -6 10 -8
14 -9 10 -2 -4 6 -3 14 2 17 5 4 13 1 16 -5 7 -11 -55 -70 -67 -63 -3 2 -4 -5
-1 -16 3 -11 9 -22 13 -25 5 -3 6 5 2 17 -3 15 -2 19 7 14 6 -4 10 -4 9 1 -2
4 1 9 5 10 5 1 14 9 21 19 9 12 15 14 20 6 4 -7 4 -16 1 -22 -3 -6 -4 -10 -1
-10 3 0 10 10 17 21 7 13 7 19 1 15 -6 -3 -13 -2 -17 4 -3 5 3 10 14 10 12 0
21 4 21 10 0 5 -7 7 -15 4 -11 -5 -15 1 -15 21 0 21 4 26 16 21 9 -3 18 -6 20
-6 3 0 2 -5 -1 -10 -13 -20 26 -22 45 -2 19 20 18 20 -13 18 -26 -1 -32 3 -33
21 -1 19 4 21 43 21 34 0 43 -3 39 -14 -7 -19 -4 -18 17 6 17 20 16 20 -133
20 l-150 0 1 -162z"/>
<path fill="#ffffff" stroke="none" d="M97 290 c-1 -12 -7 -18 -14 -16 -8 3
-10 -1 -6 -12 5 -14 3 -15 -8 -4 -7 6 -23 12 -36 12 -22 0 -31 19 -16 33 3 4
23 7 44 7 32 0 38 -3 36 -20z"/>
<path fill="#ffffff" stroke="none" d="M174 302 c2 -4 -13 -22 -34 -39 -30
-26 -39 -29 -44 -18 -4 10 1 15 17 15 19 1 20 2 5 11 -25 14 -11 39 22 39 16
0 31 -3 34 -8z"/>
<path fill="#ffffff" stroke="none" d="M77 73 c-4 -3 -1 -13 6 -22 11 -14 10
-14 -5 -2 -16 12 -16 31 -1 31 4 0 3 -3 0 -7z"/>
<path fill="#000000" stroke="none" d="M265 251 c-6 -11 1 -15 18 -12 4 1 3
-8 -3 -19 -12 -23 -25 -27 -17 -6 3 8 0 17 -8 19 -20 8 -27 -4 -12 -21 7 -9 7
-13 1 -9 -7 4 -11 -3 -10 -21 1 -17 -4 -26 -11 -24 -7 1 -13 -2 -13 -8 0 -5
-8 -7 -17 -4 -12 4 -14 3 -6 -3 10 -7 9 -15 -2 -36 -9 -17 -10 -27 -3 -27 6 0
6 -6 -2 -15 -10 -12 -10 -21 -2 -40 15 -31 57 -35 65 -5 5 19 -12 70 -24 70
-11 0 -6 -35 7 -45 9 -6 10 -15 5 -24 -7 -10 -13 -11 -30 -2 -21 12 -27 31
-13 45 7 8 9 13 11 46 0 10 11 24 23 31 18 10 20 9 15 -5 -8 -21 2 -48 15 -40
6 4 5 10 -3 15 -11 7 -10 9 4 9 9 0 17 -4 17 -8 0 -5 9 -17 19 -29 10 -11 21
-29 24 -39 4 -15 5 -13 6 6 1 15 -7 30 -19 38 -27 16 -25 40 3 45 20 4 19 4
-4 6 -15 0 -32 8 -39 16 -10 12 -6 20 21 47 18 18 30 27 25 21 -4 -8 -2 -13 4
-13 17 0 7 21 -17 37 -14 10 -23 11 -28 4z"/>
<path fill="#000000" stroke="none" d="M96 22 c-3 -6 -1 -14 5 -17 14 -9 20
-2 10 14 -6 8 -11 9 -15 3z"/>
</g>
</svg>
