<?xml version="1.0" standalone="no"?>
<!DOCTYPE svg PUBLIC "-//W3C//DTD SVG 20010904//EN"
 "http://www.w3.org/TR/2001/REC-SVG-20010904/DTD/svg10.dtd">
<svg version="1.0" xmlns="http://www.w3.org/2000/svg"
 width="32.000000pt" height="32.000000pt" viewBox="0 0 32.000000 32.000000"
 preserveAspectRatio="xMidYMid meet">
<metadata>
Created by potrace 1.16, written by Peter Selinger 2001-2019
</metadata>
<g transform="translate(0.000000,32.000000) scale(0.100000,-0.100000)"
fill="#000000" stroke="none">
<path fill="#000000" stroke="none" d="M0 189 c0 -108 2 -130 14 -126 8 3 17
3 21 -1 10 -10 29 -9 37 3 5 7 8 6 8 -1 0 -12 29 -12 48 0 7 4 19 3 25 -3 15
-12 57 -11 73 1 6 4 19 2 29 -6 13 -10 24 -10 41 -2 23 11 24 14 24 139 l0
127 -160 0 -160 0 0 -131z"/>
</g>
</svg>
