<?xml version="1.0" standalone="no"?>
<!DOCTYPE svg PUBLIC "-//W3C//DTD SVG 20010904//EN"
 "http://www.w3.org/TR/2001/REC-SVG-20010904/DTD/svg10.dtd">
<svg version="1.0" xmlns="http://www.w3.org/2000/svg"
 width="32.000000pt" height="32.000000pt" viewBox="0 0 32.000000 32.000000"
 preserveAspectRatio="xMidYMid meet">
<metadata>
Created by potrace 1.16, written by Peter Selinger 2001-2019
</metadata>
<g transform="translate(0.000000,32.000000) scale(0.100000,-0.100000)"
fill="#000000" stroke="none">
<path fill="#000000" stroke="none" d="M60 305 c10 -12 4 -23 -23 -44 -14 -11
-17 -11 -15 -1 2 7 -3 15 -9 17 -15 5 -15 -45 0 -64 6 -8 5 -24 -3 -43 -11
-26 -10 -34 9 -65 26 -45 26 -55 1 -55 -11 0 -20 -5 -20 -11 0 -5 4 -8 10 -4
5 3 18 -3 30 -15 24 -24 42 -26 34 -5 -5 11 1 15 21 15 20 0 26 -4 21 -15 -4
-11 2 -15 22 -15 17 0 22 3 14 8 -9 6 -6 14 11 30 l24 22 27 -21 c21 -17 25
-24 14 -30 -8 -6 1 -9 27 -9 47 0 76 30 54 56 -9 11 -9 18 -1 26 14 14 16 72
3 64 -4 -3 -16 3 -25 13 -20 22 -12 49 18 62 17 7 15 8 -10 4 -36 -7 -50 6
-59 55 -6 35 -15 53 -15 32 0 -15 -36 -16 -45 -2 -3 6 -11 10 -17 10 -7 0 -6
-6 2 -15 11 -13 8 -15 -14 -15 -15 0 -29 7 -32 15 -4 9 -17 14 -35 13 -19 -1
-25 -6 -19 -13z"/>
<path fill="#ffffff" stroke="none" d="M160 276 c0 -3 -4 -8 -10 -11 -5 -3
-10 -1 -10 4 0 6 5 11 10 11 6 0 10 -2 10 -4z"/>
<path fill="#ffffff" stroke="none" d="M120 249 c0 -5 -8 -9 -17 -8 -11 0 -13
3 -5 6 6 2 9 10 6 15 -4 7 -2 8 4 4 7 -4 12 -11 12 -17z"/>
<path fill="#ffffff" stroke="none" d="M300 110 c0 -27 -13 -32 -38 -14 -24
17 -29 40 -9 47 19 7 47 -12 47 -33z"/>
<path fill="#ffffff" stroke="none" d="M57 87 c2 -17 1 -19 -7 -7 -11 17 -14
47 -3 36 4 -3 8 -17 10 -29z"/>
<path fill="#ffffff" stroke="none" d="M267 79 c37 -23 41 -52 8 -57 -26 -4
-70 41 -62 62 8 21 13 20 54 -5z"/>
<path fill="#000000" stroke="none" d="M268 308 c19 -19 15 -41 -7 -35 -18 4
-18 2 -8 -20 l11 -25 14 21 c8 11 21 21 29 21 8 0 13 6 10 13 -2 6 -9 11 -15
10 -6 -2 -9 4 -6 12 4 11 -1 15 -17 15 -18 0 -20 -3 -11 -12z"/>
</g>
</svg>
