<?xml version="1.0" standalone="no"?>
<!DOCTYPE svg PUBLIC "-//W3C//DTD SVG 20010904//EN"
 "http://www.w3.org/TR/2001/REC-SVG-20010904/DTD/svg10.dtd">
<svg version="1.0" xmlns="http://www.w3.org/2000/svg"
 width="32.000000pt" height="32.000000pt" viewBox="0 0 32.000000 32.000000"
 preserveAspectRatio="xMidYMid meet">
<metadata>
Created by potrace 1.16, written by Peter Selinger 2001-2019
</metadata>
<g transform="translate(0.000000,32.000000) scale(0.100000,-0.100000)"
fill="#000000" stroke="none">
<path fill="#000000" stroke="none" d="M0 300 c0 -20 1 -20 25 -4 14 9 25 18
25 20 0 2 -11 4 -25 4 -18 0 -25 -5 -25 -20z"/>
<path fill="#000000" stroke="none" d="M56 305 c-7 -20 32 -51 46 -37 6 6 8
17 5 25 -7 19 -44 28 -51 12z"/>
<path fill="#000000" stroke="none" d="M123 295 c0 -20 3 -23 17 -15 10 5 20
6 24 3 3 -3 6 -3 6 1 0 11 -27 36 -38 36 -5 0 -9 -11 -9 -25z"/>
<path fill="#000000" stroke="none" d="M185 310 c3 -5 13 -10 21 -10 8 0 14 5
14 10 0 6 -9 10 -21 10 -11 0 -17 -4 -14 -10z"/>
<path fill="#000000" stroke="none" d="M230 300 c0 -21 8 -24 34 -14 13 5 14
9 5 20 -17 21 -39 17 -39 -6z"/>
<path fill="#000000" stroke="none" d="M297 307 c-3 -8 1 -14 9 -14 8 0 14 6
14 14 0 17 -16 17 -23 0z"/>
<path fill="#000000" stroke="none" d="M185 281 c-6 -5 -21 -11 -35 -13 -17
-2 -25 -9 -25 -23 0 -26 33 -32 42 -8 3 10 13 26 21 36 16 18 13 24 -3 8z"/>
<path fill="#000000" stroke="none" d="M9 259 c-8 -15 -8 -19 0 -15 6 4 11 2
11 -3 0 -16 24 -9 31 9 15 34 -24 42 -42 9z"/>
<path fill="#000000" stroke="none" d="M207 250 c-8 -11 -17 -17 -20 -13 -4 3
-7 2 -7 -4 0 -6 7 -14 16 -17 8 -3 12 -2 9 4 -3 6 -1 10 4 10 6 0 11 7 11 16
0 8 5 12 10 9 6 -3 10 -1 10 4 0 18 -18 13 -33 -9z"/>
<path fill="#000000" stroke="none" d="M290 256 c0 -8 7 -16 15 -20 10 -4 15
1 15 14 0 11 -7 20 -15 20 -8 0 -15 -6 -15 -14z"/>
<path fill="#000000" stroke="none" d="M80 215 c0 -23 -3 -27 -10 -15 -8 12
-10 11 -10 -7 0 -26 18 -31 26 -8 7 18 34 16 49 -3 8 -10 11 -9 12 6 1 14 -7
22 -25 27 -15 4 -30 12 -34 18 -4 7 -8 -1 -8 -18z"/>
<path fill="#000000" stroke="none" d="M1 190 c0 -33 1 -34 11 -12 8 17 8 26
0 34 -9 9 -12 4 -11 -22z"/>
<path fill="#000000" stroke="none" d="M273 194 c-18 -14 -33 -31 -33 -39 0
-18 30 -28 36 -11 3 8 14 12 25 9 16 -5 19 0 19 31 0 43 -5 44 -47 10z"/>
<path fill="#000000" stroke="none" d="M162 171 c4 -13 18 -16 19 -4 0 4 -5 9
-11 12 -7 2 -11 -2 -8 -8z"/>
<path fill="#000000" stroke="none" d="M97 163 c-12 -11 -8 -31 9 -47 20 -21
40 -20 48 0 11 29 -37 68 -57 47z"/>
<path fill="#000000" stroke="none" d="M6 134 c-3 -9 -6 -31 -6 -50 0 -41 21
-46 38 -9 17 36 15 48 -7 62 -16 10 -20 9 -25 -3z"/>
<path fill="#000000" stroke="none" d="M224 93 c3 -8 6 -17 6 -19 0 -2 9 -4
20 -4 29 0 25 27 -6 33 -19 3 -24 1 -20 -10z"/>
<path fill="#000000" stroke="none" d="M304 79 c-3 -6 -1 -16 5 -22 8 -8 11
-5 11 11 0 24 -5 28 -16 11z"/>
<path fill="#000000" stroke="none" d="M170 45 c0 -8 -7 -15 -15 -15 -8 0 -15
-4 -15 -9 0 -12 25 -21 56 -21 20 0 25 4 22 23 -5 34 -48 55 -48 22z"/>
<path fill="#000000" stroke="none" d="M6 33 c-15 -15 -4 -33 19 -33 14 0 25
4 25 10 0 12 -35 31 -44 23z"/>
<path fill="#000000" stroke="none" d="M74 29 c-9 -15 12 -33 30 -26 9 4 16
13 16 22 0 17 -35 21 -46 4z"/>
<path fill="#000000" stroke="none" d="M306 21 c-4 -7 -5 -15 -2 -18 9 -9 19
4 14 18 -4 11 -6 11 -12 0z"/>
</g>
</svg>
