<?xml version="1.0" standalone="no"?>
<!DOCTYPE svg PUBLIC "-//W3C//DTD SVG 20010904//EN"
 "http://www.w3.org/TR/2001/REC-SVG-20010904/DTD/svg10.dtd">
<svg version="1.0" xmlns="http://www.w3.org/2000/svg"
 width="32.000000pt" height="32.000000pt" viewBox="0 0 32.000000 32.000000"
 preserveAspectRatio="xMidYMid meet">
<metadata>
Created by potrace 1.16, written by Peter Selinger 2001-2019
</metadata>
<g transform="translate(0.000000,32.000000) scale(0.100000,-0.100000)"
fill="#000000" stroke="none">
<path fill="#000000" stroke="none" d="M33 275 c0 -22 2 -30 4 -17 2 12 2 30
0 40 -3 9 -5 -1 -4 -23z"/>
<path fill="#000000" stroke="none" d="M62 290 c0 -14 2 -19 5 -12 2 6 2 18 0
25 -3 6 -5 1 -5 -13z"/>
<path fill="#000000" stroke="none" d="M180 275 c0 -38 -20 -45 -32 -10 -3 12
-6 3 -6 -25 0 -25 2 -37 5 -27 8 29 31 19 36 -15 2 -18 5 0 5 40 1 39 0 72 -3
72 -3 0 -5 -16 -5 -35z"/>
<path fill="#000000" stroke="none" d="M213 225 c1 -67 2 -74 4 -27 3 44 8 62
18 62 7 0 16 -6 18 -12 3 -7 5 5 5 27 0 22 -3 30 -5 18 -2 -13 -11 -23 -18
-23 -7 0 -16 10 -18 23 -2 12 -4 -18 -4 -68z"/>
<path fill="#000000" stroke="none" d="M61 244 c0 -11 3 -14 6 -6 3 7 2 16 -1
19 -3 4 -6 -2 -5 -13z"/>
<path fill="#000000" stroke="none" d="M280 139 c0 -41 -3 -50 -15 -45 -9 3
-15 0 -15 -9 0 -8 6 -12 14 -9 11 4 16 -4 19 -33 2 -21 4 4 5 55 1 50 0 92 -3
92 -3 0 -5 -23 -5 -51z"/>
<path fill="#000000" stroke="none" d="M112 145 c0 -16 2 -22 5 -12 2 9 2 23
0 30 -3 6 -5 -1 -5 -18z"/>
<path fill="#000000" stroke="none" d="M62 75 c1 -38 3 -60 5 -47 2 12 13 27
23 32 16 9 19 6 23 -22 3 -24 4 -18 5 18 2 47 0 51 -20 49 -16 -1 -25 5 -30
19 -3 12 -6 -10 -6 -49z"/>
<path fill="#000000" stroke="none" d="M13 65 c0 -33 2 -45 4 -27 2 18 2 45 0
60 -2 15 -4 0 -4 -33z"/>
<path fill="#000000" stroke="none" d="M172 55 c-1 -31 2 -45 7 -37 4 8 12 14
16 14 4 0 12 -6 16 -14 6 -9 8 -3 8 17 0 17 -3 24 -6 18 -10 -25 -32 -13 -36
20 -3 23 -4 18 -5 -18z"/>
</g>
</svg>
