<?xml version="1.0" standalone="no"?>
<!DOCTYPE svg PUBLIC "-//W3C//DTD SVG 20010904//EN"
 "http://www.w3.org/TR/2001/REC-SVG-20010904/DTD/svg10.dtd">
<svg version="1.0" xmlns="http://www.w3.org/2000/svg"
 width="32.000000pt" height="32.000000pt" viewBox="0 0 32.000000 32.000000"
 preserveAspectRatio="xMidYMid meet">
<metadata>
Created by potrace 1.16, written by Peter Selinger 2001-2019
</metadata>
<g transform="translate(0.000000,32.000000) scale(0.100000,-0.100000)"
fill="#000000" stroke="none">
<path fill="#000000" stroke="none" d="M34 220 c0 -52 1 -71 3 -42 3 42 7 52
19 48 8 -3 14 1 14 9 0 8 -6 12 -14 9 -11 -4 -16 4 -19 33 -2 21 -4 -5 -3 -57z"/>
<path fill="#000000" stroke="none" d="M101 285 c0 -16 3 -24 6 -17 10 24 32
12 36 -20 3 -24 4 -19 5 17 1 31 -2 45 -7 37 -4 -8 -12 -14 -16 -14 -4 0 -12
6 -16 14 -6 9 -8 3 -8 -17z"/>
<path fill="#000000" stroke="none" d="M202 264 c-2 -47 0 -51 21 -49 15 1 24
-5 29 -19 3 -12 6 11 6 49 -1 39 -3 60 -5 47 -2 -12 -13 -27 -23 -32 -16 -9
-19 -6 -23 22 -3 24 -4 18 -5 -18z"/>
<path fill="#000000" stroke="none" d="M303 255 c0 -33 2 -45 4 -27 2 18 2 45
0 60 -2 15 -4 0 -4 -33z"/>
<path fill="#000000" stroke="none" d="M202 175 c0 -16 2 -22 5 -12 2 9 2 23
0 30 -3 6 -5 -1 -5 -18z"/>
<path fill="#000000" stroke="none" d="M100 120 c0 -45 -4 -60 -14 -60 -8 0
-17 6 -19 13 -3 6 -5 -6 -5 -28 0 -22 3 -30 5 -18 6 30 30 30 36 1 2 -13 5 16
6 65 0 48 -1 87 -4 87 -3 0 -5 -27 -5 -60z"/>
<path fill="#000000" stroke="none" d="M133 80 c0 -52 2 -63 6 -37 7 42 23 50
33 15 4 -16 6 -9 6 22 0 25 -2 37 -5 28 -8 -30 -31 -20 -36 15 -2 17 -4 -2 -4
-43z"/>
<path fill="#000000" stroke="none" d="M251 74 c0 -11 3 -14 6 -6 3 7 2 16 -1
19 -3 4 -6 -2 -5 -13z"/>
<path fill="#000000" stroke="none" d="M283 45 c0 -22 2 -30 4 -17 2 12 2 30
0 40 -3 9 -5 -1 -4 -23z"/>
<path fill="#000000" stroke="none" d="M252 30 c0 -14 2 -19 5 -12 2 6 2 18 0
25 -3 6 -5 1 -5 -13z"/>
</g>
</svg>
