<?xml version="1.0" standalone="no"?>
<!DOCTYPE svg PUBLIC "-//W3C//DTD SVG 20010904//EN"
 "http://www.w3.org/TR/2001/REC-SVG-20010904/DTD/svg10.dtd">
<svg version="1.0" xmlns="http://www.w3.org/2000/svg"
 width="32.000000pt" height="32.000000pt" viewBox="0 0 32.000000 32.000000"
 preserveAspectRatio="xMidYMid meet">
<metadata>
Created by potrace 1.16, written by Peter Selinger 2001-2019
</metadata>
<g transform="translate(0.000000,32.000000) scale(0.100000,-0.100000)"
fill="#000000" stroke="none">
<path fill="#000000" stroke="none" d="M0 161 l0 -160 160 0 160 -1 -1 160 0
160 -160 0 -159 0 0 -159z"/>
<path fill="#ffffff" stroke="none" d="M80 293 c0 -11 -3 -14 -8 -7 -10 14
-54 13 -48 -2 2 -6 0 -17 -5 -25 -5 -9 -7 -4 -5 16 2 17 4 31 5 33 0 1 15 2
31 2 22 0 30 -5 30 -17z"/>
<path fill="#ffffff" stroke="none" d="M148 303 c-14 -3 -15 -7 -5 -18 6 -7
16 -10 21 -7 5 3 6 0 2 -7 -6 -9 -12 -9 -25 3 -10 9 -21 13 -25 9 -4 -4 -4 0
0 10 3 9 16 16 28 16 16 -1 17 -2 4 -6z"/>
<path fill="#ffffff" stroke="none" d="M220 306 c0 -2 -9 -6 -20 -9 -11 -3
-18 -1 -14 4 5 9 34 13 34 5z"/>
<path fill="#ffffff" stroke="none" d="M303 303 c-7 -2 -21 -2 -30 0 -10 3 -4
5 12 5 17 0 24 -2 18 -5z"/>
<path fill="#ffffff" stroke="none" d="M236 252 c1 -15 -1 -22 -3 -15 -2 7
-11 9 -20 6 -12 -5 -12 -2 3 15 10 12 19 22 19 22 0 0 1 -12 1 -28z"/>
<path fill="#ffffff" stroke="none" d="M120 261 c0 -5 -7 -12 -16 -15 -14 -5
-15 -4 -4 9 14 17 20 19 20 6z"/>
<path fill="#ffffff" stroke="none" d="M310 209 c0 -6 -4 -7 -10 -4 -14 9 -12
-8 3 -24 10 -11 8 -11 -9 -1 -26 16 -27 36 -2 37 10 1 18 -3 18 -8z"/>
<path fill="#ffffff" stroke="none" d="M25 170 c2 -17 0 -28 -3 -25 -3 3 -7
19 -8 36 -1 17 0 28 3 25 3 -3 7 -19 8 -36z"/>
<path fill="#ffffff" stroke="none" d="M154 202 c3 -5 -1 -9 -9 -9 -8 0 -12 4
-9 9 3 4 7 8 9 8 2 0 6 -4 9 -8z"/>
<path fill="#ffffff" stroke="none" d="M115 190 c-3 -5 -1 -10 6 -10 7 0 10
-3 6 -6 -9 -9 -28 6 -22 17 4 5 8 9 11 9 3 0 2 -4 -1 -10z"/>
<path fill="#ffffff" stroke="none" d="M64 164 c3 -8 2 -12 -4 -9 -6 3 -10 10
-10 16 0 14 7 11 14 -7z"/>
<path fill="#ffffff" stroke="none" d="M217 123 c-4 -3 -1 -13 6 -22 11 -14
10 -14 -5 -2 -21 15 -23 31 -6 31 6 0 8 -3 5 -7z"/>
<path fill="#ffffff" stroke="none" d="M275 120 c3 -5 1 -10 -4 -10 -6 0 -11
5 -11 10 0 6 2 10 4 10 3 0 8 -4 11 -10z"/>
<path fill="#ffffff" stroke="none" d="M304 114 c3 -8 2 -12 -4 -9 -6 3 -10
10 -10 16 0 14 7 11 14 -7z"/>
<path fill="#ffffff" stroke="none" d="M23 105 c-3 -9 -8 -14 -10 -11 -3 3 -2
9 2 15 9 16 15 13 8 -4z"/>
<path fill="#ffffff" stroke="none" d="M170 95 c-7 -8 -17 -15 -23 -15 -6 0
-2 7 9 15 25 19 30 19 14 0z"/>
<path fill="#ffffff" stroke="none" d="M80 90 c0 -5 -5 -10 -11 -10 -5 0 -7 5
-4 10 3 6 8 10 11 10 2 0 4 -4 4 -10z"/>
<path fill="#ffffff" stroke="none" d="M23 60 c-3 -12 -8 -19 -11 -16 -5 6 5
36 12 36 2 0 2 -9 -1 -20z"/>
<path fill="#ffffff" stroke="none" d="M204 59 c-3 -6 -1 -15 6 -19 9 -5 9 -9
1 -14 -6 -4 -11 -3 -11 3 0 6 -7 8 -15 5 -21 -8 -19 13 3 25 22 13 25 13 16 0z"/>
<path fill="#ffffff" stroke="none" d="M265 60 c3 -5 1 -10 -4 -10 -6 0 -11 5
-11 10 0 6 2 10 4 10 3 0 8 -4 11 -10z"/>
<path fill="#ffffff" stroke="none" d="M310 36 c0 -3 -4 -8 -10 -11 -5 -3 -10
-1 -10 4 0 6 5 11 10 11 6 0 10 -2 10 -4z"/>
</g>
</svg>
