<?xml version="1.0" standalone="no"?>
<!DOCTYPE svg PUBLIC "-//W3C//DTD SVG 20010904//EN"
 "http://www.w3.org/TR/2001/REC-SVG-20010904/DTD/svg10.dtd">
<svg version="1.0" xmlns="http://www.w3.org/2000/svg"
 width="32.000000pt" height="32.000000pt" viewBox="0 0 32.000000 32.000000"
 preserveAspectRatio="xMidYMid meet">
<metadata>
Created by potrace 1.16, written by Peter Selinger 2001-2019
</metadata>
<g transform="translate(0.000000,32.000000) scale(0.100000,-0.100000)"
fill="#000000" stroke="none">
<path fill="#000000" stroke="none" d="M19 308 c-1 -2 -3 -16 -5 -33 -2 -20 0
-25 5 -16 5 8 7 19 5 25 -6 15 38 16 48 2 5 -7 8 -4 8 7 0 12 -8 17 -30 17
-16 0 -31 -1 -31 -2z"/>
<path fill="#000000" stroke="none" d="M116 293 c-4 -10 -4 -14 0 -10 4 4 15
0 25 -9 13 -12 19 -12 25 -3 4 7 3 10 -2 7 -5 -3 -15 0 -21 7 -10 11 -9 15 5
18 13 4 12 5 -4 6 -12 0 -25 -7 -28 -16z"/>
<path fill="#000000" stroke="none" d="M186 301 c-4 -5 3 -7 14 -4 23 6 26 13
6 13 -8 0 -17 -4 -20 -9z"/>
<path fill="#000000" stroke="none" d="M288 303 c7 -3 16 -2 19 1 4 3 -2 6
-13 5 -11 0 -14 -3 -6 -6z"/>
<path fill="#000000" stroke="none" d="M100 255 c-11 -13 -10 -14 4 -9 9 3 16
10 16 15 0 13 -6 11 -20 -6z"/>
<path fill="#000000" stroke="none" d="M56 217 c3 -10 9 -15 12 -12 3 3 0 11
-7 18 -10 9 -11 8 -5 -6z"/>
<path fill="#000000" stroke="none" d="M160 214 c0 -8 -4 -13 -9 -9 -5 3 -13
0 -17 -7 -4 -7 -4 -10 1 -6 4 4 13 4 19 -2 8 -6 12 -1 14 16 1 13 0 24 -3 24
-3 0 -5 -7 -5 -16z"/>
<path fill="#000000" stroke="none" d="M305 219 c-4 -6 -5 -12 -2 -15 2 -3 7
2 10 11 7 17 1 20 -8 4z"/>
<path fill="#000000" stroke="none" d="M14 181 c1 -17 5 -33 8 -36 3 -3 5 8 3
25 -1 17 -5 33 -8 36 -3 3 -4 -8 -3 -25z"/>
<path fill="#000000" stroke="none" d="M105 191 c-6 -11 13 -26 22 -17 4 3 1
6 -6 6 -7 0 -9 5 -6 10 3 6 4 10 1 10 -3 0 -7 -4 -11 -9z"/>
<path fill="#000000" stroke="none" d="M50 171 c0 -6 4 -13 10 -16 6 -3 7 1 4
9 -7 18 -14 21 -14 7z"/>
<path fill="#000000" stroke="none" d="M260 170 c-8 -5 -12 -12 -9 -15 4 -3
12 1 19 10 14 17 11 19 -10 5z"/>
<path fill="#000000" stroke="none" d="M180 160 c0 -5 5 -10 11 -10 5 0 7 5 4
10 -3 6 -8 10 -11 10 -2 0 -4 -4 -4 -10z"/>
<path fill="#000000" stroke="none" d="M207 130 c-3 -11 2 -25 11 -32 13 -11
14 -11 7 2 -5 8 -8 23 -7 33 4 23 -4 22 -11 -3z"/>
<path fill="#000000" stroke="none" d="M260 120 c0 -5 5 -10 11 -10 5 0 7 5 4
10 -3 6 -8 10 -11 10 -2 0 -4 -4 -4 -10z"/>
<path fill="#000000" stroke="none" d="M290 121 c0 -6 4 -13 10 -16 6 -3 7 1
4 9 -7 18 -14 21 -14 7z"/>
<path fill="#000000" stroke="none" d="M15 109 c-4 -6 -5 -12 -2 -15 2 -3 7 2
10 11 7 17 1 20 -8 4z"/>
<path fill="#000000" stroke="none" d="M67 93 c-4 -3 -7 -11 -7 -17 0 -6 5 -5
12 2 6 6 9 14 7 17 -3 3 -9 2 -12 -2z"/>
<path fill="#000000" stroke="none" d="M13 65 c-3 -9 -3 -18 -1 -21 3 -3 8 4
11 16 6 23 -1 27 -10 5z"/>
<path fill="#000000" stroke="none" d="M250 60 c0 -5 5 -10 11 -10 5 0 7 5 4
10 -3 6 -8 10 -11 10 -2 0 -4 -4 -4 -10z"/>
<path fill="#000000" stroke="none" d="M76 47 c3 -10 9 -15 12 -12 3 3 0 11
-7 18 -10 9 -11 8 -5 -6z"/>
<path fill="#000000" stroke="none" d="M207 43 c-4 -3 -7 -11 -7 -17 0 -6 5
-5 12 2 6 6 9 14 7 17 -3 3 -9 2 -12 -2z"/>
<path fill="#000000" stroke="none" d="M290 29 c0 -5 5 -7 10 -4 6 3 10 8 10
11 0 2 -4 4 -10 4 -5 0 -10 -5 -10 -11z"/>
</g>
</svg>
