<?xml version="1.0" standalone="no"?>
<!DOCTYPE svg PUBLIC "-//W3C//DTD SVG 20010904//EN"
 "http://www.w3.org/TR/2001/REC-SVG-20010904/DTD/svg10.dtd">
<svg version="1.0" xmlns="http://www.w3.org/2000/svg"
 width="32.000000pt" height="32.000000pt" viewBox="0 0 32.000000 32.000000"
 preserveAspectRatio="xMidYMid meet">
<metadata>
Created by potrace 1.16, written by Peter Selinger 2001-2019
</metadata>
<g transform="translate(0.000000,32.000000) scale(0.100000,-0.100000)"
fill="#000000" stroke="none">
<path fill="#000000" stroke="none" d="M16 220 c1 -47 2 -111 3 -142 l1 -57
140 1 141 0 -2 139 c0 76 -4 139 -7 140 -4 1 -68 2 -142 3 l-135 1 1 -85z"/>
<path fill="#ffffff" stroke="none" d="M58 270 c-7 -11 -16 -16 -21 -11 -12
12 0 31 19 31 12 0 12 -3 2 -20z"/>
<path fill="#ffffff" stroke="none" d="M120 270 c-6 -11 -8 -26 -4 -33 4 -6
-2 -4 -12 6 -19 18 -19 19 0 33 26 19 29 18 16 -6z"/>
<path fill="#ffffff" stroke="none" d="M180 276 c0 -2 -7 -9 -15 -16 -12 -10
-15 -10 -15 4 0 9 7 16 15 16 8 0 15 -2 15 -4z"/>
<path fill="#ffffff" stroke="none" d="M277 265 c0 -8 -3 -13 -5 -10 -3 3 -11
0 -19 -6 -10 -9 -13 -8 -13 3 0 8 3 18 7 21 12 12 30 7 30 -8z"/>
<path fill="#ffffff" stroke="none" d="M226 247 c3 -23 -3 -21 -17 4 -8 17 -8
20 2 17 7 -2 13 -12 15 -21z"/>
<path fill="#ffffff" stroke="none" d="M83 223 c3 -5 -1 -14 -9 -21 -12 -11
-14 -9 -14 8 0 20 14 27 23 13z"/>
<path fill="#ffffff" stroke="none" d="M204 221 c3 -5 -1 -14 -9 -21 -12 -10
-15 -10 -15 1 0 11 -2 11 -10 -1 -5 -8 -10 -10 -10 -4 0 12 20 34 31 34 4 0
10 -4 13 -9z"/>
<path fill="#ffffff" stroke="none" d="M290 215 c0 -8 -4 -15 -10 -15 -5 0
-10 7 -10 15 0 8 5 15 10 15 6 0 10 -7 10 -15z"/>
<path fill="#ffffff" stroke="none" d="M152 157 c-2 -5 -11 -2 -20 7 -13 13
-13 17 -1 32 13 15 14 15 20 -7 3 -13 4 -28 1 -32z"/>
<path fill="#ffffff" stroke="none" d="M260 207 c0 -2 -9 -12 -19 -21 -19 -17
-19 -17 -14 3 3 12 12 21 19 21 8 0 14 -2 14 -3z"/>
<path fill="#ffffff" stroke="none" d="M59 171 c11 -7 9 -11 -8 -20 -18 -10
-21 -9 -21 9 0 22 7 25 29 11z"/>
<path fill="#ffffff" stroke="none" d="M103 159 c4 -3 2 -11 -5 -17 -10 -8
-13 -5 -14 15 -1 13 1 21 5 16 3 -4 10 -10 14 -14z"/>
<path fill="#ffffff" stroke="none" d="M240 152 c0 -5 -10 -17 -22 -28 -12
-10 -19 -14 -16 -9 3 6 8 18 11 28 6 17 27 24 27 9z"/>
<path fill="#ffffff" stroke="none" d="M182 143 c-6 -2 -10 -9 -7 -14 4 -5 -1
-6 -9 -3 -20 8 -11 24 12 23 11 0 12 -2 4 -6z"/>
<path fill="#ffffff" stroke="none" d="M117 119 c-9 -6 -15 -14 -12 -18 2 -5
-6 -11 -20 -13 -29 -6 -36 19 -7 28 9 3 24 9 32 14 8 4 17 6 20 3 3 -2 -3 -9
-13 -14z"/>
<path fill="#ffffff" stroke="none" d="M279 123 c-7 -10 -15 -20 -16 -22 -2
-2 -3 5 -3 17 0 14 6 22 16 22 14 0 15 -3 3 -17z"/>
<path fill="#ffffff" stroke="none" d="M200 93 c0 -5 -7 -17 -15 -27 -14 -18
-15 -18 -21 -2 -4 11 -1 22 7 27 17 11 29 11 29 2z"/>
<path fill="#ffffff" stroke="none" d="M130 65 c-7 -9 -15 -13 -17 -11 -7 7 7
26 19 26 6 0 6 -6 -2 -15z"/>
<path fill="#ffffff" stroke="none" d="M261 67 c-6 -8 -8 -17 -4 -20 3 -4 1
-7 -5 -7 -15 0 -25 18 -17 30 3 6 13 10 22 10 12 0 13 -3 4 -13z"/>
<path fill="#ffffff" stroke="none" d="M220 45 c0 -12 -19 -12 -23 0 -4 9 -1
12 9 8 7 -3 14 -7 14 -8z"/>
<path fill="#000000" stroke="none" d="M311 284 c0 -11 3 -14 6 -6 3 7 2 16
-1 19 -3 4 -6 -2 -5 -13z"/>
<path fill="#000000" stroke="none" d="M311 234 c0 -11 3 -14 6 -6 3 7 2 16
-1 19 -3 4 -6 -2 -5 -13z"/>
<path fill="#000000" stroke="none" d="M307 21 c-4 -17 -3 -21 5 -13 5 5 8 16
6 23 -3 8 -7 3 -11 -10z"/>
<path fill="#000000" stroke="none" d="M128 3 c7 -3 16 -2 19 1 4 3 -2 6 -13
5 -11 0 -14 -3 -6 -6z"/>
<path fill="#000000" stroke="none" d="M218 3 c6 -2 18 -2 25 0 6 3 1 5 -13 5
-14 0 -19 -2 -12 -5z"/>
</g>
</svg>
