<?xml version="1.0" standalone="no"?>
<!DOCTYPE svg PUBLIC "-//W3C//DTD SVG 20010904//EN"
 "http://www.w3.org/TR/2001/REC-SVG-20010904/DTD/svg10.dtd">
<svg version="1.0" xmlns="http://www.w3.org/2000/svg"
 width="32.000000pt" height="32.000000pt" viewBox="0 0 32.000000 32.000000"
 preserveAspectRatio="xMidYMid meet">
<metadata>
Created by potrace 1.16, written by Peter Selinger 2001-2019
</metadata>
<g transform="translate(0.000000,32.000000) scale(0.100000,-0.100000)"
fill="#000000" stroke="none">
<path fill="#000000" stroke="none" d="M11 153 c0 -102 3 -150 9 -136 10 25
39 43 58 36 6 -3 12 0 12 6 0 7 8 7 26 0 15 -5 29 -7 32 -4 3 3 0 5 -6 5 -7 0
-12 7 -12 15 0 8 5 15 11 15 6 0 27 14 47 31 26 24 30 30 14 25 -14 -5 -22 -3
-22 4 0 6 -5 8 -10 5 -6 -4 -9 -2 -8 4 2 5 -6 17 -17 25 -18 14 -18 15 -2 16
9 0 17 7 17 15 0 13 -4 14 -22 4 -22 -12 -22 -11 -8 6 13 16 13 18 0 13 -8 -2
-21 1 -28 9 -8 7 -18 11 -23 8 -5 -4 -9 -1 -9 6 0 7 11 10 29 7 25 -4 28 -2
21 11 -7 14 0 16 40 17 27 0 47 -3 44 -8 -3 -5 -10 -6 -15 -3 -5 4 -9 2 -9 -4
0 -5 5 -13 10 -16 8 -5 7 -11 -1 -21 -9 -11 -7 -14 10 -14 13 0 21 -6 21 -16
0 -11 -6 -15 -18 -12 -13 4 -18 -1 -20 -18 -2 -24 12 -32 23 -14 3 6 1 10 -6
10 -7 0 -10 3 -7 6 4 3 16 1 27 -6 17 -9 22 -8 27 5 4 9 13 13 24 10 38 -12
51 4 48 61 l-3 54 -152 0 -153 0 1 -157z"/>
<path fill="#ffffff" stroke="none" d="M65 290 c-3 -5 -12 -10 -18 -10 -7 0
-6 4 3 10 19 12 23 12 15 0z"/>
<path fill="#ffffff" stroke="none" d="M268 278 c-3 -22 -43 -34 -54 -16 -5 8
11 12 30 9 5 -1 4 5 -4 13 -11 14 -9 16 9 16 17 0 22 -5 19 -22z"/>
<path fill="#ffffff" stroke="none" d="M297 280 c1 -11 -2 -20 -8 -20 -5 0 -9
9 -9 20 0 11 4 20 8 20 4 0 8 -9 9 -20z"/>
<path fill="#ffffff" stroke="none" d="M310 233 c0 -9 -3 -13 -7 -10 -3 4 -12
2 -20 -5 -16 -13 -28 -5 -20 14 7 20 47 20 47 1z"/>
<path fill="#ffffff" stroke="none" d="M56 110 c1 -6 2 -13 3 -16 0 -4 8 -1
16 6 12 10 15 10 15 -4 0 -14 -12 -21 -33 -17 -4 1 -10 -6 -13 -14 -4 -8 -10
-15 -15 -15 -10 0 -12 73 -2 84 7 7 27 -9 29 -24z"/>
<path fill="#000000" stroke="none" d="M286 142 c-2 -4 4 -8 14 -8 10 0 16 4
14 8 -7 10 -21 10 -28 0z"/>
<path fill="#000000" stroke="none" d="M188 78 c-26 -9 -32 -21 -31 -55 1 -7
-3 -11 -7 -8 -5 3 -11 1 -15 -5 -4 -6 6 -10 25 -10 17 0 29 4 26 9 -4 5 -1 11
6 13 19 7 58 -3 52 -13 -3 -5 14 -9 38 -9 l43 0 -33 20 c-32 20 -35 40 -6 40
8 0 14 4 14 8 0 5 -7 9 -15 9 -8 0 -15 -4 -15 -9 0 -4 -5 -8 -11 -8 -5 0 -7 5
-4 10 9 15 -4 12 -20 -4 -8 -7 -11 -17 -7 -21 4 -5 -1 -5 -11 -2 -10 4 -21 7
-23 7 -2 0 -4 5 -4 11 0 5 4 8 9 5 5 -3 11 1 15 9 3 8 4 15 3 14 -1 0 -14 -5
-29 -11z"/>
<path fill="#000000" stroke="none" d="M110 41 c0 -7 -4 -10 -9 -7 -5 3 -14
-1 -21 -9 -10 -13 -9 -15 9 -15 21 0 39 25 27 37 -3 4 -6 1 -6 -6z"/>
</g>
</svg>
