<?xml version="1.0" standalone="no"?>
<!DOCTYPE svg PUBLIC "-//W3C//DTD SVG 20010904//EN"
 "http://www.w3.org/TR/2001/REC-SVG-20010904/DTD/svg10.dtd">
<svg version="1.0" xmlns="http://www.w3.org/2000/svg"
 width="32.000000pt" height="32.000000pt" viewBox="0 0 32.000000 32.000000"
 preserveAspectRatio="xMidYMid meet">
<metadata>
Created by potrace 1.16, written by Peter Selinger 2001-2019
</metadata>
<g transform="translate(0.000000,32.000000) scale(0.100000,-0.100000)"
fill="#000000" stroke="none">
<path fill="#000000" stroke="none" d="M2 158 l2 -163 3 158 4 157 87 -1 c56
0 80 -3 67 -9 -11 -4 -29 -6 -41 -3 -18 4 -22 -1 -27 -39 -7 -50 -2 -61 12
-26 13 33 37 53 47 37 4 -7 3 -9 -4 -5 -6 3 -13 2 -17 -4 -4 -6 10 -10 35 -10
33 0 43 4 47 20 6 23 14 25 31 8 9 -9 12 -9 12 0 0 7 -8 16 -17 20 -12 5 -2 9
32 13 28 3 -21 7 -112 7 l-163 2 2 -162z"/>
<path fill="#000000" stroke="none" d="M286 284 c-5 -12 -2 -15 10 -10 8 3 18
6 20 6 2 0 4 5 4 10 0 16 -27 11 -34 -6z"/>
<path fill="#000000" stroke="none" d="M230 249 c0 -5 5 -7 10 -4 6 3 10 8 10
11 0 2 -4 4 -10 4 -5 0 -10 -5 -10 -11z"/>
<path fill="#000000" stroke="none" d="M138 233 c-26 -7 -22 -23 6 -23 33 0
57 10 50 21 -5 9 -26 10 -56 2z"/>
<path fill="#000000" stroke="none" d="M136 180 c-19 -6 -19 -7 -1 -13 20 -8
29 -4 24 11 -2 5 -13 6 -23 2z"/>
<path fill="#000000" stroke="none" d="M28 143 c7 -3 16 -2 19 1 4 3 -2 6 -13
5 -11 0 -14 -3 -6 -6z"/>
<path fill="#000000" stroke="none" d="M112 113 c-7 -7 -10 -18 -6 -24 4 -8 9
-7 16 2 7 10 7 4 3 -16 -4 -16 -11 -32 -16 -36 -5 -3 -7 -13 -3 -22 5 -13 19
-17 65 -17 32 0 59 1 59 3 0 1 -10 11 -22 21 -18 15 -20 16 -15 2 8 -19 -4
-21 -22 -4 -10 10 -15 10 -18 2 -2 -7 -12 -10 -22 -7 -16 4 -17 8 -7 29 6 13
14 24 19 24 12 0 8 30 -6 44 -10 11 -15 10 -25 -1z"/>
<path fill="#000000" stroke="none" d="M62 90 c-6 -16 -7 -32 -2 -35 4 -3 13
9 19 27 13 38 13 38 2 38 -5 0 -14 -13 -19 -30z"/>
<path fill="#000000" stroke="none" d="M180 111 c0 -5 5 -13 10 -16 6 -3 10
-2 10 4 0 5 -4 13 -10 16 -5 3 -10 2 -10 -4z"/>
<path fill="#000000" stroke="none" d="M20 28 c0 -18 6 -23 30 -25 17 -1 30 3
30 8 0 6 -7 9 -15 5 -8 -3 -15 -1 -15 4 0 6 6 10 13 11 6 0 3 4 -8 9 -31 13
-35 12 -35 -12z"/>
</g>
</svg>
