<?xml version="1.0" standalone="no"?>
<!DOCTYPE svg PUBLIC "-//W3C//DTD SVG 20010904//EN"
 "http://www.w3.org/TR/2001/REC-SVG-20010904/DTD/svg10.dtd">
<svg version="1.0" xmlns="http://www.w3.org/2000/svg"
 width="32.000000pt" height="32.000000pt" viewBox="0 0 32.000000 32.000000"
 preserveAspectRatio="xMidYMid meet">
<metadata>
Created by potrace 1.16, written by Peter Selinger 2001-2019
</metadata>
<g transform="translate(0.000000,32.000000) scale(0.100000,-0.100000)"
fill="#000000" stroke="none">
<path fill="#000000" stroke="none" d="M2 158 l2 -163 3 158 4 157 52 -2 52
-1 -45 -6 c-59 -8 -65 -34 -18 -73 23 -19 28 -28 16 -28 -9 0 -19 -8 -21 -17
-4 -17 -5 -17 -6 0 0 9 -5 17 -11 17 -15 0 -13 -107 3 -113 10 -4 9 -7 -1 -18
-6 -7 -12 -26 -12 -41 l0 -28 150 0 151 0 -2 160 -1 160 -159 0 -159 0 2 -162z"/>
<path fill="#ffffff" stroke="none" d="M230 306 c0 -8 -51 -13 -56 -5 -3 5 9
9 25 9 17 0 31 -2 31 -4z"/>
<path fill="#ffffff" stroke="none" d="M250 25 c0 -18 -26 -20 -36 -3 -4 6 -3
8 4 4 6 -3 13 -2 17 4 9 14 15 12 15 -5z"/>
</g>
</svg>
