<?xml version="1.0" standalone="no"?>
<!DOCTYPE svg PUBLIC "-//W3C//DTD SVG 20010904//EN"
 "http://www.w3.org/TR/2001/REC-SVG-20010904/DTD/svg10.dtd">
<svg version="1.0" xmlns="http://www.w3.org/2000/svg"
 width="32.000000pt" height="32.000000pt" viewBox="0 0 32.000000 32.000000"
 preserveAspectRatio="xMidYMid meet">
<metadata>
Created by potrace 1.16, written by Peter Selinger 2001-2019
</metadata>
<g transform="translate(0.000000,32.000000) scale(0.100000,-0.100000)"
fill="#000000" stroke="none">
<path fill="#000000" stroke="none" d="M90 312 l-86 -3 2 -102 c1 -56 2 -125
3 -154 l1 -52 155 0 155 -1 0 26 c0 34 -17 64 -38 65 -10 0 -6 5 11 11 27 10
27 10 27 109 0 87 -2 99 -17 100 -10 0 -43 1 -73 2 -30 1 -93 1 -140 -1z"/>
<path fill="#ffffff" stroke="none" d="M260 130 c0 -11 -2 -20 -4 -20 -2 0 -6
9 -9 20 -3 11 -1 20 4 20 5 0 9 -9 9 -20z"/>
<path fill="#ffffff" stroke="none" d="M172 79 c-12 -11 -27 -17 -34 -13 -6 4
1 12 18 20 40 17 41 17 16 -7z"/>
<path fill="#ffffff" stroke="none" d="M300 45 c-7 -8 -17 -12 -22 -9 -6 4 -5
10 3 15 22 14 33 10 19 -6z"/>
<path fill="#ffffff" stroke="none" d="M150 46 c0 -3 -4 -8 -10 -11 -5 -3 -10
-1 -10 4 0 6 5 11 10 11 6 0 10 -2 10 -4z"/>
</g>
</svg>
