<?xml version="1.0" standalone="no"?>
<!DOCTYPE svg PUBLIC "-//W3C//DTD SVG 20010904//EN"
 "http://www.w3.org/TR/2001/REC-SVG-20010904/DTD/svg10.dtd">
<svg version="1.0" xmlns="http://www.w3.org/2000/svg"
 width="32.000000pt" height="32.000000pt" viewBox="0 0 32.000000 32.000000"
 preserveAspectRatio="xMidYMid meet">
<metadata>
Created by potrace 1.16, written by Peter Selinger 2001-2019
</metadata>
<g transform="translate(0.000000,32.000000) scale(0.100000,-0.100000)"
fill="#000000" stroke="none">
<path fill="#000000" stroke="none" d="M0 303 c0 -7 7 -16 15 -19 8 -4 12 -11
9 -16 -4 -6 -10 -5 -15 3 -5 8 -8 -43 -8 -119 0 -101 3 -131 12 -125 7 4 7 1
-2 -10 -12 -16 -2 -17 142 -16 131 0 156 2 161 16 4 8 6 54 5 101 -1 67 -5 89
-18 99 -15 12 -14 13 2 7 15 -5 17 1 17 44 0 47 -1 50 -27 50 -16 0 -34 -5
-42 -12 -12 -8 -13 -8 -7 2 6 10 -18 12 -118 11 -100 -1 -126 -5 -126 -16z"/>
<path fill="#ffffff" stroke="none" d="M171 287 c-10 -9 -11 -8 -5 6 3 10 9
15 12 12 3 -3 0 -11 -7 -18z"/>
<path fill="#ffffff" stroke="none" d="M133 269 c2 -8 6 -19 9 -25 4 -6 1 -11
-7 -11 -8 0 -13 5 -12 11 1 6 -7 10 -18 8 l-20 -4 20 16 c12 9 15 15 7 16 -7
0 -10 5 -6 11 7 12 24 -1 27 -22z"/>
<path fill="#ffffff" stroke="none" d="M211 253 c13 -16 12 -17 -3 -5 -9 8
-23 10 -29 6 -8 -4 -9 -3 -5 4 10 17 21 15 37 -5z"/>
<path fill="#ffffff" stroke="none" d="M29 201 c2 -26 -13 -1 -16 27 -2 23 -1
24 7 7 5 -11 9 -26 9 -34z"/>
<path fill="#ffffff" stroke="none" d="M195 210 c3 -6 -1 -7 -9 -4 -18 7 -21
14 -7 14 6 0 13 -4 16 -10z"/>
<path fill="#ffffff" stroke="none" d="M230 195 c-7 -9 -15 -13 -19 -10 -3 3
1 10 9 15 21 14 24 12 10 -5z"/>
<path fill="#ffffff" stroke="none" d="M87 151 c0 -11 -5 -18 -9 -15 -4 3 -5
11 -1 19 7 21 12 19 10 -4z"/>
<path fill="#ffffff" stroke="none" d="M154 130 c-6 -6 -10 -3 -10 10 0 13 4
16 10 10 7 -7 7 -13 0 -20z"/>
<path fill="#ffffff" stroke="none" d="M250 156 c0 -2 -8 -10 -17 -17 -16 -13
-17 -12 -4 4 13 16 21 21 21 13z"/>
<path fill="#ffffff" stroke="none" d="M39 134 c4 3 13 1 21 -4 12 -7 12 -12
2 -22 -9 -9 -12 -9 -12 0 0 7 -7 12 -15 12 -8 0 -15 8 -14 18 0 10 3 12 6 4 2
-6 8 -10 12 -8z"/>
<path fill="#ffffff" stroke="none" d="M197 144 c-3 -3 -12 -4 -19 -1 -8 3 -5
6 6 6 11 1 17 -2 13 -5z"/>
<path fill="#ffffff" stroke="none" d="M121 133 c-10 -4 -10 -7 -1 -13 9 -5 8
-9 -3 -13 -13 -5 -16 5 -8 31 1 1 7 2 14 1 8 0 8 -2 -2 -6z"/>
<path fill="#ffffff" stroke="none" d="M95 80 c3 -5 -1 -10 -10 -10 -9 0 -13
5 -10 10 3 6 8 10 10 10 2 0 7 -4 10 -10z"/>
<path fill="#ffffff" stroke="none" d="M195 38 c5 4 5 1 1 -6 -6 -10 -11 -10
-22 -1 -8 6 -14 14 -14 16 0 3 6 0 13 -6 8 -6 18 -7 22 -3z"/>
<path fill="#ffffff" stroke="none" d="M257 26 c0 -6 -10 -11 -23 -11 -15 0
-19 4 -13 11 5 6 15 11 22 11 8 0 14 -5 14 -11z"/>
<path fill="#ffffff" stroke="none" d="M130 18 c0 -4 -7 -8 -15 -8 -8 0 -15 4
-15 8 0 5 7 9 15 9 8 0 15 -4 15 -9z"/>
</g>
</svg>
