<?xml version="1.0" standalone="no"?>
<!DOCTYPE svg PUBLIC "-//W3C//DTD SVG 20010904//EN"
 "http://www.w3.org/TR/2001/REC-SVG-20010904/DTD/svg10.dtd">
<svg version="1.0" xmlns="http://www.w3.org/2000/svg"
 width="32.000000pt" height="32.000000pt" viewBox="0 0 32.000000 32.000000"
 preserveAspectRatio="xMidYMid meet">
<metadata>
Created by potrace 1.16, written by Peter Selinger 2001-2019
</metadata>
<g transform="translate(0.000000,32.000000) scale(0.100000,-0.100000)"
fill="#000000" stroke="none">
<path fill="#000000" stroke="none" d="M0 258 c0 -48 3 -59 14 -55 8 3 16 -2
19 -14 4 -16 2 -19 -13 -14 -17 6 -19 0 -19 -67 1 -108 1 -108 67 -108 31 0
52 4 46 8 -13 8 -10 40 5 55 7 7 8 3 4 -12 -10 -40 12 -51 109 -51 87 0 89 1
86 22 -4 29 -34 36 -40 10 -5 -17 -20 -20 -58 -13 -3 1 2 6 10 11 13 9 13 11
0 19 -11 8 -7 10 15 9 77 -2 76 -3 73 56 -1 30 -6 52 -10 50 -4 -3 -8 -1 -8 4
0 6 -7 12 -15 16 -8 3 -14 0 -12 -5 3 -17 -36 -19 -57 -4 -11 8 -16 18 -13 22
4 3 14 -2 22 -13 13 -17 16 -17 28 -4 14 18 61 25 51 8 -4 -7 -2 -8 4 -4 7 4
12 34 12 72 0 61 -1 64 -24 64 -13 0 -27 -6 -30 -12 -5 -10 -7 -10 -12 0 -3 6
-10 12 -15 12 -6 0 -7 -4 -4 -10 9 -14 -8 -12 -24 3 -11 10 -13 10 -7 0 5 -9
0 -13 -14 -13 -12 0 -18 4 -15 10 4 6 -27 9 -84 9 l-91 -2 0 -59z"/>
<path fill="#ffffff" stroke="none" d="M25 300 c3 -5 1 -10 -4 -10 -6 0 -11 5
-11 10 0 6 2 10 4 10 3 0 8 -4 11 -10z"/>
<path fill="#ffffff" stroke="none" d="M112 286 c4 -19 1 -24 -13 -23 -10 1
-15 6 -11 12 4 5 7 13 8 18 3 14 4 17 8 17 2 0 6 -11 8 -24z"/>
<path fill="#ffffff" stroke="none" d="M237 274 c0 -17 -7 -17 -30 0 -16 13
-16 14 6 14 13 0 24 -6 24 -14z"/>
<path fill="#ffffff" stroke="none" d="M295 280 c3 -6 -1 -7 -9 -4 -11 4 -16
0 -16 -10 0 -9 3 -16 8 -16 4 0 12 -8 19 -19 10 -16 8 -18 -20 -18 -18 0 -24
2 -14 4 17 4 17 6 2 29 -9 14 -13 29 -10 34 8 13 32 13 40 0z"/>
<path fill="#ffffff" stroke="none" d="M150 260 c0 -5 -2 -10 -4 -10 -3 0 -8
5 -11 10 -3 6 -1 10 4 10 6 0 11 -4 11 -10z"/>
<path fill="#ffffff" stroke="none" d="M203 253 c-7 -2 -19 -2 -25 0 -7 3 -2
5 12 5 14 0 19 -2 13 -5z"/>
<path fill="#ffffff" stroke="none" d="M130 241 c3 0 6 -13 6 -27 2 -25 2 -25
-13 -5 -8 12 -22 20 -30 19 -9 -2 -18 2 -20 9 -4 10 23 12 57 4z"/>
<path fill="#ffffff" stroke="none" d="M215 219 c-7 -11 -35 -12 -35 -1 0 4 9
8 20 9 11 1 18 -2 15 -8z"/>
<path fill="#ffffff" stroke="none" d="M104 169 c-2 -3 -15 -6 -30 -6 -17 0
-22 2 -13 7 15 10 49 9 43 -1z"/>
<path fill="#ffffff" stroke="none" d="M67 136 c0 -8 -11 -13 -24 -13 -22 0
-22 0 -6 13 23 17 30 17 30 0z"/>
<path fill="#ffffff" stroke="none" d="M97 135 c0 -8 -4 -15 -8 -15 -11 0 -20
16 -12 24 11 11 20 7 20 -9z"/>
<path fill="#ffffff" stroke="none" d="M160 136 c0 -2 -7 -6 -15 -10 -8 -3
-15 -1 -15 4 0 6 7 10 15 10 8 0 15 -2 15 -4z"/>
<path fill="#ffffff" stroke="none" d="M181 111 c-12 -12 -21 -18 -21 -14 0
10 33 44 37 39 3 -2 -5 -14 -16 -25z"/>
<path fill="#ffffff" stroke="none" d="M250 136 c0 -2 -9 -6 -20 -9 -11 -3
-20 -1 -20 4 0 5 9 9 20 9 11 0 20 -2 20 -4z"/>
<path fill="#ffffff" stroke="none" d="M62 98 c-7 -7 -16 -7 -28 0 -14 8 -13
10 10 10 18 0 24 -4 18 -10z"/>
<path fill="#ffffff" stroke="none" d="M40 86 c0 -3 -4 -8 -10 -11 -5 -3 -10
-1 -10 4 0 6 5 11 10 11 6 0 10 -2 10 -4z"/>
<path fill="#ffffff" stroke="none" d="M40 35 c10 -12 10 -15 -2 -15 -8 0 -15
7 -15 15 0 8 1 15 2 15 2 0 8 -7 15 -15z"/>
</g>
</svg>
