<?xml version="1.0" standalone="no"?>
<!DOCTYPE svg PUBLIC "-//W3C//DTD SVG 20010904//EN"
 "http://www.w3.org/TR/2001/REC-SVG-20010904/DTD/svg10.dtd">
<svg version="1.0" xmlns="http://www.w3.org/2000/svg"
 width="32.000000pt" height="32.000000pt" viewBox="0 0 32.000000 32.000000"
 preserveAspectRatio="xMidYMid meet">
<metadata>
Created by potrace 1.16, written by Peter Selinger 2001-2019
</metadata>
<g transform="translate(0.000000,32.000000) scale(0.100000,-0.100000)"
fill="#000000" stroke="none">
<path fill="#000000" stroke="none" d="M0 303 c0 -8 7 -16 15 -19 8 -4 12 -10
9 -15 -3 -5 -9 -7 -13 -4 -5 2 -9 -49 -10 -115 -1 -83 2 -120 10 -120 8 0 8
-5 -1 -15 -11 -13 2 -15 106 -14 65 0 122 3 127 6 4 2 3 11 -4 19 -9 11 -8 14
4 14 10 0 15 -7 12 -19 -3 -16 2 -19 25 -19 16 1 31 7 35 15 8 23 4 194 -5
188 -4 -3 -10 2 -13 10 -4 9 -1 12 9 8 11 -4 14 5 14 45 0 47 -1 50 -27 50
-16 0 -34 -5 -42 -12 -12 -8 -13 -8 -7 2 6 10 -18 12 -118 10 -98 -1 -126 -5
-126 -15z"/>
<path fill="#ffffff" stroke="none" d="M124 298 c-5 -8 -2 -9 9 -5 10 4 17 1
17 -6 0 -7 7 -3 15 7 18 24 19 17 3 -15 -9 -16 -22 -24 -41 -25 -20 -1 -25 2
-17 11 5 6 7 15 4 18 -6 6 3 27 12 27 3 0 2 -5 -2 -12z"/>
<path fill="#ffffff" stroke="none" d="M42 238 c-8 -8 -9 -4 -5 13 4 13 8 18
11 10 2 -7 -1 -18 -6 -23z"/>
<path fill="#ffffff" stroke="none" d="M204 264 c9 -3 16 -11 16 -16 0 -6 -6
-5 -15 2 -8 6 -20 8 -26 4 -8 -4 -9 -3 -5 4 8 14 9 14 30 6z"/>
<path fill="#ffffff" stroke="none" d="M29 201 c2 -26 -13 -1 -16 27 -2 23 -1
24 7 7 5 -11 9 -26 9 -34z"/>
<path fill="#ffffff" stroke="none" d="M197 221 c0 -10 -6 -17 -12 -15 -18 7
-36 -42 -26 -69 6 -15 5 -29 -1 -38 -8 -11 -9 -10 -4 5 5 15 2 17 -17 12 -47
-11 -41 5 37 96 8 9 12 19 9 22 -4 3 -1 6 5 6 6 0 10 -9 9 -19z"/>
<path fill="#ffffff" stroke="none" d="M53 215 c-3 -9 -8 -14 -10 -11 -3 3 -2
9 2 15 9 16 15 13 8 -4z"/>
<path fill="#ffffff" stroke="none" d="M225 190 c-3 -5 -11 -10 -16 -10 -6 0
-7 5 -4 10 3 6 11 10 16 10 6 0 7 -4 4 -10z"/>
<path fill="#ffffff" stroke="none" d="M91 161 c-6 -10 -7 -22 -3 -26 4 -5 1
-5 -6 -1 -9 5 -9 12 -2 27 6 10 13 19 16 19 2 0 0 -8 -5 -19z"/>
<path fill="#ffffff" stroke="none" d="M241 156 c12 6 12 5 0 -9 -18 -23 -26
-21 -28 5 -2 16 0 19 6 9 6 -8 14 -10 22 -5z"/>
<path fill="#ffffff" stroke="none" d="M42 136 c7 4 8 2 4 -4 -11 -18 -26 -14
-25 6 0 10 3 12 6 4 2 -6 10 -9 15 -6z"/>
<path fill="#ffffff" stroke="none" d="M197 144 c-3 -3 -12 -4 -19 -1 -8 3 -5
6 6 6 11 1 17 -2 13 -5z"/>
<path fill="#ffffff" stroke="none" d="M304 121 c3 -5 0 -11 -7 -14 -8 -3 -14
1 -14 9 0 16 13 19 21 5z"/>
<path fill="#ffffff" stroke="none" d="M185 90 c3 -5 1 -10 -4 -10 -6 0 -11 5
-11 10 0 6 2 10 4 10 3 0 8 -4 11 -10z"/>
<path fill="#ffffff" stroke="none" d="M263 88 c-4 -7 -8 -17 -8 -22 0 -5 -6
-11 -14 -14 -9 -3 -11 0 -6 9 12 21 27 39 32 39 2 0 1 -6 -4 -12z"/>
<path fill="#ffffff" stroke="none" d="M70 74 c0 -8 -19 -13 -24 -6 -3 5 1 9
9 9 8 0 15 -2 15 -3z"/>
<path fill="#ffffff" stroke="none" d="M298 73 c-10 -2 -18 -12 -18 -20 0 -9
-3 -14 -6 -10 -12 11 5 37 23 36 17 -1 17 -2 1 -6z"/>
<path fill="#ffffff" stroke="none" d="M218 64 c-4 -3 -12 -6 -20 -8 -7 -1
-19 -6 -27 -10 -9 -6 -12 -5 -7 2 3 5 0 13 -6 15 -7 3 5 6 26 6 22 1 37 -2 34
-5z"/>
<path fill="#ffffff" stroke="none" d="M130 25 c0 -8 -7 -15 -15 -15 -8 0 -15
5 -15 11 0 5 5 7 10 4 6 -3 10 -1 10 4 0 6 2 11 5 11 3 0 5 -7 5 -15z"/>
<path fill="#000000" stroke="none" d="M125 270 c-3 -6 1 -7 9 -4 18 7 21 14
7 14 -6 0 -13 -4 -16 -10z"/>
<path fill="#000000" stroke="none" d="M122 135 c-7 -8 -9 -15 -4 -15 5 0 15
7 22 15 16 19 -1 19 -18 0z"/>
</g>
</svg>
