<?xml version="1.0" standalone="no"?>
<!DOCTYPE svg PUBLIC "-//W3C//DTD SVG 20010904//EN"
 "http://www.w3.org/TR/2001/REC-SVG-20010904/DTD/svg10.dtd">
<svg version="1.0" xmlns="http://www.w3.org/2000/svg"
 width="32.000000pt" height="32.000000pt" viewBox="0 0 32.000000 32.000000"
 preserveAspectRatio="xMidYMid meet">
<metadata>
Created by potrace 1.16, written by Peter Selinger 2001-2019
</metadata>
<g transform="translate(0.000000,32.000000) scale(0.100000,-0.100000)"
fill="#000000" stroke="none">
<path fill="#000000" stroke="none" d="M1 189 l0 -130 27 16 27 16 -27 -25
c-35 -32 -37 -66 -5 -66 13 0 28 5 35 12 8 8 15 8 25 -1 10 -8 52 -11 126 -10
l111 3 0 128 c0 84 -4 127 -10 123 -5 -3 -10 -2 -10 4 0 5 4 13 10 16 6 3 10
15 10 25 0 18 -10 19 -159 19 l-160 1 0 -131z"/>
<path fill="#ffffff" stroke="none" d="M100 266 c0 -6 -5 -4 -10 4 -5 8 -10
11 -10 7 0 -5 -5 -5 -10 -2 -6 4 -8 11 -4 16 7 12 34 -8 34 -25z"/>
<path fill="#ffffff" stroke="none" d="M190 280 c0 -5 -4 -10 -10 -10 -5 0
-10 5 -10 10 0 6 5 10 10 10 6 0 10 -4 10 -10z"/>
<path fill="#ffffff" stroke="none" d="M35 242 c-3 -3 -11 0 -18 7 -9 10 -8
11 6 5 10 -3 15 -9 12 -12z"/>
<path fill="#ffffff" stroke="none" d="M175 220 c-3 -5 -12 -10 -18 -10 -7 0
-6 4 3 10 19 12 23 12 15 0z"/>
<path fill="#ffffff" stroke="none" d="M195 191 c3 -5 1 -12 -5 -16 -5 -3 -10
1 -10 9 0 18 6 21 15 7z"/>
<path fill="#ffffff" stroke="none" d="M215 150 c3 -6 -1 -7 -9 -4 -18 7 -21
14 -7 14 6 0 13 -4 16 -10z"/>
<path fill="#ffffff" stroke="none" d="M206 108 c5 -7 3 -8 -6 -3 -10 6 -12 4
-6 -11 5 -14 4 -16 -5 -7 -6 6 -8 16 -5 22 9 14 13 14 22 -1z"/>
</g>
</svg>
