<?xml version="1.0" standalone="no"?>
<!DOCTYPE svg PUBLIC "-//W3C//DTD SVG 20010904//EN"
 "http://www.w3.org/TR/2001/REC-SVG-20010904/DTD/svg10.dtd">
<svg version="1.0" xmlns="http://www.w3.org/2000/svg"
 width="32.000000pt" height="32.000000pt" viewBox="0 0 32.000000 32.000000"
 preserveAspectRatio="xMidYMid meet">
<metadata>
Created by potrace 1.16, written by Peter Selinger 2001-2019
</metadata>
<g transform="translate(0.000000,32.000000) scale(0.100000,-0.100000)"
fill="#000000" stroke="none">
<path fill="#000000" stroke="none" d="M15 312 c-5 -4 -11 -14 -11 -23 -1 -12
4 -15 20 -11 11 3 15 7 9 9 -7 3 -9 11 -6 19 6 16 3 17 -12 6z"/>
<path fill="#000000" stroke="none" d="M65 310 c-3 -5 -3 -10 2 -10 4 0 1 -5
-7 -10 -10 -6 -11 -10 -2 -10 6 0 15 0 19 0 10 -1 13 29 3 35 -5 3 -11 1 -15
-5z"/>
<path fill="#000000" stroke="none" d="M104 308 c-4 -6 -3 -8 3 -5 5 3 17 -7
26 -23 21 -34 5 -51 -17 -19 -13 19 -18 20 -31 9 -9 -7 -32 -13 -52 -12 -35 1
-36 1 -16 -13 14 -10 19 -22 16 -35 -6 -22 3 -25 27 -10 18 11 41 -6 33 -26
-3 -8 0 -14 7 -14 6 0 8 5 5 10 -3 6 0 10 8 10 10 0 14 -9 12 -30 -2 -18 2
-30 9 -29 29 3 40 -3 21 -11 -19 -8 -19 -9 2 -9 22 -1 55 -41 33 -41 -5 0 -10
7 -10 15 0 19 -17 19 -36 0 -12 -12 -12 -18 -2 -35 7 -11 17 -20 23 -20 5 0 3
-5 -5 -10 -9 -6 -10 -10 -3 -10 16 0 26 17 13 25 -5 3 -10 11 -10 17 0 7 5 6
14 -1 11 -10 16 -9 24 5 8 15 11 15 30 -1 11 -10 18 -24 15 -31 -3 -10 3 -14
21 -14 14 0 26 4 26 9 0 5 -8 7 -18 4 -13 -3 -19 1 -19 12 0 10 6 14 16 10 8
-3 12 -3 8 1 -4 4 1 16 10 27 10 11 12 17 5 13 -7 -4 -15 -1 -18 8 -3 9 -11
13 -17 9 -5 -3 -7 -1 -3 5 3 5 0 12 -6 15 -7 2 -1 4 15 4 15 0 30 -4 34 -10 4
-6 1 -7 -8 -2 -11 6 -12 5 -2 -5 16 -18 20 -13 26 35 l5 39 -18 -24 -18 -24
-36 27 c-28 22 -34 24 -30 10 5 -14 4 -15 -4 -4 -6 8 -8 20 -5 27 2 7 -5 15
-16 19 -12 3 -19 11 -16 16 4 5 -3 9 -14 9 -23 0 -27 -10 -11 -26 8 -8 2 -11
-20 -12 -25 -1 -30 3 -29 21 1 17 2 18 6 5 6 -26 23 -22 18 3 -3 12 -2 19 2
16 3 -4 19 3 35 14 28 20 30 20 49 4 10 -10 19 -23 19 -29 0 -6 -5 -4 -10 4
-5 8 -10 11 -10 5 0 -5 -5 -3 -10 5 -8 12 -10 12 -10 1 0 -23 32 -40 57 -30
17 6 25 4 33 -9 8 -13 10 -13 9 -2 -3 22 12 51 22 44 5 -3 9 10 8 28 0 18 -3
26 -6 18 -9 -26 -45 -60 -56 -53 -6 4 -7 1 -2 -8 6 -11 5 -11 -5 -2 -13 12 -5
37 10 28 5 -3 12 0 16 6 4 8 3 9 -4 5 -8 -5 -12 0 -12 13 0 13 5 19 14 15 8
-3 17 -1 21 5 4 7 0 8 -11 4 -13 -5 -15 -3 -9 8 5 8 -7 2 -26 -12 -32 -25 -37
-26 -62 -13 -23 12 -26 12 -21 0 3 -8 0 -17 -7 -22 -7 -4 -10 -3 -5 4 3 6 -2
15 -11 21 -14 8 -15 10 -3 11 13 0 13 1 0 10 -20 13 -27 12 -36 -2z"/>
<path fill="#ffffff" stroke="none" d="M250 270 c0 -5 -7 -10 -16 -10 -8 0
-12 5 -9 10 3 6 10 10 16 10 5 0 9 -4 9 -10z"/>
<path fill="#ffffff" stroke="none" d="M115 250 c3 -5 2 -10 -4 -10 -5 0 -13
5 -16 10 -3 6 -2 10 4 10 5 0 13 -4 16 -10z"/>
<path fill="#ffffff" stroke="none" d="M154 168 c-6 -10 -4 -10 8 0 13 10 18
8 32 -13 13 -19 21 -23 30 -16 7 6 17 6 26 1 12 -8 12 -10 -4 -10 -13 0 -17
-5 -13 -20 3 -11 1 -18 -4 -14 -5 3 -9 -2 -9 -11 0 -9 -5 -13 -10 -10 -8 5 -7
11 0 20 15 18 4 36 -15 28 -8 -3 -15 0 -15 7 0 7 -7 10 -15 6 -8 -3 -15 -1
-15 5 0 6 -4 8 -9 5 -7 -5 -8 11 -2 32 1 1 6 2 12 2 5 0 7 -6 3 -12z"/>
<path fill="#000000" stroke="none" d="M195 310 c3 -5 12 -7 20 -3 21 7 19 13
-6 13 -11 0 -18 -4 -14 -10z"/>
<path fill="#000000" stroke="none" d="M0 180 c0 -13 9 -24 26 -30 38 -15 50
-12 28 6 -19 15 -18 15 4 11 12 -3 22 -2 22 2 0 16 -12 19 -41 11 -16 -5 -27
-5 -24 0 3 5 1 11 -5 15 -5 3 -10 -3 -10 -15z"/>
<path fill="#000000" stroke="none" d="M250 189 c0 -5 5 -7 10 -4 6 3 10 8 10
11 0 2 -4 4 -10 4 -5 0 -10 -5 -10 -11z"/>
<path fill="#000000" stroke="none" d="M276 172 c-2 -4 -1 -14 4 -22 7 -11 9
-9 7 8 -1 24 -3 26 -11 14z"/>
<path fill="#000000" stroke="none" d="M80 146 c0 -2 7 -7 16 -10 8 -3 12 -2
9 4 -6 10 -25 14 -25 6z"/>
<path fill="#000000" stroke="none" d="M80 98 c0 -3 6 -9 13 -12 9 -5 9 -7 -1
-12 -6 -3 -9 -10 -6 -16 4 -6 1 -9 -7 -6 -8 3 -14 14 -13 24 1 14 -5 20 -21
20 -16 0 -21 -4 -17 -15 3 -8 1 -12 -5 -8 -6 4 -13 0 -17 -8 -3 -9 0 -15 9
-15 8 0 16 -4 16 -10 1 -5 2 -16 3 -22 0 -8 19 -14 46 -16 28 -1 40 1 32 6 -9
6 -11 18 -6 38 5 16 7 35 5 43 -1 7 2 10 8 6 6 -3 11 -2 11 3 0 6 -11 9 -25 8
-14 0 -25 -4 -25 -8z"/>
<path fill="#ffffff" stroke="none" d="M57 65 c0 -8 -6 -15 -14 -15 -14 0 -17
12 -6 23 11 11 20 8 20 -8z"/>
<path fill="#ffffff" stroke="none" d="M87 24 c0 -10 -5 -10 -21 -2 -29 15
-30 16 -3 16 13 0 24 -6 24 -14z"/>
<path fill="#000000" stroke="none" d="M295 50 c-3 -6 1 -7 9 -4 18 7 21 14 7
14 -6 0 -13 -4 -16 -10z"/>
</g>
</svg>
