<?xml version="1.0" standalone="no"?>
<!DOCTYPE svg PUBLIC "-//W3C//DTD SVG 20010904//EN"
 "http://www.w3.org/TR/2001/REC-SVG-20010904/DTD/svg10.dtd">
<svg version="1.0" xmlns="http://www.w3.org/2000/svg"
 width="32.000000pt" height="32.000000pt" viewBox="0 0 32.000000 32.000000"
 preserveAspectRatio="xMidYMid meet">
<metadata>
Created by potrace 1.16, written by Peter Selinger 2001-2019
</metadata>
<g transform="translate(0.000000,32.000000) scale(0.100000,-0.100000)"
fill="#000000" stroke="none">
<path fill="#000000" stroke="none" d="M0 258 c0 -48 3 -59 14 -55 8 3 16 -2
19 -14 6 -21 -3 -25 -21 -7 -9 9 -11 -7 -11 -68 1 -115 1 -114 65 -114 35 0
54 4 54 12 0 9 3 9 12 0 8 -8 45 -12 101 -12 86 0 88 1 85 22 -4 30 -34 35
-43 8 -3 -11 -11 -18 -16 -14 -16 10 23 46 43 40 16 -4 18 2 16 54 -1 32 -6
56 -10 54 -4 -3 -8 -1 -8 5 0 5 5 13 10 16 6 3 10 35 10 71 0 61 -1 64 -24 64
-13 0 -27 -6 -30 -12 -5 -10 -7 -10 -12 0 -7 15 -38 16 -66 1 -15 -8 -19 -8
-14 0 5 8 -20 10 -83 10 l-91 -2 0 -59z"/>
<path fill="#ffffff" stroke="none" d="M29 296 c9 -11 9 -16 0 -22 -8 -4 -9
-3 -5 4 4 7 2 12 -3 12 -6 0 -11 5 -11 10 0 14 5 13 19 -4z"/>
<path fill="#ffffff" stroke="none" d="M113 280 c3 -13 10 -18 21 -14 9 3 16
1 16 -5 0 -23 -33 -11 -59 22 -11 14 -11 17 2 17 8 0 17 -9 20 -20z"/>
<path fill="#ffffff" stroke="none" d="M82 245 c3 -13 1 -22 -3 -19 -9 5 -13
44 -5 44 2 0 6 -11 8 -25z"/>
<path fill="#ffffff" stroke="none" d="M290 240 c0 -5 -5 -10 -11 -10 -5 0 -7
5 -4 10 3 6 8 10 11 10 2 0 4 -4 4 -10z"/>
<path fill="#ffffff" stroke="none" d="M136 214 c2 -23 1 -24 -11 -7 -7 10
-11 21 -9 25 10 16 19 7 20 -18z"/>
<path fill="#ffffff" stroke="none" d="M215 219 c-7 -11 -35 -12 -35 -1 0 4 9
8 20 9 11 1 18 -2 15 -8z"/>
<path fill="#ffffff" stroke="none" d="M270 176 c0 -28 -13 -11 -16 21 -2 21
-1 24 6 13 5 -8 10 -24 10 -34z"/>
<path fill="#ffffff" stroke="none" d="M229 178 c13 -20 12 -22 -1 -11 -8 7
-18 10 -21 6 -4 -3 -7 1 -7 10 0 24 13 21 29 -5z"/>
<path fill="#ffffff" stroke="none" d="M160 136 c0 -2 -7 -6 -15 -10 -8 -3
-15 -1 -15 4 0 6 7 10 15 10 8 0 15 -2 15 -4z"/>
<path fill="#ffffff" stroke="none" d="M200 131 c0 -5 -7 -12 -16 -15 -14 -5
-15 -4 -4 9 14 17 20 19 20 6z"/>
<path fill="#ffffff" stroke="none" d="M243 133 c-7 -2 -19 -2 -25 0 -7 3 -2
5 12 5 14 0 19 -2 13 -5z"/>
<path fill="#ffffff" stroke="none" d="M96 121 c-3 -5 -15 -7 -26 -4 -28 7
-25 13 6 13 14 0 23 -4 20 -9z"/>
<path fill="#ffffff" stroke="none" d="M290 104 c0 -20 -7 -17 -20 6 -9 16 -8
18 5 14 8 -4 15 -12 15 -20z"/>
<path fill="#ffffff" stroke="none" d="M50 31 c0 -4 -6 -8 -13 -8 -8 0 -14 6
-14 13 0 7 6 10 14 7 7 -3 13 -8 13 -12z"/>
<path fill="#ffffff" stroke="none" d="M240 20 c0 -5 -2 -10 -4 -10 -3 0 -8 5
-11 10 -3 6 -1 10 4 10 6 0 11 -4 11 -10z"/>
</g>
</svg>
