<?xml version="1.0" standalone="no"?>
<!DOCTYPE svg PUBLIC "-//W3C//DTD SVG 20010904//EN"
 "http://www.w3.org/TR/2001/REC-SVG-20010904/DTD/svg10.dtd">
<svg version="1.0" xmlns="http://www.w3.org/2000/svg"
 width="32.000000pt" height="32.000000pt" viewBox="0 0 32.000000 32.000000"
 preserveAspectRatio="xMidYMid meet">
<metadata>
Created by potrace 1.16, written by Peter Selinger 2001-2019
</metadata>
<g transform="translate(0.000000,32.000000) scale(0.100000,-0.100000)"
fill="#000000" stroke="none">
<path fill="#000000" stroke="none" d="M195 271 c-9 -15 8 -35 24 -30 8 3 7
10 -2 23 -10 14 -16 16 -22 7z"/>
<path fill="#000000" stroke="none" d="M117 248 c-7 -27 -1 -36 15 -20 7 7 17
12 22 12 6 0 1 -7 -12 -15 -12 -9 -26 -30 -32 -48 l-10 -32 6 38 c5 34 3 37
-21 37 -29 0 -29 -2 -13 -47 9 -25 17 -33 30 -30 17 5 22 -3 19 -29 -1 -8 15
-11 45 -10 56 2 84 30 82 81 -1 19 -4 33 -7 33 -8 -2 -65 25 -71 33 -3 3 -15
9 -26 13 -17 5 -23 2 -27 -16z"/>
<path fill="#ffffff" stroke="none" d="M184 178 c8 -14 7 -21 -6 -34 -30 -30
-75 9 -48 42 16 18 39 15 54 -8z"/>
<path fill="#000000" stroke="none" d="M75 120 c-8 -14 3 -30 21 -30 18 0 18
8 0 26 -9 9 -17 10 -21 4z"/>
</g>
</svg>
