<?xml version="1.0" standalone="no"?>
<!DOCTYPE svg PUBLIC "-//W3C//DTD SVG 20010904//EN"
 "http://www.w3.org/TR/2001/REC-SVG-20010904/DTD/svg10.dtd">
<svg version="1.0" xmlns="http://www.w3.org/2000/svg"
 width="32.000000pt" height="32.000000pt" viewBox="0 0 32.000000 32.000000"
 preserveAspectRatio="xMidYMid meet">
<metadata>
Created by potrace 1.16, written by Peter Selinger 2001-2019
</metadata>
<g transform="translate(0.000000,32.000000) scale(0.100000,-0.100000)"
fill="#000000" stroke="none">
<path fill="#000000" stroke="none" d="M95 205 c-14 -13 -24 -34 -24 -47 1
-16 3 -18 6 -6 2 9 10 15 18 12 7 -3 16 -1 19 5 9 13 36 3 32 -12 -1 -7 -1 -9
1 -4 3 4 10 4 15 1 6 -4 8 -2 4 4 -3 5 0 13 6 15 10 4 10 6 0 6 -7 1 -11 5 -7
10 6 10 -21 41 -36 41 -6 0 -21 -11 -34 -25z"/>
<path fill="#ffffff" stroke="none" d="M156 184 c1 -9 0 -13 -4 -10 -3 4 -7
14 -8 22 -1 9 0 13 4 10 3 -4 7 -14 8 -22z"/>
</g>
</svg>
