<?xml version="1.0" standalone="no"?>
<!DOCTYPE svg PUBLIC "-//W3C//DTD SVG 20010904//EN"
 "http://www.w3.org/TR/2001/REC-SVG-20010904/DTD/svg10.dtd">
<svg version="1.0" xmlns="http://www.w3.org/2000/svg"
 width="32.000000pt" height="32.000000pt" viewBox="0 0 32.000000 32.000000"
 preserveAspectRatio="xMidYMid meet">
<metadata>
Created by potrace 1.16, written by Peter Selinger 2001-2019
</metadata>
<g transform="translate(0.000000,32.000000) scale(0.100000,-0.100000)"
fill="#000000" stroke="none">
<path fill="#000000" stroke="none" d="M0 160 l0 -160 160 0 160 0 0 160 0
160 -160 0 -160 0 0 -160z"/>
<path fill="#ffffff" stroke="none" d="M191 211 c16 -16 29 -39 29 -51 0 -28
-52 -80 -80 -80 -28 0 -80 52 -80 80 0 28 52 80 80 80 12 0 35 -13 51 -29z"/>
<path fill="#000000" stroke="none" d="M110 160 c-8 -5 -11 -12 -7 -17 5 -4
12 -1 17 7 6 9 10 10 10 3 0 -19 -20 -26 -37 -11 -14 11 -15 11 -11 -2 2 -8
16 -15 29 -15 17 0 25 6 27 23 4 24 -4 27 -28 12z"/>
</g>
</svg>
