<?xml version="1.0" standalone="no"?>
<!DOCTYPE svg PUBLIC "-//W3C//DTD SVG 20010904//EN"
 "http://www.w3.org/TR/2001/REC-SVG-20010904/DTD/svg10.dtd">
<svg version="1.0" xmlns="http://www.w3.org/2000/svg"
 width="32.000000pt" height="32.000000pt" viewBox="0 0 32.000000 32.000000"
 preserveAspectRatio="xMidYMid meet">
<metadata>
Created by potrace 1.16, written by Peter Selinger 2001-2019
</metadata>
<g transform="translate(0.000000,32.000000) scale(0.100000,-0.100000)"
fill="#000000" stroke="none">
<path fill="#000000" stroke="none" d="M115 215 c-29 -28 -32 -55 -7 -83 30
-36 81 -33 104 6 19 34 15 62 -13 84 -29 25 -55 22 -84 -7z"/>
<path fill="#ffffff" stroke="none" d="M145 164 c0 -22 -36 -27 -43 -6 -2 7 2
11 10 10 7 -2 12 3 10 10 -1 8 3 12 10 10 7 -3 13 -13 13 -24z"/>
</g>
</svg>
