<?xml version="1.0" standalone="no"?>
<!DOCTYPE svg PUBLIC "-//W3C//DTD SVG 20010904//EN"
 "http://www.w3.org/TR/2001/REC-SVG-20010904/DTD/svg10.dtd">
<svg version="1.0" xmlns="http://www.w3.org/2000/svg"
 width="32.000000pt" height="32.000000pt" viewBox="0 0 32.000000 32.000000"
 preserveAspectRatio="xMidYMid meet">
<metadata>
Created by potrace 1.16, written by Peter Selinger 2001-2019
</metadata>
<g transform="translate(0.000000,32.000000) scale(0.100000,-0.100000)"
fill="#000000" stroke="none">
<path fill="#000000" stroke="none" d="M0 160 l0 -160 53 1 c28 0 45 3 37 6
-8 2 -21 7 -29 9 -11 4 -12 7 -3 16 17 17 15 32 -8 83 -13 29 -19 61 -18 92 3
47 4 49 56 77 45 24 60 27 98 21 40 -6 49 -12 75 -53 16 -25 29 -58 29 -72 0
-39 -55 -120 -82 -121 -17 -1 -13 -4 14 -13 42 -13 49 -28 16 -38 -15 -4 -5
-6 30 -7 l52 -1 0 160 0 160 -160 0 -160 0 0 -160z"/>
<path fill="#000000" stroke="none" d="M212 276 c7 -8 16 -12 21 -9 11 7 -2
23 -19 23 -12 0 -12 -2 -2 -14z"/>
<path fill="#000000" stroke="none" d="M110 257 c-12 -21 -12 -21 6 -7 10 8
20 15 22 16 2 1 -1 4 -5 7 -5 3 -15 -4 -23 -16z"/>
<path fill="#000000" stroke="none" d="M60 260 c-8 -26 -7 -41 2 -32 6 6 8 16
5 24 -3 7 -6 11 -7 8z"/>
<path fill="#000000" stroke="none" d="M130 239 c0 -5 5 -7 10 -4 6 3 10 8 10
11 0 2 -4 4 -10 4 -5 0 -10 -5 -10 -11z"/>
<path fill="#000000" stroke="none" d="M225 180 c-7 -11 2 -30 13 -30 4 0 8 9
8 20 0 21 -11 26 -21 10z"/>
<path fill="#000000" stroke="none" d="M196 102 c-2 -4 4 -8 14 -8 10 0 16 4
14 8 -7 10 -21 10 -28 0z"/>
<path fill="#000000" stroke="none" d="M78 78 c2 -10 6 -18 7 -18 1 0 5 8 7
18 3 11 0 19 -7 19 -7 0 -10 -8 -7 -19z"/>
<path fill="#000000" stroke="none" d="M110 77 c0 -11 1 -18 3 -16 1 2 8 11
15 20 9 13 9 16 -3 16 -8 0 -15 -9 -15 -20z"/>
</g>
</svg>
