<?xml version="1.0" standalone="no"?>
<!DOCTYPE svg PUBLIC "-//W3C//DTD SVG 20010904//EN"
 "http://www.w3.org/TR/2001/REC-SVG-20010904/DTD/svg10.dtd">
<svg version="1.0" xmlns="http://www.w3.org/2000/svg"
 width="32.000000pt" height="32.000000pt" viewBox="0 0 32.000000 32.000000"
 preserveAspectRatio="xMidYMid meet">
<metadata>
Created by potrace 1.16, written by Peter Selinger 2001-2019
</metadata>
<g transform="translate(0.000000,32.000000) scale(0.100000,-0.100000)"
fill="#000000" stroke="none">
<path fill="#000000" stroke="none" d="M0 248 c0 -40 4 -68 8 -61 11 18 50
-17 54 -49 2 -18 -4 -32 -17 -42 -28 -20 -7 -43 24 -27 16 9 27 8 50 -4 17 -8
38 -15 48 -15 30 0 79 36 92 68 7 16 21 32 32 35 25 7 25 27 0 34 -16 4 -18 8
-9 23 13 21 3 53 -15 48 -6 -3 -13 -12 -13 -22 -2 -12 -1 -13 3 -1 5 15 23 21
23 8 0 -17 -19 -35 -29 -29 -15 10 -13 57 3 79 13 17 14 17 19 0 4 -10 16 -34
27 -53 l20 -35 0 58 0 57 -82 0 c-60 -1 -78 -3 -66 -11 9 -5 30 -7 47 -4 l29
5 -14 -30 c-19 -37 -28 -39 -20 -2 l5 27 -12 -27 c-12 -27 -14 -27 -36 -11
-22 15 -25 15 -37 -2 -13 -18 -14 -18 -34 0 -15 14 -23 16 -32 7 -9 -9 -7 -16
7 -32 17 -19 17 -20 0 -26 -12 -5 -23 -1 -31 11 -21 28 -17 41 15 64 32 23 51
27 51 10 0 -5 4 -7 10 -4 25 16 5 25 -55 25 l-65 0 0 -72z"/>
<path fill="#ffffff" stroke="none" d="M102 251 c9 -15 16 -17 30 -10 10 6 16
14 13 20 -4 5 -2 9 2 9 5 0 14 -9 21 -21 7 -11 19 -18 26 -16 20 8 50 -34 51
-73 2 -50 -3 -59 -44 -79 -34 -17 -38 -18 -76 -1 -28 12 -45 15 -58 8 -10 -5
-21 -7 -24 -5 -2 3 5 8 17 12 16 5 20 12 16 28 -3 12 -6 32 -6 45 0 12 -6 22
-13 22 -8 0 -22 10 -33 22 l-19 22 37 -23 37 -22 11 21 c9 18 8 25 -6 41 -10
11 -12 19 -6 19 7 0 17 -9 24 -19z"/>
<path fill="#ffffff" stroke="none" d="M297 174 c-3 -3 -12 -4 -19 -1 -8 3 -5
6 6 6 11 1 17 -2 13 -5z"/>
<path fill="#000000" stroke="none" d="M99 189 c-16 -31 3 -69 36 -69 17 0 29
8 36 24 15 32 -4 66 -36 66 -15 0 -29 -9 -36 -21z"/>
<path fill="#000000" stroke="none" d="M0 85 l0 -85 160 0 160 0 0 53 0 52
-20 -30 c-20 -30 -58 -64 -73 -65 -5 0 -5 4 -2 10 8 13 -39 24 -80 17 -19 -3
-37 -1 -40 4 -4 5 -15 5 -27 -2 -19 -10 -25 -8 -45 17 -26 33 -29 52 -9 60 17
6 10 40 -10 48 -11 4 -14 -11 -14 -79z"/>
</g>
</svg>
