<?xml version="1.0" standalone="no"?>
<!DOCTYPE svg PUBLIC "-//W3C//DTD SVG 20010904//EN"
 "http://www.w3.org/TR/2001/REC-SVG-20010904/DTD/svg10.dtd">
<svg version="1.0" xmlns="http://www.w3.org/2000/svg"
 width="32.000000pt" height="32.000000pt" viewBox="0 0 32.000000 32.000000"
 preserveAspectRatio="xMidYMid meet">
<metadata>
Created by potrace 1.16, written by Peter Selinger 2001-2019
</metadata>
<g transform="translate(0.000000,32.000000) scale(0.100000,-0.100000)"
fill="#000000" stroke="none">
<path fill="#000000" stroke="none" d="M0 248 c0 -40 4 -68 8 -61 11 18 50
-17 54 -49 2 -18 -4 -32 -17 -42 -28 -20 -7 -43 24 -27 16 9 27 8 50 -4 17 -8
38 -15 48 -15 30 0 79 36 92 68 7 16 21 32 32 35 25 7 25 27 0 34 -16 4 -18 8
-9 23 12 19 5 50 -12 50 -6 0 -15 -10 -20 -22 -8 -21 -9 -21 -9 7 0 17 6 38
13 48 13 17 14 17 19 0 4 -10 16 -34 27 -53 l20 -35 0 58 0 57 -76 0 c-51 0
-73 -3 -68 -11 3 -6 14 -9 24 -6 15 4 16 1 7 -24 -11 -28 -12 -28 -36 -12 -23
15 -25 14 -38 -2 -12 -18 -13 -18 -33 0 -15 14 -23 16 -32 7 -9 -9 -7 -16 7
-32 17 -19 17 -20 0 -26 -12 -5 -23 -1 -31 11 -21 28 -17 41 15 64 32 23 51
27 51 10 0 -5 4 -7 10 -4 25 16 5 25 -55 25 l-65 0 0 -72z"/>
<path fill="#ffffff" stroke="none" d="M250 301 c0 -6 -4 -13 -10 -16 -5 -3
-10 -16 -10 -28 0 -16 -3 -18 -12 -9 -9 9 -9 18 0 37 11 24 32 35 32 16z"/>
<path fill="#ffffff" stroke="none" d="M102 251 c13 -21 38 -17 38 5 0 8 5 14
10 14 6 0 10 -4 10 -10 0 -5 6 -10 13 -10 7 0 29 -11 49 -25 33 -23 36 -27 32
-67 -3 -32 -12 -50 -34 -71 -36 -32 -63 -34 -107 -7 -25 15 -34 29 -39 59 -4
27 -13 42 -25 46 -11 4 -24 16 -31 28 -11 21 -11 21 15 4 15 -9 33 -17 41 -17
20 0 27 26 10 40 -8 7 -14 16 -14 21 0 16 19 10 32 -10z"/>
<path fill="#ffffff" stroke="none" d="M280 231 c0 -20 -13 -35 -23 -25 -7 8
4 44 14 44 5 0 9 -9 9 -19z"/>
<path fill="#ffffff" stroke="none" d="M300 170 c0 -5 -9 -10 -21 -10 -11 0
-17 5 -14 10 3 6 13 10 21 10 8 0 14 -4 14 -10z"/>
<path fill="#ffffff" stroke="none" d="M80 91 c0 -11 -31 -24 -39 -16 -3 3 1
10 9 15 19 12 30 12 30 1z"/>
<path fill="#000000" stroke="none" d="M104 185 c-16 -24 -16 -27 1 -45 23
-25 37 -25 60 0 17 18 17 21 1 45 -21 32 -41 32 -62 0z"/>
<path fill="#ffffff" stroke="none" d="M140 176 c0 -11 -19 -15 -25 -6 -3 5 1
10 9 10 9 0 16 -2 16 -4z"/>
<path fill="#000000" stroke="none" d="M0 85 l0 -85 160 0 160 0 0 53 0 52
-20 -30 c-20 -30 -58 -64 -73 -65 -5 0 -5 4 -2 10 8 13 -39 24 -80 17 -19 -3
-37 -1 -40 4 -4 5 -15 5 -27 -2 -19 -10 -25 -8 -45 17 -23 29 -27 71 -6 67 16
-3 4 34 -13 41 -11 4 -14 -11 -14 -79z"/>
</g>
</svg>
