<?xml version="1.0" standalone="no"?>
<!DOCTYPE svg PUBLIC "-//W3C//DTD SVG 20010904//EN"
 "http://www.w3.org/TR/2001/REC-SVG-20010904/DTD/svg10.dtd">
<svg version="1.0" xmlns="http://www.w3.org/2000/svg"
 width="32.000000pt" height="32.000000pt" viewBox="0 0 32.000000 32.000000"
 preserveAspectRatio="xMidYMid meet">
<metadata>
Created by potrace 1.16, written by Peter Selinger 2001-2019
</metadata>
<g transform="translate(0.000000,32.000000) scale(0.100000,-0.100000)"
fill="#000000" stroke="none">
<path fill="#000000" stroke="none" d="M69 295 c-32 -17 -42 -40 -29 -64 5
-10 6 -21 2 -25 -6 -7 23 2 41 12 5 2 1 12 -8 22 -17 19 -13 40 6 40 6 0 7 -5
3 -12 -4 -6 -3 -8 4 -4 6 3 13 2 17 -4 11 -17 25 -11 25 12 0 12 -3 18 -7 15
-3 -4 -11 0 -17 8 -9 12 -15 12 -37 0z"/>
<path fill="#000000" stroke="none" d="M250 255 c-6 -8 -10 -20 -7 -27 3 -8 6
-6 6 5 1 11 6 15 13 11 7 -4 8 -3 4 4 -4 7 -2 12 4 12 17 0 24 -31 12 -50 -9
-15 -7 -19 9 -23 25 -7 25 -27 -1 -34 -20 -5 -28 -23 -11 -23 45 0 55 52 21
108 -22 36 -32 39 -50 17z"/>
<path fill="#000000" stroke="none" d="M97 208 c-18 -17 -27 -34 -23 -44 3 -9
6 -22 6 -29 0 -27 31 -45 76 -45 39 0 46 3 56 28 6 15 11 30 10 35 -1 4 3 7
10 7 6 0 -1 13 -16 29 -20 21 -24 30 -14 34 10 4 9 6 -2 7 -66 7 -76 5 -103
-22z"/>
<path fill="#ffffff" stroke="none" d="M168 198 c16 -16 15 -53 -2 -67 -7 -6
-27 -10 -43 -9 -24 2 -29 7 -31 31 -1 16 3 36 9 43 14 17 51 18 67 2z"/>
<path fill="#000000" stroke="none" d="M66 64 c-22 -21 -20 -27 6 -21 12 4 27
2 32 -2 6 -5 31 -5 56 -1 36 6 39 8 15 9 -16 1 -41 8 -55 16 -32 18 -35 18
-54 -1z"/>
</g>
</svg>
