<?xml version="1.0" standalone="no"?>
<!DOCTYPE svg PUBLIC "-//W3C//DTD SVG 20010904//EN"
 "http://www.w3.org/TR/2001/REC-SVG-20010904/DTD/svg10.dtd">
<svg version="1.0" xmlns="http://www.w3.org/2000/svg"
 width="32.000000pt" height="32.000000pt" viewBox="0 0 32.000000 32.000000"
 preserveAspectRatio="xMidYMid meet">
<metadata>
Created by potrace 1.16, written by Peter Selinger 2001-2019
</metadata>
<g transform="translate(0.000000,32.000000) scale(0.100000,-0.100000)"
fill="#000000" stroke="none">
<path fill="#000000" stroke="none" d="M0 160 l0 -160 160 0 160 0 0 160 0
160 -160 0 -160 0 0 -160z"/>
<path fill="#ffffff" stroke="none" d="M152 266 c12 -9 19 -16 14 -16 -5 0 -3
-7 4 -15 8 -9 21 -13 36 -9 13 3 35 3 49 0 22 -6 24 -10 19 -34 -10 -41 -14
-43 -37 -27 -32 22 -35 19 -30 -28 6 -49 -17 -87 -54 -90 -13 -1 -23 -5 -23
-10 0 -5 -7 -4 -15 3 -11 9 -15 9 -15 1 0 -8 -4 -8 -14 1 -12 11 -11 17 4 38
21 31 32 71 22 86 -4 6 -17 14 -30 18 -29 9 -19 26 16 26 l27 1 -32 28 c-18
15 -33 32 -33 38 0 15 66 7 92 -11z"/>
</g>
</svg>
