<?xml version="1.0" standalone="no"?>
<!DOCTYPE svg PUBLIC "-//W3C//DTD SVG 20010904//EN"
 "http://www.w3.org/TR/2001/REC-SVG-20010904/DTD/svg10.dtd">
<svg version="1.0" xmlns="http://www.w3.org/2000/svg"
 width="32.000000pt" height="32.000000pt" viewBox="0 0 32.000000 32.000000"
 preserveAspectRatio="xMidYMid meet">
<metadata>
Created by potrace 1.16, written by Peter Selinger 2001-2019
</metadata>
<g transform="translate(0.000000,32.000000) scale(0.100000,-0.100000)"
fill="#000000" stroke="none">
<path fill="#000000" stroke="none" d="M0 160 l0 -160 160 0 160 0 0 160 0
160 -160 0 -160 0 0 -160z"/>
<path fill="#ffffff" stroke="none" d="M151 280 c6 0 9 -17 7 -37 -4 -48 -21
-45 -29 4 l-6 38 -2 -37 c-1 -27 -6 -38 -16 -38 -18 0 -20 32 -4 61 6 12 17
18 26 15 8 -3 19 -6 24 -6z"/>
<path fill="#ffffff" stroke="none" d="M196 256 c7 -30 2 -56 -11 -59 -5 -1
-11 17 -13 41 -3 45 13 58 24 18z"/>
<path fill="#ffffff" stroke="none" d="M240 197 c0 -16 -3 -17 -15 -7 -8 7
-15 24 -15 39 1 25 1 25 15 7 8 -11 15 -29 15 -39z"/>
<path fill="#ffffff" stroke="none" d="M114 194 c25 -9 19 -24 -9 -24 -16 0
-25 6 -25 15 0 16 9 19 34 9z"/>
<path fill="#ffffff" stroke="none" d="M150 140 c11 -11 20 -23 20 -27 0 -5 4
-25 9 -45 7 -29 6 -38 -4 -38 -9 0 -15 15 -18 37 l-3 38 -9 -33 c-4 -19 -14
-36 -22 -39 -20 -8 -26 2 -15 24 20 39 22 71 6 87 -14 15 -14 16 0 16 9 0 25
-9 36 -20z"/>
</g>
</svg>
