<?xml version="1.0" standalone="no"?>
<!DOCTYPE svg PUBLIC "-//W3C//DTD SVG 20010904//EN"
 "http://www.w3.org/TR/2001/REC-SVG-20010904/DTD/svg10.dtd">
<svg version="1.0" xmlns="http://www.w3.org/2000/svg"
 width="32.000000pt" height="32.000000pt" viewBox="0 0 32.000000 32.000000"
 preserveAspectRatio="xMidYMid meet">
<metadata>
Created by potrace 1.16, written by Peter Selinger 2001-2019
</metadata>
<g transform="translate(0.000000,32.000000) scale(0.100000,-0.100000)"
fill="#000000" stroke="none">
<path fill="#000000" stroke="none" d="M0 160 l0 -160 160 0 160 0 0 160 0
160 -160 0 -160 0 0 -160z"/>
<path fill="#ffffff" stroke="none" d="M162 266 c6 -8 8 -7 8 2 0 18 20 15 28
-5 4 -10 14 -18 22 -18 10 0 16 -12 18 -32 4 -38 -10 -43 -26 -10 -8 17 -11
18 -11 5 -1 -23 -31 -23 -32 0 0 10 -3 12 -6 5 -7 -20 -23 -15 -33 10 -7 17
-9 18 -9 5 -1 -25 -31 -22 -31 3 0 37 19 61 43 53 12 -4 25 -12 29 -18z"/>
<path fill="#ffffff" stroke="none" d="M120 189 c0 -5 5 -7 10 -4 14 9 42 -14
33 -28 -4 -7 0 -8 13 -3 10 5 27 11 38 14 16 4 17 2 6 -17 -7 -15 -9 -40 -5
-72 6 -41 4 -49 -9 -49 -18 0 -21 6 -32 65 -4 22 -8 33 -10 25 -1 -8 -5 -32
-9 -53 -5 -31 -10 -37 -30 -37 -27 0 -29 3 -16 28 23 45 22 72 -4 94 -30 26
-32 48 -5 48 11 0 20 -5 20 -11z"/>
</g>
</svg>
