<?xml version="1.0" standalone="no"?>
<!DOCTYPE svg PUBLIC "-//W3C//DTD SVG 20010904//EN"
 "http://www.w3.org/TR/2001/REC-SVG-20010904/DTD/svg10.dtd">
<svg version="1.0" xmlns="http://www.w3.org/2000/svg"
 width="32.000000pt" height="32.000000pt" viewBox="0 0 32.000000 32.000000"
 preserveAspectRatio="xMidYMid meet">
<metadata>
Created by potrace 1.16, written by Peter Selinger 2001-2019
</metadata>
<g transform="translate(0.000000,32.000000) scale(0.100000,-0.100000)"
fill="#000000" stroke="none">
<path fill="#000000" stroke="none" d="M0 160 l0 -160 160 0 160 0 0 160 0
160 -160 0 -160 0 0 -160z"/>
<path fill="#ffffff" stroke="none" d="M233 257 c31 -24 35 -53 11 -99 -11
-22 -14 -43 -9 -79 l7 -49 -61 0 c-64 0 -66 1 -52 28 23 46 22 71 -4 94 -23
20 -25 28 -19 63 11 67 20 77 62 69 20 -4 49 -16 65 -27z"/>
<path fill="#ffffff" stroke="none" d="M281 268 l12 -23 -24 20 c-13 11 -26
21 -28 22 -2 2 3 3 12 3 9 0 22 -10 28 -22z"/>
<path fill="#ffffff" stroke="none" d="M73 249 c-8 -8 -13 -7 -18 2 -5 8 -4
10 3 5 7 -4 12 -2 12 5 0 7 3 9 7 6 4 -4 2 -12 -4 -18z"/>
<path fill="#ffffff" stroke="none" d="M291 127 c-6 -15 -15 -27 -21 -27 -13
0 -13 17 0 25 6 3 10 16 10 28 0 14 3 18 10 11 7 -7 8 -19 1 -37z"/>
<path fill="#ffffff" stroke="none" d="M93 129 c10 -11 17 -25 15 -30 -4 -11
-48 27 -48 41 0 16 14 11 33 -11z"/>
</g>
</svg>
