<?xml version="1.0" standalone="no"?>
<!DOCTYPE svg PUBLIC "-//W3C//DTD SVG 20010904//EN"
 "http://www.w3.org/TR/2001/REC-SVG-20010904/DTD/svg10.dtd">
<svg version="1.0" xmlns="http://www.w3.org/2000/svg"
 width="32.000000pt" height="32.000000pt" viewBox="0 0 32.000000 32.000000"
 preserveAspectRatio="xMidYMid meet">
<metadata>
Created by potrace 1.16, written by Peter Selinger 2001-2019
</metadata>
<g transform="translate(0.000000,32.000000) scale(0.100000,-0.100000)"
fill="#000000" stroke="none">
<path fill="#000000" stroke="none" d="M0 160 l0 -160 160 0 160 0 0 160 0
160 -160 0 -160 0 0 -160z"/>
<path fill="#ffffff" stroke="none" d="M206 145 c25 -38 12 -55 -42 -55 -36 0
-44 -3 -38 -13 5 -7 1 -4 -8 6 -10 11 -18 25 -18 32 0 21 44 52 77 54 7 1 20
-10 29 -24z"/>
<path fill="#ffffff" stroke="none" d="M255 60 c3 -5 -1 -10 -9 -10 -9 0 -16
-4 -16 -10 0 -5 -5 -10 -10 -10 -6 0 -5 8 2 20 14 22 24 25 33 10z"/>
<path fill="#ffffff" stroke="none" d="M95 50 c3 -5 -3 -10 -15 -10 -12 0 -18
5 -15 10 3 6 10 10 15 10 5 0 12 -4 15 -10z"/>
<path fill="#ffffff" stroke="none" d="M285 40 c3 -5 -1 -10 -10 -10 -9 0 -13
5 -10 10 3 6 8 10 10 10 2 0 7 -4 10 -10z"/>
<path fill="#000000" stroke="none" d="M144 150 c-22 -9 -42 -30 -27 -30 4 1
24 9 43 20 35 19 24 26 -16 10z"/>
</g>
</svg>
