<?xml version="1.0" standalone="no"?>
<!DOCTYPE svg PUBLIC "-//W3C//DTD SVG 20010904//EN"
 "http://www.w3.org/TR/2001/REC-SVG-20010904/DTD/svg10.dtd">
<svg version="1.0" xmlns="http://www.w3.org/2000/svg"
 width="32.000000pt" height="32.000000pt" viewBox="0 0 32.000000 32.000000"
 preserveAspectRatio="xMidYMid meet">
<metadata>
Created by potrace 1.16, written by Peter Selinger 2001-2019
</metadata>
<g transform="translate(0.000000,32.000000) scale(0.100000,-0.100000)"
fill="#000000" stroke="none">
<path fill="#000000" stroke="none" d="M0 160 l0 -160 160 0 160 0 0 160 0
160 -160 0 -160 0 0 -160z"/>
<path fill="#ffffff" stroke="none" d="M85 240 c0 -7 -6 -15 -12 -17 -8 -3
-13 4 -13 17 0 13 5 20 13 18 6 -3 12 -11 12 -18z"/>
<path fill="#ffffff" stroke="none" d="M220 250 c0 -6 -11 -16 -25 -22 -14 -6
-25 -15 -25 -19 0 -15 -54 8 -68 29 -14 22 -14 22 52 22 38 0 66 -4 66 -10z"/>
<path fill="#ffffff" stroke="none" d="M110 185 c-7 -8 -14 -29 -16 -47 -2
-17 -9 -37 -15 -44 -7 -9 -8 -14 -1 -14 5 0 15 7 23 16 8 10 21 13 36 9 29 -7
68 29 58 53 -16 38 -15 48 5 60 18 11 20 10 20 -9 0 -11 -4 -17 -10 -14 -5 3
-10 1 -10 -4 0 -6 3 -11 8 -11 4 0 8 -12 8 -26 1 -14 0 -23 -3 -20 -3 3 -13
-9 -22 -27 -9 -17 -23 -33 -31 -33 -8 -1 -21 -2 -29 -3 -11 -1 -10 -5 5 -16
19 -14 19 -14 -1 -16 -11 -1 -32 -3 -46 -4 l-27 -4 -1 86 c-1 71 2 88 16 99
15 11 20 10 32 -1 12 -12 12 -17 1 -30z"/>
<path fill="#000000" stroke="none" d="M97 63 c-4 -3 -7 -11 -7 -17 0 -6 5 -5
12 2 6 6 9 14 7 17 -3 3 -9 2 -12 -2z"/>
</g>
</svg>
