<?xml version="1.0" standalone="no"?>
<!DOCTYPE svg PUBLIC "-//W3C//DTD SVG 20010904//EN"
 "http://www.w3.org/TR/2001/REC-SVG-20010904/DTD/svg10.dtd">
<svg version="1.0" xmlns="http://www.w3.org/2000/svg"
 width="32.000000pt" height="32.000000pt" viewBox="0 0 32.000000 32.000000"
 preserveAspectRatio="xMidYMid meet">
<metadata>
Created by potrace 1.16, written by Peter Selinger 2001-2019
</metadata>
<g transform="translate(0.000000,32.000000) scale(0.100000,-0.100000)"
fill="#000000" stroke="none">
<path fill="#000000" stroke="none" d="M105 291 c-3 -5 -1 -12 4 -15 13 -8 42
4 35 15 -7 12 -31 12 -39 0z"/>
<path fill="#000000" stroke="none" d="M231 284 c0 -11 3 -14 6 -6 3 7 2 16
-1 19 -3 4 -6 -2 -5 -13z"/>
<path fill="#000000" stroke="none" d="M115 250 c4 -6 11 -8 16 -5 14 9 11 15
-7 15 -8 0 -12 -5 -9 -10z"/>
<path fill="#000000" stroke="none" d="M120 215 c-10 -12 -10 -15 4 -15 9 0
16 7 16 15 0 8 -2 15 -4 15 -2 0 -9 -7 -16 -15z"/>
<path fill="#000000" stroke="none" d="M155 219 c-10 -15 3 -25 16 -12 7 7 7
13 1 17 -6 3 -14 1 -17 -5z"/>
<path fill="#000000" stroke="none" d="M40 200 c0 -5 5 -10 11 -10 5 0 7 5 4
10 -3 6 -8 10 -11 10 -2 0 -4 -4 -4 -10z"/>
<path fill="#000000" stroke="none" d="M196 202 c-3 -5 1 -9 9 -9 8 0 15 4 15
9 0 4 -4 8 -9 8 -6 0 -12 -4 -15 -8z"/>
<path fill="#000000" stroke="none" d="M116 183 c-13 -13 -5 -33 17 -44 17 -9
20 -9 10 1 -6 7 -9 18 -7 25 6 14 -10 28 -20 18z"/>
<path fill="#000000" stroke="none" d="M90 110 c0 -5 5 -10 11 -10 5 0 7 5 4
10 -3 6 -8 10 -11 10 -2 0 -4 -4 -4 -10z"/>
<path fill="#000000" stroke="none" d="M171 104 c0 -11 3 -14 6 -6 3 7 2 16
-1 19 -3 4 -6 -2 -5 -13z"/>
<path fill="#000000" stroke="none" d="M76 32 c-3 -5 1 -9 9 -9 8 0 12 4 9 9
-3 4 -7 8 -9 8 -2 0 -6 -4 -9 -8z"/>
<path fill="#000000" stroke="none" d="M186 22 c-3 -5 1 -9 9 -9 8 0 12 4 9 9
-3 4 -7 8 -9 8 -2 0 -6 -4 -9 -8z"/>
</g>
</svg>
