<?xml version="1.0" standalone="no"?>
<!DOCTYPE svg PUBLIC "-//W3C//DTD SVG 20010904//EN"
 "http://www.w3.org/TR/2001/REC-SVG-20010904/DTD/svg10.dtd">
<svg version="1.0" xmlns="http://www.w3.org/2000/svg"
 width="32.000000pt" height="32.000000pt" viewBox="0 0 32.000000 32.000000"
 preserveAspectRatio="xMidYMid meet">
<metadata>
Created by potrace 1.16, written by Peter Selinger 2001-2019
</metadata>
<g transform="translate(0.000000,32.000000) scale(0.100000,-0.100000)"
fill="#000000" stroke="none">
<path fill="#000000" stroke="none" d="M0 160 l0 -160 160 0 160 0 0 160 0
160 -160 0 -160 0 0 -160z"/>
<path fill="#ffffff" stroke="none" d="M136 298 c5 -7 3 -8 -6 -3 -9 6 -11 4
-5 -5 6 -10 11 -10 20 4 13 18 25 9 38 -27 4 -9 16 -21 28 -25 19 -7 19 -9 4
-22 -12 -10 -19 -10 -27 -2 -9 9 -9 12 1 12 11 0 11 3 1 15 -11 13 -15 13 -21
3 -7 -11 -9 -11 -9 0 0 7 -4 10 -10 7 -14 -9 -12 -25 3 -25 8 0 19 -11 25 -25
7 -14 19 -28 27 -31 15 -6 22 -34 8 -34 -4 0 -21 12 -37 28 -17 15 -23 18 -13
6 21 -25 22 -48 2 -64 -26 -21 -17 -35 23 -35 32 0 37 4 40 25 2 14 8 29 13
34 5 6 9 24 9 42 0 17 6 37 14 43 11 9 12 6 9 -16 l-4 -28 20 24 21 23 0 -26
c0 -17 -10 -33 -30 -47 -26 -20 -29 -27 -24 -59 7 -44 -13 -65 -53 -57 -17 3
-39 -1 -55 -11 -22 -13 -32 -13 -52 -4 -33 15 -34 54 -4 117 12 24 18 48 14
52 -4 4 -10 2 -14 -4 -10 -16 -52 -5 -52 13 0 17 12 18 28 2 9 -9 17 -5 36 15
25 27 24 45 -3 24 -14 -11 -14 -10 -2 5 7 10 11 24 8 32 -3 7 0 19 6 25 14 14
14 14 23 -1z"/>
</g>
</svg>
