<?xml version="1.0" standalone="no"?>
<!DOCTYPE svg PUBLIC "-//W3C//DTD SVG 20010904//EN"
 "http://www.w3.org/TR/2001/REC-SVG-20010904/DTD/svg10.dtd">
<svg version="1.0" xmlns="http://www.w3.org/2000/svg"
 width="32.000000pt" height="32.000000pt" viewBox="0 0 32.000000 32.000000"
 preserveAspectRatio="xMidYMid meet">
<metadata>
Created by potrace 1.16, written by Peter Selinger 2001-2019
</metadata>
<g transform="translate(0.000000,32.000000) scale(0.100000,-0.100000)"
fill="#000000" stroke="none">
<path fill="#000000" stroke="none" d="M0 160 l0 -160 160 0 160 0 0 160 0
160 -160 0 -160 0 0 -160z"/>
<path fill="#ffffff" stroke="none" d="M137 282 c-10 -2 -17 -10 -17 -17 0 -9
-6 -12 -16 -8 -9 3 -12 9 -7 12 5 3 13 14 16 25 6 16 10 16 24 5 15 -13 15
-14 0 -17z"/>
<path fill="#ffffff" stroke="none" d="M150 266 c0 -3 -4 -8 -10 -11 -5 -3
-10 -1 -10 4 0 6 5 11 10 11 6 0 10 -2 10 -4z"/>
<path fill="#ffffff" stroke="none" d="M270 209 c-7 -11 -14 -18 -17 -15 -3 3
0 12 7 21 18 21 23 19 10 -6z"/>
<path fill="#ffffff" stroke="none" d="M145 210 c-3 -6 4 -14 17 -19 14 -6 17
-10 8 -10 -17 -1 -40 17 -40 31 0 4 5 8 11 8 5 0 7 -5 4 -10z"/>
<path fill="#ffffff" stroke="none" d="M310 193 c0 -21 -3 -24 -9 -14 -5 8 -7
20 -4 28 8 21 13 15 13 -14z"/>
<path fill="#ffffff" stroke="none" d="M137 153 c-14 -14 -19 -15 -29 -4 -11
10 -10 11 3 6 10 -4 20 -2 24 4 3 6 9 11 13 11 3 0 -1 -8 -11 -17z"/>
<path fill="#ffffff" stroke="none" d="M120 124 c0 -8 -19 -13 -24 -6 -3 5 1
9 9 9 8 0 15 -2 15 -3z"/>
<path fill="#ffffff" stroke="none" d="M201 87 c-10 -9 -11 -8 -5 6 3 10 9 15
12 12 3 -3 0 -11 -7 -18z"/>
</g>
</svg>
