<?xml version="1.0" standalone="no"?>
<!DOCTYPE svg PUBLIC "-//W3C//DTD SVG 20010904//EN"
 "http://www.w3.org/TR/2001/REC-SVG-20010904/DTD/svg10.dtd">
<svg version="1.0" xmlns="http://www.w3.org/2000/svg"
 width="32.000000pt" height="32.000000pt" viewBox="0 0 32.000000 32.000000"
 preserveAspectRatio="xMidYMid meet">
<metadata>
Created by potrace 1.16, written by Peter Selinger 2001-2019
</metadata>
<g transform="translate(0.000000,32.000000) scale(0.100000,-0.100000)"
fill="#000000" stroke="none">
<path fill="#000000" stroke="none" d="M0 160 l0 -160 160 0 160 0 0 160 0
160 -160 0 -160 0 0 -160z"/>
<path fill="#ffffff" stroke="none" d="M164 299 c12 10 14 9 12 -6 -2 -11 -10
-17 -21 -15 -10 2 -14 -1 -10 -7 9 -16 -21 -24 -42 -12 -10 6 -13 11 -7 11 7
0 14 10 17 22 5 18 8 19 21 8 12 -10 19 -10 30 -1z"/>
<path fill="#ffffff" stroke="none" d="M173 210 c16 -19 16 -21 1 -27 -19 -7
-49 20 -40 36 10 16 19 14 39 -9z"/>
<path fill="#ffffff" stroke="none" d="M267 198 c-8 -24 -12 -28 -15 -15 -2
10 2 24 8 32 19 22 20 18 7 -17z"/>
<path fill="#ffffff" stroke="none" d="M111 197 c-10 -9 -11 -8 -5 6 3 10 9
15 12 12 3 -3 0 -11 -7 -18z"/>
<path fill="#ffffff" stroke="none" d="M299 164 c-20 -24 -30 6 -11 32 16 21
17 21 20 3 2 -11 -2 -27 -9 -35z"/>
<path fill="#ffffff" stroke="none" d="M148 159 c-10 -5 -18 -15 -18 -20 0 -6
6 -7 13 -3 6 4 1 -5 -12 -19 -19 -21 -27 -24 -38 -15 -11 9 -11 14 2 28 8 9
12 20 8 24 -4 4 0 4 9 1 9 -4 19 -2 23 4 3 6 12 11 18 11 7 0 4 -5 -5 -11z"/>
<path fill="#ffffff" stroke="none" d="M247 120 c1 -11 -2 -22 -6 -25 -7 -3
-8 31 -2 43 3 7 7 0 8 -18z"/>
<path fill="#ffffff" stroke="none" d="M204 92 c-6 -9 -20 -18 -30 -19 -14 -2
-12 0 5 7 17 8 22 16 18 32 -5 16 -3 18 6 9 8 -8 9 -16 1 -29z"/>
<path fill="#000000" stroke="none" d="M101 126 c-7 -8 -8 -17 -3 -20 6 -3 15
1 21 8 7 8 8 17 3 20 -6 3 -15 -1 -21 -8z"/>
</g>
</svg>
