<?xml version="1.0" standalone="no"?>
<!DOCTYPE svg PUBLIC "-//W3C//DTD SVG 20010904//EN"
 "http://www.w3.org/TR/2001/REC-SVG-20010904/DTD/svg10.dtd">
<svg version="1.0" xmlns="http://www.w3.org/2000/svg"
 width="32.000000pt" height="32.000000pt" viewBox="0 0 32.000000 32.000000"
 preserveAspectRatio="xMidYMid meet">
<metadata>
Created by potrace 1.16, written by Peter Selinger 2001-2019
</metadata>
<g transform="translate(0.000000,32.000000) scale(0.100000,-0.100000)"
fill="#000000" stroke="none">
<path fill="#000000" stroke="none" d="M0 160 l0 -160 52 0 c50 0 52 1 30 16
-26 18 -29 65 -7 104 20 34 19 37 -15 49 -30 10 -40 34 -20 46 6 4 17 1 25 -5
8 -7 16 -9 16 -4 3 20 6 30 13 47 5 10 6 21 2 24 -3 4 1 15 11 25 15 17 14 18
-45 18 l-62 0 0 -160z"/>
<path fill="#000000" stroke="none" d="M162 315 c4 -4 3 -14 -3 -21 -7 -8 -7
-14 1 -19 5 -3 10 -5 11 -3 6 27 5 39 -4 45 -7 3 -9 3 -5 -2z"/>
<path fill="#000000" stroke="none" d="M187 308 c-7 -24 6 -49 30 -59 13 -5
22 -13 18 -18 -10 -17 12 -21 25 -6 7 8 16 15 20 15 14 0 21 -32 10 -45 -5 -6
-6 -16 -2 -20 4 -5 1 -5 -5 -1 -9 5 -11 2 -7 -9 5 -12 10 -13 23 -4 9 6 4 0
-11 -14 -22 -21 -26 -31 -22 -59 8 -44 -22 -73 -64 -65 -18 4 -37 1 -48 -8
-17 -13 -9 -14 74 -15 l92 0 0 78 c0 42 -4 94 -9 115 -5 21 -5 37 0 37 5 0 9
20 9 45 l0 45 -64 0 c-43 0 -66 -4 -69 -12z"/>
<path fill="#000000" stroke="none" d="M116 258 c3 -5 10 -6 15 -3 13 9 11 12
-6 12 -8 0 -12 -4 -9 -9z"/>
<path fill="#000000" stroke="none" d="M134 219 c-9 -16 21 -43 40 -36 15 6
15 8 -1 27 -20 23 -29 25 -39 9z"/>
<path fill="#000000" stroke="none" d="M262 218 c-7 -7 -12 -21 -11 -32 0 -17
3 -16 13 8 9 20 15 25 19 15 3 -8 6 -9 6 -2 1 18 -14 24 -27 11z"/>
<path fill="#000000" stroke="none" d="M106 203 c-6 -14 -5 -15 5 -6 7 7 10
15 7 18 -3 3 -9 -2 -12 -12z"/>
<path fill="#000000" stroke="none" d="M222 198 c-8 -8 -9 -15 -1 -25 14 -16
3 -47 -14 -40 -6 2 -20 -6 -30 -19 -15 -20 -15 -24 -3 -24 8 0 21 -3 30 -6 12
-5 16 1 16 22 0 22 3 25 9 14 6 -8 7 -18 4 -24 -3 -5 -1 -6 5 -2 6 4 8 26 5
59 -6 61 -6 60 -21 45z"/>
<path fill="#000000" stroke="none" d="M135 159 c-4 -6 -14 -8 -23 -4 -9 3
-13 3 -9 -1 4 -4 0 -15 -8 -24 -13 -14 -13 -19 -2 -28 11 -9 19 -6 38 15 13
14 18 23 12 19 -7 -4 -13 -3 -13 3 0 5 8 15 18 20 9 6 12 11 5 11 -6 0 -15 -5
-18 -11z"/>
<path fill="#ffffff" stroke="none" d="M119 114 c-6 -7 -15 -11 -21 -8 -5 3
-4 12 3 20 6 7 15 11 21 8 5 -3 4 -12 -3 -20z"/>
</g>
</svg>
