<?xml version="1.0" standalone="no"?>
<!DOCTYPE svg PUBLIC "-//W3C//DTD SVG 20010904//EN"
 "http://www.w3.org/TR/2001/REC-SVG-20010904/DTD/svg10.dtd">
<svg version="1.0" xmlns="http://www.w3.org/2000/svg"
 width="32.000000pt" height="32.000000pt" viewBox="0 0 32.000000 32.000000"
 preserveAspectRatio="xMidYMid meet">
<metadata>
Created by potrace 1.16, written by Peter Selinger 2001-2019
</metadata>
<g transform="translate(0.000000,32.000000) scale(0.100000,-0.100000)"
fill="#000000" stroke="none">
<path fill="#000000" stroke="none" d="M0 160 l0 -160 160 0 160 0 0 160 0
160 -160 0 -160 0 0 -160z"/>
<path fill="#ffffff" stroke="none" d="M287 187 c11 4 14 1 11 -13 -4 -25 -48
-28 -48 -4 0 20 13 36 18 21 2 -5 10 -7 19 -4z"/>
<path fill="#ffffff" stroke="none" d="M156 134 c1 -9 0 -13 -4 -10 -7 8 -53
-34 -47 -44 2 -4 -2 -7 -8 -7 -7 0 -14 9 -14 20 -3 29 15 57 31 51 8 -3 17 0
21 6 8 13 18 6 21 -16z"/>
<path fill="#ffffff" stroke="none" d="M253 115 c-3 -13 -11 -29 -18 -35 -13
-11 -13 3 1 48 7 23 21 12 17 -13z"/>
</g>
</svg>
