<?xml version="1.0" standalone="no"?>
<!DOCTYPE svg PUBLIC "-//W3C//DTD SVG 20010904//EN"
 "http://www.w3.org/TR/2001/REC-SVG-20010904/DTD/svg10.dtd">
<svg version="1.0" xmlns="http://www.w3.org/2000/svg"
 width="32.000000pt" height="32.000000pt" viewBox="0 0 32.000000 32.000000"
 preserveAspectRatio="xMidYMid meet">
<metadata>
Created by potrace 1.16, written by Peter Selinger 2001-2019
</metadata>
<g transform="translate(0.000000,32.000000) scale(0.100000,-0.100000)"
fill="#000000" stroke="none">
<path fill="#000000" stroke="none" d="M113 292 c-3 -12 -10 -22 -16 -22 -6 0
-2 -6 9 -14 13 -10 23 -11 31 -4 7 5 17 7 23 3 6 -4 10 -3 9 2 -1 4 0 10 1 13
1 3 3 13 5 23 3 15 1 16 -11 6 -11 -9 -18 -9 -30 1 -13 11 -16 10 -21 -8z"/>
<path fill="#000000" stroke="none" d="M135 220 c-8 -13 13 -40 31 -40 7 0 18
-9 24 -20 6 -11 15 -20 20 -20 6 0 3 8 -5 18 -8 9 -16 22 -17 27 -3 14 -31 45
-40 45 -4 0 -10 -5 -13 -10z"/>
<path fill="#000000" stroke="none" d="M261 216 c-6 -7 -10 -25 -9 -39 2 -20
5 -23 15 -15 9 8 13 7 13 -2 0 -10 3 -10 15 0 8 7 15 24 15 38 0 25 -1 25 -14
7 -8 -11 -13 -22 -11 -26 2 -3 -2 -6 -10 -6 -18 0 -18 -1 -5 31 11 29 8 33 -9
12z"/>
<path fill="#000000" stroke="none" d="M106 203 c-6 -14 -5 -15 5 -6 7 7 10
15 7 18 -3 3 -9 -2 -12 -12z"/>
<path fill="#000000" stroke="none" d="M40 200 c0 -5 5 -10 11 -10 5 0 7 5 4
10 -3 6 -8 10 -11 10 -2 0 -4 -4 -4 -10z"/>
<path fill="#000000" stroke="none" d="M124 165 c-4 -8 -11 -12 -18 -8 -6 4
-5 -1 3 -10 12 -15 12 -17 -3 -11 -17 6 -18 5 -21 -37 -1 -15 3 -26 11 -26 7
0 11 3 9 7 -3 4 4 15 15 25 11 10 17 21 15 26 -3 4 0 11 6 15 7 4 9 3 5 -4 -3
-6 -3 -13 2 -16 4 -2 8 6 8 19 0 28 -24 42 -32 20z"/>
<path fill="#000000" stroke="none" d="M236 128 c-14 -45 -14 -59 -1 -48 15
13 26 60 13 60 -5 0 -10 -6 -12 -12z"/>
<path fill="#000000" stroke="none" d="M197 112 c4 -16 -1 -24 -18 -32 -17 -7
-19 -9 -5 -7 26 3 44 33 29 48 -9 9 -11 7 -6 -9z"/>
</g>
</svg>
