<?xml version="1.0" standalone="no"?>
<!DOCTYPE svg PUBLIC "-//W3C//DTD SVG 20010904//EN"
 "http://www.w3.org/TR/2001/REC-SVG-20010904/DTD/svg10.dtd">
<svg version="1.0" xmlns="http://www.w3.org/2000/svg"
 width="32.000000pt" height="32.000000pt" viewBox="0 0 32.000000 32.000000"
 preserveAspectRatio="xMidYMid meet">
<metadata>
Created by potrace 1.16, written by Peter Selinger 2001-2019
</metadata>
<g transform="translate(0.000000,32.000000) scale(0.100000,-0.100000)"
fill="#000000" stroke="none">
<path fill="#000000" stroke="none" d="M0 160 l0 -160 160 0 160 0 0 160 0
160 -160 0 -160 0 0 -160z"/>
<path fill="#ffffff" stroke="none" d="M155 280 c3 -5 1 -10 -5 -10 -6 0 -15
-10 -19 -22 -8 -20 -9 -19 -9 10 1 31 20 44 33 22z"/>
<path fill="#ffffff" stroke="none" d="M157 245 c0 -8 -4 -15 -9 -15 -4 0 -8
7 -8 15 0 8 4 15 8 15 5 0 9 -7 9 -15z"/>
<path fill="#ffffff" stroke="none" d="M154 208 c-3 -4 -12 -8 -20 -8 -8 0
-14 4 -14 8 0 4 9 8 19 8 11 0 17 -4 15 -8z"/>
<path fill="#ffffff" stroke="none" d="M208 181 c15 -26 19 -42 12 -46 -6 -4
-9 -3 -8 2 4 16 -13 51 -27 57 -8 3 -15 10 -15 16 0 21 17 8 38 -29z"/>
<path fill="#ffffff" stroke="none" d="M75 200 c3 -5 1 -10 -4 -10 -6 0 -11 5
-11 10 0 6 2 10 4 10 3 0 8 -4 11 -10z"/>
<path fill="#ffffff" stroke="none" d="M157 160 c17 13 17 13 1 -4 -16 -19
-38 -15 -38 7 0 8 4 7 9 -2 8 -13 12 -13 28 -1z"/>
<path fill="#ffffff" stroke="none" d="M114 32 c3 -5 -1 -9 -9 -9 -8 0 -12 4
-9 9 3 4 7 8 9 8 2 0 6 -4 9 -8z"/>
<path fill="#ffffff" stroke="none" d="M224 22 c3 -5 -1 -9 -9 -9 -8 0 -12 4
-9 9 3 4 7 8 9 8 2 0 6 -4 9 -8z"/>
</g>
</svg>
