<?xml version="1.0" standalone="no"?>
<!DOCTYPE svg PUBLIC "-//W3C//DTD SVG 20010904//EN"
 "http://www.w3.org/TR/2001/REC-SVG-20010904/DTD/svg10.dtd">
<svg version="1.0" xmlns="http://www.w3.org/2000/svg"
 width="32.000000pt" height="32.000000pt" viewBox="0 0 32.000000 32.000000"
 preserveAspectRatio="xMidYMid meet">
<metadata>
Created by potrace 1.16, written by Peter Selinger 2001-2019
</metadata>
<g transform="translate(0.000000,32.000000) scale(0.100000,-0.100000)"
fill="#000000" stroke="none">
<path fill="#000000" stroke="none" d="M0 160 l0 -160 160 0 160 0 0 160 0
160 -160 0 -160 0 0 -160z"/>
<path fill="#ffffff" stroke="none" d="M153 290 c4 0 5 6 1 13 -6 9 -4 9 8 -1
17 -13 32 -56 17 -46 -5 3 -9 -1 -9 -8 0 -9 -3 -9 -10 2 -9 13 -10 13 -10 0 0
-25 21 -42 36 -29 17 14 34 3 34 -20 0 -30 -26 -46 -47 -30 -15 11 -16 11 -5
-1 17 -19 15 -57 -3 -64 -30 -11 -16 -31 23 -31 32 0 37 4 40 25 2 14 8 29 13
34 5 6 9 24 9 42 0 17 6 37 14 43 11 9 12 6 9 -16 l-4 -28 20 24 21 23 0 -26
c0 -17 -10 -33 -30 -47 -26 -20 -29 -27 -24 -59 7 -44 -13 -65 -53 -57 -17 3
-39 -1 -55 -11 -22 -13 -32 -14 -53 -4 -22 10 -26 18 -24 47 2 19 -2 40 -9 47
-9 9 -5 16 18 30 17 10 30 25 30 33 0 17 -16 21 -22 5 -5 -14 -48 0 -48 16 0
17 12 18 28 2 9 -9 17 -5 36 15 14 15 23 28 21 28 -3 1 -9 2 -14 3 -15 2 -26
16 -13 16 7 0 12 8 12 18 0 25 11 35 24 22 5 -5 14 -10 19 -10z"/>
</g>
</svg>
