<?xml version="1.0" standalone="no"?>
<!DOCTYPE svg PUBLIC "-//W3C//DTD SVG 20010904//EN"
 "http://www.w3.org/TR/2001/REC-SVG-20010904/DTD/svg10.dtd">
<svg version="1.0" xmlns="http://www.w3.org/2000/svg"
 width="32.000000pt" height="32.000000pt" viewBox="0 0 32.000000 32.000000"
 preserveAspectRatio="xMidYMid meet">
<metadata>
Created by potrace 1.16, written by Peter Selinger 2001-2019
</metadata>
<g transform="translate(0.000000,32.000000) scale(0.100000,-0.100000)"
fill="#000000" stroke="none">
<path fill="#000000" stroke="none" d="M0 160 l0 -160 160 0 160 0 0 160 0
160 -160 0 -160 0 0 -160z"/>
<path fill="#ffffff" stroke="none" d="M145 290 c4 -6 -5 -10 -20 -10 -15 0
-24 4 -20 10 3 6 12 10 20 10 8 0 17 -4 20 -10z"/>
<path fill="#ffffff" stroke="none" d="M171 207 c-13 -13 -26 -3 -16 12 3 6
11 8 17 5 6 -4 6 -10 -1 -17z"/>
<path fill="#ffffff" stroke="none" d="M140 210 c0 -5 -8 -10 -17 -10 -15 0
-16 2 -3 10 19 12 20 12 20 0z"/>
<path fill="#ffffff" stroke="none" d="M220 202 c0 -5 -7 -9 -15 -9 -8 0 -12
4 -9 9 3 4 9 8 15 8 5 0 9 -4 9 -8z"/>
<path fill="#ffffff" stroke="none" d="M286 187 c8 3 14 -1 14 -10 0 -20 -22
-35 -28 -19 -2 7 -8 10 -13 6 -11 -6 -12 19 -2 30 4 4 9 3 11 -3 2 -5 10 -7
18 -4z"/>
<path fill="#ffffff" stroke="none" d="M135 180 c3 -5 -1 -10 -10 -10 -9 0
-13 5 -10 10 3 6 8 10 10 10 2 0 7 -4 10 -10z"/>
<path fill="#ffffff" stroke="none" d="M132 145 c2 3 5 -1 5 -9 0 -8 -5 -14
-11 -13 -5 1 -10 -3 -11 -10 0 -20 -12 -24 -24 -9 -9 11 -8 17 3 29 8 8 12 18
8 23 -4 5 0 3 9 -4 9 -6 18 -10 21 -7z"/>
<path fill="#ffffff" stroke="none" d="M247 120 c1 -11 -2 -22 -6 -25 -7 -3
-8 31 -2 43 3 7 7 0 8 -18z"/>
<path fill="#ffffff" stroke="none" d="M177 98 c-3 -8 -6 -5 -6 6 -1 11 2 17
5 13 3 -3 4 -12 1 -19z"/>
<path fill="#000000" stroke="none" d="M101 126 c-9 -11 -9 -16 1 -22 7 -4 10
-4 6 1 -4 4 -3 14 3 22 6 7 9 13 6 13 -2 0 -10 -6 -16 -14z"/>
</g>
</svg>
