<?xml version="1.0" standalone="no"?>
<!DOCTYPE svg PUBLIC "-//W3C//DTD SVG 20010904//EN"
 "http://www.w3.org/TR/2001/REC-SVG-20010904/DTD/svg10.dtd">
<svg version="1.0" xmlns="http://www.w3.org/2000/svg"
 width="32.000000pt" height="32.000000pt" viewBox="0 0 32.000000 32.000000"
 preserveAspectRatio="xMidYMid meet">
<metadata>
Created by potrace 1.16, written by Peter Selinger 2001-2019
</metadata>
<g transform="translate(0.000000,32.000000) scale(0.100000,-0.100000)"
fill="#000000" stroke="none">
<path fill="#000000" stroke="none" d="M0 160 l0 -160 160 0 160 0 0 160 0
160 -160 0 -160 0 0 -160z"/>
<path fill="#ffffff" stroke="none" d="M183 291 c-10 12 -10 16 0 16 7 0 14
-9 14 -19 2 -26 22 -48 41 -48 14 0 14 -2 -1 -17 -13 -13 -20 -14 -29 -5 -9 9
-9 12 1 12 11 0 11 3 1 15 -11 13 -15 13 -21 3 -7 -11 -9 -11 -9 0 0 7 -4 10
-10 7 -14 -9 -12 -25 3 -25 7 0 21 -13 30 -30 10 -16 22 -30 28 -30 5 0 9 -7
9 -16 0 -9 -6 -14 -12 -11 -15 5 -19 -99 -5 -120 6 -9 2 -13 -12 -13 -14 0
-21 6 -21 20 0 13 -7 20 -18 20 -10 0 -24 6 -30 12 -10 10 -12 7 -10 -12 2
-20 -2 -26 -22 -28 -20 -3 -23 -1 -12 9 25 26 10 139 -20 146 -10 3 -18 12
-18 19 0 20 13 17 33 -6 10 -12 23 -18 29 -14 8 5 6 10 -7 14 -16 6 -15 8 9
27 l27 21 -23 16 c-12 9 -17 16 -11 16 6 0 13 9 16 21 5 20 6 20 34 2 22 -14
25 -14 16 -2z"/>
</g>
</svg>
