<?xml version="1.0" standalone="no"?>
<!DOCTYPE svg PUBLIC "-//W3C//DTD SVG 20010904//EN"
 "http://www.w3.org/TR/2001/REC-SVG-20010904/DTD/svg10.dtd">
<svg version="1.0" xmlns="http://www.w3.org/2000/svg"
 width="32.000000pt" height="32.000000pt" viewBox="0 0 32.000000 32.000000"
 preserveAspectRatio="xMidYMid meet">
<metadata>
Created by potrace 1.16, written by Peter Selinger 2001-2019
</metadata>
<g transform="translate(0.000000,32.000000) scale(0.100000,-0.100000)"
fill="#000000" stroke="none">
<path fill="#000000" stroke="none" d="M0 160 l0 -160 160 0 160 0 0 160 0
160 -160 0 -160 0 0 -160z"/>
<path fill="#ffffff" stroke="none" d="M273 203 l-4 -28 20 24 21 23 0 -26 c0
-17 -10 -33 -31 -48 -23 -17 -29 -28 -24 -45 5 -22 -7 -35 -34 -40 -10 -1 -11
1 -2 10 6 6 11 21 11 33 0 13 5 26 10 29 6 3 10 21 10 39 0 17 5 37 12 44 16
16 16 16 11 -15z"/>
<path fill="#ffffff" stroke="none" d="M140 208 c0 -4 -7 -8 -15 -8 -8 0 -15
4 -15 8 0 5 7 9 15 9 8 0 15 -4 15 -9z"/>
<path fill="#ffffff" stroke="none" d="M170 210 c0 -5 -2 -10 -4 -10 -3 0 -8
5 -11 10 -3 6 -1 10 4 10 6 0 11 -4 11 -10z"/>
<path fill="#ffffff" stroke="none" d="M165 150 c8 -13 -60 -97 -78 -97 -18 0
-19 34 -1 68 8 17 20 26 28 23 8 -3 17 -1 21 5 8 14 22 14 30 1z"/>
</g>
</svg>
