<?xml version="1.0" standalone="no"?>
<!DOCTYPE svg PUBLIC "-//W3C//DTD SVG 20010904//EN"
 "http://www.w3.org/TR/2001/REC-SVG-20010904/DTD/svg10.dtd">
<svg version="1.0" xmlns="http://www.w3.org/2000/svg"
 width="32.000000pt" height="32.000000pt" viewBox="0 0 32.000000 32.000000"
 preserveAspectRatio="xMidYMid meet">
<metadata>
Created by potrace 1.16, written by Peter Selinger 2001-2019
</metadata>
<g transform="translate(0.000000,32.000000) scale(0.100000,-0.100000)"
fill="#000000" stroke="none">
<path fill="#000000" stroke="none" d="M90 296 c-17 -17 -12 -33 16 -55 24
-19 25 -23 12 -39 -25 -29 -28 -50 -9 -74 10 -13 21 -30 24 -38 5 -13 6 -13 6
0 1 13 2 13 11 0 8 -12 11 -13 19 -1 7 11 9 11 14 0 4 -10 6 -10 6 2 1 9 8 22
16 29 20 16 19 59 -1 81 -15 17 -14 20 12 43 33 29 45 31 62 14 19 -19 14 -45
-10 -62 -12 -9 -18 -16 -12 -16 6 0 18 8 26 18 16 18 31 65 18 57 -4 -3 -13 2
-20 10 -17 20 -33 19 -55 -5 -10 -11 -24 -20 -32 -20 -7 0 -13 -6 -13 -12 0
-9 -4 -8 -10 2 -9 13 -11 13 -20 0 -5 -8 -10 -10 -10 -5 0 6 -10 15 -22 20
-13 6 -23 19 -23 30 0 19 7 20 92 20 50 0 89 2 86 5 -9 10 -173 6 -183 -4z"/>
<path fill="#000000" stroke="none" d="M39 121 c-16 -16 -29 -40 -29 -54 0
-46 62 -76 90 -42 18 22 4 48 -22 42 -12 -4 -29 -1 -37 6 -14 11 -14 10 -2 -5
9 -12 21 -16 38 -12 21 6 24 3 21 -12 -4 -23 -43 -31 -64 -14 -24 20 -16 60
17 91 17 16 28 29 24 29 -3 0 -20 -13 -36 -29z"/>
</g>
</svg>
