<?xml version="1.0" standalone="no"?>
<!DOCTYPE svg PUBLIC "-//W3C//DTD SVG 20010904//EN"
 "http://www.w3.org/TR/2001/REC-SVG-20010904/DTD/svg10.dtd">
<svg version="1.0" xmlns="http://www.w3.org/2000/svg"
 width="32.000000pt" height="32.000000pt" viewBox="0 0 32.000000 32.000000"
 preserveAspectRatio="xMidYMid meet">
<metadata>
Created by potrace 1.16, written by Peter Selinger 2001-2019
</metadata>
<g transform="translate(0.000000,32.000000) scale(0.100000,-0.100000)"
fill="#000000" stroke="none">
<path fill="#000000" stroke="none" d="M90 296 c-17 -17 -12 -33 16 -55 25
-20 26 -22 10 -39 -9 -10 -16 -24 -16 -30 0 -6 -13 -18 -29 -27 -58 -29 -78
-87 -43 -118 23 -21 56 -22 72 -2 19 23 5 46 -27 43 -39 -4 -44 32 -7 61 l26
21 19 -24 c11 -13 19 -30 19 -38 0 -11 2 -11 9 1 7 11 9 11 14 0 5 -12 7 -12
15 0 8 11 10 11 15 0 4 -10 6 -10 6 2 1 9 8 22 16 29 8 7 15 23 15 36 0 18 5
24 23 24 60 0 89 67 46 106 -17 15 -37 19 -105 20 -46 0 -88 -4 -94 -10z"/>
<path fill="#ffffff" stroke="none" d="M284 281 c22 -19 13 -26 -13 -10 -17
12 -23 10 -44 -9 -13 -12 -29 -22 -35 -22 -7 0 -12 -6 -12 -12 0 -9 -4 -8 -10
2 -9 13 -11 13 -20 0 -6 -10 -10 -11 -10 -2 0 6 -6 12 -14 12 -19 0 -39 27
-33 43 7 19 168 17 191 -2z"/>
<path fill="#ffffff" stroke="none" d="M284 248 c25 -40 -53 -80 -83 -44 -11
13 -8 20 16 40 31 29 51 29 67 4z"/>
<path fill="#ffffff" stroke="none" d="M79 57 c19 5 22 2 19 -13 -7 -41 -78
-24 -78 19 0 19 1 19 18 4 11 -10 26 -14 41 -10z"/>
</g>
</svg>
