<?xml version="1.0" standalone="no"?>
<!DOCTYPE svg PUBLIC "-//W3C//DTD SVG 20010904//EN"
 "http://www.w3.org/TR/2001/REC-SVG-20010904/DTD/svg10.dtd">
<svg version="1.0" xmlns="http://www.w3.org/2000/svg"
 width="32.000000pt" height="32.000000pt" viewBox="0 0 32.000000 32.000000"
 preserveAspectRatio="xMidYMid meet">
<metadata>
Created by potrace 1.16, written by Peter Selinger 2001-2019
</metadata>
<g transform="translate(0.000000,32.000000) scale(0.100000,-0.100000)"
fill="#000000" stroke="none">
<path fill="#000000" stroke="none" d="M89 294 c-11 -14 -10 -20 14 -40 15
-12 22 -26 17 -29 -6 -3 -9 -30 -8 -58 l1 -52 6 50 c6 46 8 50 36 53 19 3 33
-2 42 -14 11 -16 13 -16 13 -2 0 9 -5 20 -10 23 -13 8 32 45 54 45 8 0 22 -10
30 -22 9 -12 16 -18 16 -12 0 16 -34 44 -52 44 -9 0 -21 -6 -27 -14 -15 -18
-107 -18 -122 0 -17 21 0 37 35 30 22 -4 27 -3 16 4 -22 14 -46 12 -61 -6z"/>
<path fill="#000000" stroke="none" d="M140 178 c1 -21 2 -22 14 -6 7 10 16
15 19 11 4 -3 7 -1 7 5 0 7 -9 12 -20 12 -14 0 -20 -7 -20 -22z"/>
<path fill="#000000" stroke="none" d="M115 100 c3 -5 8 -10 11 -10 2 0 4 5 4
10 0 6 -5 10 -11 10 -5 0 -7 -4 -4 -10z"/>
<path fill="#000000" stroke="none" d="M190 99 c0 -5 5 -7 10 -4 6 3 10 8 10
11 0 2 -4 4 -10 4 -5 0 -10 -5 -10 -11z"/>
<path fill="#000000" stroke="none" d="M10 51 c0 -10 39 -46 43 -40 2 2 -7 14
-20 26 -13 12 -23 19 -23 14z"/>
</g>
</svg>
