<?xml version="1.0" standalone="no"?>
<!DOCTYPE svg PUBLIC "-//W3C//DTD SVG 20010904//EN"
 "http://www.w3.org/TR/2001/REC-SVG-20010904/DTD/svg10.dtd">
<svg version="1.0" xmlns="http://www.w3.org/2000/svg"
 width="32.000000pt" height="32.000000pt" viewBox="0 0 32.000000 32.000000"
 preserveAspectRatio="xMidYMid meet">
<metadata>
Created by potrace 1.16, written by Peter Selinger 2001-2019
</metadata>
<g transform="translate(0.000000,32.000000) scale(0.100000,-0.100000)"
fill="#000000" stroke="none">
<path fill="#000000" stroke="none" d="M0 160 l0 -160 160 0 160 0 0 160 0
160 -160 0 -160 0 0 -160z"/>
<path fill="#ffffff" stroke="none" d="M136 191 c-23 -25 -17 -57 9 -53 41 6
47 12 43 37 -4 20 -3 23 8 14 18 -15 18 -53 -1 -69 -8 -7 -28 -10 -45 -8 -22
3 -27 1 -20 -8 7 -8 6 -13 -5 -17 -35 -14 -47 71 -15 103 26 26 49 27 26 1z"/>
<path fill="#ffffff" stroke="none" d="M206 85 c-11 -8 -25 -15 -30 -15 -6 1
0 7 14 15 32 19 40 18 16 0z"/>
</g>
</svg>
