<?xml version="1.0" standalone="no"?>
<!DOCTYPE svg PUBLIC "-//W3C//DTD SVG 20010904//EN"
 "http://www.w3.org/TR/2001/REC-SVG-20010904/DTD/svg10.dtd">
<svg version="1.0" xmlns="http://www.w3.org/2000/svg"
 width="32.000000pt" height="32.000000pt" viewBox="0 0 32.000000 32.000000"
 preserveAspectRatio="xMidYMid meet">
<metadata>
Created by potrace 1.16, written by Peter Selinger 2001-2019
</metadata>
<g transform="translate(0.000000,32.000000) scale(0.100000,-0.100000)"
fill="#000000" stroke="none">
<path fill="#000000" stroke="none" d="M148 253 c6 -2 18 -2 25 0 6 3 1 5 -13
5 -14 0 -19 -2 -12 -5z"/>
<path fill="#000000" stroke="none" d="M109 213 c-13 -16 -12 -17 4 -4 9 7 17
15 17 17 0 8 -8 3 -21 -13z"/>
<path fill="#000000" stroke="none" d="M131 178 c-12 -31 11 -57 33 -39 8 7
12 20 9 28 -5 12 -2 14 8 9 8 -4 5 0 -5 8 -26 21 -35 20 -45 -6z"/>
<path fill="#000000" stroke="none" d="M91 164 c0 -16 6 -39 15 -50 8 -10 12
-12 8 -4 -4 8 -11 30 -15 50 -7 35 -7 35 -8 4z"/>
<path fill="#000000" stroke="none" d="M211 144 c0 -11 3 -14 6 -6 3 7 2 16
-1 19 -3 4 -6 -2 -5 -13z"/>
<path fill="#000000" stroke="none" d="M186 105 c-11 -8 -15 -15 -9 -15 6 0
16 7 23 15 16 19 11 19 -14 0z"/>
</g>
</svg>
