<?xml version="1.0" standalone="no"?>
<!DOCTYPE svg PUBLIC "-//W3C//DTD SVG 20010904//EN"
 "http://www.w3.org/TR/2001/REC-SVG-20010904/DTD/svg10.dtd">
<svg version="1.0" xmlns="http://www.w3.org/2000/svg"
 width="32.000000pt" height="32.000000pt" viewBox="0 0 32.000000 32.000000"
 preserveAspectRatio="xMidYMid meet">
<metadata>
Created by potrace 1.16, written by Peter Selinger 2001-2019
</metadata>
<g transform="translate(0.000000,32.000000) scale(0.100000,-0.100000)"
fill="#000000" stroke="none">
<path fill="#000000" stroke="none" d="M90 295 c-10 -13 -10 -19 5 -35 10 -11
28 -20 39 -21 20 0 20 -1 -1 -9 -20 -8 -23 -17 -23 -60 0 -32 4 -49 10 -45 6
3 10 1 10 -4 0 -6 -5 -11 -11 -11 -5 0 -7 -5 -3 -11 5 -8 10 -6 16 5 12 21 44
21 56 0 6 -10 12 -13 16 -6 3 5 -1 12 -9 16 -10 4 -15 19 -14 48 0 24 3 37 6
30 6 -15 23 -6 23 14 0 8 -10 19 -22 24 -23 9 -23 9 -2 9 12 1 27 8 34 16 18
22 46 18 64 -7 9 -12 16 -18 16 -12 0 16 -34 44 -52 44 -9 0 -21 -7 -28 -15
-17 -20 -103 -20 -120 0 -18 22 -2 38 34 31 22 -4 27 -3 16 4 -22 14 -46 12
-60 -5z"/>
<path fill="#000000" stroke="none" d="M146 102 c-2 -4 4 -8 14 -8 10 0 16 4
14 8 -3 4 -9 8 -14 8 -5 0 -11 -4 -14 -8z"/>
<path fill="#000000" stroke="none" d="M10 51 c0 -10 39 -46 43 -40 2 2 -7 14
-20 26 -13 12 -23 19 -23 14z"/>
</g>
</svg>
