<?xml version="1.0" standalone="no"?>
<!DOCTYPE svg PUBLIC "-//W3C//DTD SVG 20010904//EN"
 "http://www.w3.org/TR/2001/REC-SVG-20010904/DTD/svg10.dtd">
<svg version="1.0" xmlns="http://www.w3.org/2000/svg"
 width="32.000000pt" height="32.000000pt" viewBox="0 0 32.000000 32.000000"
 preserveAspectRatio="xMidYMid meet">
<metadata>
Created by potrace 1.16, written by Peter Selinger 2001-2019
</metadata>
<g transform="translate(0.000000,32.000000) scale(0.100000,-0.100000)"
fill="#000000" stroke="none">
<path fill="#000000" stroke="none" d="M0 160 l0 -160 160 0 160 0 0 160 0
160 -160 0 -160 0 0 -160z"/>
<path fill="#ffffff" stroke="none" d="M273 300 c3 -3 -36 -5 -86 -5 -74 0
-92 -3 -92 -15 0 -8 11 -20 25 -27 16 -8 19 -13 9 -13 -9 0 -24 9 -34 20 -31
34 -7 46 89 46 46 -1 87 -3 89 -6z"/>
<path fill="#ffffff" stroke="none" d="M280 265 c7 -8 16 -13 20 -10 13 8 -2
-39 -18 -57 -8 -10 -20 -18 -26 -18 -6 0 0 7 12 16 12 8 22 23 22 33 0 37 -46
55 -70 26 -7 -8 -20 -15 -29 -14 -11 0 -10 3 5 9 12 5 25 13 29 19 9 16 41 13
55 -4z"/>
<path fill="#ffffff" stroke="none" d="M170 251 c0 -6 -4 -13 -10 -16 -5 -3
-10 1 -10 9 0 9 5 16 10 16 6 0 10 -4 10 -9z"/>
<path fill="#ffffff" stroke="none" d="M213 192 c24 -21 21 -37 -10 -57 -23
-16 -25 -16 -20 -1 5 12 0 16 -19 16 -23 0 -25 -3 -20 -26 l7 -26 -33 31 c-27
25 -31 34 -22 48 25 41 79 48 117 15z"/>
<path fill="#ffffff" stroke="none" d="M51 121 c-33 -31 -41 -71 -17 -91 21
-17 60 -9 64 14 3 15 0 18 -21 12 -17 -4 -29 0 -38 12 -12 15 -12 16 2 5 8 -7
25 -10 37 -6 26 6 40 -20 22 -42 -28 -34 -90 -4 -90 42 0 22 48 83 65 83 4 0
-7 -13 -24 -29z"/>
<path fill="#000000" stroke="none" d="M197 179 c7 -7 15 -10 18 -7 3 3 -2 9
-12 12 -14 6 -15 5 -6 -5z"/>
<path fill="#000000" stroke="none" d="M155 170 c-3 -5 -1 -10 4 -10 6 0 11 5
11 10 0 6 -2 10 -4 10 -3 0 -8 -4 -11 -10z"/>
</g>
</svg>
