<?xml version="1.0" standalone="no"?>
<!DOCTYPE svg PUBLIC "-//W3C//DTD SVG 20010904//EN"
 "http://www.w3.org/TR/2001/REC-SVG-20010904/DTD/svg10.dtd">
<svg version="1.0" xmlns="http://www.w3.org/2000/svg"
 width="32.000000pt" height="32.000000pt" viewBox="0 0 32.000000 32.000000"
 preserveAspectRatio="xMidYMid meet">
<metadata>
Created by potrace 1.16, written by Peter Selinger 2001-2019
</metadata>
<g transform="translate(0.000000,32.000000) scale(0.100000,-0.100000)"
fill="#000000" stroke="none">
<path fill="#000000" stroke="none" d="M0 160 l0 -160 160 0 160 0 0 160 0
160 -160 0 -160 0 0 -160z"/>
<path fill="#ffffff" stroke="none" d="M150 300 c11 -7 6 -8 -16 -4 -36 7 -52
-9 -34 -31 17 -20 103 -20 120 0 7 8 19 15 28 15 18 0 52 -28 52 -44 0 -6 -7
0 -16 12 -18 26 -41 28 -66 5 -29 -26 -94 -24 -120 4 -17 19 -19 25 -8 38 14
17 38 19 60 5z"/>
<path fill="#ffffff" stroke="none" d="M204 193 c15 -31 14 -36 -6 -78 -13
-26 -29 -45 -38 -45 -9 0 -25 19 -38 45 -20 42 -21 47 -6 78 13 26 22 33 44
33 22 0 31 -7 44 -33z"/>
<path fill="#ffffff" stroke="none" d="M53 11 c-4 -6 -43 30 -43 40 0 5 10 -2
23 -14 13 -12 22 -24 20 -26z"/>
<path fill="#000000" stroke="none" d="M157 214 c-3 -4 1 -13 11 -21 16 -12
16 -13 -2 -6 -14 5 -17 3 -11 -6 4 -8 2 -17 -5 -21 -18 -11 -2 -33 18 -25 11
4 9 -2 -6 -18 -15 -16 -20 -27 -13 -32 17 -10 31 4 24 22 -4 9 -2 14 3 11 5
-4 9 15 9 42 0 26 -3 46 -7 44 -3 -2 -8 1 -10 7 -2 5 -7 7 -11 3z"/>
<path fill="#000000" stroke="none" d="M127 196 c-3 -8 0 -17 8 -19 7 -3 12 0
11 8 -3 22 -13 27 -19 11z"/>
</g>
</svg>
