<?xml version="1.0" standalone="no"?>
<!DOCTYPE svg PUBLIC "-//W3C//DTD SVG 20010904//EN"
 "http://www.w3.org/TR/2001/REC-SVG-20010904/DTD/svg10.dtd">
<svg version="1.0" xmlns="http://www.w3.org/2000/svg"
 width="32.000000pt" height="32.000000pt" viewBox="0 0 32.000000 32.000000"
 preserveAspectRatio="xMidYMid meet">
<metadata>
Created by potrace 1.16, written by Peter Selinger 2001-2019
</metadata>
<g transform="translate(0.000000,32.000000) scale(0.100000,-0.100000)"
fill="#000000" stroke="none">
<path fill="#000000" stroke="none" d="M0 160 l0 -160 160 0 160 0 0 160 0
160 -160 0 -160 0 0 -160z"/>
<path fill="#ffffff" stroke="none" d="M204 297 c-8 -4 -35 -7 -62 -5 -36 2
-47 0 -47 -12 0 -21 47 -43 57 -27 6 9 10 9 16 1 8 -13 46 -2 57 15 9 16 36
13 57 -6 22 -20 23 -46 1 -64 -15 -13 -15 -12 -2 9 25 41 -30 84 -61 47 -7 -8
-19 -15 -26 -15 -19 0 -18 -2 16 -71 17 -33 29 -63 26 -67 -2 -4 -25 -6 -51
-4 -46 4 -46 4 -23 20 13 8 24 16 26 18 2 1 -4 17 -13 34 l-17 33 -23 -29
c-13 -16 -21 -32 -19 -36 2 -4 0 -9 -5 -12 -11 -7 -9 13 4 34 5 8 10 20 12 25
1 6 5 20 9 33 4 16 2 22 -8 22 -8 0 -23 9 -33 20 -28 31 -6 47 64 46 36 -1 54
-4 45 -9z"/>
<path fill="#ffffff" stroke="none" d="M27 90 c-14 -38 -1 -64 37 -68 30 -4
48 24 25 39 -10 6 -11 9 -1 9 19 0 26 -28 12 -45 -16 -20 -49 -19 -72 2 -20
18 -23 45 -8 74 16 29 20 23 7 -11z"/>
</g>
</svg>
