<?xml version="1.0" standalone="no"?>
<!DOCTYPE svg PUBLIC "-//W3C//DTD SVG 20010904//EN"
 "http://www.w3.org/TR/2001/REC-SVG-20010904/DTD/svg10.dtd">
<svg version="1.0" xmlns="http://www.w3.org/2000/svg"
 width="32.000000pt" height="32.000000pt" viewBox="0 0 32.000000 32.000000"
 preserveAspectRatio="xMidYMid meet">
<metadata>
Created by potrace 1.16, written by Peter Selinger 2001-2019
</metadata>
<g transform="translate(0.000000,32.000000) scale(0.100000,-0.100000)"
fill="#000000" stroke="none">
<path fill="#000000" stroke="none" d="M88 293 c-8 -10 -6 -18 7 -33 10 -11
24 -20 32 -20 17 0 17 -2 -9 -54 -13 -28 -26 -42 -34 -39 -20 7 -74 -51 -74
-80 0 -46 62 -76 90 -42 19 23 5 46 -27 43 -34 -4 -43 24 -17 53 23 26 36 24
28 -5 -11 -45 13 -35 36 14 13 28 26 50 30 50 4 0 12 -11 18 -25 10 -22 9 -25
-7 -25 -10 0 -26 -11 -34 -24 -14 -20 -14 -24 -2 -22 8 1 18 5 21 9 11 11 56
8 49 -3 -3 -5 3 -10 15 -10 28 0 34 22 16 59 -21 40 -21 41 12 41 64 0 96 65
51 106 -17 15 -37 19 -105 20 -59 0 -88 -4 -96 -13z"/>
<path fill="#ffffff" stroke="none" d="M284 281 c22 -18 13 -26 -12 -10 -19
12 -25 11 -72 -16 -19 -11 -26 -11 -32 -2 -6 9 -10 9 -15 1 -14 -21 -72 13
-59 34 9 14 171 8 190 -7z"/>
<path fill="#ffffff" stroke="none" d="M284 248 c16 -26 -4 -52 -47 -59 -30
-5 -37 -2 -46 18 -14 31 -14 33 3 33 7 0 19 7 26 15 16 20 49 16 64 -7z"/>
<path fill="#ffffff" stroke="none" d="M79 57 c19 5 22 2 19 -13 -7 -41 -78
-24 -78 19 0 19 1 19 18 4 11 -10 26 -14 41 -10z"/>
</g>
</svg>
