<?xml version="1.0" standalone="no"?>
<!DOCTYPE svg PUBLIC "-//W3C//DTD SVG 20010904//EN"
 "http://www.w3.org/TR/2001/REC-SVG-20010904/DTD/svg10.dtd">
<svg version="1.0" xmlns="http://www.w3.org/2000/svg"
 width="32.000000pt" height="32.000000pt" viewBox="0 0 32.000000 32.000000"
 preserveAspectRatio="xMidYMid meet">
<metadata>
Created by potrace 1.16, written by Peter Selinger 2001-2019
</metadata>
<g transform="translate(0.000000,32.000000) scale(0.100000,-0.100000)"
fill="#000000" stroke="none">
<path fill="#000000" stroke="none" d="M88 293 c-8 -10 -6 -18 7 -33 10 -11
24 -20 31 -20 7 0 -1 -13 -17 -29 -16 -16 -29 -39 -29 -51 0 -28 52 -80 80
-80 26 0 80 51 80 77 0 10 14 24 33 33 41 19 49 66 16 96 -17 15 -36 19 -105
20 -59 0 -88 -4 -96 -13z"/>
<path fill="#ffffff" stroke="none" d="M287 278 c10 -10 12 -18 6 -18 -7 0
-15 5 -18 10 -9 15 -41 12 -54 -4 -15 -18 -107 -18 -122 0 -20 24 -1 30 85 30
67 -1 89 -5 103 -18z"/>
<path fill="#ffffff" stroke="none" d="M280 255 c17 -20 9 -48 -18 -61 -20
-10 -27 -8 -50 15 -23 22 -25 27 -11 33 10 4 20 11 24 17 9 16 40 13 55 -4z"/>
<path fill="#000000" stroke="none" d="M31 114 c-12 -15 -21 -37 -21 -49 0
-44 63 -73 90 -40 19 23 5 46 -27 43 -34 -4 -43 24 -17 53 9 10 12 19 6 19 -6
0 -20 -12 -31 -26z"/>
<path fill="#ffffff" stroke="none" d="M79 57 c19 5 22 2 19 -13 -7 -41 -78
-24 -78 19 0 19 1 19 18 4 11 -10 26 -14 41 -10z"/>
</g>
</svg>
