<?xml version="1.0" standalone="no"?>
<!DOCTYPE svg PUBLIC "-//W3C//DTD SVG 20010904//EN"
 "http://www.w3.org/TR/2001/REC-SVG-20010904/DTD/svg10.dtd">
<svg version="1.0" xmlns="http://www.w3.org/2000/svg"
 width="32.000000pt" height="32.000000pt" viewBox="0 0 32.000000 32.000000"
 preserveAspectRatio="xMidYMid meet">
<metadata>
Created by potrace 1.16, written by Peter Selinger 2001-2019
</metadata>
<g transform="translate(0.000000,32.000000) scale(0.100000,-0.100000)"
fill="#000000" stroke="none">
<path fill="#000000" stroke="none" d="M200 135 c0 -8 -7 -15 -15 -15 -11 0
-15 -12 -15 -45 0 -33 4 -45 15 -45 8 0 15 -7 15 -15 0 -8 7 -15 15 -15 8 0
15 5 15 10 0 6 7 10 15 10 8 0 15 -4 15 -10 0 -5 7 -10 15 -10 8 0 15 7 15 15
0 8 7 15 15 15 11 0 15 12 15 45 0 33 -4 45 -15 45 -8 0 -15 7 -15 15 0 8 -7
15 -15 15 -8 0 -15 -4 -15 -10 0 -5 -7 -10 -15 -10 -8 0 -15 5 -15 10 0 6 -7
10 -15 10 -8 0 -15 -7 -15 -15z"/>
<path fill="#ffffff" stroke="none" d="M220 120 c0 -11 -7 -20 -15 -20 -9 0
-15 -9 -15 -25 0 -16 6 -25 15 -25 9 0 15 -9 14 -22 -1 -17 -2 -19 -6 -6 -2
10 -11 18 -19 18 -9 0 -14 11 -14 35 0 24 5 35 15 35 8 0 15 7 15 15 0 8 2 15
5 15 3 0 5 -9 5 -20z"/>
<path fill="#ffffff" stroke="none" d="M296 110 c9 0 14 -11 14 -35 0 -24 -5
-35 -14 -35 -8 0 -17 -8 -19 -18 -4 -13 -5 -11 -6 6 -1 13 5 22 14 22 9 0 15
9 15 25 0 16 -6 25 -15 25 -9 0 -15 9 -14 23 1 16 2 18 6 5 2 -10 11 -18 19
-18z"/>
<path fill="#ffffff" stroke="none" d="M260 105 c0 -8 7 -15 15 -15 8 0 15 -7
15 -15 0 -8 -7 -15 -15 -15 -8 0 -15 -7 -15 -15 0 -8 -7 -15 -15 -15 -8 0 -15
7 -15 15 0 8 -7 15 -15 15 -8 0 -15 7 -15 15 0 8 7 15 15 15 8 0 15 7 15 15 0
8 7 15 15 15 8 0 15 -7 15 -15z"/>
</g>
</svg>
