<?xml version="1.0" standalone="no"?>
<!DOCTYPE svg PUBLIC "-//W3C//DTD SVG 20010904//EN"
 "http://www.w3.org/TR/2001/REC-SVG-20010904/DTD/svg10.dtd">
<svg version="1.0" xmlns="http://www.w3.org/2000/svg"
 width="32.000000pt" height="32.000000pt" viewBox="0 0 32.000000 32.000000"
 preserveAspectRatio="xMidYMid meet">
<metadata>
Created by potrace 1.16, written by Peter Selinger 2001-2019
</metadata>
<g transform="translate(0.000000,32.000000) scale(0.100000,-0.100000)"
fill="#000000" stroke="none">
<path fill="#000000" stroke="none" d="M191 133 c0 -13 2 -14 6 -4 5 11 7 11
14 0 7 -11 9 -10 9 4 0 9 -7 17 -15 17 -8 0 -15 -8 -14 -17z"/>
<path fill="#000000" stroke="none" d="M258 143 c0 -5 -2 -15 -2 -23 -1 -8 -9
-14 -19 -12 -9 2 -17 -3 -17 -9 0 -7 3 -9 7 -6 3 4 12 2 20 -5 11 -9 11 -14
-4 -32 -10 -12 -14 -18 -9 -13 5 4 22 -5 38 -20 35 -34 50 -22 17 15 -30 32
-32 57 -4 57 14 0 21 8 23 28 3 23 0 27 -22 27 -14 0 -27 -3 -28 -7z"/>
<path fill="#ffffff" stroke="none" d="M300 118 c0 -17 -3 -19 -9 -9 -5 7 -15
17 -22 22 -10 6 -8 9 9 9 16 0 22 -6 22 -22z"/>
<path fill="#ffffff" stroke="none" d="M280 116 c0 -2 -8 -10 -17 -17 -16 -13
-17 -12 -4 4 13 16 21 21 21 13z"/>
<path fill="#ffffff" stroke="none" d="M271 43 c13 -16 12 -17 -3 -4 -10 7
-18 15 -18 17 0 8 8 3 21 -13z"/>
<path fill="#000000" stroke="none" d="M201 94 c0 -11 3 -14 6 -6 3 7 2 16 -1
19 -3 4 -6 -2 -5 -13z"/>
<path fill="#000000" stroke="none" d="M211 54 c0 -11 3 -14 6 -6 3 7 2 16 -1
19 -3 4 -6 -2 -5 -13z"/>
<path fill="#000000" stroke="none" d="M221 18 c-1 -10 6 -18 14 -18 8 0 15 8
15 18 0 13 -2 14 -9 3 -7 -11 -9 -11 -14 0 -4 10 -6 9 -6 -3z"/>
</g>
</svg>
