<?xml version="1.0" standalone="no"?>
<!DOCTYPE svg PUBLIC "-//W3C//DTD SVG 20010904//EN"
 "http://www.w3.org/TR/2001/REC-SVG-20010904/DTD/svg10.dtd">
<svg version="1.0" xmlns="http://www.w3.org/2000/svg"
 width="32.000000pt" height="32.000000pt" viewBox="0 0 32.000000 32.000000"
 preserveAspectRatio="xMidYMid meet">
<metadata>
Created by potrace 1.16, written by Peter Selinger 2001-2019
</metadata>
<g transform="translate(0.000000,32.000000) scale(0.100000,-0.100000)"
fill="#000000" stroke="none">
<path fill="#000000" stroke="none" d="M88 293 c-14 -17 16 -53 45 -53 16 0
14 -5 -13 -30 -29 -27 -31 -33 -25 -71 19 -110 111 -109 130 2 5 27 12 39 24
39 30 0 61 30 61 59 0 50 -31 66 -126 67 -59 0 -88 -4 -96 -13z"/>
<path fill="#ffffff" stroke="none" d="M287 278 c10 -10 12 -18 6 -18 -7 0
-15 5 -18 10 -9 15 -41 12 -55 -5 -17 -20 -103 -20 -120 0 -21 25 -3 31 84 31
67 -1 89 -5 103 -18z"/>
<path fill="#ffffff" stroke="none" d="M284 248 c14 -23 -2 -50 -35 -58 -18
-4 -32 2 -53 22 -26 25 -26 28 -8 28 11 0 25 7 32 15 16 20 49 16 64 -7z"/>
<path fill="#000000" stroke="none" d="M39 121 c-16 -16 -29 -40 -29 -54 0
-46 62 -76 90 -42 19 23 5 46 -27 43 -36 -4 -43 26 -12 58 32 34 13 30 -22 -5z"/>
<path fill="#ffffff" stroke="none" d="M79 57 c19 5 22 2 19 -13 -7 -41 -78
-24 -78 19 0 19 1 19 18 4 11 -10 26 -14 41 -10z"/>
</g>
</svg>
