<?xml version="1.0" standalone="no"?>
<!DOCTYPE svg PUBLIC "-//W3C//DTD SVG 20010904//EN"
 "http://www.w3.org/TR/2001/REC-SVG-20010904/DTD/svg10.dtd">
<svg version="1.0" xmlns="http://www.w3.org/2000/svg"
 width="32.000000pt" height="32.000000pt" viewBox="0 0 32.000000 32.000000"
 preserveAspectRatio="xMidYMid meet">
<metadata>
Created by potrace 1.16, written by Peter Selinger 2001-2019
</metadata>
<g transform="translate(0.000000,32.000000) scale(0.100000,-0.100000)"
fill="#000000" stroke="none">
<path fill="#000000" stroke="none" d="M90 295 c-10 -13 -10 -19 5 -35 10 -11
27 -20 38 -20 16 0 15 -4 -12 -29 -19 -17 -31 -38 -30 -53 0 -14 3 -18 6 -8 9
25 46 60 63 60 17 0 54 -35 63 -60 3 -10 6 -6 6 8 1 15 -11 36 -30 53 -28 26
-29 29 -11 29 12 0 24 5 27 11 4 6 17 14 29 19 15 6 16 9 5 9 -9 1 -22 -6 -29
-14 -17 -20 -103 -20 -120 0 -10 12 -10 18 0 30 7 8 10 15 7 15 -2 0 -10 -7
-17 -15z"/>
<path fill="#000000" stroke="none" d="M134 169 c-8 -14 11 -33 25 -25 11 7 4
36 -9 36 -5 0 -12 -5 -16 -11z"/>
<path fill="#000000" stroke="none" d="M102 110 c0 -14 2 -19 5 -12 2 6 2 18
0 25 -3 6 -5 1 -5 -13z"/>
<path fill="#000000" stroke="none" d="M202 100 c0 -14 2 -19 5 -12 2 6 2 18
0 25 -3 6 -5 1 -5 -13z"/>
<path fill="#000000" stroke="none" d="M122 90 c0 -14 2 -19 5 -12 2 6 2 18 0
25 -3 6 -5 1 -5 -13z"/>
<path fill="#000000" stroke="none" d="M142 75 c0 -16 2 -22 5 -12 2 9 2 23 0
30 -3 6 -5 -1 -5 -18z"/>
<path fill="#000000" stroke="none" d="M162 75 c0 -16 2 -22 5 -12 2 9 2 23 0
30 -3 6 -5 -1 -5 -18z"/>
<path fill="#000000" stroke="none" d="M182 80 c0 -14 2 -19 5 -12 2 6 2 18 0
25 -3 6 -5 1 -5 -13z"/>
</g>
</svg>
