<?xml version="1.0" standalone="no"?>
<!DOCTYPE svg PUBLIC "-//W3C//DTD SVG 20010904//EN"
 "http://www.w3.org/TR/2001/REC-SVG-20010904/DTD/svg10.dtd">
<svg version="1.0" xmlns="http://www.w3.org/2000/svg"
 width="32.000000pt" height="32.000000pt" viewBox="0 0 32.000000 32.000000"
 preserveAspectRatio="xMidYMid meet">
<metadata>
Created by potrace 1.16, written by Peter Selinger 2001-2019
</metadata>
<g transform="translate(0.000000,32.000000) scale(0.100000,-0.100000)"
fill="#000000" stroke="none">
<path fill="#000000" stroke="none" d="M0 160 l0 -160 160 0 160 0 0 160 0
160 -160 0 -160 0 0 -160z"/>
<path fill="#ffffff" stroke="none" d="M274 300 c3 -3 -35 -5 -85 -5 -92 2
-110 -5 -89 -30 17 -20 103 -20 120 0 16 19 44 19 60 0 7 -8 16 -13 20 -10 13
8 -2 -39 -18 -57 -8 -10 -20 -18 -26 -18 -6 0 0 7 12 16 12 8 22 23 22 33 0
37 -46 55 -70 26 -7 -8 -21 -15 -32 -15 -18 0 -18 -3 8 -28 16 -15 32 -27 35
-25 3 1 4 -9 1 -24 l-5 -26 -19 24 c-11 13 -17 19 -14 12 9 -17 -3 -42 -26
-54 -16 -9 -24 -6 -42 10 l-23 21 3 -32 3 -33 -8 30 c-15 52 -12 66 20 96 27
25 28 29 12 29 -11 0 -28 9 -38 20 -31 34 -7 46 89 46 46 -1 87 -3 90 -6z"/>
<path fill="#ffffff" stroke="none" d="M51 121 c-33 -31 -41 -71 -17 -91 21
-17 60 -9 64 14 3 15 0 18 -21 12 -17 -4 -29 0 -38 12 -12 15 -12 16 2 5 8 -7
25 -10 37 -6 26 6 40 -20 22 -42 -28 -34 -90 -4 -90 42 0 22 48 83 65 83 4 0
-7 -13 -24 -29z"/>
<path fill="#ffffff" stroke="none" d="M207 93 c-3 -10 -5 -4 -5 12 0 17 2 24
5 18 2 -7 2 -21 0 -30z"/>
<path fill="#ffffff" stroke="none" d="M127 83 c-3 -10 -5 -4 -5 12 0 17 2 24
5 18 2 -7 2 -21 0 -30z"/>
<path fill="#ffffff" stroke="none" d="M187 73 c-3 -10 -5 -4 -5 12 0 17 2 24
5 18 2 -7 2 -21 0 -30z"/>
<path fill="#ffffff" stroke="none" d="M147 63 c-3 -10 -5 -4 -5 12 0 17 2 24
5 18 2 -7 2 -21 0 -30z"/>
<path fill="#ffffff" stroke="none" d="M167 63 c-3 -10 -5 -4 -5 12 0 17 2 24
5 18 2 -7 2 -21 0 -30z"/>
</g>
</svg>
