<?xml version="1.0" standalone="no"?>
<!DOCTYPE svg PUBLIC "-//W3C//DTD SVG 20010904//EN"
 "http://www.w3.org/TR/2001/REC-SVG-20010904/DTD/svg10.dtd">
<svg version="1.0" xmlns="http://www.w3.org/2000/svg"
 width="32.000000pt" height="32.000000pt" viewBox="0 0 32.000000 32.000000"
 preserveAspectRatio="xMidYMid meet">
<metadata>
Created by potrace 1.16, written by Peter Selinger 2001-2019
</metadata>
<g transform="translate(0.000000,32.000000) scale(0.100000,-0.100000)"
fill="#000000" stroke="none">
<path fill="#000000" stroke="none" d="M88 293 c-13 -16 16 -53 41 -53 10 0 7
5 -9 13 -14 7 -25 19 -25 27 0 21 151 24 183 3 13 -8 22 -17 19 -19 -3 -3 -14
0 -25 7 -19 12 -25 11 -72 -16 -17 -10 -20 -15 -9 -15 9 0 22 7 29 15 16 20
49 16 64 -8 16 -25 -4 -51 -45 -57 -27 -4 -36 -1 -44 15 -23 44 -70 26 -81
-31 -7 -40 16 -84 46 -84 23 0 50 36 50 67 0 18 6 23 28 23 64 0 96 65 51 106
-17 15 -37 19 -105 20 -59 0 -88 -4 -96 -13z"/>
<path fill="#000000" stroke="none" d="M150 250 c0 -5 5 -10 10 -10 6 0 10 5
10 10 0 6 -4 10 -10 10 -5 0 -10 -4 -10 -10z"/>
<path fill="#000000" stroke="none" d="M63 140 c-53 -32 -69 -83 -35 -113 23
-21 56 -22 72 -2 19 23 5 46 -27 43 -42 -5 -43 30 -2 64 39 33 36 36 -8 8z"/>
<path fill="#ffffff" stroke="none" d="M79 57 c19 5 22 2 19 -13 -7 -41 -78
-24 -78 19 0 19 1 19 18 4 11 -10 26 -14 41 -10z"/>
</g>
</svg>
