<?xml version="1.0" standalone="no"?>
<!DOCTYPE svg PUBLIC "-//W3C//DTD SVG 20010904//EN"
 "http://www.w3.org/TR/2001/REC-SVG-20010904/DTD/svg10.dtd">
<svg version="1.0" xmlns="http://www.w3.org/2000/svg"
 width="32.000000pt" height="32.000000pt" viewBox="0 0 32.000000 32.000000"
 preserveAspectRatio="xMidYMid meet">
<metadata>
Created by potrace 1.16, written by Peter Selinger 2001-2019
</metadata>
<g transform="translate(0.000000,32.000000) scale(0.100000,-0.100000)"
fill="#000000" stroke="none">
<path fill="#000000" stroke="none" d="M83 298 c-15 -17 -15 -20 10 -46 30
-31 35 -52 12 -52 -9 0 -19 -8 -22 -17 -4 -10 -24 -34 -45 -54 -44 -42 -49
-75 -15 -107 29 -28 58 -28 83 -1 24 26 8 55 -30 52 -19 -1 -26 3 -26 16 0 42
63 50 73 10 7 -27 67 -27 74 0 3 11 13 21 24 24 11 3 19 14 19 26 0 12 6 21
14 21 7 0 25 9 40 21 34 27 34 68 0 100 -23 21 -35 24 -110 25 -70 0 -87 -3
-101 -18z"/>
<path fill="#ffffff" stroke="none" d="M149 301 c10 -7 4 -9 -20 -8 -41 2 -47
-21 -9 -40 16 -8 19 -13 9 -13 -9 0 -24 9 -34 20 -15 16 -15 22 -5 35 14 17
38 19 59 6z"/>
<path fill="#ffffff" stroke="none" d="M281 264 c10 -9 19 -21 19 -27 0 -5 -8
0 -17 11 -19 22 -48 29 -74 18 -24 -11 -102 -3 -106 10 -7 20 155 9 178 -12z"/>
<path fill="#ffffff" stroke="none" d="M275 229 c0 -21 -5 -24 -37 -27 -43 -4
-48 9 -21 42 10 12 11 15 3 9 -8 -7 -21 -13 -29 -13 -10 0 -6 6 9 13 36 19 75
7 75 -24z"/>
<path fill="#ffffff" stroke="none" d="M190 214 c0 -9 9 -18 20 -21 14 -4 20
-14 20 -33 0 -19 -6 -29 -20 -33 -11 -3 -20 -12 -20 -21 0 -11 -9 -16 -30 -16
-21 0 -30 5 -30 16 0 9 -9 18 -20 21 -14 4 -20 14 -20 33 0 19 6 29 20 33 11
3 20 12 20 21 0 11 9 16 30 16 21 0 30 -5 30 -16z"/>
<path fill="#ffffff" stroke="none" d="M30 49 c0 10 3 11 14 2 7 -6 20 -9 28
-6 9 4 18 0 21 -8 4 -10 -3 -12 -27 -9 -24 3 -28 1 -16 -7 8 -6 11 -11 6 -11
-14 0 -46 31 -46 44 0 6 5 4 10 -4 8 -12 10 -12 10 -1z"/>
<path fill="#000000" stroke="none" d="M123 194 c-13 -14 -23 -29 -23 -34 0
-12 48 -60 60 -60 12 0 60 48 60 60 0 14 -49 60 -63 59 -7 -1 -22 -12 -34 -25z"/>
<path fill="#ffffff" stroke="none" d="M178 178 c7 -7 12 -16 12 -22 0 -5 -3
-6 -7 -3 -3 4 -12 2 -20 -5 -21 -17 -41 6 -23 27 15 18 22 19 38 3z"/>
</g>
</svg>
