<?xml version="1.0" standalone="no"?>
<!DOCTYPE svg PUBLIC "-//W3C//DTD SVG 20010904//EN"
 "http://www.w3.org/TR/2001/REC-SVG-20010904/DTD/svg10.dtd">
<svg version="1.0" xmlns="http://www.w3.org/2000/svg"
 width="32.000000pt" height="32.000000pt" viewBox="0 0 32.000000 32.000000"
 preserveAspectRatio="xMidYMid meet">
<metadata>
Created by potrace 1.16, written by Peter Selinger 2001-2019
</metadata>
<g transform="translate(0.000000,32.000000) scale(0.100000,-0.100000)"
fill="#000000" stroke="none">
<path fill="#000000" stroke="none" d="M0 160 l0 -160 160 0 160 0 0 160 0
160 -160 0 -160 0 0 -160z"/>
<path fill="#ffffff" stroke="none" d="M204 297 c-8 -4 -35 -7 -62 -5 -36 2
-47 0 -47 -12 0 -21 47 -43 57 -27 6 9 10 9 16 1 8 -13 46 -2 57 15 9 16 36
13 57 -6 22 -20 23 -46 1 -64 -15 -13 -15 -12 -2 9 25 41 -30 84 -61 47 -7 -8
-19 -15 -26 -15 -18 0 -17 -4 1 -40 13 -26 13 -32 -8 -79 -12 -28 -24 -51 -27
-51 -3 0 -15 23 -27 51 -21 47 -21 53 -8 79 18 36 19 40 2 40 -8 0 -22 9 -32
20 -28 31 -6 47 64 46 36 -1 54 -4 45 -9z"/>
<path fill="#ffffff" stroke="none" d="M27 90 c-14 -38 -1 -64 37 -68 30 -4
48 24 25 39 -10 6 -11 9 -1 9 19 0 26 -28 12 -45 -16 -20 -49 -19 -72 2 -20
18 -23 45 -8 74 16 29 20 23 7 -11z"/>
<path fill="#000000" stroke="none" d="M145 190 c-7 -23 2 -60 15 -60 5 0 12
9 15 20 7 23 -2 60 -15 60 -5 0 -12 -9 -15 -20z"/>
</g>
</svg>
