<?xml version="1.0" standalone="no"?>
<!DOCTYPE svg PUBLIC "-//W3C//DTD SVG 20010904//EN"
 "http://www.w3.org/TR/2001/REC-SVG-20010904/DTD/svg10.dtd">
<svg version="1.0" xmlns="http://www.w3.org/2000/svg"
 width="32.000000pt" height="32.000000pt" viewBox="0 0 32.000000 32.000000"
 preserveAspectRatio="xMidYMid meet">
<metadata>
Created by potrace 1.16, written by Peter Selinger 2001-2019
</metadata>
<g transform="translate(0.000000,32.000000) scale(0.100000,-0.100000)"
fill="#000000" stroke="none">
<path fill="#000000" stroke="none" d="M89 294 c-11 -13 -8 -20 19 -45 18 -17
32 -26 32 -22 0 5 14 10 32 11 18 2 39 9 48 16 8 7 22 16 30 19 13 5 12 6 -1
6 -9 1 -22 -6 -29 -14 -17 -20 -103 -20 -120 0 -10 12 -10 18 0 30 7 8 10 15
7 15 -2 0 -10 -7 -18 -16z"/>
<path fill="#000000" stroke="none" d="M133 160 c0 -30 2 -43 4 -28 2 16 2 40
0 56 -2 15 -4 2 -4 -28z"/>
<path fill="#000000" stroke="none" d="M131 84 c0 -11 3 -14 6 -6 3 7 2 16 -1
19 -3 4 -6 -2 -5 -13z"/>
<path fill="#000000" stroke="none" d="M158 73 c6 -2 18 -2 25 0 6 3 1 5 -13
5 -14 0 -19 -2 -12 -5z"/>
</g>
</svg>
