<?xml version="1.0" standalone="no"?>
<!DOCTYPE svg PUBLIC "-//W3C//DTD SVG 20010904//EN"
 "http://www.w3.org/TR/2001/REC-SVG-20010904/DTD/svg10.dtd">
<svg version="1.0" xmlns="http://www.w3.org/2000/svg"
 width="32.000000pt" height="32.000000pt" viewBox="0 0 32.000000 32.000000"
 preserveAspectRatio="xMidYMid meet">
<metadata>
Created by potrace 1.16, written by Peter Selinger 2001-2019
</metadata>
<g transform="translate(0.000000,32.000000) scale(0.100000,-0.100000)"
fill="#000000" stroke="none">
<path fill="#000000" stroke="none" d="M0 160 l0 -160 160 0 160 0 0 160 0
160 -160 0 -160 0 0 -160z"/>
<path fill="#ffffff" stroke="none" d="M203 296 c-8 -4 -34 -5 -58 -2 -47 8
-65 -5 -45 -29 17 -20 103 -20 120 0 16 20 39 19 62 -2 22 -20 23 -46 1 -64
-15 -13 -15 -12 -2 9 28 44 -20 78 -65 45 -23 -17 -25 -24 -26 -100 l0 -83
-30 0 -30 0 0 80 c0 76 -2 83 -27 104 -40 35 -20 54 56 52 38 -1 54 -4 44 -10z"/>
<path fill="#ffffff" stroke="none" d="M27 90 c-14 -38 -1 -64 37 -68 30 -4
48 24 25 39 -10 6 -11 9 -1 9 19 0 26 -28 12 -45 -16 -20 -49 -19 -72 2 -20
18 -23 45 -8 74 16 29 20 23 7 -11z"/>
<path fill="#000000" stroke="none" d="M160 230 c-13 -8 -12 -10 3 -10 9 0 17
5 17 10 0 12 -1 12 -20 0z"/>
<path fill="#000000" stroke="none" d="M165 198 c-11 -36 -10 -88 2 -88 9 0
13 16 13 50 0 48 -6 64 -15 38z"/>
<path fill="#000000" stroke="none" d="M160 90 c-13 -8 -12 -10 3 -10 9 0 17
5 17 10 0 12 -1 12 -20 0z"/>
</g>
</svg>
