<?xml version="1.0" standalone="no"?>
<!DOCTYPE svg PUBLIC "-//W3C//DTD SVG 20010904//EN"
 "http://www.w3.org/TR/2001/REC-SVG-20010904/DTD/svg10.dtd">
<svg version="1.0" xmlns="http://www.w3.org/2000/svg"
 width="32.000000pt" height="32.000000pt" viewBox="0 0 32.000000 32.000000"
 preserveAspectRatio="xMidYMid meet">
<metadata>
Created by potrace 1.16, written by Peter Selinger 2001-2019
</metadata>
<g transform="translate(0.000000,32.000000) scale(0.100000,-0.100000)"
fill="#000000" stroke="none">
<path fill="#000000" stroke="none" d="M0 160 l0 -160 160 0 160 0 0 160 0
160 -160 0 -160 0 0 -160z"/>
<path fill="#ffffff" stroke="none" d="M203 296 c-8 -4 -34 -5 -58 -2 -49 8
-67 -6 -41 -32 22 -22 89 -21 113 1 24 21 41 22 65 0 22 -20 23 -46 1 -64 -15
-13 -15 -12 -2 9 28 45 -25 81 -65 43 -12 -12 -27 -18 -31 -14 -5 5 -3 0 4 -9
9 -12 10 -18 2 -18 -6 0 -11 -6 -11 -12 1 -7 11 0 24 16 17 20 26 25 31 16 5
-9 4 -11 -3 -6 -7 4 -12 3 -12 -3 0 -5 6 -11 13 -14 6 -2 4 -3 -5 -2 -9 2 -19
-4 -22 -12 -4 -9 -2 -11 5 -7 11 6 10 -36 -2 -75 -2 -7 2 -16 10 -19 10 -3 12
0 7 14 -6 15 -5 17 5 7 10 -10 10 -16 1 -25 -9 -9 -15 -9 -23 -1 -9 9 -16 9
-30 0 -15 -9 -23 -9 -38 0 -14 9 -21 9 -30 0 -8 -8 -14 -8 -23 1 -9 9 -9 15 1
25 10 10 11 8 5 -7 -5 -14 -3 -17 7 -14 8 3 13 11 11 18 -2 7 3 17 10 23 9 6
8 7 -4 3 -27 -8 -23 44 4 80 13 15 18 25 12 21 -6 -3 -21 5 -34 18 -34 36 -15
52 59 51 38 -1 54 -4 44 -10z"/>
<path fill="#ffffff" stroke="none" d="M106 211 c-4 -6 -15 -10 -24 -10 -15 1
-15 2 1 6 9 2 17 9 17 14 0 6 -5 7 -12 3 -7 -5 -8 -3 -3 5 5 9 11 9 17 3 6 -6
7 -15 4 -21z"/>
<path fill="#ffffff" stroke="none" d="M27 90 c-14 -38 -1 -64 37 -68 30 -4
48 24 25 39 -10 6 -11 9 -1 9 19 0 26 -28 12 -45 -16 -20 -49 -19 -72 2 -20
18 -23 45 -8 74 16 29 20 23 7 -11z"/>
<path fill="#000000" stroke="none" d="M189 134 c-7 -9 -14 -23 -15 -31 -2
-11 1 -12 12 -2 8 6 12 14 9 17 -3 3 0 11 6 19 6 7 9 13 6 13 -2 0 -11 -7 -18
-16z"/>
<path fill="#000000" stroke="none" d="M130 110 c0 -6 4 -9 9 -6 5 4 12 1 14
-4 3 -6 4 -5 3 2 -3 15 -26 23 -26 8z"/>
</g>
</svg>
