<?xml version="1.0" standalone="no"?>
<!DOCTYPE svg PUBLIC "-//W3C//DTD SVG 20010904//EN"
 "http://www.w3.org/TR/2001/REC-SVG-20010904/DTD/svg10.dtd">
<svg version="1.0" xmlns="http://www.w3.org/2000/svg"
 width="32.000000pt" height="32.000000pt" viewBox="0 0 32.000000 32.000000"
 preserveAspectRatio="xMidYMid meet">
<metadata>
Created by potrace 1.16, written by Peter Selinger 2001-2019
</metadata>
<g transform="translate(0.000000,32.000000) scale(0.100000,-0.100000)"
fill="#000000" stroke="none">
<path fill="#000000" stroke="none" d="M92 298 c-18 -18 -15 -42 7 -62 18 -16
18 -19 3 -46 -13 -23 -14 -33 -4 -54 26 -57 98 -57 124 0 10 21 9 31 -4 54
-15 27 -15 29 13 59 15 17 24 31 19 31 -5 0 -18 -13 -29 -28 -16 -23 -27 -28
-59 -27 -61 1 -93 40 -60 73 7 7 10 12 7 12 -3 0 -10 -5 -17 -12z"/>
<path fill="#ffffff" stroke="none" d="M200 200 c25 -25 25 -55 0 -80 -11 -11
-29 -20 -40 -20 -26 0 -60 34 -60 60 0 26 34 60 60 60 11 0 29 -9 40 -20z"/>
<path fill="#000000" stroke="none" d="M126 194 c-31 -30 -9 -84 34 -84 24 0
50 26 50 50 0 24 -26 50 -50 50 -10 0 -26 -7 -34 -16z"/>
<path fill="#ffffff" stroke="none" d="M176 185 c-3 -9 0 -15 9 -15 8 0 15 -4
15 -10 0 -5 -7 -10 -15 -10 -9 0 -12 -6 -9 -15 4 -11 0 -15 -16 -15 -16 0 -20
4 -16 15 3 9 0 15 -9 15 -8 0 -15 5 -15 10 0 6 7 10 15 10 9 0 12 6 9 15 -4
11 0 15 16 15 16 0 20 -4 16 -15z"/>
</g>
</svg>
