<?xml version="1.0" standalone="no"?>
<!DOCTYPE svg PUBLIC "-//W3C//DTD SVG 20010904//EN"
 "http://www.w3.org/TR/2001/REC-SVG-20010904/DTD/svg10.dtd">
<svg version="1.0" xmlns="http://www.w3.org/2000/svg"
 width="32.000000pt" height="32.000000pt" viewBox="0 0 32.000000 32.000000"
 preserveAspectRatio="xMidYMid meet">
<metadata>
Created by potrace 1.16, written by Peter Selinger 2001-2019
</metadata>
<g transform="translate(0.000000,32.000000) scale(0.100000,-0.100000)"
fill="#000000" stroke="none">
<path fill="#000000" stroke="none" d="M0 160 l0 -160 160 0 160 0 0 160 0
160 -160 0 -160 0 0 -160z"/>
<path fill="#ffffff" stroke="none" d="M150 300 c11 -7 6 -8 -16 -4 -37 7 -54
-11 -31 -33 21 -21 92 -21 115 0 10 10 25 17 32 17 17 0 50 -29 50 -44 0 -6
-7 0 -16 12 -18 25 -46 29 -64 7 -7 -8 -18 -15 -25 -15 -13 0 -25 -21 -25 -43
0 -8 4 -7 12 1 15 15 31 16 22 0 -4 -6 1 -17 10 -24 12 -8 14 -14 6 -19 -6 -4
-21 1 -32 12 -20 18 -20 18 -13 -34 6 -50 6 -53 -15 -53 -21 0 -22 3 -16 52 7
52 7 52 -13 34 -11 -10 -25 -15 -31 -11 -8 5 -6 11 6 19 9 7 14 18 10 24 -9
16 7 15 22 0 8 -8 12 -9 12 -1 0 22 -12 43 -25 43 -6 0 -20 9 -30 20 -15 16
-15 22 -5 35 14 17 38 19 60 5z"/>
<path fill="#ffffff" stroke="none" d="M53 11 c-4 -6 -43 30 -43 40 0 5 10 -2
23 -14 13 -12 22 -24 20 -26z"/>
</g>
</svg>
