<?xml version="1.0" standalone="no"?>
<!DOCTYPE svg PUBLIC "-//W3C//DTD SVG 20010904//EN"
 "http://www.w3.org/TR/2001/REC-SVG-20010904/DTD/svg10.dtd">
<svg version="1.0" xmlns="http://www.w3.org/2000/svg"
 width="32.000000pt" height="32.000000pt" viewBox="0 0 32.000000 32.000000"
 preserveAspectRatio="xMidYMid meet">
<metadata>
Created by potrace 1.16, written by Peter Selinger 2001-2019
</metadata>
<g transform="translate(0.000000,32.000000) scale(0.100000,-0.100000)"
fill="#000000" stroke="none">
<path fill="#000000" stroke="none" d="M0 160 l0 -160 160 0 160 0 0 160 0
160 -160 0 -160 0 0 -160z"/>
<path fill="#ffffff" stroke="none" d="M63 303 c-7 -2 -19 -2 -25 0 -7 3 -2 5
12 5 14 0 19 -2 13 -5z"/>
<path fill="#ffffff" stroke="none" d="M287 304 c-3 -3 -12 -4 -19 -1 -8 3 -5
6 6 6 11 1 17 -2 13 -5z"/>
<path fill="#ffffff" stroke="none" d="M250 293 c0 -5 -5 -15 -10 -23 -8 -12
-10 -11 -10 8 0 12 5 22 10 22 6 0 10 -3 10 -7z"/>
<path fill="#ffffff" stroke="none" d="M176 278 c5 -7 2 -9 -7 -4 -8 4 -5 0 5
-8 11 -9 15 -16 8 -16 -6 0 -9 -6 -6 -14 3 -8 -1 -18 -8 -22 -16 -11 -42 -15
-33 -6 4 4 12 7 18 7 7 0 13 11 13 24 1 23 0 23 -12 7 -7 -11 -18 -15 -25 -10
-8 4 -10 3 -5 -4 11 -18 -39 -15 -54 3 -15 18 -15 17 25 38 36 19 71 21 81 5z"/>
<path fill="#ffffff" stroke="none" d="M280 135 c0 -8 -4 -15 -10 -15 -5 0
-10 7 -10 15 0 8 -9 24 -20 35 -11 11 -20 26 -20 33 1 17 60 -50 60 -68z"/>
<path fill="#ffffff" stroke="none" d="M100 185 c0 -8 -6 -15 -14 -15 -7 0
-19 -7 -26 -15 -16 -20 -40 -19 -40 1 0 10 6 13 18 10 12 -4 26 1 37 14 22 24
25 25 25 5z"/>
<path fill="#ffffff" stroke="none" d="M123 71 c17 -34 6 -61 -26 -61 l-22 0
24 19 c16 12 20 21 12 25 -10 7 -16 46 -7 46 3 0 11 -13 19 -29z"/>
<path fill="#ffffff" stroke="none" d="M195 69 c-3 -3 4 -14 15 -24 23 -21 18
-35 -13 -34 -12 0 -16 3 -9 6 16 6 15 23 -4 44 -9 10 -13 23 -9 29 6 9 10 9
16 -1 4 -7 6 -16 4 -20z"/>
</g>
</svg>
