<?xml version="1.0" standalone="no"?>
<!DOCTYPE svg PUBLIC "-//W3C//DTD SVG 20010904//EN"
 "http://www.w3.org/TR/2001/REC-SVG-20010904/DTD/svg10.dtd">
<svg version="1.0" xmlns="http://www.w3.org/2000/svg"
 width="32.000000pt" height="32.000000pt" viewBox="0 0 32.000000 32.000000"
 preserveAspectRatio="xMidYMid meet">
<metadata>
Created by potrace 1.16, written by Peter Selinger 2001-2019
</metadata>
<g transform="translate(0.000000,32.000000) scale(0.100000,-0.100000)"
fill="#000000" stroke="none">
<path fill="#000000" stroke="none" d="M34 303 c4 -5 12 -9 17 -9 5 -1 10 -2
12 -4 1 -1 10 -3 20 -5 25 -5 21 12 -5 19 -32 8 -53 7 -44 -1z"/>
<path fill="#000000" stroke="none" d="M115 281 c-36 -15 -54 -29 -51 -37 3
-7 1 -16 -4 -19 -6 -4 -10 -11 -10 -17 0 -5 9 0 21 13 11 13 18 18 14 12 -4
-8 1 -13 13 -13 11 0 26 -8 33 -17 12 -16 12 -17 -1 -7 -16 12 -52 15 -45 4 8
-13 -32 -41 -49 -34 -11 4 -16 1 -16 -10 0 -21 43 -21 60 -1 32 38 56 5 32
-44 -12 -26 -13 -37 -4 -51 9 -15 7 -21 -11 -34 l-22 -15 28 0 c28 -1 30 3 31
53 1 41 17 41 42 1 16 -24 19 -36 11 -44 -8 -8 -4 -11 16 -11 33 0 34 9 4 63
-29 53 -31 84 -7 97 15 8 23 4 45 -21 14 -17 28 -29 31 -26 12 12 -9 47 -49
83 -44 40 -50 59 -30 84 19 24 -15 20 -82 -9z"/>
<path fill="#ffffff" stroke="none" d="M190 216 c0 -2 -8 -10 -17 -17 -16 -13
-17 -12 -4 4 13 16 21 21 21 13z"/>
<path fill="#000000" stroke="none" d="M249 303 c-9 -2 -19 -17 -21 -33 -2
-16 -1 -27 3 -24 4 2 9 -1 12 -8 2 -7 2 -2 0 12 l-3 25 14 -25 c8 -14 12 -28
10 -31 -2 -4 4 -13 13 -20 14 -12 16 -12 11 1 -2 8 1 21 9 28 10 10 10 18 2
33 -7 15 -7 24 2 35 9 11 7 14 -12 13 -13 -1 -31 -3 -40 -6z"/>
<path fill="#000000" stroke="none" d="M259 73 c-13 -15 -12 -15 9 -4 23 12
28 21 13 21 -5 0 -15 -7 -22 -17z"/>
</g>
</svg>
