<?xml version="1.0" standalone="no"?>
<!DOCTYPE svg PUBLIC "-//W3C//DTD SVG 20010904//EN"
 "http://www.w3.org/TR/2001/REC-SVG-20010904/DTD/svg10.dtd">
<svg version="1.0" xmlns="http://www.w3.org/2000/svg"
 width="32.000000pt" height="32.000000pt" viewBox="0 0 32.000000 32.000000"
 preserveAspectRatio="xMidYMid meet">
<metadata>
Created by potrace 1.16, written by Peter Selinger 2001-2019
</metadata>
<g transform="translate(0.000000,32.000000) scale(0.100000,-0.100000)"
fill="#000000" stroke="none">
<path fill="#000000" stroke="none" d="M50 223 c-17 -27 -30 -30 -30 -7 0 8
-5 12 -10 9 -6 -3 -10 -24 -10 -47 0 -31 6 -46 29 -67 28 -26 30 -27 51 -11
16 12 20 23 15 38 -3 12 -2 22 3 22 6 0 8 10 6 23 l-5 22 12 -22 c7 -13 16
-23 21 -23 4 0 8 -7 8 -15 0 -8 5 -15 10 -15 6 0 10 5 10 10 0 6 12 21 27 34
17 15 24 29 20 40 -6 14 -11 12 -35 -14 l-29 -30 -13 25 c-12 23 -15 24 -30
10 -23 -21 -28 -19 -32 13 l-3 27 -15 -22z"/>
<path fill="#ffffff" stroke="none" d="M45 170 c3 -5 1 -10 -6 -10 -8 0 -8 -4
1 -15 10 -12 10 -15 -3 -15 -20 0 -30 16 -23 35 6 17 22 20 31 5z"/>
<path fill="#000000" stroke="none" d="M302 225 c2 -10 -3 -20 -9 -22 -7 -3
-13 0 -13 6 0 6 -4 11 -10 11 -5 0 -7 -6 -4 -14 6 -15 -12 -56 -29 -68 -16
-10 8 -35 39 -41 13 -2 22 -2 19 1 -3 3 3 14 12 25 11 13 12 17 4 12 -11 -6
-13 -4 -7 11 14 34 16 83 5 89 -6 4 -9 0 -7 -10z"/>
<path fill="#000000" stroke="none" d="M226 202 c2 -3 -1 -11 -7 -18 -6 -7 -6
-14 -1 -18 13 -8 25 25 14 34 -5 4 -7 5 -6 2z"/>
<path fill="#000000" stroke="none" d="M124 93 c23 -28 28 -28 57 -2 l24 20
-28 -17 c-26 -16 -29 -16 -50 2 l-22 19 19 -22z"/>
<path fill="#000000" stroke="none" d="M118 33 c7 -3 16 -2 19 1 4 3 -2 6 -13
5 -11 0 -14 -3 -6 -6z"/>
<path fill="#000000" stroke="none" d="M208 33 c7 -3 16 -2 19 1 4 3 -2 6 -13
5 -11 0 -14 -3 -6 -6z"/>
</g>
</svg>
