<?xml version="1.0" standalone="no"?>
<!DOCTYPE svg PUBLIC "-//W3C//DTD SVG 20010904//EN"
 "http://www.w3.org/TR/2001/REC-SVG-20010904/DTD/svg10.dtd">
<svg version="1.0" xmlns="http://www.w3.org/2000/svg"
 width="32.000000pt" height="32.000000pt" viewBox="0 0 32.000000 32.000000"
 preserveAspectRatio="xMidYMid meet">
<metadata>
Created by potrace 1.16, written by Peter Selinger 2001-2019
</metadata>
<g transform="translate(0.000000,32.000000) scale(0.100000,-0.100000)"
fill="#000000" stroke="none">
<path fill="#000000" stroke="none" d="M0 160 l0 -160 160 0 160 0 0 160 0
160 -160 0 -160 0 0 -160z"/>
<path fill="#ffffff" stroke="none" d="M78 304 c12 -4 22 -11 22 -16 0 -5 -4
-6 -10 -3 -5 3 -10 1 -10 -6 0 -9 -4 -7 -12 3 -7 9 -20 18 -28 21 -13 5 -13 5
0 6 8 0 25 -2 38 -5z"/>
<path fill="#ffffff" stroke="none" d="M197 295 c-17 -12 -15 -59 5 -82 8 -10
8 -14 1 -10 -7 4 -14 -1 -18 -13 -3 -11 -11 -20 -16 -20 -14 0 -11 11 9 34 17
21 17 21 -5 2 -21 -18 -24 -18 -41 -3 -10 10 -26 17 -34 17 -16 0 -44 27 -37
35 15 14 95 42 107 37 8 -3 13 -1 9 4 -3 5 3 10 14 10 17 0 18 -2 6 -11z"/>
<path fill="#ffffff" stroke="none" d="M290 303 c-31 -5 -51 -30 -46 -57 2
-12 1 -15 -1 -8 -3 7 -8 10 -12 8 -4 -3 -5 8 -3 24 4 30 18 38 62 37 l25 0
-25 -4z"/>
<path fill="#ffffff" stroke="none" d="M297 264 c11 -18 11 -21 -2 -21 -8 0
-13 3 -10 5 3 3 -3 14 -12 25 -13 14 -14 19 -4 15 8 -2 20 -13 28 -24z"/>
<path fill="#ffffff" stroke="none" d="M278 252 c0 -4 0 -9 2 -12 1 -3 3 -16
5 -30 4 -21 1 -19 -15 10 -23 43 -24 51 -5 44 8 -3 14 -9 13 -12z"/>
<path fill="#ffffff" stroke="none" d="M140 179 c0 -18 -18 -9 -23 12 -4 16
-3 18 9 8 8 -6 14 -15 14 -20z"/>
<path fill="#ffffff" stroke="none" d="M280 135 c0 -8 -4 -15 -10 -15 -5 0
-10 6 -10 13 0 13 -40 43 -53 39 -4 -1 -2 7 5 18 13 20 14 20 41 -10 15 -17
27 -37 27 -45z"/>
<path fill="#ffffff" stroke="none" d="M89 158 c-27 -23 -69 -24 -69 -2 0 10
6 13 18 10 12 -4 26 1 37 14 14 16 20 17 27 8 5 -8 0 -19 -13 -30z"/>
<path fill="#ffffff" stroke="none" d="M131 66 c11 -39 1 -56 -30 -56 l-26 0
24 19 c16 12 20 21 12 25 -15 10 -14 49 1 44 7 -3 15 -17 19 -32z"/>
<path fill="#ffffff" stroke="none" d="M203 79 c3 -12 10 -18 17 -14 8 5 7 11
-2 23 -9 12 -6 11 10 -2 17 -15 25 -17 34 -8 20 20 32 13 14 -7 -10 -11 -26
-18 -37 -16 -16 3 -18 0 -13 -21 5 -21 3 -24 -22 -24 -22 0 -25 3 -16 12 9 9
8 16 -4 29 -16 18 -13 49 5 49 5 0 11 -9 14 -21z"/>
</g>
</svg>
