<?xml version="1.0" standalone="no"?>
<!DOCTYPE svg PUBLIC "-//W3C//DTD SVG 20010904//EN"
 "http://www.w3.org/TR/2001/REC-SVG-20010904/DTD/svg10.dtd">
<svg version="1.0" xmlns="http://www.w3.org/2000/svg"
 width="32.000000pt" height="32.000000pt" viewBox="0 0 32.000000 32.000000"
 preserveAspectRatio="xMidYMid meet">
<metadata>
Created by potrace 1.16, written by Peter Selinger 2001-2019
</metadata>
<g transform="translate(0.000000,32.000000) scale(0.100000,-0.100000)"
fill="#000000" stroke="none">
<path fill="#000000" stroke="none" d="M35 300 c3 -5 13 -10 22 -10 13 0 12
-5 -8 -27 -13 -15 -17 -22 -8 -15 14 10 18 10 22 -2 4 -9 2 -18 -3 -21 -6 -4
-10 -11 -10 -17 0 -5 9 0 21 13 11 13 18 18 14 12 -4 -8 0 -13 9 -13 9 0 15
-3 14 -7 -1 -5 1 -18 5 -29 6 -16 15 -21 36 -20 50 2 77 40 48 65 -16 13 -16
44 1 63 8 11 7 14 -8 14 -10 0 -16 -5 -13 -10 4 -5 -1 -7 -9 -4 -8 4 -34 -2
-58 -13 -24 -11 -45 -17 -47 -15 -3 2 5 7 16 11 27 8 27 21 -1 29 -34 9 -50 7
-43 -4z"/>
<path fill="#ffffff" stroke="none" d="M190 216 c0 -2 -8 -10 -17 -17 -16 -13
-17 -12 -4 4 13 16 21 21 21 13z"/>
<path fill="#000000" stroke="none" d="M248 303 c-10 -2 -18 -13 -18 -23 0
-10 -3 -26 -7 -36 -4 -12 -3 -15 5 -10 8 5 12 0 12 -14 0 -12 -4 -19 -8 -16
-4 2 -14 -4 -21 -16 -7 -11 -8 -17 -3 -14 6 3 22 -7 35 -24 14 -16 28 -30 31
-30 13 0 5 29 -13 52 -13 16 -16 29 -11 38 5 8 6 19 3 25 -4 5 -2 6 3 2 5 -5
9 -12 9 -15 0 -4 4 -13 9 -21 13 -21 36 38 24 62 -6 12 -5 23 3 33 9 11 7 14
-12 13 -13 -1 -32 -3 -41 -6z"/>
<path fill="#000000" stroke="none" d="M84 204 c8 -17 -28 -46 -48 -38 -11 4
-16 1 -16 -10 0 -22 42 -21 69 2 20 16 21 18 6 37 -9 11 -14 15 -11 9z"/>
<path fill="#000000" stroke="none" d="M133 144 c-9 -23 13 -40 32 -24 12 10
13 16 4 26 -15 18 -28 18 -36 -2z"/>
<path fill="#000000" stroke="none" d="M195 111 c6 -10 2 -11 -15 -6 -19 6
-21 4 -15 -17 4 -12 14 -30 21 -39 11 -12 11 -18 2 -27 -9 -9 -6 -12 15 -12
30 0 35 16 12 46 -8 10 -15 23 -15 29 0 5 7 -1 16 -13 19 -27 36 -28 59 -2 19
21 7 28 -13 8 -9 -9 -19 -5 -43 18 -18 16 -29 23 -24 15z"/>
<path fill="#000000" stroke="none" d="M113 103 c-16 -6 -17 -39 -2 -49 8 -4
4 -13 -12 -25 l-24 -19 27 0 c29 0 37 16 34 62 -3 32 -6 37 -23 31z"/>
</g>
</svg>
