<?xml version="1.0" standalone="no"?>
<!DOCTYPE svg PUBLIC "-//W3C//DTD SVG 20010904//EN"
 "http://www.w3.org/TR/2001/REC-SVG-20010904/DTD/svg10.dtd">
<svg version="1.0" xmlns="http://www.w3.org/2000/svg"
 width="32.000000pt" height="32.000000pt" viewBox="0 0 32.000000 32.000000"
 preserveAspectRatio="xMidYMid meet">
<metadata>
Created by potrace 1.16, written by Peter Selinger 2001-2019
</metadata>
<g transform="translate(0.000000,32.000000) scale(0.100000,-0.100000)"
fill="#000000" stroke="none">
<path fill="#000000" stroke="none" d="M40 296 c8 -10 8 -20 2 -32 -14 -26 19
-81 41 -67 4 2 3 11 -3 18 -8 10 -8 15 1 21 8 4 9 3 5 -4 -5 -8 0 -12 14 -12
18 0 16 -4 -14 -30 -21 -19 -40 -28 -50 -24 -11 4 -16 1 -16 -10 0 -21 38 -21
67 -1 30 21 39 3 23 -46 -10 -31 -11 -42 -1 -52 9 -9 6 -15 -11 -29 l-23 -18
27 0 c27 0 46 29 33 50 -3 5 -2 17 3 26 7 13 13 10 35 -19 19 -26 23 -37 14
-46 -8 -8 -4 -11 16 -11 30 0 35 16 12 46 -8 10 -15 23 -15 29 0 5 7 -1 16
-13 19 -27 36 -28 59 -2 19 21 7 28 -13 8 -9 -9 -19 -5 -42 17 -33 31 -38 56
-16 74 11 9 19 5 40 -20 28 -33 42 -34 32 -2 -8 23 -58 78 -78 85 -17 7 -17
40 0 61 10 12 8 14 -12 12 -32 -4 -118 -43 -128 -58 -6 -9 -8 -9 -8 1 0 7 11
18 25 24 31 14 32 24 3 32 -40 10 -52 8 -38 -8z"/>
<path fill="#000000" stroke="none" d="M249 303 c-40 -10 -22 -118 19 -111 23
4 42 48 30 71 -6 12 -5 23 3 33 9 11 7 14 -12 13 -13 -1 -31 -3 -40 -6z"/>
</g>
</svg>
