<?xml version="1.0" standalone="no"?>
<!DOCTYPE svg PUBLIC "-//W3C//DTD SVG 20010904//EN"
 "http://www.w3.org/TR/2001/REC-SVG-20010904/DTD/svg10.dtd">
<svg version="1.0" xmlns="http://www.w3.org/2000/svg"
 width="32.000000pt" height="32.000000pt" viewBox="0 0 32.000000 32.000000"
 preserveAspectRatio="xMidYMid meet">
<metadata>
Created by potrace 1.16, written by Peter Selinger 2001-2019
</metadata>
<g transform="translate(0.000000,32.000000) scale(0.100000,-0.100000)"
fill="#000000" stroke="none">
<path fill="#000000" stroke="none" d="M176 298 c2 -4 -4 -6 -15 -5 -26 2
-102 -34 -98 -46 4 -14 37 -18 34 -4 -1 7 9 11 25 10 20 -1 25 2 21 13 -8 20
24 18 37 -3 7 -12 10 -13 7 -3 -2 8 2 22 9 30 11 13 10 16 -6 16 -10 0 -17 -4
-14 -8z"/>
<path fill="#000000" stroke="none" d="M177 202 c-19 -21 -22 -32 -8 -32 5 0
13 9 16 20 4 11 11 17 17 14 7 -4 8 -2 4 4 -9 15 -10 15 -29 -6z"/>
<path fill="#000000" stroke="none" d="M117 191 c3 -12 9 -21 14 -21 14 0 11
16 -5 29 -12 10 -13 8 -9 -8z"/>
<path fill="#000000" stroke="none" d="M230 196 c0 -2 8 -10 18 -17 15 -13 16
-12 3 4 -13 16 -21 21 -21 13z"/>
<path fill="#000000" stroke="none" d="M69 173 c-13 -16 -12 -17 4 -4 9 7 17
15 17 17 0 8 -8 3 -21 -13z"/>
<path fill="#000000" stroke="none" d="M106 77 c3 -10 9 -15 12 -12 3 3 0 11
-7 18 -10 9 -11 8 -5 -6z"/>
<path fill="#000000" stroke="none" d="M176 81 c-4 -5 -2 -12 3 -15 5 -4 12
-2 15 3 4 5 2 12 -3 15 -5 4 -12 2 -15 -3z"/>
<path fill="#000000" stroke="none" d="M90 20 c-9 -6 -10 -10 -3 -10 6 0 15 5
18 10 8 12 4 12 -15 0z"/>
</g>
</svg>
