<?xml version="1.0" standalone="no"?>
<!DOCTYPE svg PUBLIC "-//W3C//DTD SVG 20010904//EN"
 "http://www.w3.org/TR/2001/REC-SVG-20010904/DTD/svg10.dtd">
<svg version="1.0" xmlns="http://www.w3.org/2000/svg"
 width="32.000000pt" height="32.000000pt" viewBox="0 0 32.000000 32.000000"
 preserveAspectRatio="xMidYMid meet">
<metadata>
Created by potrace 1.16, written by Peter Selinger 2001-2019
</metadata>
<g transform="translate(0.000000,32.000000) scale(0.100000,-0.100000)"
fill="#000000" stroke="none">
<path fill="#000000" stroke="none" d="M239 235 c-1 -6 -2 -14 -3 -20 0 -5 -7
-20 -14 -32 -17 -31 -1 -29 28 2 22 24 23 26 7 42 -9 10 -18 13 -18 8z"/>
<path fill="#000000" stroke="none" d="M197 192 c-19 -21 -22 -38 -7 -47 6 -3
7 1 4 10 -4 9 2 25 11 35 10 11 16 20 13 20 -3 0 -12 -8 -21 -18z"/>
<path fill="#000000" stroke="none" d="M117 174 c12 -16 30 -38 42 -48 12 -11
21 -22 21 -26 0 -17 -34 -20 -50 -5 -16 14 -18 14 -23 0 -4 -9 3 -21 18 -31
23 -15 27 -15 50 0 29 19 28 31 -2 66 -13 13 -23 28 -23 31 0 4 -12 15 -27 24
l-26 18 20 -29z"/>
<path fill="#ffffff" stroke="none" d="M173 80 c21 11 21 10 3 -4 -11 -9 -23
-16 -26 -16 -3 0 -15 7 -26 16 -18 14 -18 15 4 4 16 -8 28 -8 45 0z"/>
<path fill="#000000" stroke="none" d="M235 160 l-29 -30 29 -30 c33 -35 46
-37 68 -12 27 29 21 49 -6 24 l-24 -22 -18 20 c-17 19 -18 22 -2 37 13 13 20
14 29 5 9 -9 9 -15 -1 -24 -11 -11 -13 -10 -8 5 4 9 2 17 -3 17 -16 0 -22 -21
-9 -36 10 -13 15 -12 36 7 l23 23 -22 23 c-12 13 -24 23 -28 23 -3 0 -19 -13
-35 -30z"/>
<path fill="#000000" stroke="none" d="M131 123 c7 -12 15 -20 18 -17 3 2 -3
12 -13 22 -17 16 -18 16 -5 -5z"/>
</g>
</svg>
