<?xml version="1.0" standalone="no"?>
<!DOCTYPE svg PUBLIC "-//W3C//DTD SVG 20010904//EN"
 "http://www.w3.org/TR/2001/REC-SVG-20010904/DTD/svg10.dtd">
<svg version="1.0" xmlns="http://www.w3.org/2000/svg"
 width="32.000000pt" height="32.000000pt" viewBox="0 0 32.000000 32.000000"
 preserveAspectRatio="xMidYMid meet">
<metadata>
Created by potrace 1.16, written by Peter Selinger 2001-2019
</metadata>
<g transform="translate(0.000000,32.000000) scale(0.100000,-0.100000)"
fill="#000000" stroke="none">
<path fill="#000000" stroke="none" d="M0 160 l0 -160 160 0 160 0 0 160 0
160 -160 0 -160 0 0 -160z"/>
<path fill="#ffffff" stroke="none" d="M78 304 c29 -8 28 -18 -3 -32 -14 -6
-25 -17 -25 -24 0 -10 2 -10 8 -1 10 15 96 54 128 58 20 2 22 0 12 -12 -17
-21 -17 -54 0 -60 17 -7 32 13 32 43 0 22 23 34 64 34 15 0 16 -3 7 -14 -8
-10 -9 -21 -3 -33 11 -21 -6 -66 -27 -71 -7 -2 -23 5 -35 15 -11 10 -6 1 12
-20 29 -34 42 -67 26 -67 -3 0 -17 13 -30 30 -20 24 -29 28 -44 20 -19 -10
-24 -56 -7 -67 6 -4 7 -1 2 8 -4 8 6 1 24 -15 24 -23 34 -27 43 -18 20 20 32
13 13 -8 -23 -26 -40 -25 -59 2 -9 12 -16 18 -16 13 0 -6 7 -19 15 -29 23 -30
18 -46 -12 -46 -20 0 -24 3 -16 11 8 8 5 20 -11 44 -25 40 -41 40 -42 -1 -1
-50 -3 -54 -31 -53 l-28 0 22 15 c18 13 20 19 11 34 -9 14 -8 25 4 51 15 30
15 59 -1 59 -3 0 -15 -7 -25 -15 -26 -20 -66 -19 -66 1 0 10 6 13 18 10 12 -4
28 4 47 24 23 24 25 30 11 30 -10 0 -14 5 -10 12 4 7 3 8 -5 4 -9 -6 -9 -11
-1 -21 6 -7 7 -16 3 -18 -22 -14 -55 41 -41 67 6 12 6 22 -2 32 -14 16 -2 18
38 8z"/>
<path fill="#000000" stroke="none" d="M169 203 c-13 -16 -12 -17 4 -4 9 7 17
15 17 17 0 8 -8 3 -21 -13z"/>
</g>
</svg>
