<?xml version="1.0" standalone="no"?>
<!DOCTYPE svg PUBLIC "-//W3C//DTD SVG 20010904//EN"
 "http://www.w3.org/TR/2001/REC-SVG-20010904/DTD/svg10.dtd">
<svg version="1.0" xmlns="http://www.w3.org/2000/svg"
 width="32.000000pt" height="32.000000pt" viewBox="0 0 32.000000 32.000000"
 preserveAspectRatio="xMidYMid meet">
<metadata>
Created by potrace 1.16, written by Peter Selinger 2001-2019
</metadata>
<g transform="translate(0.000000,32.000000) scale(0.100000,-0.100000)"
fill="#000000" stroke="none">
<path fill="#000000" stroke="none" d="M0 160 l0 -160 160 0 160 0 0 160 0
160 -160 0 -160 0 0 -160z"/>
<path fill="#ffffff" stroke="none" d="M78 304 c29 -8 28 -18 -3 -32 -14 -6
-25 -17 -25 -24 0 -10 2 -10 8 -1 10 15 96 54 128 58 20 2 22 0 12 -12 -17
-21 -17 -54 0 -61 20 -7 70 -62 78 -85 10 -32 -4 -31 -32 2 -21 25 -29 29 -40
20 -22 -18 -17 -43 16 -74 23 -22 33 -26 42 -17 20 20 32 13 13 -8 -23 -26
-40 -25 -59 2 -9 12 -16 18 -16 13 0 -6 7 -19 15 -29 23 -30 18 -46 -12 -46
-20 0 -24 3 -16 11 9 9 5 20 -14 46 -22 29 -28 32 -35 19 -5 -9 -6 -21 -3 -26
13 -21 -6 -50 -33 -50 l-27 0 23 18 c17 14 20 20 11 29 -10 10 -9 21 1 52 16
49 7 67 -23 46 -29 -20 -67 -20 -67 1 0 11 5 14 16 10 10 -4 29 5 50 24 30 26
32 30 14 30 -14 0 -19 4 -14 12 4 7 3 8 -5 4 -9 -6 -9 -11 -1 -21 6 -7 7 -16
3 -18 -22 -14 -55 41 -41 67 6 12 6 22 -2 32 -14 16 -2 18 38 8z"/>
<path fill="#ffffff" stroke="none" d="M301 296 c-8 -10 -9 -21 -3 -33 12 -23
-7 -67 -30 -71 -25 -4 -47 37 -41 75 5 32 16 40 62 42 19 1 21 -2 12 -13z"/>
</g>
</svg>
