<?xml version="1.0" standalone="no"?>
<!DOCTYPE svg PUBLIC "-//W3C//DTD SVG 20010904//EN"
 "http://www.w3.org/TR/2001/REC-SVG-20010904/DTD/svg10.dtd">
<svg version="1.0" xmlns="http://www.w3.org/2000/svg"
 width="32.000000pt" height="32.000000pt" viewBox="0 0 32.000000 32.000000"
 preserveAspectRatio="xMidYMid meet">
<metadata>
Created by potrace 1.16, written by Peter Selinger 2001-2019
</metadata>
<g transform="translate(0.000000,32.000000) scale(0.100000,-0.100000)"
fill="#000000" stroke="none">
<path fill="#000000" stroke="none" d="M0 160 l0 -160 160 0 160 0 0 160 0
160 -160 0 -160 0 0 -160z"/>
<path fill="#ffffff" stroke="none" d="M79 179 c5 8 11 9 15 3 3 -5 -3 -17
-14 -27 -16 -14 -23 -16 -32 -7 -9 9 -9 12 0 12 6 0 9 8 6 18 -5 14 -4 15 5 2
9 -12 12 -13 20 -1z"/>
<path fill="#ffffff" stroke="none" d="M290 144 c0 -17 -5 -24 -20 -24 -23 0
-24 1 -9 34 14 30 29 25 29 -10z"/>
<path fill="#ffffff" stroke="none" d="M160 160 c0 -5 -4 -10 -10 -10 -5 0
-10 5 -10 10 0 6 5 10 10 10 6 0 10 -4 10 -10z"/>
<path fill="#ffffff" stroke="none" d="M162 85 c10 7 11 5 0 -6 -10 -11 -16
-9 -35 11 -22 24 -22 24 0 6 12 -10 27 -15 35 -11z"/>
</g>
</svg>
