<?xml version="1.0" standalone="no"?>
<!DOCTYPE svg PUBLIC "-//W3C//DTD SVG 20010904//EN"
 "http://www.w3.org/TR/2001/REC-SVG-20010904/DTD/svg10.dtd">
<svg version="1.0" xmlns="http://www.w3.org/2000/svg"
 width="32.000000pt" height="32.000000pt" viewBox="0 0 32.000000 32.000000"
 preserveAspectRatio="xMidYMid meet">
<metadata>
Created by potrace 1.16, written by Peter Selinger 2001-2019
</metadata>
<g transform="translate(0.000000,32.000000) scale(0.100000,-0.100000)"
fill="#000000" stroke="none">
<path fill="#000000" stroke="none" d="M0 160 l0 -160 160 0 160 0 0 160 0
160 -160 0 -160 0 0 -160z"/>
<path fill="#ffffff" stroke="none" d="M198 293 c-6 -7 -14 -13 -18 -13 -3 0
-7 6 -7 13 0 7 8 13 18 13 13 0 15 -3 7 -13z"/>
<path fill="#ffffff" stroke="none" d="M160 284 c0 -9 -5 -12 -12 -8 -8 5 -9
2 -5 -9 7 -19 -8 -23 -18 -7 -5 8 -11 7 -21 -1 -7 -6 -12 -15 -9 -18 2 -4 -2
-8 -10 -8 -8 0 -12 4 -9 9 3 4 -1 8 -8 9 -10 0 77 48 90 49 1 0 2 -7 2 -16z"/>
<path fill="#ffffff" stroke="none" d="M217 214 c3 -8 -3 -25 -15 -37 -11 -12
-19 -33 -18 -47 1 -14 -3 -31 -8 -39 -8 -11 -8 -13 1 -8 6 4 14 3 17 -2 4 -5
-1 -8 -10 -7 -8 1 -19 8 -24 15 -4 8 -13 10 -19 7 -19 -12 -31 3 -21 28 6 17
4 30 -7 45 -8 12 -12 30 -8 39 6 16 7 16 16 0 13 -24 46 -23 61 2 15 24 27 25
35 4z"/>
<path fill="#ffffff" stroke="none" d="M105 20 c-3 -5 -12 -10 -18 -10 -7 0
-6 4 3 10 19 12 23 12 15 0z"/>
</g>
</svg>
