<?xml version="1.0" standalone="no"?>
<!DOCTYPE svg PUBLIC "-//W3C//DTD SVG 20010904//EN"
 "http://www.w3.org/TR/2001/REC-SVG-20010904/DTD/svg10.dtd">
<svg version="1.0" xmlns="http://www.w3.org/2000/svg"
 width="32.000000pt" height="32.000000pt" viewBox="0 0 32.000000 32.000000"
 preserveAspectRatio="xMidYMid meet">
<metadata>
Created by potrace 1.16, written by Peter Selinger 2001-2019
</metadata>
<g transform="translate(0.000000,32.000000) scale(0.100000,-0.100000)"
fill="#000000" stroke="none">
<path fill="#000000" stroke="none" d="M180 295 c-17 -10 -20 -14 -9 -15 9 0
22 7 29 15 15 18 12 18 -20 0z"/>
<path fill="#000000" stroke="none" d="M103 278 c-13 -6 -23 -15 -23 -21 0 -5
6 -4 14 2 11 9 20 10 38 1 21 -10 21 -10 5 3 -14 11 -15 16 -5 20 7 3 9 5 3 6
-5 0 -20 -5 -32 -11z"/>
<path fill="#000000" stroke="none" d="M90 20 c-9 -6 -10 -10 -3 -10 6 0 15 5
18 10 8 12 4 12 -15 0z"/>
</g>
</svg>
