<?xml version="1.0" standalone="no"?>
<!DOCTYPE svg PUBLIC "-//W3C//DTD SVG 20010904//EN"
 "http://www.w3.org/TR/2001/REC-SVG-20010904/DTD/svg10.dtd">
<svg version="1.0" xmlns="http://www.w3.org/2000/svg"
 width="32.000000pt" height="32.000000pt" viewBox="0 0 32.000000 32.000000"
 preserveAspectRatio="xMidYMid meet">
<metadata>
Created by potrace 1.16, written by Peter Selinger 2001-2019
</metadata>
<g transform="translate(0.000000,32.000000) scale(0.100000,-0.100000)"
fill="#000000" stroke="none">
<path fill="#000000" stroke="none" d="M35 300 c3 -5 13 -10 22 -10 13 0 12
-5 -8 -27 -13 -15 -17 -22 -8 -15 14 10 18 10 22 -2 4 -9 2 -18 -3 -21 -6 -4
-10 -12 -10 -18 0 -7 10 -1 21 13 11 14 18 19 14 13 -4 -8 0 -13 10 -13 9 0
13 -5 10 -10 -4 -6 -11 -7 -17 -4 -6 4 -8 2 -5 -3 10 -15 -27 -45 -47 -37 -11
4 -16 1 -16 -10 0 -21 38 -21 67 -1 30 21 39 3 23 -46 -10 -31 -11 -42 -1 -52
9 -9 6 -15 -11 -29 l-23 -18 27 0 c27 0 46 29 33 50 -3 5 -2 17 3 26 7 13 13
10 35 -19 19 -26 23 -37 14 -46 -8 -8 -4 -11 16 -11 30 0 35 15 13 39 -23 26
-31 105 -12 120 13 11 19 10 36 -10 10 -13 19 -27 20 -31 0 -14 20 -8 20 6 0
19 -61 93 -81 99 -18 5 -19 38 -1 60 10 12 8 14 -12 12 -13 -2 -45 -12 -71
-24 -27 -12 -50 -19 -52 -17 -3 2 5 7 16 11 27 8 27 21 -1 29 -34 9 -50 7 -43
-4z"/>
<path fill="#000000" stroke="none" d="M249 303 c-22 -5 -30 -62 -14 -86 16
-23 27 -1 13 27 -13 25 5 44 26 26 9 -7 14 -16 11 -19 -2 -4 2 -8 10 -8 13 0
13 3 1 22 -12 19 -12 23 2 33 15 9 14 11 -8 10 -14 0 -32 -2 -41 -5z"/>
<path fill="#000000" stroke="none" d="M255 253 c4 -10 8 -27 8 -39 1 -11 7
-21 14 -21 10 0 12 23 3 47 -2 3 -2 8 -2 12 1 3 -6 9 -14 12 -13 5 -14 2 -9
-11z"/>
<path fill="#000000" stroke="none" d="M216 90 c5 -8 9 -19 9 -24 0 -17 34
-14 51 5 18 20 6 27 -14 7 -9 -9 -17 -7 -33 8 -14 11 -19 13 -13 4z"/>
</g>
</svg>
