<?xml version="1.0" standalone="no"?>
<!DOCTYPE svg PUBLIC "-//W3C//DTD SVG 20010904//EN"
 "http://www.w3.org/TR/2001/REC-SVG-20010904/DTD/svg10.dtd">
<svg version="1.0" xmlns="http://www.w3.org/2000/svg"
 width="32.000000pt" height="32.000000pt" viewBox="0 0 32.000000 32.000000"
 preserveAspectRatio="xMidYMid meet">
<metadata>
Created by potrace 1.16, written by Peter Selinger 2001-2019
</metadata>
<g transform="translate(0.000000,32.000000) scale(0.100000,-0.100000)"
fill="#000000" stroke="none">
<path fill="#000000" stroke="none" d="M0 160 l0 -160 160 0 160 0 0 160 0
160 -160 0 -160 0 0 -160z"/>
<path fill="#ffffff" stroke="none" d="M209 192 c-11 -8 -18 -20 -15 -28 3 -9
-1 -14 -12 -14 -22 0 -24 39 -4 63 11 13 17 14 32 5 18 -12 18 -12 -1 -26z"/>
<path fill="#ffffff" stroke="none" d="M141 183 c12 -14 12 -16 0 -8 -11 6
-13 4 -8 -8 10 -27 -7 -19 -20 8 -13 30 6 36 28 8z"/>
<path fill="#ffffff" stroke="none" d="M280 158 c0 -5 -9 -8 -19 -8 -13 0 -19
6 -18 19 1 15 4 17 19 7 10 -6 18 -14 18 -18z"/>
<path fill="#ffffff" stroke="none" d="M54 168 c-6 -10 -4 -10 8 0 18 14 31 3
19 -16 -4 -7 -15 -10 -24 -6 -18 6 -21 16 -10 27 11 11 15 8 7 -5z"/>
<path fill="#ffffff" stroke="none" d="M186 140 c18 0 18 -17 1 -34 -17 -18
-64 -17 -71 0 -7 18 23 47 41 40 8 -3 21 -6 29 -6z"/>
</g>
</svg>
