<?xml version="1.0" standalone="no"?>
<!DOCTYPE svg PUBLIC "-//W3C//DTD SVG 20010904//EN"
 "http://www.w3.org/TR/2001/REC-SVG-20010904/DTD/svg10.dtd">
<svg version="1.0" xmlns="http://www.w3.org/2000/svg"
 width="32.000000pt" height="32.000000pt" viewBox="0 0 32.000000 32.000000"
 preserveAspectRatio="xMidYMid meet">
<metadata>
Created by potrace 1.16, written by Peter Selinger 2001-2019
</metadata>
<g transform="translate(0.000000,32.000000) scale(0.100000,-0.100000)"
fill="#000000" stroke="none">
<path fill="#000000" stroke="none" d="M200 235 c-10 -12 -10 -15 4 -15 9 0
16 7 16 15 0 8 -2 15 -4 15 -2 0 -9 -7 -16 -15z"/>
<path fill="#000000" stroke="none" d="M206 210 c-16 -5 -17 -8 -4 -12 16 -7
45 7 32 14 -5 3 -18 2 -28 -2z"/>
<path fill="#000000" stroke="none" d="M56 182 c-2 -4 -1 -14 5 -22 7 -13 9
-12 9 2 0 9 6 19 13 21 7 3 6 6 -5 6 -9 1 -19 -3 -22 -7z"/>
<path fill="#000000" stroke="none" d="M131 162 c12 -31 11 -35 -3 -26 -7 4
-8 3 -4 -4 4 -7 19 -11 34 -11 17 1 21 3 10 6 -22 6 -23 32 -3 47 13 9 10 11
-14 11 -26 0 -28 -2 -20 -23z"/>
<path fill="#000000" stroke="none" d="M237 169 c7 -7 15 -10 18 -7 3 3 -2 9
-12 12 -14 6 -15 5 -6 -5z"/>
<path fill="#000000" stroke="none" d="M20 160 c0 -5 5 -10 11 -10 5 0 7 5 4
10 -3 6 -8 10 -11 10 -2 0 -4 -4 -4 -10z"/>
<path fill="#000000" stroke="none" d="M260 140 c0 -5 5 -10 11 -10 5 0 7 5 4
10 -3 6 -8 10 -11 10 -2 0 -4 -4 -4 -10z"/>
<path fill="#000000" stroke="none" d="M100 117 c0 -10 4 -16 9 -14 5 1 8 -2
8 -8 -1 -5 -5 -9 -8 -8 -3 1 -6 -5 -6 -12 0 -11 4 -12 13 -4 8 6 14 6 18 0 7
-10 31 -9 43 3 4 4 3 7 -2 6 -21 -5 -27 1 -16 14 10 12 9 14 -6 11 -10 -1 -26
4 -35 13 -16 14 -18 13 -18 -1z"/>
<path fill="#ffffff" stroke="none" d="M147 85 c0 -8 -4 -12 -9 -9 -5 3 -6 10
-3 15 9 13 12 11 12 -6z"/>
<path fill="#000000" stroke="none" d="M210 109 c0 -5 5 -7 10 -4 6 3 10 8 10
11 0 2 -4 4 -10 4 -5 0 -10 -5 -10 -11z"/>
</g>
</svg>
