<?xml version="1.0" standalone="no"?>
<!DOCTYPE svg PUBLIC "-//W3C//DTD SVG 20010904//EN"
 "http://www.w3.org/TR/2001/REC-SVG-20010904/DTD/svg10.dtd">
<svg version="1.0" xmlns="http://www.w3.org/2000/svg"
 width="32.000000pt" height="32.000000pt" viewBox="0 0 32.000000 32.000000"
 preserveAspectRatio="xMidYMid meet">
<metadata>
Created by potrace 1.16, written by Peter Selinger 2001-2019
</metadata>
<g transform="translate(0.000000,32.000000) scale(0.100000,-0.100000)"
fill="#000000" stroke="none">
<path fill="#000000" stroke="none" d="M0 160 l0 -160 160 0 160 0 0 160 0
160 -160 0 -160 0 0 -160z"/>
<path fill="#ffffff" stroke="none" d="M115 297 c3 -4 2 -5 -1 -3 -3 3 -11 1
-18 -5 -6 -5 -23 -18 -38 -30 -23 -17 -26 -23 -18 -45 13 -33 13 -34 -7 -34
-17 -1 -17 -1 0 -11 14 -8 23 -7 37 6 11 10 17 22 14 27 -3 4 -2 8 3 7 23 -4
25 3 4 14 -40 20 -35 33 21 57 54 23 101 33 93 19 -3 -4 0 -9 6 -11 14 -5 2
-48 -13 -48 -7 0 -7 4 0 13 7 8 7 18 2 27 -10 16 -10 16 -14 -18 -2 -14 4 -26
12 -30 20 -7 70 -62 78 -85 10 -32 -4 -31 -32 2 -22 26 -29 29 -41 19 -23 -18
-5 -117 18 -102 6 3 5 12 -3 22 -9 12 -6 11 10 -2 17 -15 25 -17 34 -8 20 20
32 13 14 -7 -10 -11 -26 -18 -37 -16 -16 3 -18 0 -13 -21 5 -21 3 -24 -19 -24
-14 0 -29 5 -32 10 -4 6 -3 10 2 9 22 -4 22 4 -3 37 -23 29 -29 33 -36 20 -5
-9 -6 -21 -3 -26 13 -21 -6 -50 -33 -50 l-27 0 23 18 c17 14 20 20 11 29 -10
10 -9 21 1 52 16 49 7 67 -23 46 -51 -36 -82 -10 -68 57 4 18 4 47 0 64 l-6
32 48 -2 c27 -1 51 -5 54 -9z"/>
<path fill="#ffffff" stroke="none" d="M298 298 c-14 -10 -14 -14 -2 -33 12
-19 12 -22 -1 -22 -8 0 -12 3 -10 7 3 4 -4 15 -14 24 -17 15 -19 15 -25 1 -3
-9 -2 -24 3 -33 4 -9 6 -23 4 -30 -9 -25 -31 21 -26 55 5 32 17 40 63 41 22 1
23 -1 8 -10z"/>
<path fill="#ffffff" stroke="none" d="M278 252 c0 -4 0 -9 2 -12 9 -24 7 -47
-3 -47 -7 0 -13 10 -14 21 0 12 -4 29 -8 39 -5 13 -4 16 9 11 8 -3 15 -9 14
-12z"/>
<path fill="#ffffff" stroke="none" d="M62 208 c-7 -7 -12 -8 -12 -2 0 14 12
26 19 19 2 -3 -1 -11 -7 -17z"/>
<path fill="#ffffff" stroke="none" d="M245 132 c-3 -3 -11 0 -18 7 -9 10 -8
11 6 5 10 -3 15 -9 12 -12z"/>
<path fill="#ffffff" stroke="none" d="M57 124 c-3 -3 -12 -4 -19 -1 -8 3 -5
6 6 6 11 1 17 -2 13 -5z"/>
<path fill="#ffffff" stroke="none" d="M87 63 c0 -12 -10 -19 -31 -20 l-31 -3
30 19 c17 11 31 20 32 20 1 1 1 -7 0 -16z"/>
<path fill="#ffffff" stroke="none" d="M160 76 c0 -3 -4 -8 -10 -11 -5 -3 -10
-1 -10 4 0 6 5 11 10 11 6 0 10 -2 10 -4z"/>
<path fill="#000000" stroke="none" d="M34 274 c-2 -24 -1 -24 17 -8 19 17 17
34 -4 34 -7 0 -13 -12 -13 -26z"/>
</g>
</svg>
