<?xml version="1.0" standalone="no"?>
<!DOCTYPE svg PUBLIC "-//W3C//DTD SVG 20010904//EN"
 "http://www.w3.org/TR/2001/REC-SVG-20010904/DTD/svg10.dtd">
<svg version="1.0" xmlns="http://www.w3.org/2000/svg"
 width="32.000000pt" height="32.000000pt" viewBox="0 0 32.000000 32.000000"
 preserveAspectRatio="xMidYMid meet">
<metadata>
Created by potrace 1.16, written by Peter Selinger 2001-2019
</metadata>
<g transform="translate(0.000000,32.000000) scale(0.100000,-0.100000)"
fill="#000000" stroke="none">
<path fill="#000000" stroke="none" d="M95 216 c-11 -9 -15 -16 -9 -16 16 0
37 -55 30 -78 -4 -11 0 -24 9 -32 12 -10 15 -10 15 1 0 10 3 10 12 1 9 -9 16
-8 30 5 21 19 24 43 6 43 -9 0 -8 3 2 10 8 5 15 14 15 20 0 6 6 15 14 19 23
15 5 45 -22 36 -29 -9 -48 -9 -67 -1 -9 3 -24 0 -35 -8z"/>
<path fill="#ffffff" stroke="none" d="M162 158 c-9 -9 -15 -9 -24 1 -11 10
-9 11 6 5 16 -6 18 -4 12 12 -6 15 -5 17 5 7 10 -10 10 -16 1 -25z"/>
<path fill="#000000" stroke="none" d="M232 170 c-15 -25 10 -49 33 -30 19 16
19 23 -3 37 -15 9 -21 7 -30 -7z"/>
<path fill="#000000" stroke="none" d="M45 170 c-8 -13 3 -30 20 -30 17 0 28
17 20 30 -5 8 -12 7 -23 -2 -12 -10 -14 -10 -8 0 4 6 5 12 2 12 -3 0 -8 -4
-11 -10z"/>
<path fill="#000000" stroke="none" d="M146 73 c-12 -12 -5 -23 14 -23 11 0
20 4 20 9 0 11 -26 22 -34 14z"/>
</g>
</svg>
