<?xml version="1.0" standalone="no"?>
<!DOCTYPE svg PUBLIC "-//W3C//DTD SVG 20010904//EN"
 "http://www.w3.org/TR/2001/REC-SVG-20010904/DTD/svg10.dtd">
<svg version="1.0" xmlns="http://www.w3.org/2000/svg"
 width="32.000000pt" height="32.000000pt" viewBox="0 0 32.000000 32.000000"
 preserveAspectRatio="xMidYMid meet">
<metadata>
Created by potrace 1.16, written by Peter Selinger 2001-2019
</metadata>
<g transform="translate(0.000000,32.000000) scale(0.100000,-0.100000)"
fill="#000000" stroke="none">
<path fill="#000000" stroke="none" d="M186 301 c-3 -5 0 -25 7 -45 l12 -36
45 45 44 45 -51 0 c-29 0 -54 -4 -57 -9z"/>
<path fill="#000000" stroke="none" d="M10 236 l0 -67 65 2 c36 1 65 2 65 3 0
1 -29 30 -65 65 l-65 64 0 -67z"/>
<path fill="#000000" stroke="none" d="M54 281 c10 -11 25 -17 34 -14 12 3 13
2 5 -4 -10 -7 -4 -18 22 -43 35 -34 49 -33 18 2 -16 18 -16 18 0 12 14 -5 17
0 17 30 l0 36 -57 0 c-55 0 -56 0 -39 -19z"/>
<path fill="#000000" stroke="none" d="M313 235 c0 -38 2 -53 4 -32 2 20 2 52
0 70 -2 17 -4 1 -4 -38z"/>
<path fill="#000000" stroke="none" d="M268 251 c-9 -11 -13 -23 -10 -27 4 -4
2 -4 -4 -1 -7 4 -17 1 -23 -7 -9 -11 -4 -17 21 -29 18 -9 34 -14 36 -12 5 5 5
86 0 91 -2 2 -11 -5 -20 -15z"/>
<path fill="#000000" stroke="none" d="M195 180 c-3 -5 1 -10 10 -10 9 0 13 5
10 10 -3 6 -8 10 -10 10 -2 0 -7 -4 -10 -10z"/>
<path fill="#000000" stroke="none" d="M10 87 c0 -33 3 -57 8 -53 4 4 7 12 7
17 0 5 4 9 8 8 5 -1 22 12 38 27 22 21 26 30 17 37 -9 6 -8 7 4 4 9 -3 21 0
27 7 9 10 -1 13 -49 13 l-60 0 0 -60z"/>
<path fill="#000000" stroke="none" d="M127 122 c-10 -10 -14 -22 -10 -27 5
-4 3 -5 -3 -2 -6 3 -30 -14 -54 -38 l-44 -45 67 0 c67 0 67 0 67 28 0 15 -6
34 -12 41 -10 11 -10 13 0 7 8 -5 12 2 12 23 0 36 -2 37 -23 13z"/>
<path fill="#000000" stroke="none" d="M235 100 c21 -22 42 -40 45 -40 4 0 7
18 8 40 l2 40 -47 0 -47 0 39 -40z"/>
<path fill="#000000" stroke="none" d="M182 70 c2 -52 6 -64 18 -61 8 2 32 4
53 3 20 -1 37 2 37 6 0 4 -25 32 -56 62 l-55 55 3 -65z"/>
</g>
</svg>
