<?xml version="1.0" standalone="no"?>
<!DOCTYPE svg PUBLIC "-//W3C//DTD SVG 20010904//EN"
 "http://www.w3.org/TR/2001/REC-SVG-20010904/DTD/svg10.dtd">
<svg version="1.0" xmlns="http://www.w3.org/2000/svg"
 width="32.000000pt" height="32.000000pt" viewBox="0 0 32.000000 32.000000"
 preserveAspectRatio="xMidYMid meet">
<metadata>
Created by potrace 1.16, written by Peter Selinger 2001-2019
</metadata>
<g transform="translate(0.000000,32.000000) scale(0.100000,-0.100000)"
fill="#000000" stroke="none">
<path fill="#000000" stroke="none" d="M72 244 c73 -74 78 -82 78 -122 0 -32
-3 -41 -12 -36 -10 6 -10 4 0 -7 6 -7 12 -28 12 -46 0 -65 19 -31 22 39 l3 71
73 -2 c46 -1 72 2 72 8 0 7 -29 11 -78 11 l-78 0 7 53 c4 28 4 64 2 80 -5 26
-7 27 -74 27 -44 0 -69 -4 -69 -11 0 -8 -6 -7 -17 2 -10 7 17 -23 59 -67z"/>
<path fill="#ffffff" stroke="none" d="M150 265 c0 -19 -5 -35 -11 -35 -8 0
-8 -4 -2 -12 10 -13 24 -48 20 -48 -1 0 -32 29 -67 65 l-64 65 62 0 62 0 0
-35z"/>
<path fill="#000000" stroke="none" d="M180 313 c0 -5 24 -7 52 -5 89 5 97 9
21 11 -40 0 -73 -2 -73 -6z"/>
<path fill="#000000" stroke="none" d="M180 237 c0 -9 5 -17 12 -17 6 0 8 -3
5 -7 -10 -9 23 -43 42 -43 12 0 13 2 3 8 -6 5 -23 23 -37 42 -17 23 -25 28
-25 17z"/>
<path fill="#000000" stroke="none" d="M245 70 c38 -38 72 -70 74 -70 3 0 -26
32 -64 70 -38 39 -72 70 -74 70 -3 0 26 -31 64 -70z"/>
</g>
</svg>
