<?xml version="1.0" standalone="no"?>
<!DOCTYPE svg PUBLIC "-//W3C//DTD SVG 20010904//EN"
 "http://www.w3.org/TR/2001/REC-SVG-20010904/DTD/svg10.dtd">
<svg version="1.0" xmlns="http://www.w3.org/2000/svg"
 width="32.000000pt" height="32.000000pt" viewBox="0 0 32.000000 32.000000"
 preserveAspectRatio="xMidYMid meet">
<metadata>
Created by potrace 1.16, written by Peter Selinger 2001-2019
</metadata>
<g transform="translate(0.000000,32.000000) scale(0.100000,-0.100000)"
fill="#000000" stroke="none">
<path fill="#000000" stroke="none" d="M1 233 l0 -88 75 3 74 4 0 -59 0 -60
-61 3 c-69 2 -79 10 -72 60 3 19 1 34 -4 34 -10 0 -14 -46 -7 -89 l5 -33 70 4
c41 2 71 0 73 -7 3 -5 10 -2 16 7 6 10 18 15 28 12 15 -5 15 -4 -1 9 -17 14
-17 18 -4 50 12 28 24 38 63 51 26 9 49 16 50 16 2 0 5 -35 7 -77 1 -43 3 -4
3 87 0 91 -2 132 -3 93 l-4 -73 -34 0 c-21 0 -35 5 -35 12 0 9 -3 9 -12 0 -7
-7 -38 -12 -71 -12 l-59 0 34 27 c18 15 34 27 34 27 1 1 5 20 9 44 5 33 4 42
-8 42 -9 0 -17 -14 -22 -37 -8 -46 -63 -103 -99 -103 -25 0 -26 2 -26 64 0 36
-4 67 -10 71 -5 3 -9 -29 -9 -82z"/>
<path fill="#ffffff" stroke="none" d="M218 139 c-10 -5 -24 -19 -33 -32 -15
-21 -15 -21 -15 11 0 30 2 32 33 32 26 -1 29 -2 15 -11z"/>
<path fill="#000000" stroke="none" d="M240 30 l-25 -8 28 -1 c15 -1 27 4 27
9 0 6 -1 10 -2 9 -2 -1 -14 -5 -28 -9z"/>
</g>
</svg>
