<?xml version="1.0" standalone="no"?>
<!DOCTYPE svg PUBLIC "-//W3C//DTD SVG 20010904//EN"
 "http://www.w3.org/TR/2001/REC-SVG-20010904/DTD/svg10.dtd">
<svg version="1.0" xmlns="http://www.w3.org/2000/svg"
 width="32.000000pt" height="32.000000pt" viewBox="0 0 32.000000 32.000000"
 preserveAspectRatio="xMidYMid meet">
<metadata>
Created by potrace 1.16, written by Peter Selinger 2001-2019
</metadata>
<g transform="translate(0.000000,32.000000) scale(0.100000,-0.100000)"
fill="#000000" stroke="none">
<path fill="#000000" stroke="none" d="M186 311 c-3 -4 8 -20 23 -35 l29 -28
26 23 c33 29 33 43 -1 36 -15 -3 -37 -1 -50 4 -12 4 -25 5 -27 0z"/>
<path fill="#000000" stroke="none" d="M10 243 l0 -67 65 64 c36 35 65 66 65
67 0 2 -29 3 -65 3 l-65 0 0 -67z"/>
<path fill="#000000" stroke="none" d="M140 285 c-1 -5 -1 -14 0 -20 1 -5 -2
-7 -6 -2 -7 7 -94 -70 -94 -84 0 -3 25 -7 55 -7 l55 0 0 34 c0 26 -3 33 -12
28 -9 -6 -9 -3 0 9 8 9 12 24 9 34 -3 10 -6 14 -7 8z"/>
<path fill="#000000" stroke="none" d="M180 233 l0 -46 25 23 c14 13 25 24 25
25 0 1 -11 11 -25 23 l-25 22 0 -47z"/>
<path fill="#000000" stroke="none" d="M261 247 c-8 -11 -6 -18 8 -31 19 -17
20 -17 19 13 -1 34 -9 39 -27 18z"/>
<path fill="#000000" stroke="none" d="M215 200 c-18 -20 -18 -20 24 -20 26 0
40 4 36 10 -4 6 -11 8 -16 4 -5 -3 -8 0 -7 7 5 20 -18 20 -37 -1z"/>
<path fill="#000000" stroke="none" d="M55 120 l29 -30 28 27 c15 15 28 27 28
28 0 1 -26 3 -57 4 l-57 2 29 -31z"/>
<path fill="#000000" stroke="none" d="M188 138 c9 -9 15 -9 24 0 9 9 7 12
-12 12 -19 0 -21 -3 -12 -12z"/>
<path fill="#000000" stroke="none" d="M258 143 c-10 -2 -18 -9 -18 -14 0 -6
-4 -8 -9 -4 -15 9 -22 -12 -8 -24 10 -8 20 -4 42 19 28 30 27 32 -7 23z"/>
<path fill="#000000" stroke="none" d="M310 89 c0 -40 -4 -58 -11 -54 -6 4
-10 21 -9 39 3 48 1 50 -20 31 -21 -19 -28 -41 -8 -29 6 4 8 3 5 -3 -4 -5 7
-23 23 -38 l30 -29 0 72 c0 40 -2 72 -5 72 -3 0 -5 -27 -5 -61z"/>
<path fill="#000000" stroke="none" d="M10 79 l0 -64 31 33 31 33 -31 31 -31
30 0 -63z"/>
<path fill="#000000" stroke="none" d="M120 105 l-24 -26 27 -27 27 -27 0 34
c0 27 -3 32 -17 27 -15 -6 -15 -4 2 14 27 30 13 34 -15 5z"/>
<path fill="#000000" stroke="none" d="M200 93 c0 -6 -3 -20 -6 -30 -7 -17 -6
-17 12 -1 14 14 16 21 6 30 -8 8 -12 9 -12 1z"/>
<path fill="#000000" stroke="none" d="M60 45 l-23 -25 47 0 c42 0 47 2 36 15
-7 8 -19 15 -27 15 -8 0 -11 5 -8 10 11 18 -1 11 -25 -15z"/>
<path fill="#000000" stroke="none" d="M210 45 c-13 -14 -21 -27 -18 -31 3 -3
27 -4 53 -2 l47 3 -29 28 -29 27 -24 -25z"/>
</g>
</svg>
