<?xml version="1.0" standalone="no"?>
<!DOCTYPE svg PUBLIC "-//W3C//DTD SVG 20010904//EN"
 "http://www.w3.org/TR/2001/REC-SVG-20010904/DTD/svg10.dtd">
<svg version="1.0" xmlns="http://www.w3.org/2000/svg"
 width="32.000000pt" height="32.000000pt" viewBox="0 0 32.000000 32.000000"
 preserveAspectRatio="xMidYMid meet">
<metadata>
Created by potrace 1.16, written by Peter Selinger 2001-2019
</metadata>
<g transform="translate(0.000000,32.000000) scale(0.100000,-0.100000)"
fill="#000000" stroke="none">
<path fill="#000000" stroke="none" d="M10 245 l0 -75 70 0 70 0 0 55 c0 41
-4 55 -14 55 -8 0 -18 5 -21 11 -4 6 0 9 10 7 10 -2 20 3 22 10 4 9 -14 12
-66 12 l-71 0 0 -75z"/>
<path fill="#ffffff" stroke="none" d="M100 296 c0 -2 -11 -6 -25 -8 -14 -3
-25 -1 -25 3 0 5 11 9 25 9 14 0 25 -2 25 -4z"/>
<path fill="#000000" stroke="none" d="M170 312 c0 -4 31 -6 69 -4 61 4 70 2
74 -14 4 -16 5 -15 6 4 1 21 -3 22 -74 22 -41 0 -75 -4 -75 -8z"/>
<path fill="#000000" stroke="none" d="M170 228 l0 -58 63 0 c34 0 69 5 77 10
11 7 12 10 2 10 -10 0 -12 10 -9 34 7 50 -3 58 -72 60 l-61 3 0 -59z"/>
<path fill="#000000" stroke="none" d="M10 70 l0 -70 148 0 147 0 -3 70 c-4
69 -4 70 -31 70 -15 0 -33 -6 -40 -12 -11 -10 -13 -10 -7 0 10 16 -115 17
-132 0 -9 -9 -12 -9 -12 0 0 7 -14 12 -35 12 l-35 0 0 -70z"/>
<path fill="#ffffff" stroke="none" d="M170 80 c0 -5 -4 -10 -10 -10 -5 0 -10
5 -10 10 0 6 5 10 10 10 6 0 10 -4 10 -10z"/>
</g>
</svg>
