<?xml version="1.0" standalone="no"?>
<!DOCTYPE svg PUBLIC "-//W3C//DTD SVG 20010904//EN"
 "http://www.w3.org/TR/2001/REC-SVG-20010904/DTD/svg10.dtd">
<svg version="1.0" xmlns="http://www.w3.org/2000/svg"
 width="32.000000pt" height="32.000000pt" viewBox="0 0 32.000000 32.000000"
 preserveAspectRatio="xMidYMid meet">
<metadata>
Created by potrace 1.16, written by Peter Selinger 2001-2019
</metadata>
<g transform="translate(0.000000,32.000000) scale(0.100000,-0.100000)"
fill="#000000" stroke="none">
<path fill="#000000" stroke="none" d="M10 232 c0 -60 0 -61 28 -59 32 3 37
30 13 62 -11 14 -11 16 -1 8 19 -17 30 -16 30 3 0 9 -5 12 -12 8 -8 -5 -9 -2
-5 9 4 11 1 17 -7 17 -8 0 -21 3 -30 6 -14 5 -16 -3 -16 -54z"/>
<path fill="#000000" stroke="none" d="M80 269 c0 -5 5 -7 12 -3 7 5 9 2 5 -9
-12 -31 -19 -93 -9 -78 7 9 12 10 16 2 4 -6 15 -11 24 -11 14 0 18 11 20 55 2
34 -1 55 -7 55 -6 0 -11 -4 -11 -10 0 -5 -5 -10 -11 -10 -5 0 -7 5 -4 10 3 6
-3 10 -14 10 -12 0 -21 -5 -21 -11z"/>
<path fill="#ffffff" stroke="none" d="M106 212 c-18 -16 -18 -16 -6 6 6 13
14 21 18 18 3 -4 -2 -14 -12 -24z"/>
<path fill="#000000" stroke="none" d="M177 273 c-4 -3 -7 -19 -7 -35 0 -20 5
-28 17 -28 13 0 14 3 5 12 -16 16 -15 29 1 26 6 -2 11 3 9 10 -1 8 2 11 9 7 6
-4 23 -10 37 -14 l27 -8 -27 -5 c-17 -3 -25 -1 -21 5 3 5 0 7 -8 5 -8 -3 -14
-13 -14 -23 0 -10 -9 -21 -20 -25 -19 -7 -19 -7 2 -18 34 -18 83 -15 83 5 0
15 2 15 14 -2 13 -18 13 -17 11 9 -2 15 -6 30 -9 33 -3 4 -1 12 5 19 11 14 4
34 -12 34 -6 0 -7 -5 -3 -12 4 -6 3 -8 -3 -5 -16 10 -89 18 -96 10z"/>
<path fill="#ffffff" stroke="none" d="M235 210 c3 -5 1 -10 -4 -10 -6 0 -11
5 -11 10 0 6 2 10 4 10 3 0 8 -4 11 -10z"/>
<path fill="#ffffff" stroke="none" d="M237 184 c-3 -3 -12 -4 -19 -1 -8 3 -5
6 6 6 11 1 17 -2 13 -5z"/>
<path fill="#000000" stroke="none" d="M10 70 c0 -40 4 -70 10 -70 6 0 10 6
10 13 0 8 3 7 10 -3 7 -12 12 -12 21 -3 10 10 9 17 -4 31 -14 15 -14 19 -3 19
8 0 14 -5 13 -11 -1 -6 10 -12 26 -14 15 -2 27 -9 27 -17 0 -11 20 -14 90 -13
82 0 89 2 73 15 -17 14 -17 14 0 9 10 -3 17 0 17 9 0 7 -8 16 -17 18 -17 4
-17 5 0 6 13 1 17 10 17 41 0 38 -2 40 -30 40 -16 0 -33 -7 -38 -16 -10 -18
-4 -64 8 -64 4 0 10 -11 12 -25 5 -25 -10 -30 -39 -12 -8 5 -13 3 -13 -3 0 -6
-5 -8 -11 -4 -7 4 -8 9 0 17 7 7 15 6 25 -2 8 -7 17 -8 20 -3 3 6 0 15 -8 21
-7 6 -12 25 -11 42 2 23 -1 29 -12 25 -11 -4 -13 -2 -9 9 7 19 -24 21 -43 3
-11 -10 -13 -10 -7 0 4 6 3 12 -1 12 -5 0 -15 -6 -22 -12 -11 -10 -13 -10 -7
0 4 6 3 12 -1 12 -15 0 -33 -23 -33 -43 0 -10 -5 -15 -10 -12 -7 4 -7 12 0 25
14 25 14 25 -25 27 l-35 3 0 -70z"/>
<path fill="#ffffff" stroke="none" d="M275 112 c-3 -3 -11 0 -18 7 -9 10 -8
11 6 5 10 -3 15 -9 12 -12z"/>
<path fill="#ffffff" stroke="none" d="M186 91 c10 8 13 6 11 -9 -1 -13 -6
-18 -15 -14 -8 3 -18 -1 -23 -9 -6 -10 -9 -11 -10 -1 -3 22 -4 27 -13 41 -7
11 -3 10 14 -2 17 -12 27 -13 36 -6z"/>
<path fill="#ffffff" stroke="none" d="M279 73 c2 -1 -5 -1 -16 0 -11 0 -20 7
-20 14 0 10 4 10 16 1 9 -7 18 -13 20 -15z"/>
<path fill="#ffffff" stroke="none" d="M131 69 c8 -17 8 -20 -2 -17 -7 2 -13
12 -15 21 -3 23 3 21 17 -4z"/>
<path fill="#ffffff" stroke="none" d="M100 50 c0 -5 -2 -10 -4 -10 -3 0 -8 5
-11 10 -3 6 -1 10 4 10 6 0 11 -4 11 -10z"/>
<path fill="#ffffff" stroke="none" d="M169 28 c-9 -16 -14 -19 -17 -9 -2 7 2
17 9 22 20 13 21 11 8 -13z"/>
<path fill="#000000" stroke="none" d="M80 10 c0 -5 7 -10 16 -10 8 0 12 5 9
10 -3 6 -10 10 -16 10 -5 0 -9 -4 -9 -10z"/>
</g>
</svg>
