<?xml version="1.0" standalone="no"?>
<!DOCTYPE svg PUBLIC "-//W3C//DTD SVG 20010904//EN"
 "http://www.w3.org/TR/2001/REC-SVG-20010904/DTD/svg10.dtd">
<svg version="1.0" xmlns="http://www.w3.org/2000/svg"
 width="32.000000pt" height="32.000000pt" viewBox="0 0 32.000000 32.000000"
 preserveAspectRatio="xMidYMid meet">
<metadata>
Created by potrace 1.16, written by Peter Selinger 2001-2019
</metadata>
<g transform="translate(0.000000,32.000000) scale(0.100000,-0.100000)"
fill="#000000" stroke="none">
<path fill="#000000" stroke="none" d="M2 158 c1 -90 4 -130 5 -91 l4 73 34
-3 c39 -2 39 -2 25 -27 -7 -13 -7 -21 0 -25 5 -3 10 2 10 12 0 20 18 43 33 43
4 0 5 -6 1 -12 -6 -10 -4 -10 7 -1 17 17 32 17 23 1 -6 -10 -4 -10 7 -1 19 19
50 17 43 -2 -4 -11 -2 -13 9 -9 11 4 14 -2 12 -25 -1 -17 4 -36 11 -42 8 -6
11 -15 8 -21 -3 -5 -12 -4 -20 3 -10 8 -18 9 -25 2 -8 -8 -7 -13 0 -17 6 -4
11 -2 11 5 0 8 4 8 15 -1 8 -7 15 -9 15 -6 0 4 10 1 23 -5 18 -9 20 -9 10 2
-7 7 -13 21 -13 31 0 10 -4 18 -9 18 -13 0 -19 46 -9 64 5 9 22 16 38 16 28 0
30 -2 30 -39 0 -29 -5 -41 -17 -44 -17 -4 -17 -5 0 -6 9 0 17 -8 17 -16 0 -9
-6 -12 -17 -9 -15 5 -15 3 1 -10 11 -9 23 -16 28 -16 4 0 8 72 8 160 l0 160
-160 0 -160 0 2 -162z"/>
<path fill="#ffffff" stroke="none" d="M56 280 c8 0 11 -6 7 -17 -4 -11 -3
-14 5 -9 7 4 12 1 12 -8 0 -19 -11 -20 -30 -3 -10 8 -10 6 1 -8 24 -32 19 -59
-13 -62 -28 -2 -28 -1 -28 59 0 51 2 59 16 54 9 -3 22 -6 30 -6z"/>
<path fill="#ffffff" stroke="none" d="M115 270 c-3 -5 -1 -10 4 -10 6 0 11 5
11 10 0 6 5 10 11 10 6 0 9 -21 7 -55 -2 -44 -6 -55 -20 -55 -9 0 -20 5 -24
11 -4 8 -9 7 -16 -2 -10 -15 -3 47 9 78 4 11 2 14 -5 9 -7 -4 -12 -2 -12 3 0
6 9 11 21 11 11 0 17 -4 14 -10z"/>
<path fill="#ffffff" stroke="none" d="M273 263 c6 -3 7 -1 3 5 -4 7 -3 12 3
12 16 0 23 -20 12 -34 -6 -7 -8 -15 -5 -19 3 -3 7 -18 9 -33 2 -26 2 -27 -11
-9 -12 17 -14 17 -14 2 0 -20 -49 -23 -83 -5 -21 11 -21 11 -2 18 11 4 20 15
20 25 0 10 6 20 14 23 8 2 11 0 8 -5 -4 -6 4 -8 21 -5 l27 5 -27 8 c-14 4 -31
10 -37 14 -7 4 -10 1 -9 -7 2 -7 -3 -12 -9 -10 -16 3 -17 -10 -1 -26 9 -9 8
-12 -5 -12 -12 0 -17 8 -17 28 0 16 3 32 7 35 7 8 80 0 96 -10z"/>
<path fill="#000000" stroke="none" d="M100 218 c-12 -22 -12 -22 6 -6 10 10
15 20 12 24 -4 3 -12 -5 -18 -18z"/>
<path fill="#000000" stroke="none" d="M220 210 c0 -5 5 -10 11 -10 5 0 7 5 4
10 -3 6 -8 10 -11 10 -2 0 -4 -4 -4 -10z"/>
<path fill="#000000" stroke="none" d="M218 183 c7 -3 16 -2 19 1 4 3 -2 6
-13 5 -11 0 -14 -3 -6 -6z"/>
<path fill="#000000" stroke="none" d="M257 119 c7 -7 15 -10 18 -7 3 3 -2 9
-12 12 -14 6 -15 5 -6 -5z"/>
<path fill="#000000" stroke="none" d="M136 99 c9 -14 10 -19 13 -41 1 -10 4
-9 10 1 5 8 15 12 23 9 9 -4 14 1 15 14 2 15 -1 17 -11 9 -9 -7 -19 -6 -36 6
-17 12 -21 13 -14 2z"/>
<path fill="#000000" stroke="none" d="M243 87 c0 -7 9 -14 20 -14 11 -1 18
-1 16 0 -2 2 -11 8 -20 15 -12 9 -16 9 -16 -1z"/>
<path fill="#000000" stroke="none" d="M114 73 c2 -9 8 -19 15 -21 10 -3 10 0
2 17 -14 25 -20 27 -17 4z"/>
<path fill="#000000" stroke="none" d="M56 39 c9 -10 13 -23 9 -28 -3 -6 -2
-11 4 -11 5 0 11 6 14 13 3 9 7 9 20 -2 15 -11 17 -11 17 2 0 10 -11 17 -27
19 -16 2 -27 8 -26 14 1 6 -5 11 -13 11 -12 0 -11 -3 2 -18z"/>
<path fill="#000000" stroke="none" d="M85 50 c3 -5 8 -10 11 -10 2 0 4 5 4
10 0 6 -5 10 -11 10 -5 0 -7 -4 -4 -10z"/>
<path fill="#000000" stroke="none" d="M161 41 c-7 -5 -11 -15 -9 -22 3 -10 8
-7 17 9 13 24 12 26 -8 13z"/>
</g>
</svg>
