<?xml version="1.0" standalone="no"?>
<!DOCTYPE svg PUBLIC "-//W3C//DTD SVG 20010904//EN"
 "http://www.w3.org/TR/2001/REC-SVG-20010904/DTD/svg10.dtd">
<svg version="1.0" xmlns="http://www.w3.org/2000/svg"
 width="32.000000pt" height="32.000000pt" viewBox="0 0 32.000000 32.000000"
 preserveAspectRatio="xMidYMid meet">
<metadata>
Created by potrace 1.16, written by Peter Selinger 2001-2019
</metadata>
<g transform="translate(0.000000,32.000000) scale(0.100000,-0.100000)"
fill="#000000" stroke="none">
<path fill="#000000" stroke="none" d="M10 230 c0 -33 4 -60 8 -60 4 0 9 27
10 60 1 35 -2 60 -8 60 -6 0 -10 -27 -10 -60z"/>
<path fill="#000000" stroke="none" d="M43 199 c-2 -23 3 -25 10 -4 4 8 3 16
-1 19 -4 3 -9 -4 -9 -15z"/>
<path fill="#000000" stroke="none" d="M10 84 c0 -32 3 -55 6 -51 11 11 15 95
4 102 -6 4 -10 -15 -10 -51z"/>
<path fill="#000000" stroke="none" d="M48 123 c7 -3 16 -2 19 1 4 3 -2 6 -13
5 -11 0 -14 -3 -6 -6z"/>
</g>
</svg>
