<?xml version="1.0" standalone="no"?>
<!DOCTYPE svg PUBLIC "-//W3C//DTD SVG 20010904//EN"
 "http://www.w3.org/TR/2001/REC-SVG-20010904/DTD/svg10.dtd">
<svg version="1.0" xmlns="http://www.w3.org/2000/svg"
 width="32.000000pt" height="32.000000pt" viewBox="0 0 32.000000 32.000000"
 preserveAspectRatio="xMidYMid meet">
<metadata>
Created by potrace 1.16, written by Peter Selinger 2001-2019
</metadata>
<g transform="translate(0.000000,32.000000) scale(0.100000,-0.100000)"
fill="#000000" stroke="none">
<path fill="#000000" stroke="none" d="M2 161 c-1 -90 1 -161 6 -157 4 3 38
37 76 74 38 37 65 60 61 52 -6 -12 -5 -13 6 -3 18 17 83 17 73 1 -6 -10 -4
-10 7 0 7 6 26 12 41 12 28 0 28 0 28 -70 0 -40 4 -70 10 -70 6 0 10 59 9 159
l0 159 -42 -4 c-23 -3 -56 -7 -74 -9 -18 -2 -34 1 -37 8 -5 9 -7 9 -12 0 -4
-9 -28 -13 -70 -13 -44 0 -63 -4 -59 -11 4 -6 21 -10 39 -9 70 4 78 2 70 -22
-3 -13 -11 -25 -15 -26 -5 -2 -7 -8 -3 -13 5 -9 -30 -27 -83 -43 -21 -7 -22
-4 -26 71 -1 43 -4 4 -5 -86z"/>
<path fill="#ffffff" stroke="none" d="M250 270 c0 -3 -18 -24 -40 -45 l-40
-39 0 47 0 47 40 -2 c22 -1 40 -4 40 -8z"/>
<path fill="#ffffff" stroke="none" d="M298 243 c-1 -21 1 -45 3 -53 3 -12 -9
-16 -61 -18 l-65 -3 55 55 c30 31 58 56 62 56 4 0 7 -17 6 -37z"/>
<path fill="#ffffff" stroke="none" d="M150 200 c0 -27 -3 -30 -29 -30 l-30 0
27 29 c15 16 28 29 30 30 1 0 2 -12 2 -29z"/>
<path fill="#ffffff" stroke="none" d="M76 123 c-6 -16 -6 -16 12 0 35 31 36
17 2 -18 -25 -26 -36 -32 -43 -22 -6 8 -7 7 -4 -5 3 -9 -3 -24 -14 -34 -19
-17 -19 -16 -19 39 l0 57 36 0 c30 0 35 -3 30 -17z"/>
<path fill="#000000" stroke="none" d="M150 80 c0 -5 5 -10 10 -10 6 0 10 5
10 10 0 6 -4 10 -10 10 -5 0 -10 -4 -10 -10z"/>
<path fill="#000000" stroke="none" d="M180 79 c0 -5 5 -7 10 -4 6 3 10 8 10
11 0 2 -4 4 -10 4 -5 0 -10 -5 -10 -11z"/>
</g>
</svg>
