<?xml version="1.0" standalone="no"?>
<!DOCTYPE svg PUBLIC "-//W3C//DTD SVG 20010904//EN"
 "http://www.w3.org/TR/2001/REC-SVG-20010904/DTD/svg10.dtd">
<svg version="1.0" xmlns="http://www.w3.org/2000/svg"
 width="32.000000pt" height="32.000000pt" viewBox="0 0 32.000000 32.000000"
 preserveAspectRatio="xMidYMid meet">
<metadata>
Created by potrace 1.16, written by Peter Selinger 2001-2019
</metadata>
<g transform="translate(0.000000,32.000000) scale(0.100000,-0.100000)"
fill="#000000" stroke="none">
<path fill="#000000" stroke="none" d="M30 306 c0 -2 7 -9 15 -16 12 -10 15
-10 15 4 0 9 -7 16 -15 16 -8 0 -15 -2 -15 -4z"/>
<path fill="#000000" stroke="none" d="M70 295 c0 -8 0 -18 -1 -22 0 -4 4 -9
10 -11 7 -2 8 4 4 15 -7 19 -5 18 17 -11 10 -13 10 -17 3 -12 -20 11 -15 -2 9
-26 14 -14 19 -16 15 -6 -3 10 0 19 9 22 8 3 14 19 14 36 0 28 -2 30 -40 30
-29 0 -40 -4 -40 -15z"/>
<path fill="#ffffff" stroke="none" d="M134 274 c3 -8 2 -12 -4 -9 -6 3 -10
10 -10 16 0 14 7 11 14 -7z"/>
<path fill="#000000" stroke="none" d="M195 294 c17 -12 17 -14 2 -14 -13 0
-17 -9 -17 -35 0 -38 18 -48 27 -15 3 11 8 18 12 15 10 -5 65 54 57 62 -3 3
-12 1 -19 -5 -8 -7 -16 -9 -20 -6 -3 3 -18 7 -33 9 -26 2 -27 2 -9 -11z"/>
<path fill="#ffffff" stroke="none" d="M197 228 c-3 -8 -6 -5 -6 6 -1 11 2 17
5 13 3 -3 4 -12 1 -19z"/>
<path fill="#000000" stroke="none" d="M12 237 l1 -63 34 -1 c29 -1 34 2 30
18 -3 10 -2 17 2 16 3 -1 7 1 9 6 1 4 0 6 -2 5 -2 -2 -13 5 -23 15 -22 19 -39
11 -21 -10 8 -10 8 -17 1 -24 -8 -8 -13 -7 -17 0 -4 6 -2 11 4 11 6 0 8 5 3
13 -16 25 -14 47 5 40 15 -6 15 -4 -2 15 -11 12 -20 22 -22 22 -1 0 -2 -28 -2
-63z"/>
<path fill="#000000" stroke="none" d="M247 232 c-37 -38 -35 -54 6 -50 29 3
32 6 32 36 1 44 -7 47 -38 14z"/>
<path fill="#ffffff" stroke="none" d="M274 225 c3 -8 0 -14 -7 -12 -7 1 -11
-4 -9 -10 2 -13 -10 -17 -20 -7 -5 4 17 36 28 43 1 1 4 -6 8 -14z"/>
<path fill="#000000" stroke="none" d="M95 190 c-7 -12 19 -24 37 -17 8 3 6 6
-5 6 -10 1 -15 6 -12 11 3 6 2 10 -4 10 -5 0 -13 -5 -16 -10z"/>
<path fill="#000000" stroke="none" d="M10 138 c0 -4 7 -8 15 -8 9 0 15 -9 15
-24 0 -36 14 -39 40 -11 13 14 20 26 17 26 -4 1 -12 2 -17 3 -6 0 -14 6 -18
13 -8 13 -52 14 -52 1z"/>
<path fill="#ffffff" stroke="none" d="M70 100 c0 -5 -2 -10 -4 -10 -3 0 -8 5
-11 10 -3 6 -1 10 4 10 6 0 11 -4 11 -10z"/>
<path fill="#000000" stroke="none" d="M71 147 c2 -1 11 -8 20 -15 13 -10 19
-10 27 1 9 10 4 13 -20 15 -18 2 -30 1 -27 -1z"/>
<path fill="#000000" stroke="none" d="M188 138 c9 -9 15 -9 24 0 9 9 7 12
-12 12 -19 0 -21 -3 -12 -12z"/>
<path fill="#000000" stroke="none" d="M257 141 c-10 -4 -18 -11 -17 -16 1 -5
-4 -11 -11 -14 -7 -2 -9 1 -4 9 5 9 4 11 -4 6 -20 -13 1 -28 31 -22 18 3 27 2
23 -4 -3 -6 -13 -10 -21 -10 -8 0 -12 -4 -9 -10 9 -15 45 12 45 33 0 10 -4 15
-10 12 -5 -3 -10 -2 -10 4 0 5 6 12 13 14 6 3 8 5 2 6 -5 0 -18 -4 -28 -8z"/>
<path fill="#000000" stroke="none" d="M125 110 c-10 -11 -13 -20 -8 -20 13 0
38 29 31 35 -3 3 -13 -4 -23 -15z"/>
<path fill="#000000" stroke="none" d="M10 106 c0 -9 5 -16 10 -16 6 0 10 4
10 9 0 6 -4 13 -10 16 -5 3 -10 -1 -10 -9z"/>
<path fill="#000000" stroke="none" d="M120 81 c-8 -6 -17 -8 -20 -6 -4 2 -20
-9 -35 -25 l-29 -30 57 0 57 0 -3 35 c-2 38 -4 40 -27 26z"/>
<path fill="#000000" stroke="none" d="M15 69 c-10 -15 1 -23 20 -15 9 3 13
10 10 16 -8 13 -22 13 -30 -1z"/>
<path fill="#000000" stroke="none" d="M189 52 c-13 -35 -4 -42 54 -42 l51 0
-32 33 c-39 40 -60 43 -73 9z"/>
<path fill="#000000" stroke="none" d="M272 72 c-10 -7 -8 -12 6 -26 19 -16
19 -16 15 9 -3 14 -6 25 -7 25 0 0 -7 -4 -14 -8z"/>
</g>
</svg>
