<?xml version="1.0" standalone="no"?>
<!DOCTYPE svg PUBLIC "-//W3C//DTD SVG 20010904//EN"
 "http://www.w3.org/TR/2001/REC-SVG-20010904/DTD/svg10.dtd">
<svg version="1.0" xmlns="http://www.w3.org/2000/svg"
 width="32.000000pt" height="32.000000pt" viewBox="0 0 32.000000 32.000000"
 preserveAspectRatio="xMidYMid meet">
<metadata>
Created by potrace 1.16, written by Peter Selinger 2001-2019
</metadata>
<g transform="translate(0.000000,32.000000) scale(0.100000,-0.100000)"
fill="#000000" stroke="none">
<path fill="#000000" stroke="none" d="M7 313 c-4 -3 -7 -39 -7 -79 l0 -73
160 0 160 0 0 73 c0 40 -2 75 -4 77 -3 3 -34 2 -70 -1 -41 -3 -68 -1 -71 5 -9
18 3 -49 15 -79 l11 -29 57 54 57 54 -55 -58 c-53 -56 -54 -59 -36 -73 11 -8
15 -14 10 -14 -6 0 -15 5 -22 12 -8 8 -15 8 -29 -3 -17 -13 -17 -12 -2 6 13
17 14 24 3 45 -14 25 -14 25 -14 -11 0 -59 -21 -54 -96 23 -38 39 -63 68 -56
64 6 -4 12 -2 12 3 0 12 -13 14 -23 4z"/>
<path fill="#000000" stroke="none" d="M85 240 c33 -33 61 -56 63 -50 2 6 -2
17 -8 25 -9 11 -9 15 -1 15 6 0 11 16 11 35 l0 35 -62 0 -62 0 59 -60z"/>
<path fill="#000000" stroke="none" d="M0 75 l0 -75 75 0 75 0 0 33 c0 18 -6
39 -12 46 -10 11 -10 13 0 7 8 -5 12 3 12 28 l0 35 -75 0 -75 0 0 -74z"/>
<path fill="#000000" stroke="none" d="M174 141 c-2 -2 -4 -35 -4 -73 l0 -69
73 3 72 3 3 67 3 66 -71 4 c-40 1 -74 1 -76 -1z"/>
<path fill="#ffffff" stroke="none" d="M250 75 c35 -36 62 -65 59 -65 -2 0
-34 29 -69 65 -35 36 -62 65 -59 65 2 0 34 -29 69 -65z"/>
</g>
</svg>
