<?xml version="1.0" standalone="no"?>
<!DOCTYPE svg PUBLIC "-//W3C//DTD SVG 20010904//EN"
 "http://www.w3.org/TR/2001/REC-SVG-20010904/DTD/svg10.dtd">
<svg version="1.0" xmlns="http://www.w3.org/2000/svg"
 width="32.000000pt" height="32.000000pt" viewBox="0 0 32.000000 32.000000"
 preserveAspectRatio="xMidYMid meet">
<metadata>
Created by potrace 1.16, written by Peter Selinger 2001-2019
</metadata>
<g transform="translate(0.000000,32.000000) scale(0.100000,-0.100000)"
fill="#000000" stroke="none">
<path fill="#000000" stroke="none" d="M65 250 c38 -38 72 -70 74 -70 3 0 -26
32 -64 70 -38 39 -72 70 -74 70 -3 0 26 -31 64 -70z"/>
<path fill="#000000" stroke="none" d="M150 287 c0 -18 -6 -39 -12 -46 -11
-11 -10 -12 0 -6 10 5 13 -1 10 -26 l-3 -34 -69 -3 c-98 -3 -96 -12 3 -12 52
0 80 4 76 10 -3 6 -1 10 4 10 7 0 11 27 11 70 0 40 -4 70 -10 70 -5 0 -10 -15
-10 -33z"/>
<path fill="#000000" stroke="none" d="M162 161 l-151 -158 77 -2 78 -2 13 51
c7 27 16 50 20 50 4 0 27 -21 51 -46 l45 -46 -58 4 c-31 1 -57 0 -57 -4 0 -5
33 -8 72 -8 l73 0 -80 80 -80 80 78 0 c48 0 77 4 77 11 0 7 -24 9 -70 7 l-70
-3 72 73 c40 39 70 72 67 72 -4 0 -74 -71 -157 -159z"/>
<path fill="#ffffff" stroke="none" d="M140 105 c-8 -10 -9 -15 -1 -15 6 0 11
-16 11 -35 l0 -35 -57 0 -57 0 54 55 c29 30 56 52 58 50 3 -2 -1 -11 -8 -20z"/>
<path fill="#ffffff" stroke="none" d="M181 89 c-9 -23 -10 -22 -10 11 -1 23
2 31 9 24 7 -7 7 -19 1 -35z"/>
<path fill="#000000" stroke="none" d="M215 140 c-3 -6 1 -7 9 -4 18 7 21 14
7 14 -6 0 -13 -4 -16 -10z"/>
</g>
</svg>
