<?xml version="1.0" standalone="no"?>
<!DOCTYPE svg PUBLIC "-//W3C//DTD SVG 20010904//EN"
 "http://www.w3.org/TR/2001/REC-SVG-20010904/DTD/svg10.dtd">
<svg version="1.0" xmlns="http://www.w3.org/2000/svg"
 width="32.000000pt" height="32.000000pt" viewBox="0 0 32.000000 32.000000"
 preserveAspectRatio="xMidYMid meet">
<metadata>
Created by potrace 1.16, written by Peter Selinger 2001-2019
</metadata>
<g transform="translate(0.000000,32.000000) scale(0.100000,-0.100000)"
fill="#000000" stroke="none">
<path fill="#000000" stroke="none" d="M184 306 c-3 -7 -4 -35 -2 -60 l3 -47
55 57 c53 54 54 56 26 51 -17 -3 -41 -1 -53 4 -17 6 -25 5 -29 -5z"/>
<path fill="#000000" stroke="none" d="M30 307 c0 -1 27 -29 60 -61 57 -56 60
-57 60 -32 0 19 -4 25 -12 20 -10 -6 -10 -4 0 7 6 7 12 26 12 41 0 28 -1 28
-60 28 -33 0 -60 -1 -60 -3z"/>
<path fill="#000000" stroke="none" d="M10 237 l0 -64 65 0 65 -1 -62 64 c-34
35 -63 64 -65 64 -2 0 -3 -29 -3 -63z"/>
<path fill="#000000" stroke="none" d="M235 220 l-39 -40 47 0 47 0 -2 40 c-1
22 -4 40 -8 40 -3 0 -24 -18 -45 -40z"/>
<path fill="#000000" stroke="none" d="M10 84 l0 -67 65 64 c36 35 65 64 65
65 0 1 -29 2 -65 3 l-65 2 0 -67z"/>
<path fill="#000000" stroke="none" d="M195 140 c4 -6 11 -8 16 -5 14 9 11 15
-7 15 -8 0 -12 -5 -9 -10z"/>
<path fill="#000000" stroke="none" d="M258 143 c-10 -2 -18 -9 -18 -14 0 -6
-4 -7 -10 -4 -5 3 -10 2 -10 -3 0 -13 25 -33 33 -27 4 3 5 2 3 -1 -2 -3 3 -15
12 -25 17 -19 17 -19 22 8 6 31 1 74 -9 72 -3 -1 -14 -3 -23 -6z"/>
<path fill="#000000" stroke="none" d="M313 85 c0 -38 2 -53 4 -32 2 20 2 52
0 70 -2 17 -4 1 -4 -38z"/>
<path fill="#000000" stroke="none" d="M111 96 c-18 -19 -29 -36 -24 -38 4 -3
3 -4 -4 -2 -6 1 -19 -6 -29 -17 -17 -19 -16 -19 39 -19 l57 0 0 36 c0 30 -3
35 -17 30 -15 -6 -15 -4 2 14 31 35 10 32 -24 -4z"/>
<path fill="#000000" stroke="none" d="M192 63 c-6 -21 -8 -41 -3 -46 4 -4 29
-7 55 -5 l47 3 -44 43 -43 43 -12 -38z"/>
</g>
</svg>
