<?xml version="1.0" standalone="no"?>
<!DOCTYPE svg PUBLIC "-//W3C//DTD SVG 20010904//EN"
 "http://www.w3.org/TR/2001/REC-SVG-20010904/DTD/svg10.dtd">
<svg version="1.0" xmlns="http://www.w3.org/2000/svg"
 width="32.000000pt" height="32.000000pt" viewBox="0 0 32.000000 32.000000"
 preserveAspectRatio="xMidYMid meet">
<metadata>
Created by potrace 1.16, written by Peter Selinger 2001-2019
</metadata>
<g transform="translate(0.000000,32.000000) scale(0.100000,-0.100000)"
fill="#000000" stroke="none">
<path fill="#000000" stroke="none" d="M73 242 l77 -77 -75 -75 c-41 -41 -75
-79 -75 -84 0 -6 34 23 75 64 l75 74 0 -72 c0 -41 4 -72 10 -72 6 0 10 34 10
83 l0 83 75 74 c41 41 72 76 69 79 -2 3 -36 -26 -74 -64 l-70 -69 0 67 c0 38
-4 67 -10 67 -6 0 -10 -29 -10 -67 l0 -67 -68 67 c-37 37 -72 67 -77 67 -5 0
25 -35 68 -78z"/>
</g>
</svg>
