<?xml version="1.0" standalone="no"?>
<!DOCTYPE svg PUBLIC "-//W3C//DTD SVG 20010904//EN"
 "http://www.w3.org/TR/2001/REC-SVG-20010904/DTD/svg10.dtd">
<svg version="1.0" xmlns="http://www.w3.org/2000/svg"
 width="32.000000pt" height="32.000000pt" viewBox="0 0 32.000000 32.000000"
 preserveAspectRatio="xMidYMid meet">
<metadata>
Created by potrace 1.16, written by Peter Selinger 2001-2019
</metadata>
<g transform="translate(0.000000,32.000000) scale(0.100000,-0.100000)"
fill="#000000" stroke="none">
<path fill="#000000" stroke="none" d="M7 313 c-4 -3 -7 -37 -7 -75 l0 -68 75
2 c41 1 77 -1 81 -5 4 -4 -29 -7 -74 -7 l-82 0 0 -78 c0 -63 3 -79 15 -79 8 0
13 3 10 6 -3 3 27 38 67 78 l73 73 77 -77 78 -78 0 78 0 77 -75 0 c-43 0 -75
4 -75 10 0 5 3 9 8 9 4 -1 38 -1 75 0 l68 1 -3 68 -3 67 -72 3 -73 3 0 -71 c0
-40 -4 -70 -10 -70 -5 0 -10 14 -10 31 0 21 -4 28 -12 23 -10 -6 -10 -4 0 7 6
7 12 28 12 46 l0 33 -68 0 c-38 0 -72 -3 -75 -7z"/>
<path fill="#ffffff" stroke="none" d="M80 245 c35 -36 62 -65 59 -65 -2 0
-34 29 -69 65 -35 36 -62 65 -59 65 2 0 34 -29 69 -65z"/>
<path fill="#ffffff" stroke="none" d="M310 307 c0 -1 -30 -32 -67 -67 l-68
-65 65 68 c60 62 70 72 70 64z"/>
<path fill="#ffffff" stroke="none" d="M240 146 c0 -2 -7 -7 -16 -10 -8 -3
-12 -2 -9 4 6 10 25 14 25 6z"/>
<path fill="#000000" stroke="none" d="M90 75 l-54 -55 57 0 57 0 0 35 c0 19
-5 35 -11 35 -8 0 -7 5 1 15 7 9 11 18 8 20 -2 2 -29 -20 -58 -50z"/>
<path fill="#000000" stroke="none" d="M173 63 c0 -37 2 -63 4 -58 2 6 29 8
60 7 l58 -4 -45 46 c-47 49 -56 54 -63 34 -2 -7 -2 -3 -1 9 2 12 0 24 -5 28
-6 3 -9 -23 -8 -62z"/>
</g>
</svg>
