<?xml version="1.0" standalone="no"?>
<!DOCTYPE svg PUBLIC "-//W3C//DTD SVG 20010904//EN"
 "http://www.w3.org/TR/2001/REC-SVG-20010904/DTD/svg10.dtd">
<svg version="1.0" xmlns="http://www.w3.org/2000/svg"
 width="32.000000pt" height="32.000000pt" viewBox="0 0 32.000000 32.000000"
 preserveAspectRatio="xMidYMid meet">
<metadata>
Created by potrace 1.16, written by Peter Selinger 2001-2019
</metadata>
<g transform="translate(0.000000,32.000000) scale(0.100000,-0.100000)"
fill="#000000" stroke="none">
<path fill="#000000" stroke="none" d="M0 160 l0 -160 160 0 160 0 0 160 0
160 -160 0 -160 0 0 -160z"/>
<path fill="#ffffff" stroke="none" d="M271 160 c15 -47 28 -88 28 -92 1 -5
-62 -8 -140 -8 -129 0 -140 1 -135 18 3 9 15 49 27 87 12 39 23 74 26 78 3 4
41 6 86 5 l81 -3 27 -85z"/>
<path fill="#000000" stroke="none" d="M76 208 c-19 -47 -28 -78 -22 -78 2 0
12 22 21 49 9 28 22 52 28 55 9 3 8 5 -1 5 -7 1 -19 -14 -26 -31z"/>
<path fill="#000000" stroke="none" d="M130 230 c7 -5 6 -11 -5 -20 -8 -7 -15
-18 -15 -26 0 -22 22 -28 36 -9 8 10 17 16 21 12 3 -4 -1 -15 -10 -25 -14 -15
-15 -29 -8 -86 2 -19 29 16 29 40 0 13 7 33 16 43 20 22 20 35 1 51 -11 9 -12
15 -5 20 6 4 -7 7 -30 7 -23 0 -36 -3 -30 -7z"/>
<path fill="#ffffff" stroke="none" d="M191 204 c10 -12 10 -19 1 -32 -7 -10
-15 -25 -18 -34 -4 -10 -10 -18 -15 -18 -14 0 -10 22 8 42 13 15 14 21 4 31
-10 9 -15 8 -25 -5 -16 -21 -26 -23 -26 -5 0 34 48 49 71 21z"/>
<path fill="#ffffff" stroke="none" d="M170 100 c0 -5 -4 -10 -10 -10 -5 0
-10 5 -10 10 0 6 5 10 10 10 6 0 10 -4 10 -10z"/>
<path fill="#000000" stroke="none" d="M227 220 c10 -11 19 -20 21 -20 1 0 -2
9 -8 20 -6 11 -15 20 -20 20 -6 0 -2 -9 7 -20z"/>
<path fill="#000000" stroke="none" d="M246 177 c3 -10 9 -15 12 -12 3 3 0 11
-7 18 -10 9 -11 8 -5 -6z"/>
<path fill="#000000" stroke="none" d="M266 107 c3 -10 9 -15 12 -12 3 3 0 11
-7 18 -10 9 -11 8 -5 -6z"/>
<path fill="#000000" stroke="none" d="M36 82 c-3 -4 4 -9 15 -9 23 -2 25 3 4
10 -8 4 -16 3 -19 -1z"/>
<path fill="#000000" stroke="none" d="M103 73 c9 -2 23 -2 30 0 6 3 -1 5 -18
5 -16 0 -22 -2 -12 -5z"/>
<path fill="#000000" stroke="none" d="M218 73 c7 -3 16 -2 19 1 4 3 -2 6 -13
5 -11 0 -14 -3 -6 -6z"/>
<path fill="#000000" stroke="none" d="M258 73 c7 -3 16 -2 19 1 4 3 -2 6 -13
5 -11 0 -14 -3 -6 -6z"/>
</g>
</svg>
