<?xml version="1.0" standalone="no"?>
<!DOCTYPE svg PUBLIC "-//W3C//DTD SVG 20010904//EN"
 "http://www.w3.org/TR/2001/REC-SVG-20010904/DTD/svg10.dtd">
<svg version="1.0" xmlns="http://www.w3.org/2000/svg"
 width="32.000000pt" height="32.000000pt" viewBox="0 0 32.000000 32.000000"
 preserveAspectRatio="xMidYMid meet">
<metadata>
Created by potrace 1.16, written by Peter Selinger 2001-2019
</metadata>
<g transform="translate(0.000000,32.000000) scale(0.100000,-0.100000)"
fill="#000000" stroke="none">
<path fill="#000000" stroke="none" d="M77 243 c-3 -4 -14 -39 -26 -78 -12
-38 -24 -78 -27 -87 -5 -17 6 -18 135 -18 78 0 141 3 140 8 0 4 -13 45 -28 92
l-27 85 -81 3 c-45 1 -83 -1 -86 -5z"/>
<path fill="#ffffff" stroke="none" d="M262 158 l24 -83 -63 -3 c-35 -2 -91
-2 -126 0 l-63 3 24 83 25 82 77 0 77 0 25 -82z"/>
<path fill="#000000" stroke="none" d="M70 162 c-11 -35 -20 -67 -20 -71 0 -3
20 -5 45 -3 43 4 50 10 46 40 -1 8 5 23 15 33 9 11 14 22 11 26 -4 4 -13 -2
-21 -12 -14 -19 -36 -13 -36 9 0 8 7 20 17 27 15 13 15 12 2 -8 -17 -28 -4
-43 15 -17 12 15 17 16 27 7 10 -10 9 -16 -4 -31 -19 -21 -22 -42 -7 -42 6 0
10 5 10 12 0 6 8 20 17 30 15 16 15 22 4 41 -13 21 -12 21 4 5 18 -16 17 -21
-10 -67 -20 -35 -9 -51 36 -51 38 0 39 1 33 28 -4 15 -13 43 -20 64 -7 20 -10
38 -8 41 2 2 -27 4 -66 4 l-70 0 -20 -65z"/>
<path fill="#000000" stroke="none" d="M150 100 c0 -5 5 -10 10 -10 6 0 10 5
10 10 0 6 -4 10 -10 10 -5 0 -10 -4 -10 -10z"/>
</g>
</svg>
