<?xml version="1.0" standalone="no"?>
<!DOCTYPE svg PUBLIC "-//W3C//DTD SVG 20010904//EN"
 "http://www.w3.org/TR/2001/REC-SVG-20010904/DTD/svg10.dtd">
<svg version="1.0" xmlns="http://www.w3.org/2000/svg"
 width="32.000000pt" height="32.000000pt" viewBox="0 0 32.000000 32.000000"
 preserveAspectRatio="xMidYMid meet">
<metadata>
Created by potrace 1.16, written by Peter Selinger 2001-2019
</metadata>
<g transform="translate(0.000000,32.000000) scale(0.100000,-0.100000)"
fill="#000000" stroke="none">
<path fill="#000000" stroke="none" d="M0 160 l0 -160 160 0 160 0 0 160 0
160 -160 0 -160 0 0 -160z"/>
<path fill="#ffffff" stroke="none" d="M271 160 c15 -47 28 -88 28 -92 1 -5
-23 -7 -51 -6 l-53 1 46 6 45 6 -24 82 c-24 81 -25 82 -61 86 -35 4 -35 4 4 3
l40 -1 26 -85z"/>
<path fill="#ffffff" stroke="none" d="M203 222 c-19 -3 -21 -6 -11 -22 10
-15 9 -23 -5 -38 -9 -10 -17 -24 -17 -30 0 -7 -4 -12 -10 -12 -15 0 -12 21 7
42 13 15 14 21 4 31 -10 9 -15 8 -27 -7 -18 -25 -32 -11 -16 15 12 19 11 20
-10 17 -18 -2 -26 -15 -41 -66 -11 -35 -21 -61 -23 -59 -2 2 5 33 16 69 l20
65 68 -1 c37 0 57 -2 45 -4z"/>
<path fill="#ffffff" stroke="none" d="M170 100 c0 -5 -4 -10 -10 -10 -5 0
-10 5 -10 10 0 6 5 10 10 10 6 0 10 -4 10 -10z"/>
</g>
</svg>
