<?xml version="1.0" standalone="no"?>
<!DOCTYPE svg PUBLIC "-//W3C//DTD SVG 20010904//EN"
 "http://www.w3.org/TR/2001/REC-SVG-20010904/DTD/svg10.dtd">
<svg version="1.0" xmlns="http://www.w3.org/2000/svg"
 width="32.000000pt" height="32.000000pt" viewBox="0 0 32.000000 32.000000"
 preserveAspectRatio="xMidYMid meet">
<metadata>
Created by potrace 1.16, written by Peter Selinger 2001-2019
</metadata>
<g transform="translate(0.000000,32.000000) scale(0.100000,-0.100000)"
fill="#000000" stroke="none">
<path fill="#000000" stroke="none" d="M0 160 l0 -160 160 0 160 0 0 160 0
160 -160 0 -160 0 0 -160z"/>
<path fill="#ffffff" stroke="none" d="M233 205 c4 -50 6 -98 3 -107 -2 -10
-1 -17 3 -16 18 6 51 -25 51 -47 l0 -25 -130 0 -130 0 0 25 c0 14 7 28 15 32
14 5 14 8 -1 24 -15 17 -15 19 -1 25 13 4 14 11 6 31 -9 23 -8 25 6 13 14 -12
15 -10 9 15 -5 20 -4 26 5 21 6 -4 12 -15 12 -24 1 -9 6 8 13 38 11 52 13 55
56 72 71 27 74 25 83 -77z"/>
<path fill="#000000" stroke="none" d="M154 226 c-10 -26 1 -51 21 -51 23 0
32 30 15 50 -16 19 -29 19 -36 1z"/>
</g>
</svg>
