<?xml version="1.0" standalone="no"?>
<!DOCTYPE svg PUBLIC "-//W3C//DTD SVG 20010904//EN"
 "http://www.w3.org/TR/2001/REC-SVG-20010904/DTD/svg10.dtd">
<svg version="1.0" xmlns="http://www.w3.org/2000/svg"
 width="32.000000pt" height="32.000000pt" viewBox="0 0 32.000000 32.000000"
 preserveAspectRatio="xMidYMid meet">
<metadata>
Created by potrace 1.16, written by Peter Selinger 2001-2019
</metadata>
<g transform="translate(0.000000,32.000000) scale(0.100000,-0.100000)"
fill="#000000" stroke="none">
<path fill="#000000" stroke="none" d="M0 160 l0 -160 160 0 160 0 0 160 0
160 -160 0 -160 0 0 -160z"/>
<path fill="#ffffff" stroke="none" d="M145 248 c5 4 5 1 1 -6 -4 -7 -12 -9
-18 -6 -7 4 -7 0 0 -13 6 -10 7 -25 3 -32 -5 -7 -7 -23 -4 -35 4 -21 4 -21
-11 -2 -9 11 -16 15 -16 9 0 -6 -3 -20 -6 -30 -4 -13 -3 -14 4 -5 7 11 10 11
15 -1 3 -9 16 -17 29 -20 13 -2 4 -5 -20 -6 -26 0 -41 -5 -37 -11 10 -16 -31
-11 -45 5 -10 12 -10 15 4 15 8 0 18 11 22 25 3 14 10 23 14 20 7 -4 25 65 23
92 0 9 5 10 17 3 9 -5 21 -6 25 -2z"/>
<path fill="#ffffff" stroke="none" d="M125 60 c-3 -5 -19 -10 -35 -10 -16 0
-32 5 -35 10 -4 6 10 10 35 10 25 0 39 -4 35 -10z"/>
<path fill="#ffffff" stroke="none" d="M53 28 c-8 -14 -19 -8 -20 12 -1 16 1
17 12 7 7 -6 11 -15 8 -19z"/>
</g>
</svg>
