<?xml version="1.0" standalone="no"?>
<!DOCTYPE svg PUBLIC "-//W3C//DTD SVG 20010904//EN"
 "http://www.w3.org/TR/2001/REC-SVG-20010904/DTD/svg10.dtd">
<svg version="1.0" xmlns="http://www.w3.org/2000/svg"
 width="32.000000pt" height="32.000000pt" viewBox="0 0 32.000000 32.000000"
 preserveAspectRatio="xMidYMid meet">
<metadata>
Created by potrace 1.16, written by Peter Selinger 2001-2019
</metadata>
<g transform="translate(0.000000,32.000000) scale(0.100000,-0.100000)"
fill="#000000" stroke="none">
<path fill="#000000" stroke="none" d="M0 246 c0 -56 4 -75 15 -80 8 -3 15
-13 15 -23 0 -15 -2 -15 -15 3 -13 17 -14 11 -15 -63 l0 -83 160 0 160 0 0
160 0 160 -160 0 -160 0 0 -74z"/>
<path fill="#ffffff" stroke="none" d="M168 277 c4 -21 -27 -35 -38 -17 -6 10
-9 9 -13 -1 -4 -11 -6 -10 -6 2 -2 36 50 52 57 16z"/>
<path fill="#ffffff" stroke="none" d="M202 264 c-8 -14 -6 -20 11 -29 19 -9
22 -20 25 -88 2 -64 6 -77 19 -77 24 0 3 -17 -27 -23 -16 -3 -9 -5 20 -6 25
-2 39 -5 32 -8 -6 -2 -10 -8 -8 -11 2 -4 -52 -8 -120 -10 l-124 -3 2 26 c1 14
13 35 25 47 19 18 23 32 23 79 0 64 15 84 60 81 20 -2 32 5 45 24 18 28 33 26
17 -2z"/>
<path fill="#000000" stroke="none" d="M143 275 c0 -8 4 -15 9 -15 4 0 8 4 8
9 0 6 -4 12 -8 15 -5 3 -9 -1 -9 -9z"/>
<path fill="#000000" stroke="none" d="M101 148 l-1 -57 23 22 c22 21 22 23 6
42 -9 11 -19 27 -22 35 -3 8 -6 -11 -6 -42z"/>
<path fill="#000000" stroke="none" d="M210 187 c0 -8 -9 -22 -20 -32 -19 -17
-19 -20 -5 -28 9 -5 20 -18 25 -30 6 -16 9 -5 9 41 1 34 -1 62 -4 62 -3 0 -5
-6 -5 -13z"/>
<path fill="#000000" stroke="none" d="M57 63 c-10 -9 -9 -23 1 -23 5 0 9 7 9
15 0 17 -1 18 -10 8z"/>
</g>
</svg>
