<?xml version="1.0" standalone="no"?>
<!DOCTYPE svg PUBLIC "-//W3C//DTD SVG 20010904//EN"
 "http://www.w3.org/TR/2001/REC-SVG-20010904/DTD/svg10.dtd">
<svg version="1.0" xmlns="http://www.w3.org/2000/svg"
 width="32.000000pt" height="32.000000pt" viewBox="0 0 32.000000 32.000000"
 preserveAspectRatio="xMidYMid meet">
<metadata>
Created by potrace 1.16, written by Peter Selinger 2001-2019
</metadata>
<g transform="translate(0.000000,32.000000) scale(0.100000,-0.100000)"
fill="#000000" stroke="none">
<path fill="#000000" stroke="none" d="M0 160 l0 -160 160 0 160 0 0 160 0
160 -160 0 -160 0 0 -160z"/>
<path fill="#ffffff" stroke="none" d="M164 291 c4 -5 -3 -7 -14 -4 -14 4 -22
-1 -29 -18 -6 -14 -10 -18 -10 -8 -2 29 40 52 53 30z"/>
<path fill="#ffffff" stroke="none" d="M200 261 c-6 -12 -15 -21 -21 -21 -10
0 -5 13 14 38 15 19 20 7 7 -17z"/>
<path fill="#ffffff" stroke="none" d="M143 265 c-3 -9 -8 -14 -10 -11 -3 3
-2 9 2 15 9 16 15 13 8 -4z"/>
<path fill="#ffffff" stroke="none" d="M125 230 c-8 -14 41 -13 67 1 16 8 24
8 35 -4 13 -13 9 -15 -32 -22 -45 -6 -46 -7 -26 -21 21 -15 20 -41 -1 -28 -7
5 -9 -1 -5 -15 7 -27 -1 -53 -14 -45 -5 3 -9 1 -9 -5 0 -6 -7 -8 -16 -4 -13 5
-12 9 8 30 19 20 20 27 10 41 -7 9 -15 25 -18 35 -10 28 -32 20 -28 -10 l4
-28 -11 28 c-8 21 -8 31 1 42 14 17 45 21 35 5z"/>
<path fill="#ffffff" stroke="none" d="M100 103 c0 -32 -5 -28 -14 10 -4 19
-3 26 4 22 5 -3 10 -18 10 -32z"/>
<path fill="#ffffff" stroke="none" d="M227 108 c-3 -8 -6 -5 -6 6 -1 11 2 17
5 13 3 -3 4 -12 1 -19z"/>
<path fill="#ffffff" stroke="none" d="M85 70 c4 -7 11 -7 18 -2 7 5 26 8 42
7 17 -1 49 -3 73 -4 23 0 42 -6 42 -12 0 -7 -26 -9 -75 -7 -41 2 -75 0 -75 -4
0 -5 29 -8 64 -8 48 0 65 -4 70 -16 4 -10 2 -13 -6 -8 -6 4 -42 6 -79 5 -64
-2 -68 -1 -71 21 -2 16 -9 23 -25 22 -12 0 -20 3 -17 8 7 11 32 10 39 -2z"/>
<path fill="#ffffff" stroke="none" d="M70 25 c0 -1 -9 -5 -20 -8 -12 -3 -20
0 -20 8 0 8 8 11 20 8 11 -3 20 -7 20 -8z"/>
</g>
</svg>
