<?xml version="1.0" standalone="no"?>
<!DOCTYPE svg PUBLIC "-//W3C//DTD SVG 20010904//EN"
 "http://www.w3.org/TR/2001/REC-SVG-20010904/DTD/svg10.dtd">
<svg version="1.0" xmlns="http://www.w3.org/2000/svg"
 width="32.000000pt" height="32.000000pt" viewBox="0 0 32.000000 32.000000"
 preserveAspectRatio="xMidYMid meet">
<metadata>
Created by potrace 1.16, written by Peter Selinger 2001-2019
</metadata>
<g transform="translate(0.000000,32.000000) scale(0.100000,-0.100000)"
fill="#000000" stroke="none">
<path fill="#000000" stroke="none" d="M122 288 c-6 -6 -12 -19 -11 -27 0 -12
2 -13 6 -2 4 10 7 11 13 1 11 -18 42 -4 38 17 -4 22 -29 28 -46 11z"/>
<path fill="#ffffff" stroke="none" d="M160 269 c0 -5 -4 -9 -8 -9 -5 0 -9 7
-9 15 0 8 4 12 9 9 4 -3 8 -9 8 -15z"/>
<path fill="#000000" stroke="none" d="M185 266 c-13 -19 -25 -26 -45 -24 -45
3 -60 -17 -60 -81 0 -47 -4 -61 -23 -79 -12 -12 -24 -33 -25 -47 l-2 -25 113
0 c83 1 117 4 131 15 18 14 17 15 -24 15 -49 0 -51 8 -3 12 29 2 37 18 10 18
-9 0 -14 24 -16 72 -3 74 -12 98 -38 98 -11 0 -11 4 -3 21 17 31 4 35 -15 5z"/>
<path fill="#ffffff" stroke="none" d="M129 157 c14 -17 14 -20 0 -30 -9 -7
-18 -19 -22 -27 -3 -8 -5 12 -5 45 0 33 2 53 5 45 3 -8 13 -23 22 -33z"/>
<path fill="#ffffff" stroke="none" d="M217 155 c-2 -48 -7 -54 -27 -30 -10
13 -10 19 4 33 9 10 16 24 16 30 0 7 2 12 4 12 2 0 3 -20 3 -45z"/>
<path fill="#ffffff" stroke="none" d="M67 55 c0 -8 -4 -15 -9 -15 -10 0 -11
14 -1 23 9 10 10 9 10 -8z"/>
<path fill="#000000" stroke="none" d="M197 153 c-10 -9 -9 -23 1 -23 5 0 9 7
9 15 0 17 -1 18 -10 8z"/>
<path fill="#000000" stroke="none" d="M12 150 c14 -22 24 -19 15 5 -4 8 -11
15 -17 15 -6 0 -6 -7 2 -20z"/>
</g>
</svg>
