<?xml version="1.0" standalone="no"?>
<!DOCTYPE svg PUBLIC "-//W3C//DTD SVG 20010904//EN"
 "http://www.w3.org/TR/2001/REC-SVG-20010904/DTD/svg10.dtd">
<svg version="1.0" xmlns="http://www.w3.org/2000/svg"
 width="32.000000pt" height="32.000000pt" viewBox="0 0 32.000000 32.000000"
 preserveAspectRatio="xMidYMid meet">
<metadata>
Created by potrace 1.16, written by Peter Selinger 2001-2019
</metadata>
<g transform="translate(0.000000,32.000000) scale(0.100000,-0.100000)"
fill="#000000" stroke="none">
<path fill="#000000" stroke="none" d="M143 303 c9 -2 25 -2 35 0 9 3 1 5 -18
5 -19 0 -27 -2 -17 -5z"/>
<path fill="#000000" stroke="none" d="M99 283 c-13 -16 -12 -17 4 -4 9 7 17
15 17 17 0 8 -8 3 -21 -13z"/>
<path fill="#000000" stroke="none" d="M214 280 c9 -13 15 -38 15 -55 l-2 -30
-4 30 c-9 61 -63 85 -103 45 -40 -40 -16 -94 45 -103 l30 -4 -30 -2 c-17 0
-42 6 -55 15 l-25 16 24 -21 c72 -64 174 38 110 110 l-21 24 16 -25z"/>
<path fill="#ffffff" stroke="none" d="M180 244 c11 -12 10 -18 -3 -32 -16
-15 -18 -15 -34 0 -13 14 -14 20 -3 32 7 9 16 16 20 16 4 0 13 -7 20 -16z"/>
<path fill="#ffffff" stroke="none" d="M199 198 c-11 -21 -11 -22 4 -9 10 8
17 9 17 3 0 -16 -14 -22 -38 -15 l-21 5 22 19 c29 24 30 23 16 -3z"/>
<path fill="#000000" stroke="none" d="M82 230 c0 -19 2 -27 5 -17 2 9 2 25 0
35 -3 9 -5 1 -5 -18z"/>
<path fill="#000000" stroke="none" d="M20 129 c0 -15 5 -19 15 -15 10 4 15
-1 15 -14 0 -11 -7 -20 -15 -20 -11 0 -15 -11 -15 -40 l0 -40 140 0 140 0 0
40 c0 29 -4 40 -15 40 -8 0 -15 9 -15 20 0 13 5 18 15 14 10 -4 15 0 15 15 0
27 -31 28 -55 1 -10 -11 -30 -21 -44 -21 -25 -2 -25 -2 -3 -6 14 -3 32 3 43
13 18 16 19 16 19 -2 0 -10 3 -29 6 -41 6 -23 6 -23 -106 -23 -112 0 -112 0
-106 23 3 12 6 31 6 41 0 18 1 18 19 2 11 -10 29 -16 43 -13 22 4 22 4 -3 6
-14 0 -34 10 -44 21 -24 27 -55 26 -55 -1z"/>
<path fill="#ffffff" stroke="none" d="M60 136 c0 -2 -7 -6 -15 -10 -8 -3 -15
-1 -15 4 0 6 7 10 15 10 8 0 15 -2 15 -4z"/>
<path fill="#ffffff" stroke="none" d="M290 130 c0 -5 -7 -7 -15 -4 -8 4 -15
8 -15 10 0 2 7 4 15 4 8 0 15 -4 15 -10z"/>
<path fill="#ffffff" stroke="none" d="M167 42 c91 2 120 0 120 -9 0 -10 -30
-13 -113 -13 -62 0 -119 -3 -128 -6 -12 -5 -16 0 -16 22 0 20 3 25 9 16 6 -10
37 -12 128 -10z"/>
<path fill="#000000" stroke="none" d="M76 81 c-4 -5 -2 -12 3 -15 5 -4 12 -2
15 3 4 5 2 12 -3 15 -5 4 -12 2 -15 -3z"/>
<path fill="#000000" stroke="none" d="M226 81 c-4 -5 -2 -12 3 -15 5 -4 12
-2 15 3 4 5 2 12 -3 15 -5 4 -12 2 -15 -3z"/>
</g>
</svg>
