<?xml version="1.0" standalone="no"?>
<!DOCTYPE svg PUBLIC "-//W3C//DTD SVG 20010904//EN"
 "http://www.w3.org/TR/2001/REC-SVG-20010904/DTD/svg10.dtd">
<svg version="1.0" xmlns="http://www.w3.org/2000/svg"
 width="32.000000pt" height="32.000000pt" viewBox="0 0 32.000000 32.000000"
 preserveAspectRatio="xMidYMid meet">
<metadata>
Created by potrace 1.16, written by Peter Selinger 2001-2019
</metadata>
<g transform="translate(0.000000,32.000000) scale(0.100000,-0.100000)"
fill="#000000" stroke="none">
<path fill="#000000" stroke="none" d="M143 303 c9 -2 25 -2 35 0 9 3 1 5 -18
5 -19 0 -27 -2 -17 -5z"/>
<path fill="#000000" stroke="none" d="M99 283 c-13 -16 -12 -17 4 -4 9 7 17
15 17 17 0 8 -8 3 -21 -13z"/>
<path fill="#000000" stroke="none" d="M215 278 c9 -15 15 -39 12 -55 -4 -27
-4 -27 -6 4 -3 67 -84 81 -113 19 -9 -20 -8 -30 6 -51 16 -24 11 -33 -10 -17
-5 4 -1 -1 9 -10 68 -63 167 44 106 113 l-20 24 16 -27z"/>
<path fill="#ffffff" stroke="none" d="M190 238 c5 -15 9 -17 10 -8 1 8 6 2
11 -15 11 -37 -9 -56 -55 -53 l-31 1 32 4 c17 2 37 12 44 21 11 14 11 15 -1 5
-16 -15 -66 -17 -74 -4 -3 4 7 6 22 4 25 -3 26 -3 5 6 -22 10 -31 40 -16 54
14 15 44 6 53 -15z"/>
<path fill="#000000" stroke="none" d="M82 230 c0 -19 2 -27 5 -17 2 9 2 25 0
35 -3 9 -5 1 -5 -18z"/>
<path fill="#000000" stroke="none" d="M20 129 c0 -15 5 -19 15 -15 10 4 15
-1 15 -14 0 -11 -7 -20 -15 -20 -11 0 -15 -11 -15 -40 l0 -40 140 0 140 0 0
40 c0 29 -4 40 -15 40 -8 0 -15 9 -15 20 0 13 5 18 15 14 10 -4 15 0 15 15 0
27 -31 28 -55 1 -10 -11 -30 -21 -44 -21 -25 -2 -25 -2 -3 -6 14 -3 32 3 43
13 18 16 19 16 19 -8 0 -14 7 -31 15 -38 8 -7 15 -23 15 -36 l0 -24 -130 0
-130 0 0 24 c0 13 7 29 15 36 8 7 15 24 15 38 0 24 1 24 19 8 11 -10 29 -16
43 -13 22 4 22 4 -3 6 -14 0 -34 10 -44 21 -24 27 -55 26 -55 -1z"/>
<path fill="#ffffff" stroke="none" d="M60 136 c0 -2 -7 -6 -15 -10 -8 -3 -15
-1 -15 4 0 6 7 10 15 10 8 0 15 -2 15 -4z"/>
<path fill="#ffffff" stroke="none" d="M290 130 c0 -5 -7 -7 -15 -4 -8 4 -15
8 -15 10 0 2 7 4 15 4 8 0 15 -4 15 -10z"/>
<path fill="#000000" stroke="none" d="M76 81 c-4 -5 -2 -12 3 -15 5 -4 12 -2
15 3 4 5 2 12 -3 15 -5 4 -12 2 -15 -3z"/>
<path fill="#000000" stroke="none" d="M226 81 c-4 -5 -2 -12 3 -15 5 -4 12
-2 15 3 4 5 2 12 -3 15 -5 4 -12 2 -15 -3z"/>
</g>
</svg>
