<?xml version="1.0" standalone="no"?>
<!DOCTYPE svg PUBLIC "-//W3C//DTD SVG 20010904//EN"
 "http://www.w3.org/TR/2001/REC-SVG-20010904/DTD/svg10.dtd">
<svg version="1.0" xmlns="http://www.w3.org/2000/svg"
 width="32.000000pt" height="32.000000pt" viewBox="0 0 32.000000 32.000000"
 preserveAspectRatio="xMidYMid meet">
<metadata>
Created by potrace 1.16, written by Peter Selinger 2001-2019
</metadata>
<g transform="translate(0.000000,32.000000) scale(0.100000,-0.100000)"
fill="#000000" stroke="none">
<path fill="#000000" stroke="none" d="M0 160 l0 -160 160 0 160 0 0 160 0
160 -160 0 -160 0 0 -160z"/>
<path fill="#ffffff" stroke="none" d="M223 259 c-6 -6 -9 -19 -6 -28 4 -14 3
-14 -6 -1 -10 13 -13 12 -27 -5 -8 -11 -13 -30 -11 -42 3 -18 0 -23 -15 -23
-14 0 -18 5 -14 15 6 17 -12 65 -25 65 -4 0 -10 -8 -13 -17 -4 -14 -4 -14 -3
2 1 11 -2 26 -6 33 -6 9 9 12 64 12 54 0 70 -3 62 -11z"/>
<path fill="#ffffff" stroke="none" d="M125 160 c-4 -6 10 -10 35 -10 25 0 39
4 35 10 -10 17 19 11 45 -10 14 -10 21 -22 17 -26 -4 -4 -7 -2 -7 4 0 7 -5 12
-11 12 -5 0 -7 -6 -3 -12 6 -10 4 -10 -7 0 -18 16 -34 16 -20 -1 8 -10 7 -18
-3 -32 -15 -20 -38 -12 -29 10 3 11 -2 15 -17 15 -15 0 -20 -4 -17 -15 9 -22
-14 -30 -29 -10 -10 14 -11 22 -3 32 14 17 -2 17 -20 1 -11 -10 -13 -10 -7 0
4 6 3 12 -3 12 -5 0 -12 -6 -14 -12 -4 -9 -6 -8 -6 3 -1 8 4 20 11 27 14 14
62 16 53 2z"/>
<path fill="#ffffff" stroke="none" d="M160 70 c38 0 57 5 66 18 13 16 14 16
8 0 -4 -12 -1 -18 10 -18 9 0 16 -4 16 -10 0 -5 -46 -11 -102 -13 l-103 -3
113 -2 c158 -3 147 -22 -13 -22 -77 0 -125 4 -125 10 0 6 5 10 10 10 6 0 10 7
10 15 0 9 9 15 21 15 16 0 20 4 15 18 -6 16 -5 16 8 0 9 -13 28 -18 66 -18z"/>
<path fill="#000000" stroke="none" d="M123 129 c-6 -6 -9 -18 -6 -25 7 -20
21 -17 19 4 -1 12 6 17 24 17 18 0 25 -5 24 -17 -2 -21 12 -24 19 -4 8 19 -12
36 -43 36 -14 0 -31 -5 -37 -11z"/>
</g>
</svg>
