<?xml version="1.0" standalone="no"?>
<!DOCTYPE svg PUBLIC "-//W3C//DTD SVG 20010904//EN"
 "http://www.w3.org/TR/2001/REC-SVG-20010904/DTD/svg10.dtd">
<svg version="1.0" xmlns="http://www.w3.org/2000/svg"
 width="32.000000pt" height="32.000000pt" viewBox="0 0 32.000000 32.000000"
 preserveAspectRatio="xMidYMid meet">
<metadata>
Created by potrace 1.16, written by Peter Selinger 2001-2019
</metadata>
<g transform="translate(0.000000,32.000000) scale(0.100000,-0.100000)"
fill="#000000" stroke="none">
<path fill="#000000" stroke="none" d="M10 305 c-7 -56 -6 -64 3 -62 6 1 12
-17 14 -41 2 -23 9 -55 15 -70 10 -24 12 -25 16 -7 6 27 32 55 50 55 13 0 13
3 -1 18 -16 17 -15 20 6 40 30 28 64 28 94 0 21 -20 22 -23 6 -40 -14 -15 -14
-18 -1 -18 21 0 48 -33 48 -58 0 -12 11 -29 24 -38 14 -8 23 -21 20 -29 -3 -7
-1 -16 4 -19 5 -3 9 7 10 23 0 20 -6 31 -23 39 -21 10 -22 13 -11 54 6 24 16
47 23 51 19 12 17 48 -3 40 -18 -7 -50 33 -46 58 4 25 -137 26 -169 1 -13 -10
-30 -17 -36 -16 -7 1 -17 2 -22 3 -5 0 -12 9 -14 19 -4 15 -5 14 -7 -3z"/>
<path fill="#000000" stroke="none" d="M277 309 c7 -7 15 -10 18 -7 3 3 -2 9
-12 12 -14 6 -15 5 -6 -5z"/>
<path fill="#000000" stroke="none" d="M117 233 c-16 -16 -15 -18 5 -40 l21
-23 -24 0 c-33 0 -49 -17 -49 -52 0 -16 -9 -36 -20 -45 -11 -10 -20 -28 -20
-40 0 -23 1 -23 130 -23 129 0 130 0 130 23 0 12 -9 30 -20 40 -11 9 -20 29
-20 45 0 35 -16 52 -49 52 l-24 0 21 23 c22 23 22 24 4 40 -24 22 -63 22 -85
0z"/>
</g>
</svg>
