<?xml version="1.0" standalone="no"?>
<!DOCTYPE svg PUBLIC "-//W3C//DTD SVG 20010904//EN"
 "http://www.w3.org/TR/2001/REC-SVG-20010904/DTD/svg10.dtd">
<svg version="1.0" xmlns="http://www.w3.org/2000/svg"
 width="32.000000pt" height="32.000000pt" viewBox="0 0 32.000000 32.000000"
 preserveAspectRatio="xMidYMid meet">
<metadata>
Created by potrace 1.16, written by Peter Selinger 2001-2019
</metadata>
<g transform="translate(0.000000,32.000000) scale(0.100000,-0.100000)"
fill="#000000" stroke="none">
<path fill="#000000" stroke="none" d="M0 160 l0 -160 159 0 159 0 0 158 c1
157 1 157 -19 133 -15 -19 -18 -33 -13 -75 6 -54 -14 -133 -24 -91 -6 27 -32
55 -50 55 -13 0 -12 3 2 19 14 15 15 21 4 27 -7 4 -10 3 -5 -1 4 -5 -3 -19
-15 -32 l-21 -23 24 0 c32 0 49 -17 49 -49 0 -31 14 -56 27 -48 5 3 10 -10 11
-29 l3 -34 -131 0 c-129 0 -130 0 -130 23 0 12 9 30 20 40 11 9 20 29 20 45 0
35 16 52 49 52 l24 0 -21 23 c-22 23 -22 24 -3 42 13 11 31 16 50 13 17 -2 28
-1 25 4 -10 16 -58 8 -81 -14 -21 -20 -22 -23 -6 -40 14 -15 14 -18 1 -18 -22
0 -48 -33 -48 -60 0 -43 -20 -7 -27 47 -4 36 -1 60 10 81 13 27 13 33 0 51 -8
12 -21 21 -29 21 -12 0 -14 -27 -14 -160z"/>
<path fill="#000000" stroke="none" d="M210 316 c0 -9 30 -14 35 -6 4 6 -3 10
-14 10 -12 0 -21 -2 -21 -4z"/>
</g>
</svg>
