<?xml version="1.0" standalone="no"?>
<!DOCTYPE svg PUBLIC "-//W3C//DTD SVG 20010904//EN"
 "http://www.w3.org/TR/2001/REC-SVG-20010904/DTD/svg10.dtd">
<svg version="1.0" xmlns="http://www.w3.org/2000/svg"
 width="32.000000pt" height="32.000000pt" viewBox="0 0 32.000000 32.000000"
 preserveAspectRatio="xMidYMid meet">
<metadata>
Created by potrace 1.16, written by Peter Selinger 2001-2019
</metadata>
<g transform="translate(0.000000,32.000000) scale(0.100000,-0.100000)"
fill="#000000" stroke="none">
<path fill="#000000" stroke="none" d="M2 160 l3 -160 158 0 c86 0 157 2 157
5 0 3 -6 14 -12 25 -10 16 -10 24 -1 39 7 12 12 62 12 132 0 110 -1 113 -18
93 -14 -17 -17 -39 -16 -103 2 -58 -2 -84 -11 -92 -11 -9 -14 -6 -14 18 0 30
-26 63 -50 63 -9 0 -8 5 4 19 14 15 15 21 4 27 -7 4 -10 3 -5 -1 4 -5 -3 -19
-15 -32 l-21 -23 24 0 c32 0 49 -17 49 -49 0 -31 14 -56 27 -48 5 3 10 -10 11
-29 l3 -34 -131 0 c-129 0 -130 0 -130 23 0 12 9 30 20 40 11 9 20 29 20 45 0
35 16 52 49 52 l24 0 -21 23 c-18 19 -19 26 -9 37 10 12 9 12 -6 1 -16 -13
-16 -15 -1 -32 15 -16 15 -19 2 -19 -23 0 -48 -33 -48 -64 0 -17 -5 -26 -12
-24 -18 6 -21 124 -4 158 12 25 12 31 -1 49 -8 12 -21 21 -29 21 -14 0 -15
-22 -12 -160z"/>
<path fill="#000000" stroke="none" d="M225 310 c4 -6 11 -8 16 -5 14 9 11 15
-7 15 -8 0 -12 -5 -9 -10z"/>
<path fill="#000000" stroke="none" d="M130 256 c0 -2 15 -6 34 -8 19 -2 32 0
30 4 -5 8 -64 12 -64 4z"/>
</g>
</svg>
