<?xml version="1.0" standalone="no"?>
<!DOCTYPE svg PUBLIC "-//W3C//DTD SVG 20010904//EN"
 "http://www.w3.org/TR/2001/REC-SVG-20010904/DTD/svg10.dtd">
<svg version="1.0" xmlns="http://www.w3.org/2000/svg"
 width="32.000000pt" height="32.000000pt" viewBox="0 0 32.000000 32.000000"
 preserveAspectRatio="xMidYMid meet">
<metadata>
Created by potrace 1.16, written by Peter Selinger 2001-2019
</metadata>
<g transform="translate(0.000000,32.000000) scale(0.100000,-0.100000)"
fill="#000000" stroke="none">
<path fill="#000000" stroke="none" d="M95 301 c-16 -10 -30 -24 -30 -32 0 -7
-12 -20 -28 -27 -27 -13 -29 -32 -2 -32 27 0 26 -20 -1 -30 -15 -6 -24 -13
-20 -17 3 -3 1 -12 -5 -19 -9 -10 -7 -15 5 -20 9 -3 14 -10 11 -14 -3 -5 -1
-11 5 -15 7 -4 3 -17 -10 -35 -41 -58 -37 -60 140 -60 150 0 160 1 160 19 0
10 -13 33 -29 49 -22 24 -25 32 -13 37 11 4 12 8 2 19 -9 12 -7 17 10 26 20
11 21 13 5 30 -15 16 -14 18 6 23 12 3 18 10 14 17 -4 6 -13 9 -21 6 -18 -7
-46 3 -39 14 3 5 -2 13 -11 18 -9 5 -16 13 -17 18 -7 43 -78 57 -132 25z"/>
<path fill="#ffffff" stroke="none" d="M110 271 c0 -11 -5 -23 -12 -27 -6 -4
-8 -3 -5 3 4 6 0 14 -9 17 -18 7 -10 26 12 26 8 0 14 -9 14 -19z"/>
<path fill="#ffffff" stroke="none" d="M79 236 c11 -14 6 -15 -27 -7 -4 1 8
21 12 21 2 0 9 -6 15 -14z"/>
<path fill="#ffffff" stroke="none" d="M200 209 c0 -20 -26 -33 -36 -17 -4 6
-3 8 4 4 6 -3 13 -2 17 4 3 5 -1 10 -10 10 -9 0 -14 4 -11 8 9 16 36 9 36 -9z"/>
<path fill="#ffffff" stroke="none" d="M244 199 c-8 -14 -34 -11 -34 4 0 8 3
17 7 20 9 9 34 -13 27 -24z"/>
<path fill="#ffffff" stroke="none" d="M110 195 c0 -8 -6 -15 -14 -15 -17 0
-28 14 -19 24 12 12 33 6 33 -9z"/>
<path fill="#ffffff" stroke="none" d="M290 175 c7 -8 9 -16 4 -16 -54 -8 -73
-1 -59 21 9 15 41 12 55 -5z"/>
</g>
</svg>
