<?xml version="1.0" standalone="no"?>
<!DOCTYPE svg PUBLIC "-//W3C//DTD SVG 20010904//EN"
 "http://www.w3.org/TR/2001/REC-SVG-20010904/DTD/svg10.dtd">
<svg version="1.0" xmlns="http://www.w3.org/2000/svg"
 width="32.000000pt" height="32.000000pt" viewBox="0 0 32.000000 32.000000"
 preserveAspectRatio="xMidYMid meet">
<metadata>
Created by potrace 1.16, written by Peter Selinger 2001-2019
</metadata>
<g transform="translate(0.000000,32.000000) scale(0.100000,-0.100000)"
fill="#000000" stroke="none">
<path fill="#000000" stroke="none" d="M0 180 l0 -141 35 35 c39 40 44 56 16
56 -29 0 -47 26 -31 45 11 14 15 14 29 1 14 -13 21 -13 43 -2 30 16 98 25 98
14 0 -4 6 -8 13 -8 7 0 28 -15 47 -32 18 -18 30 -26 25 -18 -4 8 -5 12 0 8 4
-4 16 -3 26 3 16 8 19 22 19 94 l0 85 -60 0 c-50 0 -58 -3 -53 -16 4 -11 9
-12 16 -5 6 6 20 11 32 10 19 0 19 -1 1 -8 -14 -5 -16 -10 -8 -15 7 -4 18 -4
25 1 20 12 38 12 34 0 -2 -7 -25 -16 -50 -21 -46 -8 -47 -9 -47 -45 0 -24 -3
-32 -9 -22 -5 7 -14 10 -20 7 -6 -4 -11 -3 -11 2 0 5 -11 10 -24 10 -28 0 -62
27 -46 37 31 19 -9 27 -58 11 -27 -9 -20 -26 8 -21 21 4 27 -9 9 -21 -6 -3
-21 3 -32 15 -21 21 -21 21 -2 36 11 8 32 13 48 11 19 -3 30 1 37 15 10 18 7
19 -50 19 l-60 0 0 -140z"/>
<path fill="#ffffff" stroke="none" d="M300 200 c0 -6 -11 -9 -24 -8 -14 1
-22 6 -20 10 3 5 10 6 15 3 5 -4 9 -1 9 5 0 6 5 8 10 5 6 -3 10 -10 10 -15z"/>
<path fill="#000000" stroke="none" d="M191 234 c0 -11 3 -14 6 -6 3 7 2 16
-1 19 -3 4 -6 -2 -5 -13z"/>
<path fill="#000000" stroke="none" d="M26 172 c-3 -5 1 -9 9 -9 8 0 12 4 9 9
-3 4 -7 8 -9 8 -2 0 -6 -4 -9 -8z"/>
<path fill="#000000" stroke="none" d="M283 121 c-32 -18 -34 -31 -6 -31 8 0
11 5 8 10 -3 6 -1 10 5 10 6 0 9 -8 6 -18 -4 -10 1 -27 9 -38 13 -17 14 -15
15 34 0 28 -1 52 -2 51 -2 0 -18 -8 -35 -18z"/>
<path fill="#000000" stroke="none" d="M110 116 c0 -18 53 -26 68 -10 8 9 5
13 -11 18 -36 10 -57 7 -57 -8z"/>
<path fill="#000000" stroke="none" d="M188 73 c7 -3 16 -2 19 1 4 3 -2 6 -13
5 -11 0 -14 -3 -6 -6z"/>
</g>
</svg>
