<?xml version="1.0" standalone="no"?>
<!DOCTYPE svg PUBLIC "-//W3C//DTD SVG 20010904//EN"
 "http://www.w3.org/TR/2001/REC-SVG-20010904/DTD/svg10.dtd">
<svg version="1.0" xmlns="http://www.w3.org/2000/svg"
 width="32.000000pt" height="32.000000pt" viewBox="0 0 32.000000 32.000000"
 preserveAspectRatio="xMidYMid meet">
<metadata>
Created by potrace 1.16, written by Peter Selinger 2001-2019
</metadata>
<g transform="translate(0.000000,32.000000) scale(0.100000,-0.100000)"
fill="#000000" stroke="none">
<path fill="#000000" stroke="none" d="M0 179 c0 -132 1 -141 20 -146 11 -3
18 -9 15 -12 -2 -4 2 -8 10 -8 8 0 15 8 15 18 0 13 -6 17 -26 13 -22 -4 -24
-3 -14 15 6 12 20 26 31 32 15 8 19 17 15 34 -4 15 -1 25 9 29 8 3 15 1 15 -4
0 -6 -4 -10 -10 -10 -5 0 -7 -6 -4 -14 8 -20 -14 -56 -34 -57 -13 0 -11 -3 5
-9 13 -6 23 -18 23 -30 0 -11 7 -20 15 -20 14 0 21 40 17 93 -1 10 2 26 7 34
5 10 7 -14 4 -61 l-4 -76 51 0 52 0 -5 81 c-3 44 -3 78 0 75 6 -6 10 -42 12
-113 1 -38 28 -46 33 -10 2 14 9 21 21 21 9 -1 17 2 17 7 0 5 -7 9 -15 9 -18
0 -38 37 -31 56 3 8 1 14 -4 14 -6 0 -10 4 -10 10 0 5 7 7 15 4 9 -4 13 -13
10 -24 -7 -23 4 -50 21 -50 7 0 18 -9 24 -21 10 -17 9 -20 -7 -19 -34 4 -37 0
-15 -16 13 -9 26 -13 30 -9 4 4 8 74 10 156 l3 149 -61 0 c-34 0 -59 -4 -56
-8 3 -5 -18 -5 -47 -1 -29 4 -76 8 -104 8 l-53 1 0 -141z"/>
<path fill="#ffffff" stroke="none" d="M117 263 c-3 -10 -5 -2 -5 17 0 19 2
27 5 18 2 -10 2 -26 0 -35z"/>
<path fill="#ffffff" stroke="none" d="M162 291 c-8 -4 -13 -11 -13 -15 3 -18
0 -26 -9 -26 -5 0 -10 6 -10 13 0 16 20 37 35 37 5 0 4 -4 -3 -9z"/>
<path fill="#ffffff" stroke="none" d="M140 25 c0 -5 -5 -3 -10 5 -5 8 -10 20
-10 25 0 6 5 3 10 -5 5 -8 10 -19 10 -25z"/>
<path fill="#ffffff" stroke="none" d="M170 44 c0 -8 -4 -12 -10 -9 -5 3 -10
10 -10 16 0 5 5 9 10 9 6 0 10 -7 10 -16z"/>
<path fill="#ffffff" stroke="none" d="M197 41 c0 -11 -5 -18 -9 -15 -4 3 -5
11 -1 19 7 21 12 19 10 -4z"/>
</g>
</svg>
