<?xml version="1.0" standalone="no"?>
<!DOCTYPE svg PUBLIC "-//W3C//DTD SVG 20010904//EN"
 "http://www.w3.org/TR/2001/REC-SVG-20010904/DTD/svg10.dtd">
<svg version="1.0" xmlns="http://www.w3.org/2000/svg"
 width="32.000000pt" height="32.000000pt" viewBox="0 0 32.000000 32.000000"
 preserveAspectRatio="xMidYMid meet">
<metadata>
Created by potrace 1.16, written by Peter Selinger 2001-2019
</metadata>
<g transform="translate(0.000000,32.000000) scale(0.100000,-0.100000)"
fill="#000000" stroke="none">
<path fill="#000000" stroke="none" d="M117 314 c-4 -4 -7 -17 -6 -28 0 -20 1
-20 10 2 13 34 70 28 81 -8 6 -23 7 -23 5 5 -2 28 -5 30 -42 33 -23 2 -44 0
-48 -4z"/>
<path fill="#000000" stroke="none" d="M130 280 c0 -16 7 -20 30 -20 23 0 30
4 30 20 0 16 -7 20 -30 20 -23 0 -30 -4 -30 -20z"/>
<path fill="#ffffff" stroke="none" d="M177 284 c-3 -3 -12 -4 -19 -1 -8 3 -5
6 6 6 11 1 17 -2 13 -5z"/>
<path fill="#000000" stroke="none" d="M190 165 c10 -12 10 -18 0 -30 -10 -12
-9 -15 6 -15 15 0 16 -2 5 -9 -8 -5 -21 -7 -29 -3 -11 4 -13 2 -7 -9 8 -12 6
-12 -8 0 -9 7 -17 10 -17 5 0 -19 -20 22 -20 43 0 12 -6 20 -12 19 -26 -6 -48
-18 -48 -28 0 -5 4 -6 10 -3 21 13 -5 -31 -37 -63 -18 -18 -33 -42 -33 -52 0
-19 7 -20 100 -20 103 0 118 7 88 39 -10 11 -10 13 0 7 7 -4 12 -1 12 8 0 12
-10 16 -40 16 -30 0 -40 -4 -40 -16 0 -14 3 -15 18 -3 9 7 14 9 9 4 -4 -4 1
-18 10 -29 l18 -21 -24 20 c-13 11 -26 19 -30 17 -3 -1 -7 6 -9 18 -3 18 2 20
47 20 l51 0 0 -40 0 -40 55 0 c48 0 55 2 55 20 0 10 -15 34 -33 52 -32 32 -58
76 -37 63 19 -12 10 7 -12 26 -29 23 -67 27 -48 4z"/>
<path fill="#ffffff" stroke="none" d="M97 74 c-3 -3 -12 -4 -19 -1 -8 3 -5 6
6 6 11 1 17 -2 13 -5z"/>
<path fill="#ffffff" stroke="none" d="M247 74 c-3 -3 -12 -4 -19 -1 -8 3 -5
6 6 6 11 1 17 -2 13 -5z"/>
</g>
</svg>
