<?xml version="1.0" standalone="no"?>
<!DOCTYPE svg PUBLIC "-//W3C//DTD SVG 20010904//EN"
 "http://www.w3.org/TR/2001/REC-SVG-20010904/DTD/svg10.dtd">
<svg version="1.0" xmlns="http://www.w3.org/2000/svg"
 width="32.000000pt" height="32.000000pt" viewBox="0 0 32.000000 32.000000"
 preserveAspectRatio="xMidYMid meet">
<metadata>
Created by potrace 1.16, written by Peter Selinger 2001-2019
</metadata>
<g transform="translate(0.000000,32.000000) scale(0.100000,-0.100000)"
fill="#000000" stroke="none">
<path fill="#000000" stroke="none" d="M117 314 c-4 -4 -7 -17 -6 -28 0 -20 1
-20 10 2 7 19 15 23 41 20 30 -3 33 -6 34 -35 1 -18 -2 -30 -6 -28 -4 3 -5 16
-2 30 4 22 1 25 -27 25 -39 0 -41 -24 -4 -53 45 -36 54 -31 51 21 l-3 47 -40
3 c-23 2 -44 0 -48 -4z"/>
<path fill="#ffffff" stroke="none" d="M177 284 c-3 -3 -12 -4 -19 -1 -8 3 -5
6 6 6 11 1 17 -2 13 -5z"/>
<path fill="#000000" stroke="none" d="M145 210 c3 -5 11 -10 16 -10 6 0 7 5
4 10 -3 6 -11 10 -16 10 -6 0 -7 -4 -4 -10z"/>
<path fill="#000000" stroke="none" d="M185 180 c-19 -7 -19 -8 -2 -15 14 -6
15 -10 6 -22 -7 -7 -18 -12 -25 -9 -7 3 -16 1 -19 -5 -9 -14 -25 -1 -25 22 0
22 -17 24 -42 5 -19 -14 -25 -32 -8 -21 21 13 -5 -31 -37 -63 -18 -18 -33 -42
-33 -52 0 -19 7 -20 100 -20 103 0 118 7 88 39 -10 11 -10 13 0 7 7 -4 12 -1
12 8 0 12 -10 16 -40 16 -30 0 -40 -4 -40 -16 0 -14 3 -15 18 -3 9 7 14 9 9 4
-4 -4 1 -18 10 -29 l18 -21 -24 20 c-13 11 -26 19 -30 17 -3 -1 -7 6 -9 18 -3
18 2 20 47 20 l51 0 0 -40 0 -40 55 0 c48 0 55 2 55 20 0 10 -15 34 -33 52
-32 32 -58 76 -37 63 22 -13 7 11 -18 31 -19 15 -33 19 -47 14z"/>
<path fill="#ffffff" stroke="none" d="M210 116 c0 -9 -30 -14 -35 -6 -4 6 3
10 14 10 12 0 21 -2 21 -4z"/>
<path fill="#ffffff" stroke="none" d="M97 74 c-3 -3 -12 -4 -19 -1 -8 3 -5 6
6 6 11 1 17 -2 13 -5z"/>
<path fill="#ffffff" stroke="none" d="M247 74 c-3 -3 -12 -4 -19 -1 -8 3 -5
6 6 6 11 1 17 -2 13 -5z"/>
</g>
</svg>
