<?xml version="1.0" standalone="no"?>
<!DOCTYPE svg PUBLIC "-//W3C//DTD SVG 20010904//EN"
 "http://www.w3.org/TR/2001/REC-SVG-20010904/DTD/svg10.dtd">
<svg version="1.0" xmlns="http://www.w3.org/2000/svg"
 width="32.000000pt" height="32.000000pt" viewBox="0 0 32.000000 32.000000"
 preserveAspectRatio="xMidYMid meet">
<metadata>
Created by potrace 1.16, written by Peter Selinger 2001-2019
</metadata>
<g transform="translate(0.000000,32.000000) scale(0.100000,-0.100000)"
fill="#000000" stroke="none">
<path fill="#000000" stroke="none" d="M70 305 c-23 -8 -35 -19 -35 -31 0 -11
-7 -22 -15 -25 -17 -7 -22 -79 -5 -85 15 -6 13 -100 -3 -116 -7 -7 -12 -20
-12 -30 0 -17 13 -18 160 -18 150 0 160 1 160 19 0 10 -13 33 -29 49 -22 24
-25 32 -14 36 8 4 13 12 10 19 -2 6 1 19 9 27 7 8 15 27 19 41 5 22 1 30 -24
49 -18 12 -30 29 -29 37 6 35 -120 54 -192 28z"/>
<path fill="#ffffff" stroke="none" d="M109 244 c3 -16 1 -17 -13 -5 -9 7 -16
10 -16 7 0 -4 -5 -4 -10 -1 -15 9 -3 24 18 21 9 -2 19 -11 21 -22z"/>
<path fill="#ffffff" stroke="none" d="M235 260 c3 -5 -1 -10 -10 -10 -9 0
-13 5 -10 10 3 6 8 10 10 10 2 0 7 -4 10 -10z"/>
<path fill="#ffffff" stroke="none" d="M270 220 c16 -5 19 -8 8 -9 -9 -1 -20
-6 -24 -13 -4 -6 -3 -8 4 -4 6 3 13 3 16 -2 2 -4 -11 -8 -30 -8 -29 0 -34 4
-34 23 0 25 14 28 60 13z"/>
<path fill="#ffffff" stroke="none" d="M108 192 c-3 -18 -84 -27 -94 -11 -5 8
10 13 29 10 4 -1 18 5 29 13 24 17 41 12 36 -12z"/>
</g>
</svg>
