<?xml version="1.0" standalone="no"?>
<!DOCTYPE svg PUBLIC "-//W3C//DTD SVG 20010904//EN"
 "http://www.w3.org/TR/2001/REC-SVG-20010904/DTD/svg10.dtd">
<svg version="1.0" xmlns="http://www.w3.org/2000/svg"
 width="32.000000pt" height="32.000000pt" viewBox="0 0 32.000000 32.000000"
 preserveAspectRatio="xMidYMid meet">
<metadata>
Created by potrace 1.16, written by Peter Selinger 2001-2019
</metadata>
<g transform="translate(0.000000,32.000000) scale(0.100000,-0.100000)"
fill="#000000" stroke="none">
<path fill="#000000" stroke="none" d="M0 160 l0 -160 160 0 160 0 0 160 0
160 -160 0 -160 0 0 -160z"/>
<path fill="#ffffff" stroke="none" d="M275 252 c-11 -8 -15 -52 -5 -52 4 0 5
-13 2 -30 -7 -48 -22 -24 -22 36 0 45 3 54 18 54 9 0 13 -4 7 -8z"/>
<path fill="#ffffff" stroke="none" d="M232 178 c-9 -9 -12 -7 -12 12 0 19 3
21 12 12 9 -9 9 -15 0 -24z"/>
<path fill="#ffffff" stroke="none" d="M68 164 c-3 -14 -5 -12 -10 9 -3 19 -2
25 4 19 6 -6 8 -18 6 -28z"/>
<path fill="#ffffff" stroke="none" d="M50 151 c0 -26 -29 -79 -30 -54 0 6 4
14 9 17 5 3 8 22 6 41 -2 20 1 33 6 30 5 -4 9 -19 9 -34z"/>
<path fill="#ffffff" stroke="none" d="M197 168 c-3 -8 -6 -5 -6 6 -1 11 2 17
5 13 3 -3 4 -12 1 -19z"/>
<path fill="#ffffff" stroke="none" d="M87 158 c-3 -8 -6 -5 -6 6 -1 11 2 17
5 13 3 -3 4 -12 1 -19z"/>
<path fill="#ffffff" stroke="none" d="M107 138 c-3 -8 -6 -5 -6 6 -1 11 2 17
5 13 3 -3 4 -12 1 -19z"/>
<path fill="#ffffff" stroke="none" d="M216 135 c-9 -14 -12 -25 -6 -25 5 0
10 -8 10 -17 -1 -17 -1 -17 -11 0 -5 9 -16 17 -24 17 -10 0 -8 7 8 24 29 32
43 32 23 1z"/>
<path fill="#ffffff" stroke="none" d="M80 110 c0 -11 -2 -20 -4 -20 -2 0 -6
9 -9 20 -3 11 -1 20 4 20 5 0 9 -9 9 -20z"/>
<path fill="#ffffff" stroke="none" d="M297 88 c-3 -8 -6 -5 -6 6 -1 11 2 17
5 13 3 -3 4 -12 1 -19z"/>
</g>
</svg>
