<?xml version="1.0" standalone="no"?>
<!DOCTYPE svg PUBLIC "-//W3C//DTD SVG 20010904//EN"
 "http://www.w3.org/TR/2001/REC-SVG-20010904/DTD/svg10.dtd">
<svg version="1.0" xmlns="http://www.w3.org/2000/svg"
 width="32.000000pt" height="32.000000pt" viewBox="0 0 32.000000 32.000000"
 preserveAspectRatio="xMidYMid meet">
<metadata>
Created by potrace 1.16, written by Peter Selinger 2001-2019
</metadata>
<g transform="translate(0.000000,32.000000) scale(0.100000,-0.100000)"
fill="#000000" stroke="none">
<path fill="#000000" stroke="none" d="M0 160 l0 -160 160 0 160 0 0 160 0
160 -160 0 -160 0 0 -160z"/>
<path fill="#ffffff" stroke="none" d="M288 268 c8 -8 12 -46 11 -108 0 -62
-3 -88 -9 -74 -6 16 -15 20 -39 16 -20 -3 -31 -10 -31 -21 -1 -14 -2 -14 -11
2 -15 25 -176 24 -182 -2 -3 -9 -5 13 -6 48 -1 51 2 62 13 58 11 -4 13 -1 9
10 -4 11 -2 14 8 11 8 -2 17 -20 20 -39 l6 -34 3 30 c2 24 3 26 8 10 6 -16 17
-21 55 -23 45 -2 47 -2 48 25 2 24 2 25 6 6 2 -13 10 -23 17 -23 9 0 12 9 8
25 -3 18 0 25 12 25 11 0 16 9 16 28 0 41 15 53 38 30z"/>
<path fill="#000000" stroke="none" d="M240 140 c0 -16 4 -30 8 -30 5 0 7 14
4 30 -2 17 -6 30 -8 30 -2 0 -4 -13 -4 -30z"/>
<path fill="#000000" stroke="none" d="M46 125 c-3 -8 -1 -15 4 -15 6 0 10 7
10 15 0 8 -2 15 -4 15 -2 0 -6 -7 -10 -15z"/>
<path fill="#000000" stroke="none" d="M80 119 c0 -5 5 -7 10 -4 6 3 10 8 10
11 0 2 -4 4 -10 4 -5 0 -10 -5 -10 -11z"/>
</g>
</svg>
