<?xml version="1.0" standalone="no"?>
<!DOCTYPE svg PUBLIC "-//W3C//DTD SVG 20010904//EN"
 "http://www.w3.org/TR/2001/REC-SVG-20010904/DTD/svg10.dtd">
<svg version="1.0" xmlns="http://www.w3.org/2000/svg"
 width="32.000000pt" height="32.000000pt" viewBox="0 0 32.000000 32.000000"
 preserveAspectRatio="xMidYMid meet">
<metadata>
Created by potrace 1.16, written by Peter Selinger 2001-2019
</metadata>
<g transform="translate(0.000000,32.000000) scale(0.100000,-0.100000)"
fill="#000000" stroke="none">
<path fill="#000000" stroke="none" d="M0 160 l0 -160 160 0 160 0 0 160 0
160 -160 0 -160 0 0 -160z"/>
<path fill="#ffffff" stroke="none" d="M198 298 c17 -17 15 -63 -3 -78 -29
-24 -15 -110 18 -110 20 0 20 0 1 -15 -10 -8 -35 -14 -54 -14 -19 0 -44 6 -54
14 -19 14 -18 15 16 15 38 0 48 14 48 73 0 28 -6 30 -65 29 -14 -1 -15 1 -4 4
11 3 14 13 11 34 -2 17 1 37 8 45 15 18 61 20 78 3z"/>
</g>
</svg>
