<?xml version="1.0" standalone="no"?>
<!DOCTYPE svg PUBLIC "-//W3C//DTD SVG 20010904//EN"
 "http://www.w3.org/TR/2001/REC-SVG-20010904/DTD/svg10.dtd">
<svg version="1.0" xmlns="http://www.w3.org/2000/svg"
 width="32.000000pt" height="32.000000pt" viewBox="0 0 32.000000 32.000000"
 preserveAspectRatio="xMidYMid meet">
<metadata>
Created by potrace 1.16, written by Peter Selinger 2001-2019
</metadata>
<g transform="translate(0.000000,32.000000) scale(0.100000,-0.100000)"
fill="#000000" stroke="none">
<path fill="#000000" stroke="none" d="M0 160 l0 -160 160 0 160 0 0 160 0
160 -160 0 -160 0 0 -160z"/>
<path fill="#ffffff" stroke="none" d="M188 288 c7 -7 12 -21 12 -32 0 -11 7
-28 17 -38 9 -10 16 -36 17 -62 l1 -44 24 19 c13 11 27 17 30 13 3 -3 -2 -10
-12 -15 -21 -12 -22 -48 -2 -55 9 -4 15 -19 15 -35 l0 -29 -130 0 -130 0 0 29
c0 16 6 31 15 35 20 7 19 43 -2 55 -10 5 -15 12 -12 15 3 4 17 -3 31 -14 l25
-19 -9 45 c-8 37 -7 49 6 63 9 10 16 26 16 37 0 27 19 44 50 44 14 0 31 -5 38
-12z"/>
</g>
</svg>
