<?xml version="1.0" standalone="no"?>
<!DOCTYPE svg PUBLIC "-//W3C//DTD SVG 20010904//EN"
 "http://www.w3.org/TR/2001/REC-SVG-20010904/DTD/svg10.dtd">
<svg version="1.0" xmlns="http://www.w3.org/2000/svg"
 width="32.000000pt" height="32.000000pt" viewBox="0 0 32.000000 32.000000"
 preserveAspectRatio="xMidYMid meet">
<metadata>
Created by potrace 1.16, written by Peter Selinger 2001-2019
</metadata>
<g transform="translate(0.000000,32.000000) scale(0.100000,-0.100000)"
fill="#000000" stroke="none">
<path fill="#000000" stroke="none" d="M120 295 c-7 -8 -10 -28 -8 -45 3 -21
0 -31 -11 -34 -11 -3 -10 -5 4 -4 59 1 65 -1 65 -29 0 -59 -10 -73 -48 -73
-34 0 -35 -1 -16 -15 25 -19 83 -19 108 0 19 15 19 15 -1 15 -33 0 -47 86 -18
110 18 15 20 61 3 78 -17 17 -63 15 -78 -3z"/>
</g>
</svg>
