<?xml version="1.0" standalone="no"?>
<!DOCTYPE svg PUBLIC "-//W3C//DTD SVG 20010904//EN"
 "http://www.w3.org/TR/2001/REC-SVG-20010904/DTD/svg10.dtd">
<svg version="1.0" xmlns="http://www.w3.org/2000/svg"
 width="32.000000pt" height="32.000000pt" viewBox="0 0 32.000000 32.000000"
 preserveAspectRatio="xMidYMid meet">
<metadata>
Created by potrace 1.16, written by Peter Selinger 2001-2019
</metadata>
<g transform="translate(0.000000,32.000000) scale(0.100000,-0.100000)"
fill="#000000" stroke="none">
<path fill="#000000" stroke="none" d="M0 160 l0 -160 160 0 160 0 0 160 0
160 -160 0 -160 0 0 -160z"/>
<path fill="#ffffff" stroke="none" d="M189 286 c19 -23 9 -70 -16 -81 -16 -7
-21 -15 -17 -27 4 -12 0 -18 -11 -18 -12 0 -15 5 -11 16 4 11 -1 22 -14 31
-22 16 -27 62 -8 81 17 17 63 15 77 -2z"/>
<path fill="#ffffff" stroke="none" d="M105 210 c3 -5 -3 -10 -15 -10 -12 0
-18 5 -15 10 3 6 10 10 15 10 5 0 12 -4 15 -10z"/>
<path fill="#ffffff" stroke="none" d="M214 95 c-25 -19 -83 -19 -108 0 -18
14 -13 15 54 15 67 0 72 -1 54 -15z"/>
</g>
</svg>
