<?xml version="1.0" standalone="no"?>
<!DOCTYPE svg PUBLIC "-//W3C//DTD SVG 20010904//EN"
 "http://www.w3.org/TR/2001/REC-SVG-20010904/DTD/svg10.dtd">
<svg version="1.0" xmlns="http://www.w3.org/2000/svg"
 width="32.000000pt" height="32.000000pt" viewBox="0 0 32.000000 32.000000"
 preserveAspectRatio="xMidYMid meet">
<metadata>
Created by potrace 1.16, written by Peter Selinger 2001-2019
</metadata>
<g transform="translate(0.000000,32.000000) scale(0.100000,-0.100000)"
fill="#000000" stroke="none">
<path fill="#000000" stroke="none" d="M0 160 l0 -160 160 0 160 0 0 160 0
160 -160 0 -160 0 0 -160z"/>
<path fill="#ffffff" stroke="none" d="M198 277 c6 -7 12 -29 14 -48 1 -19 10
-47 20 -63 14 -24 15 -33 5 -45 -7 -9 1 -5 17 7 16 12 32 20 35 16 3 -3 -2
-10 -12 -15 -21 -12 -22 -48 -2 -55 9 -4 15 -19 15 -35 l0 -29 -130 0 -130 0
0 29 c0 16 6 31 15 35 20 7 19 43 -2 55 -10 5 -15 12 -12 15 3 4 19 -4 35 -16
16 -12 24 -16 17 -7 -10 12 -9 21 5 45 10 16 19 44 20 63 2 19 8 41 14 48 14
17 62 17 76 0z"/>
</g>
</svg>
