<?xml version="1.0" standalone="no"?>
<!DOCTYPE svg PUBLIC "-//W3C//DTD SVG 20010904//EN"
 "http://www.w3.org/TR/2001/REC-SVG-20010904/DTD/svg10.dtd">
<svg version="1.0" xmlns="http://www.w3.org/2000/svg"
 width="32.000000pt" height="32.000000pt" viewBox="0 0 32.000000 32.000000"
 preserveAspectRatio="xMidYMid meet">
<metadata>
Created by potrace 1.16, written by Peter Selinger 2001-2019
</metadata>
<g transform="translate(0.000000,32.000000) scale(0.100000,-0.100000)"
fill="#000000" stroke="none">
<path fill="#000000" stroke="none" d="M143 264 c-3 -8 -1 -20 5 -26 12 -12
35 -1 27 13 -3 5 1 6 9 3 8 -3 12 -12 9 -20 -5 -15 12 -20 21 -6 7 12 -31 52
-50 52 -8 0 -17 -7 -21 -16z"/>
<path fill="#000000" stroke="none" d="M117 263 c-4 -3 -7 -11 -7 -17 0 -6 5
-5 12 2 6 6 9 14 7 17 -3 3 -9 2 -12 -2z"/>
<path fill="#000000" stroke="none" d="M95 204 c-14 -21 -14 -28 -3 -42 9 -11
9 -14 1 -9 -8 5 -15 -1 -19 -18 -3 -14 -11 -25 -16 -25 -6 0 -8 -9 -5 -19 3
-12 -1 -22 -9 -25 -8 -3 -14 -17 -14 -31 l0 -25 130 0 c109 0 130 2 130 15 0
8 -3 15 -8 15 -11 0 -29 51 -31 89 -2 44 -9 55 -27 40 -7 -6 -12 -15 -9 -19 5
-9 -12 -24 -38 -33 -15 -6 -16 -3 -7 13 14 26 13 50 -1 30 -9 -13 -10 -12 -5
2 7 23 -11 33 -30 17 -8 -6 -18 -9 -22 -5 -9 9 26 36 47 37 12 0 10 3 -4 9
-32 14 -42 11 -60 -16z"/>
<path fill="#ffffff" stroke="none" d="M148 140 c1 -37 10 -52 25 -44 9 5 9 4
0 -6 -16 -17 -45 -5 -41 17 2 12 -4 19 -19 21 -15 2 -23 -2 -23 -12 0 -18 16
-30 23 -16 3 6 4 5 3 -2 -1 -7 -10 -14 -19 -16 -12 -3 -17 4 -17 23 0 20 7 28
30 36 17 6 30 15 30 20 0 5 2 9 3 9 2 0 4 -13 5 -30z"/>
<path fill="#ffffff" stroke="none" d="M222 88 c-6 -6 -16 -7 -22 -3 -9 6 -9
9 1 16 17 10 34 0 21 -13z"/>
<path fill="#000000" stroke="none" d="M171 201 c-24 -15 24 -35 50 -20 17 9
19 13 8 20 -8 5 -21 9 -29 9 -8 0 -21 -4 -29 -9z"/>
<path fill="#000000" stroke="none" d="M193 145 c0 -8 4 -12 9 -9 5 3 6 10 3
15 -9 13 -12 11 -12 -6z"/>
</g>
</svg>
