<?xml version="1.0" standalone="no"?>
<!DOCTYPE svg PUBLIC "-//W3C//DTD SVG 20010904//EN"
 "http://www.w3.org/TR/2001/REC-SVG-20010904/DTD/svg10.dtd">
<svg version="1.0" xmlns="http://www.w3.org/2000/svg"
 width="32.000000pt" height="32.000000pt" viewBox="0 0 32.000000 32.000000"
 preserveAspectRatio="xMidYMid meet">
<metadata>
Created by potrace 1.16, written by Peter Selinger 2001-2019
</metadata>
<g transform="translate(0.000000,32.000000) scale(0.100000,-0.100000)"
fill="#000000" stroke="none">
<path fill="#000000" stroke="none" d="M0 160 l0 -160 160 0 160 0 0 160 0
160 -160 0 -160 0 0 -160z"/>
<path fill="#ffffff" stroke="none" d="M188 261 c3 -9 0 -11 -8 -6 -8 5 -11 4
-6 -3 9 -15 -13 -27 -26 -14 -15 15 -1 44 19 40 9 -2 18 -9 21 -17z"/>
<path fill="#ffffff" stroke="none" d="M205 230 c3 -5 1 -10 -4 -10 -6 0 -11
5 -11 10 0 6 2 10 4 10 3 0 8 -4 11 -10z"/>
<path fill="#ffffff" stroke="none" d="M145 221 c6 -11 -33 -36 -42 -27 -3 3
-3 12 0 21 7 17 33 20 42 6z"/>
<path fill="#ffffff" stroke="none" d="M218 193 c-5 -25 -28 -28 -28 -4 0 12
6 21 16 21 9 0 14 -7 12 -17z"/>
<path fill="#ffffff" stroke="none" d="M170 175 c10 -12 10 -18 0 -30 -15 -19
-31 -10 -24 13 4 12 3 13 -3 4 -5 -7 -24 -16 -41 -21 -29 -9 -31 -8 -22 8 5
10 6 22 2 26 -4 4 3 3 14 -3 17 -9 25 -8 34 3 16 19 24 19 40 0z"/>
<path fill="#ffffff" stroke="none" d="M250 150 c0 -12 -7 -20 -17 -20 -17 -1
-17 -2 1 -15 11 -8 16 -21 13 -30 -4 -10 -1 -15 10 -15 24 0 4 -17 -27 -23
-15 -3 -8 -5 20 -6 87 -2 25 -20 -98 -27 l-122 -7 0 27 c0 15 6 29 14 32 8 3
12 13 9 25 -4 13 0 19 11 19 9 0 16 -8 16 -20 0 -18 7 -20 70 -20 68 0 78 5
70 35 -6 21 -7 50 -3 58 9 15 33 6 33 -13z"/>
<path fill="#ffffff" stroke="none" d="M124 124 c9 -3 13 -10 10 -15 -3 -5
-10 -7 -15 -4 -5 4 -9 1 -9 -4 0 -6 8 -11 18 -12 11 0 12 -2 4 -6 -16 -6 -42
15 -42 33 0 15 10 17 34 8z"/>
<path fill="#ffffff" stroke="none" d="M200 110 c0 -5 -8 -10 -17 -10 -15 0
-16 -2 -3 -10 9 -6 10 -10 3 -10 -15 0 -26 17 -18 30 3 6 13 10 21 10 8 0 14
-4 14 -10z"/>
</g>
</svg>
