<?xml version="1.0" standalone="no"?>
<!DOCTYPE svg PUBLIC "-//W3C//DTD SVG 20010904//EN"
 "http://www.w3.org/TR/2001/REC-SVG-20010904/DTD/svg10.dtd">
<svg version="1.0" xmlns="http://www.w3.org/2000/svg"
 width="32.000000pt" height="32.000000pt" viewBox="0 0 32.000000 32.000000"
 preserveAspectRatio="xMidYMid meet">
<metadata>
Created by potrace 1.16, written by Peter Selinger 2001-2019
</metadata>
<g transform="translate(0.000000,32.000000) scale(0.100000,-0.100000)"
fill="#000000" stroke="none">
<path fill="#000000" stroke="none" d="M146 261 c-4 -5 3 -7 14 -4 23 6 26 13
6 13 -8 0 -17 -4 -20 -9z"/>
<path fill="#000000" stroke="none" d="M130 169 c0 -5 5 -7 10 -4 6 3 10 8 10
11 0 2 -4 4 -10 4 -5 0 -10 -5 -10 -11z"/>
<path fill="#000000" stroke="none" d="M85 159 c-10 -15 3 -25 16 -12 7 7 7
13 1 17 -6 3 -14 1 -17 -5z"/>
<path fill="#000000" stroke="none" d="M220 148 c-12 -22 -12 -22 6 -6 10 10
15 20 12 24 -4 3 -12 -5 -18 -18z"/>
<path fill="#000000" stroke="none" d="M100 114 c0 -8 5 -12 10 -9 6 4 8 11 5
16 -9 14 -15 11 -15 -7z"/>
<path fill="#000000" stroke="none" d="M165 110 c-3 -5 1 -10 10 -10 9 0 13 5
10 10 -3 6 -8 10 -10 10 -2 0 -7 -4 -10 -10z"/>
<path fill="#000000" stroke="none" d="M226 93 c-6 -14 -5 -15 5 -6 7 7 10 15
7 18 -3 3 -9 -2 -12 -12z"/>
<path fill="#000000" stroke="none" d="M50 55 c0 -8 -4 -15 -10 -15 -5 0 -10
-6 -10 -13 0 -9 25 -11 111 -5 61 4 114 9 117 12 3 3 -42 7 -99 8 l-104 1 92
6 c50 4 95 10 99 14 4 4 -38 7 -94 7 -84 0 -102 -3 -102 -15z"/>
</g>
</svg>
