<?xml version="1.0" standalone="no"?>
<!DOCTYPE svg PUBLIC "-//W3C//DTD SVG 20010904//EN"
 "http://www.w3.org/TR/2001/REC-SVG-20010904/DTD/svg10.dtd">
<svg version="1.0" xmlns="http://www.w3.org/2000/svg"
 width="32.000000pt" height="32.000000pt" viewBox="0 0 32.000000 32.000000"
 preserveAspectRatio="xMidYMid meet">
<metadata>
Created by potrace 1.16, written by Peter Selinger 2001-2019
</metadata>
<g transform="translate(0.000000,32.000000) scale(0.100000,-0.100000)"
fill="#000000" stroke="none">
<path fill="#000000" stroke="none" d="M131 269 c-18 -7 -22 -15 -18 -34 2
-14 2 -24 -1 -21 -2 3 -11 -2 -20 -11 -12 -12 -13 -19 -4 -34 10 -15 10 -19 0
-17 -7 2 -14 -7 -16 -19 -2 -13 -8 -23 -14 -23 -6 0 -8 -9 -5 -19 3 -12 -1
-22 -9 -25 -8 -3 -14 -17 -14 -31 l0 -25 130 0 130 0 0 25 c0 14 -8 29 -21 35
-11 6 -19 19 -18 28 4 44 -2 82 -16 96 -8 8 -15 22 -15 30 0 19 -35 56 -52 55
-7 0 -24 -5 -37 -10z"/>
<path fill="#ffffff" stroke="none" d="M210 234 c0 -3 -4 -2 -10 1 -5 3 -10 1
-10 -4 0 -6 5 -11 12 -11 6 0 9 -2 6 -5 -11 -11 -37 7 -35 25 1 15 5 16 19 9
10 -5 18 -12 18 -15z"/>
<path fill="#ffffff" stroke="none" d="M156 223 c-7 -7 -26 7 -26 19 0 6 6 6
15 -2 9 -7 13 -15 11 -17z"/>
<path fill="#ffffff" stroke="none" d="M155 200 c-7 -11 -45 -33 -45 -26 0 2
7 12 16 20 17 18 39 22 29 6z"/>
<path fill="#ffffff" stroke="none" d="M217 161 c-1 -15 -4 -17 -14 -10 -9 8
-11 6 -8 -11 2 -12 0 -20 -6 -18 -6 2 -10 7 -10 11 1 4 1 13 1 21 0 8 8 17 18
19 9 3 18 5 19 6 1 0 1 -8 0 -18z"/>
<path fill="#ffffff" stroke="none" d="M148 145 c0 -27 -2 -28 -33 -16 -19 8
-19 8 3 15 12 4 22 12 22 17 0 5 2 9 4 9 2 0 4 -11 4 -25z"/>
<path fill="#ffffff" stroke="none" d="M113 100 c3 6 4 5 3 -2 -4 -20 -36 -22
-36 -3 0 14 3 15 14 6 10 -8 16 -9 19 -1z"/>
<path fill="#ffffff" stroke="none" d="M171 93 c3 1 1 -2 -3 -7 -8 -11 -38 0
-38 14 0 7 6 8 19 1 10 -6 20 -9 22 -8z"/>
<path fill="#ffffff" stroke="none" d="M222 88 c-9 -9 -15 -9 -24 0 -9 9 -7
12 12 12 19 0 21 -3 12 -12z"/>
</g>
</svg>
