<?xml version="1.0" standalone="no"?>
<!DOCTYPE svg PUBLIC "-//W3C//DTD SVG 20010904//EN"
 "http://www.w3.org/TR/2001/REC-SVG-20010904/DTD/svg10.dtd">
<svg version="1.0" xmlns="http://www.w3.org/2000/svg"
 width="32.000000pt" height="32.000000pt" viewBox="0 0 32.000000 32.000000"
 preserveAspectRatio="xMidYMid meet">
<metadata>
Created by potrace 1.16, written by Peter Selinger 2001-2019
</metadata>
<g transform="translate(0.000000,32.000000) scale(0.100000,-0.100000)"
fill="#000000" stroke="none">
<path fill="#000000" stroke="none" d="M0 160 l0 -160 160 0 160 0 0 160 0
160 -160 0 -160 0 0 -160z"/>
<path fill="#ffffff" stroke="none" d="M199 258 c20 -21 20 -38 -1 -38 -5 0
-8 6 -5 14 3 8 -1 17 -9 20 -8 3 -12 2 -9 -3 8 -14 -15 -25 -27 -13 -14 14 -3
42 16 42 9 0 24 -10 35 -22z"/>
<path fill="#ffffff" stroke="none" d="M122 248 c-7 -7 -12 -8 -12 -2 0 14 12
26 19 19 2 -3 -1 -11 -7 -17z"/>
<path fill="#ffffff" stroke="none" d="M155 220 c14 -6 16 -9 4 -9 -21 -1 -56
-28 -47 -37 4 -4 14 -1 22 5 19 16 37 6 30 -17 -5 -14 -4 -15 5 -2 14 20 15
-4 1 -30 -9 -16 -8 -19 7 -13 26 9 43 24 38 33 -3 4 2 13 9 19 18 15 25 4 27
-40 2 -38 20 -89 31 -89 5 0 8 -7 8 -15 0 -13 -21 -15 -130 -15 l-130 0 0 25
c0 14 6 28 14 31 8 3 12 13 9 25 -3 10 -1 19 5 19 5 0 13 11 16 25 4 17 11 23
19 18 8 -5 8 -2 -1 9 -11 14 -11 21 3 42 18 27 28 30 60 16z"/>
<path fill="#ffffff" stroke="none" d="M229 201 c24 -15 -24 -35 -50 -20 -17
9 -19 13 -8 20 8 5 21 9 29 9 8 0 21 -4 29 -9z"/>
<path fill="#ffffff" stroke="none" d="M205 151 c3 -5 2 -12 -3 -15 -5 -3 -9
1 -9 9 0 17 3 19 12 6z"/>
<path fill="#000000" stroke="none" d="M140 161 c0 -5 -13 -14 -30 -20 -23 -8
-30 -16 -30 -36 0 -19 5 -26 17 -23 9 2 18 9 19 16 1 7 0 8 -3 2 -7 -14 -23
-2 -23 16 0 10 8 14 23 12 15 -2 21 -9 19 -21 -4 -22 25 -34 41 -17 9 10 9 11
0 6 -15 -8 -24 7 -25 44 -1 17 -3 30 -5 30 -1 0 -3 -4 -3 -9z"/>
<path fill="#000000" stroke="none" d="M201 101 c-10 -7 -10 -10 -1 -16 6 -4
16 -3 22 3 13 13 -4 23 -21 13z"/>
</g>
</svg>
