<?xml version="1.0" standalone="no"?>
<!DOCTYPE svg PUBLIC "-//W3C//DTD SVG 20010904//EN"
 "http://www.w3.org/TR/2001/REC-SVG-20010904/DTD/svg10.dtd">
<svg version="1.0" xmlns="http://www.w3.org/2000/svg"
 width="32.000000pt" height="32.000000pt" viewBox="0 0 32.000000 32.000000"
 preserveAspectRatio="xMidYMid meet">
<metadata>
Created by potrace 1.16, written by Peter Selinger 2001-2019
</metadata>
<g transform="translate(0.000000,32.000000) scale(0.100000,-0.100000)"
fill="#000000" stroke="none">
<path fill="#000000" stroke="none" d="M90 270 c0 -36 3 -40 25 -40 14 0 25 5
25 10 0 6 -7 10 -15 10 -8 0 -15 8 -15 18 0 15 6 18 30 14 17 -2 30 -8 30 -13
0 -5 5 -9 10 -9 6 0 10 11 10 25 0 23 -3 25 -50 25 l-50 0 0 -40z"/>
<path fill="#000000" stroke="none" d="M201 288 c0 -16 2 -18 6 -8 3 8 11 18
17 22 7 5 4 8 -6 8 -12 0 -18 -7 -17 -22z"/>
<path fill="#000000" stroke="none" d="M163 220 c1 -18 3 -18 19 -3 22 20 22
18 -1 20 -14 1 -19 -4 -18 -17z"/>
<path fill="#000000" stroke="none" d="M103 204 c-7 -7 -13 -38 -13 -69 l0
-55 56 0 57 0 -7 31 c-3 17 -6 38 -6 45 0 8 -4 14 -10 14 -5 0 -10 -6 -10 -14
0 -7 -11 -16 -25 -18 -14 -3 -25 -1 -25 3 0 5 9 9 20 9 14 0 20 7 20 21 0 16
-4 19 -19 14 -14 -4 -20 -1 -23 14 -2 16 -5 17 -15 5z"/>
<path fill="#000000" stroke="none" d="M210 160 c0 -5 5 -10 10 -10 6 0 10 5
10 10 0 6 -4 10 -10 10 -5 0 -10 -4 -10 -10z"/>
<path fill="#000000" stroke="none" d="M53 76 c-13 -13 -23 -34 -23 -46 0 -22
2 -23 77 -16 42 3 98 6 125 6 65 0 62 20 -4 22 -51 1 -51 2 -10 5 79 8 43 23
-54 23 -81 0 -95 2 -90 15 7 20 5 19 -21 -9z"/>
<path fill="#000000" stroke="none" d="M210 90 c0 -5 5 -10 10 -10 6 0 10 5
10 10 0 6 -4 10 -10 10 -5 0 -10 -4 -10 -10z"/>
</g>
</svg>
