<?xml version="1.0" standalone="no"?>
<!DOCTYPE svg PUBLIC "-//W3C//DTD SVG 20010904//EN"
 "http://www.w3.org/TR/2001/REC-SVG-20010904/DTD/svg10.dtd">
<svg version="1.0" xmlns="http://www.w3.org/2000/svg"
 width="32.000000pt" height="32.000000pt" viewBox="0 0 32.000000 32.000000"
 preserveAspectRatio="xMidYMid meet">
<metadata>
Created by potrace 1.16, written by Peter Selinger 2001-2019
</metadata>
<g transform="translate(0.000000,32.000000) scale(0.100000,-0.100000)"
fill="#000000" stroke="none">
<path fill="#000000" stroke="none" d="M70 293 c0 -19 -5 -23 -30 -23 -29 0
-30 -1 -31 -52 0 -29 -3 -90 -5 -135 l-4 -83 157 0 158 0 2 141 c2 124 1 140
-13 135 -9 -3 -20 -6 -25 -6 -5 0 -9 -12 -9 -26 0 -16 -5 -24 -12 -21 -7 2
-23 -5 -36 -17 -20 -17 -24 -18 -32 -6 -5 8 -10 24 -10 35 0 28 -29 67 -45 61
-7 -2 -16 1 -19 9 -9 24 -46 14 -46 -12z"/>
<path fill="#ffffff" stroke="none" d="M155 155 c-2 -14 1 -25 6 -25 12 0 11
-37 -1 -45 -13 -8 -42 14 -34 26 3 5 10 7 15 4 5 -4 6 3 1 17 -9 26 -5 61 7
53 5 -2 7 -16 6 -30z"/>
</g>
</svg>
