<?xml version="1.0" standalone="no"?>
<!DOCTYPE svg PUBLIC "-//W3C//DTD SVG 20010904//EN"
 "http://www.w3.org/TR/2001/REC-SVG-20010904/DTD/svg10.dtd">
<svg version="1.0" xmlns="http://www.w3.org/2000/svg"
 width="32.000000pt" height="32.000000pt" viewBox="0 0 32.000000 32.000000"
 preserveAspectRatio="xMidYMid meet">
<metadata>
Created by potrace 1.16, written by Peter Selinger 2001-2019
</metadata>
<g transform="translate(0.000000,32.000000) scale(0.100000,-0.100000)"
fill="#000000" stroke="none">
<path fill="#000000" stroke="none" d="M104 305 c-4 -8 -3 -23 1 -32 12 -26
13 -83 3 -89 -19 -12 -58 26 -58 56 0 23 -4 30 -20 30 -17 0 -20 -7 -21 -52 0
-29 -3 -90 -5 -135 l-4 -83 157 0 158 0 2 140 c2 80 -1 140 -7 140 -5 0 -17
-14 -27 -30 -10 -17 -23 -28 -30 -26 -7 3 -15 0 -19 -6 -4 -6 -12 3 -20 20 -7
17 -31 42 -53 56 -47 30 -50 31 -57 11z"/>
<path fill="#ffffff" stroke="none" d="M196 248 c9 -17 11 -27 4 -23 -6 3 -2
-8 10 -27 22 -36 26 -53 10 -43 -14 9 -13 -8 2 -23 9 -9 8 -15 -8 -27 -30 -23
-63 -29 -92 -14 -15 7 -30 13 -34 13 -3 1 -10 4 -14 9 -7 6 10 11 29 8 5 -1 6
3 2 9 -3 5 5 20 18 32 20 19 22 28 16 53 -8 28 -7 29 6 11 8 -11 15 -25 15
-30 0 -6 5 -3 11 7 13 22 -7 81 -24 70 -6 -3 -7 -1 -3 5 10 17 35 3 52 -30z"/>
</g>
</svg>
