<?xml version="1.0" standalone="no"?>
<!DOCTYPE svg PUBLIC "-//W3C//DTD SVG 20010904//EN"
 "http://www.w3.org/TR/2001/REC-SVG-20010904/DTD/svg10.dtd">
<svg version="1.0" xmlns="http://www.w3.org/2000/svg"
 width="32.000000pt" height="32.000000pt" viewBox="0 0 32.000000 32.000000"
 preserveAspectRatio="xMidYMid meet">
<metadata>
Created by potrace 1.16, written by Peter Selinger 2001-2019
</metadata>
<g transform="translate(0.000000,32.000000) scale(0.100000,-0.100000)"
fill="#000000" stroke="none">
<path fill="#000000" stroke="none" d="M2 190 c2 -71 4 -125 6 -120 2 6 10 6
21 0 28 -14 33 0 8 22 l-22 19 28 -17 c26 -16 28 -16 40 1 12 16 14 16 28 -2
13 -16 13 -17 -3 -4 -11 8 -18 9 -18 3 0 -6 12 -20 26 -31 31 -24 21 -27 -18
-7 -27 14 -27 14 -17 -12 l10 -26 -21 19 c-16 14 -21 16 -18 5 2 -10 -3 -14
-16 -12 -11 2 -15 -1 -11 -7 3 -6 31 -11 61 -11 38 0 53 4 48 11 -5 8 -1 8 14
0 22 -11 90 -16 79 -5 -3 4 1 13 9 21 20 20 31 8 13 -14 -12 -16 -11 -16 8 1
17 14 19 21 10 31 -7 7 -16 10 -22 7 -5 -3 2 8 18 25 19 21 30 47 37 89 15 93
14 105 -10 69 -26 -40 -41 -38 -64 10 -10 22 -23 43 -30 47 -8 6 -7 8 2 8 7 0
22 -20 33 -45 11 -25 23 -45 27 -45 4 0 16 13 25 30 10 17 22 30 28 30 5 0 9
9 9 20 0 19 -5 21 -67 18 -52 -2 -67 -6 -65 -17 2 -8 0 -21 -3 -29 -5 -13 -8
-12 -21 4 -14 17 -15 17 -10 2 3 -12 -3 -24 -20 -35 -23 -15 -62 -88 -56 -106
4 -14 -26 -19 -47 -7 -16 8 -21 19 -19 48 l1 37 4 -35 c4 -31 16 -49 34 -50 3
0 13 16 22 36 15 30 15 39 5 52 -10 12 -10 14 -1 8 18 -10 77 35 61 46 -10 6
-6 13 12 28 l25 20 -88 0 -89 0 4 -130z"/>
<path fill="#ffffff" stroke="none" d="M271 141 c-6 -11 -21 -26 -34 -32 -18
-10 -17 -7 6 14 15 14 27 32 27 38 0 7 3 10 6 7 3 -4 1 -16 -5 -27z"/>
<path fill="#ffffff" stroke="none" d="M177 65 c0 -9 -4 -11 -11 -6 -6 4 -18
11 -26 14 -9 3 -5 6 11 6 16 1 26 -4 26 -14z"/>
<path fill="#000000" stroke="none" d="M311 145 c0 -11 -4 -31 -7 -45 -5 -19
-4 -22 5 -14 7 6 11 26 8 45 -2 19 -5 25 -6 14z"/>
<path fill="#000000" stroke="none" d="M305 20 c-3 -5 -1 -10 4 -10 6 0 11 5
11 10 0 6 -2 10 -4 10 -3 0 -8 -4 -11 -10z"/>
</g>
</svg>
