<?xml version="1.0" standalone="no"?>
<!DOCTYPE svg PUBLIC "-//W3C//DTD SVG 20010904//EN"
 "http://www.w3.org/TR/2001/REC-SVG-20010904/DTD/svg10.dtd">
<svg version="1.0" xmlns="http://www.w3.org/2000/svg"
 width="32.000000pt" height="32.000000pt" viewBox="0 0 32.000000 32.000000"
 preserveAspectRatio="xMidYMid meet">
<metadata>
Created by potrace 1.16, written by Peter Selinger 2001-2019
</metadata>
<g transform="translate(0.000000,32.000000) scale(0.100000,-0.100000)"
fill="#000000" stroke="none">
<path fill="#000000" stroke="none" d="M2 228 c2 -83 2 -85 5 -25 4 61 6 67
26 67 12 0 30 12 40 25 l18 25 -46 0 -45 0 2 -92z"/>
<path fill="#000000" stroke="none" d="M170 306 c0 -8 -8 -17 -17 -20 -14 -6
-15 -9 -4 -15 10 -7 11 -10 0 -16 -7 -5 -19 0 -30 13 -13 16 -19 19 -26 9 -18
-23 -20 -42 -6 -72 12 -26 13 -27 9 -5 l-5 25 19 -25 c26 -33 25 -19 -1 33
l-22 42 22 -19 c11 -11 21 -27 21 -38 0 -10 4 -18 10 -18 18 0 32 -40 20 -56
-7 -7 -16 -12 -20 -9 -4 2 -7 -8 -6 -23 1 -38 36 -41 70 -7 33 33 33 42 -1 78
l-28 30 25 -13 c25 -13 25 -13 6 8 -10 12 -27 24 -37 27 -11 4 -17 11 -13 16
3 6 12 5 22 -3 12 -9 11 -6 -2 10 -25 29 -9 28 23 -2 15 -13 36 -27 48 -30 18
-6 24 -2 29 18 3 14 15 28 25 31 10 4 19 15 19 26 0 17 -8 19 -75 19 -57 0
-75 -3 -75 -14z"/>
<path fill="#ffffff" stroke="none" d="M218 135 c-3 -3 -9 2 -12 12 -6 14 -5
15 5 6 7 -7 10 -15 7 -18z"/>
<path fill="#000000" stroke="none" d="M61 168 c-1 -28 3 -38 14 -38 17 0 20
11 6 26 -5 5 -11 18 -14 29 -3 11 -5 4 -6 -17z"/>
<path fill="#000000" stroke="none" d="M311 144 c0 -11 3 -14 6 -6 3 7 2 16
-1 19 -3 4 -6 -2 -5 -13z"/>
</g>
</svg>
