<?xml version="1.0" standalone="no"?>
<!DOCTYPE svg PUBLIC "-//W3C//DTD SVG 20010904//EN"
 "http://www.w3.org/TR/2001/REC-SVG-20010904/DTD/svg10.dtd">
<svg version="1.0" xmlns="http://www.w3.org/2000/svg"
 width="32.000000pt" height="32.000000pt" viewBox="0 0 32.000000 32.000000"
 preserveAspectRatio="xMidYMid meet">
<metadata>
Created by potrace 1.16, written by Peter Selinger 2001-2019
</metadata>
<g transform="translate(0.000000,32.000000) scale(0.100000,-0.100000)"
fill="#000000" stroke="none">
<path fill="#000000" stroke="none" d="M72 295 c-11 -14 -29 -25 -41 -25 -19
0 -21 -6 -22 -52 0 -29 -3 -90 -5 -135 l-4 -83 157 0 158 0 2 140 c2 77 -1
140 -5 140 -15 0 -30 -16 -36 -38 -9 -28 -37 -22 -77 14 -17 16 -32 23 -45 18
-18 -5 -18 -5 -1 9 27 22 20 34 -22 35 -31 1 -44 -3 -59 -23z"/>
<path fill="#ffffff" stroke="none" d="M153 263 c8 3 23 -3 33 -14 9 -10 13
-19 8 -19 -5 0 2 -7 14 -16 23 -16 32 -43 9 -28 -7 5 -2 -1 12 -13 l24 -22
-36 -36 c-27 -27 -43 -36 -63 -33 -25 3 -46 38 -23 38 6 0 7 5 4 10 -3 6 1 10
9 10 23 0 29 18 13 41 -14 20 -16 20 -25 2 -10 -17 -11 -16 -22 7 l-10 25 3
-27 c6 -38 0 -35 -18 8 -12 29 -14 69 -4 82 1 2 5 13 8 30 1 4 12 -6 25 -22
15 -18 30 -27 39 -23z"/>
<path fill="#ffffff" stroke="none" d="M81 156 c14 -15 11 -26 -6 -26 -11 0
-15 10 -14 38 1 21 3 28 6 17 3 -11 9 -24 14 -29z"/>
<path fill="#000000" stroke="none" d="M110 229 c7 -11 14 -18 17 -15 8 8 -5
36 -17 36 -7 0 -7 -6 0 -21z"/>
</g>
</svg>
