<?xml version="1.0" standalone="no"?>
<!DOCTYPE svg PUBLIC "-//W3C//DTD SVG 20010904//EN"
 "http://www.w3.org/TR/2001/REC-SVG-20010904/DTD/svg10.dtd">
<svg version="1.0" xmlns="http://www.w3.org/2000/svg"
 width="32.000000pt" height="32.000000pt" viewBox="0 0 32.000000 32.000000"
 preserveAspectRatio="xMidYMid meet">
<metadata>
Created by potrace 1.16, written by Peter Selinger 2001-2019
</metadata>
<g transform="translate(0.000000,32.000000) scale(0.100000,-0.100000)"
fill="#000000" stroke="none">
<path fill="#000000" stroke="none" d="M283 250 c-10 -17 -23 -28 -29 -26 -7
3 -22 -7 -35 -22 l-24 -27 23 20 c13 11 30 20 38 20 8 0 24 14 35 30 l21 30
-6 -68 c-3 -37 -14 -88 -25 -113 -11 -24 -15 -42 -9 -38 8 5 9 1 4 -11 -5 -15
-4 -16 9 -5 8 7 15 8 15 2 0 -27 -31 -33 -156 -30 l-129 3 -3 25 c-4 25 -3 25
13 5 15 -19 15 -18 0 12 -8 18 -15 43 -15 57 0 23 2 24 29 13 20 -7 37 -8 52
-1 19 9 17 10 -17 10 -21 0 -46 2 -54 4 -12 4 -15 -8 -17 -67 l-2 -72 161 0
c89 1 156 4 149 9 -9 5 -10 10 -2 14 6 4 11 21 11 37 0 20 -4 28 -11 23 -8 -5
-10 3 -6 27 4 19 9 64 13 102 8 75 -3 87 -33 37z"/>
<path fill="#000000" stroke="none" d="M184 84 c-18 -14 -18 -15 4 -4 12 6 22
13 22 15 0 8 -5 6 -26 -11z"/>
<path fill="#000000" stroke="none" d="M76 81 c-3 -5 3 -11 15 -14 16 -4 18
-3 8 9 -13 16 -16 17 -23 5z"/>
<path fill="#000000" stroke="none" d="M138 73 c7 -3 16 -2 19 1 4 3 -2 6 -13
5 -11 0 -14 -3 -6 -6z"/>
<path fill="#000000" stroke="none" d="M50 66 c0 -2 8 -10 18 -17 15 -13 16
-12 3 4 -13 16 -21 21 -21 13z"/>
</g>
</svg>
