<?xml version="1.0" standalone="no"?>
<!DOCTYPE svg PUBLIC "-//W3C//DTD SVG 20010904//EN"
 "http://www.w3.org/TR/2001/REC-SVG-20010904/DTD/svg10.dtd">
<svg version="1.0" xmlns="http://www.w3.org/2000/svg"
 width="32.000000pt" height="32.000000pt" viewBox="0 0 32.000000 32.000000"
 preserveAspectRatio="xMidYMid meet">
<metadata>
Created by potrace 1.16, written by Peter Selinger 2001-2019
</metadata>
<g transform="translate(0.000000,32.000000) scale(0.100000,-0.100000)"
fill="#000000" stroke="none">
<path fill="#000000" stroke="none" d="M115 292 c-33 -23 -44 -39 -60 -90 -23
-70 -35 -79 -35 -25 0 74 -11 23 -16 -76 l-5 -101 163 0 c95 0 157 4 149 9 -9
6 -10 11 -2 15 6 4 11 21 11 37 0 20 -4 28 -12 23 -8 -5 -9 0 -4 17 4 13 10
59 13 102 6 85 -3 98 -34 47 -9 -17 -22 -29 -28 -27 -5 2 -23 -7 -39 -20 -16
-13 -34 -22 -40 -20 -14 5 -15 66 -2 88 10 17 2 49 -11 49 -4 -1 -26 -13 -48
-28z"/>
<path fill="#ffffff" stroke="none" d="M132 270 c-18 -16 -32 -35 -32 -42 0
-16 20 -48 20 -32 0 5 6 19 14 29 13 19 14 18 10 -5 -2 -14 2 -34 11 -44 14
-18 15 -18 52 10 21 16 43 29 50 29 8 0 22 14 33 30 24 36 25 24 10 -69 -7
-42 -18 -68 -37 -89 -16 -17 -23 -28 -18 -25 6 3 15 0 22 -7 9 -10 7 -17 -10
-31 -19 -17 -20 -17 -8 -1 18 22 7 34 -13 14 -8 -8 -12 -17 -9 -21 11 -11 -57
-6 -79 5 -15 8 -19 8 -14 0 5 -7 -10 -11 -48 -11 -30 0 -58 5 -61 11 -4 6 0 9
11 7 13 -2 18 2 16 12 -3 11 2 9 18 -5 l21 -19 -10 26 c-10 26 -10 26 17 12
39 -20 49 -17 18 7 -14 11 -26 25 -26 31 0 6 7 5 17 -3 17 -13 17 -12 4 4 -14
18 -16 18 -28 2 -12 -17 -14 -17 -40 -1 l-28 17 22 -19 c25 -22 20 -36 -8 -21
-24 13 -27 67 -3 65 12 -1 22 17 36 62 16 51 27 67 57 86 47 31 54 23 13 -14z"/>
<path fill="#000000" stroke="none" d="M265 151 c-7 -22 -66 -61 -107 -70
l-27 -6 24 -12 c14 -6 23 -7 20 -3 -3 5 15 21 40 36 42 24 73 59 62 71 -3 2
-8 -5 -12 -16z"/>
</g>
</svg>
