<?xml version="1.0" standalone="no"?>
<!DOCTYPE svg PUBLIC "-//W3C//DTD SVG 20010904//EN"
 "http://www.w3.org/TR/2001/REC-SVG-20010904/DTD/svg10.dtd">
<svg version="1.0" xmlns="http://www.w3.org/2000/svg"
 width="32.000000pt" height="32.000000pt" viewBox="0 0 32.000000 32.000000"
 preserveAspectRatio="xMidYMid meet">
<metadata>
Created by potrace 1.16, written by Peter Selinger 2001-2019
</metadata>
<g transform="translate(0.000000,32.000000) scale(0.100000,-0.100000)"
fill="#000000" stroke="none">
<path fill="#000000" stroke="none" d="M150 300 c-18 -15 -22 -22 -12 -28 9
-6 4 -14 -18 -31 -17 -12 -35 -19 -40 -16 -5 3 -11 -14 -13 -37 -3 -34 -4 -30
-5 20 -2 59 -3 62 -27 62 -23 0 -25 -3 -26 -52 0 -29 -3 -90 -5 -135 l-4 -83
157 0 158 0 2 140 c2 77 -1 140 -5 140 -15 0 -30 -16 -36 -37 -11 -34 -24 -28
-42 17 -9 22 -25 45 -35 50 -22 13 -19 13 -49 -10z"/>
<path fill="#ffffff" stroke="none" d="M219 274 c15 -35 14 -64 -5 -85 -12
-13 -13 -22 -5 -38 15 -27 14 -37 -5 -55 -21 -21 -63 -20 -81 1 -9 11 -12 12
-7 3 4 -9 -2 -6 -13 5 -15 15 -18 26 -13 45 15 50 28 75 48 93 12 11 18 26 16
35 -5 14 -3 14 9 -1 16 -20 33 -7 23 18 -9 25 21 5 33 -21z"/>
</g>
</svg>
