<?xml version="1.0" standalone="no"?>
<!DOCTYPE svg PUBLIC "-//W3C//DTD SVG 20010904//EN"
 "http://www.w3.org/TR/2001/REC-SVG-20010904/DTD/svg10.dtd">
<svg version="1.0" xmlns="http://www.w3.org/2000/svg"
 width="32.000000pt" height="32.000000pt" viewBox="0 0 32.000000 32.000000"
 preserveAspectRatio="xMidYMid meet">
<metadata>
Created by potrace 1.16, written by Peter Selinger 2001-2019
</metadata>
<g transform="translate(0.000000,32.000000) scale(0.100000,-0.100000)"
fill="#000000" stroke="none">
<path fill="#000000" stroke="none" d="M117 307 c-10 -7 -24 -30 -31 -52 -12
-34 -19 -40 -45 -43 -24 -3 -31 -8 -32 -25 0 -12 -3 -59 -5 -104 l-4 -83 162
0 c95 0 157 4 149 9 -7 5 -9 11 -4 14 12 8 15 257 3 257 -5 0 -17 -13 -26 -29
-20 -34 -44 -36 -87 -7 -21 14 -25 21 -15 28 10 6 7 13 -12 28 -30 23 -31 24
-53 7z"/>
<path fill="#ffffff" stroke="none" d="M135 300 c-4 -6 -4 -18 -1 -27 6 -14 8
-14 22 3 10 12 14 14 11 4 -3 -8 6 -26 18 -40 13 -14 30 -45 38 -69 l15 -45
-35 -23 c-40 -27 -65 -29 -87 -7 -19 18 -20 28 -5 55 8 16 7 25 -5 38 -26 28
-15 91 18 113 15 11 18 10 11 -2z"/>
</g>
</svg>
