<?xml version="1.0" standalone="no"?>
<!DOCTYPE svg PUBLIC "-//W3C//DTD SVG 20010904//EN"
 "http://www.w3.org/TR/2001/REC-SVG-20010904/DTD/svg10.dtd">
<svg version="1.0" xmlns="http://www.w3.org/2000/svg"
 width="32.000000pt" height="32.000000pt" viewBox="0 0 32.000000 32.000000"
 preserveAspectRatio="xMidYMid meet">
<metadata>
Created by potrace 1.16, written by Peter Selinger 2001-2019
</metadata>
<g transform="translate(0.000000,32.000000) scale(0.100000,-0.100000)"
fill="#000000" stroke="none">
<path fill="#000000" stroke="none" d="M2 228 c2 -83 2 -85 5 -25 3 50 8 67
18 67 8 0 15 -7 15 -15 0 -8 -4 -15 -10 -15 -5 0 -10 -22 -10 -50 0 -54 14
-67 23 -22 8 40 86 114 112 106 19 -5 19 -4 3 9 -10 8 -18 19 -18 26 0 7 -24
11 -70 11 l-70 0 2 -92z"/>
<path fill="#000000" stroke="none" d="M173 307 c9 -8 17 -19 17 -25 0 -11
-28 -24 -39 -17 -4 2 -28 -17 -52 -42 -24 -25 -37 -42 -29 -38 10 6 8 1 -4
-13 -15 -17 -16 -25 -7 -36 6 -7 9 -20 5 -29 -3 -8 -1 -18 4 -21 6 -3 13 1 16
10 3 8 10 12 16 9 6 -4 8 -10 5 -15 -3 -5 0 -12 6 -16 7 -4 9 -3 6 3 -4 6 8
10 31 9 20 0 37 4 37 9 0 6 4 16 9 24 7 11 5 13 -9 7 -18 -7 -18 -6 0 14 14
16 15 20 4 20 -8 0 -20 -5 -26 -11 -17 -17 -23 14 -7 35 12 17 14 18 20 2 5
-13 9 -14 20 -5 12 10 13 8 7 -7 -6 -17 -5 -17 10 -6 22 19 33 99 17 126 -12
19 -12 20 3 7 10 -8 17 -28 17 -47 0 -19 5 -34 10 -34 6 0 8 10 4 24 -5 20 -1
24 25 29 22 5 31 12 31 27 0 17 -6 20 -47 20 -27 0 -55 -4 -62 -9 -9 -6 -23
-6 -35 0 -19 9 -20 9 -3 -4z"/>
<path fill="#ffffff" stroke="none" d="M200 229 c-7 -11 -14 -18 -17 -15 -3 3
0 12 7 21 18 21 23 19 10 -6z"/>
<path fill="#000000" stroke="none" d="M286 233 c-6 -14 -5 -15 5 -6 7 7 10
15 7 18 -3 3 -9 -2 -12 -12z"/>
<path fill="#000000" stroke="none" d="M250 183 c-36 -25 -58 -53 -42 -53 6 0
13 7 16 16 4 9 10 14 14 10 4 -4 -6 -19 -23 -33 -20 -17 -24 -23 -10 -18 11 4
29 9 40 10 13 1 19 8 17 20 -2 10 1 14 7 10 7 -3 8 0 5 9 -3 9 -11 13 -18 9
-6 -3 -1 4 12 16 12 12 22 24 22 26 0 7 -1 6 -40 -22z"/>
<path fill="#000000" stroke="none" d="M311 144 c0 -11 3 -14 6 -6 3 7 2 16
-1 19 -3 4 -6 -2 -5 -13z"/>
<path fill="#000000" stroke="none" d="M195 70 c-10 -11 -24 -20 -31 -20 -17
0 -11 -33 7 -38 11 -3 11 -2 1 6 -10 7 -10 11 2 21 8 7 21 9 27 5 8 -4 9 -3 5
5 -4 6 -2 18 4 26 19 22 6 18 -15 -5z"/>
</g>
</svg>
