<?xml version="1.0" standalone="no"?>
<!DOCTYPE svg PUBLIC "-//W3C//DTD SVG 20010904//EN"
 "http://www.w3.org/TR/2001/REC-SVG-20010904/DTD/svg10.dtd">
<svg version="1.0" xmlns="http://www.w3.org/2000/svg"
 width="32.000000pt" height="32.000000pt" viewBox="0 0 32.000000 32.000000"
 preserveAspectRatio="xMidYMid meet">
<metadata>
Created by potrace 1.16, written by Peter Selinger 2001-2019
</metadata>
<g transform="translate(0.000000,32.000000) scale(0.100000,-0.100000)"
fill="#000000" stroke="none">
<path fill="#000000" stroke="none" d="M140 306 c0 -8 8 -17 17 -20 14 -6 15
-9 4 -15 -10 -7 -11 -10 0 -16 7 -5 19 0 30 13 13 16 19 19 26 9 18 -23 20
-42 6 -72 -12 -26 -13 -27 -9 -5 l5 25 -19 -25 c-26 -33 -25 -19 1 33 l22 42
-22 -19 c-11 -11 -21 -27 -21 -38 0 -10 -4 -18 -10 -18 -18 0 -32 -40 -20 -56
7 -7 16 -12 20 -9 4 2 7 -8 6 -23 -1 -38 -36 -41 -70 -7 -33 33 -33 42 2 78
l27 30 -25 -13 c-25 -13 -25 -13 -6 8 10 12 27 24 37 27 11 4 17 11 13 16 -3
6 -12 5 -22 -3 -12 -9 -11 -6 2 10 32 37 3 24 -39 -18 -22 -21 -43 -39 -47
-40 -5 0 -8 16 -8 35 0 24 -5 35 -15 35 -11 0 -15 -13 -16 -52 0 -29 -3 -90
-5 -135 l-4 -83 157 0 158 0 2 141 c2 124 1 140 -13 135 -9 -3 -22 -6 -29 -6
-8 0 -16 -12 -18 -27 -3 -24 -4 -22 -6 8 0 20 -9 43 -19 52 -23 21 -92 23 -92
3z"/>
<path fill="#000000" stroke="none" d="M95 149 c-4 -6 -5 -12 -2 -15 2 -3 7 2
10 11 7 17 1 20 -8 4z"/>
</g>
</svg>
