<?xml version="1.0" standalone="no"?>
<!DOCTYPE svg PUBLIC "-//W3C//DTD SVG 20010904//EN"
 "http://www.w3.org/TR/2001/REC-SVG-20010904/DTD/svg10.dtd">
<svg version="1.0" xmlns="http://www.w3.org/2000/svg"
 width="32.000000pt" height="32.000000pt" viewBox="0 0 32.000000 32.000000"
 preserveAspectRatio="xMidYMid meet">
<metadata>
Created by potrace 1.16, written by Peter Selinger 2001-2019
</metadata>
<g transform="translate(0.000000,32.000000) scale(0.100000,-0.100000)"
fill="#000000" stroke="none">
<path fill="#000000" stroke="none" d="M68 283 c-59 -26 -69 -41 -43 -63 11
-10 21 -7 47 12 46 32 120 32 166 -1 30 -21 35 -22 49 -8 22 22 11 43 -36 67
-53 27 -113 25 -183 -7z"/>
<path fill="#000000" stroke="none" d="M115 243 c-10 -3 -30 -12 -43 -21 l-23
-15 27 -29 c19 -19 31 -25 38 -18 5 5 24 10 41 10 17 0 36 -5 41 -10 7 -7 19
-1 38 18 l27 29 -25 16 c-27 18 -90 29 -121 20z"/>
<path fill="#ffffff" stroke="none" d="M170 210 c0 -20 -5 -30 -15 -30 -10 0
-15 10 -15 30 0 20 5 30 15 30 10 0 15 -10 15 -30z"/>
<path fill="#ffffff" stroke="none" d="M127 193 c-3 -10 -5 -4 -5 12 0 17 2
24 5 18 2 -7 2 -21 0 -30z"/>
<path fill="#ffffff" stroke="none" d="M187 193 c-3 -10 -5 -4 -5 12 0 17 2
24 5 18 2 -7 2 -21 0 -30z"/>
<path fill="#ffffff" stroke="none" d="M100 199 c0 -6 -4 -7 -10 -4 -5 3 -10
11 -10 16 0 6 5 7 10 4 6 -3 10 -11 10 -16z"/>
<path fill="#ffffff" stroke="none" d="M234 211 c3 -4 -4 -17 -16 -27 -12 -11
-19 -14 -16 -9 3 6 8 18 11 28 7 19 13 21 21 8z"/>
<path fill="#000000" stroke="none" d="M76 153 c-3 -3 -6 -21 -6 -39 0 -23 -6
-37 -20 -44 -12 -6 -20 -21 -20 -35 l0 -25 120 0 c130 0 133 1 104 55 -9 17
-16 42 -16 56 1 26 0 27 -66 26 -37 -1 -72 2 -78 6 -6 3 -14 4 -18 0z"/>
<path fill="#ffffff" stroke="none" d="M188 112 c13 10 13 8 -1 -9 -17 -20
-58 -26 -47 -7 3 5 8 8 13 7 4 -2 7 3 8 10 0 9 2 9 6 -1 4 -10 8 -10 21 0z"/>
</g>
</svg>
