<?xml version="1.0" standalone="no"?>
<!DOCTYPE svg PUBLIC "-//W3C//DTD SVG 20010904//EN"
 "http://www.w3.org/TR/2001/REC-SVG-20010904/DTD/svg10.dtd">
<svg version="1.0" xmlns="http://www.w3.org/2000/svg"
 width="32.000000pt" height="32.000000pt" viewBox="0 0 32.000000 32.000000"
 preserveAspectRatio="xMidYMid meet">
<metadata>
Created by potrace 1.16, written by Peter Selinger 2001-2019
</metadata>
<g transform="translate(0.000000,32.000000) scale(0.100000,-0.100000)"
fill="#000000" stroke="none">
<path fill="#000000" stroke="none" d="M0 160 l0 -160 160 0 160 0 0 160 0
160 -160 0 -160 0 0 -160z"/>
<path fill="#ffffff" stroke="none" d="M180 241 c0 -4 -11 -6 -25 -3 -14 2
-25 6 -25 8 0 2 11 4 25 4 14 0 25 -4 25 -9z"/>
<path fill="#ffffff" stroke="none" d="M114 233 c-5 -5 -12 -12 -16 -18 -4 -6
-8 -2 -8 8 0 9 7 17 17 17 9 0 12 -3 7 -7z"/>
<path fill="#ffffff" stroke="none" d="M212 208 c-8 -8 -9 -4 -5 13 4 13 8 18
11 10 2 -7 -1 -18 -6 -23z"/>
<path fill="#ffffff" stroke="none" d="M67 213 c-4 -3 -1 -13 6 -22 11 -14 10
-14 -5 -2 -16 12 -16 31 -1 31 4 0 3 -3 0 -7z"/>
<path fill="#ffffff" stroke="none" d="M177 183 c-3 -10 -5 -4 -5 12 0 17 2
24 5 18 2 -7 2 -21 0 -30z"/>
<path fill="#ffffff" stroke="none" d="M254 211 c3 -5 -2 -15 -12 -22 -15 -12
-16 -12 -5 2 7 9 10 19 6 22 -3 4 -4 7 0 7 3 0 8 -4 11 -9z"/>
<path fill="#ffffff" stroke="none" d="M114 184 c3 -8 2 -12 -4 -9 -6 3 -10
10 -10 16 0 14 7 11 14 -7z"/>
<path fill="#ffffff" stroke="none" d="M160 174 c0 -2 -7 -4 -15 -4 -8 0 -15
4 -15 10 0 5 7 7 15 4 8 -4 15 -8 15 -10z"/>
<path fill="#ffffff" stroke="none" d="M205 139 c24 -6 20 -7 -19 -4 -45 5
-47 4 -35 -13 13 -15 12 -16 -3 -4 -10 8 -30 11 -49 8 -18 -2 -28 -1 -23 4 8
8 50 17 84 17 8 0 29 -3 45 -8z"/>
<path fill="#ffffff" stroke="none" d="M135 89 c4 -5 -8 -9 -25 -9 -17 0 -29
4 -26 8 7 11 45 12 51 1z"/>
<path fill="#ffffff" stroke="none" d="M234 81 c31 -25 16 -31 -84 -31 -60 0
-100 4 -100 10 0 6 38 11 93 11 50 1 80 4 64 6 -15 2 -25 8 -22 13 7 11 29 7
49 -9z"/>
<path fill="#ffffff" stroke="none" d="M270 30 c0 -6 -45 -10 -115 -10 -70 0
-115 4 -115 10 0 6 45 10 115 10 70 0 115 -4 115 -10z"/>
</g>
</svg>
