<?xml version="1.0" standalone="no"?>
<!DOCTYPE svg PUBLIC "-//W3C//DTD SVG 20010904//EN"
 "http://www.w3.org/TR/2001/REC-SVG-20010904/DTD/svg10.dtd">
<svg version="1.0" xmlns="http://www.w3.org/2000/svg"
 width="32.000000pt" height="32.000000pt" viewBox="0 0 32.000000 32.000000"
 preserveAspectRatio="xMidYMid meet">
<metadata>
Created by potrace 1.16, written by Peter Selinger 2001-2019
</metadata>
<g transform="translate(0.000000,32.000000) scale(0.100000,-0.100000)"
fill="#000000" stroke="none">
<path fill="#000000" stroke="none" d="M0 160 l0 -160 160 0 160 0 0 160 0
160 -160 0 -160 0 0 -160z"/>
<path fill="#ffffff" stroke="none" d="M239 284 c34 -15 61 -30 61 -33 0 -10
-19 -31 -60 -66 -31 -27 -32 -27 -12 -4 13 15 20 29 15 31 -4 3 -1 3 7 1 8 -2
4 6 -10 17 -49 39 -117 38 -173 -2 -26 -19 -30 -19 -44 -5 -22 21 -11 42 34
66 52 28 110 26 182 -5z"/>
<path fill="#ffffff" stroke="none" d="M180 210 c0 -36 -2 -40 -25 -40 -22 0
-25 4 -25 40 0 36 3 40 25 40 23 0 25 -4 25 -40z"/>
<path fill="#ffffff" stroke="none" d="M112 232 c-10 -7 -10 -15 -2 -36 13
-34 13 -46 0 -26 -6 10 -10 11 -10 3 0 -7 -1 -16 -2 -20 -2 -4 30 -7 70 -6 51
0 72 -3 72 -12 0 -8 -13 -11 -36 -10 -20 1 -38 -4 -40 -10 -3 -6 -12 -12 -20
-12 -8 0 -13 6 -10 12 2 7 -8 11 -30 10 -34 -2 -47 16 -23 30 7 5 3 15 -10 29
-12 12 -18 26 -14 29 10 10 25 8 19 -2 -3 -5 2 -15 10 -22 15 -12 16 -10 10
19 -6 27 -5 32 11 32 13 0 15 -3 5 -8z"/>
<path fill="#ffffff" stroke="none" d="M220 228 c-1 -7 -7 -26 -15 -43 l-14
-30 2 42 c1 27 7 43 15 43 6 0 12 -6 12 -12z"/>
<path fill="#ffffff" stroke="none" d="M128 97 c24 -22 35 -21 56 2 25 28 46
20 67 -25 31 -65 32 -64 -101 -64 l-120 0 0 25 c0 14 7 28 16 32 8 3 19 16 24
29 10 25 30 26 58 1z"/>
<path fill="#000000" stroke="none" d="M140 210 c0 -20 5 -30 15 -30 10 0 15
10 15 30 0 20 -5 30 -15 30 -10 0 -15 -10 -15 -30z"/>
</g>
</svg>
