<?xml version="1.0" standalone="no"?>
<!DOCTYPE svg PUBLIC "-//W3C//DTD SVG 20010904//EN"
 "http://www.w3.org/TR/2001/REC-SVG-20010904/DTD/svg10.dtd">
<svg version="1.0" xmlns="http://www.w3.org/2000/svg"
 width="32.000000pt" height="32.000000pt" viewBox="0 0 32.000000 32.000000"
 preserveAspectRatio="xMidYMid meet">
<metadata>
Created by potrace 1.16, written by Peter Selinger 2001-2019
</metadata>
<g transform="translate(0.000000,32.000000) scale(0.100000,-0.100000)"
fill="#000000" stroke="none">
<path fill="#000000" stroke="none" d="M0 160 l0 -160 160 0 160 0 0 160 0
160 -160 0 -160 0 0 -160z"/>
<path fill="#ffffff" stroke="none" d="M251 290 c47 -24 58 -45 36 -67 -14
-14 -19 -13 -49 8 -46 33 -120 33 -166 1 -26 -19 -36 -22 -47 -12 -26 22 -16
37 43 63 70 32 130 34 183 7z"/>
<path fill="#ffffff" stroke="none" d="M236 223 l25 -16 -27 -29 c-19 -19 -31
-25 -38 -18 -5 5 -24 10 -41 10 -17 0 -36 -5 -41 -10 -7 -7 -19 -1 -38 18
l-27 29 23 15 c13 9 33 18 43 21 31 9 94 -2 121 -20z"/>
<path fill="#ffffff" stroke="none" d="M172 147 c66 1 67 0 66 -26 0 -14 7
-39 16 -56 29 -54 26 -55 -104 -55 l-120 0 0 25 c0 14 8 29 20 35 14 7 20 21
20 44 0 36 7 49 24 39 6 -4 41 -7 78 -6z"/>
<path fill="#000000" stroke="none" d="M140 210 c0 -20 5 -30 15 -30 10 0 15
10 15 30 0 20 -5 30 -15 30 -10 0 -15 -10 -15 -30z"/>
<path fill="#000000" stroke="none" d="M122 205 c0 -16 2 -22 5 -12 2 9 2 23
0 30 -3 6 -5 -1 -5 -18z"/>
<path fill="#000000" stroke="none" d="M182 205 c0 -16 2 -22 5 -12 2 9 2 23
0 30 -3 6 -5 -1 -5 -18z"/>
<path fill="#000000" stroke="none" d="M80 211 c0 -5 5 -13 10 -16 6 -3 10 -2
10 4 0 5 -4 13 -10 16 -5 3 -10 2 -10 -4z"/>
<path fill="#000000" stroke="none" d="M213 203 c-3 -10 -8 -22 -11 -28 -3 -5
4 -2 16 9 12 10 19 23 16 27 -8 13 -14 11 -21 -8z"/>
<path fill="#000000" stroke="none" d="M161 113 c-1 -7 -4 -12 -8 -10 -5 1
-10 -2 -13 -7 -11 -19 30 -13 47 7 14 17 14 19 1 9 -13 -10 -17 -10 -21 0 -4
10 -6 10 -6 1z"/>
</g>
</svg>
