<?xml version="1.0" standalone="no"?>
<!DOCTYPE svg PUBLIC "-//W3C//DTD SVG 20010904//EN"
 "http://www.w3.org/TR/2001/REC-SVG-20010904/DTD/svg10.dtd">
<svg version="1.0" xmlns="http://www.w3.org/2000/svg"
 width="32.000000pt" height="32.000000pt" viewBox="0 0 32.000000 32.000000"
 preserveAspectRatio="xMidYMid meet">
<metadata>
Created by potrace 1.16, written by Peter Selinger 2001-2019
</metadata>
<g transform="translate(0.000000,32.000000) scale(0.100000,-0.100000)"
fill="#000000" stroke="none">
<path fill="#000000" stroke="none" d="M0 179 c0 -91 4 -138 10 -134 5 3 10
15 10 25 0 10 5 22 10 25 13 8 11 135 -2 151 -11 15 11 66 25 57 6 -3 7 -1 3
5 -4 7 -18 12 -32 12 l-24 0 0 -141z"/>
<path fill="#000000" stroke="none" d="M73 287 l2 -34 27 29 c29 32 71 37 105
13 19 -13 21 -13 26 5 5 19 0 20 -78 20 l-84 0 2 -33z"/>
<path fill="#000000" stroke="none" d="M261 290 c17 -48 -23 -89 -88 -90 -13
0 -23 6 -23 13 0 8 -3 7 -10 -3 -5 -8 -12 -11 -16 -7 -10 9 -1 17 25 22 32 6
43 15 37 31 -3 8 1 14 10 14 10 0 14 -6 11 -14 -3 -8 1 -20 9 -26 23 -20 18
26 -6 50 -39 39 -120 12 -120 -41 0 -11 -4 -18 -9 -14 -6 3 -9 -3 -8 -14 0
-11 6 -19 11 -18 6 1 12 -8 14 -20 4 -26 -13 -31 -22 -8 -3 8 -10 15 -16 15
-6 0 -2 -10 10 -22 23 -25 26 -48 8 -66 -9 -9 -9 -12 0 -12 7 0 17 12 22 26 7
16 14 23 22 18 9 -6 9 -3 0 9 -8 9 -11 25 -7 37 5 17 15 20 60 20 48 0 57 3
72 27 l17 26 7 -24 c3 -13 2 -32 -3 -41 -4 -9 -8 -36 -7 -60 l1 -43 10 35 c5
19 10 50 11 68 1 17 5 32 10 32 8 0 1 -85 -8 -100 -5 -8 23 -70 31 -70 2 0 4
63 4 140 l0 140 -34 0 c-34 0 -35 -1 -25 -30z"/>
<path fill="#000000" stroke="none" d="M37 271 c-3 -11 0 -22 7 -24 6 -3 11 6
11 19 0 29 -11 32 -18 5z"/>
<path fill="#000000" stroke="none" d="M230 269 c0 -5 5 -7 10 -4 6 3 10 8 10
11 0 2 -4 4 -10 4 -5 0 -10 -5 -10 -11z"/>
<path fill="#000000" stroke="none" d="M215 158 c2 -9 0 -18 -5 -20 -4 -2 1
-15 10 -30 l16 -28 0 35 c-1 19 -4 35 -8 35 -3 0 -8 6 -11 13 -2 6 -3 4 -2 -5z"/>
<path fill="#000000" stroke="none" d="M148 163 c6 -2 18 -2 25 0 6 3 1 5 -13
5 -14 0 -19 -2 -12 -5z"/>
<path fill="#000000" stroke="none" d="M51 134 c0 -16 3 -23 6 -16 2 6 10 9
16 5 7 -4 5 2 -3 13 -8 10 -16 21 -17 23 -2 2 -3 -9 -2 -25z"/>
<path fill="#000000" stroke="none" d="M160 134 c0 -9 5 -14 12 -12 18 6 21
28 4 28 -9 0 -16 -7 -16 -16z"/>
<path fill="#000000" stroke="none" d="M130 102 c0 -7 -5 -10 -12 -6 -7 4 -8
3 -4 -4 9 -15 36 -15 56 -1 12 9 12 10 -4 5 -11 -4 -23 -1 -28 6 -6 11 -8 10
-8 0z"/>
<path fill="#000000" stroke="none" d="M191 94 c0 -11 3 -14 6 -6 3 7 2 16 -1
19 -3 4 -6 -2 -5 -13z"/>
<path fill="#000000" stroke="none" d="M33 50 c3 -13 0 -20 -9 -20 -8 0 -14
-7 -14 -16 0 -14 2 -15 17 -3 11 10 14 10 9 2 -4 -8 -1 -13 9 -13 9 0 13 5 10
10 -3 6 3 10 14 10 12 0 21 -6 21 -12 0 -10 3 -9 9 1 7 11 9 11 14 0 3 -11 7
-11 18 -2 9 9 16 10 26 2 9 -8 13 -8 13 0 0 6 5 11 11 11 5 0 8 -4 5 -8 -3 -5
1 -9 9 -9 8 0 15 5 15 11 0 6 5 4 10 -4 5 -8 10 -10 10 -4 0 6 7 11 15 11 8 0
15 -4 15 -9 0 -4 7 -8 16 -8 9 0 12 5 8 13 -5 8 -2 8 9 -2 15 -12 17 -11 17 3
0 15 -13 19 -62 19 -10 0 -15 4 -12 8 3 5 0 9 -7 9 -7 0 -9 3 -6 6 4 4 13 1
21 -5 11 -9 16 -9 21 0 6 8 10 7 16 -2 7 -11 9 -10 9 4 0 13 -9 17 -40 17 -35
0 -40 -3 -41 -22 -1 -22 -1 -22 -9 2 -8 24 -8 24 -9 3 -1 -13 -5 -23 -10 -23
-5 0 -7 9 -4 20 4 15 0 20 -16 20 -23 0 -29 -25 -8 -33 7 -3 5 -6 -5 -6 -12
-1 -18 7 -19 22 -1 21 -1 21 -9 -3 -8 -24 -8 -24 -9 -2 -1 19 -6 22 -42 22
-36 0 -41 -2 -36 -20z"/>
<path fill="#ffffff" stroke="none" d="M77 52 c11 8 12 7 7 -6 -8 -21 -18 -20
-35 2 -11 14 -11 15 1 5 10 -9 17 -10 27 -1z"/>
</g>
</svg>
