<?xml version="1.0" standalone="no"?>
<!DOCTYPE svg PUBLIC "-//W3C//DTD SVG 20010904//EN"
 "http://www.w3.org/TR/2001/REC-SVG-20010904/DTD/svg10.dtd">
<svg version="1.0" xmlns="http://www.w3.org/2000/svg"
 width="32.000000pt" height="32.000000pt" viewBox="0 0 32.000000 32.000000"
 preserveAspectRatio="xMidYMid meet">
<metadata>
Created by potrace 1.16, written by Peter Selinger 2001-2019
</metadata>
<g transform="translate(0.000000,32.000000) scale(0.100000,-0.100000)"
fill="#000000" stroke="none">
<path fill="#000000" stroke="none" d="M0 179 c0 -91 4 -138 10 -134 5 3 10
15 10 25 0 10 5 22 10 25 13 8 11 135 -2 152 -6 7 -3 23 7 42 15 31 15 31 -10
31 l-25 0 0 -141z"/>
<path fill="#000000" stroke="none" d="M73 287 l2 -34 27 29 c31 33 74 37 109
9 24 -18 24 -18 24 5 0 23 -2 24 -82 24 l-82 0 2 -33z"/>
<path fill="#000000" stroke="none" d="M262 290 c8 -23 7 -34 -3 -47 -8 -9 -9
-14 -3 -10 14 8 24 -36 13 -55 -12 -19 -11 -60 1 -53 6 4 8 11 5 16 -4 5 -2 9
3 9 5 0 8 14 7 30 -1 17 2 30 7 30 8 0 2 -85 -7 -100 -5 -8 23 -70 31 -70 2 0
4 63 4 140 l0 140 -34 0 c-35 0 -35 0 -24 -30z"/>
<path fill="#000000" stroke="none" d="M110 280 c-27 -27 -26 -60 1 -60 26 0
67 31 61 48 -5 16 20 16 38 0 8 -7 6 -3 -4 10 -24 28 -69 29 -96 2z"/>
<path fill="#000000" stroke="none" d="M40 275 c0 -8 2 -15 4 -15 2 0 6 7 10
15 3 8 1 15 -4 15 -6 0 -10 -7 -10 -15z"/>
<path fill="#000000" stroke="none" d="M73 207 c0 -21 137 -22 162 -2 20 16
20 16 -2 6 -27 -14 -118 -14 -142 -2 -12 7 -18 6 -18 -2z"/>
<path fill="#000000" stroke="none" d="M70 158 c15 -17 20 -32 17 -53 l-5 -30
11 28 c7 18 16 26 27 23 8 -3 7 0 -4 7 -10 7 -26 20 -35 30 -8 9 -19 17 -24
17 -4 0 2 -10 13 -22z"/>
<path fill="#000000" stroke="none" d="M160 134 c0 -9 5 -14 12 -12 18 6 21
28 4 28 -9 0 -16 -7 -16 -16z"/>
<path fill="#000000" stroke="none" d="M117 88 c2 -5 13 -8 23 -8 10 0 21 3
23 8 3 4 -8 7 -23 7 -15 0 -26 -3 -23 -7z"/>
<path fill="#000000" stroke="none" d="M31 53 c0 -11 3 -13 6 -5 2 6 11 12 19
12 10 0 12 -5 8 -12 -5 -8 -1 -8 10 1 15 13 19 13 27 0 7 -11 9 -11 9 4 0 13
-9 17 -40 17 -32 0 -40 -4 -39 -17z"/>
<path fill="#000000" stroke="none" d="M140 60 c0 -5 7 -6 17 -3 11 4 14 3 9
-5 -4 -7 -2 -12 3 -12 6 0 11 7 11 15 0 8 -9 15 -20 15 -11 0 -20 -4 -20 -10z"/>
<path fill="#000000" stroke="none" d="M210 61 c0 -6 5 -13 12 -17 7 -4 8 -3
4 4 -4 7 -1 12 8 12 9 0 16 -6 16 -12 0 -9 4 -8 10 2 9 13 11 13 20 0 8 -13
10 -12 10 3 0 13 -9 17 -40 17 -22 0 -40 -4 -40 -9z"/>
<path fill="#000000" stroke="none" d="M10 13 c0 -13 3 -14 12 -5 16 16 88 16
88 0 0 -9 3 -9 12 0 16 16 31 15 22 0 -6 -11 -4 -11 7 0 7 6 21 12 31 12 10 0
18 -6 18 -12 0 -10 3 -9 9 1 7 11 9 11 14 0 4 -10 6 -10 6 -1 1 13 31 17 31 4
0 -5 7 -9 15 -9 8 0 12 4 9 9 -3 4 -1 8 5 8 5 0 12 -6 14 -12 3 -8 6 -6 6 5 1
15 -13 17 -149 17 -135 0 -150 -2 -150 -17z"/>
</g>
</svg>
