<?xml version="1.0" standalone="no"?>
<!DOCTYPE svg PUBLIC "-//W3C//DTD SVG 20010904//EN"
 "http://www.w3.org/TR/2001/REC-SVG-20010904/DTD/svg10.dtd">
<svg version="1.0" xmlns="http://www.w3.org/2000/svg"
 width="32.000000pt" height="32.000000pt" viewBox="0 0 32.000000 32.000000"
 preserveAspectRatio="xMidYMid meet">
<metadata>
Created by potrace 1.16, written by Peter Selinger 2001-2019
</metadata>
<g transform="translate(0.000000,32.000000) scale(0.100000,-0.100000)"
fill="#000000" stroke="none">
<path fill="#000000" stroke="none" d="M17 313 c-3 -5 -2 -15 2 -22 5 -7 11
-9 14 -4 3 5 2 15 -2 22 -5 7 -11 9 -14 4z"/>
<path fill="#000000" stroke="none" d="M76 135 c-10 -7 -16 -19 -14 -25 2 -6
14 0 27 14 26 28 18 35 -13 11z"/>
<path fill="#000000" stroke="none" d="M276 127 c3 -10 9 -15 12 -12 3 3 0 11
-7 18 -10 9 -11 8 -5 -6z"/>
</g>
</svg>
