<?xml version="1.0" standalone="no"?>
<!DOCTYPE svg PUBLIC "-//W3C//DTD SVG 20010904//EN"
 "http://www.w3.org/TR/2001/REC-SVG-20010904/DTD/svg10.dtd">
<svg version="1.0" xmlns="http://www.w3.org/2000/svg"
 width="32.000000pt" height="32.000000pt" viewBox="0 0 32.000000 32.000000"
 preserveAspectRatio="xMidYMid meet">
<metadata>
Created by potrace 1.16, written by Peter Selinger 2001-2019
</metadata>
<g transform="translate(0.000000,32.000000) scale(0.100000,-0.100000)"
fill="#000000" stroke="none">
<path fill="#000000" stroke="none" d="M37 300 c4 -15 0 -20 -16 -20 -20 0
-21 -3 -17 -137 2 -76 4 -139 5 -140 1 -2 70 -3 155 -3 l153 0 2 160 c1 112
-1 160 -9 160 -6 0 -9 -4 -6 -9 3 -5 -2 -15 -11 -22 -15 -12 -16 -11 -11 9 6
21 3 22 -43 22 -39 0 -47 -3 -43 -15 4 -8 15 -15 25 -15 25 0 26 -48 2 -57
-10 -3 -26 -13 -36 -22 -17 -14 -20 -14 -32 2 -13 18 -31 24 -20 7 9 -15 -8
-12 -33 6 -29 20 -28 40 4 69 l27 25 -51 0 c-45 0 -50 -2 -45 -20z"/>
<path fill="#ffffff" stroke="none" d="M70 265 c0 -30 5 -39 35 -56 27 -16 35
-27 35 -50 0 -22 5 -29 20 -29 15 0 20 7 20 29 0 23 8 34 35 50 30 17 35 26
35 56 0 19 5 35 10 35 6 0 10 -7 10 -15 0 -8 9 -15 20 -15 11 0 20 -4 20 -10
0 -5 -8 -10 -18 -10 -21 0 -47 -46 -31 -55 5 -4 7 -11 3 -16 -4 -6 -11 -6 -20
2 -7 6 -21 9 -29 5 -22 -8 -18 -45 8 -67 l22 -18 -30 -2 c-16 0 -43 -1 -60 0
l-30 1 25 -14 c17 -10 31 -11 48 -5 31 12 32 12 25 -8 -5 -13 -2 -15 17 -10
14 3 19 2 14 -3 -5 -5 -50 -11 -99 -13 -82 -3 -81 -3 18 -3 77 1 107 -2 107
-11 0 -8 -37 -13 -125 -15 -95 -2 -125 0 -125 10 0 6 5 12 10 12 6 0 10 7 10
15 0 8 5 15 10 15 6 0 15 11 20 25 5 14 17 28 25 31 19 8 20 53 0 60 -8 4 -22
1 -29 -5 -9 -8 -16 -8 -20 -2 -4 5 -2 12 3 16 16 9 -10 55 -31 55 -10 0 -18 5
-18 10 0 6 9 10 20 10 11 0 20 7 20 15 0 8 5 15 10 15 6 0 10 -16 10 -35z"/>
<path fill="#ffffff" stroke="none" d="M51 196 c-15 -18 8 -40 26 -24 19 15
29 2 13 -17 -11 -13 -10 -14 6 -9 17 7 17 5 -2 -17 -12 -13 -24 -31 -28 -39
-3 -8 -4 2 -2 23 4 31 2 37 -14 37 -11 0 -23 -11 -29 -27 -10 -25 -10 -25 -5
-3 3 14 5 36 5 49 -1 27 17 54 31 45 5 -4 5 -11 -1 -18z"/>
<path fill="#ffffff" stroke="none" d="M300 186 c0 -12 -5 -27 -11 -33 -7 -7
-6 -21 5 -46 8 -20 11 -39 6 -42 -4 -3 -11 11 -14 31 -5 24 -14 38 -31 44 -25
9 -41 28 -31 37 3 3 12 0 20 -6 17 -14 32 3 28 31 -2 13 1 16 12 12 9 -3 16
-16 16 -28z"/>
<path fill="#000000" stroke="none" d="M95 90 c3 -5 11 -10 16 -10 6 0 7 5 4
10 -3 6 -11 10 -16 10 -6 0 -7 -4 -4 -10z"/>
</g>
</svg>
