<?xml version="1.0" standalone="no"?>
<!DOCTYPE svg PUBLIC "-//W3C//DTD SVG 20010904//EN"
 "http://www.w3.org/TR/2001/REC-SVG-20010904/DTD/svg10.dtd">
<svg version="1.0" xmlns="http://www.w3.org/2000/svg"
 width="32.000000pt" height="32.000000pt" viewBox="0 0 32.000000 32.000000"
 preserveAspectRatio="xMidYMid meet">
<metadata>
Created by potrace 1.16, written by Peter Selinger 2001-2019
</metadata>
<g transform="translate(0.000000,32.000000) scale(0.100000,-0.100000)"
fill="#000000" stroke="none">
<path fill="#000000" stroke="none" d="M133 288 c-20 -19 -23 -20 -29 -5 -4
12 -18 17 -42 17 l-36 0 33 -29 c17 -15 42 -28 54 -27 26 1 34 -27 17 -59 -16
-29 -47 -39 -53 -16 -4 14 -5 14 -6 -1 0 -10 -9 -18 -18 -19 -14 0 -15 -2 -3
-6 15 -6 30 -23 30 -34 0 -4 -11 -17 -25 -30 -13 -13 -25 -34 -25 -46 0 -23 2
-23 130 -23 109 0 130 2 130 15 0 8 -4 15 -10 15 -5 0 -10 7 -10 15 0 8 -7 15
-15 15 -11 0 -15 11 -15 41 0 32 -4 42 -19 46 -22 6 -44 44 -39 68 4 26 75 32
81 7 4 -15 5 -16 6 0 0 9 11 19 24 21 l22 4 -22 2 c-24 1 -32 26 -10 34 6 3
-4 6 -24 6 -24 1 -39 -4 -43 -14 -8 -22 -36 -18 -36 5 0 26 -20 25 -47 -2z"/>
</g>
</svg>
