<?xml version="1.0" standalone="no"?>
<!DOCTYPE svg PUBLIC "-//W3C//DTD SVG 20010904//EN"
 "http://www.w3.org/TR/2001/REC-SVG-20010904/DTD/svg10.dtd">
<svg version="1.0" xmlns="http://www.w3.org/2000/svg"
 width="32.000000pt" height="32.000000pt" viewBox="0 0 32.000000 32.000000"
 preserveAspectRatio="xMidYMid meet">
<metadata>
Created by potrace 1.16, written by Peter Selinger 2001-2019
</metadata>
<g transform="translate(0.000000,32.000000) scale(0.100000,-0.100000)"
fill="#000000" stroke="none">
<path fill="#000000" stroke="none" d="M0 160 l0 -160 160 0 160 0 0 160 0
160 -160 0 -160 0 0 -160z"/>
<path fill="#ffffff" stroke="none" d="M170 303 c-8 -3 -24 -13 -35 -22 -20
-16 -20 -16 -1 7 11 12 26 22 35 21 14 0 14 -1 1 -6z"/>
<path fill="#ffffff" stroke="none" d="M177 258 c-3 -7 -5 -2 -5 12 0 14 2 19
5 13 2 -7 2 -19 0 -25z"/>
<path fill="#ffffff" stroke="none" d="M277 248 c-5 -3 -16 -4 -23 -1 -10 4
-10 8 -1 17 8 9 14 10 23 2 8 -8 8 -13 1 -18z"/>
<path fill="#ffffff" stroke="none" d="M147 233 c-3 -10 -5 -4 -5 12 0 17 2
24 5 18 2 -7 2 -21 0 -30z"/>
<path fill="#ffffff" stroke="none" d="M84 139 c-3 -5 -10 -7 -15 -3 -5 3 -7
10 -3 15 3 5 10 7 15 3 5 -3 7 -10 3 -15z"/>
<path fill="#ffffff" stroke="none" d="M120 126 c0 -2 -8 -10 -17 -17 -16 -13
-17 -12 -4 4 13 16 21 21 21 13z"/>
<path fill="#ffffff" stroke="none" d="M160 127 c0 -2 -10 -12 -22 -23 l-23
-19 19 23 c18 21 26 27 26 19z"/>
<path fill="#ffffff" stroke="none" d="M185 100 c-10 -11 -22 -20 -28 -20 -5
0 1 9 14 20 31 25 37 25 14 0z"/>
<path fill="#ffffff" stroke="none" d="M125 60 c-28 -12 -57 -12 -50 0 3 6 21
10 38 9 27 0 29 -2 12 -9z"/>
<path fill="#ffffff" stroke="none" d="M100 30 c-36 -11 -52 -11 -45 0 3 6 21
10 38 9 31 -1 31 -1 7 -9z"/>
</g>
</svg>
