<?xml version="1.0" standalone="no"?>
<!DOCTYPE svg PUBLIC "-//W3C//DTD SVG 20010904//EN"
 "http://www.w3.org/TR/2001/REC-SVG-20010904/DTD/svg10.dtd">
<svg version="1.0" xmlns="http://www.w3.org/2000/svg"
 width="32.000000pt" height="32.000000pt" viewBox="0 0 32.000000 32.000000"
 preserveAspectRatio="xMidYMid meet">
<metadata>
Created by potrace 1.16, written by Peter Selinger 2001-2019
</metadata>
<g transform="translate(0.000000,32.000000) scale(0.100000,-0.100000)"
fill="#000000" stroke="none">
<path fill="#000000" stroke="none" d="M123 303 c-3 -10 -13 -26 -21 -36 -13
-15 -13 -21 -2 -42 12 -22 11 -27 -6 -40 -18 -15 -18 -16 8 -39 l27 -24 -27
-7 c-40 -10 -82 -54 -82 -87 l0 -28 140 0 140 0 0 28 c0 32 -40 75 -79 87 -14
4 -32 17 -42 28 -14 18 -19 19 -33 8 -9 -7 -16 -9 -16 -3 0 18 26 31 56 29 22
-2 29 2 28 16 -1 9 4 17 12 17 30 0 23 24 -21 66 -51 47 -72 54 -82 27z"/>
<path fill="#ffffff" stroke="none" d="M150 300 c0 -5 6 -10 14 -10 8 0 23
-11 34 -25 11 -14 25 -25 31 -25 6 0 11 -4 11 -10 0 -5 -8 -10 -17 -10 -9 0
-26 -8 -37 -17 l-20 -18 19 30 c15 24 15 27 2 17 -9 -8 -21 -11 -27 -7 -6 4
-17 2 -25 -5 -8 -7 -15 -7 -19 -1 -4 5 -2 12 4 16 15 9 12 28 -2 19 -7 -4 -6
1 3 12 9 10 14 25 12 32 -3 6 0 12 6 12 6 0 11 -4 11 -10z"/>
<path fill="#000000" stroke="none" d="M220 305 c0 -8 7 -15 15 -15 8 0 15 7
15 15 0 8 -7 15 -15 15 -8 0 -15 -7 -15 -15z"/>
</g>
</svg>
