<?xml version="1.0" standalone="no"?>
<!DOCTYPE svg PUBLIC "-//W3C//DTD SVG 20010904//EN"
 "http://www.w3.org/TR/2001/REC-SVG-20010904/DTD/svg10.dtd">
<svg version="1.0" xmlns="http://www.w3.org/2000/svg"
 width="32.000000pt" height="32.000000pt" viewBox="0 0 32.000000 32.000000"
 preserveAspectRatio="xMidYMid meet">
<metadata>
Created by potrace 1.16, written by Peter Selinger 2001-2019
</metadata>
<g transform="translate(0.000000,32.000000) scale(0.100000,-0.100000)"
fill="#000000" stroke="none">
<path fill="#000000" stroke="none" d="M0 160 c0 -100 4 -160 10 -160 6 0 10
13 10 28 0 32 40 75 79 87 14 4 33 17 43 29 l18 21 18 -21 c10 -12 29 -25 43
-29 39 -12 79 -55 79 -87 0 -15 5 -28 10 -28 6 0 10 60 10 160 l0 160 -160 0
-160 0 0 -160z"/>
<path fill="#ffffff" stroke="none" d="M188 189 c26 11 26 10 7 -4 -11 -9 -30
-14 -42 -12 -15 3 -23 -2 -26 -15 -3 -10 -12 -18 -21 -18 -19 0 -20 13 -4 39
9 16 16 17 35 8 16 -7 31 -7 51 2z"/>
<path fill="#ffffff" stroke="none" d="M78 138 c-6 -18 -28 -21 -28 -4 0 9 7
16 16 16 9 0 14 -5 12 -12z"/>
<path fill="#000000" stroke="none" d="M100 160 c0 -5 5 -10 10 -10 6 0 10 5
10 10 0 6 -4 10 -10 10 -5 0 -10 -4 -10 -10z"/>
<path fill="#000000" stroke="none" d="M150 135 c0 -8 5 -15 10 -15 6 0 10 7
10 15 0 8 -4 15 -10 15 -5 0 -10 -7 -10 -15z"/>
<path fill="#000000" stroke="none" d="M130 79 c0 -4 10 -6 21 -4 32 6 34 13
4 13 -14 0 -25 -4 -25 -9z"/>
<path fill="#000000" stroke="none" d="M102 43 c32 -2 84 -2 115 0 32 2 6 3
-57 3 -63 0 -89 -1 -58 -3z"/>
</g>
</svg>
