<?xml version="1.0" standalone="no"?>
<!DOCTYPE svg PUBLIC "-//W3C//DTD SVG 20010904//EN"
 "http://www.w3.org/TR/2001/REC-SVG-20010904/DTD/svg10.dtd">
<svg version="1.0" xmlns="http://www.w3.org/2000/svg"
 width="32.000000pt" height="32.000000pt" viewBox="0 0 32.000000 32.000000"
 preserveAspectRatio="xMidYMid meet">
<metadata>
Created by potrace 1.16, written by Peter Selinger 2001-2019
</metadata>
<g transform="translate(0.000000,32.000000) scale(0.100000,-0.100000)"
fill="#000000" stroke="none">
<path fill="#000000" stroke="none" d="M0 160 c0 -100 4 -160 10 -160 6 0 10
13 10 28 0 33 42 77 82 87 l27 7 -27 24 c-26 23 -26 24 -8 39 17 13 18 18 6
40 -11 21 -11 27 3 43 10 10 17 25 17 33 0 12 2 12 10 -1 6 -10 4 -21 -8 -34
-9 -11 -11 -16 -4 -12 14 9 17 -10 2 -19 -6 -4 -8 -11 -4 -16 4 -6 11 -6 19 1
8 7 19 9 25 5 6 -4 18 -1 27 7 13 10 13 7 -2 -17 l-19 -30 20 17 c11 10 28 18
37 18 9 0 17 5 17 10 0 6 -5 10 -11 10 -6 0 -20 11 -31 25 -11 14 -24 25 -29
25 -6 0 -17 7 -25 15 -11 10 -36 15 -80 15 l-64 0 0 -160z"/>
<path fill="#000000" stroke="none" d="M205 276 c44 -42 51 -66 21 -66 -8 0
-13 -8 -12 -17 1 -14 -6 -18 -28 -16 -30 2 -56 -11 -56 -29 0 -6 7 -4 16 3 14
11 19 10 33 -8 10 -11 28 -24 42 -28 39 -12 79 -55 79 -87 0 -15 5 -28 10 -28
6 0 10 60 10 160 l0 160 -35 0 c-24 0 -35 -5 -35 -15 0 -8 -7 -15 -15 -15 -8
0 -15 7 -15 15 0 10 -10 15 -31 15 l-31 0 47 -44z"/>
</g>
</svg>
