<?xml version="1.0" standalone="no"?>
<!DOCTYPE svg PUBLIC "-//W3C//DTD SVG 20010904//EN"
 "http://www.w3.org/TR/2001/REC-SVG-20010904/DTD/svg10.dtd">
<svg version="1.0" xmlns="http://www.w3.org/2000/svg"
 width="32.000000pt" height="32.000000pt" viewBox="0 0 32.000000 32.000000"
 preserveAspectRatio="xMidYMid meet">
<metadata>
Created by potrace 1.16, written by Peter Selinger 2001-2019
</metadata>
<g transform="translate(0.000000,32.000000) scale(0.100000,-0.100000)"
fill="#000000" stroke="none">
<path fill="#000000" stroke="none" d="M144 195 c-3 -8 -3 -18 0 -24 9 -14 -7
-21 -24 -11 -19 12 -40 -7 -40 -35 0 -13 -11 -33 -25 -46 -24 -24 -34 -69 -15
-69 6 0 10 5 10 10 0 7 6 7 19 0 23 -12 61 -13 61 -2 0 4 9 8 20 9 11 1 18 -2
15 -8 -4 -5 10 -9 29 -9 19 0 38 5 42 12 5 8 2 9 -10 5 -10 -4 -19 -1 -23 9
-10 27 7 28 35 1 31 -30 52 -35 52 -12 0 8 -4 15 -10 15 -5 0 -10 7 -10 15 0
8 -14 30 -31 50 -17 19 -26 35 -19 35 6 0 9 4 6 9 -3 5 1 14 9 21 8 7 15 19
15 27 0 22 -27 -1 -47 -40 -12 -25 -13 -34 -2 -53 9 -18 15 -21 26 -13 10 9
13 8 13 -4 0 -8 -12 -17 -26 -20 -21 -4 -28 1 -42 29 -8 19 -20 34 -26 34 -6
1 1 8 17 16 22 12 25 18 17 33 -5 10 -6 21 -3 25 3 3 -1 6 -11 6 -9 0 -19 -7
-22 -15z"/>
<path fill="#ffffff" stroke="none" d="M122 113 c-2 -16 -9 -34 -15 -40 -7
-10 -2 -12 22 -7 20 4 31 3 31 -5 0 -6 -6 -12 -12 -12 -7 -1 -20 -3 -28 -4 -8
-1 -21 -3 -28 -4 -8 0 -10 -6 -6 -13 5 -10 4 -10 -6 -1 -10 9 -9 17 8 38 12
14 18 33 15 41 -7 18 4 47 16 40 4 -3 6 -18 3 -33z"/>
</g>
</svg>
