<?xml version="1.0" standalone="no"?>
<!DOCTYPE svg PUBLIC "-//W3C//DTD SVG 20010904//EN"
 "http://www.w3.org/TR/2001/REC-SVG-20010904/DTD/svg10.dtd">
<svg version="1.0" xmlns="http://www.w3.org/2000/svg"
 width="32.000000pt" height="32.000000pt" viewBox="0 0 32.000000 32.000000"
 preserveAspectRatio="xMidYMid meet">
<metadata>
Created by potrace 1.16, written by Peter Selinger 2001-2019
</metadata>
<g transform="translate(0.000000,32.000000) scale(0.100000,-0.100000)"
fill="#000000" stroke="none">
<path fill="#000000" stroke="none" d="M151 193 c-11 -12 -11 -17 -1 -26 10
-9 11 -9 6 0 -3 6 0 13 9 15 8 2 11 8 7 14 -5 9 -11 8 -21 -3z"/>
<path fill="#000000" stroke="none" d="M225 190 c-10 -11 -13 -20 -7 -20 6 0
16 9 22 20 6 11 9 20 7 20 -2 0 -12 -9 -22 -20z"/>
<path fill="#000000" stroke="none" d="M50 56 c0 -8 -5 -16 -11 -18 -7 -2 -10
-9 -8 -16 2 -7 15 0 32 18 27 28 27 30 8 30 -12 0 -21 -6 -21 -14z"/>
<path fill="#000000" stroke="none" d="M160 60 c0 -5 7 -10 15 -10 8 0 15 5
15 10 0 6 -7 10 -15 10 -8 0 -15 -4 -15 -10z"/>
<path fill="#000000" stroke="none" d="M213 63 c9 -2 23 -2 30 0 6 3 -1 5 -18
5 -16 0 -22 -2 -12 -5z"/>
<path fill="#000000" stroke="none" d="M85 30 c3 -5 15 -10 26 -10 10 0 19 5
19 10 0 6 -12 10 -26 10 -14 0 -23 -4 -19 -10z"/>
<path fill="#000000" stroke="none" d="M155 30 c28 -12 45 -12 45 0 0 6 -15
10 -32 9 -28 0 -30 -2 -13 -9z"/>
</g>
</svg>
