<?xml version="1.0" standalone="no"?>
<!DOCTYPE svg PUBLIC "-//W3C//DTD SVG 20010904//EN"
 "http://www.w3.org/TR/2001/REC-SVG-20010904/DTD/svg10.dtd">
<svg version="1.0" xmlns="http://www.w3.org/2000/svg"
 width="32.000000pt" height="32.000000pt" viewBox="0 0 32.000000 32.000000"
 preserveAspectRatio="xMidYMid meet">
<metadata>
Created by potrace 1.16, written by Peter Selinger 2001-2019
</metadata>
<g transform="translate(0.000000,32.000000) scale(0.100000,-0.100000)"
fill="#000000" stroke="none">
<path fill="#000000" stroke="none" d="M90 302 c-30 -14 -35 -22 -36 -52 0
-19 4 -41 9 -48 7 -9 6 -17 -1 -24 -9 -9 -12 -8 -12 5 0 26 -29 20 -42 -8 -8
-19 -8 -28 2 -40 8 -10 9 -15 1 -15 -28 0 11 -93 46 -109 31 -14 175 -14 206
0 35 16 74 109 46 109 -8 0 -7 5 1 15 10 12 10 21 2 40 -13 28 -42 34 -42 8 0
-13 -3 -14 -12 -5 -7 7 -8 15 -1 24 5 7 9 29 9 48 -1 30 -6 38 -36 52 -19 10
-51 18 -70 18 -19 0 -51 -8 -70 -18z"/>
<path fill="#ffffff" stroke="none" d="M221 295 c20 -7 20 -7 2 -20 -10 -7
-22 -11 -27 -8 -5 4 -6 1 -2 -6 4 -6 13 -8 19 -4 7 4 19 8 27 10 10 1 9 -3 -4
-13 -42 -30 -183 -9 -162 24 9 15 53 16 61 2 4 -6 -5 -10 -21 -10 -32 0 -25
-12 10 -15 17 -2 23 1 21 13 -6 37 19 45 76 27z"/>
<path fill="#ffffff" stroke="none" d="M104 94 c3 -8 2 -12 -4 -9 -6 3 -10 10
-10 16 0 14 7 11 14 -7z"/>
<path fill="#ffffff" stroke="none" d="M127 88 c-3 -8 -6 -5 -6 6 -1 11 2 17
5 13 3 -3 4 -12 1 -19z"/>
<path fill="#ffffff" stroke="none" d="M197 88 c-3 -8 -6 -5 -6 6 -1 11 2 17
5 13 3 -3 4 -12 1 -19z"/>
<path fill="#ffffff" stroke="none" d="M221 87 c-10 -9 -11 -8 -5 6 3 10 9 15
12 12 3 -3 0 -11 -7 -18z"/>
</g>
</svg>
