<?xml version="1.0" standalone="no"?>
<!DOCTYPE svg PUBLIC "-//W3C//DTD SVG 20010904//EN"
 "http://www.w3.org/TR/2001/REC-SVG-20010904/DTD/svg10.dtd">
<svg version="1.0" xmlns="http://www.w3.org/2000/svg"
 width="32.000000pt" height="32.000000pt" viewBox="0 0 32.000000 32.000000"
 preserveAspectRatio="xMidYMid meet">
<metadata>
Created by potrace 1.16, written by Peter Selinger 2001-2019
</metadata>
<g transform="translate(0.000000,32.000000) scale(0.100000,-0.100000)"
fill="#000000" stroke="none">
<path fill="#000000" stroke="none" d="M50 310 c0 -5 7 -7 15 -4 8 4 15 8 15
10 0 2 -7 4 -15 4 -8 0 -15 -4 -15 -10z"/>
<path fill="#000000" stroke="none" d="M178 313 c7 -3 16 -2 19 1 4 3 -2 6
-13 5 -11 0 -14 -3 -6 -6z"/>
<path fill="#000000" stroke="none" d="M256 305 c4 -8 8 -15 10 -15 2 0 4 7 4
15 0 8 -4 15 -10 15 -5 0 -7 -7 -4 -15z"/>
<path fill="#000000" stroke="none" d="M82 179 c2 -70 -1 -108 -7 -105 -20 7
-45 -15 -45 -41 l0 -26 77 7 c42 3 98 6 125 6 65 0 62 20 -4 22 -49 1 -50 2
-12 5 32 3 43 9 47 25 5 16 3 18 -6 9 -6 -6 -13 -11 -16 -11 -4 0 -5 49 -3
110 l3 109 -81 0 -81 0 3 -110z"/>
<path fill="#ffffff" stroke="none" d="M167 246 c-4 -9 1 -16 11 -18 13 -3 12
-5 -6 -10 -12 -3 -20 -2 -16 3 3 5 -3 10 -13 10 -17 1 -17 2 0 6 9 2 17 9 17
14 0 5 3 9 6 9 3 0 4 -6 1 -14z"/>
<path fill="#ffffff" stroke="none" d="M120 234 c0 -8 -19 -13 -24 -6 -3 5 1
9 9 9 8 0 15 -2 15 -3z"/>
<path fill="#ffffff" stroke="none" d="M224 232 c3 -5 -1 -9 -9 -9 -8 0 -12 4
-9 9 3 4 7 8 9 8 2 0 6 -4 9 -8z"/>
<path fill="#ffffff" stroke="none" d="M159 186 c9 -11 9 -16 -1 -22 -7 -4
-10 -4 -6 1 4 4 3 14 -3 22 -6 7 -9 13 -6 13 2 0 10 -6 16 -14z"/>
<path fill="#000000" stroke="none" d="M262 180 c0 -14 2 -19 5 -12 2 6 2 18
0 25 -3 6 -5 1 -5 -13z"/>
<path fill="#000000" stroke="none" d="M261 114 c0 -11 3 -14 6 -6 3 7 2 16
-1 19 -3 4 -6 -2 -5 -13z"/>
<path fill="#000000" stroke="none" d="M51 104 c0 -11 3 -14 6 -6 3 7 2 16 -1
19 -3 4 -6 -2 -5 -13z"/>
</g>
</svg>
