<?xml version="1.0" standalone="no"?>
<!DOCTYPE svg PUBLIC "-//W3C//DTD SVG 20010904//EN"
 "http://www.w3.org/TR/2001/REC-SVG-20010904/DTD/svg10.dtd">
<svg version="1.0" xmlns="http://www.w3.org/2000/svg"
 width="32.000000pt" height="32.000000pt" viewBox="0 0 32.000000 32.000000"
 preserveAspectRatio="xMidYMid meet">
<metadata>
Created by potrace 1.16, written by Peter Selinger 2001-2019
</metadata>
<g transform="translate(0.000000,32.000000) scale(0.100000,-0.100000)"
fill="#000000" stroke="none">
<path fill="#000000" stroke="none" d="M126 255 c4 -8 7 -15 9 -15 2 0 5 7 9
15 3 9 0 15 -9 15 -9 0 -12 -6 -9 -15z"/>
<path fill="#000000" stroke="none" d="M256 255 c4 -8 7 -15 9 -15 2 0 5 7 9
15 3 9 0 15 -9 15 -9 0 -12 -6 -9 -15z"/>
<path fill="#000000" stroke="none" d="M61 231 c0 -14 -8 -32 -17 -42 -22 -24
-11 -49 21 -49 31 0 43 25 22 48 -8 9 -17 28 -20 42 l-4 25 -2 -24z"/>
<path fill="#000000" stroke="none" d="M146 8 c3 -4 11 -5 19 -1 21 7 19 12
-4 10 -11 0 -18 -5 -15 -9z"/>
<path fill="#000000" stroke="none" d="M240 11 c0 -5 9 -7 20 -4 26 7 26 13 0
13 -11 0 -20 -4 -20 -9z"/>
</g>
</svg>
