<?xml version="1.0" standalone="no"?>
<!DOCTYPE svg PUBLIC "-//W3C//DTD SVG 20010904//EN"
 "http://www.w3.org/TR/2001/REC-SVG-20010904/DTD/svg10.dtd">
<svg version="1.0" xmlns="http://www.w3.org/2000/svg"
 width="32.000000pt" height="32.000000pt" viewBox="0 0 32.000000 32.000000"
 preserveAspectRatio="xMidYMid meet">
<metadata>
Created by potrace 1.16, written by Peter Selinger 2001-2019
</metadata>
<g transform="translate(0.000000,32.000000) scale(0.100000,-0.100000)"
fill="#000000" stroke="none">
<path fill="#000000" stroke="none" d="M103 275 c-13 -9 -25 -34 -32 -65 -15
-71 -14 -78 14 -105 23 -24 23 -25 4 -25 -34 0 -59 -19 -59 -45 l0 -25 130 0
130 0 0 25 c0 26 -25 45 -59 45 -19 0 -19 1 4 25 28 27 29 34 14 105 -7 31
-19 56 -32 65 -28 19 -86 19 -114 0z"/>
<path fill="#ffffff" stroke="none" d="M130 205 c-7 -9 -15 -13 -19 -10 -3 3
1 10 9 15 21 14 24 12 10 -5z"/>
<path fill="#ffffff" stroke="none" d="M224 208 c-3 -4 -14 -8 -25 -8 -11 0
-18 4 -15 8 2 4 14 8 25 8 11 0 17 -4 15 -8z"/>
<path fill="#ffffff" stroke="none" d="M166 143 c-7 -7 -26 7 -26 19 0 6 6 6
15 -2 9 -7 13 -15 11 -17z"/>
<path fill="#ffffff" stroke="none" d="M200 120 c0 -5 -5 -10 -11 -10 -5 0 -7
5 -4 10 3 6 8 10 11 10 2 0 4 -4 4 -10z"/>
</g>
</svg>
