<?xml version="1.0" standalone="no"?>
<!DOCTYPE svg PUBLIC "-//W3C//DTD SVG 20010904//EN"
 "http://www.w3.org/TR/2001/REC-SVG-20010904/DTD/svg10.dtd">
<svg version="1.0" xmlns="http://www.w3.org/2000/svg"
 width="32.000000pt" height="32.000000pt" viewBox="0 0 32.000000 32.000000"
 preserveAspectRatio="xMidYMid meet">
<metadata>
Created by potrace 1.16, written by Peter Selinger 2001-2019
</metadata>
<g transform="translate(0.000000,32.000000) scale(0.100000,-0.100000)"
fill="#000000" stroke="none">
<path fill="#000000" stroke="none" d="M0 160 l0 -160 160 0 160 0 0 160 0
160 -160 0 -160 0 0 -160z"/>
<path fill="#ffffff" stroke="none" d="M218 274 c13 -9 21 -22 18 -29 -3 -8
-1 -15 4 -17 4 -2 11 -24 15 -50 6 -42 4 -50 -18 -72 -18 -18 -37 -26 -62 -26
-33 0 -34 1 -23 20 10 15 21 19 41 16 19 -3 27 0 24 7 -2 7 -14 13 -26 15 -21
3 -22 4 -5 17 17 12 16 13 -9 8 -18 -4 -27 -1 -27 8 0 11 -2 11 -12 0 -10 -11
-10 -14 0 -18 20 -7 14 -20 -13 -27 -16 -4 -22 -11 -19 -21 10 -25 -14 -17
-32 10 -14 22 -15 34 -5 83 7 36 19 64 32 75 27 21 87 22 117 1z"/>
<path fill="#ffffff" stroke="none" d="M150 108 c0 -4 -7 -8 -15 -8 -8 0 -15
4 -15 8 0 5 7 9 15 9 8 0 15 -4 15 -9z"/>
<path fill="#ffffff" stroke="none" d="M130 79 c0 -7 23 -10 65 -7 63 3 66 2
80 -26 8 -15 15 -30 15 -33 0 -2 -58 -3 -130 -1 -126 3 -130 4 -130 25 0 25
10 33 54 44 44 10 46 10 46 -2z"/>
<path fill="#000000" stroke="none" d="M196 224 c-7 -18 11 -47 24 -39 9 6 0
55 -10 55 -4 0 -11 -7 -14 -16z"/>
<path fill="#000000" stroke="none" d="M96 223 c-10 -10 7 -33 24 -33 29 0 32
27 5 33 -14 2 -27 2 -29 0z"/>
<path fill="#000000" stroke="none" d="M118 43 c12 -2 32 -2 45 0 12 2 2 4
-23 4 -25 0 -35 -2 -22 -4z"/>
</g>
</svg>
