<?xml version="1.0" standalone="no"?>
<!DOCTYPE svg PUBLIC "-//W3C//DTD SVG 20010904//EN"
 "http://www.w3.org/TR/2001/REC-SVG-20010904/DTD/svg10.dtd">
<svg version="1.0" xmlns="http://www.w3.org/2000/svg"
 width="32.000000pt" height="32.000000pt" viewBox="0 0 32.000000 32.000000"
 preserveAspectRatio="xMidYMid meet">
<metadata>
Created by potrace 1.16, written by Peter Selinger 2001-2019
</metadata>
<g transform="translate(0.000000,32.000000) scale(0.100000,-0.100000)"
fill="#000000" stroke="none">
<path fill="#000000" stroke="none" d="M112 260 c-16 -26 -15 -32 6 -29 33 3
52 -1 52 -12 0 -5 -5 -7 -11 -3 -7 4 -10 1 -7 -7 2 -7 18 -16 34 -21 25 -6 26
-5 12 6 -11 8 -14 17 -7 27 14 22 11 28 -11 22 -11 -3 -20 0 -20 6 0 6 7 11
16 11 8 0 12 5 9 10 -11 18 -59 11 -73 -10z"/>
<path fill="#000000" stroke="none" d="M77 179 c-4 -14 0 -18 16 -15 28 4 33
22 8 29 -13 3 -21 -1 -24 -14z"/>
<path fill="#000000" stroke="none" d="M240 178 c0 -10 -8 -18 -17 -18 -14 0
-15 -2 -4 -12 11 -11 14 -10 18 0 3 6 9 10 14 6 12 -7 11 7 -1 26 -8 13 -10
12 -10 -2z"/>
</g>
</svg>
