<?xml version="1.0" standalone="no"?>
<!DOCTYPE svg PUBLIC "-//W3C//DTD SVG 20010904//EN"
 "http://www.w3.org/TR/2001/REC-SVG-20010904/DTD/svg10.dtd">
<svg version="1.0" xmlns="http://www.w3.org/2000/svg"
 width="32.000000pt" height="32.000000pt" viewBox="0 0 32.000000 32.000000"
 preserveAspectRatio="xMidYMid meet">
<metadata>
Created by potrace 1.16, written by Peter Selinger 2001-2019
</metadata>
<g transform="translate(0.000000,32.000000) scale(0.100000,-0.100000)"
fill="#000000" stroke="none">
<path fill="#000000" stroke="none" d="M127 274 c-3 -3 5 -18 19 -32 24 -26
34 -59 14 -47 -5 3 -10 -1 -10 -9 0 -9 7 -16 15 -16 9 0 15 9 15 24 0 14 4 27
10 31 17 10 -11 55 -35 55 -12 0 -24 -3 -28 -6z"/>
<path fill="#ffffff" stroke="none" d="M180 240 c0 -5 -4 -10 -10 -10 -5 0
-10 5 -10 10 0 6 5 10 10 10 6 0 10 -4 10 -10z"/>
<path fill="#000000" stroke="none" d="M92 218 c-14 -14 -16 -38 -3 -38 6 0
13 5 16 10 3 6 1 10 -6 10 -8 0 -8 4 1 15 15 18 9 20 -8 3z"/>
<path fill="#000000" stroke="none" d="M240 178 c0 -10 -7 -18 -15 -18 -8 0
-15 -7 -15 -15 0 -19 19 -19 26 0 4 8 10 12 15 9 12 -7 11 7 -1 26 -8 13 -10
12 -10 -2z"/>
<path fill="#000000" stroke="none" d="M132 97 c18 -19 53 -23 63 -7 3 6 -5
10 -19 10 -13 0 -33 3 -43 7 -17 6 -17 6 -1 -10z"/>
</g>
</svg>
