<?xml version="1.0" standalone="no"?>
<!DOCTYPE svg PUBLIC "-//W3C//DTD SVG 20010904//EN"
 "http://www.w3.org/TR/2001/REC-SVG-20010904/DTD/svg10.dtd">
<svg version="1.0" xmlns="http://www.w3.org/2000/svg"
 width="32.000000pt" height="32.000000pt" viewBox="0 0 32.000000 32.000000"
 preserveAspectRatio="xMidYMid meet">
<metadata>
Created by potrace 1.16, written by Peter Selinger 2001-2019
</metadata>
<g transform="translate(0.000000,32.000000) scale(0.100000,-0.100000)"
fill="#000000" stroke="none">
<path fill="#000000" stroke="none" d="M103 275 c-13 -9 -25 -34 -32 -65 -15
-71 -14 -78 14 -105 19 -20 34 -25 74 -25 91 0 123 66 76 158 -26 48 -90 67
-132 37z"/>
<path fill="#ffffff" stroke="none" d="M149 232 c5 -10 6 -24 1 -32 -12 -20
-1 -38 19 -33 13 3 17 11 14 24 -8 29 15 51 38 38 19 -10 27 -39 10 -39 -5 0
-19 -16 -30 -36 l-22 -36 26 6 c14 4 25 2 25 -3 0 -4 -14 -11 -32 -15 -62 -12
-137 37 -104 69 12 12 14 10 19 -14 6 -30 34 -48 50 -32 5 5 1 12 -12 16 -12
3 -21 11 -21 17 0 6 -8 20 -17 30 -15 17 -15 20 -3 28 10 7 11 10 3 10 -7 0
-13 5 -13 10 0 17 39 11 49 -8z"/>
</g>
</svg>
