<?xml version="1.0" standalone="no"?>
<!DOCTYPE svg PUBLIC "-//W3C//DTD SVG 20010904//EN"
 "http://www.w3.org/TR/2001/REC-SVG-20010904/DTD/svg10.dtd">
<svg version="1.0" xmlns="http://www.w3.org/2000/svg"
 width="32.000000pt" height="32.000000pt" viewBox="0 0 32.000000 32.000000"
 preserveAspectRatio="xMidYMid meet">
<metadata>
Created by potrace 1.16, written by Peter Selinger 2001-2019
</metadata>
<g transform="translate(0.000000,32.000000) scale(0.100000,-0.100000)"
fill="#000000" stroke="none">
<path fill="#000000" stroke="none" d="M0 160 l0 -160 160 0 160 0 0 160 0
160 -160 0 -160 0 0 -160z"/>
<path fill="#ffffff" stroke="none" d="M180 275 c10 -31 15 -34 37 -29 24 6
25 5 19 -19 -5 -22 -2 -27 29 -37 43 -14 44 -22 3 -41 -32 -14 -40 -30 -19
-37 6 -2 12 5 12 15 1 16 2 16 6 0 2 -9 12 -18 21 -18 15 -1 15 -2 0 -6 -20
-5 -24 -28 -8 -38 6 -3 10 -17 10 -31 l0 -24 -130 0 c-128 0 -130 0 -130 22 0
12 11 32 24 43 37 32 37 57 -1 74 -42 19 -41 27 2 41 31 10 34 15 29 37 -6 24
-5 25 19 19 22 -5 27 -2 37 29 6 19 15 35 20 35 5 0 14 -16 20 -35z"/>
<path fill="#ffffff" stroke="none" d="M66 264 c-7 -7 -14 -8 -22 0 -7 7 -8
14 0 22 7 7 14 8 22 0 7 -7 8 -14 0 -22z"/>
</g>
</svg>
