<?xml version="1.0" standalone="no"?>
<!DOCTYPE svg PUBLIC "-//W3C//DTD SVG 20010904//EN"
 "http://www.w3.org/TR/2001/REC-SVG-20010904/DTD/svg10.dtd">
<svg version="1.0" xmlns="http://www.w3.org/2000/svg"
 width="32.000000pt" height="32.000000pt" viewBox="0 0 32.000000 32.000000"
 preserveAspectRatio="xMidYMid meet">
<metadata>
Created by potrace 1.16, written by Peter Selinger 2001-2019
</metadata>
<g transform="translate(0.000000,32.000000) scale(0.100000,-0.100000)"
fill="#000000" stroke="none">
<path fill="#000000" stroke="none" d="M0 160 l0 -160 160 0 160 0 0 160 0
160 -160 0 -160 0 0 -160z"/>
<path fill="#ffffff" stroke="none" d="M78 279 c15 -1 15 -2 0 -6 -10 -2 -19
-12 -19 -21 -1 -15 -2 -15 -6 1 -2 9 -12 18 -21 18 -15 1 -15 2 1 6 9 2 18 12
18 21 1 15 2 15 6 0 2 -10 12 -19 21 -19z"/>
<path fill="#ffffff" stroke="none" d="M180 275 c10 -31 15 -34 37 -29 24 6
25 5 19 -19 -5 -22 -2 -27 29 -37 19 -6 35 -15 35 -20 0 -12 -29 -20 -35 -10
-8 14 -42 12 -51 -2 -4 -7 -3 -8 4 -4 17 10 35 -3 24 -17 -15 -21 2 -67 25
-67 9 0 13 -6 10 -14 -3 -8 -1 -17 6 -20 9 -3 8 -8 -3 -15 -8 -6 -66 -11 -132
-11 -115 0 -118 1 -118 22 0 12 11 32 24 43 37 32 37 57 -1 74 -42 19 -41 27
2 41 31 10 34 15 29 37 -6 24 -5 25 19 19 22 -5 27 -2 37 29 6 19 15 35 20 35
5 0 14 -16 20 -35z"/>
<path fill="#ffffff" stroke="none" d="M276 94 c-7 -7 -14 -8 -22 0 -7 7 -8
14 0 22 7 7 14 8 22 0 7 -7 8 -14 0 -22z"/>
<path fill="#000000" stroke="none" d="M172 200 c0 -19 2 -27 5 -17 2 9 2 25
0 35 -3 9 -5 1 -5 -18z"/>
<path fill="#000000" stroke="none" d="M132 195 c0 -16 2 -22 5 -12 2 9 2 23
0 30 -3 6 -5 -1 -5 -18z"/>
<path fill="#000000" stroke="none" d="M152 195 c0 -16 2 -22 5 -12 2 9 2 23
0 30 -3 6 -5 -1 -5 -18z"/>
<path fill="#000000" stroke="none" d="M110 141 c0 -11 4 -22 9 -25 4 -3 6 6
3 19 -5 30 -12 33 -12 6z"/>
<path fill="#000000" stroke="none" d="M189 113 c-13 -16 -12 -17 4 -4 16 13
21 21 13 21 -2 0 -10 -8 -17 -17z"/>
</g>
</svg>
