<?xml version="1.0" standalone="no"?>
<!DOCTYPE svg PUBLIC "-//W3C//DTD SVG 20010904//EN"
 "http://www.w3.org/TR/2001/REC-SVG-20010904/DTD/svg10.dtd">
<svg version="1.0" xmlns="http://www.w3.org/2000/svg"
 width="32.000000pt" height="32.000000pt" viewBox="0 0 32.000000 32.000000"
 preserveAspectRatio="xMidYMid meet">
<metadata>
Created by potrace 1.16, written by Peter Selinger 2001-2019
</metadata>
<g transform="translate(0.000000,32.000000) scale(0.100000,-0.100000)"
fill="#000000" stroke="none">
<path fill="#000000" stroke="none" d="M0 205 c0 -93 3 -115 14 -115 8 0 17 8
19 18 4 16 5 16 6 0 1 -25 37 -23 44 2 5 21 -6 34 -40 44 -33 10 -28 23 12 36
31 10 34 15 29 37 -6 24 -5 25 19 19 22 -5 27 -2 37 29 15 44 25 44 40 0 10
-31 15 -34 37 -29 24 6 25 5 19 -19 -5 -22 -2 -27 29 -37 43 -14 44 -22 3 -41
-39 -17 -39 -42 -2 -74 13 -11 24 -31 24 -43 0 -22 -2 -22 -130 -22 l-130 0 0
35 c0 24 -5 35 -15 35 -11 0 -15 -11 -15 -40 l0 -40 160 0 160 0 0 160 0 160
-160 0 -160 0 0 -115z"/>
<path fill="#ffffff" stroke="none" d="M296 234 c-7 -7 -14 -8 -22 0 -7 7 -8
14 0 22 7 7 14 8 22 0 7 -7 8 -14 0 -22z"/>
</g>
</svg>
