<?xml version="1.0" standalone="no"?>
<!DOCTYPE svg PUBLIC "-//W3C//DTD SVG 20010904//EN"
 "http://www.w3.org/TR/2001/REC-SVG-20010904/DTD/svg10.dtd">
<svg version="1.0" xmlns="http://www.w3.org/2000/svg"
 width="32.000000pt" height="32.000000pt" viewBox="0 0 32.000000 32.000000"
 preserveAspectRatio="xMidYMid meet">
<metadata>
Created by potrace 1.16, written by Peter Selinger 2001-2019
</metadata>
<g transform="translate(0.000000,32.000000) scale(0.100000,-0.100000)"
fill="#000000" stroke="none">
<path fill="#000000" stroke="none" d="M140 275 c-10 -31 -15 -34 -37 -29 -24
6 -25 5 -19 -19 5 -22 2 -27 -29 -37 -40 -13 -45 -26 -12 -36 34 -10 45 -23
40 -44 -7 -25 -40 -26 -46 -3 -4 16 -5 16 -6 1 0 -9 -9 -19 -19 -21 -16 -4
-16 -5 1 -6 13 -1 17 -10 17 -36 l0 -35 130 0 c128 0 130 0 130 22 0 12 -11
32 -24 43 -37 32 -37 57 2 74 41 19 40 27 -3 41 -31 10 -34 15 -29 37 6 24 5
25 -19 19 -22 -5 -27 -2 -37 29 -6 19 -15 35 -20 35 -5 0 -14 -16 -20 -35z"/>
<path fill="#000000" stroke="none" d="M274 256 c-8 -8 -7 -15 0 -22 8 -8 15
-7 22 0 8 8 7 15 0 22 -8 8 -15 7 -22 0z"/>
</g>
</svg>
