<?xml version="1.0" standalone="no"?>
<!DOCTYPE svg PUBLIC "-//W3C//DTD SVG 20010904//EN"
 "http://www.w3.org/TR/2001/REC-SVG-20010904/DTD/svg10.dtd">
<svg version="1.0" xmlns="http://www.w3.org/2000/svg"
 width="32.000000pt" height="32.000000pt" viewBox="0 0 32.000000 32.000000"
 preserveAspectRatio="xMidYMid meet">
<metadata>
Created by potrace 1.16, written by Peter Selinger 2001-2019
</metadata>
<g transform="translate(0.000000,32.000000) scale(0.100000,-0.100000)"
fill="#000000" stroke="none">
<path fill="#000000" stroke="none" d="M0 160 l0 -160 160 0 160 0 0 160 0
160 -160 0 -160 0 0 -160z"/>
<path fill="#ffffff" stroke="none" d="M180 275 c10 -31 15 -34 37 -29 24 6
25 5 19 -19 -5 -22 -2 -27 29 -37 41 -14 45 -27 10 -36 -32 -8 -50 -30 -34
-40 7 -4 15 -2 17 4 2 8 7 8 16 -1 11 -9 10 -14 -1 -26 -13 -12 -13 -15 1 -23
9 -5 16 -20 16 -33 l0 -25 -130 0 -130 0 0 34 c0 19 -4 36 -9 38 -5 2 -3 9 5
16 8 7 14 8 14 2 0 -19 38 -10 43 10 5 21 -6 34 -40 44 -33 10 -28 23 12 36
31 10 34 15 29 37 -6 24 -5 25 19 19 22 -5 27 -2 37 29 6 19 15 35 20 35 5 0
14 -16 20 -35z"/>
</g>
</svg>
