<?xml version="1.0" standalone="no"?>
<!DOCTYPE svg PUBLIC "-//W3C//DTD SVG 20010904//EN"
 "http://www.w3.org/TR/2001/REC-SVG-20010904/DTD/svg10.dtd">
<svg version="1.0" xmlns="http://www.w3.org/2000/svg"
 width="32.000000pt" height="32.000000pt" viewBox="0 0 32.000000 32.000000"
 preserveAspectRatio="xMidYMid meet">
<metadata>
Created by potrace 1.16, written by Peter Selinger 2001-2019
</metadata>
<g transform="translate(0.000000,32.000000) scale(0.100000,-0.100000)"
fill="#000000" stroke="none">
<path fill="#000000" stroke="none" d="M0 160 l0 -160 160 0 160 0 0 160 0
160 -160 0 -160 0 0 -160z"/>
<path fill="#ffffff" stroke="none" d="M222 233 c-2 -16 -14 -38 -25 -50 l-20
-23 20 -22 c11 -13 23 -35 25 -50 l5 -28 -67 0 -67 0 5 28 c2 15 14 37 25 50
l20 22 -20 23 c-11 12 -23 34 -25 50 l-5 27 67 0 67 0 -5 -27z"/>
<path fill="#000000" stroke="none" d="M120 227 c0 -12 7 -33 16 -45 14 -20
14 -24 0 -44 -9 -12 -16 -33 -16 -45 0 -20 5 -23 40 -23 35 0 40 3 40 23 0 12
-7 33 -16 45 -14 20 -14 24 0 44 9 12 16 33 16 45 0 20 -5 23 -40 23 -35 0
-40 -3 -40 -23z"/>
<path fill="#ffffff" stroke="none" d="M178 188 c-3 -7 -11 -13 -18 -13 -7 0
-15 6 -17 13 -3 7 4 12 17 12 13 0 20 -5 18 -12z"/>
<path fill="#ffffff" stroke="none" d="M180 95 c11 -13 8 -15 -20 -15 -28 0
-31 2 -20 15 16 19 24 19 40 0z"/>
</g>
</svg>
