<?xml version="1.0" standalone="no"?>
<!DOCTYPE svg PUBLIC "-//W3C//DTD SVG 20010904//EN"
 "http://www.w3.org/TR/2001/REC-SVG-20010904/DTD/svg10.dtd">
<svg version="1.0" xmlns="http://www.w3.org/2000/svg"
 width="32.000000pt" height="32.000000pt" viewBox="0 0 32.000000 32.000000"
 preserveAspectRatio="xMidYMid meet">
<metadata>
Created by potrace 1.16, written by Peter Selinger 2001-2019
</metadata>
<g transform="translate(0.000000,32.000000) scale(0.100000,-0.100000)"
fill="#000000" stroke="none">
<path fill="#000000" stroke="none" d="M0 160 l0 -160 160 0 160 0 0 160 0
160 -160 0 -160 0 0 -160z"/>
<path fill="#ffffff" stroke="none" d="M202 243 c22 -20 23 -61 1 -85 -34 -38
-103 -11 -103 40 0 54 62 81 102 45z"/>
<path fill="#ffffff" stroke="none" d="M93 113 c26 -24 108 -24 134 0 23 21
43 22 43 3 0 -8 -8 -13 -17 -12 -13 1 -18 -6 -17 -21 1 -22 -3 -23 -76 -23
-73 0 -77 1 -76 23 1 15 -4 22 -16 21 -10 -1 -18 4 -18 12 0 19 20 18 43 -3z"/>
<path fill="#000000" stroke="none" d="M136 224 c-9 -8 -16 -19 -16 -24 0 -11
29 -40 40 -40 11 0 40 29 40 40 0 5 -7 16 -16 24 -8 9 -19 16 -24 16 -5 0 -16
-7 -24 -16z"/>
</g>
</svg>
