<?xml version="1.0" standalone="no"?>
<!DOCTYPE svg PUBLIC "-//W3C//DTD SVG 20010904//EN"
 "http://www.w3.org/TR/2001/REC-SVG-20010904/DTD/svg10.dtd">
<svg version="1.0" xmlns="http://www.w3.org/2000/svg"
 width="32.000000pt" height="32.000000pt" viewBox="0 0 32.000000 32.000000"
 preserveAspectRatio="xMidYMid meet">
<metadata>
Created by potrace 1.16, written by Peter Selinger 2001-2019
</metadata>
<g transform="translate(0.000000,32.000000) scale(0.100000,-0.100000)"
fill="#000000" stroke="none">
<path fill="#000000" stroke="none" d="M0 160 l0 -160 160 0 160 0 0 160 0
160 -160 0 -160 0 0 -160z"/>
<path fill="#ffffff" stroke="none" d="M100 216 c0 -24 23 -56 41 -56 5 0 9
-18 9 -40 0 -22 -4 -40 -10 -40 -5 0 -10 13 -10 29 0 33 -23 47 -40 26 -7 -8
-17 -12 -22 -9 -5 4 -3 13 5 22 18 21 11 42 -14 42 -10 0 -19 5 -19 10 0 6 9
10 20 10 11 0 20 7 20 15 0 8 5 15 10 15 6 0 10 -11 10 -24z"/>
<path fill="#ffffff" stroke="none" d="M240 225 c0 -8 9 -15 20 -15 11 0 20
-4 20 -10 0 -5 -9 -10 -19 -10 -24 0 -34 -25 -16 -40 8 -7 12 -17 9 -22 -4 -5
-13 -3 -22 5 -24 20 -42 10 -42 -24 0 -16 -4 -29 -10 -29 -5 0 -10 18 -10 40
0 22 4 40 9 40 18 0 41 32 41 56 0 13 5 24 10 24 6 0 10 -7 10 -15z"/>
</g>
</svg>
