<?xml version="1.0" standalone="no"?>
<!DOCTYPE svg PUBLIC "-//W3C//DTD SVG 20010904//EN"
 "http://www.w3.org/TR/2001/REC-SVG-20010904/DTD/svg10.dtd">
<svg version="1.0" xmlns="http://www.w3.org/2000/svg"
 width="32.000000pt" height="32.000000pt" viewBox="0 0 32.000000 32.000000"
 preserveAspectRatio="xMidYMid meet">
<metadata>
Created by potrace 1.16, written by Peter Selinger 2001-2019
</metadata>
<g transform="translate(0.000000,32.000000) scale(0.100000,-0.100000)"
fill="#000000" stroke="none">
<path fill="#000000" stroke="none" d="M143 243 c9 -2 25 -2 35 0 9 3 1 5 -18
5 -19 0 -27 -2 -17 -5z"/>
<path fill="#000000" stroke="none" d="M60 222 c0 -5 16 -22 35 -39 19 -17 32
-33 29 -36 -3 -3 0 -14 7 -25 10 -17 10 -23 0 -36 -12 -14 -9 -16 29 -16 38 0
41 2 29 16 -10 13 -10 19 0 36 7 11 10 22 7 25 -3 3 10 19 29 36 43 37 44 47
6 47 -23 0 -30 -5 -33 -21 -7 -49 -69 -49 -76 0 -3 16 -10 21 -33 21 -16 0
-29 -4 -29 -8z"/>
<path fill="#000000" stroke="none" d="M144 209 c-10 -17 13 -36 27 -22 12 12
4 33 -11 33 -5 0 -12 -5 -16 -11z"/>
</g>
</svg>
