<?xml version="1.0" standalone="no"?>
<!DOCTYPE svg PUBLIC "-//W3C//DTD SVG 20010904//EN"
 "http://www.w3.org/TR/2001/REC-SVG-20010904/DTD/svg10.dtd">
<svg version="1.0" xmlns="http://www.w3.org/2000/svg"
 width="32.000000pt" height="32.000000pt" viewBox="0 0 32.000000 32.000000"
 preserveAspectRatio="xMidYMid meet">
<metadata>
Created by potrace 1.16, written by Peter Selinger 2001-2019
</metadata>
<g transform="translate(0.000000,32.000000) scale(0.100000,-0.100000)"
fill="#000000" stroke="none">
<path fill="#000000" stroke="none" d="M0 160 l0 -160 160 0 160 0 0 160 0
160 -160 0 -160 0 0 -160z"/>
<path fill="#ffffff" stroke="none" d="M140 248 c0 -12 -7 -29 -15 -38 -13
-15 -12 -19 10 -40 l25 -23 25 23 c22 21 23 25 10 40 -24 26 -19 60 8 59 12 0
16 -3 10 -6 -18 -7 -16 -38 2 -53 14 -12 12 -17 -15 -45 -35 -36 -37 -45 -12
-46 15 -1 15 -2 -1 -6 -15 -4 -18 -12 -15 -34 4 -22 1 -29 -12 -29 -13 0 -16
7 -12 30 3 24 0 30 -14 31 -17 1 -17 2 -1 6 23 6 22 12 -13 48 -27 28 -29 33
-15 45 18 15 20 46 3 53 -7 3 -3 6 10 6 16 1 22 -5 22 -21z"/>
</g>
</svg>
