<?xml version="1.0" standalone="no"?>
<!DOCTYPE svg PUBLIC "-//W3C//DTD SVG 20010904//EN"
 "http://www.w3.org/TR/2001/REC-SVG-20010904/DTD/svg10.dtd">
<svg version="1.0" xmlns="http://www.w3.org/2000/svg"
 width="32.000000pt" height="32.000000pt" viewBox="0 0 32.000000 32.000000"
 preserveAspectRatio="xMidYMid meet">
<metadata>
Created by potrace 1.16, written by Peter Selinger 2001-2019
</metadata>
<g transform="translate(0.000000,32.000000) scale(0.100000,-0.100000)"
fill="#000000" stroke="none">
<path fill="#000000" stroke="none" d="M0 160 l0 -160 160 0 160 0 0 160 0
160 -160 0 -160 0 0 -160z"/>
<path fill="#ffffff" stroke="none" d="M175 230 c5 -15 12 -19 27 -14 17 5 19
3 14 -14 -5 -15 -1 -22 14 -27 11 -3 20 -10 20 -15 0 -5 -9 -12 -20 -15 -15
-5 -19 -12 -14 -27 5 -17 3 -19 -14 -14 -15 5 -22 1 -27 -14 -8 -26 -22 -26
-30 0 -5 15 -12 19 -27 14 -17 -5 -19 -3 -14 14 5 15 1 22 -14 27 -26 8 -26
22 0 30 15 5 19 12 14 27 -5 17 -3 19 14 14 15 -5 22 -1 27 14 3 11 10 20 15
20 5 0 12 -9 15 -20z"/>
</g>
</svg>
