<?xml version="1.0" standalone="no"?>
<!DOCTYPE svg PUBLIC "-//W3C//DTD SVG 20010904//EN"
 "http://www.w3.org/TR/2001/REC-SVG-20010904/DTD/svg10.dtd">
<svg version="1.0" xmlns="http://www.w3.org/2000/svg"
 width="32.000000pt" height="32.000000pt" viewBox="0 0 32.000000 32.000000"
 preserveAspectRatio="xMidYMid meet">
<metadata>
Created by potrace 1.16, written by Peter Selinger 2001-2019
</metadata>
<g transform="translate(0.000000,32.000000) scale(0.100000,-0.100000)"
fill="#000000" stroke="none">
<path fill="#000000" stroke="none" d="M0 160 l0 -160 160 0 160 0 0 160 0
160 -160 0 -160 0 0 -160z"/>
<path fill="#ffffff" stroke="none" d="M75 230 c13 10 15 9 15 -8 0 -29 18
-37 75 -34 60 4 99 -20 114 -71 5 -18 12 -39 16 -48 5 -13 -2 -20 -27 -28 -35
-11 -102 -1 -80 13 9 5 9 13 2 27 -12 22 -60 26 -60 5 0 -8 -7 -22 -16 -30 -8
-9 -11 -16 -5 -16 5 0 15 8 20 18 9 15 10 15 11 1 0 -19 -23 -31 -45 -23 -18
7 -19 16 -3 32 9 9 9 15 -1 25 -10 10 -17 6 -36 -18 -13 -16 -27 -26 -31 -22
-4 3 -1 13 5 21 9 11 10 29 2 69 -12 66 -5 103 15 86 11 -9 18 -8 29 1z"/>
<path fill="#ffffff" stroke="none" d="M80 70 c0 -5 -4 -10 -10 -10 -5 0 -10
5 -10 10 0 6 5 10 10 10 6 0 10 -4 10 -10z"/>
<path fill="#ffffff" stroke="none" d="M170 65 c-7 -9 -15 -13 -17 -11 -7 7 7
26 19 26 6 0 6 -6 -2 -15z"/>
<path fill="#000000" stroke="none" d="M243 113 c-7 -14 -10 -30 -7 -35 3 -5
0 -17 -8 -26 -12 -15 -11 -16 5 -3 11 8 15 21 12 32 -4 11 -2 19 4 19 6 0 11
-9 11 -19 0 -11 4 -22 9 -26 8 -4 6 10 -12 77 -1 4 -7 -4 -14 -19z"/>
</g>
</svg>
