<?xml version="1.0" standalone="no"?>
<!DOCTYPE svg PUBLIC "-//W3C//DTD SVG 20010904//EN"
 "http://www.w3.org/TR/2001/REC-SVG-20010904/DTD/svg10.dtd">
<svg version="1.0" xmlns="http://www.w3.org/2000/svg"
 width="32.000000pt" height="32.000000pt" viewBox="0 0 32.000000 32.000000"
 preserveAspectRatio="xMidYMid meet">
<metadata>
Created by potrace 1.16, written by Peter Selinger 2001-2019
</metadata>
<g transform="translate(0.000000,32.000000) scale(0.100000,-0.100000)"
fill="#000000" stroke="none">
<path fill="#000000" stroke="none" d="M27 217 c-2 -7 -1 -39 5 -71 6 -40 5
-63 -2 -70 -13 -13 -13 -26 0 -26 6 0 15 11 20 25 10 26 34 33 46 14 3 -6 1
-16 -5 -22 -6 -6 -11 -15 -11 -19 0 -13 17 -9 35 8 18 18 11 79 -12 102 -7 8
-11 18 -8 23 4 5 -2 9 -11 9 -14 0 -15 3 -6 12 23 23 12 31 -12 9 -18 -17 -26
-19 -31 -10 -5 8 -4 10 3 5 8 -5 10 -2 6 8 -7 19 -10 20 -17 3z"/>
<path fill="#ffffff" stroke="none" d="M100 125 c0 -8 -4 -15 -10 -15 -5 0 -7
7 -4 15 4 8 8 15 10 15 2 0 4 -7 4 -15z"/>
<path fill="#000000" stroke="none" d="M202 148 c6 -18 13 -27 16 -20 2 7 7
10 12 7 4 -3 10 4 13 15 3 11 1 20 -4 20 -5 0 -9 -5 -9 -11 0 -6 -7 -3 -16 5
-22 23 -24 20 -12 -16z"/>
<path fill="#000000" stroke="none" d="M160 165 c-1 -5 -2 -21 -1 -35 1 -24 1
-24 -13 5 l-14 30 -1 -31 c-1 -28 3 -32 28 -36 27 -4 28 -2 28 28 -1 18 -4 31
-8 28 -4 -2 -10 2 -12 8 -3 7 -6 9 -7 3z"/>
<path fill="#000000" stroke="none" d="M203 59 c-13 -5 -23 -10 -23 -12 0 -8
40 -5 46 4 9 15 2 18 -23 8z"/>
</g>
</svg>
