<?xml version="1.0" standalone="no"?>
<!DOCTYPE svg PUBLIC "-//W3C//DTD SVG 20010904//EN"
 "http://www.w3.org/TR/2001/REC-SVG-20010904/DTD/svg10.dtd">
<svg version="1.0" xmlns="http://www.w3.org/2000/svg"
 width="32.000000pt" height="32.000000pt" viewBox="0 0 32.000000 32.000000"
 preserveAspectRatio="xMidYMid meet">
<metadata>
Created by potrace 1.16, written by Peter Selinger 2001-2019
</metadata>
<g transform="translate(0.000000,32.000000) scale(0.100000,-0.100000)"
fill="#000000" stroke="none">
<path fill="#000000" stroke="none" d="M14 201 c-12 -13 0 -48 27 -78 22 -26
29 -41 24 -57 -16 -52 -18 -51 110 -52 66 -1 126 3 133 9 21 16 13 38 -17 48
-30 11 -47 46 -36 78 7 24 -21 49 -37 33 -7 -7 -38 -12 -69 -12 -46 0 -58 3
-61 17 -2 11 -14 16 -36 17 -19 1 -36 -1 -38 -3z"/>
<path fill="#ffffff" stroke="none" d="M82 178 c6 -14 20 -18 66 -18 32 0 63
5 70 12 9 9 15 9 24 0 8 -8 9 -12 1 -12 -13 0 9 -96 26 -113 13 -13 14 -27 2
-27 -5 0 -16 19 -25 43 -9 23 -14 30 -11 15 6 -30 -2 -58 -17 -58 -6 0 -8 6
-5 14 7 18 -33 56 -60 56 -21 0 -73 -42 -73 -60 0 -5 -5 -10 -11 -10 -7 0 -8
7 -4 18 17 41 15 51 -14 85 -40 45 -41 73 -3 72 16 0 30 -7 34 -17z"/>
<path fill="#ffffff" stroke="none" d="M190 65 c10 -12 10 -15 -1 -15 -8 0
-24 -3 -36 -6 -19 -5 -23 -2 -23 15 0 25 40 30 60 6z"/>
<path fill="#ffffff" stroke="none" d="M120 40 c6 -11 7 -20 2 -20 -6 0 -12 9
-15 20 -3 11 -3 20 -1 20 2 0 8 -9 14 -20z"/>
</g>
</svg>
