<?xml version="1.0" standalone="no"?>
<!DOCTYPE svg PUBLIC "-//W3C//DTD SVG 20010904//EN"
 "http://www.w3.org/TR/2001/REC-SVG-20010904/DTD/svg10.dtd">
<svg version="1.0" xmlns="http://www.w3.org/2000/svg"
 width="32.000000pt" height="32.000000pt" viewBox="0 0 32.000000 32.000000"
 preserveAspectRatio="xMidYMid meet">
<metadata>
Created by potrace 1.16, written by Peter Selinger 2001-2019
</metadata>
<g transform="translate(0.000000,32.000000) scale(0.100000,-0.100000)"
fill="#000000" stroke="none">
<path fill="#000000" stroke="none" d="M235 221 c-3 -5 -2 -12 3 -15 5 -3 9 1
9 9 0 17 -3 19 -12 6z"/>
<path fill="#000000" stroke="none" d="M97 159 c-10 -11 -22 -17 -27 -14 -14
9 -12 -9 2 -23 15 -15 31 -16 22 0 -4 6 -3 8 4 4 5 -3 13 0 15 6 4 8 6 7 6 -4
1 -9 -7 -19 -17 -22 -13 -4 -17 -16 -17 -46 0 -23 4 -39 10 -37 5 2 10 18 10
35 0 18 3 32 6 32 12 0 20 -32 13 -53 -4 -14 -2 -18 7 -15 8 3 15 18 17 34 5
41 16 48 51 33 33 -15 38 -28 19 -47 -16 -16 -2 -28 16 -13 10 9 14 32 13 77
0 56 -2 62 -12 44 -11 -20 -13 -21 -28 -6 -24 24 -40 20 -33 -9 8 -30 3 -31
-34 -4 -16 12 -26 28 -23 35 7 18 2 16 -20 -7z"/>
</g>
</svg>
