<?xml version="1.0" standalone="no"?>
<!DOCTYPE svg PUBLIC "-//W3C//DTD SVG 20010904//EN"
 "http://www.w3.org/TR/2001/REC-SVG-20010904/DTD/svg10.dtd">
<svg version="1.0" xmlns="http://www.w3.org/2000/svg"
 width="32.000000pt" height="32.000000pt" viewBox="0 0 32.000000 32.000000"
 preserveAspectRatio="xMidYMid meet">
<metadata>
Created by potrace 1.16, written by Peter Selinger 2001-2019
</metadata>
<g transform="translate(0.000000,32.000000) scale(0.100000,-0.100000)"
fill="#000000" stroke="none">
<path fill="#000000" stroke="none" d="M80 243 c-25 -32 -25 -43 -1 -50 12 -3
17 -11 14 -24 -3 -10 0 -33 6 -50 8 -23 8 -36 0 -45 -12 -15 -4 -34 16 -34 7
0 16 -7 19 -16 5 -14 15 -15 53 -10 54 7 83 29 83 63 0 37 -27 81 -60 98 -16
8 -41 30 -55 49 -35 46 -50 50 -75 19z"/>
<path fill="#ffffff" stroke="none" d="M159 208 c18 -20 41 -40 52 -43 39 -13
64 -100 35 -124 -19 -16 -106 -27 -106 -12 0 6 10 12 23 12 16 1 18 2 5 6 -20
5 -23 14 -8 29 8 8 6 15 -5 24 -13 11 -15 9 -15 -14 0 -15 -7 -29 -15 -33 -21
-7 -33 6 -16 16 11 7 11 16 1 45 -6 21 -9 48 -6 62 5 19 3 24 -14 24 -24 0
-25 8 -4 38 18 26 28 22 73 -30z"/>
</g>
</svg>
