<?xml version="1.0" standalone="no"?>
<!DOCTYPE svg PUBLIC "-//W3C//DTD SVG 20010904//EN"
 "http://www.w3.org/TR/2001/REC-SVG-20010904/DTD/svg10.dtd">
<svg version="1.0" xmlns="http://www.w3.org/2000/svg"
 width="32.000000pt" height="32.000000pt" viewBox="0 0 32.000000 32.000000"
 preserveAspectRatio="xMidYMid meet">
<metadata>
Created by potrace 1.16, written by Peter Selinger 2001-2019
</metadata>
<g transform="translate(0.000000,32.000000) scale(0.100000,-0.100000)"
fill="#000000" stroke="none">
<path fill="#000000" stroke="none" d="M244 288 c-4 -6 0 -16 9 -23 23 -17 21
-42 -4 -56 -12 -6 -69 -12 -128 -13 l-106 -2 -3 -28 c-4 -36 15 -59 44 -52 29
8 40 -30 17 -56 -11 -12 -13 -22 -7 -28 15 -15 128 -24 151 -12 14 8 23 8 30
1 8 -8 20 -7 39 3 40 19 42 43 5 63 -39 20 -41 55 -6 97 29 34 32 64 9 96 -17
24 -39 29 -50 10z"/>
<path fill="#ffffff" stroke="none" d="M280 211 c-6 -12 -18 -20 -28 -20 -15
1 -15 2 1 6 10 3 21 18 24 36 4 19 9 25 11 15 2 -9 -2 -26 -8 -37z"/>
<path fill="#ffffff" stroke="none" d="M65 170 c3 -5 1 -10 -4 -10 -6 0 -11 5
-11 10 0 6 2 10 4 10 3 0 8 -4 11 -10z"/>
<path fill="#ffffff" stroke="none" d="M200 160 c8 -15 8 -18 -3 -14 -8 3 -14
11 -14 19 0 20 4 19 17 -5z"/>
<path fill="#ffffff" stroke="none" d="M40 140 c0 -5 -4 -10 -10 -10 -5 0 -10
5 -10 10 0 6 5 10 10 10 6 0 10 -4 10 -10z"/>
<path fill="#ffffff" stroke="none" d="M146 128 c5 -7 3 -8 -6 -3 -10 6 -12 4
-6 -11 5 -14 4 -16 -5 -7 -6 6 -8 16 -5 22 9 14 13 14 22 -1z"/>
<path fill="#ffffff" stroke="none" d="M130 86 c0 -2 -7 -7 -16 -10 -8 -3 -12
-2 -9 4 6 10 25 14 25 6z"/>
<path fill="#ffffff" stroke="none" d="M178 72 c2 -7 -3 -12 -12 -12 -9 0 -16
7 -16 16 0 17 22 14 28 -4z"/>
<path fill="#ffffff" stroke="none" d="M213 75 c-3 -9 -8 -14 -10 -11 -3 3 -2
9 2 15 9 16 15 13 8 -4z"/>
</g>
</svg>
