<?xml version="1.0" standalone="no"?>
<!DOCTYPE svg PUBLIC "-//W3C//DTD SVG 20010904//EN"
 "http://www.w3.org/TR/2001/REC-SVG-20010904/DTD/svg10.dtd">
<svg version="1.0" xmlns="http://www.w3.org/2000/svg"
 width="32.000000pt" height="32.000000pt" viewBox="0 0 32.000000 32.000000"
 preserveAspectRatio="xMidYMid meet">
<metadata>
Created by potrace 1.16, written by Peter Selinger 2001-2019
</metadata>
<g transform="translate(0.000000,32.000000) scale(0.100000,-0.100000)"
fill="#000000" stroke="none">
<path fill="#000000" stroke="none" d="M37 263 c-11 -11 -8 -58 5 -71 6 -6 12
-45 14 -86 1 -41 4 -79 8 -84 8 -13 166 -8 192 6 36 19 59 51 46 64 -9 9 -15
9 -24 0 -20 -20 -37 -14 -58 21 -10 17 -38 46 -62 63 -24 17 -44 39 -46 50 -7
41 -11 47 -27 34 -11 -9 -18 -10 -28 -1 -8 6 -17 8 -20 4z"/>
<path fill="#ffffff" stroke="none" d="M85 250 c13 11 15 8 15 -13 0 -17 11
-33 31 -49 37 -28 62 -53 94 -93 21 -27 26 -29 45 -17 26 16 38 8 20 -13 -15
-17 -48 -12 -67 12 -9 12 -14 9 -28 -21 -20 -41 -38 -48 -29 -11 7 27 -10 35
-20 10 -10 -28 -26 -15 -20 18 5 30 4 30 -15 -10 -23 -49 -38 -55 -38 -15 0
52 -14 142 -24 147 -5 4 -9 20 -9 37 0 26 2 29 15 18 12 -10 18 -10 30 0z"/>
</g>
</svg>
