<?xml version="1.0" standalone="no"?>
<!DOCTYPE svg PUBLIC "-//W3C//DTD SVG 20010904//EN"
 "http://www.w3.org/TR/2001/REC-SVG-20010904/DTD/svg10.dtd">
<svg version="1.0" xmlns="http://www.w3.org/2000/svg"
 width="32.000000pt" height="32.000000pt" viewBox="0 0 32.000000 32.000000"
 preserveAspectRatio="xMidYMid meet">
<metadata>
Created by potrace 1.16, written by Peter Selinger 2001-2019
</metadata>
<g transform="translate(0.000000,32.000000) scale(0.100000,-0.100000)"
fill="#000000" stroke="none">
<path fill="#000000" stroke="none" d="M0 160 l0 -160 160 0 160 0 0 160 0
160 -160 0 -160 0 0 -160z"/>
<path fill="#ffffff" stroke="none" d="M95 200 c6 0 4 4 -4 9 -10 7 -11 13 -1
31 l13 23 12 -29 c11 -25 10 -32 -8 -51 -19 -21 -44 -23 -32 -2 4 5 2 9 -3 9
-5 0 -12 -9 -15 -20 -6 -25 19 -27 51 -4 22 15 24 14 47 -10 12 -14 19 -26 13
-28 -6 -2 -2 -10 8 -18 16 -13 17 -13 9 0 -6 12 -5 13 5 3 7 -6 13 -26 14 -42
1 -18 6 -31 14 -31 6 0 12 4 12 9 0 5 10 12 23 15 l22 6 -25 14 c-22 13 -23
15 -7 21 35 14 64 -39 35 -62 -18 -14 -84 -23 -94 -13 -5 5 -20 10 -34 12 -19
2 -25 9 -24 27 l1 25 -21 -27 c-12 -15 -26 -27 -31 -27 -6 0 -3 5 5 10 13 9
13 10 0 10 -20 0 -43 54 -37 86 3 15 -1 28 -10 33 -11 6 -13 17 -7 46 l7 38
26 -31 c14 -18 31 -32 36 -32z"/>
<path fill="#ffffff" stroke="none" d="M50 69 c0 -5 -4 -9 -10 -9 -5 0 -10 7
-10 16 0 8 5 12 10 9 6 -3 10 -10 10 -16z"/>
</g>
</svg>
