<?xml version="1.0" standalone="no"?>
<!DOCTYPE svg PUBLIC "-//W3C//DTD SVG 20010904//EN"
 "http://www.w3.org/TR/2001/REC-SVG-20010904/DTD/svg10.dtd">
<svg version="1.0" xmlns="http://www.w3.org/2000/svg"
 width="32.000000pt" height="32.000000pt" viewBox="0 0 32.000000 32.000000"
 preserveAspectRatio="xMidYMid meet">
<metadata>
Created by potrace 1.16, written by Peter Selinger 2001-2019
</metadata>
<g transform="translate(0.000000,32.000000) scale(0.100000,-0.100000)"
fill="#000000" stroke="none">
<path fill="#000000" stroke="none" d="M145 149 c-22 -10 -54 -18 -72 -17 -41
3 -45 -1 -33 -42 6 -23 6 -38 -1 -46 -23 -27 23 -48 49 -22 9 9 17 9 36 -2 20
-10 28 -10 40 -1 9 8 16 8 20 2 14 -23 116 15 116 43 0 23 -31 75 -53 91 -28
19 -53 18 -102 -6z"/>
<path fill="#ffffff" stroke="none" d="M249 144 c14 -10 21 -23 18 -34 -2 -9
0 -26 6 -36 10 -17 9 -18 -7 -5 -19 16 -20 15 -47 -32 -12 -22 -29 -22 -29 0
0 15 -1 15 -18 0 -27 -25 -45 -22 -36 5 6 20 5 21 -9 10 -9 -8 -21 -11 -27 -7
-6 4 -20 -1 -31 -11 -10 -9 -22 -14 -26 -10 -4 4 -1 11 6 15 8 5 11 17 7 30
-17 60 -18 57 16 54 18 -2 51 5 73 16 50 24 74 25 104 5z"/>
</g>
</svg>
