<?xml version="1.0" standalone="no"?>
<!DOCTYPE svg PUBLIC "-//W3C//DTD SVG 20010904//EN"
 "http://www.w3.org/TR/2001/REC-SVG-20010904/DTD/svg10.dtd">
<svg version="1.0" xmlns="http://www.w3.org/2000/svg"
 width="32.000000pt" height="32.000000pt" viewBox="0 0 32.000000 32.000000"
 preserveAspectRatio="xMidYMid meet">
<metadata>
Created by potrace 1.16, written by Peter Selinger 2001-2019
</metadata>
<g transform="translate(0.000000,32.000000) scale(0.100000,-0.100000)"
fill="#000000" stroke="none">
<path fill="#000000" stroke="none" d="M0 160 l0 -160 160 0 160 0 0 160 0
160 -160 0 -160 0 0 -160z"/>
<path fill="#ffffff" stroke="none" d="M247 155 c22 -16 53 -68 53 -91 0 -28
-102 -66 -116 -43 -4 6 -11 6 -20 -2 -12 -9 -20 -9 -40 1 -19 11 -27 11 -36 2
-26 -26 -72 -5 -49 22 7 8 7 23 1 46 -12 41 -8 45 33 42 18 -1 50 7 72 17 49
24 74 25 102 6z"/>
<path fill="#000000" stroke="none" d="M190 151 c0 -7 -5 -9 -11 -5 -9 5 -10
-1 -5 -22 6 -29 6 -29 -7 -5 -10 16 -16 20 -21 12 -12 -18 1 -41 22 -41 30 0
48 -26 32 -45 -7 -9 -10 -19 -6 -23 11 -10 47 41 42 60 -2 10 2 22 9 28 8 6
11 18 8 26 -4 11 -9 12 -16 5 -8 -8 -16 -6 -29 6 -12 10 -18 12 -18 4z"/>
<path fill="#000000" stroke="none" d="M40 121 c0 -5 5 -13 10 -16 6 -4 8 -11
5 -16 -11 -17 10 -8 40 17 29 24 29 24 4 15 -15 -5 -31 -5 -42 0 -11 7 -17 6
-17 0z"/>
<path fill="#000000" stroke="none" d="M123 91 c3 -11 1 -21 -4 -21 -5 0 -9 5
-9 10 0 14 -19 12 -35 -4 -12 -11 -8 -13 26 -11 23 1 43 -3 50 -11 9 -11 8
-14 -5 -14 -9 0 -16 -4 -16 -10 0 -14 23 -13 38 2 19 19 14 33 -20 58 -31 23
-31 23 -25 1z"/>
<path fill="#000000" stroke="none" d="M50 40 c-8 -5 -11 -12 -7 -16 4 -4 13
-2 19 4 15 15 7 24 -12 12z"/>
</g>
</svg>
