<?xml version="1.0" standalone="no"?>
<!DOCTYPE svg PUBLIC "-//W3C//DTD SVG 20010904//EN"
 "http://www.w3.org/TR/2001/REC-SVG-20010904/DTD/svg10.dtd">
<svg version="1.0" xmlns="http://www.w3.org/2000/svg"
 width="32.000000pt" height="32.000000pt" viewBox="0 0 32.000000 32.000000"
 preserveAspectRatio="xMidYMid meet">
<metadata>
Created by potrace 1.16, written by Peter Selinger 2001-2019
</metadata>
<g transform="translate(0.000000,32.000000) scale(0.100000,-0.100000)"
fill="#000000" stroke="none">
<path fill="#000000" stroke="none" d="M145 149 c-22 -10 -54 -18 -72 -17 -41
3 -45 -1 -33 -42 6 -23 6 -38 -1 -46 -23 -27 23 -48 49 -22 9 9 17 9 36 -2 20
-10 28 -10 40 -1 9 8 16 8 20 2 14 -23 116 15 116 43 0 23 -31 75 -53 91 -28
19 -53 18 -102 -6z"/>
<path fill="#ffffff" stroke="none" d="M237 141 c7 7 12 6 16 -5 3 -8 0 -20
-8 -26 -7 -6 -11 -18 -9 -28 5 -19 -31 -70 -42 -60 -4 4 -1 14 6 23 16 19 -2
45 -32 45 -21 0 -34 23 -22 41 5 8 11 4 21 -12 13 -24 13 -24 7 5 -5 21 -4 27
5 22 6 -4 11 -2 11 5 0 8 6 6 18 -4 13 -12 21 -14 29 -6z"/>
<path fill="#ffffff" stroke="none" d="M99 121 c25 9 25 9 -4 -15 -30 -25 -51
-34 -40 -17 3 5 1 12 -5 16 -18 11 -11 27 7 16 11 -5 27 -5 42 0z"/>
<path fill="#ffffff" stroke="none" d="M180 55 c0 -15 -21 -35 -37 -35 -7 0
-13 5 -13 10 0 6 7 10 16 10 13 0 14 3 5 14 -7 8 -27 12 -50 11 -34 -2 -38 0
-26 11 16 16 35 18 35 4 0 -5 4 -10 9 -10 5 0 7 10 4 21 -6 22 -6 22 25 -1 18
-13 32 -29 32 -35z"/>
<path fill="#ffffff" stroke="none" d="M62 28 c-6 -6 -15 -8 -19 -4 -4 4 -1
11 7 16 19 12 27 3 12 -12z"/>
</g>
</svg>
