<?xml version="1.0" standalone="no"?>
<!DOCTYPE svg PUBLIC "-//W3C//DTD SVG 20010904//EN"
 "http://www.w3.org/TR/2001/REC-SVG-20010904/DTD/svg10.dtd">
<svg version="1.0" xmlns="http://www.w3.org/2000/svg"
 width="32.000000pt" height="32.000000pt" viewBox="0 0 32.000000 32.000000"
 preserveAspectRatio="xMidYMid meet">
<metadata>
Created by potrace 1.16, written by Peter Selinger 2001-2019
</metadata>
<g transform="translate(0.000000,32.000000) scale(0.100000,-0.100000)"
fill="#000000" stroke="none">
<path fill="#000000" stroke="none" d="M103 263 c-24 -16 -31 -47 -13 -58 5
-3 7 -12 3 -21 -8 -21 25 -54 54 -54 36 0 83 28 83 49 0 25 -35 55 -56 47 -12
-4 -15 -2 -10 9 3 9 0 15 -10 15 -11 0 -12 -4 -5 -19 11 -20 5 -31 -15 -31
-21 0 -27 33 -8 47 24 18 63 16 70 -2 7 -18 24 -20 24 -4 0 36 -77 50 -117 22z"/>
<path fill="#ffffff" stroke="none" d="M194 193 c5 -11 1 -22 -10 -30 -22 -16
-39 -16 -65 -3 -22 12 -26 32 -4 24 8 -3 24 1 37 10 28 20 34 20 42 -1z"/>
<path fill="#000000" stroke="none" d="M170 179 c0 -5 -4 -8 -9 -4 -5 3 -12 1
-16 -5 -7 -11 5 -13 29 -4 18 7 22 24 6 24 -5 0 -10 -5 -10 -11z"/>
<path fill="#000000" stroke="none" d="M162 95 c0 -16 2 -22 5 -12 2 9 2 23 0
30 -3 6 -5 -1 -5 -18z"/>
</g>
</svg>
