<?xml version="1.0" standalone="no"?>
<!DOCTYPE svg PUBLIC "-//W3C//DTD SVG 20010904//EN"
 "http://www.w3.org/TR/2001/REC-SVG-20010904/DTD/svg10.dtd">
<svg version="1.0" xmlns="http://www.w3.org/2000/svg"
 width="32.000000pt" height="32.000000pt" viewBox="0 0 32.000000 32.000000"
 preserveAspectRatio="xMidYMid meet">
<metadata>
Created by potrace 1.16, written by Peter Selinger 2001-2019
</metadata>
<g transform="translate(0.000000,32.000000) scale(0.100000,-0.100000)"
fill="#000000" stroke="none">
<path fill="#000000" stroke="none" d="M225 221 c-3 -7 -43 -11 -93 -11 -92 0
-130 -11 -102 -30 16 -11 19 -11 118 -12 37 0 72 -4 78 -9 7 -6 16 -4 24 6 7
9 21 13 31 10 15 -5 19 -1 19 15 0 16 -4 20 -16 16 -10 -4 -25 1 -34 9 -12 11
-20 13 -25 6z"/>
</g>
</svg>
