<?xml version="1.0" standalone="no"?>
<!DOCTYPE svg PUBLIC "-//W3C//DTD SVG 20010904//EN"
 "http://www.w3.org/TR/2001/REC-SVG-20010904/DTD/svg10.dtd">
<svg version="1.0" xmlns="http://www.w3.org/2000/svg"
 width="32.000000pt" height="32.000000pt" viewBox="0 0 32.000000 32.000000"
 preserveAspectRatio="xMidYMid meet">
<metadata>
Created by potrace 1.16, written by Peter Selinger 2001-2019
</metadata>
<g transform="translate(0.000000,32.000000) scale(0.100000,-0.100000)"
fill="#000000" stroke="none">
<path fill="#000000" stroke="none" d="M109 298 c-4 -15 -5 -47 -1 -43 3 3 12
-1 20 -8 11 -8 14 -8 9 0 -4 6 -3 14 3 18 6 4 8 11 5 16 -4 5 3 9 15 9 12 0
19 -4 15 -9 -3 -5 -1 -12 5 -16 6 -4 7 -12 3 -18 -5 -8 -2 -8 9 0 8 7 17 11
20 8 2 -3 4 5 3 18 -1 19 -8 22 -53 25 -29 2 -52 2 -53 0z"/>
<path fill="#000000" stroke="none" d="M110 226 c0 -2 7 -7 16 -10 8 -3 12 -2
9 4 -6 10 -25 14 -25 6z"/>
<path fill="#000000" stroke="none" d="M185 220 c-3 -6 1 -7 9 -4 18 7 21 14
7 14 -6 0 -13 -4 -16 -10z"/>
<path fill="#000000" stroke="none" d="M117 182 c-13 -14 -15 -30 -10 -73 7
-65 17 -79 53 -79 37 0 46 14 54 81 5 47 3 59 -13 73 -17 16 -19 16 -24 -4 -4
-17 -3 -19 9 -9 11 9 15 8 20 -4 7 -20 -12 -82 -32 -97 -19 -17 -39 1 -54 46
-14 43 -7 72 14 55 12 -10 13 -8 9 8 -6 25 -6 25 -26 3z"/>
</g>
</svg>
