<?xml version="1.0" standalone="no"?>
<!DOCTYPE svg PUBLIC "-//W3C//DTD SVG 20010904//EN"
 "http://www.w3.org/TR/2001/REC-SVG-20010904/DTD/svg10.dtd">
<svg version="1.0" xmlns="http://www.w3.org/2000/svg"
 width="32.000000pt" height="32.000000pt" viewBox="0 0 32.000000 32.000000"
 preserveAspectRatio="xMidYMid meet">
<metadata>
Created by potrace 1.16, written by Peter Selinger 2001-2019
</metadata>
<g transform="translate(0.000000,32.000000) scale(0.100000,-0.100000)"
fill="#000000" stroke="none">
<path fill="#000000" stroke="none" d="M208 265 c-5 -5 -51 -12 -95 -14 -16
-1 -23 -7 -23 -21 0 -23 28 -27 49 -7 11 10 13 9 8 -5 -7 -21 12 -24 32 -5 11
10 13 9 9 -3 -3 -10 -16 -14 -37 -14 -17 1 -28 -2 -25 -7 3 -5 -2 -6 -10 -3
-11 4 -16 0 -16 -11 0 -9 3 -14 8 -12 4 3 7 -11 8 -31 2 -65 8 -92 21 -92 7 0
13 3 13 8 0 4 19 8 43 9 23 2 43 7 45 13 2 6 8 7 14 4 7 -5 8 12 3 52 -9 71
-10 74 -36 69 -15 -3 -19 0 -16 10 6 14 -19 29 -34 19 -5 -3 -9 0 -9 5 0 6 6
11 14 11 8 0 23 3 33 6 15 5 15 4 3 -5 -12 -9 -11 -11 9 -11 17 0 22 4 17 16
-3 9 -6 18 -6 20 0 6 -16 5 -22 -1z"/>
<path fill="#ffffff" stroke="none" d="M148 149 c-1 -17 -6 -33 -10 -35 -9 -6
-10 12 -2 44 9 31 15 27 12 -9z"/>
<path fill="#ffffff" stroke="none" d="M213 164 c9 -9 -4 -35 -14 -28 -5 3 -9
12 -9 20 0 14 12 19 23 8z"/>
<path fill="#ffffff" stroke="none" d="M236 124 c2 -19 -2 -24 -13 -20 -11 5
-13 2 -9 -11 7 -17 6 -17 -10 -1 -16 16 -16 18 7 37 13 11 24 20 24 21 0 0 1
-12 1 -26z"/>
<path fill="#ffffff" stroke="none" d="M194 78 c8 -5 7 -8 -1 -8 -7 0 -16 -1
-20 -2 -4 -2 -9 11 -10 27 -2 27 -1 28 9 10 6 -11 16 -23 22 -27z"/>
</g>
</svg>
