<?xml version="1.0" standalone="no"?>
<!DOCTYPE svg PUBLIC "-//W3C//DTD SVG 20010904//EN"
 "http://www.w3.org/TR/2001/REC-SVG-20010904/DTD/svg10.dtd">
<svg version="1.0" xmlns="http://www.w3.org/2000/svg"
 width="32.000000pt" height="32.000000pt" viewBox="0 0 32.000000 32.000000"
 preserveAspectRatio="xMidYMid meet">
<metadata>
Created by potrace 1.16, written by Peter Selinger 2001-2019
</metadata>
<g transform="translate(0.000000,32.000000) scale(0.100000,-0.100000)"
fill="#000000" stroke="none">
<path fill="#000000" stroke="none" d="M99 291 c-14 -16 -14 -19 0 -32 9 -8
17 -13 18 -11 2 1 5 2 8 1 22 -4 63 -1 73 5 7 4 12 4 12 1 0 -3 6 0 13 6 11
11 10 16 -5 31 -24 24 -97 23 -119 -1z"/>
<path fill="#000000" stroke="none" d="M89 229 c-20 -16 -20 -18 -4 -11 11 5
26 7 33 5 6 -3 12 0 12 6 0 20 -18 20 -41 0z"/>
<path fill="#000000" stroke="none" d="M192 233 c-9 -14 -13 -15 -26 -4 -10 9
-16 10 -16 2 0 -6 -11 -13 -24 -17 -14 -3 -33 -15 -43 -26 l-18 -21 35 17 35
17 -24 -21 c-21 -18 -23 -23 -11 -44 7 -14 9 -36 5 -55 -9 -42 8 -61 55 -61
47 0 64 19 55 61 -4 19 -2 41 5 55 12 21 10 26 -11 43 -22 18 -25 18 -30 3 -4
-9 -5 -20 -2 -24 2 -5 -6 -8 -18 -8 -12 0 -20 3 -16 6 3 3 2 17 -3 30 -6 15
-6 24 0 24 6 0 10 -9 10 -20 0 -11 5 -20 10 -20 6 0 10 8 10 18 0 25 40 43 65
30 13 -8 16 -7 11 1 -4 6 -16 15 -26 21 -15 8 -21 6 -28 -7z"/>
<path fill="#ffffff" stroke="none" d="M134 156 c-3 -7 2 -19 11 -26 12 -10
18 -10 30 0 9 7 14 19 11 26 -3 7 -1 16 5 19 29 19 14 -80 -17 -105 -11 -10
-17 -10 -28 0 -31 25 -46 124 -17 105 6 -3 8 -12 5 -19z"/>
<path fill="#000000" stroke="none" d="M190 205 c0 -2 15 -12 33 -21 l32 -17
-19 22 c-17 19 -46 29 -46 16z"/>
</g>
</svg>
