<?xml version="1.0" standalone="no"?>
<!DOCTYPE svg PUBLIC "-//W3C//DTD SVG 20010904//EN"
 "http://www.w3.org/TR/2001/REC-SVG-20010904/DTD/svg10.dtd">
<svg version="1.0" xmlns="http://www.w3.org/2000/svg"
 width="32.000000pt" height="32.000000pt" viewBox="0 0 32.000000 32.000000"
 preserveAspectRatio="xMidYMid meet">
<metadata>
Created by potrace 1.16, written by Peter Selinger 2001-2019
</metadata>
<g transform="translate(0.000000,32.000000) scale(0.100000,-0.100000)"
fill="#000000" stroke="none">
<path fill="#000000" stroke="none" d="M0 161 l0 -161 161 0 160 0 -2 160 c-1
88 -3 160 -5 160 -2 0 -17 -29 -34 -63 -33 -69 -32 -102 3 -91 16 5 19 3 14
-11 -4 -9 -7 -21 -7 -26 0 -6 -5 -7 -10 -4 -6 4 -8 11 -5 16 4 5 -2 9 -13 9
-19 0 -49 -26 -52 -45 -2 -5 -9 -19 -16 -30 -12 -17 -14 -17 -14 -2 0 9 -3 16
-8 14 -4 -1 -7 3 -7 8 0 6 3 9 8 8 4 -2 7 2 7 8 0 6 9 22 20 36 21 28 17 52
-6 32 -7 -6 -12 -15 -9 -19 3 -4 -3 -7 -12 -6 -10 0 -18 -6 -18 -14 -1 -8 -6
-14 -13 -13 -15 4 -53 -28 -46 -39 3 -4 10 -8 15 -8 6 0 7 5 3 12 -4 7 -3 8 5
4 17 -11 5 -23 -24 -23 -28 0 -31 7 -12 26 6 6 12 16 12 20 0 5 10 17 23 27
27 22 34 53 18 73 -9 11 -8 13 4 9 8 -3 14 -13 14 -22 -1 -9 2 -16 7 -16 14 0
11 26 -5 39 -9 8 -21 8 -39 2 -14 -5 -28 -7 -31 -4 -3 3 -12 0 -20 -7 -9 -6
-21 -10 -28 -8 -7 3 5 14 27 25 39 20 46 23 64 23 4 0 7 11 6 25 -3 23 -2 24
20 9 12 -8 30 -11 40 -8 13 5 16 4 11 -4 -5 -8 -2 -10 8 -6 9 3 13 11 9 18 -3
6 -2 7 3 3 5 -5 10 -13 10 -18 1 -5 2 -11 3 -14 1 -5 51 40 51 47 0 3 -65 6
-145 7 l-145 2 0 -160z"/>
<path fill="#ffffff" stroke="none" d="M117 277 c0 -7 -9 -14 -20 -14 -19 -2
-19 -2 -1 12 11 8 19 15 20 15 0 0 1 -6 1 -13z"/>
<path fill="#ffffff" stroke="none" d="M287 221 c0 -11 -5 -18 -9 -15 -4 3 -5
11 -1 19 7 21 12 19 10 -4z"/>
<path fill="#ffffff" stroke="none" d="M115 193 c-11 -7 -22 -13 -27 -13 -4 0
-8 -6 -8 -14 0 -15 -37 -32 -47 -22 -4 3 -1 6 5 6 7 0 12 7 12 15 0 8 5 15 11
15 5 0 7 5 4 10 -3 6 -1 11 4 11 26 3 30 4 37 11 4 4 11 5 17 1 6 -3 2 -12 -8
-20z"/>
<path fill="#ffffff" stroke="none" d="M280 179 c0 -6 -4 -7 -10 -4 -5 3 -10
11 -10 16 0 6 5 7 10 4 6 -3 10 -11 10 -16z"/>
<path fill="#ffffff" stroke="none" d="M113 40 c-7 -26 -18 -33 -43 -25 -11 4
-17 12 -13 20 3 8 8 13 12 11 5 -3 23 2 48 13 0 1 -1 -8 -4 -19z"/>
</g>
</svg>
