<?xml version="1.0" standalone="no"?>
<!DOCTYPE svg PUBLIC "-//W3C//DTD SVG 20010904//EN"
 "http://www.w3.org/TR/2001/REC-SVG-20010904/DTD/svg10.dtd">
<svg version="1.0" xmlns="http://www.w3.org/2000/svg"
 width="32.000000pt" height="32.000000pt" viewBox="0 0 32.000000 32.000000"
 preserveAspectRatio="xMidYMid meet">
<metadata>
Created by potrace 1.16, written by Peter Selinger 2001-2019
</metadata>
<g transform="translate(0.000000,32.000000) scale(0.100000,-0.100000)"
fill="#000000" stroke="none">
<path fill="#000000" stroke="none" d="M120 296 c-17 -45 -22 -93 -11 -100 8
-5 8 -13 1 -27 -8 -14 -17 -18 -37 -13 -22 6 -24 4 -18 -15 4 -12 2 -21 -4
-21 -6 0 -11 -5 -11 -11 0 -5 5 -7 10 -4 6 3 17 -1 26 -10 15 -15 15 -18 -6
-41 -13 -13 -20 -24 -17 -24 12 0 52 44 49 53 -6 18 24 -1 34 -22 9 -18 13
-19 17 -7 4 9 13 16 21 16 10 0 13 -6 10 -15 -4 -10 0 -15 16 -15 12 0 30 -5
42 -11 11 -6 22 -8 25 -5 3 3 -11 13 -31 22 -23 11 -36 25 -36 37 0 11 5 17
13 14 20 -7 57 11 57 28 0 9 5 13 10 10 6 -3 10 -1 10 4 0 6 -7 11 -15 11 -8
0 -15 -6 -15 -14 0 -16 -21 -26 -54 -26 -18 0 -22 5 -20 28 2 39 3 39 23 15
18 -22 19 -22 36 -3 10 11 15 23 12 27 -4 3 -7 1 -7 -5 0 -7 -4 -12 -10 -12
-16 0 -12 67 5 84 8 8 15 18 15 23 -1 13 -40 -38 -40 -52 0 -7 -13 -19 -29
-26 -16 -7 -27 -17 -25 -21 3 -4 -3 -5 -12 -1 -12 4 -14 8 -5 11 9 3 9 8 -2
21 -19 21 -29 51 -17 51 5 0 8 16 7 35 -2 41 -5 43 -17 11z"/>
<path fill="#ffffff" stroke="none" d="M124 215 c3 -8 1 -15 -4 -15 -6 0 -10
7 -10 15 0 8 2 15 4 15 2 0 6 -7 10 -15z"/>
<path fill="#ffffff" stroke="none" d="M217 168 c-3 -8 -6 -5 -6 6 -1 11 2 17
5 13 3 -3 4 -12 1 -19z"/>
<path fill="#ffffff" stroke="none" d="M84 144 c18 -7 23 -38 5 -32 -6 2 -10
7 -9 12 1 5 -4 13 -12 17 -15 10 -7 12 16 3z"/>
</g>
</svg>
