<?xml version="1.0" standalone="no"?>
<!DOCTYPE svg PUBLIC "-//W3C//DTD SVG 20010904//EN"
 "http://www.w3.org/TR/2001/REC-SVG-20010904/DTD/svg10.dtd">
<svg version="1.0" xmlns="http://www.w3.org/2000/svg"
 width="32.000000pt" height="32.000000pt" viewBox="0 0 32.000000 32.000000"
 preserveAspectRatio="xMidYMid meet">
<metadata>
Created by potrace 1.16, written by Peter Selinger 2001-2019
</metadata>
<g transform="translate(0.000000,32.000000) scale(0.100000,-0.100000)"
fill="#000000" stroke="none">
<path fill="#000000" stroke="none" d="M0 160 l0 -160 160 0 160 0 0 160 0
160 -160 0 -160 0 0 -160z"/>
<path fill="#ffffff" stroke="none" d="M295 190 c3 -5 1 -10 -4 -10 -6 0 -11
5 -11 10 0 6 2 10 4 10 3 0 8 -4 11 -10z"/>
<path fill="#ffffff" stroke="none" d="M224 159 c-3 -5 2 -9 10 -9 9 0 16 -4
16 -9 0 -5 10 -13 22 -17 l21 -6 -24 -20 -24 -19 25 6 c24 6 24 5 6 -9 -11 -9
-16 -16 -10 -16 5 0 2 -5 -6 -9 -21 -12 -72 -2 -63 13 5 8 3 8 -8 0 -8 -6 -39
-10 -69 -9 -67 3 -65 2 -50 20 7 8 9 15 4 15 -5 0 9 12 31 25 22 14 36 25 30
25 -5 0 -2 6 7 13 19 15 91 20 82 6z"/>
<path fill="#ffffff" stroke="none" d="M90 140 c0 -5 -9 -14 -20 -20 -22 -12
-27 -1 -8 18 14 14 28 16 28 2z"/>
<path fill="#ffffff" stroke="none" d="M220 30 c0 -5 -7 -10 -16 -10 -8 0 -12
5 -9 10 3 6 10 10 16 10 5 0 9 -4 9 -10z"/>
</g>
</svg>
