<?xml version="1.0" standalone="no"?>
<!DOCTYPE svg PUBLIC "-//W3C//DTD SVG 20010904//EN"
 "http://www.w3.org/TR/2001/REC-SVG-20010904/DTD/svg10.dtd">
<svg version="1.0" xmlns="http://www.w3.org/2000/svg"
 width="32.000000pt" height="32.000000pt" viewBox="0 0 32.000000 32.000000"
 preserveAspectRatio="xMidYMid meet">
<metadata>
Created by potrace 1.16, written by Peter Selinger 2001-2019
</metadata>
<g transform="translate(0.000000,32.000000) scale(0.100000,-0.100000)"
fill="#000000" stroke="none">
<path fill="#000000" stroke="none" d="M0 160 l0 -160 34 0 c33 0 68 24 46 32
-6 2 -12 13 -12 25 -1 11 -7 19 -14 16 -7 -2 -15 0 -19 6 -6 11 6 15 35 12 13
-2 13 0 1 8 -8 5 -20 7 -28 4 -8 -3 -13 2 -13 12 0 9 6 15 12 13 7 -3 21 4 32
13 10 10 22 17 25 15 3 -3 15 2 26 10 10 8 13 14 7 14 -7 0 -12 5 -12 11 0 6
7 9 14 6 11 -4 13 -1 9 10 -5 13 -3 14 15 4 14 -7 23 -8 27 -1 4 6 3 10 -2 9
-31 -5 -33 4 -4 22 18 11 30 23 27 27 -4 3 -11 1 -15 -6 -6 -10 -10 -10 -20 1
-9 12 -8 15 6 13 11 0 17 5 15 14 -2 8 0 12 4 8 4 -4 14 -2 22 5 13 10 15 9
10 -5 -9 -22 1 -29 25 -17 14 8 18 8 13 0 -4 -6 -2 -11 4 -11 7 0 8 -6 1 -19
-6 -10 -7 -21 -4 -25 3 -3 -1 -6 -10 -6 -10 0 -17 -5 -17 -11 0 -5 5 -7 10 -4
6 4 5 -4 -1 -19 -9 -18 -16 -23 -24 -16 -7 5 -16 6 -20 2 -5 -4 -5 1 -2 11 9
24 0 21 -14 -4 -8 -15 -8 -19 0 -15 6 4 11 0 11 -8 0 -9 5 -16 11 -16 5 0 7
-5 4 -10 -4 -6 -10 -8 -14 -6 -4 3 -13 1 -21 -5 -8 -5 -10 -9 -5 -9 17 0 10
-52 -9 -65 -9 -7 -25 -11 -34 -9 -10 3 -22 -4 -30 -16 -12 -20 -10 -20 103
-20 l115 0 0 160 0 160 -160 -1 -160 0 0 -159z"/>
<path fill="#ffffff" stroke="none" d="M260 306 c0 -2 -8 -10 -17 -17 -16 -13
-17 -12 -4 4 13 16 21 21 21 13z"/>
<path fill="#ffffff" stroke="none" d="M157 247 c-2 -6 -14 -17 -27 -26 -13
-9 -21 -11 -17 -4 4 6 2 15 -5 19 -8 5 -6 9 7 14 28 10 46 8 42 -3z"/>
<path fill="#ffffff" stroke="none" d="M115 181 c3 -5 1 -12 -5 -16 -5 -3 -10
1 -10 9 0 18 6 21 15 7z"/>
<path fill="#ffffff" stroke="none" d="M65 170 c-3 -5 -1 -10 4 -10 6 0 11 5
11 12 0 6 3 8 7 4 11 -11 -26 -36 -43 -29 -12 4 -11 8 3 19 22 16 26 17 18 4z"/>
<path fill="#000000" stroke="none" d="M159 158 c-9 -30 -6 -37 12 -28 23 13
25 22 2 13 -11 -4 -14 -3 -9 5 4 7 5 12 2 12 -3 0 -6 -1 -7 -2z"/>
<path fill="#000000" stroke="none" d="M116 135 c-11 -8 -15 -15 -9 -15 6 0
16 7 23 15 16 19 11 19 -14 0z"/>
<path fill="#000000" stroke="none" d="M75 120 c3 -5 8 -10 11 -10 2 0 4 5 4
10 0 6 -5 10 -11 10 -5 0 -7 -4 -4 -10z"/>
<path fill="#000000" stroke="none" d="M126 112 c-4 -7 -4 -12 1 -13 4 0 16
-2 26 -4 9 -2 15 1 11 6 -3 5 -9 7 -14 4 -4 -3 -10 0 -12 7 -3 9 -6 9 -12 0z"/>
<path fill="#000000" stroke="none" d="M150 76 c0 -2 7 -7 16 -10 8 -3 12 -2
9 4 -6 10 -25 14 -25 6z"/>
</g>
</svg>
