<?xml version="1.0" standalone="no"?>
<!DOCTYPE svg PUBLIC "-//W3C//DTD SVG 20010904//EN"
 "http://www.w3.org/TR/2001/REC-SVG-20010904/DTD/svg10.dtd">
<svg version="1.0" xmlns="http://www.w3.org/2000/svg"
 width="32.000000pt" height="32.000000pt" viewBox="0 0 32.000000 32.000000"
 preserveAspectRatio="xMidYMid meet">
<metadata>
Created by potrace 1.16, written by Peter Selinger 2001-2019
</metadata>
<g transform="translate(0.000000,32.000000) scale(0.100000,-0.100000)"
fill="#000000" stroke="none">
<path fill="#000000" stroke="none" d="M90 203 c-24 -9 -64 -53 -50 -53 7 0
10 -3 7 -7 -4 -3 0 -17 8 -30 9 -13 11 -23 6 -23 -6 0 -8 -7 -4 -16 3 -9 13
-14 24 -11 10 3 23 -1 29 -8 6 -8 19 -14 28 -14 9 0 34 -3 55 -5 32 -4 37 -3
28 8 -9 11 -6 15 14 20 14 4 23 10 21 15 -3 5 1 8 10 7 26 -2 26 38 1 65 -12
13 -22 27 -22 30 0 14 -14 21 -49 23 -22 2 -33 -1 -29 -7 4 -7 -1 -8 -13 -3
-31 13 -48 15 -64 9z"/>
<path fill="#ffffff" stroke="none" d="M95 130 c3 -5 2 -10 -4 -10 -5 0 -13 5
-16 10 -3 6 -2 10 4 10 5 0 13 -4 16 -10z"/>
<path fill="#000000" stroke="none" d="M290 170 c0 -5 5 -10 11 -10 5 0 7 5 4
10 -3 6 -8 10 -11 10 -2 0 -4 -4 -4 -10z"/>
<path fill="#000000" stroke="none" d="M15 100 c3 -5 11 -10 16 -10 6 0 7 5 4
10 -3 6 -11 10 -16 10 -6 0 -7 -4 -4 -10z"/>
<path fill="#000000" stroke="none" d="M267 59 c-9 -6 -15 -14 -12 -20 10 -15
23 -10 35 11 12 22 4 25 -23 9z"/>
</g>
</svg>
