<?xml version="1.0" standalone="no"?>
<!DOCTYPE svg PUBLIC "-//W3C//DTD SVG 20010904//EN"
 "http://www.w3.org/TR/2001/REC-SVG-20010904/DTD/svg10.dtd">
<svg version="1.0" xmlns="http://www.w3.org/2000/svg"
 width="32.000000pt" height="32.000000pt" viewBox="0 0 32.000000 32.000000"
 preserveAspectRatio="xMidYMid meet">
<metadata>
Created by potrace 1.16, written by Peter Selinger 2001-2019
</metadata>
<g transform="translate(0.000000,32.000000) scale(0.100000,-0.100000)"
fill="#000000" stroke="none">
<path fill="#000000" stroke="none" d="M0 160 l0 -160 93 1 c50 1 82 4 70 6
-13 2 -23 10 -23 17 0 7 -16 18 -35 26 -33 13 -47 30 -25 30 18 0 10 18 -10
23 -32 8 -23 25 13 23 25 -1 31 3 29 16 -1 9 7 22 18 28 28 15 25 30 -5 30
-16 0 -25 6 -25 16 0 12 6 15 25 10 22 -6 27 -2 36 24 6 16 15 28 19 25 5 -3
11 1 14 7 3 7 4 -12 0 -42 -3 -30 -11 -59 -17 -63 -8 -6 -6 -7 5 -3 11 3 23
-3 32 -16 8 -11 19 -17 25 -14 6 4 16 -4 22 -18 10 -20 9 -29 -2 -42 -8 -9
-14 -32 -14 -50 0 -33 2 -34 38 -34 l37 0 0 160 0 160 -160 0 -160 0 0 -160z"/>
<path fill="#ffffff" stroke="none" d="M56 173 c-10 -10 -19 5 -10 18 6 11 8
11 12 0 2 -7 1 -15 -2 -18z"/>
<path fill="#ffffff" stroke="none" d="M90 170 c0 -5 -4 -10 -10 -10 -5 0 -10
5 -10 10 0 6 5 10 10 10 6 0 10 -4 10 -10z"/>
<path fill="#ffffff" stroke="none" d="M60 84 c0 -8 -4 -12 -10 -9 -5 3 -10
10 -10 16 0 5 5 9 10 9 6 0 10 -7 10 -16z"/>
<path fill="#000000" stroke="none" d="M160 131 c6 -12 5 -22 -3 -31 -10 -10
-8 -12 6 -7 10 4 17 1 17 -6 0 -8 4 -7 10 3 8 13 11 13 19 1 6 -9 14 -10 25
-4 14 8 13 12 -11 29 -16 11 -38 23 -50 26 -19 5 -21 3 -13 -11z"/>
<path fill="#000000" stroke="none" d="M117 83 c-3 -5 3 -15 14 -22 18 -11 20
-10 17 5 -3 19 -23 30 -31 17z"/>
<path fill="#000000" stroke="none" d="M161 54 c0 -11 3 -14 6 -6 3 7 2 16 -1
19 -3 4 -6 -2 -5 -13z"/>
</g>
</svg>
