<?xml version="1.0" standalone="no"?>
<!DOCTYPE svg PUBLIC "-//W3C//DTD SVG 20010904//EN"
 "http://www.w3.org/TR/2001/REC-SVG-20010904/DTD/svg10.dtd">
<svg version="1.0" xmlns="http://www.w3.org/2000/svg"
 width="32.000000pt" height="32.000000pt" viewBox="0 0 32.000000 32.000000"
 preserveAspectRatio="xMidYMid meet">
<metadata>
Created by potrace 1.16, written by Peter Selinger 2001-2019
</metadata>
<g transform="translate(0.000000,32.000000) scale(0.100000,-0.100000)"
fill="#000000" stroke="none">
<path fill="#000000" stroke="none" d="M108 269 c6 -7 12 -20 12 -28 -1 -13
-3 -13 -14 2 -13 16 -14 16 -20 1 -6 -17 8 -33 29 -34 6 0 -3 -9 -20 -20 -17
-11 -23 -20 -15 -20 13 0 13 -1 0 -10 -12 -8 -11 -10 8 -10 12 0 22 -5 22 -11
0 -5 -6 -7 -12 -4 -7 4 -4 0 6 -9 10 -8 23 -13 27 -10 13 8 11 -10 -3 -24 -9
-9 -9 -12 0 -12 6 0 16 8 21 19 13 23 43 37 34 16 -3 -8 -9 -12 -14 -9 -5 3
-9 0 -9 -6 0 -13 -30 -46 -30 -33 0 4 -5 1 -10 -7 -5 -8 -10 -10 -10 -4 0 16
-70 9 -88 -9 -12 -13 -10 -16 19 -23 42 -10 60 -7 75 13 6 9 16 13 23 9 7 -4
10 -2 9 5 -2 6 3 14 11 17 8 2 11 0 8 -5 -3 -5 3 -9 14 -9 17 0 23 8 21 27 -1
4 11 9 26 12 25 5 26 4 7 -10 -19 -14 -19 -14 7 -11 28 4 51 18 29 18 -14 0
-6 56 11 77 6 7 5 14 -2 18 -5 3 -10 14 -10 24 0 21 -39 36 -54 21 -6 -6 -18
0 -33 16 -19 21 -24 23 -29 10 -8 -20 -24 -21 -24 -2 0 8 -8 17 -17 21 -15 5
-16 4 -5 -6z"/>
<path fill="#ffffff" stroke="none" d="M241 203 c-11 -7 -25 -21 -31 -31 -9
-14 -10 -14 -5 5 5 18 3 22 -9 17 -9 -3 -14 -9 -12 -13 3 -4 -5 -8 -17 -8 -20
-2 -20 -1 -4 8 9 6 15 14 12 18 -2 5 9 7 25 5 17 -2 29 0 29 4 -3 17 2 21 16
15 14 -5 13 -8 -4 -20z"/>
<path fill="#ffffff" stroke="none" d="M269 186 c9 -10 8 -15 -2 -19 -8 -3
-13 3 -13 14 0 23 0 23 15 5z"/>
<path fill="#ffffff" stroke="none" d="M195 150 c3 -5 1 -10 -4 -10 -6 0 -11
5 -11 10 0 6 2 10 4 10 3 0 8 -4 11 -10z"/>
<path fill="#000000" stroke="none" d="M61 251 c-8 -5 -9 -11 -3 -15 5 -3 12
1 16 9 6 17 6 18 -13 6z"/>
<path fill="#000000" stroke="none" d="M75 200 c3 -5 8 -10 11 -10 2 0 4 5 4
10 0 6 -5 10 -11 10 -5 0 -7 -4 -4 -10z"/>
<path fill="#000000" stroke="none" d="M71 122 c-1 -8 -6 -10 -13 -6 -10 6
-10 5 -1 -8 7 -8 10 -18 6 -22 -4 -4 1 -4 11 0 13 5 17 4 12 -4 -4 -6 1 -10
12 -9 24 1 27 37 2 37 -10 0 -21 6 -23 13 -4 9 -6 9 -6 -1z"/>
</g>
</svg>
