<?xml version="1.0" standalone="no"?>
<!DOCTYPE svg PUBLIC "-//W3C//DTD SVG 20010904//EN"
 "http://www.w3.org/TR/2001/REC-SVG-20010904/DTD/svg10.dtd">
<svg version="1.0" xmlns="http://www.w3.org/2000/svg"
 width="32.000000pt" height="32.000000pt" viewBox="0 0 32.000000 32.000000"
 preserveAspectRatio="xMidYMid meet">
<metadata>
Created by potrace 1.16, written by Peter Selinger 2001-2019
</metadata>
<g transform="translate(0.000000,32.000000) scale(0.100000,-0.100000)"
fill="#000000" stroke="none">
<path fill="#000000" stroke="none" d="M0 165 l0 -155 160 0 160 0 0 155 0
155 -160 0 -160 0 0 -155z"/>
<path fill="#ffffff" stroke="none" d="M170 265 c0 -19 5 -37 10 -40 6 -3 7
-18 4 -32 -5 -18 -4 -24 5 -19 6 4 9 12 6 17 -3 5 0 6 8 3 22 -8 29 12 11 31
-9 9 -14 18 -12 20 3 3 14 -6 26 -19 18 -21 19 -26 6 -37 -8 -6 -14 -21 -14
-33 0 -17 2 -18 10 -6 6 9 10 10 10 3 0 -21 -21 -26 -34 -8 -11 15 -13 16 -13
2 0 -9 7 -19 14 -21 8 -3 11 -11 7 -17 -4 -8 1 -9 17 -5 20 6 22 5 9 -6 -8 -7
-14 -25 -12 -40 2 -16 -1 -28 -7 -28 -12 0 -27 47 -22 69 1 7 -2 10 -9 6 -6
-4 -8 -16 -4 -27 5 -18 3 -20 -15 -15 -15 4 -21 0 -21 -11 -1 -14 -3 -13 -12
3 -6 11 -12 21 -14 23 -1 2 -16 -4 -34 -13 -17 -9 -37 -14 -43 -12 -7 3 7 13
31 23 23 9 42 21 42 26 0 5 -4 6 -10 3 -5 -3 -18 -1 -27 4 -17 10 -17 10 0 11
9 0 17 5 17 11 0 6 7 9 15 5 8 -3 15 -4 15 -2 0 3 3 12 7 21 5 13 2 16 -13 12
-10 -3 -32 -8 -49 -11 -28 -6 -29 -5 -11 9 11 8 32 15 48 15 15 0 28 5 28 11
0 5 -4 7 -10 4 -5 -3 -10 -2 -10 4 0 5 4 12 9 16 6 3 13 26 17 50 7 51 24 51
24 0z"/>
<path fill="#ffffff" stroke="none" d="M108 32 c2 -7 -1 -12 -8 -12 -6 0 -9 4
-6 9 4 5 1 12 -4 14 -6 3 -5 4 2 3 6 -1 14 -8 16 -14z"/>
<path fill="#000000" stroke="none" d="M151 144 c0 -11 3 -14 6 -6 3 7 2 16
-1 19 -3 4 -6 -2 -5 -13z"/>
<path fill="#000000" stroke="none" d="M140 106 c0 -2 7 -7 16 -10 8 -3 12 -2
9 4 -6 10 -25 14 -25 6z"/>
</g>
</svg>
