<?xml version="1.0" standalone="no"?>
<!DOCTYPE svg PUBLIC "-//W3C//DTD SVG 20010904//EN"
 "http://www.w3.org/TR/2001/REC-SVG-20010904/DTD/svg10.dtd">
<svg version="1.0" xmlns="http://www.w3.org/2000/svg"
 width="32.000000pt" height="32.000000pt" viewBox="0 0 32.000000 32.000000"
 preserveAspectRatio="xMidYMid meet">
<metadata>
Created by potrace 1.16, written by Peter Selinger 2001-2019
</metadata>
<g transform="translate(0.000000,32.000000) scale(0.100000,-0.100000)"
fill="#000000" stroke="none">
<path fill="#000000" stroke="none" d="M0 186 c0 -92 4 -137 12 -142 8 -5 9
-2 4 11 -5 14 -4 16 8 6 11 -9 15 -8 20 5 9 22 8 24 -9 24 -8 0 -15 6 -15 14
0 9 9 13 25 12 14 -2 31 4 37 12 8 10 9 13 2 9 -12 -7 -29 21 -19 31 3 3 5 1
5 -5 0 -5 7 -10 15 -10 10 0 16 12 17 36 l1 36 4 -32 c2 -18 8 -33 13 -33 9 0
12 10 26 77 2 12 12 27 22 32 15 8 17 5 14 -29 -2 -21 1 -41 7 -44 6 -4 11
-12 11 -18 0 -6 -8 -4 -18 5 -26 24 -33 21 -22 -8 6 -16 6 -25 0 -25 -6 0 -10
-4 -10 -10 0 -16 23 -7 44 18 13 17 15 27 8 34 -8 8 -7 15 3 24 8 9 11 26 8
46 -4 27 -2 31 8 20 14 -13 21 -62 9 -62 -3 0 -7 -16 -8 -35 -2 -26 1 -35 13
-35 13 0 16 9 15 43 -3 63 -2 67 17 67 13 0 14 -3 5 -12 -8 -8 -12 -47 -11
-112 0 -56 3 -95 6 -89 3 9 11 9 29 -3 l24 -16 0 146 0 146 -160 0 -160 0 0
-134z"/>
<path fill="#ffffff" stroke="none" d="M127 255 c0 -6 -6 -12 -12 -12 -6 0
-12 6 -12 12 0 6 6 12 12 12 6 0 12 -6 12 -12z"/>
<path fill="#ffffff" stroke="none" d="M86 198 c1 -25 0 -26 -12 -11 -7 10
-10 22 -7 27 4 5 1 6 -5 2 -7 -4 -12 -14 -12 -22 0 -8 -4 -14 -10 -14 -14 0
-12 16 4 33 23 22 41 16 42 -15z"/>
<path fill="#ffffff" stroke="none" d="M50 136 c0 -11 -19 -15 -25 -6 -3 5 1
10 9 10 9 0 16 -2 16 -4z"/>
<path fill="#000000" stroke="none" d="M150 229 c0 -5 5 -7 10 -4 6 3 10 8 10
11 0 2 -4 4 -10 4 -5 0 -10 -5 -10 -11z"/>
<path fill="#000000" stroke="none" d="M117 134 c-10 -10 -9 -44 2 -44 13 0
23 32 13 42 -5 5 -11 5 -15 2z"/>
<path fill="#000000" stroke="none" d="M227 120 c-3 -11 -1 -20 4 -20 5 0 9 9
9 20 0 11 -2 20 -4 20 -2 0 -6 -9 -9 -20z"/>
<path fill="#000000" stroke="none" d="M156 106 c8 -20 28 -21 44 -1 10 12 10
15 -4 15 -9 0 -16 -5 -16 -11 0 -8 -5 -7 -15 1 -13 11 -14 10 -9 -4z"/>
<path fill="#000000" stroke="none" d="M73 103 c-15 -6 -17 -33 -3 -33 5 0 14
9 20 20 11 20 6 23 -17 13z"/>
<path fill="#000000" stroke="none" d="M220 81 c0 -6 4 -13 10 -16 6 -3 7 1 4
9 -7 18 -14 21 -14 7z"/>
<path fill="#000000" stroke="none" d="M200 55 c0 -8 4 -15 10 -15 5 0 7 7 4
15 -4 8 -8 15 -10 15 -2 0 -4 -7 -4 -15z"/>
<path fill="#000000" stroke="none" d="M131 14 c0 -11 3 -14 6 -6 3 7 2 16 -1
19 -3 4 -6 -2 -5 -13z"/>
<path fill="#000000" stroke="none" d="M280 22 c0 -4 10 -9 22 -9 18 -2 20 0
8 7 -18 12 -30 13 -30 2z"/>
</g>
</svg>
