<?xml version="1.0" standalone="no"?>
<!DOCTYPE svg PUBLIC "-//W3C//DTD SVG 20010904//EN"
 "http://www.w3.org/TR/2001/REC-SVG-20010904/DTD/svg10.dtd">
<svg version="1.0" xmlns="http://www.w3.org/2000/svg"
 width="32.000000pt" height="32.000000pt" viewBox="0 0 32.000000 32.000000"
 preserveAspectRatio="xMidYMid meet">
<metadata>
Created by potrace 1.16, written by Peter Selinger 2001-2019
</metadata>
<g transform="translate(0.000000,32.000000) scale(0.100000,-0.100000)"
fill="#000000" stroke="none">
<path fill="#000000" stroke="none" d="M314 160 c0 -91 2 -128 3 -82 2 45 2
119 0 165 -1 45 -3 8 -3 -83z"/>
<path fill="#000000" stroke="none" d="M212 140 c3 -60 3 -110 1 -110 -15 0
-43 23 -43 35 0 18 17 20 23 3 2 -7 8 -9 13 -5 12 12 -33 47 -60 47 -15 0 -17
-3 -8 -9 11 -7 11 -9 -2 -14 -12 -5 -16 0 -16 18 0 18 5 25 20 25 25 0 25 8 3
27 -13 10 -15 16 -5 19 15 7 16 36 0 52 -21 21 -26 13 -25 -38 0 -56 -19 -91
-29 -52 -4 12 -11 22 -16 22 -6 0 -7 -10 -3 -22 3 -13 8 -34 10 -48 1 -14 6
-33 10 -42 4 -11 3 -18 -4 -18 -6 0 -11 6 -11 13 0 6 -5 19 -10 27 -9 13 -11
13 -19 0 -7 -10 -6 -17 2 -22 9 -5 9 -10 -1 -20 -6 -6 -12 -16 -12 -20 0 -4
59 -8 131 -8 119 0 130 1 125 18 -3 9 -8 29 -12 45 -9 40 -24 33 -17 -8 4 -24
2 -35 -7 -35 -9 0 -11 13 -8 45 3 26 1 46 -5 48 -5 1 -10 33 -11 70 -1 37 -5
67 -10 67 -5 0 -6 -49 -4 -110z"/>
<path fill="#ffffff" stroke="none" d="M123 40 c3 -11 2 -20 -3 -20 -8 0 -20
24 -20 41 0 17 17 1 23 -21z"/>
<path fill="#ffffff" stroke="none" d="M157 28 c-3 -7 -5 -2 -5 12 0 14 2 19
5 13 2 -7 2 -19 0 -25z"/>
<path fill="#000000" stroke="none" d="M177 158 c8 -59 13 -61 13 -5 0 26 -4
47 -9 47 -5 0 -7 -19 -4 -42z"/>
</g>
</svg>
