<?xml version="1.0" standalone="no"?>
<!DOCTYPE svg PUBLIC "-//W3C//DTD SVG 20010904//EN"
 "http://www.w3.org/TR/2001/REC-SVG-20010904/DTD/svg10.dtd">
<svg version="1.0" xmlns="http://www.w3.org/2000/svg"
 width="32.000000pt" height="32.000000pt" viewBox="0 0 32.000000 32.000000"
 preserveAspectRatio="xMidYMid meet">
<metadata>
Created by potrace 1.16, written by Peter Selinger 2001-2019
</metadata>
<g transform="translate(0.000000,32.000000) scale(0.100000,-0.100000)"
fill="#000000" stroke="none">
<path fill="#000000" stroke="none" d="M23 313 c-21 -4 -23 -10 -23 -59 0 -30
4 -53 9 -50 4 3 6 -6 3 -19 -4 -22 -1 -25 22 -25 20 0 26 4 24 18 -2 13 4 17
25 17 17 1 33 8 38 18 6 9 14 17 19 17 15 0 12 -30 -2 -30 -18 -1 18 -21 47
-26 13 -2 26 0 29 5 3 5 15 7 26 4 19 -5 19 -6 -2 -23 -15 -11 -18 -19 -10
-24 7 -4 12 -2 12 3 0 6 4 11 10 11 6 0 6 -9 0 -26 -13 -33 -13 -67 0 -59 6 3
7 -1 4 -10 -6 -14 -9 -14 -32 1 -24 16 -25 16 -19 -5 3 -11 1 -19 -4 -15 -5 3
-9 14 -9 24 0 10 -5 22 -10 25 -6 4 -10 3 -9 -2 4 -24 -5 -31 -40 -35 -22 -2
-37 0 -35 4 3 5 -5 8 -18 9 l-23 0 23 9 c28 12 29 20 1 13 -16 -4 -20 -2 -17
8 3 8 13 14 23 14 10 0 20 6 23 14 3 10 0 12 -11 8 -9 -3 -32 -9 -51 -13 -23
-4 -36 -12 -37 -23 -1 -9 -3 -31 -5 -48 l-4 -33 160 0 160 0 0 154 0 155 -137
-1 c-76 0 -148 -3 -160 -5z"/>
<path fill="#ffffff" stroke="none" d="M220 230 c0 -5 -7 -10 -15 -10 -8 0
-15 5 -15 10 0 6 7 10 15 10 8 0 15 -4 15 -10z"/>
<path fill="#ffffff" stroke="none" d="M250 215 c-7 -9 -15 -13 -19 -10 -3 3
1 10 9 15 21 14 24 12 10 -5z"/>
<path fill="#ffffff" stroke="none" d="M204 193 c5 -11 2 -13 -11 -8 -10 4
-23 8 -30 8 -6 0 -9 6 -6 13 6 15 40 6 47 -13z"/>
<path fill="#ffffff" stroke="none" d="M47 190 c-1 -11 -7 -20 -14 -20 -11 0
-11 4 -1 20 7 11 14 20 15 20 1 0 1 -9 0 -20z"/>
<path fill="#000000" stroke="none" d="M83 163 c9 -9 20 -13 24 -9 4 4 1 11
-7 16 -25 16 -35 11 -17 -7z"/>
<path fill="#000000" stroke="none" d="M45 140 c-13 -6 -15 -9 -5 -9 8 0 22 4
30 9 18 12 2 12 -25 0z"/>
<path fill="#000000" stroke="none" d="M125 110 c-3 -5 -1 -10 4 -10 6 0 11 5
11 10 0 6 -2 10 -4 10 -3 0 -8 -4 -11 -10z"/>
<path fill="#000000" stroke="none" d="M112 74 c-7 -8 -8 -14 -3 -14 10 0 25
19 20 25 -2 1 -10 -3 -17 -11z"/>
<path fill="#000000" stroke="none" d="M140 70 c0 -5 5 -10 11 -10 5 0 7 5 4
10 -3 6 -8 10 -11 10 -2 0 -4 -4 -4 -10z"/>
</g>
</svg>
