<?xml version="1.0" standalone="no"?>
<!DOCTYPE svg PUBLIC "-//W3C//DTD SVG 20010904//EN"
 "http://www.w3.org/TR/2001/REC-SVG-20010904/DTD/svg10.dtd">
<svg version="1.0" xmlns="http://www.w3.org/2000/svg"
 width="32.000000pt" height="32.000000pt" viewBox="0 0 32.000000 32.000000"
 preserveAspectRatio="xMidYMid meet">
<metadata>
Created by potrace 1.16, written by Peter Selinger 2001-2019
</metadata>
<g transform="translate(0.000000,32.000000) scale(0.100000,-0.100000)"
fill="#000000" stroke="none">
<path fill="#000000" stroke="none" d="M146 265 c-4 -24 -11 -47 -17 -50 -5
-4 -9 -11 -9 -16 0 -6 5 -7 10 -4 6 3 10 1 10 -4 0 -6 -13 -11 -28 -11 -16 0
-37 -7 -48 -15 -18 -14 -17 -15 11 -9 17 3 39 8 49 11 15 4 18 1 13 -12 -4 -9
-7 -18 -7 -21 0 -2 -7 -1 -15 2 -8 4 -15 1 -15 -5 0 -6 -8 -11 -17 -11 -17 -1
-17 -1 0 -11 9 -5 22 -7 27 -4 6 3 10 2 10 -3 0 -5 -19 -17 -42 -26 -24 -10
-38 -20 -31 -23 6 -2 26 3 43 12 18 9 33 15 34 13 2 -2 8 -12 14 -23 9 -16 11
-17 12 -3 0 11 6 15 21 11 18 -5 20 -3 15 15 -4 11 -2 23 4 27 7 4 10 1 9 -6
-5 -22 10 -69 22 -69 6 0 9 12 7 28 -2 15 4 33 12 40 13 11 11 12 -9 6 -16 -4
-21 -3 -17 5 4 6 1 14 -7 17 -7 2 -14 12 -14 21 0 14 2 13 13 -2 13 -18 34
-13 34 8 0 7 -4 6 -10 -3 -8 -12 -10 -11 -10 6 0 12 6 27 14 33 13 11 12 16
-6 37 -12 13 -23 22 -26 19 -2 -2 3 -11 12 -20 18 -19 11 -39 -11 -31 -8 3
-11 2 -8 -3 3 -5 0 -13 -6 -17 -9 -5 -10 1 -5 19 3 14 2 29 -4 32 -5 3 -10 21
-10 40 0 51 -17 51 -24 0z"/>
<path fill="#ffffff" stroke="none" d="M157 138 c-3 -8 -6 -5 -6 6 -1 11 2 17
5 13 3 -3 4 -12 1 -19z"/>
<path fill="#ffffff" stroke="none" d="M165 100 c3 -6 -1 -7 -9 -4 -18 7 -21
14 -7 14 6 0 13 -4 16 -10z"/>
<path fill="#000000" stroke="none" d="M90 43 c5 -2 8 -9 4 -14 -3 -5 0 -9 6
-9 15 0 7 23 -8 26 -7 1 -8 0 -2 -3z"/>
<path fill="#000000" stroke="none" d="M77 3 c46 -2 120 -2 166 0 45 1 8 3
-83 3 -91 0 -128 -2 -83 -3z"/>
</g>
</svg>
