<?xml version="1.0" standalone="no"?>
<!DOCTYPE svg PUBLIC "-//W3C//DTD SVG 20010904//EN"
 "http://www.w3.org/TR/2001/REC-SVG-20010904/DTD/svg10.dtd">
<svg version="1.0" xmlns="http://www.w3.org/2000/svg"
 width="32.000000pt" height="32.000000pt" viewBox="0 0 32.000000 32.000000"
 preserveAspectRatio="xMidYMid meet">
<metadata>
Created by potrace 1.16, written by Peter Selinger 2001-2019
</metadata>
<g transform="translate(0.000000,32.000000) scale(0.100000,-0.100000)"
fill="#000000" stroke="none">
<path fill="#000000" stroke="none" d="M119 316 c-2 -3 -30 -6 -61 -7 -41 -2
-55 -6 -51 -15 3 -8 8 -13 11 -12 4 0 14 0 22 -1 13 -1 13 -2 0 -12 -11 -8 -9
-8 10 -3 14 4 42 8 63 9 21 0 43 7 48 15 9 12 10 12 5 -2 -3 -10 -1 -18 4 -18
6 0 10 6 10 13 0 8 3 7 10 -3 11 -18 -12 -29 -53 -25 -15 2 -25 -1 -21 -6 3
-5 0 -9 -5 -9 -6 0 -11 4 -11 8 0 5 -7 9 -15 9 -20 0 -19 -4 6 -17 15 -8 24
-8 34 0 10 8 15 8 21 -1 4 -7 3 -9 -4 -5 -5 3 -12 1 -14 -6 -5 -14 -38 -20
-38 -7 0 6 -4 7 -10 4 -5 -3 -10 -1 -10 4 0 6 -10 11 -22 10 -22 0 -22 -1 -3
-9 17 -7 17 -9 3 -9 -21 -1 -54 -59 -41 -72 6 -6 20 -4 37 4 26 14 26 15 5 20
-11 3 -18 10 -15 16 4 6 14 7 23 4 12 -5 14 -3 8 8 -7 11 -6 12 7 2 8 -7 17
-11 19 -9 2 2 16 6 32 10 24 6 27 4 27 -19 0 -14 -5 -25 -11 -25 -5 0 -7 -5
-4 -11 4 -6 13 -8 21 -5 7 3 16 0 20 -6 5 -7 2 -8 -6 -3 -10 6 -12 4 -7 -7 6
-16 -10 -38 -27 -38 -5 0 -1 7 10 16 18 15 18 15 -2 5 -12 -6 -25 -7 -29 -3
-5 4 -5 2 -1 -5 4 -8 -1 -11 -13 -10 -11 0 -17 5 -15 9 3 4 1 8 -5 8 -18 0
-21 -17 -7 -36 11 -14 17 -16 28 -7 8 7 23 12 33 12 47 0 101 7 110 13 6 4 16
3 23 -1 7 -4 -1 -13 -23 -23 -19 -8 -35 -12 -35 -7 0 9 -34 4 -53 -8 -6 -4
-28 -9 -47 -10 -19 -1 -42 -3 -50 -3 -9 -1 -26 -10 -40 -20 l-24 -18 35 4 c19
2 57 8 84 13 28 5 83 15 123 22 40 7 75 16 78 20 8 13 -15 49 -31 49 -11 0
-12 5 -5 25 11 28 -6 43 -34 32 -10 -4 -13 -1 -10 8 3 8 13 11 21 8 11 -4 14
-2 9 5 -10 17 -36 15 -57 -3 -15 -15 -17 -14 -21 14 -4 24 0 31 18 35 12 3 29
8 37 12 9 3 16 -3 20 -16 6 -22 37 -25 44 -5 5 16 -36 56 -50 49 -7 -4 -9 -4
-5 0 16 18 -33 46 -80 46 -27 0 -51 -2 -53 -4z"/>
<path fill="#000000" stroke="none" d="M1 244 c0 -11 3 -14 6 -6 3 7 2 16 -1
19 -3 4 -6 -2 -5 -13z"/>
<path fill="#000000" stroke="none" d="M100 170 c0 -5 7 -10 15 -10 8 0 15 5
15 10 0 6 -7 10 -15 10 -8 0 -15 -4 -15 -10z"/>
<path fill="#000000" stroke="none" d="M65 133 c-21 -7 -41 -16 -43 -18 -9 -8
44 -1 56 8 8 6 12 5 12 -2 0 -7 5 -9 10 -6 6 4 7 12 3 18 -5 8 -2 8 9 0 15
-13 32 -7 22 8 -7 11 -20 10 -69 -8z"/>
<path fill="#000000" stroke="none" d="M0 84 c0 -8 5 -12 10 -9 6 3 10 10 10
16 0 5 -4 9 -10 9 -5 0 -10 -7 -10 -16z"/>
<path fill="#000000" stroke="none" d="M31 76 c-9 -11 -8 -15 5 -20 23 -9 36
-7 29 4 -4 6 -11 7 -17 4 -7 -5 -9 -1 -5 9 8 21 3 22 -12 3z"/>
<path fill="#000000" stroke="none" d="M127 59 c7 -7 15 -10 18 -7 3 3 -2 9
-12 12 -14 6 -15 5 -6 -5z"/>
</g>
</svg>
