<?xml version="1.0" standalone="no"?>
<!DOCTYPE svg PUBLIC "-//W3C//DTD SVG 20010904//EN"
 "http://www.w3.org/TR/2001/REC-SVG-20010904/DTD/svg10.dtd">
<svg version="1.0" xmlns="http://www.w3.org/2000/svg"
 width="32.000000pt" height="32.000000pt" viewBox="0 0 32.000000 32.000000"
 preserveAspectRatio="xMidYMid meet">
<metadata>
Created by potrace 1.16, written by Peter Selinger 2001-2019
</metadata>
<g transform="translate(0.000000,32.000000) scale(0.100000,-0.100000)"
fill="#000000" stroke="none">
<path fill="#000000" stroke="none" d="M16 291 c-7 -11 3 -40 15 -42 5 -1 15
-2 22 -3 6 -1 17 -8 24 -17 7 -9 24 -16 38 -16 26 0 34 12 13 20 -10 4 -10 6
0 6 7 1 15 -5 18 -13 3 -8 18 -12 40 -11 23 1 31 -2 24 -9 -6 -6 -5 -15 3 -25
10 -14 10 -14 -5 -3 -9 7 -19 9 -21 5 -3 -5 8 -16 25 -26 29 -17 30 -17 24 0
-6 14 -4 15 5 6 6 -6 8 -16 5 -21 -7 -11 -46 -4 -46 8 0 5 -10 12 -22 16 -19
6 -19 7 -5 16 27 14 20 27 -8 15 -22 -11 -30 -26 -26 -49 2 -12 -13 -10 -26 3
-6 6 -9 17 -7 24 7 17 -12 29 -32 21 -14 -5 -12 -13 10 -50 19 -32 22 -46 14
-54 -15 -15 13 -55 55 -80 24 -15 29 -15 37 -2 7 10 10 11 10 3 0 -21 85 -17
101 4 7 10 9 15 5 11 -5 -4 -15 0 -21 9 -10 13 -25 17 -61 15 -34 -2 -45 0
-35 7 8 5 20 7 26 5 17 -7 29 27 13 37 -7 4 -15 6 -17 3 -3 -3 1 -9 8 -13 9
-6 10 -11 2 -15 -6 -4 -11 -1 -11 6 0 10 -2 10 -9 -1 -5 -8 -11 -9 -15 -3 -3
6 -1 12 6 14 22 8 -3 28 -35 28 -23 0 -28 3 -18 9 16 10 54 5 83 -10 13 -7 18
-6 18 2 0 8 4 8 15 -1 12 -10 14 -8 11 7 -9 43 -12 49 -31 60 -19 12 -19 14 8
17 16 2 37 -26 30 -39 -4 -5 -3 -7 2 -3 4 4 13 3 20 -2 8 -7 11 -1 10 22 -1
17 -9 36 -18 43 -16 12 -16 13 4 18 12 3 19 11 17 19 -7 18 -60 11 -75 -9 -7
-9 -13 -12 -13 -6 0 10 -72 35 -137 48 -22 4 -33 3 -33 -5 0 -6 4 -9 9 -6 5 3
12 -1 15 -10 8 -21 8 -21 -8 -21 -8 0 -17 11 -21 24 -6 24 -19 30 -29 14z"/>
<path fill="#ffffff" stroke="none" d="M135 267 c3 -4 2 -5 -1 -3 -11 8 -32
-18 -26 -33 4 -9 1 -12 -7 -7 -7 5 -10 14 -7 21 2 7 -1 18 -7 24 -9 9 -6 11
15 9 15 -2 30 -7 33 -11z"/>
<path fill="#ffffff" stroke="none" d="M296 191 c0 -16 -3 -17 -14 -9 -12 10
-7 19 13 28 1 0 1 -9 1 -19z"/>
<path fill="#ffffff" stroke="none" d="M164 61 c-4 -3 -9 0 -11 7 -3 6 -10 9
-15 6 -7 -4 -8 -2 -4 5 6 9 11 9 22 0 8 -6 12 -15 8 -18z"/>
<path fill="#ffffff" stroke="none" d="M273 33 c-7 -2 -19 -2 -25 0 -7 3 -2 5
12 5 14 0 19 -2 13 -5z"/>
<path fill="#000000" stroke="none" d="M283 129 c-1 -10 3 -19 8 -19 6 0 7 5
3 12 -5 8 -2 9 9 5 23 -8 22 0 -1 12 -14 8 -18 6 -19 -10z"/>
</g>
</svg>
