<?xml version="1.0" standalone="no"?>
<!DOCTYPE svg PUBLIC "-//W3C//DTD SVG 20010904//EN"
 "http://www.w3.org/TR/2001/REC-SVG-20010904/DTD/svg10.dtd">
<svg version="1.0" xmlns="http://www.w3.org/2000/svg"
 width="32.000000pt" height="32.000000pt" viewBox="0 0 32.000000 32.000000"
 preserveAspectRatio="xMidYMid meet">
<metadata>
Created by potrace 1.16, written by Peter Selinger 2001-2019
</metadata>
<g transform="translate(0.000000,32.000000) scale(0.100000,-0.100000)"
fill="#000000" stroke="none">
<path fill="#000000" stroke="none" d="M0 239 l0 -80 34 35 c34 37 50 44 61
26 4 -6 24 0 51 16 37 22 45 24 50 10 8 -20 -4 -39 -21 -32 -7 2 -18 -1 -24
-7 -13 -13 -15 -28 -3 -26 23 4 38 -4 49 -26 12 -28 -1 -35 -15 -8 -9 14 -10
14 -16 -5 -4 -12 -11 -22 -16 -22 -12 0 -19 -39 -8 -46 5 -3 15 -1 21 5 9 9 8
11 -6 5 -17 -6 -17 -5 0 24 10 17 21 28 26 25 4 -2 2 -12 -5 -21 -11 -15 -11
-15 3 -5 10 8 19 9 25 3 7 -7 10 1 9 24 -1 22 3 37 11 40 8 3 14 11 13 18 0
10 -2 10 -6 1 -8 -22 -20 -14 -20 13 0 14 7 30 17 36 10 7 16 17 13 23 -5 15
25 47 40 42 21 -7 18 -26 -6 -32 -13 -4 -24 -13 -24 -21 0 -9 6 -13 14 -9 8 3
17 5 19 5 3 0 2 5 -1 10 -3 6 -1 10 5 10 8 0 9 -11 5 -32 -13 -66 -38 -138
-48 -138 -6 0 -3 -6 6 -12 20 -16 27 -69 9 -76 -8 -2 -16 5 -19 17 -5 20 -6
20 -18 4 -7 -9 -26 -17 -43 -18 -23 -1 -29 2 -22 10 5 7 6 16 2 20 -4 5 -2 6
3 2 13 -7 41 14 39 31 -3 26 -5 26 -17 7 -11 -19 -17 -22 -60 -31 -15 -3 -17
-1 -7 11 9 11 9 15 1 15 -8 0 -9 5 -2 18 15 29 20 67 10 83 -6 10 -9 5 -9 -18
0 -34 -17 -53 -30 -33 -5 9 -9 9 -14 1 -4 -6 -1 -11 6 -11 10 0 10 -2 -1 -9
-8 -5 -9 -11 -3 -15 6 -3 12 0 15 6 2 7 7 11 10 8 3 -3 2 -11 -2 -18 -10 -16
-44 -4 -37 13 2 6 0 18 -5 26 -7 10 -9 -1 -7 -35 2 -36 -2 -51 -15 -61 -9 -6
-13 -16 -9 -21 4 -4 -1 -2 -10 5 -15 11 -18 11 -18 -2 0 -13 24 -15 160 -16
l160 -1 0 160 0 160 -160 0 -160 0 0 -81z"/>
<path fill="#ffffff" stroke="none" d="M142 21 c-4 -10 -7 -11 -10 -3 -2 7 -8
10 -13 6 -5 -3 -9 -1 -9 5 0 5 9 9 19 8 12 -1 17 -6 13 -16z"/>
<path fill="#000000" stroke="none" d="M265 230 c-3 -5 -12 -7 -19 -4 -8 3
-17 0 -22 -7 -5 -8 -2 -11 7 -7 15 6 41 -15 33 -26 -2 -3 -1 -4 3 -1 8 7 16
55 9 55 -3 0 -7 -4 -11 -10z"/>
<path fill="#000000" stroke="none" d="M74 182 c3 -5 0 -12 -6 -15 -7 -2 -10
-7 -7 -11 3 -4 12 0 18 8 9 11 9 16 0 22 -7 4 -9 3 -5 -4z"/>
<path fill="#000000" stroke="none" d="M32 60 c0 -14 2 -19 5 -12 2 6 2 18 0
25 -3 6 -5 1 -5 -13z"/>
<path fill="#000000" stroke="none" d="M182 37 c-8 -10 -6 -13 7 -13 11 0 17
6 14 13 -3 7 -6 13 -8 13 -1 0 -7 -6 -13 -13z"/>
</g>
</svg>
