<?xml version="1.0" standalone="no"?>
<!DOCTYPE svg PUBLIC "-//W3C//DTD SVG 20010904//EN"
 "http://www.w3.org/TR/2001/REC-SVG-20010904/DTD/svg10.dtd">
<svg version="1.0" xmlns="http://www.w3.org/2000/svg"
 width="32.000000pt" height="32.000000pt" viewBox="0 0 32.000000 32.000000"
 preserveAspectRatio="xMidYMid meet">
<metadata>
Created by potrace 1.16, written by Peter Selinger 2001-2019
</metadata>
<g transform="translate(0.000000,32.000000) scale(0.100000,-0.100000)"
fill="#000000" stroke="none">
<path fill="#000000" stroke="none" d="M0 160 l0 -160 160 0 c151 0 160 1 160
19 0 24 -63 37 -104 21 -24 -9 -27 -8 -22 5 3 9 0 15 -10 15 -8 0 -17 -6 -20
-14 -3 -8 -15 -11 -30 -8 -24 4 -34 22 -12 22 6 0 3 9 -8 21 -18 20 -18 20 6
14 39 -9 111 -11 116 -3 8 12 44 10 44 -3 0 -5 -6 -7 -12 -3 -9 6 -9 3 1 -9
10 -13 18 -14 32 -6 16 8 19 21 19 80 l0 70 -22 -21 c-12 -11 -29 -20 -37 -20
-14 0 -14 1 -1 10 8 5 10 10 4 10 -6 0 -11 7 -11 15 0 8 4 15 9 15 5 0 6 5 2
11 -4 8 1 9 17 5 l24 -6 -24 12 c-19 10 -25 10 -29 0 -3 -9 -11 -8 -33 3 -16
9 -29 18 -29 21 0 2 9 0 19 -6 15 -7 24 -6 36 6 11 11 25 14 45 10 25 -5 30
-2 30 14 0 19 -7 20 -160 20 l-160 0 0 -160z"/>
<path fill="#ffffff" stroke="none" d="M149 289 c41 -14 40 -29 -1 -24 -30 4
-31 3 -15 -9 16 -12 14 -14 -22 -12 -23 1 -41 -1 -41 -6 0 -4 5 -8 10 -8 6 0
10 -7 10 -15 0 -9 7 -18 15 -21 16 -6 21 -44 7 -44 -15 0 -44 38 -37 49 3 6 0
9 -7 6 -14 -6 -37 25 -43 57 -4 17 -2 18 12 6 10 -8 14 -8 10 -1 -17 27 47 41
102 22z"/>
<path fill="#ffffff" stroke="none" d="M242 226 c4 -5 3 -15 -2 -22 -6 -6 -7
-13 -4 -17 10 -10 -31 -26 -58 -23 -30 4 -58 27 -58 50 0 20 24 21 39 2 9 -11
9 -15 -1 -18 -7 -3 -1 -7 15 -10 15 -3 30 -1 33 3 3 5 -2 9 -10 9 -21 0 -21
19 0 27 13 5 13 8 2 15 -8 6 -5 7 12 2 14 -4 28 -12 32 -18z"/>
<path fill="#ffffff" stroke="none" d="M292 143 c10 -9 18 -20 18 -25 0 -13
-60 -9 -60 5 -1 8 -5 7 -13 -3 -15 -19 -83 -25 -117 -10 -24 10 -24 10 8 7 17
-2 32 0 32 4 0 8 75 37 99 38 8 1 23 -6 33 -16z"/>
<path fill="#ffffff" stroke="none" d="M157 26 c51 -4 52 -16 2 -16 -26 0 -53
7 -65 16 -18 15 -18 15 6 9 14 -3 40 -7 57 -9z"/>
<path fill="#000000" stroke="none" d="M85 280 c3 -5 11 -10 16 -10 6 0 7 5 4
10 -3 6 -11 10 -16 10 -6 0 -7 -4 -4 -10z"/>
<path fill="#000000" stroke="none" d="M200 216 c0 -9 30 -14 35 -6 4 6 -3 10
-14 10 -12 0 -21 -2 -21 -4z"/>
</g>
</svg>
