<?xml version="1.0" standalone="no"?>
<!DOCTYPE svg PUBLIC "-//W3C//DTD SVG 20010904//EN"
 "http://www.w3.org/TR/2001/REC-SVG-20010904/DTD/svg10.dtd">
<svg version="1.0" xmlns="http://www.w3.org/2000/svg"
 width="32.000000pt" height="32.000000pt" viewBox="0 0 32.000000 32.000000"
 preserveAspectRatio="xMidYMid meet">
<metadata>
Created by potrace 1.16, written by Peter Selinger 2001-2019
</metadata>
<g transform="translate(0.000000,32.000000) scale(0.100000,-0.100000)"
fill="#000000" stroke="none">
<path fill="#000000" stroke="none" d="M123 303 c4 -4 22 -8 40 -9 17 -2 43
-6 57 -9 24 -6 24 -6 6 9 -19 15 -117 24 -103 9z"/>
<path fill="#000000" stroke="none" d="M100 279 c-13 -6 -41 -7 -62 -4 -34 6
-38 5 -38 -14 0 -18 3 -20 19 -12 14 8 22 7 32 -6 10 -12 10 -15 1 -9 -6 4
-12 2 -12 -3 0 -13 36 -15 44 -3 5 8 77 6 116 -3 24 -6 24 -6 6 14 -11 12 -14
21 -8 21 22 0 12 18 -12 22 -15 3 -27 0 -30 -8 -3 -8 -12 -14 -20 -14 -10 0
-13 6 -10 15 7 17 7 17 -26 4z"/>
<path fill="#000000" stroke="none" d="M84 201 c-4 -12 -8 -12 -11 -3 -5 13
-63 17 -63 4 0 -5 9 -17 20 -27 20 -18 23 -18 75 -1 30 9 55 21 55 25 0 4 15
6 33 4 30 -3 31 -3 8 7 -36 16 -109 10 -117 -9z"/>
<path fill="#000000" stroke="none" d="M200 151 c0 -10 7 -21 15 -25 8 -3 15
-12 15 -21 0 -8 5 -15 10 -15 6 0 10 -4 10 -8 0 -5 -18 -7 -41 -6 -36 2 -38 0
-22 -12 16 -12 15 -13 -14 -9 -46 5 -41 -12 8 -26 45 -14 96 -2 91 21 -3 11 0
11 12 1 13 -11 15 -10 11 7 -6 32 -29 63 -43 57 -7 -3 -10 0 -7 6 7 11 -22 49
-37 49 -4 0 -8 -9 -8 -19z"/>
<path fill="#ffffff" stroke="none" d="M235 40 c3 -5 2 -10 -4 -10 -5 0 -13 5
-16 10 -3 6 -2 10 4 10 5 0 13 -4 16 -10z"/>
<path fill="#000000" stroke="none" d="M95 146 c-17 -12 -17 -14 6 -29 l23
-17 -22 0 c-12 0 -22 -4 -22 -10 0 -13 16 -13 41 0 23 13 25 30 3 30 -8 0 -13
4 -10 9 3 4 18 6 33 3 16 -3 22 -7 15 -10 -10 -3 -10 -7 -1 -18 15 -19 39 -18
39 2 0 39 -70 66 -105 40z"/>
<path fill="#000000" stroke="none" d="M22 120 c-26 -24 -30 -75 -6 -84 25
-10 44 -7 60 9 12 11 20 12 35 5 10 -6 19 -8 19 -6 0 3 -13 12 -29 21 -22 11
-30 12 -33 3 -4 -10 -10 -10 -29 0 l-24 12 25 -6 c14 -4 22 -3 18 1 -4 4 3 16
15 26 12 11 18 19 12 18 -5 -1 -17 -1 -25 0 -13 1 -13 2 0 11 13 9 13 10 -1
10 -8 0 -25 -9 -37 -20z"/>
</g>
</svg>
