<?xml version="1.0" standalone="no"?>
<!DOCTYPE svg PUBLIC "-//W3C//DTD SVG 20010904//EN"
 "http://www.w3.org/TR/2001/REC-SVG-20010904/DTD/svg10.dtd">
<svg version="1.0" xmlns="http://www.w3.org/2000/svg"
 width="32.000000pt" height="32.000000pt" viewBox="0 0 32.000000 32.000000"
 preserveAspectRatio="xMidYMid meet">
<metadata>
Created by potrace 1.16, written by Peter Selinger 2001-2019
</metadata>
<g transform="translate(0.000000,32.000000) scale(0.100000,-0.100000)"
fill="#000000" stroke="none">
<path fill="#000000" stroke="none" d="M1 160 l-1 -160 160 0 160 0 0 160 0
160 -159 0 -158 0 -2 -160z"/>
<path fill="#ffffff" stroke="none" d="M97 284 c-3 -3 -12 -4 -19 -1 -8 3 -5
6 6 6 11 1 17 -2 13 -5z"/>
<path fill="#ffffff" stroke="none" d="M237 274 c-3 -3 -12 -4 -19 -1 -8 3 -5
6 6 6 11 1 17 -2 13 -5z"/>
<path fill="#ffffff" stroke="none" d="M90 211 c0 -17 -18 -21 -24 -6 -3 9 0
15 9 15 8 0 15 -4 15 -9z"/>
<path fill="#ffffff" stroke="none" d="M237 214 c-3 -3 -12 -4 -19 -1 -8 3 -5
6 6 6 11 1 17 -2 13 -5z"/>
<path fill="#ffffff" stroke="none" d="M144 166 c-3 -8 -13 -12 -27 -8 -20 5
-20 6 -1 13 29 11 34 10 28 -5z"/>
<path fill="#ffffff" stroke="none" d="M117 104 c-3 -3 -12 -4 -19 -1 -8 3 -5
6 6 6 11 1 17 -2 13 -5z"/>
<path fill="#ffffff" stroke="none" d="M216 78 c-12 -7 -21 -7 -28 0 -6 6 0
10 18 10 23 0 24 -2 10 -10z"/>
<path fill="#ffffff" stroke="none" d="M45 70 c3 -6 -1 -7 -9 -4 -18 7 -21 14
-7 14 6 0 13 -4 16 -10z"/>
<path fill="#ffffff" stroke="none" d="M120 45 c0 -1 -12 -2 -26 -2 -17 0 -22
2 -13 7 10 7 39 3 39 -5z"/>
<path fill="#ffffff" stroke="none" d="M290 40 c0 -5 -5 -10 -11 -10 -5 0 -7
5 -4 10 3 6 8 10 11 10 2 0 4 -4 4 -10z"/>
</g>
</svg>
