<?xml version="1.0" standalone="no"?>
<!DOCTYPE svg PUBLIC "-//W3C//DTD SVG 20010904//EN"
 "http://www.w3.org/TR/2001/REC-SVG-20010904/DTD/svg10.dtd">
<svg version="1.0" xmlns="http://www.w3.org/2000/svg"
 width="32.000000pt" height="32.000000pt" viewBox="0 0 32.000000 32.000000"
 preserveAspectRatio="xMidYMid meet">
<metadata>
Created by potrace 1.16, written by Peter Selinger 2001-2019
</metadata>
<g transform="translate(0.000000,32.000000) scale(0.100000,-0.100000)"
fill="#000000" stroke="none">
<path fill="#000000" stroke="none" d="M136 308 c3 -5 10 -6 15 -3 13 9 11 12
-6 12 -8 0 -12 -4 -9 -9z"/>
<path fill="#000000" stroke="none" d="M290 316 c0 -2 7 -7 16 -10 8 -3 12 -2
9 4 -6 10 -25 14 -25 6z"/>
<path fill="#000000" stroke="none" d="M166 295 c-10 -8 -23 -12 -27 -9 -5 3
-9 0 -9 -6 0 -13 32 -9 42 5 5 6 8 5 8 -4 0 -7 6 -11 15 -7 9 3 15 0 15 -8 0
-9 -12 -12 -35 -11 -28 2 -35 -1 -33 -14 2 -9 -3 -15 -9 -14 -7 2 -13 -2 -13
-8 0 -7 9 -9 21 -6 17 5 20 2 16 -13 -5 -20 15 -45 26 -33 4 3 7 1 7 -5 0 -7
-4 -12 -10 -12 -5 0 -10 -5 -10 -11 0 -5 4 -8 9 -4 5 3 12 1 16 -5 6 -10 -7
-14 -32 -11 -11 2 -15 -9 -12 -36 0 -5 9 -7 20 -6 11 2 19 -3 19 -12 0 -11 -7
-14 -25 -11 -14 3 -25 1 -25 -4 0 -5 14 -8 30 -6 19 2 33 -2 39 -11 7 -13 9
-13 14 0 3 9 16 13 31 12 14 -2 26 1 26 5 0 5 -12 8 -27 8 -44 -1 -55 1 -49
11 3 5 24 7 46 6 22 -1 40 2 40 7 0 6 -7 7 -16 4 -10 -4 -14 -2 -11 6 2 7 10
12 16 10 7 -1 9 2 6 8 -4 6 -14 9 -22 6 -10 -4 -13 -1 -9 12 5 13 0 18 -20 20
-15 1 -23 -2 -19 -8 4 -6 12 -8 18 -4 7 3 4 -1 -5 -9 -22 -17 -23 -31 -3 -24
8 4 17 2 20 -3 7 -11 5 -12 -48 -14 -23 0 -37 4 -37 11 0 6 9 10 20 8 20 -4
22 0 24 40 1 11 7 20 14 21 50 5 48 5 29 13 -10 4 -18 10 -18 14 2 19 0 21 -8
8 -5 -8 -19 -16 -31 -18 -16 -2 -21 1 -18 14 2 11 11 17 22 15 11 -2 15 1 11
8 -4 6 -15 8 -26 5 -13 -4 -19 -2 -19 9 0 12 6 13 36 4 39 -10 41 -10 44 12 4
29 0 50 -11 50 -5 0 -7 -5 -4 -10 4 -6 -3 -8 -17 -6 -13 2 -22 9 -20 15 3 14
1 14 -22 -4z"/>
<path fill="#000000" stroke="none" d="M291 288 c-1 -9 -6 -20 -11 -23 -6 -4
-9 -1 -8 6 2 6 -2 13 -7 15 -6 3 -11 -17 -11 -48 0 -29 2 -45 4 -35 3 14 10
17 25 13 21 -5 21 -5 3 9 -19 14 -19 15 -2 34 10 11 16 26 13 33 -4 9 -6 7 -6
-4z"/>
<path fill="#000000" stroke="none" d="M30 277 c0 -4 16 -6 35 -4 34 4 46 -5
25 -18 -5 -3 -10 -11 -10 -18 0 -8 3 -8 11 0 6 6 18 9 25 6 16 -6 19 13 4 22
-6 4 -8 10 -5 15 3 5 -15 8 -40 7 -25 -1 -45 -5 -45 -10z"/>
<path fill="#000000" stroke="none" d="M20 249 c0 -5 11 -8 25 -7 33 3 33 16
0 16 -14 0 -25 -4 -25 -9z"/>
<path fill="#000000" stroke="none" d="M30 218 c0 -5 5 -6 10 -3 6 3 10 2 10
-3 0 -6 -7 -12 -15 -16 -8 -3 -14 -13 -14 -23 1 -17 2 -17 6 0 3 11 11 16 19
13 9 -3 14 1 14 12 0 21 37 24 45 4 3 -9 -1 -12 -15 -7 -11 4 -20 2 -20 -3 0
-6 11 -9 25 -7 24 2 35 -10 15 -17 -5 -1 -11 -15 -12 -30 -1 -15 -8 -30 -15
-32 -10 -4 -12 1 -7 19 4 16 2 25 -6 25 -6 0 -8 5 -5 10 9 15 -4 12 -21 -5
-13 -13 -13 -15 -1 -15 15 0 17 -53 2 -99 -5 -16 -4 -21 4 -17 6 4 11 14 11
22 0 8 10 15 23 15 16 1 18 2 5 6 -26 6 -22 20 10 37 15 8 23 16 17 17 -5 1 4
5 20 9 l30 8 -28 1 c-27 1 -27 1 -11 26 15 23 15 25 0 31 -9 3 -16 12 -16 19
0 7 -15 12 -40 12 -22 0 -40 -4 -40 -9z"/>
<path fill="#000000" stroke="none" d="M270 140 c0 -5 5 -10 11 -10 5 0 7 5 4
10 -3 6 -8 10 -11 10 -2 0 -4 -4 -4 -10z"/>
<path fill="#000000" stroke="none" d="M15 107 c-10 -37 -2 -51 11 -23 6 14 8
30 3 37 -5 9 -10 5 -14 -14z"/>
<path fill="#000000" stroke="none" d="M109 44 c-1 -10 -1 -23 0 -27 1 -5 -3
-6 -8 -3 -5 4 -12 2 -16 -4 -4 -6 11 -10 40 -10 27 0 44 4 40 10 -3 5 -12 7
-19 4 -8 -3 -17 0 -22 7 -5 8 -3 10 7 4 11 -7 11 -5 -1 11 -8 10 -16 21 -17
23 -2 2 -4 -4 -4 -15z"/>
</g>
</svg>
