<?xml version="1.0" standalone="no"?>
<!DOCTYPE svg PUBLIC "-//W3C//DTD SVG 20010904//EN"
 "http://www.w3.org/TR/2001/REC-SVG-20010904/DTD/svg10.dtd">
<svg version="1.0" xmlns="http://www.w3.org/2000/svg"
 width="32.000000pt" height="32.000000pt" viewBox="0 0 32.000000 32.000000"
 preserveAspectRatio="xMidYMid meet">
<metadata>
Created by potrace 1.16, written by Peter Selinger 2001-2019
</metadata>
<g transform="translate(0.000000,32.000000) scale(0.100000,-0.100000)"
fill="#000000" stroke="none">
<path fill="#000000" stroke="none" d="M10 160 l0 -160 53 0 52 0 -29 15 c-16
9 -37 13 -45 10 -13 -5 -13 -4 -4 6 9 9 9 18 -1 38 -9 17 -11 34 -5 49 12 32
22 27 17 -8 -4 -24 -1 -30 14 -30 10 0 17 -3 17 -7 -4 -27 3 -43 21 -43 11 0
20 -7 20 -15 0 -12 18 -15 100 -15 l100 0 0 160 c0 100 -4 160 -10 160 -5 0
-10 -7 -10 -15 0 -8 -5 -15 -11 -15 -5 0 -7 -5 -3 -12 5 -8 2 -9 -11 -5 -16 7
-17 6 -1 -17 16 -25 16 -25 -20 -32 -25 -5 -32 -9 -23 -15 11 -6 10 -11 -6
-23 -26 -19 -31 -14 -30 28 1 20 0 36 -2 36 -15 0 -31 -31 -26 -49 3 -11 1
-21 -4 -21 -5 0 -10 6 -10 13 0 6 -3 21 -7 33 -5 16 -1 23 15 31 l22 9 -23 22
-24 22 22 0 c12 0 22 -4 22 -9 0 -10 32 -7 50 4 6 3 7 -2 4 -12 -5 -16 -4 -16
6 1 9 13 14 15 20 6 5 -8 9 -7 13 4 6 14 -10 16 -128 16 l-135 0 0 -160z"/>
<path fill="#ffffff" stroke="none" d="M95 281 c-8 -13 -45 -15 -45 -2 0 5 10
11 23 13 27 5 31 3 22 -11z"/>
<path fill="#ffffff" stroke="none" d="M118 222 c2 -7 -3 -12 -12 -12 -9 0
-16 7 -16 16 0 17 22 14 28 -4z"/>
<path fill="#ffffff" stroke="none" d="M121 179 c4 -8 10 -26 14 -42 5 -23 9
-26 30 -21 14 3 25 2 25 -4 0 -5 -11 -13 -25 -16 -14 -4 -23 -11 -20 -16 4 -6
10 -8 15 -5 5 3 11 1 15 -5 4 -6 11 -8 16 -4 5 3 6 10 3 16 -4 6 -1 9 6 6 16
-5 25 -58 10 -58 -5 0 -10 5 -10 11 0 6 -7 8 -17 5 -9 -4 -20 -1 -25 6 -6 11
-10 10 -17 0 -6 -11 -9 -10 -15 3 -4 11 -12 14 -27 10 -19 -6 -20 -5 -9 15 11
20 10 21 -9 15 -29 -9 -26 8 4 31 30 23 32 50 5 59 -11 3 -20 10 -20 15 0 13
43 -4 51 -21z"/>
<path fill="#ffffff" stroke="none" d="M293 170 c21 -25 22 -37 1 -19 -13 10
-17 10 -24 0 -5 -9 -7 -4 -7 13 0 31 7 33 30 6z"/>
<path fill="#ffffff" stroke="none" d="M180 160 c0 -5 -7 -10 -15 -10 -8 0
-15 5 -15 10 0 6 7 10 15 10 8 0 15 -4 15 -10z"/>
<path fill="#ffffff" stroke="none" d="M290 50 c0 -5 -4 -10 -10 -10 -5 0 -10
5 -10 10 0 6 5 10 10 10 6 0 10 -4 10 -10z"/>
</g>
</svg>
