<?xml version="1.0" standalone="no"?>
<!DOCTYPE svg PUBLIC "-//W3C//DTD SVG 20010904//EN"
 "http://www.w3.org/TR/2001/REC-SVG-20010904/DTD/svg10.dtd">
<svg version="1.0" xmlns="http://www.w3.org/2000/svg"
 width="32.000000pt" height="32.000000pt" viewBox="0 0 32.000000 32.000000"
 preserveAspectRatio="xMidYMid meet">
<metadata>
Created by potrace 1.16, written by Peter Selinger 2001-2019
</metadata>
<g transform="translate(0.000000,32.000000) scale(0.100000,-0.100000)"
fill="#000000" stroke="none">
<path fill="#000000" stroke="none" d="M77 313 c46 -2 120 -2 166 0 45 1 8 3
-83 3 -91 0 -128 -2 -83 -3z"/>
<path fill="#000000" stroke="none" d="M268 278 c-48 -13 -50 -29 -3 -21 24 4
35 2 35 -7 0 -9 -13 -11 -45 -8 -26 3 -46 1 -48 -5 -1 -5 -33 -10 -70 -11 -37
-1 -67 -5 -67 -10 0 -5 50 -6 110 -4 61 3 110 3 110 1 0 -15 -23 -43 -35 -43
-18 0 -20 17 -2 23 6 2 8 8 4 13 -12 12 -47 -33 -47 -60 0 -15 3 -17 9 -8 7
11 9 11 14 -2 5 -12 0 -16 -18 -16 -18 0 -25 5 -25 20 0 25 -8 25 -27 3 -10
-13 -16 -15 -19 -5 -7 15 -36 16 -52 0 -21 -21 -13 -26 38 -25 56 0 91 -19 52
-29 -12 -4 -22 -11 -22 -16 0 -6 10 -7 23 -3 12 3 33 8 47 10 14 1 33 6 43 10
10 4 17 3 17 -4 0 -6 -6 -11 -12 -11 -7 0 -20 -5 -28 -10 -13 -9 -13 -11 0
-19 10 -7 17 -6 22 2 5 9 10 9 20 -1 6 -6 16 -12 20 -12 4 0 8 58 8 130 0 72
-3 130 -7 129 -5 -1 -25 -6 -45 -11z"/>
<path fill="#ffffff" stroke="none" d="M293 153 c-7 -2 -19 -2 -25 0 -7 3 -2
5 12 5 14 0 19 -2 13 -5z"/>
<path fill="#ffffff" stroke="none" d="M290 110 c-16 -11 -40 -13 -40 -5 0 8
44 24 50 18 2 -2 -2 -8 -10 -13z"/>
<path fill="#000000" stroke="none" d="M120 181 c0 -8 79 -3 89 5 2 2 -17 4
-42 4 -26 0 -47 -4 -47 -9z"/>
</g>
</svg>
