<?xml version="1.0" standalone="no"?>
<!DOCTYPE svg PUBLIC "-//W3C//DTD SVG 20010904//EN"
 "http://www.w3.org/TR/2001/REC-SVG-20010904/DTD/svg10.dtd">
<svg version="1.0" xmlns="http://www.w3.org/2000/svg"
 width="32.000000pt" height="32.000000pt" viewBox="0 0 32.000000 32.000000"
 preserveAspectRatio="xMidYMid meet">
<metadata>
Created by potrace 1.16, written by Peter Selinger 2001-2019
</metadata>
<g transform="translate(0.000000,32.000000) scale(0.100000,-0.100000)"
fill="#000000" stroke="none">
<path fill="#000000" stroke="none" d="M0 184 c0 -83 4 -133 10 -129 5 3 6 13
3 22 -4 9 -2 14 3 10 7 -4 7 12 0 44 -11 56 -1 84 30 84 13 0 21 9 24 30 4 24
10 30 30 30 19 0 24 -5 22 -19 -2 -10 1 -15 7 -12 5 4 13 1 17 -5 5 -9 11 -7
20 6 7 10 20 15 28 12 10 -4 16 1 18 16 2 12 11 23 20 25 26 5 48 -39 54 -107
5 -51 2 -67 -15 -97 -12 -19 -21 -46 -21 -60 0 -32 -29 -29 -46 4 -6 13 -21
30 -32 38 -19 13 -22 12 -38 -14 -9 -16 -28 -36 -43 -45 -25 -16 -20 -16 102
-17 l127 0 0 160 0 160 -160 0 -160 0 0 -136z"/>
<path fill="#000000" stroke="none" d="M134 212 c-6 -4 -13 -16 -16 -28 -4
-17 -1 -20 24 -16 17 3 26 7 20 11 -5 3 -11 14 -13 23 -2 10 -9 14 -15 10z"/>
<path fill="#000000" stroke="none" d="M0 13 c0 -7 7 -13 15 -13 8 0 15 6 15
13 0 8 -7 14 -15 14 -8 0 -15 -6 -15 -14z"/>
</g>
</svg>
