<?xml version="1.0" standalone="no"?>
<!DOCTYPE svg PUBLIC "-//W3C//DTD SVG 20010904//EN"
 "http://www.w3.org/TR/2001/REC-SVG-20010904/DTD/svg10.dtd">
<svg version="1.0" xmlns="http://www.w3.org/2000/svg"
 width="32.000000pt" height="32.000000pt" viewBox="0 0 32.000000 32.000000"
 preserveAspectRatio="xMidYMid meet">
<metadata>
Created by potrace 1.16, written by Peter Selinger 2001-2019
</metadata>
<g transform="translate(0.000000,32.000000) scale(0.100000,-0.100000)"
fill="#000000" stroke="none">
<path fill="#000000" stroke="none" d="M10 160 l0 -160 155 0 155 0 0 160 c0
122 -3 160 -13 160 -18 0 -42 -41 -28 -49 6 -4 7 -12 0 -21 -8 -13 -10 -13
-19 0 -5 8 -10 21 -10 28 0 6 -5 12 -11 12 -7 0 -8 -7 -4 -17 4 -10 9 -29 10
-43 2 -14 7 -35 10 -47 4 -13 3 -23 -3 -23 -5 0 -12 10 -16 22 -10 39 -29 4
-29 -52 1 -51 -4 -59 -25 -38 -16 16 -15 45 1 52 9 3 7 9 -5 19 -23 19 -23 27
2 27 15 0 20 7 20 25 0 18 -4 23 -16 18 -13 -5 -13 -7 -2 -14 9 -6 7 -9 -8 -9
-27 0 -72 35 -60 47 5 4 11 2 13 -4 6 -18 23 -16 23 2 0 12 -28 35 -43 35 -2
0 -2 -49 1 -110 2 -60 1 -110 -4 -110 -5 0 -9 30 -10 67 -1 37 -6 69 -11 70
-6 2 -8 22 -5 48 3 32 1 45 -8 45 -9 0 -11 -11 -7 -35 8 -51 -9 -43 -22 10
-21 85 -31 50 -31 -115z"/>
<path fill="#ffffff" stroke="none" d="M143 163 c3 -24 1 -43 -4 -43 -5 0 -9
21 -9 47 0 56 5 54 13 -4z"/>
<path fill="#000000" stroke="none" d="M162 280 c0 -14 2 -19 5 -12 2 6 2 18
0 25 -3 6 -5 1 -5 -13z"/>
<path fill="#000000" stroke="none" d="M197 280 c6 -22 23 -38 23 -21 0 17
-12 41 -20 41 -5 0 -6 -9 -3 -20z"/>
</g>
</svg>
