<?xml version="1.0" standalone="no"?>
<!DOCTYPE svg PUBLIC "-//W3C//DTD SVG 20010904//EN"
 "http://www.w3.org/TR/2001/REC-SVG-20010904/DTD/svg10.dtd">
<svg version="1.0" xmlns="http://www.w3.org/2000/svg"
 width="32.000000pt" height="32.000000pt" viewBox="0 0 32.000000 32.000000"
 preserveAspectRatio="xMidYMid meet">
<metadata>
Created by potrace 1.16, written by Peter Selinger 2001-2019
</metadata>
<g transform="translate(0.000000,32.000000) scale(0.100000,-0.100000)"
fill="#000000" stroke="none">
<path fill="#000000" stroke="none" d="M50 311 c0 -17 15 -19 35 -5 18 13 18
14 -8 14 -15 0 -27 -4 -27 -9z"/>
<path fill="#000000" stroke="none" d="M160 300 c6 -11 17 -20 25 -20 19 0 47
-30 41 -45 -2 -7 4 -21 15 -31 19 -17 19 -19 3 -31 -15 -11 -12 -13 29 -13
l47 0 0 80 0 80 -85 0 c-83 0 -85 -1 -75 -20z"/>
<path fill="#000000" stroke="none" d="M280 126 c0 -2 9 -6 20 -9 11 -3 20 -1
20 4 0 5 -9 9 -20 9 -11 0 -20 -2 -20 -4z"/>
<path fill="#000000" stroke="none" d="M225 83 c-16 -2 -44 -11 -62 -21 -27
-14 -38 -14 -66 -4 -45 16 -47 16 -44 -10 2 -19 -3 -23 -25 -23 -16 1 -28 -5
-28 -12 0 -10 36 -13 160 -13 l160 0 0 43 c0 41 -1 42 -33 43 -17 0 -45 -1
-62 -3z"/>
</g>
</svg>
