<?xml version="1.0" standalone="no"?>
<!DOCTYPE svg PUBLIC "-//W3C//DTD SVG 20010904//EN"
 "http://www.w3.org/TR/2001/REC-SVG-20010904/DTD/svg10.dtd">
<svg version="1.0" xmlns="http://www.w3.org/2000/svg"
 width="32.000000pt" height="32.000000pt" viewBox="0 0 32.000000 32.000000"
 preserveAspectRatio="xMidYMid meet">
<metadata>
Created by potrace 1.16, written by Peter Selinger 2001-2019
</metadata>
<g transform="translate(0.000000,32.000000) scale(0.100000,-0.100000)"
fill="#000000" stroke="none">
<path fill="#000000" stroke="none" d="M0 160 l0 -160 76 0 c47 0 73 4 69 10
-3 5 -15 10 -26 10 -10 0 -19 5 -19 10 0 16 -35 47 -48 42 -18 -6 -27 29 -11
42 8 6 15 18 17 26 2 8 13 25 24 37 18 20 18 21 1 20 -22 -2 -25 34 -4 41 9 3
11 0 6 -8 -6 -9 -4 -12 7 -8 15 6 16 0 5 -56 -2 -11 -11 -22 -20 -25 -14 -5
-12 -11 13 -34 19 -18 30 -39 30 -55 0 -24 1 -25 17 -10 9 9 16 31 15 50 -1
29 1 31 12 15 8 -10 12 -35 10 -62 -4 -46 2 -55 24 -33 9 9 12 9 12 0 0 -8 19
-12 55 -12 l55 0 0 160 0 160 -160 0 -160 0 0 -160z"/>
<path fill="#ffffff" stroke="none" d="M187 274 c2 -6 -11 -21 -29 -34 -18
-13 -30 -20 -26 -15 4 4 3 16 -3 27 -5 10 -8 22 -5 26 7 11 59 7 63 -4z"/>
<path fill="#ffffff" stroke="none" d="M268 261 c10 -6 7 -12 -13 -25 -14 -9
-23 -21 -20 -26 3 -5 1 -11 -5 -15 -6 -4 -7 -12 -3 -18 4 -7 12 0 19 18 13 29
13 27 15 -35 1 -48 3 -57 8 -35 l7 30 7 -40 c7 -41 -3 -62 -22 -51 -6 4 -11
16 -11 26 0 10 -4 22 -10 25 -9 5 -14 -7 -23 -60 -2 -11 -9 -19 -15 -18 -7 2
-12 -2 -12 -9 0 -6 -3 -8 -6 -5 -4 4 -1 13 5 21 8 10 10 24 5 38 -12 34 -11
41 8 62 10 11 18 24 18 29 0 5 -8 1 -17 -10 -10 -10 -15 -14 -10 -9 11 15 8
28 -5 20 -7 -5 -8 -3 -3 6 6 10 3 12 -11 7 -18 -7 -18 -6 -2 6 11 9 14 17 8
23 -6 6 -4 18 6 32 16 23 57 29 82 13z"/>
<path fill="#ffffff" stroke="none" d="M281 203 c-4 -28 -6 -32 -9 -15 -3 22
3 52 11 52 1 0 1 -17 -2 -37z"/>
<path fill="#ffffff" stroke="none" d="M110 135 c-7 -8 -17 -15 -23 -15 -6 0
-2 7 9 15 25 19 30 19 14 0z"/>
<path fill="#ffffff" stroke="none" d="M143 70 c-7 -28 -13 -25 -13 6 0 14 4
23 9 20 5 -3 7 -15 4 -26z"/>
<path fill="#000000" stroke="none" d="M196 213 c10 -7 12 -13 5 -13 -7 0 -9
-5 -6 -10 5 -8 11 -7 20 0 16 14 1 37 -23 37 -11 0 -10 -4 4 -14z"/>
</g>
</svg>
