<?xml version="1.0" standalone="no"?>
<!DOCTYPE svg PUBLIC "-//W3C//DTD SVG 20010904//EN"
 "http://www.w3.org/TR/2001/REC-SVG-20010904/DTD/svg10.dtd">
<svg version="1.0" xmlns="http://www.w3.org/2000/svg"
 width="32.000000pt" height="32.000000pt" viewBox="0 0 32.000000 32.000000"
 preserveAspectRatio="xMidYMid meet">
<metadata>
Created by potrace 1.16, written by Peter Selinger 2001-2019
</metadata>
<g transform="translate(0.000000,32.000000) scale(0.100000,-0.100000)"
fill="#000000" stroke="none">
<path fill="#000000" stroke="none" d="M0 160 l0 -160 80 0 c82 0 88 4 81 44
-1 5 5 6 14 2 9 -3 19 -6 21 -6 3 0 3 -4 -1 -9 -3 -5 -1 -12 5 -16 5 -3 10 0
10 7 0 8 5 6 11 -4 7 -13 23 -18 54 -18 l45 0 0 88 c0 60 -3 82 -10 72 -9 -13
-10 -13 -11 0 0 8 -2 23 -4 33 -2 9 1 15 6 11 5 -3 7 -10 4 -15 -4 -5 -1 -9 5
-9 14 0 9 32 -7 45 -9 7 -10 14 -2 25 9 13 10 12 5 -2 -3 -10 -1 -18 4 -18 6
0 10 20 10 45 l0 45 -160 0 -160 0 0 -160z"/>
<path fill="#ffffff" stroke="none" d="M266 287 c16 -9 19 -17 13 -32 -6 -16
-8 -17 -8 -3 -1 23 -21 34 -32 17 -6 -10 -9 -8 -9 9 0 25 6 26 36 9z"/>
<path fill="#ffffff" stroke="none" d="M60 281 c0 -6 -4 -12 -8 -15 -13 -8
-14 -68 -1 -64 7 2 13 12 15 22 6 44 14 24 13 -35 -1 -57 -2 -61 -10 -31 -12
41 -29 32 -29 -16 0 -26 -3 -33 -9 -23 -10 16 -7 143 3 160 9 13 26 14 26 2z"/>
<path fill="#ffffff" stroke="none" d="M140 261 c0 -6 -4 -13 -10 -16 -5 -3
-10 1 -10 9 0 9 5 16 10 16 6 0 10 -4 10 -9z"/>
<path fill="#ffffff" stroke="none" d="M189 233 c0 -25 -1 -25 -8 -8 -5 11 -7
23 -4 28 8 14 13 7 12 -20z"/>
<path fill="#ffffff" stroke="none" d="M118 201 c-12 -4 -28 17 -28 39 0 10 7
7 20 -10 11 -15 15 -26 8 -29z"/>
<path fill="#ffffff" stroke="none" d="M261 217 c-1 -12 -15 -9 -19 4 -3 6 1
10 8 8 6 -3 11 -8 11 -12z"/>
<path fill="#ffffff" stroke="none" d="M239 175 c0 -5 -4 -3 -9 5 -5 8 -9 22
-9 30 0 16 17 -16 18 -35z"/>
<path fill="#ffffff" stroke="none" d="M160 148 c0 -6 -7 -8 -15 -4 -9 3 -15
0 -15 -9 0 -12 -3 -12 -18 3 -10 9 -14 20 -9 23 12 9 57 -2 57 -13z"/>
<path fill="#ffffff" stroke="none" d="M287 108 c-3 -8 -6 -5 -6 6 -1 11 2 17
5 13 3 -3 4 -12 1 -19z"/>
<path fill="#ffffff" stroke="none" d="M37 52 c1 -46 1 -46 -8 -13 -9 28 -7
61 3 61 2 0 4 -21 5 -48z"/>
<path fill="#ffffff" stroke="none" d="M167 68 c-3 -8 -6 -5 -6 6 -1 11 2 17
5 13 3 -3 4 -12 1 -19z"/>
</g>
</svg>
