<?xml version="1.0" standalone="no"?>
<!DOCTYPE svg PUBLIC "-//W3C//DTD SVG 20010904//EN"
 "http://www.w3.org/TR/2001/REC-SVG-20010904/DTD/svg10.dtd">
<svg version="1.0" xmlns="http://www.w3.org/2000/svg"
 width="32.000000pt" height="32.000000pt" viewBox="0 0 32.000000 32.000000"
 preserveAspectRatio="xMidYMid meet">
<metadata>
Created by potrace 1.16, written by Peter Selinger 2001-2019
</metadata>
<g transform="translate(0.000000,32.000000) scale(0.100000,-0.100000)"
fill="#000000" stroke="none">
<path fill="#000000" stroke="none" d="M4 160 c0 -91 2 -128 3 -82 2 45 2 119
0 165 -1 45 -3 8 -3 -83z"/>
<path fill="#000000" stroke="none" d="M271 303 c-6 -10 -11 -13 -11 -6 0 7
-9 10 -20 7 -11 -2 -29 -6 -40 -8 -11 -3 -20 -1 -20 5 0 5 -10 9 -22 9 l-22 0
24 -22 23 -22 -22 -9 c-16 -8 -20 -15 -15 -31 4 -12 7 -27 7 -33 0 -7 5 -13
10 -13 5 0 7 10 4 21 -5 18 11 49 26 49 2 0 3 -16 2 -36 -1 -42 4 -47 30 -28
16 12 17 17 6 23 -9 6 -2 10 23 15 36 7 36 7 20 32 -16 23 -15 24 1 17 13 -4
16 -3 11 5 -4 7 -2 12 3 12 6 0 11 7 11 15 0 20 -17 19 -29 -2z"/>
<path fill="#000000" stroke="none" d="M73 292 c-13 -2 -23 -8 -23 -13 0 -13
37 -11 45 2 9 14 5 16 -22 11z"/>
<path fill="#000000" stroke="none" d="M90 226 c0 -9 7 -16 16 -16 9 0 14 5
12 12 -6 18 -28 21 -28 4z"/>
<path fill="#000000" stroke="none" d="M70 200 c0 -5 9 -12 20 -15 27 -9 25
-36 -5 -59 -30 -23 -33 -40 -4 -31 19 6 20 5 9 -15 -11 -20 -10 -21 9 -15 15
4 23 1 27 -10 6 -13 9 -14 15 -3 7 10 11 11 17 0 5 -7 16 -10 25 -6 10 3 17 1
17 -5 0 -6 5 -11 10 -11 15 0 6 53 -10 58 -7 3 -10 0 -6 -6 3 -6 2 -13 -3 -16
-5 -4 -12 -2 -16 4 -4 6 -10 8 -15 5 -5 -3 -11 -1 -15 5 -3 5 6 12 20 16 14 3
25 11 25 16 0 6 -11 7 -25 4 -21 -5 -25 -2 -30 21 -4 16 -10 34 -14 42 -8 17
-51 34 -51 21z"/>
<path fill="#000000" stroke="none" d="M263 164 c0 -17 2 -22 7 -13 7 10 11
10 24 0 21 -18 20 -6 -1 19 -23 27 -30 25 -30 -6z"/>
<path fill="#000000" stroke="none" d="M150 160 c0 -5 7 -10 15 -10 8 0 15 5
15 10 0 6 -7 10 -15 10 -8 0 -15 -4 -15 -10z"/>
<path fill="#000000" stroke="none" d="M31 118 c-6 -15 -4 -32 5 -49 10 -20
10 -29 1 -38 -9 -10 -8 -11 6 -5 9 3 23 2 30 -3 24 -19 47 -23 47 -8 0 8 -9
15 -20 15 -18 0 -25 16 -21 43 0 4 -7 7 -17 7 -15 0 -18 6 -14 30 5 35 -5 40
-17 8z"/>
<path fill="#000000" stroke="none" d="M270 50 c0 -5 5 -10 10 -10 6 0 10 5
10 10 0 6 -4 10 -10 10 -5 0 -10 -4 -10 -10z"/>
</g>
</svg>
