<?xml version="1.0" standalone="no"?>
<!DOCTYPE svg PUBLIC "-//W3C//DTD SVG 20010904//EN"
 "http://www.w3.org/TR/2001/REC-SVG-20010904/DTD/svg10.dtd">
<svg version="1.0" xmlns="http://www.w3.org/2000/svg"
 width="32.000000pt" height="32.000000pt" viewBox="0 0 32.000000 32.000000"
 preserveAspectRatio="xMidYMid meet">
<metadata>
Created by potrace 1.16, written by Peter Selinger 2001-2019
</metadata>
<g transform="translate(0.000000,32.000000) scale(0.100000,-0.100000)"
fill="#000000" stroke="none">
<path fill="#000000" stroke="none" d="M62 202 c-2 -64 -8 -122 -14 -129 -8
-10 -6 -13 6 -13 9 0 16 5 16 11 0 5 6 7 13 3 9 -6 9 -4 0 7 -15 15 -18 89 -4
89 5 0 5 16 1 37 -10 41 -6 53 16 53 8 0 12 5 9 10 -3 6 -2 10 4 10 5 0 11 -5
13 -12 3 -8 6 -7 9 3 3 7 -3 23 -14 33 -17 16 -19 17 -14 3 3 -9 2 -17 -3 -17
-6 0 -10 4 -10 9 0 5 -6 11 -12 14 -10 3 -14 -24 -16 -111z"/>
<path fill="#000000" stroke="none" d="M227 300 c-5 -21 -8 -23 -19 -10 -7 9
-12 13 -11 11 1 -2 -2 -12 -8 -23 -16 -30 -20 -58 -19 -130 0 -53 -3 -68 -13
-68 -8 0 -17 -9 -20 -20 -4 -17 -2 -18 14 -10 10 6 21 23 24 38 3 15 10 42 14
60 6 19 5 32 0 32 -14 0 -11 27 6 43 8 8 11 18 8 21 -4 4 4 5 18 4 16 -2 24 2
24 12 0 8 4 21 9 29 6 9 5 12 -2 7 -6 -3 -12 2 -14 11 -3 14 -5 12 -11 -7z"/>
<path fill="#000000" stroke="none" d="M36 294 c-4 -9 -3 -21 2 -26 12 -12 23
15 12 31 -5 9 -9 8 -14 -5z"/>
<path fill="#000000" stroke="none" d="M150 265 c0 -8 4 -15 10 -15 5 0 7 7 4
15 -4 8 -8 15 -10 15 -2 0 -4 -7 -4 -15z"/>
<path fill="#000000" stroke="none" d="M257 272 c13 -8 6 -52 -8 -52 -19 0 -8
-16 11 -17 16 -1 20 2 15 17 -3 11 -1 28 5 40 9 17 8 20 -12 20 -15 0 -19 -3
-11 -8z"/>
<path fill="#000000" stroke="none" d="M120 236 c0 -9 8 -12 26 -8 19 3 22 7
12 13 -20 13 -38 11 -38 -5z"/>
<path fill="#000000" stroke="none" d="M213 173 c0 -26 2 -36 4 -21 3 18 9 25
19 21 8 -3 14 1 14 8 0 7 -3 9 -7 5 -4 -3 -12 3 -18 15 -10 18 -12 14 -12 -28z"/>
<path fill="#000000" stroke="none" d="M96 201 c-4 -6 -3 -11 2 -11 5 0 8 -17
6 -37 -2 -21 0 -31 3 -23 3 8 9 20 14 25 4 6 2 21 -5 34 -9 15 -16 20 -20 12z"/>
<path fill="#000000" stroke="none" d="M270 124 c0 -8 5 -12 10 -9 6 3 10 10
10 16 0 5 -4 9 -10 9 -5 0 -10 -7 -10 -16z"/>
<path fill="#000000" stroke="none" d="M238 112 c-3 -11 0 -19 7 -19 7 0 12 6
11 13 -3 23 -13 26 -18 6z"/>
<path fill="#000000" stroke="none" d="M140 109 c0 -5 5 -7 10 -4 6 3 10 8 10
11 0 2 -4 4 -10 4 -5 0 -10 -5 -10 -11z"/>
<path fill="#000000" stroke="none" d="M193 65 c0 -6 6 -12 12 -12 6 0 12 6
12 12 0 6 -6 12 -12 12 -6 0 -12 -6 -12 -12z"/>
</g>
</svg>
