<?xml version="1.0" standalone="no"?>
<!DOCTYPE svg PUBLIC "-//W3C//DTD SVG 20010904//EN"
 "http://www.w3.org/TR/2001/REC-SVG-20010904/DTD/svg10.dtd">
<svg version="1.0" xmlns="http://www.w3.org/2000/svg"
 width="32.000000pt" height="32.000000pt" viewBox="0 0 32.000000 32.000000"
 preserveAspectRatio="xMidYMid meet">
<metadata>
Created by potrace 1.16, written by Peter Selinger 2001-2019
</metadata>
<g transform="translate(0.000000,32.000000) scale(0.100000,-0.100000)"
fill="#000000" stroke="none">
<path fill="#000000" stroke="none" d="M0 160 c0 -151 1 -160 19 -160 26 0 41
78 19 94 -8 6 -13 17 -10 25 3 8 0 11 -7 7 -17 -11 -14 76 4 100 9 12 14 14
15 6 0 -23 26 -42 39 -29 6 6 18 12 27 13 12 2 15 -4 12 -27 -3 -16 -1 -29 3
-29 4 0 16 -25 25 -55 l18 -55 -24 -25 -23 -25 52 0 52 0 -21 22 c-11 12 -19
29 -18 38 1 8 -3 24 -9 36 -15 26 -10 68 10 88 18 19 47 21 47 4 0 -6 3 -8 8
-4 9 10 9 66 0 66 -5 0 -8 -4 -8 -10 0 -5 -7 -10 -15 -10 -9 0 -18 -7 -21 -15
-6 -16 -44 -21 -44 -7 0 8 29 36 72 70 18 14 58 24 56 14 -1 -4 5 -20 12 -35
11 -23 11 -36 2 -70 -7 -23 -14 -50 -17 -60 -2 -9 -6 -21 -10 -26 -3 -5 2 -17
11 -26 11 -11 14 -25 10 -45 -5 -25 -2 -30 14 -30 19 0 20 7 20 160 l0 160
-160 0 -160 0 0 -160z"/>
<path fill="#000000" stroke="none" d="M211 104 c0 -11 3 -14 6 -6 3 7 2 16
-1 19 -3 4 -6 -2 -5 -13z"/>
<path fill="#000000" stroke="none" d="M100 75 c0 -9 6 -12 15 -9 8 4 12 10 9
15 -8 14 -24 10 -24 -6z"/>
<path fill="#000000" stroke="none" d="M245 39 c-4 -6 -5 -12 -2 -15 2 -3 7 2
10 11 7 17 1 20 -8 4z"/>
</g>
</svg>
