<?xml version="1.0" standalone="no"?>
<!DOCTYPE svg PUBLIC "-//W3C//DTD SVG 20010904//EN"
 "http://www.w3.org/TR/2001/REC-SVG-20010904/DTD/svg10.dtd">
<svg version="1.0" xmlns="http://www.w3.org/2000/svg"
 width="32.000000pt" height="32.000000pt" viewBox="0 0 32.000000 32.000000"
 preserveAspectRatio="xMidYMid meet">
<metadata>
Created by potrace 1.16, written by Peter Selinger 2001-2019
</metadata>
<g transform="translate(0.000000,32.000000) scale(0.100000,-0.100000)"
fill="#000000" stroke="none">
<path fill="#000000" stroke="none" d="M4 160 c0 -91 2 -128 3 -82 2 45 2 119
0 165 -1 45 -3 8 -3 -83z"/>
<path fill="#000000" stroke="none" d="M50 270 c0 -6 7 -25 16 -41 8 -17 14
-32 12 -33 -2 -2 -12 -8 -23 -14 -16 -9 -17 -11 -3 -12 11 0 15 -6 11 -21 -5
-18 -3 -20 15 -15 11 4 23 2 27 -4 4 -7 1 -10 -6 -9 -22 5 -69 -10 -69 -22 0
-6 12 -9 28 -7 15 2 33 -4 40 -12 11 -13 12 -11 6 9 -4 16 -3 21 5 17 6 -4 14
-1 17 7 2 7 12 14 21 14 14 0 13 -2 -2 -13 -18 -13 -13 -34 8 -34 7 0 6 4 -3
10 -12 8 -11 10 6 10 12 0 27 -6 33 -14 11 -13 16 -12 37 6 13 12 22 23 19 26
-2 2 -11 -3 -20 -12 -19 -18 -39 -11 -31 11 3 8 2 11 -3 8 -5 -3 -13 0 -17 6
-5 9 1 10 19 5 14 -3 29 -2 32 4 3 5 21 10 40 10 51 0 51 17 0 24 -24 4 -47
11 -50 17 -4 5 -11 9 -16 9 -6 0 -7 -4 -4 -10 3 -5 1 -10 -4 -10 -6 0 -11 13
-11 28 0 16 -7 37 -16 48 -15 19 -15 19 -10 -1 18 -79 18 -78 1 -71 -9 3 -18
6 -21 6 -2 0 -1 7 2 15 4 8 1 15 -5 15 -6 0 -11 8 -11 18 -1 16 -1 16 -11 -1
-5 -9 -7 -22 -4 -27 3 -6 2 -10 -4 -10 -5 0 -15 16 -21 35 -11 34 -30 56 -30
35z"/>
<path fill="#ffffff" stroke="none" d="M101 157 c-10 -9 -11 -8 -5 6 3 10 9
15 12 12 3 -3 0 -11 -7 -18z"/>
<path fill="#ffffff" stroke="none" d="M157 164 c-3 -3 -12 -4 -19 -1 -8 3 -5
6 6 6 11 1 17 -2 13 -5z"/>
<path fill="#000000" stroke="none" d="M40 231 c0 -7 -4 -9 -10 -6 -5 3 -10 1
-10 -4 0 -6 4 -11 9 -11 13 0 25 20 17 27 -3 4 -6 1 -6 -6z"/>
</g>
</svg>
