<?xml version="1.0" standalone="no"?>
<!DOCTYPE svg PUBLIC "-//W3C//DTD SVG 20010904//EN"
 "http://www.w3.org/TR/2001/REC-SVG-20010904/DTD/svg10.dtd">
<svg version="1.0" xmlns="http://www.w3.org/2000/svg"
 width="32.000000pt" height="32.000000pt" viewBox="0 0 32.000000 32.000000"
 preserveAspectRatio="xMidYMid meet">
<metadata>
Created by potrace 1.16, written by Peter Selinger 2001-2019
</metadata>
<g transform="translate(0.000000,32.000000) scale(0.100000,-0.100000)"
fill="#000000" stroke="none">
<path fill="#000000" stroke="none" d="M35 290 c4 -19 2 -20 -12 -8 -15 12
-15 11 -4 -9 8 -17 9 -28 1 -43 -11 -21 -6 -40 11 -40 5 0 9 7 9 15 0 8 5 15
11 15 5 0 7 6 3 13 -6 9 -5 9 8 0 12 -11 18 -9 33 7 10 11 22 20 26 20 4 0 -5
-12 -20 -28 -22 -22 -27 -35 -25 -65 4 -42 0 -46 -17 -16 -6 12 -7 19 -1 15 6
-3 9 5 8 19 -1 26 -16 36 -16 10 0 -8 -7 -15 -15 -15 -12 0 -14 -8 -9 -37 11
-75 10 -128 -4 -126 -6 2 -12 -1 -12 -6 0 -6 22 -10 49 -9 47 0 49 1 46 26 -3
24 0 27 26 27 16 0 29 -4 29 -8 0 -4 9 -3 19 3 27 14 29 13 34 -12 4 -20 4
-20 6 4 1 17 8 29 21 33 17 5 20 15 20 60 0 36 -7 67 -20 90 -11 19 -15 35
-10 35 6 0 13 -7 16 -15 4 -8 10 -12 15 -9 5 3 9 2 8 -3 -4 -20 2 -34 11 -28
13 8 7 82 -8 97 -8 8 -15 8 -27 -2 -12 -10 -15 -10 -15 0 0 9 -3 10 -13 1 -8
-6 -18 -7 -23 -3 -4 4 -2 -1 5 -10 14 -18 7 -38 -12 -38 -7 0 -6 4 3 10 11 8
-3 10 -47 9 -35 -1 -63 -6 -63 -10 0 -4 -9 -7 -19 -6 -11 0 -17 5 -15 9 3 5 9
6 14 3 4 -3 14 3 21 12 12 15 12 16 -8 11 -13 -3 -21 -2 -20 4 1 6 -3 12 -10
15 -8 3 -11 -3 -8 -17z"/>
<path fill="#ffffff" stroke="none" d="M195 235 c29 -15 62 -61 51 -72 -8 -9
-27 8 -20 18 8 14 -14 38 -50 54 -17 7 -27 14 -23 14 5 1 24 -6 42 -14z"/>
<path fill="#ffffff" stroke="none" d="M175 224 c9 -4 25 -24 35 -45 17 -31
18 -43 8 -64 -6 -14 -16 -25 -22 -25 -6 0 -5 5 2 12 17 17 15 33 -3 18 -8 -7
-15 -19 -15 -26 0 -15 -10 -17 -35 -8 -15 6 -14 8 1 25 9 10 21 16 25 13 14
-9 10 6 -13 47 -13 23 -27 38 -35 35 -7 -3 -15 0 -19 6 -4 7 -3 8 4 4 7 -4 12
-2 12 3 0 12 29 14 55 5z"/>
<path fill="#ffffff" stroke="none" d="M110 183 c0 -5 -5 -15 -10 -23 -8 -12
-10 -11 -10 8 0 12 5 22 10 22 6 0 10 -3 10 -7z"/>
<path fill="#ffffff" stroke="none" d="M139 156 c8 -10 9 -16 1 -21 -13 -8
-30 3 -30 21 0 18 14 18 29 0z"/>
<path fill="#ffffff" stroke="none" d="M120 109 c0 -6 -5 -7 -12 -3 -8 5 -9 2
-5 -9 3 -10 2 -17 -3 -17 -11 0 -13 11 -4 34 6 16 24 12 24 -5z"/>
<path fill="#ffffff" stroke="none" d="M240 95 c-7 -9 -15 -13 -18 -10 -3 2 1
11 8 20 7 9 15 13 18 10 3 -2 -1 -11 -8 -20z"/>
<path fill="#ffffff" stroke="none" d="M93 43 c3 -13 1 -26 -4 -29 -5 -3 -9 0
-9 7 0 8 -4 8 -15 -1 -13 -11 -15 -7 -14 33 2 42 3 44 19 28 9 -9 20 -26 23
-38z"/>
<path fill="#000000" stroke="none" d="M270 186 c0 -2 7 -9 15 -16 9 -7 15 -8
15 -2 0 5 -7 12 -15 16 -8 3 -15 4 -15 2z"/>
<path fill="#000000" stroke="none" d="M277 103 c-4 -3 -7 -15 -7 -25 0 -10
-5 -18 -12 -18 -9 0 -9 -3 -1 -11 13 -13 53 -3 53 13 0 5 -7 7 -16 4 -13 -5
-15 -1 -10 19 6 25 5 30 -7 18z"/>
<path fill="#000000" stroke="none" d="M156 15 c-4 -10 1 -15 16 -15 17 0 18
2 8 15 -15 19 -16 19 -24 0z"/>
</g>
</svg>
