<?xml version="1.0" standalone="no"?>
<!DOCTYPE svg PUBLIC "-//W3C//DTD SVG 20010904//EN"
 "http://www.w3.org/TR/2001/REC-SVG-20010904/DTD/svg10.dtd">
<svg version="1.0" xmlns="http://www.w3.org/2000/svg"
 width="32.000000pt" height="32.000000pt" viewBox="0 0 32.000000 32.000000"
 preserveAspectRatio="xMidYMid meet">
<metadata>
Created by potrace 1.16, written by Peter Selinger 2001-2019
</metadata>
<g transform="translate(0.000000,32.000000) scale(0.100000,-0.100000)"
fill="#000000" stroke="none">
<path fill="#000000" stroke="none" d="M0 160 l0 -160 160 0 160 0 0 160 0
160 -160 0 -160 0 0 -160z"/>
<path fill="#ffffff" stroke="none" d="M255 280 c-2 -11 0 -18 5 -15 5 3 18
-8 30 -25 16 -23 19 -34 11 -47 -9 -16 -10 -16 -11 -2 0 9 -7 23 -17 30 -15
13 -16 10 -10 -26 4 -23 1 -69 -7 -105 -14 -63 -14 -63 -15 -22 -1 24 4 52 9
62 6 12 7 21 0 25 -5 3 -9 21 -8 39 1 38 -10 62 -23 49 -14 -14 -31 -112 -31
-178 l0 -60 -9 50 c-5 28 -7 57 -5 66 2 12 -2 15 -15 12 -31 -8 -49 15 -49 63
0 27 5 44 12 44 6 0 9 3 5 6 -3 3 -16 -1 -28 -9 -25 -18 -62 -94 -49 -102 4
-3 32 -11 61 -19 30 -8 48 -15 41 -15 -7 -1 -10 -6 -7 -11 4 -6 11 -24 15 -41
7 -23 6 -28 -3 -21 -22 17 -76 20 -82 4 -7 -18 -18 -9 -22 18 -3 18 7 25 31
21 16 -3 46 10 46 21 0 6 -13 8 -30 6 -17 -3 -30 -1 -30 3 0 4 -7 10 -16 13
-10 4 -15 0 -13 -12 3 -31 -1 -43 -11 -37 -5 3 -7 20 -4 38 4 25 3 29 -5 17
-9 -12 -11 -5 -8 28 2 23 8 46 12 50 5 4 5 -1 2 -10 -11 -31 1 -19 19 17 9 20
30 43 45 51 16 8 29 16 29 18 0 4 -60 -2 -76 -8 -6 -2 -17 0 -24 4 -38 23 155
24 198 1 12 -7 22 -8 21 -4 -3 18 2 33 10 33 6 0 8 -9 6 -20z"/>
<path fill="#ffffff" stroke="none" d="M40 219 c0 -5 -8 -9 -17 -8 -11 0 -13
3 -5 6 6 2 9 10 6 15 -4 7 -2 8 4 4 7 -4 12 -11 12 -17z"/>
<path fill="#ffffff" stroke="none" d="M86 143 c-11 -11 -17 4 -9 23 7 18 8
18 11 1 2 -10 1 -21 -2 -24z"/>
<path fill="#ffffff" stroke="none" d="M297 138 c-3 -8 -6 -5 -6 6 -1 11 2 17
5 13 3 -3 4 -12 1 -19z"/>
<path fill="#ffffff" stroke="none" d="M230 120 c0 -5 -2 -10 -4 -10 -3 0 -8
5 -11 10 -3 6 -1 10 4 10 6 0 11 -4 11 -10z"/>
<path fill="#ffffff" stroke="none" d="M211 53 c-9 -16 -10 -16 -11 -1 0 9 3
25 7 35 7 16 8 17 11 1 2 -10 -1 -25 -7 -35z"/>
<path fill="#000000" stroke="none" d="M135 270 c-3 -6 1 -7 9 -4 18 7 21 14
7 14 -6 0 -13 -4 -16 -10z"/>
<path fill="#000000" stroke="none" d="M161 237 c2 -1 13 -9 24 -17 19 -14 19
-14 6 3 -7 9 -18 17 -24 17 -6 0 -8 -1 -6 -3z"/>
<path fill="#000000" stroke="none" d="M155 210 c-4 -6 -4 -14 -1 -17 3 -4 6
0 6 8 0 11 2 11 10 -1 5 -8 9 -22 9 -30 0 -10 -3 -8 -9 5 -6 14 -9 15 -10 5 0
-12 -3 -11 -11 3 -13 23 -29 13 -22 -14 8 -28 57 -23 61 7 4 25 -22 51 -33 34z"/>
</g>
</svg>
