<?xml version="1.0" standalone="no"?>
<!DOCTYPE svg PUBLIC "-//W3C//DTD SVG 20010904//EN"
 "http://www.w3.org/TR/2001/REC-SVG-20010904/DTD/svg10.dtd">
<svg version="1.0" xmlns="http://www.w3.org/2000/svg"
 width="32.000000pt" height="32.000000pt" viewBox="0 0 32.000000 32.000000"
 preserveAspectRatio="xMidYMid meet">
<metadata>
Created by potrace 1.16, written by Peter Selinger 2001-2019
</metadata>
<g transform="translate(0.000000,32.000000) scale(0.100000,-0.100000)"
fill="#000000" stroke="none">
<path fill="#000000" stroke="none" d="M57 289 c-10 -6 -14 -15 -10 -22 4 -7
0 -7 -10 1 -14 12 -16 11 -12 -6 6 -32 29 -63 43 -57 7 3 10 0 7 -6 -7 -11 22
-49 37 -49 14 0 9 38 -7 44 -8 3 -15 12 -15 21 0 8 -4 15 -10 15 -5 0 -10 4
-10 8 0 5 18 7 41 6 36 -2 38 0 22 12 -16 12 -15 13 15 9 41 -5 42 10 1 24
-39 14 -69 14 -92 0z"/>
<path fill="#ffffff" stroke="none" d="M105 280 c3 -5 2 -10 -4 -10 -5 0 -13
5 -16 10 -3 6 -2 10 4 10 5 0 13 -4 16 -10z"/>
<path fill="#000000" stroke="none" d="M242 275 c-10 -12 -18 -13 -32 -5 -11
6 -20 8 -20 6 0 -3 13 -12 29 -21 22 -11 30 -12 33 -3 4 10 10 10 29 0 l24
-12 -24 6 c-16 4 -21 3 -17 -5 4 -6 3 -11 -2 -11 -5 0 -9 -7 -9 -15 0 -8 5
-15 11 -15 6 0 4 -5 -4 -10 -13 -9 -13 -10 1 -10 44 0 82 89 43 104 -25 10
-48 6 -62 -9z"/>
<path fill="#000000" stroke="none" d="M198 242 c11 -7 11 -10 -2 -15 -21 -8
-21 -27 0 -27 8 0 13 -4 10 -9 -3 -4 -18 -6 -33 -3 -16 3 -22 7 -15 10 10 3
10 7 1 18 -15 19 -39 18 -39 -2 0 -23 28 -46 58 -50 27 -3 68 13 58 23 -3 4
-2 11 4 17 12 16 0 32 -30 40 -17 5 -20 4 -12 -2z"/>
<path fill="#ffffff" stroke="none" d="M235 210 c-3 -5 -12 -7 -20 -3 -21 7
-19 13 6 13 11 0 18 -4 14 -10z"/>
<path fill="#000000" stroke="none" d="M203 143 c-24 -8 -43 -18 -43 -22 0 -4
-15 -6 -32 -4 -32 3 -32 3 -8 -7 34 -15 102 -9 117 10 8 10 12 11 13 3 0 -14
60 -18 60 -5 0 14 -35 42 -51 41 -8 0 -33 -7 -56 -16z"/>
<path fill="#000000" stroke="none" d="M114 81 c11 -12 14 -21 8 -21 -22 0
-12 -18 12 -22 15 -3 27 0 30 8 3 8 12 14 20 14 10 0 13 -6 10 -15 -5 -13 -2
-14 22 -5 15 6 45 8 66 5 34 -6 38 -5 38 14 0 18 -3 20 -19 12 -14 -8 -22 -7
-32 6 -10 12 -10 15 -1 9 6 -4 12 -2 12 3 0 13 -36 15 -44 3 -5 -8 -77 -6
-116 3 -24 6 -24 6 -6 -14z"/>
<path fill="#000000" stroke="none" d="M94 26 c12 -9 39 -16 65 -16 50 0 49
12 -2 16 -17 2 -43 6 -57 9 -24 6 -24 6 -6 -9z"/>
</g>
</svg>
