<?xml version="1.0" standalone="no"?>
<!DOCTYPE svg PUBLIC "-//W3C//DTD SVG 20010904//EN"
 "http://www.w3.org/TR/2001/REC-SVG-20010904/DTD/svg10.dtd">
<svg version="1.0" xmlns="http://www.w3.org/2000/svg"
 width="32.000000pt" height="32.000000pt" viewBox="0 0 32.000000 32.000000"
 preserveAspectRatio="xMidYMid meet">
<metadata>
Created by potrace 1.16, written by Peter Selinger 2001-2019
</metadata>
<g transform="translate(0.000000,32.000000) scale(0.100000,-0.100000)"
fill="#000000" stroke="none">
<path fill="#000000" stroke="none" d="M314 160 c0 -91 2 -128 3 -82 2 45 2
119 0 165 -1 45 -3 8 -3 -83z"/>
<path fill="#000000" stroke="none" d="M96 245 c4 -8 11 -15 16 -15 6 0 5 6
-2 15 -7 8 -14 15 -16 15 -2 0 -1 -7 2 -15z"/>
<path fill="#000000" stroke="none" d="M137 240 c-3 -11 -1 -23 4 -26 5 -3 7
-16 5 -29 -5 -29 -25 -65 -26 -47 0 14 -30 17 -30 2 0 -5 8 -13 17 -19 10 -5
17 -21 18 -38 0 -21 4 -27 18 -25 13 2 17 -4 17 -24 0 -23 -3 -26 -25 -22 -13
3 -22 1 -19 -3 3 -5 35 -8 72 -8 37 1 57 4 46 6 -16 3 -24 14 -29 39 -3 20 -9
42 -12 51 -4 11 -2 14 8 11 8 -3 14 -13 14 -23 0 -10 6 -20 14 -23 10 -3 12 1
8 17 -7 28 1 27 13 -2 l9 -22 0 23 c1 13 4 21 9 18 4 -2 6 13 4 35 -4 35 -11
44 -35 40 -5 -1 -6 3 -2 9 3 5 15 10 25 10 10 0 21 4 24 9 4 5 -4 7 -15 4 -21
-6 -21 -5 -5 19 15 23 15 26 1 32 -9 3 -13 2 -10 -4 8 -13 -26 -13 -59 0 -17
6 -26 6 -26 0 0 -6 5 -10 11 -10 5 0 7 -5 3 -12 -5 -8 -13 -5 -24 10 -17 21
-18 21 -23 2z"/>
<path fill="#ffffff" stroke="none" d="M260 150 c0 -5 -5 -10 -11 -10 -5 0 -7
5 -4 10 3 6 8 10 11 10 2 0 4 -4 4 -10z"/>
<path fill="#ffffff" stroke="none" d="M220 130 c0 -5 -2 -10 -4 -10 -3 0 -8
5 -11 10 -3 6 -1 10 4 10 6 0 11 -4 11 -10z"/>
<path fill="#ffffff" stroke="none" d="M255 119 c11 -16 1 -19 -13 -3 -7 8 -8
14 -3 14 5 0 13 -5 16 -11z"/>
<path fill="#ffffff" stroke="none" d="M170 101 c0 -5 -7 -14 -15 -21 -16 -14
-18 -10 -9 14 6 17 24 22 24 7z"/>
<path fill="#ffffff" stroke="none" d="M189 40 c0 -10 -3 -8 -9 5 -12 27 -12
43 0 25 5 -8 9 -22 9 -30z"/>
<path fill="#000000" stroke="none" d="M80 205 c0 -8 5 -15 10 -15 6 0 10 7
10 15 0 8 -4 15 -10 15 -5 0 -10 -7 -10 -15z"/>
<path fill="#000000" stroke="none" d="M124 202 c-20 -13 -23 -40 -6 -47 9 -3
13 -3 10 1 -4 4 -3 15 3 26 12 22 9 30 -7 20z"/>
<path fill="#000000" stroke="none" d="M111 47 c2 -2 12 -9 22 -16 14 -11 17
-11 17 1 0 7 -10 14 -21 15 -12 1 -20 1 -18 0z"/>
<path fill="#000000" stroke="none" d="M2 20 c0 -14 2 -19 5 -12 2 6 2 18 0
25 -3 6 -5 1 -5 -13z"/>
</g>
</svg>
