<?xml version="1.0" standalone="no"?>
<!DOCTYPE svg PUBLIC "-//W3C//DTD SVG 20010904//EN"
 "http://www.w3.org/TR/2001/REC-SVG-20010904/DTD/svg10.dtd">
<svg version="1.0" xmlns="http://www.w3.org/2000/svg"
 width="32.000000pt" height="32.000000pt" viewBox="0 0 32.000000 32.000000"
 preserveAspectRatio="xMidYMid meet">
<metadata>
Created by potrace 1.16, written by Peter Selinger 2001-2019
</metadata>
<g transform="translate(0.000000,32.000000) scale(0.100000,-0.100000)"
fill="#000000" stroke="none">
<path fill="#000000" stroke="none" d="M0 160 l0 -160 160 0 160 0 0 160 0
160 -160 0 -160 0 0 -160z"/>
<path fill="#ffffff" stroke="none" d="M289 115 c10 -10 11 -23 4 -52 -8 -33
-12 -38 -38 -38 -24 0 -30 5 -38 35 -6 24 -5 41 4 55 11 18 10 19 -4 7 -9 -8
-18 -26 -20 -40 -4 -26 -4 -26 -6 4 0 16 4 35 10 41 14 14 68 6 88 -12z"/>
<path fill="#000000" stroke="none" d="M220 90 c0 -5 4 -10 9 -10 6 0 13 5 16
10 3 6 -1 10 -9 10 -9 0 -16 -4 -16 -10z"/>
<path fill="#000000" stroke="none" d="M265 90 c3 -5 10 -10 16 -10 5 0 9 5 9
10 0 6 -7 10 -16 10 -8 0 -12 -4 -9 -10z"/>
<path fill="#000000" stroke="none" d="M237 54 c-13 -13 -7 -19 18 -19 14 0
24 5 22 10 -4 12 -31 18 -40 9z"/>
</g>
</svg>
