<?xml version="1.0" standalone="no"?>
<!DOCTYPE svg PUBLIC "-//W3C//DTD SVG 20010904//EN"
 "http://www.w3.org/TR/2001/REC-SVG-20010904/DTD/svg10.dtd">
<svg version="1.0" xmlns="http://www.w3.org/2000/svg"
 width="32.000000pt" height="32.000000pt" viewBox="0 0 32.000000 32.000000"
 preserveAspectRatio="xMidYMid meet">
<metadata>
Created by potrace 1.16, written by Peter Selinger 2001-2019
</metadata>
<g transform="translate(0.000000,32.000000) scale(0.100000,-0.100000)"
fill="#000000" stroke="none">
<path fill="#000000" stroke="none" d="M140 285 c0 -8 -5 -15 -11 -15 -6 0 -9
-9 -6 -20 3 -11 1 -23 -4 -26 -5 -3 -9 0 -9 6 0 6 -7 18 -16 27 -22 22 -44 1
-27 -26 16 -26 4 -35 -19 -14 -26 23 -32 11 -35 -68 -2 -65 0 -70 18 -64 14 5
22 0 30 -18 11 -24 15 -25 98 -23 57 2 96 8 117 19 31 16 32 17 29 87 -1 38
-5 73 -8 77 -4 3 -15 -1 -25 -10 -23 -21 -35 -12 -19 14 17 27 -5 48 -27 26
-9 -9 -16 -21 -16 -27 0 -6 -4 -9 -9 -6 -5 3 -7 15 -4 26 3 11 0 20 -6 20 -6
0 -11 7 -11 15 0 8 -9 15 -20 15 -11 0 -20 -7 -20 -15z"/>
<path fill="#ffffff" stroke="none" d="M176 273 c4 -10 8 -22 9 -28 0 -5 4
-16 9 -24 7 -10 14 -7 32 14 17 20 24 23 24 12 0 -9 -4 -19 -10 -22 -15 -9
-12 -22 6 -29 10 -4 22 1 30 11 13 17 14 17 7 -1 -3 -11 -2 -17 3 -14 5 4 9
-17 9 -46 0 -50 -1 -52 -26 -51 -19 1 -25 -3 -25 -19 1 -11 -6 -22 -15 -24
-12 -2 -15 5 -14 28 2 38 -1 38 -20 0 -20 -39 -50 -39 -70 0 -19 38 -22 38
-20 0 1 -23 -2 -30 -14 -28 -9 2 -16 13 -15 24 0 16 -6 20 -25 19 -25 -1 -26
1 -26 51 0 29 4 50 9 46 5 -3 6 3 3 14 -7 18 -6 18 7 1 8 -10 20 -15 30 -11
18 7 21 20 6 29 -5 3 -10 13 -10 22 0 11 7 8 24 -12 18 -21 25 -24 32 -14 5 8
9 19 9 24 2 18 17 45 25 45 4 0 11 -8 16 -17z"/>
<path fill="#000000" stroke="none" d="M156 251 c-4 -5 -2 -12 3 -15 5 -4 12
-2 15 3 4 5 2 12 -3 15 -5 4 -12 2 -15 -3z"/>
<path fill="#000000" stroke="none" d="M113 193 c-7 -2 -13 -9 -13 -14 0 -6 5
-7 12 -3 6 4 8 3 5 -4 -4 -5 -16 -8 -26 -5 -10 3 -22 -1 -26 -8 -6 -9 -2 -11
13 -7 13 4 22 1 22 -4 0 -6 8 -4 18 5 10 10 29 17 42 17 13 0 32 -7 42 -17 10
-9 18 -11 18 -5 0 5 9 8 22 4 15 -4 19 -2 13 7 -4 7 -16 11 -26 8 -10 -3 -22
0 -26 5 -3 7 -1 8 5 4 7 -4 12 -3 12 2 0 6 -7 13 -16 16 -8 3 -12 2 -9 -4 4
-6 -10 -10 -35 -10 -25 0 -39 4 -35 10 7 11 6 11 -12 3z"/>
<path fill="#000000" stroke="none" d="M50 119 c0 -5 5 -7 10 -4 6 3 10 8 10
11 0 2 -4 4 -10 4 -5 0 -10 -5 -10 -11z"/>
<path fill="#000000" stroke="none" d="M135 120 c-3 -5 -1 -10 4 -10 6 0 11 5
11 10 0 6 -2 10 -4 10 -3 0 -8 -4 -11 -10z"/>
</g>
</svg>
