<?xml version="1.0" standalone="no"?>
<!DOCTYPE svg PUBLIC "-//W3C//DTD SVG 20010904//EN"
 "http://www.w3.org/TR/2001/REC-SVG-20010904/DTD/svg10.dtd">
<svg version="1.0" xmlns="http://www.w3.org/2000/svg"
 width="32.000000pt" height="32.000000pt" viewBox="0 0 32.000000 32.000000"
 preserveAspectRatio="xMidYMid meet">
<metadata>
Created by potrace 1.16, written by Peter Selinger 2001-2019
</metadata>
<g transform="translate(0.000000,32.000000) scale(0.100000,-0.100000)"
fill="#000000" stroke="none">
<path fill="#000000" stroke="none" d="M0 160 l0 -160 160 0 160 0 0 160 0
160 -160 0 -160 0 0 -160z"/>
<path fill="#ffffff" stroke="none" d="M50 282 c0 -10 38 -13 44 -4 5 9 96 7
118 -3 10 -4 32 -2 50 4 41 15 50 5 46 -55 -3 -45 -5 -49 -30 -52 -17 -2 -28
1 -28 9 0 8 -4 8 -15 -1 -34 -28 0 -70 55 -70 15 0 20 -7 20 -28 0 -15 -5 -33
-12 -40 -14 -14 -248 -17 -248 -3 0 8 56 25 73 22 4 0 7 6 7 14 0 8 -6 15 -14
15 -22 0 -46 -11 -41 -19 2 -4 -6 -7 -17 -6 -32 2 -33 21 -3 41 31 20 32 65 2
70 -10 1 -24 8 -32 14 -16 13 -17 69 -2 88 11 13 27 16 27 4z"/>
<path fill="#000000" stroke="none" d="M29 268 c0 -7 -2 -21 -4 -30 -2 -10 2
-21 7 -25 7 -3 8 -1 4 5 -4 7 -3 12 2 12 5 0 14 -12 20 -26 7 -15 19 -24 30
-23 9 1 25 -1 35 -6 11 -4 23 -3 29 3 6 6 25 8 43 5 19 -3 35 0 39 6 4 6 16
11 27 11 14 0 18 -4 13 -12 -5 -9 -2 -8 10 1 11 10 14 17 7 24 -7 7 -7 15 2
26 10 12 9 13 -2 7 -10 -7 -12 -4 -7 12 7 19 5 20 -31 9 -21 -6 -44 -18 -52
-25 -12 -12 -17 -11 -31 8 -20 26 -54 23 -56 -5 -3 -37 -5 -40 -13 -20 -5 11
-4 29 2 40 9 18 9 19 -7 6 -10 -8 -14 -22 -11 -35 5 -21 5 -21 -6 -1 -14 28
-49 50 -50 33z"/>
<path fill="#ffffff" stroke="none" d="M164 244 c3 -9 6 -22 6 -30 0 -12 -2
-12 -14 -2 -10 9 -11 15 -2 20 6 5 2 8 -11 8 -13 0 -23 5 -23 10 0 16 37 11
44 -6z"/>
<path fill="#ffffff" stroke="none" d="M285 210 c3 -6 -1 -7 -9 -4 -18 7 -21
14 -7 14 6 0 13 -4 16 -10z"/>
<path fill="#ffffff" stroke="none" d="M150 196 c0 -11 -19 -15 -25 -6 -3 5 1
10 9 10 9 0 16 -2 16 -4z"/>
<path fill="#000000" stroke="none" d="M184 260 c0 -13 4 -16 10 -10 7 7 7 13
0 20 -6 6 -10 3 -10 -10z"/>
<path fill="#000000" stroke="none" d="M95 170 c-9 -15 3 -45 26 -66 21 -19
21 -18 45 9 13 16 24 34 24 42 0 21 -19 28 -36 14 -12 -10 -20 -10 -34 -1 -12
7 -21 8 -25 2z"/>
<path fill="#000000" stroke="none" d="M198 142 c-4 -12 -2 -20 3 -16 9 5 13
-11 9 -31 -1 -5 2 -7 5 -3 4 4 20 1 36 -8 16 -8 29 -10 29 -5 0 6 -14 18 -31
26 -16 9 -34 26 -38 37 l-8 22 -5 -22z"/>
<path fill="#000000" stroke="none" d="M68 104 c-38 -20 -36 -38 2 -19 17 9
30 20 30 25 0 12 1 12 -32 -6z"/>
<path fill="#000000" stroke="none" d="M161 96 c-13 -15 -1 -29 14 -18 13 9
17 32 6 32 -5 0 -14 -6 -20 -14z"/>
</g>
</svg>
