<?xml version="1.0" standalone="no"?>
<!DOCTYPE svg PUBLIC "-//W3C//DTD SVG 20010904//EN"
 "http://www.w3.org/TR/2001/REC-SVG-20010904/DTD/svg10.dtd">
<svg version="1.0" xmlns="http://www.w3.org/2000/svg"
 width="32.000000pt" height="32.000000pt" viewBox="0 0 32.000000 32.000000"
 preserveAspectRatio="xMidYMid meet">
<metadata>
Created by potrace 1.16, written by Peter Selinger 2001-2019
</metadata>
<g transform="translate(0.000000,32.000000) scale(0.100000,-0.100000)"
fill="#000000" stroke="none">
<path fill="#000000" stroke="none" d="M0 160 l0 -160 160 0 160 0 0 160 0
160 -160 0 -160 0 0 -160z"/>
<path fill="#ffffff" stroke="none" d="M300 245 c14 -16 5 -35 -16 -35 -8 0
-20 -12 -26 -26 -11 -23 -9 -28 12 -44 38 -29 36 -58 -5 -76 -46 -19 -137 -18
-183 3 -20 9 -40 17 -44 17 -31 4 -5 49 35 60 12 3 30 19 39 36 11 19 37 40
70 55 60 28 100 32 118 10z"/>
<path fill="#000000" stroke="none" d="M183 226 c-31 -15 -57 -35 -66 -52 -8
-15 -29 -34 -47 -43 -19 -9 -36 -23 -38 -31 -3 -11 -1 -11 9 2 8 9 25 20 39
23 21 5 28 1 37 -22 11 -27 12 -27 6 9 -2 20 -2 46 2 58 8 26 97 70 140 69
l30 -1 -31 -9 c-62 -18 -125 -113 -67 -103 27 5 30 -13 6 -33 -14 -11 -14 -13
-3 -10 8 2 19 13 25 25 11 25 17 26 48 11 21 -10 21 -9 3 5 -10 8 -24 17 -30
19 -18 6 6 61 32 72 12 5 21 14 19 20 -7 19 -63 15 -114 -9z"/>
</g>
</svg>
