<?xml version="1.0" standalone="no"?>
<!DOCTYPE svg PUBLIC "-//W3C//DTD SVG 20010904//EN"
 "http://www.w3.org/TR/2001/REC-SVG-20010904/DTD/svg10.dtd">
<svg version="1.0" xmlns="http://www.w3.org/2000/svg"
 width="32.000000pt" height="32.000000pt" viewBox="0 0 32.000000 32.000000"
 preserveAspectRatio="xMidYMid meet">
<metadata>
Created by potrace 1.16, written by Peter Selinger 2001-2019
</metadata>
<g transform="translate(0.000000,32.000000) scale(0.100000,-0.100000)"
fill="#000000" stroke="none">
<path fill="#000000" stroke="none" d="M111 289 c8 -15 8 -19 0 -15 -6 4 -11
1 -11 -6 0 -10 -3 -9 -11 2 -8 11 -12 12 -16 3 -6 -15 -33 -17 -33 -3 0 6 5
10 10 10 6 0 10 5 10 10 0 6 -7 10 -16 10 -14 0 -15 -12 -11 -82 3 -46 9 -98
15 -115 9 -27 8 -33 -4 -33 -23 0 -16 -26 11 -38 37 -17 75 -15 75 3 0 10 10
15 30 15 20 0 30 -5 30 -15 0 -18 31 -19 77 -3 33 12 34 13 31 66 -2 30 -6 56
-10 59 -5 2 -8 10 -8 16 0 7 4 6 10 -3 7 -11 10 -5 10 23 0 35 -1 37 -33 37
-18 0 -42 7 -53 16 -16 13 -16 15 -1 10 11 -3 17 0 17 9 0 9 -6 12 -16 8 -14
-5 -15 -3 -5 15 13 25 2 29 -29 10 -16 -10 -24 -10 -40 0 -31 19 -42 15 -29
-9z"/>
<path fill="#ffffff" stroke="none" d="M100 216 c0 -2 -8 -10 -17 -17 -16 -13
-17 -12 -4 4 13 16 21 21 21 13z"/>
<path fill="#ffffff" stroke="none" d="M241 203 c13 -16 12 -17 -3 -4 -10 7
-18 15 -18 17 0 8 8 3 21 -13z"/>
<path fill="#ffffff" stroke="none" d="M198 128 c22 -22 13 -28 -38 -28 -27 0
-50 4 -50 8 0 16 25 32 50 32 14 0 31 -5 38 -12z"/>
<path fill="#000000" stroke="none" d="M260 294 c0 -3 7 -12 15 -20 13 -14 15
-13 15 5 0 12 -6 21 -15 21 -8 0 -15 -3 -15 -6z"/>
</g>
</svg>
