<?xml version="1.0" standalone="no"?>
<!DOCTYPE svg PUBLIC "-//W3C//DTD SVG 20010904//EN"
 "http://www.w3.org/TR/2001/REC-SVG-20010904/DTD/svg10.dtd">
<svg version="1.0" xmlns="http://www.w3.org/2000/svg"
 width="32.000000pt" height="32.000000pt" viewBox="0 0 32.000000 32.000000"
 preserveAspectRatio="xMidYMid meet">
<metadata>
Created by potrace 1.16, written by Peter Selinger 2001-2019
</metadata>
<g transform="translate(0.000000,32.000000) scale(0.100000,-0.100000)"
fill="#000000" stroke="none">
<path fill="#000000" stroke="none" d="M2 163 l-2 -163 56 0 c48 0 55 2 45 14
-7 8 -23 13 -36 10 -27 -5 -48 22 -44 59 1 12 -1 29 -4 37 -4 8 -8 58 -10 110
-2 61 -4 37 -5 -67z"/>
<path fill="#000000" stroke="none" d="M283 221 c4 -76 2 -104 -8 -118 -20
-26 -19 -30 15 -35 l30 -5 0 129 c0 124 -1 128 -21 128 -20 0 -21 -3 -16 -99z"/>
<path fill="#000000" stroke="none" d="M73 78 c-18 -24 -22 -45 -7 -45 8 0 17
11 20 24 8 28 1 39 -13 21z"/>
<path fill="#000000" stroke="none" d="M290 35 c-15 -8 -19 -14 -10 -14 18 -1
46 16 40 23 -3 2 -16 -2 -30 -9z"/>
<path fill="#000000" stroke="none" d="M155 20 c8 -13 32 -13 40 0 4 6 -5 10
-20 10 -15 0 -24 -4 -20 -10z"/>
</g>
</svg>
