<?xml version="1.0" standalone="no"?>
<!DOCTYPE svg PUBLIC "-//W3C//DTD SVG 20010904//EN"
 "http://www.w3.org/TR/2001/REC-SVG-20010904/DTD/svg10.dtd">
<svg version="1.0" xmlns="http://www.w3.org/2000/svg"
 width="32.000000pt" height="32.000000pt" viewBox="0 0 32.000000 32.000000"
 preserveAspectRatio="xMidYMid meet">
<metadata>
Created by potrace 1.16, written by Peter Selinger 2001-2019
</metadata>
<g transform="translate(0.000000,32.000000) scale(0.100000,-0.100000)"
fill="#000000" stroke="none">
<path fill="#000000" stroke="none" d="M0 160 l0 -160 160 0 160 0 0 160 0
160 -160 0 -160 0 0 -160z"/>
<path fill="#ffffff" stroke="none" d="M94 272 c-5 -4 -12 -11 -15 -15 -3 -5
-9 -2 -12 5 -3 9 3 14 15 15 11 1 16 -1 12 -5z"/>
<path fill="#ffffff" stroke="none" d="M270 219 c0 -4 -5 -11 -12 -15 -7 -4
-8 -3 -4 5 10 15 -15 39 -34 33 -13 -5 -13 -3 -1 11 13 16 15 15 32 -4 11 -12
19 -26 19 -30z"/>
<path fill="#ffffff" stroke="none" d="M51 237 c-10 -9 -11 -8 -5 6 3 10 9 15
12 12 3 -3 0 -11 -7 -18z"/>
<path fill="#ffffff" stroke="none" d="M167 197 c-5 -15 -39 -24 -63 -18 -17
5 -20 10 -13 28 7 20 11 21 44 10 19 -6 34 -15 32 -20z"/>
<path fill="#ffffff" stroke="none" d="M231 63 c13 -16 12 -17 -3 -4 -17 13
-22 21 -14 21 2 0 10 -8 17 -17z"/>
<path fill="#ffffff" stroke="none" d="M128 39 c-3 -8 -7 -3 -11 10 -4 17 -3
21 5 13 5 -5 8 -16 6 -23z"/>
</g>
</svg>
