<?xml version="1.0" standalone="no"?>
<!DOCTYPE svg PUBLIC "-//W3C//DTD SVG 20010904//EN"
 "http://www.w3.org/TR/2001/REC-SVG-20010904/DTD/svg10.dtd">
<svg version="1.0" xmlns="http://www.w3.org/2000/svg"
 width="32.000000pt" height="32.000000pt" viewBox="0 0 32.000000 32.000000"
 preserveAspectRatio="xMidYMid meet">
<metadata>
Created by potrace 1.16, written by Peter Selinger 2001-2019
</metadata>
<g transform="translate(0.000000,32.000000) scale(0.100000,-0.100000)"
fill="#000000" stroke="none">
<path fill="#000000" stroke="none" d="M130 284 c0 -10 -5 -14 -15 -10 -8 3
-29 3 -45 -1 -30 -5 -30 -6 -30 -78 0 -50 -4 -76 -14 -84 -9 -7 -14 -30 -13
-59 0 -26 2 -41 4 -35 3 9 10 10 23 3 19 -10 241 -13 265 -3 22 8 19 60 -3 68
-19 5 -49 81 -38 93 3 3 6 0 6 -6 0 -7 4 -12 8 -12 4 0 8 25 8 55 0 59 0 59
-68 58 -10 0 -18 6 -18 14 0 7 -7 13 -15 13 -14 0 -14 -3 0 -30 22 -42 12 -67
-25 -67 -37 0 -47 26 -25 64 16 28 16 28 11 3 -4 -21 -1 -26 14 -26 11 0 20 1
20 2 0 2 -4 14 -10 28 -10 29 -40 36 -40 10z"/>
<path fill="#ffffff" stroke="none" d="M110 240 c0 -22 -4 -28 -15 -24 -16 7
-18 14 -9 38 10 26 24 18 24 -14z"/>
<path fill="#ffffff" stroke="none" d="M234 254 c9 -24 7 -31 -9 -38 -11 -4
-15 2 -15 24 0 32 14 40 24 14z"/>
<path fill="#ffffff" stroke="none" d="M70 232 c0 -9 -5 -24 -10 -32 -7 -11
-10 -5 -10 23 0 23 4 36 10 32 6 -3 10 -14 10 -23z"/>
<path fill="#ffffff" stroke="none" d="M269 223 c0 -34 -1 -36 -11 -16 -6 12
-8 29 -5 37 11 27 17 18 16 -21z"/>
<path fill="#ffffff" stroke="none" d="M125 197 c8 -25 27 -57 35 -57 8 0 27
32 35 57 0 1 12 4 28 8 25 7 27 5 27 -27 0 -18 -6 -42 -14 -53 -7 -11 -19 -37
-25 -57 -13 -40 -30 -48 -51 -23 -11 14 -17 13 -48 -5 -43 -26 -87 -20 -79 10
3 11 1 18 -4 14 -5 -3 -9 -1 -9 4 0 6 7 12 15 16 8 3 15 18 15 32 0 15 5 43
12 61 11 30 16 33 38 28 14 -4 25 -7 25 -8z"/>
<path fill="#ffffff" stroke="none" d="M180 183 c0 -5 -5 -15 -10 -23 -9 -13
-11 -13 -20 0 -15 22 -12 30 10 30 11 0 20 -3 20 -7z"/>
<path fill="#ffffff" stroke="none" d="M264 98 c12 -48 8 -59 -18 -47 -21 10
-23 15 -14 40 12 35 24 37 32 7z"/>
<path fill="#000000" stroke="none" d="M148 223 c6 -2 18 -2 25 0 6 3 1 5 -13
5 -14 0 -19 -2 -12 -5z"/>
</g>
</svg>
