<?xml version="1.0" standalone="no"?>
<!DOCTYPE svg PUBLIC "-//W3C//DTD SVG 20010904//EN"
 "http://www.w3.org/TR/2001/REC-SVG-20010904/DTD/svg10.dtd">
<svg version="1.0" xmlns="http://www.w3.org/2000/svg"
 width="32.000000pt" height="32.000000pt" viewBox="0 0 32.000000 32.000000"
 preserveAspectRatio="xMidYMid meet">
<metadata>
Created by potrace 1.16, written by Peter Selinger 2001-2019
</metadata>
<g transform="translate(0.000000,32.000000) scale(0.100000,-0.100000)"
fill="#000000" stroke="none">
<path fill="#000000" stroke="none" d="M125 286 c-14 -10 -25 -11 -37 -5 -14
7 -18 6 -18 -6 0 -8 -5 -15 -11 -15 -8 0 -8 -4 -1 -12 5 -7 9 -41 8 -75 -1
-35 1 -63 5 -63 9 0 19 37 19 75 1 27 2 28 10 9 10 -26 8 -41 -8 -71 -20 -36
-15 -81 9 -88 26 -9 32 -2 34 35 1 20 11 37 31 52 24 18 26 19 13 2 -15 -18
-20 -77 -7 -90 9 -8 78 7 78 18 0 5 -10 7 -22 3 -22 -5 -21 -5 2 10 l25 16
-26 -4 c-24 -3 -26 -1 -28 42 -1 25 -6 48 -10 51 -5 3 -5 13 -2 24 7 17 9 16
24 -7 10 -16 13 -28 7 -32 -6 -3 -10 -20 -10 -36 0 -23 4 -30 17 -27 22 4 33
47 28 111 -2 29 -4 59 -5 69 0 19 -32 14 -51 -8 -6 -8 -16 -14 -21 -14 -5 0
-2 7 7 16 13 14 14 19 3 25 -19 13 -42 11 -63 -5z"/>
<path fill="#ffffff" stroke="none" d="M158 268 c-6 -18 -28 -21 -28 -4 0 9 7
16 16 16 9 0 14 -5 12 -12z"/>
<path fill="#ffffff" stroke="none" d="M110 256 c0 -2 -8 -10 -17 -17 -16 -13
-17 -12 -4 4 13 16 21 21 21 13z"/>
<path fill="#ffffff" stroke="none" d="M250 246 c0 -2 -8 -10 -17 -17 -16 -13
-17 -12 -4 4 13 16 21 21 21 13z"/>
</g>
</svg>
