<?xml version="1.0" standalone="no"?>
<!DOCTYPE svg PUBLIC "-//W3C//DTD SVG 20010904//EN"
 "http://www.w3.org/TR/2001/REC-SVG-20010904/DTD/svg10.dtd">
<svg version="1.0" xmlns="http://www.w3.org/2000/svg"
 width="32.000000pt" height="32.000000pt" viewBox="0 0 32.000000 32.000000"
 preserveAspectRatio="xMidYMid meet">
<metadata>
Created by potrace 1.16, written by Peter Selinger 2001-2019
</metadata>
<g transform="translate(0.000000,32.000000) scale(0.100000,-0.100000)"
fill="#000000" stroke="none">
<path fill="#000000" stroke="none" d="M0 160 l0 -160 160 0 160 0 0 109 0
109 -25 -11 c-37 -18 -41 -44 -11 -68 38 -30 32 -42 -9 -16 -19 12 -34 29 -35
37 0 23 29 60 46 60 9 0 14 6 12 13 -13 38 -147 -4 -179 -57 -10 -17 -33 -37
-51 -46 -26 -12 -32 -21 -30 -40 2 -24 2 -24 -15 -8 -16 17 -16 19 7 43 13 14
29 25 36 25 6 0 24 16 39 36 29 38 113 84 154 84 14 0 33 -7 43 -17 17 -15 18
-14 18 25 l0 42 -160 0 -160 0 0 -160z"/>
<path fill="#ffffff" stroke="none" d="M253 218 c-23 -12 -40 -25 -37 -29 2
-4 -4 -10 -14 -13 -10 -3 -18 -14 -18 -24 0 -13 9 -18 33 -19 35 -1 83 -26 83
-44 0 -18 -68 -39 -127 -39 -100 0 -169 53 -96 73 21 7 36 19 44 40 14 34 94
77 144 77 30 0 29 -1 -12 -22z"/>
</g>
</svg>
