<?xml version="1.0" standalone="no"?>
<!DOCTYPE svg PUBLIC "-//W3C//DTD SVG 20010904//EN"
 "http://www.w3.org/TR/2001/REC-SVG-20010904/DTD/svg10.dtd">
<svg version="1.0" xmlns="http://www.w3.org/2000/svg"
 width="32.000000pt" height="32.000000pt" viewBox="0 0 32.000000 32.000000"
 preserveAspectRatio="xMidYMid meet">
<metadata>
Created by potrace 1.16, written by Peter Selinger 2001-2019
</metadata>
<g transform="translate(0.000000,32.000000) scale(0.100000,-0.100000)"
fill="#000000" stroke="none">
<path fill="#000000" stroke="none" d="M107 249 c-59 -46 -58 -152 2 -196 37
-28 70 -21 67 14 -2 14 -8 28 -15 32 -9 6 -8 11 4 21 8 7 16 22 16 34 1 20 2
20 6 1 3 -11 10 -24 17 -28 7 -6 4 -7 -6 -3 -10 3 -18 1 -18 -4 0 -6 0 -13 0
-17 0 -5 4 -8 9 -8 5 0 13 -4 18 -9 4 -5 3 -6 -4 -2 -14 7 -28 -10 -14 -18 5
-3 14 1 21 9 7 8 9 15 4 15 -5 0 -3 4 4 9 8 5 14 24 14 42 -1 65 -15 93 -44
86 -14 -4 -17 -2 -9 7 7 9 7 16 -1 24 -18 18 -42 15 -71 -9z"/>
<path fill="#ffffff" stroke="none" d="M171 193 c13 -17 13 -17 -6 -3 -11 8
-22 16 -24 17 -2 2 0 3 6 3 6 0 17 -8 24 -17z"/>
<path fill="#ffffff" stroke="none" d="M217 184 c-3 -3 -12 -4 -19 -1 -8 3 -5
6 6 6 11 1 17 -2 13 -5z"/>
<path fill="#ffffff" stroke="none" d="M117 146 c-3 -7 -1 -19 4 -25 5 -6 6
-9 3 -6 -4 2 -16 0 -28 -6 -18 -9 -19 -8 -5 3 16 13 19 19 19 38 0 6 3 10 6
10 3 0 4 -6 1 -14z"/>
</g>
</svg>
