<?xml version="1.0" standalone="no"?>
<!DOCTYPE svg PUBLIC "-//W3C//DTD SVG 20010904//EN"
 "http://www.w3.org/TR/2001/REC-SVG-20010904/DTD/svg10.dtd">
<svg version="1.0" xmlns="http://www.w3.org/2000/svg"
 width="32.000000pt" height="32.000000pt" viewBox="0 0 32.000000 32.000000"
 preserveAspectRatio="xMidYMid meet">
<metadata>
Created by potrace 1.16, written by Peter Selinger 2001-2019
</metadata>
<g transform="translate(0.000000,32.000000) scale(0.100000,-0.100000)"
fill="#000000" stroke="none">
<path fill="#000000" stroke="none" d="M0 160 l0 -160 160 0 160 0 0 160 0
160 -160 0 -160 0 0 -160z"/>
<path fill="#ffffff" stroke="none" d="M226 279 c19 -11 34 -27 34 -35 0 -8 7
-28 15 -44 14 -27 14 -30 -4 -40 -25 -13 -31 -13 -31 0 0 6 3 9 8 9 25 -4 30
2 19 26 -7 14 -15 25 -19 25 -3 0 -4 9 -1 20 3 12 0 20 -6 20 -7 0 -9 -4 -6
-10 3 -5 1 -10 -5 -10 -6 0 -8 -5 -4 -12 4 -7 3 -8 -4 -4 -6 3 -16 -2 -21 -13
-16 -29 -13 -35 7 -20 15 13 16 12 4 -3 -8 -9 -20 -14 -28 -11 -18 7 -18 12 6
51 16 27 18 37 9 48 -25 31 -100 6 -86 -28 3 -7 13 -30 22 -51 9 -22 11 -36 5
-32 -17 10 -48 79 -42 94 3 8 -1 12 -9 9 -8 -3 -14 -11 -15 -19 0 -8 -7 -26
-14 -42 -11 -23 -11 -30 0 -40 10 -10 12 -9 7 6 -4 11 -3 16 3 12 11 -7 14
-35 4 -35 -3 0 -14 5 -24 10 -18 10 -18 13 -5 43 7 17 16 40 19 50 7 21 60 46
100 47 16 0 44 -9 62 -21z"/>
<path fill="#ffffff" stroke="none" d="M213 151 c12 -2 8 -19 -7 -24 -8 -3
-21 2 -30 12 -17 19 -19 18 37 12z"/>
<path fill="#ffffff" stroke="none" d="M91 91 c-11 -20 2 -47 18 -37 6 4 11 2
11 -5 0 -7 9 -9 28 -5 15 4 39 7 55 6 21 0 27 4 27 20 0 11 -5 20 -11 20 -6 0
-9 -7 -6 -14 4 -10 1 -13 -9 -9 -7 3 -14 6 -14 8 0 6 40 47 41 42 1 -4 2 -11
3 -16 0 -5 4 -13 9 -17 13 -14 7 -24 -25 -44 -42 -25 -84 -25 -125 0 -18 11
-33 22 -33 24 0 16 24 54 31 50 5 -3 5 -13 0 -23z"/>
<path fill="#ffffff" stroke="none" d="M173 108 c-2 -5 -10 -8 -17 -8 -8 0
-19 -7 -26 -15 -16 -20 -33 -9 -19 13 6 9 23 17 39 17 15 0 26 -3 23 -7z"/>
<path fill="#000000" stroke="none" d="M168 33 c7 -3 16 -2 19 1 4 3 -2 6 -13
5 -11 0 -14 -3 -6 -6z"/>
</g>
</svg>
