<?xml version="1.0" standalone="no"?>
<!DOCTYPE svg PUBLIC "-//W3C//DTD SVG 20010904//EN"
 "http://www.w3.org/TR/2001/REC-SVG-20010904/DTD/svg10.dtd">
<svg version="1.0" xmlns="http://www.w3.org/2000/svg"
 width="32.000000pt" height="32.000000pt" viewBox="0 0 32.000000 32.000000"
 preserveAspectRatio="xMidYMid meet">
<metadata>
Created by potrace 1.16, written by Peter Selinger 2001-2019
</metadata>
<g transform="translate(0.000000,32.000000) scale(0.100000,-0.100000)"
fill="#000000" stroke="none">
<path fill="#000000" stroke="none" d="M0 160 l0 -160 160 0 160 0 0 160 0
160 -160 0 -160 0 0 -160z"/>
<path fill="#ffffff" stroke="none" d="M143 293 c-7 -2 -13 -12 -13 -20 0 -9
-3 -14 -6 -10 -10 10 4 37 18 36 10 0 10 -2 1 -6z"/>
<path fill="#ffffff" stroke="none" d="M150 240 c-6 -11 -13 -20 -16 -20 -2 0
0 9 6 20 6 11 13 20 16 20 2 0 0 -9 -6 -20z"/>
<path fill="#ffffff" stroke="none" d="M137 188 c-3 -8 -6 -5 -6 6 -1 11 2 17
5 13 3 -3 4 -12 1 -19z"/>
<path fill="#ffffff" stroke="none" d="M166 24 c18 -14 18 -14 -3 -4 -13 6
-23 16 -23 21 0 6 -9 1 -21 -12 l-21 -24 16 25 c9 13 16 36 17 50 1 21 2 20 9
-8 4 -18 16 -40 26 -48z"/>
</g>
</svg>
