<?xml version="1.0" standalone="no"?>
<!DOCTYPE svg PUBLIC "-//W3C//DTD SVG 20010904//EN"
 "http://www.w3.org/TR/2001/REC-SVG-20010904/DTD/svg10.dtd">
<svg version="1.0" xmlns="http://www.w3.org/2000/svg"
 width="32.000000pt" height="32.000000pt" viewBox="0 0 32.000000 32.000000"
 preserveAspectRatio="xMidYMid meet">
<metadata>
Created by potrace 1.16, written by Peter Selinger 2001-2019
</metadata>
<g transform="translate(0.000000,32.000000) scale(0.100000,-0.100000)"
fill="#000000" stroke="none">
<path fill="#000000" stroke="none" d="M97 245 c-5 -11 -18 -25 -27 -32 -21
-15 -20 -91 1 -107 9 -6 21 -21 27 -32 9 -17 21 -21 62 -21 41 0 53 4 62 21 6
11 18 26 27 32 21 16 22 92 1 107 -9 7 -21 21 -27 31 -16 29 -110 30 -126 1z"/>
<path fill="#ffffff" stroke="none" d="M237 148 c-3 -7 -5 -2 -5 12 0 14 2 19
5 13 2 -7 2 -19 0 -25z"/>
<path fill="#ffffff" stroke="none" d="M190 88 c0 -5 -13 -8 -30 -8 -16 0 -30
3 -30 8 0 4 14 7 30 7 17 0 30 -3 30 -7z"/>
<path fill="#000000" stroke="none" d="M53 33 c-7 -2 -13 -11 -13 -19 0 -11
23 -14 120 -14 96 0 120 3 120 14 0 8 -7 17 -16 20 -19 7 -193 7 -211 -1z"/>
</g>
</svg>
