<?xml version="1.0" standalone="no"?>
<!DOCTYPE svg PUBLIC "-//W3C//DTD SVG 20010904//EN"
 "http://www.w3.org/TR/2001/REC-SVG-20010904/DTD/svg10.dtd">
<svg version="1.0" xmlns="http://www.w3.org/2000/svg"
 width="32.000000pt" height="32.000000pt" viewBox="0 0 32.000000 32.000000"
 preserveAspectRatio="xMidYMid meet">
<metadata>
Created by potrace 1.16, written by Peter Selinger 2001-2019
</metadata>
<g transform="translate(0.000000,32.000000) scale(0.100000,-0.100000)"
fill="#000000" stroke="none">
<path fill="#000000" stroke="none" d="M0 160 l0 -160 160 0 160 0 0 160 0
160 -160 0 -160 0 0 -160z"/>
<path fill="#ffffff" stroke="none" d="M250 275 c14 -26 3 -56 -38 -108 -17
-21 -41 -62 -53 -92 -12 -30 -26 -55 -30 -55 -5 0 -24 14 -43 31 l-35 30 50
62 c31 39 49 71 49 88 0 27 21 54 33 42 4 -3 7 -1 7 5 0 16 -10 15 -32 -5 -10
-9 -18 -27 -18 -41 0 -25 -72 -132 -89 -132 -5 0 -14 6 -20 14 -10 12 -4 22
33 56 25 23 48 54 51 71 9 38 37 57 85 56 29 -1 42 -6 50 -22z"/>
</g>
</svg>
