<?xml version="1.0" standalone="no"?>
<!DOCTYPE svg PUBLIC "-//W3C//DTD SVG 20010904//EN"
 "http://www.w3.org/TR/2001/REC-SVG-20010904/DTD/svg10.dtd">
<svg version="1.0" xmlns="http://www.w3.org/2000/svg"
 width="32.000000pt" height="32.000000pt" viewBox="0 0 32.000000 32.000000"
 preserveAspectRatio="xMidYMid meet">
<metadata>
Created by potrace 1.16, written by Peter Selinger 2001-2019
</metadata>
<g transform="translate(0.000000,32.000000) scale(0.100000,-0.100000)"
fill="#000000" stroke="none">
<path fill="#000000" stroke="none" d="M30 236 c0 -25 5 -48 10 -51 6 -3 10
-11 10 -16 0 -6 -4 -7 -10 -4 -14 9 -12 -8 3 -24 10 -11 10 -13 0 -7 -10 5
-13 -3 -13 -30 0 -33 2 -35 18 -23 16 13 16 13 0 -7 -10 -11 -18 -30 -18 -40
0 -19 7 -20 135 -21 l136 -1 -2 134 -1 134 -134 0 -134 0 0 -44z"/>
<path fill="#ffffff" stroke="none" d="M167 264 c-3 -3 -12 -4 -19 -1 -8 3 -5
6 6 6 11 1 17 -2 13 -5z"/>
<path fill="#ffffff" stroke="none" d="M90 246 c0 -2 -8 -10 -17 -17 -16 -13
-17 -12 -4 4 13 16 21 21 21 13z"/>
<path fill="#ffffff" stroke="none" d="M169 229 c15 8 22 8 27 -1 4 -7 4 -10
-1 -6 -4 4 -16 3 -27 -3 -13 -7 -23 -7 -32 0 -7 6 -17 7 -21 3 -5 -4 -5 -1 -1
6 6 10 11 10 21 2 10 -8 19 -8 34 -1z"/>
<path fill="#ffffff" stroke="none" d="M239 227 c8 -10 7 -14 -2 -14 -8 0 -14
6 -14 14 0 7 1 13 2 13 2 0 8 -6 14 -13z"/>
<path fill="#ffffff" stroke="none" d="M78 139 c-3 -20 -5 -19 -9 9 -3 20 -2
29 4 23 5 -5 7 -19 5 -32z"/>
<path fill="#ffffff" stroke="none" d="M155 87 c4 5 5 2 1 -5 -7 -11 -11 -10
-25 2 -10 9 -21 13 -26 9 -4 -5 -5 -2 -1 5 7 11 11 10 25 -2 10 -9 21 -13 26
-9z"/>
<path fill="#ffffff" stroke="none" d="M120 64 c0 -8 -19 -13 -24 -6 -3 5 1 9
9 9 8 0 15 -2 15 -3z"/>
<path fill="#ffffff" stroke="none" d="M200 64 c0 -8 -19 -13 -24 -6 -3 5 1 9
9 9 8 0 15 -2 15 -3z"/>
<path fill="#ffffff" stroke="none" d="M166 38 c19 -23 19 -23 -2 -6 -16 14
-23 15 -34 5 -12 -10 -12 -9 -1 6 17 21 14 21 37 -5z"/>
</g>
</svg>
