<?xml version="1.0" standalone="no"?>
<!DOCTYPE svg PUBLIC "-//W3C//DTD SVG 20010904//EN"
 "http://www.w3.org/TR/2001/REC-SVG-20010904/DTD/svg10.dtd">
<svg version="1.0" xmlns="http://www.w3.org/2000/svg"
 width="32.000000pt" height="32.000000pt" viewBox="0 0 32.000000 32.000000"
 preserveAspectRatio="xMidYMid meet">
<metadata>
Created by potrace 1.16, written by Peter Selinger 2001-2019
</metadata>
<g transform="translate(0.000000,32.000000) scale(0.100000,-0.100000)"
fill="#000000" stroke="none">
<path fill="#000000" stroke="none" d="M0 160 l0 -160 160 0 160 0 0 160 0
160 -160 0 -160 0 0 -160z"/>
<path fill="#ffffff" stroke="none" d="M180 277 c3 0 13 3 23 8 32 13 43 -9
29 -58 -7 -23 -19 -70 -26 -104 -15 -71 -29 -93 -62 -93 -32 0 -40 20 -54 132
-15 117 -9 132 49 122 20 -4 38 -7 41 -7z"/>
<path fill="#000000" stroke="none" d="M135 250 c-3 -5 -2 -10 4 -10 5 0 13 5
16 10 3 6 2 10 -4 10 -5 0 -13 -4 -16 -10z"/>
<path fill="#000000" stroke="none" d="M212 248 c-7 -7 -12 -19 -12 -27 0 -11
5 -8 16 7 18 25 15 39 -4 20z"/>
</g>
</svg>
