<?xml version="1.0" standalone="no"?>
<!DOCTYPE svg PUBLIC "-//W3C//DTD SVG 20010904//EN"
 "http://www.w3.org/TR/2001/REC-SVG-20010904/DTD/svg10.dtd">
<svg version="1.0" xmlns="http://www.w3.org/2000/svg"
 width="32.000000pt" height="32.000000pt" viewBox="0 0 32.000000 32.000000"
 preserveAspectRatio="xMidYMid meet">
<metadata>
Created by potrace 1.16, written by Peter Selinger 2001-2019
</metadata>
<g transform="translate(0.000000,32.000000) scale(0.100000,-0.100000)"
fill="#000000" stroke="none">
<path fill="#000000" stroke="none" d="M65 290 c-3 -5 1 -10 10 -10 9 0 13 5
10 10 -3 6 -8 10 -10 10 -2 0 -7 -4 -10 -10z"/>
<path fill="#000000" stroke="none" d="M245 270 c-3 -5 1 -10 10 -10 9 0 13 5
10 10 -3 6 -8 10 -10 10 -2 0 -7 -4 -10 -10z"/>
<path fill="#000000" stroke="none" d="M46 244 c-17 -17 -16 -56 2 -62 7 -2
12 6 12 18 0 12 -4 18 -10 15 -5 -3 -10 -1 -10 5 0 7 6 10 14 7 8 -3 16 2 19
14 6 23 -6 25 -27 3z"/>
<path fill="#000000" stroke="none" d="M83 245 c-3 -9 1 -23 8 -32 12 -14 12
-16 -1 -11 -11 4 -16 -1 -18 -20 -1 -14 -7 -31 -13 -38 -9 -10 -9 -14 0 -14 6
0 11 6 11 13 0 6 10 1 21 -13 11 -14 18 -19 14 -12 -4 8 1 12 15 12 32 0 60
-18 60 -39 0 -27 27 -48 43 -32 9 10 8 11 -5 6 -24 -9 -35 21 -18 49 12 19 12
20 -3 7 -15 -12 -16 -11 -11 16 5 25 1 34 -21 52 -15 11 -23 21 -16 21 6 0 11
4 11 8 0 5 -13 7 -30 4 -23 -3 -30 0 -30 12 0 11 9 16 30 16 26 0 31 -5 36
-30 8 -39 41 -60 71 -45 28 14 20 25 -14 19 -14 -3 -22 -1 -19 5 3 5 0 11 -6
14 -7 2 -9 8 -5 13 4 5 11 4 15 -2 10 -15 40 -13 46 3 8 20 -22 29 -97 31 -52
1 -69 -2 -74 -13z"/>
<path fill="#ffffff" stroke="none" d="M113 149 c-17 -17 -37 -1 -22 17 8 10
15 12 23 4 7 -7 7 -13 -1 -21z"/>
<path fill="#ffffff" stroke="none" d="M175 161 c3 -5 1 -13 -5 -16 -15 -9
-43 3 -35 15 8 13 32 13 40 1z"/>
<path fill="#000000" stroke="none" d="M230 130 c0 -5 5 -10 11 -10 5 0 7 5 4
10 -3 6 -8 10 -11 10 -2 0 -4 -4 -4 -10z"/>
<path fill="#000000" stroke="none" d="M110 81 c0 -8 -7 -11 -17 -6 -15 5 -16
4 -5 -6 9 -10 15 -10 24 -1 6 6 9 15 5 19 -4 3 -7 1 -7 -6z"/>
</g>
</svg>
