<?xml version="1.0" standalone="no"?>
<!DOCTYPE svg PUBLIC "-//W3C//DTD SVG 20010904//EN"
 "http://www.w3.org/TR/2001/REC-SVG-20010904/DTD/svg10.dtd">
<svg version="1.0" xmlns="http://www.w3.org/2000/svg"
 width="32.000000pt" height="32.000000pt" viewBox="0 0 32.000000 32.000000"
 preserveAspectRatio="xMidYMid meet">
<metadata>
Created by potrace 1.16, written by Peter Selinger 2001-2019
</metadata>
<g transform="translate(0.000000,32.000000) scale(0.100000,-0.100000)"
fill="#000000" stroke="none">
<path fill="#000000" stroke="none" d="M0 160 l0 -160 160 0 160 0 0 160 0
160 -160 0 -160 0 0 -160z"/>
<path fill="#ffffff" stroke="none" d="M133 269 c4 -16 3 -18 -9 -8 -7 6 -11
15 -8 20 8 13 11 11 17 -12z"/>
<path fill="#ffffff" stroke="none" d="M186 258 c-1 -14 -11 -28 -26 -35 l-25
-11 25 -11 c15 -6 19 -10 9 -10 -9 -1 -22 5 -28 13 -10 12 -8 17 8 26 12 6 20
14 20 18 -3 17 2 32 10 32 4 0 8 -10 7 -22z"/>
<path fill="#ffffff" stroke="none" d="M75 210 c3 -6 -1 -7 -9 -4 -11 4 -16 0
-16 -12 0 -9 -3 -15 -6 -11 -9 8 3 37 15 37 5 0 13 -4 16 -10z"/>
<path fill="#ffffff" stroke="none" d="M250 205 c9 -10 9 -15 1 -15 -6 0 -11
-10 -11 -22 -1 -21 -2 -21 -11 -5 -8 13 -7 22 1 32 8 10 8 14 -2 18 -8 3 -8 6
-2 6 6 1 17 -6 24 -14z"/>
<path fill="#ffffff" stroke="none" d="M155 172 c-3 -3 -11 0 -18 7 -9 10 -8
11 6 5 10 -3 15 -9 12 -12z"/>
<path fill="#ffffff" stroke="none" d="M130 145 c-7 -8 -17 -12 -22 -9 -6 4
-5 10 3 15 22 14 33 10 19 -6z"/>
<path fill="#ffffff" stroke="none" d="M135 120 c-3 -5 -14 -10 -23 -9 -14 0
-13 2 3 9 27 11 27 11 20 0z"/>
<path fill="#ffffff" stroke="none" d="M208 85 c0 -32 -41 -65 -77 -64 -24 1
-23 2 6 9 35 8 63 27 63 42 0 5 -12 0 -26 -11 -15 -12 -32 -21 -38 -21 -6 1 0
7 14 15 14 7 32 23 40 34 18 26 18 26 18 -4z"/>
<path fill="#ffffff" stroke="none" d="M127 84 c-3 -3 -12 -4 -19 -1 -8 3 -5
6 6 6 11 1 17 -2 13 -5z"/>
</g>
</svg>
