<?xml version="1.0" standalone="no"?>
<!DOCTYPE svg PUBLIC "-//W3C//DTD SVG 20010904//EN"
 "http://www.w3.org/TR/2001/REC-SVG-20010904/DTD/svg10.dtd">
<svg version="1.0" xmlns="http://www.w3.org/2000/svg"
 width="32.000000pt" height="32.000000pt" viewBox="0 0 32.000000 32.000000"
 preserveAspectRatio="xMidYMid meet">
<metadata>
Created by potrace 1.16, written by Peter Selinger 2001-2019
</metadata>
<g transform="translate(0.000000,32.000000) scale(0.100000,-0.100000)"
fill="#000000" stroke="none">
<path fill="#000000" stroke="none" d="M0 160 l0 -160 160 0 160 0 0 160 0
160 -160 0 -160 0 0 -160z"/>
<path fill="#ffffff" stroke="none" d="M233 215 c-3 -9 -8 -14 -10 -11 -3 3
-2 9 2 15 9 16 15 13 8 -4z"/>
<path fill="#ffffff" stroke="none" d="M177 195 c2 -15 1 -16 -5 -5 -10 21
-32 23 -32 3 0 -9 -3 -14 -6 -10 -4 3 -4 13 0 22 8 22 40 15 43 -10z"/>
<path fill="#ffffff" stroke="none" d="M27 163 c-3 -10 -5 -4 -5 12 0 17 2 24
5 18 2 -7 2 -21 0 -30z"/>
<path fill="#ffffff" stroke="none" d="M290 175 c0 -30 -41 -75 -67 -75 -16 1
-16 2 2 13 11 6 24 12 28 12 12 0 27 28 27 53 0 12 2 22 5 22 3 0 5 -11 5 -25z"/>
<path fill="#ffffff" stroke="none" d="M175 150 c3 -6 -1 -7 -9 -4 -11 4 -16
0 -16 -12 0 -9 -3 -15 -6 -11 -9 8 3 37 15 37 5 0 13 -4 16 -10z"/>
<path fill="#ffffff" stroke="none" d="M157 95 c12 1 20 -2 17 -7 -3 -5 -13
-7 -21 -4 -8 4 -11 1 -7 -5 3 -6 16 -8 28 -5 20 5 20 4 2 -9 -17 -13 -21 -12
-36 5 -9 11 -29 24 -43 29 -15 6 -27 15 -27 20 0 6 15 2 33 -8 17 -10 42 -17
54 -16z"/>
<path fill="#ffffff" stroke="none" d="M116 53 c-6 -6 -36 9 -36 18 0 5 9 4
20 -3 10 -7 18 -14 16 -15z"/>
</g>
</svg>
