<?xml version="1.0" standalone="no"?>
<!DOCTYPE svg PUBLIC "-//W3C//DTD SVG 20010904//EN"
 "http://www.w3.org/TR/2001/REC-SVG-20010904/DTD/svg10.dtd">
<svg version="1.0" xmlns="http://www.w3.org/2000/svg"
 width="32.000000pt" height="32.000000pt" viewBox="0 0 32.000000 32.000000"
 preserveAspectRatio="xMidYMid meet">
<metadata>
Created by potrace 1.16, written by Peter Selinger 2001-2019
</metadata>
<g transform="translate(0.000000,32.000000) scale(0.100000,-0.100000)"
fill="#000000" stroke="none">
<path fill="#000000" stroke="none" d="M0 219 c0 -88 2 -100 16 -95 9 3 20 6
25 6 5 0 8 5 7 11 -2 6 8 17 22 26 24 14 24 14 5 -1 -11 -9 -20 -22 -20 -27 0
-6 -13 -17 -30 -24 -27 -11 -28 -13 -11 -21 13 -5 37 2 75 22 53 27 56 31 59
69 4 65 11 82 33 88 20 5 20 5 4 -13 -12 -14 -16 -36 -16 -92 2 -86 -3 -146
-13 -155 -3 -3 -6 2 -6 12 0 15 -6 17 -37 11 -21 -3 -55 -6 -75 -6 -27 0 -38
-4 -38 -15 0 -13 24 -15 160 -15 138 0 160 2 160 16 0 15 -30 15 -121 -2 -20
-4 -26 -1 -26 13 0 25 15 41 58 64 44 22 72 26 45 6 -17 -12 -17 -14 -2 -20
36 -14 41 0 44 123 l3 120 -160 0 -161 0 0 -101z"/>
<path fill="#ffffff" stroke="none" d="M239 284 c17 -12 21 -22 16 -41 -3 -14
0 -32 7 -41 9 -13 7 -12 -9 2 -18 15 -20 21 -10 38 10 16 9 22 -7 34 -26 19
-91 18 -110 -2 -20 -19 -20 -25 -1 -18 17 7 18 -1 5 -31 -7 -17 -9 -17 -9 -2
-1 9 -5 17 -11 17 -16 0 -12 18 10 40 25 25 86 27 119 4z"/>
<path fill="#ffffff" stroke="none" d="M200 234 c0 -8 -5 -12 -10 -9 -6 4 -8
11 -5 16 9 14 15 11 15 -7z"/>
<path fill="#ffffff" stroke="none" d="M295 160 c10 -11 16 -20 13 -20 -3 0
-13 9 -23 20 -10 11 -16 20 -13 20 3 0 13 -9 23 -20z"/>
<path fill="#ffffff" stroke="none" d="M305 90 c-3 -5 -12 -10 -18 -10 -7 0
-6 4 3 10 19 12 23 12 15 0z"/>
<path fill="#000000" stroke="none" d="M140 122 c0 -12 19 -26 26 -19 2 2 -2
10 -11 17 -9 8 -15 8 -15 2z"/>
<path fill="#000000" stroke="none" d="M55 89 c-22 -10 -32 -19 -23 -19 10 0
32 9 50 20 41 25 26 25 -27 -1z"/>
<path fill="#000000" stroke="none" d="M90 80 c-18 -12 -2 -12 25 0 13 6 15 9
5 9 -8 0 -22 -4 -30 -9z"/>
</g>
</svg>
