<?xml version="1.0" standalone="no"?>
<!DOCTYPE svg PUBLIC "-//W3C//DTD SVG 20010904//EN"
 "http://www.w3.org/TR/2001/REC-SVG-20010904/DTD/svg10.dtd">
<svg version="1.0" xmlns="http://www.w3.org/2000/svg"
 width="32.000000pt" height="32.000000pt" viewBox="0 0 32.000000 32.000000"
 preserveAspectRatio="xMidYMid meet">
<metadata>
Created by potrace 1.16, written by Peter Selinger 2001-2019
</metadata>
<g transform="translate(0.000000,32.000000) scale(0.100000,-0.100000)"
fill="#000000" stroke="none">
<path fill="#000000" stroke="none" d="M0 160 l0 -160 160 0 c153 0 160 1 160
20 0 19 -20 26 -60 21 -8 -1 -60 -3 -116 -5 l-100 -4 -2 104 c-2 99 -2 104 18
104 12 0 34 6 49 14 15 8 50 17 77 20 27 3 58 8 70 11 19 6 20 2 22 -86 2 -87
9 -108 35 -109 4 0 7 52 7 115 l0 115 -160 0 -160 0 0 -160z"/>
<path fill="#000000" stroke="none" d="M226 263 c-18 -10 -26 -11 -21 -3 5 8
3 11 -6 8 -29 -10 -22 -49 16 -88 30 -30 37 -44 33 -65 -5 -24 -4 -25 9 -12
14 13 14 19 0 46 -9 17 -12 29 -7 26 15 -9 21 14 10 35 -9 17 -14 19 -26 10
-7 -7 -11 -17 -7 -24 4 -6 -1 -5 -10 3 -17 13 -17 15 0 33 9 10 23 16 30 14
15 -6 29 13 17 24 -5 5 -22 2 -38 -7z"/>
<path fill="#000000" stroke="none" d="M124 248 c-12 -5 -27 -21 -33 -34 -10
-23 -9 -24 9 -14 11 6 25 8 30 5 5 -3 7 0 4 8 -3 9 4 22 18 31 25 18 6 21 -28
4z"/>
<path fill="#000000" stroke="none" d="M219 223 c-13 -16 -12 -17 4 -4 9 7 17
15 17 17 0 8 -8 3 -21 -13z"/>
<path fill="#000000" stroke="none" d="M62 218 c-17 -17 -15 -89 3 -116 13
-17 13 -26 5 -43 -10 -19 -10 -20 9 -10 11 6 26 8 34 5 8 -3 18 -1 22 5 3 6 0
9 -8 5 -10 -4 -15 1 -14 13 1 12 -5 18 -18 18 -13 0 -19 7 -19 18 1 10 -3 14
-10 10 -6 -3 -6 -1 1 7 11 12 18 9 43 -15 16 -16 30 -24 30 -19 0 6 -16 26
-36 45 -28 27 -34 39 -30 62 6 30 5 32 -12 15z"/>
<path fill="#000000" stroke="none" d="M183 92 c-34 -16 -43 -32 -19 -32 16 0
63 36 56 43 -3 3 -20 -2 -37 -11z"/>
</g>
</svg>
