<?xml version="1.0" standalone="no"?>
<!DOCTYPE svg PUBLIC "-//W3C//DTD SVG 20010904//EN"
 "http://www.w3.org/TR/2001/REC-SVG-20010904/DTD/svg10.dtd">
<svg version="1.0" xmlns="http://www.w3.org/2000/svg"
 width="32.000000pt" height="32.000000pt" viewBox="0 0 32.000000 32.000000"
 preserveAspectRatio="xMidYMid meet">
<metadata>
Created by potrace 1.16, written by Peter Selinger 2001-2019
</metadata>
<g transform="translate(0.000000,32.000000) scale(0.100000,-0.100000)"
fill="#000000" stroke="none">
<path fill="#000000" stroke="none" d="M0 160 l0 -160 160 0 160 0 0 160 0
160 -160 0 -160 0 0 -160z"/>
<path fill="#ffffff" stroke="none" d="M133 270 c3 -11 10 -20 17 -20 7 0 14
9 17 20 8 31 30 24 57 -18 13 -20 31 -43 40 -51 9 -7 16 -19 16 -26 0 -27 -60
-133 -85 -149 -39 -26 -85 -17 -106 19 -19 32 -25 90 -10 99 12 8 -2 59 -17
64 -19 6 -14 -36 6 -48 16 -11 16 -11 -1 -6 -10 3 -21 6 -23 6 -2 0 -4 9 -4
20 0 30 58 109 81 110 4 0 9 -9 12 -20z"/>
<path fill="#000000" stroke="none" d="M247 183 c-4 -3 -7 -17 -7 -30 0 -22 2
-23 15 -9 8 8 15 22 15 30 0 17 -12 21 -23 9z"/>
</g>
</svg>
