<?xml version="1.0" standalone="no"?>
<!DOCTYPE svg PUBLIC "-//W3C//DTD SVG 20010904//EN"
 "http://www.w3.org/TR/2001/REC-SVG-20010904/DTD/svg10.dtd">
<svg version="1.0" xmlns="http://www.w3.org/2000/svg"
 width="32.000000pt" height="32.000000pt" viewBox="0 0 32.000000 32.000000"
 preserveAspectRatio="xMidYMid meet">
<metadata>
Created by potrace 1.16, written by Peter Selinger 2001-2019
</metadata>
<g transform="translate(0.000000,32.000000) scale(0.100000,-0.100000)"
fill="#000000" stroke="none">
<path fill="#000000" stroke="none" d="M112 285 c10 -22 7 -29 -36 -75 -34
-36 -46 -56 -41 -68 4 -9 10 -26 13 -37 2 -11 9 -25 14 -32 7 -8 3 -10 -11 -6
-31 8 -27 -21 4 -35 37 -17 75 -15 75 3 0 10 10 15 30 15 20 0 30 -5 30 -15 0
-18 38 -20 75 -3 27 12 34 38 11 38 -14 0 -12 22 9 72 5 12 -7 32 -41 68 -43
46 -46 53 -36 75 13 28 3 32 -28 13 -16 -10 -24 -10 -40 0 -31 19 -41 15 -28
-13z"/>
<path fill="#ffffff" stroke="none" d="M160 275 c8 0 20 7 27 15 14 17 17 2 4
-19 -6 -9 3 -24 31 -49 21 -19 43 -43 48 -52 13 -23 -11 -86 -45 -118 l-28
-27 8 25 c13 41 10 85 -9 134 -10 26 -20 45 -22 43 -2 -2 3 -20 11 -40 8 -20
15 -38 15 -39 0 -2 -18 -3 -40 -3 -22 0 -40 1 -40 3 0 1 7 19 15 39 8 20 13
38 11 40 -2 2 -12 -17 -22 -43 -19 -49 -22 -93 -9 -134 l8 -25 -28 27 c-34 32
-58 95 -45 118 5 9 27 33 48 52 28 25 37 40 31 49 -13 21 -10 36 4 19 7 -8 19
-15 27 -15z"/>
<path fill="#ffffff" stroke="none" d="M198 128 c22 -22 13 -28 -38 -28 -27 0
-50 4 -50 8 0 16 25 32 50 32 14 0 31 -5 38 -12z"/>
</g>
</svg>
