<?xml version="1.0" standalone="no"?>
<!DOCTYPE svg PUBLIC "-//W3C//DTD SVG 20010904//EN"
 "http://www.w3.org/TR/2001/REC-SVG-20010904/DTD/svg10.dtd">
<svg version="1.0" xmlns="http://www.w3.org/2000/svg"
 width="32.000000pt" height="32.000000pt" viewBox="0 0 32.000000 32.000000"
 preserveAspectRatio="xMidYMid meet">
<metadata>
Created by potrace 1.16, written by Peter Selinger 2001-2019
</metadata>
<g transform="translate(0.000000,32.000000) scale(0.100000,-0.100000)"
fill="#000000" stroke="none">
<path fill="#000000" stroke="none" d="M151 291 c-8 -5 -9 -11 -3 -15 6 -3 8
-16 6 -29 -4 -19 -3 -20 4 -3 8 19 9 18 25 -5 12 -17 17 -19 17 -7 0 9 -7 19
-16 22 -8 3 -12 11 -8 17 4 8 3 9 -4 5 -7 -4 -12 -3 -12 3 0 5 6 12 13 14 6 3
8 6 2 6 -5 0 -16 -3 -24 -8z"/>
<path fill="#000000" stroke="none" d="M223 288 c4 -10 2 -20 -3 -23 -6 -4
-10 2 -10 11 0 14 -3 15 -12 6 -10 -10 -10 -15 2 -22 8 -5 15 -18 15 -29 0
-30 18 -30 29 0 7 20 5 32 -9 50 -10 14 -15 17 -12 7z"/>
<path fill="#ffffff" stroke="none" d="M234 236 c-3 -15 -8 -25 -11 -23 -2 3
-1 17 3 31 3 15 8 25 11 23 2 -3 1 -17 -3 -31z"/>
<path fill="#000000" stroke="none" d="M120 259 c0 -5 5 -7 10 -4 6 3 10 8 10
11 0 2 -4 4 -10 4 -5 0 -10 -5 -10 -11z"/>
<path fill="#000000" stroke="none" d="M113 221 c0 -11 5 -18 9 -15 4 3 5 11
1 19 -7 21 -12 19 -10 -4z"/>
<path fill="#000000" stroke="none" d="M155 214 c-22 -22 -19 -39 13 -60 20
-13 24 -14 14 -2 -10 12 -10 18 2 28 9 6 20 9 26 5 18 -11 11 1 -15 23 -22 19
-26 20 -40 6z"/>
<path fill="#000000" stroke="none" d="M57 164 c-27 -25 -35 -39 -28 -45 6 -5
9 -7 7 -4 -6 9 58 71 68 66 5 -2 6 1 2 7 -9 15 -5 17 -49 -24z"/>
<path fill="#000000" stroke="none" d="M87 125 l-37 -43 36 -31 c19 -17 40
-31 47 -31 7 1 -1 8 -16 16 -24 13 -26 18 -15 27 8 7 22 25 32 40 11 17 23 26
32 23 21 -8 17 -2 -15 21 l-28 21 -36 -43z"/>
</g>
</svg>
