<?xml version="1.0" standalone="no"?>
<!DOCTYPE svg PUBLIC "-//W3C//DTD SVG 20010904//EN"
 "http://www.w3.org/TR/2001/REC-SVG-20010904/DTD/svg10.dtd">
<svg version="1.0" xmlns="http://www.w3.org/2000/svg"
 width="32.000000pt" height="32.000000pt" viewBox="0 0 32.000000 32.000000"
 preserveAspectRatio="xMidYMid meet">
<metadata>
Created by potrace 1.16, written by Peter Selinger 2001-2019
</metadata>
<g transform="translate(0.000000,32.000000) scale(0.100000,-0.100000)"
fill="#000000" stroke="none">
<path fill="#000000" stroke="none" d="M67 232 c-9 -10 -17 -23 -17 -28 0 -5
-9 -15 -20 -22 -20 -12 -28 -56 -11 -66 4 -3 6 -17 3 -31 -5 -31 22 -65 48
-60 10 2 23 -2 29 -9 11 -12 170 -21 204 -10 28 9 19 25 -10 19 l-28 -6 28 16
c31 18 27 35 -9 35 -24 0 -32 14 -14 25 6 3 10 13 10 22 0 22 -103 122 -126
121 -10 0 -30 2 -44 6 -19 5 -31 2 -43 -12z"/>
<path fill="#ffffff" stroke="none" d="M97 216 c-4 -11 -1 -13 10 -9 11 5 14
3 9 -6 -5 -7 -17 -11 -27 -8 -11 3 -19 1 -19 -3 0 -16 20 -21 41 -10 14 8 24
9 31 2 6 -6 17 -8 26 -5 10 4 13 2 8 -5 -4 -8 -2 -10 8 -6 8 3 19 -3 25 -14 9
-17 5 -20 -33 -29 -23 -5 -51 -6 -62 -3 -12 5 -23 1 -31 -9 -9 -12 -15 -13
-23 -5 -9 9 -6 17 11 33 13 11 19 21 15 21 -12 0 -50 -22 -59 -34 -4 -6 -6 2
-5 19 2 22 8 29 21 27 12 -2 17 4 17 21 0 27 7 37 28 37 8 0 12 -6 9 -14z"/>
<path fill="#ffffff" stroke="none" d="M190 209 c0 -5 1 -12 3 -16 4 -12 -43
-10 -54 3 -7 9 -5 15 7 22 19 11 44 5 44 -9z"/>
<path fill="#ffffff" stroke="none" d="M258 148 c7 -7 12 -20 12 -30 0 -16 -2
-16 -25 4 -14 12 -25 25 -25 30 0 12 24 10 38 -4z"/>
<path fill="#ffffff" stroke="none" d="M190 94 c-11 -12 -11 -15 1 -12 8 2 13
-2 12 -8 -2 -14 30 -14 39 0 5 6 8 2 8 -11 0 -34 -40 -55 -96 -50 -43 3 -48 6
-51 31 -3 20 0 26 8 20 7 -4 9 -3 6 3 -9 15 12 30 48 36 17 2 32 5 34 6 2 0
-2 -6 -9 -15z"/>
<path fill="#ffffff" stroke="none" d="M60 89 c0 -5 -4 -8 -9 -5 -4 3 -6 -7
-3 -22 l5 -27 9 28 c6 15 14 27 19 27 11 0 12 -31 1 -45 -19 -27 -61 6 -49 39
7 18 27 22 27 5z"/>
</g>
</svg>
