<?xml version="1.0" standalone="no"?>
<!DOCTYPE svg PUBLIC "-//W3C//DTD SVG 20010904//EN"
 "http://www.w3.org/TR/2001/REC-SVG-20010904/DTD/svg10.dtd">
<svg version="1.0" xmlns="http://www.w3.org/2000/svg"
 width="32.000000pt" height="32.000000pt" viewBox="0 0 32.000000 32.000000"
 preserveAspectRatio="xMidYMid meet">
<metadata>
Created by potrace 1.16, written by Peter Selinger 2001-2019
</metadata>
<g transform="translate(0.000000,32.000000) scale(0.100000,-0.100000)"
fill="#000000" stroke="none">
<path fill="#000000" stroke="none" d="M79 253 c-13 -16 -12 -17 4 -4 23 18
32 9 17 -18 -6 -12 -8 -26 -4 -33 4 -6 7 -23 6 -39 0 -15 5 -33 12 -38 8 -7
11 -22 8 -39 l-6 -27 -7 25 c-6 22 -7 23 -8 4 -1 -12 6 -27 14 -34 13 -11 15
-8 15 19 0 24 6 34 23 40 45 17 63 69 23 66 -22 -2 -41 12 -49 36 -2 8 -3 2
-1 -13 4 -33 -11 -38 -19 -7 -9 34 3 49 39 50 46 2 51 3 60 12 12 12 27 8 21
-6 -3 -8 1 -14 8 -14 10 0 11 5 4 19 -9 17 -40 20 -55 5 -11 -11 -62 -8 -69 3
-9 15 -21 12 -36 -7z"/>
<path fill="#ffffff" stroke="none" d="M124 145 c-4 -8 -8 -15 -10 -15 -2 0
-4 7 -4 15 0 8 4 15 10 15 5 0 7 -7 4 -15z"/>
<path fill="#ffffff" stroke="none" d="M188 148 c-6 -18 -52 -40 -56 -27 -2 5
-1 16 2 24 7 18 60 21 54 3z"/>
<path fill="#000000" stroke="none" d="M180 216 c0 -3 9 -10 19 -15 14 -8 22
-7 32 7 11 14 11 15 -1 5 -9 -8 -19 -9 -32 -2 -10 5 -18 7 -18 5z"/>
<path fill="#000000" stroke="none" d="M250 181 c0 -8 -6 -11 -17 -7 -10 4
-14 4 -10 0 4 -4 2 -13 -4 -20 -13 -16 -4 -64 12 -64 6 0 8 4 5 9 -4 5 0 11 6
14 10 3 10 9 2 23 -9 15 -8 21 5 31 9 6 13 15 8 19 -4 4 -7 2 -7 -5z"/>
<path fill="#ffffff" stroke="none" d="M233 119 c-9 -9 -12 -7 -10 9 1 14 5
18 11 12 7 -7 6 -14 -1 -21z"/>
<path fill="#000000" stroke="none" d="M60 131 c0 -11 4 -22 9 -25 4 -3 6 6 3
19 -5 30 -12 33 -12 6z"/>
<path fill="#000000" stroke="none" d="M176 94 c-9 -23 -7 -64 2 -64 14 0 32
23 31 40 0 8 -5 4 -11 -10 l-11 -25 -5 23 c-2 13 2 30 8 38 8 8 8 14 2 14 -5
0 -13 -7 -16 -16z"/>
</g>
</svg>
