<?xml version="1.0" standalone="no"?>
<!DOCTYPE svg PUBLIC "-//W3C//DTD SVG 20010904//EN"
 "http://www.w3.org/TR/2001/REC-SVG-20010904/DTD/svg10.dtd">
<svg version="1.0" xmlns="http://www.w3.org/2000/svg"
 width="32.000000pt" height="32.000000pt" viewBox="0 0 32.000000 32.000000"
 preserveAspectRatio="xMidYMid meet">
<metadata>
Created by potrace 1.16, written by Peter Selinger 2001-2019
</metadata>
<g transform="translate(0.000000,32.000000) scale(0.100000,-0.100000)"
fill="#000000" stroke="none">
<path fill="#000000" stroke="none" d="M0 160 l0 -160 160 0 160 0 0 160 0
160 -160 0 -160 0 0 -160z"/>
<path fill="#ffffff" stroke="none" d="M140 280 c0 -6 -11 -15 -25 -20 -14 -5
-25 -11 -25 -13 0 -2 32 -4 70 -4 39 0 70 2 70 4 0 2 -12 8 -26 13 -14 6 -22
14 -19 20 11 18 41 10 68 -18 24 -24 26 -33 18 -55 -5 -14 -19 -28 -31 -32
-16 -5 -20 -12 -16 -29 3 -13 -1 -31 -10 -42 -14 -18 -15 -18 -5 3 14 27 14
36 1 28 -19 -12 3 30 28 53 23 20 23 22 6 23 -16 0 -15 2 5 10 23 9 23 10 6
29 -10 11 -23 20 -29 20 -6 0 -5 -5 2 -12 22 -22 13 -25 -68 -25 -81 0 -90 3
-68 25 16 16 -1 15 -22 0 -9 -7 -5 -3 8 10 24 23 62 30 62 12z"/>
<path fill="#ffffff" stroke="none" d="M90 214 c0 -2 -9 -4 -20 -4 -11 0 -20
4 -20 9 0 5 9 7 20 4 11 -3 20 -7 20 -9z"/>
<path fill="#ffffff" stroke="none" d="M89 183 c20 -20 37 -58 21 -48 -13 8
-13 -1 1 -27 7 -12 7 -18 1 -14 -6 3 -12 0 -15 -6 -3 -7 -3 8 -1 34 3 40 1 48
-16 53 -11 4 -20 11 -20 16 0 14 9 11 29 -8z"/>
<path fill="#ffffff" stroke="none" d="M290 86 c9 -12 4 -18 -28 -35 -60 -30
-153 -23 -152 13 0 6 5 3 11 -7 8 -14 14 -16 25 -6 10 8 18 8 27 0 10 -8 19
-4 36 19 24 33 61 40 81 16z"/>
<path fill="#000000" stroke="none" d="M108 273 c7 -3 16 -2 19 1 4 3 -2 6
-13 5 -11 0 -14 -3 -6 -6z"/>
<path fill="#000000" stroke="none" d="M198 273 c7 -3 16 -2 19 1 4 3 -2 6
-13 5 -11 0 -14 -3 -6 -6z"/>
</g>
</svg>
