<?xml version="1.0" standalone="no"?>
<!DOCTYPE svg PUBLIC "-//W3C//DTD SVG 20010904//EN"
 "http://www.w3.org/TR/2001/REC-SVG-20010904/DTD/svg10.dtd">
<svg version="1.0" xmlns="http://www.w3.org/2000/svg"
 width="32.000000pt" height="32.000000pt" viewBox="0 0 32.000000 32.000000"
 preserveAspectRatio="xMidYMid meet">
<metadata>
Created by potrace 1.16, written by Peter Selinger 2001-2019
</metadata>
<g transform="translate(0.000000,32.000000) scale(0.100000,-0.100000)"
fill="#000000" stroke="none">
<path fill="#000000" stroke="none" d="M0 160 l0 -160 160 0 c88 0 160 3 160
8 0 4 -58 6 -130 4 -76 -2 -138 1 -149 7 -14 8 -21 8 -24 -2 -2 -6 -4 9 -4 35
-1 29 4 52 13 59 10 8 14 34 14 84 0 72 0 73 30 78 16 4 37 4 45 1 10 -4 15 0
15 10 0 26 30 19 40 -10 13 -32 12 -43 0 -24 -9 13 -11 13 -20 0 -8 -11 -9 -7
-5 15 6 27 5 28 -6 10 -18 -30 -19 -31 -30 -15 -8 13 -11 12 -20 -3 -8 -14
-14 -16 -25 -6 -12 10 -14 5 -14 -27 1 -36 2 -37 13 -17 9 16 16 20 27 13 9
-6 17 -5 22 3 5 8 14 -4 24 -30 9 -24 20 -43 24 -43 4 0 15 19 24 43 10 26 19
38 24 30 5 -8 13 -9 22 -3 11 7 18 3 27 -13 11 -20 12 -19 13 17 0 32 -2 37
-14 27 -11 -10 -17 -8 -26 6 -8 13 -13 14 -16 6 -9 -20 -20 -15 -32 12 -10 21
-9 25 3 25 8 0 15 -6 15 -13 0 -8 8 -14 18 -14 68 1 68 1 68 -58 0 -30 -4 -55
-8 -55 -4 0 -8 5 -8 12 0 6 -3 9 -6 5 -8 -8 16 -80 30 -89 23 -16 26 -4 26
112 l0 120 -160 0 -160 0 0 -160z"/>
<path fill="#ffffff" stroke="none" d="M170 200 c0 -5 -4 -10 -10 -10 -5 0
-10 5 -10 10 0 6 5 10 10 10 6 0 10 -4 10 -10z"/>
<path fill="#000000" stroke="none" d="M62 177 c-7 -18 -12 -46 -12 -61 0 -14
-7 -29 -15 -32 -8 -4 -15 -10 -15 -16 0 -5 4 -7 9 -4 5 4 7 -3 4 -14 -8 -30
36 -36 79 -10 31 18 37 19 48 5 21 -25 38 -17 51 23 6 20 18 46 25 57 8 11 14
35 14 53 0 32 -2 34 -27 27 -16 -4 -28 -7 -28 -8 -8 -25 -27 -57 -35 -57 -8 0
-27 32 -35 57 0 1 -11 4 -25 8 -22 5 -27 2 -38 -28z"/>
<path fill="#000000" stroke="none" d="M232 91 c-9 -25 -7 -30 14 -40 26 -12
30 -1 18 47 -8 30 -20 28 -32 -7z"/>
</g>
</svg>
