<?xml version="1.0" standalone="no"?>
<!DOCTYPE svg PUBLIC "-//W3C//DTD SVG 20010904//EN"
 "http://www.w3.org/TR/2001/REC-SVG-20010904/DTD/svg10.dtd">
<svg version="1.0" xmlns="http://www.w3.org/2000/svg"
 width="32.000000pt" height="32.000000pt" viewBox="0 0 32.000000 32.000000"
 preserveAspectRatio="xMidYMid meet">
<metadata>
Created by potrace 1.16, written by Peter Selinger 2001-2019
</metadata>
<g transform="translate(0.000000,32.000000) scale(0.100000,-0.100000)"
fill="#000000" stroke="none">
<path fill="#000000" stroke="none" d="M76 283 c-24 -21 -45 -43 -45 -49 -1
-6 10 -20 24 -32 14 -12 25 -28 25 -36 0 -8 9 -12 23 -11 12 1 15 0 6 -2 -10
-2 -25 -13 -35 -24 -9 -10 -23 -19 -30 -19 -15 0 -44 -38 -44 -57 0 -9 15 -13
44 -13 40 0 44 -2 38 -22 -5 -21 -3 -21 64 -15 113 9 214 63 155 82 -28 8 -31
65 -8 147 10 38 16 72 13 75 -3 3 -18 -3 -33 -13 -15 -10 -38 -17 -50 -15 -12
1 -30 -2 -40 -8 -14 -8 -11 -9 15 -5 22 5 32 3 32 -6 0 -6 14 0 31 15 17 14
33 24 35 22 2 -1 -4 -27 -12 -57 -9 -30 -15 -80 -15 -111 l1 -55 -49 -32 c-66
-43 -161 -46 -119 -4 7 7 25 12 41 12 18 0 26 4 21 11 -3 6 -15 9 -25 6 -12
-3 -17 -1 -12 6 3 6 -4 3 -18 -6 -24 -17 -99 -24 -99 -9 0 5 6 17 14 28 13 16
18 17 36 6 12 -7 31 -10 43 -6 l21 7 -22 17 -22 18 27 7 c14 3 31 1 36 -4 16
-16 0 -26 -17 -12 -13 11 -13 9 -3 -13 8 -16 16 -21 21 -15 6 5 20 9 33 9 30
0 30 20 1 21 -19 1 -20 2 -4 6 17 5 16 6 -4 16 -33 17 -36 35 -5 30 14 -3 25
-1 25 5 0 6 -17 12 -37 14 -20 2 -38 9 -41 16 -2 7 2 10 11 6 8 -3 35 5 59 17
23 12 37 24 30 26 -7 3 -29 -5 -48 -17 -20 -11 -39 -19 -42 -16 -2 3 7 10 20
17 17 7 24 17 21 29 -6 23 -39 32 -54 14 -6 -8 -17 -14 -23 -14 -6 1 0 9 13
20 12 11 27 17 32 14 5 -3 9 0 9 5 0 19 -18 12 -64 -26z"/>
<path fill="#ffffff" stroke="none" d="M150 271 c0 -5 -13 -20 -29 -34 -17
-14 -28 -27 -25 -30 3 -2 -7 -2 -21 1 -14 2 -28 9 -31 14 -7 11 31 50 39 41 3
-2 14 0 24 6 22 13 43 14 43 2z"/>
<path fill="#ffffff" stroke="none" d="M120 180 c0 -5 -6 -10 -14 -10 -8 0
-18 5 -21 10 -3 6 3 10 14 10 12 0 21 -4 21 -10z"/>
<path fill="#ffffff" stroke="none" d="M94 101 c4 -5 -3 -7 -14 -4 -23 6 -26
13 -6 13 8 0 17 -4 20 -9z"/>
<path fill="#000000" stroke="none" d="M75 245 c-25 -12 -26 -14 -5 -9 28 7
60 23 45 23 -5 0 -23 -6 -40 -14z"/>
</g>
</svg>
