<?xml version="1.0" standalone="no"?>
<!DOCTYPE svg PUBLIC "-//W3C//DTD SVG 20010904//EN"
 "http://www.w3.org/TR/2001/REC-SVG-20010904/DTD/svg10.dtd">
<svg version="1.0" xmlns="http://www.w3.org/2000/svg"
 width="32.000000pt" height="32.000000pt" viewBox="0 0 32.000000 32.000000"
 preserveAspectRatio="xMidYMid meet">
<metadata>
Created by potrace 1.16, written by Peter Selinger 2001-2019
</metadata>
<g transform="translate(0.000000,32.000000) scale(0.100000,-0.100000)"
fill="#000000" stroke="none">
<path fill="#000000" stroke="none" d="M0 160 l0 -160 160 0 160 0 0 160 0
160 -160 0 -160 0 0 -160z"/>
<path fill="#ffffff" stroke="none" d="M178 258 c8 -8 8 -15 1 -24 -8 -9 -5
-11 9 -7 29 7 43 -21 44 -86 0 -18 -6 -37 -14 -42 -7 -5 -9 -9 -4 -9 5 0 3 -7
-4 -15 -7 -8 -16 -12 -21 -9 -14 8 0 25 14 18 7 -4 8 -3 4 2 -5 5 -13 9 -18 9
-5 0 -9 3 -9 8 0 4 0 11 0 17 0 5 8 7 18 4 10 -4 13 -3 6 3 -7 4 -14 17 -17
28 -4 19 -5 19 -6 -1 0 -12 -8 -27 -16 -34 -12 -10 -13 -15 -4 -21 7 -4 13
-18 15 -32 7 -64 -87 -24 -108 45 -25 86 58 198 110 146z"/>
<path fill="#000000" stroke="none" d="M141 207 c2 -1 13 -9 24 -17 19 -14 19
-14 6 3 -7 9 -18 17 -24 17 -6 0 -8 -1 -6 -3z"/>
<path fill="#000000" stroke="none" d="M198 183 c7 -3 16 -2 19 1 4 3 -2 6
-13 5 -11 0 -14 -3 -6 -6z"/>
<path fill="#000000" stroke="none" d="M110 150 c0 -19 -3 -25 -19 -38 -14
-11 -13 -12 5 -3 12 6 24 8 28 6 3 -3 2 0 -3 6 -5 6 -7 18 -4 25 3 8 2 14 -1
14 -3 0 -6 -4 -6 -10z"/>
</g>
</svg>
