<?xml version="1.0" standalone="no"?>
<!DOCTYPE svg PUBLIC "-//W3C//DTD SVG 20010904//EN"
 "http://www.w3.org/TR/2001/REC-SVG-20010904/DTD/svg10.dtd">
<svg version="1.0" xmlns="http://www.w3.org/2000/svg"
 width="32.000000pt" height="32.000000pt" viewBox="0 0 32.000000 32.000000"
 preserveAspectRatio="xMidYMid meet">
<metadata>
Created by potrace 1.16, written by Peter Selinger 2001-2019
</metadata>
<g transform="translate(0.000000,32.000000) scale(0.100000,-0.100000)"
fill="#000000" stroke="none">
<path fill="#000000" stroke="none" d="M0 160 l0 -160 160 0 160 0 0 160 0
160 -160 0 -160 0 0 -160z"/>
<path fill="#ffffff" stroke="none" d="M177 234 c10 -21 10 -25 -2 -20 -18 6
-31 -12 -18 -25 7 -7 20 1 37 22 l27 31 19 -22 c11 -13 20 -31 20 -41 0 -25
-44 -74 -80 -89 -21 -9 -29 -18 -25 -28 6 -15 -15 -13 -71 8 l-27 11 24 27
c18 20 19 22 3 9 -26 -22 -31 -21 -44 3 -8 16 -6 24 10 40 16 16 20 28 15 51
-7 33 1 38 21 12 8 -11 13 -13 14 -6 0 10 44 42 60 43 3 0 10 -12 17 -26z"/>
<path fill="#000000" stroke="none" d="M130 225 c-15 -18 -31 -87 -19 -79 5 3
9 16 9 30 0 13 9 33 20 44 11 11 16 20 11 20 -5 0 -14 -7 -21 -15z"/>
</g>
</svg>
