<?xml version="1.0" standalone="no"?>
<!DOCTYPE svg PUBLIC "-//W3C//DTD SVG 20010904//EN"
 "http://www.w3.org/TR/2001/REC-SVG-20010904/DTD/svg10.dtd">
<svg version="1.0" xmlns="http://www.w3.org/2000/svg"
 width="32.000000pt" height="32.000000pt" viewBox="0 0 32.000000 32.000000"
 preserveAspectRatio="xMidYMid meet">
<metadata>
Created by potrace 1.16, written by Peter Selinger 2001-2019
</metadata>
<g transform="translate(0.000000,32.000000) scale(0.100000,-0.100000)"
fill="#000000" stroke="none">
<path fill="#000000" stroke="none" d="M153 293 c9 -2 23 -2 30 0 6 3 -1 5
-18 5 -16 0 -22 -2 -12 -5z"/>
<path fill="#000000" stroke="none" d="M108 283 c7 -3 16 -2 19 1 4 3 -2 6
-13 5 -11 0 -14 -3 -6 -6z"/>
<path fill="#000000" stroke="none" d="M201 287 c2 -1 13 -9 24 -17 19 -14 19
-14 6 3 -7 9 -18 17 -24 17 -6 0 -8 -1 -6 -3z"/>
<path fill="#000000" stroke="none" d="M143 23 c9 -2 23 -2 30 0 6 3 -1 5 -18
5 -16 0 -22 -2 -12 -5z"/>
</g>
</svg>
