<?xml version="1.0" standalone="no"?>
<!DOCTYPE svg PUBLIC "-//W3C//DTD SVG 20010904//EN"
 "http://www.w3.org/TR/2001/REC-SVG-20010904/DTD/svg10.dtd">
<svg version="1.0" xmlns="http://www.w3.org/2000/svg"
 width="32.000000pt" height="32.000000pt" viewBox="0 0 32.000000 32.000000"
 preserveAspectRatio="xMidYMid meet">
<metadata>
Created by potrace 1.16, written by Peter Selinger 2001-2019
</metadata>
<g transform="translate(0.000000,32.000000) scale(0.100000,-0.100000)"
fill="#000000" stroke="none">
<path fill="#000000" stroke="none" d="M0 230 c0 -50 3 -90 6 -90 4 0 22 14
41 30 19 17 39 27 45 24 6 -4 8 -3 5 3 -3 5 8 26 25 47 35 42 66 45 84 8 7
-15 14 -20 18 -13 9 15 49 14 64 -1 7 -7 12 -38 12 -69 0 -32 5 -61 10 -64 6
-4 10 33 10 104 l0 111 -160 0 -160 0 0 -90z"/>
<path fill="#000000" stroke="none" d="M53 113 c9 -2 23 -2 30 0 6 3 -1 5 -18
5 -16 0 -22 -2 -12 -5z"/>
<path fill="#000000" stroke="none" d="M0 53 l0 -53 160 0 160 0 0 34 0 35
-44 -15 c-61 -21 -128 -15 -140 12 -8 17 -23 23 -73 31 l-63 9 0 -53z"/>
<path fill="#000000" stroke="none" d="M173 53 c9 -2 25 -2 35 0 9 3 1 5 -18
5 -19 0 -27 -2 -17 -5z"/>
</g>
</svg>
