<?xml version="1.0" standalone="no"?>
<!DOCTYPE svg PUBLIC "-//W3C//DTD SVG 20010904//EN"
 "http://www.w3.org/TR/2001/REC-SVG-20010904/DTD/svg10.dtd">
<svg version="1.0" xmlns="http://www.w3.org/2000/svg"
 width="32.000000pt" height="32.000000pt" viewBox="0 0 32.000000 32.000000"
 preserveAspectRatio="xMidYMid meet">
<metadata>
Created by potrace 1.16, written by Peter Selinger 2001-2019
</metadata>
<g transform="translate(0.000000,32.000000) scale(0.100000,-0.100000)"
fill="#000000" stroke="none">
<path fill="#000000" stroke="none" d="M180 255 c-37 -38 -57 -46 -38 -15 7
10 9 23 4 27 -11 11 -56 -44 -62 -76 -3 -15 -20 -37 -40 -50 -19 -13 -34 -29
-34 -35 0 -23 80 -86 109 -86 5 0 18 13 27 30 10 16 30 34 46 41 29 12 108 91
108 109 0 16 -11 12 -39 -12 -24 -21 -24 -21 2 8 47 52 34 73 -17 27 l-31 -28
28 31 c47 52 34 73 -17 27 -29 -26 -29 -26 -8 -2 45 51 12 55 -38 4z"/>
</g>
</svg>
