<?xml version="1.0" standalone="no"?>
<!DOCTYPE svg PUBLIC "-//W3C//DTD SVG 20010904//EN"
 "http://www.w3.org/TR/2001/REC-SVG-20010904/DTD/svg10.dtd">
<svg version="1.0" xmlns="http://www.w3.org/2000/svg"
 width="32.000000pt" height="32.000000pt" viewBox="0 0 32.000000 32.000000"
 preserveAspectRatio="xMidYMid meet">
<metadata>
Created by potrace 1.16, written by Peter Selinger 2001-2019
</metadata>
<g transform="translate(0.000000,32.000000) scale(0.100000,-0.100000)"
fill="#000000" stroke="none">
<path fill="#000000" stroke="none" d="M89 274 c-9 -11 -9 -20 0 -40 6 -14 8
-31 4 -37 -4 -7 0 -7 10 1 14 12 16 11 14 -7 -1 -12 -6 -20 -12 -17 -8 3 -10
-8 -5 -32 4 -25 11 -36 21 -34 11 3 12 1 2 -9 -7 -7 -13 -17 -13 -22 0 -4 6
-5 13 -1 9 6 9 5 -1 -8 -10 -12 -9 -18 3 -28 14 -11 19 -7 16 12 0 4 7 4 17 1
15 -6 15 -5 3 11 -8 9 -10 16 -5 15 23 -4 26 2 8 16 -19 15 -19 15 1 8 18 -6
19 -5 5 12 -14 17 -14 18 7 7 18 -10 21 -9 18 6 -2 9 -4 20 -4 23 -1 4 -11 9
-24 13 -30 7 -35 46 -5 41 14 -3 17 -1 10 8 -6 7 -11 16 -11 22 -1 5 -9 10
-18 10 -9 0 -18 6 -20 13 -3 7 5 12 22 12 14 0 24 -4 20 -9 -3 -5 -1 -12 5
-16 6 -4 8 -11 5 -16 -4 -5 -1 -9 4 -9 6 0 11 7 11 15 0 8 9 24 20 35 15 15
16 20 6 20 -8 0 -17 -4 -21 -10 -3 -5 -11 -7 -18 -5 -44 13 -76 13 -88 -1z"/>
<path fill="#ffffff" stroke="none" d="M110 270 c-13 -8 -13 -13 -1 -32 12
-22 12 -22 -4 -6 -19 18 -14 48 7 48 9 0 8 -3 -2 -10z"/>
</g>
</svg>
