<?xml version="1.0" standalone="no"?>
<!DOCTYPE svg PUBLIC "-//W3C//DTD SVG 20010904//EN"
 "http://www.w3.org/TR/2001/REC-SVG-20010904/DTD/svg10.dtd">
<svg version="1.0" xmlns="http://www.w3.org/2000/svg"
 width="32.000000pt" height="32.000000pt" viewBox="0 0 32.000000 32.000000"
 preserveAspectRatio="xMidYMid meet">
<metadata>
Created by potrace 1.16, written by Peter Selinger 2001-2019
</metadata>
<g transform="translate(0.000000,32.000000) scale(0.100000,-0.100000)"
fill="#000000" stroke="none">
<path fill="#000000" stroke="none" d="M109 277 c-33 -27 -59 -80 -59 -119 0
-32 5 -34 26 -14 9 10 11 22 6 37 -6 15 -4 33 6 53 11 20 17 26 20 16 5 -14
27 -40 34 -40 3 0 14 14 27 31 18 24 20 33 11 45 -17 20 -41 17 -71 -9z"/>
<path fill="#ffffff" stroke="none" d="M164 281 c3 -5 -1 -14 -8 -20 -16 -13
-32 2 -21 19 8 12 22 13 29 1z"/>
<path fill="#000000" stroke="none" d="M196 252 c-4 -7 0 -19 8 -27 11 -12 13
-22 6 -39 -7 -18 -4 -28 9 -40 17 -16 19 -16 25 -1 11 28 7 51 -12 71 -11 11
-21 26 -24 34 -3 11 -6 11 -12 2z"/>
<path fill="#000000" stroke="none" d="M111 132 c-6 -11 -11 -30 -11 -41 0
-12 -4 -21 -10 -21 -5 0 -10 -7 -10 -15 0 -17 45 -21 55 -6 3 6 17 6 36 -1 16
-6 32 -8 34 -6 11 11 -9 76 -27 87 -11 7 -17 8 -13 2 10 -18 -17 -12 -30 6
-11 15 -13 15 -24 -5z"/>
<path fill="#ffffff" stroke="none" d="M121 87 c-10 -9 -11 -8 -5 6 3 10 9 15
12 12 3 -3 0 -11 -7 -18z"/>
<path fill="#ffffff" stroke="none" d="M185 89 c11 -16 1 -19 -13 -3 -7 8 -8
14 -3 14 5 0 13 -5 16 -11z"/>
</g>
</svg>
