<?xml version="1.0" standalone="no"?>
<!DOCTYPE svg PUBLIC "-//W3C//DTD SVG 20010904//EN"
 "http://www.w3.org/TR/2001/REC-SVG-20010904/DTD/svg10.dtd">
<svg version="1.0" xmlns="http://www.w3.org/2000/svg"
 width="32.000000pt" height="32.000000pt" viewBox="0 0 32.000000 32.000000"
 preserveAspectRatio="xMidYMid meet">
<metadata>
Created by potrace 1.16, written by Peter Selinger 2001-2019
</metadata>
<g transform="translate(0.000000,32.000000) scale(0.100000,-0.100000)"
fill="#000000" stroke="none">
<path fill="#000000" stroke="none" d="M30 236 c0 -42 11 -60 35 -61 6 0 11
-13 12 -30 l2 -30 -9 30 c-4 17 -8 25 -9 18 0 -7 -9 -10 -18 -7 -17 5 -17 5 0
-9 21 -17 22 -28 2 -21 -11 5 -15 -2 -15 -26 0 -29 2 -31 18 -19 16 13 16 13
0 -7 -10 -11 -18 -30 -18 -40 0 -19 7 -20 135 -21 l136 -1 -2 134 -1 134 -134
0 -134 0 0 -44z"/>
<path fill="#ffffff" stroke="none" d="M165 263 c-47 -10 -50 -13 -32 -30 15
-15 18 -15 40 0 23 15 25 15 23 -1 -4 -22 -81 -25 -82 -2 -1 25 17 40 45 39
20 -1 21 -2 6 -6z"/>
<path fill="#ffffff" stroke="none" d="M80 225 c-7 -9 -15 -13 -18 -10 -3 2 1
11 8 20 7 9 15 13 18 10 3 -2 -1 -11 -8 -20z"/>
<path fill="#ffffff" stroke="none" d="M249 226 c9 -10 9 -16 1 -21 -13 -8
-42 14 -34 26 8 13 20 11 33 -5z"/>
<path fill="#ffffff" stroke="none" d="M47 198 c-3 -8 -6 -5 -6 6 -1 11 2 17
5 13 3 -3 4 -12 1 -19z"/>
<path fill="#ffffff" stroke="none" d="M272 188 c-7 -7 -12 -8 -12 -2 0 6 3
14 7 17 3 4 9 5 12 2 2 -3 -1 -11 -7 -17z"/>
<path fill="#ffffff" stroke="none" d="M101 177 c-10 -9 -11 -8 -5 6 3 10 9
15 12 12 3 -3 0 -11 -7 -18z"/>
<path fill="#ffffff" stroke="none" d="M201 183 c13 -16 12 -17 -3 -4 -10 7
-18 15 -18 17 0 8 8 3 21 -13z"/>
<path fill="#ffffff" stroke="none" d="M195 113 c-2 -10 -4 -19 -4 -21 -1 -2
-6 0 -11 3 -8 5 -7 11 1 21 15 18 18 18 14 -3z"/>
<path fill="#ffffff" stroke="none" d="M143 101 c-10 13 -10 16 2 16 8 0 12
-4 9 -8 -6 -11 26 -40 37 -34 10 7 12 -8 2 -18 -3 -4 -15 0 -25 10 -10 9 -18
12 -18 8 0 -4 -9 0 -20 10 -11 10 -20 15 -20 11 0 -4 -5 -4 -10 -1 -6 4 -8 11
-5 16 3 5 18 1 33 -8 22 -15 25 -15 15 -2z"/>
<path fill="#ffffff" stroke="none" d="M122 66 c3 -5 14 -11 24 -12 18 -3 37
-25 28 -33 -3 -3 -9 1 -13 8 -5 7 -14 10 -21 6 -11 -7 -50 21 -50 37 0 10 23
6 32 -6z"/>
</g>
</svg>
