<?xml version="1.0" standalone="no"?>
<!DOCTYPE svg PUBLIC "-//W3C//DTD SVG 20010904//EN"
 "http://www.w3.org/TR/2001/REC-SVG-20010904/DTD/svg10.dtd">
<svg version="1.0" xmlns="http://www.w3.org/2000/svg"
 width="32.000000pt" height="32.000000pt" viewBox="0 0 32.000000 32.000000"
 preserveAspectRatio="xMidYMid meet">
<metadata>
Created by potrace 1.16, written by Peter Selinger 2001-2019
</metadata>
<g transform="translate(0.000000,32.000000) scale(0.100000,-0.100000)"
fill="#000000" stroke="none">
<path fill="#000000" stroke="none" d="M101 271 c-18 -10 -40 -29 -47 -42 -16
-29 -18 -89 -3 -89 5 0 8 4 5 9 -3 4 1 16 8 26 12 16 13 15 19 -13 4 -18 16
-36 29 -43 22 -12 22 -11 6 8 -24 26 -25 51 -2 32 14 -11 18 -10 30 5 7 10 15
24 18 30 3 7 11 3 20 -8 14 -17 16 -17 16 -4 0 23 19 33 33 19 9 -9 8 -11 -4
-6 -10 4 -16 0 -16 -9 0 -8 5 -12 10 -9 5 3 18 -5 28 -18 l19 -24 0 30 c0 43
-35 94 -75 111 -43 18 -52 17 -94 -5z"/>
<path fill="#000000" stroke="none" d="M156 153 c-6 -14 -5 -15 5 -6 7 7 10
15 7 18 -3 3 -9 -2 -12 -12z"/>
<path fill="#000000" stroke="none" d="M50 123 c0 -6 8 -17 18 -24 16 -13 16
-13 2 6 -8 11 -16 22 -17 24 -2 2 -3 0 -3 -6z"/>
</g>
</svg>
