<?xml version="1.0" standalone="no"?>
<!DOCTYPE svg PUBLIC "-//W3C//DTD SVG 20010904//EN"
 "http://www.w3.org/TR/2001/REC-SVG-20010904/DTD/svg10.dtd">
<svg version="1.0" xmlns="http://www.w3.org/2000/svg"
 width="32.000000pt" height="32.000000pt" viewBox="0 0 32.000000 32.000000"
 preserveAspectRatio="xMidYMid meet">
<metadata>
Created by potrace 1.16, written by Peter Selinger 2001-2019
</metadata>
<g transform="translate(0.000000,32.000000) scale(0.100000,-0.100000)"
fill="#000000" stroke="none">
<path fill="#000000" stroke="none" d="M0 193 c0 -118 1 -126 16 -105 8 12 21
22 28 22 7 0 21 9 30 19 10 11 25 22 35 24 9 2 6 3 -6 2 -14 -1 -23 3 -23 11
0 8 -11 24 -25 36 -14 12 -25 25 -25 30 0 11 73 77 85 78 6 0 -3 -12 -20 -26
l-30 -26 30 19 c35 22 61 20 68 -6 3 -13 -3 -22 -21 -30 -13 -7 -22 -14 -20
-17 3 -3 22 5 42 17 20 11 43 18 51 15 8 -3 15 0 15 6 0 6 -12 8 -32 4 -26 -4
-29 -3 -15 5 10 6 28 9 40 8 12 -2 35 5 50 15 15 10 30 16 33 13 3 -2 -3 -33
-12 -68 -26 -94 -18 -158 19 -159 4 0 7 54 7 120 l0 120 -90 0 c-63 0 -90 -4
-90 -12 0 -9 -3 -9 -12 0 -7 7 -38 12 -70 12 l-58 0 0 -127z"/>
<path fill="#000000" stroke="none" d="M251 265 c-26 -24 -41 -46 -41 -61 0
-17 -7 -25 -24 -30 -14 -3 -30 -3 -35 1 -15 9 -14 -8 1 -23 15 -15 54 -16 61
-2 3 6 4 5 3 -2 -1 -7 -16 -16 -32 -20 -22 -6 -19 -6 14 -4 46 4 47 4 30 -23
-17 -27 -3 -55 21 -42 15 9 19 21 17 58 0 27 7 77 16 112 10 36 16 66 14 69
-2 2 -23 -13 -45 -33z"/>
<path fill="#ffffff" stroke="none" d="M246 168 c3 -24 1 -29 -6 -18 -11 16
-14 67 -4 57 4 -3 8 -21 10 -39z"/>
<path fill="#ffffff" stroke="none" d="M260 76 c0 -2 -7 -7 -16 -10 -8 -3 -12
-2 -9 4 6 10 25 14 25 6z"/>
<path fill="#000000" stroke="none" d="M135 271 c3 -5 -18 -18 -47 -29 -38
-15 -48 -22 -35 -26 44 -15 51 -17 45 -10 -4 3 6 17 23 31 30 25 37 43 18 43
-5 0 -8 -4 -4 -9z"/>
<path fill="#000000" stroke="none" d="M177 229 c-22 -11 -46 -18 -54 -15 -9
4 -13 1 -11 -6 11 -32 78 -20 95 17 6 14 10 25 10 25 -1 -1 -19 -10 -40 -21z"/>
<path fill="#000000" stroke="none" d="M85 180 c3 -5 13 -10 21 -10 8 0 14 5
14 10 0 6 -9 10 -21 10 -11 0 -17 -4 -14 -10z"/>
<path fill="#000000" stroke="none" d="M98 132 c-14 -6 -13 -9 8 -25 25 -19
33 -11 12 13 -11 12 -10 12 5 1 19 -15 33 -9 22 8 -7 12 -22 13 -47 3z"/>
<path fill="#000000" stroke="none" d="M39 90 c-17 -14 -20 -20 -9 -20 10 -1
9 -4 -5 -11 -21 -10 34 -7 100 5 38 7 60 -6 51 -30 -7 -18 -8 -18 -17 -2 -6
10 -18 18 -28 18 -18 0 -48 -26 -39 -35 2 -2 54 -7 116 -11 l112 -7 0 26 c0
32 3 32 -55 7 -26 -11 -56 -20 -68 -20 -21 0 -21 1 3 20 l25 19 -24 25 c-28
30 -43 32 -61 11 -12 -14 -15 -13 -35 5 -27 25 -37 25 -66 0z"/>
<path fill="#ffffff" stroke="none" d="M98 83 c6 -19 -25 -16 -32 3 -4 11 -1
14 11 12 9 -2 18 -9 21 -15z"/>
<path fill="#ffffff" stroke="none" d="M190 75 c20 -25 6 -31 -17 -7 -14 14
-18 22 -9 22 8 0 19 -7 26 -15z"/>
<path fill="#000000" stroke="none" d="M48 43 c-40 -3 -48 -8 -48 -24 0 -15 7
-19 38 -19 30 0 39 5 49 25 6 14 10 24 10 23 -1 -1 -23 -3 -49 -5z"/>
</g>
</svg>
