<?xml version="1.0" standalone="no"?>
<!DOCTYPE svg PUBLIC "-//W3C//DTD SVG 20010904//EN"
 "http://www.w3.org/TR/2001/REC-SVG-20010904/DTD/svg10.dtd">
<svg version="1.0" xmlns="http://www.w3.org/2000/svg"
 width="32.000000pt" height="32.000000pt" viewBox="0 0 32.000000 32.000000"
 preserveAspectRatio="xMidYMid meet">
<metadata>
Created by potrace 1.16, written by Peter Selinger 2001-2019
</metadata>
<g transform="translate(0.000000,32.000000) scale(0.100000,-0.100000)"
fill="#000000" stroke="none">
<path fill="#000000" stroke="none" d="M0 160 l0 -160 160 0 160 0 0 160 0
160 -160 0 -160 0 0 -160z"/>
<path fill="#ffffff" stroke="none" d="M115 260 c7 -11 58 -14 69 -3 15 15 46
12 55 -5 7 -14 6 -19 -4 -19 -7 0 -11 6 -8 14 6 14 -9 18 -21 6 -9 -9 -14 -10
-60 -12 -36 -1 -48 -16 -39 -50 8 -31 23 -26 19 7 -2 15 -1 21 1 13 8 -24 27
-38 49 -36 40 3 22 -49 -23 -66 -17 -6 -23 -16 -23 -40 0 -27 -2 -30 -15 -19
-8 7 -15 22 -14 34 1 19 2 18 8 -4 l7 -25 6 27 c3 17 0 32 -8 39 -7 5 -12 23
-12 38 1 16 -2 33 -6 39 -4 7 -2 21 4 33 15 27 6 36 -17 18 -16 -13 -17 -12
-4 4 15 19 27 22 36 7z"/>
<path fill="#ffffff" stroke="none" d="M230 213 c12 10 12 9 1 -5 -10 -14 -18
-15 -32 -7 -10 5 -19 12 -19 15 0 2 8 0 18 -5 13 -7 23 -6 32 2z"/>
<path fill="#ffffff" stroke="none" d="M249 167 c-13 -10 -14 -16 -5 -31 8
-14 8 -20 -2 -23 -6 -3 -10 -9 -6 -14 3 -5 1 -9 -5 -9 -16 0 -25 48 -12 64 6
7 8 16 4 20 -4 4 0 4 10 0 11 -4 17 -1 17 7 0 7 3 9 7 5 5 -4 1 -13 -8 -19z"/>
<path fill="#ffffff" stroke="none" d="M72 125 c3 -13 1 -22 -3 -19 -9 5 -13
44 -5 44 2 0 6 -11 8 -25z"/>
<path fill="#ffffff" stroke="none" d="M190 96 c-6 -8 -10 -25 -8 -38 l5 -23
11 25 c6 14 11 18 11 10 1 -17 -17 -40 -31 -40 -9 0 -11 41 -2 64 3 9 11 16
16 16 6 0 6 -6 -2 -14z"/>
<path fill="#000000" stroke="none" d="M110 145 c0 -8 2 -15 4 -15 2 0 6 7 10
15 3 8 1 15 -4 15 -6 0 -10 -7 -10 -15z"/>
<path fill="#000000" stroke="none" d="M134 145 c-3 -8 -4 -19 -2 -24 4 -13
50 9 56 27 6 18 -47 15 -54 -3z"/>
<path fill="#000000" stroke="none" d="M223 128 c-2 -16 1 -18 10 -9 7 7 8 14
1 21 -6 6 -10 2 -11 -12z"/>
</g>
</svg>
