<?xml version="1.0" standalone="no"?>
<!DOCTYPE svg PUBLIC "-//W3C//DTD SVG 20010904//EN"
 "http://www.w3.org/TR/2001/REC-SVG-20010904/DTD/svg10.dtd">
<svg version="1.0" xmlns="http://www.w3.org/2000/svg"
 width="32.000000pt" height="32.000000pt" viewBox="0 0 32.000000 32.000000"
 preserveAspectRatio="xMidYMid meet">
<metadata>
Created by potrace 1.16, written by Peter Selinger 2001-2019
</metadata>
<g transform="translate(0.000000,32.000000) scale(0.100000,-0.100000)"
fill="#000000" stroke="none">
<path fill="#000000" stroke="none" d="M0 160 l0 -160 160 0 160 0 0 160 0
160 -160 0 -160 0 0 -160z"/>
<path fill="#ffffff" stroke="none" d="M160 285 c9 -11 7 -19 -14 -40 -14 -14
-26 -21 -26 -15 0 5 -5 10 -11 10 -6 0 -8 -7 -5 -16 3 -8 2 -12 -3 -9 -14 8
-8 60 7 59 29 -2 33 -5 26 -16 -4 -7 -3 -8 4 -4 19 11 14 26 -10 36 -23 9 -23
9 -2 9 12 1 27 -6 34 -14z"/>
<path fill="#ffffff" stroke="none" d="M82 263 c-3 -16 -7 -22 -10 -15 -4 13
4 42 11 42 2 0 2 -12 -1 -27z"/>
<path fill="#ffffff" stroke="none" d="M238 283 c-26 -3 -38 -9 -38 -20 0 -11
6 -14 27 -9 16 5 29 3 33 -5 11 -17 30 -1 23 18 -4 11 -3 14 5 9 19 -12 14
-34 -10 -48 -28 -14 -59 -18 -52 -6 4 5 13 7 21 4 8 -3 11 -1 8 4 -3 6 -17 7
-30 4 -17 -4 -26 0 -34 14 -14 27 4 42 49 40 l35 -1 -37 -4z"/>
<path fill="#ffffff" stroke="none" d="M120 95 c-5 -6 -7 -14 -5 -17 3 -3 -2
-5 -12 -5 -34 0 -44 -3 -39 -11 2 -4 -4 -8 -14 -8 -17 0 -17 2 -1 22 9 12 21
21 26 21 6 -1 9 3 8 9 -1 7 8 9 23 6 18 -3 22 -8 14 -17z"/>
<path fill="#ffffff" stroke="none" d="M273 66 c3 -7 2 -18 -2 -25 -6 -10 -12
-9 -25 4 -22 22 -37 51 -30 58 8 8 51 -20 57 -37z"/>
</g>
</svg>
