<?xml version="1.0" standalone="no"?>
<!DOCTYPE svg PUBLIC "-//W3C//DTD SVG 20010904//EN"
 "http://www.w3.org/TR/2001/REC-SVG-20010904/DTD/svg10.dtd">
<svg version="1.0" xmlns="http://www.w3.org/2000/svg"
 width="32.000000pt" height="32.000000pt" viewBox="0 0 32.000000 32.000000"
 preserveAspectRatio="xMidYMid meet">
<metadata>
Created by potrace 1.16, written by Peter Selinger 2001-2019
</metadata>
<g transform="translate(0.000000,32.000000) scale(0.100000,-0.100000)"
fill="#000000" stroke="none">
<path fill="#000000" stroke="none" d="M112 282 c-28 -22 -41 -75 -42 -169 0
-110 18 -132 61 -72 19 27 21 39 16 102 -4 40 -9 87 -11 105 -4 24 -2 32 9 32
17 0 20 -16 5 -25 -5 -3 -10 -11 -10 -18 0 -6 6 -2 14 8 13 18 14 18 25 -3 6
-11 10 -40 10 -64 -1 -44 -3 -41 -14 25 -12 71 -22 28 -18 -75 3 -74 1 -99 -6
-88 -7 10 -11 11 -11 3 0 -32 79 -44 101 -16 11 13 11 15 1 9 -10 -6 -12 8 -8
71 l5 78 -11 -82 c-5 -46 -14 -83 -20 -83 -5 0 -6 6 -2 13 6 9 4 9 -7 -1 -21
-20 -29 -14 -29 21 1 29 2 31 14 14 13 -17 15 -13 21 37 8 61 0 123 -18 145
-7 7 -12 21 -12 30 0 23 -36 24 -63 3z"/>
<path fill="#ffffff" stroke="none" d="M117 133 c-3 -10 -5 -4 -5 12 0 17 2
24 5 18 2 -7 2 -21 0 -30z"/>
<path fill="#ffffff" stroke="none" d="M97 98 c-3 -8 -6 -5 -6 6 -1 11 2 17 5
13 3 -3 4 -12 1 -19z"/>
<path fill="#ffffff" stroke="none" d="M113 29 c-5 -5 -7 7 -4 29 5 34 6 35 9
8 2 -16 0 -32 -5 -37z"/>
</g>
</svg>
