<?xml version="1.0" standalone="no"?>
<!DOCTYPE svg PUBLIC "-//W3C//DTD SVG 20010904//EN"
 "http://www.w3.org/TR/2001/REC-SVG-20010904/DTD/svg10.dtd">
<svg version="1.0" xmlns="http://www.w3.org/2000/svg"
 width="32.000000pt" height="32.000000pt" viewBox="0 0 32.000000 32.000000"
 preserveAspectRatio="xMidYMid meet">
<metadata>
Created by potrace 1.16, written by Peter Selinger 2001-2019
</metadata>
<g transform="translate(0.000000,32.000000) scale(0.100000,-0.100000)"
fill="#000000" stroke="none">
<path fill="#000000" stroke="none" d="M173 303 c-38 -7 -48 -29 -36 -76 13
-47 5 -57 -57 -78 -19 -6 -43 -18 -52 -27 -20 -17 -25 -68 -6 -56 7 4 8 3 4
-5 -4 -6 -12 -9 -17 -6 -5 4 -9 -3 -9 -14 0 -22 1 -23 91 -27 51 -2 56 0 52
17 -3 10 -1 19 5 19 5 0 9 -8 8 -17 -1 -14 8 -19 44 -21 62 -5 120 14 120 38
0 10 -6 23 -13 27 -21 12 -28 81 -16 145 14 73 4 89 -55 87 -22 -1 -51 -4 -63
-6z"/>
<path fill="#ffffff" stroke="none" d="M195 291 c-3 -5 -1 -12 5 -16 5 -3 10
-14 10 -23 0 -13 -3 -12 -16 6 -8 12 -21 22 -27 22 -7 -1 -5 -6 5 -13 20 -16
23 -87 2 -87 -17 0 -18 21 -1 39 8 10 9 12 0 7 -14 -8 -37 30 -29 49 2 7 15
15 28 18 13 2 24 5 26 6 2 0 1 -3 -3 -8z"/>
<path fill="#ffffff" stroke="none" d="M273 293 c9 -15 -5 -72 -19 -77 -35
-14 -46 14 -29 72 5 13 41 17 48 5z"/>
<path fill="#ffffff" stroke="none" d="M240 190 c16 -31 20 -79 7 -86 -7 -4
-9 -4 -5 0 11 12 -45 56 -58 45 -6 -5 -15 -5 -20 -1 -4 4 -2 -1 5 -10 7 -9 10
-22 6 -28 -8 -13 -62 -13 -70 0 -3 6 -2 10 4 10 5 0 23 11 39 25 16 13 32 22
35 19 3 -3 13 6 22 20 21 31 21 31 35 6z"/>
<path fill="#ffffff" stroke="none" d="M116 145 c-11 -8 -27 -15 -35 -15 -9 1
-2 7 14 15 39 18 44 18 21 0z"/>
<path fill="#ffffff" stroke="none" d="M50 126 c0 -2 -8 -10 -17 -17 -16 -13
-17 -12 -4 4 13 16 21 21 21 13z"/>
<path fill="#ffffff" stroke="none" d="M90 112 c0 -4 -5 -13 -10 -18 -7 -7 -4
-16 10 -29 24 -21 25 -31 6 -38 -10 -4 -12 0 -9 14 6 20 3 22 -21 13 -8 -3
-12 -12 -9 -20 3 -8 0 -14 -5 -14 -6 0 -8 10 -5 23 3 12 6 33 8 47 3 31 2 30
20 30 8 0 15 -4 15 -8z"/>
<path fill="#ffffff" stroke="none" d="M185 90 c-3 -5 -21 -9 -38 -9 l-32 2
35 7 c19 4 36 8 38 9 2 0 0 -3 -3 -9z"/>
</g>
</svg>
