<?xml version="1.0" standalone="no"?>
<!DOCTYPE svg PUBLIC "-//W3C//DTD SVG 20010904//EN"
 "http://www.w3.org/TR/2001/REC-SVG-20010904/DTD/svg10.dtd">
<svg version="1.0" xmlns="http://www.w3.org/2000/svg"
 width="32.000000pt" height="32.000000pt" viewBox="0 0 32.000000 32.000000"
 preserveAspectRatio="xMidYMid meet">
<metadata>
Created by potrace 1.16, written by Peter Selinger 2001-2019
</metadata>
<g transform="translate(0.000000,32.000000) scale(0.100000,-0.100000)"
fill="#000000" stroke="none">
<path fill="#000000" stroke="none" d="M103 244 c-18 -9 -39 -31 -48 -51 -46
-96 53 -194 148 -148 35 16 67 65 67 100 0 34 -32 84 -65 99 -41 20 -61 20
-102 0z"/>
<path fill="#ffffff" stroke="none" d="M240 185 c-1 -4 4 -11 10 -15 19 -11 4
-73 -23 -97 -25 -22 -62 -39 -52 -23 3 6 -1 10 -10 10 -10 0 -13 -5 -9 -11 11
-18 -48 -1 -69 20 -10 10 -20 26 -22 37 -2 10 -4 19 -5 19 -1 0 -3 8 -5 18 -2
9 1 15 6 11 5 -3 7 -9 5 -13 -3 -4 7 -20 22 -36 15 -16 26 -34 24 -39 -2 -5 4
-4 12 4 9 7 16 10 16 6 0 -14 59 25 65 43 12 39 14 61 4 66 -5 4 -14 16 -20
27 l-12 22 33 -21 c17 -11 31 -24 30 -28z"/>
<path fill="#ffffff" stroke="none" d="M180 115 c-7 -8 -19 -15 -27 -15 -10 0
-8 6 8 19 27 22 38 19 19 -4z"/>
<path fill="#000000" stroke="none" d="M212 194 c10 -10 20 -16 22 -13 3 3 -5
11 -17 18 -21 13 -21 12 -5 -5z"/>
<path fill="#000000" stroke="none" d="M230 163 c7 -3 8 -9 1 -17 -8 -9 -7
-13 3 -13 17 0 14 30 -3 33 -7 2 -7 0 -1 -3z"/>
<path fill="#000000" stroke="none" d="M212 94 c-7 -8 -8 -14 -3 -14 10 0 25
19 20 25 -2 1 -10 -3 -17 -11z"/>
</g>
</svg>
