<?xml version="1.0" standalone="no"?>
<!DOCTYPE svg PUBLIC "-//W3C//DTD SVG 20010904//EN"
 "http://www.w3.org/TR/2001/REC-SVG-20010904/DTD/svg10.dtd">
<svg version="1.0" xmlns="http://www.w3.org/2000/svg"
 width="32.000000pt" height="32.000000pt" viewBox="0 0 32.000000 32.000000"
 preserveAspectRatio="xMidYMid meet">
<metadata>
Created by potrace 1.16, written by Peter Selinger 2001-2019
</metadata>
<g transform="translate(0.000000,32.000000) scale(0.100000,-0.100000)"
fill="#000000" stroke="none">
<path fill="#000000" stroke="none" d="M0 269 c0 -47 1 -49 16 -34 11 10 26
14 43 10 21 -4 29 0 43 25 15 27 22 30 65 29 67 -1 96 -11 107 -36 5 -11 18
-26 28 -32 16 -10 18 -7 18 39 l0 50 -160 0 -160 0 0 -51z"/>
<path fill="#000000" stroke="none" d="M3 155 c0 -22 2 -30 4 -17 2 12 2 30 0
40 -3 9 -5 -1 -4 -23z"/>
<path fill="#000000" stroke="none" d="M290 80 c-9 -6 -10 -10 -3 -10 6 0 15
5 18 10 8 12 4 12 -15 0z"/>
<path fill="#000000" stroke="none" d="M0 13 c0 -10 38 -13 160 -13 124 0 160
3 160 13 0 10 -16 11 -71 6 -39 -3 -111 -3 -160 0 -68 5 -89 3 -89 -6z"/>
</g>
</svg>
