<?xml version="1.0" standalone="no"?>
<!DOCTYPE svg PUBLIC "-//W3C//DTD SVG 20010904//EN"
 "http://www.w3.org/TR/2001/REC-SVG-20010904/DTD/svg10.dtd">
<svg version="1.0" xmlns="http://www.w3.org/2000/svg"
 width="32.000000pt" height="32.000000pt" viewBox="0 0 32.000000 32.000000"
 preserveAspectRatio="xMidYMid meet">
<metadata>
Created by potrace 1.16, written by Peter Selinger 2001-2019
</metadata>
<g transform="translate(0.000000,32.000000) scale(0.100000,-0.100000)"
fill="#000000" stroke="none">
<path fill="#000000" stroke="none" d="M85 186 c-27 -27 -40 -67 -31 -92 5
-13 9 -14 21 -4 13 11 121 10 180 -1 22 -5 30 18 21 57 -8 31 -74 63 -129 64
-27 0 -45 -7 -62 -24z"/>
<path fill="#ffffff" stroke="none" d="M152 186 c10 -7 22 -26 28 -42 9 -22 9
-26 -1 -17 -7 7 -18 8 -28 3 -25 -14 -84 -31 -89 -26 -8 9 20 76 36 86 23 13
34 12 54 -4z"/>
<path fill="#ffffff" stroke="none" d="M206 185 c17 -13 16 -14 -15 -5 -41 11
-51 20 -25 20 11 0 29 -7 40 -15z"/>
<path fill="#ffffff" stroke="none" d="M254 164 c18 -17 23 -79 5 -69 -17 11
-28 49 -15 57 8 6 7 8 -1 8 -7 0 -13 5 -13 10 0 14 6 13 24 -6z"/>
</g>
</svg>
