<?xml version="1.0" standalone="no"?>
<!DOCTYPE svg PUBLIC "-//W3C//DTD SVG 20010904//EN"
 "http://www.w3.org/TR/2001/REC-SVG-20010904/DTD/svg10.dtd">
<svg version="1.0" xmlns="http://www.w3.org/2000/svg"
 width="32.000000pt" height="32.000000pt" viewBox="0 0 32.000000 32.000000"
 preserveAspectRatio="xMidYMid meet">
<metadata>
Created by potrace 1.16, written by Peter Selinger 2001-2019
</metadata>
<g transform="translate(0.000000,32.000000) scale(0.100000,-0.100000)"
fill="#000000" stroke="none">
<path fill="#000000" stroke="none" d="M0 160 l0 -160 160 0 160 0 0 160 0
160 -160 0 -160 0 0 -160z"/>
<path fill="#ffffff" stroke="none" d="M193 286 c-4 -6 -8 -18 -8 -26 0 -8 -7
-14 -17 -12 -13 2 -16 -7 -16 -49 -1 -28 -3 -54 -6 -57 -3 -3 -6 20 -6 50 0
37 5 60 15 68 22 18 18 30 -9 30 -23 0 -24 -3 -21 -62 1 -35 0 -43 -2 -20 -3
33 -8 42 -19 38 -16 -6 -19 9 -4 19 6 3 10 11 10 16 0 6 -4 7 -10 4 -5 -3 -10
-2 -10 3 0 5 25 10 55 10 38 0 52 -4 48 -12z"/>
<path fill="#ffffff" stroke="none" d="M230 240 c0 -5 -5 -10 -11 -10 -5 0 -7
5 -4 10 3 6 8 10 11 10 2 0 4 -4 4 -10z"/>
<path fill="#ffffff" stroke="none" d="M208 205 c-3 -3 -9 2 -12 12 -6 14 -5
15 5 6 7 -7 10 -15 7 -18z"/>
<path fill="#ffffff" stroke="none" d="M107 198 c-3 -8 -6 -5 -6 6 -1 11 2 17
5 13 3 -3 4 -12 1 -19z"/>
<path fill="#ffffff" stroke="none" d="M189 190 c6 -18 6 -28 1 -25 -6 4 -10
14 -11 23 -1 11 -4 8 -9 -8 -5 -15 -8 -18 -9 -8 -1 16 8 48 14 48 2 0 8 -14
14 -30z"/>
<path fill="#ffffff" stroke="none" d="M80 200 c0 -5 -5 -10 -11 -10 -5 0 -7
5 -4 10 3 6 8 10 11 10 2 0 4 -4 4 -10z"/>
<path fill="#ffffff" stroke="none" d="M177 118 c-3 -7 -5 -2 -5 12 0 14 2 19
5 13 2 -7 2 -19 0 -25z"/>
</g>
</svg>
