<?xml version="1.0" standalone="no"?>
<!DOCTYPE svg PUBLIC "-//W3C//DTD SVG 20010904//EN"
 "http://www.w3.org/TR/2001/REC-SVG-20010904/DTD/svg10.dtd">
<svg version="1.0" xmlns="http://www.w3.org/2000/svg"
 width="32.000000pt" height="32.000000pt" viewBox="0 0 32.000000 32.000000"
 preserveAspectRatio="xMidYMid meet">
<metadata>
Created by potrace 1.16, written by Peter Selinger 2001-2019
</metadata>
<g transform="translate(0.000000,32.000000) scale(0.100000,-0.100000)"
fill="#000000" stroke="none">
<path fill="#000000" stroke="none" d="M74 267 c-22 -19 -25 -28 -20 -55 4
-18 15 -34 26 -37 16 -5 19 -14 16 -48 -6 -64 20 -94 81 -95 61 0 130 32 113
54 -7 8 -25 14 -39 14 -24 0 -27 4 -28 35 -1 26 4 36 19 40 10 4 24 18 29 32
8 22 5 31 -18 55 -15 16 -36 27 -46 26 -28 -5 -19 -23 11 -21 15 0 21 -1 14
-4 -6 -2 -10 -8 -8 -12 3 -4 -26 -8 -64 -8 -38 0 -67 4 -64 8 2 4 -2 10 -8 12
-7 3 0 4 16 4 16 -1 31 4 33 11 8 21 -34 14 -63 -11z"/>
<path fill="#ffffff" stroke="none" d="M94 228 c6 -4 8 -9 5 -12 -11 -11 -42
21 -34 34 7 12 9 12 13 0 3 -8 10 -18 16 -22z"/>
<path fill="#ffffff" stroke="none" d="M246 224 c-11 -7 -22 -11 -25 -8 -3 4
0 9 7 11 6 3 12 12 12 21 0 13 2 14 13 3 10 -10 8 -15 -7 -27z"/>
<path fill="#ffffff" stroke="none" d="M140 231 c0 11 2 11 10 -1 9 -13 11
-13 20 0 8 12 10 12 10 1 0 -11 3 -11 17 0 15 13 15 12 5 -7 -15 -28 -69 -27
-85 1 -9 18 -9 19 6 6 14 -11 17 -11 17 0z"/>
<path fill="#ffffff" stroke="none" d="M123 180 c10 -12 9 -12 -4 -2 -9 6 -18
9 -21 6 -3 -3 -9 -1 -12 4 -9 15 22 8 37 -8z"/>
<path fill="#ffffff" stroke="none" d="M234 188 c-4 -5 -9 -7 -12 -4 -3 3 -12
0 -21 -7 -14 -10 -14 -10 -4 4 13 16 46 23 37 7z"/>
<path fill="#ffffff" stroke="none" d="M179 157 c8 -11 5 -14 -19 -14 -24 0
-27 3 -19 14 6 7 15 13 19 13 4 0 13 -6 19 -13z"/>
<path fill="#ffffff" stroke="none" d="M179 117 c8 -11 5 -14 -19 -14 -24 0
-27 3 -19 14 6 7 15 13 19 13 4 0 13 -6 19 -13z"/>
<path fill="#ffffff" stroke="none" d="M179 77 c8 -11 5 -14 -19 -14 -24 0
-27 3 -19 14 6 7 15 13 19 13 4 0 13 -6 19 -13z"/>
</g>
</svg>
