<?xml version="1.0" standalone="no"?>
<!DOCTYPE svg PUBLIC "-//W3C//DTD SVG 20010904//EN"
 "http://www.w3.org/TR/2001/REC-SVG-20010904/DTD/svg10.dtd">
<svg version="1.0" xmlns="http://www.w3.org/2000/svg"
 width="32.000000pt" height="32.000000pt" viewBox="0 0 32.000000 32.000000"
 preserveAspectRatio="xMidYMid meet">
<metadata>
Created by potrace 1.16, written by Peter Selinger 2001-2019
</metadata>
<g transform="translate(0.000000,32.000000) scale(0.100000,-0.100000)"
fill="#000000" stroke="none">
<path fill="#000000" stroke="none" d="M0 160 l0 -160 160 0 160 0 0 160 0
160 -160 0 -160 0 0 -160z"/>
<path fill="#ffffff" stroke="none" d="M191 290 c-7 -4 -11 -13 -9 -20 2 -8
-3 -14 -11 -15 -8 0 -17 -9 -22 -20 -6 -15 -8 -16 -8 -4 -1 9 6 22 14 29 22
19 18 30 -11 30 -24 0 -25 -3 -19 -32 5 -27 4 -30 -5 -15 -6 10 -16 14 -23 10
-7 -4 -6 1 2 11 12 14 12 19 2 26 -8 4 11 8 44 8 31 0 52 -4 46 -8z"/>
<path fill="#ffffff" stroke="none" d="M230 240 c0 -5 -5 -10 -11 -10 -5 0 -7
5 -4 10 3 6 8 10 11 10 2 0 4 -4 4 -10z"/>
<path fill="#ffffff" stroke="none" d="M184 204 c3 -8 2 -12 -4 -9 -6 3 -10
10 -10 16 0 14 7 11 14 -7z"/>
<path fill="#ffffff" stroke="none" d="M147 188 c-3 -8 -6 -5 -6 6 -1 11 2 17
5 13 3 -3 4 -12 1 -19z"/>
</g>
</svg>
