<?xml version="1.0" standalone="no"?>
<!DOCTYPE svg PUBLIC "-//W3C//DTD SVG 20010904//EN"
 "http://www.w3.org/TR/2001/REC-SVG-20010904/DTD/svg10.dtd">
<svg version="1.0" xmlns="http://www.w3.org/2000/svg"
 width="32.000000pt" height="32.000000pt" viewBox="0 0 32.000000 32.000000"
 preserveAspectRatio="xMidYMid meet">
<metadata>
Created by potrace 1.16, written by Peter Selinger 2001-2019
</metadata>
<g transform="translate(0.000000,32.000000) scale(0.100000,-0.100000)"
fill="#000000" stroke="none">
<path fill="#000000" stroke="none" d="M100 277 c-27 -22 -60 -76 -60 -97 0
-11 2 -20 4 -20 2 0 13 -3 23 -6 17 -5 17 -5 1 6 -10 6 -18 20 -18 31 0 27 24
19 28 -9 2 -14 8 -20 15 -15 9 5 9 3 0 -8 -6 -8 -13 -32 -14 -54 -3 -33 0 -40
14 -39 14 2 15 -1 6 -12 -31 -37 48 -59 97 -28 23 15 84 122 84 146 0 16 -87
118 -101 118 -3 0 -9 -9 -12 -20 -3 -11 -10 -20 -17 -20 -7 0 -14 9 -17 20 -6
23 -12 24 -33 7z"/>
<path fill="#ffffff" stroke="none" d="M114 252 c3 -5 -1 -9 -9 -9 -8 0 -12 4
-9 9 3 4 7 8 9 8 2 0 6 -4 9 -8z"/>
<path fill="#ffffff" stroke="none" d="M270 174 c0 -8 -7 -22 -15 -30 -13 -14
-15 -13 -15 9 0 13 3 27 7 30 11 12 23 8 23 -9z"/>
<path fill="#ffffff" stroke="none" d="M181 97 c-10 -9 -11 -8 -5 6 3 10 9 15
12 12 3 -3 0 -11 -7 -18z"/>
</g>
</svg>
