<?xml version="1.0" standalone="no"?>
<!DOCTYPE svg PUBLIC "-//W3C//DTD SVG 20010904//EN"
 "http://www.w3.org/TR/2001/REC-SVG-20010904/DTD/svg10.dtd">
<svg version="1.0" xmlns="http://www.w3.org/2000/svg"
 width="32.000000pt" height="32.000000pt" viewBox="0 0 32.000000 32.000000"
 preserveAspectRatio="xMidYMid meet">
<metadata>
Created by potrace 1.16, written by Peter Selinger 2001-2019
</metadata>
<g transform="translate(0.000000,32.000000) scale(0.100000,-0.100000)"
fill="#000000" stroke="none">
<path fill="#000000" stroke="none" d="M100 277 c-26 -21 -60 -75 -60 -96 0
-11 8 -22 18 -25 14 -5 17 -14 14 -39 -6 -50 27 -101 66 -105 45 -5 79 23 112
90 35 69 36 81 14 99 -9 8 -27 31 -40 51 -27 42 -49 49 -59 18 -3 -11 -10 -20
-15 -20 -5 0 -12 9 -15 20 -7 23 -14 24 -35 7z"/>
<path fill="#ffffff" stroke="none" d="M74 194 c7 -19 -2 -37 -15 -29 -12 8
-12 45 0 45 5 0 12 -7 15 -16z"/>
<path fill="#ffffff" stroke="none" d="M257 153 c-16 -16 -17 -16 -17 3 0 26
11 37 24 24 7 -7 5 -16 -7 -27z"/>
</g>
</svg>
