<?xml version="1.0" standalone="no"?>
<!DOCTYPE svg PUBLIC "-//W3C//DTD SVG 20010904//EN"
 "http://www.w3.org/TR/2001/REC-SVG-20010904/DTD/svg10.dtd">
<svg version="1.0" xmlns="http://www.w3.org/2000/svg"
 width="32.000000pt" height="32.000000pt" viewBox="0 0 32.000000 32.000000"
 preserveAspectRatio="xMidYMid meet">
<metadata>
Created by potrace 1.16, written by Peter Selinger 2001-2019
</metadata>
<g transform="translate(0.000000,32.000000) scale(0.100000,-0.100000)"
fill="#000000" stroke="none">
<path fill="#000000" stroke="none" d="M95 290 c-44 -17 -49 -36 -49 -159 l1
-116 131 -3 132 -3 0 26 c0 18 -5 25 -20 25 -11 0 -20 7 -20 15 0 8 -5 15 -12
15 -6 0 -9 3 -5 6 3 3 -1 24 -9 46 -13 36 -12 43 1 58 23 25 18 45 -16 74 -32
27 -91 34 -134 16z"/>
<path fill="#ffffff" stroke="none" d="M221 261 c28 -28 31 -61 7 -61 -6 0 -4
7 3 17 13 15 12 15 -9 4 -12 -7 -20 -16 -17 -20 7 -12 -22 -34 -35 -26 -13 8
-13 0 0 -47 10 -33 8 -42 -12 -69 l-23 -31 -8 44 c-5 23 -9 49 -9 56 -1 6 -7
12 -15 12 -7 0 -13 5 -13 11 0 6 8 8 18 5 9 -3 24 -1 32 4 13 8 13 11 -2 26
-14 14 -20 15 -32 5 -9 -7 -23 -11 -31 -7 -9 3 -15 0 -15 -9 0 -8 4 -15 8 -15
9 0 8 -107 0 -115 -9 -9 -17 149 -9 185 13 65 109 84 162 31z"/>
<path fill="#ffffff" stroke="none" d="M229 128 c18 -42 18 -43 -3 -69 -12
-15 -24 -25 -27 -23 -9 5 -21 113 -14 125 12 19 26 8 44 -33z"/>
<path fill="#ffffff" stroke="none" d="M120 61 c0 -14 -29 -21 -36 -9 -4 6 -3
8 4 4 6 -3 13 -2 17 4 8 12 15 13 15 1z"/>
<path fill="#000000" stroke="none" d="M136 261 c-17 -19 -17 -19 1 -15 11 3
20 12 20 20 0 18 0 18 -21 -5z"/>
<path fill="#000000" stroke="none" d="M96 213 c-6 -14 -5 -15 5 -6 7 7 10 15
7 18 -3 3 -9 -2 -12 -12z"/>
<path fill="#000000" stroke="none" d="M155 220 c-8 -13 -1 -24 14 -19 6 3 7
10 2 18 -6 10 -10 10 -16 1z"/>
</g>
</svg>
