<?xml version="1.0" standalone="no"?>
<!DOCTYPE svg PUBLIC "-//W3C//DTD SVG 20010904//EN"
 "http://www.w3.org/TR/2001/REC-SVG-20010904/DTD/svg10.dtd">
<svg version="1.0" xmlns="http://www.w3.org/2000/svg"
 width="32.000000pt" height="32.000000pt" viewBox="0 0 32.000000 32.000000"
 preserveAspectRatio="xMidYMid meet">
<metadata>
Created by potrace 1.16, written by Peter Selinger 2001-2019
</metadata>
<g transform="translate(0.000000,32.000000) scale(0.100000,-0.100000)"
fill="#000000" stroke="none">
<path fill="#000000" stroke="none" d="M103 244 c-18 -9 -39 -31 -48 -51 -46
-96 53 -194 148 -148 35 16 67 65 67 100 0 34 -32 84 -65 99 -41 20 -61 20
-102 0z"/>
<path fill="#ffffff" stroke="none" d="M229 215 c38 -37 37 -104 -2 -142 -56
-57 -158 -26 -173 51 -5 31 11 94 23 83 3 -3 14 4 25 16 11 12 17 15 13 7 -3
-8 0 -7 7 3 18 25 74 16 107 -18z"/>
<path fill="#000000" stroke="none" d="M87 191 c-24 -41 -21 -66 9 -90 34 -27
57 -26 90 2 21 19 26 29 20 50 -9 39 -35 59 -67 55 -16 -3 -30 -1 -31 4 -2 5
-11 -4 -21 -21z"/>
<path fill="#ffffff" stroke="none" d="M178 178 c15 -15 15 -51 0 -66 -15 -15
-61 -15 -76 0 -7 7 -12 21 -12 33 0 28 19 45 50 45 14 0 31 -5 38 -12z"/>
<path fill="#000000" stroke="none" d="M113 168 c-13 -22 -11 -34 8 -46 13 -9
20 -9 25 0 5 7 3 8 -6 3 -9 -5 -11 -4 -6 4 6 9 11 9 24 -1 10 -8 13 -9 9 -1
-4 6 -2 15 4 19 9 5 7 11 -6 21 -23 16 -42 17 -52 1z"/>
</g>
</svg>
