<?xml version="1.0" standalone="no"?>
<!DOCTYPE svg PUBLIC "-//W3C//DTD SVG 20010904//EN"
 "http://www.w3.org/TR/2001/REC-SVG-20010904/DTD/svg10.dtd">
<svg version="1.0" xmlns="http://www.w3.org/2000/svg"
 width="32.000000pt" height="32.000000pt" viewBox="0 0 32.000000 32.000000"
 preserveAspectRatio="xMidYMid meet">
<metadata>
Created by potrace 1.16, written by Peter Selinger 2001-2019
</metadata>
<g transform="translate(0.000000,32.000000) scale(0.100000,-0.100000)"
fill="#000000" stroke="none">
<path fill="#000000" stroke="none" d="M121 264 c-19 -13 -47 -24 -63 -24 -30
0 -35 -20 -7 -28 11 -3 11 -2 -1 7 -12 9 -10 11 11 11 14 0 43 11 63 25 l36
24 36 -24 c20 -14 49 -25 63 -25 21 0 23 -2 11 -11 -12 -9 -12 -10 -1 -7 28 8
23 28 -7 28 -16 0 -46 11 -66 25 -20 14 -38 25 -39 24 -1 0 -17 -12 -36 -25z"/>
<path fill="#000000" stroke="none" d="M126 232 c-7 -12 28 -22 54 -15 11 3
17 9 14 15 -3 5 -12 4 -20 -3 -11 -9 -17 -9 -28 0 -8 7 -17 8 -20 3z"/>
<path fill="#000000" stroke="none" d="M61 177 c-2 -40 21 -87 63 -126 35 -34
36 -34 56 -16 11 10 20 15 20 11 0 -3 23 5 50 19 l50 25 0 -35 c0 -19 5 -35
10 -35 6 0 10 33 10 80 0 47 -4 80 -10 80 -5 0 -10 -4 -10 -10 0 -5 -6 -10
-14 -10 -8 0 -20 -15 -26 -34 -6 -19 -17 -40 -25 -46 -8 -7 -6 3 6 27 10 20
18 51 18 68 -2 26 -2 27 -6 5 -9 -55 -25 -88 -58 -120 l-35 -34 -35 34 c-33
32 -49 65 -58 120 -4 24 -4 24 -6 -3z"/>
</g>
</svg>
