<?xml version="1.0" standalone="no"?>
<!DOCTYPE svg PUBLIC "-//W3C//DTD SVG 20010904//EN"
 "http://www.w3.org/TR/2001/REC-SVG-20010904/DTD/svg10.dtd">
<svg version="1.0" xmlns="http://www.w3.org/2000/svg"
 width="32.000000pt" height="32.000000pt" viewBox="0 0 32.000000 32.000000"
 preserveAspectRatio="xMidYMid meet">
<metadata>
Created by potrace 1.16, written by Peter Selinger 2001-2019
</metadata>
<g transform="translate(0.000000,32.000000) scale(0.100000,-0.100000)"
fill="#000000" stroke="none">
<path fill="#000000" stroke="none" d="M60 200 c0 -35 -14 -40 -26 -7 -6 17
-8 10 -11 -31 -5 -61 5 -78 54 -99 59 -24 144 -13 185 24 17 15 17 17 0 29
-16 12 -16 12 3 11 17 -2 21 5 23 41 2 29 0 42 -7 37 -6 -3 -11 -15 -11 -25 0
-13 -5 -17 -15 -14 -9 4 -15 19 -15 35 0 16 -4 29 -10 29 -5 0 -10 -11 -10
-25 0 -30 -14 -32 -37 -5 -20 23 -39 26 -50 6 -4 -7 -18 -17 -30 -20 -20 -6
-23 -4 -23 18 0 14 -4 26 -10 26 -5 0 -10 -13 -10 -30z"/>
<path fill="#ffffff" stroke="none" d="M142 130 c-2 -16 -8 -30 -13 -30 -5 0
-9 14 -9 30 0 18 5 30 13 30 9 0 12 -10 9 -30z"/>
<path fill="#ffffff" stroke="none" d="M200 130 c0 -16 -4 -30 -9 -30 -5 0
-11 14 -13 30 -3 20 0 30 9 30 8 0 13 -12 13 -30z"/>
<path fill="#ffffff" stroke="none" d="M100 129 c0 -18 -2 -19 -15 -9 -10 8
-15 9 -15 2 0 -6 -7 -9 -15 -6 -14 6 -13 8 2 20 26 20 43 17 43 -7z"/>
<path fill="#ffffff" stroke="none" d="M232 118 c-9 -9 -12 -7 -12 12 0 19 3
21 12 12 9 -9 9 -15 0 -24z"/>
<path fill="#ffffff" stroke="none" d="M204 81 c3 -5 -1 -11 -9 -14 -9 -4 -12
-1 -8 9 6 16 10 17 17 5z"/>
</g>
</svg>
