<?xml version="1.0" standalone="no"?>
<!DOCTYPE svg PUBLIC "-//W3C//DTD SVG 20010904//EN"
 "http://www.w3.org/TR/2001/REC-SVG-20010904/DTD/svg10.dtd">
<svg version="1.0" xmlns="http://www.w3.org/2000/svg"
 width="32.000000pt" height="32.000000pt" viewBox="0 0 32.000000 32.000000"
 preserveAspectRatio="xMidYMid meet">
<metadata>
Created by potrace 1.16, written by Peter Selinger 2001-2019
</metadata>
<g transform="translate(0.000000,32.000000) scale(0.100000,-0.100000)"
fill="#000000" stroke="none">
<path fill="#000000" stroke="none" d="M1 188 c1 -73 4 -122 6 -108 7 35 27
55 71 69 64 20 72 31 59 79 -15 56 1 72 79 79 80 7 91 -5 76 -83 -13 -64 -6
-140 14 -148 11 -4 14 18 14 119 l0 125 -160 0 -160 0 1 -132z"/>
<path fill="#000000" stroke="none" d="M220 226 c0 -2 7 -7 16 -10 8 -3 12 -2
9 4 -6 10 -25 14 -25 6z"/>
<path fill="#000000" stroke="none" d="M217 189 c7 -7 15 -10 18 -7 3 3 -2 9
-12 12 -14 6 -15 5 -6 -5z"/>
<path fill="#000000" stroke="none" d="M49 58 c-6 -21 -5 -38 1 -38 5 0 8 9 7
20 -1 17 -5 26 -8 18z"/>
<path fill="#000000" stroke="none" d="M89 33 c-1 -5 -1 -12 0 -17 1 -4 -19
-5 -44 -2 -29 5 -45 4 -45 -3 0 -7 54 -11 160 -11 140 0 160 2 160 16 0 12 -5
14 -17 9 -37 -16 -132 -18 -150 -4 -11 10 -14 10 -9 2 4 -8 2 -13 -8 -13 -24
0 -46 11 -40 21 3 5 3 9 0 9 -3 0 -7 -3 -7 -7z"/>
</g>
</svg>
