<?xml version="1.0" standalone="no"?>
<!DOCTYPE svg PUBLIC "-//W3C//DTD SVG 20010904//EN"
 "http://www.w3.org/TR/2001/REC-SVG-20010904/DTD/svg10.dtd">
<svg version="1.0" xmlns="http://www.w3.org/2000/svg"
 width="32.000000pt" height="32.000000pt" viewBox="0 0 32.000000 32.000000"
 preserveAspectRatio="xMidYMid meet">
<metadata>
Created by potrace 1.16, written by Peter Selinger 2001-2019
</metadata>
<g transform="translate(0.000000,32.000000) scale(0.100000,-0.100000)"
fill="#000000" stroke="none">
<path fill="#000000" stroke="none" d="M2 163 l-2 -163 56 0 c48 0 55 2 45 14
-7 8 -21 13 -31 11 -24 -5 -52 27 -49 57 1 13 -1 30 -4 38 -4 8 -8 58 -10 110
-2 61 -4 37 -5 -67z"/>
<path fill="#000000" stroke="none" d="M282 219 c3 -71 1 -105 -9 -117 -18
-25 -16 -29 17 -34 l30 -5 0 129 c0 123 -1 128 -21 128 -20 0 -20 -4 -17 -101z"/>
<path fill="#000000" stroke="none" d="M67 223 c-4 -3 -7 -15 -7 -25 0 -17 1
-17 19 -1 11 9 18 20 15 25 -6 10 -18 10 -27 1z"/>
<path fill="#000000" stroke="none" d="M150 215 c-18 -22 0 -39 24 -22 15 11
16 15 3 25 -11 10 -17 9 -27 -3z"/>
<path fill="#000000" stroke="none" d="M20 143 c0 -26 1 -26 15 -7 19 25 19
34 0 34 -10 0 -15 -10 -15 -27z"/>
<path fill="#000000" stroke="none" d="M226 152 c-2 -4 7 -17 20 -29 21 -19
24 -19 24 -4 0 28 -32 52 -44 33z"/>
<path fill="#000000" stroke="none" d="M73 78 c-6 -7 -13 -20 -16 -28 -4 -10
-6 -7 -6 8 -1 12 -5 22 -11 22 -14 0 -12 -27 3 -37 24 -15 37 -11 43 13 8 29
1 40 -13 22z"/>
<path fill="#000000" stroke="none" d="M125 36 c17 -14 39 -26 50 -26 11 0 34
12 50 26 21 18 23 21 5 10 -31 -20 -79 -20 -110 0 -18 11 -16 8 5 -10z"/>
<path fill="#000000" stroke="none" d="M290 35 c-15 -8 -19 -14 -10 -14 18 -1
46 16 40 23 -3 2 -16 -2 -30 -9z"/>
</g>
</svg>
