<?xml version="1.0" standalone="no"?>
<!DOCTYPE svg PUBLIC "-//W3C//DTD SVG 20010904//EN"
 "http://www.w3.org/TR/2001/REC-SVG-20010904/DTD/svg10.dtd">
<svg version="1.0" xmlns="http://www.w3.org/2000/svg"
 width="32.000000pt" height="32.000000pt" viewBox="0 0 32.000000 32.000000"
 preserveAspectRatio="xMidYMid meet">
<metadata>
Created by potrace 1.16, written by Peter Selinger 2001-2019
</metadata>
<g transform="translate(0.000000,32.000000) scale(0.100000,-0.100000)"
fill="#000000" stroke="none">
<path fill="#000000" stroke="none" d="M0 160 l0 -160 160 0 160 0 0 160 0
160 -160 0 -160 0 0 -160z"/>
<path fill="#ffffff" stroke="none" d="M229 274 c34 -29 39 -49 16 -74 -13
-15 -14 -22 -1 -58 8 -22 12 -43 9 -46 -4 -3 -1 -6 5 -6 7 0 12 -7 12 -15 0
-8 9 -15 20 -15 15 0 20 -7 20 -25 l0 -26 -131 3 -132 3 -2 75 c-1 41 0 103 3
137 5 61 5 62 36 66 86 11 114 7 145 -19z"/>
<path fill="#000000" stroke="none" d="M95 278 c-26 -15 -35 -28 -35 -53 0
-31 19 -46 40 -33 23 15 52 3 48 -19 -2 -12 -13 -18 -30 -18 -15 1 -24 -3 -22
-7 8 -13 41 -9 54 7 26 31 -16 69 -52 46 -17 -10 -18 -9 -12 16 3 16 17 38 31
51 25 23 12 29 -22 10z"/>
<path fill="#000000" stroke="none" d="M165 279 c-10 -15 0 -21 27 -17 l23 3
-22 13 c-15 8 -24 9 -28 1z"/>
<path fill="#000000" stroke="none" d="M133 243 c-7 -2 -13 -9 -13 -14 0 -14
26 -10 40 6 10 12 10 15 -1 14 -8 0 -20 -3 -26 -6z"/>
<path fill="#000000" stroke="none" d="M199 233 c-13 -15 -12 -15 9 -4 23 12
28 21 13 21 -5 0 -15 -7 -22 -17z"/>
<path fill="#000000" stroke="none" d="M51 174 c0 -11 3 -14 6 -6 3 7 2 16 -1
19 -3 4 -6 -2 -5 -13z"/>
<path fill="#000000" stroke="none" d="M189 123 c12 -24 31 -39 31 -25 0 5
-10 17 -21 28 -22 19 -22 19 -10 -3z"/>
<path fill="#000000" stroke="none" d="M123 116 c4 -10 7 -32 7 -49 1 -26 2
-29 11 -15 11 19 3 65 -14 75 -7 4 -8 0 -4 -11z"/>
<path fill="#000000" stroke="none" d="M150 121 c0 -5 5 -13 10 -16 6 -3 10
-2 10 4 0 5 -4 13 -10 16 -5 3 -10 2 -10 -4z"/>
<path fill="#000000" stroke="none" d="M63 85 c0 -22 2 -30 4 -17 2 12 2 30 0
40 -3 9 -5 -1 -4 -23z"/>
<path fill="#000000" stroke="none" d="M100 55 c-11 -13 -10 -14 4 -9 9 3 16
10 16 15 0 13 -6 11 -20 -6z"/>
</g>
</svg>
