<?xml version="1.0" standalone="no"?>
<!DOCTYPE svg PUBLIC "-//W3C//DTD SVG 20010904//EN"
 "http://www.w3.org/TR/2001/REC-SVG-20010904/DTD/svg10.dtd">
<svg version="1.0" xmlns="http://www.w3.org/2000/svg"
 width="32.000000pt" height="32.000000pt" viewBox="0 0 32.000000 32.000000"
 preserveAspectRatio="xMidYMid meet">
<metadata>
Created by potrace 1.16, written by Peter Selinger 2001-2019
</metadata>
<g transform="translate(0.000000,32.000000) scale(0.100000,-0.100000)"
fill="#000000" stroke="none">
<path fill="#000000" stroke="none" d="M0 160 c0 -153 1 -160 20 -160 11 0 20
6 20 14 0 21 23 26 120 26 97 0 120 -5 120 -26 0 -8 9 -14 20 -14 19 0 20 7
20 160 l0 160 -160 0 -160 0 0 -160z"/>
<path fill="#ffffff" stroke="none" d="M223 244 c6 -10 18 -24 27 -31 21 -15
20 -91 -1 -107 -9 -6 -21 -21 -27 -32 -9 -17 -21 -21 -62 -21 -41 0 -53 4 -62
21 -6 11 -18 26 -27 32 -21 16 -22 92 -1 107 9 7 22 21 27 32 16 29 110 28
126 -1z"/>
<path fill="#000000" stroke="none" d="M110 246 c0 -8 -10 -23 -22 -33 -29
-23 -32 -82 -5 -102 10 -7 22 -23 27 -35 7 -17 9 -15 9 17 1 34 -1 37 -26 38
l-28 1 30 8 c17 4 24 8 18 9 -7 0 -13 7 -13 15 0 8 -8 17 -17 19 -11 3 -7 5
10 6 24 1 27 5 27 36 0 19 -2 35 -5 35 -3 0 -5 -6 -5 -14z"/>
<path fill="#000000" stroke="none" d="M201 229 c-1 -33 2 -37 29 -41 35 -5
38 2 10 20 -12 7 -25 23 -30 35 -8 19 -9 17 -9 -14z"/>
<path fill="#000000" stroke="none" d="M148 243 c7 -3 16 -2 19 1 4 3 -2 6
-13 5 -11 0 -14 -3 -6 -6z"/>
<path fill="#000000" stroke="none" d="M132 211 c4 -13 18 -16 19 -4 0 4 -5 9
-11 12 -7 2 -11 -2 -8 -8z"/>
<path fill="#000000" stroke="none" d="M210 160 c0 -11 7 -20 15 -20 8 0 15 9
15 20 0 11 -7 20 -15 20 -8 0 -15 -9 -15 -20z"/>
<path fill="#000000" stroke="none" d="M183 127 c-3 -5 -16 -7 -29 -4 -20 3
-24 0 -24 -19 0 -20 5 -24 30 -24 26 0 30 4 31 28 2 21 3 18 9 -13 4 -22 8
-32 9 -23 0 9 12 25 26 36 14 11 25 21 25 23 0 8 -72 4 -77 -4z"/>
</g>
</svg>
