<?xml version="1.0" standalone="no"?>
<!DOCTYPE svg PUBLIC "-//W3C//DTD SVG 20010904//EN"
 "http://www.w3.org/TR/2001/REC-SVG-20010904/DTD/svg10.dtd">
<svg version="1.0" xmlns="http://www.w3.org/2000/svg"
 width="32.000000pt" height="32.000000pt" viewBox="0 0 32.000000 32.000000"
 preserveAspectRatio="xMidYMid meet">
<metadata>
Created by potrace 1.16, written by Peter Selinger 2001-2019
</metadata>
<g transform="translate(0.000000,32.000000) scale(0.100000,-0.100000)"
fill="#000000" stroke="none">
<path fill="#000000" stroke="none" d="M145 250 c-4 -16 -13 -30 -21 -30 -26
0 -54 -39 -54 -75 0 -46 29 -75 75 -75 46 0 75 29 75 75 0 34 -27 75 -50 75
-5 0 -10 7 -10 16 0 11 5 14 18 9 30 -13 104 -25 114 -19 15 10 -12 33 -53 45
-30 9 -42 9 -54 -1 -10 -8 -15 -9 -15 -1 0 24 -19 10 -25 -19z"/>
<path fill="#ffffff" stroke="none" d="M285 232 c-3 -3 -11 0 -18 7 -9 10 -8
11 6 5 10 -3 15 -9 12 -12z"/>
</g>
</svg>
