<?xml version="1.0" standalone="no"?>
<!DOCTYPE svg PUBLIC "-//W3C//DTD SVG 20010904//EN"
 "http://www.w3.org/TR/2001/REC-SVG-20010904/DTD/svg10.dtd">
<svg version="1.0" xmlns="http://www.w3.org/2000/svg"
 width="32.000000pt" height="32.000000pt" viewBox="0 0 32.000000 32.000000"
 preserveAspectRatio="xMidYMid meet">
<metadata>
Created by potrace 1.16, written by Peter Selinger 2001-2019
</metadata>
<g transform="translate(0.000000,32.000000) scale(0.100000,-0.100000)"
fill="#000000" stroke="none">
<path fill="#000000" stroke="none" d="M0 160 l0 -160 160 0 160 0 0 160 0
160 -160 0 -160 0 0 -160z"/>
<path fill="#ffffff" stroke="none" d="M230 300 c-8 -5 -19 -10 -25 -10 -5 0
-3 5 5 10 8 5 20 10 25 10 6 0 3 -5 -5 -10z"/>
<path fill="#ffffff" stroke="none" d="M193 250 c3 -11 1 -20 -4 -20 -5 0 -9
9 -9 20 0 11 2 20 4 20 2 0 6 -9 9 -20z"/>
<path fill="#ffffff" stroke="none" d="M274 254 c24 -9 19 -33 -9 -46 -20 -9
-28 -9 -38 1 -9 10 -8 11 8 5 16 -5 18 -4 8 6 -12 13 -7 40 7 40 5 0 15 -3 24
-6z"/>
<path fill="#ffffff" stroke="none" d="M219 175 c-16 -9 -17 -13 -7 -25 11
-12 10 -12 -3 -2 -13 10 -19 9 -29 -3 -9 -11 -9 -15 -1 -15 7 0 9 -5 4 -12 -4
-7 -8 -15 -9 -18 0 -3 -4 -13 -8 -23 -5 -9 -6 -26 -3 -37 3 -11 1 -20 -4 -20
-13 0 -11 54 2 67 8 8 6 15 -9 24 -11 7 -18 18 -15 26 3 7 9 10 14 7 16 -10
31 6 19 21 -8 10 -6 13 7 11 11 0 18 5 17 15 -1 13 3 14 22 5 22 -11 22 -11 3
-21z"/>
<path fill="#ffffff" stroke="none" d="M120 136 c0 -6 -7 -1 -16 10 -14 18
-15 18 -12 -11 4 -27 1 -31 -22 -32 -14 0 -17 1 -7 4 9 2 17 13 17 23 0 10 3
26 6 34 6 15 8 15 20 -1 7 -10 14 -22 14 -27z"/>
<path fill="#ffffff" stroke="none" d="M257 113 c-3 -10 -5 -4 -5 12 0 17 2
24 5 18 2 -7 2 -21 0 -30z"/>
<path fill="#ffffff" stroke="none" d="M226 52 c-17 -16 -18 -16 -5 5 7 12 15
20 18 17 3 -2 -3 -12 -13 -22z"/>
</g>
</svg>
