<?xml version="1.0" standalone="no"?>
<!DOCTYPE svg PUBLIC "-//W3C//DTD SVG 20010904//EN"
 "http://www.w3.org/TR/2001/REC-SVG-20010904/DTD/svg10.dtd">
<svg version="1.0" xmlns="http://www.w3.org/2000/svg"
 width="32.000000pt" height="32.000000pt" viewBox="0 0 32.000000 32.000000"
 preserveAspectRatio="xMidYMid meet">
<metadata>
Created by potrace 1.16, written by Peter Selinger 2001-2019
</metadata>
<g transform="translate(0.000000,32.000000) scale(0.100000,-0.100000)"
fill="#000000" stroke="none">
<path fill="#000000" stroke="none" d="M33 203 c9 -2 25 -2 35 0 9 3 1 5 -18
5 -19 0 -27 -2 -17 -5z"/>
<path fill="#000000" stroke="none" d="M127 196 c-4 -9 -3 -15 2 -11 5 3 12 1
16 -4 8 -14 42 -9 42 6 0 10 -4 10 -11 3 -14 -14 -29 -13 -20 2 4 6 3 8 -4 4
-5 -3 -12 -1 -14 6 -3 7 -7 5 -11 -6z"/>
<path fill="#000000" stroke="none" d="M93 174 c-6 -17 7 -34 28 -37 8 -2 20
-6 27 -11 8 -5 18 -3 25 4 9 10 9 11 0 6 -18 -10 -39 4 -23 14 8 5 7 9 -4 13
-9 4 -15 3 -13 -1 2 -8 -6 -12 -24 -12 -6 0 -9 9 -6 20 6 24 -1 27 -10 4z"/>
<path fill="#000000" stroke="none" d="M266 147 c3 -10 9 -15 12 -12 3 3 0 11
-7 18 -10 9 -11 8 -5 -6z"/>
<path fill="#000000" stroke="none" d="M70 110 c-21 -16 -23 -22 -14 -37 10
-14 51 -22 59 -10 7 8 15 60 9 55 -4 -4 -12 -4 -18 1 -7 6 -20 3 -36 -9z"/>
<path fill="#ffffff" stroke="none" d="M80 90 c0 -5 -4 -10 -10 -10 -5 0 -10
5 -10 10 0 6 5 10 10 10 6 0 10 -4 10 -10z"/>
<path fill="#ffffff" stroke="none" d="M110 80 c0 -5 -4 -10 -10 -10 -5 0 -10
5 -10 10 0 6 5 10 10 10 6 0 10 -4 10 -10z"/>
<path fill="#000000" stroke="none" d="M180 97 c14 -8 27 -12 30 -10 7 6 -23
23 -40 23 -8 0 -4 -6 10 -13z"/>
<path fill="#000000" stroke="none" d="M245 90 c-25 -27 -10 -39 16 -13 12 11
17 23 11 27 -5 3 -17 -3 -27 -14z"/>
<path fill="#ffffff" stroke="none" d="M270 96 c0 -2 -8 -10 -17 -17 -16 -13
-17 -12 -4 4 13 16 21 21 21 13z"/>
</g>
</svg>
