<?xml version="1.0" standalone="no"?>
<!DOCTYPE svg PUBLIC "-//W3C//DTD SVG 20010904//EN"
 "http://www.w3.org/TR/2001/REC-SVG-20010904/DTD/svg10.dtd">
<svg version="1.0" xmlns="http://www.w3.org/2000/svg"
 width="32.000000pt" height="32.000000pt" viewBox="0 0 32.000000 32.000000"
 preserveAspectRatio="xMidYMid meet">
<metadata>
Created by potrace 1.16, written by Peter Selinger 2001-2019
</metadata>
<g transform="translate(0.000000,32.000000) scale(0.100000,-0.100000)"
fill="#000000" stroke="none">
<path fill="#000000" stroke="none" d="M0 259 c0 -52 2 -60 16 -55 10 4 14 2
11 -6 -2 -7 -10 -12 -16 -10 -7 1 -11 -28 -11 -93 l0 -95 160 0 160 0 0 160 0
160 -160 0 -160 0 0 -61z"/>
<path fill="#ffffff" stroke="none" d="M139 274 c10 -9 -35 -3 -49 6 -11 8 -7
9 15 4 17 -4 32 -8 34 -10z"/>
<path fill="#ffffff" stroke="none" d="M201 209 c-5 -13 -10 -19 -10 -12 -1
15 10 45 15 40 3 -2 0 -15 -5 -28z"/>
<path fill="#ffffff" stroke="none" d="M99 227 c-2 -1 -15 -11 -29 -22 l-25
-20 19 23 c11 12 24 22 29 22 6 0 8 -1 6 -3z"/>
<path fill="#ffffff" stroke="none" d="M249 217 c6 -8 8 -17 4 -20 -7 -8 -33
11 -33 24 0 13 16 11 29 -4z"/>
<path fill="#ffffff" stroke="none" d="M118 207 c-24 -19 -7 -40 24 -32 15 4
29 2 32 -4 4 -7 1 -9 -8 -5 -24 9 -44 -8 -20 -18 18 -7 18 -8 -1 -6 -11 2 -27
-2 -35 -7 -13 -7 -13 -6 -2 7 8 10 9 19 3 22 -5 4 -17 -4 -25 -16 -9 -12 -16
-17 -16 -11 0 6 7 16 15 23 8 7 15 17 15 23 0 5 -10 2 -21 -9 -22 -19 -22 -19
-8 3 7 12 22 26 34 32 28 13 33 13 13 -2z"/>
<path fill="#ffffff" stroke="none" d="M160 196 c0 -2 -9 -6 -20 -9 -11 -3
-18 -1 -14 4 5 9 34 13 34 5z"/>
<path fill="#ffffff" stroke="none" d="M292 193 c-6 -2 -9 -10 -6 -15 4 -7 2
-8 -5 -4 -13 9 -5 26 12 25 9 0 8 -2 -1 -6z"/>
<path fill="#ffffff" stroke="none" d="M246 113 c3 -24 0 -33 -10 -33 -8 0
-18 5 -21 10 -3 6 -15 10 -26 10 -12 0 -19 7 -19 19 0 22 15 31 49 28 19 -2
25 -9 27 -34z"/>
<path fill="#ffffff" stroke="none" d="M123 113 c-7 -2 -21 -2 -30 0 -10 3 -4
5 12 5 17 0 24 -2 18 -5z"/>
<path fill="#ffffff" stroke="none" d="M74 89 c17 2 34 -12 29 -25 -4 -10 0
-12 11 -8 9 3 16 1 16 -5 0 -6 5 -10 11 -9 6 2 14 -4 16 -12 4 -13 3 -13 -6 0
-10 13 -11 13 -11 0 0 -13 -1 -13 -10 0 -6 10 -10 11 -10 2 0 -6 -16 5 -35 27
-19 21 -35 42 -35 47 0 5 4 3 9 -4 4 -8 11 -13 15 -13z"/>
<path fill="#ffffff" stroke="none" d="M239 65 c12 2 19 0 16 -6 -10 -15 -41
-10 -56 9 -12 15 -12 16 2 5 8 -7 25 -11 38 -8z"/>
<path fill="#000000" stroke="none" d="M200 120 c0 -5 5 -10 10 -10 6 0 10 5
10 10 0 6 -4 10 -10 10 -5 0 -10 -4 -10 -10z"/>
</g>
</svg>
