<?xml version="1.0" standalone="no"?>
<!DOCTYPE svg PUBLIC "-//W3C//DTD SVG 20010904//EN"
 "http://www.w3.org/TR/2001/REC-SVG-20010904/DTD/svg10.dtd">
<svg version="1.0" xmlns="http://www.w3.org/2000/svg"
 width="32.000000pt" height="32.000000pt" viewBox="0 0 32.000000 32.000000"
 preserveAspectRatio="xMidYMid meet">
<metadata>
Created by potrace 1.16, written by Peter Selinger 2001-2019
</metadata>
<g transform="translate(0.000000,32.000000) scale(0.100000,-0.100000)"
fill="#000000" stroke="none">
<path fill="#000000" stroke="none" d="M0 160 l0 -160 160 0 160 0 0 160 0
160 -160 0 -160 0 0 -160z"/>
<path fill="#ffffff" stroke="none" d="M155 170 c-27 -12 -43 -12 -25 0 8 5
22 9 30 9 10 0 8 -3 -5 -9z"/>
<path fill="#ffffff" stroke="none" d="M174 137 c16 -12 16 -14 2 -14 -9 0
-16 5 -16 10 0 5 -11 7 -25 5 -13 -3 -22 -1 -19 3 8 13 38 11 58 -4z"/>
<path fill="#ffffff" stroke="none" d="M238 118 c18 -18 14 -30 -7 -19 -10 6
-21 7 -25 4 -3 -3 -6 -2 -6 4 0 23 20 29 38 11z"/>
<path fill="#ffffff" stroke="none" d="M133 73 c-7 -2 -19 -2 -25 0 -7 3 -2 5
12 5 14 0 19 -2 13 -5z"/>
</g>
</svg>
