<?xml version="1.0" standalone="no"?>
<!DOCTYPE svg PUBLIC "-//W3C//DTD SVG 20010904//EN"
 "http://www.w3.org/TR/2001/REC-SVG-20010904/DTD/svg10.dtd">
<svg version="1.0" xmlns="http://www.w3.org/2000/svg"
 width="32.000000pt" height="32.000000pt" viewBox="0 0 32.000000 32.000000"
 preserveAspectRatio="xMidYMid meet">
<metadata>
Created by potrace 1.16, written by Peter Selinger 2001-2019
</metadata>
<g transform="translate(0.000000,32.000000) scale(0.100000,-0.100000)"
fill="#000000" stroke="none">
<path fill="#000000" stroke="none" d="M0 160 l0 -160 160 0 160 0 0 160 0
160 -160 0 -160 0 0 -160z"/>
<path fill="#ffffff" stroke="none" d="M293 289 c14 -22 -12 -73 -40 -77 -31
-5 -66 33 -59 63 9 34 80 44 99 14z"/>
<path fill="#ffffff" stroke="none" d="M46 257 c-1 -34 -5 -43 -19 -45 -14 -1
-17 4 -12 16 3 9 9 29 12 45 8 42 20 32 19 -16z"/>
<path fill="#ffffff" stroke="none" d="M140 280 c-12 -8 -12 -11 3 -28 19 -21
11 -38 -10 -21 -22 19 -15 59 11 59 6 0 4 -4 -4 -10z"/>
<path fill="#ffffff" stroke="none" d="M124 211 c9 -11 8 -13 -4 -9 -8 2 -16
18 -17 34 -1 18 0 22 4 9 3 -11 10 -26 17 -34z"/>
<path fill="#ffffff" stroke="none" d="M200 221 c0 -6 -10 -17 -22 -25 -22
-16 -22 -16 -3 -31 11 -8 27 -15 35 -16 8 0 2 -5 -14 -9 -28 -9 -75 5 -62 18
4 3 12 0 18 -6 7 -7 16 -12 22 -12 5 0 1 8 -10 19 -20 20 -36 14 -55 -21 -7
-14 -6 -18 6 -18 9 0 13 4 10 10 -3 6 1 7 9 4 12 -5 13 -10 5 -26 -6 -11 -17
-17 -25 -14 -11 4 -11 2 -3 -12 8 -13 26 -17 79 -17 42 0 74 -6 84 -14 23 -19
12 -25 -16 -9 -13 9 -46 13 -78 12 -58 -2 -100 15 -100 41 0 8 -6 12 -14 9
-20 -8 -42 34 -27 49 9 9 16 9 29 0 25 -15 49 19 27 37 -8 7 -15 17 -15 23 0
6 7 2 15 -10 l15 -22 37 24 c38 27 53 31 53 16z"/>
<path fill="#ffffff" stroke="none" d="M240 183 c23 6 27 -11 4 -20 -20 -7
-67 14 -59 28 5 7 11 6 21 -2 8 -6 23 -9 34 -6z"/>
<path fill="#ffffff" stroke="none" d="M88 165 c-3 -3 -9 2 -12 12 -6 14 -5
15 5 6 7 -7 10 -15 7 -18z"/>
<path fill="#ffffff" stroke="none" d="M306 143 c-11 -12 -86 -32 -86 -23 0 4
10 12 23 18 25 12 74 16 63 5z"/>
<path fill="#ffffff" stroke="none" d="M36 95 c8 -20 -4 -65 -17 -65 -5 0 -9
18 -7 40 2 40 14 52 24 25z"/>
<path fill="#ffffff" stroke="none" d="M90 35 c10 -12 9 -15 -8 -15 -11 0 -22
7 -26 15 -3 9 0 15 8 15 7 0 19 -7 26 -15z"/>
</g>
</svg>
