<?xml version="1.0" standalone="no"?>
<!DOCTYPE svg PUBLIC "-//W3C//DTD SVG 20010904//EN"
 "http://www.w3.org/TR/2001/REC-SVG-20010904/DTD/svg10.dtd">
<svg version="1.0" xmlns="http://www.w3.org/2000/svg"
 width="32.000000pt" height="32.000000pt" viewBox="0 0 32.000000 32.000000"
 preserveAspectRatio="xMidYMid meet">
<metadata>
Created by potrace 1.16, written by Peter Selinger 2001-2019
</metadata>
<g transform="translate(0.000000,32.000000) scale(0.100000,-0.100000)"
fill="#000000" stroke="none">
<path fill="#000000" stroke="none" d="M228 303 c-38 -6 -47 -44 -18 -73 28
-28 61 -22 79 14 23 48 1 69 -61 59z"/>
<path fill="#000000" stroke="none" d="M27 273 c-3 -16 -9 -36 -12 -45 -5 -12
-2 -17 12 -16 14 2 18 11 19 45 1 48 -11 58 -19 16z"/>
<path fill="#000000" stroke="none" d="M127 283 c-12 -11 -8 -40 6 -52 21 -17
29 0 10 21 -15 17 -15 20 -3 28 8 6 10 10 4 10 -6 0 -14 -3 -17 -7z"/>
<path fill="#000000" stroke="none" d="M103 236 c1 -16 9 -32 17 -34 12 -4 13
-2 4 9 -7 8 -14 23 -17 34 -4 13 -5 9 -4 -9z"/>
<path fill="#000000" stroke="none" d="M147 205 l-37 -24 -15 22 c-8 12 -15
16 -15 10 0 -6 7 -16 15 -23 22 -18 -2 -52 -27 -37 -13 9 -20 9 -29 0 -15 -15
7 -57 27 -49 8 3 14 -1 14 -9 0 -26 42 -43 100 -41 32 1 65 -3 78 -12 28 -16
39 -10 16 9 -10 8 -42 14 -84 14 -53 0 -71 4 -79 17 -8 14 -8 16 3 12 8 -3 19
3 25 14 8 16 7 21 -5 26 -8 3 -12 2 -9 -4 3 -6 -1 -10 -10 -10 -12 0 -13 4 -6
18 19 35 35 41 55 21 11 -11 15 -19 10 -19 -6 0 -15 5 -22 12 -6 6 -14 9 -18
6 -13 -13 34 -27 62 -18 16 4 22 9 14 9 -8 1 -24 8 -35 16 -19 15 -19 15 3 31
22 15 29 34 13 34 -4 0 -24 -11 -44 -25z"/>
<path fill="#000000" stroke="none" d="M185 191 c-8 -14 39 -35 59 -28 23 9
19 26 -4 20 -11 -3 -26 0 -34 6 -10 8 -16 9 -21 2z"/>
<path fill="#000000" stroke="none" d="M76 177 c3 -10 9 -15 12 -12 3 3 0 11
-7 18 -10 9 -11 8 -5 -6z"/>
<path fill="#000000" stroke="none" d="M243 138 c-13 -6 -23 -14 -23 -18 0 -9
75 11 86 23 11 11 -38 7 -63 -5z"/>
<path fill="#000000" stroke="none" d="M12 70 c-2 -22 2 -40 7 -40 13 0 25 45
17 65 -10 27 -22 15 -24 -25z"/>
<path fill="#000000" stroke="none" d="M56 35 c4 -8 15 -15 26 -15 17 0 18 3
8 15 -7 8 -19 15 -26 15 -8 0 -11 -6 -8 -15z"/>
</g>
</svg>
