<?xml version="1.0" standalone="no"?>
<!DOCTYPE svg PUBLIC "-//W3C//DTD SVG 20010904//EN"
 "http://www.w3.org/TR/2001/REC-SVG-20010904/DTD/svg10.dtd">
<svg version="1.0" xmlns="http://www.w3.org/2000/svg"
 width="32.000000pt" height="32.000000pt" viewBox="0 0 32.000000 32.000000"
 preserveAspectRatio="xMidYMid meet">
<metadata>
Created by potrace 1.16, written by Peter Selinger 2001-2019
</metadata>
<g transform="translate(0.000000,32.000000) scale(0.100000,-0.100000)"
fill="#000000" stroke="none">
<path fill="#000000" stroke="none" d="M138 223 c-34 -37 -48 -66 -48 -100 0
-24 19 -73 20 -50 0 4 12 0 26 -10 25 -16 27 -16 41 3 7 10 16 29 20 42 3 12
9 22 14 22 5 0 9 14 9 30 0 17 -5 30 -12 30 -9 0 -9 3 0 12 15 15 -3 48 -26
48 -10 0 -30 -12 -44 -27z"/>
<path fill="#ffffff" stroke="none" d="M207 148 c-3 -7 -5 -2 -5 12 0 14 2 19
5 13 2 -7 2 -19 0 -25z"/>
<path fill="#000000" stroke="none" d="M201 88 c-10 -30 -9 -31 4 -14 8 11 15
26 15 33 0 22 -8 14 -19 -19z"/>
</g>
</svg>
