<?xml version="1.0" standalone="no"?>
<!DOCTYPE svg PUBLIC "-//W3C//DTD SVG 20010904//EN"
 "http://www.w3.org/TR/2001/REC-SVG-20010904/DTD/svg10.dtd">
<svg version="1.0" xmlns="http://www.w3.org/2000/svg"
 width="32.000000pt" height="32.000000pt" viewBox="0 0 32.000000 32.000000"
 preserveAspectRatio="xMidYMid meet">
<metadata>
Created by potrace 1.16, written by Peter Selinger 2001-2019
</metadata>
<g transform="translate(0.000000,32.000000) scale(0.100000,-0.100000)"
fill="#000000" stroke="none">
<path fill="#000000" stroke="none" d="M286 213 c-3 -3 -6 -18 -6 -33 0 -37
27 -35 28 1 1 29 -10 44 -22 32z"/>
<path fill="#000000" stroke="none" d="M10 201 c0 -6 5 -13 10 -16 8 -5 7 -11
-1 -21 -15 -18 -3 -32 13 -16 7 7 22 12 35 12 34 0 28 24 -10 38 -40 14 -47
15 -47 3z"/>
</g>
</svg>
