<?xml version="1.0" standalone="no"?>
<!DOCTYPE svg PUBLIC "-//W3C//DTD SVG 20010904//EN"
 "http://www.w3.org/TR/2001/REC-SVG-20010904/DTD/svg10.dtd">
<svg version="1.0" xmlns="http://www.w3.org/2000/svg"
 width="32.000000pt" height="32.000000pt" viewBox="0 0 32.000000 32.000000"
 preserveAspectRatio="xMidYMid meet">
<metadata>
Created by potrace 1.16, written by Peter Selinger 2001-2019
</metadata>
<g transform="translate(0.000000,32.000000) scale(0.100000,-0.100000)"
fill="#000000" stroke="none">
<path fill="#000000" stroke="none" d="M0 160 l0 -160 160 0 160 0 0 160 0
160 -160 0 -160 0 0 -160z"/>
<path fill="#ffffff" stroke="none" d="M219 265 c41 -14 53 -35 20 -35 -21 0
-21 -1 -5 -19 16 -17 16 -20 1 -35 -10 -9 -15 -23 -12 -30 8 -20 -85 -103
-123 -111 -45 -10 -59 7 -37 43 11 20 13 32 6 39 -8 8 -7 25 3 59 10 38 21 52
43 63 16 8 24 16 17 19 -6 2 -12 10 -12 19 0 16 30 12 99 -12z"/>
</g>
</svg>
