<?xml version="1.0" standalone="no"?>
<!DOCTYPE svg PUBLIC "-//W3C//DTD SVG 20010904//EN"
 "http://www.w3.org/TR/2001/REC-SVG-20010904/DTD/svg10.dtd">
<svg version="1.0" xmlns="http://www.w3.org/2000/svg"
 width="32.000000pt" height="32.000000pt" viewBox="0 0 32.000000 32.000000"
 preserveAspectRatio="xMidYMid meet">
<metadata>
Created by potrace 1.16, written by Peter Selinger 2001-2019
</metadata>
<g transform="translate(0.000000,32.000000) scale(0.100000,-0.100000)"
fill="#000000" stroke="none">
<path fill="#000000" stroke="none" d="M0 160 l0 -160 160 0 160 0 0 160 0
160 -160 0 -160 0 0 -160z"/>
<path fill="#ffffff" stroke="none" d="M245 231 c3 -5 0 -13 -6 -17 -8 -5 -9
-3 -4 6 6 9 4 11 -4 5 -9 -5 -10 -10 -2 -18 16 -16 14 -23 -16 -55 -33 -34
-99 -73 -108 -64 -4 4 -11 7 -16 7 -5 0 -9 3 -9 8 0 4 0 15 0 25 0 30 52 91
84 100 44 12 74 13 81 3z"/>
</g>
</svg>
