<?xml version="1.0" standalone="no"?>
<!DOCTYPE svg PUBLIC "-//W3C//DTD SVG 20010904//EN"
 "http://www.w3.org/TR/2001/REC-SVG-20010904/DTD/svg10.dtd">
<svg version="1.0" xmlns="http://www.w3.org/2000/svg"
 width="32.000000pt" height="32.000000pt" viewBox="0 0 32.000000 32.000000"
 preserveAspectRatio="xMidYMid meet">
<metadata>
Created by potrace 1.16, written by Peter Selinger 2001-2019
</metadata>
<g transform="translate(0.000000,32.000000) scale(0.100000,-0.100000)"
fill="#000000" stroke="none">
<path fill="#000000" stroke="none" d="M205 250 c-17 -18 -17 -20 -2 -14 9 3
17 10 17 14 0 5 8 11 18 13 14 4 14 5 1 6 -9 0 -24 -8 -34 -19z"/>
<path fill="#000000" stroke="none" d="M171 206 c-8 -10 -32 -26 -54 -38 -28
-14 -36 -23 -28 -31 7 -7 18 -7 38 3 16 7 31 14 35 14 3 1 10 5 15 10 5 5 2 6
-7 2 -8 -4 -7 -1 3 8 10 8 17 22 15 32 -3 16 -4 16 -17 0z"/>
</g>
</svg>
