<?xml version="1.0" standalone="no"?>
<!DOCTYPE svg PUBLIC "-//W3C//DTD SVG 20010904//EN"
 "http://www.w3.org/TR/2001/REC-SVG-20010904/DTD/svg10.dtd">
<svg version="1.0" xmlns="http://www.w3.org/2000/svg"
 width="32.000000pt" height="32.000000pt" viewBox="0 0 32.000000 32.000000"
 preserveAspectRatio="xMidYMid meet">
<metadata>
Created by potrace 1.16, written by Peter Selinger 2001-2019
</metadata>
<g transform="translate(0.000000,32.000000) scale(0.100000,-0.100000)"
fill="#000000" stroke="none">
<path fill="#000000" stroke="none" d="M0 160 l0 -160 160 0 160 0 0 160 0
160 -160 0 -160 0 0 -160z"/>
<path fill="#ffffff" stroke="none" d="M240 238 c49 -25 77 -65 66 -93 -5 -15
-14 -17 -58 -12 l-51 6 23 -24 c28 -30 20 -43 -33 -52 -70 -11 -167 46 -167
98 0 10 11 31 25 46 21 24 26 26 36 13 9 -13 10 -12 5 2 -4 13 3 20 27 27 52
15 80 12 127 -11z"/>
</g>
</svg>
