<?xml version="1.0" standalone="no"?>
<!DOCTYPE svg PUBLIC "-//W3C//DTD SVG 20010904//EN"
 "http://www.w3.org/TR/2001/REC-SVG-20010904/DTD/svg10.dtd">
<svg version="1.0" xmlns="http://www.w3.org/2000/svg"
 width="32.000000pt" height="32.000000pt" viewBox="0 0 32.000000 32.000000"
 preserveAspectRatio="xMidYMid meet">
<metadata>
Created by potrace 1.16, written by Peter Selinger 2001-2019
</metadata>
<g transform="translate(0.000000,32.000000) scale(0.100000,-0.100000)"
fill="#000000" stroke="none">
<path fill="#000000" stroke="none" d="M0 160 l0 -160 160 0 160 0 0 160 0
160 -160 0 -160 0 0 -160z"/>
<path fill="#ffffff" stroke="none" d="M288 259 c7 -38 -86 -110 -123 -95 -26
10 -16 35 19 50 19 8 42 26 52 41 18 28 47 30 52 4z"/>
<path fill="#ffffff" stroke="none" d="M158 149 c7 -38 -86 -110 -123 -95 -26
10 -16 35 19 50 19 8 42 26 52 41 18 28 47 30 52 4z"/>
</g>
</svg>
