<?xml version="1.0" standalone="no"?>
<!DOCTYPE svg PUBLIC "-//W3C//DTD SVG 20010904//EN"
 "http://www.w3.org/TR/2001/REC-SVG-20010904/DTD/svg10.dtd">
<svg version="1.0" xmlns="http://www.w3.org/2000/svg"
 width="32.000000pt" height="32.000000pt" viewBox="0 0 32.000000 32.000000"
 preserveAspectRatio="xMidYMid meet">
<metadata>
Created by potrace 1.16, written by Peter Selinger 2001-2019
</metadata>
<g transform="translate(0.000000,32.000000) scale(0.100000,-0.100000)"
fill="#000000" stroke="none">
<path fill="#000000" stroke="none" d="M166 301 c-4 -6 -18 -9 -31 -7 -15 3
-26 -1 -31 -12 -15 -36 -13 -40 16 -32 31 9 45 3 31 -14 -6 -7 -3 -16 7 -25
14 -13 15 -11 9 23 -4 27 -3 36 6 33 7 -2 13 -14 13 -26 2 -32 11 -36 16 -7 6
28 -25 85 -36 67z"/>
<path fill="#000000" stroke="none" d="M232 264 c-1 -14 2 -23 7 -20 5 3 14
-1 21 -9 14 -17 30 -20 30 -5 0 8 -46 60 -53 60 -2 0 -4 -11 -5 -26z"/>
<path fill="#000000" stroke="none" d="M57 257 c-12 -19 -14 -28 -5 -33 6 -4
8 -3 4 4 -3 6 1 15 10 20 9 5 15 15 12 22 -2 8 -10 3 -21 -13z"/>
<path fill="#000000" stroke="none" d="M280 200 c0 -6 7 -10 15 -10 8 0 15 2
15 4 0 2 -7 6 -15 10 -8 3 -15 1 -15 -4z"/>
<path fill="#000000" stroke="none" d="M33 130 c-1 -14 1 -18 4 -10 4 8 13 20
20 25 12 9 11 11 -4 11 -13 0 -19 -8 -20 -26z"/>
<path fill="#000000" stroke="none" d="M97 142 c3 -7 9 -10 12 -5 3 4 10 11
15 15 4 4 -1 6 -12 5 -12 -1 -18 -6 -15 -15z"/>
<path fill="#000000" stroke="none" d="M205 149 c-4 -6 -5 -12 -2 -15 2 -3 7
2 10 11 7 17 1 20 -8 4z"/>
<path fill="#000000" stroke="none" d="M288 153 c7 -3 16 -2 19 1 4 3 -2 6
-13 5 -11 0 -14 -3 -6 -6z"/>
<path fill="#000000" stroke="none" d="M155 110 c3 -5 8 -10 11 -10 2 0 4 5 4
10 0 6 -5 10 -11 10 -5 0 -7 -4 -4 -10z"/>
<path fill="#000000" stroke="none" d="M190 105 c0 -8 4 -15 10 -15 5 0 7 7 4
15 -4 8 -8 15 -10 15 -2 0 -4 -7 -4 -15z"/>
<path fill="#000000" stroke="none" d="M265 109 c-3 -4 2 -6 10 -5 21 3 28 13
10 13 -9 0 -18 -4 -20 -8z"/>
<path fill="#000000" stroke="none" d="M60 99 c-12 -9 -12 -10 4 -5 10 4 24 2
31 -4 10 -8 15 -8 21 1 4 7 3 9 -4 5 -6 -3 -13 -2 -17 4 -8 13 -16 12 -35 -1z"/>
<path fill="#000000" stroke="none" d="M16 61 c-3 -5 1 -11 9 -14 9 -4 12 -1
8 9 -6 16 -10 17 -17 5z"/>
</g>
</svg>
