<?xml version="1.0" standalone="no"?>
<!DOCTYPE svg PUBLIC "-//W3C//DTD SVG 20010904//EN"
 "http://www.w3.org/TR/2001/REC-SVG-20010904/DTD/svg10.dtd">
<svg version="1.0" xmlns="http://www.w3.org/2000/svg"
 width="32.000000pt" height="32.000000pt" viewBox="0 0 32.000000 32.000000"
 preserveAspectRatio="xMidYMid meet">
<metadata>
Created by potrace 1.16, written by Peter Selinger 2001-2019
</metadata>
<g transform="translate(0.000000,32.000000) scale(0.100000,-0.100000)"
fill="#000000" stroke="none">
<path fill="#000000" stroke="none" d="M104 294 c8 -26 -14 -47 -40 -37 -16 6
-17 4 -7 -8 7 -8 10 -24 7 -36 -4 -15 0 -23 15 -28 12 -3 21 -13 21 -22 0 -9
8 -22 18 -30 10 -8 11 -11 2 -7 -13 7 -13 5 -1 -9 10 -12 10 -21 3 -30 -13
-15 -12 -57 0 -57 5 0 13 10 19 23 8 20 9 19 4 -6 -5 -25 -3 -28 17 -25 27 4
52 58 30 66 -6 2 -9 9 -5 15 16 25 10 33 -21 29 -41 -6 -30 5 14 13 40 7 52
15 24 15 -30 0 5 20 36 20 20 0 22 2 10 10 -13 9 -12 12 4 25 18 14 15 20 -8
16 -20 -4 -36 21 -25 40 10 20 -4 28 -16 9 -3 -5 -14 -10 -23 -10 -15 0 -15 2
-2 11 12 7 8 9 -16 7 -17 -1 -39 4 -49 12 -16 14 -17 13 -11 -6z"/>
<path fill="#ffffff" stroke="none" d="M195 221 c3 -5 2 -12 -3 -15 -5 -3 -9
1 -9 9 0 17 3 19 12 6z"/>
<path fill="#ffffff" stroke="none" d="M121 197 c-10 -9 -11 -8 -5 6 3 10 9
15 12 12 3 -3 0 -11 -7 -18z"/>
<path fill="#000000" stroke="none" d="M205 49 c-4 -6 -5 -12 -2 -15 2 -3 7 2
10 11 7 17 1 20 -8 4z"/>
</g>
</svg>
