<?xml version="1.0" standalone="no"?>
<!DOCTYPE svg PUBLIC "-//W3C//DTD SVG 20010904//EN"
 "http://www.w3.org/TR/2001/REC-SVG-20010904/DTD/svg10.dtd">
<svg version="1.0" xmlns="http://www.w3.org/2000/svg"
 width="32.000000pt" height="32.000000pt" viewBox="0 0 32.000000 32.000000"
 preserveAspectRatio="xMidYMid meet">
<metadata>
Created by potrace 1.16, written by Peter Selinger 2001-2019
</metadata>
<g transform="translate(0.000000,32.000000) scale(0.100000,-0.100000)"
fill="#000000" stroke="none">
<path fill="#000000" stroke="none" d="M104 295 c3 -9 -3 -19 -17 -27 -12 -6
-23 -11 -24 -10 -11 7 -13 0 -5 -11 7 -8 7 -18 2 -27 -15 -23 -12 -29 15 -42
14 -6 25 -17 25 -25 0 -7 4 -13 9 -13 8 0 -1 -68 -14 -102 -8 -21 39 -32 95
-23 37 6 40 9 34 33 -3 15 -10 39 -16 54 -8 22 -6 30 9 46 10 10 26 22 37 26
14 5 16 9 7 20 -9 10 -8 15 4 20 22 8 8 28 -15 21 -21 -7 -35 21 -20 40 13 16
0 28 -17 14 -9 -9 -17 -8 -28 1 -8 6 -23 9 -34 5 -10 -3 -22 -1 -26 5 -10 16
-28 12 -21 -5z"/>
</g>
</svg>
