<?xml version="1.0" standalone="no"?>
<!DOCTYPE svg PUBLIC "-//W3C//DTD SVG 20010904//EN"
 "http://www.w3.org/TR/2001/REC-SVG-20010904/DTD/svg10.dtd">
<svg version="1.0" xmlns="http://www.w3.org/2000/svg"
 width="32.000000pt" height="32.000000pt" viewBox="0 0 32.000000 32.000000"
 preserveAspectRatio="xMidYMid meet">
<metadata>
Created by potrace 1.16, written by Peter Selinger 2001-2019
</metadata>
<g transform="translate(0.000000,32.000000) scale(0.100000,-0.100000)"
fill="#000000" stroke="none">
<path fill="#000000" stroke="none" d="M99 232 c-30 -34 -37 -66 -17 -78 7 -4
8 -3 4 4 -4 7 -5 12 -1 12 3 0 10 -12 16 -27 8 -22 12 -24 19 -13 8 13 10 12
10 -2 0 -21 16 -24 23 -5 3 9 7 9 19 -1 13 -10 17 -9 23 5 10 21 12 29 14 44
0 6 7 9 14 6 19 -7 14 39 -8 63 -10 11 -22 17 -26 14 -5 -3 -9 0 -9 5 0 23
-53 5 -81 -27z"/>
</g>
</svg>
