<?xml version="1.0" standalone="no"?>
<!DOCTYPE svg PUBLIC "-//W3C//DTD SVG 20010904//EN"
 "http://www.w3.org/TR/2001/REC-SVG-20010904/DTD/svg10.dtd">
<svg version="1.0" xmlns="http://www.w3.org/2000/svg"
 width="32.000000pt" height="32.000000pt" viewBox="0 0 32.000000 32.000000"
 preserveAspectRatio="xMidYMid meet">
<metadata>
Created by potrace 1.16, written by Peter Selinger 2001-2019
</metadata>
<g transform="translate(0.000000,32.000000) scale(0.100000,-0.100000)"
fill="#000000" stroke="none">
<path fill="#000000" stroke="none" d="M0 160 l0 -160 160 0 160 0 0 160 0
159 -160 0 -160 1 0 -160z"/>
<path fill="#ffffff" stroke="none" d="M125 300 c4 -6 16 -8 26 -5 11 4 26 1
34 -5 11 -9 19 -10 28 -1 18 14 30 2 16 -15 -17 -20 -3 -47 20 -39 23 7 37
-10 19 -22 -7 -4 -13 -15 -13 -23 0 -8 -13 -18 -30 -21 -16 -4 -23 -7 -15 -8
11 -1 11 -4 2 -13 -13 -13 -17 -72 -4 -64 5 3 9 0 9 -7 0 -7 3 -22 7 -34 6
-19 3 -23 -16 -24 -46 -3 -109 -1 -114 4 -2 2 1 17 7 33 15 36 19 84 8 84 -5
0 -9 8 -9 19 0 11 -9 21 -21 24 -17 5 -20 11 -16 28 4 13 1 29 -5 36 -11 13
-9 14 27 17 14 1 19 7 18 24 -3 23 11 30 22 12z"/>
<path fill="#000000" stroke="none" d="M158 133 c6 -2 18 -2 25 0 6 3 1 5 -13
5 -14 0 -19 -2 -12 -5z"/>
</g>
</svg>
