<?xml version="1.0" standalone="no"?>
<!DOCTYPE svg PUBLIC "-//W3C//DTD SVG 20010904//EN"
 "http://www.w3.org/TR/2001/REC-SVG-20010904/DTD/svg10.dtd">
<svg version="1.0" xmlns="http://www.w3.org/2000/svg"
 width="32.000000pt" height="32.000000pt" viewBox="0 0 32.000000 32.000000"
 preserveAspectRatio="xMidYMid meet">
<metadata>
Created by potrace 1.16, written by Peter Selinger 2001-2019
</metadata>
<g transform="translate(0.000000,32.000000) scale(0.100000,-0.100000)"
fill="#000000" stroke="none">
<path fill="#000000" stroke="none" d="M130 185 c-7 -9 -11 -17 -9 -20 3 -2
10 5 17 15 14 24 10 26 -8 5z"/>
<path fill="#000000" stroke="none" d="M220 135 c-7 -9 -8 -15 -2 -15 5 0 12
7 16 15 3 8 4 15 2 15 -2 0 -9 -7 -16 -15z"/>
<path fill="#000000" stroke="none" d="M169 77 c29 -32 28 -31 28 -12 0 8 -3
13 -5 10 -3 -3 -15 3 -26 12 -15 13 -14 10 3 -10z"/>
<path fill="#000000" stroke="none" d="M255 90 c-3 -6 1 -7 9 -4 18 7 21 14 7
14 -6 0 -13 -4 -16 -10z"/>
</g>
</svg>
