<?xml version="1.0" standalone="no"?>
<!DOCTYPE svg PUBLIC "-//W3C//DTD SVG 20010904//EN"
 "http://www.w3.org/TR/2001/REC-SVG-20010904/DTD/svg10.dtd">
<svg version="1.0" xmlns="http://www.w3.org/2000/svg"
 width="32.000000pt" height="32.000000pt" viewBox="0 0 32.000000 32.000000"
 preserveAspectRatio="xMidYMid meet">
<metadata>
Created by potrace 1.16, written by Peter Selinger 2001-2019
</metadata>
<g transform="translate(0.000000,32.000000) scale(0.100000,-0.100000)"
fill="#000000" stroke="none">
<path fill="#000000" stroke="none" d="M0 160 l0 -160 160 0 160 0 0 160 0
160 -160 0 -160 0 0 -160z"/>
<path fill="#ffffff" stroke="none" d="M187 200 c1 -11 -2 -20 -8 -20 -5 0 -9
-5 -9 -11 0 -5 4 -8 8 -5 5 3 9 -1 9 -8 0 -7 -5 -13 -11 -14 -34 -3 -63 -9
-72 -15 -7 -4 -11 7 -11 28 0 24 4 32 12 25 15 -12 51 -5 47 10 -1 6 2 9 7 6
5 -3 11 1 15 9 7 20 11 19 13 -5z"/>
<path fill="#ffffff" stroke="none" d="M218 165 c-3 -3 -9 2 -12 12 -6 14 -5
15 5 6 7 -7 10 -15 7 -18z"/>
<path fill="#ffffff" stroke="none" d="M77 128 c-3 -8 -6 -5 -6 6 -1 11 2 17
5 13 3 -3 4 -12 1 -19z"/>
<path fill="#ffffff" stroke="none" d="M275 140 c-3 -5 -11 -10 -16 -10 -6 0
-7 5 -4 10 3 6 11 10 16 10 6 0 7 -4 4 -10z"/>
<path fill="#ffffff" stroke="none" d="M243 125 c11 -7 26 -11 35 -8 14 5 15
3 5 -7 -10 -11 -9 -16 5 -26 21 -15 16 -21 -27 -29 -30 -5 -33 -4 -21 10 10
13 9 15 -8 15 -12 0 -24 -5 -28 -12 -5 -7 -3 -8 7 -3 8 5 5 -1 -5 -13 -23 -26
-31 -22 -20 10 4 13 8 28 9 33 0 6 9 9 20 8 19 -1 19 -1 3 11 -10 7 -15 16
-11 19 9 10 15 8 36 -8z"/>
<path fill="#ffffff" stroke="none" d="M186 105 c0 -18 -3 -22 -13 -14 -6 6
-17 8 -23 4 -5 -3 -10 -2 -10 4 0 9 27 30 41 31 3 0 5 -11 5 -25z"/>
<path fill="#ffffff" stroke="none" d="M65 102 c-3 -3 -11 0 -18 7 -9 10 -8
11 6 5 10 -3 15 -9 12 -12z"/>
<path fill="#ffffff" stroke="none" d="M85 80 c3 -5 -1 -10 -10 -10 -9 0 -13
5 -10 10 3 6 8 10 10 10 2 0 7 -4 10 -10z"/>
<path fill="#ffffff" stroke="none" d="M160 46 c-4 -4 -21 -4 -37 2 -28 10
-28 10 9 8 21 0 33 -5 28 -10z"/>
<path fill="#000000" stroke="none" d="M114 155 c-18 -14 -18 -14 4 -8 12 3
22 9 22 14 0 12 -3 11 -26 -6z"/>
<path fill="#000000" stroke="none" d="M150 160 c0 -5 5 -10 11 -10 5 0 7 5 4
10 -3 6 -8 10 -11 10 -2 0 -4 -4 -4 -10z"/>
</g>
</svg>
