<?xml version="1.0" standalone="no"?>
<!DOCTYPE svg PUBLIC "-//W3C//DTD SVG 20010904//EN"
 "http://www.w3.org/TR/2001/REC-SVG-20010904/DTD/svg10.dtd">
<svg version="1.0" xmlns="http://www.w3.org/2000/svg"
 width="32.000000pt" height="32.000000pt" viewBox="0 0 32.000000 32.000000"
 preserveAspectRatio="xMidYMid meet">
<metadata>
Created by potrace 1.16, written by Peter Selinger 2001-2019
</metadata>
<g transform="translate(0.000000,32.000000) scale(0.100000,-0.100000)"
fill="#000000" stroke="none">
<path fill="#000000" stroke="none" d="M231 196 c-9 -11 -8 -15 6 -20 10 -4
14 -4 10 0 -4 4 -2 13 4 21 7 8 8 13 1 13 -5 0 -15 -6 -21 -14z"/>
<path fill="#000000" stroke="none" d="M135 191 c-3 -6 -14 -8 -25 -6 -12 2
-18 0 -15 -6 4 -5 11 -6 17 -3 8 5 9 1 5 -10 -9 -22 10 -11 23 15 11 19 6 28
-5 10z"/>
<path fill="#000000" stroke="none" d="M221 137 c-16 -16 -14 -32 2 -18 8 6
16 9 19 6 3 -3 10 0 16 8 8 10 7 13 -7 14 -10 1 -24 -4 -30 -10z"/>
<path fill="#000000" stroke="none" d="M161 85 c9 -11 14 -27 11 -35 -2 -8 -1
-12 3 -8 5 4 14 3 22 -4 11 -9 13 -8 11 3 -2 8 3 13 10 11 8 -1 11 2 7 8 -3 6
-10 8 -15 5 -4 -3 -11 2 -14 11 -4 9 -9 14 -13 11 -3 -4 -13 -1 -22 5 -14 11
-14 10 0 -7z"/>
<path fill="#000000" stroke="none" d="M255 90 c-3 -5 -2 -10 4 -10 5 0 13 5
16 10 3 6 2 10 -4 10 -5 0 -13 -4 -16 -10z"/>
</g>
</svg>
