<?xml version="1.0" standalone="no"?>
<!DOCTYPE svg PUBLIC "-//W3C//DTD SVG 20010904//EN"
 "http://www.w3.org/TR/2001/REC-SVG-20010904/DTD/svg10.dtd">
<svg version="1.0" xmlns="http://www.w3.org/2000/svg"
 width="32.000000pt" height="32.000000pt" viewBox="0 0 32.000000 32.000000"
 preserveAspectRatio="xMidYMid meet">
<metadata>
Created by potrace 1.16, written by Peter Selinger 2001-2019
</metadata>
<g transform="translate(0.000000,32.000000) scale(0.100000,-0.100000)"
fill="#000000" stroke="none">
<path fill="#000000" stroke="none" d="M205 220 c-4 -6 -16 -8 -28 -4 -18 6
-20 5 -10 -8 10 -12 10 -19 -2 -34 -11 -15 -15 -16 -16 -4 -1 8 -1 19 0 24 1
5 -4 4 -12 -2 -11 -10 -17 -9 -27 3 -13 16 -35 21 -26 6 8 -12 -19 -33 -30
-23 -4 4 -2 -1 5 -10 13 -18 7 -23 -21 -19 -8 1 -5 -20 6 -37 4 -7 4 -11 -1
-10 -4 2 -9 -1 -10 -6 -1 -5 -6 -12 -13 -16 -7 -4 -1 -13 17 -26 34 -22 54
-26 70 -13 6 6 21 8 32 4 17 -5 53 -13 80 -17 17 -2 72 16 81 27 8 10 6 15
-10 20 -11 3 -18 11 -15 16 4 5 1 9 -6 9 -8 0 -7 6 4 18 15 16 15 19 -3 29
-11 8 -17 21 -16 37 3 20 -1 25 -18 23 -12 -1 -20 3 -18 11 3 15 -4 16 -13 2z"/>
</g>
</svg>
