<?xml version="1.0" standalone="no"?>
<!DOCTYPE svg PUBLIC "-//W3C//DTD SVG 20010904//EN"
 "http://www.w3.org/TR/2001/REC-SVG-20010904/DTD/svg10.dtd">
<svg version="1.0" xmlns="http://www.w3.org/2000/svg"
 width="32.000000pt" height="32.000000pt" viewBox="0 0 32.000000 32.000000"
 preserveAspectRatio="xMidYMid meet">
<metadata>
Created by potrace 1.16, written by Peter Selinger 2001-2019
</metadata>
<g transform="translate(0.000000,32.000000) scale(0.100000,-0.100000)"
fill="#000000" stroke="none">
<path fill="#000000" stroke="none" d="M93 294 c3 -16 0 -24 -9 -24 -8 0 -14
5 -14 10 0 22 -30 8 -36 -17 -4 -15 -14 -34 -22 -42 -16 -16 -9 -105 10 -128
7 -9 7 -13 -1 -13 -7 0 -9 -5 -6 -11 4 -6 14 -8 22 -5 8 3 11 2 8 -3 -12 -20
41 -36 62 -20 6 6 21 8 32 4 12 -3 33 -8 47 -11 15 -3 29 -5 33 -6 12 -2 66
15 79 25 11 8 9 13 -10 24 -21 13 -21 13 -2 8 18 -5 22 0 28 32 10 61 7 83 -9
83 -10 0 -15 10 -15 30 0 36 -24 41 -35 8 -7 -20 -9 -19 -12 12 -5 40 -19 60
-40 60 -11 0 -14 -7 -10 -21 3 -13 1 -19 -6 -16 -7 2 -13 13 -15 24 -2 17 -10
20 -43 20 -37 0 -40 -2 -36 -23z"/>
<path fill="#ffffff" stroke="none" d="M140 245 c0 -28 -15 -34 -24 -9 -10 25
-7 34 9 34 9 0 15 -9 15 -25z"/>
</g>
</svg>
