<?xml version="1.0" standalone="no"?>
<!DOCTYPE svg PUBLIC "-//W3C//DTD SVG 20010904//EN"
 "http://www.w3.org/TR/2001/REC-SVG-20010904/DTD/svg10.dtd">
<svg version="1.0" xmlns="http://www.w3.org/2000/svg"
 width="32.000000pt" height="32.000000pt" viewBox="0 0 32.000000 32.000000"
 preserveAspectRatio="xMidYMid meet">
<metadata>
Created by potrace 1.16, written by Peter Selinger 2001-2019
</metadata>
<g transform="translate(0.000000,32.000000) scale(0.100000,-0.100000)"
fill="#000000" stroke="none">
<path fill="#000000" stroke="none" d="M150 220 c0 -5 5 -10 11 -10 5 0 7 5 4
10 -3 6 -8 10 -11 10 -2 0 -4 -4 -4 -10z"/>
<path fill="#000000" stroke="none" d="M119 197 c15 -16 19 -27 12 -27 -11 0
-11 -3 -1 -15 7 -8 17 -12 24 -8 6 3 6 0 -1 -8 -7 -7 -13 -20 -13 -29 -1 -23
-36 -65 -44 -51 -4 6 -2 11 4 11 6 0 8 5 5 10 -4 6 -1 9 6 8 14 -3 19 20 10
37 -3 6 -6 14 -6 19 0 5 -12 11 -27 13 -21 3 -26 0 -22 -12 3 -8 10 -12 15 -9
5 3 6 -3 2 -12 -4 -11 -3 -15 5 -10 6 3 14 2 17 -4 4 -6 1 -9 -6 -8 -12 3 -14
-1 -18 -34 0 -6 -12 -1 -27 13 -17 16 -23 18 -19 7 4 -9 13 -19 21 -22 9 -3
12 -11 8 -17 -4 -7 -3 -9 4 -5 6 3 13 2 17 -3 3 -6 15 -7 28 -2 12 4 28 6 35
4 6 -3 12 0 12 7 0 8 6 8 20 0 19 -10 20 -8 16 14 -5 25 -4 25 21 9 24 -16 24
-17 7 -30 -16 -12 -17 -13 -1 -13 10 0 22 10 27 23 7 17 9 18 9 5 1 -22 10
-22 36 -2 19 14 19 15 -3 21 -22 5 -22 6 -5 26 14 16 14 19 3 15 -8 -3 -21 1
-28 8 -8 9 -9 14 -2 14 6 0 9 4 5 9 -3 5 0 13 7 17 8 5 6 10 -8 14 -10 4 -25
3 -32 -3 -19 -15 -27 0 -11 20 12 15 12 16 -3 10 -10 -3 -20 -2 -23 3 -8 13
-35 -12 -27 -25 3 -5 -2 -4 -11 4 -9 7 -17 10 -17 6 0 -5 -10 0 -22 11 -21 17
-21 16 1 -9z"/>
<path fill="#ffffff" stroke="none" d="M250 177 c0 -2 -9 -14 -20 -27 -11 -13
-20 -28 -20 -35 0 -6 -6 -12 -13 -12 -8 0 -14 6 -14 13 0 7 5 10 10 7 6 -4 8
3 5 15 -4 12 -3 20 1 17 5 -2 17 2 27 10 20 15 24 17 24 12z"/>
<path fill="#ffffff" stroke="none" d="M260 108 c0 -6 -3 -8 -7 -5 -3 4 -13 1
-22 -6 -14 -11 -14 -10 -2 6 15 20 31 22 31 5z"/>
<path fill="#000000" stroke="none" d="M80 196 c0 -2 7 -7 16 -10 8 -3 12 -2
9 4 -6 10 -25 14 -25 6z"/>
<path fill="#000000" stroke="none" d="M41 171 c-8 -5 -9 -11 -3 -15 5 -3 12
1 16 9 6 17 6 18 -13 6z"/>
<path fill="#000000" stroke="none" d="M50 120 c0 -5 5 -10 11 -10 5 0 7 5 4
10 -3 6 -8 10 -11 10 -2 0 -4 -4 -4 -10z"/>
</g>
</svg>
