<?xml version="1.0" standalone="no"?>
<!DOCTYPE svg PUBLIC "-//W3C//DTD SVG 20010904//EN"
 "http://www.w3.org/TR/2001/REC-SVG-20010904/DTD/svg10.dtd">
<svg version="1.0" xmlns="http://www.w3.org/2000/svg"
 width="32.000000pt" height="32.000000pt" viewBox="0 0 32.000000 32.000000"
 preserveAspectRatio="xMidYMid meet">
<metadata>
Created by potrace 1.16, written by Peter Selinger 2001-2019
</metadata>
<g transform="translate(0.000000,32.000000) scale(0.100000,-0.100000)"
fill="#000000" stroke="none">
<path fill="#000000" stroke="none" d="M149 204 c-8 -10 -21 -13 -38 -9 -25 5
-25 5 -7 -10 10 -8 22 -12 26 -10 4 3 15 -4 24 -14 11 -13 14 -21 7 -26 -6 -3
-11 1 -11 11 0 17 -1 16 -13 -1 -10 -12 -16 -14 -21 -7 -4 7 -2 12 5 12 10 0
10 3 0 13 -11 10 -14 9 -18 -1 -3 -8 -11 -5 -25 10 -11 13 -17 18 -14 11 4 -6
-2 -16 -11 -22 -11 -6 -13 -11 -5 -11 8 0 10 -5 6 -12 -5 -8 -1 -8 12 2 10 8
16 10 12 6 -4 -5 0 -14 9 -21 9 -7 13 -17 9 -23 -10 -16 -27 -15 -20 1 3 8 -3
13 -15 13 -15 0 -17 -4 -10 -18 5 -9 14 -20 19 -23 6 -4 8 -11 5 -16 -15 -24
110 -33 198 -15 30 7 35 11 26 22 -6 8 -16 11 -23 7 -6 -4 -5 1 2 10 15 18 7
41 -11 30 -7 -4 -6 0 2 10 15 19 1 23 -17 5 -19 -19 -27 0 -9 20 15 17 15 18
-9 20 -14 1 -23 -2 -20 -6 2 -4 -2 -16 -10 -27 -8 -10 -14 -17 -15 -14 -6 32
-5 56 4 67 9 11 7 13 -9 10 -11 -2 -18 2 -16 10 3 16 -3 15 -19 -4z"/>
<path fill="#ffffff" stroke="none" d="M133 97 c8 5 8 2 0 -9 -15 -18 -7 -29
15 -21 10 4 13 2 8 -5 -10 -16 -53 -15 -59 1 -2 6 0 21 6 32 7 13 12 16 15 7
2 -6 9 -9 15 -5z"/>
<path fill="#000000" stroke="none" d="M37 56 c-4 -10 -1 -13 9 -9 7 3 14 9
14 14 0 14 -17 10 -23 -5z"/>
</g>
</svg>
