<?xml version="1.0" standalone="no"?>
<!DOCTYPE svg PUBLIC "-//W3C//DTD SVG 20010904//EN"
 "http://www.w3.org/TR/2001/REC-SVG-20010904/DTD/svg10.dtd">
<svg version="1.0" xmlns="http://www.w3.org/2000/svg"
 width="32.000000pt" height="32.000000pt" viewBox="0 0 32.000000 32.000000"
 preserveAspectRatio="xMidYMid meet">
<metadata>
Created by potrace 1.16, written by Peter Selinger 2001-2019
</metadata>
<g transform="translate(0.000000,32.000000) scale(0.100000,-0.100000)"
fill="#000000" stroke="none">
<path fill="#000000" stroke="none" d="M0 160 l0 -160 160 0 160 0 0 160 0
160 -160 0 -160 0 0 -160z"/>
<path fill="#ffffff" stroke="none" d="M192 228 c-7 -7 -10 -5 -7 8 5 29 6 30
12 16 3 -8 1 -18 -5 -24z"/>
<path fill="#ffffff" stroke="none" d="M120 240 c-6 -4 -11 -11 -10 -16 1 -10
-33 -22 -65 -23 -17 0 -17 2 5 14 14 8 21 15 15 15 -21 1 18 18 42 18 15 0 20
-3 13 -8z"/>
<path fill="#ffffff" stroke="none" d="M170 233 c0 -8 -5 -13 -12 -11 -18 6
-21 25 -3 25 8 0 15 -7 15 -14z"/>
<path fill="#ffffff" stroke="none" d="M225 220 c-3 -5 -12 -10 -18 -10 -7 0
-6 4 3 10 19 12 23 12 15 0z"/>
<path fill="#ffffff" stroke="none" d="M162 123 c2 -42 3 -47 12 -61 4 -7 6
-14 5 -15 -2 -1 -19 -10 -37 -20 -38 -19 -67 -23 -57 -6 4 6 13 8 21 5 8 -3
13 -2 12 2 -1 4 4 20 10 35 7 16 12 42 12 58 0 37 19 38 22 2z"/>
<path fill="#ffffff" stroke="none" d="M186 123 c-4 -9 -1 -20 6 -25 10 -7 9
-9 -2 -5 -18 4 -27 47 -10 47 7 0 9 -7 6 -17z"/>
</g>
</svg>
