<?xml version="1.0" standalone="no"?>
<!DOCTYPE svg PUBLIC "-//W3C//DTD SVG 20010904//EN"
 "http://www.w3.org/TR/2001/REC-SVG-20010904/DTD/svg10.dtd">
<svg version="1.0" xmlns="http://www.w3.org/2000/svg"
 width="32.000000pt" height="32.000000pt" viewBox="0 0 32.000000 32.000000"
 preserveAspectRatio="xMidYMid meet">
<metadata>
Created by potrace 1.16, written by Peter Selinger 2001-2019
</metadata>
<g transform="translate(0.000000,32.000000) scale(0.100000,-0.100000)"
fill="#000000" stroke="none">
<path fill="#000000" stroke="none" d="M0 160 l0 -160 160 0 160 0 0 160 0
160 -160 0 -160 0 0 -160z"/>
<path fill="#ffffff" stroke="none" d="M201 286 c5 3 12 -1 15 -10 3 -8 11
-13 17 -11 14 4 73 -63 63 -72 -3 -3 -15 2 -26 12 -11 10 -20 13 -20 7 0 -6
-10 -17 -22 -23 -19 -9 -21 -9 -10 2 17 19 15 26 -8 24 -21 -1 -41 -15 -22
-15 6 0 9 -7 5 -17 -5 -12 -3 -14 7 -8 8 5 11 3 8 -6 -3 -8 -15 -13 -26 -11
-12 2 -22 -2 -22 -8 0 -6 4 -8 10 -5 5 3 19 1 29 -5 16 -8 20 -20 19 -56 0
-29 5 -50 13 -56 11 -8 10 -9 -3 -4 -10 3 -18 2 -18 -2 0 -4 -14 -9 -31 -10
-19 -2 -28 2 -24 8 3 5 1 10 -4 10 -6 0 -11 -4 -11 -10 0 -5 -14 -10 -31 -10
-19 0 -28 4 -24 11 4 6 14 8 22 5 8 -3 11 -2 8 4 -3 5 1 25 9 45 16 38 12 65
-9 65 -21 0 -90 44 -90 57 0 17 65 63 87 63 11 0 31 12 46 27 23 23 27 24 30
10 2 -10 8 -15 13 -11z"/>
<path fill="#ffffff" stroke="none" d="M249 171 c-28 -24 -40 -26 -33 -7 5 14
46 37 53 30 2 -2 -7 -12 -20 -23z"/>
<path fill="#000000" stroke="none" d="M148 194 c2 -13 8 -24 13 -24 14 0 10
37 -4 43 -10 4 -13 -2 -9 -19z"/>
<path fill="#000000" stroke="none" d="M50 194 c0 -15 38 -34 56 -27 9 3 20 0
25 -8 6 -10 9 -5 8 16 0 17 -3 25 -5 18 -3 -7 -12 -9 -20 -6 -8 3 -14 0 -14
-6 0 -7 -9 -5 -25 5 -14 9 -25 12 -25 8z"/>
</g>
</svg>
