<?xml version="1.0" standalone="no"?>
<!DOCTYPE svg PUBLIC "-//W3C//DTD SVG 20010904//EN"
 "http://www.w3.org/TR/2001/REC-SVG-20010904/DTD/svg10.dtd">
<svg version="1.0" xmlns="http://www.w3.org/2000/svg"
 width="32.000000pt" height="32.000000pt" viewBox="0 0 32.000000 32.000000"
 preserveAspectRatio="xMidYMid meet">
<metadata>
Created by potrace 1.16, written by Peter Selinger 2001-2019
</metadata>
<g transform="translate(0.000000,32.000000) scale(0.100000,-0.100000)"
fill="#000000" stroke="none">
<path fill="#000000" stroke="none" d="M0 160 l0 -160 160 0 160 0 0 160 0
160 -160 0 -160 0 0 -160z"/>
<path fill="#ffffff" stroke="none" d="M190 146 c13 -17 13 -18 1 -11 -11 6
-13 4 -8 -9 4 -10 3 -15 -3 -11 -6 3 -10 2 -10 -4 0 -5 6 -12 13 -15 6 -3 3
-4 -8 -3 -14 1 -19 -3 -17 -15 2 -10 -2 -18 -7 -18 -6 0 -8 -7 -5 -15 4 -10 0
-15 -11 -15 -9 0 -13 -5 -10 -10 3 -6 -2 -10 -11 -10 -16 0 -16 1 0 19 10 11
18 25 20 33 1 7 5 18 9 25 4 7 5 24 1 39 -6 23 -4 26 10 21 11 -4 16 -1 16 10
0 9 1 14 3 12 1 -2 9 -13 17 -23z"/>
<path fill="#ffffff" stroke="none" d="M195 60 c3 -6 -1 -7 -9 -4 -18 7 -21
14 -7 14 6 0 13 -4 16 -10z"/>
</g>
</svg>
