<?xml version="1.0" standalone="no"?>
<!DOCTYPE svg PUBLIC "-//W3C//DTD SVG 20010904//EN"
 "http://www.w3.org/TR/2001/REC-SVG-20010904/DTD/svg10.dtd">
<svg version="1.0" xmlns="http://www.w3.org/2000/svg"
 width="32.000000pt" height="32.000000pt" viewBox="0 0 32.000000 32.000000"
 preserveAspectRatio="xMidYMid meet">
<metadata>
Created by potrace 1.16, written by Peter Selinger 2001-2019
</metadata>
<g transform="translate(0.000000,32.000000) scale(0.100000,-0.100000)"
fill="#000000" stroke="none">
<path fill="#000000" stroke="none" d="M119 271 c-81 -44 -99 -59 -99 -80 0
-14 67 -53 95 -55 30 -2 12 -83 -25 -113 -12 -10 -4 -12 45 -13 33 0 70 3 82
6 19 5 21 9 12 26 -6 11 -9 37 -7 58 2 21 1 37 -2 35 -3 -2 -12 0 -18 4 -10 6
-9 11 4 22 12 9 15 10 10 2 -10 -18 4 -16 25 3 10 9 29 17 43 18 36 2 32 16
-16 63 -68 65 -73 65 -149 24z"/>
<path fill="#ffffff" stroke="none" d="M170 182 c0 -15 -2 -15 -10 -2 -13 20
-13 33 0 25 6 -3 10 -14 10 -23z"/>
<path fill="#ffffff" stroke="none" d="M224 199 c-4 -8 1 -9 17 -5 21 6 22 6
6 -4 -10 -7 -21 -9 -24 -6 -4 3 -12 1 -20 -5 -14 -13 -16 -9 -7 15 3 9 13 16
21 16 8 0 11 -5 7 -11z"/>
</g>
</svg>
