<?xml version="1.0" standalone="no"?>
<!DOCTYPE svg PUBLIC "-//W3C//DTD SVG 20010904//EN"
 "http://www.w3.org/TR/2001/REC-SVG-20010904/DTD/svg10.dtd">
<svg version="1.0" xmlns="http://www.w3.org/2000/svg"
 width="32.000000pt" height="32.000000pt" viewBox="0 0 32.000000 32.000000"
 preserveAspectRatio="xMidYMid meet">
<metadata>
Created by potrace 1.16, written by Peter Selinger 2001-2019
</metadata>
<g transform="translate(0.000000,32.000000) scale(0.100000,-0.100000)"
fill="#000000" stroke="none">
<path fill="#000000" stroke="none" d="M144 124 c4 -14 3 -31 -2 -37 -6 -8 -1
-19 11 -31 18 -17 20 -17 14 -2 -4 9 0 30 8 46 17 34 18 40 6 40 -5 0 -12 -10
-14 -22 -4 -20 -4 -19 -6 5 0 15 -6 27 -12 27 -7 0 -9 -10 -5 -26z"/>
<path fill="#000000" stroke="none" d="M122 47 c-7 -8 -9 -17 -5 -21 4 -4 0
-4 -9 -1 -9 4 -19 2 -23 -4 -9 -16 27 -13 49 4 14 11 17 18 10 25 -8 8 -14 7
-22 -3z"/>
</g>
</svg>
