<?xml version="1.0" standalone="no"?>
<!DOCTYPE svg PUBLIC "-//W3C//DTD SVG 20010904//EN"
 "http://www.w3.org/TR/2001/REC-SVG-20010904/DTD/svg10.dtd">
<svg version="1.0" xmlns="http://www.w3.org/2000/svg"
 width="32.000000pt" height="32.000000pt" viewBox="0 0 32.000000 32.000000"
 preserveAspectRatio="xMidYMid meet">
<metadata>
Created by potrace 1.16, written by Peter Selinger 2001-2019
</metadata>
<g transform="translate(0.000000,32.000000) scale(0.100000,-0.100000)"
fill="#000000" stroke="none">
<path fill="#000000" stroke="none" d="M140 282 c-123 -69 -146 -92 -92 -92
15 0 33 -5 40 -12 9 -9 12 -7 12 10 0 29 28 29 40 0 l9 -23 0 22 c1 20 6 21
49 19 49 -3 85 -11 102 -21 6 -3 10 -1 10 4 0 14 -67 83 -100 103 -24 15 -29
14 -70 -10z"/>
<path fill="#000000" stroke="none" d="M166 175 c-3 -9 0 -15 9 -15 9 0 12 6
9 15 -4 8 -7 15 -9 15 -2 0 -5 -7 -9 -15z"/>
<path fill="#000000" stroke="none" d="M74 159 c15 -11 33 -18 42 -15 21 8 6
28 -16 21 -10 -3 -21 -1 -25 5 -3 5 -11 10 -17 10 -6 0 1 -9 16 -21z"/>
<path fill="#000000" stroke="none" d="M135 140 c-3 -5 -4 -14 0 -19 7 -12
-25 -82 -45 -98 -13 -10 -10 -12 17 -13 17 0 34 6 36 13 4 9 6 9 6 0 1 -15 46
-16 76 -3 11 5 14 9 8 9 -9 1 -13 18 -13 51 0 32 -5 52 -12 54 -40 13 -68 15
-73 6z"/>
</g>
</svg>
