<?xml version="1.0" standalone="no"?>
<!DOCTYPE svg PUBLIC "-//W3C//DTD SVG 20010904//EN"
 "http://www.w3.org/TR/2001/REC-SVG-20010904/DTD/svg10.dtd">
<svg version="1.0" xmlns="http://www.w3.org/2000/svg"
 width="32.000000pt" height="32.000000pt" viewBox="0 0 32.000000 32.000000"
 preserveAspectRatio="xMidYMid meet">
<metadata>
Created by potrace 1.16, written by Peter Selinger 2001-2019
</metadata>
<g transform="translate(0.000000,32.000000) scale(0.100000,-0.100000)"
fill="#000000" stroke="none">
<path fill="#000000" stroke="none" d="M0 160 l0 -160 160 0 160 0 0 160 0
160 -160 0 -160 0 0 -160z"/>
<path fill="#ffffff" stroke="none" d="M32 256 c2 -16 8 -31 14 -33 14 -5 24
42 13 56 -6 8 -5 8 3 1 6 -5 13 -15 14 -22 1 -7 5 -21 9 -31 6 -14 3 -16 -11
-11 -11 4 -4 -4 15 -17 46 -32 78 -76 65 -89 -15 -15 -54 26 -55 58 -1 25 -1
26 -7 4 -7 -22 -7 -21 -21 8 -15 35 -32 35 -43 -1 -5 -19 -6 -15 -6 16 1 22
-2 56 -6 75 -6 24 -5 32 2 25 6 -5 12 -23 14 -39z"/>
<path fill="#ffffff" stroke="none" d="M148 257 c-13 -26 -22 -14 -14 20 6 20
10 23 16 13 5 -8 4 -22 -2 -33z"/>
<path fill="#ffffff" stroke="none" d="M185 271 c-10 -21 -12 -32 -4 -37 6 -3
8 -17 4 -32 l-6 -25 35 29 c23 20 35 38 35 57 1 27 -7 33 -24 20 -6 -5 -7 -4
-2 2 4 6 19 10 32 10 20 1 23 -3 19 -22 -4 -13 -2 -23 4 -23 14 0 23 -56 12
-82 -8 -21 -9 -20 -11 12 -1 19 -2 41 -2 48 1 10 -2 10 -13 1 -8 -6 -14 -28
-15 -48 l-1 -36 -10 35 c-9 33 -11 34 -24 16 -7 -11 -11 -31 -9 -45 4 -21 4
-22 -3 -6 -9 19 -9 19 -20 0 -10 -17 -12 -13 -13 30 -1 28 -4 39 -6 25 -3 -14
-9 -29 -15 -35 -18 -17 2 67 24 103 25 40 34 42 13 3z"/>
<path fill="#ffffff" stroke="none" d="M73 93 c-7 -2 -19 -2 -25 0 -7 3 -2 5
12 5 14 0 19 -2 13 -5z"/>
<path fill="#ffffff" stroke="none" d="M269 80 c33 0 39 -11 18 -28 -26 -22
-63 -24 -88 -3 -31 25 -19 38 16 15 20 -13 29 -14 38 -5 9 10 9 11 -4 6 -9 -3
-23 3 -35 16 -19 22 -19 22 3 10 12 -6 35 -11 52 -11z"/>
<path fill="#ffffff" stroke="none" d="M120 81 c0 -5 -13 -12 -30 -16 -16 -4
-32 -11 -35 -16 -4 -5 -16 -9 -28 -9 -18 0 -19 2 -7 10 13 9 13 10 0 11 -8 0
10 7 40 14 30 7 56 13 58 14 1 0 2 -3 2 -8z"/>
<path fill="#ffffff" stroke="none" d="M182 36 c26 -25 17 -30 -27 -16 -21 7
-55 10 -79 6 -29 -4 -37 -3 -26 4 8 5 25 10 36 10 12 0 32 9 45 19 16 13 25
16 28 8 2 -7 12 -20 23 -31z"/>
</g>
</svg>
