<?xml version="1.0" standalone="no"?>
<!DOCTYPE svg PUBLIC "-//W3C//DTD SVG 20010904//EN"
 "http://www.w3.org/TR/2001/REC-SVG-20010904/DTD/svg10.dtd">
<svg version="1.0" xmlns="http://www.w3.org/2000/svg"
 width="32.000000pt" height="32.000000pt" viewBox="0 0 32.000000 32.000000"
 preserveAspectRatio="xMidYMid meet">
<metadata>
Created by potrace 1.16, written by Peter Selinger 2001-2019
</metadata>
<g transform="translate(0.000000,32.000000) scale(0.100000,-0.100000)"
fill="#000000" stroke="none">
<path fill="#000000" stroke="none" d="M0 160 l0 -160 160 0 160 0 0 160 0
160 -160 0 -160 0 0 -160z"/>
<path fill="#ffffff" stroke="none" d="M146 234 c-4 -9 -9 -15 -11 -12 -3 3
-3 13 1 22 4 9 9 15 11 12 3 -3 3 -13 -1 -22z"/>
<path fill="#ffffff" stroke="none" d="M99 197 c0 -21 -1 -21 -9 -2 -12 28
-12 37 0 30 6 -3 10 -16 9 -28z"/>
<path fill="#ffffff" stroke="none" d="M230 208 c0 -16 -3 -19 -11 -11 -6 6
-8 16 -5 22 11 17 16 13 16 -11z"/>
<path fill="#ffffff" stroke="none" d="M182 149 l-10 -34 -1 45 c-1 31 2 41
10 33 7 -7 7 -21 1 -44z"/>
<path fill="#ffffff" stroke="none" d="M239 148 c0 -31 -1 -31 -10 -10 -5 13
-7 28 -3 33 10 16 14 9 13 -23z"/>
<path fill="#ffffff" stroke="none" d="M116 145 c10 -26 -1 -35 -13 -10 -6 14
-7 25 -2 25 5 0 12 -7 15 -15z"/>
<path fill="#ffffff" stroke="none" d="M110 96 c0 -2 -11 -6 -25 -8 -13 -3
-22 -1 -19 3 5 9 44 13 44 5z"/>
<path fill="#ffffff" stroke="none" d="M280 80 c3 0 -4 -7 -14 -15 -14 -11
-23 -12 -33 -4 -20 17 -16 25 15 23 15 -1 29 -3 32 -4z"/>
<path fill="#ffffff" stroke="none" d="M85 65 c-25 -11 -27 -14 -12 -20 9 -4
31 -2 48 5 21 9 33 10 41 2 15 -15 -57 -28 -91 -16 -42 15 -38 39 6 40 l38 2
-30 -13z"/>
<path fill="#ffffff" stroke="none" d="M218 39 c-7 -5 -20 -9 -28 -9 -13 0
-13 1 0 10 8 5 11 10 7 10 -5 0 -5 5 -2 10 5 8 11 7 21 -1 12 -10 12 -14 2
-20z"/>
</g>
</svg>
