<?xml version="1.0" standalone="no"?>
<!DOCTYPE svg PUBLIC "-//W3C//DTD SVG 20010904//EN"
 "http://www.w3.org/TR/2001/REC-SVG-20010904/DTD/svg10.dtd">
<svg version="1.0" xmlns="http://www.w3.org/2000/svg"
 width="32.000000pt" height="32.000000pt" viewBox="0 0 32.000000 32.000000"
 preserveAspectRatio="xMidYMid meet">
<metadata>
Created by potrace 1.16, written by Peter Selinger 2001-2019
</metadata>
<g transform="translate(0.000000,32.000000) scale(0.100000,-0.100000)"
fill="#000000" stroke="none">
<path fill="#000000" stroke="none" d="M0 160 l0 -160 160 0 160 0 0 160 0
160 -160 0 -160 0 0 -160z"/>
<path fill="#ffffff" stroke="none" d="M71 271 c22 -21 39 -45 39 -52 -1 -8
-8 -2 -16 14 -8 15 -17 27 -20 27 -2 0 0 -9 6 -19 14 -27 13 -31 -6 -24 -10 3
-14 14 -12 27 3 14 -3 28 -17 38 -21 16 -21 15 -17 -15 2 -18 11 -37 18 -43
13 -10 12 -12 -1 -18 -8 -3 -15 -15 -15 -27 0 -47 -9 -11 -14 59 -3 48 -2 72
6 72 6 0 28 -17 49 -39z"/>
<path fill="#ffffff" stroke="none" d="M184 287 c17 17 18 17 11 -7 l-7 -25
23 21 c13 12 35 25 48 29 22 7 23 5 17 -20 -5 -18 -3 -31 5 -36 15 -9 20 -54
9 -82 -8 -20 -9 -19 -10 8 0 17 -4 37 -9 44 -10 15 -10 15 -24 -54 -4 -17 -5
-16 -6 4 -1 20 -3 21 -16 11 -8 -7 -15 -21 -15 -31 0 -11 -5 -19 -11 -19 -5 0
-7 6 -3 13 5 9 3 9 -7 -1 -10 -10 -11 -15 -2 -20 13 -8 2 -35 -13 -32 -19 3
-15 -33 6 -52 28 -27 20 -33 -25 -18 -21 7 -55 10 -79 6 -29 -4 -37 -3 -26 4
8 5 25 10 36 10 12 0 32 9 45 19 19 15 21 22 12 32 -10 10 -14 9 -19 -4 -3 -9
-19 -19 -35 -22 -16 -4 -31 -11 -34 -16 -4 -5 -16 -9 -28 -8 -13 0 -16 3 -8 6
10 4 10 7 1 13 -6 4 11 10 39 14 48 6 78 25 53 34 -7 2 -13 20 -13 40 -1 21
-3 29 -6 19 -4 -16 -7 -15 -19 8 -8 16 -13 30 -10 32 6 6 56 -19 56 -29 0 -20
18 -5 23 20 3 15 8 36 12 47 3 11 -1 7 -10 -8 -22 -39 -26 -31 -13 27 10 46
11 48 22 28 11 -21 13 -21 30 -5z"/>
<path fill="#ffffff" stroke="none" d="M73 93 c-7 -2 -19 -2 -25 0 -7 3 -2 5
12 5 14 0 19 -2 13 -5z"/>
<path fill="#ffffff" stroke="none" d="M269 80 c33 0 39 -11 18 -28 -26 -22
-63 -24 -88 -3 -31 25 -19 38 16 15 20 -13 29 -14 38 -5 9 10 9 11 -4 6 -9 -3
-23 3 -35 16 -19 22 -19 22 3 10 12 -6 35 -11 52 -11z"/>
<path fill="#000000" stroke="none" d="M219 263 c-15 -15 -29 -40 -33 -55 l-6
-27 36 33 c25 23 35 40 32 55 -3 22 -3 22 -29 -6z"/>
<path fill="#000000" stroke="none" d="M161 144 c0 -11 3 -14 6 -6 3 7 2 16
-1 19 -3 4 -6 -2 -5 -13z"/>
</g>
</svg>
