<?xml version="1.0" standalone="no"?>
<!DOCTYPE svg PUBLIC "-//W3C//DTD SVG 20010904//EN"
 "http://www.w3.org/TR/2001/REC-SVG-20010904/DTD/svg10.dtd">
<svg version="1.0" xmlns="http://www.w3.org/2000/svg"
 width="32.000000pt" height="32.000000pt" viewBox="0 0 32.000000 32.000000"
 preserveAspectRatio="xMidYMid meet">
<metadata>
Created by potrace 1.16, written by Peter Selinger 2001-2019
</metadata>
<g transform="translate(0.000000,32.000000) scale(0.100000,-0.100000)"
fill="#000000" stroke="none">
<path fill="#000000" stroke="none" d="M190 306 c0 -2 9 -6 20 -9 11 -3 18 -1
14 4 -5 9 -34 13 -34 5z"/>
<path fill="#000000" stroke="none" d="M85 215 c4 -11 14 -36 21 -55 7 -19 13
-44 14 -54 0 -13 3 -17 10 -10 11 11 -12 83 -38 119 l-14 20 7 -20z"/>
<path fill="#000000" stroke="none" d="M265 130 c-3 -5 1 -10 10 -10 9 0 13 5
10 10 -3 6 -8 10 -10 10 -2 0 -7 -4 -10 -10z"/>
<path fill="#000000" stroke="none" d="M150 80 c0 -18 4 -29 10 -25 6 3 10 15
10 25 0 10 -4 22 -10 25 -6 4 -10 -7 -10 -25z"/>
<path fill="#000000" stroke="none" d="M227 93 c-4 -3 -7 -11 -7 -17 0 -6 5
-5 12 2 6 6 9 14 7 17 -3 3 -9 2 -12 -2z"/>
</g>
</svg>
