<?xml version="1.0" standalone="no"?>
<!DOCTYPE svg PUBLIC "-//W3C//DTD SVG 20010904//EN"
 "http://www.w3.org/TR/2001/REC-SVG-20010904/DTD/svg10.dtd">
<svg version="1.0" xmlns="http://www.w3.org/2000/svg"
 width="32.000000pt" height="32.000000pt" viewBox="0 0 32.000000 32.000000"
 preserveAspectRatio="xMidYMid meet">
<metadata>
Created by potrace 1.16, written by Peter Selinger 2001-2019
</metadata>
<g transform="translate(0.000000,32.000000) scale(0.100000,-0.100000)"
fill="#000000" stroke="none">
<path fill="#000000" stroke="none" d="M69 292 c-10 -7 -19 -21 -19 -30 0 -13
3 -12 16 6 8 12 26 22 39 22 13 0 27 4 30 10 9 14 -43 8 -66 -8z"/>
<path fill="#000000" stroke="none" d="M85 270 c-3 -5 -2 -10 4 -10 5 0 13 5
16 10 3 6 2 10 -4 10 -5 0 -13 -4 -16 -10z"/>
<path fill="#000000" stroke="none" d="M140 245 c-11 -13 -10 -14 4 -9 9 3 16
10 16 15 0 13 -6 11 -20 -6z"/>
<path fill="#000000" stroke="none" d="M40 231 c0 -10 28 -41 36 -41 2 0 -3
11 -12 25 -17 26 -24 31 -24 16z"/>
<path fill="#000000" stroke="none" d="M182 224 c-12 -8 -19 -20 -16 -26 4 -7
10 -5 16 6 13 24 45 20 63 -8 19 -28 15 -38 -38 -106 -33 -41 -38 -60 -16 -60
5 0 8 3 8 8 -3 20 3 23 19 11 15 -13 16 -12 4 3 -12 14 -9 20 16 43 17 15 29
34 27 43 -1 9 0 22 4 27 3 6 6 19 8 30 1 11 0 15 -3 8 -3 -7 -14 -2 -29 13
-28 28 -33 29 -63 8z"/>
<path fill="#000000" stroke="none" d="M126 136 c3 -13 -1 -37 -10 -53 -27
-53 1 -98 35 -57 9 12 10 15 2 10 -18 -10 -33 1 -27 19 4 8 10 13 15 10 4 -3
6 3 4 15 -2 11 0 22 6 25 5 4 9 11 9 16 0 6 -4 8 -9 5 -5 -4 -7 3 -4 14 4 14
0 20 -11 20 -12 0 -15 -6 -10 -24z"/>
<path fill="#000000" stroke="none" d="M35 98 c1 -21 -1 -35 -6 -33 -4 3 -11
0 -15 -6 -4 -7 -3 -9 3 -6 6 4 13 -2 16 -13 6 -23 37 -27 37 -5 0 9 -7 26 -15
39 -16 23 -11 56 7 56 6 0 7 -8 3 -17 -5 -14 -3 -15 6 -6 15 15 4 32 -20 30
-14 -1 -18 -9 -16 -39z"/>
<path fill="#ffffff" stroke="none" d="M60 39 c0 -6 -4 -7 -10 -4 -5 3 -10 11
-10 16 0 6 5 7 10 4 6 -3 10 -11 10 -16z"/>
</g>
</svg>
