<?xml version="1.0" standalone="no"?>
<!DOCTYPE svg PUBLIC "-//W3C//DTD SVG 20010904//EN"
 "http://www.w3.org/TR/2001/REC-SVG-20010904/DTD/svg10.dtd">
<svg version="1.0" xmlns="http://www.w3.org/2000/svg"
 width="32.000000pt" height="32.000000pt" viewBox="0 0 32.000000 32.000000"
 preserveAspectRatio="xMidYMid meet">
<metadata>
Created by potrace 1.16, written by Peter Selinger 2001-2019
</metadata>
<g transform="translate(0.000000,32.000000) scale(0.100000,-0.100000)"
fill="#000000" stroke="none">
<path fill="#000000" stroke="none" d="M0 160 l0 -160 64 0 c60 0 64 2 70 25
4 15 11 23 17 19 8 -4 7 -10 0 -17 -22 -22 -9 -27 79 -27 l90 0 0 160 0 160
-160 0 -160 0 0 -160z"/>
<path fill="#ffffff" stroke="none" d="M310 226 c0 -2 -8 -10 -17 -17 -15 -12
-16 -12 -8 1 5 9 0 8 -13 -4 -16 -14 -20 -26 -16 -40 6 -20 6 -20 -13 -3 -11
9 -22 17 -26 17 -3 0 -4 -8 0 -17 5 -14 3 -15 -7 -7 -17 16 -3 53 23 64 22 9
77 13 77 6z"/>
<path fill="#ffffff" stroke="none" d="M167 198 c15 -12 7 -31 -9 -22 -6 4
-15 0 -20 -7 -6 -10 -7 -7 -3 10 5 17 4 22 -6 19 -8 -3 -13 -12 -11 -21 1 -8
-3 -19 -9 -23 -8 -5 -9 -3 -4 7 8 12 6 12 -8 1 -17 -14 -42 -7 -32 9 4 5 2 9
-4 9 -5 0 -13 -4 -16 -10 -3 -5 -13 -10 -20 -10 -20 0 -8 26 18 38 28 13 108
13 124 0z"/>
<path fill="#ffffff" stroke="none" d="M106 130 c8 0 14 -7 14 -15 0 -14 -3
-14 -24 0 -18 12 -26 13 -32 4 -4 -7 -3 -9 4 -5 6 3 16 -2 21 -12 13 -24 3
-36 -16 -21 -9 9 -13 8 -13 0 0 -6 -11 -11 -25 -11 -14 0 -25 5 -25 10 0 20
50 62 66 56 9 -3 22 -6 30 -6z"/>
<path fill="#ffffff" stroke="none" d="M210 129 c26 -10 29 -14 17 -21 -13 -7
-14 -14 -7 -34 14 -35 12 -41 -3 -19 -10 12 -16 14 -21 7 -4 -7 -12 -12 -18
-12 -7 0 -7 4 -1 13 6 6 13 20 16 30 6 15 4 16 -13 7 -10 -5 -22 -15 -25 -20
-10 -17 -25 -11 -25 9 0 14 21 38 46 50 1 1 16 -4 34 -10z"/>
<path fill="#ffffff" stroke="none" d="M309 55 c0 -19 0 -19 -14 -2 -7 11 -11
26 -8 35 4 10 2 13 -5 8 -13 -8 -17 6 -5 18 9 9 32 -33 32 -59z"/>
<path fill="#ffffff" stroke="none" d="M80 30 c0 -16 -22 -22 -33 -11 -8 8 -8
11 2 11 7 0 9 4 6 10 -3 6 1 7 9 4 9 -3 16 -10 16 -14z"/>
<path fill="#ffffff" stroke="none" d="M97 18 c-3 -7 -5 -2 -5 12 0 14 2 19 5
13 2 -7 2 -19 0 -25z"/>
<path fill="#ffffff" stroke="none" d="M283 27 c7 3 8 2 4 -2 -10 -11 -37 -15
-37 -6 0 14 14 23 18 12 2 -6 9 -8 15 -4z"/>
</g>
</svg>
