<?xml version="1.0" standalone="no"?>
<!DOCTYPE svg PUBLIC "-//W3C//DTD SVG 20010904//EN"
 "http://www.w3.org/TR/2001/REC-SVG-20010904/DTD/svg10.dtd">
<svg version="1.0" xmlns="http://www.w3.org/2000/svg"
 width="32.000000pt" height="32.000000pt" viewBox="0 0 32.000000 32.000000"
 preserveAspectRatio="xMidYMid meet">
<metadata>
Created by potrace 1.16, written by Peter Selinger 2001-2019
</metadata>
<g transform="translate(0.000000,32.000000) scale(0.100000,-0.100000)"
fill="#000000" stroke="none">
<path fill="#000000" stroke="none" d="M31 272 c-6 -12 -5 -25 4 -42 10 -18
10 -29 3 -38 -15 -18 -2 -27 17 -12 13 11 20 9 40 -10 14 -13 33 -41 42 -62
10 -22 21 -34 26 -29 9 9 -15 65 -33 76 -16 10 -12 23 10 30 11 3 20 13 20 21
0 18 -10 18 -38 -2 -27 -19 -41 -12 -22 11 18 22 4 31 -18 12 -21 -19 -38 -11
-20 10 9 11 7 12 -7 7 -15 -6 -17 -3 -13 19 6 31 3 34 -11 9z"/>
<path fill="#ffffff" stroke="none" d="M140 196 c0 -2 -7 -7 -16 -10 -8 -3
-12 -2 -9 4 6 10 25 14 25 6z"/>
<path fill="#000000" stroke="none" d="M206 262 c-2 -4 -1 -32 4 -62 l8 -55
-1 63 c-2 64 -2 67 -11 54z"/>
<path fill="#000000" stroke="none" d="M230 220 c0 -5 5 -10 10 -10 6 0 10 5
10 10 0 6 -4 10 -10 10 -5 0 -10 -4 -10 -10z"/>
<path fill="#000000" stroke="none" d="M180 200 c0 -5 5 -10 10 -10 6 0 10 5
10 10 0 6 -4 10 -10 10 -5 0 -10 -4 -10 -10z"/>
<path fill="#000000" stroke="none" d="M230 174 c0 -8 5 -12 10 -9 6 4 8 11 5
16 -9 14 -15 11 -15 -7z"/>
<path fill="#000000" stroke="none" d="M277 164 c5 -13 3 -15 -7 -9 -8 5 -11
4 -7 -3 4 -5 4 -18 1 -27 -6 -16 -8 -16 -16 -1 -5 9 -14 14 -19 10 -6 -4 -6
-11 2 -20 16 -19 4 -30 -15 -15 -8 7 -20 10 -27 6 -7 -5 -2 -15 16 -31 31 -27
66 -34 46 -10 -9 10 -7 17 6 27 9 8 14 9 10 2 -4 -6 -2 -15 4 -18 16 -10 23 3
10 18 -12 15 -5 50 9 42 5 -3 6 4 3 15 -3 11 -9 23 -14 26 -5 3 -6 -3 -2 -12z"/>
<path fill="#000000" stroke="none" d="M60 155 c-16 -19 -7 -30 14 -18 9 5 12
13 7 21 -6 10 -11 10 -21 -3z"/>
<path fill="#000000" stroke="none" d="M158 153 c6 -2 10 -8 7 -13 -3 -4 6
-10 20 -12 21 -4 23 -3 14 13 -5 11 -20 19 -32 18 -12 0 -16 -3 -9 -6z"/>
<path fill="#000000" stroke="none" d="M87 129 c-9 -6 -17 -14 -17 -19 0 -12
30 -13 48 -1 21 13 -8 32 -31 20z"/>
<path fill="#000000" stroke="none" d="M110 65 c9 -11 9 -15 1 -15 -7 0 -9 -5
-6 -10 4 -6 11 -7 17 -4 7 4 8 2 4 -4 -5 -9 -13 -9 -27 -1 -12 6 -23 8 -26 5
-8 -8 47 -27 58 -20 13 8 11 38 -3 52 -17 17 -33 15 -18 -3z"/>
<path fill="#000000" stroke="none" d="M187 34 c-14 -14 -7 -19 29 -20 26 -1
31 2 20 8 -9 5 -20 7 -25 3 -5 -3 -11 0 -13 6 -2 5 -7 7 -11 3z"/>
</g>
</svg>
