<?xml version="1.0" standalone="no"?>
<!DOCTYPE svg PUBLIC "-//W3C//DTD SVG 20010904//EN"
 "http://www.w3.org/TR/2001/REC-SVG-20010904/DTD/svg10.dtd">
<svg version="1.0" xmlns="http://www.w3.org/2000/svg"
 width="32.000000pt" height="32.000000pt" viewBox="0 0 32.000000 32.000000"
 preserveAspectRatio="xMidYMid meet">
<metadata>
Created by potrace 1.16, written by Peter Selinger 2001-2019
</metadata>
<g transform="translate(0.000000,32.000000) scale(0.100000,-0.100000)"
fill="#000000" stroke="none">
<path fill="#000000" stroke="none" d="M119 283 c-13 -15 -12 -15 7 -3 16 10
26 10 40 2 16 -10 17 -11 2 -12 -9 0 -20 -5 -24 -11 -5 -9 1 -10 20 -5 20 5
26 3 26 -9 0 -37 -67 -144 -86 -138 -6 2 -17 -3 -24 -12 -11 -13 -10 -14 5 -9
12 5 22 1 31 -10 12 -17 14 -15 28 18 8 20 20 36 26 36 6 0 9 4 6 9 -3 4 2 17
10 27 9 10 13 13 9 7 -4 -9 2 -13 19 -13 13 0 33 -3 43 -6 14 -4 13 -1 -6 15
-13 12 -29 21 -37 21 -24 0 -16 40 10 50 35 13 42 30 9 21 -22 -6 -32 -3 -46
16 -22 27 -49 30 -68 6z"/>
<path fill="#000000" stroke="none" d="M50 218 c16 -20 12 -38 -7 -31 -15 5
-16 4 -5 -8 10 -11 8 -17 -10 -32 l-23 -19 23 5 c18 4 22 1 22 -18 0 -13 -7
-26 -16 -29 -8 -3 -13 -10 -10 -15 4 -5 0 -11 -6 -14 -7 -2 -10 -7 -7 -10 9
-11 49 23 49 41 0 10 15 26 33 37 25 15 28 20 14 23 -10 2 -24 -2 -32 -8 -12
-10 -15 -9 -15 8 0 16 5 19 23 15 21 -4 21 -4 3 11 -17 13 -17 18 -5 33 12 15
12 16 -2 11 -9 -4 -22 -2 -28 3 -8 6 -8 5 -1 -3z"/>
<path fill="#000000" stroke="none" d="M106 191 c-9 -14 22 -34 40 -27 13 5
14 9 4 21 -14 17 -36 20 -44 6z"/>
<path fill="#000000" stroke="none" d="M171 121 c-17 -11 23 -41 56 -41 23 0
23 1 7 25 -17 26 -39 31 -63 16z"/>
<path fill="#000000" stroke="none" d="M266 101 c-4 -5 -3 -16 0 -24 6 -17
-12 -32 -21 -17 -3 5 -11 10 -16 10 -6 0 -7 -4 -4 -10 9 -14 -21 -13 -45 2
-22 14 -25 12 -34 -22 -4 -14 -4 -20 1 -15 4 6 14 10 21 9 6 -1 22 -2 35 -3
18 -1 19 -3 7 -11 -12 -8 -10 -10 8 -10 13 0 21 4 18 9 -6 9 30 24 52 22 6 -1
12 3 12 9 0 5 -5 10 -11 10 -5 0 -8 4 -4 9 3 5 1 12 -5 16 -6 4 -8 11 -5 16 4
5 4 9 1 9 -3 0 -7 -4 -10 -9z"/>
<path fill="#000000" stroke="none" d="M95 39 c9 -17 19 -29 21 -26 8 7 -15
57 -26 57 -6 0 -4 -13 5 -31z"/>
<path fill="#000000" stroke="none" d="M60 53 c0 -6 -9 -15 -20 -18 -11 -4
-18 -11 -14 -16 4 -6 14 -3 27 8 19 16 20 16 14 1 -3 -10 -2 -20 3 -23 16 -10
18 10 4 35 -7 14 -13 20 -14 13z"/>
<path fill="#000000" stroke="none" d="M262 19 c2 -7 10 -15 17 -17 8 -3 12 1
9 9 -2 7 -10 15 -17 17 -8 3 -12 -1 -9 -9z"/>
<path fill="#000000" stroke="none" d="M165 10 c-3 -5 1 -10 10 -10 9 0 13 5
10 10 -3 6 -8 10 -10 10 -2 0 -7 -4 -10 -10z"/>
</g>
</svg>
