<?xml version="1.0" standalone="no"?>
<!DOCTYPE svg PUBLIC "-//W3C//DTD SVG 20010904//EN"
 "http://www.w3.org/TR/2001/REC-SVG-20010904/DTD/svg10.dtd">
<svg version="1.0" xmlns="http://www.w3.org/2000/svg"
 width="32.000000pt" height="32.000000pt" viewBox="0 0 32.000000 32.000000"
 preserveAspectRatio="xMidYMid meet">
<metadata>
Created by potrace 1.16, written by Peter Selinger 2001-2019
</metadata>
<g transform="translate(0.000000,32.000000) scale(0.100000,-0.100000)"
fill="#000000" stroke="none">
<path fill="#000000" stroke="none" d="M74 279 c-3 -6 -1 -16 5 -22 9 -9 11
-8 6 6 -10 25 31 23 45 -2 12 -24 13 -64 1 -77 -5 -5 -12 -20 -14 -34 -3 -14
-3 -4 -1 22 3 47 -8 70 -22 47 -5 -8 -3 -9 6 -4 9 6 11 0 6 -21 -16 -85 -17
-119 -2 -139 11 -14 18 -16 23 -9 6 8 14 4 27 -14 12 -15 14 -22 5 -17 -11 6
-11 5 -3 -4 9 -10 21 -10 52 -2 22 6 48 9 58 5 18 -5 18 -5 2 6 -21 13 -23 41
-6 58 19 19 31 14 25 -9 -4 -16 -3 -19 5 -11 13 13 3 42 -15 42 -7 0 -20 -11
-27 -25 -10 -19 -16 -22 -27 -14 -16 14 -17 -3 -1 -19 7 -7 8 -12 2 -12 -14 0
-52 29 -39 30 15 0 60 42 75 69 11 22 10 27 -11 43 -44 33 -49 39 -49 53 0 18
26 20 33 3 4 -10 6 -10 6 0 1 17 -28 27 -41 14 -17 -17 -1 -57 27 -70 32 -15
32 -32 -2 -63 -14 -13 -23 -18 -19 -11 11 19 -19 15 -35 -5 -12 -15 -12 -16 5
-10 16 6 17 5 6 -8 -17 -20 -19 -19 -30 10 -7 17 -6 49 2 96 12 69 12 72 -11
90 -26 21 -56 25 -67 8z"/>
<path fill="#000000" stroke="none" d="M56 191 c-4 -5 -1 -13 5 -17 8 -4 9 -3
5 4 -4 7 -2 12 5 12 7 0 9 -8 4 -22 -14 -45 -17 -78 -10 -95 5 -10 7 -22 6
-26 -1 -5 3 -6 9 -2 6 4 9 1 8 -6 -2 -6 3 -14 10 -16 10 -4 9 3 -3 27 -16 31
-19 62 -13 119 3 25 -15 40 -26 22z"/>
<path fill="#000000" stroke="none" d="M185 161 c-3 -7 0 -8 9 -5 21 8 20 -5
-1 -23 -16 -13 -16 -13 5 -3 23 11 26 30 5 37 -6 2 -14 -1 -18 -6z"/>
<path fill="#000000" stroke="none" d="M30 57 c7 -32 6 -37 -6 -33 -8 3 -12 2
-9 -3 6 -11 55 -9 55 2 0 4 -4 13 -10 20 -6 6 -17 21 -25 32 -12 18 -13 16 -5
-18z"/>
</g>
</svg>
