<?xml version="1.0" standalone="no"?>
<!DOCTYPE svg PUBLIC "-//W3C//DTD SVG 20010904//EN"
 "http://www.w3.org/TR/2001/REC-SVG-20010904/DTD/svg10.dtd">
<svg version="1.0" xmlns="http://www.w3.org/2000/svg"
 width="32.000000pt" height="32.000000pt" viewBox="0 0 32.000000 32.000000"
 preserveAspectRatio="xMidYMid meet">
<metadata>
Created by potrace 1.16, written by Peter Selinger 2001-2019
</metadata>
<g transform="translate(0.000000,32.000000) scale(0.100000,-0.100000)"
fill="#000000" stroke="none">
<path fill="#000000" stroke="none" d="M173 287 c22 -19 22 -37 -2 -37 -37 0
-45 -26 -24 -71 16 -33 18 -47 9 -65 -8 -17 -12 -19 -14 -9 -2 8 -8 15 -15 15
-6 0 -3 6 7 13 15 11 17 17 7 35 -13 25 -26 30 -17 6 3 -9 2 -12 -5 -9 -6 4
-8 13 -5 20 2 7 0 17 -6 23 -14 14 12 74 30 67 7 -3 10 0 7 5 -11 18 -24 10
-41 -25 -13 -28 -14 -38 -4 -50 14 -16 3 -20 -19 -6 -9 6 -11 18 -7 34 7 29
-18 57 -35 40 -8 -8 -6 -11 7 -10 16 2 18 -4 16 -35 -2 -22 1 -38 7 -38 6 0
15 -9 21 -21 10 -19 10 -20 -9 -10 -26 14 -34 14 -57 -4 -14 -11 -15 -15 -4
-14 8 1 22 1 30 0 12 -1 12 -4 -2 -12 -26 -15 -23 -43 3 -36 19 5 20 4 5 -12
-18 -20 -21 -41 -6 -41 5 0 14 8 19 18 10 16 10 16 11 -1 0 -14 6 -16 28 -12
l27 6 -25 -15 c-18 -11 -21 -15 -8 -16 18 0 48 25 48 41 0 6 7 3 16 -5 8 -9
27 -16 41 -16 23 0 25 3 19 30 -3 17 -2 29 2 26 4 -2 23 2 42 11 l35 14 -25
21 c-17 13 -33 18 -52 14 -37 -7 -35 1 5 18 l32 14 -32 1 c-19 1 -33 -4 -33
-11 0 -6 -2 -9 -5 -6 -3 3 -2 18 1 35 6 29 7 30 36 19 26 -9 32 -8 44 9 8 11
13 29 12 40 -3 23 -29 27 -35 5 -4 -13 -3 -13 6 0 14 20 25 6 17 -25 -4 -14
-13 -25 -22 -25 -24 0 -54 19 -54 35 0 8 -10 19 -22 25 -21 10 -21 10 -5 -3z"/>
<path fill="#ffffff" stroke="none" d="M186 218 c-3 -13 -6 -32 -6 -43 0 -17
-3 -15 -19 10 -19 32 -12 55 16 55 11 0 14 -7 9 -22z"/>
<path fill="#ffffff" stroke="none" d="M205 122 c-3 -3 -11 0 -18 7 -9 10 -8
11 6 5 10 -3 15 -9 12 -12z"/>
<path fill="#000000" stroke="none" d="M268 163 c7 -3 16 -2 19 1 4 3 -2 6
-13 5 -11 0 -14 -3 -6 -6z"/>
<path fill="#000000" stroke="none" d="M258 93 c-23 -6 -23 -36 -1 -54 15 -13
15 -12 4 9 -12 22 -11 23 8 17 15 -4 21 -2 21 9 0 18 -10 24 -32 19z"/>
</g>
</svg>
