<?xml version="1.0" standalone="no"?>
<!DOCTYPE svg PUBLIC "-//W3C//DTD SVG 20010904//EN"
 "http://www.w3.org/TR/2001/REC-SVG-20010904/DTD/svg10.dtd">
<svg version="1.0" xmlns="http://www.w3.org/2000/svg"
 width="32.000000pt" height="32.000000pt" viewBox="0 0 32.000000 32.000000"
 preserveAspectRatio="xMidYMid meet">
<metadata>
Created by potrace 1.16, written by Peter Selinger 2001-2019
</metadata>
<g transform="translate(0.000000,32.000000) scale(0.100000,-0.100000)"
fill="#000000" stroke="none">
<path fill="#000000" stroke="none" d="M91 295 c-18 -8 -42 -15 -52 -15 -23 0
-35 -25 -21 -43 6 -6 12 -25 14 -42 2 -18 9 -30 18 -30 8 0 18 13 21 30 4 17
7 24 8 16 0 -8 8 -19 17 -26 15 -11 15 -14 0 -38 -10 -14 -16 -38 -14 -53 2
-23 -2 -29 -22 -34 -18 -4 -25 -13 -25 -30 0 -25 0 -25 103 -25 56 -1 102 2
102 5 0 12 50 30 66 23 12 -4 15 -1 12 13 -1 10 -14 21 -27 24 -14 3 -26 11
-29 18 -2 7 2 10 12 6 10 -4 18 1 23 12 3 11 11 22 17 26 7 5 7 8 -2 8 -10 0
-10 4 0 21 10 17 10 23 1 26 -7 3 -13 11 -13 18 0 78 -119 129 -209 90z"/>
<path fill="#ffffff" stroke="none" d="M229 286 c34 -18 56 -62 41 -81 -15
-18 -86 -8 -130 18 -28 17 -32 18 -21 4 11 -15 11 -17 -2 -17 -17 0 -40 24
-30 33 3 4 -3 7 -15 7 -16 0 -22 -7 -23 -22 l-2 -23 -4 23 c-2 12 -8 20 -12
18 -4 -3 -8 1 -8 9 0 8 8 15 18 15 9 0 32 7 50 15 44 18 103 19 138 1z"/>
<path fill="#ffffff" stroke="none" d="M186 149 c16 -33 20 -84 4 -59 -8 12
-10 10 -11 -10 0 -14 -3 -19 -6 -11 -5 11 -7 11 -14 0 -7 -11 -9 -9 -10 6 l0
20 -9 -20 c-5 -11 -9 -14 -9 -7 -1 7 -5 10 -11 7 -5 -3 -10 1 -10 10 0 9 -4
13 -10 10 -20 -12 -10 31 16 68 28 42 42 39 70 -14z"/>
<path fill="#ffffff" stroke="none" d="M250 175 c9 -10 9 -15 1 -15 -6 0 -12
-17 -12 -37 l-2 -38 -6 40 c-3 22 -11 39 -17 38 -6 -1 -11 5 -11 13 0 18 31
18 47 -1z"/>
<path fill="#ffffff" stroke="none" d="M310 169 c0 -5 -7 -9 -15 -9 -8 0 -15
-9 -15 -19 0 -11 -4 -22 -9 -26 -6 -3 -6 6 -1 25 5 16 6 30 4 30 -3 0 -3 4 1
10 7 11 35 2 35 -11z"/>
<path fill="#ffffff" stroke="none" d="M217 88 c-3 -8 -6 -5 -6 6 -1 11 2 17
5 13 3 -3 4 -12 1 -19z"/>
<path fill="#ffffff" stroke="none" d="M98 49 c-2 -6 -7 -10 -11 -10 -4 1 -17
1 -29 2 -22 1 -22 1 2 9 36 11 42 11 38 -1z"/>
<path fill="#ffffff" stroke="none" d="M142 27 c-33 -10 -49 -6 -38 11 3 5 20
6 38 4 l33 -6 -33 -9z"/>
<path fill="#ffffff" stroke="none" d="M191 17 c-8 -8 -11 -7 -11 4 0 20 13
34 18 19 3 -7 -1 -17 -7 -23z"/>
</g>
</svg>
