<?xml version="1.0" standalone="no"?>
<!DOCTYPE svg PUBLIC "-//W3C//DTD SVG 20010904//EN"
 "http://www.w3.org/TR/2001/REC-SVG-20010904/DTD/svg10.dtd">
<svg version="1.0" xmlns="http://www.w3.org/2000/svg"
 width="32.000000pt" height="32.000000pt" viewBox="0 0 32.000000 32.000000"
 preserveAspectRatio="xMidYMid meet">
<metadata>
Created by potrace 1.16, written by Peter Selinger 2001-2019
</metadata>
<g transform="translate(0.000000,32.000000) scale(0.100000,-0.100000)"
fill="#000000" stroke="none">
<path fill="#000000" stroke="none" d="M0 160 c0 -147 1 -160 18 -160 13 0 18
8 17 27 0 20 6 28 25 33 20 5 24 11 22 34 -2 15 4 39 14 53 15 24 15 27 0 38
-9 7 -17 18 -17 26 -1 8 -4 1 -8 -16 -3 -17 -13 -30 -21 -30 -9 0 -16 12 -18
30 -2 17 -8 36 -14 42 -14 18 -2 43 20 43 11 0 36 7 55 15 92 38 207 -12 207
-90 0 -8 5 -15 10 -15 6 0 10 28 10 65 l0 65 -160 0 -160 0 0 -160z"/>
<path fill="#000000" stroke="none" d="M110 289 c-36 -15 -37 -18 -10 -41 16
-13 19 -18 8 -14 -21 6 -24 -9 -4 -17 8 -3 17 -1 19 6 3 9 13 7 35 -6 26 -15
36 -16 54 -6 47 24 50 52 8 74 -33 17 -73 18 -110 4z"/>
<path fill="#000000" stroke="none" d="M39 238 c4 -32 5 -32 11 -8 7 26 4 40
-9 40 -4 0 -5 -15 -2 -32z"/>
<path fill="#000000" stroke="none" d="M116 163 c-26 -37 -36 -80 -16 -68 6 3
10 -1 10 -10 0 -9 5 -13 10 -10 6 3 10 0 11 -7 0 -7 4 -4 9 7 l9 20 0 -20 c1
-15 3 -17 10 -6 7 11 9 11 14 0 3 -8 6 -3 6 11 1 20 3 22 11 10 16 -25 12 26
-4 59 -28 53 -42 56 -70 14z"/>
<path fill="#000000" stroke="none" d="M206 175 c-3 -8 0 -14 7 -12 7 1 14
-14 17 -38 l6 -40 5 45 c3 27 1 48 -5 52 -16 11 -23 10 -30 -7z"/>
<path fill="#000000" stroke="none" d="M285 170 c4 -6 11 -8 16 -5 14 9 11 15
-7 15 -8 0 -12 -5 -9 -10z"/>
<path fill="#000000" stroke="none" d="M268 137 c-3 -19 -2 -25 4 -19 6 6 8
18 6 28 -3 14 -5 12 -10 -9z"/>
<path fill="#000000" stroke="none" d="M297 109 c-4 -15 -11 -20 -22 -15 -11
4 -15 2 -13 -6 3 -7 16 -15 31 -19 25 -7 27 -5 27 27 0 38 -15 46 -23 13z"/>
<path fill="#000000" stroke="none" d="M211 94 c0 -11 3 -14 6 -6 3 7 2 16 -1
19 -3 4 -6 -2 -5 -13z"/>
<path fill="#000000" stroke="none" d="M60 50 c-24 -8 -24 -8 -2 -9 12 -1 25
-1 29 -2 4 0 9 4 11 10 4 12 -2 12 -38 1z"/>
<path fill="#000000" stroke="none" d="M104 38 c-11 -17 5 -21 38 -11 l33 9
-33 6 c-18 2 -35 1 -38 -4z"/>
<path fill="#000000" stroke="none" d="M185 35 c-5 -11 -10 -24 -13 -30 -3 -6
3 -3 13 7 9 9 15 22 12 30 -3 9 -7 7 -12 -7z"/>
<path fill="#000000" stroke="none" d="M263 28 c-35 -17 -28 -28 17 -28 28 0
40 4 40 14 0 11 -24 29 -33 25 -1 0 -12 -5 -24 -11z"/>
</g>
</svg>
