<?xml version="1.0" standalone="no"?>
<!DOCTYPE svg PUBLIC "-//W3C//DTD SVG 20010904//EN"
 "http://www.w3.org/TR/2001/REC-SVG-20010904/DTD/svg10.dtd">
<svg version="1.0" xmlns="http://www.w3.org/2000/svg"
 width="32.000000pt" height="32.000000pt" viewBox="0 0 32.000000 32.000000"
 preserveAspectRatio="xMidYMid meet">
<metadata>
Created by potrace 1.16, written by Peter Selinger 2001-2019
</metadata>
<g transform="translate(0.000000,32.000000) scale(0.100000,-0.100000)"
fill="#000000" stroke="none">
<path fill="#000000" stroke="none" d="M91 295 c-18 -8 -42 -15 -52 -15 -23 0
-35 -25 -21 -43 6 -6 12 -25 14 -42 4 -38 31 -40 38 -3 4 22 8 25 20 18 13 -8
13 -10 1 -10 -11 0 -10 -3 3 -13 18 -13 18 -15 2 -40 -10 -14 -16 -38 -14 -53
2 -23 -2 -29 -22 -34 -26 -6 -39 -35 -23 -51 6 -6 20 -6 36 0 18 7 27 7 27 0
0 -5 19 -9 44 -8 43 3 44 3 34 30 -7 20 -15 27 -29 24 -10 -2 -19 2 -19 8 0 7
-12 -1 -25 -16 -18 -20 -31 -26 -45 -22 -25 8 -26 25 -2 25 18 1 52 23 52 34
0 4 -4 4 -10 1 -19 -12 -10 37 16 81 25 43 26 43 49 26 21 -15 41 -84 34 -118
-6 -33 26 -87 40 -66 11 17 50 32 66 26 13 -5 16 -2 13 12 -1 10 -14 21 -27
24 -14 3 -26 11 -29 18 -2 7 2 10 12 6 10 -4 18 1 23 12 3 11 11 22 17 26 7 5
7 8 -2 8 -10 0 -10 4 0 21 10 17 10 23 1 26 -7 3 -13 11 -13 18 0 78 -119 129
-209 90z"/>
<path fill="#ffffff" stroke="none" d="M229 286 c27 -14 51 -53 51 -82 0 -8 7
-17 15 -20 8 -4 15 -10 15 -15 0 -5 -7 -9 -15 -9 -8 0 -15 -9 -15 -19 0 -11
-4 -22 -9 -26 -6 -3 -7 6 -2 23 7 24 5 31 -13 42 -18 11 -19 11 -9 -1 9 -12 9
-23 -1 -53 l-13 -39 -7 37 c-4 20 -11 36 -16 36 -6 0 -9 4 -8 9 2 5 -14 21
-35 35 -21 15 -36 22 -33 17 3 -5 -1 -12 -10 -15 -8 -3 -12 -11 -8 -17 4 -8 3
-9 -5 -5 -6 4 -9 11 -6 16 3 5 -4 14 -15 20 -11 6 -18 15 -15 21 4 5 -1 9 -10
9 -9 0 -14 -4 -11 -8 2 -4 1 -13 -3 -20 -4 -8 -11 -5 -20 9 -10 17 -10 20 1
13 10 -6 10 -4 -1 9 -12 15 -11 17 7 17 11 0 35 7 53 15 44 18 103 19 138 1z"/>
<path fill="#ffffff" stroke="none" d="M217 88 c-3 -8 -6 -5 -6 6 -1 11 2 17
5 13 3 -3 4 -12 1 -19z"/>
<path fill="#ffffff" stroke="none" d="M142 27 c-33 -10 -49 -6 -38 11 3 5 20
6 38 4 l33 -6 -33 -9z"/>
</g>
</svg>
