<?xml version="1.0" standalone="no"?>
<!DOCTYPE svg PUBLIC "-//W3C//DTD SVG 20010904//EN"
 "http://www.w3.org/TR/2001/REC-SVG-20010904/DTD/svg10.dtd">
<svg version="1.0" xmlns="http://www.w3.org/2000/svg"
 width="32.000000pt" height="32.000000pt" viewBox="0 0 32.000000 32.000000"
 preserveAspectRatio="xMidYMid meet">
<metadata>
Created by potrace 1.16, written by Peter Selinger 2001-2019
</metadata>
<g transform="translate(0.000000,32.000000) scale(0.100000,-0.100000)"
fill="#000000" stroke="none">
<path fill="#000000" stroke="none" d="M0 160 c0 -147 1 -160 18 -160 13 0 18
8 17 27 0 20 6 28 25 33 20 5 24 11 22 34 -2 15 4 38 12 52 15 21 15 24 1 24
-8 0 -15 8 -16 18 0 12 -3 11 -10 -6 -12 -31 -33 -23 -37 14 -2 16 -8 35 -14
41 -16 20 -1 43 27 43 14 0 25 4 25 9 0 14 85 23 143 16 50 -6 53 -9 70 -48 9
-23 17 -48 17 -55 0 -6 5 -12 10 -12 6 0 10 28 10 65 l0 65 -160 0 -160 0 0
-160z"/>
<path fill="#000000" stroke="none" d="M41 234 c0 -11 3 -14 6 -6 3 7 2 16 -1
19 -3 4 -6 -2 -5 -13z"/>
<path fill="#000000" stroke="none" d="M90 236 c0 -2 8 -10 18 -17 15 -13 16
-12 3 4 -13 16 -21 21 -21 13z"/>
<path fill="#000000" stroke="none" d="M217 179 c6 -8 13 -32 15 -54 l3 -40 6
43 c4 37 1 45 -16 54 -17 10 -18 9 -8 -3z"/>
<path fill="#000000" stroke="none" d="M105 140 c-17 -34 -19 -44 -5 -35 6 3
10 -1 10 -10 0 -9 4 -14 9 -11 5 4 12 0 14 -6 3 -7 6 -2 7 12 l2 25 8 -25 c7
-21 8 -22 9 -5 1 17 3 17 11 5 8 -13 10 -12 10 3 0 10 5 15 10 12 20 -12 9 16
-15 40 -32 33 -51 31 -70 -5z"/>
<path fill="#000000" stroke="none" d="M271 144 c0 -11 3 -14 6 -6 3 7 2 16
-1 19 -3 4 -6 -2 -5 -13z"/>
<path fill="#000000" stroke="none" d="M297 109 c-4 -15 -11 -20 -22 -15 -11
4 -15 2 -13 -6 3 -7 16 -15 31 -19 25 -7 27 -5 27 27 0 38 -15 46 -23 13z"/>
<path fill="#000000" stroke="none" d="M211 94 c0 -11 3 -14 6 -6 3 7 2 16 -1
19 -3 4 -6 -2 -5 -13z"/>
<path fill="#000000" stroke="none" d="M110 33 c0 -14 15 -16 45 -4 17 7 15 9
-13 13 -22 3 -32 1 -32 -9z"/>
<path fill="#000000" stroke="none" d="M263 28 c-35 -17 -28 -28 17 -28 28 0
40 4 40 14 0 11 -24 29 -33 25 -1 0 -12 -5 -24 -11z"/>
</g>
</svg>
