<?xml version="1.0" standalone="no"?>
<!DOCTYPE svg PUBLIC "-//W3C//DTD SVG 20010904//EN"
 "http://www.w3.org/TR/2001/REC-SVG-20010904/DTD/svg10.dtd">
<svg version="1.0" xmlns="http://www.w3.org/2000/svg"
 width="32.000000pt" height="32.000000pt" viewBox="0 0 32.000000 32.000000"
 preserveAspectRatio="xMidYMid meet">
<metadata>
Created by potrace 1.16, written by Peter Selinger 2001-2019
</metadata>
<g transform="translate(0.000000,32.000000) scale(0.100000,-0.100000)"
fill="#000000" stroke="none">
<path fill="#000000" stroke="none" d="M45 310 c3 -5 14 -10 24 -10 10 0 29
-9 43 -20 27 -21 48 -12 48 22 0 15 -9 18 -61 18 -37 0 -58 -4 -54 -10z"/>
<path fill="#000000" stroke="none" d="M200 311 c0 -17 18 -21 24 -6 3 9 0 15
-9 15 -8 0 -15 -4 -15 -9z"/>
<path fill="#000000" stroke="none" d="M258 290 c-3 -18 0 -31 9 -34 8 -3 13
2 13 15 0 13 6 19 17 17 10 -2 19 4 21 15 3 13 -3 17 -26 17 -25 0 -30 -4 -34
-30z"/>
<path fill="#000000" stroke="none" d="M0 135 l0 -135 35 0 c33 0 34 1 23 20
-10 16 -10 24 0 41 10 16 10 24 1 35 -6 7 -16 11 -22 7 -5 -3 -7 -1 -3 5 3 6
0 17 -7 24 -11 11 -12 16 -1 25 10 10 14 10 17 0 3 -7 6 -4 6 6 1 9 -6 17 -14
17 -20 0 -19 34 1 51 14 12 14 14 -2 26 -10 7 -21 13 -26 13 -4 0 -8 -61 -8
-135z"/>
<path fill="#ffffff" stroke="none" d="M44 75 c-6 -16 -24 -21 -24 -7 0 11 11
22 21 22 5 0 6 -7 3 -15z"/>
<path fill="#000000" stroke="none" d="M307 213 c-11 -10 -8 -53 3 -53 6 0 10
14 10 30 0 31 -2 35 -13 23z"/>
<path fill="#000000" stroke="none" d="M40 129 c0 -5 5 -7 10 -4 6 3 10 8 10
11 0 2 -4 4 -10 4 -5 0 -10 -5 -10 -11z"/>
<path fill="#000000" stroke="none" d="M293 93 c-3 -10 -8 -21 -10 -25 -1 -3
6 -4 17 -1 11 3 20 14 20 24 0 24 -19 25 -27 2z"/>
</g>
</svg>
