<?xml version="1.0" standalone="no"?>
<!DOCTYPE svg PUBLIC "-//W3C//DTD SVG 20010904//EN"
 "http://www.w3.org/TR/2001/REC-SVG-20010904/DTD/svg10.dtd">
<svg version="1.0" xmlns="http://www.w3.org/2000/svg"
 width="32.000000pt" height="32.000000pt" viewBox="0 0 32.000000 32.000000"
 preserveAspectRatio="xMidYMid meet">
<metadata>
Created by potrace 1.16, written by Peter Selinger 2001-2019
</metadata>
<g transform="translate(0.000000,32.000000) scale(0.100000,-0.100000)"
fill="#000000" stroke="none">
<path fill="#000000" stroke="none" d="M9 293 c-2 -16 -2 -81 -1 -145 3 -107
5 -118 22 -118 10 0 22 -5 26 -11 3 -6 15 -9 25 -6 10 3 22 1 25 -4 6 -10 173
-13 198 -3 14 5 16 29 16 160 l0 154 -154 0 -154 0 -3 -27z"/>
<path fill="#ffffff" stroke="none" d="M105 301 c-3 -2 4 -14 15 -26 19 -20
19 -23 5 -29 -9 -3 -14 -2 -11 3 3 5 -1 14 -8 20 -15 12 -32 -1 -23 -16 3 -5
-10 -15 -27 -23 l-32 -15 1 48 0 48 42 -3 c24 -1 40 -4 38 -7z"/>
<path fill="#ffffff" stroke="none" d="M310 277 c0 -24 -3 -28 -12 -19 -18 18
-30 14 -23 -7 9 -28 -32 -39 -50 -14 -11 14 -14 15 -15 3 0 -13 -2 -13 -9 -1
-6 9 -6 22 1 34 13 24 3 34 -18 16 -21 -17 -42 -20 -51 -7 -4 7 -1 8 8 4 8 -4
5 0 -5 8 -18 15 -12 16 77 15 l97 -1 0 -31z"/>
<path fill="#ffffff" stroke="none" d="M309 139 l-2 -78 -28 16 -27 16 21 17
c18 15 19 20 8 34 -15 18 -31 21 -31 5 0 -5 4 -8 9 -5 11 7 8 -21 -4 -31 -4
-4 -5 -2 -1 5 4 7 1 12 -8 12 -9 0 -16 4 -16 9 0 20 13 41 25 41 6 0 20 10 31
21 19 22 19 22 -6 10 -23 -11 -24 -11 -6 3 10 9 23 13 28 10 5 -3 8 -41 7 -85z"/>
<path fill="#ffffff" stroke="none" d="M134 204 c21 -21 20 -36 -1 -32 -10 2
-18 13 -19 26 -1 26 0 27 20 6z"/>
<path fill="#ffffff" stroke="none" d="M208 175 c-2 -15 -6 -21 -11 -16 -6 6
-7 17 -4 25 9 24 17 19 15 -9z"/>
<path fill="#ffffff" stroke="none" d="M100 179 c0 -6 -5 -19 -10 -30 -8 -13
-7 -25 0 -39 9 -17 8 -20 -12 -20 -19 0 -20 -2 -8 -11 12 -8 11 -9 -5 -7 -14
2 -20 -2 -19 -15 1 -9 -4 -17 -12 -17 -8 0 -13 9 -12 24 1 14 8 23 18 22 11
-1 15 10 16 44 0 25 1 48 2 53 3 11 42 8 42 -4z"/>
<path fill="#ffffff" stroke="none" d="M136 113 c-7 -17 -8 -17 -22 1 -11 16
-11 21 -2 27 18 11 32 -6 24 -28z"/>
<path fill="#ffffff" stroke="none" d="M48 115 c-3 -3 -9 2 -12 12 -6 14 -5
15 5 6 7 -7 10 -15 7 -18z"/>
<path fill="#ffffff" stroke="none" d="M224 69 c-3 -5 -10 -7 -15 -3 -5 3 -7
10 -3 15 3 5 10 7 15 3 5 -3 7 -10 3 -15z"/>
<path fill="#ffffff" stroke="none" d="M90 52 c0 -5 -7 -9 -15 -9 -8 0 -12 4
-9 9 7 10 24 10 24 0z"/>
<path fill="#ffffff" stroke="none" d="M154 39 c-3 -5 -10 -7 -15 -3 -5 3 -7
10 -3 15 3 5 10 7 15 3 5 -3 7 -10 3 -15z"/>
<path fill="#000000" stroke="none" d="M228 293 c6 -3 12 -11 12 -19 0 -10 -5
-12 -12 -8 -9 5 -9 2 1 -9 14 -18 26 -23 16 -7 -3 5 3 18 14 29 20 20 19 20
-12 19 -18 -1 -26 -3 -19 -5z"/>
</g>
</svg>
