<?xml version="1.0" standalone="no"?>
<!DOCTYPE svg PUBLIC "-//W3C//DTD SVG 20010904//EN"
 "http://www.w3.org/TR/2001/REC-SVG-20010904/DTD/svg10.dtd">
<svg version="1.0" xmlns="http://www.w3.org/2000/svg"
 width="32.000000pt" height="32.000000pt" viewBox="0 0 32.000000 32.000000"
 preserveAspectRatio="xMidYMid meet">
<metadata>
Created by potrace 1.16, written by Peter Selinger 2001-2019
</metadata>
<g transform="translate(0.000000,32.000000) scale(0.100000,-0.100000)"
fill="#000000" stroke="none">
<path fill="#000000" stroke="none" d="M12 295 c0 -16 2 -22 5 -12 2 9 2 23 0
30 -3 6 -5 -1 -5 -18z"/>
<path fill="#000000" stroke="none" d="M56 313 c29 -4 101 -63 77 -63 -6 0
-16 7 -23 15 -13 16 -30 11 -30 -8 0 -9 2 -9 8 -1 5 8 11 7 22 -4 13 -14 12
-15 -2 -10 -9 4 -32 -1 -52 -11 l-35 -18 -4 26 c-2 14 -5 -27 -6 -91 -1 -108
1 -118 17 -118 10 0 24 -6 30 -12 10 -10 17 -10 32 0 16 10 20 10 18 0 -2 -10
20 -14 82 -16 140 -5 130 -18 130 163 l0 155 -37 -2 c-35 -1 -36 -1 -7 -5 l31
-4 1 -114 c1 -63 -2 -116 -8 -120 -5 -3 -18 0 -29 6 -19 12 -19 13 2 30 18 14
19 19 8 33 -17 20 -35 21 -27 1 3 -9 0 -15 -9 -15 -8 0 -15 4 -15 9 0 20 13
41 25 41 6 0 20 10 31 23 19 22 19 22 -2 5 -11 -10 -26 -18 -32 -18 -6 0 -16
-8 -21 -17 -6 -10 -11 -13 -11 -6 0 22 12 43 26 43 19 0 56 38 49 50 -11 18
-26 10 -20 -9 4 -14 0 -21 -15 -26 -25 -8 -62 31 -54 58 7 21 -9 22 -26 2 -12
-14 -15 -14 -31 1 -10 9 -22 13 -28 10 -5 -4 -12 -2 -15 2 -3 5 25 10 62 11
110 4 84 11 -34 9 -60 0 -95 -3 -78 -5z"/>
<path fill="#ffffff" stroke="none" d="M152 270 c13 -20 13 -20 31 2 10 13 16
17 12 10 -4 -7 0 -21 8 -30 16 -19 21 -132 5 -132 -17 0 -30 53 -19 78 14 29
14 45 1 37 -6 -4 -7 1 -3 12 4 11 2 15 -3 10 -5 -5 -9 -33 -10 -63 0 -30 -5
-54 -9 -54 -5 0 -8 22 -6 48 2 36 -3 54 -19 75 -12 15 -17 27 -11 27 6 0 16
-9 23 -20z"/>
<path fill="#ffffff" stroke="none" d="M145 178 c0 -30 6 -62 13 -70 10 -13 9
-18 -4 -29 -14 -12 -20 -10 -41 15 -15 18 -22 34 -17 45 13 31 9 55 -9 59 -33
7 -49 -17 -42 -61 5 -28 3 -42 -6 -48 -10 -6 -10 -9 -2 -9 7 0 10 -7 7 -17 -5
-17 -5 -17 6 0 12 18 55 23 65 7 3 -5 15 -10 26 -10 11 0 19 -7 19 -17 0 -16
2 -16 11 -3 9 13 10 13 6 0 -5 -21 -58 -14 -76 11 -14 20 -41 26 -41 9 0 -5 7
-7 15 -4 8 4 15 2 15 -2 0 -5 -15 -10 -34 -11 -33 -2 -34 -1 -33 38 1 23 4 34
9 26 6 -9 8 -9 8 0 0 6 -5 15 -10 18 -16 10 -12 71 6 85 15 13 80 30 99 25 6
-1 10 -27 10 -57z"/>
<path fill="#ffffff" stroke="none" d="M100 179 c0 -6 -5 -19 -10 -30 -7 -13
-7 -25 -1 -38 9 -15 7 -20 -12 -23 -20 -4 -22 -1 -21 41 0 25 1 49 2 54 3 11
42 8 42 -4z"/>
<path fill="#ffffff" stroke="none" d="M266 115 c-10 -8 -24 -12 -29 -8 -6 3
0 10 12 15 14 5 20 13 15 20 -5 10 -3 9 7 0 12 -11 11 -15 -5 -27z"/>
<path fill="#ffffff" stroke="none" d="M267 75 c13 -9 29 -13 36 -9 9 5 9 3
-1 -7 -10 -11 -18 -11 -43 -2 -21 8 -38 9 -50 3 -12 -7 -20 -7 -24 0 -4 6 -12
7 -18 3 -9 -5 -9 -3 0 8 17 20 71 23 100 4z"/>
<path fill="#ffffff" stroke="none" d="M205 20 c3 -5 1 -10 -4 -10 -6 0 -11 5
-11 10 0 6 2 10 4 10 3 0 8 -4 11 -10z"/>
</g>
</svg>
