<?xml version="1.0" standalone="no"?>
<!DOCTYPE svg PUBLIC "-//W3C//DTD SVG 20010904//EN"
 "http://www.w3.org/TR/2001/REC-SVG-20010904/DTD/svg10.dtd">
<svg version="1.0" xmlns="http://www.w3.org/2000/svg"
 width="32.000000pt" height="32.000000pt" viewBox="0 0 32.000000 32.000000"
 preserveAspectRatio="xMidYMid meet">
<metadata>
Created by potrace 1.16, written by Peter Selinger 2001-2019
</metadata>
<g transform="translate(0.000000,32.000000) scale(0.100000,-0.100000)"
fill="#000000" stroke="none">
<path fill="#000000" stroke="none" d="M0 160 l0 -160 23 0 c34 0 41 12 18 30
-15 11 -21 32 -26 85 -5 54 -4 67 5 55 10 -13 11 -12 6 3 -3 10 -6 48 -6 83 0
36 -4 64 -10 64 -6 0 -10 -60 -10 -160z"/>
<path fill="#000000" stroke="none" d="M300 308 c0 -7 5 -20 10 -28 8 -12 10
-9 10 13 0 15 -4 27 -10 27 -5 0 -10 -6 -10 -12z"/>
<path fill="#000000" stroke="none" d="M40 265 c0 -25 5 -45 10 -45 6 0 10 -5
10 -11 0 -5 -4 -8 -8 -5 -18 11 -6 -57 13 -70 19 -13 20 -11 17 49 -3 62 11
106 36 115 6 2 12 -1 12 -8 0 -6 -4 -8 -10 -5 -6 3 -7 -1 -4 -9 7 -17 31 -9
54 18 11 14 5 16 -59 16 l-71 0 0 -45z"/>
<path fill="#000000" stroke="none" d="M200 296 c6 -6 18 -5 32 2 22 10 21 11
-9 9 -21 -1 -29 -5 -23 -11z"/>
<path fill="#000000" stroke="none" d="M225 280 c-13 -6 -15 -9 -5 -9 29 -2
45 -18 32 -34 -9 -11 -8 -17 6 -30 17 -15 18 -14 18 31 1 51 -9 59 -51 42z"/>
<path fill="#000000" stroke="none" d="M142 239 c-35 -34 -49 -70 -36 -91 5
-7 10 -22 11 -32 5 -33 23 -48 40 -34 12 10 10 15 -10 34 -22 20 -24 28 -17
59 5 20 15 44 23 53 17 20 30 42 24 42 -2 0 -18 -14 -35 -31z"/>
<path fill="#000000" stroke="none" d="M196 242 c-3 -5 1 -9 9 -9 8 0 12 4 9
9 -3 4 -7 8 -9 8 -2 0 -6 -4 -9 -8z"/>
<path fill="#000000" stroke="none" d="M308 220 c-7 -24 -3 -38 8 -28 3 4 4
17 2 30 l-3 23 -7 -25z"/>
<path fill="#000000" stroke="none" d="M179 203 c-10 -14 -10 -16 0 -6 8 7 23
8 42 3 30 -9 41 3 13 14 -26 10 -41 7 -55 -11z"/>
<path fill="#000000" stroke="none" d="M210 176 c0 -20 27 -39 42 -30 7 4 5
-2 -4 -13 -20 -22 -23 -33 -8 -33 5 0 9 6 8 13 -2 6 5 11 14 11 12 -1 16 6 16
26 -1 18 -5 27 -13 23 -7 -2 -16 0 -20 6 -9 16 -35 13 -35 -3z"/>
<path fill="#000000" stroke="none" d="M30 130 c0 -11 38 -32 50 -28 5 2 -4
11 -20 20 -17 9 -30 13 -30 8z"/>
<path fill="#000000" stroke="none" d="M300 93 c0 -13 5 -23 10 -23 13 0 13
11 0 30 -8 12 -10 11 -10 -7z"/>
<path fill="#000000" stroke="none" d="M40 75 c0 -20 5 -24 23 -23 30 3 30 23
0 37 -21 10 -23 8 -23 -14z"/>
<path fill="#000000" stroke="none" d="M206 81 c-4 -5 -2 -12 3 -15 5 -4 12
-2 15 3 4 5 2 12 -3 15 -5 4 -12 2 -15 -3z"/>
<path fill="#000000" stroke="none" d="M254 65 c-10 -8 -14 -14 -9 -15 15 0
40 18 34 24 -3 3 -14 -1 -25 -9z"/>
<path fill="#000000" stroke="none" d="M136 51 c-4 -5 -2 -12 3 -15 5 -4 12
-2 15 3 4 5 2 12 -3 15 -5 4 -12 2 -15 -3z"/>
<path fill="#000000" stroke="none" d="M75 20 c4 -6 11 -8 16 -5 14 9 11 15
-7 15 -8 0 -12 -5 -9 -10z"/>
</g>
</svg>
