<?xml version="1.0" standalone="no"?>
<!DOCTYPE svg PUBLIC "-//W3C//DTD SVG 20010904//EN"
 "http://www.w3.org/TR/2001/REC-SVG-20010904/DTD/svg10.dtd">
<svg version="1.0" xmlns="http://www.w3.org/2000/svg"
 width="32.000000pt" height="32.000000pt" viewBox="0 0 32.000000 32.000000"
 preserveAspectRatio="xMidYMid meet">
<metadata>
Created by potrace 1.16, written by Peter Selinger 2001-2019
</metadata>
<g transform="translate(0.000000,32.000000) scale(0.100000,-0.100000)"
fill="#000000" stroke="none">
<path fill="#000000" stroke="none" d="M2 295 c0 -14 8 -27 17 -30 9 -3 27
-14 41 -24 22 -17 22 -19 5 -18 -12 1 -19 -3 -17 -11 1 -8 -2 -11 -8 -7 -8 5
-7 12 2 23 12 15 11 16 -4 3 -23 -18 -23 -47 0 -53 13 -4 18 -14 17 -39 -1
-19 3 -40 8 -47 7 -9 6 -17 -1 -24 -20 -20 -13 -42 15 -55 29 -14 211 -18 228
-5 6 4 12 20 13 36 2 23 -1 27 -17 23 -14 -3 -17 0 -13 15 2 11 11 22 18 25
16 6 19 53 4 53 -13 0 -13 42 0 58 7 9 7 9 -2 2 -7 -5 -16 -10 -21 -10 -4 0
-5 5 -2 10 3 6 0 10 -7 10 -9 0 -9 3 2 10 16 10 23 50 9 50 -5 0 -9 -9 -9 -20
0 -12 -5 -17 -13 -14 -8 3 -12 16 -9 34 3 23 1 28 -14 26 -10 -2 -20 -9 -22
-17 -3 -11 -1 -11 7 1 7 10 11 11 11 3 0 -7 -9 -22 -19 -32 -11 -11 -17 -22
-14 -24 2 -3 -4 -4 -14 -4 -15 2 -18 -6 -18 -55 0 -46 -2 -54 -14 -45 -31 26
4 114 51 129 8 3 7 11 -5 28 -9 14 -18 20 -18 15 -1 -6 -2 -15 -3 -21 -2 -15
-36 -48 -36 -34 0 6 6 13 14 16 8 3 14 14 13 25 -2 24 -17 25 -17 1 0 -34 -21
-43 -48 -22 -14 11 -32 20 -42 20 -9 0 -20 3 -24 7 -3 4 -15 8 -25 10 -14 2
-19 -4 -19 -22z"/>
<path fill="#ffffff" stroke="none" d="M58 281 c-22 -3 -22 -4 -3 -12 17 -7
17 -8 2 -6 -10 1 -17 5 -15 9 2 4 -6 14 -17 22 -18 13 -16 13 18 3 33 -10 35
-13 15 -16z"/>
<path fill="#ffffff" stroke="none" d="M125 233 c8 -19 15 -50 15 -67 0 -17 7
-42 16 -55 20 -28 4 -52 -23 -35 -24 15 -35 61 -28 122 5 37 3 58 -7 69 -10
13 -10 15 0 9 7 -4 19 -23 27 -43z"/>
<path fill="#ffffff" stroke="none" d="M257 244 c-3 -3 -12 -4 -19 -1 -8 3 -5
6 6 6 11 1 17 -2 13 -5z"/>
<path fill="#ffffff" stroke="none" d="M240 195 c18 -21 35 -19 19 3 -13 15
-12 16 3 3 10 -7 15 -17 12 -22 -8 -14 -30 -11 -45 7 -12 14 -14 14 -26 -2
-11 -14 -13 -15 -13 -3 0 31 29 39 50 14z"/>
<path fill="#ffffff" stroke="none" d="M92 138 c3 -29 1 -35 -9 -26 -14 12
-17 37 -6 64 8 20 10 14 15 -38z"/>
<path fill="#ffffff" stroke="none" d="M295 139 c-4 -5 -13 -9 -21 -9 -8 0
-13 -4 -10 -9 3 -5 0 -11 -7 -14 -7 -3 -13 3 -13 13 0 10 3 18 6 18 25 -2 40
4 34 14 -4 7 -3 8 5 4 6 -4 9 -12 6 -17z"/>
<path fill="#ffffff" stroke="none" d="M220 124 c0 -8 -4 -12 -10 -9 -5 3 -10
13 -10 21 0 8 5 12 10 9 6 -3 10 -13 10 -21z"/>
<path fill="#ffffff" stroke="none" d="M234 81 c7 -11 -22 -23 -35 -15 -5 3
-7 10 -4 15 8 12 32 12 39 0z"/>
<path fill="#ffffff" stroke="none" d="M87 43 c5 3 10 0 10 -8 0 -8 -3 -15 -7
-15 -10 0 -30 23 -30 34 0 6 4 5 9 -3 5 -7 13 -11 18 -8z"/>
<path fill="#ffffff" stroke="none" d="M160 45 c0 -8 -9 -15 -20 -15 -13 0
-18 5 -14 15 8 19 34 19 34 0z"/>
<path fill="#000000" stroke="none" d="M309 283 c-1 -5 -1 -12 0 -17 1 -4 -4
-14 -10 -22 -10 -12 -9 -13 5 -8 9 3 16 17 16 30 0 22 -8 34 -11 17z"/>
<path fill="#000000" stroke="none" d="M33 115 c0 -8 4 -12 9 -9 5 3 6 10 3
15 -9 13 -12 11 -12 -6z"/>
<path fill="#000000" stroke="none" d="M27 83 c-10 -9 -9 -23 2 -23 5 0 11 7
15 15 5 15 -5 20 -17 8z"/>
</g>
</svg>
