<?xml version="1.0" standalone="no"?>
<!DOCTYPE svg PUBLIC "-//W3C//DTD SVG 20010904//EN"
 "http://www.w3.org/TR/2001/REC-SVG-20010904/DTD/svg10.dtd">
<svg version="1.0" xmlns="http://www.w3.org/2000/svg"
 width="32.000000pt" height="32.000000pt" viewBox="0 0 32.000000 32.000000"
 preserveAspectRatio="xMidYMid meet">
<metadata>
Created by potrace 1.16, written by Peter Selinger 2001-2019
</metadata>
<g transform="translate(0.000000,32.000000) scale(0.100000,-0.100000)"
fill="#000000" stroke="none">
<path fill="#000000" stroke="none" d="M42 237 c-36 -37 -40 -63 -15 -83 24
-18 53 -17 53 1 0 8 -5 15 -10 15 -6 0 -9 12 -6 28 2 15 5 27 6 27 1 0 3 10 6
23 2 12 3 22 1 22 -2 0 -17 -15 -35 -33z"/>
<path fill="#000000" stroke="none" d="M96 69 c-8 -47 -2 -59 26 -59 19 0 20
4 14 42 -12 72 -30 80 -40 17z"/>
</g>
</svg>
