<?xml version="1.0" standalone="no"?>
<!DOCTYPE svg PUBLIC "-//W3C//DTD SVG 20010904//EN"
 "http://www.w3.org/TR/2001/REC-SVG-20010904/DTD/svg10.dtd">
<svg version="1.0" xmlns="http://www.w3.org/2000/svg"
 width="32.000000pt" height="32.000000pt" viewBox="0 0 32.000000 32.000000"
 preserveAspectRatio="xMidYMid meet">
<metadata>
Created by potrace 1.16, written by Peter Selinger 2001-2019
</metadata>
<g transform="translate(0.000000,32.000000) scale(0.100000,-0.100000)"
fill="#000000" stroke="none">
<path fill="#000000" stroke="none" d="M0 160 c0 -130 3 -160 14 -160 14 0 26
43 29 108 1 17 3 32 4 32 1 0 8 -2 16 -5 12 -5 12 -13 1 -53 -6 -26 -14 -54
-15 -62 -3 -12 8 -15 51 -16 32 -1 58 3 63 9 6 9 10 9 14 0 3 -8 23 -13 49
-13 35 0 44 4 45 18 0 14 2 14 9 -3 8 -19 11 -18 14 8 1 6 8 11 15 9 10 -2 12
29 10 142 -3 140 -3 144 -24 142 -11 -1 -26 -6 -33 -10 -7 -4 -12 -2 -12 3 0
6 -9 11 -20 11 -11 0 -20 -4 -20 -10 0 -5 -5 -10 -11 -10 -5 0 -7 5 -4 10 4 6
-10 10 -35 10 -23 0 -39 -4 -36 -9 3 -4 16 -6 29 -4 28 6 44 -21 26 -43 -19
-23 -49 -17 -49 9 0 35 -19 47 -77 47 l-53 0 0 -160z"/>
<path fill="#ffffff" stroke="none" d="M110 280 c0 -5 -4 -10 -10 -10 -5 0
-10 5 -10 10 0 6 5 10 10 10 6 0 10 -4 10 -10z"/>
<path fill="#ffffff" stroke="none" d="M214 261 c-5 -29 19 -66 36 -56 4 3 6
-4 3 -16 -5 -19 -3 -20 18 -14 21 7 22 6 7 -9 -20 -20 -38 -21 -38 -2 0 7 -12
22 -27 32 -18 12 -23 19 -14 22 11 4 11 6 0 13 -11 6 -11 11 -2 20 6 6 9 18 6
25 -3 8 -1 14 5 14 6 0 8 -13 6 -29z"/>
<path fill="#ffffff" stroke="none" d="M156 243 c22 4 40 -14 26 -28 -4 -4 -8
-11 -8 -16 -3 -22 -5 -23 -14 -9 -8 13 -11 13 -22 1 -7 -8 -8 -11 -2 -8 6 3
11 0 11 -8 0 -11 -4 -12 -14 -4 -7 7 -13 7 -13 2 0 -5 -12 -15 -27 -22 -27
-13 -27 -12 5 18 34 33 42 61 16 61 -8 0 -13 -4 -9 -10 8 -12 -16 -50 -32 -50
-7 0 -13 5 -13 11 0 5 5 7 12 3 7 -4 8 -3 4 5 -4 6 -1 13 6 16 8 3 14 15 15
25 1 13 -2 18 -9 14 -7 -4 -8 -2 -4 4 5 9 13 9 28 1 11 -6 31 -9 44 -6z"/>
<path fill="#ffffff" stroke="none" d="M282 238 c-7 -7 -12 -8 -12 -2 0 6 3
14 7 17 3 4 9 5 12 2 2 -3 -1 -11 -7 -17z"/>
<path fill="#ffffff" stroke="none" d="M61 207 c-8 -8 -11 -7 -11 4 0 20 13
34 18 19 3 -7 -1 -17 -7 -23z"/>
<path fill="#ffffff" stroke="none" d="M292 198 c-6 -6 -15 -8 -19 -4 -4 4 -1
11 7 16 19 12 27 3 12 -12z"/>
<path fill="#ffffff" stroke="none" d="M191 160 c-1 -25 2 -40 9 -40 6 0 10
-8 9 -17 -1 -10 0 -21 1 -25 1 -5 3 -11 4 -15 1 -5 7 -18 14 -30 11 -19 10
-23 -3 -23 -8 0 -14 3 -14 8 3 19 -2 26 -11 12 -7 -12 -9 -10 -7 8 0 12 5 22
11 22 5 0 2 8 -6 18 -9 9 -13 23 -11 30 3 6 0 12 -7 12 -6 0 -8 5 -4 11 5 8 1
8 -14 0 -15 -8 -22 -8 -25 2 -4 8 -6 7 -6 -4 -1 -8 5 -21 12 -28 8 -10 8 -12
0 -7 -15 8 -27 -10 -16 -26 13 -23 14 -50 1 -45 -7 2 -22 0 -33 -5 -19 -9 -19
-9 -1 6 10 9 22 13 27 11 4 -3 5 4 2 15 -3 11 -10 20 -15 20 -7 0 -6 5 1 13 6
8 8 16 6 19 -10 10 14 58 27 56 7 -2 12 4 10 12 -2 8 0 12 4 8 10 -11 35 12
27 26 -3 6 -2 7 2 3 5 -4 8 -26 6 -47z"/>
<path fill="#ffffff" stroke="none" d="M50 165 c0 -8 -4 -15 -10 -15 -5 0 -10
7 -10 15 0 8 5 15 10 15 6 0 10 -7 10 -15z"/>
<path fill="#ffffff" stroke="none" d="M260 136 c0 -2 -7 -7 -16 -10 -8 -3
-12 -2 -9 4 6 10 25 14 25 6z"/>
<path fill="#ffffff" stroke="none" d="M309 103 c-1 -20 -3 -22 -6 -9 -4 15
-7 16 -14 5 -7 -12 -10 -12 -21 0 -7 8 -8 11 -2 8 7 -4 17 0 24 8 17 21 20 19
19 -12z"/>
<path fill="#ffffff" stroke="none" d="M168 63 c-13 -16 -15 -16 -21 1 -4 10
0 14 13 13 14 -1 16 -4 8 -14z"/>
</g>
</svg>
