<?xml version="1.0" standalone="no"?>
<!DOCTYPE svg PUBLIC "-//W3C//DTD SVG 20010904//EN"
 "http://www.w3.org/TR/2001/REC-SVG-20010904/DTD/svg10.dtd">
<svg version="1.0" xmlns="http://www.w3.org/2000/svg"
 width="32.000000pt" height="32.000000pt" viewBox="0 0 32.000000 32.000000"
 preserveAspectRatio="xMidYMid meet">
<metadata>
Created by potrace 1.16, written by Peter Selinger 2001-2019
</metadata>
<g transform="translate(0.000000,32.000000) scale(0.100000,-0.100000)"
fill="#000000" stroke="none">
<path fill="#000000" stroke="none" d="M0 160 l0 -160 160 0 160 0 0 160 0
160 -160 0 -160 0 0 -160z"/>
<path fill="#ffffff" stroke="none" d="M199 277 c9 16 10 16 8 -4 0 -12 -5
-19 -11 -16 -5 4 -7 -1 -3 -11 4 -9 3 -15 -2 -12 -5 3 -14 -1 -22 -10 -11 -13
-14 -11 -26 17 -13 31 -14 32 -31 15 -16 -16 -16 -18 8 -37 l25 -20 -32 15
c-37 19 -45 29 -37 49 11 29 47 36 81 15 30 -18 32 -18 42 -1z"/>
<path fill="#ffffff" stroke="none" d="M164 154 c18 -17 22 -74 6 -74 -5 0 -1
-9 10 -20 25 -25 26 -50 1 -50 -13 0 -21 8 -23 22 -2 14 -12 24 -28 28 -33 8
-36 32 -10 75 25 40 24 40 44 19z"/>
<path fill="#ffffff" stroke="none" d="M96 113 c-8 -15 -15 -22 -16 -15 0 17
20 55 27 49 2 -3 -2 -18 -11 -34z"/>
<path fill="#ffffff" stroke="none" d="M235 124 c19 -29 14 -57 -9 -48 -16 6
-38 59 -29 68 11 11 21 6 38 -20z"/>
<path fill="#ffffff" stroke="none" d="M120 41 c0 -13 -24 -31 -42 -31 -17 0
-17 2 -2 24 14 22 44 26 44 7z"/>
</g>
</svg>
