<?xml version="1.0" standalone="no"?>
<!DOCTYPE svg PUBLIC "-//W3C//DTD SVG 20010904//EN"
 "http://www.w3.org/TR/2001/REC-SVG-20010904/DTD/svg10.dtd">
<svg version="1.0" xmlns="http://www.w3.org/2000/svg"
 width="32.000000pt" height="32.000000pt" viewBox="0 0 32.000000 32.000000"
 preserveAspectRatio="xMidYMid meet">
<metadata>
Created by potrace 1.16, written by Peter Selinger 2001-2019
</metadata>
<g transform="translate(0.000000,32.000000) scale(0.100000,-0.100000)"
fill="#000000" stroke="none">
<path fill="#000000" stroke="none" d="M0 160 l0 -160 160 0 160 0 0 160 0
160 -160 0 -160 0 0 -160z"/>
<path fill="#ffffff" stroke="none" d="M176 285 c4 -8 11 -15 16 -15 6 0 7 7
4 16 -4 10 -1 14 6 12 8 -3 12 -18 10 -40 -3 -35 11 -58 23 -38 9 15 22 12 29
-6 6 -15 4 -15 -11 -3 -15 12 -16 12 -10 -4 4 -11 1 -20 -8 -23 -8 -4 -13 -9
-11 -13 3 -4 -4 -7 -15 -7 -19 0 -19 1 -3 13 19 14 13 40 -11 50 -25 9 -42
-13 -27 -37 10 -16 9 -18 -3 -14 -8 4 -15 10 -15 16 0 5 -3 7 -8 4 -4 -2 -24
8 -44 23 -31 23 -35 30 -25 43 27 34 93 49 103 23z"/>
<path fill="#ffffff" stroke="none" d="M186 111 c0 -25 4 -58 8 -73 7 -24 5
-28 -13 -28 -14 0 -21 6 -21 19 0 12 -11 23 -30 30 -17 5 -30 17 -30 26 0 9
-4 13 -10 10 -24 -15 -7 29 21 54 25 24 34 27 53 18 18 -9 22 -19 22 -56z"/>
<path fill="#ffffff" stroke="none" d="M238 120 c8 -16 11 -34 7 -39 -10 -17
-33 -1 -44 31 -14 39 -14 38 7 38 9 0 23 -13 30 -30z"/>
<path fill="#ffffff" stroke="none" d="M110 26 c-7 -9 -21 -16 -31 -16 -17 0
-17 1 -1 30 15 25 19 27 31 15 12 -11 12 -17 1 -29z"/>
<path fill="#000000" stroke="none" d="M104 239 c-2 -4 4 -13 15 -18 27 -15
36 -14 22 2 -6 8 -9 16 -6 19 3 2 -2 5 -10 5 -9 0 -18 -4 -21 -8z"/>
</g>
</svg>
