<?xml version="1.0" standalone="no"?>
<!DOCTYPE svg PUBLIC "-//W3C//DTD SVG 20010904//EN"
 "http://www.w3.org/TR/2001/REC-SVG-20010904/DTD/svg10.dtd">
<svg version="1.0" xmlns="http://www.w3.org/2000/svg"
 width="32.000000pt" height="32.000000pt" viewBox="0 0 32.000000 32.000000"
 preserveAspectRatio="xMidYMid meet">
<metadata>
Created by potrace 1.16, written by Peter Selinger 2001-2019
</metadata>
<g transform="translate(0.000000,32.000000) scale(0.100000,-0.100000)"
fill="#000000" stroke="none">
<path fill="#000000" stroke="none" d="M196 291 c-14 -15 -15 -24 -7 -40 15
-27 14 -54 -1 -48 -7 2 -12 11 -10 18 8 32 -73 54 -84 24 -9 -21 12 -43 39
-41 12 1 34 -6 49 -16 27 -18 27 -19 12 -60 -8 -23 -12 -47 -10 -54 3 -7 -1
-20 -8 -29 -11 -15 -13 -15 -29 3 -10 11 -19 29 -20 40 0 12 -3 19 -6 16 -3
-3 -13 15 -22 38 -19 46 -26 38 -9 -8 8 -19 8 -30 0 -38 -7 -7 -10 -4 -10 8 0
10 -5 16 -12 14 -17 -6 -22 -28 -6 -28 22 0 41 -39 27 -56 -6 -8 -10 -14 -8
-15 37 -7 40 -7 29 6 -9 11 -7 12 9 8 12 -3 18 -9 15 -14 -3 -5 2 -6 10 -3 9
4 16 1 16 -6 0 -9 6 -8 18 3 10 10 22 14 25 10 4 -3 19 -8 33 -9 14 -2 23 0
20 3 -3 4 4 14 16 22 25 17 33 48 13 48 -7 0 -11 -6 -8 -13 5 -13 -43 -51 -53
-42 -7 8 -7 57 1 109 6 36 3 55 -14 89 -25 51 -20 64 17 44 30 -15 42 -3 22
21 -17 20 -33 19 -54 -4z"/>
<path fill="#ffffff" stroke="none" d="M123 55 c8 -18 7 -17 -12 3 -13 12 -19
27 -15 34 6 9 9 8 12 -2 3 -8 9 -24 15 -35z"/>
<path fill="#000000" stroke="none" d="M40 41 c0 -7 -6 -9 -12 -5 -10 5 -10 4
-2 -5 7 -7 20 -11 29 -9 17 3 17 4 2 17 -12 9 -17 10 -17 2z"/>
</g>
</svg>
