<?xml version="1.0" standalone="no"?>
<!DOCTYPE svg PUBLIC "-//W3C//DTD SVG 20010904//EN"
 "http://www.w3.org/TR/2001/REC-SVG-20010904/DTD/svg10.dtd">
<svg version="1.0" xmlns="http://www.w3.org/2000/svg"
 width="32.000000pt" height="32.000000pt" viewBox="0 0 32.000000 32.000000"
 preserveAspectRatio="xMidYMid meet">
<metadata>
Created by potrace 1.16, written by Peter Selinger 2001-2019
</metadata>
<g transform="translate(0.000000,32.000000) scale(0.100000,-0.100000)"
fill="#000000" stroke="none">
<path fill="#000000" stroke="none" d="M0 316 c0 -2 8 -10 18 -17 15 -13 16
-12 3 4 -13 16 -21 21 -21 13z"/>
<path fill="#000000" stroke="none" d="M30 316 c0 -1 23 -17 50 -34 49 -31 59
-45 40 -57 -14 -9 5 -42 33 -56 18 -10 17 -7 -6 15 -45 42 -21 50 29 10 39
-33 44 -41 44 -78 0 -23 5 -47 12 -54 10 -10 7 -17 -10 -35 -23 -22 -23 -22
-38 -2 -11 14 -14 34 -11 64 5 42 2 46 -47 95 -28 28 -68 64 -88 79 l-38 28 0
-145 0 -146 160 0 160 0 0 160 0 160 -145 0 c-80 0 -145 -2 -145 -4z"/>
<path fill="#000000" stroke="none" d="M35 280 c-5 -9 -4 -11 3 -6 7 4 12 3
12 -3 0 -6 10 -16 23 -22 19 -10 20 -9 7 2 -8 8 -19 20 -26 28 -9 11 -12 12
-19 1z"/>
<path fill="#000000" stroke="none" d="M199 143 c-1 -5 -1 -12 0 -17 1 -5 -4
-13 -11 -18 -10 -7 -10 -9 2 -5 8 2 16 13 16 25 1 20 -5 31 -7 15z"/>
</g>
</svg>
