<?xml version="1.0" standalone="no"?>
<!DOCTYPE svg PUBLIC "-//W3C//DTD SVG 20010904//EN"
 "http://www.w3.org/TR/2001/REC-SVG-20010904/DTD/svg10.dtd">
<svg version="1.0" xmlns="http://www.w3.org/2000/svg"
 width="32.000000pt" height="32.000000pt" viewBox="0 0 32.000000 32.000000"
 preserveAspectRatio="xMidYMid meet">
<metadata>
Created by potrace 1.16, written by Peter Selinger 2001-2019
</metadata>
<g transform="translate(0.000000,32.000000) scale(0.100000,-0.100000)"
fill="#000000" stroke="none">
<path fill="#000000" stroke="none" d="M155 150 c-3 -6 -10 -8 -15 -5 -4 3
-20 -9 -35 -27 -19 -23 -23 -34 -14 -37 7 -2 15 2 17 9 3 8 16 24 29 36 18 17
30 21 46 15 12 -5 22 -12 22 -17 0 -14 46 -75 53 -70 8 5 33 -20 26 -27 -2 -2
2 -10 11 -17 9 -7 18 -10 22 -7 3 4 -13 25 -35 47 -23 23 -44 50 -47 60 -10
32 -67 61 -80 40z"/>
</g>
</svg>
