<?xml version="1.0" standalone="no"?>
<!DOCTYPE svg PUBLIC "-//W3C//DTD SVG 20010904//EN"
 "http://www.w3.org/TR/2001/REC-SVG-20010904/DTD/svg10.dtd">
<svg version="1.0" xmlns="http://www.w3.org/2000/svg"
 width="32.000000pt" height="32.000000pt" viewBox="0 0 32.000000 32.000000"
 preserveAspectRatio="xMidYMid meet">
<metadata>
Created by potrace 1.16, written by Peter Selinger 2001-2019
</metadata>
<g transform="translate(0.000000,32.000000) scale(0.100000,-0.100000)"
fill="#000000" stroke="none">
<path fill="#000000" stroke="none" d="M17 294 c8 -13 19 -24 24 -24 4 0 40
-31 79 -68 49 -48 70 -75 68 -90 -2 -11 2 -22 7 -24 6 -2 11 11 13 28 3 27 -6
40 -59 93 -34 34 -74 68 -90 77 -16 8 -29 17 -29 20 0 14 66 -33 124 -90 59
-57 66 -68 66 -103 0 -21 5 -44 12 -51 10 -10 7 -17 -10 -35 -23 -22 -23 -22
-38 -2 -11 14 -14 34 -11 64 5 42 2 46 -47 95 -28 28 -68 64 -88 79 l-38 28 0
-145 0 -146 160 0 160 0 0 161 0 160 -159 -2 -160 -2 16 -23z"/>
</g>
</svg>
