<?xml version="1.0" standalone="no"?>
<!DOCTYPE svg PUBLIC "-//W3C//DTD SVG 20010904//EN"
 "http://www.w3.org/TR/2001/REC-SVG-20010904/DTD/svg10.dtd">
<svg version="1.0" xmlns="http://www.w3.org/2000/svg"
 width="32.000000pt" height="32.000000pt" viewBox="0 0 32.000000 32.000000"
 preserveAspectRatio="xMidYMid meet">
<metadata>
Created by potrace 1.16, written by Peter Selinger 2001-2019
</metadata>
<g transform="translate(0.000000,32.000000) scale(0.100000,-0.100000)"
fill="#000000" stroke="none">
<path fill="#000000" stroke="none" d="M0 160 l0 -160 75 0 c75 0 88 7 60 30
-8 7 -13 16 -10 20 3 4 0 22 -7 40 -12 36 3 142 28 191 7 15 10 29 7 33 -4 3
-39 6 -80 6 l-73 0 0 -160z"/>
<path fill="#000000" stroke="none" d="M159 260 c-6 -33 -14 -58 -18 -56 -13
9 -3 -122 14 -161 l17 -43 74 0 74 0 0 160 0 160 -74 0 -75 0 -12 -60z"/>
</g>
</svg>
