<?xml version="1.0" standalone="no"?>
<!DOCTYPE svg PUBLIC "-//W3C//DTD SVG 20010904//EN"
 "http://www.w3.org/TR/2001/REC-SVG-20010904/DTD/svg10.dtd">
<svg version="1.0" xmlns="http://www.w3.org/2000/svg"
 width="32.000000pt" height="32.000000pt" viewBox="0 0 32.000000 32.000000"
 preserveAspectRatio="xMidYMid meet">
<metadata>
Created by potrace 1.16, written by Peter Selinger 2001-2019
</metadata>
<g transform="translate(0.000000,32.000000) scale(0.100000,-0.100000)"
fill="#000000" stroke="none">
<path fill="#000000" stroke="none" d="M65 213 c-25 -5 -72 -40 -64 -47 3 -4
21 0 40 8 19 7 48 17 66 20 28 6 34 3 58 -29 l28 -35 -21 -63 c-11 -34 -18
-64 -15 -67 10 -10 43 47 49 87 7 50 1 73 -31 107 -24 25 -53 31 -110 19z"/>
</g>
</svg>
