<?xml version="1.0" standalone="no"?>
<!DOCTYPE svg PUBLIC "-//W3C//DTD SVG 20010904//EN"
 "http://www.w3.org/TR/2001/REC-SVG-20010904/DTD/svg10.dtd">
<svg version="1.0" xmlns="http://www.w3.org/2000/svg"
 width="32.000000pt" height="32.000000pt" viewBox="0 0 32.000000 32.000000"
 preserveAspectRatio="xMidYMid meet">
<metadata>
Created by potrace 1.16, written by Peter Selinger 2001-2019
</metadata>
<g transform="translate(0.000000,32.000000) scale(0.100000,-0.100000)"
fill="#000000" stroke="none">
<path fill="#000000" stroke="none" d="M0 160 l0 -160 71 0 71 0 -16 25 c-21
32 -31 107 -18 132 16 29 74 57 104 50 13 -4 37 -18 51 -31 23 -21 27 -33 27
-81 0 -41 -4 -57 -16 -62 -23 -8 -40 12 -25 31 6 7 11 18 10 22 -1 5 2 18 6
28 7 15 1 26 -25 48 -19 15 -38 28 -44 28 -5 0 -24 -12 -43 -26 -37 -28 -38
-45 -6 -126 l15 -38 79 0 79 0 0 160 0 160 -160 0 -160 0 0 -160z"/>
</g>
</svg>
