<?xml version="1.0" standalone="no"?>
<!DOCTYPE svg PUBLIC "-//W3C//DTD SVG 20010904//EN"
 "http://www.w3.org/TR/2001/REC-SVG-20010904/DTD/svg10.dtd">
<svg version="1.0" xmlns="http://www.w3.org/2000/svg"
 width="32.000000pt" height="32.000000pt" viewBox="0 0 32.000000 32.000000"
 preserveAspectRatio="xMidYMid meet">
<metadata>
Created by potrace 1.16, written by Peter Selinger 2001-2019
</metadata>
<g transform="translate(0.000000,32.000000) scale(0.100000,-0.100000)"
fill="#000000" stroke="none">
<path fill="#000000" stroke="none" d="M0 160 l0 -160 153 0 152 0 -43 41
c-23 23 -49 54 -58 70 -8 16 -21 29 -30 29 -26 0 -64 -47 -64 -80 0 -33 -23
-51 -42 -32 -8 8 -8 15 1 26 6 7 10 18 9 24 -5 15 41 72 57 72 8 0 15 4 15 9
0 13 47 1 64 -18 24 -25 71 -83 89 -111 16 -23 17 -18 17 133 l0 157 -160 0
-160 0 0 -160z"/>
</g>
</svg>
