<?xml version="1.0" standalone="no"?>
<!DOCTYPE svg PUBLIC "-//W3C//DTD SVG 20010904//EN"
 "http://www.w3.org/TR/2001/REC-SVG-20010904/DTD/svg10.dtd">
<svg version="1.0" xmlns="http://www.w3.org/2000/svg"
 width="32.000000pt" height="32.000000pt" viewBox="0 0 32.000000 32.000000"
 preserveAspectRatio="xMidYMid meet">
<metadata>
Created by potrace 1.16, written by Peter Selinger 2001-2019
</metadata>
<g transform="translate(0.000000,32.000000) scale(0.100000,-0.100000)"
fill="#000000" stroke="none">
<path fill="#000000" stroke="none" d="M0 239 c0 -61 3 -79 12 -73 10 6 11 4
1 -7 -8 -8 -13 -41 -13 -86 l0 -73 160 0 160 0 0 160 0 160 -68 0 c-41 0 -73
-5 -81 -12 -11 -10 -13 -10 -7 0 6 9 -13 12 -78 12 l-86 0 0 -81z"/>
<path fill="#ffffff" stroke="none" d="M202 268 c-9 -9 -9 -15 1 -27 11 -14
10 -14 -6 -2 -13 10 -15 17 -6 27 6 8 14 14 17 14 3 0 1 -5 -6 -12z"/>
<path fill="#ffffff" stroke="none" d="M216 192 c1 -12 -3 -19 -8 -16 -4 3 -5
10 -2 16 4 6 0 15 -7 20 -12 8 -11 9 1 5 8 -2 16 -13 16 -25z"/>
<path fill="#ffffff" stroke="none" d="M165 144 c-11 -8 -19 -19 -18 -23 1 -5
-7 -8 -19 -7 -12 0 -23 8 -25 16 -4 13 -3 13 5 1 8 -12 15 -10 37 8 15 11 30
21 34 21 3 0 -3 -8 -14 -16z"/>
<path fill="#ffffff" stroke="none" d="M81 133 c11 -15 11 -16 -1 -6 -11 10
-17 10 -29 0 -14 -11 -14 -10 -2 6 7 9 15 17 16 17 1 0 9 -8 16 -17z"/>
</g>
</svg>
