<?xml version="1.0" standalone="no"?>
<!DOCTYPE svg PUBLIC "-//W3C//DTD SVG 20010904//EN"
 "http://www.w3.org/TR/2001/REC-SVG-20010904/DTD/svg10.dtd">
<svg version="1.0" xmlns="http://www.w3.org/2000/svg"
 width="32.000000pt" height="32.000000pt" viewBox="0 0 32.000000 32.000000"
 preserveAspectRatio="xMidYMid meet">
<metadata>
Created by potrace 1.16, written by Peter Selinger 2001-2019
</metadata>
<g transform="translate(0.000000,32.000000) scale(0.100000,-0.100000)"
fill="#000000" stroke="none">
<path fill="#000000" stroke="none" d="M0 160 l0 -160 70 0 c60 0 70 3 70 18
1 16 1 16 14 0 11 -14 29 -18 90 -18 l76 0 0 73 c0 82 -1 83 -89 107 -34 9
-45 8 -66 -6 -14 -9 -25 -13 -25 -10 0 4 -6 1 -14 -6 -10 -9 -11 -20 -5 -37
10 -26 6 -37 -10 -26 -23 14 -11 54 27 85 31 27 42 30 72 25 19 -4 43 -8 53
-9 9 -1 23 -8 29 -14 23 -23 28 -11 28 63 l0 75 -160 0 -160 0 0 -160z"/>
</g>
</svg>
