<?xml version="1.0" standalone="no"?>
<!DOCTYPE svg PUBLIC "-//W3C//DTD SVG 20010904//EN"
 "http://www.w3.org/TR/2001/REC-SVG-20010904/DTD/svg10.dtd">
<svg version="1.0" xmlns="http://www.w3.org/2000/svg"
 width="32.000000pt" height="32.000000pt" viewBox="0 0 32.000000 32.000000"
 preserveAspectRatio="xMidYMid meet">
<metadata>
Created by potrace 1.16, written by Peter Selinger 2001-2019
</metadata>
<g transform="translate(0.000000,32.000000) scale(0.100000,-0.100000)"
fill="#000000" stroke="none">
<path fill="#000000" stroke="none" d="M0 160 l0 -160 145 0 144 0 -23 25
c-13 14 -28 25 -33 25 -26 0 -56 52 -61 103 l-4 53 58 52 c32 28 60 49 63 46
3 -3 -3 -10 -13 -16 -10 -6 -36 -26 -57 -45 -33 -30 -39 -41 -39 -77 0 -49 18
-87 47 -102 12 -6 34 -22 49 -37 15 -15 30 -27 34 -27 4 0 8 65 9 145 l2 145
-23 -22 c-13 -13 -36 -33 -53 -45 -25 -18 -29 -27 -28 -61 2 -33 10 -48 50
-87 l48 -48 -50 44 c-73 64 -80 124 -19 164 31 20 74 64 74 76 0 4 -72 8 -160
8 l-160 2 0 -161z"/>
</g>
</svg>
