<?xml version="1.0" standalone="no"?>
<!DOCTYPE svg PUBLIC "-//W3C//DTD SVG 20010904//EN"
 "http://www.w3.org/TR/2001/REC-SVG-20010904/DTD/svg10.dtd">
<svg version="1.0" xmlns="http://www.w3.org/2000/svg"
 width="32.000000pt" height="48.000000pt" viewBox="0 0 32.000000 48.000000"
 preserveAspectRatio="xMidYMid meet">
<metadata>
Created by potrace 1.16, written by Peter Selinger 2001-2019
</metadata>
<g transform="translate(0.000000,48.000000) scale(0.100000,-0.100000)"
fill="#000000" stroke="none">
<path fill="#000000" stroke="none" d="M142 423 c-5 -10 -12 -42 -16 -71 -10
-79 -11 -81 -59 -75 -23 3 -39 3 -36 -1 4 -4 20 -8 35 -9 23 -2 30 -8 35 -32
5 -29 6 -28 22 20 14 45 16 47 16 18 1 -17 6 -35 12 -38 7 -5 6 -12 -4 -23
-18 -21 -32 -157 -17 -167 16 -10 31 44 26 97 -4 38 -2 47 7 40 7 -6 13 -37
15 -69 3 -67 11 -79 37 -59 17 12 18 17 6 52 -7 22 -14 48 -15 59 -2 11 -9 20
-17 20 -35 1 -40 16 -14 42 14 14 25 37 25 52 1 25 2 24 20 -10 10 -19 25 -41
34 -48 13 -11 14 -9 7 16 -16 53 -43 108 -48 95 -3 -6 -8 -10 -12 -8 -4 3 -8
-9 -9 -26 -1 -17 -5 -35 -8 -39 -7 -12 -34 -11 -34 1 0 6 5 10 10 10 6 0 10 5
10 11 0 5 -5 7 -12 3 -8 -5 -9 -2 -5 9 4 10 2 16 -5 14 -5 -1 -12 6 -13 16 -2
13 1 17 11 13 8 -3 25 -1 38 4 21 8 23 13 16 43 -4 19 -10 40 -14 46 -11 17
-34 13 -44 -6z"/>
<path fill="#ffffff" stroke="none" d="M175 384 c0 -29 -24 -42 -32 -16 -3 6
0 12 7 12 6 0 8 -5 4 -12 -4 -7 -3 -8 5 -4 13 8 11 37 -4 49 -6 5 -4 7 5 4 9
-2 15 -15 15 -33z"/>
<path fill="#000000" stroke="none" d="M71 193 c-1 -17 16 -25 25 -12 4 7 3 9
-4 5 -5 -3 -13 0 -15 6 -4 9 -6 10 -6 1z"/>
</g>
</svg>
