<?xml version="1.0" standalone="no"?>
<!DOCTYPE svg PUBLIC "-//W3C//DTD SVG 20010904//EN"
 "http://www.w3.org/TR/2001/REC-SVG-20010904/DTD/svg10.dtd">
<svg version="1.0" xmlns="http://www.w3.org/2000/svg"
 width="32.000000pt" height="48.000000pt" viewBox="0 0 32.000000 48.000000"
 preserveAspectRatio="xMidYMid meet">
<metadata>
Created by potrace 1.16, written by Peter Selinger 2001-2019
</metadata>
<g transform="translate(0.000000,48.000000) scale(0.100000,-0.100000)"
fill="#000000" stroke="none">
<path fill="#000000" stroke="none" d="M134 405 c-4 -14 -4 -29 0 -32 3 -4 6
3 6 13 0 11 5 25 12 32 9 9 9 12 0 12 -6 0 -14 -11 -18 -25z"/>
<path fill="#000000" stroke="none" d="M160 350 c-8 -5 -10 -10 -5 -10 6 0 17
5 25 10 8 5 11 10 5 10 -5 0 -17 -5 -25 -10z"/>
<path fill="#000000" stroke="none" d="M120 312 c0 -11 -6 -27 -13 -34 -8 -7
-11 -21 -8 -31 5 -13 10 -5 20 28 7 25 11 49 7 52 -3 4 -6 -3 -6 -15z"/>
<path fill="#000000" stroke="none" d="M215 311 c2 -11 11 -32 20 -48 15 -26
15 -26 9 -3 -16 59 -38 98 -29 51z"/>
<path fill="#000000" stroke="none" d="M138 164 c-5 -4 -8 -21 -7 -38 0 -30 0
-30 10 -7 11 27 8 57 -3 45z"/>
<path fill="#000000" stroke="none" d="M187 133 c8 -50 13 -55 13 -10 0 20 -4
38 -9 42 -6 3 -7 -10 -4 -32z"/>
</g>
</svg>
