<?xml version="1.0" standalone="no"?>
<!DOCTYPE svg PUBLIC "-//W3C//DTD SVG 20010904//EN"
 "http://www.w3.org/TR/2001/REC-SVG-20010904/DTD/svg10.dtd">
<svg version="1.0" xmlns="http://www.w3.org/2000/svg"
 width="32.000000pt" height="48.000000pt" viewBox="0 0 32.000000 48.000000"
 preserveAspectRatio="xMidYMid meet">
<metadata>
Created by potrace 1.16, written by Peter Selinger 2001-2019
</metadata>
<g transform="translate(0.000000,48.000000) scale(0.100000,-0.100000)"
fill="#000000" stroke="none">
<path fill="#000000" stroke="none" d="M0 240 l0 -240 160 0 160 0 0 240 0
240 -160 0 -160 0 0 -240z"/>
<path fill="#ffffff" stroke="none" d="M91 352 c1 -96 -8 -138 -27 -119 -8 8
-6 216 3 230 14 23 22 -17 24 -111z"/>
<path fill="#ffffff" stroke="none" d="M124 455 c-3 -8 1 -24 10 -37 13 -18
16 -19 16 -5 0 19 15 23 25 7 10 -17 37 11 32 32 -3 10 -1 16 4 12 15 -9 10
-36 -9 -53 -10 -9 -21 -24 -25 -33 -10 -27 -27 -21 -38 12 -6 17 -15 30 -20
30 -10 0 -12 33 -2 43 10 11 13 8 7 -8z"/>
<path fill="#ffffff" stroke="none" d="M171 346 c17 1 36 8 40 16 7 11 9 11 9
-1 0 -7 6 -11 13 -8 8 3 14 -1 14 -8 0 -8 -11 -12 -27 -11 -15 1 -27 -3 -27
-10 0 -7 6 -10 13 -7 13 5 34 -26 34 -49 -1 -8 -6 -6 -15 6 -10 13 -28 20 -52
21 -33 1 -40 -3 -51 -29 -7 -16 -15 -26 -19 -23 -3 4 0 13 7 22 7 8 9 15 5 15
-4 0 0 11 9 25 20 31 20 34 -2 28 -12 -3 -19 1 -19 11 0 8 4 13 9 10 4 -3 8 1
8 8 1 9 3 8 10 -3 6 -9 21 -14 41 -13z"/>
<path fill="#ffffff" stroke="none" d="M191 280 c5 0 9 -5 9 -11 0 -7 -11 -9
-27 -5 -28 5 -28 5 2 -9 l30 -14 -31 2 c-25 2 -31 6 -29 22 3 28 3 28 21 21 9
-3 20 -6 25 -6z"/>
<path fill="#ffffff" stroke="none" d="M259 249 c-8 -4 -14 -16 -14 -25 0 -10
-6 -19 -14 -22 -10 -3 -11 2 -6 19 9 29 27 48 39 42 4 -3 2 -9 -5 -14z"/>
<path fill="#ffffff" stroke="none" d="M157 204 c-3 -3 -12 -4 -19 -1 -8 3 -5
6 6 6 11 1 17 -2 13 -5z"/>
<path fill="#ffffff" stroke="none" d="M207 204 c-3 -3 -12 -4 -19 -1 -8 3 -5
6 6 6 11 1 17 -2 13 -5z"/>
<path fill="#ffffff" stroke="none" d="M90 196 c0 -11 -19 -15 -25 -6 -3 5 1
10 9 10 9 0 16 -2 16 -4z"/>
<path fill="#ffffff" stroke="none" d="M150 180 c0 -5 -2 -10 -4 -10 -3 0 -8
5 -11 10 -3 6 -1 10 4 10 6 0 11 -4 11 -10z"/>
<path fill="#ffffff" stroke="none" d="M205 180 c-3 -5 -10 -10 -16 -10 -5 0
-9 5 -9 10 0 6 7 10 16 10 8 0 12 -4 9 -10z"/>
<path fill="#ffffff" stroke="none" d="M150 134 c0 -8 -4 -14 -10 -14 -5 0
-10 9 -10 21 0 11 5 17 10 14 6 -3 10 -13 10 -21z"/>
<path fill="#ffffff" stroke="none" d="M210 146 c0 -6 -4 -17 -9 -24 -7 -11
-10 -10 -15 3 -9 25 -7 32 9 32 8 0 15 -5 15 -11z"/>
<path fill="#ffffff" stroke="none" d="M120 105 c0 -8 -2 -15 -4 -15 -2 0 -6
7 -10 15 -3 8 -1 15 4 15 6 0 10 -7 10 -15z"/>
<path fill="#ffffff" stroke="none" d="M240 116 c0 -2 -7 -9 -15 -16 -12 -10
-15 -10 -15 4 0 9 7 16 15 16 8 0 15 -2 15 -4z"/>
<path fill="#ffffff" stroke="none" d="M140 59 c0 -5 -4 -9 -10 -9 -5 0 -10 7
-10 16 0 8 5 12 10 9 6 -3 10 -10 10 -16z"/>
<path fill="#ffffff" stroke="none" d="M216 55 c-3 -8 4 -17 15 -20 10 -4 16
-11 13 -17 -4 -6 -10 -5 -15 3 -5 8 -9 10 -9 4 0 -5 -5 -3 -10 5 -13 20 -13
53 1 45 6 -4 8 -13 5 -20z"/>
<path fill="#ffffff" stroke="none" d="M140 29 c0 -5 -4 -8 -9 -4 -5 3 -12 1
-16 -5 -4 -6 -11 -7 -18 -3 -7 4 -4 9 9 14 27 11 34 10 34 -2z"/>
<path fill="#000000" stroke="none" d="M153 395 c-9 -24 1 -27 15 -5 8 13 8
20 2 20 -6 0 -13 -7 -17 -15z"/>
<path fill="#000000" stroke="none" d="M150 324 c0 -14 3 -14 15 -4 8 7 15 14
15 16 0 2 -7 4 -15 4 -8 0 -15 -7 -15 -16z"/>
</g>
</svg>
