<?xml version="1.0" standalone="no"?>
<!DOCTYPE svg PUBLIC "-//W3C//DTD SVG 20010904//EN"
 "http://www.w3.org/TR/2001/REC-SVG-20010904/DTD/svg10.dtd">
<svg version="1.0" xmlns="http://www.w3.org/2000/svg"
 width="32.000000pt" height="48.000000pt" viewBox="0 0 32.000000 48.000000"
 preserveAspectRatio="xMidYMid meet">
<metadata>
Created by potrace 1.16, written by Peter Selinger 2001-2019
</metadata>
<g transform="translate(0.000000,48.000000) scale(0.100000,-0.100000)"
fill="#000000" stroke="none">
<path fill="#000000" stroke="none" d="M67 463 c-8 -13 -12 -212 -4 -220 20
-19 29 22 28 114 -2 90 -10 128 -24 106z"/>
<path fill="#000000" stroke="none" d="M117 463 c-10 -10 -8 -43 2 -43 5 0 14
-12 19 -27 6 -16 11 -21 11 -13 1 9 -6 26 -15 38 -9 13 -13 29 -10 37 6 16 3
19 -7 8z"/>
<path fill="#000000" stroke="none" d="M207 452 c2 -10 -6 -27 -21 -41 -14
-14 -26 -29 -26 -34 0 -6 14 4 30 21 30 32 38 56 21 66 -5 4 -7 -2 -4 -12z"/>
<path fill="#000000" stroke="none" d="M150 419 c0 -5 5 -7 10 -4 6 3 10 8 10
11 0 2 -4 4 -10 4 -5 0 -10 -5 -10 -11z"/>
<path fill="#000000" stroke="none" d="M120 359 c0 -5 -4 -8 -8 -5 -5 3 -9 -1
-9 -8 0 -8 6 -12 14 -9 12 5 19 33 8 33 -3 0 -5 -5 -5 -11z"/>
<path fill="#000000" stroke="none" d="M206 354 c-4 -9 -4 -19 -1 -22 2 -3 7
3 11 12 4 9 4 19 1 22 -2 3 -7 -3 -11 -12z"/>
<path fill="#000000" stroke="none" d="M143 287 c1 -25 5 -44 8 -41 8 5 5 72
-4 81 -4 3 -6 -15 -4 -40z"/>
<path fill="#000000" stroke="none" d="M170 312 c0 -12 4 -22 9 -22 10 0 9 26
-2 36 -4 4 -7 -2 -7 -14z"/>
<path fill="#000000" stroke="none" d="M211 310 c0 -8 4 -22 9 -30 12 -18 12
-2 0 25 -6 13 -9 15 -9 5z"/>
<path fill="#000000" stroke="none" d="M116 293 c-6 -14 -5 -15 5 -6 7 7 10
15 7 18 -3 3 -9 -2 -12 -12z"/>
<path fill="#000000" stroke="none" d="M170 269 c0 -5 5 -7 10 -4 6 3 10 8 10
11 0 2 -4 4 -10 4 -5 0 -10 -5 -10 -11z"/>
<path fill="#000000" stroke="none" d="M225 219 c-11 -17 1 -21 15 -4 8 9 8
15 2 15 -6 0 -14 -5 -17 -11z"/>
<path fill="#000000" stroke="none" d="M65 190 c4 -6 11 -8 16 -5 14 9 11 15
-7 15 -8 0 -12 -5 -9 -10z"/>
<path fill="#000000" stroke="none" d="M130 140 c0 -19 3 -21 12 -12 9 9 9 15
0 24 -9 9 -12 7 -12 -12z"/>
<path fill="#000000" stroke="none" d="M180 151 c0 -5 5 -13 10 -16 6 -3 10
-2 10 4 0 5 -4 13 -10 16 -5 3 -10 2 -10 -4z"/>
<path fill="#000000" stroke="none" d="M121 64 c0 -11 3 -14 6 -6 3 7 2 16 -1
19 -3 4 -6 -2 -5 -13z"/>
<path fill="#000000" stroke="none" d="M116 32 c-3 -5 1 -9 9 -9 8 0 12 4 9 9
-3 4 -7 8 -9 8 -2 0 -6 -4 -9 -8z"/>
</g>
</svg>
