<?xml version="1.0" standalone="no"?>
<!DOCTYPE svg PUBLIC "-//W3C//DTD SVG 20010904//EN"
 "http://www.w3.org/TR/2001/REC-SVG-20010904/DTD/svg10.dtd">
<svg version="1.0" xmlns="http://www.w3.org/2000/svg"
 width="32.000000pt" height="48.000000pt" viewBox="0 0 32.000000 48.000000"
 preserveAspectRatio="xMidYMid meet">
<metadata>
Created by potrace 1.16, written by Peter Selinger 2001-2019
</metadata>
<g transform="translate(0.000000,48.000000) scale(0.100000,-0.100000)"
fill="#000000" stroke="none">
<path fill="#000000" stroke="none" d="M0 240 l0 -240 160 0 160 0 0 240 0
240 -160 0 -160 0 0 -240z"/>
<path fill="#ffffff" stroke="none" d="M170 413 c-8 -3 -22 -11 -30 -17 -13
-10 -13 -9 -1 7 7 9 21 17 30 16 13 0 14 -1 1 -6z"/>
<path fill="#ffffff" stroke="none" d="M180 386 c0 -2 -7 -7 -16 -10 -8 -3
-12 -2 -9 4 6 10 25 14 25 6z"/>
<path fill="#ffffff" stroke="none" d="M135 370 c3 -6 -1 -7 -9 -4 -18 7 -21
14 -7 14 6 0 13 -4 16 -10z"/>
<path fill="#ffffff" stroke="none" d="M215 328 c7 -8 6 -9 -2 -4 -9 5 -13 -1
-13 -18 0 -14 -4 -26 -10 -26 -5 0 -10 14 -10 30 0 24 -4 30 -21 30 -11 0 -17
-4 -14 -10 3 -5 1 -10 -4 -10 -13 0 -14 13 -4 24 10 10 65 -1 78 -16z"/>
<path fill="#ffffff" stroke="none" d="M147 299 c7 -7 13 -6 16 3 2 7 3 5 2
-4 -2 -10 5 -20 16 -23 22 -7 26 -35 4 -35 -8 0 -15 7 -15 15 0 22 -50 40 -73
25 -10 -6 -27 -8 -37 -5 -17 5 -18 9 -7 26 10 16 19 19 47 14 19 -4 40 -11 47
-16z"/>
<path fill="#ffffff" stroke="none" d="M240 285 c0 -30 -16 -33 -23 -5 -3 11
-1 18 4 14 5 -3 9 0 9 5 0 6 2 11 5 11 3 0 5 -11 5 -25z"/>
<path fill="#ffffff" stroke="none" d="M145 260 c3 -5 1 -10 -4 -10 -6 0 -11
5 -11 10 0 6 2 10 4 10 3 0 8 -4 11 -10z"/>
<path fill="#ffffff" stroke="none" d="M255 251 c-3 -6 -11 -11 -16 -11 -5 0
-4 6 3 14 14 16 24 13 13 -3z"/>
<path fill="#ffffff" stroke="none" d="M67 230 c6 -17 22 -34 34 -39 l24 -8
-22 -7 c-22 -7 -75 14 -88 34 -10 17 5 50 23 50 10 0 22 -13 29 -30z"/>
<path fill="#ffffff" stroke="none" d="M86 233 c-10 -10 -19 5 -10 18 6 11 8
11 12 0 2 -7 1 -15 -2 -18z"/>
<path fill="#ffffff" stroke="none" d="M250 215 c0 -8 -7 -15 -16 -15 -14 0
-14 3 -4 15 7 8 14 15 16 15 2 0 4 -7 4 -15z"/>
<path fill="#ffffff" stroke="none" d="M175 204 c11 15 18 17 26 9 8 -8 5 -17
-10 -32 -13 -13 -21 -16 -22 -8 0 8 -2 8 -6 -2 -5 -11 -7 -11 -14 0 -7 11 -9
10 -9 -3 0 -10 5 -18 10 -18 6 0 10 -12 10 -26 0 -16 -5 -24 -12 -22 -8 3 -14
26 -15 62 -1 52 0 56 13 39 14 -17 15 -17 29 1z"/>
<path fill="#ffffff" stroke="none" d="M170 210 c0 -5 -4 -10 -10 -10 -5 0
-10 5 -10 10 0 6 5 10 10 10 6 0 10 -4 10 -10z"/>
<path fill="#ffffff" stroke="none" d="M203 158 c-4 -19 -3 -20 6 -8 9 13 11
12 11 -6 0 -12 -7 -27 -15 -34 -13 -11 -15 -7 -15 29 0 22 4 41 9 41 5 0 7
-10 4 -22z"/>
<path fill="#ffffff" stroke="none" d="M130 100 c0 -5 -4 -10 -10 -10 -5 0
-10 5 -10 10 0 6 5 10 10 10 6 0 10 -4 10 -10z"/>
<path fill="#ffffff" stroke="none" d="M230 100 c0 -5 -6 -10 -12 -11 -10 0
-10 -2 0 -6 6 -2 12 -11 12 -18 0 -7 -6 -16 -12 -18 -8 -3 -5 -6 5 -6 10 -1
16 -5 13 -10 -4 -5 0 -12 6 -14 9 -4 9 -6 1 -6 -31 -2 -52 45 -37 83 7 18 24
22 24 6z"/>
<path fill="#ffffff" stroke="none" d="M150 66 c0 -29 -24 -56 -48 -55 -15 1
-15 2 1 6 9 2 15 9 11 14 -3 5 -2 9 3 8 19 -3 27 2 14 10 -8 5 -11 16 -8 25
10 24 27 19 27 -8z"/>
</g>
</svg>
