<?xml version="1.0" standalone="no"?>
<!DOCTYPE svg PUBLIC "-//W3C//DTD SVG 20010904//EN"
 "http://www.w3.org/TR/2001/REC-SVG-20010904/DTD/svg10.dtd">
<svg version="1.0" xmlns="http://www.w3.org/2000/svg"
 width="32.000000pt" height="48.000000pt" viewBox="0 0 32.000000 48.000000"
 preserveAspectRatio="xMidYMid meet">
<metadata>
Created by potrace 1.16, written by Peter Selinger 2001-2019
</metadata>
<g transform="translate(0.000000,48.000000) scale(0.100000,-0.100000)"
fill="#000000" stroke="none">
<path fill="#000000" stroke="none" d="M0 240 l0 -240 160 0 160 0 0 240 0
240 -160 0 -160 0 0 -240z"/>
<path fill="#ffffff" stroke="none" d="M160 416 c0 -2 -8 -10 -17 -17 -16 -13
-17 -12 -4 4 13 16 21 21 21 13z"/>
<path fill="#ffffff" stroke="none" d="M145 330 c3 -5 1 -10 -4 -10 -6 0 -11
5 -11 10 0 6 2 10 4 10 3 0 8 -4 11 -10z"/>
<path fill="#ffffff" stroke="none" d="M216 328 c4 -7 3 -8 -4 -4 -8 5 -12 -2
-12 -18 0 -14 -4 -26 -10 -26 -5 0 -10 14 -10 30 0 31 22 42 36 18z"/>
<path fill="#ffffff" stroke="none" d="M85 310 c-13 -6 -15 -9 -5 -9 13 -1 13
-2 0 -11 -12 -8 -12 -10 -1 -10 8 0 12 -3 8 -6 -3 -3 -15 -3 -26 1 -17 5 -19
9 -8 26 6 10 21 19 32 18 20 0 20 0 0 -9z"/>
<path fill="#ffffff" stroke="none" d="M167 299 c-3 -12 0 -22 9 -26 16 -6 19
-33 4 -33 -5 0 -10 6 -10 14 0 8 -12 24 -27 36 -22 16 -23 19 -5 10 18 -9 22
-8 22 5 0 8 3 15 6 15 4 0 4 -9 1 -21z"/>
<path fill="#ffffff" stroke="none" d="M237 275 c0 -8 -4 -12 -9 -9 -4 3 -8 9
-8 15 0 5 4 9 8 9 5 0 9 -7 9 -15z"/>
<path fill="#ffffff" stroke="none" d="M51 238 c9 -19 9 -21 -2 -10 -16 14
-29 16 -29 2 0 -13 54 -40 82 -40 21 -1 21 -2 5 -11 -34 -20 -103 26 -92 61 8
26 22 25 36 -2z"/>
<path fill="#ffffff" stroke="none" d="M255 250 c-3 -5 -12 -10 -18 -10 -7 0
-6 4 3 10 19 12 23 12 15 0z"/>
<path fill="#ffffff" stroke="none" d="M250 226 c0 -2 -8 -10 -17 -17 -16 -13
-17 -12 -4 4 13 16 21 21 21 13z"/>
<path fill="#ffffff" stroke="none" d="M155 182 c-8 -8 -25 10 -25 26 0 13 2
13 14 -4 8 -10 13 -21 11 -22z"/>
<path fill="#ffffff" stroke="none" d="M170 210 c0 -5 -4 -10 -10 -10 -5 0
-10 5 -10 10 0 6 5 10 10 10 6 0 10 -4 10 -10z"/>
<path fill="#ffffff" stroke="none" d="M194 211 c3 -5 -1 -14 -8 -20 -12 -10
-13 -8 -9 8 6 23 9 25 17 12z"/>
<path fill="#ffffff" stroke="none" d="M150 125 c0 -13 -29 -29 -38 -20 -3 3
0 5 6 5 7 0 12 9 12 21 0 11 5 17 10 14 6 -3 10 -12 10 -20z"/>
<path fill="#ffffff" stroke="none" d="M204 120 c-6 -6 -10 -3 -10 10 0 13 4
16 10 10 7 -7 7 -13 0 -20z"/>
<path fill="#ffffff" stroke="none" d="M140 65 c0 -8 -4 -15 -10 -15 -5 0 -10
7 -10 15 0 8 5 15 10 15 6 0 10 -7 10 -15z"/>
<path fill="#ffffff" stroke="none" d="M220 59 c0 -5 -4 -9 -10 -9 -5 0 -10 7
-10 16 0 8 5 12 10 9 6 -3 10 -10 10 -16z"/>
</g>
</svg>
