<?xml version="1.0" standalone="no"?>
<!DOCTYPE svg PUBLIC "-//W3C//DTD SVG 20010904//EN"
 "http://www.w3.org/TR/2001/REC-SVG-20010904/DTD/svg10.dtd">
<svg version="1.0" xmlns="http://www.w3.org/2000/svg"
 width="32.000000pt" height="48.000000pt" viewBox="0 0 32.000000 48.000000"
 preserveAspectRatio="xMidYMid meet">
<metadata>
Created by potrace 1.16, written by Peter Selinger 2001-2019
</metadata>
<g transform="translate(0.000000,48.000000) scale(0.100000,-0.100000)"
fill="#000000" stroke="none">
<path fill="#000000" stroke="none" d="M120 422 c0 -18 4 -32 9 -32 5 0 12 -8
15 -17 2 -10 3 0 0 22 -6 51 -24 71 -24 27z"/>
<path fill="#000000" stroke="none" d="M200 421 c0 -19 -3 -22 -12 -13 -7 7
-19 12 -27 12 -13 -1 -12 -4 3 -15 11 -8 14 -15 8 -15 -7 0 -12 -6 -12 -14 0
-7 -7 -19 -15 -26 -8 -7 -12 -16 -9 -21 3 -5 1 -9 -3 -9 -5 0 -14 -13 -20 -30
-7 -20 -18 -30 -32 -30 -16 0 -19 -6 -18 -34 2 -19 7 -39 11 -43 5 -4 6 -3 3
4 -11 18 3 41 33 57 26 12 29 12 33 -4 2 -10 1 -24 -4 -31 -5 -8 -9 -30 -8
-49 1 -19 -1 -42 -4 -50 -3 -8 -7 -28 -9 -44 -2 -16 -10 -31 -18 -33 -10 -3
-11 -2 -4 4 6 4 14 35 18 68 4 33 9 78 12 100 4 28 3 37 -4 30 -14 -13 -44
-183 -36 -207 11 -36 64 -14 64 27 0 11 8 25 19 32 14 9 18 21 15 45 -8 67 -4
182 5 191 7 7 16 5 27 -4 15 -12 17 -12 12 1 -2 8 -15 16 -27 18 -15 3 -21 8
-17 19 3 8 6 19 6 24 0 5 7 9 15 9 8 0 14 3 14 8 -1 4 0 9 1 12 8 21 6 37 -6
37 -8 0 -14 -11 -14 -26z"/>
<path fill="#000000" stroke="none" d="M58 413 c6 -2 18 -2 25 0 6 3 1 5 -13
5 -14 0 -19 -2 -12 -5z"/>
<path fill="#000000" stroke="none" d="M60 380 c0 -5 7 -7 15 -4 8 4 15 8 15
10 0 2 -7 4 -15 4 -8 0 -15 -4 -15 -10z"/>
<path fill="#000000" stroke="none" d="M69 348 c-4 -63 -3 -78 3 -78 4 0 7 20
6 45 0 41 -7 63 -9 33z"/>
<path fill="#000000" stroke="none" d="M194 178 c7 -139 14 -168 42 -168 16 0
19 16 4 25 -5 3 -10 18 -10 33 0 15 -7 38 -16 51 -16 22 -16 22 6 9 19 -12 23
-10 41 11 15 19 19 39 19 102 0 79 -5 90 -28 67 -10 -10 -17 -10 -32 0 -11 6
-23 12 -26 12 -4 0 -4 -64 0 -142z"/>
<path fill="#000000" stroke="none" d="M250 117 c-27 -22 -7 -97 26 -97 17 0
17 33 1 77 -10 26 -15 30 -27 20z"/>
<path fill="#000000" stroke="none" d="M174 72 c-6 -4 -13 -17 -16 -29 -5 -19
-2 -23 16 -23 19 0 22 4 18 30 -2 17 -5 30 -6 30 0 0 -6 -4 -12 -8z"/>
</g>
</svg>
