<?xml version="1.0" standalone="no"?>
<!DOCTYPE svg PUBLIC "-//W3C//DTD SVG 20010904//EN"
 "http://www.w3.org/TR/2001/REC-SVG-20010904/DTD/svg10.dtd">
<svg version="1.0" xmlns="http://www.w3.org/2000/svg"
 width="32.000000pt" height="48.000000pt" viewBox="0 0 32.000000 48.000000"
 preserveAspectRatio="xMidYMid meet">
<metadata>
Created by potrace 1.16, written by Peter Selinger 2001-2019
</metadata>
<g transform="translate(0.000000,48.000000) scale(0.100000,-0.100000)"
fill="#000000" stroke="none">
<path fill="#000000" stroke="none" d="M120 422 c0 -18 4 -32 9 -32 5 0 12 -8
15 -17 2 -10 3 0 0 22 -6 51 -24 71 -24 27z"/>
<path fill="#000000" stroke="none" d="M200 421 c0 -19 -3 -22 -12 -13 -7 7
-19 12 -27 12 -13 -1 -12 -4 3 -15 11 -8 16 -15 10 -15 -10 0 -18 -14 -54 -90
-16 -33 -23 -41 -30 -30 -10 17 -11 98 -1 105 10 5 8 36 -3 53 -17 29 -42 -27
-25 -58 1 -3 3 -44 3 -92 1 -52 5 -88 11 -88 6 0 10 9 10 20 0 12 12 26 28 35
l29 15 -8 -68 c-13 -130 -19 -155 -34 -159 -10 -3 -11 -2 -4 4 6 4 14 35 18
68 4 33 9 78 12 100 4 28 3 37 -4 30 -14 -13 -44 -183 -36 -207 12 -38 64 -14
64 29 0 13 4 23 9 23 5 0 16 3 24 6 12 4 16 -3 19 -27 2 -17 11 -37 20 -43 21
-13 36 0 20 16 -7 7 -12 24 -12 38 0 14 -11 41 -25 60 -22 29 -25 44 -25 111
0 79 9 100 35 79 11 -9 15 -9 15 -1 0 6 -11 16 -24 22 -16 8 -22 17 -19 30 3
10 11 19 18 19 13 0 25 21 25 44 0 7 -7 13 -15 13 -9 0 -15 -10 -15 -26z"/>
<path fill="#000000" stroke="none" d="M190 242 c0 -80 16 -122 45 -122 29 0
45 42 45 122 0 43 -2 78 -5 78 -3 0 -14 -6 -25 -12 -15 -10 -22 -10 -32 0 -23
23 -28 12 -28 -66z"/>
<path fill="#000000" stroke="none" d="M250 117 c-27 -22 -7 -97 26 -97 17 0
17 33 1 77 -10 26 -15 30 -27 20z"/>
<path fill="#000000" stroke="none" d="M174 72 c-6 -4 -13 -17 -16 -29 -5 -19
-2 -23 16 -23 19 0 22 4 18 30 -2 17 -5 30 -6 30 0 0 -6 -4 -12 -8z"/>
</g>
</svg>
