<?xml version="1.0" standalone="no"?>
<!DOCTYPE svg PUBLIC "-//W3C//DTD SVG 20010904//EN"
 "http://www.w3.org/TR/2001/REC-SVG-20010904/DTD/svg10.dtd">
<svg version="1.0" xmlns="http://www.w3.org/2000/svg"
 width="32.000000pt" height="48.000000pt" viewBox="0 0 32.000000 48.000000"
 preserveAspectRatio="xMidYMid meet">
<metadata>
Created by potrace 1.16, written by Peter Selinger 2001-2019
</metadata>
<g transform="translate(0.000000,48.000000) scale(0.100000,-0.100000)"
fill="#000000" stroke="none">
<path fill="#000000" stroke="none" d="M0 240 l0 -240 160 0 160 0 0 240 0
240 -160 0 -160 0 0 -240z"/>
<path fill="#ffffff" stroke="none" d="M144 395 c3 -22 2 -32 0 -22 -3 9 -10
17 -15 17 -5 0 -9 14 -9 32 0 44 18 24 24 -27z"/>
<path fill="#ffffff" stroke="none" d="M225 431 c-2 -9 -4 -18 -5 -21 -1 -3
-2 -8 -1 -12 0 -5 -6 -8 -14 -8 -8 0 -15 -4 -15 -9 0 -5 -3 -16 -6 -24 -4 -11
2 -16 17 -19 12 -2 25 -10 27 -18 5 -13 3 -13 -12 -1 -11 9 -20 11 -27 4 -9
-9 -13 -124 -5 -191 3 -24 -1 -36 -15 -45 -11 -7 -19 -21 -19 -32 0 -41 -53
-63 -64 -27 -8 24 22 194 36 207 7 7 8 -2 4 -30 -3 -22 -8 -67 -12 -100 -4
-33 -12 -64 -18 -68 -7 -6 -6 -7 4 -4 8 2 16 17 18 33 2 16 6 36 9 44 3 8 5
31 4 50 -1 19 3 41 8 49 5 7 6 21 4 31 -4 16 -7 16 -33 4 -30 -16 -44 -39 -33
-57 3 -7 2 -8 -3 -4 -4 4 -9 24 -11 43 -1 28 2 34 18 34 14 0 25 10 32 30 6
17 15 30 20 30 4 0 6 4 3 9 -3 5 1 14 9 21 8 7 15 19 15 26 0 8 5 14 12 14 6
0 3 7 -8 15 -15 11 -16 14 -3 15 8 0 20 -5 27 -12 9 -9 12 -6 12 13 0 15 6 26
14 26 7 0 12 -7 11 -16z"/>
<path fill="#ffffff" stroke="none" d="M83 413 c-7 -2 -19 -2 -25 0 -7 3 -2 5
12 5 14 0 19 -2 13 -5z"/>
<path fill="#ffffff" stroke="none" d="M90 386 c0 -2 -7 -6 -15 -10 -8 -3 -15
-1 -15 4 0 6 7 10 15 10 8 0 15 -2 15 -4z"/>
<path fill="#ffffff" stroke="none" d="M78 315 c1 -25 -2 -45 -6 -45 -6 0 -7
15 -3 78 2 30 9 8 9 -33z"/>
<path fill="#ffffff" stroke="none" d="M220 308 c15 -10 22 -10 32 0 23 23 28
12 28 -67 0 -63 -4 -83 -19 -102 -18 -21 -22 -23 -41 -11 -22 13 -22 13 -6 -9
9 -13 16 -36 16 -51 0 -15 5 -30 10 -33 6 -3 10 -10 10 -16 0 -13 -26 -11 -38
4 -12 14 -29 297 -18 297 3 0 15 -6 26 -12z"/>
<path fill="#ffffff" stroke="none" d="M289 43 c1 -25 -20 -31 -37 -10 -17 20
-18 71 -2 84 12 10 17 6 27 -20 6 -18 12 -42 12 -54z"/>
<path fill="#ffffff" stroke="none" d="M192 50 c4 -26 1 -30 -18 -30 -18 0
-21 4 -16 23 4 17 18 36 28 37 1 0 4 -13 6 -30z"/>
</g>
</svg>
