<?xml version="1.0" standalone="no"?>
<!DOCTYPE svg PUBLIC "-//W3C//DTD SVG 20010904//EN"
 "http://www.w3.org/TR/2001/REC-SVG-20010904/DTD/svg10.dtd">
<svg version="1.0" xmlns="http://www.w3.org/2000/svg"
 width="32.000000pt" height="48.000000pt" viewBox="0 0 32.000000 48.000000"
 preserveAspectRatio="xMidYMid meet">
<metadata>
Created by potrace 1.16, written by Peter Selinger 2001-2019
</metadata>
<g transform="translate(0.000000,48.000000) scale(0.100000,-0.100000)"
fill="#000000" stroke="none">
<path fill="#000000" stroke="none" d="M0 240 l0 -240 160 0 160 0 0 240 0
240 -160 0 -160 0 0 -240z"/>
<path fill="#ffffff" stroke="none" d="M91 410 c-8 -54 -8 -209 0 -204 5 3 9
16 9 29 0 35 21 75 39 76 9 0 0 8 -19 17 -33 15 -33 16 -11 20 13 2 28 -2 32
-10 11 -16 11 -5 0 47 -7 40 -7 41 24 40 l31 0 -8 -44 c-4 -24 -6 -47 -3 -49
3 -3 5 0 5 6 0 7 15 12 36 12 43 0 36 -17 -11 -26 -27 -5 -32 -9 -22 -19 10
-12 14 -11 24 2 14 18 11 22 38 -59 9 -26 13 -58 10 -70 -3 -13 1 -45 10 -73
18 -62 19 -85 1 -85 -21 0 -33 21 -40 72 -7 43 -5 47 11 42 17 -5 17 -5 0 6
-12 8 -15 16 -9 23 5 7 13 23 17 37 7 22 6 22 -8 9 -8 -9 -17 -24 -21 -35 -3
-10 -4 4 -1 32 4 61 -7 86 -23 49 -6 -14 -8 -25 -4 -25 5 0 14 -43 22 -95 7
-53 17 -98 21 -101 5 -3 9 -9 9 -15 0 -14 -26 -11 -40 6 -16 19 -54 19 -70 0
-13 -16 -50 -21 -50 -6 0 5 6 11 14 14 9 4 17 41 26 120 12 117 9 186 -5 89
-5 -36 -14 -58 -26 -65 -16 -10 -19 -25 -19 -91 0 -44 -2 -77 -5 -74 -3 3 -6
85 -6 184 -1 98 -5 187 -11 197 -13 25 -2 49 19 45 13 -3 17 -11 14 -28z"/>
<path fill="#ffffff" stroke="none" d="M115 106 c-8 -75 -25 -89 -25 -22 0 46
16 103 26 93 3 -3 3 -35 -1 -71z"/>
<path fill="#ffffff" stroke="none" d="M193 23 c-7 -2 -21 -2 -30 0 -10 3 -4
5 12 5 17 0 24 -2 18 -5z"/>
</g>
</svg>
