<?xml version="1.0" standalone="no"?>
<!DOCTYPE svg PUBLIC "-//W3C//DTD SVG 20010904//EN"
 "http://www.w3.org/TR/2001/REC-SVG-20010904/DTD/svg10.dtd">
<svg version="1.0" xmlns="http://www.w3.org/2000/svg"
 width="32.000000pt" height="48.000000pt" viewBox="0 0 32.000000 48.000000"
 preserveAspectRatio="xMidYMid meet">
<metadata>
Created by potrace 1.16, written by Peter Selinger 2001-2019
</metadata>
<g transform="translate(0.000000,48.000000) scale(0.100000,-0.100000)"
fill="#000000" stroke="none">
<path fill="#000000" stroke="none" d="M0 240 l0 -240 160 0 160 0 0 240 0
240 -160 0 -160 0 0 -240z"/>
<path fill="#ffffff" stroke="none" d="M91 410 c-8 -56 -8 -219 0 -214 5 3 9
20 9 38 0 18 7 41 16 52 15 19 16 19 9 -1 -4 -11 -9 -37 -12 -58 -3 -21 -12
-41 -19 -44 -10 -4 -14 -28 -14 -91 0 -47 -2 -83 -5 -80 -3 3 -6 85 -6 184 -1
98 -5 187 -11 197 -13 25 -2 49 19 45 13 -3 17 -11 14 -28z"/>
<path fill="#ffffff" stroke="none" d="M192 398 c-4 -28 -28 -56 -39 -45 -3 4
-7 17 -8 31 -2 14 -5 29 -8 33 -3 5 9 8 27 8 29 0 31 -2 28 -27z"/>
<path fill="#ffffff" stroke="none" d="M140 340 c0 -13 -20 -13 -40 0 -12 8
-9 10 13 10 15 0 27 -4 27 -10z"/>
<path fill="#ffffff" stroke="none" d="M250 340 c-20 -13 -60 -13 -60 0 0 6
17 10 38 10 27 0 33 -3 22 -10z"/>
<path fill="#ffffff" stroke="none" d="M180 325 c0 -8 5 -15 10 -15 16 0 12
-22 -7 -36 -17 -13 -17 -14 1 -8 16 6 17 4 7 -14 -10 -19 -9 -22 5 -22 29 0 4
-15 -27 -16 -27 -1 -43 15 -16 17 10 0 10 2 0 6 -14 5 -17 43 -7 81 7 25 34
31 34 7z"/>
<path fill="#ffffff" stroke="none" d="M252 256 c17 -53 15 -88 -6 -115 -9
-12 -8 -13 5 -9 13 5 19 -5 29 -48 14 -58 9 -75 -18 -58 -26 17 -34 89 -17
141 19 56 19 61 -4 34 -18 -21 -18 -21 -18 44 0 36 3 65 6 65 4 0 14 -24 23
-54z"/>
<path fill="#ffffff" stroke="none" d="M202 181 c4 -13 9 -49 11 -81 1 -46 6
-60 20 -63 9 -3 17 -10 17 -16 0 -13 -26 -15 -34 -3 -3 5 -20 7 -38 6 l-33 -3
30 8 c30 9 30 9 4 10 -15 0 -32 -6 -39 -14 -14 -16 -50 -21 -50 -6 0 5 9 12
19 16 16 5 21 19 26 83 4 42 9 80 11 83 8 15 48 0 56 -20z"/>
<path fill="#ffffff" stroke="none" d="M115 106 c-8 -75 -25 -89 -25 -22 0 46
16 103 26 93 3 -3 3 -35 -1 -71z"/>
</g>
</svg>
