<?xml version="1.0" standalone="no"?>
<!DOCTYPE svg PUBLIC "-//W3C//DTD SVG 20010904//EN"
 "http://www.w3.org/TR/2001/REC-SVG-20010904/DTD/svg10.dtd">
<svg version="1.0" xmlns="http://www.w3.org/2000/svg"
 width="32.000000pt" height="48.000000pt" viewBox="0 0 32.000000 48.000000"
 preserveAspectRatio="xMidYMid meet">
<metadata>
Created by potrace 1.16, written by Peter Selinger 2001-2019
</metadata>
<g transform="translate(0.000000,48.000000) scale(0.100000,-0.100000)"
fill="#000000" stroke="none">
<path fill="#000000" stroke="none" d="M136 424 c-3 -9 -6 -33 -6 -53 0 -58
-18 -100 -46 -107 -26 -7 -33 -34 -9 -34 8 0 15 5 15 11 0 6 6 9 14 6 7 -3 19
0 26 6 10 10 11 2 7 -38 -4 -27 -9 -79 -13 -113 -4 -39 -12 -66 -20 -69 -24
-9 -15 -25 9 -17 28 8 28 8 31 31 2 10 -2 21 -8 25 -6 4 6 8 27 8 32 0 37 -3
37 -23 0 -27 17 -47 35 -41 10 4 10 11 1 30 -6 13 -15 24 -21 24 -5 0 -5 4 1
8 9 5 9 24 0 77 -6 39 -10 82 -8 98 3 25 5 26 19 11 12 -11 13 -18 4 -27 -15
-15 -14 -37 3 -37 7 0 16 12 19 26 5 28 -20 104 -35 104 -5 0 -6 5 -3 11 4 5
1 25 -6 42 -21 51 -61 74 -73 41z"/>
<path fill="#ffffff" stroke="none" d="M180 214 c-6 -6 -7 -13 -4 -16 3 -3 1
-9 -4 -12 -6 -3 -9 2 -8 11 2 10 -2 21 -8 25 -6 4 -1 6 11 5 15 -1 19 -5 13
-13z"/>
<path fill="#000000" stroke="none" d="M60 406 c0 -8 4 -17 9 -20 5 -4 7 3 4
14 -6 23 -13 26 -13 6z"/>
<path fill="#000000" stroke="none" d="M50 340 c0 -8 5 -22 10 -30 9 -13 10
-13 10 0 0 8 -5 22 -10 30 -9 13 -10 13 -10 0z"/>
<path fill="#000000" stroke="none" d="M67 135 c3 -27 7 -52 9 -54 7 -8 2 54
-6 79 -6 17 -7 9 -3 -25z"/>
</g>
</svg>
