<?xml version="1.0" standalone="no"?>
<!DOCTYPE svg PUBLIC "-//W3C//DTD SVG 20010904//EN"
 "http://www.w3.org/TR/2001/REC-SVG-20010904/DTD/svg10.dtd">
<svg version="1.0" xmlns="http://www.w3.org/2000/svg"
 width="32.000000pt" height="48.000000pt" viewBox="0 0 32.000000 48.000000"
 preserveAspectRatio="xMidYMid meet">
<metadata>
Created by potrace 1.16, written by Peter Selinger 2001-2019
</metadata>
<g transform="translate(0.000000,48.000000) scale(0.100000,-0.100000)"
fill="#000000" stroke="none">
<path fill="#000000" stroke="none" d="M135 418 c-6 -31 -2 -77 8 -71 4 2 7
-7 7 -20 0 -14 6 -27 13 -30 19 -7 9 54 -12 71 -14 12 -14 13 2 8 12 -4 17 -2
14 6 -2 7 -10 12 -16 11 -6 -2 -11 2 -11 7 0 6 5 10 10 10 6 0 10 7 10 15 0
23 -19 18 -25 -7z"/>
<path fill="#000000" stroke="none" d="M188 373 c5 -21 7 -23 10 -9 2 10 0 22
-6 28 -6 6 -7 0 -4 -19z"/>
<path fill="#000000" stroke="none" d="M60 251 c0 -17 18 -21 24 -6 3 9 0 15
-9 15 -8 0 -15 -4 -15 -9z"/>
<path fill="#000000" stroke="none" d="M226 224 c-4 -9 -4 -19 -1 -22 2 -3 7
3 11 12 4 9 4 19 1 22 -2 3 -7 -3 -11 -12z"/>
<path fill="#000000" stroke="none" d="M136 167 c-8 -45 0 -77 20 -77 17 0 17
12 0 70 l-13 44 -7 -37z"/>
<path fill="#000000" stroke="none" d="M190 184 c0 -10 -3 -36 -6 -56 -5 -31
-4 -38 9 -38 13 0 15 9 10 53 -6 53 -13 75 -13 41z"/>
<path fill="#000000" stroke="none" d="M105 34 c-19 -14 -19 -15 2 -11 26 4
38 13 26 20 -4 3 -17 -1 -28 -9z"/>
<path fill="#000000" stroke="none" d="M222 34 c10 -10 20 -16 22 -13 3 3 -5
11 -17 18 -21 13 -21 12 -5 -5z"/>
</g>
</svg>
