<?xml version="1.0" standalone="no"?>
<!DOCTYPE svg PUBLIC "-//W3C//DTD SVG 20010904//EN"
 "http://www.w3.org/TR/2001/REC-SVG-20010904/DTD/svg10.dtd">
<svg version="1.0" xmlns="http://www.w3.org/2000/svg"
 width="32.000000pt" height="32.000000pt" viewBox="0 0 32.000000 32.000000"
 preserveAspectRatio="xMidYMid meet">
<metadata>
Created by potrace 1.16, written by Peter Selinger 2001-2019
</metadata>
<g transform="translate(0.000000,32.000000) scale(0.100000,-0.100000)"
fill="#000000" stroke="none">
<path fill="#000000" stroke="none" d="M0 249 l0 -71 25 16 c14 9 45 19 69 22
36 5 52 2 80 -16 20 -12 41 -30 46 -40 15 -28 12 -113 -4 -136 -15 -19 -15
-19 -37 3 -16 16 -20 25 -12 35 6 7 14 27 17 43 6 26 2 34 -24 53 -27 20 -35
22 -71 12 -87 -24 -89 -26 -89 -102 l0 -68 160 0 160 0 0 160 0 160 -160 0
-160 0 0 -71z"/>
<path fill="#000000" stroke="none" d="M98 204 c-3 -3 -17 -6 -30 -8 -25 -2
-75 -32 -67 -40 2 -2 31 5 64 16 56 18 61 19 87 3 15 -9 28 -13 28 -10 0 3 6
0 14 -7 10 -9 11 -20 5 -37 -10 -26 -6 -37 10 -26 6 3 11 17 11 30 0 42 -97
105 -122 79z"/>
</g>
</svg>
