<?xml version="1.0" standalone="no"?>
<!DOCTYPE svg PUBLIC "-//W3C//DTD SVG 20010904//EN"
 "http://www.w3.org/TR/2001/REC-SVG-20010904/DTD/svg10.dtd">
<svg version="1.0" xmlns="http://www.w3.org/2000/svg"
 width="32.000000pt" height="32.000000pt" viewBox="0 0 32.000000 32.000000"
 preserveAspectRatio="xMidYMid meet">
<metadata>
Created by potrace 1.16, written by Peter Selinger 2001-2019
</metadata>
<g transform="translate(0.000000,32.000000) scale(0.100000,-0.100000)"
fill="#000000" stroke="none">
<path fill="#000000" stroke="none" d="M1 160 l-2 -160 69 0 c76 0 78 1 102
89 l11 41 -59 58 c-32 31 -72 67 -88 80 l-29 23 35 -22 c19 -13 61 -49 93 -81
l59 -58 -17 -52 c-9 -29 -19 -59 -21 -65 -3 -7 -1 -13 4 -13 18 0 43 51 49 98
5 47 4 48 -49 103 -45 45 -139 119 -152 119 -2 0 -4 -72 -5 -160z"/>
<path fill="#000000" stroke="none" d="M30 315 c0 -2 13 -11 29 -19 16 -9 59
-45 96 -81 l68 -65 -6 -50 c-3 -27 -13 -61 -23 -75 l-16 -25 71 0 71 0 0 160
0 160 -145 0 c-80 0 -145 -2 -145 -5z"/>
</g>
</svg>
