<?xml version="1.0" standalone="no"?>
<!DOCTYPE svg PUBLIC "-//W3C//DTD SVG 20010904//EN"
 "http://www.w3.org/TR/2001/REC-SVG-20010904/DTD/svg10.dtd">
<svg version="1.0" xmlns="http://www.w3.org/2000/svg"
 width="32.000000pt" height="32.000000pt" viewBox="0 0 32.000000 32.000000"
 preserveAspectRatio="xMidYMid meet">
<metadata>
Created by potrace 1.16, written by Peter Selinger 2001-2019
</metadata>
<g transform="translate(0.000000,32.000000) scale(0.100000,-0.100000)"
fill="#000000" stroke="none">
<path fill="#000000" stroke="none" d="M47 285 c15 -22 53 -66 85 -98 l58 -59
52 16 c29 9 60 21 68 27 13 9 13 10 0 5 -8 -2 -39 -12 -67 -21 l-53 -16 -57
59 c-32 32 -71 74 -86 93 l-28 34 28 -40z"/>
<path fill="#000000" stroke="none" d="M0 307 c-1 -39 155 -207 193 -207 44 0
82 11 107 32 l25 20 -28 -16 c-15 -10 -49 -20 -75 -23 -47 -5 -48 -5 -105 51
-32 32 -71 78 -87 104 -16 26 -30 44 -30 39z"/>
</g>
</svg>
