<?xml version="1.0" standalone="no"?>
<!DOCTYPE svg PUBLIC "-//W3C//DTD SVG 20010904//EN"
 "http://www.w3.org/TR/2001/REC-SVG-20010904/DTD/svg10.dtd">
<svg version="1.0" xmlns="http://www.w3.org/2000/svg"
 width="32.000000pt" height="32.000000pt" viewBox="0 0 32.000000 32.000000"
 preserveAspectRatio="xMidYMid meet">
<metadata>
Created by potrace 1.16, written by Peter Selinger 2001-2019
</metadata>
<g transform="translate(0.000000,32.000000) scale(0.100000,-0.100000)"
fill="#000000" stroke="none">
<path fill="#000000" stroke="none" d="M133 160 c-24 -10 -70 -67 -65 -82 1
-6 -3 -17 -9 -25 -10 -11 -9 -17 5 -31 24 -24 49 -5 57 43 9 55 60 88 73 47 3
-10 29 -40 58 -67 29 -28 46 -43 39 -33 -7 10 -8 18 -2 22 5 4 14 -2 20 -11 6
-10 11 -13 11 -7 0 5 -27 43 -60 82 -62 74 -78 81 -127 62z"/>
<path fill="#ffffff" stroke="none" d="M217 138 c7 -5 15 -19 19 -30 3 -12 18
-31 33 -44 14 -13 20 -24 14 -24 -7 0 -13 5 -13 11 0 5 -4 8 -9 4 -9 -5 -56
52 -56 69 0 5 -10 12 -22 17 -16 6 -28 2 -46 -15 -13 -12 -26 -28 -29 -36 -2
-7 -10 -11 -17 -9 -9 3 -5 14 14 37 15 18 31 30 35 27 5 -3 12 -1 15 5 7 11
41 4 62 -12z"/>
</g>
</svg>
