<?xml version="1.0" standalone="no"?>
<!DOCTYPE svg PUBLIC "-//W3C//DTD SVG 20010904//EN"
 "http://www.w3.org/TR/2001/REC-SVG-20010904/DTD/svg10.dtd">
<svg version="1.0" xmlns="http://www.w3.org/2000/svg"
 width="32.000000pt" height="32.000000pt" viewBox="0 0 32.000000 32.000000"
 preserveAspectRatio="xMidYMid meet">
<metadata>
Created by potrace 1.16, written by Peter Selinger 2001-2019
</metadata>
<g transform="translate(0.000000,32.000000) scale(0.100000,-0.100000)"
fill="#000000" stroke="none">
<path fill="#000000" stroke="none" d="M0 160 l0 -160 160 0 160 0 0 66 0 66
-24 -15 c-30 -20 -89 -31 -121 -23 -14 4 -37 24 -51 46 -23 34 -26 47 -21 85
4 25 14 56 23 70 l16 25 -71 0 -71 0 0 -160z"/>
<path fill="#000000" stroke="none" d="M136 295 c-29 -44 -32 -109 -7 -149 12
-19 31 -38 42 -41 31 -10 101 3 129 25 33 25 22 34 -21 16 -19 -7 -48 -17 -66
-20 -27 -6 -34 -3 -58 28 l-27 35 17 53 c9 29 19 59 21 66 10 22 -13 13 -30
-13z"/>
<path fill="#000000" stroke="none" d="M172 296 c-6 -13 -16 -43 -22 -65 -10
-36 -8 -44 12 -71 24 -34 42 -34 121 -3 l37 15 0 74 0 74 -68 0 c-63 0 -70 -2
-80 -24z"/>
</g>
</svg>
