<?xml version="1.0" standalone="no"?>
<!DOCTYPE svg PUBLIC "-//W3C//DTD SVG 20010904//EN"
 "http://www.w3.org/TR/2001/REC-SVG-20010904/DTD/svg10.dtd">
<svg version="1.0" xmlns="http://www.w3.org/2000/svg"
 width="32.000000pt" height="32.000000pt" viewBox="0 0 32.000000 32.000000"
 preserveAspectRatio="xMidYMid meet">
<metadata>
Created by potrace 1.16, written by Peter Selinger 2001-2019
</metadata>
<g transform="translate(0.000000,32.000000) scale(0.100000,-0.100000)"
fill="#000000" stroke="none">
<path fill="#000000" stroke="none" d="M0 249 l0 -71 25 16 c39 25 104 30 186
13 41 -9 82 -19 92 -22 15 -6 17 0 17 64 l0 71 -160 0 -160 0 0 -71z"/>
<path fill="#000000" stroke="none" d="M65 204 c-24 -6 -72 -41 -65 -48 3 -2
32 4 64 15 l59 20 95 -21 c90 -20 124 -20 92 0 -36 22 -199 45 -245 34z"/>
<path fill="#000000" stroke="none" d="M100 174 c-8 -3 -34 -12 -57 -20 l-43
-16 0 -69 0 -69 160 0 160 0 0 69 0 69 -72 16 c-101 22 -131 26 -148 20z"/>
</g>
</svg>
