<?xml version="1.0" standalone="no"?>
<!DOCTYPE svg PUBLIC "-//W3C//DTD SVG 20010904//EN"
 "http://www.w3.org/TR/2001/REC-SVG-20010904/DTD/svg10.dtd">
<svg version="1.0" xmlns="http://www.w3.org/2000/svg"
 width="32.000000pt" height="32.000000pt" viewBox="0 0 32.000000 32.000000"
 preserveAspectRatio="xMidYMid meet">
<metadata>
Created by potrace 1.16, written by Peter Selinger 2001-2019
</metadata>
<g transform="translate(0.000000,32.000000) scale(0.100000,-0.100000)"
fill="#000000" stroke="none">
<path fill="#000000" stroke="none" d="M65 213 c-11 -2 -31 -13 -45 -25 l-25
-20 27 16 c43 25 107 30 189 13 41 -9 83 -19 94 -22 17 -6 18 -5 4 4 -40 25
-186 46 -244 34z"/>
<path fill="#000000" stroke="none" d="M75 176 c-23 -7 -50 -18 -60 -25 -11
-7 -13 -10 -5 -7 115 38 112 38 210 16 51 -11 95 -19 97 -16 4 4 -110 31 -172
41 -16 2 -48 -1 -70 -9z"/>
</g>
</svg>
