<?xml version="1.0" standalone="no"?>
<!DOCTYPE svg PUBLIC "-//W3C//DTD SVG 20010904//EN"
 "http://www.w3.org/TR/2001/REC-SVG-20010904/DTD/svg10.dtd">
<svg version="1.0" xmlns="http://www.w3.org/2000/svg"
 width="32.000000pt" height="32.000000pt" viewBox="0 0 32.000000 32.000000"
 preserveAspectRatio="xMidYMid meet">
<metadata>
Created by potrace 1.16, written by Peter Selinger 2001-2019
</metadata>
<g transform="translate(0.000000,32.000000) scale(0.100000,-0.100000)"
fill="#000000" stroke="none">
<path fill="#000000" stroke="none" d="M65 223 c-10 -3 -30 -12 -42 -20 -20
-13 -21 -18 -11 -31 10 -12 10 -14 1 -8 -8 4 -13 2 -13 -4 0 -7 7 -9 16 -6 9
3 18 6 20 6 3 0 3 3 1 8 -3 4 5 7 16 8 12 0 36 3 52 7 27 7 34 4 53 -23 20
-27 22 -35 12 -70 -6 -22 -8 -46 -4 -52 4 -6 3 -8 -3 -5 -6 4 -14 0 -17 -9 -8
-21 -8 -24 5 -24 5 0 7 6 3 13 -6 9 -4 9 8 -1 13 -10 18 -8 32 13 9 14 19 45
22 69 5 36 2 52 -16 80 -32 53 -68 66 -135 49z"/>
<path fill="#ffffff" stroke="none" d="M144 208 c-3 -4 -11 -5 -19 -1 -8 3
-15 -1 -15 -8 0 -7 -3 -10 -6 -6 -10 10 6 26 26 24 10 -1 17 -5 14 -9z"/>
<path fill="#ffffff" stroke="none" d="M79 203 c14 11 14 10 2 -6 -10 -13 -17
-15 -27 -6 -8 6 -14 14 -14 17 0 3 5 1 12 -6 9 -9 15 -9 27 1z"/>
<path fill="#ffffff" stroke="none" d="M199 147 c5 1 8 -7 7 -19 0 -12 -8 -23
-16 -25 -13 -4 -13 -3 0 6 12 8 12 12 -1 28 -9 10 -19 25 -23 33 -4 8 0 6 9
-5 9 -11 20 -19 24 -18z"/>
<path fill="#ffffff" stroke="none" d="M192 78 c-9 -9 -9 -15 1 -27 11 -14 10
-14 -6 -2 -13 10 -15 17 -6 27 6 8 14 14 17 14 3 0 1 -5 -6 -12z"/>
</g>
</svg>
