<?xml version="1.0" standalone="no"?>
<!DOCTYPE svg PUBLIC "-//W3C//DTD SVG 20010904//EN"
 "http://www.w3.org/TR/2001/REC-SVG-20010904/DTD/svg10.dtd">
<svg version="1.0" xmlns="http://www.w3.org/2000/svg"
 width="32.000000pt" height="32.000000pt" viewBox="0 0 32.000000 32.000000"
 preserveAspectRatio="xMidYMid meet">
<metadata>
Created by potrace 1.16, written by Peter Selinger 2001-2019
</metadata>
<g transform="translate(0.000000,32.000000) scale(0.100000,-0.100000)"
fill="#000000" stroke="none">
<path fill="#000000" stroke="none" d="M20 315 c0 -2 18 -16 40 -30 22 -14 64
-50 95 -81 47 -48 55 -62 55 -93 0 -20 5 -42 12 -49 9 -10 8 -16 -5 -30 -16
-15 -19 -15 -28 -2 -5 8 -8 35 -5 60 4 44 3 46 -59 105 -85 81 -125 114 -125
104 0 -4 17 -21 38 -36 20 -15 60 -51 88 -79 49 -49 52 -53 47 -95 -3 -30 0
-50 11 -64 15 -20 15 -20 38 2 17 18 20 25 10 35 -7 7 -12 29 -12 51 0 34 -7
46 -60 98 -54 53 -140 117 -140 104z"/>
</g>
</svg>
