<?xml version="1.0" standalone="no"?>
<!DOCTYPE svg PUBLIC "-//W3C//DTD SVG 20010904//EN"
 "http://www.w3.org/TR/2001/REC-SVG-20010904/DTD/svg10.dtd">
<svg version="1.0" xmlns="http://www.w3.org/2000/svg"
 width="32.000000pt" height="32.000000pt" viewBox="0 0 32.000000 32.000000"
 preserveAspectRatio="xMidYMid meet">
<metadata>
Created by potrace 1.16, written by Peter Selinger 2001-2019
</metadata>
<g transform="translate(0.000000,32.000000) scale(0.100000,-0.100000)"
fill="#000000" stroke="none">
<path fill="#000000" stroke="none" d="M0 160 l0 -160 160 0 160 0 0 160 0
160 -160 0 -160 0 0 -160z"/>
<path fill="#ffffff" stroke="none" d="M168 293 l-138 -4 0 -104 c0 -98 1
-105 20 -105 11 0 20 5 20 10 0 6 -4 10 -10 10 -5 0 -10 5 -10 11 0 5 4 8 9 5
10 -7 25 22 22 44 -2 13 0 13 8 1 5 -8 7 -20 4 -28 -4 -9 0 -11 11 -7 9 3 16
13 16 21 0 8 14 19 30 25 27 9 29 12 15 22 -14 10 -11 12 16 14 43 3 50 9 43
37 -3 13 0 26 7 30 7 5 10 4 5 -3 -10 -16 18 -20 30 -4 11 15 34 9 34 -9 0 -6
-5 -7 -12 -3 -8 5 -9 2 -5 -9 5 -12 1 -17 -13 -17 -11 0 -20 -4 -20 -10 0 -5
5 -10 10 -10 6 0 10 -5 10 -11 0 -5 -4 -8 -9 -5 -10 7 -25 -22 -22 -44 2 -13
0 -13 -8 -1 -5 8 -7 20 -4 28 4 9 0 11 -11 7 -9 -3 -16 -13 -16 -21 0 -8 -14
-19 -30 -25 -27 -9 -29 -12 -15 -22 14 -10 11 -12 -16 -14 -43 -3 -50 -9 -43
-36 3 -15 -1 -27 -13 -37 -16 -13 -17 -12 -5 2 10 14 10 18 -2 22 -9 4 -17 -2
-21 -14 -4 -10 -13 -19 -21 -19 -11 0 -14 25 -14 140 l0 140 143 -2 142 -2
-137 -3z"/>
</g>
</svg>
