<?xml version="1.0" standalone="no"?>
<!DOCTYPE svg PUBLIC "-//W3C//DTD SVG 20010904//EN"
 "http://www.w3.org/TR/2001/REC-SVG-20010904/DTD/svg10.dtd">
<svg version="1.0" xmlns="http://www.w3.org/2000/svg"
 width="32.000000pt" height="32.000000pt" viewBox="0 0 32.000000 32.000000"
 preserveAspectRatio="xMidYMid meet">
<metadata>
Created by potrace 1.16, written by Peter Selinger 2001-2019
</metadata>
<g transform="translate(0.000000,32.000000) scale(0.100000,-0.100000)"
fill="#000000" stroke="none">
<path fill="#000000" stroke="none" d="M20 160 c0 -128 1 -139 18 -133 9 3 29
17 43 30 14 13 29 20 34 16 5 -5 4 -1 -3 8 -17 22 5 44 27 26 9 -7 12 -8 8 -1
-4 6 2 19 12 28 13 12 21 14 26 6 3 -5 11 -8 16 -4 5 3 6 11 2 17 -12 19 -12
37 -1 34 6 -1 18 12 28 28 9 17 24 29 33 27 9 -1 19 9 25 28 l11 30 -140 0
-139 0 0 -140z"/>
<path fill="#ffffff" stroke="none" d="M237 276 c0 -8 -8 -11 -19 -8 -10 2
-18 1 -17 -4 1 -5 0 -12 -1 -16 -1 -5 -3 -14 -4 -20 -1 -7 -11 -12 -23 -12
-15 1 -20 -4 -18 -16 3 -17 -28 -55 -44 -55 -3 0 -5 -3 -3 -8 1 -4 -1 -6 -5
-6 -33 5 -59 -21 -54 -54 1 -5 -3 -6 -9 -2 -6 4 -10 50 -10 111 l0 104 103 0
c81 0 104 -3 104 -14z"/>
<path fill="#ffffff" stroke="none" d="M90 76 c0 -2 -8 -10 -17 -17 -16 -13
-17 -12 -4 4 13 16 21 21 21 13z"/>
<path fill="#000000" stroke="none" d="M114 179 c-8 -14 14 -19 25 -6 8 10 7
14 -5 14 -8 0 -17 -4 -20 -8z"/>
<path fill="#000000" stroke="none" d="M245 230 c-3 -5 1 -10 10 -10 9 0 13 5
10 10 -3 6 -8 10 -10 10 -2 0 -7 -4 -10 -10z"/>
</g>
</svg>
