<?xml version="1.0" standalone="no"?>
<!DOCTYPE svg PUBLIC "-//W3C//DTD SVG 20010904//EN"
 "http://www.w3.org/TR/2001/REC-SVG-20010904/DTD/svg10.dtd">
<svg version="1.0" xmlns="http://www.w3.org/2000/svg"
 width="32.000000pt" height="32.000000pt" viewBox="0 0 32.000000 32.000000"
 preserveAspectRatio="xMidYMid meet">
<metadata>
Created by potrace 1.16, written by Peter Selinger 2001-2019
</metadata>
<g transform="translate(0.000000,32.000000) scale(0.100000,-0.100000)"
fill="#000000" stroke="none">
<path fill="#000000" stroke="none" d="M0 160 l0 -160 160 0 160 0 0 160 0
160 -160 0 -160 0 0 -160z"/>
<path fill="#ffffff" stroke="none" d="M168 293 l-137 -4 -4 -137 -3 -137 -2
143 -2 142 143 -2 142 -2 -137 -3z"/>
<path fill="#ffffff" stroke="none" d="M262 205 c7 -33 -40 -73 -81 -70 -17 2
-36 -4 -42 -11 -6 -8 -18 -14 -26 -14 -11 0 -10 6 6 28 20 29 22 46 7 71 -6 9
-5 12 1 8 12 -8 36 16 27 26 -3 3 9 10 27 15 28 8 38 6 55 -10 12 -11 24 -30
26 -43z"/>
<path fill="#ffffff" stroke="none" d="M80 195 c0 -8 -4 -15 -9 -15 -13 0 -22
16 -14 24 11 11 23 6 23 -9z"/>
<path fill="#ffffff" stroke="none" d="M265 90 c-3 -5 -12 -10 -18 -10 -7 0
-6 4 3 10 19 12 23 12 15 0z"/>
</g>
</svg>
