<?xml version="1.0" standalone="no"?>
<!DOCTYPE svg PUBLIC "-//W3C//DTD SVG 20010904//EN"
 "http://www.w3.org/TR/2001/REC-SVG-20010904/DTD/svg10.dtd">
<svg version="1.0" xmlns="http://www.w3.org/2000/svg"
 width="32.000000pt" height="32.000000pt" viewBox="0 0 32.000000 32.000000"
 preserveAspectRatio="xMidYMid meet">
<metadata>
Created by potrace 1.16, written by Peter Selinger 2001-2019
</metadata>
<g transform="translate(0.000000,32.000000) scale(0.100000,-0.100000)"
fill="#000000" stroke="none">
<path fill="#000000" stroke="none" d="M0 160 l0 -160 160 0 160 0 0 160 0
160 -160 0 -160 0 0 -160z"/>
<path fill="#ffffff" stroke="none" d="M300 160 l0 -140 -140 0 -140 0 0 140
0 140 140 0 140 0 0 -140z"/>
<path fill="#000000" stroke="none" d="M30 160 l0 -130 130 0 130 0 0 130 0
130 -130 0 -130 0 0 -130z"/>
<path fill="#ffffff" stroke="none" d="M255 160 l0 -90 -95 0 -95 0 0 90 0 90
95 0 95 0 0 -90z"/>
<path fill="#000000" stroke="none" d="M90 160 l0 -80 70 0 70 0 0 80 0 80
-70 0 -70 0 0 -80z"/>
<path fill="#ffffff" stroke="none" d="M199 216 c12 -15 12 -88 0 -80 -4 2 -9
-6 -11 -18 -4 -33 -52 -33 -56 0 -2 12 -7 20 -11 18 -12 -8 -12 65 0 80 6 8
24 14 39 14 15 0 33 -6 39 -14z"/>
<path fill="#000000" stroke="none" d="M126 181 c-4 -5 -2 -12 3 -15 5 -4 12
-2 15 3 4 5 2 12 -3 15 -5 4 -12 2 -15 -3z"/>
<path fill="#000000" stroke="none" d="M176 181 c-4 -5 -2 -12 3 -15 5 -4 12
-2 15 3 4 5 2 12 -3 15 -5 4 -12 2 -15 -3z"/>
</g>
</svg>
