<?xml version="1.0" standalone="no"?>
<!DOCTYPE svg PUBLIC "-//W3C//DTD SVG 20010904//EN"
 "http://www.w3.org/TR/2001/REC-SVG-20010904/DTD/svg10.dtd">
<svg version="1.0" xmlns="http://www.w3.org/2000/svg"
 width="32.000000pt" height="32.000000pt" viewBox="0 0 32.000000 32.000000"
 preserveAspectRatio="xMidYMid meet">
<metadata>
Created by potrace 1.16, written by Peter Selinger 2001-2019
</metadata>
<g transform="translate(0.000000,32.000000) scale(0.100000,-0.100000)"
fill="#000000" stroke="none">
<path fill="#000000" stroke="none" d="M95 300 c-13 -15 -21 -17 -31 -9 -21
18 -38 0 -19 -21 10 -12 14 -26 10 -43 -4 -14 -2 -34 4 -45 9 -16 7 -21 -9
-25 -24 -6 -28 -55 -5 -63 11 -5 12 -10 3 -24 -9 -14 -9 -22 0 -32 8 -10 8
-18 2 -26 -7 -9 -7 -9 2 -2 14 12 31 13 25 2 -3 -4 9 -8 27 -9 24 -2 34 2 41
20 6 12 18 21 28 21 19 -2 34 37 21 57 -5 9 -2 10 11 5 15 -5 16 -4 5 9 -9 11
-9 15 -1 15 7 0 9 5 5 13 -4 7 -3 9 2 4 9 -9 10 -13 13 -42 0 -8 7 -12 16 -9
27 11 16 -19 -22 -58 l-37 -38 26 0 c15 0 29 6 31 13 4 9 8 8 17 -3 9 -12 13
-12 17 -2 3 9 9 10 18 2 10 -8 14 -1 19 32 5 29 3 44 -6 50 -8 4 -9 8 -2 8 17
0 16 185 -1 200 -10 8 -15 8 -21 -1 -5 -8 -3 -9 6 -4 9 6 11 4 5 -5 -5 -8 -4
-11 1 -7 5 3 10 -3 10 -14 0 -10 -1 -19 -1 -19 -1 0 -12 14 -24 31 -13 18 -19
29 -12 25 6 -4 11 -2 11 3 0 16 -16 13 -30 -4 -10 -12 -15 -13 -28 -3 -8 7
-17 12 -19 11 -1 -2 -5 -2 -8 -2 -19 5 -32 4 -46 -2 -9 -5 -20 -4 -26 2 -6 6
-16 2 -28 -11z"/>
<path fill="#ffffff" stroke="none" d="M120 306 c0 -2 -8 -10 -17 -17 -16 -13
-17 -12 -4 4 13 16 21 21 21 13z"/>
<path fill="#ffffff" stroke="none" d="M198 285 c22 5 20 2 -13 -17 -38 -22
-57 -48 -35 -48 7 0 7 -7 -1 -21 -7 -14 -17 -19 -30 -16 -10 3 -19 1 -19 -4 0
-5 8 -9 18 -10 14 0 14 -2 -3 -8 -25 -11 -34 -6 -31 17 2 9 10 17 19 17 9 0
17 5 18 10 0 6 5 15 10 22 13 14 -3 24 -20 13 -8 -4 -10 -14 -7 -21 4 -8 0 -5
-8 5 -16 19 -16 19 -16 -2 0 -12 -4 -22 -10 -22 -15 0 -12 26 6 41 14 11 12
14 -11 27 -15 7 -25 16 -22 18 2 3 18 -3 34 -13 25 -14 36 -15 64 -5 27 9 28
11 6 6 -24 -4 -27 -3 -15 10 7 7 16 12 21 9 4 -2 8 2 8 9 1 7 3 5 6 -5 3 -13
11 -16 31 -12z"/>
<path fill="#ffffff" stroke="none" d="M265 228 c20 -9 26 -18 22 -35 -3 -19
-2 -21 9 -12 21 17 17 -5 -6 -32 l-19 -24 -2 25 c-2 14 -3 33 -4 42 0 9 -5 21
-9 25 -5 4 -6 2 -2 -5 9 -16 -22 -28 -36 -14 -8 8 -8 15 2 27 15 18 13 18 45
3z"/>
<path fill="#ffffff" stroke="none" d="M169 169 c-22 -14 -33 -10 -19 6 7 8
17 12 22 9 6 -4 5 -10 -3 -15z"/>
<path fill="#ffffff" stroke="none" d="M260 142 c0 -15 -2 -15 -10 -2 -13 20
-13 33 0 25 6 -3 10 -14 10 -23z"/>
<path fill="#ffffff" stroke="none" d="M73 137 c4 3 7 -1 7 -11 0 -9 -4 -14
-10 -11 -5 3 -10 1 -10 -5 0 -6 -4 -8 -10 -5 -5 3 -10 15 -10 27 0 16 3 18 13
9 8 -6 17 -8 20 -4z"/>
<path fill="#ffffff" stroke="none" d="M155 140 c3 -6 -1 -7 -9 -4 -18 7 -21
14 -7 14 6 0 13 -4 16 -10z"/>
<path fill="#ffffff" stroke="none" d="M110 130 c0 -5 -4 -10 -10 -10 -5 0
-10 5 -10 10 0 6 5 10 10 10 6 0 10 -4 10 -10z"/>
<path fill="#ffffff" stroke="none" d="M146 119 c9 -15 -27 -62 -50 -65 -11
-1 -23 -8 -27 -16 -6 -9 -10 -8 -15 7 -6 14 2 26 31 52 41 36 50 39 61 22z"/>
<path fill="#ffffff" stroke="none" d="M283 103 c-4 -10 -9 -11 -19 -2 -19 15
-18 18 5 16 11 -1 17 -6 14 -14z"/>
<path fill="#ffffff" stroke="none" d="M278 58 c-3 -7 -13 -15 -24 -17 -16 -3
-17 -1 -5 13 16 19 34 21 29 4z"/>
</g>
</svg>
