<?xml version="1.0" standalone="no"?>
<!DOCTYPE svg PUBLIC "-//W3C//DTD SVG 20010904//EN"
 "http://www.w3.org/TR/2001/REC-SVG-20010904/DTD/svg10.dtd">
<svg version="1.0" xmlns="http://www.w3.org/2000/svg"
 width="32.000000pt" height="32.000000pt" viewBox="0 0 32.000000 32.000000"
 preserveAspectRatio="xMidYMid meet">
<metadata>
Created by potrace 1.16, written by Peter Selinger 2001-2019
</metadata>
<g transform="translate(0.000000,32.000000) scale(0.100000,-0.100000)"
fill="#000000" stroke="none">
<path fill="#000000" stroke="none" d="M170 296 c0 -2 8 -10 18 -17 15 -13 16
-12 3 4 -13 16 -21 21 -21 13z"/>
<path fill="#000000" stroke="none" d="M20 274 c0 -2 9 -8 20 -14 11 -6 20 -7
20 -2 0 6 -9 12 -20 15 -11 3 -20 3 -20 1z"/>
<path fill="#000000" stroke="none" d="M253 266 c1 -6 -3 -10 -10 -11 -18 0
-28 -15 -11 -15 9 0 26 8 38 18 21 17 21 18 2 18 -11 0 -20 -5 -19 -10z"/>
<path fill="#000000" stroke="none" d="M150 260 c0 -6 -5 -8 -12 -4 -7 4 -8 3
-4 -4 4 -7 1 -12 -7 -12 -17 0 -38 -22 -41 -43 -1 -8 -7 -22 -14 -30 -7 -8 -9
-23 -5 -32 5 -15 3 -17 -11 -12 -10 4 -15 3 -11 -3 3 -6 13 -10 21 -10 8 0 14
-10 15 -22 0 -22 1 -22 8 -3 5 11 4 25 -1 33 -6 6 -7 12 -2 12 4 0 3 5 -3 11
-9 9 -8 15 3 26 8 8 14 24 14 36 0 18 2 19 10 7 5 -8 10 -10 10 -5 0 6 5 2 11
-8 8 -14 7 -23 -3 -35 -12 -15 -14 -25 -9 -55 0 -4 10 -3 21 3 16 9 20 8 20
-5 0 -9 5 -13 10 -10 6 3 10 0 10 -7 0 -9 3 -9 10 2 13 20 13 33 0 25 -5 -3
-10 -1 -10 4 0 6 3 11 8 11 10 0 39 -20 28 -20 -5 0 -3 -7 4 -15 14 -17 45
-21 35 -5 -4 6 -10 8 -15 5 -18 -11 -20 14 -2 27 18 12 28 53 10 42 -5 -3 -6
-9 -3 -14 3 -5 1 -11 -3 -14 -13 -8 -53 51 -46 68 4 10 1 16 -9 16 -19 0 -39
-24 -29 -35 4 -5 1 -5 -6 -1 -7 4 -10 12 -7 17 4 5 -4 13 -16 17 l-23 9 25 7
c42 14 49 14 43 5 -3 -5 0 -9 5 -9 18 0 12 19 -9 30 -14 8 -20 8 -20 0z"/>
<path fill="#ffffff" stroke="none" d="M185 200 c-3 -6 3 -24 15 -40 12 -17
17 -30 12 -30 -15 0 -44 50 -38 66 3 8 8 14 11 14 4 0 3 -5 0 -10z"/>
<path fill="#ffffff" stroke="none" d="M175 151 c0 -8 -9 -17 -21 -22 -18 -6
-21 -4 -19 14 3 30 3 29 23 25 9 -2 17 -9 17 -17z"/>
<path fill="#000000" stroke="none" d="M148 143 c7 -3 16 -2 19 1 4 3 -2 6
-13 5 -11 0 -14 -3 -6 -6z"/>
<path fill="#000000" stroke="none" d="M29 234 c-16 -20 -9 -23 19 -9 18 10
20 14 8 18 -8 3 -20 -1 -27 -9z"/>
<path fill="#000000" stroke="none" d="M146 231 c-4 -5 -2 -12 3 -15 5 -4 12
-2 15 3 4 5 2 12 -3 15 -5 4 -12 2 -15 -3z"/>
<path fill="#000000" stroke="none" d="M60 70 c6 -11 13 -20 16 -20 2 0 0 9
-6 20 -6 11 -13 20 -16 20 -2 0 0 -9 6 -20z"/>
<path fill="#000000" stroke="none" d="M174 58 c-5 -7 -3 -8 6 -3 10 6 12 4 6
-10 -5 -14 -4 -16 7 -7 8 7 18 8 23 4 4 -4 2 1 -5 11 -16 20 -27 22 -37 5z"/>
<path fill="#000000" stroke="none" d="M54 42 c15 -17 22 -19 33 -11 17 15 17
20 -2 13 -8 -4 -23 0 -33 7 -14 11 -13 9 2 -9z"/>
<path fill="#000000" stroke="none" d="M116 37 c3 -10 9 -15 12 -12 3 3 0 11
-7 18 -10 9 -11 8 -5 -6z"/>
</g>
</svg>
