<?xml version="1.0" standalone="no"?>
<!DOCTYPE svg PUBLIC "-//W3C//DTD SVG 20010904//EN"
 "http://www.w3.org/TR/2001/REC-SVG-20010904/DTD/svg10.dtd">
<svg version="1.0" xmlns="http://www.w3.org/2000/svg"
 width="32.000000pt" height="32.000000pt" viewBox="0 0 32.000000 32.000000"
 preserveAspectRatio="xMidYMid meet">
<metadata>
Created by potrace 1.16, written by Peter Selinger 2001-2019
</metadata>
<g transform="translate(0.000000,32.000000) scale(0.100000,-0.100000)"
fill="#000000" stroke="none">
<path fill="#000000" stroke="none" d="M0 160 l0 -160 160 0 160 0 0 160 0
160 -160 0 -160 0 0 -160z"/>
<path fill="#ffffff" stroke="none" d="M56 246 c1 -9 -2 -14 -6 -11 -5 3 -13
-3 -19 -12 -6 -10 -11 -13 -11 -7 0 6 7 17 15 24 13 11 13 14 -2 27 -17 13
-17 14 1 5 11 -5 21 -17 22 -26z"/>
<path fill="#ffffff" stroke="none" d="M264 256 c-22 -12 -49 -18 -39 -8 4 4
12 7 18 7 7 1 11 6 10 13 -2 7 4 9 13 5 14 -5 14 -7 -2 -17z"/>
<path fill="#ffffff" stroke="none" d="M97 200 c-2 -11 -9 -26 -15 -32 -8 -8
-9 -15 -1 -25 7 -7 8 -13 4 -13 -4 0 -3 -6 3 -12 6 -8 6 -21 1 -33 -8 -18 -8
-17 -6 5 2 20 -2 24 -18 22 -20 -3 -20 -3 -1 11 14 10 16 16 7 21 -9 6 -8 13
6 28 10 11 17 22 16 24 -5 7 -3 24 2 24 3 0 3 -9 2 -20z"/>
<path fill="#ffffff" stroke="none" d="M256 155 c-1 -8 -10 -23 -21 -35 -10
-11 -15 -21 -12 -21 4 -1 11 -2 16 -3 5 0 12 -4 16 -8 9 -9 -17 -5 -33 6 -10
6 -11 11 -3 19 8 8 6 17 -7 31 -17 21 -17 21 6 2 12 -11 23 -16 23 -13 1 4 3
12 4 17 1 6 3 12 4 15 3 12 9 4 7 -10z"/>
<path fill="#ffffff" stroke="none" d="M83 37 c4 3 7 4 7 0 0 -17 -20 -14 -36
6 -19 22 -19 22 2 4 11 -9 24 -14 27 -10z"/>
<path fill="#ffffff" stroke="none" d="M216 48 c4 -7 4 -10 -1 -6 -4 4 -15 2
-24 -5 -14 -11 -14 -10 -2 6 16 20 18 21 27 5z"/>
</g>
</svg>
