<?xml version="1.0" standalone="no"?>
<!DOCTYPE svg PUBLIC "-//W3C//DTD SVG 20010904//EN"
 "http://www.w3.org/TR/2001/REC-SVG-20010904/DTD/svg10.dtd">
<svg version="1.0" xmlns="http://www.w3.org/2000/svg"
 width="32.000000pt" height="32.000000pt" viewBox="0 0 32.000000 32.000000"
 preserveAspectRatio="xMidYMid meet">
<metadata>
Created by potrace 1.16, written by Peter Selinger 2001-2019
</metadata>
<g transform="translate(0.000000,32.000000) scale(0.100000,-0.100000)"
fill="#000000" stroke="none">
<path fill="#000000" stroke="none" d="M105 240 c-3 -6 1 -17 9 -26 9 -9 16
-11 16 -4 0 6 5 8 12 4 7 -4 8 -3 4 4 -4 7 -14 12 -22 12 -8 0 -12 5 -9 10 3
6 4 10 1 10 -3 0 -8 -5 -11 -10z"/>
<path fill="#000000" stroke="none" d="M163 235 c0 -8 4 -15 9 -15 4 0 8 4 8
9 0 6 -4 12 -8 15 -5 3 -9 -1 -9 -9z"/>
<path fill="#000000" stroke="none" d="M130 184 c0 -1 6 -7 14 -13 10 -9 15
-8 19 2 3 8 -3 13 -14 13 -11 0 -19 -1 -19 -2z"/>
</g>
</svg>
