<?xml version="1.0" standalone="no"?>
<!DOCTYPE svg PUBLIC "-//W3C//DTD SVG 20010904//EN"
 "http://www.w3.org/TR/2001/REC-SVG-20010904/DTD/svg10.dtd">
<svg version="1.0" xmlns="http://www.w3.org/2000/svg"
 width="32.000000pt" height="32.000000pt" viewBox="0 0 32.000000 32.000000"
 preserveAspectRatio="xMidYMid meet">
<metadata>
Created by potrace 1.16, written by Peter Selinger 2001-2019
</metadata>
<g transform="translate(0.000000,32.000000) scale(0.100000,-0.100000)"
fill="#000000" stroke="none">
<path fill="#000000" stroke="none" d="M100 241 c0 -17 -4 -22 -16 -17 -21 8
-45 -11 -37 -30 3 -8 9 -14 14 -14 4 0 6 6 3 14 -4 10 0 13 13 12 10 -2 24 1
31 7 15 12 15 5 1 -27 -10 -20 -9 -30 4 -50 12 -17 13 -27 6 -32 -6 -4 -15 0
-20 7 -5 8 -9 10 -9 5 0 -6 -7 -1 -15 10 -8 10 -15 13 -15 7 0 -7 9 -18 19
-25 10 -6 17 -17 14 -24 -2 -6 0 -15 6 -19 6 -3 11 1 11 10 0 9 5 13 10 10 6
-3 10 -1 10 6 0 8 5 7 17 -2 15 -12 16 -12 10 4 -3 9 -2 17 4 17 6 0 24 15 40
33 29 31 30 31 25 7 -2 -14 -8 -34 -12 -45 -7 -18 -6 -19 11 -5 17 14 18 14 7
-7 -16 -29 -15 -34 4 -26 23 9 34 45 18 61 -9 8 -11 24 -7 44 6 29 5 30 -17
18 -18 -10 -24 -9 -31 1 -4 8 -3 16 3 20 7 4 6 9 -2 14 -7 4 -15 4 -19 -1 -7
-10 -51 -14 -51 -4 0 3 -7 15 -15 26 -14 18 -14 18 -15 -5z"/>
<path fill="#ffffff" stroke="none" d="M164 159 c-3 -5 -10 -7 -15 -3 -5 3 -7
10 -3 15 3 5 10 7 15 3 5 -3 7 -10 3 -15z"/>
<path fill="#000000" stroke="none" d="M207 253 c-11 -11 -8 -23 6 -23 8 0 14
7 14 15 0 16 -9 19 -20 8z"/>
</g>
</svg>
