<?xml version="1.0" standalone="no"?>
<!DOCTYPE svg PUBLIC "-//W3C//DTD SVG 20010904//EN"
 "http://www.w3.org/TR/2001/REC-SVG-20010904/DTD/svg10.dtd">
<svg version="1.0" xmlns="http://www.w3.org/2000/svg"
 width="32.000000pt" height="32.000000pt" viewBox="0 0 32.000000 32.000000"
 preserveAspectRatio="xMidYMid meet">
<metadata>
Created by potrace 1.16, written by Peter Selinger 2001-2019
</metadata>
<g transform="translate(0.000000,32.000000) scale(0.100000,-0.100000)"
fill="#000000" stroke="none">
<path fill="#000000" stroke="none" d="M110 247 c0 -2 6 -10 14 -16 11 -9 16
-9 22 1 4 7 4 10 -1 6 -4 -4 -14 -3 -22 3 -7 6 -13 9 -13 6z"/>
<path fill="#000000" stroke="none" d="M220 217 c-8 -12 -14 -25 -15 -29 0 -5
-4 -8 -10 -7 -5 0 -12 -9 -17 -20 -4 -12 -15 -21 -23 -21 -10 0 -13 5 -9 12 4
7 3 8 -4 4 -8 -4 -12 0 -12 10 0 15 -2 16 -12 5 -11 -10 -9 -15 6 -27 11 -8
26 -14 33 -14 14 0 54 41 50 51 -1 4 7 16 17 28 11 12 17 23 15 26 -3 2 -11
-6 -19 -18z"/>
<path fill="#000000" stroke="none" d="M165 200 c3 -5 11 -10 16 -10 6 0 7 5
4 10 -3 6 -11 10 -16 10 -6 0 -7 -4 -4 -10z"/>
<path fill="#000000" stroke="none" d="M229 178 c-8 -27 -6 -38 5 -29 7 6 17
7 22 3 4 -4 2 1 -5 11 -12 16 -20 21 -22 15z"/>
</g>
</svg>
