<?xml version="1.0" standalone="no"?>
<!DOCTYPE svg PUBLIC "-//W3C//DTD SVG 20010904//EN"
 "http://www.w3.org/TR/2001/REC-SVG-20010904/DTD/svg10.dtd">
<svg version="1.0" xmlns="http://www.w3.org/2000/svg"
 width="32.000000pt" height="32.000000pt" viewBox="0 0 32.000000 32.000000"
 preserveAspectRatio="xMidYMid meet">
<metadata>
Created by potrace 1.16, written by Peter Selinger 2001-2019
</metadata>
<g transform="translate(0.000000,32.000000) scale(0.100000,-0.100000)"
fill="#000000" stroke="none">
<path fill="#000000" stroke="none" d="M51 253 c-25 -30 -36 -67 -26 -83 5 -8
11 -8 21 1 13 10 18 6 16 -13 -3 -19 26 -26 51 -13 32 16 35 6 7 -20 -17 -15
-18 -25 -11 -64 1 -2 8 2 16 9 8 7 13 16 10 20 -3 5 0 12 6 16 12 7 31 -15 23
-27 -2 -4 4 -6 13 -4 19 3 19 3 9 50 l-7 30 19 -23 c15 -19 20 -21 29 -10 8
10 8 18 -3 32 -7 10 -11 23 -7 29 3 6 1 7 -5 3 -8 -5 -10 -2 -6 8 3 9 1 16 -5
16 -17 0 -13 -19 9 -50 11 -16 16 -31 12 -34 -5 -3 -15 6 -22 20 -17 31 -31
13 -23 -31 5 -29 5 -29 -10 -10 -15 19 -16 19 -36 1 -27 -25 -27 -9 0 20 28
30 17 47 -18 29 -27 -14 -48 -11 -38 5 3 5 11 7 18 4 7 -2 22 5 32 16 16 18
17 20 2 14 -13 -5 -16 -2 -11 10 3 9 2 16 -4 16 -6 0 -9 -11 -8 -25 2 -13 -1
-22 -5 -19 -9 5 -5 52 5 62 7 7 -13 42 -24 42 -5 0 -18 -12 -29 -27z"/>
<path fill="#ffffff" stroke="none" d="M85 233 c-4 -21 -8 -43 -8 -50 0 -7 -4
-10 -9 -7 -5 3 -7 20 -4 37 l6 32 -13 -32 c-15 -40 -27 -52 -27 -27 0 24 36
84 51 84 8 0 9 -12 4 -37z"/>
<path fill="#000000" stroke="none" d="M203 260 c-6 -22 -18 -26 -28 -10 -5 8
-11 7 -21 -1 -10 -8 -18 -9 -27 0 -10 8 -14 7 -14 -5 0 -12 8 -15 34 -12 32 4
46 -6 21 -15 -7 -2 -9 -8 -5 -13 10 -10 47 31 47 52 0 15 18 18 45 8 20 -8 45
-56 44 -86 0 -17 -5 -11 -18 21 -16 41 -46 70 -58 57 -3 -3 6 -19 21 -36 14
-17 26 -37 26 -43 0 -7 -9 3 -20 21 -19 31 -40 43 -40 22 0 -14 51 -62 58 -55
3 3 11 0 18 -6 18 -15 29 11 20 47 -15 58 -91 99 -103 54z"/>
<path fill="#000000" stroke="none" d="M135 56 c-47 -14 -49 -27 -6 -40 35
-10 113 3 111 19 -2 21 -63 33 -105 21z"/>
</g>
</svg>
