<?xml version="1.0" standalone="no"?>
<!DOCTYPE svg PUBLIC "-//W3C//DTD SVG 20010904//EN"
 "http://www.w3.org/TR/2001/REC-SVG-20010904/DTD/svg10.dtd">
<svg version="1.0" xmlns="http://www.w3.org/2000/svg"
 width="32.000000pt" height="32.000000pt" viewBox="0 0 32.000000 32.000000"
 preserveAspectRatio="xMidYMid meet">
<metadata>
Created by potrace 1.16, written by Peter Selinger 2001-2019
</metadata>
<g transform="translate(0.000000,32.000000) scale(0.100000,-0.100000)"
fill="#000000" stroke="none">
<path fill="#000000" stroke="none" d="M51 253 c-25 -30 -36 -67 -26 -83 5 -8
11 -8 21 1 13 10 18 6 16 -13 -3 -19 26 -26 51 -13 32 16 35 6 7 -20 -17 -15
-18 -25 -11 -64 1 -2 8 2 16 9 8 7 13 16 10 20 -3 5 0 12 6 16 12 7 31 -15 23
-27 -2 -4 4 -6 13 -4 19 3 19 3 9 50 l-7 30 19 -23 c15 -19 20 -21 29 -10 8
10 8 18 -3 32 -19 27 -6 40 22 21 13 -8 24 -13 24 -9 0 4 7 1 15 -6 19 -16 30
8 21 46 -15 58 -91 99 -103 54 -6 -22 -18 -26 -28 -10 -5 8 -11 7 -21 -1 -11
-9 -18 -8 -31 2 -14 12 -16 12 -9 -1 4 -8 -1 -5 -10 8 -21 28 -28 28 -53 -5z"/>
<path fill="#ffffff" stroke="none" d="M90 252 c0 -14 9 -19 41 -21 31 -1 39
1 33 11 -6 11 -4 11 7 0 12 -11 12 -14 -1 -22 -8 -5 -11 -13 -6 -17 9 -9 46
33 46 53 0 15 18 18 45 8 19 -8 45 -55 45 -85 0 -18 -2 -19 -15 -9 -8 7 -15
10 -15 6 0 -4 -10 0 -22 7 -20 12 -30 13 -54 8 -3 0 4 -14 15 -30 11 -15 18
-31 14 -35 -3 -3 -13 3 -21 15 -20 29 -34 10 -22 -31 l10 -35 -19 25 c-16 20
-21 22 -35 11 -9 -7 -14 -17 -11 -21 3 -5 2 -11 -3 -14 -17 -10 -9 30 10 51
21 22 16 52 -5 34 -17 -13 -51 -18 -52 -6 -1 24 -17 36 -31 24 -22 -18 -18 19
6 59 22 35 40 42 40 14z"/>
<path fill="#000000" stroke="none" d="M84 171 c15 -14 18 -14 33 1 15 16 14
17 -16 16 -29 -1 -31 -3 -17 -17z"/>
<path fill="#000000" stroke="none" d="M135 56 c-47 -14 -49 -27 -6 -40 35
-10 113 3 111 19 -2 21 -63 33 -105 21z"/>
</g>
</svg>
