<?xml version="1.0" standalone="no"?>
<!DOCTYPE svg PUBLIC "-//W3C//DTD SVG 20010904//EN"
 "http://www.w3.org/TR/2001/REC-SVG-20010904/DTD/svg10.dtd">
<svg version="1.0" xmlns="http://www.w3.org/2000/svg"
 width="32.000000pt" height="32.000000pt" viewBox="0 0 32.000000 32.000000"
 preserveAspectRatio="xMidYMid meet">
<metadata>
Created by potrace 1.16, written by Peter Selinger 2001-2019
</metadata>
<g transform="translate(0.000000,32.000000) scale(0.100000,-0.100000)"
fill="#000000" stroke="none">
<path fill="#000000" stroke="none" d="M109 301 c-1 -3 -1 -10 0 -15 1 -5 -8
-6 -19 -3 -20 5 -20 4 -7 -11 9 -9 16 -20 16 -24 1 -5 1 -9 2 -10 0 -2 1 -20
3 -40 2 -20 8 -43 15 -51 9 -12 3 -17 -34 -31 -86 -33 -79 -91 11 -94 33 -2
43 1 38 10 -5 8 -2 9 10 5 51 -20 65 -19 90 7 42 41 37 63 -41 164 -16 21 -18
29 -8 29 8 0 11 -5 8 -10 -3 -6 -1 -7 6 -3 8 6 9 12 2 20 -6 7 -7 17 -3 21 4
5 1 4 -7 0 -11 -6 -13 -4 -8 8 4 12 2 14 -11 10 -15 -6 -16 -5 -2 12 14 17 14
18 -7 6 -13 -6 -23 -8 -23 -3 0 10 -29 12 -31 3z"/>
<path fill="#ffffff" stroke="none" d="M163 174 c21 5 21 5 3 -9 -22 -17 -40
-20 -31 -6 3 5 1 12 -5 16 -6 4 -7 12 -3 18 5 8 9 6 11 -6 3 -14 10 -17 25
-13z"/>
<path fill="#ffffff" stroke="none" d="M185 140 c3 -5 -2 -10 -12 -10 -14 -1
-13 -4 7 -15 24 -14 24 -14 4 -15 -20 0 -34 17 -34 41 0 12 27 12 35 -1z"/>
<path fill="#ffffff" stroke="none" d="M190 40 c8 -5 11 -10 5 -10 -5 0 -17 5
-25 10 -8 5 -10 10 -5 10 6 0 17 -5 25 -10z"/>
</g>
</svg>
