<?xml version="1.0" standalone="no"?>
<!DOCTYPE svg PUBLIC "-//W3C//DTD SVG 20010904//EN"
 "http://www.w3.org/TR/2001/REC-SVG-20010904/DTD/svg10.dtd">
<svg version="1.0" xmlns="http://www.w3.org/2000/svg"
 width="32.000000pt" height="32.000000pt" viewBox="0 0 32.000000 32.000000"
 preserveAspectRatio="xMidYMid meet">
<metadata>
Created by potrace 1.16, written by Peter Selinger 2001-2019
</metadata>
<g transform="translate(0.000000,32.000000) scale(0.100000,-0.100000)"
fill="#000000" stroke="none">
<path fill="#000000" stroke="none" d="M0 160 l0 -160 118 0 c75 0 112 4 102
9 -8 6 -17 8 -21 6 -3 -3 -14 4 -23 14 -15 17 -15 19 0 32 10 8 20 13 23 11 3
-2 7 1 9 7 5 15 -34 14 -50 -2 -7 -7 -18 -12 -25 -12 -16 0 -30 15 -14 15 8 0
10 7 6 20 -4 11 -2 20 4 20 6 0 11 5 11 10 0 7 -6 7 -19 0 -13 -7 -22 -7 -26
0 -6 9 1 14 18 11 12 -2 8 19 -7 34 -11 12 -15 10 -27 -11 -7 -14 -19 -22 -27
-19 -7 3 -20 5 -28 5 -8 0 -14 7 -14 15 0 18 27 20 33 3 2 -7 14 4 27 25 l23
38 23 -22 24 -23 30 29 c22 21 27 32 20 45 -5 10 -6 20 -3 24 3 3 -1 6 -11 6
-13 0 -15 -4 -7 -17 6 -12 5 -26 -5 -45 -17 -32 -29 -35 -42 -10 -13 24 -7 52
17 76 17 17 25 18 39 9 9 -6 16 -16 14 -22 -1 -6 3 -11 9 -11 5 0 7 -4 4 -10
-3 -5 -1 -10 5 -10 6 0 9 -4 5 -10 -3 -5 9 -17 27 -26 l33 -16 -22 21 c-13 12
-23 25 -23 28 0 4 5 2 12 -5 7 -7 16 -12 20 -12 9 0 5 36 -5 46 -4 4 -7 12 -7
18 0 6 5 3 11 -7 6 -9 14 -15 18 -13 5 3 6 -6 3 -21 -3 -18 -1 -24 6 -19 8 5
10 2 6 -8 -3 -9 -1 -16 6 -16 6 0 9 -3 7 -7 -3 -5 -1 -17 4 -28 5 -13 8 10 8
63 l1 82 -160 0 -160 0 0 -160z"/>
<path fill="#000000" stroke="none" d="M196 202 c-4 -7 -4 -17 0 -24 4 -6 3
-8 -2 -5 -6 3 -16 1 -24 -5 -12 -8 -12 -9 2 -4 22 7 33 -10 12 -18 -8 -3 -13
-10 -9 -15 3 -6 -3 -14 -12 -20 -10 -5 -14 -13 -9 -18 5 -4 11 -3 13 3 4 13
50 6 60 -9 3 -5 -2 -16 -11 -23 -18 -13 -14 -34 5 -34 6 0 7 4 4 10 -3 6 1 7
9 4 9 -3 13 -11 9 -17 -4 -6 2 -8 16 -4 18 4 20 3 10 -9 -9 -12 -6 -14 20 -14
l31 0 -1 73 c0 48 -3 65 -9 52 -4 -12 -15 -27 -24 -35 -15 -12 -20 -11 -38 7
-13 14 -17 26 -12 34 5 8 10 22 11 32 3 15 -2 19 -24 16 -4 0 -10 7 -13 17 -5
12 -9 14 -14 6z"/>
<path fill="#ffffff" stroke="none" d="M215 140 c-10 -11 -22 -17 -27 -14 -4
3 2 14 14 24 29 23 37 17 13 -10z"/>
</g>
</svg>
