<?xml version="1.0" standalone="no"?>
<!DOCTYPE svg PUBLIC "-//W3C//DTD SVG 20010904//EN"
 "http://www.w3.org/TR/2001/REC-SVG-20010904/DTD/svg10.dtd">
<svg version="1.0" xmlns="http://www.w3.org/2000/svg"
 width="32.000000pt" height="32.000000pt" viewBox="0 0 32.000000 32.000000"
 preserveAspectRatio="xMidYMid meet">
<metadata>
Created by potrace 1.16, written by Peter Selinger 2001-2019
</metadata>
<g transform="translate(0.000000,32.000000) scale(0.100000,-0.100000)"
fill="#000000" stroke="none">
<path fill="#000000" stroke="none" d="M131 284 c-11 -15 -18 -30 -15 -35 3
-5 -2 -12 -11 -15 -9 -4 -22 -19 -31 -35 -12 -24 -19 -28 -39 -23 -18 5 -25 2
-25 -9 0 -24 60 -34 76 -13 7 10 15 13 18 7 4 -5 2 -12 -4 -16 -14 -9 -3 -25
13 -19 7 2 13 -6 13 -21 1 -14 -3 -25 -9 -25 -15 0 0 -13 18 -16 8 -1 15 2 15
7 0 6 5 7 11 4 6 -4 8 -13 5 -20 -5 -14 16 -37 38 -42 6 -1 20 -5 32 -8 12 -4
25 -1 33 9 10 12 9 14 -10 9 -14 -4 -20 -2 -16 4 4 6 0 14 -9 17 -24 9 -31 7
-14 -4 9 -6 10 -10 3 -10 -19 0 -24 17 -8 30 21 18 19 29 -10 40 -14 5 -25 15
-25 21 0 7 3 9 7 6 8 -8 43 22 43 36 0 6 -10 2 -21 -9 -22 -19 -22 -19 -10 3
15 29 27 35 38 20 11 -14 11 -27 -1 -46 -6 -8 -1 -20 13 -34 l21 -21 22 21
c20 20 23 39 16 98 -1 8 -6 15 -11 15 -5 0 -6 7 -3 16 4 10 2 13 -6 8 -7 -5
-9 1 -6 19 3 15 2 24 -3 21 -4 -2 -12 4 -18 13 -6 10 -11 13 -11 7 0 -6 3 -14
7 -18 10 -10 14 -46 5 -46 -4 0 -13 5 -20 12 -7 7 -12 9 -12 5 0 -3 10 -16 23
-28 l22 -21 -33 16 c-18 9 -30 20 -28 25 8 12 -32 71 -48 71 -8 0 -24 -12 -35
-26z"/>
<path fill="#ffffff" stroke="none" d="M188 265 c6 -14 8 -25 3 -25 -4 0 -13
11 -19 25 -6 14 -8 25 -3 25 4 0 13 -11 19 -25z"/>
<path fill="#ffffff" stroke="none" d="M210 80 c0 -5 -4 -10 -10 -10 -5 0 -10
5 -10 10 0 6 5 10 10 10 6 0 10 -4 10 -10z"/>
</g>
</svg>
