<?xml version="1.0" standalone="no"?>
<!DOCTYPE svg PUBLIC "-//W3C//DTD SVG 20010904//EN"
 "http://www.w3.org/TR/2001/REC-SVG-20010904/DTD/svg10.dtd">
<svg version="1.0" xmlns="http://www.w3.org/2000/svg"
 width="32.000000pt" height="32.000000pt" viewBox="0 0 32.000000 32.000000"
 preserveAspectRatio="xMidYMid meet">
<metadata>
Created by potrace 1.16, written by Peter Selinger 2001-2019
</metadata>
<g transform="translate(0.000000,32.000000) scale(0.100000,-0.100000)"
fill="#000000" stroke="none">
<path fill="#000000" stroke="none" d="M0 160 l0 -160 159 0 159 0 1 160 0
160 -126 -1 c-121 0 -125 -1 -108 -19 12 -13 13 -20 5 -25 -18 -11 -50 -86
-50 -119 0 -22 4 -27 16 -22 13 5 14 4 6 -7 -7 -8 -8 -18 -4 -22 4 -5 1 -5 -5
-1 -8 4 -13 2 -14 -6 0 -7 -5 -3 -11 9 -17 35 -1 109 32 147 27 31 30 46 8 46
-5 0 -7 -4 -4 -9 4 -5 -3 -7 -15 -4 -12 4 -25 0 -30 -8 -5 -8 -9 -9 -9 -3 0
18 28 37 41 28 8 -4 9 -3 5 4 -4 7 -18 12 -32 12 l-24 0 0 -160z"/>
<path fill="#ffffff" stroke="none" d="M253 298 c14 -12 13 -15 -10 -32 -24
-18 -26 -18 -20 -2 5 13 1 19 -15 24 -21 5 -21 6 -2 13 27 11 28 11 47 -3z"/>
<path fill="#ffffff" stroke="none" d="M177 268 c-3 -8 -6 -5 -6 6 -1 11 2 17
5 13 3 -3 4 -12 1 -19z"/>
<path fill="#ffffff" stroke="none" d="M143 266 c4 -10 1 -13 -8 -10 -7 3 -19
-4 -25 -16 -6 -12 -14 -19 -17 -16 -7 7 25 56 36 56 5 0 11 -7 14 -14z"/>
<path fill="#ffffff" stroke="none" d="M307 228 c-3 -8 -6 -5 -6 6 -1 11 2 17
5 13 3 -3 4 -12 1 -19z"/>
<path fill="#ffffff" stroke="none" d="M282 208 c-8 -8 -9 -4 -5 13 4 13 8 18
11 10 2 -7 -1 -18 -6 -23z"/>
<path fill="#ffffff" stroke="none" d="M181 213 c12 -16 12 -17 -1 -7 -8 6
-22 14 -30 17 -13 5 -12 6 1 6 9 1 23 -7 30 -16z"/>
<path fill="#ffffff" stroke="none" d="M130 155 c14 -19 14 -19 -2 -6 -10 7
-18 18 -18 24 0 6 1 8 3 6 1 -2 9 -13 17 -24z"/>
<path fill="#ffffff" stroke="none" d="M307 136 c-1 -19 -4 -33 -6 -31 -2 2
-14 -9 -28 -26 -14 -16 -29 -29 -35 -29 -5 0 2 14 17 32 19 22 26 40 23 60 -4
22 -1 28 13 28 14 0 17 -8 16 -34z"/>
<path fill="#ffffff" stroke="none" d="M86 122 c-18 -16 -18 -16 -6 6 6 13 14
21 18 18 3 -4 -2 -14 -12 -24z"/>
<path fill="#ffffff" stroke="none" d="M270 141 c0 -6 -5 -13 -12 -17 -6 -4
-8 -3 -4 4 3 5 0 13 -6 15 -8 3 -6 6 5 6 9 1 17 -3 17 -8z"/>
<path fill="#ffffff" stroke="none" d="M190 125 c-7 -8 -17 -15 -23 -15 -6 0
-2 7 9 15 25 19 30 19 14 0z"/>
<path fill="#ffffff" stroke="none" d="M230 98 c-8 -7 -12 -9 -8 -4 4 5 2 18
-4 30 -10 20 -10 20 8 4 16 -15 16 -20 4 -30z"/>
<path fill="#ffffff" stroke="none" d="M126 83 c22 -14 27 -14 35 -2 7 11 9 9
9 -8 0 -30 -22 -29 -57 2 -32 28 -24 33 13 8z"/>
<path fill="#ffffff" stroke="none" d="M200 55 c0 -5 -5 -3 -10 5 -5 8 -10 20
-10 25 0 6 5 3 10 -5 5 -8 10 -19 10 -25z"/>
<path fill="#ffffff" stroke="none" d="M113 38 c12 10 16 9 21 -3 3 -9 2 -13
-4 -10 -6 3 -10 1 -10 -4 0 -17 -15 -13 -41 9 -21 19 -22 20 -2 9 17 -10 25
-10 36 -1z"/>
<path fill="#ffffff" stroke="none" d="M276 35 c-11 -8 -27 -15 -35 -15 -9 1
-2 7 14 15 39 18 44 18 21 0z"/>
<path fill="#ffffff" stroke="none" d="M174 28 c-7 -10 -24 -10 -24 0 0 5 7 9
15 9 8 0 12 -4 9 -9z"/>
<path fill="#000000" stroke="none" d="M220 296 c0 -2 7 -7 16 -10 8 -3 12 -2
9 4 -6 10 -25 14 -25 6z"/>
</g>
</svg>
