<?xml version="1.0" standalone="no"?>
<!DOCTYPE svg PUBLIC "-//W3C//DTD SVG 20010904//EN"
 "http://www.w3.org/TR/2001/REC-SVG-20010904/DTD/svg10.dtd">
<svg version="1.0" xmlns="http://www.w3.org/2000/svg"
 width="32.000000pt" height="32.000000pt" viewBox="0 0 32.000000 32.000000"
 preserveAspectRatio="xMidYMid meet">
<metadata>
Created by potrace 1.16, written by Peter Selinger 2001-2019
</metadata>
<g transform="translate(0.000000,32.000000) scale(0.100000,-0.100000)"
fill="#000000" stroke="none">
<path fill="#000000" stroke="none" d="M0 159 l0 -159 159 0 159 0 1 160 0
160 -70 0 c-48 0 -68 -3 -63 -11 3 -6 16 -8 28 -5 13 3 30 0 39 -7 14 -11 13
-14 -10 -31 -23 -17 -26 -18 -20 -2 5 12 0 19 -17 26 -13 5 -27 14 -31 19 -3
6 -29 11 -57 11 -50 0 -51 -1 -34 -19 11 -12 14 -21 7 -26 -6 -3 -20 -25 -30
-48 -14 -31 -16 -44 -8 -49 9 -6 9 -8 0 -8 -7 0 -13 -9 -13 -21 0 -11 5 -17
10 -14 6 4 7 12 4 18 -5 9 -3 9 6 0 10 -9 10 -15 2 -26 -7 -8 -8 -18 -4 -22 4
-5 1 -5 -5 -1 -8 4 -13 2 -13 -6 -1 -22 -18 14 -21 42 -1 14 1 34 5 45 4 11
12 31 17 45 8 22 8 23 -4 8 -8 -10 -18 -18 -22 -18 -5 0 0 9 10 20 9 10 22 18
27 17 6 -1 12 3 15 10 6 17 -38 28 -48 12 -6 -10 -8 -8 -7 7 2 25 26 27 51 6
9 -8 20 -13 23 -9 8 8 -36 31 -63 34 -23 2 -23 2 -23 -158z"/>
<path fill="#ffffff" stroke="none" d="M157 288 c-3 -8 -6 -5 -6 6 -1 11 2 17
5 13 3 -3 4 -12 1 -19z"/>
<path fill="#ffffff" stroke="none" d="M150 254 c0 -2 -6 -1 -14 2 -8 3 -19
-4 -26 -16 -6 -12 -14 -19 -17 -17 -2 3 1 16 8 29 7 12 12 30 10 38 -2 9 6 5
18 -9 12 -13 21 -25 21 -27z"/>
<path fill="#ffffff" stroke="none" d="M170 253 c-11 -17 -11 -17 -6 0 3 10 6
24 7 30 0 9 2 9 5 0 3 -7 0 -20 -6 -30z"/>
<path fill="#ffffff" stroke="none" d="M203 265 c-3 -9 -8 -14 -10 -11 -3 3
-2 9 2 15 9 16 15 13 8 -4z"/>
<path fill="#ffffff" stroke="none" d="M307 228 c-3 -8 -6 -5 -6 6 -1 11 2 17
5 13 3 -3 4 -12 1 -19z"/>
<path fill="#ffffff" stroke="none" d="M290 226 c0 -8 -4 -17 -8 -20 -4 -2 -8
4 -8 15 0 10 4 19 8 19 4 0 8 -6 8 -14z"/>
<path fill="#ffffff" stroke="none" d="M181 213 c13 -16 12 -17 -3 -5 -9 8
-22 11 -28 7 -5 -3 -10 -1 -10 4 0 17 26 13 41 -6z"/>
<path fill="#ffffff" stroke="none" d="M135 150 l20 -25 -22 19 c-13 11 -23
24 -23 29 0 6 1 8 3 6 1 -2 11 -15 22 -29z"/>
<path fill="#ffffff" stroke="none" d="M290 170 c15 0 18 -7 17 -34 -1 -19 -4
-33 -6 -31 -2 2 -14 -9 -28 -26 -14 -16 -29 -29 -35 -29 -5 0 2 14 16 31 28
33 35 79 12 79 -8 0 -18 5 -22 12 -5 8 -2 9 10 5 10 -4 26 -7 36 -7z"/>
<path fill="#ffffff" stroke="none" d="M91 127 c-9 -12 -7 -18 11 -29 36 -23
56 -28 62 -15 4 7 4 -3 1 -22 -4 -29 -3 -32 10 -21 9 8 13 21 10 34 -5 19 -5
19 5 3 9 -15 8 -22 -6 -38 -20 -23 -34 -25 -34 -5 0 8 -5 18 -12 22 -8 5 -9 0
-6 -14 4 -12 2 -20 -3 -16 -5 3 -9 0 -9 -5 0 -17 -17 -13 -42 11 -13 13 -19
20 -14 15 15 -11 28 -8 20 5 -4 7 -3 8 5 4 6 -4 8 -12 5 -18 -4 -6 -1 -9 7 -6
18 6 18 44 1 40 -8 -1 -11 2 -8 7 3 5 -1 14 -9 21 -11 9 -12 17 -4 32 6 11 13
17 16 14 3 -3 1 -12 -6 -19z"/>
<path fill="#ffffff" stroke="none" d="M270 141 c0 -6 -5 -13 -12 -17 -6 -4
-8 -3 -4 4 3 5 0 13 -6 15 -8 3 -6 6 5 6 9 1 17 -3 17 -8z"/>
<path fill="#ffffff" stroke="none" d="M190 125 c-7 -8 -17 -15 -23 -15 -6 0
-2 7 9 15 25 19 30 19 14 0z"/>
<path fill="#ffffff" stroke="none" d="M237 100 c-1 -10 -5 -16 -9 -14 -5 3
-6 9 -3 14 3 5 1 11 -5 15 -5 3 -10 11 -10 17 0 7 5 6 14 -1 8 -7 14 -21 13
-31z"/>
<path fill="#ffffff" stroke="none" d="M276 35 c-23 -17 -50 -20 -41 -5 4 6
10 8 14 6 4 -3 13 -1 21 5 23 14 27 10 6 -6z"/>
<path fill="#000000" stroke="none" d="M220 296 c0 -2 7 -7 16 -10 8 -3 12 -2
9 4 -6 10 -25 14 -25 6z"/>
</g>
</svg>
