<?xml version="1.0" standalone="no"?>
<!DOCTYPE svg PUBLIC "-//W3C//DTD SVG 20010904//EN"
 "http://www.w3.org/TR/2001/REC-SVG-20010904/DTD/svg10.dtd">
<svg version="1.0" xmlns="http://www.w3.org/2000/svg"
 width="32.000000pt" height="32.000000pt" viewBox="0 0 32.000000 32.000000"
 preserveAspectRatio="xMidYMid meet">
<metadata>
Created by potrace 1.16, written by Peter Selinger 2001-2019
</metadata>
<g transform="translate(0.000000,32.000000) scale(0.100000,-0.100000)"
fill="#000000" stroke="none">
<path fill="#000000" stroke="none" d="M0 160 l0 -160 160 0 160 0 -1 160 0
160 -125 0 c-97 0 -131 -4 -152 -16 -25 -15 -25 -15 -8 0 19 16 19 16 -7 16
l-27 0 0 -160z"/>
<path fill="#ffffff" stroke="none" d="M224 299 c-4 -7 0 -9 14 -5 11 4 23 2
27 -3 4 -7 -1 -8 -11 -4 -11 4 -15 3 -11 -4 5 -8 -2 -8 -23 0 -26 10 -28 13
-13 19 25 9 25 9 17 -3z"/>
<path fill="#ffffff" stroke="none" d="M70 247 c-36 -50 -46 -115 -21 -135 9
-7 10 -11 4 -7 -7 3 -13 0 -14 -7 0 -7 -5 -3 -11 9 -17 36 -1 109 34 148 41
47 44 44 8 -8z"/>
<path fill="#ffffff" stroke="none" d="M140 270 c0 -5 -4 -9 -9 -7 -5 1 -17
-7 -26 -18 -17 -20 -10 0 8 23 11 14 27 16 27 2z"/>
<path fill="#ffffff" stroke="none" d="M174 221 c4 -5 -3 -7 -14 -4 -23 6 -26
13 -6 13 8 0 17 -4 20 -9z"/>
<path fill="#ffffff" stroke="none" d="M281 207 c-10 -9 -11 -8 -5 6 3 10 9
15 12 12 3 -3 0 -11 -7 -18z"/>
<path fill="#ffffff" stroke="none" d="M310 160 c0 -31 -52 -110 -74 -110 -5
0 2 13 17 28 15 15 30 42 33 60 6 29 24 46 24 22z"/>
<path fill="#ffffff" stroke="none" d="M261 127 c-10 -9 -11 -8 -5 6 3 10 9
15 12 12 3 -3 0 -11 -7 -18z"/>
<path fill="#ffffff" stroke="none" d="M100 136 c0 -2 -8 -10 -17 -17 -16 -13
-17 -12 -4 4 13 16 21 21 21 13z"/>
<path fill="#ffffff" stroke="none" d="M231 97 c-10 -9 -11 -8 -5 6 3 10 9 15
12 12 3 -3 0 -11 -7 -18z"/>
<path fill="#ffffff" stroke="none" d="M111 83 c13 -16 12 -17 -3 -4 -10 7
-18 15 -18 17 0 8 8 3 21 -13z"/>
<path fill="#ffffff" stroke="none" d="M167 54 c-2 -2 -12 -1 -22 3 -18 6 -18
7 1 13 17 7 33 -5 21 -16z"/>
<path fill="#ffffff" stroke="none" d="M113 27 c4 3 7 1 7 -5 0 -18 -15 -15
-41 9 l-24 20 26 -15 c14 -9 29 -13 32 -9z"/>
<path fill="#ffffff" stroke="none" d="M175 30 c-3 -5 -12 -10 -18 -10 -7 0
-6 4 3 10 19 12 23 12 15 0z"/>
<path fill="#ffffff" stroke="none" d="M270 30 c-8 -5 -22 -9 -30 -9 -10 0 -8
3 5 9 27 12 43 12 25 0z"/>
</g>
</svg>
