<?xml version="1.0" standalone="no"?>
<!DOCTYPE svg PUBLIC "-//W3C//DTD SVG 20010904//EN"
 "http://www.w3.org/TR/2001/REC-SVG-20010904/DTD/svg10.dtd">
<svg version="1.0" xmlns="http://www.w3.org/2000/svg"
 width="32.000000pt" height="32.000000pt" viewBox="0 0 32.000000 32.000000"
 preserveAspectRatio="xMidYMid meet">
<metadata>
Created by potrace 1.16, written by Peter Selinger 2001-2019
</metadata>
<g transform="translate(0.000000,32.000000) scale(0.100000,-0.100000)"
fill="#000000" stroke="none">
<path fill="#000000" stroke="none" d="M0 160 c0 -88 4 -160 9 -160 15 0 33
28 26 40 -4 6 -3 19 1 28 11 27 12 52 1 59 -6 4 -7 1 -2 -7 5 -8 3 -11 -6 -8
-24 8 -22 39 4 66 13 15 27 35 30 45 4 9 13 17 22 17 18 0 19 -11 3 -30 -7 -7
-1 -5 13 6 15 10 25 22 23 26 -2 3 -2 13 2 21 5 15 50 17 72 3 7 -4 12 -2 12
3 0 6 9 11 20 11 10 0 24 8 29 18 9 15 10 15 11 1 0 -20 -21 -38 -50 -44 -12
-2 -28 -9 -34 -14 -9 -7 -17 -7 -26 2 -11 9 -10 7 0 -7 14 -18 13 -19 -2 -13
-15 5 -16 4 -6 -13 12 -19 13 -19 20 -1 3 10 13 22 20 26 10 6 11 5 1 -6 -17
-18 -16 -36 2 -36 8 0 13 2 10 5 -8 9 25 33 36 26 8 -4 9 -3 5 4 -14 23 13 11
33 -14 29 -37 26 -63 -11 -101 -28 -29 -33 -31 -43 -16 -9 13 -9 22 3 45 11
23 12 32 3 41 -9 9 -11 8 -6 -5 4 -11 2 -18 -5 -18 -6 0 -8 -5 -5 -10 4 -6 2
-16 -3 -23 -5 -7 -8 -21 -6 -32 1 -10 -3 -26 -9 -34 -10 -12 -9 -13 3 -6 13 8
13 7 1 -8 -20 -25 -91 -22 -125 4 l-27 21 19 -33 19 -34 116 -1 117 0 0 158 0
158 -160 0 -160 0 0 -160z"/>
<path fill="#ffffff" stroke="none" d="M86 280 c39 0 44 -23 6 -28 -31 -5 -62
16 -62 41 1 20 2 20 11 5 6 -12 22 -18 45 -18z"/>
<path fill="#ffffff" stroke="none" d="M272 55 c-9 -19 -9 -25 1 -25 7 0 5 -5
-5 -10 -10 -6 -25 -7 -40 -1 -12 6 -17 10 -10 10 7 1 10 6 7 12 -4 6 3 21 16
35 28 30 48 17 31 -21z"/>
<path fill="#000000" stroke="none" d="M50 163 c-22 -23 -22 -25 -4 -15 12 6
23 9 26 7 2 -2 4 5 4 15 0 11 0 20 -1 20 0 0 -11 -12 -25 -27z"/>
</g>
</svg>
