<?xml version="1.0" standalone="no"?>
<!DOCTYPE svg PUBLIC "-//W3C//DTD SVG 20010904//EN"
 "http://www.w3.org/TR/2001/REC-SVG-20010904/DTD/svg10.dtd">
<svg version="1.0" xmlns="http://www.w3.org/2000/svg"
 width="32.000000pt" height="32.000000pt" viewBox="0 0 32.000000 32.000000"
 preserveAspectRatio="xMidYMid meet">
<metadata>
Created by potrace 1.16, written by Peter Selinger 2001-2019
</metadata>
<g transform="translate(0.000000,32.000000) scale(0.100000,-0.100000)"
fill="#000000" stroke="none">
<path fill="#000000" stroke="none" d="M47 290 c-36 -42 -54 -104 -37 -125 12
-15 35 -11 25 5 -3 4 2 10 10 14 8 3 17 1 20 -5 4 -5 11 -6 17 -3 7 4 8 2 4
-4 -4 -7 -13 -12 -20 -12 -7 0 -23 -11 -36 -25 -20 -21 -21 -27 -9 -41 12 -14
14 -14 26 2 7 9 10 21 7 25 -3 5 0 9 7 9 7 0 21 8 31 17 17 15 20 15 28 3 6
-10 4 -23 -6 -38 -9 -13 -13 -31 -10 -39 4 -10 -2 -21 -14 -30 -30 -21 -16
-32 35 -28 24 3 47 1 50 -4 12 -21 121 9 140 38 11 19 -34 33 -67 22 -40 -14
-43 -14 -28 4 10 12 10 18 0 30 -17 20 -27 19 -33 -5 -3 -11 -11 -20 -19 -20
-10 0 -10 2 2 10 8 5 11 12 7 16 -4 4 -13 2 -19 -4 -9 -9 -7 -16 6 -31 16 -17
16 -19 0 -25 -20 -8 -20 -8 -28 20 -7 23 14 47 52 59 20 6 21 9 10 23 -12 15
-11 16 4 3 10 -7 15 -18 11 -25 -4 -6 1 -5 10 3 17 13 17 15 0 35 -10 12 -11
15 -3 9 11 -10 17 -9 32 4 11 10 18 12 19 5 1 -7 2 -16 3 -22 2 -20 21 -14 35
11 8 15 11 36 7 52 -9 36 -64 97 -86 97 -22 0 -35 -16 -20 -25 17 -10 11 -44
-11 -66 -11 -11 -24 -18 -27 -14 -4 3 4 14 17 24 21 16 22 21 11 41 -11 21
-14 22 -25 7 -10 -14 -15 -14 -38 -2 -24 12 -28 12 -37 -5 -11 -20 11 -75 25
-62 5 4 5 1 0 -7 -14 -24 -48 26 -40 58 11 42 10 43 -1 48 -6 2 -23 -10 -37
-27z"/>
<path fill="#ffffff" stroke="none" d="M89 307 c-2 -1 -15 -11 -29 -22 l-25
-20 19 23 c11 12 24 22 29 22 6 0 8 -1 6 -3z"/>
<path fill="#ffffff" stroke="none" d="M237 304 c-3 -3 -12 -4 -19 -1 -8 3 -5
6 6 6 11 1 17 -2 13 -5z"/>
<path fill="#ffffff" stroke="none" d="M275 280 c10 -11 16 -20 13 -20 -3 0
-13 9 -23 20 -10 11 -16 20 -13 20 3 0 13 -9 23 -20z"/>
<path fill="#ffffff" stroke="none" d="M146 251 c-4 -5 0 -11 6 -14 7 -3 3 -4
-8 -4 -21 1 -23 27 -2 27 5 0 7 -4 4 -9z"/>
<path fill="#ffffff" stroke="none" d="M21 203 c-12 -20 -14 -14 -5 12 4 9 9
14 11 11 3 -2 0 -13 -6 -23z"/>
<path fill="#ffffff" stroke="none" d="M307 198 c-3 -8 -6 -5 -6 6 -1 11 2 17
5 13 3 -3 4 -12 1 -19z"/>
<path fill="#ffffff" stroke="none" d="M62 139 c-14 -5 -20 -13 -16 -20 4 -8
3 -9 -5 -5 -16 10 5 36 28 35 10 0 8 -3 -7 -10z"/>
<path fill="#ffffff" stroke="none" d="M228 15 c-3 -3 -9 2 -12 12 -6 14 -5
15 5 6 7 -7 10 -15 7 -18z"/>
</g>
</svg>
