<?xml version="1.0" standalone="no"?>
<!DOCTYPE svg PUBLIC "-//W3C//DTD SVG 20010904//EN"
 "http://www.w3.org/TR/2001/REC-SVG-20010904/DTD/svg10.dtd">
<svg version="1.0" xmlns="http://www.w3.org/2000/svg"
 width="32.000000pt" height="32.000000pt" viewBox="0 0 32.000000 32.000000"
 preserveAspectRatio="xMidYMid meet">
<metadata>
Created by potrace 1.16, written by Peter Selinger 2001-2019
</metadata>
<g transform="translate(0.000000,32.000000) scale(0.100000,-0.100000)"
fill="#000000" stroke="none">
<path fill="#000000" stroke="none" d="M97 300 c-10 -14 -20 -18 -32 -13 -14
5 -17 3 -12 -9 3 -9 3 -19 -1 -23 -3 -3 -5 -22 -3 -41 2 -33 1 -35 -18 -24
-12 6 -21 13 -21 16 0 3 4 3 9 0 11 -7 23 22 15 35 -9 15 -21 10 -27 -12 -9
-32 30 -102 51 -94 9 3 13 3 9 -1 -4 -4 -1 -14 6 -23 10 -14 10 -14 -5 -3 -12
9 -18 10 -23 2 -7 -12 23 -52 34 -45 4 2 13 -1 21 -6 11 -6 5 -8 -18 -4 -18 3
-40 2 -48 -3 -27 -15 5 -30 76 -36 36 -2 84 -8 107 -11 23 -4 49 -3 59 3 16 9
16 10 -4 21 -28 15 -29 35 -2 26 21 -7 27 1 33 40 1 11 5 25 8 30 9 17 10 75
1 75 -5 0 -14 11 -20 24 -8 18 -7 29 5 45 8 12 13 25 10 28 -8 8 -28 -7 -22
-17 3 -4 -3 -14 -13 -21 -15 -12 -16 -12 -5 1 15 19 2 43 -19 35 -8 -3 -21 1
-28 10 -19 23 -30 18 -30 -16 0 -17 -4 -28 -10 -24 -6 4 -10 -7 -10 -24 0 -26
-4 -31 -22 -30 -16 1 -18 3 -7 6 17 4 28 43 21 76 -2 11 -9 16 -18 13 -8 -3
-14 -1 -14 4 0 17 -18 11 -33 -10z"/>
<path fill="#ffffff" stroke="none" d="M207 278 c-3 -7 -5 -2 -5 12 0 14 2 19
5 13 2 -7 2 -19 0 -25z"/>
<path fill="#ffffff" stroke="none" d="M260 286 c0 -2 -8 -10 -17 -17 -16 -13
-17 -12 -4 4 13 16 21 21 21 13z"/>
<path fill="#ffffff" stroke="none" d="M81 263 c13 -16 12 -17 -3 -4 -10 7
-18 15 -18 17 0 8 8 3 21 -13z"/>
<path fill="#ffffff" stroke="none" d="M109 224 c-7 -13 -17 -24 -22 -24 -6 0
-2 9 9 21 10 12 18 23 17 25 -2 2 -2 12 -2 22 1 15 2 15 6 -2 3 -10 -1 -29 -8
-42z"/>
<path fill="#ffffff" stroke="none" d="M137 238 c-3 -7 -5 -2 -5 12 0 14 2 19
5 13 2 -7 2 -19 0 -25z"/>
<path fill="#ffffff" stroke="none" d="M240 223 c0 -1 -8 0 -17 3 -16 5 -15 3
1 -10 11 -9 16 -19 13 -23 -9 -9 -36 27 -37 49 0 17 1 17 20 1 11 -10 20 -19
20 -20z"/>
<path fill="#ffffff" stroke="none" d="M301 168 c-10 -11 -11 -10 -5 5 3 10 3
17 -2 16 -5 -1 -18 -1 -29 1 l-20 1 20 9 c27 11 55 -14 36 -32z"/>
<path fill="#ffffff" stroke="none" d="M175 190 c3 -6 -1 -13 -9 -16 -21 -8
-49 3 -41 16 8 13 42 13 50 0z"/>
<path fill="#ffffff" stroke="none" d="M284 138 c-5 -8 -1 -9 11 -4 14 5 16 4
7 -7 -7 -8 -11 -16 -9 -18 1 -2 -4 3 -11 11 -7 8 -18 14 -24 12 -7 -2 -6 3 1
12 14 17 36 11 25 -6z"/>
<path fill="#ffffff" stroke="none" d="M189 139 c-8 -5 -8 -8 0 -13 13 -8 5
-26 -11 -26 -5 0 -8 7 -4 15 4 11 -1 15 -19 15 -14 0 -25 -4 -25 -10 0 -5 -5
-10 -11 -10 -8 0 -9 4 0 13 6 8 9 16 7 18 -2 2 13 4 35 4 21 1 34 -2 28 -6z"/>
<path fill="#ffffff" stroke="none" d="M231 85 c5 4 9 1 9 -5 0 -7 -7 -10 -15
-6 -9 3 -25 -4 -36 -15 -16 -16 -23 -18 -35 -8 -16 13 -19 39 -4 39 6 0 13 -7
16 -15 4 -8 10 -12 15 -9 5 3 6 10 3 16 -4 7 -2 8 5 4 6 -4 14 0 18 11 7 17 8
17 11 0 2 -9 8 -15 13 -12z"/>
<path fill="#ffffff" stroke="none" d="M284 92 c3 -5 -1 -9 -9 -9 -8 0 -12 4
-9 9 3 4 7 8 9 8 2 0 6 -4 9 -8z"/>
<path fill="#ffffff" stroke="none" d="M243 39 c10 -11 16 -24 12 -27 -3 -4
-11 0 -16 8 -8 11 -12 12 -16 3 -13 -34 -25 -4 -14 35 3 8 19 -1 34 -19z"/>
</g>
</svg>
