<?xml version="1.0" standalone="no"?>
<!DOCTYPE svg PUBLIC "-//W3C//DTD SVG 20010904//EN"
 "http://www.w3.org/TR/2001/REC-SVG-20010904/DTD/svg10.dtd">
<svg version="1.0" xmlns="http://www.w3.org/2000/svg"
 width="32.000000pt" height="32.000000pt" viewBox="0 0 32.000000 32.000000"
 preserveAspectRatio="xMidYMid meet">
<metadata>
Created by potrace 1.16, written by Peter Selinger 2001-2019
</metadata>
<g transform="translate(0.000000,32.000000) scale(0.100000,-0.100000)"
fill="#000000" stroke="none">
<path fill="#000000" stroke="none" d="M97 300 c-10 -14 -20 -18 -32 -13 -14
5 -17 3 -13 -9 8 -19 -9 -38 -27 -32 -7 3 -15 -5 -18 -17 -8 -29 25 -92 55
-106 20 -9 26 -7 41 13 9 13 13 25 8 29 -11 6 -6 41 7 59 12 15 21 66 15 83
-7 19 -20 16 -36 -7z"/>
<path fill="#ffffff" stroke="none" d="M103 214 c-16 -25 -18 -26 -22 -8 -2
10 -8 25 -13 32 -8 9 -6 11 8 6 18 -7 18 -7 0 15 -16 17 -17 21 -4 16 11 -4
21 1 30 17 13 22 13 22 16 -14 2 -23 -4 -47 -15 -64z"/>
<path fill="#ffffff" stroke="none" d="M40 229 c0 11 3 11 16 0 8 -7 13 -21
11 -31 -3 -10 -1 -20 3 -23 4 -3 6 -14 3 -26 -4 -16 -8 -17 -14 -7 -5 7 -9 9
-9 3 -1 -5 -9 5 -19 24 -18 34 -18 88 0 59 7 -11 9 -11 9 1z"/>
<path fill="#ffffff" stroke="none" d="M100 150 c0 -5 -5 -10 -11 -10 -5 0 -7
5 -4 10 3 6 8 10 11 10 2 0 4 -4 4 -10z"/>
<path fill="#000000" stroke="none" d="M190 289 c0 -27 -2 -30 -15 -19 -8 7
-15 19 -15 26 0 8 -3 14 -7 14 -5 0 -9 -20 -10 -45 -1 -25 2 -45 7 -45 6 0 10
12 10 26 0 22 2 25 15 14 8 -7 15 -21 15 -31 0 -10 4 -20 9 -24 6 -3 8 -19 6
-35 -2 -22 1 -30 11 -30 9 0 12 5 8 12 -4 7 -3 8 4 4 9 -5 9 -13 2 -27 -8 -14
-7 -25 4 -40 8 -12 12 -27 10 -34 -3 -7 -1 -16 5 -20 21 -13 10 -25 -23 -25
-31 0 -34 3 -39 37 -4 23 -2 42 6 52 10 12 9 13 -12 1 -21 -11 -23 -10 -18 3
9 23 -3 28 -27 11 -13 -8 -26 -11 -30 -7 -4 4 -4 0 0 -10 3 -9 10 -17 14 -17
4 0 10 -9 13 -19 6 -23 -10 -31 -61 -31 -36 0 -36 0 -13 16 15 11 19 20 13 26
-6 6 -8 16 -6 23 7 16 -12 29 -21 15 -4 -6 0 -19 9 -29 16 -18 15 -19 -9 -25
-47 -12 -11 -34 63 -40 37 -2 86 -8 109 -11 23 -4 49 -3 59 3 16 9 16 10 -4
21 -28 15 -29 35 -2 26 21 -7 27 1 33 40 1 11 5 25 8 30 9 17 10 75 1 75 -5 0
-14 11 -20 24 -8 18 -7 29 5 45 16 23 12 38 -6 26 -6 -3 -9 -12 -5 -18 3 -7
-1 -4 -9 6 -8 9 -21 15 -29 12 -8 -3 -21 1 -28 10 -19 23 -30 18 -30 -16z"/>
<path fill="#ffffff" stroke="none" d="M246 281 c17 14 19 -2 3 -18 -14 -14
-3 -33 18 -33 9 0 13 -3 10 -7 -4 -3 2 -12 13 -20 15 -10 19 -22 16 -46 -3
-18 -5 -32 -6 -32 -1 0 -4 -13 -6 -30 -3 -16 -7 -31 -9 -34 -9 -8 -36 23 -31
36 3 8 1 11 -4 8 -6 -3 -10 -1 -10 4 0 6 4 11 8 11 4 0 8 9 9 20 1 11 -2 20
-8 20 -5 0 -9 5 -9 10 0 6 7 10 15 10 8 0 15 -4 15 -10 0 -5 4 -10 9 -10 6 0
9 8 8 18 -1 14 -7 17 -29 14 -38 -6 -57 20 -58 78 0 43 0 44 16 22 13 -18 19
-21 30 -11z"/>
<path fill="#ffffff" stroke="none" d="M275 251 c-3 -6 -11 -11 -17 -11 -6 0
-6 6 2 15 14 17 26 13 15 -4z"/>
<path fill="#ffffff" stroke="none" d="M170 69 c7 -11 9 -23 6 -26 -8 -9 -36
17 -36 33 0 21 18 17 30 -7z"/>
</g>
</svg>
