<?xml version="1.0" standalone="no"?>
<!DOCTYPE svg PUBLIC "-//W3C//DTD SVG 20010904//EN"
 "http://www.w3.org/TR/2001/REC-SVG-20010904/DTD/svg10.dtd">
<svg version="1.0" xmlns="http://www.w3.org/2000/svg"
 width="32.000000pt" height="32.000000pt" viewBox="0 0 32.000000 32.000000"
 preserveAspectRatio="xMidYMid meet">
<metadata>
Created by potrace 1.16, written by Peter Selinger 2001-2019
</metadata>
<g transform="translate(0.000000,32.000000) scale(0.100000,-0.100000)"
fill="#000000" stroke="none">
<path fill="#000000" stroke="none" d="M97 300 c-10 -14 -20 -18 -32 -13 -14
5 -17 3 -13 -9 8 -19 -9 -38 -27 -32 -7 3 -15 -5 -18 -17 -7 -25 27 -99 44
-99 8 0 7 -5 -1 -15 -10 -13 -10 -19 4 -34 16 -18 16 -19 -9 -25 -47 -12 -11
-34 63 -40 37 -2 86 -8 109 -11 23 -4 49 -3 59 3 16 9 16 10 -4 21 -28 15 -29
35 -2 26 21 -7 27 1 33 40 1 11 5 25 8 30 9 17 10 75 1 75 -4 0 -14 -6 -22
-12 -12 -11 -12 -10 -1 4 9 12 9 22 2 36 -7 14 -6 25 5 41 19 26 11 40 -11 21
-11 -9 -15 -9 -15 -1 0 7 -8 10 -19 6 -10 -3 -24 1 -31 10 -19 23 -30 18 -30
-16 0 -27 -2 -30 -15 -19 -8 7 -15 19 -15 27 0 9 -6 13 -15 9 -8 -3 -15 -1
-15 4 0 17 -18 11 -33 -10z"/>
<path fill="#ffffff" stroke="none" d="M170 69 c7 -11 9 -23 6 -26 -8 -9 -36
17 -36 33 0 21 18 17 30 -7z"/>
</g>
</svg>
