<?xml version="1.0" standalone="no"?>
<!DOCTYPE svg PUBLIC "-//W3C//DTD SVG 20010904//EN"
 "http://www.w3.org/TR/2001/REC-SVG-20010904/DTD/svg10.dtd">
<svg version="1.0" xmlns="http://www.w3.org/2000/svg"
 width="32.000000pt" height="32.000000pt" viewBox="0 0 32.000000 32.000000"
 preserveAspectRatio="xMidYMid meet">
<metadata>
Created by potrace 1.16, written by Peter Selinger 2001-2019
</metadata>
<g transform="translate(0.000000,32.000000) scale(0.100000,-0.100000)"
fill="#000000" stroke="none">
<path fill="#000000" stroke="none" d="M96 303 c-12 -12 -6 -41 11 -54 14 -12
16 -12 8 0 -6 10 -4 12 4 6 9 -5 9 -11 3 -17 -6 -6 -8 -18 -5 -27 4 -13 3 -13
-5 -2 -8 11 -12 10 -20 -5 -8 -14 -13 -16 -24 -6 -12 9 -20 6 -42 -17 -16 -16
-25 -34 -21 -40 3 -6 10 -9 15 -6 5 3 11 1 15 -4 3 -6 12 -8 20 -5 8 4 12 11
8 17 -3 6 -1 7 6 3 6 -4 23 -1 36 8 33 21 44 2 16 -28 -13 -14 -19 -29 -15
-40 3 -9 1 -23 -6 -30 -9 -12 -7 -17 10 -26 18 -10 26 -8 43 8 37 33 51 38 38
13 -10 -19 -9 -22 15 -31 29 -11 54 1 54 26 0 7 6 11 13 8 7 -2 21 2 32 10 15
11 17 17 8 28 -8 8 -9 19 -3 28 6 10 2 23 -17 42 -14 15 -31 37 -37 50 -7 13
-19 22 -29 20 -9 -2 -17 3 -17 10 0 9 -3 9 -11 -2 -9 -13 -10 -13 -6 0 2 8 9
14 15 13 16 -4 35 25 28 43 -5 12 -9 14 -20 5 -8 -6 -27 -8 -46 -4 -27 5 -31
3 -24 -8 6 -10 1 -9 -18 3 -14 9 -28 14 -32 11z"/>
<path fill="#ffffff" stroke="none" d="M227 287 c0 -7 -9 -14 -20 -14 -19 -2
-19 -2 -1 12 11 8 19 15 20 15 0 0 1 -6 1 -13z"/>
<path fill="#ffffff" stroke="none" d="M245 220 c3 -5 1 -10 -4 -10 -6 0 -11
5 -11 10 0 6 2 10 4 10 3 0 8 -4 11 -10z"/>
<path fill="#ffffff" stroke="none" d="M60 196 c0 -2 -8 -10 -17 -17 -16 -13
-17 -12 -4 4 13 16 21 21 21 13z"/>
<path fill="#ffffff" stroke="none" d="M238 140 c-14 -22 -28 -17 -28 9 0 25
11 33 26 20 10 -8 10 -15 2 -29z"/>
<path fill="#ffffff" stroke="none" d="M304 141 c3 -5 -7 -16 -22 -25 l-27
-17 22 19 c12 11 19 22 16 26 -4 3 -4 6 0 6 3 0 8 -4 11 -9z"/>
<path fill="#ffffff" stroke="none" d="M180 101 c0 -5 -7 -14 -15 -21 -12 -10
-15 -10 -15 2 0 8 3 18 7 21 9 10 23 9 23 -2z"/>
<path fill="#ffffff" stroke="none" d="M130 66 c0 -2 -8 -10 -17 -17 -16 -13
-17 -12 -4 4 13 16 21 21 21 13z"/>
</g>
</svg>
