<?xml version="1.0" standalone="no"?>
<!DOCTYPE svg PUBLIC "-//W3C//DTD SVG 20010904//EN"
 "http://www.w3.org/TR/2001/REC-SVG-20010904/DTD/svg10.dtd">
<svg version="1.0" xmlns="http://www.w3.org/2000/svg"
 width="32.000000pt" height="32.000000pt" viewBox="0 0 32.000000 32.000000"
 preserveAspectRatio="xMidYMid meet">
<metadata>
Created by potrace 1.16, written by Peter Selinger 2001-2019
</metadata>
<g transform="translate(0.000000,32.000000) scale(0.100000,-0.100000)"
fill="#000000" stroke="none">
<path fill="#000000" stroke="none" d="M96 303 c-10 -11 -7 -36 8 -52 13 -14
12 -19 -5 -40 -14 -18 -22 -21 -32 -12 -10 8 -20 4 -41 -18 -16 -16 -25 -34
-21 -40 3 -6 10 -9 15 -6 5 3 12 1 15 -5 4 -7 22 -2 51 14 49 28 68 18 35 -18
-13 -14 -19 -29 -15 -40 3 -9 1 -23 -6 -30 -9 -12 -7 -17 10 -26 18 -10 26 -8
44 9 26 25 41 27 32 6 -8 -21 41 -40 60 -24 8 6 14 18 14 25 0 7 6 11 13 8 7
-2 21 2 32 10 15 11 17 17 8 28 -8 8 -9 19 -3 28 6 10 2 23 -17 42 -14 15 -31
37 -37 50 -7 13 -19 22 -29 20 -21 -4 -22 6 -1 29 19 21 11 57 -9 42 -13 -11
-86 -11 -103 0 -6 3 -14 4 -18 0z"/>
<path fill="#ffffff" stroke="none" d="M165 284 c22 0 46 3 53 9 18 14 15 -13
-4 -34 -18 -20 -10 -43 12 -35 9 3 17 -2 21 -12 3 -9 19 -31 35 -49 l30 -31
-21 -21 c-12 -12 -29 -21 -38 -21 -15 0 -14 2 3 14 10 8 15 18 11 22 -4 5 -12
2 -17 -6 -8 -13 -10 -12 -10 2 0 9 4 19 9 22 19 12 -8 66 -33 66 -17 -1 -56
-37 -56 -52 1 -7 11 0 24 16 14 16 26 24 30 18 3 -6 2 -13 -3 -16 -4 -3 -11
-19 -14 -36 -4 -19 -11 -28 -20 -24 -16 6 -53 -31 -39 -40 5 -3 12 3 15 14 3
11 10 20 16 20 16 0 14 -15 -4 -30 -8 -7 -12 -16 -9 -21 3 -5 -2 -6 -11 -3 -9
4 -15 3 -13 -2 3 -10 -5 -14 -24 -14 -6 0 -5 7 5 18 13 14 14 21 5 30 -9 9 -6
18 12 37 19 20 21 27 10 40 -9 11 -16 12 -26 4 -7 -6 -17 -8 -23 -5 -5 3 -12
-1 -15 -9 -4 -12 -10 -13 -24 -6 -13 7 -22 7 -30 -1 -8 -8 -12 -8 -12 -2 0 6
11 21 25 34 14 13 25 18 25 12 0 -20 21 -13 47 14 22 24 23 28 9 43 -19 21
-22 56 -4 44 7 -4 31 -8 53 -9z"/>
<path fill="#ffffff" stroke="none" d="M246 167 c-1 -7 -5 -18 -10 -25 -12
-20 -25 -72 -17 -72 3 0 7 -12 8 -28 1 -15 -1 -22 -3 -15 -3 7 -11 10 -17 7
-22 -8 -8 128 14 142 5 3 6 11 2 17 -4 8 -1 7 9 -1 9 -7 15 -18 14 -25z"/>
<path fill="#000000" stroke="none" d="M114 265 c2 -5 10 -9 19 -9 8 1 13 -4
11 -10 -2 -6 2 -20 10 -31 12 -16 17 -18 27 -7 11 10 9 12 -6 12 -18 1 -17 4
8 25 26 23 27 25 8 26 -66 4 -81 3 -77 -6z"/>
<path fill="#000000" stroke="none" d="M105 190 c-10 -11 -13 -20 -7 -20 6 0
14 5 17 10 4 6 13 9 20 8 8 -2 14 2 15 7 2 19 -26 16 -45 -5z"/>
<path fill="#000000" stroke="none" d="M153 134 c-18 -14 -33 -30 -33 -37 0
-6 9 -1 20 11 12 12 27 22 35 22 8 0 15 7 15 15 0 19 1 19 -37 -11z"/>
<path fill="#000000" stroke="none" d="M201 94 c0 -11 3 -14 6 -6 3 7 2 16 -1
19 -3 4 -6 -2 -5 -13z"/>
</g>
</svg>
