<?xml version="1.0" standalone="no"?>
<!DOCTYPE svg PUBLIC "-//W3C//DTD SVG 20010904//EN"
 "http://www.w3.org/TR/2001/REC-SVG-20010904/DTD/svg10.dtd">
<svg version="1.0" xmlns="http://www.w3.org/2000/svg"
 width="32.000000pt" height="32.000000pt" viewBox="0 0 32.000000 32.000000"
 preserveAspectRatio="xMidYMid meet">
<metadata>
Created by potrace 1.16, written by Peter Selinger 2001-2019
</metadata>
<g transform="translate(0.000000,32.000000) scale(0.100000,-0.100000)"
fill="#000000" stroke="none">
<path fill="#000000" stroke="none" d="M127 225 c-4 -8 -3 -16 1 -19 4 -3 9 4
9 15 2 23 -3 25 -10 4z"/>
<path fill="#000000" stroke="none" d="M202 224 c1 -12 10 -21 22 -22 15 -1
17 1 7 7 -7 5 -17 15 -22 22 -6 10 -8 8 -7 -7z"/>
<path fill="#000000" stroke="none" d="M20 151 c0 -10 19 -25 25 -20 1 2 -3
10 -11 17 -8 7 -14 8 -14 3z"/>
<path fill="#000000" stroke="none" d="M111 116 c-7 -8 -8 -17 -3 -20 6 -3 13
1 16 10 9 23 2 28 -13 10z"/>
<path fill="#000000" stroke="none" d="M181 106 c-8 -10 -9 -16 -1 -21 5 -3
13 1 16 10 9 22 -1 29 -15 11z"/>
<path fill="#000000" stroke="none" d="M259 83 c-13 -16 -12 -17 4 -4 9 7 17
15 17 17 0 8 -8 3 -21 -13z"/>
<path fill="#000000" stroke="none" d="M279 73 c-13 -16 -12 -17 4 -4 9 7 17
15 17 17 0 8 -8 3 -21 -13z"/>
<path fill="#000000" stroke="none" d="M126 72 c-2 -4 2 -15 9 -25 9 -13 14
-14 18 -5 5 14 -19 42 -27 30z"/>
<path fill="#000000" stroke="none" d="M196 52 c-2 -4 -1 -14 3 -21 6 -10 10
-9 14 3 6 16 -8 32 -17 18z"/>
</g>
</svg>
