<?xml version="1.0" standalone="no"?>
<!DOCTYPE svg PUBLIC "-//W3C//DTD SVG 20010904//EN"
 "http://www.w3.org/TR/2001/REC-SVG-20010904/DTD/svg10.dtd">
<svg version="1.0" xmlns="http://www.w3.org/2000/svg"
 width="32.000000pt" height="32.000000pt" viewBox="0 0 32.000000 32.000000"
 preserveAspectRatio="xMidYMid meet">
<metadata>
Created by potrace 1.16, written by Peter Selinger 2001-2019
</metadata>
<g transform="translate(0.000000,32.000000) scale(0.100000,-0.100000)"
fill="#000000" stroke="none">
<path fill="#000000" stroke="none" d="M96 303 c-10 -11 -7 -36 8 -52 13 -14
12 -19 -5 -40 -14 -18 -22 -21 -32 -12 -10 8 -20 4 -41 -18 -16 -16 -25 -34
-21 -40 3 -6 10 -9 15 -6 5 3 12 1 15 -5 4 -7 22 -2 51 14 49 28 68 18 35 -18
-13 -14 -19 -29 -15 -40 3 -9 1 -23 -6 -30 -9 -12 -7 -17 9 -26 18 -9 27 -6
55 16 23 19 32 33 28 46 -4 18 -6 17 -21 -4 -9 -13 -15 -26 -14 -30 2 -4 -4
-5 -13 -1 -8 3 -14 2 -12 -3 3 -10 -5 -14 -24 -14 -6 0 -4 8 6 19 11 12 14 21
7 26 -6 3 -11 12 -11 18 0 8 3 8 9 -2 6 -9 11 -10 15 -2 4 6 4 15 1 21 -3 6 1
7 10 4 14 -6 14 -8 0 -24 -11 -12 -13 -20 -6 -25 6 -3 11 1 11 10 0 8 7 18 15
21 8 4 12 11 8 18 -4 6 1 5 10 -3 12 -9 17 -10 17 -2 0 7 4 9 10 6 6 -3 7 1 4
9 -3 9 -3 23 0 32 5 13 9 14 21 4 11 -9 12 -16 5 -25 -14 -17 -31 -75 -22 -75
4 0 8 -12 8 -28 1 -15 -1 -22 -3 -15 -2 7 -12 9 -21 6 -15 -6 -15 -5 -3 10 8
10 11 20 8 23 -3 3 -10 -4 -17 -15 -9 -19 -7 -22 16 -31 29 -11 54 1 54 26 0
7 6 11 13 8 7 -2 21 2 32 10 15 11 17 17 8 28 -8 8 -9 19 -3 28 6 10 2 23 -17
42 -14 15 -31 37 -37 50 -7 13 -19 22 -29 20 -21 -4 -22 6 -1 29 19 21 11 57
-9 42 -13 -11 -86 -11 -103 0 -6 3 -14 4 -18 0z"/>
<path fill="#ffffff" stroke="none" d="M165 284 c22 0 46 3 53 9 18 14 15 -13
-4 -34 -18 -20 -10 -43 12 -35 9 3 18 -3 23 -17 5 -12 21 -33 35 -46 l26 -25
-22 -23 c-12 -13 -29 -23 -37 -23 -14 1 -13 2 2 11 9 5 17 18 17 27 -1 15 -2
15 -15 -2 -13 -17 -15 -17 -15 -4 0 9 5 20 11 23 7 5 4 14 -7 26 -20 22 -43
10 -45 -25 -1 -17 -2 -18 -6 -3 -2 9 -10 15 -16 11 -7 -3 1 6 16 20 16 15 34
23 40 20 8 -5 7 -2 -1 7 -10 11 -17 11 -40 -3 -15 -9 -29 -25 -30 -35 -2 -10
-9 -22 -14 -28 -8 -7 -9 -6 -4 3 12 20 -13 45 -31 31 -7 -7 -16 -9 -20 -6 -3
4 -12 -1 -19 -11 -13 -16 -13 -16 -14 1 0 21 -8 22 -32 0 -28 -25 -21 0 7 27
14 13 25 18 25 12 0 -20 21 -13 47 14 22 24 23 28 9 43 -19 21 -22 56 -4 44 7
-4 31 -8 53 -9z"/>
<path fill="#000000" stroke="none" d="M110 270 c0 -3 9 -14 21 -24 l21 -18
-33 -28 c-19 -16 -29 -29 -22 -30 6 0 15 5 18 11 4 6 14 8 22 5 8 -3 26 3 40
14 l26 20 -24 0 -24 1 28 24 c26 23 27 25 8 26 -60 4 -81 3 -81 -1z"/>
<path fill="#000000" stroke="none" d="M201 94 c0 -11 3 -14 6 -6 3 7 2 16 -1
19 -3 4 -6 -2 -5 -13z"/>
</g>
</svg>
