<?xml version="1.0" standalone="no"?>
<!DOCTYPE svg PUBLIC "-//W3C//DTD SVG 20010904//EN"
 "http://www.w3.org/TR/2001/REC-SVG-20010904/DTD/svg10.dtd">
<svg version="1.0" xmlns="http://www.w3.org/2000/svg"
 width="32.000000pt" height="32.000000pt" viewBox="0 0 32.000000 32.000000"
 preserveAspectRatio="xMidYMid meet">
<metadata>
Created by potrace 1.16, written by Peter Selinger 2001-2019
</metadata>
<g transform="translate(0.000000,32.000000) scale(0.100000,-0.100000)"
fill="#000000" stroke="none">
<path fill="#000000" stroke="none" d="M0 160 l0 -160 160 0 160 0 0 160 0
160 -160 0 -160 0 0 -160z"/>
<path fill="#ffffff" stroke="none" d="M195 228 c3 -3 -1 -11 -10 -18 -13 -11
-10 -15 17 -34 40 -27 44 -40 20 -64 -20 -20 -20 -20 9 -26 36 -7 37 -19 2
-41 -22 -15 -30 -16 -46 -5 -16 9 -25 9 -44 -1 -19 -10 -26 -10 -36 1 -10 10
-9 11 3 5 13 -8 13 -6 2 8 -12 13 -11 21 4 46 19 32 14 51 -8 33 -19 -16 -68
22 -51 39 8 8 16 9 25 2 7 -5 20 -9 28 -8 8 0 20 -6 27 -15 8 -9 12 -11 13 -3
0 6 -5 15 -11 19 -8 4 -7 9 2 16 11 8 10 9 -2 5 -16 -5 -64 34 -55 44 6 6 105
4 111 -3z"/>
<path fill="#000000" stroke="none" d="M103 216 c19 -15 64 -12 82 5 6 6 -3 5
-20 -1 -16 -6 -32 -11 -35 -10 -3 1 -14 6 -25 12 -19 9 -19 8 -2 -6z"/>
<path fill="#000000" stroke="none" d="M170 169 c0 -5 5 -7 10 -4 6 3 10 8 10
11 0 2 -4 4 -10 4 -5 0 -10 -5 -10 -11z"/>
<path fill="#000000" stroke="none" d="M116 83 c-6 -14 -5 -15 5 -6 7 7 10 15
7 18 -3 3 -9 -2 -12 -12z"/>
<path fill="#000000" stroke="none" d="M181 84 c0 -11 3 -14 6 -6 3 7 2 16 -1
19 -3 4 -6 -2 -5 -13z"/>
</g>
</svg>
