<?xml version="1.0" standalone="no"?>
<!DOCTYPE svg PUBLIC "-//W3C//DTD SVG 20010904//EN"
 "http://www.w3.org/TR/2001/REC-SVG-20010904/DTD/svg10.dtd">
<svg version="1.0" xmlns="http://www.w3.org/2000/svg"
 width="32.000000pt" height="32.000000pt" viewBox="0 0 32.000000 32.000000"
 preserveAspectRatio="xMidYMid meet">
<metadata>
Created by potrace 1.16, written by Peter Selinger 2001-2019
</metadata>
<g transform="translate(0.000000,32.000000) scale(0.100000,-0.100000)"
fill="#000000" stroke="none">
<path fill="#000000" stroke="none" d="M0 160 l0 -160 160 0 160 0 0 160 0
160 -160 0 -160 0 0 -160z"/>
<path fill="#ffffff" stroke="none" d="M178 270 c3 -7 0 -10 -7 -6 -7 5 -11
-1 -11 -14 0 -12 -4 -19 -8 -16 -7 4 -8 33 -3 54 2 9 25 -6 29 -18z"/>
<path fill="#ffffff" stroke="none" d="M139 215 l0 -20 -9 20 c-5 11 -9 27 -9
35 -1 13 0 13 9 0 5 -8 9 -24 9 -35z"/>
<path fill="#ffffff" stroke="none" d="M120 204 c0 -8 -5 -14 -10 -14 -6 0
-10 -6 -8 -12 2 -7 0 -14 -5 -15 -22 -8 -25 1 -10 32 16 33 33 38 33 9z"/>
<path fill="#ffffff" stroke="none" d="M226 199 c3 -6 2 -15 -4 -21 -6 -6 -11
-2 -15 11 -5 22 7 29 19 10z"/>
<path fill="#ffffff" stroke="none" d="M169 160 l11 25 -3 -27 c-2 -15 -1 -25
3 -23 9 6 33 -22 36 -41 3 -21 -9 -17 -25 7 -10 17 -15 19 -21 9 -7 -11 -11
-11 -24 -1 -11 9 -16 10 -16 2 0 -6 -7 -11 -15 -11 -18 0 -18 -1 -3 41 12 34
12 34 19 9 6 -23 7 -22 9 10 l2 35 8 -30 7 -30 12 25z"/>
<path fill="#ffffff" stroke="none" d="M260 126 c0 -6 -5 -4 -10 4 -9 13 -10
13 -11 0 0 -10 -3 -8 -8 5 -5 11 -6 24 -3 29 6 10 32 -22 32 -38z"/>
<path fill="#ffffff" stroke="none" d="M67 135 c0 -8 -4 -12 -9 -9 -5 3 -6 10
-3 15 9 13 12 11 12 -6z"/>
<path fill="#ffffff" stroke="none" d="M110 74 c0 -8 -5 -12 -10 -9 -6 4 -8
11 -5 16 9 14 15 11 15 -7z"/>
<path fill="#ffffff" stroke="none" d="M100 40 c0 -5 -8 -10 -17 -10 -15 0
-16 2 -3 10 19 12 20 12 20 0z"/>
<path fill="#ffffff" stroke="none" d="M250 30 c-8 -5 -19 -10 -25 -10 -5 0
-3 5 5 10 8 5 20 10 25 10 6 0 3 -5 -5 -10z"/>
</g>
</svg>
