<?xml version="1.0" standalone="no"?>
<!DOCTYPE svg PUBLIC "-//W3C//DTD SVG 20010904//EN"
 "http://www.w3.org/TR/2001/REC-SVG-20010904/DTD/svg10.dtd">
<svg version="1.0" xmlns="http://www.w3.org/2000/svg"
 width="32.000000pt" height="32.000000pt" viewBox="0 0 32.000000 32.000000"
 preserveAspectRatio="xMidYMid meet">
<metadata>
Created by potrace 1.16, written by Peter Selinger 2001-2019
</metadata>
<g transform="translate(0.000000,32.000000) scale(0.100000,-0.100000)"
fill="#000000" stroke="none">
<path fill="#000000" stroke="none" d="M0 160 l0 -160 160 0 160 0 0 160 0
160 -160 0 -160 0 0 -160z"/>
<path fill="#ffffff" stroke="none" d="M183 278 c29 -34 68 -98 77 -127 4 -14
11 -34 15 -44 5 -12 3 -17 -6 -15 -8 2 -17 7 -20 11 -3 5 -9 2 -12 -6 -3 -8 3
-24 14 -35 28 -31 24 -42 -15 -42 -37 0 -52 14 -48 42 2 9 -2 19 -7 23 -7 4
-8 0 -4 -11 4 -11 3 -15 -4 -11 -6 4 -14 1 -16 -5 -3 -8 -6 -6 -6 5 -1 9 -6
17 -12 17 -6 0 -9 -12 -7 -27 3 -27 1 -28 -42 -31 -44 -2 -45 -2 -24 16 13 11
23 35 27 62 l6 45 -20 -24 c-11 -14 -19 -18 -19 -10 -1 8 -7 3 -15 -11 -11
-20 -14 -21 -15 -7 0 21 70 147 82 147 4 0 8 5 8 12 0 11 29 48 38 48 3 0 14
-10 25 -22z"/>
<path fill="#000000" stroke="none" d="M148 204 c2 -13 8 -24 13 -24 14 0 10
37 -4 43 -10 4 -13 -2 -9 -19z"/>
</g>
</svg>
