<?xml version="1.0" standalone="no"?>
<!DOCTYPE svg PUBLIC "-//W3C//DTD SVG 20010904//EN"
 "http://www.w3.org/TR/2001/REC-SVG-20010904/DTD/svg10.dtd">
<svg version="1.0" xmlns="http://www.w3.org/2000/svg"
 width="32.000000pt" height="32.000000pt" viewBox="0 0 32.000000 32.000000"
 preserveAspectRatio="xMidYMid meet">
<metadata>
Created by potrace 1.16, written by Peter Selinger 2001-2019
</metadata>
<g transform="translate(0.000000,32.000000) scale(0.100000,-0.100000)"
fill="#000000" stroke="none">
<path fill="#000000" stroke="none" d="M71 310 c0 -8 4 -24 9 -35 5 -13 9 -14
9 -5 0 8 -4 24 -9 35 -5 13 -9 14 -9 5z"/>
<path fill="#000000" stroke="none" d="M104 312 c-6 -4 -11 -18 -10 -32 1 -17
-4 -25 -15 -24 -9 1 -16 -4 -17 -10 -1 -6 -4 -24 -7 -41 l-5 -30 10 31 c10 32
44 51 57 32 3 -6 2 -8 -4 -5 -23 14 -66 -57 -46 -76 10 -11 33 14 34 37 l0 21
9 -21 c5 -12 13 -25 19 -29 6 -3 11 -12 11 -18 0 -7 -4 -6 -10 3 -8 13 -10 12
-10 -3 0 -9 -5 -16 -12 -15 -20 5 -34 -50 -19 -74 12 -19 11 -24 -9 -40 -21
-17 -21 -18 -3 -18 29 0 53 31 46 59 -7 26 -4 26 50 -8 20 -12 37 -29 37 -37
0 -8 7 -14 16 -14 8 0 13 4 10 8 -2 4 -7 29 -10 56 -5 45 -5 47 12 35 15 -13
16 -12 3 4 -12 15 -12 22 -1 42 18 34 5 73 -34 96 -19 11 -36 29 -39 41 -5 16
-12 20 -36 16 -16 -2 -28 -1 -25 4 8 12 48 10 62 -4 8 -8 12 -8 12 -1 0 20
-53 31 -76 15z"/>
<path fill="#ffffff" stroke="none" d="M150 256 c0 -11 -19 -15 -25 -6 -3 5 1
10 9 10 9 0 16 -2 16 -4z"/>
<path fill="#ffffff" stroke="none" d="M211 157 c-9 -17 -9 -30 -2 -50 10 -25
9 -27 -6 -18 -10 5 -18 23 -19 40 -1 17 2 28 7 25 5 -3 9 7 9 22 0 22 3 25 12
16 9 -9 9 -17 -1 -35z"/>
<path fill="#000000" stroke="none" d="M186 298 c-8 -33 -8 -35 10 -42 13 -5
14 -4 6 7 -6 7 -9 23 -5 35 3 12 3 22 0 22 -2 0 -7 -10 -11 -22z"/>
<path fill="#000000" stroke="none" d="M235 280 c-3 -5 3 -17 15 -27 11 -10
20 -27 19 -38 0 -19 -1 -19 -11 2 -6 12 -18 25 -26 28 -13 5 -13 3 1 -13 23
-25 39 -80 26 -88 -6 -3 -2 -12 8 -19 15 -12 16 -17 6 -34 -15 -23 -17 -51 -5
-51 5 0 13 12 20 28 10 25 11 25 6 2 -3 -14 -13 -31 -22 -37 -9 -7 -11 -13 -5
-13 35 0 50 98 19 128 -11 11 -12 20 -4 38 14 31 2 73 -25 84 -19 9 -20 10 -2
7 11 -1 28 -17 37 -37 10 -19 18 -28 18 -19 0 9 -9 28 -21 43 -21 27 -43 34
-54 16z"/>
<path fill="#000000" stroke="none" d="M30 144 c0 -17 22 -14 28 4 2 7 -3 12
-12 12 -9 0 -16 -7 -16 -16z"/>
</g>
</svg>
