<?xml version="1.0" standalone="no"?>
<!DOCTYPE svg PUBLIC "-//W3C//DTD SVG 20010904//EN"
 "http://www.w3.org/TR/2001/REC-SVG-20010904/DTD/svg10.dtd">
<svg version="1.0" xmlns="http://www.w3.org/2000/svg"
 width="32.000000pt" height="32.000000pt" viewBox="0 0 32.000000 32.000000"
 preserveAspectRatio="xMidYMid meet">
<metadata>
Created by potrace 1.16, written by Peter Selinger 2001-2019
</metadata>
<g transform="translate(0.000000,32.000000) scale(0.100000,-0.100000)"
fill="#000000" stroke="none">
<path fill="#000000" stroke="none" d="M97 290 c-30 -19 -47 -37 -47 -49 0
-13 -5 -18 -14 -15 -22 8 -28 -13 -9 -28 23 -17 23 -44 0 -60 -16 -12 -16 -16
-3 -33 10 -14 17 -17 27 -9 24 19 57 22 76 8 10 -7 13 -14 7 -14 -5 0 -15 5
-21 11 -9 9 -11 7 -7 -8 4 -13 -2 -28 -16 -41 -12 -11 -17 -22 -12 -26 14 -9
66 1 100 18 49 25 80 18 51 -11 -8 -8 -6 -14 9 -22 10 -6 23 -7 27 -3 3 4 12
7 18 7 17 0 41 50 34 69 -4 10 -16 20 -27 23 -26 7 -26 35 0 51 l21 13 -20 28
c-11 16 -18 31 -15 34 3 3 -2 17 -12 31 -9 15 -19 24 -22 21 -3 -2 -10 3 -17
11 -21 30 -76 27 -128 -6z"/>
<path fill="#ffffff" stroke="none" d="M190 300 c-10 -6 -9 -9 0 -15 7 -4 16
-1 21 6 6 10 9 11 10 2 1 -7 2 -18 3 -25 0 -6 7 -13 14 -16 8 -2 10 2 6 15 -6
16 -5 16 9 -2 8 -10 12 -25 10 -33 -3 -7 4 -24 16 -36 15 -15 19 -26 12 -31
-6 -3 -11 -1 -11 5 0 19 -43 70 -53 63 -6 -3 -7 -1 -3 5 7 12 -5 16 -33 13 -8
-2 -10 2 -5 10 4 8 3 10 -5 5 -6 -4 -9 -11 -6 -16 5 -8 -24 -25 -39 -21 -5 1
-6 -13 -3 -31 6 -27 4 -30 -6 -18 -14 19 -49 20 -54 3 -3 -7 0 -13 6 -13 6 0
11 5 11 11 0 5 5 7 10 4 6 -3 10 -11 10 -17 0 -6 -3 -8 -6 -5 -4 4 -16 -3 -27
-16 l-19 -22 7 24 c5 16 4 21 -4 17 -6 -4 -11 -3 -11 3 0 5 4 13 10 16 5 3 10
11 10 16 0 6 -4 7 -10 4 -5 -3 -18 -1 -27 5 -16 11 -16 11 -1 6 10 -3 20 -1
23 5 4 5 10 7 15 4 5 -3 12 0 16 6 4 8 3 9 -4 5 -7 -4 -12 -2 -12 3 0 6 0 14
-1 18 -2 12 80 51 107 51 16 0 21 -3 14 -8z"/>
<path fill="#ffffff" stroke="none" d="M204 202 c2 -4 -4 -8 -14 -9 -11 -1
-22 2 -25 8 -4 5 3 9 14 9 11 0 22 -4 25 -8z"/>
<path fill="#ffffff" stroke="none" d="M230 163 c0 -5 -7 -17 -15 -27 -11 -15
-15 -16 -16 -5 0 10 -2 10 -6 1 -5 -13 -23 -7 -23 9 0 6 5 7 10 4 6 -3 10 0
10 7 0 9 3 9 10 -2 9 -13 14 -7 11 13 0 4 4 7 9 7 6 0 10 -3 10 -7z"/>
<path fill="#ffffff" stroke="none" d="M253 123 c-7 -3 -13 -9 -13 -14 0 -6 5
-7 12 -3 7 5 8 3 3 -5 -5 -9 -10 -10 -18 -2 -7 7 -6 15 3 26 7 8 16 13 19 9 3
-4 0 -9 -6 -11z"/>
<path fill="#ffffff" stroke="none" d="M55 121 c3 -5 0 -13 -6 -17 -7 -4 -9
-3 -5 4 3 5 0 13 -6 15 -9 4 -10 6 -1 6 6 1 14 -3 18 -8z"/>
<path fill="#ffffff" stroke="none" d="M121 53 c-12 -20 -14 -14 -5 12 4 9 9
14 11 11 3 -2 0 -13 -6 -23z"/>
<path fill="#000000" stroke="none" d="M100 230 c0 -5 5 -10 10 -10 6 0 10 5
10 10 0 6 -4 10 -10 10 -5 0 -10 -4 -10 -10z"/>
</g>
</svg>
