<?xml version="1.0" standalone="no"?>
<!DOCTYPE svg PUBLIC "-//W3C//DTD SVG 20010904//EN"
 "http://www.w3.org/TR/2001/REC-SVG-20010904/DTD/svg10.dtd">
<svg version="1.0" xmlns="http://www.w3.org/2000/svg"
 width="32.000000pt" height="32.000000pt" viewBox="0 0 32.000000 32.000000"
 preserveAspectRatio="xMidYMid meet">
<metadata>
Created by potrace 1.16, written by Peter Selinger 2001-2019
</metadata>
<g transform="translate(0.000000,32.000000) scale(0.100000,-0.100000)"
fill="#000000" stroke="none">
<path fill="#000000" stroke="none" d="M87 259 c7 -7 15 -10 18 -7 3 3 -2 9
-12 12 -14 6 -15 5 -6 -5z"/>
<path fill="#000000" stroke="none" d="M170 210 c19 -5 45 -21 58 -37 17 -20
21 -22 13 -6 -15 30 -51 53 -81 52 -20 -1 -19 -3 10 -9z"/>
<path fill="#000000" stroke="none" d="M101 177 c-14 -6 -26 -19 -29 -27 -3
-12 -2 -12 9 1 8 9 22 19 31 22 27 10 29 -20 2 -52 -18 -22 -21 -31 -12 -37 7
-4 10 -4 6 1 -4 4 4 21 17 37 20 23 23 33 15 49 -13 22 -9 22 -39 6z"/>
<path fill="#000000" stroke="none" d="M177 173 c-3 -5 0 -17 4 -28 8 -18 9
-18 5 3 -3 18 -1 22 10 18 9 -3 12 -1 9 4 -7 12 -22 13 -28 3z"/>
<path fill="#000000" stroke="none" d="M54 108 c-4 -5 -3 -12 0 -15 3 -4 6 -1
6 6 0 7 4 10 9 6 5 -3 12 -2 15 3 3 5 -2 9 -10 9 -8 0 -17 -4 -20 -9z"/>
<path fill="#000000" stroke="none" d="M127 104 c-7 -7 25 -64 36 -64 11 0 9
28 -3 35 -6 4 -8 10 -5 15 5 9 -20 22 -28 14z"/>
<path fill="#000000" stroke="none" d="M182 94 c-11 -12 -10 -14 3 -14 9 0 13
-4 10 -10 -3 -5 1 -10 10 -10 12 0 15 -6 10 -20 -6 -19 -4 -19 20 -8 l26 12
-26 13 c-14 8 -23 18 -20 22 10 17 -19 30 -33 15z"/>
<path fill="#000000" stroke="none" d="M235 80 c-3 -5 -1 -10 4 -10 6 0 11 5
11 10 0 6 -2 10 -4 10 -3 0 -8 -4 -11 -10z"/>
</g>
</svg>
