<?xml version="1.0" standalone="no"?>
<!DOCTYPE svg PUBLIC "-//W3C//DTD SVG 20010904//EN"
 "http://www.w3.org/TR/2001/REC-SVG-20010904/DTD/svg10.dtd">
<svg version="1.0" xmlns="http://www.w3.org/2000/svg"
 width="32.000000pt" height="32.000000pt" viewBox="0 0 32.000000 32.000000"
 preserveAspectRatio="xMidYMid meet">
<metadata>
Created by potrace 1.16, written by Peter Selinger 2001-2019
</metadata>
<g transform="translate(0.000000,32.000000) scale(0.100000,-0.100000)"
fill="#000000" stroke="none">
<path fill="#000000" stroke="none" d="M35 280 c-4 -6 -2 -16 3 -23 27 -35 20
-95 -16 -139 -12 -14 -12 -21 -3 -32 16 -19 47 -13 43 8 -2 9 3 15 10 14 8 -2
12 6 10 25 -3 21 2 29 20 36 13 5 25 5 28 0 3 -4 12 -4 20 2 13 8 12 12 -5 25
-12 9 -21 11 -23 4 -2 -5 -8 -7 -14 -4 -6 4 -1 12 13 20 15 8 18 13 9 14 -13
0 -13 1 0 11 12 9 10 10 -9 5 -29 -6 -15 9 18 19 16 5 21 4 17 -4 -4 -6 -9
-20 -11 -31 -3 -16 2 -20 21 -20 14 0 36 -11 49 -24 28 -28 51 -104 36 -119
-7 -7 -8 -2 -4 14 5 23 5 24 -10 4 -16 -20 -16 -19 -11 5 5 20 3 22 -5 10 -15
-21 -14 -4 1 20 11 17 9 23 -10 42 -18 18 -24 20 -34 10 -11 -11 -10 -12 3 -7
9 3 22 -1 30 -11 13 -16 12 -16 -8 -6 -14 8 -24 9 -28 2 -3 -5 -12 -10 -18
-10 -7 0 -6 4 3 10 13 9 13 10 0 10 -23 0 -71 -65 -58 -78 8 -8 8 -15 -2 -26
-10 -13 -9 -17 4 -22 9 -3 23 -3 31 0 9 3 24 0 35 -6 15 -10 27 -10 53 0 19 7
42 10 51 6 9 -3 23 -3 32 0 13 5 14 9 4 21 -10 12 -10 18 1 31 11 14 10 19
-10 35 -13 11 -28 19 -35 19 -6 0 -19 14 -29 31 -9 17 -31 36 -47 42 -32 12
-37 26 -19 44 22 22 0 32 -36 17 -31 -13 -39 -13 -65 1 -19 10 -31 11 -35 5z"/>
<path fill="#ffffff" stroke="none" d="M96 241 c9 -12 8 -18 -5 -28 -14 -11
-14 -14 -1 -24 13 -9 13 -10 0 -6 -8 2 -15 10 -15 18 0 8 -4 20 -9 28 -6 10
-5 12 2 7 20 -12 13 5 -10 25 l-23 20 25 -12 c14 -7 30 -19 36 -28z"/>
<path fill="#ffffff" stroke="none" d="M69 132 c9 -18 9 -22 -1 -20 -7 2 -12
-4 -12 -13 1 -10 -5 -16 -14 -15 -22 4 -27 25 -8 32 9 3 16 15 16 27 0 23 2
22 19 -11z"/>
<path fill="#ffffff" stroke="none" d="M122 108 c-9 -9 -9 -15 1 -27 11 -14
10 -14 -6 -2 -13 10 -15 17 -6 27 6 8 14 14 17 14 3 0 1 -5 -6 -12z"/>
<path fill="#ffffff" stroke="none" d="M166 95 c-3 -8 -1 -15 4 -15 6 0 10 -5
10 -11 0 -8 -4 -8 -14 1 -13 10 -12 40 1 40 3 0 3 -7 -1 -15z"/>
<path fill="#ffffff" stroke="none" d="M310 100 c0 -5 -10 -15 -22 -21 l-23
-12 20 21 c23 24 25 25 25 12z"/>
<path fill="#ffffff" stroke="none" d="M135 51 c-9 -8 -36 -10 -30 -2 2 4 11
8 20 8 8 0 13 -3 10 -6z"/>
<path fill="#ffffff" stroke="none" d="M305 50 c3 -5 -1 -10 -9 -10 -9 0 -16
5 -16 10 0 6 4 10 9 10 6 0 13 -4 16 -10z"/>
<path fill="#ffffff" stroke="none" d="M205 41 c-9 -8 -36 -10 -30 -2 2 4 11
8 20 8 8 0 13 -3 10 -6z"/>
</g>
</svg>
