<?xml version="1.0" standalone="no"?>
<!DOCTYPE svg PUBLIC "-//W3C//DTD SVG 20010904//EN"
 "http://www.w3.org/TR/2001/REC-SVG-20010904/DTD/svg10.dtd">
<svg version="1.0" xmlns="http://www.w3.org/2000/svg"
 width="32.000000pt" height="32.000000pt" viewBox="0 0 32.000000 32.000000"
 preserveAspectRatio="xMidYMid meet">
<metadata>
Created by potrace 1.16, written by Peter Selinger 2001-2019
</metadata>
<g transform="translate(0.000000,32.000000) scale(0.100000,-0.100000)"
fill="#000000" stroke="none">
<path fill="#000000" stroke="none" d="M35 280 c-4 -6 -2 -16 3 -23 27 -35 20
-95 -16 -139 -12 -14 -12 -21 -3 -32 16 -19 47 -13 43 8 -2 9 3 15 9 14 7 -2
13 9 13 26 1 20 8 31 23 37 32 12 37 -15 8 -49 -18 -21 -21 -32 -13 -40 8 -8
8 -15 -1 -26 -16 -19 -1 -27 43 -22 24 3 34 1 30 -6 -5 -7 4 -8 27 -4 19 4 50
8 69 9 19 1 36 7 37 12 0 6 -4 9 -9 7 -6 -2 -3 9 7 24 17 27 17 28 -5 46 -12
10 -27 18 -34 18 -6 0 -19 14 -29 31 -9 17 -31 36 -47 42 -32 12 -37 26 -19
44 22 22 0 32 -36 17 -31 -13 -39 -13 -65 1 -19 10 -31 11 -35 5z"/>
<path fill="#ffffff" stroke="none" d="M61 263 c13 -16 12 -17 -3 -4 -17 13
-22 21 -14 21 2 0 10 -8 17 -17z"/>
<path fill="#ffffff" stroke="none" d="M170 276 c0 -2 -8 -10 -17 -17 -16 -13
-17 -12 -4 4 13 16 21 21 21 13z"/>
<path fill="#ffffff" stroke="none" d="M228 170 c17 -27 10 -25 -19 6 -13 14
-17 23 -9 19 9 -3 21 -14 28 -25z"/>
<path fill="#ffffff" stroke="none" d="M211 153 c13 -15 12 -15 -8 -4 -24 12
-29 21 -14 21 5 0 15 -7 22 -17z"/>
<path fill="#ffffff" stroke="none" d="M70 125 c11 -13 10 -14 -5 -9 -15 6
-17 3 -13 -13 5 -20 -12 -26 -28 -10 -6 5 19 40 32 46 1 1 7 -6 14 -14z"/>
<path fill="#ffffff" stroke="none" d="M260 84 c0 -7 -4 -15 -9 -18 -5 -4 -7
4 -4 16 5 23 5 23 -11 3 -17 -20 -17 -20 -6 3 7 15 7 22 0 22 -5 0 -10 -5 -10
-12 0 -6 -3 -8 -6 -5 -4 4 -1 14 7 23 12 14 14 14 26 -2 7 -10 13 -23 13 -30z"/>
</g>
</svg>
