<?xml version="1.0" standalone="no"?>
<!DOCTYPE svg PUBLIC "-//W3C//DTD SVG 20010904//EN"
 "http://www.w3.org/TR/2001/REC-SVG-20010904/DTD/svg10.dtd">
<svg version="1.0" xmlns="http://www.w3.org/2000/svg"
 width="32.000000pt" height="32.000000pt" viewBox="0 0 32.000000 32.000000"
 preserveAspectRatio="xMidYMid meet">
<metadata>
Created by potrace 1.16, written by Peter Selinger 2001-2019
</metadata>
<g transform="translate(0.000000,32.000000) scale(0.100000,-0.100000)"
fill="#000000" stroke="none">
<path fill="#000000" stroke="none" d="M35 280 c-4 -6 -2 -16 3 -23 27 -35 20
-95 -16 -139 -12 -14 -12 -21 -3 -32 16 -19 47 -13 43 8 -2 9 1 16 5 15 19 -3
21 3 13 32 -5 18 -7 29 -4 26 3 -3 16 -2 29 3 34 13 39 -13 10 -48 -18 -21
-21 -32 -13 -40 8 -8 8 -15 -2 -26 -10 -13 -9 -17 4 -22 9 -3 23 -3 31 0 9 3
24 0 35 -6 15 -10 27 -10 53 0 19 7 42 10 51 6 9 -3 23 -3 32 0 13 5 14 9 4
21 -10 12 -10 18 1 31 11 14 10 19 -10 35 -13 11 -28 19 -35 19 -6 0 -19 14
-29 31 -9 17 -31 36 -47 42 -32 12 -37 26 -19 44 22 22 0 32 -36 17 -31 -13
-39 -13 -65 1 -19 10 -31 11 -35 5z"/>
<path fill="#ffffff" stroke="none" d="M135 264 c40 17 40 17 22 -17 -9 -17
-18 -23 -26 -17 -11 6 -11 9 0 13 10 4 9 6 -3 6 -10 1 -18 -5 -18 -13 0 -8 -7
-16 -15 -20 -20 -7 -19 -26 1 -26 8 0 12 5 9 10 -3 6 -1 10 5 10 7 0 10 -6 8
-12 -8 -24 -41 -14 -49 15 -4 16 -3 25 2 21 5 -3 9 -1 9 4 0 5 -9 12 -20 15
-11 3 -20 10 -20 16 0 8 10 6 30 -4 26 -14 34 -14 65 -1z"/>
<path fill="#ffffff" stroke="none" d="M171 210 c30 0 67 -43 80 -94 10 -41
13 -44 30 -33 25 15 24 22 -3 35 -13 6 -18 11 -12 11 5 1 19 -6 30 -14 19 -15
19 -16 -3 -31 -25 -18 -31 -36 -9 -28 8 3 17 1 21 -5 3 -7 -2 -11 -15 -11 -11
0 -23 7 -26 15 -4 8 -10 13 -14 10 -5 -3 -6 5 -3 17 5 23 5 23 -10 3 -16 -20
-16 -19 -11 5 5 20 3 22 -5 10 -7 -9 -11 -10 -11 -3 0 6 5 15 10 18 5 3 10 13
10 21 0 8 -4 13 -9 10 -4 -3 -17 1 -27 9 -10 8 -14 15 -8 15 5 0 16 -6 24 -12
12 -11 12 -10 1 5 -16 20 -36 18 -36 -4 0 -7 -9 -15 -20 -17 -16 -3 -17 -1 -5
7 10 7 11 11 3 11 -7 0 -10 7 -7 15 4 8 2 15 -4 15 -5 0 -13 7 -16 16 -5 12
-2 15 10 10 8 -3 24 -6 35 -6z"/>
<path fill="#ffffff" stroke="none" d="M73 130 c3 -11 0 -18 -7 -17 -6 1 -10
-5 -10 -14 1 -10 -5 -16 -14 -15 -22 4 -26 21 -7 36 8 7 15 19 15 27 0 20 16
8 23 -17z"/>
<path fill="#ffffff" stroke="none" d="M136 111 c0 -11 -5 -17 -10 -14 -6 4
-6 -1 -2 -13 12 -32 12 -36 -7 -39 -15 -3 -16 -1 -6 11 9 11 9 18 1 26 -9 9
-8 16 5 30 20 22 19 22 19 -1z"/>
<path fill="#ffffff" stroke="none" d="M165 120 c-3 -5 -1 -10 5 -10 7 0 10
-6 7 -14 -3 -8 3 -22 14 -32 20 -18 18 -26 -7 -30 -11 -2 -12 1 -5 10 7 8 5
15 -8 23 -10 7 -17 21 -15 35 3 28 3 28 10 28 3 0 2 -4 -1 -10z"/>
</g>
</svg>
