<?xml version="1.0" standalone="no"?>
<!DOCTYPE svg PUBLIC "-//W3C//DTD SVG 20010904//EN"
 "http://www.w3.org/TR/2001/REC-SVG-20010904/DTD/svg10.dtd">
<svg version="1.0" xmlns="http://www.w3.org/2000/svg"
 width="32.000000pt" height="32.000000pt" viewBox="0 0 32.000000 32.000000"
 preserveAspectRatio="xMidYMid meet">
<metadata>
Created by potrace 1.16, written by Peter Selinger 2001-2019
</metadata>
<g transform="translate(0.000000,32.000000) scale(0.100000,-0.100000)"
fill="#000000" stroke="none">
<path fill="#000000" stroke="none" d="M0 160 c0 -137 2 -160 15 -160 28 0 58
36 50 60 -8 24 18 60 44 60 9 0 12 -3 6 -8 -5 -4 -10 -31 -10 -60 l0 -52 107
1 108 2 0 158 0 159 -160 0 -160 0 0 -160z"/>
<path fill="#ffffff" stroke="none" d="M165 279 c1 -20 6 -24 28 -22 28 2 34
-6 16 -24 -12 -12 -61 -5 -53 8 9 14 -13 10 -25 -5 -9 -11 -8 -15 5 -20 9 -3
20 -4 25 0 5 3 9 1 9 -5 0 -14 -16 -22 -32 -16 -19 8 -58 68 -57 91 0 16 2 15
11 -6 6 -14 10 -28 10 -32 -3 -13 15 -9 27 5 6 8 8 17 5 20 -4 3 -4 13 0 22 9
24 31 12 31 -16z"/>
<path fill="#ffffff" stroke="none" d="M254 224 c8 -3 12 -12 9 -20 -4 -10 0
-12 11 -8 9 3 16 1 16 -4 0 -16 -18 -24 -25 -12 -9 15 -31 12 -51 -7 -9 -9
-26 -19 -37 -20 -20 -3 -20 -3 -2 17 10 11 25 20 33 20 8 0 12 6 9 14 -3 8 -1
17 6 20 7 2 13 5 14 5 1 1 8 -2 17 -5z"/>
<path fill="#ffffff" stroke="none" d="M94 205 c-4 -9 -1 -15 8 -15 18 0 41
-37 28 -45 -6 -4 -13 1 -16 10 -4 9 -13 14 -20 11 -15 -6 -20 34 -7 47 10 11
13 8 7 -8z"/>
<path fill="#ffffff" stroke="none" d="M310 145 c0 -27 -17 -42 -31 -28 -13
13 7 67 21 58 5 -3 10 -17 10 -30z"/>
<path fill="#ffffff" stroke="none" d="M38 153 c-5 -25 -28 -28 -28 -4 0 12 6
21 16 21 9 0 14 -7 12 -17z"/>
<path fill="#ffffff" stroke="none" d="M100 148 c0 -4 -3 -8 -7 -9 -5 0 -16
-2 -25 -4 -10 -2 -18 3 -18 11 0 9 9 13 25 12 14 -1 25 -6 25 -10z"/>
<path fill="#ffffff" stroke="none" d="M177 119 c-22 -5 -22 -5 -1 -11 21 -5
41 -58 23 -58 -5 0 -9 11 -9 25 0 16 -6 25 -15 25 -9 0 -15 -9 -15 -25 0 -14
-4 -25 -9 -25 -6 0 -6 12 -1 30 7 24 5 32 -8 39 -15 8 -15 10 -2 15 38 12 45
12 52 2 4 -7 -2 -13 -15 -17z"/>
<path fill="#ffffff" stroke="none" d="M261 74 c10 -13 10 -17 -1 -24 -18 -11
-41 7 -33 26 7 18 17 18 34 -2z"/>
<path fill="#ffffff" stroke="none" d="M243 23 c-7 -2 -19 -2 -25 0 -7 3 -2 5
12 5 14 0 19 -2 13 -5z"/>
</g>
</svg>
