<?xml version="1.0" standalone="no"?>
<!DOCTYPE svg PUBLIC "-//W3C//DTD SVG 20010904//EN"
 "http://www.w3.org/TR/2001/REC-SVG-20010904/DTD/svg10.dtd">
<svg version="1.0" xmlns="http://www.w3.org/2000/svg"
 width="32.000000pt" height="32.000000pt" viewBox="0 0 32.000000 32.000000"
 preserveAspectRatio="xMidYMid meet">
<metadata>
Created by potrace 1.16, written by Peter Selinger 2001-2019
</metadata>
<g transform="translate(0.000000,32.000000) scale(0.100000,-0.100000)"
fill="#000000" stroke="none">
<path fill="#000000" stroke="none" d="M0 160 c0 -135 2 -160 15 -160 28 0 55
32 49 57 -7 25 19 63 42 63 16 0 27 17 16 24 -5 3 -19 -4 -31 -16 -17 -15 -26
-17 -34 -9 -6 6 -19 11 -29 11 -12 0 -18 7 -18 21 0 18 4 20 25 15 20 -5 27
-1 40 24 9 16 20 30 26 30 5 0 3 10 -5 22 -9 12 -16 32 -16 43 0 15 5 11 18
-15 12 -25 18 -30 20 -17 2 9 7 15 11 13 4 -3 7 5 7 17 -1 13 5 22 14 22 9 0
15 -9 14 -22 0 -12 3 -20 8 -17 4 3 8 12 8 20 0 8 5 12 10 9 7 -4 6 -13 -1
-27 -9 -18 -8 -19 10 -13 22 7 28 -4 11 -21 -6 -6 5 -9 31 -9 50 0 71 -24 67
-75 -3 -41 -33 -51 -33 -11 -1 36 -29 50 -54 27 -19 -17 -20 -43 -1 -31 4 3
11 -2 14 -10 3 -9 -1 -18 -9 -21 -9 -4 -15 -19 -15 -35 0 -26 -3 -29 -35 -29
-21 0 -35 5 -35 13 -1 16 -30 -23 -30 -40 0 -9 14 -13 44 -13 38 0 45 3 54 27
6 16 12 37 14 47 5 30 26 31 39 2 9 -19 9 -29 1 -39 -15 -18 3 -37 35 -37 l23
0 0 160 0 160 -160 0 -160 0 0 -160z"/>
<path fill="#000000" stroke="none" d="M108 204 c-8 -7 32 -54 46 -54 5 0 3 6
-6 13 -8 6 -20 20 -25 30 -5 10 -12 15 -15 11z"/>
<path fill="#000000" stroke="none" d="M180 187 c-12 -21 -12 -21 6 -7 10 8
20 15 22 16 2 1 -1 4 -5 7 -5 3 -15 -4 -23 -16z"/>
</g>
</svg>
