<?xml version="1.0" standalone="no"?>
<!DOCTYPE svg PUBLIC "-//W3C//DTD SVG 20010904//EN"
 "http://www.w3.org/TR/2001/REC-SVG-20010904/DTD/svg10.dtd">
<svg version="1.0" xmlns="http://www.w3.org/2000/svg"
 width="32.000000pt" height="32.000000pt" viewBox="0 0 32.000000 32.000000"
 preserveAspectRatio="xMidYMid meet">
<metadata>
Created by potrace 1.16, written by Peter Selinger 2001-2019
</metadata>
<g transform="translate(0.000000,32.000000) scale(0.100000,-0.100000)"
fill="#000000" stroke="none">
<path fill="#000000" stroke="none" d="M20 161 l0 -159 140 0 140 -1 0 160 0
159 -140 0 -140 0 0 -159z"/>
<path fill="#ffffff" stroke="none" d="M208 287 c27 -2 36 -17 10 -17 -6 0
-20 -7 -30 -17 -17 -15 -23 -11 -20 18 1 3 -5 6 -12 6 -7 0 -13 -9 -12 -21 1
-14 8 -20 26 -21 14 -1 34 -7 45 -13 23 -12 60 -95 51 -117 -10 -28 -22 -15
-20 20 2 19 -1 35 -7 35 -6 0 -7 5 -4 10 3 6 1 10 -4 10 -6 0 -11 7 -11 16 0
12 -3 14 -13 6 -8 -7 -18 -6 -31 4 -11 8 -24 10 -30 5 -6 -4 -24 -11 -40 -15
-15 -4 -26 -10 -22 -13 10 -10 -25 -42 -40 -36 -22 8 -17 35 5 28 14 -4 21 0
26 15 3 11 13 20 21 20 8 0 12 5 9 10 -3 6 1 10 9 10 25 0 18 30 -9 40 -32 12
-31 15 2 18 15 1 31 6 37 12 6 6 14 6 22 -1 6 -5 25 -11 42 -12z"/>
<path fill="#ffffff" stroke="none" d="M196 156 c1 -14 4 -29 7 -33 4 -3 1
-13 -6 -21 -9 -12 -9 -14 0 -9 8 5 14 -2 19 -20 3 -15 7 -33 9 -40 2 -7 0 -15
-5 -18 -6 -4 -10 0 -10 7 0 9 -3 9 -10 -2 -6 -9 -10 -10 -10 -3 0 6 5 15 10
18 17 10 11 36 -12 55 -17 13 -20 21 -12 31 13 18 12 59 -1 59 -5 0 -10 -12
-10 -27 0 -30 -23 -65 -37 -57 -4 3 -5 -8 -2 -24 4 -19 1 -32 -10 -41 -14 -11
-16 -11 -16 3 0 9 4 16 10 16 5 0 8 17 7 38 -2 28 1 36 13 34 12 -3 13 -1 3 9
-18 18 -16 39 4 61 14 16 19 17 37 4 12 -7 21 -25 22 -40z"/>
</g>
</svg>
