<?xml version="1.0" standalone="no"?>
<!DOCTYPE svg PUBLIC "-//W3C//DTD SVG 20010904//EN"
 "http://www.w3.org/TR/2001/REC-SVG-20010904/DTD/svg10.dtd">
<svg version="1.0" xmlns="http://www.w3.org/2000/svg"
 width="32.000000pt" height="32.000000pt" viewBox="0 0 32.000000 32.000000"
 preserveAspectRatio="xMidYMid meet">
<metadata>
Created by potrace 1.16, written by Peter Selinger 2001-2019
</metadata>
<g transform="translate(0.000000,32.000000) scale(0.100000,-0.100000)"
fill="#000000" stroke="none">
<path fill="#000000" stroke="none" d="M0 160 l0 -160 160 0 160 0 0 160 0
160 -160 0 -160 0 0 -160z"/>
<path fill="#ffffff" stroke="none" d="M180 300 c0 -17 -31 -60 -44 -60 -6 0
-4 5 4 10 12 8 11 10 -7 10 -25 0 -30 19 -11 38 15 15 58 16 58 2z"/>
<path fill="#ffffff" stroke="none" d="M290 236 c0 -3 -7 -3 -15 0 -8 4 -15
13 -15 21 0 12 2 12 15 -1 8 -8 15 -17 15 -20z"/>
<path fill="#ffffff" stroke="none" d="M31 227 c-6 -8 -7 -18 -3 -22 4 -5 1
-5 -6 -1 -10 6 -10 11 -1 22 6 8 14 14 16 14 3 0 0 -6 -6 -13z"/>
<path fill="#ffffff" stroke="none" d="M160 220 c-6 -11 -13 -20 -16 -20 -2 0
0 9 6 20 6 11 13 20 16 20 2 0 0 -9 -6 -20z"/>
<path fill="#ffffff" stroke="none" d="M140 168 c0 -15 -28 -8 -34 8 -3 8 -10
12 -16 9 -11 -7 -14 8 -4 18 7 7 53 -24 54 -35z"/>
<path fill="#ffffff" stroke="none" d="M211 176 c-10 -12 -61 -20 -61 -10 0 3
10 14 23 24 24 20 56 8 38 -14z"/>
<path fill="#ffffff" stroke="none" d="M280 200 c0 -5 -5 -10 -11 -10 -5 0 -7
5 -4 10 3 6 8 10 11 10 2 0 4 -4 4 -10z"/>
<path fill="#ffffff" stroke="none" d="M242 168 c-7 -7 -12 -8 -12 -2 0 6 3
14 7 17 3 4 9 5 12 2 2 -3 -1 -11 -7 -17z"/>
<path fill="#ffffff" stroke="none" d="M93 164 c10 -10 -16 -42 -30 -37 -7 3
-13 9 -13 14 0 4 7 6 15 3 11 -5 13 -2 9 10 -6 16 6 22 19 10z"/>
<path fill="#ffffff" stroke="none" d="M155 110 c-3 -5 -10 -10 -16 -10 -5 0
-9 5 -9 10 0 6 7 10 16 10 8 0 12 -4 9 -10z"/>
<path fill="#ffffff" stroke="none" d="M175 66 c21 -20 23 -25 11 -36 -11 -9
-19 -9 -33 0 -16 10 -16 10 4 5 12 -3 24 -1 28 5 4 6 1 11 -6 9 -8 -1 -25 -1
-39 0 -20 1 -22 3 -10 11 13 8 12 10 -2 10 -10 0 -18 5 -18 10 0 18 39 10 65
-14z"/>
<path fill="#ffffff" stroke="none" d="M283 55 c-3 -9 -8 -14 -10 -11 -3 3 -2
9 2 15 9 16 15 13 8 -4z"/>
<path fill="#ffffff" stroke="none" d="M251 45 l9 20 -3 -20 c-2 -22 -21 -24
-23 -3 0 7 1 6 4 -2 4 -12 7 -11 13 5z"/>
</g>
</svg>
