<?xml version="1.0" standalone="no"?>
<!DOCTYPE svg PUBLIC "-//W3C//DTD SVG 20010904//EN"
 "http://www.w3.org/TR/2001/REC-SVG-20010904/DTD/svg10.dtd">
<svg version="1.0" xmlns="http://www.w3.org/2000/svg"
 width="32.000000pt" height="32.000000pt" viewBox="0 0 32.000000 32.000000"
 preserveAspectRatio="xMidYMid meet">
<metadata>
Created by potrace 1.16, written by Peter Selinger 2001-2019
</metadata>
<g transform="translate(0.000000,32.000000) scale(0.100000,-0.100000)"
fill="#000000" stroke="none">
<path fill="#000000" stroke="none" d="M0 160 l0 -160 160 0 160 0 0 160 0
160 -160 0 -160 0 0 -160z"/>
<path fill="#ffffff" stroke="none" d="M188 282 c2 -13 -1 -28 -6 -35 -18 -24
-22 -46 -6 -40 8 3 23 -2 33 -11 16 -14 20 -15 30 -2 8 10 9 16 1 21 -16 10
-12 25 5 19 11 -4 15 1 15 17 0 22 1 22 18 6 14 -15 15 -19 3 -26 -11 -7 -11
-9 0 -13 10 -4 6 -13 -13 -33 -16 -15 -28 -31 -28 -34 0 -4 -20 -6 -45 -5 -38
2 -44 0 -34 -12 6 -8 16 -11 21 -8 6 4 5 -3 -2 -15 -9 -17 -9 -26 1 -37 21
-26 111 -12 95 15 -4 6 -2 11 4 11 17 0 23 -27 10 -50 -6 -12 -14 -19 -17 -16
-4 3 -12 1 -19 -4 -21 -18 -107 -23 -127 -8 -28 21 -32 73 -8 97 19 19 19 25
-1 22 -5 0 -8 4 -8 10 0 6 -9 1 -20 -12 l-20 -24 -31 33 c-21 23 -29 42 -27
60 3 29 27 43 24 15 0 -10 5 -17 12 -15 8 1 11 -2 7 -8 -3 -6 -11 -8 -16 -5
-5 4 -9 2 -9 -4 0 -6 9 -15 20 -21 16 -9 22 -7 27 7 3 10 15 27 26 38 20 18
20 18 14 0 -5 -11 -3 -22 5 -27 18 -11 28 -10 28 2 0 6 -7 10 -15 10 -13 0
-14 4 -5 20 6 11 7 20 3 19 -36 -6 -42 13 -17 49 21 31 68 27 72 -6z"/>
</g>
</svg>
