<?xml version="1.0" standalone="no"?>
<!DOCTYPE svg PUBLIC "-//W3C//DTD SVG 20010904//EN"
 "http://www.w3.org/TR/2001/REC-SVG-20010904/DTD/svg10.dtd">
<svg version="1.0" xmlns="http://www.w3.org/2000/svg"
 width="32.000000pt" height="32.000000pt" viewBox="0 0 32.000000 32.000000"
 preserveAspectRatio="xMidYMid meet">
<metadata>
Created by potrace 1.16, written by Peter Selinger 2001-2019
</metadata>
<g transform="translate(0.000000,32.000000) scale(0.100000,-0.100000)"
fill="#000000" stroke="none">
<path fill="#000000" stroke="none" d="M0 160 l0 -160 160 0 160 0 0 160 0
160 -160 0 -160 0 0 -160z"/>
<path fill="#ffffff" stroke="none" d="M190 212 c0 -8 -30 -32 -40 -32 -10 0
-40 24 -40 32 0 2 18 3 40 3 22 0 40 -1 40 -3z"/>
<path fill="#ffffff" stroke="none" d="M215 154 c14 -15 22 -31 18 -37 -4 -6
-9 -2 -14 9 -4 11 -14 26 -23 33 -23 19 -32 -10 -13 -41 21 -33 30 -68 18 -68
-6 0 -10 3 -9 7 4 14 -23 53 -36 53 -15 0 -30 -27 -27 -47 1 -7 -2 -13 -8 -13
-15 0 -5 48 14 70 19 20 11 50 -8 31 -14 -14 -44 -14 -53 1 -5 7 -2 9 8 5 9
-3 33 1 54 8 52 19 51 19 79 -11z"/>
</g>
</svg>
