<?xml version="1.0" standalone="no"?>
<!DOCTYPE svg PUBLIC "-//W3C//DTD SVG 20010904//EN"
 "http://www.w3.org/TR/2001/REC-SVG-20010904/DTD/svg10.dtd">
<svg version="1.0" xmlns="http://www.w3.org/2000/svg"
 width="32.000000pt" height="32.000000pt" viewBox="0 0 32.000000 32.000000"
 preserveAspectRatio="xMidYMid meet">
<metadata>
Created by potrace 1.16, written by Peter Selinger 2001-2019
</metadata>
<g transform="translate(0.000000,32.000000) scale(0.100000,-0.100000)"
fill="#000000" stroke="none">
<path fill="#000000" stroke="none" d="M0 160 l0 -160 160 0 160 0 0 160 0
160 -160 0 -160 0 0 -160z"/>
<path fill="#ffffff" stroke="none" d="M50 295 c-11 -13 -10 -14 6 -8 16 6 17
5 6 -9 -10 -13 -10 -18 -1 -24 9 -5 7 -10 -5 -20 -14 -10 -15 -16 -6 -33 6
-12 13 -21 16 -21 3 0 3 4 0 9 -3 5 1 14 9 21 13 10 19 10 33 -3 24 -21 80
-28 67 -8 -6 10 11 24 32 27 7 1 18 -5 25 -14 12 -16 11 -16 -6 -2 -19 15 -19
14 -2 -12 17 -26 35 -41 21 -18 -4 6 -1 18 6 26 10 13 10 17 -2 25 -8 5 -10 9
-5 9 5 0 3 7 -4 16 -11 12 -11 15 1 12 8 -2 13 2 12 9 -2 8 4 10 14 6 11 -4
14 -3 9 5 -4 7 -5 12 -2 12 13 0 36 -73 26 -85 -5 -6 -7 -14 -4 -18 3 -3 -8
-12 -24 -21 -26 -14 -31 -14 -42 -1 -20 25 -26 17 -25 -30 2 -35 -1 -43 -11
-34 -8 7 -14 7 -19 -1 -3 -5 -13 -10 -22 -10 -8 0 -26 -9 -41 -20 -36 -29 -54
-9 -23 24 13 14 26 25 30 24 3 0 20 0 36 1 23 1 27 3 15 11 -13 9 -13 10 0 10
13 0 13 2 1 9 -8 5 -21 7 -28 4 -8 -3 -25 0 -38 7 -18 10 -28 10 -38 2 -11 -9
-19 -6 -36 12 -19 20 -21 30 -15 62 7 41 20 64 36 64 6 0 5 -7 -2 -15z"/>
<path fill="#ffffff" stroke="none" d="M175 260 c0 -50 -22 -73 -52 -54 -22
13 -29 98 -9 91 7 -3 19 -1 27 4 24 15 33 4 34 -41z"/>
<path fill="#ffffff" stroke="none" d="M147 144 c-3 -3 -12 -4 -19 -1 -8 3 -5
6 6 6 11 1 17 -2 13 -5z"/>
<path fill="#ffffff" stroke="none" d="M212 95 c9 0 48 -51 48 -63 0 -15 -36
-25 -60 -17 -15 5 -19 12 -15 25 3 10 2 21 -4 24 -8 5 -8 18 -2 44 1 2 7 0 14
-5 6 -4 15 -8 19 -8z"/>
<path fill="#ffffff" stroke="none" d="M81 46 c5 3 9 1 9 -5 0 -5 -4 -13 -10
-16 -5 -3 -10 -1 -10 5 0 6 -4 8 -10 5 -11 -7 -14 8 -3 19 4 4 9 2 11 -3 2 -6
8 -9 13 -5z"/>
<path fill="#ffffff" stroke="none" d="M115 51 c3 -5 1 -12 -5 -16 -5 -3 -10
1 -10 9 0 18 6 21 15 7z"/>
<path fill="#000000" stroke="none" d="M105 109 c-3 -4 2 -6 10 -5 21 3 28 13
10 13 -9 0 -18 -4 -20 -8z"/>
<path fill="#000000" stroke="none" d="M128 243 c6 -2 10 -9 7 -14 -4 -5 1 -6
9 -3 20 8 11 24 -12 23 -11 0 -12 -2 -4 -6z"/>
</g>
</svg>
