<?xml version="1.0" standalone="no"?>
<!DOCTYPE svg PUBLIC "-//W3C//DTD SVG 20010904//EN"
 "http://www.w3.org/TR/2001/REC-SVG-20010904/DTD/svg10.dtd">
<svg version="1.0" xmlns="http://www.w3.org/2000/svg"
 width="32.000000pt" height="32.000000pt" viewBox="0 0 32.000000 32.000000"
 preserveAspectRatio="xMidYMid meet">
<metadata>
Created by potrace 1.16, written by Peter Selinger 2001-2019
</metadata>
<g transform="translate(0.000000,32.000000) scale(0.100000,-0.100000)"
fill="#000000" stroke="none">
<path fill="#000000" stroke="none" d="M33 298 c-6 -7 -14 -30 -17 -52 -6 -32
-4 -42 15 -62 17 -18 25 -21 36 -12 10 8 20 8 38 -2 13 -7 30 -10 38 -7 7 3
20 1 28 -4 12 -7 12 -9 -1 -9 -13 0 -13 -1 0 -10 12 -8 8 -10 -15 -11 -16 -1
-33 -1 -36 -1 -4 1 -17 -10 -30 -24 -31 -33 -13 -53 23 -24 15 11 33 20 41 20
9 0 19 5 22 10 5 8 11 8 19 1 10 -9 13 -1 11 34 -1 47 5 55 25 30 11 -13 16
-13 42 1 16 9 27 18 24 21 -3 4 -1 12 4 18 10 12 -13 85 -26 85 -3 0 -2 -5 2
-12 5 -8 2 -9 -9 -5 -10 4 -16 2 -14 -6 1 -7 -4 -11 -12 -9 -12 3 -12 0 -1
-12 7 -9 9 -16 4 -16 -5 0 -3 -4 5 -9 12 -8 12 -12 2 -25 -7 -8 -10 -20 -6
-26 14 -23 -4 -8 -21 18 -17 26 -17 27 2 12 17 -14 18 -14 6 2 -7 9 -18 15
-25 14 -21 -3 -38 -17 -32 -27 13 -20 -43 -13 -67 8 -14 13 -20 13 -33 3 -8
-7 -12 -16 -9 -21 3 -5 3 -9 0 -9 -3 0 -10 9 -16 21 -9 17 -8 23 6 33 12 10
14 15 5 20 -9 6 -9 11 1 24 11 14 10 15 -6 9 -16 -6 -17 -5 -6 8 7 8 8 15 2
15 -5 0 -14 -6 -19 -12z"/>
<path fill="#ffffff" stroke="none" d="M135 111 c-9 -8 -36 -10 -30 -2 2 4 11
8 20 8 8 0 13 -3 10 -6z"/>
<path fill="#000000" stroke="none" d="M141 301 c-8 -5 -20 -7 -27 -4 -20 7
-13 -78 9 -91 30 -19 52 4 52 54 -1 45 -10 56 -34 41z"/>
<path fill="#ffffff" stroke="none" d="M154 241 c3 -5 -1 -12 -10 -15 -8 -3
-13 -2 -9 3 3 5 -1 12 -7 14 -8 4 -7 6 4 6 9 1 19 -3 22 -8z"/>
<path fill="#000000" stroke="none" d="M128 143 c7 -3 16 -2 19 1 4 3 -2 6
-13 5 -11 0 -14 -3 -6 -6z"/>
<path fill="#000000" stroke="none" d="M179 108 c-6 -26 -6 -39 2 -44 6 -3 7
-14 4 -24 -4 -13 0 -20 15 -25 24 -8 60 2 60 17 0 12 -39 63 -48 63 -4 0 -13
4 -19 8 -7 5 -13 7 -14 5z"/>
<path fill="#000000" stroke="none" d="M57 54 c-11 -11 -8 -26 3 -19 6 3 10 1
10 -5 0 -6 5 -8 10 -5 6 3 10 11 10 16 0 6 -4 8 -9 5 -5 -4 -11 -1 -13 5 -2 5
-7 7 -11 3z"/>
<path fill="#000000" stroke="none" d="M100 44 c0 -8 5 -12 10 -9 6 4 8 11 5
16 -9 14 -15 11 -15 -7z"/>
</g>
</svg>
