<?xml version="1.0" standalone="no"?>
<!DOCTYPE svg PUBLIC "-//W3C//DTD SVG 20010904//EN"
 "http://www.w3.org/TR/2001/REC-SVG-20010904/DTD/svg10.dtd">
<svg version="1.0" xmlns="http://www.w3.org/2000/svg"
 width="32.000000pt" height="32.000000pt" viewBox="0 0 32.000000 32.000000"
 preserveAspectRatio="xMidYMid meet">
<metadata>
Created by potrace 1.16, written by Peter Selinger 2001-2019
</metadata>
<g transform="translate(0.000000,32.000000) scale(0.100000,-0.100000)"
fill="#000000" stroke="none">
<path fill="#000000" stroke="none" d="M295 301 c-3 -6 -11 -9 -16 -5 -6 3
-19 -2 -29 -11 -15 -14 -17 -22 -9 -37 9 -16 8 -19 -2 -13 -9 6 -10 3 -6 -10
5 -11 -5 -7 -28 14 -39 34 -78 40 -112 16 -14 -10 -24 -12 -28 -5 -9 14 -25 3
-19 -13 2 -7 -5 -30 -16 -52 -27 -53 -25 -81 5 -101 20 -13 28 -14 40 -4 10 8
12 17 6 24 -5 6 -11 16 -13 21 -1 6 -8 10 -15 10 -6 0 -15 4 -20 9 -4 5 -3 6
5 2 6 -4 12 -2 12 4 0 6 17 1 38 -11 38 -22 38 -23 20 -41 -27 -27 -17 -43 28
-44 45 -2 71 -7 80 -17 10 -10 44 -9 44 1 0 5 11 14 25 20 31 14 32 38 3 53
-13 6 -25 13 -26 15 -2 1 11 16 29 32 29 26 32 33 23 53 -7 15 -8 36 -3 54 9
30 -3 56 -16 36z"/>
<path fill="#ffffff" stroke="none" d="M288 278 c11 -14 9 -62 -3 -92 -6 -15
-5 -17 5 -11 8 5 11 4 7 -2 -9 -14 -57 -4 -57 13 0 7 5 16 12 20 7 5 9 2 4 -7
-4 -8 -1 -6 7 3 8 10 17 15 20 11 4 -3 7 -1 7 5 0 7 -4 12 -10 12 -5 0 -9 5
-7 12 1 7 -4 13 -10 14 -7 1 -16 2 -19 3 -9 1 16 31 26 31 4 0 12 -6 18 -12z"/>
<path fill="#ffffff" stroke="none" d="M187 245 c13 -9 23 -20 23 -25 0 -6 -9
-1 -20 10 -11 11 -29 20 -40 20 -10 0 -24 -9 -30 -20 -14 -27 -56 -26 -63 1
-5 19 -4 20 12 5 20 -19 41 -21 41 -5 0 6 -8 8 -17 5 -16 -6 -17 -5 -2 7 24
18 69 19 96 2z"/>
<path fill="#ffffff" stroke="none" d="M171 205 c7 -19 17 -35 23 -35 5 0 7
-3 3 -6 -3 -4 0 -22 8 -41 17 -39 5 -76 -20 -67 -11 5 -12 11 -4 25 6 12 6 19
0 19 -5 0 -12 -6 -14 -12 -4 -10 -6 -10 -6 0 -1 7 6 15 14 18 22 9 18 36 -10
74 -26 35 -32 60 -16 60 5 0 15 -16 22 -35z"/>
<path fill="#ffffff" stroke="none" d="M86 191 c-4 -5 0 -12 6 -14 8 -4 9 -6
2 -6 -6 -1 -17 6 -24 14 -10 12 -9 15 4 15 10 0 15 -4 12 -9z"/>
<path fill="#ffffff" stroke="none" d="M166 146 c10 -8 16 -17 12 -21 -4 -4
-17 2 -29 14 -26 24 -13 29 17 7z"/>
<path fill="#ffffff" stroke="none" d="M267 154 c-3 -3 -12 -4 -19 -1 -8 3 -5
6 6 6 11 1 17 -2 13 -5z"/>
<path fill="#ffffff" stroke="none" d="M33 110 c3 -11 1 -18 -4 -14 -5 3 -9
12 -9 20 0 20 7 17 13 -6z"/>
<path fill="#ffffff" stroke="none" d="M65 121 c-3 -5 -1 -12 5 -16 13 -8 3
-25 -13 -25 -7 0 -6 4 3 10 12 8 12 10 -4 16 -14 5 -15 9 -4 15 17 11 20 11
13 0z"/>
<path fill="#000000" stroke="none" d="M254 269 c-5 -8 -3 -9 6 -4 7 4 16 2
22 -6 8 -12 9 -12 6 0 -6 20 -24 25 -34 10z"/>
<path fill="#000000" stroke="none" d="M197 93 c-4 -3 -7 -13 -7 -22 1 -13 3
-13 11 2 11 19 8 33 -4 20z"/>
</g>
</svg>
