<?xml version="1.0" standalone="no"?>
<!DOCTYPE svg PUBLIC "-//W3C//DTD SVG 20010904//EN"
 "http://www.w3.org/TR/2001/REC-SVG-20010904/DTD/svg10.dtd">
<svg version="1.0" xmlns="http://www.w3.org/2000/svg"
 width="32.000000pt" height="32.000000pt" viewBox="0 0 32.000000 32.000000"
 preserveAspectRatio="xMidYMid meet">
<metadata>
Created by potrace 1.16, written by Peter Selinger 2001-2019
</metadata>
<g transform="translate(0.000000,32.000000) scale(0.100000,-0.100000)"
fill="#000000" stroke="none">
<path fill="#000000" stroke="none" d="M0 160 l0 -160 160 0 160 0 0 91 0 91
-29 -24 c-37 -28 -37 -32 -6 -46 14 -6 25 -19 25 -27 0 -8 -11 -21 -25 -27
-14 -6 -25 -15 -25 -20 0 -13 -36 -9 -49 5 -6 8 -7 18 -3 22 4 5 1 5 -6 1 -7
-4 -10 -12 -7 -17 3 -5 -1 -6 -9 -3 -9 3 -14 10 -11 15 3 4 -8 3 -25 -2 -53
-19 -77 4 -42 39 18 18 17 19 -20 41 -21 12 -38 17 -38 12 0 -5 7 -12 16 -15
14 -5 14 -9 3 -23 -8 -10 -9 -14 -2 -10 18 11 25 -9 8 -23 -12 -10 -20 -9 -40
4 -30 20 -32 48 -5 101 11 22 18 45 16 52 -6 16 10 27 19 13 4 -7 14 -5 28 5
33 23 73 18 110 -15 l34 -29 -2 29 c-2 31 26 67 44 56 5 -4 12 -2 16 4 4 6 11
8 16 5 5 -4 9 -1 9 4 0 7 -54 11 -160 11 l-160 0 0 -160z"/>
<path fill="#000000" stroke="none" d="M250 276 c0 -2 7 -9 15 -16 9 -7 15 -8
15 -2 0 5 -7 12 -15 16 -8 3 -15 4 -15 2z"/>
<path fill="#000000" stroke="none" d="M308 256 c-3 -14 -1 -31 3 -38 6 -8 9
1 9 25 0 42 -6 48 -12 13z"/>
<path fill="#000000" stroke="none" d="M266 205 c-3 -9 -10 -13 -16 -10 -5 3
-10 -1 -10 -9 0 -9 8 -16 19 -16 21 0 36 29 23 42 -6 6 -12 3 -16 -7z"/>
<path fill="#000000" stroke="none" d="M149 139 c12 -12 25 -18 29 -14 4 4 -2
13 -12 21 -30 22 -43 17 -17 -7z"/>
</g>
</svg>
