<?xml version="1.0" standalone="no"?>
<!DOCTYPE svg PUBLIC "-//W3C//DTD SVG 20010904//EN"
 "http://www.w3.org/TR/2001/REC-SVG-20010904/DTD/svg10.dtd">
<svg version="1.0" xmlns="http://www.w3.org/2000/svg"
 width="32.000000pt" height="32.000000pt" viewBox="0 0 32.000000 32.000000"
 preserveAspectRatio="xMidYMid meet">
<metadata>
Created by potrace 1.16, written by Peter Selinger 2001-2019
</metadata>
<g transform="translate(0.000000,32.000000) scale(0.100000,-0.100000)"
fill="#000000" stroke="none">
<path fill="#000000" stroke="none" d="M187 296 c-4 -9 -14 -12 -28 -9 -15 4
-20 2 -17 -7 2 -7 15 -14 28 -15 27 -2 55 19 45 35 -9 14 -22 12 -28 -4z"/>
<path fill="#000000" stroke="none" d="M240 270 c-8 -5 -24 -11 -34 -15 -15
-4 -16 -9 -8 -17 9 -9 17 -7 33 8 12 10 24 18 27 16 4 -2 8 1 10 7 4 13 -7 13
-28 1z"/>
<path fill="#000000" stroke="none" d="M205 209 c-4 -6 -5 -13 -2 -16 7 -7 27
6 27 18 0 12 -17 12 -25 -2z"/>
<path fill="#000000" stroke="none" d="M154 159 c-3 -6 0 -18 9 -26 13 -13 18
-13 41 2 15 10 24 20 22 23 -3 3 -12 -1 -21 -8 -14 -11 -19 -7 -16 13 2 11
-27 8 -35 -4z"/>
<path fill="#000000" stroke="none" d="M135 80 c-3 -5 -2 -10 4 -10 5 0 13 5
16 10 3 6 2 10 -4 10 -5 0 -13 -4 -16 -10z"/>
<path fill="#000000" stroke="none" d="M61 44 c-13 -14 -19 -30 -14 -35 11
-11 124 1 117 13 -3 5 -11 8 -17 7 -7 -1 -22 2 -35 6 -21 7 -21 8 -5 21 17 13
17 13 -3 14 -11 0 -31 -12 -43 -26z"/>
<path fill="#000000" stroke="none" d="M182 49 c2 -6 7 -10 11 -10 4 1 14 1
23 1 8 0 12 5 9 10 -8 13 -48 13 -43 -1z"/>
<path fill="#000000" stroke="none" d="M200 20 c0 -5 9 -10 21 -10 11 0 17 4
14 10 -8 13 -35 13 -35 0z"/>
<path fill="#000000" stroke="none" d="M255 20 c-3 -5 -1 -10 4 -10 6 0 11 5
11 10 0 6 -2 10 -4 10 -3 0 -8 -4 -11 -10z"/>
</g>
</svg>
