<?xml version="1.0" standalone="no"?>
<!DOCTYPE svg PUBLIC "-//W3C//DTD SVG 20010904//EN"
 "http://www.w3.org/TR/2001/REC-SVG-20010904/DTD/svg10.dtd">
<svg version="1.0" xmlns="http://www.w3.org/2000/svg"
 width="32.000000pt" height="32.000000pt" viewBox="0 0 32.000000 32.000000"
 preserveAspectRatio="xMidYMid meet">
<metadata>
Created by potrace 1.16, written by Peter Selinger 2001-2019
</metadata>
<g transform="translate(0.000000,32.000000) scale(0.100000,-0.100000)"
fill="#000000" stroke="none">
<path fill="#000000" stroke="none" d="M0 160 l0 -160 94 0 c66 0 97 4 105 13
13 17 4 28 -17 20 -11 -5 -13 -3 -7 7 5 9 4 11 -4 6 -6 -4 -18 -2 -26 4 -10 8
-15 9 -15 2 0 -6 -9 -16 -20 -22 -19 -10 -20 -9 -9 8 9 14 9 27 1 50 -9 25 -8
33 6 44 9 7 13 8 9 2 -4 -7 1 -18 10 -25 10 -8 14 -9 10 -2 -4 6 -3 15 3 18 6
4 10 3 9 -2 -1 -4 -1 -15 0 -23 1 -13 2 -13 11 0 5 8 10 11 10 6 0 -5 7 -3 15
4 8 7 15 9 15 4 0 -4 7 1 15 12 13 17 13 16 5 -16 -7 -25 -7 -42 1 -57 9 -17
9 -26 -1 -38 -11 -13 -6 -15 44 -15 l56 0 0 159 0 160 -160 0 -160 1 0 -160z"/>
<path fill="#ffffff" stroke="none" d="M182 288 c-16 -16 -15 -25 4 -32 8 -3
12 -2 9 4 -3 6 1 10 9 10 8 0 18 -10 21 -21 6 -17 9 -19 16 -8 7 11 9 11 9 1
0 -8 7 -11 18 -8 14 5 17 -1 20 -32 2 -36 2 -37 -13 -14 -9 12 -20 22 -26 22
-16 0 -10 -26 10 -44 20 -18 35 -56 21 -56 -4 0 -19 9 -33 21 -21 16 -31 18
-47 9 -11 -6 -20 -15 -20 -21 0 -6 -4 -7 -10 -4 -5 3 -10 11 -10 16 0 6 4 8 9
4 16 -9 23 14 9 28 -38 36 -140 -1 -118 -43 13 -24 13 -30 0 -30 -6 0 -15 12
-21 27 -8 21 -6 30 11 48 22 24 26 45 8 45 -6 0 -8 3 -5 7 4 3 2 12 -4 19 -8
10 -6 13 8 13 61 1 75 5 90 27 8 13 22 24 31 24 12 0 13 -3 4 -12z"/>
<path fill="#000000" stroke="none" d="M84 228 c-4 -7 -4 -10 1 -6 4 4 15 2
24 -5 14 -11 14 -10 2 6 -16 20 -18 21 -27 5z"/>
<path fill="#000000" stroke="none" d="M159 213 c-12 -16 -12 -17 2 -6 9 7 20
9 24 5 5 -4 5 -1 1 6 -9 16 -11 15 -27 -5z"/>
</g>
</svg>
