<?xml version="1.0" standalone="no"?>
<!DOCTYPE svg PUBLIC "-//W3C//DTD SVG 20010904//EN"
 "http://www.w3.org/TR/2001/REC-SVG-20010904/DTD/svg10.dtd">
<svg version="1.0" xmlns="http://www.w3.org/2000/svg"
 width="32.000000pt" height="32.000000pt" viewBox="0 0 32.000000 32.000000"
 preserveAspectRatio="xMidYMid meet">
<metadata>
Created by potrace 1.16, written by Peter Selinger 2001-2019
</metadata>
<g transform="translate(0.000000,32.000000) scale(0.100000,-0.100000)"
fill="#000000" stroke="none">
<path fill="#000000" stroke="none" d="M0 160 l0 -160 160 1 160 0 0 159 0
159 -160 0 -160 1 0 -160z"/>
<path fill="#ffffff" stroke="none" d="M182 288 c-16 -16 -15 -25 4 -32 8 -3
12 -2 9 4 -3 6 1 10 10 10 11 0 15 -5 11 -16 -3 -8 -2 -12 4 -9 6 3 10 0 11
-7 0 -11 2 -11 6 0 4 10 8 9 19 -5 8 -11 13 -13 14 -5 0 27 15 10 16 -20 1
-27 0 -29 -11 -15 -7 9 -17 17 -24 17 -18 0 -13 -38 7 -52 22 -15 39 -53 19
-42 -6 4 -23 16 -35 28 l-24 21 -23 -27 c-21 -25 -35 -27 -35 -6 0 5 4 7 9 3
6 -3 15 3 21 14 9 17 8 19 -5 15 -8 -4 -15 -2 -15 3 0 5 -19 9 -42 9 -36 0
-45 5 -59 30 -20 33 -23 48 -9 39 5 -3 18 -1 29 4 14 8 20 7 24 -4 4 -9 1 -12
-7 -9 -8 3 -17 -1 -22 -8 -4 -7 -4 -10 1 -6 4 4 14 3 22 -3 9 -9 13 -8 14 0 3
21 5 26 23 54 10 15 25 27 34 27 12 0 13 -3 4 -12z"/>
<path fill="#ffffff" stroke="none" d="M66 155 c-19 -19 -19 -21 -6 -46 6 -10
7 -19 2 -19 -5 0 -14 12 -21 27 -11 25 -10 29 10 46 26 21 38 15 15 -8z"/>
<path fill="#ffffff" stroke="none" d="M116 131 c-3 -5 2 -15 11 -22 10 -8 14
-9 10 -2 -4 6 -3 15 3 18 6 4 10 3 9 -2 -1 -4 -1 -15 0 -23 1 -13 2 -13 11 0
5 8 10 11 10 6 0 -5 7 -3 15 4 8 7 15 9 15 4 0 -4 7 1 15 12 13 17 14 16 5
-15 -5 -18 -12 -36 -15 -39 -3 -3 2 -13 11 -23 9 -10 13 -23 9 -28 -10 -17
-25 -13 -18 5 5 13 2 15 -15 10 -14 -5 -27 -1 -41 13 -16 16 -21 17 -21 6 0
-8 -10 -19 -21 -26 -21 -11 -21 -10 -6 11 13 18 13 25 1 48 -9 19 -10 30 -2
39 12 15 22 18 14 4z"/>
<path fill="#000000" stroke="none" d="M162 228 c-17 -17 -15 -33 2 -19 11 10
17 8 25 -6 6 -10 10 -13 10 -8 0 6 -5 18 -13 27 -10 13 -15 15 -24 6z"/>
<path fill="#000000" stroke="none" d="M175 50 c-3 -5 -1 -10 4 -10 6 0 11 5
11 10 0 6 -2 10 -4 10 -3 0 -8 -4 -11 -10z"/>
</g>
</svg>
