<?xml version="1.0" standalone="no"?>
<!DOCTYPE svg PUBLIC "-//W3C//DTD SVG 20010904//EN"
 "http://www.w3.org/TR/2001/REC-SVG-20010904/DTD/svg10.dtd">
<svg version="1.0" xmlns="http://www.w3.org/2000/svg"
 width="32.000000pt" height="32.000000pt" viewBox="0 0 32.000000 32.000000"
 preserveAspectRatio="xMidYMid meet">
<metadata>
Created by potrace 1.16, written by Peter Selinger 2001-2019
</metadata>
<g transform="translate(0.000000,32.000000) scale(0.100000,-0.100000)"
fill="#000000" stroke="none">
<path fill="#000000" stroke="none" d="M116 186 c3 -9 11 -16 16 -16 13 0 5
23 -10 28 -7 2 -10 -2 -6 -12z"/>
<path fill="#000000" stroke="none" d="M71 168 c-17 -27 -9 -33 13 -9 10 10
13 21 9 24 -5 3 -15 -3 -22 -15z"/>
<path fill="#000000" stroke="none" d="M150 171 c0 -5 7 -17 16 -25 8 -9 12
-21 8 -27 -4 -8 -3 -9 4 -5 7 4 10 17 8 29 -3 12 -5 25 -5 30 -1 10 -31 9 -31
-2z"/>
<path fill="#000000" stroke="none" d="M115 138 c8 -20 -10 -25 -18 -5 -4 9
-6 9 -6 0 -1 -18 19 -27 32 -14 8 8 8 14 -2 24 -10 10 -11 9 -6 -5z"/>
<path fill="#000000" stroke="none" d="M131 96 c-10 -12 -18 -13 -33 -5 -16 9
-19 8 -16 -3 6 -16 38 -21 57 -9 7 5 12 14 9 21 -3 9 -7 8 -17 -4z"/>
<path fill="#000000" stroke="none" d="M160 89 c0 -5 5 -7 10 -4 6 3 10 8 10
11 0 2 -4 4 -10 4 -5 0 -10 -5 -10 -11z"/>
</g>
</svg>
