<?xml version="1.0" standalone="no"?>
<!DOCTYPE svg PUBLIC "-//W3C//DTD SVG 20010904//EN"
 "http://www.w3.org/TR/2001/REC-SVG-20010904/DTD/svg10.dtd">
<svg version="1.0" xmlns="http://www.w3.org/2000/svg"
 width="32.000000pt" height="32.000000pt" viewBox="0 0 32.000000 32.000000"
 preserveAspectRatio="xMidYMid meet">
<metadata>
Created by potrace 1.16, written by Peter Selinger 2001-2019
</metadata>
<g transform="translate(0.000000,32.000000) scale(0.100000,-0.100000)"
fill="#000000" stroke="none">
<path fill="#000000" stroke="none" d="M82 290 c-18 -29 -15 -38 4 -12 9 13
14 25 12 27 -2 2 -9 -5 -16 -15z"/>
<path fill="#000000" stroke="none" d="M155 280 c-3 -6 1 -7 9 -4 18 7 21 14
7 14 -6 0 -13 -4 -16 -10z"/>
<path fill="#000000" stroke="none" d="M280 286 c0 -2 7 -7 16 -10 8 -3 12 -2
9 4 -6 10 -25 14 -25 6z"/>
<path fill="#000000" stroke="none" d="M203 269 c15 -9 16 -13 5 -27 -11 -13
-11 -14 0 -8 11 7 11 4 1 -12 -11 -17 -14 -18 -30 -4 -20 17 -59 24 -59 10 0
-4 -5 -8 -11 -8 -5 0 -7 6 -4 13 4 6 -1 3 -10 -8 -9 -11 -21 -19 -26 -18 -11
3 -49 -70 -49 -95 0 -10 5 -23 12 -30 7 -7 8 -12 4 -12 -5 0 -3 -7 4 -15 7 -8
16 -12 22 -9 5 3 16 0 25 -7 23 -20 75 -18 102 3 18 14 26 16 32 7 11 -18 39
-20 32 -3 -6 17 23 48 37 39 5 -3 10 -1 10 4 0 6 -5 11 -10 11 -7 0 -7 7 0 20
6 12 8 31 4 43 -5 12 -7 26 -6 31 2 5 -4 6 -13 3 -18 -8 -20 15 -3 46 10 20
10 21 -5 8 -16 -12 -22 -8 -18 12 1 5 -3 6 -8 3 -5 -4 -12 -2 -16 4 -3 5 -14
10 -23 10 -15 -1 -15 -2 1 -11z"/>
<path fill="#ffffff" stroke="none" d="M134 151 c4 -5 -3 -7 -13 -4 -10 3 -30
0 -42 -7 -23 -11 -23 -10 -5 4 22 18 52 21 60 7z"/>
<path fill="#ffffff" stroke="none" d="M120 130 c0 -5 -4 -10 -10 -10 -5 0
-10 5 -10 10 0 6 5 10 10 10 6 0 10 -4 10 -10z"/>
<path fill="#ffffff" stroke="none" d="M146 115 c-22 -17 -52 -20 -60 -6 -4 5
3 7 13 4 11 -3 28 0 38 6 26 15 31 13 9 -4z"/>
</g>
</svg>
