<?xml version="1.0" standalone="no"?>
<!DOCTYPE svg PUBLIC "-//W3C//DTD SVG 20010904//EN"
 "http://www.w3.org/TR/2001/REC-SVG-20010904/DTD/svg10.dtd">
<svg version="1.0" xmlns="http://www.w3.org/2000/svg"
 width="32.000000pt" height="32.000000pt" viewBox="0 0 32.000000 32.000000"
 preserveAspectRatio="xMidYMid meet">
<metadata>
Created by potrace 1.16, written by Peter Selinger 2001-2019
</metadata>
<g transform="translate(0.000000,32.000000) scale(0.100000,-0.100000)"
fill="#000000" stroke="none">
<path fill="#000000" stroke="none" d="M0 160 l0 -160 160 0 160 0 0 160 0
160 -160 0 -160 0 0 -160z"/>
<path fill="#ffffff" stroke="none" d="M110 301 c0 -5 -7 -14 -15 -21 -28 -23
-15 -29 20 -9 23 14 48 20 77 18 30 -2 42 1 40 10 -1 7 2 9 8 6 6 -4 10 -17 9
-28 -2 -36 0 -40 18 -26 9 8 19 13 22 11 3 -2 7 1 9 7 2 6 -4 11 -14 11 -14 0
-15 3 -6 12 9 9 15 9 24 0 14 -14 -6 -67 -22 -57 -6 3 -10 -1 -10 -10 0 -8 6
-18 14 -21 8 -3 12 -14 9 -27 -4 -18 -3 -19 6 -7 17 24 14 -6 -4 -40 -9 -17
-11 -30 -5 -30 5 0 10 -4 10 -10 0 -5 -3 -9 -7 -8 -16 3 -43 -15 -43 -27 0 -9
8 -12 22 -10 14 3 18 1 12 -5 -17 -17 -52 -19 -64 -4 -12 14 -35 9 -25 -6 3
-4 -4 -10 -15 -13 -11 -3 -20 -2 -20 3 0 8 -43 5 -58 -4 -6 -3 -12 1 -16 9 -3
8 -10 15 -16 15 -6 0 -8 -4 -5 -10 10 -16 0 -11 -31 15 -16 14 -23 25 -16 25
7 0 11 4 7 9 -10 18 -13 91 -3 85 6 -4 8 1 3 15 -5 16 -3 20 9 15 11 -4 16 0
16 11 0 9 5 13 11 10 5 -4 20 1 31 12 12 10 18 12 14 6 -4 -7 -2 -13 3 -13 6
0 11 5 11 11 0 5 4 7 10 4 5 -3 20 -8 32 -10 12 -3 25 -10 28 -16 5 -7 9 -6
13 4 6 16 -26 71 -36 61 -4 -4 -2 -13 3 -19 8 -9 4 -11 -15 -7 -14 2 -22 8
-19 13 8 14 -10 11 -32 -6 -10 -8 -22 -15 -26 -15 -12 0 -10 38 2 45 6 4 8 11
5 16 -4 5 1 9 9 9 9 0 16 -4 16 -9z"/>
<path fill="#ffffff" stroke="none" d="M37 263 c-4 -3 -2 -12 5 -20 8 -11 7
-12 -6 -7 -9 3 -16 9 -16 13 0 9 11 21 18 21 3 0 2 -3 -1 -7z"/>
<path fill="#000000" stroke="none" d="M75 131 c3 -5 -1 -12 -7 -14 -8 -4 -7
-6 4 -6 23 -1 32 15 12 23 -8 3 -13 2 -9 -3z"/>
<path fill="#000000" stroke="none" d="M145 131 c4 -8 2 -17 -6 -22 -9 -6 -10
-9 -2 -9 19 0 27 21 13 33 -10 9 -11 9 -5 -2z"/>
</g>
</svg>
