<?xml version="1.0" standalone="no"?>
<!DOCTYPE svg PUBLIC "-//W3C//DTD SVG 20010904//EN"
 "http://www.w3.org/TR/2001/REC-SVG-20010904/DTD/svg10.dtd">
<svg version="1.0" xmlns="http://www.w3.org/2000/svg"
 width="32.000000pt" height="32.000000pt" viewBox="0 0 32.000000 32.000000"
 preserveAspectRatio="xMidYMid meet">
<metadata>
Created by potrace 1.16, written by Peter Selinger 2001-2019
</metadata>
<g transform="translate(0.000000,32.000000) scale(0.100000,-0.100000)"
fill="#000000" stroke="none">
<path fill="#000000" stroke="none" d="M0 160 l0 -160 160 0 160 0 0 160 0
160 -160 0 -160 0 0 -160z"/>
<path fill="#ffffff" stroke="none" d="M153 193 c-4 -9 0 -11 11 -7 9 3 16 1
16 -6 0 -6 5 -8 11 -4 7 4 10 0 7 -11 -2 -14 -13 -17 -53 -17 -98 0 -97 0 -83
22 7 11 19 18 25 15 7 -2 12 -1 12 3 -3 16 2 19 30 19 20 0 28 -4 24 -14z"/>
<path fill="#ffffff" stroke="none" d="M202 95 c3 0 10 -3 14 -7 3 -4 -3 -6
-14 -3 -12 2 -23 -3 -26 -12 -4 -8 -12 -13 -20 -10 -7 3 -19 0 -26 -6 -10 -9
-11 -9 -5 3 7 12 6 13 -7 3 -12 -11 -18 -9 -32 6 -21 23 -7 31 40 24 18 -3 35
0 38 6 4 6 13 8 19 4 7 -4 15 -8 19 -8z"/>
</g>
</svg>
