<?xml version="1.0" standalone="no"?>
<!DOCTYPE svg PUBLIC "-//W3C//DTD SVG 20010904//EN"
 "http://www.w3.org/TR/2001/REC-SVG-20010904/DTD/svg10.dtd">
<svg version="1.0" xmlns="http://www.w3.org/2000/svg"
 width="32.000000pt" height="32.000000pt" viewBox="0 0 32.000000 32.000000"
 preserveAspectRatio="xMidYMid meet">
<metadata>
Created by potrace 1.16, written by Peter Selinger 2001-2019
</metadata>
<g transform="translate(0.000000,32.000000) scale(0.100000,-0.100000)"
fill="#000000" stroke="none">
<path fill="#000000" stroke="none" d="M37 289 c-3 -13 -11 -17 -21 -13 -11 4
-16 1 -16 -11 0 -11 5 -15 14 -12 18 7 31 -22 16 -37 -14 -14 -13 -29 2 -19 7
4 22 9 33 10 11 0 30 4 43 8 17 6 22 3 22 -11 0 -16 -2 -17 -10 -4 -11 19 -25
6 -34 -33 -5 -22 -4 -27 6 -22 7 4 5 0 -4 -8 -10 -8 -18 -20 -18 -26 0 -8 -8
-10 -19 -6 -23 7 -38 -12 -22 -28 9 -9 14 -9 19 -1 4 7 16 0 30 -18 19 -22 20
-28 8 -28 -9 0 -16 -4 -16 -10 0 -13 37 -13 45 0 4 6 1 18 -6 26 -10 12 -9 13
5 8 12 -5 15 -2 10 10 -3 8 -9 14 -12 13 -7 -2 -12 7 -12 21 0 4 10 8 22 9 27
2 63 -36 48 -51 -13 -13 -13 -36 0 -36 6 0 10 9 10 21 0 26 22 20 35 -9 10
-23 35 -30 35 -11 0 6 -9 23 -19 38 -21 29 -22 62 -3 69 13 4 46 -44 38 -57
-3 -5 3 -20 13 -32 17 -21 20 -22 26 -7 4 9 -1 31 -10 48 -15 29 -15 33 0 49
14 17 14 19 -1 32 -10 8 -27 13 -38 11 -20 -3 -20 -2 3 16 17 14 20 21 12 27
-7 4 -18 0 -25 -10 -11 -15 -13 -15 -25 -1 -11 13 -9 18 18 33 37 22 40 32 6
25 -29 -5 -58 15 -51 35 3 7 -1 13 -9 13 -9 0 -15 -9 -15 -22 0 -33 -15 -52
-34 -45 -9 4 -27 2 -40 -3 -34 -13 -49 6 -29 37 13 19 18 21 31 11 13 -11 14
-10 10 2 -7 23 -65 23 -71 -1z"/>
<path fill="#ffffff" stroke="none" d="M190 210 c0 -5 -2 -10 -4 -10 -3 0 -8
5 -11 10 -3 6 -1 10 4 10 6 0 11 -4 11 -10z"/>
<path fill="#ffffff" stroke="none" d="M120 170 c0 -5 -5 -10 -11 -10 -5 0 -7
5 -4 10 3 6 8 10 11 10 2 0 4 -4 4 -10z"/>
<path fill="#ffffff" stroke="none" d="M274 144 c4 -10 1 -14 -6 -12 -15 5
-23 28 -10 28 5 0 13 -7 16 -16z"/>
<path fill="#000000" stroke="none" d="M0 181 c0 -11 4 -21 9 -21 18 0 21 18
6 30 -13 10 -15 9 -15 -9z"/>
<path fill="#000000" stroke="none" d="M35 161 c-8 -15 3 -31 21 -31 9 0 14 7
12 17 -4 20 -24 28 -33 14z"/>
</g>
</svg>
