<?xml version="1.0" standalone="no"?>
<!DOCTYPE svg PUBLIC "-//W3C//DTD SVG 20010904//EN"
 "http://www.w3.org/TR/2001/REC-SVG-20010904/DTD/svg10.dtd">
<svg version="1.0" xmlns="http://www.w3.org/2000/svg"
 width="32.000000pt" height="32.000000pt" viewBox="0 0 32.000000 32.000000"
 preserveAspectRatio="xMidYMid meet">
<metadata>
Created by potrace 1.16, written by Peter Selinger 2001-2019
</metadata>
<g transform="translate(0.000000,32.000000) scale(0.100000,-0.100000)"
fill="#000000" stroke="none">
<path fill="#000000" stroke="none" d="M54 292 c4 -3 14 -7 22 -8 9 -1 13 0
10 4 -4 3 -14 7 -22 8 -9 1 -13 0 -10 -4z"/>
<path fill="#000000" stroke="none" d="M18 263 c7 -3 16 -2 19 1 4 3 -2 6 -13
5 -11 0 -14 -3 -6 -6z"/>
<path fill="#000000" stroke="none" d="M26 207 c-17 -32 -17 -32 2 -10 11 12
22 19 26 16 3 -4 6 -1 6 5 0 25 -17 19 -34 -11z"/>
<path fill="#000000" stroke="none" d="M135 220 c-3 -5 -1 -10 4 -10 6 0 11 5
11 10 0 6 -2 10 -4 10 -3 0 -8 -4 -11 -10z"/>
<path fill="#000000" stroke="none" d="M182 216 c7 -8 15 -12 17 -11 5 6 -10
25 -20 25 -5 0 -4 -6 3 -14z"/>
<path fill="#000000" stroke="none" d="M244 195 c-10 -8 -14 -15 -8 -15 6 0
17 7 24 15 16 19 9 19 -16 0z"/>
<path fill="#000000" stroke="none" d="M118 183 c7 -3 16 -2 19 1 4 3 -2 6
-13 5 -11 0 -14 -3 -6 -6z"/>
<path fill="#000000" stroke="none" d="M115 160 c-17 -8 -17 -9 7 -7 15 1 24
5 22 9 -3 4 -6 8 -7 7 -1 0 -11 -4 -22 -9z"/>
<path fill="#000000" stroke="none" d="M230 150 c0 -5 5 -10 11 -10 5 0 7 5 4
10 -3 6 -8 10 -11 10 -2 0 -4 -4 -4 -10z"/>
<path fill="#000000" stroke="none" d="M280 135 c-8 -9 -8 -15 -2 -15 12 0 26
19 19 26 -2 2 -10 -2 -17 -11z"/>
<path fill="#000000" stroke="none" d="M124 118 l-19 -23 25 20 c14 11 27 21
29 22 2 2 0 3 -6 3 -5 0 -18 -10 -29 -22z"/>
</g>
</svg>
