<?xml version="1.0" standalone="no"?>
<!DOCTYPE svg PUBLIC "-//W3C//DTD SVG 20010904//EN"
 "http://www.w3.org/TR/2001/REC-SVG-20010904/DTD/svg10.dtd">
<svg version="1.0" xmlns="http://www.w3.org/2000/svg"
 width="32.000000pt" height="32.000000pt" viewBox="0 0 32.000000 32.000000"
 preserveAspectRatio="xMidYMid meet">
<metadata>
Created by potrace 1.16, written by Peter Selinger 2001-2019
</metadata>
<g transform="translate(0.000000,32.000000) scale(0.100000,-0.100000)"
fill="#000000" stroke="none">
<path fill="#000000" stroke="none" d="M52 290 c9 -14 14 -16 20 -7 6 9 8 8 8
-2 0 -8 2 -12 5 -9 3 3 2 13 -1 22 -5 14 -9 15 -15 4 -7 -10 -9 -10 -9 0 0 6
-5 12 -10 12 -6 0 -5 -8 2 -20z"/>
<path fill="#000000" stroke="none" d="M96 297 c3 -10 9 -15 12 -12 3 3 0 11
-7 18 -10 9 -11 8 -5 -6z"/>
<path fill="#000000" stroke="none" d="M177 303 c-2 -5 -7 -21 -11 -37 -5 -22
-11 -27 -28 -23 -11 3 -31 2 -44 -3 -19 -7 -26 -5 -38 12 -17 24 -53 32 -53
12 0 -7 6 -10 12 -7 19 7 27 -26 12 -48 -8 -10 -16 -17 -18 -14 -3 2 -5 -5 -6
-16 -1 -12 3 -19 10 -16 7 2 12 9 12 14 0 17 14 28 38 30 12 0 32 4 45 8 16 5
22 3 22 -8 0 -8 -6 -18 -12 -20 -10 -4 -10 -6 0 -6 17 -1 15 -21 -2 -21 -15 0
-16 16 -3 38 5 6 4 12 -2 12 -12 0 -17 -7 -25 -45 -4 -16 -3 -25 1 -19 5 8 16
8 32 3 23 -9 24 -10 5 -32 -13 -15 -14 -18 -3 -9 9 7 21 12 25 11 19 -4 74 14
74 24 0 6 13 -7 29 -29 17 -23 25 -41 19 -45 -5 -3 0 -9 12 -12 17 -4 21 -10
16 -24 -6 -14 -5 -15 5 -6 10 10 9 20 -4 49 -14 28 -15 39 -6 50 15 18 -5 44
-34 44 -19 0 -19 1 -3 19 13 14 14 21 5 27 -7 4 -10 3 -6 -3 4 -6 0 -13 -8
-17 -8 -3 -17 0 -21 6 -4 7 -13 2 -24 -12 -20 -27 -50 -21 -50 10 0 13 7 20
20 20 11 0 20 -5 20 -12 0 -6 13 0 28 15 15 15 33 27 40 27 7 0 12 4 12 9 0 4
-11 6 -24 4 -13 -3 -34 0 -46 7 -17 9 -19 14 -9 26 7 9 8 14 1 14 -6 0 -13 -3
-15 -7z"/>
<path fill="#ffffff" stroke="none" d="M210 250 c3 -1 9 -2 13 -1 5 1 6 -3 2
-9 -8 -14 -18 -13 -41 4 -19 15 -19 15 1 11 11 -2 22 -4 25 -5z"/>
<path fill="#ffffff" stroke="none" d="M214 157 c-3 -8 -11 -14 -19 -14 -11 0
-12 4 -4 14 15 17 30 17 23 0z"/>
<path fill="#ffffff" stroke="none" d="M281 145 c-1 -15 -24 -12 -29 3 -3 9 2
13 12 10 10 -1 17 -7 17 -13z"/>
<path fill="#000000" stroke="none" d="M160 200 c0 -5 7 -10 16 -10 8 0 12 5
9 10 -3 6 -10 10 -16 10 -5 0 -9 -4 -9 -10z"/>
<path fill="#000000" stroke="none" d="M35 160 c-4 -7 -2 -17 4 -23 6 -6 11
-7 11 -3 0 5 8 2 18 -5 16 -13 16 -13 2 5 -8 11 -14 22 -12 25 7 11 -16 12
-23 1z"/>
<path fill="#000000" stroke="none" d="M24 98 c-7 -10 4 -28 17 -28 6 0 7 5 4
10 -6 9 17 15 40 10 6 -1 7 2 2 6 -10 10 -57 12 -63 2z"/>
<path fill="#000000" stroke="none" d="M173 93 c0 -8 5 -9 11 -4 6 4 18 11 26
14 8 3 3 5 -11 4 -14 -1 -26 -7 -26 -14z"/>
<path fill="#000000" stroke="none" d="M174 58 l-19 -23 23 19 c21 18 27 26
19 26 -2 0 -12 -10 -23 -22z"/>
<path fill="#000000" stroke="none" d="M90 66 c0 -2 9 -6 20 -9 11 -3 18 -1
14 4 -5 9 -34 13 -34 5z"/>
</g>
</svg>
