<?xml version="1.0" standalone="no"?>
<!DOCTYPE svg PUBLIC "-//W3C//DTD SVG 20010904//EN"
 "http://www.w3.org/TR/2001/REC-SVG-20010904/DTD/svg10.dtd">
<svg version="1.0" xmlns="http://www.w3.org/2000/svg"
 width="32.000000pt" height="32.000000pt" viewBox="0 0 32.000000 32.000000"
 preserveAspectRatio="xMidYMid meet">
<metadata>
Created by potrace 1.16, written by Peter Selinger 2001-2019
</metadata>
<g transform="translate(0.000000,32.000000) scale(0.100000,-0.100000)"
fill="#000000" stroke="none">
<path fill="#000000" stroke="none" d="M3 249 c0 -38 5 -73 10 -76 6 -3 7 -2
4 4 -4 6 0 19 8 29 18 24 18 29 -1 48 -14 14 -14 16 0 16 8 0 22 -10 30 -22
13 -19 19 -20 41 -10 14 7 28 12 31 12 10 0 -2 -25 -12 -25 -5 -1 -19 -6 -30
-13 -12 -6 -24 -9 -27 -5 -9 9 -38 -18 -31 -28 3 -5 -2 -12 -10 -15 -13 -5
-16 -23 -16 -85 l0 -79 160 0 160 0 0 160 0 160 -159 0 -159 0 1 -71z"/>
<path fill="#ffffff" stroke="none" d="M70 300 c0 13 1 13 10 0 5 -8 10 -19
10 -25 0 -5 -5 -3 -10 5 -9 13 -10 13 -10 0 0 -13 -1 -13 -10 0 -5 8 -10 20
-10 25 0 6 5 3 10 -5 9 -13 10 -13 10 0z"/>
<path fill="#ffffff" stroke="none" d="M108 285 c-3 -3 -9 2 -12 12 -6 14 -5
15 5 6 7 -7 10 -15 7 -18z"/>
<path fill="#ffffff" stroke="none" d="M196 270 c8 0 17 -7 21 -16 5 -13 7
-13 14 -2 5 7 9 8 9 2 0 -6 -12 -21 -27 -35 -17 -16 -24 -18 -21 -8 5 12 1 15
-18 11 -15 -3 -24 -11 -24 -23 0 -27 30 -36 46 -15 7 10 17 15 22 12 15 -9 43
4 35 17 -4 6 -1 7 7 2 10 -6 8 -12 -9 -27 -23 -18 -21 -22 10 -19 9 1 22 -6
30 -15 11 -14 11 -18 -4 -29 -9 -7 -17 -18 -17 -26 0 -7 -11 2 -25 21 -14 19
-25 29 -25 23 0 -6 -10 -11 -22 -11 -36 -2 -55 -7 -74 -21 -11 -8 -7 -2 8 11
16 16 35 24 51 23 16 -2 28 3 31 12 5 12 1 14 -21 8 -16 -5 -44 -8 -63 -9 -19
-1 -39 -5 -43 -11 -4 -5 -5 4 -1 20 9 38 13 45 26 45 6 0 6 -6 -2 -15 -11 -13
-10 -14 3 -10 8 4 18 17 21 31 4 13 13 24 22 24 9 0 12 5 8 12 -4 6 3 4 17 -5
29 -21 40 -22 32 -1 -3 8 -12 13 -19 10 -8 -3 -14 -4 -14 -2 0 3 -2 10 -3 18
-2 7 -2 10 0 6 3 -5 11 -8 19 -8z"/>
<path fill="#ffffff" stroke="none" d="M185 200 c3 -5 -1 -10 -9 -10 -9 0 -16
5 -16 10 0 6 4 10 9 10 6 0 13 -4 16 -10z"/>
<path fill="#ffffff" stroke="none" d="M58 159 c-2 -3 4 -14 12 -25 14 -18 14
-18 -2 -5 -10 7 -18 10 -18 5 0 -4 -5 -3 -11 3 -13 13 -3 36 13 31 5 -2 8 -6
6 -9z"/>
<path fill="#ffffff" stroke="none" d="M57 92 c-9 -2 -15 -8 -12 -13 4 -5 2
-9 -4 -9 -5 0 -13 5 -16 10 -10 17 4 28 28 22 18 -5 19 -7 4 -10z"/>
<path fill="#ffffff" stroke="none" d="M217 104 c-3 -3 -12 -4 -19 -1 -8 3 -5
6 6 6 11 1 17 -2 13 -5z"/>
<path fill="#ffffff" stroke="none" d="M310 43 c0 -6 -4 -15 -10 -18 -6 -3 -7
1 -4 10 4 10 1 14 -7 12 -8 -2 -11 -2 -6 0 15 9 6 22 -10 16 -15 -6 -16 -5 -3
9 13 14 16 14 27 -1 7 -9 13 -21 13 -28z"/>
<path fill="#ffffff" stroke="none" d="M124 61 c4 -5 -3 -7 -14 -4 -23 6 -26
13 -6 13 8 0 17 -4 20 -9z"/>
<path fill="#ffffff" stroke="none" d="M190 66 c0 -2 -8 -10 -17 -17 -16 -13
-17 -12 -4 4 13 16 21 21 21 13z"/>
<path fill="#000000" stroke="none" d="M105 171 c-3 -5 8 -9 25 -9 21 1 27 4
18 9 -17 11 -35 11 -43 0z"/>
<path fill="#000000" stroke="none" d="M250 145 c0 -10 7 -15 18 -13 21 4 19
22 -2 26 -10 2 -16 -3 -16 -13z"/>
</g>
</svg>
