<?xml version="1.0" standalone="no"?>
<!DOCTYPE svg PUBLIC "-//W3C//DTD SVG 20010904//EN"
 "http://www.w3.org/TR/2001/REC-SVG-20010904/DTD/svg10.dtd">
<svg version="1.0" xmlns="http://www.w3.org/2000/svg"
 width="32.000000pt" height="32.000000pt" viewBox="0 0 32.000000 32.000000"
 preserveAspectRatio="xMidYMid meet">
<metadata>
Created by potrace 1.16, written by Peter Selinger 2001-2019
</metadata>
<g transform="translate(0.000000,32.000000) scale(0.100000,-0.100000)"
fill="#000000" stroke="none">
<path fill="#000000" stroke="none" d="M7 313 c-4 -3 -7 -18 -7 -32 0 -24 4
-26 34 -26 18 1 45 9 59 18 35 22 44 21 57 -5 10 -21 10 -21 -3 -5 -8 9 -18
17 -24 17 -14 0 -73 -64 -73 -80 0 -13 -2 -13 -10 0 -6 10 -4 21 8 35 9 11 3
7 -13 -8 -26 -25 -28 -30 -14 -39 14 -10 14 -13 -3 -30 -19 -19 -25 -54 -7
-42 6 3 15 0 20 -7 6 -9 9 -10 9 -2 0 7 -8 17 -17 22 -10 6 -13 11 -7 11 6 0
16 -6 21 -12 13 -17 14 -58 2 -58 -5 0 -8 5 -6 11 1 6 -4 14 -10 16 -9 3 -13
-10 -13 -46 l0 -51 156 0 157 0 -6 51 c-4 28 -11 57 -17 64 -8 10 -7 14 2 18
11 5 11 7 0 15 -10 7 -10 11 3 22 17 14 20 30 4 30 -5 0 -7 -4 -4 -10 10 -16
-1 -11 -16 7 -10 11 -10 14 -1 9 6 -4 12 -3 12 2 0 5 -10 14 -22 20 -22 11
-22 11 5 7 26 -4 37 12 20 29 -4 4 -8 17 -8 29 0 27 -33 31 -76 10 -19 -9 -43
-13 -67 -9 -20 4 -43 2 -51 -3 -16 -10 -71 5 -71 20 0 11 -14 12 -23 2z"/>
<path fill="#ffffff" stroke="none" d="M60 278 c10 -3 8 -6 -8 -10 -14 -4 -20
-2 -15 5 4 6 1 8 -8 5 -10 -4 -15 1 -15 13 0 15 3 16 16 5 8 -7 22 -15 30 -18z"/>
<path fill="#ffffff" stroke="none" d="M286 298 c3 -4 3 -12 -1 -18 -6 -9 -10
-9 -16 1 -6 10 -13 10 -35 1 -14 -7 -29 -10 -32 -7 -4 3 4 8 16 12 12 3 22 9
22 12 0 9 37 7 46 -1z"/>
<path fill="#ffffff" stroke="none" d="M290 248 c0 -5 -9 -4 -20 2 -11 6 -20
12 -20 14 0 2 9 2 20 -1 11 -3 20 -9 20 -15z"/>
<path fill="#ffffff" stroke="none" d="M130 213 c0 -8 5 -11 10 -8 19 12 10
-2 -17 -26 -25 -22 -26 -22 -9 -1 11 12 15 22 9 22 -16 0 -44 -36 -36 -45 5
-4 2 -5 -5 -1 -11 6 -9 13 7 30 23 24 28 42 9 30 -6 -4 -8 -3 -5 3 9 15 37 12
37 -4z"/>
<path fill="#ffffff" stroke="none" d="M267 198 c-3 -8 -6 -5 -6 6 -1 11 2 17
5 13 3 -3 4 -12 1 -19z"/>
<path fill="#ffffff" stroke="none" d="M197 181 c11 -17 9 -21 -7 -26 -29 -9
-42 2 -27 25 15 25 19 25 34 1z"/>
<path fill="#ffffff" stroke="none" d="M230 190 c0 -5 -2 -10 -4 -10 -3 0 -8
5 -11 10 -3 6 -1 10 4 10 6 0 11 -4 11 -10z"/>
<path fill="#ffffff" stroke="none" d="M126 125 c-22 -17 -42 -19 -50 -6 -4 5
2 7 13 4 10 -3 22 0 25 6 4 6 13 11 19 11 7 0 3 -7 -7 -15z"/>
<path fill="#ffffff" stroke="none" d="M215 130 c-3 -5 -11 -10 -16 -10 -6 0
-7 5 -4 10 3 6 11 10 16 10 6 0 7 -4 4 -10z"/>
<path fill="#ffffff" stroke="none" d="M264 69 c-8 -13 -24 -1 -24 18 0 13 3
13 15 3 8 -7 12 -16 9 -21z"/>
<path fill="#ffffff" stroke="none" d="M135 70 c-10 -11 -22 -17 -26 -14 -15
9 -10 22 9 27 33 9 35 7 17 -13z"/>
</g>
</svg>
