<?xml version="1.0" standalone="no"?>
<!DOCTYPE svg PUBLIC "-//W3C//DTD SVG 20010904//EN"
 "http://www.w3.org/TR/2001/REC-SVG-20010904/DTD/svg10.dtd">
<svg version="1.0" xmlns="http://www.w3.org/2000/svg"
 width="32.000000pt" height="32.000000pt" viewBox="0 0 32.000000 32.000000"
 preserveAspectRatio="xMidYMid meet">
<metadata>
Created by potrace 1.16, written by Peter Selinger 2001-2019
</metadata>
<g transform="translate(0.000000,32.000000) scale(0.100000,-0.100000)"
fill="#000000" stroke="none">
<path fill="#000000" stroke="none" d="M0 316 c0 -2 8 -10 18 -17 15 -13 16
-12 3 4 -13 16 -21 21 -21 13z"/>
<path fill="#000000" stroke="none" d="M60 314 c83 -8 188 -8 183 -1 -2 4 -52
6 -111 5 -59 -1 -91 -3 -72 -4z"/>
<path fill="#000000" stroke="none" d="M265 304 c2 -10 4 -23 4 -28 1 -6 6 -5
13 2 10 10 9 16 -4 29 -15 15 -16 15 -13 -3z"/>
<path fill="#000000" stroke="none" d="M295 295 c1 -14 5 -28 8 -32 13 -12 7
-33 -9 -33 -8 0 -13 4 -9 9 3 5 1 12 -4 15 -5 4 -8 -2 -7 -11 2 -9 8 -19 14
-21 7 -2 12 -8 12 -13 0 -6 -6 -7 -12 -3 -7 4 -5 -2 5 -13 13 -15 15 -23 7
-28 -9 -6 -9 -10 1 -17 11 -8 11 -11 1 -15 -8 -3 -10 -9 -3 -16 5 -7 11 -21
14 -32 2 -11 5 5 6 36 0 31 -4 60 -11 67 -9 9 -9 12 0 12 8 0 12 20 12 60 0
42 -4 60 -13 60 -7 0 -12 -11 -12 -25z"/>
<path fill="#000000" stroke="none" d="M39 273 c-1 -5 -1 -11 -1 -14 1 -4 -6
-6 -16 -5 -14 1 -18 -9 -20 -56 -3 -49 0 -58 18 -68 11 -6 20 -16 20 -23 0 -8
-3 -8 -9 2 -17 27 -31 0 -29 -57 l2 -57 3 53 c3 36 8 52 16 49 7 -3 11 -10 9
-16 -1 -6 2 -11 7 -11 18 0 8 51 -13 66 -20 14 -20 16 -3 28 15 12 16 14 2 20
-21 8 -19 19 11 50 15 14 21 26 15 26 -7 0 -9 5 -6 10 3 6 4 10 1 10 -3 0 -7
-3 -7 -7z"/>
<path fill="#000000" stroke="none" d="M93 216 c-3 -6 -3 -8 2 -4 4 4 14 3 22
-3 10 -9 13 -8 13 3 0 17 -28 20 -37 4z"/>
<path fill="#000000" stroke="none" d="M261 204 c0 -11 3 -14 6 -6 3 7 2 16
-1 19 -3 4 -6 -2 -5 -13z"/>
<path fill="#000000" stroke="none" d="M89 183 c-13 -16 -12 -17 4 -4 9 7 17
15 17 17 0 8 -8 3 -21 -13z"/>
<path fill="#000000" stroke="none" d="M163 180 c-15 -23 -2 -34 27 -25 16 5
18 9 7 26 -15 24 -19 24 -34 -1z"/>
<path fill="#000000" stroke="none" d="M215 190 c3 -5 8 -10 11 -10 2 0 4 5 4
10 0 6 -5 10 -11 10 -5 0 -7 -4 -4 -10z"/>
<path fill="#000000" stroke="none" d="M109 173 c-13 -16 -12 -17 4 -4 9 7 17
15 17 17 0 8 -8 3 -21 -13z"/>
<path fill="#000000" stroke="none" d="M114 129 c-3 -6 -15 -9 -25 -6 -11 3
-17 1 -13 -4 3 -5 11 -9 18 -9 16 0 55 29 39 30 -6 0 -15 -5 -19 -11z"/>
<path fill="#000000" stroke="none" d="M195 130 c-3 -5 -2 -10 4 -10 5 0 13 5
16 10 3 6 2 10 -4 10 -5 0 -13 -4 -16 -10z"/>
<path fill="#000000" stroke="none" d="M240 87 c0 -19 16 -31 24 -18 3 5 -1
14 -9 21 -12 10 -15 10 -15 -3z"/>
<path fill="#000000" stroke="none" d="M118 83 c-19 -5 -24 -18 -9 -27 4 -3
16 3 26 14 18 20 16 22 -17 13z"/>
</g>
</svg>
