<?xml version="1.0" standalone="no"?>
<!DOCTYPE svg PUBLIC "-//W3C//DTD SVG 20010904//EN"
 "http://www.w3.org/TR/2001/REC-SVG-20010904/DTD/svg10.dtd">
<svg version="1.0" xmlns="http://www.w3.org/2000/svg"
 width="32.000000pt" height="32.000000pt" viewBox="0 0 32.000000 32.000000"
 preserveAspectRatio="xMidYMid meet">
<metadata>
Created by potrace 1.16, written by Peter Selinger 2001-2019
</metadata>
<g transform="translate(0.000000,32.000000) scale(0.100000,-0.100000)"
fill="#000000" stroke="none">
<path fill="#000000" stroke="none" d="M0 160 l0 -160 160 0 160 0 0 160 0
160 -160 0 -160 0 0 -160z"/>
<path fill="#ffffff" stroke="none" d="M100 267 c0 -30 0 -31 15 -10 14 19 60
29 70 14 2 -4 -11 -7 -28 -7 -27 1 -32 -3 -37 -29 -6 -29 -6 -30 -18 -8 -7 12
-12 34 -12 49 0 23 -2 25 -17 13 -20 -17 -43 -71 -43 -101 0 -21 0 -21 15 -2
9 12 14 14 15 6 0 -8 5 -10 13 -5 34 21 60 3 27 -20 -11 -7 -17 -17 -13 -20 4
-4 17 2 29 14 27 25 45 7 20 -20 -19 -21 -21 -47 -4 -57 7 -5 9 -2 5 9 -7 18
17 42 33 32 5 -3 10 -12 10 -20 0 -8 4 -16 8 -19 4 -2 8 10 8 29 0 19 -2 33
-6 32 -6 -2 -10 8 -10 26 0 6 8 0 18 -16 10 -15 21 -24 25 -21 4 4 -3 20 -14
35 -11 16 -19 29 -17 30 29 7 40 4 52 -13 9 -13 16 -16 21 -8 5 8 11 8 21 -1
11 -9 14 -7 14 10 0 35 -28 79 -60 96 -29 15 -30 15 -30 -8 0 -25 -25 -67 -41
-67 -5 0 -9 11 -9 25 0 14 4 25 9 25 5 0 7 -10 4 -22 -4 -14 -2 -20 3 -15 5 5
9 12 10 15 0 4 4 16 8 27 5 11 10 26 12 33 3 10 10 9 34 -3 35 -18 70 -69 70
-102 0 -25 -15 -39 -25 -23 -5 8 -11 8 -20 0 -10 -9 -16 -6 -25 10 -6 11 -16
18 -21 14 -6 -4 -4 -14 5 -29 12 -19 13 -25 2 -34 -7 -6 -16 -8 -20 -3 -4 4
-6 -4 -4 -18 4 -33 -14 -41 -27 -12 -10 24 -29 25 -31 1 -2 -29 -4 -31 -19
-19 -8 7 -15 20 -15 30 0 10 7 23 15 30 8 7 15 17 15 23 0 6 -11 1 -23 -12
-21 -19 -25 -20 -37 -6 -10 12 -9 16 4 21 9 3 13 10 10 16 -3 5 -11 4 -20 -3
-8 -6 -14 -8 -14 -4 0 4 -6 2 -14 -4 -39 -32 -30 61 10 109 30 35 44 31 44
-13z"/>
<path fill="#ffffff" stroke="none" d="M150 250 c0 -5 -4 -10 -10 -10 -5 0
-10 5 -10 10 0 6 5 10 10 10 6 0 10 -4 10 -10z"/>
<path fill="#ffffff" stroke="none" d="M226 50 c43 -17 14 -34 -56 -35 -67 0
-99 18 -59 34 32 13 82 13 115 1z"/>
</g>
</svg>
