<?xml version="1.0" standalone="no"?>
<!DOCTYPE svg PUBLIC "-//W3C//DTD SVG 20010904//EN"
 "http://www.w3.org/TR/2001/REC-SVG-20010904/DTD/svg10.dtd">
<svg version="1.0" xmlns="http://www.w3.org/2000/svg"
 width="32.000000pt" height="32.000000pt" viewBox="0 0 32.000000 32.000000"
 preserveAspectRatio="xMidYMid meet">
<metadata>
Created by potrace 1.16, written by Peter Selinger 2001-2019
</metadata>
<g transform="translate(0.000000,32.000000) scale(0.100000,-0.100000)"
fill="#000000" stroke="none">
<path fill="#000000" stroke="none" d="M0 160 l0 -160 160 0 160 0 0 160 0
160 -160 0 -160 0 0 -160z"/>
<path fill="#ffffff" stroke="none" d="M99 267 l-2 -32 -7 35 c-8 39 -11 38
-14 -5 -1 -16 -5 -41 -9 -55 -5 -20 -4 -19 8 5 8 17 14 26 15 20 0 -5 11 3 23
19 13 16 29 26 35 22 13 -8 5 -36 -10 -36 -6 0 -7 7 -4 16 3 8 2 12 -4 9 -15
-10 -8 -55 10 -55 20 -1 -18 -24 -42 -26 -10 -1 -20 -2 -23 -3 -3 0 -7 0 -8 2
-2 1 -11 -4 -20 -11 -39 -33 -32 59 9 108 30 35 45 31 43 -13z"/>
<path fill="#ffffff" stroke="none" d="M290 247 c21 -34 26 -72 11 -82 -5 -3
-13 -1 -16 5 -5 8 -11 8 -20 0 -10 -9 -16 -7 -24 8 -6 11 -19 19 -28 17 -35
-5 -54 14 -51 51 2 37 7 41 26 22 9 -9 12 -7 12 8 0 12 3 23 6 27 12 11 65
-24 84 -56z"/>
<path fill="#ffffff" stroke="none" d="M200 157 c0 -5 -4 -5 -10 -2 -6 3 -7
-1 -3 -10 5 -13 7 -14 14 -3 7 10 9 11 9 0 0 -7 5 -10 11 -7 7 5 4 14 -7 26
-9 11 -15 21 -12 24 3 3 12 -5 21 -19 13 -20 14 -26 3 -35 -7 -6 -16 -8 -20
-3 -4 4 -6 -4 -4 -18 4 -32 -14 -39 -27 -11 -11 23 -29 23 -31 0 -2 -29 -4
-31 -19 -19 -19 16 -19 44 0 60 8 7 15 17 15 23 0 6 -11 1 -23 -12 -21 -19
-26 -20 -36 -7 -10 12 -8 17 11 26 21 10 21 10 5 -3 -10 -9 -14 -18 -9 -21 5
-3 17 3 27 14 18 20 40 17 32 -4 -3 -7 4 -18 14 -24 18 -11 19 -10 13 12 -7
31 4 55 17 35 5 -8 9 -18 9 -22z"/>
<path fill="#ffffff" stroke="none" d="M226 50 c43 -17 14 -34 -56 -35 -67 0
-99 18 -59 34 32 13 82 13 115 1z"/>
<path fill="#000000" stroke="none" d="M44 245 c-7 -19 -14 -45 -13 -57 1 -17
4 -14 11 12 5 19 14 45 19 58 14 36 -1 25 -17 -13z"/>
<path fill="#000000" stroke="none" d="M210 281 c0 -36 -11 -53 -26 -40 -11 9
-14 8 -14 -4 0 -26 18 -29 34 -6 15 22 15 22 35 -12 12 -19 21 -29 21 -23 0 6
-9 23 -20 37 -21 26 -26 47 -12 47 14 0 40 -33 56 -70 9 -20 15 -27 16 -17 0
31 -29 76 -60 92 -28 15 -30 14 -30 -4z"/>
<path fill="#000000" stroke="none" d="M124 126 c-3 -8 -2 -22 3 -31 8 -13 10
-10 10 14 0 34 -5 39 -13 17z"/>
</g>
</svg>
