<?xml version="1.0" standalone="no"?>
<!DOCTYPE svg PUBLIC "-//W3C//DTD SVG 20010904//EN"
 "http://www.w3.org/TR/2001/REC-SVG-20010904/DTD/svg10.dtd">
<svg version="1.0" xmlns="http://www.w3.org/2000/svg"
 width="32.000000pt" height="32.000000pt" viewBox="0 0 32.000000 32.000000"
 preserveAspectRatio="xMidYMid meet">
<metadata>
Created by potrace 1.16, written by Peter Selinger 2001-2019
</metadata>
<g transform="translate(0.000000,32.000000) scale(0.100000,-0.100000)"
fill="#000000" stroke="none">
<path fill="#000000" stroke="none" d="M56 280 c-41 -49 -48 -141 -9 -108 9 7
18 12 20 11 1 -2 5 -2 8 -2 3 1 13 2 23 3 24 2 62 25 42 26 -18 0 -25 45 -10
55 6 3 7 -1 4 -9 -3 -9 -2 -16 4 -16 15 0 23 28 10 36 -6 4 -22 -6 -35 -22
-12 -16 -23 -24 -23 -19 -1 6 -7 -3 -15 -20 -12 -24 -13 -25 -8 -5 4 14 8 39
9 55 3 43 6 44 14 5 l7 -35 2 32 c2 44 -13 48 -43 13z"/>
<path fill="#ffffff" stroke="none" d="M61 258 c-5 -13 -14 -39 -19 -58 -7
-26 -10 -29 -11 -12 -1 12 6 38 13 57 16 38 31 49 17 13z"/>
<path fill="#000000" stroke="none" d="M206 303 c-3 -4 -6 -15 -6 -27 0 -15
-3 -17 -12 -8 -19 19 -24 15 -26 -22 -3 -37 16 -56 51 -51 9 2 22 -6 28 -17 8
-15 14 -17 24 -8 9 8 15 8 20 0 3 -6 11 -8 16 -5 15 10 10 48 -11 82 -19 32
-72 67 -84 56z"/>
<path fill="#ffffff" stroke="none" d="M285 240 c8 -16 15 -37 15 -47 -1 -10
-7 -3 -16 17 -16 37 -42 70 -56 70 -14 0 -9 -21 12 -47 11 -14 20 -31 20 -37
0 -6 -9 4 -21 23 -20 34 -20 34 -35 12 -16 -23 -34 -20 -34 6 0 12 3 13 14 4
15 -13 26 4 26 40 0 18 2 19 30 4 16 -8 36 -29 45 -45z"/>
<path fill="#000000" stroke="none" d="M175 180 c-4 -6 -4 -22 -1 -36 6 -22 5
-23 -13 -12 -10 6 -17 17 -14 24 8 21 -14 24 -32 4 -10 -11 -22 -17 -27 -14
-5 3 -1 12 9 21 16 13 16 13 -5 3 -19 -9 -21 -14 -11 -26 10 -13 15 -12 36 7
12 13 23 18 23 12 0 -6 -7 -16 -15 -23 -19 -16 -19 -44 0 -60 15 -12 17 -10
19 19 2 23 20 23 31 0 13 -28 31 -21 27 11 -2 14 0 22 4 18 4 -5 13 -3 20 3
11 9 10 15 -3 35 -9 14 -18 22 -21 19 -3 -3 3 -13 12 -24 11 -12 14 -21 7 -26
-6 -3 -11 0 -11 7 0 11 -2 10 -9 0 -7 -11 -9 -10 -14 3 -4 9 -3 13 3 10 12 -8
13 5 1 24 -6 10 -10 10 -16 1z"/>
<path fill="#ffffff" stroke="none" d="M137 109 c0 -24 -2 -27 -10 -14 -5 9
-6 23 -3 31 8 22 13 17 13 -17z"/>
<path fill="#000000" stroke="none" d="M111 49 c-40 -16 -8 -34 59 -34 70 1
99 18 56 35 -33 12 -83 12 -115 -1z"/>
</g>
</svg>
