<?xml version="1.0" standalone="no"?>
<!DOCTYPE svg PUBLIC "-//W3C//DTD SVG 20010904//EN"
 "http://www.w3.org/TR/2001/REC-SVG-20010904/DTD/svg10.dtd">
<svg version="1.0" xmlns="http://www.w3.org/2000/svg"
 width="32.000000pt" height="32.000000pt" viewBox="0 0 32.000000 32.000000"
 preserveAspectRatio="xMidYMid meet">
<metadata>
Created by potrace 1.16, written by Peter Selinger 2001-2019
</metadata>
<g transform="translate(0.000000,32.000000) scale(0.100000,-0.100000)"
fill="#000000" stroke="none">
<path fill="#000000" stroke="none" d="M0 160 l0 -160 160 0 160 0 0 160 0
160 -160 0 -160 0 0 -160z"/>
<path fill="#ffffff" stroke="none" d="M100 267 c0 -30 0 -31 15 -10 14 20 60
29 70 13 2 -4 -9 -6 -26 -4 -32 4 -37 -2 -42 -55 -2 -19 -11 -39 -20 -46 -9
-7 -14 -15 -10 -19 4 -3 17 3 29 15 27 25 45 7 20 -20 -18 -20 -21 -47 -5 -56
6 -4 10 -1 8 6 -6 46 25 55 42 13 5 -15 12 -24 15 -21 3 2 -1 20 -9 40 -18 42
-7 69 13 33 7 -14 17 -23 22 -20 4 3 -1 19 -13 35 -17 24 -18 33 -9 44 19 23
30 18 45 -17 11 -28 15 -30 21 -15 4 12 -1 29 -16 49 -12 17 -17 29 -9 26 14
-5 24 -19 41 -63 10 -27 12 -28 15 -8 6 31 -23 80 -57 98 -29 15 -30 15 -30
-8 0 -25 -25 -67 -41 -67 -5 0 -9 11 -9 25 0 14 4 25 9 25 5 0 7 -10 4 -22 -4
-14 -2 -20 3 -15 5 5 9 12 10 15 0 4 4 16 8 27 5 11 10 26 12 33 3 10 10 9 34
-3 35 -18 70 -69 70 -102 0 -25 -15 -39 -25 -23 -5 8 -11 8 -20 0 -10 -8 -18
-3 -34 22 l-21 33 4 -28 c3 -16 10 -34 16 -42 12 -14 -11 -41 -24 -27 -4 4 -6
-4 -4 -18 4 -33 -14 -41 -27 -12 -10 24 -29 25 -31 1 -2 -29 -4 -31 -19 -19
-8 7 -15 20 -15 30 0 10 7 23 15 30 8 7 15 17 15 23 0 6 -11 1 -23 -12 -21
-19 -25 -20 -37 -6 -10 12 -9 16 4 21 9 3 13 10 10 16 -3 5 -11 4 -20 -3 -8
-6 -14 -8 -14 -4 0 4 -6 2 -14 -4 -39 -32 -30 61 10 109 30 35 44 31 44 -13z"/>
<path fill="#ffffff" stroke="none" d="M150 250 c0 -5 -4 -10 -10 -10 -5 0
-10 5 -10 10 0 6 5 10 10 10 6 0 10 -4 10 -10z"/>
<path fill="#ffffff" stroke="none" d="M226 50 c43 -17 14 -34 -56 -35 -67 0
-99 18 -59 34 32 13 82 13 115 1z"/>
<path fill="#000000" stroke="none" d="M68 284 c-21 -24 -38 -69 -37 -97 0
-18 3 -16 15 11 17 38 23 41 16 7 -6 -31 6 -33 18 -2 6 16 9 17 9 5 1 -9 5
-19 10 -22 8 -5 7 7 -6 78 -8 37 -9 37 -25 20z"/>
<path fill="#000000" stroke="none" d="M186 147 c3 -10 9 -15 12 -12 3 3 0 11
-7 18 -10 9 -11 8 -5 -6z"/>
</g>
</svg>
