<?xml version="1.0" standalone="no"?>
<!DOCTYPE svg PUBLIC "-//W3C//DTD SVG 20010904//EN"
 "http://www.w3.org/TR/2001/REC-SVG-20010904/DTD/svg10.dtd">
<svg version="1.0" xmlns="http://www.w3.org/2000/svg"
 width="32.000000pt" height="32.000000pt" viewBox="0 0 32.000000 32.000000"
 preserveAspectRatio="xMidYMid meet">
<metadata>
Created by potrace 1.16, written by Peter Selinger 2001-2019
</metadata>
<g transform="translate(0.000000,32.000000) scale(0.100000,-0.100000)"
fill="#000000" stroke="none">
<path fill="#000000" stroke="none" d="M56 280 c-40 -48 -49 -141 -10 -109 8
6 14 8 14 4 0 -4 6 -2 14 4 9 7 17 8 20 3 3 -6 -1 -13 -10 -16 -13 -5 -14 -9
-4 -21 12 -14 16 -13 37 6 12 13 23 18 23 12 0 -6 -7 -16 -15 -23 -8 -7 -15
-20 -15 -30 0 -10 7 -23 15 -30 15 -12 17 -10 19 19 2 24 21 23 31 -1 13 -29
31 -21 27 12 -2 14 0 22 4 18 4 -5 13 -3 20 3 11 9 11 15 -1 33 -8 13 -12 26
-8 31 5 4 2 5 -4 1 -9 -5 -11 -2 -7 8 3 9 1 16 -5 16 -8 0 -9 5 -1 19 5 11 10
29 10 40 0 14 5 19 15 15 12 -5 13 -9 4 -20 -9 -12 -7 -19 10 -37 11 -13 21
-34 21 -48 -1 -22 -2 -22 -14 7 -8 18 -19 35 -25 38 -17 11 -13 -3 10 -41 16
-26 24 -31 34 -23 9 8 15 8 20 0 10 -16 25 -2 25 23 0 33 -35 84 -70 102 -28
15 -31 14 -36 -2 -3 -10 -9 -25 -13 -33 -4 -8 -7 -23 -5 -33 1 -9 -2 -14 -8
-11 -5 3 -8 15 -5 25 3 11 1 19 -4 19 -21 0 -7 -40 26 -74 19 -21 32 -42 29
-48 -4 -5 -14 2 -24 17 -23 35 -32 12 -13 -34 8 -18 12 -36 9 -38 -3 -3 -10 6
-15 21 -17 42 -48 33 -42 -13 2 -7 -2 -10 -8 -6 -16 9 -13 36 5 56 25 27 7 45
-20 20 -12 -12 -25 -18 -29 -14 -4 3 2 13 14 21 11 8 18 20 15 27 -2 7 -2 16
2 20 3 3 7 16 7 28 0 18 6 22 32 21 17 0 30 3 28 7 -3 3 -16 7 -30 7 -26 0
-62 -39 -52 -56 3 -4 1 -14 -5 -22 -8 -13 -9 -12 -5 2 10 29 -6 30 -20 1 l-13
-28 6 35 c4 19 8 46 9 60 5 38 7 38 15 0 l7 -35 2 32 c2 44 -13 48 -43 13z"/>
<path fill="#ffffff" stroke="none" d="M53 219 c-12 -38 -18 -48 -21 -33 -3
23 25 101 33 92 3 -2 -3 -29 -12 -59z"/>
<path fill="#ffffff" stroke="none" d="M280 248 c11 -18 20 -44 19 -58 0 -20
-4 -16 -18 20 -10 24 -23 46 -30 48 -14 5 -15 22 -1 22 6 0 19 -15 30 -32z"/>
<path fill="#ffffff" stroke="none" d="M198 135 c-3 -3 -9 2 -12 12 -6 14 -5
15 5 6 7 -7 10 -15 7 -18z"/>
<path fill="#000000" stroke="none" d="M130 250 c0 -5 5 -10 10 -10 6 0 10 5
10 10 0 6 -4 10 -10 10 -5 0 -10 -4 -10 -10z"/>
<path fill="#000000" stroke="none" d="M111 49 c-40 -16 -8 -34 59 -34 70 1
99 18 56 35 -33 12 -83 12 -115 -1z"/>
</g>
</svg>
