<?xml version="1.0" standalone="no"?>
<!DOCTYPE svg PUBLIC "-//W3C//DTD SVG 20010904//EN"
 "http://www.w3.org/TR/2001/REC-SVG-20010904/DTD/svg10.dtd">
<svg version="1.0" xmlns="http://www.w3.org/2000/svg"
 width="32.000000pt" height="32.000000pt" viewBox="0 0 32.000000 32.000000"
 preserveAspectRatio="xMidYMid meet">
<metadata>
Created by potrace 1.16, written by Peter Selinger 2001-2019
</metadata>
<g transform="translate(0.000000,32.000000) scale(0.100000,-0.100000)"
fill="#000000" stroke="none">
<path fill="#000000" stroke="none" d="M0 160 l0 -160 160 0 160 0 0 31 c0 31
0 31 -25 15 -13 -9 -37 -16 -53 -16 -15 0 -33 -5 -40 -12 -9 -9 -13 -7 -18 5
-4 12 -13 15 -28 11 -17 -4 -27 1 -40 21 -9 14 -21 23 -26 20 -5 -3 -21 2 -35
11 -14 9 -25 13 -25 8 0 -4 -5 -3 -11 3 -8 8 -7 19 4 40 9 15 18 36 21 46 3 9
14 17 24 17 24 0 48 28 50 59 0 13 9 32 18 42 17 18 15 19 -59 19 l-77 0 0
-160z"/>
<path fill="#000000" stroke="none" d="M200 305 c6 -8 9 -19 6 -24 -4 -5 -2
-12 4 -16 6 -4 8 -11 5 -16 -4 -5 -1 -9 4 -9 11 0 62 -74 60 -87 -4 -20 15
-72 27 -77 12 -4 14 17 14 119 l0 125 -66 0 c-57 0 -65 -2 -54 -15z"/>
</g>
</svg>
