<?xml version="1.0" standalone="no"?>
<!DOCTYPE svg PUBLIC "-//W3C//DTD SVG 20010904//EN"
 "http://www.w3.org/TR/2001/REC-SVG-20010904/DTD/svg10.dtd">
<svg version="1.0" xmlns="http://www.w3.org/2000/svg"
 width="32.000000pt" height="32.000000pt" viewBox="0 0 32.000000 32.000000"
 preserveAspectRatio="xMidYMid meet">
<metadata>
Created by potrace 1.16, written by Peter Selinger 2001-2019
</metadata>
<g transform="translate(0.000000,32.000000) scale(0.100000,-0.100000)"
fill="#000000" stroke="none">
<path fill="#000000" stroke="none" d="M147 295 c-9 -6 -18 -24 -21 -39 -6
-36 -33 -66 -58 -66 -13 0 -18 -6 -16 -17 2 -10 -5 -26 -14 -35 -25 -25 -24
-42 2 -28 16 8 20 8 20 -4 0 -22 19 -30 36 -16 12 10 16 7 25 -19 17 -47 33
-39 26 14 -4 27 -2 47 4 51 8 4 9 -1 4 -16 -4 -14 -3 -20 3 -16 5 3 15 -14 21
-40 13 -53 32 -51 24 3 -5 31 -4 35 11 30 10 -4 19 -1 23 9 4 11 9 9 19 -12 8
-14 14 -34 14 -43 1 -14 1 -15 10 0 6 10 5 30 -2 55 -6 21 -12 44 -12 49 -2
19 -36 75 -46 75 -6 0 -10 7 -10 15 0 8 -5 15 -11 15 -6 0 -8 7 -5 16 4 10 2
13 -6 8 -7 -5 -9 -2 -6 8 7 18 -13 19 -35 3z"/>
<path fill="#ffffff" stroke="none" d="M230 182 c0 -10 6 -24 13 -32 6 -7 0
-5 -15 6 -32 23 -47 69 -17 53 11 -5 19 -18 19 -27z"/>
<path fill="#ffffff" stroke="none" d="M124 185 c-6 -16 -42 -30 -51 -21 -4 3
1 6 9 6 9 0 21 7 28 15 16 19 21 19 14 0z"/>
</g>
</svg>
