<?xml version="1.0" standalone="no"?>
<!DOCTYPE svg PUBLIC "-//W3C//DTD SVG 20010904//EN"
 "http://www.w3.org/TR/2001/REC-SVG-20010904/DTD/svg10.dtd">
<svg version="1.0" xmlns="http://www.w3.org/2000/svg"
 width="32.000000pt" height="32.000000pt" viewBox="0 0 32.000000 32.000000"
 preserveAspectRatio="xMidYMid meet">
<metadata>
Created by potrace 1.16, written by Peter Selinger 2001-2019
</metadata>
<g transform="translate(0.000000,32.000000) scale(0.100000,-0.100000)"
fill="#000000" stroke="none">
<path fill="#000000" stroke="none" d="M0 160 l0 -160 160 0 160 0 0 160 0
160 -160 0 -160 0 0 -160z"/>
<path fill="#ffffff" stroke="none" d="M195 271 c3 -5 1 -12 -5 -16 -5 -3 -10
1 -10 9 0 18 6 21 15 7z"/>
<path fill="#ffffff" stroke="none" d="M99 219 c-13 -26 -20 -21 -12 9 3 12 9
19 14 16 5 -3 4 -14 -2 -25z"/>
<path fill="#ffffff" stroke="none" d="M194 210 c-10 -16 -19 -28 -21 -26 -6
6 20 56 29 56 5 0 1 -13 -8 -30z"/>
<path fill="#ffffff" stroke="none" d="M70 136 c0 -3 -4 -8 -10 -11 -5 -3 -10
-1 -10 4 0 6 5 11 10 11 6 0 10 -2 10 -4z"/>
<path fill="#ffffff" stroke="none" d="M244 109 c-3 -5 -10 -7 -15 -3 -5 3 -7
10 -3 15 3 5 10 7 15 3 5 -3 7 -10 3 -15z"/>
<path fill="#ffffff" stroke="none" d="M168 63 c-2 -10 -12 -18 -23 -18 -11 0
-21 8 -23 18 -3 13 3 17 23 17 20 0 26 -4 23 -17z"/>
</g>
</svg>
