<?xml version="1.0" standalone="no"?>
<!DOCTYPE svg PUBLIC "-//W3C//DTD SVG 20010904//EN"
 "http://www.w3.org/TR/2001/REC-SVG-20010904/DTD/svg10.dtd">
<svg version="1.0" xmlns="http://www.w3.org/2000/svg"
 width="32.000000pt" height="32.000000pt" viewBox="0 0 32.000000 32.000000"
 preserveAspectRatio="xMidYMid meet">
<metadata>
Created by potrace 1.16, written by Peter Selinger 2001-2019
</metadata>
<g transform="translate(0.000000,32.000000) scale(0.100000,-0.100000)"
fill="#000000" stroke="none">
<path fill="#000000" stroke="none" d="M125 290 c-3 -5 -4 -19 0 -29 7 -23
-48 -73 -70 -65 -9 4 -15 0 -15 -10 0 -18 45 -23 55 -6 15 25 22 4 21 -67 -1
-43 -5 -84 -10 -91 -6 -10 -2 -13 15 -10 21 3 24 8 21 46 -3 55 14 54 39 -3
11 -25 26 -45 34 -45 16 0 20 12 8 24 -24 23 -39 149 -18 153 6 1 9 -14 8 -32
-3 -46 14 -45 23 2 6 31 3 40 -19 59 -14 12 -27 35 -29 50 -2 23 -9 30 -30 32
-14 2 -29 -2 -33 -8z"/>
<path fill="#ffffff" stroke="none" d="M178 265 c-3 -3 -9 2 -12 12 -6 14 -5
15 5 6 7 -7 10 -15 7 -18z"/>
</g>
</svg>
