<?xml version="1.0" standalone="no"?>
<!DOCTYPE svg PUBLIC "-//W3C//DTD SVG 20010904//EN"
 "http://www.w3.org/TR/2001/REC-SVG-20010904/DTD/svg10.dtd">
<svg version="1.0" xmlns="http://www.w3.org/2000/svg"
 width="32.000000pt" height="32.000000pt" viewBox="0 0 32.000000 32.000000"
 preserveAspectRatio="xMidYMid meet">
<metadata>
Created by potrace 1.16, written by Peter Selinger 2001-2019
</metadata>
<g transform="translate(0.000000,32.000000) scale(0.100000,-0.100000)"
fill="#000000" stroke="none">
<path fill="#000000" stroke="none" d="M136 248 c-2 -7 -7 -24 -10 -38 -3 -14
-21 -34 -38 -45 -32 -20 -50 -55 -29 -55 6 0 20 9 32 21 22 22 50 22 57 0 3
-8 0 -11 -6 -7 -7 4 -9 -1 -7 -14 2 -11 0 -22 -6 -25 -5 -4 -9 -16 -9 -28 0
-18 3 -16 17 11 8 18 18 31 20 28 8 -8 63 16 58 25 -3 4 -12 6 -20 2 -8 -3
-15 -1 -15 5 0 13 27 23 45 16 8 -4 15 -12 15 -20 0 -8 7 -14 15 -14 25 0 17
37 -14 63 -17 14 -31 36 -33 53 -2 25 -8 29 -36 32 -20 2 -34 -2 -36 -10z"/>
<path fill="#000000" stroke="none" d="M200 60 c14 -20 16 -30 8 -38 -9 -9 -9
-12 -1 -12 21 0 24 19 8 43 -8 13 -13 26 -10 29 3 2 -2 5 -9 5 -12 0 -11 -6 4
-27z"/>
</g>
</svg>
