<?xml version="1.0" standalone="no"?>
<!DOCTYPE svg PUBLIC "-//W3C//DTD SVG 20010904//EN"
 "http://www.w3.org/TR/2001/REC-SVG-20010904/DTD/svg10.dtd">
<svg version="1.0" xmlns="http://www.w3.org/2000/svg"
 width="32.000000pt" height="32.000000pt" viewBox="0 0 32.000000 32.000000"
 preserveAspectRatio="xMidYMid meet">
<metadata>
Created by potrace 1.16, written by Peter Selinger 2001-2019
</metadata>
<g transform="translate(0.000000,32.000000) scale(0.100000,-0.100000)"
fill="#000000" stroke="none">
<path fill="#000000" stroke="none" d="M0 160 l0 -160 160 0 160 0 0 160 0
160 -160 0 -160 0 0 -160z"/>
<path fill="#ffffff" stroke="none" d="M128 295 c-2 -6 -6 -9 -10 -8 -4 2 -5
-5 -1 -15 5 -13 3 -15 -7 -5 -14 13 -6 47 11 41 6 -2 9 -8 7 -13z"/>
<path fill="#ffffff" stroke="none" d="M200 239 c0 -6 -4 -8 -9 -4 -5 3 -12 1
-16 -5 -7 -12 -35 -14 -35 -2 0 9 43 29 53 25 4 -3 7 -9 7 -14z"/>
<path fill="#ffffff" stroke="none" d="M130 230 c0 -5 -2 -10 -4 -10 -3 0 -8
5 -11 10 -3 6 -1 10 4 10 6 0 11 -4 11 -10z"/>
<path fill="#ffffff" stroke="none" d="M160 152 c0 -2 -10 -25 -21 -53 -18
-42 -20 -51 -8 -66 12 -15 12 -16 -1 -8 -8 5 -21 10 -29 10 -22 0 -22 33 1 79
13 27 27 42 39 42 10 0 19 -2 19 -4z"/>
</g>
</svg>
