<?xml version="1.0" standalone="no"?>
<!DOCTYPE svg PUBLIC "-//W3C//DTD SVG 20010904//EN"
 "http://www.w3.org/TR/2001/REC-SVG-20010904/DTD/svg10.dtd">
<svg version="1.0" xmlns="http://www.w3.org/2000/svg"
 width="32.000000pt" height="32.000000pt" viewBox="0 0 32.000000 32.000000"
 preserveAspectRatio="xMidYMid meet">
<metadata>
Created by potrace 1.16, written by Peter Selinger 2001-2019
</metadata>
<g transform="translate(0.000000,32.000000) scale(0.100000,-0.100000)"
fill="#000000" stroke="none">
<path fill="#000000" stroke="none" d="M0 160 l0 -160 160 0 160 0 0 160 0
160 -160 0 -160 0 0 -160z"/>
<path fill="#ffffff" stroke="none" d="M154 274 c18 -7 12 -24 -10 -24 -8 0
-14 7 -14 15 0 17 2 18 24 9z"/>
<path fill="#ffffff" stroke="none" d="M160 208 c0 -4 -7 -8 -15 -8 -8 0 -15
4 -15 8 0 5 7 9 15 9 8 0 15 -4 15 -9z"/>
<path fill="#ffffff" stroke="none" d="M190 210 c0 -5 -2 -10 -4 -10 -3 0 -8
5 -11 10 -3 6 -1 10 4 10 6 0 11 -4 11 -10z"/>
<path fill="#ffffff" stroke="none" d="M186 145 c3 -8 2 -20 -2 -27 -5 -7 -9
-16 -9 -20 0 -18 -21 -7 -26 14 l-5 23 -8 -22 c-8 -25 -26 -31 -26 -9 0 26 12
45 25 40 7 -3 16 -1 20 5 9 15 25 14 31 -4z"/>
<path fill="#ffffff" stroke="none" d="M230 86 c0 -2 -7 -7 -16 -10 -8 -3 -12
-2 -9 4 6 10 25 14 25 6z"/>
<path fill="#ffffff" stroke="none" d="M144 18 c-3 -4 -12 -8 -20 -8 -12 0
-12 4 -2 20 8 13 15 16 19 8 4 -7 5 -16 3 -20z"/>
</g>
</svg>
