<?xml version="1.0" standalone="no"?>
<!DOCTYPE svg PUBLIC "-//W3C//DTD SVG 20010904//EN"
 "http://www.w3.org/TR/2001/REC-SVG-20010904/DTD/svg10.dtd">
<svg version="1.0" xmlns="http://www.w3.org/2000/svg"
 width="32.000000pt" height="32.000000pt" viewBox="0 0 32.000000 32.000000"
 preserveAspectRatio="xMidYMid meet">
<metadata>
Created by potrace 1.16, written by Peter Selinger 2001-2019
</metadata>
<g transform="translate(0.000000,32.000000) scale(0.100000,-0.100000)"
fill="#000000" stroke="none">
<path fill="#000000" stroke="none" d="M97 246 c-3 -8 1 -20 9 -27 12 -10 18
-9 30 3 13 13 13 15 0 15 -8 0 -13 -4 -10 -9 3 -4 0 -8 -5 -8 -17 0 -13 18 7
29 15 9 15 10 -4 11 -12 0 -24 -6 -27 -14z"/>
<path fill="#000000" stroke="none" d="M156 161 c-7 -10 0 -45 12 -67 16 -29
24 3 8 34 -8 16 -12 32 -9 36 4 3 4 6 0 6 -3 0 -8 -4 -11 -9z"/>
<path fill="#000000" stroke="none" d="M122 115 c0 -16 2 -22 5 -12 2 9 2 23
0 30 -3 6 -5 -1 -5 -18z"/>
<path fill="#000000" stroke="none" d="M235 130 c3 -5 8 -10 11 -10 2 0 4 5 4
10 0 6 -5 10 -11 10 -5 0 -7 -4 -4 -10z"/>
</g>
</svg>
