<?xml version="1.0" standalone="no"?>
<!DOCTYPE svg PUBLIC "-//W3C//DTD SVG 20010904//EN"
 "http://www.w3.org/TR/2001/REC-SVG-20010904/DTD/svg10.dtd">
<svg version="1.0" xmlns="http://www.w3.org/2000/svg"
 width="32.000000pt" height="32.000000pt" viewBox="0 0 32.000000 32.000000"
 preserveAspectRatio="xMidYMid meet">
<metadata>
Created by potrace 1.16, written by Peter Selinger 2001-2019
</metadata>
<g transform="translate(0.000000,32.000000) scale(0.100000,-0.100000)"
fill="#000000" stroke="none">
<path fill="#000000" stroke="none" d="M116 284 c-18 -17 -21 -59 -6 -69 5 -3
6 -13 3 -23 -6 -15 -5 -16 12 -2 17 14 18 13 13 -12 -3 -16 0 -32 8 -38 18
-16 26 3 14 34 -8 22 -7 25 8 23 9 -1 23 -7 31 -11 10 -6 12 -5 7 2 -15 25 6
32 30 10 l24 -23 -28 -24 c-15 -13 -21 -20 -14 -17 7 4 12 1 12 -8 0 -8 4 -17
9 -20 5 -4 7 4 4 16 -5 23 -5 23 10 3 15 -19 15 -19 10 8 -4 20 -1 27 11 27
24 0 20 13 -14 45 -26 25 -34 27 -49 18 -16 -10 -18 -9 -14 8 3 11 12 18 21
17 8 -2 17 3 19 10 3 8 -1 10 -13 5 -13 -5 -15 -3 -9 7 5 9 4 11 -4 6 -6 -4
-18 0 -27 8 -20 20 -48 20 -68 0z"/>
<path fill="#ffffff" stroke="none" d="M165 220 c4 -6 -5 -10 -20 -10 -15 0
-24 4 -20 10 3 6 12 10 20 10 8 0 17 -4 20 -10z"/>
<path fill="#000000" stroke="none" d="M20 168 c0 -7 17 -21 37 -31 35 -18 38
-18 50 -1 14 19 17 34 7 34 -4 0 -12 -7 -18 -16 -13 -18 -46 -9 -46 12 0 8 -7
14 -15 14 -8 0 -15 -6 -15 -12z"/>
<path fill="#000000" stroke="none" d="M175 130 c-12 -14 -22 -17 -30 -10 -8
7 -19 2 -34 -14 -25 -27 -21 -46 9 -46 29 0 13 -29 -24 -46 l-31 -13 38 -1
c29 0 37 4 37 18 0 10 6 24 12 30 10 10 8 14 -10 19 -18 4 -20 8 -11 19 18 22
40 16 74 -19 25 -26 30 -38 23 -50 -7 -14 -4 -17 22 -17 l31 0 -24 33 c-30 39
-62 99 -59 110 3 12 -4 8 -23 -13z"/>
</g>
</svg>
