<?xml version="1.0" standalone="no"?>
<!DOCTYPE svg PUBLIC "-//W3C//DTD SVG 20010904//EN"
 "http://www.w3.org/TR/2001/REC-SVG-20010904/DTD/svg10.dtd">
<svg version="1.0" xmlns="http://www.w3.org/2000/svg"
 width="32.000000pt" height="32.000000pt" viewBox="0 0 32.000000 32.000000"
 preserveAspectRatio="xMidYMid meet">
<metadata>
Created by potrace 1.16, written by Peter Selinger 2001-2019
</metadata>
<g transform="translate(0.000000,32.000000) scale(0.100000,-0.100000)"
fill="#000000" stroke="none">
<path fill="#000000" stroke="none" d="M0 160 l0 -160 160 0 160 0 0 160 0
160 -160 0 -160 0 0 -160z"/>
<path fill="#ffffff" stroke="none" d="M290 271 c17 -32 11 -61 -17 -87 -14
-13 -31 -34 -37 -47 -12 -23 -33 -29 -51 -16 -21 15 -39 -9 -39 -52 -1 -28 -6
-44 -16 -47 -13 -4 -13 -3 -2 11 23 28 3 41 -24 16 -28 -26 -45 -18 -20 9 10
12 14 26 9 38 -6 17 -5 17 10 5 10 -8 17 -9 17 -3 0 6 -5 14 -10 17 -6 4 -8
10 -5 14 2 5 -5 17 -16 27 -11 10 -20 14 -19 9 5 -22 -1 -33 -20 -38 -22 -6
-48 17 -31 27 6 4 8 12 5 19 -3 9 19 12 83 13 127 1 161 9 169 41 5 18 2 30
-10 38 -20 15 -21 25 -1 25 8 0 19 -9 25 -19z"/>
<path fill="#ffffff" stroke="none" d="M250 95 c11 -13 10 -15 -1 -10 -8 3
-23 -9 -37 -30 -12 -19 -27 -35 -32 -35 -13 0 -13 17 0 25 6 3 10 15 10 25 0
10 8 24 18 29 23 14 27 13 42 -4z"/>
<path fill="#ffffff" stroke="none" d="M278 48 c-2 -12 -10 -24 -18 -26 -13
-5 -13 -3 -2 11 8 9 11 21 7 27 -3 5 -1 10 5 10 6 0 10 -10 8 -22z"/>
</g>
</svg>
