<?xml version="1.0" standalone="no"?>
<!DOCTYPE svg PUBLIC "-//W3C//DTD SVG 20010904//EN"
 "http://www.w3.org/TR/2001/REC-SVG-20010904/DTD/svg10.dtd">
<svg version="1.0" xmlns="http://www.w3.org/2000/svg"
 width="32.000000pt" height="32.000000pt" viewBox="0 0 32.000000 32.000000"
 preserveAspectRatio="xMidYMid meet">
<metadata>
Created by potrace 1.16, written by Peter Selinger 2001-2019
</metadata>
<g transform="translate(0.000000,32.000000) scale(0.100000,-0.100000)"
fill="#000000" stroke="none">
<path fill="#000000" stroke="none" d="M106 302 c-2 -4 -1 -14 3 -21 6 -9 10
-7 14 8 5 20 -7 29 -17 13z"/>
<path fill="#000000" stroke="none" d="M187 289 c4 -13 9 -17 15 -11 11 11 3
32 -12 32 -4 0 -6 -9 -3 -21z"/>
<path fill="#000000" stroke="none" d="M36 285 c-4 -10 1 -15 16 -15 17 0 18
2 8 15 -7 8 -14 15 -15 15 -2 0 -5 -7 -9 -15z"/>
<path fill="#000000" stroke="none" d="M134 285 c-4 -9 -2 -21 4 -27 15 -15
44 -1 40 19 -4 23 -36 29 -44 8z"/>
<path fill="#ffffff" stroke="none" d="M159 277 c8 -10 7 -14 -2 -14 -8 0 -14
6 -14 14 0 7 1 13 2 13 2 0 8 -6 14 -13z"/>
<path fill="#000000" stroke="none" d="M255 274 c-24 -20 -25 -23 -6 -14 12 6
32 9 43 7 14 -4 18 -1 16 10 -5 25 -21 24 -53 -3z"/>
<path fill="#000000" stroke="none" d="M90 231 c0 -15 57 -33 80 -26 21 7 21
6 5 -24 -8 -17 -22 -31 -30 -31 -7 0 -17 -5 -21 -12 -5 -8 2 -9 27 -4 31 6 54
27 54 51 0 6 3 15 7 20 10 16 -10 43 -19 29 -13 -19 -89 -22 -78 -4 3 6 -1 10
-9 10 -9 0 -16 -4 -16 -9z"/>
<path fill="#000000" stroke="none" d="M66 183 c-15 -21 -16 -27 -5 -34 12 -7
11 -9 -1 -10 -8 0 0 -7 19 -15 18 -8 36 -13 39 -10 3 4 0 6 -7 6 -7 0 -9 5 -5
11 4 8 -1 9 -17 4 -21 -7 -22 -6 -10 9 7 9 10 16 6 16 -4 0 -2 7 5 15 8 10 9
19 4 25 -5 5 -17 -2 -28 -17z"/>
<path fill="#ffffff" stroke="none" d="M77 165 c0 -8 -4 -12 -9 -9 -5 3 -6 10
-3 15 9 13 12 11 12 -6z"/>
<path fill="#000000" stroke="none" d="M170 103 c1 -5 8 -19 16 -33 8 -14 13
-17 10 -7 -3 10 -6 25 -6 33 0 8 -4 14 -10 14 -5 0 -10 -3 -10 -7z"/>
<path fill="#000000" stroke="none" d="M105 90 c-3 -5 -1 -18 4 -27 9 -16 10
-14 11 10 0 28 -5 34 -15 17z"/>
</g>
</svg>
