<?xml version="1.0" standalone="no"?>
<!DOCTYPE svg PUBLIC "-//W3C//DTD SVG 20010904//EN"
 "http://www.w3.org/TR/2001/REC-SVG-20010904/DTD/svg10.dtd">
<svg version="1.0" xmlns="http://www.w3.org/2000/svg"
 width="32.000000pt" height="32.000000pt" viewBox="0 0 32.000000 32.000000"
 preserveAspectRatio="xMidYMid meet">
<metadata>
Created by potrace 1.16, written by Peter Selinger 2001-2019
</metadata>
<g transform="translate(0.000000,32.000000) scale(0.100000,-0.100000)"
fill="#000000" stroke="none">
<path fill="#000000" stroke="none" d="M0 160 l0 -160 160 0 160 0 0 160 0
160 -160 0 -160 0 0 -160z"/>
<path fill="#ffffff" stroke="none" d="M183 298 c5 -16 -10 -48 -24 -48 -6 0
-7 5 -4 10 3 6 2 10 -4 10 -5 0 -12 -6 -14 -12 -3 -7 -6 -1 -6 13 -1 14 2 29
6 32 11 12 41 8 46 -5z"/>
<path fill="#ffffff" stroke="none" d="M120 245 c0 -12 -19 -12 -23 0 -4 9 -1
12 9 8 7 -3 14 -7 14 -8z"/>
<path fill="#ffffff" stroke="none" d="M214 233 c3 -10 18 -31 32 -46 14 -16
23 -31 19 -35 -5 -6 -60 55 -60 68 0 3 -4 11 -8 18 -5 6 -4 12 2 12 5 0 12 -8
15 -17z"/>
<path fill="#ffffff" stroke="none" d="M173 211 c-2 -14 -6 -28 -9 -32 -5 -9
-35 -5 -34 4 0 4 0 13 0 21 0 9 8 13 23 9 21 -4 21 -4 -3 10 l-25 15 27 -1
c22 -2 25 -6 21 -26z"/>
<path fill="#ffffff" stroke="none" d="M96 188 c-10 -15 -16 -17 -16 -8 0 13
-2 13 -10 0 -5 -8 -10 -10 -10 -4 0 12 42 45 49 39 1 -2 -4 -14 -13 -27z"/>
<path fill="#ffffff" stroke="none" d="M45 171 c3 -5 1 -12 -5 -16 -5 -3 -10
1 -10 9 0 18 6 21 15 7z"/>
<path fill="#ffffff" stroke="none" d="M187 163 c2 -30 -6 -45 -19 -36 -7 4
-17 8 -22 8 -5 0 -10 6 -12 13 -1 7 0 8 2 3 3 -6 15 -2 27 9 25 24 23 24 24 3z"/>
<path fill="#ffffff" stroke="none" d="M122 108 c-7 -7 -12 -8 -12 -2 0 14 12
26 19 19 2 -3 -1 -11 -7 -17z"/>
<path fill="#ffffff" stroke="none" d="M210 99 c0 -6 -4 -7 -10 -4 -5 3 -10
11 -10 16 0 6 5 7 10 4 6 -3 10 -11 10 -16z"/>
<path fill="#ffffff" stroke="none" d="M135 51 c-2 -2 -11 3 -19 12 -8 8 -12
17 -9 21 3 3 12 -2 19 -12 7 -9 11 -19 9 -21z"/>
<path fill="#ffffff" stroke="none" d="M215 62 c1 -4 6 -17 13 -29 11 -19 10
-23 -2 -23 -10 0 -13 6 -10 15 4 8 2 15 -4 15 -6 0 -12 -6 -15 -12 -3 -7 -4
-3 -4 10 1 12 5 22 10 22 4 0 5 6 1 13 -4 7 -3 9 2 4 5 -5 9 -12 9 -15z"/>
<path fill="#ffffff" stroke="none" d="M140 30 c0 -4 -12 -7 -26 -7 -14 0 -21
3 -15 7 15 9 41 9 41 0z"/>
<path fill="#000000" stroke="none" d="M136 192 c-3 -5 1 -9 9 -9 8 0 15 4 15
9 0 4 -4 8 -9 8 -6 0 -12 -4 -15 -8z"/>
</g>
</svg>
