<?xml version="1.0" standalone="no"?>
<!DOCTYPE svg PUBLIC "-//W3C//DTD SVG 20010904//EN"
 "http://www.w3.org/TR/2001/REC-SVG-20010904/DTD/svg10.dtd">
<svg version="1.0" xmlns="http://www.w3.org/2000/svg"
 width="32.000000pt" height="32.000000pt" viewBox="0 0 32.000000 32.000000"
 preserveAspectRatio="xMidYMid meet">
<metadata>
Created by potrace 1.16, written by Peter Selinger 2001-2019
</metadata>
<g transform="translate(0.000000,32.000000) scale(0.100000,-0.100000)"
fill="#000000" stroke="none">
<path fill="#000000" stroke="none" d="M0 253 l0 -68 29 -1 c22 -1 32 5 40 23
6 13 18 26 26 29 8 4 13 10 10 14 -3 5 7 22 21 39 l26 31 -76 0 -76 0 0 -67z"/>
<path fill="#000000" stroke="none" d="M202 288 c24 -35 48 -57 60 -58 9 0 5
36 -5 46 -4 4 -7 12 -7 18 0 6 5 3 11 -7 6 -9 14 -15 18 -13 5 3 6 -6 3 -21
-3 -18 -1 -24 6 -19 8 5 10 2 6 -8 -3 -9 -1 -16 6 -16 6 0 9 -3 7 -7 -3 -5 -1
-17 4 -28 5 -13 8 10 8 63 l1 82 -70 0 -71 0 23 -32z"/>
<path fill="#000000" stroke="none" d="M215 170 c-5 -9 -4 -11 3 -6 20 12 13
-10 -8 -29 -24 -21 -26 -35 -6 -35 23 0 29 -20 12 -39 -16 -18 -12 -31 8 -31
6 0 4 5 -4 10 -17 11 -10 13 14 4 9 -3 13 -11 9 -17 -4 -6 2 -8 16 -4 18 4 20
3 10 -9 -9 -12 -6 -14 20 -14 l31 0 -1 73 c0 48 -3 65 -9 52 -4 -12 -15 -27
-24 -35 -15 -12 -20 -11 -38 8 -17 16 -19 24 -10 35 9 10 8 18 -2 32 -10 14
-15 15 -21 5z"/>
<path fill="#000000" stroke="none" d="M84 143 c-9 -15 -16 -16 -47 -6 l-37
11 0 -74 0 -74 117 0 c64 0 114 3 111 6 -4 3 -13 6 -21 8 -24 3 -46 26 -41 41
3 7 1 16 -5 20 -6 3 -11 2 -11 -4 0 -5 -8 -8 -17 -6 -10 2 -20 4 -23 4 -3 1 1
5 8 9 14 9 2 57 -14 57 -5 0 -8 6 -6 13 4 17 -1 15 -14 -5z"/>
<path fill="#000000" stroke="none" d="M190 80 c0 -5 5 -10 10 -10 6 0 10 5
10 10 0 6 -4 10 -10 10 -5 0 -10 -4 -10 -10z"/>
</g>
</svg>
