<?xml version="1.0" standalone="no"?>
<!DOCTYPE svg PUBLIC "-//W3C//DTD SVG 20010904//EN"
 "http://www.w3.org/TR/2001/REC-SVG-20010904/DTD/svg10.dtd">
<svg version="1.0" xmlns="http://www.w3.org/2000/svg"
 width="32.000000pt" height="32.000000pt" viewBox="0 0 32.000000 32.000000"
 preserveAspectRatio="xMidYMid meet">
<metadata>
Created by potrace 1.16, written by Peter Selinger 2001-2019
</metadata>
<g transform="translate(0.000000,32.000000) scale(0.100000,-0.100000)"
fill="#000000" stroke="none">
<path fill="#000000" stroke="none" d="M0 160 l0 -160 160 0 160 0 0 160 0
160 -160 0 -160 0 0 -160z"/>
<path fill="#ffffff" stroke="none" d="M208 222 c2 -22 13 -39 33 -54 31 -23
39 -58 14 -58 -8 0 -15 5 -15 11 0 6 -6 16 -13 23 -11 11 -16 11 -31 0 -19
-13 -13 -39 6 -28 7 4 8 2 4 -5 -4 -6 -11 -9 -16 -6 -5 3 -11 1 -14 -4 -9 -15
-39 -6 -42 12 -1 10 2 15 7 11 5 -3 9 0 9 6 0 6 -7 13 -15 16 -8 4 -12 11 -9
18 3 6 -8 -4 -25 -21 -17 -18 -36 -33 -42 -33 -21 0 -3 35 29 55 17 11 35 31
38 45 11 49 13 51 46 48 29 -3 33 -7 36 -36z"/>
</g>
</svg>
