<?xml version="1.0" standalone="no"?>
<!DOCTYPE svg PUBLIC "-//W3C//DTD SVG 20010904//EN"
 "http://www.w3.org/TR/2001/REC-SVG-20010904/DTD/svg10.dtd">
<svg version="1.0" xmlns="http://www.w3.org/2000/svg"
 width="32.000000pt" height="32.000000pt" viewBox="0 0 32.000000 32.000000"
 preserveAspectRatio="xMidYMid meet">
<metadata>
Created by potrace 1.16, written by Peter Selinger 2001-2019
</metadata>
<g transform="translate(0.000000,32.000000) scale(0.100000,-0.100000)"
fill="#000000" stroke="none">
<path fill="#000000" stroke="none" d="M130 259 c0 -18 2 -19 15 -9 8 7 15 16
15 21 0 5 -7 9 -15 9 -9 0 -15 -9 -15 -21z"/>
<path fill="#000000" stroke="none" d="M117 215 c-4 -8 -2 -15 4 -15 6 0 8 -4
4 -9 -3 -5 -1 -12 4 -16 6 -3 8 6 5 22 -6 34 -10 38 -17 18z"/>
<path fill="#000000" stroke="none" d="M171 209 c-16 -13 -21 -23 -14 -30 6
-6 17 -1 32 15 28 30 14 41 -18 15z"/>
<path fill="#000000" stroke="none" d="M81 201 c-8 -5 -21 -7 -29 -3 -10 3
-13 1 -8 -6 9 -16 18 -15 42 3 21 16 17 20 -5 6z"/>
<path fill="#000000" stroke="none" d="M220 205 c0 -5 5 -17 10 -25 5 -8 10
-10 10 -5 0 6 -5 17 -10 25 -5 8 -10 11 -10 5z"/>
<path fill="#000000" stroke="none" d="M215 140 c3 -5 8 -10 11 -10 2 0 4 5 4
10 0 6 -5 10 -11 10 -5 0 -7 -4 -4 -10z"/>
<path fill="#000000" stroke="none" d="M120 120 c-9 -6 -10 -10 -3 -10 6 0 15
5 18 10 8 12 4 12 -15 0z"/>
<path fill="#000000" stroke="none" d="M166 119 c3 -5 12 -9 21 -9 19 0 9 13
-12 16 -8 1 -13 -2 -9 -7z"/>
</g>
</svg>
