<?xml version="1.0" standalone="no"?>
<!DOCTYPE svg PUBLIC "-//W3C//DTD SVG 20010904//EN"
 "http://www.w3.org/TR/2001/REC-SVG-20010904/DTD/svg10.dtd">
<svg version="1.0" xmlns="http://www.w3.org/2000/svg"
 width="32.000000pt" height="32.000000pt" viewBox="0 0 32.000000 32.000000"
 preserveAspectRatio="xMidYMid meet">
<metadata>
Created by potrace 1.16, written by Peter Selinger 2001-2019
</metadata>
<g transform="translate(0.000000,32.000000) scale(0.100000,-0.100000)"
fill="#000000" stroke="none">
<path fill="#000000" stroke="none" d="M0 160 l0 -160 59 0 c73 0 85 12 72 69
-5 22 -7 41 -4 41 3 0 0 7 -7 15 -7 9 -19 14 -27 11 -7 -3 -13 0 -13 7 0 7
-11 12 -25 12 -14 0 -25 -3 -25 -7 0 -5 -4 -8 -10 -8 -5 0 -10 7 -10 15 0 8 9
15 19 15 24 0 65 55 65 88 1 31 22 40 29 12 3 -11 2 -18 -2 -15 -4 2 -8 -2 -8
-10 0 -8 3 -12 7 -10 4 2 19 -8 34 -24 21 -22 26 -34 20 -55 -9 -37 -38 -36
-30 2 5 21 4 24 -4 10 -7 -12 -8 -29 -1 -50 5 -18 10 -25 10 -15 2 30 18 18
18 -13 0 -26 -3 -28 -16 -18 -11 8 -10 5 2 -9 12 -14 16 -29 12 -42 -6 -20 -3
-21 74 -21 l81 0 0 160 0 160 -160 0 -160 0 0 -160z"/>
<path fill="#ffffff" stroke="none" d="M220 183 c-1 -5 -7 -19 -15 -33 l-14
-25 -1 33 c0 22 5 32 15 32 8 0 15 -3 15 -7z"/>
<path fill="#ffffff" stroke="none" d="M260 172 c0 -13 -36 -43 -43 -36 -9 9
16 44 30 44 7 0 13 -4 13 -8z"/>
<path fill="#ffffff" stroke="none" d="M280 146 c0 -2 -6 -9 -13 -15 -10 -8
-14 -7 -14 4 0 8 6 15 14 15 7 0 13 -2 13 -4z"/>
<path fill="#ffffff" stroke="none" d="M115 120 c3 -5 1 -10 -5 -10 -6 0 -8
-4 -5 -10 3 -5 -2 -10 -11 -10 -17 0 -16 -1 1 -13 25 -19 13 -67 -16 -67 -18
0 -19 2 -9 15 7 8 10 24 7 36 -11 40 20 88 38 59z"/>
<path fill="#ffffff" stroke="none" d="M277 47 c5 -33 3 -37 -16 -37 -12 0
-20 4 -16 10 3 5 0 18 -7 29 -9 15 -9 23 2 36 17 20 29 8 37 -38z"/>
<path fill="#ffffff" stroke="none" d="M218 42 c3 -16 -2 -22 -16 -22 -16 0
-21 16 -13 48 3 13 27 -9 29 -26z"/>
</g>
</svg>
