<?xml version="1.0" standalone="no"?>
<!DOCTYPE svg PUBLIC "-//W3C//DTD SVG 20010904//EN"
 "http://www.w3.org/TR/2001/REC-SVG-20010904/DTD/svg10.dtd">
<svg version="1.0" xmlns="http://www.w3.org/2000/svg"
 width="32.000000pt" height="32.000000pt" viewBox="0 0 32.000000 32.000000"
 preserveAspectRatio="xMidYMid meet">
<metadata>
Created by potrace 1.16, written by Peter Selinger 2001-2019
</metadata>
<g transform="translate(0.000000,32.000000) scale(0.100000,-0.100000)"
fill="#000000" stroke="none">
<path fill="#000000" stroke="none" d="M0 160 l0 -160 160 0 160 0 0 160 0
160 -160 0 -160 0 0 -160z"/>
<path fill="#ffffff" stroke="none" d="M125 285 c0 -15 -7 -20 -25 -20 -14 0
-24 -5 -23 -11 1 -6 -4 -11 -12 -11 -12 0 -14 22 -5 47 2 3 2 8 2 11 -1 4 13
6 31 5 25 -1 32 -6 32 -21z"/>
<path fill="#ffffff" stroke="none" d="M221 263 c13 -17 13 -17 -6 -3 -11 8
-22 16 -24 17 -2 2 0 3 6 3 6 0 17 -8 24 -17z"/>
<path fill="#ffffff" stroke="none" d="M301 214 c9 -11 2 -9 -18 6 -18 13 -33
25 -33 27 0 8 38 -17 51 -33z"/>
<path fill="#ffffff" stroke="none" d="M124 218 c-3 -4 -9 -8 -15 -8 -5 0 -9
4 -9 8 0 5 7 9 15 9 8 0 12 -4 9 -9z"/>
<path fill="#ffffff" stroke="none" d="M255 160 c-9 -15 -45 -32 -45 -22 0 5
10 14 23 20 29 14 29 14 22 2z"/>
<path fill="#ffffff" stroke="none" d="M152 132 c-15 -15 -33 -37 -40 -47 -11
-17 -11 -16 -1 5 13 28 49 70 60 70 4 0 -5 -13 -19 -28z"/>
<path fill="#ffffff" stroke="none" d="M189 137 c-2 -1 -13 -9 -24 -17 -19
-14 -19 -14 -6 3 7 9 18 17 24 17 6 0 8 -1 6 -3z"/>
<path fill="#ffffff" stroke="none" d="M200 116 c0 -2 -7 -7 -16 -10 -8 -3
-12 -2 -9 4 6 10 25 14 25 6z"/>
<path fill="#ffffff" stroke="none" d="M35 48 c3 -7 -1 -4 -9 6 -9 11 -16 29
-15 40 1 17 2 16 9 -6 4 -14 11 -32 15 -40z"/>
<path fill="#ffffff" stroke="none" d="M54 64 c3 -8 2 -12 -4 -9 -6 3 -10 10
-10 16 0 14 7 11 14 -7z"/>
<path fill="#ffffff" stroke="none" d="M123 13 c-7 -2 -19 -2 -25 0 -7 3 -2 5
12 5 14 0 19 -2 13 -5z"/>
<path fill="#ffffff" stroke="none" d="M243 13 c-7 -2 -19 -2 -25 0 -7 3 -2 5
12 5 14 0 19 -2 13 -5z"/>
<path fill="#000000" stroke="none" d="M95 290 c-3 -6 1 -7 9 -4 18 7 21 14 7
14 -6 0 -13 -4 -16 -10z"/>
</g>
</svg>
