<?xml version="1.0" standalone="no"?>
<!DOCTYPE svg PUBLIC "-//W3C//DTD SVG 20010904//EN"
 "http://www.w3.org/TR/2001/REC-SVG-20010904/DTD/svg10.dtd">
<svg version="1.0" xmlns="http://www.w3.org/2000/svg"
 width="32.000000pt" height="32.000000pt" viewBox="0 0 32.000000 32.000000"
 preserveAspectRatio="xMidYMid meet">
<metadata>
Created by potrace 1.16, written by Peter Selinger 2001-2019
</metadata>
<g transform="translate(0.000000,32.000000) scale(0.100000,-0.100000)"
fill="#000000" stroke="none">
<path fill="#000000" stroke="none" d="M0 160 l0 -160 160 0 160 0 0 160 0
160 -160 0 -160 0 0 -160z"/>
<path fill="#ffffff" stroke="none" d="M156 298 c5 -7 3 -8 -6 -3 -9 6 -11 4
-5 -5 6 -10 11 -10 20 4 13 18 25 9 38 -27 4 -9 16 -21 28 -25 19 -7 19 -9 4
-22 -12 -10 -19 -10 -27 -2 -9 9 -9 12 1 12 11 0 11 3 1 15 -11 13 -15 13 -21
3 -7 -11 -9 -11 -9 0 0 7 -4 10 -10 7 -14 -9 -12 -25 3 -25 8 0 19 -11 25 -25
7 -14 19 -28 27 -31 15 -6 22 -34 8 -34 -4 0 -21 12 -37 28 -19 17 -24 19 -12
5 11 -13 16 -31 13 -43 -4 -15 0 -20 14 -20 10 0 19 -6 19 -14 0 -18 -23 -33
-27 -19 -2 6 -13 8 -25 6 -11 -4 -24 0 -29 8 -7 9 -7 5 -3 -14 12 -53 10 -62
-16 -65 -21 -3 -22 -2 -11 12 11 13 11 22 1 47 -10 24 -10 38 -1 70 12 40 7
65 -7 42 -10 -16 -52 -5 -52 13 0 17 12 18 28 2 9 -9 17 -5 36 15 25 27 24 46
-2 24 -13 -10 -14 -9 -7 3 6 8 10 22 10 30 0 15 13 40 20 40 2 0 7 -5 11 -12z"/>
</g>
</svg>
