<?xml version="1.0" standalone="no"?>
<!DOCTYPE svg PUBLIC "-//W3C//DTD SVG 20010904//EN"
 "http://www.w3.org/TR/2001/REC-SVG-20010904/DTD/svg10.dtd">
<svg version="1.0" xmlns="http://www.w3.org/2000/svg"
 width="32.000000pt" height="32.000000pt" viewBox="0 0 32.000000 32.000000"
 preserveAspectRatio="xMidYMid meet">
<metadata>
Created by potrace 1.16, written by Peter Selinger 2001-2019
</metadata>
<g transform="translate(0.000000,32.000000) scale(0.100000,-0.100000)"
fill="#000000" stroke="none">
<path fill="#000000" stroke="none" d="M90 283 c0 -6 5 -15 10 -18 6 -4 8 -10
5 -15 -3 -5 0 -12 6 -16 8 -4 9 -3 5 4 -4 7 -1 12 9 12 9 0 13 5 10 10 -3 6
-2 10 4 10 5 0 11 -6 14 -12 3 -7 4 -3 4 10 -1 16 -7 22 -24 22 -13 0 -23 -6
-23 -12 0 -9 -4 -8 -10 2 -6 9 -10 10 -10 3z"/>
<path fill="#000000" stroke="none" d="M93 185 c0 -8 4 -12 9 -9 4 3 8 9 8 15
0 5 -4 9 -8 9 -5 0 -9 -7 -9 -15z"/>
<path fill="#000000" stroke="none" d="M250 185 c7 -9 15 -13 17 -11 7 7 -7
26 -19 26 -6 0 -6 -6 2 -15z"/>
<path fill="#000000" stroke="none" d="M145 171 c-7 -12 12 -24 25 -16 11 7 4
25 -10 25 -5 0 -11 -4 -15 -9z"/>
<path fill="#000000" stroke="none" d="M20 155 c0 -8 4 -15 10 -15 5 0 7 7 4
15 -4 8 -8 15 -10 15 -2 0 -4 -7 -4 -15z"/>
<path fill="#000000" stroke="none" d="M256 132 c-3 -6 -1 -14 5 -17 14 -9 20
-2 10 14 -6 8 -11 9 -15 3z"/>
<path fill="#000000" stroke="none" d="M104 86 c-3 -9 -10 -13 -15 -10 -12 7
-11 -7 1 -26 7 -11 11 -9 20 14 6 16 8 31 6 34 -3 3 -8 -3 -12 -12z"/>
<path fill="#000000" stroke="none" d="M210 83 c0 -23 15 -39 24 -25 3 5 -1
18 -9 28 -14 18 -14 18 -15 -3z"/>
</g>
</svg>
