<?xml version="1.0" standalone="no"?>
<!DOCTYPE svg PUBLIC "-//W3C//DTD SVG 20010904//EN"
 "http://www.w3.org/TR/2001/REC-SVG-20010904/DTD/svg10.dtd">
<svg version="1.0" xmlns="http://www.w3.org/2000/svg"
 width="32.000000pt" height="32.000000pt" viewBox="0 0 32.000000 32.000000"
 preserveAspectRatio="xMidYMid meet">
<metadata>
Created by potrace 1.16, written by Peter Selinger 2001-2019
</metadata>
<g transform="translate(0.000000,32.000000) scale(0.100000,-0.100000)"
fill="#000000" stroke="none">
<path fill="#000000" stroke="none" d="M103 297 c-3 -5 1 -15 9 -21 20 -15 41
-56 29 -56 -6 0 -14 8 -20 18 -9 16 -11 16 -26 1 -15 -15 -15 -18 11 -38 16
-13 35 -19 46 -16 21 7 24 -8 6 -22 -7 -6 -27 -15 -45 -21 -32 -10 -32 -10
-22 15 11 29 6 53 -11 53 -5 0 -10 -7 -10 -15 0 -8 -4 -15 -9 -15 -5 0 -12 -7
-15 -16 -8 -21 38 -69 56 -58 10 5 10 4 1 -6 -9 -9 -9 -19 -2 -32 8 -15 7 -24
-5 -37 -15 -16 -14 -18 6 -16 21 1 23 7 23 53 0 43 3 52 18 52 24 0 70 47 63
65 -3 8 -1 15 4 15 13 0 13 27 0 35 -5 3 -18 1 -29 -4 -16 -9 -18 -8 -14 11 4
11 15 23 25 26 11 2 18 12 16 21 -2 12 -16 16 -51 17 -26 1 -50 -3 -54 -9z"/>
<path fill="#000000" stroke="none" d="M30 278 c0 -19 6 -23 35 -24 19 0 35 3
35 8 0 4 -6 8 -14 8 -8 0 -16 7 -20 15 -9 24 -36 18 -36 -7z"/>
<path fill="#000000" stroke="none" d="M245 274 c-37 -22 -38 -24 -14 -24 14
0 31 6 38 13 10 10 15 8 27 -8 15 -19 15 -19 12 9 -4 38 -14 39 -63 10z"/>
<path fill="#000000" stroke="none" d="M21 166 c-1 -25 21 -86 31 -86 4 0 8 6
8 13 0 8 4 7 11 -3 9 -13 10 -13 6 0 -2 8 -9 15 -14 15 -17 0 -25 11 -33 47
-4 18 -8 24 -9 14z"/>
<path fill="#000000" stroke="none" d="M287 138 c-4 -15 -15 -28 -25 -30 -16
-3 -16 -4 1 -11 13 -5 20 0 28 20 5 14 8 31 6 37 -2 6 -7 -1 -10 -16z"/>
<path fill="#000000" stroke="none" d="M166 105 c-3 -9 1 -26 9 -39 9 -13 13
-30 9 -39 -4 -11 0 -15 13 -13 10 2 17 5 16 7 -7 16 -13 38 -15 63 -3 33 -22
45 -32 21z"/>
<path fill="#000000" stroke="none" d="M220 101 c0 -5 5 -13 10 -16 6 -3 10
-2 10 4 0 5 -4 13 -10 16 -5 3 -10 2 -10 -4z"/>
</g>
</svg>
