<?xml version="1.0" standalone="no"?>
<!DOCTYPE svg PUBLIC "-//W3C//DTD SVG 20010904//EN"
 "http://www.w3.org/TR/2001/REC-SVG-20010904/DTD/svg10.dtd">
<svg version="1.0" xmlns="http://www.w3.org/2000/svg"
 width="32.000000pt" height="32.000000pt" viewBox="0 0 32.000000 32.000000"
 preserveAspectRatio="xMidYMid meet">
<metadata>
Created by potrace 1.16, written by Peter Selinger 2001-2019
</metadata>
<g transform="translate(0.000000,32.000000) scale(0.100000,-0.100000)"
fill="#000000" stroke="none">
<path fill="#000000" stroke="none" d="M0 160 l0 -160 160 0 160 0 0 160 0
160 -160 0 -160 0 0 -160z"/>
<path fill="#ffffff" stroke="none" d="M78 304 c12 -4 22 -11 22 -16 0 -5 -4
-7 -9 -4 -5 4 -12 0 -14 -6 -4 -8 -6 -7 -6 4 -1 9 -11 19 -23 21 -13 2 -16 5
-8 6 8 0 25 -2 38 -5z"/>
<path fill="#ffffff" stroke="none" d="M196 290 c-7 -8 -11 -21 -9 -27 3 -7 0
-13 -6 -13 -6 0 -8 -6 -5 -14 3 -8 -1 -18 -8 -22 -16 -11 -42 -15 -33 -6 4 4
12 7 18 7 7 0 12 7 12 15 0 8 4 20 8 27 4 6 2 15 -4 19 -7 4 -10 3 -6 -2 7
-12 -19 -47 -31 -40 -5 3 -9 -5 -8 -17 1 -31 39 -35 60 -5 l17 23 39 -42 c38
-40 51 -73 30 -73 -5 0 -10 6 -10 13 0 8 -10 23 -23 35 -22 21 -24 21 -39 5
-16 -19 -18 -45 -4 -76 5 -10 6 -20 3 -23 -3 -4 3 -15 13 -27 22 -23 18 -37
-13 -37 -19 0 -19 1 -4 12 15 12 13 16 -13 45 -17 19 -35 30 -44 27 -14 -5
-16 -27 -4 -40 12 -11 -16 -44 -37 -43 -19 0 -19 1 2 15 18 13 20 19 11 34 -9
14 -8 25 5 51 11 23 13 38 6 51 -12 23 -15 22 -41 -2 -26 -24 -58 -26 -58 -4
0 11 5 14 17 10 10 -4 26 3 44 20 29 27 29 27 7 38 -37 19 -31 32 28 57 66 29
101 33 80 9z"/>
<path fill="#ffffff" stroke="none" d="M288 303 c-15 -2 -35 -14 -43 -26 l-15
-21 0 21 c0 22 17 31 60 30 23 0 23 0 -2 -4z"/>
<path fill="#ffffff" stroke="none" d="M280 86 c0 -2 -8 -10 -17 -17 -16 -13
-17 -12 -4 4 13 16 21 21 21 13z"/>
</g>
</svg>
