<?xml version="1.0" standalone="no"?>
<!DOCTYPE svg PUBLIC "-//W3C//DTD SVG 20010904//EN"
 "http://www.w3.org/TR/2001/REC-SVG-20010904/DTD/svg10.dtd">
<svg version="1.0" xmlns="http://www.w3.org/2000/svg"
 width="32.000000pt" height="32.000000pt" viewBox="0 0 32.000000 32.000000"
 preserveAspectRatio="xMidYMid meet">
<metadata>
Created by potrace 1.16, written by Peter Selinger 2001-2019
</metadata>
<g transform="translate(0.000000,32.000000) scale(0.100000,-0.100000)"
fill="#000000" stroke="none">
<path fill="#000000" stroke="none" d="M0 160 l0 -160 160 0 160 0 0 160 0
160 -160 0 -160 0 0 -160z"/>
<path fill="#ffffff" stroke="none" d="M205 283 c5 -13 13 -23 17 -23 4 0 23
-14 42 -31 33 -28 35 -34 32 -80 -2 -27 0 -52 5 -55 16 -10 9 -22 -25 -43 -36
-22 -81 -28 -91 -11 -4 7 -19 3 -41 -11 -21 -12 -42 -18 -52 -14 -16 6 -16 7
1 20 13 9 17 20 12 35 -4 13 1 36 15 61 22 44 20 67 -8 92 -23 21 -52 6 -33
-17 10 -12 8 -17 -17 -30 -26 -13 -32 -14 -42 -1 -25 30 25 94 76 98 16 1 35
10 42 20 18 24 54 18 67 -10z"/>
<path fill="#000000" stroke="none" d="M215 191 c-3 -10 -3 -26 1 -35 6 -16 8
-16 25 0 24 22 24 31 0 44 -16 8 -21 6 -26 -9z"/>
<path fill="#000000" stroke="none" d="M160 100 c-15 -28 -11 -31 18 -16 20
11 21 14 8 25 -12 10 -17 9 -26 -9z"/>
</g>
</svg>
