<?xml version="1.0" standalone="no"?>
<!DOCTYPE svg PUBLIC "-//W3C//DTD SVG 20010904//EN"
 "http://www.w3.org/TR/2001/REC-SVG-20010904/DTD/svg10.dtd">
<svg version="1.0" xmlns="http://www.w3.org/2000/svg"
 width="32.000000pt" height="32.000000pt" viewBox="0 0 32.000000 32.000000"
 preserveAspectRatio="xMidYMid meet">
<metadata>
Created by potrace 1.16, written by Peter Selinger 2001-2019
</metadata>
<g transform="translate(0.000000,32.000000) scale(0.100000,-0.100000)"
fill="#000000" stroke="none">
<path fill="#000000" stroke="none" d="M0 160 l0 -160 107 0 c94 0 105 2 93
15 -12 11 -23 12 -57 3 -70 -17 -76 -8 -41 58 23 45 27 63 20 78 -9 20 -10 20
-21 -8 -9 -22 -15 -26 -23 -18 -8 8 -16 8 -23 2 -8 -6 -18 -5 -30 4 -16 12
-17 16 -6 30 7 9 23 16 34 16 11 0 31 9 43 21 21 20 21 22 6 49 -14 23 -14 31
-3 44 26 31 81 14 81 -26 0 -10 6 -18 13 -18 6 0 24 -7 39 -14 16 -9 30 -11
33 -5 9 14 35 11 41 -6 4 -8 -7 -28 -26 -46 -30 -31 -31 -31 -37 -10 -7 27
-19 27 -26 1 -9 -35 24 -96 57 -106 42 -13 43 -32 4 -49 l-33 -14 38 -1 37 0
0 160 0 160 -160 0 -160 0 0 -160z"/>
<path fill="#000000" stroke="none" d="M155 70 c-8 -13 5 -13 25 0 13 8 13 10
-2 10 -9 0 -20 -4 -23 -10z"/>
</g>
</svg>
