<?xml version="1.0" standalone="no"?>
<!DOCTYPE svg PUBLIC "-//W3C//DTD SVG 20010904//EN"
 "http://www.w3.org/TR/2001/REC-SVG-20010904/DTD/svg10.dtd">
<svg version="1.0" xmlns="http://www.w3.org/2000/svg"
 width="32.000000pt" height="32.000000pt" viewBox="0 0 32.000000 32.000000"
 preserveAspectRatio="xMidYMid meet">
<metadata>
Created by potrace 1.16, written by Peter Selinger 2001-2019
</metadata>
<g transform="translate(0.000000,32.000000) scale(0.100000,-0.100000)"
fill="#000000" stroke="none">
<path fill="#000000" stroke="none" d="M116 278 c-40 -61 -76 -158 -70 -188 4
-17 11 -33 16 -36 5 -3 2 -14 -7 -24 -23 -25 -1 -36 30 -16 18 12 30 13 51 6
30 -12 152 -3 172 13 16 13 15 46 -2 77 -8 14 -25 46 -37 72 -24 54 -89 118
-119 118 -11 0 -26 -10 -34 -22z"/>
<path fill="#ffffff" stroke="none" d="M203 260 c39 -34 82 -123 71 -148 -3
-10 -7 -27 -8 -39 -2 -28 -13 -39 -49 -47 -19 -4 -26 -3 -22 4 3 5 14 10 23
10 9 0 22 11 28 23 l10 23 -81 -4 c-81 -4 -125 6 -125 29 0 6 18 49 39 95 45
96 59 103 114 54z"/>
<path fill="#ffffff" stroke="none" d="M89 58 c12 -19 11 -23 -5 -35 -10 -7
-23 -13 -28 -13 -6 0 -2 7 8 15 16 12 17 18 8 27 -7 7 -12 16 -12 20 0 15 15
8 29 -14z"/>
</g>
</svg>
