<?xml version="1.0" standalone="no"?>
<!DOCTYPE svg PUBLIC "-//W3C//DTD SVG 20010904//EN"
 "http://www.w3.org/TR/2001/REC-SVG-20010904/DTD/svg10.dtd">
<svg version="1.0" xmlns="http://www.w3.org/2000/svg"
 width="32.000000pt" height="32.000000pt" viewBox="0 0 32.000000 32.000000"
 preserveAspectRatio="xMidYMid meet">
<metadata>
Created by potrace 1.16, written by Peter Selinger 2001-2019
</metadata>
<g transform="translate(0.000000,32.000000) scale(0.100000,-0.100000)"
fill="#000000" stroke="none">
<path fill="#000000" stroke="none" d="M183 259 c-23 -23 -90 -48 -101 -37
-13 13 -32 2 -32 -18 0 -8 -5 -23 -12 -33 -8 -14 -9 -33 -2 -68 9 -47 10 -48
43 -46 23 1 41 9 54 25 10 13 16 18 13 11 -9 -18 32 -26 64 -13 37 16 80 78
80 117 0 32 -21 63 -43 63 -7 0 -21 3 -32 6 -11 3 -25 0 -32 -7z"/>
<path fill="#ffffff" stroke="none" d="M230 220 c0 -6 -25 -22 -55 -37 -48
-24 -57 -25 -65 -13 -8 13 -10 12 -10 -2 0 -10 -2 -18 -4 -18 -2 0 -11 -3 -20
-6 -10 -4 -16 -1 -16 8 0 15 69 51 130 67 19 5 36 10 38 10 1 1 2 -4 2 -9z"/>
<path fill="#ffffff" stroke="none" d="M80 210 c0 -5 -4 -10 -10 -10 -5 0 -10
5 -10 10 0 6 5 10 10 10 6 0 10 -4 10 -10z"/>
</g>
</svg>
