<?xml version="1.0" standalone="no"?>
<!DOCTYPE svg PUBLIC "-//W3C//DTD SVG 20010904//EN"
 "http://www.w3.org/TR/2001/REC-SVG-20010904/DTD/svg10.dtd">
<svg version="1.0" xmlns="http://www.w3.org/2000/svg"
 width="32.000000pt" height="32.000000pt" viewBox="0 0 32.000000 32.000000"
 preserveAspectRatio="xMidYMid meet">
<metadata>
Created by potrace 1.16, written by Peter Selinger 2001-2019
</metadata>
<g transform="translate(0.000000,32.000000) scale(0.100000,-0.100000)"
fill="#000000" stroke="none">
<path fill="#000000" stroke="none" d="M0 160 l0 -160 160 0 160 0 0 160 0
160 -160 0 -160 0 0 -160z"/>
<path fill="#ffffff" stroke="none" d="M247 260 c22 0 43 -31 43 -64 0 -72
-116 -165 -137 -110 -5 14 -8 13 -23 -6 -11 -14 -28 -22 -51 -23 -33 -2 -34
-1 -43 46 -7 35 -6 54 2 68 7 10 12 25 12 33 0 20 19 31 32 18 8 -8 20 -6 40
4 17 9 32 13 34 11 3 -2 -9 -10 -26 -17 -32 -13 -35 -21 -20 -50 9 -18 12 -17
57 7 27 13 52 28 56 33 11 10 -10 50 -26 50 -7 0 -6 -4 3 -10 12 -8 10 -10 -9
-10 -20 0 -22 2 -10 16 7 9 21 13 33 10 12 -3 26 -6 33 -6z"/>
<path fill="#000000" stroke="none" d="M232 239 c2 -6 8 -10 13 -10 5 0 11 4
13 10 2 6 -4 11 -13 11 -9 0 -15 -5 -13 -11z"/>
<path fill="#000000" stroke="none" d="M60 210 c0 -5 5 -10 11 -10 6 0 1 -8
-11 -18 -34 -28 -8 -56 29 -33 12 8 12 14 1 40 -12 30 -30 42 -30 21z"/>
</g>
</svg>
