<?xml version="1.0" standalone="no"?>
<!DOCTYPE svg PUBLIC "-//W3C//DTD SVG 20010904//EN"
 "http://www.w3.org/TR/2001/REC-SVG-20010904/DTD/svg10.dtd">
<svg version="1.0" xmlns="http://www.w3.org/2000/svg"
 width="32.000000pt" height="32.000000pt" viewBox="0 0 32.000000 32.000000"
 preserveAspectRatio="xMidYMid meet">
<metadata>
Created by potrace 1.16, written by Peter Selinger 2001-2019
</metadata>
<g transform="translate(0.000000,32.000000) scale(0.100000,-0.100000)"
fill="#000000" stroke="none">
<path fill="#000000" stroke="none" d="M200 250 c-9 -6 -10 -10 -3 -10 6 0 15
5 18 10 8 12 4 12 -15 0z"/>
<path fill="#000000" stroke="none" d="M130 230 c-8 -5 -10 -10 -5 -10 6 0 17
5 25 10 8 5 11 10 5 10 -5 0 -17 -5 -25 -10z"/>
<path fill="#000000" stroke="none" d="M204 194 c-18 -14 -18 -14 6 -3 31 14
36 19 24 19 -6 0 -19 -7 -30 -16z"/>
<path fill="#000000" stroke="none" d="M34 169 c-3 -6 2 -18 12 -27 17 -16 17
-16 5 0 -7 9 -10 22 -6 28 3 5 4 10 1 10 -3 0 -8 -5 -12 -11z"/>
</g>
</svg>
