<?xml version="1.0" standalone="no"?>
<!DOCTYPE svg PUBLIC "-//W3C//DTD SVG 20010904//EN"
 "http://www.w3.org/TR/2001/REC-SVG-20010904/DTD/svg10.dtd">
<svg version="1.0" xmlns="http://www.w3.org/2000/svg"
 width="32.000000pt" height="32.000000pt" viewBox="0 0 32.000000 32.000000"
 preserveAspectRatio="xMidYMid meet">
<metadata>
Created by potrace 1.16, written by Peter Selinger 2001-2019
</metadata>
<g transform="translate(0.000000,32.000000) scale(0.100000,-0.100000)"
fill="#000000" stroke="none">
<path fill="#000000" stroke="none" d="M92 234 c-12 -8 -29 -29 -38 -46 -13
-25 -13 -35 -3 -59 15 -37 55 -69 86 -69 42 0 119 46 133 80 19 46 1 80 -42
80 -18 0 -42 7 -52 15 -26 19 -56 19 -84 -1z"/>
<path fill="#ffffff" stroke="none" d="M176 225 c12 -8 27 -28 34 -44 10 -26
10 -35 -7 -63 -36 -63 -105 -61 -138 3 -14 26 -15 36 -4 60 14 35 45 59 74 59
11 0 30 -7 41 -15z"/>
<path fill="#000000" stroke="none" d="M99 220 c-9 -5 -22 -23 -28 -39 -10
-24 -10 -34 3 -59 28 -54 94 -55 122 -1 33 65 -35 135 -97 99z"/>
<path fill="#ffffff" stroke="none" d="M168 208 c11 4 14 1 9 -11 -4 -10 -1
-17 6 -17 7 0 8 -3 2 -8 -6 -4 -16 -19 -24 -34 -9 -17 -20 -25 -32 -23 -11 2
-19 0 -19 -6 0 -5 -5 -9 -10 -9 -6 0 -10 6 -9 13 1 6 -1 20 -6 30 -12 28 3 65
28 69 12 2 26 1 31 -3 5 -4 15 -5 24 -1z"/>
<path fill="#ffffff" stroke="none" d="M180 110 c0 -5 -4 -10 -10 -10 -5 0
-10 5 -10 10 0 6 5 10 10 10 6 0 10 -4 10 -10z"/>
</g>
</svg>
