<?xml version="1.0" standalone="no"?>
<!DOCTYPE svg PUBLIC "-//W3C//DTD SVG 20010904//EN"
 "http://www.w3.org/TR/2001/REC-SVG-20010904/DTD/svg10.dtd">
<svg version="1.0" xmlns="http://www.w3.org/2000/svg"
 width="32.000000pt" height="32.000000pt" viewBox="0 0 32.000000 32.000000"
 preserveAspectRatio="xMidYMid meet">
<metadata>
Created by potrace 1.16, written by Peter Selinger 2001-2019
</metadata>
<g transform="translate(0.000000,32.000000) scale(0.100000,-0.100000)"
fill="#000000" stroke="none">
<path fill="#000000" stroke="none" d="M0 160 l0 -160 160 0 160 0 0 160 0
160 -160 0 -160 0 0 -160z"/>
<path fill="#ffffff" stroke="none" d="M173 239 c4 -16 11 -20 27 -16 14 4 25
-2 36 -18 23 -35 15 -61 -17 -57 -31 4 -52 -18 -47 -50 4 -29 -24 -36 -57 -14
-16 11 -22 22 -18 32 4 11 -2 23 -17 34 -22 16 -22 20 -10 49 23 57 92 84 103
40z"/>
<path fill="#000000" stroke="none" d="M125 214 c3 -30 1 -33 -11 -23 -10 8
-11 15 -4 24 8 9 8 15 1 20 -6 3 -18 -9 -27 -27 -16 -34 -15 -34 15 -67 32
-34 44 -23 14 13 -10 12 -4 8 12 -7 24 -22 27 -29 16 -36 -8 -5 -21 -7 -30 -4
-12 5 -13 3 -5 -6 6 -6 22 -14 36 -16 22 -4 25 -2 21 18 -5 26 24 57 56 60 23
1 26 9 11 37 -6 12 -16 17 -26 13 -11 -4 -12 -9 -5 -16 14 -14 14 -27 1 -27
-5 0 -10 6 -10 13 0 8 -9 22 -20 32 -11 10 -17 22 -14 26 3 5 -4 9 -14 9 -17
0 -19 -6 -17 -36z"/>
<path fill="#ffffff" stroke="none" d="M171 183 c13 -16 12 -17 -3 -4 -10 7
-18 15 -18 17 0 8 8 3 21 -13z"/>
<path fill="#ffffff" stroke="none" d="M161 153 c13 -16 12 -17 -3 -4 -10 7
-18 15 -18 17 0 8 8 3 21 -13z"/>
</g>
</svg>
