<?xml version="1.0" standalone="no"?>
<!DOCTYPE svg PUBLIC "-//W3C//DTD SVG 20010904//EN"
 "http://www.w3.org/TR/2001/REC-SVG-20010904/DTD/svg10.dtd">
<svg version="1.0" xmlns="http://www.w3.org/2000/svg"
 width="32.000000pt" height="32.000000pt" viewBox="0 0 32.000000 32.000000"
 preserveAspectRatio="xMidYMid meet">
<metadata>
Created by potrace 1.16, written by Peter Selinger 2001-2019
</metadata>
<g transform="translate(0.000000,32.000000) scale(0.100000,-0.100000)"
fill="#000000" stroke="none">
<path fill="#000000" stroke="none" d="M98 250 c-14 -10 -31 -34 -38 -51 -13
-29 -12 -33 9 -50 12 -10 21 -26 19 -35 -2 -9 9 -26 24 -37 23 -17 33 -19 55
-11 16 5 28 15 28 21 0 23 23 37 38 25 19 -16 50 18 45 49 -4 31 -26 36 -30 7
-2 -18 -8 -22 -26 -20 -32 5 -54 -16 -50 -47 4 -32 -27 -40 -57 -16 -20 16
-20 16 2 6 36 -18 51 -14 46 12 -6 29 28 62 57 54 23 -6 26 11 9 46 -10 21
-10 21 5 3 9 -11 16 -15 16 -9 0 16 -31 38 -50 35 -11 -2 -20 5 -23 18 -7 26
-46 27 -79 0z"/>
<path fill="#ffffff" stroke="none" d="M173 239 c4 -16 11 -20 26 -16 12 3 19
1 15 -4 -9 -16 -32 -10 -48 12 -21 31 -62 18 -83 -26 -16 -34 -16 -36 5 -51
23 -16 29 -39 12 -49 -6 -4 -7 1 -3 11 4 11 -2 23 -17 34 -22 16 -22 20 -10
49 23 57 92 84 103 40z"/>
<path fill="#ffffff" stroke="none" d="M130 210 c0 -5 -4 -10 -10 -10 -5 0
-10 5 -10 10 0 6 5 10 10 10 6 0 10 -4 10 -10z"/>
<path fill="#ffffff" stroke="none" d="M210 180 c0 -5 -4 -10 -10 -10 -5 0
-10 5 -10 10 0 6 5 10 10 10 6 0 10 -4 10 -10z"/>
<path fill="#ffffff" stroke="none" d="M170 155 c-7 -8 -16 -15 -21 -15 -5 0
-1 8 9 18 20 22 31 19 12 -3z"/>
<path fill="#ffffff" stroke="none" d="M150 120 c0 -5 -4 -10 -10 -10 -5 0
-10 5 -10 10 0 6 5 10 10 10 6 0 10 -4 10 -10z"/>
</g>
</svg>
