<?xml version="1.0" standalone="no"?>
<!DOCTYPE svg PUBLIC "-//W3C//DTD SVG 20010904//EN"
 "http://www.w3.org/TR/2001/REC-SVG-20010904/DTD/svg10.dtd">
<svg version="1.0" xmlns="http://www.w3.org/2000/svg"
 width="32.000000pt" height="32.000000pt" viewBox="0 0 32.000000 32.000000"
 preserveAspectRatio="xMidYMid meet">
<metadata>
Created by potrace 1.16, written by Peter Selinger 2001-2019
</metadata>
<g transform="translate(0.000000,32.000000) scale(0.100000,-0.100000)"
fill="#000000" stroke="none">
<path fill="#000000" stroke="none" d="M120 206 c-19 -11 -25 -23 -27 -55 -1
-22 2 -43 7 -46 5 -3 9 9 8 27 -2 53 9 68 53 68 21 0 39 -4 39 -9 0 -14 -37
-23 -60 -16 -11 3 -20 2 -20 -3 0 -11 19 -28 40 -35 8 -2 3 -3 -11 -1 -24 3
-26 0 -23 -27 5 -40 11 -49 35 -49 19 0 21 6 21 65 0 31 15 58 28 50 4 -2 5
-21 3 -42 -2 -20 -1 -34 4 -30 4 4 8 26 9 48 1 34 -2 42 -27 54 -34 18 -47 18
-79 1z"/>
<path fill="#ffffff" stroke="none" d="M166 92 c-10 -2 -22 0 -28 6 -6 6 0 7
19 4 21 -5 23 -7 9 -10z"/>
</g>
</svg>
