<?xml version="1.0" standalone="no"?>
<!DOCTYPE svg PUBLIC "-//W3C//DTD SVG 20010904//EN"
 "http://www.w3.org/TR/2001/REC-SVG-20010904/DTD/svg10.dtd">
<svg version="1.0" xmlns="http://www.w3.org/2000/svg"
 width="32.000000pt" height="32.000000pt" viewBox="0 0 32.000000 32.000000"
 preserveAspectRatio="xMidYMid meet">
<metadata>
Created by potrace 1.16, written by Peter Selinger 2001-2019
</metadata>
<g transform="translate(0.000000,32.000000) scale(0.100000,-0.100000)"
fill="#000000" stroke="none">
<path fill="#000000" stroke="none" d="M94 282 c-6 -22 -8 -22 -25 -6 -11 9
-19 12 -19 6 0 -6 5 -14 10 -17 18 -11 -1 -26 -23 -20 l-22 6 22 -18 c11 -10
23 -27 25 -38 2 -12 13 -21 26 -23 19 -3 22 -8 16 -25 -4 -12 -8 -38 -8 -57
l-1 -35 63 -2 c42 -1 62 2 63 10 0 7 2 21 4 32 2 11 -2 32 -9 46 -8 16 -10 32
-5 40 6 10 9 11 9 2 0 -7 7 -13 15 -13 10 0 15 10 15 27 0 14 8 35 18 46 16
19 16 19 -8 12 -20 -6 -23 -5 -12 6 16 17 16 37 0 21 -16 -16 -28 -15 -28 3 0
12 -4 11 -20 -5 -30 -30 -79 -25 -93 10 -4 11 -7 9 -13 -8z"/>
</g>
</svg>
