<?xml version="1.0" standalone="no"?>
<!DOCTYPE svg PUBLIC "-//W3C//DTD SVG 20010904//EN"
 "http://www.w3.org/TR/2001/REC-SVG-20010904/DTD/svg10.dtd">
<svg version="1.0" xmlns="http://www.w3.org/2000/svg"
 width="32.000000pt" height="32.000000pt" viewBox="0 0 32.000000 32.000000"
 preserveAspectRatio="xMidYMid meet">
<metadata>
Created by potrace 1.16, written by Peter Selinger 2001-2019
</metadata>
<g transform="translate(0.000000,32.000000) scale(0.100000,-0.100000)"
fill="#000000" stroke="none">
<path fill="#000000" stroke="none" d="M0 160 l0 -160 160 0 160 0 0 160 0
160 -160 0 -160 0 0 -160z"/>
<path fill="#ffffff" stroke="none" d="M280 275 c18 -19 31 -37 29 -40 -3 -2
-21 11 -39 30 -33 34 -36 35 -109 35 -71 0 -77 -2 -108 -32 -32 -31 -33 -35
-33 -108 0 -74 1 -77 35 -110 19 -18 32 -36 30 -39 -3 -2 -21 11 -40 29 -35
34 -35 35 -35 119 0 82 1 86 32 118 31 32 34 33 118 33 85 0 86 0 120 -35z"/>
<path fill="#ffffff" stroke="none" d="M223 206 c-1 -21 -8 -45 -14 -52 -6 -8
-8 -14 -3 -14 4 0 -3 -11 -16 -25 -16 -17 -34 -25 -57 -25 -20 0 -32 -4 -28
-10 3 -5 -2 -11 -12 -12 -10 -1 25 -4 77 -7 73 -5 99 -3 112 8 28 23 21 4 -12
-29 -28 -29 -44 -29 -17 -1 10 11 9 13 -1 7 -7 -4 -47 -10 -90 -13 -64 -4 -80
-2 -91 11 -7 9 -10 16 -5 16 5 0 -2 7 -15 16 -21 15 -22 18 -7 26 11 6 15 16
10 30 -4 14 -2 18 5 14 6 -4 11 0 11 11 0 14 2 15 9 4 6 -9 11 3 16 38 5 35
13 55 25 61 25 13 33 13 24 -2 -4 -7 2 -4 14 6 12 11 22 16 22 12 0 -4 8 -3
18 3 21 12 30 -14 25 -73z"/>
<path fill="#000000" stroke="none" d="M157 224 c-11 -11 -8 -59 4 -71 17 -17
52 19 47 49 -3 23 -36 37 -51 22z"/>
</g>
</svg>
