<?xml version="1.0" standalone="no"?>
<!DOCTYPE svg PUBLIC "-//W3C//DTD SVG 20010904//EN"
 "http://www.w3.org/TR/2001/REC-SVG-20010904/DTD/svg10.dtd">
<svg version="1.0" xmlns="http://www.w3.org/2000/svg"
 width="32.000000pt" height="32.000000pt" viewBox="0 0 32.000000 32.000000"
 preserveAspectRatio="xMidYMid meet">
<metadata>
Created by potrace 1.16, written by Peter Selinger 2001-2019
</metadata>
<g transform="translate(0.000000,32.000000) scale(0.100000,-0.100000)"
fill="#000000" stroke="none">
<path fill="#000000" stroke="none" d="M0 160 l0 -160 160 0 160 0 0 160 0
160 -160 0 -160 0 0 -160z"/>
<path fill="#ffffff" stroke="none" d="M280 275 c18 -19 31 -37 29 -40 -3 -2
-21 11 -39 30 -33 34 -36 35 -109 35 -71 0 -77 -2 -108 -32 -32 -31 -33 -35
-33 -108 0 -74 1 -77 35 -110 19 -18 32 -36 30 -39 -3 -2 -21 11 -40 29 -35
34 -35 35 -35 119 0 82 1 86 32 118 31 32 34 33 118 33 85 0 86 0 120 -35z"/>
<path fill="#ffffff" stroke="none" d="M240 227 c0 -7 -5 -18 -11 -24 -8 -8
-8 -13 0 -17 6 -4 11 -2 11 5 0 10 3 10 12 1 16 -16 -9 -47 -27 -32 -16 14
-30 -4 -18 -22 13 -21 10 -58 -5 -58 -10 0 -12 7 -7 27 l7 28 -25 -23 c-16
-15 -27 -20 -32 -13 -3 6 -11 8 -17 5 -8 -5 10 29 29 55 2 3 0 -11 -3 -30 l-7
-34 21 19 c14 12 22 31 22 52 0 19 8 43 17 54 20 23 33 26 33 7z"/>
<path fill="#ffffff" stroke="none" d="M164 221 c19 9 20 9 4 -4 -20 -16 -25
-42 -5 -31 6 4 9 4 5 0 -3 -4 -8 -6 -11 -4 -2 2 -11 -3 -19 -9 -12 -10 -15
-10 -15 2 0 8 4 12 9 9 11 -7 10 20 -2 34 -7 9 -7 9 2 2 7 -6 19 -5 32 1z"/>
</g>
</svg>
