<?xml version="1.0" standalone="no"?>
<!DOCTYPE svg PUBLIC "-//W3C//DTD SVG 20010904//EN"
 "http://www.w3.org/TR/2001/REC-SVG-20010904/DTD/svg10.dtd">
<svg version="1.0" xmlns="http://www.w3.org/2000/svg"
 width="32.000000pt" height="32.000000pt" viewBox="0 0 32.000000 32.000000"
 preserveAspectRatio="xMidYMid meet">
<metadata>
Created by potrace 1.16, written by Peter Selinger 2001-2019
</metadata>
<g transform="translate(0.000000,32.000000) scale(0.100000,-0.100000)"
fill="#000000" stroke="none">
<path fill="#000000" stroke="none" d="M42 277 c-31 -32 -32 -36 -32 -119 0
-48 3 -89 8 -91 4 -3 6 34 4 81 l-3 87 34 33 c34 33 35 34 120 30 47 -2 83 0
80 5 -2 4 -44 7 -92 7 -85 0 -88 -1 -119 -33z"/>
<path fill="#000000" stroke="none" d="M143 204 c-3 -8 -2 -19 3 -24 5 -5 9 1
9 16 0 28 -3 30 -12 8z"/>
<path fill="#000000" stroke="none" d="M147 143 c-10 -10 -8 -41 2 -48 5 -3
13 0 17 6 5 8 3 9 -6 4 -10 -6 -12 -1 -8 19 6 28 5 30 -5 19z"/>
</g>
</svg>
