<?xml version="1.0" standalone="no"?>
<!DOCTYPE svg PUBLIC "-//W3C//DTD SVG 20010904//EN"
 "http://www.w3.org/TR/2001/REC-SVG-20010904/DTD/svg10.dtd">
<svg version="1.0" xmlns="http://www.w3.org/2000/svg"
 width="32.000000pt" height="32.000000pt" viewBox="0 0 32.000000 32.000000"
 preserveAspectRatio="xMidYMid meet">
<metadata>
Created by potrace 1.16, written by Peter Selinger 2001-2019
</metadata>
<g transform="translate(0.000000,32.000000) scale(0.100000,-0.100000)"
fill="#000000" stroke="none">
<path fill="#000000" stroke="none" d="M0 160 l0 -160 160 0 160 0 0 160 0
160 -160 0 -160 0 0 -160z"/>
<path fill="#ffffff" stroke="none" d="M254 278 c13 -22 1 -35 -19 -18 -8 7
-16 10 -16 6 -1 -3 -2 -10 -3 -15 0 -5 -4 -13 -9 -17 -10 -10 -47 -13 -41 -3
2 4 0 10 -6 14 -5 3 -10 -3 -10 -13 0 -23 -25 -46 -40 -37 -16 10 0 27 19 20
13 -5 13 -4 4 6 -18 18 -50 -14 -50 -49 0 -36 -13 -63 -26 -55 -6 3 -7 1 -3
-6 9 -14 -12 -43 -25 -35 -5 3 -9 40 -9 82 0 72 2 78 32 109 32 33 34 34 112
31 61 -2 81 -7 90 -20z"/>
<path fill="#ffffff" stroke="none" d="M300 162 c0 -72 -2 -78 -32 -109 -31
-32 -35 -33 -109 -33 -82 0 -102 10 -93 47 4 15 11 20 22 16 10 -4 13 -2 8 5
-3 6 -2 13 3 17 10 5 19 -3 46 -40 l14 -20 -3 20 c-2 11 6 29 17 40 l20 20
-12 -22 c-9 -18 -8 -23 10 -28 11 -4 23 -4 26 -1 11 10 12 55 2 61 -5 4 -9 11
-9 17 0 7 4 7 13 -1 11 -8 18 -6 31 8 20 22 12 46 -11 36 -14 -5 -14 -3 -2 12
20 26 43 42 51 37 5 -3 8 -40 8 -82z"/>
<path fill="#ffffff" stroke="none" d="M124 168 c-10 -16 -33 -8 -31 11 1 15
4 17 18 8 10 -6 15 -15 13 -19z"/>
<path fill="#ffffff" stroke="none" d="M154 151 c7 -11 -14 -20 -31 -13 -7 2
-10 8 -7 13 7 12 31 12 38 0z"/>
</g>
</svg>
