<?xml version="1.0" standalone="no"?>
<!DOCTYPE svg PUBLIC "-//W3C//DTD SVG 20010904//EN"
 "http://www.w3.org/TR/2001/REC-SVG-20010904/DTD/svg10.dtd">
<svg version="1.0" xmlns="http://www.w3.org/2000/svg"
 width="32.000000pt" height="32.000000pt" viewBox="0 0 32.000000 32.000000"
 preserveAspectRatio="xMidYMid meet">
<metadata>
Created by potrace 1.16, written by Peter Selinger 2001-2019
</metadata>
<g transform="translate(0.000000,32.000000) scale(0.100000,-0.100000)"
fill="#000000" stroke="none">
<path fill="#000000" stroke="none" d="M52 267 c-32 -33 -33 -36 -30 -112 3
-90 17 -105 49 -51 17 29 26 35 50 33 21 -1 29 -7 29 -21 0 -16 2 -17 18 -5
15 13 16 12 3 -3 -12 -17 -15 -17 -41 2 l-28 20 -21 -34 c-26 -41 -26 -48 -3
-69 14 -13 38 -17 93 -17 72 0 76 1 107 33 30 31 32 37 32 109 0 83 -10 101
-51 92 -21 -5 -22 -4 -6 6 18 11 18 13 1 31 -14 16 -31 19 -94 19 -73 0 -77
-1 -108 -33z"/>
<path fill="#ffffff" stroke="none" d="M161 211 c-8 -5 -11 -18 -7 -32 3 -13
3 -18 0 -11 -3 6 -9 10 -14 7 -4 -3 -7 5 -6 18 1 15 8 24 21 25 14 1 16 -1 6
-7z"/>
</g>
</svg>
