<?xml version="1.0" standalone="no"?>
<!DOCTYPE svg PUBLIC "-//W3C//DTD SVG 20010904//EN"
 "http://www.w3.org/TR/2001/REC-SVG-20010904/DTD/svg10.dtd">
<svg version="1.0" xmlns="http://www.w3.org/2000/svg"
 width="32.000000pt" height="32.000000pt" viewBox="0 0 32.000000 32.000000"
 preserveAspectRatio="xMidYMid meet">
<metadata>
Created by potrace 1.16, written by Peter Selinger 2001-2019
</metadata>
<g transform="translate(0.000000,32.000000) scale(0.100000,-0.100000)"
fill="#000000" stroke="none">
<path fill="#000000" stroke="none" d="M42 277 c-31 -32 -32 -36 -32 -118 0
-84 0 -85 35 -119 19 -18 37 -31 40 -29 2 3 -11 21 -30 39 -34 33 -35 36 -35
110 0 73 1 77 33 108 31 30 37 32 108 32 73 0 76 -1 109 -35 18 -19 36 -32 39
-30 2 3 -11 21 -29 40 -34 35 -35 35 -120 35 -84 0 -87 -1 -118 -33z"/>
<path fill="#000000" stroke="none" d="M72 267 c-27 -28 -28 -49 -4 -70 26
-24 46 -22 32 2 -5 11 -10 22 -10 25 0 13 28 5 48 -15 23 -21 42 -18 42 6 0 7
-7 15 -15 19 -8 3 -20 17 -25 31 -12 31 -40 32 -68 2z"/>
<path fill="#ffffff" stroke="none" d="M115 260 c3 -5 2 -10 -4 -10 -5 0 -13
5 -16 10 -3 6 -2 10 4 10 5 0 13 -4 16 -10z"/>
<path fill="#000000" stroke="none" d="M135 169 c4 -20 -1 -29 -18 -37 -17 -8
-18 -11 -4 -11 9 -1 17 -5 17 -11 0 -5 -7 -7 -16 -3 -12 4 -15 2 -12 -8 3 -8
11 -14 19 -14 8 -1 13 -6 12 -12 -1 -6 4 -17 12 -23 12 -10 16 -9 21 4 3 9 10
13 15 10 5 -3 7 -10 3 -15 -3 -6 3 -5 15 3 12 7 21 16 21 20 0 5 7 8 15 8 8 0
15 6 15 13 0 8 4 7 10 -3 9 -13 10 -13 10 0 0 8 -9 21 -20 28 -12 7 -18 17
-15 22 3 5 1 11 -4 14 -5 4 -12 2 -16 -3 -7 -12 -55 7 -72 29 -10 12 -11 11
-8 -11z"/>
<path fill="#000000" stroke="none" d="M245 130 c3 -5 8 -10 11 -10 2 0 4 5 4
10 0 6 -5 10 -11 10 -5 0 -7 -4 -4 -10z"/>
<path fill="#000000" stroke="none" d="M267 52 c-15 -16 -27 -31 -27 -35 0 -4
14 6 31 24 17 17 29 33 26 35 -2 2 -16 -9 -30 -24z"/>
</g>
</svg>
