<?xml version="1.0" standalone="no"?>
<!DOCTYPE svg PUBLIC "-//W3C//DTD SVG 20010904//EN"
 "http://www.w3.org/TR/2001/REC-SVG-20010904/DTD/svg10.dtd">
<svg version="1.0" xmlns="http://www.w3.org/2000/svg"
 width="32.000000pt" height="32.000000pt" viewBox="0 0 32.000000 32.000000"
 preserveAspectRatio="xMidYMid meet">
<metadata>
Created by potrace 1.16, written by Peter Selinger 2001-2019
</metadata>
<g transform="translate(0.000000,32.000000) scale(0.100000,-0.100000)"
fill="#000000" stroke="none">
<path fill="#000000" stroke="none" d="M0 160 l0 -160 160 0 160 0 0 160 0
160 -160 0 -160 0 0 -160z"/>
<path fill="#ffffff" stroke="none" d="M277 278 c32 -31 33 -34 33 -117 0 -82
-1 -86 -32 -118 -31 -32 -34 -33 -117 -33 -82 0 -86 1 -118 32 -32 31 -33 34
-33 117 0 82 1 86 32 118 31 32 34 33 117 33 82 0 86 -1 118 -32z"/>
<path fill="#000000" stroke="none" d="M52 267 c-30 -31 -32 -37 -32 -108 0
-72 1 -76 33 -107 31 -30 37 -32 108 -32 72 0 76 1 107 33 30 31 32 37 32 108
0 72 -1 76 -33 107 -31 30 -37 32 -108 32 -72 0 -76 -1 -107 -33z"/>
<path fill="#ffffff" stroke="none" d="M140 265 c5 -14 17 -28 25 -31 8 -4 15
-12 15 -19 0 -24 -19 -27 -42 -6 -20 20 -48 28 -48 15 0 -3 5 -14 10 -25 14
-24 -6 -26 -32 -2 -24 21 -23 42 4 70 28 30 56 29 68 -2z"/>
<path fill="#ffffff" stroke="none" d="M182 158 c17 -12 29 -15 33 -8 5 8 11
8 19 1 7 -6 15 -9 18 -6 3 3 11 -1 18 -10 10 -12 10 -15 0 -15 -7 0 -10 -7 -6
-15 4 -11 -3 -19 -19 -25 -14 -5 -25 -14 -25 -19 0 -5 -7 -12 -16 -15 -8 -3
-12 -2 -9 4 3 6 2 10 -4 10 -5 0 -12 -4 -16 -10 -7 -12 -34 -2 -62 24 -26 24
-29 36 -9 36 14 0 31 44 27 69 -2 14 5 11 51 -21z"/>
<path fill="#000000" stroke="none" d="M95 260 c3 -5 11 -10 16 -10 6 0 7 5 4
10 -3 6 -11 10 -16 10 -6 0 -7 -4 -4 -10z"/>
</g>
</svg>
