<?xml version="1.0" standalone="no"?>
<!DOCTYPE svg PUBLIC "-//W3C//DTD SVG 20010904//EN"
 "http://www.w3.org/TR/2001/REC-SVG-20010904/DTD/svg10.dtd">
<svg version="1.0" xmlns="http://www.w3.org/2000/svg"
 width="32.000000pt" height="32.000000pt" viewBox="0 0 32.000000 32.000000"
 preserveAspectRatio="xMidYMid meet">
<metadata>
Created by potrace 1.16, written by Peter Selinger 2001-2019
</metadata>
<g transform="translate(0.000000,32.000000) scale(0.100000,-0.100000)"
fill="#000000" stroke="none">
<path fill="#000000" stroke="none" d="M0 160 l0 -160 160 0 160 0 0 160 0
160 -160 0 -160 0 0 -160z"/>
<path fill="#ffffff" stroke="none" d="M277 278 c32 -31 33 -34 33 -117 0 -82
-1 -86 -32 -118 -31 -32 -34 -33 -117 -33 -82 0 -86 1 -118 32 -32 31 -33 34
-33 117 0 82 1 86 32 118 31 32 34 33 117 33 82 0 86 -1 118 -32z"/>
<path fill="#000000" stroke="none" d="M52 267 c-30 -31 -32 -37 -32 -108 0
-72 1 -76 33 -107 31 -30 37 -32 108 -32 72 0 76 1 107 33 30 31 32 37 32 108
0 72 -1 76 -33 107 -31 30 -37 32 -108 32 -72 0 -76 -1 -107 -33z"/>
<path fill="#ffffff" stroke="none" d="M140 265 c5 -14 17 -28 25 -31 8 -4 15
-12 15 -19 0 -24 -19 -27 -42 -6 -20 20 -48 28 -48 15 0 -3 5 -14 10 -25 14
-24 -6 -26 -32 -2 -24 21 -23 42 4 70 28 30 56 29 68 -2z"/>
<path fill="#ffffff" stroke="none" d="M217 167 l12 28 1 -26 c0 -31 23 -54
42 -43 10 6 10 4 0 -9 -8 -9 -11 -20 -8 -26 4 -5 -7 -19 -24 -31 -18 -13 -30
-17 -30 -9 0 8 -5 8 -17 -2 -15 -12 -16 -12 -10 4 5 13 1 17 -21 17 -25 1 -26
1 -7 12 11 6 22 12 24 14 2 2 -9 24 -24 50 l-27 46 38 -26 39 -26 12 27z"/>
<path fill="#ffffff" stroke="none" d="M262 138 c-7 -7 -12 -8 -12 -2 0 14 12
26 19 19 2 -3 -1 -11 -7 -17z"/>
<path fill="#000000" stroke="none" d="M95 260 c3 -5 11 -10 16 -10 6 0 7 5 4
10 -3 6 -11 10 -16 10 -6 0 -7 -4 -4 -10z"/>
</g>
</svg>
