<?xml version="1.0" standalone="no"?>
<!DOCTYPE svg PUBLIC "-//W3C//DTD SVG 20010904//EN"
 "http://www.w3.org/TR/2001/REC-SVG-20010904/DTD/svg10.dtd">
<svg version="1.0" xmlns="http://www.w3.org/2000/svg"
 width="32.000000pt" height="32.000000pt" viewBox="0 0 32.000000 32.000000"
 preserveAspectRatio="xMidYMid meet">
<metadata>
Created by potrace 1.16, written by Peter Selinger 2001-2019
</metadata>
<g transform="translate(0.000000,32.000000) scale(0.100000,-0.100000)"
fill="#000000" stroke="none">
<path fill="#000000" stroke="none" d="M42 277 c-31 -32 -32 -36 -32 -118 0
-83 1 -86 33 -117 32 -31 36 -32 118 -32 83 0 86 1 117 33 31 32 32 36 32 118
0 83 -1 86 -33 117 -32 31 -36 32 -118 32 -83 0 -86 -1 -117 -33z"/>
<path fill="#ffffff" stroke="none" d="M267 268 c32 -31 33 -35 33 -107 0 -71
-2 -77 -32 -108 -31 -32 -35 -33 -107 -33 -71 0 -77 2 -108 32 -32 31 -33 35
-33 107 0 71 2 77 32 108 31 32 35 33 107 33 71 0 77 -2 108 -32z"/>
<path fill="#000000" stroke="none" d="M72 267 c-27 -28 -28 -49 -4 -70 26
-24 46 -22 32 2 -5 11 -10 22 -10 25 0 13 28 5 48 -15 23 -21 42 -18 42 6 0 7
-7 15 -15 19 -8 3 -20 17 -25 31 -12 31 -40 32 -68 2z"/>
<path fill="#ffffff" stroke="none" d="M115 260 c3 -5 2 -10 -4 -10 -5 0 -13
5 -16 10 -3 6 -2 10 4 10 5 0 13 -4 16 -10z"/>
<path fill="#000000" stroke="none" d="M137 171 c5 -19 3 -22 -8 -16 -11 6
-12 5 -1 -6 14 -15 16 -33 3 -24 -5 3 -13 0 -17 -6 -4 -7 -3 -10 2 -7 15 9 54
-10 54 -26 0 -10 6 -13 15 -10 8 4 13 10 10 14 -6 10 24 22 36 14 14 -9 10
-24 -7 -24 -8 0 -12 -4 -9 -10 3 -5 -1 -10 -9 -10 -8 0 -18 -5 -22 -12 -4 -7
-3 -8 5 -4 6 4 19 2 27 -5 13 -11 19 -9 35 11 23 31 24 56 3 64 -9 4 -14 13
-10 21 3 8 1 15 -4 15 -6 0 -10 7 -10 17 0 21 -11 11 -14 -14 -4 -28 -28 -23
-58 11 -25 29 -27 29 -21 7z"/>
</g>
</svg>
