<?xml version="1.0" standalone="no"?>
<!DOCTYPE svg PUBLIC "-//W3C//DTD SVG 20010904//EN"
 "http://www.w3.org/TR/2001/REC-SVG-20010904/DTD/svg10.dtd">
<svg version="1.0" xmlns="http://www.w3.org/2000/svg"
 width="32.000000pt" height="32.000000pt" viewBox="0 0 32.000000 32.000000"
 preserveAspectRatio="xMidYMid meet">
<metadata>
Created by potrace 1.16, written by Peter Selinger 2001-2019
</metadata>
<g transform="translate(0.000000,32.000000) scale(0.100000,-0.100000)"
fill="#000000" stroke="none">
<path fill="#000000" stroke="none" d="M0 160 l0 -160 160 0 160 0 0 160 0
160 -160 0 -160 0 0 -160z"/>
<path fill="#ffffff" stroke="none" d="M280 275 c18 -19 31 -37 29 -40 -3 -2
-21 11 -39 30 -33 34 -36 35 -109 35 -71 0 -77 -2 -108 -32 -32 -31 -33 -35
-33 -108 0 -74 1 -77 35 -110 19 -18 32 -36 30 -39 -3 -2 -21 11 -40 29 -35
34 -35 35 -35 119 0 82 1 86 32 118 31 32 34 33 118 33 85 0 86 0 120 -35z"/>
<path fill="#ffffff" stroke="none" d="M149 249 c24 -29 30 -44 22 -52 -8 -8
-16 -5 -29 11 -21 24 -52 29 -52 9 0 -7 6 -19 13 -26 10 -10 8 -12 -6 -9 -10
1 -26 15 -35 30 -15 26 -15 28 8 53 13 14 29 25 35 25 6 0 26 -18 44 -41z"/>
<path fill="#ffffff" stroke="none" d="M192 135 c2 3 5 -2 5 -10 0 -8 -3 -13
-5 -10 -3 2 -16 -7 -29 -21 -21 -23 -51 -26 -37 -3 3 5 11 6 17 2 8 -5 8 -2
-1 9 -10 12 -9 18 3 28 12 10 13 16 3 29 -7 9 -1 6 13 -7 14 -12 28 -20 31
-17z"/>
<path fill="#ffffff" stroke="none" d="M234 122 c3 -5 -1 -9 -9 -9 -8 0 -12 4
-9 9 3 4 7 8 9 8 2 0 6 -4 9 -8z"/>
<path fill="#ffffff" stroke="none" d="M194 79 c-3 -5 -10 -7 -15 -3 -5 3 -7
10 -3 15 3 5 10 7 15 3 5 -3 7 -10 3 -15z"/>
<path fill="#000000" stroke="none" d="M90 260 c0 -5 7 -10 16 -10 8 0 12 5 9
10 -3 6 -10 10 -16 10 -5 0 -9 -4 -9 -10z"/>
</g>
</svg>
