<?xml version="1.0" standalone="no"?>
<!DOCTYPE svg PUBLIC "-//W3C//DTD SVG 20010904//EN"
 "http://www.w3.org/TR/2001/REC-SVG-20010904/DTD/svg10.dtd">
<svg version="1.0" xmlns="http://www.w3.org/2000/svg"
 width="32.000000pt" height="32.000000pt" viewBox="0 0 32.000000 32.000000"
 preserveAspectRatio="xMidYMid meet">
<metadata>
Created by potrace 1.16, written by Peter Selinger 2001-2019
</metadata>
<g transform="translate(0.000000,32.000000) scale(0.100000,-0.100000)"
fill="#000000" stroke="none">
<path fill="#000000" stroke="none" d="M42 277 c-31 -32 -32 -36 -32 -118 0
-83 1 -86 33 -117 32 -31 36 -32 118 -32 83 0 86 1 117 33 31 32 32 36 32 118
0 83 -1 86 -33 117 -32 31 -36 32 -118 32 -83 0 -86 -1 -117 -33z"/>
<path fill="#ffffff" stroke="none" d="M267 268 c32 -31 33 -35 33 -107 0 -71
-2 -77 -32 -108 -31 -32 -35 -33 -107 -33 -71 0 -77 2 -108 32 -32 31 -33 35
-33 107 0 71 2 77 32 108 31 32 35 33 107 33 71 0 77 -2 108 -32z"/>
<path fill="#000000" stroke="none" d="M72 267 c-27 -28 -28 -49 -4 -70 26
-24 46 -22 32 2 -5 11 -10 22 -10 25 0 13 28 5 48 -15 23 -21 42 -18 42 6 0 7
-7 15 -15 19 -8 3 -20 17 -25 31 -12 31 -40 32 -68 2z"/>
<path fill="#ffffff" stroke="none" d="M115 260 c3 -5 2 -10 -4 -10 -5 0 -13
5 -16 10 -3 6 -2 10 4 10 5 0 13 -4 16 -10z"/>
<path fill="#000000" stroke="none" d="M223 213 c4 -6 0 -13 -8 -17 -8 -3 -15
-15 -15 -26 0 -25 -5 -25 -41 0 l-28 21 12 -28 c39 -86 58 -113 82 -113 13 0
31 10 39 22 17 24 22 63 7 54 -4 -3 -6 7 -3 22 5 23 3 25 -10 14 -13 -10 -17
-10 -22 3 -3 8 -3 21 0 29 3 8 0 17 -7 22 -7 4 -10 3 -6 -3z"/>
</g>
</svg>
