<?xml version="1.0" standalone="no"?>
<!DOCTYPE svg PUBLIC "-//W3C//DTD SVG 20010904//EN"
 "http://www.w3.org/TR/2001/REC-SVG-20010904/DTD/svg10.dtd">
<svg version="1.0" xmlns="http://www.w3.org/2000/svg"
 width="32.000000pt" height="32.000000pt" viewBox="0 0 32.000000 32.000000"
 preserveAspectRatio="xMidYMid meet">
<metadata>
Created by potrace 1.16, written by Peter Selinger 2001-2019
</metadata>
<g transform="translate(0.000000,32.000000) scale(0.100000,-0.100000)"
fill="#000000" stroke="none">
<path fill="#000000" stroke="none" d="M0 160 l0 -160 160 0 160 0 0 160 0
160 -160 0 -160 0 0 -160z"/>
<path fill="#ffffff" stroke="none" d="M253 303 c3 -5 -33 -7 -80 -5 -85 4
-86 3 -120 -30 l-34 -33 3 -87 c2 -47 0 -84 -4 -81 -5 2 -8 43 -8 91 0 83 1
87 32 119 31 32 34 33 119 33 48 0 90 -3 92 -7z"/>
<path fill="#ffffff" stroke="none" d="M176 138 c16 -18 25 -30 20 -26 -5 5
-16 2 -24 -4 -33 -28 -52 -9 -24 24 9 11 9 17 0 26 -7 7 -10 12 -7 12 3 0 18
-15 35 -32z"/>
<path fill="#ffffff" stroke="none" d="M194 79 c-3 -5 -10 -7 -15 -3 -5 3 -7
10 -3 15 3 5 10 7 15 3 5 -3 7 -10 3 -15z"/>
</g>
</svg>
