<?xml version="1.0" standalone="no"?>
<!DOCTYPE svg PUBLIC "-//W3C//DTD SVG 20010904//EN"
 "http://www.w3.org/TR/2001/REC-SVG-20010904/DTD/svg10.dtd">
<svg version="1.0" xmlns="http://www.w3.org/2000/svg"
 width="32.000000pt" height="32.000000pt" viewBox="0 0 32.000000 32.000000"
 preserveAspectRatio="xMidYMid meet">
<metadata>
Created by potrace 1.16, written by Peter Selinger 2001-2019
</metadata>
<g transform="translate(0.000000,32.000000) scale(0.100000,-0.100000)"
fill="#000000" stroke="none">
<path fill="#000000" stroke="none" d="M42 277 c-31 -32 -32 -36 -32 -119 0
-48 3 -89 8 -91 4 -3 6 34 4 81 l-3 87 34 33 c34 33 35 34 120 30 47 -2 83 0
80 5 -2 4 -44 7 -92 7 -85 0 -88 -1 -119 -33z"/>
<path fill="#000000" stroke="none" d="M121 194 c12 -13 26 -21 30 -18 5 3 9
0 9 -5 0 -16 -21 -13 -44 7 -21 17 -21 17 -2 -5 22 -27 44 -30 53 -7 7 19 -19
47 -47 49 -20 2 -20 1 1 -21z"/>
</g>
</svg>
