<?xml version="1.0" standalone="no"?>
<!DOCTYPE svg PUBLIC "-//W3C//DTD SVG 20010904//EN"
 "http://www.w3.org/TR/2001/REC-SVG-20010904/DTD/svg10.dtd">
<svg version="1.0" xmlns="http://www.w3.org/2000/svg"
 width="32.000000pt" height="32.000000pt" viewBox="0 0 32.000000 32.000000"
 preserveAspectRatio="xMidYMid meet">
<metadata>
Created by potrace 1.16, written by Peter Selinger 2001-2019
</metadata>
<g transform="translate(0.000000,32.000000) scale(0.100000,-0.100000)"
fill="#000000" stroke="none">
<path fill="#000000" stroke="none" d="M42 277 c-31 -32 -32 -36 -32 -118 0
-84 0 -85 35 -119 19 -18 37 -31 40 -29 2 3 -11 21 -30 39 -34 33 -35 36 -35
110 0 73 1 77 33 108 31 30 37 32 108 32 73 0 76 -1 109 -35 18 -19 36 -32 39
-30 2 3 -11 21 -29 40 -34 35 -35 35 -120 35 -84 0 -87 -1 -118 -33z"/>
<path fill="#000000" stroke="none" d="M121 194 c12 -13 26 -21 30 -18 5 3 9
0 9 -5 0 -16 -21 -13 -42 6 -18 16 -18 16 -12 0 3 -10 17 -20 30 -23 26 -7 33
-31 9 -31 -8 0 -12 4 -9 9 3 4 -2 8 -10 8 -8 0 -17 -8 -19 -17 -4 -17 -5 -17
-6 0 0 10 -6 15 -11 12 -6 -4 -9 -1 -8 6 2 6 -3 14 -9 16 -23 8 -16 -60 7 -75
11 -7 20 -9 19 -5 -3 20 2 24 16 13 13 -10 18 -11 28 -1 9 10 8 11 -8 5 -11
-4 -17 -4 -13 1 4 4 17 8 29 9 12 0 28 11 36 22 13 20 12 22 -4 20 -13 -1 -17
5 -15 20 3 24 -20 47 -49 49 -18 2 -18 1 2 -21z"/>
<path fill="#ffffff" stroke="none" d="M87 98 c-3 -8 -6 -5 -6 6 -1 11 2 17 5
13 3 -3 4 -12 1 -19z"/>
<path fill="#000000" stroke="none" d="M225 200 c-3 -6 1 -7 9 -4 18 7 21 14
7 14 -6 0 -13 -4 -16 -10z"/>
<path fill="#000000" stroke="none" d="M206 75 c-6 -16 3 -19 28 -9 9 3 13 10
10 15 -8 14 -31 11 -38 -6z"/>
</g>
</svg>
