<?xml version="1.0" standalone="no"?>
<!DOCTYPE svg PUBLIC "-//W3C//DTD SVG 20010904//EN"
 "http://www.w3.org/TR/2001/REC-SVG-20010904/DTD/svg10.dtd">
<svg version="1.0" xmlns="http://www.w3.org/2000/svg"
 width="32.000000pt" height="32.000000pt" viewBox="0 0 32.000000 32.000000"
 preserveAspectRatio="xMidYMid meet">
<metadata>
Created by potrace 1.16, written by Peter Selinger 2001-2019
</metadata>
<g transform="translate(0.000000,32.000000) scale(0.100000,-0.100000)"
fill="#000000" stroke="none">
<path fill="#000000" stroke="none" d="M0 160 l0 -160 160 0 160 0 0 160 0
160 -160 0 -160 0 0 -160z"/>
<path fill="#ffffff" stroke="none" d="M280 275 c18 -19 31 -37 29 -40 -3 -2
-21 11 -39 30 -33 34 -36 35 -109 35 -71 0 -77 -2 -108 -32 -32 -31 -33 -35
-33 -108 0 -74 1 -77 35 -110 19 -18 32 -36 30 -39 -3 -2 -21 11 -40 29 -35
34 -35 35 -35 119 0 82 1 86 32 118 31 32 34 33 118 33 85 0 86 0 120 -35z"/>
<path fill="#ffffff" stroke="none" d="M140 218 c15 -10 24 -9 44 2 14 7 29
10 33 5 5 -4 2 -10 -4 -12 -19 -7 -16 -23 4 -23 15 0 15 -1 0 -18 -21 -23 -21
-31 -2 -52 14 -15 14 -19 -2 -31 -14 -12 -16 -12 -8 0 6 11 3 13 -13 9 -11 -3
-30 1 -41 9 -24 16 -43 10 -34 -12 3 -8 1 -15 -5 -15 -14 0 -23 42 -12 55 6 7
8 27 6 46 -6 50 1 57 34 37z"/>
<path fill="#ffffff" stroke="none" d="M271 41 c-17 -18 -31 -28 -31 -24 0 10
53 64 57 59 3 -2 -9 -18 -26 -35z"/>
</g>
</svg>
