<?xml version="1.0" standalone="no"?>
<!DOCTYPE svg PUBLIC "-//W3C//DTD SVG 20010904//EN"
 "http://www.w3.org/TR/2001/REC-SVG-20010904/DTD/svg10.dtd">
<svg version="1.0" xmlns="http://www.w3.org/2000/svg"
 width="32.000000pt" height="32.000000pt" viewBox="0 0 32.000000 32.000000"
 preserveAspectRatio="xMidYMid meet">
<metadata>
Created by potrace 1.16, written by Peter Selinger 2001-2019
</metadata>
<g transform="translate(0.000000,32.000000) scale(0.100000,-0.100000)"
fill="#000000" stroke="none">
<path fill="#000000" stroke="none" d="M42 277 c-31 -32 -32 -36 -32 -118 0
-84 0 -85 35 -119 19 -18 37 -31 40 -29 2 3 -11 21 -30 39 -34 33 -35 36 -35
110 0 73 1 77 33 108 31 30 37 32 108 32 73 0 76 -1 109 -35 18 -19 36 -32 39
-30 2 3 -11 21 -29 40 -34 35 -35 35 -120 35 -84 0 -87 -1 -118 -33z"/>
<path fill="#000000" stroke="none" d="M119 218 c-1 -2 -2 -17 -3 -35 -1 -18
-5 -35 -9 -39 -14 -14 -7 -24 16 -24 13 0 27 -3 31 -7 4 -5 20 -8 36 -8 24 0
27 3 18 18 -5 10 -7 25 -4 35 6 21 -19 57 -33 48 -6 -4 -20 -2 -31 4 -11 6
-20 9 -21 8z"/>
</g>
</svg>
