<?xml version="1.0" standalone="no"?>
<!DOCTYPE svg PUBLIC "-//W3C//DTD SVG 20010904//EN"
 "http://www.w3.org/TR/2001/REC-SVG-20010904/DTD/svg10.dtd">
<svg version="1.0" xmlns="http://www.w3.org/2000/svg"
 width="32.000000pt" height="32.000000pt" viewBox="0 0 32.000000 32.000000"
 preserveAspectRatio="xMidYMid meet">
<metadata>
Created by potrace 1.16, written by Peter Selinger 2001-2019
</metadata>
<g transform="translate(0.000000,32.000000) scale(0.100000,-0.100000)"
fill="#000000" stroke="none">
<path fill="#000000" stroke="none" d="M0 160 l0 -160 160 0 160 0 0 160 0
160 -160 0 -160 0 0 -160z"/>
<path fill="#ffffff" stroke="none" d="M270 265 c33 -34 35 -39 36 -115 1 -44
-2 -78 -6 -75 -4 3 -14 -3 -21 -12 -12 -14 -12 -16 1 -8 9 5 12 5 7 -1 -5 -5
-14 -9 -20 -9 -7 -1 -11 -7 -9 -14 1 -7 -2 -10 -8 -6 -5 3 -10 2 -10 -2 0 -5
-34 -9 -74 -9 -71 1 -77 3 -110 35 -35 34 -36 37 -36 110 0 71 2 77 32 108 31
32 35 33 108 33 74 0 77 -1 110 -35z"/>
<path fill="#000000" stroke="none" d="M94 258 c-54 -38 -71 -113 -35 -159 10
-13 16 -30 14 -36 -3 -9 5 -13 24 -13 22 0 31 7 43 33 l15 32 3 -29 c2 -16 -2
-32 -10 -37 -9 -6 -7 -9 9 -9 18 0 21 5 18 33 l-3 32 11 -28 c8 -20 18 -27 39
-27 32 0 34 6 13 30 -15 16 -19 37 -17 78 1 13 6 21 11 17 5 -3 12 -1 16 5 10
16 25 12 26 -7 0 -11 3 -13 6 -5 8 20 -19 68 -52 91 -40 27 -92 27 -131 -1z"/>
<path fill="#ffffff" stroke="none" d="M238 235 l24 -28 -36 -15 c-21 -8 -36
-21 -36 -31 0 -11 3 -13 8 -4 5 8 8 -1 8 -22 0 -19 8 -43 19 -55 18 -20 18
-20 -2 -20 -12 0 -25 12 -34 32 -18 42 -40 42 -59 1 -9 -19 -23 -33 -33 -33
-16 0 -16 2 2 28 11 15 22 41 26 58 5 29 3 32 -32 46 l-38 14 30 30 c26 27 37
31 79 29 41 -2 54 -8 74 -30z"/>
<path fill="#ffffff" stroke="none" d="M78 136 c-2 -30 1 -40 10 -38 8 1 11
-2 6 -9 -5 -9 -13 -5 -26 10 -20 26 -23 41 -8 41 6 0 8 11 4 26 -5 20 -4 25 5
19 8 -4 11 -23 9 -49z"/>
<path fill="#ffffff" stroke="none" d="M112 145 c-2 -14 -8 -25 -13 -25 -10 0
-12 34 -2 43 13 14 20 6 15 -18z"/>
<path fill="#000000" stroke="none" d="M123 239 c-4 -15 -11 -19 -26 -15 -14
3 -17 2 -9 -6 15 -15 38 -4 45 21 3 12 3 21 0 21 -3 0 -7 -9 -10 -21z"/>
<path fill="#000000" stroke="none" d="M187 239 c7 -25 30 -36 45 -21 8 8 5 9
-11 5 -15 -4 -21 -1 -21 10 0 9 -4 18 -9 21 -5 4 -7 -3 -4 -15z"/>
<path fill="#000000" stroke="none" d="M250 152 c0 -18 5 -32 10 -32 6 0 8 11
4 28 -10 39 -14 40 -14 4z"/>
</g>
</svg>
