<?xml version="1.0" standalone="no"?>
<!DOCTYPE svg PUBLIC "-//W3C//DTD SVG 20010904//EN"
 "http://www.w3.org/TR/2001/REC-SVG-20010904/DTD/svg10.dtd">
<svg version="1.0" xmlns="http://www.w3.org/2000/svg"
 width="32.000000pt" height="32.000000pt" viewBox="0 0 32.000000 32.000000"
 preserveAspectRatio="xMidYMid meet">
<metadata>
Created by potrace 1.16, written by Peter Selinger 2001-2019
</metadata>
<g transform="translate(0.000000,32.000000) scale(0.100000,-0.100000)"
fill="#000000" stroke="none">
<path fill="#000000" stroke="none" d="M0 160 l0 -160 160 0 160 0 0 160 0
160 -160 0 -160 0 0 -160z"/>
<path fill="#ffffff" stroke="none" d="M267 268 c32 -31 33 -35 33 -107 0 -71
-2 -77 -32 -108 -31 -32 -35 -33 -107 -33 -71 0 -77 2 -108 32 -32 31 -33 35
-33 107 0 71 2 77 32 108 31 32 35 33 107 33 71 0 77 -2 108 -32z"/>
<path fill="#000000" stroke="none" d="M93 258 c-38 -27 -53 -57 -53 -102 0
-68 52 -97 76 -41 20 49 18 62 -16 74 -18 6 -30 17 -30 27 0 14 3 15 12 6 7
-7 20 -12 30 -12 16 0 22 17 20 50 0 3 12 5 28 5 16 0 28 -2 28 -5 -2 -33 4
-50 20 -50 10 0 23 5 30 12 9 9 12 8 12 -4 0 -9 -14 -21 -31 -27 -29 -10 -31
-14 -25 -43 3 -18 15 -45 26 -61 19 -25 19 -27 3 -27 -10 0 -24 14 -33 33 -8
17 -22 32 -30 32 -8 0 -22 -15 -30 -32 -9 -19 -23 -33 -33 -33 -12 0 -16 4
-11 13 5 9 4 9 -6 0 -8 -7 -10 -16 -6 -20 9 -10 162 -10 171 -1 4 4 0 17 -9
30 -19 27 -22 73 -4 62 8 -5 9 -2 5 9 -3 9 -2 19 3 22 6 4 10 -14 10 -42 1
-44 2 -47 15 -29 17 23 19 75 4 108 -15 34 -70 68 -110 68 -19 0 -48 -10 -66
-22z"/>
<path fill="#ffffff" stroke="none" d="M123 240 c-6 -22 -11 -24 -32 -11 -11
7 -10 11 5 20 27 15 33 14 27 -9z"/>
<path fill="#ffffff" stroke="none" d="M222 249 c17 -9 18 -13 7 -20 -21 -13
-26 -11 -32 11 -6 23 -3 24 25 9z"/>
<path fill="#ffffff" stroke="none" d="M72 124 c-8 -15 -10 -15 -15 0 -4 9 -2
16 4 16 5 0 7 12 4 28 l-5 27 11 -27 c6 -17 7 -33 1 -44z"/>
<path fill="#ffffff" stroke="none" d="M267 168 c-3 -8 -6 -5 -6 6 -1 11 2 17
5 13 3 -3 4 -12 1 -19z"/>
<path fill="#ffffff" stroke="none" d="M101 127 c-13 -13 -15 1 -4 30 7 17 8
17 11 -1 2 -10 -1 -23 -7 -29z"/>
<path fill="#ffffff" stroke="none" d="M160 75 c0 -16 -6 -25 -15 -25 -8 0
-15 5 -15 11 0 5 5 7 12 3 7 -4 8 -3 4 4 -4 7 -4 17 -1 22 10 16 15 12 15 -15z"/>
</g>
</svg>
