<?xml version="1.0" standalone="no"?>
<!DOCTYPE svg PUBLIC "-//W3C//DTD SVG 20010904//EN"
 "http://www.w3.org/TR/2001/REC-SVG-20010904/DTD/svg10.dtd">
<svg version="1.0" xmlns="http://www.w3.org/2000/svg"
 width="32.000000pt" height="32.000000pt" viewBox="0 0 32.000000 32.000000"
 preserveAspectRatio="xMidYMid meet">
<metadata>
Created by potrace 1.16, written by Peter Selinger 2001-2019
</metadata>
<g transform="translate(0.000000,32.000000) scale(0.100000,-0.100000)"
fill="#000000" stroke="none">
<path fill="#000000" stroke="none" d="M0 160 l0 -160 160 0 160 0 0 160 0
160 -160 0 -160 0 0 -160z"/>
<path fill="#ffffff" stroke="none" d="M280 275 c18 -19 31 -37 29 -40 -3 -2
-21 11 -39 30 -33 34 -36 35 -109 35 -71 0 -77 -2 -108 -32 -32 -31 -33 -35
-33 -108 0 -74 1 -77 35 -110 19 -18 32 -36 30 -39 -3 -2 -21 11 -40 29 -35
34 -35 35 -35 119 0 82 1 86 32 118 31 32 34 33 118 33 85 0 86 0 120 -35z"/>
<path fill="#ffffff" stroke="none" d="M193 230 c40 -35 44 -36 50 -12 3 9 5
-17 6 -58 l1 -74 -41 39 c-30 30 -36 41 -24 43 19 4 15 21 -8 36 -34 21 -85
-39 -90 -107 -2 -20 -7 -40 -12 -44 -4 -5 -5 -3 -1 4 3 6 2 14 -4 18 -6 4 -8
10 -5 15 3 5 1 11 -4 14 -5 4 -13 1 -17 -5 -5 -8 -3 -9 6 -4 9 5 11 4 6 -4
-16 -25 -28 3 -23 52 4 42 10 56 41 84 44 41 75 42 119 3z"/>
</g>
</svg>
