<?xml version="1.0" standalone="no"?>
<!DOCTYPE svg PUBLIC "-//W3C//DTD SVG 20010904//EN"
 "http://www.w3.org/TR/2001/REC-SVG-20010904/DTD/svg10.dtd">
<svg version="1.0" xmlns="http://www.w3.org/2000/svg"
 width="32.000000pt" height="32.000000pt" viewBox="0 0 32.000000 32.000000"
 preserveAspectRatio="xMidYMid meet">
<metadata>
Created by potrace 1.16, written by Peter Selinger 2001-2019
</metadata>
<g transform="translate(0.000000,32.000000) scale(0.100000,-0.100000)"
fill="#000000" stroke="none">
<path fill="#000000" stroke="none" d="M0 160 l0 -160 160 0 160 0 0 160 0
160 -160 0 -160 0 0 -160z"/>
<path fill="#ffffff" stroke="none" d="M253 303 c3 -5 -33 -7 -80 -5 -85 4
-86 3 -120 -30 l-34 -33 3 -87 c2 -47 0 -84 -4 -81 -5 2 -8 43 -8 91 0 83 1
87 32 119 31 32 34 33 119 33 48 0 90 -3 92 -7z"/>
<path fill="#ffffff" stroke="none" d="M180 265 c10 -13 10 -19 -4 -33 -9 -10
-13 -22 -9 -25 3 -4 1 -7 -5 -7 -19 0 -25 22 -8 32 9 5 16 16 16 23 0 18 -27
20 -33 3 -2 -7 -8 -10 -12 -6 -11 10 4 28 24 28 10 0 24 -7 31 -15z"/>
<path fill="#ffffff" stroke="none" d="M170 126 c0 -3 -4 -8 -10 -11 -5 -3
-10 -1 -10 4 0 6 5 11 10 11 6 0 10 -2 10 -4z"/>
</g>
</svg>
