<?xml version="1.0" standalone="no"?>
<!DOCTYPE svg PUBLIC "-//W3C//DTD SVG 20010904//EN"
 "http://www.w3.org/TR/2001/REC-SVG-20010904/DTD/svg10.dtd">
<svg version="1.0" xmlns="http://www.w3.org/2000/svg"
 width="32.000000pt" height="32.000000pt" viewBox="0 0 32.000000 32.000000"
 preserveAspectRatio="xMidYMid meet">
<metadata>
Created by potrace 1.16, written by Peter Selinger 2001-2019
</metadata>
<g transform="translate(0.000000,32.000000) scale(0.100000,-0.100000)"
fill="#000000" stroke="none">
<path fill="#000000" stroke="none" d="M0 160 l0 -160 160 0 160 0 0 160 0
160 -160 0 -160 0 0 -160z"/>
<path fill="#ffffff" stroke="none" d="M280 275 c18 -19 31 -37 29 -40 -3 -2
-21 11 -39 30 -33 34 -36 35 -110 35 -62 0 -80 -4 -94 -19 -16 -18 -15 -19 25
-25 25 -4 46 -3 53 4 13 13 43 13 51 0 3 -6 -1 -7 -10 -4 -8 4 -22 1 -30 -6
-17 -14 -18 -20 -6 -39 8 -13 12 -13 27 0 16 12 17 12 11 -3 -10 -27 9 -22 32
8 12 15 21 22 21 16 0 -6 -4 -14 -10 -17 -6 -3 -10 -13 -10 -22 0 -11 4 -13
13 -6 17 14 58 23 51 12 -3 -5 -11 -9 -18 -9 -17 0 -49 -47 -41 -60 4 -6 10
-8 15 -5 5 3 9 -3 9 -12 -1 -10 2 -28 6 -40 10 -31 -14 -30 -43 0 -16 17 -30
22 -52 19 -31 -4 -38 6 -18 26 9 9 8 12 -5 12 -9 0 -17 6 -17 13 0 7 -16 28
-35 47 -19 19 -35 43 -35 53 0 16 -3 17 -15 7 -11 -9 -15 -33 -15 -89 0 -75 1
-78 35 -111 19 -18 32 -36 30 -39 -3 -2 -21 11 -40 29 -35 34 -35 35 -35 119
0 82 1 86 32 118 31 32 34 33 118 33 85 0 86 0 120 -35z"/>
<path fill="#000000" stroke="none" d="M60 237 c0 -6 22 -35 49 -62 38 -39 47
-53 38 -63 -9 -11 -6 -13 15 -11 18 3 35 -4 52 -20 34 -32 47 -19 15 15 -16
17 -23 34 -20 52 2 21 0 24 -11 15 -10 -9 -24 0 -63 38 -49 48 -75 61 -75 36z"/>
</g>
</svg>
