<?xml version="1.0" standalone="no"?>
<!DOCTYPE svg PUBLIC "-//W3C//DTD SVG 20010904//EN"
 "http://www.w3.org/TR/2001/REC-SVG-20010904/DTD/svg10.dtd">
<svg version="1.0" xmlns="http://www.w3.org/2000/svg"
 width="32.000000pt" height="32.000000pt" viewBox="0 0 32.000000 32.000000"
 preserveAspectRatio="xMidYMid meet">
<metadata>
Created by potrace 1.16, written by Peter Selinger 2001-2019
</metadata>
<g transform="translate(0.000000,32.000000) scale(0.100000,-0.100000)"
fill="#000000" stroke="none">
<path fill="#000000" stroke="none" d="M42 277 c-31 -32 -32 -36 -32 -118 0
-84 0 -85 35 -119 19 -18 37 -31 40 -29 2 3 -11 21 -30 39 -34 33 -35 36 -35
110 0 73 1 77 33 108 31 30 37 32 108 32 73 0 76 -1 109 -35 18 -19 36 -32 39
-30 2 3 -11 21 -29 40 -34 35 -35 35 -120 35 -84 0 -87 -1 -118 -33z"/>
<path fill="#000000" stroke="none" d="M128 202 l-3 -68 31 0 31 0 2 68 2 68
-30 0 c-29 0 -29 0 -33 -68z"/>
</g>
</svg>
