<?xml version="1.0" standalone="no"?>
<!DOCTYPE svg PUBLIC "-//W3C//DTD SVG 20010904//EN"
 "http://www.w3.org/TR/2001/REC-SVG-20010904/DTD/svg10.dtd">
<svg version="1.0" xmlns="http://www.w3.org/2000/svg"
 width="32.000000pt" height="32.000000pt" viewBox="0 0 32.000000 32.000000"
 preserveAspectRatio="xMidYMid meet">
<metadata>
Created by potrace 1.16, written by Peter Selinger 2001-2019
</metadata>
<g transform="translate(0.000000,32.000000) scale(0.100000,-0.100000)"
fill="#000000" stroke="none">
<path fill="#000000" stroke="none" d="M10 279 l0 -31 30 29 c17 15 30 29 30
30 0 2 -13 3 -30 3 -27 0 -30 -3 -30 -31z"/>
<path fill="#000000" stroke="none" d="M250 307 c0 -1 14 -15 30 -30 l30 -29
0 31 c0 28 -3 31 -30 31 -16 0 -30 -1 -30 -3z"/>
<path fill="#000000" stroke="none" d="M52 267 c-30 -31 -32 -37 -32 -108 0
-74 1 -76 38 -112 l38 -37 107 0 107 0 0 108 0 108 -38 37 c-37 36 -40 37
-113 37 -72 0 -76 -1 -107 -33z"/>
<path fill="#ffffff" stroke="none" d="M183 254 c13 -5 13 -8 -4 -25 -19 -19
-19 -19 -38 0 -14 14 -16 21 -8 25 17 7 33 7 50 0z"/>
<path fill="#ffffff" stroke="none" d="M183 183 c3 -15 0 -20 -7 -15 -6 4 -15
7 -21 7 -5 0 -11 7 -13 15 -2 10 5 16 17 16 12 0 21 -9 24 -23z"/>
<path fill="#ffffff" stroke="none" d="M124 139 c-3 -5 0 -18 7 -27 12 -15 12
-15 -7 1 -11 9 -26 17 -32 17 -7 0 -12 4 -12 10 0 5 7 7 15 4 8 -4 15 -1 15 6
0 6 5 8 10 5 6 -4 8 -11 4 -16z"/>
<path fill="#ffffff" stroke="none" d="M236 135 c10 -2 22 -4 27 -4 4 -1 7 -5
7 -10 0 -6 -12 -6 -29 -1 -21 6 -33 4 -47 -9 -17 -15 -17 -15 -6 0 7 9 12 21
11 25 -3 20 2 28 10 16 4 -7 17 -15 27 -17z"/>
<path fill="#ffffff" stroke="none" d="M57 124 c-3 -3 -12 -4 -19 -1 -8 3 -5
6 6 6 11 1 17 -2 13 -5z"/>
<path fill="#ffffff" stroke="none" d="M90 106 c0 -2 -7 -6 -15 -10 -8 -3 -15
-1 -15 4 0 6 7 10 15 10 8 0 15 -2 15 -4z"/>
<path fill="#ffffff" stroke="none" d="M250 102 c0 -4 -9 -8 -20 -9 -11 -1
-18 2 -15 8 7 11 35 12 35 1z"/>
<path fill="#000000" stroke="none" d="M10 40 c0 -27 3 -30 32 -30 l32 0 -29
30 c-16 17 -30 30 -32 30 -2 0 -3 -13 -3 -30z"/>
</g>
</svg>
