<?xml version="1.0" standalone="no"?>
<!DOCTYPE svg PUBLIC "-//W3C//DTD SVG 20010904//EN"
 "http://www.w3.org/TR/2001/REC-SVG-20010904/DTD/svg10.dtd">
<svg version="1.0" xmlns="http://www.w3.org/2000/svg"
 width="32.000000pt" height="32.000000pt" viewBox="0 0 32.000000 32.000000"
 preserveAspectRatio="xMidYMid meet">
<metadata>
Created by potrace 1.16, written by Peter Selinger 2001-2019
</metadata>
<g transform="translate(0.000000,32.000000) scale(0.100000,-0.100000)"
fill="#000000" stroke="none">
<path fill="#000000" stroke="none" d="M11 278 c2 -30 2 -30 6 -6 3 20 11 28
31 31 24 4 24 4 -5 6 -31 1 -33 -1 -32 -31z"/>
<path fill="#000000" stroke="none" d="M272 303 c20 -3 28 -11 31 -31 4 -24 4
-24 6 6 1 30 -1 32 -31 31 -30 -2 -30 -2 -6 -6z"/>
<path fill="#000000" stroke="none" d="M72 284 c-7 -7 -13 -17 -13 -21 0 -5
-10 -12 -22 -17 -22 -9 -22 -9 3 -16 24 -8 24 -8 3 -9 -19 -1 -23 -7 -23 -36
l0 -35 63 -2 c42 -1 50 -3 24 -5 -20 -2 -35 -8 -32 -14 4 -5 16 -7 28 -5 12 1
16 1 10 -1 -7 -3 -13 -10 -13 -16 0 -8 -4 -7 -12 1 -17 17 -28 15 -22 -5 5
-15 4 -15 -4 -4 -6 8 -18 16 -26 17 -24 3 -20 -37 4 -43 11 -3 18 -9 15 -13
-3 -4 2 -13 10 -20 13 -10 15 -9 15 9 0 20 5 21 73 20 51 -1 65 -3 47 -9 -14
-4 -20 -8 -14 -9 6 -1 11 -7 11 -15 0 -11 -6 -12 -23 -6 -12 5 -24 6 -27 2 -2
-4 -2 -2 -1 5 4 18 -15 27 -30 14 -7 -6 -15 -9 -17 -6 -3 2 -5 -5 -5 -15 0
-19 8 -20 108 -20 l108 0 0 108 c0 100 -2 110 -23 130 -18 17 -36 22 -75 22
-40 0 -52 4 -52 15 0 9 -9 15 -25 15 -28 0 -35 -20 -7 -21 11 0 12 -2 4 -6 -7
-3 -21 2 -30 10 -14 13 -19 13 -30 1z"/>
<path fill="#ffffff" stroke="none" d="M82 258 c-7 -7 -12 -8 -12 -2 0 14 12
26 19 19 2 -3 -1 -11 -7 -17z"/>
<path fill="#ffffff" stroke="none" d="M230 230 c0 -13 7 -20 20 -20 11 0 20
-4 20 -10 0 -5 -9 -10 -20 -10 -13 0 -20 -7 -20 -20 0 -11 -4 -20 -10 -20 -5
0 -10 9 -10 20 0 13 -7 20 -20 20 -11 0 -20 5 -20 10 0 6 9 10 20 10 13 0 20
7 20 20 0 11 5 20 10 20 6 0 10 -9 10 -20z"/>
<path fill="#ffffff" stroke="none" d="M150 226 c0 -17 -15 -36 -29 -36 -9 0
-22 -5 -29 -12 -9 -9 -12 -5 -12 20 0 30 2 32 35 32 19 0 35 -2 35 -4z"/>
<path fill="#ffffff" stroke="none" d="M45 200 c3 -5 1 -10 -4 -10 -6 0 -11 5
-11 10 0 6 2 10 4 10 3 0 8 -4 11 -10z"/>
<path fill="#ffffff" stroke="none" d="M147 174 c-3 -3 -12 -4 -19 -1 -8 3 -5
6 6 6 11 1 17 -2 13 -5z"/>
<path fill="#ffffff" stroke="none" d="M200 119 c0 -8 5 -8 15 1 9 7 15 8 15
2 0 -11 -25 -24 -52 -27 -12 -1 -18 5 -18 17 0 11 7 18 20 18 11 0 20 -5 20
-11z"/>
<path fill="#ffffff" stroke="none" d="M266 115 c17 -16 14 -18 -10 -9 -9 3
-16 10 -16 15 0 13 9 11 26 -6z"/>
<path fill="#ffffff" stroke="none" d="M280 67 c0 -2 -9 -12 -20 -22 -19 -18
-20 -17 -20 3 0 15 6 22 20 22 11 0 20 -2 20 -3z"/>
<path fill="#ffffff" stroke="none" d="M300 40 c0 -14 -7 -20 -22 -20 -20 0
-21 1 -3 20 10 11 20 20 22 20 1 0 3 -9 3 -20z"/>
<path fill="#ffffff" stroke="none" d="M122 28 c-7 -7 -12 -8 -12 -2 0 14 12
26 19 19 2 -3 -1 -11 -7 -17z"/>
<path fill="#000000" stroke="none" d="M120 209 c0 -5 5 -7 10 -4 6 3 10 8 10
11 0 2 -4 4 -10 4 -5 0 -10 -5 -10 -11z"/>
<path fill="#000000" stroke="none" d="M11 43 c-1 -31 1 -33 32 -32 29 2 29 2
5 6 -20 3 -28 11 -31 31 -4 24 -4 24 -6 -5z"/>
<path fill="#000000" stroke="none" d="M155 50 c3 -5 8 -10 11 -10 2 0 4 5 4
10 0 6 -5 10 -11 10 -5 0 -7 -4 -4 -10z"/>
</g>
</svg>
