<?xml version="1.0" standalone="no"?>
<!DOCTYPE svg PUBLIC "-//W3C//DTD SVG 20010904//EN"
 "http://www.w3.org/TR/2001/REC-SVG-20010904/DTD/svg10.dtd">
<svg version="1.0" xmlns="http://www.w3.org/2000/svg"
 width="32.000000pt" height="32.000000pt" viewBox="0 0 32.000000 32.000000"
 preserveAspectRatio="xMidYMid meet">
<metadata>
Created by potrace 1.16, written by Peter Selinger 2001-2019
</metadata>
<g transform="translate(0.000000,32.000000) scale(0.100000,-0.100000)"
fill="#000000" stroke="none">
<path fill="#000000" stroke="none" d="M52 267 c-30 -31 -32 -37 -32 -108 0
-74 1 -76 38 -112 37 -36 40 -37 113 -37 72 0 76 1 107 33 30 31 32 37 32 108
0 74 -1 76 -38 112 -37 36 -40 37 -113 37 -72 0 -76 -1 -107 -33z"/>
<path fill="#ffffff" stroke="none" d="M275 240 c-3 -5 -10 -10 -16 -10 -5 0
-9 5 -9 10 0 6 7 10 16 10 8 0 12 -4 9 -10z"/>
<path fill="#ffffff" stroke="none" d="M103 188 c-39 -41 -47 -34 -17 12 19
29 30 37 35 28 5 -8 -2 -23 -18 -40z"/>
<path fill="#ffffff" stroke="none" d="M140 186 c0 -2 -7 -7 -16 -10 -8 -3
-12 -2 -9 4 6 10 25 14 25 6z"/>
<path fill="#ffffff" stroke="none" d="M205 180 c3 -6 -1 -7 -9 -4 -18 7 -21
14 -7 14 6 0 13 -4 16 -10z"/>
<path fill="#ffffff" stroke="none" d="M208 113 c-12 -15 -22 -18 -14 -4 4 5
0 11 -6 14 -7 3 -3 4 9 4 17 -1 19 -4 11 -14z"/>
<path fill="#ffffff" stroke="none" d="M50 116 c0 -3 -4 -8 -10 -11 -5 -3 -10
-1 -10 4 0 6 5 11 10 11 6 0 10 -2 10 -4z"/>
<path fill="#ffffff" stroke="none" d="M290 110 c0 -5 -2 -10 -4 -10 -3 0 -8
5 -11 10 -3 6 -1 10 4 10 6 0 11 -4 11 -10z"/>
<path fill="#ffffff" stroke="none" d="M177 94 c-3 -3 -12 -4 -19 -1 -8 3 -5
6 6 6 11 1 17 -2 13 -5z"/>
</g>
</svg>
