<?xml version="1.0" standalone="no"?>
<!DOCTYPE svg PUBLIC "-//W3C//DTD SVG 20010904//EN"
 "http://www.w3.org/TR/2001/REC-SVG-20010904/DTD/svg10.dtd">
<svg version="1.0" xmlns="http://www.w3.org/2000/svg"
 width="32.000000pt" height="32.000000pt" viewBox="0 0 32.000000 32.000000"
 preserveAspectRatio="xMidYMid meet">
<metadata>
Created by potrace 1.16, written by Peter Selinger 2001-2019
</metadata>
<g transform="translate(0.000000,32.000000) scale(0.100000,-0.100000)"
fill="#000000" stroke="none">
<path fill="#000000" stroke="none" d="M104 209 c-3 -6 -3 -13 0 -16 3 -4 6
-1 6 6 0 7 7 11 15 8 8 -4 16 -3 19 1 3 4 -4 8 -14 9 -11 1 -22 -3 -26 -8z"/>
<path fill="#000000" stroke="none" d="M40 208 c0 -3 6 -11 14 -17 10 -9 17
-7 27 6 12 16 12 17 -2 6 -12 -10 -18 -10 -27 -1 -7 7 -12 9 -12 6z"/>
<path fill="#000000" stroke="none" d="M166 170 c4 -8 14 -23 23 -33 13 -16
13 -20 1 -28 -13 -9 -13 -10 0 -6 8 2 16 13 16 25 1 12 -2 20 -7 19 -4 -1 -15
7 -24 18 -9 11 -13 13 -9 5z"/>
<path fill="#000000" stroke="none" d="M181 76 c-9 -10 -7 -17 6 -27 16 -12
17 -12 6 2 -10 12 -10 18 -1 27 7 7 9 12 6 12 -3 0 -11 -6 -17 -14z"/>
</g>
</svg>
