<?xml version="1.0" standalone="no"?>
<!DOCTYPE svg PUBLIC "-//W3C//DTD SVG 20010904//EN"
 "http://www.w3.org/TR/2001/REC-SVG-20010904/DTD/svg10.dtd">
<svg version="1.0" xmlns="http://www.w3.org/2000/svg"
 width="32.000000pt" height="32.000000pt" viewBox="0 0 32.000000 32.000000"
 preserveAspectRatio="xMidYMid meet">
<metadata>
Created by potrace 1.16, written by Peter Selinger 2001-2019
</metadata>
<g transform="translate(0.000000,32.000000) scale(0.100000,-0.100000)"
fill="#000000" stroke="none">
<path fill="#000000" stroke="none" d="M0 160 l0 -160 73 0 c45 0 78 5 86 13
11 9 13 9 7 0 -6 -10 12 -13 73 -13 l81 0 0 160 0 159 -160 0 -160 0 0 -159z"/>
<path fill="#ffffff" stroke="none" d="M152 250 c-5 -36 -19 -49 -18 -17 1 20
13 47 20 47 1 0 1 -14 -2 -30z"/>
<path fill="#ffffff" stroke="none" d="M135 164 c-3 -20 -7 -40 -10 -44 -3 -5
1 -11 7 -13 8 -3 6 -6 -5 -6 -15 -1 -17 5 -13 37 3 20 5 43 5 50 1 6 6 12 12
12 6 0 8 -14 4 -36z"/>
<path fill="#ffffff" stroke="none" d="M139 76 c9 -10 7 -17 -6 -27 -16 -12
-17 -12 -6 2 10 12 10 18 1 27 -7 7 -9 12 -6 12 3 0 11 -6 17 -14z"/>
</g>
</svg>
