<?xml version="1.0" standalone="no"?>
<!DOCTYPE svg PUBLIC "-//W3C//DTD SVG 20010904//EN"
 "http://www.w3.org/TR/2001/REC-SVG-20010904/DTD/svg10.dtd">
<svg version="1.0" xmlns="http://www.w3.org/2000/svg"
 width="32.000000pt" height="32.000000pt" viewBox="0 0 32.000000 32.000000"
 preserveAspectRatio="xMidYMid meet">
<metadata>
Created by potrace 1.16, written by Peter Selinger 2001-2019
</metadata>
<g transform="translate(0.000000,32.000000) scale(0.100000,-0.100000)"
fill="#000000" stroke="none">
<path fill="#000000" stroke="none" d="M0 160 l0 -160 150 0 151 0 -12 23
c-12 22 -12 22 10 3 l21 -19 0 148 0 148 -25 -27 c-13 -14 -32 -26 -42 -25
-13 0 -12 3 7 10 26 11 40 26 40 47 0 9 -37 12 -150 12 l-150 0 0 -160z"/>
<path fill="#ffffff" stroke="none" d="M250 236 c0 -2 -9 -6 -20 -9 -11 -3
-20 -1 -20 4 0 5 9 9 20 9 11 0 20 -2 20 -4z"/>
<path fill="#ffffff" stroke="none" d="M200 176 c0 -3 -4 -8 -10 -11 -5 -3
-10 -1 -10 4 0 6 5 11 10 11 6 0 10 -2 10 -4z"/>
<path fill="#ffffff" stroke="none" d="M210 100 c0 -5 5 -10 10 -10 19 0 60
-32 54 -42 -3 -5 -14 0 -24 12 -9 11 -22 20 -27 20 -6 0 -16 7 -23 15 -9 10
-9 15 -1 15 6 0 11 -4 11 -10z"/>
</g>
</svg>
