<?xml version="1.0" standalone="no"?>
<!DOCTYPE svg PUBLIC "-//W3C//DTD SVG 20010904//EN"
 "http://www.w3.org/TR/2001/REC-SVG-20010904/DTD/svg10.dtd">
<svg version="1.0" xmlns="http://www.w3.org/2000/svg"
 width="32.000000pt" height="32.000000pt" viewBox="0 0 32.000000 32.000000"
 preserveAspectRatio="xMidYMid meet">
<metadata>
Created by potrace 1.16, written by Peter Selinger 2001-2019
</metadata>
<g transform="translate(0.000000,32.000000) scale(0.100000,-0.100000)"
fill="#000000" stroke="none">
<path fill="#000000" stroke="none" d="M0 170 l0 -150 128 128 c70 70 136 137
146 150 l19 22 -146 0 -147 0 0 -150z"/>
<path fill="#000000" stroke="none" d="M155 164 c-82 -85 -152 -156 -154 -159
-2 -3 2 -5 10 -5 26 0 309 288 309 314 0 17 -27 -8 -165 -150z"/>
<path fill="#000000" stroke="none" d="M310 280 c0 -5 -61 -70 -136 -145
l-137 -135 142 0 141 0 0 145 c0 80 -2 145 -5 145 -3 0 -5 -4 -5 -10z"/>
</g>
</svg>
