<?xml version="1.0" standalone="no"?>
<!DOCTYPE svg PUBLIC "-//W3C//DTD SVG 20010904//EN"
 "http://www.w3.org/TR/2001/REC-SVG-20010904/DTD/svg10.dtd">
<svg version="1.0" xmlns="http://www.w3.org/2000/svg"
 width="32.000000pt" height="32.000000pt" viewBox="0 0 32.000000 32.000000"
 preserveAspectRatio="xMidYMid meet">
<metadata>
Created by potrace 1.16, written by Peter Selinger 2001-2019
</metadata>
<g transform="translate(0.000000,32.000000) scale(0.100000,-0.100000)"
fill="#000000" stroke="none">
<path fill="#000000" stroke="none" d="M61 99 c-33 -40 -61 -78 -61 -83 0 -6
8 2 19 17 10 15 28 35 40 43 11 8 21 21 21 28 0 18 43 56 63 56 48 0 104 -61
94 -101 -3 -10 -1 -17 4 -13 5 3 6 -2 3 -11 -10 -24 -27 -3 -39 47 -8 33 -16
44 -39 51 -26 9 -32 7 -50 -19 -12 -16 -36 -45 -53 -65 -18 -20 -33 -39 -33
-43 0 -3 23 19 50 49 28 30 50 60 50 65 0 6 6 10 13 10 26 0 50 -27 56 -65 8
-48 33 -67 57 -43 14 14 15 20 5 32 -7 8 -10 19 -7 24 11 19 -58 83 -95 89
-35 5 -38 3 -98 -68z"/>
</g>
</svg>
