<?xml version="1.0" standalone="no"?>
<!DOCTYPE svg PUBLIC "-//W3C//DTD SVG 20010904//EN"
 "http://www.w3.org/TR/2001/REC-SVG-20010904/DTD/svg10.dtd">
<svg version="1.0" xmlns="http://www.w3.org/2000/svg"
 width="32.000000pt" height="32.000000pt" viewBox="0 0 32.000000 32.000000"
 preserveAspectRatio="xMidYMid meet">
<metadata>
Created by potrace 1.16, written by Peter Selinger 2001-2019
</metadata>
<g transform="translate(0.000000,32.000000) scale(0.100000,-0.100000)"
fill="#000000" stroke="none">
<path fill="#000000" stroke="none" d="M140 179 c0 -5 5 -7 10 -4 6 3 10 8 10
11 0 2 -4 4 -10 4 -5 0 -10 -5 -10 -11z"/>
<path fill="#000000" stroke="none" d="M210 171 c0 -6 3 -11 8 -11 4 0 13 -13
20 -30 8 -17 21 -30 29 -30 13 0 11 4 -5 19 -12 10 -22 23 -22 28 0 6 -7 16
-15 23 -10 9 -15 9 -15 1z"/>
<path fill="#000000" stroke="none" d="M100 150 c0 -11 2 -20 4 -20 2 0 6 9 9
20 3 11 1 20 -4 20 -5 0 -9 -9 -9 -20z"/>
<path fill="#000000" stroke="none" d="M80 125 c0 -8 -5 -15 -11 -15 -5 0 -7
-4 -4 -10 3 -5 1 -10 -4 -10 -6 0 -11 -5 -11 -11 0 -8 4 -9 13 0 8 6 16 9 18
6 3 -2 6 9 7 25 1 17 0 30 -3 30 -3 0 -5 -7 -5 -15z"/>
</g>
</svg>
