<?xml version="1.0" standalone="no"?>
<!DOCTYPE svg PUBLIC "-//W3C//DTD SVG 20010904//EN"
 "http://www.w3.org/TR/2001/REC-SVG-20010904/DTD/svg10.dtd">
<svg version="1.0" xmlns="http://www.w3.org/2000/svg"
 width="32.000000pt" height="32.000000pt" viewBox="0 0 32.000000 32.000000"
 preserveAspectRatio="xMidYMid meet">
<metadata>
Created by potrace 1.16, written by Peter Selinger 2001-2019
</metadata>
<g transform="translate(0.000000,32.000000) scale(0.100000,-0.100000)"
fill="#000000" stroke="none">
<path fill="#000000" stroke="none" d="M144 310 c2 -8 12 -38 21 -67 l16 -52
-53 -53 c-29 -29 -70 -66 -90 -81 -21 -15 -38 -33 -38 -38 0 -11 18 4 123 105
l69 65 -16 53 c-9 29 -21 60 -27 68 -9 13 -10 13 -5 0z"/>
<path fill="#000000" stroke="none" d="M184 297 c10 -15 20 -49 23 -76 l5 -47
-67 -67 c-37 -36 -75 -69 -85 -72 -10 -3 -21 -13 -24 -21 -8 -20 56 29 126 98
40 38 58 64 58 81 0 44 -11 82 -32 107 l-20 25 16 -28z"/>
</g>
</svg>
