<?xml version="1.0" standalone="no"?>
<!DOCTYPE svg PUBLIC "-//W3C//DTD SVG 20010904//EN"
 "http://www.w3.org/TR/2001/REC-SVG-20010904/DTD/svg10.dtd">
<svg version="1.0" xmlns="http://www.w3.org/2000/svg"
 width="32.000000pt" height="32.000000pt" viewBox="0 0 32.000000 32.000000"
 preserveAspectRatio="xMidYMid meet">
<metadata>
Created by potrace 1.16, written by Peter Selinger 2001-2019
</metadata>
<g transform="translate(0.000000,32.000000) scale(0.100000,-0.100000)"
fill="#000000" stroke="none">
<path fill="#000000" stroke="none" d="M0 160 l0 -160 151 0 c112 0 148 3 143
12 -5 8 -2 9 9 5 15 -6 17 8 17 148 l0 155 -81 0 c-61 0 -79 -3 -73 -12 6 -10
4 -10 -7 0 -8 7 -41 12 -86 12 l-73 0 0 -160z"/>
<path fill="#ffffff" stroke="none" d="M139 266 c9 -10 7 -17 -6 -27 -16 -12
-17 -12 -6 2 10 12 10 18 1 27 -7 7 -9 12 -6 12 3 0 11 -6 17 -14z"/>
<path fill="#ffffff" stroke="none" d="M131 211 c-7 -5 -11 -13 -7 -19 3 -6 2
-13 -2 -16 -5 -3 -8 5 -7 17 3 28 3 27 18 27 9 0 8 -3 -2 -9z"/>
<path fill="#ffffff" stroke="none" d="M200 120 c7 -13 7 -21 -2 -26 -7 -4 -8
-3 -4 4 4 7 -5 23 -21 38 -23 22 -24 25 -6 15 13 -6 27 -20 33 -31z"/>
<path fill="#ffffff" stroke="none" d="M270 49 c0 -6 5 -7 12 -3 7 5 8 3 3 -5
-6 -10 -10 -10 -19 0 -6 7 -18 19 -26 27 -13 11 -12 12 8 2 12 -6 22 -15 22
-21z"/>
</g>
</svg>
