<?xml version="1.0" standalone="no"?>
<!DOCTYPE svg PUBLIC "-//W3C//DTD SVG 20010904//EN"
 "http://www.w3.org/TR/2001/REC-SVG-20010904/DTD/svg10.dtd">
<svg version="1.0" xmlns="http://www.w3.org/2000/svg"
 width="32.000000pt" height="32.000000pt" viewBox="0 0 32.000000 32.000000"
 preserveAspectRatio="xMidYMid meet">
<metadata>
Created by potrace 1.16, written by Peter Selinger 2001-2019
</metadata>
<g transform="translate(0.000000,32.000000) scale(0.100000,-0.100000)"
fill="#000000" stroke="none">
<path fill="#000000" stroke="none" d="M278 297 c-15 -12 -41 -32 -58 -45 -16
-13 -30 -30 -30 -37 0 -8 -8 -16 -18 -19 -11 -4 -29 -17 -42 -31 -19 -20 -21
-29 -14 -62 4 -21 8 -43 9 -48 1 -14 34 -60 39 -54 2 2 -6 35 -18 74 -17 51
-20 72 -12 81 6 7 14 10 18 7 10 -5 60 45 55 55 -6 9 13 26 33 30 21 5 80 51
80 63 0 14 -13 10 -42 -14z"/>
</g>
</svg>
