<?xml version="1.0" standalone="no"?>
<!DOCTYPE svg PUBLIC "-//W3C//DTD SVG 20010904//EN"
 "http://www.w3.org/TR/2001/REC-SVG-20010904/DTD/svg10.dtd">
<svg version="1.0" xmlns="http://www.w3.org/2000/svg"
 width="32.000000pt" height="32.000000pt" viewBox="0 0 32.000000 32.000000"
 preserveAspectRatio="xMidYMid meet">
<metadata>
Created by potrace 1.16, written by Peter Selinger 2001-2019
</metadata>
<g transform="translate(0.000000,32.000000) scale(0.100000,-0.100000)"
fill="#000000" stroke="none">
<path fill="#000000" stroke="none" d="M14 292 c8 -16 21 -32 28 -36 46 -23
73 -46 78 -67 8 -34 -13 -88 -42 -107 -14 -9 -38 -32 -53 -49 -21 -26 -23 -33
-11 -33 9 0 20 8 23 18 8 21 28 42 41 42 4 0 19 11 32 25 13 14 21 25 17 25
-3 0 -2 14 3 31 13 45 -9 90 -62 125 -24 16 -44 33 -45 39 -1 5 -7 11 -13 13
-7 3 -6 -7 4 -26z"/>
</g>
</svg>
