<?xml version="1.0" standalone="no"?>
<!DOCTYPE svg PUBLIC "-//W3C//DTD SVG 20010904//EN"
 "http://www.w3.org/TR/2001/REC-SVG-20010904/DTD/svg10.dtd">
<svg version="1.0" xmlns="http://www.w3.org/2000/svg"
 width="32.000000pt" height="32.000000pt" viewBox="0 0 32.000000 32.000000"
 preserveAspectRatio="xMidYMid meet">
<metadata>
Created by potrace 1.16, written by Peter Selinger 2001-2019
</metadata>
<g transform="translate(0.000000,32.000000) scale(0.100000,-0.100000)"
fill="#000000" stroke="none">
<path fill="#000000" stroke="none" d="M63 107 c-44 -48 -68 -85 -59 -94 3 -3
10 6 15 20 6 14 27 44 47 66 30 34 43 41 75 41 39 0 89 -17 89 -30 0 -4 21
-30 46 -56 25 -27 38 -37 29 -22 -9 14 -23 29 -31 32 -8 3 -14 11 -14 19 0 30
-49 60 -103 65 -51 4 -53 3 -94 -41z"/>
<path fill="#000000" stroke="none" d="M83 83 c-30 -38 -57 -83 -50 -83 2 0
18 22 36 50 18 28 40 51 49 52 53 4 74 -5 119 -53 25 -27 50 -49 54 -49 5 0
-12 19 -36 41 -25 23 -42 45 -40 49 8 12 -6 18 -57 25 -44 6 -46 5 -75 -32z"/>
</g>
</svg>
