<?xml version="1.0" standalone="no"?>
<!DOCTYPE svg PUBLIC "-//W3C//DTD SVG 20010904//EN"
 "http://www.w3.org/TR/2001/REC-SVG-20010904/DTD/svg10.dtd">
<svg version="1.0" xmlns="http://www.w3.org/2000/svg"
 width="32.000000pt" height="32.000000pt" viewBox="0 0 32.000000 32.000000"
 preserveAspectRatio="xMidYMid meet">
<metadata>
Created by potrace 1.16, written by Peter Selinger 2001-2019
</metadata>
<g transform="translate(0.000000,32.000000) scale(0.100000,-0.100000)"
fill="#000000" stroke="none">
<path fill="#000000" stroke="none" d="M300 305 c-11 -13 -10 -14 4 -9 9 3 16
10 16 15 0 13 -6 11 -20 -6z"/>
<path fill="#000000" stroke="none" d="M250 263 c-24 -25 -24 -26 -2 -14 12 6
22 16 22 22 0 6 5 7 12 3 7 -4 8 -3 4 4 -9 15 -7 16 -36 -15z"/>
<path fill="#000000" stroke="none" d="M194 222 c4 -7 -5 -23 -21 -38 -23 -22
-24 -25 -6 -15 30 15 47 47 31 57 -7 4 -8 3 -4 -4z"/>
<path fill="#000000" stroke="none" d="M114 128 c0 -12 8 -23 16 -25 12 -4 13
-3 1 5 -7 5 -11 14 -7 20 3 6 2 13 -2 16 -5 3 -9 -4 -8 -16z"/>
</g>
</svg>
