<?xml version="1.0" standalone="no"?>
<!DOCTYPE svg PUBLIC "-//W3C//DTD SVG 20010904//EN"
 "http://www.w3.org/TR/2001/REC-SVG-20010904/DTD/svg10.dtd">
<svg version="1.0" xmlns="http://www.w3.org/2000/svg"
 width="32.000000pt" height="32.000000pt" viewBox="0 0 32.000000 32.000000"
 preserveAspectRatio="xMidYMid meet">
<metadata>
Created by potrace 1.16, written by Peter Selinger 2001-2019
</metadata>
<g transform="translate(0.000000,32.000000) scale(0.100000,-0.100000)"
fill="#000000" stroke="none">
<path fill="#000000" stroke="none" d="M0 316 c0 -2 8 -10 18 -17 15 -13 16
-12 3 4 -13 16 -21 21 -21 13z"/>
<path fill="#000000" stroke="none" d="M35 280 c-5 -9 -4 -11 3 -6 7 4 12 3
12 -3 0 -6 10 -16 23 -22 19 -10 20 -9 7 2 -8 8 -19 20 -26 28 -9 11 -12 12
-19 1z"/>
<path fill="#000000" stroke="none" d="M117 224 c-10 -10 11 -42 36 -55 18
-10 17 -7 -6 15 -15 14 -25 31 -22 36 7 11 2 13 -8 4z"/>
<path fill="#000000" stroke="none" d="M199 143 c-1 -5 -1 -12 0 -17 1 -5 -4
-13 -11 -18 -10 -7 -10 -9 2 -5 8 2 16 13 16 25 1 20 -5 31 -7 15z"/>
</g>
</svg>
